MidiFile(type=1, ticks_per_beat=120, tracks=[
  MidiTrack([
    MetaMessage('copyright', text='Copyright © 1996 by Joddy Ari Krisnadi', time=0),
    MetaMessage('time_signature', numerator=4, denominator=4, clocks_per_click=24, notated_32nd_notes_per_beat=8, time=0),
    MetaMessage('key_signature', key='G', time=0),
    MetaMessage('set_tempo', tempo=363636, time=0),
    MetaMessage('marker', text='[A], ©1996 by Joddy Ari Krisnadi', time=0),
    MetaMessage('time_signature', numerator=9, denominator=8, clocks_per_click=12, notated_32nd_notes_per_beat=8, time=2880),
    MetaMessage('time_signature', numerator=4, denominator=4, clocks_per_click=24, notated_32nd_notes_per_beat=8, time=540),
    MetaMessage('marker', text='[B], ©1996 by Joddy Ari Krisnadi', time=0),
    MetaMessage('set_tempo', tempo=413793, time=3960),
    MetaMessage('set_tempo', tempo=363636, time=360),
    MetaMessage('marker', text='[C], ©1996 by Joddy Ari Krisnadi', time=7200),
    MetaMessage('marker', text='[D], ©1996 by Joddy Ari Krisnadi', time=7681),
    MetaMessage('marker', text='[E], ©1996 by Joddy Ari Krisnadi', time=13440),
    MetaMessage('set_tempo', tempo=413793, time=9119),
    MetaMessage('marker', text='[F], ©1996 by Joddy Ari Krisnadi', time=0),
    MetaMessage('set_tempo', tempo=461538, time=2880),
    MetaMessage('marker', text='[G], ©1996 by Joddy Ari Krisnadi', time=0),
    MetaMessage('set_tempo', tempo=461538, time=3),
    MetaMessage('set_tempo', tempo=461538, time=267),
    MetaMessage('marker', text='[H], ©1996 by Joddy Ari Krisnadi', time=3570),
    MetaMessage('marker', text='[I], ©1996 by Joddy Ari Krisnadi', time=3840),
    MetaMessage('marker', text='[J], ©1996 by Joddy Ari Krisnadi', time=7680),
    MetaMessage('time_signature', numerator=5, denominator=4, clocks_per_click=24, notated_32nd_notes_per_beat=8, time=3360),
    MetaMessage('time_signature', numerator=4, denominator=4, clocks_per_click=24, notated_32nd_notes_per_beat=8, time=600),
    MetaMessage('marker', text='[K], ©1996 by Joddy Ari Krisnadi', time=9603),
    MetaMessage('set_tempo', tempo=352941, time=3837),
    MetaMessage('marker', text='[L], ©1996 by Joddy Ari Krisnadi', time=0),
    MetaMessage('marker', text='[M], ©1996 by Joddy Ari Krisnadi', time=23520),
    MetaMessage('marker', text='[N], ©1996 by Joddy Ari Krisnadi', time=3840),
    MetaMessage('end_of_track', time=0)]),
  MidiTrack([
    MetaMessage('midi_port', port=0, time=0),
    MetaMessage('track_name', name='Vocal', time=0),
    Message('program_change', channel=0, program=81, time=0),
    Message('control_change', channel=0, control=7, value=127, time=0),
    Message('note_on', channel=0, note=76, velocity=100, time=29340),
    Message('note_on', channel=0, note=76, velocity=0, time=60),
    Message('note_on', channel=0, note=76, velocity=100, time=0),
    Message('note_on', channel=0, note=76, velocity=0, time=120),
    Message('note_on', channel=0, note=76, velocity=100, time=0),
    Message('note_on', channel=0, note=76, velocity=0, time=120),
    Message('note_on', channel=0, note=76, velocity=100, time=0),
    Message('note_on', channel=0, note=76, velocity=0, time=120),
    Message('note_on', channel=0, note=76, velocity=100, time=0),
    Message('note_on', channel=0, note=76, velocity=0, time=120),
    Message('note_on', channel=0, note=76, velocity=100, time=0),
    Message('note_on', channel=0, note=76, velocity=0, time=180),
    Message('note_on', channel=0, note=71, velocity=100, time=120),
    Message('note_on', channel=0, note=71, velocity=0, time=60),
    Message('note_on', channel=0, note=71, velocity=100, time=0),
    Message('note_on', channel=0, note=71, velocity=0, time=60),
    Message('note_on', channel=0, note=76, velocity=100, time=0),
    Message('note_on', channel=0, note=76, velocity=0, time=120),
    Message('note_on', channel=0, note=76, velocity=100, time=0),
    Message('note_on', channel=0, note=76, velocity=0, time=60),
    Message('note_on', channel=0, note=76, velocity=100, time=0),
    Message('note_on', channel=0, note=76, velocity=0, time=120),
    Message('note_on', channel=0, note=76, velocity=100, time=0),
    Message('note_on', channel=0, note=76, velocity=0, time=120),
    Message('note_on', channel=0, note=76, velocity=100, time=0),
    Message('note_on', channel=0, note=76, velocity=0, time=60),
    Message('note_on', channel=0, note=79, velocity=100, time=0),
    Message('note_on', channel=0, note=79, velocity=0, time=120),
    Message('note_on', channel=0, note=79, velocity=100, time=360),
    Message('note_on', channel=0, note=79, velocity=0, time=60),
    Message('note_on', channel=0, note=79, velocity=100, time=0),
    Message('note_on', channel=0, note=79, velocity=0, time=120),
    Message('note_on', channel=0, note=79, velocity=100, time=0),
    Message('note_on', channel=0, note=79, velocity=0, time=120),
    Message('note_on', channel=0, note=79, velocity=100, time=0),
    Message('note_on', channel=0, note=79, velocity=0, time=120),
    Message('note_on', channel=0, note=79, velocity=100, time=0),
    Message('note_on', channel=0, note=79, velocity=0, time=120),
    Message('note_on', channel=0, note=79, velocity=100, time=0),
    Message('note_on', channel=0, note=79, velocity=0, time=60),
    Message('note_on', channel=0, note=78, velocity=100, time=0),
    Message('note_on', channel=0, note=78, velocity=0, time=120),
    Message('note_on', channel=0, note=71, velocity=100, time=120),
    Message('note_on', channel=0, note=71, velocity=0, time=60),
    Message('note_on', channel=0, note=74, velocity=100, time=0),
    Message('note_on', channel=0, note=74, velocity=0, time=60),
    Message('note_on', channel=0, note=76, velocity=100, time=0),
    Message('note_on', channel=0, note=76, velocity=0, time=60),
    Message('note_on', channel=0, note=74, velocity=100, time=0),
    Message('note_on', channel=0, note=74, velocity=0, time=60),
    Message('note_on', channel=0, note=76, velocity=100, time=0),
    Message('note_on', channel=0, note=76, velocity=0, time=60),
    Message('note_on', channel=0, note=74, velocity=100, time=0),
    Message('note_on', channel=0, note=74, velocity=0, time=60),
    Message('note_on', channel=0, note=76, velocity=100, time=0),
    Message('note_on', channel=0, note=76, velocity=0, time=60),
    Message('note_on', channel=0, note=74, velocity=100, time=0),
    Message('note_on', channel=0, note=74, velocity=0, time=180),
    Message('note_on', channel=0, note=76, velocity=100, time=480),
    Message('note_on', channel=0, note=76, velocity=0, time=60),
    Message('note_on', channel=0, note=76, velocity=100, time=0),
    Message('note_on', channel=0, note=76, velocity=0, time=120),
    Message('note_on', channel=0, note=76, velocity=100, time=0),
    Message('note_on', channel=0, note=76, velocity=0, time=120),
    Message('note_on', channel=0, note=76, velocity=100, time=0),
    Message('note_on', channel=0, note=76, velocity=0, time=120),
    Message('note_on', channel=0, note=76, velocity=100, time=0),
    Message('note_on', channel=0, note=76, velocity=0, time=120),
    Message('note_on', channel=0, note=76, velocity=100, time=0),
    Message('note_on', channel=0, note=76, velocity=0, time=180),
    Message('note_on', channel=0, note=71, velocity=100, time=120),
    Message('note_on', channel=0, note=71, velocity=0, time=60),
    Message('note_on', channel=0, note=71, velocity=100, time=0),
    Message('note_on', channel=0, note=71, velocity=0, time=60),
    Message('note_on', channel=0, note=76, velocity=100, time=0),
    Message('note_on', channel=0, note=76, velocity=0, time=120),
    Message('note_on', channel=0, note=76, velocity=100, time=0),
    Message('note_on', channel=0, note=76, velocity=0, time=60),
    Message('note_on', channel=0, note=76, velocity=100, time=0),
    Message('note_on', channel=0, note=76, velocity=0, time=120),
    Message('note_on', channel=0, note=76, velocity=100, time=0),
    Message('note_on', channel=0, note=76, velocity=0, time=120),
    Message('note_on', channel=0, note=76, velocity=100, time=0),
    Message('note_on', channel=0, note=76, velocity=0, time=60),
    Message('note_on', channel=0, note=79, velocity=100, time=0),
    Message('note_on', channel=0, note=79, velocity=0, time=120),
    Message('note_on', channel=0, note=79, velocity=100, time=360),
    Message('note_on', channel=0, note=79, velocity=0, time=60),
    Message('note_on', channel=0, note=79, velocity=100, time=0),
    Message('note_on', channel=0, note=79, velocity=0, time=120),
    Message('note_on', channel=0, note=79, velocity=100, time=0),
    Message('note_on', channel=0, note=79, velocity=0, time=120),
    Message('note_on', channel=0, note=79, velocity=100, time=0),
    Message('note_on', channel=0, note=79, velocity=0, time=120),
    Message('note_on', channel=0, note=79, velocity=100, time=0),
    Message('note_on', channel=0, note=79, velocity=0, time=120),
    Message('note_on', channel=0, note=79, velocity=100, time=0),
    Message('note_on', channel=0, note=79, velocity=0, time=60),
    Message('note_on', channel=0, note=78, velocity=100, time=0),
    Message('note_on', channel=0, note=78, velocity=0, time=120),
    Message('note_on', channel=0, note=71, velocity=100, time=120),
    Message('note_on', channel=0, note=71, velocity=0, time=60),
    Message('note_on', channel=0, note=74, velocity=100, time=0),
    Message('note_on', channel=0, note=74, velocity=0, time=60),
    Message('note_on', channel=0, note=76, velocity=100, time=0),
    Message('note_on', channel=0, note=76, velocity=0, time=60),
    Message('note_on', channel=0, note=74, velocity=100, time=0),
    Message('note_on', channel=0, note=74, velocity=0, time=60),
    Message('note_on', channel=0, note=76, velocity=100, time=0),
    Message('note_on', channel=0, note=76, velocity=0, time=60),
    Message('note_on', channel=0, note=74, velocity=100, time=0),
    Message('note_on', channel=0, note=74, velocity=0, time=60),
    Message('note_on', channel=0, note=76, velocity=100, time=0),
    Message('note_on', channel=0, note=76, velocity=0, time=60),
    Message('note_on', channel=0, note=74, velocity=100, time=0),
    Message('note_on', channel=0, note=74, velocity=0, time=180),
    Message('note_on', channel=0, note=76, velocity=100, time=480),
    Message('note_on', channel=0, note=76, velocity=0, time=60),
    Message('note_on', channel=0, note=76, velocity=100, time=0),
    Message('note_on', channel=0, note=76, velocity=0, time=120),
    Message('note_on', channel=0, note=76, velocity=100, time=0),
    Message('note_on', channel=0, note=76, velocity=0, time=120),
    Message('note_on', channel=0, note=76, velocity=100, time=0),
    Message('note_on', channel=0, note=76, velocity=0, time=120),
    Message('note_on', channel=0, note=76, velocity=100, time=0),
    Message('note_on', channel=0, note=76, velocity=0, time=120),
    Message('note_on', channel=0, note=76, velocity=100, time=0),
    Message('note_on', channel=0, note=76, velocity=0, time=180),
    Message('note_on', channel=0, note=71, velocity=100, time=120),
    Message('note_on', channel=0, note=71, velocity=0, time=60),
    Message('note_on', channel=0, note=71, velocity=100, time=0),
    Message('note_on', channel=0, note=71, velocity=0, time=60),
    Message('note_on', channel=0, note=76, velocity=100, time=0),
    Message('note_on', channel=0, note=76, velocity=0, time=120),
    Message('note_on', channel=0, note=76, velocity=100, time=0),
    Message('note_on', channel=0, note=76, velocity=0, time=60),
    Message('note_on', channel=0, note=76, velocity=100, time=0),
    Message('note_on', channel=0, note=76, velocity=0, time=120),
    Message('note_on', channel=0, note=76, velocity=100, time=0),
    Message('note_on', channel=0, note=76, velocity=0, time=120),
    Message('note_on', channel=0, note=76, velocity=100, time=0),
    Message('note_on', channel=0, note=76, velocity=0, time=60),
    Message('note_on', channel=0, note=79, velocity=100, time=0),
    Message('note_on', channel=0, note=79, velocity=0, time=120),
    Message('note_on', channel=0, note=79, velocity=100, time=360),
    Message('note_on', channel=0, note=79, velocity=0, time=60),
    Message('note_on', channel=0, note=79, velocity=100, time=0),
    Message('note_on', channel=0, note=79, velocity=0, time=120),
    Message('note_on', channel=0, note=79, velocity=100, time=0),
    Message('note_on', channel=0, note=79, velocity=0, time=120),
    Message('note_on', channel=0, note=79, velocity=100, time=0),
    Message('note_on', channel=0, note=79, velocity=0, time=120),
    Message('note_on', channel=0, note=79, velocity=100, time=0),
    Message('note_on', channel=0, note=79, velocity=0, time=120),
    Message('note_on', channel=0, note=79, velocity=100, time=0),
    Message('note_on', channel=0, note=79, velocity=0, time=60),
    Message('note_on', channel=0, note=78, velocity=100, time=0),
    Message('note_on', channel=0, note=78, velocity=0, time=120),
    Message('note_on', channel=0, note=71, velocity=100, time=120),
    Message('note_on', channel=0, note=71, velocity=0, time=60),
    Message('note_on', channel=0, note=74, velocity=100, time=0),
    Message('note_on', channel=0, note=74, velocity=0, time=60),
    Message('note_on', channel=0, note=76, velocity=100, time=0),
    Message('note_on', channel=0, note=76, velocity=0, time=60),
    Message('note_on', channel=0, note=74, velocity=100, time=0),
    Message('note_on', channel=0, note=74, velocity=0, time=60),
    Message('note_on', channel=0, note=76, velocity=100, time=0),
    Message('note_on', channel=0, note=76, velocity=0, time=60),
    Message('note_on', channel=0, note=74, velocity=100, time=0),
    Message('note_on', channel=0, note=74, velocity=0, time=60),
    Message('note_on', channel=0, note=76, velocity=100, time=0),
    Message('note_on', channel=0, note=76, velocity=0, time=60),
    Message('note_on', channel=0, note=74, velocity=100, time=0),
    Message('note_on', channel=0, note=74, velocity=0, time=180),
    Message('note_on', channel=0, note=76, velocity=100, time=480),
    Message('note_on', channel=0, note=76, velocity=0, time=60),
    Message('note_on', channel=0, note=76, velocity=100, time=0),
    Message('note_on', channel=0, note=76, velocity=0, time=120),
    Message('note_on', channel=0, note=76, velocity=100, time=0),
    Message('note_on', channel=0, note=76, velocity=0, time=120),
    Message('note_on', channel=0, note=76, velocity=100, time=0),
    Message('note_on', channel=0, note=76, velocity=0, time=120),
    Message('note_on', channel=0, note=76, velocity=100, time=0),
    Message('note_on', channel=0, note=76, velocity=0, time=120),
    Message('note_on', channel=0, note=76, velocity=100, time=0),
    Message('note_on', channel=0, note=76, velocity=0, time=180),
    Message('note_on', channel=0, note=71, velocity=100, time=120),
    Message('note_on', channel=0, note=71, velocity=0, time=60),
    Message('note_on', channel=0, note=71, velocity=100, time=0),
    Message('note_on', channel=0, note=71, velocity=0, time=60),
    Message('note_on', channel=0, note=76, velocity=100, time=0),
    Message('note_on', channel=0, note=76, velocity=0, time=120),
    Message('note_on', channel=0, note=76, velocity=100, time=0),
    Message('note_on', channel=0, note=76, velocity=0, time=60),
    Message('note_on', channel=0, note=76, velocity=100, time=0),
    Message('note_on', channel=0, note=76, velocity=0, time=120),
    Message('note_on', channel=0, note=76, velocity=100, time=0),
    Message('note_on', channel=0, note=76, velocity=0, time=120),
    Message('note_on', channel=0, note=76, velocity=100, time=0),
    Message('note_on', channel=0, note=76, velocity=0, time=60),
    Message('note_on', channel=0, note=79, velocity=100, time=0),
    Message('note_on', channel=0, note=79, velocity=0, time=120),
    Message('note_on', channel=0, note=79, velocity=100, time=360),
    Message('note_on', channel=0, note=79, velocity=0, time=60),
    Message('note_on', channel=0, note=79, velocity=100, time=0),
    Message('note_on', channel=0, note=79, velocity=0, time=120),
    Message('note_on', channel=0, note=79, velocity=100, time=0),
    Message('note_on', channel=0, note=79, velocity=0, time=120),
    Message('note_on', channel=0, note=79, velocity=100, time=0),
    Message('note_on', channel=0, note=79, velocity=0, time=120),
    Message('note_on', channel=0, note=79, velocity=100, time=0),
    Message('note_on', channel=0, note=79, velocity=0, time=120),
    Message('note_on', channel=0, note=79, velocity=100, time=0),
    Message('note_on', channel=0, note=79, velocity=0, time=60),
    Message('note_on', channel=0, note=78, velocity=100, time=0),
    Message('note_on', channel=0, note=78, velocity=0, time=120),
    Message('note_on', channel=0, note=71, velocity=100, time=120),
    Message('note_on', channel=0, note=71, velocity=0, time=60),
    Message('note_on', channel=0, note=74, velocity=100, time=0),
    Message('note_on', channel=0, note=74, velocity=0, time=60),
    Message('note_on', channel=0, note=76, velocity=100, time=0),
    Message('note_on', channel=0, note=76, velocity=0, time=60),
    Message('note_on', channel=0, note=74, velocity=100, time=0),
    Message('note_on', channel=0, note=74, velocity=0, time=60),
    Message('note_on', channel=0, note=76, velocity=100, time=0),
    Message('note_on', channel=0, note=76, velocity=0, time=60),
    Message('note_on', channel=0, note=74, velocity=100, time=0),
    Message('note_on', channel=0, note=74, velocity=0, time=60),
    Message('note_on', channel=0, note=76, velocity=100, time=0),
    Message('note_on', channel=0, note=76, velocity=0, time=60),
    Message('note_on', channel=0, note=74, velocity=100, time=0),
    Message('note_on', channel=0, note=74, velocity=0, time=180),
    Message('note_on', channel=0, note=76, velocity=100, time=480),
    Message('note_on', channel=0, note=76, velocity=0, time=60),
    Message('note_on', channel=0, note=74, velocity=100, time=0),
    Message('note_on', channel=0, note=74, velocity=0, time=60),
    Message('note_on', channel=0, note=76, velocity=100, time=0),
    Message('note_on', channel=0, note=76, velocity=0, time=360),
    Message('control_change', channel=0, control=7, value=127, time=2245),
    Message('control_change', channel=0, control=10, value=64, time=0),
    Message('note_on', channel=0, note=62, velocity=100, time=635),
    Message('control_change', channel=0, control=68, value=0, time=1),
    Message('control_change', channel=0, control=68, value=127, time=2),
    Message('note_on', channel=0, note=62, velocity=0, time=57),
    Message('note_on', channel=0, note=62, velocity=100, time=0),
    Message('note_on', channel=0, note=62, velocity=0, time=60),
    Message('note_on', channel=0, note=62, velocity=100, time=0),
    Message('note_on', channel=0, note=62, velocity=0, time=60),
    Message('note_on', channel=0, note=62, velocity=100, time=0),
    Message('note_on', channel=0, note=62, velocity=0, time=60),
    Message('note_on', channel=0, note=62, velocity=100, time=0),
    Message('note_on', channel=0, note=62, velocity=0, time=120),
    Message('note_on', channel=0, note=62, velocity=100, time=0),
    Message('note_on', channel=0, note=62, velocity=0, time=60),
    Message('note_on', channel=0, note=62, velocity=100, time=0),
    Message('note_on', channel=0, note=62, velocity=0, time=60),
    Message('note_on', channel=0, note=62, velocity=100, time=0),
    Message('note_on', channel=0, note=62, velocity=0, time=60),
    Message('note_on', channel=0, note=62, velocity=100, time=0),
    Message('note_on', channel=0, note=62, velocity=0, time=60),
    Message('note_on', channel=0, note=62, velocity=100, time=0),
    Message('note_on', channel=0, note=62, velocity=0, time=120),
    Message('note_on', channel=0, note=62, velocity=100, time=0),
    Message('note_on', channel=0, note=62, velocity=0, time=60),
    Message('note_on', channel=0, note=62, velocity=100, time=0),
    Message('note_on', channel=0, note=62, velocity=0, time=180),
    Message('note_on', channel=0, note=62, velocity=100, time=0),
    Message('note_on', channel=0, note=62, velocity=0, time=60),
    Message('note_on', channel=0, note=62, velocity=100, time=0),
    Message('note_on', channel=0, note=62, velocity=0, time=60),
    Message('note_on', channel=0, note=62, velocity=100, time=0),
    Message('note_on', channel=0, note=62, velocity=0, time=60),
    Message('note_on', channel=0, note=62, velocity=100, time=0),
    Message('note_on', channel=0, note=62, velocity=0, time=60),
    Message('note_on', channel=0, note=62, velocity=100, time=0),
    Message('note_on', channel=0, note=62, velocity=0, time=60),
    Message('note_on', channel=0, note=62, velocity=100, time=0),
    Message('note_on', channel=0, note=62, velocity=0, time=60),
    Message('note_on', channel=0, note=62, velocity=100, time=0),
    Message('note_on', channel=0, note=62, velocity=0, time=60),
    Message('note_on', channel=0, note=62, velocity=100, time=0),
    Message('note_on', channel=0, note=62, velocity=0, time=60),
    Message('note_on', channel=0, note=62, velocity=100, time=0),
    Message('note_on', channel=0, note=62, velocity=0, time=60),
    Message('note_on', channel=0, note=62, velocity=100, time=0),
    Message('note_on', channel=0, note=62, velocity=0, time=60),
    Message('note_on', channel=0, note=62, velocity=100, time=0),
    Message('note_on', channel=0, note=62, velocity=0, time=60),
    Message('note_on', channel=0, note=62, velocity=100, time=0),
    Message('note_on', channel=0, note=62, velocity=0, time=60),
    Message('note_on', channel=0, note=62, velocity=100, time=0),
    Message('note_on', channel=0, note=62, velocity=0, time=60),
    Message('note_on', channel=0, note=62, velocity=100, time=0),
    Message('note_on', channel=0, note=62, velocity=0, time=180),
    Message('note_on', channel=0, note=62, velocity=100, time=0),
    Message('note_on', channel=0, note=62, velocity=0, time=60),
    Message('note_on', channel=0, note=62, velocity=100, time=0),
    Message('note_on', channel=0, note=62, velocity=0, time=60),
    Message('note_on', channel=0, note=62, velocity=100, time=0),
    Message('note_on', channel=0, note=62, velocity=0, time=60),
    Message('note_on', channel=0, note=62, velocity=100, time=0),
    Message('note_on', channel=0, note=62, velocity=0, time=60),
    Message('note_on', channel=0, note=62, velocity=100, time=0),
    Message('note_on', channel=0, note=62, velocity=0, time=60),
    Message('note_on', channel=0, note=62, velocity=100, time=0),
    Message('note_on', channel=0, note=62, velocity=0, time=60),
    Message('note_on', channel=0, note=62, velocity=100, time=0),
    Message('note_on', channel=0, note=62, velocity=0, time=60),
    Message('note_on', channel=0, note=62, velocity=100, time=0),
    Message('note_on', channel=0, note=62, velocity=0, time=60),
    Message('note_on', channel=0, note=62, velocity=100, time=3),
    Message('note_on', channel=0, note=62, velocity=0, time=60),
    Message('note_on', channel=0, note=62, velocity=100, time=0),
    Message('note_on', channel=0, note=62, velocity=0, time=60),
    Message('note_on', channel=0, note=62, velocity=100, time=0),
    Message('note_on', channel=0, note=62, velocity=0, time=60),
    Message('note_on', channel=0, note=62, velocity=100, time=0),
    Message('note_on', channel=0, note=62, velocity=0, time=60),
    Message('note_on', channel=0, note=62, velocity=100, time=0),
    Message('note_on', channel=0, note=62, velocity=0, time=60),
    Message('note_on', channel=0, note=62, velocity=100, time=0),
    Message('note_on', channel=0, note=62, velocity=0, time=60),
    Message('note_on', channel=0, note=62, velocity=100, time=0),
    Message('note_on', channel=0, note=62, velocity=0, time=60),
    Message('note_on', channel=0, note=62, velocity=100, time=0),
    Message('note_on', channel=0, note=62, velocity=100, time=57),
    Message('note_on', channel=0, note=62, velocity=0, time=3),
    Message('note_on', channel=0, note=62, velocity=0, time=57),
    Message('note_on', channel=0, note=62, velocity=100, time=0),
    Message('note_on', channel=0, note=62, velocity=0, time=60),
    Message('note_on', channel=0, note=62, velocity=100, time=0),
    Message('note_on', channel=0, note=62, velocity=0, time=60),
    Message('note_on', channel=0, note=62, velocity=100, time=0),
    Message('note_on', channel=0, note=62, velocity=0, time=60),
    Message('note_on', channel=0, note=62, velocity=100, time=0),
    Message('note_on', channel=0, note=62, velocity=0, time=60),
    Message('note_on', channel=0, note=62, velocity=100, time=0),
    Message('note_on', channel=0, note=62, velocity=0, time=60),
    Message('note_on', channel=0, note=62, velocity=100, time=0),
    Message('note_on', channel=0, note=62, velocity=0, time=60),
    Message('note_on', channel=0, note=62, velocity=100, time=0),
    Message('note_on', channel=0, note=62, velocity=0, time=60),
    Message('note_on', channel=0, note=62, velocity=100, time=0),
    Message('note_on', channel=0, note=62, velocity=0, time=120),
    Message('note_on', channel=0, note=62, velocity=100, time=0),
    Message('note_on', channel=0, note=62, velocity=0, time=60),
    Message('note_on', channel=0, note=62, velocity=100, time=0),
    Message('note_on', channel=0, note=62, velocity=0, time=60),
    Message('note_on', channel=0, note=62, velocity=100, time=0),
    Message('note_on', channel=0, note=62, velocity=0, time=60),
    Message('note_on', channel=0, note=62, velocity=100, time=0),
    Message('note_on', channel=0, note=62, velocity=0, time=60),
    Message('note_on', channel=0, note=62, velocity=100, time=0),
    Message('note_on', channel=0, note=62, velocity=0, time=60),
    Message('note_on', channel=0, note=62, velocity=100, time=0),
    Message('note_on', channel=0, note=62, velocity=0, time=60),
    Message('note_on', channel=0, note=62, velocity=100, time=0),
    Message('note_on', channel=0, note=62, velocity=0, time=120),
    Message('note_on', channel=0, note=79, velocity=100, time=3720),
    Message('note_on', channel=0, note=79, velocity=0, time=360),
    Message('note_on', channel=0, note=76, velocity=100, time=0),
    Message('note_on', channel=0, note=76, velocity=0, time=60),
    Message('note_on', channel=0, note=79, velocity=100, time=0),
    Message('note_on', channel=0, note=79, velocity=0, time=480),
    Message('note_on', channel=0, note=74, velocity=100, time=0),
    Message('note_on', channel=0, note=74, velocity=0, time=60),
    Message('note_on', channel=0, note=76, velocity=100, time=0),
    Message('note_on', channel=0, note=76, velocity=0, time=60),
    Message('note_on', channel=0, note=74, velocity=100, time=0),
    Message('note_on', channel=0, note=74, velocity=0, time=60),
    Message('note_on', channel=0, note=76, velocity=100, time=0),
    Message('note_on', channel=0, note=76, velocity=0, time=60),
    Message('note_on', channel=0, note=74, velocity=100, time=0),
    Message('note_on', channel=0, note=74, velocity=0, time=60),
    Message('note_on', channel=0, note=76, velocity=100, time=0),
    Message('note_on', channel=0, note=76, velocity=0, time=240),
    Message('note_on', channel=0, note=76, velocity=100, time=480),
    Message('note_on', channel=0, note=76, velocity=0, time=360),
    Message('note_on', channel=0, note=74, velocity=100, time=0),
    Message('note_on', channel=0, note=74, velocity=0, time=60),
    Message('note_on', channel=0, note=76, velocity=100, time=0),
    Message('note_on', channel=0, note=76, velocity=0, time=180),
    Message('note_on', channel=0, note=79, velocity=100, time=60),
    Message('note_on', channel=0, note=79, velocity=0, time=60),
    Message('note_on', channel=0, note=79, velocity=100, time=0),
    Message('note_on', channel=0, note=79, velocity=0, time=80),
    Message('note_on', channel=0, note=79, velocity=100, time=0),
    Message('note_on', channel=0, note=79, velocity=0, time=80),
    Message('note_on', channel=0, note=76, velocity=100, time=0),
    Message('note_on', channel=0, note=76, velocity=0, time=80),
    Message('note_on', channel=0, note=79, velocity=100, time=0),
    Message('note_on', channel=0, note=79, velocity=0, time=60),
    Message('note_on', channel=0, note=78, velocity=100, time=0),
    Message('note_on', channel=0, note=78, velocity=0, time=60),
    Message('note_on', channel=0, note=76, velocity=100, time=180),
    Message('note_on', channel=0, note=76, velocity=0, time=60),
    Message('note_on', channel=0, note=76, velocity=100, time=0),
    Message('note_on', channel=0, note=76, velocity=0, time=60),
    Message('note_on', channel=0, note=74, velocity=100, time=0),
    Message('note_on', channel=0, note=74, velocity=0, time=60),
    Message('note_on', channel=0, note=76, velocity=100, time=0),
    Message('note_on', channel=0, note=76, velocity=0, time=60),
    Message('note_on', channel=0, note=74, velocity=100, time=0),
    Message('note_on', channel=0, note=74, velocity=0, time=180),
    Message('note_on', channel=0, note=79, velocity=100, time=360),
    Message('note_on', channel=0, note=79, velocity=0, time=120),
    Message('note_on', channel=0, note=79, velocity=100, time=0),
    Message('note_on', channel=0, note=79, velocity=0, time=60),
    Message('note_on', channel=0, note=78, velocity=100, time=0),
    Message('note_on', channel=0, note=78, velocity=0, time=60),
    Message('note_on', channel=0, note=76, velocity=100, time=0),
    Message('note_on', channel=0, note=76, velocity=0, time=60),
    Message('note_on', channel=0, note=79, velocity=100, time=0),
    Message('note_on', channel=0, note=79, velocity=0, time=120),
    Message('note_on', channel=0, note=78, velocity=100, time=0),
    Message('note_on', channel=0, note=78, velocity=0, time=60),
    Message('note_on', channel=0, note=76, velocity=100, time=0),
    Message('note_on', channel=0, note=76, velocity=0, time=60),
    Message('note_on', channel=0, note=78, velocity=100, time=0),
    Message('note_on', channel=0, note=78, velocity=0, time=120),
    Message('note_on', channel=0, note=79, velocity=100, time=0),
    Message('note_on', channel=0, note=79, velocity=0, time=180),
    Message('note_on', channel=0, note=79, velocity=100, time=120),
    Message('note_on', channel=0, note=79, velocity=0, time=120),
    Message('note_on', channel=0, note=79, velocity=100, time=0),
    Message('note_on', channel=0, note=79, velocity=0, time=60),
    Message('note_on', channel=0, note=78, velocity=100, time=0),
    Message('note_on', channel=0, note=78, velocity=0, time=60),
    Message('note_on', channel=0, note=76, velocity=100, time=0),
    Message('note_on', channel=0, note=76, velocity=0, time=60),
    Message('note_on', channel=0, note=83, velocity=100, time=0),
    Message('note_on', channel=0, note=83, velocity=0, time=60),
    Message('note_on', channel=0, note=78, velocity=100, time=60),
    Message('note_on', channel=0, note=78, velocity=0, time=60),
    Message('note_on', channel=0, note=78, velocity=100, time=0),
    Message('note_on', channel=0, note=78, velocity=0, time=60),
    Message('note_on', channel=0, note=78, velocity=100, time=0),
    Message('note_on', channel=0, note=78, velocity=0, time=120),
    Message('note_on', channel=0, note=76, velocity=100, time=0),
    Message('note_on', channel=0, note=76, velocity=0, time=180),
    Message('note_on', channel=0, note=74, velocity=100, time=60),
    Message('note_on', channel=0, note=74, velocity=0, time=60),
    Message('note_on', channel=0, note=76, velocity=100, time=0),
    Message('note_on', channel=0, note=76, velocity=0, time=120),
    Message('note_on', channel=0, note=74, velocity=100, time=0),
    Message('note_on', channel=0, note=74, velocity=0, time=60),
    Message('note_on', channel=0, note=76, velocity=100, time=0),
    Message('note_on', channel=0, note=76, velocity=0, time=120),
    Message('note_on', channel=0, note=74, velocity=100, time=0),
    Message('note_on', channel=0, note=74, velocity=0, time=120),
    Message('note_on', channel=0, note=76, velocity=100, time=0),
    Message('note_on', channel=0, note=76, velocity=0, time=180),
    Message('note_on', channel=0, note=79, velocity=100, time=540),
    Message('note_on', channel=0, note=79, velocity=0, time=120),
    Message('note_on', channel=0, note=79, velocity=100, time=0),
    Message('note_on', channel=0, note=79, velocity=0, time=540),
    Message('note_on', channel=0, note=76, velocity=100, time=5760),
    Message('note_on', channel=0, note=76, velocity=0, time=120),
    Message('note_on', channel=0, note=79, velocity=100, time=0),
    Message('note_on', channel=0, note=79, velocity=0, time=360),
    Message('note_on', channel=0, note=76, velocity=100, time=0),
    Message('note_on', channel=0, note=76, velocity=0, time=60),
    Message('note_on', channel=0, note=79, velocity=100, time=0),
    Message('note_on', channel=0, note=79, velocity=0, time=480),
    Message('note_on', channel=0, note=74, velocity=100, time=0),
    Message('note_on', channel=0, note=74, velocity=0, time=60),
    Message('note_on', channel=0, note=76, velocity=100, time=0),
    Message('note_on', channel=0, note=76, velocity=0, time=60),
    Message('note_on', channel=0, note=74, velocity=100, time=0),
    Message('note_on', channel=0, note=74, velocity=0, time=60),
    Message('note_on', channel=0, note=76, velocity=100, time=0),
    Message('note_on', channel=0, note=76, velocity=0, time=60),
    Message('note_on', channel=0, note=74, velocity=100, time=0),
    Message('note_on', channel=0, note=74, velocity=0, time=60),
    Message('note_on', channel=0, note=76, velocity=100, time=0),
    Message('note_on', channel=0, note=76, velocity=0, time=240),
    Message('note_on', channel=0, note=76, velocity=100, time=480),
    Message('note_on', channel=0, note=76, velocity=0, time=360),
    Message('note_on', channel=0, note=74, velocity=100, time=0),
    Message('note_on', channel=0, note=74, velocity=0, time=60),
    Message('note_on', channel=0, note=76, velocity=100, time=0),
    Message('note_on', channel=0, note=76, velocity=0, time=180),
    Message('note_on', channel=0, note=79, velocity=100, time=60),
    Message('note_on', channel=0, note=79, velocity=0, time=60),
    Message('note_on', channel=0, note=79, velocity=100, time=0),
    Message('note_on', channel=0, note=79, velocity=0, time=80),
    Message('note_on', channel=0, note=79, velocity=100, time=0),
    Message('note_on', channel=0, note=79, velocity=0, time=80),
    Message('note_on', channel=0, note=76, velocity=100, time=0),
    Message('note_on', channel=0, note=76, velocity=0, time=80),
    Message('note_on', channel=0, note=79, velocity=100, time=0),
    Message('note_on', channel=0, note=79, velocity=0, time=60),
    Message('note_on', channel=0, note=78, velocity=100, time=0),
    Message('note_on', channel=0, note=78, velocity=0, time=60),
    Message('note_on', channel=0, note=76, velocity=100, time=180),
    Message('note_on', channel=0, note=76, velocity=0, time=60),
    Message('note_on', channel=0, note=76, velocity=100, time=0),
    Message('note_on', channel=0, note=76, velocity=0, time=60),
    Message('note_on', channel=0, note=74, velocity=100, time=0),
    Message('note_on', channel=0, note=74, velocity=0, time=60),
    Message('note_on', channel=0, note=76, velocity=100, time=0),
    Message('note_on', channel=0, note=76, velocity=0, time=60),
    Message('note_on', channel=0, note=74, velocity=100, time=0),
    Message('note_on', channel=0, note=74, velocity=0, time=180),
    Message('note_on', channel=0, note=79, velocity=100, time=360),
    Message('note_on', channel=0, note=79, velocity=0, time=120),
    Message('note_on', channel=0, note=79, velocity=100, time=0),
    Message('note_on', channel=0, note=79, velocity=0, time=60),
    Message('note_on', channel=0, note=78, velocity=100, time=0),
    Message('note_on', channel=0, note=78, velocity=0, time=60),
    Message('note_on', channel=0, note=76, velocity=100, time=0),
    Message('note_on', channel=0, note=76, velocity=0, time=60),
    Message('note_on', channel=0, note=79, velocity=100, time=0),
    Message('note_on', channel=0, note=79, velocity=0, time=120),
    Message('note_on', channel=0, note=78, velocity=100, time=0),
    Message('note_on', channel=0, note=78, velocity=0, time=60),
    Message('note_on', channel=0, note=76, velocity=100, time=0),
    Message('note_on', channel=0, note=76, velocity=0, time=60),
    Message('note_on', channel=0, note=78, velocity=100, time=0),
    Message('note_on', channel=0, note=78, velocity=0, time=120),
    Message('note_on', channel=0, note=79, velocity=100, time=0),
    Message('note_on', channel=0, note=79, velocity=0, time=180),
    Message('note_on', channel=0, note=79, velocity=100, time=120),
    Message('note_on', channel=0, note=79, velocity=0, time=120),
    Message('note_on', channel=0, note=79, velocity=100, time=0),
    Message('note_on', channel=0, note=79, velocity=0, time=60),
    Message('note_on', channel=0, note=78, velocity=100, time=0),
    Message('note_on', channel=0, note=78, velocity=0, time=60),
    Message('note_on', channel=0, note=76, velocity=100, time=0),
    Message('note_on', channel=0, note=76, velocity=0, time=60),
    Message('note_on', channel=0, note=83, velocity=100, time=0),
    Message('note_on', channel=0, note=83, velocity=0, time=60),
    Message('note_on', channel=0, note=78, velocity=100, time=60),
    Message('note_on', channel=0, note=78, velocity=0, time=60),
    Message('note_on', channel=0, note=78, velocity=100, time=0),
    Message('note_on', channel=0, note=78, velocity=0, time=60),
    Message('note_on', channel=0, note=78, velocity=100, time=0),
    Message('note_on', channel=0, note=78, velocity=0, time=120),
    Message('note_on', channel=0, note=76, velocity=100, time=0),
    Message('note_on', channel=0, note=76, velocity=0, time=180),
    Message('note_on', channel=0, note=74, velocity=100, time=60),
    Message('note_on', channel=0, note=74, velocity=0, time=60),
    Message('note_on', channel=0, note=76, velocity=100, time=0),
    Message('note_on', channel=0, note=76, velocity=0, time=120),
    Message('note_on', channel=0, note=74, velocity=100, time=0),
    Message('note_on', channel=0, note=74, velocity=0, time=60),
    Message('note_on', channel=0, note=76, velocity=100, time=0),
    Message('note_on', channel=0, note=76, velocity=0, time=120),
    Message('note_on', channel=0, note=74, velocity=100, time=0),
    Message('note_on', channel=0, note=74, velocity=0, time=120),
    Message('note_on', channel=0, note=76, velocity=100, time=0),
    Message('note_on', channel=0, note=76, velocity=0, time=180),
    Message('note_on', channel=0, note=79, velocity=100, time=540),
    Message('note_on', channel=0, note=79, velocity=0, time=120),
    Message('note_on', channel=0, note=69, velocity=100, time=0),
    Message('note_on', channel=0, note=69, velocity=0, time=120),
    Message('note_on', channel=0, note=71, velocity=100, time=0),
    Message('note_on', channel=0, note=71, velocity=0, time=120),
    Message('note_on', channel=0, note=79, velocity=100, time=27660),
    Message('note_on', channel=0, note=79, velocity=0, time=120),
    Message('note_on', channel=0, note=79, velocity=100, time=0),
    Message('note_on', channel=0, note=79, velocity=0, time=60),
    Message('note_on', channel=0, note=79, velocity=100, time=0),
    Message('note_on', channel=0, note=79, velocity=0, time=120),
    Message('note_on', channel=0, note=79, velocity=100, time=0),
    Message('note_on', channel=0, note=79, velocity=0, time=180),
    Message('note_on', channel=0, note=76, velocity=100, time=300),
    Message('note_on', channel=0, note=76, velocity=0, time=180),
    Message('note_on', channel=0, note=79, velocity=100, time=0),
    Message('note_on', channel=0, note=79, velocity=0, time=60),
    Message('note_on', channel=0, note=79, velocity=100, time=0),
    Message('note_on', channel=0, note=79, velocity=0, time=120),
    Message('note_on', channel=0, note=76, velocity=100, time=0),
    Message('note_on', channel=0, note=76, velocity=0, time=60),
    Message('note_on', channel=0, note=78, velocity=100, time=0),
    Message('note_on', channel=0, note=78, velocity=0, time=60),
    Message('note_on', channel=0, note=79, velocity=100, time=0),
    Message('note_on', channel=0, note=79, velocity=0, time=180),
    Message('note_on', channel=0, note=76, velocity=100, time=300),
    Message('note_on', channel=0, note=76, velocity=0, time=180),
    Message('note_on', channel=0, note=83, velocity=100, time=0),
    Message('note_on', channel=0, note=83, velocity=0, time=60),
    Message('note_on', channel=0, note=79, velocity=100, time=0),
    Message('note_on', channel=0, note=79, velocity=0, time=120),
    Message('note_on', channel=0, note=79, velocity=100, time=0),
    Message('note_on', channel=0, note=79, velocity=0, time=60),
    Message('note_on', channel=0, note=79, velocity=100, time=0),
    Message('note_on', channel=0, note=79, velocity=0, time=60),
    Message('note_on', channel=0, note=78, velocity=100, time=0),
    Message('note_on', channel=0, note=78, velocity=0, time=60),
    Message('note_on', channel=0, note=76, velocity=100, time=0),
    Message('note_on', channel=0, note=76, velocity=0, time=120),
    Message('note_on', channel=0, note=76, velocity=100, time=300),
    Message('note_on', channel=0, note=76, velocity=0, time=180),
    Message('note_on', channel=0, note=76, velocity=100, time=0),
    Message('note_on', channel=0, note=76, velocity=0, time=60),
    Message('note_on', channel=0, note=74, velocity=100, time=0),
    Message('note_on', channel=0, note=74, velocity=0, time=60),
    Message('note_on', channel=0, note=76, velocity=100, time=0),
    Message('note_on', channel=0, note=76, velocity=0, time=60),
    Message('note_on', channel=0, note=74, velocity=100, time=0),
    Message('note_on', channel=0, note=74, velocity=0, time=60),
    Message('note_on', channel=0, note=76, velocity=100, time=0),
    Message('note_on', channel=0, note=76, velocity=0, time=60),
    Message('note_on', channel=0, note=74, velocity=100, time=0),
    Message('note_on', channel=0, note=74, velocity=0, time=60),
    Message('note_on', channel=0, note=76, velocity=100, time=0),
    Message('note_on', channel=0, note=76, velocity=0, time=120),
    Message('note_on', channel=0, note=79, velocity=100, time=480),
    Message('note_on', channel=0, note=79, velocity=0, time=80),
    Message('note_on', channel=0, note=79, velocity=100, time=0),
    Message('note_on', channel=0, note=79, velocity=0, time=80),
    Message('note_on', channel=0, note=79, velocity=100, time=0),
    Message('note_on', channel=0, note=79, velocity=0, time=80),
    Message('note_on', channel=0, note=79, velocity=100, time=0),
    Message('note_on', channel=0, note=79, velocity=0, time=180),
    Message('note_on', channel=0, note=79, velocity=100, time=0),
    Message('note_on', channel=0, note=79, velocity=0, time=60),
    Message('note_on', channel=0, note=79, velocity=100, time=0),
    Message('note_on', channel=0, note=79, velocity=0, time=120),
    Message('note_on', channel=0, note=79, velocity=100, time=0),
    Message('note_on', channel=0, note=79, velocity=0, time=120),
    Message('note_on', channel=0, note=79, velocity=100, time=0),
    Message('note_on', channel=0, note=79, velocity=0, time=60),
    Message('note_on', channel=0, note=78, velocity=100, time=0),
    Message('note_on', channel=0, note=78, velocity=0, time=60),
    Message('note_on', channel=0, note=76, velocity=100, time=0),
    Message('note_on', channel=0, note=76, velocity=0, time=60),
    Message('note_on', channel=0, note=78, velocity=100, time=0),
    Message('note_on', channel=0, note=78, velocity=0, time=60),
    Message('note_on', channel=0, note=79, velocity=100, time=0),
    Message('note_on', channel=0, note=79, velocity=0, time=240),
    Message('note_on', channel=0, note=76, velocity=100, time=540),
    Message('note_on', channel=0, note=76, velocity=0, time=180),
    Message('note_on', channel=0, note=83, velocity=100, time=0),
    Message('note_on', channel=0, note=83, velocity=0, time=80),
    Message('note_on', channel=0, note=79, velocity=100, time=0),
    Message('note_on', channel=0, note=79, velocity=0, time=80),
    Message('note_on', channel=0, note=79, velocity=100, time=0),
    Message('note_on', channel=0, note=79, velocity=0, time=80),
    Message('note_on', channel=0, note=79, velocity=100, time=0),
    Message('note_on', channel=0, note=79, velocity=0, time=240),
    Message('note_on', channel=0, note=76, velocity=100, time=240),
    Message('note_on', channel=0, note=76, velocity=0, time=80),
    Message('note_on', channel=0, note=76, velocity=100, time=0),
    Message('note_on', channel=0, note=76, velocity=0, time=80),
    Message('note_on', channel=0, note=76, velocity=100, time=0),
    Message('note_on', channel=0, note=76, velocity=0, time=80),
    Message('note_on', channel=0, note=76, velocity=100, time=240),
    Message('note_on', channel=0, note=76, velocity=0, time=480),
    Message('note_on', channel=0, note=76, velocity=100, time=60),
    Message('note_on', channel=0, note=76, velocity=0, time=180),
    Message('note_on', channel=0, note=79, velocity=100, time=0),
    Message('note_on', channel=0, note=79, velocity=0, time=240),
    Message('note_on', channel=0, note=79, velocity=100, time=240),
    Message('note_on', channel=0, note=79, velocity=0, time=240),
    Message('note_on', channel=0, note=79, velocity=100, time=240),
    Message('note_on', channel=0, note=79, velocity=0, time=480),
    Message('note_on', channel=0, note=79, velocity=100, time=320),
    Message('note_on', channel=0, note=79, velocity=0, time=80),
    Message('note_on', channel=0, note=79, velocity=100, time=0),
    Message('note_on', channel=0, note=79, velocity=0, time=80),
    Message('note_on', channel=0, note=79, velocity=100, time=0),
    Message('note_on', channel=0, note=79, velocity=0, time=240),
    Message('note_on', channel=0, note=76, velocity=100, time=180),
    Message('note_on', channel=0, note=76, velocity=0, time=60),
    Message('note_on', channel=0, note=79, velocity=100, time=0),
    Message('note_on', channel=0, note=79, velocity=0, time=120),
    Message('note_on', channel=0, note=79, velocity=100, time=0),
    Message('note_on', channel=0, note=79, velocity=0, time=120),
    Message('note_on', channel=0, note=79, velocity=100, time=240),
    Message('note_on', channel=0, note=79, velocity=0, time=60),
    Message('note_on', channel=0, note=79, velocity=100, time=0),
    Message('note_on', channel=0, note=79, velocity=0, time=180),
    Message('note_on', channel=0, note=79, velocity=100, time=540),
    Message('note_on', channel=0, note=79, velocity=0, time=120),
    Message('note_on', channel=0, note=76, velocity=100, time=0),
    Message('note_on', channel=0, note=76, velocity=0, time=60),
    Message('note_on', channel=0, note=79, velocity=100, time=0),
    Message('note_on', channel=0, note=79, velocity=0, time=60),
    Message('note_on', channel=0, note=79, velocity=100, time=0),
    Message('note_on', channel=0, note=79, velocity=0, time=180),
    Message('note_on', channel=0, note=79, velocity=100, time=540),
    Message('note_on', channel=0, note=79, velocity=0, time=120),
    Message('note_on', channel=0, note=76, velocity=100, time=0),
    Message('note_on', channel=0, note=76, velocity=0, time=60),
    Message('note_on', channel=0, note=79, velocity=100, time=0),
    Message('note_on', channel=0, note=79, velocity=0, time=60),
    Message('note_on', channel=0, note=79, velocity=100, time=0),
    Message('note_on', channel=0, note=79, velocity=0, time=180),
    Message('note_on', channel=0, note=79, velocity=100, time=240),
    Message('note_on', channel=0, note=79, velocity=0, time=60),
    Message('note_on', channel=0, note=79, velocity=100, time=0),
    Message('note_on', channel=0, note=79, velocity=0, time=180),
    Message('note_on', channel=0, note=79, velocity=100, time=240),
    Message('note_on', channel=0, note=79, velocity=0, time=60),
    Message('note_on', channel=0, note=79, velocity=100, time=0),
    Message('note_on', channel=0, note=79, velocity=0, time=180),
    Message('note_on', channel=0, note=79, velocity=100, time=240),
    Message('note_on', channel=0, note=79, velocity=0, time=60),
    Message('note_on', channel=0, note=79, velocity=100, time=0),
    Message('note_on', channel=0, note=79, velocity=0, time=180),
    Message('note_on', channel=0, note=79, velocity=100, time=2160),
    Message('note_on', channel=0, note=79, velocity=0, time=60),
    Message('note_on', channel=0, note=79, velocity=100, time=0),
    Message('note_on', channel=0, note=79, velocity=0, time=120),
    Message('note_on', channel=0, note=79, velocity=100, time=0),
    Message('note_on', channel=0, note=79, velocity=0, time=60),
    Message('note_on', channel=0, note=79, velocity=100, time=0),
    Message('note_on', channel=0, note=79, velocity=0, time=180),
    Message('note_on', channel=0, note=79, velocity=100, time=0),
    Message('note_on', channel=0, note=79, velocity=0, time=60),
    Message('note_on', channel=0, note=79, velocity=100, time=0),
    Message('note_on', channel=0, note=79, velocity=0, time=120),
    Message('note_on', channel=0, note=79, velocity=100, time=0),
    Message('note_on', channel=0, note=79, velocity=0, time=120),
    Message('note_on', channel=0, note=79, velocity=100, time=0),
    Message('note_on', channel=0, note=79, velocity=0, time=60),
    Message('note_on', channel=0, note=78, velocity=100, time=0),
    Message('note_on', channel=0, note=78, velocity=0, time=120),
    Message('note_on', channel=0, note=76, velocity=100, time=0),
    Message('note_on', channel=0, note=76, velocity=0, time=60),
    Message('note_on', channel=0, note=79, velocity=100, time=0),
    Message('note_on', channel=0, note=79, velocity=0, time=240),
    MetaMessage('end_of_track', time=0)]),
  MidiTrack([
    MetaMessage('midi_port', port=0, time=0),
    MetaMessage('track_name', name='Guitar I', time=0),
    Message('program_change', channel=1, program=29, time=0),
    Message('control_change', channel=1, control=7, value=100, time=0),
    Message('note_on', channel=1, note=67, velocity=100, time=14940),
    Message('note_on', channel=1, note=67, velocity=0, time=80),
    Message('note_on', channel=1, note=74, velocity=100, time=0),
    Message('note_on', channel=1, note=74, velocity=0, time=80),
    Message('note_on', channel=1, note=67, velocity=100, time=0),
    Message('note_on', channel=1, note=67, velocity=0, time=80),
    Message('note_on', channel=1, note=64, velocity=100, time=0),
    Message('note_on', channel=1, note=64, velocity=0, time=80),
    Message('note_on', channel=1, note=67, velocity=100, time=0),
    Message('note_on', channel=1, note=67, velocity=0, time=80),
    Message('note_on', channel=1, note=74, velocity=100, time=0),
    Message('note_on', channel=1, note=74, velocity=0, time=80),
    Message('note_on', channel=1, note=69, velocity=100, time=0),
    Message('note_on', channel=1, note=69, velocity=0, time=80),
    Message('note_on', channel=1, note=76, velocity=100, time=0),
    Message('note_on', channel=1, note=76, velocity=0, time=80),
    Message('note_on', channel=1, note=64, velocity=100, time=0),
    Message('note_on', channel=1, note=64, velocity=0, time=80),
    Message('note_on', channel=1, note=63, velocity=100, time=0),
    Message('note_on', channel=1, note=63, velocity=0, time=80),
    Message('note_on', channel=1, note=59, velocity=100, time=0),
    Message('note_on', channel=1, note=59, velocity=0, time=80),
    Message('note_on', channel=1, note=59, velocity=100, time=0),
    Message('pitchwheel', channel=1, pitch=128, time=77),
    Message('pitchwheel', channel=1, pitch=640, time=1),
    Message('note_on', channel=1, note=59, velocity=0, time=2),
    Message('pitchwheel', channel=1, pitch=1024, time=0),
    Message('note_on', channel=1, note=64, velocity=100, time=0),
    Message('pitchwheel', channel=1, pitch=1152, time=1),
    Message('pitchwheel', channel=1, pitch=1408, time=2),
    Message('pitchwheel', channel=1, pitch=1664, time=2),
    Message('pitchwheel', channel=1, pitch=2048, time=1),
    Message('pitchwheel', channel=1, pitch=2176, time=2),
    Message('pitchwheel', channel=1, pitch=2816, time=2),
    Message('pitchwheel', channel=1, pitch=3840, time=1),
    Message('pitchwheel', channel=1, pitch=4864, time=2),
    Message('pitchwheel', channel=1, pitch=5504, time=2),
    Message('pitchwheel', channel=1, pitch=6144, time=1),
    Message('pitchwheel', channel=1, pitch=6912, time=2),
    Message('pitchwheel', channel=1, pitch=8191, time=2),
    Message('pitchwheel', channel=1, pitch=8191, time=1),
    Message('note_on', channel=1, note=64, velocity=0, time=939),
    Message('note_on', channel=1, note=67, velocity=100, time=0),
    Message('note_on', channel=1, note=67, velocity=0, time=80),
    Message('note_on', channel=1, note=74, velocity=100, time=0),
    Message('note_on', channel=1, note=74, velocity=0, time=80),
    Message('note_on', channel=1, note=67, velocity=100, time=0),
    Message('note_on', channel=1, note=67, velocity=0, time=80),
    Message('note_on', channel=1, note=64, velocity=100, time=0),
    Message('note_on', channel=1, note=64, velocity=0, time=80),
    Message('note_on', channel=1, note=67, velocity=100, time=0),
    Message('note_on', channel=1, note=67, velocity=0, time=80),
    Message('note_on', channel=1, note=74, velocity=100, time=0),
    Message('note_on', channel=1, note=74, velocity=0, time=80),
    Message('note_on', channel=1, note=63, velocity=100, time=0),
    Message('note_on', channel=1, note=63, velocity=0, time=80),
    Message('note_on', channel=1, note=66, velocity=100, time=0),
    Message('note_on', channel=1, note=66, velocity=0, time=80),
    Message('note_on', channel=1, note=75, velocity=100, time=0),
    Message('note_on', channel=1, note=75, velocity=0, time=80),
    Message('note_on', channel=1, note=62, velocity=100, time=0),
    Message('note_on', channel=1, note=62, velocity=0, time=80),
    Message('note_on', channel=1, note=65, velocity=100, time=0),
    Message('note_on', channel=1, note=65, velocity=0, time=80),
    Message('note_on', channel=1, note=74, velocity=100, time=0),
    Message('note_on', channel=1, note=74, velocity=0, time=80),
    Message('pitchwheel', channel=1, pitch=128, time=0),
    Message('note_on', channel=1, note=64, velocity=100, time=0),
    Message('pitchwheel', channel=1, pitch=384, time=3),
    Message('pitchwheel', channel=1, pitch=512, time=2),
    Message('pitchwheel', channel=1, pitch=640, time=1),
    Message('pitchwheel', channel=1, pitch=768, time=2),
    Message('pitchwheel', channel=1, pitch=1024, time=2),
    Message('pitchwheel', channel=1, pitch=1152, time=1),
    Message('pitchwheel', channel=1, pitch=1408, time=2),
    Message('pitchwheel', channel=1, pitch=1536, time=2),
    Message('pitchwheel', channel=1, pitch=1920, time=1),
    Message('pitchwheel', channel=1, pitch=2176, time=4),
    Message('pitchwheel', channel=1, pitch=2560, time=1),
    Message('pitchwheel', channel=1, pitch=2944, time=2),
    Message('pitchwheel', channel=1, pitch=3200, time=2),
    Message('pitchwheel', channel=1, pitch=3456, time=1),
    Message('pitchwheel', channel=1, pitch=3968, time=2),
    Message('pitchwheel', channel=1, pitch=4480, time=2),
    Message('pitchwheel', channel=1, pitch=4864, time=1),
    Message('pitchwheel', channel=1, pitch=5248, time=2),
    Message('pitchwheel', channel=1, pitch=5760, time=2),
    Message('pitchwheel', channel=1, pitch=6272, time=1),
    Message('pitchwheel', channel=1, pitch=6656, time=2),
    Message('pitchwheel', channel=1, pitch=6912, time=2),
    Message('pitchwheel', channel=1, pitch=7296, time=1),
    Message('pitchwheel', channel=1, pitch=7680, time=2),
    Message('pitchwheel', channel=1, pitch=7936, time=2),
    Message('pitchwheel', channel=1, pitch=8064, time=1),
    Message('pitchwheel', channel=1, pitch=7936, time=4),
    Message('pitchwheel', channel=1, pitch=7936, time=1),
    Message('note_on', channel=1, note=64, velocity=0, time=909),
    Message('note_on', channel=1, note=67, velocity=100, time=0),
    Message('note_on', channel=1, note=67, velocity=0, time=80),
    Message('note_on', channel=1, note=74, velocity=100, time=0),
    Message('note_on', channel=1, note=74, velocity=0, time=80),
    Message('note_on', channel=1, note=67, velocity=100, time=0),
    Message('note_on', channel=1, note=67, velocity=0, time=80),
    Message('note_on', channel=1, note=64, velocity=100, time=0),
    Message('note_on', channel=1, note=64, velocity=0, time=80),
    Message('note_on', channel=1, note=67, velocity=100, time=0),
    Message('note_on', channel=1, note=67, velocity=0, time=80),
    Message('note_on', channel=1, note=74, velocity=100, time=0),
    Message('note_on', channel=1, note=74, velocity=0, time=80),
    Message('note_on', channel=1, note=69, velocity=100, time=0),
    Message('note_on', channel=1, note=69, velocity=0, time=80),
    Message('note_on', channel=1, note=76, velocity=100, time=0),
    Message('note_on', channel=1, note=76, velocity=0, time=80),
    Message('note_on', channel=1, note=64, velocity=100, time=0),
    Message('note_on', channel=1, note=64, velocity=0, time=80),
    Message('note_on', channel=1, note=63, velocity=100, time=0),
    Message('note_on', channel=1, note=63, velocity=0, time=80),
    Message('note_on', channel=1, note=59, velocity=100, time=0),
    Message('note_on', channel=1, note=59, velocity=0, time=80),
    Message('note_on', channel=1, note=59, velocity=100, time=0),
    Message('note_on', channel=1, note=59, velocity=0, time=80),
    Message('note_on', channel=1, note=64, velocity=100, time=0),
    Message('pitchwheel', channel=1, pitch=-256, time=1),
    Message('pitchwheel', channel=1, pitch=640, time=2),
    Message('pitchwheel', channel=1, pitch=1152, time=2),
    Message('pitchwheel', channel=1, pitch=1536, time=1),
    Message('pitchwheel', channel=1, pitch=1792, time=2),
    Message('pitchwheel', channel=1, pitch=2048, time=2),
    Message('pitchwheel', channel=1, pitch=2432, time=1),
    Message('pitchwheel', channel=1, pitch=2688, time=2),
    Message('pitchwheel', channel=1, pitch=2944, time=2),
    Message('pitchwheel', channel=1, pitch=3328, time=1),
    Message('pitchwheel', channel=1, pitch=3584, time=2),
    Message('pitchwheel', channel=1, pitch=3840, time=2),
    Message('pitchwheel', channel=1, pitch=4224, time=1),
    Message('pitchwheel', channel=1, pitch=4480, time=2),
    Message('pitchwheel', channel=1, pitch=4992, time=2),
    Message('pitchwheel', channel=1, pitch=5248, time=1),
    Message('pitchwheel', channel=1, pitch=5376, time=2),
    Message('pitchwheel', channel=1, pitch=5760, time=2),
    Message('pitchwheel', channel=1, pitch=5888, time=1),
    Message('pitchwheel', channel=1, pitch=6272, time=2),
    Message('pitchwheel', channel=1, pitch=6400, time=2),
    Message('pitchwheel', channel=1, pitch=6656, time=1),
    Message('pitchwheel', channel=1, pitch=6912, time=2),
    Message('pitchwheel', channel=1, pitch=7168, time=2),
    Message('pitchwheel', channel=1, pitch=7296, time=1),
    Message('pitchwheel', channel=1, pitch=7552, time=2),
    Message('pitchwheel', channel=1, pitch=7936, time=2),
    Message('pitchwheel', channel=1, pitch=7936, time=1),
    Message('pitchwheel', channel=1, pitch=8064, time=2),
    Message('note_on', channel=1, note=64, velocity=0, time=912),
    Message('note_on', channel=1, note=67, velocity=100, time=0),
    Message('note_on', channel=1, note=67, velocity=0, time=80),
    Message('note_on', channel=1, note=74, velocity=100, time=0),
    Message('note_on', channel=1, note=74, velocity=0, time=80),
    Message('note_on', channel=1, note=67, velocity=100, time=0),
    Message('note_on', channel=1, note=67, velocity=0, time=80),
    Message('note_on', channel=1, note=64, velocity=100, time=0),
    Message('note_on', channel=1, note=64, velocity=0, time=80),
    Message('note_on', channel=1, note=67, velocity=100, time=0),
    Message('note_on', channel=1, note=67, velocity=0, time=80),
    Message('note_on', channel=1, note=74, velocity=100, time=0),
    Message('note_on', channel=1, note=74, velocity=0, time=80),
    Message('note_on', channel=1, note=63, velocity=100, time=0),
    Message('note_on', channel=1, note=63, velocity=0, time=80),
    Message('note_on', channel=1, note=66, velocity=100, time=0),
    Message('note_on', channel=1, note=66, velocity=0, time=80),
    Message('note_on', channel=1, note=75, velocity=100, time=0),
    Message('note_on', channel=1, note=75, velocity=0, time=80),
    Message('note_on', channel=1, note=62, velocity=100, time=0),
    Message('note_on', channel=1, note=62, velocity=0, time=80),
    Message('note_on', channel=1, note=65, velocity=100, time=0),
    Message('note_on', channel=1, note=65, velocity=0, time=80),
    Message('note_on', channel=1, note=74, velocity=100, time=0),
    Message('note_on', channel=1, note=74, velocity=0, time=80),
    Message('pitchwheel', channel=1, pitch=0, time=0),
    Message('note_on', channel=1, note=64, velocity=100, time=0),
    Message('pitchwheel', channel=1, pitch=256, time=3),
    Message('pitchwheel', channel=1, pitch=384, time=2),
    Message('pitchwheel', channel=1, pitch=768, time=1),
    Message('pitchwheel', channel=1, pitch=896, time=2),
    Message('pitchwheel', channel=1, pitch=1152, time=2),
    Message('pitchwheel', channel=1, pitch=1792, time=1),
    Message('pitchwheel', channel=1, pitch=1920, time=2),
    Message('pitchwheel', channel=1, pitch=2432, time=2),
    Message('pitchwheel', channel=1, pitch=2688, time=1),
    Message('pitchwheel', channel=1, pitch=3328, time=2),
    Message('pitchwheel', channel=1, pitch=3584, time=2),
    Message('pitchwheel', channel=1, pitch=3968, time=1),
    Message('pitchwheel', channel=1, pitch=4224, time=2),
    Message('pitchwheel', channel=1, pitch=4608, time=2),
    Message('pitchwheel', channel=1, pitch=4864, time=1),
    Message('pitchwheel', channel=1, pitch=4992, time=2),
    Message('pitchwheel', channel=1, pitch=5248, time=2),
    Message('pitchwheel', channel=1, pitch=5504, time=1),
    Message('pitchwheel', channel=1, pitch=5632, time=2),
    Message('pitchwheel', channel=1, pitch=5760, time=2),
    Message('pitchwheel', channel=1, pitch=6016, time=1),
    Message('pitchwheel', channel=1, pitch=6272, time=2),
    Message('pitchwheel', channel=1, pitch=6528, time=2),
    Message('pitchwheel', channel=1, pitch=6784, time=1),
    Message('pitchwheel', channel=1, pitch=6912, time=2),
    Message('pitchwheel', channel=1, pitch=7296, time=2),
    Message('pitchwheel', channel=1, pitch=7552, time=1),
    Message('pitchwheel', channel=1, pitch=7680, time=2),
    Message('pitchwheel', channel=1, pitch=8064, time=2),
    Message('note_on', channel=1, note=64, velocity=0, time=910),
    Message('pitchwheel', channel=1, pitch=0, time=1920),
    Message('pitchwheel', channel=1, pitch=-128, time=1),
    Message('pitchwheel', channel=1, pitch=0, time=2),
    Message('pitchwheel', channel=1, pitch=128, time=2),
    Message('pitchwheel', channel=1, pitch=384, time=1),
    Message('pitchwheel', channel=1, pitch=640, time=2),
    Message('pitchwheel', channel=1, pitch=1024, time=3),
    Message('pitchwheel', channel=1, pitch=1280, time=2),
    Message('pitchwheel', channel=1, pitch=1664, time=3),
    Message('pitchwheel', channel=1, pitch=1920, time=2),
    Message('pitchwheel', channel=1, pitch=2176, time=2),
    Message('pitchwheel', channel=1, pitch=2304, time=1),
    Message('pitchwheel', channel=1, pitch=2432, time=2),
    Message('pitchwheel', channel=1, pitch=2816, time=2),
    Message('pitchwheel', channel=1, pitch=3200, time=1),
    Message('pitchwheel', channel=1, pitch=3328, time=2),
    Message('pitchwheel', channel=1, pitch=3712, time=2),
    Message('pitchwheel', channel=1, pitch=3968, time=1),
    Message('pitchwheel', channel=1, pitch=4096, time=2),
    Message('pitchwheel', channel=1, pitch=4224, time=2),
    Message('pitchwheel', channel=1, pitch=4352, time=1),
    Message('pitchwheel', channel=1, pitch=6016, time=2),
    Message('pitchwheel', channel=1, pitch=8064, time=2),
    Message('pitchwheel', channel=1, pitch=4608, time=1),
    Message('pitchwheel', channel=1, pitch=128, time=1879),
    Message('pitchwheel', channel=1, pitch=384, time=3),
    Message('pitchwheel', channel=1, pitch=512, time=2),
    Message('pitchwheel', channel=1, pitch=640, time=1),
    Message('pitchwheel', channel=1, pitch=768, time=2),
    Message('pitchwheel', channel=1, pitch=1024, time=2),
    Message('pitchwheel', channel=1, pitch=1152, time=1),
    Message('pitchwheel', channel=1, pitch=1408, time=2),
    Message('pitchwheel', channel=1, pitch=1536, time=2),
    Message('pitchwheel', channel=1, pitch=1920, time=1),
    Message('pitchwheel', channel=1, pitch=2176, time=4),
    Message('pitchwheel', channel=1, pitch=2560, time=1),
    Message('pitchwheel', channel=1, pitch=2944, time=2),
    Message('pitchwheel', channel=1, pitch=3200, time=2),
    Message('pitchwheel', channel=1, pitch=3456, time=1),
    Message('pitchwheel', channel=1, pitch=3968, time=2),
    Message('pitchwheel', channel=1, pitch=4480, time=2),
    Message('pitchwheel', channel=1, pitch=4864, time=1),
    Message('pitchwheel', channel=1, pitch=5248, time=2),
    Message('pitchwheel', channel=1, pitch=5760, time=2),
    Message('pitchwheel', channel=1, pitch=6272, time=1),
    Message('pitchwheel', channel=1, pitch=6656, time=2),
    Message('pitchwheel', channel=1, pitch=6912, time=2),
    Message('pitchwheel', channel=1, pitch=7296, time=1),
    Message('pitchwheel', channel=1, pitch=7680, time=2),
    Message('pitchwheel', channel=1, pitch=7936, time=2),
    Message('pitchwheel', channel=1, pitch=8064, time=1),
    Message('pitchwheel', channel=1, pitch=7936, time=4),
    Message('pitchwheel', channel=1, pitch=7936, time=1),
    Message('pitchwheel', channel=1, pitch=-256, time=1870),
    Message('pitchwheel', channel=1, pitch=640, time=2),
    Message('pitchwheel', channel=1, pitch=1152, time=2),
    Message('pitchwheel', channel=1, pitch=1536, time=1),
    Message('pitchwheel', channel=1, pitch=1792, time=2),
    Message('pitchwheel', channel=1, pitch=2048, time=2),
    Message('pitchwheel', channel=1, pitch=2432, time=1),
    Message('pitchwheel', channel=1, pitch=2688, time=2),
    Message('pitchwheel', channel=1, pitch=2944, time=2),
    Message('pitchwheel', channel=1, pitch=3328, time=1),
    Message('pitchwheel', channel=1, pitch=3584, time=2),
    Message('pitchwheel', channel=1, pitch=3840, time=2),
    Message('pitchwheel', channel=1, pitch=4224, time=1),
    Message('pitchwheel', channel=1, pitch=4480, time=2),
    Message('pitchwheel', channel=1, pitch=4992, time=2),
    Message('pitchwheel', channel=1, pitch=5248, time=1),
    Message('pitchwheel', channel=1, pitch=5376, time=2),
    Message('pitchwheel', channel=1, pitch=5760, time=2),
    Message('pitchwheel', channel=1, pitch=5888, time=1),
    Message('pitchwheel', channel=1, pitch=6272, time=2),
    Message('pitchwheel', channel=1, pitch=6400, time=2),
    Message('pitchwheel', channel=1, pitch=6656, time=1),
    Message('pitchwheel', channel=1, pitch=6912, time=2),
    Message('pitchwheel', channel=1, pitch=7168, time=2),
    Message('pitchwheel', channel=1, pitch=7296, time=1),
    Message('pitchwheel', channel=1, pitch=7552, time=2),
    Message('pitchwheel', channel=1, pitch=7936, time=2),
    Message('pitchwheel', channel=1, pitch=7936, time=1),
    Message('pitchwheel', channel=1, pitch=8064, time=2),
    Message('pitchwheel', channel=1, pitch=0, time=1872),
    Message('pitchwheel', channel=1, pitch=256, time=3),
    Message('pitchwheel', channel=1, pitch=384, time=2),
    Message('pitchwheel', channel=1, pitch=768, time=1),
    Message('pitchwheel', channel=1, pitch=896, time=2),
    Message('pitchwheel', channel=1, pitch=1152, time=2),
    Message('pitchwheel', channel=1, pitch=1792, time=1),
    Message('pitchwheel', channel=1, pitch=1920, time=2),
    Message('pitchwheel', channel=1, pitch=2432, time=2),
    Message('pitchwheel', channel=1, pitch=2688, time=1),
    Message('pitchwheel', channel=1, pitch=3328, time=2),
    Message('pitchwheel', channel=1, pitch=3584, time=2),
    Message('pitchwheel', channel=1, pitch=3968, time=1),
    Message('pitchwheel', channel=1, pitch=4224, time=2),
    Message('pitchwheel', channel=1, pitch=4608, time=2),
    Message('pitchwheel', channel=1, pitch=4864, time=1),
    Message('pitchwheel', channel=1, pitch=4992, time=2),
    Message('pitchwheel', channel=1, pitch=5248, time=2),
    Message('pitchwheel', channel=1, pitch=5504, time=1),
    Message('pitchwheel', channel=1, pitch=5632, time=2),
    Message('pitchwheel', channel=1, pitch=5760, time=2),
    Message('pitchwheel', channel=1, pitch=6016, time=1),
    Message('pitchwheel', channel=1, pitch=6272, time=2),
    Message('pitchwheel', channel=1, pitch=6528, time=2),
    Message('pitchwheel', channel=1, pitch=6784, time=1),
    Message('pitchwheel', channel=1, pitch=6912, time=2),
    Message('pitchwheel', channel=1, pitch=7296, time=2),
    Message('pitchwheel', channel=1, pitch=7552, time=1),
    Message('pitchwheel', channel=1, pitch=7680, time=2),
    Message('pitchwheel', channel=1, pitch=8064, time=2),
    Message('control_change', channel=1, control=7, value=127, time=17075),
    Message('control_change', channel=1, control=10, value=64, time=0),
    Message('note_on', channel=1, note=55, velocity=100, time=15935),
    Message('note_on', channel=1, note=55, velocity=0, time=60),
    Message('note_on', channel=1, note=59, velocity=100, time=0),
    Message('note_on', channel=1, note=59, velocity=0, time=60),
    Message('note_on', channel=1, note=62, velocity=100, time=0),
    Message('note_on', channel=1, note=62, velocity=0, time=60),
    Message('note_on', channel=1, note=71, velocity=100, time=0),
    Message('note_on', channel=1, note=71, velocity=0, time=30),
    Message('note_on', channel=1, note=74, velocity=100, time=0),
    Message('note_on', channel=1, note=74, velocity=0, time=30),
    Message('note_on', channel=1, note=79, velocity=100, time=0),
    Message('note_on', channel=1, note=79, velocity=0, time=30),
    Message('note_on', channel=1, note=83, velocity=100, time=0),
    Message('note_on', channel=1, note=83, velocity=0, time=30),
    Message('note_on', channel=1, note=86, velocity=100, time=0),
    Message('note_on', channel=1, note=86, velocity=0, time=30),
    Message('note_on', channel=1, note=83, velocity=100, time=0),
    Message('note_on', channel=1, note=83, velocity=0, time=30),
    Message('note_on', channel=1, note=79, velocity=100, time=0),
    Message('note_on', channel=1, note=79, velocity=0, time=30),
    Message('note_on', channel=1, note=74, velocity=100, time=0),
    Message('note_on', channel=1, note=74, velocity=0, time=30),
    Message('note_on', channel=1, note=71, velocity=100, time=0),
    Message('note_on', channel=1, note=71, velocity=0, time=30),
    Message('note_on', channel=1, note=74, velocity=100, time=0),
    Message('note_on', channel=1, note=74, velocity=0, time=30),
    Message('note_on', channel=1, note=79, velocity=100, time=0),
    Message('note_on', channel=1, note=79, velocity=0, time=30),
    Message('note_on', channel=1, note=82, velocity=100, time=0),
    Message('note_on', channel=1, note=82, velocity=0, time=30),
    Message('note_on', channel=1, note=86, velocity=100, time=0),
    Message('note_on', channel=1, note=86, velocity=0, time=30),
    Message('note_on', channel=1, note=83, velocity=100, time=0),
    Message('note_on', channel=1, note=83, velocity=0, time=30),
    Message('note_on', channel=1, note=89, velocity=100, time=0),
    Message('note_on', channel=1, note=89, velocity=0, time=60),
    Message('note_on', channel=1, note=74, velocity=100, time=0),
    Message('note_on', channel=1, note=74, velocity=0, time=30),
    Message('note_on', channel=1, note=77, velocity=100, time=0),
    Message('note_on', channel=1, note=77, velocity=0, time=30),
    Message('note_on', channel=1, note=82, velocity=100, time=0),
    Message('note_on', channel=1, note=82, velocity=0, time=30),
    Message('note_on', channel=1, note=86, velocity=100, time=0),
    Message('note_on', channel=1, note=86, velocity=0, time=30),
    Message('note_on', channel=1, note=89, velocity=100, time=0),
    Message('note_on', channel=1, note=89, velocity=0, time=20),
    Message('note_on', channel=1, note=86, velocity=100, time=0),
    Message('note_on', channel=1, note=86, velocity=0, time=20),
    Message('note_on', channel=1, note=83, velocity=100, time=0),
    Message('note_on', channel=1, note=83, velocity=0, time=20),
    Message('note_on', channel=1, note=86, velocity=100, time=0),
    Message('note_on', channel=1, note=86, velocity=0, time=60),
    Message('note_on', channel=1, note=94, velocity=100, time=0),
    Message('note_on', channel=1, note=94, velocity=0, time=20),
    Message('note_on', channel=1, note=89, velocity=100, time=0),
    Message('note_on', channel=1, note=89, velocity=0, time=20),
    Message('note_on', channel=1, note=86, velocity=100, time=0),
    Message('note_on', channel=1, note=86, velocity=0, time=20),
    Message('note_on', channel=1, note=89, velocity=100, time=0),
    Message('note_on', channel=1, note=89, velocity=0, time=60),
    Message('note_on', channel=1, note=94, velocity=100, time=0),
    Message('note_on', channel=1, note=94, velocity=0, time=60),
    Message('pitchwheel', channel=1, pitch=128, time=0),
    Message('control_change', channel=1, control=68, value=0, time=0),
    Message('note_on', channel=1, note=95, velocity=100, time=0),
    Message('pitchwheel', channel=1, pitch=256, time=1),
    Message('pitchwheel', channel=1, pitch=512, time=2),
    Message('pitchwheel', channel=1, pitch=896, time=2),
    Message('pitchwheel', channel=1, pitch=1152, time=1),
    Message('pitchwheel', channel=1, pitch=1280, time=2),
    Message('pitchwheel', channel=1, pitch=1536, time=2),
    Message('pitchwheel', channel=1, pitch=1920, time=1),
    Message('pitchwheel', channel=1, pitch=2432, time=2),
    Message('pitchwheel', channel=1, pitch=2560, time=2),
    Message('pitchwheel', channel=1, pitch=2944, time=1),
    Message('pitchwheel', channel=1, pitch=3840, time=2),
    Message('pitchwheel', channel=1, pitch=4096, time=2),
    Message('pitchwheel', channel=1, pitch=4480, time=1),
    Message('pitchwheel', channel=1, pitch=4992, time=2),
    Message('pitchwheel', channel=1, pitch=6272, time=2),
    Message('pitchwheel', channel=1, pitch=7936, time=1),
    Message('note_on', channel=1, note=95, velocity=0, time=154),
    Message('note_on', channel=1, note=91, velocity=100, time=0),
    Message('note_on', channel=1, note=91, velocity=0, time=30),
    Message('note_on', channel=1, note=86, velocity=100, time=0),
    Message('note_on', channel=1, note=86, velocity=0, time=30),
    Message('pitchwheel', channel=1, pitch=128, time=0),
    Message('note_on', channel=1, note=89, velocity=100, time=0),
    Message('pitchwheel', channel=1, pitch=256, time=3),
    Message('pitchwheel', channel=1, pitch=384, time=2),
    Message('pitchwheel', channel=1, pitch=640, time=3),
    Message('pitchwheel', channel=1, pitch=896, time=2),
    Message('pitchwheel', channel=1, pitch=1152, time=1),
    Message('pitchwheel', channel=1, pitch=1280, time=2),
    Message('pitchwheel', channel=1, pitch=1536, time=2),
    Message('pitchwheel', channel=1, pitch=2048, time=1),
    Message('pitchwheel', channel=1, pitch=2304, time=2),
    Message('pitchwheel', channel=1, pitch=2560, time=2),
    Message('pitchwheel', channel=1, pitch=2816, time=1),
    Message('pitchwheel', channel=1, pitch=3072, time=2),
    Message('pitchwheel', channel=1, pitch=3328, time=2),
    Message('pitchwheel', channel=1, pitch=3456, time=1),
    Message('pitchwheel', channel=1, pitch=3712, time=2),
    Message('pitchwheel', channel=1, pitch=3968, time=2),
    Message('pitchwheel', channel=1, pitch=4224, time=1),
    Message('pitchwheel', channel=1, pitch=4352, time=2),
    Message('pitchwheel', channel=1, pitch=4736, time=2),
    Message('pitchwheel', channel=1, pitch=5120, time=1),
    Message('pitchwheel', channel=1, pitch=5504, time=2),
    Message('pitchwheel', channel=1, pitch=6272, time=2),
    Message('pitchwheel', channel=1, pitch=7424, time=1),
    Message('pitchwheel', channel=1, pitch=8191, time=2),
    Message('pitchwheel', channel=1, pitch=8191, time=2),
    Message('note_on', channel=1, note=89, velocity=0, time=15),
    Message('note_on', channel=1, note=89, velocity=100, time=0),
    Message('note_on', channel=1, note=89, velocity=0, time=20),
    Message('note_on', channel=1, note=88, velocity=100, time=0),
    Message('note_on', channel=1, note=88, velocity=0, time=20),
    Message('note_on', channel=1, note=86, velocity=100, time=0),
    Message('note_on', channel=1, note=86, velocity=0, time=20),
    Message('note_on', channel=1, note=98, velocity=100, time=0),
    Message('note_on', channel=1, note=98, velocity=0, time=210),
    Message('note_on', channel=1, note=98, velocity=100, time=0),
    Message('note_on', channel=1, note=98, velocity=0, time=210),
    Message('pitchwheel', channel=1, pitch=512, time=60),
    Message('note_on', channel=1, note=103, velocity=100, time=0),
    Message('pitchwheel', channel=1, pitch=1024, time=1),
    Message('pitchwheel', channel=1, pitch=1536, time=2),
    Message('pitchwheel', channel=1, pitch=2048, time=2),
    Message('pitchwheel', channel=1, pitch=2304, time=1),
    Message('pitchwheel', channel=1, pitch=2432, time=2),
    Message('pitchwheel', channel=1, pitch=2816, time=2),
    Message('pitchwheel', channel=1, pitch=3200, time=1),
    Message('pitchwheel', channel=1, pitch=3456, time=2),
    Message('pitchwheel', channel=1, pitch=3712, time=2),
    Message('pitchwheel', channel=1, pitch=4224, time=1),
    Message('pitchwheel', channel=1, pitch=4992, time=2),
    Message('pitchwheel', channel=1, pitch=5376, time=2),
    Message('pitchwheel', channel=1, pitch=5760, time=1),
    Message('pitchwheel', channel=1, pitch=6272, time=2),
    Message('pitchwheel', channel=1, pitch=7040, time=2),
    Message('pitchwheel', channel=1, pitch=7296, time=1),
    Message('pitchwheel', channel=1, pitch=7680, time=2),
    Message('pitchwheel', channel=1, pitch=7936, time=2),
    Message('pitchwheel', channel=1, pitch=8191, time=1),
    Message('pitchwheel', channel=1, pitch=256, time=147),
    Message('note_on', channel=1, note=103, velocity=0, time=2),
    Message('pitchwheel', channel=1, pitch=0, time=0),
    Message('note_on', channel=1, note=103, velocity=100, time=0),
    Message('pitchwheel', channel=1, pitch=128, time=1),
    Message('pitchwheel', channel=1, pitch=384, time=2),
    Message('pitchwheel', channel=1, pitch=768, time=2),
    Message('pitchwheel', channel=1, pitch=1536, time=1),
    Message('pitchwheel', channel=1, pitch=1920, time=2),
    Message('pitchwheel', channel=1, pitch=2432, time=2),
    Message('pitchwheel', channel=1, pitch=3200, time=1),
    Message('pitchwheel', channel=1, pitch=3456, time=2),
    Message('pitchwheel', channel=1, pitch=3968, time=2),
    Message('pitchwheel', channel=1, pitch=4352, time=1),
    Message('pitchwheel', channel=1, pitch=5120, time=2),
    Message('pitchwheel', channel=1, pitch=5504, time=2),
    Message('pitchwheel', channel=1, pitch=6144, time=1),
    Message('pitchwheel', channel=1, pitch=7168, time=2),
    Message('pitchwheel', channel=1, pitch=7936, time=2),
    Message('pitchwheel', channel=1, pitch=8191, time=1),
    Message('note_on', channel=1, note=103, velocity=0, time=94),
    Message('pitchwheel', channel=1, pitch=512, time=0),
    Message('note_on', channel=1, note=103, velocity=100, time=0),
    Message('pitchwheel', channel=1, pitch=896, time=1),
    Message('pitchwheel', channel=1, pitch=1152, time=2),
    Message('pitchwheel', channel=1, pitch=1664, time=2),
    Message('pitchwheel', channel=1, pitch=2304, time=1),
    Message('pitchwheel', channel=1, pitch=2560, time=2),
    Message('pitchwheel', channel=1, pitch=2944, time=2),
    Message('pitchwheel', channel=1, pitch=3456, time=1),
    Message('pitchwheel', channel=1, pitch=3968, time=2),
    Message('pitchwheel', channel=1, pitch=4736, time=3),
    Message('pitchwheel', channel=1, pitch=5248, time=2),
    Message('pitchwheel', channel=1, pitch=5632, time=2),
    Message('pitchwheel', channel=1, pitch=6144, time=1),
    Message('pitchwheel', channel=1, pitch=6528, time=2),
    Message('pitchwheel', channel=1, pitch=6784, time=2),
    Message('pitchwheel', channel=1, pitch=7552, time=1),
    Message('pitchwheel', channel=1, pitch=7936, time=2),
    Message('pitchwheel', channel=1, pitch=8191, time=2),
    Message('note_on', channel=1, note=103, velocity=0, time=90),
    Message('pitchwheel', channel=1, pitch=2304, time=0),
    Message('note_on', channel=1, note=103, velocity=100, time=0),
    Message('pitchwheel', channel=1, pitch=2688, time=1),
    Message('pitchwheel', channel=1, pitch=3072, time=2),
    Message('pitchwheel', channel=1, pitch=3328, time=2),
    Message('pitchwheel', channel=1, pitch=3584, time=1),
    Message('pitchwheel', channel=1, pitch=3840, time=2),
    Message('pitchwheel', channel=1, pitch=4736, time=2),
    Message('pitchwheel', channel=1, pitch=5120, time=1),
    Message('pitchwheel', channel=1, pitch=5504, time=2),
    Message('pitchwheel', channel=1, pitch=5632, time=2),
    Message('pitchwheel', channel=1, pitch=6144, time=1),
    Message('pitchwheel', channel=1, pitch=6528, time=2),
    Message('pitchwheel', channel=1, pitch=7040, time=2),
    Message('pitchwheel', channel=1, pitch=7424, time=1),
    Message('pitchwheel', channel=1, pitch=7936, time=2),
    Message('pitchwheel', channel=1, pitch=8191, time=2),
    Message('note_on', channel=1, note=103, velocity=0, time=35),
    Message('note_on', channel=1, note=102, velocity=100, time=0),
    Message('note_on', channel=1, note=102, velocity=0, time=180),
    Message('note_on', channel=1, note=93, velocity=100, time=0),
    Message('note_on', channel=1, note=93, velocity=0, time=30),
    Message('note_on', channel=1, note=100, velocity=100, time=0),
    Message('note_on', channel=1, note=100, velocity=0, time=30),
    Message('note_on', channel=1, note=94, velocity=100, time=0),
    Message('note_on', channel=1, note=94, velocity=0, time=30),
    Message('note_on', channel=1, note=93, velocity=100, time=0),
    Message('note_on', channel=1, note=93, velocity=0, time=30),
    Message('note_on', channel=1, note=86, velocity=100, time=0),
    Message('note_on', channel=1, note=86, velocity=0, time=30),
    Message('note_on', channel=1, note=82, velocity=100, time=0),
    Message('note_on', channel=1, note=82, velocity=0, time=30),
    Message('note_on', channel=1, note=81, velocity=100, time=0),
    Message('note_on', channel=1, note=81, velocity=0, time=30),
    Message('note_on', channel=1, note=77, velocity=100, time=0),
    Message('note_on', channel=1, note=77, velocity=0, time=30),
    Message('note_on', channel=1, note=74, velocity=100, time=0),
    Message('note_on', channel=1, note=74, velocity=0, time=30),
    Message('note_on', channel=1, note=71, velocity=100, time=0),
    Message('note_on', channel=1, note=71, velocity=0, time=90),
    Message('note_on', channel=1, note=67, velocity=100, time=60),
    Message('note_on', channel=1, note=79, velocity=100, time=0),
    Message('note_on', channel=1, note=79, velocity=0, time=30),
    Message('note_on', channel=1, note=67, velocity=0, time=0),
    Message('note_on', channel=1, note=67, velocity=100, time=0),
    Message('note_on', channel=1, note=79, velocity=100, time=0),
    Message('note_on', channel=1, note=79, velocity=0, time=30),
    Message('note_on', channel=1, note=67, velocity=0, time=0),
    Message('note_on', channel=1, note=67, velocity=100, time=0),
    Message('note_on', channel=1, note=79, velocity=100, time=0),
    Message('note_on', channel=1, note=79, velocity=0, time=60),
    Message('note_on', channel=1, note=67, velocity=0, time=0),
    Message('note_on', channel=1, note=69, velocity=100, time=0),
    Message('note_on', channel=1, note=81, velocity=100, time=0),
    Message('note_on', channel=1, note=81, velocity=0, time=30),
    Message('note_on', channel=1, note=69, velocity=0, time=0),
    Message('note_on', channel=1, note=81, velocity=100, time=0),
    Message('note_on', channel=1, note=69, velocity=100, time=0),
    Message('note_on', channel=1, note=69, velocity=0, time=30),
    Message('note_on', channel=1, note=81, velocity=0, time=0),
    Message('note_on', channel=1, note=69, velocity=100, time=0),
    Message('note_on', channel=1, note=81, velocity=100, time=0),
    Message('note_on', channel=1, note=81, velocity=0, time=60),
    Message('note_on', channel=1, note=69, velocity=0, time=0),
    Message('note_on', channel=1, note=70, velocity=100, time=0),
    Message('note_on', channel=1, note=82, velocity=100, time=0),
    Message('note_on', channel=1, note=82, velocity=0, time=30),
    Message('note_on', channel=1, note=70, velocity=0, time=0),
    Message('note_on', channel=1, note=70, velocity=100, time=0),
    Message('note_on', channel=1, note=82, velocity=100, time=0),
    Message('note_on', channel=1, note=82, velocity=0, time=30),
    Message('note_on', channel=1, note=70, velocity=0, time=0),
    Message('note_on', channel=1, note=70, velocity=100, time=0),
    Message('note_on', channel=1, note=82, velocity=100, time=0),
    Message('note_on', channel=1, note=82, velocity=0, time=60),
    Message('note_on', channel=1, note=70, velocity=0, time=0),
    Message('note_on', channel=1, note=72, velocity=100, time=0),
    Message('note_on', channel=1, note=84, velocity=100, time=0),
    Message('note_on', channel=1, note=84, velocity=0, time=60),
    Message('note_on', channel=1, note=72, velocity=0, time=0),
    Message('note_on', channel=1, note=84, velocity=100, time=0),
    Message('note_on', channel=1, note=84, velocity=0, time=30),
    Message('note_on', channel=1, note=86, velocity=100, time=0),
    Message('note_on', channel=1, note=86, velocity=0, time=30),
    Message('note_on', channel=1, note=89, velocity=100, time=0),
    Message('note_on', channel=1, note=89, velocity=0, time=30),
    Message('note_on', channel=1, note=86, velocity=100, time=0),
    Message('note_on', channel=1, note=86, velocity=0, time=30),
    Message('note_on', channel=1, note=84, velocity=100, time=0),
    Message('note_on', channel=1, note=84, velocity=0, time=30),
    Message('note_on', channel=1, note=86, velocity=100, time=0),
    Message('note_on', channel=1, note=86, velocity=0, time=30),
    Message('note_on', channel=1, note=89, velocity=100, time=0),
    Message('note_on', channel=1, note=89, velocity=0, time=30),
    Message('note_on', channel=1, note=86, velocity=100, time=0),
    Message('note_on', channel=1, note=86, velocity=0, time=30),
    Message('note_on', channel=1, note=84, velocity=100, time=0),
    Message('note_on', channel=1, note=84, velocity=0, time=30),
    Message('note_on', channel=1, note=82, velocity=100, time=0),
    Message('note_on', channel=1, note=82, velocity=0, time=30),
    Message('note_on', channel=1, note=89, velocity=100, time=0),
    Message('note_on', channel=1, note=89, velocity=0, time=30),
    Message('note_on', channel=1, note=86, velocity=100, time=0),
    Message('note_on', channel=1, note=86, velocity=0, time=30),
    Message('note_on', channel=1, note=85, velocity=100, time=0),
    Message('note_on', channel=1, note=85, velocity=0, time=30),
    Message('note_on', channel=1, note=84, velocity=100, time=0),
    Message('note_on', channel=1, note=84, velocity=0, time=30),
    Message('note_on', channel=1, note=82, velocity=100, time=0),
    Message('note_on', channel=1, note=82, velocity=0, time=30),
    Message('note_on', channel=1, note=79, velocity=100, time=0),
    Message('note_on', channel=1, note=79, velocity=0, time=30),
    Message('note_on', channel=1, note=84, velocity=100, time=0),
    Message('note_on', channel=1, note=84, velocity=0, time=30),
    Message('note_on', channel=1, note=82, velocity=100, time=0),
    Message('note_on', channel=1, note=82, velocity=0, time=30),
    Message('note_on', channel=1, note=98, velocity=100, time=0),
    Message('pitchwheel', channel=1, pitch=0, time=3),
    Message('pitchwheel', channel=1, pitch=128, time=3),
    Message('pitchwheel', channel=1, pitch=384, time=2),
    Message('pitchwheel', channel=1, pitch=512, time=2),
    Message('pitchwheel', channel=1, pitch=768, time=1),
    Message('pitchwheel', channel=1, pitch=1408, time=2),
    Message('pitchwheel', channel=1, pitch=2176, time=2),
    Message('pitchwheel', channel=1, pitch=3072, time=1),
    Message('pitchwheel', channel=1, pitch=5504, time=2),
    Message('pitchwheel', channel=1, pitch=8191, time=2),
    Message('pitchwheel', channel=1, pitch=0, time=3),
    Message('pitchwheel', channel=1, pitch=-128, time=2),
    Message('pitchwheel', channel=1, pitch=-256, time=1),
    Message('pitchwheel', channel=1, pitch=-640, time=2),
    Message('pitchwheel', channel=1, pitch=-896, time=2),
    Message('pitchwheel', channel=1, pitch=-1152, time=1),
    Message('pitchwheel', channel=1, pitch=-1664, time=2),
    Message('pitchwheel', channel=1, pitch=-2176, time=2),
    Message('pitchwheel', channel=1, pitch=-2816, time=1),
    Message('pitchwheel', channel=1, pitch=-3584, time=2),
    Message('pitchwheel', channel=1, pitch=-5376, time=2),
    Message('pitchwheel', channel=1, pitch=-8064, time=1),
    Message('note_on', channel=1, note=98, velocity=0, time=139),
    Message('pitchwheel', channel=1, pitch=128, time=9420),
    Message('note_on', channel=1, note=74, velocity=100, time=0),
    Message('pitchwheel', channel=1, pitch=512, time=1),
    Message('pitchwheel', channel=1, pitch=640, time=2),
    Message('pitchwheel', channel=1, pitch=1024, time=2),
    Message('pitchwheel', channel=1, pitch=1664, time=1),
    Message('pitchwheel', channel=1, pitch=2048, time=2),
    Message('pitchwheel', channel=1, pitch=2560, time=2),
    Message('pitchwheel', channel=1, pitch=3200, time=1),
    Message('pitchwheel', channel=1, pitch=3968, time=2),
    Message('pitchwheel', channel=1, pitch=4608, time=2),
    Message('note_on', channel=1, note=74, velocity=0, time=225),
    Message('note_on', channel=1, note=72, velocity=100, time=0),
    Message('note_on', channel=1, note=72, velocity=0, time=30),
    Message('note_on', channel=1, note=70, velocity=100, time=0),
    Message('note_on', channel=1, note=70, velocity=0, time=30),
    Message('note_on', channel=1, note=67, velocity=100, time=0),
    Message('note_on', channel=1, note=67, velocity=0, time=30),
    Message('note_on', channel=1, note=71, velocity=100, time=0),
    Message('note_on', channel=1, note=71, velocity=0, time=30),
    Message('note_on', channel=1, note=67, velocity=100, time=0),
    Message('note_on', channel=1, note=67, velocity=0, time=30),
    Message('note_on', channel=1, note=65, velocity=100, time=0),
    Message('note_on', channel=1, note=65, velocity=0, time=30),
    Message('note_on', channel=1, note=62, velocity=100, time=0),
    Message('note_on', channel=1, note=62, velocity=0, time=30),
    Message('note_on', channel=1, note=60, velocity=100, time=0),
    Message('note_on', channel=1, note=60, velocity=0, time=30),
    Message('note_on', channel=1, note=58, velocity=100, time=0),
    Message('note_on', channel=1, note=58, velocity=0, time=240),
    Message('note_on', channel=1, note=70, velocity=100, time=0),
    Message('note_on', channel=1, note=70, velocity=0, time=30),
    Message('note_on', channel=1, note=72, velocity=100, time=0),
    Message('note_on', channel=1, note=72, velocity=0, time=30),
    Message('note_on', channel=1, note=72, velocity=100, time=0),
    Message('note_on', channel=1, note=72, velocity=0, time=30),
    Message('note_on', channel=1, note=72, velocity=100, time=0),
    Message('note_on', channel=1, note=72, velocity=0, time=30),
    Message('pitchwheel', channel=1, pitch=256, time=0),
    Message('note_on', channel=1, note=74, velocity=100, time=0),
    Message('pitchwheel', channel=1, pitch=384, time=1),
    Message('pitchwheel', channel=1, pitch=640, time=2),
    Message('pitchwheel', channel=1, pitch=896, time=2),
    Message('pitchwheel', channel=1, pitch=1152, time=1),
    Message('pitchwheel', channel=1, pitch=1536, time=2),
    Message('pitchwheel', channel=1, pitch=1920, time=2),
    Message('pitchwheel', channel=1, pitch=2432, time=1),
    Message('pitchwheel', channel=1, pitch=2944, time=2),
    Message('pitchwheel', channel=1, pitch=4864, time=2),
    Message('pitchwheel', channel=1, pitch=5376, time=1),
    Message('note_on', channel=1, note=74, velocity=0, time=164),
    Message('note_on', channel=1, note=72, velocity=100, time=60),
    Message('note_on', channel=1, note=72, velocity=0, time=60),
    Message('note_on', channel=1, note=74, velocity=100, time=0),
    Message('note_on', channel=1, note=74, velocity=0, time=60),
    Message('note_on', channel=1, note=77, velocity=100, time=0),
    Message('note_on', channel=1, note=77, velocity=0, time=60),
    Message('note_on', channel=1, note=79, velocity=100, time=0),
    Message('note_on', channel=1, note=79, velocity=0, time=60),
    Message('note_on', channel=1, note=77, velocity=100, time=0),
    Message('note_on', channel=1, note=77, velocity=0, time=20),
    Message('note_on', channel=1, note=79, velocity=100, time=0),
    Message('note_on', channel=1, note=79, velocity=0, time=20),
    Message('note_on', channel=1, note=77, velocity=100, time=0),
    Message('note_on', channel=1, note=77, velocity=0, time=20),
    Message('note_on', channel=1, note=74, velocity=100, time=0),
    Message('note_on', channel=1, note=74, velocity=0, time=60),
    Message('pitchwheel', channel=1, pitch=-128, time=0),
    Message('note_on', channel=1, note=79, velocity=100, time=0),
    Message('pitchwheel', channel=1, pitch=0, time=1),
    Message('pitchwheel', channel=1, pitch=128, time=2),
    Message('pitchwheel', channel=1, pitch=256, time=2),
    Message('pitchwheel', channel=1, pitch=384, time=1),
    Message('pitchwheel', channel=1, pitch=512, time=2),
    Message('pitchwheel', channel=1, pitch=640, time=2),
    Message('pitchwheel', channel=1, pitch=768, time=1),
    Message('pitchwheel', channel=1, pitch=1024, time=2),
    Message('pitchwheel', channel=1, pitch=1280, time=2),
    Message('pitchwheel', channel=1, pitch=1664, time=1),
    Message('pitchwheel', channel=1, pitch=2432, time=2),
    Message('pitchwheel', channel=1, pitch=3840, time=2),
    Message('pitchwheel', channel=1, pitch=4608, time=1),
    Message('note_on', channel=1, note=79, velocity=0, time=159),
    Message('note_on', channel=1, note=74, velocity=100, time=0),
    Message('note_on', channel=1, note=74, velocity=0, time=60),
    Message('note_on', channel=1, note=77, velocity=100, time=0),
    Message('note_on', channel=1, note=77, velocity=0, time=180),
    Message('note_on', channel=1, note=72, velocity=100, time=60),
    Message('note_on', channel=1, note=72, velocity=0, time=60),
    Message('note_on', channel=1, note=74, velocity=100, time=0),
    Message('note_on', channel=1, note=74, velocity=0, time=60),
    Message('note_on', channel=1, note=77, velocity=100, time=0),
    Message('note_on', channel=1, note=77, velocity=0, time=20),
    Message('note_on', channel=1, note=79, velocity=100, time=0),
    Message('note_on', channel=1, note=79, velocity=0, time=20),
    Message('note_on', channel=1, note=82, velocity=100, time=0),
    Message('note_on', channel=1, note=82, velocity=0, time=20),
    Message('note_on', channel=1, note=86, velocity=100, time=0),
    Message('note_on', channel=1, note=86, velocity=0, time=60),
    Message('pitchwheel', channel=1, pitch=0, time=0),
    Message('note_on', channel=1, note=89, velocity=100, time=0),
    Message('pitchwheel', channel=1, pitch=128, time=1),
    Message('pitchwheel', channel=1, pitch=256, time=2),
    Message('pitchwheel', channel=1, pitch=384, time=2),
    Message('pitchwheel', channel=1, pitch=512, time=1),
    Message('pitchwheel', channel=1, pitch=768, time=2),
    Message('pitchwheel', channel=1, pitch=1152, time=2),
    Message('pitchwheel', channel=1, pitch=1664, time=1),
    Message('pitchwheel', channel=1, pitch=1920, time=2),
    Message('pitchwheel', channel=1, pitch=2304, time=2),
    Message('pitchwheel', channel=1, pitch=2688, time=1),
    Message('pitchwheel', channel=1, pitch=3456, time=2),
    Message('pitchwheel', channel=1, pitch=3840, time=2),
    Message('pitchwheel', channel=1, pitch=4352, time=1),
    Message('pitchwheel', channel=1, pitch=4864, time=2),
    Message('pitchwheel', channel=1, pitch=5504, time=2),
    Message('pitchwheel', channel=1, pitch=5888, time=1),
    Message('pitchwheel', channel=1, pitch=6528, time=2),
    Message('pitchwheel', channel=1, pitch=7168, time=2),
    Message('pitchwheel', channel=1, pitch=8064, time=1),
    Message('pitchwheel', channel=1, pitch=8191, time=2),
    Message('note_on', channel=1, note=89, velocity=0, time=147),
    Message('note_on', channel=1, note=86, velocity=100, time=0),
    Message('note_on', channel=1, note=86, velocity=0, time=60),
    Message('note_on', channel=1, note=89, velocity=100, time=0),
    Message('note_on', channel=1, note=89, velocity=0, time=60),
    Message('note_on', channel=1, note=89, velocity=100, time=0),
    Message('note_on', channel=1, note=89, velocity=0, time=30),
    Message('note_on', channel=1, note=98, velocity=100, time=0),
    Message('note_on', channel=1, note=98, velocity=0, time=30),
    Message('note_on', channel=1, note=94, velocity=100, time=0),
    Message('note_on', channel=1, note=94, velocity=0, time=30),
    Message('note_on', channel=1, note=93, velocity=100, time=0),
    Message('note_on', channel=1, note=93, velocity=0, time=30),
    Message('note_on', channel=1, note=89, velocity=100, time=0),
    Message('note_on', channel=1, note=89, velocity=0, time=60),
    Message('note_on', channel=1, note=89, velocity=100, time=0),
    Message('note_on', channel=1, note=89, velocity=0, time=30),
    Message('note_on', channel=1, note=94, velocity=100, time=0),
    Message('note_on', channel=1, note=94, velocity=0, time=30),
    Message('note_on', channel=1, note=91, velocity=100, time=0),
    Message('note_on', channel=1, note=91, velocity=0, time=30),
    Message('note_on', channel=1, note=89, velocity=100, time=0),
    Message('note_on', channel=1, note=89, velocity=0, time=30),
    Message('note_on', channel=1, note=86, velocity=100, time=0),
    Message('note_on', channel=1, note=86, velocity=0, time=30),
    Message('note_on', channel=1, note=85, velocity=100, time=0),
    Message('note_on', channel=1, note=85, velocity=0, time=30),
    Message('note_on', channel=1, note=86, velocity=100, time=0),
    Message('note_on', channel=1, note=86, velocity=0, time=120),
    Message('pitchwheel', channel=1, pitch=0, time=0),
    Message('note_on', channel=1, note=98, velocity=100, time=0),
    Message('pitchwheel', channel=1, pitch=256, time=6),
    Message('pitchwheel', channel=1, pitch=384, time=2),
    Message('pitchwheel', channel=1, pitch=512, time=3),
    Message('pitchwheel', channel=1, pitch=768, time=2),
    Message('pitchwheel', channel=1, pitch=896, time=2),
    Message('pitchwheel', channel=1, pitch=1152, time=3),
    Message('pitchwheel', channel=1, pitch=2688, time=3),
    Message('pitchwheel', channel=1, pitch=2688, time=2),
    Message('pitchwheel', channel=1, pitch=2944, time=2),
    Message('pitchwheel', channel=1, pitch=3712, time=1),
    Message('pitchwheel', channel=1, pitch=4736, time=2),
    Message('pitchwheel', channel=1, pitch=4992, time=2),
    Message('pitchwheel', channel=1, pitch=5760, time=1),
    Message('pitchwheel', channel=1, pitch=6656, time=2),
    Message('pitchwheel', channel=1, pitch=7296, time=2),
    Message('pitchwheel', channel=1, pitch=7808, time=1),
    Message('pitchwheel', channel=1, pitch=8191, time=2),
    Message('note_on', channel=1, note=98, velocity=0, time=142),
    Message('note_on', channel=1, note=91, velocity=100, time=0),
    Message('note_on', channel=1, note=91, velocity=0, time=30),
    Message('note_on', channel=1, note=89, velocity=100, time=0),
    Message('pitchwheel', channel=1, pitch=0, time=10),
    Message('pitchwheel', channel=1, pitch=128, time=1),
    Message('pitchwheel', channel=1, pitch=384, time=4),
    Message('pitchwheel', channel=1, pitch=512, time=1),
    Message('pitchwheel', channel=1, pitch=768, time=4),
    Message('pitchwheel', channel=1, pitch=896, time=1),
    Message('pitchwheel', channel=1, pitch=1280, time=2),
    Message('pitchwheel', channel=1, pitch=1536, time=2),
    Message('pitchwheel', channel=1, pitch=1920, time=1),
    Message('pitchwheel', channel=1, pitch=2560, time=2),
    Message('pitchwheel', channel=1, pitch=3456, time=2),
    Message('pitchwheel', channel=1, pitch=3840, time=1),
    Message('pitchwheel', channel=1, pitch=4736, time=2),
    Message('pitchwheel', channel=1, pitch=6144, time=2),
    Message('note_on', channel=1, note=89, velocity=0, time=115),
    Message('note_on', channel=1, note=82, velocity=100, time=0),
    Message('note_on', channel=1, note=82, velocity=0, time=60),
    Message('note_on', channel=1, note=84, velocity=100, time=0),
    Message('note_on', channel=1, note=84, velocity=0, time=60),
    Message('note_on', channel=1, note=84, velocity=100, time=0),
    Message('note_on', channel=1, note=84, velocity=0, time=60),
    Message('note_on', channel=1, note=85, velocity=100, time=0),
    Message('note_on', channel=1, note=85, velocity=0, time=60),
    Message('note_on', channel=1, note=85, velocity=100, time=0),
    Message('pitchwheel', channel=1, pitch=-128, time=58),
    Message('note_on', channel=1, note=85, velocity=0, time=2),
    Message('note_on', channel=1, note=84, velocity=100, time=0),
    Message('pitchwheel', channel=1, pitch=0, time=1),
    Message('pitchwheel', channel=1, pitch=0, time=2),
    Message('pitchwheel', channel=1, pitch=-128, time=8),
    Message('pitchwheel', channel=1, pitch=-128, time=4),
    Message('pitchwheel', channel=1, pitch=-128, time=8),
    Message('pitchwheel', channel=1, pitch=-128, time=15),
    Message('pitchwheel', channel=1, pitch=-128, time=7),
    Message('pitchwheel', channel=1, pitch=-128, time=5),
    Message('pitchwheel', channel=1, pitch=-128, time=5),
    Message('pitchwheel', channel=1, pitch=-128, time=11),
    Message('pitchwheel', channel=1, pitch=-256, time=2),
    Message('pitchwheel', channel=1, pitch=-256, time=3),
    Message('pitchwheel', channel=1, pitch=-512, time=12),
    Message('pitchwheel', channel=1, pitch=-640, time=3),
    Message('pitchwheel', channel=1, pitch=-768, time=7),
    Message('pitchwheel', channel=1, pitch=-896, time=5),
    Message('pitchwheel', channel=1, pitch=-1024, time=2),
    Message('pitchwheel', channel=1, pitch=-1152, time=10),
    Message('pitchwheel', channel=1, pitch=-1280, time=10),
    Message('pitchwheel', channel=1, pitch=-1408, time=3),
    Message('pitchwheel', channel=1, pitch=-1536, time=3),
    Message('pitchwheel', channel=1, pitch=-1664, time=2),
    Message('pitchwheel', channel=1, pitch=-1920, time=5),
    Message('pitchwheel', channel=1, pitch=-2048, time=2),
    Message('pitchwheel', channel=1, pitch=-2176, time=1),
    Message('pitchwheel', channel=1, pitch=-2304, time=4),
    Message('pitchwheel', channel=1, pitch=-2432, time=3),
    Message('pitchwheel', channel=1, pitch=-2688, time=2),
    Message('pitchwheel', channel=1, pitch=-2816, time=3),
    Message('pitchwheel', channel=1, pitch=-3072, time=2),
    Message('pitchwheel', channel=1, pitch=-3200, time=3),
    Message('pitchwheel', channel=1, pitch=-3968, time=3),
    Message('pitchwheel', channel=1, pitch=-4096, time=2),
    Message('pitchwheel', channel=1, pitch=-4224, time=2),
    Message('pitchwheel', channel=1, pitch=-4352, time=1),
    Message('pitchwheel', channel=1, pitch=-4608, time=2),
    Message('pitchwheel', channel=1, pitch=-4736, time=2),
    Message('pitchwheel', channel=1, pitch=-4864, time=3),
    Message('pitchwheel', channel=1, pitch=-5120, time=2),
    Message('pitchwheel', channel=1, pitch=-5248, time=1),
    Message('pitchwheel', channel=1, pitch=-5376, time=4),
    Message('pitchwheel', channel=1, pitch=-5504, time=1),
    Message('pitchwheel', channel=1, pitch=-5632, time=2),
    Message('pitchwheel', channel=1, pitch=-5760, time=7),
    Message('pitchwheel', channel=1, pitch=-5888, time=3),
    Message('pitchwheel', channel=1, pitch=-6016, time=2),
    Message('pitchwheel', channel=1, pitch=-6144, time=3),
    Message('pitchwheel', channel=1, pitch=-6272, time=2),
    Message('pitchwheel', channel=1, pitch=-6528, time=10),
    Message('pitchwheel', channel=1, pitch=-6656, time=1),
    Message('pitchwheel', channel=1, pitch=-6784, time=4),
    Message('pitchwheel', channel=1, pitch=-6912, time=3),
    Message('pitchwheel', channel=1, pitch=-7168, time=3),
    Message('pitchwheel', channel=1, pitch=-7424, time=4),
    Message('pitchwheel', channel=1, pitch=-7552, time=1),
    Message('pitchwheel', channel=1, pitch=-7680, time=2),
    Message('note_on', channel=1, note=84, velocity=0, time=77),
    Message('pitchwheel', channel=1, pitch=0, time=6958),
    Message('note_on', channel=1, note=93, velocity=100, time=2),
    Message('pitchwheel', channel=1, pitch=128, time=1),
    Message('pitchwheel', channel=1, pitch=384, time=2),
    Message('pitchwheel', channel=1, pitch=512, time=2),
    Message('pitchwheel', channel=1, pitch=896, time=1),
    Message('pitchwheel', channel=1, pitch=1152, time=2),
    Message('pitchwheel', channel=1, pitch=1920, time=2),
    Message('pitchwheel', channel=1, pitch=2304, time=1),
    Message('pitchwheel', channel=1, pitch=3072, time=2),
    Message('pitchwheel', channel=1, pitch=4352, time=2),
    Message('pitchwheel', channel=1, pitch=4480, time=3),
    Message('pitchwheel', channel=1, pitch=4224, time=222),
    Message('pitchwheel', channel=1, pitch=4224, time=1),
    Message('pitchwheel', channel=1, pitch=4352, time=4),
    Message('pitchwheel', channel=1, pitch=4480, time=1),
    Message('pitchwheel', channel=1, pitch=4608, time=2),
    Message('pitchwheel', channel=1, pitch=4864, time=2),
    Message('pitchwheel', channel=1, pitch=7808, time=1),
    Message('pitchwheel', channel=1, pitch=8064, time=2),
    Message('pitchwheel', channel=1, pitch=8064, time=3),
    Message('note_on', channel=1, note=93, velocity=0, time=944),
    Message('pitchwheel', channel=1, pitch=0, time=0),
    Message('note_on', channel=1, note=93, velocity=100, time=0),
    Message('pitchwheel', channel=1, pitch=256, time=3),
    Message('pitchwheel', channel=1, pitch=640, time=3),
    Message('pitchwheel', channel=1, pitch=768, time=2),
    Message('pitchwheel', channel=1, pitch=1152, time=2),
    Message('pitchwheel', channel=1, pitch=1280, time=1),
    Message('pitchwheel', channel=1, pitch=1664, time=2),
    Message('pitchwheel', channel=1, pitch=2048, time=2),
    Message('pitchwheel', channel=1, pitch=2304, time=1),
    Message('pitchwheel', channel=1, pitch=2944, time=2),
    Message('pitchwheel', channel=1, pitch=3456, time=2),
    Message('pitchwheel', channel=1, pitch=4480, time=1),
    Message('pitchwheel', channel=1, pitch=5632, time=2),
    Message('pitchwheel', channel=1, pitch=-128, time=455),
    Message('note_on', channel=1, note=93, velocity=0, time=2),
    Message('pitchwheel', channel=1, pitch=0, time=0),
    Message('note_on', channel=1, note=93, velocity=100, time=0),
    Message('pitchwheel', channel=1, pitch=128, time=3),
    Message('pitchwheel', channel=1, pitch=256, time=3),
    Message('pitchwheel', channel=1, pitch=384, time=2),
    Message('pitchwheel', channel=1, pitch=512, time=2),
    Message('pitchwheel', channel=1, pitch=640, time=1),
    Message('pitchwheel', channel=1, pitch=896, time=2),
    Message('pitchwheel', channel=1, pitch=1152, time=2),
    Message('pitchwheel', channel=1, pitch=1792, time=1),
    Message('pitchwheel', channel=1, pitch=2944, time=2),
    Message('pitchwheel', channel=1, pitch=4736, time=2),
    Message('pitchwheel', channel=1, pitch=6016, time=1),
    Message('note_on', channel=1, note=93, velocity=0, time=459),
    Message('pitchwheel', channel=1, pitch=128, time=0),
    Message('note_on', channel=1, note=93, velocity=100, time=0),
    Message('pitchwheel', channel=1, pitch=256, time=1),
    Message('pitchwheel', channel=1, pitch=384, time=2),
    Message('pitchwheel', channel=1, pitch=512, time=2),
    Message('pitchwheel', channel=1, pitch=640, time=1),
    Message('pitchwheel', channel=1, pitch=896, time=2),
    Message('pitchwheel', channel=1, pitch=1024, time=2),
    Message('pitchwheel', channel=1, pitch=1152, time=1),
    Message('pitchwheel', channel=1, pitch=1408, time=2),
    Message('pitchwheel', channel=1, pitch=1792, time=2),
    Message('pitchwheel', channel=1, pitch=2048, time=1),
    Message('pitchwheel', channel=1, pitch=2432, time=2),
    Message('pitchwheel', channel=1, pitch=2816, time=2),
    Message('pitchwheel', channel=1, pitch=5760, time=1),
    Message('pitchwheel', channel=1, pitch=0, time=217),
    Message('note_on', channel=1, note=93, velocity=0, time=2),
    Message('pitchwheel', channel=1, pitch=128, time=0),
    Message('note_on', channel=1, note=93, velocity=100, time=0),
    Message('pitchwheel', channel=1, pitch=0, time=1),
    Message('pitchwheel', channel=1, pitch=256, time=2),
    Message('pitchwheel', channel=1, pitch=512, time=2),
    Message('pitchwheel', channel=1, pitch=640, time=1),
    Message('pitchwheel', channel=1, pitch=896, time=2),
    Message('pitchwheel', channel=1, pitch=1280, time=2),
    Message('pitchwheel', channel=1, pitch=1536, time=1),
    Message('pitchwheel', channel=1, pitch=1792, time=2),
    Message('pitchwheel', channel=1, pitch=3456, time=2),
    Message('pitchwheel', channel=1, pitch=4864, time=1),
    Message('pitchwheel', channel=1, pitch=5888, time=2),
    Message('note_on', channel=1, note=93, velocity=0, time=222),
    Message('note_on', channel=1, note=93, velocity=100, time=0),
    Message('pitchwheel', channel=1, pitch=0, time=1),
    Message('pitchwheel', channel=1, pitch=256, time=7),
    Message('pitchwheel', channel=1, pitch=384, time=2),
    Message('pitchwheel', channel=1, pitch=640, time=5),
    Message('pitchwheel', channel=1, pitch=896, time=1),
    Message('pitchwheel', channel=1, pitch=1024, time=2),
    Message('pitchwheel', channel=1, pitch=1152, time=2),
    Message('pitchwheel', channel=1, pitch=1408, time=1),
    Message('pitchwheel', channel=1, pitch=1664, time=2),
    Message('pitchwheel', channel=1, pitch=1792, time=2),
    Message('pitchwheel', channel=1, pitch=2048, time=1),
    Message('pitchwheel', channel=1, pitch=2432, time=2),
    Message('pitchwheel', channel=1, pitch=2944, time=2),
    Message('pitchwheel', channel=1, pitch=6144, time=1),
    Message('note_on', channel=1, note=93, velocity=0, time=209),
    Message('pitchwheel', channel=1, pitch=0, time=0),
    Message('note_on', channel=1, note=93, velocity=100, time=0),
    Message('pitchwheel', channel=1, pitch=128, time=1),
    Message('pitchwheel', channel=1, pitch=256, time=2),
    Message('pitchwheel', channel=1, pitch=384, time=2),
    Message('pitchwheel', channel=1, pitch=512, time=1),
    Message('pitchwheel', channel=1, pitch=1024, time=2),
    Message('pitchwheel', channel=1, pitch=1280, time=2),
    Message('pitchwheel', channel=1, pitch=1664, time=1),
    Message('pitchwheel', channel=1, pitch=2304, time=2),
    Message('pitchwheel', channel=1, pitch=3840, time=2),
    Message('pitchwheel', channel=1, pitch=6272, time=1),
    Message('note_on', channel=1, note=93, velocity=0, time=224),
    Message('note_on', channel=1, note=93, velocity=100, time=0),
    Message('note_on', channel=1, note=93, velocity=0, time=30),
    Message('note_on', channel=1, note=91, velocity=100, time=0),
    Message('note_on', channel=1, note=91, velocity=0, time=30),
    Message('note_on', channel=1, note=88, velocity=100, time=0),
    Message('note_on', channel=1, note=88, velocity=0, time=30),
    Message('note_on', channel=1, note=88, velocity=100, time=0),
    Message('note_on', channel=1, note=88, velocity=0, time=30),
    Message('note_on', channel=1, note=88, velocity=100, time=30),
    Message('note_on', channel=1, note=88, velocity=0, time=30),
    Message('note_on', channel=1, note=88, velocity=100, time=0),
    Message('note_on', channel=1, note=88, velocity=0, time=30),
    Message('note_on', channel=1, note=86, velocity=100, time=0),
    Message('note_on', channel=1, note=86, velocity=0, time=30),
    Message('note_on', channel=1, note=83, velocity=100, time=0),
    Message('note_on', channel=1, note=83, velocity=0, time=30),
    Message('note_on', channel=1, note=88, velocity=100, time=0),
    Message('note_on', channel=1, note=88, velocity=0, time=30),
    Message('note_on', channel=1, note=86, velocity=100, time=0),
    Message('note_on', channel=1, note=86, velocity=0, time=30),
    Message('note_on', channel=1, note=83, velocity=100, time=0),
    Message('note_on', channel=1, note=83, velocity=0, time=30),
    Message('note_on', channel=1, note=88, velocity=100, time=0),
    Message('note_on', channel=1, note=88, velocity=0, time=30),
    Message('note_on', channel=1, note=86, velocity=100, time=0),
    Message('note_on', channel=1, note=86, velocity=0, time=30),
    Message('note_on', channel=1, note=83, velocity=100, time=0),
    Message('note_on', channel=1, note=83, velocity=0, time=30),
    Message('note_on', channel=1, note=82, velocity=100, time=0),
    Message('note_on', channel=1, note=82, velocity=0, time=30),
    Message('note_on', channel=1, note=83, velocity=100, time=0),
    Message('note_on', channel=1, note=83, velocity=0, time=30),
    Message('note_on', channel=1, note=82, velocity=100, time=0),
    Message('note_on', channel=1, note=82, velocity=0, time=30),
    Message('note_on', channel=1, note=81, velocity=100, time=0),
    Message('note_on', channel=1, note=81, velocity=0, time=30),
    Message('note_on', channel=1, note=79, velocity=100, time=0),
    Message('note_on', channel=1, note=79, velocity=0, time=30),
    Message('note_on', channel=1, note=82, velocity=100, time=0),
    Message('note_on', channel=1, note=82, velocity=0, time=30),
    Message('note_on', channel=1, note=81, velocity=100, time=0),
    Message('note_on', channel=1, note=81, velocity=0, time=30),
    Message('note_on', channel=1, note=79, velocity=100, time=0),
    Message('note_on', channel=1, note=79, velocity=0, time=30),
    Message('note_on', channel=1, note=82, velocity=100, time=0),
    Message('note_on', channel=1, note=82, velocity=0, time=30),
    Message('note_on', channel=1, note=81, velocity=100, time=0),
    Message('note_on', channel=1, note=81, velocity=0, time=30),
    Message('note_on', channel=1, note=79, velocity=100, time=0),
    Message('note_on', channel=1, note=79, velocity=0, time=30),
    Message('note_on', channel=1, note=78, velocity=100, time=0),
    Message('note_on', channel=1, note=78, velocity=0, time=60),
    Message('note_on', channel=1, note=79, velocity=100, time=0),
    Message('note_on', channel=1, note=79, velocity=0, time=60),
    Message('note_on', channel=1, note=78, velocity=100, time=0),
    Message('note_on', channel=1, note=78, velocity=0, time=60),
    Message('note_on', channel=1, note=74, velocity=100, time=0),
    Message('note_on', channel=1, note=74, velocity=0, time=90),
    Message('note_on', channel=1, note=76, velocity=100, time=0),
    Message('note_on', channel=1, note=76, velocity=0, time=30),
    Message('note_on', channel=1, note=75, velocity=100, time=0),
    Message('note_on', channel=1, note=75, velocity=0, time=30),
    Message('note_on', channel=1, note=74, velocity=100, time=0),
    Message('note_on', channel=1, note=74, velocity=0, time=30),
    Message('note_on', channel=1, note=71, velocity=100, time=0),
    Message('note_on', channel=1, note=71, velocity=0, time=60),
    Message('note_on', channel=1, note=76, velocity=100, time=0),
    Message('note_on', channel=1, note=76, velocity=0, time=30),
    Message('note_on', channel=1, note=74, velocity=100, time=0),
    Message('note_on', channel=1, note=74, velocity=0, time=30),
    Message('note_on', channel=1, note=71, velocity=100, time=0),
    Message('note_on', channel=1, note=71, velocity=0, time=30),
    Message('note_on', channel=1, note=70, velocity=100, time=0),
    Message('note_on', channel=1, note=70, velocity=0, time=30),
    Message('note_on', channel=1, note=74, velocity=100, time=0),
    Message('note_on', channel=1, note=74, velocity=0, time=30),
    Message('note_on', channel=1, note=71, velocity=100, time=0),
    Message('note_on', channel=1, note=71, velocity=0, time=30),
    Message('note_on', channel=1, note=70, velocity=100, time=0),
    Message('note_on', channel=1, note=70, velocity=0, time=30),
    Message('note_on', channel=1, note=69, velocity=100, time=0),
    Message('note_on', channel=1, note=69, velocity=0, time=30),
    Message('note_on', channel=1, note=71, velocity=100, time=0),
    Message('note_on', channel=1, note=71, velocity=0, time=30),
    Message('note_on', channel=1, note=70, velocity=100, time=0),
    Message('note_on', channel=1, note=70, velocity=0, time=30),
    Message('note_on', channel=1, note=69, velocity=100, time=0),
    Message('note_on', channel=1, note=69, velocity=0, time=30),
    Message('note_on', channel=1, note=67, velocity=100, time=0),
    Message('note_on', channel=1, note=67, velocity=0, time=30),
    Message('note_on', channel=1, note=70, velocity=100, time=0),
    Message('note_on', channel=1, note=70, velocity=0, time=30),
    Message('note_on', channel=1, note=69, velocity=100, time=0),
    Message('note_on', channel=1, note=69, velocity=0, time=30),
    Message('note_on', channel=1, note=67, velocity=100, time=0),
    Message('note_on', channel=1, note=67, velocity=0, time=60),
    Message('note_on', channel=1, note=69, velocity=100, time=0),
    Message('note_on', channel=1, note=69, velocity=0, time=30),
    Message('note_on', channel=1, note=67, velocity=100, time=0),
    Message('note_on', channel=1, note=67, velocity=0, time=30),
    Message('note_on', channel=1, note=69, velocity=100, time=0),
    Message('note_on', channel=1, note=69, velocity=0, time=30),
    Message('note_on', channel=1, note=67, velocity=100, time=0),
    Message('note_on', channel=1, note=67, velocity=0, time=30),
    Message('note_on', channel=1, note=69, velocity=100, time=0),
    Message('note_on', channel=1, note=69, velocity=0, time=120),
    Message('note_on', channel=1, note=52, velocity=100, time=0),
    Message('note_on', channel=1, note=52, velocity=0, time=480),
    Message('note_on', channel=1, note=57, velocity=100, time=0),
    Message('note_on', channel=1, note=57, velocity=0, time=30),
    Message('note_on', channel=1, note=60, velocity=100, time=0),
    Message('note_on', channel=1, note=60, velocity=0, time=30),
    Message('note_on', channel=1, note=57, velocity=100, time=0),
    Message('note_on', channel=1, note=57, velocity=0, time=60),
    Message('note_on', channel=1, note=60, velocity=100, time=0),
    Message('note_on', channel=1, note=60, velocity=0, time=30),
    Message('note_on', channel=1, note=57, velocity=100, time=0),
    Message('note_on', channel=1, note=57, velocity=0, time=30),
    Message('note_on', channel=1, note=60, velocity=100, time=0),
    Message('note_on', channel=1, note=60, velocity=0, time=60),
    Message('note_on', channel=1, note=57, velocity=100, time=0),
    Message('note_on', channel=1, note=57, velocity=0, time=60),
    Message('note_on', channel=1, note=60, velocity=100, time=0),
    Message('note_on', channel=1, note=60, velocity=0, time=30),
    Message('note_on', channel=1, note=57, velocity=100, time=0),
    Message('note_on', channel=1, note=57, velocity=0, time=60),
    Message('note_on', channel=1, note=60, velocity=100, time=0),
    Message('note_on', channel=1, note=60, velocity=0, time=30),
    Message('note_on', channel=1, note=57, velocity=100, time=0),
    Message('note_on', channel=1, note=57, velocity=0, time=60),
    Message('note_on', channel=1, note=69, velocity=100, time=0),
    Message('note_on', channel=1, note=69, velocity=0, time=30),
    Message('note_on', channel=1, note=70, velocity=100, time=0),
    Message('note_on', channel=1, note=70, velocity=0, time=30),
    Message('note_on', channel=1, note=69, velocity=100, time=0),
    Message('note_on', channel=1, note=69, velocity=0, time=30),
    Message('note_on', channel=1, note=67, velocity=100, time=0),
    Message('note_on', channel=1, note=67, velocity=0, time=30),
    Message('note_on', channel=1, note=69, velocity=100, time=0),
    Message('note_on', channel=1, note=69, velocity=0, time=30),
    Message('note_on', channel=1, note=70, velocity=100, time=0),
    Message('note_on', channel=1, note=70, velocity=0, time=30),
    Message('note_on', channel=1, note=71, velocity=100, time=0),
    Message('note_on', channel=1, note=71, velocity=0, time=30),
    Message('note_on', channel=1, note=74, velocity=100, time=0),
    Message('note_on', channel=1, note=74, velocity=0, time=30),
    Message('note_on', channel=1, note=76, velocity=100, time=60),
    Message('note_on', channel=1, note=76, velocity=0, time=30),
    Message('note_on', channel=1, note=76, velocity=100, time=0),
    Message('note_on', channel=1, note=76, velocity=0, time=30),
    Message('note_on', channel=1, note=74, velocity=100, time=0),
    Message('note_on', channel=1, note=74, velocity=0, time=30),
    Message('note_on', channel=1, note=74, velocity=100, time=0),
    Message('note_on', channel=1, note=74, velocity=0, time=30),
    Message('note_on', channel=1, note=74, velocity=100, time=0),
    Message('note_on', channel=1, note=74, velocity=0, time=30),
    Message('note_on', channel=1, note=74, velocity=100, time=0),
    Message('note_on', channel=1, note=74, velocity=0, time=30),
    Message('note_on', channel=1, note=79, velocity=100, time=0),
    Message('note_on', channel=1, note=79, velocity=0, time=30),
    Message('note_on', channel=1, note=81, velocity=100, time=0),
    Message('note_on', channel=1, note=81, velocity=0, time=30),
    Message('note_on', channel=1, note=79, velocity=100, time=0),
    Message('note_on', channel=1, note=79, velocity=0, time=30),
    Message('note_on', channel=1, note=81, velocity=100, time=0),
    Message('note_on', channel=1, note=81, velocity=0, time=30),
    Message('note_on', channel=1, note=83, velocity=100, time=0),
    Message('note_on', channel=1, note=83, velocity=0, time=30),
    Message('note_on', channel=1, note=79, velocity=100, time=0),
    Message('note_on', channel=1, note=79, velocity=0, time=30),
    Message('note_on', channel=1, note=81, velocity=100, time=0),
    Message('note_on', channel=1, note=81, velocity=0, time=30),
    Message('note_on', channel=1, note=79, velocity=100, time=0),
    Message('note_on', channel=1, note=79, velocity=0, time=30),
    Message('note_on', channel=1, note=81, velocity=100, time=0),
    Message('note_on', channel=1, note=81, velocity=0, time=30),
    Message('note_on', channel=1, note=83, velocity=100, time=0),
    Message('note_on', channel=1, note=83, velocity=0, time=30),
    Message('note_on', channel=1, note=86, velocity=100, time=0),
    Message('note_on', channel=1, note=86, velocity=0, time=30),
    Message('note_on', channel=1, note=83, velocity=100, time=0),
    Message('note_on', channel=1, note=83, velocity=0, time=30),
    Message('note_on', channel=1, note=86, velocity=100, time=0),
    Message('note_on', channel=1, note=86, velocity=0, time=30),
    Message('note_on', channel=1, note=86, velocity=100, time=0),
    Message('note_on', channel=1, note=86, velocity=0, time=30),
    Message('note_on', channel=1, note=88, velocity=100, time=0),
    Message('note_on', channel=1, note=88, velocity=0, time=30),
    Message('note_on', channel=1, note=86, velocity=100, time=0),
    Message('note_on', channel=1, note=86, velocity=0, time=30),
    Message('note_on', channel=1, note=83, velocity=100, time=0),
    Message('note_on', channel=1, note=83, velocity=0, time=30),
    Message('note_on', channel=1, note=83, velocity=100, time=0),
    Message('note_on', channel=1, note=83, velocity=0, time=30),
    Message('note_on', channel=1, note=83, velocity=100, time=0),
    Message('note_on', channel=1, note=83, velocity=0, time=30),
    Message('note_on', channel=1, note=83, velocity=100, time=0),
    Message('note_on', channel=1, note=83, velocity=0, time=30),
    Message('note_on', channel=1, note=83, velocity=100, time=30),
    Message('note_on', channel=1, note=83, velocity=0, time=30),
    Message('note_on', channel=1, note=86, velocity=100, time=0),
    Message('note_on', channel=1, note=86, velocity=0, time=30),
    Message('note_on', channel=1, note=88, velocity=100, time=0),
    Message('note_on', channel=1, note=88, velocity=0, time=30),
    Message('note_on', channel=1, note=88, velocity=100, time=0),
    Message('note_on', channel=1, note=88, velocity=0, time=30),
    Message('note_on', channel=1, note=91, velocity=100, time=0),
    Message('note_on', channel=1, note=91, velocity=0, time=30),
    Message('note_on', channel=1, note=93, velocity=100, time=0),
    Message('note_on', channel=1, note=93, velocity=0, time=30),
    Message('note_on', channel=1, note=79, velocity=100, time=0),
    Message('note_on', channel=1, note=79, velocity=0, time=30),
    Message('note_on', channel=1, note=86, velocity=100, time=0),
    Message('note_on', channel=1, note=86, velocity=0, time=30),
    Message('note_on', channel=1, note=88, velocity=100, time=0),
    Message('note_on', channel=1, note=88, velocity=0, time=30),
    Message('note_on', channel=1, note=88, velocity=100, time=0),
    Message('note_on', channel=1, note=88, velocity=0, time=30),
    Message('note_on', channel=1, note=91, velocity=100, time=0),
    Message('note_on', channel=1, note=91, velocity=0, time=30),
    Message('note_on', channel=1, note=93, velocity=100, time=0),
    Message('note_on', channel=1, note=93, velocity=0, time=30),
    Message('note_on', channel=1, note=83, velocity=100, time=0),
    Message('note_on', channel=1, note=83, velocity=0, time=30),
    Message('note_on', channel=1, note=86, velocity=100, time=0),
    Message('note_on', channel=1, note=86, velocity=0, time=30),
    Message('note_on', channel=1, note=88, velocity=100, time=0),
    Message('note_on', channel=1, note=88, velocity=0, time=30),
    Message('note_on', channel=1, note=88, velocity=100, time=0),
    Message('note_on', channel=1, note=88, velocity=0, time=30),
    Message('note_on', channel=1, note=91, velocity=100, time=0),
    Message('note_on', channel=1, note=91, velocity=0, time=30),
    Message('note_on', channel=1, note=93, velocity=100, time=0),
    Message('note_on', channel=1, note=93, velocity=0, time=30),
    Message('note_on', channel=1, note=83, velocity=100, time=0),
    Message('note_on', channel=1, note=83, velocity=0, time=30),
    Message('note_on', channel=1, note=86, velocity=100, time=0),
    Message('note_on', channel=1, note=86, velocity=0, time=30),
    Message('note_on', channel=1, note=88, velocity=100, time=0),
    Message('note_on', channel=1, note=88, velocity=0, time=30),
    Message('note_on', channel=1, note=88, velocity=100, time=0),
    Message('note_on', channel=1, note=88, velocity=0, time=30),
    Message('note_on', channel=1, note=90, velocity=100, time=0),
    Message('note_on', channel=1, note=90, velocity=0, time=30),
    Message('note_on', channel=1, note=93, velocity=100, time=0),
    Message('note_on', channel=1, note=93, velocity=0, time=60),
    Message('note_on', channel=1, note=88, velocity=100, time=0),
    Message('note_on', channel=1, note=88, velocity=0, time=60),
    Message('pitchwheel', channel=1, pitch=0, time=0),
    Message('note_on', channel=1, note=95, velocity=100, time=0),
    Message('pitchwheel', channel=1, pitch=128, time=3),
    Message('pitchwheel', channel=1, pitch=256, time=3),
    Message('pitchwheel', channel=1, pitch=512, time=4),
    Message('pitchwheel', channel=1, pitch=640, time=1),
    Message('pitchwheel', channel=1, pitch=768, time=2),
    Message('pitchwheel', channel=1, pitch=896, time=2),
    Message('pitchwheel', channel=1, pitch=1280, time=1),
    Message('pitchwheel', channel=1, pitch=1408, time=2),
    Message('pitchwheel', channel=1, pitch=1664, time=2),
    Message('pitchwheel', channel=1, pitch=2048, time=1),
    Message('pitchwheel', channel=1, pitch=2304, time=2),
    Message('pitchwheel', channel=1, pitch=2816, time=2),
    Message('pitchwheel', channel=1, pitch=3200, time=1),
    Message('pitchwheel', channel=1, pitch=4096, time=2),
    Message('pitchwheel', channel=1, pitch=6656, time=2),
    Message('note_on', channel=1, note=95, velocity=0, time=120),
    Message('note_on', channel=1, note=91, velocity=100, time=0),
    Message('note_on', channel=1, note=91, velocity=0, time=30),
    Message('note_on', channel=1, note=88, velocity=100, time=0),
    Message('note_on', channel=1, note=88, velocity=0, time=30),
    Message('note_on', channel=1, note=88, velocity=100, time=0),
    Message('note_on', channel=1, note=88, velocity=0, time=30),
    Message('note_on', channel=1, note=93, velocity=100, time=0),
    Message('note_on', channel=1, note=93, velocity=0, time=30),
    Message('note_on', channel=1, note=91, velocity=100, time=0),
    Message('note_on', channel=1, note=91, velocity=0, time=30),
    Message('note_on', channel=1, note=88, velocity=100, time=0),
    Message('note_on', channel=1, note=88, velocity=0, time=30),
    Message('note_on', channel=1, note=88, velocity=100, time=0),
    Message('note_on', channel=1, note=88, velocity=0, time=30),
    Message('note_on', channel=1, note=86, velocity=100, time=0),
    Message('note_on', channel=1, note=86, velocity=0, time=30),
    Message('note_on', channel=1, note=83, velocity=100, time=0),
    Message('note_on', channel=1, note=83, velocity=0, time=30),
    Message('note_on', channel=1, note=88, velocity=100, time=0),
    Message('note_on', channel=1, note=88, velocity=0, time=30),
    Message('note_on', channel=1, note=86, velocity=100, time=0),
    Message('note_on', channel=1, note=86, velocity=0, time=30),
    Message('note_on', channel=1, note=82, velocity=100, time=0),
    Message('note_on', channel=1, note=82, velocity=0, time=30),
    Message('note_on', channel=1, note=82, velocity=100, time=0),
    Message('note_on', channel=1, note=82, velocity=0, time=30),
    Message('note_on', channel=1, note=81, velocity=100, time=0),
    Message('note_on', channel=1, note=81, velocity=0, time=30),
    Message('note_on', channel=1, note=79, velocity=100, time=0),
    Message('note_on', channel=1, note=79, velocity=0, time=30),
    Message('note_on', channel=1, note=76, velocity=100, time=0),
    Message('note_on', channel=1, note=76, velocity=0, time=120),
    Message('note_on', channel=1, note=76, velocity=100, time=0),
    Message('note_on', channel=1, note=76, velocity=0, time=30),
    Message('note_on', channel=1, note=76, velocity=100, time=0),
    Message('note_on', channel=1, note=76, velocity=0, time=30),
    Message('note_on', channel=1, note=76, velocity=100, time=0),
    Message('note_on', channel=1, note=76, velocity=0, time=30),
    Message('note_on', channel=1, note=76, velocity=100, time=0),
    Message('note_on', channel=1, note=76, velocity=0, time=30),
    Message('note_on', channel=1, note=76, velocity=100, time=0),
    Message('note_on', channel=1, note=76, velocity=0, time=30),
    Message('note_on', channel=1, note=76, velocity=100, time=0),
    Message('note_on', channel=1, note=76, velocity=0, time=30),
    Message('note_on', channel=1, note=86, velocity=100, time=0),
    Message('note_on', channel=1, note=86, velocity=0, time=60),
    Message('note_on', channel=1, note=86, velocity=100, time=0),
    Message('note_on', channel=1, note=86, velocity=0, time=30),
    Message('note_on', channel=1, note=83, velocity=100, time=0),
    Message('note_on', channel=1, note=83, velocity=0, time=30),
    Message('note_on', channel=1, note=82, velocity=100, time=0),
    Message('note_on', channel=1, note=82, velocity=0, time=30),
    Message('note_on', channel=1, note=83, velocity=100, time=0),
    Message('note_on', channel=1, note=83, velocity=0, time=30),
    Message('note_on', channel=1, note=86, velocity=100, time=0),
    Message('note_on', channel=1, note=86, velocity=0, time=30),
    Message('note_on', channel=1, note=83, velocity=100, time=0),
    Message('note_on', channel=1, note=83, velocity=0, time=30),
    Message('note_on', channel=1, note=88, velocity=100, time=0),
    Message('note_on', channel=1, note=88, velocity=0, time=30),
    Message('note_on', channel=1, note=83, velocity=100, time=0),
    Message('note_on', channel=1, note=83, velocity=0, time=30),
    Message('note_on', channel=1, note=82, velocity=100, time=0),
    Message('note_on', channel=1, note=82, velocity=0, time=30),
    Message('note_on', channel=1, note=83, velocity=100, time=0),
    Message('note_on', channel=1, note=83, velocity=0, time=30),
    Message('note_on', channel=1, note=86, velocity=100, time=0),
    Message('note_on', channel=1, note=86, velocity=0, time=30),
    Message('note_on', channel=1, note=83, velocity=100, time=0),
    Message('note_on', channel=1, note=83, velocity=0, time=30),
    Message('note_on', channel=1, note=88, velocity=100, time=0),
    Message('note_on', channel=1, note=88, velocity=0, time=30),
    Message('note_on', channel=1, note=83, velocity=100, time=0),
    Message('note_on', channel=1, note=83, velocity=0, time=30),
    Message('note_on', channel=1, note=82, velocity=100, time=0),
    Message('note_on', channel=1, note=82, velocity=0, time=30),
    Message('note_on', channel=1, note=83, velocity=100, time=0),
    Message('note_on', channel=1, note=83, velocity=0, time=30),
    Message('note_on', channel=1, note=86, velocity=100, time=0),
    Message('note_on', channel=1, note=86, velocity=0, time=30),
    Message('note_on', channel=1, note=83, velocity=100, time=0),
    Message('note_on', channel=1, note=83, velocity=0, time=30),
    Message('note_on', channel=1, note=82, velocity=100, time=0),
    Message('note_on', channel=1, note=82, velocity=0, time=30),
    Message('note_on', channel=1, note=83, velocity=100, time=0),
    Message('note_on', channel=1, note=83, velocity=0, time=30),
    Message('note_on', channel=1, note=86, velocity=100, time=0),
    Message('note_on', channel=1, note=86, velocity=0, time=30),
    Message('note_on', channel=1, note=83, velocity=100, time=0),
    Message('note_on', channel=1, note=83, velocity=0, time=30),
    Message('note_on', channel=1, note=88, velocity=100, time=0),
    Message('note_on', channel=1, note=88, velocity=0, time=30),
    Message('note_on', channel=1, note=83, velocity=100, time=0),
    Message('note_on', channel=1, note=83, velocity=0, time=30),
    Message('note_on', channel=1, note=82, velocity=100, time=0),
    Message('note_on', channel=1, note=82, velocity=0, time=30),
    Message('note_on', channel=1, note=83, velocity=100, time=0),
    Message('note_on', channel=1, note=83, velocity=0, time=30),
    Message('note_on', channel=1, note=86, velocity=100, time=0),
    Message('note_on', channel=1, note=86, velocity=0, time=30),
    Message('note_on', channel=1, note=83, velocity=100, time=0),
    Message('note_on', channel=1, note=83, velocity=0, time=30),
    Message('note_on', channel=1, note=88, velocity=100, time=0),
    Message('note_on', channel=1, note=88, velocity=0, time=30),
    Message('note_on', channel=1, note=83, velocity=100, time=0),
    Message('note_on', channel=1, note=83, velocity=0, time=30),
    Message('note_on', channel=1, note=82, velocity=100, time=0),
    Message('note_on', channel=1, note=82, velocity=0, time=30),
    Message('note_on', channel=1, note=83, velocity=100, time=0),
    Message('note_on', channel=1, note=83, velocity=0, time=30),
    Message('note_on', channel=1, note=86, velocity=100, time=0),
    Message('note_on', channel=1, note=86, velocity=0, time=30),
    Message('note_on', channel=1, note=83, velocity=100, time=0),
    Message('note_on', channel=1, note=83, velocity=0, time=30),
    Message('note_on', channel=1, note=82, velocity=100, time=0),
    Message('note_on', channel=1, note=82, velocity=0, time=30),
    Message('note_on', channel=1, note=83, velocity=100, time=0),
    Message('note_on', channel=1, note=83, velocity=0, time=30),
    Message('note_on', channel=1, note=86, velocity=100, time=0),
    Message('note_on', channel=1, note=86, velocity=0, time=30),
    Message('note_on', channel=1, note=83, velocity=100, time=0),
    Message('note_on', channel=1, note=83, velocity=0, time=30),
    Message('note_on', channel=1, note=88, velocity=100, time=0),
    Message('note_on', channel=1, note=88, velocity=0, time=30),
    Message('note_on', channel=1, note=83, velocity=100, time=0),
    Message('note_on', channel=1, note=83, velocity=0, time=30),
    Message('note_on', channel=1, note=82, velocity=100, time=0),
    Message('note_on', channel=1, note=82, velocity=0, time=30),
    Message('note_on', channel=1, note=83, velocity=100, time=0),
    Message('note_on', channel=1, note=83, velocity=0, time=30),
    Message('note_on', channel=1, note=86, velocity=100, time=0),
    Message('note_on', channel=1, note=86, velocity=0, time=30),
    Message('note_on', channel=1, note=83, velocity=100, time=0),
    Message('note_on', channel=1, note=83, velocity=0, time=30),
    Message('note_on', channel=1, note=88, velocity=100, time=0),
    Message('note_on', channel=1, note=88, velocity=0, time=30),
    Message('note_on', channel=1, note=83, velocity=100, time=0),
    Message('note_on', channel=1, note=83, velocity=0, time=30),
    Message('note_on', channel=1, note=82, velocity=100, time=0),
    Message('note_on', channel=1, note=82, velocity=0, time=30),
    Message('note_on', channel=1, note=83, velocity=100, time=0),
    Message('note_on', channel=1, note=83, velocity=0, time=30),
    Message('note_on', channel=1, note=86, velocity=100, time=0),
    Message('note_on', channel=1, note=86, velocity=0, time=30),
    Message('note_on', channel=1, note=83, velocity=100, time=0),
    Message('note_on', channel=1, note=83, velocity=0, time=30),
    Message('note_on', channel=1, note=82, velocity=100, time=0),
    Message('note_on', channel=1, note=82, velocity=0, time=30),
    Message('note_on', channel=1, note=83, velocity=100, time=0),
    Message('note_on', channel=1, note=83, velocity=0, time=30),
    Message('note_on', channel=1, note=86, velocity=100, time=0),
    Message('note_on', channel=1, note=86, velocity=0, time=30),
    Message('note_on', channel=1, note=83, velocity=100, time=0),
    Message('note_on', channel=1, note=83, velocity=0, time=30),
    Message('note_on', channel=1, note=88, velocity=100, time=0),
    Message('note_on', channel=1, note=88, velocity=0, time=30),
    Message('note_on', channel=1, note=83, velocity=100, time=0),
    Message('note_on', channel=1, note=83, velocity=0, time=30),
    Message('note_on', channel=1, note=82, velocity=100, time=0),
    Message('note_on', channel=1, note=82, velocity=0, time=30),
    Message('note_on', channel=1, note=83, velocity=100, time=0),
    Message('note_on', channel=1, note=83, velocity=0, time=30),
    Message('note_on', channel=1, note=86, velocity=100, time=0),
    Message('note_on', channel=1, note=86, velocity=0, time=30),
    Message('note_on', channel=1, note=83, velocity=100, time=0),
    Message('note_on', channel=1, note=83, velocity=0, time=30),
    Message('note_on', channel=1, note=88, velocity=100, time=0),
    Message('note_on', channel=1, note=88, velocity=0, time=30),
    Message('note_on', channel=1, note=83, velocity=100, time=0),
    Message('note_on', channel=1, note=83, velocity=0, time=30),
    Message('note_on', channel=1, note=82, velocity=100, time=0),
    Message('note_on', channel=1, note=82, velocity=0, time=30),
    Message('note_on', channel=1, note=83, velocity=100, time=0),
    Message('note_on', channel=1, note=83, velocity=0, time=30),
    Message('note_on', channel=1, note=86, velocity=100, time=0),
    Message('note_on', channel=1, note=86, velocity=0, time=30),
    Message('note_on', channel=1, note=83, velocity=100, time=0),
    Message('note_on', channel=1, note=83, velocity=0, time=30),
    Message('note_on', channel=1, note=83, velocity=100, time=0),
    Message('note_on', channel=1, note=83, velocity=0, time=30),
    Message('note_on', channel=1, note=83, velocity=100, time=0),
    Message('note_on', channel=1, note=83, velocity=0, time=30),
    Message('note_on', channel=1, note=88, velocity=100, time=0),
    Message('note_on', channel=1, note=88, velocity=0, time=30),
    Message('note_on', channel=1, note=83, velocity=100, time=0),
    Message('note_on', channel=1, note=83, velocity=0, time=30),
    Message('note_on', channel=1, note=83, velocity=100, time=0),
    Message('note_on', channel=1, note=83, velocity=0, time=30),
    Message('note_on', channel=1, note=83, velocity=100, time=0),
    Message('note_on', channel=1, note=83, velocity=0, time=30),
    Message('note_on', channel=1, note=86, velocity=100, time=0),
    Message('note_on', channel=1, note=86, velocity=0, time=30),
    Message('note_on', channel=1, note=83, velocity=100, time=0),
    Message('note_on', channel=1, note=83, velocity=0, time=30),
    Message('note_on', channel=1, note=83, velocity=100, time=0),
    Message('note_on', channel=1, note=83, velocity=0, time=30),
    Message('note_on', channel=1, note=83, velocity=100, time=0),
    Message('note_on', channel=1, note=83, velocity=0, time=30),
    Message('note_on', channel=1, note=88, velocity=100, time=0),
    Message('note_on', channel=1, note=88, velocity=0, time=30),
    Message('note_on', channel=1, note=83, velocity=100, time=0),
    Message('note_on', channel=1, note=83, velocity=0, time=30),
    Message('note_on', channel=1, note=83, velocity=100, time=0),
    Message('note_on', channel=1, note=83, velocity=0, time=30),
    Message('note_on', channel=1, note=83, velocity=100, time=0),
    Message('note_on', channel=1, note=83, velocity=0, time=30),
    Message('note_on', channel=1, note=86, velocity=100, time=0),
    Message('note_on', channel=1, note=86, velocity=0, time=30),
    Message('note_on', channel=1, note=83, velocity=100, time=0),
    Message('note_on', channel=1, note=83, velocity=0, time=30),
    Message('note_on', channel=1, note=83, velocity=100, time=0),
    Message('note_on', channel=1, note=83, velocity=0, time=30),
    Message('note_on', channel=1, note=83, velocity=100, time=0),
    Message('note_on', channel=1, note=83, velocity=0, time=30),
    Message('note_on', channel=1, note=88, velocity=100, time=0),
    Message('note_on', channel=1, note=88, velocity=0, time=30),
    Message('note_on', channel=1, note=83, velocity=100, time=0),
    Message('note_on', channel=1, note=83, velocity=0, time=30),
    Message('note_on', channel=1, note=83, velocity=100, time=0),
    Message('note_on', channel=1, note=83, velocity=0, time=30),
    Message('note_on', channel=1, note=83, velocity=100, time=0),
    Message('note_on', channel=1, note=83, velocity=0, time=30),
    Message('note_on', channel=1, note=86, velocity=100, time=0),
    Message('note_on', channel=1, note=86, velocity=0, time=30),
    Message('note_on', channel=1, note=83, velocity=100, time=0),
    Message('note_on', channel=1, note=83, velocity=0, time=30),
    Message('note_on', channel=1, note=83, velocity=100, time=0),
    Message('note_on', channel=1, note=83, velocity=0, time=30),
    Message('note_on', channel=1, note=83, velocity=100, time=0),
    Message('note_on', channel=1, note=83, velocity=0, time=30),
    Message('note_on', channel=1, note=88, velocity=100, time=0),
    Message('note_on', channel=1, note=88, velocity=0, time=30),
    Message('note_on', channel=1, note=83, velocity=100, time=0),
    Message('note_on', channel=1, note=83, velocity=0, time=30),
    Message('note_on', channel=1, note=83, velocity=100, time=0),
    Message('note_on', channel=1, note=83, velocity=0, time=30),
    Message('note_on', channel=1, note=83, velocity=100, time=0),
    Message('note_on', channel=1, note=83, velocity=0, time=30),
    Message('note_on', channel=1, note=88, velocity=100, time=0),
    Message('note_on', channel=1, note=88, velocity=0, time=30),
    Message('note_on', channel=1, note=86, velocity=100, time=0),
    Message('note_on', channel=1, note=86, velocity=0, time=30),
    Message('note_on', channel=1, note=83, velocity=100, time=0),
    Message('note_on', channel=1, note=83, velocity=0, time=30),
    Message('note_on', channel=1, note=81, velocity=100, time=0),
    Message('note_on', channel=1, note=81, velocity=0, time=30),
    Message('note_on', channel=1, note=83, velocity=100, time=0),
    Message('note_on', channel=1, note=83, velocity=0, time=30),
    Message('note_on', channel=1, note=88, velocity=100, time=0),
    Message('note_on', channel=1, note=88, velocity=0, time=30),
    Message('note_on', channel=1, note=86, velocity=100, time=0),
    Message('note_on', channel=1, note=86, velocity=0, time=30),
    Message('note_on', channel=1, note=83, velocity=100, time=0),
    Message('note_on', channel=1, note=83, velocity=0, time=30),
    Message('note_on', channel=1, note=81, velocity=100, time=0),
    Message('note_on', channel=1, note=81, velocity=0, time=30),
    Message('note_on', channel=1, note=83, velocity=100, time=0),
    Message('note_on', channel=1, note=83, velocity=0, time=30),
    Message('note_on', channel=1, note=88, velocity=100, time=0),
    Message('note_on', channel=1, note=88, velocity=0, time=30),
    Message('note_on', channel=1, note=86, velocity=100, time=0),
    Message('note_on', channel=1, note=86, velocity=0, time=30),
    Message('note_on', channel=1, note=83, velocity=100, time=0),
    Message('note_on', channel=1, note=83, velocity=0, time=30),
    Message('note_on', channel=1, note=81, velocity=100, time=0),
    Message('note_on', channel=1, note=81, velocity=0, time=30),
    Message('note_on', channel=1, note=83, velocity=100, time=0),
    Message('note_on', channel=1, note=83, velocity=0, time=30),
    Message('note_on', channel=1, note=88, velocity=100, time=0),
    Message('note_on', channel=1, note=88, velocity=0, time=30),
    Message('note_on', channel=1, note=86, velocity=100, time=0),
    Message('note_on', channel=1, note=86, velocity=0, time=30),
    Message('note_on', channel=1, note=83, velocity=100, time=0),
    Message('note_on', channel=1, note=83, velocity=0, time=30),
    Message('note_on', channel=1, note=81, velocity=100, time=0),
    Message('note_on', channel=1, note=81, velocity=0, time=30),
    Message('note_on', channel=1, note=83, velocity=100, time=0),
    Message('note_on', channel=1, note=83, velocity=0, time=30),
    Message('note_on', channel=1, note=88, velocity=100, time=0),
    Message('note_on', channel=1, note=88, velocity=0, time=30),
    Message('note_on', channel=1, note=86, velocity=100, time=0),
    Message('note_on', channel=1, note=86, velocity=0, time=30),
    Message('note_on', channel=1, note=83, velocity=100, time=0),
    Message('note_on', channel=1, note=83, velocity=0, time=30),
    Message('note_on', channel=1, note=81, velocity=100, time=0),
    Message('note_on', channel=1, note=81, velocity=0, time=30),
    Message('note_on', channel=1, note=83, velocity=100, time=0),
    Message('note_on', channel=1, note=83, velocity=0, time=30),
    Message('note_on', channel=1, note=88, velocity=100, time=0),
    Message('note_on', channel=1, note=88, velocity=0, time=30),
    Message('note_on', channel=1, note=86, velocity=100, time=0),
    Message('note_on', channel=1, note=86, velocity=0, time=30),
    Message('note_on', channel=1, note=83, velocity=100, time=0),
    Message('note_on', channel=1, note=83, velocity=0, time=30),
    Message('note_on', channel=1, note=81, velocity=100, time=0),
    Message('note_on', channel=1, note=81, velocity=0, time=60),
    Message('note_on', channel=1, note=83, velocity=100, time=0),
    Message('note_on', channel=1, note=83, velocity=0, time=60),
    Message('note_on', channel=1, note=88, velocity=100, time=0),
    Message('note_on', channel=1, note=88, velocity=0, time=30),
    Message('note_on', channel=1, note=86, velocity=100, time=0),
    Message('note_on', channel=1, note=86, velocity=0, time=30),
    Message('note_on', channel=1, note=83, velocity=100, time=0),
    Message('note_on', channel=1, note=83, velocity=0, time=30),
    Message('note_on', channel=1, note=79, velocity=100, time=0),
    Message('note_on', channel=1, note=79, velocity=0, time=30),
    Message('note_on', channel=1, note=88, velocity=100, time=0),
    Message('note_on', channel=1, note=88, velocity=0, time=30),
    Message('note_on', channel=1, note=86, velocity=100, time=0),
    Message('note_on', channel=1, note=86, velocity=0, time=30),
    Message('note_on', channel=1, note=83, velocity=100, time=0),
    Message('note_on', channel=1, note=83, velocity=0, time=30),
    Message('note_on', channel=1, note=79, velocity=100, time=0),
    Message('note_on', channel=1, note=79, velocity=0, time=30),
    Message('note_on', channel=1, note=88, velocity=100, time=0),
    Message('note_on', channel=1, note=88, velocity=0, time=30),
    Message('note_on', channel=1, note=86, velocity=100, time=0),
    Message('note_on', channel=1, note=86, velocity=0, time=30),
    Message('note_on', channel=1, note=83, velocity=100, time=0),
    Message('note_on', channel=1, note=83, velocity=0, time=30),
    Message('note_on', channel=1, note=79, velocity=100, time=0),
    Message('note_on', channel=1, note=79, velocity=0, time=30),
    Message('note_on', channel=1, note=88, velocity=100, time=0),
    Message('note_on', channel=1, note=88, velocity=0, time=30),
    Message('note_on', channel=1, note=86, velocity=100, time=0),
    Message('note_on', channel=1, note=86, velocity=0, time=30),
    Message('note_on', channel=1, note=83, velocity=100, time=0),
    Message('note_on', channel=1, note=83, velocity=0, time=30),
    Message('note_on', channel=1, note=79, velocity=100, time=0),
    Message('note_on', channel=1, note=79, velocity=0, time=30),
    Message('note_on', channel=1, note=89, velocity=100, time=0),
    Message('note_on', channel=1, note=89, velocity=0, time=30),
    Message('note_on', channel=1, note=87, velocity=100, time=0),
    Message('note_on', channel=1, note=87, velocity=0, time=30),
    Message('note_on', channel=1, note=84, velocity=100, time=0),
    Message('note_on', channel=1, note=84, velocity=0, time=30),
    Message('note_on', channel=1, note=80, velocity=100, time=0),
    Message('note_on', channel=1, note=80, velocity=0, time=30),
    Message('note_on', channel=1, note=89, velocity=100, time=0),
    Message('note_on', channel=1, note=89, velocity=0, time=30),
    Message('note_on', channel=1, note=87, velocity=100, time=0),
    Message('note_on', channel=1, note=87, velocity=0, time=30),
    Message('note_on', channel=1, note=84, velocity=100, time=0),
    Message('note_on', channel=1, note=84, velocity=0, time=30),
    Message('note_on', channel=1, note=80, velocity=100, time=0),
    Message('note_on', channel=1, note=80, velocity=0, time=30),
    Message('note_on', channel=1, note=89, velocity=100, time=0),
    Message('note_on', channel=1, note=89, velocity=0, time=30),
    Message('note_on', channel=1, note=87, velocity=100, time=0),
    Message('note_on', channel=1, note=87, velocity=0, time=30),
    Message('note_on', channel=1, note=84, velocity=100, time=0),
    Message('note_on', channel=1, note=84, velocity=0, time=30),
    Message('note_on', channel=1, note=80, velocity=100, time=0),
    Message('note_on', channel=1, note=80, velocity=0, time=30),
    Message('note_on', channel=1, note=89, velocity=100, time=0),
    Message('note_on', channel=1, note=89, velocity=0, time=30),
    Message('note_on', channel=1, note=87, velocity=100, time=0),
    Message('note_on', channel=1, note=87, velocity=0, time=30),
    Message('note_on', channel=1, note=84, velocity=100, time=0),
    Message('note_on', channel=1, note=84, velocity=0, time=30),
    Message('note_on', channel=1, note=80, velocity=100, time=0),
    Message('note_on', channel=1, note=80, velocity=0, time=30),
    Message('note_on', channel=1, note=90, velocity=100, time=0),
    Message('note_on', channel=1, note=90, velocity=0, time=30),
    Message('note_on', channel=1, note=88, velocity=100, time=0),
    Message('note_on', channel=1, note=88, velocity=0, time=30),
    Message('note_on', channel=1, note=85, velocity=100, time=0),
    Message('note_on', channel=1, note=85, velocity=0, time=30),
    Message('note_on', channel=1, note=81, velocity=100, time=0),
    Message('note_on', channel=1, note=81, velocity=0, time=30),
    Message('note_on', channel=1, note=90, velocity=100, time=0),
    Message('note_on', channel=1, note=90, velocity=0, time=30),
    Message('note_on', channel=1, note=88, velocity=100, time=0),
    Message('note_on', channel=1, note=88, velocity=0, time=30),
    Message('note_on', channel=1, note=85, velocity=100, time=0),
    Message('note_on', channel=1, note=85, velocity=0, time=30),
    Message('note_on', channel=1, note=81, velocity=100, time=0),
    Message('note_on', channel=1, note=81, velocity=0, time=30),
    Message('note_on', channel=1, note=90, velocity=100, time=0),
    Message('note_on', channel=1, note=90, velocity=0, time=30),
    Message('note_on', channel=1, note=88, velocity=100, time=0),
    Message('note_on', channel=1, note=88, velocity=0, time=30),
    Message('note_on', channel=1, note=85, velocity=100, time=0),
    Message('note_on', channel=1, note=85, velocity=0, time=30),
    Message('note_on', channel=1, note=81, velocity=100, time=0),
    Message('note_on', channel=1, note=81, velocity=0, time=30),
    Message('note_on', channel=1, note=90, velocity=100, time=0),
    Message('note_on', channel=1, note=90, velocity=0, time=30),
    Message('note_on', channel=1, note=88, velocity=100, time=0),
    Message('note_on', channel=1, note=88, velocity=0, time=30),
    Message('note_on', channel=1, note=85, velocity=100, time=0),
    Message('note_on', channel=1, note=85, velocity=0, time=30),
    Message('note_on', channel=1, note=81, velocity=100, time=0),
    Message('note_on', channel=1, note=81, velocity=0, time=30),
    Message('note_on', channel=1, note=91, velocity=100, time=0),
    Message('note_on', channel=1, note=91, velocity=0, time=30),
    Message('note_on', channel=1, note=89, velocity=100, time=0),
    Message('note_on', channel=1, note=89, velocity=0, time=30),
    Message('note_on', channel=1, note=86, velocity=100, time=0),
    Message('note_on', channel=1, note=86, velocity=0, time=30),
    Message('note_on', channel=1, note=82, velocity=100, time=0),
    Message('note_on', channel=1, note=82, velocity=0, time=30),
    Message('note_on', channel=1, note=91, velocity=100, time=0),
    Message('note_on', channel=1, note=91, velocity=0, time=30),
    Message('note_on', channel=1, note=89, velocity=100, time=0),
    Message('note_on', channel=1, note=89, velocity=0, time=30),
    Message('note_on', channel=1, note=86, velocity=100, time=0),
    Message('note_on', channel=1, note=86, velocity=0, time=30),
    Message('note_on', channel=1, note=82, velocity=100, time=0),
    Message('note_on', channel=1, note=82, velocity=0, time=30),
    Message('note_on', channel=1, note=91, velocity=100, time=0),
    Message('note_on', channel=1, note=91, velocity=0, time=30),
    Message('note_on', channel=1, note=89, velocity=100, time=0),
    Message('note_on', channel=1, note=89, velocity=0, time=30),
    Message('note_on', channel=1, note=86, velocity=100, time=0),
    Message('note_on', channel=1, note=86, velocity=0, time=30),
    Message('note_on', channel=1, note=82, velocity=100, time=0),
    Message('note_on', channel=1, note=82, velocity=0, time=30),
    Message('note_on', channel=1, note=91, velocity=100, time=0),
    Message('note_on', channel=1, note=91, velocity=0, time=30),
    Message('note_on', channel=1, note=89, velocity=100, time=0),
    Message('note_on', channel=1, note=89, velocity=0, time=30),
    Message('note_on', channel=1, note=86, velocity=100, time=0),
    Message('note_on', channel=1, note=86, velocity=0, time=30),
    Message('note_on', channel=1, note=82, velocity=100, time=0),
    Message('note_on', channel=1, note=82, velocity=0, time=30),
    Message('note_on', channel=1, note=92, velocity=100, time=0),
    Message('note_on', channel=1, note=92, velocity=0, time=30),
    Message('note_on', channel=1, note=90, velocity=100, time=0),
    Message('note_on', channel=1, note=90, velocity=0, time=30),
    Message('note_on', channel=1, note=87, velocity=100, time=0),
    Message('note_on', channel=1, note=87, velocity=0, time=30),
    Message('note_on', channel=1, note=83, velocity=100, time=0),
    Message('note_on', channel=1, note=83, velocity=0, time=30),
    Message('note_on', channel=1, note=92, velocity=100, time=0),
    Message('note_on', channel=1, note=92, velocity=0, time=30),
    Message('note_on', channel=1, note=90, velocity=100, time=0),
    Message('note_on', channel=1, note=90, velocity=0, time=30),
    Message('note_on', channel=1, note=87, velocity=100, time=0),
    Message('note_on', channel=1, note=87, velocity=0, time=30),
    Message('note_on', channel=1, note=83, velocity=100, time=0),
    Message('note_on', channel=1, note=83, velocity=0, time=30),
    Message('note_on', channel=1, note=93, velocity=100, time=0),
    Message('note_on', channel=1, note=93, velocity=0, time=30),
    Message('note_on', channel=1, note=91, velocity=100, time=0),
    Message('note_on', channel=1, note=91, velocity=0, time=30),
    Message('note_on', channel=1, note=88, velocity=100, time=0),
    Message('note_on', channel=1, note=88, velocity=0, time=30),
    Message('note_on', channel=1, note=84, velocity=100, time=0),
    Message('note_on', channel=1, note=84, velocity=0, time=30),
    Message('note_on', channel=1, note=93, velocity=100, time=0),
    Message('note_on', channel=1, note=93, velocity=0, time=30),
    Message('note_on', channel=1, note=91, velocity=100, time=0),
    Message('note_on', channel=1, note=91, velocity=0, time=30),
    Message('note_on', channel=1, note=88, velocity=100, time=0),
    Message('note_on', channel=1, note=88, velocity=0, time=30),
    Message('note_on', channel=1, note=84, velocity=100, time=0),
    Message('note_on', channel=1, note=84, velocity=0, time=30),
    Message('note_on', channel=1, note=94, velocity=100, time=0),
    Message('note_on', channel=1, note=94, velocity=0, time=30),
    Message('note_on', channel=1, note=92, velocity=100, time=0),
    Message('note_on', channel=1, note=92, velocity=0, time=30),
    Message('note_on', channel=1, note=89, velocity=100, time=0),
    Message('note_on', channel=1, note=89, velocity=0, time=30),
    Message('note_on', channel=1, note=85, velocity=100, time=0),
    Message('note_on', channel=1, note=85, velocity=0, time=30),
    Message('note_on', channel=1, note=94, velocity=100, time=0),
    Message('note_on', channel=1, note=94, velocity=0, time=30),
    Message('note_on', channel=1, note=92, velocity=100, time=0),
    Message('note_on', channel=1, note=92, velocity=0, time=30),
    Message('note_on', channel=1, note=89, velocity=100, time=0),
    Message('note_on', channel=1, note=89, velocity=0, time=30),
    Message('note_on', channel=1, note=85, velocity=100, time=0),
    Message('note_on', channel=1, note=85, velocity=0, time=30),
    Message('note_on', channel=1, note=95, velocity=100, time=0),
    Message('note_on', channel=1, note=95, velocity=0, time=30),
    Message('note_on', channel=1, note=93, velocity=100, time=0),
    Message('note_on', channel=1, note=93, velocity=0, time=30),
    Message('note_on', channel=1, note=90, velocity=100, time=0),
    Message('note_on', channel=1, note=90, velocity=0, time=30),
    Message('note_on', channel=1, note=86, velocity=100, time=0),
    Message('note_on', channel=1, note=86, velocity=0, time=30),
    Message('note_on', channel=1, note=95, velocity=100, time=0),
    Message('note_on', channel=1, note=95, velocity=0, time=30),
    Message('note_on', channel=1, note=93, velocity=100, time=0),
    Message('note_on', channel=1, note=93, velocity=0, time=30),
    Message('note_on', channel=1, note=90, velocity=100, time=0),
    Message('note_on', channel=1, note=90, velocity=0, time=30),
    Message('note_on', channel=1, note=86, velocity=100, time=0),
    Message('note_on', channel=1, note=86, velocity=0, time=30),
    Message('pitchwheel', channel=1, pitch=1024, time=0),
    Message('note_on', channel=1, note=100, velocity=100, time=0),
    Message('pitchwheel', channel=1, pitch=1280, time=1),
    Message('pitchwheel', channel=1, pitch=1664, time=2),
    Message('pitchwheel', channel=1, pitch=2304, time=2),
    Message('pitchwheel', channel=1, pitch=3456, time=1),
    Message('pitchwheel', channel=1, pitch=3968, time=2),
    Message('pitchwheel', channel=1, pitch=5504, time=2),
    Message('pitchwheel', channel=1, pitch=7552, time=1),
    Message('pitchwheel', channel=1, pitch=8064, time=2),
    Message('pitchwheel', channel=1, pitch=7808, time=2),
    Message('note_on', channel=1, note=100, velocity=0, time=225),
    Message('pitchwheel', channel=1, pitch=0, time=0),
    Message('note_on', channel=1, note=100, velocity=100, time=0),
    Message('pitchwheel', channel=1, pitch=128, time=1),
    Message('pitchwheel', channel=1, pitch=256, time=2),
    Message('pitchwheel', channel=1, pitch=384, time=2),
    Message('pitchwheel', channel=1, pitch=512, time=1),
    Message('pitchwheel', channel=1, pitch=640, time=2),
    Message('pitchwheel', channel=1, pitch=896, time=2),
    Message('pitchwheel', channel=1, pitch=1280, time=1),
    Message('pitchwheel', channel=1, pitch=1408, time=2),
    Message('pitchwheel', channel=1, pitch=1920, time=2),
    Message('pitchwheel', channel=1, pitch=5504, time=1),
    Message('pitchwheel', channel=1, pitch=8191, time=2),
    Message('note_on', channel=1, note=100, velocity=0, time=222),
    Message('note_on', channel=1, note=100, velocity=100, time=0),
    Message('pitchwheel', channel=1, pitch=768, time=1),
    Message('pitchwheel', channel=1, pitch=1664, time=2),
    Message('pitchwheel', channel=1, pitch=1792, time=2),
    Message('pitchwheel', channel=1, pitch=2048, time=1),
    Message('pitchwheel', channel=1, pitch=2304, time=2),
    Message('pitchwheel', channel=1, pitch=2560, time=2),
    Message('pitchwheel', channel=1, pitch=2816, time=1),
    Message('pitchwheel', channel=1, pitch=3584, time=2),
    Message('pitchwheel', channel=1, pitch=4864, time=2),
    Message('pitchwheel', channel=1, pitch=5888, time=1),
    Message('pitchwheel', channel=1, pitch=8191, time=2),
    Message('note_on', channel=1, note=100, velocity=0, time=62),
    Message('pitchwheel', channel=1, pitch=0, time=0),
    Message('note_on', channel=1, note=100, velocity=100, time=0),
    Message('pitchwheel', channel=1, pitch=128, time=3),
    Message('pitchwheel', channel=1, pitch=256, time=2),
    Message('pitchwheel', channel=1, pitch=384, time=1),
    Message('pitchwheel', channel=1, pitch=640, time=2),
    Message('pitchwheel', channel=1, pitch=768, time=2),
    Message('pitchwheel', channel=1, pitch=1280, time=1),
    Message('pitchwheel', channel=1, pitch=1792, time=2),
    Message('pitchwheel', channel=1, pitch=3456, time=2),
    Message('pitchwheel', channel=1, pitch=5248, time=1),
    Message('pitchwheel', channel=1, pitch=7296, time=2),
    Message('pitchwheel', channel=1, pitch=8191, time=2),
    Message('note_on', channel=1, note=100, velocity=0, time=60),
    Message('pitchwheel', channel=1, pitch=0, time=0),
    Message('note_on', channel=1, note=100, velocity=100, time=0),
    Message('pitchwheel', channel=1, pitch=256, time=1),
    Message('pitchwheel', channel=1, pitch=512, time=2),
    Message('pitchwheel', channel=1, pitch=768, time=2),
    Message('pitchwheel', channel=1, pitch=1536, time=1),
    Message('pitchwheel', channel=1, pitch=2304, time=2),
    Message('pitchwheel', channel=1, pitch=6144, time=2),
    Message('pitchwheel', channel=1, pitch=8064, time=1),
    Message('note_on', channel=1, note=100, velocity=0, time=69),
    Message('pitchwheel', channel=1, pitch=384, time=0),
    Message('note_on', channel=1, note=100, velocity=100, time=0),
    Message('pitchwheel', channel=1, pitch=640, time=1),
    Message('pitchwheel', channel=1, pitch=1024, time=2),
    Message('pitchwheel', channel=1, pitch=1280, time=2),
    Message('pitchwheel', channel=1, pitch=1536, time=1),
    Message('pitchwheel', channel=1, pitch=1920, time=2),
    Message('pitchwheel', channel=1, pitch=2048, time=2),
    Message('pitchwheel', channel=1, pitch=2176, time=1),
    Message('pitchwheel', channel=1, pitch=2560, time=2),
    Message('pitchwheel', channel=1, pitch=3072, time=2),
    Message('pitchwheel', channel=1, pitch=3712, time=1),
    Message('pitchwheel', channel=1, pitch=4096, time=2),
    Message('pitchwheel', channel=1, pitch=8191, time=2),
    Message('note_on', channel=1, note=100, velocity=0, time=60),
    Message('pitchwheel', channel=1, pitch=0, time=0),
    Message('note_on', channel=1, note=100, velocity=100, time=0),
    Message('pitchwheel', channel=1, pitch=128, time=3),
    Message('pitchwheel', channel=1, pitch=256, time=2),
    Message('pitchwheel', channel=1, pitch=384, time=1),
    Message('pitchwheel', channel=1, pitch=512, time=2),
    Message('pitchwheel', channel=1, pitch=768, time=2),
    Message('pitchwheel', channel=1, pitch=1024, time=1),
    Message('pitchwheel', channel=1, pitch=1536, time=2),
    Message('pitchwheel', channel=1, pitch=1920, time=2),
    Message('pitchwheel', channel=1, pitch=2688, time=1),
    Message('pitchwheel', channel=1, pitch=3456, time=2),
    Message('pitchwheel', channel=1, pitch=5248, time=2),
    Message('pitchwheel', channel=1, pitch=5888, time=1),
    Message('pitchwheel', channel=1, pitch=6400, time=2),
    Message('pitchwheel', channel=1, pitch=7808, time=2),
    Message('pitchwheel', channel=1, pitch=8191, time=1),
    Message('note_on', channel=1, note=100, velocity=0, time=54),
    Message('note_on', channel=1, note=52, velocity=100, time=80),
    Message('note_on', channel=1, note=52, velocity=0, time=3840),
    Message('note_on', channel=1, note=67, velocity=100, time=0),
    Message('note_on', channel=1, note=67, velocity=0, time=80),
    Message('note_on', channel=1, note=74, velocity=100, time=0),
    Message('note_on', channel=1, note=74, velocity=0, time=80),
    Message('note_on', channel=1, note=67, velocity=100, time=0),
    Message('note_on', channel=1, note=67, velocity=0, time=80),
    Message('note_on', channel=1, note=64, velocity=100, time=0),
    Message('note_on', channel=1, note=64, velocity=0, time=80),
    Message('note_on', channel=1, note=67, velocity=100, time=0),
    Message('note_on', channel=1, note=67, velocity=0, time=80),
    Message('note_on', channel=1, note=74, velocity=100, time=0),
    Message('note_on', channel=1, note=74, velocity=0, time=80),
    Message('note_on', channel=1, note=69, velocity=100, time=0),
    Message('note_on', channel=1, note=69, velocity=0, time=80),
    Message('note_on', channel=1, note=76, velocity=100, time=0),
    Message('note_on', channel=1, note=76, velocity=0, time=80),
    Message('note_on', channel=1, note=64, velocity=100, time=0),
    Message('note_on', channel=1, note=64, velocity=0, time=80),
    Message('note_on', channel=1, note=63, velocity=100, time=0),
    Message('note_on', channel=1, note=63, velocity=0, time=80),
    Message('note_on', channel=1, note=59, velocity=100, time=0),
    Message('note_on', channel=1, note=59, velocity=0, time=80),
    Message('note_on', channel=1, note=59, velocity=100, time=0),
    Message('note_on', channel=1, note=59, velocity=0, time=80),
    Message('pitchwheel', channel=1, pitch=128, time=0),
    Message('note_on', channel=1, note=64, velocity=100, time=0),
    Message('pitchwheel', channel=1, pitch=256, time=3),
    Message('pitchwheel', channel=1, pitch=512, time=3),
    Message('pitchwheel', channel=1, pitch=768, time=2),
    Message('pitchwheel', channel=1, pitch=896, time=3),
    Message('pitchwheel', channel=1, pitch=1152, time=2),
    Message('pitchwheel', channel=1, pitch=1664, time=2),
    Message('pitchwheel', channel=1, pitch=2304, time=1),
    Message('pitchwheel', channel=1, pitch=3328, time=2),
    Message('pitchwheel', channel=1, pitch=3840, time=2),
    Message('pitchwheel', channel=1, pitch=4608, time=1),
    Message('pitchwheel', channel=1, pitch=5632, time=2),
    Message('pitchwheel', channel=1, pitch=6912, time=2),
    Message('pitchwheel', channel=1, pitch=8191, time=1),
    Message('note_on', channel=1, note=64, velocity=0, time=934),
    Message('note_on', channel=1, note=67, velocity=100, time=0),
    Message('note_on', channel=1, note=67, velocity=0, time=80),
    Message('note_on', channel=1, note=74, velocity=100, time=0),
    Message('note_on', channel=1, note=74, velocity=0, time=80),
    Message('note_on', channel=1, note=67, velocity=100, time=0),
    Message('note_on', channel=1, note=67, velocity=0, time=80),
    Message('note_on', channel=1, note=64, velocity=100, time=0),
    Message('note_on', channel=1, note=64, velocity=0, time=80),
    Message('note_on', channel=1, note=67, velocity=100, time=0),
    Message('note_on', channel=1, note=67, velocity=0, time=80),
    Message('note_on', channel=1, note=74, velocity=100, time=0),
    Message('note_on', channel=1, note=74, velocity=0, time=80),
    Message('note_on', channel=1, note=63, velocity=100, time=0),
    Message('note_on', channel=1, note=63, velocity=0, time=80),
    Message('note_on', channel=1, note=66, velocity=100, time=0),
    Message('note_on', channel=1, note=66, velocity=0, time=80),
    Message('note_on', channel=1, note=75, velocity=100, time=0),
    Message('note_on', channel=1, note=75, velocity=0, time=80),
    Message('note_on', channel=1, note=62, velocity=100, time=0),
    Message('note_on', channel=1, note=62, velocity=0, time=80),
    Message('note_on', channel=1, note=65, velocity=100, time=0),
    Message('note_on', channel=1, note=65, velocity=0, time=80),
    Message('note_on', channel=1, note=74, velocity=100, time=0),
    Message('pitchwheel', channel=1, pitch=128, time=78),
    Message('note_on', channel=1, note=74, velocity=0, time=2),
    Message('note_on', channel=1, note=64, velocity=100, time=0),
    Message('pitchwheel', channel=1, pitch=256, time=5),
    Message('pitchwheel', channel=1, pitch=384, time=1),
    Message('pitchwheel', channel=1, pitch=512, time=4),
    Message('pitchwheel', channel=1, pitch=640, time=1),
    Message('pitchwheel', channel=1, pitch=768, time=2),
    Message('pitchwheel', channel=1, pitch=896, time=2),
    Message('pitchwheel', channel=1, pitch=1152, time=1),
    Message('pitchwheel', channel=1, pitch=1280, time=2),
    Message('pitchwheel', channel=1, pitch=1536, time=2),
    Message('pitchwheel', channel=1, pitch=1792, time=1),
    Message('pitchwheel', channel=1, pitch=2048, time=2),
    Message('pitchwheel', channel=1, pitch=2304, time=3),
    Message('pitchwheel', channel=1, pitch=2432, time=2),
    Message('pitchwheel', channel=1, pitch=3072, time=2),
    Message('pitchwheel', channel=1, pitch=3328, time=1),
    Message('pitchwheel', channel=1, pitch=3712, time=2),
    Message('pitchwheel', channel=1, pitch=4224, time=2),
    Message('pitchwheel', channel=1, pitch=4864, time=1),
    Message('pitchwheel', channel=1, pitch=5632, time=2),
    Message('pitchwheel', channel=1, pitch=6400, time=2),
    Message('pitchwheel', channel=1, pitch=7808, time=1),
    Message('pitchwheel', channel=1, pitch=8191, time=2),
    Message('note_on', channel=1, note=64, velocity=0, time=917),
    Message('note_on', channel=1, note=67, velocity=100, time=0),
    Message('note_on', channel=1, note=67, velocity=0, time=80),
    Message('note_on', channel=1, note=74, velocity=100, time=0),
    Message('note_on', channel=1, note=74, velocity=0, time=80),
    Message('note_on', channel=1, note=67, velocity=100, time=0),
    Message('note_on', channel=1, note=67, velocity=0, time=80),
    Message('note_on', channel=1, note=64, velocity=100, time=0),
    Message('note_on', channel=1, note=64, velocity=0, time=80),
    Message('note_on', channel=1, note=67, velocity=100, time=0),
    Message('note_on', channel=1, note=67, velocity=0, time=80),
    Message('note_on', channel=1, note=74, velocity=100, time=0),
    Message('note_on', channel=1, note=74, velocity=0, time=80),
    Message('note_on', channel=1, note=69, velocity=100, time=0),
    Message('note_on', channel=1, note=69, velocity=0, time=80),
    Message('note_on', channel=1, note=76, velocity=100, time=0),
    Message('note_on', channel=1, note=76, velocity=0, time=80),
    Message('note_on', channel=1, note=64, velocity=100, time=0),
    Message('note_on', channel=1, note=64, velocity=0, time=80),
    Message('note_on', channel=1, note=63, velocity=100, time=0),
    Message('note_on', channel=1, note=63, velocity=0, time=80),
    Message('note_on', channel=1, note=59, velocity=100, time=0),
    Message('note_on', channel=1, note=59, velocity=0, time=80),
    Message('note_on', channel=1, note=59, velocity=100, time=0),
    Message('note_on', channel=1, note=59, velocity=0, time=80),
    Message('note_on', channel=1, note=64, velocity=100, time=0),
    Message('pitchwheel', channel=1, pitch=256, time=1),
    Message('pitchwheel', channel=1, pitch=512, time=2),
    Message('pitchwheel', channel=1, pitch=768, time=2),
    Message('pitchwheel', channel=1, pitch=1024, time=1),
    Message('pitchwheel', channel=1, pitch=1408, time=4),
    Message('pitchwheel', channel=1, pitch=1536, time=1),
    Message('pitchwheel', channel=1, pitch=1792, time=2),
    Message('pitchwheel', channel=1, pitch=2176, time=3),
    Message('pitchwheel', channel=1, pitch=2304, time=2),
    Message('pitchwheel', channel=1, pitch=2432, time=2),
    Message('pitchwheel', channel=1, pitch=2560, time=1),
    Message('pitchwheel', channel=1, pitch=2688, time=2),
    Message('pitchwheel', channel=1, pitch=2816, time=2),
    Message('pitchwheel', channel=1, pitch=2944, time=1),
    Message('pitchwheel', channel=1, pitch=3200, time=2),
    Message('pitchwheel', channel=1, pitch=3328, time=2),
    Message('pitchwheel', channel=1, pitch=3584, time=1),
    Message('pitchwheel', channel=1, pitch=3840, time=2),
    Message('pitchwheel', channel=1, pitch=3968, time=2),
    Message('pitchwheel', channel=1, pitch=4736, time=1),
    Message('pitchwheel', channel=1, pitch=5120, time=2),
    Message('pitchwheel', channel=1, pitch=5248, time=2),
    Message('pitchwheel', channel=1, pitch=5632, time=1),
    Message('pitchwheel', channel=1, pitch=6144, time=2),
    Message('pitchwheel', channel=1, pitch=6912, time=2),
    Message('pitchwheel', channel=1, pitch=7680, time=1),
    Message('pitchwheel', channel=1, pitch=8191, time=2),
    Message('note_on', channel=1, note=64, velocity=0, time=912),
    Message('note_on', channel=1, note=67, velocity=100, time=0),
    Message('note_on', channel=1, note=67, velocity=0, time=80),
    Message('note_on', channel=1, note=74, velocity=100, time=0),
    Message('note_on', channel=1, note=74, velocity=0, time=80),
    Message('note_on', channel=1, note=67, velocity=100, time=0),
    Message('note_on', channel=1, note=67, velocity=0, time=80),
    Message('note_on', channel=1, note=64, velocity=100, time=0),
    Message('note_on', channel=1, note=64, velocity=0, time=80),
    Message('note_on', channel=1, note=67, velocity=100, time=0),
    Message('note_on', channel=1, note=67, velocity=0, time=80),
    Message('note_on', channel=1, note=74, velocity=100, time=0),
    Message('note_on', channel=1, note=74, velocity=0, time=80),
    Message('note_on', channel=1, note=63, velocity=100, time=0),
    Message('note_on', channel=1, note=63, velocity=0, time=80),
    Message('note_on', channel=1, note=66, velocity=100, time=0),
    Message('note_on', channel=1, note=66, velocity=0, time=80),
    Message('note_on', channel=1, note=75, velocity=100, time=0),
    Message('note_on', channel=1, note=75, velocity=0, time=80),
    Message('note_on', channel=1, note=62, velocity=100, time=0),
    Message('note_on', channel=1, note=62, velocity=0, time=80),
    Message('note_on', channel=1, note=65, velocity=100, time=0),
    Message('note_on', channel=1, note=65, velocity=0, time=80),
    Message('note_on', channel=1, note=74, velocity=100, time=0),
    Message('note_on', channel=1, note=74, velocity=0, time=80),
    Message('note_on', channel=1, note=64, velocity=100, time=0),
    Message('pitchwheel', channel=1, pitch=0, time=3),
    Message('pitchwheel', channel=1, pitch=128, time=2),
    Message('pitchwheel', channel=1, pitch=128, time=3),
    Message('pitchwheel', channel=1, pitch=128, time=2),
    Message('pitchwheel', channel=1, pitch=256, time=3),
    Message('pitchwheel', channel=1, pitch=256, time=2),
    Message('pitchwheel', channel=1, pitch=256, time=1),
    Message('pitchwheel', channel=1, pitch=640, time=2),
    Message('pitchwheel', channel=1, pitch=768, time=2),
    Message('pitchwheel', channel=1, pitch=896, time=1),
    Message('pitchwheel', channel=1, pitch=1152, time=2),
    Message('pitchwheel', channel=1, pitch=1408, time=2),
    Message('pitchwheel', channel=1, pitch=1536, time=1),
    Message('pitchwheel', channel=1, pitch=1920, time=2),
    Message('pitchwheel', channel=1, pitch=2304, time=2),
    Message('pitchwheel', channel=1, pitch=2688, time=1),
    Message('pitchwheel', channel=1, pitch=3072, time=2),
    Message('pitchwheel', channel=1, pitch=4352, time=2),
    Message('pitchwheel', channel=1, pitch=4992, time=1),
    Message('pitchwheel', channel=1, pitch=6016, time=2),
    Message('pitchwheel', channel=1, pitch=7296, time=2),
    Message('pitchwheel', channel=1, pitch=8191, time=1),
    Message('note_on', channel=1, note=64, velocity=0, time=1879),
    MetaMessage('end_of_track', time=0)]),
  MidiTrack([
    MetaMessage('midi_port', port=0, time=0),
    MetaMessage('track_name', name='Guitar II', time=0),
    Message('program_change', channel=2, program=30, time=0),
    Message('control_change', channel=2, control=7, value=80, time=0),
    Message('note_on', channel=2, note=62, velocity=100, time=0),
    Message('note_on', channel=2, note=62, velocity=0, time=30),
    Message('note_on', channel=2, note=63, velocity=100, time=0),
    Message('note_on', channel=2, note=63, velocity=0, time=30),
    Message('note_on', channel=2, note=64, velocity=100, time=0),
    Message('note_on', channel=2, note=64, velocity=0, time=60),
    Message('note_on', channel=2, note=57, velocity=100, time=0),
    Message('note_on', channel=2, note=57, velocity=0, time=30),
    Message('note_on', channel=2, note=58, velocity=100, time=0),
    Message('note_on', channel=2, note=58, velocity=0, time=30),
    Message('note_on', channel=2, note=59, velocity=100, time=0),
    Message('note_on', channel=2, note=59, velocity=0, time=60),
    Message('note_on', channel=2, note=59, velocity=100, time=0),
    Message('note_on', channel=2, note=59, velocity=0, time=30),
    Message('note_on', channel=2, note=58, velocity=100, time=0),
    Message('note_on', channel=2, note=58, velocity=0, time=30),
    Message('note_on', channel=2, note=57, velocity=100, time=0),
    Message('note_on', channel=2, note=57, velocity=0, time=60),
    Message('note_on', channel=2, note=57, velocity=100, time=0),
    Message('note_on', channel=2, note=57, velocity=0, time=30),
    Message('note_on', channel=2, note=56, velocity=100, time=0),
    Message('note_on', channel=2, note=56, velocity=0, time=30),
    Message('note_on', channel=2, note=55, velocity=100, time=0),
    Message('note_on', channel=2, note=55, velocity=0, time=60),
    Message('note_on', channel=2, note=57, velocity=100, time=0),
    Message('note_on', channel=2, note=57, velocity=0, time=30),
    Message('note_on', channel=2, note=55, velocity=100, time=0),
    Message('note_on', channel=2, note=55, velocity=0, time=30),
    Message('note_on', channel=2, note=52, velocity=100, time=0),
    Message('note_on', channel=2, note=59, velocity=100, time=0),
    Message('note_on', channel=2, note=64, velocity=100, time=0),
    Message('note_on', channel=2, note=64, velocity=0, time=420),
    Message('note_on', channel=2, note=59, velocity=0, time=0),
    Message('note_on', channel=2, note=52, velocity=0, time=0),
    Message('note_on', channel=2, note=62, velocity=100, time=0),
    Message('note_on', channel=2, note=62, velocity=0, time=30),
    Message('note_on', channel=2, note=63, velocity=100, time=0),
    Message('note_on', channel=2, note=63, velocity=0, time=30),
    Message('note_on', channel=2, note=64, velocity=100, time=0),
    Message('note_on', channel=2, note=64, velocity=0, time=60),
    Message('note_on', channel=2, note=57, velocity=100, time=0),
    Message('note_on', channel=2, note=57, velocity=0, time=30),
    Message('note_on', channel=2, note=58, velocity=100, time=0),
    Message('note_on', channel=2, note=58, velocity=0, time=30),
    Message('note_on', channel=2, note=59, velocity=100, time=0),
    Message('note_on', channel=2, note=59, velocity=0, time=60),
    Message('note_on', channel=2, note=59, velocity=100, time=0),
    Message('note_on', channel=2, note=59, velocity=0, time=30),
    Message('note_on', channel=2, note=58, velocity=100, time=0),
    Message('note_on', channel=2, note=58, velocity=0, time=30),
    Message('note_on', channel=2, note=57, velocity=100, time=0),
    Message('note_on', channel=2, note=57, velocity=0, time=60),
    Message('note_on', channel=2, note=57, velocity=100, time=0),
    Message('note_on', channel=2, note=57, velocity=0, time=30),
    Message('note_on', channel=2, note=56, velocity=100, time=0),
    Message('note_on', channel=2, note=56, velocity=0, time=30),
    Message('note_on', channel=2, note=55, velocity=100, time=0),
    Message('note_on', channel=2, note=55, velocity=0, time=60),
    Message('note_on', channel=2, note=57, velocity=100, time=0),
    Message('note_on', channel=2, note=57, velocity=0, time=30),
    Message('note_on', channel=2, note=55, velocity=100, time=0),
    Message('note_on', channel=2, note=55, velocity=0, time=30),
    Message('note_on', channel=2, note=66, velocity=100, time=0),
    Message('note_on', channel=2, note=61, velocity=100, time=0),
    Message('note_on', channel=2, note=54, velocity=100, time=0),
    Message('note_on', channel=2, note=54, velocity=0, time=420),
    Message('note_on', channel=2, note=61, velocity=0, time=0),
    Message('note_on', channel=2, note=66, velocity=0, time=0),
    Message('note_on', channel=2, note=62, velocity=100, time=0),
    Message('note_on', channel=2, note=62, velocity=0, time=30),
    Message('note_on', channel=2, note=63, velocity=100, time=0),
    Message('note_on', channel=2, note=63, velocity=0, time=30),
    Message('note_on', channel=2, note=64, velocity=100, time=0),
    Message('note_on', channel=2, note=64, velocity=0, time=60),
    Message('note_on', channel=2, note=57, velocity=100, time=0),
    Message('note_on', channel=2, note=57, velocity=0, time=30),
    Message('note_on', channel=2, note=58, velocity=100, time=0),
    Message('note_on', channel=2, note=58, velocity=0, time=30),
    Message('note_on', channel=2, note=59, velocity=100, time=0),
    Message('note_on', channel=2, note=59, velocity=0, time=60),
    Message('note_on', channel=2, note=59, velocity=100, time=0),
    Message('note_on', channel=2, note=59, velocity=0, time=30),
    Message('note_on', channel=2, note=58, velocity=100, time=0),
    Message('note_on', channel=2, note=58, velocity=0, time=30),
    Message('note_on', channel=2, note=57, velocity=100, time=0),
    Message('note_on', channel=2, note=57, velocity=0, time=60),
    Message('note_on', channel=2, note=57, velocity=100, time=0),
    Message('note_on', channel=2, note=57, velocity=0, time=30),
    Message('note_on', channel=2, note=56, velocity=100, time=0),
    Message('note_on', channel=2, note=56, velocity=0, time=30),
    Message('note_on', channel=2, note=55, velocity=100, time=0),
    Message('note_on', channel=2, note=55, velocity=0, time=60),
    Message('note_on', channel=2, note=64, velocity=100, time=0),
    Message('note_on', channel=2, note=64, velocity=0, time=30),
    Message('note_on', channel=2, note=65, velocity=100, time=0),
    Message('note_on', channel=2, note=65, velocity=0, time=30),
    Message('note_on', channel=2, note=66, velocity=100, time=0),
    Message('note_on', channel=2, note=66, velocity=0, time=60),
    Message('note_on', channel=2, note=60, velocity=100, time=0),
    Message('note_on', channel=2, note=60, velocity=0, time=30),
    Message('note_on', channel=2, note=61, velocity=100, time=0),
    Message('note_on', channel=2, note=61, velocity=0, time=30),
    Message('note_on', channel=2, note=62, velocity=100, time=0),
    Message('note_on', channel=2, note=62, velocity=0, time=60),
    Message('note_on', channel=2, note=62, velocity=100, time=0),
    Message('note_on', channel=2, note=62, velocity=0, time=30),
    Message('note_on', channel=2, note=61, velocity=100, time=0),
    Message('note_on', channel=2, note=61, velocity=0, time=30),
    Message('note_on', channel=2, note=60, velocity=100, time=0),
    Message('note_on', channel=2, note=60, velocity=0, time=60),
    Message('note_on', channel=2, note=61, velocity=100, time=0),
    Message('note_on', channel=2, note=61, velocity=0, time=30),
    Message('note_on', channel=2, note=60, velocity=100, time=0),
    Message('note_on', channel=2, note=60, velocity=0, time=30),
    Message('note_on', channel=2, note=59, velocity=100, time=0),
    Message('note_on', channel=2, note=59, velocity=0, time=60),
    Message('note_on', channel=2, note=62, velocity=100, time=0),
    Message('note_on', channel=2, note=62, velocity=0, time=30),
    Message('note_on', channel=2, note=63, velocity=100, time=0),
    Message('note_on', channel=2, note=63, velocity=0, time=30),
    Message('note_on', channel=2, note=64, velocity=100, time=0),
    Message('note_on', channel=2, note=64, velocity=0, time=60),
    Message('note_on', channel=2, note=57, velocity=100, time=0),
    Message('note_on', channel=2, note=57, velocity=0, time=30),
    Message('note_on', channel=2, note=58, velocity=100, time=0),
    Message('note_on', channel=2, note=58, velocity=0, time=30),
    Message('note_on', channel=2, note=59, velocity=100, time=0),
    Message('note_on', channel=2, note=59, velocity=0, time=60),
    Message('note_on', channel=2, note=59, velocity=100, time=0),
    Message('note_on', channel=2, note=59, velocity=0, time=30),
    Message('note_on', channel=2, note=58, velocity=100, time=0),
    Message('note_on', channel=2, note=58, velocity=0, time=30),
    Message('note_on', channel=2, note=57, velocity=100, time=0),
    Message('note_on', channel=2, note=57, velocity=0, time=60),
    Message('note_on', channel=2, note=57, velocity=100, time=0),
    Message('note_on', channel=2, note=57, velocity=0, time=30),
    Message('note_on', channel=2, note=56, velocity=100, time=0),
    Message('note_on', channel=2, note=56, velocity=0, time=30),
    Message('note_on', channel=2, note=55, velocity=100, time=0),
    Message('note_on', channel=2, note=55, velocity=0, time=30),
    Message('note_on', channel=2, note=54, velocity=100, time=0),
    Message('note_on', channel=2, note=54, velocity=0, time=30),
    Message('note_on', channel=2, note=55, velocity=100, time=0),
    Message('note_on', channel=2, note=55, velocity=0, time=30),
    Message('note_on', channel=2, note=57, velocity=100, time=0),
    Message('note_on', channel=2, note=57, velocity=0, time=30),
    Message('note_on', channel=2, note=62, velocity=100, time=0),
    Message('note_on', channel=2, note=62, velocity=0, time=30),
    Message('note_on', channel=2, note=64, velocity=100, time=0),
    Message('note_on', channel=2, note=64, velocity=0, time=30),
    Message('note_on', channel=2, note=52, velocity=100, time=0),
    Message('note_on', channel=2, note=52, velocity=0, time=30),
    Message('note_on', channel=2, note=52, velocity=100, time=0),
    Message('note_on', channel=2, note=52, velocity=0, time=30),
    Message('note_on', channel=2, note=52, velocity=100, time=0),
    Message('note_on', channel=2, note=52, velocity=0, time=30),
    Message('note_on', channel=2, note=52, velocity=100, time=0),
    Message('note_on', channel=2, note=52, velocity=0, time=30),
    Message('note_on', channel=2, note=67, velocity=100, time=0),
    Message('note_on', channel=2, note=67, velocity=0, time=30),
    Message('note_on', channel=2, note=64, velocity=100, time=0),
    Message('note_on', channel=2, note=64, velocity=0, time=30),
    Message('note_on', channel=2, note=52, velocity=100, time=0),
    Message('note_on', channel=2, note=52, velocity=0, time=30),
    Message('note_on', channel=2, note=52, velocity=100, time=0),
    Message('note_on', channel=2, note=52, velocity=0, time=30),
    Message('note_on', channel=2, note=52, velocity=100, time=0),
    Message('note_on', channel=2, note=52, velocity=0, time=30),
    Message('note_on', channel=2, note=52, velocity=100, time=0),
    Message('note_on', channel=2, note=52, velocity=0, time=30),
    Message('note_on', channel=2, note=52, velocity=100, time=0),
    Message('note_on', channel=2, note=52, velocity=0, time=30),
    Message('note_on', channel=2, note=52, velocity=100, time=0),
    Message('note_on', channel=2, note=52, velocity=0, time=30),
    Message('note_on', channel=2, note=52, velocity=100, time=0),
    Message('note_on', channel=2, note=52, velocity=0, time=30),
    Message('note_on', channel=2, note=52, velocity=100, time=0),
    Message('note_on', channel=2, note=52, velocity=0, time=30),
    Message('note_on', channel=2, note=62, velocity=100, time=0),
    Message('note_on', channel=2, note=62, velocity=0, time=30),
    Message('note_on', channel=2, note=64, velocity=100, time=0),
    Message('note_on', channel=2, note=64, velocity=0, time=30),
    Message('note_on', channel=2, note=52, velocity=100, time=0),
    Message('note_on', channel=2, note=52, velocity=0, time=30),
    Message('note_on', channel=2, note=52, velocity=100, time=0),
    Message('note_on', channel=2, note=52, velocity=0, time=30),
    Message('note_on', channel=2, note=52, velocity=100, time=0),
    Message('note_on', channel=2, note=52, velocity=0, time=30),
    Message('note_on', channel=2, note=52, velocity=100, time=0),
    Message('note_on', channel=2, note=52, velocity=0, time=30),
    Message('note_on', channel=2, note=62, velocity=100, time=0),
    Message('note_on', channel=2, note=62, velocity=0, time=30),
    Message('note_on', channel=2, note=64, velocity=100, time=0),
    Message('note_on', channel=2, note=64, velocity=0, time=30),
    Message('note_on', channel=2, note=52, velocity=100, time=0),
    Message('note_on', channel=2, note=52, velocity=0, time=30),
    Message('note_on', channel=2, note=52, velocity=100, time=0),
    Message('note_on', channel=2, note=52, velocity=0, time=30),
    Message('note_on', channel=2, note=52, velocity=100, time=0),
    Message('note_on', channel=2, note=52, velocity=0, time=30),
    Message('note_on', channel=2, note=52, velocity=100, time=0),
    Message('note_on', channel=2, note=52, velocity=0, time=30),
    Message('note_on', channel=2, note=64, velocity=100, time=0),
    Message('note_on', channel=2, note=57, velocity=100, time=0),
    Message('note_on', channel=2, note=57, velocity=0, time=60),
    Message('note_on', channel=2, note=64, velocity=0, time=0),
    Message('note_on', channel=2, note=65, velocity=100, time=0),
    Message('note_on', channel=2, note=58, velocity=100, time=0),
    Message('note_on', channel=2, note=58, velocity=0, time=60),
    Message('note_on', channel=2, note=65, velocity=0, time=0),
    Message('note_on', channel=2, note=62, velocity=100, time=0),
    Message('note_on', channel=2, note=62, velocity=0, time=30),
    Message('note_on', channel=2, note=64, velocity=100, time=0),
    Message('note_on', channel=2, note=64, velocity=0, time=30),
    Message('note_on', channel=2, note=52, velocity=100, time=0),
    Message('note_on', channel=2, note=52, velocity=0, time=30),
    Message('note_on', channel=2, note=52, velocity=100, time=0),
    Message('note_on', channel=2, note=52, velocity=0, time=30),
    Message('note_on', channel=2, note=52, velocity=100, time=0),
    Message('note_on', channel=2, note=52, velocity=0, time=30),
    Message('note_on', channel=2, note=52, velocity=100, time=0),
    Message('note_on', channel=2, note=52, velocity=0, time=30),
    Message('note_on', channel=2, note=67, velocity=100, time=0),
    Message('note_on', channel=2, note=67, velocity=0, time=30),
    Message('note_on', channel=2, note=64, velocity=100, time=0),
    Message('note_on', channel=2, note=64, velocity=0, time=30),
    Message('note_on', channel=2, note=52, velocity=100, time=0),
    Message('note_on', channel=2, note=52, velocity=0, time=30),
    Message('note_on', channel=2, note=52, velocity=100, time=0),
    Message('note_on', channel=2, note=52, velocity=0, time=30),
    Message('note_on', channel=2, note=52, velocity=100, time=0),
    Message('note_on', channel=2, note=52, velocity=0, time=30),
    Message('note_on', channel=2, note=52, velocity=100, time=0),
    Message('note_on', channel=2, note=52, velocity=0, time=30),
    Message('note_on', channel=2, note=52, velocity=100, time=0),
    Message('note_on', channel=2, note=52, velocity=0, time=30),
    Message('note_on', channel=2, note=52, velocity=100, time=0),
    Message('note_on', channel=2, note=52, velocity=0, time=30),
    Message('note_on', channel=2, note=52, velocity=100, time=0),
    Message('note_on', channel=2, note=52, velocity=0, time=30),
    Message('note_on', channel=2, note=52, velocity=100, time=0),
    Message('note_on', channel=2, note=52, velocity=0, time=30),
    Message('note_on', channel=2, note=62, velocity=100, time=0),
    Message('note_on', channel=2, note=62, velocity=0, time=30),
    Message('note_on', channel=2, note=64, velocity=100, time=0),
    Message('note_on', channel=2, note=64, velocity=0, time=30),
    Message('note_on', channel=2, note=52, velocity=100, time=0),
    Message('note_on', channel=2, note=52, velocity=0, time=30),
    Message('note_on', channel=2, note=52, velocity=100, time=0),
    Message('note_on', channel=2, note=52, velocity=0, time=30),
    Message('note_on', channel=2, note=52, velocity=100, time=0),
    Message('note_on', channel=2, note=52, velocity=0, time=30),
    Message('note_on', channel=2, note=52, velocity=100, time=0),
    Message('note_on', channel=2, note=52, velocity=0, time=30),
    Message('note_on', channel=2, note=62, velocity=100, time=0),
    Message('note_on', channel=2, note=62, velocity=0, time=30),
    Message('note_on', channel=2, note=64, velocity=100, time=0),
    Message('note_on', channel=2, note=64, velocity=0, time=30),
    Message('note_on', channel=2, note=52, velocity=100, time=0),
    Message('note_on', channel=2, note=52, velocity=0, time=30),
    Message('note_on', channel=2, note=52, velocity=100, time=0),
    Message('note_on', channel=2, note=52, velocity=0, time=30),
    Message('note_on', channel=2, note=52, velocity=100, time=0),
    Message('note_on', channel=2, note=52, velocity=0, time=30),
    Message('note_on', channel=2, note=52, velocity=100, time=0),
    Message('note_on', channel=2, note=52, velocity=0, time=30),
    Message('note_on', channel=2, note=58, velocity=100, time=0),
    Message('note_on', channel=2, note=65, velocity=100, time=0),
    Message('note_on', channel=2, note=65, velocity=0, time=60),
    Message('note_on', channel=2, note=58, velocity=0, time=0),
    Message('note_on', channel=2, note=59, velocity=100, time=0),
    Message('note_on', channel=2, note=66, velocity=100, time=0),
    Message('note_on', channel=2, note=66, velocity=0, time=60),
    Message('note_on', channel=2, note=59, velocity=0, time=0),
    Message('note_on', channel=2, note=62, velocity=100, time=0),
    Message('note_on', channel=2, note=62, velocity=0, time=30),
    Message('note_on', channel=2, note=64, velocity=100, time=0),
    Message('note_on', channel=2, note=64, velocity=0, time=30),
    Message('note_on', channel=2, note=52, velocity=100, time=0),
    Message('note_on', channel=2, note=52, velocity=0, time=30),
    Message('note_on', channel=2, note=52, velocity=100, time=0),
    Message('note_on', channel=2, note=52, velocity=0, time=30),
    Message('note_on', channel=2, note=52, velocity=100, time=0),
    Message('note_on', channel=2, note=52, velocity=0, time=30),
    Message('note_on', channel=2, note=52, velocity=100, time=0),
    Message('note_on', channel=2, note=52, velocity=0, time=30),
    Message('note_on', channel=2, note=67, velocity=100, time=0),
    Message('note_on', channel=2, note=67, velocity=0, time=30),
    Message('note_on', channel=2, note=64, velocity=100, time=0),
    Message('note_on', channel=2, note=64, velocity=0, time=30),
    Message('note_on', channel=2, note=52, velocity=100, time=0),
    Message('note_on', channel=2, note=52, velocity=0, time=30),
    Message('note_on', channel=2, note=52, velocity=100, time=0),
    Message('note_on', channel=2, note=52, velocity=0, time=30),
    Message('note_on', channel=2, note=52, velocity=100, time=0),
    Message('note_on', channel=2, note=52, velocity=0, time=30),
    Message('note_on', channel=2, note=52, velocity=100, time=0),
    Message('note_on', channel=2, note=52, velocity=0, time=30),
    Message('note_on', channel=2, note=52, velocity=100, time=0),
    Message('note_on', channel=2, note=52, velocity=0, time=30),
    Message('note_on', channel=2, note=52, velocity=100, time=0),
    Message('note_on', channel=2, note=52, velocity=0, time=30),
    Message('note_on', channel=2, note=52, velocity=100, time=0),
    Message('note_on', channel=2, note=52, velocity=0, time=30),
    Message('note_on', channel=2, note=52, velocity=100, time=0),
    Message('note_on', channel=2, note=52, velocity=0, time=30),
    Message('note_on', channel=2, note=62, velocity=100, time=0),
    Message('note_on', channel=2, note=62, velocity=0, time=30),
    Message('note_on', channel=2, note=64, velocity=100, time=0),
    Message('note_on', channel=2, note=64, velocity=0, time=30),
    Message('note_on', channel=2, note=52, velocity=100, time=0),
    Message('note_on', channel=2, note=52, velocity=0, time=30),
    Message('note_on', channel=2, note=52, velocity=100, time=0),
    Message('note_on', channel=2, note=52, velocity=0, time=30),
    Message('note_on', channel=2, note=52, velocity=100, time=0),
    Message('note_on', channel=2, note=52, velocity=0, time=30),
    Message('note_on', channel=2, note=52, velocity=100, time=0),
    Message('note_on', channel=2, note=52, velocity=0, time=30),
    Message('note_on', channel=2, note=62, velocity=100, time=0),
    Message('note_on', channel=2, note=62, velocity=0, time=30),
    Message('note_on', channel=2, note=64, velocity=100, time=0),
    Message('note_on', channel=2, note=64, velocity=0, time=30),
    Message('note_on', channel=2, note=52, velocity=100, time=0),
    Message('note_on', channel=2, note=52, velocity=0, time=30),
    Message('note_on', channel=2, note=52, velocity=100, time=0),
    Message('note_on', channel=2, note=52, velocity=0, time=30),
    Message('note_on', channel=2, note=52, velocity=100, time=0),
    Message('note_on', channel=2, note=52, velocity=0, time=30),
    Message('note_on', channel=2, note=52, velocity=100, time=0),
    Message('note_on', channel=2, note=52, velocity=0, time=30),
    Message('note_on', channel=2, note=59, velocity=100, time=0),
    Message('note_on', channel=2, note=66, velocity=100, time=0),
    Message('note_on', channel=2, note=66, velocity=0, time=60),
    Message('note_on', channel=2, note=59, velocity=0, time=0),
    Message('note_on', channel=2, note=55, velocity=100, time=0),
    Message('note_on', channel=2, note=62, velocity=100, time=0),
    Message('note_on', channel=2, note=62, velocity=0, time=60),
    Message('note_on', channel=2, note=55, velocity=0, time=0),
    Message('note_on', channel=2, note=62, velocity=100, time=0),
    Message('note_on', channel=2, note=62, velocity=0, time=30),
    Message('note_on', channel=2, note=64, velocity=100, time=0),
    Message('note_on', channel=2, note=64, velocity=0, time=30),
    Message('note_on', channel=2, note=52, velocity=100, time=0),
    Message('note_on', channel=2, note=52, velocity=0, time=30),
    Message('note_on', channel=2, note=52, velocity=100, time=0),
    Message('note_on', channel=2, note=52, velocity=0, time=30),
    Message('note_on', channel=2, note=52, velocity=100, time=0),
    Message('note_on', channel=2, note=52, velocity=0, time=30),
    Message('note_on', channel=2, note=52, velocity=100, time=0),
    Message('note_on', channel=2, note=52, velocity=0, time=30),
    Message('note_on', channel=2, note=67, velocity=100, time=0),
    Message('note_on', channel=2, note=67, velocity=0, time=30),
    Message('note_on', channel=2, note=64, velocity=100, time=0),
    Message('note_on', channel=2, note=64, velocity=0, time=30),
    Message('note_on', channel=2, note=52, velocity=100, time=0),
    Message('note_on', channel=2, note=52, velocity=0, time=30),
    Message('note_on', channel=2, note=52, velocity=100, time=0),
    Message('note_on', channel=2, note=52, velocity=0, time=30),
    Message('note_on', channel=2, note=52, velocity=100, time=0),
    Message('note_on', channel=2, note=52, velocity=0, time=30),
    Message('note_on', channel=2, note=52, velocity=100, time=0),
    Message('note_on', channel=2, note=52, velocity=0, time=30),
    Message('note_on', channel=2, note=52, velocity=100, time=0),
    Message('note_on', channel=2, note=52, velocity=0, time=30),
    Message('note_on', channel=2, note=52, velocity=100, time=0),
    Message('note_on', channel=2, note=52, velocity=0, time=30),
    Message('note_on', channel=2, note=59, velocity=100, time=0),
    Message('note_on', channel=2, note=66, velocity=100, time=0),
    Message('note_on', channel=2, note=66, velocity=0, time=120),
    Message('note_on', channel=2, note=59, velocity=0, time=0),
    Message('note_on', channel=2, note=52, velocity=100, time=0),
    Message('note_on', channel=2, note=52, velocity=0, time=30),
    Message('note_on', channel=2, note=52, velocity=100, time=0),
    Message('note_on', channel=2, note=52, velocity=0, time=30),
    Message('note_on', channel=2, note=52, velocity=100, time=0),
    Message('note_on', channel=2, note=52, velocity=0, time=30),
    Message('note_on', channel=2, note=52, velocity=100, time=0),
    Message('note_on', channel=2, note=52, velocity=0, time=30),
    Message('note_on', channel=2, note=58, velocity=100, time=0),
    Message('note_on', channel=2, note=65, velocity=100, time=0),
    Message('note_on', channel=2, note=65, velocity=0, time=120),
    Message('note_on', channel=2, note=58, velocity=0, time=0),
    Message('note_on', channel=2, note=52, velocity=100, time=0),
    Message('note_on', channel=2, note=52, velocity=0, time=60),
    Message('note_on', channel=2, note=64, velocity=100, time=0),
    Message('note_on', channel=2, note=57, velocity=100, time=0),
    Message('note_on', channel=2, note=57, velocity=0, time=60),
    Message('note_on', channel=2, note=64, velocity=0, time=0),
    Message('note_on', channel=2, note=52, velocity=100, time=0),
    Message('note_on', channel=2, note=52, velocity=0, time=60),
    Message('note_on', channel=2, note=59, velocity=100, time=0),
    Message('note_on', channel=2, note=66, velocity=100, time=0),
    Message('note_on', channel=2, note=66, velocity=0, time=480),
    Message('note_on', channel=2, note=59, velocity=0, time=0),
    Message('note_on', channel=2, note=59, velocity=100, time=0),
    Message('note_on', channel=2, note=66, velocity=100, time=0),
    Message('note_on', channel=2, note=66, velocity=0, time=120),
    Message('note_on', channel=2, note=59, velocity=0, time=0),
    Message('note_on', channel=2, note=59, velocity=100, time=120),
    Message('note_on', channel=2, note=66, velocity=100, time=0),
    Message('note_on', channel=2, note=66, velocity=0, time=80),
    Message('note_on', channel=2, note=59, velocity=0, time=0),
    Message('note_on', channel=2, note=55, velocity=100, time=0),
    Message('note_on', channel=2, note=62, velocity=100, time=0),
    Message('note_on', channel=2, note=62, velocity=0, time=80),
    Message('note_on', channel=2, note=55, velocity=0, time=0),
    Message('note_on', channel=2, note=54, velocity=100, time=0),
    Message('note_on', channel=2, note=60, velocity=100, time=0),
    Message('note_on', channel=2, note=60, velocity=0, time=80),
    Message('note_on', channel=2, note=54, velocity=0, time=0),
    Message('note_on', channel=2, note=62, velocity=100, time=0),
    Message('note_on', channel=2, note=62, velocity=0, time=30),
    Message('note_on', channel=2, note=64, velocity=100, time=0),
    Message('note_on', channel=2, note=64, velocity=0, time=30),
    Message('note_on', channel=2, note=52, velocity=100, time=0),
    Message('note_on', channel=2, note=52, velocity=0, time=30),
    Message('note_on', channel=2, note=52, velocity=100, time=0),
    Message('note_on', channel=2, note=52, velocity=0, time=30),
    Message('note_on', channel=2, note=52, velocity=100, time=0),
    Message('note_on', channel=2, note=52, velocity=0, time=30),
    Message('note_on', channel=2, note=52, velocity=100, time=0),
    Message('note_on', channel=2, note=52, velocity=0, time=30),
    Message('note_on', channel=2, note=67, velocity=100, time=0),
    Message('note_on', channel=2, note=67, velocity=0, time=30),
    Message('note_on', channel=2, note=64, velocity=100, time=0),
    Message('note_on', channel=2, note=64, velocity=0, time=30),
    Message('note_on', channel=2, note=52, velocity=100, time=0),
    Message('note_on', channel=2, note=52, velocity=0, time=30),
    Message('note_on', channel=2, note=52, velocity=100, time=0),
    Message('note_on', channel=2, note=52, velocity=0, time=30),
    Message('note_on', channel=2, note=52, velocity=100, time=0),
    Message('note_on', channel=2, note=52, velocity=0, time=30),
    Message('note_on', channel=2, note=52, velocity=100, time=0),
    Message('note_on', channel=2, note=52, velocity=0, time=30),
    Message('note_on', channel=2, note=52, velocity=100, time=0),
    Message('note_on', channel=2, note=52, velocity=0, time=30),
    Message('note_on', channel=2, note=52, velocity=100, time=0),
    Message('note_on', channel=2, note=52, velocity=0, time=30),
    Message('note_on', channel=2, note=52, velocity=100, time=0),
    Message('note_on', channel=2, note=52, velocity=0, time=30),
    Message('note_on', channel=2, note=52, velocity=100, time=0),
    Message('note_on', channel=2, note=52, velocity=0, time=30),
    Message('note_on', channel=2, note=62, velocity=100, time=0),
    Message('note_on', channel=2, note=62, velocity=0, time=30),
    Message('note_on', channel=2, note=64, velocity=100, time=0),
    Message('note_on', channel=2, note=64, velocity=0, time=30),
    Message('note_on', channel=2, note=52, velocity=100, time=0),
    Message('note_on', channel=2, note=52, velocity=0, time=30),
    Message('note_on', channel=2, note=52, velocity=100, time=0),
    Message('note_on', channel=2, note=52, velocity=0, time=30),
    Message('note_on', channel=2, note=52, velocity=100, time=0),
    Message('note_on', channel=2, note=52, velocity=0, time=30),
    Message('note_on', channel=2, note=52, velocity=100, time=0),
    Message('note_on', channel=2, note=52, velocity=0, time=30),
    Message('note_on', channel=2, note=62, velocity=100, time=0),
    Message('note_on', channel=2, note=62, velocity=0, time=30),
    Message('note_on', channel=2, note=64, velocity=100, time=0),
    Message('note_on', channel=2, note=64, velocity=0, time=30),
    Message('note_on', channel=2, note=52, velocity=100, time=0),
    Message('note_on', channel=2, note=52, velocity=0, time=30),
    Message('note_on', channel=2, note=52, velocity=100, time=0),
    Message('note_on', channel=2, note=52, velocity=0, time=30),
    Message('note_on', channel=2, note=52, velocity=100, time=0),
    Message('note_on', channel=2, note=52, velocity=0, time=30),
    Message('note_on', channel=2, note=52, velocity=100, time=0),
    Message('note_on', channel=2, note=52, velocity=0, time=30),
    Message('note_on', channel=2, note=64, velocity=100, time=0),
    Message('note_on', channel=2, note=57, velocity=100, time=0),
    Message('note_on', channel=2, note=57, velocity=0, time=60),
    Message('note_on', channel=2, note=64, velocity=0, time=0),
    Message('note_on', channel=2, note=65, velocity=100, time=0),
    Message('note_on', channel=2, note=58, velocity=100, time=0),
    Message('note_on', channel=2, note=58, velocity=0, time=60),
    Message('note_on', channel=2, note=65, velocity=0, time=0),
    Message('note_on', channel=2, note=62, velocity=100, time=0),
    Message('note_on', channel=2, note=62, velocity=0, time=30),
    Message('note_on', channel=2, note=64, velocity=100, time=0),
    Message('note_on', channel=2, note=64, velocity=0, time=30),
    Message('note_on', channel=2, note=52, velocity=100, time=0),
    Message('note_on', channel=2, note=52, velocity=0, time=30),
    Message('note_on', channel=2, note=52, velocity=100, time=0),
    Message('note_on', channel=2, note=52, velocity=0, time=30),
    Message('note_on', channel=2, note=52, velocity=100, time=0),
    Message('note_on', channel=2, note=52, velocity=0, time=30),
    Message('note_on', channel=2, note=52, velocity=100, time=0),
    Message('note_on', channel=2, note=52, velocity=0, time=30),
    Message('note_on', channel=2, note=67, velocity=100, time=0),
    Message('note_on', channel=2, note=67, velocity=0, time=30),
    Message('note_on', channel=2, note=64, velocity=100, time=0),
    Message('note_on', channel=2, note=64, velocity=0, time=30),
    Message('note_on', channel=2, note=52, velocity=100, time=0),
    Message('note_on', channel=2, note=52, velocity=0, time=30),
    Message('note_on', channel=2, note=52, velocity=100, time=0),
    Message('note_on', channel=2, note=52, velocity=0, time=30),
    Message('note_on', channel=2, note=52, velocity=100, time=0),
    Message('note_on', channel=2, note=52, velocity=0, time=30),
    Message('note_on', channel=2, note=52, velocity=100, time=0),
    Message('note_on', channel=2, note=52, velocity=0, time=30),
    Message('note_on', channel=2, note=52, velocity=100, time=0),
    Message('note_on', channel=2, note=52, velocity=0, time=30),
    Message('note_on', channel=2, note=52, velocity=100, time=0),
    Message('note_on', channel=2, note=52, velocity=0, time=30),
    Message('note_on', channel=2, note=52, velocity=100, time=0),
    Message('note_on', channel=2, note=52, velocity=0, time=30),
    Message('note_on', channel=2, note=52, velocity=100, time=0),
    Message('note_on', channel=2, note=52, velocity=0, time=30),
    Message('note_on', channel=2, note=62, velocity=100, time=0),
    Message('note_on', channel=2, note=62, velocity=0, time=30),
    Message('note_on', channel=2, note=64, velocity=100, time=0),
    Message('note_on', channel=2, note=64, velocity=0, time=30),
    Message('note_on', channel=2, note=52, velocity=100, time=0),
    Message('note_on', channel=2, note=52, velocity=0, time=30),
    Message('note_on', channel=2, note=52, velocity=100, time=0),
    Message('note_on', channel=2, note=52, velocity=0, time=30),
    Message('note_on', channel=2, note=52, velocity=100, time=0),
    Message('note_on', channel=2, note=52, velocity=0, time=30),
    Message('note_on', channel=2, note=52, velocity=100, time=0),
    Message('note_on', channel=2, note=52, velocity=0, time=30),
    Message('note_on', channel=2, note=62, velocity=100, time=0),
    Message('note_on', channel=2, note=62, velocity=0, time=30),
    Message('note_on', channel=2, note=64, velocity=100, time=0),
    Message('note_on', channel=2, note=64, velocity=0, time=30),
    Message('note_on', channel=2, note=52, velocity=100, time=0),
    Message('note_on', channel=2, note=52, velocity=0, time=30),
    Message('note_on', channel=2, note=52, velocity=100, time=0),
    Message('note_on', channel=2, note=52, velocity=0, time=30),
    Message('note_on', channel=2, note=52, velocity=100, time=0),
    Message('note_on', channel=2, note=52, velocity=0, time=30),
    Message('note_on', channel=2, note=52, velocity=100, time=0),
    Message('note_on', channel=2, note=52, velocity=0, time=30),
    Message('note_on', channel=2, note=58, velocity=100, time=0),
    Message('note_on', channel=2, note=65, velocity=100, time=0),
    Message('note_on', channel=2, note=65, velocity=0, time=60),
    Message('note_on', channel=2, note=58, velocity=0, time=0),
    Message('note_on', channel=2, note=59, velocity=100, time=0),
    Message('note_on', channel=2, note=66, velocity=100, time=0),
    Message('note_on', channel=2, note=66, velocity=0, time=60),
    Message('note_on', channel=2, note=59, velocity=0, time=0),
    Message('note_on', channel=2, note=62, velocity=100, time=0),
    Message('note_on', channel=2, note=62, velocity=0, time=30),
    Message('note_on', channel=2, note=64, velocity=100, time=0),
    Message('note_on', channel=2, note=64, velocity=0, time=30),
    Message('note_on', channel=2, note=52, velocity=100, time=0),
    Message('note_on', channel=2, note=52, velocity=0, time=30),
    Message('note_on', channel=2, note=52, velocity=100, time=0),
    Message('note_on', channel=2, note=52, velocity=0, time=30),
    Message('note_on', channel=2, note=52, velocity=100, time=0),
    Message('note_on', channel=2, note=52, velocity=0, time=30),
    Message('note_on', channel=2, note=52, velocity=100, time=0),
    Message('note_on', channel=2, note=52, velocity=0, time=30),
    Message('note_on', channel=2, note=67, velocity=100, time=0),
    Message('note_on', channel=2, note=67, velocity=0, time=30),
    Message('note_on', channel=2, note=64, velocity=100, time=0),
    Message('note_on', channel=2, note=64, velocity=0, time=30),
    Message('note_on', channel=2, note=52, velocity=100, time=0),
    Message('note_on', channel=2, note=52, velocity=0, time=30),
    Message('note_on', channel=2, note=52, velocity=100, time=0),
    Message('note_on', channel=2, note=52, velocity=0, time=30),
    Message('note_on', channel=2, note=52, velocity=100, time=0),
    Message('note_on', channel=2, note=52, velocity=0, time=30),
    Message('note_on', channel=2, note=52, velocity=100, time=0),
    Message('note_on', channel=2, note=52, velocity=0, time=30),
    Message('note_on', channel=2, note=52, velocity=100, time=0),
    Message('note_on', channel=2, note=52, velocity=0, time=30),
    Message('note_on', channel=2, note=52, velocity=100, time=0),
    Message('note_on', channel=2, note=52, velocity=0, time=30),
    Message('note_on', channel=2, note=52, velocity=100, time=0),
    Message('note_on', channel=2, note=52, velocity=0, time=30),
    Message('note_on', channel=2, note=52, velocity=100, time=0),
    Message('note_on', channel=2, note=52, velocity=0, time=30),
    Message('note_on', channel=2, note=62, velocity=100, time=0),
    Message('note_on', channel=2, note=62, velocity=0, time=30),
    Message('note_on', channel=2, note=64, velocity=100, time=0),
    Message('note_on', channel=2, note=64, velocity=0, time=30),
    Message('note_on', channel=2, note=52, velocity=100, time=0),
    Message('note_on', channel=2, note=52, velocity=0, time=30),
    Message('note_on', channel=2, note=52, velocity=100, time=0),
    Message('note_on', channel=2, note=52, velocity=0, time=30),
    Message('note_on', channel=2, note=52, velocity=100, time=0),
    Message('note_on', channel=2, note=52, velocity=0, time=30),
    Message('note_on', channel=2, note=52, velocity=100, time=0),
    Message('note_on', channel=2, note=52, velocity=0, time=30),
    Message('note_on', channel=2, note=62, velocity=100, time=0),
    Message('note_on', channel=2, note=62, velocity=0, time=30),
    Message('note_on', channel=2, note=64, velocity=100, time=0),
    Message('note_on', channel=2, note=64, velocity=0, time=30),
    Message('note_on', channel=2, note=52, velocity=100, time=0),
    Message('note_on', channel=2, note=52, velocity=0, time=30),
    Message('note_on', channel=2, note=52, velocity=100, time=0),
    Message('note_on', channel=2, note=52, velocity=0, time=30),
    Message('note_on', channel=2, note=52, velocity=100, time=0),
    Message('note_on', channel=2, note=52, velocity=0, time=30),
    Message('note_on', channel=2, note=52, velocity=100, time=0),
    Message('note_on', channel=2, note=52, velocity=0, time=30),
    Message('note_on', channel=2, note=59, velocity=100, time=0),
    Message('note_on', channel=2, note=66, velocity=100, time=0),
    Message('note_on', channel=2, note=66, velocity=0, time=60),
    Message('note_on', channel=2, note=59, velocity=0, time=0),
    Message('note_on', channel=2, note=55, velocity=100, time=0),
    Message('note_on', channel=2, note=62, velocity=100, time=0),
    Message('note_on', channel=2, note=62, velocity=0, time=60),
    Message('note_on', channel=2, note=55, velocity=0, time=0),
    Message('note_on', channel=2, note=62, velocity=100, time=0),
    Message('note_on', channel=2, note=62, velocity=0, time=30),
    Message('note_on', channel=2, note=64, velocity=100, time=0),
    Message('note_on', channel=2, note=64, velocity=0, time=30),
    Message('note_on', channel=2, note=52, velocity=100, time=0),
    Message('note_on', channel=2, note=52, velocity=0, time=30),
    Message('note_on', channel=2, note=52, velocity=100, time=0),
    Message('note_on', channel=2, note=52, velocity=0, time=30),
    Message('note_on', channel=2, note=52, velocity=100, time=0),
    Message('note_on', channel=2, note=52, velocity=0, time=30),
    Message('note_on', channel=2, note=52, velocity=100, time=0),
    Message('note_on', channel=2, note=52, velocity=0, time=30),
    Message('note_on', channel=2, note=67, velocity=100, time=0),
    Message('note_on', channel=2, note=67, velocity=0, time=30),
    Message('note_on', channel=2, note=64, velocity=100, time=0),
    Message('note_on', channel=2, note=64, velocity=0, time=30),
    Message('note_on', channel=2, note=52, velocity=100, time=0),
    Message('note_on', channel=2, note=52, velocity=0, time=30),
    Message('note_on', channel=2, note=52, velocity=100, time=0),
    Message('note_on', channel=2, note=52, velocity=0, time=30),
    Message('note_on', channel=2, note=52, velocity=100, time=0),
    Message('note_on', channel=2, note=52, velocity=0, time=30),
    Message('note_on', channel=2, note=52, velocity=100, time=0),
    Message('note_on', channel=2, note=52, velocity=0, time=30),
    Message('note_on', channel=2, note=52, velocity=100, time=0),
    Message('note_on', channel=2, note=52, velocity=0, time=30),
    Message('note_on', channel=2, note=52, velocity=100, time=0),
    Message('note_on', channel=2, note=52, velocity=0, time=30),
    Message('note_on', channel=2, note=59, velocity=100, time=0),
    Message('note_on', channel=2, note=66, velocity=100, time=0),
    Message('note_on', channel=2, note=66, velocity=0, time=120),
    Message('note_on', channel=2, note=59, velocity=0, time=0),
    Message('note_on', channel=2, note=52, velocity=100, time=0),
    Message('note_on', channel=2, note=52, velocity=0, time=30),
    Message('note_on', channel=2, note=52, velocity=100, time=0),
    Message('note_on', channel=2, note=52, velocity=0, time=30),
    Message('note_on', channel=2, note=52, velocity=100, time=0),
    Message('note_on', channel=2, note=52, velocity=0, time=30),
    Message('note_on', channel=2, note=52, velocity=100, time=0),
    Message('note_on', channel=2, note=52, velocity=0, time=30),
    Message('note_on', channel=2, note=58, velocity=100, time=0),
    Message('note_on', channel=2, note=65, velocity=100, time=0),
    Message('note_on', channel=2, note=65, velocity=0, time=120),
    Message('note_on', channel=2, note=58, velocity=0, time=0),
    Message('note_on', channel=2, note=52, velocity=100, time=0),
    Message('note_on', channel=2, note=52, velocity=0, time=60),
    Message('note_on', channel=2, note=64, velocity=100, time=0),
    Message('note_on', channel=2, note=57, velocity=100, time=0),
    Message('note_on', channel=2, note=57, velocity=0, time=60),
    Message('note_on', channel=2, note=64, velocity=0, time=0),
    Message('note_on', channel=2, note=52, velocity=100, time=0),
    Message('note_on', channel=2, note=52, velocity=0, time=60),
    Message('note_on', channel=2, note=62, velocity=100, time=0),
    Message('note_on', channel=2, note=62, velocity=0, time=30),
    Message('note_on', channel=2, note=64, velocity=100, time=0),
    Message('note_on', channel=2, note=64, velocity=0, time=30),
    Message('note_on', channel=2, note=52, velocity=100, time=0),
    Message('note_on', channel=2, note=52, velocity=0, time=30),
    Message('note_on', channel=2, note=52, velocity=100, time=0),
    Message('note_on', channel=2, note=52, velocity=0, time=30),
    Message('note_on', channel=2, note=52, velocity=100, time=0),
    Message('note_on', channel=2, note=52, velocity=0, time=30),
    Message('note_on', channel=2, note=52, velocity=100, time=0),
    Message('note_on', channel=2, note=52, velocity=0, time=30),
    Message('note_on', channel=2, note=67, velocity=100, time=0),
    Message('note_on', channel=2, note=67, velocity=0, time=30),
    Message('note_on', channel=2, note=64, velocity=100, time=0),
    Message('note_on', channel=2, note=64, velocity=0, time=30),
    Message('note_on', channel=2, note=52, velocity=100, time=0),
    Message('note_on', channel=2, note=52, velocity=0, time=30),
    Message('note_on', channel=2, note=52, velocity=100, time=0),
    Message('note_on', channel=2, note=52, velocity=0, time=30),
    Message('note_on', channel=2, note=52, velocity=100, time=0),
    Message('note_on', channel=2, note=52, velocity=0, time=30),
    Message('note_on', channel=2, note=52, velocity=100, time=0),
    Message('note_on', channel=2, note=52, velocity=0, time=30),
    Message('note_on', channel=2, note=52, velocity=100, time=0),
    Message('note_on', channel=2, note=52, velocity=0, time=30),
    Message('note_on', channel=2, note=52, velocity=100, time=0),
    Message('note_on', channel=2, note=52, velocity=0, time=30),
    Message('note_on', channel=2, note=63, velocity=100, time=0),
    Message('note_on', channel=2, note=63, velocity=0, time=120),
    Message('note_on', channel=2, note=52, velocity=100, time=0),
    Message('note_on', channel=2, note=52, velocity=0, time=30),
    Message('note_on', channel=2, note=52, velocity=100, time=0),
    Message('note_on', channel=2, note=52, velocity=0, time=30),
    Message('note_on', channel=2, note=52, velocity=100, time=0),
    Message('note_on', channel=2, note=52, velocity=0, time=30),
    Message('note_on', channel=2, note=52, velocity=100, time=0),
    Message('note_on', channel=2, note=52, velocity=0, time=30),
    Message('note_on', channel=2, note=62, velocity=100, time=0),
    Message('note_on', channel=2, note=62, velocity=0, time=120),
    Message('note_on', channel=2, note=52, velocity=100, time=0),
    Message('note_on', channel=2, note=52, velocity=0, time=60),
    Message('note_on', channel=2, note=61, velocity=100, time=0),
    Message('note_on', channel=2, note=61, velocity=0, time=60),
    Message('note_on', channel=2, note=52, velocity=100, time=0),
    Message('note_on', channel=2, note=52, velocity=0, time=60),
    Message('note_on', channel=2, note=62, velocity=100, time=0),
    Message('note_on', channel=2, note=62, velocity=0, time=30),
    Message('note_on', channel=2, note=64, velocity=100, time=0),
    Message('note_on', channel=2, note=64, velocity=0, time=30),
    Message('note_on', channel=2, note=52, velocity=100, time=0),
    Message('note_on', channel=2, note=52, velocity=0, time=30),
    Message('note_on', channel=2, note=52, velocity=100, time=0),
    Message('note_on', channel=2, note=52, velocity=0, time=30),
    Message('note_on', channel=2, note=52, velocity=100, time=0),
    Message('note_on', channel=2, note=52, velocity=0, time=30),
    Message('note_on', channel=2, note=52, velocity=100, time=0),
    Message('note_on', channel=2, note=52, velocity=0, time=30),
    Message('note_on', channel=2, note=67, velocity=100, time=0),
    Message('note_on', channel=2, note=67, velocity=0, time=30),
    Message('note_on', channel=2, note=64, velocity=100, time=0),
    Message('note_on', channel=2, note=64, velocity=0, time=30),
    Message('note_on', channel=2, note=52, velocity=100, time=0),
    Message('note_on', channel=2, note=52, velocity=0, time=30),
    Message('note_on', channel=2, note=52, velocity=100, time=0),
    Message('note_on', channel=2, note=52, velocity=0, time=30),
    Message('note_on', channel=2, note=52, velocity=100, time=0),
    Message('note_on', channel=2, note=52, velocity=0, time=30),
    Message('note_on', channel=2, note=52, velocity=100, time=0),
    Message('note_on', channel=2, note=52, velocity=0, time=30),
    Message('note_on', channel=2, note=52, velocity=100, time=0),
    Message('note_on', channel=2, note=52, velocity=0, time=30),
    Message('note_on', channel=2, note=52, velocity=100, time=0),
    Message('note_on', channel=2, note=52, velocity=0, time=30),
    Message('note_on', channel=2, note=66, velocity=100, time=0),
    Message('note_on', channel=2, note=66, velocity=0, time=120),
    Message('note_on', channel=2, note=52, velocity=100, time=0),
    Message('note_on', channel=2, note=52, velocity=0, time=30),
    Message('note_on', channel=2, note=52, velocity=100, time=0),
    Message('note_on', channel=2, note=52, velocity=0, time=30),
    Message('note_on', channel=2, note=52, velocity=100, time=0),
    Message('note_on', channel=2, note=52, velocity=0, time=30),
    Message('note_on', channel=2, note=52, velocity=100, time=0),
    Message('note_on', channel=2, note=52, velocity=0, time=30),
    Message('note_on', channel=2, note=65, velocity=100, time=0),
    Message('note_on', channel=2, note=65, velocity=0, time=120),
    Message('note_on', channel=2, note=52, velocity=100, time=0),
    Message('note_on', channel=2, note=52, velocity=0, time=60),
    Message('note_on', channel=2, note=61, velocity=100, time=0),
    Message('note_on', channel=2, note=61, velocity=0, time=60),
    Message('note_on', channel=2, note=52, velocity=100, time=0),
    Message('note_on', channel=2, note=52, velocity=0, time=60),
    Message('note_on', channel=2, note=62, velocity=100, time=0),
    Message('note_on', channel=2, note=62, velocity=0, time=30),
    Message('note_on', channel=2, note=64, velocity=100, time=0),
    Message('note_on', channel=2, note=64, velocity=0, time=30),
    Message('note_on', channel=2, note=52, velocity=100, time=0),
    Message('note_on', channel=2, note=52, velocity=0, time=30),
    Message('note_on', channel=2, note=52, velocity=100, time=0),
    Message('note_on', channel=2, note=52, velocity=0, time=30),
    Message('note_on', channel=2, note=52, velocity=100, time=0),
    Message('note_on', channel=2, note=52, velocity=0, time=30),
    Message('note_on', channel=2, note=52, velocity=100, time=0),
    Message('note_on', channel=2, note=52, velocity=0, time=30),
    Message('note_on', channel=2, note=67, velocity=100, time=0),
    Message('note_on', channel=2, note=67, velocity=0, time=30),
    Message('note_on', channel=2, note=64, velocity=100, time=0),
    Message('note_on', channel=2, note=64, velocity=0, time=30),
    Message('note_on', channel=2, note=52, velocity=100, time=0),
    Message('note_on', channel=2, note=52, velocity=0, time=30),
    Message('note_on', channel=2, note=52, velocity=100, time=0),
    Message('note_on', channel=2, note=52, velocity=0, time=30),
    Message('note_on', channel=2, note=52, velocity=100, time=0),
    Message('note_on', channel=2, note=52, velocity=0, time=30),
    Message('note_on', channel=2, note=52, velocity=100, time=0),
    Message('note_on', channel=2, note=52, velocity=0, time=30),
    Message('note_on', channel=2, note=52, velocity=100, time=0),
    Message('note_on', channel=2, note=52, velocity=0, time=30),
    Message('note_on', channel=2, note=52, velocity=100, time=0),
    Message('note_on', channel=2, note=52, velocity=0, time=30),
    Message('note_on', channel=2, note=71, velocity=100, time=0),
    Message('note_on', channel=2, note=71, velocity=0, time=120),
    Message('note_on', channel=2, note=52, velocity=100, time=0),
    Message('note_on', channel=2, note=52, velocity=0, time=30),
    Message('note_on', channel=2, note=52, velocity=100, time=0),
    Message('note_on', channel=2, note=52, velocity=0, time=30),
    Message('note_on', channel=2, note=52, velocity=100, time=0),
    Message('note_on', channel=2, note=52, velocity=0, time=30),
    Message('note_on', channel=2, note=52, velocity=100, time=0),
    Message('note_on', channel=2, note=52, velocity=0, time=30),
    Message('note_on', channel=2, note=70, velocity=100, time=0),
    Message('note_on', channel=2, note=70, velocity=0, time=120),
    Message('note_on', channel=2, note=52, velocity=100, time=0),
    Message('note_on', channel=2, note=52, velocity=0, time=60),
    Message('note_on', channel=2, note=69, velocity=100, time=0),
    Message('note_on', channel=2, note=69, velocity=0, time=60),
    Message('note_on', channel=2, note=65, velocity=100, time=0),
    Message('note_on', channel=2, note=65, velocity=0, time=60),
    Message('note_on', channel=2, note=62, velocity=100, time=0),
    Message('note_on', channel=2, note=62, velocity=0, time=30),
    Message('note_on', channel=2, note=64, velocity=100, time=0),
    Message('note_on', channel=2, note=64, velocity=0, time=30),
    Message('note_on', channel=2, note=52, velocity=100, time=0),
    Message('note_on', channel=2, note=52, velocity=0, time=30),
    Message('note_on', channel=2, note=52, velocity=100, time=0),
    Message('note_on', channel=2, note=52, velocity=0, time=30),
    Message('note_on', channel=2, note=52, velocity=100, time=0),
    Message('note_on', channel=2, note=52, velocity=0, time=30),
    Message('note_on', channel=2, note=52, velocity=100, time=0),
    Message('note_on', channel=2, note=52, velocity=0, time=30),
    Message('note_on', channel=2, note=67, velocity=100, time=0),
    Message('note_on', channel=2, note=67, velocity=0, time=30),
    Message('note_on', channel=2, note=64, velocity=100, time=0),
    Message('note_on', channel=2, note=64, velocity=0, time=30),
    Message('note_on', channel=2, note=52, velocity=100, time=0),
    Message('note_on', channel=2, note=52, velocity=0, time=30),
    Message('note_on', channel=2, note=52, velocity=100, time=0),
    Message('note_on', channel=2, note=52, velocity=0, time=30),
    Message('note_on', channel=2, note=52, velocity=100, time=0),
    Message('note_on', channel=2, note=52, velocity=0, time=30),
    Message('note_on', channel=2, note=52, velocity=100, time=0),
    Message('note_on', channel=2, note=52, velocity=0, time=30),
    Message('note_on', channel=2, note=52, velocity=100, time=0),
    Message('note_on', channel=2, note=52, velocity=0, time=30),
    Message('note_on', channel=2, note=52, velocity=100, time=0),
    Message('note_on', channel=2, note=52, velocity=0, time=30),
    Message('note_on', channel=2, note=52, velocity=100, time=0),
    Message('note_on', channel=2, note=52, velocity=0, time=30),
    Message('note_on', channel=2, note=52, velocity=100, time=0),
    Message('note_on', channel=2, note=52, velocity=0, time=30),
    Message('note_on', channel=2, note=62, velocity=100, time=0),
    Message('note_on', channel=2, note=62, velocity=0, time=30),
    Message('note_on', channel=2, note=64, velocity=100, time=0),
    Message('note_on', channel=2, note=64, velocity=0, time=30),
    Message('note_on', channel=2, note=52, velocity=100, time=0),
    Message('note_on', channel=2, note=52, velocity=0, time=30),
    Message('note_on', channel=2, note=52, velocity=100, time=0),
    Message('note_on', channel=2, note=52, velocity=0, time=30),
    Message('note_on', channel=2, note=52, velocity=100, time=0),
    Message('note_on', channel=2, note=52, velocity=0, time=30),
    Message('note_on', channel=2, note=52, velocity=100, time=0),
    Message('note_on', channel=2, note=52, velocity=0, time=30),
    Message('note_on', channel=2, note=62, velocity=100, time=0),
    Message('note_on', channel=2, note=62, velocity=0, time=30),
    Message('note_on', channel=2, note=64, velocity=100, time=0),
    Message('note_on', channel=2, note=64, velocity=0, time=30),
    Message('note_on', channel=2, note=52, velocity=100, time=0),
    Message('note_on', channel=2, note=52, velocity=0, time=30),
    Message('note_on', channel=2, note=52, velocity=100, time=0),
    Message('note_on', channel=2, note=52, velocity=0, time=30),
    Message('note_on', channel=2, note=52, velocity=100, time=0),
    Message('note_on', channel=2, note=52, velocity=0, time=30),
    Message('note_on', channel=2, note=52, velocity=100, time=0),
    Message('note_on', channel=2, note=52, velocity=0, time=30),
    Message('note_on', channel=2, note=59, velocity=100, time=0),
    Message('note_on', channel=2, note=66, velocity=100, time=0),
    Message('note_on', channel=2, note=66, velocity=0, time=120),
    Message('note_on', channel=2, note=59, velocity=0, time=0),
    Message('note_on', channel=2, note=62, velocity=100, time=0),
    Message('note_on', channel=2, note=62, velocity=0, time=30),
    Message('note_on', channel=2, note=64, velocity=100, time=0),
    Message('note_on', channel=2, note=64, velocity=0, time=30),
    Message('note_on', channel=2, note=52, velocity=100, time=0),
    Message('note_on', channel=2, note=52, velocity=0, time=30),
    Message('note_on', channel=2, note=52, velocity=100, time=0),
    Message('note_on', channel=2, note=52, velocity=0, time=30),
    Message('note_on', channel=2, note=52, velocity=100, time=0),
    Message('note_on', channel=2, note=52, velocity=0, time=30),
    Message('note_on', channel=2, note=52, velocity=100, time=0),
    Message('note_on', channel=2, note=52, velocity=0, time=30),
    Message('note_on', channel=2, note=67, velocity=100, time=0),
    Message('note_on', channel=2, note=67, velocity=0, time=30),
    Message('note_on', channel=2, note=64, velocity=100, time=0),
    Message('note_on', channel=2, note=64, velocity=0, time=30),
    Message('note_on', channel=2, note=52, velocity=100, time=0),
    Message('note_on', channel=2, note=52, velocity=0, time=30),
    Message('note_on', channel=2, note=52, velocity=100, time=0),
    Message('note_on', channel=2, note=52, velocity=0, time=30),
    Message('note_on', channel=2, note=52, velocity=100, time=0),
    Message('note_on', channel=2, note=52, velocity=0, time=30),
    Message('note_on', channel=2, note=52, velocity=100, time=0),
    Message('note_on', channel=2, note=52, velocity=0, time=30),
    Message('note_on', channel=2, note=52, velocity=100, time=0),
    Message('note_on', channel=2, note=52, velocity=0, time=30),
    Message('note_on', channel=2, note=52, velocity=100, time=0),
    Message('note_on', channel=2, note=52, velocity=0, time=30),
    Message('note_on', channel=2, note=52, velocity=100, time=0),
    Message('note_on', channel=2, note=52, velocity=0, time=30),
    Message('note_on', channel=2, note=52, velocity=100, time=0),
    Message('note_on', channel=2, note=52, velocity=0, time=30),
    Message('note_on', channel=2, note=62, velocity=100, time=0),
    Message('note_on', channel=2, note=62, velocity=0, time=30),
    Message('note_on', channel=2, note=64, velocity=100, time=0),
    Message('note_on', channel=2, note=64, velocity=0, time=30),
    Message('note_on', channel=2, note=52, velocity=100, time=0),
    Message('note_on', channel=2, note=52, velocity=0, time=30),
    Message('note_on', channel=2, note=52, velocity=100, time=0),
    Message('note_on', channel=2, note=52, velocity=0, time=30),
    Message('note_on', channel=2, note=52, velocity=100, time=0),
    Message('note_on', channel=2, note=52, velocity=0, time=30),
    Message('note_on', channel=2, note=52, velocity=100, time=0),
    Message('note_on', channel=2, note=52, velocity=0, time=30),
    Message('note_on', channel=2, note=62, velocity=100, time=0),
    Message('note_on', channel=2, note=62, velocity=0, time=30),
    Message('note_on', channel=2, note=64, velocity=100, time=0),
    Message('note_on', channel=2, note=64, velocity=0, time=30),
    Message('note_on', channel=2, note=52, velocity=100, time=0),
    Message('note_on', channel=2, note=52, velocity=0, time=30),
    Message('note_on', channel=2, note=52, velocity=100, time=0),
    Message('note_on', channel=2, note=52, velocity=0, time=30),
    Message('note_on', channel=2, note=52, velocity=100, time=0),
    Message('note_on', channel=2, note=52, velocity=0, time=30),
    Message('note_on', channel=2, note=52, velocity=100, time=0),
    Message('note_on', channel=2, note=52, velocity=0, time=30),
    Message('note_on', channel=2, note=59, velocity=100, time=0),
    Message('note_on', channel=2, note=66, velocity=100, time=0),
    Message('note_on', channel=2, note=66, velocity=0, time=120),
    Message('note_on', channel=2, note=59, velocity=0, time=0),
    Message('note_on', channel=2, note=62, velocity=100, time=0),
    Message('note_on', channel=2, note=62, velocity=0, time=30),
    Message('note_on', channel=2, note=64, velocity=100, time=0),
    Message('note_on', channel=2, note=64, velocity=0, time=30),
    Message('note_on', channel=2, note=52, velocity=100, time=0),
    Message('note_on', channel=2, note=52, velocity=0, time=30),
    Message('note_on', channel=2, note=52, velocity=100, time=0),
    Message('note_on', channel=2, note=52, velocity=0, time=30),
    Message('note_on', channel=2, note=52, velocity=100, time=0),
    Message('note_on', channel=2, note=52, velocity=0, time=30),
    Message('note_on', channel=2, note=52, velocity=100, time=0),
    Message('note_on', channel=2, note=52, velocity=0, time=30),
    Message('note_on', channel=2, note=67, velocity=100, time=0),
    Message('note_on', channel=2, note=67, velocity=0, time=30),
    Message('note_on', channel=2, note=64, velocity=100, time=0),
    Message('note_on', channel=2, note=64, velocity=0, time=30),
    Message('note_on', channel=2, note=52, velocity=100, time=0),
    Message('note_on', channel=2, note=52, velocity=0, time=30),
    Message('note_on', channel=2, note=52, velocity=100, time=0),
    Message('note_on', channel=2, note=52, velocity=0, time=30),
    Message('note_on', channel=2, note=52, velocity=100, time=0),
    Message('note_on', channel=2, note=52, velocity=0, time=30),
    Message('note_on', channel=2, note=52, velocity=100, time=0),
    Message('note_on', channel=2, note=52, velocity=0, time=30),
    Message('note_on', channel=2, note=52, velocity=100, time=0),
    Message('note_on', channel=2, note=52, velocity=0, time=30),
    Message('note_on', channel=2, note=52, velocity=100, time=0),
    Message('note_on', channel=2, note=52, velocity=0, time=30),
    Message('note_on', channel=2, note=52, velocity=100, time=0),
    Message('note_on', channel=2, note=52, velocity=0, time=30),
    Message('note_on', channel=2, note=52, velocity=100, time=0),
    Message('note_on', channel=2, note=52, velocity=0, time=30),
    Message('note_on', channel=2, note=62, velocity=100, time=0),
    Message('note_on', channel=2, note=62, velocity=0, time=30),
    Message('note_on', channel=2, note=64, velocity=100, time=0),
    Message('note_on', channel=2, note=64, velocity=0, time=30),
    Message('note_on', channel=2, note=52, velocity=100, time=0),
    Message('note_on', channel=2, note=52, velocity=0, time=30),
    Message('note_on', channel=2, note=52, velocity=100, time=0),
    Message('note_on', channel=2, note=52, velocity=0, time=30),
    Message('note_on', channel=2, note=52, velocity=100, time=0),
    Message('note_on', channel=2, note=52, velocity=0, time=30),
    Message('note_on', channel=2, note=52, velocity=100, time=0),
    Message('note_on', channel=2, note=52, velocity=0, time=30),
    Message('note_on', channel=2, note=62, velocity=100, time=0),
    Message('note_on', channel=2, note=62, velocity=0, time=30),
    Message('note_on', channel=2, note=64, velocity=100, time=0),
    Message('note_on', channel=2, note=64, velocity=0, time=30),
    Message('note_on', channel=2, note=52, velocity=100, time=0),
    Message('note_on', channel=2, note=52, velocity=0, time=30),
    Message('note_on', channel=2, note=52, velocity=100, time=0),
    Message('note_on', channel=2, note=52, velocity=0, time=30),
    Message('note_on', channel=2, note=52, velocity=100, time=0),
    Message('note_on', channel=2, note=52, velocity=0, time=30),
    Message('note_on', channel=2, note=52, velocity=100, time=0),
    Message('note_on', channel=2, note=52, velocity=0, time=30),
    Message('note_on', channel=2, note=59, velocity=100, time=0),
    Message('note_on', channel=2, note=66, velocity=100, time=0),
    Message('note_on', channel=2, note=66, velocity=0, time=120),
    Message('note_on', channel=2, note=59, velocity=0, time=0),
    Message('note_on', channel=2, note=62, velocity=100, time=0),
    Message('note_on', channel=2, note=62, velocity=0, time=30),
    Message('note_on', channel=2, note=64, velocity=100, time=0),
    Message('note_on', channel=2, note=64, velocity=0, time=30),
    Message('note_on', channel=2, note=52, velocity=100, time=0),
    Message('note_on', channel=2, note=52, velocity=0, time=30),
    Message('note_on', channel=2, note=52, velocity=100, time=0),
    Message('note_on', channel=2, note=52, velocity=0, time=30),
    Message('note_on', channel=2, note=52, velocity=100, time=0),
    Message('note_on', channel=2, note=52, velocity=0, time=30),
    Message('note_on', channel=2, note=52, velocity=100, time=0),
    Message('note_on', channel=2, note=52, velocity=0, time=30),
    Message('note_on', channel=2, note=67, velocity=100, time=0),
    Message('note_on', channel=2, note=67, velocity=0, time=30),
    Message('note_on', channel=2, note=64, velocity=100, time=0),
    Message('note_on', channel=2, note=64, velocity=0, time=30),
    Message('note_on', channel=2, note=52, velocity=100, time=0),
    Message('note_on', channel=2, note=52, velocity=0, time=30),
    Message('note_on', channel=2, note=52, velocity=100, time=0),
    Message('note_on', channel=2, note=52, velocity=0, time=30),
    Message('note_on', channel=2, note=52, velocity=100, time=0),
    Message('note_on', channel=2, note=52, velocity=0, time=30),
    Message('note_on', channel=2, note=52, velocity=100, time=0),
    Message('note_on', channel=2, note=52, velocity=0, time=30),
    Message('note_on', channel=2, note=52, velocity=100, time=0),
    Message('note_on', channel=2, note=52, velocity=0, time=30),
    Message('note_on', channel=2, note=52, velocity=100, time=0),
    Message('note_on', channel=2, note=52, velocity=0, time=30),
    Message('note_on', channel=2, note=52, velocity=100, time=0),
    Message('note_on', channel=2, note=52, velocity=0, time=30),
    Message('note_on', channel=2, note=52, velocity=100, time=0),
    Message('note_on', channel=2, note=52, velocity=0, time=30),
    Message('note_on', channel=2, note=62, velocity=100, time=0),
    Message('note_on', channel=2, note=62, velocity=0, time=30),
    Message('note_on', channel=2, note=64, velocity=100, time=0),
    Message('note_on', channel=2, note=64, velocity=0, time=30),
    Message('note_on', channel=2, note=52, velocity=100, time=0),
    Message('note_on', channel=2, note=52, velocity=0, time=30),
    Message('note_on', channel=2, note=52, velocity=100, time=0),
    Message('note_on', channel=2, note=52, velocity=0, time=30),
    Message('note_on', channel=2, note=52, velocity=100, time=0),
    Message('note_on', channel=2, note=52, velocity=0, time=30),
    Message('note_on', channel=2, note=52, velocity=100, time=0),
    Message('note_on', channel=2, note=52, velocity=0, time=30),
    Message('note_on', channel=2, note=62, velocity=100, time=0),
    Message('note_on', channel=2, note=62, velocity=0, time=30),
    Message('note_on', channel=2, note=64, velocity=100, time=0),
    Message('note_on', channel=2, note=64, velocity=0, time=30),
    Message('note_on', channel=2, note=52, velocity=100, time=0),
    Message('note_on', channel=2, note=52, velocity=0, time=30),
    Message('note_on', channel=2, note=52, velocity=100, time=0),
    Message('note_on', channel=2, note=52, velocity=0, time=30),
    Message('note_on', channel=2, note=52, velocity=100, time=0),
    Message('note_on', channel=2, note=52, velocity=0, time=30),
    Message('note_on', channel=2, note=52, velocity=100, time=0),
    Message('note_on', channel=2, note=52, velocity=0, time=30),
    Message('note_on', channel=2, note=59, velocity=100, time=0),
    Message('note_on', channel=2, note=66, velocity=100, time=0),
    Message('note_on', channel=2, note=66, velocity=0, time=120),
    Message('note_on', channel=2, note=59, velocity=0, time=0),
    Message('note_on', channel=2, note=62, velocity=100, time=0),
    Message('note_on', channel=2, note=62, velocity=0, time=30),
    Message('note_on', channel=2, note=64, velocity=100, time=0),
    Message('note_on', channel=2, note=64, velocity=0, time=30),
    Message('note_on', channel=2, note=52, velocity=100, time=0),
    Message('note_on', channel=2, note=52, velocity=0, time=30),
    Message('note_on', channel=2, note=52, velocity=100, time=0),
    Message('note_on', channel=2, note=52, velocity=0, time=30),
    Message('note_on', channel=2, note=52, velocity=100, time=0),
    Message('note_on', channel=2, note=52, velocity=0, time=30),
    Message('note_on', channel=2, note=52, velocity=100, time=0),
    Message('note_on', channel=2, note=52, velocity=0, time=30),
    Message('note_on', channel=2, note=67, velocity=100, time=0),
    Message('note_on', channel=2, note=67, velocity=0, time=30),
    Message('note_on', channel=2, note=64, velocity=100, time=0),
    Message('note_on', channel=2, note=64, velocity=0, time=30),
    Message('note_on', channel=2, note=52, velocity=100, time=0),
    Message('note_on', channel=2, note=52, velocity=0, time=30),
    Message('note_on', channel=2, note=52, velocity=100, time=0),
    Message('note_on', channel=2, note=52, velocity=0, time=30),
    Message('note_on', channel=2, note=52, velocity=100, time=0),
    Message('note_on', channel=2, note=52, velocity=0, time=30),
    Message('note_on', channel=2, note=52, velocity=100, time=0),
    Message('note_on', channel=2, note=52, velocity=0, time=30),
    Message('note_on', channel=2, note=52, velocity=100, time=0),
    Message('note_on', channel=2, note=52, velocity=0, time=30),
    Message('note_on', channel=2, note=52, velocity=100, time=0),
    Message('note_on', channel=2, note=52, velocity=0, time=30),
    Message('note_on', channel=2, note=52, velocity=100, time=0),
    Message('note_on', channel=2, note=52, velocity=0, time=30),
    Message('note_on', channel=2, note=52, velocity=100, time=0),
    Message('note_on', channel=2, note=52, velocity=0, time=30),
    Message('note_on', channel=2, note=62, velocity=100, time=0),
    Message('note_on', channel=2, note=62, velocity=0, time=30),
    Message('note_on', channel=2, note=64, velocity=100, time=0),
    Message('note_on', channel=2, note=64, velocity=0, time=30),
    Message('note_on', channel=2, note=52, velocity=100, time=0),
    Message('note_on', channel=2, note=52, velocity=0, time=30),
    Message('note_on', channel=2, note=52, velocity=100, time=0),
    Message('note_on', channel=2, note=52, velocity=0, time=30),
    Message('note_on', channel=2, note=52, velocity=100, time=0),
    Message('note_on', channel=2, note=52, velocity=0, time=30),
    Message('note_on', channel=2, note=52, velocity=100, time=0),
    Message('note_on', channel=2, note=52, velocity=0, time=30),
    Message('note_on', channel=2, note=62, velocity=100, time=0),
    Message('note_on', channel=2, note=62, velocity=0, time=30),
    Message('note_on', channel=2, note=64, velocity=100, time=0),
    Message('note_on', channel=2, note=64, velocity=0, time=30),
    Message('note_on', channel=2, note=52, velocity=100, time=0),
    Message('note_on', channel=2, note=52, velocity=0, time=30),
    Message('note_on', channel=2, note=52, velocity=100, time=0),
    Message('note_on', channel=2, note=52, velocity=0, time=30),
    Message('note_on', channel=2, note=52, velocity=100, time=0),
    Message('note_on', channel=2, note=52, velocity=0, time=30),
    Message('note_on', channel=2, note=52, velocity=100, time=0),
    Message('note_on', channel=2, note=52, velocity=0, time=30),
    Message('note_on', channel=2, note=59, velocity=100, time=0),
    Message('note_on', channel=2, note=66, velocity=100, time=0),
    Message('note_on', channel=2, note=66, velocity=0, time=120),
    Message('note_on', channel=2, note=59, velocity=0, time=0),
    Message('note_on', channel=2, note=62, velocity=100, time=0),
    Message('note_on', channel=2, note=62, velocity=0, time=30),
    Message('note_on', channel=2, note=64, velocity=100, time=0),
    Message('note_on', channel=2, note=64, velocity=0, time=30),
    Message('note_on', channel=2, note=52, velocity=100, time=0),
    Message('note_on', channel=2, note=52, velocity=0, time=30),
    Message('note_on', channel=2, note=52, velocity=100, time=0),
    Message('note_on', channel=2, note=52, velocity=0, time=30),
    Message('note_on', channel=2, note=52, velocity=100, time=0),
    Message('note_on', channel=2, note=52, velocity=0, time=30),
    Message('note_on', channel=2, note=52, velocity=100, time=0),
    Message('note_on', channel=2, note=52, velocity=0, time=30),
    Message('note_on', channel=2, note=67, velocity=100, time=0),
    Message('note_on', channel=2, note=67, velocity=0, time=30),
    Message('note_on', channel=2, note=64, velocity=100, time=0),
    Message('note_on', channel=2, note=64, velocity=0, time=30),
    Message('note_on', channel=2, note=52, velocity=100, time=0),
    Message('note_on', channel=2, note=52, velocity=0, time=30),
    Message('note_on', channel=2, note=52, velocity=100, time=0),
    Message('note_on', channel=2, note=52, velocity=0, time=30),
    Message('note_on', channel=2, note=52, velocity=100, time=0),
    Message('note_on', channel=2, note=52, velocity=0, time=30),
    Message('note_on', channel=2, note=52, velocity=100, time=0),
    Message('note_on', channel=2, note=52, velocity=0, time=30),
    Message('note_on', channel=2, note=52, velocity=100, time=0),
    Message('note_on', channel=2, note=52, velocity=0, time=30),
    Message('note_on', channel=2, note=52, velocity=100, time=0),
    Message('note_on', channel=2, note=52, velocity=0, time=30),
    Message('note_on', channel=2, note=52, velocity=100, time=0),
    Message('note_on', channel=2, note=52, velocity=0, time=30),
    Message('note_on', channel=2, note=52, velocity=100, time=0),
    Message('note_on', channel=2, note=52, velocity=0, time=30),
    Message('note_on', channel=2, note=62, velocity=100, time=0),
    Message('note_on', channel=2, note=62, velocity=0, time=30),
    Message('note_on', channel=2, note=64, velocity=100, time=0),
    Message('note_on', channel=2, note=64, velocity=0, time=30),
    Message('note_on', channel=2, note=52, velocity=100, time=0),
    Message('note_on', channel=2, note=52, velocity=0, time=30),
    Message('note_on', channel=2, note=52, velocity=100, time=0),
    Message('note_on', channel=2, note=52, velocity=0, time=30),
    Message('note_on', channel=2, note=52, velocity=100, time=0),
    Message('note_on', channel=2, note=52, velocity=0, time=30),
    Message('note_on', channel=2, note=52, velocity=100, time=0),
    Message('note_on', channel=2, note=52, velocity=0, time=30),
    Message('note_on', channel=2, note=62, velocity=100, time=0),
    Message('note_on', channel=2, note=62, velocity=0, time=30),
    Message('note_on', channel=2, note=64, velocity=100, time=0),
    Message('note_on', channel=2, note=64, velocity=0, time=30),
    Message('note_on', channel=2, note=52, velocity=100, time=0),
    Message('note_on', channel=2, note=52, velocity=0, time=30),
    Message('note_on', channel=2, note=52, velocity=100, time=0),
    Message('note_on', channel=2, note=52, velocity=0, time=30),
    Message('note_on', channel=2, note=52, velocity=100, time=0),
    Message('note_on', channel=2, note=52, velocity=0, time=30),
    Message('note_on', channel=2, note=52, velocity=100, time=0),
    Message('note_on', channel=2, note=52, velocity=0, time=30),
    Message('note_on', channel=2, note=59, velocity=100, time=0),
    Message('note_on', channel=2, note=66, velocity=100, time=0),
    Message('note_on', channel=2, note=66, velocity=0, time=120),
    Message('note_on', channel=2, note=59, velocity=0, time=0),
    Message('note_on', channel=2, note=62, velocity=100, time=0),
    Message('note_on', channel=2, note=62, velocity=0, time=30),
    Message('note_on', channel=2, note=64, velocity=100, time=0),
    Message('note_on', channel=2, note=64, velocity=0, time=30),
    Message('note_on', channel=2, note=52, velocity=100, time=0),
    Message('note_on', channel=2, note=52, velocity=0, time=30),
    Message('note_on', channel=2, note=52, velocity=100, time=0),
    Message('note_on', channel=2, note=52, velocity=0, time=30),
    Message('note_on', channel=2, note=52, velocity=100, time=0),
    Message('note_on', channel=2, note=52, velocity=0, time=30),
    Message('note_on', channel=2, note=52, velocity=100, time=0),
    Message('note_on', channel=2, note=52, velocity=0, time=30),
    Message('note_on', channel=2, note=67, velocity=100, time=0),
    Message('note_on', channel=2, note=67, velocity=0, time=30),
    Message('note_on', channel=2, note=64, velocity=100, time=0),
    Message('note_on', channel=2, note=64, velocity=0, time=30),
    Message('note_on', channel=2, note=52, velocity=100, time=0),
    Message('note_on', channel=2, note=52, velocity=0, time=30),
    Message('note_on', channel=2, note=52, velocity=100, time=0),
    Message('note_on', channel=2, note=52, velocity=0, time=30),
    Message('note_on', channel=2, note=52, velocity=100, time=0),
    Message('note_on', channel=2, note=52, velocity=0, time=30),
    Message('note_on', channel=2, note=52, velocity=100, time=0),
    Message('note_on', channel=2, note=52, velocity=0, time=30),
    Message('note_on', channel=2, note=52, velocity=100, time=0),
    Message('note_on', channel=2, note=52, velocity=0, time=30),
    Message('note_on', channel=2, note=52, velocity=100, time=0),
    Message('note_on', channel=2, note=52, velocity=0, time=30),
    Message('note_on', channel=2, note=52, velocity=100, time=0),
    Message('note_on', channel=2, note=52, velocity=0, time=30),
    Message('note_on', channel=2, note=52, velocity=100, time=0),
    Message('note_on', channel=2, note=52, velocity=0, time=30),
    Message('note_on', channel=2, note=62, velocity=100, time=0),
    Message('note_on', channel=2, note=62, velocity=0, time=30),
    Message('note_on', channel=2, note=64, velocity=100, time=0),
    Message('note_on', channel=2, note=64, velocity=0, time=30),
    Message('note_on', channel=2, note=52, velocity=100, time=0),
    Message('note_on', channel=2, note=52, velocity=0, time=30),
    Message('note_on', channel=2, note=52, velocity=100, time=0),
    Message('note_on', channel=2, note=52, velocity=0, time=30),
    Message('note_on', channel=2, note=52, velocity=100, time=0),
    Message('note_on', channel=2, note=52, velocity=0, time=30),
    Message('note_on', channel=2, note=52, velocity=100, time=0),
    Message('note_on', channel=2, note=52, velocity=0, time=30),
    Message('note_on', channel=2, note=62, velocity=100, time=0),
    Message('note_on', channel=2, note=62, velocity=0, time=30),
    Message('note_on', channel=2, note=64, velocity=100, time=0),
    Message('note_on', channel=2, note=64, velocity=0, time=30),
    Message('note_on', channel=2, note=52, velocity=100, time=0),
    Message('note_on', channel=2, note=52, velocity=0, time=30),
    Message('note_on', channel=2, note=52, velocity=100, time=0),
    Message('note_on', channel=2, note=52, velocity=0, time=30),
    Message('note_on', channel=2, note=52, velocity=100, time=0),
    Message('note_on', channel=2, note=52, velocity=0, time=30),
    Message('note_on', channel=2, note=52, velocity=100, time=0),
    Message('note_on', channel=2, note=52, velocity=0, time=30),
    Message('note_on', channel=2, note=59, velocity=100, time=0),
    Message('note_on', channel=2, note=66, velocity=100, time=0),
    Message('note_on', channel=2, note=66, velocity=0, time=120),
    Message('note_on', channel=2, note=59, velocity=0, time=0),
    Message('note_on', channel=2, note=62, velocity=100, time=0),
    Message('note_on', channel=2, note=62, velocity=0, time=30),
    Message('note_on', channel=2, note=64, velocity=100, time=0),
    Message('note_on', channel=2, note=64, velocity=0, time=30),
    Message('note_on', channel=2, note=52, velocity=100, time=0),
    Message('note_on', channel=2, note=52, velocity=0, time=30),
    Message('note_on', channel=2, note=52, velocity=100, time=0),
    Message('note_on', channel=2, note=52, velocity=0, time=30),
    Message('note_on', channel=2, note=52, velocity=100, time=0),
    Message('note_on', channel=2, note=52, velocity=0, time=30),
    Message('note_on', channel=2, note=52, velocity=100, time=0),
    Message('note_on', channel=2, note=52, velocity=0, time=30),
    Message('note_on', channel=2, note=67, velocity=100, time=0),
    Message('note_on', channel=2, note=67, velocity=0, time=30),
    Message('note_on', channel=2, note=64, velocity=100, time=0),
    Message('note_on', channel=2, note=64, velocity=0, time=30),
    Message('note_on', channel=2, note=52, velocity=100, time=0),
    Message('note_on', channel=2, note=52, velocity=0, time=30),
    Message('note_on', channel=2, note=52, velocity=100, time=0),
    Message('note_on', channel=2, note=52, velocity=0, time=30),
    Message('note_on', channel=2, note=52, velocity=100, time=0),
    Message('note_on', channel=2, note=52, velocity=0, time=30),
    Message('note_on', channel=2, note=52, velocity=100, time=0),
    Message('note_on', channel=2, note=52, velocity=0, time=30),
    Message('note_on', channel=2, note=52, velocity=100, time=0),
    Message('note_on', channel=2, note=52, velocity=0, time=30),
    Message('note_on', channel=2, note=52, velocity=100, time=0),
    Message('note_on', channel=2, note=52, velocity=0, time=30),
    Message('note_on', channel=2, note=52, velocity=100, time=0),
    Message('note_on', channel=2, note=52, velocity=0, time=30),
    Message('note_on', channel=2, note=52, velocity=100, time=0),
    Message('note_on', channel=2, note=52, velocity=0, time=30),
    Message('note_on', channel=2, note=62, velocity=100, time=0),
    Message('note_on', channel=2, note=62, velocity=0, time=30),
    Message('note_on', channel=2, note=64, velocity=100, time=0),
    Message('note_on', channel=2, note=64, velocity=0, time=30),
    Message('note_on', channel=2, note=52, velocity=100, time=0),
    Message('note_on', channel=2, note=52, velocity=0, time=30),
    Message('note_on', channel=2, note=52, velocity=100, time=0),
    Message('note_on', channel=2, note=52, velocity=0, time=30),
    Message('note_on', channel=2, note=52, velocity=100, time=0),
    Message('note_on', channel=2, note=52, velocity=0, time=30),
    Message('note_on', channel=2, note=52, velocity=100, time=0),
    Message('note_on', channel=2, note=52, velocity=0, time=30),
    Message('note_on', channel=2, note=62, velocity=100, time=0),
    Message('note_on', channel=2, note=62, velocity=0, time=30),
    Message('note_on', channel=2, note=64, velocity=100, time=0),
    Message('note_on', channel=2, note=64, velocity=0, time=30),
    Message('note_on', channel=2, note=52, velocity=100, time=0),
    Message('note_on', channel=2, note=52, velocity=0, time=30),
    Message('note_on', channel=2, note=52, velocity=100, time=0),
    Message('note_on', channel=2, note=52, velocity=0, time=30),
    Message('note_on', channel=2, note=52, velocity=100, time=0),
    Message('note_on', channel=2, note=52, velocity=0, time=30),
    Message('note_on', channel=2, note=52, velocity=100, time=0),
    Message('note_on', channel=2, note=52, velocity=0, time=30),
    Message('note_on', channel=2, note=59, velocity=100, time=0),
    Message('note_on', channel=2, note=66, velocity=100, time=0),
    Message('note_on', channel=2, note=66, velocity=0, time=120),
    Message('note_on', channel=2, note=59, velocity=0, time=0),
    Message('note_on', channel=2, note=61, velocity=100, time=0),
    Message('note_on', channel=2, note=54, velocity=100, time=0),
    Message('note_on', channel=2, note=54, velocity=0, time=60),
    Message('note_on', channel=2, note=61, velocity=0, time=0),
    Message('note_on', channel=2, note=55, velocity=100, time=0),
    Message('note_on', channel=2, note=62, velocity=100, time=0),
    Message('note_on', channel=2, note=62, velocity=0, time=60),
    Message('note_on', channel=2, note=55, velocity=0, time=0),
    Message('note_on', channel=2, note=52, velocity=100, time=0),
    Message('note_on', channel=2, note=59, velocity=100, time=0),
    Message('note_on', channel=2, note=59, velocity=0, time=60),
    Message('note_on', channel=2, note=52, velocity=0, time=0),
    Message('note_on', channel=2, note=61, velocity=100, time=0),
    Message('note_on', channel=2, note=54, velocity=100, time=0),
    Message('note_on', channel=2, note=54, velocity=0, time=60),
    Message('note_on', channel=2, note=61, velocity=0, time=0),
    Message('note_on', channel=2, note=52, velocity=100, time=0),
    Message('note_on', channel=2, note=52, velocity=0, time=60),
    Message('note_on', channel=2, note=52, velocity=100, time=0),
    Message('note_on', channel=2, note=52, velocity=0, time=60),
    Message('note_on', channel=2, note=61, velocity=100, time=0),
    Message('note_on', channel=2, note=54, velocity=100, time=0),
    Message('note_on', channel=2, note=54, velocity=0, time=60),
    Message('note_on', channel=2, note=61, velocity=0, time=0),
    Message('note_on', channel=2, note=55, velocity=100, time=0),
    Message('note_on', channel=2, note=62, velocity=100, time=0),
    Message('note_on', channel=2, note=62, velocity=0, time=60),
    Message('note_on', channel=2, note=55, velocity=0, time=0),
    Message('note_on', channel=2, note=52, velocity=100, time=0),
    Message('note_on', channel=2, note=52, velocity=0, time=60),
    Message('note_on', channel=2, note=52, velocity=100, time=0),
    Message('note_on', channel=2, note=52, velocity=0, time=60),
    Message('note_on', channel=2, note=62, velocity=100, time=0),
    Message('note_on', channel=2, note=55, velocity=100, time=0),
    Message('note_on', channel=2, note=55, velocity=0, time=60),
    Message('note_on', channel=2, note=62, velocity=0, time=0),
    Message('note_on', channel=2, note=54, velocity=100, time=0),
    Message('note_on', channel=2, note=61, velocity=100, time=0),
    Message('note_on', channel=2, note=61, velocity=0, time=60),
    Message('note_on', channel=2, note=54, velocity=0, time=0),
    Message('note_on', channel=2, note=52, velocity=100, time=0),
    Message('note_on', channel=2, note=52, velocity=0, time=60),
    Message('note_on', channel=2, note=52, velocity=100, time=0),
    Message('note_on', channel=2, note=52, velocity=0, time=60),
    Message('note_on', channel=2, note=61, velocity=100, time=0),
    Message('note_on', channel=2, note=54, velocity=100, time=0),
    Message('note_on', channel=2, note=54, velocity=0, time=60),
    Message('note_on', channel=2, note=61, velocity=0, time=0),
    Message('note_on', channel=2, note=55, velocity=100, time=0),
    Message('note_on', channel=2, note=62, velocity=100, time=0),
    Message('note_on', channel=2, note=62, velocity=0, time=60),
    Message('note_on', channel=2, note=55, velocity=0, time=0),
    Message('note_on', channel=2, note=62, velocity=100, time=0),
    Message('note_on', channel=2, note=62, velocity=0, time=30),
    Message('note_on', channel=2, note=64, velocity=100, time=0),
    Message('note_on', channel=2, note=64, velocity=0, time=30),
    Message('note_on', channel=2, note=52, velocity=100, time=0),
    Message('note_on', channel=2, note=52, velocity=0, time=30),
    Message('note_on', channel=2, note=52, velocity=100, time=0),
    Message('note_on', channel=2, note=52, velocity=0, time=30),
    Message('note_on', channel=2, note=52, velocity=100, time=0),
    Message('note_on', channel=2, note=52, velocity=0, time=30),
    Message('note_on', channel=2, note=52, velocity=100, time=0),
    Message('note_on', channel=2, note=52, velocity=0, time=30),
    Message('note_on', channel=2, note=67, velocity=100, time=0),
    Message('note_on', channel=2, note=67, velocity=0, time=30),
    Message('note_on', channel=2, note=64, velocity=100, time=0),
    Message('note_on', channel=2, note=64, velocity=0, time=30),
    Message('note_on', channel=2, note=52, velocity=100, time=0),
    Message('note_on', channel=2, note=52, velocity=0, time=30),
    Message('note_on', channel=2, note=52, velocity=100, time=0),
    Message('note_on', channel=2, note=52, velocity=0, time=30),
    Message('note_on', channel=2, note=52, velocity=100, time=0),
    Message('note_on', channel=2, note=52, velocity=0, time=30),
    Message('note_on', channel=2, note=52, velocity=100, time=0),
    Message('note_on', channel=2, note=52, velocity=0, time=30),
    Message('note_on', channel=2, note=52, velocity=100, time=0),
    Message('note_on', channel=2, note=52, velocity=0, time=30),
    Message('note_on', channel=2, note=52, velocity=100, time=0),
    Message('note_on', channel=2, note=52, velocity=0, time=30),
    Message('note_on', channel=2, note=52, velocity=100, time=0),
    Message('note_on', channel=2, note=52, velocity=0, time=30),
    Message('note_on', channel=2, note=52, velocity=100, time=0),
    Message('note_on', channel=2, note=52, velocity=0, time=30),
    Message('note_on', channel=2, note=62, velocity=100, time=0),
    Message('note_on', channel=2, note=62, velocity=0, time=30),
    Message('note_on', channel=2, note=64, velocity=100, time=0),
    Message('note_on', channel=2, note=64, velocity=0, time=30),
    Message('note_on', channel=2, note=52, velocity=100, time=0),
    Message('note_on', channel=2, note=52, velocity=0, time=30),
    Message('note_on', channel=2, note=52, velocity=100, time=0),
    Message('note_on', channel=2, note=52, velocity=0, time=30),
    Message('note_on', channel=2, note=52, velocity=100, time=0),
    Message('note_on', channel=2, note=52, velocity=0, time=30),
    Message('note_on', channel=2, note=52, velocity=100, time=0),
    Message('note_on', channel=2, note=52, velocity=0, time=30),
    Message('note_on', channel=2, note=62, velocity=100, time=0),
    Message('note_on', channel=2, note=62, velocity=0, time=30),
    Message('note_on', channel=2, note=64, velocity=100, time=0),
    Message('note_on', channel=2, note=64, velocity=0, time=30),
    Message('note_on', channel=2, note=52, velocity=100, time=0),
    Message('note_on', channel=2, note=52, velocity=0, time=30),
    Message('note_on', channel=2, note=52, velocity=100, time=0),
    Message('note_on', channel=2, note=52, velocity=0, time=30),
    Message('note_on', channel=2, note=52, velocity=100, time=0),
    Message('note_on', channel=2, note=52, velocity=0, time=30),
    Message('note_on', channel=2, note=52, velocity=100, time=0),
    Message('note_on', channel=2, note=52, velocity=0, time=30),
    Message('note_on', channel=2, note=62, velocity=100, time=0),
    Message('note_on', channel=2, note=55, velocity=100, time=0),
    Message('note_on', channel=2, note=55, velocity=0, time=120),
    Message('note_on', channel=2, note=62, velocity=0, time=0),
    Message('note_on', channel=2, note=61, velocity=100, time=0),
    Message('note_on', channel=2, note=54, velocity=100, time=0),
    Message('note_on', channel=2, note=54, velocity=0, time=60),
    Message('note_on', channel=2, note=61, velocity=0, time=0),
    Message('note_on', channel=2, note=55, velocity=100, time=0),
    Message('note_on', channel=2, note=62, velocity=100, time=0),
    Message('note_on', channel=2, note=62, velocity=0, time=60),
    Message('note_on', channel=2, note=55, velocity=0, time=0),
    Message('note_on', channel=2, note=52, velocity=100, time=0),
    Message('note_on', channel=2, note=59, velocity=100, time=0),
    Message('note_on', channel=2, note=59, velocity=0, time=60),
    Message('note_on', channel=2, note=52, velocity=0, time=0),
    Message('note_on', channel=2, note=61, velocity=100, time=0),
    Message('note_on', channel=2, note=54, velocity=100, time=0),
    Message('note_on', channel=2, note=54, velocity=0, time=60),
    Message('note_on', channel=2, note=61, velocity=0, time=0),
    Message('note_on', channel=2, note=52, velocity=100, time=0),
    Message('note_on', channel=2, note=52, velocity=0, time=60),
    Message('note_on', channel=2, note=52, velocity=100, time=0),
    Message('note_on', channel=2, note=52, velocity=0, time=60),
    Message('note_on', channel=2, note=61, velocity=100, time=0),
    Message('note_on', channel=2, note=54, velocity=100, time=0),
    Message('note_on', channel=2, note=54, velocity=0, time=60),
    Message('note_on', channel=2, note=61, velocity=0, time=0),
    Message('note_on', channel=2, note=55, velocity=100, time=0),
    Message('note_on', channel=2, note=62, velocity=100, time=0),
    Message('note_on', channel=2, note=62, velocity=0, time=60),
    Message('note_on', channel=2, note=55, velocity=0, time=0),
    Message('note_on', channel=2, note=52, velocity=100, time=0),
    Message('note_on', channel=2, note=52, velocity=0, time=60),
    Message('note_on', channel=2, note=52, velocity=100, time=0),
    Message('note_on', channel=2, note=52, velocity=0, time=60),
    Message('note_on', channel=2, note=62, velocity=100, time=0),
    Message('note_on', channel=2, note=55, velocity=100, time=0),
    Message('note_on', channel=2, note=55, velocity=0, time=60),
    Message('note_on', channel=2, note=62, velocity=0, time=0),
    Message('note_on', channel=2, note=54, velocity=100, time=0),
    Message('note_on', channel=2, note=61, velocity=100, time=0),
    Message('note_on', channel=2, note=61, velocity=0, time=60),
    Message('note_on', channel=2, note=54, velocity=0, time=0),
    Message('note_on', channel=2, note=52, velocity=100, time=0),
    Message('note_on', channel=2, note=52, velocity=0, time=60),
    Message('note_on', channel=2, note=52, velocity=100, time=0),
    Message('note_on', channel=2, note=52, velocity=0, time=60),
    Message('note_on', channel=2, note=61, velocity=100, time=0),
    Message('note_on', channel=2, note=54, velocity=100, time=0),
    Message('note_on', channel=2, note=54, velocity=0, time=60),
    Message('note_on', channel=2, note=61, velocity=0, time=0),
    Message('note_on', channel=2, note=55, velocity=100, time=0),
    Message('note_on', channel=2, note=62, velocity=100, time=0),
    Message('note_on', channel=2, note=62, velocity=0, time=60),
    Message('note_on', channel=2, note=55, velocity=0, time=0),
    Message('note_on', channel=2, note=62, velocity=100, time=0),
    Message('note_on', channel=2, note=62, velocity=0, time=30),
    Message('note_on', channel=2, note=64, velocity=100, time=0),
    Message('note_on', channel=2, note=64, velocity=0, time=30),
    Message('note_on', channel=2, note=52, velocity=100, time=0),
    Message('note_on', channel=2, note=52, velocity=0, time=30),
    Message('note_on', channel=2, note=52, velocity=100, time=0),
    Message('note_on', channel=2, note=52, velocity=0, time=30),
    Message('note_on', channel=2, note=52, velocity=100, time=0),
    Message('note_on', channel=2, note=52, velocity=0, time=30),
    Message('note_on', channel=2, note=52, velocity=100, time=0),
    Message('note_on', channel=2, note=52, velocity=0, time=30),
    Message('note_on', channel=2, note=67, velocity=100, time=0),
    Message('note_on', channel=2, note=67, velocity=0, time=30),
    Message('note_on', channel=2, note=64, velocity=100, time=0),
    Message('note_on', channel=2, note=64, velocity=0, time=30),
    Message('note_on', channel=2, note=52, velocity=100, time=0),
    Message('note_on', channel=2, note=52, velocity=0, time=30),
    Message('note_on', channel=2, note=52, velocity=100, time=0),
    Message('note_on', channel=2, note=52, velocity=0, time=30),
    Message('note_on', channel=2, note=52, velocity=100, time=0),
    Message('note_on', channel=2, note=52, velocity=0, time=30),
    Message('note_on', channel=2, note=52, velocity=100, time=0),
    Message('note_on', channel=2, note=52, velocity=0, time=30),
    Message('note_on', channel=2, note=52, velocity=100, time=0),
    Message('note_on', channel=2, note=52, velocity=0, time=30),
    Message('note_on', channel=2, note=52, velocity=100, time=0),
    Message('note_on', channel=2, note=52, velocity=0, time=30),
    Message('note_on', channel=2, note=52, velocity=100, time=0),
    Message('note_on', channel=2, note=52, velocity=0, time=30),
    Message('note_on', channel=2, note=52, velocity=100, time=0),
    Message('note_on', channel=2, note=52, velocity=0, time=30),
    Message('note_on', channel=2, note=62, velocity=100, time=0),
    Message('note_on', channel=2, note=62, velocity=0, time=30),
    Message('note_on', channel=2, note=64, velocity=100, time=0),
    Message('note_on', channel=2, note=64, velocity=0, time=30),
    Message('note_on', channel=2, note=52, velocity=100, time=0),
    Message('note_on', channel=2, note=52, velocity=0, time=30),
    Message('note_on', channel=2, note=52, velocity=100, time=0),
    Message('note_on', channel=2, note=52, velocity=0, time=30),
    Message('note_on', channel=2, note=52, velocity=100, time=0),
    Message('note_on', channel=2, note=52, velocity=0, time=30),
    Message('note_on', channel=2, note=52, velocity=100, time=0),
    Message('note_on', channel=2, note=52, velocity=0, time=30),
    Message('note_on', channel=2, note=62, velocity=100, time=0),
    Message('note_on', channel=2, note=62, velocity=0, time=30),
    Message('note_on', channel=2, note=64, velocity=100, time=0),
    Message('note_on', channel=2, note=64, velocity=0, time=30),
    Message('note_on', channel=2, note=52, velocity=100, time=0),
    Message('note_on', channel=2, note=52, velocity=0, time=30),
    Message('note_on', channel=2, note=52, velocity=100, time=0),
    Message('note_on', channel=2, note=52, velocity=0, time=30),
    Message('note_on', channel=2, note=52, velocity=100, time=0),
    Message('note_on', channel=2, note=52, velocity=0, time=30),
    Message('note_on', channel=2, note=52, velocity=100, time=0),
    Message('note_on', channel=2, note=52, velocity=0, time=30),
    Message('note_on', channel=2, note=62, velocity=100, time=0),
    Message('note_on', channel=2, note=55, velocity=100, time=0),
    Message('note_on', channel=2, note=55, velocity=0, time=120),
    Message('note_on', channel=2, note=62, velocity=0, time=0),
    Message('note_on', channel=2, note=61, velocity=100, time=0),
    Message('note_on', channel=2, note=54, velocity=100, time=0),
    Message('note_on', channel=2, note=54, velocity=0, time=60),
    Message('note_on', channel=2, note=61, velocity=0, time=0),
    Message('note_on', channel=2, note=55, velocity=100, time=0),
    Message('note_on', channel=2, note=62, velocity=100, time=0),
    Message('note_on', channel=2, note=62, velocity=0, time=60),
    Message('note_on', channel=2, note=55, velocity=0, time=0),
    Message('note_on', channel=2, note=52, velocity=100, time=0),
    Message('note_on', channel=2, note=59, velocity=100, time=0),
    Message('note_on', channel=2, note=59, velocity=0, time=60),
    Message('note_on', channel=2, note=52, velocity=0, time=0),
    Message('note_on', channel=2, note=61, velocity=100, time=0),
    Message('note_on', channel=2, note=54, velocity=100, time=0),
    Message('note_on', channel=2, note=54, velocity=0, time=60),
    Message('note_on', channel=2, note=61, velocity=0, time=0),
    Message('note_on', channel=2, note=52, velocity=100, time=0),
    Message('note_on', channel=2, note=52, velocity=0, time=60),
    Message('note_on', channel=2, note=52, velocity=100, time=0),
    Message('note_on', channel=2, note=52, velocity=0, time=60),
    Message('note_on', channel=2, note=61, velocity=100, time=0),
    Message('note_on', channel=2, note=54, velocity=100, time=0),
    Message('note_on', channel=2, note=54, velocity=0, time=60),
    Message('note_on', channel=2, note=61, velocity=0, time=0),
    Message('note_on', channel=2, note=55, velocity=100, time=0),
    Message('note_on', channel=2, note=62, velocity=100, time=0),
    Message('note_on', channel=2, note=62, velocity=0, time=60),
    Message('note_on', channel=2, note=55, velocity=0, time=0),
    Message('note_on', channel=2, note=52, velocity=100, time=0),
    Message('note_on', channel=2, note=52, velocity=0, time=60),
    Message('note_on', channel=2, note=52, velocity=100, time=0),
    Message('note_on', channel=2, note=52, velocity=0, time=60),
    Message('note_on', channel=2, note=62, velocity=100, time=0),
    Message('note_on', channel=2, note=55, velocity=100, time=0),
    Message('note_on', channel=2, note=55, velocity=0, time=60),
    Message('note_on', channel=2, note=62, velocity=0, time=0),
    Message('note_on', channel=2, note=54, velocity=100, time=0),
    Message('note_on', channel=2, note=61, velocity=100, time=0),
    Message('note_on', channel=2, note=61, velocity=0, time=60),
    Message('note_on', channel=2, note=54, velocity=0, time=0),
    Message('note_on', channel=2, note=52, velocity=100, time=0),
    Message('note_on', channel=2, note=52, velocity=0, time=60),
    Message('note_on', channel=2, note=52, velocity=100, time=0),
    Message('note_on', channel=2, note=52, velocity=0, time=60),
    Message('note_on', channel=2, note=61, velocity=100, time=0),
    Message('note_on', channel=2, note=54, velocity=100, time=0),
    Message('note_on', channel=2, note=54, velocity=0, time=60),
    Message('note_on', channel=2, note=61, velocity=0, time=0),
    Message('note_on', channel=2, note=55, velocity=100, time=0),
    Message('note_on', channel=2, note=62, velocity=100, time=0),
    Message('note_on', channel=2, note=62, velocity=0, time=60),
    Message('note_on', channel=2, note=55, velocity=0, time=0),
    Message('note_on', channel=2, note=62, velocity=100, time=0),
    Message('note_on', channel=2, note=62, velocity=0, time=30),
    Message('note_on', channel=2, note=64, velocity=100, time=0),
    Message('note_on', channel=2, note=64, velocity=0, time=30),
    Message('note_on', channel=2, note=52, velocity=100, time=0),
    Message('note_on', channel=2, note=52, velocity=0, time=30),
    Message('note_on', channel=2, note=52, velocity=100, time=0),
    Message('note_on', channel=2, note=52, velocity=0, time=30),
    Message('note_on', channel=2, note=52, velocity=100, time=0),
    Message('note_on', channel=2, note=52, velocity=0, time=30),
    Message('note_on', channel=2, note=52, velocity=100, time=0),
    Message('note_on', channel=2, note=52, velocity=0, time=30),
    Message('note_on', channel=2, note=67, velocity=100, time=0),
    Message('note_on', channel=2, note=67, velocity=0, time=30),
    Message('note_on', channel=2, note=64, velocity=100, time=0),
    Message('note_on', channel=2, note=64, velocity=0, time=30),
    Message('note_on', channel=2, note=52, velocity=100, time=0),
    Message('note_on', channel=2, note=52, velocity=0, time=30),
    Message('note_on', channel=2, note=52, velocity=100, time=0),
    Message('note_on', channel=2, note=52, velocity=0, time=30),
    Message('note_on', channel=2, note=52, velocity=100, time=0),
    Message('note_on', channel=2, note=52, velocity=0, time=30),
    Message('note_on', channel=2, note=52, velocity=100, time=0),
    Message('note_on', channel=2, note=52, velocity=0, time=30),
    Message('note_on', channel=2, note=52, velocity=100, time=0),
    Message('note_on', channel=2, note=52, velocity=0, time=30),
    Message('note_on', channel=2, note=52, velocity=100, time=0),
    Message('note_on', channel=2, note=52, velocity=0, time=30),
    Message('note_on', channel=2, note=52, velocity=100, time=0),
    Message('note_on', channel=2, note=52, velocity=0, time=30),
    Message('note_on', channel=2, note=52, velocity=100, time=0),
    Message('note_on', channel=2, note=52, velocity=0, time=30),
    Message('note_on', channel=2, note=62, velocity=100, time=0),
    Message('note_on', channel=2, note=62, velocity=0, time=30),
    Message('note_on', channel=2, note=64, velocity=100, time=0),
    Message('note_on', channel=2, note=64, velocity=0, time=30),
    Message('note_on', channel=2, note=52, velocity=100, time=0),
    Message('note_on', channel=2, note=52, velocity=0, time=30),
    Message('note_on', channel=2, note=52, velocity=100, time=0),
    Message('note_on', channel=2, note=52, velocity=0, time=30),
    Message('note_on', channel=2, note=52, velocity=100, time=0),
    Message('note_on', channel=2, note=52, velocity=0, time=30),
    Message('note_on', channel=2, note=52, velocity=100, time=0),
    Message('note_on', channel=2, note=52, velocity=0, time=30),
    Message('note_on', channel=2, note=62, velocity=100, time=0),
    Message('note_on', channel=2, note=62, velocity=0, time=30),
    Message('note_on', channel=2, note=64, velocity=100, time=0),
    Message('note_on', channel=2, note=64, velocity=0, time=30),
    Message('note_on', channel=2, note=52, velocity=100, time=0),
    Message('note_on', channel=2, note=52, velocity=0, time=30),
    Message('note_on', channel=2, note=52, velocity=100, time=0),
    Message('note_on', channel=2, note=52, velocity=0, time=30),
    Message('note_on', channel=2, note=52, velocity=100, time=0),
    Message('note_on', channel=2, note=52, velocity=0, time=30),
    Message('note_on', channel=2, note=52, velocity=100, time=0),
    Message('note_on', channel=2, note=52, velocity=0, time=30),
    Message('note_on', channel=2, note=62, velocity=100, time=0),
    Message('note_on', channel=2, note=55, velocity=100, time=0),
    Message('note_on', channel=2, note=55, velocity=0, time=120),
    Message('note_on', channel=2, note=62, velocity=0, time=0),
    Message('note_on', channel=2, note=61, velocity=100, time=0),
    Message('note_on', channel=2, note=54, velocity=100, time=0),
    Message('note_on', channel=2, note=54, velocity=0, time=60),
    Message('note_on', channel=2, note=61, velocity=0, time=0),
    Message('note_on', channel=2, note=55, velocity=100, time=0),
    Message('note_on', channel=2, note=62, velocity=100, time=0),
    Message('note_on', channel=2, note=62, velocity=0, time=60),
    Message('note_on', channel=2, note=55, velocity=0, time=0),
    Message('note_on', channel=2, note=52, velocity=100, time=0),
    Message('note_on', channel=2, note=59, velocity=100, time=0),
    Message('note_on', channel=2, note=59, velocity=0, time=60),
    Message('note_on', channel=2, note=52, velocity=0, time=0),
    Message('note_on', channel=2, note=61, velocity=100, time=0),
    Message('note_on', channel=2, note=54, velocity=100, time=0),
    Message('note_on', channel=2, note=54, velocity=0, time=60),
    Message('note_on', channel=2, note=61, velocity=0, time=0),
    Message('note_on', channel=2, note=52, velocity=100, time=0),
    Message('note_on', channel=2, note=52, velocity=0, time=60),
    Message('note_on', channel=2, note=52, velocity=100, time=0),
    Message('note_on', channel=2, note=52, velocity=0, time=60),
    Message('note_on', channel=2, note=61, velocity=100, time=0),
    Message('note_on', channel=2, note=54, velocity=100, time=0),
    Message('note_on', channel=2, note=54, velocity=0, time=60),
    Message('note_on', channel=2, note=61, velocity=0, time=0),
    Message('note_on', channel=2, note=55, velocity=100, time=0),
    Message('note_on', channel=2, note=62, velocity=100, time=0),
    Message('note_on', channel=2, note=62, velocity=0, time=60),
    Message('note_on', channel=2, note=55, velocity=0, time=0),
    Message('note_on', channel=2, note=52, velocity=100, time=0),
    Message('note_on', channel=2, note=52, velocity=0, time=60),
    Message('note_on', channel=2, note=52, velocity=100, time=0),
    Message('note_on', channel=2, note=52, velocity=0, time=60),
    Message('note_on', channel=2, note=62, velocity=100, time=0),
    Message('note_on', channel=2, note=55, velocity=100, time=0),
    Message('note_on', channel=2, note=55, velocity=0, time=60),
    Message('note_on', channel=2, note=62, velocity=0, time=0),
    Message('note_on', channel=2, note=54, velocity=100, time=0),
    Message('note_on', channel=2, note=61, velocity=100, time=0),
    Message('note_on', channel=2, note=61, velocity=0, time=60),
    Message('note_on', channel=2, note=54, velocity=0, time=0),
    Message('note_on', channel=2, note=52, velocity=100, time=0),
    Message('note_on', channel=2, note=52, velocity=0, time=60),
    Message('note_on', channel=2, note=52, velocity=100, time=0),
    Message('note_on', channel=2, note=52, velocity=0, time=60),
    Message('note_on', channel=2, note=61, velocity=100, time=0),
    Message('note_on', channel=2, note=54, velocity=100, time=0),
    Message('note_on', channel=2, note=54, velocity=0, time=60),
    Message('note_on', channel=2, note=61, velocity=0, time=0),
    Message('note_on', channel=2, note=62, velocity=100, time=0),
    Message('note_on', channel=2, note=62, velocity=0, time=30),
    Message('note_on', channel=2, note=63, velocity=100, time=0),
    Message('note_on', channel=2, note=63, velocity=0, time=30),
    Message('note_on', channel=2, note=64, velocity=100, time=0),
    Message('note_on', channel=2, note=64, velocity=0, time=60),
    Message('note_on', channel=2, note=52, velocity=100, time=0),
    Message('note_on', channel=2, note=52, velocity=0, time=30),
    Message('note_on', channel=2, note=52, velocity=100, time=0),
    Message('note_on', channel=2, note=52, velocity=0, time=30),
    Message('note_on', channel=2, note=52, velocity=100, time=0),
    Message('note_on', channel=2, note=52, velocity=0, time=60),
    Message('note_on', channel=2, note=71, velocity=100, time=0),
    Message('note_on', channel=2, note=67, velocity=100, time=0),
    Message('note_on', channel=2, note=67, velocity=0, time=60),
    Message('note_on', channel=2, note=71, velocity=0, time=0),
    Message('note_on', channel=2, note=52, velocity=100, time=0),
    Message('note_on', channel=2, note=52, velocity=0, time=60),
    Message('note_on', channel=2, note=70, velocity=100, time=0),
    Message('note_on', channel=2, note=66, velocity=100, time=0),
    Message('note_on', channel=2, note=66, velocity=0, time=60),
    Message('note_on', channel=2, note=70, velocity=0, time=0),
    Message('note_on', channel=2, note=52, velocity=100, time=0),
    Message('note_on', channel=2, note=52, velocity=0, time=60),
    Message('note_on', channel=2, note=62, velocity=100, time=0),
    Message('note_on', channel=2, note=62, velocity=0, time=30),
    Message('note_on', channel=2, note=63, velocity=100, time=0),
    Message('note_on', channel=2, note=63, velocity=0, time=30),
    Message('note_on', channel=2, note=64, velocity=100, time=0),
    Message('note_on', channel=2, note=64, velocity=0, time=60),
    Message('note_on', channel=2, note=52, velocity=100, time=0),
    Message('note_on', channel=2, note=52, velocity=0, time=30),
    Message('note_on', channel=2, note=52, velocity=100, time=0),
    Message('note_on', channel=2, note=52, velocity=0, time=30),
    Message('note_on', channel=2, note=52, velocity=100, time=0),
    Message('note_on', channel=2, note=52, velocity=0, time=60),
    Message('note_on', channel=2, note=58, velocity=100, time=0),
    Message('note_on', channel=2, note=58, velocity=0, time=120),
    Message('note_on', channel=2, note=59, velocity=100, time=0),
    Message('note_on', channel=2, note=59, velocity=0, time=60),
    Message('note_on', channel=2, note=58, velocity=100, time=0),
    Message('note_on', channel=2, note=58, velocity=0, time=60),
    Message('note_on', channel=2, note=62, velocity=100, time=0),
    Message('note_on', channel=2, note=62, velocity=0, time=30),
    Message('note_on', channel=2, note=63, velocity=100, time=0),
    Message('note_on', channel=2, note=63, velocity=0, time=30),
    Message('note_on', channel=2, note=64, velocity=100, time=0),
    Message('note_on', channel=2, note=64, velocity=0, time=60),
    Message('note_on', channel=2, note=52, velocity=100, time=0),
    Message('note_on', channel=2, note=52, velocity=0, time=30),
    Message('note_on', channel=2, note=52, velocity=100, time=0),
    Message('note_on', channel=2, note=52, velocity=0, time=30),
    Message('note_on', channel=2, note=52, velocity=100, time=0),
    Message('note_on', channel=2, note=52, velocity=0, time=60),
    Message('note_on', channel=2, note=71, velocity=100, time=0),
    Message('note_on', channel=2, note=64, velocity=100, time=0),
    Message('note_on', channel=2, note=64, velocity=0, time=60),
    Message('note_on', channel=2, note=71, velocity=0, time=0),
    Message('note_on', channel=2, note=52, velocity=100, time=0),
    Message('note_on', channel=2, note=52, velocity=0, time=60),
    Message('note_on', channel=2, note=70, velocity=100, time=0),
    Message('note_on', channel=2, note=63, velocity=100, time=0),
    Message('note_on', channel=2, note=63, velocity=0, time=60),
    Message('note_on', channel=2, note=70, velocity=0, time=0),
    Message('note_on', channel=2, note=52, velocity=100, time=0),
    Message('note_on', channel=2, note=52, velocity=0, time=60),
    Message('note_on', channel=2, note=62, velocity=100, time=0),
    Message('note_on', channel=2, note=62, velocity=0, time=30),
    Message('note_on', channel=2, note=63, velocity=100, time=0),
    Message('note_on', channel=2, note=63, velocity=0, time=30),
    Message('note_on', channel=2, note=64, velocity=100, time=0),
    Message('note_on', channel=2, note=64, velocity=0, time=60),
    Message('note_on', channel=2, note=52, velocity=100, time=0),
    Message('note_on', channel=2, note=52, velocity=0, time=30),
    Message('note_on', channel=2, note=52, velocity=100, time=0),
    Message('note_on', channel=2, note=52, velocity=0, time=30),
    Message('note_on', channel=2, note=52, velocity=100, time=0),
    Message('note_on', channel=2, note=52, velocity=0, time=60),
    Message('note_on', channel=2, note=54, velocity=100, time=0),
    Message('note_on', channel=2, note=61, velocity=100, time=0),
    Message('note_on', channel=2, note=61, velocity=0, time=120),
    Message('note_on', channel=2, note=54, velocity=0, time=0),
    Message('note_on', channel=2, note=59, velocity=100, time=0),
    Message('note_on', channel=2, note=52, velocity=100, time=0),
    Message('note_on', channel=2, note=52, velocity=0, time=60),
    Message('note_on', channel=2, note=59, velocity=0, time=0),
    Message('note_on', channel=2, note=61, velocity=100, time=0),
    Message('note_on', channel=2, note=54, velocity=100, time=0),
    Message('note_on', channel=2, note=54, velocity=0, time=60),
    Message('note_on', channel=2, note=61, velocity=0, time=0),
    Message('note_on', channel=2, note=55, velocity=100, time=0),
    Message('note_on', channel=2, note=62, velocity=100, time=0),
    Message('note_on', channel=2, note=62, velocity=0, time=60),
    Message('note_on', channel=2, note=55, velocity=0, time=0),
    Message('note_on', channel=2, note=64, velocity=100, time=0),
    Message('note_on', channel=2, note=57, velocity=100, time=0),
    Message('note_on', channel=2, note=57, velocity=0, time=60),
    Message('note_on', channel=2, note=64, velocity=0, time=0),
    Message('note_on', channel=2, note=52, velocity=100, time=0),
    Message('note_on', channel=2, note=52, velocity=0, time=30),
    Message('note_on', channel=2, note=52, velocity=100, time=0),
    Message('note_on', channel=2, note=52, velocity=0, time=30),
    Message('note_on', channel=2, note=52, velocity=100, time=0),
    Message('note_on', channel=2, note=52, velocity=0, time=30),
    Message('note_on', channel=2, note=52, velocity=100, time=0),
    Message('note_on', channel=2, note=52, velocity=0, time=30),
    Message('note_on', channel=2, note=57, velocity=100, time=0),
    Message('note_on', channel=2, note=64, velocity=100, time=0),
    Message('note_on', channel=2, note=64, velocity=0, time=120),
    Message('note_on', channel=2, note=57, velocity=0, time=0),
    Message('note_on', channel=2, note=52, velocity=100, time=0),
    Message('note_on', channel=2, note=52, velocity=0, time=60),
    Message('note_on', channel=2, note=55, velocity=100, time=0),
    Message('note_on', channel=2, note=55, velocity=0, time=60),
    Message('note_on', channel=2, note=57, velocity=100, time=0),
    Message('note_on', channel=2, note=57, velocity=0, time=60),
    Message('note_on', channel=2, note=65, velocity=100, time=0),
    Message('note_on', channel=2, note=58, velocity=100, time=0),
    Message('note_on', channel=2, note=58, velocity=0, time=60),
    Message('note_on', channel=2, note=65, velocity=0, time=0),
    Message('note_on', channel=2, note=52, velocity=100, time=0),
    Message('note_on', channel=2, note=52, velocity=0, time=30),
    Message('note_on', channel=2, note=52, velocity=100, time=0),
    Message('note_on', channel=2, note=52, velocity=0, time=30),
    Message('note_on', channel=2, note=52, velocity=100, time=0),
    Message('note_on', channel=2, note=52, velocity=0, time=30),
    Message('note_on', channel=2, note=52, velocity=100, time=0),
    Message('note_on', channel=2, note=52, velocity=0, time=30),
    Message('note_on', channel=2, note=65, velocity=100, time=0),
    Message('note_on', channel=2, note=58, velocity=100, time=0),
    Message('note_on', channel=2, note=58, velocity=0, time=120),
    Message('note_on', channel=2, note=65, velocity=0, time=0),
    Message('note_on', channel=2, note=57, velocity=100, time=0),
    Message('note_on', channel=2, note=57, velocity=0, time=60),
    Message('note_on', channel=2, note=55, velocity=100, time=0),
    Message('note_on', channel=2, note=55, velocity=0, time=60),
    Message('note_on', channel=2, note=57, velocity=100, time=0),
    Message('note_on', channel=2, note=57, velocity=0, time=60),
    Message('note_on', channel=2, note=55, velocity=100, time=0),
    Message('note_on', channel=2, note=62, velocity=100, time=0),
    Message('note_on', channel=2, note=62, velocity=0, time=60),
    Message('note_on', channel=2, note=55, velocity=0, time=0),
    Message('note_on', channel=2, note=52, velocity=100, time=0),
    Message('note_on', channel=2, note=52, velocity=0, time=30),
    Message('note_on', channel=2, note=52, velocity=100, time=0),
    Message('note_on', channel=2, note=52, velocity=0, time=30),
    Message('note_on', channel=2, note=52, velocity=100, time=0),
    Message('note_on', channel=2, note=52, velocity=0, time=30),
    Message('note_on', channel=2, note=52, velocity=100, time=0),
    Message('note_on', channel=2, note=52, velocity=0, time=30),
    Message('note_on', channel=2, note=65, velocity=100, time=0),
    Message('note_on', channel=2, note=58, velocity=100, time=0),
    Message('note_on', channel=2, note=58, velocity=0, time=120),
    Message('note_on', channel=2, note=65, velocity=0, time=0),
    Message('note_on', channel=2, note=57, velocity=100, time=0),
    Message('note_on', channel=2, note=57, velocity=0, time=60),
    Message('note_on', channel=2, note=55, velocity=100, time=0),
    Message('note_on', channel=2, note=55, velocity=0, time=60),
    Message('note_on', channel=2, note=57, velocity=100, time=0),
    Message('note_on', channel=2, note=57, velocity=0, time=60),
    Message('note_on', channel=2, note=55, velocity=100, time=0),
    Message('note_on', channel=2, note=62, velocity=100, time=0),
    Message('note_on', channel=2, note=62, velocity=0, time=60),
    Message('note_on', channel=2, note=55, velocity=0, time=0),
    Message('note_on', channel=2, note=52, velocity=100, time=0),
    Message('note_on', channel=2, note=52, velocity=0, time=30),
    Message('note_on', channel=2, note=52, velocity=100, time=0),
    Message('note_on', channel=2, note=52, velocity=0, time=30),
    Message('note_on', channel=2, note=52, velocity=100, time=0),
    Message('note_on', channel=2, note=52, velocity=0, time=30),
    Message('note_on', channel=2, note=52, velocity=100, time=0),
    Message('note_on', channel=2, note=52, velocity=0, time=30),
    Message('note_on', channel=2, note=58, velocity=100, time=0),
    Message('note_on', channel=2, note=65, velocity=100, time=0),
    Message('note_on', channel=2, note=65, velocity=0, time=120),
    Message('note_on', channel=2, note=58, velocity=0, time=0),
    Message('note_on', channel=2, note=57, velocity=100, time=0),
    Message('note_on', channel=2, note=57, velocity=0, time=60),
    Message('note_on', channel=2, note=55, velocity=100, time=0),
    Message('note_on', channel=2, note=55, velocity=0, time=60),
    Message('note_on', channel=2, note=62, velocity=100, time=0),
    Message('note_on', channel=2, note=62, velocity=0, time=30),
    Message('note_on', channel=2, note=63, velocity=100, time=0),
    Message('note_on', channel=2, note=63, velocity=0, time=30),
    Message('note_on', channel=2, note=64, velocity=100, time=0),
    Message('note_on', channel=2, note=64, velocity=0, time=60),
    Message('note_on', channel=2, note=52, velocity=100, time=0),
    Message('note_on', channel=2, note=52, velocity=0, time=30),
    Message('note_on', channel=2, note=52, velocity=100, time=0),
    Message('note_on', channel=2, note=52, velocity=0, time=30),
    Message('note_on', channel=2, note=52, velocity=100, time=0),
    Message('note_on', channel=2, note=52, velocity=0, time=60),
    Message('note_on', channel=2, note=71, velocity=100, time=0),
    Message('note_on', channel=2, note=67, velocity=100, time=0),
    Message('note_on', channel=2, note=67, velocity=0, time=60),
    Message('note_on', channel=2, note=71, velocity=0, time=0),
    Message('note_on', channel=2, note=52, velocity=100, time=0),
    Message('note_on', channel=2, note=52, velocity=0, time=60),
    Message('note_on', channel=2, note=70, velocity=100, time=0),
    Message('note_on', channel=2, note=66, velocity=100, time=0),
    Message('note_on', channel=2, note=66, velocity=0, time=60),
    Message('note_on', channel=2, note=70, velocity=0, time=0),
    Message('note_on', channel=2, note=52, velocity=100, time=0),
    Message('note_on', channel=2, note=52, velocity=0, time=60),
    Message('note_on', channel=2, note=62, velocity=100, time=0),
    Message('note_on', channel=2, note=62, velocity=0, time=30),
    Message('note_on', channel=2, note=63, velocity=100, time=0),
    Message('note_on', channel=2, note=63, velocity=0, time=30),
    Message('note_on', channel=2, note=64, velocity=100, time=0),
    Message('note_on', channel=2, note=64, velocity=0, time=60),
    Message('note_on', channel=2, note=52, velocity=100, time=0),
    Message('note_on', channel=2, note=52, velocity=0, time=30),
    Message('note_on', channel=2, note=52, velocity=100, time=0),
    Message('note_on', channel=2, note=52, velocity=0, time=30),
    Message('note_on', channel=2, note=52, velocity=100, time=0),
    Message('note_on', channel=2, note=52, velocity=0, time=60),
    Message('note_on', channel=2, note=58, velocity=100, time=0),
    Message('note_on', channel=2, note=58, velocity=0, time=120),
    Message('note_on', channel=2, note=59, velocity=100, time=0),
    Message('note_on', channel=2, note=59, velocity=0, time=60),
    Message('note_on', channel=2, note=58, velocity=100, time=0),
    Message('note_on', channel=2, note=58, velocity=0, time=60),
    Message('note_on', channel=2, note=62, velocity=100, time=0),
    Message('note_on', channel=2, note=62, velocity=0, time=30),
    Message('note_on', channel=2, note=63, velocity=100, time=0),
    Message('note_on', channel=2, note=63, velocity=0, time=30),
    Message('note_on', channel=2, note=64, velocity=100, time=0),
    Message('note_on', channel=2, note=64, velocity=0, time=60),
    Message('note_on', channel=2, note=52, velocity=100, time=0),
    Message('note_on', channel=2, note=52, velocity=0, time=30),
    Message('note_on', channel=2, note=52, velocity=100, time=0),
    Message('note_on', channel=2, note=52, velocity=0, time=30),
    Message('note_on', channel=2, note=52, velocity=100, time=0),
    Message('note_on', channel=2, note=52, velocity=0, time=60),
    Message('note_on', channel=2, note=71, velocity=100, time=0),
    Message('note_on', channel=2, note=64, velocity=100, time=0),
    Message('note_on', channel=2, note=64, velocity=0, time=60),
    Message('note_on', channel=2, note=71, velocity=0, time=0),
    Message('note_on', channel=2, note=52, velocity=100, time=0),
    Message('note_on', channel=2, note=52, velocity=0, time=60),
    Message('note_on', channel=2, note=70, velocity=100, time=0),
    Message('note_on', channel=2, note=63, velocity=100, time=0),
    Message('note_on', channel=2, note=63, velocity=0, time=60),
    Message('note_on', channel=2, note=70, velocity=0, time=0),
    Message('note_on', channel=2, note=52, velocity=100, time=0),
    Message('note_on', channel=2, note=52, velocity=0, time=60),
    Message('note_on', channel=2, note=62, velocity=100, time=0),
    Message('note_on', channel=2, note=62, velocity=0, time=30),
    Message('note_on', channel=2, note=63, velocity=100, time=0),
    Message('note_on', channel=2, note=63, velocity=0, time=30),
    Message('note_on', channel=2, note=64, velocity=100, time=0),
    Message('note_on', channel=2, note=64, velocity=0, time=60),
    Message('note_on', channel=2, note=52, velocity=100, time=0),
    Message('note_on', channel=2, note=52, velocity=0, time=30),
    Message('note_on', channel=2, note=52, velocity=100, time=0),
    Message('note_on', channel=2, note=52, velocity=0, time=30),
    Message('note_on', channel=2, note=52, velocity=100, time=0),
    Message('note_on', channel=2, note=52, velocity=0, time=60),
    Message('note_on', channel=2, note=54, velocity=100, time=0),
    Message('note_on', channel=2, note=61, velocity=100, time=0),
    Message('note_on', channel=2, note=61, velocity=0, time=120),
    Message('note_on', channel=2, note=54, velocity=0, time=0),
    Message('note_on', channel=2, note=59, velocity=100, time=0),
    Message('note_on', channel=2, note=52, velocity=100, time=0),
    Message('note_on', channel=2, note=52, velocity=0, time=60),
    Message('note_on', channel=2, note=59, velocity=0, time=0),
    Message('note_on', channel=2, note=61, velocity=100, time=0),
    Message('note_on', channel=2, note=54, velocity=100, time=0),
    Message('note_on', channel=2, note=54, velocity=0, time=60),
    Message('note_on', channel=2, note=61, velocity=0, time=0),
    Message('note_on', channel=2, note=55, velocity=100, time=0),
    Message('note_on', channel=2, note=62, velocity=100, time=0),
    Message('note_on', channel=2, note=62, velocity=0, time=60),
    Message('note_on', channel=2, note=55, velocity=0, time=0),
    Message('note_on', channel=2, note=64, velocity=100, time=0),
    Message('note_on', channel=2, note=57, velocity=100, time=0),
    Message('note_on', channel=2, note=57, velocity=0, time=60),
    Message('note_on', channel=2, note=64, velocity=0, time=0),
    Message('note_on', channel=2, note=52, velocity=100, time=0),
    Message('note_on', channel=2, note=52, velocity=0, time=30),
    Message('note_on', channel=2, note=52, velocity=100, time=0),
    Message('note_on', channel=2, note=52, velocity=0, time=30),
    Message('note_on', channel=2, note=52, velocity=100, time=0),
    Message('note_on', channel=2, note=52, velocity=0, time=30),
    Message('note_on', channel=2, note=52, velocity=100, time=0),
    Message('note_on', channel=2, note=52, velocity=0, time=30),
    Message('note_on', channel=2, note=57, velocity=100, time=0),
    Message('note_on', channel=2, note=64, velocity=100, time=0),
    Message('note_on', channel=2, note=64, velocity=0, time=120),
    Message('note_on', channel=2, note=57, velocity=0, time=0),
    Message('note_on', channel=2, note=52, velocity=100, time=0),
    Message('note_on', channel=2, note=52, velocity=0, time=60),
    Message('note_on', channel=2, note=55, velocity=100, time=0),
    Message('note_on', channel=2, note=55, velocity=0, time=60),
    Message('note_on', channel=2, note=57, velocity=100, time=0),
    Message('note_on', channel=2, note=57, velocity=0, time=60),
    Message('note_on', channel=2, note=65, velocity=100, time=0),
    Message('note_on', channel=2, note=58, velocity=100, time=0),
    Message('note_on', channel=2, note=58, velocity=0, time=60),
    Message('note_on', channel=2, note=65, velocity=0, time=0),
    Message('note_on', channel=2, note=52, velocity=100, time=0),
    Message('note_on', channel=2, note=52, velocity=0, time=30),
    Message('note_on', channel=2, note=52, velocity=100, time=0),
    Message('note_on', channel=2, note=52, velocity=0, time=30),
    Message('note_on', channel=2, note=52, velocity=100, time=0),
    Message('note_on', channel=2, note=52, velocity=0, time=30),
    Message('note_on', channel=2, note=52, velocity=100, time=0),
    Message('note_on', channel=2, note=52, velocity=0, time=30),
    Message('note_on', channel=2, note=65, velocity=100, time=0),
    Message('note_on', channel=2, note=58, velocity=100, time=0),
    Message('note_on', channel=2, note=58, velocity=0, time=120),
    Message('note_on', channel=2, note=65, velocity=0, time=0),
    Message('note_on', channel=2, note=57, velocity=100, time=0),
    Message('note_on', channel=2, note=57, velocity=0, time=60),
    Message('note_on', channel=2, note=55, velocity=100, time=0),
    Message('note_on', channel=2, note=55, velocity=0, time=60),
    Message('note_on', channel=2, note=57, velocity=100, time=0),
    Message('note_on', channel=2, note=57, velocity=0, time=60),
    Message('note_on', channel=2, note=55, velocity=100, time=0),
    Message('note_on', channel=2, note=62, velocity=100, time=0),
    Message('note_on', channel=2, note=62, velocity=0, time=60),
    Message('note_on', channel=2, note=55, velocity=0, time=0),
    Message('note_on', channel=2, note=52, velocity=100, time=0),
    Message('note_on', channel=2, note=52, velocity=0, time=30),
    Message('note_on', channel=2, note=52, velocity=100, time=0),
    Message('note_on', channel=2, note=52, velocity=0, time=30),
    Message('note_on', channel=2, note=52, velocity=100, time=0),
    Message('note_on', channel=2, note=52, velocity=0, time=30),
    Message('note_on', channel=2, note=52, velocity=100, time=0),
    Message('note_on', channel=2, note=52, velocity=0, time=30),
    Message('note_on', channel=2, note=65, velocity=100, time=0),
    Message('note_on', channel=2, note=58, velocity=100, time=0),
    Message('note_on', channel=2, note=58, velocity=0, time=120),
    Message('note_on', channel=2, note=65, velocity=0, time=0),
    Message('note_on', channel=2, note=57, velocity=100, time=0),
    Message('note_on', channel=2, note=57, velocity=0, time=60),
    Message('note_on', channel=2, note=55, velocity=100, time=0),
    Message('note_on', channel=2, note=55, velocity=0, time=60),
    Message('note_on', channel=2, note=57, velocity=100, time=0),
    Message('note_on', channel=2, note=57, velocity=0, time=60),
    Message('note_on', channel=2, note=55, velocity=100, time=0),
    Message('note_on', channel=2, note=62, velocity=100, time=0),
    Message('note_on', channel=2, note=62, velocity=0, time=60),
    Message('note_on', channel=2, note=55, velocity=0, time=0),
    Message('note_on', channel=2, note=52, velocity=100, time=0),
    Message('note_on', channel=2, note=52, velocity=0, time=30),
    Message('note_on', channel=2, note=52, velocity=100, time=0),
    Message('note_on', channel=2, note=52, velocity=0, time=30),
    Message('note_on', channel=2, note=52, velocity=100, time=0),
    Message('note_on', channel=2, note=52, velocity=0, time=30),
    Message('note_on', channel=2, note=52, velocity=100, time=0),
    Message('note_on', channel=2, note=52, velocity=0, time=30),
    Message('note_on', channel=2, note=58, velocity=100, time=0),
    Message('note_on', channel=2, note=65, velocity=100, time=0),
    Message('note_on', channel=2, note=65, velocity=0, time=120),
    Message('note_on', channel=2, note=58, velocity=0, time=0),
    Message('note_on', channel=2, note=57, velocity=100, time=0),
    Message('note_on', channel=2, note=57, velocity=0, time=60),
    Message('note_on', channel=2, note=55, velocity=100, time=0),
    Message('note_on', channel=2, note=55, velocity=0, time=60),
    Message('note_on', channel=2, note=62, velocity=100, time=0),
    Message('note_on', channel=2, note=62, velocity=0, time=30),
    Message('note_on', channel=2, note=63, velocity=100, time=0),
    Message('note_on', channel=2, note=63, velocity=0, time=30),
    Message('note_on', channel=2, note=64, velocity=100, time=0),
    Message('note_on', channel=2, note=64, velocity=0, time=60),
    Message('note_on', channel=2, note=52, velocity=100, time=0),
    Message('note_on', channel=2, note=52, velocity=0, time=30),
    Message('note_on', channel=2, note=52, velocity=100, time=0),
    Message('note_on', channel=2, note=52, velocity=0, time=30),
    Message('note_on', channel=2, note=52, velocity=100, time=0),
    Message('note_on', channel=2, note=52, velocity=0, time=60),
    Message('note_on', channel=2, note=71, velocity=100, time=0),
    Message('note_on', channel=2, note=67, velocity=100, time=0),
    Message('note_on', channel=2, note=67, velocity=0, time=60),
    Message('note_on', channel=2, note=71, velocity=0, time=0),
    Message('note_on', channel=2, note=52, velocity=100, time=0),
    Message('note_on', channel=2, note=52, velocity=0, time=60),
    Message('note_on', channel=2, note=70, velocity=100, time=0),
    Message('note_on', channel=2, note=66, velocity=100, time=0),
    Message('note_on', channel=2, note=66, velocity=0, time=60),
    Message('note_on', channel=2, note=70, velocity=0, time=0),
    Message('note_on', channel=2, note=52, velocity=100, time=0),
    Message('note_on', channel=2, note=52, velocity=0, time=60),
    Message('note_on', channel=2, note=62, velocity=100, time=0),
    Message('note_on', channel=2, note=62, velocity=0, time=30),
    Message('note_on', channel=2, note=63, velocity=100, time=0),
    Message('note_on', channel=2, note=63, velocity=0, time=30),
    Message('note_on', channel=2, note=64, velocity=100, time=0),
    Message('note_on', channel=2, note=64, velocity=0, time=60),
    Message('note_on', channel=2, note=52, velocity=100, time=0),
    Message('note_on', channel=2, note=52, velocity=0, time=30),
    Message('note_on', channel=2, note=52, velocity=100, time=0),
    Message('note_on', channel=2, note=52, velocity=0, time=30),
    Message('note_on', channel=2, note=52, velocity=100, time=0),
    Message('note_on', channel=2, note=52, velocity=0, time=60),
    Message('note_on', channel=2, note=58, velocity=100, time=0),
    Message('note_on', channel=2, note=58, velocity=0, time=120),
    Message('note_on', channel=2, note=59, velocity=100, time=0),
    Message('note_on', channel=2, note=59, velocity=0, time=60),
    Message('note_on', channel=2, note=58, velocity=100, time=0),
    Message('note_on', channel=2, note=58, velocity=0, time=60),
    Message('note_on', channel=2, note=62, velocity=100, time=0),
    Message('note_on', channel=2, note=62, velocity=0, time=30),
    Message('note_on', channel=2, note=63, velocity=100, time=0),
    Message('note_on', channel=2, note=63, velocity=0, time=30),
    Message('note_on', channel=2, note=64, velocity=100, time=0),
    Message('note_on', channel=2, note=64, velocity=0, time=60),
    Message('note_on', channel=2, note=52, velocity=100, time=0),
    Message('note_on', channel=2, note=52, velocity=0, time=30),
    Message('note_on', channel=2, note=52, velocity=100, time=0),
    Message('note_on', channel=2, note=52, velocity=0, time=30),
    Message('note_on', channel=2, note=52, velocity=100, time=0),
    Message('note_on', channel=2, note=52, velocity=0, time=60),
    Message('note_on', channel=2, note=71, velocity=100, time=0),
    Message('note_on', channel=2, note=64, velocity=100, time=0),
    Message('note_on', channel=2, note=64, velocity=0, time=60),
    Message('note_on', channel=2, note=71, velocity=0, time=0),
    Message('note_on', channel=2, note=52, velocity=100, time=0),
    Message('note_on', channel=2, note=52, velocity=0, time=60),
    Message('note_on', channel=2, note=70, velocity=100, time=0),
    Message('note_on', channel=2, note=63, velocity=100, time=0),
    Message('note_on', channel=2, note=63, velocity=0, time=60),
    Message('note_on', channel=2, note=70, velocity=0, time=0),
    Message('note_on', channel=2, note=52, velocity=100, time=0),
    Message('note_on', channel=2, note=52, velocity=0, time=60),
    Message('note_on', channel=2, note=62, velocity=100, time=0),
    Message('note_on', channel=2, note=62, velocity=0, time=30),
    Message('note_on', channel=2, note=63, velocity=100, time=0),
    Message('note_on', channel=2, note=63, velocity=0, time=30),
    Message('note_on', channel=2, note=64, velocity=100, time=0),
    Message('note_on', channel=2, note=64, velocity=0, time=60),
    Message('note_on', channel=2, note=52, velocity=100, time=0),
    Message('note_on', channel=2, note=52, velocity=0, time=30),
    Message('note_on', channel=2, note=52, velocity=100, time=0),
    Message('note_on', channel=2, note=52, velocity=0, time=30),
    Message('note_on', channel=2, note=52, velocity=100, time=0),
    Message('note_on', channel=2, note=52, velocity=0, time=60),
    Message('note_on', channel=2, note=54, velocity=100, time=0),
    Message('note_on', channel=2, note=61, velocity=100, time=0),
    Message('note_on', channel=2, note=61, velocity=0, time=120),
    Message('note_on', channel=2, note=54, velocity=0, time=0),
    Message('note_on', channel=2, note=59, velocity=100, time=0),
    Message('note_on', channel=2, note=52, velocity=100, time=0),
    Message('note_on', channel=2, note=52, velocity=0, time=60),
    Message('note_on', channel=2, note=59, velocity=0, time=0),
    Message('note_on', channel=2, note=61, velocity=100, time=0),
    Message('note_on', channel=2, note=54, velocity=100, time=0),
    Message('note_on', channel=2, note=54, velocity=0, time=60),
    Message('note_on', channel=2, note=61, velocity=0, time=0),
    Message('note_on', channel=2, note=55, velocity=100, time=0),
    Message('note_on', channel=2, note=62, velocity=100, time=0),
    Message('note_on', channel=2, note=62, velocity=0, time=60),
    Message('note_on', channel=2, note=55, velocity=0, time=0),
    Message('note_on', channel=2, note=64, velocity=100, time=0),
    Message('note_on', channel=2, note=57, velocity=100, time=0),
    Message('note_on', channel=2, note=57, velocity=0, time=60),
    Message('note_on', channel=2, note=64, velocity=0, time=0),
    Message('note_on', channel=2, note=52, velocity=100, time=0),
    Message('note_on', channel=2, note=52, velocity=0, time=30),
    Message('note_on', channel=2, note=52, velocity=100, time=0),
    Message('note_on', channel=2, note=52, velocity=0, time=30),
    Message('note_on', channel=2, note=52, velocity=100, time=0),
    Message('note_on', channel=2, note=52, velocity=0, time=30),
    Message('note_on', channel=2, note=52, velocity=100, time=0),
    Message('note_on', channel=2, note=52, velocity=0, time=30),
    Message('note_on', channel=2, note=57, velocity=100, time=0),
    Message('note_on', channel=2, note=64, velocity=100, time=0),
    Message('note_on', channel=2, note=64, velocity=0, time=120),
    Message('note_on', channel=2, note=57, velocity=0, time=0),
    Message('note_on', channel=2, note=52, velocity=100, time=0),
    Message('note_on', channel=2, note=52, velocity=0, time=60),
    Message('note_on', channel=2, note=55, velocity=100, time=0),
    Message('note_on', channel=2, note=55, velocity=0, time=60),
    Message('note_on', channel=2, note=57, velocity=100, time=0),
    Message('note_on', channel=2, note=57, velocity=0, time=60),
    Message('note_on', channel=2, note=65, velocity=100, time=0),
    Message('note_on', channel=2, note=58, velocity=100, time=0),
    Message('note_on', channel=2, note=58, velocity=0, time=60),
    Message('note_on', channel=2, note=65, velocity=0, time=0),
    Message('note_on', channel=2, note=52, velocity=100, time=0),
    Message('note_on', channel=2, note=52, velocity=0, time=30),
    Message('note_on', channel=2, note=52, velocity=100, time=0),
    Message('note_on', channel=2, note=52, velocity=0, time=30),
    Message('note_on', channel=2, note=52, velocity=100, time=0),
    Message('note_on', channel=2, note=52, velocity=0, time=30),
    Message('note_on', channel=2, note=52, velocity=100, time=0),
    Message('note_on', channel=2, note=52, velocity=0, time=30),
    Message('note_on', channel=2, note=65, velocity=100, time=0),
    Message('note_on', channel=2, note=58, velocity=100, time=0),
    Message('note_on', channel=2, note=58, velocity=0, time=120),
    Message('note_on', channel=2, note=65, velocity=0, time=0),
    Message('note_on', channel=2, note=57, velocity=100, time=0),
    Message('note_on', channel=2, note=57, velocity=0, time=60),
    Message('note_on', channel=2, note=55, velocity=100, time=0),
    Message('note_on', channel=2, note=55, velocity=0, time=60),
    Message('note_on', channel=2, note=57, velocity=100, time=0),
    Message('note_on', channel=2, note=57, velocity=0, time=60),
    Message('note_on', channel=2, note=55, velocity=100, time=0),
    Message('note_on', channel=2, note=62, velocity=100, time=0),
    Message('note_on', channel=2, note=62, velocity=0, time=60),
    Message('note_on', channel=2, note=55, velocity=0, time=0),
    Message('note_on', channel=2, note=52, velocity=100, time=0),
    Message('note_on', channel=2, note=52, velocity=0, time=30),
    Message('note_on', channel=2, note=52, velocity=100, time=0),
    Message('note_on', channel=2, note=52, velocity=0, time=30),
    Message('note_on', channel=2, note=52, velocity=100, time=0),
    Message('note_on', channel=2, note=52, velocity=0, time=30),
    Message('note_on', channel=2, note=52, velocity=100, time=0),
    Message('note_on', channel=2, note=52, velocity=0, time=30),
    Message('note_on', channel=2, note=65, velocity=100, time=0),
    Message('note_on', channel=2, note=58, velocity=100, time=0),
    Message('note_on', channel=2, note=58, velocity=0, time=120),
    Message('note_on', channel=2, note=65, velocity=0, time=0),
    Message('note_on', channel=2, note=57, velocity=100, time=0),
    Message('note_on', channel=2, note=57, velocity=0, time=60),
    Message('note_on', channel=2, note=55, velocity=100, time=0),
    Message('note_on', channel=2, note=55, velocity=0, time=60),
    Message('note_on', channel=2, note=57, velocity=100, time=0),
    Message('note_on', channel=2, note=57, velocity=0, time=60),
    Message('note_on', channel=2, note=55, velocity=100, time=0),
    Message('note_on', channel=2, note=62, velocity=100, time=0),
    Message('note_on', channel=2, note=62, velocity=0, time=60),
    Message('note_on', channel=2, note=55, velocity=0, time=0),
    Message('note_on', channel=2, note=52, velocity=100, time=0),
    Message('note_on', channel=2, note=52, velocity=0, time=30),
    Message('note_on', channel=2, note=52, velocity=100, time=0),
    Message('note_on', channel=2, note=52, velocity=0, time=30),
    Message('note_on', channel=2, note=52, velocity=100, time=0),
    Message('note_on', channel=2, note=52, velocity=0, time=30),
    Message('note_on', channel=2, note=52, velocity=100, time=0),
    Message('note_on', channel=2, note=52, velocity=0, time=30),
    Message('note_on', channel=2, note=58, velocity=100, time=0),
    Message('note_on', channel=2, note=65, velocity=100, time=0),
    Message('note_on', channel=2, note=65, velocity=0, time=120),
    Message('note_on', channel=2, note=58, velocity=0, time=0),
    Message('note_on', channel=2, note=57, velocity=100, time=0),
    Message('note_on', channel=2, note=57, velocity=0, time=60),
    Message('note_on', channel=2, note=55, velocity=100, time=0),
    Message('note_on', channel=2, note=55, velocity=0, time=60),
    Message('note_on', channel=2, note=62, velocity=100, time=0),
    Message('note_on', channel=2, note=62, velocity=0, time=30),
    Message('note_on', channel=2, note=63, velocity=100, time=0),
    Message('note_on', channel=2, note=63, velocity=0, time=30),
    Message('note_on', channel=2, note=64, velocity=100, time=0),
    Message('note_on', channel=2, note=64, velocity=0, time=60),
    Message('note_on', channel=2, note=52, velocity=100, time=0),
    Message('note_on', channel=2, note=52, velocity=0, time=30),
    Message('note_on', channel=2, note=52, velocity=100, time=0),
    Message('note_on', channel=2, note=52, velocity=0, time=30),
    Message('note_on', channel=2, note=52, velocity=100, time=0),
    Message('note_on', channel=2, note=52, velocity=0, time=60),
    Message('note_on', channel=2, note=71, velocity=100, time=0),
    Message('note_on', channel=2, note=67, velocity=100, time=0),
    Message('note_on', channel=2, note=67, velocity=0, time=60),
    Message('note_on', channel=2, note=71, velocity=0, time=0),
    Message('note_on', channel=2, note=52, velocity=100, time=0),
    Message('note_on', channel=2, note=52, velocity=0, time=60),
    Message('note_on', channel=2, note=70, velocity=100, time=0),
    Message('note_on', channel=2, note=66, velocity=100, time=0),
    Message('note_on', channel=2, note=66, velocity=0, time=60),
    Message('note_on', channel=2, note=70, velocity=0, time=0),
    Message('note_on', channel=2, note=52, velocity=100, time=0),
    Message('note_on', channel=2, note=52, velocity=0, time=60),
    Message('note_on', channel=2, note=62, velocity=100, time=0),
    Message('note_on', channel=2, note=62, velocity=0, time=30),
    Message('note_on', channel=2, note=63, velocity=100, time=0),
    Message('note_on', channel=2, note=63, velocity=0, time=30),
    Message('note_on', channel=2, note=64, velocity=100, time=0),
    Message('note_on', channel=2, note=64, velocity=0, time=60),
    Message('note_on', channel=2, note=52, velocity=100, time=0),
    Message('note_on', channel=2, note=52, velocity=0, time=30),
    Message('note_on', channel=2, note=52, velocity=100, time=0),
    Message('note_on', channel=2, note=52, velocity=0, time=30),
    Message('note_on', channel=2, note=52, velocity=100, time=0),
    Message('note_on', channel=2, note=52, velocity=0, time=60),
    Message('note_on', channel=2, note=58, velocity=100, time=0),
    Message('note_on', channel=2, note=58, velocity=0, time=120),
    Message('note_on', channel=2, note=59, velocity=100, time=0),
    Message('note_on', channel=2, note=59, velocity=0, time=60),
    Message('note_on', channel=2, note=58, velocity=100, time=0),
    Message('note_on', channel=2, note=58, velocity=0, time=60),
    Message('note_on', channel=2, note=62, velocity=100, time=0),
    Message('note_on', channel=2, note=62, velocity=0, time=30),
    Message('note_on', channel=2, note=63, velocity=100, time=0),
    Message('note_on', channel=2, note=63, velocity=0, time=30),
    Message('note_on', channel=2, note=64, velocity=100, time=0),
    Message('note_on', channel=2, note=64, velocity=0, time=60),
    Message('note_on', channel=2, note=52, velocity=100, time=0),
    Message('note_on', channel=2, note=52, velocity=0, time=30),
    Message('note_on', channel=2, note=52, velocity=100, time=0),
    Message('note_on', channel=2, note=52, velocity=0, time=30),
    Message('note_on', channel=2, note=52, velocity=100, time=0),
    Message('note_on', channel=2, note=52, velocity=0, time=60),
    Message('note_on', channel=2, note=71, velocity=100, time=0),
    Message('note_on', channel=2, note=64, velocity=100, time=0),
    Message('note_on', channel=2, note=64, velocity=0, time=60),
    Message('note_on', channel=2, note=71, velocity=0, time=0),
    Message('note_on', channel=2, note=52, velocity=100, time=0),
    Message('note_on', channel=2, note=52, velocity=0, time=60),
    Message('note_on', channel=2, note=70, velocity=100, time=0),
    Message('note_on', channel=2, note=63, velocity=100, time=0),
    Message('note_on', channel=2, note=63, velocity=0, time=60),
    Message('note_on', channel=2, note=70, velocity=0, time=0),
    Message('note_on', channel=2, note=52, velocity=100, time=0),
    Message('note_on', channel=2, note=52, velocity=0, time=60),
    Message('note_on', channel=2, note=62, velocity=100, time=0),
    Message('note_on', channel=2, note=62, velocity=0, time=30),
    Message('note_on', channel=2, note=63, velocity=100, time=0),
    Message('note_on', channel=2, note=63, velocity=0, time=30),
    Message('note_on', channel=2, note=64, velocity=100, time=0),
    Message('note_on', channel=2, note=64, velocity=0, time=60),
    Message('note_on', channel=2, note=52, velocity=100, time=0),
    Message('note_on', channel=2, note=52, velocity=0, time=30),
    Message('note_on', channel=2, note=52, velocity=100, time=0),
    Message('note_on', channel=2, note=52, velocity=0, time=30),
    Message('note_on', channel=2, note=52, velocity=100, time=0),
    Message('note_on', channel=2, note=52, velocity=0, time=60),
    Message('note_on', channel=2, note=54, velocity=100, time=0),
    Message('note_on', channel=2, note=61, velocity=100, time=0),
    Message('note_on', channel=2, note=61, velocity=0, time=120),
    Message('note_on', channel=2, note=54, velocity=0, time=0),
    Message('note_on', channel=2, note=59, velocity=100, time=0),
    Message('note_on', channel=2, note=52, velocity=100, time=0),
    Message('note_on', channel=2, note=52, velocity=0, time=60),
    Message('note_on', channel=2, note=59, velocity=0, time=0),
    Message('note_on', channel=2, note=61, velocity=100, time=0),
    Message('note_on', channel=2, note=54, velocity=100, time=0),
    Message('note_on', channel=2, note=54, velocity=0, time=60),
    Message('note_on', channel=2, note=61, velocity=0, time=0),
    Message('note_on', channel=2, note=55, velocity=100, time=0),
    Message('note_on', channel=2, note=62, velocity=100, time=0),
    Message('note_on', channel=2, note=62, velocity=0, time=60),
    Message('note_on', channel=2, note=55, velocity=0, time=0),
    Message('note_on', channel=2, note=64, velocity=100, time=0),
    Message('note_on', channel=2, note=57, velocity=100, time=0),
    Message('note_on', channel=2, note=57, velocity=0, time=60),
    Message('note_on', channel=2, note=64, velocity=0, time=0),
    Message('note_on', channel=2, note=52, velocity=100, time=0),
    Message('note_on', channel=2, note=52, velocity=0, time=30),
    Message('note_on', channel=2, note=52, velocity=100, time=0),
    Message('note_on', channel=2, note=52, velocity=0, time=30),
    Message('note_on', channel=2, note=52, velocity=100, time=0),
    Message('note_on', channel=2, note=52, velocity=0, time=30),
    Message('note_on', channel=2, note=52, velocity=100, time=0),
    Message('note_on', channel=2, note=52, velocity=0, time=30),
    Message('note_on', channel=2, note=57, velocity=100, time=0),
    Message('note_on', channel=2, note=64, velocity=100, time=0),
    Message('note_on', channel=2, note=64, velocity=0, time=120),
    Message('note_on', channel=2, note=57, velocity=0, time=0),
    Message('note_on', channel=2, note=52, velocity=100, time=0),
    Message('note_on', channel=2, note=52, velocity=0, time=60),
    Message('note_on', channel=2, note=55, velocity=100, time=0),
    Message('note_on', channel=2, note=55, velocity=0, time=60),
    Message('note_on', channel=2, note=57, velocity=100, time=0),
    Message('note_on', channel=2, note=57, velocity=0, time=60),
    Message('note_on', channel=2, note=65, velocity=100, time=0),
    Message('note_on', channel=2, note=58, velocity=100, time=0),
    Message('note_on', channel=2, note=58, velocity=0, time=60),
    Message('note_on', channel=2, note=65, velocity=0, time=0),
    Message('note_on', channel=2, note=52, velocity=100, time=0),
    Message('note_on', channel=2, note=52, velocity=0, time=30),
    Message('note_on', channel=2, note=52, velocity=100, time=0),
    Message('note_on', channel=2, note=52, velocity=0, time=30),
    Message('note_on', channel=2, note=52, velocity=100, time=0),
    Message('note_on', channel=2, note=52, velocity=0, time=30),
    Message('note_on', channel=2, note=52, velocity=100, time=0),
    Message('note_on', channel=2, note=52, velocity=0, time=30),
    Message('note_on', channel=2, note=65, velocity=100, time=0),
    Message('note_on', channel=2, note=58, velocity=100, time=0),
    Message('note_on', channel=2, note=58, velocity=0, time=120),
    Message('note_on', channel=2, note=65, velocity=0, time=0),
    Message('note_on', channel=2, note=57, velocity=100, time=0),
    Message('note_on', channel=2, note=57, velocity=0, time=60),
    Message('note_on', channel=2, note=55, velocity=100, time=0),
    Message('note_on', channel=2, note=55, velocity=0, time=60),
    Message('note_on', channel=2, note=57, velocity=100, time=0),
    Message('note_on', channel=2, note=57, velocity=0, time=60),
    Message('note_on', channel=2, note=55, velocity=100, time=0),
    Message('note_on', channel=2, note=62, velocity=100, time=0),
    Message('note_on', channel=2, note=62, velocity=0, time=60),
    Message('note_on', channel=2, note=55, velocity=0, time=0),
    Message('note_on', channel=2, note=52, velocity=100, time=0),
    Message('note_on', channel=2, note=52, velocity=0, time=30),
    Message('note_on', channel=2, note=52, velocity=100, time=0),
    Message('note_on', channel=2, note=52, velocity=0, time=30),
    Message('note_on', channel=2, note=52, velocity=100, time=0),
    Message('note_on', channel=2, note=52, velocity=0, time=30),
    Message('note_on', channel=2, note=52, velocity=100, time=0),
    Message('note_on', channel=2, note=52, velocity=0, time=30),
    Message('note_on', channel=2, note=65, velocity=100, time=0),
    Message('note_on', channel=2, note=58, velocity=100, time=0),
    Message('note_on', channel=2, note=58, velocity=0, time=120),
    Message('note_on', channel=2, note=65, velocity=0, time=0),
    Message('note_on', channel=2, note=57, velocity=100, time=0),
    Message('note_on', channel=2, note=57, velocity=0, time=60),
    Message('note_on', channel=2, note=55, velocity=100, time=0),
    Message('note_on', channel=2, note=55, velocity=0, time=60),
    Message('note_on', channel=2, note=57, velocity=100, time=0),
    Message('note_on', channel=2, note=57, velocity=0, time=60),
    Message('note_on', channel=2, note=55, velocity=100, time=0),
    Message('note_on', channel=2, note=62, velocity=100, time=0),
    Message('note_on', channel=2, note=62, velocity=0, time=60),
    Message('note_on', channel=2, note=55, velocity=0, time=0),
    Message('note_on', channel=2, note=52, velocity=100, time=0),
    Message('note_on', channel=2, note=52, velocity=0, time=30),
    Message('note_on', channel=2, note=52, velocity=100, time=0),
    Message('note_on', channel=2, note=52, velocity=0, time=30),
    Message('note_on', channel=2, note=52, velocity=100, time=0),
    Message('note_on', channel=2, note=52, velocity=0, time=60),
    Message('note_on', channel=2, note=58, velocity=100, time=0),
    Message('note_on', channel=2, note=65, velocity=100, time=0),
    Message('note_on', channel=2, note=65, velocity=0, time=120),
    Message('note_on', channel=2, note=58, velocity=0, time=0),
    Message('note_on', channel=2, note=57, velocity=100, time=0),
    Message('note_on', channel=2, note=57, velocity=0, time=60),
    Message('note_on', channel=2, note=55, velocity=100, time=0),
    Message('note_on', channel=2, note=55, velocity=0, time=60),
    Message('note_on', channel=2, note=62, velocity=100, time=0),
    Message('note_on', channel=2, note=62, velocity=0, time=30),
    Message('note_on', channel=2, note=63, velocity=100, time=0),
    Message('note_on', channel=2, note=63, velocity=0, time=30),
    Message('note_on', channel=2, note=64, velocity=100, time=0),
    Message('note_on', channel=2, note=64, velocity=0, time=60),
    Message('note_on', channel=2, note=57, velocity=100, time=0),
    Message('note_on', channel=2, note=57, velocity=0, time=30),
    Message('note_on', channel=2, note=58, velocity=100, time=0),
    Message('note_on', channel=2, note=58, velocity=0, time=30),
    Message('note_on', channel=2, note=59, velocity=100, time=0),
    Message('note_on', channel=2, note=59, velocity=0, time=60),
    Message('note_on', channel=2, note=55, velocity=100, time=0),
    Message('note_on', channel=2, note=55, velocity=0, time=30),
    Message('note_on', channel=2, note=56, velocity=100, time=0),
    Message('note_on', channel=2, note=56, velocity=0, time=30),
    Message('note_on', channel=2, note=57, velocity=100, time=0),
    Message('note_on', channel=2, note=57, velocity=0, time=60),
    Message('note_on', channel=2, note=57, velocity=100, time=0),
    Message('note_on', channel=2, note=57, velocity=0, time=60),
    Message('note_on', channel=2, note=55, velocity=100, time=0),
    Message('note_on', channel=2, note=55, velocity=0, time=60),
    Message('note_on', channel=2, note=57, velocity=100, time=0),
    Message('note_on', channel=2, note=57, velocity=0, time=60),
    Message('note_on', channel=2, note=52, velocity=100, time=0),
    Message('note_on', channel=2, note=59, velocity=100, time=0),
    Message('note_on', channel=2, note=64, velocity=100, time=0),
    Message('control_change', channel=2, control=7, value=90, time=2245),
    Message('control_change', channel=2, control=10, value=64, time=0),
    Message('note_on', channel=2, note=64, velocity=0, time=515),
    Message('note_on', channel=2, note=59, velocity=0, time=0),
    Message('note_on', channel=2, note=52, velocity=0, time=0),
    Message('note_on', channel=2, note=60, velocity=100, time=120),
    Message('note_on', channel=2, note=52, velocity=100, time=0),
    Message('note_on', channel=2, note=52, velocity=0, time=60),
    Message('note_on', channel=2, note=60, velocity=0, time=0),
    Message('note_on', channel=2, note=59, velocity=100, time=0),
    Message('note_on', channel=2, note=52, velocity=100, time=0),
    Message('note_on', channel=2, note=52, velocity=0, time=60),
    Message('note_on', channel=2, note=59, velocity=0, time=0),
    Message('note_on', channel=2, note=52, velocity=100, time=0),
    Message('note_on', channel=2, note=52, velocity=0, time=60),
    Message('note_on', channel=2, note=59, velocity=100, time=0),
    Message('note_on', channel=2, note=52, velocity=100, time=0),
    Message('note_on', channel=2, note=52, velocity=0, time=60),
    Message('note_on', channel=2, note=59, velocity=0, time=0),
    Message('note_on', channel=2, note=52, velocity=100, time=0),
    Message('note_on', channel=2, note=52, velocity=0, time=60),
    Message('note_on', channel=2, note=52, velocity=100, time=0),
    Message('note_on', channel=2, note=52, velocity=0, time=60),
    Message('note_on', channel=2, note=60, velocity=100, time=0),
    Message('note_on', channel=2, note=52, velocity=100, time=0),
    Message('note_on', channel=2, note=52, velocity=0, time=60),
    Message('note_on', channel=2, note=60, velocity=0, time=0),
    Message('note_on', channel=2, note=59, velocity=100, time=0),
    Message('note_on', channel=2, note=52, velocity=100, time=0),
    Message('note_on', channel=2, note=52, velocity=0, time=60),
    Message('note_on', channel=2, note=59, velocity=0, time=0),
    Message('note_on', channel=2, note=52, velocity=100, time=0),
    Message('note_on', channel=2, note=52, velocity=0, time=60),
    Message('note_on', channel=2, note=59, velocity=100, time=0),
    Message('note_on', channel=2, note=52, velocity=100, time=0),
    Message('note_on', channel=2, note=52, velocity=0, time=60),
    Message('note_on', channel=2, note=59, velocity=0, time=0),
    Message('note_on', channel=2, note=52, velocity=100, time=0),
    Message('note_on', channel=2, note=52, velocity=0, time=60),
    Message('note_on', channel=2, note=52, velocity=100, time=0),
    Message('note_on', channel=2, note=52, velocity=0, time=60),
    Message('note_on', channel=2, note=59, velocity=100, time=0),
    Message('note_on', channel=2, note=52, velocity=100, time=0),
    Message('note_on', channel=2, note=52, velocity=0, time=60),
    Message('note_on', channel=2, note=59, velocity=0, time=0),
    Message('note_on', channel=2, note=60, velocity=100, time=0),
    Message('note_on', channel=2, note=52, velocity=100, time=0),
    Message('note_on', channel=2, note=52, velocity=0, time=60),
    Message('note_on', channel=2, note=60, velocity=0, time=0),
    Message('note_on', channel=2, note=62, velocity=100, time=0),
    Message('note_on', channel=2, note=52, velocity=100, time=0),
    Message('note_on', channel=2, note=52, velocity=0, time=120),
    Message('note_on', channel=2, note=62, velocity=0, time=0),
    Message('note_on', channel=2, note=60, velocity=100, time=0),
    Message('note_on', channel=2, note=52, velocity=100, time=0),
    Message('note_on', channel=2, note=52, velocity=0, time=60),
    Message('note_on', channel=2, note=60, velocity=0, time=0),
    Message('note_on', channel=2, note=59, velocity=100, time=0),
    Message('note_on', channel=2, note=52, velocity=100, time=0),
    Message('note_on', channel=2, note=52, velocity=0, time=60),
    Message('note_on', channel=2, note=59, velocity=0, time=0),
    Message('note_on', channel=2, note=52, velocity=100, time=0),
    Message('note_on', channel=2, note=52, velocity=0, time=60),
    Message('note_on', channel=2, note=59, velocity=100, time=0),
    Message('note_on', channel=2, note=52, velocity=100, time=0),
    Message('note_on', channel=2, note=52, velocity=0, time=60),
    Message('note_on', channel=2, note=59, velocity=0, time=0),
    Message('note_on', channel=2, note=52, velocity=100, time=0),
    Message('note_on', channel=2, note=52, velocity=0, time=60),
    Message('note_on', channel=2, note=52, velocity=100, time=0),
    Message('note_on', channel=2, note=52, velocity=0, time=60),
    Message('note_on', channel=2, note=60, velocity=100, time=0),
    Message('note_on', channel=2, note=52, velocity=100, time=0),
    Message('note_on', channel=2, note=52, velocity=0, time=60),
    Message('note_on', channel=2, note=60, velocity=0, time=0),
    Message('note_on', channel=2, note=59, velocity=100, time=0),
    Message('note_on', channel=2, note=52, velocity=100, time=0),
    Message('note_on', channel=2, note=52, velocity=0, time=60),
    Message('note_on', channel=2, note=59, velocity=0, time=0),
    Message('note_on', channel=2, note=52, velocity=100, time=0),
    Message('note_on', channel=2, note=52, velocity=0, time=60),
    Message('note_on', channel=2, note=59, velocity=100, time=0),
    Message('note_on', channel=2, note=52, velocity=100, time=0),
    Message('note_on', channel=2, note=52, velocity=0, time=60),
    Message('note_on', channel=2, note=59, velocity=0, time=0),
    Message('note_on', channel=2, note=52, velocity=100, time=0),
    Message('note_on', channel=2, note=52, velocity=0, time=60),
    Message('note_on', channel=2, note=52, velocity=100, time=0),
    Message('note_on', channel=2, note=52, velocity=0, time=60),
    Message('note_on', channel=2, note=59, velocity=100, time=0),
    Message('note_on', channel=2, note=52, velocity=100, time=0),
    Message('note_on', channel=2, note=52, velocity=0, time=60),
    Message('note_on', channel=2, note=59, velocity=0, time=0),
    Message('note_on', channel=2, note=60, velocity=100, time=0),
    Message('note_on', channel=2, note=52, velocity=100, time=0),
    Message('note_on', channel=2, note=52, velocity=0, time=60),
    Message('note_on', channel=2, note=60, velocity=0, time=0),
    Message('note_on', channel=2, note=62, velocity=100, time=0),
    Message('note_on', channel=2, note=52, velocity=100, time=0),
    Message('note_on', channel=2, note=52, velocity=0, time=120),
    Message('note_on', channel=2, note=62, velocity=0, time=0),
    Message('note_on', channel=2, note=60, velocity=100, time=0),
    Message('note_on', channel=2, note=52, velocity=100, time=0),
    Message('note_on', channel=2, note=52, velocity=0, time=60),
    Message('note_on', channel=2, note=60, velocity=0, time=0),
    Message('note_on', channel=2, note=59, velocity=100, time=0),
    Message('note_on', channel=2, note=52, velocity=100, time=0),
    Message('note_on', channel=2, note=52, velocity=0, time=60),
    Message('note_on', channel=2, note=59, velocity=0, time=0),
    Message('note_on', channel=2, note=52, velocity=100, time=0),
    Message('note_on', channel=2, note=52, velocity=0, time=60),
    Message('note_on', channel=2, note=59, velocity=100, time=0),
    Message('note_on', channel=2, note=52, velocity=100, time=0),
    Message('note_on', channel=2, note=52, velocity=0, time=60),
    Message('note_on', channel=2, note=59, velocity=0, time=0),
    Message('note_on', channel=2, note=52, velocity=100, time=0),
    Message('note_on', channel=2, note=52, velocity=0, time=60),
    Message('note_on', channel=2, note=52, velocity=100, time=0),
    Message('note_on', channel=2, note=52, velocity=0, time=60),
    Message('note_on', channel=2, note=60, velocity=100, time=0),
    Message('note_on', channel=2, note=52, velocity=100, time=0),
    Message('note_on', channel=2, note=52, velocity=0, time=60),
    Message('note_on', channel=2, note=60, velocity=0, time=0),
    Message('note_on', channel=2, note=59, velocity=100, time=0),
    Message('note_on', channel=2, note=52, velocity=100, time=0),
    Message('note_on', channel=2, note=52, velocity=0, time=60),
    Message('note_on', channel=2, note=59, velocity=0, time=0),
    Message('note_on', channel=2, note=52, velocity=100, time=0),
    Message('note_on', channel=2, note=52, velocity=0, time=60),
    Message('note_on', channel=2, note=59, velocity=100, time=0),
    Message('note_on', channel=2, note=52, velocity=100, time=0),
    Message('note_on', channel=2, note=52, velocity=0, time=60),
    Message('note_on', channel=2, note=59, velocity=0, time=0),
    Message('note_on', channel=2, note=52, velocity=100, time=0),
    Message('note_on', channel=2, note=52, velocity=0, time=60),
    Message('note_on', channel=2, note=52, velocity=100, time=0),
    Message('note_on', channel=2, note=52, velocity=0, time=60),
    Message('note_on', channel=2, note=59, velocity=100, time=0),
    Message('note_on', channel=2, note=52, velocity=100, time=0),
    Message('note_on', channel=2, note=52, velocity=0, time=60),
    Message('note_on', channel=2, note=59, velocity=0, time=0),
    Message('note_on', channel=2, note=60, velocity=100, time=0),
    Message('note_on', channel=2, note=52, velocity=100, time=0),
    Message('note_on', channel=2, note=52, velocity=0, time=60),
    Message('note_on', channel=2, note=60, velocity=0, time=0),
    Message('note_on', channel=2, note=62, velocity=100, time=0),
    Message('note_on', channel=2, note=52, velocity=100, time=0),
    Message('note_on', channel=2, note=52, velocity=0, time=120),
    Message('note_on', channel=2, note=62, velocity=0, time=0),
    Message('note_on', channel=2, note=60, velocity=100, time=0),
    Message('note_on', channel=2, note=52, velocity=100, time=0),
    Message('note_on', channel=2, note=52, velocity=0, time=60),
    Message('note_on', channel=2, note=60, velocity=0, time=0),
    Message('note_on', channel=2, note=59, velocity=100, time=0),
    Message('note_on', channel=2, note=52, velocity=100, time=0),
    Message('note_on', channel=2, note=52, velocity=0, time=60),
    Message('note_on', channel=2, note=59, velocity=0, time=0),
    Message('note_on', channel=2, note=52, velocity=100, time=0),
    Message('note_on', channel=2, note=52, velocity=0, time=60),
    Message('note_on', channel=2, note=59, velocity=100, time=0),
    Message('note_on', channel=2, note=52, velocity=100, time=0),
    Message('note_on', channel=2, note=52, velocity=0, time=60),
    Message('note_on', channel=2, note=59, velocity=0, time=0),
    Message('note_on', channel=2, note=52, velocity=100, time=0),
    Message('note_on', channel=2, note=52, velocity=0, time=60),
    Message('note_on', channel=2, note=52, velocity=100, time=0),
    Message('note_on', channel=2, note=52, velocity=0, time=60),
    Message('note_on', channel=2, note=60, velocity=100, time=0),
    Message('note_on', channel=2, note=52, velocity=100, time=0),
    Message('note_on', channel=2, note=52, velocity=0, time=60),
    Message('note_on', channel=2, note=60, velocity=0, time=0),
    Message('note_on', channel=2, note=59, velocity=100, time=0),
    Message('note_on', channel=2, note=52, velocity=100, time=0),
    Message('note_on', channel=2, note=52, velocity=0, time=60),
    Message('note_on', channel=2, note=59, velocity=0, time=0),
    Message('note_on', channel=2, note=52, velocity=100, time=0),
    Message('note_on', channel=2, note=52, velocity=0, time=60),
    Message('note_on', channel=2, note=59, velocity=100, time=0),
    Message('note_on', channel=2, note=52, velocity=100, time=0),
    Message('note_on', channel=2, note=52, velocity=0, time=60),
    Message('note_on', channel=2, note=59, velocity=0, time=0),
    Message('note_on', channel=2, note=52, velocity=100, time=0),
    Message('note_on', channel=2, note=52, velocity=0, time=60),
    Message('note_on', channel=2, note=52, velocity=100, time=0),
    Message('note_on', channel=2, note=52, velocity=0, time=60),
    Message('note_on', channel=2, note=59, velocity=100, time=0),
    Message('note_on', channel=2, note=52, velocity=100, time=0),
    Message('note_on', channel=2, note=52, velocity=0, time=60),
    Message('note_on', channel=2, note=59, velocity=0, time=0),
    Message('note_on', channel=2, note=60, velocity=100, time=0),
    Message('note_on', channel=2, note=52, velocity=100, time=0),
    Message('note_on', channel=2, note=52, velocity=0, time=60),
    Message('note_on', channel=2, note=60, velocity=0, time=0),
    Message('note_on', channel=2, note=62, velocity=100, time=0),
    Message('note_on', channel=2, note=52, velocity=100, time=0),
    Message('note_on', channel=2, note=52, velocity=0, time=120),
    Message('note_on', channel=2, note=62, velocity=0, time=0),
    Message('note_on', channel=2, note=52, velocity=100, time=0),
    Message('note_on', channel=2, note=52, velocity=0, time=60),
    Message('note_on', channel=2, note=52, velocity=100, time=0),
    Message('note_on', channel=2, note=62, velocity=100, time=45),
    Message('note_on', channel=2, note=62, velocity=0, time=15),
    Message('note_on', channel=2, note=52, velocity=0, time=0),
    Message('note_on', channel=2, note=64, velocity=100, time=0),
    Message('note_on', channel=2, note=64, velocity=0, time=60),
    Message('note_on', channel=2, note=59, velocity=100, time=0),
    Message('note_on', channel=2, note=59, velocity=0, time=60),
    Message('note_on', channel=2, note=66, velocity=100, time=0),
    Message('note_on', channel=2, note=66, velocity=0, time=60),
    Message('note_on', channel=2, note=52, velocity=100, time=0),
    Message('note_on', channel=2, note=52, velocity=0, time=60),
    Message('note_on', channel=2, note=60, velocity=100, time=0),
    Message('note_on', channel=2, note=60, velocity=0, time=60),
    Message('note_on', channel=2, note=67, velocity=100, time=0),
    Message('note_on', channel=2, note=67, velocity=0, time=540),
    Message('note_on', channel=2, note=52, velocity=100, time=0),
    Message('note_on', channel=2, note=62, velocity=100, time=105),
    Message('note_on', channel=2, note=62, velocity=0, time=15),
    Message('note_on', channel=2, note=52, velocity=0, time=0),
    Message('note_on', channel=2, note=64, velocity=100, time=0),
    Message('note_on', channel=2, note=64, velocity=0, time=60),
    Message('note_on', channel=2, note=59, velocity=100, time=0),
    Message('note_on', channel=2, note=59, velocity=0, time=60),
    Message('note_on', channel=2, note=66, velocity=100, time=0),
    Message('note_on', channel=2, note=66, velocity=0, time=60),
    Message('note_on', channel=2, note=52, velocity=100, time=0),
    Message('note_on', channel=2, note=52, velocity=0, time=60),
    Message('note_on', channel=2, note=55, velocity=100, time=0),
    Message('note_on', channel=2, note=59, velocity=100, time=0),
    Message('note_on', channel=2, note=59, velocity=0, time=60),
    Message('note_on', channel=2, note=55, velocity=0, time=0),
    Message('note_on', channel=2, note=54, velocity=100, time=0),
    Message('note_on', channel=2, note=58, velocity=100, time=0),
    Message('note_on', channel=2, note=58, velocity=0, time=60),
    Message('note_on', channel=2, note=54, velocity=0, time=0),
    Message('note_on', channel=2, note=76, velocity=100, time=0),
    Message('note_on', channel=2, note=76, velocity=0, time=60),
    Message('note_on', channel=2, note=71, velocity=100, time=0),
    Message('note_on', channel=2, note=71, velocity=0, time=60),
    Message('note_on', channel=2, note=54, velocity=100, time=0),
    Message('note_on', channel=2, note=58, velocity=100, time=0),
    Message('note_on', channel=2, note=58, velocity=0, time=60),
    Message('note_on', channel=2, note=54, velocity=0, time=0),
    Message('note_on', channel=2, note=53, velocity=100, time=0),
    Message('note_on', channel=2, note=57, velocity=100, time=0),
    Message('note_on', channel=2, note=57, velocity=0, time=60),
    Message('note_on', channel=2, note=53, velocity=0, time=0),
    Message('note_on', channel=2, note=76, velocity=100, time=0),
    Message('note_on', channel=2, note=76, velocity=0, time=60),
    Message('note_on', channel=2, note=71, velocity=100, time=0),
    Message('note_on', channel=2, note=71, velocity=0, time=60),
    Message('note_on', channel=2, note=53, velocity=100, time=0),
    Message('note_on', channel=2, note=57, velocity=100, time=0),
    Message('note_on', channel=2, note=57, velocity=0, time=60),
    Message('note_on', channel=2, note=53, velocity=0, time=0),
    Message('note_on', channel=2, note=52, velocity=100, time=0),
    Message('note_on', channel=2, note=62, velocity=100, time=165),
    Message('note_on', channel=2, note=62, velocity=0, time=15),
    Message('note_on', channel=2, note=52, velocity=0, time=0),
    Message('note_on', channel=2, note=64, velocity=100, time=0),
    Message('note_on', channel=2, note=64, velocity=0, time=60),
    Message('note_on', channel=2, note=59, velocity=100, time=0),
    Message('note_on', channel=2, note=59, velocity=0, time=60),
    Message('note_on', channel=2, note=66, velocity=100, time=0),
    Message('note_on', channel=2, note=66, velocity=0, time=60),
    Message('note_on', channel=2, note=52, velocity=100, time=0),
    Message('note_on', channel=2, note=52, velocity=0, time=60),
    Message('note_on', channel=2, note=60, velocity=100, time=0),
    Message('note_on', channel=2, note=60, velocity=0, time=60),
    Message('note_on', channel=2, note=67, velocity=100, time=0),
    Message('note_on', channel=2, note=67, velocity=0, time=540),
    Message('note_on', channel=2, note=52, velocity=100, time=0),
    Message('note_on', channel=2, note=62, velocity=100, time=105),
    Message('note_on', channel=2, note=62, velocity=0, time=15),
    Message('note_on', channel=2, note=52, velocity=0, time=0),
    Message('note_on', channel=2, note=64, velocity=100, time=0),
    Message('note_on', channel=2, note=64, velocity=0, time=60),
    Message('note_on', channel=2, note=59, velocity=100, time=0),
    Message('note_on', channel=2, note=59, velocity=0, time=60),
    Message('note_on', channel=2, note=66, velocity=100, time=0),
    Message('note_on', channel=2, note=66, velocity=0, time=60),
    Message('note_on', channel=2, note=52, velocity=100, time=0),
    Message('note_on', channel=2, note=52, velocity=0, time=60),
    Message('note_on', channel=2, note=55, velocity=100, time=0),
    Message('note_on', channel=2, note=59, velocity=100, time=0),
    Message('note_on', channel=2, note=59, velocity=0, time=60),
    Message('note_on', channel=2, note=55, velocity=0, time=0),
    Message('note_on', channel=2, note=54, velocity=100, time=0),
    Message('note_on', channel=2, note=58, velocity=100, time=0),
    Message('note_on', channel=2, note=58, velocity=0, time=60),
    Message('note_on', channel=2, note=54, velocity=0, time=0),
    Message('note_on', channel=2, note=76, velocity=100, time=0),
    Message('note_on', channel=2, note=76, velocity=0, time=60),
    Message('note_on', channel=2, note=71, velocity=100, time=0),
    Message('note_on', channel=2, note=71, velocity=0, time=60),
    Message('note_on', channel=2, note=54, velocity=100, time=0),
    Message('note_on', channel=2, note=58, velocity=100, time=0),
    Message('note_on', channel=2, note=58, velocity=0, time=60),
    Message('note_on', channel=2, note=54, velocity=0, time=0),
    Message('note_on', channel=2, note=53, velocity=100, time=0),
    Message('note_on', channel=2, note=57, velocity=100, time=0),
    Message('note_on', channel=2, note=57, velocity=0, time=60),
    Message('note_on', channel=2, note=53, velocity=0, time=0),
    Message('note_on', channel=2, note=76, velocity=100, time=0),
    Message('note_on', channel=2, note=76, velocity=0, time=60),
    Message('note_on', channel=2, note=71, velocity=100, time=0),
    Message('note_on', channel=2, note=71, velocity=0, time=60),
    Message('note_on', channel=2, note=53, velocity=100, time=0),
    Message('note_on', channel=2, note=57, velocity=100, time=0),
    Message('note_on', channel=2, note=57, velocity=0, time=60),
    Message('note_on', channel=2, note=53, velocity=0, time=0),
    Message('note_on', channel=2, note=52, velocity=100, time=0),
    Message('note_on', channel=2, note=52, velocity=0, time=60),
    Message('note_on', channel=2, note=52, velocity=100, time=0),
    Message('note_on', channel=2, note=52, velocity=0, time=60),
    Message('note_on', channel=2, note=52, velocity=100, time=0),
    Message('note_on', channel=2, note=62, velocity=100, time=45),
    Message('note_on', channel=2, note=62, velocity=0, time=15),
    Message('note_on', channel=2, note=52, velocity=0, time=0),
    Message('note_on', channel=2, note=64, velocity=100, time=0),
    Message('note_on', channel=2, note=64, velocity=0, time=60),
    Message('note_on', channel=2, note=59, velocity=100, time=0),
    Message('note_on', channel=2, note=59, velocity=0, time=60),
    Message('note_on', channel=2, note=66, velocity=100, time=0),
    Message('note_on', channel=2, note=66, velocity=0, time=60),
    Message('note_on', channel=2, note=52, velocity=100, time=0),
    Message('note_on', channel=2, note=52, velocity=0, time=60),
    Message('note_on', channel=2, note=60, velocity=100, time=0),
    Message('note_on', channel=2, note=60, velocity=0, time=60),
    Message('note_on', channel=2, note=67, velocity=100, time=0),
    Message('note_on', channel=2, note=67, velocity=0, time=120),
    Message('note_on', channel=2, note=60, velocity=100, time=0),
    Message('note_on', channel=2, note=67, velocity=100, time=0),
    Message('note_on', channel=2, note=67, velocity=0, time=60),
    Message('note_on', channel=2, note=60, velocity=0, time=0),
    Message('note_on', channel=2, note=60, velocity=100, time=0),
    Message('note_on', channel=2, note=67, velocity=100, time=0),
    Message('note_on', channel=2, note=67, velocity=0, time=60),
    Message('note_on', channel=2, note=60, velocity=0, time=0),
    Message('note_on', channel=2, note=60, velocity=100, time=0),
    Message('note_on', channel=2, note=67, velocity=100, time=0),
    Message('note_on', channel=2, note=67, velocity=0, time=60),
    Message('note_on', channel=2, note=60, velocity=0, time=0),
    Message('note_on', channel=2, note=60, velocity=100, time=0),
    Message('note_on', channel=2, note=67, velocity=100, time=0),
    Message('note_on', channel=2, note=67, velocity=0, time=60),
    Message('note_on', channel=2, note=60, velocity=0, time=0),
    Message('note_on', channel=2, note=60, velocity=100, time=0),
    Message('note_on', channel=2, note=67, velocity=100, time=0),
    Message('note_on', channel=2, note=67, velocity=0, time=60),
    Message('note_on', channel=2, note=60, velocity=0, time=0),
    Message('note_on', channel=2, note=60, velocity=100, time=0),
    Message('note_on', channel=2, note=67, velocity=100, time=0),
    Message('note_on', channel=2, note=67, velocity=0, time=60),
    Message('note_on', channel=2, note=60, velocity=0, time=0),
    Message('note_on', channel=2, note=60, velocity=100, time=0),
    Message('note_on', channel=2, note=67, velocity=100, time=0),
    Message('note_on', channel=2, note=67, velocity=0, time=60),
    Message('note_on', channel=2, note=60, velocity=0, time=0),
    Message('note_on', channel=2, note=52, velocity=100, time=0),
    Message('note_on', channel=2, note=52, velocity=0, time=60),
    Message('note_on', channel=2, note=52, velocity=100, time=0),
    Message('note_on', channel=2, note=52, velocity=0, time=60),
    Message('note_on', channel=2, note=64, velocity=100, time=0),
    Message('note_on', channel=2, note=64, velocity=0, time=60),
    Message('note_on', channel=2, note=59, velocity=100, time=0),
    Message('note_on', channel=2, note=59, velocity=0, time=60),
    Message('note_on', channel=2, note=66, velocity=100, time=0),
    Message('note_on', channel=2, note=66, velocity=0, time=60),
    Message('note_on', channel=2, note=52, velocity=100, time=0),
    Message('note_on', channel=2, note=52, velocity=0, time=60),
    Message('note_on', channel=2, note=59, velocity=100, time=0),
    Message('note_on', channel=2, note=55, velocity=100, time=0),
    Message('note_on', channel=2, note=55, velocity=0, time=60),
    Message('note_on', channel=2, note=59, velocity=0, time=0),
    Message('note_on', channel=2, note=54, velocity=100, time=0),
    Message('note_on', channel=2, note=58, velocity=100, time=0),
    Message('note_on', channel=2, note=58, velocity=0, time=60),
    Message('note_on', channel=2, note=54, velocity=0, time=0),
    Message('note_on', channel=2, note=76, velocity=100, time=0),
    Message('note_on', channel=2, note=76, velocity=0, time=60),
    Message('note_on', channel=2, note=71, velocity=100, time=0),
    Message('note_on', channel=2, note=71, velocity=0, time=60),
    Message('note_on', channel=2, note=54, velocity=100, time=0),
    Message('note_on', channel=2, note=58, velocity=100, time=0),
    Message('note_on', channel=2, note=58, velocity=0, time=60),
    Message('note_on', channel=2, note=54, velocity=0, time=0),
    Message('note_on', channel=2, note=53, velocity=100, time=0),
    Message('note_on', channel=2, note=57, velocity=100, time=0),
    Message('note_on', channel=2, note=57, velocity=0, time=60),
    Message('note_on', channel=2, note=53, velocity=0, time=0),
    Message('note_on', channel=2, note=76, velocity=100, time=0),
    Message('note_on', channel=2, note=76, velocity=0, time=60),
    Message('note_on', channel=2, note=71, velocity=100, time=0),
    Message('note_on', channel=2, note=71, velocity=0, time=60),
    Message('note_on', channel=2, note=54, velocity=100, time=0),
    Message('note_on', channel=2, note=57, velocity=100, time=0),
    Message('note_on', channel=2, note=57, velocity=0, time=60),
    Message('note_on', channel=2, note=54, velocity=0, time=0),
    Message('note_on', channel=2, note=52, velocity=100, time=0),
    Message('note_on', channel=2, note=52, velocity=0, time=60),
    Message('note_on', channel=2, note=52, velocity=100, time=0),
    Message('note_on', channel=2, note=52, velocity=0, time=60),
    Message('note_on', channel=2, note=52, velocity=100, time=0),
    Message('note_on', channel=2, note=62, velocity=100, time=45),
    Message('note_on', channel=2, note=62, velocity=0, time=15),
    Message('note_on', channel=2, note=52, velocity=0, time=0),
    Message('note_on', channel=2, note=64, velocity=100, time=0),
    Message('note_on', channel=2, note=64, velocity=0, time=60),
    Message('note_on', channel=2, note=59, velocity=100, time=0),
    Message('note_on', channel=2, note=59, velocity=0, time=60),
    Message('note_on', channel=2, note=66, velocity=100, time=0),
    Message('note_on', channel=2, note=66, velocity=0, time=60),
    Message('note_on', channel=2, note=52, velocity=100, time=0),
    Message('note_on', channel=2, note=52, velocity=0, time=60),
    Message('note_on', channel=2, note=60, velocity=100, time=0),
    Message('note_on', channel=2, note=60, velocity=0, time=60),
    Message('note_on', channel=2, note=67, velocity=100, time=0),
    Message('note_on', channel=2, note=67, velocity=0, time=120),
    Message('note_on', channel=2, note=60, velocity=100, time=0),
    Message('note_on', channel=2, note=67, velocity=100, time=0),
    Message('note_on', channel=2, note=67, velocity=0, time=60),
    Message('note_on', channel=2, note=60, velocity=0, time=0),
    Message('note_on', channel=2, note=60, velocity=100, time=0),
    Message('note_on', channel=2, note=67, velocity=100, time=0),
    Message('note_on', channel=2, note=67, velocity=0, time=60),
    Message('note_on', channel=2, note=60, velocity=0, time=0),
    Message('note_on', channel=2, note=60, velocity=100, time=0),
    Message('note_on', channel=2, note=67, velocity=100, time=0),
    Message('note_on', channel=2, note=67, velocity=0, time=60),
    Message('note_on', channel=2, note=60, velocity=0, time=0),
    Message('note_on', channel=2, note=60, velocity=100, time=0),
    Message('note_on', channel=2, note=67, velocity=100, time=0),
    Message('note_on', channel=2, note=67, velocity=0, time=60),
    Message('note_on', channel=2, note=60, velocity=0, time=0),
    Message('note_on', channel=2, note=60, velocity=100, time=0),
    Message('note_on', channel=2, note=67, velocity=100, time=0),
    Message('note_on', channel=2, note=67, velocity=0, time=60),
    Message('note_on', channel=2, note=60, velocity=0, time=0),
    Message('note_on', channel=2, note=60, velocity=100, time=0),
    Message('note_on', channel=2, note=67, velocity=100, time=0),
    Message('note_on', channel=2, note=67, velocity=0, time=60),
    Message('note_on', channel=2, note=60, velocity=0, time=0),
    Message('note_on', channel=2, note=60, velocity=100, time=0),
    Message('note_on', channel=2, note=67, velocity=100, time=0),
    Message('note_on', channel=2, note=67, velocity=0, time=60),
    Message('note_on', channel=2, note=60, velocity=0, time=0),
    Message('note_on', channel=2, note=52, velocity=100, time=0),
    Message('note_on', channel=2, note=52, velocity=0, time=60),
    Message('note_on', channel=2, note=52, velocity=100, time=0),
    Message('note_on', channel=2, note=52, velocity=0, time=60),
    Message('note_on', channel=2, note=64, velocity=100, time=0),
    Message('note_on', channel=2, note=64, velocity=0, time=60),
    Message('note_on', channel=2, note=59, velocity=100, time=0),
    Message('note_on', channel=2, note=59, velocity=0, time=60),
    Message('note_on', channel=2, note=66, velocity=100, time=0),
    Message('note_on', channel=2, note=66, velocity=0, time=60),
    Message('note_on', channel=2, note=52, velocity=100, time=0),
    Message('note_on', channel=2, note=52, velocity=0, time=60),
    Message('note_on', channel=2, note=59, velocity=100, time=0),
    Message('note_on', channel=2, note=55, velocity=100, time=0),
    Message('note_on', channel=2, note=55, velocity=0, time=60),
    Message('note_on', channel=2, note=59, velocity=0, time=0),
    Message('note_on', channel=2, note=54, velocity=100, time=0),
    Message('note_on', channel=2, note=58, velocity=100, time=0),
    Message('note_on', channel=2, note=58, velocity=0, time=60),
    Message('note_on', channel=2, note=54, velocity=0, time=0),
    Message('note_on', channel=2, note=76, velocity=100, time=0),
    Message('note_on', channel=2, note=76, velocity=0, time=60),
    Message('note_on', channel=2, note=71, velocity=100, time=0),
    Message('note_on', channel=2, note=71, velocity=0, time=60),
    Message('note_on', channel=2, note=54, velocity=100, time=0),
    Message('note_on', channel=2, note=58, velocity=100, time=0),
    Message('note_on', channel=2, note=58, velocity=0, time=60),
    Message('note_on', channel=2, note=54, velocity=0, time=0),
    Message('note_on', channel=2, note=53, velocity=100, time=0),
    Message('note_on', channel=2, note=57, velocity=100, time=0),
    Message('note_on', channel=2, note=57, velocity=0, time=60),
    Message('note_on', channel=2, note=53, velocity=0, time=0),
    Message('note_on', channel=2, note=76, velocity=100, time=0),
    Message('note_on', channel=2, note=76, velocity=0, time=60),
    Message('note_on', channel=2, note=71, velocity=100, time=0),
    Message('note_on', channel=2, note=71, velocity=0, time=60),
    Message('note_on', channel=2, note=54, velocity=100, time=0),
    Message('note_on', channel=2, note=57, velocity=100, time=0),
    Message('note_on', channel=2, note=57, velocity=0, time=60),
    Message('note_on', channel=2, note=54, velocity=0, time=0),
    Message('note_on', channel=2, note=52, velocity=100, time=0),
    Message('note_on', channel=2, note=52, velocity=0, time=60),
    Message('note_on', channel=2, note=52, velocity=100, time=0),
    Message('note_on', channel=2, note=52, velocity=0, time=60),
    Message('note_on', channel=2, note=52, velocity=100, time=0),
    Message('note_on', channel=2, note=62, velocity=100, time=45),
    Message('note_on', channel=2, note=62, velocity=0, time=15),
    Message('note_on', channel=2, note=52, velocity=0, time=0),
    Message('note_on', channel=2, note=64, velocity=100, time=0),
    Message('note_on', channel=2, note=64, velocity=0, time=60),
    Message('note_on', channel=2, note=59, velocity=100, time=0),
    Message('note_on', channel=2, note=59, velocity=0, time=60),
    Message('note_on', channel=2, note=66, velocity=100, time=0),
    Message('note_on', channel=2, note=66, velocity=0, time=60),
    Message('note_on', channel=2, note=52, velocity=100, time=0),
    Message('note_on', channel=2, note=52, velocity=0, time=60),
    Message('note_on', channel=2, note=60, velocity=100, time=0),
    Message('note_on', channel=2, note=60, velocity=0, time=60),
    Message('note_on', channel=2, note=67, velocity=100, time=0),
    Message('note_on', channel=2, note=67, velocity=0, time=120),
    Message('note_on', channel=2, note=60, velocity=100, time=0),
    Message('note_on', channel=2, note=67, velocity=100, time=0),
    Message('note_on', channel=2, note=67, velocity=0, time=60),
    Message('note_on', channel=2, note=60, velocity=0, time=0),
    Message('note_on', channel=2, note=60, velocity=100, time=0),
    Message('note_on', channel=2, note=67, velocity=100, time=0),
    Message('note_on', channel=2, note=67, velocity=0, time=60),
    Message('note_on', channel=2, note=60, velocity=0, time=0),
    Message('note_on', channel=2, note=60, velocity=100, time=0),
    Message('note_on', channel=2, note=67, velocity=100, time=0),
    Message('note_on', channel=2, note=67, velocity=0, time=60),
    Message('note_on', channel=2, note=60, velocity=0, time=0),
    Message('note_on', channel=2, note=60, velocity=100, time=0),
    Message('note_on', channel=2, note=67, velocity=100, time=0),
    Message('note_on', channel=2, note=67, velocity=0, time=60),
    Message('note_on', channel=2, note=60, velocity=0, time=0),
    Message('note_on', channel=2, note=60, velocity=100, time=0),
    Message('note_on', channel=2, note=67, velocity=100, time=0),
    Message('note_on', channel=2, note=67, velocity=0, time=60),
    Message('note_on', channel=2, note=60, velocity=0, time=0),
    Message('note_on', channel=2, note=60, velocity=100, time=0),
    Message('note_on', channel=2, note=67, velocity=100, time=0),
    Message('note_on', channel=2, note=67, velocity=0, time=60),
    Message('note_on', channel=2, note=60, velocity=0, time=0),
    Message('note_on', channel=2, note=60, velocity=100, time=0),
    Message('note_on', channel=2, note=67, velocity=100, time=0),
    Message('note_on', channel=2, note=67, velocity=0, time=60),
    Message('note_on', channel=2, note=60, velocity=0, time=0),
    Message('note_on', channel=2, note=52, velocity=100, time=0),
    Message('note_on', channel=2, note=52, velocity=0, time=60),
    Message('note_on', channel=2, note=52, velocity=100, time=0),
    Message('note_on', channel=2, note=52, velocity=0, time=60),
    Message('note_on', channel=2, note=64, velocity=100, time=0),
    Message('note_on', channel=2, note=64, velocity=0, time=60),
    Message('note_on', channel=2, note=59, velocity=100, time=0),
    Message('note_on', channel=2, note=59, velocity=0, time=60),
    Message('note_on', channel=2, note=66, velocity=100, time=0),
    Message('note_on', channel=2, note=66, velocity=0, time=60),
    Message('note_on', channel=2, note=52, velocity=100, time=0),
    Message('note_on', channel=2, note=52, velocity=0, time=60),
    Message('note_on', channel=2, note=59, velocity=100, time=0),
    Message('note_on', channel=2, note=55, velocity=100, time=0),
    Message('note_on', channel=2, note=55, velocity=0, time=60),
    Message('note_on', channel=2, note=59, velocity=0, time=0),
    Message('note_on', channel=2, note=54, velocity=100, time=0),
    Message('note_on', channel=2, note=58, velocity=100, time=0),
    Message('note_on', channel=2, note=58, velocity=0, time=60),
    Message('note_on', channel=2, note=54, velocity=0, time=0),
    Message('note_on', channel=2, note=76, velocity=100, time=0),
    Message('note_on', channel=2, note=76, velocity=0, time=60),
    Message('note_on', channel=2, note=71, velocity=100, time=0),
    Message('note_on', channel=2, note=71, velocity=0, time=60),
    Message('note_on', channel=2, note=54, velocity=100, time=0),
    Message('note_on', channel=2, note=58, velocity=100, time=0),
    Message('note_on', channel=2, note=58, velocity=0, time=60),
    Message('note_on', channel=2, note=54, velocity=0, time=0),
    Message('note_on', channel=2, note=53, velocity=100, time=0),
    Message('note_on', channel=2, note=57, velocity=100, time=0),
    Message('note_on', channel=2, note=57, velocity=0, time=60),
    Message('note_on', channel=2, note=53, velocity=0, time=0),
    Message('note_on', channel=2, note=76, velocity=100, time=0),
    Message('note_on', channel=2, note=76, velocity=0, time=60),
    Message('note_on', channel=2, note=71, velocity=100, time=0),
    Message('note_on', channel=2, note=71, velocity=0, time=60),
    Message('note_on', channel=2, note=54, velocity=100, time=0),
    Message('note_on', channel=2, note=57, velocity=100, time=0),
    Message('note_on', channel=2, note=57, velocity=0, time=60),
    Message('note_on', channel=2, note=54, velocity=0, time=0),
    Message('note_on', channel=2, note=52, velocity=100, time=0),
    Message('note_on', channel=2, note=52, velocity=0, time=60),
    Message('note_on', channel=2, note=52, velocity=100, time=0),
    Message('note_on', channel=2, note=52, velocity=0, time=60),
    Message('note_on', channel=2, note=52, velocity=100, time=0),
    Message('note_on', channel=2, note=62, velocity=100, time=45),
    Message('note_on', channel=2, note=62, velocity=0, time=15),
    Message('note_on', channel=2, note=52, velocity=0, time=0),
    Message('note_on', channel=2, note=64, velocity=100, time=0),
    Message('note_on', channel=2, note=64, velocity=0, time=60),
    Message('note_on', channel=2, note=59, velocity=100, time=0),
    Message('note_on', channel=2, note=59, velocity=0, time=60),
    Message('note_on', channel=2, note=66, velocity=100, time=0),
    Message('note_on', channel=2, note=66, velocity=0, time=60),
    Message('note_on', channel=2, note=52, velocity=100, time=0),
    Message('note_on', channel=2, note=52, velocity=0, time=60),
    Message('note_on', channel=2, note=60, velocity=100, time=0),
    Message('note_on', channel=2, note=60, velocity=0, time=60),
    Message('note_on', channel=2, note=67, velocity=100, time=0),
    Message('note_on', channel=2, note=67, velocity=0, time=120),
    Message('note_on', channel=2, note=60, velocity=100, time=0),
    Message('note_on', channel=2, note=67, velocity=100, time=0),
    Message('note_on', channel=2, note=67, velocity=0, time=60),
    Message('note_on', channel=2, note=60, velocity=0, time=0),
    Message('note_on', channel=2, note=60, velocity=100, time=0),
    Message('note_on', channel=2, note=67, velocity=100, time=0),
    Message('note_on', channel=2, note=67, velocity=0, time=60),
    Message('note_on', channel=2, note=60, velocity=0, time=0),
    Message('note_on', channel=2, note=60, velocity=100, time=0),
    Message('note_on', channel=2, note=67, velocity=100, time=0),
    Message('note_on', channel=2, note=67, velocity=0, time=60),
    Message('note_on', channel=2, note=60, velocity=0, time=0),
    Message('note_on', channel=2, note=60, velocity=100, time=0),
    Message('note_on', channel=2, note=67, velocity=100, time=0),
    Message('note_on', channel=2, note=67, velocity=0, time=60),
    Message('note_on', channel=2, note=60, velocity=0, time=0),
    Message('note_on', channel=2, note=60, velocity=100, time=0),
    Message('note_on', channel=2, note=67, velocity=100, time=0),
    Message('note_on', channel=2, note=67, velocity=0, time=60),
    Message('note_on', channel=2, note=60, velocity=0, time=0),
    Message('note_on', channel=2, note=60, velocity=100, time=0),
    Message('note_on', channel=2, note=67, velocity=100, time=0),
    Message('note_on', channel=2, note=67, velocity=0, time=60),
    Message('note_on', channel=2, note=60, velocity=0, time=0),
    Message('note_on', channel=2, note=60, velocity=100, time=0),
    Message('note_on', channel=2, note=67, velocity=100, time=0),
    Message('note_on', channel=2, note=67, velocity=0, time=60),
    Message('note_on', channel=2, note=60, velocity=0, time=0),
    Message('note_on', channel=2, note=52, velocity=100, time=0),
    Message('note_on', channel=2, note=52, velocity=0, time=60),
    Message('note_on', channel=2, note=52, velocity=100, time=0),
    Message('note_on', channel=2, note=52, velocity=0, time=60),
    Message('note_on', channel=2, note=64, velocity=100, time=0),
    Message('note_on', channel=2, note=64, velocity=0, time=60),
    Message('note_on', channel=2, note=59, velocity=100, time=0),
    Message('note_on', channel=2, note=59, velocity=0, time=60),
    Message('note_on', channel=2, note=66, velocity=100, time=0),
    Message('note_on', channel=2, note=66, velocity=0, time=60),
    Message('note_on', channel=2, note=52, velocity=100, time=0),
    Message('note_on', channel=2, note=52, velocity=0, time=60),
    Message('note_on', channel=2, note=59, velocity=100, time=0),
    Message('note_on', channel=2, note=55, velocity=100, time=0),
    Message('note_on', channel=2, note=55, velocity=0, time=60),
    Message('note_on', channel=2, note=59, velocity=0, time=0),
    Message('note_on', channel=2, note=54, velocity=100, time=0),
    Message('note_on', channel=2, note=58, velocity=100, time=0),
    Message('note_on', channel=2, note=58, velocity=0, time=60),
    Message('note_on', channel=2, note=54, velocity=0, time=0),
    Message('note_on', channel=2, note=76, velocity=100, time=0),
    Message('note_on', channel=2, note=76, velocity=0, time=60),
    Message('note_on', channel=2, note=71, velocity=100, time=0),
    Message('note_on', channel=2, note=71, velocity=0, time=60),
    Message('note_on', channel=2, note=54, velocity=100, time=0),
    Message('note_on', channel=2, note=58, velocity=100, time=0),
    Message('note_on', channel=2, note=58, velocity=0, time=60),
    Message('note_on', channel=2, note=54, velocity=0, time=0),
    Message('note_on', channel=2, note=53, velocity=100, time=0),
    Message('note_on', channel=2, note=57, velocity=100, time=0),
    Message('note_on', channel=2, note=57, velocity=0, time=60),
    Message('note_on', channel=2, note=53, velocity=0, time=0),
    Message('note_on', channel=2, note=76, velocity=100, time=0),
    Message('note_on', channel=2, note=76, velocity=0, time=60),
    Message('note_on', channel=2, note=71, velocity=100, time=0),
    Message('note_on', channel=2, note=71, velocity=0, time=60),
    Message('note_on', channel=2, note=54, velocity=100, time=0),
    Message('note_on', channel=2, note=57, velocity=100, time=0),
    Message('note_on', channel=2, note=57, velocity=0, time=60),
    Message('note_on', channel=2, note=54, velocity=0, time=0),
    Message('note_on', channel=2, note=55, velocity=100, time=0),
    Message('note_on', channel=2, note=55, velocity=0, time=60),
    Message('note_on', channel=2, note=59, velocity=100, time=0),
    Message('note_on', channel=2, note=59, velocity=0, time=60),
    Message('note_on', channel=2, note=62, velocity=100, time=0),
    Message('note_on', channel=2, note=62, velocity=0, time=60),
    Message('note_on', channel=2, note=74, velocity=100, time=0),
    Message('note_on', channel=2, note=74, velocity=0, time=60),
    Message('note_on', channel=2, note=71, velocity=100, time=0),
    Message('note_on', channel=2, note=71, velocity=0, time=60),
    Message('note_on', channel=2, note=67, velocity=100, time=0),
    Message('note_on', channel=2, note=67, velocity=0, time=60),
    Message('note_on', channel=2, note=65, velocity=100, time=0),
    Message('note_on', channel=2, note=65, velocity=0, time=60),
    Message('note_on', channel=2, note=62, velocity=100, time=0),
    Message('note_on', channel=2, note=62, velocity=0, time=60),
    Message('note_on', channel=2, note=58, velocity=100, time=0),
    Message('note_on', channel=2, note=58, velocity=0, time=60),
    Message('note_on', channel=2, note=65, velocity=100, time=0),
    Message('note_on', channel=2, note=65, velocity=0, time=60),
    Message('note_on', channel=2, note=70, velocity=100, time=0),
    Message('note_on', channel=2, note=70, velocity=0, time=60),
    Message('note_on', channel=2, note=72, velocity=100, time=0),
    Message('note_on', channel=2, note=72, velocity=0, time=60),
    Message('note_on', channel=2, note=71, velocity=100, time=0),
    Message('note_on', channel=2, note=71, velocity=0, time=60),
    Message('note_on', channel=2, note=66, velocity=100, time=0),
    Message('note_on', channel=2, note=66, velocity=0, time=60),
    Message('note_on', channel=2, note=58, velocity=100, time=0),
    Message('note_on', channel=2, note=58, velocity=0, time=60),
    Message('note_on', channel=2, note=53, velocity=100, time=0),
    Message('note_on', channel=2, note=53, velocity=0, time=60),
    Message('note_on', channel=2, note=54, velocity=100, time=0),
    Message('note_on', channel=2, note=54, velocity=0, time=60),
    Message('note_on', channel=2, note=55, velocity=100, time=0),
    Message('note_on', channel=2, note=55, velocity=0, time=60),
    Message('note_on', channel=2, note=59, velocity=100, time=0),
    Message('note_on', channel=2, note=59, velocity=0, time=60),
    Message('note_on', channel=2, note=74, velocity=100, time=0),
    Message('note_on', channel=2, note=74, velocity=0, time=60),
    Message('note_on', channel=2, note=71, velocity=100, time=0),
    Message('note_on', channel=2, note=71, velocity=0, time=60),
    Message('note_on', channel=2, note=67, velocity=100, time=0),
    Message('note_on', channel=2, note=67, velocity=0, time=60),
    Message('note_on', channel=2, note=65, velocity=100, time=0),
    Message('note_on', channel=2, note=65, velocity=0, time=60),
    Message('note_on', channel=2, note=62, velocity=100, time=0),
    Message('note_on', channel=2, note=62, velocity=0, time=60),
    Message('note_on', channel=2, note=58, velocity=100, time=0),
    Message('note_on', channel=2, note=58, velocity=0, time=60),
    Message('note_on', channel=2, note=66, velocity=100, time=0),
    Message('note_on', channel=2, note=66, velocity=0, time=60),
    Message('note_on', channel=2, note=71, velocity=100, time=0),
    Message('note_on', channel=2, note=71, velocity=0, time=60),
    Message('note_on', channel=2, note=72, velocity=100, time=0),
    Message('note_on', channel=2, note=72, velocity=0, time=60),
    Message('note_on', channel=2, note=71, velocity=100, time=0),
    Message('note_on', channel=2, note=71, velocity=0, time=60),
    Message('note_on', channel=2, note=66, velocity=100, time=0),
    Message('note_on', channel=2, note=66, velocity=0, time=60),
    Message('note_on', channel=2, note=58, velocity=100, time=0),
    Message('note_on', channel=2, note=58, velocity=0, time=60),
    Message('note_on', channel=2, note=53, velocity=100, time=0),
    Message('note_on', channel=2, note=53, velocity=0, time=60),
    Message('note_on', channel=2, note=54, velocity=100, time=0),
    Message('note_on', channel=2, note=54, velocity=0, time=60),
    Message('note_on', channel=2, note=55, velocity=100, time=0),
    Message('note_on', channel=2, note=55, velocity=0, time=60),
    Message('note_on', channel=2, note=59, velocity=100, time=0),
    Message('note_on', channel=2, note=59, velocity=0, time=60),
    Message('note_on', channel=2, note=74, velocity=100, time=0),
    Message('note_on', channel=2, note=74, velocity=0, time=60),
    Message('note_on', channel=2, note=71, velocity=100, time=0),
    Message('note_on', channel=2, note=71, velocity=0, time=60),
    Message('note_on', channel=2, note=67, velocity=100, time=0),
    Message('note_on', channel=2, note=67, velocity=0, time=60),
    Message('note_on', channel=2, note=65, velocity=100, time=0),
    Message('note_on', channel=2, note=65, velocity=0, time=60),
    Message('note_on', channel=2, note=62, velocity=100, time=0),
    Message('note_on', channel=2, note=62, velocity=0, time=60),
    Message('note_on', channel=2, note=58, velocity=100, time=0),
    Message('note_on', channel=2, note=58, velocity=0, time=60),
    Message('note_on', channel=2, note=66, velocity=100, time=0),
    Message('note_on', channel=2, note=66, velocity=0, time=60),
    Message('note_on', channel=2, note=71, velocity=100, time=0),
    Message('note_on', channel=2, note=71, velocity=0, time=60),
    Message('note_on', channel=2, note=72, velocity=100, time=0),
    Message('note_on', channel=2, note=72, velocity=0, time=60),
    Message('note_on', channel=2, note=71, velocity=100, time=0),
    Message('note_on', channel=2, note=71, velocity=0, time=60),
    Message('note_on', channel=2, note=66, velocity=100, time=0),
    Message('note_on', channel=2, note=66, velocity=0, time=60),
    Message('note_on', channel=2, note=58, velocity=100, time=0),
    Message('note_on', channel=2, note=58, velocity=0, time=60),
    Message('note_on', channel=2, note=53, velocity=100, time=0),
    Message('note_on', channel=2, note=53, velocity=0, time=60),
    Message('note_on', channel=2, note=54, velocity=100, time=0),
    Message('note_on', channel=2, note=54, velocity=0, time=60),
    Message('note_on', channel=2, note=55, velocity=100, time=0),
    Message('note_on', channel=2, note=55, velocity=0, time=60),
    Message('note_on', channel=2, note=59, velocity=100, time=0),
    Message('note_on', channel=2, note=59, velocity=0, time=60),
    Message('note_on', channel=2, note=74, velocity=100, time=0),
    Message('note_on', channel=2, note=74, velocity=0, time=60),
    Message('note_on', channel=2, note=71, velocity=100, time=0),
    Message('note_on', channel=2, note=71, velocity=0, time=60),
    Message('note_on', channel=2, note=67, velocity=100, time=0),
    Message('note_on', channel=2, note=67, velocity=0, time=60),
    Message('note_on', channel=2, note=65, velocity=100, time=0),
    Message('note_on', channel=2, note=65, velocity=0, time=60),
    Message('note_on', channel=2, note=55, velocity=100, time=0),
    Message('note_on', channel=2, note=59, velocity=100, time=0),
    Message('note_on', channel=2, note=59, velocity=0, time=60),
    Message('note_on', channel=2, note=55, velocity=0, time=0),
    Message('note_on', channel=2, note=54, velocity=100, time=0),
    Message('note_on', channel=2, note=58, velocity=100, time=0),
    Message('note_on', channel=2, note=58, velocity=0, time=60),
    Message('note_on', channel=2, note=54, velocity=0, time=0),
    Message('note_on', channel=2, note=76, velocity=100, time=0),
    Message('note_on', channel=2, note=76, velocity=0, time=60),
    Message('note_on', channel=2, note=71, velocity=100, time=0),
    Message('note_on', channel=2, note=71, velocity=0, time=60),
    Message('note_on', channel=2, note=54, velocity=100, time=0),
    Message('note_on', channel=2, note=58, velocity=100, time=0),
    Message('note_on', channel=2, note=58, velocity=0, time=60),
    Message('note_on', channel=2, note=54, velocity=0, time=0),
    Message('note_on', channel=2, note=53, velocity=100, time=0),
    Message('note_on', channel=2, note=57, velocity=100, time=0),
    Message('note_on', channel=2, note=57, velocity=0, time=60),
    Message('note_on', channel=2, note=53, velocity=0, time=0),
    Message('note_on', channel=2, note=76, velocity=100, time=0),
    Message('note_on', channel=2, note=76, velocity=0, time=60),
    Message('note_on', channel=2, note=71, velocity=100, time=0),
    Message('note_on', channel=2, note=71, velocity=0, time=60),
    Message('note_on', channel=2, note=53, velocity=100, time=0),
    Message('note_on', channel=2, note=57, velocity=100, time=0),
    Message('note_on', channel=2, note=57, velocity=0, time=60),
    Message('note_on', channel=2, note=53, velocity=0, time=0),
    Message('note_on', channel=2, note=52, velocity=100, time=0),
    Message('note_on', channel=2, note=52, velocity=0, time=60),
    Message('note_on', channel=2, note=52, velocity=100, time=120),
    Message('note_on', channel=2, note=52, velocity=0, time=60),
    Message('note_on', channel=2, note=52, velocity=100, time=0),
    Message('note_on', channel=2, note=62, velocity=100, time=45),
    Message('note_on', channel=2, note=62, velocity=0, time=15),
    Message('note_on', channel=2, note=52, velocity=0, time=0),
    Message('note_on', channel=2, note=64, velocity=100, time=0),
    Message('note_on', channel=2, note=64, velocity=0, time=60),
    Message('note_on', channel=2, note=59, velocity=100, time=0),
    Message('note_on', channel=2, note=59, velocity=0, time=60),
    Message('note_on', channel=2, note=66, velocity=100, time=0),
    Message('note_on', channel=2, note=66, velocity=0, time=60),
    Message('note_on', channel=2, note=52, velocity=100, time=0),
    Message('note_on', channel=2, note=52, velocity=0, time=60),
    Message('note_on', channel=2, note=60, velocity=100, time=0),
    Message('note_on', channel=2, note=60, velocity=0, time=60),
    Message('note_on', channel=2, note=67, velocity=100, time=0),
    Message('note_on', channel=2, note=67, velocity=0, time=120),
    Message('note_on', channel=2, note=60, velocity=100, time=0),
    Message('note_on', channel=2, note=67, velocity=100, time=0),
    Message('note_on', channel=2, note=67, velocity=0, time=60),
    Message('note_on', channel=2, note=60, velocity=0, time=0),
    Message('note_on', channel=2, note=60, velocity=100, time=0),
    Message('note_on', channel=2, note=67, velocity=100, time=0),
    Message('note_on', channel=2, note=67, velocity=0, time=60),
    Message('note_on', channel=2, note=60, velocity=0, time=0),
    Message('note_on', channel=2, note=60, velocity=100, time=0),
    Message('note_on', channel=2, note=67, velocity=100, time=0),
    Message('note_on', channel=2, note=67, velocity=0, time=60),
    Message('note_on', channel=2, note=60, velocity=0, time=0),
    Message('note_on', channel=2, note=60, velocity=100, time=0),
    Message('note_on', channel=2, note=67, velocity=100, time=0),
    Message('note_on', channel=2, note=67, velocity=0, time=60),
    Message('note_on', channel=2, note=60, velocity=0, time=0),
    Message('note_on', channel=2, note=60, velocity=100, time=0),
    Message('note_on', channel=2, note=67, velocity=100, time=0),
    Message('note_on', channel=2, note=67, velocity=0, time=60),
    Message('note_on', channel=2, note=60, velocity=0, time=0),
    Message('note_on', channel=2, note=77, velocity=100, time=0),
    Message('note_on', channel=2, note=77, velocity=0, time=30),
    Message('note_on', channel=2, note=74, velocity=100, time=0),
    Message('note_on', channel=2, note=74, velocity=0, time=90),
    Message('note_on', channel=2, note=52, velocity=100, time=0),
    Message('note_on', channel=2, note=59, velocity=100, time=0),
    Message('note_on', channel=2, note=62, velocity=100, time=105),
    Message('note_on', channel=2, note=62, velocity=0, time=15),
    Message('note_on', channel=2, note=59, velocity=0, time=0),
    Message('note_on', channel=2, note=52, velocity=0, time=0),
    Message('note_on', channel=2, note=64, velocity=100, time=0),
    Message('note_on', channel=2, note=64, velocity=0, time=60),
    Message('note_on', channel=2, note=59, velocity=100, time=0),
    Message('note_on', channel=2, note=59, velocity=0, time=60),
    Message('note_on', channel=2, note=66, velocity=100, time=0),
    Message('note_on', channel=2, note=66, velocity=0, time=60),
    Message('note_on', channel=2, note=52, velocity=100, time=0),
    Message('note_on', channel=2, note=52, velocity=0, time=60),
    Message('note_on', channel=2, note=55, velocity=100, time=0),
    Message('note_on', channel=2, note=59, velocity=100, time=0),
    Message('note_on', channel=2, note=59, velocity=0, time=60),
    Message('note_on', channel=2, note=55, velocity=0, time=0),
    Message('note_on', channel=2, note=54, velocity=100, time=0),
    Message('note_on', channel=2, note=58, velocity=100, time=0),
    Message('note_on', channel=2, note=58, velocity=0, time=60),
    Message('note_on', channel=2, note=54, velocity=0, time=0),
    Message('note_on', channel=2, note=76, velocity=100, time=0),
    Message('note_on', channel=2, note=76, velocity=0, time=60),
    Message('note_on', channel=2, note=71, velocity=100, time=0),
    Message('note_on', channel=2, note=71, velocity=0, time=60),
    Message('note_on', channel=2, note=54, velocity=100, time=0),
    Message('note_on', channel=2, note=58, velocity=100, time=0),
    Message('note_on', channel=2, note=58, velocity=0, time=60),
    Message('note_on', channel=2, note=54, velocity=0, time=0),
    Message('note_on', channel=2, note=53, velocity=100, time=0),
    Message('note_on', channel=2, note=57, velocity=100, time=0),
    Message('note_on', channel=2, note=57, velocity=0, time=60),
    Message('note_on', channel=2, note=53, velocity=0, time=0),
    Message('note_on', channel=2, note=76, velocity=100, time=0),
    Message('note_on', channel=2, note=76, velocity=0, time=60),
    Message('note_on', channel=2, note=71, velocity=100, time=0),
    Message('note_on', channel=2, note=71, velocity=0, time=60),
    Message('note_on', channel=2, note=53, velocity=100, time=0),
    Message('note_on', channel=2, note=57, velocity=100, time=0),
    Message('note_on', channel=2, note=57, velocity=0, time=60),
    Message('note_on', channel=2, note=53, velocity=0, time=0),
    Message('note_on', channel=2, note=52, velocity=100, time=0),
    Message('note_on', channel=2, note=52, velocity=0, time=60),
    Message('note_on', channel=2, note=52, velocity=100, time=0),
    Message('note_on', channel=2, note=52, velocity=0, time=60),
    Message('note_on', channel=2, note=52, velocity=100, time=0),
    Message('note_on', channel=2, note=62, velocity=100, time=45),
    Message('note_on', channel=2, note=62, velocity=0, time=15),
    Message('note_on', channel=2, note=52, velocity=0, time=0),
    Message('note_on', channel=2, note=64, velocity=100, time=0),
    Message('note_on', channel=2, note=64, velocity=0, time=60),
    Message('note_on', channel=2, note=59, velocity=100, time=0),
    Message('note_on', channel=2, note=59, velocity=0, time=60),
    Message('note_on', channel=2, note=66, velocity=100, time=0),
    Message('note_on', channel=2, note=66, velocity=0, time=60),
    Message('note_on', channel=2, note=52, velocity=100, time=0),
    Message('note_on', channel=2, note=52, velocity=0, time=60),
    Message('note_on', channel=2, note=60, velocity=100, time=0),
    Message('note_on', channel=2, note=60, velocity=0, time=60),
    Message('note_on', channel=2, note=67, velocity=100, time=0),
    Message('note_on', channel=2, note=67, velocity=0, time=120),
    Message('note_on', channel=2, note=60, velocity=100, time=0),
    Message('note_on', channel=2, note=67, velocity=100, time=0),
    Message('note_on', channel=2, note=67, velocity=0, time=60),
    Message('note_on', channel=2, note=60, velocity=0, time=0),
    Message('note_on', channel=2, note=60, velocity=100, time=0),
    Message('note_on', channel=2, note=67, velocity=100, time=0),
    Message('note_on', channel=2, note=67, velocity=0, time=60),
    Message('note_on', channel=2, note=60, velocity=0, time=0),
    Message('note_on', channel=2, note=60, velocity=100, time=0),
    Message('note_on', channel=2, note=67, velocity=100, time=0),
    Message('note_on', channel=2, note=67, velocity=0, time=60),
    Message('note_on', channel=2, note=60, velocity=0, time=0),
    Message('note_on', channel=2, note=60, velocity=100, time=0),
    Message('note_on', channel=2, note=67, velocity=100, time=0),
    Message('note_on', channel=2, note=67, velocity=0, time=60),
    Message('note_on', channel=2, note=60, velocity=0, time=0),
    Message('note_on', channel=2, note=60, velocity=100, time=0),
    Message('note_on', channel=2, note=67, velocity=100, time=0),
    Message('note_on', channel=2, note=67, velocity=0, time=60),
    Message('note_on', channel=2, note=60, velocity=0, time=0),
    Message('note_on', channel=2, note=60, velocity=100, time=0),
    Message('note_on', channel=2, note=67, velocity=100, time=0),
    Message('note_on', channel=2, note=67, velocity=0, time=60),
    Message('note_on', channel=2, note=60, velocity=0, time=0),
    Message('note_on', channel=2, note=60, velocity=100, time=0),
    Message('note_on', channel=2, note=67, velocity=100, time=0),
    Message('note_on', channel=2, note=67, velocity=0, time=60),
    Message('note_on', channel=2, note=60, velocity=0, time=0),
    Message('note_on', channel=2, note=52, velocity=100, time=0),
    Message('note_on', channel=2, note=52, velocity=0, time=60),
    Message('note_on', channel=2, note=52, velocity=100, time=0),
    Message('note_on', channel=2, note=52, velocity=0, time=60),
    Message('note_on', channel=2, note=64, velocity=100, time=0),
    Message('note_on', channel=2, note=64, velocity=0, time=60),
    Message('note_on', channel=2, note=59, velocity=100, time=0),
    Message('note_on', channel=2, note=59, velocity=0, time=60),
    Message('note_on', channel=2, note=66, velocity=100, time=0),
    Message('note_on', channel=2, note=66, velocity=0, time=60),
    Message('note_on', channel=2, note=52, velocity=100, time=0),
    Message('note_on', channel=2, note=52, velocity=0, time=60),
    Message('note_on', channel=2, note=59, velocity=100, time=0),
    Message('note_on', channel=2, note=55, velocity=100, time=0),
    Message('note_on', channel=2, note=55, velocity=0, time=60),
    Message('note_on', channel=2, note=59, velocity=0, time=0),
    Message('note_on', channel=2, note=54, velocity=100, time=0),
    Message('note_on', channel=2, note=58, velocity=100, time=0),
    Message('note_on', channel=2, note=58, velocity=0, time=60),
    Message('note_on', channel=2, note=54, velocity=0, time=0),
    Message('note_on', channel=2, note=76, velocity=100, time=0),
    Message('note_on', channel=2, note=76, velocity=0, time=60),
    Message('note_on', channel=2, note=71, velocity=100, time=0),
    Message('note_on', channel=2, note=71, velocity=0, time=60),
    Message('note_on', channel=2, note=54, velocity=100, time=0),
    Message('note_on', channel=2, note=58, velocity=100, time=0),
    Message('note_on', channel=2, note=58, velocity=0, time=60),
    Message('note_on', channel=2, note=54, velocity=0, time=0),
    Message('note_on', channel=2, note=53, velocity=100, time=0),
    Message('note_on', channel=2, note=57, velocity=100, time=0),
    Message('note_on', channel=2, note=57, velocity=0, time=60),
    Message('note_on', channel=2, note=53, velocity=0, time=0),
    Message('note_on', channel=2, note=76, velocity=100, time=0),
    Message('note_on', channel=2, note=76, velocity=0, time=60),
    Message('note_on', channel=2, note=71, velocity=100, time=0),
    Message('note_on', channel=2, note=71, velocity=0, time=60),
    Message('note_on', channel=2, note=54, velocity=100, time=0),
    Message('note_on', channel=2, note=57, velocity=100, time=0),
    Message('note_on', channel=2, note=57, velocity=0, time=60),
    Message('note_on', channel=2, note=54, velocity=0, time=0),
    Message('note_on', channel=2, note=52, velocity=100, time=0),
    Message('note_on', channel=2, note=52, velocity=0, time=60),
    Message('note_on', channel=2, note=52, velocity=100, time=0),
    Message('note_on', channel=2, note=52, velocity=0, time=60),
    Message('note_on', channel=2, note=52, velocity=100, time=0),
    Message('note_on', channel=2, note=62, velocity=100, time=45),
    Message('note_on', channel=2, note=62, velocity=0, time=15),
    Message('note_on', channel=2, note=52, velocity=0, time=0),
    Message('note_on', channel=2, note=64, velocity=100, time=0),
    Message('note_on', channel=2, note=64, velocity=0, time=60),
    Message('note_on', channel=2, note=59, velocity=100, time=0),
    Message('note_on', channel=2, note=59, velocity=0, time=60),
    Message('note_on', channel=2, note=66, velocity=100, time=0),
    Message('note_on', channel=2, note=66, velocity=0, time=60),
    Message('note_on', channel=2, note=52, velocity=100, time=0),
    Message('note_on', channel=2, note=52, velocity=0, time=60),
    Message('note_on', channel=2, note=60, velocity=100, time=0),
    Message('note_on', channel=2, note=60, velocity=0, time=60),
    Message('note_on', channel=2, note=67, velocity=100, time=0),
    Message('note_on', channel=2, note=67, velocity=0, time=120),
    Message('note_on', channel=2, note=60, velocity=100, time=0),
    Message('note_on', channel=2, note=67, velocity=100, time=0),
    Message('note_on', channel=2, note=67, velocity=0, time=60),
    Message('note_on', channel=2, note=60, velocity=0, time=0),
    Message('note_on', channel=2, note=60, velocity=100, time=0),
    Message('note_on', channel=2, note=67, velocity=100, time=0),
    Message('note_on', channel=2, note=67, velocity=0, time=60),
    Message('note_on', channel=2, note=60, velocity=0, time=0),
    Message('note_on', channel=2, note=60, velocity=100, time=0),
    Message('note_on', channel=2, note=67, velocity=100, time=0),
    Message('note_on', channel=2, note=67, velocity=0, time=60),
    Message('note_on', channel=2, note=60, velocity=0, time=0),
    Message('note_on', channel=2, note=60, velocity=100, time=0),
    Message('note_on', channel=2, note=67, velocity=100, time=0),
    Message('note_on', channel=2, note=67, velocity=0, time=60),
    Message('note_on', channel=2, note=60, velocity=0, time=0),
    Message('note_on', channel=2, note=60, velocity=100, time=0),
    Message('note_on', channel=2, note=67, velocity=100, time=0),
    Message('note_on', channel=2, note=67, velocity=0, time=60),
    Message('note_on', channel=2, note=60, velocity=0, time=0),
    Message('note_on', channel=2, note=60, velocity=100, time=0),
    Message('note_on', channel=2, note=67, velocity=100, time=0),
    Message('note_on', channel=2, note=67, velocity=0, time=60),
    Message('note_on', channel=2, note=60, velocity=0, time=0),
    Message('note_on', channel=2, note=60, velocity=100, time=0),
    Message('note_on', channel=2, note=67, velocity=100, time=0),
    Message('note_on', channel=2, note=67, velocity=0, time=60),
    Message('note_on', channel=2, note=60, velocity=0, time=0),
    Message('note_on', channel=2, note=52, velocity=100, time=0),
    Message('note_on', channel=2, note=52, velocity=0, time=60),
    Message('note_on', channel=2, note=52, velocity=100, time=0),
    Message('note_on', channel=2, note=52, velocity=0, time=60),
    Message('note_on', channel=2, note=64, velocity=100, time=0),
    Message('note_on', channel=2, note=64, velocity=0, time=60),
    Message('note_on', channel=2, note=59, velocity=100, time=0),
    Message('note_on', channel=2, note=59, velocity=0, time=60),
    Message('note_on', channel=2, note=66, velocity=100, time=0),
    Message('note_on', channel=2, note=66, velocity=0, time=60),
    Message('note_on', channel=2, note=52, velocity=100, time=0),
    Message('note_on', channel=2, note=52, velocity=0, time=60),
    Message('note_on', channel=2, note=59, velocity=100, time=0),
    Message('note_on', channel=2, note=55, velocity=100, time=0),
    Message('note_on', channel=2, note=55, velocity=0, time=60),
    Message('note_on', channel=2, note=59, velocity=0, time=0),
    Message('note_on', channel=2, note=54, velocity=100, time=0),
    Message('note_on', channel=2, note=58, velocity=100, time=0),
    Message('note_on', channel=2, note=58, velocity=0, time=60),
    Message('note_on', channel=2, note=54, velocity=0, time=0),
    Message('note_on', channel=2, note=76, velocity=100, time=0),
    Message('note_on', channel=2, note=76, velocity=0, time=60),
    Message('note_on', channel=2, note=71, velocity=100, time=0),
    Message('note_on', channel=2, note=71, velocity=0, time=60),
    Message('note_on', channel=2, note=54, velocity=100, time=0),
    Message('note_on', channel=2, note=58, velocity=100, time=0),
    Message('note_on', channel=2, note=58, velocity=0, time=60),
    Message('note_on', channel=2, note=54, velocity=0, time=0),
    Message('note_on', channel=2, note=53, velocity=100, time=0),
    Message('note_on', channel=2, note=57, velocity=100, time=0),
    Message('note_on', channel=2, note=57, velocity=0, time=60),
    Message('note_on', channel=2, note=53, velocity=0, time=0),
    Message('note_on', channel=2, note=76, velocity=100, time=0),
    Message('note_on', channel=2, note=76, velocity=0, time=60),
    Message('note_on', channel=2, note=71, velocity=100, time=0),
    Message('note_on', channel=2, note=71, velocity=0, time=60),
    Message('note_on', channel=2, note=54, velocity=100, time=0),
    Message('note_on', channel=2, note=57, velocity=100, time=0),
    Message('note_on', channel=2, note=57, velocity=0, time=60),
    Message('note_on', channel=2, note=54, velocity=0, time=0),
    Message('note_on', channel=2, note=52, velocity=100, time=0),
    Message('note_on', channel=2, note=52, velocity=0, time=60),
    Message('note_on', channel=2, note=52, velocity=100, time=0),
    Message('note_on', channel=2, note=52, velocity=0, time=60),
    Message('note_on', channel=2, note=52, velocity=100, time=0),
    Message('note_on', channel=2, note=62, velocity=100, time=45),
    Message('note_on', channel=2, note=62, velocity=0, time=15),
    Message('note_on', channel=2, note=52, velocity=0, time=0),
    Message('note_on', channel=2, note=64, velocity=100, time=0),
    Message('note_on', channel=2, note=64, velocity=0, time=60),
    Message('note_on', channel=2, note=59, velocity=100, time=0),
    Message('note_on', channel=2, note=59, velocity=0, time=60),
    Message('note_on', channel=2, note=66, velocity=100, time=0),
    Message('note_on', channel=2, note=66, velocity=0, time=60),
    Message('note_on', channel=2, note=52, velocity=100, time=0),
    Message('note_on', channel=2, note=52, velocity=0, time=60),
    Message('note_on', channel=2, note=60, velocity=100, time=0),
    Message('note_on', channel=2, note=60, velocity=0, time=60),
    Message('note_on', channel=2, note=67, velocity=100, time=0),
    Message('note_on', channel=2, note=67, velocity=0, time=120),
    Message('note_on', channel=2, note=60, velocity=100, time=0),
    Message('note_on', channel=2, note=67, velocity=100, time=0),
    Message('note_on', channel=2, note=67, velocity=0, time=60),
    Message('note_on', channel=2, note=60, velocity=0, time=0),
    Message('note_on', channel=2, note=60, velocity=100, time=0),
    Message('note_on', channel=2, note=67, velocity=100, time=0),
    Message('note_on', channel=2, note=67, velocity=0, time=60),
    Message('note_on', channel=2, note=60, velocity=0, time=0),
    Message('note_on', channel=2, note=60, velocity=100, time=0),
    Message('note_on', channel=2, note=67, velocity=100, time=0),
    Message('note_on', channel=2, note=67, velocity=0, time=60),
    Message('note_on', channel=2, note=60, velocity=0, time=0),
    Message('note_on', channel=2, note=60, velocity=100, time=0),
    Message('note_on', channel=2, note=67, velocity=100, time=0),
    Message('note_on', channel=2, note=67, velocity=0, time=60),
    Message('note_on', channel=2, note=60, velocity=0, time=0),
    Message('note_on', channel=2, note=60, velocity=100, time=0),
    Message('note_on', channel=2, note=67, velocity=100, time=0),
    Message('note_on', channel=2, note=67, velocity=0, time=60),
    Message('note_on', channel=2, note=60, velocity=0, time=0),
    Message('note_on', channel=2, note=60, velocity=100, time=0),
    Message('note_on', channel=2, note=67, velocity=100, time=0),
    Message('note_on', channel=2, note=67, velocity=0, time=60),
    Message('note_on', channel=2, note=60, velocity=0, time=0),
    Message('note_on', channel=2, note=60, velocity=100, time=0),
    Message('note_on', channel=2, note=67, velocity=100, time=0),
    Message('note_on', channel=2, note=67, velocity=0, time=60),
    Message('note_on', channel=2, note=60, velocity=0, time=0),
    Message('note_on', channel=2, note=52, velocity=100, time=0),
    Message('note_on', channel=2, note=52, velocity=0, time=60),
    Message('note_on', channel=2, note=52, velocity=100, time=0),
    Message('note_on', channel=2, note=52, velocity=0, time=60),
    Message('note_on', channel=2, note=64, velocity=100, time=0),
    Message('note_on', channel=2, note=64, velocity=0, time=60),
    Message('note_on', channel=2, note=59, velocity=100, time=0),
    Message('note_on', channel=2, note=59, velocity=0, time=60),
    Message('note_on', channel=2, note=66, velocity=100, time=0),
    Message('note_on', channel=2, note=66, velocity=0, time=60),
    Message('note_on', channel=2, note=52, velocity=100, time=0),
    Message('note_on', channel=2, note=52, velocity=0, time=60),
    Message('note_on', channel=2, note=59, velocity=100, time=0),
    Message('note_on', channel=2, note=55, velocity=100, time=0),
    Message('note_on', channel=2, note=55, velocity=0, time=60),
    Message('note_on', channel=2, note=59, velocity=0, time=0),
    Message('note_on', channel=2, note=54, velocity=100, time=0),
    Message('note_on', channel=2, note=58, velocity=100, time=0),
    Message('note_on', channel=2, note=58, velocity=0, time=60),
    Message('note_on', channel=2, note=54, velocity=0, time=0),
    Message('note_on', channel=2, note=76, velocity=100, time=0),
    Message('note_on', channel=2, note=76, velocity=0, time=60),
    Message('note_on', channel=2, note=71, velocity=100, time=0),
    Message('note_on', channel=2, note=71, velocity=0, time=60),
    Message('note_on', channel=2, note=54, velocity=100, time=0),
    Message('note_on', channel=2, note=58, velocity=100, time=0),
    Message('note_on', channel=2, note=58, velocity=0, time=60),
    Message('note_on', channel=2, note=54, velocity=0, time=0),
    Message('note_on', channel=2, note=53, velocity=100, time=0),
    Message('note_on', channel=2, note=57, velocity=100, time=0),
    Message('note_on', channel=2, note=57, velocity=0, time=60),
    Message('note_on', channel=2, note=53, velocity=0, time=0),
    Message('note_on', channel=2, note=76, velocity=100, time=0),
    Message('note_on', channel=2, note=76, velocity=0, time=60),
    Message('note_on', channel=2, note=71, velocity=100, time=0),
    Message('note_on', channel=2, note=71, velocity=0, time=60),
    Message('note_on', channel=2, note=54, velocity=100, time=0),
    Message('note_on', channel=2, note=57, velocity=100, time=0),
    Message('note_on', channel=2, note=57, velocity=0, time=60),
    Message('note_on', channel=2, note=54, velocity=0, time=0),
    Message('note_on', channel=2, note=52, velocity=100, time=0),
    Message('note_on', channel=2, note=52, velocity=0, time=60),
    Message('note_on', channel=2, note=52, velocity=100, time=0),
    Message('note_on', channel=2, note=52, velocity=0, time=60),
    Message('note_on', channel=2, note=52, velocity=100, time=0),
    Message('note_on', channel=2, note=62, velocity=100, time=45),
    Message('note_on', channel=2, note=62, velocity=0, time=15),
    Message('note_on', channel=2, note=52, velocity=0, time=0),
    Message('note_on', channel=2, note=64, velocity=100, time=0),
    Message('note_on', channel=2, note=64, velocity=0, time=60),
    Message('note_on', channel=2, note=59, velocity=100, time=0),
    Message('note_on', channel=2, note=59, velocity=0, time=60),
    Message('note_on', channel=2, note=66, velocity=100, time=0),
    Message('note_on', channel=2, note=66, velocity=0, time=60),
    Message('note_on', channel=2, note=52, velocity=100, time=0),
    Message('note_on', channel=2, note=52, velocity=0, time=60),
    Message('note_on', channel=2, note=60, velocity=100, time=0),
    Message('note_on', channel=2, note=60, velocity=0, time=60),
    Message('note_on', channel=2, note=67, velocity=100, time=0),
    Message('note_on', channel=2, note=67, velocity=0, time=120),
    Message('note_on', channel=2, note=60, velocity=100, time=0),
    Message('note_on', channel=2, note=67, velocity=100, time=0),
    Message('note_on', channel=2, note=67, velocity=0, time=60),
    Message('note_on', channel=2, note=60, velocity=0, time=0),
    Message('note_on', channel=2, note=60, velocity=100, time=0),
    Message('note_on', channel=2, note=67, velocity=100, time=0),
    Message('note_on', channel=2, note=67, velocity=0, time=60),
    Message('note_on', channel=2, note=60, velocity=0, time=0),
    Message('note_on', channel=2, note=60, velocity=100, time=0),
    Message('note_on', channel=2, note=67, velocity=100, time=0),
    Message('note_on', channel=2, note=67, velocity=0, time=60),
    Message('note_on', channel=2, note=60, velocity=0, time=0),
    Message('note_on', channel=2, note=60, velocity=100, time=0),
    Message('note_on', channel=2, note=67, velocity=100, time=0),
    Message('note_on', channel=2, note=67, velocity=0, time=60),
    Message('note_on', channel=2, note=60, velocity=0, time=0),
    Message('note_on', channel=2, note=60, velocity=100, time=0),
    Message('note_on', channel=2, note=67, velocity=100, time=0),
    Message('note_on', channel=2, note=67, velocity=0, time=60),
    Message('note_on', channel=2, note=60, velocity=0, time=0),
    Message('note_on', channel=2, note=60, velocity=100, time=0),
    Message('note_on', channel=2, note=67, velocity=100, time=0),
    Message('note_on', channel=2, note=67, velocity=0, time=60),
    Message('note_on', channel=2, note=60, velocity=0, time=0),
    Message('note_on', channel=2, note=60, velocity=100, time=0),
    Message('note_on', channel=2, note=67, velocity=100, time=0),
    Message('note_on', channel=2, note=67, velocity=0, time=60),
    Message('note_on', channel=2, note=60, velocity=0, time=0),
    Message('note_on', channel=2, note=52, velocity=100, time=0),
    Message('note_on', channel=2, note=52, velocity=0, time=60),
    Message('note_on', channel=2, note=52, velocity=100, time=0),
    Message('note_on', channel=2, note=52, velocity=0, time=60),
    Message('note_on', channel=2, note=64, velocity=100, time=0),
    Message('note_on', channel=2, note=64, velocity=0, time=60),
    Message('note_on', channel=2, note=59, velocity=100, time=0),
    Message('note_on', channel=2, note=59, velocity=0, time=60),
    Message('note_on', channel=2, note=66, velocity=100, time=0),
    Message('note_on', channel=2, note=66, velocity=0, time=60),
    Message('note_on', channel=2, note=52, velocity=100, time=0),
    Message('note_on', channel=2, note=52, velocity=0, time=60),
    Message('note_on', channel=2, note=59, velocity=100, time=0),
    Message('note_on', channel=2, note=55, velocity=100, time=0),
    Message('note_on', channel=2, note=55, velocity=0, time=60),
    Message('note_on', channel=2, note=59, velocity=0, time=0),
    Message('note_on', channel=2, note=54, velocity=100, time=0),
    Message('note_on', channel=2, note=58, velocity=100, time=0),
    Message('note_on', channel=2, note=58, velocity=0, time=60),
    Message('note_on', channel=2, note=54, velocity=0, time=0),
    Message('note_on', channel=2, note=76, velocity=100, time=0),
    Message('note_on', channel=2, note=76, velocity=0, time=60),
    Message('note_on', channel=2, note=71, velocity=100, time=0),
    Message('note_on', channel=2, note=71, velocity=0, time=60),
    Message('note_on', channel=2, note=54, velocity=100, time=0),
    Message('note_on', channel=2, note=58, velocity=100, time=0),
    Message('note_on', channel=2, note=58, velocity=0, time=60),
    Message('note_on', channel=2, note=54, velocity=0, time=0),
    Message('note_on', channel=2, note=53, velocity=100, time=0),
    Message('note_on', channel=2, note=57, velocity=100, time=0),
    Message('note_on', channel=2, note=57, velocity=0, time=60),
    Message('note_on', channel=2, note=53, velocity=0, time=0),
    Message('note_on', channel=2, note=76, velocity=100, time=0),
    Message('note_on', channel=2, note=76, velocity=0, time=60),
    Message('note_on', channel=2, note=71, velocity=100, time=0),
    Message('note_on', channel=2, note=71, velocity=0, time=60),
    Message('note_on', channel=2, note=54, velocity=100, time=0),
    Message('note_on', channel=2, note=57, velocity=100, time=0),
    Message('note_on', channel=2, note=57, velocity=0, time=60),
    Message('note_on', channel=2, note=54, velocity=0, time=0),
    Message('note_on', channel=2, note=55, velocity=100, time=0),
    Message('note_on', channel=2, note=55, velocity=0, time=60),
    Message('note_on', channel=2, note=59, velocity=100, time=0),
    Message('note_on', channel=2, note=59, velocity=0, time=60),
    Message('note_on', channel=2, note=62, velocity=100, time=0),
    Message('note_on', channel=2, note=62, velocity=0, time=60),
    Message('note_on', channel=2, note=74, velocity=100, time=0),
    Message('note_on', channel=2, note=74, velocity=0, time=60),
    Message('note_on', channel=2, note=71, velocity=100, time=0),
    Message('note_on', channel=2, note=71, velocity=0, time=60),
    Message('note_on', channel=2, note=67, velocity=100, time=0),
    Message('note_on', channel=2, note=67, velocity=0, time=60),
    Message('note_on', channel=2, note=65, velocity=100, time=0),
    Message('note_on', channel=2, note=65, velocity=0, time=60),
    Message('note_on', channel=2, note=62, velocity=100, time=0),
    Message('note_on', channel=2, note=62, velocity=0, time=60),
    Message('note_on', channel=2, note=58, velocity=100, time=0),
    Message('note_on', channel=2, note=58, velocity=0, time=60),
    Message('note_on', channel=2, note=65, velocity=100, time=0),
    Message('note_on', channel=2, note=65, velocity=0, time=60),
    Message('note_on', channel=2, note=70, velocity=100, time=0),
    Message('note_on', channel=2, note=70, velocity=0, time=60),
    Message('note_on', channel=2, note=72, velocity=100, time=0),
    Message('note_on', channel=2, note=72, velocity=0, time=60),
    Message('note_on', channel=2, note=71, velocity=100, time=0),
    Message('note_on', channel=2, note=71, velocity=0, time=60),
    Message('note_on', channel=2, note=66, velocity=100, time=0),
    Message('note_on', channel=2, note=66, velocity=0, time=60),
    Message('note_on', channel=2, note=58, velocity=100, time=0),
    Message('note_on', channel=2, note=58, velocity=0, time=60),
    Message('note_on', channel=2, note=53, velocity=100, time=0),
    Message('note_on', channel=2, note=53, velocity=0, time=60),
    Message('note_on', channel=2, note=54, velocity=100, time=0),
    Message('note_on', channel=2, note=54, velocity=0, time=60),
    Message('note_on', channel=2, note=55, velocity=100, time=0),
    Message('note_on', channel=2, note=55, velocity=0, time=60),
    Message('note_on', channel=2, note=59, velocity=100, time=0),
    Message('note_on', channel=2, note=59, velocity=0, time=60),
    Message('note_on', channel=2, note=74, velocity=100, time=0),
    Message('note_on', channel=2, note=74, velocity=0, time=60),
    Message('note_on', channel=2, note=71, velocity=100, time=0),
    Message('note_on', channel=2, note=71, velocity=0, time=60),
    Message('note_on', channel=2, note=67, velocity=100, time=0),
    Message('note_on', channel=2, note=67, velocity=0, time=60),
    Message('note_on', channel=2, note=65, velocity=100, time=0),
    Message('note_on', channel=2, note=65, velocity=0, time=60),
    Message('note_on', channel=2, note=62, velocity=100, time=0),
    Message('note_on', channel=2, note=62, velocity=0, time=60),
    Message('note_on', channel=2, note=58, velocity=100, time=0),
    Message('note_on', channel=2, note=58, velocity=0, time=60),
    Message('note_on', channel=2, note=65, velocity=100, time=0),
    Message('note_on', channel=2, note=65, velocity=0, time=60),
    Message('note_on', channel=2, note=70, velocity=100, time=0),
    Message('note_on', channel=2, note=70, velocity=0, time=60),
    Message('note_on', channel=2, note=72, velocity=100, time=0),
    Message('note_on', channel=2, note=72, velocity=0, time=60),
    Message('note_on', channel=2, note=71, velocity=100, time=0),
    Message('note_on', channel=2, note=71, velocity=0, time=60),
    Message('note_on', channel=2, note=66, velocity=100, time=0),
    Message('note_on', channel=2, note=66, velocity=0, time=60),
    Message('note_on', channel=2, note=58, velocity=100, time=0),
    Message('note_on', channel=2, note=58, velocity=0, time=60),
    Message('note_on', channel=2, note=53, velocity=100, time=0),
    Message('note_on', channel=2, note=53, velocity=0, time=60),
    Message('note_on', channel=2, note=54, velocity=100, time=0),
    Message('note_on', channel=2, note=54, velocity=0, time=60),
    Message('note_on', channel=2, note=55, velocity=100, time=0),
    Message('note_on', channel=2, note=55, velocity=0, time=60),
    Message('note_on', channel=2, note=59, velocity=100, time=0),
    Message('note_on', channel=2, note=59, velocity=0, time=60),
    Message('note_on', channel=2, note=74, velocity=100, time=0),
    Message('note_on', channel=2, note=74, velocity=0, time=60),
    Message('note_on', channel=2, note=71, velocity=100, time=0),
    Message('note_on', channel=2, note=71, velocity=0, time=60),
    Message('note_on', channel=2, note=67, velocity=100, time=0),
    Message('note_on', channel=2, note=67, velocity=0, time=60),
    Message('note_on', channel=2, note=65, velocity=100, time=0),
    Message('note_on', channel=2, note=65, velocity=0, time=60),
    Message('note_on', channel=2, note=62, velocity=100, time=0),
    Message('note_on', channel=2, note=62, velocity=0, time=60),
    Message('note_on', channel=2, note=58, velocity=100, time=0),
    Message('note_on', channel=2, note=58, velocity=0, time=60),
    Message('note_on', channel=2, note=65, velocity=100, time=0),
    Message('note_on', channel=2, note=65, velocity=0, time=60),
    Message('note_on', channel=2, note=70, velocity=100, time=0),
    Message('note_on', channel=2, note=70, velocity=0, time=60),
    Message('note_on', channel=2, note=72, velocity=100, time=0),
    Message('note_on', channel=2, note=72, velocity=0, time=60),
    Message('note_on', channel=2, note=71, velocity=100, time=0),
    Message('note_on', channel=2, note=71, velocity=0, time=60),
    Message('note_on', channel=2, note=66, velocity=100, time=0),
    Message('note_on', channel=2, note=66, velocity=0, time=60),
    Message('note_on', channel=2, note=58, velocity=100, time=0),
    Message('note_on', channel=2, note=58, velocity=0, time=60),
    Message('note_on', channel=2, note=53, velocity=100, time=0),
    Message('note_on', channel=2, note=53, velocity=0, time=60),
    Message('note_on', channel=2, note=54, velocity=100, time=0),
    Message('note_on', channel=2, note=54, velocity=0, time=60),
    Message('note_on', channel=2, note=55, velocity=100, time=0),
    Message('note_on', channel=2, note=55, velocity=0, time=60),
    Message('note_on', channel=2, note=59, velocity=100, time=0),
    Message('note_on', channel=2, note=59, velocity=0, time=60),
    Message('note_on', channel=2, note=74, velocity=100, time=0),
    Message('note_on', channel=2, note=74, velocity=0, time=60),
    Message('note_on', channel=2, note=71, velocity=100, time=0),
    Message('note_on', channel=2, note=71, velocity=0, time=60),
    Message('note_on', channel=2, note=67, velocity=100, time=0),
    Message('note_on', channel=2, note=67, velocity=0, time=60),
    Message('note_on', channel=2, note=65, velocity=100, time=0),
    Message('note_on', channel=2, note=65, velocity=0, time=60),
    Message('note_on', channel=2, note=55, velocity=100, time=0),
    Message('note_on', channel=2, note=59, velocity=100, time=0),
    Message('note_on', channel=2, note=59, velocity=0, time=60),
    Message('note_on', channel=2, note=55, velocity=0, time=0),
    Message('note_on', channel=2, note=54, velocity=100, time=0),
    Message('note_on', channel=2, note=58, velocity=100, time=0),
    Message('note_on', channel=2, note=58, velocity=0, time=60),
    Message('note_on', channel=2, note=54, velocity=0, time=0),
    Message('note_on', channel=2, note=76, velocity=100, time=0),
    Message('note_on', channel=2, note=76, velocity=0, time=60),
    Message('note_on', channel=2, note=71, velocity=100, time=0),
    Message('note_on', channel=2, note=71, velocity=0, time=60),
    Message('note_on', channel=2, note=54, velocity=100, time=0),
    Message('note_on', channel=2, note=58, velocity=100, time=0),
    Message('note_on', channel=2, note=58, velocity=0, time=60),
    Message('note_on', channel=2, note=54, velocity=0, time=0),
    Message('note_on', channel=2, note=53, velocity=100, time=0),
    Message('note_on', channel=2, note=57, velocity=100, time=0),
    Message('note_on', channel=2, note=57, velocity=0, time=60),
    Message('note_on', channel=2, note=53, velocity=0, time=0),
    Message('note_on', channel=2, note=76, velocity=100, time=0),
    Message('note_on', channel=2, note=76, velocity=0, time=60),
    Message('note_on', channel=2, note=71, velocity=100, time=0),
    Message('note_on', channel=2, note=71, velocity=0, time=60),
    Message('note_on', channel=2, note=54, velocity=100, time=0),
    Message('note_on', channel=2, note=57, velocity=100, time=0),
    Message('note_on', channel=2, note=57, velocity=0, time=60),
    Message('note_on', channel=2, note=54, velocity=0, time=0),
    Message('note_on', channel=2, note=52, velocity=100, time=0),
    Message('note_on', channel=2, note=52, velocity=0, time=60),
    Message('note_on', channel=2, note=55, velocity=100, time=840),
    Message('note_on', channel=2, note=62, velocity=100, time=0),
    Message('note_on', channel=2, note=62, velocity=0, time=60),
    Message('note_on', channel=2, note=55, velocity=0, time=0),
    Message('note_on', channel=2, note=52, velocity=100, time=0),
    Message('note_on', channel=2, note=52, velocity=0, time=60),
    Message('note_on', channel=2, note=54, velocity=100, time=0),
    Message('note_on', channel=2, note=61, velocity=100, time=0),
    Message('note_on', channel=2, note=61, velocity=0, time=60),
    Message('note_on', channel=2, note=54, velocity=0, time=0),
    Message('note_on', channel=2, note=55, velocity=100, time=0),
    Message('note_on', channel=2, note=62, velocity=100, time=0),
    Message('note_on', channel=2, note=62, velocity=0, time=60),
    Message('note_on', channel=2, note=55, velocity=0, time=0),
    Message('note_on', channel=2, note=52, velocity=100, time=0),
    Message('note_on', channel=2, note=59, velocity=100, time=0),
    Message('note_on', channel=2, note=59, velocity=0, time=60),
    Message('note_on', channel=2, note=52, velocity=0, time=0),
    Message('note_on', channel=2, note=54, velocity=100, time=0),
    Message('note_on', channel=2, note=61, velocity=100, time=0),
    Message('note_on', channel=2, note=61, velocity=0, time=60),
    Message('note_on', channel=2, note=54, velocity=0, time=0),
    Message('note_on', channel=2, note=52, velocity=100, time=0),
    Message('note_on', channel=2, note=52, velocity=0, time=60),
    Message('note_on', channel=2, note=52, velocity=100, time=0),
    Message('note_on', channel=2, note=52, velocity=0, time=60),
    Message('note_on', channel=2, note=54, velocity=100, time=0),
    Message('note_on', channel=2, note=61, velocity=100, time=0),
    Message('note_on', channel=2, note=61, velocity=0, time=60),
    Message('note_on', channel=2, note=54, velocity=0, time=0),
    Message('note_on', channel=2, note=55, velocity=100, time=0),
    Message('note_on', channel=2, note=62, velocity=100, time=0),
    Message('note_on', channel=2, note=62, velocity=0, time=60),
    Message('note_on', channel=2, note=55, velocity=0, time=0),
    Message('note_on', channel=2, note=52, velocity=100, time=0),
    Message('note_on', channel=2, note=52, velocity=0, time=60),
    Message('note_on', channel=2, note=52, velocity=100, time=0),
    Message('note_on', channel=2, note=52, velocity=0, time=60),
    Message('note_on', channel=2, note=62, velocity=100, time=0),
    Message('note_on', channel=2, note=55, velocity=100, time=0),
    Message('note_on', channel=2, note=55, velocity=0, time=60),
    Message('note_on', channel=2, note=62, velocity=0, time=0),
    Message('note_on', channel=2, note=54, velocity=100, time=0),
    Message('note_on', channel=2, note=61, velocity=100, time=0),
    Message('note_on', channel=2, note=61, velocity=0, time=60),
    Message('note_on', channel=2, note=54, velocity=0, time=0),
    Message('note_on', channel=2, note=52, velocity=100, time=0),
    Message('note_on', channel=2, note=52, velocity=0, time=60),
    Message('note_on', channel=2, note=52, velocity=100, time=0),
    Message('note_on', channel=2, note=52, velocity=0, time=60),
    Message('note_on', channel=2, note=61, velocity=100, time=0),
    Message('note_on', channel=2, note=54, velocity=100, time=0),
    Message('note_on', channel=2, note=54, velocity=0, time=60),
    Message('note_on', channel=2, note=61, velocity=0, time=0),
    Message('note_on', channel=2, note=55, velocity=100, time=0),
    Message('note_on', channel=2, note=62, velocity=100, time=0),
    Message('note_on', channel=2, note=62, velocity=0, time=60),
    Message('note_on', channel=2, note=55, velocity=0, time=0),
    Message('note_on', channel=2, note=52, velocity=100, time=0),
    Message('note_on', channel=2, note=59, velocity=100, time=0),
    Message('note_on', channel=2, note=59, velocity=0, time=120),
    Message('note_on', channel=2, note=52, velocity=0, time=0),
    Message('note_on', channel=2, note=55, velocity=100, time=720),
    Message('note_on', channel=2, note=62, velocity=100, time=0),
    Message('note_on', channel=2, note=62, velocity=0, time=60),
    Message('note_on', channel=2, note=55, velocity=0, time=0),
    Message('note_on', channel=2, note=52, velocity=100, time=0),
    Message('note_on', channel=2, note=52, velocity=0, time=60),
    Message('note_on', channel=2, note=54, velocity=100, time=0),
    Message('note_on', channel=2, note=61, velocity=100, time=0),
    Message('note_on', channel=2, note=61, velocity=0, time=60),
    Message('note_on', channel=2, note=54, velocity=0, time=0),
    Message('note_on', channel=2, note=55, velocity=100, time=0),
    Message('note_on', channel=2, note=62, velocity=100, time=0),
    Message('note_on', channel=2, note=62, velocity=0, time=60),
    Message('note_on', channel=2, note=55, velocity=0, time=0),
    Message('note_on', channel=2, note=52, velocity=100, time=0),
    Message('note_on', channel=2, note=59, velocity=100, time=0),
    Message('note_on', channel=2, note=59, velocity=0, time=60),
    Message('note_on', channel=2, note=52, velocity=0, time=0),
    Message('note_on', channel=2, note=54, velocity=100, time=0),
    Message('note_on', channel=2, note=61, velocity=100, time=0),
    Message('note_on', channel=2, note=61, velocity=0, time=60),
    Message('note_on', channel=2, note=54, velocity=0, time=0),
    Message('note_on', channel=2, note=52, velocity=100, time=0),
    Message('note_on', channel=2, note=52, velocity=0, time=60),
    Message('note_on', channel=2, note=52, velocity=100, time=0),
    Message('note_on', channel=2, note=52, velocity=0, time=60),
    Message('note_on', channel=2, note=54, velocity=100, time=0),
    Message('note_on', channel=2, note=61, velocity=100, time=0),
    Message('note_on', channel=2, note=61, velocity=0, time=60),
    Message('note_on', channel=2, note=54, velocity=0, time=0),
    Message('note_on', channel=2, note=55, velocity=100, time=0),
    Message('note_on', channel=2, note=62, velocity=100, time=0),
    Message('note_on', channel=2, note=62, velocity=0, time=60),
    Message('note_on', channel=2, note=55, velocity=0, time=0),
    Message('note_on', channel=2, note=52, velocity=100, time=0),
    Message('note_on', channel=2, note=52, velocity=0, time=60),
    Message('note_on', channel=2, note=52, velocity=100, time=0),
    Message('note_on', channel=2, note=52, velocity=0, time=60),
    Message('note_on', channel=2, note=62, velocity=100, time=0),
    Message('note_on', channel=2, note=55, velocity=100, time=0),
    Message('note_on', channel=2, note=55, velocity=0, time=60),
    Message('note_on', channel=2, note=62, velocity=0, time=0),
    Message('note_on', channel=2, note=54, velocity=100, time=0),
    Message('note_on', channel=2, note=61, velocity=100, time=0),
    Message('note_on', channel=2, note=61, velocity=0, time=60),
    Message('note_on', channel=2, note=54, velocity=0, time=0),
    Message('note_on', channel=2, note=52, velocity=100, time=0),
    Message('note_on', channel=2, note=52, velocity=0, time=60),
    Message('note_on', channel=2, note=52, velocity=100, time=0),
    Message('note_on', channel=2, note=52, velocity=0, time=60),
    Message('note_on', channel=2, note=61, velocity=100, time=0),
    Message('note_on', channel=2, note=54, velocity=100, time=0),
    Message('note_on', channel=2, note=54, velocity=0, time=60),
    Message('note_on', channel=2, note=61, velocity=0, time=0),
    Message('note_on', channel=2, note=55, velocity=100, time=0),
    Message('note_on', channel=2, note=62, velocity=100, time=0),
    Message('note_on', channel=2, note=62, velocity=0, time=60),
    Message('note_on', channel=2, note=55, velocity=0, time=0),
    Message('note_on', channel=2, note=52, velocity=100, time=0),
    Message('note_on', channel=2, note=59, velocity=100, time=0),
    Message('note_on', channel=2, note=59, velocity=0, time=120),
    Message('note_on', channel=2, note=52, velocity=0, time=0),
    Message('note_on', channel=2, note=55, velocity=100, time=720),
    Message('note_on', channel=2, note=62, velocity=100, time=0),
    Message('note_on', channel=2, note=62, velocity=0, time=60),
    Message('note_on', channel=2, note=55, velocity=0, time=0),
    Message('note_on', channel=2, note=52, velocity=100, time=0),
    Message('note_on', channel=2, note=52, velocity=0, time=60),
    Message('note_on', channel=2, note=54, velocity=100, time=0),
    Message('note_on', channel=2, note=61, velocity=100, time=0),
    Message('note_on', channel=2, note=61, velocity=0, time=60),
    Message('note_on', channel=2, note=54, velocity=0, time=0),
    Message('note_on', channel=2, note=55, velocity=100, time=0),
    Message('note_on', channel=2, note=62, velocity=100, time=0),
    Message('note_on', channel=2, note=62, velocity=0, time=60),
    Message('note_on', channel=2, note=55, velocity=0, time=0),
    Message('note_on', channel=2, note=52, velocity=100, time=0),
    Message('note_on', channel=2, note=59, velocity=100, time=0),
    Message('note_on', channel=2, note=59, velocity=0, time=60),
    Message('note_on', channel=2, note=52, velocity=0, time=0),
    Message('note_on', channel=2, note=54, velocity=100, time=0),
    Message('note_on', channel=2, note=61, velocity=100, time=0),
    Message('note_on', channel=2, note=61, velocity=0, time=60),
    Message('note_on', channel=2, note=54, velocity=0, time=0),
    Message('note_on', channel=2, note=52, velocity=100, time=0),
    Message('note_on', channel=2, note=52, velocity=0, time=60),
    Message('note_on', channel=2, note=52, velocity=100, time=0),
    Message('note_on', channel=2, note=52, velocity=0, time=60),
    Message('note_on', channel=2, note=54, velocity=100, time=0),
    Message('note_on', channel=2, note=61, velocity=100, time=0),
    Message('note_on', channel=2, note=61, velocity=0, time=60),
    Message('note_on', channel=2, note=54, velocity=0, time=0),
    Message('note_on', channel=2, note=55, velocity=100, time=0),
    Message('note_on', channel=2, note=62, velocity=100, time=0),
    Message('note_on', channel=2, note=62, velocity=0, time=60),
    Message('note_on', channel=2, note=55, velocity=0, time=0),
    Message('note_on', channel=2, note=52, velocity=100, time=0),
    Message('note_on', channel=2, note=52, velocity=0, time=60),
    Message('note_on', channel=2, note=52, velocity=100, time=0),
    Message('note_on', channel=2, note=52, velocity=0, time=60),
    Message('note_on', channel=2, note=62, velocity=100, time=0),
    Message('note_on', channel=2, note=55, velocity=100, time=0),
    Message('note_on', channel=2, note=55, velocity=0, time=60),
    Message('note_on', channel=2, note=62, velocity=0, time=0),
    Message('note_on', channel=2, note=54, velocity=100, time=0),
    Message('note_on', channel=2, note=61, velocity=100, time=0),
    Message('note_on', channel=2, note=61, velocity=0, time=60),
    Message('note_on', channel=2, note=54, velocity=0, time=0),
    Message('note_on', channel=2, note=52, velocity=100, time=0),
    Message('note_on', channel=2, note=52, velocity=0, time=60),
    Message('note_on', channel=2, note=52, velocity=100, time=0),
    Message('note_on', channel=2, note=52, velocity=0, time=60),
    Message('note_on', channel=2, note=61, velocity=100, time=0),
    Message('note_on', channel=2, note=54, velocity=100, time=0),
    Message('note_on', channel=2, note=54, velocity=0, time=60),
    Message('note_on', channel=2, note=61, velocity=0, time=0),
    Message('note_on', channel=2, note=55, velocity=100, time=0),
    Message('note_on', channel=2, note=62, velocity=100, time=0),
    Message('note_on', channel=2, note=62, velocity=0, time=60),
    Message('note_on', channel=2, note=55, velocity=0, time=0),
    Message('note_on', channel=2, note=52, velocity=100, time=0),
    Message('note_on', channel=2, note=59, velocity=100, time=0),
    Message('note_on', channel=2, note=59, velocity=0, time=120),
    Message('note_on', channel=2, note=52, velocity=0, time=0),
    Message('note_on', channel=2, note=55, velocity=100, time=720),
    Message('note_on', channel=2, note=62, velocity=100, time=0),
    Message('note_on', channel=2, note=62, velocity=0, time=60),
    Message('note_on', channel=2, note=55, velocity=0, time=0),
    Message('note_on', channel=2, note=52, velocity=100, time=0),
    Message('note_on', channel=2, note=52, velocity=0, time=60),
    Message('note_on', channel=2, note=54, velocity=100, time=0),
    Message('note_on', channel=2, note=61, velocity=100, time=0),
    Message('note_on', channel=2, note=61, velocity=0, time=60),
    Message('note_on', channel=2, note=54, velocity=0, time=0),
    Message('note_on', channel=2, note=55, velocity=100, time=0),
    Message('note_on', channel=2, note=62, velocity=100, time=0),
    Message('note_on', channel=2, note=62, velocity=0, time=60),
    Message('note_on', channel=2, note=55, velocity=0, time=0),
    Message('note_on', channel=2, note=52, velocity=100, time=0),
    Message('note_on', channel=2, note=59, velocity=100, time=0),
    Message('note_on', channel=2, note=59, velocity=0, time=60),
    Message('note_on', channel=2, note=52, velocity=0, time=0),
    Message('note_on', channel=2, note=54, velocity=100, time=0),
    Message('note_on', channel=2, note=61, velocity=100, time=0),
    Message('note_on', channel=2, note=61, velocity=0, time=60),
    Message('note_on', channel=2, note=54, velocity=0, time=0),
    Message('note_on', channel=2, note=52, velocity=100, time=0),
    Message('note_on', channel=2, note=52, velocity=0, time=60),
    Message('note_on', channel=2, note=52, velocity=100, time=0),
    Message('note_on', channel=2, note=52, velocity=0, time=60),
    Message('note_on', channel=2, note=54, velocity=100, time=0),
    Message('note_on', channel=2, note=61, velocity=100, time=0),
    Message('note_on', channel=2, note=61, velocity=0, time=60),
    Message('note_on', channel=2, note=54, velocity=0, time=0),
    Message('note_on', channel=2, note=55, velocity=100, time=0),
    Message('note_on', channel=2, note=62, velocity=100, time=0),
    Message('note_on', channel=2, note=62, velocity=0, time=60),
    Message('note_on', channel=2, note=55, velocity=0, time=0),
    Message('note_on', channel=2, note=52, velocity=100, time=0),
    Message('note_on', channel=2, note=52, velocity=0, time=60),
    Message('note_on', channel=2, note=52, velocity=100, time=0),
    Message('note_on', channel=2, note=52, velocity=0, time=60),
    Message('note_on', channel=2, note=62, velocity=100, time=0),
    Message('note_on', channel=2, note=55, velocity=100, time=0),
    Message('note_on', channel=2, note=55, velocity=0, time=60),
    Message('note_on', channel=2, note=62, velocity=0, time=0),
    Message('note_on', channel=2, note=54, velocity=100, time=0),
    Message('note_on', channel=2, note=61, velocity=100, time=0),
    Message('note_on', channel=2, note=61, velocity=0, time=60),
    Message('note_on', channel=2, note=54, velocity=0, time=0),
    Message('note_on', channel=2, note=52, velocity=100, time=0),
    Message('note_on', channel=2, note=52, velocity=0, time=60),
    Message('note_on', channel=2, note=52, velocity=100, time=0),
    Message('note_on', channel=2, note=52, velocity=0, time=60),
    Message('note_on', channel=2, note=61, velocity=100, time=0),
    Message('note_on', channel=2, note=54, velocity=100, time=0),
    Message('note_on', channel=2, note=54, velocity=0, time=60),
    Message('note_on', channel=2, note=61, velocity=0, time=0),
    Message('note_on', channel=2, note=55, velocity=100, time=0),
    Message('note_on', channel=2, note=62, velocity=100, time=0),
    Message('note_on', channel=2, note=62, velocity=0, time=60),
    Message('note_on', channel=2, note=55, velocity=0, time=0),
    Message('note_on', channel=2, note=61, velocity=100, time=0),
    Message('note_on', channel=2, note=54, velocity=100, time=0),
    Message('note_on', channel=2, note=54, velocity=0, time=60),
    Message('note_on', channel=2, note=61, velocity=0, time=0),
    Message('note_on', channel=2, note=62, velocity=100, time=0),
    Message('note_on', channel=2, note=55, velocity=100, time=0),
    Message('note_on', channel=2, note=55, velocity=0, time=60),
    Message('note_on', channel=2, note=62, velocity=0, time=0),
    Message('note_on', channel=2, note=59, velocity=100, time=0),
    Message('note_on', channel=2, note=52, velocity=100, time=0),
    Message('note_on', channel=2, note=52, velocity=0, time=60),
    Message('note_on', channel=2, note=59, velocity=0, time=0),
    Message('note_on', channel=2, note=54, velocity=100, time=0),
    Message('note_on', channel=2, note=61, velocity=100, time=0),
    Message('note_on', channel=2, note=61, velocity=0, time=60),
    Message('note_on', channel=2, note=54, velocity=0, time=0),
    Message('note_on', channel=2, note=52, velocity=100, time=0),
    Message('note_on', channel=2, note=52, velocity=0, time=60),
    Message('note_on', channel=2, note=52, velocity=100, time=0),
    Message('note_on', channel=2, note=52, velocity=0, time=60),
    Message('note_on', channel=2, note=54, velocity=100, time=0),
    Message('note_on', channel=2, note=61, velocity=100, time=0),
    Message('note_on', channel=2, note=61, velocity=0, time=60),
    Message('note_on', channel=2, note=54, velocity=0, time=0),
    Message('note_on', channel=2, note=62, velocity=100, time=0),
    Message('note_on', channel=2, note=55, velocity=100, time=0),
    Message('note_on', channel=2, note=55, velocity=0, time=60),
    Message('note_on', channel=2, note=62, velocity=0, time=0),
    Message('note_on', channel=2, note=59, velocity=100, time=0),
    Message('note_on', channel=2, note=52, velocity=100, time=0),
    Message('note_on', channel=2, note=52, velocity=0, time=120),
    Message('note_on', channel=2, note=59, velocity=0, time=0),
    Message('note_on', channel=2, note=52, velocity=100, time=0),
    Message('note_on', channel=2, note=52, velocity=0, time=60),
    Message('note_on', channel=2, note=52, velocity=100, time=0),
    Message('note_on', channel=2, note=52, velocity=0, time=60),
    Message('note_on', channel=2, note=52, velocity=100, time=0),
    Message('note_on', channel=2, note=52, velocity=0, time=60),
    Message('note_on', channel=2, note=52, velocity=100, time=0),
    Message('note_on', channel=2, note=52, velocity=0, time=60),
    Message('note_on', channel=2, note=52, velocity=100, time=0),
    Message('note_on', channel=2, note=52, velocity=0, time=30),
    Message('note_on', channel=2, note=52, velocity=100, time=0),
    Message('note_on', channel=2, note=52, velocity=0, time=30),
    Message('note_on', channel=2, note=52, velocity=100, time=0),
    Message('note_on', channel=2, note=52, velocity=0, time=60),
    Message('note_on', channel=2, note=52, velocity=100, time=0),
    Message('note_on', channel=2, note=52, velocity=0, time=60),
    Message('note_on', channel=2, note=52, velocity=100, time=0),
    Message('note_on', channel=2, note=52, velocity=0, time=60),
    Message('note_on', channel=2, note=52, velocity=100, time=0),
    Message('note_on', channel=2, note=52, velocity=0, time=30),
    Message('note_on', channel=2, note=52, velocity=100, time=0),
    Message('note_on', channel=2, note=52, velocity=0, time=30),
    Message('note_on', channel=2, note=52, velocity=100, time=0),
    Message('note_on', channel=2, note=52, velocity=0, time=60),
    Message('note_on', channel=2, note=52, velocity=100, time=0),
    Message('note_on', channel=2, note=52, velocity=0, time=30),
    Message('note_on', channel=2, note=52, velocity=100, time=0),
    Message('note_on', channel=2, note=52, velocity=0, time=30),
    Message('note_on', channel=2, note=52, velocity=100, time=0),
    Message('note_on', channel=2, note=52, velocity=0, time=60),
    Message('note_on', channel=2, note=62, velocity=100, time=0),
    Message('note_on', channel=2, note=55, velocity=100, time=0),
    Message('note_on', channel=2, note=55, velocity=0, time=60),
    Message('note_on', channel=2, note=62, velocity=0, time=0),
    Message('note_on', channel=2, note=52, velocity=100, time=0),
    Message('note_on', channel=2, note=52, velocity=0, time=60),
    Message('note_on', channel=2, note=54, velocity=100, time=0),
    Message('note_on', channel=2, note=61, velocity=100, time=0),
    Message('note_on', channel=2, note=61, velocity=0, time=60),
    Message('note_on', channel=2, note=54, velocity=0, time=0),
    Message('note_on', channel=2, note=55, velocity=100, time=0),
    Message('note_on', channel=2, note=62, velocity=100, time=0),
    Message('note_on', channel=2, note=62, velocity=0, time=60),
    Message('note_on', channel=2, note=55, velocity=0, time=0),
    Message('note_on', channel=2, note=52, velocity=100, time=0),
    Message('note_on', channel=2, note=59, velocity=100, time=0),
    Message('note_on', channel=2, note=59, velocity=0, time=60),
    Message('note_on', channel=2, note=52, velocity=0, time=0),
    Message('note_on', channel=2, note=54, velocity=100, time=0),
    Message('note_on', channel=2, note=61, velocity=100, time=0),
    Message('note_on', channel=2, note=61, velocity=0, time=60),
    Message('note_on', channel=2, note=54, velocity=0, time=0),
    Message('note_on', channel=2, note=52, velocity=100, time=0),
    Message('note_on', channel=2, note=52, velocity=0, time=60),
    Message('note_on', channel=2, note=52, velocity=100, time=0),
    Message('note_on', channel=2, note=52, velocity=0, time=60),
    Message('note_on', channel=2, note=54, velocity=100, time=0),
    Message('note_on', channel=2, note=61, velocity=100, time=0),
    Message('note_on', channel=2, note=61, velocity=0, time=60),
    Message('note_on', channel=2, note=54, velocity=0, time=0),
    Message('note_on', channel=2, note=62, velocity=100, time=0),
    Message('note_on', channel=2, note=55, velocity=100, time=0),
    Message('note_on', channel=2, note=55, velocity=0, time=60),
    Message('note_on', channel=2, note=62, velocity=0, time=0),
    Message('note_on', channel=2, note=52, velocity=100, time=0),
    Message('note_on', channel=2, note=52, velocity=0, time=60),
    Message('note_on', channel=2, note=52, velocity=100, time=0),
    Message('note_on', channel=2, note=52, velocity=0, time=60),
    Message('note_on', channel=2, note=62, velocity=100, time=0),
    Message('note_on', channel=2, note=55, velocity=100, time=0),
    Message('note_on', channel=2, note=55, velocity=0, time=60),
    Message('note_on', channel=2, note=62, velocity=0, time=0),
    Message('note_on', channel=2, note=54, velocity=100, time=0),
    Message('note_on', channel=2, note=61, velocity=100, time=0),
    Message('note_on', channel=2, note=61, velocity=0, time=60),
    Message('note_on', channel=2, note=54, velocity=0, time=0),
    Message('note_on', channel=2, note=52, velocity=100, time=0),
    Message('note_on', channel=2, note=52, velocity=0, time=60),
    Message('note_on', channel=2, note=52, velocity=100, time=0),
    Message('note_on', channel=2, note=52, velocity=0, time=60),
    Message('note_on', channel=2, note=61, velocity=100, time=0),
    Message('note_on', channel=2, note=54, velocity=100, time=0),
    Message('note_on', channel=2, note=54, velocity=0, time=60),
    Message('note_on', channel=2, note=61, velocity=0, time=0),
    Message('note_on', channel=2, note=62, velocity=100, time=0),
    Message('note_on', channel=2, note=55, velocity=100, time=0),
    Message('note_on', channel=2, note=55, velocity=0, time=60),
    Message('note_on', channel=2, note=62, velocity=0, time=0),
    Message('note_on', channel=2, note=59, velocity=100, time=0),
    Message('note_on', channel=2, note=52, velocity=100, time=0),
    Message('note_on', channel=2, note=52, velocity=0, time=120),
    Message('note_on', channel=2, note=59, velocity=0, time=0),
    Message('note_on', channel=2, note=52, velocity=100, time=0),
    Message('note_on', channel=2, note=52, velocity=0, time=60),
    Message('note_on', channel=2, note=52, velocity=100, time=0),
    Message('note_on', channel=2, note=52, velocity=0, time=60),
    Message('note_on', channel=2, note=52, velocity=100, time=0),
    Message('note_on', channel=2, note=52, velocity=0, time=60),
    Message('note_on', channel=2, note=52, velocity=100, time=0),
    Message('note_on', channel=2, note=52, velocity=0, time=60),
    Message('note_on', channel=2, note=52, velocity=100, time=0),
    Message('note_on', channel=2, note=52, velocity=0, time=30),
    Message('note_on', channel=2, note=52, velocity=100, time=0),
    Message('note_on', channel=2, note=52, velocity=0, time=30),
    Message('note_on', channel=2, note=52, velocity=100, time=0),
    Message('note_on', channel=2, note=52, velocity=0, time=60),
    Message('note_on', channel=2, note=52, velocity=100, time=0),
    Message('note_on', channel=2, note=52, velocity=0, time=60),
    Message('note_on', channel=2, note=52, velocity=100, time=0),
    Message('note_on', channel=2, note=52, velocity=0, time=60),
    Message('note_on', channel=2, note=52, velocity=100, time=0),
    Message('note_on', channel=2, note=52, velocity=0, time=30),
    Message('note_on', channel=2, note=52, velocity=100, time=0),
    Message('note_on', channel=2, note=52, velocity=0, time=30),
    Message('note_on', channel=2, note=52, velocity=100, time=0),
    Message('note_on', channel=2, note=52, velocity=0, time=60),
    Message('note_on', channel=2, note=52, velocity=100, time=0),
    Message('note_on', channel=2, note=52, velocity=0, time=30),
    Message('note_on', channel=2, note=52, velocity=100, time=0),
    Message('note_on', channel=2, note=52, velocity=0, time=30),
    Message('note_on', channel=2, note=52, velocity=100, time=0),
    Message('note_on', channel=2, note=52, velocity=0, time=60),
    Message('note_on', channel=2, note=62, velocity=100, time=0),
    Message('note_on', channel=2, note=55, velocity=100, time=0),
    Message('note_on', channel=2, note=55, velocity=0, time=60),
    Message('note_on', channel=2, note=62, velocity=0, time=0),
    Message('note_on', channel=2, note=52, velocity=100, time=0),
    Message('note_on', channel=2, note=52, velocity=0, time=60),
    Message('note_on', channel=2, note=61, velocity=100, time=0),
    Message('note_on', channel=2, note=54, velocity=100, time=0),
    Message('note_on', channel=2, note=54, velocity=0, time=60),
    Message('note_on', channel=2, note=61, velocity=0, time=0),
    Message('note_on', channel=2, note=62, velocity=100, time=0),
    Message('note_on', channel=2, note=55, velocity=100, time=0),
    Message('note_on', channel=2, note=55, velocity=0, time=60),
    Message('note_on', channel=2, note=62, velocity=0, time=0),
    Message('note_on', channel=2, note=52, velocity=100, time=0),
    Message('note_on', channel=2, note=59, velocity=100, time=0),
    Message('note_on', channel=2, note=59, velocity=0, time=60),
    Message('note_on', channel=2, note=52, velocity=0, time=0),
    Message('note_on', channel=2, note=61, velocity=100, time=0),
    Message('note_on', channel=2, note=54, velocity=100, time=0),
    Message('note_on', channel=2, note=54, velocity=0, time=60),
    Message('note_on', channel=2, note=61, velocity=0, time=0),
    Message('note_on', channel=2, note=52, velocity=100, time=0),
    Message('note_on', channel=2, note=52, velocity=0, time=60),
    Message('note_on', channel=2, note=52, velocity=100, time=0),
    Message('note_on', channel=2, note=52, velocity=0, time=60),
    Message('note_on', channel=2, note=61, velocity=100, time=0),
    Message('note_on', channel=2, note=54, velocity=100, time=0),
    Message('note_on', channel=2, note=54, velocity=0, time=60),
    Message('note_on', channel=2, note=61, velocity=0, time=0),
    Message('note_on', channel=2, note=55, velocity=100, time=0),
    Message('note_on', channel=2, note=62, velocity=100, time=0),
    Message('note_on', channel=2, note=62, velocity=0, time=60),
    Message('note_on', channel=2, note=55, velocity=0, time=0),
    Message('note_on', channel=2, note=52, velocity=100, time=0),
    Message('note_on', channel=2, note=52, velocity=0, time=60),
    Message('note_on', channel=2, note=52, velocity=100, time=0),
    Message('note_on', channel=2, note=52, velocity=0, time=60),
    Message('note_on', channel=2, note=62, velocity=100, time=0),
    Message('note_on', channel=2, note=55, velocity=100, time=0),
    Message('note_on', channel=2, note=55, velocity=0, time=60),
    Message('note_on', channel=2, note=62, velocity=0, time=0),
    Message('note_on', channel=2, note=54, velocity=100, time=0),
    Message('note_on', channel=2, note=61, velocity=100, time=0),
    Message('note_on', channel=2, note=61, velocity=0, time=60),
    Message('note_on', channel=2, note=54, velocity=0, time=0),
    Message('note_on', channel=2, note=52, velocity=100, time=0),
    Message('note_on', channel=2, note=52, velocity=0, time=60),
    Message('note_on', channel=2, note=52, velocity=100, time=0),
    Message('note_on', channel=2, note=52, velocity=0, time=60),
    Message('note_on', channel=2, note=54, velocity=100, time=0),
    Message('note_on', channel=2, note=61, velocity=100, time=0),
    Message('note_on', channel=2, note=61, velocity=0, time=60),
    Message('note_on', channel=2, note=54, velocity=0, time=0),
    Message('note_on', channel=2, note=62, velocity=100, time=0),
    Message('note_on', channel=2, note=55, velocity=100, time=0),
    Message('note_on', channel=2, note=55, velocity=0, time=60),
    Message('note_on', channel=2, note=62, velocity=0, time=0),
    Message('note_on', channel=2, note=59, velocity=100, time=0),
    Message('note_on', channel=2, note=52, velocity=100, time=0),
    Message('note_on', channel=2, note=52, velocity=0, time=120),
    Message('note_on', channel=2, note=59, velocity=0, time=0),
    Message('note_on', channel=2, note=52, velocity=100, time=0),
    Message('note_on', channel=2, note=52, velocity=0, time=60),
    Message('note_on', channel=2, note=52, velocity=100, time=0),
    Message('note_on', channel=2, note=52, velocity=0, time=60),
    Message('note_on', channel=2, note=52, velocity=100, time=0),
    Message('note_on', channel=2, note=52, velocity=0, time=60),
    Message('note_on', channel=2, note=52, velocity=100, time=0),
    Message('note_on', channel=2, note=52, velocity=0, time=60),
    Message('note_on', channel=2, note=52, velocity=100, time=0),
    Message('note_on', channel=2, note=52, velocity=0, time=30),
    Message('note_on', channel=2, note=52, velocity=100, time=0),
    Message('note_on', channel=2, note=52, velocity=0, time=30),
    Message('note_on', channel=2, note=52, velocity=100, time=0),
    Message('note_on', channel=2, note=52, velocity=0, time=60),
    Message('note_on', channel=2, note=52, velocity=100, time=0),
    Message('note_on', channel=2, note=52, velocity=0, time=60),
    Message('note_on', channel=2, note=52, velocity=100, time=0),
    Message('note_on', channel=2, note=52, velocity=0, time=60),
    Message('note_on', channel=2, note=52, velocity=100, time=0),
    Message('note_on', channel=2, note=52, velocity=0, time=30),
    Message('note_on', channel=2, note=52, velocity=100, time=0),
    Message('note_on', channel=2, note=52, velocity=0, time=30),
    Message('note_on', channel=2, note=52, velocity=100, time=0),
    Message('note_on', channel=2, note=52, velocity=0, time=60),
    Message('note_on', channel=2, note=52, velocity=100, time=0),
    Message('note_on', channel=2, note=52, velocity=0, time=30),
    Message('note_on', channel=2, note=52, velocity=100, time=0),
    Message('note_on', channel=2, note=52, velocity=0, time=30),
    Message('note_on', channel=2, note=52, velocity=100, time=0),
    Message('note_on', channel=2, note=52, velocity=0, time=60),
    Message('note_on', channel=2, note=62, velocity=100, time=0),
    Message('note_on', channel=2, note=55, velocity=100, time=0),
    Message('note_on', channel=2, note=55, velocity=0, time=60),
    Message('note_on', channel=2, note=62, velocity=0, time=0),
    Message('note_on', channel=2, note=52, velocity=100, time=0),
    Message('note_on', channel=2, note=52, velocity=0, time=60),
    Message('note_on', channel=2, note=61, velocity=100, time=0),
    Message('note_on', channel=2, note=54, velocity=100, time=0),
    Message('note_on', channel=2, note=54, velocity=0, time=60),
    Message('note_on', channel=2, note=61, velocity=0, time=0),
    Message('note_on', channel=2, note=55, velocity=100, time=0),
    Message('note_on', channel=2, note=62, velocity=100, time=0),
    Message('note_on', channel=2, note=62, velocity=0, time=60),
    Message('note_on', channel=2, note=55, velocity=0, time=0),
    Message('note_on', channel=2, note=52, velocity=100, time=0),
    Message('note_on', channel=2, note=59, velocity=100, time=0),
    Message('note_on', channel=2, note=59, velocity=0, time=60),
    Message('note_on', channel=2, note=52, velocity=0, time=0),
    Message('note_on', channel=2, note=61, velocity=100, time=0),
    Message('note_on', channel=2, note=54, velocity=100, time=0),
    Message('note_on', channel=2, note=54, velocity=0, time=60),
    Message('note_on', channel=2, note=61, velocity=0, time=0),
    Message('note_on', channel=2, note=52, velocity=100, time=0),
    Message('note_on', channel=2, note=52, velocity=0, time=60),
    Message('note_on', channel=2, note=52, velocity=100, time=0),
    Message('note_on', channel=2, note=52, velocity=0, time=60),
    Message('note_on', channel=2, note=54, velocity=100, time=0),
    Message('note_on', channel=2, note=61, velocity=100, time=0),
    Message('note_on', channel=2, note=61, velocity=0, time=60),
    Message('note_on', channel=2, note=54, velocity=0, time=0),
    Message('note_on', channel=2, note=62, velocity=100, time=0),
    Message('note_on', channel=2, note=55, velocity=100, time=0),
    Message('note_on', channel=2, note=55, velocity=0, time=60),
    Message('note_on', channel=2, note=62, velocity=0, time=0),
    Message('note_on', channel=2, note=52, velocity=100, time=0),
    Message('note_on', channel=2, note=52, velocity=0, time=60),
    Message('note_on', channel=2, note=52, velocity=100, time=0),
    Message('note_on', channel=2, note=52, velocity=0, time=60),
    Message('note_on', channel=2, note=62, velocity=100, time=0),
    Message('note_on', channel=2, note=55, velocity=100, time=0),
    Message('note_on', channel=2, note=55, velocity=0, time=60),
    Message('note_on', channel=2, note=62, velocity=0, time=0),
    Message('note_on', channel=2, note=54, velocity=100, time=0),
    Message('note_on', channel=2, note=61, velocity=100, time=0),
    Message('note_on', channel=2, note=61, velocity=0, time=60),
    Message('note_on', channel=2, note=54, velocity=0, time=0),
    Message('note_on', channel=2, note=52, velocity=100, time=0),
    Message('note_on', channel=2, note=52, velocity=0, time=60),
    Message('note_on', channel=2, note=52, velocity=100, time=0),
    Message('note_on', channel=2, note=52, velocity=0, time=60),
    Message('note_on', channel=2, note=54, velocity=100, time=0),
    Message('note_on', channel=2, note=61, velocity=100, time=0),
    Message('note_on', channel=2, note=61, velocity=0, time=60),
    Message('note_on', channel=2, note=54, velocity=0, time=0),
    Message('note_on', channel=2, note=62, velocity=100, time=0),
    Message('note_on', channel=2, note=55, velocity=100, time=0),
    Message('note_on', channel=2, note=55, velocity=0, time=60),
    Message('note_on', channel=2, note=62, velocity=0, time=0),
    Message('note_on', channel=2, note=59, velocity=100, time=0),
    Message('note_on', channel=2, note=52, velocity=100, time=0),
    Message('note_on', channel=2, note=52, velocity=0, time=120),
    Message('note_on', channel=2, note=59, velocity=0, time=0),
    Message('note_on', channel=2, note=52, velocity=100, time=0),
    Message('note_on', channel=2, note=52, velocity=0, time=60),
    Message('note_on', channel=2, note=52, velocity=100, time=0),
    Message('note_on', channel=2, note=52, velocity=0, time=60),
    Message('note_on', channel=2, note=52, velocity=100, time=0),
    Message('note_on', channel=2, note=52, velocity=0, time=60),
    Message('note_on', channel=2, note=52, velocity=100, time=0),
    Message('note_on', channel=2, note=52, velocity=0, time=60),
    Message('note_on', channel=2, note=52, velocity=100, time=0),
    Message('note_on', channel=2, note=52, velocity=0, time=30),
    Message('note_on', channel=2, note=52, velocity=100, time=0),
    Message('note_on', channel=2, note=52, velocity=0, time=30),
    Message('note_on', channel=2, note=52, velocity=100, time=0),
    Message('note_on', channel=2, note=52, velocity=0, time=60),
    Message('note_on', channel=2, note=52, velocity=100, time=0),
    Message('note_on', channel=2, note=52, velocity=0, time=60),
    Message('note_on', channel=2, note=52, velocity=100, time=0),
    Message('note_on', channel=2, note=52, velocity=0, time=60),
    Message('note_on', channel=2, note=52, velocity=100, time=0),
    Message('note_on', channel=2, note=52, velocity=0, time=30),
    Message('note_on', channel=2, note=52, velocity=100, time=0),
    Message('note_on', channel=2, note=52, velocity=0, time=30),
    Message('note_on', channel=2, note=52, velocity=100, time=0),
    Message('note_on', channel=2, note=52, velocity=0, time=60),
    Message('note_on', channel=2, note=52, velocity=100, time=0),
    Message('note_on', channel=2, note=52, velocity=0, time=30),
    Message('note_on', channel=2, note=52, velocity=100, time=0),
    Message('note_on', channel=2, note=52, velocity=0, time=30),
    Message('note_on', channel=2, note=52, velocity=100, time=0),
    Message('note_on', channel=2, note=52, velocity=0, time=60),
    Message('note_on', channel=2, note=62, velocity=100, time=0),
    Message('note_on', channel=2, note=55, velocity=100, time=0),
    Message('note_on', channel=2, note=55, velocity=0, time=60),
    Message('note_on', channel=2, note=62, velocity=0, time=0),
    Message('note_on', channel=2, note=52, velocity=100, time=0),
    Message('note_on', channel=2, note=52, velocity=0, time=60),
    Message('note_on', channel=2, note=54, velocity=100, time=0),
    Message('note_on', channel=2, note=61, velocity=100, time=0),
    Message('note_on', channel=2, note=61, velocity=0, time=60),
    Message('note_on', channel=2, note=54, velocity=0, time=0),
    Message('note_on', channel=2, note=55, velocity=100, time=0),
    Message('note_on', channel=2, note=62, velocity=100, time=0),
    Message('note_on', channel=2, note=62, velocity=0, time=60),
    Message('note_on', channel=2, note=55, velocity=0, time=0),
    Message('note_on', channel=2, note=52, velocity=100, time=0),
    Message('note_on', channel=2, note=59, velocity=100, time=0),
    Message('note_on', channel=2, note=59, velocity=0, time=60),
    Message('note_on', channel=2, note=52, velocity=0, time=0),
    Message('note_on', channel=2, note=61, velocity=100, time=0),
    Message('note_on', channel=2, note=54, velocity=100, time=0),
    Message('note_on', channel=2, note=54, velocity=0, time=60),
    Message('note_on', channel=2, note=61, velocity=0, time=0),
    Message('note_on', channel=2, note=52, velocity=100, time=0),
    Message('note_on', channel=2, note=52, velocity=0, time=60),
    Message('note_on', channel=2, note=52, velocity=100, time=0),
    Message('note_on', channel=2, note=52, velocity=0, time=60),
    Message('note_on', channel=2, note=54, velocity=100, time=0),
    Message('note_on', channel=2, note=61, velocity=100, time=0),
    Message('note_on', channel=2, note=61, velocity=0, time=60),
    Message('note_on', channel=2, note=54, velocity=0, time=0),
    Message('note_on', channel=2, note=55, velocity=100, time=0),
    Message('note_on', channel=2, note=62, velocity=100, time=0),
    Message('note_on', channel=2, note=62, velocity=0, time=60),
    Message('note_on', channel=2, note=55, velocity=0, time=0),
    Message('note_on', channel=2, note=52, velocity=100, time=0),
    Message('note_on', channel=2, note=52, velocity=0, time=60),
    Message('note_on', channel=2, note=52, velocity=100, time=0),
    Message('note_on', channel=2, note=52, velocity=0, time=60),
    Message('note_on', channel=2, note=55, velocity=100, time=0),
    Message('note_on', channel=2, note=62, velocity=100, time=0),
    Message('note_on', channel=2, note=62, velocity=0, time=60),
    Message('note_on', channel=2, note=55, velocity=0, time=0),
    Message('note_on', channel=2, note=54, velocity=100, time=0),
    Message('note_on', channel=2, note=61, velocity=100, time=0),
    Message('note_on', channel=2, note=61, velocity=0, time=60),
    Message('note_on', channel=2, note=54, velocity=0, time=0),
    Message('note_on', channel=2, note=52, velocity=100, time=0),
    Message('note_on', channel=2, note=52, velocity=0, time=60),
    Message('note_on', channel=2, note=52, velocity=100, time=0),
    Message('note_on', channel=2, note=52, velocity=0, time=60),
    Message('note_on', channel=2, note=61, velocity=100, time=0),
    Message('note_on', channel=2, note=54, velocity=100, time=0),
    Message('note_on', channel=2, note=54, velocity=0, time=60),
    Message('note_on', channel=2, note=61, velocity=0, time=0),
    Message('note_on', channel=2, note=62, velocity=100, time=0),
    Message('note_on', channel=2, note=55, velocity=100, time=0),
    Message('note_on', channel=2, note=55, velocity=0, time=60),
    Message('note_on', channel=2, note=62, velocity=0, time=0),
    Message('note_on', channel=2, note=59, velocity=100, time=0),
    Message('note_on', channel=2, note=52, velocity=100, time=0),
    Message('note_on', channel=2, note=52, velocity=0, time=120),
    Message('note_on', channel=2, note=59, velocity=0, time=0),
    Message('note_on', channel=2, note=52, velocity=100, time=0),
    Message('note_on', channel=2, note=52, velocity=0, time=60),
    Message('note_on', channel=2, note=52, velocity=100, time=0),
    Message('note_on', channel=2, note=52, velocity=0, time=60),
    Message('note_on', channel=2, note=52, velocity=100, time=0),
    Message('note_on', channel=2, note=52, velocity=0, time=60),
    Message('note_on', channel=2, note=52, velocity=100, time=0),
    Message('note_on', channel=2, note=52, velocity=0, time=60),
    Message('note_on', channel=2, note=52, velocity=100, time=0),
    Message('note_on', channel=2, note=52, velocity=0, time=30),
    Message('note_on', channel=2, note=52, velocity=100, time=0),
    Message('note_on', channel=2, note=52, velocity=0, time=30),
    Message('note_on', channel=2, note=52, velocity=100, time=0),
    Message('note_on', channel=2, note=52, velocity=0, time=60),
    Message('note_on', channel=2, note=52, velocity=100, time=0),
    Message('note_on', channel=2, note=52, velocity=0, time=60),
    Message('note_on', channel=2, note=52, velocity=100, time=0),
    Message('note_on', channel=2, note=52, velocity=0, time=60),
    Message('note_on', channel=2, note=52, velocity=100, time=0),
    Message('note_on', channel=2, note=52, velocity=0, time=30),
    Message('note_on', channel=2, note=52, velocity=100, time=0),
    Message('note_on', channel=2, note=52, velocity=0, time=30),
    Message('note_on', channel=2, note=52, velocity=100, time=0),
    Message('note_on', channel=2, note=52, velocity=0, time=60),
    Message('note_on', channel=2, note=52, velocity=100, time=0),
    Message('note_on', channel=2, note=52, velocity=0, time=30),
    Message('note_on', channel=2, note=52, velocity=100, time=0),
    Message('note_on', channel=2, note=52, velocity=0, time=30),
    Message('note_on', channel=2, note=52, velocity=100, time=0),
    Message('note_on', channel=2, note=52, velocity=0, time=60),
    Message('note_on', channel=2, note=55, velocity=100, time=0),
    Message('note_on', channel=2, note=62, velocity=100, time=0),
    Message('note_on', channel=2, note=62, velocity=0, time=60),
    Message('note_on', channel=2, note=55, velocity=0, time=0),
    Message('note_on', channel=2, note=52, velocity=100, time=0),
    Message('note_on', channel=2, note=52, velocity=0, time=60),
    Message('note_on', channel=2, note=61, velocity=100, time=0),
    Message('note_on', channel=2, note=54, velocity=100, time=0),
    Message('note_on', channel=2, note=54, velocity=0, time=60),
    Message('note_on', channel=2, note=61, velocity=0, time=0),
    Message('note_on', channel=2, note=62, velocity=100, time=0),
    Message('note_on', channel=2, note=55, velocity=100, time=0),
    Message('note_on', channel=2, note=55, velocity=0, time=60),
    Message('note_on', channel=2, note=62, velocity=0, time=0),
    Message('note_on', channel=2, note=59, velocity=100, time=0),
    Message('note_on', channel=2, note=52, velocity=100, time=0),
    Message('note_on', channel=2, note=52, velocity=0, time=60),
    Message('note_on', channel=2, note=59, velocity=0, time=0),
    Message('note_on', channel=2, note=54, velocity=100, time=0),
    Message('note_on', channel=2, note=61, velocity=100, time=0),
    Message('note_on', channel=2, note=61, velocity=0, time=60),
    Message('note_on', channel=2, note=54, velocity=0, time=0),
    Message('note_on', channel=2, note=52, velocity=100, time=0),
    Message('note_on', channel=2, note=52, velocity=0, time=60),
    Message('note_on', channel=2, note=52, velocity=100, time=0),
    Message('note_on', channel=2, note=52, velocity=0, time=60),
    Message('note_on', channel=2, note=61, velocity=100, time=0),
    Message('note_on', channel=2, note=54, velocity=100, time=0),
    Message('note_on', channel=2, note=54, velocity=0, time=60),
    Message('note_on', channel=2, note=61, velocity=0, time=0),
    Message('note_on', channel=2, note=55, velocity=100, time=0),
    Message('note_on', channel=2, note=62, velocity=100, time=0),
    Message('note_on', channel=2, note=62, velocity=0, time=60),
    Message('note_on', channel=2, note=55, velocity=0, time=0),
    Message('note_on', channel=2, note=52, velocity=100, time=0),
    Message('note_on', channel=2, note=52, velocity=0, time=60),
    Message('note_on', channel=2, note=52, velocity=100, time=0),
    Message('note_on', channel=2, note=52, velocity=0, time=60),
    Message('note_on', channel=2, note=55, velocity=100, time=0),
    Message('note_on', channel=2, note=62, velocity=100, time=0),
    Message('note_on', channel=2, note=62, velocity=0, time=60),
    Message('note_on', channel=2, note=55, velocity=0, time=0),
    Message('note_on', channel=2, note=54, velocity=100, time=0),
    Message('note_on', channel=2, note=61, velocity=100, time=0),
    Message('note_on', channel=2, note=61, velocity=0, time=60),
    Message('note_on', channel=2, note=54, velocity=0, time=0),
    Message('note_on', channel=2, note=52, velocity=100, time=0),
    Message('note_on', channel=2, note=52, velocity=0, time=60),
    Message('note_on', channel=2, note=52, velocity=100, time=0),
    Message('note_on', channel=2, note=52, velocity=0, time=60),
    Message('note_on', channel=2, note=61, velocity=100, time=0),
    Message('note_on', channel=2, note=54, velocity=100, time=0),
    Message('note_on', channel=2, note=54, velocity=0, time=60),
    Message('note_on', channel=2, note=61, velocity=0, time=0),
    Message('note_on', channel=2, note=62, velocity=100, time=0),
    Message('note_on', channel=2, note=55, velocity=100, time=0),
    Message('note_on', channel=2, note=55, velocity=0, time=60),
    Message('note_on', channel=2, note=62, velocity=0, time=0),
    Message('note_on', channel=2, note=59, velocity=100, time=0),
    Message('note_on', channel=2, note=52, velocity=100, time=0),
    Message('note_on', channel=2, note=52, velocity=0, time=120),
    Message('note_on', channel=2, note=59, velocity=0, time=0),
    Message('note_on', channel=2, note=52, velocity=100, time=0),
    Message('note_on', channel=2, note=52, velocity=0, time=60),
    Message('note_on', channel=2, note=52, velocity=100, time=0),
    Message('note_on', channel=2, note=52, velocity=0, time=60),
    Message('note_on', channel=2, note=52, velocity=100, time=0),
    Message('note_on', channel=2, note=52, velocity=0, time=60),
    Message('note_on', channel=2, note=52, velocity=100, time=0),
    Message('note_on', channel=2, note=52, velocity=0, time=60),
    Message('note_on', channel=2, note=52, velocity=100, time=0),
    Message('note_on', channel=2, note=52, velocity=0, time=30),
    Message('note_on', channel=2, note=52, velocity=100, time=0),
    Message('note_on', channel=2, note=52, velocity=0, time=30),
    Message('note_on', channel=2, note=52, velocity=100, time=0),
    Message('note_on', channel=2, note=52, velocity=0, time=60),
    Message('note_on', channel=2, note=52, velocity=100, time=0),
    Message('note_on', channel=2, note=52, velocity=0, time=60),
    Message('note_on', channel=2, note=52, velocity=100, time=0),
    Message('note_on', channel=2, note=52, velocity=0, time=60),
    Message('note_on', channel=2, note=52, velocity=100, time=0),
    Message('note_on', channel=2, note=52, velocity=0, time=30),
    Message('note_on', channel=2, note=52, velocity=100, time=0),
    Message('note_on', channel=2, note=52, velocity=0, time=30),
    Message('note_on', channel=2, note=52, velocity=100, time=0),
    Message('note_on', channel=2, note=52, velocity=0, time=60),
    Message('note_on', channel=2, note=52, velocity=100, time=0),
    Message('note_on', channel=2, note=52, velocity=0, time=30),
    Message('note_on', channel=2, note=52, velocity=100, time=0),
    Message('note_on', channel=2, note=52, velocity=0, time=30),
    Message('note_on', channel=2, note=52, velocity=100, time=0),
    Message('note_on', channel=2, note=52, velocity=0, time=60),
    Message('note_on', channel=2, note=55, velocity=100, time=0),
    Message('note_on', channel=2, note=62, velocity=100, time=0),
    Message('note_on', channel=2, note=62, velocity=0, time=60),
    Message('note_on', channel=2, note=55, velocity=0, time=0),
    Message('note_on', channel=2, note=52, velocity=100, time=0),
    Message('note_on', channel=2, note=52, velocity=0, time=60),
    Message('note_on', channel=2, note=61, velocity=100, time=0),
    Message('note_on', channel=2, note=54, velocity=100, time=0),
    Message('note_on', channel=2, note=54, velocity=0, time=60),
    Message('note_on', channel=2, note=61, velocity=0, time=0),
    Message('note_on', channel=2, note=55, velocity=100, time=0),
    Message('note_on', channel=2, note=62, velocity=100, time=0),
    Message('note_on', channel=2, note=62, velocity=0, time=60),
    Message('note_on', channel=2, note=55, velocity=0, time=0),
    Message('note_on', channel=2, note=59, velocity=100, time=0),
    Message('note_on', channel=2, note=52, velocity=100, time=0),
    Message('note_on', channel=2, note=52, velocity=0, time=60),
    Message('note_on', channel=2, note=59, velocity=0, time=0),
    Message('note_on', channel=2, note=54, velocity=100, time=0),
    Message('note_on', channel=2, note=61, velocity=100, time=0),
    Message('note_on', channel=2, note=61, velocity=0, time=60),
    Message('note_on', channel=2, note=54, velocity=0, time=0),
    Message('note_on', channel=2, note=52, velocity=100, time=0),
    Message('note_on', channel=2, note=52, velocity=0, time=60),
    Message('note_on', channel=2, note=52, velocity=100, time=0),
    Message('note_on', channel=2, note=52, velocity=0, time=60),
    Message('note_on', channel=2, note=61, velocity=100, time=0),
    Message('note_on', channel=2, note=54, velocity=100, time=0),
    Message('note_on', channel=2, note=54, velocity=0, time=60),
    Message('note_on', channel=2, note=61, velocity=0, time=0),
    Message('note_on', channel=2, note=62, velocity=100, time=0),
    Message('note_on', channel=2, note=55, velocity=100, time=0),
    Message('note_on', channel=2, note=55, velocity=0, time=60),
    Message('note_on', channel=2, note=62, velocity=0, time=0),
    Message('note_on', channel=2, note=52, velocity=100, time=0),
    Message('note_on', channel=2, note=52, velocity=0, time=60),
    Message('note_on', channel=2, note=52, velocity=100, time=0),
    Message('note_on', channel=2, note=52, velocity=0, time=60),
    Message('note_on', channel=2, note=55, velocity=100, time=0),
    Message('note_on', channel=2, note=62, velocity=100, time=0),
    Message('note_on', channel=2, note=62, velocity=0, time=60),
    Message('note_on', channel=2, note=55, velocity=0, time=0),
    Message('note_on', channel=2, note=61, velocity=100, time=0),
    Message('note_on', channel=2, note=54, velocity=100, time=0),
    Message('note_on', channel=2, note=54, velocity=0, time=60),
    Message('note_on', channel=2, note=61, velocity=0, time=0),
    Message('note_on', channel=2, note=52, velocity=100, time=0),
    Message('note_on', channel=2, note=52, velocity=0, time=60),
    Message('note_on', channel=2, note=52, velocity=100, time=0),
    Message('note_on', channel=2, note=52, velocity=0, time=60),
    Message('note_on', channel=2, note=61, velocity=100, time=0),
    Message('note_on', channel=2, note=54, velocity=100, time=0),
    Message('note_on', channel=2, note=54, velocity=0, time=60),
    Message('note_on', channel=2, note=61, velocity=0, time=0),
    Message('note_on', channel=2, note=62, velocity=100, time=0),
    Message('note_on', channel=2, note=55, velocity=100, time=0),
    Message('note_on', channel=2, note=55, velocity=0, time=60),
    Message('note_on', channel=2, note=62, velocity=0, time=0),
    Message('note_on', channel=2, note=52, velocity=100, time=0),
    Message('note_on', channel=2, note=59, velocity=100, time=0),
    Message('note_on', channel=2, note=59, velocity=0, time=120),
    Message('note_on', channel=2, note=52, velocity=0, time=0),
    Message('note_on', channel=2, note=52, velocity=100, time=0),
    Message('note_on', channel=2, note=52, velocity=0, time=60),
    Message('note_on', channel=2, note=52, velocity=100, time=0),
    Message('note_on', channel=2, note=52, velocity=0, time=60),
    Message('note_on', channel=2, note=52, velocity=100, time=0),
    Message('note_on', channel=2, note=52, velocity=0, time=60),
    Message('note_on', channel=2, note=52, velocity=100, time=0),
    Message('note_on', channel=2, note=52, velocity=0, time=60),
    Message('note_on', channel=2, note=52, velocity=100, time=0),
    Message('note_on', channel=2, note=52, velocity=0, time=30),
    Message('note_on', channel=2, note=52, velocity=100, time=0),
    Message('note_on', channel=2, note=52, velocity=0, time=30),
    Message('note_on', channel=2, note=52, velocity=100, time=0),
    Message('note_on', channel=2, note=52, velocity=0, time=60),
    Message('note_on', channel=2, note=52, velocity=100, time=0),
    Message('note_on', channel=2, note=52, velocity=0, time=60),
    Message('note_on', channel=2, note=52, velocity=100, time=0),
    Message('note_on', channel=2, note=52, velocity=0, time=60),
    Message('note_on', channel=2, note=52, velocity=100, time=0),
    Message('note_on', channel=2, note=52, velocity=0, time=30),
    Message('note_on', channel=2, note=52, velocity=100, time=0),
    Message('note_on', channel=2, note=52, velocity=0, time=30),
    Message('note_on', channel=2, note=52, velocity=100, time=0),
    Message('note_on', channel=2, note=52, velocity=0, time=60),
    Message('note_on', channel=2, note=52, velocity=100, time=0),
    Message('note_on', channel=2, note=52, velocity=0, time=30),
    Message('note_on', channel=2, note=52, velocity=100, time=0),
    Message('note_on', channel=2, note=52, velocity=0, time=30),
    Message('note_on', channel=2, note=52, velocity=100, time=0),
    Message('note_on', channel=2, note=52, velocity=0, time=60),
    Message('note_on', channel=2, note=62, velocity=100, time=0),
    Message('note_on', channel=2, note=55, velocity=100, time=0),
    Message('note_on', channel=2, note=55, velocity=0, time=60),
    Message('note_on', channel=2, note=62, velocity=0, time=0),
    Message('note_on', channel=2, note=52, velocity=100, time=0),
    Message('note_on', channel=2, note=52, velocity=0, time=60),
    Message('note_on', channel=2, note=54, velocity=100, time=0),
    Message('note_on', channel=2, note=61, velocity=100, time=0),
    Message('note_on', channel=2, note=61, velocity=0, time=60),
    Message('note_on', channel=2, note=54, velocity=0, time=0),
    Message('note_on', channel=2, note=55, velocity=100, time=0),
    Message('note_on', channel=2, note=62, velocity=100, time=0),
    Message('note_on', channel=2, note=62, velocity=0, time=60),
    Message('note_on', channel=2, note=55, velocity=0, time=0),
    Message('note_on', channel=2, note=59, velocity=100, time=0),
    Message('note_on', channel=2, note=52, velocity=100, time=0),
    Message('note_on', channel=2, note=52, velocity=0, time=60),
    Message('note_on', channel=2, note=59, velocity=0, time=0),
    Message('note_on', channel=2, note=61, velocity=100, time=0),
    Message('note_on', channel=2, note=54, velocity=100, time=0),
    Message('note_on', channel=2, note=54, velocity=0, time=60),
    Message('note_on', channel=2, note=61, velocity=0, time=0),
    Message('note_on', channel=2, note=52, velocity=100, time=0),
    Message('note_on', channel=2, note=52, velocity=0, time=60),
    Message('note_on', channel=2, note=52, velocity=100, time=0),
    Message('note_on', channel=2, note=52, velocity=0, time=60),
    Message('note_on', channel=2, note=54, velocity=100, time=0),
    Message('note_on', channel=2, note=61, velocity=100, time=0),
    Message('note_on', channel=2, note=61, velocity=0, time=60),
    Message('note_on', channel=2, note=54, velocity=0, time=0),
    Message('note_on', channel=2, note=62, velocity=100, time=0),
    Message('note_on', channel=2, note=55, velocity=100, time=0),
    Message('note_on', channel=2, note=55, velocity=0, time=60),
    Message('note_on', channel=2, note=62, velocity=0, time=0),
    Message('note_on', channel=2, note=52, velocity=100, time=0),
    Message('note_on', channel=2, note=52, velocity=0, time=60),
    Message('note_on', channel=2, note=52, velocity=100, time=0),
    Message('note_on', channel=2, note=52, velocity=0, time=60),
    Message('note_on', channel=2, note=55, velocity=100, time=0),
    Message('note_on', channel=2, note=62, velocity=100, time=0),
    Message('note_on', channel=2, note=62, velocity=0, time=60),
    Message('note_on', channel=2, note=55, velocity=0, time=0),
    Message('note_on', channel=2, note=61, velocity=100, time=0),
    Message('note_on', channel=2, note=54, velocity=100, time=0),
    Message('note_on', channel=2, note=54, velocity=0, time=60),
    Message('note_on', channel=2, note=61, velocity=0, time=0),
    Message('note_on', channel=2, note=52, velocity=100, time=0),
    Message('note_on', channel=2, note=52, velocity=0, time=60),
    Message('note_on', channel=2, note=52, velocity=100, time=0),
    Message('note_on', channel=2, note=52, velocity=0, time=60),
    Message('note_on', channel=2, note=61, velocity=100, time=0),
    Message('note_on', channel=2, note=54, velocity=100, time=0),
    Message('note_on', channel=2, note=54, velocity=0, time=60),
    Message('note_on', channel=2, note=61, velocity=0, time=0),
    Message('note_on', channel=2, note=62, velocity=100, time=0),
    Message('note_on', channel=2, note=55, velocity=100, time=0),
    Message('note_on', channel=2, note=55, velocity=0, time=60),
    Message('note_on', channel=2, note=62, velocity=0, time=0),
    Message('note_on', channel=2, note=52, velocity=100, time=0),
    Message('note_on', channel=2, note=59, velocity=100, time=0),
    Message('note_on', channel=2, note=59, velocity=0, time=120),
    Message('note_on', channel=2, note=52, velocity=0, time=0),
    Message('note_on', channel=2, note=52, velocity=100, time=0),
    Message('note_on', channel=2, note=52, velocity=0, time=60),
    Message('note_on', channel=2, note=52, velocity=100, time=0),
    Message('note_on', channel=2, note=52, velocity=0, time=60),
    Message('note_on', channel=2, note=52, velocity=100, time=0),
    Message('note_on', channel=2, note=52, velocity=0, time=60),
    Message('note_on', channel=2, note=52, velocity=100, time=0),
    Message('note_on', channel=2, note=52, velocity=0, time=60),
    Message('note_on', channel=2, note=52, velocity=100, time=0),
    Message('note_on', channel=2, note=52, velocity=0, time=30),
    Message('note_on', channel=2, note=52, velocity=100, time=0),
    Message('note_on', channel=2, note=52, velocity=0, time=30),
    Message('note_on', channel=2, note=52, velocity=100, time=0),
    Message('note_on', channel=2, note=52, velocity=0, time=60),
    Message('note_on', channel=2, note=52, velocity=100, time=0),
    Message('note_on', channel=2, note=52, velocity=0, time=60),
    Message('note_on', channel=2, note=52, velocity=100, time=0),
    Message('note_on', channel=2, note=52, velocity=0, time=60),
    Message('note_on', channel=2, note=52, velocity=100, time=0),
    Message('note_on', channel=2, note=52, velocity=0, time=30),
    Message('note_on', channel=2, note=52, velocity=100, time=0),
    Message('note_on', channel=2, note=52, velocity=0, time=30),
    Message('note_on', channel=2, note=52, velocity=100, time=0),
    Message('note_on', channel=2, note=52, velocity=0, time=60),
    Message('note_on', channel=2, note=52, velocity=100, time=0),
    Message('note_on', channel=2, note=52, velocity=0, time=30),
    Message('note_on', channel=2, note=52, velocity=100, time=0),
    Message('note_on', channel=2, note=52, velocity=0, time=30),
    Message('note_on', channel=2, note=52, velocity=100, time=0),
    Message('note_on', channel=2, note=52, velocity=0, time=60),
    Message('note_on', channel=2, note=62, velocity=100, time=0),
    Message('note_on', channel=2, note=55, velocity=100, time=0),
    Message('note_on', channel=2, note=55, velocity=0, time=60),
    Message('note_on', channel=2, note=62, velocity=0, time=0),
    Message('note_on', channel=2, note=52, velocity=100, time=0),
    Message('note_on', channel=2, note=52, velocity=0, time=60),
    Message('note_on', channel=2, note=54, velocity=100, time=0),
    Message('note_on', channel=2, note=61, velocity=100, time=0),
    Message('note_on', channel=2, note=61, velocity=0, time=60),
    Message('note_on', channel=2, note=54, velocity=0, time=0),
    Message('note_on', channel=2, note=55, velocity=100, time=0),
    Message('note_on', channel=2, note=62, velocity=100, time=0),
    Message('note_on', channel=2, note=62, velocity=0, time=60),
    Message('note_on', channel=2, note=55, velocity=0, time=0),
    Message('note_on', channel=2, note=59, velocity=100, time=0),
    Message('note_on', channel=2, note=52, velocity=100, time=0),
    Message('note_on', channel=2, note=52, velocity=0, time=60),
    Message('note_on', channel=2, note=59, velocity=0, time=0),
    Message('note_on', channel=2, note=54, velocity=100, time=0),
    Message('note_on', channel=2, note=61, velocity=100, time=0),
    Message('note_on', channel=2, note=61, velocity=0, time=60),
    Message('note_on', channel=2, note=54, velocity=0, time=0),
    Message('note_on', channel=2, note=52, velocity=100, time=0),
    Message('note_on', channel=2, note=52, velocity=0, time=60),
    Message('note_on', channel=2, note=52, velocity=100, time=0),
    Message('note_on', channel=2, note=52, velocity=0, time=60),
    Message('note_on', channel=2, note=61, velocity=100, time=0),
    Message('note_on', channel=2, note=54, velocity=100, time=0),
    Message('note_on', channel=2, note=54, velocity=0, time=60),
    Message('note_on', channel=2, note=61, velocity=0, time=0),
    Message('note_on', channel=2, note=62, velocity=100, time=0),
    Message('note_on', channel=2, note=55, velocity=100, time=0),
    Message('note_on', channel=2, note=55, velocity=0, time=60),
    Message('note_on', channel=2, note=62, velocity=0, time=0),
    Message('note_on', channel=2, note=52, velocity=100, time=0),
    Message('note_on', channel=2, note=52, velocity=0, time=60),
    Message('note_on', channel=2, note=52, velocity=100, time=0),
    Message('note_on', channel=2, note=52, velocity=0, time=60),
    Message('note_on', channel=2, note=55, velocity=100, time=0),
    Message('note_on', channel=2, note=62, velocity=100, time=0),
    Message('note_on', channel=2, note=62, velocity=0, time=60),
    Message('note_on', channel=2, note=55, velocity=0, time=0),
    Message('note_on', channel=2, note=61, velocity=100, time=0),
    Message('note_on', channel=2, note=54, velocity=100, time=0),
    Message('note_on', channel=2, note=54, velocity=0, time=60),
    Message('note_on', channel=2, note=61, velocity=0, time=0),
    Message('note_on', channel=2, note=52, velocity=100, time=0),
    Message('note_on', channel=2, note=52, velocity=0, time=60),
    Message('note_on', channel=2, note=52, velocity=100, time=0),
    Message('note_on', channel=2, note=52, velocity=0, time=60),
    Message('note_on', channel=2, note=61, velocity=100, time=0),
    Message('note_on', channel=2, note=54, velocity=100, time=0),
    Message('note_on', channel=2, note=54, velocity=0, time=60),
    Message('note_on', channel=2, note=61, velocity=0, time=0),
    Message('note_on', channel=2, note=62, velocity=100, time=0),
    Message('note_on', channel=2, note=55, velocity=100, time=0),
    Message('note_on', channel=2, note=55, velocity=0, time=60),
    Message('note_on', channel=2, note=62, velocity=0, time=0),
    Message('note_on', channel=2, note=62, velocity=100, time=0),
    Message('note_on', channel=2, note=62, velocity=0, time=30),
    Message('note_on', channel=2, note=64, velocity=100, time=0),
    Message('note_on', channel=2, note=64, velocity=0, time=30),
    Message('note_on', channel=2, note=52, velocity=100, time=0),
    Message('note_on', channel=2, note=52, velocity=0, time=30),
    Message('note_on', channel=2, note=52, velocity=100, time=0),
    Message('note_on', channel=2, note=52, velocity=0, time=30),
    Message('note_on', channel=2, note=52, velocity=100, time=0),
    Message('note_on', channel=2, note=52, velocity=0, time=30),
    Message('note_on', channel=2, note=52, velocity=100, time=0),
    Message('note_on', channel=2, note=52, velocity=0, time=30),
    Message('note_on', channel=2, note=67, velocity=100, time=0),
    Message('note_on', channel=2, note=67, velocity=0, time=30),
    Message('note_on', channel=2, note=64, velocity=100, time=0),
    Message('note_on', channel=2, note=64, velocity=0, time=30),
    Message('note_on', channel=2, note=52, velocity=100, time=0),
    Message('note_on', channel=2, note=52, velocity=0, time=30),
    Message('note_on', channel=2, note=52, velocity=100, time=0),
    Message('note_on', channel=2, note=52, velocity=0, time=30),
    Message('note_on', channel=2, note=52, velocity=100, time=0),
    Message('note_on', channel=2, note=52, velocity=0, time=30),
    Message('note_on', channel=2, note=52, velocity=100, time=0),
    Message('note_on', channel=2, note=52, velocity=0, time=30),
    Message('note_on', channel=2, note=52, velocity=100, time=0),
    Message('note_on', channel=2, note=52, velocity=0, time=30),
    Message('note_on', channel=2, note=52, velocity=100, time=0),
    Message('note_on', channel=2, note=52, velocity=0, time=30),
    Message('note_on', channel=2, note=52, velocity=100, time=0),
    Message('note_on', channel=2, note=52, velocity=0, time=30),
    Message('note_on', channel=2, note=52, velocity=100, time=0),
    Message('note_on', channel=2, note=52, velocity=0, time=30),
    Message('note_on', channel=2, note=62, velocity=100, time=0),
    Message('note_on', channel=2, note=62, velocity=0, time=30),
    Message('note_on', channel=2, note=64, velocity=100, time=0),
    Message('note_on', channel=2, note=64, velocity=0, time=30),
    Message('note_on', channel=2, note=52, velocity=100, time=0),
    Message('note_on', channel=2, note=52, velocity=0, time=30),
    Message('note_on', channel=2, note=52, velocity=100, time=0),
    Message('note_on', channel=2, note=52, velocity=0, time=30),
    Message('note_on', channel=2, note=52, velocity=100, time=0),
    Message('note_on', channel=2, note=52, velocity=0, time=30),
    Message('note_on', channel=2, note=52, velocity=100, time=0),
    Message('note_on', channel=2, note=52, velocity=0, time=30),
    Message('note_on', channel=2, note=62, velocity=100, time=0),
    Message('note_on', channel=2, note=62, velocity=0, time=30),
    Message('note_on', channel=2, note=64, velocity=100, time=0),
    Message('note_on', channel=2, note=64, velocity=0, time=30),
    Message('note_on', channel=2, note=52, velocity=100, time=0),
    Message('note_on', channel=2, note=52, velocity=0, time=30),
    Message('note_on', channel=2, note=52, velocity=100, time=0),
    Message('note_on', channel=2, note=52, velocity=0, time=30),
    Message('note_on', channel=2, note=52, velocity=100, time=0),
    Message('note_on', channel=2, note=52, velocity=0, time=30),
    Message('note_on', channel=2, note=52, velocity=100, time=0),
    Message('note_on', channel=2, note=52, velocity=0, time=30),
    Message('note_on', channel=2, note=66, velocity=100, time=0),
    Message('note_on', channel=2, note=59, velocity=100, time=0),
    Message('note_on', channel=2, note=59, velocity=0, time=120),
    Message('note_on', channel=2, note=66, velocity=0, time=0),
    Message('note_on', channel=2, note=62, velocity=100, time=0),
    Message('note_on', channel=2, note=62, velocity=0, time=30),
    Message('note_on', channel=2, note=64, velocity=100, time=0),
    Message('note_on', channel=2, note=64, velocity=0, time=30),
    Message('note_on', channel=2, note=52, velocity=100, time=0),
    Message('note_on', channel=2, note=52, velocity=0, time=30),
    Message('note_on', channel=2, note=52, velocity=100, time=0),
    Message('note_on', channel=2, note=52, velocity=0, time=30),
    Message('note_on', channel=2, note=52, velocity=100, time=0),
    Message('note_on', channel=2, note=52, velocity=0, time=30),
    Message('note_on', channel=2, note=52, velocity=100, time=0),
    Message('note_on', channel=2, note=52, velocity=0, time=30),
    Message('note_on', channel=2, note=67, velocity=100, time=0),
    Message('note_on', channel=2, note=67, velocity=0, time=30),
    Message('note_on', channel=2, note=64, velocity=100, time=0),
    Message('note_on', channel=2, note=64, velocity=0, time=30),
    Message('note_on', channel=2, note=52, velocity=100, time=0),
    Message('note_on', channel=2, note=52, velocity=0, time=30),
    Message('note_on', channel=2, note=52, velocity=100, time=0),
    Message('note_on', channel=2, note=52, velocity=0, time=30),
    Message('note_on', channel=2, note=52, velocity=100, time=0),
    Message('note_on', channel=2, note=52, velocity=0, time=30),
    Message('note_on', channel=2, note=52, velocity=100, time=0),
    Message('note_on', channel=2, note=52, velocity=0, time=30),
    Message('note_on', channel=2, note=52, velocity=100, time=0),
    Message('note_on', channel=2, note=52, velocity=0, time=30),
    Message('note_on', channel=2, note=52, velocity=100, time=0),
    Message('note_on', channel=2, note=52, velocity=0, time=30),
    Message('note_on', channel=2, note=52, velocity=100, time=0),
    Message('note_on', channel=2, note=52, velocity=0, time=30),
    Message('note_on', channel=2, note=52, velocity=100, time=0),
    Message('note_on', channel=2, note=52, velocity=0, time=30),
    Message('note_on', channel=2, note=62, velocity=100, time=0),
    Message('note_on', channel=2, note=62, velocity=0, time=30),
    Message('note_on', channel=2, note=64, velocity=100, time=0),
    Message('note_on', channel=2, note=64, velocity=0, time=30),
    Message('note_on', channel=2, note=52, velocity=100, time=0),
    Message('note_on', channel=2, note=52, velocity=0, time=30),
    Message('note_on', channel=2, note=52, velocity=100, time=0),
    Message('note_on', channel=2, note=52, velocity=0, time=30),
    Message('note_on', channel=2, note=52, velocity=100, time=0),
    Message('note_on', channel=2, note=52, velocity=0, time=30),
    Message('note_on', channel=2, note=52, velocity=100, time=0),
    Message('note_on', channel=2, note=52, velocity=0, time=30),
    Message('note_on', channel=2, note=62, velocity=100, time=0),
    Message('note_on', channel=2, note=62, velocity=0, time=30),
    Message('note_on', channel=2, note=64, velocity=100, time=0),
    Message('note_on', channel=2, note=64, velocity=0, time=30),
    Message('note_on', channel=2, note=52, velocity=100, time=0),
    Message('note_on', channel=2, note=52, velocity=0, time=30),
    Message('note_on', channel=2, note=52, velocity=100, time=0),
    Message('note_on', channel=2, note=52, velocity=0, time=30),
    Message('note_on', channel=2, note=52, velocity=100, time=0),
    Message('note_on', channel=2, note=52, velocity=0, time=30),
    Message('note_on', channel=2, note=52, velocity=100, time=0),
    Message('note_on', channel=2, note=52, velocity=0, time=30),
    Message('note_on', channel=2, note=66, velocity=100, time=0),
    Message('note_on', channel=2, note=59, velocity=100, time=0),
    Message('note_on', channel=2, note=59, velocity=0, time=120),
    Message('note_on', channel=2, note=66, velocity=0, time=0),
    Message('note_on', channel=2, note=62, velocity=100, time=0),
    Message('note_on', channel=2, note=62, velocity=0, time=30),
    Message('note_on', channel=2, note=64, velocity=100, time=0),
    Message('note_on', channel=2, note=64, velocity=0, time=30),
    Message('note_on', channel=2, note=52, velocity=100, time=0),
    Message('note_on', channel=2, note=52, velocity=0, time=30),
    Message('note_on', channel=2, note=52, velocity=100, time=0),
    Message('note_on', channel=2, note=52, velocity=0, time=30),
    Message('note_on', channel=2, note=52, velocity=100, time=0),
    Message('note_on', channel=2, note=52, velocity=0, time=30),
    Message('note_on', channel=2, note=52, velocity=100, time=0),
    Message('note_on', channel=2, note=52, velocity=0, time=30),
    Message('note_on', channel=2, note=67, velocity=100, time=0),
    Message('note_on', channel=2, note=67, velocity=0, time=30),
    Message('note_on', channel=2, note=64, velocity=100, time=0),
    Message('note_on', channel=2, note=64, velocity=0, time=30),
    Message('note_on', channel=2, note=52, velocity=100, time=0),
    Message('note_on', channel=2, note=52, velocity=0, time=30),
    Message('note_on', channel=2, note=52, velocity=100, time=0),
    Message('note_on', channel=2, note=52, velocity=0, time=30),
    Message('note_on', channel=2, note=52, velocity=100, time=0),
    Message('note_on', channel=2, note=52, velocity=0, time=30),
    Message('note_on', channel=2, note=52, velocity=100, time=0),
    Message('note_on', channel=2, note=52, velocity=0, time=30),
    Message('note_on', channel=2, note=52, velocity=100, time=0),
    Message('note_on', channel=2, note=52, velocity=0, time=30),
    Message('note_on', channel=2, note=52, velocity=100, time=0),
    Message('note_on', channel=2, note=52, velocity=0, time=30),
    Message('note_on', channel=2, note=52, velocity=100, time=0),
    Message('note_on', channel=2, note=52, velocity=0, time=30),
    Message('note_on', channel=2, note=52, velocity=100, time=0),
    Message('note_on', channel=2, note=52, velocity=0, time=30),
    Message('note_on', channel=2, note=62, velocity=100, time=0),
    Message('note_on', channel=2, note=62, velocity=0, time=30),
    Message('note_on', channel=2, note=64, velocity=100, time=0),
    Message('note_on', channel=2, note=64, velocity=0, time=30),
    Message('note_on', channel=2, note=52, velocity=100, time=0),
    Message('note_on', channel=2, note=52, velocity=0, time=30),
    Message('note_on', channel=2, note=52, velocity=100, time=0),
    Message('note_on', channel=2, note=52, velocity=0, time=30),
    Message('note_on', channel=2, note=52, velocity=100, time=0),
    Message('note_on', channel=2, note=52, velocity=0, time=30),
    Message('note_on', channel=2, note=52, velocity=100, time=0),
    Message('note_on', channel=2, note=52, velocity=0, time=30),
    Message('note_on', channel=2, note=62, velocity=100, time=0),
    Message('note_on', channel=2, note=62, velocity=0, time=30),
    Message('note_on', channel=2, note=64, velocity=100, time=0),
    Message('note_on', channel=2, note=64, velocity=0, time=30),
    Message('note_on', channel=2, note=52, velocity=100, time=0),
    Message('note_on', channel=2, note=52, velocity=0, time=30),
    Message('note_on', channel=2, note=52, velocity=100, time=0),
    Message('note_on', channel=2, note=52, velocity=0, time=30),
    Message('note_on', channel=2, note=52, velocity=100, time=0),
    Message('note_on', channel=2, note=52, velocity=0, time=30),
    Message('note_on', channel=2, note=52, velocity=100, time=0),
    Message('note_on', channel=2, note=52, velocity=0, time=30),
    Message('note_on', channel=2, note=66, velocity=100, time=0),
    Message('note_on', channel=2, note=59, velocity=100, time=0),
    Message('note_on', channel=2, note=59, velocity=0, time=120),
    Message('note_on', channel=2, note=66, velocity=0, time=0),
    Message('note_on', channel=2, note=62, velocity=100, time=0),
    Message('note_on', channel=2, note=62, velocity=0, time=30),
    Message('note_on', channel=2, note=64, velocity=100, time=0),
    Message('note_on', channel=2, note=64, velocity=0, time=30),
    Message('note_on', channel=2, note=52, velocity=100, time=0),
    Message('note_on', channel=2, note=52, velocity=0, time=30),
    Message('note_on', channel=2, note=52, velocity=100, time=0),
    Message('note_on', channel=2, note=52, velocity=0, time=30),
    Message('note_on', channel=2, note=52, velocity=100, time=0),
    Message('note_on', channel=2, note=52, velocity=0, time=30),
    Message('note_on', channel=2, note=52, velocity=100, time=0),
    Message('note_on', channel=2, note=52, velocity=0, time=30),
    Message('note_on', channel=2, note=67, velocity=100, time=0),
    Message('note_on', channel=2, note=67, velocity=0, time=30),
    Message('note_on', channel=2, note=64, velocity=100, time=0),
    Message('note_on', channel=2, note=64, velocity=0, time=30),
    Message('note_on', channel=2, note=52, velocity=100, time=0),
    Message('note_on', channel=2, note=52, velocity=0, time=30),
    Message('note_on', channel=2, note=52, velocity=100, time=0),
    Message('note_on', channel=2, note=52, velocity=0, time=30),
    Message('note_on', channel=2, note=52, velocity=100, time=0),
    Message('note_on', channel=2, note=52, velocity=0, time=30),
    Message('note_on', channel=2, note=52, velocity=100, time=0),
    Message('note_on', channel=2, note=52, velocity=0, time=30),
    Message('note_on', channel=2, note=52, velocity=100, time=0),
    Message('note_on', channel=2, note=52, velocity=0, time=30),
    Message('note_on', channel=2, note=52, velocity=100, time=0),
    Message('note_on', channel=2, note=52, velocity=0, time=30),
    Message('note_on', channel=2, note=52, velocity=100, time=0),
    Message('note_on', channel=2, note=52, velocity=0, time=30),
    Message('note_on', channel=2, note=52, velocity=100, time=0),
    Message('note_on', channel=2, note=52, velocity=0, time=30),
    Message('note_on', channel=2, note=62, velocity=100, time=0),
    Message('note_on', channel=2, note=62, velocity=0, time=30),
    Message('note_on', channel=2, note=64, velocity=100, time=0),
    Message('note_on', channel=2, note=64, velocity=0, time=30),
    Message('note_on', channel=2, note=52, velocity=100, time=0),
    Message('note_on', channel=2, note=52, velocity=0, time=30),
    Message('note_on', channel=2, note=52, velocity=100, time=0),
    Message('note_on', channel=2, note=52, velocity=0, time=30),
    Message('note_on', channel=2, note=52, velocity=100, time=0),
    Message('note_on', channel=2, note=52, velocity=0, time=30),
    Message('note_on', channel=2, note=52, velocity=100, time=0),
    Message('note_on', channel=2, note=52, velocity=0, time=30),
    Message('note_on', channel=2, note=62, velocity=100, time=0),
    Message('note_on', channel=2, note=62, velocity=0, time=30),
    Message('note_on', channel=2, note=64, velocity=100, time=0),
    Message('note_on', channel=2, note=64, velocity=0, time=30),
    Message('note_on', channel=2, note=52, velocity=100, time=0),
    Message('note_on', channel=2, note=52, velocity=0, time=30),
    Message('note_on', channel=2, note=52, velocity=100, time=0),
    Message('note_on', channel=2, note=52, velocity=0, time=30),
    Message('note_on', channel=2, note=52, velocity=100, time=0),
    Message('note_on', channel=2, note=52, velocity=0, time=30),
    Message('note_on', channel=2, note=52, velocity=100, time=0),
    Message('note_on', channel=2, note=52, velocity=0, time=30),
    Message('note_on', channel=2, note=66, velocity=100, time=0),
    Message('note_on', channel=2, note=59, velocity=100, time=0),
    Message('note_on', channel=2, note=59, velocity=0, time=120),
    Message('note_on', channel=2, note=66, velocity=0, time=0),
    Message('note_on', channel=2, note=62, velocity=100, time=0),
    Message('note_on', channel=2, note=62, velocity=0, time=30),
    Message('note_on', channel=2, note=64, velocity=100, time=0),
    Message('note_on', channel=2, note=64, velocity=0, time=30),
    Message('note_on', channel=2, note=52, velocity=100, time=0),
    Message('note_on', channel=2, note=52, velocity=0, time=30),
    Message('note_on', channel=2, note=52, velocity=100, time=0),
    Message('note_on', channel=2, note=52, velocity=0, time=30),
    Message('note_on', channel=2, note=52, velocity=100, time=0),
    Message('note_on', channel=2, note=52, velocity=0, time=30),
    Message('note_on', channel=2, note=52, velocity=100, time=0),
    Message('note_on', channel=2, note=52, velocity=0, time=30),
    Message('note_on', channel=2, note=67, velocity=100, time=0),
    Message('note_on', channel=2, note=67, velocity=0, time=30),
    Message('note_on', channel=2, note=64, velocity=100, time=0),
    Message('note_on', channel=2, note=64, velocity=0, time=30),
    Message('note_on', channel=2, note=52, velocity=100, time=0),
    Message('note_on', channel=2, note=52, velocity=0, time=30),
    Message('note_on', channel=2, note=52, velocity=100, time=0),
    Message('note_on', channel=2, note=52, velocity=0, time=30),
    Message('note_on', channel=2, note=52, velocity=100, time=0),
    Message('note_on', channel=2, note=52, velocity=0, time=30),
    Message('note_on', channel=2, note=52, velocity=100, time=0),
    Message('note_on', channel=2, note=52, velocity=0, time=30),
    Message('note_on', channel=2, note=52, velocity=100, time=0),
    Message('note_on', channel=2, note=52, velocity=0, time=30),
    Message('note_on', channel=2, note=52, velocity=100, time=0),
    Message('note_on', channel=2, note=52, velocity=0, time=30),
    Message('note_on', channel=2, note=52, velocity=100, time=0),
    Message('note_on', channel=2, note=52, velocity=0, time=30),
    Message('note_on', channel=2, note=52, velocity=100, time=0),
    Message('note_on', channel=2, note=52, velocity=0, time=30),
    Message('note_on', channel=2, note=62, velocity=100, time=0),
    Message('note_on', channel=2, note=62, velocity=0, time=30),
    Message('note_on', channel=2, note=64, velocity=100, time=0),
    Message('note_on', channel=2, note=64, velocity=0, time=30),
    Message('note_on', channel=2, note=52, velocity=100, time=0),
    Message('note_on', channel=2, note=52, velocity=0, time=30),
    Message('note_on', channel=2, note=52, velocity=100, time=0),
    Message('note_on', channel=2, note=52, velocity=0, time=30),
    Message('note_on', channel=2, note=52, velocity=100, time=0),
    Message('note_on', channel=2, note=52, velocity=0, time=30),
    Message('note_on', channel=2, note=52, velocity=100, time=0),
    Message('note_on', channel=2, note=52, velocity=0, time=30),
    Message('note_on', channel=2, note=62, velocity=100, time=0),
    Message('note_on', channel=2, note=62, velocity=0, time=30),
    Message('note_on', channel=2, note=64, velocity=100, time=0),
    Message('note_on', channel=2, note=64, velocity=0, time=30),
    Message('note_on', channel=2, note=52, velocity=100, time=0),
    Message('note_on', channel=2, note=52, velocity=0, time=30),
    Message('note_on', channel=2, note=52, velocity=100, time=0),
    Message('note_on', channel=2, note=52, velocity=0, time=30),
    Message('note_on', channel=2, note=52, velocity=100, time=0),
    Message('note_on', channel=2, note=52, velocity=0, time=30),
    Message('note_on', channel=2, note=52, velocity=100, time=0),
    Message('note_on', channel=2, note=52, velocity=0, time=30),
    Message('note_on', channel=2, note=66, velocity=100, time=0),
    Message('note_on', channel=2, note=59, velocity=100, time=0),
    Message('note_on', channel=2, note=59, velocity=0, time=120),
    Message('note_on', channel=2, note=66, velocity=0, time=0),
    Message('note_on', channel=2, note=62, velocity=100, time=0),
    Message('note_on', channel=2, note=62, velocity=0, time=30),
    Message('note_on', channel=2, note=64, velocity=100, time=0),
    Message('note_on', channel=2, note=64, velocity=0, time=30),
    Message('note_on', channel=2, note=52, velocity=100, time=0),
    Message('note_on', channel=2, note=52, velocity=0, time=30),
    Message('note_on', channel=2, note=52, velocity=100, time=0),
    Message('note_on', channel=2, note=52, velocity=0, time=30),
    Message('note_on', channel=2, note=52, velocity=100, time=0),
    Message('note_on', channel=2, note=52, velocity=0, time=30),
    Message('note_on', channel=2, note=52, velocity=100, time=0),
    Message('note_on', channel=2, note=52, velocity=0, time=30),
    Message('note_on', channel=2, note=67, velocity=100, time=0),
    Message('note_on', channel=2, note=67, velocity=0, time=30),
    Message('note_on', channel=2, note=64, velocity=100, time=0),
    Message('note_on', channel=2, note=64, velocity=0, time=30),
    Message('note_on', channel=2, note=52, velocity=100, time=0),
    Message('note_on', channel=2, note=52, velocity=0, time=30),
    Message('note_on', channel=2, note=52, velocity=100, time=0),
    Message('note_on', channel=2, note=52, velocity=0, time=30),
    Message('note_on', channel=2, note=52, velocity=100, time=0),
    Message('note_on', channel=2, note=52, velocity=0, time=30),
    Message('note_on', channel=2, note=52, velocity=100, time=0),
    Message('note_on', channel=2, note=52, velocity=0, time=30),
    Message('note_on', channel=2, note=52, velocity=100, time=0),
    Message('note_on', channel=2, note=52, velocity=0, time=30),
    Message('note_on', channel=2, note=52, velocity=100, time=0),
    Message('note_on', channel=2, note=52, velocity=0, time=30),
    Message('note_on', channel=2, note=52, velocity=100, time=0),
    Message('note_on', channel=2, note=52, velocity=0, time=30),
    Message('note_on', channel=2, note=52, velocity=100, time=0),
    Message('note_on', channel=2, note=52, velocity=0, time=30),
    Message('note_on', channel=2, note=62, velocity=100, time=0),
    Message('note_on', channel=2, note=62, velocity=0, time=30),
    Message('note_on', channel=2, note=64, velocity=100, time=0),
    Message('note_on', channel=2, note=64, velocity=0, time=30),
    Message('note_on', channel=2, note=52, velocity=100, time=0),
    Message('note_on', channel=2, note=52, velocity=0, time=30),
    Message('note_on', channel=2, note=52, velocity=100, time=0),
    Message('note_on', channel=2, note=52, velocity=0, time=30),
    Message('note_on', channel=2, note=52, velocity=100, time=0),
    Message('note_on', channel=2, note=52, velocity=0, time=30),
    Message('note_on', channel=2, note=52, velocity=100, time=0),
    Message('note_on', channel=2, note=52, velocity=0, time=30),
    Message('note_on', channel=2, note=62, velocity=100, time=0),
    Message('note_on', channel=2, note=62, velocity=0, time=30),
    Message('note_on', channel=2, note=64, velocity=100, time=0),
    Message('note_on', channel=2, note=64, velocity=0, time=30),
    Message('note_on', channel=2, note=52, velocity=100, time=0),
    Message('note_on', channel=2, note=52, velocity=0, time=30),
    Message('note_on', channel=2, note=52, velocity=100, time=0),
    Message('note_on', channel=2, note=52, velocity=0, time=30),
    Message('note_on', channel=2, note=52, velocity=100, time=0),
    Message('note_on', channel=2, note=52, velocity=0, time=30),
    Message('note_on', channel=2, note=52, velocity=100, time=0),
    Message('note_on', channel=2, note=52, velocity=0, time=30),
    Message('note_on', channel=2, note=66, velocity=100, time=0),
    Message('note_on', channel=2, note=59, velocity=100, time=0),
    Message('note_on', channel=2, note=59, velocity=0, time=120),
    Message('note_on', channel=2, note=66, velocity=0, time=0),
    Message('note_on', channel=2, note=62, velocity=100, time=0),
    Message('note_on', channel=2, note=62, velocity=0, time=30),
    Message('note_on', channel=2, note=64, velocity=100, time=0),
    Message('note_on', channel=2, note=64, velocity=0, time=30),
    Message('note_on', channel=2, note=52, velocity=100, time=0),
    Message('note_on', channel=2, note=52, velocity=0, time=30),
    Message('note_on', channel=2, note=52, velocity=100, time=0),
    Message('note_on', channel=2, note=52, velocity=0, time=30),
    Message('note_on', channel=2, note=52, velocity=100, time=0),
    Message('note_on', channel=2, note=52, velocity=0, time=30),
    Message('note_on', channel=2, note=52, velocity=100, time=0),
    Message('note_on', channel=2, note=52, velocity=0, time=30),
    Message('note_on', channel=2, note=67, velocity=100, time=0),
    Message('note_on', channel=2, note=67, velocity=0, time=30),
    Message('note_on', channel=2, note=64, velocity=100, time=0),
    Message('note_on', channel=2, note=64, velocity=0, time=30),
    Message('note_on', channel=2, note=52, velocity=100, time=0),
    Message('note_on', channel=2, note=52, velocity=0, time=30),
    Message('note_on', channel=2, note=52, velocity=100, time=0),
    Message('note_on', channel=2, note=52, velocity=0, time=30),
    Message('note_on', channel=2, note=52, velocity=100, time=0),
    Message('note_on', channel=2, note=52, velocity=0, time=30),
    Message('note_on', channel=2, note=52, velocity=100, time=0),
    Message('note_on', channel=2, note=52, velocity=0, time=30),
    Message('note_on', channel=2, note=52, velocity=100, time=0),
    Message('note_on', channel=2, note=52, velocity=0, time=30),
    Message('note_on', channel=2, note=52, velocity=100, time=0),
    Message('note_on', channel=2, note=52, velocity=0, time=30),
    Message('note_on', channel=2, note=52, velocity=100, time=0),
    Message('note_on', channel=2, note=52, velocity=0, time=30),
    Message('note_on', channel=2, note=52, velocity=100, time=0),
    Message('note_on', channel=2, note=52, velocity=0, time=30),
    Message('note_on', channel=2, note=62, velocity=100, time=0),
    Message('note_on', channel=2, note=62, velocity=0, time=30),
    Message('note_on', channel=2, note=64, velocity=100, time=0),
    Message('note_on', channel=2, note=64, velocity=0, time=30),
    Message('note_on', channel=2, note=52, velocity=100, time=0),
    Message('note_on', channel=2, note=52, velocity=0, time=30),
    Message('note_on', channel=2, note=52, velocity=100, time=0),
    Message('note_on', channel=2, note=52, velocity=0, time=30),
    Message('note_on', channel=2, note=52, velocity=100, time=0),
    Message('note_on', channel=2, note=52, velocity=0, time=30),
    Message('note_on', channel=2, note=52, velocity=100, time=0),
    Message('note_on', channel=2, note=52, velocity=0, time=30),
    Message('note_on', channel=2, note=62, velocity=100, time=0),
    Message('note_on', channel=2, note=62, velocity=0, time=30),
    Message('note_on', channel=2, note=64, velocity=100, time=0),
    Message('note_on', channel=2, note=64, velocity=0, time=30),
    Message('note_on', channel=2, note=52, velocity=100, time=0),
    Message('note_on', channel=2, note=52, velocity=0, time=30),
    Message('note_on', channel=2, note=52, velocity=100, time=0),
    Message('note_on', channel=2, note=52, velocity=0, time=30),
    Message('note_on', channel=2, note=52, velocity=100, time=0),
    Message('note_on', channel=2, note=52, velocity=0, time=30),
    Message('note_on', channel=2, note=52, velocity=100, time=0),
    Message('note_on', channel=2, note=52, velocity=0, time=30),
    Message('note_on', channel=2, note=66, velocity=100, time=0),
    Message('note_on', channel=2, note=59, velocity=100, time=0),
    Message('note_on', channel=2, note=59, velocity=0, time=120),
    Message('note_on', channel=2, note=66, velocity=0, time=0),
    Message('note_on', channel=2, note=62, velocity=100, time=0),
    Message('note_on', channel=2, note=62, velocity=0, time=30),
    Message('note_on', channel=2, note=64, velocity=100, time=0),
    Message('note_on', channel=2, note=64, velocity=0, time=30),
    Message('note_on', channel=2, note=52, velocity=100, time=0),
    Message('note_on', channel=2, note=52, velocity=0, time=30),
    Message('note_on', channel=2, note=52, velocity=100, time=0),
    Message('note_on', channel=2, note=52, velocity=0, time=30),
    Message('note_on', channel=2, note=52, velocity=100, time=0),
    Message('note_on', channel=2, note=52, velocity=0, time=30),
    Message('note_on', channel=2, note=52, velocity=100, time=0),
    Message('note_on', channel=2, note=52, velocity=0, time=30),
    Message('note_on', channel=2, note=67, velocity=100, time=0),
    Message('note_on', channel=2, note=67, velocity=0, time=30),
    Message('note_on', channel=2, note=64, velocity=100, time=0),
    Message('note_on', channel=2, note=64, velocity=0, time=30),
    Message('note_on', channel=2, note=52, velocity=100, time=0),
    Message('note_on', channel=2, note=52, velocity=0, time=30),
    Message('note_on', channel=2, note=52, velocity=100, time=0),
    Message('note_on', channel=2, note=52, velocity=0, time=30),
    Message('note_on', channel=2, note=52, velocity=100, time=0),
    Message('note_on', channel=2, note=52, velocity=0, time=30),
    Message('note_on', channel=2, note=52, velocity=100, time=0),
    Message('note_on', channel=2, note=52, velocity=0, time=30),
    Message('note_on', channel=2, note=52, velocity=100, time=0),
    Message('note_on', channel=2, note=52, velocity=0, time=30),
    Message('note_on', channel=2, note=52, velocity=100, time=0),
    Message('note_on', channel=2, note=52, velocity=0, time=30),
    Message('note_on', channel=2, note=52, velocity=100, time=0),
    Message('note_on', channel=2, note=52, velocity=0, time=30),
    Message('note_on', channel=2, note=52, velocity=100, time=0),
    Message('note_on', channel=2, note=52, velocity=0, time=30),
    Message('note_on', channel=2, note=62, velocity=100, time=0),
    Message('note_on', channel=2, note=62, velocity=0, time=30),
    Message('note_on', channel=2, note=64, velocity=100, time=0),
    Message('note_on', channel=2, note=64, velocity=0, time=30),
    Message('note_on', channel=2, note=52, velocity=100, time=0),
    Message('note_on', channel=2, note=52, velocity=0, time=30),
    Message('note_on', channel=2, note=52, velocity=100, time=0),
    Message('note_on', channel=2, note=52, velocity=0, time=30),
    Message('note_on', channel=2, note=52, velocity=100, time=0),
    Message('note_on', channel=2, note=52, velocity=0, time=30),
    Message('note_on', channel=2, note=52, velocity=100, time=0),
    Message('note_on', channel=2, note=52, velocity=0, time=30),
    Message('note_on', channel=2, note=62, velocity=100, time=0),
    Message('note_on', channel=2, note=62, velocity=0, time=30),
    Message('note_on', channel=2, note=64, velocity=100, time=0),
    Message('note_on', channel=2, note=64, velocity=0, time=30),
    Message('note_on', channel=2, note=52, velocity=100, time=0),
    Message('note_on', channel=2, note=52, velocity=0, time=30),
    Message('note_on', channel=2, note=52, velocity=100, time=0),
    Message('note_on', channel=2, note=52, velocity=0, time=30),
    Message('note_on', channel=2, note=52, velocity=100, time=0),
    Message('note_on', channel=2, note=52, velocity=0, time=30),
    Message('note_on', channel=2, note=52, velocity=100, time=0),
    Message('note_on', channel=2, note=52, velocity=0, time=30),
    Message('note_on', channel=2, note=66, velocity=100, time=0),
    Message('note_on', channel=2, note=59, velocity=100, time=0),
    Message('note_on', channel=2, note=59, velocity=0, time=120),
    Message('note_on', channel=2, note=66, velocity=0, time=0),
    Message('note_on', channel=2, note=62, velocity=100, time=0),
    Message('note_on', channel=2, note=62, velocity=0, time=30),
    Message('note_on', channel=2, note=64, velocity=100, time=0),
    Message('note_on', channel=2, note=64, velocity=0, time=30),
    Message('note_on', channel=2, note=52, velocity=100, time=0),
    Message('note_on', channel=2, note=52, velocity=0, time=30),
    Message('note_on', channel=2, note=52, velocity=100, time=0),
    Message('note_on', channel=2, note=52, velocity=0, time=30),
    Message('note_on', channel=2, note=52, velocity=100, time=0),
    Message('note_on', channel=2, note=52, velocity=0, time=30),
    Message('note_on', channel=2, note=52, velocity=100, time=0),
    Message('note_on', channel=2, note=52, velocity=0, time=30),
    Message('note_on', channel=2, note=67, velocity=100, time=0),
    Message('note_on', channel=2, note=67, velocity=0, time=30),
    Message('note_on', channel=2, note=64, velocity=100, time=0),
    Message('note_on', channel=2, note=64, velocity=0, time=30),
    Message('note_on', channel=2, note=52, velocity=100, time=0),
    Message('note_on', channel=2, note=52, velocity=0, time=30),
    Message('note_on', channel=2, note=52, velocity=100, time=0),
    Message('note_on', channel=2, note=52, velocity=0, time=30),
    Message('note_on', channel=2, note=52, velocity=100, time=0),
    Message('note_on', channel=2, note=52, velocity=0, time=30),
    Message('note_on', channel=2, note=52, velocity=100, time=0),
    Message('note_on', channel=2, note=52, velocity=0, time=30),
    Message('note_on', channel=2, note=52, velocity=100, time=0),
    Message('note_on', channel=2, note=52, velocity=0, time=30),
    Message('note_on', channel=2, note=52, velocity=100, time=0),
    Message('note_on', channel=2, note=52, velocity=0, time=30),
    Message('note_on', channel=2, note=52, velocity=100, time=0),
    Message('note_on', channel=2, note=52, velocity=0, time=30),
    Message('note_on', channel=2, note=52, velocity=100, time=0),
    Message('note_on', channel=2, note=52, velocity=0, time=30),
    Message('note_on', channel=2, note=62, velocity=100, time=0),
    Message('note_on', channel=2, note=62, velocity=0, time=30),
    Message('note_on', channel=2, note=64, velocity=100, time=0),
    Message('note_on', channel=2, note=64, velocity=0, time=30),
    Message('note_on', channel=2, note=52, velocity=100, time=0),
    Message('note_on', channel=2, note=52, velocity=0, time=30),
    Message('note_on', channel=2, note=52, velocity=100, time=0),
    Message('note_on', channel=2, note=52, velocity=0, time=30),
    Message('note_on', channel=2, note=52, velocity=100, time=0),
    Message('note_on', channel=2, note=52, velocity=0, time=30),
    Message('note_on', channel=2, note=52, velocity=100, time=0),
    Message('note_on', channel=2, note=52, velocity=0, time=30),
    Message('note_on', channel=2, note=62, velocity=100, time=0),
    Message('note_on', channel=2, note=62, velocity=0, time=30),
    Message('note_on', channel=2, note=64, velocity=100, time=0),
    Message('note_on', channel=2, note=64, velocity=0, time=30),
    Message('note_on', channel=2, note=52, velocity=100, time=0),
    Message('note_on', channel=2, note=52, velocity=0, time=30),
    Message('note_on', channel=2, note=52, velocity=100, time=0),
    Message('note_on', channel=2, note=52, velocity=0, time=30),
    Message('note_on', channel=2, note=52, velocity=100, time=0),
    Message('note_on', channel=2, note=52, velocity=0, time=30),
    Message('note_on', channel=2, note=52, velocity=100, time=0),
    Message('note_on', channel=2, note=52, velocity=0, time=30),
    Message('note_on', channel=2, note=66, velocity=100, time=0),
    Message('note_on', channel=2, note=59, velocity=100, time=0),
    Message('note_on', channel=2, note=59, velocity=0, time=120),
    Message('note_on', channel=2, note=66, velocity=0, time=0),
    Message('note_on', channel=2, note=62, velocity=100, time=0),
    Message('note_on', channel=2, note=62, velocity=0, time=30),
    Message('note_on', channel=2, note=64, velocity=100, time=0),
    Message('note_on', channel=2, note=64, velocity=0, time=30),
    Message('note_on', channel=2, note=52, velocity=100, time=0),
    Message('note_on', channel=2, note=52, velocity=0, time=30),
    Message('note_on', channel=2, note=52, velocity=100, time=0),
    Message('note_on', channel=2, note=52, velocity=0, time=30),
    Message('note_on', channel=2, note=52, velocity=100, time=0),
    Message('note_on', channel=2, note=52, velocity=0, time=30),
    Message('note_on', channel=2, note=52, velocity=100, time=0),
    Message('note_on', channel=2, note=52, velocity=0, time=30),
    Message('note_on', channel=2, note=67, velocity=100, time=0),
    Message('note_on', channel=2, note=67, velocity=0, time=30),
    Message('note_on', channel=2, note=64, velocity=100, time=0),
    Message('note_on', channel=2, note=64, velocity=0, time=30),
    Message('note_on', channel=2, note=52, velocity=100, time=0),
    Message('note_on', channel=2, note=52, velocity=0, time=30),
    Message('note_on', channel=2, note=52, velocity=100, time=0),
    Message('note_on', channel=2, note=52, velocity=0, time=30),
    Message('note_on', channel=2, note=52, velocity=100, time=0),
    Message('note_on', channel=2, note=52, velocity=0, time=30),
    Message('note_on', channel=2, note=52, velocity=100, time=0),
    Message('note_on', channel=2, note=52, velocity=0, time=30),
    Message('note_on', channel=2, note=52, velocity=100, time=0),
    Message('note_on', channel=2, note=52, velocity=0, time=30),
    Message('note_on', channel=2, note=52, velocity=100, time=0),
    Message('note_on', channel=2, note=52, velocity=0, time=30),
    Message('note_on', channel=2, note=52, velocity=100, time=0),
    Message('note_on', channel=2, note=52, velocity=0, time=30),
    Message('note_on', channel=2, note=52, velocity=100, time=0),
    Message('note_on', channel=2, note=52, velocity=0, time=30),
    Message('note_on', channel=2, note=62, velocity=100, time=0),
    Message('note_on', channel=2, note=62, velocity=0, time=30),
    Message('note_on', channel=2, note=64, velocity=100, time=0),
    Message('note_on', channel=2, note=64, velocity=0, time=30),
    Message('note_on', channel=2, note=52, velocity=100, time=0),
    Message('note_on', channel=2, note=52, velocity=0, time=30),
    Message('note_on', channel=2, note=52, velocity=100, time=0),
    Message('note_on', channel=2, note=52, velocity=0, time=30),
    Message('note_on', channel=2, note=52, velocity=100, time=0),
    Message('note_on', channel=2, note=52, velocity=0, time=30),
    Message('note_on', channel=2, note=52, velocity=100, time=0),
    Message('note_on', channel=2, note=52, velocity=0, time=30),
    Message('note_on', channel=2, note=62, velocity=100, time=0),
    Message('note_on', channel=2, note=62, velocity=0, time=30),
    Message('note_on', channel=2, note=64, velocity=100, time=0),
    Message('note_on', channel=2, note=64, velocity=0, time=30),
    Message('note_on', channel=2, note=52, velocity=100, time=0),
    Message('note_on', channel=2, note=52, velocity=0, time=30),
    Message('note_on', channel=2, note=52, velocity=100, time=0),
    Message('note_on', channel=2, note=52, velocity=0, time=30),
    Message('note_on', channel=2, note=52, velocity=100, time=0),
    Message('note_on', channel=2, note=52, velocity=0, time=30),
    Message('note_on', channel=2, note=52, velocity=100, time=0),
    Message('note_on', channel=2, note=52, velocity=0, time=30),
    Message('note_on', channel=2, note=66, velocity=100, time=0),
    Message('note_on', channel=2, note=59, velocity=100, time=0),
    Message('note_on', channel=2, note=59, velocity=0, time=120),
    Message('note_on', channel=2, note=66, velocity=0, time=0),
    Message('note_on', channel=2, note=62, velocity=100, time=0),
    Message('note_on', channel=2, note=62, velocity=0, time=30),
    Message('note_on', channel=2, note=64, velocity=100, time=0),
    Message('note_on', channel=2, note=64, velocity=0, time=30),
    Message('note_on', channel=2, note=52, velocity=100, time=0),
    Message('note_on', channel=2, note=52, velocity=0, time=30),
    Message('note_on', channel=2, note=52, velocity=100, time=0),
    Message('note_on', channel=2, note=52, velocity=0, time=30),
    Message('note_on', channel=2, note=52, velocity=100, time=0),
    Message('note_on', channel=2, note=52, velocity=0, time=30),
    Message('note_on', channel=2, note=52, velocity=100, time=0),
    Message('note_on', channel=2, note=52, velocity=0, time=30),
    Message('note_on', channel=2, note=67, velocity=100, time=0),
    Message('note_on', channel=2, note=67, velocity=0, time=30),
    Message('note_on', channel=2, note=64, velocity=100, time=0),
    Message('note_on', channel=2, note=64, velocity=0, time=30),
    Message('note_on', channel=2, note=52, velocity=100, time=0),
    Message('note_on', channel=2, note=52, velocity=0, time=30),
    Message('note_on', channel=2, note=52, velocity=100, time=0),
    Message('note_on', channel=2, note=52, velocity=0, time=30),
    Message('note_on', channel=2, note=52, velocity=100, time=0),
    Message('note_on', channel=2, note=52, velocity=0, time=30),
    Message('note_on', channel=2, note=52, velocity=100, time=0),
    Message('note_on', channel=2, note=52, velocity=0, time=30),
    Message('note_on', channel=2, note=52, velocity=100, time=0),
    Message('note_on', channel=2, note=52, velocity=0, time=30),
    Message('note_on', channel=2, note=52, velocity=100, time=0),
    Message('note_on', channel=2, note=52, velocity=0, time=30),
    Message('note_on', channel=2, note=52, velocity=100, time=0),
    Message('note_on', channel=2, note=52, velocity=0, time=30),
    Message('note_on', channel=2, note=52, velocity=100, time=0),
    Message('note_on', channel=2, note=52, velocity=0, time=30),
    Message('note_on', channel=2, note=63, velocity=100, time=0),
    Message('note_on', channel=2, note=63, velocity=0, time=80),
    Message('note_on', channel=2, note=66, velocity=100, time=0),
    Message('note_on', channel=2, note=66, velocity=0, time=80),
    Message('note_on', channel=2, note=75, velocity=100, time=0),
    Message('note_on', channel=2, note=75, velocity=0, time=80),
    Message('note_on', channel=2, note=62, velocity=100, time=0),
    Message('note_on', channel=2, note=62, velocity=0, time=80),
    Message('note_on', channel=2, note=65, velocity=100, time=0),
    Message('note_on', channel=2, note=65, velocity=0, time=80),
    Message('note_on', channel=2, note=74, velocity=100, time=0),
    Message('note_on', channel=2, note=74, velocity=0, time=80),
    Message('note_on', channel=2, note=62, velocity=100, time=0),
    Message('note_on', channel=2, note=62, velocity=0, time=30),
    Message('note_on', channel=2, note=64, velocity=100, time=0),
    Message('note_on', channel=2, note=64, velocity=0, time=30),
    Message('note_on', channel=2, note=52, velocity=100, time=0),
    Message('note_on', channel=2, note=52, velocity=0, time=30),
    Message('note_on', channel=2, note=52, velocity=100, time=0),
    Message('note_on', channel=2, note=52, velocity=0, time=30),
    Message('note_on', channel=2, note=52, velocity=100, time=0),
    Message('note_on', channel=2, note=52, velocity=0, time=30),
    Message('note_on', channel=2, note=52, velocity=100, time=0),
    Message('note_on', channel=2, note=52, velocity=0, time=30),
    Message('note_on', channel=2, note=67, velocity=100, time=0),
    Message('note_on', channel=2, note=67, velocity=0, time=30),
    Message('note_on', channel=2, note=64, velocity=100, time=0),
    Message('note_on', channel=2, note=64, velocity=0, time=30),
    Message('note_on', channel=2, note=52, velocity=100, time=0),
    Message('note_on', channel=2, note=52, velocity=0, time=30),
    Message('note_on', channel=2, note=52, velocity=100, time=0),
    Message('note_on', channel=2, note=52, velocity=0, time=30),
    Message('note_on', channel=2, note=52, velocity=100, time=0),
    Message('note_on', channel=2, note=52, velocity=0, time=30),
    Message('note_on', channel=2, note=52, velocity=100, time=0),
    Message('note_on', channel=2, note=52, velocity=0, time=30),
    Message('note_on', channel=2, note=52, velocity=100, time=0),
    Message('note_on', channel=2, note=52, velocity=0, time=30),
    Message('note_on', channel=2, note=52, velocity=100, time=0),
    Message('note_on', channel=2, note=52, velocity=0, time=30),
    Message('note_on', channel=2, note=52, velocity=100, time=0),
    Message('note_on', channel=2, note=52, velocity=0, time=30),
    Message('note_on', channel=2, note=52, velocity=100, time=0),
    Message('note_on', channel=2, note=52, velocity=0, time=30),
    Message('note_on', channel=2, note=62, velocity=100, time=0),
    Message('note_on', channel=2, note=62, velocity=0, time=30),
    Message('note_on', channel=2, note=64, velocity=100, time=0),
    Message('note_on', channel=2, note=64, velocity=0, time=30),
    Message('note_on', channel=2, note=52, velocity=100, time=0),
    Message('note_on', channel=2, note=52, velocity=0, time=30),
    Message('note_on', channel=2, note=52, velocity=100, time=0),
    Message('note_on', channel=2, note=52, velocity=0, time=30),
    Message('note_on', channel=2, note=52, velocity=100, time=0),
    Message('note_on', channel=2, note=52, velocity=0, time=30),
    Message('note_on', channel=2, note=52, velocity=100, time=0),
    Message('note_on', channel=2, note=52, velocity=0, time=30),
    Message('note_on', channel=2, note=62, velocity=100, time=0),
    Message('note_on', channel=2, note=62, velocity=0, time=30),
    Message('note_on', channel=2, note=64, velocity=100, time=0),
    Message('note_on', channel=2, note=64, velocity=0, time=30),
    Message('note_on', channel=2, note=52, velocity=100, time=0),
    Message('note_on', channel=2, note=52, velocity=0, time=30),
    Message('note_on', channel=2, note=52, velocity=100, time=0),
    Message('note_on', channel=2, note=52, velocity=0, time=30),
    Message('note_on', channel=2, note=52, velocity=100, time=0),
    Message('note_on', channel=2, note=52, velocity=0, time=30),
    Message('note_on', channel=2, note=52, velocity=100, time=0),
    Message('note_on', channel=2, note=52, velocity=0, time=30),
    Message('note_on', channel=2, note=66, velocity=100, time=0),
    Message('note_on', channel=2, note=59, velocity=100, time=0),
    Message('note_on', channel=2, note=59, velocity=0, time=120),
    Message('note_on', channel=2, note=66, velocity=0, time=0),
    Message('note_on', channel=2, note=62, velocity=100, time=0),
    Message('note_on', channel=2, note=62, velocity=0, time=30),
    Message('note_on', channel=2, note=64, velocity=100, time=0),
    Message('note_on', channel=2, note=64, velocity=0, time=30),
    Message('note_on', channel=2, note=52, velocity=100, time=0),
    Message('note_on', channel=2, note=52, velocity=0, time=30),
    Message('note_on', channel=2, note=52, velocity=100, time=0),
    Message('note_on', channel=2, note=52, velocity=0, time=30),
    Message('note_on', channel=2, note=52, velocity=100, time=0),
    Message('note_on', channel=2, note=52, velocity=0, time=30),
    Message('note_on', channel=2, note=52, velocity=100, time=0),
    Message('note_on', channel=2, note=52, velocity=0, time=30),
    Message('note_on', channel=2, note=67, velocity=100, time=0),
    Message('note_on', channel=2, note=67, velocity=0, time=30),
    Message('note_on', channel=2, note=64, velocity=100, time=0),
    Message('note_on', channel=2, note=64, velocity=0, time=30),
    Message('note_on', channel=2, note=52, velocity=100, time=0),
    Message('note_on', channel=2, note=52, velocity=0, time=30),
    Message('note_on', channel=2, note=52, velocity=100, time=0),
    Message('note_on', channel=2, note=52, velocity=0, time=30),
    Message('note_on', channel=2, note=52, velocity=100, time=0),
    Message('note_on', channel=2, note=52, velocity=0, time=30),
    Message('note_on', channel=2, note=52, velocity=100, time=0),
    Message('note_on', channel=2, note=52, velocity=0, time=30),
    Message('note_on', channel=2, note=52, velocity=100, time=0),
    Message('note_on', channel=2, note=52, velocity=0, time=30),
    Message('note_on', channel=2, note=52, velocity=100, time=0),
    Message('note_on', channel=2, note=52, velocity=0, time=30),
    Message('note_on', channel=2, note=52, velocity=100, time=0),
    Message('note_on', channel=2, note=52, velocity=0, time=30),
    Message('note_on', channel=2, note=52, velocity=100, time=0),
    Message('note_on', channel=2, note=52, velocity=0, time=30),
    Message('note_on', channel=2, note=62, velocity=100, time=0),
    Message('note_on', channel=2, note=62, velocity=0, time=30),
    Message('note_on', channel=2, note=64, velocity=100, time=0),
    Message('note_on', channel=2, note=64, velocity=0, time=30),
    Message('note_on', channel=2, note=52, velocity=100, time=0),
    Message('note_on', channel=2, note=52, velocity=0, time=30),
    Message('note_on', channel=2, note=52, velocity=100, time=0),
    Message('note_on', channel=2, note=52, velocity=0, time=30),
    Message('note_on', channel=2, note=52, velocity=100, time=0),
    Message('note_on', channel=2, note=52, velocity=0, time=30),
    Message('note_on', channel=2, note=52, velocity=100, time=0),
    Message('note_on', channel=2, note=52, velocity=0, time=30),
    Message('note_on', channel=2, note=62, velocity=100, time=0),
    Message('note_on', channel=2, note=62, velocity=0, time=30),
    Message('note_on', channel=2, note=64, velocity=100, time=0),
    Message('note_on', channel=2, note=64, velocity=0, time=30),
    Message('note_on', channel=2, note=52, velocity=100, time=0),
    Message('note_on', channel=2, note=52, velocity=0, time=30),
    Message('note_on', channel=2, note=52, velocity=100, time=0),
    Message('note_on', channel=2, note=52, velocity=0, time=30),
    Message('note_on', channel=2, note=52, velocity=100, time=0),
    Message('note_on', channel=2, note=52, velocity=0, time=30),
    Message('note_on', channel=2, note=52, velocity=100, time=0),
    Message('note_on', channel=2, note=52, velocity=0, time=30),
    Message('note_on', channel=2, note=66, velocity=100, time=0),
    Message('note_on', channel=2, note=59, velocity=100, time=0),
    Message('note_on', channel=2, note=59, velocity=0, time=120),
    Message('note_on', channel=2, note=66, velocity=0, time=0),
    Message('note_on', channel=2, note=62, velocity=100, time=0),
    Message('note_on', channel=2, note=62, velocity=0, time=30),
    Message('note_on', channel=2, note=64, velocity=100, time=0),
    Message('note_on', channel=2, note=64, velocity=0, time=30),
    Message('note_on', channel=2, note=52, velocity=100, time=0),
    Message('note_on', channel=2, note=52, velocity=0, time=30),
    Message('note_on', channel=2, note=52, velocity=100, time=0),
    Message('note_on', channel=2, note=52, velocity=0, time=30),
    Message('note_on', channel=2, note=52, velocity=100, time=0),
    Message('note_on', channel=2, note=52, velocity=0, time=30),
    Message('note_on', channel=2, note=52, velocity=100, time=0),
    Message('note_on', channel=2, note=52, velocity=0, time=30),
    Message('note_on', channel=2, note=67, velocity=100, time=0),
    Message('note_on', channel=2, note=67, velocity=0, time=30),
    Message('note_on', channel=2, note=64, velocity=100, time=0),
    Message('note_on', channel=2, note=64, velocity=0, time=30),
    Message('note_on', channel=2, note=52, velocity=100, time=0),
    Message('note_on', channel=2, note=52, velocity=0, time=30),
    Message('note_on', channel=2, note=52, velocity=100, time=0),
    Message('note_on', channel=2, note=52, velocity=0, time=30),
    Message('note_on', channel=2, note=52, velocity=100, time=0),
    Message('note_on', channel=2, note=52, velocity=0, time=30),
    Message('note_on', channel=2, note=52, velocity=100, time=0),
    Message('note_on', channel=2, note=52, velocity=0, time=30),
    Message('note_on', channel=2, note=52, velocity=100, time=0),
    Message('note_on', channel=2, note=52, velocity=0, time=30),
    Message('note_on', channel=2, note=52, velocity=100, time=0),
    Message('note_on', channel=2, note=52, velocity=0, time=30),
    Message('note_on', channel=2, note=52, velocity=100, time=0),
    Message('note_on', channel=2, note=52, velocity=0, time=30),
    Message('note_on', channel=2, note=52, velocity=100, time=0),
    Message('note_on', channel=2, note=52, velocity=0, time=30),
    Message('note_on', channel=2, note=62, velocity=100, time=0),
    Message('note_on', channel=2, note=62, velocity=0, time=30),
    Message('note_on', channel=2, note=64, velocity=100, time=0),
    Message('note_on', channel=2, note=64, velocity=0, time=30),
    Message('note_on', channel=2, note=52, velocity=100, time=0),
    Message('note_on', channel=2, note=52, velocity=0, time=30),
    Message('note_on', channel=2, note=52, velocity=100, time=0),
    Message('note_on', channel=2, note=52, velocity=0, time=30),
    Message('note_on', channel=2, note=52, velocity=100, time=0),
    Message('note_on', channel=2, note=52, velocity=0, time=30),
    Message('note_on', channel=2, note=52, velocity=100, time=0),
    Message('note_on', channel=2, note=52, velocity=0, time=30),
    Message('note_on', channel=2, note=67, velocity=100, time=0),
    Message('note_on', channel=2, note=67, velocity=0, time=30),
    Message('note_on', channel=2, note=64, velocity=100, time=0),
    Message('note_on', channel=2, note=64, velocity=0, time=30),
    Message('note_on', channel=2, note=52, velocity=100, time=0),
    Message('note_on', channel=2, note=52, velocity=0, time=30),
    Message('note_on', channel=2, note=52, velocity=100, time=0),
    Message('note_on', channel=2, note=52, velocity=0, time=30),
    Message('note_on', channel=2, note=52, velocity=100, time=0),
    Message('note_on', channel=2, note=52, velocity=0, time=30),
    Message('note_on', channel=2, note=52, velocity=100, time=0),
    Message('note_on', channel=2, note=52, velocity=0, time=30),
    Message('note_on', channel=2, note=52, velocity=100, time=0),
    Message('note_on', channel=2, note=52, velocity=0, time=30),
    Message('note_on', channel=2, note=52, velocity=100, time=0),
    Message('note_on', channel=2, note=52, velocity=0, time=30),
    Message('note_on', channel=2, note=52, velocity=100, time=0),
    Message('note_on', channel=2, note=52, velocity=0, time=30),
    Message('note_on', channel=2, note=52, velocity=100, time=0),
    Message('note_on', channel=2, note=52, velocity=0, time=30),
    Message('note_on', channel=2, note=62, velocity=100, time=0),
    Message('note_on', channel=2, note=62, velocity=0, time=30),
    Message('note_on', channel=2, note=64, velocity=100, time=0),
    Message('note_on', channel=2, note=64, velocity=0, time=30),
    Message('note_on', channel=2, note=52, velocity=100, time=0),
    Message('note_on', channel=2, note=52, velocity=0, time=30),
    Message('note_on', channel=2, note=52, velocity=100, time=0),
    Message('note_on', channel=2, note=52, velocity=0, time=30),
    Message('note_on', channel=2, note=52, velocity=100, time=0),
    Message('note_on', channel=2, note=52, velocity=0, time=30),
    Message('note_on', channel=2, note=52, velocity=100, time=0),
    Message('note_on', channel=2, note=52, velocity=0, time=30),
    Message('note_on', channel=2, note=67, velocity=100, time=0),
    Message('note_on', channel=2, note=67, velocity=0, time=30),
    Message('note_on', channel=2, note=64, velocity=100, time=0),
    Message('note_on', channel=2, note=64, velocity=0, time=30),
    Message('note_on', channel=2, note=52, velocity=100, time=0),
    Message('note_on', channel=2, note=52, velocity=0, time=30),
    Message('note_on', channel=2, note=52, velocity=100, time=0),
    Message('note_on', channel=2, note=52, velocity=0, time=30),
    Message('note_on', channel=2, note=52, velocity=100, time=0),
    Message('note_on', channel=2, note=52, velocity=0, time=30),
    Message('note_on', channel=2, note=52, velocity=100, time=0),
    Message('note_on', channel=2, note=52, velocity=0, time=30),
    Message('note_on', channel=2, note=52, velocity=100, time=0),
    Message('note_on', channel=2, note=52, velocity=0, time=30),
    Message('note_on', channel=2, note=52, velocity=100, time=0),
    Message('note_on', channel=2, note=52, velocity=0, time=30),
    Message('note_on', channel=2, note=52, velocity=100, time=0),
    Message('note_on', channel=2, note=52, velocity=0, time=30),
    Message('note_on', channel=2, note=52, velocity=100, time=0),
    Message('note_on', channel=2, note=52, velocity=0, time=30),
    Message('note_on', channel=2, note=62, velocity=100, time=0),
    Message('note_on', channel=2, note=62, velocity=0, time=30),
    Message('note_on', channel=2, note=64, velocity=100, time=0),
    Message('note_on', channel=2, note=64, velocity=0, time=30),
    Message('note_on', channel=2, note=52, velocity=100, time=0),
    Message('note_on', channel=2, note=52, velocity=0, time=30),
    Message('note_on', channel=2, note=52, velocity=100, time=0),
    Message('note_on', channel=2, note=52, velocity=0, time=30),
    Message('note_on', channel=2, note=52, velocity=100, time=0),
    Message('note_on', channel=2, note=52, velocity=0, time=30),
    Message('note_on', channel=2, note=52, velocity=100, time=0),
    Message('note_on', channel=2, note=52, velocity=0, time=30),
    Message('note_on', channel=2, note=67, velocity=100, time=0),
    Message('note_on', channel=2, note=67, velocity=0, time=30),
    Message('note_on', channel=2, note=64, velocity=100, time=0),
    Message('note_on', channel=2, note=64, velocity=0, time=30),
    Message('note_on', channel=2, note=52, velocity=100, time=0),
    Message('note_on', channel=2, note=52, velocity=0, time=30),
    Message('note_on', channel=2, note=52, velocity=100, time=0),
    Message('note_on', channel=2, note=52, velocity=0, time=30),
    Message('note_on', channel=2, note=52, velocity=100, time=0),
    Message('note_on', channel=2, note=52, velocity=0, time=30),
    Message('note_on', channel=2, note=52, velocity=100, time=0),
    Message('note_on', channel=2, note=52, velocity=0, time=30),
    Message('note_on', channel=2, note=55, velocity=100, time=0),
    Message('note_on', channel=2, note=62, velocity=100, time=0),
    Message('note_on', channel=2, note=62, velocity=0, time=60),
    Message('note_on', channel=2, note=55, velocity=0, time=0),
    Message('note_on', channel=2, note=52, velocity=100, time=0),
    Message('note_on', channel=2, note=52, velocity=0, time=60),
    Message('note_on', channel=2, note=54, velocity=100, time=0),
    Message('note_on', channel=2, note=60, velocity=100, time=0),
    Message('note_on', channel=2, note=60, velocity=0, time=60),
    Message('note_on', channel=2, note=54, velocity=0, time=0),
    Message('note_on', channel=2, note=55, velocity=100, time=0),
    Message('note_on', channel=2, note=62, velocity=100, time=0),
    Message('note_on', channel=2, note=62, velocity=0, time=60),
    Message('note_on', channel=2, note=55, velocity=0, time=0),
    Message('note_on', channel=2, note=52, velocity=100, time=0),
    Message('note_on', channel=2, note=59, velocity=100, time=0),
    Message('note_on', channel=2, note=59, velocity=0, time=60),
    Message('note_on', channel=2, note=52, velocity=0, time=0),
    Message('note_on', channel=2, note=54, velocity=100, time=0),
    Message('note_on', channel=2, note=60, velocity=100, time=0),
    Message('note_on', channel=2, note=60, velocity=0, time=60),
    Message('note_on', channel=2, note=54, velocity=0, time=0),
    Message('note_on', channel=2, note=52, velocity=100, time=0),
    Message('note_on', channel=2, note=52, velocity=0, time=60),
    Message('note_on', channel=2, note=52, velocity=100, time=0),
    Message('note_on', channel=2, note=52, velocity=0, time=60),
    Message('note_on', channel=2, note=60, velocity=100, time=0),
    Message('note_on', channel=2, note=54, velocity=100, time=0),
    Message('note_on', channel=2, note=54, velocity=0, time=60),
    Message('note_on', channel=2, note=60, velocity=0, time=0),
    Message('note_on', channel=2, note=62, velocity=100, time=0),
    Message('note_on', channel=2, note=55, velocity=100, time=0),
    Message('note_on', channel=2, note=55, velocity=0, time=60),
    Message('note_on', channel=2, note=62, velocity=0, time=0),
    Message('note_on', channel=2, note=52, velocity=100, time=0),
    Message('note_on', channel=2, note=52, velocity=0, time=60),
    Message('note_on', channel=2, note=52, velocity=100, time=0),
    Message('note_on', channel=2, note=52, velocity=0, time=60),
    Message('note_on', channel=2, note=55, velocity=100, time=0),
    Message('note_on', channel=2, note=62, velocity=100, time=0),
    Message('note_on', channel=2, note=62, velocity=0, time=60),
    Message('note_on', channel=2, note=55, velocity=0, time=0),
    Message('note_on', channel=2, note=54, velocity=100, time=0),
    Message('note_on', channel=2, note=61, velocity=100, time=0),
    Message('note_on', channel=2, note=61, velocity=0, time=60),
    Message('note_on', channel=2, note=54, velocity=0, time=0),
    Message('note_on', channel=2, note=52, velocity=100, time=0),
    Message('note_on', channel=2, note=52, velocity=0, time=60),
    Message('note_on', channel=2, note=52, velocity=100, time=0),
    Message('note_on', channel=2, note=52, velocity=0, time=60),
    Message('note_on', channel=2, note=55, velocity=100, time=0),
    Message('note_on', channel=2, note=62, velocity=100, time=0),
    Message('note_on', channel=2, note=62, velocity=0, time=60),
    Message('note_on', channel=2, note=55, velocity=0, time=0),
    Message('note_on', channel=2, note=52, velocity=100, time=0),
    Message('note_on', channel=2, note=52, velocity=0, time=60),
    Message('note_on', channel=2, note=54, velocity=100, time=0),
    Message('note_on', channel=2, note=60, velocity=100, time=0),
    Message('note_on', channel=2, note=60, velocity=0, time=60),
    Message('note_on', channel=2, note=54, velocity=0, time=0),
    Message('note_on', channel=2, note=55, velocity=100, time=0),
    Message('note_on', channel=2, note=62, velocity=100, time=0),
    Message('note_on', channel=2, note=62, velocity=0, time=60),
    Message('note_on', channel=2, note=55, velocity=0, time=0),
    Message('note_on', channel=2, note=52, velocity=100, time=0),
    Message('note_on', channel=2, note=59, velocity=100, time=0),
    Message('note_on', channel=2, note=59, velocity=0, time=60),
    Message('note_on', channel=2, note=52, velocity=0, time=0),
    Message('note_on', channel=2, note=54, velocity=100, time=0),
    Message('note_on', channel=2, note=60, velocity=100, time=0),
    Message('note_on', channel=2, note=60, velocity=0, time=60),
    Message('note_on', channel=2, note=54, velocity=0, time=0),
    Message('note_on', channel=2, note=52, velocity=100, time=0),
    Message('note_on', channel=2, note=52, velocity=0, time=60),
    Message('note_on', channel=2, note=52, velocity=100, time=0),
    Message('note_on', channel=2, note=52, velocity=0, time=60),
    Message('note_on', channel=2, note=60, velocity=100, time=0),
    Message('note_on', channel=2, note=54, velocity=100, time=0),
    Message('note_on', channel=2, note=54, velocity=0, time=60),
    Message('note_on', channel=2, note=60, velocity=0, time=0),
    Message('note_on', channel=2, note=62, velocity=100, time=0),
    Message('note_on', channel=2, note=55, velocity=100, time=0),
    Message('note_on', channel=2, note=55, velocity=0, time=60),
    Message('note_on', channel=2, note=62, velocity=0, time=0),
    Message('note_on', channel=2, note=52, velocity=100, time=0),
    Message('note_on', channel=2, note=52, velocity=0, time=60),
    Message('note_on', channel=2, note=52, velocity=100, time=0),
    Message('note_on', channel=2, note=52, velocity=0, time=60),
    Message('note_on', channel=2, note=55, velocity=100, time=0),
    Message('note_on', channel=2, note=62, velocity=100, time=0),
    Message('note_on', channel=2, note=62, velocity=0, time=60),
    Message('note_on', channel=2, note=55, velocity=0, time=0),
    Message('note_on', channel=2, note=54, velocity=100, time=0),
    Message('note_on', channel=2, note=61, velocity=100, time=0),
    Message('note_on', channel=2, note=61, velocity=0, time=60),
    Message('note_on', channel=2, note=54, velocity=0, time=0),
    Message('note_on', channel=2, note=52, velocity=100, time=0),
    Message('note_on', channel=2, note=52, velocity=0, time=60),
    Message('note_on', channel=2, note=52, velocity=100, time=0),
    Message('note_on', channel=2, note=52, velocity=0, time=60),
    Message('note_on', channel=2, note=55, velocity=100, time=0),
    Message('note_on', channel=2, note=62, velocity=100, time=0),
    Message('note_on', channel=2, note=62, velocity=0, time=60),
    Message('note_on', channel=2, note=55, velocity=0, time=0),
    Message('note_on', channel=2, note=52, velocity=100, time=0),
    Message('note_on', channel=2, note=52, velocity=0, time=60),
    Message('note_on', channel=2, note=54, velocity=100, time=0),
    Message('note_on', channel=2, note=60, velocity=100, time=0),
    Message('note_on', channel=2, note=60, velocity=0, time=60),
    Message('note_on', channel=2, note=54, velocity=0, time=0),
    Message('note_on', channel=2, note=55, velocity=100, time=0),
    Message('note_on', channel=2, note=62, velocity=100, time=0),
    Message('note_on', channel=2, note=62, velocity=0, time=60),
    Message('note_on', channel=2, note=55, velocity=0, time=0),
    Message('note_on', channel=2, note=52, velocity=100, time=0),
    Message('note_on', channel=2, note=59, velocity=100, time=0),
    Message('note_on', channel=2, note=59, velocity=0, time=60),
    Message('note_on', channel=2, note=52, velocity=0, time=0),
    Message('note_on', channel=2, note=54, velocity=100, time=0),
    Message('note_on', channel=2, note=60, velocity=100, time=0),
    Message('note_on', channel=2, note=60, velocity=0, time=60),
    Message('note_on', channel=2, note=54, velocity=0, time=0),
    Message('note_on', channel=2, note=52, velocity=100, time=0),
    Message('note_on', channel=2, note=52, velocity=0, time=60),
    Message('note_on', channel=2, note=52, velocity=100, time=0),
    Message('note_on', channel=2, note=52, velocity=0, time=60),
    Message('note_on', channel=2, note=60, velocity=100, time=0),
    Message('note_on', channel=2, note=54, velocity=100, time=0),
    Message('note_on', channel=2, note=54, velocity=0, time=60),
    Message('note_on', channel=2, note=60, velocity=0, time=0),
    Message('note_on', channel=2, note=62, velocity=100, time=0),
    Message('note_on', channel=2, note=55, velocity=100, time=0),
    Message('note_on', channel=2, note=55, velocity=0, time=60),
    Message('note_on', channel=2, note=62, velocity=0, time=0),
    Message('note_on', channel=2, note=52, velocity=100, time=0),
    Message('note_on', channel=2, note=52, velocity=0, time=60),
    Message('note_on', channel=2, note=52, velocity=100, time=0),
    Message('note_on', channel=2, note=52, velocity=0, time=60),
    Message('note_on', channel=2, note=55, velocity=100, time=0),
    Message('note_on', channel=2, note=62, velocity=100, time=0),
    Message('note_on', channel=2, note=62, velocity=0, time=60),
    Message('note_on', channel=2, note=55, velocity=0, time=0),
    Message('note_on', channel=2, note=54, velocity=100, time=0),
    Message('note_on', channel=2, note=61, velocity=100, time=0),
    Message('note_on', channel=2, note=61, velocity=0, time=60),
    Message('note_on', channel=2, note=54, velocity=0, time=0),
    Message('note_on', channel=2, note=52, velocity=100, time=0),
    Message('note_on', channel=2, note=52, velocity=0, time=60),
    Message('note_on', channel=2, note=52, velocity=100, time=0),
    Message('note_on', channel=2, note=52, velocity=0, time=60),
    Message('note_on', channel=2, note=55, velocity=100, time=0),
    Message('note_on', channel=2, note=62, velocity=100, time=0),
    Message('note_on', channel=2, note=62, velocity=0, time=60),
    Message('note_on', channel=2, note=55, velocity=0, time=0),
    Message('note_on', channel=2, note=62, velocity=100, time=0),
    Message('note_on', channel=2, note=62, velocity=0, time=30),
    Message('note_on', channel=2, note=63, velocity=100, time=0),
    Message('note_on', channel=2, note=63, velocity=0, time=30),
    Message('note_on', channel=2, note=64, velocity=100, time=0),
    Message('note_on', channel=2, note=64, velocity=0, time=60),
    Message('note_on', channel=2, note=59, velocity=100, time=0),
    Message('note_on', channel=2, note=59, velocity=0, time=30),
    Message('note_on', channel=2, note=59, velocity=100, time=0),
    Message('note_on', channel=2, note=59, velocity=0, time=30),
    Message('note_on', channel=2, note=59, velocity=100, time=0),
    Message('note_on', channel=2, note=52, velocity=100, time=0),
    Message('note_on', channel=2, note=52, velocity=0, time=120),
    Message('note_on', channel=2, note=59, velocity=0, time=0),
    MetaMessage('end_of_track', time=0)]),
  MidiTrack([
    MetaMessage('midi_port', port=0, time=0),
    MetaMessage('track_name', name='Acc Guitar', time=0),
    Message('program_change', channel=3, program=25, time=0),
    Message('control_change', channel=3, control=7, value=127, time=0),
    Message('note_on', channel=3, note=75, velocity=127, time=45360),
    Message('note_on', channel=3, note=75, velocity=0, time=30),
    Message('note_on', channel=3, note=76, velocity=127, time=0),
    Message('note_on', channel=3, note=76, velocity=0, time=30),
    Message('note_on', channel=3, note=83, velocity=127, time=0),
    Message('note_on', channel=3, note=83, velocity=0, time=240),
    Message('note_on', channel=3, note=81, velocity=127, time=0),
    Message('note_on', channel=3, note=81, velocity=0, time=60),
    Message('note_on', channel=3, note=83, velocity=127, time=0),
    Message('note_on', channel=3, note=83, velocity=0, time=60),
    Message('note_on', channel=3, note=84, velocity=127, time=0),
    Message('note_on', channel=3, note=84, velocity=0, time=60),
    Message('note_on', channel=3, note=87, velocity=127, time=0),
    Message('note_on', channel=3, note=87, velocity=0, time=60),
    Message('note_on', channel=3, note=88, velocity=127, time=0),
    Message('note_on', channel=3, note=88, velocity=0, time=30),
    Message('note_on', channel=3, note=87, velocity=127, time=0),
    Message('note_on', channel=3, note=87, velocity=0, time=30),
    Message('note_on', channel=3, note=84, velocity=127, time=0),
    Message('note_on', channel=3, note=84, velocity=0, time=30),
    Message('note_on', channel=3, note=87, velocity=127, time=0),
    Message('note_on', channel=3, note=87, velocity=0, time=30),
    Message('note_on', channel=3, note=88, velocity=127, time=0),
    Message('note_on', channel=3, note=88, velocity=0, time=20),
    Message('note_on', channel=3, note=84, velocity=127, time=0),
    Message('note_on', channel=3, note=84, velocity=0, time=20),
    Message('note_on', channel=3, note=88, velocity=127, time=0),
    Message('note_on', channel=3, note=88, velocity=0, time=20),
    Message('note_on', channel=3, note=86, velocity=127, time=0),
    Message('note_on', channel=3, note=86, velocity=0, time=20),
    Message('note_on', channel=3, note=83, velocity=127, time=0),
    Message('note_on', channel=3, note=83, velocity=0, time=20),
    Message('note_on', channel=3, note=86, velocity=127, time=0),
    Message('note_on', channel=3, note=86, velocity=0, time=20),
    Message('note_on', channel=3, note=84, velocity=127, time=0),
    Message('note_on', channel=3, note=84, velocity=0, time=20),
    Message('note_on', channel=3, note=81, velocity=127, time=0),
    Message('note_on', channel=3, note=81, velocity=0, time=20),
    Message('note_on', channel=3, note=84, velocity=127, time=0),
    Message('note_on', channel=3, note=84, velocity=0, time=20),
    Message('note_on', channel=3, note=83, velocity=127, time=0),
    Message('note_on', channel=3, note=83, velocity=0, time=20),
    Message('note_on', channel=3, note=80, velocity=127, time=0),
    Message('note_on', channel=3, note=80, velocity=0, time=20),
    Message('note_on', channel=3, note=83, velocity=127, time=0),
    Message('note_on', channel=3, note=83, velocity=0, time=20),
    Message('note_on', channel=3, note=81, velocity=127, time=0),
    Message('note_on', channel=3, note=81, velocity=0, time=20),
    Message('note_on', channel=3, note=78, velocity=127, time=0),
    Message('note_on', channel=3, note=78, velocity=0, time=20),
    Message('note_on', channel=3, note=81, velocity=127, time=0),
    Message('note_on', channel=3, note=81, velocity=0, time=20),
    Message('note_on', channel=3, note=79, velocity=127, time=0),
    Message('note_on', channel=3, note=79, velocity=0, time=20),
    Message('note_on', channel=3, note=76, velocity=127, time=0),
    Message('note_on', channel=3, note=76, velocity=0, time=20),
    Message('note_on', channel=3, note=79, velocity=127, time=0),
    Message('note_on', channel=3, note=79, velocity=0, time=20),
    Message('note_on', channel=3, note=81, velocity=127, time=0),
    Message('note_on', channel=3, note=81, velocity=0, time=30),
    Message('note_on', channel=3, note=77, velocity=127, time=0),
    Message('note_on', channel=3, note=77, velocity=0, time=30),
    Message('note_on', channel=3, note=81, velocity=127, time=0),
    Message('note_on', channel=3, note=81, velocity=0, time=30),
    Message('note_on', channel=3, note=83, velocity=127, time=0),
    Message('note_on', channel=3, note=83, velocity=0, time=30),
    Message('note_on', channel=3, note=86, velocity=127, time=0),
    Message('note_on', channel=3, note=86, velocity=0, time=60),
    Message('note_on', channel=3, note=83, velocity=127, time=0),
    Message('note_on', channel=3, note=83, velocity=0, time=60),
    Message('note_on', channel=3, note=80, velocity=127, time=0),
    Message('note_on', channel=3, note=80, velocity=0, time=20),
    Message('note_on', channel=3, note=81, velocity=127, time=0),
    Message('note_on', channel=3, note=81, velocity=0, time=20),
    Message('note_on', channel=3, note=80, velocity=127, time=0),
    Message('note_on', channel=3, note=80, velocity=0, time=20),
    Message('note_on', channel=3, note=76, velocity=127, time=0),
    Message('note_on', channel=3, note=76, velocity=0, time=60),
    Message('note_on', channel=3, note=73, velocity=127, time=0),
    Message('note_on', channel=3, note=73, velocity=0, time=60),
    Message('note_on', channel=3, note=75, velocity=127, time=0),
    Message('note_on', channel=3, note=75, velocity=0, time=60),
    Message('note_on', channel=3, note=76, velocity=127, time=0),
    Message('note_on', channel=3, note=76, velocity=0, time=60),
    Message('note_on', channel=3, note=73, velocity=127, time=0),
    Message('note_on', channel=3, note=73, velocity=0, time=30),
    Message('note_on', channel=3, note=75, velocity=127, time=0),
    Message('note_on', channel=3, note=75, velocity=0, time=30),
    Message('note_on', channel=3, note=76, velocity=127, time=0),
    Message('note_on', channel=3, note=76, velocity=0, time=30),
    Message('note_on', channel=3, note=75, velocity=127, time=0),
    Message('note_on', channel=3, note=75, velocity=0, time=30),
    Message('note_on', channel=3, note=74, velocity=127, time=0),
    Message('note_on', channel=3, note=74, velocity=0, time=30),
    Message('note_on', channel=3, note=73, velocity=127, time=0),
    Message('note_on', channel=3, note=73, velocity=0, time=30),
    Message('note_on', channel=3, note=72, velocity=127, time=0),
    Message('note_on', channel=3, note=72, velocity=0, time=30),
    Message('note_on', channel=3, note=71, velocity=127, time=0),
    Message('note_on', channel=3, note=71, velocity=0, time=30),
    Message('note_on', channel=3, note=69, velocity=127, time=0),
    Message('note_on', channel=3, note=69, velocity=0, time=30),
    Message('note_on', channel=3, note=72, velocity=127, time=0),
    Message('note_on', channel=3, note=72, velocity=0, time=30),
    Message('note_on', channel=3, note=71, velocity=127, time=0),
    Message('note_on', channel=3, note=71, velocity=0, time=30),
    Message('note_on', channel=3, note=70, velocity=127, time=0),
    Message('note_on', channel=3, note=70, velocity=0, time=30),
    Message('note_on', channel=3, note=69, velocity=127, time=0),
    Message('note_on', channel=3, note=69, velocity=0, time=30),
    Message('note_on', channel=3, note=68, velocity=127, time=0),
    Message('note_on', channel=3, note=68, velocity=0, time=30),
    Message('note_on', channel=3, note=67, velocity=127, time=0),
    Message('note_on', channel=3, note=67, velocity=0, time=60),
    Message('note_on', channel=3, note=66, velocity=127, time=0),
    Message('control_change', channel=3, control=7, value=127, time=25),
    Message('control_change', channel=3, control=10, value=64, time=0),
    Message('note_on', channel=3, note=66, velocity=0, time=35),
    Message('note_on', channel=3, note=65, velocity=127, time=0),
    Message('note_on', channel=3, note=65, velocity=0, time=60),
    Message('note_on', channel=3, note=64, velocity=127, time=0),
    Message('note_on', channel=3, note=64, velocity=0, time=60),
    Message('note_on', channel=3, note=52, velocity=127, time=0),
    Message('note_on', channel=3, note=59, velocity=127, time=2),
    Message('note_on', channel=3, note=64, velocity=127, time=1),
    Message('note_on', channel=3, note=71, velocity=127, time=1),
    Message('note_on', channel=3, note=76, velocity=127, time=2),
    Message('note_on', channel=3, note=52, velocity=0, time=474),
    Message('note_on', channel=3, note=59, velocity=0, time=2),
    Message('note_on', channel=3, note=64, velocity=0, time=1),
    Message('note_on', channel=3, note=71, velocity=0, time=1),
    Message('note_on', channel=3, note=76, velocity=0, time=2),
    MetaMessage('end_of_track', time=0)]),
  MidiTrack([
    MetaMessage('midi_port', port=0, time=0),
    MetaMessage('track_name', name='Bass', time=0),
    Message('program_change', channel=4, program=33, time=0),
    Message('control_change', channel=4, control=7, value=80, time=0),
    Message('note_on', channel=4, note=38, velocity=100, time=1920),
    Message('note_on', channel=4, note=38, velocity=0, time=30),
    Message('note_on', channel=4, note=39, velocity=100, time=0),
    Message('note_on', channel=4, note=39, velocity=0, time=30),
    Message('note_on', channel=4, note=40, velocity=100, time=0),
    Message('note_on', channel=4, note=40, velocity=0, time=60),
    Message('note_on', channel=4, note=33, velocity=100, time=0),
    Message('note_on', channel=4, note=33, velocity=0, time=30),
    Message('note_on', channel=4, note=34, velocity=100, time=0),
    Message('note_on', channel=4, note=34, velocity=0, time=30),
    Message('note_on', channel=4, note=35, velocity=100, time=0),
    Message('note_on', channel=4, note=35, velocity=0, time=60),
    Message('note_on', channel=4, note=35, velocity=100, time=0),
    Message('note_on', channel=4, note=35, velocity=0, time=30),
    Message('note_on', channel=4, note=34, velocity=100, time=0),
    Message('note_on', channel=4, note=34, velocity=0, time=30),
    Message('note_on', channel=4, note=33, velocity=100, time=0),
    Message('note_on', channel=4, note=33, velocity=0, time=60),
    Message('note_on', channel=4, note=33, velocity=100, time=0),
    Message('note_on', channel=4, note=33, velocity=0, time=30),
    Message('note_on', channel=4, note=32, velocity=100, time=0),
    Message('note_on', channel=4, note=32, velocity=0, time=30),
    Message('note_on', channel=4, note=31, velocity=100, time=0),
    Message('note_on', channel=4, note=31, velocity=0, time=60),
    Message('note_on', channel=4, note=40, velocity=100, time=0),
    Message('note_on', channel=4, note=40, velocity=0, time=30),
    Message('note_on', channel=4, note=41, velocity=100, time=0),
    Message('note_on', channel=4, note=41, velocity=0, time=30),
    Message('note_on', channel=4, note=42, velocity=100, time=0),
    Message('note_on', channel=4, note=42, velocity=0, time=60),
    Message('note_on', channel=4, note=36, velocity=100, time=0),
    Message('note_on', channel=4, note=36, velocity=0, time=30),
    Message('note_on', channel=4, note=37, velocity=100, time=0),
    Message('note_on', channel=4, note=37, velocity=0, time=30),
    Message('note_on', channel=4, note=38, velocity=100, time=0),
    Message('note_on', channel=4, note=38, velocity=0, time=60),
    Message('note_on', channel=4, note=38, velocity=100, time=0),
    Message('note_on', channel=4, note=38, velocity=0, time=30),
    Message('note_on', channel=4, note=37, velocity=100, time=0),
    Message('note_on', channel=4, note=37, velocity=0, time=30),
    Message('note_on', channel=4, note=36, velocity=100, time=0),
    Message('note_on', channel=4, note=36, velocity=0, time=60),
    Message('note_on', channel=4, note=37, velocity=100, time=0),
    Message('note_on', channel=4, note=37, velocity=0, time=30),
    Message('note_on', channel=4, note=36, velocity=100, time=0),
    Message('note_on', channel=4, note=36, velocity=0, time=30),
    Message('note_on', channel=4, note=35, velocity=100, time=0),
    Message('note_on', channel=4, note=35, velocity=0, time=60),
    Message('note_on', channel=4, note=38, velocity=100, time=0),
    Message('note_on', channel=4, note=38, velocity=0, time=30),
    Message('note_on', channel=4, note=39, velocity=100, time=0),
    Message('note_on', channel=4, note=39, velocity=0, time=30),
    Message('note_on', channel=4, note=40, velocity=100, time=0),
    Message('note_on', channel=4, note=40, velocity=0, time=60),
    Message('note_on', channel=4, note=33, velocity=100, time=0),
    Message('note_on', channel=4, note=33, velocity=0, time=30),
    Message('note_on', channel=4, note=34, velocity=100, time=0),
    Message('note_on', channel=4, note=34, velocity=0, time=30),
    Message('note_on', channel=4, note=35, velocity=100, time=0),
    Message('note_on', channel=4, note=35, velocity=0, time=60),
    Message('note_on', channel=4, note=35, velocity=100, time=0),
    Message('note_on', channel=4, note=35, velocity=0, time=30),
    Message('note_on', channel=4, note=34, velocity=100, time=0),
    Message('note_on', channel=4, note=34, velocity=0, time=30),
    Message('note_on', channel=4, note=33, velocity=100, time=0),
    Message('note_on', channel=4, note=33, velocity=0, time=60),
    Message('note_on', channel=4, note=33, velocity=100, time=0),
    Message('note_on', channel=4, note=33, velocity=0, time=30),
    Message('note_on', channel=4, note=32, velocity=100, time=0),
    Message('note_on', channel=4, note=32, velocity=0, time=30),
    Message('note_on', channel=4, note=31, velocity=100, time=0),
    Message('note_on', channel=4, note=31, velocity=0, time=30),
    Message('note_on', channel=4, note=30, velocity=100, time=0),
    Message('note_on', channel=4, note=30, velocity=0, time=30),
    Message('note_on', channel=4, note=31, velocity=100, time=0),
    Message('note_on', channel=4, note=31, velocity=0, time=30),
    Message('note_on', channel=4, note=33, velocity=100, time=0),
    Message('note_on', channel=4, note=33, velocity=0, time=30),
    Message('note_on', channel=4, note=38, velocity=100, time=0),
    Message('note_on', channel=4, note=38, velocity=0, time=30),
    Message('note_on', channel=4, note=40, velocity=100, time=0),
    Message('note_on', channel=4, note=40, velocity=0, time=30),
    Message('note_on', channel=4, note=28, velocity=100, time=0),
    Message('note_on', channel=4, note=28, velocity=0, time=30),
    Message('note_on', channel=4, note=28, velocity=100, time=0),
    Message('note_on', channel=4, note=28, velocity=0, time=30),
    Message('note_on', channel=4, note=28, velocity=100, time=0),
    Message('note_on', channel=4, note=28, velocity=0, time=30),
    Message('note_on', channel=4, note=28, velocity=100, time=0),
    Message('note_on', channel=4, note=28, velocity=0, time=30),
    Message('note_on', channel=4, note=43, velocity=100, time=0),
    Message('note_on', channel=4, note=43, velocity=0, time=30),
    Message('note_on', channel=4, note=40, velocity=100, time=0),
    Message('note_on', channel=4, note=40, velocity=0, time=30),
    Message('note_on', channel=4, note=28, velocity=100, time=0),
    Message('note_on', channel=4, note=28, velocity=0, time=30),
    Message('note_on', channel=4, note=28, velocity=100, time=0),
    Message('note_on', channel=4, note=28, velocity=0, time=30),
    Message('note_on', channel=4, note=28, velocity=100, time=0),
    Message('note_on', channel=4, note=28, velocity=0, time=30),
    Message('note_on', channel=4, note=28, velocity=100, time=0),
    Message('note_on', channel=4, note=28, velocity=0, time=30),
    Message('note_on', channel=4, note=28, velocity=100, time=0),
    Message('note_on', channel=4, note=28, velocity=0, time=30),
    Message('note_on', channel=4, note=28, velocity=100, time=0),
    Message('note_on', channel=4, note=28, velocity=0, time=30),
    Message('note_on', channel=4, note=28, velocity=100, time=0),
    Message('note_on', channel=4, note=28, velocity=0, time=30),
    Message('note_on', channel=4, note=28, velocity=100, time=0),
    Message('note_on', channel=4, note=28, velocity=0, time=30),
    Message('note_on', channel=4, note=38, velocity=100, time=0),
    Message('note_on', channel=4, note=38, velocity=0, time=30),
    Message('note_on', channel=4, note=40, velocity=100, time=0),
    Message('note_on', channel=4, note=40, velocity=0, time=30),
    Message('note_on', channel=4, note=28, velocity=100, time=0),
    Message('note_on', channel=4, note=28, velocity=0, time=30),
    Message('note_on', channel=4, note=28, velocity=100, time=0),
    Message('note_on', channel=4, note=28, velocity=0, time=30),
    Message('note_on', channel=4, note=28, velocity=100, time=0),
    Message('note_on', channel=4, note=28, velocity=0, time=30),
    Message('note_on', channel=4, note=28, velocity=100, time=0),
    Message('note_on', channel=4, note=28, velocity=0, time=30),
    Message('note_on', channel=4, note=38, velocity=100, time=0),
    Message('note_on', channel=4, note=38, velocity=0, time=30),
    Message('note_on', channel=4, note=40, velocity=100, time=0),
    Message('note_on', channel=4, note=40, velocity=0, time=30),
    Message('note_on', channel=4, note=28, velocity=100, time=0),
    Message('note_on', channel=4, note=28, velocity=0, time=30),
    Message('note_on', channel=4, note=28, velocity=100, time=0),
    Message('note_on', channel=4, note=28, velocity=0, time=30),
    Message('note_on', channel=4, note=28, velocity=100, time=0),
    Message('note_on', channel=4, note=28, velocity=0, time=30),
    Message('note_on', channel=4, note=28, velocity=100, time=0),
    Message('note_on', channel=4, note=28, velocity=0, time=30),
    Message('note_on', channel=4, note=33, velocity=100, time=0),
    Message('note_on', channel=4, note=33, velocity=0, time=60),
    Message('note_on', channel=4, note=34, velocity=100, time=0),
    Message('note_on', channel=4, note=34, velocity=0, time=60),
    Message('note_on', channel=4, note=38, velocity=100, time=0),
    Message('note_on', channel=4, note=38, velocity=0, time=30),
    Message('note_on', channel=4, note=40, velocity=100, time=0),
    Message('note_on', channel=4, note=40, velocity=0, time=30),
    Message('note_on', channel=4, note=28, velocity=100, time=0),
    Message('note_on', channel=4, note=28, velocity=0, time=30),
    Message('note_on', channel=4, note=28, velocity=100, time=0),
    Message('note_on', channel=4, note=28, velocity=0, time=30),
    Message('note_on', channel=4, note=28, velocity=100, time=0),
    Message('note_on', channel=4, note=28, velocity=0, time=30),
    Message('note_on', channel=4, note=28, velocity=100, time=0),
    Message('note_on', channel=4, note=28, velocity=0, time=30),
    Message('note_on', channel=4, note=43, velocity=100, time=0),
    Message('note_on', channel=4, note=43, velocity=0, time=30),
    Message('note_on', channel=4, note=40, velocity=100, time=0),
    Message('note_on', channel=4, note=40, velocity=0, time=30),
    Message('note_on', channel=4, note=28, velocity=100, time=0),
    Message('note_on', channel=4, note=28, velocity=0, time=30),
    Message('note_on', channel=4, note=28, velocity=100, time=0),
    Message('note_on', channel=4, note=28, velocity=0, time=30),
    Message('note_on', channel=4, note=28, velocity=100, time=0),
    Message('note_on', channel=4, note=28, velocity=0, time=30),
    Message('note_on', channel=4, note=28, velocity=100, time=0),
    Message('note_on', channel=4, note=28, velocity=0, time=30),
    Message('note_on', channel=4, note=28, velocity=100, time=0),
    Message('note_on', channel=4, note=28, velocity=0, time=30),
    Message('note_on', channel=4, note=28, velocity=100, time=0),
    Message('note_on', channel=4, note=28, velocity=0, time=30),
    Message('note_on', channel=4, note=28, velocity=100, time=0),
    Message('note_on', channel=4, note=28, velocity=0, time=30),
    Message('note_on', channel=4, note=28, velocity=100, time=0),
    Message('note_on', channel=4, note=28, velocity=0, time=30),
    Message('note_on', channel=4, note=38, velocity=100, time=0),
    Message('note_on', channel=4, note=38, velocity=0, time=30),
    Message('note_on', channel=4, note=40, velocity=100, time=0),
    Message('note_on', channel=4, note=40, velocity=0, time=30),
    Message('note_on', channel=4, note=28, velocity=100, time=0),
    Message('note_on', channel=4, note=28, velocity=0, time=30),
    Message('note_on', channel=4, note=28, velocity=100, time=0),
    Message('note_on', channel=4, note=28, velocity=0, time=30),
    Message('note_on', channel=4, note=28, velocity=100, time=0),
    Message('note_on', channel=4, note=28, velocity=0, time=30),
    Message('note_on', channel=4, note=28, velocity=100, time=0),
    Message('note_on', channel=4, note=28, velocity=0, time=30),
    Message('note_on', channel=4, note=38, velocity=100, time=0),
    Message('note_on', channel=4, note=38, velocity=0, time=30),
    Message('note_on', channel=4, note=40, velocity=100, time=0),
    Message('note_on', channel=4, note=40, velocity=0, time=30),
    Message('note_on', channel=4, note=28, velocity=100, time=0),
    Message('note_on', channel=4, note=28, velocity=0, time=30),
    Message('note_on', channel=4, note=28, velocity=100, time=0),
    Message('note_on', channel=4, note=28, velocity=0, time=30),
    Message('note_on', channel=4, note=28, velocity=100, time=0),
    Message('note_on', channel=4, note=28, velocity=0, time=30),
    Message('note_on', channel=4, note=28, velocity=100, time=0),
    Message('note_on', channel=4, note=28, velocity=0, time=30),
    Message('note_on', channel=4, note=34, velocity=100, time=0),
    Message('note_on', channel=4, note=34, velocity=0, time=60),
    Message('note_on', channel=4, note=35, velocity=100, time=0),
    Message('note_on', channel=4, note=35, velocity=0, time=60),
    Message('note_on', channel=4, note=38, velocity=100, time=0),
    Message('note_on', channel=4, note=38, velocity=0, time=30),
    Message('note_on', channel=4, note=40, velocity=100, time=0),
    Message('note_on', channel=4, note=40, velocity=0, time=30),
    Message('note_on', channel=4, note=28, velocity=100, time=0),
    Message('note_on', channel=4, note=28, velocity=0, time=30),
    Message('note_on', channel=4, note=28, velocity=100, time=0),
    Message('note_on', channel=4, note=28, velocity=0, time=30),
    Message('note_on', channel=4, note=28, velocity=100, time=0),
    Message('note_on', channel=4, note=28, velocity=0, time=30),
    Message('note_on', channel=4, note=28, velocity=100, time=0),
    Message('note_on', channel=4, note=28, velocity=0, time=30),
    Message('note_on', channel=4, note=43, velocity=100, time=0),
    Message('note_on', channel=4, note=43, velocity=0, time=30),
    Message('note_on', channel=4, note=40, velocity=100, time=0),
    Message('note_on', channel=4, note=40, velocity=0, time=30),
    Message('note_on', channel=4, note=28, velocity=100, time=0),
    Message('note_on', channel=4, note=28, velocity=0, time=30),
    Message('note_on', channel=4, note=28, velocity=100, time=0),
    Message('note_on', channel=4, note=28, velocity=0, time=30),
    Message('note_on', channel=4, note=28, velocity=100, time=0),
    Message('note_on', channel=4, note=28, velocity=0, time=30),
    Message('note_on', channel=4, note=28, velocity=100, time=0),
    Message('note_on', channel=4, note=28, velocity=0, time=30),
    Message('note_on', channel=4, note=28, velocity=100, time=0),
    Message('note_on', channel=4, note=28, velocity=0, time=30),
    Message('note_on', channel=4, note=28, velocity=100, time=0),
    Message('note_on', channel=4, note=28, velocity=0, time=30),
    Message('note_on', channel=4, note=28, velocity=100, time=0),
    Message('note_on', channel=4, note=28, velocity=0, time=30),
    Message('note_on', channel=4, note=28, velocity=100, time=0),
    Message('note_on', channel=4, note=28, velocity=0, time=30),
    Message('note_on', channel=4, note=38, velocity=100, time=0),
    Message('note_on', channel=4, note=38, velocity=0, time=30),
    Message('note_on', channel=4, note=40, velocity=100, time=0),
    Message('note_on', channel=4, note=40, velocity=0, time=30),
    Message('note_on', channel=4, note=28, velocity=100, time=0),
    Message('note_on', channel=4, note=28, velocity=0, time=30),
    Message('note_on', channel=4, note=28, velocity=100, time=0),
    Message('note_on', channel=4, note=28, velocity=0, time=30),
    Message('note_on', channel=4, note=28, velocity=100, time=0),
    Message('note_on', channel=4, note=28, velocity=0, time=30),
    Message('note_on', channel=4, note=28, velocity=100, time=0),
    Message('note_on', channel=4, note=28, velocity=0, time=30),
    Message('note_on', channel=4, note=38, velocity=100, time=0),
    Message('note_on', channel=4, note=38, velocity=0, time=30),
    Message('note_on', channel=4, note=40, velocity=100, time=0),
    Message('note_on', channel=4, note=40, velocity=0, time=30),
    Message('note_on', channel=4, note=28, velocity=100, time=0),
    Message('note_on', channel=4, note=28, velocity=0, time=30),
    Message('note_on', channel=4, note=28, velocity=100, time=0),
    Message('note_on', channel=4, note=28, velocity=0, time=30),
    Message('note_on', channel=4, note=28, velocity=100, time=0),
    Message('note_on', channel=4, note=28, velocity=0, time=30),
    Message('note_on', channel=4, note=28, velocity=100, time=0),
    Message('note_on', channel=4, note=28, velocity=0, time=30),
    Message('note_on', channel=4, note=35, velocity=100, time=0),
    Message('note_on', channel=4, note=35, velocity=0, time=60),
    Message('note_on', channel=4, note=31, velocity=100, time=0),
    Message('note_on', channel=4, note=31, velocity=0, time=60),
    Message('note_on', channel=4, note=38, velocity=100, time=0),
    Message('note_on', channel=4, note=38, velocity=0, time=30),
    Message('note_on', channel=4, note=40, velocity=100, time=0),
    Message('note_on', channel=4, note=40, velocity=0, time=30),
    Message('note_on', channel=4, note=28, velocity=100, time=0),
    Message('note_on', channel=4, note=28, velocity=0, time=30),
    Message('note_on', channel=4, note=28, velocity=100, time=0),
    Message('note_on', channel=4, note=28, velocity=0, time=30),
    Message('note_on', channel=4, note=28, velocity=100, time=0),
    Message('note_on', channel=4, note=28, velocity=0, time=30),
    Message('note_on', channel=4, note=28, velocity=100, time=0),
    Message('note_on', channel=4, note=28, velocity=0, time=30),
    Message('note_on', channel=4, note=43, velocity=100, time=0),
    Message('note_on', channel=4, note=43, velocity=0, time=30),
    Message('note_on', channel=4, note=40, velocity=100, time=0),
    Message('note_on', channel=4, note=40, velocity=0, time=30),
    Message('note_on', channel=4, note=28, velocity=100, time=0),
    Message('note_on', channel=4, note=28, velocity=0, time=30),
    Message('note_on', channel=4, note=28, velocity=100, time=0),
    Message('note_on', channel=4, note=28, velocity=0, time=30),
    Message('note_on', channel=4, note=28, velocity=100, time=0),
    Message('note_on', channel=4, note=28, velocity=0, time=30),
    Message('note_on', channel=4, note=28, velocity=100, time=0),
    Message('note_on', channel=4, note=28, velocity=0, time=30),
    Message('note_on', channel=4, note=28, velocity=100, time=0),
    Message('note_on', channel=4, note=28, velocity=0, time=30),
    Message('note_on', channel=4, note=28, velocity=100, time=0),
    Message('note_on', channel=4, note=28, velocity=0, time=30),
    Message('note_on', channel=4, note=35, velocity=100, time=0),
    Message('note_on', channel=4, note=35, velocity=0, time=120),
    Message('note_on', channel=4, note=28, velocity=100, time=0),
    Message('note_on', channel=4, note=28, velocity=0, time=30),
    Message('note_on', channel=4, note=28, velocity=100, time=0),
    Message('note_on', channel=4, note=28, velocity=0, time=30),
    Message('note_on', channel=4, note=28, velocity=100, time=0),
    Message('note_on', channel=4, note=28, velocity=0, time=30),
    Message('note_on', channel=4, note=28, velocity=100, time=0),
    Message('note_on', channel=4, note=28, velocity=0, time=30),
    Message('note_on', channel=4, note=34, velocity=100, time=0),
    Message('note_on', channel=4, note=34, velocity=0, time=120),
    Message('note_on', channel=4, note=28, velocity=100, time=0),
    Message('note_on', channel=4, note=28, velocity=0, time=60),
    Message('note_on', channel=4, note=33, velocity=100, time=0),
    Message('note_on', channel=4, note=33, velocity=0, time=60),
    Message('note_on', channel=4, note=28, velocity=100, time=0),
    Message('note_on', channel=4, note=28, velocity=0, time=60),
    Message('note_on', channel=4, note=35, velocity=100, time=0),
    Message('note_on', channel=4, note=35, velocity=0, time=480),
    Message('note_on', channel=4, note=35, velocity=100, time=0),
    Message('note_on', channel=4, note=35, velocity=0, time=120),
    Message('note_on', channel=4, note=35, velocity=100, time=120),
    Message('note_on', channel=4, note=35, velocity=0, time=80),
    Message('note_on', channel=4, note=31, velocity=100, time=0),
    Message('note_on', channel=4, note=31, velocity=0, time=80),
    Message('note_on', channel=4, note=30, velocity=100, time=0),
    Message('note_on', channel=4, note=30, velocity=0, time=80),
    Message('note_on', channel=4, note=38, velocity=100, time=0),
    Message('note_on', channel=4, note=38, velocity=0, time=30),
    Message('note_on', channel=4, note=40, velocity=100, time=0),
    Message('note_on', channel=4, note=40, velocity=0, time=30),
    Message('note_on', channel=4, note=28, velocity=100, time=0),
    Message('note_on', channel=4, note=28, velocity=0, time=30),
    Message('note_on', channel=4, note=28, velocity=100, time=0),
    Message('note_on', channel=4, note=28, velocity=0, time=30),
    Message('note_on', channel=4, note=28, velocity=100, time=0),
    Message('note_on', channel=4, note=28, velocity=0, time=30),
    Message('note_on', channel=4, note=28, velocity=100, time=0),
    Message('note_on', channel=4, note=28, velocity=0, time=30),
    Message('note_on', channel=4, note=43, velocity=100, time=0),
    Message('note_on', channel=4, note=43, velocity=0, time=30),
    Message('note_on', channel=4, note=40, velocity=100, time=0),
    Message('note_on', channel=4, note=40, velocity=0, time=30),
    Message('note_on', channel=4, note=28, velocity=100, time=0),
    Message('note_on', channel=4, note=28, velocity=0, time=30),
    Message('note_on', channel=4, note=28, velocity=100, time=0),
    Message('note_on', channel=4, note=28, velocity=0, time=30),
    Message('note_on', channel=4, note=28, velocity=100, time=0),
    Message('note_on', channel=4, note=28, velocity=0, time=30),
    Message('note_on', channel=4, note=28, velocity=100, time=0),
    Message('note_on', channel=4, note=28, velocity=0, time=30),
    Message('note_on', channel=4, note=28, velocity=100, time=0),
    Message('note_on', channel=4, note=28, velocity=0, time=30),
    Message('note_on', channel=4, note=28, velocity=100, time=0),
    Message('note_on', channel=4, note=28, velocity=0, time=30),
    Message('note_on', channel=4, note=28, velocity=100, time=0),
    Message('note_on', channel=4, note=28, velocity=0, time=30),
    Message('note_on', channel=4, note=28, velocity=100, time=0),
    Message('note_on', channel=4, note=28, velocity=0, time=30),
    Message('note_on', channel=4, note=38, velocity=100, time=0),
    Message('note_on', channel=4, note=38, velocity=0, time=30),
    Message('note_on', channel=4, note=40, velocity=100, time=0),
    Message('note_on', channel=4, note=40, velocity=0, time=30),
    Message('note_on', channel=4, note=28, velocity=100, time=0),
    Message('note_on', channel=4, note=28, velocity=0, time=30),
    Message('note_on', channel=4, note=28, velocity=100, time=0),
    Message('note_on', channel=4, note=28, velocity=0, time=30),
    Message('note_on', channel=4, note=28, velocity=100, time=0),
    Message('note_on', channel=4, note=28, velocity=0, time=30),
    Message('note_on', channel=4, note=28, velocity=100, time=0),
    Message('note_on', channel=4, note=28, velocity=0, time=30),
    Message('note_on', channel=4, note=38, velocity=100, time=0),
    Message('note_on', channel=4, note=38, velocity=0, time=30),
    Message('note_on', channel=4, note=40, velocity=100, time=0),
    Message('note_on', channel=4, note=40, velocity=0, time=30),
    Message('note_on', channel=4, note=28, velocity=100, time=0),
    Message('note_on', channel=4, note=28, velocity=0, time=30),
    Message('note_on', channel=4, note=28, velocity=100, time=0),
    Message('note_on', channel=4, note=28, velocity=0, time=30),
    Message('note_on', channel=4, note=28, velocity=100, time=0),
    Message('note_on', channel=4, note=28, velocity=0, time=30),
    Message('note_on', channel=4, note=28, velocity=100, time=0),
    Message('note_on', channel=4, note=28, velocity=0, time=30),
    Message('note_on', channel=4, note=33, velocity=100, time=0),
    Message('note_on', channel=4, note=33, velocity=0, time=60),
    Message('note_on', channel=4, note=34, velocity=100, time=0),
    Message('note_on', channel=4, note=34, velocity=0, time=60),
    Message('note_on', channel=4, note=38, velocity=100, time=0),
    Message('note_on', channel=4, note=38, velocity=0, time=30),
    Message('note_on', channel=4, note=40, velocity=100, time=0),
    Message('note_on', channel=4, note=40, velocity=0, time=30),
    Message('note_on', channel=4, note=28, velocity=100, time=0),
    Message('note_on', channel=4, note=28, velocity=0, time=30),
    Message('note_on', channel=4, note=28, velocity=100, time=0),
    Message('note_on', channel=4, note=28, velocity=0, time=30),
    Message('note_on', channel=4, note=28, velocity=100, time=0),
    Message('note_on', channel=4, note=28, velocity=0, time=30),
    Message('note_on', channel=4, note=28, velocity=100, time=0),
    Message('note_on', channel=4, note=28, velocity=0, time=30),
    Message('note_on', channel=4, note=43, velocity=100, time=0),
    Message('note_on', channel=4, note=43, velocity=0, time=30),
    Message('note_on', channel=4, note=40, velocity=100, time=0),
    Message('note_on', channel=4, note=40, velocity=0, time=30),
    Message('note_on', channel=4, note=28, velocity=100, time=0),
    Message('note_on', channel=4, note=28, velocity=0, time=30),
    Message('note_on', channel=4, note=28, velocity=100, time=0),
    Message('note_on', channel=4, note=28, velocity=0, time=30),
    Message('note_on', channel=4, note=28, velocity=100, time=0),
    Message('note_on', channel=4, note=28, velocity=0, time=30),
    Message('note_on', channel=4, note=28, velocity=100, time=0),
    Message('note_on', channel=4, note=28, velocity=0, time=30),
    Message('note_on', channel=4, note=28, velocity=100, time=0),
    Message('note_on', channel=4, note=28, velocity=0, time=30),
    Message('note_on', channel=4, note=28, velocity=100, time=0),
    Message('note_on', channel=4, note=28, velocity=0, time=30),
    Message('note_on', channel=4, note=28, velocity=100, time=0),
    Message('note_on', channel=4, note=28, velocity=0, time=30),
    Message('note_on', channel=4, note=28, velocity=100, time=0),
    Message('note_on', channel=4, note=28, velocity=0, time=30),
    Message('note_on', channel=4, note=38, velocity=100, time=0),
    Message('note_on', channel=4, note=38, velocity=0, time=30),
    Message('note_on', channel=4, note=40, velocity=100, time=0),
    Message('note_on', channel=4, note=40, velocity=0, time=30),
    Message('note_on', channel=4, note=28, velocity=100, time=0),
    Message('note_on', channel=4, note=28, velocity=0, time=30),
    Message('note_on', channel=4, note=28, velocity=100, time=0),
    Message('note_on', channel=4, note=28, velocity=0, time=30),
    Message('note_on', channel=4, note=28, velocity=100, time=0),
    Message('note_on', channel=4, note=28, velocity=0, time=30),
    Message('note_on', channel=4, note=28, velocity=100, time=0),
    Message('note_on', channel=4, note=28, velocity=0, time=30),
    Message('note_on', channel=4, note=38, velocity=100, time=0),
    Message('note_on', channel=4, note=38, velocity=0, time=30),
    Message('note_on', channel=4, note=40, velocity=100, time=0),
    Message('note_on', channel=4, note=40, velocity=0, time=30),
    Message('note_on', channel=4, note=28, velocity=100, time=0),
    Message('note_on', channel=4, note=28, velocity=0, time=30),
    Message('note_on', channel=4, note=28, velocity=100, time=0),
    Message('note_on', channel=4, note=28, velocity=0, time=30),
    Message('note_on', channel=4, note=28, velocity=100, time=0),
    Message('note_on', channel=4, note=28, velocity=0, time=30),
    Message('note_on', channel=4, note=28, velocity=100, time=0),
    Message('note_on', channel=4, note=28, velocity=0, time=30),
    Message('note_on', channel=4, note=34, velocity=100, time=0),
    Message('note_on', channel=4, note=34, velocity=0, time=60),
    Message('note_on', channel=4, note=35, velocity=100, time=0),
    Message('note_on', channel=4, note=35, velocity=0, time=60),
    Message('note_on', channel=4, note=38, velocity=100, time=0),
    Message('note_on', channel=4, note=38, velocity=0, time=30),
    Message('note_on', channel=4, note=40, velocity=100, time=0),
    Message('note_on', channel=4, note=40, velocity=0, time=30),
    Message('note_on', channel=4, note=28, velocity=100, time=0),
    Message('note_on', channel=4, note=28, velocity=0, time=30),
    Message('note_on', channel=4, note=28, velocity=100, time=0),
    Message('note_on', channel=4, note=28, velocity=0, time=30),
    Message('note_on', channel=4, note=28, velocity=100, time=0),
    Message('note_on', channel=4, note=28, velocity=0, time=30),
    Message('note_on', channel=4, note=28, velocity=100, time=0),
    Message('note_on', channel=4, note=28, velocity=0, time=30),
    Message('note_on', channel=4, note=43, velocity=100, time=0),
    Message('note_on', channel=4, note=43, velocity=0, time=30),
    Message('note_on', channel=4, note=40, velocity=100, time=0),
    Message('note_on', channel=4, note=40, velocity=0, time=30),
    Message('note_on', channel=4, note=28, velocity=100, time=0),
    Message('note_on', channel=4, note=28, velocity=0, time=30),
    Message('note_on', channel=4, note=28, velocity=100, time=0),
    Message('note_on', channel=4, note=28, velocity=0, time=30),
    Message('note_on', channel=4, note=28, velocity=100, time=0),
    Message('note_on', channel=4, note=28, velocity=0, time=30),
    Message('note_on', channel=4, note=28, velocity=100, time=0),
    Message('note_on', channel=4, note=28, velocity=0, time=30),
    Message('note_on', channel=4, note=28, velocity=100, time=0),
    Message('note_on', channel=4, note=28, velocity=0, time=30),
    Message('note_on', channel=4, note=28, velocity=100, time=0),
    Message('note_on', channel=4, note=28, velocity=0, time=30),
    Message('note_on', channel=4, note=28, velocity=100, time=0),
    Message('note_on', channel=4, note=28, velocity=0, time=30),
    Message('note_on', channel=4, note=28, velocity=100, time=0),
    Message('note_on', channel=4, note=28, velocity=0, time=30),
    Message('note_on', channel=4, note=38, velocity=100, time=0),
    Message('note_on', channel=4, note=38, velocity=0, time=30),
    Message('note_on', channel=4, note=40, velocity=100, time=0),
    Message('note_on', channel=4, note=40, velocity=0, time=30),
    Message('note_on', channel=4, note=28, velocity=100, time=0),
    Message('note_on', channel=4, note=28, velocity=0, time=30),
    Message('note_on', channel=4, note=28, velocity=100, time=0),
    Message('note_on', channel=4, note=28, velocity=0, time=30),
    Message('note_on', channel=4, note=28, velocity=100, time=0),
    Message('note_on', channel=4, note=28, velocity=0, time=30),
    Message('note_on', channel=4, note=28, velocity=100, time=0),
    Message('note_on', channel=4, note=28, velocity=0, time=30),
    Message('note_on', channel=4, note=38, velocity=100, time=0),
    Message('note_on', channel=4, note=38, velocity=0, time=30),
    Message('note_on', channel=4, note=40, velocity=100, time=0),
    Message('note_on', channel=4, note=40, velocity=0, time=30),
    Message('note_on', channel=4, note=28, velocity=100, time=0),
    Message('note_on', channel=4, note=28, velocity=0, time=30),
    Message('note_on', channel=4, note=28, velocity=100, time=0),
    Message('note_on', channel=4, note=28, velocity=0, time=30),
    Message('note_on', channel=4, note=28, velocity=100, time=0),
    Message('note_on', channel=4, note=28, velocity=0, time=30),
    Message('note_on', channel=4, note=28, velocity=100, time=0),
    Message('note_on', channel=4, note=28, velocity=0, time=30),
    Message('note_on', channel=4, note=35, velocity=100, time=0),
    Message('note_on', channel=4, note=35, velocity=0, time=60),
    Message('note_on', channel=4, note=31, velocity=100, time=0),
    Message('note_on', channel=4, note=31, velocity=0, time=60),
    Message('note_on', channel=4, note=38, velocity=100, time=0),
    Message('note_on', channel=4, note=38, velocity=0, time=30),
    Message('note_on', channel=4, note=40, velocity=100, time=0),
    Message('note_on', channel=4, note=40, velocity=0, time=30),
    Message('note_on', channel=4, note=28, velocity=100, time=0),
    Message('note_on', channel=4, note=28, velocity=0, time=30),
    Message('note_on', channel=4, note=28, velocity=100, time=0),
    Message('note_on', channel=4, note=28, velocity=0, time=30),
    Message('note_on', channel=4, note=28, velocity=100, time=0),
    Message('note_on', channel=4, note=28, velocity=0, time=30),
    Message('note_on', channel=4, note=28, velocity=100, time=0),
    Message('note_on', channel=4, note=28, velocity=0, time=30),
    Message('note_on', channel=4, note=43, velocity=100, time=0),
    Message('note_on', channel=4, note=43, velocity=0, time=30),
    Message('note_on', channel=4, note=40, velocity=100, time=0),
    Message('note_on', channel=4, note=40, velocity=0, time=30),
    Message('note_on', channel=4, note=28, velocity=100, time=0),
    Message('note_on', channel=4, note=28, velocity=0, time=30),
    Message('note_on', channel=4, note=28, velocity=100, time=0),
    Message('note_on', channel=4, note=28, velocity=0, time=30),
    Message('note_on', channel=4, note=28, velocity=100, time=0),
    Message('note_on', channel=4, note=28, velocity=0, time=30),
    Message('note_on', channel=4, note=28, velocity=100, time=0),
    Message('note_on', channel=4, note=28, velocity=0, time=30),
    Message('note_on', channel=4, note=28, velocity=100, time=0),
    Message('note_on', channel=4, note=28, velocity=0, time=30),
    Message('note_on', channel=4, note=28, velocity=100, time=0),
    Message('note_on', channel=4, note=28, velocity=0, time=30),
    Message('note_on', channel=4, note=35, velocity=100, time=0),
    Message('note_on', channel=4, note=35, velocity=0, time=120),
    Message('note_on', channel=4, note=28, velocity=100, time=0),
    Message('note_on', channel=4, note=28, velocity=0, time=30),
    Message('note_on', channel=4, note=28, velocity=100, time=0),
    Message('note_on', channel=4, note=28, velocity=0, time=30),
    Message('note_on', channel=4, note=28, velocity=100, time=0),
    Message('note_on', channel=4, note=28, velocity=0, time=30),
    Message('note_on', channel=4, note=28, velocity=100, time=0),
    Message('note_on', channel=4, note=28, velocity=0, time=30),
    Message('note_on', channel=4, note=34, velocity=100, time=0),
    Message('note_on', channel=4, note=34, velocity=0, time=120),
    Message('note_on', channel=4, note=28, velocity=100, time=0),
    Message('note_on', channel=4, note=28, velocity=0, time=60),
    Message('note_on', channel=4, note=33, velocity=100, time=0),
    Message('note_on', channel=4, note=33, velocity=0, time=60),
    Message('note_on', channel=4, note=28, velocity=100, time=0),
    Message('note_on', channel=4, note=28, velocity=0, time=60),
    Message('note_on', channel=4, note=38, velocity=100, time=0),
    Message('note_on', channel=4, note=38, velocity=0, time=30),
    Message('note_on', channel=4, note=40, velocity=100, time=0),
    Message('note_on', channel=4, note=40, velocity=0, time=30),
    Message('note_on', channel=4, note=28, velocity=100, time=0),
    Message('note_on', channel=4, note=28, velocity=0, time=30),
    Message('note_on', channel=4, note=28, velocity=100, time=0),
    Message('note_on', channel=4, note=28, velocity=0, time=30),
    Message('note_on', channel=4, note=28, velocity=100, time=0),
    Message('note_on', channel=4, note=28, velocity=0, time=30),
    Message('note_on', channel=4, note=28, velocity=100, time=0),
    Message('note_on', channel=4, note=28, velocity=0, time=30),
    Message('note_on', channel=4, note=43, velocity=100, time=0),
    Message('note_on', channel=4, note=43, velocity=0, time=30),
    Message('note_on', channel=4, note=40, velocity=100, time=0),
    Message('note_on', channel=4, note=40, velocity=0, time=30),
    Message('note_on', channel=4, note=28, velocity=100, time=0),
    Message('note_on', channel=4, note=28, velocity=0, time=30),
    Message('note_on', channel=4, note=28, velocity=100, time=0),
    Message('note_on', channel=4, note=28, velocity=0, time=30),
    Message('note_on', channel=4, note=28, velocity=100, time=0),
    Message('note_on', channel=4, note=28, velocity=0, time=30),
    Message('note_on', channel=4, note=28, velocity=100, time=0),
    Message('note_on', channel=4, note=28, velocity=0, time=30),
    Message('note_on', channel=4, note=28, velocity=100, time=0),
    Message('note_on', channel=4, note=28, velocity=0, time=30),
    Message('note_on', channel=4, note=28, velocity=100, time=0),
    Message('note_on', channel=4, note=28, velocity=0, time=30),
    Message('note_on', channel=4, note=35, velocity=100, time=0),
    Message('note_on', channel=4, note=35, velocity=0, time=120),
    Message('note_on', channel=4, note=28, velocity=100, time=0),
    Message('note_on', channel=4, note=28, velocity=0, time=30),
    Message('note_on', channel=4, note=28, velocity=100, time=0),
    Message('note_on', channel=4, note=28, velocity=0, time=30),
    Message('note_on', channel=4, note=28, velocity=100, time=0),
    Message('note_on', channel=4, note=28, velocity=0, time=30),
    Message('note_on', channel=4, note=28, velocity=100, time=0),
    Message('note_on', channel=4, note=28, velocity=0, time=30),
    Message('note_on', channel=4, note=34, velocity=100, time=0),
    Message('note_on', channel=4, note=34, velocity=0, time=120),
    Message('note_on', channel=4, note=28, velocity=100, time=0),
    Message('note_on', channel=4, note=28, velocity=0, time=60),
    Message('note_on', channel=4, note=33, velocity=100, time=0),
    Message('note_on', channel=4, note=33, velocity=0, time=60),
    Message('note_on', channel=4, note=28, velocity=100, time=0),
    Message('note_on', channel=4, note=28, velocity=0, time=60),
    Message('note_on', channel=4, note=38, velocity=100, time=0),
    Message('note_on', channel=4, note=38, velocity=0, time=30),
    Message('note_on', channel=4, note=40, velocity=100, time=0),
    Message('note_on', channel=4, note=40, velocity=0, time=30),
    Message('note_on', channel=4, note=28, velocity=100, time=0),
    Message('note_on', channel=4, note=28, velocity=0, time=30),
    Message('note_on', channel=4, note=28, velocity=100, time=0),
    Message('note_on', channel=4, note=28, velocity=0, time=30),
    Message('note_on', channel=4, note=28, velocity=100, time=0),
    Message('note_on', channel=4, note=28, velocity=0, time=30),
    Message('note_on', channel=4, note=28, velocity=100, time=0),
    Message('note_on', channel=4, note=28, velocity=0, time=30),
    Message('note_on', channel=4, note=43, velocity=100, time=0),
    Message('note_on', channel=4, note=43, velocity=0, time=30),
    Message('note_on', channel=4, note=40, velocity=100, time=0),
    Message('note_on', channel=4, note=40, velocity=0, time=30),
    Message('note_on', channel=4, note=28, velocity=100, time=0),
    Message('note_on', channel=4, note=28, velocity=0, time=30),
    Message('note_on', channel=4, note=28, velocity=100, time=0),
    Message('note_on', channel=4, note=28, velocity=0, time=30),
    Message('note_on', channel=4, note=28, velocity=100, time=0),
    Message('note_on', channel=4, note=28, velocity=0, time=30),
    Message('note_on', channel=4, note=28, velocity=100, time=0),
    Message('note_on', channel=4, note=28, velocity=0, time=30),
    Message('note_on', channel=4, note=28, velocity=100, time=0),
    Message('note_on', channel=4, note=28, velocity=0, time=30),
    Message('note_on', channel=4, note=28, velocity=100, time=0),
    Message('note_on', channel=4, note=28, velocity=0, time=30),
    Message('note_on', channel=4, note=35, velocity=100, time=0),
    Message('note_on', channel=4, note=35, velocity=0, time=120),
    Message('note_on', channel=4, note=28, velocity=100, time=0),
    Message('note_on', channel=4, note=28, velocity=0, time=30),
    Message('note_on', channel=4, note=28, velocity=100, time=0),
    Message('note_on', channel=4, note=28, velocity=0, time=30),
    Message('note_on', channel=4, note=28, velocity=100, time=0),
    Message('note_on', channel=4, note=28, velocity=0, time=30),
    Message('note_on', channel=4, note=28, velocity=100, time=0),
    Message('note_on', channel=4, note=28, velocity=0, time=30),
    Message('note_on', channel=4, note=34, velocity=100, time=0),
    Message('note_on', channel=4, note=34, velocity=0, time=120),
    Message('note_on', channel=4, note=28, velocity=100, time=0),
    Message('note_on', channel=4, note=28, velocity=0, time=60),
    Message('note_on', channel=4, note=33, velocity=100, time=0),
    Message('note_on', channel=4, note=33, velocity=0, time=60),
    Message('note_on', channel=4, note=28, velocity=100, time=0),
    Message('note_on', channel=4, note=28, velocity=0, time=60),
    Message('note_on', channel=4, note=38, velocity=100, time=0),
    Message('note_on', channel=4, note=38, velocity=0, time=30),
    Message('note_on', channel=4, note=40, velocity=100, time=0),
    Message('note_on', channel=4, note=40, velocity=0, time=30),
    Message('note_on', channel=4, note=28, velocity=100, time=0),
    Message('note_on', channel=4, note=28, velocity=0, time=30),
    Message('note_on', channel=4, note=28, velocity=100, time=0),
    Message('note_on', channel=4, note=28, velocity=0, time=30),
    Message('note_on', channel=4, note=28, velocity=100, time=0),
    Message('note_on', channel=4, note=28, velocity=0, time=30),
    Message('note_on', channel=4, note=28, velocity=100, time=0),
    Message('note_on', channel=4, note=28, velocity=0, time=30),
    Message('note_on', channel=4, note=43, velocity=100, time=0),
    Message('note_on', channel=4, note=43, velocity=0, time=30),
    Message('note_on', channel=4, note=40, velocity=100, time=0),
    Message('note_on', channel=4, note=40, velocity=0, time=30),
    Message('note_on', channel=4, note=28, velocity=100, time=0),
    Message('note_on', channel=4, note=28, velocity=0, time=30),
    Message('note_on', channel=4, note=28, velocity=100, time=0),
    Message('note_on', channel=4, note=28, velocity=0, time=30),
    Message('note_on', channel=4, note=28, velocity=100, time=0),
    Message('note_on', channel=4, note=28, velocity=0, time=30),
    Message('note_on', channel=4, note=28, velocity=100, time=0),
    Message('note_on', channel=4, note=28, velocity=0, time=30),
    Message('note_on', channel=4, note=28, velocity=100, time=0),
    Message('note_on', channel=4, note=28, velocity=0, time=30),
    Message('note_on', channel=4, note=28, velocity=100, time=0),
    Message('note_on', channel=4, note=28, velocity=0, time=30),
    Message('note_on', channel=4, note=35, velocity=100, time=0),
    Message('note_on', channel=4, note=35, velocity=0, time=120),
    Message('note_on', channel=4, note=28, velocity=100, time=0),
    Message('note_on', channel=4, note=28, velocity=0, time=30),
    Message('note_on', channel=4, note=28, velocity=100, time=0),
    Message('note_on', channel=4, note=28, velocity=0, time=30),
    Message('note_on', channel=4, note=28, velocity=100, time=0),
    Message('note_on', channel=4, note=28, velocity=0, time=30),
    Message('note_on', channel=4, note=28, velocity=100, time=0),
    Message('note_on', channel=4, note=28, velocity=0, time=30),
    Message('note_on', channel=4, note=34, velocity=100, time=0),
    Message('note_on', channel=4, note=34, velocity=0, time=120),
    Message('note_on', channel=4, note=28, velocity=100, time=0),
    Message('note_on', channel=4, note=28, velocity=0, time=60),
    Message('note_on', channel=4, note=33, velocity=100, time=0),
    Message('note_on', channel=4, note=33, velocity=0, time=60),
    Message('note_on', channel=4, note=28, velocity=100, time=0),
    Message('note_on', channel=4, note=28, velocity=0, time=60),
    Message('note_on', channel=4, note=38, velocity=100, time=0),
    Message('note_on', channel=4, note=38, velocity=0, time=30),
    Message('note_on', channel=4, note=40, velocity=100, time=0),
    Message('note_on', channel=4, note=40, velocity=0, time=30),
    Message('note_on', channel=4, note=28, velocity=100, time=0),
    Message('note_on', channel=4, note=28, velocity=0, time=30),
    Message('note_on', channel=4, note=28, velocity=100, time=0),
    Message('note_on', channel=4, note=28, velocity=0, time=30),
    Message('note_on', channel=4, note=28, velocity=100, time=0),
    Message('note_on', channel=4, note=28, velocity=0, time=30),
    Message('note_on', channel=4, note=28, velocity=100, time=0),
    Message('note_on', channel=4, note=28, velocity=0, time=30),
    Message('note_on', channel=4, note=43, velocity=100, time=0),
    Message('note_on', channel=4, note=43, velocity=0, time=30),
    Message('note_on', channel=4, note=40, velocity=100, time=0),
    Message('note_on', channel=4, note=40, velocity=0, time=30),
    Message('note_on', channel=4, note=28, velocity=100, time=0),
    Message('note_on', channel=4, note=28, velocity=0, time=30),
    Message('note_on', channel=4, note=28, velocity=100, time=0),
    Message('note_on', channel=4, note=28, velocity=0, time=30),
    Message('note_on', channel=4, note=28, velocity=100, time=0),
    Message('note_on', channel=4, note=28, velocity=0, time=30),
    Message('note_on', channel=4, note=28, velocity=100, time=0),
    Message('note_on', channel=4, note=28, velocity=0, time=30),
    Message('note_on', channel=4, note=28, velocity=100, time=0),
    Message('note_on', channel=4, note=28, velocity=0, time=30),
    Message('note_on', channel=4, note=28, velocity=100, time=0),
    Message('note_on', channel=4, note=28, velocity=0, time=30),
    Message('note_on', channel=4, note=28, velocity=100, time=0),
    Message('note_on', channel=4, note=28, velocity=0, time=30),
    Message('note_on', channel=4, note=28, velocity=100, time=0),
    Message('note_on', channel=4, note=28, velocity=0, time=30),
    Message('note_on', channel=4, note=38, velocity=100, time=0),
    Message('note_on', channel=4, note=38, velocity=0, time=30),
    Message('note_on', channel=4, note=40, velocity=100, time=0),
    Message('note_on', channel=4, note=40, velocity=0, time=30),
    Message('note_on', channel=4, note=28, velocity=100, time=0),
    Message('note_on', channel=4, note=28, velocity=0, time=30),
    Message('note_on', channel=4, note=28, velocity=100, time=0),
    Message('note_on', channel=4, note=28, velocity=0, time=30),
    Message('note_on', channel=4, note=28, velocity=100, time=0),
    Message('note_on', channel=4, note=28, velocity=0, time=30),
    Message('note_on', channel=4, note=28, velocity=100, time=0),
    Message('note_on', channel=4, note=28, velocity=0, time=30),
    Message('note_on', channel=4, note=38, velocity=100, time=0),
    Message('note_on', channel=4, note=38, velocity=0, time=30),
    Message('note_on', channel=4, note=40, velocity=100, time=0),
    Message('note_on', channel=4, note=40, velocity=0, time=30),
    Message('note_on', channel=4, note=28, velocity=100, time=0),
    Message('note_on', channel=4, note=28, velocity=0, time=30),
    Message('note_on', channel=4, note=28, velocity=100, time=0),
    Message('note_on', channel=4, note=28, velocity=0, time=30),
    Message('note_on', channel=4, note=28, velocity=100, time=0),
    Message('note_on', channel=4, note=28, velocity=0, time=30),
    Message('note_on', channel=4, note=28, velocity=100, time=0),
    Message('note_on', channel=4, note=28, velocity=0, time=30),
    Message('note_on', channel=4, note=35, velocity=100, time=0),
    Message('note_on', channel=4, note=35, velocity=0, time=120),
    Message('note_on', channel=4, note=38, velocity=100, time=0),
    Message('note_on', channel=4, note=38, velocity=0, time=30),
    Message('note_on', channel=4, note=40, velocity=100, time=0),
    Message('note_on', channel=4, note=40, velocity=0, time=30),
    Message('note_on', channel=4, note=28, velocity=100, time=0),
    Message('note_on', channel=4, note=28, velocity=0, time=30),
    Message('note_on', channel=4, note=28, velocity=100, time=0),
    Message('note_on', channel=4, note=28, velocity=0, time=30),
    Message('note_on', channel=4, note=28, velocity=100, time=0),
    Message('note_on', channel=4, note=28, velocity=0, time=30),
    Message('note_on', channel=4, note=28, velocity=100, time=0),
    Message('note_on', channel=4, note=28, velocity=0, time=30),
    Message('note_on', channel=4, note=43, velocity=100, time=0),
    Message('note_on', channel=4, note=43, velocity=0, time=30),
    Message('note_on', channel=4, note=40, velocity=100, time=0),
    Message('note_on', channel=4, note=40, velocity=0, time=30),
    Message('note_on', channel=4, note=28, velocity=100, time=0),
    Message('note_on', channel=4, note=28, velocity=0, time=30),
    Message('note_on', channel=4, note=28, velocity=100, time=0),
    Message('note_on', channel=4, note=28, velocity=0, time=30),
    Message('note_on', channel=4, note=28, velocity=100, time=0),
    Message('note_on', channel=4, note=28, velocity=0, time=30),
    Message('note_on', channel=4, note=28, velocity=100, time=0),
    Message('note_on', channel=4, note=28, velocity=0, time=30),
    Message('note_on', channel=4, note=28, velocity=100, time=0),
    Message('note_on', channel=4, note=28, velocity=0, time=30),
    Message('note_on', channel=4, note=28, velocity=100, time=0),
    Message('note_on', channel=4, note=28, velocity=0, time=30),
    Message('note_on', channel=4, note=28, velocity=100, time=0),
    Message('note_on', channel=4, note=28, velocity=0, time=30),
    Message('note_on', channel=4, note=28, velocity=100, time=0),
    Message('note_on', channel=4, note=28, velocity=0, time=30),
    Message('note_on', channel=4, note=38, velocity=100, time=0),
    Message('note_on', channel=4, note=38, velocity=0, time=30),
    Message('note_on', channel=4, note=40, velocity=100, time=0),
    Message('note_on', channel=4, note=40, velocity=0, time=30),
    Message('note_on', channel=4, note=28, velocity=100, time=0),
    Message('note_on', channel=4, note=28, velocity=0, time=30),
    Message('note_on', channel=4, note=28, velocity=100, time=0),
    Message('note_on', channel=4, note=28, velocity=0, time=30),
    Message('note_on', channel=4, note=28, velocity=100, time=0),
    Message('note_on', channel=4, note=28, velocity=0, time=30),
    Message('note_on', channel=4, note=28, velocity=100, time=0),
    Message('note_on', channel=4, note=28, velocity=0, time=30),
    Message('note_on', channel=4, note=38, velocity=100, time=0),
    Message('note_on', channel=4, note=38, velocity=0, time=30),
    Message('note_on', channel=4, note=40, velocity=100, time=0),
    Message('note_on', channel=4, note=40, velocity=0, time=30),
    Message('note_on', channel=4, note=28, velocity=100, time=0),
    Message('note_on', channel=4, note=28, velocity=0, time=30),
    Message('note_on', channel=4, note=28, velocity=100, time=0),
    Message('note_on', channel=4, note=28, velocity=0, time=30),
    Message('note_on', channel=4, note=28, velocity=100, time=0),
    Message('note_on', channel=4, note=28, velocity=0, time=30),
    Message('note_on', channel=4, note=28, velocity=100, time=0),
    Message('note_on', channel=4, note=28, velocity=0, time=30),
    Message('note_on', channel=4, note=35, velocity=100, time=0),
    Message('note_on', channel=4, note=35, velocity=0, time=120),
    Message('note_on', channel=4, note=38, velocity=100, time=0),
    Message('note_on', channel=4, note=38, velocity=0, time=30),
    Message('note_on', channel=4, note=40, velocity=100, time=0),
    Message('note_on', channel=4, note=40, velocity=0, time=30),
    Message('note_on', channel=4, note=28, velocity=100, time=0),
    Message('note_on', channel=4, note=28, velocity=0, time=30),
    Message('note_on', channel=4, note=28, velocity=100, time=0),
    Message('note_on', channel=4, note=28, velocity=0, time=30),
    Message('note_on', channel=4, note=28, velocity=100, time=0),
    Message('note_on', channel=4, note=28, velocity=0, time=30),
    Message('note_on', channel=4, note=28, velocity=100, time=0),
    Message('note_on', channel=4, note=28, velocity=0, time=30),
    Message('note_on', channel=4, note=43, velocity=100, time=0),
    Message('note_on', channel=4, note=43, velocity=0, time=30),
    Message('note_on', channel=4, note=40, velocity=100, time=0),
    Message('note_on', channel=4, note=40, velocity=0, time=30),
    Message('note_on', channel=4, note=28, velocity=100, time=0),
    Message('note_on', channel=4, note=28, velocity=0, time=30),
    Message('note_on', channel=4, note=28, velocity=100, time=0),
    Message('note_on', channel=4, note=28, velocity=0, time=30),
    Message('note_on', channel=4, note=28, velocity=100, time=0),
    Message('note_on', channel=4, note=28, velocity=0, time=30),
    Message('note_on', channel=4, note=28, velocity=100, time=0),
    Message('note_on', channel=4, note=28, velocity=0, time=30),
    Message('note_on', channel=4, note=28, velocity=100, time=0),
    Message('note_on', channel=4, note=28, velocity=0, time=30),
    Message('note_on', channel=4, note=28, velocity=100, time=0),
    Message('note_on', channel=4, note=28, velocity=0, time=30),
    Message('note_on', channel=4, note=28, velocity=100, time=0),
    Message('note_on', channel=4, note=28, velocity=0, time=30),
    Message('note_on', channel=4, note=28, velocity=100, time=0),
    Message('note_on', channel=4, note=28, velocity=0, time=30),
    Message('note_on', channel=4, note=38, velocity=100, time=0),
    Message('note_on', channel=4, note=38, velocity=0, time=30),
    Message('note_on', channel=4, note=40, velocity=100, time=0),
    Message('note_on', channel=4, note=40, velocity=0, time=30),
    Message('note_on', channel=4, note=28, velocity=100, time=0),
    Message('note_on', channel=4, note=28, velocity=0, time=30),
    Message('note_on', channel=4, note=28, velocity=100, time=0),
    Message('note_on', channel=4, note=28, velocity=0, time=30),
    Message('note_on', channel=4, note=28, velocity=100, time=0),
    Message('note_on', channel=4, note=28, velocity=0, time=30),
    Message('note_on', channel=4, note=28, velocity=100, time=0),
    Message('note_on', channel=4, note=28, velocity=0, time=30),
    Message('note_on', channel=4, note=38, velocity=100, time=0),
    Message('note_on', channel=4, note=38, velocity=0, time=30),
    Message('note_on', channel=4, note=40, velocity=100, time=0),
    Message('note_on', channel=4, note=40, velocity=0, time=30),
    Message('note_on', channel=4, note=28, velocity=100, time=0),
    Message('note_on', channel=4, note=28, velocity=0, time=30),
    Message('note_on', channel=4, note=28, velocity=100, time=0),
    Message('note_on', channel=4, note=28, velocity=0, time=30),
    Message('note_on', channel=4, note=28, velocity=100, time=0),
    Message('note_on', channel=4, note=28, velocity=0, time=30),
    Message('note_on', channel=4, note=28, velocity=100, time=0),
    Message('note_on', channel=4, note=28, velocity=0, time=30),
    Message('note_on', channel=4, note=35, velocity=100, time=0),
    Message('note_on', channel=4, note=35, velocity=0, time=120),
    Message('note_on', channel=4, note=38, velocity=100, time=0),
    Message('note_on', channel=4, note=38, velocity=0, time=30),
    Message('note_on', channel=4, note=40, velocity=100, time=0),
    Message('note_on', channel=4, note=40, velocity=0, time=30),
    Message('note_on', channel=4, note=28, velocity=100, time=0),
    Message('note_on', channel=4, note=28, velocity=0, time=30),
    Message('note_on', channel=4, note=28, velocity=100, time=0),
    Message('note_on', channel=4, note=28, velocity=0, time=30),
    Message('note_on', channel=4, note=28, velocity=100, time=0),
    Message('note_on', channel=4, note=28, velocity=0, time=30),
    Message('note_on', channel=4, note=28, velocity=100, time=0),
    Message('note_on', channel=4, note=28, velocity=0, time=30),
    Message('note_on', channel=4, note=43, velocity=100, time=0),
    Message('note_on', channel=4, note=43, velocity=0, time=30),
    Message('note_on', channel=4, note=40, velocity=100, time=0),
    Message('note_on', channel=4, note=40, velocity=0, time=30),
    Message('note_on', channel=4, note=28, velocity=100, time=0),
    Message('note_on', channel=4, note=28, velocity=0, time=30),
    Message('note_on', channel=4, note=28, velocity=100, time=0),
    Message('note_on', channel=4, note=28, velocity=0, time=30),
    Message('note_on', channel=4, note=28, velocity=100, time=0),
    Message('note_on', channel=4, note=28, velocity=0, time=30),
    Message('note_on', channel=4, note=28, velocity=100, time=0),
    Message('note_on', channel=4, note=28, velocity=0, time=30),
    Message('note_on', channel=4, note=28, velocity=100, time=0),
    Message('note_on', channel=4, note=28, velocity=0, time=30),
    Message('note_on', channel=4, note=28, velocity=100, time=0),
    Message('note_on', channel=4, note=28, velocity=0, time=30),
    Message('note_on', channel=4, note=28, velocity=100, time=0),
    Message('note_on', channel=4, note=28, velocity=0, time=30),
    Message('note_on', channel=4, note=28, velocity=100, time=0),
    Message('note_on', channel=4, note=28, velocity=0, time=30),
    Message('note_on', channel=4, note=38, velocity=100, time=0),
    Message('note_on', channel=4, note=38, velocity=0, time=30),
    Message('note_on', channel=4, note=40, velocity=100, time=0),
    Message('note_on', channel=4, note=40, velocity=0, time=30),
    Message('note_on', channel=4, note=28, velocity=100, time=0),
    Message('note_on', channel=4, note=28, velocity=0, time=30),
    Message('note_on', channel=4, note=28, velocity=100, time=0),
    Message('note_on', channel=4, note=28, velocity=0, time=30),
    Message('note_on', channel=4, note=28, velocity=100, time=0),
    Message('note_on', channel=4, note=28, velocity=0, time=30),
    Message('note_on', channel=4, note=28, velocity=100, time=0),
    Message('note_on', channel=4, note=28, velocity=0, time=30),
    Message('note_on', channel=4, note=38, velocity=100, time=0),
    Message('note_on', channel=4, note=38, velocity=0, time=30),
    Message('note_on', channel=4, note=40, velocity=100, time=0),
    Message('note_on', channel=4, note=40, velocity=0, time=30),
    Message('note_on', channel=4, note=28, velocity=100, time=0),
    Message('note_on', channel=4, note=28, velocity=0, time=30),
    Message('note_on', channel=4, note=28, velocity=100, time=0),
    Message('note_on', channel=4, note=28, velocity=0, time=30),
    Message('note_on', channel=4, note=28, velocity=100, time=0),
    Message('note_on', channel=4, note=28, velocity=0, time=30),
    Message('note_on', channel=4, note=28, velocity=100, time=0),
    Message('note_on', channel=4, note=28, velocity=0, time=30),
    Message('note_on', channel=4, note=35, velocity=100, time=0),
    Message('note_on', channel=4, note=35, velocity=0, time=120),
    Message('note_on', channel=4, note=38, velocity=100, time=0),
    Message('note_on', channel=4, note=38, velocity=0, time=30),
    Message('note_on', channel=4, note=40, velocity=100, time=0),
    Message('note_on', channel=4, note=40, velocity=0, time=30),
    Message('note_on', channel=4, note=28, velocity=100, time=0),
    Message('note_on', channel=4, note=28, velocity=0, time=30),
    Message('note_on', channel=4, note=28, velocity=100, time=0),
    Message('note_on', channel=4, note=28, velocity=0, time=30),
    Message('note_on', channel=4, note=28, velocity=100, time=0),
    Message('note_on', channel=4, note=28, velocity=0, time=30),
    Message('note_on', channel=4, note=28, velocity=100, time=0),
    Message('note_on', channel=4, note=28, velocity=0, time=30),
    Message('note_on', channel=4, note=43, velocity=100, time=0),
    Message('note_on', channel=4, note=43, velocity=0, time=30),
    Message('note_on', channel=4, note=40, velocity=100, time=0),
    Message('note_on', channel=4, note=40, velocity=0, time=30),
    Message('note_on', channel=4, note=28, velocity=100, time=0),
    Message('note_on', channel=4, note=28, velocity=0, time=30),
    Message('note_on', channel=4, note=28, velocity=100, time=0),
    Message('note_on', channel=4, note=28, velocity=0, time=30),
    Message('note_on', channel=4, note=28, velocity=100, time=0),
    Message('note_on', channel=4, note=28, velocity=0, time=30),
    Message('note_on', channel=4, note=28, velocity=100, time=0),
    Message('note_on', channel=4, note=28, velocity=0, time=30),
    Message('note_on', channel=4, note=28, velocity=100, time=0),
    Message('note_on', channel=4, note=28, velocity=0, time=30),
    Message('note_on', channel=4, note=28, velocity=100, time=0),
    Message('note_on', channel=4, note=28, velocity=0, time=30),
    Message('note_on', channel=4, note=28, velocity=100, time=0),
    Message('note_on', channel=4, note=28, velocity=0, time=30),
    Message('note_on', channel=4, note=28, velocity=100, time=0),
    Message('note_on', channel=4, note=28, velocity=0, time=30),
    Message('note_on', channel=4, note=38, velocity=100, time=0),
    Message('note_on', channel=4, note=38, velocity=0, time=30),
    Message('note_on', channel=4, note=40, velocity=100, time=0),
    Message('note_on', channel=4, note=40, velocity=0, time=30),
    Message('note_on', channel=4, note=28, velocity=100, time=0),
    Message('note_on', channel=4, note=28, velocity=0, time=30),
    Message('note_on', channel=4, note=28, velocity=100, time=0),
    Message('note_on', channel=4, note=28, velocity=0, time=30),
    Message('note_on', channel=4, note=28, velocity=100, time=0),
    Message('note_on', channel=4, note=28, velocity=0, time=30),
    Message('note_on', channel=4, note=28, velocity=100, time=0),
    Message('note_on', channel=4, note=28, velocity=0, time=30),
    Message('note_on', channel=4, note=38, velocity=100, time=0),
    Message('note_on', channel=4, note=38, velocity=0, time=30),
    Message('note_on', channel=4, note=40, velocity=100, time=0),
    Message('note_on', channel=4, note=40, velocity=0, time=30),
    Message('note_on', channel=4, note=28, velocity=100, time=0),
    Message('note_on', channel=4, note=28, velocity=0, time=30),
    Message('note_on', channel=4, note=28, velocity=100, time=0),
    Message('note_on', channel=4, note=28, velocity=0, time=30),
    Message('note_on', channel=4, note=28, velocity=100, time=0),
    Message('note_on', channel=4, note=28, velocity=0, time=30),
    Message('note_on', channel=4, note=28, velocity=100, time=0),
    Message('note_on', channel=4, note=28, velocity=0, time=30),
    Message('note_on', channel=4, note=35, velocity=100, time=0),
    Message('note_on', channel=4, note=35, velocity=0, time=120),
    Message('note_on', channel=4, note=38, velocity=100, time=0),
    Message('note_on', channel=4, note=38, velocity=0, time=30),
    Message('note_on', channel=4, note=40, velocity=100, time=0),
    Message('note_on', channel=4, note=40, velocity=0, time=30),
    Message('note_on', channel=4, note=28, velocity=100, time=0),
    Message('note_on', channel=4, note=28, velocity=0, time=30),
    Message('note_on', channel=4, note=28, velocity=100, time=0),
    Message('note_on', channel=4, note=28, velocity=0, time=30),
    Message('note_on', channel=4, note=28, velocity=100, time=0),
    Message('note_on', channel=4, note=28, velocity=0, time=30),
    Message('note_on', channel=4, note=28, velocity=100, time=0),
    Message('note_on', channel=4, note=28, velocity=0, time=30),
    Message('note_on', channel=4, note=43, velocity=100, time=0),
    Message('note_on', channel=4, note=43, velocity=0, time=30),
    Message('note_on', channel=4, note=40, velocity=100, time=0),
    Message('note_on', channel=4, note=40, velocity=0, time=30),
    Message('note_on', channel=4, note=28, velocity=100, time=0),
    Message('note_on', channel=4, note=28, velocity=0, time=30),
    Message('note_on', channel=4, note=28, velocity=100, time=0),
    Message('note_on', channel=4, note=28, velocity=0, time=30),
    Message('note_on', channel=4, note=28, velocity=100, time=0),
    Message('note_on', channel=4, note=28, velocity=0, time=30),
    Message('note_on', channel=4, note=28, velocity=100, time=0),
    Message('note_on', channel=4, note=28, velocity=0, time=30),
    Message('note_on', channel=4, note=28, velocity=100, time=0),
    Message('note_on', channel=4, note=28, velocity=0, time=30),
    Message('note_on', channel=4, note=28, velocity=100, time=0),
    Message('note_on', channel=4, note=28, velocity=0, time=30),
    Message('note_on', channel=4, note=28, velocity=100, time=0),
    Message('note_on', channel=4, note=28, velocity=0, time=30),
    Message('note_on', channel=4, note=28, velocity=100, time=0),
    Message('note_on', channel=4, note=28, velocity=0, time=30),
    Message('note_on', channel=4, note=38, velocity=100, time=0),
    Message('note_on', channel=4, note=38, velocity=0, time=30),
    Message('note_on', channel=4, note=40, velocity=100, time=0),
    Message('note_on', channel=4, note=40, velocity=0, time=30),
    Message('note_on', channel=4, note=28, velocity=100, time=0),
    Message('note_on', channel=4, note=28, velocity=0, time=30),
    Message('note_on', channel=4, note=28, velocity=100, time=0),
    Message('note_on', channel=4, note=28, velocity=0, time=30),
    Message('note_on', channel=4, note=28, velocity=100, time=0),
    Message('note_on', channel=4, note=28, velocity=0, time=30),
    Message('note_on', channel=4, note=28, velocity=100, time=0),
    Message('note_on', channel=4, note=28, velocity=0, time=30),
    Message('note_on', channel=4, note=38, velocity=100, time=0),
    Message('note_on', channel=4, note=38, velocity=0, time=30),
    Message('note_on', channel=4, note=40, velocity=100, time=0),
    Message('note_on', channel=4, note=40, velocity=0, time=30),
    Message('note_on', channel=4, note=28, velocity=100, time=0),
    Message('note_on', channel=4, note=28, velocity=0, time=30),
    Message('note_on', channel=4, note=28, velocity=100, time=0),
    Message('note_on', channel=4, note=28, velocity=0, time=30),
    Message('note_on', channel=4, note=28, velocity=100, time=0),
    Message('note_on', channel=4, note=28, velocity=0, time=30),
    Message('note_on', channel=4, note=28, velocity=100, time=0),
    Message('note_on', channel=4, note=28, velocity=0, time=30),
    Message('note_on', channel=4, note=35, velocity=100, time=0),
    Message('note_on', channel=4, note=35, velocity=0, time=120),
    Message('note_on', channel=4, note=38, velocity=100, time=0),
    Message('note_on', channel=4, note=38, velocity=0, time=30),
    Message('note_on', channel=4, note=40, velocity=100, time=0),
    Message('note_on', channel=4, note=40, velocity=0, time=30),
    Message('note_on', channel=4, note=28, velocity=100, time=0),
    Message('note_on', channel=4, note=28, velocity=0, time=30),
    Message('note_on', channel=4, note=28, velocity=100, time=0),
    Message('note_on', channel=4, note=28, velocity=0, time=30),
    Message('note_on', channel=4, note=28, velocity=100, time=0),
    Message('note_on', channel=4, note=28, velocity=0, time=30),
    Message('note_on', channel=4, note=28, velocity=100, time=0),
    Message('note_on', channel=4, note=28, velocity=0, time=30),
    Message('note_on', channel=4, note=43, velocity=100, time=0),
    Message('note_on', channel=4, note=43, velocity=0, time=30),
    Message('note_on', channel=4, note=40, velocity=100, time=0),
    Message('note_on', channel=4, note=40, velocity=0, time=30),
    Message('note_on', channel=4, note=28, velocity=100, time=0),
    Message('note_on', channel=4, note=28, velocity=0, time=30),
    Message('note_on', channel=4, note=28, velocity=100, time=0),
    Message('note_on', channel=4, note=28, velocity=0, time=30),
    Message('note_on', channel=4, note=28, velocity=100, time=0),
    Message('note_on', channel=4, note=28, velocity=0, time=30),
    Message('note_on', channel=4, note=28, velocity=100, time=0),
    Message('note_on', channel=4, note=28, velocity=0, time=30),
    Message('note_on', channel=4, note=28, velocity=100, time=0),
    Message('note_on', channel=4, note=28, velocity=0, time=30),
    Message('note_on', channel=4, note=28, velocity=100, time=0),
    Message('note_on', channel=4, note=28, velocity=0, time=30),
    Message('note_on', channel=4, note=28, velocity=100, time=0),
    Message('note_on', channel=4, note=28, velocity=0, time=30),
    Message('note_on', channel=4, note=28, velocity=100, time=0),
    Message('note_on', channel=4, note=28, velocity=0, time=30),
    Message('note_on', channel=4, note=38, velocity=100, time=0),
    Message('note_on', channel=4, note=38, velocity=0, time=30),
    Message('note_on', channel=4, note=40, velocity=100, time=0),
    Message('note_on', channel=4, note=40, velocity=0, time=30),
    Message('note_on', channel=4, note=28, velocity=100, time=0),
    Message('note_on', channel=4, note=28, velocity=0, time=30),
    Message('note_on', channel=4, note=28, velocity=100, time=0),
    Message('note_on', channel=4, note=28, velocity=0, time=30),
    Message('note_on', channel=4, note=28, velocity=100, time=0),
    Message('note_on', channel=4, note=28, velocity=0, time=30),
    Message('note_on', channel=4, note=28, velocity=100, time=0),
    Message('note_on', channel=4, note=28, velocity=0, time=30),
    Message('note_on', channel=4, note=38, velocity=100, time=0),
    Message('note_on', channel=4, note=38, velocity=0, time=30),
    Message('note_on', channel=4, note=40, velocity=100, time=0),
    Message('note_on', channel=4, note=40, velocity=0, time=30),
    Message('note_on', channel=4, note=28, velocity=100, time=0),
    Message('note_on', channel=4, note=28, velocity=0, time=30),
    Message('note_on', channel=4, note=28, velocity=100, time=0),
    Message('note_on', channel=4, note=28, velocity=0, time=30),
    Message('note_on', channel=4, note=28, velocity=100, time=0),
    Message('note_on', channel=4, note=28, velocity=0, time=30),
    Message('note_on', channel=4, note=28, velocity=100, time=0),
    Message('note_on', channel=4, note=28, velocity=0, time=30),
    Message('note_on', channel=4, note=35, velocity=100, time=0),
    Message('note_on', channel=4, note=35, velocity=0, time=120),
    Message('note_on', channel=4, note=38, velocity=100, time=0),
    Message('note_on', channel=4, note=38, velocity=0, time=30),
    Message('note_on', channel=4, note=40, velocity=100, time=0),
    Message('note_on', channel=4, note=40, velocity=0, time=30),
    Message('note_on', channel=4, note=28, velocity=100, time=0),
    Message('note_on', channel=4, note=28, velocity=0, time=30),
    Message('note_on', channel=4, note=28, velocity=100, time=0),
    Message('note_on', channel=4, note=28, velocity=0, time=30),
    Message('note_on', channel=4, note=28, velocity=100, time=0),
    Message('note_on', channel=4, note=28, velocity=0, time=30),
    Message('note_on', channel=4, note=28, velocity=100, time=0),
    Message('note_on', channel=4, note=28, velocity=0, time=30),
    Message('note_on', channel=4, note=43, velocity=100, time=0),
    Message('note_on', channel=4, note=43, velocity=0, time=30),
    Message('note_on', channel=4, note=40, velocity=100, time=0),
    Message('note_on', channel=4, note=40, velocity=0, time=30),
    Message('note_on', channel=4, note=28, velocity=100, time=0),
    Message('note_on', channel=4, note=28, velocity=0, time=30),
    Message('note_on', channel=4, note=28, velocity=100, time=0),
    Message('note_on', channel=4, note=28, velocity=0, time=30),
    Message('note_on', channel=4, note=28, velocity=100, time=0),
    Message('note_on', channel=4, note=28, velocity=0, time=30),
    Message('note_on', channel=4, note=28, velocity=100, time=0),
    Message('note_on', channel=4, note=28, velocity=0, time=30),
    Message('note_on', channel=4, note=28, velocity=100, time=0),
    Message('note_on', channel=4, note=28, velocity=0, time=30),
    Message('note_on', channel=4, note=28, velocity=100, time=0),
    Message('note_on', channel=4, note=28, velocity=0, time=30),
    Message('note_on', channel=4, note=28, velocity=100, time=0),
    Message('note_on', channel=4, note=28, velocity=0, time=30),
    Message('note_on', channel=4, note=28, velocity=100, time=0),
    Message('note_on', channel=4, note=28, velocity=0, time=30),
    Message('note_on', channel=4, note=38, velocity=100, time=0),
    Message('note_on', channel=4, note=38, velocity=0, time=30),
    Message('note_on', channel=4, note=40, velocity=100, time=0),
    Message('note_on', channel=4, note=40, velocity=0, time=30),
    Message('note_on', channel=4, note=28, velocity=100, time=0),
    Message('note_on', channel=4, note=28, velocity=0, time=30),
    Message('note_on', channel=4, note=28, velocity=100, time=0),
    Message('note_on', channel=4, note=28, velocity=0, time=30),
    Message('note_on', channel=4, note=28, velocity=100, time=0),
    Message('note_on', channel=4, note=28, velocity=0, time=30),
    Message('note_on', channel=4, note=28, velocity=100, time=0),
    Message('note_on', channel=4, note=28, velocity=0, time=30),
    Message('note_on', channel=4, note=38, velocity=100, time=0),
    Message('note_on', channel=4, note=38, velocity=0, time=30),
    Message('note_on', channel=4, note=40, velocity=100, time=0),
    Message('note_on', channel=4, note=40, velocity=0, time=30),
    Message('note_on', channel=4, note=28, velocity=100, time=0),
    Message('note_on', channel=4, note=28, velocity=0, time=30),
    Message('note_on', channel=4, note=28, velocity=100, time=0),
    Message('note_on', channel=4, note=28, velocity=0, time=30),
    Message('note_on', channel=4, note=28, velocity=100, time=0),
    Message('note_on', channel=4, note=28, velocity=0, time=30),
    Message('note_on', channel=4, note=28, velocity=100, time=0),
    Message('note_on', channel=4, note=28, velocity=0, time=30),
    Message('note_on', channel=4, note=35, velocity=100, time=0),
    Message('note_on', channel=4, note=35, velocity=0, time=120),
    Message('note_on', channel=4, note=30, velocity=100, time=0),
    Message('note_on', channel=4, note=30, velocity=0, time=60),
    Message('note_on', channel=4, note=31, velocity=100, time=0),
    Message('note_on', channel=4, note=31, velocity=0, time=60),
    Message('note_on', channel=4, note=28, velocity=100, time=0),
    Message('note_on', channel=4, note=28, velocity=0, time=60),
    Message('note_on', channel=4, note=30, velocity=100, time=0),
    Message('note_on', channel=4, note=30, velocity=0, time=60),
    Message('note_on', channel=4, note=28, velocity=100, time=0),
    Message('note_on', channel=4, note=28, velocity=0, time=60),
    Message('note_on', channel=4, note=28, velocity=100, time=0),
    Message('note_on', channel=4, note=28, velocity=0, time=60),
    Message('note_on', channel=4, note=30, velocity=100, time=0),
    Message('note_on', channel=4, note=30, velocity=0, time=60),
    Message('note_on', channel=4, note=31, velocity=100, time=0),
    Message('note_on', channel=4, note=31, velocity=0, time=60),
    Message('note_on', channel=4, note=28, velocity=100, time=0),
    Message('note_on', channel=4, note=28, velocity=0, time=60),
    Message('note_on', channel=4, note=28, velocity=100, time=0),
    Message('note_on', channel=4, note=28, velocity=0, time=60),
    Message('note_on', channel=4, note=31, velocity=100, time=0),
    Message('note_on', channel=4, note=31, velocity=0, time=60),
    Message('note_on', channel=4, note=30, velocity=100, time=0),
    Message('note_on', channel=4, note=30, velocity=0, time=60),
    Message('note_on', channel=4, note=28, velocity=100, time=0),
    Message('note_on', channel=4, note=28, velocity=0, time=60),
    Message('note_on', channel=4, note=28, velocity=100, time=0),
    Message('note_on', channel=4, note=28, velocity=0, time=60),
    Message('note_on', channel=4, note=30, velocity=100, time=0),
    Message('note_on', channel=4, note=30, velocity=0, time=60),
    Message('note_on', channel=4, note=31, velocity=100, time=0),
    Message('note_on', channel=4, note=31, velocity=0, time=60),
    Message('note_on', channel=4, note=38, velocity=100, time=0),
    Message('note_on', channel=4, note=38, velocity=0, time=30),
    Message('note_on', channel=4, note=40, velocity=100, time=0),
    Message('note_on', channel=4, note=40, velocity=0, time=30),
    Message('note_on', channel=4, note=28, velocity=100, time=0),
    Message('note_on', channel=4, note=28, velocity=0, time=30),
    Message('note_on', channel=4, note=28, velocity=100, time=0),
    Message('note_on', channel=4, note=28, velocity=0, time=30),
    Message('note_on', channel=4, note=28, velocity=100, time=0),
    Message('note_on', channel=4, note=28, velocity=0, time=30),
    Message('note_on', channel=4, note=28, velocity=100, time=0),
    Message('note_on', channel=4, note=28, velocity=0, time=30),
    Message('note_on', channel=4, note=43, velocity=100, time=0),
    Message('note_on', channel=4, note=43, velocity=0, time=30),
    Message('note_on', channel=4, note=40, velocity=100, time=0),
    Message('note_on', channel=4, note=40, velocity=0, time=30),
    Message('note_on', channel=4, note=28, velocity=100, time=0),
    Message('note_on', channel=4, note=28, velocity=0, time=30),
    Message('note_on', channel=4, note=28, velocity=100, time=0),
    Message('note_on', channel=4, note=28, velocity=0, time=30),
    Message('note_on', channel=4, note=28, velocity=100, time=0),
    Message('note_on', channel=4, note=28, velocity=0, time=30),
    Message('note_on', channel=4, note=28, velocity=100, time=0),
    Message('note_on', channel=4, note=28, velocity=0, time=30),
    Message('note_on', channel=4, note=28, velocity=100, time=0),
    Message('note_on', channel=4, note=28, velocity=0, time=30),
    Message('note_on', channel=4, note=28, velocity=100, time=0),
    Message('note_on', channel=4, note=28, velocity=0, time=30),
    Message('note_on', channel=4, note=28, velocity=100, time=0),
    Message('note_on', channel=4, note=28, velocity=0, time=30),
    Message('note_on', channel=4, note=28, velocity=100, time=0),
    Message('note_on', channel=4, note=28, velocity=0, time=30),
    Message('note_on', channel=4, note=38, velocity=100, time=0),
    Message('note_on', channel=4, note=38, velocity=0, time=30),
    Message('note_on', channel=4, note=40, velocity=100, time=0),
    Message('note_on', channel=4, note=40, velocity=0, time=30),
    Message('note_on', channel=4, note=28, velocity=100, time=0),
    Message('note_on', channel=4, note=28, velocity=0, time=30),
    Message('note_on', channel=4, note=28, velocity=100, time=0),
    Message('note_on', channel=4, note=28, velocity=0, time=30),
    Message('note_on', channel=4, note=28, velocity=100, time=0),
    Message('note_on', channel=4, note=28, velocity=0, time=30),
    Message('note_on', channel=4, note=28, velocity=100, time=0),
    Message('note_on', channel=4, note=28, velocity=0, time=30),
    Message('note_on', channel=4, note=38, velocity=100, time=0),
    Message('note_on', channel=4, note=38, velocity=0, time=30),
    Message('note_on', channel=4, note=40, velocity=100, time=0),
    Message('note_on', channel=4, note=40, velocity=0, time=30),
    Message('note_on', channel=4, note=28, velocity=100, time=0),
    Message('note_on', channel=4, note=28, velocity=0, time=30),
    Message('note_on', channel=4, note=28, velocity=100, time=0),
    Message('note_on', channel=4, note=28, velocity=0, time=30),
    Message('note_on', channel=4, note=28, velocity=100, time=0),
    Message('note_on', channel=4, note=28, velocity=0, time=30),
    Message('note_on', channel=4, note=28, velocity=100, time=0),
    Message('note_on', channel=4, note=28, velocity=0, time=30),
    Message('note_on', channel=4, note=31, velocity=100, time=0),
    Message('note_on', channel=4, note=31, velocity=0, time=120),
    Message('note_on', channel=4, note=30, velocity=100, time=0),
    Message('note_on', channel=4, note=30, velocity=0, time=60),
    Message('note_on', channel=4, note=31, velocity=100, time=0),
    Message('note_on', channel=4, note=31, velocity=0, time=60),
    Message('note_on', channel=4, note=28, velocity=100, time=0),
    Message('note_on', channel=4, note=28, velocity=0, time=60),
    Message('note_on', channel=4, note=30, velocity=100, time=0),
    Message('note_on', channel=4, note=30, velocity=0, time=60),
    Message('note_on', channel=4, note=28, velocity=100, time=0),
    Message('note_on', channel=4, note=28, velocity=0, time=60),
    Message('note_on', channel=4, note=28, velocity=100, time=0),
    Message('note_on', channel=4, note=28, velocity=0, time=60),
    Message('note_on', channel=4, note=30, velocity=100, time=0),
    Message('note_on', channel=4, note=30, velocity=0, time=60),
    Message('note_on', channel=4, note=31, velocity=100, time=0),
    Message('note_on', channel=4, note=31, velocity=0, time=60),
    Message('note_on', channel=4, note=28, velocity=100, time=0),
    Message('note_on', channel=4, note=28, velocity=0, time=60),
    Message('note_on', channel=4, note=28, velocity=100, time=0),
    Message('note_on', channel=4, note=28, velocity=0, time=60),
    Message('note_on', channel=4, note=31, velocity=100, time=0),
    Message('note_on', channel=4, note=31, velocity=0, time=60),
    Message('note_on', channel=4, note=30, velocity=100, time=0),
    Message('note_on', channel=4, note=30, velocity=0, time=60),
    Message('note_on', channel=4, note=28, velocity=100, time=0),
    Message('note_on', channel=4, note=28, velocity=0, time=60),
    Message('note_on', channel=4, note=28, velocity=100, time=0),
    Message('note_on', channel=4, note=28, velocity=0, time=60),
    Message('note_on', channel=4, note=30, velocity=100, time=0),
    Message('note_on', channel=4, note=30, velocity=0, time=60),
    Message('note_on', channel=4, note=31, velocity=100, time=0),
    Message('note_on', channel=4, note=31, velocity=0, time=60),
    Message('note_on', channel=4, note=38, velocity=100, time=0),
    Message('note_on', channel=4, note=38, velocity=0, time=30),
    Message('note_on', channel=4, note=40, velocity=100, time=0),
    Message('note_on', channel=4, note=40, velocity=0, time=30),
    Message('note_on', channel=4, note=28, velocity=100, time=0),
    Message('note_on', channel=4, note=28, velocity=0, time=30),
    Message('note_on', channel=4, note=28, velocity=100, time=0),
    Message('note_on', channel=4, note=28, velocity=0, time=30),
    Message('note_on', channel=4, note=28, velocity=100, time=0),
    Message('note_on', channel=4, note=28, velocity=0, time=30),
    Message('note_on', channel=4, note=28, velocity=100, time=0),
    Message('note_on', channel=4, note=28, velocity=0, time=30),
    Message('note_on', channel=4, note=43, velocity=100, time=0),
    Message('note_on', channel=4, note=43, velocity=0, time=30),
    Message('note_on', channel=4, note=40, velocity=100, time=0),
    Message('note_on', channel=4, note=40, velocity=0, time=30),
    Message('note_on', channel=4, note=28, velocity=100, time=0),
    Message('note_on', channel=4, note=28, velocity=0, time=30),
    Message('note_on', channel=4, note=28, velocity=100, time=0),
    Message('note_on', channel=4, note=28, velocity=0, time=30),
    Message('note_on', channel=4, note=28, velocity=100, time=0),
    Message('note_on', channel=4, note=28, velocity=0, time=30),
    Message('note_on', channel=4, note=28, velocity=100, time=0),
    Message('note_on', channel=4, note=28, velocity=0, time=30),
    Message('note_on', channel=4, note=28, velocity=100, time=0),
    Message('note_on', channel=4, note=28, velocity=0, time=30),
    Message('note_on', channel=4, note=28, velocity=100, time=0),
    Message('note_on', channel=4, note=28, velocity=0, time=30),
    Message('note_on', channel=4, note=28, velocity=100, time=0),
    Message('note_on', channel=4, note=28, velocity=0, time=30),
    Message('note_on', channel=4, note=28, velocity=100, time=0),
    Message('note_on', channel=4, note=28, velocity=0, time=30),
    Message('note_on', channel=4, note=38, velocity=100, time=0),
    Message('note_on', channel=4, note=38, velocity=0, time=30),
    Message('note_on', channel=4, note=40, velocity=100, time=0),
    Message('note_on', channel=4, note=40, velocity=0, time=30),
    Message('note_on', channel=4, note=28, velocity=100, time=0),
    Message('note_on', channel=4, note=28, velocity=0, time=30),
    Message('note_on', channel=4, note=28, velocity=100, time=0),
    Message('note_on', channel=4, note=28, velocity=0, time=30),
    Message('note_on', channel=4, note=28, velocity=100, time=0),
    Message('note_on', channel=4, note=28, velocity=0, time=30),
    Message('note_on', channel=4, note=28, velocity=100, time=0),
    Message('note_on', channel=4, note=28, velocity=0, time=30),
    Message('note_on', channel=4, note=38, velocity=100, time=0),
    Message('note_on', channel=4, note=38, velocity=0, time=30),
    Message('note_on', channel=4, note=40, velocity=100, time=0),
    Message('note_on', channel=4, note=40, velocity=0, time=30),
    Message('note_on', channel=4, note=28, velocity=100, time=0),
    Message('note_on', channel=4, note=28, velocity=0, time=30),
    Message('note_on', channel=4, note=28, velocity=100, time=0),
    Message('note_on', channel=4, note=28, velocity=0, time=30),
    Message('note_on', channel=4, note=28, velocity=100, time=0),
    Message('note_on', channel=4, note=28, velocity=0, time=30),
    Message('note_on', channel=4, note=28, velocity=100, time=0),
    Message('note_on', channel=4, note=28, velocity=0, time=30),
    Message('note_on', channel=4, note=31, velocity=100, time=0),
    Message('note_on', channel=4, note=31, velocity=0, time=120),
    Message('note_on', channel=4, note=30, velocity=100, time=0),
    Message('note_on', channel=4, note=30, velocity=0, time=60),
    Message('note_on', channel=4, note=31, velocity=100, time=0),
    Message('note_on', channel=4, note=31, velocity=0, time=60),
    Message('note_on', channel=4, note=28, velocity=100, time=0),
    Message('note_on', channel=4, note=28, velocity=0, time=60),
    Message('note_on', channel=4, note=30, velocity=100, time=0),
    Message('note_on', channel=4, note=30, velocity=0, time=60),
    Message('note_on', channel=4, note=28, velocity=100, time=0),
    Message('note_on', channel=4, note=28, velocity=0, time=60),
    Message('note_on', channel=4, note=28, velocity=100, time=0),
    Message('note_on', channel=4, note=28, velocity=0, time=60),
    Message('note_on', channel=4, note=30, velocity=100, time=0),
    Message('note_on', channel=4, note=30, velocity=0, time=60),
    Message('note_on', channel=4, note=31, velocity=100, time=0),
    Message('note_on', channel=4, note=31, velocity=0, time=60),
    Message('note_on', channel=4, note=28, velocity=100, time=0),
    Message('note_on', channel=4, note=28, velocity=0, time=60),
    Message('note_on', channel=4, note=28, velocity=100, time=0),
    Message('note_on', channel=4, note=28, velocity=0, time=60),
    Message('note_on', channel=4, note=31, velocity=100, time=0),
    Message('note_on', channel=4, note=31, velocity=0, time=60),
    Message('note_on', channel=4, note=30, velocity=100, time=0),
    Message('note_on', channel=4, note=30, velocity=0, time=60),
    Message('note_on', channel=4, note=28, velocity=100, time=0),
    Message('note_on', channel=4, note=28, velocity=0, time=60),
    Message('note_on', channel=4, note=28, velocity=100, time=0),
    Message('note_on', channel=4, note=28, velocity=0, time=60),
    Message('note_on', channel=4, note=30, velocity=100, time=0),
    Message('note_on', channel=4, note=30, velocity=0, time=60),
    Message('note_on', channel=4, note=31, velocity=100, time=0),
    Message('note_on', channel=4, note=31, velocity=0, time=60),
    Message('note_on', channel=4, note=38, velocity=100, time=0),
    Message('note_on', channel=4, note=38, velocity=0, time=30),
    Message('note_on', channel=4, note=40, velocity=100, time=0),
    Message('note_on', channel=4, note=40, velocity=0, time=30),
    Message('note_on', channel=4, note=28, velocity=100, time=0),
    Message('note_on', channel=4, note=28, velocity=0, time=30),
    Message('note_on', channel=4, note=28, velocity=100, time=0),
    Message('note_on', channel=4, note=28, velocity=0, time=30),
    Message('note_on', channel=4, note=28, velocity=100, time=0),
    Message('note_on', channel=4, note=28, velocity=0, time=30),
    Message('note_on', channel=4, note=28, velocity=100, time=0),
    Message('note_on', channel=4, note=28, velocity=0, time=30),
    Message('note_on', channel=4, note=43, velocity=100, time=0),
    Message('note_on', channel=4, note=43, velocity=0, time=30),
    Message('note_on', channel=4, note=40, velocity=100, time=0),
    Message('note_on', channel=4, note=40, velocity=0, time=30),
    Message('note_on', channel=4, note=28, velocity=100, time=0),
    Message('note_on', channel=4, note=28, velocity=0, time=30),
    Message('note_on', channel=4, note=28, velocity=100, time=0),
    Message('note_on', channel=4, note=28, velocity=0, time=30),
    Message('note_on', channel=4, note=28, velocity=100, time=0),
    Message('note_on', channel=4, note=28, velocity=0, time=30),
    Message('note_on', channel=4, note=28, velocity=100, time=0),
    Message('note_on', channel=4, note=28, velocity=0, time=30),
    Message('note_on', channel=4, note=28, velocity=100, time=0),
    Message('note_on', channel=4, note=28, velocity=0, time=30),
    Message('note_on', channel=4, note=28, velocity=100, time=0),
    Message('note_on', channel=4, note=28, velocity=0, time=30),
    Message('note_on', channel=4, note=28, velocity=100, time=0),
    Message('note_on', channel=4, note=28, velocity=0, time=30),
    Message('note_on', channel=4, note=28, velocity=100, time=0),
    Message('note_on', channel=4, note=28, velocity=0, time=30),
    Message('note_on', channel=4, note=38, velocity=100, time=0),
    Message('note_on', channel=4, note=38, velocity=0, time=30),
    Message('note_on', channel=4, note=40, velocity=100, time=0),
    Message('note_on', channel=4, note=40, velocity=0, time=30),
    Message('note_on', channel=4, note=28, velocity=100, time=0),
    Message('note_on', channel=4, note=28, velocity=0, time=30),
    Message('note_on', channel=4, note=28, velocity=100, time=0),
    Message('note_on', channel=4, note=28, velocity=0, time=30),
    Message('note_on', channel=4, note=28, velocity=100, time=0),
    Message('note_on', channel=4, note=28, velocity=0, time=30),
    Message('note_on', channel=4, note=28, velocity=100, time=0),
    Message('note_on', channel=4, note=28, velocity=0, time=30),
    Message('note_on', channel=4, note=38, velocity=100, time=0),
    Message('note_on', channel=4, note=38, velocity=0, time=30),
    Message('note_on', channel=4, note=40, velocity=100, time=0),
    Message('note_on', channel=4, note=40, velocity=0, time=30),
    Message('note_on', channel=4, note=28, velocity=100, time=0),
    Message('note_on', channel=4, note=28, velocity=0, time=30),
    Message('note_on', channel=4, note=28, velocity=100, time=0),
    Message('note_on', channel=4, note=28, velocity=0, time=30),
    Message('note_on', channel=4, note=28, velocity=100, time=0),
    Message('note_on', channel=4, note=28, velocity=0, time=30),
    Message('note_on', channel=4, note=28, velocity=100, time=0),
    Message('note_on', channel=4, note=28, velocity=0, time=30),
    Message('note_on', channel=4, note=31, velocity=100, time=0),
    Message('note_on', channel=4, note=31, velocity=0, time=120),
    Message('note_on', channel=4, note=30, velocity=100, time=0),
    Message('note_on', channel=4, note=30, velocity=0, time=60),
    Message('note_on', channel=4, note=31, velocity=100, time=0),
    Message('note_on', channel=4, note=31, velocity=0, time=60),
    Message('note_on', channel=4, note=28, velocity=100, time=0),
    Message('note_on', channel=4, note=28, velocity=0, time=60),
    Message('note_on', channel=4, note=30, velocity=100, time=0),
    Message('note_on', channel=4, note=30, velocity=0, time=60),
    Message('note_on', channel=4, note=28, velocity=100, time=0),
    Message('note_on', channel=4, note=28, velocity=0, time=60),
    Message('note_on', channel=4, note=28, velocity=100, time=0),
    Message('note_on', channel=4, note=28, velocity=0, time=60),
    Message('note_on', channel=4, note=30, velocity=100, time=0),
    Message('note_on', channel=4, note=30, velocity=0, time=60),
    Message('note_on', channel=4, note=31, velocity=100, time=0),
    Message('note_on', channel=4, note=31, velocity=0, time=60),
    Message('note_on', channel=4, note=28, velocity=100, time=0),
    Message('note_on', channel=4, note=28, velocity=0, time=60),
    Message('note_on', channel=4, note=28, velocity=100, time=0),
    Message('note_on', channel=4, note=28, velocity=0, time=60),
    Message('note_on', channel=4, note=31, velocity=100, time=0),
    Message('note_on', channel=4, note=31, velocity=0, time=60),
    Message('note_on', channel=4, note=30, velocity=100, time=0),
    Message('note_on', channel=4, note=30, velocity=0, time=60),
    Message('note_on', channel=4, note=28, velocity=100, time=0),
    Message('note_on', channel=4, note=28, velocity=0, time=60),
    Message('note_on', channel=4, note=28, velocity=100, time=0),
    Message('note_on', channel=4, note=28, velocity=0, time=60),
    Message('note_on', channel=4, note=30, velocity=100, time=0),
    Message('note_on', channel=4, note=30, velocity=0, time=60),
    Message('note_on', channel=4, note=38, velocity=100, time=0),
    Message('note_on', channel=4, note=38, velocity=0, time=30),
    Message('note_on', channel=4, note=39, velocity=100, time=0),
    Message('note_on', channel=4, note=39, velocity=0, time=30),
    Message('note_on', channel=4, note=40, velocity=100, time=0),
    Message('note_on', channel=4, note=40, velocity=0, time=60),
    Message('note_on', channel=4, note=28, velocity=100, time=0),
    Message('note_on', channel=4, note=28, velocity=0, time=30),
    Message('note_on', channel=4, note=28, velocity=100, time=0),
    Message('note_on', channel=4, note=28, velocity=0, time=30),
    Message('note_on', channel=4, note=28, velocity=100, time=0),
    Message('note_on', channel=4, note=28, velocity=0, time=60),
    Message('note_on', channel=4, note=47, velocity=100, time=0),
    Message('note_on', channel=4, note=43, velocity=100, time=0),
    Message('note_on', channel=4, note=43, velocity=0, time=60),
    Message('note_on', channel=4, note=47, velocity=0, time=0),
    Message('note_on', channel=4, note=28, velocity=100, time=0),
    Message('note_on', channel=4, note=28, velocity=0, time=60),
    Message('note_on', channel=4, note=42, velocity=100, time=0),
    Message('note_on', channel=4, note=46, velocity=100, time=0),
    Message('note_on', channel=4, note=46, velocity=0, time=60),
    Message('note_on', channel=4, note=42, velocity=0, time=0),
    Message('note_on', channel=4, note=28, velocity=100, time=0),
    Message('note_on', channel=4, note=28, velocity=0, time=60),
    Message('note_on', channel=4, note=38, velocity=100, time=0),
    Message('note_on', channel=4, note=38, velocity=0, time=30),
    Message('note_on', channel=4, note=39, velocity=100, time=0),
    Message('note_on', channel=4, note=39, velocity=0, time=30),
    Message('note_on', channel=4, note=40, velocity=100, time=1),
    Message('note_on', channel=4, note=40, velocity=0, time=60),
    Message('note_on', channel=4, note=28, velocity=100, time=0),
    Message('note_on', channel=4, note=28, velocity=0, time=30),
    Message('note_on', channel=4, note=28, velocity=100, time=0),
    Message('note_on', channel=4, note=28, velocity=0, time=30),
    Message('note_on', channel=4, note=28, velocity=100, time=0),
    Message('note_on', channel=4, note=28, velocity=0, time=60),
    Message('note_on', channel=4, note=34, velocity=100, time=0),
    Message('note_on', channel=4, note=34, velocity=0, time=120),
    Message('note_on', channel=4, note=35, velocity=100, time=0),
    Message('note_on', channel=4, note=35, velocity=0, time=60),
    Message('note_on', channel=4, note=34, velocity=100, time=0),
    Message('note_on', channel=4, note=34, velocity=0, time=60),
    Message('note_on', channel=4, note=38, velocity=100, time=0),
    Message('note_on', channel=4, note=38, velocity=0, time=30),
    Message('note_on', channel=4, note=39, velocity=100, time=0),
    Message('note_on', channel=4, note=39, velocity=0, time=30),
    Message('note_on', channel=4, note=40, velocity=100, time=0),
    Message('note_on', channel=4, note=40, velocity=0, time=60),
    Message('note_on', channel=4, note=28, velocity=100, time=0),
    Message('note_on', channel=4, note=28, velocity=0, time=30),
    Message('note_on', channel=4, note=28, velocity=100, time=0),
    Message('note_on', channel=4, note=28, velocity=0, time=30),
    Message('note_on', channel=4, note=28, velocity=100, time=0),
    Message('note_on', channel=4, note=43, velocity=100, time=59),
    Message('note_on', channel=4, note=47, velocity=100, time=0),
    Message('note_on', channel=4, note=28, velocity=0, time=1),
    Message('note_on', channel=4, note=47, velocity=0, time=59),
    Message('note_on', channel=4, note=43, velocity=0, time=0),
    Message('note_on', channel=4, note=28, velocity=100, time=0),
    Message('note_on', channel=4, note=28, velocity=0, time=60),
    Message('note_on', channel=4, note=39, velocity=100, time=0),
    Message('note_on', channel=4, note=46, velocity=100, time=0),
    Message('note_on', channel=4, note=46, velocity=0, time=60),
    Message('note_on', channel=4, note=39, velocity=0, time=0),
    Message('note_on', channel=4, note=28, velocity=100, time=0),
    Message('note_on', channel=4, note=28, velocity=0, time=60),
    Message('note_on', channel=4, note=38, velocity=100, time=1),
    Message('note_on', channel=4, note=38, velocity=0, time=30),
    Message('note_on', channel=4, note=39, velocity=100, time=0),
    Message('note_on', channel=4, note=40, velocity=100, time=29),
    Message('note_on', channel=4, note=39, velocity=0, time=1),
    Message('note_on', channel=4, note=40, velocity=0, time=59),
    Message('note_on', channel=4, note=28, velocity=100, time=0),
    Message('note_on', channel=4, note=28, velocity=0, time=30),
    Message('note_on', channel=4, note=28, velocity=100, time=0),
    Message('note_on', channel=4, note=28, velocity=0, time=30),
    Message('note_on', channel=4, note=28, velocity=100, time=0),
    Message('note_on', channel=4, note=28, velocity=0, time=60),
    Message('note_on', channel=4, note=30, velocity=100, time=0),
    Message('note_on', channel=4, note=30, velocity=0, time=120),
    Message('note_on', channel=4, note=28, velocity=100, time=0),
    Message('note_on', channel=4, note=28, velocity=0, time=60),
    Message('note_on', channel=4, note=30, velocity=100, time=0),
    Message('note_on', channel=4, note=30, velocity=0, time=60),
    Message('note_on', channel=4, note=31, velocity=100, time=0),
    Message('note_on', channel=4, note=31, velocity=0, time=60),
    Message('note_on', channel=4, note=33, velocity=100, time=0),
    Message('note_on', channel=4, note=33, velocity=0, time=60),
    Message('note_on', channel=4, note=28, velocity=100, time=0),
    Message('note_on', channel=4, note=28, velocity=0, time=30),
    Message('note_on', channel=4, note=28, velocity=100, time=0),
    Message('note_on', channel=4, note=28, velocity=0, time=30),
    Message('note_on', channel=4, note=28, velocity=100, time=0),
    Message('note_on', channel=4, note=28, velocity=0, time=30),
    Message('note_on', channel=4, note=28, velocity=100, time=0),
    Message('note_on', channel=4, note=28, velocity=0, time=30),
    Message('note_on', channel=4, note=33, velocity=100, time=0),
    Message('note_on', channel=4, note=33, velocity=0, time=120),
    Message('note_on', channel=4, note=28, velocity=100, time=0),
    Message('note_on', channel=4, note=28, velocity=0, time=60),
    Message('note_on', channel=4, note=31, velocity=100, time=0),
    Message('note_on', channel=4, note=31, velocity=0, time=60),
    Message('note_on', channel=4, note=33, velocity=100, time=0),
    Message('note_on', channel=4, note=33, velocity=0, time=60),
    Message('note_on', channel=4, note=34, velocity=100, time=0),
    Message('note_on', channel=4, note=34, velocity=0, time=60),
    Message('note_on', channel=4, note=28, velocity=100, time=0),
    Message('note_on', channel=4, note=28, velocity=0, time=30),
    Message('note_on', channel=4, note=28, velocity=100, time=0),
    Message('note_on', channel=4, note=28, velocity=0, time=30),
    Message('note_on', channel=4, note=28, velocity=100, time=0),
    Message('note_on', channel=4, note=28, velocity=0, time=30),
    Message('note_on', channel=4, note=28, velocity=100, time=0),
    Message('note_on', channel=4, note=28, velocity=0, time=30),
    Message('note_on', channel=4, note=34, velocity=100, time=0),
    Message('note_on', channel=4, note=34, velocity=0, time=120),
    Message('note_on', channel=4, note=33, velocity=100, time=0),
    Message('note_on', channel=4, note=33, velocity=0, time=60),
    Message('note_on', channel=4, note=31, velocity=100, time=0),
    Message('note_on', channel=4, note=31, velocity=0, time=60),
    Message('note_on', channel=4, note=33, velocity=100, time=0),
    Message('note_on', channel=4, note=33, velocity=0, time=60),
    Message('note_on', channel=4, note=31, velocity=100, time=0),
    Message('note_on', channel=4, note=31, velocity=0, time=60),
    Message('note_on', channel=4, note=28, velocity=100, time=0),
    Message('note_on', channel=4, note=28, velocity=0, time=30),
    Message('note_on', channel=4, note=28, velocity=100, time=0),
    Message('note_on', channel=4, note=28, velocity=0, time=30),
    Message('note_on', channel=4, note=28, velocity=100, time=0),
    Message('note_on', channel=4, note=28, velocity=0, time=30),
    Message('note_on', channel=4, note=28, velocity=100, time=0),
    Message('note_on', channel=4, note=28, velocity=0, time=30),
    Message('note_on', channel=4, note=34, velocity=100, time=0),
    Message('note_on', channel=4, note=34, velocity=0, time=120),
    Message('note_on', channel=4, note=33, velocity=100, time=0),
    Message('note_on', channel=4, note=33, velocity=0, time=60),
    Message('note_on', channel=4, note=31, velocity=100, time=0),
    Message('note_on', channel=4, note=31, velocity=0, time=60),
    Message('note_on', channel=4, note=33, velocity=100, time=0),
    Message('note_on', channel=4, note=33, velocity=0, time=60),
    Message('note_on', channel=4, note=31, velocity=100, time=0),
    Message('note_on', channel=4, note=31, velocity=0, time=60),
    Message('note_on', channel=4, note=28, velocity=100, time=0),
    Message('note_on', channel=4, note=28, velocity=0, time=30),
    Message('note_on', channel=4, note=28, velocity=100, time=0),
    Message('note_on', channel=4, note=28, velocity=0, time=30),
    Message('note_on', channel=4, note=28, velocity=100, time=0),
    Message('note_on', channel=4, note=28, velocity=0, time=30),
    Message('note_on', channel=4, note=28, velocity=100, time=0),
    Message('note_on', channel=4, note=28, velocity=0, time=30),
    Message('note_on', channel=4, note=34, velocity=100, time=0),
    Message('note_on', channel=4, note=34, velocity=0, time=120),
    Message('note_on', channel=4, note=33, velocity=100, time=0),
    Message('note_on', channel=4, note=33, velocity=0, time=60),
    Message('note_on', channel=4, note=31, velocity=100, time=0),
    Message('note_on', channel=4, note=31, velocity=0, time=60),
    Message('note_on', channel=4, note=38, velocity=100, time=0),
    Message('note_on', channel=4, note=38, velocity=0, time=30),
    Message('note_on', channel=4, note=39, velocity=100, time=0),
    Message('note_on', channel=4, note=39, velocity=0, time=30),
    Message('note_on', channel=4, note=40, velocity=100, time=0),
    Message('note_on', channel=4, note=40, velocity=0, time=60),
    Message('note_on', channel=4, note=28, velocity=100, time=0),
    Message('note_on', channel=4, note=28, velocity=0, time=30),
    Message('note_on', channel=4, note=28, velocity=100, time=0),
    Message('note_on', channel=4, note=28, velocity=0, time=30),
    Message('note_on', channel=4, note=28, velocity=100, time=0),
    Message('note_on', channel=4, note=28, velocity=0, time=60),
    Message('note_on', channel=4, note=47, velocity=100, time=0),
    Message('note_on', channel=4, note=43, velocity=100, time=0),
    Message('note_on', channel=4, note=43, velocity=0, time=60),
    Message('note_on', channel=4, note=47, velocity=0, time=0),
    Message('note_on', channel=4, note=28, velocity=100, time=0),
    Message('note_on', channel=4, note=28, velocity=0, time=60),
    Message('note_on', channel=4, note=42, velocity=100, time=0),
    Message('note_on', channel=4, note=46, velocity=100, time=0),
    Message('note_on', channel=4, note=46, velocity=0, time=60),
    Message('note_on', channel=4, note=42, velocity=0, time=0),
    Message('note_on', channel=4, note=28, velocity=100, time=0),
    Message('note_on', channel=4, note=28, velocity=0, time=60),
    Message('note_on', channel=4, note=38, velocity=100, time=0),
    Message('note_on', channel=4, note=38, velocity=0, time=30),
    Message('note_on', channel=4, note=39, velocity=100, time=0),
    Message('note_on', channel=4, note=39, velocity=0, time=30),
    Message('note_on', channel=4, note=40, velocity=100, time=1),
    Message('note_on', channel=4, note=40, velocity=0, time=60),
    Message('note_on', channel=4, note=28, velocity=100, time=0),
    Message('note_on', channel=4, note=28, velocity=0, time=30),
    Message('note_on', channel=4, note=28, velocity=100, time=0),
    Message('note_on', channel=4, note=28, velocity=0, time=30),
    Message('note_on', channel=4, note=28, velocity=100, time=0),
    Message('note_on', channel=4, note=28, velocity=0, time=60),
    Message('note_on', channel=4, note=34, velocity=100, time=0),
    Message('note_on', channel=4, note=34, velocity=0, time=120),
    Message('note_on', channel=4, note=35, velocity=100, time=0),
    Message('note_on', channel=4, note=35, velocity=0, time=60),
    Message('note_on', channel=4, note=34, velocity=100, time=0),
    Message('note_on', channel=4, note=34, velocity=0, time=60),
    Message('note_on', channel=4, note=38, velocity=100, time=0),
    Message('note_on', channel=4, note=38, velocity=0, time=30),
    Message('note_on', channel=4, note=39, velocity=100, time=0),
    Message('note_on', channel=4, note=39, velocity=0, time=30),
    Message('note_on', channel=4, note=40, velocity=100, time=0),
    Message('note_on', channel=4, note=40, velocity=0, time=60),
    Message('note_on', channel=4, note=28, velocity=100, time=0),
    Message('note_on', channel=4, note=28, velocity=0, time=30),
    Message('note_on', channel=4, note=28, velocity=100, time=0),
    Message('note_on', channel=4, note=28, velocity=0, time=30),
    Message('note_on', channel=4, note=28, velocity=100, time=0),
    Message('note_on', channel=4, note=43, velocity=100, time=59),
    Message('note_on', channel=4, note=47, velocity=100, time=0),
    Message('note_on', channel=4, note=28, velocity=0, time=1),
    Message('note_on', channel=4, note=47, velocity=0, time=59),
    Message('note_on', channel=4, note=43, velocity=0, time=0),
    Message('note_on', channel=4, note=28, velocity=100, time=0),
    Message('note_on', channel=4, note=28, velocity=0, time=60),
    Message('note_on', channel=4, note=39, velocity=100, time=0),
    Message('note_on', channel=4, note=46, velocity=100, time=0),
    Message('note_on', channel=4, note=46, velocity=0, time=60),
    Message('note_on', channel=4, note=39, velocity=0, time=0),
    Message('note_on', channel=4, note=28, velocity=100, time=0),
    Message('note_on', channel=4, note=28, velocity=0, time=60),
    Message('note_on', channel=4, note=38, velocity=100, time=1),
    Message('note_on', channel=4, note=38, velocity=0, time=30),
    Message('note_on', channel=4, note=39, velocity=100, time=0),
    Message('note_on', channel=4, note=40, velocity=100, time=29),
    Message('note_on', channel=4, note=39, velocity=0, time=1),
    Message('note_on', channel=4, note=40, velocity=0, time=59),
    Message('note_on', channel=4, note=28, velocity=100, time=0),
    Message('note_on', channel=4, note=28, velocity=0, time=30),
    Message('note_on', channel=4, note=28, velocity=100, time=0),
    Message('note_on', channel=4, note=28, velocity=0, time=30),
    Message('note_on', channel=4, note=28, velocity=100, time=0),
    Message('note_on', channel=4, note=28, velocity=0, time=60),
    Message('note_on', channel=4, note=30, velocity=100, time=0),
    Message('note_on', channel=4, note=30, velocity=0, time=120),
    Message('note_on', channel=4, note=28, velocity=100, time=0),
    Message('note_on', channel=4, note=28, velocity=0, time=60),
    Message('note_on', channel=4, note=30, velocity=100, time=0),
    Message('note_on', channel=4, note=30, velocity=0, time=60),
    Message('note_on', channel=4, note=31, velocity=100, time=0),
    Message('note_on', channel=4, note=31, velocity=0, time=60),
    Message('note_on', channel=4, note=33, velocity=100, time=0),
    Message('note_on', channel=4, note=33, velocity=0, time=60),
    Message('note_on', channel=4, note=28, velocity=100, time=0),
    Message('note_on', channel=4, note=28, velocity=0, time=30),
    Message('note_on', channel=4, note=28, velocity=100, time=0),
    Message('note_on', channel=4, note=28, velocity=0, time=30),
    Message('note_on', channel=4, note=28, velocity=100, time=0),
    Message('note_on', channel=4, note=28, velocity=0, time=30),
    Message('note_on', channel=4, note=28, velocity=100, time=0),
    Message('note_on', channel=4, note=28, velocity=0, time=30),
    Message('note_on', channel=4, note=33, velocity=100, time=0),
    Message('note_on', channel=4, note=33, velocity=0, time=120),
    Message('note_on', channel=4, note=28, velocity=100, time=0),
    Message('note_on', channel=4, note=28, velocity=0, time=60),
    Message('note_on', channel=4, note=31, velocity=100, time=0),
    Message('note_on', channel=4, note=31, velocity=0, time=60),
    Message('note_on', channel=4, note=33, velocity=100, time=0),
    Message('note_on', channel=4, note=33, velocity=0, time=60),
    Message('note_on', channel=4, note=34, velocity=100, time=0),
    Message('note_on', channel=4, note=34, velocity=0, time=60),
    Message('note_on', channel=4, note=28, velocity=100, time=0),
    Message('note_on', channel=4, note=28, velocity=0, time=30),
    Message('note_on', channel=4, note=28, velocity=100, time=0),
    Message('note_on', channel=4, note=28, velocity=0, time=30),
    Message('note_on', channel=4, note=28, velocity=100, time=0),
    Message('note_on', channel=4, note=28, velocity=0, time=30),
    Message('note_on', channel=4, note=28, velocity=100, time=0),
    Message('note_on', channel=4, note=28, velocity=0, time=30),
    Message('note_on', channel=4, note=34, velocity=100, time=0),
    Message('note_on', channel=4, note=34, velocity=0, time=120),
    Message('note_on', channel=4, note=33, velocity=100, time=0),
    Message('note_on', channel=4, note=33, velocity=0, time=60),
    Message('note_on', channel=4, note=31, velocity=100, time=0),
    Message('note_on', channel=4, note=31, velocity=0, time=60),
    Message('note_on', channel=4, note=33, velocity=100, time=0),
    Message('note_on', channel=4, note=33, velocity=0, time=60),
    Message('note_on', channel=4, note=31, velocity=100, time=0),
    Message('note_on', channel=4, note=31, velocity=0, time=60),
    Message('note_on', channel=4, note=28, velocity=100, time=0),
    Message('note_on', channel=4, note=28, velocity=0, time=30),
    Message('note_on', channel=4, note=28, velocity=100, time=0),
    Message('note_on', channel=4, note=28, velocity=0, time=30),
    Message('note_on', channel=4, note=28, velocity=100, time=0),
    Message('note_on', channel=4, note=28, velocity=0, time=30),
    Message('note_on', channel=4, note=28, velocity=100, time=0),
    Message('note_on', channel=4, note=28, velocity=0, time=30),
    Message('note_on', channel=4, note=34, velocity=100, time=0),
    Message('note_on', channel=4, note=34, velocity=0, time=120),
    Message('note_on', channel=4, note=33, velocity=100, time=0),
    Message('note_on', channel=4, note=33, velocity=0, time=60),
    Message('note_on', channel=4, note=31, velocity=100, time=0),
    Message('note_on', channel=4, note=31, velocity=0, time=60),
    Message('note_on', channel=4, note=33, velocity=100, time=0),
    Message('note_on', channel=4, note=33, velocity=0, time=60),
    Message('note_on', channel=4, note=31, velocity=100, time=0),
    Message('note_on', channel=4, note=31, velocity=0, time=60),
    Message('note_on', channel=4, note=28, velocity=100, time=0),
    Message('note_on', channel=4, note=28, velocity=0, time=30),
    Message('note_on', channel=4, note=28, velocity=100, time=0),
    Message('note_on', channel=4, note=28, velocity=0, time=30),
    Message('note_on', channel=4, note=28, velocity=100, time=0),
    Message('note_on', channel=4, note=28, velocity=0, time=30),
    Message('note_on', channel=4, note=28, velocity=100, time=0),
    Message('note_on', channel=4, note=28, velocity=0, time=30),
    Message('note_on', channel=4, note=34, velocity=100, time=0),
    Message('note_on', channel=4, note=34, velocity=0, time=120),
    Message('note_on', channel=4, note=33, velocity=100, time=0),
    Message('note_on', channel=4, note=33, velocity=0, time=60),
    Message('note_on', channel=4, note=31, velocity=100, time=0),
    Message('note_on', channel=4, note=31, velocity=0, time=60),
    Message('note_on', channel=4, note=38, velocity=100, time=0),
    Message('note_on', channel=4, note=38, velocity=0, time=30),
    Message('note_on', channel=4, note=39, velocity=100, time=0),
    Message('note_on', channel=4, note=39, velocity=0, time=30),
    Message('note_on', channel=4, note=40, velocity=100, time=0),
    Message('note_on', channel=4, note=40, velocity=0, time=60),
    Message('note_on', channel=4, note=28, velocity=100, time=0),
    Message('note_on', channel=4, note=28, velocity=0, time=30),
    Message('note_on', channel=4, note=28, velocity=100, time=0),
    Message('note_on', channel=4, note=28, velocity=0, time=30),
    Message('note_on', channel=4, note=28, velocity=100, time=0),
    Message('note_on', channel=4, note=28, velocity=0, time=60),
    Message('note_on', channel=4, note=47, velocity=100, time=0),
    Message('note_on', channel=4, note=43, velocity=100, time=0),
    Message('note_on', channel=4, note=43, velocity=0, time=60),
    Message('note_on', channel=4, note=47, velocity=0, time=0),
    Message('note_on', channel=4, note=28, velocity=100, time=0),
    Message('note_on', channel=4, note=28, velocity=0, time=60),
    Message('note_on', channel=4, note=42, velocity=100, time=0),
    Message('note_on', channel=4, note=46, velocity=100, time=0),
    Message('note_on', channel=4, note=46, velocity=0, time=60),
    Message('note_on', channel=4, note=42, velocity=0, time=0),
    Message('note_on', channel=4, note=28, velocity=100, time=0),
    Message('note_on', channel=4, note=28, velocity=0, time=60),
    Message('note_on', channel=4, note=38, velocity=100, time=0),
    Message('note_on', channel=4, note=38, velocity=0, time=30),
    Message('note_on', channel=4, note=39, velocity=100, time=0),
    Message('note_on', channel=4, note=39, velocity=0, time=30),
    Message('note_on', channel=4, note=40, velocity=100, time=1),
    Message('note_on', channel=4, note=40, velocity=0, time=60),
    Message('note_on', channel=4, note=28, velocity=100, time=0),
    Message('note_on', channel=4, note=28, velocity=0, time=30),
    Message('note_on', channel=4, note=28, velocity=100, time=0),
    Message('note_on', channel=4, note=28, velocity=0, time=30),
    Message('note_on', channel=4, note=28, velocity=100, time=0),
    Message('note_on', channel=4, note=28, velocity=0, time=60),
    Message('note_on', channel=4, note=34, velocity=100, time=0),
    Message('note_on', channel=4, note=34, velocity=0, time=120),
    Message('note_on', channel=4, note=35, velocity=100, time=0),
    Message('note_on', channel=4, note=35, velocity=0, time=60),
    Message('note_on', channel=4, note=34, velocity=100, time=0),
    Message('note_on', channel=4, note=34, velocity=0, time=60),
    Message('note_on', channel=4, note=38, velocity=100, time=0),
    Message('note_on', channel=4, note=38, velocity=0, time=30),
    Message('note_on', channel=4, note=39, velocity=100, time=0),
    Message('note_on', channel=4, note=39, velocity=0, time=30),
    Message('note_on', channel=4, note=40, velocity=100, time=0),
    Message('note_on', channel=4, note=40, velocity=0, time=60),
    Message('note_on', channel=4, note=28, velocity=100, time=0),
    Message('note_on', channel=4, note=28, velocity=0, time=30),
    Message('note_on', channel=4, note=28, velocity=100, time=0),
    Message('note_on', channel=4, note=28, velocity=0, time=30),
    Message('note_on', channel=4, note=28, velocity=100, time=0),
    Message('note_on', channel=4, note=43, velocity=100, time=59),
    Message('note_on', channel=4, note=47, velocity=100, time=0),
    Message('note_on', channel=4, note=28, velocity=0, time=1),
    Message('note_on', channel=4, note=47, velocity=0, time=59),
    Message('note_on', channel=4, note=43, velocity=0, time=0),
    Message('note_on', channel=4, note=28, velocity=100, time=0),
    Message('note_on', channel=4, note=28, velocity=0, time=60),
    Message('note_on', channel=4, note=39, velocity=100, time=0),
    Message('note_on', channel=4, note=46, velocity=100, time=0),
    Message('note_on', channel=4, note=46, velocity=0, time=60),
    Message('note_on', channel=4, note=39, velocity=0, time=0),
    Message('note_on', channel=4, note=28, velocity=100, time=0),
    Message('note_on', channel=4, note=28, velocity=0, time=60),
    Message('note_on', channel=4, note=38, velocity=100, time=1),
    Message('note_on', channel=4, note=38, velocity=0, time=30),
    Message('note_on', channel=4, note=39, velocity=100, time=0),
    Message('note_on', channel=4, note=40, velocity=100, time=29),
    Message('note_on', channel=4, note=39, velocity=0, time=1),
    Message('note_on', channel=4, note=40, velocity=0, time=59),
    Message('note_on', channel=4, note=28, velocity=100, time=0),
    Message('note_on', channel=4, note=28, velocity=0, time=30),
    Message('note_on', channel=4, note=28, velocity=100, time=0),
    Message('note_on', channel=4, note=28, velocity=0, time=30),
    Message('note_on', channel=4, note=28, velocity=100, time=0),
    Message('note_on', channel=4, note=28, velocity=0, time=60),
    Message('note_on', channel=4, note=30, velocity=100, time=0),
    Message('note_on', channel=4, note=30, velocity=0, time=120),
    Message('note_on', channel=4, note=28, velocity=100, time=0),
    Message('note_on', channel=4, note=28, velocity=0, time=60),
    Message('note_on', channel=4, note=30, velocity=100, time=0),
    Message('note_on', channel=4, note=30, velocity=0, time=60),
    Message('note_on', channel=4, note=31, velocity=100, time=0),
    Message('note_on', channel=4, note=31, velocity=0, time=60),
    Message('note_on', channel=4, note=33, velocity=100, time=0),
    Message('note_on', channel=4, note=33, velocity=0, time=60),
    Message('note_on', channel=4, note=28, velocity=100, time=0),
    Message('note_on', channel=4, note=28, velocity=0, time=30),
    Message('note_on', channel=4, note=28, velocity=100, time=0),
    Message('note_on', channel=4, note=28, velocity=0, time=30),
    Message('note_on', channel=4, note=28, velocity=100, time=0),
    Message('note_on', channel=4, note=28, velocity=0, time=30),
    Message('note_on', channel=4, note=28, velocity=100, time=0),
    Message('note_on', channel=4, note=28, velocity=0, time=30),
    Message('note_on', channel=4, note=33, velocity=100, time=0),
    Message('note_on', channel=4, note=33, velocity=0, time=120),
    Message('note_on', channel=4, note=28, velocity=100, time=0),
    Message('note_on', channel=4, note=28, velocity=0, time=60),
    Message('note_on', channel=4, note=31, velocity=100, time=0),
    Message('note_on', channel=4, note=31, velocity=0, time=60),
    Message('note_on', channel=4, note=33, velocity=100, time=0),
    Message('note_on', channel=4, note=33, velocity=0, time=60),
    Message('note_on', channel=4, note=34, velocity=100, time=0),
    Message('note_on', channel=4, note=34, velocity=0, time=60),
    Message('note_on', channel=4, note=28, velocity=100, time=0),
    Message('note_on', channel=4, note=28, velocity=0, time=30),
    Message('note_on', channel=4, note=28, velocity=100, time=0),
    Message('note_on', channel=4, note=28, velocity=0, time=30),
    Message('note_on', channel=4, note=28, velocity=100, time=0),
    Message('note_on', channel=4, note=28, velocity=0, time=30),
    Message('note_on', channel=4, note=28, velocity=100, time=0),
    Message('note_on', channel=4, note=28, velocity=0, time=30),
    Message('note_on', channel=4, note=34, velocity=100, time=0),
    Message('note_on', channel=4, note=34, velocity=0, time=120),
    Message('note_on', channel=4, note=33, velocity=100, time=0),
    Message('note_on', channel=4, note=33, velocity=0, time=60),
    Message('note_on', channel=4, note=31, velocity=100, time=0),
    Message('note_on', channel=4, note=31, velocity=0, time=60),
    Message('note_on', channel=4, note=33, velocity=100, time=0),
    Message('note_on', channel=4, note=33, velocity=0, time=60),
    Message('note_on', channel=4, note=31, velocity=100, time=0),
    Message('note_on', channel=4, note=31, velocity=0, time=60),
    Message('note_on', channel=4, note=28, velocity=100, time=0),
    Message('note_on', channel=4, note=28, velocity=0, time=30),
    Message('note_on', channel=4, note=28, velocity=100, time=0),
    Message('note_on', channel=4, note=28, velocity=0, time=30),
    Message('note_on', channel=4, note=28, velocity=100, time=0),
    Message('note_on', channel=4, note=28, velocity=0, time=30),
    Message('note_on', channel=4, note=28, velocity=100, time=0),
    Message('note_on', channel=4, note=28, velocity=0, time=30),
    Message('note_on', channel=4, note=34, velocity=100, time=0),
    Message('note_on', channel=4, note=34, velocity=0, time=120),
    Message('note_on', channel=4, note=33, velocity=100, time=0),
    Message('note_on', channel=4, note=33, velocity=0, time=60),
    Message('note_on', channel=4, note=31, velocity=100, time=0),
    Message('note_on', channel=4, note=31, velocity=0, time=60),
    Message('note_on', channel=4, note=33, velocity=100, time=0),
    Message('note_on', channel=4, note=33, velocity=0, time=60),
    Message('note_on', channel=4, note=31, velocity=100, time=0),
    Message('note_on', channel=4, note=31, velocity=0, time=60),
    Message('note_on', channel=4, note=28, velocity=100, time=0),
    Message('note_on', channel=4, note=28, velocity=0, time=30),
    Message('note_on', channel=4, note=28, velocity=100, time=0),
    Message('note_on', channel=4, note=28, velocity=0, time=30),
    Message('note_on', channel=4, note=28, velocity=100, time=0),
    Message('note_on', channel=4, note=28, velocity=0, time=30),
    Message('note_on', channel=4, note=28, velocity=100, time=0),
    Message('note_on', channel=4, note=28, velocity=0, time=30),
    Message('note_on', channel=4, note=34, velocity=100, time=0),
    Message('note_on', channel=4, note=34, velocity=0, time=120),
    Message('note_on', channel=4, note=33, velocity=100, time=0),
    Message('note_on', channel=4, note=33, velocity=0, time=60),
    Message('note_on', channel=4, note=31, velocity=100, time=0),
    Message('note_on', channel=4, note=31, velocity=0, time=60),
    Message('note_on', channel=4, note=38, velocity=100, time=0),
    Message('note_on', channel=4, note=38, velocity=0, time=30),
    Message('note_on', channel=4, note=39, velocity=100, time=0),
    Message('note_on', channel=4, note=39, velocity=0, time=30),
    Message('note_on', channel=4, note=40, velocity=100, time=0),
    Message('note_on', channel=4, note=40, velocity=0, time=60),
    Message('note_on', channel=4, note=28, velocity=100, time=0),
    Message('note_on', channel=4, note=28, velocity=0, time=30),
    Message('note_on', channel=4, note=28, velocity=100, time=0),
    Message('note_on', channel=4, note=28, velocity=0, time=30),
    Message('note_on', channel=4, note=28, velocity=100, time=0),
    Message('note_on', channel=4, note=28, velocity=0, time=60),
    Message('note_on', channel=4, note=47, velocity=100, time=0),
    Message('note_on', channel=4, note=43, velocity=100, time=0),
    Message('note_on', channel=4, note=43, velocity=0, time=60),
    Message('note_on', channel=4, note=47, velocity=0, time=0),
    Message('note_on', channel=4, note=28, velocity=100, time=0),
    Message('note_on', channel=4, note=28, velocity=0, time=60),
    Message('note_on', channel=4, note=42, velocity=100, time=0),
    Message('note_on', channel=4, note=46, velocity=100, time=0),
    Message('note_on', channel=4, note=46, velocity=0, time=60),
    Message('note_on', channel=4, note=42, velocity=0, time=0),
    Message('note_on', channel=4, note=28, velocity=100, time=0),
    Message('note_on', channel=4, note=28, velocity=0, time=60),
    Message('note_on', channel=4, note=38, velocity=100, time=0),
    Message('note_on', channel=4, note=38, velocity=0, time=30),
    Message('note_on', channel=4, note=39, velocity=100, time=0),
    Message('note_on', channel=4, note=39, velocity=0, time=30),
    Message('note_on', channel=4, note=40, velocity=100, time=1),
    Message('note_on', channel=4, note=40, velocity=0, time=60),
    Message('note_on', channel=4, note=28, velocity=100, time=0),
    Message('note_on', channel=4, note=28, velocity=0, time=30),
    Message('note_on', channel=4, note=28, velocity=100, time=0),
    Message('note_on', channel=4, note=28, velocity=0, time=30),
    Message('note_on', channel=4, note=28, velocity=100, time=0),
    Message('note_on', channel=4, note=28, velocity=0, time=60),
    Message('note_on', channel=4, note=34, velocity=100, time=0),
    Message('note_on', channel=4, note=34, velocity=0, time=120),
    Message('note_on', channel=4, note=35, velocity=100, time=0),
    Message('note_on', channel=4, note=35, velocity=0, time=60),
    Message('note_on', channel=4, note=34, velocity=100, time=0),
    Message('note_on', channel=4, note=34, velocity=0, time=60),
    Message('note_on', channel=4, note=38, velocity=100, time=0),
    Message('note_on', channel=4, note=38, velocity=0, time=30),
    Message('note_on', channel=4, note=39, velocity=100, time=0),
    Message('note_on', channel=4, note=39, velocity=0, time=30),
    Message('note_on', channel=4, note=40, velocity=100, time=0),
    Message('note_on', channel=4, note=40, velocity=0, time=60),
    Message('note_on', channel=4, note=28, velocity=100, time=0),
    Message('note_on', channel=4, note=28, velocity=0, time=30),
    Message('note_on', channel=4, note=28, velocity=100, time=0),
    Message('note_on', channel=4, note=28, velocity=0, time=30),
    Message('note_on', channel=4, note=28, velocity=100, time=0),
    Message('note_on', channel=4, note=43, velocity=100, time=59),
    Message('note_on', channel=4, note=47, velocity=100, time=0),
    Message('note_on', channel=4, note=28, velocity=0, time=1),
    Message('note_on', channel=4, note=47, velocity=0, time=59),
    Message('note_on', channel=4, note=43, velocity=0, time=0),
    Message('note_on', channel=4, note=28, velocity=100, time=0),
    Message('note_on', channel=4, note=28, velocity=0, time=60),
    Message('note_on', channel=4, note=39, velocity=100, time=0),
    Message('note_on', channel=4, note=46, velocity=100, time=0),
    Message('note_on', channel=4, note=46, velocity=0, time=60),
    Message('note_on', channel=4, note=39, velocity=0, time=0),
    Message('note_on', channel=4, note=28, velocity=100, time=0),
    Message('note_on', channel=4, note=28, velocity=0, time=60),
    Message('note_on', channel=4, note=38, velocity=100, time=1),
    Message('note_on', channel=4, note=38, velocity=0, time=30),
    Message('note_on', channel=4, note=39, velocity=100, time=0),
    Message('note_on', channel=4, note=40, velocity=100, time=29),
    Message('note_on', channel=4, note=39, velocity=0, time=1),
    Message('note_on', channel=4, note=40, velocity=0, time=59),
    Message('note_on', channel=4, note=28, velocity=100, time=0),
    Message('note_on', channel=4, note=28, velocity=0, time=30),
    Message('note_on', channel=4, note=28, velocity=100, time=0),
    Message('note_on', channel=4, note=28, velocity=0, time=30),
    Message('note_on', channel=4, note=28, velocity=100, time=0),
    Message('note_on', channel=4, note=28, velocity=0, time=60),
    Message('note_on', channel=4, note=30, velocity=100, time=0),
    Message('note_on', channel=4, note=30, velocity=0, time=120),
    Message('note_on', channel=4, note=28, velocity=100, time=0),
    Message('note_on', channel=4, note=28, velocity=0, time=60),
    Message('note_on', channel=4, note=30, velocity=100, time=0),
    Message('note_on', channel=4, note=30, velocity=0, time=60),
    Message('note_on', channel=4, note=31, velocity=100, time=0),
    Message('note_on', channel=4, note=31, velocity=0, time=60),
    Message('note_on', channel=4, note=33, velocity=100, time=0),
    Message('note_on', channel=4, note=33, velocity=0, time=60),
    Message('note_on', channel=4, note=28, velocity=100, time=0),
    Message('note_on', channel=4, note=28, velocity=0, time=30),
    Message('note_on', channel=4, note=28, velocity=100, time=0),
    Message('note_on', channel=4, note=28, velocity=0, time=30),
    Message('note_on', channel=4, note=28, velocity=100, time=0),
    Message('note_on', channel=4, note=28, velocity=0, time=30),
    Message('note_on', channel=4, note=28, velocity=100, time=0),
    Message('note_on', channel=4, note=28, velocity=0, time=30),
    Message('note_on', channel=4, note=33, velocity=100, time=0),
    Message('note_on', channel=4, note=33, velocity=0, time=120),
    Message('note_on', channel=4, note=28, velocity=100, time=0),
    Message('note_on', channel=4, note=28, velocity=0, time=60),
    Message('note_on', channel=4, note=31, velocity=100, time=0),
    Message('note_on', channel=4, note=31, velocity=0, time=60),
    Message('note_on', channel=4, note=33, velocity=100, time=0),
    Message('note_on', channel=4, note=33, velocity=0, time=60),
    Message('note_on', channel=4, note=34, velocity=100, time=0),
    Message('note_on', channel=4, note=34, velocity=0, time=60),
    Message('note_on', channel=4, note=28, velocity=100, time=0),
    Message('note_on', channel=4, note=28, velocity=0, time=30),
    Message('note_on', channel=4, note=28, velocity=100, time=0),
    Message('note_on', channel=4, note=28, velocity=0, time=30),
    Message('note_on', channel=4, note=28, velocity=100, time=0),
    Message('note_on', channel=4, note=28, velocity=0, time=30),
    Message('note_on', channel=4, note=28, velocity=100, time=0),
    Message('note_on', channel=4, note=28, velocity=0, time=30),
    Message('note_on', channel=4, note=34, velocity=100, time=0),
    Message('note_on', channel=4, note=34, velocity=0, time=120),
    Message('note_on', channel=4, note=33, velocity=100, time=0),
    Message('note_on', channel=4, note=33, velocity=0, time=60),
    Message('note_on', channel=4, note=31, velocity=100, time=0),
    Message('note_on', channel=4, note=31, velocity=0, time=60),
    Message('note_on', channel=4, note=33, velocity=100, time=0),
    Message('note_on', channel=4, note=33, velocity=0, time=60),
    Message('note_on', channel=4, note=31, velocity=100, time=0),
    Message('note_on', channel=4, note=31, velocity=0, time=60),
    Message('note_on', channel=4, note=28, velocity=100, time=0),
    Message('note_on', channel=4, note=28, velocity=0, time=30),
    Message('note_on', channel=4, note=28, velocity=100, time=0),
    Message('note_on', channel=4, note=28, velocity=0, time=30),
    Message('note_on', channel=4, note=28, velocity=100, time=0),
    Message('note_on', channel=4, note=28, velocity=0, time=30),
    Message('note_on', channel=4, note=28, velocity=100, time=0),
    Message('note_on', channel=4, note=28, velocity=0, time=30),
    Message('note_on', channel=4, note=34, velocity=100, time=0),
    Message('note_on', channel=4, note=34, velocity=0, time=120),
    Message('note_on', channel=4, note=33, velocity=100, time=0),
    Message('note_on', channel=4, note=33, velocity=0, time=60),
    Message('note_on', channel=4, note=31, velocity=100, time=0),
    Message('note_on', channel=4, note=31, velocity=0, time=60),
    Message('note_on', channel=4, note=33, velocity=100, time=0),
    Message('note_on', channel=4, note=33, velocity=0, time=60),
    Message('note_on', channel=4, note=31, velocity=100, time=0),
    Message('note_on', channel=4, note=31, velocity=0, time=60),
    Message('note_on', channel=4, note=28, velocity=100, time=0),
    Message('note_on', channel=4, note=28, velocity=0, time=30),
    Message('note_on', channel=4, note=28, velocity=100, time=0),
    Message('note_on', channel=4, note=28, velocity=0, time=30),
    Message('note_on', channel=4, note=28, velocity=100, time=0),
    Message('note_on', channel=4, note=28, velocity=0, time=30),
    Message('note_on', channel=4, note=28, velocity=100, time=0),
    Message('note_on', channel=4, note=28, velocity=0, time=30),
    Message('note_on', channel=4, note=34, velocity=100, time=0),
    Message('note_on', channel=4, note=34, velocity=0, time=120),
    Message('note_on', channel=4, note=33, velocity=100, time=0),
    Message('note_on', channel=4, note=33, velocity=0, time=60),
    Message('note_on', channel=4, note=31, velocity=100, time=0),
    Message('note_on', channel=4, note=31, velocity=0, time=60),
    Message('note_on', channel=4, note=38, velocity=100, time=0),
    Message('note_on', channel=4, note=38, velocity=0, time=30),
    Message('note_on', channel=4, note=39, velocity=100, time=0),
    Message('note_on', channel=4, note=39, velocity=0, time=30),
    Message('note_on', channel=4, note=40, velocity=100, time=0),
    Message('note_on', channel=4, note=40, velocity=0, time=60),
    Message('note_on', channel=4, note=33, velocity=100, time=0),
    Message('note_on', channel=4, note=33, velocity=0, time=30),
    Message('note_on', channel=4, note=34, velocity=100, time=0),
    Message('note_on', channel=4, note=34, velocity=0, time=30),
    Message('note_on', channel=4, note=35, velocity=100, time=0),
    Message('note_on', channel=4, note=35, velocity=0, time=60),
    Message('note_on', channel=4, note=31, velocity=100, time=0),
    Message('note_on', channel=4, note=31, velocity=0, time=30),
    Message('note_on', channel=4, note=32, velocity=100, time=0),
    Message('note_on', channel=4, note=32, velocity=0, time=30),
    Message('note_on', channel=4, note=33, velocity=100, time=0),
    Message('note_on', channel=4, note=33, velocity=0, time=60),
    Message('note_on', channel=4, note=33, velocity=100, time=0),
    Message('note_on', channel=4, note=33, velocity=0, time=60),
    Message('note_on', channel=4, note=31, velocity=100, time=0),
    Message('note_on', channel=4, note=31, velocity=0, time=60),
    Message('note_on', channel=4, note=33, velocity=100, time=0),
    Message('note_on', channel=4, note=33, velocity=0, time=60),
    Message('note_on', channel=4, note=28, velocity=100, time=0),
    Message('control_change', channel=4, control=7, value=100, time=2245),
    Message('control_change', channel=4, control=10, value=64, time=0),
    Message('note_on', channel=4, note=28, velocity=0, time=515),
    Message('note_on', channel=4, note=36, velocity=100, time=120),
    Message('note_on', channel=4, note=36, velocity=0, time=60),
    Message('note_on', channel=4, note=35, velocity=100, time=0),
    Message('note_on', channel=4, note=35, velocity=0, time=60),
    Message('note_on', channel=4, note=28, velocity=100, time=0),
    Message('note_on', channel=4, note=28, velocity=0, time=60),
    Message('note_on', channel=4, note=35, velocity=100, time=0),
    Message('note_on', channel=4, note=35, velocity=0, time=60),
    Message('note_on', channel=4, note=28, velocity=100, time=0),
    Message('note_on', channel=4, note=28, velocity=0, time=60),
    Message('note_on', channel=4, note=28, velocity=100, time=0),
    Message('note_on', channel=4, note=28, velocity=0, time=60),
    Message('note_on', channel=4, note=36, velocity=100, time=0),
    Message('note_on', channel=4, note=36, velocity=0, time=60),
    Message('note_on', channel=4, note=35, velocity=100, time=0),
    Message('note_on', channel=4, note=35, velocity=0, time=60),
    Message('note_on', channel=4, note=28, velocity=100, time=0),
    Message('note_on', channel=4, note=28, velocity=0, time=60),
    Message('note_on', channel=4, note=35, velocity=100, time=0),
    Message('note_on', channel=4, note=35, velocity=0, time=60),
    Message('note_on', channel=4, note=28, velocity=100, time=0),
    Message('note_on', channel=4, note=28, velocity=0, time=60),
    Message('note_on', channel=4, note=28, velocity=100, time=0),
    Message('note_on', channel=4, note=28, velocity=0, time=60),
    Message('note_on', channel=4, note=35, velocity=100, time=0),
    Message('note_on', channel=4, note=35, velocity=0, time=60),
    Message('note_on', channel=4, note=36, velocity=100, time=0),
    Message('note_on', channel=4, note=36, velocity=0, time=60),
    Message('note_on', channel=4, note=38, velocity=100, time=0),
    Message('note_on', channel=4, note=38, velocity=0, time=120),
    Message('note_on', channel=4, note=36, velocity=100, time=0),
    Message('note_on', channel=4, note=36, velocity=0, time=60),
    Message('note_on', channel=4, note=35, velocity=100, time=0),
    Message('note_on', channel=4, note=35, velocity=0, time=60),
    Message('note_on', channel=4, note=28, velocity=100, time=0),
    Message('note_on', channel=4, note=28, velocity=0, time=60),
    Message('note_on', channel=4, note=35, velocity=100, time=0),
    Message('note_on', channel=4, note=35, velocity=0, time=60),
    Message('note_on', channel=4, note=28, velocity=100, time=0),
    Message('note_on', channel=4, note=28, velocity=0, time=60),
    Message('note_on', channel=4, note=28, velocity=100, time=0),
    Message('note_on', channel=4, note=28, velocity=0, time=60),
    Message('note_on', channel=4, note=36, velocity=100, time=0),
    Message('note_on', channel=4, note=36, velocity=0, time=60),
    Message('note_on', channel=4, note=35, velocity=100, time=0),
    Message('note_on', channel=4, note=35, velocity=0, time=60),
    Message('note_on', channel=4, note=28, velocity=100, time=0),
    Message('note_on', channel=4, note=28, velocity=0, time=60),
    Message('note_on', channel=4, note=35, velocity=100, time=0),
    Message('note_on', channel=4, note=35, velocity=0, time=60),
    Message('note_on', channel=4, note=28, velocity=100, time=0),
    Message('note_on', channel=4, note=28, velocity=0, time=60),
    Message('note_on', channel=4, note=28, velocity=100, time=0),
    Message('note_on', channel=4, note=28, velocity=0, time=60),
    Message('note_on', channel=4, note=35, velocity=100, time=0),
    Message('note_on', channel=4, note=35, velocity=0, time=60),
    Message('note_on', channel=4, note=36, velocity=100, time=0),
    Message('note_on', channel=4, note=36, velocity=0, time=60),
    Message('note_on', channel=4, note=38, velocity=100, time=0),
    Message('note_on', channel=4, note=38, velocity=0, time=120),
    Message('note_on', channel=4, note=36, velocity=100, time=0),
    Message('note_on', channel=4, note=36, velocity=0, time=60),
    Message('note_on', channel=4, note=35, velocity=100, time=0),
    Message('note_on', channel=4, note=35, velocity=0, time=60),
    Message('note_on', channel=4, note=28, velocity=100, time=0),
    Message('note_on', channel=4, note=28, velocity=0, time=60),
    Message('note_on', channel=4, note=35, velocity=100, time=0),
    Message('note_on', channel=4, note=35, velocity=0, time=60),
    Message('note_on', channel=4, note=28, velocity=100, time=0),
    Message('note_on', channel=4, note=28, velocity=0, time=60),
    Message('note_on', channel=4, note=28, velocity=100, time=0),
    Message('note_on', channel=4, note=28, velocity=0, time=60),
    Message('note_on', channel=4, note=36, velocity=100, time=0),
    Message('note_on', channel=4, note=36, velocity=0, time=60),
    Message('note_on', channel=4, note=35, velocity=100, time=0),
    Message('note_on', channel=4, note=35, velocity=0, time=60),
    Message('note_on', channel=4, note=28, velocity=100, time=0),
    Message('note_on', channel=4, note=28, velocity=0, time=60),
    Message('note_on', channel=4, note=35, velocity=100, time=0),
    Message('note_on', channel=4, note=35, velocity=0, time=60),
    Message('note_on', channel=4, note=28, velocity=100, time=0),
    Message('note_on', channel=4, note=28, velocity=0, time=60),
    Message('note_on', channel=4, note=28, velocity=100, time=0),
    Message('note_on', channel=4, note=28, velocity=0, time=60),
    Message('note_on', channel=4, note=35, velocity=100, time=0),
    Message('note_on', channel=4, note=35, velocity=0, time=60),
    Message('note_on', channel=4, note=36, velocity=100, time=0),
    Message('note_on', channel=4, note=36, velocity=0, time=60),
    Message('note_on', channel=4, note=38, velocity=100, time=0),
    Message('note_on', channel=4, note=38, velocity=0, time=120),
    Message('note_on', channel=4, note=36, velocity=100, time=0),
    Message('note_on', channel=4, note=36, velocity=0, time=60),
    Message('note_on', channel=4, note=35, velocity=100, time=0),
    Message('note_on', channel=4, note=35, velocity=0, time=60),
    Message('note_on', channel=4, note=28, velocity=100, time=0),
    Message('note_on', channel=4, note=28, velocity=0, time=60),
    Message('note_on', channel=4, note=35, velocity=100, time=0),
    Message('note_on', channel=4, note=35, velocity=0, time=60),
    Message('note_on', channel=4, note=28, velocity=100, time=0),
    Message('note_on', channel=4, note=28, velocity=0, time=60),
    Message('note_on', channel=4, note=28, velocity=100, time=0),
    Message('note_on', channel=4, note=28, velocity=0, time=60),
    Message('note_on', channel=4, note=36, velocity=100, time=0),
    Message('note_on', channel=4, note=36, velocity=0, time=60),
    Message('note_on', channel=4, note=35, velocity=100, time=0),
    Message('note_on', channel=4, note=35, velocity=0, time=60),
    Message('note_on', channel=4, note=28, velocity=100, time=0),
    Message('note_on', channel=4, note=28, velocity=0, time=60),
    Message('note_on', channel=4, note=35, velocity=100, time=0),
    Message('note_on', channel=4, note=35, velocity=0, time=60),
    Message('note_on', channel=4, note=28, velocity=100, time=0),
    Message('note_on', channel=4, note=28, velocity=0, time=60),
    Message('note_on', channel=4, note=28, velocity=100, time=0),
    Message('note_on', channel=4, note=28, velocity=0, time=60),
    Message('note_on', channel=4, note=35, velocity=100, time=0),
    Message('note_on', channel=4, note=35, velocity=0, time=60),
    Message('note_on', channel=4, note=36, velocity=100, time=0),
    Message('note_on', channel=4, note=36, velocity=0, time=60),
    Message('note_on', channel=4, note=38, velocity=100, time=0),
    Message('note_on', channel=4, note=38, velocity=0, time=120),
    Message('note_on', channel=4, note=28, velocity=100, time=0),
    Message('note_on', channel=4, note=28, velocity=0, time=120),
    Message('note_on', channel=4, note=28, velocity=100, time=1740),
    Message('note_on', channel=4, note=28, velocity=0, time=1380),
    Message('note_on', channel=4, note=31, velocity=100, time=0),
    Message('note_on', channel=4, note=31, velocity=0, time=60),
    Message('note_on', channel=4, note=30, velocity=100, time=0),
    Message('note_on', channel=4, note=30, velocity=0, time=60),
    Message('note_on', channel=4, note=30, velocity=100, time=120),
    Message('note_on', channel=4, note=30, velocity=0, time=60),
    Message('note_on', channel=4, note=29, velocity=100, time=0),
    Message('note_on', channel=4, note=29, velocity=0, time=60),
    Message('note_on', channel=4, note=29, velocity=100, time=120),
    Message('note_on', channel=4, note=29, velocity=0, time=60),
    Message('note_on', channel=4, note=28, velocity=100, time=0),
    Message('note_on', channel=4, note=28, velocity=0, time=60),
    Message('note_on', channel=4, note=28, velocity=100, time=0),
    Message('note_on', channel=4, note=28, velocity=0, time=60),
    Message('note_on', channel=4, note=28, velocity=100, time=0),
    Message('note_on', channel=4, note=28, velocity=0, time=60),
    Message('note_on', channel=4, note=28, velocity=100, time=0),
    Message('note_on', channel=4, note=28, velocity=0, time=60),
    Message('note_on', channel=4, note=28, velocity=100, time=0),
    Message('note_on', channel=4, note=28, velocity=0, time=60),
    Message('note_on', channel=4, note=28, velocity=100, time=0),
    Message('note_on', channel=4, note=28, velocity=0, time=60),
    Message('note_on', channel=4, note=28, velocity=100, time=0),
    Message('note_on', channel=4, note=28, velocity=0, time=60),
    Message('note_on', channel=4, note=36, velocity=100, time=0),
    Message('note_on', channel=4, note=36, velocity=0, time=60),
    Message('note_on', channel=4, note=43, velocity=100, time=0),
    Message('note_on', channel=4, note=43, velocity=0, time=120),
    Message('note_on', channel=4, note=36, velocity=100, time=0),
    Message('note_on', channel=4, note=36, velocity=0, time=60),
    Message('note_on', channel=4, note=36, velocity=100, time=0),
    Message('note_on', channel=4, note=36, velocity=0, time=60),
    Message('note_on', channel=4, note=36, velocity=100, time=0),
    Message('note_on', channel=4, note=36, velocity=0, time=60),
    Message('note_on', channel=4, note=36, velocity=100, time=0),
    Message('note_on', channel=4, note=36, velocity=0, time=60),
    Message('note_on', channel=4, note=36, velocity=100, time=0),
    Message('note_on', channel=4, note=36, velocity=0, time=60),
    Message('note_on', channel=4, note=36, velocity=100, time=0),
    Message('note_on', channel=4, note=36, velocity=0, time=60),
    Message('note_on', channel=4, note=36, velocity=100, time=0),
    Message('note_on', channel=4, note=36, velocity=0, time=60),
    Message('note_on', channel=4, note=28, velocity=100, time=0),
    Message('note_on', channel=4, note=28, velocity=0, time=60),
    Message('note_on', channel=4, note=28, velocity=100, time=0),
    Message('note_on', channel=4, note=28, velocity=0, time=60),
    Message('note_on', channel=4, note=28, velocity=100, time=0),
    Message('note_on', channel=4, note=28, velocity=0, time=60),
    Message('note_on', channel=4, note=28, velocity=100, time=0),
    Message('note_on', channel=4, note=28, velocity=0, time=60),
    Message('note_on', channel=4, note=28, velocity=100, time=0),
    Message('note_on', channel=4, note=28, velocity=0, time=60),
    Message('note_on', channel=4, note=28, velocity=100, time=0),
    Message('note_on', channel=4, note=28, velocity=0, time=60),
    Message('note_on', channel=4, note=31, velocity=100, time=0),
    Message('note_on', channel=4, note=31, velocity=0, time=60),
    Message('note_on', channel=4, note=30, velocity=100, time=0),
    Message('note_on', channel=4, note=30, velocity=0, time=60),
    Message('note_on', channel=4, note=30, velocity=100, time=120),
    Message('note_on', channel=4, note=30, velocity=0, time=60),
    Message('note_on', channel=4, note=29, velocity=100, time=0),
    Message('note_on', channel=4, note=29, velocity=0, time=60),
    Message('note_on', channel=4, note=29, velocity=100, time=120),
    Message('note_on', channel=4, note=29, velocity=0, time=60),
    Message('note_on', channel=4, note=28, velocity=100, time=0),
    Message('note_on', channel=4, note=28, velocity=0, time=60),
    Message('note_on', channel=4, note=28, velocity=100, time=0),
    Message('note_on', channel=4, note=28, velocity=0, time=60),
    Message('note_on', channel=4, note=28, velocity=100, time=0),
    Message('note_on', channel=4, note=28, velocity=0, time=60),
    Message('note_on', channel=4, note=28, velocity=100, time=0),
    Message('note_on', channel=4, note=28, velocity=0, time=60),
    Message('note_on', channel=4, note=28, velocity=100, time=0),
    Message('note_on', channel=4, note=28, velocity=0, time=60),
    Message('note_on', channel=4, note=28, velocity=100, time=0),
    Message('note_on', channel=4, note=28, velocity=0, time=60),
    Message('note_on', channel=4, note=28, velocity=100, time=0),
    Message('note_on', channel=4, note=28, velocity=0, time=60),
    Message('note_on', channel=4, note=36, velocity=100, time=0),
    Message('note_on', channel=4, note=36, velocity=0, time=60),
    Message('note_on', channel=4, note=43, velocity=100, time=0),
    Message('note_on', channel=4, note=43, velocity=0, time=120),
    Message('note_on', channel=4, note=36, velocity=100, time=0),
    Message('note_on', channel=4, note=36, velocity=0, time=60),
    Message('note_on', channel=4, note=36, velocity=100, time=0),
    Message('note_on', channel=4, note=36, velocity=0, time=60),
    Message('note_on', channel=4, note=36, velocity=100, time=0),
    Message('note_on', channel=4, note=36, velocity=0, time=60),
    Message('note_on', channel=4, note=36, velocity=100, time=0),
    Message('note_on', channel=4, note=36, velocity=0, time=60),
    Message('note_on', channel=4, note=36, velocity=100, time=0),
    Message('note_on', channel=4, note=36, velocity=0, time=60),
    Message('note_on', channel=4, note=36, velocity=100, time=0),
    Message('note_on', channel=4, note=36, velocity=0, time=60),
    Message('note_on', channel=4, note=36, velocity=100, time=0),
    Message('note_on', channel=4, note=36, velocity=0, time=60),
    Message('note_on', channel=4, note=28, velocity=100, time=0),
    Message('note_on', channel=4, note=28, velocity=0, time=60),
    Message('note_on', channel=4, note=28, velocity=100, time=0),
    Message('note_on', channel=4, note=28, velocity=0, time=60),
    Message('note_on', channel=4, note=28, velocity=100, time=0),
    Message('note_on', channel=4, note=28, velocity=0, time=60),
    Message('note_on', channel=4, note=28, velocity=100, time=0),
    Message('note_on', channel=4, note=28, velocity=0, time=60),
    Message('note_on', channel=4, note=28, velocity=100, time=0),
    Message('note_on', channel=4, note=28, velocity=0, time=60),
    Message('note_on', channel=4, note=28, velocity=100, time=0),
    Message('note_on', channel=4, note=28, velocity=0, time=60),
    Message('note_on', channel=4, note=31, velocity=100, time=0),
    Message('note_on', channel=4, note=31, velocity=0, time=60),
    Message('note_on', channel=4, note=30, velocity=100, time=0),
    Message('note_on', channel=4, note=30, velocity=0, time=60),
    Message('note_on', channel=4, note=30, velocity=100, time=120),
    Message('note_on', channel=4, note=30, velocity=0, time=60),
    Message('note_on', channel=4, note=29, velocity=100, time=0),
    Message('note_on', channel=4, note=29, velocity=0, time=60),
    Message('note_on', channel=4, note=29, velocity=100, time=120),
    Message('note_on', channel=4, note=29, velocity=0, time=60),
    Message('note_on', channel=4, note=28, velocity=100, time=0),
    Message('note_on', channel=4, note=28, velocity=0, time=60),
    Message('note_on', channel=4, note=28, velocity=100, time=0),
    Message('note_on', channel=4, note=28, velocity=0, time=60),
    Message('note_on', channel=4, note=28, velocity=100, time=0),
    Message('note_on', channel=4, note=28, velocity=0, time=60),
    Message('note_on', channel=4, note=28, velocity=100, time=0),
    Message('note_on', channel=4, note=28, velocity=0, time=60),
    Message('note_on', channel=4, note=28, velocity=100, time=0),
    Message('note_on', channel=4, note=28, velocity=0, time=60),
    Message('note_on', channel=4, note=28, velocity=100, time=0),
    Message('note_on', channel=4, note=28, velocity=0, time=60),
    Message('note_on', channel=4, note=28, velocity=100, time=0),
    Message('note_on', channel=4, note=28, velocity=0, time=60),
    Message('note_on', channel=4, note=36, velocity=100, time=0),
    Message('note_on', channel=4, note=36, velocity=0, time=60),
    Message('note_on', channel=4, note=43, velocity=100, time=0),
    Message('note_on', channel=4, note=43, velocity=0, time=120),
    Message('note_on', channel=4, note=36, velocity=100, time=0),
    Message('note_on', channel=4, note=36, velocity=0, time=60),
    Message('note_on', channel=4, note=36, velocity=100, time=0),
    Message('note_on', channel=4, note=36, velocity=0, time=60),
    Message('note_on', channel=4, note=36, velocity=100, time=0),
    Message('note_on', channel=4, note=36, velocity=0, time=60),
    Message('note_on', channel=4, note=36, velocity=100, time=0),
    Message('note_on', channel=4, note=36, velocity=0, time=60),
    Message('note_on', channel=4, note=36, velocity=100, time=0),
    Message('note_on', channel=4, note=36, velocity=0, time=60),
    Message('note_on', channel=4, note=36, velocity=100, time=0),
    Message('note_on', channel=4, note=36, velocity=0, time=60),
    Message('note_on', channel=4, note=36, velocity=100, time=0),
    Message('note_on', channel=4, note=36, velocity=0, time=60),
    Message('note_on', channel=4, note=28, velocity=100, time=0),
    Message('note_on', channel=4, note=28, velocity=0, time=60),
    Message('note_on', channel=4, note=28, velocity=100, time=0),
    Message('note_on', channel=4, note=28, velocity=0, time=60),
    Message('note_on', channel=4, note=28, velocity=100, time=0),
    Message('note_on', channel=4, note=28, velocity=0, time=60),
    Message('note_on', channel=4, note=28, velocity=100, time=0),
    Message('note_on', channel=4, note=28, velocity=0, time=60),
    Message('note_on', channel=4, note=28, velocity=100, time=0),
    Message('note_on', channel=4, note=28, velocity=0, time=60),
    Message('note_on', channel=4, note=28, velocity=100, time=0),
    Message('note_on', channel=4, note=28, velocity=0, time=60),
    Message('note_on', channel=4, note=31, velocity=100, time=0),
    Message('note_on', channel=4, note=31, velocity=0, time=60),
    Message('note_on', channel=4, note=30, velocity=100, time=0),
    Message('note_on', channel=4, note=30, velocity=0, time=60),
    Message('note_on', channel=4, note=30, velocity=100, time=120),
    Message('note_on', channel=4, note=30, velocity=0, time=60),
    Message('note_on', channel=4, note=29, velocity=100, time=0),
    Message('note_on', channel=4, note=29, velocity=0, time=60),
    Message('note_on', channel=4, note=29, velocity=100, time=120),
    Message('note_on', channel=4, note=29, velocity=0, time=60),
    Message('note_on', channel=4, note=28, velocity=100, time=0),
    Message('note_on', channel=4, note=28, velocity=0, time=60),
    Message('note_on', channel=4, note=28, velocity=100, time=0),
    Message('note_on', channel=4, note=28, velocity=0, time=60),
    Message('note_on', channel=4, note=28, velocity=100, time=0),
    Message('note_on', channel=4, note=28, velocity=0, time=60),
    Message('note_on', channel=4, note=28, velocity=100, time=0),
    Message('note_on', channel=4, note=28, velocity=0, time=60),
    Message('note_on', channel=4, note=28, velocity=100, time=0),
    Message('note_on', channel=4, note=28, velocity=0, time=60),
    Message('note_on', channel=4, note=28, velocity=100, time=0),
    Message('note_on', channel=4, note=28, velocity=0, time=60),
    Message('note_on', channel=4, note=28, velocity=100, time=0),
    Message('note_on', channel=4, note=28, velocity=0, time=60),
    Message('note_on', channel=4, note=36, velocity=100, time=0),
    Message('note_on', channel=4, note=36, velocity=0, time=60),
    Message('note_on', channel=4, note=43, velocity=100, time=0),
    Message('note_on', channel=4, note=43, velocity=0, time=120),
    Message('note_on', channel=4, note=36, velocity=100, time=0),
    Message('note_on', channel=4, note=36, velocity=0, time=60),
    Message('note_on', channel=4, note=36, velocity=100, time=0),
    Message('note_on', channel=4, note=36, velocity=0, time=60),
    Message('note_on', channel=4, note=36, velocity=100, time=0),
    Message('note_on', channel=4, note=36, velocity=0, time=60),
    Message('note_on', channel=4, note=36, velocity=100, time=0),
    Message('note_on', channel=4, note=36, velocity=0, time=60),
    Message('note_on', channel=4, note=36, velocity=100, time=0),
    Message('note_on', channel=4, note=36, velocity=0, time=60),
    Message('note_on', channel=4, note=36, velocity=100, time=0),
    Message('note_on', channel=4, note=36, velocity=0, time=60),
    Message('note_on', channel=4, note=36, velocity=100, time=0),
    Message('note_on', channel=4, note=36, velocity=0, time=60),
    Message('note_on', channel=4, note=28, velocity=100, time=0),
    Message('note_on', channel=4, note=28, velocity=0, time=60),
    Message('note_on', channel=4, note=28, velocity=100, time=0),
    Message('note_on', channel=4, note=28, velocity=0, time=60),
    Message('note_on', channel=4, note=28, velocity=100, time=0),
    Message('note_on', channel=4, note=28, velocity=0, time=60),
    Message('note_on', channel=4, note=28, velocity=100, time=0),
    Message('note_on', channel=4, note=28, velocity=0, time=60),
    Message('note_on', channel=4, note=28, velocity=100, time=0),
    Message('note_on', channel=4, note=28, velocity=0, time=60),
    Message('note_on', channel=4, note=28, velocity=100, time=0),
    Message('note_on', channel=4, note=28, velocity=0, time=60),
    Message('note_on', channel=4, note=31, velocity=100, time=0),
    Message('note_on', channel=4, note=31, velocity=0, time=60),
    Message('note_on', channel=4, note=30, velocity=100, time=0),
    Message('note_on', channel=4, note=30, velocity=0, time=60),
    Message('note_on', channel=4, note=30, velocity=100, time=120),
    Message('note_on', channel=4, note=30, velocity=0, time=60),
    Message('note_on', channel=4, note=29, velocity=100, time=0),
    Message('note_on', channel=4, note=29, velocity=0, time=60),
    Message('note_on', channel=4, note=29, velocity=100, time=120),
    Message('note_on', channel=4, note=29, velocity=0, time=60),
    Message('note_on', channel=4, note=31, velocity=100, time=0),
    Message('note_on', channel=4, note=31, velocity=0, time=60),
    Message('note_on', channel=4, note=31, velocity=100, time=0),
    Message('note_on', channel=4, note=31, velocity=0, time=60),
    Message('note_on', channel=4, note=31, velocity=100, time=0),
    Message('note_on', channel=4, note=31, velocity=0, time=60),
    Message('note_on', channel=4, note=31, velocity=100, time=0),
    Message('note_on', channel=4, note=31, velocity=0, time=60),
    Message('note_on', channel=4, note=31, velocity=100, time=0),
    Message('note_on', channel=4, note=31, velocity=0, time=60),
    Message('note_on', channel=4, note=43, velocity=100, time=0),
    Message('note_on', channel=4, note=43, velocity=0, time=60),
    Message('note_on', channel=4, note=41, velocity=100, time=0),
    Message('note_on', channel=4, note=41, velocity=0, time=60),
    Message('note_on', channel=4, note=38, velocity=100, time=0),
    Message('note_on', channel=4, note=38, velocity=0, time=60),
    Message('note_on', channel=4, note=34, velocity=100, time=0),
    Message('note_on', channel=4, note=34, velocity=0, time=60),
    Message('note_on', channel=4, note=34, velocity=100, time=0),
    Message('note_on', channel=4, note=34, velocity=0, time=60),
    Message('note_on', channel=4, note=34, velocity=100, time=0),
    Message('note_on', channel=4, note=34, velocity=0, time=60),
    Message('note_on', channel=4, note=34, velocity=100, time=0),
    Message('note_on', channel=4, note=34, velocity=0, time=60),
    Message('note_on', channel=4, note=34, velocity=100, time=0),
    Message('note_on', channel=4, note=34, velocity=0, time=60),
    Message('note_on', channel=4, note=34, velocity=100, time=0),
    Message('note_on', channel=4, note=34, velocity=0, time=60),
    Message('note_on', channel=4, note=29, velocity=100, time=0),
    Message('note_on', channel=4, note=29, velocity=0, time=60),
    Message('note_on', channel=4, note=29, velocity=100, time=0),
    Message('note_on', channel=4, note=29, velocity=0, time=60),
    Message('note_on', channel=4, note=30, velocity=100, time=0),
    Message('note_on', channel=4, note=30, velocity=0, time=60),
    Message('note_on', channel=4, note=31, velocity=100, time=0),
    Message('note_on', channel=4, note=31, velocity=0, time=60),
    Message('note_on', channel=4, note=31, velocity=100, time=0),
    Message('note_on', channel=4, note=31, velocity=0, time=60),
    Message('note_on', channel=4, note=31, velocity=100, time=0),
    Message('note_on', channel=4, note=31, velocity=0, time=60),
    Message('note_on', channel=4, note=31, velocity=100, time=0),
    Message('note_on', channel=4, note=31, velocity=0, time=60),
    Message('note_on', channel=4, note=43, velocity=100, time=0),
    Message('note_on', channel=4, note=43, velocity=0, time=60),
    Message('note_on', channel=4, note=41, velocity=100, time=0),
    Message('note_on', channel=4, note=41, velocity=0, time=60),
    Message('note_on', channel=4, note=38, velocity=100, time=0),
    Message('note_on', channel=4, note=38, velocity=0, time=60),
    Message('note_on', channel=4, note=34, velocity=100, time=0),
    Message('note_on', channel=4, note=34, velocity=0, time=60),
    Message('note_on', channel=4, note=34, velocity=100, time=0),
    Message('note_on', channel=4, note=34, velocity=0, time=60),
    Message('note_on', channel=4, note=34, velocity=100, time=0),
    Message('note_on', channel=4, note=34, velocity=0, time=60),
    Message('note_on', channel=4, note=34, velocity=100, time=0),
    Message('note_on', channel=4, note=34, velocity=0, time=60),
    Message('note_on', channel=4, note=34, velocity=100, time=0),
    Message('note_on', channel=4, note=34, velocity=0, time=60),
    Message('note_on', channel=4, note=34, velocity=100, time=0),
    Message('note_on', channel=4, note=34, velocity=0, time=60),
    Message('note_on', channel=4, note=29, velocity=100, time=0),
    Message('note_on', channel=4, note=29, velocity=0, time=60),
    Message('note_on', channel=4, note=29, velocity=100, time=0),
    Message('note_on', channel=4, note=29, velocity=0, time=60),
    Message('note_on', channel=4, note=30, velocity=100, time=0),
    Message('note_on', channel=4, note=30, velocity=0, time=60),
    Message('note_on', channel=4, note=31, velocity=100, time=0),
    Message('note_on', channel=4, note=31, velocity=0, time=60),
    Message('note_on', channel=4, note=31, velocity=100, time=0),
    Message('note_on', channel=4, note=31, velocity=0, time=60),
    Message('note_on', channel=4, note=31, velocity=100, time=0),
    Message('note_on', channel=4, note=31, velocity=0, time=60),
    Message('note_on', channel=4, note=35, velocity=100, time=0),
    Message('note_on', channel=4, note=35, velocity=0, time=60),
    Message('note_on', channel=4, note=38, velocity=100, time=0),
    Message('note_on', channel=4, note=38, velocity=0, time=60),
    Message('note_on', channel=4, note=41, velocity=100, time=0),
    Message('note_on', channel=4, note=41, velocity=0, time=60),
    Message('note_on', channel=4, note=38, velocity=100, time=0),
    Message('note_on', channel=4, note=38, velocity=0, time=60),
    Message('note_on', channel=4, note=34, velocity=100, time=0),
    Message('note_on', channel=4, note=34, velocity=0, time=60),
    Message('note_on', channel=4, note=34, velocity=100, time=0),
    Message('note_on', channel=4, note=34, velocity=0, time=60),
    Message('note_on', channel=4, note=34, velocity=100, time=0),
    Message('note_on', channel=4, note=34, velocity=0, time=60),
    Message('note_on', channel=4, note=34, velocity=100, time=0),
    Message('note_on', channel=4, note=34, velocity=0, time=60),
    Message('note_on', channel=4, note=34, velocity=100, time=0),
    Message('note_on', channel=4, note=34, velocity=0, time=60),
    Message('note_on', channel=4, note=34, velocity=100, time=0),
    Message('note_on', channel=4, note=34, velocity=0, time=60),
    Message('note_on', channel=4, note=29, velocity=100, time=0),
    Message('note_on', channel=4, note=29, velocity=0, time=60),
    Message('note_on', channel=4, note=29, velocity=100, time=0),
    Message('note_on', channel=4, note=29, velocity=0, time=60),
    Message('note_on', channel=4, note=30, velocity=100, time=0),
    Message('note_on', channel=4, note=30, velocity=0, time=60),
    Message('note_on', channel=4, note=31, velocity=100, time=0),
    Message('note_on', channel=4, note=31, velocity=0, time=60),
    Message('note_on', channel=4, note=43, velocity=100, time=0),
    Message('note_on', channel=4, note=43, velocity=0, time=60),
    Message('note_on', channel=4, note=41, velocity=100, time=0),
    Message('note_on', channel=4, note=41, velocity=0, time=60),
    Message('note_on', channel=4, note=38, velocity=100, time=0),
    Message('note_on', channel=4, note=38, velocity=0, time=60),
    Message('note_on', channel=4, note=31, velocity=100, time=0),
    Message('note_on', channel=4, note=31, velocity=0, time=60),
    Message('note_on', channel=4, note=29, velocity=100, time=0),
    Message('note_on', channel=4, note=29, velocity=0, time=60),
    Message('note_on', channel=4, note=31, velocity=100, time=0),
    Message('note_on', channel=4, note=31, velocity=0, time=60),
    Message('note_on', channel=4, note=30, velocity=100, time=0),
    Message('note_on', channel=4, note=30, velocity=0, time=60),
    Message('note_on', channel=4, note=30, velocity=100, time=120),
    Message('note_on', channel=4, note=30, velocity=0, time=60),
    Message('note_on', channel=4, note=29, velocity=100, time=0),
    Message('note_on', channel=4, note=29, velocity=0, time=60),
    Message('note_on', channel=4, note=29, velocity=100, time=120),
    Message('note_on', channel=4, note=29, velocity=0, time=60),
    Message('note_on', channel=4, note=28, velocity=100, time=0),
    Message('note_on', channel=4, note=28, velocity=0, time=60),
    Message('note_on', channel=4, note=28, velocity=100, time=120),
    Message('note_on', channel=4, note=28, velocity=0, time=960),
    Message('note_on', channel=4, note=28, velocity=100, time=0),
    Message('note_on', channel=4, note=28, velocity=0, time=120),
    Message('note_on', channel=4, note=31, velocity=100, time=240),
    Message('note_on', channel=4, note=31, velocity=0, time=60),
    Message('note_on', channel=4, note=30, velocity=100, time=0),
    Message('note_on', channel=4, note=30, velocity=0, time=60),
    Message('note_on', channel=4, note=30, velocity=100, time=120),
    Message('note_on', channel=4, note=30, velocity=0, time=60),
    Message('note_on', channel=4, note=29, velocity=100, time=0),
    Message('note_on', channel=4, note=29, velocity=0, time=60),
    Message('note_on', channel=4, note=29, velocity=100, time=120),
    Message('note_on', channel=4, note=29, velocity=0, time=60),
    Message('note_on', channel=4, note=28, velocity=100, time=0),
    Message('note_on', channel=4, note=28, velocity=0, time=60),
    Message('note_on', channel=4, note=28, velocity=100, time=0),
    Message('note_on', channel=4, note=28, velocity=0, time=60),
    Message('note_on', channel=4, note=28, velocity=100, time=0),
    Message('note_on', channel=4, note=28, velocity=0, time=60),
    Message('note_on', channel=4, note=28, velocity=100, time=0),
    Message('note_on', channel=4, note=28, velocity=0, time=60),
    Message('note_on', channel=4, note=28, velocity=100, time=0),
    Message('note_on', channel=4, note=28, velocity=0, time=60),
    Message('note_on', channel=4, note=28, velocity=100, time=0),
    Message('note_on', channel=4, note=28, velocity=0, time=60),
    Message('note_on', channel=4, note=28, velocity=100, time=0),
    Message('note_on', channel=4, note=28, velocity=0, time=60),
    Message('note_on', channel=4, note=36, velocity=100, time=0),
    Message('note_on', channel=4, note=36, velocity=0, time=60),
    Message('note_on', channel=4, note=43, velocity=100, time=0),
    Message('note_on', channel=4, note=43, velocity=0, time=120),
    Message('note_on', channel=4, note=36, velocity=100, time=0),
    Message('note_on', channel=4, note=36, velocity=0, time=60),
    Message('note_on', channel=4, note=36, velocity=100, time=0),
    Message('note_on', channel=4, note=36, velocity=0, time=60),
    Message('note_on', channel=4, note=36, velocity=100, time=0),
    Message('note_on', channel=4, note=36, velocity=0, time=60),
    Message('note_on', channel=4, note=36, velocity=100, time=0),
    Message('note_on', channel=4, note=36, velocity=0, time=60),
    Message('note_on', channel=4, note=36, velocity=100, time=0),
    Message('note_on', channel=4, note=36, velocity=0, time=60),
    Message('note_on', channel=4, note=36, velocity=100, time=0),
    Message('note_on', channel=4, note=36, velocity=0, time=60),
    Message('note_on', channel=4, note=36, velocity=100, time=0),
    Message('note_on', channel=4, note=36, velocity=0, time=60),
    Message('note_on', channel=4, note=28, velocity=100, time=0),
    Message('note_on', channel=4, note=28, velocity=0, time=60),
    Message('note_on', channel=4, note=28, velocity=100, time=0),
    Message('note_on', channel=4, note=28, velocity=0, time=60),
    Message('note_on', channel=4, note=28, velocity=100, time=0),
    Message('note_on', channel=4, note=28, velocity=0, time=60),
    Message('note_on', channel=4, note=28, velocity=100, time=0),
    Message('note_on', channel=4, note=28, velocity=0, time=60),
    Message('note_on', channel=4, note=28, velocity=100, time=0),
    Message('note_on', channel=4, note=28, velocity=0, time=60),
    Message('note_on', channel=4, note=28, velocity=100, time=0),
    Message('note_on', channel=4, note=28, velocity=0, time=60),
    Message('note_on', channel=4, note=31, velocity=100, time=0),
    Message('note_on', channel=4, note=31, velocity=0, time=60),
    Message('note_on', channel=4, note=30, velocity=100, time=0),
    Message('note_on', channel=4, note=30, velocity=0, time=60),
    Message('note_on', channel=4, note=30, velocity=100, time=120),
    Message('note_on', channel=4, note=30, velocity=0, time=60),
    Message('note_on', channel=4, note=29, velocity=100, time=0),
    Message('note_on', channel=4, note=29, velocity=0, time=60),
    Message('note_on', channel=4, note=29, velocity=100, time=120),
    Message('note_on', channel=4, note=29, velocity=0, time=60),
    Message('note_on', channel=4, note=28, velocity=100, time=0),
    Message('note_on', channel=4, note=28, velocity=0, time=60),
    Message('note_on', channel=4, note=28, velocity=100, time=0),
    Message('note_on', channel=4, note=28, velocity=0, time=60),
    Message('note_on', channel=4, note=28, velocity=100, time=0),
    Message('note_on', channel=4, note=28, velocity=0, time=60),
    Message('note_on', channel=4, note=28, velocity=100, time=0),
    Message('note_on', channel=4, note=28, velocity=0, time=60),
    Message('note_on', channel=4, note=28, velocity=100, time=0),
    Message('note_on', channel=4, note=28, velocity=0, time=60),
    Message('note_on', channel=4, note=28, velocity=100, time=0),
    Message('note_on', channel=4, note=28, velocity=0, time=60),
    Message('note_on', channel=4, note=28, velocity=100, time=0),
    Message('note_on', channel=4, note=28, velocity=0, time=60),
    Message('note_on', channel=4, note=36, velocity=100, time=0),
    Message('note_on', channel=4, note=36, velocity=0, time=60),
    Message('note_on', channel=4, note=43, velocity=100, time=0),
    Message('note_on', channel=4, note=43, velocity=0, time=120),
    Message('note_on', channel=4, note=36, velocity=100, time=0),
    Message('note_on', channel=4, note=36, velocity=0, time=60),
    Message('note_on', channel=4, note=36, velocity=100, time=0),
    Message('note_on', channel=4, note=36, velocity=0, time=60),
    Message('note_on', channel=4, note=36, velocity=100, time=0),
    Message('note_on', channel=4, note=36, velocity=0, time=60),
    Message('note_on', channel=4, note=36, velocity=100, time=0),
    Message('note_on', channel=4, note=36, velocity=0, time=60),
    Message('note_on', channel=4, note=36, velocity=100, time=0),
    Message('note_on', channel=4, note=36, velocity=0, time=60),
    Message('note_on', channel=4, note=36, velocity=100, time=0),
    Message('note_on', channel=4, note=36, velocity=0, time=60),
    Message('note_on', channel=4, note=36, velocity=100, time=0),
    Message('note_on', channel=4, note=36, velocity=0, time=60),
    Message('note_on', channel=4, note=28, velocity=100, time=0),
    Message('note_on', channel=4, note=28, velocity=0, time=60),
    Message('note_on', channel=4, note=28, velocity=100, time=0),
    Message('note_on', channel=4, note=28, velocity=0, time=60),
    Message('note_on', channel=4, note=28, velocity=100, time=0),
    Message('note_on', channel=4, note=28, velocity=0, time=60),
    Message('note_on', channel=4, note=28, velocity=100, time=0),
    Message('note_on', channel=4, note=28, velocity=0, time=60),
    Message('note_on', channel=4, note=28, velocity=100, time=0),
    Message('note_on', channel=4, note=28, velocity=0, time=60),
    Message('note_on', channel=4, note=28, velocity=100, time=0),
    Message('note_on', channel=4, note=28, velocity=0, time=60),
    Message('note_on', channel=4, note=31, velocity=100, time=0),
    Message('note_on', channel=4, note=31, velocity=0, time=60),
    Message('note_on', channel=4, note=30, velocity=100, time=0),
    Message('note_on', channel=4, note=30, velocity=0, time=60),
    Message('note_on', channel=4, note=30, velocity=100, time=120),
    Message('note_on', channel=4, note=30, velocity=0, time=60),
    Message('note_on', channel=4, note=29, velocity=100, time=0),
    Message('note_on', channel=4, note=29, velocity=0, time=60),
    Message('note_on', channel=4, note=29, velocity=100, time=120),
    Message('note_on', channel=4, note=29, velocity=0, time=60),
    Message('note_on', channel=4, note=28, velocity=100, time=0),
    Message('note_on', channel=4, note=28, velocity=0, time=60),
    Message('note_on', channel=4, note=28, velocity=100, time=0),
    Message('note_on', channel=4, note=28, velocity=0, time=60),
    Message('note_on', channel=4, note=28, velocity=100, time=0),
    Message('note_on', channel=4, note=28, velocity=0, time=60),
    Message('note_on', channel=4, note=28, velocity=100, time=0),
    Message('note_on', channel=4, note=28, velocity=0, time=60),
    Message('note_on', channel=4, note=28, velocity=100, time=0),
    Message('note_on', channel=4, note=28, velocity=0, time=60),
    Message('note_on', channel=4, note=28, velocity=100, time=0),
    Message('note_on', channel=4, note=28, velocity=0, time=60),
    Message('note_on', channel=4, note=28, velocity=100, time=0),
    Message('note_on', channel=4, note=28, velocity=0, time=60),
    Message('note_on', channel=4, note=36, velocity=100, time=0),
    Message('note_on', channel=4, note=36, velocity=0, time=60),
    Message('note_on', channel=4, note=43, velocity=100, time=0),
    Message('note_on', channel=4, note=43, velocity=0, time=120),
    Message('note_on', channel=4, note=36, velocity=100, time=0),
    Message('note_on', channel=4, note=36, velocity=0, time=60),
    Message('note_on', channel=4, note=36, velocity=100, time=0),
    Message('note_on', channel=4, note=36, velocity=0, time=60),
    Message('note_on', channel=4, note=36, velocity=100, time=0),
    Message('note_on', channel=4, note=36, velocity=0, time=60),
    Message('note_on', channel=4, note=36, velocity=100, time=0),
    Message('note_on', channel=4, note=36, velocity=0, time=60),
    Message('note_on', channel=4, note=36, velocity=100, time=0),
    Message('note_on', channel=4, note=36, velocity=0, time=60),
    Message('note_on', channel=4, note=36, velocity=100, time=0),
    Message('note_on', channel=4, note=36, velocity=0, time=60),
    Message('note_on', channel=4, note=36, velocity=100, time=0),
    Message('note_on', channel=4, note=36, velocity=0, time=60),
    Message('note_on', channel=4, note=28, velocity=100, time=0),
    Message('note_on', channel=4, note=28, velocity=0, time=60),
    Message('note_on', channel=4, note=28, velocity=100, time=0),
    Message('note_on', channel=4, note=28, velocity=0, time=60),
    Message('note_on', channel=4, note=28, velocity=100, time=0),
    Message('note_on', channel=4, note=28, velocity=0, time=60),
    Message('note_on', channel=4, note=28, velocity=100, time=0),
    Message('note_on', channel=4, note=28, velocity=0, time=60),
    Message('note_on', channel=4, note=28, velocity=100, time=0),
    Message('note_on', channel=4, note=28, velocity=0, time=60),
    Message('note_on', channel=4, note=28, velocity=100, time=0),
    Message('note_on', channel=4, note=28, velocity=0, time=60),
    Message('note_on', channel=4, note=31, velocity=100, time=0),
    Message('note_on', channel=4, note=31, velocity=0, time=60),
    Message('note_on', channel=4, note=30, velocity=100, time=0),
    Message('note_on', channel=4, note=30, velocity=0, time=60),
    Message('note_on', channel=4, note=30, velocity=100, time=120),
    Message('note_on', channel=4, note=30, velocity=0, time=60),
    Message('note_on', channel=4, note=29, velocity=100, time=0),
    Message('note_on', channel=4, note=29, velocity=0, time=60),
    Message('note_on', channel=4, note=29, velocity=100, time=120),
    Message('note_on', channel=4, note=29, velocity=0, time=60),
    Message('note_on', channel=4, note=28, velocity=100, time=0),
    Message('note_on', channel=4, note=28, velocity=0, time=60),
    Message('note_on', channel=4, note=28, velocity=100, time=0),
    Message('note_on', channel=4, note=28, velocity=0, time=60),
    Message('note_on', channel=4, note=28, velocity=100, time=0),
    Message('note_on', channel=4, note=28, velocity=0, time=60),
    Message('note_on', channel=4, note=28, velocity=100, time=0),
    Message('note_on', channel=4, note=28, velocity=0, time=60),
    Message('note_on', channel=4, note=28, velocity=100, time=0),
    Message('note_on', channel=4, note=28, velocity=0, time=60),
    Message('note_on', channel=4, note=28, velocity=100, time=0),
    Message('note_on', channel=4, note=28, velocity=0, time=60),
    Message('note_on', channel=4, note=28, velocity=100, time=0),
    Message('note_on', channel=4, note=28, velocity=0, time=60),
    Message('note_on', channel=4, note=36, velocity=100, time=0),
    Message('note_on', channel=4, note=36, velocity=0, time=60),
    Message('note_on', channel=4, note=43, velocity=100, time=0),
    Message('note_on', channel=4, note=43, velocity=0, time=120),
    Message('note_on', channel=4, note=36, velocity=100, time=0),
    Message('note_on', channel=4, note=36, velocity=0, time=60),
    Message('note_on', channel=4, note=36, velocity=100, time=0),
    Message('note_on', channel=4, note=36, velocity=0, time=60),
    Message('note_on', channel=4, note=36, velocity=100, time=0),
    Message('note_on', channel=4, note=36, velocity=0, time=60),
    Message('note_on', channel=4, note=36, velocity=100, time=0),
    Message('note_on', channel=4, note=36, velocity=0, time=60),
    Message('note_on', channel=4, note=36, velocity=100, time=0),
    Message('note_on', channel=4, note=36, velocity=0, time=60),
    Message('note_on', channel=4, note=36, velocity=100, time=0),
    Message('note_on', channel=4, note=36, velocity=0, time=60),
    Message('note_on', channel=4, note=36, velocity=100, time=0),
    Message('note_on', channel=4, note=36, velocity=0, time=60),
    Message('note_on', channel=4, note=28, velocity=100, time=0),
    Message('note_on', channel=4, note=28, velocity=0, time=60),
    Message('note_on', channel=4, note=28, velocity=100, time=0),
    Message('note_on', channel=4, note=28, velocity=0, time=60),
    Message('note_on', channel=4, note=28, velocity=100, time=0),
    Message('note_on', channel=4, note=28, velocity=0, time=60),
    Message('note_on', channel=4, note=28, velocity=100, time=0),
    Message('note_on', channel=4, note=28, velocity=0, time=60),
    Message('note_on', channel=4, note=28, velocity=100, time=0),
    Message('note_on', channel=4, note=28, velocity=0, time=60),
    Message('note_on', channel=4, note=28, velocity=100, time=0),
    Message('note_on', channel=4, note=28, velocity=0, time=60),
    Message('note_on', channel=4, note=31, velocity=100, time=0),
    Message('note_on', channel=4, note=31, velocity=0, time=60),
    Message('note_on', channel=4, note=30, velocity=100, time=0),
    Message('note_on', channel=4, note=30, velocity=0, time=60),
    Message('note_on', channel=4, note=30, velocity=100, time=0),
    Message('note_on', channel=4, note=30, velocity=0, time=60),
    Message('note_on', channel=4, note=30, velocity=100, time=0),
    Message('note_on', channel=4, note=30, velocity=0, time=60),
    Message('note_on', channel=4, note=30, velocity=100, time=0),
    Message('note_on', channel=4, note=30, velocity=0, time=60),
    Message('note_on', channel=4, note=29, velocity=100, time=0),
    Message('note_on', channel=4, note=29, velocity=0, time=60),
    Message('note_on', channel=4, note=29, velocity=100, time=0),
    Message('note_on', channel=4, note=29, velocity=0, time=60),
    Message('note_on', channel=4, note=29, velocity=100, time=0),
    Message('note_on', channel=4, note=29, velocity=0, time=60),
    Message('note_on', channel=4, note=29, velocity=100, time=0),
    Message('note_on', channel=4, note=29, velocity=0, time=60),
    Message('note_on', channel=4, note=31, velocity=100, time=0),
    Message('note_on', channel=4, note=31, velocity=0, time=60),
    Message('note_on', channel=4, note=31, velocity=100, time=0),
    Message('note_on', channel=4, note=31, velocity=0, time=60),
    Message('note_on', channel=4, note=31, velocity=100, time=0),
    Message('note_on', channel=4, note=31, velocity=0, time=60),
    Message('note_on', channel=4, note=31, velocity=100, time=0),
    Message('note_on', channel=4, note=31, velocity=0, time=60),
    Message('note_on', channel=4, note=31, velocity=100, time=0),
    Message('note_on', channel=4, note=31, velocity=0, time=60),
    Message('note_on', channel=4, note=43, velocity=100, time=0),
    Message('note_on', channel=4, note=43, velocity=0, time=60),
    Message('note_on', channel=4, note=41, velocity=100, time=0),
    Message('note_on', channel=4, note=41, velocity=0, time=60),
    Message('note_on', channel=4, note=38, velocity=100, time=0),
    Message('note_on', channel=4, note=38, velocity=0, time=60),
    Message('note_on', channel=4, note=34, velocity=100, time=0),
    Message('note_on', channel=4, note=34, velocity=0, time=60),
    Message('note_on', channel=4, note=34, velocity=100, time=0),
    Message('note_on', channel=4, note=34, velocity=0, time=60),
    Message('note_on', channel=4, note=34, velocity=100, time=0),
    Message('note_on', channel=4, note=34, velocity=0, time=60),
    Message('note_on', channel=4, note=34, velocity=100, time=0),
    Message('note_on', channel=4, note=34, velocity=0, time=60),
    Message('note_on', channel=4, note=34, velocity=100, time=0),
    Message('note_on', channel=4, note=34, velocity=0, time=60),
    Message('note_on', channel=4, note=34, velocity=100, time=0),
    Message('note_on', channel=4, note=34, velocity=0, time=60),
    Message('note_on', channel=4, note=29, velocity=100, time=0),
    Message('note_on', channel=4, note=29, velocity=0, time=60),
    Message('note_on', channel=4, note=29, velocity=100, time=0),
    Message('note_on', channel=4, note=29, velocity=0, time=60),
    Message('note_on', channel=4, note=30, velocity=100, time=0),
    Message('note_on', channel=4, note=30, velocity=0, time=60),
    Message('note_on', channel=4, note=31, velocity=100, time=0),
    Message('note_on', channel=4, note=31, velocity=0, time=60),
    Message('note_on', channel=4, note=31, velocity=100, time=0),
    Message('note_on', channel=4, note=31, velocity=0, time=60),
    Message('note_on', channel=4, note=31, velocity=100, time=0),
    Message('note_on', channel=4, note=31, velocity=0, time=60),
    Message('note_on', channel=4, note=31, velocity=100, time=0),
    Message('note_on', channel=4, note=31, velocity=0, time=60),
    Message('note_on', channel=4, note=43, velocity=100, time=0),
    Message('note_on', channel=4, note=43, velocity=0, time=60),
    Message('note_on', channel=4, note=41, velocity=100, time=0),
    Message('note_on', channel=4, note=41, velocity=0, time=60),
    Message('note_on', channel=4, note=38, velocity=100, time=0),
    Message('note_on', channel=4, note=38, velocity=0, time=60),
    Message('note_on', channel=4, note=34, velocity=100, time=0),
    Message('note_on', channel=4, note=34, velocity=0, time=60),
    Message('note_on', channel=4, note=34, velocity=100, time=0),
    Message('note_on', channel=4, note=34, velocity=0, time=60),
    Message('note_on', channel=4, note=34, velocity=100, time=0),
    Message('note_on', channel=4, note=34, velocity=0, time=60),
    Message('note_on', channel=4, note=34, velocity=100, time=0),
    Message('note_on', channel=4, note=34, velocity=0, time=60),
    Message('note_on', channel=4, note=34, velocity=100, time=0),
    Message('note_on', channel=4, note=34, velocity=0, time=60),
    Message('note_on', channel=4, note=34, velocity=100, time=0),
    Message('note_on', channel=4, note=34, velocity=0, time=60),
    Message('note_on', channel=4, note=29, velocity=100, time=0),
    Message('note_on', channel=4, note=29, velocity=0, time=60),
    Message('note_on', channel=4, note=29, velocity=100, time=0),
    Message('note_on', channel=4, note=29, velocity=0, time=60),
    Message('note_on', channel=4, note=30, velocity=100, time=0),
    Message('note_on', channel=4, note=30, velocity=0, time=60),
    Message('note_on', channel=4, note=31, velocity=100, time=0),
    Message('note_on', channel=4, note=31, velocity=0, time=60),
    Message('note_on', channel=4, note=31, velocity=100, time=0),
    Message('note_on', channel=4, note=31, velocity=0, time=60),
    Message('note_on', channel=4, note=31, velocity=100, time=0),
    Message('note_on', channel=4, note=31, velocity=0, time=60),
    Message('note_on', channel=4, note=35, velocity=100, time=0),
    Message('note_on', channel=4, note=35, velocity=0, time=60),
    Message('note_on', channel=4, note=38, velocity=100, time=0),
    Message('note_on', channel=4, note=38, velocity=0, time=60),
    Message('note_on', channel=4, note=41, velocity=100, time=0),
    Message('note_on', channel=4, note=41, velocity=0, time=60),
    Message('note_on', channel=4, note=38, velocity=100, time=0),
    Message('note_on', channel=4, note=38, velocity=0, time=60),
    Message('note_on', channel=4, note=34, velocity=100, time=0),
    Message('note_on', channel=4, note=34, velocity=0, time=60),
    Message('note_on', channel=4, note=34, velocity=100, time=0),
    Message('note_on', channel=4, note=34, velocity=0, time=60),
    Message('note_on', channel=4, note=34, velocity=100, time=0),
    Message('note_on', channel=4, note=34, velocity=0, time=60),
    Message('note_on', channel=4, note=34, velocity=100, time=0),
    Message('note_on', channel=4, note=34, velocity=0, time=60),
    Message('note_on', channel=4, note=34, velocity=100, time=0),
    Message('note_on', channel=4, note=34, velocity=0, time=60),
    Message('note_on', channel=4, note=34, velocity=100, time=0),
    Message('note_on', channel=4, note=34, velocity=0, time=60),
    Message('note_on', channel=4, note=29, velocity=100, time=0),
    Message('note_on', channel=4, note=29, velocity=0, time=60),
    Message('note_on', channel=4, note=29, velocity=100, time=0),
    Message('note_on', channel=4, note=29, velocity=0, time=60),
    Message('note_on', channel=4, note=30, velocity=100, time=0),
    Message('note_on', channel=4, note=30, velocity=0, time=60),
    Message('note_on', channel=4, note=31, velocity=100, time=0),
    Message('note_on', channel=4, note=31, velocity=0, time=60),
    Message('note_on', channel=4, note=43, velocity=100, time=0),
    Message('note_on', channel=4, note=43, velocity=0, time=60),
    Message('note_on', channel=4, note=41, velocity=100, time=0),
    Message('note_on', channel=4, note=41, velocity=0, time=60),
    Message('note_on', channel=4, note=38, velocity=100, time=0),
    Message('note_on', channel=4, note=38, velocity=0, time=60),
    Message('note_on', channel=4, note=31, velocity=100, time=0),
    Message('note_on', channel=4, note=31, velocity=0, time=60),
    Message('note_on', channel=4, note=29, velocity=100, time=0),
    Message('note_on', channel=4, note=29, velocity=0, time=60),
    Message('note_on', channel=4, note=31, velocity=100, time=0),
    Message('note_on', channel=4, note=31, velocity=0, time=60),
    Message('note_on', channel=4, note=30, velocity=100, time=0),
    Message('note_on', channel=4, note=30, velocity=0, time=60),
    Message('note_on', channel=4, note=30, velocity=100, time=120),
    Message('note_on', channel=4, note=30, velocity=0, time=60),
    Message('note_on', channel=4, note=29, velocity=100, time=0),
    Message('note_on', channel=4, note=29, velocity=0, time=60),
    Message('note_on', channel=4, note=29, velocity=100, time=120),
    Message('note_on', channel=4, note=29, velocity=0, time=60),
    Message('note_on', channel=4, note=28, velocity=100, time=0),
    Message('note_on', channel=4, note=28, velocity=0, time=60),
    Message('note_on', channel=4, note=31, velocity=100, time=840),
    Message('note_on', channel=4, note=31, velocity=0, time=60),
    Message('note_on', channel=4, note=28, velocity=100, time=0),
    Message('note_on', channel=4, note=28, velocity=0, time=60),
    Message('note_on', channel=4, note=29, velocity=100, time=0),
    Message('note_on', channel=4, note=29, velocity=0, time=60),
    Message('note_on', channel=4, note=31, velocity=100, time=0),
    Message('note_on', channel=4, note=31, velocity=0, time=60),
    Message('note_on', channel=4, note=28, velocity=100, time=0),
    Message('note_on', channel=4, note=28, velocity=0, time=60),
    Message('note_on', channel=4, note=29, velocity=100, time=0),
    Message('note_on', channel=4, note=29, velocity=0, time=60),
    Message('note_on', channel=4, note=28, velocity=100, time=0),
    Message('note_on', channel=4, note=28, velocity=0, time=60),
    Message('note_on', channel=4, note=28, velocity=100, time=0),
    Message('note_on', channel=4, note=28, velocity=0, time=60),
    Message('note_on', channel=4, note=29, velocity=100, time=0),
    Message('note_on', channel=4, note=29, velocity=0, time=60),
    Message('note_on', channel=4, note=31, velocity=100, time=0),
    Message('note_on', channel=4, note=31, velocity=0, time=60),
    Message('note_on', channel=4, note=28, velocity=100, time=0),
    Message('note_on', channel=4, note=28, velocity=0, time=60),
    Message('note_on', channel=4, note=28, velocity=100, time=0),
    Message('note_on', channel=4, note=28, velocity=0, time=60),
    Message('note_on', channel=4, note=31, velocity=100, time=0),
    Message('note_on', channel=4, note=31, velocity=0, time=60),
    Message('note_on', channel=4, note=30, velocity=100, time=0),
    Message('note_on', channel=4, note=30, velocity=0, time=60),
    Message('note_on', channel=4, note=28, velocity=100, time=0),
    Message('note_on', channel=4, note=28, velocity=0, time=60),
    Message('note_on', channel=4, note=28, velocity=100, time=0),
    Message('note_on', channel=4, note=28, velocity=0, time=60),
    Message('note_on', channel=4, note=30, velocity=100, time=0),
    Message('note_on', channel=4, note=30, velocity=0, time=60),
    Message('note_on', channel=4, note=31, velocity=100, time=0),
    Message('note_on', channel=4, note=31, velocity=0, time=60),
    Message('note_on', channel=4, note=28, velocity=100, time=0),
    Message('note_on', channel=4, note=28, velocity=0, time=120),
    Message('note_on', channel=4, note=31, velocity=100, time=720),
    Message('note_on', channel=4, note=31, velocity=0, time=60),
    Message('note_on', channel=4, note=28, velocity=100, time=0),
    Message('note_on', channel=4, note=28, velocity=0, time=60),
    Message('note_on', channel=4, note=29, velocity=100, time=0),
    Message('note_on', channel=4, note=29, velocity=0, time=60),
    Message('note_on', channel=4, note=31, velocity=100, time=0),
    Message('note_on', channel=4, note=31, velocity=0, time=60),
    Message('note_on', channel=4, note=28, velocity=100, time=0),
    Message('note_on', channel=4, note=28, velocity=0, time=60),
    Message('note_on', channel=4, note=29, velocity=100, time=0),
    Message('note_on', channel=4, note=29, velocity=0, time=60),
    Message('note_on', channel=4, note=28, velocity=100, time=0),
    Message('note_on', channel=4, note=28, velocity=0, time=60),
    Message('note_on', channel=4, note=28, velocity=100, time=0),
    Message('note_on', channel=4, note=28, velocity=0, time=60),
    Message('note_on', channel=4, note=29, velocity=100, time=0),
    Message('note_on', channel=4, note=29, velocity=0, time=60),
    Message('note_on', channel=4, note=31, velocity=100, time=0),
    Message('note_on', channel=4, note=31, velocity=0, time=60),
    Message('note_on', channel=4, note=28, velocity=100, time=0),
    Message('note_on', channel=4, note=28, velocity=0, time=60),
    Message('note_on', channel=4, note=28, velocity=100, time=0),
    Message('note_on', channel=4, note=28, velocity=0, time=60),
    Message('note_on', channel=4, note=31, velocity=100, time=0),
    Message('note_on', channel=4, note=31, velocity=0, time=60),
    Message('note_on', channel=4, note=30, velocity=100, time=0),
    Message('note_on', channel=4, note=30, velocity=0, time=60),
    Message('note_on', channel=4, note=28, velocity=100, time=0),
    Message('note_on', channel=4, note=28, velocity=0, time=60),
    Message('note_on', channel=4, note=28, velocity=100, time=0),
    Message('note_on', channel=4, note=28, velocity=0, time=60),
    Message('note_on', channel=4, note=30, velocity=100, time=0),
    Message('note_on', channel=4, note=30, velocity=0, time=60),
    Message('note_on', channel=4, note=31, velocity=100, time=0),
    Message('note_on', channel=4, note=31, velocity=0, time=60),
    Message('note_on', channel=4, note=28, velocity=100, time=0),
    Message('note_on', channel=4, note=28, velocity=0, time=120),
    Message('note_on', channel=4, note=31, velocity=100, time=720),
    Message('note_on', channel=4, note=31, velocity=0, time=60),
    Message('note_on', channel=4, note=28, velocity=100, time=0),
    Message('note_on', channel=4, note=28, velocity=0, time=60),
    Message('note_on', channel=4, note=29, velocity=100, time=0),
    Message('note_on', channel=4, note=29, velocity=0, time=60),
    Message('note_on', channel=4, note=31, velocity=100, time=0),
    Message('note_on', channel=4, note=31, velocity=0, time=60),
    Message('note_on', channel=4, note=28, velocity=100, time=0),
    Message('note_on', channel=4, note=28, velocity=0, time=60),
    Message('note_on', channel=4, note=29, velocity=100, time=0),
    Message('note_on', channel=4, note=29, velocity=0, time=60),
    Message('note_on', channel=4, note=28, velocity=100, time=0),
    Message('note_on', channel=4, note=28, velocity=0, time=60),
    Message('note_on', channel=4, note=28, velocity=100, time=0),
    Message('note_on', channel=4, note=28, velocity=0, time=60),
    Message('note_on', channel=4, note=29, velocity=100, time=0),
    Message('note_on', channel=4, note=29, velocity=0, time=60),
    Message('note_on', channel=4, note=31, velocity=100, time=0),
    Message('note_on', channel=4, note=31, velocity=0, time=60),
    Message('note_on', channel=4, note=28, velocity=100, time=0),
    Message('note_on', channel=4, note=28, velocity=0, time=60),
    Message('note_on', channel=4, note=28, velocity=100, time=0),
    Message('note_on', channel=4, note=28, velocity=0, time=60),
    Message('note_on', channel=4, note=31, velocity=100, time=0),
    Message('note_on', channel=4, note=31, velocity=0, time=60),
    Message('note_on', channel=4, note=30, velocity=100, time=0),
    Message('note_on', channel=4, note=30, velocity=0, time=60),
    Message('note_on', channel=4, note=28, velocity=100, time=0),
    Message('note_on', channel=4, note=28, velocity=0, time=60),
    Message('note_on', channel=4, note=28, velocity=100, time=0),
    Message('note_on', channel=4, note=28, velocity=0, time=60),
    Message('note_on', channel=4, note=30, velocity=100, time=0),
    Message('note_on', channel=4, note=30, velocity=0, time=60),
    Message('note_on', channel=4, note=31, velocity=100, time=0),
    Message('note_on', channel=4, note=31, velocity=0, time=60),
    Message('note_on', channel=4, note=28, velocity=100, time=0),
    Message('note_on', channel=4, note=28, velocity=0, time=120),
    Message('note_on', channel=4, note=31, velocity=100, time=720),
    Message('note_on', channel=4, note=31, velocity=0, time=60),
    Message('note_on', channel=4, note=28, velocity=100, time=0),
    Message('note_on', channel=4, note=28, velocity=0, time=60),
    Message('note_on', channel=4, note=29, velocity=100, time=0),
    Message('note_on', channel=4, note=29, velocity=0, time=60),
    Message('note_on', channel=4, note=31, velocity=100, time=0),
    Message('note_on', channel=4, note=31, velocity=0, time=60),
    Message('note_on', channel=4, note=28, velocity=100, time=0),
    Message('note_on', channel=4, note=28, velocity=0, time=60),
    Message('note_on', channel=4, note=29, velocity=100, time=0),
    Message('note_on', channel=4, note=29, velocity=0, time=60),
    Message('note_on', channel=4, note=28, velocity=100, time=0),
    Message('note_on', channel=4, note=28, velocity=0, time=60),
    Message('note_on', channel=4, note=28, velocity=100, time=0),
    Message('note_on', channel=4, note=28, velocity=0, time=60),
    Message('note_on', channel=4, note=29, velocity=100, time=0),
    Message('note_on', channel=4, note=29, velocity=0, time=60),
    Message('note_on', channel=4, note=31, velocity=100, time=0),
    Message('note_on', channel=4, note=31, velocity=0, time=60),
    Message('note_on', channel=4, note=28, velocity=100, time=0),
    Message('note_on', channel=4, note=28, velocity=0, time=60),
    Message('note_on', channel=4, note=28, velocity=100, time=0),
    Message('note_on', channel=4, note=28, velocity=0, time=60),
    Message('note_on', channel=4, note=31, velocity=100, time=0),
    Message('note_on', channel=4, note=31, velocity=0, time=60),
    Message('note_on', channel=4, note=30, velocity=100, time=0),
    Message('note_on', channel=4, note=30, velocity=0, time=60),
    Message('note_on', channel=4, note=28, velocity=100, time=0),
    Message('note_on', channel=4, note=28, velocity=0, time=60),
    Message('note_on', channel=4, note=28, velocity=100, time=0),
    Message('note_on', channel=4, note=28, velocity=0, time=60),
    Message('note_on', channel=4, note=30, velocity=100, time=0),
    Message('note_on', channel=4, note=30, velocity=0, time=60),
    Message('note_on', channel=4, note=31, velocity=100, time=0),
    Message('note_on', channel=4, note=31, velocity=0, time=60),
    Message('note_on', channel=4, note=29, velocity=100, time=0),
    Message('note_on', channel=4, note=29, velocity=0, time=60),
    Message('note_on', channel=4, note=31, velocity=100, time=0),
    Message('note_on', channel=4, note=31, velocity=0, time=60),
    Message('note_on', channel=4, note=28, velocity=100, time=0),
    Message('note_on', channel=4, note=28, velocity=0, time=60),
    Message('note_on', channel=4, note=29, velocity=100, time=0),
    Message('note_on', channel=4, note=29, velocity=0, time=60),
    Message('note_on', channel=4, note=28, velocity=100, time=0),
    Message('note_on', channel=4, note=28, velocity=0, time=60),
    Message('note_on', channel=4, note=28, velocity=100, time=0),
    Message('note_on', channel=4, note=28, velocity=0, time=60),
    Message('note_on', channel=4, note=29, velocity=100, time=0),
    Message('note_on', channel=4, note=29, velocity=0, time=60),
    Message('note_on', channel=4, note=31, velocity=100, time=0),
    Message('note_on', channel=4, note=31, velocity=0, time=60),
    Message('note_on', channel=4, note=28, velocity=100, time=0),
    Message('note_on', channel=4, note=28, velocity=0, time=120),
    Message('note_on', channel=4, note=28, velocity=100, time=0),
    Message('note_on', channel=4, note=28, velocity=0, time=60),
    Message('note_on', channel=4, note=28, velocity=100, time=0),
    Message('note_on', channel=4, note=28, velocity=0, time=60),
    Message('note_on', channel=4, note=28, velocity=100, time=0),
    Message('note_on', channel=4, note=28, velocity=0, time=60),
    Message('note_on', channel=4, note=28, velocity=100, time=0),
    Message('note_on', channel=4, note=28, velocity=0, time=60),
    Message('note_on', channel=4, note=28, velocity=100, time=0),
    Message('note_on', channel=4, note=28, velocity=0, time=60),
    Message('note_on', channel=4, note=28, velocity=100, time=0),
    Message('note_on', channel=4, note=28, velocity=0, time=60),
    Message('note_on', channel=4, note=28, velocity=100, time=0),
    Message('note_on', channel=4, note=28, velocity=0, time=60),
    Message('note_on', channel=4, note=28, velocity=100, time=0),
    Message('note_on', channel=4, note=28, velocity=0, time=60),
    Message('note_on', channel=4, note=28, velocity=100, time=0),
    Message('note_on', channel=4, note=28, velocity=0, time=60),
    Message('note_on', channel=4, note=28, velocity=100, time=0),
    Message('note_on', channel=4, note=28, velocity=0, time=60),
    Message('note_on', channel=4, note=28, velocity=100, time=0),
    Message('note_on', channel=4, note=28, velocity=0, time=60),
    Message('note_on', channel=4, note=28, velocity=100, time=0),
    Message('note_on', channel=4, note=28, velocity=0, time=60),
    Message('note_on', channel=4, note=31, velocity=100, time=0),
    Message('note_on', channel=4, note=31, velocity=0, time=60),
    Message('note_on', channel=4, note=28, velocity=100, time=0),
    Message('note_on', channel=4, note=28, velocity=0, time=60),
    Message('note_on', channel=4, note=30, velocity=100, time=0),
    Message('note_on', channel=4, note=30, velocity=0, time=60),
    Message('note_on', channel=4, note=31, velocity=100, time=0),
    Message('note_on', channel=4, note=31, velocity=0, time=60),
    Message('note_on', channel=4, note=28, velocity=100, time=0),
    Message('note_on', channel=4, note=28, velocity=0, time=60),
    Message('note_on', channel=4, note=30, velocity=100, time=0),
    Message('note_on', channel=4, note=30, velocity=0, time=60),
    Message('note_on', channel=4, note=28, velocity=100, time=0),
    Message('note_on', channel=4, note=28, velocity=0, time=60),
    Message('note_on', channel=4, note=28, velocity=100, time=0),
    Message('note_on', channel=4, note=28, velocity=0, time=60),
    Message('note_on', channel=4, note=30, velocity=100, time=0),
    Message('note_on', channel=4, note=30, velocity=0, time=60),
    Message('note_on', channel=4, note=31, velocity=100, time=0),
    Message('note_on', channel=4, note=31, velocity=0, time=60),
    Message('note_on', channel=4, note=28, velocity=100, time=0),
    Message('note_on', channel=4, note=28, velocity=0, time=60),
    Message('note_on', channel=4, note=28, velocity=100, time=0),
    Message('note_on', channel=4, note=28, velocity=0, time=60),
    Message('note_on', channel=4, note=31, velocity=100, time=0),
    Message('note_on', channel=4, note=31, velocity=0, time=60),
    Message('note_on', channel=4, note=30, velocity=100, time=0),
    Message('note_on', channel=4, note=30, velocity=0, time=60),
    Message('note_on', channel=4, note=28, velocity=100, time=0),
    Message('note_on', channel=4, note=28, velocity=0, time=60),
    Message('note_on', channel=4, note=28, velocity=100, time=0),
    Message('note_on', channel=4, note=28, velocity=0, time=60),
    Message('note_on', channel=4, note=30, velocity=100, time=0),
    Message('note_on', channel=4, note=30, velocity=0, time=60),
    Message('note_on', channel=4, note=31, velocity=100, time=0),
    Message('note_on', channel=4, note=31, velocity=0, time=60),
    Message('note_on', channel=4, note=28, velocity=100, time=0),
    Message('note_on', channel=4, note=28, velocity=0, time=120),
    Message('note_on', channel=4, note=28, velocity=100, time=0),
    Message('note_on', channel=4, note=28, velocity=0, time=60),
    Message('note_on', channel=4, note=28, velocity=100, time=0),
    Message('note_on', channel=4, note=28, velocity=0, time=60),
    Message('note_on', channel=4, note=28, velocity=100, time=0),
    Message('note_on', channel=4, note=28, velocity=0, time=60),
    Message('note_on', channel=4, note=28, velocity=100, time=0),
    Message('note_on', channel=4, note=28, velocity=0, time=60),
    Message('note_on', channel=4, note=28, velocity=100, time=0),
    Message('note_on', channel=4, note=28, velocity=0, time=60),
    Message('note_on', channel=4, note=28, velocity=100, time=0),
    Message('note_on', channel=4, note=28, velocity=0, time=60),
    Message('note_on', channel=4, note=28, velocity=100, time=0),
    Message('note_on', channel=4, note=28, velocity=0, time=60),
    Message('note_on', channel=4, note=28, velocity=100, time=0),
    Message('note_on', channel=4, note=28, velocity=0, time=60),
    Message('note_on', channel=4, note=28, velocity=100, time=0),
    Message('note_on', channel=4, note=28, velocity=0, time=60),
    Message('note_on', channel=4, note=28, velocity=100, time=0),
    Message('note_on', channel=4, note=28, velocity=0, time=60),
    Message('note_on', channel=4, note=28, velocity=100, time=0),
    Message('note_on', channel=4, note=28, velocity=0, time=60),
    Message('note_on', channel=4, note=28, velocity=100, time=0),
    Message('note_on', channel=4, note=28, velocity=0, time=60),
    Message('note_on', channel=4, note=31, velocity=100, time=0),
    Message('note_on', channel=4, note=31, velocity=0, time=60),
    Message('note_on', channel=4, note=28, velocity=100, time=0),
    Message('note_on', channel=4, note=28, velocity=0, time=60),
    Message('note_on', channel=4, note=30, velocity=100, time=0),
    Message('note_on', channel=4, note=30, velocity=0, time=60),
    Message('note_on', channel=4, note=31, velocity=100, time=0),
    Message('note_on', channel=4, note=31, velocity=0, time=60),
    Message('note_on', channel=4, note=28, velocity=100, time=0),
    Message('note_on', channel=4, note=28, velocity=0, time=60),
    Message('note_on', channel=4, note=30, velocity=100, time=0),
    Message('note_on', channel=4, note=30, velocity=0, time=60),
    Message('note_on', channel=4, note=28, velocity=100, time=0),
    Message('note_on', channel=4, note=28, velocity=0, time=60),
    Message('note_on', channel=4, note=28, velocity=100, time=0),
    Message('note_on', channel=4, note=28, velocity=0, time=60),
    Message('note_on', channel=4, note=30, velocity=100, time=0),
    Message('note_on', channel=4, note=30, velocity=0, time=60),
    Message('note_on', channel=4, note=31, velocity=100, time=0),
    Message('note_on', channel=4, note=31, velocity=0, time=60),
    Message('note_on', channel=4, note=28, velocity=100, time=0),
    Message('note_on', channel=4, note=28, velocity=0, time=60),
    Message('note_on', channel=4, note=28, velocity=100, time=0),
    Message('note_on', channel=4, note=28, velocity=0, time=60),
    Message('note_on', channel=4, note=31, velocity=100, time=0),
    Message('note_on', channel=4, note=31, velocity=0, time=60),
    Message('note_on', channel=4, note=30, velocity=100, time=0),
    Message('note_on', channel=4, note=30, velocity=0, time=60),
    Message('note_on', channel=4, note=28, velocity=100, time=0),
    Message('note_on', channel=4, note=28, velocity=0, time=60),
    Message('note_on', channel=4, note=28, velocity=100, time=0),
    Message('note_on', channel=4, note=28, velocity=0, time=60),
    Message('note_on', channel=4, note=30, velocity=100, time=0),
    Message('note_on', channel=4, note=30, velocity=0, time=60),
    Message('note_on', channel=4, note=31, velocity=100, time=0),
    Message('note_on', channel=4, note=31, velocity=0, time=60),
    Message('note_on', channel=4, note=28, velocity=100, time=0),
    Message('note_on', channel=4, note=28, velocity=0, time=120),
    Message('note_on', channel=4, note=28, velocity=100, time=0),
    Message('note_on', channel=4, note=28, velocity=0, time=60),
    Message('note_on', channel=4, note=28, velocity=100, time=0),
    Message('note_on', channel=4, note=28, velocity=0, time=60),
    Message('note_on', channel=4, note=28, velocity=100, time=0),
    Message('note_on', channel=4, note=28, velocity=0, time=60),
    Message('note_on', channel=4, note=28, velocity=100, time=0),
    Message('note_on', channel=4, note=28, velocity=0, time=60),
    Message('note_on', channel=4, note=28, velocity=100, time=0),
    Message('note_on', channel=4, note=28, velocity=0, time=60),
    Message('note_on', channel=4, note=28, velocity=100, time=0),
    Message('note_on', channel=4, note=28, velocity=0, time=60),
    Message('note_on', channel=4, note=28, velocity=100, time=0),
    Message('note_on', channel=4, note=28, velocity=0, time=60),
    Message('note_on', channel=4, note=28, velocity=100, time=0),
    Message('note_on', channel=4, note=28, velocity=0, time=60),
    Message('note_on', channel=4, note=28, velocity=100, time=0),
    Message('note_on', channel=4, note=28, velocity=0, time=60),
    Message('note_on', channel=4, note=28, velocity=100, time=0),
    Message('note_on', channel=4, note=28, velocity=0, time=60),
    Message('note_on', channel=4, note=28, velocity=100, time=0),
    Message('note_on', channel=4, note=28, velocity=0, time=60),
    Message('note_on', channel=4, note=28, velocity=100, time=0),
    Message('note_on', channel=4, note=28, velocity=0, time=60),
    Message('note_on', channel=4, note=31, velocity=100, time=0),
    Message('note_on', channel=4, note=31, velocity=0, time=60),
    Message('note_on', channel=4, note=28, velocity=100, time=0),
    Message('note_on', channel=4, note=28, velocity=0, time=60),
    Message('note_on', channel=4, note=30, velocity=100, time=0),
    Message('note_on', channel=4, note=30, velocity=0, time=60),
    Message('note_on', channel=4, note=31, velocity=100, time=0),
    Message('note_on', channel=4, note=31, velocity=0, time=60),
    Message('note_on', channel=4, note=28, velocity=100, time=0),
    Message('note_on', channel=4, note=28, velocity=0, time=60),
    Message('note_on', channel=4, note=30, velocity=100, time=0),
    Message('note_on', channel=4, note=30, velocity=0, time=60),
    Message('note_on', channel=4, note=28, velocity=100, time=0),
    Message('note_on', channel=4, note=28, velocity=0, time=60),
    Message('note_on', channel=4, note=28, velocity=100, time=0),
    Message('note_on', channel=4, note=28, velocity=0, time=60),
    Message('note_on', channel=4, note=30, velocity=100, time=0),
    Message('note_on', channel=4, note=30, velocity=0, time=60),
    Message('note_on', channel=4, note=31, velocity=100, time=0),
    Message('note_on', channel=4, note=31, velocity=0, time=60),
    Message('note_on', channel=4, note=28, velocity=100, time=0),
    Message('note_on', channel=4, note=28, velocity=0, time=60),
    Message('note_on', channel=4, note=28, velocity=100, time=0),
    Message('note_on', channel=4, note=28, velocity=0, time=60),
    Message('note_on', channel=4, note=31, velocity=100, time=0),
    Message('note_on', channel=4, note=31, velocity=0, time=60),
    Message('note_on', channel=4, note=30, velocity=100, time=0),
    Message('note_on', channel=4, note=30, velocity=0, time=60),
    Message('note_on', channel=4, note=28, velocity=100, time=0),
    Message('note_on', channel=4, note=28, velocity=0, time=60),
    Message('note_on', channel=4, note=28, velocity=100, time=0),
    Message('note_on', channel=4, note=28, velocity=0, time=60),
    Message('note_on', channel=4, note=30, velocity=100, time=0),
    Message('note_on', channel=4, note=30, velocity=0, time=60),
    Message('note_on', channel=4, note=31, velocity=100, time=0),
    Message('note_on', channel=4, note=31, velocity=0, time=60),
    Message('note_on', channel=4, note=28, velocity=100, time=0),
    Message('note_on', channel=4, note=28, velocity=0, time=120),
    Message('note_on', channel=4, note=28, velocity=100, time=0),
    Message('note_on', channel=4, note=28, velocity=0, time=60),
    Message('note_on', channel=4, note=28, velocity=100, time=0),
    Message('note_on', channel=4, note=28, velocity=0, time=60),
    Message('note_on', channel=4, note=28, velocity=100, time=0),
    Message('note_on', channel=4, note=28, velocity=0, time=60),
    Message('note_on', channel=4, note=28, velocity=100, time=0),
    Message('note_on', channel=4, note=28, velocity=0, time=60),
    Message('note_on', channel=4, note=28, velocity=100, time=0),
    Message('note_on', channel=4, note=28, velocity=0, time=60),
    Message('note_on', channel=4, note=28, velocity=100, time=0),
    Message('note_on', channel=4, note=28, velocity=0, time=60),
    Message('note_on', channel=4, note=28, velocity=100, time=0),
    Message('note_on', channel=4, note=28, velocity=0, time=60),
    Message('note_on', channel=4, note=28, velocity=100, time=0),
    Message('note_on', channel=4, note=28, velocity=0, time=60),
    Message('note_on', channel=4, note=28, velocity=100, time=0),
    Message('note_on', channel=4, note=28, velocity=0, time=60),
    Message('note_on', channel=4, note=28, velocity=100, time=0),
    Message('note_on', channel=4, note=28, velocity=0, time=60),
    Message('note_on', channel=4, note=28, velocity=100, time=0),
    Message('note_on', channel=4, note=28, velocity=0, time=60),
    Message('note_on', channel=4, note=28, velocity=100, time=0),
    Message('note_on', channel=4, note=28, velocity=0, time=60),
    Message('note_on', channel=4, note=31, velocity=100, time=0),
    Message('note_on', channel=4, note=31, velocity=0, time=60),
    Message('note_on', channel=4, note=28, velocity=100, time=0),
    Message('note_on', channel=4, note=28, velocity=0, time=60),
    Message('note_on', channel=4, note=30, velocity=100, time=0),
    Message('note_on', channel=4, note=30, velocity=0, time=60),
    Message('note_on', channel=4, note=31, velocity=100, time=0),
    Message('note_on', channel=4, note=31, velocity=0, time=60),
    Message('note_on', channel=4, note=28, velocity=100, time=0),
    Message('note_on', channel=4, note=28, velocity=0, time=60),
    Message('note_on', channel=4, note=30, velocity=100, time=0),
    Message('note_on', channel=4, note=30, velocity=0, time=60),
    Message('note_on', channel=4, note=28, velocity=100, time=0),
    Message('note_on', channel=4, note=28, velocity=0, time=60),
    Message('note_on', channel=4, note=28, velocity=100, time=0),
    Message('note_on', channel=4, note=28, velocity=0, time=60),
    Message('note_on', channel=4, note=30, velocity=100, time=0),
    Message('note_on', channel=4, note=30, velocity=0, time=60),
    Message('note_on', channel=4, note=31, velocity=100, time=0),
    Message('note_on', channel=4, note=31, velocity=0, time=60),
    Message('note_on', channel=4, note=28, velocity=100, time=0),
    Message('note_on', channel=4, note=28, velocity=0, time=60),
    Message('note_on', channel=4, note=28, velocity=100, time=0),
    Message('note_on', channel=4, note=28, velocity=0, time=60),
    Message('note_on', channel=4, note=31, velocity=100, time=0),
    Message('note_on', channel=4, note=31, velocity=0, time=60),
    Message('note_on', channel=4, note=30, velocity=100, time=0),
    Message('note_on', channel=4, note=30, velocity=0, time=60),
    Message('note_on', channel=4, note=28, velocity=100, time=0),
    Message('note_on', channel=4, note=28, velocity=0, time=60),
    Message('note_on', channel=4, note=28, velocity=100, time=0),
    Message('note_on', channel=4, note=28, velocity=0, time=60),
    Message('note_on', channel=4, note=30, velocity=100, time=0),
    Message('note_on', channel=4, note=30, velocity=0, time=60),
    Message('note_on', channel=4, note=31, velocity=100, time=0),
    Message('note_on', channel=4, note=31, velocity=0, time=60),
    Message('note_on', channel=4, note=28, velocity=100, time=0),
    Message('note_on', channel=4, note=28, velocity=0, time=120),
    Message('note_on', channel=4, note=28, velocity=100, time=0),
    Message('note_on', channel=4, note=28, velocity=0, time=60),
    Message('note_on', channel=4, note=28, velocity=100, time=0),
    Message('note_on', channel=4, note=28, velocity=0, time=60),
    Message('note_on', channel=4, note=28, velocity=100, time=0),
    Message('note_on', channel=4, note=28, velocity=0, time=60),
    Message('note_on', channel=4, note=28, velocity=100, time=0),
    Message('note_on', channel=4, note=28, velocity=0, time=60),
    Message('note_on', channel=4, note=28, velocity=100, time=0),
    Message('note_on', channel=4, note=28, velocity=0, time=60),
    Message('note_on', channel=4, note=28, velocity=100, time=0),
    Message('note_on', channel=4, note=28, velocity=0, time=60),
    Message('note_on', channel=4, note=28, velocity=100, time=0),
    Message('note_on', channel=4, note=28, velocity=0, time=60),
    Message('note_on', channel=4, note=28, velocity=100, time=0),
    Message('note_on', channel=4, note=28, velocity=0, time=60),
    Message('note_on', channel=4, note=28, velocity=100, time=0),
    Message('note_on', channel=4, note=28, velocity=0, time=60),
    Message('note_on', channel=4, note=28, velocity=100, time=0),
    Message('note_on', channel=4, note=28, velocity=0, time=60),
    Message('note_on', channel=4, note=28, velocity=100, time=0),
    Message('note_on', channel=4, note=28, velocity=0, time=60),
    Message('note_on', channel=4, note=28, velocity=100, time=0),
    Message('note_on', channel=4, note=28, velocity=0, time=60),
    Message('note_on', channel=4, note=31, velocity=100, time=0),
    Message('note_on', channel=4, note=31, velocity=0, time=60),
    Message('note_on', channel=4, note=28, velocity=100, time=0),
    Message('note_on', channel=4, note=28, velocity=0, time=60),
    Message('note_on', channel=4, note=30, velocity=100, time=0),
    Message('note_on', channel=4, note=30, velocity=0, time=60),
    Message('note_on', channel=4, note=31, velocity=100, time=0),
    Message('note_on', channel=4, note=31, velocity=0, time=60),
    Message('note_on', channel=4, note=28, velocity=100, time=0),
    Message('note_on', channel=4, note=28, velocity=0, time=60),
    Message('note_on', channel=4, note=30, velocity=100, time=0),
    Message('note_on', channel=4, note=30, velocity=0, time=60),
    Message('note_on', channel=4, note=28, velocity=100, time=0),
    Message('note_on', channel=4, note=28, velocity=0, time=60),
    Message('note_on', channel=4, note=28, velocity=100, time=0),
    Message('note_on', channel=4, note=28, velocity=0, time=60),
    Message('note_on', channel=4, note=30, velocity=100, time=0),
    Message('note_on', channel=4, note=30, velocity=0, time=60),
    Message('note_on', channel=4, note=31, velocity=100, time=0),
    Message('note_on', channel=4, note=31, velocity=0, time=60),
    Message('note_on', channel=4, note=28, velocity=100, time=0),
    Message('note_on', channel=4, note=28, velocity=0, time=60),
    Message('note_on', channel=4, note=28, velocity=100, time=0),
    Message('note_on', channel=4, note=28, velocity=0, time=60),
    Message('note_on', channel=4, note=31, velocity=100, time=0),
    Message('note_on', channel=4, note=31, velocity=0, time=60),
    Message('note_on', channel=4, note=30, velocity=100, time=0),
    Message('note_on', channel=4, note=30, velocity=0, time=60),
    Message('note_on', channel=4, note=28, velocity=100, time=0),
    Message('note_on', channel=4, note=28, velocity=0, time=60),
    Message('note_on', channel=4, note=28, velocity=100, time=0),
    Message('note_on', channel=4, note=28, velocity=0, time=60),
    Message('note_on', channel=4, note=30, velocity=100, time=0),
    Message('note_on', channel=4, note=30, velocity=0, time=60),
    Message('note_on', channel=4, note=31, velocity=100, time=0),
    Message('note_on', channel=4, note=31, velocity=0, time=60),
    Message('note_on', channel=4, note=28, velocity=100, time=0),
    Message('note_on', channel=4, note=28, velocity=0, time=120),
    Message('note_on', channel=4, note=28, velocity=100, time=0),
    Message('note_on', channel=4, note=28, velocity=0, time=60),
    Message('note_on', channel=4, note=28, velocity=100, time=0),
    Message('note_on', channel=4, note=28, velocity=0, time=60),
    Message('note_on', channel=4, note=28, velocity=100, time=0),
    Message('note_on', channel=4, note=28, velocity=0, time=60),
    Message('note_on', channel=4, note=28, velocity=100, time=0),
    Message('note_on', channel=4, note=28, velocity=0, time=60),
    Message('note_on', channel=4, note=28, velocity=100, time=0),
    Message('note_on', channel=4, note=28, velocity=0, time=60),
    Message('note_on', channel=4, note=28, velocity=100, time=0),
    Message('note_on', channel=4, note=28, velocity=0, time=60),
    Message('note_on', channel=4, note=28, velocity=100, time=0),
    Message('note_on', channel=4, note=28, velocity=0, time=60),
    Message('note_on', channel=4, note=28, velocity=100, time=0),
    Message('note_on', channel=4, note=28, velocity=0, time=60),
    Message('note_on', channel=4, note=28, velocity=100, time=0),
    Message('note_on', channel=4, note=28, velocity=0, time=60),
    Message('note_on', channel=4, note=28, velocity=100, time=0),
    Message('note_on', channel=4, note=28, velocity=0, time=60),
    Message('note_on', channel=4, note=28, velocity=100, time=0),
    Message('note_on', channel=4, note=28, velocity=0, time=60),
    Message('note_on', channel=4, note=28, velocity=100, time=0),
    Message('note_on', channel=4, note=28, velocity=0, time=60),
    Message('note_on', channel=4, note=31, velocity=100, time=0),
    Message('note_on', channel=4, note=31, velocity=0, time=60),
    Message('note_on', channel=4, note=28, velocity=100, time=0),
    Message('note_on', channel=4, note=28, velocity=0, time=60),
    Message('note_on', channel=4, note=30, velocity=100, time=0),
    Message('note_on', channel=4, note=30, velocity=0, time=60),
    Message('note_on', channel=4, note=31, velocity=100, time=0),
    Message('note_on', channel=4, note=31, velocity=0, time=60),
    Message('note_on', channel=4, note=28, velocity=100, time=0),
    Message('note_on', channel=4, note=28, velocity=0, time=60),
    Message('note_on', channel=4, note=30, velocity=100, time=0),
    Message('note_on', channel=4, note=30, velocity=0, time=60),
    Message('note_on', channel=4, note=28, velocity=100, time=0),
    Message('note_on', channel=4, note=28, velocity=0, time=60),
    Message('note_on', channel=4, note=28, velocity=100, time=0),
    Message('note_on', channel=4, note=28, velocity=0, time=60),
    Message('note_on', channel=4, note=30, velocity=100, time=0),
    Message('note_on', channel=4, note=30, velocity=0, time=60),
    Message('note_on', channel=4, note=31, velocity=100, time=0),
    Message('note_on', channel=4, note=31, velocity=0, time=60),
    Message('note_on', channel=4, note=28, velocity=100, time=0),
    Message('note_on', channel=4, note=28, velocity=0, time=60),
    Message('note_on', channel=4, note=28, velocity=100, time=0),
    Message('note_on', channel=4, note=28, velocity=0, time=60),
    Message('note_on', channel=4, note=31, velocity=100, time=0),
    Message('note_on', channel=4, note=31, velocity=0, time=60),
    Message('note_on', channel=4, note=30, velocity=100, time=0),
    Message('note_on', channel=4, note=30, velocity=0, time=60),
    Message('note_on', channel=4, note=28, velocity=100, time=0),
    Message('note_on', channel=4, note=28, velocity=0, time=60),
    Message('note_on', channel=4, note=28, velocity=100, time=0),
    Message('note_on', channel=4, note=28, velocity=0, time=60),
    Message('note_on', channel=4, note=30, velocity=100, time=0),
    Message('note_on', channel=4, note=30, velocity=0, time=60),
    Message('note_on', channel=4, note=31, velocity=100, time=0),
    Message('note_on', channel=4, note=31, velocity=0, time=60),
    Message('note_on', channel=4, note=28, velocity=100, time=0),
    Message('note_on', channel=4, note=28, velocity=0, time=120),
    Message('note_on', channel=4, note=28, velocity=100, time=0),
    Message('note_on', channel=4, note=28, velocity=0, time=60),
    Message('note_on', channel=4, note=28, velocity=100, time=0),
    Message('note_on', channel=4, note=28, velocity=0, time=60),
    Message('note_on', channel=4, note=28, velocity=100, time=0),
    Message('note_on', channel=4, note=28, velocity=0, time=60),
    Message('note_on', channel=4, note=28, velocity=100, time=0),
    Message('note_on', channel=4, note=28, velocity=0, time=60),
    Message('note_on', channel=4, note=28, velocity=100, time=0),
    Message('note_on', channel=4, note=28, velocity=0, time=60),
    Message('note_on', channel=4, note=28, velocity=100, time=0),
    Message('note_on', channel=4, note=28, velocity=0, time=60),
    Message('note_on', channel=4, note=28, velocity=100, time=0),
    Message('note_on', channel=4, note=28, velocity=0, time=60),
    Message('note_on', channel=4, note=28, velocity=100, time=0),
    Message('note_on', channel=4, note=28, velocity=0, time=60),
    Message('note_on', channel=4, note=28, velocity=100, time=0),
    Message('note_on', channel=4, note=28, velocity=0, time=60),
    Message('note_on', channel=4, note=28, velocity=100, time=0),
    Message('note_on', channel=4, note=28, velocity=0, time=60),
    Message('note_on', channel=4, note=28, velocity=100, time=0),
    Message('note_on', channel=4, note=28, velocity=0, time=60),
    Message('note_on', channel=4, note=28, velocity=100, time=0),
    Message('note_on', channel=4, note=28, velocity=0, time=60),
    Message('note_on', channel=4, note=31, velocity=100, time=0),
    Message('note_on', channel=4, note=31, velocity=0, time=60),
    Message('note_on', channel=4, note=28, velocity=100, time=0),
    Message('note_on', channel=4, note=28, velocity=0, time=60),
    Message('note_on', channel=4, note=30, velocity=100, time=0),
    Message('note_on', channel=4, note=30, velocity=0, time=60),
    Message('note_on', channel=4, note=31, velocity=100, time=0),
    Message('note_on', channel=4, note=31, velocity=0, time=60),
    Message('note_on', channel=4, note=28, velocity=100, time=0),
    Message('note_on', channel=4, note=28, velocity=0, time=60),
    Message('note_on', channel=4, note=30, velocity=100, time=0),
    Message('note_on', channel=4, note=30, velocity=0, time=60),
    Message('note_on', channel=4, note=28, velocity=100, time=0),
    Message('note_on', channel=4, note=28, velocity=0, time=60),
    Message('note_on', channel=4, note=28, velocity=100, time=0),
    Message('note_on', channel=4, note=28, velocity=0, time=60),
    Message('note_on', channel=4, note=30, velocity=100, time=0),
    Message('note_on', channel=4, note=30, velocity=0, time=60),
    Message('note_on', channel=4, note=31, velocity=100, time=0),
    Message('note_on', channel=4, note=31, velocity=0, time=60),
    Message('note_on', channel=4, note=28, velocity=100, time=0),
    Message('note_on', channel=4, note=28, velocity=0, time=60),
    Message('note_on', channel=4, note=28, velocity=100, time=0),
    Message('note_on', channel=4, note=28, velocity=0, time=60),
    Message('note_on', channel=4, note=31, velocity=100, time=0),
    Message('note_on', channel=4, note=31, velocity=0, time=60),
    Message('note_on', channel=4, note=30, velocity=100, time=0),
    Message('note_on', channel=4, note=30, velocity=0, time=60),
    Message('note_on', channel=4, note=28, velocity=100, time=0),
    Message('note_on', channel=4, note=28, velocity=0, time=60),
    Message('note_on', channel=4, note=28, velocity=100, time=0),
    Message('note_on', channel=4, note=28, velocity=0, time=60),
    Message('note_on', channel=4, note=30, velocity=100, time=0),
    Message('note_on', channel=4, note=30, velocity=0, time=60),
    Message('note_on', channel=4, note=31, velocity=100, time=0),
    Message('note_on', channel=4, note=31, velocity=0, time=60),
    Message('note_on', channel=4, note=28, velocity=100, time=0),
    Message('note_on', channel=4, note=28, velocity=0, time=120),
    Message('note_on', channel=4, note=28, velocity=100, time=0),
    Message('note_on', channel=4, note=28, velocity=0, time=60),
    Message('note_on', channel=4, note=28, velocity=100, time=0),
    Message('note_on', channel=4, note=28, velocity=0, time=60),
    Message('note_on', channel=4, note=28, velocity=100, time=0),
    Message('note_on', channel=4, note=28, velocity=0, time=60),
    Message('note_on', channel=4, note=28, velocity=100, time=0),
    Message('note_on', channel=4, note=28, velocity=0, time=60),
    Message('note_on', channel=4, note=28, velocity=100, time=0),
    Message('note_on', channel=4, note=28, velocity=0, time=60),
    Message('note_on', channel=4, note=28, velocity=100, time=0),
    Message('note_on', channel=4, note=28, velocity=0, time=60),
    Message('note_on', channel=4, note=28, velocity=100, time=0),
    Message('note_on', channel=4, note=28, velocity=0, time=60),
    Message('note_on', channel=4, note=28, velocity=100, time=0),
    Message('note_on', channel=4, note=28, velocity=0, time=60),
    Message('note_on', channel=4, note=28, velocity=100, time=0),
    Message('note_on', channel=4, note=28, velocity=0, time=60),
    Message('note_on', channel=4, note=28, velocity=100, time=0),
    Message('note_on', channel=4, note=28, velocity=0, time=60),
    Message('note_on', channel=4, note=28, velocity=100, time=0),
    Message('note_on', channel=4, note=28, velocity=0, time=60),
    Message('note_on', channel=4, note=28, velocity=100, time=0),
    Message('note_on', channel=4, note=28, velocity=0, time=60),
    Message('note_on', channel=4, note=31, velocity=100, time=0),
    Message('note_on', channel=4, note=31, velocity=0, time=60),
    Message('note_on', channel=4, note=28, velocity=100, time=0),
    Message('note_on', channel=4, note=28, velocity=0, time=60),
    Message('note_on', channel=4, note=30, velocity=100, time=0),
    Message('note_on', channel=4, note=30, velocity=0, time=60),
    Message('note_on', channel=4, note=31, velocity=100, time=0),
    Message('note_on', channel=4, note=31, velocity=0, time=60),
    Message('note_on', channel=4, note=28, velocity=100, time=0),
    Message('note_on', channel=4, note=28, velocity=0, time=60),
    Message('note_on', channel=4, note=30, velocity=100, time=0),
    Message('note_on', channel=4, note=30, velocity=0, time=60),
    Message('note_on', channel=4, note=28, velocity=100, time=0),
    Message('note_on', channel=4, note=28, velocity=0, time=60),
    Message('note_on', channel=4, note=28, velocity=100, time=0),
    Message('note_on', channel=4, note=28, velocity=0, time=60),
    Message('note_on', channel=4, note=30, velocity=100, time=0),
    Message('note_on', channel=4, note=30, velocity=0, time=60),
    Message('note_on', channel=4, note=31, velocity=100, time=0),
    Message('note_on', channel=4, note=31, velocity=0, time=60),
    Message('note_on', channel=4, note=28, velocity=100, time=0),
    Message('note_on', channel=4, note=28, velocity=0, time=60),
    Message('note_on', channel=4, note=28, velocity=100, time=0),
    Message('note_on', channel=4, note=28, velocity=0, time=60),
    Message('note_on', channel=4, note=31, velocity=100, time=0),
    Message('note_on', channel=4, note=31, velocity=0, time=60),
    Message('note_on', channel=4, note=30, velocity=100, time=0),
    Message('note_on', channel=4, note=30, velocity=0, time=60),
    Message('note_on', channel=4, note=28, velocity=100, time=0),
    Message('note_on', channel=4, note=28, velocity=0, time=60),
    Message('note_on', channel=4, note=28, velocity=100, time=0),
    Message('note_on', channel=4, note=28, velocity=0, time=60),
    Message('note_on', channel=4, note=30, velocity=100, time=0),
    Message('note_on', channel=4, note=30, velocity=0, time=60),
    Message('note_on', channel=4, note=31, velocity=100, time=0),
    Message('note_on', channel=4, note=31, velocity=0, time=60),
    Message('note_on', channel=4, note=38, velocity=100, time=0),
    Message('note_on', channel=4, note=38, velocity=0, time=30),
    Message('note_on', channel=4, note=40, velocity=100, time=0),
    Message('note_on', channel=4, note=40, velocity=0, time=30),
    Message('note_on', channel=4, note=28, velocity=100, time=0),
    Message('note_on', channel=4, note=28, velocity=0, time=30),
    Message('note_on', channel=4, note=28, velocity=100, time=0),
    Message('note_on', channel=4, note=28, velocity=0, time=30),
    Message('note_on', channel=4, note=28, velocity=100, time=0),
    Message('note_on', channel=4, note=28, velocity=0, time=30),
    Message('note_on', channel=4, note=28, velocity=100, time=0),
    Message('note_on', channel=4, note=28, velocity=0, time=30),
    Message('note_on', channel=4, note=43, velocity=100, time=0),
    Message('note_on', channel=4, note=43, velocity=0, time=30),
    Message('note_on', channel=4, note=40, velocity=100, time=0),
    Message('note_on', channel=4, note=40, velocity=0, time=30),
    Message('note_on', channel=4, note=28, velocity=100, time=0),
    Message('note_on', channel=4, note=28, velocity=0, time=30),
    Message('note_on', channel=4, note=28, velocity=100, time=0),
    Message('note_on', channel=4, note=28, velocity=0, time=30),
    Message('note_on', channel=4, note=28, velocity=100, time=0),
    Message('note_on', channel=4, note=28, velocity=0, time=30),
    Message('note_on', channel=4, note=28, velocity=100, time=0),
    Message('note_on', channel=4, note=28, velocity=0, time=30),
    Message('note_on', channel=4, note=28, velocity=100, time=0),
    Message('note_on', channel=4, note=28, velocity=0, time=30),
    Message('note_on', channel=4, note=28, velocity=100, time=0),
    Message('note_on', channel=4, note=28, velocity=0, time=30),
    Message('note_on', channel=4, note=28, velocity=100, time=0),
    Message('note_on', channel=4, note=28, velocity=0, time=30),
    Message('note_on', channel=4, note=28, velocity=100, time=0),
    Message('note_on', channel=4, note=28, velocity=0, time=30),
    Message('note_on', channel=4, note=38, velocity=100, time=0),
    Message('note_on', channel=4, note=38, velocity=0, time=30),
    Message('note_on', channel=4, note=40, velocity=100, time=0),
    Message('note_on', channel=4, note=40, velocity=0, time=30),
    Message('note_on', channel=4, note=28, velocity=100, time=0),
    Message('note_on', channel=4, note=28, velocity=0, time=30),
    Message('note_on', channel=4, note=28, velocity=100, time=0),
    Message('note_on', channel=4, note=28, velocity=0, time=30),
    Message('note_on', channel=4, note=28, velocity=100, time=0),
    Message('note_on', channel=4, note=28, velocity=0, time=30),
    Message('note_on', channel=4, note=28, velocity=100, time=0),
    Message('note_on', channel=4, note=28, velocity=0, time=30),
    Message('note_on', channel=4, note=38, velocity=100, time=0),
    Message('note_on', channel=4, note=38, velocity=0, time=30),
    Message('note_on', channel=4, note=40, velocity=100, time=0),
    Message('note_on', channel=4, note=40, velocity=0, time=30),
    Message('note_on', channel=4, note=28, velocity=100, time=0),
    Message('note_on', channel=4, note=28, velocity=0, time=30),
    Message('note_on', channel=4, note=28, velocity=100, time=0),
    Message('note_on', channel=4, note=28, velocity=0, time=30),
    Message('note_on', channel=4, note=28, velocity=100, time=0),
    Message('note_on', channel=4, note=28, velocity=0, time=30),
    Message('note_on', channel=4, note=28, velocity=100, time=0),
    Message('note_on', channel=4, note=28, velocity=0, time=30),
    Message('note_on', channel=4, note=35, velocity=100, time=0),
    Message('note_on', channel=4, note=35, velocity=0, time=120),
    Message('note_on', channel=4, note=38, velocity=100, time=0),
    Message('note_on', channel=4, note=38, velocity=0, time=30),
    Message('note_on', channel=4, note=40, velocity=100, time=0),
    Message('note_on', channel=4, note=40, velocity=0, time=30),
    Message('note_on', channel=4, note=28, velocity=100, time=0),
    Message('note_on', channel=4, note=28, velocity=0, time=30),
    Message('note_on', channel=4, note=28, velocity=100, time=0),
    Message('note_on', channel=4, note=28, velocity=0, time=30),
    Message('note_on', channel=4, note=28, velocity=100, time=0),
    Message('note_on', channel=4, note=28, velocity=0, time=30),
    Message('note_on', channel=4, note=28, velocity=100, time=0),
    Message('note_on', channel=4, note=28, velocity=0, time=30),
    Message('note_on', channel=4, note=43, velocity=100, time=0),
    Message('note_on', channel=4, note=43, velocity=0, time=30),
    Message('note_on', channel=4, note=40, velocity=100, time=0),
    Message('note_on', channel=4, note=40, velocity=0, time=30),
    Message('note_on', channel=4, note=28, velocity=100, time=0),
    Message('note_on', channel=4, note=28, velocity=0, time=30),
    Message('note_on', channel=4, note=28, velocity=100, time=0),
    Message('note_on', channel=4, note=28, velocity=0, time=30),
    Message('note_on', channel=4, note=28, velocity=100, time=0),
    Message('note_on', channel=4, note=28, velocity=0, time=30),
    Message('note_on', channel=4, note=28, velocity=100, time=0),
    Message('note_on', channel=4, note=28, velocity=0, time=30),
    Message('note_on', channel=4, note=28, velocity=100, time=0),
    Message('note_on', channel=4, note=28, velocity=0, time=30),
    Message('note_on', channel=4, note=28, velocity=100, time=0),
    Message('note_on', channel=4, note=28, velocity=0, time=30),
    Message('note_on', channel=4, note=28, velocity=100, time=0),
    Message('note_on', channel=4, note=28, velocity=0, time=30),
    Message('note_on', channel=4, note=28, velocity=100, time=0),
    Message('note_on', channel=4, note=28, velocity=0, time=30),
    Message('note_on', channel=4, note=38, velocity=100, time=0),
    Message('note_on', channel=4, note=38, velocity=0, time=30),
    Message('note_on', channel=4, note=40, velocity=100, time=0),
    Message('note_on', channel=4, note=40, velocity=0, time=30),
    Message('note_on', channel=4, note=28, velocity=100, time=0),
    Message('note_on', channel=4, note=28, velocity=0, time=30),
    Message('note_on', channel=4, note=28, velocity=100, time=0),
    Message('note_on', channel=4, note=28, velocity=0, time=30),
    Message('note_on', channel=4, note=28, velocity=100, time=0),
    Message('note_on', channel=4, note=28, velocity=0, time=30),
    Message('note_on', channel=4, note=28, velocity=100, time=0),
    Message('note_on', channel=4, note=28, velocity=0, time=30),
    Message('note_on', channel=4, note=38, velocity=100, time=0),
    Message('note_on', channel=4, note=38, velocity=0, time=30),
    Message('note_on', channel=4, note=40, velocity=100, time=0),
    Message('note_on', channel=4, note=40, velocity=0, time=30),
    Message('note_on', channel=4, note=28, velocity=100, time=0),
    Message('note_on', channel=4, note=28, velocity=0, time=30),
    Message('note_on', channel=4, note=28, velocity=100, time=0),
    Message('note_on', channel=4, note=28, velocity=0, time=30),
    Message('note_on', channel=4, note=28, velocity=100, time=0),
    Message('note_on', channel=4, note=28, velocity=0, time=30),
    Message('note_on', channel=4, note=28, velocity=100, time=0),
    Message('note_on', channel=4, note=28, velocity=0, time=30),
    Message('note_on', channel=4, note=35, velocity=100, time=0),
    Message('note_on', channel=4, note=35, velocity=0, time=120),
    Message('note_on', channel=4, note=38, velocity=100, time=0),
    Message('note_on', channel=4, note=38, velocity=0, time=30),
    Message('note_on', channel=4, note=40, velocity=100, time=0),
    Message('note_on', channel=4, note=40, velocity=0, time=30),
    Message('note_on', channel=4, note=28, velocity=100, time=0),
    Message('note_on', channel=4, note=28, velocity=0, time=30),
    Message('note_on', channel=4, note=28, velocity=100, time=0),
    Message('note_on', channel=4, note=28, velocity=0, time=30),
    Message('note_on', channel=4, note=28, velocity=100, time=0),
    Message('note_on', channel=4, note=28, velocity=0, time=30),
    Message('note_on', channel=4, note=28, velocity=100, time=0),
    Message('note_on', channel=4, note=28, velocity=0, time=30),
    Message('note_on', channel=4, note=43, velocity=100, time=0),
    Message('note_on', channel=4, note=43, velocity=0, time=30),
    Message('note_on', channel=4, note=40, velocity=100, time=0),
    Message('note_on', channel=4, note=40, velocity=0, time=30),
    Message('note_on', channel=4, note=28, velocity=100, time=0),
    Message('note_on', channel=4, note=28, velocity=0, time=30),
    Message('note_on', channel=4, note=28, velocity=100, time=0),
    Message('note_on', channel=4, note=28, velocity=0, time=30),
    Message('note_on', channel=4, note=28, velocity=100, time=0),
    Message('note_on', channel=4, note=28, velocity=0, time=30),
    Message('note_on', channel=4, note=28, velocity=100, time=0),
    Message('note_on', channel=4, note=28, velocity=0, time=30),
    Message('note_on', channel=4, note=28, velocity=100, time=0),
    Message('note_on', channel=4, note=28, velocity=0, time=30),
    Message('note_on', channel=4, note=28, velocity=100, time=0),
    Message('note_on', channel=4, note=28, velocity=0, time=30),
    Message('note_on', channel=4, note=28, velocity=100, time=0),
    Message('note_on', channel=4, note=28, velocity=0, time=30),
    Message('note_on', channel=4, note=28, velocity=100, time=0),
    Message('note_on', channel=4, note=28, velocity=0, time=30),
    Message('note_on', channel=4, note=38, velocity=100, time=0),
    Message('note_on', channel=4, note=38, velocity=0, time=30),
    Message('note_on', channel=4, note=40, velocity=100, time=0),
    Message('note_on', channel=4, note=40, velocity=0, time=30),
    Message('note_on', channel=4, note=28, velocity=100, time=0),
    Message('note_on', channel=4, note=28, velocity=0, time=30),
    Message('note_on', channel=4, note=28, velocity=100, time=0),
    Message('note_on', channel=4, note=28, velocity=0, time=30),
    Message('note_on', channel=4, note=28, velocity=100, time=0),
    Message('note_on', channel=4, note=28, velocity=0, time=30),
    Message('note_on', channel=4, note=28, velocity=100, time=0),
    Message('note_on', channel=4, note=28, velocity=0, time=30),
    Message('note_on', channel=4, note=38, velocity=100, time=0),
    Message('note_on', channel=4, note=38, velocity=0, time=30),
    Message('note_on', channel=4, note=40, velocity=100, time=0),
    Message('note_on', channel=4, note=40, velocity=0, time=30),
    Message('note_on', channel=4, note=28, velocity=100, time=0),
    Message('note_on', channel=4, note=28, velocity=0, time=30),
    Message('note_on', channel=4, note=28, velocity=100, time=0),
    Message('note_on', channel=4, note=28, velocity=0, time=30),
    Message('note_on', channel=4, note=28, velocity=100, time=0),
    Message('note_on', channel=4, note=28, velocity=0, time=30),
    Message('note_on', channel=4, note=28, velocity=100, time=0),
    Message('note_on', channel=4, note=28, velocity=0, time=30),
    Message('note_on', channel=4, note=35, velocity=100, time=0),
    Message('note_on', channel=4, note=35, velocity=0, time=120),
    Message('note_on', channel=4, note=38, velocity=100, time=0),
    Message('note_on', channel=4, note=38, velocity=0, time=30),
    Message('note_on', channel=4, note=40, velocity=100, time=0),
    Message('note_on', channel=4, note=40, velocity=0, time=30),
    Message('note_on', channel=4, note=28, velocity=100, time=0),
    Message('note_on', channel=4, note=28, velocity=0, time=30),
    Message('note_on', channel=4, note=28, velocity=100, time=0),
    Message('note_on', channel=4, note=28, velocity=0, time=30),
    Message('note_on', channel=4, note=28, velocity=100, time=0),
    Message('note_on', channel=4, note=28, velocity=0, time=30),
    Message('note_on', channel=4, note=28, velocity=100, time=0),
    Message('note_on', channel=4, note=28, velocity=0, time=30),
    Message('note_on', channel=4, note=43, velocity=100, time=0),
    Message('note_on', channel=4, note=43, velocity=0, time=30),
    Message('note_on', channel=4, note=40, velocity=100, time=0),
    Message('note_on', channel=4, note=40, velocity=0, time=30),
    Message('note_on', channel=4, note=28, velocity=100, time=0),
    Message('note_on', channel=4, note=28, velocity=0, time=30),
    Message('note_on', channel=4, note=28, velocity=100, time=0),
    Message('note_on', channel=4, note=28, velocity=0, time=30),
    Message('note_on', channel=4, note=28, velocity=100, time=0),
    Message('note_on', channel=4, note=28, velocity=0, time=30),
    Message('note_on', channel=4, note=28, velocity=100, time=0),
    Message('note_on', channel=4, note=28, velocity=0, time=30),
    Message('note_on', channel=4, note=28, velocity=100, time=0),
    Message('note_on', channel=4, note=28, velocity=0, time=30),
    Message('note_on', channel=4, note=28, velocity=100, time=0),
    Message('note_on', channel=4, note=28, velocity=0, time=30),
    Message('note_on', channel=4, note=28, velocity=100, time=0),
    Message('note_on', channel=4, note=28, velocity=0, time=30),
    Message('note_on', channel=4, note=28, velocity=100, time=0),
    Message('note_on', channel=4, note=28, velocity=0, time=30),
    Message('note_on', channel=4, note=38, velocity=100, time=0),
    Message('note_on', channel=4, note=38, velocity=0, time=30),
    Message('note_on', channel=4, note=40, velocity=100, time=0),
    Message('note_on', channel=4, note=40, velocity=0, time=30),
    Message('note_on', channel=4, note=28, velocity=100, time=0),
    Message('note_on', channel=4, note=28, velocity=0, time=30),
    Message('note_on', channel=4, note=28, velocity=100, time=0),
    Message('note_on', channel=4, note=28, velocity=0, time=30),
    Message('note_on', channel=4, note=28, velocity=100, time=0),
    Message('note_on', channel=4, note=28, velocity=0, time=30),
    Message('note_on', channel=4, note=28, velocity=100, time=0),
    Message('note_on', channel=4, note=28, velocity=0, time=30),
    Message('note_on', channel=4, note=38, velocity=100, time=0),
    Message('note_on', channel=4, note=38, velocity=0, time=30),
    Message('note_on', channel=4, note=40, velocity=100, time=0),
    Message('note_on', channel=4, note=40, velocity=0, time=30),
    Message('note_on', channel=4, note=28, velocity=100, time=0),
    Message('note_on', channel=4, note=28, velocity=0, time=30),
    Message('note_on', channel=4, note=28, velocity=100, time=0),
    Message('note_on', channel=4, note=28, velocity=0, time=30),
    Message('note_on', channel=4, note=28, velocity=100, time=0),
    Message('note_on', channel=4, note=28, velocity=0, time=30),
    Message('note_on', channel=4, note=28, velocity=100, time=0),
    Message('note_on', channel=4, note=28, velocity=0, time=30),
    Message('note_on', channel=4, note=35, velocity=100, time=0),
    Message('note_on', channel=4, note=35, velocity=0, time=120),
    Message('note_on', channel=4, note=38, velocity=100, time=0),
    Message('note_on', channel=4, note=38, velocity=0, time=30),
    Message('note_on', channel=4, note=40, velocity=100, time=0),
    Message('note_on', channel=4, note=40, velocity=0, time=30),
    Message('note_on', channel=4, note=28, velocity=100, time=0),
    Message('note_on', channel=4, note=28, velocity=0, time=30),
    Message('note_on', channel=4, note=28, velocity=100, time=0),
    Message('note_on', channel=4, note=28, velocity=0, time=30),
    Message('note_on', channel=4, note=28, velocity=100, time=0),
    Message('note_on', channel=4, note=28, velocity=0, time=30),
    Message('note_on', channel=4, note=28, velocity=100, time=0),
    Message('note_on', channel=4, note=28, velocity=0, time=30),
    Message('note_on', channel=4, note=43, velocity=100, time=0),
    Message('note_on', channel=4, note=43, velocity=0, time=30),
    Message('note_on', channel=4, note=40, velocity=100, time=0),
    Message('note_on', channel=4, note=40, velocity=0, time=30),
    Message('note_on', channel=4, note=28, velocity=100, time=0),
    Message('note_on', channel=4, note=28, velocity=0, time=30),
    Message('note_on', channel=4, note=28, velocity=100, time=0),
    Message('note_on', channel=4, note=28, velocity=0, time=30),
    Message('note_on', channel=4, note=28, velocity=100, time=0),
    Message('note_on', channel=4, note=28, velocity=0, time=30),
    Message('note_on', channel=4, note=28, velocity=100, time=0),
    Message('note_on', channel=4, note=28, velocity=0, time=30),
    Message('note_on', channel=4, note=28, velocity=100, time=0),
    Message('note_on', channel=4, note=28, velocity=0, time=30),
    Message('note_on', channel=4, note=28, velocity=100, time=0),
    Message('note_on', channel=4, note=28, velocity=0, time=30),
    Message('note_on', channel=4, note=28, velocity=100, time=0),
    Message('note_on', channel=4, note=28, velocity=0, time=30),
    Message('note_on', channel=4, note=28, velocity=100, time=0),
    Message('note_on', channel=4, note=28, velocity=0, time=30),
    Message('note_on', channel=4, note=38, velocity=100, time=0),
    Message('note_on', channel=4, note=38, velocity=0, time=30),
    Message('note_on', channel=4, note=40, velocity=100, time=0),
    Message('note_on', channel=4, note=40, velocity=0, time=30),
    Message('note_on', channel=4, note=28, velocity=100, time=0),
    Message('note_on', channel=4, note=28, velocity=0, time=30),
    Message('note_on', channel=4, note=28, velocity=100, time=0),
    Message('note_on', channel=4, note=28, velocity=0, time=30),
    Message('note_on', channel=4, note=28, velocity=100, time=0),
    Message('note_on', channel=4, note=28, velocity=0, time=30),
    Message('note_on', channel=4, note=28, velocity=100, time=0),
    Message('note_on', channel=4, note=28, velocity=0, time=30),
    Message('note_on', channel=4, note=38, velocity=100, time=0),
    Message('note_on', channel=4, note=38, velocity=0, time=30),
    Message('note_on', channel=4, note=40, velocity=100, time=0),
    Message('note_on', channel=4, note=40, velocity=0, time=30),
    Message('note_on', channel=4, note=28, velocity=100, time=0),
    Message('note_on', channel=4, note=28, velocity=0, time=30),
    Message('note_on', channel=4, note=28, velocity=100, time=0),
    Message('note_on', channel=4, note=28, velocity=0, time=30),
    Message('note_on', channel=4, note=28, velocity=100, time=0),
    Message('note_on', channel=4, note=28, velocity=0, time=30),
    Message('note_on', channel=4, note=28, velocity=100, time=0),
    Message('note_on', channel=4, note=28, velocity=0, time=30),
    Message('note_on', channel=4, note=35, velocity=100, time=0),
    Message('note_on', channel=4, note=35, velocity=0, time=120),
    Message('note_on', channel=4, note=38, velocity=100, time=0),
    Message('note_on', channel=4, note=38, velocity=0, time=30),
    Message('note_on', channel=4, note=40, velocity=100, time=0),
    Message('note_on', channel=4, note=40, velocity=0, time=30),
    Message('note_on', channel=4, note=28, velocity=100, time=0),
    Message('note_on', channel=4, note=28, velocity=0, time=30),
    Message('note_on', channel=4, note=28, velocity=100, time=0),
    Message('note_on', channel=4, note=28, velocity=0, time=30),
    Message('note_on', channel=4, note=28, velocity=100, time=0),
    Message('note_on', channel=4, note=28, velocity=0, time=30),
    Message('note_on', channel=4, note=28, velocity=100, time=0),
    Message('note_on', channel=4, note=28, velocity=0, time=30),
    Message('note_on', channel=4, note=43, velocity=100, time=0),
    Message('note_on', channel=4, note=43, velocity=0, time=30),
    Message('note_on', channel=4, note=40, velocity=100, time=0),
    Message('note_on', channel=4, note=40, velocity=0, time=30),
    Message('note_on', channel=4, note=28, velocity=100, time=0),
    Message('note_on', channel=4, note=28, velocity=0, time=30),
    Message('note_on', channel=4, note=28, velocity=100, time=0),
    Message('note_on', channel=4, note=28, velocity=0, time=30),
    Message('note_on', channel=4, note=28, velocity=100, time=0),
    Message('note_on', channel=4, note=28, velocity=0, time=30),
    Message('note_on', channel=4, note=28, velocity=100, time=0),
    Message('note_on', channel=4, note=28, velocity=0, time=30),
    Message('note_on', channel=4, note=28, velocity=100, time=0),
    Message('note_on', channel=4, note=28, velocity=0, time=30),
    Message('note_on', channel=4, note=28, velocity=100, time=0),
    Message('note_on', channel=4, note=28, velocity=0, time=30),
    Message('note_on', channel=4, note=28, velocity=100, time=0),
    Message('note_on', channel=4, note=28, velocity=0, time=30),
    Message('note_on', channel=4, note=28, velocity=100, time=0),
    Message('note_on', channel=4, note=28, velocity=0, time=30),
    Message('note_on', channel=4, note=38, velocity=100, time=0),
    Message('note_on', channel=4, note=38, velocity=0, time=30),
    Message('note_on', channel=4, note=40, velocity=100, time=0),
    Message('note_on', channel=4, note=40, velocity=0, time=30),
    Message('note_on', channel=4, note=28, velocity=100, time=0),
    Message('note_on', channel=4, note=28, velocity=0, time=30),
    Message('note_on', channel=4, note=28, velocity=100, time=0),
    Message('note_on', channel=4, note=28, velocity=0, time=30),
    Message('note_on', channel=4, note=28, velocity=100, time=0),
    Message('note_on', channel=4, note=28, velocity=0, time=30),
    Message('note_on', channel=4, note=28, velocity=100, time=0),
    Message('note_on', channel=4, note=28, velocity=0, time=30),
    Message('note_on', channel=4, note=38, velocity=100, time=0),
    Message('note_on', channel=4, note=38, velocity=0, time=30),
    Message('note_on', channel=4, note=40, velocity=100, time=0),
    Message('note_on', channel=4, note=40, velocity=0, time=30),
    Message('note_on', channel=4, note=28, velocity=100, time=0),
    Message('note_on', channel=4, note=28, velocity=0, time=30),
    Message('note_on', channel=4, note=28, velocity=100, time=0),
    Message('note_on', channel=4, note=28, velocity=0, time=30),
    Message('note_on', channel=4, note=28, velocity=100, time=0),
    Message('note_on', channel=4, note=28, velocity=0, time=30),
    Message('note_on', channel=4, note=28, velocity=100, time=0),
    Message('note_on', channel=4, note=28, velocity=0, time=30),
    Message('note_on', channel=4, note=35, velocity=100, time=0),
    Message('note_on', channel=4, note=35, velocity=0, time=120),
    Message('note_on', channel=4, note=38, velocity=100, time=0),
    Message('note_on', channel=4, note=38, velocity=0, time=30),
    Message('note_on', channel=4, note=40, velocity=100, time=0),
    Message('note_on', channel=4, note=40, velocity=0, time=30),
    Message('note_on', channel=4, note=28, velocity=100, time=0),
    Message('note_on', channel=4, note=28, velocity=0, time=30),
    Message('note_on', channel=4, note=28, velocity=100, time=0),
    Message('note_on', channel=4, note=28, velocity=0, time=30),
    Message('note_on', channel=4, note=28, velocity=100, time=0),
    Message('note_on', channel=4, note=28, velocity=0, time=30),
    Message('note_on', channel=4, note=28, velocity=100, time=0),
    Message('note_on', channel=4, note=28, velocity=0, time=30),
    Message('note_on', channel=4, note=43, velocity=100, time=0),
    Message('note_on', channel=4, note=43, velocity=0, time=30),
    Message('note_on', channel=4, note=40, velocity=100, time=0),
    Message('note_on', channel=4, note=40, velocity=0, time=30),
    Message('note_on', channel=4, note=28, velocity=100, time=0),
    Message('note_on', channel=4, note=28, velocity=0, time=30),
    Message('note_on', channel=4, note=28, velocity=100, time=0),
    Message('note_on', channel=4, note=28, velocity=0, time=30),
    Message('note_on', channel=4, note=28, velocity=100, time=0),
    Message('note_on', channel=4, note=28, velocity=0, time=30),
    Message('note_on', channel=4, note=28, velocity=100, time=0),
    Message('note_on', channel=4, note=28, velocity=0, time=30),
    Message('note_on', channel=4, note=28, velocity=100, time=0),
    Message('note_on', channel=4, note=28, velocity=0, time=30),
    Message('note_on', channel=4, note=28, velocity=100, time=0),
    Message('note_on', channel=4, note=28, velocity=0, time=30),
    Message('note_on', channel=4, note=28, velocity=100, time=0),
    Message('note_on', channel=4, note=28, velocity=0, time=30),
    Message('note_on', channel=4, note=28, velocity=100, time=0),
    Message('note_on', channel=4, note=28, velocity=0, time=30),
    Message('note_on', channel=4, note=38, velocity=100, time=0),
    Message('note_on', channel=4, note=38, velocity=0, time=30),
    Message('note_on', channel=4, note=40, velocity=100, time=0),
    Message('note_on', channel=4, note=40, velocity=0, time=30),
    Message('note_on', channel=4, note=28, velocity=100, time=0),
    Message('note_on', channel=4, note=28, velocity=0, time=30),
    Message('note_on', channel=4, note=28, velocity=100, time=0),
    Message('note_on', channel=4, note=28, velocity=0, time=30),
    Message('note_on', channel=4, note=28, velocity=100, time=0),
    Message('note_on', channel=4, note=28, velocity=0, time=30),
    Message('note_on', channel=4, note=28, velocity=100, time=0),
    Message('note_on', channel=4, note=28, velocity=0, time=30),
    Message('note_on', channel=4, note=38, velocity=100, time=0),
    Message('note_on', channel=4, note=38, velocity=0, time=30),
    Message('note_on', channel=4, note=40, velocity=100, time=0),
    Message('note_on', channel=4, note=40, velocity=0, time=30),
    Message('note_on', channel=4, note=28, velocity=100, time=0),
    Message('note_on', channel=4, note=28, velocity=0, time=30),
    Message('note_on', channel=4, note=28, velocity=100, time=0),
    Message('note_on', channel=4, note=28, velocity=0, time=30),
    Message('note_on', channel=4, note=28, velocity=100, time=0),
    Message('note_on', channel=4, note=28, velocity=0, time=30),
    Message('note_on', channel=4, note=28, velocity=100, time=0),
    Message('note_on', channel=4, note=28, velocity=0, time=30),
    Message('note_on', channel=4, note=35, velocity=100, time=0),
    Message('note_on', channel=4, note=35, velocity=0, time=120),
    Message('note_on', channel=4, note=38, velocity=100, time=0),
    Message('note_on', channel=4, note=38, velocity=0, time=30),
    Message('note_on', channel=4, note=40, velocity=100, time=0),
    Message('note_on', channel=4, note=40, velocity=0, time=30),
    Message('note_on', channel=4, note=28, velocity=100, time=0),
    Message('note_on', channel=4, note=28, velocity=0, time=30),
    Message('note_on', channel=4, note=28, velocity=100, time=0),
    Message('note_on', channel=4, note=28, velocity=0, time=30),
    Message('note_on', channel=4, note=28, velocity=100, time=0),
    Message('note_on', channel=4, note=28, velocity=0, time=30),
    Message('note_on', channel=4, note=28, velocity=100, time=0),
    Message('note_on', channel=4, note=28, velocity=0, time=30),
    Message('note_on', channel=4, note=43, velocity=100, time=0),
    Message('note_on', channel=4, note=43, velocity=0, time=30),
    Message('note_on', channel=4, note=40, velocity=100, time=0),
    Message('note_on', channel=4, note=40, velocity=0, time=30),
    Message('note_on', channel=4, note=28, velocity=100, time=0),
    Message('note_on', channel=4, note=28, velocity=0, time=30),
    Message('note_on', channel=4, note=28, velocity=100, time=0),
    Message('note_on', channel=4, note=28, velocity=0, time=30),
    Message('note_on', channel=4, note=28, velocity=100, time=0),
    Message('note_on', channel=4, note=28, velocity=0, time=30),
    Message('note_on', channel=4, note=28, velocity=100, time=0),
    Message('note_on', channel=4, note=28, velocity=0, time=30),
    Message('note_on', channel=4, note=28, velocity=100, time=0),
    Message('note_on', channel=4, note=28, velocity=0, time=30),
    Message('note_on', channel=4, note=28, velocity=100, time=0),
    Message('note_on', channel=4, note=28, velocity=0, time=30),
    Message('note_on', channel=4, note=28, velocity=100, time=0),
    Message('note_on', channel=4, note=28, velocity=0, time=30),
    Message('note_on', channel=4, note=28, velocity=100, time=0),
    Message('note_on', channel=4, note=28, velocity=0, time=30),
    Message('note_on', channel=4, note=38, velocity=100, time=0),
    Message('note_on', channel=4, note=38, velocity=0, time=30),
    Message('note_on', channel=4, note=40, velocity=100, time=0),
    Message('note_on', channel=4, note=40, velocity=0, time=30),
    Message('note_on', channel=4, note=28, velocity=100, time=0),
    Message('note_on', channel=4, note=28, velocity=0, time=30),
    Message('note_on', channel=4, note=28, velocity=100, time=0),
    Message('note_on', channel=4, note=28, velocity=0, time=30),
    Message('note_on', channel=4, note=28, velocity=100, time=0),
    Message('note_on', channel=4, note=28, velocity=0, time=30),
    Message('note_on', channel=4, note=28, velocity=100, time=0),
    Message('note_on', channel=4, note=28, velocity=0, time=30),
    Message('note_on', channel=4, note=38, velocity=100, time=0),
    Message('note_on', channel=4, note=38, velocity=0, time=30),
    Message('note_on', channel=4, note=40, velocity=100, time=0),
    Message('note_on', channel=4, note=40, velocity=0, time=30),
    Message('note_on', channel=4, note=28, velocity=100, time=0),
    Message('note_on', channel=4, note=28, velocity=0, time=30),
    Message('note_on', channel=4, note=28, velocity=100, time=0),
    Message('note_on', channel=4, note=28, velocity=0, time=30),
    Message('note_on', channel=4, note=28, velocity=100, time=0),
    Message('note_on', channel=4, note=28, velocity=0, time=30),
    Message('note_on', channel=4, note=28, velocity=100, time=0),
    Message('note_on', channel=4, note=28, velocity=0, time=30),
    Message('note_on', channel=4, note=35, velocity=100, time=0),
    Message('note_on', channel=4, note=35, velocity=0, time=120),
    Message('note_on', channel=4, note=38, velocity=100, time=0),
    Message('note_on', channel=4, note=38, velocity=0, time=30),
    Message('note_on', channel=4, note=40, velocity=100, time=0),
    Message('note_on', channel=4, note=40, velocity=0, time=30),
    Message('note_on', channel=4, note=28, velocity=100, time=0),
    Message('note_on', channel=4, note=28, velocity=0, time=30),
    Message('note_on', channel=4, note=28, velocity=100, time=0),
    Message('note_on', channel=4, note=28, velocity=0, time=30),
    Message('note_on', channel=4, note=28, velocity=100, time=0),
    Message('note_on', channel=4, note=28, velocity=0, time=30),
    Message('note_on', channel=4, note=28, velocity=100, time=0),
    Message('note_on', channel=4, note=28, velocity=0, time=30),
    Message('note_on', channel=4, note=43, velocity=100, time=0),
    Message('note_on', channel=4, note=43, velocity=0, time=30),
    Message('note_on', channel=4, note=40, velocity=100, time=0),
    Message('note_on', channel=4, note=40, velocity=0, time=30),
    Message('note_on', channel=4, note=28, velocity=100, time=0),
    Message('note_on', channel=4, note=28, velocity=0, time=30),
    Message('note_on', channel=4, note=28, velocity=100, time=0),
    Message('note_on', channel=4, note=28, velocity=0, time=30),
    Message('note_on', channel=4, note=28, velocity=100, time=0),
    Message('note_on', channel=4, note=28, velocity=0, time=30),
    Message('note_on', channel=4, note=28, velocity=100, time=0),
    Message('note_on', channel=4, note=28, velocity=0, time=30),
    Message('note_on', channel=4, note=28, velocity=100, time=0),
    Message('note_on', channel=4, note=28, velocity=0, time=30),
    Message('note_on', channel=4, note=28, velocity=100, time=0),
    Message('note_on', channel=4, note=28, velocity=0, time=30),
    Message('note_on', channel=4, note=28, velocity=100, time=0),
    Message('note_on', channel=4, note=28, velocity=0, time=30),
    Message('note_on', channel=4, note=28, velocity=100, time=0),
    Message('note_on', channel=4, note=28, velocity=0, time=30),
    Message('note_on', channel=4, note=38, velocity=100, time=0),
    Message('note_on', channel=4, note=38, velocity=0, time=30),
    Message('note_on', channel=4, note=40, velocity=100, time=0),
    Message('note_on', channel=4, note=40, velocity=0, time=30),
    Message('note_on', channel=4, note=28, velocity=100, time=0),
    Message('note_on', channel=4, note=28, velocity=0, time=30),
    Message('note_on', channel=4, note=28, velocity=100, time=0),
    Message('note_on', channel=4, note=28, velocity=0, time=30),
    Message('note_on', channel=4, note=28, velocity=100, time=0),
    Message('note_on', channel=4, note=28, velocity=0, time=30),
    Message('note_on', channel=4, note=28, velocity=100, time=0),
    Message('note_on', channel=4, note=28, velocity=0, time=30),
    Message('note_on', channel=4, note=38, velocity=100, time=0),
    Message('note_on', channel=4, note=38, velocity=0, time=30),
    Message('note_on', channel=4, note=40, velocity=100, time=0),
    Message('note_on', channel=4, note=40, velocity=0, time=30),
    Message('note_on', channel=4, note=28, velocity=100, time=0),
    Message('note_on', channel=4, note=28, velocity=0, time=30),
    Message('note_on', channel=4, note=28, velocity=100, time=0),
    Message('note_on', channel=4, note=28, velocity=0, time=30),
    Message('note_on', channel=4, note=28, velocity=100, time=0),
    Message('note_on', channel=4, note=28, velocity=0, time=30),
    Message('note_on', channel=4, note=28, velocity=100, time=0),
    Message('note_on', channel=4, note=28, velocity=0, time=30),
    Message('note_on', channel=4, note=35, velocity=100, time=0),
    Message('note_on', channel=4, note=35, velocity=0, time=120),
    Message('note_on', channel=4, note=38, velocity=100, time=0),
    Message('note_on', channel=4, note=38, velocity=0, time=30),
    Message('note_on', channel=4, note=40, velocity=100, time=0),
    Message('note_on', channel=4, note=40, velocity=0, time=30),
    Message('note_on', channel=4, note=28, velocity=100, time=0),
    Message('note_on', channel=4, note=28, velocity=0, time=30),
    Message('note_on', channel=4, note=28, velocity=100, time=0),
    Message('note_on', channel=4, note=28, velocity=0, time=30),
    Message('note_on', channel=4, note=28, velocity=100, time=0),
    Message('note_on', channel=4, note=28, velocity=0, time=30),
    Message('note_on', channel=4, note=28, velocity=100, time=0),
    Message('note_on', channel=4, note=28, velocity=0, time=30),
    Message('note_on', channel=4, note=43, velocity=100, time=0),
    Message('note_on', channel=4, note=43, velocity=0, time=30),
    Message('note_on', channel=4, note=40, velocity=100, time=0),
    Message('note_on', channel=4, note=40, velocity=0, time=30),
    Message('note_on', channel=4, note=28, velocity=100, time=0),
    Message('note_on', channel=4, note=28, velocity=0, time=30),
    Message('note_on', channel=4, note=28, velocity=100, time=0),
    Message('note_on', channel=4, note=28, velocity=0, time=30),
    Message('note_on', channel=4, note=28, velocity=100, time=0),
    Message('note_on', channel=4, note=28, velocity=0, time=30),
    Message('note_on', channel=4, note=28, velocity=100, time=0),
    Message('note_on', channel=4, note=28, velocity=0, time=30),
    Message('note_on', channel=4, note=28, velocity=100, time=0),
    Message('note_on', channel=4, note=28, velocity=0, time=30),
    Message('note_on', channel=4, note=28, velocity=100, time=0),
    Message('note_on', channel=4, note=28, velocity=0, time=30),
    Message('note_on', channel=4, note=28, velocity=100, time=0),
    Message('note_on', channel=4, note=28, velocity=0, time=30),
    Message('note_on', channel=4, note=28, velocity=100, time=0),
    Message('note_on', channel=4, note=28, velocity=0, time=30),
    Message('note_on', channel=4, note=38, velocity=100, time=0),
    Message('note_on', channel=4, note=38, velocity=0, time=30),
    Message('note_on', channel=4, note=40, velocity=100, time=0),
    Message('note_on', channel=4, note=40, velocity=0, time=30),
    Message('note_on', channel=4, note=28, velocity=100, time=0),
    Message('note_on', channel=4, note=28, velocity=0, time=30),
    Message('note_on', channel=4, note=28, velocity=100, time=0),
    Message('note_on', channel=4, note=28, velocity=0, time=30),
    Message('note_on', channel=4, note=28, velocity=100, time=0),
    Message('note_on', channel=4, note=28, velocity=0, time=30),
    Message('note_on', channel=4, note=28, velocity=100, time=0),
    Message('note_on', channel=4, note=28, velocity=0, time=30),
    Message('note_on', channel=4, note=38, velocity=100, time=0),
    Message('note_on', channel=4, note=38, velocity=0, time=30),
    Message('note_on', channel=4, note=40, velocity=100, time=0),
    Message('note_on', channel=4, note=40, velocity=0, time=30),
    Message('note_on', channel=4, note=28, velocity=100, time=0),
    Message('note_on', channel=4, note=28, velocity=0, time=30),
    Message('note_on', channel=4, note=28, velocity=100, time=0),
    Message('note_on', channel=4, note=28, velocity=0, time=30),
    Message('note_on', channel=4, note=28, velocity=100, time=0),
    Message('note_on', channel=4, note=28, velocity=0, time=30),
    Message('note_on', channel=4, note=28, velocity=100, time=0),
    Message('note_on', channel=4, note=28, velocity=0, time=30),
    Message('note_on', channel=4, note=35, velocity=100, time=0),
    Message('note_on', channel=4, note=35, velocity=0, time=120),
    Message('note_on', channel=4, note=38, velocity=100, time=0),
    Message('note_on', channel=4, note=38, velocity=0, time=30),
    Message('note_on', channel=4, note=40, velocity=100, time=0),
    Message('note_on', channel=4, note=40, velocity=0, time=30),
    Message('note_on', channel=4, note=28, velocity=100, time=0),
    Message('note_on', channel=4, note=28, velocity=0, time=30),
    Message('note_on', channel=4, note=28, velocity=100, time=0),
    Message('note_on', channel=4, note=28, velocity=0, time=30),
    Message('note_on', channel=4, note=28, velocity=100, time=0),
    Message('note_on', channel=4, note=28, velocity=0, time=30),
    Message('note_on', channel=4, note=28, velocity=100, time=0),
    Message('note_on', channel=4, note=28, velocity=0, time=30),
    Message('note_on', channel=4, note=43, velocity=100, time=0),
    Message('note_on', channel=4, note=43, velocity=0, time=30),
    Message('note_on', channel=4, note=40, velocity=100, time=0),
    Message('note_on', channel=4, note=40, velocity=0, time=30),
    Message('note_on', channel=4, note=28, velocity=100, time=0),
    Message('note_on', channel=4, note=28, velocity=0, time=30),
    Message('note_on', channel=4, note=28, velocity=100, time=0),
    Message('note_on', channel=4, note=28, velocity=0, time=30),
    Message('note_on', channel=4, note=28, velocity=100, time=0),
    Message('note_on', channel=4, note=28, velocity=0, time=30),
    Message('note_on', channel=4, note=28, velocity=100, time=0),
    Message('note_on', channel=4, note=28, velocity=0, time=30),
    Message('note_on', channel=4, note=28, velocity=100, time=0),
    Message('note_on', channel=4, note=28, velocity=0, time=30),
    Message('note_on', channel=4, note=28, velocity=100, time=0),
    Message('note_on', channel=4, note=28, velocity=0, time=30),
    Message('note_on', channel=4, note=28, velocity=100, time=0),
    Message('note_on', channel=4, note=28, velocity=0, time=30),
    Message('note_on', channel=4, note=28, velocity=100, time=0),
    Message('note_on', channel=4, note=28, velocity=0, time=30),
    Message('note_on', channel=4, note=39, velocity=100, time=0),
    Message('note_on', channel=4, note=39, velocity=0, time=80),
    Message('note_on', channel=4, note=42, velocity=100, time=0),
    Message('note_on', channel=4, note=42, velocity=0, time=80),
    Message('note_on', channel=4, note=51, velocity=100, time=0),
    Message('note_on', channel=4, note=51, velocity=0, time=80),
    Message('note_on', channel=4, note=38, velocity=100, time=0),
    Message('note_on', channel=4, note=38, velocity=0, time=80),
    Message('note_on', channel=4, note=41, velocity=100, time=0),
    Message('note_on', channel=4, note=41, velocity=0, time=80),
    Message('note_on', channel=4, note=50, velocity=100, time=0),
    Message('note_on', channel=4, note=50, velocity=0, time=80),
    Message('note_on', channel=4, note=38, velocity=100, time=0),
    Message('note_on', channel=4, note=38, velocity=0, time=30),
    Message('note_on', channel=4, note=40, velocity=100, time=0),
    Message('note_on', channel=4, note=40, velocity=0, time=30),
    Message('note_on', channel=4, note=28, velocity=100, time=0),
    Message('note_on', channel=4, note=28, velocity=0, time=30),
    Message('note_on', channel=4, note=28, velocity=100, time=0),
    Message('note_on', channel=4, note=28, velocity=0, time=30),
    Message('note_on', channel=4, note=28, velocity=100, time=0),
    Message('note_on', channel=4, note=28, velocity=0, time=30),
    Message('note_on', channel=4, note=28, velocity=100, time=0),
    Message('note_on', channel=4, note=28, velocity=0, time=30),
    Message('note_on', channel=4, note=43, velocity=100, time=0),
    Message('note_on', channel=4, note=43, velocity=0, time=30),
    Message('note_on', channel=4, note=40, velocity=100, time=0),
    Message('note_on', channel=4, note=40, velocity=0, time=30),
    Message('note_on', channel=4, note=28, velocity=100, time=0),
    Message('note_on', channel=4, note=28, velocity=0, time=30),
    Message('note_on', channel=4, note=28, velocity=100, time=0),
    Message('note_on', channel=4, note=28, velocity=0, time=30),
    Message('note_on', channel=4, note=28, velocity=100, time=0),
    Message('note_on', channel=4, note=28, velocity=0, time=30),
    Message('note_on', channel=4, note=28, velocity=100, time=0),
    Message('note_on', channel=4, note=28, velocity=0, time=30),
    Message('note_on', channel=4, note=28, velocity=100, time=0),
    Message('note_on', channel=4, note=28, velocity=0, time=30),
    Message('note_on', channel=4, note=28, velocity=100, time=0),
    Message('note_on', channel=4, note=28, velocity=0, time=30),
    Message('note_on', channel=4, note=28, velocity=100, time=0),
    Message('note_on', channel=4, note=28, velocity=0, time=30),
    Message('note_on', channel=4, note=28, velocity=100, time=0),
    Message('note_on', channel=4, note=28, velocity=0, time=30),
    Message('note_on', channel=4, note=38, velocity=100, time=0),
    Message('note_on', channel=4, note=38, velocity=0, time=30),
    Message('note_on', channel=4, note=40, velocity=100, time=0),
    Message('note_on', channel=4, note=40, velocity=0, time=30),
    Message('note_on', channel=4, note=28, velocity=100, time=0),
    Message('note_on', channel=4, note=28, velocity=0, time=30),
    Message('note_on', channel=4, note=28, velocity=100, time=0),
    Message('note_on', channel=4, note=28, velocity=0, time=30),
    Message('note_on', channel=4, note=28, velocity=100, time=0),
    Message('note_on', channel=4, note=28, velocity=0, time=30),
    Message('note_on', channel=4, note=28, velocity=100, time=0),
    Message('note_on', channel=4, note=28, velocity=0, time=30),
    Message('note_on', channel=4, note=38, velocity=100, time=0),
    Message('note_on', channel=4, note=38, velocity=0, time=30),
    Message('note_on', channel=4, note=40, velocity=100, time=0),
    Message('note_on', channel=4, note=40, velocity=0, time=30),
    Message('note_on', channel=4, note=28, velocity=100, time=0),
    Message('note_on', channel=4, note=28, velocity=0, time=30),
    Message('note_on', channel=4, note=28, velocity=100, time=0),
    Message('note_on', channel=4, note=28, velocity=0, time=30),
    Message('note_on', channel=4, note=28, velocity=100, time=0),
    Message('note_on', channel=4, note=28, velocity=0, time=30),
    Message('note_on', channel=4, note=28, velocity=100, time=0),
    Message('note_on', channel=4, note=28, velocity=0, time=30),
    Message('note_on', channel=4, note=35, velocity=100, time=0),
    Message('note_on', channel=4, note=35, velocity=0, time=120),
    Message('note_on', channel=4, note=38, velocity=100, time=0),
    Message('note_on', channel=4, note=38, velocity=0, time=30),
    Message('note_on', channel=4, note=40, velocity=100, time=0),
    Message('note_on', channel=4, note=40, velocity=0, time=30),
    Message('note_on', channel=4, note=28, velocity=100, time=0),
    Message('note_on', channel=4, note=28, velocity=0, time=30),
    Message('note_on', channel=4, note=28, velocity=100, time=0),
    Message('note_on', channel=4, note=28, velocity=0, time=30),
    Message('note_on', channel=4, note=28, velocity=100, time=0),
    Message('note_on', channel=4, note=28, velocity=0, time=30),
    Message('note_on', channel=4, note=28, velocity=100, time=0),
    Message('note_on', channel=4, note=28, velocity=0, time=30),
    Message('note_on', channel=4, note=43, velocity=100, time=0),
    Message('note_on', channel=4, note=43, velocity=0, time=30),
    Message('note_on', channel=4, note=40, velocity=100, time=0),
    Message('note_on', channel=4, note=40, velocity=0, time=30),
    Message('note_on', channel=4, note=28, velocity=100, time=0),
    Message('note_on', channel=4, note=28, velocity=0, time=30),
    Message('note_on', channel=4, note=28, velocity=100, time=0),
    Message('note_on', channel=4, note=28, velocity=0, time=30),
    Message('note_on', channel=4, note=28, velocity=100, time=0),
    Message('note_on', channel=4, note=28, velocity=0, time=30),
    Message('note_on', channel=4, note=28, velocity=100, time=0),
    Message('note_on', channel=4, note=28, velocity=0, time=30),
    Message('note_on', channel=4, note=28, velocity=100, time=0),
    Message('note_on', channel=4, note=28, velocity=0, time=30),
    Message('note_on', channel=4, note=28, velocity=100, time=0),
    Message('note_on', channel=4, note=28, velocity=0, time=30),
    Message('note_on', channel=4, note=28, velocity=100, time=0),
    Message('note_on', channel=4, note=28, velocity=0, time=30),
    Message('note_on', channel=4, note=28, velocity=100, time=0),
    Message('note_on', channel=4, note=28, velocity=0, time=30),
    Message('note_on', channel=4, note=38, velocity=100, time=0),
    Message('note_on', channel=4, note=38, velocity=0, time=30),
    Message('note_on', channel=4, note=40, velocity=100, time=0),
    Message('note_on', channel=4, note=40, velocity=0, time=30),
    Message('note_on', channel=4, note=28, velocity=100, time=0),
    Message('note_on', channel=4, note=28, velocity=0, time=30),
    Message('note_on', channel=4, note=28, velocity=100, time=0),
    Message('note_on', channel=4, note=28, velocity=0, time=30),
    Message('note_on', channel=4, note=28, velocity=100, time=0),
    Message('note_on', channel=4, note=28, velocity=0, time=30),
    Message('note_on', channel=4, note=28, velocity=100, time=0),
    Message('note_on', channel=4, note=28, velocity=0, time=30),
    Message('note_on', channel=4, note=38, velocity=100, time=0),
    Message('note_on', channel=4, note=38, velocity=0, time=30),
    Message('note_on', channel=4, note=40, velocity=100, time=0),
    Message('note_on', channel=4, note=40, velocity=0, time=30),
    Message('note_on', channel=4, note=28, velocity=100, time=0),
    Message('note_on', channel=4, note=28, velocity=0, time=30),
    Message('note_on', channel=4, note=28, velocity=100, time=0),
    Message('note_on', channel=4, note=28, velocity=0, time=30),
    Message('note_on', channel=4, note=28, velocity=100, time=0),
    Message('note_on', channel=4, note=28, velocity=0, time=30),
    Message('note_on', channel=4, note=28, velocity=100, time=0),
    Message('note_on', channel=4, note=28, velocity=0, time=30),
    Message('note_on', channel=4, note=35, velocity=100, time=0),
    Message('note_on', channel=4, note=35, velocity=0, time=120),
    Message('note_on', channel=4, note=38, velocity=100, time=0),
    Message('note_on', channel=4, note=38, velocity=0, time=30),
    Message('note_on', channel=4, note=40, velocity=100, time=0),
    Message('note_on', channel=4, note=40, velocity=0, time=30),
    Message('note_on', channel=4, note=28, velocity=100, time=0),
    Message('note_on', channel=4, note=28, velocity=0, time=30),
    Message('note_on', channel=4, note=28, velocity=100, time=0),
    Message('note_on', channel=4, note=28, velocity=0, time=30),
    Message('note_on', channel=4, note=28, velocity=100, time=0),
    Message('note_on', channel=4, note=28, velocity=0, time=30),
    Message('note_on', channel=4, note=28, velocity=100, time=0),
    Message('note_on', channel=4, note=28, velocity=0, time=30),
    Message('note_on', channel=4, note=43, velocity=100, time=0),
    Message('note_on', channel=4, note=43, velocity=0, time=30),
    Message('note_on', channel=4, note=40, velocity=100, time=0),
    Message('note_on', channel=4, note=40, velocity=0, time=30),
    Message('note_on', channel=4, note=28, velocity=100, time=0),
    Message('note_on', channel=4, note=28, velocity=0, time=30),
    Message('note_on', channel=4, note=28, velocity=100, time=0),
    Message('note_on', channel=4, note=28, velocity=0, time=30),
    Message('note_on', channel=4, note=28, velocity=100, time=0),
    Message('note_on', channel=4, note=28, velocity=0, time=30),
    Message('note_on', channel=4, note=28, velocity=100, time=0),
    Message('note_on', channel=4, note=28, velocity=0, time=30),
    Message('note_on', channel=4, note=28, velocity=100, time=0),
    Message('note_on', channel=4, note=28, velocity=0, time=30),
    Message('note_on', channel=4, note=28, velocity=100, time=0),
    Message('note_on', channel=4, note=28, velocity=0, time=30),
    Message('note_on', channel=4, note=28, velocity=100, time=0),
    Message('note_on', channel=4, note=28, velocity=0, time=30),
    Message('note_on', channel=4, note=28, velocity=100, time=0),
    Message('note_on', channel=4, note=28, velocity=0, time=30),
    Message('note_on', channel=4, note=38, velocity=100, time=0),
    Message('note_on', channel=4, note=38, velocity=0, time=30),
    Message('note_on', channel=4, note=40, velocity=100, time=0),
    Message('note_on', channel=4, note=40, velocity=0, time=30),
    Message('note_on', channel=4, note=28, velocity=100, time=0),
    Message('note_on', channel=4, note=28, velocity=0, time=30),
    Message('note_on', channel=4, note=28, velocity=100, time=0),
    Message('note_on', channel=4, note=28, velocity=0, time=30),
    Message('note_on', channel=4, note=28, velocity=100, time=0),
    Message('note_on', channel=4, note=28, velocity=0, time=30),
    Message('note_on', channel=4, note=28, velocity=100, time=0),
    Message('note_on', channel=4, note=28, velocity=0, time=30),
    Message('note_on', channel=4, note=43, velocity=100, time=0),
    Message('note_on', channel=4, note=43, velocity=0, time=30),
    Message('note_on', channel=4, note=40, velocity=100, time=0),
    Message('note_on', channel=4, note=40, velocity=0, time=30),
    Message('note_on', channel=4, note=28, velocity=100, time=0),
    Message('note_on', channel=4, note=28, velocity=0, time=30),
    Message('note_on', channel=4, note=28, velocity=100, time=0),
    Message('note_on', channel=4, note=28, velocity=0, time=30),
    Message('note_on', channel=4, note=28, velocity=100, time=0),
    Message('note_on', channel=4, note=28, velocity=0, time=30),
    Message('note_on', channel=4, note=28, velocity=100, time=0),
    Message('note_on', channel=4, note=28, velocity=0, time=30),
    Message('note_on', channel=4, note=28, velocity=100, time=0),
    Message('note_on', channel=4, note=28, velocity=0, time=30),
    Message('note_on', channel=4, note=28, velocity=100, time=0),
    Message('note_on', channel=4, note=28, velocity=0, time=30),
    Message('note_on', channel=4, note=28, velocity=100, time=0),
    Message('note_on', channel=4, note=28, velocity=0, time=30),
    Message('note_on', channel=4, note=28, velocity=100, time=0),
    Message('note_on', channel=4, note=28, velocity=0, time=30),
    Message('note_on', channel=4, note=38, velocity=100, time=0),
    Message('note_on', channel=4, note=38, velocity=0, time=30),
    Message('note_on', channel=4, note=40, velocity=100, time=0),
    Message('note_on', channel=4, note=40, velocity=0, time=30),
    Message('note_on', channel=4, note=28, velocity=100, time=0),
    Message('note_on', channel=4, note=28, velocity=0, time=30),
    Message('note_on', channel=4, note=28, velocity=100, time=0),
    Message('note_on', channel=4, note=28, velocity=0, time=30),
    Message('note_on', channel=4, note=28, velocity=100, time=0),
    Message('note_on', channel=4, note=28, velocity=0, time=30),
    Message('note_on', channel=4, note=28, velocity=100, time=0),
    Message('note_on', channel=4, note=28, velocity=0, time=30),
    Message('note_on', channel=4, note=43, velocity=100, time=0),
    Message('note_on', channel=4, note=43, velocity=0, time=30),
    Message('note_on', channel=4, note=40, velocity=100, time=0),
    Message('note_on', channel=4, note=40, velocity=0, time=30),
    Message('note_on', channel=4, note=28, velocity=100, time=0),
    Message('note_on', channel=4, note=28, velocity=0, time=30),
    Message('note_on', channel=4, note=28, velocity=100, time=0),
    Message('note_on', channel=4, note=28, velocity=0, time=30),
    Message('note_on', channel=4, note=28, velocity=100, time=0),
    Message('note_on', channel=4, note=28, velocity=0, time=30),
    Message('note_on', channel=4, note=28, velocity=100, time=0),
    Message('note_on', channel=4, note=28, velocity=0, time=30),
    Message('note_on', channel=4, note=28, velocity=100, time=0),
    Message('note_on', channel=4, note=28, velocity=0, time=30),
    Message('note_on', channel=4, note=28, velocity=100, time=0),
    Message('note_on', channel=4, note=28, velocity=0, time=30),
    Message('note_on', channel=4, note=28, velocity=100, time=0),
    Message('note_on', channel=4, note=28, velocity=0, time=30),
    Message('note_on', channel=4, note=28, velocity=100, time=0),
    Message('note_on', channel=4, note=28, velocity=0, time=30),
    Message('note_on', channel=4, note=38, velocity=100, time=0),
    Message('note_on', channel=4, note=38, velocity=0, time=30),
    Message('note_on', channel=4, note=40, velocity=100, time=0),
    Message('note_on', channel=4, note=40, velocity=0, time=30),
    Message('note_on', channel=4, note=28, velocity=100, time=0),
    Message('note_on', channel=4, note=28, velocity=0, time=30),
    Message('note_on', channel=4, note=28, velocity=100, time=0),
    Message('note_on', channel=4, note=28, velocity=0, time=30),
    Message('note_on', channel=4, note=28, velocity=100, time=0),
    Message('note_on', channel=4, note=28, velocity=0, time=30),
    Message('note_on', channel=4, note=28, velocity=100, time=0),
    Message('note_on', channel=4, note=28, velocity=0, time=30),
    Message('note_on', channel=4, note=43, velocity=100, time=0),
    Message('note_on', channel=4, note=43, velocity=0, time=30),
    Message('note_on', channel=4, note=40, velocity=100, time=0),
    Message('note_on', channel=4, note=40, velocity=0, time=30),
    Message('note_on', channel=4, note=28, velocity=100, time=0),
    Message('note_on', channel=4, note=28, velocity=0, time=30),
    Message('note_on', channel=4, note=28, velocity=100, time=0),
    Message('note_on', channel=4, note=28, velocity=0, time=30),
    Message('note_on', channel=4, note=28, velocity=100, time=0),
    Message('note_on', channel=4, note=28, velocity=0, time=30),
    Message('note_on', channel=4, note=28, velocity=100, time=0),
    Message('note_on', channel=4, note=28, velocity=0, time=30),
    Message('note_on', channel=4, note=31, velocity=100, time=0),
    Message('note_on', channel=4, note=31, velocity=0, time=60),
    Message('note_on', channel=4, note=28, velocity=100, time=0),
    Message('note_on', channel=4, note=28, velocity=0, time=60),
    Message('note_on', channel=4, note=30, velocity=100, time=0),
    Message('note_on', channel=4, note=30, velocity=0, time=60),
    Message('note_on', channel=4, note=31, velocity=100, time=0),
    Message('note_on', channel=4, note=31, velocity=0, time=60),
    Message('note_on', channel=4, note=28, velocity=100, time=0),
    Message('note_on', channel=4, note=28, velocity=0, time=60),
    Message('note_on', channel=4, note=30, velocity=100, time=0),
    Message('note_on', channel=4, note=30, velocity=0, time=60),
    Message('note_on', channel=4, note=28, velocity=100, time=0),
    Message('note_on', channel=4, note=28, velocity=0, time=60),
    Message('note_on', channel=4, note=28, velocity=100, time=0),
    Message('note_on', channel=4, note=28, velocity=0, time=60),
    Message('note_on', channel=4, note=30, velocity=100, time=0),
    Message('note_on', channel=4, note=30, velocity=0, time=60),
    Message('note_on', channel=4, note=31, velocity=100, time=0),
    Message('note_on', channel=4, note=31, velocity=0, time=60),
    Message('note_on', channel=4, note=28, velocity=100, time=0),
    Message('note_on', channel=4, note=28, velocity=0, time=60),
    Message('note_on', channel=4, note=28, velocity=100, time=0),
    Message('note_on', channel=4, note=28, velocity=0, time=60),
    Message('note_on', channel=4, note=31, velocity=100, time=0),
    Message('note_on', channel=4, note=31, velocity=0, time=60),
    Message('note_on', channel=4, note=30, velocity=100, time=0),
    Message('note_on', channel=4, note=30, velocity=0, time=60),
    Message('note_on', channel=4, note=28, velocity=100, time=0),
    Message('note_on', channel=4, note=28, velocity=0, time=60),
    Message('note_on', channel=4, note=28, velocity=100, time=0),
    Message('note_on', channel=4, note=28, velocity=0, time=60),
    Message('note_on', channel=4, note=31, velocity=100, time=0),
    Message('note_on', channel=4, note=31, velocity=0, time=60),
    Message('note_on', channel=4, note=28, velocity=100, time=0),
    Message('note_on', channel=4, note=28, velocity=0, time=60),
    Message('note_on', channel=4, note=30, velocity=100, time=0),
    Message('note_on', channel=4, note=30, velocity=0, time=60),
    Message('note_on', channel=4, note=31, velocity=100, time=0),
    Message('note_on', channel=4, note=31, velocity=0, time=60),
    Message('note_on', channel=4, note=28, velocity=100, time=0),
    Message('note_on', channel=4, note=28, velocity=0, time=60),
    Message('note_on', channel=4, note=30, velocity=100, time=0),
    Message('note_on', channel=4, note=30, velocity=0, time=60),
    Message('note_on', channel=4, note=28, velocity=100, time=0),
    Message('note_on', channel=4, note=28, velocity=0, time=60),
    Message('note_on', channel=4, note=28, velocity=100, time=0),
    Message('note_on', channel=4, note=28, velocity=0, time=60),
    Message('note_on', channel=4, note=30, velocity=100, time=0),
    Message('note_on', channel=4, note=30, velocity=0, time=60),
    Message('note_on', channel=4, note=31, velocity=100, time=0),
    Message('note_on', channel=4, note=31, velocity=0, time=60),
    Message('note_on', channel=4, note=28, velocity=100, time=0),
    Message('note_on', channel=4, note=28, velocity=0, time=60),
    Message('note_on', channel=4, note=28, velocity=100, time=0),
    Message('note_on', channel=4, note=28, velocity=0, time=60),
    Message('note_on', channel=4, note=31, velocity=100, time=0),
    Message('note_on', channel=4, note=31, velocity=0, time=60),
    Message('note_on', channel=4, note=30, velocity=100, time=0),
    Message('note_on', channel=4, note=30, velocity=0, time=60),
    Message('note_on', channel=4, note=28, velocity=100, time=0),
    Message('note_on', channel=4, note=28, velocity=0, time=60),
    Message('note_on', channel=4, note=28, velocity=100, time=0),
    Message('note_on', channel=4, note=28, velocity=0, time=60),
    Message('note_on', channel=4, note=31, velocity=100, time=0),
    Message('note_on', channel=4, note=31, velocity=0, time=60),
    Message('note_on', channel=4, note=28, velocity=100, time=0),
    Message('note_on', channel=4, note=28, velocity=0, time=60),
    Message('note_on', channel=4, note=30, velocity=100, time=0),
    Message('note_on', channel=4, note=30, velocity=0, time=60),
    Message('note_on', channel=4, note=31, velocity=100, time=0),
    Message('note_on', channel=4, note=31, velocity=0, time=60),
    Message('note_on', channel=4, note=28, velocity=100, time=0),
    Message('note_on', channel=4, note=28, velocity=0, time=60),
    Message('note_on', channel=4, note=30, velocity=100, time=0),
    Message('note_on', channel=4, note=30, velocity=0, time=60),
    Message('note_on', channel=4, note=28, velocity=100, time=0),
    Message('note_on', channel=4, note=28, velocity=0, time=60),
    Message('note_on', channel=4, note=28, velocity=100, time=0),
    Message('note_on', channel=4, note=28, velocity=0, time=60),
    Message('note_on', channel=4, note=30, velocity=100, time=0),
    Message('note_on', channel=4, note=30, velocity=0, time=60),
    Message('note_on', channel=4, note=31, velocity=100, time=0),
    Message('note_on', channel=4, note=31, velocity=0, time=60),
    Message('note_on', channel=4, note=28, velocity=100, time=0),
    Message('note_on', channel=4, note=28, velocity=0, time=60),
    Message('note_on', channel=4, note=28, velocity=100, time=0),
    Message('note_on', channel=4, note=28, velocity=0, time=60),
    Message('note_on', channel=4, note=31, velocity=100, time=0),
    Message('note_on', channel=4, note=31, velocity=0, time=60),
    Message('note_on', channel=4, note=30, velocity=100, time=0),
    Message('note_on', channel=4, note=30, velocity=0, time=60),
    Message('note_on', channel=4, note=28, velocity=100, time=0),
    Message('note_on', channel=4, note=28, velocity=0, time=60),
    Message('note_on', channel=4, note=28, velocity=100, time=0),
    Message('note_on', channel=4, note=28, velocity=0, time=60),
    Message('note_on', channel=4, note=31, velocity=100, time=0),
    Message('note_on', channel=4, note=31, velocity=0, time=60),
    Message('note_on', channel=4, note=38, velocity=100, time=0),
    Message('note_on', channel=4, note=38, velocity=0, time=30),
    Message('note_on', channel=4, note=39, velocity=100, time=0),
    Message('note_on', channel=4, note=39, velocity=0, time=30),
    Message('note_on', channel=4, note=40, velocity=100, time=0),
    Message('note_on', channel=4, note=40, velocity=0, time=60),
    Message('note_on', channel=4, note=35, velocity=100, time=0),
    Message('note_on', channel=4, note=35, velocity=0, time=30),
    Message('note_on', channel=4, note=35, velocity=100, time=0),
    Message('note_on', channel=4, note=35, velocity=0, time=30),
    Message('note_on', channel=4, note=28, velocity=100, time=0),
    Message('note_on', channel=4, note=28, velocity=0, time=120),
    MetaMessage('end_of_track', time=0)]),
  MidiTrack([
    MetaMessage('midi_port', port=0, time=0),
    MetaMessage('track_name', name='Drums', time=0),
    Message('program_change', channel=9, program=0, time=0),
    Message('control_change', channel=9, control=7, value=127, time=0),
    Message('note_on', channel=9, note=40, velocity=127, time=1920),
    Message('note_on', channel=9, note=40, velocity=0, time=30),
    Message('note_on', channel=9, note=40, velocity=127, time=0),
    Message('note_on', channel=9, note=40, velocity=0, time=30),
    Message('note_on', channel=9, note=40, velocity=127, time=0),
    Message('note_on', channel=9, note=40, velocity=0, time=60),
    Message('note_on', channel=9, note=50, velocity=127, time=0),
    Message('note_on', channel=9, note=50, velocity=0, time=30),
    Message('note_on', channel=9, note=50, velocity=127, time=0),
    Message('note_on', channel=9, note=50, velocity=0, time=30),
    Message('note_on', channel=9, note=50, velocity=127, time=0),
    Message('note_on', channel=9, note=50, velocity=0, time=60),
    Message('note_on', channel=9, note=48, velocity=127, time=0),
    Message('note_on', channel=9, note=48, velocity=0, time=30),
    Message('note_on', channel=9, note=48, velocity=127, time=0),
    Message('note_on', channel=9, note=48, velocity=0, time=30),
    Message('note_on', channel=9, note=48, velocity=127, time=0),
    Message('note_on', channel=9, note=48, velocity=0, time=60),
    Message('note_on', channel=9, note=47, velocity=127, time=0),
    Message('note_on', channel=9, note=47, velocity=0, time=30),
    Message('note_on', channel=9, note=47, velocity=127, time=0),
    Message('note_on', channel=9, note=47, velocity=0, time=30),
    Message('note_on', channel=9, note=47, velocity=127, time=0),
    Message('note_on', channel=9, note=47, velocity=0, time=60),
    Message('note_on', channel=9, note=40, velocity=127, time=0),
    Message('note_on', channel=9, note=40, velocity=0, time=30),
    Message('note_on', channel=9, note=40, velocity=127, time=0),
    Message('note_on', channel=9, note=40, velocity=0, time=30),
    Message('note_on', channel=9, note=40, velocity=127, time=0),
    Message('note_on', channel=9, note=40, velocity=0, time=60),
    Message('note_on', channel=9, note=50, velocity=127, time=0),
    Message('note_on', channel=9, note=50, velocity=0, time=30),
    Message('note_on', channel=9, note=50, velocity=127, time=0),
    Message('note_on', channel=9, note=50, velocity=0, time=30),
    Message('note_on', channel=9, note=50, velocity=127, time=0),
    Message('note_on', channel=9, note=50, velocity=0, time=60),
    Message('note_on', channel=9, note=48, velocity=127, time=0),
    Message('note_on', channel=9, note=48, velocity=0, time=30),
    Message('note_on', channel=9, note=48, velocity=127, time=0),
    Message('note_on', channel=9, note=48, velocity=0, time=30),
    Message('note_on', channel=9, note=48, velocity=127, time=0),
    Message('note_on', channel=9, note=48, velocity=0, time=60),
    Message('note_on', channel=9, note=47, velocity=127, time=0),
    Message('note_on', channel=9, note=47, velocity=0, time=30),
    Message('note_on', channel=9, note=47, velocity=127, time=0),
    Message('note_on', channel=9, note=47, velocity=0, time=30),
    Message('note_on', channel=9, note=47, velocity=127, time=0),
    Message('note_on', channel=9, note=47, velocity=0, time=60),
    Message('note_on', channel=9, note=40, velocity=127, time=0),
    Message('note_on', channel=9, note=40, velocity=0, time=30),
    Message('note_on', channel=9, note=40, velocity=127, time=0),
    Message('note_on', channel=9, note=40, velocity=0, time=30),
    Message('note_on', channel=9, note=40, velocity=127, time=0),
    Message('note_on', channel=9, note=40, velocity=0, time=60),
    Message('note_on', channel=9, note=50, velocity=127, time=0),
    Message('note_on', channel=9, note=50, velocity=0, time=30),
    Message('note_on', channel=9, note=50, velocity=127, time=0),
    Message('note_on', channel=9, note=50, velocity=0, time=30),
    Message('note_on', channel=9, note=50, velocity=127, time=0),
    Message('note_on', channel=9, note=50, velocity=0, time=60),
    Message('note_on', channel=9, note=48, velocity=127, time=0),
    Message('note_on', channel=9, note=48, velocity=0, time=30),
    Message('note_on', channel=9, note=48, velocity=127, time=0),
    Message('note_on', channel=9, note=48, velocity=0, time=30),
    Message('note_on', channel=9, note=48, velocity=127, time=0),
    Message('note_on', channel=9, note=48, velocity=0, time=60),
    Message('note_on', channel=9, note=40, velocity=127, time=0),
    Message('note_on', channel=9, note=40, velocity=0, time=30),
    Message('note_on', channel=9, note=40, velocity=127, time=0),
    Message('note_on', channel=9, note=40, velocity=0, time=30),
    Message('note_on', channel=9, note=40, velocity=127, time=0),
    Message('note_on', channel=9, note=40, velocity=0, time=30),
    Message('note_on', channel=9, note=40, velocity=127, time=0),
    Message('note_on', channel=9, note=40, velocity=0, time=30),
    Message('note_on', channel=9, note=40, velocity=127, time=0),
    Message('note_on', channel=9, note=40, velocity=0, time=30),
    Message('note_on', channel=9, note=40, velocity=127, time=0),
    Message('note_on', channel=9, note=40, velocity=0, time=30),
    Message('note_on', channel=9, note=57, velocity=127, time=0),
    Message('note_on', channel=9, note=36, velocity=127, time=0),
    Message('note_on', channel=9, note=57, velocity=0, time=60),
    Message('note_on', channel=9, note=42, velocity=127, time=0),
    Message('note_on', channel=9, note=36, velocity=0, time=30),
    Message('note_on', channel=9, note=36, velocity=127, time=0),
    Message('note_on', channel=9, note=36, velocity=0, time=30),
    Message('note_on', channel=9, note=42, velocity=0, time=0),
    Message('note_on', channel=9, note=38, velocity=127, time=0),
    Message('note_on', channel=9, note=42, velocity=127, time=0),
    Message('note_on', channel=9, note=42, velocity=0, time=60),
    Message('note_on', channel=9, note=38, velocity=0, time=0),
    Message('note_on', channel=9, note=36, velocity=127, time=0),
    Message('note_on', channel=9, note=42, velocity=127, time=0),
    Message('note_on', channel=9, note=42, velocity=0, time=60),
    Message('note_on', channel=9, note=36, velocity=0, time=0),
    Message('note_on', channel=9, note=42, velocity=127, time=0),
    Message('note_on', channel=9, note=42, velocity=0, time=60),
    Message('note_on', channel=9, note=36, velocity=127, time=0),
    Message('note_on', channel=9, note=42, velocity=127, time=0),
    Message('note_on', channel=9, note=36, velocity=0, time=30),
    Message('note_on', channel=9, note=36, velocity=127, time=0),
    Message('note_on', channel=9, note=36, velocity=0, time=30),
    Message('note_on', channel=9, note=42, velocity=0, time=0),
    Message('note_on', channel=9, note=38, velocity=127, time=0),
    Message('note_on', channel=9, note=42, velocity=127, time=0),
    Message('note_on', channel=9, note=42, velocity=0, time=60),
    Message('note_on', channel=9, note=38, velocity=0, time=0),
    Message('note_on', channel=9, note=42, velocity=127, time=0),
    Message('note_on', channel=9, note=42, velocity=0, time=60),
    Message('note_on', channel=9, note=42, velocity=127, time=0),
    Message('note_on', channel=9, note=36, velocity=127, time=0),
    Message('note_on', channel=9, note=42, velocity=0, time=60),
    Message('note_on', channel=9, note=42, velocity=127, time=0),
    Message('note_on', channel=9, note=36, velocity=0, time=30),
    Message('note_on', channel=9, note=36, velocity=127, time=0),
    Message('note_on', channel=9, note=36, velocity=0, time=30),
    Message('note_on', channel=9, note=42, velocity=0, time=0),
    Message('note_on', channel=9, note=38, velocity=127, time=0),
    Message('note_on', channel=9, note=42, velocity=127, time=0),
    Message('note_on', channel=9, note=42, velocity=0, time=60),
    Message('note_on', channel=9, note=38, velocity=0, time=0),
    Message('note_on', channel=9, note=36, velocity=127, time=0),
    Message('note_on', channel=9, note=42, velocity=127, time=0),
    Message('note_on', channel=9, note=42, velocity=0, time=60),
    Message('note_on', channel=9, note=36, velocity=0, time=0),
    Message('note_on', channel=9, note=42, velocity=127, time=0),
    Message('note_on', channel=9, note=42, velocity=0, time=60),
    Message('note_on', channel=9, note=36, velocity=127, time=0),
    Message('note_on', channel=9, note=42, velocity=127, time=0),
    Message('note_on', channel=9, note=36, velocity=0, time=30),
    Message('note_on', channel=9, note=36, velocity=127, time=0),
    Message('note_on', channel=9, note=36, velocity=0, time=30),
    Message('note_on', channel=9, note=42, velocity=0, time=0),
    Message('note_on', channel=9, note=40, velocity=127, time=0),
    Message('note_on', channel=9, note=57, velocity=127, time=0),
    Message('note_on', channel=9, note=57, velocity=0, time=60),
    Message('note_on', channel=9, note=40, velocity=0, time=0),
    Message('note_on', channel=9, note=36, velocity=127, time=0),
    Message('note_on', channel=9, note=57, velocity=127, time=0),
    Message('note_on', channel=9, note=57, velocity=0, time=60),
    Message('note_on', channel=9, note=36, velocity=0, time=0),
    Message('note_on', channel=9, note=57, velocity=127, time=0),
    Message('note_on', channel=9, note=36, velocity=127, time=0),
    Message('note_on', channel=9, note=57, velocity=0, time=60),
    Message('note_on', channel=9, note=42, velocity=127, time=0),
    Message('note_on', channel=9, note=36, velocity=0, time=30),
    Message('note_on', channel=9, note=36, velocity=127, time=0),
    Message('note_on', channel=9, note=36, velocity=0, time=30),
    Message('note_on', channel=9, note=42, velocity=0, time=0),
    Message('note_on', channel=9, note=38, velocity=127, time=0),
    Message('note_on', channel=9, note=42, velocity=127, time=0),
    Message('note_on', channel=9, note=42, velocity=0, time=60),
    Message('note_on', channel=9, note=38, velocity=0, time=0),
    Message('note_on', channel=9, note=36, velocity=127, time=0),
    Message('note_on', channel=9, note=42, velocity=127, time=0),
    Message('note_on', channel=9, note=42, velocity=0, time=60),
    Message('note_on', channel=9, note=36, velocity=0, time=0),
    Message('note_on', channel=9, note=42, velocity=127, time=0),
    Message('note_on', channel=9, note=42, velocity=0, time=60),
    Message('note_on', channel=9, note=36, velocity=127, time=0),
    Message('note_on', channel=9, note=42, velocity=127, time=0),
    Message('note_on', channel=9, note=36, velocity=0, time=30),
    Message('note_on', channel=9, note=36, velocity=127, time=0),
    Message('note_on', channel=9, note=36, velocity=0, time=30),
    Message('note_on', channel=9, note=42, velocity=0, time=0),
    Message('note_on', channel=9, note=38, velocity=127, time=0),
    Message('note_on', channel=9, note=42, velocity=127, time=0),
    Message('note_on', channel=9, note=42, velocity=0, time=60),
    Message('note_on', channel=9, note=38, velocity=0, time=0),
    Message('note_on', channel=9, note=42, velocity=127, time=0),
    Message('note_on', channel=9, note=42, velocity=0, time=60),
    Message('note_on', channel=9, note=42, velocity=127, time=0),
    Message('note_on', channel=9, note=36, velocity=127, time=0),
    Message('note_on', channel=9, note=42, velocity=0, time=60),
    Message('note_on', channel=9, note=42, velocity=127, time=0),
    Message('note_on', channel=9, note=36, velocity=0, time=30),
    Message('note_on', channel=9, note=36, velocity=127, time=0),
    Message('note_on', channel=9, note=36, velocity=0, time=30),
    Message('note_on', channel=9, note=42, velocity=0, time=0),
    Message('note_on', channel=9, note=38, velocity=127, time=0),
    Message('note_on', channel=9, note=42, velocity=127, time=0),
    Message('note_on', channel=9, note=42, velocity=0, time=60),
    Message('note_on', channel=9, note=38, velocity=0, time=0),
    Message('note_on', channel=9, note=36, velocity=127, time=0),
    Message('note_on', channel=9, note=42, velocity=127, time=0),
    Message('note_on', channel=9, note=42, velocity=0, time=60),
    Message('note_on', channel=9, note=36, velocity=0, time=0),
    Message('note_on', channel=9, note=42, velocity=127, time=0),
    Message('note_on', channel=9, note=42, velocity=0, time=60),
    Message('note_on', channel=9, note=36, velocity=127, time=0),
    Message('note_on', channel=9, note=42, velocity=127, time=0),
    Message('note_on', channel=9, note=36, velocity=0, time=30),
    Message('note_on', channel=9, note=36, velocity=127, time=0),
    Message('note_on', channel=9, note=36, velocity=0, time=30),
    Message('note_on', channel=9, note=42, velocity=0, time=0),
    Message('note_on', channel=9, note=40, velocity=127, time=0),
    Message('note_on', channel=9, note=57, velocity=127, time=0),
    Message('note_on', channel=9, note=57, velocity=0, time=60),
    Message('note_on', channel=9, note=40, velocity=0, time=0),
    Message('note_on', channel=9, note=36, velocity=127, time=0),
    Message('note_on', channel=9, note=57, velocity=127, time=0),
    Message('note_on', channel=9, note=57, velocity=0, time=60),
    Message('note_on', channel=9, note=36, velocity=0, time=0),
    Message('note_on', channel=9, note=57, velocity=127, time=0),
    Message('note_on', channel=9, note=36, velocity=127, time=0),
    Message('note_on', channel=9, note=57, velocity=0, time=60),
    Message('note_on', channel=9, note=42, velocity=127, time=0),
    Message('note_on', channel=9, note=36, velocity=0, time=30),
    Message('note_on', channel=9, note=36, velocity=127, time=0),
    Message('note_on', channel=9, note=36, velocity=0, time=30),
    Message('note_on', channel=9, note=42, velocity=0, time=0),
    Message('note_on', channel=9, note=38, velocity=127, time=0),
    Message('note_on', channel=9, note=42, velocity=127, time=0),
    Message('note_on', channel=9, note=42, velocity=0, time=60),
    Message('note_on', channel=9, note=38, velocity=0, time=0),
    Message('note_on', channel=9, note=36, velocity=127, time=0),
    Message('note_on', channel=9, note=42, velocity=127, time=0),
    Message('note_on', channel=9, note=42, velocity=0, time=60),
    Message('note_on', channel=9, note=36, velocity=0, time=0),
    Message('note_on', channel=9, note=42, velocity=127, time=0),
    Message('note_on', channel=9, note=42, velocity=0, time=60),
    Message('note_on', channel=9, note=36, velocity=127, time=0),
    Message('note_on', channel=9, note=42, velocity=127, time=0),
    Message('note_on', channel=9, note=36, velocity=0, time=30),
    Message('note_on', channel=9, note=36, velocity=127, time=0),
    Message('note_on', channel=9, note=36, velocity=0, time=30),
    Message('note_on', channel=9, note=42, velocity=0, time=0),
    Message('note_on', channel=9, note=38, velocity=127, time=0),
    Message('note_on', channel=9, note=42, velocity=127, time=0),
    Message('note_on', channel=9, note=42, velocity=0, time=60),
    Message('note_on', channel=9, note=38, velocity=0, time=0),
    Message('note_on', channel=9, note=42, velocity=127, time=0),
    Message('note_on', channel=9, note=42, velocity=0, time=60),
    Message('note_on', channel=9, note=42, velocity=127, time=0),
    Message('note_on', channel=9, note=36, velocity=127, time=0),
    Message('note_on', channel=9, note=42, velocity=0, time=60),
    Message('note_on', channel=9, note=42, velocity=127, time=0),
    Message('note_on', channel=9, note=36, velocity=0, time=30),
    Message('note_on', channel=9, note=36, velocity=127, time=0),
    Message('note_on', channel=9, note=36, velocity=0, time=30),
    Message('note_on', channel=9, note=42, velocity=0, time=0),
    Message('note_on', channel=9, note=38, velocity=127, time=0),
    Message('note_on', channel=9, note=42, velocity=127, time=0),
    Message('note_on', channel=9, note=42, velocity=0, time=60),
    Message('note_on', channel=9, note=38, velocity=0, time=0),
    Message('note_on', channel=9, note=36, velocity=127, time=0),
    Message('note_on', channel=9, note=42, velocity=127, time=0),
    Message('note_on', channel=9, note=42, velocity=0, time=60),
    Message('note_on', channel=9, note=36, velocity=0, time=0),
    Message('note_on', channel=9, note=42, velocity=127, time=0),
    Message('note_on', channel=9, note=42, velocity=0, time=60),
    Message('note_on', channel=9, note=36, velocity=127, time=0),
    Message('note_on', channel=9, note=42, velocity=127, time=0),
    Message('note_on', channel=9, note=36, velocity=0, time=30),
    Message('note_on', channel=9, note=36, velocity=127, time=0),
    Message('note_on', channel=9, note=36, velocity=0, time=30),
    Message('note_on', channel=9, note=42, velocity=0, time=0),
    Message('note_on', channel=9, note=40, velocity=127, time=0),
    Message('note_on', channel=9, note=57, velocity=127, time=0),
    Message('note_on', channel=9, note=57, velocity=0, time=60),
    Message('note_on', channel=9, note=40, velocity=0, time=0),
    Message('note_on', channel=9, note=36, velocity=127, time=0),
    Message('note_on', channel=9, note=57, velocity=127, time=0),
    Message('note_on', channel=9, note=57, velocity=0, time=60),
    Message('note_on', channel=9, note=36, velocity=0, time=0),
    Message('note_on', channel=9, note=57, velocity=127, time=0),
    Message('note_on', channel=9, note=36, velocity=127, time=0),
    Message('note_on', channel=9, note=57, velocity=0, time=60),
    Message('note_on', channel=9, note=42, velocity=127, time=0),
    Message('note_on', channel=9, note=36, velocity=0, time=30),
    Message('note_on', channel=9, note=36, velocity=127, time=0),
    Message('note_on', channel=9, note=36, velocity=0, time=30),
    Message('note_on', channel=9, note=42, velocity=0, time=0),
    Message('note_on', channel=9, note=38, velocity=127, time=0),
    Message('note_on', channel=9, note=42, velocity=127, time=0),
    Message('note_on', channel=9, note=42, velocity=0, time=60),
    Message('note_on', channel=9, note=38, velocity=0, time=0),
    Message('note_on', channel=9, note=36, velocity=127, time=0),
    Message('note_on', channel=9, note=42, velocity=127, time=0),
    Message('note_on', channel=9, note=42, velocity=0, time=60),
    Message('note_on', channel=9, note=36, velocity=0, time=0),
    Message('note_on', channel=9, note=57, velocity=127, time=0),
    Message('note_on', channel=9, note=36, velocity=127, time=60),
    Message('note_on', channel=9, note=36, velocity=0, time=30),
    Message('note_on', channel=9, note=36, velocity=127, time=0),
    Message('note_on', channel=9, note=36, velocity=0, time=30),
    Message('note_on', channel=9, note=57, velocity=0, time=0),
    Message('note_on', channel=9, note=36, velocity=127, time=0),
    Message('note_on', channel=9, note=36, velocity=0, time=30),
    Message('note_on', channel=9, note=36, velocity=127, time=0),
    Message('note_on', channel=9, note=36, velocity=0, time=30),
    Message('note_on', channel=9, note=57, velocity=127, time=0),
    Message('note_on', channel=9, note=38, velocity=127, time=0),
    Message('note_on', channel=9, note=38, velocity=0, time=60),
    Message('note_on', channel=9, note=57, velocity=0, time=0),
    Message('note_on', channel=9, note=36, velocity=127, time=60),
    Message('note_on', channel=9, note=36, velocity=0, time=30),
    Message('note_on', channel=9, note=36, velocity=127, time=0),
    Message('note_on', channel=9, note=36, velocity=0, time=30),
    Message('note_on', channel=9, note=36, velocity=127, time=0),
    Message('note_on', channel=9, note=36, velocity=0, time=30),
    Message('note_on', channel=9, note=36, velocity=127, time=0),
    Message('note_on', channel=9, note=36, velocity=0, time=30),
    Message('note_on', channel=9, note=57, velocity=127, time=0),
    Message('note_on', channel=9, note=38, velocity=127, time=0),
    Message('note_on', channel=9, note=38, velocity=0, time=60),
    Message('note_on', channel=9, note=57, velocity=0, time=0),
    Message('note_on', channel=9, note=36, velocity=127, time=60),
    Message('note_on', channel=9, note=36, velocity=0, time=60),
    Message('note_on', channel=9, note=57, velocity=127, time=0),
    Message('note_on', channel=9, note=38, velocity=127, time=0),
    Message('note_on', channel=9, note=36, velocity=127, time=60),
    Message('note_on', channel=9, note=36, velocity=0, time=60),
    Message('note_on', channel=9, note=38, velocity=0, time=0),
    Message('note_on', channel=9, note=57, velocity=0, time=0),
    Message('note_on', channel=9, note=57, velocity=127, time=0),
    Message('note_on', channel=9, note=36, velocity=127, time=0),
    Message('note_on', channel=9, note=36, velocity=0, time=120),
    Message('note_on', channel=9, note=57, velocity=0, time=0),
    Message('note_on', channel=9, note=50, velocity=127, time=0),
    Message('note_on', channel=9, note=50, velocity=0, time=20),
    Message('note_on', channel=9, note=50, velocity=127, time=0),
    Message('note_on', channel=9, note=50, velocity=0, time=20),
    Message('note_on', channel=9, note=50, velocity=127, time=0),
    Message('note_on', channel=9, note=50, velocity=0, time=20),
    Message('note_on', channel=9, note=50, velocity=127, time=0),
    Message('note_on', channel=9, note=50, velocity=0, time=20),
    Message('note_on', channel=9, note=50, velocity=127, time=0),
    Message('note_on', channel=9, note=50, velocity=0, time=20),
    Message('note_on', channel=9, note=50, velocity=127, time=0),
    Message('note_on', channel=9, note=50, velocity=0, time=20),
    Message('note_on', channel=9, note=48, velocity=127, time=0),
    Message('note_on', channel=9, note=48, velocity=0, time=20),
    Message('note_on', channel=9, note=48, velocity=127, time=0),
    Message('note_on', channel=9, note=48, velocity=0, time=20),
    Message('note_on', channel=9, note=48, velocity=127, time=0),
    Message('note_on', channel=9, note=48, velocity=0, time=20),
    Message('note_on', channel=9, note=48, velocity=127, time=0),
    Message('note_on', channel=9, note=48, velocity=0, time=20),
    Message('note_on', channel=9, note=48, velocity=127, time=0),
    Message('note_on', channel=9, note=48, velocity=0, time=20),
    Message('note_on', channel=9, note=48, velocity=127, time=0),
    Message('note_on', channel=9, note=48, velocity=0, time=20),
    Message('note_on', channel=9, note=45, velocity=127, time=0),
    Message('note_on', channel=9, note=45, velocity=0, time=20),
    Message('note_on', channel=9, note=45, velocity=127, time=0),
    Message('note_on', channel=9, note=45, velocity=0, time=20),
    Message('note_on', channel=9, note=45, velocity=127, time=0),
    Message('note_on', channel=9, note=45, velocity=0, time=20),
    Message('note_on', channel=9, note=45, velocity=127, time=0),
    Message('note_on', channel=9, note=45, velocity=0, time=20),
    Message('note_on', channel=9, note=45, velocity=127, time=0),
    Message('note_on', channel=9, note=45, velocity=0, time=20),
    Message('note_on', channel=9, note=45, velocity=127, time=0),
    Message('note_on', channel=9, note=45, velocity=0, time=20),
    Message('note_on', channel=9, note=38, velocity=127, time=0),
    Message('note_on', channel=9, note=38, velocity=127, time=7),
    Message('note_on', channel=9, note=38, velocity=0, time=53),
    Message('note_on', channel=9, note=38, velocity=0, time=67),
    Message('note_on', channel=9, note=57, velocity=127, time=113),
    Message('note_on', channel=9, note=36, velocity=127, time=0),
    Message('note_on', channel=9, note=36, velocity=0, time=80),
    Message('note_on', channel=9, note=57, velocity=0, time=0),
    Message('note_on', channel=9, note=57, velocity=127, time=0),
    Message('note_on', channel=9, note=36, velocity=127, time=0),
    Message('note_on', channel=9, note=36, velocity=0, time=80),
    Message('note_on', channel=9, note=57, velocity=0, time=0),
    Message('note_on', channel=9, note=57, velocity=127, time=0),
    Message('note_on', channel=9, note=36, velocity=127, time=0),
    Message('note_on', channel=9, note=36, velocity=0, time=80),
    Message('note_on', channel=9, note=57, velocity=0, time=0),
    Message('note_on', channel=9, note=57, velocity=127, time=0),
    Message('note_on', channel=9, note=36, velocity=127, time=0),
    Message('note_on', channel=9, note=57, velocity=0, time=60),
    Message('note_on', channel=9, note=42, velocity=127, time=0),
    Message('note_on', channel=9, note=36, velocity=0, time=30),
    Message('note_on', channel=9, note=36, velocity=127, time=0),
    Message('note_on', channel=9, note=36, velocity=0, time=30),
    Message('note_on', channel=9, note=42, velocity=0, time=0),
    Message('note_on', channel=9, note=38, velocity=127, time=0),
    Message('note_on', channel=9, note=42, velocity=127, time=0),
    Message('note_on', channel=9, note=42, velocity=0, time=60),
    Message('note_on', channel=9, note=38, velocity=0, time=0),
    Message('note_on', channel=9, note=36, velocity=127, time=0),
    Message('note_on', channel=9, note=42, velocity=127, time=0),
    Message('note_on', channel=9, note=42, velocity=0, time=60),
    Message('note_on', channel=9, note=36, velocity=0, time=0),
    Message('note_on', channel=9, note=42, velocity=127, time=0),
    Message('note_on', channel=9, note=42, velocity=0, time=60),
    Message('note_on', channel=9, note=36, velocity=127, time=0),
    Message('note_on', channel=9, note=42, velocity=127, time=0),
    Message('note_on', channel=9, note=36, velocity=0, time=30),
    Message('note_on', channel=9, note=36, velocity=127, time=0),
    Message('note_on', channel=9, note=36, velocity=0, time=30),
    Message('note_on', channel=9, note=42, velocity=0, time=0),
    Message('note_on', channel=9, note=38, velocity=127, time=0),
    Message('note_on', channel=9, note=42, velocity=127, time=0),
    Message('note_on', channel=9, note=42, velocity=0, time=60),
    Message('note_on', channel=9, note=38, velocity=0, time=0),
    Message('note_on', channel=9, note=42, velocity=127, time=0),
    Message('note_on', channel=9, note=42, velocity=0, time=60),
    Message('note_on', channel=9, note=42, velocity=127, time=0),
    Message('note_on', channel=9, note=36, velocity=127, time=0),
    Message('note_on', channel=9, note=42, velocity=0, time=60),
    Message('note_on', channel=9, note=42, velocity=127, time=0),
    Message('note_on', channel=9, note=36, velocity=0, time=30),
    Message('note_on', channel=9, note=36, velocity=127, time=0),
    Message('note_on', channel=9, note=36, velocity=0, time=30),
    Message('note_on', channel=9, note=42, velocity=0, time=0),
    Message('note_on', channel=9, note=38, velocity=127, time=0),
    Message('note_on', channel=9, note=42, velocity=127, time=0),
    Message('note_on', channel=9, note=42, velocity=0, time=60),
    Message('note_on', channel=9, note=38, velocity=0, time=0),
    Message('note_on', channel=9, note=36, velocity=127, time=0),
    Message('note_on', channel=9, note=42, velocity=127, time=0),
    Message('note_on', channel=9, note=42, velocity=0, time=60),
    Message('note_on', channel=9, note=36, velocity=0, time=0),
    Message('note_on', channel=9, note=42, velocity=127, time=0),
    Message('note_on', channel=9, note=42, velocity=0, time=60),
    Message('note_on', channel=9, note=36, velocity=127, time=0),
    Message('note_on', channel=9, note=42, velocity=127, time=0),
    Message('note_on', channel=9, note=36, velocity=0, time=30),
    Message('note_on', channel=9, note=36, velocity=127, time=0),
    Message('note_on', channel=9, note=36, velocity=0, time=30),
    Message('note_on', channel=9, note=42, velocity=0, time=0),
    Message('note_on', channel=9, note=40, velocity=127, time=0),
    Message('note_on', channel=9, note=57, velocity=127, time=0),
    Message('note_on', channel=9, note=57, velocity=0, time=60),
    Message('note_on', channel=9, note=40, velocity=0, time=0),
    Message('note_on', channel=9, note=36, velocity=127, time=0),
    Message('note_on', channel=9, note=57, velocity=127, time=0),
    Message('note_on', channel=9, note=57, velocity=0, time=60),
    Message('note_on', channel=9, note=36, velocity=0, time=0),
    Message('note_on', channel=9, note=57, velocity=127, time=0),
    Message('note_on', channel=9, note=36, velocity=127, time=0),
    Message('note_on', channel=9, note=57, velocity=0, time=60),
    Message('note_on', channel=9, note=42, velocity=127, time=0),
    Message('note_on', channel=9, note=36, velocity=0, time=30),
    Message('note_on', channel=9, note=36, velocity=127, time=0),
    Message('note_on', channel=9, note=36, velocity=0, time=30),
    Message('note_on', channel=9, note=42, velocity=0, time=0),
    Message('note_on', channel=9, note=38, velocity=127, time=0),
    Message('note_on', channel=9, note=42, velocity=127, time=0),
    Message('note_on', channel=9, note=42, velocity=0, time=60),
    Message('note_on', channel=9, note=38, velocity=0, time=0),
    Message('note_on', channel=9, note=36, velocity=127, time=0),
    Message('note_on', channel=9, note=42, velocity=127, time=0),
    Message('note_on', channel=9, note=42, velocity=0, time=60),
    Message('note_on', channel=9, note=36, velocity=0, time=0),
    Message('note_on', channel=9, note=42, velocity=127, time=0),
    Message('note_on', channel=9, note=42, velocity=0, time=60),
    Message('note_on', channel=9, note=36, velocity=127, time=0),
    Message('note_on', channel=9, note=42, velocity=127, time=0),
    Message('note_on', channel=9, note=36, velocity=0, time=30),
    Message('note_on', channel=9, note=36, velocity=127, time=0),
    Message('note_on', channel=9, note=36, velocity=0, time=30),
    Message('note_on', channel=9, note=42, velocity=0, time=0),
    Message('note_on', channel=9, note=38, velocity=127, time=0),
    Message('note_on', channel=9, note=42, velocity=127, time=0),
    Message('note_on', channel=9, note=42, velocity=0, time=60),
    Message('note_on', channel=9, note=38, velocity=0, time=0),
    Message('note_on', channel=9, note=42, velocity=127, time=0),
    Message('note_on', channel=9, note=42, velocity=0, time=60),
    Message('note_on', channel=9, note=42, velocity=127, time=0),
    Message('note_on', channel=9, note=36, velocity=127, time=0),
    Message('note_on', channel=9, note=42, velocity=0, time=60),
    Message('note_on', channel=9, note=42, velocity=127, time=0),
    Message('note_on', channel=9, note=36, velocity=0, time=30),
    Message('note_on', channel=9, note=36, velocity=127, time=0),
    Message('note_on', channel=9, note=36, velocity=0, time=30),
    Message('note_on', channel=9, note=42, velocity=0, time=0),
    Message('note_on', channel=9, note=38, velocity=127, time=0),
    Message('note_on', channel=9, note=42, velocity=127, time=0),
    Message('note_on', channel=9, note=42, velocity=0, time=60),
    Message('note_on', channel=9, note=38, velocity=0, time=0),
    Message('note_on', channel=9, note=36, velocity=127, time=0),
    Message('note_on', channel=9, note=42, velocity=127, time=0),
    Message('note_on', channel=9, note=42, velocity=0, time=60),
    Message('note_on', channel=9, note=36, velocity=0, time=0),
    Message('note_on', channel=9, note=42, velocity=127, time=0),
    Message('note_on', channel=9, note=42, velocity=0, time=60),
    Message('note_on', channel=9, note=36, velocity=127, time=0),
    Message('note_on', channel=9, note=42, velocity=127, time=0),
    Message('note_on', channel=9, note=36, velocity=0, time=30),
    Message('note_on', channel=9, note=36, velocity=127, time=0),
    Message('note_on', channel=9, note=36, velocity=0, time=30),
    Message('note_on', channel=9, note=42, velocity=0, time=0),
    Message('note_on', channel=9, note=40, velocity=127, time=0),
    Message('note_on', channel=9, note=57, velocity=127, time=0),
    Message('note_on', channel=9, note=57, velocity=0, time=60),
    Message('note_on', channel=9, note=40, velocity=0, time=0),
    Message('note_on', channel=9, note=36, velocity=127, time=0),
    Message('note_on', channel=9, note=57, velocity=127, time=0),
    Message('note_on', channel=9, note=57, velocity=0, time=60),
    Message('note_on', channel=9, note=36, velocity=0, time=0),
    Message('note_on', channel=9, note=57, velocity=127, time=0),
    Message('note_on', channel=9, note=36, velocity=127, time=0),
    Message('note_on', channel=9, note=57, velocity=0, time=60),
    Message('note_on', channel=9, note=42, velocity=127, time=0),
    Message('note_on', channel=9, note=36, velocity=0, time=30),
    Message('note_on', channel=9, note=36, velocity=127, time=0),
    Message('note_on', channel=9, note=36, velocity=0, time=30),
    Message('note_on', channel=9, note=42, velocity=0, time=0),
    Message('note_on', channel=9, note=38, velocity=127, time=0),
    Message('note_on', channel=9, note=42, velocity=127, time=0),
    Message('note_on', channel=9, note=42, velocity=0, time=60),
    Message('note_on', channel=9, note=38, velocity=0, time=0),
    Message('note_on', channel=9, note=36, velocity=127, time=0),
    Message('note_on', channel=9, note=42, velocity=127, time=0),
    Message('note_on', channel=9, note=42, velocity=0, time=60),
    Message('note_on', channel=9, note=36, velocity=0, time=0),
    Message('note_on', channel=9, note=42, velocity=127, time=0),
    Message('note_on', channel=9, note=42, velocity=0, time=60),
    Message('note_on', channel=9, note=36, velocity=127, time=0),
    Message('note_on', channel=9, note=42, velocity=127, time=0),
    Message('note_on', channel=9, note=36, velocity=0, time=30),
    Message('note_on', channel=9, note=36, velocity=127, time=0),
    Message('note_on', channel=9, note=36, velocity=0, time=30),
    Message('note_on', channel=9, note=42, velocity=0, time=0),
    Message('note_on', channel=9, note=38, velocity=127, time=0),
    Message('note_on', channel=9, note=42, velocity=127, time=0),
    Message('note_on', channel=9, note=42, velocity=0, time=60),
    Message('note_on', channel=9, note=38, velocity=0, time=0),
    Message('note_on', channel=9, note=42, velocity=127, time=0),
    Message('note_on', channel=9, note=42, velocity=0, time=60),
    Message('note_on', channel=9, note=42, velocity=127, time=0),
    Message('note_on', channel=9, note=36, velocity=127, time=0),
    Message('note_on', channel=9, note=42, velocity=0, time=60),
    Message('note_on', channel=9, note=42, velocity=127, time=0),
    Message('note_on', channel=9, note=36, velocity=0, time=30),
    Message('note_on', channel=9, note=36, velocity=127, time=0),
    Message('note_on', channel=9, note=36, velocity=0, time=30),
    Message('note_on', channel=9, note=42, velocity=0, time=0),
    Message('note_on', channel=9, note=38, velocity=127, time=0),
    Message('note_on', channel=9, note=42, velocity=127, time=0),
    Message('note_on', channel=9, note=42, velocity=0, time=60),
    Message('note_on', channel=9, note=38, velocity=0, time=0),
    Message('note_on', channel=9, note=36, velocity=127, time=0),
    Message('note_on', channel=9, note=42, velocity=127, time=0),
    Message('note_on', channel=9, note=42, velocity=0, time=60),
    Message('note_on', channel=9, note=36, velocity=0, time=0),
    Message('note_on', channel=9, note=42, velocity=127, time=0),
    Message('note_on', channel=9, note=42, velocity=0, time=60),
    Message('note_on', channel=9, note=36, velocity=127, time=0),
    Message('note_on', channel=9, note=42, velocity=127, time=0),
    Message('note_on', channel=9, note=36, velocity=0, time=30),
    Message('note_on', channel=9, note=36, velocity=127, time=0),
    Message('note_on', channel=9, note=36, velocity=0, time=30),
    Message('note_on', channel=9, note=42, velocity=0, time=0),
    Message('note_on', channel=9, note=40, velocity=127, time=0),
    Message('note_on', channel=9, note=57, velocity=127, time=0),
    Message('note_on', channel=9, note=57, velocity=0, time=60),
    Message('note_on', channel=9, note=40, velocity=0, time=0),
    Message('note_on', channel=9, note=36, velocity=127, time=0),
    Message('note_on', channel=9, note=57, velocity=127, time=0),
    Message('note_on', channel=9, note=57, velocity=0, time=60),
    Message('note_on', channel=9, note=36, velocity=0, time=0),
    Message('note_on', channel=9, note=57, velocity=127, time=0),
    Message('note_on', channel=9, note=36, velocity=127, time=0),
    Message('note_on', channel=9, note=57, velocity=0, time=60),
    Message('note_on', channel=9, note=42, velocity=127, time=0),
    Message('note_on', channel=9, note=36, velocity=0, time=30),
    Message('note_on', channel=9, note=36, velocity=127, time=0),
    Message('note_on', channel=9, note=36, velocity=0, time=30),
    Message('note_on', channel=9, note=42, velocity=0, time=0),
    Message('note_on', channel=9, note=38, velocity=127, time=0),
    Message('note_on', channel=9, note=42, velocity=127, time=0),
    Message('note_on', channel=9, note=42, velocity=0, time=60),
    Message('note_on', channel=9, note=38, velocity=0, time=0),
    Message('note_on', channel=9, note=36, velocity=127, time=0),
    Message('note_on', channel=9, note=42, velocity=127, time=0),
    Message('note_on', channel=9, note=42, velocity=0, time=60),
    Message('note_on', channel=9, note=36, velocity=0, time=0),
    Message('note_on', channel=9, note=57, velocity=127, time=0),
    Message('note_on', channel=9, note=36, velocity=127, time=60),
    Message('note_on', channel=9, note=36, velocity=0, time=30),
    Message('note_on', channel=9, note=36, velocity=127, time=0),
    Message('note_on', channel=9, note=36, velocity=0, time=30),
    Message('note_on', channel=9, note=57, velocity=0, time=0),
    Message('note_on', channel=9, note=36, velocity=127, time=0),
    Message('note_on', channel=9, note=36, velocity=0, time=30),
    Message('note_on', channel=9, note=36, velocity=127, time=0),
    Message('note_on', channel=9, note=36, velocity=0, time=30),
    Message('note_on', channel=9, note=57, velocity=127, time=0),
    Message('note_on', channel=9, note=38, velocity=127, time=0),
    Message('note_on', channel=9, note=38, velocity=0, time=60),
    Message('note_on', channel=9, note=57, velocity=0, time=0),
    Message('note_on', channel=9, note=36, velocity=127, time=60),
    Message('note_on', channel=9, note=36, velocity=0, time=30),
    Message('note_on', channel=9, note=36, velocity=127, time=0),
    Message('note_on', channel=9, note=36, velocity=0, time=30),
    Message('note_on', channel=9, note=36, velocity=127, time=0),
    Message('note_on', channel=9, note=36, velocity=0, time=30),
    Message('note_on', channel=9, note=36, velocity=127, time=0),
    Message('note_on', channel=9, note=36, velocity=0, time=30),
    Message('note_on', channel=9, note=57, velocity=127, time=0),
    Message('note_on', channel=9, note=38, velocity=127, time=0),
    Message('note_on', channel=9, note=38, velocity=0, time=60),
    Message('note_on', channel=9, note=57, velocity=0, time=0),
    Message('note_on', channel=9, note=36, velocity=127, time=60),
    Message('note_on', channel=9, note=36, velocity=0, time=60),
    Message('note_on', channel=9, note=57, velocity=127, time=0),
    Message('note_on', channel=9, note=38, velocity=127, time=0),
    Message('note_on', channel=9, note=36, velocity=127, time=60),
    Message('note_on', channel=9, note=36, velocity=0, time=60),
    Message('note_on', channel=9, note=38, velocity=0, time=0),
    Message('note_on', channel=9, note=57, velocity=0, time=0),
    Message('note_on', channel=9, note=36, velocity=127, time=0),
    Message('note_on', channel=9, note=57, velocity=127, time=0),
    Message('note_on', channel=9, note=57, velocity=0, time=60),
    Message('note_on', channel=9, note=42, velocity=127, time=0),
    Message('note_on', channel=9, note=36, velocity=0, time=30),
    Message('note_on', channel=9, note=36, velocity=127, time=0),
    Message('note_on', channel=9, note=36, velocity=0, time=30),
    Message('note_on', channel=9, note=42, velocity=0, time=0),
    Message('note_on', channel=9, note=38, velocity=127, time=0),
    Message('note_on', channel=9, note=42, velocity=127, time=0),
    Message('note_on', channel=9, note=42, velocity=0, time=60),
    Message('note_on', channel=9, note=38, velocity=0, time=0),
    Message('note_on', channel=9, note=42, velocity=127, time=0),
    Message('note_on', channel=9, note=42, velocity=0, time=60),
    Message('note_on', channel=9, note=57, velocity=127, time=0),
    Message('note_on', channel=9, note=36, velocity=127, time=60),
    Message('note_on', channel=9, note=36, velocity=0, time=30),
    Message('note_on', channel=9, note=36, velocity=127, time=0),
    Message('note_on', channel=9, note=36, velocity=0, time=30),
    Message('note_on', channel=9, note=57, velocity=0, time=0),
    Message('note_on', channel=9, note=36, velocity=127, time=0),
    Message('note_on', channel=9, note=36, velocity=0, time=30),
    Message('note_on', channel=9, note=36, velocity=127, time=0),
    Message('note_on', channel=9, note=36, velocity=0, time=30),
    Message('note_on', channel=9, note=38, velocity=127, time=0),
    Message('note_on', channel=9, note=57, velocity=127, time=0),
    Message('note_on', channel=9, note=57, velocity=0, time=60),
    Message('note_on', channel=9, note=38, velocity=0, time=0),
    Message('note_on', channel=9, note=36, velocity=127, time=60),
    Message('note_on', channel=9, note=36, velocity=0, time=30),
    Message('note_on', channel=9, note=36, velocity=127, time=0),
    Message('note_on', channel=9, note=36, velocity=0, time=30),
    Message('note_on', channel=9, note=36, velocity=127, time=0),
    Message('note_on', channel=9, note=36, velocity=0, time=30),
    Message('note_on', channel=9, note=36, velocity=127, time=0),
    Message('note_on', channel=9, note=36, velocity=0, time=30),
    Message('note_on', channel=9, note=57, velocity=127, time=0),
    Message('note_on', channel=9, note=38, velocity=127, time=0),
    Message('note_on', channel=9, note=38, velocity=0, time=60),
    Message('note_on', channel=9, note=57, velocity=0, time=0),
    Message('note_on', channel=9, note=36, velocity=127, time=60),
    Message('note_on', channel=9, note=36, velocity=0, time=60),
    Message('note_on', channel=9, note=57, velocity=127, time=0),
    Message('note_on', channel=9, note=38, velocity=127, time=0),
    Message('note_on', channel=9, note=36, velocity=127, time=60),
    Message('note_on', channel=9, note=36, velocity=0, time=60),
    Message('note_on', channel=9, note=38, velocity=0, time=0),
    Message('note_on', channel=9, note=57, velocity=0, time=0),
    Message('note_on', channel=9, note=36, velocity=127, time=0),
    Message('note_on', channel=9, note=57, velocity=127, time=0),
    Message('note_on', channel=9, note=57, velocity=0, time=60),
    Message('note_on', channel=9, note=42, velocity=127, time=0),
    Message('note_on', channel=9, note=36, velocity=0, time=30),
    Message('note_on', channel=9, note=36, velocity=127, time=0),
    Message('note_on', channel=9, note=36, velocity=0, time=30),
    Message('note_on', channel=9, note=42, velocity=0, time=0),
    Message('note_on', channel=9, note=38, velocity=127, time=0),
    Message('note_on', channel=9, note=42, velocity=127, time=0),
    Message('note_on', channel=9, note=42, velocity=0, time=60),
    Message('note_on', channel=9, note=38, velocity=0, time=0),
    Message('note_on', channel=9, note=42, velocity=127, time=0),
    Message('note_on', channel=9, note=42, velocity=0, time=60),
    Message('note_on', channel=9, note=57, velocity=127, time=0),
    Message('note_on', channel=9, note=36, velocity=127, time=60),
    Message('note_on', channel=9, note=36, velocity=0, time=30),
    Message('note_on', channel=9, note=36, velocity=127, time=0),
    Message('note_on', channel=9, note=36, velocity=0, time=30),
    Message('note_on', channel=9, note=57, velocity=0, time=0),
    Message('note_on', channel=9, note=36, velocity=127, time=0),
    Message('note_on', channel=9, note=36, velocity=0, time=30),
    Message('note_on', channel=9, note=36, velocity=127, time=0),
    Message('note_on', channel=9, note=36, velocity=0, time=30),
    Message('note_on', channel=9, note=38, velocity=127, time=0),
    Message('note_on', channel=9, note=57, velocity=127, time=0),
    Message('note_on', channel=9, note=57, velocity=0, time=60),
    Message('note_on', channel=9, note=38, velocity=0, time=0),
    Message('note_on', channel=9, note=36, velocity=127, time=60),
    Message('note_on', channel=9, note=36, velocity=0, time=30),
    Message('note_on', channel=9, note=36, velocity=127, time=0),
    Message('note_on', channel=9, note=36, velocity=0, time=30),
    Message('note_on', channel=9, note=36, velocity=127, time=0),
    Message('note_on', channel=9, note=36, velocity=0, time=30),
    Message('note_on', channel=9, note=36, velocity=127, time=0),
    Message('note_on', channel=9, note=36, velocity=0, time=30),
    Message('note_on', channel=9, note=57, velocity=127, time=0),
    Message('note_on', channel=9, note=38, velocity=127, time=0),
    Message('note_on', channel=9, note=38, velocity=0, time=60),
    Message('note_on', channel=9, note=57, velocity=0, time=0),
    Message('note_on', channel=9, note=36, velocity=127, time=60),
    Message('note_on', channel=9, note=36, velocity=0, time=60),
    Message('note_on', channel=9, note=57, velocity=127, time=0),
    Message('note_on', channel=9, note=38, velocity=127, time=0),
    Message('note_on', channel=9, note=36, velocity=127, time=60),
    Message('note_on', channel=9, note=36, velocity=0, time=60),
    Message('note_on', channel=9, note=38, velocity=0, time=0),
    Message('note_on', channel=9, note=57, velocity=0, time=0),
    Message('note_on', channel=9, note=36, velocity=127, time=0),
    Message('note_on', channel=9, note=57, velocity=127, time=0),
    Message('note_on', channel=9, note=57, velocity=0, time=60),
    Message('note_on', channel=9, note=42, velocity=127, time=0),
    Message('note_on', channel=9, note=36, velocity=0, time=30),
    Message('note_on', channel=9, note=36, velocity=127, time=0),
    Message('note_on', channel=9, note=36, velocity=0, time=30),
    Message('note_on', channel=9, note=42, velocity=0, time=0),
    Message('note_on', channel=9, note=38, velocity=127, time=0),
    Message('note_on', channel=9, note=42, velocity=127, time=0),
    Message('note_on', channel=9, note=42, velocity=0, time=60),
    Message('note_on', channel=9, note=38, velocity=0, time=0),
    Message('note_on', channel=9, note=42, velocity=127, time=0),
    Message('note_on', channel=9, note=42, velocity=0, time=60),
    Message('note_on', channel=9, note=57, velocity=127, time=0),
    Message('note_on', channel=9, note=36, velocity=127, time=60),
    Message('note_on', channel=9, note=36, velocity=0, time=30),
    Message('note_on', channel=9, note=36, velocity=127, time=0),
    Message('note_on', channel=9, note=36, velocity=0, time=30),
    Message('note_on', channel=9, note=57, velocity=0, time=0),
    Message('note_on', channel=9, note=36, velocity=127, time=0),
    Message('note_on', channel=9, note=36, velocity=0, time=30),
    Message('note_on', channel=9, note=36, velocity=127, time=0),
    Message('note_on', channel=9, note=36, velocity=0, time=30),
    Message('note_on', channel=9, note=38, velocity=127, time=0),
    Message('note_on', channel=9, note=57, velocity=127, time=0),
    Message('note_on', channel=9, note=57, velocity=0, time=60),
    Message('note_on', channel=9, note=38, velocity=0, time=0),
    Message('note_on', channel=9, note=36, velocity=127, time=60),
    Message('note_on', channel=9, note=36, velocity=0, time=30),
    Message('note_on', channel=9, note=36, velocity=127, time=0),
    Message('note_on', channel=9, note=36, velocity=0, time=30),
    Message('note_on', channel=9, note=36, velocity=127, time=0),
    Message('note_on', channel=9, note=36, velocity=0, time=30),
    Message('note_on', channel=9, note=36, velocity=127, time=0),
    Message('note_on', channel=9, note=36, velocity=0, time=30),
    Message('note_on', channel=9, note=57, velocity=127, time=0),
    Message('note_on', channel=9, note=38, velocity=127, time=0),
    Message('note_on', channel=9, note=38, velocity=0, time=60),
    Message('note_on', channel=9, note=57, velocity=0, time=0),
    Message('note_on', channel=9, note=36, velocity=127, time=60),
    Message('note_on', channel=9, note=36, velocity=0, time=60),
    Message('note_on', channel=9, note=57, velocity=127, time=0),
    Message('note_on', channel=9, note=38, velocity=127, time=0),
    Message('note_on', channel=9, note=36, velocity=127, time=60),
    Message('note_on', channel=9, note=36, velocity=0, time=60),
    Message('note_on', channel=9, note=38, velocity=0, time=0),
    Message('note_on', channel=9, note=57, velocity=0, time=0),
    Message('note_on', channel=9, note=36, velocity=127, time=0),
    Message('note_on', channel=9, note=57, velocity=127, time=0),
    Message('note_on', channel=9, note=57, velocity=0, time=60),
    Message('note_on', channel=9, note=42, velocity=127, time=0),
    Message('note_on', channel=9, note=36, velocity=0, time=30),
    Message('note_on', channel=9, note=36, velocity=127, time=0),
    Message('note_on', channel=9, note=36, velocity=0, time=30),
    Message('note_on', channel=9, note=42, velocity=0, time=0),
    Message('note_on', channel=9, note=38, velocity=127, time=0),
    Message('note_on', channel=9, note=42, velocity=127, time=0),
    Message('note_on', channel=9, note=42, velocity=0, time=60),
    Message('note_on', channel=9, note=38, velocity=0, time=0),
    Message('note_on', channel=9, note=36, velocity=127, time=0),
    Message('note_on', channel=9, note=42, velocity=127, time=0),
    Message('note_on', channel=9, note=42, velocity=0, time=60),
    Message('note_on', channel=9, note=36, velocity=0, time=0),
    Message('note_on', channel=9, note=42, velocity=127, time=0),
    Message('note_on', channel=9, note=42, velocity=0, time=60),
    Message('note_on', channel=9, note=36, velocity=127, time=0),
    Message('note_on', channel=9, note=42, velocity=127, time=0),
    Message('note_on', channel=9, note=36, velocity=0, time=30),
    Message('note_on', channel=9, note=36, velocity=127, time=0),
    Message('note_on', channel=9, note=36, velocity=0, time=30),
    Message('note_on', channel=9, note=42, velocity=0, time=0),
    Message('note_on', channel=9, note=38, velocity=127, time=0),
    Message('note_on', channel=9, note=42, velocity=127, time=0),
    Message('note_on', channel=9, note=42, velocity=0, time=60),
    Message('note_on', channel=9, note=38, velocity=0, time=0),
    Message('note_on', channel=9, note=42, velocity=127, time=0),
    Message('note_on', channel=9, note=42, velocity=0, time=60),
    Message('note_on', channel=9, note=42, velocity=127, time=0),
    Message('note_on', channel=9, note=36, velocity=127, time=0),
    Message('note_on', channel=9, note=42, velocity=0, time=60),
    Message('note_on', channel=9, note=42, velocity=127, time=0),
    Message('note_on', channel=9, note=36, velocity=0, time=30),
    Message('note_on', channel=9, note=36, velocity=127, time=0),
    Message('note_on', channel=9, note=36, velocity=0, time=30),
    Message('note_on', channel=9, note=42, velocity=0, time=0),
    Message('note_on', channel=9, note=38, velocity=127, time=0),
    Message('note_on', channel=9, note=42, velocity=127, time=0),
    Message('note_on', channel=9, note=42, velocity=0, time=60),
    Message('note_on', channel=9, note=38, velocity=0, time=0),
    Message('note_on', channel=9, note=36, velocity=127, time=0),
    Message('note_on', channel=9, note=42, velocity=127, time=0),
    Message('note_on', channel=9, note=42, velocity=0, time=60),
    Message('note_on', channel=9, note=36, velocity=0, time=0),
    Message('note_on', channel=9, note=42, velocity=127, time=0),
    Message('note_on', channel=9, note=42, velocity=0, time=60),
    Message('note_on', channel=9, note=36, velocity=127, time=0),
    Message('note_on', channel=9, note=42, velocity=127, time=0),
    Message('note_on', channel=9, note=36, velocity=0, time=30),
    Message('note_on', channel=9, note=36, velocity=127, time=0),
    Message('note_on', channel=9, note=36, velocity=0, time=30),
    Message('note_on', channel=9, note=42, velocity=0, time=0),
    Message('note_on', channel=9, note=57, velocity=127, time=0),
    Message('note_on', channel=9, note=38, velocity=127, time=0),
    Message('note_on', channel=9, note=38, velocity=0, time=120),
    Message('note_on', channel=9, note=57, velocity=0, time=0),
    Message('note_on', channel=9, note=36, velocity=127, time=0),
    Message('note_on', channel=9, note=42, velocity=127, time=0),
    Message('note_on', channel=9, note=42, velocity=0, time=60),
    Message('note_on', channel=9, note=42, velocity=127, time=0),
    Message('note_on', channel=9, note=36, velocity=0, time=30),
    Message('note_on', channel=9, note=36, velocity=127, time=0),
    Message('note_on', channel=9, note=36, velocity=0, time=30),
    Message('note_on', channel=9, note=42, velocity=0, time=0),
    Message('note_on', channel=9, note=38, velocity=127, time=0),
    Message('note_on', channel=9, note=42, velocity=127, time=0),
    Message('note_on', channel=9, note=42, velocity=0, time=60),
    Message('note_on', channel=9, note=38, velocity=0, time=0),
    Message('note_on', channel=9, note=36, velocity=127, time=0),
    Message('note_on', channel=9, note=42, velocity=127, time=0),
    Message('note_on', channel=9, note=42, velocity=0, time=60),
    Message('note_on', channel=9, note=36, velocity=0, time=0),
    Message('note_on', channel=9, note=42, velocity=127, time=0),
    Message('note_on', channel=9, note=42, velocity=0, time=60),
    Message('note_on', channel=9, note=36, velocity=127, time=0),
    Message('note_on', channel=9, note=42, velocity=127, time=0),
    Message('note_on', channel=9, note=36, velocity=0, time=30),
    Message('note_on', channel=9, note=36, velocity=127, time=0),
    Message('note_on', channel=9, note=36, velocity=0, time=30),
    Message('note_on', channel=9, note=42, velocity=0, time=0),
    Message('note_on', channel=9, note=38, velocity=127, time=0),
    Message('note_on', channel=9, note=42, velocity=127, time=0),
    Message('note_on', channel=9, note=42, velocity=0, time=60),
    Message('note_on', channel=9, note=38, velocity=0, time=0),
    Message('note_on', channel=9, note=42, velocity=127, time=0),
    Message('note_on', channel=9, note=42, velocity=0, time=60),
    Message('note_on', channel=9, note=42, velocity=127, time=0),
    Message('note_on', channel=9, note=36, velocity=127, time=0),
    Message('note_on', channel=9, note=42, velocity=0, time=60),
    Message('note_on', channel=9, note=42, velocity=127, time=0),
    Message('note_on', channel=9, note=36, velocity=0, time=30),
    Message('note_on', channel=9, note=36, velocity=127, time=0),
    Message('note_on', channel=9, note=36, velocity=0, time=30),
    Message('note_on', channel=9, note=42, velocity=0, time=0),
    Message('note_on', channel=9, note=38, velocity=127, time=0),
    Message('note_on', channel=9, note=42, velocity=127, time=0),
    Message('note_on', channel=9, note=42, velocity=0, time=60),
    Message('note_on', channel=9, note=38, velocity=0, time=0),
    Message('note_on', channel=9, note=36, velocity=127, time=0),
    Message('note_on', channel=9, note=42, velocity=127, time=0),
    Message('note_on', channel=9, note=42, velocity=0, time=60),
    Message('note_on', channel=9, note=36, velocity=0, time=0),
    Message('note_on', channel=9, note=42, velocity=127, time=0),
    Message('note_on', channel=9, note=42, velocity=0, time=60),
    Message('note_on', channel=9, note=36, velocity=127, time=0),
    Message('note_on', channel=9, note=42, velocity=127, time=0),
    Message('note_on', channel=9, note=36, velocity=0, time=30),
    Message('note_on', channel=9, note=36, velocity=127, time=0),
    Message('note_on', channel=9, note=36, velocity=0, time=30),
    Message('note_on', channel=9, note=42, velocity=0, time=0),
    Message('note_on', channel=9, note=57, velocity=127, time=0),
    Message('note_on', channel=9, note=38, velocity=127, time=0),
    Message('note_on', channel=9, note=38, velocity=0, time=120),
    Message('note_on', channel=9, note=57, velocity=0, time=0),
    Message('note_on', channel=9, note=36, velocity=127, time=0),
    Message('note_on', channel=9, note=42, velocity=127, time=0),
    Message('note_on', channel=9, note=42, velocity=0, time=60),
    Message('note_on', channel=9, note=42, velocity=127, time=0),
    Message('note_on', channel=9, note=36, velocity=0, time=30),
    Message('note_on', channel=9, note=36, velocity=127, time=0),
    Message('note_on', channel=9, note=36, velocity=0, time=30),
    Message('note_on', channel=9, note=42, velocity=0, time=0),
    Message('note_on', channel=9, note=38, velocity=127, time=0),
    Message('note_on', channel=9, note=42, velocity=127, time=0),
    Message('note_on', channel=9, note=42, velocity=0, time=60),
    Message('note_on', channel=9, note=38, velocity=0, time=0),
    Message('note_on', channel=9, note=36, velocity=127, time=0),
    Message('note_on', channel=9, note=42, velocity=127, time=0),
    Message('note_on', channel=9, note=42, velocity=0, time=60),
    Message('note_on', channel=9, note=36, velocity=0, time=0),
    Message('note_on', channel=9, note=42, velocity=127, time=0),
    Message('note_on', channel=9, note=42, velocity=0, time=60),
    Message('note_on', channel=9, note=36, velocity=127, time=0),
    Message('note_on', channel=9, note=42, velocity=127, time=0),
    Message('note_on', channel=9, note=36, velocity=0, time=30),
    Message('note_on', channel=9, note=36, velocity=127, time=0),
    Message('note_on', channel=9, note=36, velocity=0, time=30),
    Message('note_on', channel=9, note=42, velocity=0, time=0),
    Message('note_on', channel=9, note=38, velocity=127, time=0),
    Message('note_on', channel=9, note=42, velocity=127, time=0),
    Message('note_on', channel=9, note=42, velocity=0, time=60),
    Message('note_on', channel=9, note=38, velocity=0, time=0),
    Message('note_on', channel=9, note=42, velocity=127, time=0),
    Message('note_on', channel=9, note=42, velocity=0, time=60),
    Message('note_on', channel=9, note=42, velocity=127, time=0),
    Message('note_on', channel=9, note=36, velocity=127, time=0),
    Message('note_on', channel=9, note=42, velocity=0, time=60),
    Message('note_on', channel=9, note=42, velocity=127, time=0),
    Message('note_on', channel=9, note=36, velocity=0, time=30),
    Message('note_on', channel=9, note=36, velocity=127, time=0),
    Message('note_on', channel=9, note=36, velocity=0, time=30),
    Message('note_on', channel=9, note=42, velocity=0, time=0),
    Message('note_on', channel=9, note=38, velocity=127, time=0),
    Message('note_on', channel=9, note=42, velocity=127, time=0),
    Message('note_on', channel=9, note=42, velocity=0, time=60),
    Message('note_on', channel=9, note=38, velocity=0, time=0),
    Message('note_on', channel=9, note=36, velocity=127, time=0),
    Message('note_on', channel=9, note=42, velocity=127, time=0),
    Message('note_on', channel=9, note=42, velocity=0, time=60),
    Message('note_on', channel=9, note=36, velocity=0, time=0),
    Message('note_on', channel=9, note=42, velocity=127, time=0),
    Message('note_on', channel=9, note=42, velocity=0, time=60),
    Message('note_on', channel=9, note=36, velocity=127, time=0),
    Message('note_on', channel=9, note=42, velocity=127, time=0),
    Message('note_on', channel=9, note=36, velocity=0, time=30),
    Message('note_on', channel=9, note=36, velocity=127, time=0),
    Message('note_on', channel=9, note=36, velocity=0, time=30),
    Message('note_on', channel=9, note=42, velocity=0, time=0),
    Message('note_on', channel=9, note=57, velocity=127, time=0),
    Message('note_on', channel=9, note=38, velocity=127, time=0),
    Message('note_on', channel=9, note=38, velocity=0, time=120),
    Message('note_on', channel=9, note=57, velocity=0, time=0),
    Message('note_on', channel=9, note=36, velocity=127, time=0),
    Message('note_on', channel=9, note=42, velocity=127, time=0),
    Message('note_on', channel=9, note=42, velocity=0, time=60),
    Message('note_on', channel=9, note=42, velocity=127, time=0),
    Message('note_on', channel=9, note=36, velocity=0, time=30),
    Message('note_on', channel=9, note=36, velocity=127, time=0),
    Message('note_on', channel=9, note=36, velocity=0, time=30),
    Message('note_on', channel=9, note=42, velocity=0, time=0),
    Message('note_on', channel=9, note=38, velocity=127, time=0),
    Message('note_on', channel=9, note=42, velocity=127, time=0),
    Message('note_on', channel=9, note=42, velocity=0, time=60),
    Message('note_on', channel=9, note=38, velocity=0, time=0),
    Message('note_on', channel=9, note=36, velocity=127, time=0),
    Message('note_on', channel=9, note=42, velocity=127, time=0),
    Message('note_on', channel=9, note=42, velocity=0, time=60),
    Message('note_on', channel=9, note=36, velocity=0, time=0),
    Message('note_on', channel=9, note=42, velocity=127, time=0),
    Message('note_on', channel=9, note=42, velocity=0, time=60),
    Message('note_on', channel=9, note=36, velocity=127, time=0),
    Message('note_on', channel=9, note=42, velocity=127, time=0),
    Message('note_on', channel=9, note=36, velocity=0, time=30),
    Message('note_on', channel=9, note=36, velocity=127, time=0),
    Message('note_on', channel=9, note=36, velocity=0, time=30),
    Message('note_on', channel=9, note=42, velocity=0, time=0),
    Message('note_on', channel=9, note=38, velocity=127, time=0),
    Message('note_on', channel=9, note=42, velocity=127, time=0),
    Message('note_on', channel=9, note=42, velocity=0, time=60),
    Message('note_on', channel=9, note=38, velocity=0, time=0),
    Message('note_on', channel=9, note=42, velocity=127, time=0),
    Message('note_on', channel=9, note=42, velocity=0, time=60),
    Message('note_on', channel=9, note=42, velocity=127, time=0),
    Message('note_on', channel=9, note=36, velocity=127, time=0),
    Message('note_on', channel=9, note=42, velocity=0, time=60),
    Message('note_on', channel=9, note=42, velocity=127, time=0),
    Message('note_on', channel=9, note=36, velocity=0, time=30),
    Message('note_on', channel=9, note=36, velocity=127, time=0),
    Message('note_on', channel=9, note=36, velocity=0, time=30),
    Message('note_on', channel=9, note=42, velocity=0, time=0),
    Message('note_on', channel=9, note=38, velocity=127, time=0),
    Message('note_on', channel=9, note=42, velocity=127, time=0),
    Message('note_on', channel=9, note=42, velocity=0, time=60),
    Message('note_on', channel=9, note=38, velocity=0, time=0),
    Message('note_on', channel=9, note=36, velocity=127, time=0),
    Message('note_on', channel=9, note=42, velocity=127, time=0),
    Message('note_on', channel=9, note=42, velocity=0, time=60),
    Message('note_on', channel=9, note=36, velocity=0, time=0),
    Message('note_on', channel=9, note=42, velocity=127, time=0),
    Message('note_on', channel=9, note=42, velocity=0, time=60),
    Message('note_on', channel=9, note=36, velocity=127, time=0),
    Message('note_on', channel=9, note=42, velocity=127, time=0),
    Message('note_on', channel=9, note=36, velocity=0, time=30),
    Message('note_on', channel=9, note=36, velocity=127, time=0),
    Message('note_on', channel=9, note=36, velocity=0, time=30),
    Message('note_on', channel=9, note=42, velocity=0, time=0),
    Message('note_on', channel=9, note=57, velocity=127, time=0),
    Message('note_on', channel=9, note=38, velocity=127, time=0),
    Message('note_on', channel=9, note=38, velocity=0, time=120),
    Message('note_on', channel=9, note=57, velocity=0, time=0),
    Message('note_on', channel=9, note=36, velocity=127, time=0),
    Message('note_on', channel=9, note=57, velocity=127, time=0),
    Message('note_on', channel=9, note=57, velocity=0, time=60),
    Message('note_on', channel=9, note=42, velocity=127, time=0),
    Message('note_on', channel=9, note=36, velocity=0, time=30),
    Message('note_on', channel=9, note=36, velocity=127, time=0),
    Message('note_on', channel=9, note=36, velocity=0, time=30),
    Message('note_on', channel=9, note=42, velocity=0, time=0),
    Message('note_on', channel=9, note=38, velocity=127, time=0),
    Message('note_on', channel=9, note=42, velocity=127, time=0),
    Message('note_on', channel=9, note=42, velocity=0, time=60),
    Message('note_on', channel=9, note=38, velocity=0, time=0),
    Message('note_on', channel=9, note=36, velocity=127, time=0),
    Message('note_on', channel=9, note=42, velocity=127, time=0),
    Message('note_on', channel=9, note=42, velocity=0, time=60),
    Message('note_on', channel=9, note=36, velocity=0, time=0),
    Message('note_on', channel=9, note=42, velocity=127, time=0),
    Message('note_on', channel=9, note=42, velocity=0, time=60),
    Message('note_on', channel=9, note=36, velocity=127, time=0),
    Message('note_on', channel=9, note=42, velocity=127, time=0),
    Message('note_on', channel=9, note=36, velocity=0, time=30),
    Message('note_on', channel=9, note=36, velocity=127, time=0),
    Message('note_on', channel=9, note=36, velocity=0, time=30),
    Message('note_on', channel=9, note=42, velocity=0, time=0),
    Message('note_on', channel=9, note=38, velocity=127, time=0),
    Message('note_on', channel=9, note=42, velocity=127, time=0),
    Message('note_on', channel=9, note=42, velocity=0, time=60),
    Message('note_on', channel=9, note=38, velocity=0, time=0),
    Message('note_on', channel=9, note=42, velocity=127, time=0),
    Message('note_on', channel=9, note=42, velocity=0, time=60),
    Message('note_on', channel=9, note=42, velocity=127, time=0),
    Message('note_on', channel=9, note=36, velocity=127, time=0),
    Message('note_on', channel=9, note=42, velocity=0, time=60),
    Message('note_on', channel=9, note=42, velocity=127, time=0),
    Message('note_on', channel=9, note=36, velocity=0, time=30),
    Message('note_on', channel=9, note=36, velocity=127, time=0),
    Message('note_on', channel=9, note=36, velocity=0, time=30),
    Message('note_on', channel=9, note=42, velocity=0, time=0),
    Message('note_on', channel=9, note=38, velocity=127, time=0),
    Message('note_on', channel=9, note=42, velocity=127, time=0),
    Message('note_on', channel=9, note=42, velocity=0, time=60),
    Message('note_on', channel=9, note=38, velocity=0, time=0),
    Message('note_on', channel=9, note=36, velocity=127, time=0),
    Message('note_on', channel=9, note=42, velocity=127, time=0),
    Message('note_on', channel=9, note=42, velocity=0, time=60),
    Message('note_on', channel=9, note=36, velocity=0, time=0),
    Message('note_on', channel=9, note=42, velocity=127, time=0),
    Message('note_on', channel=9, note=42, velocity=0, time=60),
    Message('note_on', channel=9, note=36, velocity=127, time=0),
    Message('note_on', channel=9, note=42, velocity=127, time=0),
    Message('note_on', channel=9, note=36, velocity=0, time=30),
    Message('note_on', channel=9, note=36, velocity=127, time=0),
    Message('note_on', channel=9, note=36, velocity=0, time=30),
    Message('note_on', channel=9, note=42, velocity=0, time=0),
    Message('note_on', channel=9, note=57, velocity=127, time=0),
    Message('note_on', channel=9, note=38, velocity=127, time=0),
    Message('note_on', channel=9, note=38, velocity=0, time=120),
    Message('note_on', channel=9, note=57, velocity=0, time=0),
    Message('note_on', channel=9, note=36, velocity=127, time=0),
    Message('note_on', channel=9, note=42, velocity=127, time=0),
    Message('note_on', channel=9, note=42, velocity=0, time=60),
    Message('note_on', channel=9, note=42, velocity=127, time=0),
    Message('note_on', channel=9, note=36, velocity=0, time=30),
    Message('note_on', channel=9, note=36, velocity=127, time=0),
    Message('note_on', channel=9, note=36, velocity=0, time=30),
    Message('note_on', channel=9, note=42, velocity=0, time=0),
    Message('note_on', channel=9, note=38, velocity=127, time=0),
    Message('note_on', channel=9, note=42, velocity=127, time=0),
    Message('note_on', channel=9, note=42, velocity=0, time=60),
    Message('note_on', channel=9, note=38, velocity=0, time=0),
    Message('note_on', channel=9, note=36, velocity=127, time=0),
    Message('note_on', channel=9, note=42, velocity=127, time=0),
    Message('note_on', channel=9, note=42, velocity=0, time=60),
    Message('note_on', channel=9, note=36, velocity=0, time=0),
    Message('note_on', channel=9, note=42, velocity=127, time=0),
    Message('note_on', channel=9, note=42, velocity=0, time=60),
    Message('note_on', channel=9, note=36, velocity=127, time=0),
    Message('note_on', channel=9, note=42, velocity=127, time=0),
    Message('note_on', channel=9, note=36, velocity=0, time=30),
    Message('note_on', channel=9, note=36, velocity=127, time=0),
    Message('note_on', channel=9, note=36, velocity=0, time=30),
    Message('note_on', channel=9, note=42, velocity=0, time=0),
    Message('note_on', channel=9, note=38, velocity=127, time=0),
    Message('note_on', channel=9, note=42, velocity=127, time=0),
    Message('note_on', channel=9, note=42, velocity=0, time=60),
    Message('note_on', channel=9, note=38, velocity=0, time=0),
    Message('note_on', channel=9, note=42, velocity=127, time=0),
    Message('note_on', channel=9, note=42, velocity=0, time=60),
    Message('note_on', channel=9, note=42, velocity=127, time=0),
    Message('note_on', channel=9, note=36, velocity=127, time=0),
    Message('note_on', channel=9, note=42, velocity=0, time=60),
    Message('note_on', channel=9, note=42, velocity=127, time=0),
    Message('note_on', channel=9, note=36, velocity=0, time=30),
    Message('note_on', channel=9, note=36, velocity=127, time=0),
    Message('note_on', channel=9, note=36, velocity=0, time=30),
    Message('note_on', channel=9, note=42, velocity=0, time=0),
    Message('note_on', channel=9, note=38, velocity=127, time=0),
    Message('note_on', channel=9, note=42, velocity=127, time=0),
    Message('note_on', channel=9, note=42, velocity=0, time=60),
    Message('note_on', channel=9, note=38, velocity=0, time=0),
    Message('note_on', channel=9, note=36, velocity=127, time=0),
    Message('note_on', channel=9, note=42, velocity=127, time=0),
    Message('note_on', channel=9, note=42, velocity=0, time=60),
    Message('note_on', channel=9, note=36, velocity=0, time=0),
    Message('note_on', channel=9, note=42, velocity=127, time=0),
    Message('note_on', channel=9, note=42, velocity=0, time=60),
    Message('note_on', channel=9, note=36, velocity=127, time=0),
    Message('note_on', channel=9, note=42, velocity=127, time=0),
    Message('note_on', channel=9, note=36, velocity=0, time=30),
    Message('note_on', channel=9, note=36, velocity=127, time=0),
    Message('note_on', channel=9, note=36, velocity=0, time=30),
    Message('note_on', channel=9, note=42, velocity=0, time=0),
    Message('note_on', channel=9, note=57, velocity=127, time=0),
    Message('note_on', channel=9, note=38, velocity=127, time=0),
    Message('note_on', channel=9, note=38, velocity=0, time=120),
    Message('note_on', channel=9, note=57, velocity=0, time=0),
    Message('note_on', channel=9, note=36, velocity=127, time=0),
    Message('note_on', channel=9, note=42, velocity=127, time=0),
    Message('note_on', channel=9, note=42, velocity=0, time=60),
    Message('note_on', channel=9, note=42, velocity=127, time=0),
    Message('note_on', channel=9, note=36, velocity=0, time=30),
    Message('note_on', channel=9, note=36, velocity=127, time=0),
    Message('note_on', channel=9, note=36, velocity=0, time=30),
    Message('note_on', channel=9, note=42, velocity=0, time=0),
    Message('note_on', channel=9, note=38, velocity=127, time=0),
    Message('note_on', channel=9, note=42, velocity=127, time=0),
    Message('note_on', channel=9, note=42, velocity=0, time=60),
    Message('note_on', channel=9, note=38, velocity=0, time=0),
    Message('note_on', channel=9, note=36, velocity=127, time=0),
    Message('note_on', channel=9, note=42, velocity=127, time=0),
    Message('note_on', channel=9, note=42, velocity=0, time=60),
    Message('note_on', channel=9, note=36, velocity=0, time=0),
    Message('note_on', channel=9, note=42, velocity=127, time=0),
    Message('note_on', channel=9, note=42, velocity=0, time=60),
    Message('note_on', channel=9, note=36, velocity=127, time=0),
    Message('note_on', channel=9, note=42, velocity=127, time=0),
    Message('note_on', channel=9, note=36, velocity=0, time=30),
    Message('note_on', channel=9, note=36, velocity=127, time=0),
    Message('note_on', channel=9, note=36, velocity=0, time=30),
    Message('note_on', channel=9, note=42, velocity=0, time=0),
    Message('note_on', channel=9, note=38, velocity=127, time=0),
    Message('note_on', channel=9, note=42, velocity=127, time=0),
    Message('note_on', channel=9, note=42, velocity=0, time=60),
    Message('note_on', channel=9, note=38, velocity=0, time=0),
    Message('note_on', channel=9, note=42, velocity=127, time=0),
    Message('note_on', channel=9, note=42, velocity=0, time=60),
    Message('note_on', channel=9, note=42, velocity=127, time=0),
    Message('note_on', channel=9, note=36, velocity=127, time=0),
    Message('note_on', channel=9, note=42, velocity=0, time=60),
    Message('note_on', channel=9, note=42, velocity=127, time=0),
    Message('note_on', channel=9, note=36, velocity=0, time=30),
    Message('note_on', channel=9, note=36, velocity=127, time=0),
    Message('note_on', channel=9, note=36, velocity=0, time=30),
    Message('note_on', channel=9, note=42, velocity=0, time=0),
    Message('note_on', channel=9, note=38, velocity=127, time=0),
    Message('note_on', channel=9, note=42, velocity=127, time=0),
    Message('note_on', channel=9, note=42, velocity=0, time=60),
    Message('note_on', channel=9, note=38, velocity=0, time=0),
    Message('note_on', channel=9, note=36, velocity=127, time=0),
    Message('note_on', channel=9, note=42, velocity=127, time=0),
    Message('note_on', channel=9, note=42, velocity=0, time=60),
    Message('note_on', channel=9, note=36, velocity=0, time=0),
    Message('note_on', channel=9, note=42, velocity=127, time=0),
    Message('note_on', channel=9, note=42, velocity=0, time=60),
    Message('note_on', channel=9, note=36, velocity=127, time=0),
    Message('note_on', channel=9, note=42, velocity=127, time=0),
    Message('note_on', channel=9, note=36, velocity=0, time=30),
    Message('note_on', channel=9, note=36, velocity=127, time=0),
    Message('note_on', channel=9, note=36, velocity=0, time=30),
    Message('note_on', channel=9, note=42, velocity=0, time=0),
    Message('note_on', channel=9, note=57, velocity=127, time=0),
    Message('note_on', channel=9, note=38, velocity=127, time=0),
    Message('note_on', channel=9, note=38, velocity=0, time=120),
    Message('note_on', channel=9, note=57, velocity=0, time=0),
    Message('note_on', channel=9, note=36, velocity=127, time=0),
    Message('note_on', channel=9, note=42, velocity=127, time=0),
    Message('note_on', channel=9, note=42, velocity=0, time=60),
    Message('note_on', channel=9, note=42, velocity=127, time=0),
    Message('note_on', channel=9, note=36, velocity=0, time=30),
    Message('note_on', channel=9, note=36, velocity=127, time=0),
    Message('note_on', channel=9, note=36, velocity=0, time=30),
    Message('note_on', channel=9, note=42, velocity=0, time=0),
    Message('note_on', channel=9, note=38, velocity=127, time=0),
    Message('note_on', channel=9, note=42, velocity=127, time=0),
    Message('note_on', channel=9, note=42, velocity=0, time=60),
    Message('note_on', channel=9, note=38, velocity=0, time=0),
    Message('note_on', channel=9, note=36, velocity=127, time=0),
    Message('note_on', channel=9, note=42, velocity=127, time=0),
    Message('note_on', channel=9, note=42, velocity=0, time=60),
    Message('note_on', channel=9, note=36, velocity=0, time=0),
    Message('note_on', channel=9, note=42, velocity=127, time=0),
    Message('note_on', channel=9, note=42, velocity=0, time=60),
    Message('note_on', channel=9, note=36, velocity=127, time=0),
    Message('note_on', channel=9, note=42, velocity=127, time=0),
    Message('note_on', channel=9, note=36, velocity=0, time=30),
    Message('note_on', channel=9, note=36, velocity=127, time=0),
    Message('note_on', channel=9, note=36, velocity=0, time=30),
    Message('note_on', channel=9, note=42, velocity=0, time=0),
    Message('note_on', channel=9, note=38, velocity=127, time=0),
    Message('note_on', channel=9, note=42, velocity=127, time=0),
    Message('note_on', channel=9, note=42, velocity=0, time=60),
    Message('note_on', channel=9, note=38, velocity=0, time=0),
    Message('note_on', channel=9, note=42, velocity=127, time=0),
    Message('note_on', channel=9, note=42, velocity=0, time=60),
    Message('note_on', channel=9, note=42, velocity=127, time=0),
    Message('note_on', channel=9, note=36, velocity=127, time=0),
    Message('note_on', channel=9, note=42, velocity=0, time=60),
    Message('note_on', channel=9, note=42, velocity=127, time=0),
    Message('note_on', channel=9, note=36, velocity=0, time=30),
    Message('note_on', channel=9, note=36, velocity=127, time=0),
    Message('note_on', channel=9, note=36, velocity=0, time=30),
    Message('note_on', channel=9, note=42, velocity=0, time=0),
    Message('note_on', channel=9, note=38, velocity=127, time=0),
    Message('note_on', channel=9, note=42, velocity=127, time=0),
    Message('note_on', channel=9, note=42, velocity=0, time=60),
    Message('note_on', channel=9, note=38, velocity=0, time=0),
    Message('note_on', channel=9, note=36, velocity=127, time=0),
    Message('note_on', channel=9, note=42, velocity=127, time=0),
    Message('note_on', channel=9, note=42, velocity=0, time=60),
    Message('note_on', channel=9, note=36, velocity=0, time=0),
    Message('note_on', channel=9, note=42, velocity=127, time=0),
    Message('note_on', channel=9, note=42, velocity=0, time=60),
    Message('note_on', channel=9, note=36, velocity=127, time=0),
    Message('note_on', channel=9, note=42, velocity=127, time=0),
    Message('note_on', channel=9, note=36, velocity=0, time=30),
    Message('note_on', channel=9, note=36, velocity=127, time=0),
    Message('note_on', channel=9, note=36, velocity=0, time=30),
    Message('note_on', channel=9, note=42, velocity=0, time=0),
    Message('note_on', channel=9, note=57, velocity=127, time=0),
    Message('note_on', channel=9, note=38, velocity=127, time=0),
    Message('note_on', channel=9, note=38, velocity=0, time=120),
    Message('note_on', channel=9, note=57, velocity=0, time=0),
    Message('note_on', channel=9, note=36, velocity=127, time=0),
    Message('note_on', channel=9, note=57, velocity=127, time=0),
    Message('note_on', channel=9, note=57, velocity=0, time=120),
    Message('note_on', channel=9, note=36, velocity=0, time=0),
    Message('note_on', channel=9, note=42, velocity=127, time=0),
    Message('note_on', channel=9, note=36, velocity=127, time=60),
    Message('note_on', channel=9, note=36, velocity=0, time=60),
    Message('note_on', channel=9, note=42, velocity=0, time=0),
    Message('note_on', channel=9, note=38, velocity=127, time=0),
    Message('note_on', channel=9, note=42, velocity=127, time=0),
    Message('note_on', channel=9, note=42, velocity=0, time=120),
    Message('note_on', channel=9, note=38, velocity=0, time=0),
    Message('note_on', channel=9, note=42, velocity=127, time=0),
    Message('note_on', channel=9, note=36, velocity=127, time=60),
    Message('note_on', channel=9, note=36, velocity=0, time=60),
    Message('note_on', channel=9, note=42, velocity=0, time=0),
    Message('note_on', channel=9, note=42, velocity=127, time=0),
    Message('note_on', channel=9, note=38, velocity=127, time=60),
    Message('note_on', channel=9, note=38, velocity=0, time=60),
    Message('note_on', channel=9, note=42, velocity=0, time=0),
    Message('note_on', channel=9, note=42, velocity=127, time=0),
    Message('note_on', channel=9, note=36, velocity=127, time=60),
    Message('note_on', channel=9, note=36, velocity=0, time=60),
    Message('note_on', channel=9, note=42, velocity=0, time=0),
    Message('note_on', channel=9, note=38, velocity=127, time=0),
    Message('note_on', channel=9, note=42, velocity=127, time=0),
    Message('note_on', channel=9, note=36, velocity=127, time=60),
    Message('note_on', channel=9, note=36, velocity=0, time=60),
    Message('note_on', channel=9, note=42, velocity=0, time=0),
    Message('note_on', channel=9, note=38, velocity=0, time=0),
    Message('note_on', channel=9, note=48, velocity=127, time=0),
    Message('note_on', channel=9, note=50, velocity=127, time=6),
    Message('note_on', channel=9, note=48, velocity=0, time=114),
    Message('note_on', channel=9, note=36, velocity=127, time=0),
    Message('note_on', channel=9, note=42, velocity=127, time=0),
    Message('note_on', channel=9, note=50, velocity=0, time=6),
    Message('note_on', channel=9, note=42, velocity=0, time=54),
    Message('note_on', channel=9, note=42, velocity=127, time=0),
    Message('note_on', channel=9, note=36, velocity=0, time=30),
    Message('note_on', channel=9, note=36, velocity=127, time=0),
    Message('note_on', channel=9, note=36, velocity=0, time=30),
    Message('note_on', channel=9, note=42, velocity=0, time=0),
    Message('note_on', channel=9, note=38, velocity=127, time=0),
    Message('note_on', channel=9, note=42, velocity=127, time=0),
    Message('note_on', channel=9, note=42, velocity=0, time=60),
    Message('note_on', channel=9, note=38, velocity=0, time=0),
    Message('note_on', channel=9, note=36, velocity=127, time=0),
    Message('note_on', channel=9, note=42, velocity=127, time=0),
    Message('note_on', channel=9, note=42, velocity=0, time=60),
    Message('note_on', channel=9, note=36, velocity=0, time=0),
    Message('note_on', channel=9, note=42, velocity=127, time=0),
    Message('note_on', channel=9, note=42, velocity=0, time=60),
    Message('note_on', channel=9, note=36, velocity=127, time=0),
    Message('note_on', channel=9, note=42, velocity=127, time=0),
    Message('note_on', channel=9, note=36, velocity=0, time=30),
    Message('note_on', channel=9, note=36, velocity=127, time=0),
    Message('note_on', channel=9, note=36, velocity=0, time=30),
    Message('note_on', channel=9, note=42, velocity=0, time=0),
    Message('note_on', channel=9, note=38, velocity=127, time=0),
    Message('note_on', channel=9, note=42, velocity=127, time=0),
    Message('note_on', channel=9, note=42, velocity=0, time=60),
    Message('note_on', channel=9, note=38, velocity=0, time=0),
    Message('note_on', channel=9, note=42, velocity=127, time=0),
    Message('note_on', channel=9, note=42, velocity=0, time=60),
    Message('note_on', channel=9, note=42, velocity=127, time=0),
    Message('note_on', channel=9, note=36, velocity=127, time=0),
    Message('note_on', channel=9, note=42, velocity=0, time=60),
    Message('note_on', channel=9, note=42, velocity=127, time=0),
    Message('note_on', channel=9, note=36, velocity=0, time=30),
    Message('note_on', channel=9, note=36, velocity=127, time=0),
    Message('note_on', channel=9, note=36, velocity=0, time=30),
    Message('note_on', channel=9, note=42, velocity=0, time=0),
    Message('note_on', channel=9, note=38, velocity=127, time=0),
    Message('note_on', channel=9, note=42, velocity=127, time=0),
    Message('note_on', channel=9, note=42, velocity=0, time=60),
    Message('note_on', channel=9, note=38, velocity=0, time=0),
    Message('note_on', channel=9, note=36, velocity=127, time=0),
    Message('note_on', channel=9, note=42, velocity=127, time=0),
    Message('note_on', channel=9, note=42, velocity=0, time=60),
    Message('note_on', channel=9, note=36, velocity=0, time=0),
    Message('note_on', channel=9, note=42, velocity=127, time=0),
    Message('note_on', channel=9, note=42, velocity=0, time=60),
    Message('note_on', channel=9, note=36, velocity=127, time=0),
    Message('note_on', channel=9, note=42, velocity=127, time=0),
    Message('note_on', channel=9, note=36, velocity=0, time=30),
    Message('note_on', channel=9, note=36, velocity=127, time=0),
    Message('note_on', channel=9, note=36, velocity=0, time=30),
    Message('note_on', channel=9, note=42, velocity=0, time=0),
    Message('note_on', channel=9, note=57, velocity=127, time=0),
    Message('note_on', channel=9, note=38, velocity=127, time=0),
    Message('note_on', channel=9, note=36, velocity=127, time=60),
    Message('note_on', channel=9, note=36, velocity=0, time=60),
    Message('note_on', channel=9, note=38, velocity=0, time=0),
    Message('note_on', channel=9, note=57, velocity=0, time=0),
    Message('note_on', channel=9, note=36, velocity=127, time=0),
    Message('note_on', channel=9, note=57, velocity=127, time=0),
    Message('note_on', channel=9, note=57, velocity=0, time=120),
    Message('note_on', channel=9, note=36, velocity=0, time=0),
    Message('note_on', channel=9, note=42, velocity=127, time=0),
    Message('note_on', channel=9, note=36, velocity=127, time=60),
    Message('note_on', channel=9, note=36, velocity=0, time=60),
    Message('note_on', channel=9, note=42, velocity=0, time=0),
    Message('note_on', channel=9, note=38, velocity=127, time=0),
    Message('note_on', channel=9, note=42, velocity=127, time=0),
    Message('note_on', channel=9, note=42, velocity=0, time=120),
    Message('note_on', channel=9, note=38, velocity=0, time=0),
    Message('note_on', channel=9, note=42, velocity=127, time=0),
    Message('note_on', channel=9, note=36, velocity=127, time=60),
    Message('note_on', channel=9, note=36, velocity=0, time=60),
    Message('note_on', channel=9, note=42, velocity=0, time=0),
    Message('note_on', channel=9, note=42, velocity=127, time=0),
    Message('note_on', channel=9, note=38, velocity=127, time=60),
    Message('note_on', channel=9, note=38, velocity=0, time=60),
    Message('note_on', channel=9, note=42, velocity=0, time=0),
    Message('note_on', channel=9, note=42, velocity=127, time=0),
    Message('note_on', channel=9, note=36, velocity=127, time=60),
    Message('note_on', channel=9, note=36, velocity=0, time=60),
    Message('note_on', channel=9, note=42, velocity=0, time=0),
    Message('note_on', channel=9, note=38, velocity=127, time=0),
    Message('note_on', channel=9, note=42, velocity=127, time=0),
    Message('note_on', channel=9, note=36, velocity=127, time=60),
    Message('note_on', channel=9, note=36, velocity=0, time=60),
    Message('note_on', channel=9, note=42, velocity=0, time=0),
    Message('note_on', channel=9, note=38, velocity=0, time=0),
    Message('note_on', channel=9, note=48, velocity=127, time=0),
    Message('note_on', channel=9, note=50, velocity=127, time=6),
    Message('note_on', channel=9, note=48, velocity=0, time=114),
    Message('note_on', channel=9, note=36, velocity=127, time=0),
    Message('note_on', channel=9, note=42, velocity=127, time=0),
    Message('note_on', channel=9, note=50, velocity=0, time=6),
    Message('note_on', channel=9, note=42, velocity=0, time=54),
    Message('note_on', channel=9, note=42, velocity=127, time=0),
    Message('note_on', channel=9, note=36, velocity=0, time=30),
    Message('note_on', channel=9, note=36, velocity=127, time=0),
    Message('note_on', channel=9, note=36, velocity=0, time=30),
    Message('note_on', channel=9, note=42, velocity=0, time=0),
    Message('note_on', channel=9, note=38, velocity=127, time=0),
    Message('note_on', channel=9, note=42, velocity=127, time=0),
    Message('note_on', channel=9, note=42, velocity=0, time=60),
    Message('note_on', channel=9, note=38, velocity=0, time=0),
    Message('note_on', channel=9, note=36, velocity=127, time=0),
    Message('note_on', channel=9, note=42, velocity=127, time=0),
    Message('note_on', channel=9, note=42, velocity=0, time=60),
    Message('note_on', channel=9, note=36, velocity=0, time=0),
    Message('note_on', channel=9, note=42, velocity=127, time=0),
    Message('note_on', channel=9, note=42, velocity=0, time=60),
    Message('note_on', channel=9, note=36, velocity=127, time=0),
    Message('note_on', channel=9, note=42, velocity=127, time=0),
    Message('note_on', channel=9, note=36, velocity=0, time=30),
    Message('note_on', channel=9, note=36, velocity=127, time=0),
    Message('note_on', channel=9, note=36, velocity=0, time=30),
    Message('note_on', channel=9, note=42, velocity=0, time=0),
    Message('note_on', channel=9, note=38, velocity=127, time=0),
    Message('note_on', channel=9, note=42, velocity=127, time=0),
    Message('note_on', channel=9, note=42, velocity=0, time=60),
    Message('note_on', channel=9, note=38, velocity=0, time=0),
    Message('note_on', channel=9, note=42, velocity=127, time=0),
    Message('note_on', channel=9, note=42, velocity=0, time=60),
    Message('note_on', channel=9, note=42, velocity=127, time=0),
    Message('note_on', channel=9, note=36, velocity=127, time=0),
    Message('note_on', channel=9, note=42, velocity=0, time=60),
    Message('note_on', channel=9, note=42, velocity=127, time=0),
    Message('note_on', channel=9, note=36, velocity=0, time=30),
    Message('note_on', channel=9, note=36, velocity=127, time=0),
    Message('note_on', channel=9, note=36, velocity=0, time=30),
    Message('note_on', channel=9, note=42, velocity=0, time=0),
    Message('note_on', channel=9, note=38, velocity=127, time=0),
    Message('note_on', channel=9, note=42, velocity=127, time=0),
    Message('note_on', channel=9, note=42, velocity=0, time=60),
    Message('note_on', channel=9, note=38, velocity=0, time=0),
    Message('note_on', channel=9, note=36, velocity=127, time=0),
    Message('note_on', channel=9, note=42, velocity=127, time=0),
    Message('note_on', channel=9, note=42, velocity=0, time=60),
    Message('note_on', channel=9, note=36, velocity=0, time=0),
    Message('note_on', channel=9, note=42, velocity=127, time=0),
    Message('note_on', channel=9, note=42, velocity=0, time=60),
    Message('note_on', channel=9, note=36, velocity=127, time=0),
    Message('note_on', channel=9, note=42, velocity=127, time=0),
    Message('note_on', channel=9, note=36, velocity=0, time=30),
    Message('note_on', channel=9, note=36, velocity=127, time=0),
    Message('note_on', channel=9, note=36, velocity=0, time=30),
    Message('note_on', channel=9, note=42, velocity=0, time=0),
    Message('note_on', channel=9, note=57, velocity=127, time=0),
    Message('note_on', channel=9, note=38, velocity=127, time=0),
    Message('note_on', channel=9, note=36, velocity=127, time=60),
    Message('note_on', channel=9, note=36, velocity=0, time=60),
    Message('note_on', channel=9, note=38, velocity=0, time=0),
    Message('note_on', channel=9, note=57, velocity=0, time=0),
    Message('note_on', channel=9, note=36, velocity=127, time=0),
    Message('note_on', channel=9, note=57, velocity=127, time=0),
    Message('note_on', channel=9, note=57, velocity=0, time=120),
    Message('note_on', channel=9, note=36, velocity=0, time=0),
    Message('note_on', channel=9, note=42, velocity=127, time=0),
    Message('note_on', channel=9, note=36, velocity=127, time=60),
    Message('note_on', channel=9, note=36, velocity=0, time=60),
    Message('note_on', channel=9, note=42, velocity=0, time=0),
    Message('note_on', channel=9, note=38, velocity=127, time=0),
    Message('note_on', channel=9, note=42, velocity=127, time=0),
    Message('note_on', channel=9, note=42, velocity=0, time=120),
    Message('note_on', channel=9, note=38, velocity=0, time=0),
    Message('note_on', channel=9, note=42, velocity=127, time=0),
    Message('note_on', channel=9, note=36, velocity=127, time=60),
    Message('note_on', channel=9, note=36, velocity=0, time=60),
    Message('note_on', channel=9, note=42, velocity=0, time=0),
    Message('note_on', channel=9, note=42, velocity=127, time=0),
    Message('note_on', channel=9, note=38, velocity=127, time=60),
    Message('note_on', channel=9, note=38, velocity=0, time=60),
    Message('note_on', channel=9, note=42, velocity=0, time=0),
    Message('note_on', channel=9, note=42, velocity=127, time=0),
    Message('note_on', channel=9, note=36, velocity=127, time=60),
    Message('note_on', channel=9, note=36, velocity=0, time=60),
    Message('note_on', channel=9, note=42, velocity=0, time=0),
    Message('note_on', channel=9, note=38, velocity=127, time=0),
    Message('note_on', channel=9, note=42, velocity=127, time=0),
    Message('note_on', channel=9, note=36, velocity=127, time=60),
    Message('note_on', channel=9, note=36, velocity=0, time=60),
    Message('note_on', channel=9, note=42, velocity=0, time=0),
    Message('note_on', channel=9, note=38, velocity=0, time=0),
    Message('note_on', channel=9, note=48, velocity=127, time=0),
    Message('note_on', channel=9, note=50, velocity=127, time=6),
    Message('note_on', channel=9, note=48, velocity=0, time=114),
    Message('note_on', channel=9, note=36, velocity=127, time=0),
    Message('note_on', channel=9, note=42, velocity=127, time=0),
    Message('note_on', channel=9, note=50, velocity=0, time=6),
    Message('note_on', channel=9, note=42, velocity=0, time=54),
    Message('note_on', channel=9, note=42, velocity=127, time=0),
    Message('note_on', channel=9, note=36, velocity=0, time=30),
    Message('note_on', channel=9, note=36, velocity=127, time=0),
    Message('note_on', channel=9, note=36, velocity=0, time=30),
    Message('note_on', channel=9, note=42, velocity=0, time=0),
    Message('note_on', channel=9, note=38, velocity=127, time=0),
    Message('note_on', channel=9, note=42, velocity=127, time=0),
    Message('note_on', channel=9, note=42, velocity=0, time=60),
    Message('note_on', channel=9, note=38, velocity=0, time=0),
    Message('note_on', channel=9, note=36, velocity=127, time=0),
    Message('note_on', channel=9, note=42, velocity=127, time=0),
    Message('note_on', channel=9, note=42, velocity=0, time=60),
    Message('note_on', channel=9, note=36, velocity=0, time=0),
    Message('note_on', channel=9, note=42, velocity=127, time=0),
    Message('note_on', channel=9, note=42, velocity=0, time=60),
    Message('note_on', channel=9, note=36, velocity=127, time=0),
    Message('note_on', channel=9, note=42, velocity=127, time=0),
    Message('note_on', channel=9, note=36, velocity=0, time=30),
    Message('note_on', channel=9, note=36, velocity=127, time=0),
    Message('note_on', channel=9, note=36, velocity=0, time=30),
    Message('note_on', channel=9, note=42, velocity=0, time=0),
    Message('note_on', channel=9, note=38, velocity=127, time=0),
    Message('note_on', channel=9, note=42, velocity=127, time=0),
    Message('note_on', channel=9, note=42, velocity=0, time=60),
    Message('note_on', channel=9, note=38, velocity=0, time=0),
    Message('note_on', channel=9, note=42, velocity=127, time=0),
    Message('note_on', channel=9, note=42, velocity=0, time=60),
    Message('note_on', channel=9, note=42, velocity=127, time=0),
    Message('note_on', channel=9, note=36, velocity=127, time=0),
    Message('note_on', channel=9, note=42, velocity=0, time=60),
    Message('note_on', channel=9, note=42, velocity=127, time=0),
    Message('note_on', channel=9, note=36, velocity=0, time=30),
    Message('note_on', channel=9, note=36, velocity=127, time=0),
    Message('note_on', channel=9, note=36, velocity=0, time=30),
    Message('note_on', channel=9, note=42, velocity=0, time=0),
    Message('note_on', channel=9, note=38, velocity=127, time=0),
    Message('note_on', channel=9, note=42, velocity=127, time=0),
    Message('note_on', channel=9, note=42, velocity=0, time=60),
    Message('note_on', channel=9, note=38, velocity=0, time=0),
    Message('note_on', channel=9, note=36, velocity=127, time=0),
    Message('note_on', channel=9, note=42, velocity=127, time=0),
    Message('note_on', channel=9, note=42, velocity=0, time=60),
    Message('note_on', channel=9, note=36, velocity=0, time=0),
    Message('note_on', channel=9, note=42, velocity=127, time=0),
    Message('note_on', channel=9, note=42, velocity=0, time=60),
    Message('note_on', channel=9, note=36, velocity=127, time=0),
    Message('note_on', channel=9, note=42, velocity=127, time=0),
    Message('note_on', channel=9, note=36, velocity=0, time=30),
    Message('note_on', channel=9, note=36, velocity=127, time=0),
    Message('note_on', channel=9, note=36, velocity=0, time=30),
    Message('note_on', channel=9, note=42, velocity=0, time=0),
    Message('note_on', channel=9, note=57, velocity=127, time=0),
    Message('note_on', channel=9, note=38, velocity=127, time=0),
    Message('note_on', channel=9, note=36, velocity=127, time=60),
    Message('note_on', channel=9, note=36, velocity=0, time=60),
    Message('note_on', channel=9, note=38, velocity=0, time=0),
    Message('note_on', channel=9, note=57, velocity=0, time=0),
    Message('note_on', channel=9, note=36, velocity=127, time=0),
    Message('note_on', channel=9, note=57, velocity=127, time=0),
    Message('note_on', channel=9, note=57, velocity=0, time=120),
    Message('note_on', channel=9, note=36, velocity=0, time=0),
    Message('note_on', channel=9, note=42, velocity=127, time=0),
    Message('note_on', channel=9, note=36, velocity=127, time=60),
    Message('note_on', channel=9, note=36, velocity=0, time=60),
    Message('note_on', channel=9, note=42, velocity=0, time=0),
    Message('note_on', channel=9, note=38, velocity=127, time=0),
    Message('note_on', channel=9, note=42, velocity=127, time=0),
    Message('note_on', channel=9, note=42, velocity=0, time=120),
    Message('note_on', channel=9, note=38, velocity=0, time=0),
    Message('note_on', channel=9, note=42, velocity=127, time=0),
    Message('note_on', channel=9, note=36, velocity=127, time=60),
    Message('note_on', channel=9, note=36, velocity=0, time=60),
    Message('note_on', channel=9, note=42, velocity=0, time=0),
    Message('note_on', channel=9, note=42, velocity=127, time=0),
    Message('note_on', channel=9, note=42, velocity=0, time=60),
    Message('note_on', channel=9, note=38, velocity=127, time=0),
    Message('note_on', channel=9, note=38, velocity=0, time=60),
    Message('note_on', channel=9, note=42, velocity=127, time=0),
    Message('note_on', channel=9, note=36, velocity=127, time=60),
    Message('note_on', channel=9, note=36, velocity=0, time=60),
    Message('note_on', channel=9, note=42, velocity=0, time=0),
    Message('note_on', channel=9, note=38, velocity=127, time=0),
    Message('note_on', channel=9, note=42, velocity=127, time=0),
    Message('note_on', channel=9, note=36, velocity=127, time=60),
    Message('note_on', channel=9, note=36, velocity=0, time=60),
    Message('note_on', channel=9, note=42, velocity=0, time=0),
    Message('note_on', channel=9, note=38, velocity=0, time=0),
    Message('note_on', channel=9, note=38, velocity=127, time=0),
    Message('note_on', channel=9, note=42, velocity=127, time=0),
    Message('note_on', channel=9, note=42, velocity=0, time=90),
    Message('note_on', channel=9, note=38, velocity=0, time=0),
    Message('note_on', channel=9, note=38, velocity=127, time=0),
    Message('note_on', channel=9, note=38, velocity=0, time=30),
    Message('note_on', channel=9, note=36, velocity=127, time=0),
    Message('note_on', channel=9, note=57, velocity=127, time=0),
    Message('note_on', channel=9, note=57, velocity=0, time=60),
    Message('note_on', channel=9, note=36, velocity=0, time=0),
    Message('note_on', channel=9, note=42, velocity=127, time=0),
    Message('note_on', channel=9, note=36, velocity=127, time=0),
    Message('note_on', channel=9, note=36, velocity=0, time=60),
    Message('note_on', channel=9, note=42, velocity=0, time=0),
    Message('note_on', channel=9, note=42, velocity=127, time=0),
    Message('note_on', channel=9, note=38, velocity=127, time=0),
    Message('note_on', channel=9, note=38, velocity=0, time=60),
    Message('note_on', channel=9, note=42, velocity=0, time=0),
    Message('note_on', channel=9, note=36, velocity=127, time=0),
    Message('note_on', channel=9, note=42, velocity=127, time=0),
    Message('note_on', channel=9, note=42, velocity=0, time=60),
    Message('note_on', channel=9, note=36, velocity=0, time=0),
    Message('note_on', channel=9, note=38, velocity=127, time=0),
    Message('note_on', channel=9, note=42, velocity=127, time=0),
    Message('note_on', channel=9, note=42, velocity=0, time=60),
    Message('note_on', channel=9, note=38, velocity=0, time=0),
    Message('note_on', channel=9, note=36, velocity=127, time=0),
    Message('note_on', channel=9, note=42, velocity=127, time=0),
    Message('note_on', channel=9, note=42, velocity=0, time=60),
    Message('note_on', channel=9, note=36, velocity=0, time=0),
    Message('note_on', channel=9, note=38, velocity=127, time=0),
    Message('note_on', channel=9, note=42, velocity=127, time=0),
    Message('note_on', channel=9, note=42, velocity=0, time=60),
    Message('note_on', channel=9, note=38, velocity=0, time=0),
    Message('note_on', channel=9, note=36, velocity=127, time=0),
    Message('note_on', channel=9, note=42, velocity=127, time=0),
    Message('note_on', channel=9, note=36, velocity=0, time=30),
    Message('note_on', channel=9, note=36, velocity=127, time=0),
    Message('note_on', channel=9, note=36, velocity=0, time=30),
    Message('note_on', channel=9, note=42, velocity=0, time=0),
    Message('note_on', channel=9, note=36, velocity=127, time=0),
    Message('note_on', channel=9, note=42, velocity=127, time=0),
    Message('note_on', channel=9, note=42, velocity=0, time=60),
    Message('note_on', channel=9, note=36, velocity=0, time=0),
    Message('note_on', channel=9, note=36, velocity=127, time=0),
    Message('note_on', channel=9, note=42, velocity=127, time=0),
    Message('note_on', channel=9, note=42, velocity=0, time=60),
    Message('note_on', channel=9, note=36, velocity=0, time=0),
    Message('note_on', channel=9, note=38, velocity=127, time=0),
    Message('note_on', channel=9, note=42, velocity=127, time=0),
    Message('note_on', channel=9, note=42, velocity=0, time=60),
    Message('note_on', channel=9, note=38, velocity=0, time=0),
    Message('note_on', channel=9, note=36, velocity=127, time=0),
    Message('note_on', channel=9, note=42, velocity=127, time=0),
    Message('note_on', channel=9, note=42, velocity=0, time=60),
    Message('note_on', channel=9, note=36, velocity=0, time=0),
    Message('note_on', channel=9, note=42, velocity=127, time=0),
    Message('note_on', channel=9, note=42, velocity=0, time=60),
    Message('note_on', channel=9, note=36, velocity=127, time=0),
    Message('note_on', channel=9, note=42, velocity=127, time=0),
    Message('note_on', channel=9, note=42, velocity=0, time=60),
    Message('note_on', channel=9, note=36, velocity=0, time=0),
    Message('note_on', channel=9, note=38, velocity=127, time=0),
    Message('note_on', channel=9, note=42, velocity=127, time=0),
    Message('note_on', channel=9, note=42, velocity=0, time=60),
    Message('note_on', channel=9, note=38, velocity=0, time=0),
    Message('note_on', channel=9, note=36, velocity=127, time=0),
    Message('note_on', channel=9, note=42, velocity=127, time=0),
    Message('note_on', channel=9, note=36, velocity=0, time=30),
    Message('note_on', channel=9, note=36, velocity=127, time=0),
    Message('note_on', channel=9, note=36, velocity=0, time=30),
    Message('note_on', channel=9, note=42, velocity=0, time=0),
    Message('note_on', channel=9, note=36, velocity=127, time=0),
    Message('note_on', channel=9, note=42, velocity=127, time=0),
    Message('note_on', channel=9, note=42, velocity=0, time=60),
    Message('note_on', channel=9, note=36, velocity=0, time=0),
    Message('note_on', channel=9, note=36, velocity=127, time=0),
    Message('note_on', channel=9, note=42, velocity=127, time=0),
    Message('note_on', channel=9, note=42, velocity=0, time=60),
    Message('note_on', channel=9, note=36, velocity=0, time=0),
    Message('note_on', channel=9, note=38, velocity=127, time=0),
    Message('note_on', channel=9, note=42, velocity=127, time=0),
    Message('note_on', channel=9, note=42, velocity=0, time=60),
    Message('note_on', channel=9, note=38, velocity=0, time=0),
    Message('note_on', channel=9, note=36, velocity=127, time=0),
    Message('note_on', channel=9, note=42, velocity=127, time=0),
    Message('note_on', channel=9, note=42, velocity=0, time=60),
    Message('note_on', channel=9, note=36, velocity=0, time=0),
    Message('note_on', channel=9, note=42, velocity=127, time=0),
    Message('note_on', channel=9, note=42, velocity=0, time=60),
    Message('note_on', channel=9, note=36, velocity=127, time=0),
    Message('note_on', channel=9, note=42, velocity=127, time=0),
    Message('note_on', channel=9, note=42, velocity=0, time=60),
    Message('note_on', channel=9, note=36, velocity=0, time=0),
    Message('note_on', channel=9, note=38, velocity=127, time=0),
    Message('note_on', channel=9, note=42, velocity=127, time=0),
    Message('note_on', channel=9, note=42, velocity=0, time=60),
    Message('note_on', channel=9, note=38, velocity=0, time=0),
    Message('note_on', channel=9, note=36, velocity=127, time=0),
    Message('note_on', channel=9, note=42, velocity=127, time=0),
    Message('note_on', channel=9, note=36, velocity=0, time=30),
    Message('note_on', channel=9, note=36, velocity=127, time=0),
    Message('note_on', channel=9, note=36, velocity=0, time=30),
    Message('note_on', channel=9, note=42, velocity=0, time=0),
    Message('note_on', channel=9, note=42, velocity=127, time=0),
    Message('note_on', channel=9, note=36, velocity=127, time=0),
    Message('note_on', channel=9, note=36, velocity=0, time=60),
    Message('note_on', channel=9, note=42, velocity=0, time=0),
    Message('note_on', channel=9, note=42, velocity=127, time=0),
    Message('note_on', channel=9, note=36, velocity=127, time=0),
    Message('note_on', channel=9, note=36, velocity=0, time=60),
    Message('note_on', channel=9, note=42, velocity=0, time=0),
    Message('note_on', channel=9, note=38, velocity=127, time=0),
    Message('note_on', channel=9, note=42, velocity=127, time=0),
    Message('note_on', channel=9, note=42, velocity=0, time=60),
    Message('note_on', channel=9, note=38, velocity=0, time=0),
    Message('note_on', channel=9, note=42, velocity=127, time=0),
    Message('note_on', channel=9, note=36, velocity=127, time=0),
    Message('note_on', channel=9, note=36, velocity=0, time=60),
    Message('note_on', channel=9, note=42, velocity=0, time=0),
    Message('note_on', channel=9, note=42, velocity=127, time=0),
    Message('note_on', channel=9, note=42, velocity=0, time=60),
    Message('note_on', channel=9, note=42, velocity=127, time=0),
    Message('note_on', channel=9, note=36, velocity=127, time=0),
    Message('note_on', channel=9, note=36, velocity=0, time=60),
    Message('note_on', channel=9, note=42, velocity=0, time=0),
    Message('note_on', channel=9, note=42, velocity=127, time=0),
    Message('note_on', channel=9, note=38, velocity=127, time=0),
    Message('note_on', channel=9, note=38, velocity=0, time=60),
    Message('note_on', channel=9, note=42, velocity=0, time=0),
    Message('note_on', channel=9, note=36, velocity=127, time=0),
    Message('note_on', channel=9, note=42, velocity=127, time=0),
    Message('note_on', channel=9, note=42, velocity=0, time=60),
    Message('note_on', channel=9, note=36, velocity=0, time=0),
    Message('note_on', channel=9, note=38, velocity=127, time=0),
    Message('note_on', channel=9, note=57, velocity=127, time=0),
    Message('note_on', channel=9, note=36, velocity=127, time=60),
    Message('note_on', channel=9, note=36, velocity=0, time=60),
    Message('note_on', channel=9, note=57, velocity=0, time=0),
    Message('note_on', channel=9, note=38, velocity=0, time=0),
    Message('note_on', channel=9, note=35, velocity=127, time=0),
    Message('note_on', channel=9, note=38, velocity=127, time=0),
    Message('note_on', channel=9, note=57, velocity=127, time=0),
    Message('note_on', channel=9, note=35, velocity=0, time=30),
    Message('note_on', channel=9, note=36, velocity=127, time=0),
    Message('note_on', channel=9, note=36, velocity=0, time=30),
    Message('note_on', channel=9, note=57, velocity=0, time=60),
    Message('note_on', channel=9, note=38, velocity=0, time=0),
    Message('note_on', channel=9, note=36, velocity=127, time=60),
    Message('note_on', channel=9, note=42, velocity=127, time=0),
    Message('note_on', channel=9, note=42, velocity=0, time=60),
    Message('note_on', channel=9, note=36, velocity=0, time=0),
    Message('note_on', channel=9, note=38, velocity=127, time=0),
    Message('note_on', channel=9, note=42, velocity=127, time=0),
    Message('note_on', channel=9, note=42, velocity=0, time=60),
    Message('note_on', channel=9, note=38, velocity=0, time=0),
    Message('note_on', channel=9, note=36, velocity=127, time=0),
    Message('note_on', channel=9, note=42, velocity=127, time=0),
    Message('note_on', channel=9, note=42, velocity=0, time=60),
    Message('note_on', channel=9, note=36, velocity=0, time=0),
    Message('note_on', channel=9, note=38, velocity=127, time=0),
    Message('note_on', channel=9, note=57, velocity=127, time=0),
    Message('note_on', channel=9, note=36, velocity=127, time=60),
    Message('note_on', channel=9, note=36, velocity=0, time=60),
    Message('note_on', channel=9, note=57, velocity=0, time=0),
    Message('note_on', channel=9, note=38, velocity=0, time=0),
    Message('note_on', channel=9, note=35, velocity=127, time=0),
    Message('note_on', channel=9, note=38, velocity=127, time=0),
    Message('note_on', channel=9, note=57, velocity=127, time=0),
    Message('note_on', channel=9, note=35, velocity=0, time=30),
    Message('note_on', channel=9, note=36, velocity=127, time=0),
    Message('note_on', channel=9, note=36, velocity=0, time=30),
    Message('note_on', channel=9, note=57, velocity=0, time=60),
    Message('note_on', channel=9, note=38, velocity=0, time=0),
    Message('note_on', channel=9, note=36, velocity=127, time=60),
    Message('note_on', channel=9, note=42, velocity=127, time=0),
    Message('note_on', channel=9, note=42, velocity=0, time=60),
    Message('note_on', channel=9, note=36, velocity=0, time=0),
    Message('note_on', channel=9, note=38, velocity=127, time=0),
    Message('note_on', channel=9, note=42, velocity=127, time=0),
    Message('note_on', channel=9, note=42, velocity=0, time=60),
    Message('note_on', channel=9, note=38, velocity=0, time=0),
    Message('note_on', channel=9, note=36, velocity=127, time=0),
    Message('note_on', channel=9, note=42, velocity=127, time=0),
    Message('note_on', channel=9, note=42, velocity=0, time=60),
    Message('note_on', channel=9, note=36, velocity=0, time=0),
    Message('note_on', channel=9, note=36, velocity=127, time=0),
    Message('note_on', channel=9, note=57, velocity=127, time=0),
    Message('note_on', channel=9, note=57, velocity=0, time=60),
    Message('note_on', channel=9, note=42, velocity=127, time=0),
    Message('note_on', channel=9, note=42, velocity=0, time=60),
    Message('note_on', channel=9, note=36, velocity=0, time=0),
    Message('note_on', channel=9, note=38, velocity=127, time=0),
    Message('note_on', channel=9, note=42, velocity=127, time=0),
    Message('note_on', channel=9, note=42, velocity=0, time=60),
    Message('note_on', channel=9, note=38, velocity=0, time=0),
    Message('note_on', channel=9, note=36, velocity=127, time=0),
    Message('note_on', channel=9, note=42, velocity=127, time=0),
    Message('note_on', channel=9, note=42, velocity=0, time=60),
    Message('note_on', channel=9, note=36, velocity=0, time=0),
    Message('note_on', channel=9, note=42, velocity=127, time=0),
    Message('note_on', channel=9, note=42, velocity=0, time=60),
    Message('note_on', channel=9, note=36, velocity=127, time=0),
    Message('note_on', channel=9, note=42, velocity=127, time=0),
    Message('note_on', channel=9, note=42, velocity=0, time=60),
    Message('note_on', channel=9, note=36, velocity=0, time=0),
    Message('note_on', channel=9, note=38, velocity=127, time=0),
    Message('note_on', channel=9, note=42, velocity=127, time=0),
    Message('note_on', channel=9, note=42, velocity=0, time=60),
    Message('note_on', channel=9, note=38, velocity=0, time=0),
    Message('note_on', channel=9, note=36, velocity=127, time=0),
    Message('note_on', channel=9, note=42, velocity=127, time=0),
    Message('note_on', channel=9, note=42, velocity=0, time=60),
    Message('note_on', channel=9, note=36, velocity=0, time=0),
    Message('note_on', channel=9, note=36, velocity=127, time=0),
    Message('note_on', channel=9, note=42, velocity=127, time=0),
    Message('note_on', channel=9, note=42, velocity=0, time=60),
    Message('note_on', channel=9, note=42, velocity=127, time=0),
    Message('note_on', channel=9, note=36, velocity=0, time=30),
    Message('note_on', channel=9, note=36, velocity=127, time=0),
    Message('note_on', channel=9, note=36, velocity=0, time=30),
    Message('note_on', channel=9, note=42, velocity=0, time=0),
    Message('note_on', channel=9, note=38, velocity=127, time=0),
    Message('note_on', channel=9, note=42, velocity=127, time=0),
    Message('note_on', channel=9, note=42, velocity=0, time=60),
    Message('note_on', channel=9, note=38, velocity=0, time=0),
    Message('note_on', channel=9, note=36, velocity=127, time=0),
    Message('note_on', channel=9, note=42, velocity=127, time=0),
    Message('note_on', channel=9, note=42, velocity=0, time=60),
    Message('note_on', channel=9, note=36, velocity=0, time=0),
    Message('note_on', channel=9, note=42, velocity=127, time=0),
    Message('note_on', channel=9, note=42, velocity=0, time=60),
    Message('note_on', channel=9, note=36, velocity=127, time=0),
    Message('note_on', channel=9, note=42, velocity=127, time=0),
    Message('note_on', channel=9, note=42, velocity=0, time=60),
    Message('note_on', channel=9, note=36, velocity=0, time=0),
    Message('note_on', channel=9, note=38, velocity=127, time=0),
    Message('note_on', channel=9, note=42, velocity=127, time=0),
    Message('note_on', channel=9, note=42, velocity=0, time=60),
    Message('note_on', channel=9, note=38, velocity=0, time=0),
    Message('note_on', channel=9, note=36, velocity=127, time=0),
    Message('note_on', channel=9, note=42, velocity=127, time=0),
    Message('note_on', channel=9, note=36, velocity=0, time=30),
    Message('note_on', channel=9, note=36, velocity=127, time=0),
    Message('note_on', channel=9, note=36, velocity=0, time=30),
    Message('note_on', channel=9, note=42, velocity=0, time=0),
    Message('note_on', channel=9, note=36, velocity=127, time=0),
    Message('note_on', channel=9, note=57, velocity=127, time=0),
    Message('note_on', channel=9, note=57, velocity=0, time=60),
    Message('note_on', channel=9, note=36, velocity=0, time=0),
    Message('note_on', channel=9, note=42, velocity=127, time=0),
    Message('note_on', channel=9, note=36, velocity=127, time=0),
    Message('note_on', channel=9, note=36, velocity=0, time=60),
    Message('note_on', channel=9, note=42, velocity=0, time=0),
    Message('note_on', channel=9, note=42, velocity=127, time=0),
    Message('note_on', channel=9, note=38, velocity=127, time=0),
    Message('note_on', channel=9, note=38, velocity=0, time=60),
    Message('note_on', channel=9, note=42, velocity=0, time=0),
    Message('note_on', channel=9, note=36, velocity=127, time=0),
    Message('note_on', channel=9, note=42, velocity=127, time=0),
    Message('note_on', channel=9, note=42, velocity=0, time=60),
    Message('note_on', channel=9, note=36, velocity=0, time=0),
    Message('note_on', channel=9, note=38, velocity=127, time=0),
    Message('note_on', channel=9, note=42, velocity=127, time=0),
    Message('note_on', channel=9, note=42, velocity=0, time=60),
    Message('note_on', channel=9, note=38, velocity=0, time=0),
    Message('note_on', channel=9, note=36, velocity=127, time=0),
    Message('note_on', channel=9, note=42, velocity=127, time=0),
    Message('note_on', channel=9, note=42, velocity=0, time=60),
    Message('note_on', channel=9, note=36, velocity=0, time=0),
    Message('note_on', channel=9, note=38, velocity=127, time=0),
    Message('note_on', channel=9, note=42, velocity=127, time=0),
    Message('note_on', channel=9, note=42, velocity=0, time=60),
    Message('note_on', channel=9, note=38, velocity=0, time=0),
    Message('note_on', channel=9, note=36, velocity=127, time=0),
    Message('note_on', channel=9, note=42, velocity=127, time=0),
    Message('note_on', channel=9, note=36, velocity=0, time=30),
    Message('note_on', channel=9, note=36, velocity=127, time=0),
    Message('note_on', channel=9, note=36, velocity=0, time=30),
    Message('note_on', channel=9, note=42, velocity=0, time=0),
    Message('note_on', channel=9, note=36, velocity=127, time=0),
    Message('note_on', channel=9, note=42, velocity=127, time=0),
    Message('note_on', channel=9, note=42, velocity=0, time=60),
    Message('note_on', channel=9, note=36, velocity=0, time=0),
    Message('note_on', channel=9, note=36, velocity=127, time=0),
    Message('note_on', channel=9, note=42, velocity=127, time=0),
    Message('note_on', channel=9, note=42, velocity=0, time=60),
    Message('note_on', channel=9, note=36, velocity=0, time=0),
    Message('note_on', channel=9, note=38, velocity=127, time=0),
    Message('note_on', channel=9, note=42, velocity=127, time=0),
    Message('note_on', channel=9, note=42, velocity=0, time=60),
    Message('note_on', channel=9, note=38, velocity=0, time=0),
    Message('note_on', channel=9, note=36, velocity=127, time=0),
    Message('note_on', channel=9, note=42, velocity=127, time=0),
    Message('note_on', channel=9, note=42, velocity=0, time=60),
    Message('note_on', channel=9, note=36, velocity=0, time=0),
    Message('note_on', channel=9, note=42, velocity=127, time=0),
    Message('note_on', channel=9, note=42, velocity=0, time=60),
    Message('note_on', channel=9, note=36, velocity=127, time=0),
    Message('note_on', channel=9, note=42, velocity=127, time=0),
    Message('note_on', channel=9, note=42, velocity=0, time=60),
    Message('note_on', channel=9, note=36, velocity=0, time=0),
    Message('note_on', channel=9, note=38, velocity=127, time=0),
    Message('note_on', channel=9, note=42, velocity=127, time=0),
    Message('note_on', channel=9, note=42, velocity=0, time=60),
    Message('note_on', channel=9, note=38, velocity=0, time=0),
    Message('note_on', channel=9, note=36, velocity=127, time=0),
    Message('note_on', channel=9, note=42, velocity=127, time=0),
    Message('note_on', channel=9, note=36, velocity=0, time=30),
    Message('note_on', channel=9, note=36, velocity=127, time=0),
    Message('note_on', channel=9, note=36, velocity=0, time=30),
    Message('note_on', channel=9, note=42, velocity=0, time=0),
    Message('note_on', channel=9, note=36, velocity=127, time=0),
    Message('note_on', channel=9, note=42, velocity=127, time=0),
    Message('note_on', channel=9, note=42, velocity=0, time=60),
    Message('note_on', channel=9, note=36, velocity=0, time=0),
    Message('note_on', channel=9, note=36, velocity=127, time=0),
    Message('note_on', channel=9, note=42, velocity=127, time=0),
    Message('note_on', channel=9, note=42, velocity=0, time=60),
    Message('note_on', channel=9, note=36, velocity=0, time=0),
    Message('note_on', channel=9, note=38, velocity=127, time=0),
    Message('note_on', channel=9, note=42, velocity=127, time=0),
    Message('note_on', channel=9, note=42, velocity=0, time=60),
    Message('note_on', channel=9, note=38, velocity=0, time=0),
    Message('note_on', channel=9, note=36, velocity=127, time=0),
    Message('note_on', channel=9, note=42, velocity=127, time=0),
    Message('note_on', channel=9, note=42, velocity=0, time=60),
    Message('note_on', channel=9, note=36, velocity=0, time=0),
    Message('note_on', channel=9, note=42, velocity=127, time=0),
    Message('note_on', channel=9, note=42, velocity=0, time=60),
    Message('note_on', channel=9, note=36, velocity=127, time=0),
    Message('note_on', channel=9, note=42, velocity=127, time=0),
    Message('note_on', channel=9, note=42, velocity=0, time=60),
    Message('note_on', channel=9, note=36, velocity=0, time=0),
    Message('note_on', channel=9, note=38, velocity=127, time=0),
    Message('note_on', channel=9, note=42, velocity=127, time=0),
    Message('note_on', channel=9, note=42, velocity=0, time=60),
    Message('note_on', channel=9, note=38, velocity=0, time=0),
    Message('note_on', channel=9, note=36, velocity=127, time=0),
    Message('note_on', channel=9, note=42, velocity=127, time=0),
    Message('note_on', channel=9, note=36, velocity=0, time=30),
    Message('note_on', channel=9, note=36, velocity=127, time=0),
    Message('note_on', channel=9, note=36, velocity=0, time=30),
    Message('note_on', channel=9, note=42, velocity=0, time=0),
    Message('note_on', channel=9, note=42, velocity=127, time=0),
    Message('note_on', channel=9, note=36, velocity=127, time=0),
    Message('note_on', channel=9, note=36, velocity=0, time=60),
    Message('note_on', channel=9, note=42, velocity=0, time=0),
    Message('note_on', channel=9, note=42, velocity=127, time=0),
    Message('note_on', channel=9, note=36, velocity=127, time=0),
    Message('note_on', channel=9, note=36, velocity=0, time=60),
    Message('note_on', channel=9, note=42, velocity=0, time=0),
    Message('note_on', channel=9, note=38, velocity=127, time=0),
    Message('note_on', channel=9, note=42, velocity=127, time=0),
    Message('note_on', channel=9, note=42, velocity=0, time=60),
    Message('note_on', channel=9, note=38, velocity=0, time=0),
    Message('note_on', channel=9, note=42, velocity=127, time=0),
    Message('note_on', channel=9, note=36, velocity=127, time=0),
    Message('note_on', channel=9, note=36, velocity=0, time=60),
    Message('note_on', channel=9, note=42, velocity=0, time=0),
    Message('note_on', channel=9, note=42, velocity=127, time=0),
    Message('note_on', channel=9, note=42, velocity=0, time=60),
    Message('note_on', channel=9, note=42, velocity=127, time=0),
    Message('note_on', channel=9, note=36, velocity=127, time=0),
    Message('note_on', channel=9, note=36, velocity=0, time=60),
    Message('note_on', channel=9, note=42, velocity=0, time=0),
    Message('note_on', channel=9, note=42, velocity=127, time=0),
    Message('note_on', channel=9, note=38, velocity=127, time=0),
    Message('note_on', channel=9, note=38, velocity=0, time=60),
    Message('note_on', channel=9, note=42, velocity=0, time=0),
    Message('note_on', channel=9, note=36, velocity=127, time=0),
    Message('note_on', channel=9, note=42, velocity=127, time=0),
    Message('note_on', channel=9, note=42, velocity=0, time=60),
    Message('note_on', channel=9, note=36, velocity=0, time=0),
    Message('note_on', channel=9, note=38, velocity=127, time=0),
    Message('note_on', channel=9, note=57, velocity=127, time=0),
    Message('note_on', channel=9, note=36, velocity=127, time=60),
    Message('note_on', channel=9, note=36, velocity=0, time=60),
    Message('note_on', channel=9, note=57, velocity=0, time=0),
    Message('note_on', channel=9, note=38, velocity=0, time=0),
    Message('note_on', channel=9, note=35, velocity=127, time=0),
    Message('note_on', channel=9, note=38, velocity=127, time=0),
    Message('note_on', channel=9, note=57, velocity=127, time=0),
    Message('note_on', channel=9, note=35, velocity=0, time=30),
    Message('note_on', channel=9, note=36, velocity=127, time=0),
    Message('note_on', channel=9, note=36, velocity=0, time=30),
    Message('note_on', channel=9, note=57, velocity=0, time=60),
    Message('note_on', channel=9, note=38, velocity=0, time=0),
    Message('note_on', channel=9, note=36, velocity=127, time=60),
    Message('note_on', channel=9, note=42, velocity=127, time=0),
    Message('note_on', channel=9, note=42, velocity=0, time=60),
    Message('note_on', channel=9, note=36, velocity=0, time=0),
    Message('note_on', channel=9, note=38, velocity=127, time=0),
    Message('note_on', channel=9, note=42, velocity=127, time=0),
    Message('note_on', channel=9, note=42, velocity=0, time=60),
    Message('note_on', channel=9, note=38, velocity=0, time=0),
    Message('note_on', channel=9, note=36, velocity=127, time=0),
    Message('note_on', channel=9, note=42, velocity=127, time=0),
    Message('note_on', channel=9, note=42, velocity=0, time=60),
    Message('note_on', channel=9, note=36, velocity=0, time=0),
    Message('note_on', channel=9, note=38, velocity=127, time=0),
    Message('note_on', channel=9, note=57, velocity=127, time=0),
    Message('note_on', channel=9, note=36, velocity=127, time=60),
    Message('note_on', channel=9, note=36, velocity=0, time=60),
    Message('note_on', channel=9, note=57, velocity=0, time=0),
    Message('note_on', channel=9, note=38, velocity=0, time=0),
    Message('note_on', channel=9, note=35, velocity=127, time=0),
    Message('note_on', channel=9, note=38, velocity=127, time=0),
    Message('note_on', channel=9, note=57, velocity=127, time=0),
    Message('note_on', channel=9, note=35, velocity=0, time=30),
    Message('note_on', channel=9, note=36, velocity=127, time=0),
    Message('note_on', channel=9, note=36, velocity=0, time=30),
    Message('note_on', channel=9, note=57, velocity=0, time=60),
    Message('note_on', channel=9, note=38, velocity=0, time=0),
    Message('note_on', channel=9, note=36, velocity=127, time=60),
    Message('note_on', channel=9, note=42, velocity=127, time=0),
    Message('note_on', channel=9, note=42, velocity=0, time=60),
    Message('note_on', channel=9, note=36, velocity=0, time=0),
    Message('note_on', channel=9, note=38, velocity=127, time=0),
    Message('note_on', channel=9, note=42, velocity=127, time=0),
    Message('note_on', channel=9, note=42, velocity=0, time=60),
    Message('note_on', channel=9, note=38, velocity=0, time=0),
    Message('note_on', channel=9, note=36, velocity=127, time=0),
    Message('note_on', channel=9, note=42, velocity=127, time=0),
    Message('note_on', channel=9, note=42, velocity=0, time=60),
    Message('note_on', channel=9, note=36, velocity=0, time=0),
    Message('note_on', channel=9, note=36, velocity=127, time=0),
    Message('note_on', channel=9, note=57, velocity=127, time=0),
    Message('note_on', channel=9, note=57, velocity=0, time=60),
    Message('note_on', channel=9, note=42, velocity=127, time=0),
    Message('note_on', channel=9, note=42, velocity=0, time=60),
    Message('note_on', channel=9, note=36, velocity=0, time=0),
    Message('note_on', channel=9, note=38, velocity=127, time=0),
    Message('note_on', channel=9, note=42, velocity=127, time=0),
    Message('note_on', channel=9, note=42, velocity=0, time=60),
    Message('note_on', channel=9, note=38, velocity=0, time=0),
    Message('note_on', channel=9, note=36, velocity=127, time=0),
    Message('note_on', channel=9, note=42, velocity=127, time=0),
    Message('note_on', channel=9, note=42, velocity=0, time=60),
    Message('note_on', channel=9, note=36, velocity=0, time=0),
    Message('note_on', channel=9, note=42, velocity=127, time=0),
    Message('note_on', channel=9, note=42, velocity=0, time=60),
    Message('note_on', channel=9, note=36, velocity=127, time=0),
    Message('note_on', channel=9, note=42, velocity=127, time=0),
    Message('note_on', channel=9, note=42, velocity=0, time=60),
    Message('note_on', channel=9, note=36, velocity=0, time=0),
    Message('note_on', channel=9, note=38, velocity=127, time=0),
    Message('note_on', channel=9, note=42, velocity=127, time=0),
    Message('note_on', channel=9, note=42, velocity=0, time=60),
    Message('note_on', channel=9, note=38, velocity=0, time=0),
    Message('note_on', channel=9, note=36, velocity=127, time=0),
    Message('note_on', channel=9, note=42, velocity=127, time=0),
    Message('note_on', channel=9, note=42, velocity=0, time=60),
    Message('note_on', channel=9, note=36, velocity=0, time=0),
    Message('note_on', channel=9, note=36, velocity=127, time=0),
    Message('note_on', channel=9, note=42, velocity=127, time=0),
    Message('note_on', channel=9, note=42, velocity=0, time=60),
    Message('note_on', channel=9, note=42, velocity=127, time=0),
    Message('note_on', channel=9, note=36, velocity=0, time=30),
    Message('note_on', channel=9, note=36, velocity=127, time=0),
    Message('note_on', channel=9, note=36, velocity=0, time=30),
    Message('note_on', channel=9, note=42, velocity=0, time=0),
    Message('note_on', channel=9, note=38, velocity=127, time=0),
    Message('note_on', channel=9, note=42, velocity=127, time=0),
    Message('note_on', channel=9, note=42, velocity=0, time=60),
    Message('note_on', channel=9, note=38, velocity=0, time=0),
    Message('note_on', channel=9, note=36, velocity=127, time=0),
    Message('note_on', channel=9, note=42, velocity=127, time=0),
    Message('note_on', channel=9, note=42, velocity=0, time=60),
    Message('note_on', channel=9, note=36, velocity=0, time=0),
    Message('note_on', channel=9, note=42, velocity=127, time=0),
    Message('note_on', channel=9, note=42, velocity=0, time=60),
    Message('note_on', channel=9, note=36, velocity=127, time=0),
    Message('note_on', channel=9, note=42, velocity=127, time=0),
    Message('note_on', channel=9, note=42, velocity=0, time=60),
    Message('note_on', channel=9, note=36, velocity=0, time=0),
    Message('note_on', channel=9, note=38, velocity=127, time=0),
    Message('note_on', channel=9, note=42, velocity=127, time=0),
    Message('note_on', channel=9, note=42, velocity=0, time=60),
    Message('note_on', channel=9, note=38, velocity=0, time=0),
    Message('note_on', channel=9, note=36, velocity=127, time=0),
    Message('note_on', channel=9, note=42, velocity=127, time=0),
    Message('note_on', channel=9, note=36, velocity=0, time=30),
    Message('note_on', channel=9, note=36, velocity=127, time=0),
    Message('note_on', channel=9, note=36, velocity=0, time=30),
    Message('note_on', channel=9, note=42, velocity=0, time=0),
    Message('note_on', channel=9, note=36, velocity=127, time=0),
    Message('note_on', channel=9, note=57, velocity=127, time=0),
    Message('note_on', channel=9, note=57, velocity=0, time=60),
    Message('note_on', channel=9, note=36, velocity=0, time=0),
    Message('note_on', channel=9, note=42, velocity=127, time=0),
    Message('note_on', channel=9, note=36, velocity=127, time=0),
    Message('note_on', channel=9, note=36, velocity=0, time=60),
    Message('note_on', channel=9, note=42, velocity=0, time=0),
    Message('note_on', channel=9, note=42, velocity=127, time=0),
    Message('note_on', channel=9, note=38, velocity=127, time=0),
    Message('note_on', channel=9, note=38, velocity=0, time=60),
    Message('note_on', channel=9, note=42, velocity=0, time=0),
    Message('note_on', channel=9, note=36, velocity=127, time=0),
    Message('note_on', channel=9, note=42, velocity=127, time=0),
    Message('note_on', channel=9, note=42, velocity=0, time=60),
    Message('note_on', channel=9, note=36, velocity=0, time=0),
    Message('note_on', channel=9, note=38, velocity=127, time=0),
    Message('note_on', channel=9, note=42, velocity=127, time=0),
    Message('note_on', channel=9, note=42, velocity=0, time=60),
    Message('note_on', channel=9, note=38, velocity=0, time=0),
    Message('note_on', channel=9, note=36, velocity=127, time=0),
    Message('note_on', channel=9, note=42, velocity=127, time=0),
    Message('note_on', channel=9, note=42, velocity=0, time=60),
    Message('note_on', channel=9, note=36, velocity=0, time=0),
    Message('note_on', channel=9, note=38, velocity=127, time=0),
    Message('note_on', channel=9, note=42, velocity=127, time=0),
    Message('note_on', channel=9, note=42, velocity=0, time=60),
    Message('note_on', channel=9, note=38, velocity=0, time=0),
    Message('note_on', channel=9, note=36, velocity=127, time=0),
    Message('note_on', channel=9, note=42, velocity=127, time=0),
    Message('note_on', channel=9, note=36, velocity=0, time=30),
    Message('note_on', channel=9, note=36, velocity=127, time=0),
    Message('note_on', channel=9, note=36, velocity=0, time=30),
    Message('note_on', channel=9, note=42, velocity=0, time=0),
    Message('note_on', channel=9, note=36, velocity=127, time=0),
    Message('note_on', channel=9, note=42, velocity=127, time=0),
    Message('note_on', channel=9, note=42, velocity=0, time=60),
    Message('note_on', channel=9, note=36, velocity=0, time=0),
    Message('note_on', channel=9, note=36, velocity=127, time=0),
    Message('note_on', channel=9, note=42, velocity=127, time=0),
    Message('note_on', channel=9, note=42, velocity=0, time=60),
    Message('note_on', channel=9, note=36, velocity=0, time=0),
    Message('note_on', channel=9, note=38, velocity=127, time=0),
    Message('note_on', channel=9, note=42, velocity=127, time=0),
    Message('note_on', channel=9, note=42, velocity=0, time=60),
    Message('note_on', channel=9, note=38, velocity=0, time=0),
    Message('note_on', channel=9, note=36, velocity=127, time=0),
    Message('note_on', channel=9, note=42, velocity=127, time=0),
    Message('note_on', channel=9, note=42, velocity=0, time=60),
    Message('note_on', channel=9, note=36, velocity=0, time=0),
    Message('note_on', channel=9, note=42, velocity=127, time=0),
    Message('note_on', channel=9, note=42, velocity=0, time=60),
    Message('note_on', channel=9, note=36, velocity=127, time=0),
    Message('note_on', channel=9, note=42, velocity=127, time=0),
    Message('note_on', channel=9, note=42, velocity=0, time=60),
    Message('note_on', channel=9, note=36, velocity=0, time=0),
    Message('note_on', channel=9, note=38, velocity=127, time=0),
    Message('note_on', channel=9, note=42, velocity=127, time=0),
    Message('note_on', channel=9, note=42, velocity=0, time=60),
    Message('note_on', channel=9, note=38, velocity=0, time=0),
    Message('note_on', channel=9, note=36, velocity=127, time=0),
    Message('note_on', channel=9, note=42, velocity=127, time=0),
    Message('note_on', channel=9, note=36, velocity=0, time=30),
    Message('note_on', channel=9, note=36, velocity=127, time=0),
    Message('note_on', channel=9, note=36, velocity=0, time=30),
    Message('note_on', channel=9, note=42, velocity=0, time=0),
    Message('note_on', channel=9, note=36, velocity=127, time=0),
    Message('note_on', channel=9, note=42, velocity=127, time=0),
    Message('note_on', channel=9, note=42, velocity=0, time=60),
    Message('note_on', channel=9, note=36, velocity=0, time=0),
    Message('note_on', channel=9, note=36, velocity=127, time=0),
    Message('note_on', channel=9, note=42, velocity=127, time=0),
    Message('note_on', channel=9, note=42, velocity=0, time=60),
    Message('note_on', channel=9, note=36, velocity=0, time=0),
    Message('note_on', channel=9, note=38, velocity=127, time=0),
    Message('note_on', channel=9, note=42, velocity=127, time=0),
    Message('note_on', channel=9, note=42, velocity=0, time=60),
    Message('note_on', channel=9, note=38, velocity=0, time=0),
    Message('note_on', channel=9, note=36, velocity=127, time=0),
    Message('note_on', channel=9, note=42, velocity=127, time=0),
    Message('note_on', channel=9, note=42, velocity=0, time=60),
    Message('note_on', channel=9, note=36, velocity=0, time=0),
    Message('note_on', channel=9, note=42, velocity=127, time=0),
    Message('note_on', channel=9, note=42, velocity=0, time=60),
    Message('note_on', channel=9, note=36, velocity=127, time=0),
    Message('note_on', channel=9, note=42, velocity=127, time=0),
    Message('note_on', channel=9, note=42, velocity=0, time=60),
    Message('note_on', channel=9, note=36, velocity=0, time=0),
    Message('note_on', channel=9, note=38, velocity=127, time=0),
    Message('note_on', channel=9, note=42, velocity=127, time=0),
    Message('note_on', channel=9, note=42, velocity=0, time=60),
    Message('note_on', channel=9, note=38, velocity=0, time=0),
    Message('note_on', channel=9, note=36, velocity=127, time=0),
    Message('note_on', channel=9, note=42, velocity=127, time=0),
    Message('note_on', channel=9, note=36, velocity=0, time=30),
    Message('note_on', channel=9, note=36, velocity=127, time=0),
    Message('note_on', channel=9, note=36, velocity=0, time=30),
    Message('note_on', channel=9, note=42, velocity=0, time=0),
    Message('note_on', channel=9, note=42, velocity=127, time=0),
    Message('note_on', channel=9, note=36, velocity=127, time=0),
    Message('note_on', channel=9, note=36, velocity=0, time=60),
    Message('note_on', channel=9, note=42, velocity=0, time=0),
    Message('note_on', channel=9, note=42, velocity=127, time=0),
    Message('note_on', channel=9, note=36, velocity=127, time=0),
    Message('note_on', channel=9, note=36, velocity=0, time=60),
    Message('note_on', channel=9, note=42, velocity=0, time=0),
    Message('note_on', channel=9, note=38, velocity=127, time=0),
    Message('note_on', channel=9, note=42, velocity=127, time=0),
    Message('note_on', channel=9, note=42, velocity=0, time=60),
    Message('note_on', channel=9, note=38, velocity=0, time=0),
    Message('note_on', channel=9, note=42, velocity=127, time=0),
    Message('note_on', channel=9, note=36, velocity=127, time=0),
    Message('note_on', channel=9, note=36, velocity=0, time=60),
    Message('note_on', channel=9, note=42, velocity=0, time=0),
    Message('note_on', channel=9, note=42, velocity=127, time=0),
    Message('note_on', channel=9, note=42, velocity=0, time=60),
    Message('note_on', channel=9, note=42, velocity=127, time=0),
    Message('note_on', channel=9, note=36, velocity=127, time=0),
    Message('note_on', channel=9, note=36, velocity=0, time=60),
    Message('note_on', channel=9, note=42, velocity=0, time=0),
    Message('note_on', channel=9, note=42, velocity=127, time=0),
    Message('note_on', channel=9, note=38, velocity=127, time=0),
    Message('note_on', channel=9, note=38, velocity=0, time=60),
    Message('note_on', channel=9, note=42, velocity=0, time=0),
    Message('note_on', channel=9, note=36, velocity=127, time=0),
    Message('note_on', channel=9, note=42, velocity=127, time=0),
    Message('note_on', channel=9, note=42, velocity=0, time=60),
    Message('note_on', channel=9, note=36, velocity=0, time=0),
    Message('note_on', channel=9, note=38, velocity=127, time=0),
    Message('note_on', channel=9, note=57, velocity=127, time=0),
    Message('note_on', channel=9, note=36, velocity=127, time=60),
    Message('note_on', channel=9, note=36, velocity=0, time=60),
    Message('note_on', channel=9, note=57, velocity=0, time=0),
    Message('note_on', channel=9, note=38, velocity=0, time=0),
    Message('note_on', channel=9, note=35, velocity=127, time=0),
    Message('note_on', channel=9, note=38, velocity=127, time=0),
    Message('note_on', channel=9, note=57, velocity=127, time=0),
    Message('note_on', channel=9, note=35, velocity=0, time=30),
    Message('note_on', channel=9, note=36, velocity=127, time=0),
    Message('note_on', channel=9, note=36, velocity=0, time=30),
    Message('note_on', channel=9, note=57, velocity=0, time=60),
    Message('note_on', channel=9, note=38, velocity=0, time=0),
    Message('note_on', channel=9, note=36, velocity=127, time=60),
    Message('note_on', channel=9, note=42, velocity=127, time=0),
    Message('note_on', channel=9, note=42, velocity=0, time=60),
    Message('note_on', channel=9, note=36, velocity=0, time=0),
    Message('note_on', channel=9, note=38, velocity=127, time=0),
    Message('note_on', channel=9, note=42, velocity=127, time=0),
    Message('note_on', channel=9, note=42, velocity=0, time=60),
    Message('note_on', channel=9, note=38, velocity=0, time=0),
    Message('note_on', channel=9, note=36, velocity=127, time=0),
    Message('note_on', channel=9, note=42, velocity=127, time=0),
    Message('note_on', channel=9, note=42, velocity=0, time=60),
    Message('note_on', channel=9, note=36, velocity=0, time=0),
    Message('note_on', channel=9, note=38, velocity=127, time=0),
    Message('note_on', channel=9, note=57, velocity=127, time=0),
    Message('note_on', channel=9, note=36, velocity=127, time=60),
    Message('note_on', channel=9, note=36, velocity=0, time=60),
    Message('note_on', channel=9, note=57, velocity=0, time=0),
    Message('note_on', channel=9, note=38, velocity=0, time=0),
    Message('note_on', channel=9, note=35, velocity=127, time=0),
    Message('note_on', channel=9, note=38, velocity=127, time=0),
    Message('note_on', channel=9, note=57, velocity=127, time=0),
    Message('note_on', channel=9, note=35, velocity=0, time=30),
    Message('note_on', channel=9, note=36, velocity=127, time=0),
    Message('note_on', channel=9, note=36, velocity=0, time=30),
    Message('note_on', channel=9, note=57, velocity=0, time=60),
    Message('note_on', channel=9, note=38, velocity=0, time=0),
    Message('note_on', channel=9, note=36, velocity=127, time=60),
    Message('note_on', channel=9, note=42, velocity=127, time=0),
    Message('note_on', channel=9, note=42, velocity=0, time=60),
    Message('note_on', channel=9, note=36, velocity=0, time=0),
    Message('note_on', channel=9, note=38, velocity=127, time=0),
    Message('note_on', channel=9, note=42, velocity=127, time=0),
    Message('note_on', channel=9, note=42, velocity=0, time=60),
    Message('note_on', channel=9, note=38, velocity=0, time=0),
    Message('note_on', channel=9, note=36, velocity=127, time=0),
    Message('note_on', channel=9, note=42, velocity=127, time=0),
    Message('note_on', channel=9, note=42, velocity=0, time=60),
    Message('note_on', channel=9, note=36, velocity=0, time=0),
    Message('note_on', channel=9, note=36, velocity=127, time=0),
    Message('note_on', channel=9, note=57, velocity=127, time=0),
    Message('note_on', channel=9, note=57, velocity=0, time=60),
    Message('note_on', channel=9, note=42, velocity=127, time=0),
    Message('note_on', channel=9, note=42, velocity=0, time=60),
    Message('note_on', channel=9, note=36, velocity=0, time=0),
    Message('note_on', channel=9, note=38, velocity=127, time=0),
    Message('note_on', channel=9, note=42, velocity=127, time=0),
    Message('note_on', channel=9, note=42, velocity=0, time=60),
    Message('note_on', channel=9, note=38, velocity=0, time=0),
    Message('note_on', channel=9, note=36, velocity=127, time=0),
    Message('note_on', channel=9, note=42, velocity=127, time=0),
    Message('note_on', channel=9, note=42, velocity=0, time=60),
    Message('note_on', channel=9, note=36, velocity=0, time=0),
    Message('note_on', channel=9, note=42, velocity=127, time=0),
    Message('note_on', channel=9, note=42, velocity=0, time=60),
    Message('note_on', channel=9, note=36, velocity=127, time=0),
    Message('note_on', channel=9, note=42, velocity=127, time=0),
    Message('note_on', channel=9, note=42, velocity=0, time=60),
    Message('note_on', channel=9, note=36, velocity=0, time=0),
    Message('note_on', channel=9, note=38, velocity=127, time=0),
    Message('note_on', channel=9, note=42, velocity=127, time=0),
    Message('note_on', channel=9, note=42, velocity=0, time=60),
    Message('note_on', channel=9, note=38, velocity=0, time=0),
    Message('note_on', channel=9, note=36, velocity=127, time=0),
    Message('note_on', channel=9, note=42, velocity=127, time=0),
    Message('note_on', channel=9, note=42, velocity=0, time=60),
    Message('note_on', channel=9, note=36, velocity=0, time=0),
    Message('note_on', channel=9, note=36, velocity=127, time=0),
    Message('note_on', channel=9, note=42, velocity=127, time=0),
    Message('note_on', channel=9, note=42, velocity=0, time=60),
    Message('note_on', channel=9, note=42, velocity=127, time=0),
    Message('note_on', channel=9, note=36, velocity=0, time=30),
    Message('note_on', channel=9, note=36, velocity=127, time=0),
    Message('note_on', channel=9, note=36, velocity=0, time=30),
    Message('note_on', channel=9, note=42, velocity=0, time=0),
    Message('note_on', channel=9, note=38, velocity=127, time=0),
    Message('note_on', channel=9, note=42, velocity=127, time=0),
    Message('note_on', channel=9, note=42, velocity=0, time=60),
    Message('note_on', channel=9, note=38, velocity=0, time=0),
    Message('note_on', channel=9, note=36, velocity=127, time=0),
    Message('note_on', channel=9, note=42, velocity=127, time=0),
    Message('note_on', channel=9, note=42, velocity=0, time=60),
    Message('note_on', channel=9, note=36, velocity=0, time=0),
    Message('note_on', channel=9, note=42, velocity=127, time=0),
    Message('note_on', channel=9, note=42, velocity=0, time=60),
    Message('note_on', channel=9, note=36, velocity=127, time=0),
    Message('note_on', channel=9, note=42, velocity=127, time=0),
    Message('note_on', channel=9, note=42, velocity=0, time=60),
    Message('note_on', channel=9, note=36, velocity=0, time=0),
    Message('note_on', channel=9, note=38, velocity=127, time=0),
    Message('note_on', channel=9, note=42, velocity=127, time=0),
    Message('note_on', channel=9, note=42, velocity=0, time=60),
    Message('note_on', channel=9, note=38, velocity=0, time=0),
    Message('note_on', channel=9, note=36, velocity=127, time=0),
    Message('note_on', channel=9, note=42, velocity=127, time=0),
    Message('note_on', channel=9, note=36, velocity=0, time=30),
    Message('note_on', channel=9, note=36, velocity=127, time=0),
    Message('note_on', channel=9, note=36, velocity=0, time=30),
    Message('note_on', channel=9, note=42, velocity=0, time=0),
    Message('note_on', channel=9, note=36, velocity=127, time=0),
    Message('note_on', channel=9, note=57, velocity=127, time=0),
    Message('note_on', channel=9, note=57, velocity=0, time=60),
    Message('note_on', channel=9, note=36, velocity=0, time=0),
    Message('note_on', channel=9, note=42, velocity=127, time=0),
    Message('note_on', channel=9, note=36, velocity=127, time=0),
    Message('note_on', channel=9, note=36, velocity=0, time=60),
    Message('note_on', channel=9, note=42, velocity=0, time=0),
    Message('note_on', channel=9, note=42, velocity=127, time=0),
    Message('note_on', channel=9, note=38, velocity=127, time=0),
    Message('note_on', channel=9, note=38, velocity=0, time=60),
    Message('note_on', channel=9, note=42, velocity=0, time=0),
    Message('note_on', channel=9, note=36, velocity=127, time=0),
    Message('note_on', channel=9, note=42, velocity=127, time=0),
    Message('note_on', channel=9, note=42, velocity=0, time=60),
    Message('note_on', channel=9, note=36, velocity=0, time=0),
    Message('note_on', channel=9, note=38, velocity=127, time=0),
    Message('note_on', channel=9, note=42, velocity=127, time=0),
    Message('note_on', channel=9, note=42, velocity=0, time=60),
    Message('note_on', channel=9, note=38, velocity=0, time=0),
    Message('note_on', channel=9, note=36, velocity=127, time=0),
    Message('note_on', channel=9, note=42, velocity=127, time=0),
    Message('note_on', channel=9, note=42, velocity=0, time=60),
    Message('note_on', channel=9, note=36, velocity=0, time=0),
    Message('note_on', channel=9, note=38, velocity=127, time=0),
    Message('note_on', channel=9, note=42, velocity=127, time=0),
    Message('note_on', channel=9, note=42, velocity=0, time=60),
    Message('note_on', channel=9, note=38, velocity=0, time=0),
    Message('note_on', channel=9, note=36, velocity=127, time=0),
    Message('note_on', channel=9, note=42, velocity=127, time=0),
    Message('note_on', channel=9, note=36, velocity=0, time=30),
    Message('note_on', channel=9, note=36, velocity=127, time=0),
    Message('note_on', channel=9, note=36, velocity=0, time=30),
    Message('note_on', channel=9, note=42, velocity=0, time=0),
    Message('note_on', channel=9, note=36, velocity=127, time=0),
    Message('note_on', channel=9, note=42, velocity=127, time=0),
    Message('note_on', channel=9, note=42, velocity=0, time=60),
    Message('note_on', channel=9, note=36, velocity=0, time=0),
    Message('note_on', channel=9, note=36, velocity=127, time=0),
    Message('note_on', channel=9, note=42, velocity=127, time=0),
    Message('note_on', channel=9, note=42, velocity=0, time=60),
    Message('note_on', channel=9, note=36, velocity=0, time=0),
    Message('note_on', channel=9, note=38, velocity=127, time=0),
    Message('note_on', channel=9, note=42, velocity=127, time=0),
    Message('note_on', channel=9, note=42, velocity=0, time=60),
    Message('note_on', channel=9, note=38, velocity=0, time=0),
    Message('note_on', channel=9, note=36, velocity=127, time=0),
    Message('note_on', channel=9, note=42, velocity=127, time=0),
    Message('note_on', channel=9, note=42, velocity=0, time=60),
    Message('note_on', channel=9, note=36, velocity=0, time=0),
    Message('note_on', channel=9, note=42, velocity=127, time=0),
    Message('note_on', channel=9, note=42, velocity=0, time=60),
    Message('note_on', channel=9, note=36, velocity=127, time=0),
    Message('note_on', channel=9, note=42, velocity=127, time=0),
    Message('note_on', channel=9, note=42, velocity=0, time=60),
    Message('note_on', channel=9, note=36, velocity=0, time=0),
    Message('note_on', channel=9, note=38, velocity=127, time=0),
    Message('note_on', channel=9, note=42, velocity=127, time=0),
    Message('note_on', channel=9, note=42, velocity=0, time=60),
    Message('note_on', channel=9, note=38, velocity=0, time=0),
    Message('note_on', channel=9, note=36, velocity=127, time=0),
    Message('note_on', channel=9, note=42, velocity=127, time=0),
    Message('note_on', channel=9, note=36, velocity=0, time=30),
    Message('note_on', channel=9, note=36, velocity=127, time=0),
    Message('note_on', channel=9, note=36, velocity=0, time=30),
    Message('note_on', channel=9, note=42, velocity=0, time=0),
    Message('note_on', channel=9, note=36, velocity=127, time=0),
    Message('note_on', channel=9, note=42, velocity=127, time=0),
    Message('note_on', channel=9, note=42, velocity=0, time=60),
    Message('note_on', channel=9, note=36, velocity=0, time=0),
    Message('note_on', channel=9, note=36, velocity=127, time=0),
    Message('note_on', channel=9, note=42, velocity=127, time=0),
    Message('note_on', channel=9, note=42, velocity=0, time=60),
    Message('note_on', channel=9, note=36, velocity=0, time=0),
    Message('note_on', channel=9, note=38, velocity=127, time=0),
    Message('note_on', channel=9, note=42, velocity=127, time=0),
    Message('note_on', channel=9, note=42, velocity=0, time=60),
    Message('note_on', channel=9, note=38, velocity=0, time=0),
    Message('note_on', channel=9, note=36, velocity=127, time=0),
    Message('note_on', channel=9, note=42, velocity=127, time=0),
    Message('note_on', channel=9, note=42, velocity=0, time=60),
    Message('note_on', channel=9, note=36, velocity=0, time=0),
    Message('note_on', channel=9, note=42, velocity=127, time=0),
    Message('note_on', channel=9, note=42, velocity=0, time=60),
    Message('note_on', channel=9, note=36, velocity=127, time=0),
    Message('note_on', channel=9, note=42, velocity=127, time=0),
    Message('note_on', channel=9, note=42, velocity=0, time=60),
    Message('note_on', channel=9, note=36, velocity=0, time=0),
    Message('note_on', channel=9, note=38, velocity=127, time=0),
    Message('note_on', channel=9, note=42, velocity=127, time=0),
    Message('note_on', channel=9, note=42, velocity=0, time=60),
    Message('note_on', channel=9, note=38, velocity=0, time=0),
    Message('note_on', channel=9, note=36, velocity=127, time=0),
    Message('note_on', channel=9, note=42, velocity=127, time=0),
    Message('note_on', channel=9, note=36, velocity=0, time=30),
    Message('note_on', channel=9, note=36, velocity=127, time=0),
    Message('note_on', channel=9, note=36, velocity=0, time=30),
    Message('note_on', channel=9, note=42, velocity=0, time=0),
    Message('note_on', channel=9, note=42, velocity=127, time=0),
    Message('note_on', channel=9, note=36, velocity=127, time=0),
    Message('note_on', channel=9, note=36, velocity=0, time=60),
    Message('note_on', channel=9, note=42, velocity=0, time=0),
    Message('note_on', channel=9, note=42, velocity=127, time=0),
    Message('note_on', channel=9, note=36, velocity=127, time=0),
    Message('note_on', channel=9, note=36, velocity=0, time=60),
    Message('note_on', channel=9, note=42, velocity=0, time=0),
    Message('note_on', channel=9, note=38, velocity=127, time=0),
    Message('note_on', channel=9, note=42, velocity=127, time=0),
    Message('note_on', channel=9, note=42, velocity=0, time=60),
    Message('note_on', channel=9, note=38, velocity=0, time=0),
    Message('note_on', channel=9, note=42, velocity=127, time=0),
    Message('note_on', channel=9, note=36, velocity=127, time=0),
    Message('note_on', channel=9, note=36, velocity=0, time=60),
    Message('note_on', channel=9, note=42, velocity=0, time=0),
    Message('note_on', channel=9, note=42, velocity=127, time=0),
    Message('note_on', channel=9, note=42, velocity=0, time=60),
    Message('note_on', channel=9, note=42, velocity=127, time=0),
    Message('note_on', channel=9, note=36, velocity=127, time=0),
    Message('note_on', channel=9, note=36, velocity=0, time=60),
    Message('note_on', channel=9, note=42, velocity=0, time=0),
    Message('note_on', channel=9, note=42, velocity=127, time=0),
    Message('note_on', channel=9, note=38, velocity=127, time=0),
    Message('note_on', channel=9, note=38, velocity=0, time=60),
    Message('note_on', channel=9, note=42, velocity=0, time=0),
    Message('note_on', channel=9, note=36, velocity=127, time=0),
    Message('note_on', channel=9, note=42, velocity=127, time=0),
    Message('note_on', channel=9, note=42, velocity=0, time=60),
    Message('note_on', channel=9, note=36, velocity=0, time=0),
    Message('note_on', channel=9, note=38, velocity=127, time=0),
    Message('note_on', channel=9, note=57, velocity=127, time=0),
    Message('note_on', channel=9, note=36, velocity=127, time=60),
    Message('note_on', channel=9, note=36, velocity=0, time=60),
    Message('note_on', channel=9, note=57, velocity=0, time=0),
    Message('note_on', channel=9, note=38, velocity=0, time=0),
    Message('note_on', channel=9, note=35, velocity=127, time=0),
    Message('note_on', channel=9, note=38, velocity=127, time=0),
    Message('note_on', channel=9, note=57, velocity=127, time=0),
    Message('note_on', channel=9, note=35, velocity=0, time=30),
    Message('note_on', channel=9, note=36, velocity=127, time=0),
    Message('note_on', channel=9, note=36, velocity=0, time=30),
    Message('note_on', channel=9, note=57, velocity=0, time=60),
    Message('note_on', channel=9, note=38, velocity=0, time=0),
    Message('note_on', channel=9, note=36, velocity=127, time=60),
    Message('note_on', channel=9, note=42, velocity=127, time=0),
    Message('note_on', channel=9, note=42, velocity=0, time=60),
    Message('note_on', channel=9, note=36, velocity=0, time=0),
    Message('note_on', channel=9, note=38, velocity=127, time=0),
    Message('note_on', channel=9, note=42, velocity=127, time=0),
    Message('note_on', channel=9, note=42, velocity=0, time=60),
    Message('note_on', channel=9, note=38, velocity=0, time=0),
    Message('note_on', channel=9, note=36, velocity=127, time=0),
    Message('note_on', channel=9, note=42, velocity=127, time=0),
    Message('note_on', channel=9, note=42, velocity=0, time=60),
    Message('note_on', channel=9, note=36, velocity=0, time=0),
    Message('note_on', channel=9, note=38, velocity=127, time=0),
    Message('note_on', channel=9, note=57, velocity=127, time=0),
    Message('note_on', channel=9, note=36, velocity=127, time=60),
    Message('note_on', channel=9, note=36, velocity=0, time=60),
    Message('note_on', channel=9, note=57, velocity=0, time=0),
    Message('note_on', channel=9, note=38, velocity=0, time=0),
    Message('note_on', channel=9, note=35, velocity=127, time=0),
    Message('note_on', channel=9, note=38, velocity=127, time=0),
    Message('note_on', channel=9, note=57, velocity=127, time=0),
    Message('note_on', channel=9, note=35, velocity=0, time=30),
    Message('note_on', channel=9, note=36, velocity=127, time=0),
    Message('note_on', channel=9, note=36, velocity=0, time=30),
    Message('note_on', channel=9, note=57, velocity=0, time=60),
    Message('note_on', channel=9, note=38, velocity=0, time=0),
    Message('note_on', channel=9, note=36, velocity=127, time=60),
    Message('note_on', channel=9, note=42, velocity=127, time=0),
    Message('note_on', channel=9, note=42, velocity=0, time=60),
    Message('note_on', channel=9, note=36, velocity=0, time=0),
    Message('note_on', channel=9, note=38, velocity=127, time=0),
    Message('note_on', channel=9, note=42, velocity=127, time=0),
    Message('note_on', channel=9, note=42, velocity=0, time=60),
    Message('note_on', channel=9, note=38, velocity=0, time=0),
    Message('note_on', channel=9, note=36, velocity=127, time=0),
    Message('note_on', channel=9, note=42, velocity=127, time=0),
    Message('note_on', channel=9, note=42, velocity=0, time=60),
    Message('note_on', channel=9, note=36, velocity=0, time=0),
    Message('note_on', channel=9, note=36, velocity=127, time=0),
    Message('note_on', channel=9, note=57, velocity=127, time=0),
    Message('note_on', channel=9, note=57, velocity=0, time=60),
    Message('note_on', channel=9, note=42, velocity=127, time=0),
    Message('note_on', channel=9, note=42, velocity=0, time=60),
    Message('note_on', channel=9, note=36, velocity=0, time=0),
    Message('note_on', channel=9, note=38, velocity=127, time=0),
    Message('note_on', channel=9, note=42, velocity=127, time=0),
    Message('note_on', channel=9, note=42, velocity=0, time=60),
    Message('note_on', channel=9, note=38, velocity=0, time=0),
    Message('note_on', channel=9, note=36, velocity=127, time=0),
    Message('note_on', channel=9, note=42, velocity=127, time=0),
    Message('note_on', channel=9, note=42, velocity=0, time=60),
    Message('note_on', channel=9, note=36, velocity=0, time=0),
    Message('note_on', channel=9, note=42, velocity=127, time=0),
    Message('note_on', channel=9, note=42, velocity=0, time=60),
    Message('note_on', channel=9, note=36, velocity=127, time=0),
    Message('note_on', channel=9, note=42, velocity=127, time=0),
    Message('note_on', channel=9, note=42, velocity=0, time=60),
    Message('note_on', channel=9, note=36, velocity=0, time=0),
    Message('note_on', channel=9, note=38, velocity=127, time=0),
    Message('note_on', channel=9, note=42, velocity=127, time=0),
    Message('note_on', channel=9, note=42, velocity=0, time=60),
    Message('note_on', channel=9, note=38, velocity=0, time=0),
    Message('note_on', channel=9, note=36, velocity=127, time=0),
    Message('note_on', channel=9, note=42, velocity=127, time=0),
    Message('note_on', channel=9, note=42, velocity=0, time=60),
    Message('note_on', channel=9, note=36, velocity=0, time=0),
    Message('note_on', channel=9, note=36, velocity=127, time=0),
    Message('note_on', channel=9, note=42, velocity=127, time=0),
    Message('note_on', channel=9, note=42, velocity=0, time=60),
    Message('note_on', channel=9, note=42, velocity=127, time=0),
    Message('note_on', channel=9, note=36, velocity=0, time=30),
    Message('note_on', channel=9, note=36, velocity=127, time=0),
    Message('note_on', channel=9, note=36, velocity=0, time=30),
    Message('note_on', channel=9, note=42, velocity=0, time=0),
    Message('note_on', channel=9, note=38, velocity=127, time=0),
    Message('note_on', channel=9, note=42, velocity=127, time=0),
    Message('note_on', channel=9, note=42, velocity=0, time=60),
    Message('note_on', channel=9, note=38, velocity=0, time=0),
    Message('note_on', channel=9, note=36, velocity=127, time=0),
    Message('note_on', channel=9, note=42, velocity=127, time=0),
    Message('note_on', channel=9, note=42, velocity=0, time=60),
    Message('note_on', channel=9, note=36, velocity=0, time=0),
    Message('note_on', channel=9, note=42, velocity=127, time=0),
    Message('note_on', channel=9, note=42, velocity=0, time=60),
    Message('note_on', channel=9, note=36, velocity=127, time=0),
    Message('note_on', channel=9, note=42, velocity=127, time=0),
    Message('note_on', channel=9, note=42, velocity=0, time=60),
    Message('note_on', channel=9, note=36, velocity=0, time=0),
    Message('note_on', channel=9, note=38, velocity=127, time=0),
    Message('note_on', channel=9, note=42, velocity=127, time=0),
    Message('note_on', channel=9, note=42, velocity=0, time=60),
    Message('note_on', channel=9, note=38, velocity=0, time=0),
    Message('note_on', channel=9, note=42, velocity=127, time=0),
    Message('note_on', channel=9, note=38, velocity=127, time=0),
    Message('note_on', channel=9, note=38, velocity=0, time=30),
    Message('note_on', channel=9, note=38, velocity=127, time=0),
    Message('note_on', channel=9, note=38, velocity=0, time=30),
    Message('note_on', channel=9, note=42, velocity=0, time=0),
    Message('note_on', channel=9, note=38, velocity=127, time=0),
    Message('note_on', channel=9, note=38, velocity=0, time=60),
    Message('note_on', channel=9, note=50, velocity=127, time=0),
    Message('note_on', channel=9, note=50, velocity=0, time=30),
    Message('note_on', channel=9, note=50, velocity=127, time=0),
    Message('note_on', channel=9, note=50, velocity=0, time=30),
    Message('note_on', channel=9, note=50, velocity=127, time=0),
    Message('note_on', channel=9, note=50, velocity=0, time=60),
    Message('note_on', channel=9, note=48, velocity=127, time=0),
    Message('note_on', channel=9, note=48, velocity=0, time=30),
    Message('note_on', channel=9, note=48, velocity=127, time=0),
    Message('note_on', channel=9, note=48, velocity=0, time=30),
    Message('note_on', channel=9, note=48, velocity=127, time=0),
    Message('note_on', channel=9, note=48, velocity=0, time=60),
    Message('note_on', channel=9, note=47, velocity=127, time=0),
    Message('note_on', channel=9, note=47, velocity=0, time=30),
    Message('note_on', channel=9, note=47, velocity=127, time=0),
    Message('note_on', channel=9, note=47, velocity=0, time=30),
    Message('note_on', channel=9, note=47, velocity=127, time=0),
    Message('note_on', channel=9, note=47, velocity=0, time=60),
    Message('note_on', channel=9, note=45, velocity=127, time=0),
    Message('note_on', channel=9, note=45, velocity=0, time=30),
    Message('note_on', channel=9, note=45, velocity=127, time=0),
    Message('note_on', channel=9, note=45, velocity=0, time=30),
    Message('note_on', channel=9, note=36, velocity=127, time=0),
    Message('note_on', channel=9, note=57, velocity=127, time=0),
    Message('note_on', channel=9, note=57, velocity=0, time=120),
    Message('note_on', channel=9, note=36, velocity=0, time=0),
    Message('note_on', channel=9, note=71, velocity=127, time=360),
    Message('note_on', channel=9, note=71, velocity=0, time=30),
    Message('note_on', channel=9, note=71, velocity=127, time=0),
    Message('note_on', channel=9, note=71, velocity=0, time=30),
    Message('note_on', channel=9, note=71, velocity=127, time=0),
    Message('note_on', channel=9, note=71, velocity=0, time=30),
    Message('note_on', channel=9, note=71, velocity=127, time=0),
    Message('note_on', channel=9, note=71, velocity=0, time=30),
    Message('note_on', channel=9, note=71, velocity=127, time=0),
    Message('note_on', channel=9, note=71, velocity=0, time=30),
    Message('note_on', channel=9, note=71, velocity=127, time=0),
    Message('note_on', channel=9, note=71, velocity=0, time=30),
    Message('note_on', channel=9, note=71, velocity=127, time=0),
    Message('note_on', channel=9, note=71, velocity=0, time=30),
    Message('note_on', channel=9, note=71, velocity=127, time=0),
    Message('note_on', channel=9, note=71, velocity=0, time=30),
    Message('note_on', channel=9, note=71, velocity=127, time=0),
    Message('note_on', channel=9, note=71, velocity=0, time=30),
    Message('note_on', channel=9, note=71, velocity=127, time=0),
    Message('note_on', channel=9, note=71, velocity=0, time=30),
    Message('note_on', channel=9, note=71, velocity=127, time=0),
    Message('note_on', channel=9, note=71, velocity=0, time=30),
    Message('note_on', channel=9, note=71, velocity=127, time=0),
    Message('note_on', channel=9, note=71, velocity=0, time=30),
    Message('control_change', channel=9, control=10, value=2, time=0),
    Message('note_on', channel=9, note=71, velocity=127, time=0),
    Message('control_change', channel=9, control=10, value=6, time=20),
    Message('note_on', channel=9, note=71, velocity=0, time=10),
    Message('control_change', channel=9, control=10, value=15, time=0),
    Message('note_on', channel=9, note=71, velocity=127, time=0),
    Message('control_change', channel=9, control=10, value=21, time=20),
    Message('note_on', channel=9, note=71, velocity=0, time=10),
    Message('note_on', channel=9, note=71, velocity=127, time=0),
    Message('control_change', channel=9, control=10, value=26, time=25),
    Message('note_on', channel=9, note=71, velocity=0, time=5),
    Message('control_change', channel=9, control=10, value=27, time=0),
    Message('note_on', channel=9, note=71, velocity=127, time=0),
    Message('control_change', channel=9, control=10, value=42, time=20),
    Message('note_on', channel=9, note=71, velocity=0, time=10),
    Message('note_on', channel=9, note=71, velocity=127, time=0),
    Message('control_change', channel=9, control=10, value=47, time=5),
    Message('control_change', channel=9, control=10, value=73, time=20),
    Message('note_on', channel=9, note=71, velocity=0, time=5),
    Message('note_on', channel=9, note=71, velocity=127, time=0),
    Message('control_change', channel=9, control=10, value=78, time=10),
    Message('control_change', channel=9, control=10, value=84, time=15),
    Message('note_on', channel=9, note=71, velocity=0, time=5),
    Message('note_on', channel=9, note=71, velocity=127, time=0),
    Message('control_change', channel=9, control=10, value=87, time=10),
    Message('control_change', channel=9, control=10, value=89, time=5),
    Message('note_on', channel=9, note=71, velocity=0, time=15),
    Message('note_on', channel=9, note=71, velocity=127, time=0),
    Message('note_on', channel=9, note=71, velocity=0, time=30),
    Message('control_change', channel=9, control=10, value=90, time=0),
    Message('note_on', channel=9, note=71, velocity=127, time=0),
    Message('control_change', channel=9, control=10, value=92, time=5),
    Message('control_change', channel=9, control=10, value=94, time=15),
    Message('control_change', channel=9, control=10, value=97, time=5),
    Message('note_on', channel=9, note=71, velocity=0, time=5),
    Message('note_on', channel=9, note=71, velocity=127, time=0),
    Message('control_change', channel=9, control=10, value=103, time=15),
    Message('control_change', channel=9, control=10, value=108, time=10),
    Message('note_on', channel=9, note=71, velocity=0, time=5),
    Message('note_on', channel=9, note=71, velocity=127, time=0),
    Message('control_change', channel=9, control=10, value=113, time=10),
    Message('control_change', channel=9, control=10, value=116, time=5),
    Message('note_on', channel=9, note=71, velocity=0, time=15),
    Message('note_on', channel=9, note=71, velocity=127, time=0),
    Message('control_change', channel=9, control=10, value=118, time=5),
    Message('control_change', channel=9, control=10, value=122, time=5),
    Message('control_change', channel=9, control=10, value=124, time=15),
    Message('note_on', channel=9, note=71, velocity=0, time=5),
    Message('note_on', channel=9, note=71, velocity=127, time=0),
    Message('control_change', channel=9, control=10, value=127, time=15),
    Message('note_on', channel=9, note=71, velocity=0, time=15),
    Message('note_on', channel=9, note=71, velocity=127, time=0),
    Message('note_on', channel=9, note=71, velocity=0, time=30),
    Message('note_on', channel=9, note=71, velocity=127, time=0),
    Message('note_on', channel=9, note=71, velocity=0, time=30),
    Message('note_on', channel=9, note=71, velocity=127, time=0),
    Message('note_on', channel=9, note=71, velocity=0, time=30),
    Message('note_on', channel=9, note=71, velocity=127, time=0),
    Message('note_on', channel=9, note=71, velocity=0, time=30),
    Message('note_on', channel=9, note=71, velocity=127, time=0),
    Message('note_on', channel=9, note=71, velocity=0, time=30),
    Message('note_on', channel=9, note=71, velocity=127, time=0),
    Message('control_change', channel=9, control=10, value=123, time=25),
    Message('note_on', channel=9, note=71, velocity=0, time=5),
    Message('control_change', channel=9, control=10, value=118, time=0),
    Message('note_on', channel=9, note=71, velocity=127, time=0),
    Message('control_change', channel=9, control=10, value=115, time=15),
    Message('control_change', channel=9, control=10, value=112, time=5),
    Message('note_on', channel=9, note=71, velocity=0, time=10),
    Message('note_on', channel=9, note=71, velocity=127, time=0),
    Message('control_change', channel=9, control=10, value=109, time=5),
    Message('note_on', channel=9, note=71, velocity=0, time=25),
    Message('note_on', channel=9, note=71, velocity=127, time=0),
    Message('note_on', channel=9, note=71, velocity=0, time=30),
    Message('note_on', channel=9, note=71, velocity=127, time=0),
    Message('control_change', channel=9, control=10, value=93, time=10),
    Message('control_change', channel=9, control=10, value=90, time=5),
    Message('note_on', channel=9, note=71, velocity=0, time=15),
    Message('note_on', channel=9, note=71, velocity=127, time=0),
    Message('note_on', channel=9, note=71, velocity=0, time=30),
    Message('note_on', channel=9, note=71, velocity=127, time=0),
    Message('control_change', channel=9, control=10, value=79, time=25),
    Message('note_on', channel=9, note=71, velocity=0, time=5),
    Message('control_change', channel=9, control=10, value=78, time=0),
    Message('note_on', channel=9, note=71, velocity=127, time=0),
    Message('control_change', channel=9, control=10, value=75, time=15),
    Message('note_on', channel=9, note=71, velocity=0, time=15),
    Message('control_change', channel=9, control=10, value=74, time=0),
    Message('note_on', channel=9, note=71, velocity=127, time=0),
    Message('control_change', channel=9, control=10, value=72, time=5),
    Message('note_on', channel=9, note=71, velocity=0, time=25),
    Message('control_change', channel=9, control=10, value=70, time=0),
    Message('note_on', channel=9, note=71, velocity=127, time=0),
    Message('note_on', channel=9, note=71, velocity=0, time=30),
    Message('note_on', channel=9, note=71, velocity=127, time=0),
    Message('note_on', channel=9, note=71, velocity=0, time=30),
    Message('note_on', channel=9, note=71, velocity=127, time=0),
    Message('note_on', channel=9, note=71, velocity=0, time=30),
    Message('note_on', channel=9, note=71, velocity=127, time=0),
    Message('note_on', channel=9, note=71, velocity=0, time=30),
    Message('note_on', channel=9, note=71, velocity=127, time=0),
    Message('note_on', channel=9, note=71, velocity=0, time=30),
    Message('note_on', channel=9, note=71, velocity=127, time=0),
    Message('control_change', channel=9, control=10, value=67, time=15),
    Message('note_on', channel=9, note=71, velocity=0, time=15),
    Message('note_on', channel=9, note=71, velocity=127, time=0),
    Message('note_on', channel=9, note=71, velocity=0, time=30),
    Message('note_on', channel=9, note=71, velocity=127, time=0),
    Message('note_on', channel=9, note=71, velocity=0, time=30),
    Message('note_on', channel=9, note=71, velocity=127, time=0),
    Message('note_on', channel=9, note=71, velocity=0, time=30),
    Message('note_on', channel=9, note=71, velocity=127, time=0),
    Message('note_on', channel=9, note=71, velocity=0, time=30),
    Message('note_on', channel=9, note=71, velocity=127, time=0),
    Message('note_on', channel=9, note=71, velocity=0, time=30),
    Message('note_on', channel=9, note=71, velocity=127, time=0),
    Message('note_on', channel=9, note=71, velocity=0, time=30),
    Message('note_on', channel=9, note=71, velocity=127, time=0),
    Message('note_on', channel=9, note=71, velocity=0, time=30),
    Message('note_on', channel=9, note=71, velocity=127, time=0),
    Message('note_on', channel=9, note=71, velocity=0, time=30),
    Message('note_on', channel=9, note=71, velocity=127, time=0),
    Message('note_on', channel=9, note=71, velocity=0, time=30),
    Message('note_on', channel=9, note=71, velocity=127, time=0),
    Message('note_on', channel=9, note=71, velocity=0, time=30),
    Message('note_on', channel=9, note=71, velocity=127, time=0),
    Message('note_on', channel=9, note=71, velocity=0, time=30),
    Message('note_on', channel=9, note=71, velocity=127, time=0),
    Message('note_on', channel=9, note=71, velocity=0, time=30),
    Message('note_on', channel=9, note=71, velocity=127, time=0),
    Message('note_on', channel=9, note=71, velocity=0, time=30),
    Message('note_on', channel=9, note=71, velocity=127, time=0),
    Message('control_change', channel=9, control=7, value=127, time=25),
    Message('control_change', channel=9, control=10, value=65, time=0),
    Message('note_on', channel=9, note=71, velocity=0, time=5),
    Message('note_on', channel=9, note=71, velocity=127, time=0),
    Message('note_on', channel=9, note=71, velocity=0, time=30),
    Message('note_on', channel=9, note=71, velocity=127, time=0),
    Message('note_on', channel=9, note=71, velocity=0, time=30),
    Message('note_on', channel=9, note=71, velocity=127, time=0),
    Message('note_on', channel=9, note=71, velocity=0, time=30),
    Message('note_on', channel=9, note=71, velocity=127, time=0),
    Message('note_on', channel=9, note=71, velocity=0, time=30),
    Message('note_on', channel=9, note=71, velocity=127, time=0),
    Message('note_on', channel=9, note=71, velocity=0, time=30),
    Message('note_on', channel=9, note=47, velocity=127, time=480),
    Message('note_on', channel=9, note=48, velocity=127, time=0),
    Message('note_on', channel=9, note=48, velocity=0, time=60),
    Message('note_on', channel=9, note=47, velocity=0, time=0),
    Message('note_on', channel=9, note=47, velocity=127, time=0),
    Message('note_on', channel=9, note=48, velocity=127, time=0),
    Message('note_on', channel=9, note=48, velocity=0, time=60),
    Message('note_on', channel=9, note=47, velocity=0, time=0),
    Message('note_on', channel=9, note=36, velocity=127, time=0),
    Message('note_on', channel=9, note=48, velocity=127, time=60),
    Message('note_on', channel=9, note=47, velocity=127, time=0),
    Message('note_on', channel=9, note=47, velocity=0, time=60),
    Message('note_on', channel=9, note=48, velocity=0, time=0),
    Message('note_on', channel=9, note=36, velocity=0, time=0),
    Message('note_on', channel=9, note=36, velocity=127, time=0),
    Message('note_on', channel=9, note=48, velocity=127, time=60),
    Message('note_on', channel=9, note=47, velocity=127, time=0),
    Message('note_on', channel=9, note=47, velocity=0, time=60),
    Message('note_on', channel=9, note=48, velocity=0, time=0),
    Message('note_on', channel=9, note=36, velocity=0, time=0),
    Message('note_on', channel=9, note=48, velocity=127, time=0),
    Message('note_on', channel=9, note=47, velocity=127, time=0),
    Message('note_on', channel=9, note=47, velocity=0, time=60),
    Message('note_on', channel=9, note=48, velocity=0, time=0),
    Message('note_on', channel=9, note=48, velocity=127, time=0),
    Message('note_on', channel=9, note=47, velocity=127, time=0),
    Message('note_on', channel=9, note=47, velocity=0, time=60),
    Message('note_on', channel=9, note=48, velocity=0, time=0),
    Message('note_on', channel=9, note=36, velocity=127, time=0),
    Message('note_on', channel=9, note=48, velocity=127, time=60),
    Message('note_on', channel=9, note=47, velocity=127, time=0),
    Message('note_on', channel=9, note=47, velocity=0, time=60),
    Message('note_on', channel=9, note=48, velocity=0, time=0),
    Message('note_on', channel=9, note=36, velocity=0, time=0),
    Message('note_on', channel=9, note=36, velocity=127, time=0),
    Message('note_on', channel=9, note=48, velocity=127, time=60),
    Message('note_on', channel=9, note=47, velocity=127, time=0),
    Message('note_on', channel=9, note=47, velocity=0, time=60),
    Message('note_on', channel=9, note=48, velocity=0, time=0),
    Message('note_on', channel=9, note=36, velocity=0, time=0),
    Message('note_on', channel=9, note=48, velocity=127, time=0),
    Message('note_on', channel=9, note=47, velocity=127, time=0),
    Message('note_on', channel=9, note=47, velocity=0, time=60),
    Message('note_on', channel=9, note=48, velocity=0, time=0),
    Message('note_on', channel=9, note=48, velocity=127, time=0),
    Message('note_on', channel=9, note=47, velocity=127, time=0),
    Message('note_on', channel=9, note=47, velocity=0, time=60),
    Message('note_on', channel=9, note=48, velocity=0, time=0),
    Message('note_on', channel=9, note=48, velocity=127, time=0),
    Message('note_on', channel=9, note=47, velocity=127, time=0),
    Message('note_on', channel=9, note=47, velocity=0, time=120),
    Message('note_on', channel=9, note=48, velocity=0, time=0),
    Message('note_on', channel=9, note=47, velocity=127, time=0),
    Message('note_on', channel=9, note=48, velocity=127, time=0),
    Message('note_on', channel=9, note=48, velocity=0, time=60),
    Message('note_on', channel=9, note=47, velocity=0, time=0),
    Message('note_on', channel=9, note=47, velocity=127, time=0),
    Message('note_on', channel=9, note=48, velocity=127, time=0),
    Message('note_on', channel=9, note=48, velocity=0, time=60),
    Message('note_on', channel=9, note=47, velocity=0, time=0),
    Message('note_on', channel=9, note=36, velocity=127, time=0),
    Message('note_on', channel=9, note=48, velocity=127, time=60),
    Message('note_on', channel=9, note=47, velocity=127, time=0),
    Message('note_on', channel=9, note=47, velocity=0, time=60),
    Message('note_on', channel=9, note=48, velocity=0, time=0),
    Message('note_on', channel=9, note=36, velocity=0, time=0),
    Message('note_on', channel=9, note=36, velocity=127, time=0),
    Message('note_on', channel=9, note=48, velocity=127, time=60),
    Message('note_on', channel=9, note=47, velocity=127, time=0),
    Message('note_on', channel=9, note=47, velocity=0, time=60),
    Message('note_on', channel=9, note=48, velocity=0, time=0),
    Message('note_on', channel=9, note=36, velocity=0, time=0),
    Message('note_on', channel=9, note=48, velocity=127, time=0),
    Message('note_on', channel=9, note=47, velocity=127, time=0),
    Message('note_on', channel=9, note=47, velocity=0, time=60),
    Message('note_on', channel=9, note=48, velocity=0, time=0),
    Message('note_on', channel=9, note=48, velocity=127, time=0),
    Message('note_on', channel=9, note=47, velocity=127, time=0),
    Message('note_on', channel=9, note=47, velocity=0, time=60),
    Message('note_on', channel=9, note=48, velocity=0, time=0),
    Message('note_on', channel=9, note=36, velocity=127, time=0),
    Message('note_on', channel=9, note=48, velocity=127, time=60),
    Message('note_on', channel=9, note=47, velocity=127, time=0),
    Message('note_on', channel=9, note=47, velocity=0, time=60),
    Message('note_on', channel=9, note=48, velocity=0, time=0),
    Message('note_on', channel=9, note=36, velocity=0, time=0),
    Message('note_on', channel=9, note=36, velocity=127, time=0),
    Message('note_on', channel=9, note=48, velocity=127, time=60),
    Message('note_on', channel=9, note=47, velocity=127, time=0),
    Message('note_on', channel=9, note=47, velocity=0, time=60),
    Message('note_on', channel=9, note=48, velocity=0, time=0),
    Message('note_on', channel=9, note=36, velocity=0, time=0),
    Message('note_on', channel=9, note=48, velocity=127, time=0),
    Message('note_on', channel=9, note=47, velocity=127, time=0),
    Message('note_on', channel=9, note=47, velocity=0, time=60),
    Message('note_on', channel=9, note=48, velocity=0, time=0),
    Message('note_on', channel=9, note=48, velocity=127, time=0),
    Message('note_on', channel=9, note=47, velocity=127, time=0),
    Message('note_on', channel=9, note=47, velocity=0, time=60),
    Message('note_on', channel=9, note=48, velocity=0, time=0),
    Message('note_on', channel=9, note=48, velocity=127, time=0),
    Message('note_on', channel=9, note=47, velocity=127, time=0),
    Message('note_on', channel=9, note=47, velocity=0, time=120),
    Message('note_on', channel=9, note=48, velocity=0, time=0),
    Message('note_on', channel=9, note=47, velocity=127, time=0),
    Message('note_on', channel=9, note=48, velocity=127, time=0),
    Message('note_on', channel=9, note=48, velocity=0, time=60),
    Message('note_on', channel=9, note=47, velocity=0, time=0),
    Message('note_on', channel=9, note=47, velocity=127, time=0),
    Message('note_on', channel=9, note=48, velocity=127, time=0),
    Message('note_on', channel=9, note=48, velocity=0, time=60),
    Message('note_on', channel=9, note=47, velocity=0, time=0),
    Message('note_on', channel=9, note=36, velocity=127, time=0),
    Message('note_on', channel=9, note=48, velocity=127, time=60),
    Message('note_on', channel=9, note=47, velocity=127, time=0),
    Message('note_on', channel=9, note=47, velocity=0, time=60),
    Message('note_on', channel=9, note=48, velocity=0, time=0),
    Message('note_on', channel=9, note=36, velocity=0, time=0),
    Message('note_on', channel=9, note=36, velocity=127, time=0),
    Message('note_on', channel=9, note=48, velocity=127, time=60),
    Message('note_on', channel=9, note=47, velocity=127, time=0),
    Message('note_on', channel=9, note=47, velocity=0, time=60),
    Message('note_on', channel=9, note=48, velocity=0, time=0),
    Message('note_on', channel=9, note=36, velocity=0, time=0),
    Message('note_on', channel=9, note=48, velocity=127, time=0),
    Message('note_on', channel=9, note=47, velocity=127, time=0),
    Message('note_on', channel=9, note=47, velocity=0, time=60),
    Message('note_on', channel=9, note=48, velocity=0, time=0),
    Message('note_on', channel=9, note=48, velocity=127, time=0),
    Message('note_on', channel=9, note=47, velocity=127, time=0),
    Message('note_on', channel=9, note=47, velocity=0, time=60),
    Message('note_on', channel=9, note=48, velocity=0, time=0),
    Message('note_on', channel=9, note=36, velocity=127, time=0),
    Message('note_on', channel=9, note=48, velocity=127, time=60),
    Message('note_on', channel=9, note=47, velocity=127, time=0),
    Message('note_on', channel=9, note=47, velocity=0, time=60),
    Message('note_on', channel=9, note=48, velocity=0, time=0),
    Message('note_on', channel=9, note=36, velocity=0, time=0),
    Message('note_on', channel=9, note=36, velocity=127, time=0),
    Message('note_on', channel=9, note=48, velocity=127, time=60),
    Message('note_on', channel=9, note=47, velocity=127, time=0),
    Message('note_on', channel=9, note=47, velocity=0, time=60),
    Message('note_on', channel=9, note=48, velocity=0, time=0),
    Message('note_on', channel=9, note=36, velocity=0, time=0),
    Message('note_on', channel=9, note=48, velocity=127, time=0),
    Message('note_on', channel=9, note=47, velocity=127, time=0),
    Message('note_on', channel=9, note=47, velocity=0, time=60),
    Message('note_on', channel=9, note=48, velocity=0, time=0),
    Message('note_on', channel=9, note=48, velocity=127, time=0),
    Message('note_on', channel=9, note=47, velocity=127, time=0),
    Message('note_on', channel=9, note=47, velocity=0, time=60),
    Message('note_on', channel=9, note=48, velocity=0, time=0),
    Message('note_on', channel=9, note=48, velocity=127, time=0),
    Message('note_on', channel=9, note=47, velocity=127, time=0),
    Message('note_on', channel=9, note=47, velocity=0, time=120),
    Message('note_on', channel=9, note=48, velocity=0, time=0),
    Message('note_on', channel=9, note=47, velocity=127, time=0),
    Message('note_on', channel=9, note=48, velocity=127, time=0),
    Message('note_on', channel=9, note=48, velocity=0, time=60),
    Message('note_on', channel=9, note=47, velocity=0, time=0),
    Message('note_on', channel=9, note=47, velocity=127, time=0),
    Message('note_on', channel=9, note=48, velocity=127, time=0),
    Message('note_on', channel=9, note=48, velocity=0, time=60),
    Message('note_on', channel=9, note=47, velocity=0, time=0),
    Message('note_on', channel=9, note=36, velocity=127, time=0),
    Message('note_on', channel=9, note=48, velocity=127, time=60),
    Message('note_on', channel=9, note=47, velocity=127, time=0),
    Message('note_on', channel=9, note=47, velocity=0, time=60),
    Message('note_on', channel=9, note=48, velocity=0, time=0),
    Message('note_on', channel=9, note=36, velocity=0, time=0),
    Message('note_on', channel=9, note=36, velocity=127, time=0),
    Message('note_on', channel=9, note=48, velocity=127, time=60),
    Message('note_on', channel=9, note=47, velocity=127, time=0),
    Message('note_on', channel=9, note=47, velocity=0, time=60),
    Message('note_on', channel=9, note=48, velocity=0, time=0),
    Message('note_on', channel=9, note=36, velocity=0, time=0),
    Message('note_on', channel=9, note=48, velocity=127, time=0),
    Message('note_on', channel=9, note=47, velocity=127, time=0),
    Message('note_on', channel=9, note=47, velocity=0, time=60),
    Message('note_on', channel=9, note=48, velocity=0, time=0),
    Message('note_on', channel=9, note=48, velocity=127, time=0),
    Message('note_on', channel=9, note=47, velocity=127, time=0),
    Message('note_on', channel=9, note=47, velocity=0, time=60),
    Message('note_on', channel=9, note=48, velocity=0, time=0),
    Message('note_on', channel=9, note=36, velocity=127, time=0),
    Message('note_on', channel=9, note=48, velocity=127, time=60),
    Message('note_on', channel=9, note=47, velocity=127, time=0),
    Message('note_on', channel=9, note=47, velocity=0, time=60),
    Message('note_on', channel=9, note=48, velocity=0, time=0),
    Message('note_on', channel=9, note=36, velocity=0, time=0),
    Message('note_on', channel=9, note=36, velocity=127, time=0),
    Message('note_on', channel=9, note=48, velocity=127, time=60),
    Message('note_on', channel=9, note=47, velocity=127, time=0),
    Message('note_on', channel=9, note=47, velocity=0, time=60),
    Message('note_on', channel=9, note=48, velocity=0, time=0),
    Message('note_on', channel=9, note=36, velocity=0, time=0),
    Message('note_on', channel=9, note=48, velocity=127, time=0),
    Message('note_on', channel=9, note=47, velocity=127, time=0),
    Message('note_on', channel=9, note=47, velocity=0, time=60),
    Message('note_on', channel=9, note=48, velocity=0, time=0),
    Message('note_on', channel=9, note=48, velocity=127, time=0),
    Message('note_on', channel=9, note=47, velocity=127, time=0),
    Message('note_on', channel=9, note=47, velocity=0, time=60),
    Message('note_on', channel=9, note=48, velocity=0, time=0),
    Message('note_on', channel=9, note=48, velocity=127, time=0),
    Message('note_on', channel=9, note=47, velocity=127, time=0),
    Message('note_on', channel=9, note=47, velocity=0, time=120),
    Message('note_on', channel=9, note=48, velocity=0, time=0),
    Message('note_on', channel=9, note=36, velocity=127, time=0),
    Message('note_on', channel=9, note=57, velocity=127, time=0),
    Message('note_on', channel=9, note=57, velocity=0, time=120),
    Message('note_on', channel=9, note=36, velocity=0, time=0),
    Message('note_on', channel=9, note=57, velocity=127, time=1740),
    Message('note_on', channel=9, note=36, velocity=127, time=0),
    Message('note_on', channel=9, note=36, velocity=0, time=60),
    Message('note_on', channel=9, note=57, velocity=0, time=0),
    Message('note_on', channel=9, note=36, velocity=127, time=1320),
    Message('note_on', channel=9, note=57, velocity=127, time=0),
    Message('note_on', channel=9, note=57, velocity=0, time=60),
    Message('note_on', channel=9, note=36, velocity=0, time=0),
    Message('note_on', channel=9, note=57, velocity=127, time=0),
    Message('note_on', channel=9, note=36, velocity=127, time=0),
    Message('note_on', channel=9, note=36, velocity=0, time=60),
    Message('note_on', channel=9, note=57, velocity=0, time=0),
    Message('note_on', channel=9, note=36, velocity=127, time=120),
    Message('note_on', channel=9, note=57, velocity=127, time=0),
    Message('note_on', channel=9, note=57, velocity=0, time=60),
    Message('note_on', channel=9, note=36, velocity=0, time=0),
    Message('note_on', channel=9, note=36, velocity=127, time=0),
    Message('note_on', channel=9, note=57, velocity=127, time=0),
    Message('note_on', channel=9, note=57, velocity=0, time=60),
    Message('note_on', channel=9, note=36, velocity=0, time=0),
    Message('note_on', channel=9, note=57, velocity=127, time=120),
    Message('note_on', channel=9, note=36, velocity=127, time=0),
    Message('note_on', channel=9, note=36, velocity=0, time=60),
    Message('note_on', channel=9, note=57, velocity=0, time=0),
    Message('note_on', channel=9, note=57, velocity=127, time=0),
    Message('note_on', channel=9, note=36, velocity=127, time=0),
    Message('note_on', channel=9, note=36, velocity=0, time=60),
    Message('note_on', channel=9, note=57, velocity=0, time=0),
    Message('note_on', channel=9, note=42, velocity=127, time=0),
    Message('note_on', channel=9, note=42, velocity=0, time=60),
    Message('note_on', channel=9, note=42, velocity=127, time=0),
    Message('note_on', channel=9, note=42, velocity=0, time=60),
    Message('note_on', channel=9, note=42, velocity=127, time=0),
    Message('note_on', channel=9, note=36, velocity=127, time=0),
    Message('note_on', channel=9, note=36, velocity=0, time=60),
    Message('note_on', channel=9, note=42, velocity=0, time=0),
    Message('note_on', channel=9, note=42, velocity=127, time=0),
    Message('note_on', channel=9, note=36, velocity=127, time=0),
    Message('note_on', channel=9, note=36, velocity=0, time=60),
    Message('note_on', channel=9, note=42, velocity=0, time=0),
    Message('note_on', channel=9, note=42, velocity=127, time=0),
    Message('note_on', channel=9, note=38, velocity=127, time=0),
    Message('note_on', channel=9, note=38, velocity=0, time=60),
    Message('note_on', channel=9, note=42, velocity=0, time=0),
    Message('note_on', channel=9, note=42, velocity=127, time=0),
    Message('note_on', channel=9, note=42, velocity=0, time=60),
    Message('note_on', channel=9, note=42, velocity=127, time=0),
    Message('note_on', channel=9, note=36, velocity=127, time=0),
    Message('note_on', channel=9, note=36, velocity=0, time=60),
    Message('note_on', channel=9, note=42, velocity=0, time=0),
    Message('note_on', channel=9, note=42, velocity=127, time=0),
    Message('note_on', channel=9, note=36, velocity=127, time=0),
    Message('note_on', channel=9, note=36, velocity=0, time=60),
    Message('note_on', channel=9, note=42, velocity=0, time=0),
    Message('note_on', channel=9, note=42, velocity=127, time=0),
    Message('note_on', channel=9, note=42, velocity=0, time=60),
    Message('note_on', channel=9, note=36, velocity=127, time=0),
    Message('note_on', channel=9, note=42, velocity=127, time=0),
    Message('note_on', channel=9, note=42, velocity=0, time=60),
    Message('note_on', channel=9, note=36, velocity=0, time=0),
    Message('note_on', channel=9, note=36, velocity=127, time=0),
    Message('note_on', channel=9, note=42, velocity=127, time=0),
    Message('note_on', channel=9, note=42, velocity=0, time=60),
    Message('note_on', channel=9, note=36, velocity=0, time=0),
    Message('note_on', channel=9, note=42, velocity=127, time=0),
    Message('note_on', channel=9, note=36, velocity=127, time=0),
    Message('note_on', channel=9, note=36, velocity=0, time=60),
    Message('note_on', channel=9, note=42, velocity=0, time=0),
    Message('note_on', channel=9, note=42, velocity=127, time=0),
    Message('note_on', channel=9, note=38, velocity=127, time=0),
    Message('note_on', channel=9, note=38, velocity=0, time=60),
    Message('note_on', channel=9, note=42, velocity=0, time=0),
    Message('note_on', channel=9, note=42, velocity=127, time=0),
    Message('note_on', channel=9, note=36, velocity=127, time=0),
    Message('note_on', channel=9, note=36, velocity=0, time=60),
    Message('note_on', channel=9, note=42, velocity=0, time=0),
    Message('note_on', channel=9, note=42, velocity=127, time=0),
    Message('note_on', channel=9, note=36, velocity=127, time=0),
    Message('note_on', channel=9, note=36, velocity=0, time=60),
    Message('note_on', channel=9, note=42, velocity=0, time=0),
    Message('note_on', channel=9, note=42, velocity=127, time=0),
    Message('note_on', channel=9, note=36, velocity=127, time=0),
    Message('note_on', channel=9, note=36, velocity=0, time=60),
    Message('note_on', channel=9, note=42, velocity=0, time=0),
    Message('note_on', channel=9, note=57, velocity=127, time=0),
    Message('note_on', channel=9, note=36, velocity=127, time=0),
    Message('note_on', channel=9, note=57, velocity=0, time=60),
    Message('note_on', channel=9, note=42, velocity=127, time=0),
    Message('note_on', channel=9, note=42, velocity=0, time=60),
    Message('note_on', channel=9, note=36, velocity=0, time=0),
    Message('note_on', channel=9, note=42, velocity=127, time=0),
    Message('note_on', channel=9, note=42, velocity=0, time=60),
    Message('note_on', channel=9, note=42, velocity=127, time=0),
    Message('note_on', channel=9, note=36, velocity=127, time=0),
    Message('note_on', channel=9, note=36, velocity=0, time=60),
    Message('note_on', channel=9, note=42, velocity=0, time=0),
    Message('note_on', channel=9, note=42, velocity=127, time=0),
    Message('note_on', channel=9, note=38, velocity=127, time=0),
    Message('note_on', channel=9, note=38, velocity=0, time=60),
    Message('note_on', channel=9, note=42, velocity=0, time=0),
    Message('note_on', channel=9, note=42, velocity=127, time=0),
    Message('note_on', channel=9, note=42, velocity=0, time=60),
    Message('note_on', channel=9, note=36, velocity=127, time=0),
    Message('note_on', channel=9, note=57, velocity=127, time=0),
    Message('note_on', channel=9, note=57, velocity=0, time=60),
    Message('note_on', channel=9, note=36, velocity=0, time=0),
    Message('note_on', channel=9, note=57, velocity=127, time=0),
    Message('note_on', channel=9, note=36, velocity=127, time=0),
    Message('note_on', channel=9, note=36, velocity=0, time=60),
    Message('note_on', channel=9, note=57, velocity=0, time=0),
    Message('note_on', channel=9, note=42, velocity=127, time=0),
    Message('note_on', channel=9, note=42, velocity=0, time=60),
    Message('note_on', channel=9, note=42, velocity=127, time=0),
    Message('note_on', channel=9, note=42, velocity=0, time=60),
    Message('note_on', channel=9, note=57, velocity=127, time=0),
    Message('note_on', channel=9, note=36, velocity=127, time=0),
    Message('note_on', channel=9, note=36, velocity=0, time=60),
    Message('note_on', channel=9, note=57, velocity=0, time=0),
    Message('note_on', channel=9, note=57, velocity=127, time=0),
    Message('note_on', channel=9, note=36, velocity=127, time=0),
    Message('note_on', channel=9, note=36, velocity=0, time=60),
    Message('note_on', channel=9, note=57, velocity=0, time=0),
    Message('note_on', channel=9, note=42, velocity=127, time=0),
    Message('note_on', channel=9, note=38, velocity=127, time=0),
    Message('note_on', channel=9, note=38, velocity=0, time=60),
    Message('note_on', channel=9, note=42, velocity=0, time=0),
    Message('note_on', channel=9, note=42, velocity=127, time=0),
    Message('note_on', channel=9, note=42, velocity=0, time=60),
    Message('note_on', channel=9, note=57, velocity=127, time=0),
    Message('note_on', channel=9, note=36, velocity=127, time=0),
    Message('note_on', channel=9, note=36, velocity=0, time=60),
    Message('note_on', channel=9, note=57, velocity=0, time=0),
    Message('note_on', channel=9, note=57, velocity=127, time=0),
    Message('note_on', channel=9, note=36, velocity=127, time=0),
    Message('note_on', channel=9, note=36, velocity=0, time=60),
    Message('note_on', channel=9, note=57, velocity=0, time=0),
    Message('note_on', channel=9, note=42, velocity=127, time=0),
    Message('note_on', channel=9, note=42, velocity=0, time=60),
    Message('note_on', channel=9, note=42, velocity=127, time=0),
    Message('note_on', channel=9, note=42, velocity=0, time=60),
    Message('note_on', channel=9, note=36, velocity=127, time=0),
    Message('note_on', channel=9, note=42, velocity=127, time=0),
    Message('note_on', channel=9, note=42, velocity=0, time=60),
    Message('note_on', channel=9, note=36, velocity=0, time=0),
    Message('note_on', channel=9, note=36, velocity=127, time=0),
    Message('note_on', channel=9, note=42, velocity=127, time=0),
    Message('note_on', channel=9, note=42, velocity=0, time=60),
    Message('note_on', channel=9, note=36, velocity=0, time=0),
    Message('note_on', channel=9, note=38, velocity=127, time=0),
    Message('note_on', channel=9, note=42, velocity=127, time=0),
    Message('note_on', channel=9, note=42, velocity=0, time=60),
    Message('note_on', channel=9, note=38, velocity=0, time=0),
    Message('note_on', channel=9, note=42, velocity=127, time=0),
    Message('note_on', channel=9, note=42, velocity=0, time=60),
    Message('note_on', channel=9, note=42, velocity=127, time=0),
    Message('note_on', channel=9, note=36, velocity=127, time=0),
    Message('note_on', channel=9, note=36, velocity=0, time=60),
    Message('note_on', channel=9, note=42, velocity=0, time=0),
    Message('note_on', channel=9, note=42, velocity=127, time=0),
    Message('note_on', channel=9, note=36, velocity=127, time=0),
    Message('note_on', channel=9, note=36, velocity=0, time=60),
    Message('note_on', channel=9, note=42, velocity=0, time=0),
    Message('note_on', channel=9, note=42, velocity=127, time=0),
    Message('note_on', channel=9, note=42, velocity=0, time=60),
    Message('note_on', channel=9, note=36, velocity=127, time=0),
    Message('note_on', channel=9, note=42, velocity=127, time=0),
    Message('note_on', channel=9, note=42, velocity=0, time=60),
    Message('note_on', channel=9, note=36, velocity=0, time=0),
    Message('note_on', channel=9, note=36, velocity=127, time=0),
    Message('note_on', channel=9, note=42, velocity=127, time=0),
    Message('note_on', channel=9, note=42, velocity=0, time=60),
    Message('note_on', channel=9, note=36, velocity=0, time=0),
    Message('note_on', channel=9, note=36, velocity=127, time=0),
    Message('note_on', channel=9, note=42, velocity=127, time=0),
    Message('note_on', channel=9, note=42, velocity=0, time=60),
    Message('note_on', channel=9, note=36, velocity=0, time=0),
    Message('note_on', channel=9, note=42, velocity=127, time=0),
    Message('note_on', channel=9, note=38, velocity=127, time=0),
    Message('note_on', channel=9, note=38, velocity=0, time=60),
    Message('note_on', channel=9, note=42, velocity=0, time=0),
    Message('note_on', channel=9, note=42, velocity=127, time=0),
    Message('note_on', channel=9, note=36, velocity=127, time=0),
    Message('note_on', channel=9, note=36, velocity=0, time=60),
    Message('note_on', channel=9, note=42, velocity=0, time=0),
    Message('note_on', channel=9, note=42, velocity=127, time=0),
    Message('note_on', channel=9, note=36, velocity=127, time=0),
    Message('note_on', channel=9, note=36, velocity=0, time=60),
    Message('note_on', channel=9, note=42, velocity=0, time=0),
    Message('note_on', channel=9, note=42, velocity=127, time=0),
    Message('note_on', channel=9, note=36, velocity=127, time=0),
    Message('note_on', channel=9, note=36, velocity=0, time=60),
    Message('note_on', channel=9, note=42, velocity=0, time=0),
    Message('note_on', channel=9, note=57, velocity=127, time=0),
    Message('note_on', channel=9, note=36, velocity=127, time=0),
    Message('note_on', channel=9, note=57, velocity=0, time=60),
    Message('note_on', channel=9, note=42, velocity=127, time=0),
    Message('note_on', channel=9, note=42, velocity=0, time=60),
    Message('note_on', channel=9, note=36, velocity=0, time=0),
    Message('note_on', channel=9, note=42, velocity=127, time=0),
    Message('note_on', channel=9, note=42, velocity=0, time=60),
    Message('note_on', channel=9, note=36, velocity=127, time=0),
    Message('note_on', channel=9, note=42, velocity=127, time=0),
    Message('note_on', channel=9, note=42, velocity=0, time=60),
    Message('note_on', channel=9, note=36, velocity=0, time=0),
    Message('note_on', channel=9, note=38, velocity=127, time=0),
    Message('note_on', channel=9, note=42, velocity=127, time=0),
    Message('note_on', channel=9, note=42, velocity=0, time=60),
    Message('note_on', channel=9, note=38, velocity=0, time=0),
    Message('note_on', channel=9, note=42, velocity=127, time=0),
    Message('note_on', channel=9, note=42, velocity=0, time=60),
    Message('note_on', channel=9, note=36, velocity=127, time=0),
    Message('note_on', channel=9, note=57, velocity=127, time=0),
    Message('note_on', channel=9, note=57, velocity=0, time=60),
    Message('note_on', channel=9, note=36, velocity=0, time=0),
    Message('note_on', channel=9, note=36, velocity=127, time=0),
    Message('note_on', channel=9, note=57, velocity=127, time=0),
    Message('note_on', channel=9, note=57, velocity=0, time=60),
    Message('note_on', channel=9, note=36, velocity=0, time=0),
    Message('note_on', channel=9, note=42, velocity=127, time=0),
    Message('note_on', channel=9, note=42, velocity=0, time=60),
    Message('note_on', channel=9, note=42, velocity=127, time=0),
    Message('note_on', channel=9, note=42, velocity=0, time=60),
    Message('note_on', channel=9, note=36, velocity=127, time=0),
    Message('note_on', channel=9, note=57, velocity=127, time=0),
    Message('note_on', channel=9, note=57, velocity=0, time=60),
    Message('note_on', channel=9, note=36, velocity=0, time=0),
    Message('note_on', channel=9, note=36, velocity=127, time=0),
    Message('note_on', channel=9, note=57, velocity=127, time=0),
    Message('note_on', channel=9, note=57, velocity=0, time=60),
    Message('note_on', channel=9, note=36, velocity=0, time=0),
    Message('note_on', channel=9, note=38, velocity=127, time=0),
    Message('note_on', channel=9, note=42, velocity=127, time=0),
    Message('note_on', channel=9, note=42, velocity=0, time=60),
    Message('note_on', channel=9, note=38, velocity=0, time=0),
    Message('note_on', channel=9, note=42, velocity=127, time=0),
    Message('note_on', channel=9, note=42, velocity=0, time=60),
    Message('note_on', channel=9, note=57, velocity=127, time=0),
    Message('note_on', channel=9, note=36, velocity=127, time=0),
    Message('note_on', channel=9, note=36, velocity=0, time=60),
    Message('note_on', channel=9, note=57, velocity=0, time=0),
    Message('note_on', channel=9, note=57, velocity=127, time=0),
    Message('note_on', channel=9, note=36, velocity=127, time=0),
    Message('note_on', channel=9, note=36, velocity=0, time=60),
    Message('note_on', channel=9, note=57, velocity=0, time=0),
    Message('note_on', channel=9, note=42, velocity=127, time=0),
    Message('note_on', channel=9, note=42, velocity=0, time=60),
    Message('note_on', channel=9, note=42, velocity=127, time=0),
    Message('note_on', channel=9, note=42, velocity=0, time=60),
    Message('note_on', channel=9, note=42, velocity=127, time=0),
    Message('note_on', channel=9, note=36, velocity=127, time=0),
    Message('note_on', channel=9, note=36, velocity=0, time=60),
    Message('note_on', channel=9, note=42, velocity=0, time=0),
    Message('note_on', channel=9, note=36, velocity=127, time=0),
    Message('note_on', channel=9, note=42, velocity=127, time=0),
    Message('note_on', channel=9, note=42, velocity=0, time=60),
    Message('note_on', channel=9, note=36, velocity=0, time=0),
    Message('note_on', channel=9, note=38, velocity=127, time=0),
    Message('note_on', channel=9, note=42, velocity=127, time=0),
    Message('note_on', channel=9, note=42, velocity=0, time=60),
    Message('note_on', channel=9, note=38, velocity=0, time=0),
    Message('note_on', channel=9, note=42, velocity=127, time=0),
    Message('note_on', channel=9, note=42, velocity=0, time=60),
    Message('note_on', channel=9, note=42, velocity=127, time=0),
    Message('note_on', channel=9, note=36, velocity=127, time=0),
    Message('note_on', channel=9, note=36, velocity=0, time=60),
    Message('note_on', channel=9, note=42, velocity=0, time=0),
    Message('note_on', channel=9, note=42, velocity=127, time=0),
    Message('note_on', channel=9, note=36, velocity=127, time=0),
    Message('note_on', channel=9, note=36, velocity=0, time=60),
    Message('note_on', channel=9, note=42, velocity=0, time=0),
    Message('note_on', channel=9, note=42, velocity=127, time=0),
    Message('note_on', channel=9, note=42, velocity=0, time=60),
    Message('note_on', channel=9, note=42, velocity=127, time=0),
    Message('note_on', channel=9, note=36, velocity=127, time=0),
    Message('note_on', channel=9, note=36, velocity=0, time=60),
    Message('note_on', channel=9, note=42, velocity=0, time=0),
    Message('note_on', channel=9, note=42, velocity=127, time=0),
    Message('note_on', channel=9, note=36, velocity=127, time=0),
    Message('note_on', channel=9, note=36, velocity=0, time=60),
    Message('note_on', channel=9, note=42, velocity=0, time=0),
    Message('note_on', channel=9, note=42, velocity=127, time=0),
    Message('note_on', channel=9, note=36, velocity=127, time=0),
    Message('note_on', channel=9, note=36, velocity=0, time=60),
    Message('note_on', channel=9, note=42, velocity=0, time=0),
    Message('note_on', channel=9, note=42, velocity=127, time=0),
    Message('note_on', channel=9, note=38, velocity=127, time=0),
    Message('note_on', channel=9, note=38, velocity=0, time=60),
    Message('note_on', channel=9, note=42, velocity=0, time=0),
    Message('note_on', channel=9, note=36, velocity=127, time=0),
    Message('note_on', channel=9, note=42, velocity=127, time=0),
    Message('note_on', channel=9, note=42, velocity=0, time=60),
    Message('note_on', channel=9, note=36, velocity=0, time=0),
    Message('note_on', channel=9, note=36, velocity=127, time=0),
    Message('note_on', channel=9, note=42, velocity=127, time=0),
    Message('note_on', channel=9, note=42, velocity=0, time=60),
    Message('note_on', channel=9, note=36, velocity=0, time=0),
    Message('note_on', channel=9, note=36, velocity=127, time=0),
    Message('note_on', channel=9, note=42, velocity=127, time=0),
    Message('note_on', channel=9, note=42, velocity=0, time=60),
    Message('note_on', channel=9, note=36, velocity=0, time=0),
    Message('note_on', channel=9, note=36, velocity=127, time=0),
    Message('note_on', channel=9, note=57, velocity=127, time=0),
    Message('note_on', channel=9, note=57, velocity=0, time=60),
    Message('note_on', channel=9, note=42, velocity=127, time=0),
    Message('note_on', channel=9, note=42, velocity=0, time=60),
    Message('note_on', channel=9, note=36, velocity=0, time=0),
    Message('note_on', channel=9, note=42, velocity=127, time=0),
    Message('note_on', channel=9, note=42, velocity=0, time=60),
    Message('note_on', channel=9, note=36, velocity=127, time=0),
    Message('note_on', channel=9, note=42, velocity=127, time=0),
    Message('note_on', channel=9, note=42, velocity=0, time=60),
    Message('note_on', channel=9, note=36, velocity=0, time=0),
    Message('note_on', channel=9, note=38, velocity=127, time=0),
    Message('note_on', channel=9, note=42, velocity=127, time=0),
    Message('note_on', channel=9, note=42, velocity=0, time=60),
    Message('note_on', channel=9, note=38, velocity=0, time=0),
    Message('note_on', channel=9, note=42, velocity=127, time=0),
    Message('note_on', channel=9, note=42, velocity=0, time=60),
    Message('note_on', channel=9, note=36, velocity=127, time=0),
    Message('note_on', channel=9, note=57, velocity=127, time=0),
    Message('note_on', channel=9, note=57, velocity=0, time=60),
    Message('note_on', channel=9, note=36, velocity=0, time=0),
    Message('note_on', channel=9, note=57, velocity=127, time=0),
    Message('note_on', channel=9, note=36, velocity=127, time=0),
    Message('note_on', channel=9, note=36, velocity=0, time=60),
    Message('note_on', channel=9, note=57, velocity=0, time=0),
    Message('note_on', channel=9, note=42, velocity=127, time=0),
    Message('note_on', channel=9, note=42, velocity=0, time=60),
    Message('note_on', channel=9, note=42, velocity=127, time=0),
    Message('note_on', channel=9, note=42, velocity=0, time=60),
    Message('note_on', channel=9, note=36, velocity=127, time=0),
    Message('note_on', channel=9, note=57, velocity=127, time=0),
    Message('note_on', channel=9, note=57, velocity=0, time=60),
    Message('note_on', channel=9, note=36, velocity=0, time=0),
    Message('note_on', channel=9, note=36, velocity=127, time=0),
    Message('note_on', channel=9, note=57, velocity=127, time=0),
    Message('note_on', channel=9, note=57, velocity=0, time=60),
    Message('note_on', channel=9, note=36, velocity=0, time=0),
    Message('note_on', channel=9, note=42, velocity=127, time=0),
    Message('note_on', channel=9, note=38, velocity=127, time=0),
    Message('note_on', channel=9, note=38, velocity=0, time=60),
    Message('note_on', channel=9, note=42, velocity=0, time=0),
    Message('note_on', channel=9, note=42, velocity=127, time=0),
    Message('note_on', channel=9, note=42, velocity=0, time=60),
    Message('note_on', channel=9, note=36, velocity=127, time=0),
    Message('note_on', channel=9, note=57, velocity=127, time=0),
    Message('note_on', channel=9, note=57, velocity=0, time=60),
    Message('note_on', channel=9, note=36, velocity=0, time=0),
    Message('note_on', channel=9, note=36, velocity=127, time=0),
    Message('note_on', channel=9, note=57, velocity=127, time=0),
    Message('note_on', channel=9, note=57, velocity=0, time=60),
    Message('note_on', channel=9, note=36, velocity=0, time=0),
    Message('note_on', channel=9, note=42, velocity=127, time=0),
    Message('note_on', channel=9, note=42, velocity=0, time=60),
    Message('note_on', channel=9, note=42, velocity=127, time=0),
    Message('note_on', channel=9, note=42, velocity=0, time=60),
    Message('note_on', channel=9, note=36, velocity=127, time=0),
    Message('note_on', channel=9, note=42, velocity=127, time=0),
    Message('note_on', channel=9, note=42, velocity=0, time=60),
    Message('note_on', channel=9, note=36, velocity=0, time=0),
    Message('note_on', channel=9, note=42, velocity=127, time=0),
    Message('note_on', channel=9, note=36, velocity=127, time=0),
    Message('note_on', channel=9, note=36, velocity=0, time=60),
    Message('note_on', channel=9, note=42, velocity=0, time=0),
    Message('note_on', channel=9, note=42, velocity=127, time=0),
    Message('note_on', channel=9, note=38, velocity=127, time=0),
    Message('note_on', channel=9, note=38, velocity=0, time=60),
    Message('note_on', channel=9, note=42, velocity=0, time=0),
    Message('note_on', channel=9, note=42, velocity=127, time=0),
    Message('note_on', channel=9, note=42, velocity=0, time=60),
    Message('note_on', channel=9, note=36, velocity=127, time=0),
    Message('note_on', channel=9, note=42, velocity=127, time=0),
    Message('note_on', channel=9, note=42, velocity=0, time=60),
    Message('note_on', channel=9, note=36, velocity=0, time=0),
    Message('note_on', channel=9, note=36, velocity=127, time=0),
    Message('note_on', channel=9, note=42, velocity=127, time=0),
    Message('note_on', channel=9, note=42, velocity=0, time=60),
    Message('note_on', channel=9, note=36, velocity=0, time=0),
    Message('note_on', channel=9, note=42, velocity=127, time=0),
    Message('note_on', channel=9, note=42, velocity=0, time=60),
    Message('note_on', channel=9, note=42, velocity=127, time=0),
    Message('note_on', channel=9, note=36, velocity=127, time=0),
    Message('note_on', channel=9, note=36, velocity=0, time=60),
    Message('note_on', channel=9, note=42, velocity=0, time=0),
    Message('note_on', channel=9, note=42, velocity=127, time=0),
    Message('note_on', channel=9, note=36, velocity=127, time=0),
    Message('note_on', channel=9, note=36, velocity=0, time=60),
    Message('note_on', channel=9, note=42, velocity=0, time=0),
    Message('note_on', channel=9, note=42, velocity=127, time=0),
    Message('note_on', channel=9, note=36, velocity=127, time=0),
    Message('note_on', channel=9, note=36, velocity=0, time=60),
    Message('note_on', channel=9, note=42, velocity=0, time=0),
    Message('note_on', channel=9, note=42, velocity=127, time=0),
    Message('note_on', channel=9, note=38, velocity=127, time=0),
    Message('note_on', channel=9, note=38, velocity=0, time=60),
    Message('note_on', channel=9, note=42, velocity=0, time=0),
    Message('note_on', channel=9, note=42, velocity=127, time=0),
    Message('note_on', channel=9, note=36, velocity=127, time=0),
    Message('note_on', channel=9, note=36, velocity=0, time=60),
    Message('note_on', channel=9, note=42, velocity=0, time=0),
    Message('note_on', channel=9, note=36, velocity=127, time=0),
    Message('note_on', channel=9, note=42, velocity=127, time=0),
    Message('note_on', channel=9, note=42, velocity=0, time=60),
    Message('note_on', channel=9, note=36, velocity=0, time=0),
    Message('note_on', channel=9, note=36, velocity=127, time=0),
    Message('note_on', channel=9, note=42, velocity=127, time=0),
    Message('note_on', channel=9, note=42, velocity=0, time=60),
    Message('note_on', channel=9, note=36, velocity=0, time=0),
    Message('note_on', channel=9, note=36, velocity=127, time=0),
    Message('note_on', channel=9, note=57, velocity=127, time=0),
    Message('note_on', channel=9, note=57, velocity=0, time=60),
    Message('note_on', channel=9, note=42, velocity=127, time=0),
    Message('note_on', channel=9, note=42, velocity=0, time=60),
    Message('note_on', channel=9, note=36, velocity=0, time=0),
    Message('note_on', channel=9, note=42, velocity=127, time=0),
    Message('note_on', channel=9, note=42, velocity=0, time=60),
    Message('note_on', channel=9, note=42, velocity=127, time=0),
    Message('note_on', channel=9, note=36, velocity=127, time=0),
    Message('note_on', channel=9, note=36, velocity=0, time=60),
    Message('note_on', channel=9, note=42, velocity=0, time=0),
    Message('note_on', channel=9, note=42, velocity=127, time=0),
    Message('note_on', channel=9, note=38, velocity=127, time=0),
    Message('note_on', channel=9, note=38, velocity=0, time=60),
    Message('note_on', channel=9, note=42, velocity=0, time=0),
    Message('note_on', channel=9, note=42, velocity=127, time=0),
    Message('note_on', channel=9, note=36, velocity=127, time=0),
    Message('note_on', channel=9, note=36, velocity=0, time=20),
    Message('note_on', channel=9, note=36, velocity=127, time=0),
    Message('note_on', channel=9, note=36, velocity=0, time=20),
    Message('note_on', channel=9, note=36, velocity=127, time=0),
    Message('note_on', channel=9, note=36, velocity=0, time=20),
    Message('note_on', channel=9, note=42, velocity=0, time=0),
    Message('note_on', channel=9, note=38, velocity=127, time=0),
    Message('note_on', channel=9, note=57, velocity=127, time=0),
    Message('note_on', channel=9, note=57, velocity=0, time=60),
    Message('note_on', channel=9, note=38, velocity=0, time=0),
    Message('note_on', channel=9, note=36, velocity=127, time=0),
    Message('note_on', channel=9, note=57, velocity=127, time=0),
    Message('note_on', channel=9, note=57, velocity=0, time=60),
    Message('note_on', channel=9, note=36, velocity=0, time=0),
    Message('note_on', channel=9, note=42, velocity=127, time=0),
    Message('note_on', channel=9, note=42, velocity=0, time=60),
    Message('note_on', channel=9, note=42, velocity=127, time=0),
    Message('note_on', channel=9, note=36, velocity=127, time=0),
    Message('note_on', channel=9, note=36, velocity=0, time=20),
    Message('note_on', channel=9, note=36, velocity=127, time=0),
    Message('note_on', channel=9, note=36, velocity=0, time=20),
    Message('note_on', channel=9, note=36, velocity=127, time=0),
    Message('note_on', channel=9, note=36, velocity=0, time=20),
    Message('note_on', channel=9, note=42, velocity=0, time=0),
    Message('note_on', channel=9, note=38, velocity=127, time=0),
    Message('note_on', channel=9, note=57, velocity=127, time=0),
    Message('note_on', channel=9, note=57, velocity=0, time=60),
    Message('note_on', channel=9, note=38, velocity=0, time=0),
    Message('note_on', channel=9, note=57, velocity=127, time=0),
    Message('note_on', channel=9, note=36, velocity=127, time=0),
    Message('note_on', channel=9, note=36, velocity=0, time=60),
    Message('note_on', channel=9, note=57, velocity=0, time=0),
    Message('note_on', channel=9, note=42, velocity=127, time=0),
    Message('note_on', channel=9, note=42, velocity=0, time=60),
    Message('note_on', channel=9, note=42, velocity=127, time=0),
    Message('note_on', channel=9, note=36, velocity=127, time=0),
    Message('note_on', channel=9, note=36, velocity=0, time=20),
    Message('note_on', channel=9, note=36, velocity=127, time=0),
    Message('note_on', channel=9, note=36, velocity=0, time=20),
    Message('note_on', channel=9, note=36, velocity=127, time=0),
    Message('note_on', channel=9, note=36, velocity=0, time=20),
    Message('note_on', channel=9, note=42, velocity=0, time=0),
    Message('note_on', channel=9, note=38, velocity=127, time=0),
    Message('note_on', channel=9, note=57, velocity=127, time=0),
    Message('note_on', channel=9, note=57, velocity=0, time=60),
    Message('note_on', channel=9, note=38, velocity=0, time=0),
    Message('note_on', channel=9, note=36, velocity=127, time=0),
    Message('note_on', channel=9, note=57, velocity=127, time=0),
    Message('note_on', channel=9, note=57, velocity=0, time=60),
    Message('note_on', channel=9, note=36, velocity=0, time=0),
    Message('note_on', channel=9, note=59, velocity=127, time=0),
    Message('note_on', channel=9, note=59, velocity=0, time=60),
    Message('note_on', channel=9, note=59, velocity=127, time=0),
    Message('note_on', channel=9, note=59, velocity=0, time=60),
    Message('note_on', channel=9, note=59, velocity=127, time=0),
    Message('note_on', channel=9, note=36, velocity=127, time=0),
    Message('note_on', channel=9, note=36, velocity=0, time=60),
    Message('note_on', channel=9, note=59, velocity=0, time=0),
    Message('note_on', channel=9, note=59, velocity=127, time=0),
    Message('note_on', channel=9, note=36, velocity=127, time=0),
    Message('note_on', channel=9, note=36, velocity=0, time=60),
    Message('note_on', channel=9, note=59, velocity=0, time=0),
    Message('note_on', channel=9, note=38, velocity=127, time=0),
    Message('note_on', channel=9, note=38, velocity=0, time=60),
    Message('note_on', channel=9, note=50, velocity=127, time=0),
    Message('note_on', channel=9, note=50, velocity=0, time=60),
    Message('note_on', channel=9, note=48, velocity=127, time=0),
    Message('note_on', channel=9, note=48, velocity=0, time=60),
    Message('note_on', channel=9, note=57, velocity=127, time=0),
    Message('note_on', channel=9, note=36, velocity=127, time=0),
    Message('note_on', channel=9, note=36, velocity=0, time=60),
    Message('note_on', channel=9, note=57, velocity=0, time=0),
    Message('note_on', channel=9, note=59, velocity=127, time=0),
    Message('note_on', channel=9, note=59, velocity=0, time=60),
    Message('note_on', channel=9, note=59, velocity=127, time=0),
    Message('note_on', channel=9, note=59, velocity=0, time=60),
    Message('note_on', channel=9, note=59, velocity=127, time=0),
    Message('note_on', channel=9, note=36, velocity=127, time=0),
    Message('note_on', channel=9, note=36, velocity=0, time=60),
    Message('note_on', channel=9, note=59, velocity=0, time=0),
    Message('note_on', channel=9, note=59, velocity=127, time=0),
    Message('note_on', channel=9, note=36, velocity=127, time=0),
    Message('note_on', channel=9, note=36, velocity=0, time=60),
    Message('note_on', channel=9, note=59, velocity=0, time=0),
    Message('note_on', channel=9, note=38, velocity=127, time=0),
    Message('note_on', channel=9, note=38, velocity=0, time=60),
    Message('note_on', channel=9, note=57, velocity=127, time=0),
    Message('note_on', channel=9, note=36, velocity=127, time=0),
    Message('note_on', channel=9, note=36, velocity=0, time=60),
    Message('note_on', channel=9, note=57, velocity=0, time=0),
    Message('note_on', channel=9, note=57, velocity=127, time=0),
    Message('note_on', channel=9, note=36, velocity=127, time=0),
    Message('note_on', channel=9, note=36, velocity=0, time=60),
    Message('note_on', channel=9, note=57, velocity=0, time=0),
    Message('note_on', channel=9, note=57, velocity=127, time=0),
    Message('note_on', channel=9, note=36, velocity=127, time=0),
    Message('note_on', channel=9, note=36, velocity=0, time=60),
    Message('note_on', channel=9, note=57, velocity=0, time=0),
    Message('note_on', channel=9, note=59, velocity=127, time=0),
    Message('note_on', channel=9, note=59, velocity=0, time=60),
    Message('note_on', channel=9, note=59, velocity=127, time=0),
    Message('note_on', channel=9, note=59, velocity=0, time=60),
    Message('note_on', channel=9, note=36, velocity=127, time=0),
    Message('note_on', channel=9, note=59, velocity=127, time=0),
    Message('note_on', channel=9, note=59, velocity=0, time=60),
    Message('note_on', channel=9, note=36, velocity=0, time=0),
    Message('note_on', channel=9, note=36, velocity=127, time=0),
    Message('note_on', channel=9, note=59, velocity=127, time=0),
    Message('note_on', channel=9, note=59, velocity=0, time=60),
    Message('note_on', channel=9, note=36, velocity=0, time=0),
    Message('note_on', channel=9, note=38, velocity=127, time=0),
    Message('note_on', channel=9, note=38, velocity=0, time=60),
    Message('note_on', channel=9, note=50, velocity=127, time=0),
    Message('note_on', channel=9, note=50, velocity=0, time=60),
    Message('note_on', channel=9, note=48, velocity=127, time=0),
    Message('note_on', channel=9, note=48, velocity=0, time=60),
    Message('note_on', channel=9, note=36, velocity=127, time=0),
    Message('note_on', channel=9, note=57, velocity=127, time=0),
    Message('note_on', channel=9, note=57, velocity=0, time=60),
    Message('note_on', channel=9, note=36, velocity=0, time=0),
    Message('note_on', channel=9, note=59, velocity=127, time=0),
    Message('note_on', channel=9, note=59, velocity=0, time=60),
    Message('note_on', channel=9, note=59, velocity=127, time=0),
    Message('note_on', channel=9, note=59, velocity=0, time=60),
    Message('note_on', channel=9, note=36, velocity=127, time=0),
    Message('note_on', channel=9, note=59, velocity=127, time=0),
    Message('note_on', channel=9, note=59, velocity=0, time=60),
    Message('note_on', channel=9, note=36, velocity=0, time=0),
    Message('note_on', channel=9, note=36, velocity=127, time=0),
    Message('note_on', channel=9, note=59, velocity=127, time=0),
    Message('note_on', channel=9, note=59, velocity=0, time=60),
    Message('note_on', channel=9, note=36, velocity=0, time=0),
    Message('note_on', channel=9, note=38, velocity=127, time=0),
    Message('note_on', channel=9, note=38, velocity=0, time=60),
    Message('note_on', channel=9, note=36, velocity=127, time=0),
    Message('note_on', channel=9, note=57, velocity=127, time=0),
    Message('note_on', channel=9, note=57, velocity=0, time=60),
    Message('note_on', channel=9, note=36, velocity=0, time=0),
    Message('note_on', channel=9, note=36, velocity=127, time=0),
    Message('note_on', channel=9, note=57, velocity=127, time=0),
    Message('note_on', channel=9, note=57, velocity=0, time=60),
    Message('note_on', channel=9, note=36, velocity=0, time=0),
    Message('note_on', channel=9, note=36, velocity=127, time=0),
    Message('note_on', channel=9, note=57, velocity=127, time=0),
    Message('note_on', channel=9, note=57, velocity=0, time=60),
    Message('note_on', channel=9, note=36, velocity=0, time=0),
    Message('note_on', channel=9, note=59, velocity=127, time=0),
    Message('note_on', channel=9, note=59, velocity=0, time=60),
    Message('note_on', channel=9, note=59, velocity=127, time=0),
    Message('note_on', channel=9, note=59, velocity=0, time=60),
    Message('note_on', channel=9, note=36, velocity=127, time=0),
    Message('note_on', channel=9, note=59, velocity=127, time=0),
    Message('note_on', channel=9, note=59, velocity=0, time=60),
    Message('note_on', channel=9, note=36, velocity=0, time=0),
    Message('note_on', channel=9, note=36, velocity=127, time=0),
    Message('note_on', channel=9, note=59, velocity=127, time=0),
    Message('note_on', channel=9, note=59, velocity=0, time=60),
    Message('note_on', channel=9, note=36, velocity=0, time=0),
    Message('note_on', channel=9, note=38, velocity=127, time=0),
    Message('note_on', channel=9, note=38, velocity=0, time=60),
    Message('note_on', channel=9, note=50, velocity=127, time=0),
    Message('note_on', channel=9, note=50, velocity=0, time=60),
    Message('note_on', channel=9, note=48, velocity=127, time=0),
    Message('note_on', channel=9, note=48, velocity=0, time=60),
    Message('note_on', channel=9, note=36, velocity=127, time=0),
    Message('note_on', channel=9, note=57, velocity=127, time=0),
    Message('note_on', channel=9, note=57, velocity=0, time=60),
    Message('note_on', channel=9, note=36, velocity=0, time=0),
    Message('note_on', channel=9, note=59, velocity=127, time=0),
    Message('note_on', channel=9, note=59, velocity=0, time=60),
    Message('note_on', channel=9, note=59, velocity=127, time=0),
    Message('note_on', channel=9, note=59, velocity=0, time=60),
    Message('note_on', channel=9, note=36, velocity=127, time=0),
    Message('note_on', channel=9, note=59, velocity=127, time=0),
    Message('note_on', channel=9, note=59, velocity=0, time=60),
    Message('note_on', channel=9, note=36, velocity=0, time=0),
    Message('note_on', channel=9, note=36, velocity=127, time=0),
    Message('note_on', channel=9, note=59, velocity=127, time=0),
    Message('note_on', channel=9, note=59, velocity=0, time=60),
    Message('note_on', channel=9, note=36, velocity=0, time=0),
    Message('note_on', channel=9, note=38, velocity=127, time=0),
    Message('note_on', channel=9, note=38, velocity=0, time=60),
    Message('note_on', channel=9, note=36, velocity=127, time=0),
    Message('note_on', channel=9, note=57, velocity=127, time=0),
    Message('note_on', channel=9, note=57, velocity=0, time=60),
    Message('note_on', channel=9, note=36, velocity=0, time=0),
    Message('note_on', channel=9, note=36, velocity=127, time=0),
    Message('note_on', channel=9, note=57, velocity=127, time=0),
    Message('note_on', channel=9, note=57, velocity=0, time=60),
    Message('note_on', channel=9, note=36, velocity=0, time=0),
    Message('note_on', channel=9, note=36, velocity=127, time=0),
    Message('note_on', channel=9, note=57, velocity=127, time=0),
    Message('note_on', channel=9, note=57, velocity=0, time=60),
    Message('note_on', channel=9, note=36, velocity=0, time=0),
    Message('note_on', channel=9, note=36, velocity=127, time=0),
    Message('note_on', channel=9, note=57, velocity=127, time=0),
    Message('note_on', channel=9, note=38, velocity=127, time=45),
    Message('note_on', channel=9, note=38, velocity=0, time=15),
    Message('note_on', channel=9, note=57, velocity=0, time=0),
    Message('note_on', channel=9, note=38, velocity=127, time=0),
    Message('note_on', channel=9, note=38, velocity=0, time=60),
    Message('note_on', channel=9, note=36, velocity=0, time=0),
    Message('note_on', channel=9, note=36, velocity=127, time=0),
    Message('note_on', channel=9, note=36, velocity=0, time=60),
    Message('note_on', channel=9, note=36, velocity=127, time=0),
    Message('note_on', channel=9, note=38, velocity=127, time=45),
    Message('note_on', channel=9, note=38, velocity=0, time=15),
    Message('note_on', channel=9, note=36, velocity=0, time=0),
    Message('note_on', channel=9, note=38, velocity=127, time=0),
    Message('note_on', channel=9, note=36, velocity=127, time=60),
    Message('note_on', channel=9, note=36, velocity=0, time=60),
    Message('note_on', channel=9, note=38, velocity=0, time=0),
    Message('note_on', channel=9, note=57, velocity=127, time=0),
    Message('note_on', channel=9, note=36, velocity=127, time=0),
    Message('note_on', channel=9, note=36, velocity=0, time=60),
    Message('note_on', channel=9, note=57, velocity=0, time=0),
    Message('note_on', channel=9, note=57, velocity=127, time=0),
    Message('note_on', channel=9, note=36, velocity=127, time=0),
    Message('note_on', channel=9, note=36, velocity=0, time=60),
    Message('note_on', channel=9, note=57, velocity=0, time=0),
    Message('note_on', channel=9, note=36, velocity=127, time=120),
    Message('note_on', channel=9, note=57, velocity=127, time=0),
    Message('note_on', channel=9, note=57, velocity=0, time=60),
    Message('note_on', channel=9, note=36, velocity=0, time=0),
    Message('note_on', channel=9, note=57, velocity=127, time=0),
    Message('note_on', channel=9, note=36, velocity=127, time=0),
    Message('note_on', channel=9, note=36, velocity=0, time=60),
    Message('note_on', channel=9, note=57, velocity=0, time=0),
    Message('note_on', channel=9, note=36, velocity=127, time=120),
    Message('note_on', channel=9, note=57, velocity=127, time=0),
    Message('note_on', channel=9, note=57, velocity=0, time=60),
    Message('note_on', channel=9, note=36, velocity=0, time=0),
    Message('note_on', channel=9, note=36, velocity=127, time=0),
    Message('note_on', channel=9, note=57, velocity=127, time=0),
    Message('note_on', channel=9, note=57, velocity=0, time=60),
    Message('note_on', channel=9, note=36, velocity=0, time=0),
    Message('note_on', channel=9, note=36, velocity=127, time=120),
    Message('note_on', channel=9, note=57, velocity=127, time=0),
    Message('note_on', channel=9, note=57, velocity=0, time=120),
    Message('note_on', channel=9, note=36, velocity=0, time=0),
    Message('note_on', channel=9, note=36, velocity=127, time=840),
    Message('note_on', channel=9, note=57, velocity=127, time=0),
    Message('note_on', channel=9, note=57, velocity=0, time=120),
    Message('note_on', channel=9, note=36, velocity=0, time=0),
    Message('note_on', channel=9, note=36, velocity=127, time=240),
    Message('note_on', channel=9, note=57, velocity=127, time=0),
    Message('note_on', channel=9, note=57, velocity=0, time=60),
    Message('note_on', channel=9, note=36, velocity=0, time=0),
    Message('note_on', channel=9, note=36, velocity=127, time=0),
    Message('note_on', channel=9, note=57, velocity=127, time=0),
    Message('note_on', channel=9, note=57, velocity=0, time=60),
    Message('note_on', channel=9, note=36, velocity=0, time=0),
    Message('note_on', channel=9, note=36, velocity=127, time=120),
    Message('note_on', channel=9, note=57, velocity=127, time=0),
    Message('note_on', channel=9, note=57, velocity=0, time=60),
    Message('note_on', channel=9, note=36, velocity=0, time=0),
    Message('note_on', channel=9, note=57, velocity=127, time=0),
    Message('note_on', channel=9, note=36, velocity=127, time=0),
    Message('note_on', channel=9, note=36, velocity=0, time=60),
    Message('note_on', channel=9, note=57, velocity=0, time=0),
    Message('note_on', channel=9, note=57, velocity=127, time=120),
    Message('note_on', channel=9, note=36, velocity=127, time=0),
    Message('note_on', channel=9, note=36, velocity=0, time=60),
    Message('note_on', channel=9, note=57, velocity=0, time=0),
    Message('note_on', channel=9, note=57, velocity=127, time=0),
    Message('note_on', channel=9, note=36, velocity=127, time=0),
    Message('note_on', channel=9, note=36, velocity=0, time=60),
    Message('note_on', channel=9, note=57, velocity=0, time=0),
    Message('note_on', channel=9, note=42, velocity=127, time=0),
    Message('note_on', channel=9, note=42, velocity=0, time=60),
    Message('note_on', channel=9, note=42, velocity=127, time=0),
    Message('note_on', channel=9, note=42, velocity=0, time=60),
    Message('note_on', channel=9, note=36, velocity=127, time=0),
    Message('note_on', channel=9, note=42, velocity=127, time=0),
    Message('note_on', channel=9, note=42, velocity=0, time=60),
    Message('note_on', channel=9, note=36, velocity=0, time=0),
    Message('note_on', channel=9, note=36, velocity=127, time=0),
    Message('note_on', channel=9, note=42, velocity=127, time=0),
    Message('note_on', channel=9, note=42, velocity=0, time=60),
    Message('note_on', channel=9, note=36, velocity=0, time=0),
    Message('note_on', channel=9, note=38, velocity=127, time=0),
    Message('note_on', channel=9, note=42, velocity=127, time=0),
    Message('note_on', channel=9, note=42, velocity=0, time=60),
    Message('note_on', channel=9, note=38, velocity=0, time=0),
    Message('note_on', channel=9, note=42, velocity=127, time=0),
    Message('note_on', channel=9, note=42, velocity=0, time=60),
    Message('note_on', channel=9, note=36, velocity=127, time=0),
    Message('note_on', channel=9, note=42, velocity=127, time=0),
    Message('note_on', channel=9, note=42, velocity=0, time=60),
    Message('note_on', channel=9, note=36, velocity=0, time=0),
    Message('note_on', channel=9, note=36, velocity=127, time=0),
    Message('note_on', channel=9, note=42, velocity=127, time=0),
    Message('note_on', channel=9, note=42, velocity=0, time=60),
    Message('note_on', channel=9, note=36, velocity=0, time=0),
    Message('note_on', channel=9, note=42, velocity=127, time=0),
    Message('note_on', channel=9, note=42, velocity=0, time=60),
    Message('note_on', channel=9, note=36, velocity=127, time=0),
    Message('note_on', channel=9, note=42, velocity=127, time=0),
    Message('note_on', channel=9, note=42, velocity=0, time=60),
    Message('note_on', channel=9, note=36, velocity=0, time=0),
    Message('note_on', channel=9, note=36, velocity=127, time=0),
    Message('note_on', channel=9, note=42, velocity=127, time=0),
    Message('note_on', channel=9, note=42, velocity=0, time=60),
    Message('note_on', channel=9, note=36, velocity=0, time=0),
    Message('note_on', channel=9, note=36, velocity=127, time=0),
    Message('note_on', channel=9, note=42, velocity=127, time=0),
    Message('note_on', channel=9, note=42, velocity=0, time=60),
    Message('note_on', channel=9, note=36, velocity=0, time=0),
    Message('note_on', channel=9, note=38, velocity=127, time=0),
    Message('note_on', channel=9, note=42, velocity=127, time=0),
    Message('note_on', channel=9, note=42, velocity=0, time=60),
    Message('note_on', channel=9, note=38, velocity=0, time=0),
    Message('note_on', channel=9, note=36, velocity=127, time=0),
    Message('note_on', channel=9, note=42, velocity=127, time=0),
    Message('note_on', channel=9, note=42, velocity=0, time=60),
    Message('note_on', channel=9, note=36, velocity=0, time=0),
    Message('note_on', channel=9, note=36, velocity=127, time=0),
    Message('note_on', channel=9, note=42, velocity=127, time=0),
    Message('note_on', channel=9, note=42, velocity=0, time=60),
    Message('note_on', channel=9, note=36, velocity=0, time=0),
    Message('note_on', channel=9, note=36, velocity=127, time=0),
    Message('note_on', channel=9, note=42, velocity=127, time=0),
    Message('note_on', channel=9, note=42, velocity=0, time=60),
    Message('note_on', channel=9, note=36, velocity=0, time=0),
    Message('note_on', channel=9, note=36, velocity=127, time=0),
    Message('note_on', channel=9, note=57, velocity=127, time=0),
    Message('note_on', channel=9, note=57, velocity=0, time=60),
    Message('note_on', channel=9, note=42, velocity=127, time=0),
    Message('note_on', channel=9, note=42, velocity=0, time=60),
    Message('note_on', channel=9, note=36, velocity=0, time=0),
    Message('note_on', channel=9, note=42, velocity=127, time=0),
    Message('note_on', channel=9, note=42, velocity=0, time=60),
    Message('note_on', channel=9, note=36, velocity=127, time=0),
    Message('note_on', channel=9, note=42, velocity=127, time=0),
    Message('note_on', channel=9, note=42, velocity=0, time=60),
    Message('note_on', channel=9, note=36, velocity=0, time=0),
    Message('note_on', channel=9, note=38, velocity=127, time=0),
    Message('note_on', channel=9, note=42, velocity=127, time=0),
    Message('note_on', channel=9, note=42, velocity=0, time=60),
    Message('note_on', channel=9, note=38, velocity=0, time=0),
    Message('note_on', channel=9, note=42, velocity=127, time=0),
    Message('note_on', channel=9, note=42, velocity=0, time=60),
    Message('note_on', channel=9, note=57, velocity=127, time=0),
    Message('note_on', channel=9, note=36, velocity=127, time=0),
    Message('note_on', channel=9, note=36, velocity=0, time=60),
    Message('note_on', channel=9, note=57, velocity=0, time=0),
    Message('note_on', channel=9, note=36, velocity=127, time=0),
    Message('note_on', channel=9, note=57, velocity=127, time=0),
    Message('note_on', channel=9, note=57, velocity=0, time=60),
    Message('note_on', channel=9, note=36, velocity=0, time=0),
    Message('note_on', channel=9, note=42, velocity=127, time=0),
    Message('note_on', channel=9, note=42, velocity=0, time=60),
    Message('note_on', channel=9, note=42, velocity=127, time=0),
    Message('note_on', channel=9, note=42, velocity=0, time=60),
    Message('note_on', channel=9, note=36, velocity=127, time=0),
    Message('note_on', channel=9, note=57, velocity=127, time=0),
    Message('note_on', channel=9, note=57, velocity=0, time=60),
    Message('note_on', channel=9, note=36, velocity=0, time=0),
    Message('note_on', channel=9, note=36, velocity=127, time=0),
    Message('note_on', channel=9, note=57, velocity=127, time=0),
    Message('note_on', channel=9, note=57, velocity=0, time=60),
    Message('note_on', channel=9, note=36, velocity=0, time=0),
    Message('note_on', channel=9, note=42, velocity=127, time=0),
    Message('note_on', channel=9, note=38, velocity=127, time=0),
    Message('note_on', channel=9, note=38, velocity=0, time=60),
    Message('note_on', channel=9, note=42, velocity=0, time=0),
    Message('note_on', channel=9, note=42, velocity=127, time=0),
    Message('note_on', channel=9, note=42, velocity=0, time=60),
    Message('note_on', channel=9, note=36, velocity=127, time=0),
    Message('note_on', channel=9, note=57, velocity=127, time=0),
    Message('note_on', channel=9, note=57, velocity=0, time=60),
    Message('note_on', channel=9, note=36, velocity=0, time=0),
    Message('note_on', channel=9, note=36, velocity=127, time=0),
    Message('note_on', channel=9, note=57, velocity=127, time=0),
    Message('note_on', channel=9, note=57, velocity=0, time=60),
    Message('note_on', channel=9, note=36, velocity=0, time=0),
    Message('note_on', channel=9, note=42, velocity=127, time=0),
    Message('note_on', channel=9, note=42, velocity=0, time=60),
    Message('note_on', channel=9, note=42, velocity=127, time=0),
    Message('note_on', channel=9, note=42, velocity=0, time=60),
    Message('note_on', channel=9, note=36, velocity=127, time=0),
    Message('note_on', channel=9, note=42, velocity=127, time=0),
    Message('note_on', channel=9, note=42, velocity=0, time=60),
    Message('note_on', channel=9, note=36, velocity=0, time=0),
    Message('note_on', channel=9, note=36, velocity=127, time=0),
    Message('note_on', channel=9, note=42, velocity=127, time=0),
    Message('note_on', channel=9, note=42, velocity=0, time=60),
    Message('note_on', channel=9, note=36, velocity=0, time=0),
    Message('note_on', channel=9, note=38, velocity=127, time=0),
    Message('note_on', channel=9, note=42, velocity=127, time=0),
    Message('note_on', channel=9, note=42, velocity=0, time=60),
    Message('note_on', channel=9, note=38, velocity=0, time=0),
    Message('note_on', channel=9, note=42, velocity=127, time=0),
    Message('note_on', channel=9, note=42, velocity=0, time=60),
    Message('note_on', channel=9, note=36, velocity=127, time=0),
    Message('note_on', channel=9, note=42, velocity=127, time=0),
    Message('note_on', channel=9, note=42, velocity=0, time=60),
    Message('note_on', channel=9, note=36, velocity=0, time=0),
    Message('note_on', channel=9, note=36, velocity=127, time=0),
    Message('note_on', channel=9, note=42, velocity=127, time=0),
    Message('note_on', channel=9, note=42, velocity=0, time=60),
    Message('note_on', channel=9, note=36, velocity=0, time=0),
    Message('note_on', channel=9, note=42, velocity=127, time=0),
    Message('note_on', channel=9, note=42, velocity=0, time=60),
    Message('note_on', channel=9, note=36, velocity=127, time=0),
    Message('note_on', channel=9, note=42, velocity=127, time=0),
    Message('note_on', channel=9, note=42, velocity=0, time=60),
    Message('note_on', channel=9, note=36, velocity=0, time=0),
    Message('note_on', channel=9, note=36, velocity=127, time=0),
    Message('note_on', channel=9, note=42, velocity=127, time=0),
    Message('note_on', channel=9, note=42, velocity=0, time=60),
    Message('note_on', channel=9, note=36, velocity=0, time=0),
    Message('note_on', channel=9, note=36, velocity=127, time=0),
    Message('note_on', channel=9, note=42, velocity=127, time=0),
    Message('note_on', channel=9, note=42, velocity=0, time=60),
    Message('note_on', channel=9, note=36, velocity=0, time=0),
    Message('note_on', channel=9, note=38, velocity=127, time=0),
    Message('note_on', channel=9, note=42, velocity=127, time=0),
    Message('note_on', channel=9, note=42, velocity=0, time=60),
    Message('note_on', channel=9, note=38, velocity=0, time=0),
    Message('note_on', channel=9, note=36, velocity=127, time=0),
    Message('note_on', channel=9, note=42, velocity=127, time=0),
    Message('note_on', channel=9, note=42, velocity=0, time=60),
    Message('note_on', channel=9, note=36, velocity=0, time=0),
    Message('note_on', channel=9, note=36, velocity=127, time=0),
    Message('note_on', channel=9, note=42, velocity=127, time=0),
    Message('note_on', channel=9, note=42, velocity=0, time=60),
    Message('note_on', channel=9, note=36, velocity=0, time=0),
    Message('note_on', channel=9, note=36, velocity=127, time=0),
    Message('note_on', channel=9, note=42, velocity=127, time=0),
    Message('note_on', channel=9, note=42, velocity=0, time=60),
    Message('note_on', channel=9, note=36, velocity=0, time=0),
    Message('note_on', channel=9, note=36, velocity=127, time=0),
    Message('note_on', channel=9, note=57, velocity=127, time=0),
    Message('note_on', channel=9, note=57, velocity=0, time=60),
    Message('note_on', channel=9, note=42, velocity=127, time=0),
    Message('note_on', channel=9, note=42, velocity=0, time=60),
    Message('note_on', channel=9, note=36, velocity=0, time=0),
    Message('note_on', channel=9, note=42, velocity=127, time=0),
    Message('note_on', channel=9, note=42, velocity=0, time=60),
    Message('note_on', channel=9, note=36, velocity=127, time=0),
    Message('note_on', channel=9, note=42, velocity=127, time=0),
    Message('note_on', channel=9, note=42, velocity=0, time=60),
    Message('note_on', channel=9, note=36, velocity=0, time=0),
    Message('note_on', channel=9, note=38, velocity=127, time=0),
    Message('note_on', channel=9, note=42, velocity=127, time=0),
    Message('note_on', channel=9, note=42, velocity=0, time=60),
    Message('note_on', channel=9, note=38, velocity=0, time=0),
    Message('note_on', channel=9, note=42, velocity=127, time=0),
    Message('note_on', channel=9, note=42, velocity=0, time=60),
    Message('note_on', channel=9, note=57, velocity=127, time=0),
    Message('note_on', channel=9, note=36, velocity=127, time=0),
    Message('note_on', channel=9, note=36, velocity=0, time=60),
    Message('note_on', channel=9, note=57, velocity=0, time=0),
    Message('note_on', channel=9, note=36, velocity=127, time=0),
    Message('note_on', channel=9, note=57, velocity=127, time=0),
    Message('note_on', channel=9, note=57, velocity=0, time=60),
    Message('note_on', channel=9, note=36, velocity=0, time=0),
    Message('note_on', channel=9, note=42, velocity=127, time=0),
    Message('note_on', channel=9, note=42, velocity=0, time=60),
    Message('note_on', channel=9, note=42, velocity=127, time=0),
    Message('note_on', channel=9, note=42, velocity=0, time=60),
    Message('note_on', channel=9, note=36, velocity=127, time=0),
    Message('note_on', channel=9, note=57, velocity=127, time=0),
    Message('note_on', channel=9, note=57, velocity=0, time=60),
    Message('note_on', channel=9, note=36, velocity=0, time=0),
    Message('note_on', channel=9, note=36, velocity=127, time=0),
    Message('note_on', channel=9, note=57, velocity=127, time=0),
    Message('note_on', channel=9, note=57, velocity=0, time=60),
    Message('note_on', channel=9, note=36, velocity=0, time=0),
    Message('note_on', channel=9, note=42, velocity=127, time=0),
    Message('note_on', channel=9, note=38, velocity=127, time=0),
    Message('note_on', channel=9, note=38, velocity=0, time=60),
    Message('note_on', channel=9, note=42, velocity=0, time=0),
    Message('note_on', channel=9, note=42, velocity=127, time=0),
    Message('note_on', channel=9, note=42, velocity=0, time=60),
    Message('note_on', channel=9, note=36, velocity=127, time=0),
    Message('note_on', channel=9, note=57, velocity=127, time=0),
    Message('note_on', channel=9, note=57, velocity=0, time=60),
    Message('note_on', channel=9, note=36, velocity=0, time=0),
    Message('note_on', channel=9, note=36, velocity=127, time=0),
    Message('note_on', channel=9, note=57, velocity=127, time=0),
    Message('note_on', channel=9, note=57, velocity=0, time=60),
    Message('note_on', channel=9, note=36, velocity=0, time=0),
    Message('note_on', channel=9, note=42, velocity=127, time=0),
    Message('note_on', channel=9, note=42, velocity=0, time=60),
    Message('note_on', channel=9, note=42, velocity=127, time=0),
    Message('note_on', channel=9, note=42, velocity=0, time=60),
    Message('note_on', channel=9, note=36, velocity=127, time=0),
    Message('note_on', channel=9, note=42, velocity=127, time=0),
    Message('note_on', channel=9, note=42, velocity=0, time=60),
    Message('note_on', channel=9, note=36, velocity=0, time=0),
    Message('note_on', channel=9, note=36, velocity=127, time=0),
    Message('note_on', channel=9, note=42, velocity=127, time=0),
    Message('note_on', channel=9, note=42, velocity=0, time=60),
    Message('note_on', channel=9, note=36, velocity=0, time=0),
    Message('note_on', channel=9, note=38, velocity=127, time=0),
    Message('note_on', channel=9, note=42, velocity=127, time=0),
    Message('note_on', channel=9, note=42, velocity=0, time=60),
    Message('note_on', channel=9, note=38, velocity=0, time=0),
    Message('note_on', channel=9, note=42, velocity=127, time=0),
    Message('note_on', channel=9, note=42, velocity=0, time=60),
    Message('note_on', channel=9, note=36, velocity=127, time=0),
    Message('note_on', channel=9, note=42, velocity=127, time=0),
    Message('note_on', channel=9, note=42, velocity=0, time=60),
    Message('note_on', channel=9, note=36, velocity=0, time=0),
    Message('note_on', channel=9, note=36, velocity=127, time=0),
    Message('note_on', channel=9, note=42, velocity=127, time=0),
    Message('note_on', channel=9, note=42, velocity=0, time=60),
    Message('note_on', channel=9, note=36, velocity=0, time=0),
    Message('note_on', channel=9, note=42, velocity=127, time=0),
    Message('note_on', channel=9, note=42, velocity=0, time=60),
    Message('note_on', channel=9, note=36, velocity=127, time=0),
    Message('note_on', channel=9, note=42, velocity=127, time=0),
    Message('note_on', channel=9, note=42, velocity=0, time=60),
    Message('note_on', channel=9, note=36, velocity=0, time=0),
    Message('note_on', channel=9, note=36, velocity=127, time=0),
    Message('note_on', channel=9, note=42, velocity=127, time=0),
    Message('note_on', channel=9, note=42, velocity=0, time=60),
    Message('note_on', channel=9, note=36, velocity=0, time=0),
    Message('note_on', channel=9, note=36, velocity=127, time=0),
    Message('note_on', channel=9, note=42, velocity=127, time=0),
    Message('note_on', channel=9, note=42, velocity=0, time=60),
    Message('note_on', channel=9, note=36, velocity=0, time=0),
    Message('note_on', channel=9, note=38, velocity=127, time=0),
    Message('note_on', channel=9, note=42, velocity=127, time=0),
    Message('note_on', channel=9, note=42, velocity=0, time=60),
    Message('note_on', channel=9, note=38, velocity=0, time=0),
    Message('note_on', channel=9, note=36, velocity=127, time=0),
    Message('note_on', channel=9, note=42, velocity=127, time=0),
    Message('note_on', channel=9, note=42, velocity=0, time=60),
    Message('note_on', channel=9, note=36, velocity=0, time=0),
    Message('note_on', channel=9, note=36, velocity=127, time=0),
    Message('note_on', channel=9, note=42, velocity=127, time=0),
    Message('note_on', channel=9, note=42, velocity=0, time=60),
    Message('note_on', channel=9, note=36, velocity=0, time=0),
    Message('note_on', channel=9, note=36, velocity=127, time=0),
    Message('note_on', channel=9, note=42, velocity=127, time=0),
    Message('note_on', channel=9, note=42, velocity=0, time=60),
    Message('note_on', channel=9, note=36, velocity=0, time=0),
    Message('note_on', channel=9, note=36, velocity=127, time=0),
    Message('note_on', channel=9, note=57, velocity=127, time=0),
    Message('note_on', channel=9, note=57, velocity=0, time=60),
    Message('note_on', channel=9, note=42, velocity=127, time=0),
    Message('note_on', channel=9, note=42, velocity=0, time=60),
    Message('note_on', channel=9, note=36, velocity=0, time=0),
    Message('note_on', channel=9, note=42, velocity=127, time=0),
    Message('note_on', channel=9, note=42, velocity=0, time=60),
    Message('note_on', channel=9, note=36, velocity=127, time=0),
    Message('note_on', channel=9, note=42, velocity=127, time=0),
    Message('note_on', channel=9, note=42, velocity=0, time=60),
    Message('note_on', channel=9, note=36, velocity=0, time=0),
    Message('note_on', channel=9, note=38, velocity=127, time=0),
    Message('note_on', channel=9, note=42, velocity=127, time=0),
    Message('note_on', channel=9, note=42, velocity=0, time=60),
    Message('note_on', channel=9, note=38, velocity=0, time=0),
    Message('note_on', channel=9, note=42, velocity=127, time=0),
    Message('note_on', channel=9, note=42, velocity=0, time=60),
    Message('note_on', channel=9, note=57, velocity=127, time=0),
    Message('note_on', channel=9, note=36, velocity=127, time=0),
    Message('note_on', channel=9, note=36, velocity=0, time=60),
    Message('note_on', channel=9, note=57, velocity=0, time=0),
    Message('note_on', channel=9, note=36, velocity=127, time=0),
    Message('note_on', channel=9, note=57, velocity=127, time=0),
    Message('note_on', channel=9, note=57, velocity=0, time=60),
    Message('note_on', channel=9, note=36, velocity=0, time=0),
    Message('note_on', channel=9, note=42, velocity=127, time=0),
    Message('note_on', channel=9, note=42, velocity=0, time=60),
    Message('note_on', channel=9, note=42, velocity=127, time=0),
    Message('note_on', channel=9, note=42, velocity=0, time=60),
    Message('note_on', channel=9, note=36, velocity=127, time=0),
    Message('note_on', channel=9, note=57, velocity=127, time=0),
    Message('note_on', channel=9, note=57, velocity=0, time=60),
    Message('note_on', channel=9, note=36, velocity=0, time=0),
    Message('note_on', channel=9, note=36, velocity=127, time=0),
    Message('note_on', channel=9, note=57, velocity=127, time=0),
    Message('note_on', channel=9, note=57, velocity=0, time=60),
    Message('note_on', channel=9, note=36, velocity=0, time=0),
    Message('note_on', channel=9, note=42, velocity=127, time=0),
    Message('note_on', channel=9, note=38, velocity=127, time=0),
    Message('note_on', channel=9, note=38, velocity=0, time=60),
    Message('note_on', channel=9, note=42, velocity=0, time=0),
    Message('note_on', channel=9, note=42, velocity=127, time=0),
    Message('note_on', channel=9, note=42, velocity=0, time=60),
    Message('note_on', channel=9, note=36, velocity=127, time=0),
    Message('note_on', channel=9, note=57, velocity=127, time=0),
    Message('note_on', channel=9, note=57, velocity=0, time=60),
    Message('note_on', channel=9, note=36, velocity=0, time=0),
    Message('note_on', channel=9, note=36, velocity=127, time=0),
    Message('note_on', channel=9, note=57, velocity=127, time=0),
    Message('note_on', channel=9, note=57, velocity=0, time=60),
    Message('note_on', channel=9, note=36, velocity=0, time=0),
    Message('note_on', channel=9, note=42, velocity=127, time=0),
    Message('note_on', channel=9, note=42, velocity=0, time=60),
    Message('note_on', channel=9, note=42, velocity=127, time=0),
    Message('note_on', channel=9, note=42, velocity=0, time=60),
    Message('note_on', channel=9, note=36, velocity=127, time=0),
    Message('note_on', channel=9, note=42, velocity=127, time=0),
    Message('note_on', channel=9, note=42, velocity=0, time=60),
    Message('note_on', channel=9, note=36, velocity=0, time=0),
    Message('note_on', channel=9, note=36, velocity=127, time=0),
    Message('note_on', channel=9, note=42, velocity=127, time=0),
    Message('note_on', channel=9, note=42, velocity=0, time=60),
    Message('note_on', channel=9, note=36, velocity=0, time=0),
    Message('note_on', channel=9, note=38, velocity=127, time=0),
    Message('note_on', channel=9, note=42, velocity=127, time=0),
    Message('note_on', channel=9, note=42, velocity=0, time=60),
    Message('note_on', channel=9, note=38, velocity=0, time=0),
    Message('note_on', channel=9, note=42, velocity=127, time=0),
    Message('note_on', channel=9, note=42, velocity=0, time=60),
    Message('note_on', channel=9, note=36, velocity=127, time=0),
    Message('note_on', channel=9, note=42, velocity=127, time=0),
    Message('note_on', channel=9, note=42, velocity=0, time=60),
    Message('note_on', channel=9, note=36, velocity=0, time=0),
    Message('note_on', channel=9, note=36, velocity=127, time=0),
    Message('note_on', channel=9, note=42, velocity=127, time=0),
    Message('note_on', channel=9, note=42, velocity=0, time=60),
    Message('note_on', channel=9, note=36, velocity=0, time=0),
    Message('note_on', channel=9, note=42, velocity=127, time=0),
    Message('note_on', channel=9, note=42, velocity=0, time=60),
    Message('note_on', channel=9, note=36, velocity=127, time=0),
    Message('note_on', channel=9, note=42, velocity=127, time=0),
    Message('note_on', channel=9, note=42, velocity=0, time=60),
    Message('note_on', channel=9, note=36, velocity=0, time=0),
    Message('note_on', channel=9, note=36, velocity=127, time=0),
    Message('note_on', channel=9, note=42, velocity=127, time=0),
    Message('note_on', channel=9, note=42, velocity=0, time=60),
    Message('note_on', channel=9, note=36, velocity=0, time=0),
    Message('note_on', channel=9, note=36, velocity=127, time=0),
    Message('note_on', channel=9, note=42, velocity=127, time=0),
    Message('note_on', channel=9, note=42, velocity=0, time=60),
    Message('note_on', channel=9, note=36, velocity=0, time=0),
    Message('note_on', channel=9, note=38, velocity=127, time=0),
    Message('note_on', channel=9, note=42, velocity=127, time=0),
    Message('note_on', channel=9, note=42, velocity=0, time=60),
    Message('note_on', channel=9, note=38, velocity=0, time=0),
    Message('note_on', channel=9, note=36, velocity=127, time=0),
    Message('note_on', channel=9, note=42, velocity=127, time=0),
    Message('note_on', channel=9, note=42, velocity=0, time=60),
    Message('note_on', channel=9, note=36, velocity=0, time=0),
    Message('note_on', channel=9, note=36, velocity=127, time=0),
    Message('note_on', channel=9, note=42, velocity=127, time=0),
    Message('note_on', channel=9, note=42, velocity=0, time=60),
    Message('note_on', channel=9, note=36, velocity=0, time=0),
    Message('note_on', channel=9, note=36, velocity=127, time=0),
    Message('note_on', channel=9, note=42, velocity=127, time=0),
    Message('note_on', channel=9, note=42, velocity=0, time=60),
    Message('note_on', channel=9, note=36, velocity=0, time=0),
    Message('note_on', channel=9, note=36, velocity=127, time=0),
    Message('note_on', channel=9, note=57, velocity=127, time=0),
    Message('note_on', channel=9, note=57, velocity=0, time=60),
    Message('note_on', channel=9, note=42, velocity=127, time=0),
    Message('note_on', channel=9, note=42, velocity=0, time=60),
    Message('note_on', channel=9, note=36, velocity=0, time=0),
    Message('note_on', channel=9, note=42, velocity=127, time=0),
    Message('note_on', channel=9, note=42, velocity=0, time=60),
    Message('note_on', channel=9, note=36, velocity=127, time=0),
    Message('note_on', channel=9, note=42, velocity=127, time=0),
    Message('note_on', channel=9, note=42, velocity=0, time=60),
    Message('note_on', channel=9, note=36, velocity=0, time=0),
    Message('note_on', channel=9, note=38, velocity=127, time=0),
    Message('note_on', channel=9, note=42, velocity=127, time=0),
    Message('note_on', channel=9, note=42, velocity=0, time=60),
    Message('note_on', channel=9, note=38, velocity=0, time=0),
    Message('note_on', channel=9, note=36, velocity=127, time=0),
    Message('note_on', channel=9, note=42, velocity=127, time=0),
    Message('note_on', channel=9, note=36, velocity=0, time=20),
    Message('note_on', channel=9, note=36, velocity=127, time=0),
    Message('note_on', channel=9, note=36, velocity=0, time=20),
    Message('note_on', channel=9, note=36, velocity=127, time=0),
    Message('note_on', channel=9, note=36, velocity=0, time=20),
    Message('note_on', channel=9, note=42, velocity=0, time=0),
    Message('note_on', channel=9, note=57, velocity=127, time=0),
    Message('note_on', channel=9, note=38, velocity=127, time=0),
    Message('note_on', channel=9, note=38, velocity=0, time=60),
    Message('note_on', channel=9, note=57, velocity=0, time=0),
    Message('note_on', channel=9, note=36, velocity=127, time=0),
    Message('note_on', channel=9, note=57, velocity=127, time=0),
    Message('note_on', channel=9, note=57, velocity=0, time=60),
    Message('note_on', channel=9, note=36, velocity=0, time=0),
    Message('note_on', channel=9, note=42, velocity=127, time=0),
    Message('note_on', channel=9, note=42, velocity=0, time=60),
    Message('note_on', channel=9, note=36, velocity=127, time=0),
    Message('note_on', channel=9, note=42, velocity=127, time=0),
    Message('note_on', channel=9, note=36, velocity=0, time=20),
    Message('note_on', channel=9, note=36, velocity=127, time=0),
    Message('note_on', channel=9, note=36, velocity=0, time=20),
    Message('note_on', channel=9, note=36, velocity=127, time=0),
    Message('note_on', channel=9, note=36, velocity=0, time=20),
    Message('note_on', channel=9, note=42, velocity=0, time=0),
    Message('note_on', channel=9, note=38, velocity=127, time=0),
    Message('note_on', channel=9, note=57, velocity=127, time=0),
    Message('note_on', channel=9, note=57, velocity=0, time=60),
    Message('note_on', channel=9, note=38, velocity=0, time=0),
    Message('note_on', channel=9, note=36, velocity=127, time=0),
    Message('note_on', channel=9, note=57, velocity=127, time=0),
    Message('note_on', channel=9, note=57, velocity=0, time=60),
    Message('note_on', channel=9, note=36, velocity=0, time=0),
    Message('note_on', channel=9, note=42, velocity=127, time=0),
    Message('note_on', channel=9, note=42, velocity=0, time=60),
    Message('note_on', channel=9, note=36, velocity=127, time=0),
    Message('note_on', channel=9, note=42, velocity=127, time=0),
    Message('note_on', channel=9, note=36, velocity=0, time=20),
    Message('note_on', channel=9, note=36, velocity=127, time=0),
    Message('note_on', channel=9, note=36, velocity=0, time=20),
    Message('note_on', channel=9, note=36, velocity=127, time=0),
    Message('note_on', channel=9, note=36, velocity=0, time=20),
    Message('note_on', channel=9, note=42, velocity=0, time=0),
    Message('note_on', channel=9, note=38, velocity=127, time=0),
    Message('note_on', channel=9, note=57, velocity=127, time=0),
    Message('note_on', channel=9, note=57, velocity=0, time=60),
    Message('note_on', channel=9, note=38, velocity=0, time=0),
    Message('note_on', channel=9, note=36, velocity=127, time=0),
    Message('note_on', channel=9, note=57, velocity=127, time=0),
    Message('note_on', channel=9, note=57, velocity=0, time=60),
    Message('note_on', channel=9, note=36, velocity=0, time=0),
    Message('note_on', channel=9, note=59, velocity=127, time=0),
    Message('note_on', channel=9, note=59, velocity=0, time=60),
    Message('note_on', channel=9, note=59, velocity=127, time=0),
    Message('note_on', channel=9, note=59, velocity=0, time=60),
    Message('note_on', channel=9, note=36, velocity=127, time=0),
    Message('note_on', channel=9, note=59, velocity=127, time=0),
    Message('note_on', channel=9, note=59, velocity=0, time=60),
    Message('note_on', channel=9, note=36, velocity=0, time=0),
    Message('note_on', channel=9, note=36, velocity=127, time=0),
    Message('note_on', channel=9, note=59, velocity=127, time=0),
    Message('note_on', channel=9, note=59, velocity=0, time=60),
    Message('note_on', channel=9, note=36, velocity=0, time=0),
    Message('note_on', channel=9, note=38, velocity=127, time=0),
    Message('note_on', channel=9, note=38, velocity=0, time=60),
    Message('note_on', channel=9, note=50, velocity=127, time=0),
    Message('note_on', channel=9, note=50, velocity=0, time=60),
    Message('note_on', channel=9, note=48, velocity=127, time=0),
    Message('note_on', channel=9, note=48, velocity=0, time=60),
    Message('note_on', channel=9, note=36, velocity=127, time=0),
    Message('note_on', channel=9, note=57, velocity=127, time=0),
    Message('note_on', channel=9, note=57, velocity=0, time=60),
    Message('note_on', channel=9, note=36, velocity=0, time=0),
    Message('note_on', channel=9, note=59, velocity=127, time=0),
    Message('note_on', channel=9, note=59, velocity=0, time=60),
    Message('note_on', channel=9, note=59, velocity=127, time=0),
    Message('note_on', channel=9, note=59, velocity=0, time=60),
    Message('note_on', channel=9, note=36, velocity=127, time=0),
    Message('note_on', channel=9, note=59, velocity=127, time=0),
    Message('note_on', channel=9, note=59, velocity=0, time=60),
    Message('note_on', channel=9, note=36, velocity=0, time=0),
    Message('note_on', channel=9, note=36, velocity=127, time=0),
    Message('note_on', channel=9, note=59, velocity=127, time=0),
    Message('note_on', channel=9, note=59, velocity=0, time=60),
    Message('note_on', channel=9, note=36, velocity=0, time=0),
    Message('note_on', channel=9, note=38, velocity=127, time=0),
    Message('note_on', channel=9, note=38, velocity=0, time=60),
    Message('note_on', channel=9, note=57, velocity=127, time=0),
    Message('note_on', channel=9, note=36, velocity=127, time=0),
    Message('note_on', channel=9, note=36, velocity=0, time=60),
    Message('note_on', channel=9, note=57, velocity=0, time=0),
    Message('note_on', channel=9, note=57, velocity=127, time=0),
    Message('note_on', channel=9, note=36, velocity=127, time=0),
    Message('note_on', channel=9, note=36, velocity=0, time=60),
    Message('note_on', channel=9, note=57, velocity=0, time=0),
    Message('note_on', channel=9, note=57, velocity=127, time=0),
    Message('note_on', channel=9, note=36, velocity=127, time=0),
    Message('note_on', channel=9, note=36, velocity=0, time=60),
    Message('note_on', channel=9, note=57, velocity=0, time=0),
    Message('note_on', channel=9, note=59, velocity=127, time=0),
    Message('note_on', channel=9, note=59, velocity=0, time=60),
    Message('note_on', channel=9, note=59, velocity=127, time=0),
    Message('note_on', channel=9, note=59, velocity=0, time=60),
    Message('note_on', channel=9, note=36, velocity=127, time=0),
    Message('note_on', channel=9, note=59, velocity=127, time=0),
    Message('note_on', channel=9, note=59, velocity=0, time=60),
    Message('note_on', channel=9, note=36, velocity=0, time=0),
    Message('note_on', channel=9, note=36, velocity=127, time=0),
    Message('note_on', channel=9, note=59, velocity=127, time=0),
    Message('note_on', channel=9, note=59, velocity=0, time=60),
    Message('note_on', channel=9, note=36, velocity=0, time=0),
    Message('note_on', channel=9, note=38, velocity=127, time=0),
    Message('note_on', channel=9, note=38, velocity=0, time=60),
    Message('note_on', channel=9, note=50, velocity=127, time=0),
    Message('note_on', channel=9, note=50, velocity=0, time=60),
    Message('note_on', channel=9, note=48, velocity=127, time=0),
    Message('note_on', channel=9, note=48, velocity=0, time=60),
    Message('note_on', channel=9, note=36, velocity=127, time=0),
    Message('note_on', channel=9, note=57, velocity=127, time=0),
    Message('note_on', channel=9, note=57, velocity=0, time=60),
    Message('note_on', channel=9, note=36, velocity=0, time=0),
    Message('note_on', channel=9, note=59, velocity=127, time=0),
    Message('note_on', channel=9, note=59, velocity=0, time=60),
    Message('note_on', channel=9, note=59, velocity=127, time=0),
    Message('note_on', channel=9, note=59, velocity=0, time=60),
    Message('note_on', channel=9, note=36, velocity=127, time=0),
    Message('note_on', channel=9, note=59, velocity=127, time=0),
    Message('note_on', channel=9, note=59, velocity=0, time=60),
    Message('note_on', channel=9, note=36, velocity=0, time=0),
    Message('note_on', channel=9, note=36, velocity=127, time=0),
    Message('note_on', channel=9, note=59, velocity=127, time=0),
    Message('note_on', channel=9, note=59, velocity=0, time=60),
    Message('note_on', channel=9, note=36, velocity=0, time=0),
    Message('note_on', channel=9, note=38, velocity=127, time=0),
    Message('note_on', channel=9, note=38, velocity=0, time=60),
    Message('note_on', channel=9, note=57, velocity=127, time=0),
    Message('note_on', channel=9, note=36, velocity=127, time=0),
    Message('note_on', channel=9, note=36, velocity=0, time=60),
    Message('note_on', channel=9, note=57, velocity=0, time=0),
    Message('note_on', channel=9, note=57, velocity=127, time=0),
    Message('note_on', channel=9, note=36, velocity=127, time=0),
    Message('note_on', channel=9, note=36, velocity=0, time=60),
    Message('note_on', channel=9, note=57, velocity=0, time=0),
    Message('note_on', channel=9, note=57, velocity=127, time=0),
    Message('note_on', channel=9, note=36, velocity=127, time=0),
    Message('note_on', channel=9, note=36, velocity=0, time=60),
    Message('note_on', channel=9, note=57, velocity=0, time=0),
    Message('note_on', channel=9, note=59, velocity=127, time=0),
    Message('note_on', channel=9, note=59, velocity=0, time=60),
    Message('note_on', channel=9, note=59, velocity=127, time=0),
    Message('note_on', channel=9, note=59, velocity=0, time=60),
    Message('note_on', channel=9, note=36, velocity=127, time=0),
    Message('note_on', channel=9, note=59, velocity=127, time=0),
    Message('note_on', channel=9, note=59, velocity=0, time=60),
    Message('note_on', channel=9, note=36, velocity=0, time=0),
    Message('note_on', channel=9, note=36, velocity=127, time=0),
    Message('note_on', channel=9, note=59, velocity=127, time=0),
    Message('note_on', channel=9, note=59, velocity=0, time=60),
    Message('note_on', channel=9, note=36, velocity=0, time=0),
    Message('note_on', channel=9, note=38, velocity=127, time=0),
    Message('note_on', channel=9, note=38, velocity=0, time=60),
    Message('note_on', channel=9, note=50, velocity=127, time=0),
    Message('note_on', channel=9, note=50, velocity=0, time=60),
    Message('note_on', channel=9, note=48, velocity=127, time=0),
    Message('note_on', channel=9, note=48, velocity=0, time=60),
    Message('note_on', channel=9, note=36, velocity=127, time=0),
    Message('note_on', channel=9, note=57, velocity=127, time=0),
    Message('note_on', channel=9, note=57, velocity=0, time=60),
    Message('note_on', channel=9, note=36, velocity=0, time=0),
    Message('note_on', channel=9, note=59, velocity=127, time=0),
    Message('note_on', channel=9, note=59, velocity=0, time=60),
    Message('note_on', channel=9, note=59, velocity=127, time=0),
    Message('note_on', channel=9, note=59, velocity=0, time=60),
    Message('note_on', channel=9, note=36, velocity=127, time=0),
    Message('note_on', channel=9, note=59, velocity=127, time=0),
    Message('note_on', channel=9, note=59, velocity=0, time=60),
    Message('note_on', channel=9, note=36, velocity=0, time=0),
    Message('note_on', channel=9, note=36, velocity=127, time=0),
    Message('note_on', channel=9, note=59, velocity=127, time=0),
    Message('note_on', channel=9, note=59, velocity=0, time=60),
    Message('note_on', channel=9, note=36, velocity=0, time=0),
    Message('note_on', channel=9, note=38, velocity=127, time=0),
    Message('note_on', channel=9, note=38, velocity=0, time=60),
    Message('note_on', channel=9, note=57, velocity=127, time=0),
    Message('note_on', channel=9, note=36, velocity=127, time=0),
    Message('note_on', channel=9, note=36, velocity=0, time=60),
    Message('note_on', channel=9, note=57, velocity=0, time=0),
    Message('note_on', channel=9, note=57, velocity=127, time=0),
    Message('note_on', channel=9, note=36, velocity=127, time=0),
    Message('note_on', channel=9, note=36, velocity=0, time=60),
    Message('note_on', channel=9, note=57, velocity=0, time=0),
    Message('note_on', channel=9, note=57, velocity=127, time=0),
    Message('note_on', channel=9, note=36, velocity=127, time=0),
    Message('note_on', channel=9, note=36, velocity=0, time=60),
    Message('note_on', channel=9, note=57, velocity=0, time=0),
    Message('note_on', channel=9, note=36, velocity=127, time=0),
    Message('note_on', channel=9, note=57, velocity=127, time=0),
    Message('note_on', channel=9, note=38, velocity=127, time=45),
    Message('note_on', channel=9, note=38, velocity=0, time=15),
    Message('note_on', channel=9, note=57, velocity=0, time=0),
    Message('note_on', channel=9, note=38, velocity=127, time=0),
    Message('note_on', channel=9, note=38, velocity=0, time=60),
    Message('note_on', channel=9, note=36, velocity=0, time=0),
    Message('note_on', channel=9, note=36, velocity=127, time=0),
    Message('note_on', channel=9, note=36, velocity=0, time=60),
    Message('note_on', channel=9, note=36, velocity=127, time=0),
    Message('note_on', channel=9, note=38, velocity=127, time=45),
    Message('note_on', channel=9, note=38, velocity=0, time=15),
    Message('note_on', channel=9, note=36, velocity=0, time=0),
    Message('note_on', channel=9, note=38, velocity=127, time=0),
    Message('note_on', channel=9, note=36, velocity=127, time=60),
    Message('note_on', channel=9, note=36, velocity=0, time=60),
    Message('note_on', channel=9, note=38, velocity=0, time=0),
    Message('note_on', channel=9, note=57, velocity=127, time=0),
    Message('note_on', channel=9, note=36, velocity=127, time=0),
    Message('note_on', channel=9, note=36, velocity=0, time=60),
    Message('note_on', channel=9, note=57, velocity=0, time=0),
    Message('note_on', channel=9, note=57, velocity=127, time=0),
    Message('note_on', channel=9, note=36, velocity=127, time=0),
    Message('note_on', channel=9, note=36, velocity=0, time=60),
    Message('note_on', channel=9, note=57, velocity=0, time=0),
    Message('note_on', channel=9, note=36, velocity=127, time=120),
    Message('note_on', channel=9, note=57, velocity=127, time=0),
    Message('note_on', channel=9, note=57, velocity=0, time=60),
    Message('note_on', channel=9, note=36, velocity=0, time=0),
    Message('note_on', channel=9, note=36, velocity=127, time=0),
    Message('note_on', channel=9, note=57, velocity=127, time=0),
    Message('note_on', channel=9, note=57, velocity=0, time=60),
    Message('note_on', channel=9, note=36, velocity=0, time=0),
    Message('note_on', channel=9, note=36, velocity=127, time=120),
    Message('note_on', channel=9, note=57, velocity=127, time=0),
    Message('note_on', channel=9, note=57, velocity=0, time=60),
    Message('note_on', channel=9, note=36, velocity=0, time=0),
    Message('note_on', channel=9, note=36, velocity=127, time=0),
    Message('note_on', channel=9, note=57, velocity=127, time=0),
    Message('note_on', channel=9, note=57, velocity=0, time=60),
    Message('note_on', channel=9, note=36, velocity=0, time=0),
    Message('note_on', channel=9, note=36, velocity=127, time=780),
    Message('note_on', channel=9, note=36, velocity=0, time=30),
    Message('note_on', channel=9, note=36, velocity=127, time=0),
    Message('note_on', channel=9, note=36, velocity=0, time=30),
    Message('note_on', channel=9, note=57, velocity=127, time=0),
    Message('note_on', channel=9, note=38, velocity=127, time=0),
    Message('note_on', channel=9, note=36, velocity=127, time=60),
    Message('note_on', channel=9, note=36, velocity=0, time=60),
    Message('note_on', channel=9, note=38, velocity=0, time=0),
    Message('note_on', channel=9, note=57, velocity=0, time=0),
    Message('note_on', channel=9, note=38, velocity=127, time=0),
    Message('note_on', channel=9, note=57, velocity=127, time=0),
    Message('note_on', channel=9, note=57, velocity=0, time=60),
    Message('note_on', channel=9, note=38, velocity=0, time=0),
    Message('note_on', channel=9, note=36, velocity=127, time=0),
    Message('note_on', channel=9, note=42, velocity=127, time=0),
    Message('note_on', channel=9, note=42, velocity=0, time=60),
    Message('note_on', channel=9, note=36, velocity=0, time=0),
    Message('note_on', channel=9, note=38, velocity=127, time=0),
    Message('note_on', channel=9, note=42, velocity=127, time=0),
    Message('note_on', channel=9, note=42, velocity=0, time=60),
    Message('note_on', channel=9, note=38, velocity=0, time=0),
    Message('note_on', channel=9, note=36, velocity=127, time=0),
    Message('note_on', channel=9, note=42, velocity=127, time=0),
    Message('note_on', channel=9, note=42, velocity=0, time=60),
    Message('note_on', channel=9, note=36, velocity=0, time=0),
    Message('note_on', channel=9, note=38, velocity=127, time=0),
    Message('note_on', channel=9, note=42, velocity=127, time=0),
    Message('note_on', channel=9, note=42, velocity=0, time=60),
    Message('note_on', channel=9, note=38, velocity=0, time=0),
    Message('note_on', channel=9, note=36, velocity=127, time=0),
    Message('note_on', channel=9, note=42, velocity=127, time=0),
    Message('note_on', channel=9, note=42, velocity=0, time=60),
    Message('note_on', channel=9, note=36, velocity=0, time=0),
    Message('note_on', channel=9, note=38, velocity=127, time=0),
    Message('note_on', channel=9, note=42, velocity=127, time=0),
    Message('note_on', channel=9, note=42, velocity=0, time=60),
    Message('note_on', channel=9, note=38, velocity=0, time=0),
    Message('note_on', channel=9, note=36, velocity=127, time=0),
    Message('note_on', channel=9, note=42, velocity=127, time=0),
    Message('note_on', channel=9, note=42, velocity=0, time=60),
    Message('note_on', channel=9, note=36, velocity=0, time=0),
    Message('note_on', channel=9, note=38, velocity=127, time=0),
    Message('note_on', channel=9, note=42, velocity=127, time=0),
    Message('note_on', channel=9, note=42, velocity=0, time=60),
    Message('note_on', channel=9, note=38, velocity=0, time=0),
    Message('note_on', channel=9, note=42, velocity=127, time=0),
    Message('note_on', channel=9, note=36, velocity=127, time=0),
    Message('note_on', channel=9, note=36, velocity=0, time=60),
    Message('note_on', channel=9, note=42, velocity=0, time=0),
    Message('note_on', channel=9, note=38, velocity=127, time=0),
    Message('note_on', channel=9, note=42, velocity=127, time=0),
    Message('note_on', channel=9, note=42, velocity=0, time=60),
    Message('note_on', channel=9, note=38, velocity=0, time=0),
    Message('note_on', channel=9, note=42, velocity=127, time=0),
    Message('note_on', channel=9, note=36, velocity=127, time=0),
    Message('note_on', channel=9, note=36, velocity=0, time=60),
    Message('note_on', channel=9, note=42, velocity=0, time=0),
    Message('note_on', channel=9, note=38, velocity=127, time=0),
    Message('note_on', channel=9, note=42, velocity=127, time=0),
    Message('note_on', channel=9, note=42, velocity=0, time=60),
    Message('note_on', channel=9, note=38, velocity=0, time=0),
    Message('note_on', channel=9, note=36, velocity=127, time=0),
    Message('note_on', channel=9, note=42, velocity=127, time=0),
    Message('note_on', channel=9, note=42, velocity=0, time=60),
    Message('note_on', channel=9, note=36, velocity=0, time=0),
    Message('note_on', channel=9, note=42, velocity=127, time=0),
    Message('note_on', channel=9, note=38, velocity=127, time=0),
    Message('note_on', channel=9, note=38, velocity=0, time=60),
    Message('note_on', channel=9, note=42, velocity=0, time=0),
    Message('note_on', channel=9, note=36, velocity=127, time=0),
    Message('note_on', channel=9, note=42, velocity=127, time=0),
    Message('note_on', channel=9, note=42, velocity=0, time=60),
    Message('note_on', channel=9, note=36, velocity=0, time=0),
    Message('note_on', channel=9, note=36, velocity=127, time=0),
    Message('note_on', channel=9, note=57, velocity=127, time=0),
    Message('note_on', channel=9, note=57, velocity=0, time=120),
    Message('note_on', channel=9, note=36, velocity=0, time=0),
    Message('note_on', channel=9, note=36, velocity=127, time=660),
    Message('note_on', channel=9, note=36, velocity=0, time=30),
    Message('note_on', channel=9, note=36, velocity=127, time=0),
    Message('note_on', channel=9, note=36, velocity=0, time=30),
    Message('note_on', channel=9, note=57, velocity=127, time=0),
    Message('note_on', channel=9, note=38, velocity=127, time=0),
    Message('note_on', channel=9, note=36, velocity=127, time=60),
    Message('note_on', channel=9, note=36, velocity=0, time=60),
    Message('note_on', channel=9, note=38, velocity=0, time=0),
    Message('note_on', channel=9, note=57, velocity=0, time=0),
    Message('note_on', channel=9, note=38, velocity=127, time=0),
    Message('note_on', channel=9, note=57, velocity=127, time=0),
    Message('note_on', channel=9, note=57, velocity=0, time=60),
    Message('note_on', channel=9, note=38, velocity=0, time=0),
    Message('note_on', channel=9, note=36, velocity=127, time=0),
    Message('note_on', channel=9, note=42, velocity=127, time=0),
    Message('note_on', channel=9, note=42, velocity=0, time=60),
    Message('note_on', channel=9, note=36, velocity=0, time=0),
    Message('note_on', channel=9, note=38, velocity=127, time=0),
    Message('note_on', channel=9, note=42, velocity=127, time=0),
    Message('note_on', channel=9, note=42, velocity=0, time=60),
    Message('note_on', channel=9, note=38, velocity=0, time=0),
    Message('note_on', channel=9, note=36, velocity=127, time=0),
    Message('note_on', channel=9, note=42, velocity=127, time=0),
    Message('note_on', channel=9, note=42, velocity=0, time=60),
    Message('note_on', channel=9, note=36, velocity=0, time=0),
    Message('note_on', channel=9, note=38, velocity=127, time=0),
    Message('note_on', channel=9, note=42, velocity=127, time=0),
    Message('note_on', channel=9, note=42, velocity=0, time=60),
    Message('note_on', channel=9, note=38, velocity=0, time=0),
    Message('note_on', channel=9, note=36, velocity=127, time=0),
    Message('note_on', channel=9, note=42, velocity=127, time=0),
    Message('note_on', channel=9, note=42, velocity=0, time=60),
    Message('note_on', channel=9, note=36, velocity=0, time=0),
    Message('note_on', channel=9, note=38, velocity=127, time=0),
    Message('note_on', channel=9, note=42, velocity=127, time=0),
    Message('note_on', channel=9, note=42, velocity=0, time=60),
    Message('note_on', channel=9, note=38, velocity=0, time=0),
    Message('note_on', channel=9, note=36, velocity=127, time=0),
    Message('note_on', channel=9, note=42, velocity=127, time=0),
    Message('note_on', channel=9, note=42, velocity=0, time=60),
    Message('note_on', channel=9, note=36, velocity=0, time=0),
    Message('note_on', channel=9, note=38, velocity=127, time=0),
    Message('note_on', channel=9, note=42, velocity=127, time=0),
    Message('note_on', channel=9, note=42, velocity=0, time=60),
    Message('note_on', channel=9, note=38, velocity=0, time=0),
    Message('note_on', channel=9, note=42, velocity=127, time=0),
    Message('note_on', channel=9, note=36, velocity=127, time=0),
    Message('note_on', channel=9, note=36, velocity=0, time=60),
    Message('note_on', channel=9, note=42, velocity=0, time=0),
    Message('note_on', channel=9, note=38, velocity=127, time=0),
    Message('note_on', channel=9, note=42, velocity=127, time=0),
    Message('note_on', channel=9, note=42, velocity=0, time=60),
    Message('note_on', channel=9, note=38, velocity=0, time=0),
    Message('note_on', channel=9, note=42, velocity=127, time=0),
    Message('note_on', channel=9, note=36, velocity=127, time=0),
    Message('note_on', channel=9, note=36, velocity=0, time=60),
    Message('note_on', channel=9, note=42, velocity=0, time=0),
    Message('note_on', channel=9, note=38, velocity=127, time=0),
    Message('note_on', channel=9, note=42, velocity=127, time=0),
    Message('note_on', channel=9, note=42, velocity=0, time=60),
    Message('note_on', channel=9, note=38, velocity=0, time=0),
    Message('note_on', channel=9, note=36, velocity=127, time=0),
    Message('note_on', channel=9, note=42, velocity=127, time=0),
    Message('note_on', channel=9, note=42, velocity=0, time=60),
    Message('note_on', channel=9, note=36, velocity=0, time=0),
    Message('note_on', channel=9, note=42, velocity=127, time=0),
    Message('note_on', channel=9, note=38, velocity=127, time=0),
    Message('note_on', channel=9, note=38, velocity=0, time=60),
    Message('note_on', channel=9, note=42, velocity=0, time=0),
    Message('note_on', channel=9, note=36, velocity=127, time=0),
    Message('note_on', channel=9, note=42, velocity=127, time=0),
    Message('note_on', channel=9, note=42, velocity=0, time=60),
    Message('note_on', channel=9, note=36, velocity=0, time=0),
    Message('note_on', channel=9, note=36, velocity=127, time=0),
    Message('note_on', channel=9, note=57, velocity=127, time=0),
    Message('note_on', channel=9, note=57, velocity=0, time=120),
    Message('note_on', channel=9, note=36, velocity=0, time=0),
    Message('note_on', channel=9, note=36, velocity=127, time=660),
    Message('note_on', channel=9, note=36, velocity=0, time=30),
    Message('note_on', channel=9, note=36, velocity=127, time=0),
    Message('note_on', channel=9, note=36, velocity=0, time=30),
    Message('note_on', channel=9, note=57, velocity=127, time=0),
    Message('note_on', channel=9, note=38, velocity=127, time=0),
    Message('note_on', channel=9, note=36, velocity=127, time=60),
    Message('note_on', channel=9, note=36, velocity=0, time=60),
    Message('note_on', channel=9, note=38, velocity=0, time=0),
    Message('note_on', channel=9, note=57, velocity=0, time=0),
    Message('note_on', channel=9, note=38, velocity=127, time=0),
    Message('note_on', channel=9, note=57, velocity=127, time=0),
    Message('note_on', channel=9, note=57, velocity=0, time=60),
    Message('note_on', channel=9, note=38, velocity=0, time=0),
    Message('note_on', channel=9, note=36, velocity=127, time=0),
    Message('note_on', channel=9, note=42, velocity=127, time=0),
    Message('note_on', channel=9, note=42, velocity=0, time=60),
    Message('note_on', channel=9, note=36, velocity=0, time=0),
    Message('note_on', channel=9, note=38, velocity=127, time=0),
    Message('note_on', channel=9, note=42, velocity=127, time=0),
    Message('note_on', channel=9, note=42, velocity=0, time=60),
    Message('note_on', channel=9, note=38, velocity=0, time=0),
    Message('note_on', channel=9, note=36, velocity=127, time=0),
    Message('note_on', channel=9, note=42, velocity=127, time=0),
    Message('note_on', channel=9, note=42, velocity=0, time=60),
    Message('note_on', channel=9, note=36, velocity=0, time=0),
    Message('note_on', channel=9, note=38, velocity=127, time=0),
    Message('note_on', channel=9, note=42, velocity=127, time=0),
    Message('note_on', channel=9, note=42, velocity=0, time=60),
    Message('note_on', channel=9, note=38, velocity=0, time=0),
    Message('note_on', channel=9, note=36, velocity=127, time=0),
    Message('note_on', channel=9, note=42, velocity=127, time=0),
    Message('note_on', channel=9, note=42, velocity=0, time=60),
    Message('note_on', channel=9, note=36, velocity=0, time=0),
    Message('note_on', channel=9, note=38, velocity=127, time=0),
    Message('note_on', channel=9, note=42, velocity=127, time=0),
    Message('note_on', channel=9, note=42, velocity=0, time=60),
    Message('note_on', channel=9, note=38, velocity=0, time=0),
    Message('note_on', channel=9, note=36, velocity=127, time=0),
    Message('note_on', channel=9, note=42, velocity=127, time=0),
    Message('note_on', channel=9, note=42, velocity=0, time=60),
    Message('note_on', channel=9, note=36, velocity=0, time=0),
    Message('note_on', channel=9, note=38, velocity=127, time=0),
    Message('note_on', channel=9, note=42, velocity=127, time=0),
    Message('note_on', channel=9, note=42, velocity=0, time=60),
    Message('note_on', channel=9, note=38, velocity=0, time=0),
    Message('note_on', channel=9, note=42, velocity=127, time=0),
    Message('note_on', channel=9, note=36, velocity=127, time=0),
    Message('note_on', channel=9, note=36, velocity=0, time=60),
    Message('note_on', channel=9, note=42, velocity=0, time=0),
    Message('note_on', channel=9, note=38, velocity=127, time=0),
    Message('note_on', channel=9, note=42, velocity=127, time=0),
    Message('note_on', channel=9, note=42, velocity=0, time=60),
    Message('note_on', channel=9, note=38, velocity=0, time=0),
    Message('note_on', channel=9, note=42, velocity=127, time=0),
    Message('note_on', channel=9, note=36, velocity=127, time=0),
    Message('note_on', channel=9, note=36, velocity=0, time=60),
    Message('note_on', channel=9, note=42, velocity=0, time=0),
    Message('note_on', channel=9, note=38, velocity=127, time=0),
    Message('note_on', channel=9, note=42, velocity=127, time=0),
    Message('note_on', channel=9, note=42, velocity=0, time=60),
    Message('note_on', channel=9, note=38, velocity=0, time=0),
    Message('note_on', channel=9, note=36, velocity=127, time=0),
    Message('note_on', channel=9, note=42, velocity=127, time=0),
    Message('note_on', channel=9, note=42, velocity=0, time=60),
    Message('note_on', channel=9, note=36, velocity=0, time=0),
    Message('note_on', channel=9, note=42, velocity=127, time=0),
    Message('note_on', channel=9, note=38, velocity=127, time=0),
    Message('note_on', channel=9, note=38, velocity=0, time=60),
    Message('note_on', channel=9, note=42, velocity=0, time=0),
    Message('note_on', channel=9, note=36, velocity=127, time=0),
    Message('note_on', channel=9, note=42, velocity=127, time=0),
    Message('note_on', channel=9, note=42, velocity=0, time=60),
    Message('note_on', channel=9, note=36, velocity=0, time=0),
    Message('note_on', channel=9, note=36, velocity=127, time=0),
    Message('note_on', channel=9, note=57, velocity=127, time=0),
    Message('note_on', channel=9, note=57, velocity=0, time=120),
    Message('note_on', channel=9, note=36, velocity=0, time=0),
    Message('note_on', channel=9, note=36, velocity=127, time=660),
    Message('note_on', channel=9, note=36, velocity=0, time=30),
    Message('note_on', channel=9, note=36, velocity=127, time=0),
    Message('note_on', channel=9, note=36, velocity=0, time=30),
    Message('note_on', channel=9, note=57, velocity=127, time=0),
    Message('note_on', channel=9, note=38, velocity=127, time=0),
    Message('note_on', channel=9, note=36, velocity=127, time=60),
    Message('note_on', channel=9, note=36, velocity=0, time=60),
    Message('note_on', channel=9, note=38, velocity=0, time=0),
    Message('note_on', channel=9, note=57, velocity=0, time=0),
    Message('note_on', channel=9, note=38, velocity=127, time=0),
    Message('note_on', channel=9, note=57, velocity=127, time=0),
    Message('note_on', channel=9, note=57, velocity=0, time=60),
    Message('note_on', channel=9, note=38, velocity=0, time=0),
    Message('note_on', channel=9, note=36, velocity=127, time=0),
    Message('note_on', channel=9, note=42, velocity=127, time=0),
    Message('note_on', channel=9, note=42, velocity=0, time=60),
    Message('note_on', channel=9, note=36, velocity=0, time=0),
    Message('note_on', channel=9, note=38, velocity=127, time=0),
    Message('note_on', channel=9, note=42, velocity=127, time=0),
    Message('note_on', channel=9, note=42, velocity=0, time=60),
    Message('note_on', channel=9, note=38, velocity=0, time=0),
    Message('note_on', channel=9, note=36, velocity=127, time=0),
    Message('note_on', channel=9, note=42, velocity=127, time=0),
    Message('note_on', channel=9, note=42, velocity=0, time=60),
    Message('note_on', channel=9, note=36, velocity=0, time=0),
    Message('note_on', channel=9, note=38, velocity=127, time=0),
    Message('note_on', channel=9, note=42, velocity=127, time=0),
    Message('note_on', channel=9, note=42, velocity=0, time=60),
    Message('note_on', channel=9, note=38, velocity=0, time=0),
    Message('note_on', channel=9, note=36, velocity=127, time=0),
    Message('note_on', channel=9, note=42, velocity=127, time=0),
    Message('note_on', channel=9, note=42, velocity=0, time=60),
    Message('note_on', channel=9, note=36, velocity=0, time=0),
    Message('note_on', channel=9, note=38, velocity=127, time=0),
    Message('note_on', channel=9, note=42, velocity=127, time=0),
    Message('note_on', channel=9, note=42, velocity=0, time=60),
    Message('note_on', channel=9, note=38, velocity=0, time=0),
    Message('note_on', channel=9, note=36, velocity=127, time=0),
    Message('note_on', channel=9, note=42, velocity=127, time=0),
    Message('note_on', channel=9, note=42, velocity=0, time=60),
    Message('note_on', channel=9, note=36, velocity=0, time=0),
    Message('note_on', channel=9, note=38, velocity=127, time=0),
    Message('note_on', channel=9, note=42, velocity=127, time=0),
    Message('note_on', channel=9, note=42, velocity=0, time=60),
    Message('note_on', channel=9, note=38, velocity=0, time=0),
    Message('note_on', channel=9, note=42, velocity=127, time=0),
    Message('note_on', channel=9, note=36, velocity=127, time=0),
    Message('note_on', channel=9, note=36, velocity=0, time=60),
    Message('note_on', channel=9, note=42, velocity=0, time=0),
    Message('note_on', channel=9, note=38, velocity=127, time=0),
    Message('note_on', channel=9, note=42, velocity=127, time=0),
    Message('note_on', channel=9, note=42, velocity=0, time=60),
    Message('note_on', channel=9, note=38, velocity=0, time=0),
    Message('note_on', channel=9, note=42, velocity=127, time=0),
    Message('note_on', channel=9, note=36, velocity=127, time=0),
    Message('note_on', channel=9, note=36, velocity=0, time=60),
    Message('note_on', channel=9, note=42, velocity=0, time=0),
    Message('note_on', channel=9, note=38, velocity=127, time=0),
    Message('note_on', channel=9, note=42, velocity=127, time=0),
    Message('note_on', channel=9, note=42, velocity=0, time=60),
    Message('note_on', channel=9, note=38, velocity=0, time=0),
    Message('note_on', channel=9, note=36, velocity=127, time=0),
    Message('note_on', channel=9, note=42, velocity=127, time=0),
    Message('note_on', channel=9, note=42, velocity=0, time=60),
    Message('note_on', channel=9, note=36, velocity=0, time=0),
    Message('note_on', channel=9, note=42, velocity=127, time=0),
    Message('note_on', channel=9, note=38, velocity=127, time=0),
    Message('note_on', channel=9, note=38, velocity=0, time=60),
    Message('note_on', channel=9, note=42, velocity=0, time=0),
    Message('note_on', channel=9, note=36, velocity=127, time=0),
    Message('note_on', channel=9, note=42, velocity=127, time=0),
    Message('note_on', channel=9, note=42, velocity=0, time=60),
    Message('note_on', channel=9, note=36, velocity=0, time=0),
    Message('note_on', channel=9, note=36, velocity=127, time=0),
    Message('note_on', channel=9, note=57, velocity=127, time=0),
    Message('note_on', channel=9, note=57, velocity=0, time=120),
    Message('note_on', channel=9, note=36, velocity=0, time=0),
    Message('note_on', channel=9, note=38, velocity=127, time=0),
    Message('note_on', channel=9, note=42, velocity=127, time=0),
    Message('note_on', channel=9, note=42, velocity=0, time=60),
    Message('note_on', channel=9, note=38, velocity=0, time=0),
    Message('note_on', channel=9, note=35, velocity=127, time=0),
    Message('note_on', channel=9, note=42, velocity=127, time=0),
    Message('note_on', channel=9, note=42, velocity=0, time=60),
    Message('note_on', channel=9, note=35, velocity=0, time=0),
    Message('note_on', channel=9, note=38, velocity=127, time=0),
    Message('note_on', channel=9, note=42, velocity=127, time=0),
    Message('note_on', channel=9, note=42, velocity=0, time=60),
    Message('note_on', channel=9, note=38, velocity=0, time=0),
    Message('note_on', channel=9, note=35, velocity=127, time=0),
    Message('note_on', channel=9, note=42, velocity=127, time=0),
    Message('note_on', channel=9, note=42, velocity=0, time=60),
    Message('note_on', channel=9, note=35, velocity=0, time=0),
    Message('note_on', channel=9, note=38, velocity=127, time=0),
    Message('note_on', channel=9, note=42, velocity=127, time=0),
    Message('note_on', channel=9, note=42, velocity=0, time=60),
    Message('note_on', channel=9, note=38, velocity=0, time=0),
    Message('note_on', channel=9, note=35, velocity=127, time=0),
    Message('note_on', channel=9, note=42, velocity=127, time=0),
    Message('note_on', channel=9, note=42, velocity=0, time=60),
    Message('note_on', channel=9, note=35, velocity=0, time=0),
    Message('note_on', channel=9, note=36, velocity=127, time=0),
    Message('note_on', channel=9, note=57, velocity=127, time=0),
    Message('note_on', channel=9, note=57, velocity=0, time=120),
    Message('note_on', channel=9, note=36, velocity=0, time=0),
    Message('note_on', channel=9, note=38, velocity=127, time=0),
    Message('note_on', channel=9, note=42, velocity=127, time=0),
    Message('note_on', channel=9, note=42, velocity=0, time=60),
    Message('note_on', channel=9, note=38, velocity=0, time=0),
    Message('note_on', channel=9, note=36, velocity=127, time=0),
    Message('note_on', channel=9, note=42, velocity=127, time=0),
    Message('note_on', channel=9, note=42, velocity=0, time=60),
    Message('note_on', channel=9, note=36, velocity=0, time=0),
    Message('note_on', channel=9, note=38, velocity=127, time=0),
    Message('note_on', channel=9, note=42, velocity=127, time=0),
    Message('note_on', channel=9, note=42, velocity=0, time=60),
    Message('note_on', channel=9, note=38, velocity=0, time=0),
    Message('note_on', channel=9, note=36, velocity=127, time=0),
    Message('note_on', channel=9, note=42, velocity=127, time=0),
    Message('note_on', channel=9, note=42, velocity=0, time=60),
    Message('note_on', channel=9, note=36, velocity=0, time=0),
    Message('note_on', channel=9, note=38, velocity=127, time=0),
    Message('note_on', channel=9, note=42, velocity=127, time=0),
    Message('note_on', channel=9, note=42, velocity=0, time=60),
    Message('note_on', channel=9, note=38, velocity=0, time=0),
    Message('note_on', channel=9, note=36, velocity=127, time=0),
    Message('note_on', channel=9, note=42, velocity=127, time=0),
    Message('note_on', channel=9, note=42, velocity=0, time=60),
    Message('note_on', channel=9, note=36, velocity=0, time=0),
    Message('note_on', channel=9, note=38, velocity=127, time=0),
    Message('note_on', channel=9, note=38, velocity=0, time=30),
    Message('note_on', channel=9, note=38, velocity=127, time=0),
    Message('note_on', channel=9, note=38, velocity=0, time=30),
    Message('note_on', channel=9, note=36, velocity=127, time=0),
    Message('note_on', channel=9, note=36, velocity=0, time=30),
    Message('note_on', channel=9, note=36, velocity=127, time=0),
    Message('note_on', channel=9, note=36, velocity=0, time=30),
    Message('note_on', channel=9, note=38, velocity=127, time=0),
    Message('note_on', channel=9, note=38, velocity=0, time=30),
    Message('note_on', channel=9, note=38, velocity=127, time=0),
    Message('note_on', channel=9, note=38, velocity=0, time=30),
    Message('note_on', channel=9, note=36, velocity=127, time=0),
    Message('note_on', channel=9, note=36, velocity=0, time=30),
    Message('note_on', channel=9, note=36, velocity=127, time=0),
    Message('note_on', channel=9, note=36, velocity=0, time=30),
    Message('note_on', channel=9, note=38, velocity=127, time=0),
    Message('note_on', channel=9, note=38, velocity=0, time=30),
    Message('note_on', channel=9, note=38, velocity=127, time=0),
    Message('note_on', channel=9, note=38, velocity=0, time=30),
    Message('note_on', channel=9, note=36, velocity=127, time=0),
    Message('note_on', channel=9, note=36, velocity=0, time=30),
    Message('note_on', channel=9, note=36, velocity=127, time=0),
    Message('note_on', channel=9, note=36, velocity=0, time=30),
    Message('note_on', channel=9, note=38, velocity=127, time=0),
    Message('note_on', channel=9, note=57, velocity=127, time=0),
    Message('note_on', channel=9, note=36, velocity=127, time=60),
    Message('note_on', channel=9, note=36, velocity=0, time=60),
    Message('note_on', channel=9, note=57, velocity=0, time=0),
    Message('note_on', channel=9, note=38, velocity=0, time=0),
    Message('note_on', channel=9, note=36, velocity=127, time=0),
    Message('note_on', channel=9, note=57, velocity=127, time=0),
    Message('note_on', channel=9, note=36, velocity=127, time=60),
    Message('note_on', channel=9, note=36, velocity=0, time=60),
    Message('note_on', channel=9, note=57, velocity=0, time=0),
    Message('note_on', channel=9, note=36, velocity=0, time=0),
    Message('note_on', channel=9, note=42, velocity=127, time=0),
    Message('note_on', channel=9, note=38, velocity=127, time=0),
    Message('note_on', channel=9, note=38, velocity=0, time=60),
    Message('note_on', channel=9, note=42, velocity=0, time=0),
    Message('note_on', channel=9, note=36, velocity=127, time=0),
    Message('note_on', channel=9, note=42, velocity=127, time=0),
    Message('note_on', channel=9, note=42, velocity=0, time=60),
    Message('note_on', channel=9, note=36, velocity=0, time=0),
    Message('note_on', channel=9, note=38, velocity=127, time=0),
    Message('note_on', channel=9, note=42, velocity=127, time=0),
    Message('note_on', channel=9, note=42, velocity=0, time=60),
    Message('note_on', channel=9, note=38, velocity=0, time=0),
    Message('note_on', channel=9, note=36, velocity=127, time=0),
    Message('note_on', channel=9, note=42, velocity=127, time=0),
    Message('note_on', channel=9, note=42, velocity=0, time=60),
    Message('note_on', channel=9, note=36, velocity=0, time=0),
    Message('note_on', channel=9, note=38, velocity=127, time=0),
    Message('note_on', channel=9, note=42, velocity=127, time=0),
    Message('note_on', channel=9, note=42, velocity=0, time=60),
    Message('note_on', channel=9, note=38, velocity=0, time=0),
    Message('note_on', channel=9, note=36, velocity=127, time=0),
    Message('note_on', channel=9, note=42, velocity=127, time=0),
    Message('note_on', channel=9, note=42, velocity=0, time=60),
    Message('note_on', channel=9, note=36, velocity=0, time=0),
    Message('note_on', channel=9, note=38, velocity=127, time=0),
    Message('note_on', channel=9, note=42, velocity=127, time=0),
    Message('note_on', channel=9, note=42, velocity=0, time=60),
    Message('note_on', channel=9, note=38, velocity=0, time=0),
    Message('note_on', channel=9, note=36, velocity=127, time=0),
    Message('note_on', channel=9, note=42, velocity=127, time=0),
    Message('note_on', channel=9, note=42, velocity=0, time=60),
    Message('note_on', channel=9, note=36, velocity=0, time=0),
    Message('note_on', channel=9, note=38, velocity=127, time=0),
    Message('note_on', channel=9, note=42, velocity=127, time=0),
    Message('note_on', channel=9, note=42, velocity=0, time=60),
    Message('note_on', channel=9, note=38, velocity=0, time=0),
    Message('note_on', channel=9, note=36, velocity=127, time=0),
    Message('note_on', channel=9, note=42, velocity=127, time=0),
    Message('note_on', channel=9, note=42, velocity=0, time=60),
    Message('note_on', channel=9, note=36, velocity=0, time=0),
    Message('note_on', channel=9, note=38, velocity=127, time=0),
    Message('note_on', channel=9, note=42, velocity=127, time=0),
    Message('note_on', channel=9, note=42, velocity=0, time=60),
    Message('note_on', channel=9, note=38, velocity=0, time=0),
    Message('note_on', channel=9, note=36, velocity=127, time=0),
    Message('note_on', channel=9, note=42, velocity=127, time=0),
    Message('note_on', channel=9, note=42, velocity=0, time=60),
    Message('note_on', channel=9, note=36, velocity=0, time=0),
    Message('note_on', channel=9, note=38, velocity=127, time=0),
    Message('note_on', channel=9, note=42, velocity=127, time=0),
    Message('note_on', channel=9, note=42, velocity=0, time=60),
    Message('note_on', channel=9, note=38, velocity=0, time=0),
    Message('note_on', channel=9, note=36, velocity=127, time=0),
    Message('note_on', channel=9, note=42, velocity=127, time=0),
    Message('note_on', channel=9, note=42, velocity=0, time=60),
    Message('note_on', channel=9, note=36, velocity=0, time=0),
    Message('note_on', channel=9, note=38, velocity=127, time=0),
    Message('note_on', channel=9, note=42, velocity=127, time=0),
    Message('note_on', channel=9, note=42, velocity=0, time=60),
    Message('note_on', channel=9, note=38, velocity=0, time=0),
    Message('note_on', channel=9, note=42, velocity=127, time=0),
    Message('note_on', channel=9, note=42, velocity=0, time=60),
    Message('note_on', channel=9, note=38, velocity=127, time=0),
    Message('note_on', channel=9, note=42, velocity=127, time=0),
    Message('note_on', channel=9, note=42, velocity=0, time=60),
    Message('note_on', channel=9, note=38, velocity=0, time=0),
    Message('note_on', channel=9, note=36, velocity=127, time=0),
    Message('note_on', channel=9, note=42, velocity=127, time=0),
    Message('note_on', channel=9, note=42, velocity=0, time=60),
    Message('note_on', channel=9, note=36, velocity=0, time=0),
    Message('note_on', channel=9, note=38, velocity=127, time=0),
    Message('note_on', channel=9, note=42, velocity=127, time=0),
    Message('note_on', channel=9, note=42, velocity=0, time=60),
    Message('note_on', channel=9, note=38, velocity=0, time=0),
    Message('note_on', channel=9, note=36, velocity=127, time=0),
    Message('note_on', channel=9, note=42, velocity=127, time=0),
    Message('note_on', channel=9, note=42, velocity=0, time=60),
    Message('note_on', channel=9, note=36, velocity=0, time=0),
    Message('note_on', channel=9, note=38, velocity=127, time=0),
    Message('note_on', channel=9, note=42, velocity=127, time=0),
    Message('note_on', channel=9, note=36, velocity=127, time=30),
    Message('note_on', channel=9, note=36, velocity=0, time=30),
    Message('note_on', channel=9, note=42, velocity=0, time=0),
    Message('note_on', channel=9, note=38, velocity=0, time=0),
    Message('note_on', channel=9, note=36, velocity=127, time=0),
    Message('note_on', channel=9, note=42, velocity=127, time=0),
    Message('note_on', channel=9, note=42, velocity=0, time=60),
    Message('note_on', channel=9, note=36, velocity=0, time=0),
    Message('note_on', channel=9, note=38, velocity=127, time=0),
    Message('note_on', channel=9, note=42, velocity=127, time=0),
    Message('note_on', channel=9, note=42, velocity=0, time=60),
    Message('note_on', channel=9, note=38, velocity=0, time=0),
    Message('note_on', channel=9, note=42, velocity=127, time=0),
    Message('note_on', channel=9, note=42, velocity=0, time=60),
    Message('note_on', channel=9, note=38, velocity=127, time=0),
    Message('note_on', channel=9, note=42, velocity=127, time=0),
    Message('note_on', channel=9, note=35, velocity=127, time=30),
    Message('note_on', channel=9, note=35, velocity=0, time=30),
    Message('note_on', channel=9, note=42, velocity=0, time=0),
    Message('note_on', channel=9, note=38, velocity=0, time=0),
    Message('note_on', channel=9, note=35, velocity=127, time=0),
    Message('note_on', channel=9, note=42, velocity=127, time=0),
    Message('note_on', channel=9, note=42, velocity=0, time=60),
    Message('note_on', channel=9, note=35, velocity=0, time=0),
    Message('note_on', channel=9, note=38, velocity=127, time=0),
    Message('note_on', channel=9, note=42, velocity=127, time=0),
    Message('note_on', channel=9, note=35, velocity=127, time=30),
    Message('note_on', channel=9, note=35, velocity=0, time=30),
    Message('note_on', channel=9, note=42, velocity=0, time=0),
    Message('note_on', channel=9, note=38, velocity=0, time=0),
    Message('note_on', channel=9, note=35, velocity=127, time=0),
    Message('note_on', channel=9, note=42, velocity=127, time=0),
    Message('note_on', channel=9, note=42, velocity=0, time=60),
    Message('note_on', channel=9, note=35, velocity=0, time=0),
    Message('note_on', channel=9, note=38, velocity=127, time=0),
    Message('note_on', channel=9, note=42, velocity=127, time=0),
    Message('note_on', channel=9, note=42, velocity=0, time=60),
    Message('note_on', channel=9, note=38, velocity=0, time=0),
    Message('note_on', channel=9, note=35, velocity=127, time=0),
    Message('note_on', channel=9, note=42, velocity=127, time=0),
    Message('note_on', channel=9, note=42, velocity=0, time=60),
    Message('note_on', channel=9, note=35, velocity=0, time=0),
    Message('note_on', channel=9, note=38, velocity=127, time=0),
    Message('note_on', channel=9, note=42, velocity=127, time=0),
    Message('note_on', channel=9, note=42, velocity=0, time=60),
    Message('note_on', channel=9, note=38, velocity=0, time=0),
    Message('note_on', channel=9, note=35, velocity=127, time=0),
    Message('note_on', channel=9, note=42, velocity=127, time=0),
    Message('note_on', channel=9, note=42, velocity=0, time=60),
    Message('note_on', channel=9, note=35, velocity=0, time=0),
    Message('note_on', channel=9, note=38, velocity=127, time=0),
    Message('note_on', channel=9, note=42, velocity=127, time=0),
    Message('note_on', channel=9, note=42, velocity=0, time=60),
    Message('note_on', channel=9, note=38, velocity=0, time=0),
    Message('note_on', channel=9, note=35, velocity=127, time=0),
    Message('note_on', channel=9, note=42, velocity=127, time=0),
    Message('note_on', channel=9, note=42, velocity=0, time=60),
    Message('note_on', channel=9, note=35, velocity=0, time=0),
    Message('note_on', channel=9, note=38, velocity=127, time=0),
    Message('note_on', channel=9, note=42, velocity=127, time=0),
    Message('note_on', channel=9, note=42, velocity=0, time=60),
    Message('note_on', channel=9, note=38, velocity=0, time=0),
    Message('note_on', channel=9, note=38, velocity=127, time=0),
    Message('note_on', channel=9, note=35, velocity=127, time=0),
    Message('note_on', channel=9, note=42, velocity=127, time=0),
    Message('note_on', channel=9, note=42, velocity=0, time=60),
    Message('note_on', channel=9, note=35, velocity=0, time=0),
    Message('note_on', channel=9, note=38, velocity=0, time=0),
    Message('note_on', channel=9, note=38, velocity=127, time=0),
    Message('note_on', channel=9, note=42, velocity=127, time=0),
    Message('note_on', channel=9, note=42, velocity=0, time=60),
    Message('note_on', channel=9, note=38, velocity=0, time=0),
    Message('note_on', channel=9, note=35, velocity=127, time=0),
    Message('note_on', channel=9, note=42, velocity=127, time=0),
    Message('note_on', channel=9, note=42, velocity=0, time=60),
    Message('note_on', channel=9, note=35, velocity=0, time=0),
    Message('note_on', channel=9, note=38, velocity=127, time=0),
    Message('note_on', channel=9, note=42, velocity=127, time=0),
    Message('note_on', channel=9, note=42, velocity=0, time=60),
    Message('note_on', channel=9, note=38, velocity=0, time=0),
    Message('note_on', channel=9, note=35, velocity=127, time=0),
    Message('note_on', channel=9, note=42, velocity=127, time=0),
    Message('note_on', channel=9, note=42, velocity=0, time=60),
    Message('note_on', channel=9, note=35, velocity=0, time=0),
    Message('note_on', channel=9, note=38, velocity=127, time=0),
    Message('note_on', channel=9, note=42, velocity=127, time=0),
    Message('note_on', channel=9, note=42, velocity=0, time=60),
    Message('note_on', channel=9, note=38, velocity=0, time=0),
    Message('note_on', channel=9, note=35, velocity=127, time=0),
    Message('note_on', channel=9, note=42, velocity=127, time=0),
    Message('note_on', channel=9, note=42, velocity=0, time=60),
    Message('note_on', channel=9, note=35, velocity=0, time=0),
    Message('note_on', channel=9, note=38, velocity=127, time=0),
    Message('note_on', channel=9, note=42, velocity=127, time=0),
    Message('note_on', channel=9, note=42, velocity=0, time=60),
    Message('note_on', channel=9, note=38, velocity=0, time=0),
    Message('note_on', channel=9, note=35, velocity=127, time=0),
    Message('note_on', channel=9, note=42, velocity=127, time=0),
    Message('note_on', channel=9, note=42, velocity=0, time=60),
    Message('note_on', channel=9, note=35, velocity=0, time=0),
    Message('note_on', channel=9, note=38, velocity=127, time=0),
    Message('note_on', channel=9, note=42, velocity=127, time=0),
    Message('note_on', channel=9, note=42, velocity=0, time=60),
    Message('note_on', channel=9, note=38, velocity=0, time=0),
    Message('note_on', channel=9, note=35, velocity=127, time=0),
    Message('note_on', channel=9, note=42, velocity=127, time=0),
    Message('note_on', channel=9, note=42, velocity=0, time=60),
    Message('note_on', channel=9, note=35, velocity=0, time=0),
    Message('note_on', channel=9, note=38, velocity=127, time=0),
    Message('note_on', channel=9, note=42, velocity=127, time=0),
    Message('note_on', channel=9, note=42, velocity=0, time=60),
    Message('note_on', channel=9, note=38, velocity=0, time=0),
    Message('note_on', channel=9, note=42, velocity=127, time=0),
    Message('note_on', channel=9, note=42, velocity=0, time=60),
    Message('note_on', channel=9, note=38, velocity=127, time=0),
    Message('note_on', channel=9, note=42, velocity=127, time=0),
    Message('note_on', channel=9, note=42, velocity=0, time=60),
    Message('note_on', channel=9, note=38, velocity=0, time=0),
    Message('note_on', channel=9, note=36, velocity=127, time=0),
    Message('note_on', channel=9, note=42, velocity=127, time=0),
    Message('note_on', channel=9, note=42, velocity=0, time=60),
    Message('note_on', channel=9, note=36, velocity=0, time=0),
    Message('note_on', channel=9, note=38, velocity=127, time=0),
    Message('note_on', channel=9, note=42, velocity=127, time=0),
    Message('note_on', channel=9, note=42, velocity=0, time=60),
    Message('note_on', channel=9, note=38, velocity=0, time=0),
    Message('note_on', channel=9, note=36, velocity=127, time=0),
    Message('note_on', channel=9, note=42, velocity=127, time=0),
    Message('note_on', channel=9, note=42, velocity=0, time=60),
    Message('note_on', channel=9, note=36, velocity=0, time=0),
    Message('note_on', channel=9, note=38, velocity=127, time=0),
    Message('note_on', channel=9, note=42, velocity=127, time=0),
    Message('note_on', channel=9, note=36, velocity=127, time=30),
    Message('note_on', channel=9, note=36, velocity=0, time=30),
    Message('note_on', channel=9, note=42, velocity=0, time=0),
    Message('note_on', channel=9, note=38, velocity=0, time=0),
    Message('note_on', channel=9, note=36, velocity=127, time=0),
    Message('note_on', channel=9, note=42, velocity=127, time=0),
    Message('note_on', channel=9, note=42, velocity=0, time=60),
    Message('note_on', channel=9, note=36, velocity=0, time=0),
    Message('note_on', channel=9, note=38, velocity=127, time=0),
    Message('note_on', channel=9, note=42, velocity=127, time=0),
    Message('note_on', channel=9, note=42, velocity=0, time=60),
    Message('note_on', channel=9, note=38, velocity=0, time=0),
    Message('note_on', channel=9, note=42, velocity=127, time=0),
    Message('note_on', channel=9, note=42, velocity=0, time=60),
    Message('note_on', channel=9, note=38, velocity=127, time=0),
    Message('note_on', channel=9, note=42, velocity=127, time=0),
    Message('note_on', channel=9, note=35, velocity=127, time=30),
    Message('note_on', channel=9, note=35, velocity=0, time=30),
    Message('note_on', channel=9, note=42, velocity=0, time=0),
    Message('note_on', channel=9, note=38, velocity=0, time=0),
    Message('note_on', channel=9, note=35, velocity=127, time=0),
    Message('note_on', channel=9, note=42, velocity=127, time=0),
    Message('note_on', channel=9, note=42, velocity=0, time=60),
    Message('note_on', channel=9, note=35, velocity=0, time=0),
    Message('note_on', channel=9, note=38, velocity=127, time=0),
    Message('note_on', channel=9, note=42, velocity=127, time=0),
    Message('note_on', channel=9, note=35, velocity=127, time=30),
    Message('note_on', channel=9, note=35, velocity=0, time=30),
    Message('note_on', channel=9, note=42, velocity=0, time=0),
    Message('note_on', channel=9, note=38, velocity=0, time=0),
    Message('note_on', channel=9, note=35, velocity=127, time=0),
    Message('note_on', channel=9, note=42, velocity=127, time=0),
    Message('note_on', channel=9, note=42, velocity=0, time=60),
    Message('note_on', channel=9, note=35, velocity=0, time=0),
    Message('note_on', channel=9, note=38, velocity=127, time=0),
    Message('note_on', channel=9, note=42, velocity=127, time=0),
    Message('note_on', channel=9, note=42, velocity=0, time=60),
    Message('note_on', channel=9, note=38, velocity=0, time=0),
    Message('note_on', channel=9, note=35, velocity=127, time=0),
    Message('note_on', channel=9, note=42, velocity=127, time=0),
    Message('note_on', channel=9, note=42, velocity=0, time=60),
    Message('note_on', channel=9, note=35, velocity=0, time=0),
    Message('note_on', channel=9, note=38, velocity=127, time=0),
    Message('note_on', channel=9, note=42, velocity=127, time=0),
    Message('note_on', channel=9, note=42, velocity=0, time=60),
    Message('note_on', channel=9, note=38, velocity=0, time=0),
    Message('note_on', channel=9, note=35, velocity=127, time=0),
    Message('note_on', channel=9, note=42, velocity=127, time=0),
    Message('note_on', channel=9, note=42, velocity=0, time=60),
    Message('note_on', channel=9, note=35, velocity=0, time=0),
    Message('note_on', channel=9, note=38, velocity=127, time=0),
    Message('note_on', channel=9, note=42, velocity=127, time=0),
    Message('note_on', channel=9, note=42, velocity=0, time=60),
    Message('note_on', channel=9, note=38, velocity=0, time=0),
    Message('note_on', channel=9, note=35, velocity=127, time=0),
    Message('note_on', channel=9, note=42, velocity=127, time=0),
    Message('note_on', channel=9, note=42, velocity=0, time=60),
    Message('note_on', channel=9, note=35, velocity=0, time=0),
    Message('note_on', channel=9, note=38, velocity=127, time=0),
    Message('note_on', channel=9, note=42, velocity=127, time=0),
    Message('note_on', channel=9, note=42, velocity=0, time=60),
    Message('note_on', channel=9, note=38, velocity=0, time=0),
    Message('note_on', channel=9, note=35, velocity=127, time=0),
    Message('note_on', channel=9, note=42, velocity=127, time=0),
    Message('note_on', channel=9, note=42, velocity=0, time=60),
    Message('note_on', channel=9, note=35, velocity=0, time=0),
    Message('note_on', channel=9, note=38, velocity=127, time=0),
    Message('note_on', channel=9, note=42, velocity=127, time=0),
    Message('note_on', channel=9, note=42, velocity=0, time=60),
    Message('note_on', channel=9, note=38, velocity=0, time=0),
    Message('note_on', channel=9, note=35, velocity=127, time=0),
    Message('note_on', channel=9, note=42, velocity=127, time=0),
    Message('note_on', channel=9, note=42, velocity=0, time=60),
    Message('note_on', channel=9, note=35, velocity=0, time=0),
    Message('note_on', channel=9, note=38, velocity=127, time=0),
    Message('note_on', channel=9, note=42, velocity=127, time=0),
    Message('note_on', channel=9, note=42, velocity=0, time=60),
    Message('note_on', channel=9, note=38, velocity=0, time=0),
    Message('note_on', channel=9, note=35, velocity=127, time=0),
    Message('note_on', channel=9, note=42, velocity=127, time=0),
    Message('note_on', channel=9, note=42, velocity=0, time=60),
    Message('note_on', channel=9, note=35, velocity=0, time=0),
    Message('note_on', channel=9, note=38, velocity=127, time=0),
    Message('note_on', channel=9, note=42, velocity=127, time=0),
    Message('note_on', channel=9, note=42, velocity=0, time=60),
    Message('note_on', channel=9, note=38, velocity=0, time=0),
    Message('note_on', channel=9, note=35, velocity=127, time=0),
    Message('note_on', channel=9, note=42, velocity=127, time=0),
    Message('note_on', channel=9, note=42, velocity=0, time=60),
    Message('note_on', channel=9, note=35, velocity=0, time=0),
    Message('note_on', channel=9, note=38, velocity=127, time=0),
    Message('note_on', channel=9, note=42, velocity=127, time=0),
    Message('note_on', channel=9, note=42, velocity=0, time=60),
    Message('note_on', channel=9, note=38, velocity=0, time=0),
    Message('note_on', channel=9, note=35, velocity=127, time=0),
    Message('note_on', channel=9, note=42, velocity=127, time=0),
    Message('note_on', channel=9, note=42, velocity=0, time=60),
    Message('note_on', channel=9, note=35, velocity=0, time=0),
    Message('note_on', channel=9, note=38, velocity=127, time=0),
    Message('note_on', channel=9, note=42, velocity=127, time=0),
    Message('note_on', channel=9, note=42, velocity=0, time=60),
    Message('note_on', channel=9, note=38, velocity=0, time=0),
    Message('note_on', channel=9, note=35, velocity=127, time=0),
    Message('note_on', channel=9, note=42, velocity=127, time=0),
    Message('note_on', channel=9, note=42, velocity=0, time=60),
    Message('note_on', channel=9, note=35, velocity=0, time=0),
    Message('note_on', channel=9, note=38, velocity=127, time=0),
    Message('note_on', channel=9, note=42, velocity=127, time=0),
    Message('note_on', channel=9, note=42, velocity=0, time=60),
    Message('note_on', channel=9, note=38, velocity=0, time=0),
    Message('note_on', channel=9, note=42, velocity=127, time=0),
    Message('note_on', channel=9, note=42, velocity=0, time=60),
    Message('note_on', channel=9, note=38, velocity=127, time=0),
    Message('note_on', channel=9, note=42, velocity=127, time=0),
    Message('note_on', channel=9, note=42, velocity=0, time=60),
    Message('note_on', channel=9, note=38, velocity=0, time=0),
    Message('note_on', channel=9, note=36, velocity=127, time=0),
    Message('note_on', channel=9, note=42, velocity=127, time=0),
    Message('note_on', channel=9, note=42, velocity=0, time=60),
    Message('note_on', channel=9, note=36, velocity=0, time=0),
    Message('note_on', channel=9, note=38, velocity=127, time=0),
    Message('note_on', channel=9, note=42, velocity=127, time=0),
    Message('note_on', channel=9, note=42, velocity=0, time=60),
    Message('note_on', channel=9, note=38, velocity=0, time=0),
    Message('note_on', channel=9, note=36, velocity=127, time=0),
    Message('note_on', channel=9, note=42, velocity=127, time=0),
    Message('note_on', channel=9, note=42, velocity=0, time=60),
    Message('note_on', channel=9, note=36, velocity=0, time=0),
    Message('note_on', channel=9, note=38, velocity=127, time=0),
    Message('note_on', channel=9, note=42, velocity=127, time=0),
    Message('note_on', channel=9, note=36, velocity=127, time=30),
    Message('note_on', channel=9, note=36, velocity=0, time=30),
    Message('note_on', channel=9, note=42, velocity=0, time=0),
    Message('note_on', channel=9, note=38, velocity=0, time=0),
    Message('note_on', channel=9, note=36, velocity=127, time=0),
    Message('note_on', channel=9, note=42, velocity=127, time=0),
    Message('note_on', channel=9, note=42, velocity=0, time=60),
    Message('note_on', channel=9, note=36, velocity=0, time=0),
    Message('note_on', channel=9, note=38, velocity=127, time=0),
    Message('note_on', channel=9, note=42, velocity=127, time=0),
    Message('note_on', channel=9, note=42, velocity=0, time=60),
    Message('note_on', channel=9, note=38, velocity=0, time=0),
    Message('note_on', channel=9, note=42, velocity=127, time=0),
    Message('note_on', channel=9, note=42, velocity=0, time=60),
    Message('note_on', channel=9, note=38, velocity=127, time=0),
    Message('note_on', channel=9, note=42, velocity=127, time=0),
    Message('note_on', channel=9, note=35, velocity=127, time=30),
    Message('note_on', channel=9, note=35, velocity=0, time=30),
    Message('note_on', channel=9, note=42, velocity=0, time=0),
    Message('note_on', channel=9, note=38, velocity=0, time=0),
    Message('note_on', channel=9, note=35, velocity=127, time=0),
    Message('note_on', channel=9, note=42, velocity=127, time=0),
    Message('note_on', channel=9, note=42, velocity=0, time=60),
    Message('note_on', channel=9, note=35, velocity=0, time=0),
    Message('note_on', channel=9, note=38, velocity=127, time=0),
    Message('note_on', channel=9, note=42, velocity=127, time=0),
    Message('note_on', channel=9, note=35, velocity=127, time=30),
    Message('note_on', channel=9, note=35, velocity=0, time=30),
    Message('note_on', channel=9, note=42, velocity=0, time=0),
    Message('note_on', channel=9, note=38, velocity=0, time=0),
    Message('note_on', channel=9, note=35, velocity=127, time=0),
    Message('note_on', channel=9, note=42, velocity=127, time=0),
    Message('note_on', channel=9, note=42, velocity=0, time=60),
    Message('note_on', channel=9, note=35, velocity=0, time=0),
    Message('note_on', channel=9, note=38, velocity=127, time=0),
    Message('note_on', channel=9, note=42, velocity=127, time=0),
    Message('note_on', channel=9, note=42, velocity=0, time=60),
    Message('note_on', channel=9, note=38, velocity=0, time=0),
    Message('note_on', channel=9, note=35, velocity=127, time=0),
    Message('note_on', channel=9, note=42, velocity=127, time=0),
    Message('note_on', channel=9, note=42, velocity=0, time=60),
    Message('note_on', channel=9, note=35, velocity=0, time=0),
    Message('note_on', channel=9, note=38, velocity=127, time=0),
    Message('note_on', channel=9, note=42, velocity=127, time=0),
    Message('note_on', channel=9, note=42, velocity=0, time=60),
    Message('note_on', channel=9, note=38, velocity=0, time=0),
    Message('note_on', channel=9, note=35, velocity=127, time=0),
    Message('note_on', channel=9, note=42, velocity=127, time=0),
    Message('note_on', channel=9, note=42, velocity=0, time=60),
    Message('note_on', channel=9, note=35, velocity=0, time=0),
    Message('note_on', channel=9, note=38, velocity=127, time=0),
    Message('note_on', channel=9, note=42, velocity=127, time=0),
    Message('note_on', channel=9, note=42, velocity=0, time=60),
    Message('note_on', channel=9, note=38, velocity=0, time=0),
    Message('note_on', channel=9, note=35, velocity=127, time=0),
    Message('note_on', channel=9, note=42, velocity=127, time=0),
    Message('note_on', channel=9, note=42, velocity=0, time=60),
    Message('note_on', channel=9, note=35, velocity=0, time=0),
    Message('note_on', channel=9, note=38, velocity=127, time=0),
    Message('note_on', channel=9, note=42, velocity=127, time=0),
    Message('note_on', channel=9, note=42, velocity=0, time=60),
    Message('note_on', channel=9, note=38, velocity=0, time=0),
    Message('note_on', channel=9, note=35, velocity=127, time=0),
    Message('note_on', channel=9, note=42, velocity=127, time=0),
    Message('note_on', channel=9, note=42, velocity=0, time=60),
    Message('note_on', channel=9, note=35, velocity=0, time=0),
    Message('note_on', channel=9, note=38, velocity=127, time=0),
    Message('note_on', channel=9, note=42, velocity=127, time=0),
    Message('note_on', channel=9, note=42, velocity=0, time=60),
    Message('note_on', channel=9, note=38, velocity=0, time=0),
    Message('note_on', channel=9, note=35, velocity=127, time=0),
    Message('note_on', channel=9, note=42, velocity=127, time=0),
    Message('note_on', channel=9, note=42, velocity=0, time=60),
    Message('note_on', channel=9, note=35, velocity=0, time=0),
    Message('note_on', channel=9, note=38, velocity=127, time=0),
    Message('note_on', channel=9, note=42, velocity=127, time=0),
    Message('note_on', channel=9, note=42, velocity=0, time=60),
    Message('note_on', channel=9, note=38, velocity=0, time=0),
    Message('note_on', channel=9, note=35, velocity=127, time=0),
    Message('note_on', channel=9, note=42, velocity=127, time=0),
    Message('note_on', channel=9, note=42, velocity=0, time=60),
    Message('note_on', channel=9, note=35, velocity=0, time=0),
    Message('note_on', channel=9, note=38, velocity=127, time=0),
    Message('note_on', channel=9, note=42, velocity=127, time=0),
    Message('note_on', channel=9, note=42, velocity=0, time=60),
    Message('note_on', channel=9, note=38, velocity=0, time=0),
    Message('note_on', channel=9, note=35, velocity=127, time=0),
    Message('note_on', channel=9, note=42, velocity=127, time=0),
    Message('note_on', channel=9, note=42, velocity=0, time=60),
    Message('note_on', channel=9, note=35, velocity=0, time=0),
    Message('note_on', channel=9, note=38, velocity=127, time=0),
    Message('note_on', channel=9, note=42, velocity=127, time=0),
    Message('note_on', channel=9, note=42, velocity=0, time=60),
    Message('note_on', channel=9, note=38, velocity=0, time=0),
    Message('note_on', channel=9, note=35, velocity=127, time=0),
    Message('note_on', channel=9, note=42, velocity=127, time=0),
    Message('note_on', channel=9, note=42, velocity=0, time=60),
    Message('note_on', channel=9, note=35, velocity=0, time=0),
    Message('note_on', channel=9, note=38, velocity=127, time=0),
    Message('note_on', channel=9, note=42, velocity=127, time=0),
    Message('note_on', channel=9, note=42, velocity=0, time=60),
    Message('note_on', channel=9, note=38, velocity=0, time=0),
    Message('note_on', channel=9, note=35, velocity=127, time=0),
    Message('note_on', channel=9, note=42, velocity=127, time=0),
    Message('note_on', channel=9, note=42, velocity=0, time=60),
    Message('note_on', channel=9, note=35, velocity=0, time=0),
    Message('note_on', channel=9, note=38, velocity=127, time=0),
    Message('note_on', channel=9, note=42, velocity=127, time=0),
    Message('note_on', channel=9, note=42, velocity=0, time=60),
    Message('note_on', channel=9, note=38, velocity=0, time=0),
    Message('note_on', channel=9, note=42, velocity=127, time=0),
    Message('note_on', channel=9, note=42, velocity=0, time=60),
    Message('note_on', channel=9, note=38, velocity=127, time=0),
    Message('note_on', channel=9, note=42, velocity=127, time=0),
    Message('note_on', channel=9, note=42, velocity=0, time=60),
    Message('note_on', channel=9, note=38, velocity=0, time=0),
    Message('note_on', channel=9, note=36, velocity=127, time=0),
    Message('note_on', channel=9, note=42, velocity=127, time=0),
    Message('note_on', channel=9, note=42, velocity=0, time=60),
    Message('note_on', channel=9, note=36, velocity=0, time=0),
    Message('note_on', channel=9, note=38, velocity=127, time=0),
    Message('note_on', channel=9, note=42, velocity=127, time=0),
    Message('note_on', channel=9, note=42, velocity=0, time=60),
    Message('note_on', channel=9, note=38, velocity=0, time=0),
    Message('note_on', channel=9, note=36, velocity=127, time=0),
    Message('note_on', channel=9, note=42, velocity=127, time=0),
    Message('note_on', channel=9, note=42, velocity=0, time=60),
    Message('note_on', channel=9, note=36, velocity=0, time=0),
    Message('note_on', channel=9, note=38, velocity=127, time=0),
    Message('note_on', channel=9, note=42, velocity=127, time=0),
    Message('note_on', channel=9, note=36, velocity=127, time=30),
    Message('note_on', channel=9, note=36, velocity=0, time=30),
    Message('note_on', channel=9, note=42, velocity=0, time=0),
    Message('note_on', channel=9, note=38, velocity=0, time=0),
    Message('note_on', channel=9, note=36, velocity=127, time=0),
    Message('note_on', channel=9, note=42, velocity=127, time=0),
    Message('note_on', channel=9, note=42, velocity=0, time=60),
    Message('note_on', channel=9, note=36, velocity=0, time=0),
    Message('note_on', channel=9, note=38, velocity=127, time=0),
    Message('note_on', channel=9, note=42, velocity=127, time=0),
    Message('note_on', channel=9, note=42, velocity=0, time=60),
    Message('note_on', channel=9, note=38, velocity=0, time=0),
    Message('note_on', channel=9, note=42, velocity=127, time=0),
    Message('note_on', channel=9, note=42, velocity=0, time=60),
    Message('note_on', channel=9, note=38, velocity=127, time=0),
    Message('note_on', channel=9, note=42, velocity=127, time=0),
    Message('note_on', channel=9, note=35, velocity=127, time=30),
    Message('note_on', channel=9, note=35, velocity=0, time=30),
    Message('note_on', channel=9, note=42, velocity=0, time=0),
    Message('note_on', channel=9, note=38, velocity=0, time=0),
    Message('note_on', channel=9, note=35, velocity=127, time=0),
    Message('note_on', channel=9, note=42, velocity=127, time=0),
    Message('note_on', channel=9, note=42, velocity=0, time=60),
    Message('note_on', channel=9, note=35, velocity=0, time=0),
    Message('note_on', channel=9, note=38, velocity=127, time=0),
    Message('note_on', channel=9, note=42, velocity=127, time=0),
    Message('note_on', channel=9, note=35, velocity=127, time=30),
    Message('note_on', channel=9, note=35, velocity=0, time=30),
    Message('note_on', channel=9, note=42, velocity=0, time=0),
    Message('note_on', channel=9, note=38, velocity=0, time=0),
    Message('note_on', channel=9, note=35, velocity=127, time=0),
    Message('note_on', channel=9, note=42, velocity=127, time=0),
    Message('note_on', channel=9, note=42, velocity=0, time=60),
    Message('note_on', channel=9, note=35, velocity=0, time=0),
    Message('note_on', channel=9, note=38, velocity=127, time=0),
    Message('note_on', channel=9, note=42, velocity=127, time=0),
    Message('note_on', channel=9, note=42, velocity=0, time=60),
    Message('note_on', channel=9, note=38, velocity=0, time=0),
    Message('note_on', channel=9, note=35, velocity=127, time=0),
    Message('note_on', channel=9, note=42, velocity=127, time=0),
    Message('note_on', channel=9, note=42, velocity=0, time=60),
    Message('note_on', channel=9, note=35, velocity=0, time=0),
    Message('note_on', channel=9, note=38, velocity=127, time=0),
    Message('note_on', channel=9, note=42, velocity=127, time=0),
    Message('note_on', channel=9, note=42, velocity=0, time=60),
    Message('note_on', channel=9, note=38, velocity=0, time=0),
    Message('note_on', channel=9, note=35, velocity=127, time=0),
    Message('note_on', channel=9, note=42, velocity=127, time=0),
    Message('note_on', channel=9, note=42, velocity=0, time=60),
    Message('note_on', channel=9, note=35, velocity=0, time=0),
    Message('note_on', channel=9, note=38, velocity=127, time=0),
    Message('note_on', channel=9, note=42, velocity=127, time=0),
    Message('note_on', channel=9, note=42, velocity=0, time=60),
    Message('note_on', channel=9, note=38, velocity=0, time=0),
    Message('note_on', channel=9, note=35, velocity=127, time=0),
    Message('note_on', channel=9, note=42, velocity=127, time=0),
    Message('note_on', channel=9, note=42, velocity=0, time=60),
    Message('note_on', channel=9, note=35, velocity=0, time=0),
    Message('note_on', channel=9, note=38, velocity=127, time=0),
    Message('note_on', channel=9, note=42, velocity=127, time=0),
    Message('note_on', channel=9, note=42, velocity=0, time=60),
    Message('note_on', channel=9, note=38, velocity=0, time=0),
    Message('note_on', channel=9, note=35, velocity=127, time=0),
    Message('note_on', channel=9, note=42, velocity=127, time=0),
    Message('note_on', channel=9, note=42, velocity=0, time=60),
    Message('note_on', channel=9, note=35, velocity=0, time=0),
    Message('note_on', channel=9, note=38, velocity=127, time=0),
    Message('note_on', channel=9, note=42, velocity=127, time=0),
    Message('note_on', channel=9, note=42, velocity=0, time=60),
    Message('note_on', channel=9, note=38, velocity=0, time=0),
    Message('note_on', channel=9, note=35, velocity=127, time=0),
    Message('note_on', channel=9, note=42, velocity=127, time=0),
    Message('note_on', channel=9, note=42, velocity=0, time=60),
    Message('note_on', channel=9, note=35, velocity=0, time=0),
    Message('note_on', channel=9, note=38, velocity=127, time=0),
    Message('note_on', channel=9, note=42, velocity=127, time=0),
    Message('note_on', channel=9, note=42, velocity=0, time=60),
    Message('note_on', channel=9, note=38, velocity=0, time=0),
    Message('note_on', channel=9, note=35, velocity=127, time=0),
    Message('note_on', channel=9, note=42, velocity=127, time=0),
    Message('note_on', channel=9, note=42, velocity=0, time=60),
    Message('note_on', channel=9, note=35, velocity=0, time=0),
    Message('note_on', channel=9, note=38, velocity=127, time=0),
    Message('note_on', channel=9, note=42, velocity=127, time=0),
    Message('note_on', channel=9, note=42, velocity=0, time=60),
    Message('note_on', channel=9, note=38, velocity=0, time=0),
    Message('note_on', channel=9, note=35, velocity=127, time=0),
    Message('note_on', channel=9, note=42, velocity=127, time=0),
    Message('note_on', channel=9, note=42, velocity=0, time=60),
    Message('note_on', channel=9, note=35, velocity=0, time=0),
    Message('note_on', channel=9, note=38, velocity=127, time=0),
    Message('note_on', channel=9, note=42, velocity=127, time=0),
    Message('note_on', channel=9, note=42, velocity=0, time=60),
    Message('note_on', channel=9, note=38, velocity=0, time=0),
    Message('note_on', channel=9, note=35, velocity=127, time=0),
    Message('note_on', channel=9, note=42, velocity=127, time=0),
    Message('note_on', channel=9, note=42, velocity=0, time=60),
    Message('note_on', channel=9, note=35, velocity=0, time=0),
    Message('note_on', channel=9, note=38, velocity=127, time=0),
    Message('note_on', channel=9, note=42, velocity=127, time=0),
    Message('note_on', channel=9, note=42, velocity=0, time=60),
    Message('note_on', channel=9, note=38, velocity=0, time=0),
    Message('note_on', channel=9, note=35, velocity=127, time=0),
    Message('note_on', channel=9, note=42, velocity=127, time=0),
    Message('note_on', channel=9, note=42, velocity=0, time=60),
    Message('note_on', channel=9, note=35, velocity=0, time=0),
    Message('note_on', channel=9, note=38, velocity=127, time=0),
    Message('note_on', channel=9, note=42, velocity=127, time=0),
    Message('note_on', channel=9, note=42, velocity=0, time=60),
    Message('note_on', channel=9, note=38, velocity=0, time=0),
    Message('note_on', channel=9, note=42, velocity=127, time=0),
    Message('note_on', channel=9, note=42, velocity=0, time=60),
    Message('note_on', channel=9, note=38, velocity=127, time=0),
    Message('note_on', channel=9, note=42, velocity=127, time=0),
    Message('note_on', channel=9, note=42, velocity=0, time=60),
    Message('note_on', channel=9, note=38, velocity=0, time=0),
    Message('note_on', channel=9, note=36, velocity=127, time=0),
    Message('note_on', channel=9, note=42, velocity=127, time=0),
    Message('note_on', channel=9, note=42, velocity=0, time=60),
    Message('note_on', channel=9, note=36, velocity=0, time=0),
    Message('note_on', channel=9, note=38, velocity=127, time=0),
    Message('note_on', channel=9, note=42, velocity=127, time=0),
    Message('note_on', channel=9, note=42, velocity=0, time=60),
    Message('note_on', channel=9, note=38, velocity=0, time=0),
    Message('note_on', channel=9, note=36, velocity=127, time=0),
    Message('note_on', channel=9, note=42, velocity=127, time=0),
    Message('note_on', channel=9, note=42, velocity=0, time=60),
    Message('note_on', channel=9, note=36, velocity=0, time=0),
    Message('note_on', channel=9, note=38, velocity=127, time=0),
    Message('note_on', channel=9, note=42, velocity=127, time=0),
    Message('note_on', channel=9, note=36, velocity=127, time=30),
    Message('note_on', channel=9, note=36, velocity=0, time=30),
    Message('note_on', channel=9, note=42, velocity=0, time=0),
    Message('note_on', channel=9, note=38, velocity=0, time=0),
    Message('note_on', channel=9, note=36, velocity=127, time=0),
    Message('note_on', channel=9, note=42, velocity=127, time=0),
    Message('note_on', channel=9, note=42, velocity=0, time=60),
    Message('note_on', channel=9, note=36, velocity=0, time=0),
    Message('note_on', channel=9, note=38, velocity=127, time=0),
    Message('note_on', channel=9, note=42, velocity=127, time=0),
    Message('note_on', channel=9, note=42, velocity=0, time=60),
    Message('note_on', channel=9, note=38, velocity=0, time=0),
    Message('note_on', channel=9, note=42, velocity=127, time=0),
    Message('note_on', channel=9, note=42, velocity=0, time=60),
    Message('note_on', channel=9, note=38, velocity=127, time=0),
    Message('note_on', channel=9, note=42, velocity=127, time=0),
    Message('note_on', channel=9, note=35, velocity=127, time=30),
    Message('note_on', channel=9, note=35, velocity=0, time=30),
    Message('note_on', channel=9, note=42, velocity=0, time=0),
    Message('note_on', channel=9, note=38, velocity=0, time=0),
    Message('note_on', channel=9, note=35, velocity=127, time=0),
    Message('note_on', channel=9, note=42, velocity=127, time=0),
    Message('note_on', channel=9, note=42, velocity=0, time=60),
    Message('note_on', channel=9, note=35, velocity=0, time=0),
    Message('note_on', channel=9, note=38, velocity=127, time=0),
    Message('note_on', channel=9, note=42, velocity=127, time=0),
    Message('note_on', channel=9, note=35, velocity=127, time=30),
    Message('note_on', channel=9, note=35, velocity=0, time=30),
    Message('note_on', channel=9, note=42, velocity=0, time=0),
    Message('note_on', channel=9, note=38, velocity=0, time=0),
    Message('note_on', channel=9, note=35, velocity=127, time=0),
    Message('note_on', channel=9, note=42, velocity=127, time=0),
    Message('note_on', channel=9, note=42, velocity=0, time=60),
    Message('note_on', channel=9, note=35, velocity=0, time=0),
    Message('note_on', channel=9, note=38, velocity=127, time=0),
    Message('note_on', channel=9, note=42, velocity=127, time=0),
    Message('note_on', channel=9, note=42, velocity=0, time=60),
    Message('note_on', channel=9, note=38, velocity=0, time=0),
    Message('note_on', channel=9, note=35, velocity=127, time=0),
    Message('note_on', channel=9, note=42, velocity=127, time=0),
    Message('note_on', channel=9, note=42, velocity=0, time=60),
    Message('note_on', channel=9, note=35, velocity=0, time=0),
    Message('note_on', channel=9, note=38, velocity=127, time=0),
    Message('note_on', channel=9, note=42, velocity=127, time=0),
    Message('note_on', channel=9, note=42, velocity=0, time=60),
    Message('note_on', channel=9, note=38, velocity=0, time=0),
    Message('note_on', channel=9, note=35, velocity=127, time=0),
    Message('note_on', channel=9, note=42, velocity=127, time=0),
    Message('note_on', channel=9, note=42, velocity=0, time=60),
    Message('note_on', channel=9, note=35, velocity=0, time=0),
    Message('note_on', channel=9, note=38, velocity=127, time=0),
    Message('note_on', channel=9, note=42, velocity=127, time=0),
    Message('note_on', channel=9, note=42, velocity=0, time=60),
    Message('note_on', channel=9, note=38, velocity=0, time=0),
    Message('note_on', channel=9, note=35, velocity=127, time=0),
    Message('note_on', channel=9, note=42, velocity=127, time=0),
    Message('note_on', channel=9, note=42, velocity=0, time=60),
    Message('note_on', channel=9, note=35, velocity=0, time=0),
    Message('note_on', channel=9, note=38, velocity=127, time=0),
    Message('note_on', channel=9, note=42, velocity=127, time=0),
    Message('note_on', channel=9, note=42, velocity=0, time=60),
    Message('note_on', channel=9, note=38, velocity=0, time=0),
    Message('note_on', channel=9, note=35, velocity=127, time=0),
    Message('note_on', channel=9, note=42, velocity=127, time=0),
    Message('note_on', channel=9, note=42, velocity=0, time=60),
    Message('note_on', channel=9, note=35, velocity=0, time=0),
    Message('note_on', channel=9, note=38, velocity=127, time=0),
    Message('note_on', channel=9, note=42, velocity=127, time=0),
    Message('note_on', channel=9, note=42, velocity=0, time=60),
    Message('note_on', channel=9, note=38, velocity=0, time=0),
    Message('note_on', channel=9, note=35, velocity=127, time=0),
    Message('note_on', channel=9, note=42, velocity=127, time=0),
    Message('note_on', channel=9, note=42, velocity=0, time=60),
    Message('note_on', channel=9, note=35, velocity=0, time=0),
    Message('note_on', channel=9, note=38, velocity=127, time=0),
    Message('note_on', channel=9, note=42, velocity=127, time=0),
    Message('note_on', channel=9, note=42, velocity=0, time=60),
    Message('note_on', channel=9, note=38, velocity=0, time=0),
    Message('note_on', channel=9, note=35, velocity=127, time=0),
    Message('note_on', channel=9, note=42, velocity=127, time=0),
    Message('note_on', channel=9, note=42, velocity=0, time=60),
    Message('note_on', channel=9, note=35, velocity=0, time=0),
    Message('note_on', channel=9, note=38, velocity=127, time=0),
    Message('note_on', channel=9, note=42, velocity=127, time=0),
    Message('note_on', channel=9, note=42, velocity=0, time=60),
    Message('note_on', channel=9, note=38, velocity=0, time=0),
    Message('note_on', channel=9, note=35, velocity=127, time=0),
    Message('note_on', channel=9, note=42, velocity=127, time=0),
    Message('note_on', channel=9, note=42, velocity=0, time=60),
    Message('note_on', channel=9, note=35, velocity=0, time=0),
    Message('note_on', channel=9, note=38, velocity=127, time=0),
    Message('note_on', channel=9, note=42, velocity=127, time=0),
    Message('note_on', channel=9, note=42, velocity=0, time=60),
    Message('note_on', channel=9, note=38, velocity=0, time=0),
    Message('note_on', channel=9, note=35, velocity=127, time=0),
    Message('note_on', channel=9, note=42, velocity=127, time=0),
    Message('note_on', channel=9, note=42, velocity=0, time=60),
    Message('note_on', channel=9, note=35, velocity=0, time=0),
    Message('note_on', channel=9, note=38, velocity=127, time=0),
    Message('note_on', channel=9, note=42, velocity=127, time=0),
    Message('note_on', channel=9, note=42, velocity=0, time=60),
    Message('note_on', channel=9, note=38, velocity=0, time=0),
    Message('note_on', channel=9, note=35, velocity=127, time=0),
    Message('note_on', channel=9, note=42, velocity=127, time=0),
    Message('note_on', channel=9, note=42, velocity=0, time=60),
    Message('note_on', channel=9, note=35, velocity=0, time=0),
    Message('note_on', channel=9, note=38, velocity=127, time=0),
    Message('note_on', channel=9, note=42, velocity=127, time=0),
    Message('note_on', channel=9, note=42, velocity=0, time=60),
    Message('note_on', channel=9, note=38, velocity=0, time=0),
    Message('note_on', channel=9, note=42, velocity=127, time=0),
    Message('note_on', channel=9, note=42, velocity=0, time=60),
    Message('note_on', channel=9, note=38, velocity=127, time=0),
    Message('note_on', channel=9, note=42, velocity=127, time=0),
    Message('note_on', channel=9, note=42, velocity=0, time=60),
    Message('note_on', channel=9, note=38, velocity=0, time=0),
    Message('note_on', channel=9, note=36, velocity=127, time=0),
    Message('note_on', channel=9, note=42, velocity=127, time=0),
    Message('note_on', channel=9, note=42, velocity=0, time=60),
    Message('note_on', channel=9, note=36, velocity=0, time=0),
    Message('note_on', channel=9, note=38, velocity=127, time=0),
    Message('note_on', channel=9, note=42, velocity=127, time=0),
    Message('note_on', channel=9, note=42, velocity=0, time=60),
    Message('note_on', channel=9, note=38, velocity=0, time=0),
    Message('note_on', channel=9, note=36, velocity=127, time=0),
    Message('note_on', channel=9, note=42, velocity=127, time=0),
    Message('note_on', channel=9, note=42, velocity=0, time=60),
    Message('note_on', channel=9, note=36, velocity=0, time=0),
    Message('note_on', channel=9, note=38, velocity=127, time=0),
    Message('note_on', channel=9, note=42, velocity=127, time=0),
    Message('note_on', channel=9, note=36, velocity=127, time=30),
    Message('note_on', channel=9, note=36, velocity=0, time=30),
    Message('note_on', channel=9, note=42, velocity=0, time=0),
    Message('note_on', channel=9, note=38, velocity=0, time=0),
    Message('note_on', channel=9, note=36, velocity=127, time=0),
    Message('note_on', channel=9, note=42, velocity=127, time=0),
    Message('note_on', channel=9, note=42, velocity=0, time=60),
    Message('note_on', channel=9, note=36, velocity=0, time=0),
    Message('note_on', channel=9, note=38, velocity=127, time=0),
    Message('note_on', channel=9, note=42, velocity=127, time=0),
    Message('note_on', channel=9, note=42, velocity=0, time=60),
    Message('note_on', channel=9, note=38, velocity=0, time=0),
    Message('note_on', channel=9, note=42, velocity=127, time=0),
    Message('note_on', channel=9, note=42, velocity=0, time=60),
    Message('note_on', channel=9, note=38, velocity=127, time=0),
    Message('note_on', channel=9, note=42, velocity=127, time=0),
    Message('note_on', channel=9, note=35, velocity=127, time=30),
    Message('note_on', channel=9, note=35, velocity=0, time=30),
    Message('note_on', channel=9, note=42, velocity=0, time=0),
    Message('note_on', channel=9, note=38, velocity=0, time=0),
    Message('note_on', channel=9, note=35, velocity=127, time=0),
    Message('note_on', channel=9, note=42, velocity=127, time=0),
    Message('note_on', channel=9, note=42, velocity=0, time=60),
    Message('note_on', channel=9, note=35, velocity=0, time=0),
    Message('note_on', channel=9, note=38, velocity=127, time=0),
    Message('note_on', channel=9, note=42, velocity=127, time=0),
    Message('note_on', channel=9, note=35, velocity=127, time=30),
    Message('note_on', channel=9, note=35, velocity=0, time=30),
    Message('note_on', channel=9, note=42, velocity=0, time=0),
    Message('note_on', channel=9, note=38, velocity=0, time=0),
    Message('note_on', channel=9, note=35, velocity=127, time=0),
    Message('note_on', channel=9, note=42, velocity=127, time=0),
    Message('note_on', channel=9, note=42, velocity=0, time=60),
    Message('note_on', channel=9, note=35, velocity=0, time=0),
    Message('note_on', channel=9, note=38, velocity=127, time=0),
    Message('note_on', channel=9, note=42, velocity=127, time=0),
    Message('note_on', channel=9, note=42, velocity=0, time=60),
    Message('note_on', channel=9, note=38, velocity=0, time=0),
    Message('note_on', channel=9, note=35, velocity=127, time=0),
    Message('note_on', channel=9, note=42, velocity=127, time=0),
    Message('note_on', channel=9, note=42, velocity=0, time=60),
    Message('note_on', channel=9, note=35, velocity=0, time=0),
    Message('note_on', channel=9, note=38, velocity=127, time=0),
    Message('note_on', channel=9, note=42, velocity=127, time=0),
    Message('note_on', channel=9, note=42, velocity=0, time=60),
    Message('note_on', channel=9, note=38, velocity=0, time=0),
    Message('note_on', channel=9, note=35, velocity=127, time=0),
    Message('note_on', channel=9, note=42, velocity=127, time=0),
    Message('note_on', channel=9, note=42, velocity=0, time=60),
    Message('note_on', channel=9, note=35, velocity=0, time=0),
    Message('note_on', channel=9, note=38, velocity=127, time=0),
    Message('note_on', channel=9, note=42, velocity=127, time=0),
    Message('note_on', channel=9, note=42, velocity=0, time=60),
    Message('note_on', channel=9, note=38, velocity=0, time=0),
    Message('note_on', channel=9, note=35, velocity=127, time=0),
    Message('note_on', channel=9, note=42, velocity=127, time=0),
    Message('note_on', channel=9, note=42, velocity=0, time=60),
    Message('note_on', channel=9, note=35, velocity=0, time=0),
    Message('note_on', channel=9, note=38, velocity=127, time=0),
    Message('note_on', channel=9, note=42, velocity=127, time=0),
    Message('note_on', channel=9, note=42, velocity=0, time=60),
    Message('note_on', channel=9, note=38, velocity=0, time=0),
    Message('note_on', channel=9, note=35, velocity=127, time=0),
    Message('note_on', channel=9, note=42, velocity=127, time=0),
    Message('note_on', channel=9, note=42, velocity=0, time=60),
    Message('note_on', channel=9, note=35, velocity=0, time=0),
    Message('note_on', channel=9, note=38, velocity=127, time=0),
    Message('note_on', channel=9, note=42, velocity=127, time=0),
    Message('note_on', channel=9, note=42, velocity=0, time=60),
    Message('note_on', channel=9, note=38, velocity=0, time=0),
    Message('note_on', channel=9, note=35, velocity=127, time=0),
    Message('note_on', channel=9, note=42, velocity=127, time=0),
    Message('note_on', channel=9, note=42, velocity=0, time=60),
    Message('note_on', channel=9, note=35, velocity=0, time=0),
    Message('note_on', channel=9, note=38, velocity=127, time=0),
    Message('note_on', channel=9, note=42, velocity=127, time=0),
    Message('note_on', channel=9, note=42, velocity=0, time=60),
    Message('note_on', channel=9, note=38, velocity=0, time=0),
    Message('note_on', channel=9, note=35, velocity=127, time=0),
    Message('note_on', channel=9, note=42, velocity=127, time=0),
    Message('note_on', channel=9, note=42, velocity=0, time=60),
    Message('note_on', channel=9, note=35, velocity=0, time=0),
    Message('note_on', channel=9, note=38, velocity=127, time=0),
    Message('note_on', channel=9, note=42, velocity=127, time=0),
    Message('note_on', channel=9, note=42, velocity=0, time=60),
    Message('note_on', channel=9, note=38, velocity=0, time=0),
    Message('note_on', channel=9, note=35, velocity=127, time=0),
    Message('note_on', channel=9, note=42, velocity=127, time=0),
    Message('note_on', channel=9, note=42, velocity=0, time=60),
    Message('note_on', channel=9, note=35, velocity=0, time=0),
    Message('note_on', channel=9, note=38, velocity=127, time=0),
    Message('note_on', channel=9, note=42, velocity=127, time=0),
    Message('note_on', channel=9, note=42, velocity=0, time=60),
    Message('note_on', channel=9, note=38, velocity=0, time=0),
    Message('note_on', channel=9, note=35, velocity=127, time=0),
    Message('note_on', channel=9, note=42, velocity=127, time=0),
    Message('note_on', channel=9, note=42, velocity=0, time=60),
    Message('note_on', channel=9, note=35, velocity=0, time=0),
    Message('note_on', channel=9, note=38, velocity=127, time=0),
    Message('note_on', channel=9, note=42, velocity=127, time=0),
    Message('note_on', channel=9, note=42, velocity=0, time=60),
    Message('note_on', channel=9, note=38, velocity=0, time=0),
    Message('note_on', channel=9, note=35, velocity=127, time=0),
    Message('note_on', channel=9, note=42, velocity=127, time=0),
    Message('note_on', channel=9, note=42, velocity=0, time=60),
    Message('note_on', channel=9, note=35, velocity=0, time=0),
    Message('note_on', channel=9, note=38, velocity=127, time=0),
    Message('note_on', channel=9, note=42, velocity=127, time=0),
    Message('note_on', channel=9, note=42, velocity=0, time=60),
    Message('note_on', channel=9, note=38, velocity=0, time=0),
    Message('note_on', channel=9, note=42, velocity=127, time=0),
    Message('note_on', channel=9, note=42, velocity=0, time=60),
    Message('note_on', channel=9, note=38, velocity=127, time=0),
    Message('note_on', channel=9, note=42, velocity=127, time=0),
    Message('note_on', channel=9, note=42, velocity=0, time=60),
    Message('note_on', channel=9, note=38, velocity=0, time=0),
    Message('note_on', channel=9, note=35, velocity=127, time=0),
    Message('note_on', channel=9, note=42, velocity=127, time=0),
    Message('note_on', channel=9, note=42, velocity=0, time=60),
    Message('note_on', channel=9, note=35, velocity=0, time=0),
    Message('note_on', channel=9, note=38, velocity=127, time=0),
    Message('note_on', channel=9, note=42, velocity=127, time=0),
    Message('note_on', channel=9, note=42, velocity=0, time=60),
    Message('note_on', channel=9, note=38, velocity=0, time=0),
    Message('note_on', channel=9, note=35, velocity=127, time=0),
    Message('note_on', channel=9, note=42, velocity=127, time=0),
    Message('note_on', channel=9, note=42, velocity=0, time=60),
    Message('note_on', channel=9, note=35, velocity=0, time=0),
    Message('note_on', channel=9, note=38, velocity=127, time=0),
    Message('note_on', channel=9, note=42, velocity=127, time=0),
    Message('note_on', channel=9, note=35, velocity=127, time=30),
    Message('note_on', channel=9, note=35, velocity=0, time=30),
    Message('note_on', channel=9, note=42, velocity=0, time=0),
    Message('note_on', channel=9, note=38, velocity=0, time=0),
    Message('note_on', channel=9, note=35, velocity=127, time=0),
    Message('note_on', channel=9, note=42, velocity=127, time=0),
    Message('note_on', channel=9, note=42, velocity=0, time=60),
    Message('note_on', channel=9, note=35, velocity=0, time=0),
    Message('note_on', channel=9, note=38, velocity=127, time=0),
    Message('note_on', channel=9, note=42, velocity=127, time=0),
    Message('note_on', channel=9, note=42, velocity=0, time=60),
    Message('note_on', channel=9, note=38, velocity=0, time=0),
    Message('note_on', channel=9, note=42, velocity=127, time=0),
    Message('note_on', channel=9, note=42, velocity=0, time=60),
    Message('note_on', channel=9, note=38, velocity=127, time=0),
    Message('note_on', channel=9, note=42, velocity=127, time=0),
    Message('note_on', channel=9, note=35, velocity=127, time=30),
    Message('note_on', channel=9, note=35, velocity=0, time=30),
    Message('note_on', channel=9, note=42, velocity=0, time=0),
    Message('note_on', channel=9, note=38, velocity=0, time=0),
    Message('note_on', channel=9, note=35, velocity=127, time=0),
    Message('note_on', channel=9, note=42, velocity=127, time=0),
    Message('note_on', channel=9, note=42, velocity=0, time=60),
    Message('note_on', channel=9, note=35, velocity=0, time=0),
    Message('note_on', channel=9, note=38, velocity=127, time=0),
    Message('note_on', channel=9, note=42, velocity=127, time=0),
    Message('note_on', channel=9, note=35, velocity=127, time=30),
    Message('note_on', channel=9, note=35, velocity=0, time=30),
    Message('note_on', channel=9, note=42, velocity=0, time=0),
    Message('note_on', channel=9, note=38, velocity=0, time=0),
    Message('note_on', channel=9, note=35, velocity=127, time=0),
    Message('note_on', channel=9, note=42, velocity=127, time=0),
    Message('note_on', channel=9, note=42, velocity=0, time=60),
    Message('note_on', channel=9, note=35, velocity=0, time=0),
    Message('note_on', channel=9, note=38, velocity=127, time=0),
    Message('note_on', channel=9, note=42, velocity=127, time=0),
    Message('note_on', channel=9, note=42, velocity=0, time=60),
    Message('note_on', channel=9, note=38, velocity=0, time=0),
    Message('note_on', channel=9, note=35, velocity=127, time=0),
    Message('note_on', channel=9, note=42, velocity=127, time=0),
    Message('note_on', channel=9, note=42, velocity=0, time=60),
    Message('note_on', channel=9, note=35, velocity=0, time=0),
    Message('note_on', channel=9, note=38, velocity=127, time=0),
    Message('note_on', channel=9, note=42, velocity=127, time=0),
    Message('note_on', channel=9, note=42, velocity=0, time=60),
    Message('note_on', channel=9, note=38, velocity=0, time=0),
    Message('note_on', channel=9, note=35, velocity=127, time=0),
    Message('note_on', channel=9, note=42, velocity=127, time=0),
    Message('note_on', channel=9, note=42, velocity=0, time=60),
    Message('note_on', channel=9, note=35, velocity=0, time=0),
    Message('note_on', channel=9, note=38, velocity=127, time=0),
    Message('note_on', channel=9, note=42, velocity=127, time=0),
    Message('note_on', channel=9, note=42, velocity=0, time=60),
    Message('note_on', channel=9, note=38, velocity=0, time=0),
    Message('note_on', channel=9, note=35, velocity=127, time=0),
    Message('note_on', channel=9, note=42, velocity=127, time=0),
    Message('note_on', channel=9, note=42, velocity=0, time=60),
    Message('note_on', channel=9, note=35, velocity=0, time=0),
    Message('note_on', channel=9, note=38, velocity=127, time=0),
    Message('note_on', channel=9, note=42, velocity=127, time=0),
    Message('note_on', channel=9, note=42, velocity=0, time=60),
    Message('note_on', channel=9, note=38, velocity=0, time=0),
    Message('note_on', channel=9, note=35, velocity=127, time=0),
    Message('note_on', channel=9, note=42, velocity=127, time=0),
    Message('note_on', channel=9, note=42, velocity=0, time=60),
    Message('note_on', channel=9, note=35, velocity=0, time=0),
    Message('note_on', channel=9, note=38, velocity=127, time=0),
    Message('note_on', channel=9, note=42, velocity=127, time=0),
    Message('note_on', channel=9, note=42, velocity=0, time=60),
    Message('note_on', channel=9, note=38, velocity=0, time=0),
    Message('note_on', channel=9, note=35, velocity=127, time=0),
    Message('note_on', channel=9, note=42, velocity=127, time=0),
    Message('note_on', channel=9, note=42, velocity=0, time=60),
    Message('note_on', channel=9, note=35, velocity=0, time=0),
    Message('note_on', channel=9, note=38, velocity=127, time=0),
    Message('note_on', channel=9, note=42, velocity=127, time=0),
    Message('note_on', channel=9, note=42, velocity=0, time=60),
    Message('note_on', channel=9, note=38, velocity=0, time=0),
    Message('note_on', channel=9, note=35, velocity=127, time=0),
    Message('note_on', channel=9, note=42, velocity=127, time=0),
    Message('note_on', channel=9, note=42, velocity=0, time=60),
    Message('note_on', channel=9, note=35, velocity=0, time=0),
    Message('note_on', channel=9, note=38, velocity=127, time=0),
    Message('note_on', channel=9, note=42, velocity=127, time=0),
    Message('note_on', channel=9, note=42, velocity=0, time=60),
    Message('note_on', channel=9, note=38, velocity=0, time=0),
    Message('note_on', channel=9, note=35, velocity=127, time=0),
    Message('note_on', channel=9, note=42, velocity=127, time=0),
    Message('note_on', channel=9, note=42, velocity=0, time=60),
    Message('note_on', channel=9, note=35, velocity=0, time=0),
    Message('note_on', channel=9, note=38, velocity=127, time=0),
    Message('note_on', channel=9, note=42, velocity=127, time=0),
    Message('note_on', channel=9, note=42, velocity=0, time=60),
    Message('note_on', channel=9, note=38, velocity=0, time=0),
    Message('note_on', channel=9, note=38, velocity=127, time=0),
    Message('note_on', channel=9, note=38, velocity=0, time=30),
    Message('note_on', channel=9, note=38, velocity=127, time=0),
    Message('note_on', channel=9, note=38, velocity=0, time=30),
    Message('note_on', channel=9, note=38, velocity=127, time=0),
    Message('note_on', channel=9, note=38, velocity=0, time=30),
    Message('note_on', channel=9, note=38, velocity=127, time=0),
    Message('note_on', channel=9, note=38, velocity=0, time=30),
    Message('note_on', channel=9, note=38, velocity=127, time=0),
    Message('note_on', channel=9, note=38, velocity=0, time=30),
    Message('note_on', channel=9, note=38, velocity=127, time=0),
    Message('note_on', channel=9, note=38, velocity=0, time=30),
    Message('note_on', channel=9, note=35, velocity=127, time=0),
    Message('note_on', channel=9, note=57, velocity=127, time=0),
    Message('note_on', channel=9, note=57, velocity=0, time=60),
    Message('note_on', channel=9, note=42, velocity=127, time=0),
    Message('note_on', channel=9, note=35, velocity=0, time=30),
    Message('note_on', channel=9, note=35, velocity=127, time=0),
    Message('note_on', channel=9, note=35, velocity=0, time=30),
    Message('note_on', channel=9, note=42, velocity=0, time=0),
    Message('note_on', channel=9, note=38, velocity=127, time=0),
    Message('note_on', channel=9, note=42, velocity=127, time=0),
    Message('note_on', channel=9, note=42, velocity=0, time=60),
    Message('note_on', channel=9, note=38, velocity=0, time=0),
    Message('note_on', channel=9, note=35, velocity=127, time=0),
    Message('note_on', channel=9, note=42, velocity=127, time=0),
    Message('note_on', channel=9, note=42, velocity=0, time=60),
    Message('note_on', channel=9, note=35, velocity=0, time=0),
    Message('note_on', channel=9, note=42, velocity=127, time=0),
    Message('note_on', channel=9, note=42, velocity=0, time=60),
    Message('note_on', channel=9, note=35, velocity=127, time=0),
    Message('note_on', channel=9, note=42, velocity=127, time=0),
    Message('note_on', channel=9, note=42, velocity=0, time=60),
    Message('note_on', channel=9, note=35, velocity=0, time=0),
    Message('note_on', channel=9, note=38, velocity=127, time=0),
    Message('note_on', channel=9, note=42, velocity=127, time=0),
    Message('note_on', channel=9, note=42, velocity=0, time=60),
    Message('note_on', channel=9, note=38, velocity=0, time=0),
    Message('note_on', channel=9, note=42, velocity=127, time=0),
    Message('note_on', channel=9, note=42, velocity=0, time=60),
    Message('note_on', channel=9, note=35, velocity=127, time=0),
    Message('note_on', channel=9, note=42, velocity=127, time=0),
    Message('note_on', channel=9, note=42, velocity=0, time=60),
    Message('note_on', channel=9, note=42, velocity=127, time=0),
    Message('note_on', channel=9, note=35, velocity=0, time=30),
    Message('note_on', channel=9, note=35, velocity=127, time=0),
    Message('note_on', channel=9, note=35, velocity=0, time=30),
    Message('note_on', channel=9, note=42, velocity=0, time=0),
    Message('note_on', channel=9, note=38, velocity=127, time=0),
    Message('note_on', channel=9, note=42, velocity=127, time=0),
    Message('note_on', channel=9, note=42, velocity=0, time=60),
    Message('note_on', channel=9, note=38, velocity=0, time=0),
    Message('note_on', channel=9, note=35, velocity=127, time=0),
    Message('note_on', channel=9, note=42, velocity=127, time=0),
    Message('note_on', channel=9, note=42, velocity=0, time=60),
    Message('note_on', channel=9, note=35, velocity=0, time=0),
    Message('note_on', channel=9, note=42, velocity=127, time=0),
    Message('note_on', channel=9, note=42, velocity=0, time=60),
    Message('note_on', channel=9, note=35, velocity=127, time=0),
    Message('note_on', channel=9, note=42, velocity=127, time=0),
    Message('note_on', channel=9, note=35, velocity=0, time=30),
    Message('note_on', channel=9, note=35, velocity=127, time=0),
    Message('note_on', channel=9, note=35, velocity=0, time=30),
    Message('note_on', channel=9, note=42, velocity=0, time=0),
    Message('note_on', channel=9, note=38, velocity=127, time=0),
    Message('note_on', channel=9, note=57, velocity=127, time=0),
    Message('note_on', channel=9, note=57, velocity=0, time=120),
    Message('note_on', channel=9, note=38, velocity=0, time=0),
    Message('note_on', channel=9, note=35, velocity=127, time=0),
    Message('note_on', channel=9, note=42, velocity=127, time=0),
    Message('note_on', channel=9, note=42, velocity=0, time=60),
    Message('note_on', channel=9, note=42, velocity=127, time=0),
    Message('note_on', channel=9, note=35, velocity=0, time=30),
    Message('note_on', channel=9, note=35, velocity=127, time=0),
    Message('note_on', channel=9, note=35, velocity=0, time=30),
    Message('note_on', channel=9, note=42, velocity=0, time=0),
    Message('note_on', channel=9, note=38, velocity=127, time=0),
    Message('note_on', channel=9, note=42, velocity=127, time=0),
    Message('note_on', channel=9, note=42, velocity=0, time=60),
    Message('note_on', channel=9, note=38, velocity=0, time=0),
    Message('note_on', channel=9, note=35, velocity=127, time=0),
    Message('note_on', channel=9, note=42, velocity=127, time=0),
    Message('note_on', channel=9, note=42, velocity=0, time=60),
    Message('note_on', channel=9, note=35, velocity=0, time=0),
    Message('note_on', channel=9, note=42, velocity=127, time=0),
    Message('note_on', channel=9, note=42, velocity=0, time=60),
    Message('note_on', channel=9, note=35, velocity=127, time=0),
    Message('note_on', channel=9, note=42, velocity=127, time=0),
    Message('note_on', channel=9, note=42, velocity=0, time=60),
    Message('note_on', channel=9, note=35, velocity=0, time=0),
    Message('note_on', channel=9, note=38, velocity=127, time=0),
    Message('note_on', channel=9, note=42, velocity=127, time=0),
    Message('note_on', channel=9, note=42, velocity=0, time=60),
    Message('note_on', channel=9, note=38, velocity=0, time=0),
    Message('note_on', channel=9, note=42, velocity=127, time=0),
    Message('note_on', channel=9, note=42, velocity=0, time=60),
    Message('note_on', channel=9, note=35, velocity=127, time=0),
    Message('note_on', channel=9, note=42, velocity=127, time=0),
    Message('note_on', channel=9, note=42, velocity=0, time=60),
    Message('note_on', channel=9, note=42, velocity=127, time=0),
    Message('note_on', channel=9, note=35, velocity=0, time=30),
    Message('note_on', channel=9, note=35, velocity=127, time=0),
    Message('note_on', channel=9, note=35, velocity=0, time=30),
    Message('note_on', channel=9, note=42, velocity=0, time=0),
    Message('note_on', channel=9, note=38, velocity=127, time=0),
    Message('note_on', channel=9, note=42, velocity=127, time=0),
    Message('note_on', channel=9, note=42, velocity=0, time=60),
    Message('note_on', channel=9, note=38, velocity=0, time=0),
    Message('note_on', channel=9, note=35, velocity=127, time=0),
    Message('note_on', channel=9, note=42, velocity=127, time=0),
    Message('note_on', channel=9, note=42, velocity=0, time=60),
    Message('note_on', channel=9, note=35, velocity=0, time=0),
    Message('note_on', channel=9, note=42, velocity=127, time=0),
    Message('note_on', channel=9, note=42, velocity=0, time=60),
    Message('note_on', channel=9, note=35, velocity=127, time=0),
    Message('note_on', channel=9, note=42, velocity=127, time=0),
    Message('note_on', channel=9, note=35, velocity=0, time=30),
    Message('note_on', channel=9, note=35, velocity=127, time=0),
    Message('note_on', channel=9, note=35, velocity=0, time=30),
    Message('note_on', channel=9, note=42, velocity=0, time=0),
    Message('note_on', channel=9, note=38, velocity=127, time=0),
    Message('note_on', channel=9, note=57, velocity=127, time=0),
    Message('note_on', channel=9, note=57, velocity=0, time=120),
    Message('note_on', channel=9, note=38, velocity=0, time=0),
    Message('note_on', channel=9, note=35, velocity=127, time=0),
    Message('note_on', channel=9, note=42, velocity=127, time=0),
    Message('note_on', channel=9, note=42, velocity=0, time=60),
    Message('note_on', channel=9, note=42, velocity=127, time=0),
    Message('note_on', channel=9, note=35, velocity=0, time=30),
    Message('note_on', channel=9, note=35, velocity=127, time=0),
    Message('note_on', channel=9, note=35, velocity=0, time=30),
    Message('note_on', channel=9, note=42, velocity=0, time=0),
    Message('note_on', channel=9, note=38, velocity=127, time=0),
    Message('note_on', channel=9, note=42, velocity=127, time=0),
    Message('note_on', channel=9, note=42, velocity=0, time=60),
    Message('note_on', channel=9, note=38, velocity=0, time=0),
    Message('note_on', channel=9, note=35, velocity=127, time=0),
    Message('note_on', channel=9, note=42, velocity=127, time=0),
    Message('note_on', channel=9, note=42, velocity=0, time=60),
    Message('note_on', channel=9, note=35, velocity=0, time=0),
    Message('note_on', channel=9, note=42, velocity=127, time=0),
    Message('note_on', channel=9, note=42, velocity=0, time=60),
    Message('note_on', channel=9, note=35, velocity=127, time=0),
    Message('note_on', channel=9, note=42, velocity=127, time=0),
    Message('note_on', channel=9, note=42, velocity=0, time=60),
    Message('note_on', channel=9, note=35, velocity=0, time=0),
    Message('note_on', channel=9, note=38, velocity=127, time=0),
    Message('note_on', channel=9, note=42, velocity=127, time=0),
    Message('note_on', channel=9, note=42, velocity=0, time=60),
    Message('note_on', channel=9, note=38, velocity=0, time=0),
    Message('note_on', channel=9, note=42, velocity=127, time=0),
    Message('note_on', channel=9, note=42, velocity=0, time=60),
    Message('note_on', channel=9, note=35, velocity=127, time=0),
    Message('note_on', channel=9, note=42, velocity=127, time=0),
    Message('note_on', channel=9, note=42, velocity=0, time=60),
    Message('note_on', channel=9, note=42, velocity=127, time=0),
    Message('note_on', channel=9, note=35, velocity=0, time=30),
    Message('note_on', channel=9, note=35, velocity=127, time=0),
    Message('note_on', channel=9, note=35, velocity=0, time=30),
    Message('note_on', channel=9, note=42, velocity=0, time=0),
    Message('note_on', channel=9, note=38, velocity=127, time=0),
    Message('note_on', channel=9, note=42, velocity=127, time=0),
    Message('note_on', channel=9, note=42, velocity=0, time=60),
    Message('note_on', channel=9, note=38, velocity=0, time=0),
    Message('note_on', channel=9, note=35, velocity=127, time=0),
    Message('note_on', channel=9, note=42, velocity=127, time=0),
    Message('note_on', channel=9, note=42, velocity=0, time=60),
    Message('note_on', channel=9, note=35, velocity=0, time=0),
    Message('note_on', channel=9, note=42, velocity=127, time=0),
    Message('note_on', channel=9, note=42, velocity=0, time=60),
    Message('note_on', channel=9, note=35, velocity=127, time=0),
    Message('note_on', channel=9, note=42, velocity=127, time=0),
    Message('note_on', channel=9, note=35, velocity=0, time=30),
    Message('note_on', channel=9, note=35, velocity=127, time=0),
    Message('note_on', channel=9, note=35, velocity=0, time=30),
    Message('note_on', channel=9, note=42, velocity=0, time=0),
    Message('note_on', channel=9, note=38, velocity=127, time=0),
    Message('note_on', channel=9, note=57, velocity=127, time=0),
    Message('note_on', channel=9, note=57, velocity=0, time=120),
    Message('note_on', channel=9, note=38, velocity=0, time=0),
    Message('note_on', channel=9, note=42, velocity=127, time=0),
    Message('note_on', channel=9, note=35, velocity=127, time=0),
    Message('note_on', channel=9, note=42, velocity=0, time=60),
    Message('note_on', channel=9, note=42, velocity=127, time=0),
    Message('note_on', channel=9, note=35, velocity=0, time=30),
    Message('note_on', channel=9, note=35, velocity=127, time=0),
    Message('note_on', channel=9, note=35, velocity=0, time=30),
    Message('note_on', channel=9, note=42, velocity=0, time=0),
    Message('note_on', channel=9, note=42, velocity=127, time=0),
    Message('note_on', channel=9, note=38, velocity=127, time=0),
    Message('note_on', channel=9, note=38, velocity=0, time=60),
    Message('note_on', channel=9, note=42, velocity=0, time=0),
    Message('note_on', channel=9, note=42, velocity=127, time=0),
    Message('note_on', channel=9, note=35, velocity=127, time=0),
    Message('note_on', channel=9, note=35, velocity=0, time=60),
    Message('note_on', channel=9, note=42, velocity=0, time=0),
    Message('note_on', channel=9, note=42, velocity=127, time=0),
    Message('note_on', channel=9, note=42, velocity=0, time=60),
    Message('note_on', channel=9, note=35, velocity=127, time=0),
    Message('note_on', channel=9, note=42, velocity=127, time=0),
    Message('note_on', channel=9, note=42, velocity=0, time=60),
    Message('note_on', channel=9, note=35, velocity=0, time=0),
    Message('note_on', channel=9, note=38, velocity=127, time=0),
    Message('note_on', channel=9, note=42, velocity=127, time=0),
    Message('note_on', channel=9, note=42, velocity=0, time=60),
    Message('note_on', channel=9, note=38, velocity=0, time=0),
    Message('note_on', channel=9, note=42, velocity=127, time=0),
    Message('note_on', channel=9, note=42, velocity=0, time=60),
    Message('note_on', channel=9, note=35, velocity=127, time=0),
    Message('note_on', channel=9, note=42, velocity=127, time=0),
    Message('note_on', channel=9, note=42, velocity=0, time=60),
    Message('note_on', channel=9, note=42, velocity=127, time=0),
    Message('note_on', channel=9, note=35, velocity=0, time=30),
    Message('note_on', channel=9, note=35, velocity=127, time=0),
    Message('note_on', channel=9, note=35, velocity=0, time=30),
    Message('note_on', channel=9, note=42, velocity=0, time=0),
    Message('note_on', channel=9, note=38, velocity=127, time=0),
    Message('note_on', channel=9, note=42, velocity=127, time=0),
    Message('note_on', channel=9, note=42, velocity=0, time=60),
    Message('note_on', channel=9, note=38, velocity=0, time=0),
    Message('note_on', channel=9, note=35, velocity=127, time=0),
    Message('note_on', channel=9, note=42, velocity=127, time=0),
    Message('note_on', channel=9, note=42, velocity=0, time=60),
    Message('note_on', channel=9, note=35, velocity=0, time=0),
    Message('note_on', channel=9, note=42, velocity=127, time=0),
    Message('note_on', channel=9, note=42, velocity=0, time=60),
    Message('note_on', channel=9, note=38, velocity=127, time=0),
    Message('note_on', channel=9, note=38, velocity=0, time=30),
    Message('note_on', channel=9, note=38, velocity=127, time=0),
    Message('note_on', channel=9, note=38, velocity=0, time=30),
    Message('note_on', channel=9, note=38, velocity=127, time=0),
    Message('note_on', channel=9, note=38, velocity=0, time=30),
    Message('note_on', channel=9, note=38, velocity=127, time=0),
    Message('note_on', channel=9, note=38, velocity=0, time=30),
    Message('note_on', channel=9, note=38, velocity=127, time=0),
    Message('note_on', channel=9, note=38, velocity=0, time=30),
    Message('note_on', channel=9, note=38, velocity=127, time=0),
    Message('note_on', channel=9, note=38, velocity=0, time=30),
    Message('note_on', channel=9, note=35, velocity=127, time=0),
    Message('note_on', channel=9, note=57, velocity=127, time=0),
    Message('note_on', channel=9, note=57, velocity=0, time=120),
    Message('note_on', channel=9, note=35, velocity=0, time=0),
    Message('note_on', channel=9, note=38, velocity=127, time=0),
    Message('note_on', channel=9, note=42, velocity=127, time=0),
    Message('note_on', channel=9, note=42, velocity=0, time=60),
    Message('note_on', channel=9, note=38, velocity=0, time=0),
    Message('note_on', channel=9, note=35, velocity=127, time=0),
    Message('note_on', channel=9, note=42, velocity=127, time=0),
    Message('note_on', channel=9, note=42, velocity=0, time=60),
    Message('note_on', channel=9, note=35, velocity=0, time=0),
    Message('note_on', channel=9, note=38, velocity=127, time=0),
    Message('note_on', channel=9, note=42, velocity=127, time=0),
    Message('note_on', channel=9, note=42, velocity=0, time=60),
    Message('note_on', channel=9, note=38, velocity=0, time=0),
    Message('note_on', channel=9, note=35, velocity=127, time=0),
    Message('note_on', channel=9, note=42, velocity=127, time=0),
    Message('note_on', channel=9, note=42, velocity=0, time=60),
    Message('note_on', channel=9, note=35, velocity=0, time=0),
    Message('note_on', channel=9, note=38, velocity=127, time=0),
    Message('note_on', channel=9, note=42, velocity=127, time=0),
    Message('note_on', channel=9, note=42, velocity=0, time=60),
    Message('note_on', channel=9, note=38, velocity=0, time=0),
    Message('note_on', channel=9, note=35, velocity=127, time=0),
    Message('note_on', channel=9, note=42, velocity=127, time=0),
    Message('note_on', channel=9, note=42, velocity=0, time=60),
    Message('note_on', channel=9, note=35, velocity=0, time=0),
    Message('note_on', channel=9, note=38, velocity=127, time=0),
    Message('note_on', channel=9, note=57, velocity=127, time=0),
    Message('note_on', channel=9, note=57, velocity=0, time=120),
    Message('note_on', channel=9, note=38, velocity=0, time=0),
    Message('note_on', channel=9, note=38, velocity=127, time=0),
    Message('note_on', channel=9, note=42, velocity=127, time=0),
    Message('note_on', channel=9, note=42, velocity=0, time=60),
    Message('note_on', channel=9, note=38, velocity=0, time=0),
    Message('note_on', channel=9, note=35, velocity=127, time=0),
    Message('note_on', channel=9, note=42, velocity=127, time=0),
    Message('note_on', channel=9, note=42, velocity=0, time=60),
    Message('note_on', channel=9, note=35, velocity=0, time=0),
    Message('note_on', channel=9, note=38, velocity=127, time=0),
    Message('note_on', channel=9, note=57, velocity=127, time=0),
    Message('note_on', channel=9, note=57, velocity=0, time=120),
    Message('note_on', channel=9, note=38, velocity=0, time=0),
    Message('note_on', channel=9, note=38, velocity=127, time=0),
    Message('note_on', channel=9, note=42, velocity=127, time=0),
    Message('note_on', channel=9, note=42, velocity=0, time=60),
    Message('note_on', channel=9, note=38, velocity=0, time=0),
    Message('note_on', channel=9, note=35, velocity=127, time=0),
    Message('note_on', channel=9, note=42, velocity=127, time=0),
    Message('note_on', channel=9, note=42, velocity=0, time=60),
    Message('note_on', channel=9, note=35, velocity=0, time=0),
    Message('note_on', channel=9, note=35, velocity=127, time=0),
    Message('note_on', channel=9, note=57, velocity=127, time=0),
    Message('note_on', channel=9, note=57, velocity=0, time=60),
    Message('note_on', channel=9, note=42, velocity=127, time=0),
    Message('note_on', channel=9, note=35, velocity=0, time=30),
    Message('note_on', channel=9, note=35, velocity=127, time=0),
    Message('note_on', channel=9, note=35, velocity=0, time=30),
    Message('note_on', channel=9, note=42, velocity=0, time=0),
    Message('note_on', channel=9, note=38, velocity=127, time=0),
    Message('note_on', channel=9, note=42, velocity=127, time=0),
    Message('note_on', channel=9, note=42, velocity=0, time=60),
    Message('note_on', channel=9, note=38, velocity=0, time=0),
    Message('note_on', channel=9, note=35, velocity=127, time=0),
    Message('note_on', channel=9, note=42, velocity=127, time=0),
    Message('note_on', channel=9, note=42, velocity=0, time=60),
    Message('note_on', channel=9, note=35, velocity=0, time=0),
    Message('note_on', channel=9, note=42, velocity=127, time=0),
    Message('note_on', channel=9, note=42, velocity=0, time=60),
    Message('note_on', channel=9, note=35, velocity=127, time=0),
    Message('note_on', channel=9, note=42, velocity=127, time=0),
    Message('note_on', channel=9, note=42, velocity=0, time=60),
    Message('note_on', channel=9, note=35, velocity=0, time=0),
    Message('note_on', channel=9, note=38, velocity=127, time=0),
    Message('note_on', channel=9, note=42, velocity=127, time=0),
    Message('note_on', channel=9, note=42, velocity=0, time=60),
    Message('note_on', channel=9, note=38, velocity=0, time=0),
    Message('note_on', channel=9, note=42, velocity=127, time=0),
    Message('note_on', channel=9, note=42, velocity=0, time=60),
    Message('note_on', channel=9, note=35, velocity=127, time=0),
    Message('note_on', channel=9, note=42, velocity=127, time=0),
    Message('note_on', channel=9, note=42, velocity=0, time=60),
    Message('note_on', channel=9, note=42, velocity=127, time=0),
    Message('note_on', channel=9, note=35, velocity=0, time=30),
    Message('note_on', channel=9, note=35, velocity=127, time=0),
    Message('note_on', channel=9, note=35, velocity=0, time=30),
    Message('note_on', channel=9, note=42, velocity=0, time=0),
    Message('note_on', channel=9, note=38, velocity=127, time=0),
    Message('note_on', channel=9, note=42, velocity=127, time=0),
    Message('note_on', channel=9, note=42, velocity=0, time=60),
    Message('note_on', channel=9, note=38, velocity=0, time=0),
    Message('note_on', channel=9, note=35, velocity=127, time=0),
    Message('note_on', channel=9, note=42, velocity=127, time=0),
    Message('note_on', channel=9, note=42, velocity=0, time=60),
    Message('note_on', channel=9, note=35, velocity=0, time=0),
    Message('note_on', channel=9, note=42, velocity=127, time=0),
    Message('note_on', channel=9, note=42, velocity=0, time=60),
    Message('note_on', channel=9, note=35, velocity=127, time=0),
    Message('note_on', channel=9, note=42, velocity=127, time=0),
    Message('note_on', channel=9, note=42, velocity=0, time=60),
    Message('note_on', channel=9, note=35, velocity=0, time=0),
    Message('note_on', channel=9, note=38, velocity=127, time=0),
    Message('note_on', channel=9, note=42, velocity=127, time=0),
    Message('note_on', channel=9, note=42, velocity=0, time=60),
    Message('note_on', channel=9, note=38, velocity=0, time=0),
    Message('note_on', channel=9, note=42, velocity=127, time=0),
    Message('note_on', channel=9, note=42, velocity=0, time=60),
    Message('note_on', channel=9, note=35, velocity=127, time=0),
    Message('note_on', channel=9, note=57, velocity=127, time=0),
    Message('note_on', channel=9, note=57, velocity=0, time=120),
    Message('note_on', channel=9, note=35, velocity=0, time=0),
    Message('note_on', channel=9, note=38, velocity=127, time=0),
    Message('note_on', channel=9, note=42, velocity=127, time=0),
    Message('note_on', channel=9, note=42, velocity=0, time=60),
    Message('note_on', channel=9, note=38, velocity=0, time=0),
    Message('note_on', channel=9, note=35, velocity=127, time=0),
    Message('note_on', channel=9, note=42, velocity=127, time=0),
    Message('note_on', channel=9, note=42, velocity=0, time=60),
    Message('note_on', channel=9, note=35, velocity=0, time=0),
    Message('note_on', channel=9, note=38, velocity=127, time=0),
    Message('note_on', channel=9, note=42, velocity=127, time=0),
    Message('note_on', channel=9, note=42, velocity=0, time=60),
    Message('note_on', channel=9, note=38, velocity=0, time=0),
    Message('note_on', channel=9, note=35, velocity=127, time=0),
    Message('note_on', channel=9, note=42, velocity=127, time=0),
    Message('note_on', channel=9, note=42, velocity=0, time=60),
    Message('note_on', channel=9, note=35, velocity=0, time=0),
    Message('note_on', channel=9, note=38, velocity=127, time=0),
    Message('note_on', channel=9, note=42, velocity=127, time=0),
    Message('note_on', channel=9, note=42, velocity=0, time=60),
    Message('note_on', channel=9, note=38, velocity=0, time=0),
    Message('note_on', channel=9, note=35, velocity=127, time=0),
    Message('note_on', channel=9, note=42, velocity=127, time=0),
    Message('note_on', channel=9, note=42, velocity=0, time=60),
    Message('note_on', channel=9, note=35, velocity=0, time=0),
    Message('note_on', channel=9, note=38, velocity=127, time=0),
    Message('note_on', channel=9, note=57, velocity=127, time=0),
    Message('note_on', channel=9, note=57, velocity=0, time=120),
    Message('note_on', channel=9, note=38, velocity=0, time=0),
    Message('note_on', channel=9, note=38, velocity=127, time=0),
    Message('note_on', channel=9, note=42, velocity=127, time=0),
    Message('note_on', channel=9, note=42, velocity=0, time=60),
    Message('note_on', channel=9, note=38, velocity=0, time=0),
    Message('note_on', channel=9, note=35, velocity=127, time=0),
    Message('note_on', channel=9, note=42, velocity=127, time=0),
    Message('note_on', channel=9, note=42, velocity=0, time=60),
    Message('note_on', channel=9, note=35, velocity=0, time=0),
    Message('note_on', channel=9, note=38, velocity=127, time=0),
    Message('note_on', channel=9, note=57, velocity=127, time=0),
    Message('note_on', channel=9, note=57, velocity=0, time=120),
    Message('note_on', channel=9, note=38, velocity=0, time=0),
    Message('note_on', channel=9, note=38, velocity=127, time=0),
    Message('note_on', channel=9, note=42, velocity=127, time=0),
    Message('note_on', channel=9, note=42, velocity=0, time=60),
    Message('note_on', channel=9, note=38, velocity=0, time=0),
    Message('note_on', channel=9, note=35, velocity=127, time=0),
    Message('note_on', channel=9, note=42, velocity=127, time=0),
    Message('note_on', channel=9, note=42, velocity=0, time=60),
    Message('note_on', channel=9, note=35, velocity=0, time=0),
    Message('note_on', channel=9, note=35, velocity=127, time=0),
    Message('note_on', channel=9, note=57, velocity=127, time=0),
    Message('note_on', channel=9, note=57, velocity=0, time=60),
    Message('note_on', channel=9, note=42, velocity=127, time=0),
    Message('note_on', channel=9, note=35, velocity=0, time=30),
    Message('note_on', channel=9, note=35, velocity=127, time=0),
    Message('note_on', channel=9, note=35, velocity=0, time=30),
    Message('note_on', channel=9, note=42, velocity=0, time=0),
    Message('note_on', channel=9, note=38, velocity=127, time=0),
    Message('note_on', channel=9, note=42, velocity=127, time=0),
    Message('note_on', channel=9, note=42, velocity=0, time=60),
    Message('note_on', channel=9, note=38, velocity=0, time=0),
    Message('note_on', channel=9, note=35, velocity=127, time=0),
    Message('note_on', channel=9, note=42, velocity=127, time=0),
    Message('note_on', channel=9, note=42, velocity=0, time=60),
    Message('note_on', channel=9, note=35, velocity=0, time=0),
    Message('note_on', channel=9, note=42, velocity=127, time=0),
    Message('note_on', channel=9, note=42, velocity=0, time=60),
    Message('note_on', channel=9, note=35, velocity=127, time=0),
    Message('note_on', channel=9, note=42, velocity=127, time=0),
    Message('note_on', channel=9, note=42, velocity=0, time=60),
    Message('note_on', channel=9, note=35, velocity=0, time=0),
    Message('note_on', channel=9, note=38, velocity=127, time=0),
    Message('note_on', channel=9, note=42, velocity=127, time=0),
    Message('note_on', channel=9, note=42, velocity=0, time=60),
    Message('note_on', channel=9, note=38, velocity=0, time=0),
    Message('note_on', channel=9, note=42, velocity=127, time=0),
    Message('note_on', channel=9, note=42, velocity=0, time=60),
    Message('note_on', channel=9, note=35, velocity=127, time=0),
    Message('note_on', channel=9, note=42, velocity=127, time=0),
    Message('note_on', channel=9, note=42, velocity=0, time=60),
    Message('note_on', channel=9, note=42, velocity=127, time=0),
    Message('note_on', channel=9, note=35, velocity=0, time=30),
    Message('note_on', channel=9, note=35, velocity=127, time=0),
    Message('note_on', channel=9, note=35, velocity=0, time=30),
    Message('note_on', channel=9, note=42, velocity=0, time=0),
    Message('note_on', channel=9, note=38, velocity=127, time=0),
    Message('note_on', channel=9, note=42, velocity=127, time=0),
    Message('note_on', channel=9, note=42, velocity=0, time=60),
    Message('note_on', channel=9, note=38, velocity=0, time=0),
    Message('note_on', channel=9, note=35, velocity=127, time=0),
    Message('note_on', channel=9, note=42, velocity=127, time=0),
    Message('note_on', channel=9, note=42, velocity=0, time=60),
    Message('note_on', channel=9, note=35, velocity=0, time=0),
    Message('note_on', channel=9, note=42, velocity=127, time=0),
    Message('note_on', channel=9, note=42, velocity=0, time=60),
    Message('note_on', channel=9, note=35, velocity=127, time=0),
    Message('note_on', channel=9, note=42, velocity=127, time=0),
    Message('note_on', channel=9, note=42, velocity=0, time=60),
    Message('note_on', channel=9, note=35, velocity=0, time=0),
    Message('note_on', channel=9, note=38, velocity=127, time=0),
    Message('note_on', channel=9, note=42, velocity=127, time=0),
    Message('note_on', channel=9, note=42, velocity=0, time=60),
    Message('note_on', channel=9, note=38, velocity=0, time=0),
    Message('note_on', channel=9, note=42, velocity=127, time=0),
    Message('note_on', channel=9, note=42, velocity=0, time=60),
    Message('note_on', channel=9, note=35, velocity=127, time=0),
    Message('note_on', channel=9, note=57, velocity=127, time=0),
    Message('note_on', channel=9, note=57, velocity=0, time=120),
    Message('note_on', channel=9, note=35, velocity=0, time=0),
    Message('note_on', channel=9, note=38, velocity=127, time=0),
    Message('note_on', channel=9, note=42, velocity=127, time=0),
    Message('note_on', channel=9, note=42, velocity=0, time=60),
    Message('note_on', channel=9, note=38, velocity=0, time=0),
    Message('note_on', channel=9, note=35, velocity=127, time=0),
    Message('note_on', channel=9, note=42, velocity=127, time=0),
    Message('note_on', channel=9, note=42, velocity=0, time=60),
    Message('note_on', channel=9, note=35, velocity=0, time=0),
    Message('note_on', channel=9, note=38, velocity=127, time=0),
    Message('note_on', channel=9, note=42, velocity=127, time=0),
    Message('note_on', channel=9, note=42, velocity=0, time=60),
    Message('note_on', channel=9, note=38, velocity=0, time=0),
    Message('note_on', channel=9, note=35, velocity=127, time=0),
    Message('note_on', channel=9, note=42, velocity=127, time=0),
    Message('note_on', channel=9, note=42, velocity=0, time=60),
    Message('note_on', channel=9, note=35, velocity=0, time=0),
    Message('note_on', channel=9, note=38, velocity=127, time=0),
    Message('note_on', channel=9, note=42, velocity=127, time=0),
    Message('note_on', channel=9, note=42, velocity=0, time=60),
    Message('note_on', channel=9, note=38, velocity=0, time=0),
    Message('note_on', channel=9, note=35, velocity=127, time=0),
    Message('note_on', channel=9, note=42, velocity=127, time=0),
    Message('note_on', channel=9, note=42, velocity=0, time=60),
    Message('note_on', channel=9, note=35, velocity=0, time=0),
    Message('note_on', channel=9, note=38, velocity=127, time=0),
    Message('note_on', channel=9, note=57, velocity=127, time=0),
    Message('note_on', channel=9, note=57, velocity=0, time=120),
    Message('note_on', channel=9, note=38, velocity=0, time=0),
    Message('note_on', channel=9, note=38, velocity=127, time=0),
    Message('note_on', channel=9, note=42, velocity=127, time=0),
    Message('note_on', channel=9, note=42, velocity=0, time=60),
    Message('note_on', channel=9, note=38, velocity=0, time=0),
    Message('note_on', channel=9, note=35, velocity=127, time=0),
    Message('note_on', channel=9, note=42, velocity=127, time=0),
    Message('note_on', channel=9, note=42, velocity=0, time=60),
    Message('note_on', channel=9, note=35, velocity=0, time=0),
    Message('note_on', channel=9, note=38, velocity=127, time=0),
    Message('note_on', channel=9, note=57, velocity=127, time=0),
    Message('note_on', channel=9, note=57, velocity=0, time=120),
    Message('note_on', channel=9, note=38, velocity=0, time=0),
    Message('note_on', channel=9, note=38, velocity=127, time=0),
    Message('note_on', channel=9, note=42, velocity=127, time=0),
    Message('note_on', channel=9, note=42, velocity=0, time=60),
    Message('note_on', channel=9, note=38, velocity=0, time=0),
    Message('note_on', channel=9, note=35, velocity=127, time=0),
    Message('note_on', channel=9, note=42, velocity=127, time=0),
    Message('note_on', channel=9, note=42, velocity=0, time=60),
    Message('note_on', channel=9, note=35, velocity=0, time=0),
    Message('note_on', channel=9, note=35, velocity=127, time=0),
    Message('note_on', channel=9, note=57, velocity=127, time=0),
    Message('note_on', channel=9, note=57, velocity=0, time=60),
    Message('note_on', channel=9, note=42, velocity=127, time=0),
    Message('note_on', channel=9, note=35, velocity=0, time=30),
    Message('note_on', channel=9, note=35, velocity=127, time=0),
    Message('note_on', channel=9, note=35, velocity=0, time=30),
    Message('note_on', channel=9, note=42, velocity=0, time=0),
    Message('note_on', channel=9, note=38, velocity=127, time=0),
    Message('note_on', channel=9, note=42, velocity=127, time=0),
    Message('note_on', channel=9, note=42, velocity=0, time=60),
    Message('note_on', channel=9, note=38, velocity=0, time=0),
    Message('note_on', channel=9, note=35, velocity=127, time=0),
    Message('note_on', channel=9, note=42, velocity=127, time=0),
    Message('note_on', channel=9, note=42, velocity=0, time=60),
    Message('note_on', channel=9, note=35, velocity=0, time=0),
    Message('note_on', channel=9, note=42, velocity=127, time=0),
    Message('note_on', channel=9, note=42, velocity=0, time=60),
    Message('note_on', channel=9, note=35, velocity=127, time=0),
    Message('note_on', channel=9, note=42, velocity=127, time=0),
    Message('note_on', channel=9, note=42, velocity=0, time=60),
    Message('note_on', channel=9, note=35, velocity=0, time=0),
    Message('note_on', channel=9, note=38, velocity=127, time=0),
    Message('note_on', channel=9, note=42, velocity=127, time=0),
    Message('note_on', channel=9, note=42, velocity=0, time=60),
    Message('note_on', channel=9, note=38, velocity=0, time=0),
    Message('note_on', channel=9, note=42, velocity=127, time=0),
    Message('note_on', channel=9, note=42, velocity=0, time=60),
    Message('note_on', channel=9, note=35, velocity=127, time=0),
    Message('note_on', channel=9, note=42, velocity=127, time=0),
    Message('note_on', channel=9, note=42, velocity=0, time=60),
    Message('note_on', channel=9, note=42, velocity=127, time=0),
    Message('note_on', channel=9, note=35, velocity=0, time=30),
    Message('note_on', channel=9, note=35, velocity=127, time=0),
    Message('note_on', channel=9, note=35, velocity=0, time=30),
    Message('note_on', channel=9, note=42, velocity=0, time=0),
    Message('note_on', channel=9, note=38, velocity=127, time=0),
    Message('note_on', channel=9, note=42, velocity=127, time=0),
    Message('note_on', channel=9, note=42, velocity=0, time=60),
    Message('note_on', channel=9, note=38, velocity=0, time=0),
    Message('note_on', channel=9, note=35, velocity=127, time=0),
    Message('note_on', channel=9, note=42, velocity=127, time=0),
    Message('note_on', channel=9, note=42, velocity=0, time=60),
    Message('note_on', channel=9, note=35, velocity=0, time=0),
    Message('note_on', channel=9, note=42, velocity=127, time=0),
    Message('note_on', channel=9, note=42, velocity=0, time=60),
    Message('note_on', channel=9, note=35, velocity=127, time=0),
    Message('note_on', channel=9, note=42, velocity=127, time=0),
    Message('note_on', channel=9, note=42, velocity=0, time=60),
    Message('note_on', channel=9, note=35, velocity=0, time=0),
    Message('note_on', channel=9, note=38, velocity=127, time=0),
    Message('note_on', channel=9, note=42, velocity=127, time=0),
    Message('note_on', channel=9, note=42, velocity=0, time=60),
    Message('note_on', channel=9, note=38, velocity=0, time=0),
    Message('note_on', channel=9, note=42, velocity=127, time=0),
    Message('note_on', channel=9, note=42, velocity=0, time=60),
    Message('note_on', channel=9, note=35, velocity=127, time=0),
    Message('note_on', channel=9, note=57, velocity=127, time=0),
    Message('note_on', channel=9, note=57, velocity=0, time=120),
    Message('note_on', channel=9, note=35, velocity=0, time=0),
    Message('note_on', channel=9, note=38, velocity=127, time=0),
    Message('note_on', channel=9, note=42, velocity=127, time=0),
    Message('note_on', channel=9, note=42, velocity=0, time=60),
    Message('note_on', channel=9, note=38, velocity=0, time=0),
    Message('note_on', channel=9, note=35, velocity=127, time=0),
    Message('note_on', channel=9, note=42, velocity=127, time=0),
    Message('note_on', channel=9, note=42, velocity=0, time=60),
    Message('note_on', channel=9, note=35, velocity=0, time=0),
    Message('note_on', channel=9, note=38, velocity=127, time=0),
    Message('note_on', channel=9, note=42, velocity=127, time=0),
    Message('note_on', channel=9, note=42, velocity=0, time=60),
    Message('note_on', channel=9, note=38, velocity=0, time=0),
    Message('note_on', channel=9, note=35, velocity=127, time=0),
    Message('note_on', channel=9, note=42, velocity=127, time=0),
    Message('note_on', channel=9, note=42, velocity=0, time=60),
    Message('note_on', channel=9, note=35, velocity=0, time=0),
    Message('note_on', channel=9, note=38, velocity=127, time=0),
    Message('note_on', channel=9, note=57, velocity=127, time=0),
    Message('note_on', channel=9, note=57, velocity=0, time=120),
    Message('note_on', channel=9, note=38, velocity=0, time=0),
    Message('note_on', channel=9, note=35, velocity=127, time=0),
    Message('note_on', channel=9, note=57, velocity=127, time=0),
    Message('note_on', channel=9, note=57, velocity=0, time=80),
    Message('note_on', channel=9, note=35, velocity=0, time=0),
    Message('note_on', channel=9, note=35, velocity=127, time=0),
    Message('note_on', channel=9, note=57, velocity=127, time=0),
    Message('note_on', channel=9, note=57, velocity=0, time=80),
    Message('note_on', channel=9, note=35, velocity=0, time=0),
    Message('note_on', channel=9, note=35, velocity=127, time=0),
    Message('note_on', channel=9, note=57, velocity=127, time=0),
    Message('note_on', channel=9, note=57, velocity=0, time=80),
    Message('note_on', channel=9, note=35, velocity=0, time=0),
    Message('note_on', channel=9, note=35, velocity=127, time=0),
    Message('note_on', channel=9, note=57, velocity=127, time=0),
    Message('note_on', channel=9, note=57, velocity=0, time=80),
    Message('note_on', channel=9, note=35, velocity=0, time=0),
    Message('note_on', channel=9, note=35, velocity=127, time=0),
    Message('note_on', channel=9, note=57, velocity=127, time=0),
    Message('note_on', channel=9, note=57, velocity=0, time=80),
    Message('note_on', channel=9, note=35, velocity=0, time=0),
    Message('note_on', channel=9, note=35, velocity=127, time=0),
    Message('note_on', channel=9, note=57, velocity=127, time=0),
    Message('note_on', channel=9, note=57, velocity=0, time=80),
    Message('note_on', channel=9, note=35, velocity=0, time=0),
    Message('note_on', channel=9, note=35, velocity=127, time=0),
    Message('note_on', channel=9, note=57, velocity=127, time=0),
    Message('note_on', channel=9, note=57, velocity=0, time=60),
    Message('note_on', channel=9, note=42, velocity=127, time=0),
    Message('note_on', channel=9, note=35, velocity=0, time=30),
    Message('note_on', channel=9, note=35, velocity=127, time=0),
    Message('note_on', channel=9, note=35, velocity=0, time=30),
    Message('note_on', channel=9, note=42, velocity=0, time=0),
    Message('note_on', channel=9, note=38, velocity=127, time=0),
    Message('note_on', channel=9, note=42, velocity=127, time=0),
    Message('note_on', channel=9, note=42, velocity=0, time=60),
    Message('note_on', channel=9, note=38, velocity=0, time=0),
    Message('note_on', channel=9, note=35, velocity=127, time=0),
    Message('note_on', channel=9, note=42, velocity=127, time=0),
    Message('note_on', channel=9, note=42, velocity=0, time=60),
    Message('note_on', channel=9, note=35, velocity=0, time=0),
    Message('note_on', channel=9, note=42, velocity=127, time=0),
    Message('note_on', channel=9, note=42, velocity=0, time=60),
    Message('note_on', channel=9, note=35, velocity=127, time=0),
    Message('note_on', channel=9, note=42, velocity=127, time=0),
    Message('note_on', channel=9, note=42, velocity=0, time=60),
    Message('note_on', channel=9, note=35, velocity=0, time=0),
    Message('note_on', channel=9, note=38, velocity=127, time=0),
    Message('note_on', channel=9, note=42, velocity=127, time=0),
    Message('note_on', channel=9, note=42, velocity=0, time=60),
    Message('note_on', channel=9, note=38, velocity=0, time=0),
    Message('note_on', channel=9, note=42, velocity=127, time=0),
    Message('note_on', channel=9, note=42, velocity=0, time=60),
    Message('note_on', channel=9, note=35, velocity=127, time=0),
    Message('note_on', channel=9, note=42, velocity=127, time=0),
    Message('note_on', channel=9, note=42, velocity=0, time=60),
    Message('note_on', channel=9, note=42, velocity=127, time=0),
    Message('note_on', channel=9, note=35, velocity=0, time=30),
    Message('note_on', channel=9, note=35, velocity=127, time=0),
    Message('note_on', channel=9, note=35, velocity=0, time=30),
    Message('note_on', channel=9, note=42, velocity=0, time=0),
    Message('note_on', channel=9, note=38, velocity=127, time=0),
    Message('note_on', channel=9, note=42, velocity=127, time=0),
    Message('note_on', channel=9, note=42, velocity=0, time=60),
    Message('note_on', channel=9, note=38, velocity=0, time=0),
    Message('note_on', channel=9, note=35, velocity=127, time=0),
    Message('note_on', channel=9, note=42, velocity=127, time=0),
    Message('note_on', channel=9, note=42, velocity=0, time=60),
    Message('note_on', channel=9, note=35, velocity=0, time=0),
    Message('note_on', channel=9, note=42, velocity=127, time=0),
    Message('note_on', channel=9, note=42, velocity=0, time=60),
    Message('note_on', channel=9, note=35, velocity=127, time=0),
    Message('note_on', channel=9, note=42, velocity=127, time=0),
    Message('note_on', channel=9, note=35, velocity=127, time=30),
    Message('note_on', channel=9, note=35, velocity=0, time=30),
    Message('note_on', channel=9, note=42, velocity=0, time=0),
    Message('note_on', channel=9, note=35, velocity=0, time=0),
    Message('note_on', channel=9, note=38, velocity=127, time=0),
    Message('note_on', channel=9, note=57, velocity=127, time=0),
    Message('note_on', channel=9, note=57, velocity=0, time=120),
    Message('note_on', channel=9, note=38, velocity=0, time=0),
    Message('note_on', channel=9, note=35, velocity=127, time=0),
    Message('note_on', channel=9, note=57, velocity=127, time=0),
    Message('note_on', channel=9, note=57, velocity=0, time=60),
    Message('note_on', channel=9, note=42, velocity=127, time=0),
    Message('note_on', channel=9, note=35, velocity=0, time=30),
    Message('note_on', channel=9, note=35, velocity=127, time=0),
    Message('note_on', channel=9, note=35, velocity=0, time=30),
    Message('note_on', channel=9, note=42, velocity=0, time=0),
    Message('note_on', channel=9, note=38, velocity=127, time=0),
    Message('note_on', channel=9, note=42, velocity=127, time=0),
    Message('note_on', channel=9, note=42, velocity=0, time=60),
    Message('note_on', channel=9, note=38, velocity=0, time=0),
    Message('note_on', channel=9, note=35, velocity=127, time=0),
    Message('note_on', channel=9, note=42, velocity=127, time=0),
    Message('note_on', channel=9, note=42, velocity=0, time=60),
    Message('note_on', channel=9, note=35, velocity=0, time=0),
    Message('note_on', channel=9, note=42, velocity=127, time=0),
    Message('note_on', channel=9, note=42, velocity=0, time=60),
    Message('note_on', channel=9, note=35, velocity=127, time=0),
    Message('note_on', channel=9, note=42, velocity=127, time=0),
    Message('note_on', channel=9, note=42, velocity=0, time=60),
    Message('note_on', channel=9, note=35, velocity=0, time=0),
    Message('note_on', channel=9, note=38, velocity=127, time=0),
    Message('note_on', channel=9, note=42, velocity=127, time=0),
    Message('note_on', channel=9, note=42, velocity=0, time=60),
    Message('note_on', channel=9, note=38, velocity=0, time=0),
    Message('note_on', channel=9, note=42, velocity=127, time=0),
    Message('note_on', channel=9, note=42, velocity=0, time=60),
    Message('note_on', channel=9, note=35, velocity=127, time=0),
    Message('note_on', channel=9, note=42, velocity=127, time=0),
    Message('note_on', channel=9, note=42, velocity=0, time=60),
    Message('note_on', channel=9, note=42, velocity=127, time=0),
    Message('note_on', channel=9, note=35, velocity=0, time=30),
    Message('note_on', channel=9, note=35, velocity=127, time=0),
    Message('note_on', channel=9, note=35, velocity=0, time=30),
    Message('note_on', channel=9, note=42, velocity=0, time=0),
    Message('note_on', channel=9, note=38, velocity=127, time=0),
    Message('note_on', channel=9, note=42, velocity=127, time=0),
    Message('note_on', channel=9, note=42, velocity=0, time=60),
    Message('note_on', channel=9, note=38, velocity=0, time=0),
    Message('note_on', channel=9, note=35, velocity=127, time=0),
    Message('note_on', channel=9, note=42, velocity=127, time=0),
    Message('note_on', channel=9, note=42, velocity=0, time=60),
    Message('note_on', channel=9, note=35, velocity=0, time=0),
    Message('note_on', channel=9, note=42, velocity=127, time=0),
    Message('note_on', channel=9, note=42, velocity=0, time=60),
    Message('note_on', channel=9, note=35, velocity=127, time=0),
    Message('note_on', channel=9, note=42, velocity=127, time=0),
    Message('note_on', channel=9, note=35, velocity=127, time=30),
    Message('note_on', channel=9, note=35, velocity=0, time=30),
    Message('note_on', channel=9, note=42, velocity=0, time=0),
    Message('note_on', channel=9, note=35, velocity=0, time=0),
    Message('note_on', channel=9, note=38, velocity=127, time=0),
    Message('note_on', channel=9, note=57, velocity=127, time=0),
    Message('note_on', channel=9, note=57, velocity=0, time=120),
    Message('note_on', channel=9, note=38, velocity=0, time=0),
    Message('note_on', channel=9, note=35, velocity=127, time=0),
    Message('note_on', channel=9, note=57, velocity=127, time=0),
    Message('note_on', channel=9, note=57, velocity=0, time=120),
    Message('note_on', channel=9, note=35, velocity=0, time=0),
    Message('note_on', channel=9, note=38, velocity=127, time=0),
    Message('note_on', channel=9, note=42, velocity=127, time=0),
    Message('note_on', channel=9, note=42, velocity=0, time=60),
    Message('note_on', channel=9, note=38, velocity=0, time=0),
    Message('note_on', channel=9, note=35, velocity=127, time=0),
    Message('note_on', channel=9, note=42, velocity=127, time=0),
    Message('note_on', channel=9, note=42, velocity=0, time=60),
    Message('note_on', channel=9, note=35, velocity=0, time=0),
    Message('note_on', channel=9, note=38, velocity=127, time=0),
    Message('note_on', channel=9, note=42, velocity=127, time=0),
    Message('note_on', channel=9, note=42, velocity=0, time=60),
    Message('note_on', channel=9, note=38, velocity=0, time=0),
    Message('note_on', channel=9, note=35, velocity=127, time=0),
    Message('note_on', channel=9, note=42, velocity=127, time=0),
    Message('note_on', channel=9, note=42, velocity=0, time=60),
    Message('note_on', channel=9, note=35, velocity=0, time=0),
    Message('note_on', channel=9, note=38, velocity=127, time=0),
    Message('note_on', channel=9, note=42, velocity=127, time=0),
    Message('note_on', channel=9, note=42, velocity=0, time=60),
    Message('note_on', channel=9, note=38, velocity=0, time=0),
    Message('note_on', channel=9, note=35, velocity=127, time=0),
    Message('note_on', channel=9, note=42, velocity=127, time=0),
    Message('note_on', channel=9, note=42, velocity=0, time=60),
    Message('note_on', channel=9, note=35, velocity=0, time=0),
    Message('note_on', channel=9, note=38, velocity=127, time=0),
    Message('note_on', channel=9, note=42, velocity=127, time=0),
    Message('note_on', channel=9, note=42, velocity=0, time=60),
    Message('note_on', channel=9, note=38, velocity=0, time=0),
    Message('note_on', channel=9, note=35, velocity=127, time=0),
    Message('note_on', channel=9, note=42, velocity=127, time=0),
    Message('note_on', channel=9, note=35, velocity=0, time=30),
    Message('note_on', channel=9, note=35, velocity=127, time=0),
    Message('note_on', channel=9, note=35, velocity=0, time=30),
    Message('note_on', channel=9, note=42, velocity=0, time=0),
    Message('note_on', channel=9, note=38, velocity=127, time=0),
    Message('note_on', channel=9, note=42, velocity=127, time=0),
    Message('note_on', channel=9, note=42, velocity=0, time=60),
    Message('note_on', channel=9, note=38, velocity=0, time=0),
    Message('note_on', channel=9, note=35, velocity=127, time=0),
    Message('note_on', channel=9, note=42, velocity=127, time=0),
    Message('note_on', channel=9, note=42, velocity=0, time=60),
    Message('note_on', channel=9, note=35, velocity=0, time=0),
    Message('note_on', channel=9, note=38, velocity=127, time=0),
    Message('note_on', channel=9, note=42, velocity=127, time=0),
    Message('note_on', channel=9, note=42, velocity=0, time=60),
    Message('note_on', channel=9, note=38, velocity=0, time=0),
    Message('note_on', channel=9, note=35, velocity=127, time=0),
    Message('note_on', channel=9, note=42, velocity=127, time=0),
    Message('note_on', channel=9, note=42, velocity=0, time=60),
    Message('note_on', channel=9, note=35, velocity=0, time=0),
    Message('note_on', channel=9, note=38, velocity=127, time=0),
    Message('note_on', channel=9, note=42, velocity=127, time=0),
    Message('note_on', channel=9, note=42, velocity=0, time=60),
    Message('note_on', channel=9, note=38, velocity=0, time=0),
    Message('note_on', channel=9, note=35, velocity=127, time=0),
    Message('note_on', channel=9, note=42, velocity=127, time=0),
    Message('note_on', channel=9, note=42, velocity=0, time=60),
    Message('note_on', channel=9, note=35, velocity=0, time=0),
    Message('note_on', channel=9, note=38, velocity=127, time=0),
    Message('note_on', channel=9, note=42, velocity=127, time=0),
    Message('note_on', channel=9, note=42, velocity=0, time=60),
    Message('note_on', channel=9, note=38, velocity=0, time=0),
    Message('note_on', channel=9, note=35, velocity=127, time=0),
    Message('note_on', channel=9, note=42, velocity=127, time=0),
    Message('note_on', channel=9, note=42, velocity=0, time=60),
    Message('note_on', channel=9, note=35, velocity=0, time=0),
    Message('note_on', channel=9, note=38, velocity=127, time=0),
    Message('note_on', channel=9, note=42, velocity=127, time=0),
    Message('note_on', channel=9, note=42, velocity=0, time=60),
    Message('note_on', channel=9, note=38, velocity=0, time=0),
    Message('note_on', channel=9, note=35, velocity=127, time=0),
    Message('note_on', channel=9, note=42, velocity=127, time=0),
    Message('note_on', channel=9, note=42, velocity=0, time=60),
    Message('note_on', channel=9, note=35, velocity=0, time=0),
    Message('note_on', channel=9, note=38, velocity=127, time=0),
    Message('note_on', channel=9, note=42, velocity=127, time=0),
    Message('note_on', channel=9, note=42, velocity=0, time=60),
    Message('note_on', channel=9, note=38, velocity=0, time=0),
    Message('note_on', channel=9, note=35, velocity=127, time=0),
    Message('note_on', channel=9, note=42, velocity=127, time=0),
    Message('note_on', channel=9, note=42, velocity=0, time=60),
    Message('note_on', channel=9, note=35, velocity=0, time=0),
    Message('note_on', channel=9, note=38, velocity=127, time=0),
    Message('note_on', channel=9, note=42, velocity=127, time=0),
    Message('note_on', channel=9, note=42, velocity=0, time=60),
    Message('note_on', channel=9, note=38, velocity=0, time=0),
    Message('note_on', channel=9, note=35, velocity=127, time=0),
    Message('note_on', channel=9, note=42, velocity=127, time=0),
    Message('note_on', channel=9, note=42, velocity=0, time=60),
    Message('note_on', channel=9, note=35, velocity=0, time=0),
    Message('note_on', channel=9, note=38, velocity=127, time=0),
    Message('note_on', channel=9, note=42, velocity=127, time=0),
    Message('note_on', channel=9, note=42, velocity=0, time=60),
    Message('note_on', channel=9, note=38, velocity=0, time=0),
    Message('note_on', channel=9, note=35, velocity=127, time=0),
    Message('note_on', channel=9, note=42, velocity=127, time=0),
    Message('note_on', channel=9, note=42, velocity=0, time=60),
    Message('note_on', channel=9, note=35, velocity=0, time=0),
    Message('note_on', channel=9, note=38, velocity=127, time=0),
    Message('note_on', channel=9, note=42, velocity=127, time=0),
    Message('note_on', channel=9, note=42, velocity=0, time=60),
    Message('note_on', channel=9, note=38, velocity=0, time=0),
    Message('note_on', channel=9, note=35, velocity=127, time=0),
    Message('note_on', channel=9, note=42, velocity=127, time=0),
    Message('note_on', channel=9, note=42, velocity=0, time=60),
    Message('note_on', channel=9, note=35, velocity=0, time=0),
    Message('note_on', channel=9, note=38, velocity=127, time=0),
    Message('note_on', channel=9, note=42, velocity=127, time=0),
    Message('note_on', channel=9, note=42, velocity=0, time=60),
    Message('note_on', channel=9, note=38, velocity=0, time=0),
    Message('note_on', channel=9, note=35, velocity=127, time=0),
    Message('note_on', channel=9, note=42, velocity=127, time=0),
    Message('note_on', channel=9, note=38, velocity=127, time=45),
    Message('note_on', channel=9, note=38, velocity=0, time=15),
    Message('note_on', channel=9, note=42, velocity=0, time=0),
    Message('note_on', channel=9, note=35, velocity=0, time=0),
    Message('note_on', channel=9, note=38, velocity=127, time=0),
    Message('note_on', channel=9, note=35, velocity=127, time=60),
    Message('note_on', channel=9, note=35, velocity=0, time=60),
    Message('note_on', channel=9, note=38, velocity=0, time=0),
    Message('note_on', channel=9, note=35, velocity=127, time=0),
    Message('note_on', channel=9, note=57, velocity=127, time=0),
    Message('note_on', channel=9, note=57, velocity=0, time=120),
    Message('note_on', channel=9, note=35, velocity=0, time=0),
    Message('note_on', channel=9, note=42, velocity=127, time=0),
    Message('note_on', channel=9, note=35, velocity=127, time=60),
    Message('note_on', channel=9, note=35, velocity=0, time=60),
    Message('note_on', channel=9, note=42, velocity=0, time=0),
    Message('note_on', channel=9, note=38, velocity=127, time=0),
    Message('note_on', channel=9, note=57, velocity=127, time=0),
    Message('note_on', channel=9, note=57, velocity=0, time=120),
    Message('note_on', channel=9, note=38, velocity=0, time=0),
    Message('note_on', channel=9, note=57, velocity=127, time=0),
    Message('note_on', channel=9, note=38, velocity=127, time=60),
    Message('note_on', channel=9, note=38, velocity=0, time=60),
    Message('note_on', channel=9, note=57, velocity=0, time=0),
    Message('note_on', channel=9, note=42, velocity=127, time=0),
    Message('note_on', channel=9, note=42, velocity=0, time=60),
    Message('note_on', channel=9, note=38, velocity=127, time=0),
    Message('note_on', channel=9, note=38, velocity=0, time=60),
    Message('note_on', channel=9, note=42, velocity=127, time=0),
    Message('note_on', channel=9, note=35, velocity=127, time=60),
    Message('note_on', channel=9, note=35, velocity=0, time=60),
    Message('note_on', channel=9, note=42, velocity=0, time=0),
    Message('note_on', channel=9, note=38, velocity=127, time=0),
    Message('note_on', channel=9, note=42, velocity=127, time=0),
    Message('note_on', channel=9, note=35, velocity=127, time=60),
    Message('note_on', channel=9, note=35, velocity=0, time=60),
    Message('note_on', channel=9, note=42, velocity=0, time=0),
    Message('note_on', channel=9, note=38, velocity=0, time=0),
    Message('note_on', channel=9, note=38, velocity=127, time=0),
    Message('note_on', channel=9, note=42, velocity=127, time=0),
    Message('note_on', channel=9, note=35, velocity=127, time=60),
    Message('note_on', channel=9, note=35, velocity=0, time=60),
    Message('note_on', channel=9, note=42, velocity=0, time=0),
    Message('note_on', channel=9, note=38, velocity=0, time=0),
    Message('note_on', channel=9, note=38, velocity=127, time=0),
    Message('note_on', channel=9, note=57, velocity=127, time=0),
    Message('note_on', channel=9, note=35, velocity=127, time=60),
    Message('note_on', channel=9, note=35, velocity=0, time=60),
    Message('note_on', channel=9, note=57, velocity=0, time=0),
    Message('note_on', channel=9, note=38, velocity=0, time=0),
    Message('note_on', channel=9, note=38, velocity=127, time=0),
    Message('note_on', channel=9, note=42, velocity=127, time=0),
    Message('note_on', channel=9, note=42, velocity=0, time=60),
    Message('note_on', channel=9, note=38, velocity=0, time=0),
    Message('note_on', channel=9, note=35, velocity=127, time=0),
    Message('note_on', channel=9, note=42, velocity=127, time=0),
    Message('note_on', channel=9, note=42, velocity=0, time=60),
    Message('note_on', channel=9, note=35, velocity=0, time=0),
    Message('note_on', channel=9, note=38, velocity=127, time=0),
    Message('note_on', channel=9, note=42, velocity=127, time=0),
    Message('note_on', channel=9, note=42, velocity=0, time=60),
    Message('note_on', channel=9, note=38, velocity=0, time=0),
    Message('note_on', channel=9, note=35, velocity=127, time=0),
    Message('note_on', channel=9, note=42, velocity=127, time=0),
    Message('note_on', channel=9, note=42, velocity=0, time=60),
    Message('note_on', channel=9, note=35, velocity=0, time=0),
    Message('note_on', channel=9, note=38, velocity=127, time=0),
    Message('note_on', channel=9, note=42, velocity=127, time=0),
    Message('note_on', channel=9, note=42, velocity=0, time=60),
    Message('note_on', channel=9, note=38, velocity=0, time=0),
    Message('note_on', channel=9, note=35, velocity=127, time=0),
    Message('note_on', channel=9, note=42, velocity=127, time=0),
    Message('note_on', channel=9, note=42, velocity=0, time=60),
    Message('note_on', channel=9, note=35, velocity=0, time=0),
    Message('note_on', channel=9, note=38, velocity=127, time=0),
    Message('note_on', channel=9, note=42, velocity=127, time=0),
    Message('note_on', channel=9, note=42, velocity=0, time=60),
    Message('note_on', channel=9, note=38, velocity=0, time=0),
    Message('note_on', channel=9, note=35, velocity=127, time=0),
    Message('note_on', channel=9, note=42, velocity=127, time=0),
    Message('note_on', channel=9, note=42, velocity=0, time=60),
    Message('note_on', channel=9, note=35, velocity=0, time=0),
    Message('note_on', channel=9, note=38, velocity=127, time=0),
    Message('note_on', channel=9, note=42, velocity=127, time=0),
    Message('note_on', channel=9, note=42, velocity=0, time=60),
    Message('note_on', channel=9, note=38, velocity=0, time=0),
    Message('note_on', channel=9, note=35, velocity=127, time=0),
    Message('note_on', channel=9, note=42, velocity=127, time=0),
    Message('note_on', channel=9, note=42, velocity=0, time=60),
    Message('note_on', channel=9, note=35, velocity=0, time=0),
    Message('note_on', channel=9, note=38, velocity=127, time=0),
    Message('note_on', channel=9, note=42, velocity=127, time=0),
    Message('note_on', channel=9, note=42, velocity=0, time=60),
    Message('note_on', channel=9, note=38, velocity=0, time=0),
    Message('note_on', channel=9, note=35, velocity=127, time=0),
    Message('note_on', channel=9, note=42, velocity=127, time=0),
    Message('note_on', channel=9, note=42, velocity=0, time=60),
    Message('note_on', channel=9, note=35, velocity=0, time=0),
    Message('note_on', channel=9, note=38, velocity=127, time=0),
    Message('note_on', channel=9, note=42, velocity=127, time=0),
    Message('note_on', channel=9, note=42, velocity=0, time=60),
    Message('note_on', channel=9, note=38, velocity=0, time=0),
    Message('note_on', channel=9, note=35, velocity=127, time=0),
    Message('note_on', channel=9, note=42, velocity=127, time=0),
    Message('note_on', channel=9, note=35, velocity=0, time=30),
    Message('note_on', channel=9, note=35, velocity=127, time=0),
    Message('note_on', channel=9, note=35, velocity=0, time=30),
    Message('note_on', channel=9, note=42, velocity=0, time=0),
    Message('note_on', channel=9, note=38, velocity=127, time=0),
    Message('note_on', channel=9, note=42, velocity=127, time=0),
    Message('note_on', channel=9, note=42, velocity=0, time=60),
    Message('note_on', channel=9, note=38, velocity=0, time=0),
    Message('note_on', channel=9, note=35, velocity=127, time=0),
    Message('note_on', channel=9, note=42, velocity=127, time=0),
    Message('note_on', channel=9, note=42, velocity=0, time=60),
    Message('note_on', channel=9, note=35, velocity=0, time=0),
    Message('note_on', channel=9, note=38, velocity=127, time=0),
    Message('note_on', channel=9, note=42, velocity=127, time=0),
    Message('note_on', channel=9, note=42, velocity=0, time=60),
    Message('note_on', channel=9, note=38, velocity=0, time=0),
    Message('note_on', channel=9, note=35, velocity=127, time=0),
    Message('note_on', channel=9, note=42, velocity=127, time=0),
    Message('note_on', channel=9, note=42, velocity=0, time=60),
    Message('note_on', channel=9, note=35, velocity=0, time=0),
    Message('note_on', channel=9, note=38, velocity=127, time=0),
    Message('note_on', channel=9, note=42, velocity=127, time=0),
    Message('note_on', channel=9, note=42, velocity=0, time=60),
    Message('note_on', channel=9, note=38, velocity=0, time=0),
    Message('note_on', channel=9, note=35, velocity=127, time=0),
    Message('note_on', channel=9, note=42, velocity=127, time=0),
    Message('note_on', channel=9, note=42, velocity=0, time=60),
    Message('note_on', channel=9, note=35, velocity=0, time=0),
    Message('note_on', channel=9, note=38, velocity=127, time=0),
    Message('note_on', channel=9, note=42, velocity=127, time=0),
    Message('note_on', channel=9, note=42, velocity=0, time=60),
    Message('note_on', channel=9, note=38, velocity=0, time=0),
    Message('note_on', channel=9, note=35, velocity=127, time=0),
    Message('note_on', channel=9, note=42, velocity=127, time=0),
    Message('note_on', channel=9, note=42, velocity=0, time=60),
    Message('note_on', channel=9, note=35, velocity=0, time=0),
    Message('note_on', channel=9, note=38, velocity=127, time=0),
    Message('note_on', channel=9, note=42, velocity=127, time=0),
    Message('note_on', channel=9, note=42, velocity=0, time=60),
    Message('note_on', channel=9, note=38, velocity=0, time=0),
    Message('note_on', channel=9, note=35, velocity=127, time=0),
    Message('note_on', channel=9, note=42, velocity=127, time=0),
    Message('note_on', channel=9, note=42, velocity=0, time=60),
    Message('note_on', channel=9, note=35, velocity=0, time=0),
    Message('note_on', channel=9, note=38, velocity=127, time=0),
    Message('note_on', channel=9, note=42, velocity=127, time=0),
    Message('note_on', channel=9, note=42, velocity=0, time=60),
    Message('note_on', channel=9, note=38, velocity=0, time=0),
    Message('note_on', channel=9, note=35, velocity=127, time=0),
    Message('note_on', channel=9, note=42, velocity=127, time=0),
    Message('note_on', channel=9, note=42, velocity=0, time=60),
    Message('note_on', channel=9, note=35, velocity=0, time=0),
    Message('note_on', channel=9, note=38, velocity=127, time=0),
    Message('note_on', channel=9, note=42, velocity=127, time=0),
    Message('note_on', channel=9, note=42, velocity=0, time=60),
    Message('note_on', channel=9, note=38, velocity=0, time=0),
    Message('note_on', channel=9, note=35, velocity=127, time=0),
    Message('note_on', channel=9, note=42, velocity=127, time=0),
    Message('note_on', channel=9, note=42, velocity=0, time=60),
    Message('note_on', channel=9, note=35, velocity=0, time=0),
    Message('note_on', channel=9, note=38, velocity=127, time=0),
    Message('note_on', channel=9, note=42, velocity=127, time=0),
    Message('note_on', channel=9, note=42, velocity=0, time=60),
    Message('note_on', channel=9, note=38, velocity=0, time=0),
    Message('note_on', channel=9, note=38, velocity=127, time=0),
    Message('note_on', channel=9, note=38, velocity=0, time=30),
    Message('note_on', channel=9, note=38, velocity=127, time=0),
    Message('note_on', channel=9, note=38, velocity=0, time=30),
    Message('note_on', channel=9, note=38, velocity=127, time=0),
    Message('note_on', channel=9, note=38, velocity=0, time=60),
    Message('note_on', channel=9, note=50, velocity=127, time=0),
    Message('note_on', channel=9, note=50, velocity=0, time=30),
    Message('note_on', channel=9, note=50, velocity=127, time=0),
    Message('note_on', channel=9, note=50, velocity=0, time=30),
    Message('note_on', channel=9, note=35, velocity=127, time=0),
    Message('note_on', channel=9, note=57, velocity=127, time=0),
    Message('note_on', channel=9, note=57, velocity=0, time=120),
    Message('note_on', channel=9, note=35, velocity=0, time=0),
    MetaMessage('end_of_track', time=0)]),
  MidiTrack([
    MetaMessage('midi_port', port=0, time=0),
    MetaMessage('track_name', name='Muted', time=0),
    Message('program_change', channel=5, program=28, time=0),
    Message('control_change', channel=5, control=7, value=100, time=0),
    Message('control_change', channel=5, control=7, value=100, time=47425),
    Message('control_change', channel=5, control=10, value=64, time=0),
    Message('note_on', channel=5, note=57, velocity=100, time=33395),
    Message('note_on', channel=5, note=57, velocity=0, time=60),
    Message('note_on', channel=5, note=57, velocity=100, time=0),
    Message('note_on', channel=5, note=57, velocity=0, time=60),
    Message('note_on', channel=5, note=57, velocity=100, time=0),
    Message('note_on', channel=5, note=57, velocity=0, time=60),
    Message('note_on', channel=5, note=57, velocity=100, time=0),
    Message('note_on', channel=5, note=57, velocity=0, time=60),
    Message('note_on', channel=5, note=57, velocity=100, time=0),
    Message('note_on', channel=5, note=57, velocity=0, time=60),
    Message('note_on', channel=5, note=57, velocity=100, time=0),
    Message('note_on', channel=5, note=57, velocity=0, time=60),
    Message('note_on', channel=5, note=57, velocity=100, time=0),
    Message('note_on', channel=5, note=57, velocity=0, time=30),
    Message('note_on', channel=5, note=57, velocity=100, time=0),
    Message('note_on', channel=5, note=57, velocity=0, time=30),
    Message('note_on', channel=5, note=57, velocity=100, time=0),
    Message('note_on', channel=5, note=57, velocity=0, time=60),
    Message('note_on', channel=5, note=57, velocity=100, time=0),
    Message('note_on', channel=5, note=57, velocity=0, time=60),
    Message('note_on', channel=5, note=57, velocity=100, time=0),
    Message('note_on', channel=5, note=57, velocity=0, time=60),
    Message('note_on', channel=5, note=57, velocity=100, time=0),
    Message('note_on', channel=5, note=57, velocity=0, time=30),
    Message('note_on', channel=5, note=57, velocity=100, time=0),
    Message('note_on', channel=5, note=57, velocity=0, time=30),
    Message('note_on', channel=5, note=57, velocity=100, time=0),
    Message('note_on', channel=5, note=57, velocity=0, time=60),
    Message('note_on', channel=5, note=57, velocity=100, time=0),
    Message('note_on', channel=5, note=57, velocity=0, time=30),
    Message('note_on', channel=5, note=57, velocity=100, time=0),
    Message('note_on', channel=5, note=57, velocity=0, time=30),
    Message('note_on', channel=5, note=57, velocity=100, time=0),
    Message('note_on', channel=5, note=57, velocity=0, time=60),
    Message('note_on', channel=5, note=57, velocity=100, time=1200),
    Message('note_on', channel=5, note=57, velocity=0, time=60),
    Message('note_on', channel=5, note=57, velocity=100, time=0),
    Message('note_on', channel=5, note=57, velocity=0, time=60),
    Message('note_on', channel=5, note=57, velocity=100, time=0),
    Message('note_on', channel=5, note=57, velocity=0, time=60),
    Message('note_on', channel=5, note=57, velocity=100, time=0),
    Message('note_on', channel=5, note=57, velocity=0, time=60),
    Message('note_on', channel=5, note=57, velocity=100, time=0),
    Message('note_on', channel=5, note=57, velocity=0, time=30),
    Message('note_on', channel=5, note=57, velocity=100, time=0),
    Message('note_on', channel=5, note=57, velocity=0, time=30),
    Message('note_on', channel=5, note=57, velocity=100, time=0),
    Message('note_on', channel=5, note=57, velocity=0, time=60),
    Message('note_on', channel=5, note=57, velocity=100, time=0),
    Message('note_on', channel=5, note=57, velocity=0, time=60),
    Message('note_on', channel=5, note=57, velocity=100, time=0),
    Message('note_on', channel=5, note=57, velocity=0, time=60),
    Message('note_on', channel=5, note=57, velocity=100, time=0),
    Message('note_on', channel=5, note=57, velocity=0, time=30),
    Message('note_on', channel=5, note=57, velocity=100, time=0),
    Message('note_on', channel=5, note=57, velocity=0, time=30),
    Message('note_on', channel=5, note=57, velocity=100, time=0),
    Message('note_on', channel=5, note=57, velocity=0, time=60),
    Message('note_on', channel=5, note=57, velocity=100, time=0),
    Message('note_on', channel=5, note=57, velocity=0, time=30),
    Message('note_on', channel=5, note=57, velocity=100, time=0),
    Message('note_on', channel=5, note=57, velocity=0, time=30),
    Message('note_on', channel=5, note=57, velocity=100, time=0),
    Message('note_on', channel=5, note=57, velocity=0, time=60),
    Message('note_on', channel=5, note=57, velocity=100, time=1200),
    Message('note_on', channel=5, note=57, velocity=0, time=60),
    Message('note_on', channel=5, note=57, velocity=100, time=0),
    Message('note_on', channel=5, note=57, velocity=0, time=60),
    Message('note_on', channel=5, note=57, velocity=100, time=0),
    Message('note_on', channel=5, note=57, velocity=0, time=60),
    Message('note_on', channel=5, note=57, velocity=100, time=0),
    Message('note_on', channel=5, note=57, velocity=0, time=60),
    Message('note_on', channel=5, note=57, velocity=100, time=0),
    Message('note_on', channel=5, note=57, velocity=0, time=30),
    Message('note_on', channel=5, note=57, velocity=100, time=0),
    Message('note_on', channel=5, note=57, velocity=0, time=30),
    Message('note_on', channel=5, note=57, velocity=100, time=0),
    Message('note_on', channel=5, note=57, velocity=0, time=60),
    Message('note_on', channel=5, note=57, velocity=100, time=0),
    Message('note_on', channel=5, note=57, velocity=0, time=60),
    Message('note_on', channel=5, note=57, velocity=100, time=0),
    Message('note_on', channel=5, note=57, velocity=0, time=60),
    Message('note_on', channel=5, note=57, velocity=100, time=0),
    Message('note_on', channel=5, note=57, velocity=0, time=30),
    Message('note_on', channel=5, note=57, velocity=100, time=0),
    Message('note_on', channel=5, note=57, velocity=0, time=30),
    Message('note_on', channel=5, note=57, velocity=100, time=0),
    Message('note_on', channel=5, note=57, velocity=0, time=60),
    Message('note_on', channel=5, note=57, velocity=100, time=0),
    Message('note_on', channel=5, note=57, velocity=0, time=30),
    Message('note_on', channel=5, note=57, velocity=100, time=0),
    Message('note_on', channel=5, note=57, velocity=0, time=30),
    Message('note_on', channel=5, note=57, velocity=100, time=0),
    Message('note_on', channel=5, note=57, velocity=0, time=60),
    Message('note_on', channel=5, note=57, velocity=100, time=1200),
    Message('note_on', channel=5, note=57, velocity=0, time=60),
    Message('note_on', channel=5, note=57, velocity=100, time=0),
    Message('note_on', channel=5, note=57, velocity=0, time=60),
    Message('note_on', channel=5, note=57, velocity=100, time=0),
    Message('note_on', channel=5, note=57, velocity=0, time=60),
    Message('note_on', channel=5, note=57, velocity=100, time=0),
    Message('note_on', channel=5, note=57, velocity=0, time=60),
    Message('note_on', channel=5, note=57, velocity=100, time=0),
    Message('note_on', channel=5, note=57, velocity=0, time=30),
    Message('note_on', channel=5, note=57, velocity=100, time=0),
    Message('note_on', channel=5, note=57, velocity=0, time=30),
    Message('note_on', channel=5, note=57, velocity=100, time=0),
    Message('note_on', channel=5, note=57, velocity=0, time=60),
    Message('note_on', channel=5, note=57, velocity=100, time=0),
    Message('note_on', channel=5, note=57, velocity=0, time=60),
    Message('note_on', channel=5, note=57, velocity=100, time=0),
    Message('note_on', channel=5, note=57, velocity=0, time=60),
    Message('note_on', channel=5, note=57, velocity=100, time=0),
    Message('note_on', channel=5, note=57, velocity=0, time=30),
    Message('note_on', channel=5, note=57, velocity=100, time=0),
    Message('note_on', channel=5, note=57, velocity=0, time=30),
    Message('note_on', channel=5, note=57, velocity=100, time=0),
    Message('note_on', channel=5, note=57, velocity=0, time=60),
    Message('note_on', channel=5, note=57, velocity=100, time=0),
    Message('note_on', channel=5, note=57, velocity=0, time=30),
    Message('note_on', channel=5, note=57, velocity=100, time=0),
    Message('note_on', channel=5, note=57, velocity=0, time=30),
    Message('note_on', channel=5, note=57, velocity=100, time=0),
    Message('note_on', channel=5, note=57, velocity=0, time=60),
    MetaMessage('end_of_track', time=0)])
])
