MidiFile(type=1, ticks_per_beat=192, tracks=[
  MidiTrack([
    MetaMessage('key_signature', key='C', time=0),
    MetaMessage('smpte_offset', frame_rate=25, hours=32, minutes=0, seconds=0, frames=0, sub_frames=0, time=0),
    MetaMessage('set_tempo', tempo=833333, time=0),
    MetaMessage('time_signature', numerator=4, denominator=4, clocks_per_click=24, notated_32nd_notes_per_beat=8, time=0),
    MetaMessage('end_of_track', time=0)]),
  MidiTrack([
    MetaMessage('midi_port', port=0, time=0),
    MetaMessage('track_name', name='"My Way" by         ', time=0),
    MetaMessage('end_of_track', time=0)]),
  MidiTrack([
    MetaMessage('midi_port', port=0, time=0),
    MetaMessage('track_name', name='Anka-Revaux-        ', time=0),
    MetaMessage('end_of_track', time=0)]),
  MidiTrack([
    MetaMessage('midi_port', port=0, time=0),
    MetaMessage('track_name', name='Francois-Thibault   ', time=0),
    MetaMessage('end_of_track', time=0)]),
  MidiTrack([
    MetaMessage('midi_port', port=0, time=0),
    MetaMessage('track_name', name='Sequenced by        ', time=0),
    MetaMessage('end_of_track', time=0)]),
  MidiTrack([
    MetaMessage('midi_port', port=0, time=0),
    MetaMessage('track_name', name='John Signorelli     ', time=0),
    MetaMessage('end_of_track', time=0)]),
  MidiTrack([
    MetaMessage('midi_port', port=0, time=0),
    MetaMessage('track_name', name='General Midi        ', time=0),
    MetaMessage('end_of_track', time=0)]),
  MidiTrack([
    MetaMessage('midi_port', port=1, time=0),
    MetaMessage('track_name', name='bass1               ', time=0),
    Message('program_change', channel=1, program=32, time=0),
    Message('control_change', channel=1, control=7, value=100, time=0),
    Message('note_on', channel=1, note=36, velocity=68, time=1537),
    Message('note_on', channel=1, note=36, velocity=0, time=261),
    Message('note_on', channel=1, note=36, velocity=70, time=61),
    Message('note_on', channel=1, note=36, velocity=0, time=24),
    Message('note_on', channel=1, note=36, velocity=82, time=40),
    Message('note_on', channel=1, note=36, velocity=0, time=229),
    Message('note_on', channel=1, note=31, velocity=62, time=30),
    Message('note_on', channel=1, note=31, velocity=0, time=18),
    Message('note_on', channel=1, note=33, velocity=85, time=35),
    Message('note_on', channel=1, note=33, velocity=0, time=69),
    Message('note_on', channel=1, note=36, velocity=85, time=0),
    Message('note_on', channel=1, note=36, velocity=0, time=283),
    Message('note_on', channel=1, note=36, velocity=85, time=48),
    Message('note_on', channel=1, note=36, velocity=0, time=19),
    Message('note_on', channel=1, note=36, velocity=87, time=48),
    Message('note_on', channel=1, note=36, velocity=0, time=285),
    Message('note_on', channel=1, note=36, velocity=72, time=21),
    Message('note_on', channel=1, note=36, velocity=0, time=25),
    Message('note_on', channel=1, note=36, velocity=68, time=40),
    Message('note_on', channel=1, note=36, velocity=0, time=261),
    Message('note_on', channel=1, note=36, velocity=70, time=61),
    Message('note_on', channel=1, note=36, velocity=0, time=24),
    Message('note_on', channel=1, note=36, velocity=82, time=40),
    Message('note_on', channel=1, note=36, velocity=0, time=229),
    Message('note_on', channel=1, note=31, velocity=62, time=30),
    Message('note_on', channel=1, note=31, velocity=0, time=18),
    Message('note_on', channel=1, note=33, velocity=85, time=35),
    Message('note_on', channel=1, note=33, velocity=0, time=69),
    Message('note_on', channel=1, note=36, velocity=85, time=0),
    Message('note_on', channel=1, note=36, velocity=0, time=283),
    Message('note_on', channel=1, note=36, velocity=85, time=48),
    Message('note_on', channel=1, note=36, velocity=0, time=19),
    Message('note_on', channel=1, note=36, velocity=87, time=48),
    Message('note_on', channel=1, note=36, velocity=0, time=285),
    Message('note_on', channel=1, note=36, velocity=72, time=21),
    Message('note_on', channel=1, note=36, velocity=0, time=25),
    Message('note_on', channel=1, note=36, velocity=80, time=42),
    Message('note_on', channel=1, note=36, velocity=0, time=256),
    Message('note_on', channel=1, note=36, velocity=82, time=59),
    Message('note_on', channel=1, note=36, velocity=0, time=24),
    Message('note_on', channel=1, note=36, velocity=82, time=45),
    Message('note_on', channel=1, note=36, velocity=0, time=286),
    Message('note_on', channel=1, note=36, velocity=98, time=32),
    Message('note_on', channel=1, note=36, velocity=0, time=29),
    Message('note_on', channel=1, note=40, velocity=80, time=37),
    Message('note_on', channel=1, note=40, velocity=0, time=256),
    Message('note_on', channel=1, note=40, velocity=82, time=59),
    Message('note_on', channel=1, note=40, velocity=0, time=24),
    Message('note_on', channel=1, note=40, velocity=82, time=45),
    Message('note_on', channel=1, note=40, velocity=0, time=286),
    Message('note_on', channel=1, note=40, velocity=98, time=32),
    Message('note_on', channel=1, note=40, velocity=0, time=29),
    Message('note_on', channel=1, note=43, velocity=80, time=37),
    Message('note_on', channel=1, note=43, velocity=0, time=256),
    Message('note_on', channel=1, note=43, velocity=82, time=59),
    Message('note_on', channel=1, note=43, velocity=0, time=24),
    Message('note_on', channel=1, note=43, velocity=82, time=45),
    Message('note_on', channel=1, note=43, velocity=0, time=286),
    Message('note_on', channel=1, note=43, velocity=98, time=32),
    Message('note_on', channel=1, note=43, velocity=0, time=29),
    Message('note_on', channel=1, note=33, velocity=80, time=37),
    Message('note_on', channel=1, note=33, velocity=0, time=256),
    Message('note_on', channel=1, note=33, velocity=82, time=59),
    Message('note_on', channel=1, note=33, velocity=0, time=24),
    Message('note_on', channel=1, note=33, velocity=82, time=45),
    Message('note_on', channel=1, note=33, velocity=0, time=286),
    Message('note_on', channel=1, note=33, velocity=98, time=32),
    Message('note_on', channel=1, note=33, velocity=0, time=29),
    Message('note_on', channel=1, note=38, velocity=80, time=37),
    Message('note_on', channel=1, note=38, velocity=0, time=256),
    Message('note_on', channel=1, note=38, velocity=82, time=59),
    Message('note_on', channel=1, note=38, velocity=0, time=24),
    Message('note_on', channel=1, note=38, velocity=82, time=45),
    Message('note_on', channel=1, note=38, velocity=0, time=286),
    Message('note_on', channel=1, note=38, velocity=98, time=32),
    Message('note_on', channel=1, note=38, velocity=0, time=29),
    Message('note_on', channel=1, note=38, velocity=80, time=37),
    Message('note_on', channel=1, note=38, velocity=0, time=256),
    Message('note_on', channel=1, note=38, velocity=82, time=59),
    Message('note_on', channel=1, note=38, velocity=0, time=24),
    Message('note_on', channel=1, note=38, velocity=82, time=45),
    Message('note_on', channel=1, note=38, velocity=0, time=286),
    Message('note_on', channel=1, note=38, velocity=98, time=32),
    Message('note_on', channel=1, note=38, velocity=0, time=29),
    Message('note_on', channel=1, note=43, velocity=80, time=37),
    Message('note_on', channel=1, note=43, velocity=0, time=256),
    Message('note_on', channel=1, note=43, velocity=82, time=59),
    Message('note_on', channel=1, note=43, velocity=0, time=24),
    Message('note_on', channel=1, note=43, velocity=82, time=45),
    Message('note_on', channel=1, note=43, velocity=0, time=286),
    Message('note_on', channel=1, note=43, velocity=98, time=32),
    Message('note_on', channel=1, note=43, velocity=0, time=29),
    Message('note_on', channel=1, note=36, velocity=80, time=37),
    Message('note_on', channel=1, note=36, velocity=0, time=256),
    Message('note_on', channel=1, note=36, velocity=82, time=59),
    Message('note_on', channel=1, note=36, velocity=0, time=24),
    Message('note_on', channel=1, note=36, velocity=82, time=45),
    Message('note_on', channel=1, note=36, velocity=0, time=286),
    Message('note_on', channel=1, note=36, velocity=98, time=32),
    Message('note_on', channel=1, note=36, velocity=0, time=29),
    Message('note_on', channel=1, note=36, velocity=80, time=34),
    Message('note_on', channel=1, note=36, velocity=0, time=268),
    Message('note_on', channel=1, note=36, velocity=95, time=56),
    Message('note_on', channel=1, note=36, velocity=0, time=34),
    Message('note_on', channel=1, note=36, velocity=80, time=26),
    Message('note_on', channel=1, note=36, velocity=0, time=268),
    Message('note_on', channel=1, note=36, velocity=95, time=56),
    Message('note_on', channel=1, note=36, velocity=0, time=34),
    Message('note_on', channel=1, note=36, velocity=80, time=29),
    Message('note_on', channel=1, note=36, velocity=0, time=256),
    Message('note_on', channel=1, note=36, velocity=82, time=59),
    Message('note_on', channel=1, note=36, velocity=0, time=24),
    Message('note_on', channel=1, note=36, velocity=82, time=45),
    Message('note_on', channel=1, note=36, velocity=0, time=286),
    Message('note_on', channel=1, note=36, velocity=98, time=32),
    Message('note_on', channel=1, note=36, velocity=0, time=29),
    Message('note_on', channel=1, note=41, velocity=80, time=37),
    Message('note_on', channel=1, note=41, velocity=0, time=256),
    Message('note_on', channel=1, note=41, velocity=82, time=59),
    Message('note_on', channel=1, note=41, velocity=0, time=24),
    Message('note_on', channel=1, note=41, velocity=82, time=45),
    Message('note_on', channel=1, note=41, velocity=0, time=286),
    Message('note_on', channel=1, note=41, velocity=98, time=32),
    Message('note_on', channel=1, note=41, velocity=0, time=29),
    Message('note_on', channel=1, note=41, velocity=80, time=37),
    Message('note_on', channel=1, note=41, velocity=0, time=256),
    Message('note_on', channel=1, note=41, velocity=82, time=59),
    Message('note_on', channel=1, note=41, velocity=0, time=24),
    Message('note_on', channel=1, note=41, velocity=82, time=45),
    Message('note_on', channel=1, note=41, velocity=0, time=286),
    Message('note_on', channel=1, note=41, velocity=98, time=32),
    Message('note_on', channel=1, note=41, velocity=0, time=29),
    Message('note_on', channel=1, note=36, velocity=80, time=37),
    Message('note_on', channel=1, note=36, velocity=0, time=256),
    Message('note_on', channel=1, note=36, velocity=82, time=59),
    Message('note_on', channel=1, note=36, velocity=0, time=24),
    Message('note_on', channel=1, note=36, velocity=82, time=45),
    Message('note_on', channel=1, note=36, velocity=0, time=286),
    Message('note_on', channel=1, note=36, velocity=98, time=32),
    Message('note_on', channel=1, note=36, velocity=0, time=29),
    Message('note_on', channel=1, note=43, velocity=80, time=37),
    Message('note_on', channel=1, note=43, velocity=0, time=256),
    Message('note_on', channel=1, note=43, velocity=82, time=59),
    Message('note_on', channel=1, note=43, velocity=0, time=24),
    Message('note_on', channel=1, note=43, velocity=82, time=45),
    Message('note_on', channel=1, note=43, velocity=0, time=286),
    Message('note_on', channel=1, note=43, velocity=98, time=32),
    Message('note_on', channel=1, note=43, velocity=0, time=29),
    Message('note_on', channel=1, note=41, velocity=80, time=37),
    Message('note_on', channel=1, note=41, velocity=0, time=256),
    Message('note_on', channel=1, note=41, velocity=82, time=59),
    Message('note_on', channel=1, note=41, velocity=0, time=24),
    Message('note_on', channel=1, note=41, velocity=82, time=45),
    Message('note_on', channel=1, note=41, velocity=0, time=286),
    Message('note_on', channel=1, note=41, velocity=98, time=32),
    Message('note_on', channel=1, note=41, velocity=0, time=29),
    Message('note_on', channel=1, note=36, velocity=80, time=37),
    Message('note_on', channel=1, note=36, velocity=0, time=256),
    Message('note_on', channel=1, note=36, velocity=82, time=59),
    Message('note_on', channel=1, note=36, velocity=0, time=24),
    Message('note_on', channel=1, note=36, velocity=82, time=45),
    Message('note_on', channel=1, note=36, velocity=0, time=286),
    Message('note_on', channel=1, note=36, velocity=98, time=32),
    Message('note_on', channel=1, note=36, velocity=0, time=29),
    Message('note_on', channel=1, note=36, velocity=80, time=37),
    Message('note_on', channel=1, note=36, velocity=0, time=256),
    Message('note_on', channel=1, note=36, velocity=82, time=59),
    Message('note_on', channel=1, note=36, velocity=0, time=24),
    Message('note_on', channel=1, note=36, velocity=82, time=45),
    Message('note_on', channel=1, note=36, velocity=0, time=286),
    Message('note_on', channel=1, note=36, velocity=98, time=32),
    Message('note_on', channel=1, note=36, velocity=0, time=29),
    Message('note_on', channel=1, note=40, velocity=80, time=37),
    Message('note_on', channel=1, note=40, velocity=0, time=256),
    Message('note_on', channel=1, note=40, velocity=82, time=59),
    Message('note_on', channel=1, note=40, velocity=0, time=24),
    Message('note_on', channel=1, note=40, velocity=82, time=45),
    Message('note_on', channel=1, note=40, velocity=0, time=286),
    Message('note_on', channel=1, note=40, velocity=98, time=32),
    Message('note_on', channel=1, note=40, velocity=0, time=29),
    Message('note_on', channel=1, note=43, velocity=80, time=37),
    Message('note_on', channel=1, note=43, velocity=0, time=256),
    Message('note_on', channel=1, note=43, velocity=82, time=59),
    Message('note_on', channel=1, note=43, velocity=0, time=24),
    Message('note_on', channel=1, note=43, velocity=82, time=45),
    Message('note_on', channel=1, note=43, velocity=0, time=286),
    Message('note_on', channel=1, note=43, velocity=98, time=32),
    Message('note_on', channel=1, note=43, velocity=0, time=29),
    Message('note_on', channel=1, note=33, velocity=80, time=37),
    Message('note_on', channel=1, note=33, velocity=0, time=256),
    Message('note_on', channel=1, note=33, velocity=82, time=59),
    Message('note_on', channel=1, note=33, velocity=0, time=24),
    Message('note_on', channel=1, note=33, velocity=82, time=45),
    Message('note_on', channel=1, note=33, velocity=0, time=286),
    Message('note_on', channel=1, note=33, velocity=98, time=32),
    Message('note_on', channel=1, note=33, velocity=0, time=29),
    Message('note_on', channel=1, note=38, velocity=80, time=37),
    Message('note_on', channel=1, note=38, velocity=0, time=256),
    Message('note_on', channel=1, note=38, velocity=82, time=59),
    Message('note_on', channel=1, note=38, velocity=0, time=24),
    Message('note_on', channel=1, note=38, velocity=82, time=45),
    Message('note_on', channel=1, note=38, velocity=0, time=286),
    Message('note_on', channel=1, note=38, velocity=98, time=32),
    Message('note_on', channel=1, note=38, velocity=0, time=29),
    Message('note_on', channel=1, note=38, velocity=80, time=37),
    Message('note_on', channel=1, note=38, velocity=0, time=256),
    Message('note_on', channel=1, note=38, velocity=82, time=59),
    Message('note_on', channel=1, note=38, velocity=0, time=24),
    Message('note_on', channel=1, note=38, velocity=82, time=45),
    Message('note_on', channel=1, note=38, velocity=0, time=286),
    Message('note_on', channel=1, note=38, velocity=98, time=32),
    Message('note_on', channel=1, note=38, velocity=0, time=29),
    Message('note_on', channel=1, note=43, velocity=80, time=37),
    Message('note_on', channel=1, note=43, velocity=0, time=256),
    Message('note_on', channel=1, note=43, velocity=82, time=59),
    Message('note_on', channel=1, note=43, velocity=0, time=24),
    Message('note_on', channel=1, note=43, velocity=82, time=45),
    Message('note_on', channel=1, note=43, velocity=0, time=286),
    Message('note_on', channel=1, note=43, velocity=98, time=32),
    Message('note_on', channel=1, note=43, velocity=0, time=29),
    Message('note_on', channel=1, note=36, velocity=80, time=37),
    Message('note_on', channel=1, note=36, velocity=0, time=256),
    Message('note_on', channel=1, note=36, velocity=82, time=59),
    Message('note_on', channel=1, note=36, velocity=0, time=24),
    Message('note_on', channel=1, note=36, velocity=82, time=45),
    Message('note_on', channel=1, note=36, velocity=0, time=286),
    Message('note_on', channel=1, note=36, velocity=98, time=32),
    Message('note_on', channel=1, note=36, velocity=0, time=29),
    Message('note_on', channel=1, note=36, velocity=80, time=34),
    Message('note_on', channel=1, note=36, velocity=0, time=268),
    Message('note_on', channel=1, note=36, velocity=95, time=56),
    Message('note_on', channel=1, note=36, velocity=0, time=34),
    Message('note_on', channel=1, note=36, velocity=80, time=26),
    Message('note_on', channel=1, note=36, velocity=0, time=268),
    Message('note_on', channel=1, note=36, velocity=95, time=56),
    Message('note_on', channel=1, note=36, velocity=0, time=34),
    Message('note_on', channel=1, note=36, velocity=80, time=29),
    Message('note_on', channel=1, note=36, velocity=0, time=256),
    Message('note_on', channel=1, note=36, velocity=82, time=59),
    Message('note_on', channel=1, note=36, velocity=0, time=24),
    Message('note_on', channel=1, note=36, velocity=82, time=45),
    Message('note_on', channel=1, note=36, velocity=0, time=286),
    Message('note_on', channel=1, note=36, velocity=98, time=32),
    Message('note_on', channel=1, note=36, velocity=0, time=29),
    Message('note_on', channel=1, note=41, velocity=80, time=37),
    Message('note_on', channel=1, note=41, velocity=0, time=256),
    Message('note_on', channel=1, note=41, velocity=82, time=59),
    Message('note_on', channel=1, note=41, velocity=0, time=24),
    Message('note_on', channel=1, note=41, velocity=82, time=45),
    Message('note_on', channel=1, note=41, velocity=0, time=286),
    Message('note_on', channel=1, note=41, velocity=98, time=32),
    Message('note_on', channel=1, note=41, velocity=0, time=29),
    Message('note_on', channel=1, note=41, velocity=80, time=37),
    Message('note_on', channel=1, note=41, velocity=0, time=256),
    Message('note_on', channel=1, note=41, velocity=82, time=59),
    Message('note_on', channel=1, note=41, velocity=0, time=24),
    Message('note_on', channel=1, note=41, velocity=82, time=45),
    Message('note_on', channel=1, note=41, velocity=0, time=286),
    Message('note_on', channel=1, note=41, velocity=98, time=32),
    Message('note_on', channel=1, note=41, velocity=0, time=29),
    Message('note_on', channel=1, note=36, velocity=80, time=37),
    Message('note_on', channel=1, note=36, velocity=0, time=256),
    Message('note_on', channel=1, note=36, velocity=82, time=59),
    Message('note_on', channel=1, note=36, velocity=0, time=24),
    Message('note_on', channel=1, note=36, velocity=82, time=45),
    Message('note_on', channel=1, note=36, velocity=0, time=286),
    Message('note_on', channel=1, note=36, velocity=98, time=32),
    Message('note_on', channel=1, note=36, velocity=0, time=29),
    Message('note_on', channel=1, note=43, velocity=80, time=37),
    Message('note_on', channel=1, note=43, velocity=0, time=256),
    Message('note_on', channel=1, note=43, velocity=82, time=59),
    Message('note_on', channel=1, note=43, velocity=0, time=24),
    Message('note_on', channel=1, note=43, velocity=82, time=45),
    Message('note_on', channel=1, note=43, velocity=0, time=286),
    Message('note_on', channel=1, note=43, velocity=98, time=32),
    Message('note_on', channel=1, note=43, velocity=0, time=29),
    Message('note_on', channel=1, note=41, velocity=80, time=37),
    Message('note_on', channel=1, note=41, velocity=0, time=256),
    Message('note_on', channel=1, note=41, velocity=82, time=59),
    Message('note_on', channel=1, note=41, velocity=0, time=24),
    Message('note_on', channel=1, note=41, velocity=82, time=45),
    Message('note_on', channel=1, note=41, velocity=0, time=286),
    Message('note_on', channel=1, note=41, velocity=98, time=32),
    Message('note_on', channel=1, note=41, velocity=0, time=29),
    Message('note_on', channel=1, note=36, velocity=80, time=37),
    Message('note_on', channel=1, note=36, velocity=0, time=256),
    Message('note_on', channel=1, note=36, velocity=82, time=59),
    Message('note_on', channel=1, note=36, velocity=0, time=24),
    Message('note_on', channel=1, note=36, velocity=82, time=45),
    Message('note_on', channel=1, note=36, velocity=0, time=286),
    Message('note_on', channel=1, note=36, velocity=98, time=32),
    Message('note_on', channel=1, note=36, velocity=0, time=29),
    Message('note_on', channel=1, note=36, velocity=80, time=42),
    Message('note_on', channel=1, note=36, velocity=0, time=256),
    Message('note_on', channel=1, note=36, velocity=87, time=56),
    Message('note_on', channel=1, note=36, velocity=0, time=20),
    Message('note_on', channel=1, note=36, velocity=93, time=50),
    Message('note_on', channel=1, note=31, velocity=85, time=258),
    Message('note_on', channel=1, note=36, velocity=0, time=3),
    Message('note_on', channel=1, note=31, velocity=0, time=51),
    Message('note_on', channel=1, note=33, velocity=95, time=5),
    Message('note_on', channel=1, note=33, velocity=0, time=35),
    Message('note_on', channel=1, note=36, velocity=85, time=26),
    Message('note_on', channel=1, note=36, velocity=0, time=272),
    Message('note_on', channel=1, note=36, velocity=64, time=49),
    Message('note_on', channel=1, note=36, velocity=0, time=21),
    Message('note_on', channel=1, note=36, velocity=82, time=46),
    Message('note_on', channel=1, note=36, velocity=0, time=279),
    Message('note_on', channel=1, note=36, velocity=89, time=25),
    Message('note_on', channel=1, note=36, velocity=0, time=31),
    Message('note_on', channel=1, note=41, velocity=100, time=48),
    Message('note_on', channel=1, note=48, velocity=95, time=310),
    Message('note_on', channel=1, note=41, velocity=0, time=3),
    Message('note_on', channel=1, note=50, velocity=98, time=18),
    Message('note_on', channel=1, note=48, velocity=0, time=3),
    Message('note_on', channel=1, note=50, velocity=0, time=67),
    Message('note_on', channel=1, note=48, velocity=59, time=2),
    Message('note_on', channel=1, note=50, velocity=80, time=293),
    Message('note_on', channel=1, note=48, velocity=0, time=6),
    Message('note_on', channel=1, note=41, velocity=87, time=77),
    Message('note_on', channel=1, note=50, velocity=0, time=2),
    Message('note_on', channel=1, note=41, velocity=0, time=243),
    Message('note_on', channel=1, note=36, velocity=87, time=3),
    Message('note_on', channel=1, note=36, velocity=0, time=53),
    Message('note_on', channel=1, note=38, velocity=66, time=0),
    Message('note_on', channel=1, note=41, velocity=87, time=67),
    Message('note_on', channel=1, note=38, velocity=0, time=3),
    Message('note_on', channel=1, note=41, velocity=0, time=251),
    Message('note_on', channel=1, note=41, velocity=87, time=69),
    Message('note_on', channel=1, note=41, velocity=0, time=31),
    Message('note_on', channel=1, note=38, velocity=89, time=36),
    Message('note_on', channel=1, note=38, velocity=0, time=280),
    Message('note_on', channel=1, note=38, velocity=78, time=37),
    Message('note_on', channel=1, note=38, velocity=0, time=26),
    Message('note_on', channel=1, note=38, velocity=95, time=40),
    Message('note_on', channel=1, note=38, velocity=0, time=229),
    Message('note_on', channel=1, note=38, velocity=52, time=33),
    Message('note_on', channel=1, note=38, velocity=0, time=23),
    Message('note_on', channel=1, note=38, velocity=91, time=33),
    Message('note_on', channel=1, note=38, velocity=0, time=32),
    Message('note_on', channel=1, note=43, velocity=80, time=39),
    Message('note_on', channel=1, note=43, velocity=0, time=256),
    Message('note_on', channel=1, note=43, velocity=87, time=56),
    Message('note_on', channel=1, note=43, velocity=0, time=20),
    Message('note_on', channel=1, note=43, velocity=93, time=50),
    Message('note_on', channel=1, note=38, velocity=85, time=258),
    Message('note_on', channel=1, note=43, velocity=0, time=3),
    Message('note_on', channel=1, note=38, velocity=0, time=51),
    Message('note_on', channel=1, note=40, velocity=95, time=5),
    Message('note_on', channel=1, note=40, velocity=0, time=35),
    Message('note_on', channel=1, note=40, velocity=89, time=30),
    Message('note_on', channel=1, note=40, velocity=0, time=280),
    Message('note_on', channel=1, note=40, velocity=78, time=37),
    Message('note_on', channel=1, note=40, velocity=0, time=26),
    Message('note_on', channel=1, note=40, velocity=95, time=40),
    Message('note_on', channel=1, note=40, velocity=0, time=229),
    Message('note_on', channel=1, note=40, velocity=52, time=33),
    Message('note_on', channel=1, note=40, velocity=0, time=23),
    Message('note_on', channel=1, note=40, velocity=91, time=33),
    Message('note_on', channel=1, note=40, velocity=0, time=32),
    Message('note_on', channel=1, note=33, velocity=85, time=31),
    Message('note_on', channel=1, note=33, velocity=0, time=272),
    Message('note_on', channel=1, note=33, velocity=64, time=49),
    Message('note_on', channel=1, note=33, velocity=0, time=21),
    Message('note_on', channel=1, note=33, velocity=82, time=46),
    Message('note_on', channel=1, note=33, velocity=0, time=279),
    Message('note_on', channel=1, note=33, velocity=89, time=25),
    Message('note_on', channel=1, note=33, velocity=0, time=31),
    Message('note_on', channel=1, note=38, velocity=85, time=45),
    Message('note_on', channel=1, note=38, velocity=0, time=272),
    Message('note_on', channel=1, note=38, velocity=64, time=49),
    Message('note_on', channel=1, note=38, velocity=0, time=21),
    Message('note_on', channel=1, note=38, velocity=82, time=46),
    Message('note_on', channel=1, note=38, velocity=0, time=279),
    Message('note_on', channel=1, note=38, velocity=89, time=25),
    Message('note_on', channel=1, note=38, velocity=0, time=31),
    Message('note_on', channel=1, note=43, velocity=89, time=49),
    Message('note_on', channel=1, note=43, velocity=0, time=280),
    Message('note_on', channel=1, note=43, velocity=78, time=37),
    Message('note_on', channel=1, note=43, velocity=0, time=26),
    Message('note_on', channel=1, note=43, velocity=95, time=40),
    Message('note_on', channel=1, note=43, velocity=0, time=229),
    Message('note_on', channel=1, note=43, velocity=52, time=33),
    Message('note_on', channel=1, note=43, velocity=0, time=23),
    Message('note_on', channel=1, note=43, velocity=91, time=33),
    Message('note_on', channel=1, note=43, velocity=0, time=32),
    Message('note_on', channel=1, note=41, velocity=89, time=35),
    Message('note_on', channel=1, note=41, velocity=0, time=280),
    Message('note_on', channel=1, note=41, velocity=78, time=37),
    Message('note_on', channel=1, note=41, velocity=0, time=26),
    Message('note_on', channel=1, note=41, velocity=95, time=40),
    Message('note_on', channel=1, note=41, velocity=0, time=229),
    Message('note_on', channel=1, note=40, velocity=52, time=33),
    Message('note_on', channel=1, note=40, velocity=0, time=23),
    Message('note_on', channel=1, note=38, velocity=91, time=33),
    Message('note_on', channel=1, note=38, velocity=0, time=32),
    Message('note_on', channel=1, note=36, velocity=80, time=39),
    Message('note_on', channel=1, note=36, velocity=0, time=256),
    Message('note_on', channel=1, note=36, velocity=87, time=56),
    Message('note_on', channel=1, note=36, velocity=0, time=20),
    Message('note_on', channel=1, note=36, velocity=93, time=50),
    Message('note_on', channel=1, note=31, velocity=85, time=258),
    Message('note_on', channel=1, note=36, velocity=0, time=3),
    Message('note_on', channel=1, note=31, velocity=0, time=51),
    Message('note_on', channel=1, note=33, velocity=95, time=5),
    Message('note_on', channel=1, note=33, velocity=0, time=35),
    Message('note_on', channel=1, note=36, velocity=80, time=29),
    Message('note_on', channel=1, note=36, velocity=0, time=256),
    Message('note_on', channel=1, note=36, velocity=82, time=59),
    Message('note_on', channel=1, note=36, velocity=0, time=24),
    Message('note_on', channel=1, note=36, velocity=82, time=45),
    Message('note_on', channel=1, note=36, velocity=0, time=286),
    Message('note_on', channel=1, note=36, velocity=98, time=32),
    Message('note_on', channel=1, note=36, velocity=0, time=29),
    Message('note_on', channel=1, note=40, velocity=80, time=37),
    Message('note_on', channel=1, note=40, velocity=0, time=256),
    Message('note_on', channel=1, note=40, velocity=82, time=59),
    Message('note_on', channel=1, note=40, velocity=0, time=24),
    Message('note_on', channel=1, note=40, velocity=82, time=45),
    Message('note_on', channel=1, note=40, velocity=0, time=286),
    Message('note_on', channel=1, note=40, velocity=98, time=32),
    Message('note_on', channel=1, note=40, velocity=0, time=29),
    Message('note_on', channel=1, note=43, velocity=80, time=37),
    Message('note_on', channel=1, note=43, velocity=0, time=256),
    Message('note_on', channel=1, note=43, velocity=82, time=59),
    Message('note_on', channel=1, note=43, velocity=0, time=24),
    Message('note_on', channel=1, note=43, velocity=82, time=45),
    Message('note_on', channel=1, note=43, velocity=0, time=286),
    Message('note_on', channel=1, note=43, velocity=98, time=32),
    Message('note_on', channel=1, note=43, velocity=0, time=29),
    Message('note_on', channel=1, note=33, velocity=80, time=37),
    Message('note_on', channel=1, note=33, velocity=0, time=256),
    Message('note_on', channel=1, note=33, velocity=82, time=59),
    Message('note_on', channel=1, note=33, velocity=0, time=24),
    Message('note_on', channel=1, note=33, velocity=82, time=45),
    Message('note_on', channel=1, note=33, velocity=0, time=286),
    Message('note_on', channel=1, note=33, velocity=98, time=32),
    Message('note_on', channel=1, note=33, velocity=0, time=29),
    Message('note_on', channel=1, note=38, velocity=80, time=37),
    Message('note_on', channel=1, note=38, velocity=0, time=256),
    Message('note_on', channel=1, note=38, velocity=82, time=59),
    Message('note_on', channel=1, note=38, velocity=0, time=24),
    Message('note_on', channel=1, note=38, velocity=82, time=45),
    Message('note_on', channel=1, note=38, velocity=0, time=286),
    Message('note_on', channel=1, note=38, velocity=98, time=32),
    Message('note_on', channel=1, note=38, velocity=0, time=29),
    Message('note_on', channel=1, note=38, velocity=80, time=37),
    Message('note_on', channel=1, note=38, velocity=0, time=256),
    Message('note_on', channel=1, note=38, velocity=82, time=59),
    Message('note_on', channel=1, note=38, velocity=0, time=24),
    Message('note_on', channel=1, note=38, velocity=82, time=45),
    Message('note_on', channel=1, note=38, velocity=0, time=286),
    Message('note_on', channel=1, note=38, velocity=98, time=32),
    Message('note_on', channel=1, note=38, velocity=0, time=29),
    Message('note_on', channel=1, note=43, velocity=80, time=37),
    Message('note_on', channel=1, note=43, velocity=0, time=256),
    Message('note_on', channel=1, note=43, velocity=82, time=59),
    Message('note_on', channel=1, note=43, velocity=0, time=24),
    Message('note_on', channel=1, note=43, velocity=82, time=45),
    Message('note_on', channel=1, note=43, velocity=0, time=286),
    Message('note_on', channel=1, note=43, velocity=98, time=32),
    Message('note_on', channel=1, note=43, velocity=0, time=29),
    Message('note_on', channel=1, note=36, velocity=80, time=37),
    Message('note_on', channel=1, note=36, velocity=0, time=256),
    Message('note_on', channel=1, note=36, velocity=82, time=59),
    Message('note_on', channel=1, note=36, velocity=0, time=24),
    Message('note_on', channel=1, note=36, velocity=82, time=45),
    Message('note_on', channel=1, note=36, velocity=0, time=286),
    Message('note_on', channel=1, note=36, velocity=98, time=32),
    Message('note_on', channel=1, note=36, velocity=0, time=29),
    Message('note_on', channel=1, note=36, velocity=80, time=34),
    Message('note_on', channel=1, note=36, velocity=0, time=268),
    Message('note_on', channel=1, note=36, velocity=95, time=56),
    Message('note_on', channel=1, note=36, velocity=0, time=34),
    Message('note_on', channel=1, note=36, velocity=80, time=26),
    Message('note_on', channel=1, note=36, velocity=0, time=268),
    Message('note_on', channel=1, note=36, velocity=95, time=56),
    Message('note_on', channel=1, note=36, velocity=0, time=34),
    Message('note_on', channel=1, note=36, velocity=80, time=29),
    Message('note_on', channel=1, note=36, velocity=0, time=256),
    Message('note_on', channel=1, note=36, velocity=82, time=59),
    Message('note_on', channel=1, note=36, velocity=0, time=24),
    Message('note_on', channel=1, note=36, velocity=82, time=45),
    Message('note_on', channel=1, note=36, velocity=0, time=286),
    Message('note_on', channel=1, note=36, velocity=98, time=32),
    Message('note_on', channel=1, note=36, velocity=0, time=29),
    Message('note_on', channel=1, note=41, velocity=80, time=37),
    Message('note_on', channel=1, note=41, velocity=0, time=256),
    Message('note_on', channel=1, note=41, velocity=82, time=59),
    Message('note_on', channel=1, note=41, velocity=0, time=24),
    Message('note_on', channel=1, note=41, velocity=82, time=45),
    Message('note_on', channel=1, note=41, velocity=0, time=286),
    Message('note_on', channel=1, note=41, velocity=98, time=32),
    Message('note_on', channel=1, note=41, velocity=0, time=29),
    Message('note_on', channel=1, note=41, velocity=80, time=37),
    Message('note_on', channel=1, note=41, velocity=0, time=256),
    Message('note_on', channel=1, note=41, velocity=82, time=59),
    Message('note_on', channel=1, note=41, velocity=0, time=24),
    Message('note_on', channel=1, note=41, velocity=82, time=45),
    Message('note_on', channel=1, note=41, velocity=0, time=286),
    Message('note_on', channel=1, note=41, velocity=98, time=32),
    Message('note_on', channel=1, note=41, velocity=0, time=29),
    Message('note_on', channel=1, note=36, velocity=80, time=37),
    Message('note_on', channel=1, note=36, velocity=0, time=256),
    Message('note_on', channel=1, note=36, velocity=82, time=59),
    Message('note_on', channel=1, note=36, velocity=0, time=24),
    Message('note_on', channel=1, note=36, velocity=82, time=45),
    Message('note_on', channel=1, note=36, velocity=0, time=286),
    Message('note_on', channel=1, note=36, velocity=98, time=32),
    Message('note_on', channel=1, note=36, velocity=0, time=29),
    Message('note_on', channel=1, note=43, velocity=80, time=37),
    Message('note_on', channel=1, note=43, velocity=0, time=256),
    Message('note_on', channel=1, note=43, velocity=82, time=59),
    Message('note_on', channel=1, note=43, velocity=0, time=24),
    Message('note_on', channel=1, note=43, velocity=82, time=45),
    Message('note_on', channel=1, note=43, velocity=0, time=286),
    Message('note_on', channel=1, note=43, velocity=98, time=32),
    Message('note_on', channel=1, note=43, velocity=0, time=29),
    Message('note_on', channel=1, note=41, velocity=80, time=37),
    Message('note_on', channel=1, note=41, velocity=0, time=256),
    Message('note_on', channel=1, note=41, velocity=82, time=59),
    Message('note_on', channel=1, note=41, velocity=0, time=24),
    Message('note_on', channel=1, note=41, velocity=82, time=45),
    Message('note_on', channel=1, note=41, velocity=0, time=286),
    Message('note_on', channel=1, note=41, velocity=98, time=32),
    Message('note_on', channel=1, note=41, velocity=0, time=29),
    Message('note_on', channel=1, note=36, velocity=80, time=37),
    Message('note_on', channel=1, note=36, velocity=0, time=256),
    Message('note_on', channel=1, note=36, velocity=82, time=59),
    Message('note_on', channel=1, note=36, velocity=0, time=24),
    Message('note_on', channel=1, note=36, velocity=82, time=45),
    Message('note_on', channel=1, note=36, velocity=0, time=286),
    Message('note_on', channel=1, note=36, velocity=98, time=32),
    Message('note_on', channel=1, note=36, velocity=0, time=29),
    Message('note_on', channel=1, note=36, velocity=85, time=34),
    Message('note_on', channel=1, note=36, velocity=0, time=272),
    Message('note_on', channel=1, note=36, velocity=64, time=49),
    Message('note_on', channel=1, note=36, velocity=0, time=21),
    Message('note_on', channel=1, note=36, velocity=82, time=46),
    Message('note_on', channel=1, note=36, velocity=0, time=279),
    Message('note_on', channel=1, note=36, velocity=89, time=25),
    Message('note_on', channel=1, note=36, velocity=0, time=31),
    Message('note_on', channel=1, note=36, velocity=89, time=49),
    Message('note_on', channel=1, note=36, velocity=0, time=280),
    Message('note_on', channel=1, note=36, velocity=78, time=37),
    Message('note_on', channel=1, note=36, velocity=0, time=26),
    Message('note_on', channel=1, note=36, velocity=95, time=40),
    Message('note_on', channel=1, note=36, velocity=0, time=229),
    Message('note_on', channel=1, note=36, velocity=52, time=33),
    Message('note_on', channel=1, note=36, velocity=0, time=23),
    Message('note_on', channel=1, note=36, velocity=91, time=33),
    Message('note_on', channel=1, note=36, velocity=0, time=32),
    Message('note_on', channel=1, note=41, velocity=100, time=34),
    Message('note_on', channel=1, note=48, velocity=95, time=310),
    Message('note_on', channel=1, note=41, velocity=0, time=3),
    Message('note_on', channel=1, note=50, velocity=98, time=18),
    Message('note_on', channel=1, note=48, velocity=0, time=3),
    Message('note_on', channel=1, note=50, velocity=0, time=67),
    Message('note_on', channel=1, note=48, velocity=59, time=2),
    Message('note_on', channel=1, note=50, velocity=80, time=293),
    Message('note_on', channel=1, note=48, velocity=0, time=6),
    Message('note_on', channel=1, note=41, velocity=87, time=77),
    Message('note_on', channel=1, note=50, velocity=0, time=2),
    Message('note_on', channel=1, note=41, velocity=0, time=243),
    Message('note_on', channel=1, note=36, velocity=87, time=3),
    Message('note_on', channel=1, note=36, velocity=0, time=53),
    Message('note_on', channel=1, note=38, velocity=66, time=0),
    Message('note_on', channel=1, note=41, velocity=87, time=67),
    Message('note_on', channel=1, note=38, velocity=0, time=3),
    Message('note_on', channel=1, note=41, velocity=0, time=251),
    Message('note_on', channel=1, note=41, velocity=87, time=69),
    Message('note_on', channel=1, note=41, velocity=0, time=31),
    Message('note_on', channel=1, note=38, velocity=85, time=32),
    Message('note_on', channel=1, note=38, velocity=0, time=272),
    Message('note_on', channel=1, note=38, velocity=64, time=49),
    Message('note_on', channel=1, note=38, velocity=0, time=21),
    Message('note_on', channel=1, note=38, velocity=82, time=46),
    Message('note_on', channel=1, note=38, velocity=0, time=279),
    Message('note_on', channel=1, note=38, velocity=89, time=25),
    Message('note_on', channel=1, note=38, velocity=0, time=31),
    Message('note_on', channel=1, note=43, velocity=80, time=53),
    Message('note_on', channel=1, note=43, velocity=0, time=256),
    Message('note_on', channel=1, note=43, velocity=87, time=56),
    Message('note_on', channel=1, note=43, velocity=0, time=20),
    Message('note_on', channel=1, note=43, velocity=93, time=50),
    Message('note_on', channel=1, note=38, velocity=85, time=258),
    Message('note_on', channel=1, note=43, velocity=0, time=3),
    Message('note_on', channel=1, note=38, velocity=0, time=51),
    Message('note_on', channel=1, note=40, velocity=95, time=5),
    Message('note_on', channel=1, note=40, velocity=0, time=35),
    Message('note_on', channel=1, note=40, velocity=80, time=34),
    Message('note_on', channel=1, note=40, velocity=0, time=256),
    Message('note_on', channel=1, note=40, velocity=87, time=56),
    Message('note_on', channel=1, note=40, velocity=0, time=20),
    Message('note_on', channel=1, note=40, velocity=93, time=50),
    Message('note_on', channel=1, note=35, velocity=85, time=258),
    Message('note_on', channel=1, note=40, velocity=0, time=3),
    Message('note_on', channel=1, note=35, velocity=0, time=51),
    Message('note_on', channel=1, note=36, velocity=95, time=5),
    Message('note_on', channel=1, note=36, velocity=0, time=35),
    Message('note_on', channel=1, note=33, velocity=89, time=30),
    Message('note_on', channel=1, note=33, velocity=0, time=280),
    Message('note_on', channel=1, note=33, velocity=78, time=37),
    Message('note_on', channel=1, note=33, velocity=0, time=26),
    Message('note_on', channel=1, note=33, velocity=95, time=40),
    Message('note_on', channel=1, note=33, velocity=0, time=229),
    Message('note_on', channel=1, note=33, velocity=52, time=33),
    Message('note_on', channel=1, note=33, velocity=0, time=23),
    Message('note_on', channel=1, note=33, velocity=91, time=33),
    Message('note_on', channel=1, note=33, velocity=0, time=32),
    Message('note_on', channel=1, note=38, velocity=85, time=31),
    Message('note_on', channel=1, note=38, velocity=0, time=272),
    Message('note_on', channel=1, note=38, velocity=64, time=49),
    Message('note_on', channel=1, note=38, velocity=0, time=21),
    Message('note_on', channel=1, note=38, velocity=82, time=46),
    Message('note_on', channel=1, note=38, velocity=0, time=279),
    Message('note_on', channel=1, note=38, velocity=89, time=25),
    Message('note_on', channel=1, note=38, velocity=0, time=31),
    Message('note_on', channel=1, note=43, velocity=85, time=45),
    Message('note_on', channel=1, note=43, velocity=0, time=272),
    Message('note_on', channel=1, note=43, velocity=64, time=49),
    Message('note_on', channel=1, note=43, velocity=0, time=21),
    Message('note_on', channel=1, note=43, velocity=82, time=46),
    Message('note_on', channel=1, note=43, velocity=0, time=279),
    Message('note_on', channel=1, note=43, velocity=89, time=25),
    Message('note_on', channel=1, note=43, velocity=0, time=31),
    Message('note_on', channel=1, note=41, velocity=85, time=45),
    Message('note_on', channel=1, note=41, velocity=0, time=272),
    Message('note_on', channel=1, note=41, velocity=64, time=49),
    Message('note_on', channel=1, note=41, velocity=0, time=21),
    Message('note_on', channel=1, note=41, velocity=82, time=46),
    Message('note_on', channel=1, note=41, velocity=0, time=279),
    Message('note_on', channel=1, note=41, velocity=89, time=25),
    Message('note_on', channel=1, note=41, velocity=0, time=31),
    Message('note_on', channel=1, note=36, velocity=68, time=46),
    Message('note_on', channel=1, note=36, velocity=0, time=261),
    Message('note_on', channel=1, note=36, velocity=70, time=61),
    Message('note_on', channel=1, note=36, velocity=0, time=24),
    Message('note_on', channel=1, note=36, velocity=82, time=40),
    Message('note_on', channel=1, note=36, velocity=0, time=229),
    Message('note_on', channel=1, note=31, velocity=62, time=30),
    Message('note_on', channel=1, note=31, velocity=0, time=18),
    Message('note_on', channel=1, note=33, velocity=85, time=35),
    Message('note_on', channel=1, note=33, velocity=0, time=69),
    Message('note_on', channel=1, note=36, velocity=85, time=0),
    Message('note_on', channel=1, note=36, velocity=0, time=283),
    Message('note_on', channel=1, note=36, velocity=85, time=48),
    Message('note_on', channel=1, note=36, velocity=0, time=19),
    Message('note_on', channel=1, note=36, velocity=87, time=48),
    Message('note_on', channel=1, note=36, velocity=0, time=285),
    MetaMessage('end_of_track', time=0)]),
  MidiTrack([
    MetaMessage('midi_port', port=1, time=0),
    MetaMessage('track_name', name='drums1              ', time=0),
    Message('control_change', channel=9, control=7, value=100, time=0),
    Message('note_on', channel=9, note=35, velocity=127, time=1536),
    Message('note_on', channel=9, note=42, velocity=127, time=0),
    Message('note_on', channel=9, note=35, velocity=0, time=64),
    Message('note_on', channel=9, note=42, velocity=0, time=0),
    Message('note_on', channel=9, note=42, velocity=127, time=0),
    Message('note_on', channel=9, note=42, velocity=0, time=64),
    Message('note_on', channel=9, note=42, velocity=127, time=0),
    Message('note_on', channel=9, note=42, velocity=0, time=64),
    Message('note_on', channel=9, note=42, velocity=127, time=0),
    Message('note_on', channel=9, note=37, velocity=127, time=0),
    Message('note_on', channel=9, note=42, velocity=0, time=64),
    Message('note_on', channel=9, note=37, velocity=0, time=0),
    Message('note_on', channel=9, note=42, velocity=127, time=0),
    Message('note_on', channel=9, note=42, velocity=0, time=64),
    Message('note_on', channel=9, note=35, velocity=127, time=0),
    Message('note_on', channel=9, note=42, velocity=127, time=0),
    Message('note_on', channel=9, note=35, velocity=0, time=64),
    Message('note_on', channel=9, note=42, velocity=0, time=0),
    Message('note_on', channel=9, note=35, velocity=127, time=0),
    Message('note_on', channel=9, note=42, velocity=127, time=0),
    Message('note_on', channel=9, note=35, velocity=0, time=64),
    Message('note_on', channel=9, note=42, velocity=0, time=0),
    Message('note_on', channel=9, note=42, velocity=127, time=0),
    Message('note_on', channel=9, note=42, velocity=0, time=64),
    Message('note_on', channel=9, note=42, velocity=127, time=0),
    Message('note_on', channel=9, note=42, velocity=0, time=64),
    Message('note_on', channel=9, note=42, velocity=127, time=0),
    Message('note_on', channel=9, note=37, velocity=127, time=0),
    Message('note_on', channel=9, note=42, velocity=0, time=64),
    Message('note_on', channel=9, note=37, velocity=0, time=0),
    Message('note_on', channel=9, note=42, velocity=127, time=0),
    Message('note_on', channel=9, note=42, velocity=0, time=64),
    Message('note_on', channel=9, note=42, velocity=127, time=0),
    Message('note_on', channel=9, note=42, velocity=0, time=64),
    Message('note_on', channel=9, note=35, velocity=127, time=0),
    Message('note_on', channel=9, note=42, velocity=127, time=0),
    Message('note_on', channel=9, note=35, velocity=0, time=64),
    Message('note_on', channel=9, note=42, velocity=0, time=0),
    Message('note_on', channel=9, note=42, velocity=127, time=0),
    Message('note_on', channel=9, note=42, velocity=0, time=64),
    Message('note_on', channel=9, note=42, velocity=127, time=0),
    Message('note_on', channel=9, note=42, velocity=0, time=64),
    Message('note_on', channel=9, note=42, velocity=127, time=0),
    Message('note_on', channel=9, note=37, velocity=127, time=0),
    Message('note_on', channel=9, note=42, velocity=0, time=64),
    Message('note_on', channel=9, note=37, velocity=0, time=0),
    Message('note_on', channel=9, note=42, velocity=127, time=0),
    Message('note_on', channel=9, note=42, velocity=0, time=64),
    Message('note_on', channel=9, note=35, velocity=127, time=0),
    Message('note_on', channel=9, note=42, velocity=127, time=0),
    Message('note_on', channel=9, note=35, velocity=0, time=64),
    Message('note_on', channel=9, note=42, velocity=0, time=0),
    Message('note_on', channel=9, note=35, velocity=127, time=0),
    Message('note_on', channel=9, note=42, velocity=127, time=0),
    Message('note_on', channel=9, note=35, velocity=0, time=64),
    Message('note_on', channel=9, note=42, velocity=0, time=0),
    Message('note_on', channel=9, note=42, velocity=127, time=0),
    Message('note_on', channel=9, note=42, velocity=0, time=64),
    Message('note_on', channel=9, note=42, velocity=127, time=0),
    Message('note_on', channel=9, note=42, velocity=0, time=64),
    Message('note_on', channel=9, note=42, velocity=127, time=0),
    Message('note_on', channel=9, note=37, velocity=127, time=0),
    Message('note_on', channel=9, note=42, velocity=0, time=64),
    Message('note_on', channel=9, note=37, velocity=0, time=0),
    Message('note_on', channel=9, note=42, velocity=127, time=0),
    Message('note_on', channel=9, note=42, velocity=0, time=64),
    Message('note_on', channel=9, note=42, velocity=127, time=0),
    Message('note_on', channel=9, note=42, velocity=0, time=64),
    Message('note_on', channel=9, note=35, velocity=127, time=0),
    Message('note_on', channel=9, note=42, velocity=127, time=0),
    Message('note_on', channel=9, note=35, velocity=0, time=64),
    Message('note_on', channel=9, note=42, velocity=0, time=0),
    Message('note_on', channel=9, note=42, velocity=127, time=0),
    Message('note_on', channel=9, note=42, velocity=0, time=64),
    Message('note_on', channel=9, note=42, velocity=127, time=0),
    Message('note_on', channel=9, note=42, velocity=0, time=64),
    Message('note_on', channel=9, note=42, velocity=127, time=0),
    Message('note_on', channel=9, note=37, velocity=127, time=0),
    Message('note_on', channel=9, note=42, velocity=0, time=64),
    Message('note_on', channel=9, note=37, velocity=0, time=0),
    Message('note_on', channel=9, note=42, velocity=127, time=0),
    Message('note_on', channel=9, note=42, velocity=0, time=64),
    Message('note_on', channel=9, note=35, velocity=127, time=0),
    Message('note_on', channel=9, note=42, velocity=127, time=0),
    Message('note_on', channel=9, note=35, velocity=0, time=64),
    Message('note_on', channel=9, note=42, velocity=0, time=0),
    Message('note_on', channel=9, note=35, velocity=127, time=0),
    Message('note_on', channel=9, note=42, velocity=127, time=0),
    Message('note_on', channel=9, note=35, velocity=0, time=64),
    Message('note_on', channel=9, note=42, velocity=0, time=0),
    Message('note_on', channel=9, note=42, velocity=127, time=0),
    Message('note_on', channel=9, note=42, velocity=0, time=64),
    Message('note_on', channel=9, note=42, velocity=127, time=0),
    Message('note_on', channel=9, note=42, velocity=0, time=64),
    Message('note_on', channel=9, note=42, velocity=127, time=0),
    Message('note_on', channel=9, note=37, velocity=127, time=0),
    Message('note_on', channel=9, note=42, velocity=0, time=64),
    Message('note_on', channel=9, note=37, velocity=0, time=0),
    Message('note_on', channel=9, note=42, velocity=127, time=0),
    Message('note_on', channel=9, note=42, velocity=0, time=64),
    Message('note_on', channel=9, note=42, velocity=127, time=0),
    Message('note_on', channel=9, note=42, velocity=0, time=64),
    Message('note_on', channel=9, note=35, velocity=127, time=0),
    Message('note_on', channel=9, note=42, velocity=127, time=0),
    Message('note_on', channel=9, note=51, velocity=127, time=0),
    Message('note_on', channel=9, note=35, velocity=0, time=64),
    Message('note_on', channel=9, note=42, velocity=0, time=0),
    Message('note_on', channel=9, note=51, velocity=0, time=0),
    Message('note_on', channel=9, note=42, velocity=127, time=0),
    Message('note_on', channel=9, note=42, velocity=0, time=64),
    Message('note_on', channel=9, note=42, velocity=127, time=0),
    Message('note_on', channel=9, note=42, velocity=0, time=64),
    Message('note_on', channel=9, note=42, velocity=127, time=0),
    Message('note_on', channel=9, note=37, velocity=127, time=0),
    Message('note_on', channel=9, note=51, velocity=127, time=0),
    Message('note_on', channel=9, note=42, velocity=0, time=64),
    Message('note_on', channel=9, note=37, velocity=0, time=0),
    Message('note_on', channel=9, note=51, velocity=0, time=0),
    Message('note_on', channel=9, note=42, velocity=127, time=0),
    Message('note_on', channel=9, note=42, velocity=0, time=64),
    Message('note_on', channel=9, note=35, velocity=127, time=0),
    Message('note_on', channel=9, note=42, velocity=127, time=0),
    Message('note_on', channel=9, note=35, velocity=0, time=64),
    Message('note_on', channel=9, note=42, velocity=0, time=0),
    Message('note_on', channel=9, note=35, velocity=127, time=0),
    Message('note_on', channel=9, note=42, velocity=127, time=0),
    Message('note_on', channel=9, note=35, velocity=0, time=64),
    Message('note_on', channel=9, note=42, velocity=0, time=0),
    Message('note_on', channel=9, note=42, velocity=127, time=0),
    Message('note_on', channel=9, note=42, velocity=0, time=64),
    Message('note_on', channel=9, note=38, velocity=127, time=0),
    Message('note_on', channel=9, note=42, velocity=127, time=0),
    Message('note_on', channel=9, note=38, velocity=0, time=64),
    Message('note_on', channel=9, note=42, velocity=0, time=0),
    Message('note_on', channel=9, note=38, velocity=127, time=0),
    Message('note_on', channel=9, note=42, velocity=127, time=0),
    Message('note_on', channel=9, note=37, velocity=127, time=0),
    Message('note_on', channel=9, note=38, velocity=0, time=64),
    Message('note_on', channel=9, note=42, velocity=0, time=0),
    Message('note_on', channel=9, note=37, velocity=0, time=0),
    Message('note_on', channel=9, note=42, velocity=127, time=0),
    Message('note_on', channel=9, note=42, velocity=0, time=64),
    Message('note_on', channel=9, note=38, velocity=127, time=0),
    Message('note_on', channel=9, note=42, velocity=127, time=0),
    Message('note_on', channel=9, note=38, velocity=0, time=64),
    Message('note_on', channel=9, note=42, velocity=0, time=0),
    Message('note_on', channel=9, note=35, velocity=127, time=0),
    Message('note_on', channel=9, note=42, velocity=127, time=0),
    Message('note_on', channel=9, note=35, velocity=0, time=64),
    Message('note_on', channel=9, note=42, velocity=0, time=0),
    Message('note_on', channel=9, note=42, velocity=127, time=0),
    Message('note_on', channel=9, note=42, velocity=0, time=64),
    Message('note_on', channel=9, note=42, velocity=127, time=0),
    Message('note_on', channel=9, note=42, velocity=0, time=64),
    Message('note_on', channel=9, note=42, velocity=127, time=0),
    Message('note_on', channel=9, note=37, velocity=127, time=0),
    Message('note_on', channel=9, note=42, velocity=0, time=64),
    Message('note_on', channel=9, note=37, velocity=0, time=0),
    Message('note_on', channel=9, note=42, velocity=127, time=0),
    Message('note_on', channel=9, note=42, velocity=0, time=64),
    Message('note_on', channel=9, note=35, velocity=127, time=0),
    Message('note_on', channel=9, note=42, velocity=127, time=0),
    Message('note_on', channel=9, note=35, velocity=0, time=64),
    Message('note_on', channel=9, note=42, velocity=0, time=0),
    Message('note_on', channel=9, note=35, velocity=127, time=0),
    Message('note_on', channel=9, note=42, velocity=127, time=0),
    Message('note_on', channel=9, note=35, velocity=0, time=64),
    Message('note_on', channel=9, note=42, velocity=0, time=0),
    Message('note_on', channel=9, note=42, velocity=127, time=0),
    Message('note_on', channel=9, note=42, velocity=0, time=64),
    Message('note_on', channel=9, note=42, velocity=127, time=0),
    Message('note_on', channel=9, note=42, velocity=0, time=64),
    Message('note_on', channel=9, note=42, velocity=127, time=0),
    Message('note_on', channel=9, note=37, velocity=127, time=0),
    Message('note_on', channel=9, note=42, velocity=0, time=64),
    Message('note_on', channel=9, note=37, velocity=0, time=0),
    Message('note_on', channel=9, note=42, velocity=127, time=0),
    Message('note_on', channel=9, note=42, velocity=0, time=64),
    Message('note_on', channel=9, note=42, velocity=127, time=0),
    Message('note_on', channel=9, note=42, velocity=0, time=64),
    Message('note_on', channel=9, note=35, velocity=127, time=0),
    Message('note_on', channel=9, note=42, velocity=127, time=0),
    Message('note_on', channel=9, note=35, velocity=0, time=64),
    Message('note_on', channel=9, note=42, velocity=0, time=0),
    Message('note_on', channel=9, note=42, velocity=127, time=0),
    Message('note_on', channel=9, note=42, velocity=0, time=64),
    Message('note_on', channel=9, note=42, velocity=127, time=0),
    Message('note_on', channel=9, note=42, velocity=0, time=64),
    Message('note_on', channel=9, note=42, velocity=127, time=0),
    Message('note_on', channel=9, note=37, velocity=127, time=0),
    Message('note_on', channel=9, note=42, velocity=0, time=64),
    Message('note_on', channel=9, note=37, velocity=0, time=0),
    Message('note_on', channel=9, note=42, velocity=127, time=0),
    Message('note_on', channel=9, note=42, velocity=0, time=64),
    Message('note_on', channel=9, note=35, velocity=127, time=0),
    Message('note_on', channel=9, note=42, velocity=127, time=0),
    Message('note_on', channel=9, note=35, velocity=0, time=64),
    Message('note_on', channel=9, note=42, velocity=0, time=0),
    Message('note_on', channel=9, note=35, velocity=127, time=0),
    Message('note_on', channel=9, note=42, velocity=127, time=0),
    Message('note_on', channel=9, note=35, velocity=0, time=64),
    Message('note_on', channel=9, note=42, velocity=0, time=0),
    Message('note_on', channel=9, note=42, velocity=127, time=0),
    Message('note_on', channel=9, note=42, velocity=0, time=64),
    Message('note_on', channel=9, note=42, velocity=127, time=0),
    Message('note_on', channel=9, note=42, velocity=0, time=64),
    Message('note_on', channel=9, note=42, velocity=127, time=0),
    Message('note_on', channel=9, note=37, velocity=127, time=0),
    Message('note_on', channel=9, note=42, velocity=0, time=64),
    Message('note_on', channel=9, note=37, velocity=0, time=0),
    Message('note_on', channel=9, note=42, velocity=127, time=0),
    Message('note_on', channel=9, note=42, velocity=0, time=64),
    Message('note_on', channel=9, note=42, velocity=127, time=0),
    Message('note_on', channel=9, note=42, velocity=0, time=64),
    Message('note_on', channel=9, note=35, velocity=127, time=0),
    Message('note_on', channel=9, note=42, velocity=127, time=0),
    Message('note_on', channel=9, note=35, velocity=0, time=64),
    Message('note_on', channel=9, note=42, velocity=0, time=0),
    Message('note_on', channel=9, note=42, velocity=127, time=0),
    Message('note_on', channel=9, note=42, velocity=0, time=64),
    Message('note_on', channel=9, note=42, velocity=127, time=0),
    Message('note_on', channel=9, note=42, velocity=0, time=64),
    Message('note_on', channel=9, note=42, velocity=127, time=0),
    Message('note_on', channel=9, note=37, velocity=127, time=0),
    Message('note_on', channel=9, note=42, velocity=0, time=64),
    Message('note_on', channel=9, note=37, velocity=0, time=0),
    Message('note_on', channel=9, note=42, velocity=127, time=0),
    Message('note_on', channel=9, note=42, velocity=0, time=64),
    Message('note_on', channel=9, note=35, velocity=127, time=0),
    Message('note_on', channel=9, note=42, velocity=127, time=0),
    Message('note_on', channel=9, note=35, velocity=0, time=64),
    Message('note_on', channel=9, note=42, velocity=0, time=0),
    Message('note_on', channel=9, note=35, velocity=127, time=0),
    Message('note_on', channel=9, note=42, velocity=127, time=0),
    Message('note_on', channel=9, note=35, velocity=0, time=64),
    Message('note_on', channel=9, note=42, velocity=0, time=0),
    Message('note_on', channel=9, note=42, velocity=127, time=0),
    Message('note_on', channel=9, note=42, velocity=0, time=64),
    Message('note_on', channel=9, note=42, velocity=127, time=0),
    Message('note_on', channel=9, note=42, velocity=0, time=64),
    Message('note_on', channel=9, note=42, velocity=127, time=0),
    Message('note_on', channel=9, note=37, velocity=127, time=0),
    Message('note_on', channel=9, note=42, velocity=0, time=64),
    Message('note_on', channel=9, note=37, velocity=0, time=0),
    Message('note_on', channel=9, note=42, velocity=127, time=0),
    Message('note_on', channel=9, note=42, velocity=0, time=64),
    Message('note_on', channel=9, note=42, velocity=127, time=0),
    Message('note_on', channel=9, note=42, velocity=0, time=64),
    Message('note_on', channel=9, note=35, velocity=127, time=0),
    Message('note_on', channel=9, note=42, velocity=127, time=0),
    Message('note_on', channel=9, note=35, velocity=0, time=64),
    Message('note_on', channel=9, note=42, velocity=0, time=0),
    Message('note_on', channel=9, note=42, velocity=127, time=0),
    Message('note_on', channel=9, note=42, velocity=0, time=64),
    Message('note_on', channel=9, note=42, velocity=127, time=0),
    Message('note_on', channel=9, note=42, velocity=0, time=64),
    Message('note_on', channel=9, note=42, velocity=127, time=0),
    Message('note_on', channel=9, note=37, velocity=127, time=0),
    Message('note_on', channel=9, note=42, velocity=0, time=64),
    Message('note_on', channel=9, note=37, velocity=0, time=0),
    Message('note_on', channel=9, note=42, velocity=127, time=0),
    Message('note_on', channel=9, note=42, velocity=0, time=64),
    Message('note_on', channel=9, note=35, velocity=127, time=0),
    Message('note_on', channel=9, note=42, velocity=127, time=0),
    Message('note_on', channel=9, note=35, velocity=0, time=64),
    Message('note_on', channel=9, note=42, velocity=0, time=0),
    Message('note_on', channel=9, note=35, velocity=127, time=0),
    Message('note_on', channel=9, note=42, velocity=127, time=0),
    Message('note_on', channel=9, note=35, velocity=0, time=64),
    Message('note_on', channel=9, note=42, velocity=0, time=0),
    Message('note_on', channel=9, note=42, velocity=127, time=0),
    Message('note_on', channel=9, note=42, velocity=0, time=64),
    Message('note_on', channel=9, note=42, velocity=127, time=0),
    Message('note_on', channel=9, note=42, velocity=0, time=64),
    Message('note_on', channel=9, note=42, velocity=127, time=0),
    Message('note_on', channel=9, note=37, velocity=127, time=0),
    Message('note_on', channel=9, note=42, velocity=0, time=64),
    Message('note_on', channel=9, note=37, velocity=0, time=0),
    Message('note_on', channel=9, note=42, velocity=127, time=0),
    Message('note_on', channel=9, note=42, velocity=0, time=64),
    Message('note_on', channel=9, note=42, velocity=127, time=0),
    Message('note_on', channel=9, note=42, velocity=0, time=64),
    Message('note_on', channel=9, note=35, velocity=127, time=0),
    Message('note_on', channel=9, note=42, velocity=127, time=0),
    Message('note_on', channel=9, note=35, velocity=0, time=64),
    Message('note_on', channel=9, note=42, velocity=0, time=0),
    Message('note_on', channel=9, note=42, velocity=127, time=0),
    Message('note_on', channel=9, note=42, velocity=0, time=64),
    Message('note_on', channel=9, note=42, velocity=127, time=0),
    Message('note_on', channel=9, note=42, velocity=0, time=64),
    Message('note_on', channel=9, note=42, velocity=127, time=0),
    Message('note_on', channel=9, note=37, velocity=127, time=0),
    Message('note_on', channel=9, note=42, velocity=0, time=64),
    Message('note_on', channel=9, note=37, velocity=0, time=0),
    Message('note_on', channel=9, note=42, velocity=127, time=0),
    Message('note_on', channel=9, note=42, velocity=0, time=64),
    Message('note_on', channel=9, note=35, velocity=127, time=0),
    Message('note_on', channel=9, note=42, velocity=127, time=0),
    Message('note_on', channel=9, note=35, velocity=0, time=64),
    Message('note_on', channel=9, note=42, velocity=0, time=0),
    Message('note_on', channel=9, note=35, velocity=127, time=0),
    Message('note_on', channel=9, note=42, velocity=127, time=0),
    Message('note_on', channel=9, note=35, velocity=0, time=64),
    Message('note_on', channel=9, note=42, velocity=0, time=0),
    Message('note_on', channel=9, note=42, velocity=127, time=0),
    Message('note_on', channel=9, note=42, velocity=0, time=64),
    Message('note_on', channel=9, note=42, velocity=127, time=0),
    Message('note_on', channel=9, note=42, velocity=0, time=64),
    Message('note_on', channel=9, note=42, velocity=127, time=0),
    Message('note_on', channel=9, note=37, velocity=127, time=0),
    Message('note_on', channel=9, note=42, velocity=0, time=64),
    Message('note_on', channel=9, note=37, velocity=0, time=0),
    Message('note_on', channel=9, note=42, velocity=127, time=0),
    Message('note_on', channel=9, note=42, velocity=0, time=64),
    Message('note_on', channel=9, note=42, velocity=127, time=0),
    Message('note_on', channel=9, note=42, velocity=0, time=64),
    Message('note_on', channel=9, note=35, velocity=127, time=0),
    Message('note_on', channel=9, note=42, velocity=127, time=0),
    Message('note_on', channel=9, note=35, velocity=0, time=64),
    Message('note_on', channel=9, note=42, velocity=0, time=0),
    Message('note_on', channel=9, note=42, velocity=127, time=0),
    Message('note_on', channel=9, note=42, velocity=0, time=64),
    Message('note_on', channel=9, note=42, velocity=127, time=0),
    Message('note_on', channel=9, note=42, velocity=0, time=64),
    Message('note_on', channel=9, note=42, velocity=127, time=0),
    Message('note_on', channel=9, note=37, velocity=127, time=0),
    Message('note_on', channel=9, note=42, velocity=0, time=64),
    Message('note_on', channel=9, note=37, velocity=0, time=0),
    Message('note_on', channel=9, note=42, velocity=127, time=0),
    Message('note_on', channel=9, note=42, velocity=0, time=64),
    Message('note_on', channel=9, note=35, velocity=127, time=0),
    Message('note_on', channel=9, note=42, velocity=127, time=0),
    Message('note_on', channel=9, note=35, velocity=0, time=64),
    Message('note_on', channel=9, note=42, velocity=0, time=0),
    Message('note_on', channel=9, note=35, velocity=127, time=0),
    Message('note_on', channel=9, note=42, velocity=127, time=0),
    Message('note_on', channel=9, note=35, velocity=0, time=64),
    Message('note_on', channel=9, note=42, velocity=0, time=0),
    Message('note_on', channel=9, note=42, velocity=127, time=0),
    Message('note_on', channel=9, note=42, velocity=0, time=64),
    Message('note_on', channel=9, note=42, velocity=127, time=0),
    Message('note_on', channel=9, note=42, velocity=0, time=64),
    Message('note_on', channel=9, note=42, velocity=127, time=0),
    Message('note_on', channel=9, note=37, velocity=127, time=0),
    Message('note_on', channel=9, note=42, velocity=0, time=64),
    Message('note_on', channel=9, note=37, velocity=0, time=0),
    Message('note_on', channel=9, note=42, velocity=127, time=0),
    Message('note_on', channel=9, note=42, velocity=0, time=64),
    Message('note_on', channel=9, note=42, velocity=127, time=0),
    Message('note_on', channel=9, note=42, velocity=0, time=64),
    Message('note_on', channel=9, note=35, velocity=127, time=0),
    Message('note_on', channel=9, note=42, velocity=127, time=0),
    Message('note_on', channel=9, note=35, velocity=0, time=64),
    Message('note_on', channel=9, note=42, velocity=0, time=0),
    Message('note_on', channel=9, note=42, velocity=127, time=0),
    Message('note_on', channel=9, note=42, velocity=0, time=64),
    Message('note_on', channel=9, note=42, velocity=127, time=0),
    Message('note_on', channel=9, note=42, velocity=0, time=64),
    Message('note_on', channel=9, note=42, velocity=127, time=0),
    Message('note_on', channel=9, note=37, velocity=127, time=0),
    Message('note_on', channel=9, note=42, velocity=0, time=64),
    Message('note_on', channel=9, note=37, velocity=0, time=0),
    Message('note_on', channel=9, note=42, velocity=127, time=0),
    Message('note_on', channel=9, note=42, velocity=0, time=64),
    Message('note_on', channel=9, note=35, velocity=127, time=0),
    Message('note_on', channel=9, note=42, velocity=127, time=0),
    Message('note_on', channel=9, note=35, velocity=0, time=64),
    Message('note_on', channel=9, note=42, velocity=0, time=0),
    Message('note_on', channel=9, note=35, velocity=127, time=0),
    Message('note_on', channel=9, note=42, velocity=127, time=0),
    Message('note_on', channel=9, note=35, velocity=0, time=64),
    Message('note_on', channel=9, note=42, velocity=0, time=0),
    Message('note_on', channel=9, note=42, velocity=127, time=0),
    Message('note_on', channel=9, note=42, velocity=0, time=64),
    Message('note_on', channel=9, note=42, velocity=127, time=0),
    Message('note_on', channel=9, note=42, velocity=0, time=64),
    Message('note_on', channel=9, note=42, velocity=127, time=0),
    Message('note_on', channel=9, note=37, velocity=127, time=0),
    Message('note_on', channel=9, note=42, velocity=0, time=64),
    Message('note_on', channel=9, note=37, velocity=0, time=0),
    Message('note_on', channel=9, note=42, velocity=127, time=0),
    Message('note_on', channel=9, note=42, velocity=0, time=64),
    Message('note_on', channel=9, note=42, velocity=127, time=0),
    Message('note_on', channel=9, note=42, velocity=0, time=64),
    Message('note_on', channel=9, note=35, velocity=127, time=0),
    Message('note_on', channel=9, note=42, velocity=127, time=0),
    Message('note_on', channel=9, note=35, velocity=0, time=64),
    Message('note_on', channel=9, note=42, velocity=0, time=0),
    Message('note_on', channel=9, note=42, velocity=127, time=0),
    Message('note_on', channel=9, note=42, velocity=0, time=64),
    Message('note_on', channel=9, note=42, velocity=127, time=0),
    Message('note_on', channel=9, note=42, velocity=0, time=64),
    Message('note_on', channel=9, note=42, velocity=127, time=0),
    Message('note_on', channel=9, note=37, velocity=127, time=0),
    Message('note_on', channel=9, note=42, velocity=0, time=64),
    Message('note_on', channel=9, note=37, velocity=0, time=0),
    Message('note_on', channel=9, note=42, velocity=127, time=0),
    Message('note_on', channel=9, note=42, velocity=0, time=64),
    Message('note_on', channel=9, note=35, velocity=127, time=0),
    Message('note_on', channel=9, note=42, velocity=127, time=0),
    Message('note_on', channel=9, note=35, velocity=0, time=64),
    Message('note_on', channel=9, note=42, velocity=0, time=0),
    Message('note_on', channel=9, note=35, velocity=127, time=0),
    Message('note_on', channel=9, note=42, velocity=127, time=0),
    Message('note_on', channel=9, note=35, velocity=0, time=64),
    Message('note_on', channel=9, note=42, velocity=0, time=0),
    Message('note_on', channel=9, note=42, velocity=127, time=0),
    Message('note_on', channel=9, note=42, velocity=0, time=64),
    Message('note_on', channel=9, note=42, velocity=127, time=0),
    Message('note_on', channel=9, note=42, velocity=0, time=64),
    Message('note_on', channel=9, note=42, velocity=127, time=0),
    Message('note_on', channel=9, note=37, velocity=127, time=0),
    Message('note_on', channel=9, note=42, velocity=0, time=64),
    Message('note_on', channel=9, note=37, velocity=0, time=0),
    Message('note_on', channel=9, note=42, velocity=127, time=0),
    Message('note_on', channel=9, note=42, velocity=0, time=64),
    Message('note_on', channel=9, note=42, velocity=127, time=0),
    Message('note_on', channel=9, note=42, velocity=0, time=64),
    Message('note_on', channel=9, note=35, velocity=127, time=0),
    Message('note_on', channel=9, note=42, velocity=127, time=0),
    Message('note_on', channel=9, note=35, velocity=0, time=64),
    Message('note_on', channel=9, note=42, velocity=0, time=0),
    Message('note_on', channel=9, note=42, velocity=127, time=0),
    Message('note_on', channel=9, note=42, velocity=0, time=64),
    Message('note_on', channel=9, note=42, velocity=127, time=0),
    Message('note_on', channel=9, note=42, velocity=0, time=64),
    Message('note_on', channel=9, note=42, velocity=127, time=0),
    Message('note_on', channel=9, note=37, velocity=127, time=0),
    Message('note_on', channel=9, note=42, velocity=0, time=64),
    Message('note_on', channel=9, note=37, velocity=0, time=0),
    Message('note_on', channel=9, note=42, velocity=127, time=0),
    Message('note_on', channel=9, note=42, velocity=0, time=64),
    Message('note_on', channel=9, note=35, velocity=127, time=0),
    Message('note_on', channel=9, note=42, velocity=127, time=0),
    Message('note_on', channel=9, note=35, velocity=0, time=64),
    Message('note_on', channel=9, note=42, velocity=0, time=0),
    Message('note_on', channel=9, note=35, velocity=127, time=0),
    Message('note_on', channel=9, note=42, velocity=127, time=0),
    Message('note_on', channel=9, note=35, velocity=0, time=64),
    Message('note_on', channel=9, note=42, velocity=0, time=0),
    Message('note_on', channel=9, note=42, velocity=127, time=0),
    Message('note_on', channel=9, note=42, velocity=0, time=64),
    Message('note_on', channel=9, note=42, velocity=127, time=0),
    Message('note_on', channel=9, note=42, velocity=0, time=64),
    Message('note_on', channel=9, note=42, velocity=127, time=0),
    Message('note_on', channel=9, note=37, velocity=127, time=0),
    Message('note_on', channel=9, note=42, velocity=0, time=64),
    Message('note_on', channel=9, note=37, velocity=0, time=0),
    Message('note_on', channel=9, note=42, velocity=127, time=0),
    Message('note_on', channel=9, note=42, velocity=0, time=64),
    Message('note_on', channel=9, note=42, velocity=127, time=0),
    Message('note_on', channel=9, note=42, velocity=0, time=64),
    Message('note_on', channel=9, note=35, velocity=127, time=0),
    Message('note_on', channel=9, note=42, velocity=127, time=0),
    Message('note_on', channel=9, note=35, velocity=0, time=64),
    Message('note_on', channel=9, note=42, velocity=0, time=0),
    Message('note_on', channel=9, note=42, velocity=127, time=0),
    Message('note_on', channel=9, note=42, velocity=0, time=64),
    Message('note_on', channel=9, note=42, velocity=127, time=0),
    Message('note_on', channel=9, note=42, velocity=0, time=64),
    Message('note_on', channel=9, note=42, velocity=127, time=0),
    Message('note_on', channel=9, note=37, velocity=127, time=0),
    Message('note_on', channel=9, note=42, velocity=0, time=64),
    Message('note_on', channel=9, note=37, velocity=0, time=0),
    Message('note_on', channel=9, note=42, velocity=127, time=0),
    Message('note_on', channel=9, note=42, velocity=0, time=64),
    Message('note_on', channel=9, note=35, velocity=127, time=0),
    Message('note_on', channel=9, note=42, velocity=127, time=0),
    Message('note_on', channel=9, note=35, velocity=0, time=64),
    Message('note_on', channel=9, note=42, velocity=0, time=0),
    Message('note_on', channel=9, note=35, velocity=127, time=0),
    Message('note_on', channel=9, note=42, velocity=127, time=0),
    Message('note_on', channel=9, note=35, velocity=0, time=64),
    Message('note_on', channel=9, note=42, velocity=0, time=0),
    Message('note_on', channel=9, note=42, velocity=127, time=0),
    Message('note_on', channel=9, note=42, velocity=0, time=64),
    Message('note_on', channel=9, note=42, velocity=127, time=0),
    Message('note_on', channel=9, note=42, velocity=0, time=64),
    Message('note_on', channel=9, note=42, velocity=127, time=0),
    Message('note_on', channel=9, note=37, velocity=127, time=0),
    Message('note_on', channel=9, note=42, velocity=0, time=64),
    Message('note_on', channel=9, note=37, velocity=0, time=0),
    Message('note_on', channel=9, note=42, velocity=127, time=0),
    Message('note_on', channel=9, note=42, velocity=0, time=64),
    Message('note_on', channel=9, note=42, velocity=127, time=0),
    Message('note_on', channel=9, note=42, velocity=0, time=64),
    Message('note_on', channel=9, note=35, velocity=127, time=0),
    Message('note_on', channel=9, note=42, velocity=127, time=0),
    Message('note_on', channel=9, note=35, velocity=0, time=64),
    Message('note_on', channel=9, note=42, velocity=0, time=0),
    Message('note_on', channel=9, note=42, velocity=127, time=0),
    Message('note_on', channel=9, note=42, velocity=0, time=64),
    Message('note_on', channel=9, note=42, velocity=127, time=0),
    Message('note_on', channel=9, note=42, velocity=0, time=64),
    Message('note_on', channel=9, note=42, velocity=127, time=0),
    Message('note_on', channel=9, note=37, velocity=127, time=0),
    Message('note_on', channel=9, note=42, velocity=0, time=64),
    Message('note_on', channel=9, note=37, velocity=0, time=0),
    Message('note_on', channel=9, note=42, velocity=127, time=0),
    Message('note_on', channel=9, note=42, velocity=0, time=64),
    Message('note_on', channel=9, note=35, velocity=127, time=0),
    Message('note_on', channel=9, note=42, velocity=127, time=0),
    Message('note_on', channel=9, note=35, velocity=0, time=64),
    Message('note_on', channel=9, note=42, velocity=0, time=0),
    Message('note_on', channel=9, note=35, velocity=127, time=0),
    Message('note_on', channel=9, note=42, velocity=127, time=0),
    Message('note_on', channel=9, note=35, velocity=0, time=64),
    Message('note_on', channel=9, note=42, velocity=0, time=0),
    Message('note_on', channel=9, note=42, velocity=127, time=0),
    Message('note_on', channel=9, note=42, velocity=0, time=64),
    Message('note_on', channel=9, note=42, velocity=127, time=0),
    Message('note_on', channel=9, note=42, velocity=0, time=64),
    Message('note_on', channel=9, note=42, velocity=127, time=0),
    Message('note_on', channel=9, note=37, velocity=127, time=0),
    Message('note_on', channel=9, note=42, velocity=0, time=64),
    Message('note_on', channel=9, note=37, velocity=0, time=0),
    Message('note_on', channel=9, note=42, velocity=127, time=0),
    Message('note_on', channel=9, note=42, velocity=0, time=64),
    Message('note_on', channel=9, note=42, velocity=127, time=0),
    Message('note_on', channel=9, note=42, velocity=0, time=64),
    Message('note_on', channel=9, note=35, velocity=127, time=0),
    Message('note_on', channel=9, note=42, velocity=127, time=0),
    Message('note_on', channel=9, note=35, velocity=0, time=64),
    Message('note_on', channel=9, note=42, velocity=0, time=0),
    Message('note_on', channel=9, note=42, velocity=127, time=0),
    Message('note_on', channel=9, note=42, velocity=0, time=64),
    Message('note_on', channel=9, note=42, velocity=127, time=0),
    Message('note_on', channel=9, note=42, velocity=0, time=64),
    Message('note_on', channel=9, note=42, velocity=127, time=0),
    Message('note_on', channel=9, note=37, velocity=127, time=0),
    Message('note_on', channel=9, note=42, velocity=0, time=64),
    Message('note_on', channel=9, note=37, velocity=0, time=0),
    Message('note_on', channel=9, note=42, velocity=127, time=0),
    Message('note_on', channel=9, note=42, velocity=0, time=64),
    Message('note_on', channel=9, note=35, velocity=127, time=0),
    Message('note_on', channel=9, note=42, velocity=127, time=0),
    Message('note_on', channel=9, note=35, velocity=0, time=64),
    Message('note_on', channel=9, note=42, velocity=0, time=0),
    Message('note_on', channel=9, note=35, velocity=127, time=0),
    Message('note_on', channel=9, note=42, velocity=127, time=0),
    Message('note_on', channel=9, note=35, velocity=0, time=64),
    Message('note_on', channel=9, note=42, velocity=0, time=0),
    Message('note_on', channel=9, note=42, velocity=127, time=0),
    Message('note_on', channel=9, note=42, velocity=0, time=64),
    Message('note_on', channel=9, note=42, velocity=127, time=0),
    Message('note_on', channel=9, note=42, velocity=0, time=64),
    Message('note_on', channel=9, note=42, velocity=127, time=0),
    Message('note_on', channel=9, note=37, velocity=127, time=0),
    Message('note_on', channel=9, note=42, velocity=0, time=64),
    Message('note_on', channel=9, note=37, velocity=0, time=0),
    Message('note_on', channel=9, note=42, velocity=127, time=0),
    Message('note_on', channel=9, note=42, velocity=0, time=64),
    Message('note_on', channel=9, note=42, velocity=127, time=0),
    Message('note_on', channel=9, note=42, velocity=0, time=64),
    Message('note_on', channel=9, note=35, velocity=127, time=0),
    Message('note_on', channel=9, note=42, velocity=127, time=0),
    Message('note_on', channel=9, note=35, velocity=0, time=64),
    Message('note_on', channel=9, note=42, velocity=0, time=0),
    Message('note_on', channel=9, note=42, velocity=127, time=0),
    Message('note_on', channel=9, note=42, velocity=0, time=64),
    Message('note_on', channel=9, note=42, velocity=127, time=0),
    Message('note_on', channel=9, note=42, velocity=0, time=64),
    Message('note_on', channel=9, note=42, velocity=127, time=0),
    Message('note_on', channel=9, note=37, velocity=127, time=0),
    Message('note_on', channel=9, note=42, velocity=0, time=64),
    Message('note_on', channel=9, note=37, velocity=0, time=0),
    Message('note_on', channel=9, note=42, velocity=127, time=0),
    Message('note_on', channel=9, note=42, velocity=0, time=64),
    Message('note_on', channel=9, note=35, velocity=127, time=0),
    Message('note_on', channel=9, note=42, velocity=127, time=0),
    Message('note_on', channel=9, note=35, velocity=0, time=64),
    Message('note_on', channel=9, note=42, velocity=0, time=0),
    Message('note_on', channel=9, note=35, velocity=127, time=0),
    Message('note_on', channel=9, note=42, velocity=127, time=0),
    Message('note_on', channel=9, note=35, velocity=0, time=64),
    Message('note_on', channel=9, note=42, velocity=0, time=0),
    Message('note_on', channel=9, note=42, velocity=127, time=0),
    Message('note_on', channel=9, note=42, velocity=0, time=64),
    Message('note_on', channel=9, note=42, velocity=127, time=0),
    Message('note_on', channel=9, note=42, velocity=0, time=64),
    Message('note_on', channel=9, note=42, velocity=127, time=0),
    Message('note_on', channel=9, note=37, velocity=127, time=0),
    Message('note_on', channel=9, note=42, velocity=0, time=64),
    Message('note_on', channel=9, note=37, velocity=0, time=0),
    Message('note_on', channel=9, note=42, velocity=127, time=0),
    Message('note_on', channel=9, note=42, velocity=0, time=64),
    Message('note_on', channel=9, note=42, velocity=127, time=0),
    Message('note_on', channel=9, note=42, velocity=0, time=64),
    Message('note_on', channel=9, note=35, velocity=127, time=0),
    Message('note_on', channel=9, note=42, velocity=127, time=0),
    Message('note_on', channel=9, note=35, velocity=0, time=64),
    Message('note_on', channel=9, note=42, velocity=0, time=0),
    Message('note_on', channel=9, note=42, velocity=127, time=0),
    Message('note_on', channel=9, note=42, velocity=0, time=64),
    Message('note_on', channel=9, note=42, velocity=127, time=0),
    Message('note_on', channel=9, note=42, velocity=0, time=64),
    Message('note_on', channel=9, note=42, velocity=127, time=0),
    Message('note_on', channel=9, note=37, velocity=127, time=0),
    Message('note_on', channel=9, note=42, velocity=0, time=64),
    Message('note_on', channel=9, note=37, velocity=0, time=0),
    Message('note_on', channel=9, note=42, velocity=127, time=0),
    Message('note_on', channel=9, note=42, velocity=0, time=64),
    Message('note_on', channel=9, note=35, velocity=127, time=0),
    Message('note_on', channel=9, note=42, velocity=127, time=0),
    Message('note_on', channel=9, note=35, velocity=0, time=64),
    Message('note_on', channel=9, note=42, velocity=0, time=0),
    Message('note_on', channel=9, note=35, velocity=127, time=0),
    Message('note_on', channel=9, note=42, velocity=127, time=0),
    Message('note_on', channel=9, note=35, velocity=0, time=64),
    Message('note_on', channel=9, note=42, velocity=0, time=0),
    Message('note_on', channel=9, note=42, velocity=127, time=0),
    Message('note_on', channel=9, note=42, velocity=0, time=64),
    Message('note_on', channel=9, note=42, velocity=127, time=0),
    Message('note_on', channel=9, note=42, velocity=0, time=64),
    Message('note_on', channel=9, note=42, velocity=127, time=0),
    Message('note_on', channel=9, note=37, velocity=127, time=0),
    Message('note_on', channel=9, note=42, velocity=0, time=64),
    Message('note_on', channel=9, note=37, velocity=0, time=0),
    Message('note_on', channel=9, note=42, velocity=127, time=0),
    Message('note_on', channel=9, note=42, velocity=0, time=64),
    Message('note_on', channel=9, note=42, velocity=127, time=0),
    Message('note_on', channel=9, note=42, velocity=0, time=64),
    Message('note_on', channel=9, note=35, velocity=127, time=0),
    Message('note_on', channel=9, note=42, velocity=127, time=0),
    Message('note_on', channel=9, note=35, velocity=0, time=64),
    Message('note_on', channel=9, note=42, velocity=0, time=0),
    Message('note_on', channel=9, note=42, velocity=127, time=0),
    Message('note_on', channel=9, note=42, velocity=0, time=64),
    Message('note_on', channel=9, note=42, velocity=127, time=0),
    Message('note_on', channel=9, note=42, velocity=0, time=64),
    Message('note_on', channel=9, note=42, velocity=127, time=0),
    Message('note_on', channel=9, note=37, velocity=127, time=0),
    Message('note_on', channel=9, note=42, velocity=0, time=64),
    Message('note_on', channel=9, note=37, velocity=0, time=0),
    Message('note_on', channel=9, note=42, velocity=127, time=0),
    Message('note_on', channel=9, note=42, velocity=0, time=64),
    Message('note_on', channel=9, note=35, velocity=127, time=0),
    Message('note_on', channel=9, note=42, velocity=127, time=0),
    Message('note_on', channel=9, note=35, velocity=0, time=64),
    Message('note_on', channel=9, note=42, velocity=0, time=0),
    Message('note_on', channel=9, note=35, velocity=127, time=0),
    Message('note_on', channel=9, note=42, velocity=127, time=0),
    Message('note_on', channel=9, note=35, velocity=0, time=64),
    Message('note_on', channel=9, note=42, velocity=0, time=0),
    Message('note_on', channel=9, note=42, velocity=127, time=0),
    Message('note_on', channel=9, note=42, velocity=0, time=64),
    Message('note_on', channel=9, note=42, velocity=127, time=0),
    Message('note_on', channel=9, note=42, velocity=0, time=64),
    Message('note_on', channel=9, note=42, velocity=127, time=0),
    Message('note_on', channel=9, note=37, velocity=127, time=0),
    Message('note_on', channel=9, note=42, velocity=0, time=64),
    Message('note_on', channel=9, note=37, velocity=0, time=0),
    Message('note_on', channel=9, note=42, velocity=127, time=0),
    Message('note_on', channel=9, note=42, velocity=0, time=64),
    Message('note_on', channel=9, note=42, velocity=127, time=0),
    Message('note_on', channel=9, note=42, velocity=0, time=64),
    Message('note_on', channel=9, note=35, velocity=127, time=0),
    Message('note_on', channel=9, note=42, velocity=127, time=0),
    Message('note_on', channel=9, note=51, velocity=127, time=0),
    Message('note_on', channel=9, note=35, velocity=0, time=64),
    Message('note_on', channel=9, note=42, velocity=0, time=0),
    Message('note_on', channel=9, note=51, velocity=0, time=0),
    Message('note_on', channel=9, note=42, velocity=127, time=0),
    Message('note_on', channel=9, note=42, velocity=0, time=64),
    Message('note_on', channel=9, note=42, velocity=127, time=0),
    Message('note_on', channel=9, note=42, velocity=0, time=64),
    Message('note_on', channel=9, note=42, velocity=127, time=0),
    Message('note_on', channel=9, note=37, velocity=127, time=0),
    Message('note_on', channel=9, note=51, velocity=127, time=0),
    Message('note_on', channel=9, note=42, velocity=0, time=64),
    Message('note_on', channel=9, note=37, velocity=0, time=0),
    Message('note_on', channel=9, note=51, velocity=0, time=0),
    Message('note_on', channel=9, note=42, velocity=127, time=0),
    Message('note_on', channel=9, note=42, velocity=0, time=64),
    Message('note_on', channel=9, note=35, velocity=127, time=0),
    Message('note_on', channel=9, note=42, velocity=127, time=0),
    Message('note_on', channel=9, note=35, velocity=0, time=64),
    Message('note_on', channel=9, note=42, velocity=0, time=0),
    Message('note_on', channel=9, note=35, velocity=127, time=0),
    Message('note_on', channel=9, note=42, velocity=127, time=0),
    Message('note_on', channel=9, note=35, velocity=0, time=64),
    Message('note_on', channel=9, note=42, velocity=0, time=0),
    Message('note_on', channel=9, note=42, velocity=127, time=0),
    Message('note_on', channel=9, note=42, velocity=0, time=64),
    Message('note_on', channel=9, note=38, velocity=127, time=0),
    Message('note_on', channel=9, note=42, velocity=127, time=0),
    Message('note_on', channel=9, note=38, velocity=0, time=64),
    Message('note_on', channel=9, note=42, velocity=0, time=0),
    Message('note_on', channel=9, note=38, velocity=127, time=0),
    Message('note_on', channel=9, note=42, velocity=127, time=0),
    Message('note_on', channel=9, note=37, velocity=127, time=0),
    Message('note_on', channel=9, note=38, velocity=0, time=64),
    Message('note_on', channel=9, note=42, velocity=0, time=0),
    Message('note_on', channel=9, note=37, velocity=0, time=0),
    Message('note_on', channel=9, note=42, velocity=127, time=0),
    Message('note_on', channel=9, note=42, velocity=0, time=64),
    Message('note_on', channel=9, note=38, velocity=127, time=0),
    Message('note_on', channel=9, note=42, velocity=127, time=0),
    Message('note_on', channel=9, note=38, velocity=0, time=64),
    Message('note_on', channel=9, note=42, velocity=0, time=0),
    Message('note_on', channel=9, note=35, velocity=127, time=0),
    Message('note_on', channel=9, note=42, velocity=127, time=0),
    Message('note_on', channel=9, note=35, velocity=0, time=64),
    Message('note_on', channel=9, note=42, velocity=0, time=0),
    Message('note_on', channel=9, note=42, velocity=127, time=0),
    Message('note_on', channel=9, note=42, velocity=0, time=64),
    Message('note_on', channel=9, note=42, velocity=127, time=0),
    Message('note_on', channel=9, note=42, velocity=0, time=64),
    Message('note_on', channel=9, note=42, velocity=127, time=0),
    Message('note_on', channel=9, note=37, velocity=127, time=0),
    Message('note_on', channel=9, note=42, velocity=0, time=64),
    Message('note_on', channel=9, note=37, velocity=0, time=0),
    Message('note_on', channel=9, note=42, velocity=127, time=0),
    Message('note_on', channel=9, note=42, velocity=0, time=64),
    Message('note_on', channel=9, note=35, velocity=127, time=0),
    Message('note_on', channel=9, note=42, velocity=127, time=0),
    Message('note_on', channel=9, note=35, velocity=0, time=64),
    Message('note_on', channel=9, note=42, velocity=0, time=0),
    Message('note_on', channel=9, note=35, velocity=127, time=0),
    Message('note_on', channel=9, note=42, velocity=127, time=0),
    Message('note_on', channel=9, note=35, velocity=0, time=64),
    Message('note_on', channel=9, note=42, velocity=0, time=0),
    Message('note_on', channel=9, note=42, velocity=127, time=0),
    Message('note_on', channel=9, note=42, velocity=0, time=64),
    Message('note_on', channel=9, note=42, velocity=127, time=0),
    Message('note_on', channel=9, note=42, velocity=0, time=64),
    Message('note_on', channel=9, note=42, velocity=127, time=0),
    Message('note_on', channel=9, note=37, velocity=127, time=0),
    Message('note_on', channel=9, note=42, velocity=0, time=64),
    Message('note_on', channel=9, note=37, velocity=0, time=0),
    Message('note_on', channel=9, note=42, velocity=127, time=0),
    Message('note_on', channel=9, note=42, velocity=0, time=64),
    Message('note_on', channel=9, note=42, velocity=127, time=0),
    Message('note_on', channel=9, note=42, velocity=0, time=64),
    Message('note_on', channel=9, note=35, velocity=127, time=0),
    Message('note_on', channel=9, note=42, velocity=127, time=0),
    Message('note_on', channel=9, note=35, velocity=0, time=64),
    Message('note_on', channel=9, note=42, velocity=0, time=0),
    Message('note_on', channel=9, note=42, velocity=127, time=0),
    Message('note_on', channel=9, note=42, velocity=0, time=64),
    Message('note_on', channel=9, note=42, velocity=127, time=0),
    Message('note_on', channel=9, note=42, velocity=0, time=64),
    Message('note_on', channel=9, note=42, velocity=127, time=0),
    Message('note_on', channel=9, note=37, velocity=127, time=0),
    Message('note_on', channel=9, note=42, velocity=0, time=64),
    Message('note_on', channel=9, note=37, velocity=0, time=0),
    Message('note_on', channel=9, note=42, velocity=127, time=0),
    Message('note_on', channel=9, note=42, velocity=0, time=64),
    Message('note_on', channel=9, note=35, velocity=127, time=0),
    Message('note_on', channel=9, note=42, velocity=127, time=0),
    Message('note_on', channel=9, note=35, velocity=0, time=64),
    Message('note_on', channel=9, note=42, velocity=0, time=0),
    Message('note_on', channel=9, note=35, velocity=127, time=0),
    Message('note_on', channel=9, note=42, velocity=127, time=0),
    Message('note_on', channel=9, note=35, velocity=0, time=64),
    Message('note_on', channel=9, note=42, velocity=0, time=0),
    Message('note_on', channel=9, note=42, velocity=127, time=0),
    Message('note_on', channel=9, note=42, velocity=0, time=64),
    Message('note_on', channel=9, note=42, velocity=127, time=0),
    Message('note_on', channel=9, note=42, velocity=0, time=64),
    Message('note_on', channel=9, note=42, velocity=127, time=0),
    Message('note_on', channel=9, note=37, velocity=127, time=0),
    Message('note_on', channel=9, note=42, velocity=0, time=64),
    Message('note_on', channel=9, note=37, velocity=0, time=0),
    Message('note_on', channel=9, note=42, velocity=127, time=0),
    Message('note_on', channel=9, note=42, velocity=0, time=64),
    Message('note_on', channel=9, note=42, velocity=127, time=0),
    Message('note_on', channel=9, note=42, velocity=0, time=64),
    Message('note_on', channel=9, note=35, velocity=127, time=0),
    Message('note_on', channel=9, note=42, velocity=127, time=0),
    Message('note_on', channel=9, note=35, velocity=0, time=64),
    Message('note_on', channel=9, note=42, velocity=0, time=0),
    Message('note_on', channel=9, note=42, velocity=127, time=0),
    Message('note_on', channel=9, note=42, velocity=0, time=64),
    Message('note_on', channel=9, note=42, velocity=127, time=0),
    Message('note_on', channel=9, note=42, velocity=0, time=64),
    Message('note_on', channel=9, note=42, velocity=127, time=0),
    Message('note_on', channel=9, note=37, velocity=127, time=0),
    Message('note_on', channel=9, note=42, velocity=0, time=64),
    Message('note_on', channel=9, note=37, velocity=0, time=0),
    Message('note_on', channel=9, note=42, velocity=127, time=0),
    Message('note_on', channel=9, note=42, velocity=0, time=64),
    Message('note_on', channel=9, note=35, velocity=127, time=0),
    Message('note_on', channel=9, note=42, velocity=127, time=0),
    Message('note_on', channel=9, note=35, velocity=0, time=64),
    Message('note_on', channel=9, note=42, velocity=0, time=0),
    Message('note_on', channel=9, note=35, velocity=127, time=0),
    Message('note_on', channel=9, note=42, velocity=127, time=0),
    Message('note_on', channel=9, note=35, velocity=0, time=64),
    Message('note_on', channel=9, note=42, velocity=0, time=0),
    Message('note_on', channel=9, note=42, velocity=127, time=0),
    Message('note_on', channel=9, note=42, velocity=0, time=64),
    Message('note_on', channel=9, note=42, velocity=127, time=0),
    Message('note_on', channel=9, note=42, velocity=0, time=64),
    Message('note_on', channel=9, note=42, velocity=127, time=0),
    Message('note_on', channel=9, note=37, velocity=127, time=0),
    Message('note_on', channel=9, note=42, velocity=0, time=64),
    Message('note_on', channel=9, note=37, velocity=0, time=0),
    Message('note_on', channel=9, note=42, velocity=127, time=0),
    Message('note_on', channel=9, note=42, velocity=0, time=64),
    Message('note_on', channel=9, note=42, velocity=127, time=0),
    Message('note_on', channel=9, note=42, velocity=0, time=64),
    Message('note_on', channel=9, note=35, velocity=127, time=0),
    Message('note_on', channel=9, note=42, velocity=127, time=0),
    Message('note_on', channel=9, note=35, velocity=0, time=64),
    Message('note_on', channel=9, note=42, velocity=0, time=0),
    Message('note_on', channel=9, note=42, velocity=127, time=0),
    Message('note_on', channel=9, note=42, velocity=0, time=64),
    Message('note_on', channel=9, note=42, velocity=127, time=0),
    Message('note_on', channel=9, note=42, velocity=0, time=64),
    Message('note_on', channel=9, note=42, velocity=127, time=0),
    Message('note_on', channel=9, note=37, velocity=127, time=0),
    Message('note_on', channel=9, note=42, velocity=0, time=64),
    Message('note_on', channel=9, note=37, velocity=0, time=0),
    Message('note_on', channel=9, note=42, velocity=127, time=0),
    Message('note_on', channel=9, note=42, velocity=0, time=64),
    Message('note_on', channel=9, note=35, velocity=127, time=0),
    Message('note_on', channel=9, note=42, velocity=127, time=0),
    Message('note_on', channel=9, note=35, velocity=0, time=64),
    Message('note_on', channel=9, note=42, velocity=0, time=0),
    Message('note_on', channel=9, note=35, velocity=127, time=0),
    Message('note_on', channel=9, note=42, velocity=127, time=0),
    Message('note_on', channel=9, note=35, velocity=0, time=64),
    Message('note_on', channel=9, note=42, velocity=0, time=0),
    Message('note_on', channel=9, note=42, velocity=127, time=0),
    Message('note_on', channel=9, note=42, velocity=0, time=64),
    Message('note_on', channel=9, note=42, velocity=127, time=0),
    Message('note_on', channel=9, note=42, velocity=0, time=64),
    Message('note_on', channel=9, note=42, velocity=127, time=0),
    Message('note_on', channel=9, note=37, velocity=127, time=0),
    Message('note_on', channel=9, note=42, velocity=0, time=64),
    Message('note_on', channel=9, note=37, velocity=0, time=0),
    Message('note_on', channel=9, note=42, velocity=127, time=0),
    Message('note_on', channel=9, note=42, velocity=0, time=64),
    Message('note_on', channel=9, note=42, velocity=127, time=0),
    Message('note_on', channel=9, note=42, velocity=0, time=64),
    Message('note_on', channel=9, note=35, velocity=127, time=0),
    Message('note_on', channel=9, note=42, velocity=127, time=0),
    Message('note_on', channel=9, note=35, velocity=0, time=64),
    Message('note_on', channel=9, note=42, velocity=0, time=0),
    Message('note_on', channel=9, note=42, velocity=127, time=0),
    Message('note_on', channel=9, note=42, velocity=0, time=64),
    Message('note_on', channel=9, note=42, velocity=127, time=0),
    Message('note_on', channel=9, note=42, velocity=0, time=64),
    Message('note_on', channel=9, note=42, velocity=127, time=0),
    Message('note_on', channel=9, note=37, velocity=127, time=0),
    Message('note_on', channel=9, note=42, velocity=0, time=64),
    Message('note_on', channel=9, note=37, velocity=0, time=0),
    Message('note_on', channel=9, note=42, velocity=127, time=0),
    Message('note_on', channel=9, note=42, velocity=0, time=64),
    Message('note_on', channel=9, note=35, velocity=127, time=0),
    Message('note_on', channel=9, note=42, velocity=127, time=0),
    Message('note_on', channel=9, note=35, velocity=0, time=64),
    Message('note_on', channel=9, note=42, velocity=0, time=0),
    Message('note_on', channel=9, note=35, velocity=127, time=0),
    Message('note_on', channel=9, note=42, velocity=127, time=0),
    Message('note_on', channel=9, note=35, velocity=0, time=64),
    Message('note_on', channel=9, note=42, velocity=0, time=0),
    Message('note_on', channel=9, note=42, velocity=127, time=0),
    Message('note_on', channel=9, note=42, velocity=0, time=64),
    Message('note_on', channel=9, note=42, velocity=127, time=0),
    Message('note_on', channel=9, note=42, velocity=0, time=64),
    Message('note_on', channel=9, note=42, velocity=127, time=0),
    Message('note_on', channel=9, note=37, velocity=127, time=0),
    Message('note_on', channel=9, note=42, velocity=0, time=64),
    Message('note_on', channel=9, note=37, velocity=0, time=0),
    Message('note_on', channel=9, note=42, velocity=127, time=0),
    Message('note_on', channel=9, note=42, velocity=0, time=64),
    Message('note_on', channel=9, note=42, velocity=127, time=0),
    Message('note_on', channel=9, note=42, velocity=0, time=64),
    Message('note_on', channel=9, note=35, velocity=127, time=0),
    Message('note_on', channel=9, note=42, velocity=127, time=0),
    Message('note_on', channel=9, note=35, velocity=0, time=64),
    Message('note_on', channel=9, note=42, velocity=0, time=0),
    Message('note_on', channel=9, note=42, velocity=127, time=0),
    Message('note_on', channel=9, note=42, velocity=0, time=64),
    Message('note_on', channel=9, note=42, velocity=127, time=0),
    Message('note_on', channel=9, note=42, velocity=0, time=64),
    Message('note_on', channel=9, note=42, velocity=127, time=0),
    Message('note_on', channel=9, note=37, velocity=127, time=0),
    Message('note_on', channel=9, note=42, velocity=0, time=64),
    Message('note_on', channel=9, note=37, velocity=0, time=0),
    Message('note_on', channel=9, note=42, velocity=127, time=0),
    Message('note_on', channel=9, note=42, velocity=0, time=64),
    Message('note_on', channel=9, note=35, velocity=127, time=0),
    Message('note_on', channel=9, note=42, velocity=127, time=0),
    Message('note_on', channel=9, note=35, velocity=0, time=64),
    Message('note_on', channel=9, note=42, velocity=0, time=0),
    Message('note_on', channel=9, note=35, velocity=127, time=0),
    Message('note_on', channel=9, note=42, velocity=127, time=0),
    Message('note_on', channel=9, note=35, velocity=0, time=64),
    Message('note_on', channel=9, note=42, velocity=0, time=0),
    Message('note_on', channel=9, note=42, velocity=127, time=0),
    Message('note_on', channel=9, note=42, velocity=0, time=64),
    Message('note_on', channel=9, note=42, velocity=127, time=0),
    Message('note_on', channel=9, note=42, velocity=0, time=64),
    Message('note_on', channel=9, note=42, velocity=127, time=0),
    Message('note_on', channel=9, note=37, velocity=127, time=0),
    Message('note_on', channel=9, note=42, velocity=0, time=64),
    Message('note_on', channel=9, note=37, velocity=0, time=0),
    Message('note_on', channel=9, note=42, velocity=127, time=0),
    Message('note_on', channel=9, note=42, velocity=0, time=64),
    Message('note_on', channel=9, note=42, velocity=127, time=0),
    Message('note_on', channel=9, note=42, velocity=0, time=64),
    Message('note_on', channel=9, note=35, velocity=127, time=0),
    Message('note_on', channel=9, note=42, velocity=127, time=0),
    Message('note_on', channel=9, note=35, velocity=0, time=64),
    Message('note_on', channel=9, note=42, velocity=0, time=0),
    Message('note_on', channel=9, note=42, velocity=127, time=0),
    Message('note_on', channel=9, note=42, velocity=0, time=64),
    Message('note_on', channel=9, note=42, velocity=127, time=0),
    Message('note_on', channel=9, note=42, velocity=0, time=64),
    Message('note_on', channel=9, note=42, velocity=127, time=0),
    Message('note_on', channel=9, note=37, velocity=127, time=0),
    Message('note_on', channel=9, note=42, velocity=0, time=64),
    Message('note_on', channel=9, note=37, velocity=0, time=0),
    Message('note_on', channel=9, note=42, velocity=127, time=0),
    Message('note_on', channel=9, note=42, velocity=0, time=64),
    Message('note_on', channel=9, note=35, velocity=127, time=0),
    Message('note_on', channel=9, note=42, velocity=127, time=0),
    Message('note_on', channel=9, note=35, velocity=0, time=64),
    Message('note_on', channel=9, note=42, velocity=0, time=0),
    Message('note_on', channel=9, note=35, velocity=127, time=0),
    Message('note_on', channel=9, note=42, velocity=127, time=0),
    Message('note_on', channel=9, note=35, velocity=0, time=64),
    Message('note_on', channel=9, note=42, velocity=0, time=0),
    Message('note_on', channel=9, note=42, velocity=127, time=0),
    Message('note_on', channel=9, note=42, velocity=0, time=64),
    Message('note_on', channel=9, note=42, velocity=127, time=0),
    Message('note_on', channel=9, note=42, velocity=0, time=64),
    Message('note_on', channel=9, note=42, velocity=127, time=0),
    Message('note_on', channel=9, note=37, velocity=127, time=0),
    Message('note_on', channel=9, note=42, velocity=0, time=64),
    Message('note_on', channel=9, note=37, velocity=0, time=0),
    Message('note_on', channel=9, note=42, velocity=127, time=0),
    Message('note_on', channel=9, note=42, velocity=0, time=64),
    Message('note_on', channel=9, note=42, velocity=127, time=0),
    Message('note_on', channel=9, note=42, velocity=0, time=64),
    Message('note_on', channel=9, note=35, velocity=127, time=0),
    Message('note_on', channel=9, note=42, velocity=127, time=0),
    Message('note_on', channel=9, note=35, velocity=0, time=64),
    Message('note_on', channel=9, note=42, velocity=0, time=0),
    Message('note_on', channel=9, note=42, velocity=127, time=0),
    Message('note_on', channel=9, note=42, velocity=0, time=64),
    Message('note_on', channel=9, note=42, velocity=127, time=0),
    Message('note_on', channel=9, note=42, velocity=0, time=64),
    Message('note_on', channel=9, note=42, velocity=127, time=0),
    Message('note_on', channel=9, note=37, velocity=127, time=0),
    Message('note_on', channel=9, note=42, velocity=0, time=64),
    Message('note_on', channel=9, note=37, velocity=0, time=0),
    Message('note_on', channel=9, note=42, velocity=127, time=0),
    Message('note_on', channel=9, note=42, velocity=0, time=64),
    Message('note_on', channel=9, note=35, velocity=127, time=0),
    Message('note_on', channel=9, note=42, velocity=127, time=0),
    Message('note_on', channel=9, note=35, velocity=0, time=64),
    Message('note_on', channel=9, note=42, velocity=0, time=0),
    Message('note_on', channel=9, note=35, velocity=127, time=0),
    Message('note_on', channel=9, note=42, velocity=127, time=0),
    Message('note_on', channel=9, note=35, velocity=0, time=64),
    Message('note_on', channel=9, note=42, velocity=0, time=0),
    Message('note_on', channel=9, note=42, velocity=127, time=0),
    Message('note_on', channel=9, note=42, velocity=0, time=64),
    Message('note_on', channel=9, note=42, velocity=127, time=0),
    Message('note_on', channel=9, note=42, velocity=0, time=64),
    Message('note_on', channel=9, note=42, velocity=127, time=0),
    Message('note_on', channel=9, note=37, velocity=127, time=0),
    Message('note_on', channel=9, note=42, velocity=0, time=64),
    Message('note_on', channel=9, note=37, velocity=0, time=0),
    Message('note_on', channel=9, note=42, velocity=127, time=0),
    Message('note_on', channel=9, note=42, velocity=0, time=64),
    Message('note_on', channel=9, note=42, velocity=127, time=0),
    Message('note_on', channel=9, note=42, velocity=0, time=64),
    Message('note_on', channel=9, note=35, velocity=127, time=0),
    Message('note_on', channel=9, note=42, velocity=127, time=0),
    Message('note_on', channel=9, note=35, velocity=0, time=64),
    Message('note_on', channel=9, note=42, velocity=0, time=0),
    Message('note_on', channel=9, note=42, velocity=127, time=0),
    Message('note_on', channel=9, note=42, velocity=0, time=64),
    Message('note_on', channel=9, note=42, velocity=127, time=0),
    Message('note_on', channel=9, note=42, velocity=0, time=64),
    Message('note_on', channel=9, note=42, velocity=127, time=0),
    Message('note_on', channel=9, note=37, velocity=127, time=0),
    Message('note_on', channel=9, note=42, velocity=0, time=64),
    Message('note_on', channel=9, note=37, velocity=0, time=0),
    Message('note_on', channel=9, note=42, velocity=127, time=0),
    Message('note_on', channel=9, note=42, velocity=0, time=64),
    Message('note_on', channel=9, note=35, velocity=127, time=0),
    Message('note_on', channel=9, note=42, velocity=127, time=0),
    Message('note_on', channel=9, note=35, velocity=0, time=64),
    Message('note_on', channel=9, note=42, velocity=0, time=0),
    Message('note_on', channel=9, note=35, velocity=127, time=0),
    Message('note_on', channel=9, note=42, velocity=127, time=0),
    Message('note_on', channel=9, note=35, velocity=0, time=64),
    Message('note_on', channel=9, note=42, velocity=0, time=0),
    Message('note_on', channel=9, note=42, velocity=127, time=0),
    Message('note_on', channel=9, note=42, velocity=0, time=64),
    Message('note_on', channel=9, note=42, velocity=127, time=0),
    Message('note_on', channel=9, note=42, velocity=0, time=64),
    Message('note_on', channel=9, note=42, velocity=127, time=0),
    Message('note_on', channel=9, note=37, velocity=127, time=0),
    Message('note_on', channel=9, note=42, velocity=0, time=64),
    Message('note_on', channel=9, note=37, velocity=0, time=0),
    Message('note_on', channel=9, note=42, velocity=127, time=0),
    Message('note_on', channel=9, note=42, velocity=0, time=64),
    Message('note_on', channel=9, note=42, velocity=127, time=0),
    Message('note_on', channel=9, note=42, velocity=0, time=64),
    Message('note_on', channel=9, note=35, velocity=127, time=0),
    Message('note_on', channel=9, note=42, velocity=127, time=0),
    Message('note_on', channel=9, note=35, velocity=0, time=64),
    Message('note_on', channel=9, note=42, velocity=0, time=0),
    Message('note_on', channel=9, note=42, velocity=127, time=0),
    Message('note_on', channel=9, note=42, velocity=0, time=64),
    Message('note_on', channel=9, note=42, velocity=127, time=0),
    Message('note_on', channel=9, note=42, velocity=0, time=64),
    Message('note_on', channel=9, note=42, velocity=127, time=0),
    Message('note_on', channel=9, note=37, velocity=127, time=0),
    Message('note_on', channel=9, note=42, velocity=0, time=64),
    Message('note_on', channel=9, note=37, velocity=0, time=0),
    Message('note_on', channel=9, note=42, velocity=127, time=0),
    Message('note_on', channel=9, note=42, velocity=0, time=64),
    Message('note_on', channel=9, note=35, velocity=127, time=0),
    Message('note_on', channel=9, note=42, velocity=127, time=0),
    Message('note_on', channel=9, note=35, velocity=0, time=64),
    Message('note_on', channel=9, note=42, velocity=0, time=0),
    Message('note_on', channel=9, note=35, velocity=127, time=0),
    Message('note_on', channel=9, note=42, velocity=127, time=0),
    Message('note_on', channel=9, note=35, velocity=0, time=64),
    Message('note_on', channel=9, note=42, velocity=0, time=0),
    Message('note_on', channel=9, note=42, velocity=127, time=0),
    Message('note_on', channel=9, note=42, velocity=0, time=64),
    Message('note_on', channel=9, note=42, velocity=127, time=0),
    Message('note_on', channel=9, note=42, velocity=0, time=64),
    Message('note_on', channel=9, note=42, velocity=127, time=0),
    Message('note_on', channel=9, note=37, velocity=127, time=0),
    Message('note_on', channel=9, note=42, velocity=0, time=64),
    Message('note_on', channel=9, note=37, velocity=0, time=0),
    Message('note_on', channel=9, note=42, velocity=127, time=0),
    Message('note_on', channel=9, note=42, velocity=0, time=64),
    Message('note_on', channel=9, note=42, velocity=127, time=0),
    Message('note_on', channel=9, note=42, velocity=0, time=64),
    Message('note_on', channel=9, note=35, velocity=127, time=0),
    Message('note_on', channel=9, note=42, velocity=127, time=0),
    Message('note_on', channel=9, note=35, velocity=0, time=64),
    Message('note_on', channel=9, note=42, velocity=0, time=0),
    Message('note_on', channel=9, note=42, velocity=127, time=0),
    Message('note_on', channel=9, note=42, velocity=0, time=64),
    Message('note_on', channel=9, note=42, velocity=127, time=0),
    Message('note_on', channel=9, note=42, velocity=0, time=64),
    Message('note_on', channel=9, note=42, velocity=127, time=0),
    Message('note_on', channel=9, note=37, velocity=127, time=0),
    Message('note_on', channel=9, note=42, velocity=0, time=64),
    Message('note_on', channel=9, note=37, velocity=0, time=0),
    Message('note_on', channel=9, note=42, velocity=127, time=0),
    Message('note_on', channel=9, note=42, velocity=0, time=64),
    Message('note_on', channel=9, note=35, velocity=127, time=0),
    Message('note_on', channel=9, note=42, velocity=127, time=0),
    Message('note_on', channel=9, note=35, velocity=0, time=64),
    Message('note_on', channel=9, note=42, velocity=0, time=0),
    Message('note_on', channel=9, note=35, velocity=127, time=0),
    Message('note_on', channel=9, note=42, velocity=127, time=0),
    Message('note_on', channel=9, note=35, velocity=0, time=64),
    Message('note_on', channel=9, note=42, velocity=0, time=0),
    Message('note_on', channel=9, note=42, velocity=127, time=0),
    Message('note_on', channel=9, note=42, velocity=0, time=64),
    Message('note_on', channel=9, note=42, velocity=127, time=0),
    Message('note_on', channel=9, note=42, velocity=0, time=64),
    Message('note_on', channel=9, note=42, velocity=127, time=0),
    Message('note_on', channel=9, note=37, velocity=127, time=0),
    Message('note_on', channel=9, note=42, velocity=0, time=64),
    Message('note_on', channel=9, note=37, velocity=0, time=0),
    Message('note_on', channel=9, note=42, velocity=127, time=0),
    Message('note_on', channel=9, note=42, velocity=0, time=64),
    Message('note_on', channel=9, note=42, velocity=127, time=0),
    Message('note_on', channel=9, note=42, velocity=0, time=64),
    Message('note_on', channel=9, note=35, velocity=127, time=0),
    Message('note_on', channel=9, note=42, velocity=127, time=0),
    Message('note_on', channel=9, note=35, velocity=0, time=64),
    Message('note_on', channel=9, note=42, velocity=0, time=0),
    Message('note_on', channel=9, note=42, velocity=127, time=0),
    Message('note_on', channel=9, note=42, velocity=0, time=64),
    Message('note_on', channel=9, note=42, velocity=127, time=0),
    Message('note_on', channel=9, note=42, velocity=0, time=64),
    Message('note_on', channel=9, note=42, velocity=127, time=0),
    Message('note_on', channel=9, note=37, velocity=127, time=0),
    Message('note_on', channel=9, note=42, velocity=0, time=64),
    Message('note_on', channel=9, note=37, velocity=0, time=0),
    Message('note_on', channel=9, note=42, velocity=127, time=0),
    Message('note_on', channel=9, note=42, velocity=0, time=64),
    Message('note_on', channel=9, note=35, velocity=127, time=0),
    Message('note_on', channel=9, note=42, velocity=127, time=0),
    Message('note_on', channel=9, note=35, velocity=0, time=64),
    Message('note_on', channel=9, note=42, velocity=0, time=0),
    Message('note_on', channel=9, note=35, velocity=127, time=0),
    Message('note_on', channel=9, note=42, velocity=127, time=0),
    Message('note_on', channel=9, note=35, velocity=0, time=64),
    Message('note_on', channel=9, note=42, velocity=0, time=0),
    Message('note_on', channel=9, note=42, velocity=127, time=0),
    Message('note_on', channel=9, note=42, velocity=0, time=64),
    Message('note_on', channel=9, note=42, velocity=127, time=0),
    Message('note_on', channel=9, note=42, velocity=0, time=64),
    Message('note_on', channel=9, note=42, velocity=127, time=0),
    Message('note_on', channel=9, note=37, velocity=127, time=0),
    Message('note_on', channel=9, note=42, velocity=0, time=64),
    Message('note_on', channel=9, note=37, velocity=0, time=0),
    Message('note_on', channel=9, note=42, velocity=127, time=0),
    Message('note_on', channel=9, note=42, velocity=0, time=64),
    Message('note_on', channel=9, note=42, velocity=127, time=0),
    Message('note_on', channel=9, note=42, velocity=0, time=64),
    Message('note_on', channel=9, note=35, velocity=127, time=0),
    Message('note_on', channel=9, note=42, velocity=127, time=0),
    Message('note_on', channel=9, note=35, velocity=0, time=64),
    Message('note_on', channel=9, note=42, velocity=0, time=0),
    Message('note_on', channel=9, note=42, velocity=127, time=0),
    Message('note_on', channel=9, note=42, velocity=0, time=64),
    Message('note_on', channel=9, note=42, velocity=127, time=0),
    Message('note_on', channel=9, note=42, velocity=0, time=64),
    Message('note_on', channel=9, note=42, velocity=127, time=0),
    Message('note_on', channel=9, note=37, velocity=127, time=0),
    Message('note_on', channel=9, note=42, velocity=0, time=64),
    Message('note_on', channel=9, note=37, velocity=0, time=0),
    Message('note_on', channel=9, note=42, velocity=127, time=0),
    Message('note_on', channel=9, note=42, velocity=0, time=64),
    Message('note_on', channel=9, note=35, velocity=127, time=0),
    Message('note_on', channel=9, note=42, velocity=127, time=0),
    Message('note_on', channel=9, note=35, velocity=0, time=64),
    Message('note_on', channel=9, note=42, velocity=0, time=0),
    Message('note_on', channel=9, note=35, velocity=127, time=0),
    Message('note_on', channel=9, note=42, velocity=127, time=0),
    Message('note_on', channel=9, note=35, velocity=0, time=64),
    Message('note_on', channel=9, note=42, velocity=0, time=0),
    Message('note_on', channel=9, note=42, velocity=127, time=0),
    Message('note_on', channel=9, note=42, velocity=0, time=64),
    Message('note_on', channel=9, note=42, velocity=127, time=0),
    Message('note_on', channel=9, note=42, velocity=0, time=64),
    Message('note_on', channel=9, note=42, velocity=127, time=0),
    Message('note_on', channel=9, note=37, velocity=127, time=0),
    Message('note_on', channel=9, note=42, velocity=0, time=64),
    Message('note_on', channel=9, note=37, velocity=0, time=0),
    Message('note_on', channel=9, note=42, velocity=127, time=0),
    Message('note_on', channel=9, note=42, velocity=0, time=64),
    Message('note_on', channel=9, note=42, velocity=127, time=0),
    Message('note_on', channel=9, note=42, velocity=0, time=64),
    Message('note_on', channel=9, note=35, velocity=127, time=0),
    Message('note_on', channel=9, note=42, velocity=127, time=0),
    Message('note_on', channel=9, note=35, velocity=0, time=64),
    Message('note_on', channel=9, note=42, velocity=0, time=0),
    Message('note_on', channel=9, note=42, velocity=127, time=0),
    Message('note_on', channel=9, note=42, velocity=0, time=64),
    Message('note_on', channel=9, note=42, velocity=127, time=0),
    Message('note_on', channel=9, note=42, velocity=0, time=64),
    Message('note_on', channel=9, note=42, velocity=127, time=0),
    Message('note_on', channel=9, note=37, velocity=127, time=0),
    Message('note_on', channel=9, note=42, velocity=0, time=64),
    Message('note_on', channel=9, note=37, velocity=0, time=0),
    Message('note_on', channel=9, note=42, velocity=127, time=0),
    Message('note_on', channel=9, note=42, velocity=0, time=64),
    Message('note_on', channel=9, note=35, velocity=127, time=0),
    Message('note_on', channel=9, note=42, velocity=127, time=0),
    Message('note_on', channel=9, note=35, velocity=0, time=64),
    Message('note_on', channel=9, note=42, velocity=0, time=0),
    Message('note_on', channel=9, note=35, velocity=127, time=0),
    Message('note_on', channel=9, note=42, velocity=127, time=0),
    Message('note_on', channel=9, note=35, velocity=0, time=64),
    Message('note_on', channel=9, note=42, velocity=0, time=0),
    Message('note_on', channel=9, note=42, velocity=127, time=0),
    Message('note_on', channel=9, note=42, velocity=0, time=64),
    Message('note_on', channel=9, note=42, velocity=127, time=0),
    Message('note_on', channel=9, note=42, velocity=0, time=64),
    Message('note_on', channel=9, note=42, velocity=127, time=0),
    Message('note_on', channel=9, note=37, velocity=127, time=0),
    Message('note_on', channel=9, note=42, velocity=0, time=64),
    Message('note_on', channel=9, note=37, velocity=0, time=0),
    Message('note_on', channel=9, note=42, velocity=127, time=0),
    Message('note_on', channel=9, note=42, velocity=0, time=64),
    Message('note_on', channel=9, note=42, velocity=127, time=0),
    Message('note_on', channel=9, note=42, velocity=0, time=64),
    Message('note_on', channel=9, note=35, velocity=127, time=0),
    Message('note_on', channel=9, note=42, velocity=127, time=0),
    Message('note_on', channel=9, note=35, velocity=0, time=64),
    Message('note_on', channel=9, note=42, velocity=0, time=0),
    Message('note_on', channel=9, note=42, velocity=127, time=0),
    Message('note_on', channel=9, note=42, velocity=0, time=64),
    Message('note_on', channel=9, note=42, velocity=127, time=0),
    Message('note_on', channel=9, note=42, velocity=0, time=64),
    Message('note_on', channel=9, note=42, velocity=127, time=0),
    Message('note_on', channel=9, note=37, velocity=127, time=0),
    Message('note_on', channel=9, note=42, velocity=0, time=64),
    Message('note_on', channel=9, note=37, velocity=0, time=0),
    Message('note_on', channel=9, note=42, velocity=127, time=0),
    Message('note_on', channel=9, note=42, velocity=0, time=64),
    Message('note_on', channel=9, note=35, velocity=127, time=0),
    Message('note_on', channel=9, note=42, velocity=127, time=0),
    Message('note_on', channel=9, note=35, velocity=0, time=64),
    Message('note_on', channel=9, note=42, velocity=0, time=0),
    Message('note_on', channel=9, note=35, velocity=127, time=0),
    Message('note_on', channel=9, note=42, velocity=127, time=0),
    Message('note_on', channel=9, note=35, velocity=0, time=64),
    Message('note_on', channel=9, note=42, velocity=0, time=0),
    Message('note_on', channel=9, note=42, velocity=127, time=0),
    Message('note_on', channel=9, note=42, velocity=0, time=64),
    Message('note_on', channel=9, note=42, velocity=127, time=0),
    Message('note_on', channel=9, note=42, velocity=0, time=64),
    Message('note_on', channel=9, note=42, velocity=127, time=0),
    Message('note_on', channel=9, note=37, velocity=127, time=0),
    Message('note_on', channel=9, note=42, velocity=0, time=64),
    Message('note_on', channel=9, note=37, velocity=0, time=0),
    Message('note_on', channel=9, note=42, velocity=127, time=0),
    Message('note_on', channel=9, note=42, velocity=0, time=64),
    Message('note_on', channel=9, note=42, velocity=127, time=0),
    Message('note_on', channel=9, note=42, velocity=0, time=64),
    Message('note_on', channel=9, note=35, velocity=127, time=0),
    Message('note_on', channel=9, note=42, velocity=127, time=0),
    Message('note_on', channel=9, note=51, velocity=127, time=0),
    Message('note_on', channel=9, note=35, velocity=0, time=64),
    Message('note_on', channel=9, note=42, velocity=0, time=0),
    Message('note_on', channel=9, note=51, velocity=0, time=0),
    Message('note_on', channel=9, note=42, velocity=127, time=0),
    Message('note_on', channel=9, note=42, velocity=0, time=64),
    Message('note_on', channel=9, note=42, velocity=127, time=0),
    Message('note_on', channel=9, note=42, velocity=0, time=64),
    Message('note_on', channel=9, note=42, velocity=127, time=0),
    Message('note_on', channel=9, note=37, velocity=127, time=0),
    Message('note_on', channel=9, note=51, velocity=127, time=0),
    Message('note_on', channel=9, note=42, velocity=0, time=64),
    Message('note_on', channel=9, note=37, velocity=0, time=0),
    Message('note_on', channel=9, note=51, velocity=0, time=0),
    Message('note_on', channel=9, note=42, velocity=127, time=0),
    Message('note_on', channel=9, note=42, velocity=0, time=64),
    Message('note_on', channel=9, note=35, velocity=127, time=0),
    Message('note_on', channel=9, note=42, velocity=127, time=0),
    Message('note_on', channel=9, note=35, velocity=0, time=64),
    Message('note_on', channel=9, note=42, velocity=0, time=0),
    Message('note_on', channel=9, note=35, velocity=127, time=0),
    Message('note_on', channel=9, note=42, velocity=127, time=0),
    Message('note_on', channel=9, note=35, velocity=0, time=64),
    Message('note_on', channel=9, note=42, velocity=0, time=0),
    Message('note_on', channel=9, note=42, velocity=127, time=0),
    Message('note_on', channel=9, note=42, velocity=0, time=64),
    Message('note_on', channel=9, note=38, velocity=127, time=0),
    Message('note_on', channel=9, note=42, velocity=127, time=0),
    Message('note_on', channel=9, note=38, velocity=0, time=64),
    Message('note_on', channel=9, note=42, velocity=0, time=0),
    Message('note_on', channel=9, note=38, velocity=127, time=0),
    Message('note_on', channel=9, note=42, velocity=127, time=0),
    Message('note_on', channel=9, note=37, velocity=127, time=0),
    Message('note_on', channel=9, note=38, velocity=0, time=64),
    Message('note_on', channel=9, note=42, velocity=0, time=0),
    Message('note_on', channel=9, note=37, velocity=0, time=0),
    Message('note_on', channel=9, note=42, velocity=127, time=0),
    Message('note_on', channel=9, note=42, velocity=0, time=64),
    Message('note_on', channel=9, note=38, velocity=127, time=0),
    Message('note_on', channel=9, note=42, velocity=127, time=0),
    Message('note_on', channel=9, note=38, velocity=0, time=64),
    Message('note_on', channel=9, note=42, velocity=0, time=0),
    Message('note_on', channel=9, note=35, velocity=127, time=0),
    Message('note_on', channel=9, note=51, velocity=127, time=0),
    Message('note_on', channel=9, note=35, velocity=0, time=64),
    Message('note_on', channel=9, note=51, velocity=0, time=0),
    Message('note_on', channel=9, note=51, velocity=127, time=0),
    Message('note_on', channel=9, note=51, velocity=0, time=64),
    Message('note_on', channel=9, note=51, velocity=127, time=0),
    Message('note_on', channel=9, note=51, velocity=0, time=64),
    Message('note_on', channel=9, note=38, velocity=127, time=0),
    Message('note_on', channel=9, note=51, velocity=127, time=0),
    Message('note_on', channel=9, note=38, velocity=0, time=64),
    Message('note_on', channel=9, note=51, velocity=0, time=0),
    Message('note_on', channel=9, note=51, velocity=127, time=0),
    Message('note_on', channel=9, note=51, velocity=0, time=64),
    Message('note_on', channel=9, note=35, velocity=127, time=0),
    Message('note_on', channel=9, note=51, velocity=127, time=0),
    Message('note_on', channel=9, note=35, velocity=0, time=64),
    Message('note_on', channel=9, note=51, velocity=0, time=0),
    Message('note_on', channel=9, note=35, velocity=127, time=0),
    Message('note_on', channel=9, note=51, velocity=127, time=0),
    Message('note_on', channel=9, note=35, velocity=0, time=64),
    Message('note_on', channel=9, note=51, velocity=0, time=0),
    Message('note_on', channel=9, note=51, velocity=127, time=0),
    Message('note_on', channel=9, note=51, velocity=0, time=64),
    Message('note_on', channel=9, note=51, velocity=127, time=0),
    Message('note_on', channel=9, note=51, velocity=0, time=64),
    Message('note_on', channel=9, note=38, velocity=127, time=0),
    Message('note_on', channel=9, note=51, velocity=127, time=0),
    Message('note_on', channel=9, note=38, velocity=0, time=64),
    Message('note_on', channel=9, note=51, velocity=0, time=0),
    Message('note_on', channel=9, note=51, velocity=127, time=0),
    Message('note_on', channel=9, note=51, velocity=0, time=64),
    Message('note_on', channel=9, note=51, velocity=127, time=0),
    Message('note_on', channel=9, note=51, velocity=0, time=64),
    Message('note_on', channel=9, note=35, velocity=127, time=0),
    Message('note_on', channel=9, note=51, velocity=127, time=0),
    Message('note_on', channel=9, note=35, velocity=0, time=64),
    Message('note_on', channel=9, note=51, velocity=0, time=0),
    Message('note_on', channel=9, note=51, velocity=127, time=0),
    Message('note_on', channel=9, note=51, velocity=0, time=64),
    Message('note_on', channel=9, note=51, velocity=127, time=0),
    Message('note_on', channel=9, note=51, velocity=0, time=64),
    Message('note_on', channel=9, note=38, velocity=127, time=0),
    Message('note_on', channel=9, note=51, velocity=127, time=0),
    Message('note_on', channel=9, note=38, velocity=0, time=64),
    Message('note_on', channel=9, note=51, velocity=0, time=0),
    Message('note_on', channel=9, note=51, velocity=127, time=0),
    Message('note_on', channel=9, note=51, velocity=0, time=64),
    Message('note_on', channel=9, note=35, velocity=127, time=0),
    Message('note_on', channel=9, note=51, velocity=127, time=0),
    Message('note_on', channel=9, note=35, velocity=0, time=64),
    Message('note_on', channel=9, note=51, velocity=0, time=0),
    Message('note_on', channel=9, note=35, velocity=127, time=0),
    Message('note_on', channel=9, note=51, velocity=127, time=0),
    Message('note_on', channel=9, note=35, velocity=0, time=64),
    Message('note_on', channel=9, note=51, velocity=0, time=0),
    Message('note_on', channel=9, note=51, velocity=127, time=0),
    Message('note_on', channel=9, note=51, velocity=0, time=64),
    Message('note_on', channel=9, note=51, velocity=127, time=0),
    Message('note_on', channel=9, note=51, velocity=0, time=64),
    Message('note_on', channel=9, note=38, velocity=127, time=0),
    Message('note_on', channel=9, note=51, velocity=127, time=0),
    Message('note_on', channel=9, note=38, velocity=0, time=64),
    Message('note_on', channel=9, note=51, velocity=0, time=0),
    Message('note_on', channel=9, note=51, velocity=127, time=0),
    Message('note_on', channel=9, note=51, velocity=0, time=64),
    Message('note_on', channel=9, note=51, velocity=127, time=0),
    Message('note_on', channel=9, note=51, velocity=0, time=64),
    Message('note_on', channel=9, note=35, velocity=127, time=0),
    Message('note_on', channel=9, note=51, velocity=127, time=0),
    Message('note_on', channel=9, note=35, velocity=0, time=64),
    Message('note_on', channel=9, note=51, velocity=0, time=0),
    Message('note_on', channel=9, note=51, velocity=127, time=0),
    Message('note_on', channel=9, note=51, velocity=0, time=64),
    Message('note_on', channel=9, note=51, velocity=127, time=0),
    Message('note_on', channel=9, note=51, velocity=0, time=64),
    Message('note_on', channel=9, note=38, velocity=127, time=0),
    Message('note_on', channel=9, note=51, velocity=127, time=0),
    Message('note_on', channel=9, note=38, velocity=0, time=64),
    Message('note_on', channel=9, note=51, velocity=0, time=0),
    Message('note_on', channel=9, note=51, velocity=127, time=0),
    Message('note_on', channel=9, note=51, velocity=0, time=64),
    Message('note_on', channel=9, note=35, velocity=127, time=0),
    Message('note_on', channel=9, note=51, velocity=127, time=0),
    Message('note_on', channel=9, note=35, velocity=0, time=64),
    Message('note_on', channel=9, note=51, velocity=0, time=0),
    Message('note_on', channel=9, note=35, velocity=127, time=0),
    Message('note_on', channel=9, note=51, velocity=127, time=0),
    Message('note_on', channel=9, note=35, velocity=0, time=64),
    Message('note_on', channel=9, note=51, velocity=0, time=0),
    Message('note_on', channel=9, note=51, velocity=127, time=0),
    Message('note_on', channel=9, note=51, velocity=0, time=64),
    Message('note_on', channel=9, note=51, velocity=127, time=0),
    Message('note_on', channel=9, note=51, velocity=0, time=64),
    Message('note_on', channel=9, note=38, velocity=127, time=0),
    Message('note_on', channel=9, note=51, velocity=127, time=0),
    Message('note_on', channel=9, note=38, velocity=0, time=64),
    Message('note_on', channel=9, note=51, velocity=0, time=0),
    Message('note_on', channel=9, note=51, velocity=127, time=0),
    Message('note_on', channel=9, note=51, velocity=0, time=64),
    Message('note_on', channel=9, note=51, velocity=127, time=0),
    Message('note_on', channel=9, note=51, velocity=0, time=64),
    Message('note_on', channel=9, note=35, velocity=127, time=0),
    Message('note_on', channel=9, note=51, velocity=127, time=0),
    Message('note_on', channel=9, note=35, velocity=0, time=64),
    Message('note_on', channel=9, note=51, velocity=0, time=0),
    Message('note_on', channel=9, note=51, velocity=127, time=0),
    Message('note_on', channel=9, note=51, velocity=0, time=64),
    Message('note_on', channel=9, note=51, velocity=127, time=0),
    Message('note_on', channel=9, note=51, velocity=0, time=64),
    Message('note_on', channel=9, note=38, velocity=127, time=0),
    Message('note_on', channel=9, note=51, velocity=127, time=0),
    Message('note_on', channel=9, note=38, velocity=0, time=64),
    Message('note_on', channel=9, note=51, velocity=0, time=0),
    Message('note_on', channel=9, note=51, velocity=127, time=0),
    Message('note_on', channel=9, note=51, velocity=0, time=64),
    Message('note_on', channel=9, note=35, velocity=127, time=0),
    Message('note_on', channel=9, note=51, velocity=127, time=0),
    Message('note_on', channel=9, note=35, velocity=0, time=64),
    Message('note_on', channel=9, note=51, velocity=0, time=0),
    Message('note_on', channel=9, note=35, velocity=127, time=0),
    Message('note_on', channel=9, note=51, velocity=127, time=0),
    Message('note_on', channel=9, note=35, velocity=0, time=64),
    Message('note_on', channel=9, note=51, velocity=0, time=0),
    Message('note_on', channel=9, note=51, velocity=127, time=0),
    Message('note_on', channel=9, note=51, velocity=0, time=64),
    Message('note_on', channel=9, note=51, velocity=127, time=0),
    Message('note_on', channel=9, note=51, velocity=0, time=64),
    Message('note_on', channel=9, note=38, velocity=127, time=0),
    Message('note_on', channel=9, note=51, velocity=127, time=0),
    Message('note_on', channel=9, note=38, velocity=0, time=64),
    Message('note_on', channel=9, note=51, velocity=0, time=0),
    Message('note_on', channel=9, note=51, velocity=127, time=0),
    Message('note_on', channel=9, note=51, velocity=0, time=64),
    Message('note_on', channel=9, note=51, velocity=127, time=0),
    Message('note_on', channel=9, note=51, velocity=0, time=64),
    Message('note_on', channel=9, note=35, velocity=127, time=0),
    Message('note_on', channel=9, note=51, velocity=127, time=0),
    Message('note_on', channel=9, note=35, velocity=0, time=64),
    Message('note_on', channel=9, note=51, velocity=0, time=0),
    Message('note_on', channel=9, note=51, velocity=127, time=0),
    Message('note_on', channel=9, note=51, velocity=0, time=64),
    Message('note_on', channel=9, note=51, velocity=127, time=0),
    Message('note_on', channel=9, note=51, velocity=0, time=64),
    Message('note_on', channel=9, note=38, velocity=127, time=0),
    Message('note_on', channel=9, note=51, velocity=127, time=0),
    Message('note_on', channel=9, note=38, velocity=0, time=64),
    Message('note_on', channel=9, note=51, velocity=0, time=0),
    Message('note_on', channel=9, note=51, velocity=127, time=0),
    Message('note_on', channel=9, note=51, velocity=0, time=64),
    Message('note_on', channel=9, note=35, velocity=127, time=0),
    Message('note_on', channel=9, note=51, velocity=127, time=0),
    Message('note_on', channel=9, note=35, velocity=0, time=64),
    Message('note_on', channel=9, note=51, velocity=0, time=0),
    Message('note_on', channel=9, note=35, velocity=127, time=0),
    Message('note_on', channel=9, note=51, velocity=127, time=0),
    Message('note_on', channel=9, note=35, velocity=0, time=64),
    Message('note_on', channel=9, note=51, velocity=0, time=0),
    Message('note_on', channel=9, note=51, velocity=127, time=0),
    Message('note_on', channel=9, note=51, velocity=0, time=64),
    Message('note_on', channel=9, note=51, velocity=127, time=0),
    Message('note_on', channel=9, note=51, velocity=0, time=64),
    Message('note_on', channel=9, note=38, velocity=127, time=0),
    Message('note_on', channel=9, note=51, velocity=127, time=0),
    Message('note_on', channel=9, note=38, velocity=0, time=64),
    Message('note_on', channel=9, note=51, velocity=0, time=0),
    Message('note_on', channel=9, note=51, velocity=127, time=0),
    Message('note_on', channel=9, note=51, velocity=0, time=64),
    Message('note_on', channel=9, note=51, velocity=127, time=0),
    Message('note_on', channel=9, note=51, velocity=0, time=64),
    Message('note_on', channel=9, note=35, velocity=127, time=0),
    Message('note_on', channel=9, note=51, velocity=127, time=0),
    Message('note_on', channel=9, note=35, velocity=0, time=64),
    Message('note_on', channel=9, note=51, velocity=0, time=0),
    Message('note_on', channel=9, note=51, velocity=127, time=0),
    Message('note_on', channel=9, note=51, velocity=0, time=64),
    Message('note_on', channel=9, note=51, velocity=127, time=0),
    Message('note_on', channel=9, note=51, velocity=0, time=64),
    Message('note_on', channel=9, note=38, velocity=127, time=0),
    Message('note_on', channel=9, note=51, velocity=127, time=0),
    Message('note_on', channel=9, note=38, velocity=0, time=64),
    Message('note_on', channel=9, note=51, velocity=0, time=0),
    Message('note_on', channel=9, note=51, velocity=127, time=0),
    Message('note_on', channel=9, note=51, velocity=0, time=64),
    Message('note_on', channel=9, note=35, velocity=127, time=0),
    Message('note_on', channel=9, note=51, velocity=127, time=0),
    Message('note_on', channel=9, note=35, velocity=0, time=64),
    Message('note_on', channel=9, note=51, velocity=0, time=0),
    Message('note_on', channel=9, note=35, velocity=127, time=0),
    Message('note_on', channel=9, note=51, velocity=127, time=0),
    Message('note_on', channel=9, note=35, velocity=0, time=64),
    Message('note_on', channel=9, note=51, velocity=0, time=0),
    Message('note_on', channel=9, note=51, velocity=127, time=0),
    Message('note_on', channel=9, note=51, velocity=0, time=64),
    Message('note_on', channel=9, note=51, velocity=127, time=0),
    Message('note_on', channel=9, note=51, velocity=0, time=64),
    Message('note_on', channel=9, note=38, velocity=127, time=0),
    Message('note_on', channel=9, note=51, velocity=127, time=0),
    Message('note_on', channel=9, note=38, velocity=0, time=64),
    Message('note_on', channel=9, note=51, velocity=0, time=0),
    Message('note_on', channel=9, note=51, velocity=127, time=0),
    Message('note_on', channel=9, note=51, velocity=0, time=64),
    Message('note_on', channel=9, note=51, velocity=127, time=0),
    Message('note_on', channel=9, note=51, velocity=0, time=64),
    Message('note_on', channel=9, note=35, velocity=127, time=0),
    Message('note_on', channel=9, note=51, velocity=127, time=0),
    Message('note_on', channel=9, note=35, velocity=0, time=64),
    Message('note_on', channel=9, note=51, velocity=0, time=0),
    Message('note_on', channel=9, note=51, velocity=127, time=0),
    Message('note_on', channel=9, note=51, velocity=0, time=64),
    Message('note_on', channel=9, note=51, velocity=127, time=0),
    Message('note_on', channel=9, note=51, velocity=0, time=64),
    Message('note_on', channel=9, note=38, velocity=127, time=0),
    Message('note_on', channel=9, note=51, velocity=127, time=0),
    Message('note_on', channel=9, note=38, velocity=0, time=64),
    Message('note_on', channel=9, note=51, velocity=0, time=0),
    Message('note_on', channel=9, note=51, velocity=127, time=0),
    Message('note_on', channel=9, note=51, velocity=0, time=64),
    Message('note_on', channel=9, note=35, velocity=127, time=0),
    Message('note_on', channel=9, note=51, velocity=127, time=0),
    Message('note_on', channel=9, note=35, velocity=0, time=64),
    Message('note_on', channel=9, note=51, velocity=0, time=0),
    Message('note_on', channel=9, note=35, velocity=127, time=0),
    Message('note_on', channel=9, note=51, velocity=127, time=0),
    Message('note_on', channel=9, note=35, velocity=0, time=64),
    Message('note_on', channel=9, note=51, velocity=0, time=0),
    Message('note_on', channel=9, note=51, velocity=127, time=0),
    Message('note_on', channel=9, note=51, velocity=0, time=64),
    Message('note_on', channel=9, note=51, velocity=127, time=0),
    Message('note_on', channel=9, note=51, velocity=0, time=64),
    Message('note_on', channel=9, note=38, velocity=127, time=0),
    Message('note_on', channel=9, note=51, velocity=127, time=0),
    Message('note_on', channel=9, note=38, velocity=0, time=64),
    Message('note_on', channel=9, note=51, velocity=0, time=0),
    Message('note_on', channel=9, note=51, velocity=127, time=0),
    Message('note_on', channel=9, note=51, velocity=0, time=64),
    Message('note_on', channel=9, note=51, velocity=127, time=0),
    Message('note_on', channel=9, note=51, velocity=0, time=64),
    Message('note_on', channel=9, note=35, velocity=127, time=0),
    Message('note_on', channel=9, note=51, velocity=127, time=0),
    Message('note_on', channel=9, note=35, velocity=0, time=64),
    Message('note_on', channel=9, note=51, velocity=0, time=0),
    Message('note_on', channel=9, note=51, velocity=127, time=0),
    Message('note_on', channel=9, note=51, velocity=0, time=64),
    Message('note_on', channel=9, note=51, velocity=127, time=0),
    Message('note_on', channel=9, note=51, velocity=0, time=64),
    Message('note_on', channel=9, note=38, velocity=127, time=0),
    Message('note_on', channel=9, note=51, velocity=127, time=0),
    Message('note_on', channel=9, note=38, velocity=0, time=64),
    Message('note_on', channel=9, note=51, velocity=0, time=0),
    Message('note_on', channel=9, note=51, velocity=127, time=0),
    Message('note_on', channel=9, note=51, velocity=0, time=64),
    Message('note_on', channel=9, note=35, velocity=127, time=0),
    Message('note_on', channel=9, note=51, velocity=127, time=0),
    Message('note_on', channel=9, note=35, velocity=0, time=64),
    Message('note_on', channel=9, note=51, velocity=0, time=0),
    Message('note_on', channel=9, note=35, velocity=127, time=0),
    Message('note_on', channel=9, note=51, velocity=127, time=0),
    Message('note_on', channel=9, note=35, velocity=0, time=64),
    Message('note_on', channel=9, note=51, velocity=0, time=0),
    Message('note_on', channel=9, note=51, velocity=127, time=0),
    Message('note_on', channel=9, note=51, velocity=0, time=64),
    Message('note_on', channel=9, note=51, velocity=127, time=0),
    Message('note_on', channel=9, note=51, velocity=0, time=64),
    Message('note_on', channel=9, note=38, velocity=127, time=0),
    Message('note_on', channel=9, note=51, velocity=127, time=0),
    Message('note_on', channel=9, note=38, velocity=0, time=64),
    Message('note_on', channel=9, note=51, velocity=0, time=0),
    Message('note_on', channel=9, note=51, velocity=127, time=0),
    Message('note_on', channel=9, note=51, velocity=0, time=64),
    Message('note_on', channel=9, note=51, velocity=127, time=0),
    Message('note_on', channel=9, note=51, velocity=0, time=64),
    Message('note_on', channel=9, note=35, velocity=127, time=0),
    Message('note_on', channel=9, note=51, velocity=127, time=0),
    Message('note_on', channel=9, note=35, velocity=0, time=64),
    Message('note_on', channel=9, note=51, velocity=0, time=0),
    Message('note_on', channel=9, note=51, velocity=127, time=0),
    Message('note_on', channel=9, note=51, velocity=0, time=64),
    Message('note_on', channel=9, note=51, velocity=127, time=0),
    Message('note_on', channel=9, note=51, velocity=0, time=64),
    Message('note_on', channel=9, note=38, velocity=127, time=0),
    Message('note_on', channel=9, note=51, velocity=127, time=0),
    Message('note_on', channel=9, note=38, velocity=0, time=64),
    Message('note_on', channel=9, note=51, velocity=0, time=0),
    Message('note_on', channel=9, note=51, velocity=127, time=0),
    Message('note_on', channel=9, note=51, velocity=0, time=64),
    Message('note_on', channel=9, note=35, velocity=127, time=0),
    Message('note_on', channel=9, note=51, velocity=127, time=0),
    Message('note_on', channel=9, note=35, velocity=0, time=64),
    Message('note_on', channel=9, note=51, velocity=0, time=0),
    Message('note_on', channel=9, note=35, velocity=127, time=0),
    Message('note_on', channel=9, note=51, velocity=127, time=0),
    Message('note_on', channel=9, note=35, velocity=0, time=64),
    Message('note_on', channel=9, note=51, velocity=0, time=0),
    Message('note_on', channel=9, note=51, velocity=127, time=0),
    Message('note_on', channel=9, note=51, velocity=0, time=64),
    Message('note_on', channel=9, note=51, velocity=127, time=0),
    Message('note_on', channel=9, note=51, velocity=0, time=64),
    Message('note_on', channel=9, note=38, velocity=127, time=0),
    Message('note_on', channel=9, note=51, velocity=127, time=0),
    Message('note_on', channel=9, note=38, velocity=0, time=64),
    Message('note_on', channel=9, note=51, velocity=0, time=0),
    Message('note_on', channel=9, note=51, velocity=127, time=0),
    Message('note_on', channel=9, note=51, velocity=0, time=64),
    Message('note_on', channel=9, note=51, velocity=127, time=0),
    Message('note_on', channel=9, note=51, velocity=0, time=64),
    Message('note_on', channel=9, note=35, velocity=127, time=0),
    Message('note_on', channel=9, note=51, velocity=127, time=0),
    Message('note_on', channel=9, note=35, velocity=0, time=64),
    Message('note_on', channel=9, note=51, velocity=0, time=0),
    Message('note_on', channel=9, note=51, velocity=127, time=0),
    Message('note_on', channel=9, note=51, velocity=0, time=64),
    Message('note_on', channel=9, note=51, velocity=127, time=0),
    Message('note_on', channel=9, note=51, velocity=0, time=64),
    Message('note_on', channel=9, note=38, velocity=127, time=0),
    Message('note_on', channel=9, note=51, velocity=127, time=0),
    Message('note_on', channel=9, note=38, velocity=0, time=64),
    Message('note_on', channel=9, note=51, velocity=0, time=0),
    Message('note_on', channel=9, note=51, velocity=127, time=0),
    Message('note_on', channel=9, note=51, velocity=0, time=64),
    Message('note_on', channel=9, note=35, velocity=127, time=0),
    Message('note_on', channel=9, note=51, velocity=127, time=0),
    Message('note_on', channel=9, note=35, velocity=0, time=64),
    Message('note_on', channel=9, note=51, velocity=0, time=0),
    Message('note_on', channel=9, note=35, velocity=127, time=0),
    Message('note_on', channel=9, note=51, velocity=127, time=0),
    Message('note_on', channel=9, note=35, velocity=0, time=64),
    Message('note_on', channel=9, note=51, velocity=0, time=0),
    Message('note_on', channel=9, note=51, velocity=127, time=0),
    Message('note_on', channel=9, note=51, velocity=0, time=64),
    Message('note_on', channel=9, note=51, velocity=127, time=0),
    Message('note_on', channel=9, note=51, velocity=0, time=64),
    Message('note_on', channel=9, note=38, velocity=127, time=0),
    Message('note_on', channel=9, note=51, velocity=127, time=0),
    Message('note_on', channel=9, note=38, velocity=0, time=64),
    Message('note_on', channel=9, note=51, velocity=0, time=0),
    Message('note_on', channel=9, note=51, velocity=127, time=0),
    Message('note_on', channel=9, note=51, velocity=0, time=64),
    Message('note_on', channel=9, note=51, velocity=127, time=0),
    Message('note_on', channel=9, note=51, velocity=0, time=64),
    Message('note_on', channel=9, note=35, velocity=127, time=0),
    Message('note_on', channel=9, note=51, velocity=127, time=0),
    Message('note_on', channel=9, note=35, velocity=0, time=64),
    Message('note_on', channel=9, note=51, velocity=0, time=0),
    Message('note_on', channel=9, note=51, velocity=127, time=0),
    Message('note_on', channel=9, note=51, velocity=0, time=64),
    Message('note_on', channel=9, note=51, velocity=127, time=0),
    Message('note_on', channel=9, note=51, velocity=0, time=64),
    Message('note_on', channel=9, note=38, velocity=127, time=0),
    Message('note_on', channel=9, note=51, velocity=127, time=0),
    Message('note_on', channel=9, note=38, velocity=0, time=64),
    Message('note_on', channel=9, note=51, velocity=0, time=0),
    Message('note_on', channel=9, note=51, velocity=127, time=0),
    Message('note_on', channel=9, note=51, velocity=0, time=64),
    Message('note_on', channel=9, note=35, velocity=127, time=0),
    Message('note_on', channel=9, note=51, velocity=127, time=0),
    Message('note_on', channel=9, note=35, velocity=0, time=64),
    Message('note_on', channel=9, note=51, velocity=0, time=0),
    Message('note_on', channel=9, note=35, velocity=127, time=0),
    Message('note_on', channel=9, note=51, velocity=127, time=0),
    Message('note_on', channel=9, note=35, velocity=0, time=64),
    Message('note_on', channel=9, note=51, velocity=0, time=0),
    Message('note_on', channel=9, note=51, velocity=127, time=0),
    Message('note_on', channel=9, note=51, velocity=0, time=64),
    Message('note_on', channel=9, note=51, velocity=127, time=0),
    Message('note_on', channel=9, note=51, velocity=0, time=64),
    Message('note_on', channel=9, note=38, velocity=127, time=0),
    Message('note_on', channel=9, note=51, velocity=127, time=0),
    Message('note_on', channel=9, note=38, velocity=0, time=64),
    Message('note_on', channel=9, note=51, velocity=0, time=0),
    Message('note_on', channel=9, note=51, velocity=127, time=0),
    Message('note_on', channel=9, note=51, velocity=0, time=64),
    Message('note_on', channel=9, note=51, velocity=127, time=0),
    Message('note_on', channel=9, note=51, velocity=0, time=64),
    Message('note_on', channel=9, note=35, velocity=127, time=0),
    Message('note_on', channel=9, note=42, velocity=127, time=0),
    Message('note_on', channel=9, note=51, velocity=127, time=0),
    Message('note_on', channel=9, note=35, velocity=0, time=64),
    Message('note_on', channel=9, note=42, velocity=0, time=0),
    Message('note_on', channel=9, note=51, velocity=0, time=0),
    Message('note_on', channel=9, note=42, velocity=127, time=0),
    Message('note_on', channel=9, note=42, velocity=0, time=64),
    Message('note_on', channel=9, note=42, velocity=127, time=0),
    Message('note_on', channel=9, note=42, velocity=0, time=64),
    Message('note_on', channel=9, note=42, velocity=127, time=0),
    Message('note_on', channel=9, note=37, velocity=127, time=0),
    Message('note_on', channel=9, note=51, velocity=127, time=0),
    Message('note_on', channel=9, note=42, velocity=0, time=64),
    Message('note_on', channel=9, note=37, velocity=0, time=0),
    Message('note_on', channel=9, note=51, velocity=0, time=0),
    Message('note_on', channel=9, note=42, velocity=127, time=0),
    Message('note_on', channel=9, note=42, velocity=0, time=64),
    Message('note_on', channel=9, note=35, velocity=127, time=0),
    Message('note_on', channel=9, note=42, velocity=127, time=0),
    Message('note_on', channel=9, note=35, velocity=0, time=64),
    Message('note_on', channel=9, note=42, velocity=0, time=0),
    Message('note_on', channel=9, note=35, velocity=127, time=0),
    Message('note_on', channel=9, note=42, velocity=127, time=0),
    Message('note_on', channel=9, note=35, velocity=0, time=64),
    Message('note_on', channel=9, note=42, velocity=0, time=0),
    Message('note_on', channel=9, note=42, velocity=127, time=0),
    Message('note_on', channel=9, note=42, velocity=0, time=64),
    Message('note_on', channel=9, note=38, velocity=127, time=0),
    Message('note_on', channel=9, note=42, velocity=127, time=0),
    Message('note_on', channel=9, note=38, velocity=0, time=64),
    Message('note_on', channel=9, note=42, velocity=0, time=0),
    Message('note_on', channel=9, note=38, velocity=127, time=0),
    Message('note_on', channel=9, note=42, velocity=127, time=0),
    Message('note_on', channel=9, note=37, velocity=127, time=0),
    Message('note_on', channel=9, note=38, velocity=0, time=64),
    Message('note_on', channel=9, note=42, velocity=0, time=0),
    Message('note_on', channel=9, note=37, velocity=0, time=0),
    Message('note_on', channel=9, note=42, velocity=127, time=0),
    Message('note_on', channel=9, note=42, velocity=0, time=64),
    Message('note_on', channel=9, note=38, velocity=127, time=0),
    Message('note_on', channel=9, note=42, velocity=127, time=0),
    Message('note_on', channel=9, note=38, velocity=0, time=64),
    Message('note_on', channel=9, note=42, velocity=0, time=0),
    Message('note_on', channel=9, note=35, velocity=127, time=0),
    Message('note_on', channel=9, note=42, velocity=127, time=0),
    Message('note_on', channel=9, note=35, velocity=0, time=64),
    Message('note_on', channel=9, note=42, velocity=0, time=0),
    Message('note_on', channel=9, note=42, velocity=127, time=0),
    Message('note_on', channel=9, note=42, velocity=0, time=64),
    Message('note_on', channel=9, note=42, velocity=127, time=0),
    Message('note_on', channel=9, note=42, velocity=0, time=64),
    Message('note_on', channel=9, note=42, velocity=127, time=0),
    Message('note_on', channel=9, note=37, velocity=127, time=0),
    Message('note_on', channel=9, note=42, velocity=0, time=64),
    Message('note_on', channel=9, note=37, velocity=0, time=0),
    Message('note_on', channel=9, note=42, velocity=127, time=0),
    Message('note_on', channel=9, note=42, velocity=0, time=64),
    Message('note_on', channel=9, note=35, velocity=127, time=0),
    Message('note_on', channel=9, note=42, velocity=127, time=0),
    Message('note_on', channel=9, note=35, velocity=0, time=64),
    Message('note_on', channel=9, note=42, velocity=0, time=0),
    Message('note_on', channel=9, note=35, velocity=127, time=0),
    Message('note_on', channel=9, note=42, velocity=127, time=0),
    Message('note_on', channel=9, note=35, velocity=0, time=64),
    Message('note_on', channel=9, note=42, velocity=0, time=0),
    Message('note_on', channel=9, note=42, velocity=127, time=0),
    Message('note_on', channel=9, note=42, velocity=0, time=64),
    Message('note_on', channel=9, note=42, velocity=127, time=0),
    Message('note_on', channel=9, note=42, velocity=0, time=64),
    Message('note_on', channel=9, note=42, velocity=127, time=0),
    Message('note_on', channel=9, note=37, velocity=127, time=0),
    Message('note_on', channel=9, note=42, velocity=0, time=64),
    Message('note_on', channel=9, note=37, velocity=0, time=0),
    Message('note_on', channel=9, note=42, velocity=127, time=0),
    Message('note_on', channel=9, note=42, velocity=0, time=64),
    Message('note_on', channel=9, note=42, velocity=127, time=0),
    Message('note_on', channel=9, note=42, velocity=0, time=64),
    Message('note_on', channel=9, note=35, velocity=127, time=0),
    Message('note_on', channel=9, note=42, velocity=127, time=0),
    Message('note_on', channel=9, note=35, velocity=0, time=64),
    Message('note_on', channel=9, note=42, velocity=0, time=0),
    Message('note_on', channel=9, note=42, velocity=127, time=0),
    Message('note_on', channel=9, note=42, velocity=0, time=64),
    Message('note_on', channel=9, note=42, velocity=127, time=0),
    Message('note_on', channel=9, note=42, velocity=0, time=64),
    Message('note_on', channel=9, note=42, velocity=127, time=0),
    Message('note_on', channel=9, note=37, velocity=127, time=0),
    Message('note_on', channel=9, note=42, velocity=0, time=64),
    Message('note_on', channel=9, note=37, velocity=0, time=0),
    Message('note_on', channel=9, note=42, velocity=127, time=0),
    Message('note_on', channel=9, note=42, velocity=0, time=64),
    Message('note_on', channel=9, note=35, velocity=127, time=0),
    Message('note_on', channel=9, note=42, velocity=127, time=0),
    Message('note_on', channel=9, note=35, velocity=0, time=64),
    Message('note_on', channel=9, note=42, velocity=0, time=0),
    Message('note_on', channel=9, note=35, velocity=127, time=0),
    Message('note_on', channel=9, note=42, velocity=127, time=0),
    Message('note_on', channel=9, note=35, velocity=0, time=64),
    Message('note_on', channel=9, note=42, velocity=0, time=0),
    Message('note_on', channel=9, note=42, velocity=127, time=0),
    Message('note_on', channel=9, note=42, velocity=0, time=64),
    Message('note_on', channel=9, note=42, velocity=127, time=0),
    Message('note_on', channel=9, note=42, velocity=0, time=64),
    Message('note_on', channel=9, note=42, velocity=127, time=0),
    Message('note_on', channel=9, note=37, velocity=127, time=0),
    Message('note_on', channel=9, note=42, velocity=0, time=64),
    Message('note_on', channel=9, note=37, velocity=0, time=0),
    Message('note_on', channel=9, note=42, velocity=127, time=0),
    Message('note_on', channel=9, note=42, velocity=0, time=64),
    Message('note_on', channel=9, note=42, velocity=127, time=0),
    Message('note_on', channel=9, note=42, velocity=0, time=64),
    Message('note_on', channel=9, note=35, velocity=127, time=0),
    Message('note_on', channel=9, note=42, velocity=127, time=0),
    Message('note_on', channel=9, note=35, velocity=0, time=64),
    Message('note_on', channel=9, note=42, velocity=0, time=0),
    Message('note_on', channel=9, note=42, velocity=127, time=0),
    Message('note_on', channel=9, note=42, velocity=0, time=64),
    Message('note_on', channel=9, note=42, velocity=127, time=0),
    Message('note_on', channel=9, note=42, velocity=0, time=64),
    Message('note_on', channel=9, note=42, velocity=127, time=0),
    Message('note_on', channel=9, note=37, velocity=127, time=0),
    Message('note_on', channel=9, note=42, velocity=0, time=64),
    Message('note_on', channel=9, note=37, velocity=0, time=0),
    Message('note_on', channel=9, note=42, velocity=127, time=0),
    Message('note_on', channel=9, note=42, velocity=0, time=64),
    Message('note_on', channel=9, note=35, velocity=127, time=0),
    Message('note_on', channel=9, note=42, velocity=127, time=0),
    Message('note_on', channel=9, note=35, velocity=0, time=64),
    Message('note_on', channel=9, note=42, velocity=0, time=0),
    Message('note_on', channel=9, note=35, velocity=127, time=0),
    Message('note_on', channel=9, note=42, velocity=127, time=0),
    Message('note_on', channel=9, note=35, velocity=0, time=64),
    Message('note_on', channel=9, note=42, velocity=0, time=0),
    Message('note_on', channel=9, note=42, velocity=127, time=0),
    Message('note_on', channel=9, note=42, velocity=0, time=64),
    Message('note_on', channel=9, note=42, velocity=127, time=0),
    Message('note_on', channel=9, note=42, velocity=0, time=64),
    Message('note_on', channel=9, note=42, velocity=127, time=0),
    Message('note_on', channel=9, note=37, velocity=127, time=0),
    Message('note_on', channel=9, note=42, velocity=0, time=64),
    Message('note_on', channel=9, note=37, velocity=0, time=0),
    Message('note_on', channel=9, note=42, velocity=127, time=0),
    Message('note_on', channel=9, note=42, velocity=0, time=64),
    Message('note_on', channel=9, note=42, velocity=127, time=0),
    Message('note_on', channel=9, note=42, velocity=0, time=64),
    Message('note_on', channel=9, note=35, velocity=127, time=0),
    Message('note_on', channel=9, note=42, velocity=127, time=0),
    Message('note_on', channel=9, note=35, velocity=0, time=64),
    Message('note_on', channel=9, note=42, velocity=0, time=0),
    Message('note_on', channel=9, note=42, velocity=127, time=0),
    Message('note_on', channel=9, note=42, velocity=0, time=64),
    Message('note_on', channel=9, note=42, velocity=127, time=0),
    Message('note_on', channel=9, note=42, velocity=0, time=64),
    Message('note_on', channel=9, note=42, velocity=127, time=0),
    Message('note_on', channel=9, note=37, velocity=127, time=0),
    Message('note_on', channel=9, note=42, velocity=0, time=64),
    Message('note_on', channel=9, note=37, velocity=0, time=0),
    Message('note_on', channel=9, note=42, velocity=127, time=0),
    Message('note_on', channel=9, note=42, velocity=0, time=64),
    Message('note_on', channel=9, note=35, velocity=127, time=0),
    Message('note_on', channel=9, note=42, velocity=127, time=0),
    Message('note_on', channel=9, note=35, velocity=0, time=64),
    Message('note_on', channel=9, note=42, velocity=0, time=0),
    Message('note_on', channel=9, note=35, velocity=127, time=0),
    Message('note_on', channel=9, note=42, velocity=127, time=0),
    Message('note_on', channel=9, note=35, velocity=0, time=64),
    Message('note_on', channel=9, note=42, velocity=0, time=0),
    Message('note_on', channel=9, note=42, velocity=127, time=0),
    Message('note_on', channel=9, note=42, velocity=0, time=64),
    Message('note_on', channel=9, note=42, velocity=127, time=0),
    Message('note_on', channel=9, note=42, velocity=0, time=64),
    Message('note_on', channel=9, note=42, velocity=127, time=0),
    Message('note_on', channel=9, note=37, velocity=127, time=0),
    Message('note_on', channel=9, note=42, velocity=0, time=64),
    Message('note_on', channel=9, note=37, velocity=0, time=0),
    Message('note_on', channel=9, note=42, velocity=127, time=0),
    Message('note_on', channel=9, note=42, velocity=0, time=64),
    Message('note_on', channel=9, note=42, velocity=127, time=0),
    Message('note_on', channel=9, note=42, velocity=0, time=64),
    Message('note_on', channel=9, note=35, velocity=127, time=0),
    Message('note_on', channel=9, note=42, velocity=127, time=0),
    Message('note_on', channel=9, note=35, velocity=0, time=64),
    Message('note_on', channel=9, note=42, velocity=0, time=0),
    Message('note_on', channel=9, note=42, velocity=127, time=0),
    Message('note_on', channel=9, note=42, velocity=0, time=64),
    Message('note_on', channel=9, note=42, velocity=127, time=0),
    Message('note_on', channel=9, note=42, velocity=0, time=64),
    Message('note_on', channel=9, note=42, velocity=127, time=0),
    Message('note_on', channel=9, note=37, velocity=127, time=0),
    Message('note_on', channel=9, note=42, velocity=0, time=64),
    Message('note_on', channel=9, note=37, velocity=0, time=0),
    Message('note_on', channel=9, note=42, velocity=127, time=0),
    Message('note_on', channel=9, note=42, velocity=0, time=64),
    Message('note_on', channel=9, note=35, velocity=127, time=0),
    Message('note_on', channel=9, note=42, velocity=127, time=0),
    Message('note_on', channel=9, note=35, velocity=0, time=64),
    Message('note_on', channel=9, note=42, velocity=0, time=0),
    Message('note_on', channel=9, note=35, velocity=127, time=0),
    Message('note_on', channel=9, note=42, velocity=127, time=0),
    Message('note_on', channel=9, note=35, velocity=0, time=64),
    Message('note_on', channel=9, note=42, velocity=0, time=0),
    Message('note_on', channel=9, note=42, velocity=127, time=0),
    Message('note_on', channel=9, note=42, velocity=0, time=64),
    Message('note_on', channel=9, note=42, velocity=127, time=0),
    Message('note_on', channel=9, note=42, velocity=0, time=64),
    Message('note_on', channel=9, note=42, velocity=127, time=0),
    Message('note_on', channel=9, note=37, velocity=127, time=0),
    Message('note_on', channel=9, note=42, velocity=0, time=64),
    Message('note_on', channel=9, note=37, velocity=0, time=0),
    Message('note_on', channel=9, note=42, velocity=127, time=0),
    Message('note_on', channel=9, note=42, velocity=0, time=64),
    Message('note_on', channel=9, note=42, velocity=127, time=0),
    Message('note_on', channel=9, note=42, velocity=0, time=64),
    Message('note_on', channel=9, note=35, velocity=127, time=0),
    Message('note_on', channel=9, note=42, velocity=127, time=0),
    Message('note_on', channel=9, note=35, velocity=0, time=64),
    Message('note_on', channel=9, note=42, velocity=0, time=0),
    Message('note_on', channel=9, note=42, velocity=127, time=0),
    Message('note_on', channel=9, note=42, velocity=0, time=64),
    Message('note_on', channel=9, note=42, velocity=127, time=0),
    Message('note_on', channel=9, note=42, velocity=0, time=64),
    Message('note_on', channel=9, note=42, velocity=127, time=0),
    Message('note_on', channel=9, note=37, velocity=127, time=0),
    Message('note_on', channel=9, note=42, velocity=0, time=64),
    Message('note_on', channel=9, note=37, velocity=0, time=0),
    Message('note_on', channel=9, note=42, velocity=127, time=0),
    Message('note_on', channel=9, note=42, velocity=0, time=64),
    Message('note_on', channel=9, note=35, velocity=127, time=0),
    Message('note_on', channel=9, note=42, velocity=127, time=0),
    Message('note_on', channel=9, note=35, velocity=0, time=64),
    Message('note_on', channel=9, note=42, velocity=0, time=0),
    Message('note_on', channel=9, note=35, velocity=127, time=0),
    Message('note_on', channel=9, note=42, velocity=127, time=0),
    Message('note_on', channel=9, note=35, velocity=0, time=64),
    Message('note_on', channel=9, note=42, velocity=0, time=0),
    Message('note_on', channel=9, note=42, velocity=127, time=0),
    Message('note_on', channel=9, note=42, velocity=0, time=64),
    Message('note_on', channel=9, note=42, velocity=127, time=0),
    Message('note_on', channel=9, note=42, velocity=0, time=64),
    Message('note_on', channel=9, note=42, velocity=127, time=0),
    Message('note_on', channel=9, note=37, velocity=127, time=0),
    Message('note_on', channel=9, note=42, velocity=0, time=64),
    Message('note_on', channel=9, note=37, velocity=0, time=0),
    Message('note_on', channel=9, note=42, velocity=127, time=0),
    Message('note_on', channel=9, note=42, velocity=0, time=64),
    Message('note_on', channel=9, note=42, velocity=127, time=0),
    Message('note_on', channel=9, note=42, velocity=0, time=64),
    Message('note_on', channel=9, note=35, velocity=127, time=0),
    Message('note_on', channel=9, note=42, velocity=127, time=0),
    Message('note_on', channel=9, note=35, velocity=0, time=64),
    Message('note_on', channel=9, note=42, velocity=0, time=0),
    Message('note_on', channel=9, note=42, velocity=127, time=0),
    Message('note_on', channel=9, note=42, velocity=0, time=64),
    Message('note_on', channel=9, note=42, velocity=127, time=0),
    Message('note_on', channel=9, note=42, velocity=0, time=64),
    Message('note_on', channel=9, note=42, velocity=127, time=0),
    Message('note_on', channel=9, note=37, velocity=127, time=0),
    Message('note_on', channel=9, note=42, velocity=0, time=64),
    Message('note_on', channel=9, note=37, velocity=0, time=0),
    Message('note_on', channel=9, note=42, velocity=127, time=0),
    Message('note_on', channel=9, note=42, velocity=0, time=64),
    Message('note_on', channel=9, note=35, velocity=127, time=0),
    Message('note_on', channel=9, note=42, velocity=127, time=0),
    Message('note_on', channel=9, note=35, velocity=0, time=64),
    Message('note_on', channel=9, note=42, velocity=0, time=0),
    Message('note_on', channel=9, note=35, velocity=127, time=0),
    Message('note_on', channel=9, note=42, velocity=127, time=0),
    Message('note_on', channel=9, note=35, velocity=0, time=64),
    Message('note_on', channel=9, note=42, velocity=0, time=0),
    Message('note_on', channel=9, note=42, velocity=127, time=0),
    Message('note_on', channel=9, note=42, velocity=0, time=64),
    Message('note_on', channel=9, note=42, velocity=127, time=0),
    Message('note_on', channel=9, note=42, velocity=0, time=64),
    Message('note_on', channel=9, note=42, velocity=127, time=0),
    Message('note_on', channel=9, note=37, velocity=127, time=0),
    Message('note_on', channel=9, note=42, velocity=0, time=64),
    Message('note_on', channel=9, note=37, velocity=0, time=0),
    Message('note_on', channel=9, note=42, velocity=127, time=0),
    Message('note_on', channel=9, note=42, velocity=0, time=64),
    Message('note_on', channel=9, note=42, velocity=127, time=0),
    Message('note_on', channel=9, note=42, velocity=0, time=64),
    Message('note_on', channel=9, note=35, velocity=127, time=0),
    Message('note_on', channel=9, note=42, velocity=127, time=0),
    Message('note_on', channel=9, note=35, velocity=0, time=64),
    Message('note_on', channel=9, note=42, velocity=0, time=0),
    Message('note_on', channel=9, note=42, velocity=127, time=0),
    Message('note_on', channel=9, note=42, velocity=0, time=64),
    Message('note_on', channel=9, note=42, velocity=127, time=0),
    Message('note_on', channel=9, note=42, velocity=0, time=64),
    Message('note_on', channel=9, note=42, velocity=127, time=0),
    Message('note_on', channel=9, note=37, velocity=127, time=0),
    Message('note_on', channel=9, note=42, velocity=0, time=64),
    Message('note_on', channel=9, note=37, velocity=0, time=0),
    Message('note_on', channel=9, note=42, velocity=127, time=0),
    Message('note_on', channel=9, note=42, velocity=0, time=64),
    Message('note_on', channel=9, note=35, velocity=127, time=0),
    Message('note_on', channel=9, note=42, velocity=127, time=0),
    Message('note_on', channel=9, note=35, velocity=0, time=64),
    Message('note_on', channel=9, note=42, velocity=0, time=0),
    Message('note_on', channel=9, note=35, velocity=127, time=0),
    Message('note_on', channel=9, note=42, velocity=127, time=0),
    Message('note_on', channel=9, note=35, velocity=0, time=64),
    Message('note_on', channel=9, note=42, velocity=0, time=0),
    Message('note_on', channel=9, note=42, velocity=127, time=0),
    Message('note_on', channel=9, note=42, velocity=0, time=64),
    Message('note_on', channel=9, note=42, velocity=127, time=0),
    Message('note_on', channel=9, note=42, velocity=0, time=64),
    Message('note_on', channel=9, note=42, velocity=127, time=0),
    Message('note_on', channel=9, note=37, velocity=127, time=0),
    Message('note_on', channel=9, note=42, velocity=0, time=64),
    Message('note_on', channel=9, note=37, velocity=0, time=0),
    Message('note_on', channel=9, note=42, velocity=127, time=0),
    Message('note_on', channel=9, note=42, velocity=0, time=64),
    Message('note_on', channel=9, note=42, velocity=127, time=0),
    Message('note_on', channel=9, note=42, velocity=0, time=64),
    Message('note_on', channel=9, note=35, velocity=127, time=0),
    Message('note_on', channel=9, note=42, velocity=127, time=0),
    Message('note_on', channel=9, note=35, velocity=0, time=64),
    Message('note_on', channel=9, note=42, velocity=0, time=0),
    Message('note_on', channel=9, note=42, velocity=127, time=0),
    Message('note_on', channel=9, note=42, velocity=0, time=64),
    Message('note_on', channel=9, note=42, velocity=127, time=0),
    Message('note_on', channel=9, note=42, velocity=0, time=64),
    Message('note_on', channel=9, note=42, velocity=127, time=0),
    Message('note_on', channel=9, note=37, velocity=127, time=0),
    Message('note_on', channel=9, note=42, velocity=0, time=64),
    Message('note_on', channel=9, note=37, velocity=0, time=0),
    Message('note_on', channel=9, note=42, velocity=127, time=0),
    Message('note_on', channel=9, note=42, velocity=0, time=64),
    Message('note_on', channel=9, note=35, velocity=127, time=0),
    Message('note_on', channel=9, note=42, velocity=127, time=0),
    Message('note_on', channel=9, note=35, velocity=0, time=64),
    Message('note_on', channel=9, note=42, velocity=0, time=0),
    Message('note_on', channel=9, note=35, velocity=127, time=0),
    Message('note_on', channel=9, note=42, velocity=127, time=0),
    Message('note_on', channel=9, note=35, velocity=0, time=64),
    Message('note_on', channel=9, note=42, velocity=0, time=0),
    Message('note_on', channel=9, note=42, velocity=127, time=0),
    Message('note_on', channel=9, note=42, velocity=0, time=64),
    Message('note_on', channel=9, note=42, velocity=127, time=0),
    Message('note_on', channel=9, note=42, velocity=0, time=64),
    Message('note_on', channel=9, note=42, velocity=127, time=0),
    Message('note_on', channel=9, note=37, velocity=127, time=0),
    Message('note_on', channel=9, note=42, velocity=0, time=64),
    Message('note_on', channel=9, note=37, velocity=0, time=0),
    Message('note_on', channel=9, note=42, velocity=127, time=0),
    Message('note_on', channel=9, note=42, velocity=0, time=64),
    Message('note_on', channel=9, note=42, velocity=127, time=0),
    Message('note_on', channel=9, note=42, velocity=0, time=64),
    Message('note_on', channel=9, note=35, velocity=127, time=0),
    Message('note_on', channel=9, note=42, velocity=127, time=0),
    Message('note_on', channel=9, note=35, velocity=0, time=64),
    Message('note_on', channel=9, note=42, velocity=0, time=0),
    Message('note_on', channel=9, note=42, velocity=127, time=0),
    Message('note_on', channel=9, note=42, velocity=0, time=64),
    Message('note_on', channel=9, note=42, velocity=127, time=0),
    Message('note_on', channel=9, note=42, velocity=0, time=64),
    Message('note_on', channel=9, note=42, velocity=127, time=0),
    Message('note_on', channel=9, note=37, velocity=127, time=0),
    Message('note_on', channel=9, note=42, velocity=0, time=64),
    Message('note_on', channel=9, note=37, velocity=0, time=0),
    Message('note_on', channel=9, note=42, velocity=127, time=0),
    Message('note_on', channel=9, note=42, velocity=0, time=64),
    Message('note_on', channel=9, note=35, velocity=127, time=0),
    Message('note_on', channel=9, note=42, velocity=127, time=0),
    Message('note_on', channel=9, note=35, velocity=0, time=64),
    Message('note_on', channel=9, note=42, velocity=0, time=0),
    Message('note_on', channel=9, note=35, velocity=127, time=0),
    Message('note_on', channel=9, note=42, velocity=127, time=0),
    Message('note_on', channel=9, note=35, velocity=0, time=64),
    Message('note_on', channel=9, note=42, velocity=0, time=0),
    Message('note_on', channel=9, note=42, velocity=127, time=0),
    Message('note_on', channel=9, note=42, velocity=0, time=64),
    Message('note_on', channel=9, note=42, velocity=127, time=0),
    Message('note_on', channel=9, note=42, velocity=0, time=64),
    Message('note_on', channel=9, note=42, velocity=127, time=0),
    Message('note_on', channel=9, note=37, velocity=127, time=0),
    Message('note_on', channel=9, note=42, velocity=0, time=64),
    Message('note_on', channel=9, note=37, velocity=0, time=0),
    Message('note_on', channel=9, note=42, velocity=127, time=0),
    Message('note_on', channel=9, note=42, velocity=0, time=64),
    Message('note_on', channel=9, note=42, velocity=127, time=0),
    Message('note_on', channel=9, note=42, velocity=0, time=64),
    Message('note_on', channel=9, note=35, velocity=127, time=0),
    Message('note_on', channel=9, note=42, velocity=127, time=0),
    Message('note_on', channel=9, note=35, velocity=0, time=64),
    Message('note_on', channel=9, note=42, velocity=0, time=0),
    Message('note_on', channel=9, note=42, velocity=127, time=0),
    Message('note_on', channel=9, note=42, velocity=0, time=64),
    Message('note_on', channel=9, note=42, velocity=127, time=0),
    Message('note_on', channel=9, note=42, velocity=0, time=64),
    Message('note_on', channel=9, note=42, velocity=127, time=0),
    Message('note_on', channel=9, note=37, velocity=127, time=0),
    Message('note_on', channel=9, note=42, velocity=0, time=64),
    Message('note_on', channel=9, note=37, velocity=0, time=0),
    Message('note_on', channel=9, note=42, velocity=127, time=0),
    Message('note_on', channel=9, note=42, velocity=0, time=64),
    Message('note_on', channel=9, note=35, velocity=127, time=0),
    Message('note_on', channel=9, note=42, velocity=127, time=0),
    Message('note_on', channel=9, note=35, velocity=0, time=64),
    Message('note_on', channel=9, note=42, velocity=0, time=0),
    Message('note_on', channel=9, note=35, velocity=127, time=0),
    Message('note_on', channel=9, note=42, velocity=127, time=0),
    Message('note_on', channel=9, note=35, velocity=0, time=64),
    Message('note_on', channel=9, note=42, velocity=0, time=0),
    Message('note_on', channel=9, note=42, velocity=127, time=0),
    Message('note_on', channel=9, note=42, velocity=0, time=64),
    Message('note_on', channel=9, note=42, velocity=127, time=0),
    Message('note_on', channel=9, note=42, velocity=0, time=64),
    Message('note_on', channel=9, note=42, velocity=127, time=0),
    Message('note_on', channel=9, note=37, velocity=127, time=0),
    Message('note_on', channel=9, note=42, velocity=0, time=64),
    Message('note_on', channel=9, note=37, velocity=0, time=0),
    Message('note_on', channel=9, note=42, velocity=127, time=0),
    Message('note_on', channel=9, note=42, velocity=0, time=64),
    Message('note_on', channel=9, note=42, velocity=127, time=0),
    Message('note_on', channel=9, note=42, velocity=0, time=64),
    Message('note_on', channel=9, note=35, velocity=127, time=0),
    Message('note_on', channel=9, note=42, velocity=127, time=0),
    Message('note_on', channel=9, note=35, velocity=0, time=64),
    Message('note_on', channel=9, note=42, velocity=0, time=0),
    Message('note_on', channel=9, note=42, velocity=127, time=0),
    Message('note_on', channel=9, note=42, velocity=0, time=64),
    Message('note_on', channel=9, note=42, velocity=127, time=0),
    Message('note_on', channel=9, note=42, velocity=0, time=64),
    Message('note_on', channel=9, note=42, velocity=127, time=0),
    Message('note_on', channel=9, note=37, velocity=127, time=0),
    Message('note_on', channel=9, note=42, velocity=0, time=64),
    Message('note_on', channel=9, note=37, velocity=0, time=0),
    Message('note_on', channel=9, note=42, velocity=127, time=0),
    Message('note_on', channel=9, note=42, velocity=0, time=64),
    Message('note_on', channel=9, note=35, velocity=127, time=0),
    Message('note_on', channel=9, note=42, velocity=127, time=0),
    Message('note_on', channel=9, note=35, velocity=0, time=64),
    Message('note_on', channel=9, note=42, velocity=0, time=0),
    Message('note_on', channel=9, note=35, velocity=127, time=0),
    Message('note_on', channel=9, note=42, velocity=127, time=0),
    Message('note_on', channel=9, note=35, velocity=0, time=64),
    Message('note_on', channel=9, note=42, velocity=0, time=0),
    Message('note_on', channel=9, note=42, velocity=127, time=0),
    Message('note_on', channel=9, note=42, velocity=0, time=64),
    Message('note_on', channel=9, note=42, velocity=127, time=0),
    Message('note_on', channel=9, note=42, velocity=0, time=64),
    Message('note_on', channel=9, note=42, velocity=127, time=0),
    Message('note_on', channel=9, note=37, velocity=127, time=0),
    Message('note_on', channel=9, note=42, velocity=0, time=64),
    Message('note_on', channel=9, note=37, velocity=0, time=0),
    Message('note_on', channel=9, note=42, velocity=127, time=0),
    Message('note_on', channel=9, note=42, velocity=0, time=64),
    Message('note_on', channel=9, note=42, velocity=127, time=0),
    Message('note_on', channel=9, note=42, velocity=0, time=64),
    Message('note_on', channel=9, note=35, velocity=127, time=0),
    Message('note_on', channel=9, note=42, velocity=127, time=0),
    Message('note_on', channel=9, note=35, velocity=0, time=64),
    Message('note_on', channel=9, note=42, velocity=0, time=0),
    Message('note_on', channel=9, note=42, velocity=127, time=0),
    Message('note_on', channel=9, note=42, velocity=0, time=64),
    Message('note_on', channel=9, note=42, velocity=127, time=0),
    Message('note_on', channel=9, note=42, velocity=0, time=64),
    Message('note_on', channel=9, note=42, velocity=127, time=0),
    Message('note_on', channel=9, note=37, velocity=127, time=0),
    Message('note_on', channel=9, note=42, velocity=0, time=64),
    Message('note_on', channel=9, note=37, velocity=0, time=0),
    Message('note_on', channel=9, note=42, velocity=127, time=0),
    Message('note_on', channel=9, note=42, velocity=0, time=64),
    Message('note_on', channel=9, note=35, velocity=127, time=0),
    Message('note_on', channel=9, note=42, velocity=127, time=0),
    Message('note_on', channel=9, note=35, velocity=0, time=64),
    Message('note_on', channel=9, note=42, velocity=0, time=0),
    Message('note_on', channel=9, note=35, velocity=127, time=0),
    Message('note_on', channel=9, note=42, velocity=127, time=0),
    Message('note_on', channel=9, note=35, velocity=0, time=64),
    Message('note_on', channel=9, note=42, velocity=0, time=0),
    Message('note_on', channel=9, note=42, velocity=127, time=0),
    Message('note_on', channel=9, note=42, velocity=0, time=64),
    Message('note_on', channel=9, note=42, velocity=127, time=0),
    Message('note_on', channel=9, note=42, velocity=0, time=64),
    Message('note_on', channel=9, note=42, velocity=127, time=0),
    Message('note_on', channel=9, note=37, velocity=127, time=0),
    Message('note_on', channel=9, note=42, velocity=0, time=64),
    Message('note_on', channel=9, note=37, velocity=0, time=0),
    Message('note_on', channel=9, note=42, velocity=127, time=0),
    Message('note_on', channel=9, note=42, velocity=0, time=64),
    Message('note_on', channel=9, note=42, velocity=127, time=0),
    Message('note_on', channel=9, note=42, velocity=0, time=64),
    Message('note_on', channel=9, note=35, velocity=127, time=0),
    Message('note_on', channel=9, note=42, velocity=127, time=0),
    Message('note_on', channel=9, note=35, velocity=0, time=64),
    Message('note_on', channel=9, note=42, velocity=0, time=0),
    Message('note_on', channel=9, note=42, velocity=127, time=0),
    Message('note_on', channel=9, note=42, velocity=0, time=64),
    Message('note_on', channel=9, note=42, velocity=127, time=0),
    Message('note_on', channel=9, note=42, velocity=0, time=64),
    Message('note_on', channel=9, note=42, velocity=127, time=0),
    Message('note_on', channel=9, note=37, velocity=127, time=0),
    Message('note_on', channel=9, note=42, velocity=0, time=64),
    Message('note_on', channel=9, note=37, velocity=0, time=0),
    Message('note_on', channel=9, note=42, velocity=127, time=0),
    Message('note_on', channel=9, note=42, velocity=0, time=64),
    Message('note_on', channel=9, note=35, velocity=127, time=0),
    Message('note_on', channel=9, note=42, velocity=127, time=0),
    Message('note_on', channel=9, note=35, velocity=0, time=64),
    Message('note_on', channel=9, note=42, velocity=0, time=0),
    Message('note_on', channel=9, note=35, velocity=127, time=0),
    Message('note_on', channel=9, note=42, velocity=127, time=0),
    Message('note_on', channel=9, note=35, velocity=0, time=64),
    Message('note_on', channel=9, note=42, velocity=0, time=0),
    Message('note_on', channel=9, note=42, velocity=127, time=0),
    Message('note_on', channel=9, note=42, velocity=0, time=64),
    Message('note_on', channel=9, note=42, velocity=127, time=0),
    Message('note_on', channel=9, note=42, velocity=0, time=64),
    Message('note_on', channel=9, note=42, velocity=127, time=0),
    Message('note_on', channel=9, note=37, velocity=127, time=0),
    Message('note_on', channel=9, note=42, velocity=0, time=64),
    Message('note_on', channel=9, note=37, velocity=0, time=0),
    Message('note_on', channel=9, note=42, velocity=127, time=0),
    Message('note_on', channel=9, note=42, velocity=0, time=64),
    Message('note_on', channel=9, note=42, velocity=127, time=0),
    Message('note_on', channel=9, note=42, velocity=0, time=64),
    Message('note_on', channel=9, note=35, velocity=127, time=0),
    Message('note_on', channel=9, note=42, velocity=127, time=0),
    Message('note_on', channel=9, note=35, velocity=0, time=64),
    Message('note_on', channel=9, note=42, velocity=0, time=0),
    Message('note_on', channel=9, note=42, velocity=127, time=0),
    Message('note_on', channel=9, note=42, velocity=0, time=64),
    Message('note_on', channel=9, note=42, velocity=127, time=0),
    Message('note_on', channel=9, note=42, velocity=0, time=64),
    Message('note_on', channel=9, note=42, velocity=127, time=0),
    Message('note_on', channel=9, note=37, velocity=127, time=0),
    Message('note_on', channel=9, note=42, velocity=0, time=64),
    Message('note_on', channel=9, note=37, velocity=0, time=0),
    Message('note_on', channel=9, note=42, velocity=127, time=0),
    Message('note_on', channel=9, note=42, velocity=0, time=64),
    Message('note_on', channel=9, note=35, velocity=127, time=0),
    Message('note_on', channel=9, note=42, velocity=127, time=0),
    Message('note_on', channel=9, note=35, velocity=0, time=64),
    Message('note_on', channel=9, note=42, velocity=0, time=0),
    Message('note_on', channel=9, note=35, velocity=127, time=0),
    Message('note_on', channel=9, note=42, velocity=127, time=0),
    Message('note_on', channel=9, note=35, velocity=0, time=64),
    Message('note_on', channel=9, note=42, velocity=0, time=0),
    Message('note_on', channel=9, note=42, velocity=127, time=0),
    Message('note_on', channel=9, note=42, velocity=0, time=64),
    Message('note_on', channel=9, note=42, velocity=127, time=0),
    Message('note_on', channel=9, note=42, velocity=0, time=64),
    Message('note_on', channel=9, note=42, velocity=127, time=0),
    Message('note_on', channel=9, note=37, velocity=127, time=0),
    Message('note_on', channel=9, note=42, velocity=0, time=64),
    Message('note_on', channel=9, note=37, velocity=0, time=0),
    Message('note_on', channel=9, note=42, velocity=127, time=0),
    Message('note_on', channel=9, note=42, velocity=0, time=64),
    Message('note_on', channel=9, note=42, velocity=127, time=0),
    Message('note_on', channel=9, note=42, velocity=0, time=64),
    Message('note_on', channel=9, note=35, velocity=127, time=0),
    Message('note_on', channel=9, note=42, velocity=127, time=0),
    Message('note_on', channel=9, note=51, velocity=127, time=0),
    Message('note_on', channel=9, note=35, velocity=0, time=64),
    Message('note_on', channel=9, note=42, velocity=0, time=0),
    Message('note_on', channel=9, note=51, velocity=0, time=0),
    Message('note_on', channel=9, note=42, velocity=127, time=0),
    Message('note_on', channel=9, note=42, velocity=0, time=64),
    Message('note_on', channel=9, note=42, velocity=127, time=0),
    Message('note_on', channel=9, note=42, velocity=0, time=64),
    Message('note_on', channel=9, note=42, velocity=127, time=0),
    Message('note_on', channel=9, note=37, velocity=127, time=0),
    Message('note_on', channel=9, note=51, velocity=127, time=0),
    Message('note_on', channel=9, note=42, velocity=0, time=64),
    Message('note_on', channel=9, note=37, velocity=0, time=0),
    Message('note_on', channel=9, note=51, velocity=0, time=0),
    Message('note_on', channel=9, note=42, velocity=127, time=0),
    Message('note_on', channel=9, note=42, velocity=0, time=64),
    Message('note_on', channel=9, note=35, velocity=127, time=0),
    Message('note_on', channel=9, note=42, velocity=127, time=0),
    Message('note_on', channel=9, note=35, velocity=0, time=64),
    Message('note_on', channel=9, note=42, velocity=0, time=0),
    Message('note_on', channel=9, note=35, velocity=127, time=0),
    Message('note_on', channel=9, note=42, velocity=127, time=0),
    Message('note_on', channel=9, note=35, velocity=0, time=64),
    Message('note_on', channel=9, note=42, velocity=0, time=0),
    Message('note_on', channel=9, note=42, velocity=127, time=0),
    Message('note_on', channel=9, note=42, velocity=0, time=64),
    Message('note_on', channel=9, note=38, velocity=127, time=0),
    Message('note_on', channel=9, note=42, velocity=127, time=0),
    Message('note_on', channel=9, note=38, velocity=0, time=64),
    Message('note_on', channel=9, note=42, velocity=0, time=0),
    Message('note_on', channel=9, note=38, velocity=127, time=0),
    Message('note_on', channel=9, note=42, velocity=127, time=0),
    Message('note_on', channel=9, note=37, velocity=127, time=0),
    Message('note_on', channel=9, note=38, velocity=0, time=64),
    Message('note_on', channel=9, note=42, velocity=0, time=0),
    Message('note_on', channel=9, note=37, velocity=0, time=0),
    Message('note_on', channel=9, note=42, velocity=127, time=0),
    Message('note_on', channel=9, note=42, velocity=0, time=64),
    Message('note_on', channel=9, note=38, velocity=127, time=0),
    Message('note_on', channel=9, note=42, velocity=127, time=0),
    Message('note_on', channel=9, note=38, velocity=0, time=64),
    Message('note_on', channel=9, note=42, velocity=0, time=0),
    Message('note_on', channel=9, note=35, velocity=127, time=0),
    Message('note_on', channel=9, note=51, velocity=127, time=0),
    Message('note_on', channel=9, note=35, velocity=0, time=64),
    Message('note_on', channel=9, note=51, velocity=0, time=0),
    Message('note_on', channel=9, note=51, velocity=127, time=0),
    Message('note_on', channel=9, note=51, velocity=0, time=64),
    Message('note_on', channel=9, note=51, velocity=127, time=0),
    Message('note_on', channel=9, note=51, velocity=0, time=64),
    Message('note_on', channel=9, note=38, velocity=127, time=0),
    Message('note_on', channel=9, note=51, velocity=127, time=0),
    Message('note_on', channel=9, note=38, velocity=0, time=64),
    Message('note_on', channel=9, note=51, velocity=0, time=0),
    Message('note_on', channel=9, note=51, velocity=127, time=0),
    Message('note_on', channel=9, note=51, velocity=0, time=64),
    Message('note_on', channel=9, note=35, velocity=127, time=0),
    Message('note_on', channel=9, note=51, velocity=127, time=0),
    Message('note_on', channel=9, note=35, velocity=0, time=64),
    Message('note_on', channel=9, note=51, velocity=0, time=0),
    Message('note_on', channel=9, note=35, velocity=127, time=0),
    Message('note_on', channel=9, note=51, velocity=127, time=0),
    Message('note_on', channel=9, note=35, velocity=0, time=64),
    Message('note_on', channel=9, note=51, velocity=0, time=0),
    Message('note_on', channel=9, note=51, velocity=127, time=0),
    Message('note_on', channel=9, note=51, velocity=0, time=64),
    Message('note_on', channel=9, note=51, velocity=127, time=0),
    Message('note_on', channel=9, note=51, velocity=0, time=64),
    Message('note_on', channel=9, note=38, velocity=127, time=0),
    Message('note_on', channel=9, note=51, velocity=127, time=0),
    Message('note_on', channel=9, note=38, velocity=0, time=64),
    Message('note_on', channel=9, note=51, velocity=0, time=0),
    Message('note_on', channel=9, note=51, velocity=127, time=0),
    Message('note_on', channel=9, note=51, velocity=0, time=64),
    Message('note_on', channel=9, note=51, velocity=127, time=0),
    Message('note_on', channel=9, note=51, velocity=0, time=64),
    Message('note_on', channel=9, note=35, velocity=127, time=0),
    Message('note_on', channel=9, note=51, velocity=127, time=0),
    Message('note_on', channel=9, note=35, velocity=0, time=64),
    Message('note_on', channel=9, note=51, velocity=0, time=0),
    Message('note_on', channel=9, note=51, velocity=127, time=0),
    Message('note_on', channel=9, note=51, velocity=0, time=64),
    Message('note_on', channel=9, note=51, velocity=127, time=0),
    Message('note_on', channel=9, note=51, velocity=0, time=64),
    Message('note_on', channel=9, note=38, velocity=127, time=0),
    Message('note_on', channel=9, note=51, velocity=127, time=0),
    Message('note_on', channel=9, note=38, velocity=0, time=64),
    Message('note_on', channel=9, note=51, velocity=0, time=0),
    Message('note_on', channel=9, note=51, velocity=127, time=0),
    Message('note_on', channel=9, note=51, velocity=0, time=64),
    Message('note_on', channel=9, note=35, velocity=127, time=0),
    Message('note_on', channel=9, note=51, velocity=127, time=0),
    Message('note_on', channel=9, note=35, velocity=0, time=64),
    Message('note_on', channel=9, note=51, velocity=0, time=0),
    Message('note_on', channel=9, note=35, velocity=127, time=0),
    Message('note_on', channel=9, note=51, velocity=127, time=0),
    Message('note_on', channel=9, note=35, velocity=0, time=64),
    Message('note_on', channel=9, note=51, velocity=0, time=0),
    Message('note_on', channel=9, note=51, velocity=127, time=0),
    Message('note_on', channel=9, note=51, velocity=0, time=64),
    Message('note_on', channel=9, note=51, velocity=127, time=0),
    Message('note_on', channel=9, note=51, velocity=0, time=64),
    Message('note_on', channel=9, note=38, velocity=127, time=0),
    Message('note_on', channel=9, note=51, velocity=127, time=0),
    Message('note_on', channel=9, note=38, velocity=0, time=64),
    Message('note_on', channel=9, note=51, velocity=0, time=0),
    Message('note_on', channel=9, note=51, velocity=127, time=0),
    Message('note_on', channel=9, note=51, velocity=0, time=64),
    Message('note_on', channel=9, note=51, velocity=127, time=0),
    Message('note_on', channel=9, note=51, velocity=0, time=64),
    Message('note_on', channel=9, note=35, velocity=127, time=0),
    Message('note_on', channel=9, note=51, velocity=127, time=0),
    Message('note_on', channel=9, note=35, velocity=0, time=64),
    Message('note_on', channel=9, note=51, velocity=0, time=0),
    Message('note_on', channel=9, note=51, velocity=127, time=0),
    Message('note_on', channel=9, note=51, velocity=0, time=64),
    Message('note_on', channel=9, note=51, velocity=127, time=0),
    Message('note_on', channel=9, note=51, velocity=0, time=64),
    Message('note_on', channel=9, note=38, velocity=127, time=0),
    Message('note_on', channel=9, note=51, velocity=127, time=0),
    Message('note_on', channel=9, note=38, velocity=0, time=64),
    Message('note_on', channel=9, note=51, velocity=0, time=0),
    Message('note_on', channel=9, note=51, velocity=127, time=0),
    Message('note_on', channel=9, note=51, velocity=0, time=64),
    Message('note_on', channel=9, note=35, velocity=127, time=0),
    Message('note_on', channel=9, note=51, velocity=127, time=0),
    Message('note_on', channel=9, note=35, velocity=0, time=64),
    Message('note_on', channel=9, note=51, velocity=0, time=0),
    Message('note_on', channel=9, note=35, velocity=127, time=0),
    Message('note_on', channel=9, note=51, velocity=127, time=0),
    Message('note_on', channel=9, note=35, velocity=0, time=64),
    Message('note_on', channel=9, note=51, velocity=0, time=0),
    Message('note_on', channel=9, note=51, velocity=127, time=0),
    Message('note_on', channel=9, note=51, velocity=0, time=64),
    Message('note_on', channel=9, note=51, velocity=127, time=0),
    Message('note_on', channel=9, note=51, velocity=0, time=64),
    Message('note_on', channel=9, note=38, velocity=127, time=0),
    Message('note_on', channel=9, note=51, velocity=127, time=0),
    Message('note_on', channel=9, note=38, velocity=0, time=64),
    Message('note_on', channel=9, note=51, velocity=0, time=0),
    Message('note_on', channel=9, note=51, velocity=127, time=0),
    Message('note_on', channel=9, note=51, velocity=0, time=64),
    Message('note_on', channel=9, note=51, velocity=127, time=0),
    Message('note_on', channel=9, note=51, velocity=0, time=64),
    Message('note_on', channel=9, note=35, velocity=127, time=0),
    Message('note_on', channel=9, note=51, velocity=127, time=0),
    Message('note_on', channel=9, note=35, velocity=0, time=64),
    Message('note_on', channel=9, note=51, velocity=0, time=0),
    Message('note_on', channel=9, note=51, velocity=127, time=0),
    Message('note_on', channel=9, note=51, velocity=0, time=64),
    Message('note_on', channel=9, note=51, velocity=127, time=0),
    Message('note_on', channel=9, note=51, velocity=0, time=64),
    Message('note_on', channel=9, note=38, velocity=127, time=0),
    Message('note_on', channel=9, note=51, velocity=127, time=0),
    Message('note_on', channel=9, note=38, velocity=0, time=64),
    Message('note_on', channel=9, note=51, velocity=0, time=0),
    Message('note_on', channel=9, note=51, velocity=127, time=0),
    Message('note_on', channel=9, note=51, velocity=0, time=64),
    Message('note_on', channel=9, note=35, velocity=127, time=0),
    Message('note_on', channel=9, note=51, velocity=127, time=0),
    Message('note_on', channel=9, note=35, velocity=0, time=64),
    Message('note_on', channel=9, note=51, velocity=0, time=0),
    Message('note_on', channel=9, note=35, velocity=127, time=0),
    Message('note_on', channel=9, note=51, velocity=127, time=0),
    Message('note_on', channel=9, note=35, velocity=0, time=64),
    Message('note_on', channel=9, note=51, velocity=0, time=0),
    Message('note_on', channel=9, note=51, velocity=127, time=0),
    Message('note_on', channel=9, note=51, velocity=0, time=64),
    Message('note_on', channel=9, note=51, velocity=127, time=0),
    Message('note_on', channel=9, note=51, velocity=0, time=64),
    Message('note_on', channel=9, note=38, velocity=127, time=0),
    Message('note_on', channel=9, note=51, velocity=127, time=0),
    Message('note_on', channel=9, note=38, velocity=0, time=64),
    Message('note_on', channel=9, note=51, velocity=0, time=0),
    Message('note_on', channel=9, note=51, velocity=127, time=0),
    Message('note_on', channel=9, note=51, velocity=0, time=64),
    Message('note_on', channel=9, note=51, velocity=127, time=0),
    Message('note_on', channel=9, note=51, velocity=0, time=64),
    Message('note_on', channel=9, note=35, velocity=127, time=0),
    Message('note_on', channel=9, note=51, velocity=127, time=0),
    Message('note_on', channel=9, note=35, velocity=0, time=64),
    Message('note_on', channel=9, note=51, velocity=0, time=0),
    Message('note_on', channel=9, note=51, velocity=127, time=0),
    Message('note_on', channel=9, note=51, velocity=0, time=64),
    Message('note_on', channel=9, note=51, velocity=127, time=0),
    Message('note_on', channel=9, note=51, velocity=0, time=64),
    Message('note_on', channel=9, note=38, velocity=127, time=0),
    Message('note_on', channel=9, note=51, velocity=127, time=0),
    Message('note_on', channel=9, note=38, velocity=0, time=64),
    Message('note_on', channel=9, note=51, velocity=0, time=0),
    Message('note_on', channel=9, note=51, velocity=127, time=0),
    Message('note_on', channel=9, note=51, velocity=0, time=64),
    Message('note_on', channel=9, note=35, velocity=127, time=0),
    Message('note_on', channel=9, note=51, velocity=127, time=0),
    Message('note_on', channel=9, note=35, velocity=0, time=64),
    Message('note_on', channel=9, note=51, velocity=0, time=0),
    Message('note_on', channel=9, note=35, velocity=127, time=0),
    Message('note_on', channel=9, note=51, velocity=127, time=0),
    Message('note_on', channel=9, note=35, velocity=0, time=64),
    Message('note_on', channel=9, note=51, velocity=0, time=0),
    Message('note_on', channel=9, note=51, velocity=127, time=0),
    Message('note_on', channel=9, note=51, velocity=0, time=64),
    Message('note_on', channel=9, note=51, velocity=127, time=0),
    Message('note_on', channel=9, note=51, velocity=0, time=64),
    Message('note_on', channel=9, note=38, velocity=127, time=0),
    Message('note_on', channel=9, note=51, velocity=127, time=0),
    Message('note_on', channel=9, note=38, velocity=0, time=64),
    Message('note_on', channel=9, note=51, velocity=0, time=0),
    Message('note_on', channel=9, note=51, velocity=127, time=0),
    Message('note_on', channel=9, note=51, velocity=0, time=64),
    Message('note_on', channel=9, note=51, velocity=127, time=0),
    Message('note_on', channel=9, note=51, velocity=0, time=64),
    Message('note_on', channel=9, note=35, velocity=127, time=0),
    Message('note_on', channel=9, note=51, velocity=127, time=0),
    Message('note_on', channel=9, note=35, velocity=0, time=64),
    Message('note_on', channel=9, note=51, velocity=0, time=0),
    Message('note_on', channel=9, note=51, velocity=127, time=0),
    Message('note_on', channel=9, note=51, velocity=0, time=64),
    Message('note_on', channel=9, note=51, velocity=127, time=0),
    Message('note_on', channel=9, note=51, velocity=0, time=64),
    Message('note_on', channel=9, note=38, velocity=127, time=0),
    Message('note_on', channel=9, note=51, velocity=127, time=0),
    Message('note_on', channel=9, note=38, velocity=0, time=64),
    Message('note_on', channel=9, note=51, velocity=0, time=0),
    Message('note_on', channel=9, note=51, velocity=127, time=0),
    Message('note_on', channel=9, note=51, velocity=0, time=64),
    Message('note_on', channel=9, note=35, velocity=127, time=0),
    Message('note_on', channel=9, note=51, velocity=127, time=0),
    Message('note_on', channel=9, note=35, velocity=0, time=64),
    Message('note_on', channel=9, note=51, velocity=0, time=0),
    Message('note_on', channel=9, note=35, velocity=127, time=0),
    Message('note_on', channel=9, note=51, velocity=127, time=0),
    Message('note_on', channel=9, note=35, velocity=0, time=64),
    Message('note_on', channel=9, note=51, velocity=0, time=0),
    Message('note_on', channel=9, note=51, velocity=127, time=0),
    Message('note_on', channel=9, note=51, velocity=0, time=64),
    Message('note_on', channel=9, note=51, velocity=127, time=0),
    Message('note_on', channel=9, note=51, velocity=0, time=64),
    Message('note_on', channel=9, note=38, velocity=127, time=0),
    Message('note_on', channel=9, note=51, velocity=127, time=0),
    Message('note_on', channel=9, note=38, velocity=0, time=64),
    Message('note_on', channel=9, note=51, velocity=0, time=0),
    Message('note_on', channel=9, note=51, velocity=127, time=0),
    Message('note_on', channel=9, note=51, velocity=0, time=64),
    Message('note_on', channel=9, note=51, velocity=127, time=0),
    Message('note_on', channel=9, note=51, velocity=0, time=64),
    Message('note_on', channel=9, note=35, velocity=127, time=0),
    Message('note_on', channel=9, note=51, velocity=127, time=0),
    Message('note_on', channel=9, note=35, velocity=0, time=64),
    Message('note_on', channel=9, note=51, velocity=0, time=0),
    Message('note_on', channel=9, note=51, velocity=127, time=0),
    Message('note_on', channel=9, note=51, velocity=0, time=64),
    Message('note_on', channel=9, note=51, velocity=127, time=0),
    Message('note_on', channel=9, note=51, velocity=0, time=64),
    Message('note_on', channel=9, note=38, velocity=127, time=0),
    Message('note_on', channel=9, note=51, velocity=127, time=0),
    Message('note_on', channel=9, note=38, velocity=0, time=64),
    Message('note_on', channel=9, note=51, velocity=0, time=0),
    Message('note_on', channel=9, note=51, velocity=127, time=0),
    Message('note_on', channel=9, note=51, velocity=0, time=64),
    Message('note_on', channel=9, note=35, velocity=127, time=0),
    Message('note_on', channel=9, note=51, velocity=127, time=0),
    Message('note_on', channel=9, note=35, velocity=0, time=64),
    Message('note_on', channel=9, note=51, velocity=0, time=0),
    Message('note_on', channel=9, note=35, velocity=127, time=0),
    Message('note_on', channel=9, note=51, velocity=127, time=0),
    Message('note_on', channel=9, note=35, velocity=0, time=64),
    Message('note_on', channel=9, note=51, velocity=0, time=0),
    Message('note_on', channel=9, note=51, velocity=127, time=0),
    Message('note_on', channel=9, note=51, velocity=0, time=64),
    Message('note_on', channel=9, note=51, velocity=127, time=0),
    Message('note_on', channel=9, note=51, velocity=0, time=64),
    Message('note_on', channel=9, note=38, velocity=127, time=0),
    Message('note_on', channel=9, note=51, velocity=127, time=0),
    Message('note_on', channel=9, note=38, velocity=0, time=64),
    Message('note_on', channel=9, note=51, velocity=0, time=0),
    Message('note_on', channel=9, note=51, velocity=127, time=0),
    Message('note_on', channel=9, note=51, velocity=0, time=64),
    Message('note_on', channel=9, note=51, velocity=127, time=0),
    Message('note_on', channel=9, note=51, velocity=0, time=64),
    Message('note_on', channel=9, note=35, velocity=127, time=0),
    Message('note_on', channel=9, note=51, velocity=127, time=0),
    Message('note_on', channel=9, note=35, velocity=0, time=64),
    Message('note_on', channel=9, note=51, velocity=0, time=0),
    Message('note_on', channel=9, note=51, velocity=127, time=0),
    Message('note_on', channel=9, note=51, velocity=0, time=64),
    Message('note_on', channel=9, note=51, velocity=127, time=0),
    Message('note_on', channel=9, note=51, velocity=0, time=64),
    Message('note_on', channel=9, note=38, velocity=127, time=0),
    Message('note_on', channel=9, note=51, velocity=127, time=0),
    Message('note_on', channel=9, note=38, velocity=0, time=64),
    Message('note_on', channel=9, note=51, velocity=0, time=0),
    Message('note_on', channel=9, note=51, velocity=127, time=0),
    Message('note_on', channel=9, note=51, velocity=0, time=64),
    Message('note_on', channel=9, note=35, velocity=127, time=0),
    Message('note_on', channel=9, note=51, velocity=127, time=0),
    Message('note_on', channel=9, note=35, velocity=0, time=64),
    Message('note_on', channel=9, note=51, velocity=0, time=0),
    Message('note_on', channel=9, note=35, velocity=127, time=0),
    Message('note_on', channel=9, note=51, velocity=127, time=0),
    Message('note_on', channel=9, note=35, velocity=0, time=64),
    Message('note_on', channel=9, note=51, velocity=0, time=0),
    Message('note_on', channel=9, note=51, velocity=127, time=0),
    Message('note_on', channel=9, note=51, velocity=0, time=64),
    Message('note_on', channel=9, note=51, velocity=127, time=0),
    Message('note_on', channel=9, note=51, velocity=0, time=64),
    Message('note_on', channel=9, note=38, velocity=127, time=0),
    Message('note_on', channel=9, note=51, velocity=127, time=0),
    Message('note_on', channel=9, note=38, velocity=0, time=64),
    Message('note_on', channel=9, note=51, velocity=0, time=0),
    Message('note_on', channel=9, note=51, velocity=127, time=0),
    Message('note_on', channel=9, note=51, velocity=0, time=64),
    Message('note_on', channel=9, note=51, velocity=127, time=0),
    Message('note_on', channel=9, note=51, velocity=0, time=64),
    Message('note_on', channel=9, note=35, velocity=127, time=0),
    Message('note_on', channel=9, note=51, velocity=127, time=0),
    Message('note_on', channel=9, note=35, velocity=0, time=64),
    Message('note_on', channel=9, note=51, velocity=0, time=0),
    Message('note_on', channel=9, note=51, velocity=127, time=0),
    Message('note_on', channel=9, note=51, velocity=0, time=64),
    Message('note_on', channel=9, note=51, velocity=127, time=0),
    Message('note_on', channel=9, note=51, velocity=0, time=64),
    Message('note_on', channel=9, note=38, velocity=127, time=0),
    Message('note_on', channel=9, note=51, velocity=127, time=0),
    Message('note_on', channel=9, note=38, velocity=0, time=64),
    Message('note_on', channel=9, note=51, velocity=0, time=0),
    Message('note_on', channel=9, note=51, velocity=127, time=0),
    Message('note_on', channel=9, note=51, velocity=0, time=64),
    Message('note_on', channel=9, note=35, velocity=127, time=0),
    Message('note_on', channel=9, note=51, velocity=127, time=0),
    Message('note_on', channel=9, note=35, velocity=0, time=64),
    Message('note_on', channel=9, note=51, velocity=0, time=0),
    Message('note_on', channel=9, note=35, velocity=127, time=0),
    Message('note_on', channel=9, note=51, velocity=127, time=0),
    Message('note_on', channel=9, note=35, velocity=0, time=64),
    Message('note_on', channel=9, note=51, velocity=0, time=0),
    Message('note_on', channel=9, note=51, velocity=127, time=0),
    Message('note_on', channel=9, note=51, velocity=0, time=64),
    Message('note_on', channel=9, note=51, velocity=127, time=0),
    Message('note_on', channel=9, note=51, velocity=0, time=64),
    Message('note_on', channel=9, note=38, velocity=127, time=0),
    Message('note_on', channel=9, note=51, velocity=127, time=0),
    Message('note_on', channel=9, note=38, velocity=0, time=64),
    Message('note_on', channel=9, note=51, velocity=0, time=0),
    Message('note_on', channel=9, note=51, velocity=127, time=0),
    Message('note_on', channel=9, note=51, velocity=0, time=64),
    Message('note_on', channel=9, note=51, velocity=127, time=0),
    Message('note_on', channel=9, note=51, velocity=0, time=64),
    Message('note_on', channel=9, note=35, velocity=127, time=0),
    Message('note_on', channel=9, note=51, velocity=127, time=0),
    Message('note_on', channel=9, note=35, velocity=0, time=64),
    Message('note_on', channel=9, note=51, velocity=0, time=0),
    Message('note_on', channel=9, note=51, velocity=127, time=0),
    Message('note_on', channel=9, note=51, velocity=0, time=64),
    Message('note_on', channel=9, note=51, velocity=127, time=0),
    Message('note_on', channel=9, note=51, velocity=0, time=64),
    Message('note_on', channel=9, note=38, velocity=127, time=0),
    Message('note_on', channel=9, note=51, velocity=127, time=0),
    Message('note_on', channel=9, note=38, velocity=0, time=64),
    Message('note_on', channel=9, note=51, velocity=0, time=0),
    Message('note_on', channel=9, note=51, velocity=127, time=0),
    Message('note_on', channel=9, note=51, velocity=0, time=64),
    Message('note_on', channel=9, note=35, velocity=127, time=0),
    Message('note_on', channel=9, note=51, velocity=127, time=0),
    Message('note_on', channel=9, note=35, velocity=0, time=64),
    Message('note_on', channel=9, note=51, velocity=0, time=0),
    Message('note_on', channel=9, note=35, velocity=127, time=0),
    Message('note_on', channel=9, note=51, velocity=127, time=0),
    Message('note_on', channel=9, note=35, velocity=0, time=64),
    Message('note_on', channel=9, note=51, velocity=0, time=0),
    Message('note_on', channel=9, note=51, velocity=127, time=0),
    Message('note_on', channel=9, note=51, velocity=0, time=64),
    Message('note_on', channel=9, note=51, velocity=127, time=0),
    Message('note_on', channel=9, note=51, velocity=0, time=64),
    Message('note_on', channel=9, note=38, velocity=127, time=0),
    Message('note_on', channel=9, note=51, velocity=127, time=0),
    Message('note_on', channel=9, note=38, velocity=0, time=64),
    Message('note_on', channel=9, note=51, velocity=0, time=0),
    Message('note_on', channel=9, note=51, velocity=127, time=0),
    Message('note_on', channel=9, note=51, velocity=0, time=64),
    Message('note_on', channel=9, note=51, velocity=127, time=0),
    Message('note_on', channel=9, note=51, velocity=0, time=64),
    Message('note_on', channel=9, note=35, velocity=127, time=0),
    Message('note_on', channel=9, note=51, velocity=127, time=0),
    Message('note_on', channel=9, note=35, velocity=0, time=64),
    Message('note_on', channel=9, note=51, velocity=0, time=0),
    Message('note_on', channel=9, note=51, velocity=127, time=0),
    Message('note_on', channel=9, note=51, velocity=0, time=64),
    Message('note_on', channel=9, note=51, velocity=127, time=0),
    Message('note_on', channel=9, note=51, velocity=0, time=64),
    Message('note_on', channel=9, note=38, velocity=127, time=0),
    Message('note_on', channel=9, note=51, velocity=127, time=0),
    Message('note_on', channel=9, note=38, velocity=0, time=64),
    Message('note_on', channel=9, note=51, velocity=0, time=0),
    Message('note_on', channel=9, note=51, velocity=127, time=0),
    Message('note_on', channel=9, note=51, velocity=0, time=64),
    Message('note_on', channel=9, note=35, velocity=127, time=0),
    Message('note_on', channel=9, note=51, velocity=127, time=0),
    Message('note_on', channel=9, note=35, velocity=0, time=64),
    Message('note_on', channel=9, note=51, velocity=0, time=0),
    Message('note_on', channel=9, note=35, velocity=127, time=0),
    Message('note_on', channel=9, note=51, velocity=127, time=0),
    Message('note_on', channel=9, note=35, velocity=0, time=64),
    Message('note_on', channel=9, note=51, velocity=0, time=0),
    Message('note_on', channel=9, note=51, velocity=127, time=0),
    Message('note_on', channel=9, note=51, velocity=0, time=64),
    Message('note_on', channel=9, note=51, velocity=127, time=0),
    Message('note_on', channel=9, note=51, velocity=0, time=64),
    Message('note_on', channel=9, note=38, velocity=127, time=0),
    Message('note_on', channel=9, note=51, velocity=127, time=0),
    Message('note_on', channel=9, note=38, velocity=0, time=64),
    Message('note_on', channel=9, note=51, velocity=0, time=0),
    Message('note_on', channel=9, note=51, velocity=127, time=0),
    Message('note_on', channel=9, note=51, velocity=0, time=64),
    Message('note_on', channel=9, note=51, velocity=127, time=0),
    Message('note_on', channel=9, note=51, velocity=0, time=64),
    Message('note_on', channel=9, note=35, velocity=127, time=0),
    Message('note_on', channel=9, note=42, velocity=127, time=0),
    Message('note_on', channel=9, note=35, velocity=0, time=64),
    Message('note_on', channel=9, note=42, velocity=0, time=0),
    Message('note_on', channel=9, note=42, velocity=127, time=0),
    Message('note_on', channel=9, note=42, velocity=0, time=64),
    Message('note_on', channel=9, note=42, velocity=127, time=0),
    Message('note_on', channel=9, note=42, velocity=0, time=64),
    Message('note_on', channel=9, note=42, velocity=127, time=0),
    Message('note_on', channel=9, note=37, velocity=127, time=0),
    Message('note_on', channel=9, note=42, velocity=0, time=64),
    Message('note_on', channel=9, note=37, velocity=0, time=0),
    Message('note_on', channel=9, note=42, velocity=127, time=0),
    Message('note_on', channel=9, note=42, velocity=0, time=64),
    Message('note_on', channel=9, note=35, velocity=127, time=0),
    Message('note_on', channel=9, note=42, velocity=127, time=0),
    Message('note_on', channel=9, note=35, velocity=0, time=64),
    Message('note_on', channel=9, note=42, velocity=0, time=0),
    Message('note_on', channel=9, note=35, velocity=127, time=0),
    Message('note_on', channel=9, note=42, velocity=127, time=0),
    Message('note_on', channel=9, note=35, velocity=0, time=64),
    Message('note_on', channel=9, note=42, velocity=0, time=0),
    Message('note_on', channel=9, note=42, velocity=127, time=0),
    Message('note_on', channel=9, note=42, velocity=0, time=64),
    Message('note_on', channel=9, note=42, velocity=127, time=0),
    Message('note_on', channel=9, note=42, velocity=0, time=64),
    Message('note_on', channel=9, note=35, velocity=127, time=192),
    Message('note_on', channel=9, note=42, velocity=127, time=0),
    Message('note_on', channel=9, note=35, velocity=0, time=64),
    Message('note_on', channel=9, note=42, velocity=0, time=0),
    Message('note_on', channel=9, note=42, velocity=127, time=0),
    Message('note_on', channel=9, note=42, velocity=0, time=64),
    Message('note_on', channel=9, note=42, velocity=127, time=0),
    Message('note_on', channel=9, note=42, velocity=0, time=64),
    Message('note_on', channel=9, note=42, velocity=127, time=0),
    Message('note_on', channel=9, note=37, velocity=127, time=0),
    Message('note_on', channel=9, note=42, velocity=0, time=64),
    Message('note_on', channel=9, note=37, velocity=0, time=0),
    Message('note_on', channel=9, note=42, velocity=127, time=0),
    Message('note_on', channel=9, note=42, velocity=0, time=64),
    Message('note_on', channel=9, note=35, velocity=127, time=0),
    Message('note_on', channel=9, note=42, velocity=127, time=0),
    Message('note_on', channel=9, note=35, velocity=0, time=64),
    Message('note_on', channel=9, note=42, velocity=0, time=0),
    Message('note_on', channel=9, note=35, velocity=127, time=0),
    Message('note_on', channel=9, note=42, velocity=127, time=0),
    Message('note_on', channel=9, note=35, velocity=0, time=64),
    Message('note_on', channel=9, note=42, velocity=0, time=0),
    Message('note_on', channel=9, note=43, velocity=127, time=358),
    Message('note_on', channel=9, note=43, velocity=0, time=18),
    Message('note_on', channel=9, note=41, velocity=127, time=2),
    Message('note_on', channel=9, note=38, velocity=127, time=15),
    Message('note_on', channel=9, note=41, velocity=0, time=8),
    Message('note_on', channel=9, note=38, velocity=0, time=59),
    MetaMessage('end_of_track', time=0)]),
  MidiTrack([
    MetaMessage('midi_port', port=1, time=0),
    MetaMessage('track_name', name='rhodes1             ', time=0),
    Message('program_change', channel=2, program=4, time=0),
    Message('control_change', channel=2, control=7, value=80, time=0),
    Message('control_change', channel=2, control=64, value=0, time=0),
    Message('note_on', channel=2, note=60, velocity=70, time=1542),
    Message('note_on', channel=2, note=64, velocity=57, time=64),
    Message('note_on', channel=2, note=67, velocity=59, time=61),
    Message('control_change', channel=2, control=64, value=127, time=21),
    Message('note_on', channel=2, note=72, velocity=82, time=43),
    Message('note_on', channel=2, note=67, velocity=0, time=16),
    Message('note_on', channel=2, note=64, velocity=0, time=6),
    Message('note_on', channel=2, note=60, velocity=0, time=21),
    Message('note_on', channel=2, note=72, velocity=0, time=16),
    Message('note_on', channel=2, note=67, velocity=42, time=5),
    Message('note_on', channel=2, note=64, velocity=63, time=62),
    Message('control_change', channel=2, control=64, value=0, time=42),
    Message('note_on', channel=2, note=60, velocity=64, time=22),
    Message('note_on', channel=2, note=64, velocity=0, time=8),
    Message('note_on', channel=2, note=67, velocity=0, time=2),
    Message('note_on', channel=2, note=64, velocity=63, time=53),
    Message('control_change', channel=2, control=64, value=127, time=51),
    Message('note_on', channel=2, note=67, velocity=58, time=13),
    Message('note_on', channel=2, note=72, velocity=63, time=65),
    Message('note_on', channel=2, note=67, velocity=0, time=23),
    Message('note_on', channel=2, note=64, velocity=0, time=6),
    Message('note_on', channel=2, note=60, velocity=0, time=24),
    Message('note_on', channel=2, note=72, velocity=0, time=6),
    Message('note_on', channel=2, note=67, velocity=50, time=15),
    Message('note_on', channel=2, note=64, velocity=61, time=56),
    Message('note_on', channel=2, note=48, velocity=66, time=30),
    Message('control_change', channel=2, control=64, value=0, time=18),
    Message('note_on', channel=2, note=64, velocity=0, time=16),
    Message('note_on', channel=2, note=60, velocity=70, time=0),
    Message('note_on', channel=2, note=36, velocity=34, time=1),
    Message('note_on', channel=2, note=67, velocity=0, time=8),
    Message('note_on', channel=2, note=64, velocity=66, time=45),
    Message('control_change', channel=2, control=64, value=127, time=40),
    Message('note_on', channel=2, note=67, velocity=63, time=26),
    Message('note_on', channel=2, note=72, velocity=68, time=64),
    Message('note_on', channel=2, note=67, velocity=0, time=19),
    Message('note_on', channel=2, note=64, velocity=0, time=10),
    Message('note_on', channel=2, note=72, velocity=0, time=35),
    Message('note_on', channel=2, note=67, velocity=60, time=1),
    Message('note_on', channel=2, note=60, velocity=0, time=40),
    Message('note_on', channel=2, note=67, velocity=0, time=15),
    Message('note_on', channel=2, note=67, velocity=30, time=11),
    Message('note_on', channel=2, note=64, velocity=66, time=3),
    Message('note_on', channel=2, note=48, velocity=0, time=5),
    Message('note_on', channel=2, note=43, velocity=66, time=22),
    Message('control_change', channel=2, control=64, value=0, time=21),
    Message('note_on', channel=2, note=60, velocity=64, time=11),
    Message('note_on', channel=2, note=48, velocity=58, time=2),
    Message('note_on', channel=2, note=43, velocity=0, time=2),
    Message('note_on', channel=2, note=64, velocity=0, time=16),
    Message('control_change', channel=2, control=64, value=127, time=11),
    Message('note_on', channel=2, note=67, velocity=0, time=17),
    Message('note_on', channel=2, note=64, velocity=55, time=26),
    Message('note_on', channel=2, note=67, velocity=54, time=59),
    Message('note_on', channel=2, note=72, velocity=72, time=67),
    Message('note_on', channel=2, note=67, velocity=0, time=12),
    Message('note_on', channel=2, note=64, velocity=0, time=3),
    Message('note_on', channel=2, note=60, velocity=0, time=30),
    Message('note_on', channel=2, note=72, velocity=0, time=16),
    Message('note_on', channel=2, note=67, velocity=60, time=5),
    Message('note_on', channel=2, note=67, velocity=0, time=61),
    Message('note_on', channel=2, note=64, velocity=76, time=0),
    Message('control_change', channel=2, control=64, value=0, time=1),
    Message('note_on', channel=2, note=64, velocity=0, time=16),
    Message('note_on', channel=2, note=36, velocity=0, time=2),
    Message('note_on', channel=2, note=48, velocity=0, time=11),
    Message('note_on', channel=2, note=60, velocity=70, time=37),
    Message('note_on', channel=2, note=64, velocity=57, time=64),
    Message('note_on', channel=2, note=67, velocity=59, time=61),
    Message('control_change', channel=2, control=64, value=127, time=21),
    Message('note_on', channel=2, note=72, velocity=82, time=43),
    Message('note_on', channel=2, note=67, velocity=0, time=16),
    Message('note_on', channel=2, note=64, velocity=0, time=6),
    Message('note_on', channel=2, note=60, velocity=0, time=21),
    Message('note_on', channel=2, note=72, velocity=0, time=16),
    Message('note_on', channel=2, note=67, velocity=42, time=5),
    Message('note_on', channel=2, note=64, velocity=63, time=62),
    Message('control_change', channel=2, control=64, value=0, time=42),
    Message('note_on', channel=2, note=60, velocity=64, time=22),
    Message('note_on', channel=2, note=64, velocity=0, time=8),
    Message('note_on', channel=2, note=67, velocity=0, time=2),
    Message('note_on', channel=2, note=64, velocity=63, time=53),
    Message('control_change', channel=2, control=64, value=127, time=51),
    Message('note_on', channel=2, note=67, velocity=58, time=13),
    Message('note_on', channel=2, note=72, velocity=63, time=65),
    Message('note_on', channel=2, note=67, velocity=0, time=23),
    Message('note_on', channel=2, note=64, velocity=0, time=6),
    Message('note_on', channel=2, note=60, velocity=0, time=24),
    Message('note_on', channel=2, note=72, velocity=0, time=6),
    Message('note_on', channel=2, note=67, velocity=50, time=15),
    Message('note_on', channel=2, note=64, velocity=61, time=56),
    Message('note_on', channel=2, note=48, velocity=66, time=30),
    Message('control_change', channel=2, control=64, value=0, time=18),
    Message('note_on', channel=2, note=64, velocity=0, time=16),
    Message('note_on', channel=2, note=60, velocity=70, time=0),
    Message('note_on', channel=2, note=36, velocity=34, time=1),
    Message('note_on', channel=2, note=67, velocity=0, time=8),
    Message('note_on', channel=2, note=64, velocity=66, time=45),
    Message('control_change', channel=2, control=64, value=127, time=40),
    Message('note_on', channel=2, note=67, velocity=63, time=26),
    Message('note_on', channel=2, note=72, velocity=68, time=64),
    Message('note_on', channel=2, note=67, velocity=0, time=19),
    Message('note_on', channel=2, note=64, velocity=0, time=10),
    Message('note_on', channel=2, note=72, velocity=0, time=35),
    Message('note_on', channel=2, note=67, velocity=60, time=1),
    Message('note_on', channel=2, note=60, velocity=0, time=40),
    Message('note_on', channel=2, note=67, velocity=0, time=15),
    Message('note_on', channel=2, note=67, velocity=30, time=11),
    Message('note_on', channel=2, note=64, velocity=66, time=3),
    Message('note_on', channel=2, note=48, velocity=0, time=5),
    Message('note_on', channel=2, note=43, velocity=66, time=22),
    Message('control_change', channel=2, control=64, value=0, time=21),
    Message('note_on', channel=2, note=60, velocity=64, time=11),
    Message('note_on', channel=2, note=48, velocity=58, time=2),
    Message('note_on', channel=2, note=43, velocity=0, time=2),
    Message('note_on', channel=2, note=64, velocity=0, time=16),
    Message('control_change', channel=2, control=64, value=127, time=11),
    Message('note_on', channel=2, note=67, velocity=0, time=17),
    Message('note_on', channel=2, note=64, velocity=55, time=26),
    Message('note_on', channel=2, note=67, velocity=54, time=59),
    Message('note_on', channel=2, note=72, velocity=72, time=67),
    Message('note_on', channel=2, note=67, velocity=0, time=12),
    Message('note_on', channel=2, note=64, velocity=0, time=3),
    Message('note_on', channel=2, note=60, velocity=0, time=30),
    Message('note_on', channel=2, note=72, velocity=0, time=16),
    Message('note_on', channel=2, note=67, velocity=60, time=5),
    Message('note_on', channel=2, note=67, velocity=0, time=61),
    Message('note_on', channel=2, note=64, velocity=76, time=0),
    Message('control_change', channel=2, control=64, value=0, time=1),
    Message('note_on', channel=2, note=64, velocity=0, time=16),
    Message('note_on', channel=2, note=36, velocity=0, time=2),
    Message('note_on', channel=2, note=48, velocity=0, time=11),
    Message('note_on', channel=2, note=60, velocity=70, time=31),
    Message('control_change', channel=2, control=64, value=127, time=28),
    Message('note_on', channel=2, note=64, velocity=55, time=40),
    Message('note_on', channel=2, note=67, velocity=30, time=64),
    Message('note_on', channel=2, note=72, velocity=66, time=64),
    Message('note_on', channel=2, note=67, velocity=0, time=16),
    Message('note_on', channel=2, note=64, velocity=0, time=5),
    Message('note_on', channel=2, note=67, velocity=53, time=43),
    Message('note_on', channel=2, note=72, velocity=0, time=26),
    Message('note_on', channel=2, note=60, velocity=0, time=10),
    Message('note_on', channel=2, note=64, velocity=66, time=25),
    Message('control_change', channel=2, control=64, value=0, time=34),
    Message('note_on', channel=2, note=48, velocity=51, time=30),
    Message('note_on', channel=2, note=60, velocity=56, time=2),
    Message('note_on', channel=2, note=64, velocity=0, time=3),
    Message('note_on', channel=2, note=67, velocity=0, time=5),
    Message('control_change', channel=2, control=64, value=127, time=3),
    Message('note_on', channel=2, note=64, velocity=53, time=62),
    Message('note_on', channel=2, note=67, velocity=53, time=58),
    Message('note_on', channel=2, note=72, velocity=72, time=64),
    Message('note_on', channel=2, note=64, velocity=0, time=14),
    Message('note_on', channel=2, note=67, velocity=0, time=0),
    Message('note_on', channel=2, note=60, velocity=0, time=21),
    Message('note_on', channel=2, note=67, velocity=70, time=26),
    Message('note_on', channel=2, note=72, velocity=0, time=16),
    Message('note_on', channel=2, note=67, velocity=0, time=49),
    Message('note_on', channel=2, note=48, velocity=0, time=4),
    Message('note_on', channel=2, note=64, velocity=72, time=1),
    Message('note_on', channel=2, note=64, velocity=0, time=34),
    Message('control_change', channel=2, control=64, value=0, time=13),
    Message('note_on', channel=2, note=40, velocity=54, time=12),
    Message('note_on', channel=2, note=59, velocity=60, time=0),
    Message('control_change', channel=2, control=64, value=127, time=24),
    Message('note_on', channel=2, note=64, velocity=51, time=44),
    Message('note_on', channel=2, note=67, velocity=53, time=60),
    Message('note_on', channel=2, note=71, velocity=76, time=64),
    Message('note_on', channel=2, note=67, velocity=0, time=13),
    Message('note_on', channel=2, note=64, velocity=0, time=7),
    Message('note_on', channel=2, note=67, velocity=59, time=43),
    Message('note_on', channel=2, note=71, velocity=0, time=3),
    Message('note_on', channel=2, note=59, velocity=0, time=34),
    Message('note_on', channel=2, note=40, velocity=0, time=19),
    Message('note_on', channel=2, note=64, velocity=74, time=8),
    Message('note_on', channel=2, note=40, velocity=57, time=38),
    Message('control_change', channel=2, control=64, value=0, time=10),
    Message('note_on', channel=2, note=59, velocity=68, time=22),
    Message('control_change', channel=2, control=64, value=127, time=13),
    Message('note_on', channel=2, note=64, velocity=0, time=16),
    Message('note_on', channel=2, note=67, velocity=0, time=19),
    Message('note_on', channel=2, note=64, velocity=70, time=16),
    Message('note_on', channel=2, note=67, velocity=58, time=56),
    Message('note_on', channel=2, note=71, velocity=82, time=64),
    Message('note_on', channel=2, note=67, velocity=0, time=15),
    Message('note_on', channel=2, note=64, velocity=0, time=3),
    Message('note_on', channel=2, note=71, velocity=0, time=41),
    Message('note_on', channel=2, note=67, velocity=60, time=10),
    Message('note_on', channel=2, note=59, velocity=0, time=19),
    Message('note_on', channel=2, note=64, velocity=76, time=42),
    Message('note_on', channel=2, note=67, velocity=0, time=3),
    Message('note_on', channel=2, note=64, velocity=0, time=24),
    Message('control_change', channel=2, control=64, value=0, time=2),
    Message('note_on', channel=2, note=40, velocity=0, time=12),
    Message('note_on', channel=2, note=43, velocity=54, time=24),
    Message('note_on', channel=2, note=62, velocity=60, time=0),
    Message('control_change', channel=2, control=64, value=127, time=24),
    Message('note_on', channel=2, note=64, velocity=51, time=44),
    Message('note_on', channel=2, note=67, velocity=53, time=60),
    Message('note_on', channel=2, note=70, velocity=76, time=64),
    Message('note_on', channel=2, note=67, velocity=0, time=13),
    Message('note_on', channel=2, note=64, velocity=0, time=7),
    Message('note_on', channel=2, note=67, velocity=59, time=43),
    Message('note_on', channel=2, note=70, velocity=0, time=3),
    Message('note_on', channel=2, note=62, velocity=0, time=34),
    Message('note_on', channel=2, note=43, velocity=0, time=19),
    Message('note_on', channel=2, note=64, velocity=74, time=8),
    Message('note_on', channel=2, note=43, velocity=57, time=38),
    Message('control_change', channel=2, control=64, value=0, time=10),
    Message('note_on', channel=2, note=62, velocity=68, time=22),
    Message('control_change', channel=2, control=64, value=127, time=13),
    Message('note_on', channel=2, note=64, velocity=0, time=16),
    Message('note_on', channel=2, note=67, velocity=0, time=19),
    Message('note_on', channel=2, note=64, velocity=70, time=16),
    Message('note_on', channel=2, note=67, velocity=58, time=56),
    Message('note_on', channel=2, note=70, velocity=82, time=64),
    Message('note_on', channel=2, note=67, velocity=0, time=15),
    Message('note_on', channel=2, note=64, velocity=0, time=3),
    Message('note_on', channel=2, note=70, velocity=0, time=41),
    Message('note_on', channel=2, note=67, velocity=60, time=10),
    Message('note_on', channel=2, note=62, velocity=0, time=19),
    Message('note_on', channel=2, note=64, velocity=76, time=42),
    Message('note_on', channel=2, note=67, velocity=0, time=3),
    Message('note_on', channel=2, note=64, velocity=0, time=24),
    Message('control_change', channel=2, control=64, value=0, time=2),
    Message('note_on', channel=2, note=43, velocity=0, time=12),
    Message('note_on', channel=2, note=45, velocity=54, time=24),
    Message('note_on', channel=2, note=64, velocity=60, time=0),
    Message('control_change', channel=2, control=64, value=127, time=24),
    Message('note_on', channel=2, note=67, velocity=51, time=44),
    Message('note_on', channel=2, note=69, velocity=53, time=60),
    Message('note_on', channel=2, note=73, velocity=76, time=64),
    Message('note_on', channel=2, note=69, velocity=0, time=13),
    Message('note_on', channel=2, note=67, velocity=0, time=7),
    Message('note_on', channel=2, note=69, velocity=59, time=43),
    Message('note_on', channel=2, note=73, velocity=0, time=3),
    Message('note_on', channel=2, note=64, velocity=0, time=34),
    Message('note_on', channel=2, note=45, velocity=0, time=19),
    Message('note_on', channel=2, note=67, velocity=74, time=8),
    Message('note_on', channel=2, note=45, velocity=57, time=38),
    Message('control_change', channel=2, control=64, value=0, time=10),
    Message('note_on', channel=2, note=64, velocity=68, time=22),
    Message('control_change', channel=2, control=64, value=127, time=13),
    Message('note_on', channel=2, note=67, velocity=0, time=16),
    Message('note_on', channel=2, note=69, velocity=0, time=19),
    Message('note_on', channel=2, note=67, velocity=70, time=16),
    Message('note_on', channel=2, note=69, velocity=58, time=56),
    Message('note_on', channel=2, note=73, velocity=82, time=64),
    Message('note_on', channel=2, note=69, velocity=0, time=15),
    Message('note_on', channel=2, note=67, velocity=0, time=3),
    Message('note_on', channel=2, note=73, velocity=0, time=41),
    Message('note_on', channel=2, note=69, velocity=60, time=10),
    Message('note_on', channel=2, note=64, velocity=0, time=19),
    Message('note_on', channel=2, note=67, velocity=76, time=42),
    Message('note_on', channel=2, note=69, velocity=0, time=3),
    Message('note_on', channel=2, note=67, velocity=0, time=24),
    Message('control_change', channel=2, control=64, value=0, time=2),
    Message('note_on', channel=2, note=45, velocity=0, time=12),
    Message('note_on', channel=2, note=50, velocity=54, time=24),
    Message('note_on', channel=2, note=62, velocity=60, time=0),
    Message('control_change', channel=2, control=64, value=127, time=24),
    Message('note_on', channel=2, note=65, velocity=51, time=44),
    Message('note_on', channel=2, note=69, velocity=53, time=60),
    Message('note_on', channel=2, note=74, velocity=76, time=64),
    Message('note_on', channel=2, note=69, velocity=0, time=13),
    Message('note_on', channel=2, note=65, velocity=0, time=7),
    Message('note_on', channel=2, note=69, velocity=59, time=43),
    Message('note_on', channel=2, note=74, velocity=0, time=3),
    Message('note_on', channel=2, note=62, velocity=0, time=34),
    Message('note_on', channel=2, note=50, velocity=0, time=19),
    Message('note_on', channel=2, note=65, velocity=74, time=8),
    Message('note_on', channel=2, note=50, velocity=57, time=38),
    Message('control_change', channel=2, control=64, value=0, time=10),
    Message('note_on', channel=2, note=38, velocity=58, time=21),
    Message('note_on', channel=2, note=62, velocity=68, time=1),
    Message('control_change', channel=2, control=64, value=127, time=13),
    Message('note_on', channel=2, note=65, velocity=0, time=16),
    Message('note_on', channel=2, note=69, velocity=0, time=19),
    Message('note_on', channel=2, note=65, velocity=70, time=16),
    Message('note_on', channel=2, note=69, velocity=58, time=56),
    Message('note_on', channel=2, note=74, velocity=82, time=64),
    Message('note_on', channel=2, note=69, velocity=0, time=15),
    Message('note_on', channel=2, note=65, velocity=0, time=3),
    Message('note_on', channel=2, note=74, velocity=0, time=41),
    Message('note_on', channel=2, note=69, velocity=60, time=10),
    Message('note_on', channel=2, note=62, velocity=0, time=19),
    Message('note_on', channel=2, note=65, velocity=76, time=42),
    Message('note_on', channel=2, note=69, velocity=0, time=3),
    Message('note_on', channel=2, note=65, velocity=0, time=24),
    Message('control_change', channel=2, control=64, value=0, time=2),
    Message('note_on', channel=2, note=38, velocity=0, time=12),
    Message('note_on', channel=2, note=50, velocity=0, time=7),
    Message('note_on', channel=2, note=62, velocity=70, time=13),
    Message('control_change', channel=2, control=64, value=127, time=28),
    Message('note_on', channel=2, note=65, velocity=55, time=40),
    Message('note_on', channel=2, note=69, velocity=30, time=64),
    Message('note_on', channel=2, note=72, velocity=66, time=64),
    Message('note_on', channel=2, note=69, velocity=0, time=16),
    Message('note_on', channel=2, note=65, velocity=0, time=5),
    Message('note_on', channel=2, note=69, velocity=53, time=43),
    Message('note_on', channel=2, note=72, velocity=0, time=26),
    Message('note_on', channel=2, note=62, velocity=0, time=10),
    Message('note_on', channel=2, note=65, velocity=66, time=25),
    Message('control_change', channel=2, control=64, value=0, time=34),
    Message('note_on', channel=2, note=50, velocity=51, time=30),
    Message('note_on', channel=2, note=62, velocity=56, time=2),
    Message('note_on', channel=2, note=65, velocity=0, time=3),
    Message('note_on', channel=2, note=69, velocity=0, time=5),
    Message('control_change', channel=2, control=64, value=127, time=3),
    Message('note_on', channel=2, note=65, velocity=53, time=62),
    Message('note_on', channel=2, note=69, velocity=53, time=58),
    Message('note_on', channel=2, note=72, velocity=72, time=64),
    Message('note_on', channel=2, note=65, velocity=0, time=14),
    Message('note_on', channel=2, note=69, velocity=0, time=0),
    Message('note_on', channel=2, note=62, velocity=0, time=21),
    Message('note_on', channel=2, note=69, velocity=70, time=26),
    Message('note_on', channel=2, note=72, velocity=0, time=16),
    Message('note_on', channel=2, note=69, velocity=0, time=49),
    Message('note_on', channel=2, note=50, velocity=0, time=4),
    Message('note_on', channel=2, note=65, velocity=72, time=1),
    Message('note_on', channel=2, note=65, velocity=0, time=34),
    Message('control_change', channel=2, control=64, value=0, time=13),
    Message('note_on', channel=2, note=43, velocity=54, time=12),
    Message('note_on', channel=2, note=62, velocity=60, time=0),
    Message('control_change', channel=2, control=64, value=127, time=24),
    Message('note_on', channel=2, note=65, velocity=51, time=44),
    Message('note_on', channel=2, note=67, velocity=53, time=60),
    Message('note_on', channel=2, note=71, velocity=76, time=64),
    Message('note_on', channel=2, note=67, velocity=0, time=13),
    Message('note_on', channel=2, note=65, velocity=0, time=7),
    Message('note_on', channel=2, note=67, velocity=59, time=43),
    Message('note_on', channel=2, note=71, velocity=0, time=3),
    Message('note_on', channel=2, note=62, velocity=0, time=34),
    Message('note_on', channel=2, note=43, velocity=0, time=19),
    Message('note_on', channel=2, note=65, velocity=74, time=8),
    Message('note_on', channel=2, note=43, velocity=57, time=38),
    Message('control_change', channel=2, control=64, value=0, time=10),
    Message('note_on', channel=2, note=62, velocity=68, time=22),
    Message('control_change', channel=2, control=64, value=127, time=13),
    Message('note_on', channel=2, note=65, velocity=0, time=16),
    Message('note_on', channel=2, note=67, velocity=0, time=19),
    Message('note_on', channel=2, note=65, velocity=70, time=16),
    Message('note_on', channel=2, note=67, velocity=58, time=56),
    Message('note_on', channel=2, note=71, velocity=82, time=64),
    Message('note_on', channel=2, note=67, velocity=0, time=15),
    Message('note_on', channel=2, note=65, velocity=0, time=3),
    Message('note_on', channel=2, note=71, velocity=0, time=41),
    Message('note_on', channel=2, note=67, velocity=60, time=10),
    Message('note_on', channel=2, note=62, velocity=0, time=19),
    Message('note_on', channel=2, note=65, velocity=76, time=42),
    Message('note_on', channel=2, note=67, velocity=0, time=3),
    Message('note_on', channel=2, note=65, velocity=0, time=24),
    Message('control_change', channel=2, control=64, value=0, time=2),
    Message('note_on', channel=2, note=43, velocity=0, time=12),
    Message('note_on', channel=2, note=48, velocity=54, time=24),
    Message('note_on', channel=2, note=60, velocity=60, time=0),
    Message('control_change', channel=2, control=64, value=127, time=24),
    Message('note_on', channel=2, note=64, velocity=51, time=44),
    Message('note_on', channel=2, note=67, velocity=53, time=60),
    Message('note_on', channel=2, note=72, velocity=76, time=64),
    Message('note_on', channel=2, note=67, velocity=0, time=13),
    Message('note_on', channel=2, note=64, velocity=0, time=7),
    Message('note_on', channel=2, note=67, velocity=59, time=43),
    Message('note_on', channel=2, note=72, velocity=0, time=3),
    Message('note_on', channel=2, note=60, velocity=0, time=34),
    Message('note_on', channel=2, note=48, velocity=0, time=19),
    Message('note_on', channel=2, note=64, velocity=74, time=8),
    Message('note_on', channel=2, note=48, velocity=57, time=38),
    Message('control_change', channel=2, control=64, value=0, time=10),
    Message('note_on', channel=2, note=36, velocity=58, time=21),
    Message('note_on', channel=2, note=60, velocity=68, time=1),
    Message('control_change', channel=2, control=64, value=127, time=13),
    Message('note_on', channel=2, note=64, velocity=0, time=16),
    Message('note_on', channel=2, note=67, velocity=0, time=19),
    Message('note_on', channel=2, note=64, velocity=70, time=16),
    Message('note_on', channel=2, note=67, velocity=58, time=56),
    Message('note_on', channel=2, note=72, velocity=82, time=64),
    Message('note_on', channel=2, note=67, velocity=0, time=15),
    Message('note_on', channel=2, note=64, velocity=0, time=3),
    Message('note_on', channel=2, note=72, velocity=0, time=41),
    Message('note_on', channel=2, note=67, velocity=60, time=10),
    Message('note_on', channel=2, note=60, velocity=0, time=19),
    Message('note_on', channel=2, note=64, velocity=76, time=42),
    Message('note_on', channel=2, note=67, velocity=0, time=3),
    Message('note_on', channel=2, note=64, velocity=0, time=24),
    Message('control_change', channel=2, control=64, value=0, time=2),
    Message('note_on', channel=2, note=36, velocity=0, time=12),
    Message('note_on', channel=2, note=48, velocity=0, time=7),
    Message('note_on', channel=2, note=48, velocity=58, time=13),
    Message('control_change', channel=2, control=64, value=127, time=0),
    Message('note_on', channel=2, note=60, velocity=66, time=0),
    Message('note_on', channel=2, note=36, velocity=52, time=0),
    Message('note_on', channel=2, note=64, velocity=60, time=67),
    Message('note_on', channel=2, note=67, velocity=59, time=65),
    Message('note_on', channel=2, note=48, velocity=0, time=58),
    Message('note_on', channel=2, note=67, velocity=0, time=3),
    Message('note_on', channel=2, note=72, velocity=80, time=3),
    Message('note_on', channel=2, note=64, velocity=0, time=18),
    Message('note_on', channel=2, note=67, velocity=58, time=45),
    Message('note_on', channel=2, note=72, velocity=0, time=19),
    Message('note_on', channel=2, note=60, velocity=0, time=3),
    Message('note_on', channel=2, note=48, velocity=70, time=10),
    Message('note_on', channel=2, note=60, velocity=82, time=30),
    Message('note_on', channel=2, note=36, velocity=0, time=32),
    Message('note_on', channel=2, note=48, velocity=0, time=5),
    Message('control_change', channel=2, control=64, value=0, time=2),
    Message('note_on', channel=2, note=60, velocity=0, time=1),
    Message('note_on', channel=2, note=67, velocity=0, time=3),
    Message('note_on', channel=2, note=48, velocity=55, time=21),
    Message('note_on', channel=2, note=60, velocity=53, time=3),
    Message('control_change', channel=2, control=64, value=127, time=4),
    Message('note_on', channel=2, note=64, velocity=70, time=60),
    Message('note_on', channel=2, note=67, velocity=58, time=63),
    Message('note_on', channel=2, note=71, velocity=78, time=65),
    Message('note_on', channel=2, note=64, velocity=0, time=18),
    Message('note_on', channel=2, note=67, velocity=0, time=3),
    Message('note_on', channel=2, note=71, velocity=0, time=35),
    Message('note_on', channel=2, note=67, velocity=60, time=8),
    Message('note_on', channel=2, note=60, velocity=0, time=18),
    Message('control_change', channel=2, control=64, value=0, time=45),
    Message('note_on', channel=2, note=64, velocity=72, time=0),
    Message('note_on', channel=2, note=67, velocity=0, time=29),
    Message('note_on', channel=2, note=64, velocity=0, time=12),
    Message('note_on', channel=2, note=48, velocity=0, time=8),
    Message('note_on', channel=2, note=60, velocity=70, time=12),
    Message('control_change', channel=2, control=64, value=127, time=28),
    Message('note_on', channel=2, note=64, velocity=55, time=40),
    Message('note_on', channel=2, note=67, velocity=30, time=64),
    Message('note_on', channel=2, note=70, velocity=66, time=64),
    Message('note_on', channel=2, note=67, velocity=0, time=16),
    Message('note_on', channel=2, note=64, velocity=0, time=5),
    Message('note_on', channel=2, note=67, velocity=53, time=43),
    Message('note_on', channel=2, note=70, velocity=0, time=26),
    Message('note_on', channel=2, note=60, velocity=0, time=10),
    Message('note_on', channel=2, note=64, velocity=66, time=25),
    Message('control_change', channel=2, control=64, value=0, time=34),
    Message('note_on', channel=2, note=48, velocity=51, time=30),
    Message('note_on', channel=2, note=60, velocity=56, time=2),
    Message('note_on', channel=2, note=64, velocity=0, time=3),
    Message('note_on', channel=2, note=67, velocity=0, time=5),
    Message('control_change', channel=2, control=64, value=127, time=3),
    Message('note_on', channel=2, note=64, velocity=53, time=62),
    Message('note_on', channel=2, note=67, velocity=53, time=58),
    Message('note_on', channel=2, note=70, velocity=72, time=64),
    Message('note_on', channel=2, note=64, velocity=0, time=14),
    Message('note_on', channel=2, note=67, velocity=0, time=0),
    Message('note_on', channel=2, note=60, velocity=0, time=21),
    Message('note_on', channel=2, note=67, velocity=70, time=26),
    Message('note_on', channel=2, note=70, velocity=0, time=16),
    Message('note_on', channel=2, note=67, velocity=0, time=49),
    Message('note_on', channel=2, note=48, velocity=0, time=4),
    Message('note_on', channel=2, note=64, velocity=72, time=1),
    Message('note_on', channel=2, note=64, velocity=0, time=34),
    Message('control_change', channel=2, control=64, value=0, time=13),
    Message('note_on', channel=2, note=60, velocity=70, time=8),
    Message('control_change', channel=2, control=64, value=127, time=28),
    Message('note_on', channel=2, note=65, velocity=55, time=40),
    Message('note_on', channel=2, note=69, velocity=30, time=64),
    Message('note_on', channel=2, note=72, velocity=66, time=64),
    Message('note_on', channel=2, note=69, velocity=0, time=16),
    Message('note_on', channel=2, note=65, velocity=0, time=5),
    Message('note_on', channel=2, note=69, velocity=53, time=43),
    Message('note_on', channel=2, note=72, velocity=0, time=26),
    Message('note_on', channel=2, note=60, velocity=0, time=10),
    Message('note_on', channel=2, note=65, velocity=66, time=25),
    Message('control_change', channel=2, control=64, value=0, time=34),
    Message('note_on', channel=2, note=41, velocity=51, time=30),
    Message('note_on', channel=2, note=60, velocity=56, time=2),
    Message('note_on', channel=2, note=65, velocity=0, time=3),
    Message('note_on', channel=2, note=69, velocity=0, time=5),
    Message('control_change', channel=2, control=64, value=127, time=3),
    Message('note_on', channel=2, note=65, velocity=53, time=62),
    Message('note_on', channel=2, note=69, velocity=53, time=58),
    Message('note_on', channel=2, note=72, velocity=72, time=64),
    Message('note_on', channel=2, note=65, velocity=0, time=14),
    Message('note_on', channel=2, note=69, velocity=0, time=0),
    Message('note_on', channel=2, note=60, velocity=0, time=21),
    Message('note_on', channel=2, note=69, velocity=70, time=26),
    Message('note_on', channel=2, note=72, velocity=0, time=16),
    Message('note_on', channel=2, note=69, velocity=0, time=49),
    Message('note_on', channel=2, note=41, velocity=0, time=4),
    Message('note_on', channel=2, note=65, velocity=72, time=1),
    Message('note_on', channel=2, note=65, velocity=0, time=34),
    Message('control_change', channel=2, control=64, value=0, time=13),
    Message('note_on', channel=2, note=60, velocity=70, time=8),
    Message('control_change', channel=2, control=64, value=127, time=28),
    Message('note_on', channel=2, note=65, velocity=55, time=40),
    Message('note_on', channel=2, note=68, velocity=30, time=64),
    Message('note_on', channel=2, note=72, velocity=66, time=64),
    Message('note_on', channel=2, note=68, velocity=0, time=16),
    Message('note_on', channel=2, note=65, velocity=0, time=5),
    Message('note_on', channel=2, note=68, velocity=53, time=43),
    Message('note_on', channel=2, note=72, velocity=0, time=26),
    Message('note_on', channel=2, note=60, velocity=0, time=10),
    Message('note_on', channel=2, note=65, velocity=66, time=25),
    Message('control_change', channel=2, control=64, value=0, time=34),
    Message('note_on', channel=2, note=41, velocity=51, time=30),
    Message('note_on', channel=2, note=60, velocity=56, time=2),
    Message('note_on', channel=2, note=65, velocity=0, time=3),
    Message('note_on', channel=2, note=68, velocity=0, time=5),
    Message('control_change', channel=2, control=64, value=127, time=3),
    Message('note_on', channel=2, note=65, velocity=53, time=62),
    Message('note_on', channel=2, note=68, velocity=53, time=58),
    Message('note_on', channel=2, note=72, velocity=72, time=64),
    Message('note_on', channel=2, note=65, velocity=0, time=14),
    Message('note_on', channel=2, note=68, velocity=0, time=0),
    Message('note_on', channel=2, note=60, velocity=0, time=21),
    Message('note_on', channel=2, note=68, velocity=70, time=26),
    Message('note_on', channel=2, note=72, velocity=0, time=16),
    Message('note_on', channel=2, note=68, velocity=0, time=49),
    Message('note_on', channel=2, note=41, velocity=0, time=4),
    Message('note_on', channel=2, note=65, velocity=72, time=1),
    Message('note_on', channel=2, note=65, velocity=0, time=34),
    Message('control_change', channel=2, control=64, value=0, time=13),
    Message('note_on', channel=2, note=60, velocity=70, time=8),
    Message('control_change', channel=2, control=64, value=127, time=28),
    Message('note_on', channel=2, note=64, velocity=55, time=40),
    Message('note_on', channel=2, note=67, velocity=30, time=64),
    Message('note_on', channel=2, note=72, velocity=66, time=64),
    Message('note_on', channel=2, note=67, velocity=0, time=16),
    Message('note_on', channel=2, note=64, velocity=0, time=5),
    Message('note_on', channel=2, note=67, velocity=53, time=43),
    Message('note_on', channel=2, note=72, velocity=0, time=26),
    Message('note_on', channel=2, note=60, velocity=0, time=10),
    Message('note_on', channel=2, note=64, velocity=66, time=25),
    Message('control_change', channel=2, control=64, value=0, time=34),
    Message('note_on', channel=2, note=48, velocity=51, time=30),
    Message('note_on', channel=2, note=60, velocity=56, time=2),
    Message('note_on', channel=2, note=64, velocity=0, time=3),
    Message('note_on', channel=2, note=67, velocity=0, time=5),
    Message('control_change', channel=2, control=64, value=127, time=3),
    Message('note_on', channel=2, note=64, velocity=53, time=62),
    Message('note_on', channel=2, note=67, velocity=53, time=58),
    Message('note_on', channel=2, note=72, velocity=72, time=64),
    Message('note_on', channel=2, note=64, velocity=0, time=14),
    Message('note_on', channel=2, note=67, velocity=0, time=0),
    Message('note_on', channel=2, note=60, velocity=0, time=21),
    Message('note_on', channel=2, note=67, velocity=70, time=26),
    Message('note_on', channel=2, note=72, velocity=0, time=16),
    Message('note_on', channel=2, note=67, velocity=0, time=49),
    Message('note_on', channel=2, note=48, velocity=0, time=4),
    Message('note_on', channel=2, note=64, velocity=72, time=1),
    Message('note_on', channel=2, note=64, velocity=0, time=34),
    Message('control_change', channel=2, control=64, value=0, time=13),
    Message('note_on', channel=2, note=43, velocity=54, time=12),
    Message('note_on', channel=2, note=62, velocity=60, time=0),
    Message('control_change', channel=2, control=64, value=127, time=24),
    Message('note_on', channel=2, note=65, velocity=51, time=44),
    Message('note_on', channel=2, note=67, velocity=53, time=60),
    Message('note_on', channel=2, note=71, velocity=76, time=64),
    Message('note_on', channel=2, note=67, velocity=0, time=13),
    Message('note_on', channel=2, note=65, velocity=0, time=7),
    Message('note_on', channel=2, note=67, velocity=59, time=43),
    Message('note_on', channel=2, note=71, velocity=0, time=3),
    Message('note_on', channel=2, note=62, velocity=0, time=34),
    Message('note_on', channel=2, note=43, velocity=0, time=19),
    Message('note_on', channel=2, note=65, velocity=74, time=8),
    Message('note_on', channel=2, note=43, velocity=57, time=38),
    Message('control_change', channel=2, control=64, value=0, time=10),
    Message('note_on', channel=2, note=62, velocity=68, time=22),
    Message('control_change', channel=2, control=64, value=127, time=13),
    Message('note_on', channel=2, note=65, velocity=0, time=16),
    Message('note_on', channel=2, note=67, velocity=0, time=19),
    Message('note_on', channel=2, note=65, velocity=70, time=16),
    Message('note_on', channel=2, note=67, velocity=58, time=56),
    Message('note_on', channel=2, note=71, velocity=82, time=64),
    Message('note_on', channel=2, note=67, velocity=0, time=15),
    Message('note_on', channel=2, note=65, velocity=0, time=3),
    Message('note_on', channel=2, note=71, velocity=0, time=41),
    Message('note_on', channel=2, note=67, velocity=60, time=10),
    Message('note_on', channel=2, note=62, velocity=0, time=19),
    Message('note_on', channel=2, note=65, velocity=76, time=42),
    Message('note_on', channel=2, note=67, velocity=0, time=3),
    Message('note_on', channel=2, note=65, velocity=0, time=24),
    Message('control_change', channel=2, control=64, value=0, time=2),
    Message('note_on', channel=2, note=43, velocity=0, time=12),
    Message('note_on', channel=2, note=41, velocity=54, time=24),
    Message('note_on', channel=2, note=60, velocity=60, time=0),
    Message('control_change', channel=2, control=64, value=127, time=24),
    Message('note_on', channel=2, note=62, velocity=51, time=44),
    Message('note_on', channel=2, note=65, velocity=53, time=60),
    Message('note_on', channel=2, note=69, velocity=76, time=64),
    Message('note_on', channel=2, note=65, velocity=0, time=13),
    Message('note_on', channel=2, note=62, velocity=0, time=7),
    Message('note_on', channel=2, note=65, velocity=59, time=43),
    Message('note_on', channel=2, note=69, velocity=0, time=3),
    Message('note_on', channel=2, note=60, velocity=0, time=34),
    Message('note_on', channel=2, note=41, velocity=0, time=19),
    Message('note_on', channel=2, note=62, velocity=74, time=8),
    Message('note_on', channel=2, note=41, velocity=57, time=38),
    Message('control_change', channel=2, control=64, value=0, time=10),
    Message('note_on', channel=2, note=60, velocity=68, time=22),
    Message('control_change', channel=2, control=64, value=127, time=13),
    Message('note_on', channel=2, note=62, velocity=0, time=16),
    Message('note_on', channel=2, note=65, velocity=0, time=19),
    Message('note_on', channel=2, note=62, velocity=70, time=16),
    Message('note_on', channel=2, note=65, velocity=58, time=56),
    Message('note_on', channel=2, note=69, velocity=82, time=64),
    Message('note_on', channel=2, note=65, velocity=0, time=15),
    Message('note_on', channel=2, note=62, velocity=0, time=3),
    Message('note_on', channel=2, note=69, velocity=0, time=41),
    Message('note_on', channel=2, note=65, velocity=60, time=10),
    Message('note_on', channel=2, note=60, velocity=0, time=19),
    Message('note_on', channel=2, note=62, velocity=76, time=42),
    Message('note_on', channel=2, note=65, velocity=0, time=3),
    Message('note_on', channel=2, note=62, velocity=0, time=24),
    Message('control_change', channel=2, control=64, value=0, time=2),
    Message('note_on', channel=2, note=41, velocity=0, time=12),
    Message('note_on', channel=2, note=48, velocity=54, time=24),
    Message('note_on', channel=2, note=60, velocity=60, time=0),
    Message('control_change', channel=2, control=64, value=127, time=24),
    Message('note_on', channel=2, note=64, velocity=51, time=44),
    Message('note_on', channel=2, note=67, velocity=53, time=60),
    Message('note_on', channel=2, note=72, velocity=76, time=64),
    Message('note_on', channel=2, note=67, velocity=0, time=13),
    Message('note_on', channel=2, note=64, velocity=0, time=7),
    Message('note_on', channel=2, note=67, velocity=59, time=43),
    Message('note_on', channel=2, note=72, velocity=0, time=3),
    Message('note_on', channel=2, note=60, velocity=0, time=34),
    Message('note_on', channel=2, note=48, velocity=0, time=19),
    Message('note_on', channel=2, note=64, velocity=74, time=8),
    Message('note_on', channel=2, note=48, velocity=57, time=38),
    Message('control_change', channel=2, control=64, value=0, time=10),
    Message('note_on', channel=2, note=36, velocity=58, time=21),
    Message('note_on', channel=2, note=60, velocity=68, time=1),
    Message('control_change', channel=2, control=64, value=127, time=13),
    Message('note_on', channel=2, note=64, velocity=0, time=16),
    Message('note_on', channel=2, note=67, velocity=0, time=19),
    Message('note_on', channel=2, note=64, velocity=70, time=16),
    Message('note_on', channel=2, note=67, velocity=58, time=56),
    Message('note_on', channel=2, note=72, velocity=82, time=64),
    Message('note_on', channel=2, note=67, velocity=0, time=15),
    Message('note_on', channel=2, note=64, velocity=0, time=3),
    Message('note_on', channel=2, note=72, velocity=0, time=41),
    Message('note_on', channel=2, note=67, velocity=60, time=10),
    Message('note_on', channel=2, note=60, velocity=0, time=19),
    Message('note_on', channel=2, note=64, velocity=76, time=42),
    Message('note_on', channel=2, note=67, velocity=0, time=3),
    Message('note_on', channel=2, note=64, velocity=0, time=24),
    Message('control_change', channel=2, control=64, value=0, time=2),
    Message('note_on', channel=2, note=36, velocity=0, time=12),
    Message('note_on', channel=2, note=48, velocity=0, time=7),
    Message('note_on', channel=2, note=60, velocity=70, time=13),
    Message('control_change', channel=2, control=64, value=127, time=28),
    Message('note_on', channel=2, note=64, velocity=55, time=40),
    Message('note_on', channel=2, note=67, velocity=30, time=64),
    Message('note_on', channel=2, note=72, velocity=66, time=64),
    Message('note_on', channel=2, note=67, velocity=0, time=16),
    Message('note_on', channel=2, note=64, velocity=0, time=5),
    Message('note_on', channel=2, note=67, velocity=53, time=43),
    Message('note_on', channel=2, note=72, velocity=0, time=26),
    Message('note_on', channel=2, note=60, velocity=0, time=10),
    Message('note_on', channel=2, note=64, velocity=66, time=25),
    Message('control_change', channel=2, control=64, value=0, time=34),
    Message('note_on', channel=2, note=48, velocity=51, time=30),
    Message('note_on', channel=2, note=60, velocity=56, time=2),
    Message('note_on', channel=2, note=64, velocity=0, time=3),
    Message('note_on', channel=2, note=67, velocity=0, time=5),
    Message('control_change', channel=2, control=64, value=127, time=3),
    Message('note_on', channel=2, note=64, velocity=53, time=62),
    Message('note_on', channel=2, note=67, velocity=53, time=58),
    Message('note_on', channel=2, note=72, velocity=72, time=64),
    Message('note_on', channel=2, note=64, velocity=0, time=14),
    Message('note_on', channel=2, note=67, velocity=0, time=0),
    Message('note_on', channel=2, note=60, velocity=0, time=21),
    Message('note_on', channel=2, note=67, velocity=70, time=26),
    Message('note_on', channel=2, note=72, velocity=0, time=16),
    Message('note_on', channel=2, note=67, velocity=0, time=49),
    Message('note_on', channel=2, note=48, velocity=0, time=4),
    Message('note_on', channel=2, note=64, velocity=72, time=1),
    Message('note_on', channel=2, note=64, velocity=0, time=34),
    Message('control_change', channel=2, control=64, value=0, time=13),
    Message('note_on', channel=2, note=40, velocity=54, time=12),
    Message('note_on', channel=2, note=59, velocity=60, time=0),
    Message('control_change', channel=2, control=64, value=127, time=24),
    Message('note_on', channel=2, note=64, velocity=51, time=44),
    Message('note_on', channel=2, note=67, velocity=53, time=60),
    Message('note_on', channel=2, note=71, velocity=76, time=64),
    Message('note_on', channel=2, note=67, velocity=0, time=13),
    Message('note_on', channel=2, note=64, velocity=0, time=7),
    Message('note_on', channel=2, note=67, velocity=59, time=43),
    Message('note_on', channel=2, note=71, velocity=0, time=3),
    Message('note_on', channel=2, note=59, velocity=0, time=34),
    Message('note_on', channel=2, note=40, velocity=0, time=19),
    Message('note_on', channel=2, note=64, velocity=74, time=8),
    Message('note_on', channel=2, note=40, velocity=57, time=38),
    Message('control_change', channel=2, control=64, value=0, time=10),
    Message('note_on', channel=2, note=59, velocity=68, time=22),
    Message('control_change', channel=2, control=64, value=127, time=13),
    Message('note_on', channel=2, note=64, velocity=0, time=16),
    Message('note_on', channel=2, note=67, velocity=0, time=19),
    Message('note_on', channel=2, note=64, velocity=70, time=16),
    Message('note_on', channel=2, note=67, velocity=58, time=56),
    Message('note_on', channel=2, note=71, velocity=82, time=64),
    Message('note_on', channel=2, note=67, velocity=0, time=15),
    Message('note_on', channel=2, note=64, velocity=0, time=3),
    Message('note_on', channel=2, note=71, velocity=0, time=41),
    Message('note_on', channel=2, note=67, velocity=60, time=10),
    Message('note_on', channel=2, note=59, velocity=0, time=19),
    Message('note_on', channel=2, note=64, velocity=76, time=42),
    Message('note_on', channel=2, note=67, velocity=0, time=3),
    Message('note_on', channel=2, note=64, velocity=0, time=24),
    Message('control_change', channel=2, control=64, value=0, time=2),
    Message('note_on', channel=2, note=40, velocity=0, time=12),
    Message('note_on', channel=2, note=62, velocity=70, time=20),
    Message('control_change', channel=2, control=64, value=127, time=28),
    Message('note_on', channel=2, note=64, velocity=55, time=40),
    Message('note_on', channel=2, note=67, velocity=30, time=64),
    Message('note_on', channel=2, note=70, velocity=66, time=64),
    Message('note_on', channel=2, note=67, velocity=0, time=16),
    Message('note_on', channel=2, note=64, velocity=0, time=5),
    Message('note_on', channel=2, note=67, velocity=53, time=43),
    Message('note_on', channel=2, note=70, velocity=0, time=26),
    Message('note_on', channel=2, note=62, velocity=0, time=10),
    Message('note_on', channel=2, note=64, velocity=66, time=25),
    Message('control_change', channel=2, control=64, value=0, time=34),
    Message('note_on', channel=2, note=43, velocity=51, time=30),
    Message('note_on', channel=2, note=62, velocity=56, time=2),
    Message('note_on', channel=2, note=64, velocity=0, time=3),
    Message('note_on', channel=2, note=67, velocity=0, time=5),
    Message('control_change', channel=2, control=64, value=127, time=3),
    Message('note_on', channel=2, note=64, velocity=53, time=62),
    Message('note_on', channel=2, note=67, velocity=53, time=58),
    Message('note_on', channel=2, note=70, velocity=72, time=64),
    Message('note_on', channel=2, note=64, velocity=0, time=14),
    Message('note_on', channel=2, note=67, velocity=0, time=0),
    Message('note_on', channel=2, note=62, velocity=0, time=21),
    Message('note_on', channel=2, note=67, velocity=70, time=26),
    Message('note_on', channel=2, note=70, velocity=0, time=16),
    Message('note_on', channel=2, note=67, velocity=0, time=49),
    Message('note_on', channel=2, note=43, velocity=0, time=4),
    Message('note_on', channel=2, note=64, velocity=72, time=1),
    Message('note_on', channel=2, note=64, velocity=0, time=34),
    Message('control_change', channel=2, control=64, value=0, time=13),
    Message('note_on', channel=2, note=64, velocity=70, time=8),
    Message('control_change', channel=2, control=64, value=127, time=28),
    Message('note_on', channel=2, note=67, velocity=55, time=40),
    Message('note_on', channel=2, note=69, velocity=30, time=64),
    Message('note_on', channel=2, note=73, velocity=66, time=64),
    Message('note_on', channel=2, note=69, velocity=0, time=16),
    Message('note_on', channel=2, note=67, velocity=0, time=5),
    Message('note_on', channel=2, note=69, velocity=53, time=43),
    Message('note_on', channel=2, note=73, velocity=0, time=26),
    Message('note_on', channel=2, note=64, velocity=0, time=10),
    Message('note_on', channel=2, note=67, velocity=66, time=25),
    Message('control_change', channel=2, control=64, value=0, time=34),
    Message('note_on', channel=2, note=45, velocity=51, time=30),
    Message('note_on', channel=2, note=64, velocity=56, time=2),
    Message('note_on', channel=2, note=67, velocity=0, time=3),
    Message('note_on', channel=2, note=69, velocity=0, time=5),
    Message('control_change', channel=2, control=64, value=127, time=3),
    Message('note_on', channel=2, note=67, velocity=53, time=62),
    Message('note_on', channel=2, note=69, velocity=53, time=58),
    Message('note_on', channel=2, note=73, velocity=72, time=64),
    Message('note_on', channel=2, note=67, velocity=0, time=14),
    Message('note_on', channel=2, note=69, velocity=0, time=0),
    Message('note_on', channel=2, note=64, velocity=0, time=21),
    Message('note_on', channel=2, note=69, velocity=70, time=26),
    Message('note_on', channel=2, note=73, velocity=0, time=16),
    Message('note_on', channel=2, note=69, velocity=0, time=49),
    Message('note_on', channel=2, note=45, velocity=0, time=4),
    Message('note_on', channel=2, note=67, velocity=72, time=1),
    Message('note_on', channel=2, note=67, velocity=0, time=34),
    Message('control_change', channel=2, control=64, value=0, time=13),
    Message('note_on', channel=2, note=50, velocity=54, time=12),
    Message('note_on', channel=2, note=62, velocity=60, time=0),
    Message('control_change', channel=2, control=64, value=127, time=24),
    Message('note_on', channel=2, note=65, velocity=51, time=44),
    Message('note_on', channel=2, note=69, velocity=53, time=60),
    Message('note_on', channel=2, note=74, velocity=76, time=64),
    Message('note_on', channel=2, note=69, velocity=0, time=13),
    Message('note_on', channel=2, note=65, velocity=0, time=7),
    Message('note_on', channel=2, note=69, velocity=59, time=43),
    Message('note_on', channel=2, note=74, velocity=0, time=3),
    Message('note_on', channel=2, note=62, velocity=0, time=34),
    Message('note_on', channel=2, note=50, velocity=0, time=19),
    Message('note_on', channel=2, note=65, velocity=74, time=8),
    Message('note_on', channel=2, note=50, velocity=57, time=38),
    Message('control_change', channel=2, control=64, value=0, time=10),
    Message('note_on', channel=2, note=38, velocity=58, time=21),
    Message('note_on', channel=2, note=62, velocity=68, time=1),
    Message('control_change', channel=2, control=64, value=127, time=13),
    Message('note_on', channel=2, note=65, velocity=0, time=16),
    Message('note_on', channel=2, note=69, velocity=0, time=19),
    Message('note_on', channel=2, note=65, velocity=70, time=16),
    Message('note_on', channel=2, note=69, velocity=58, time=56),
    Message('note_on', channel=2, note=74, velocity=82, time=64),
    Message('note_on', channel=2, note=69, velocity=0, time=15),
    Message('note_on', channel=2, note=65, velocity=0, time=3),
    Message('note_on', channel=2, note=74, velocity=0, time=41),
    Message('note_on', channel=2, note=69, velocity=60, time=10),
    Message('note_on', channel=2, note=62, velocity=0, time=19),
    Message('note_on', channel=2, note=65, velocity=76, time=42),
    Message('note_on', channel=2, note=69, velocity=0, time=3),
    Message('note_on', channel=2, note=65, velocity=0, time=24),
    Message('control_change', channel=2, control=64, value=0, time=2),
    Message('note_on', channel=2, note=38, velocity=0, time=12),
    Message('note_on', channel=2, note=50, velocity=0, time=7),
    Message('note_on', channel=2, note=50, velocity=54, time=17),
    Message('note_on', channel=2, note=62, velocity=60, time=0),
    Message('control_change', channel=2, control=64, value=127, time=24),
    Message('note_on', channel=2, note=65, velocity=51, time=44),
    Message('note_on', channel=2, note=69, velocity=53, time=60),
    Message('note_on', channel=2, note=72, velocity=76, time=64),
    Message('note_on', channel=2, note=69, velocity=0, time=13),
    Message('note_on', channel=2, note=65, velocity=0, time=7),
    Message('note_on', channel=2, note=69, velocity=59, time=43),
    Message('note_on', channel=2, note=72, velocity=0, time=3),
    Message('note_on', channel=2, note=62, velocity=0, time=34),
    Message('note_on', channel=2, note=50, velocity=0, time=19),
    Message('note_on', channel=2, note=65, velocity=74, time=8),
    Message('note_on', channel=2, note=50, velocity=57, time=38),
    Message('control_change', channel=2, control=64, value=0, time=10),
    Message('note_on', channel=2, note=38, velocity=58, time=21),
    Message('note_on', channel=2, note=62, velocity=68, time=1),
    Message('control_change', channel=2, control=64, value=127, time=13),
    Message('note_on', channel=2, note=65, velocity=0, time=16),
    Message('note_on', channel=2, note=69, velocity=0, time=19),
    Message('note_on', channel=2, note=65, velocity=70, time=16),
    Message('note_on', channel=2, note=69, velocity=58, time=56),
    Message('note_on', channel=2, note=72, velocity=82, time=64),
    Message('note_on', channel=2, note=69, velocity=0, time=15),
    Message('note_on', channel=2, note=65, velocity=0, time=3),
    Message('note_on', channel=2, note=72, velocity=0, time=41),
    Message('note_on', channel=2, note=69, velocity=60, time=10),
    Message('note_on', channel=2, note=62, velocity=0, time=19),
    Message('note_on', channel=2, note=65, velocity=76, time=42),
    Message('note_on', channel=2, note=69, velocity=0, time=3),
    Message('note_on', channel=2, note=65, velocity=0, time=24),
    Message('control_change', channel=2, control=64, value=0, time=2),
    Message('note_on', channel=2, note=38, velocity=0, time=12),
    Message('note_on', channel=2, note=50, velocity=0, time=7),
    Message('note_on', channel=2, note=62, velocity=70, time=13),
    Message('control_change', channel=2, control=64, value=127, time=28),
    Message('note_on', channel=2, note=65, velocity=55, time=40),
    Message('note_on', channel=2, note=67, velocity=30, time=64),
    Message('note_on', channel=2, note=71, velocity=66, time=64),
    Message('note_on', channel=2, note=67, velocity=0, time=16),
    Message('note_on', channel=2, note=65, velocity=0, time=5),
    Message('note_on', channel=2, note=67, velocity=53, time=43),
    Message('note_on', channel=2, note=71, velocity=0, time=26),
    Message('note_on', channel=2, note=62, velocity=0, time=10),
    Message('note_on', channel=2, note=65, velocity=66, time=25),
    Message('control_change', channel=2, control=64, value=0, time=34),
    Message('note_on', channel=2, note=43, velocity=51, time=30),
    Message('note_on', channel=2, note=62, velocity=56, time=2),
    Message('note_on', channel=2, note=65, velocity=0, time=3),
    Message('note_on', channel=2, note=67, velocity=0, time=5),
    Message('control_change', channel=2, control=64, value=127, time=3),
    Message('note_on', channel=2, note=65, velocity=53, time=62),
    Message('note_on', channel=2, note=67, velocity=53, time=58),
    Message('note_on', channel=2, note=71, velocity=72, time=64),
    Message('note_on', channel=2, note=65, velocity=0, time=14),
    Message('note_on', channel=2, note=67, velocity=0, time=0),
    Message('note_on', channel=2, note=62, velocity=0, time=21),
    Message('note_on', channel=2, note=67, velocity=70, time=26),
    Message('note_on', channel=2, note=71, velocity=0, time=16),
    Message('note_on', channel=2, note=67, velocity=0, time=49),
    Message('note_on', channel=2, note=43, velocity=0, time=4),
    Message('note_on', channel=2, note=65, velocity=72, time=1),
    Message('note_on', channel=2, note=65, velocity=0, time=34),
    Message('control_change', channel=2, control=64, value=0, time=13),
    Message('note_on', channel=2, note=60, velocity=70, time=8),
    Message('control_change', channel=2, control=64, value=127, time=28),
    Message('note_on', channel=2, note=64, velocity=55, time=40),
    Message('note_on', channel=2, note=67, velocity=30, time=64),
    Message('note_on', channel=2, note=72, velocity=66, time=64),
    Message('note_on', channel=2, note=67, velocity=0, time=16),
    Message('note_on', channel=2, note=64, velocity=0, time=5),
    Message('note_on', channel=2, note=67, velocity=53, time=43),
    Message('note_on', channel=2, note=72, velocity=0, time=26),
    Message('note_on', channel=2, note=60, velocity=0, time=10),
    Message('note_on', channel=2, note=64, velocity=66, time=25),
    Message('control_change', channel=2, control=64, value=0, time=34),
    Message('note_on', channel=2, note=48, velocity=51, time=30),
    Message('note_on', channel=2, note=60, velocity=56, time=2),
    Message('note_on', channel=2, note=64, velocity=0, time=3),
    Message('note_on', channel=2, note=67, velocity=0, time=5),
    Message('control_change', channel=2, control=64, value=127, time=3),
    Message('note_on', channel=2, note=64, velocity=53, time=62),
    Message('note_on', channel=2, note=67, velocity=53, time=58),
    Message('note_on', channel=2, note=72, velocity=72, time=64),
    Message('note_on', channel=2, note=64, velocity=0, time=14),
    Message('note_on', channel=2, note=67, velocity=0, time=0),
    Message('note_on', channel=2, note=60, velocity=0, time=21),
    Message('note_on', channel=2, note=67, velocity=70, time=26),
    Message('note_on', channel=2, note=72, velocity=0, time=16),
    Message('note_on', channel=2, note=67, velocity=0, time=49),
    Message('note_on', channel=2, note=48, velocity=0, time=4),
    Message('note_on', channel=2, note=64, velocity=72, time=1),
    Message('note_on', channel=2, note=64, velocity=0, time=34),
    Message('control_change', channel=2, control=64, value=0, time=13),
    Message('note_on', channel=2, note=48, velocity=55, time=9),
    Message('note_on', channel=2, note=60, velocity=53, time=3),
    Message('control_change', channel=2, control=64, value=127, time=4),
    Message('note_on', channel=2, note=64, velocity=70, time=60),
    Message('note_on', channel=2, note=67, velocity=58, time=63),
    Message('note_on', channel=2, note=72, velocity=78, time=65),
    Message('note_on', channel=2, note=64, velocity=0, time=18),
    Message('note_on', channel=2, note=67, velocity=0, time=3),
    Message('note_on', channel=2, note=72, velocity=0, time=35),
    Message('note_on', channel=2, note=67, velocity=60, time=8),
    Message('note_on', channel=2, note=60, velocity=0, time=18),
    Message('control_change', channel=2, control=64, value=0, time=45),
    Message('note_on', channel=2, note=64, velocity=72, time=0),
    Message('note_on', channel=2, note=67, velocity=0, time=29),
    Message('note_on', channel=2, note=64, velocity=0, time=12),
    Message('note_on', channel=2, note=48, velocity=0, time=8),
    Message('note_on', channel=2, note=48, velocity=58, time=12),
    Message('control_change', channel=2, control=64, value=127, time=0),
    Message('note_on', channel=2, note=60, velocity=66, time=0),
    Message('note_on', channel=2, note=36, velocity=52, time=0),
    Message('note_on', channel=2, note=64, velocity=60, time=67),
    Message('note_on', channel=2, note=67, velocity=59, time=65),
    Message('note_on', channel=2, note=48, velocity=0, time=58),
    Message('note_on', channel=2, note=67, velocity=0, time=3),
    Message('note_on', channel=2, note=71, velocity=80, time=3),
    Message('note_on', channel=2, note=64, velocity=0, time=18),
    Message('note_on', channel=2, note=67, velocity=58, time=45),
    Message('note_on', channel=2, note=71, velocity=0, time=19),
    Message('note_on', channel=2, note=60, velocity=0, time=3),
    Message('note_on', channel=2, note=48, velocity=70, time=10),
    Message('note_on', channel=2, note=60, velocity=82, time=30),
    Message('note_on', channel=2, note=36, velocity=0, time=32),
    Message('note_on', channel=2, note=48, velocity=0, time=5),
    Message('control_change', channel=2, control=64, value=0, time=2),
    Message('note_on', channel=2, note=60, velocity=0, time=1),
    Message('note_on', channel=2, note=67, velocity=0, time=3),
    Message('note_on', channel=2, note=48, velocity=54, time=24),
    Message('note_on', channel=2, note=60, velocity=60, time=0),
    Message('control_change', channel=2, control=64, value=127, time=24),
    Message('note_on', channel=2, note=64, velocity=51, time=44),
    Message('note_on', channel=2, note=67, velocity=53, time=60),
    Message('note_on', channel=2, note=70, velocity=76, time=64),
    Message('note_on', channel=2, note=67, velocity=0, time=13),
    Message('note_on', channel=2, note=64, velocity=0, time=7),
    Message('note_on', channel=2, note=67, velocity=59, time=43),
    Message('note_on', channel=2, note=70, velocity=0, time=3),
    Message('note_on', channel=2, note=60, velocity=0, time=34),
    Message('note_on', channel=2, note=48, velocity=0, time=19),
    Message('note_on', channel=2, note=64, velocity=74, time=8),
    Message('note_on', channel=2, note=48, velocity=57, time=38),
    Message('control_change', channel=2, control=64, value=0, time=10),
    Message('note_on', channel=2, note=36, velocity=58, time=21),
    Message('note_on', channel=2, note=60, velocity=68, time=1),
    Message('control_change', channel=2, control=64, value=127, time=13),
    Message('note_on', channel=2, note=64, velocity=0, time=16),
    Message('note_on', channel=2, note=67, velocity=0, time=19),
    Message('note_on', channel=2, note=64, velocity=70, time=16),
    Message('note_on', channel=2, note=67, velocity=58, time=56),
    Message('note_on', channel=2, note=70, velocity=82, time=64),
    Message('note_on', channel=2, note=67, velocity=0, time=15),
    Message('note_on', channel=2, note=64, velocity=0, time=3),
    Message('note_on', channel=2, note=70, velocity=0, time=41),
    Message('note_on', channel=2, note=67, velocity=60, time=10),
    Message('note_on', channel=2, note=60, velocity=0, time=19),
    Message('note_on', channel=2, note=64, velocity=76, time=42),
    Message('note_on', channel=2, note=67, velocity=0, time=3),
    Message('note_on', channel=2, note=64, velocity=0, time=24),
    Message('control_change', channel=2, control=64, value=0, time=2),
    Message('note_on', channel=2, note=36, velocity=0, time=12),
    Message('note_on', channel=2, note=48, velocity=0, time=7),
    Message('note_on', channel=2, note=60, velocity=70, time=13),
    Message('control_change', channel=2, control=64, value=127, time=28),
    Message('note_on', channel=2, note=65, velocity=55, time=40),
    Message('note_on', channel=2, note=69, velocity=30, time=64),
    Message('note_on', channel=2, note=72, velocity=66, time=64),
    Message('note_on', channel=2, note=69, velocity=0, time=16),
    Message('note_on', channel=2, note=65, velocity=0, time=5),
    Message('note_on', channel=2, note=69, velocity=53, time=43),
    Message('note_on', channel=2, note=72, velocity=0, time=26),
    Message('note_on', channel=2, note=60, velocity=0, time=10),
    Message('note_on', channel=2, note=65, velocity=66, time=25),
    Message('control_change', channel=2, control=64, value=0, time=34),
    Message('note_on', channel=2, note=41, velocity=51, time=30),
    Message('note_on', channel=2, note=60, velocity=56, time=2),
    Message('note_on', channel=2, note=65, velocity=0, time=3),
    Message('note_on', channel=2, note=69, velocity=0, time=5),
    Message('control_change', channel=2, control=64, value=127, time=3),
    Message('note_on', channel=2, note=65, velocity=53, time=62),
    Message('note_on', channel=2, note=69, velocity=53, time=58),
    Message('note_on', channel=2, note=72, velocity=72, time=64),
    Message('note_on', channel=2, note=65, velocity=0, time=14),
    Message('note_on', channel=2, note=69, velocity=0, time=0),
    Message('note_on', channel=2, note=60, velocity=0, time=21),
    Message('note_on', channel=2, note=69, velocity=70, time=26),
    Message('note_on', channel=2, note=72, velocity=0, time=16),
    Message('note_on', channel=2, note=69, velocity=0, time=49),
    Message('note_on', channel=2, note=41, velocity=0, time=4),
    Message('note_on', channel=2, note=65, velocity=72, time=1),
    Message('note_on', channel=2, note=65, velocity=0, time=34),
    Message('control_change', channel=2, control=64, value=0, time=13),
    Message('note_on', channel=2, note=41, velocity=54, time=12),
    Message('note_on', channel=2, note=60, velocity=60, time=0),
    Message('control_change', channel=2, control=64, value=127, time=24),
    Message('note_on', channel=2, note=65, velocity=51, time=44),
    Message('note_on', channel=2, note=68, velocity=53, time=60),
    Message('note_on', channel=2, note=72, velocity=76, time=64),
    Message('note_on', channel=2, note=68, velocity=0, time=13),
    Message('note_on', channel=2, note=65, velocity=0, time=7),
    Message('note_on', channel=2, note=68, velocity=59, time=43),
    Message('note_on', channel=2, note=72, velocity=0, time=3),
    Message('note_on', channel=2, note=60, velocity=0, time=34),
    Message('note_on', channel=2, note=41, velocity=0, time=19),
    Message('note_on', channel=2, note=65, velocity=74, time=8),
    Message('note_on', channel=2, note=41, velocity=57, time=38),
    Message('control_change', channel=2, control=64, value=0, time=10),
    Message('note_on', channel=2, note=60, velocity=68, time=22),
    Message('control_change', channel=2, control=64, value=127, time=13),
    Message('note_on', channel=2, note=65, velocity=0, time=16),
    Message('note_on', channel=2, note=68, velocity=0, time=19),
    Message('note_on', channel=2, note=65, velocity=70, time=16),
    Message('note_on', channel=2, note=68, velocity=58, time=56),
    Message('note_on', channel=2, note=72, velocity=82, time=64),
    Message('note_on', channel=2, note=68, velocity=0, time=15),
    Message('note_on', channel=2, note=65, velocity=0, time=3),
    Message('note_on', channel=2, note=72, velocity=0, time=41),
    Message('note_on', channel=2, note=68, velocity=60, time=10),
    Message('note_on', channel=2, note=60, velocity=0, time=19),
    Message('note_on', channel=2, note=65, velocity=76, time=42),
    Message('note_on', channel=2, note=68, velocity=0, time=3),
    Message('note_on', channel=2, note=65, velocity=0, time=24),
    Message('control_change', channel=2, control=64, value=0, time=2),
    Message('note_on', channel=2, note=41, velocity=0, time=12),
    Message('note_on', channel=2, note=48, velocity=54, time=24),
    Message('note_on', channel=2, note=60, velocity=60, time=0),
    Message('control_change', channel=2, control=64, value=127, time=24),
    Message('note_on', channel=2, note=64, velocity=51, time=44),
    Message('note_on', channel=2, note=67, velocity=53, time=60),
    Message('note_on', channel=2, note=72, velocity=76, time=64),
    Message('note_on', channel=2, note=67, velocity=0, time=13),
    Message('note_on', channel=2, note=64, velocity=0, time=7),
    Message('note_on', channel=2, note=67, velocity=59, time=43),
    Message('note_on', channel=2, note=72, velocity=0, time=3),
    Message('note_on', channel=2, note=60, velocity=0, time=34),
    Message('note_on', channel=2, note=48, velocity=0, time=19),
    Message('note_on', channel=2, note=64, velocity=74, time=8),
    Message('note_on', channel=2, note=48, velocity=57, time=38),
    Message('control_change', channel=2, control=64, value=0, time=10),
    Message('note_on', channel=2, note=36, velocity=58, time=21),
    Message('note_on', channel=2, note=60, velocity=68, time=1),
    Message('control_change', channel=2, control=64, value=127, time=13),
    Message('note_on', channel=2, note=64, velocity=0, time=16),
    Message('note_on', channel=2, note=67, velocity=0, time=19),
    Message('note_on', channel=2, note=64, velocity=70, time=16),
    Message('note_on', channel=2, note=67, velocity=58, time=56),
    Message('note_on', channel=2, note=72, velocity=82, time=64),
    Message('note_on', channel=2, note=67, velocity=0, time=15),
    Message('note_on', channel=2, note=64, velocity=0, time=3),
    Message('note_on', channel=2, note=72, velocity=0, time=41),
    Message('note_on', channel=2, note=67, velocity=60, time=10),
    Message('note_on', channel=2, note=60, velocity=0, time=19),
    Message('note_on', channel=2, note=64, velocity=76, time=42),
    Message('note_on', channel=2, note=67, velocity=0, time=3),
    Message('note_on', channel=2, note=64, velocity=0, time=24),
    Message('control_change', channel=2, control=64, value=0, time=2),
    Message('note_on', channel=2, note=36, velocity=0, time=12),
    Message('note_on', channel=2, note=48, velocity=0, time=7),
    Message('note_on', channel=2, note=62, velocity=70, time=13),
    Message('control_change', channel=2, control=64, value=127, time=28),
    Message('note_on', channel=2, note=65, velocity=55, time=40),
    Message('note_on', channel=2, note=67, velocity=30, time=64),
    Message('note_on', channel=2, note=71, velocity=66, time=64),
    Message('note_on', channel=2, note=67, velocity=0, time=16),
    Message('note_on', channel=2, note=65, velocity=0, time=5),
    Message('note_on', channel=2, note=67, velocity=53, time=43),
    Message('note_on', channel=2, note=71, velocity=0, time=26),
    Message('note_on', channel=2, note=62, velocity=0, time=10),
    Message('note_on', channel=2, note=65, velocity=66, time=25),
    Message('control_change', channel=2, control=64, value=0, time=34),
    Message('note_on', channel=2, note=43, velocity=51, time=30),
    Message('note_on', channel=2, note=62, velocity=56, time=2),
    Message('note_on', channel=2, note=65, velocity=0, time=3),
    Message('note_on', channel=2, note=67, velocity=0, time=5),
    Message('control_change', channel=2, control=64, value=127, time=3),
    Message('note_on', channel=2, note=65, velocity=53, time=62),
    Message('note_on', channel=2, note=67, velocity=53, time=58),
    Message('note_on', channel=2, note=71, velocity=72, time=64),
    Message('note_on', channel=2, note=65, velocity=0, time=14),
    Message('note_on', channel=2, note=67, velocity=0, time=0),
    Message('note_on', channel=2, note=62, velocity=0, time=21),
    Message('note_on', channel=2, note=67, velocity=70, time=26),
    Message('note_on', channel=2, note=71, velocity=0, time=16),
    Message('note_on', channel=2, note=67, velocity=0, time=49),
    Message('note_on', channel=2, note=43, velocity=0, time=4),
    Message('note_on', channel=2, note=65, velocity=72, time=1),
    Message('note_on', channel=2, note=65, velocity=0, time=34),
    Message('control_change', channel=2, control=64, value=0, time=13),
    Message('note_on', channel=2, note=60, velocity=70, time=8),
    Message('control_change', channel=2, control=64, value=127, time=28),
    Message('note_on', channel=2, note=62, velocity=55, time=40),
    Message('note_on', channel=2, note=65, velocity=30, time=64),
    Message('note_on', channel=2, note=69, velocity=66, time=64),
    Message('note_on', channel=2, note=65, velocity=0, time=16),
    Message('note_on', channel=2, note=62, velocity=0, time=5),
    Message('note_on', channel=2, note=65, velocity=53, time=43),
    Message('note_on', channel=2, note=69, velocity=0, time=26),
    Message('note_on', channel=2, note=60, velocity=0, time=10),
    Message('note_on', channel=2, note=62, velocity=66, time=25),
    Message('control_change', channel=2, control=64, value=0, time=34),
    Message('note_on', channel=2, note=41, velocity=51, time=30),
    Message('note_on', channel=2, note=60, velocity=56, time=2),
    Message('note_on', channel=2, note=62, velocity=0, time=3),
    Message('note_on', channel=2, note=65, velocity=0, time=5),
    Message('control_change', channel=2, control=64, value=127, time=3),
    Message('note_on', channel=2, note=62, velocity=53, time=62),
    Message('note_on', channel=2, note=65, velocity=53, time=58),
    Message('note_on', channel=2, note=69, velocity=72, time=64),
    Message('note_on', channel=2, note=62, velocity=0, time=14),
    Message('note_on', channel=2, note=65, velocity=0, time=0),
    Message('note_on', channel=2, note=60, velocity=0, time=21),
    Message('note_on', channel=2, note=65, velocity=70, time=26),
    Message('note_on', channel=2, note=69, velocity=0, time=16),
    Message('note_on', channel=2, note=65, velocity=0, time=49),
    Message('note_on', channel=2, note=41, velocity=0, time=4),
    Message('note_on', channel=2, note=62, velocity=72, time=1),
    Message('note_on', channel=2, note=62, velocity=0, time=34),
    Message('control_change', channel=2, control=64, value=0, time=13),
    Message('note_on', channel=2, note=48, velocity=54, time=12),
    Message('note_on', channel=2, note=60, velocity=60, time=0),
    Message('control_change', channel=2, control=64, value=127, time=24),
    Message('note_on', channel=2, note=64, velocity=51, time=44),
    Message('note_on', channel=2, note=67, velocity=53, time=60),
    Message('note_on', channel=2, note=72, velocity=76, time=64),
    Message('note_on', channel=2, note=67, velocity=0, time=13),
    Message('note_on', channel=2, note=64, velocity=0, time=7),
    Message('note_on', channel=2, note=67, velocity=59, time=43),
    Message('note_on', channel=2, note=72, velocity=0, time=3),
    Message('note_on', channel=2, note=60, velocity=0, time=34),
    Message('note_on', channel=2, note=48, velocity=0, time=19),
    Message('note_on', channel=2, note=64, velocity=74, time=8),
    Message('note_on', channel=2, note=48, velocity=57, time=38),
    Message('control_change', channel=2, control=64, value=0, time=10),
    Message('note_on', channel=2, note=36, velocity=58, time=21),
    Message('note_on', channel=2, note=60, velocity=68, time=1),
    Message('control_change', channel=2, control=64, value=127, time=13),
    Message('note_on', channel=2, note=64, velocity=0, time=16),
    Message('note_on', channel=2, note=67, velocity=0, time=19),
    Message('note_on', channel=2, note=64, velocity=70, time=16),
    Message('note_on', channel=2, note=67, velocity=58, time=56),
    Message('note_on', channel=2, note=72, velocity=82, time=64),
    Message('note_on', channel=2, note=67, velocity=0, time=15),
    Message('note_on', channel=2, note=64, velocity=0, time=3),
    Message('note_on', channel=2, note=72, velocity=0, time=41),
    Message('note_on', channel=2, note=67, velocity=60, time=10),
    Message('note_on', channel=2, note=60, velocity=0, time=19),
    Message('note_on', channel=2, note=64, velocity=76, time=42),
    Message('note_on', channel=2, note=67, velocity=0, time=3),
    Message('note_on', channel=2, note=64, velocity=0, time=24),
    Message('control_change', channel=2, control=64, value=0, time=2),
    Message('note_on', channel=2, note=36, velocity=0, time=12),
    Message('note_on', channel=2, note=48, velocity=0, time=7),
    Message('note_on', channel=2, note=60, velocity=70, time=13),
    Message('control_change', channel=2, control=64, value=127, time=28),
    Message('note_on', channel=2, note=64, velocity=55, time=40),
    Message('note_on', channel=2, note=67, velocity=30, time=64),
    Message('note_on', channel=2, note=72, velocity=66, time=64),
    Message('note_on', channel=2, note=67, velocity=0, time=16),
    Message('note_on', channel=2, note=64, velocity=0, time=5),
    Message('note_on', channel=2, note=67, velocity=53, time=43),
    Message('note_on', channel=2, note=72, velocity=0, time=26),
    Message('note_on', channel=2, note=60, velocity=0, time=10),
    Message('note_on', channel=2, note=64, velocity=66, time=25),
    Message('control_change', channel=2, control=64, value=0, time=34),
    Message('note_on', channel=2, note=48, velocity=51, time=30),
    Message('note_on', channel=2, note=60, velocity=56, time=2),
    Message('note_on', channel=2, note=64, velocity=0, time=3),
    Message('note_on', channel=2, note=67, velocity=0, time=5),
    Message('control_change', channel=2, control=64, value=127, time=3),
    Message('note_on', channel=2, note=64, velocity=53, time=62),
    Message('note_on', channel=2, note=67, velocity=53, time=58),
    Message('note_on', channel=2, note=72, velocity=72, time=64),
    Message('note_on', channel=2, note=64, velocity=0, time=14),
    Message('note_on', channel=2, note=67, velocity=0, time=0),
    Message('note_on', channel=2, note=60, velocity=0, time=21),
    Message('note_on', channel=2, note=67, velocity=70, time=26),
    Message('note_on', channel=2, note=72, velocity=0, time=16),
    Message('note_on', channel=2, note=67, velocity=0, time=49),
    Message('note_on', channel=2, note=48, velocity=0, time=4),
    Message('note_on', channel=2, note=64, velocity=72, time=1),
    Message('note_on', channel=2, note=64, velocity=0, time=34),
    Message('control_change', channel=2, control=64, value=0, time=13),
    Message('note_on', channel=2, note=36, velocity=46, time=8),
    Message('note_on', channel=2, note=48, velocity=42, time=0),
    Message('note_on', channel=2, note=64, velocity=63, time=1),
    Message('control_change', channel=2, control=64, value=127, time=27),
    Message('note_on', channel=2, note=60, velocity=41, time=40),
    Message('note_on', channel=2, note=64, velocity=0, time=18),
    Message('note_on', channel=2, note=64, velocity=58, time=38),
    Message('note_on', channel=2, note=70, velocity=78, time=74),
    Message('note_on', channel=2, note=64, velocity=0, time=32),
    Message('note_on', channel=2, note=60, velocity=0, time=5),
    Message('note_on', channel=2, note=70, velocity=0, time=25),
    Message('note_on', channel=2, note=67, velocity=41, time=5),
    Message('note_on', channel=2, note=64, velocity=52, time=56),
    Message('note_on', channel=2, note=60, velocity=68, time=64),
    Message('note_on', channel=2, note=48, velocity=0, time=96),
    Message('note_on', channel=2, note=48, velocity=72, time=27),
    Message('note_on', channel=2, note=60, velocity=0, time=23),
    Message('note_on', channel=2, note=64, velocity=0, time=1),
    Message('note_on', channel=2, note=67, velocity=0, time=2),
    Message('note_on', channel=2, note=60, velocity=38, time=11),
    Message('note_on', channel=2, note=60, velocity=0, time=24),
    Message('note_on', channel=2, note=70, velocity=47, time=3),
    Message('note_on', channel=2, note=70, velocity=0, time=63),
    Message('note_on', channel=2, note=67, velocity=66, time=6),
    Message('note_on', channel=2, note=64, velocity=63, time=59),
    Message('note_on', channel=2, note=48, velocity=0, time=13),
    Message('control_change', channel=2, control=64, value=0, time=47),
    Message('note_on', channel=2, note=36, velocity=0, time=8),
    Message('note_on', channel=2, note=67, velocity=0, time=0),
    Message('note_on', channel=2, note=64, velocity=0, time=0),
    Message('note_on', channel=2, note=41, velocity=45, time=1),
    Message('note_on', channel=2, note=60, velocity=55, time=2),
    Message('control_change', channel=2, control=64, value=127, time=38),
    Message('note_on', channel=2, note=65, velocity=60, time=34),
    Message('note_on', channel=2, note=69, velocity=10, time=70),
    Message('note_on', channel=2, note=60, velocity=0, time=10),
    Message('note_on', channel=2, note=60, velocity=47, time=35),
    Message('note_on', channel=2, note=41, velocity=0, time=56),
    Message('note_on', channel=2, note=60, velocity=0, time=99),
    Message('note_on', channel=2, note=65, velocity=0, time=8),
    Message('note_on', channel=2, note=69, velocity=0, time=3),
    Message('note_on', channel=2, note=41, velocity=74, time=108),
    Message('note_on', channel=2, note=65, velocity=57, time=52),
    Message('note_on', channel=2, note=65, velocity=0, time=104),
    Message('note_on', channel=2, note=72, velocity=85, time=23),
    Message('note_on', channel=2, note=69, velocity=64, time=29),
    Message('note_on', channel=2, note=72, velocity=0, time=8),
    Message('note_on', channel=2, note=69, velocity=0, time=30),
    Message('note_on', channel=2, note=41, velocity=0, time=19),
    Message('note_on', channel=2, note=65, velocity=38, time=2),
    Message('note_on', channel=2, note=65, velocity=0, time=25),
    Message('control_change', channel=2, control=64, value=0, time=4),
    Message('note_on', channel=2, note=60, velocity=78, time=8),
    Message('note_on', channel=2, note=41, velocity=52, time=0),
    Message('control_change', channel=2, control=64, value=127, time=24),
    Message('note_on', channel=2, note=60, velocity=0, time=48),
    Message('note_on', channel=2, note=57, velocity=56, time=60),
    Message('note_on', channel=2, note=65, velocity=68, time=61),
    Message('note_on', channel=2, note=69, velocity=72, time=0),
    Message('note_on', channel=2, note=57, velocity=0, time=103),
    Message('note_on', channel=2, note=57, velocity=59, time=20),
    Message('note_on', channel=2, note=41, velocity=0, time=69),
    Message('note_on', channel=2, note=41, velocity=42, time=125),
    Message('note_on', channel=2, note=69, velocity=0, time=10),
    Message('note_on', channel=2, note=65, velocity=0, time=6),
    Message('note_on', channel=2, note=57, velocity=0, time=3),
    Message('note_on', channel=2, note=65, velocity=74, time=51),
    Message('note_on', channel=2, note=69, velocity=66, time=2),
    Message('note_on', channel=2, note=57, velocity=59, time=0),
    Message('note_on', channel=2, note=41, velocity=0, time=43),
    Message('note_on', channel=2, note=57, velocity=0, time=8),
    Message('note_on', channel=2, note=65, velocity=0, time=3),
    Message('note_on', channel=2, note=69, velocity=0, time=4),
    Message('control_change', channel=2, control=64, value=0, time=35),
    Message('note_on', channel=2, note=62, velocity=70, time=93),
    Message('control_change', channel=2, control=64, value=127, time=28),
    Message('note_on', channel=2, note=65, velocity=55, time=40),
    Message('note_on', channel=2, note=69, velocity=30, time=64),
    Message('note_on', channel=2, note=72, velocity=66, time=64),
    Message('note_on', channel=2, note=69, velocity=0, time=16),
    Message('note_on', channel=2, note=65, velocity=0, time=5),
    Message('note_on', channel=2, note=69, velocity=53, time=43),
    Message('note_on', channel=2, note=72, velocity=0, time=26),
    Message('note_on', channel=2, note=62, velocity=0, time=10),
    Message('note_on', channel=2, note=65, velocity=66, time=25),
    Message('control_change', channel=2, control=64, value=0, time=34),
    Message('note_on', channel=2, note=50, velocity=51, time=30),
    Message('note_on', channel=2, note=62, velocity=56, time=2),
    Message('note_on', channel=2, note=65, velocity=0, time=3),
    Message('note_on', channel=2, note=69, velocity=0, time=5),
    Message('control_change', channel=2, control=64, value=127, time=3),
    Message('note_on', channel=2, note=65, velocity=53, time=62),
    Message('note_on', channel=2, note=69, velocity=53, time=58),
    Message('note_on', channel=2, note=72, velocity=72, time=64),
    Message('note_on', channel=2, note=65, velocity=0, time=14),
    Message('note_on', channel=2, note=69, velocity=0, time=0),
    Message('note_on', channel=2, note=62, velocity=0, time=21),
    Message('note_on', channel=2, note=69, velocity=70, time=26),
    Message('note_on', channel=2, note=72, velocity=0, time=16),
    Message('note_on', channel=2, note=69, velocity=0, time=49),
    Message('note_on', channel=2, note=50, velocity=0, time=4),
    Message('note_on', channel=2, note=65, velocity=72, time=1),
    Message('note_on', channel=2, note=65, velocity=0, time=34),
    Message('control_change', channel=2, control=64, value=0, time=13),
    Message('note_on', channel=2, note=43, velocity=54, time=12),
    Message('note_on', channel=2, note=62, velocity=60, time=0),
    Message('control_change', channel=2, control=64, value=127, time=24),
    Message('note_on', channel=2, note=65, velocity=51, time=44),
    Message('note_on', channel=2, note=67, velocity=53, time=60),
    Message('note_on', channel=2, note=71, velocity=76, time=64),
    Message('note_on', channel=2, note=67, velocity=0, time=13),
    Message('note_on', channel=2, note=65, velocity=0, time=7),
    Message('note_on', channel=2, note=67, velocity=59, time=43),
    Message('note_on', channel=2, note=71, velocity=0, time=3),
    Message('note_on', channel=2, note=62, velocity=0, time=34),
    Message('note_on', channel=2, note=43, velocity=0, time=19),
    Message('note_on', channel=2, note=65, velocity=74, time=8),
    Message('note_on', channel=2, note=43, velocity=57, time=38),
    Message('control_change', channel=2, control=64, value=0, time=10),
    Message('note_on', channel=2, note=62, velocity=68, time=22),
    Message('control_change', channel=2, control=64, value=127, time=13),
    Message('note_on', channel=2, note=65, velocity=0, time=16),
    Message('note_on', channel=2, note=67, velocity=0, time=19),
    Message('note_on', channel=2, note=65, velocity=70, time=16),
    Message('note_on', channel=2, note=67, velocity=58, time=56),
    Message('note_on', channel=2, note=71, velocity=82, time=64),
    Message('note_on', channel=2, note=67, velocity=0, time=15),
    Message('note_on', channel=2, note=65, velocity=0, time=3),
    Message('note_on', channel=2, note=71, velocity=0, time=41),
    Message('note_on', channel=2, note=67, velocity=60, time=10),
    Message('note_on', channel=2, note=62, velocity=0, time=19),
    Message('note_on', channel=2, note=65, velocity=76, time=42),
    Message('note_on', channel=2, note=67, velocity=0, time=3),
    Message('note_on', channel=2, note=65, velocity=0, time=24),
    Message('control_change', channel=2, control=64, value=0, time=2),
    Message('note_on', channel=2, note=43, velocity=0, time=12),
    Message('note_on', channel=2, note=40, velocity=54, time=24),
    Message('note_on', channel=2, note=59, velocity=60, time=0),
    Message('control_change', channel=2, control=64, value=127, time=24),
    Message('note_on', channel=2, note=62, velocity=51, time=44),
    Message('note_on', channel=2, note=64, velocity=53, time=60),
    Message('note_on', channel=2, note=67, velocity=76, time=64),
    Message('note_on', channel=2, note=64, velocity=0, time=13),
    Message('note_on', channel=2, note=62, velocity=0, time=7),
    Message('note_on', channel=2, note=64, velocity=59, time=43),
    Message('note_on', channel=2, note=67, velocity=0, time=3),
    Message('note_on', channel=2, note=59, velocity=0, time=34),
    Message('note_on', channel=2, note=40, velocity=0, time=19),
    Message('note_on', channel=2, note=62, velocity=74, time=8),
    Message('note_on', channel=2, note=40, velocity=57, time=38),
    Message('control_change', channel=2, control=64, value=0, time=10),
    Message('note_on', channel=2, note=59, velocity=68, time=22),
    Message('control_change', channel=2, control=64, value=127, time=13),
    Message('note_on', channel=2, note=62, velocity=0, time=16),
    Message('note_on', channel=2, note=64, velocity=0, time=19),
    Message('note_on', channel=2, note=62, velocity=70, time=16),
    Message('note_on', channel=2, note=64, velocity=58, time=56),
    Message('note_on', channel=2, note=67, velocity=82, time=64),
    Message('note_on', channel=2, note=64, velocity=0, time=15),
    Message('note_on', channel=2, note=62, velocity=0, time=3),
    Message('note_on', channel=2, note=67, velocity=0, time=41),
    Message('note_on', channel=2, note=64, velocity=60, time=10),
    Message('note_on', channel=2, note=59, velocity=0, time=19),
    Message('note_on', channel=2, note=62, velocity=76, time=42),
    Message('note_on', channel=2, note=64, velocity=0, time=3),
    Message('note_on', channel=2, note=62, velocity=0, time=24),
    Message('control_change', channel=2, control=64, value=0, time=2),
    Message('note_on', channel=2, note=40, velocity=0, time=12),
    Message('note_on', channel=2, note=64, velocity=70, time=20),
    Message('control_change', channel=2, control=64, value=127, time=28),
    Message('note_on', channel=2, note=69, velocity=55, time=40),
    Message('note_on', channel=2, note=72, velocity=30, time=64),
    Message('note_on', channel=2, note=76, velocity=66, time=64),
    Message('note_on', channel=2, note=72, velocity=0, time=16),
    Message('note_on', channel=2, note=69, velocity=0, time=5),
    Message('note_on', channel=2, note=72, velocity=53, time=43),
    Message('note_on', channel=2, note=76, velocity=0, time=26),
    Message('note_on', channel=2, note=64, velocity=0, time=10),
    Message('note_on', channel=2, note=69, velocity=66, time=25),
    Message('control_change', channel=2, control=64, value=0, time=34),
    Message('note_on', channel=2, note=45, velocity=51, time=30),
    Message('note_on', channel=2, note=64, velocity=56, time=2),
    Message('note_on', channel=2, note=69, velocity=0, time=3),
    Message('note_on', channel=2, note=72, velocity=0, time=5),
    Message('control_change', channel=2, control=64, value=127, time=3),
    Message('note_on', channel=2, note=69, velocity=53, time=62),
    Message('note_on', channel=2, note=72, velocity=53, time=58),
    Message('note_on', channel=2, note=76, velocity=72, time=64),
    Message('note_on', channel=2, note=69, velocity=0, time=14),
    Message('note_on', channel=2, note=72, velocity=0, time=0),
    Message('note_on', channel=2, note=64, velocity=0, time=21),
    Message('note_on', channel=2, note=72, velocity=70, time=26),
    Message('note_on', channel=2, note=76, velocity=0, time=16),
    Message('note_on', channel=2, note=72, velocity=0, time=49),
    Message('note_on', channel=2, note=45, velocity=0, time=4),
    Message('note_on', channel=2, note=69, velocity=72, time=1),
    Message('note_on', channel=2, note=69, velocity=0, time=34),
    Message('control_change', channel=2, control=64, value=0, time=13),
    Message('note_on', channel=2, note=50, velocity=54, time=12),
    Message('note_on', channel=2, note=62, velocity=60, time=0),
    Message('control_change', channel=2, control=64, value=127, time=24),
    Message('note_on', channel=2, note=65, velocity=51, time=44),
    Message('note_on', channel=2, note=69, velocity=53, time=60),
    Message('note_on', channel=2, note=72, velocity=76, time=64),
    Message('note_on', channel=2, note=69, velocity=0, time=13),
    Message('note_on', channel=2, note=65, velocity=0, time=7),
    Message('note_on', channel=2, note=69, velocity=59, time=43),
    Message('note_on', channel=2, note=72, velocity=0, time=3),
    Message('note_on', channel=2, note=62, velocity=0, time=34),
    Message('note_on', channel=2, note=50, velocity=0, time=19),
    Message('note_on', channel=2, note=65, velocity=74, time=8),
    Message('note_on', channel=2, note=50, velocity=57, time=38),
    Message('control_change', channel=2, control=64, value=0, time=10),
    Message('note_on', channel=2, note=38, velocity=58, time=21),
    Message('note_on', channel=2, note=62, velocity=68, time=1),
    Message('control_change', channel=2, control=64, value=127, time=13),
    Message('note_on', channel=2, note=65, velocity=0, time=16),
    Message('note_on', channel=2, note=69, velocity=0, time=19),
    Message('note_on', channel=2, note=65, velocity=70, time=16),
    Message('note_on', channel=2, note=69, velocity=58, time=56),
    Message('note_on', channel=2, note=72, velocity=82, time=64),
    Message('note_on', channel=2, note=69, velocity=0, time=15),
    Message('note_on', channel=2, note=65, velocity=0, time=3),
    Message('note_on', channel=2, note=72, velocity=0, time=41),
    Message('note_on', channel=2, note=69, velocity=60, time=10),
    Message('note_on', channel=2, note=62, velocity=0, time=19),
    Message('note_on', channel=2, note=65, velocity=76, time=42),
    Message('note_on', channel=2, note=69, velocity=0, time=3),
    Message('note_on', channel=2, note=65, velocity=0, time=24),
    Message('control_change', channel=2, control=64, value=0, time=2),
    Message('note_on', channel=2, note=38, velocity=0, time=12),
    Message('note_on', channel=2, note=50, velocity=0, time=7),
    Message('note_on', channel=2, note=43, velocity=46, time=13),
    Message('note_on', channel=2, note=65, velocity=63, time=1),
    Message('control_change', channel=2, control=64, value=127, time=27),
    Message('note_on', channel=2, note=62, velocity=41, time=40),
    Message('note_on', channel=2, note=65, velocity=0, time=18),
    Message('note_on', channel=2, note=65, velocity=58, time=38),
    Message('note_on', channel=2, note=71, velocity=78, time=74),
    Message('note_on', channel=2, note=65, velocity=0, time=32),
    Message('note_on', channel=2, note=62, velocity=0, time=5),
    Message('note_on', channel=2, note=71, velocity=0, time=25),
    Message('note_on', channel=2, note=67, velocity=41, time=5),
    Message('note_on', channel=2, note=65, velocity=52, time=56),
    Message('note_on', channel=2, note=62, velocity=68, time=64),
    Message('note_on', channel=2, note=43, velocity=0, time=96),
    Message('note_on', channel=2, note=43, velocity=72, time=27),
    Message('note_on', channel=2, note=62, velocity=0, time=23),
    Message('note_on', channel=2, note=65, velocity=0, time=1),
    Message('note_on', channel=2, note=67, velocity=0, time=2),
    Message('note_on', channel=2, note=62, velocity=38, time=11),
    Message('note_on', channel=2, note=62, velocity=0, time=24),
    Message('note_on', channel=2, note=71, velocity=47, time=3),
    Message('note_on', channel=2, note=71, velocity=0, time=63),
    Message('note_on', channel=2, note=67, velocity=66, time=6),
    Message('note_on', channel=2, note=65, velocity=63, time=59),
    Message('note_on', channel=2, note=43, velocity=0, time=13),
    Message('control_change', channel=2, control=64, value=0, time=47),
    Message('note_on', channel=2, note=67, velocity=0, time=8),
    Message('note_on', channel=2, note=65, velocity=0, time=0),
    Message('note_on', channel=2, note=60, velocity=70, time=0),
    Message('control_change', channel=2, control=64, value=127, time=28),
    Message('note_on', channel=2, note=62, velocity=55, time=40),
    Message('note_on', channel=2, note=65, velocity=30, time=64),
    Message('note_on', channel=2, note=69, velocity=66, time=64),
    Message('note_on', channel=2, note=65, velocity=0, time=16),
    Message('note_on', channel=2, note=62, velocity=0, time=5),
    Message('note_on', channel=2, note=65, velocity=53, time=43),
    Message('note_on', channel=2, note=69, velocity=0, time=26),
    Message('note_on', channel=2, note=60, velocity=0, time=10),
    Message('note_on', channel=2, note=62, velocity=66, time=25),
    Message('control_change', channel=2, control=64, value=0, time=34),
    Message('note_on', channel=2, note=41, velocity=51, time=30),
    Message('note_on', channel=2, note=60, velocity=56, time=2),
    Message('note_on', channel=2, note=62, velocity=0, time=3),
    Message('note_on', channel=2, note=65, velocity=0, time=5),
    Message('control_change', channel=2, control=64, value=127, time=3),
    Message('note_on', channel=2, note=62, velocity=53, time=62),
    Message('note_on', channel=2, note=65, velocity=53, time=58),
    Message('note_on', channel=2, note=69, velocity=72, time=64),
    Message('note_on', channel=2, note=62, velocity=0, time=14),
    Message('note_on', channel=2, note=65, velocity=0, time=0),
    Message('note_on', channel=2, note=60, velocity=0, time=21),
    Message('note_on', channel=2, note=65, velocity=70, time=26),
    Message('note_on', channel=2, note=69, velocity=0, time=16),
    Message('note_on', channel=2, note=65, velocity=0, time=49),
    Message('note_on', channel=2, note=41, velocity=0, time=4),
    Message('note_on', channel=2, note=62, velocity=72, time=1),
    Message('note_on', channel=2, note=62, velocity=0, time=34),
    Message('control_change', channel=2, control=64, value=0, time=13),
    Message('note_on', channel=2, note=36, velocity=46, time=8),
    Message('note_on', channel=2, note=48, velocity=42, time=0),
    Message('note_on', channel=2, note=64, velocity=63, time=1),
    Message('control_change', channel=2, control=64, value=127, time=27),
    Message('note_on', channel=2, note=60, velocity=41, time=40),
    Message('note_on', channel=2, note=64, velocity=0, time=18),
    Message('note_on', channel=2, note=64, velocity=58, time=38),
    Message('note_on', channel=2, note=72, velocity=78, time=74),
    Message('note_on', channel=2, note=64, velocity=0, time=32),
    Message('note_on', channel=2, note=60, velocity=0, time=5),
    Message('note_on', channel=2, note=72, velocity=0, time=25),
    Message('note_on', channel=2, note=67, velocity=41, time=5),
    Message('note_on', channel=2, note=64, velocity=52, time=56),
    Message('note_on', channel=2, note=60, velocity=68, time=64),
    Message('note_on', channel=2, note=48, velocity=0, time=96),
    Message('note_on', channel=2, note=48, velocity=72, time=27),
    Message('note_on', channel=2, note=60, velocity=0, time=23),
    Message('note_on', channel=2, note=64, velocity=0, time=1),
    Message('note_on', channel=2, note=67, velocity=0, time=2),
    Message('note_on', channel=2, note=60, velocity=38, time=11),
    Message('note_on', channel=2, note=60, velocity=0, time=24),
    Message('note_on', channel=2, note=72, velocity=47, time=3),
    Message('note_on', channel=2, note=72, velocity=0, time=63),
    Message('note_on', channel=2, note=67, velocity=66, time=6),
    Message('note_on', channel=2, note=64, velocity=63, time=59),
    Message('note_on', channel=2, note=48, velocity=0, time=13),
    Message('control_change', channel=2, control=64, value=0, time=47),
    Message('note_on', channel=2, note=36, velocity=0, time=8),
    Message('note_on', channel=2, note=67, velocity=0, time=0),
    Message('note_on', channel=2, note=64, velocity=0, time=0),
    Message('note_on', channel=2, note=48, velocity=54, time=4),
    Message('note_on', channel=2, note=60, velocity=60, time=0),
    Message('control_change', channel=2, control=64, value=127, time=24),
    Message('note_on', channel=2, note=64, velocity=51, time=44),
    Message('note_on', channel=2, note=67, velocity=53, time=60),
    Message('note_on', channel=2, note=72, velocity=76, time=64),
    Message('note_on', channel=2, note=67, velocity=0, time=13),
    Message('note_on', channel=2, note=64, velocity=0, time=7),
    Message('note_on', channel=2, note=67, velocity=59, time=43),
    Message('note_on', channel=2, note=72, velocity=0, time=3),
    Message('note_on', channel=2, note=60, velocity=0, time=34),
    Message('note_on', channel=2, note=48, velocity=0, time=19),
    Message('note_on', channel=2, note=64, velocity=74, time=8),
    Message('note_on', channel=2, note=48, velocity=57, time=38),
    Message('control_change', channel=2, control=64, value=0, time=10),
    Message('note_on', channel=2, note=36, velocity=58, time=21),
    Message('note_on', channel=2, note=60, velocity=68, time=1),
    Message('control_change', channel=2, control=64, value=127, time=13),
    Message('note_on', channel=2, note=64, velocity=0, time=16),
    Message('note_on', channel=2, note=67, velocity=0, time=19),
    Message('note_on', channel=2, note=64, velocity=70, time=16),
    Message('note_on', channel=2, note=67, velocity=58, time=56),
    Message('note_on', channel=2, note=72, velocity=82, time=64),
    Message('note_on', channel=2, note=67, velocity=0, time=15),
    Message('note_on', channel=2, note=64, velocity=0, time=3),
    Message('note_on', channel=2, note=72, velocity=0, time=41),
    Message('note_on', channel=2, note=67, velocity=60, time=10),
    Message('note_on', channel=2, note=60, velocity=0, time=19),
    Message('note_on', channel=2, note=64, velocity=76, time=42),
    Message('note_on', channel=2, note=67, velocity=0, time=3),
    Message('note_on', channel=2, note=64, velocity=0, time=24),
    Message('control_change', channel=2, control=64, value=0, time=2),
    Message('note_on', channel=2, note=36, velocity=0, time=12),
    Message('note_on', channel=2, note=48, velocity=0, time=7),
    Message('note_on', channel=2, note=59, velocity=70, time=13),
    Message('control_change', channel=2, control=64, value=127, time=28),
    Message('note_on', channel=2, note=64, velocity=55, time=40),
    Message('note_on', channel=2, note=67, velocity=30, time=64),
    Message('note_on', channel=2, note=71, velocity=66, time=64),
    Message('note_on', channel=2, note=67, velocity=0, time=16),
    Message('note_on', channel=2, note=64, velocity=0, time=5),
    Message('note_on', channel=2, note=67, velocity=53, time=43),
    Message('note_on', channel=2, note=71, velocity=0, time=26),
    Message('note_on', channel=2, note=59, velocity=0, time=10),
    Message('note_on', channel=2, note=64, velocity=66, time=25),
    Message('control_change', channel=2, control=64, value=0, time=34),
    Message('note_on', channel=2, note=40, velocity=51, time=30),
    Message('note_on', channel=2, note=59, velocity=56, time=2),
    Message('note_on', channel=2, note=64, velocity=0, time=3),
    Message('note_on', channel=2, note=67, velocity=0, time=5),
    Message('control_change', channel=2, control=64, value=127, time=3),
    Message('note_on', channel=2, note=64, velocity=53, time=62),
    Message('note_on', channel=2, note=67, velocity=53, time=58),
    Message('note_on', channel=2, note=71, velocity=72, time=64),
    Message('note_on', channel=2, note=64, velocity=0, time=14),
    Message('note_on', channel=2, note=67, velocity=0, time=0),
    Message('note_on', channel=2, note=59, velocity=0, time=21),
    Message('note_on', channel=2, note=67, velocity=70, time=26),
    Message('note_on', channel=2, note=71, velocity=0, time=16),
    Message('note_on', channel=2, note=67, velocity=0, time=49),
    Message('note_on', channel=2, note=40, velocity=0, time=4),
    Message('note_on', channel=2, note=64, velocity=72, time=1),
    Message('note_on', channel=2, note=64, velocity=0, time=34),
    Message('control_change', channel=2, control=64, value=0, time=13),
    Message('note_on', channel=2, note=62, velocity=70, time=8),
    Message('control_change', channel=2, control=64, value=127, time=28),
    Message('note_on', channel=2, note=64, velocity=55, time=40),
    Message('note_on', channel=2, note=67, velocity=30, time=64),
    Message('note_on', channel=2, note=70, velocity=66, time=64),
    Message('note_on', channel=2, note=67, velocity=0, time=16),
    Message('note_on', channel=2, note=64, velocity=0, time=5),
    Message('note_on', channel=2, note=67, velocity=53, time=43),
    Message('note_on', channel=2, note=70, velocity=0, time=26),
    Message('note_on', channel=2, note=62, velocity=0, time=10),
    Message('note_on', channel=2, note=64, velocity=66, time=25),
    Message('control_change', channel=2, control=64, value=0, time=34),
    Message('note_on', channel=2, note=43, velocity=51, time=30),
    Message('note_on', channel=2, note=62, velocity=56, time=2),
    Message('note_on', channel=2, note=64, velocity=0, time=3),
    Message('note_on', channel=2, note=67, velocity=0, time=5),
    Message('control_change', channel=2, control=64, value=127, time=3),
    Message('note_on', channel=2, note=64, velocity=53, time=62),
    Message('note_on', channel=2, note=67, velocity=53, time=58),
    Message('note_on', channel=2, note=70, velocity=72, time=64),
    Message('note_on', channel=2, note=64, velocity=0, time=14),
    Message('note_on', channel=2, note=67, velocity=0, time=0),
    Message('note_on', channel=2, note=62, velocity=0, time=21),
    Message('note_on', channel=2, note=67, velocity=70, time=26),
    Message('note_on', channel=2, note=70, velocity=0, time=16),
    Message('note_on', channel=2, note=67, velocity=0, time=49),
    Message('note_on', channel=2, note=43, velocity=0, time=4),
    Message('note_on', channel=2, note=64, velocity=72, time=1),
    Message('note_on', channel=2, note=64, velocity=0, time=34),
    Message('control_change', channel=2, control=64, value=0, time=13),
    Message('note_on', channel=2, note=64, velocity=70, time=8),
    Message('control_change', channel=2, control=64, value=127, time=28),
    Message('note_on', channel=2, note=67, velocity=55, time=40),
    Message('note_on', channel=2, note=69, velocity=30, time=64),
    Message('note_on', channel=2, note=73, velocity=66, time=64),
    Message('note_on', channel=2, note=69, velocity=0, time=16),
    Message('note_on', channel=2, note=67, velocity=0, time=5),
    Message('note_on', channel=2, note=69, velocity=53, time=43),
    Message('note_on', channel=2, note=73, velocity=0, time=26),
    Message('note_on', channel=2, note=64, velocity=0, time=10),
    Message('note_on', channel=2, note=67, velocity=66, time=25),
    Message('control_change', channel=2, control=64, value=0, time=34),
    Message('note_on', channel=2, note=45, velocity=51, time=30),
    Message('note_on', channel=2, note=64, velocity=56, time=2),
    Message('note_on', channel=2, note=67, velocity=0, time=3),
    Message('note_on', channel=2, note=69, velocity=0, time=5),
    Message('control_change', channel=2, control=64, value=127, time=3),
    Message('note_on', channel=2, note=67, velocity=53, time=62),
    Message('note_on', channel=2, note=69, velocity=53, time=58),
    Message('note_on', channel=2, note=73, velocity=72, time=64),
    Message('note_on', channel=2, note=67, velocity=0, time=14),
    Message('note_on', channel=2, note=69, velocity=0, time=0),
    Message('note_on', channel=2, note=64, velocity=0, time=21),
    Message('note_on', channel=2, note=69, velocity=70, time=26),
    Message('note_on', channel=2, note=73, velocity=0, time=16),
    Message('note_on', channel=2, note=69, velocity=0, time=49),
    Message('note_on', channel=2, note=45, velocity=0, time=4),
    Message('note_on', channel=2, note=67, velocity=72, time=1),
    Message('note_on', channel=2, note=67, velocity=0, time=34),
    Message('control_change', channel=2, control=64, value=0, time=13),
    Message('note_on', channel=2, note=50, velocity=54, time=12),
    Message('note_on', channel=2, note=62, velocity=60, time=0),
    Message('control_change', channel=2, control=64, value=127, time=24),
    Message('note_on', channel=2, note=65, velocity=51, time=44),
    Message('note_on', channel=2, note=69, velocity=53, time=60),
    Message('note_on', channel=2, note=74, velocity=76, time=64),
    Message('note_on', channel=2, note=69, velocity=0, time=13),
    Message('note_on', channel=2, note=65, velocity=0, time=7),
    Message('note_on', channel=2, note=69, velocity=59, time=43),
    Message('note_on', channel=2, note=74, velocity=0, time=3),
    Message('note_on', channel=2, note=62, velocity=0, time=34),
    Message('note_on', channel=2, note=50, velocity=0, time=19),
    Message('note_on', channel=2, note=65, velocity=74, time=8),
    Message('note_on', channel=2, note=50, velocity=57, time=38),
    Message('control_change', channel=2, control=64, value=0, time=10),
    Message('note_on', channel=2, note=38, velocity=58, time=21),
    Message('note_on', channel=2, note=62, velocity=68, time=1),
    Message('control_change', channel=2, control=64, value=127, time=13),
    Message('note_on', channel=2, note=65, velocity=0, time=16),
    Message('note_on', channel=2, note=69, velocity=0, time=19),
    Message('note_on', channel=2, note=65, velocity=70, time=16),
    Message('note_on', channel=2, note=69, velocity=58, time=56),
    Message('note_on', channel=2, note=74, velocity=82, time=64),
    Message('note_on', channel=2, note=69, velocity=0, time=15),
    Message('note_on', channel=2, note=65, velocity=0, time=3),
    Message('note_on', channel=2, note=74, velocity=0, time=41),
    Message('note_on', channel=2, note=69, velocity=60, time=10),
    Message('note_on', channel=2, note=62, velocity=0, time=19),
    Message('note_on', channel=2, note=65, velocity=76, time=42),
    Message('note_on', channel=2, note=69, velocity=0, time=3),
    Message('note_on', channel=2, note=65, velocity=0, time=24),
    Message('control_change', channel=2, control=64, value=0, time=2),
    Message('note_on', channel=2, note=38, velocity=0, time=12),
    Message('note_on', channel=2, note=50, velocity=0, time=7),
    Message('note_on', channel=2, note=62, velocity=70, time=13),
    Message('control_change', channel=2, control=64, value=127, time=28),
    Message('note_on', channel=2, note=65, velocity=55, time=40),
    Message('note_on', channel=2, note=69, velocity=30, time=64),
    Message('note_on', channel=2, note=72, velocity=66, time=64),
    Message('note_on', channel=2, note=69, velocity=0, time=16),
    Message('note_on', channel=2, note=65, velocity=0, time=5),
    Message('note_on', channel=2, note=69, velocity=53, time=43),
    Message('note_on', channel=2, note=72, velocity=0, time=26),
    Message('note_on', channel=2, note=62, velocity=0, time=10),
    Message('note_on', channel=2, note=65, velocity=66, time=25),
    Message('control_change', channel=2, control=64, value=0, time=34),
    Message('note_on', channel=2, note=50, velocity=51, time=30),
    Message('note_on', channel=2, note=62, velocity=56, time=2),
    Message('note_on', channel=2, note=65, velocity=0, time=3),
    Message('note_on', channel=2, note=69, velocity=0, time=5),
    Message('control_change', channel=2, control=64, value=127, time=3),
    Message('note_on', channel=2, note=65, velocity=53, time=62),
    Message('note_on', channel=2, note=69, velocity=53, time=58),
    Message('note_on', channel=2, note=72, velocity=72, time=64),
    Message('note_on', channel=2, note=65, velocity=0, time=14),
    Message('note_on', channel=2, note=69, velocity=0, time=0),
    Message('note_on', channel=2, note=62, velocity=0, time=21),
    Message('note_on', channel=2, note=69, velocity=70, time=26),
    Message('note_on', channel=2, note=72, velocity=0, time=16),
    Message('note_on', channel=2, note=69, velocity=0, time=49),
    Message('note_on', channel=2, note=50, velocity=0, time=4),
    Message('note_on', channel=2, note=65, velocity=72, time=1),
    Message('note_on', channel=2, note=65, velocity=0, time=34),
    Message('control_change', channel=2, control=64, value=0, time=13),
    Message('note_on', channel=2, note=43, velocity=54, time=12),
    Message('note_on', channel=2, note=62, velocity=60, time=0),
    Message('control_change', channel=2, control=64, value=127, time=24),
    Message('note_on', channel=2, note=65, velocity=51, time=44),
    Message('note_on', channel=2, note=67, velocity=53, time=60),
    Message('note_on', channel=2, note=71, velocity=76, time=64),
    Message('note_on', channel=2, note=67, velocity=0, time=13),
    Message('note_on', channel=2, note=65, velocity=0, time=7),
    Message('note_on', channel=2, note=67, velocity=59, time=43),
    Message('note_on', channel=2, note=71, velocity=0, time=3),
    Message('note_on', channel=2, note=62, velocity=0, time=34),
    Message('note_on', channel=2, note=43, velocity=0, time=19),
    Message('note_on', channel=2, note=65, velocity=74, time=8),
    Message('note_on', channel=2, note=43, velocity=57, time=38),
    Message('control_change', channel=2, control=64, value=0, time=10),
    Message('note_on', channel=2, note=62, velocity=68, time=22),
    Message('control_change', channel=2, control=64, value=127, time=13),
    Message('note_on', channel=2, note=65, velocity=0, time=16),
    Message('note_on', channel=2, note=67, velocity=0, time=19),
    Message('note_on', channel=2, note=65, velocity=70, time=16),
    Message('note_on', channel=2, note=67, velocity=58, time=56),
    Message('note_on', channel=2, note=71, velocity=82, time=64),
    Message('note_on', channel=2, note=67, velocity=0, time=15),
    Message('note_on', channel=2, note=65, velocity=0, time=3),
    Message('note_on', channel=2, note=71, velocity=0, time=41),
    Message('note_on', channel=2, note=67, velocity=60, time=10),
    Message('note_on', channel=2, note=62, velocity=0, time=19),
    Message('note_on', channel=2, note=65, velocity=76, time=42),
    Message('note_on', channel=2, note=67, velocity=0, time=3),
    Message('note_on', channel=2, note=65, velocity=0, time=24),
    Message('control_change', channel=2, control=64, value=0, time=2),
    Message('note_on', channel=2, note=43, velocity=0, time=12),
    Message('note_on', channel=2, note=60, velocity=70, time=20),
    Message('control_change', channel=2, control=64, value=127, time=28),
    Message('note_on', channel=2, note=64, velocity=55, time=40),
    Message('note_on', channel=2, note=67, velocity=30, time=64),
    Message('note_on', channel=2, note=72, velocity=66, time=64),
    Message('note_on', channel=2, note=67, velocity=0, time=16),
    Message('note_on', channel=2, note=64, velocity=0, time=5),
    Message('note_on', channel=2, note=67, velocity=53, time=43),
    Message('note_on', channel=2, note=72, velocity=0, time=26),
    Message('note_on', channel=2, note=60, velocity=0, time=10),
    Message('note_on', channel=2, note=64, velocity=66, time=25),
    Message('control_change', channel=2, control=64, value=0, time=34),
    Message('note_on', channel=2, note=48, velocity=51, time=30),
    Message('note_on', channel=2, note=60, velocity=56, time=2),
    Message('note_on', channel=2, note=64, velocity=0, time=3),
    Message('note_on', channel=2, note=67, velocity=0, time=5),
    Message('control_change', channel=2, control=64, value=127, time=3),
    Message('note_on', channel=2, note=64, velocity=53, time=62),
    Message('note_on', channel=2, note=67, velocity=53, time=58),
    Message('note_on', channel=2, note=72, velocity=72, time=64),
    Message('note_on', channel=2, note=64, velocity=0, time=14),
    Message('note_on', channel=2, note=67, velocity=0, time=0),
    Message('note_on', channel=2, note=60, velocity=0, time=21),
    Message('note_on', channel=2, note=67, velocity=70, time=26),
    Message('note_on', channel=2, note=72, velocity=0, time=16),
    Message('note_on', channel=2, note=67, velocity=0, time=49),
    Message('note_on', channel=2, note=48, velocity=0, time=4),
    Message('note_on', channel=2, note=64, velocity=72, time=1),
    Message('note_on', channel=2, note=64, velocity=0, time=34),
    Message('control_change', channel=2, control=64, value=0, time=13),
    Message('note_on', channel=2, note=48, velocity=58, time=8),
    Message('control_change', channel=2, control=64, value=127, time=0),
    Message('note_on', channel=2, note=60, velocity=66, time=0),
    Message('note_on', channel=2, note=36, velocity=52, time=0),
    Message('note_on', channel=2, note=64, velocity=60, time=67),
    Message('note_on', channel=2, note=67, velocity=59, time=65),
    Message('note_on', channel=2, note=48, velocity=0, time=58),
    Message('note_on', channel=2, note=67, velocity=0, time=3),
    Message('note_on', channel=2, note=72, velocity=80, time=3),
    Message('note_on', channel=2, note=64, velocity=0, time=18),
    Message('note_on', channel=2, note=67, velocity=58, time=45),
    Message('note_on', channel=2, note=72, velocity=0, time=19),
    Message('note_on', channel=2, note=60, velocity=0, time=3),
    Message('note_on', channel=2, note=48, velocity=70, time=10),
    Message('note_on', channel=2, note=60, velocity=82, time=30),
    Message('note_on', channel=2, note=36, velocity=0, time=32),
    Message('note_on', channel=2, note=48, velocity=0, time=5),
    Message('control_change', channel=2, control=64, value=0, time=2),
    Message('note_on', channel=2, note=60, velocity=0, time=1),
    Message('note_on', channel=2, note=67, velocity=0, time=3),
    Message('note_on', channel=2, note=48, velocity=55, time=21),
    Message('note_on', channel=2, note=60, velocity=53, time=3),
    Message('control_change', channel=2, control=64, value=127, time=4),
    Message('note_on', channel=2, note=64, velocity=70, time=60),
    Message('note_on', channel=2, note=67, velocity=58, time=63),
    Message('note_on', channel=2, note=71, velocity=78, time=65),
    Message('note_on', channel=2, note=64, velocity=0, time=18),
    Message('note_on', channel=2, note=67, velocity=0, time=3),
    Message('note_on', channel=2, note=71, velocity=0, time=35),
    Message('note_on', channel=2, note=67, velocity=60, time=8),
    Message('note_on', channel=2, note=60, velocity=0, time=18),
    Message('control_change', channel=2, control=64, value=0, time=45),
    Message('note_on', channel=2, note=64, velocity=72, time=0),
    Message('note_on', channel=2, note=67, velocity=0, time=29),
    Message('note_on', channel=2, note=64, velocity=0, time=12),
    Message('note_on', channel=2, note=48, velocity=0, time=8),
    Message('note_on', channel=2, note=60, velocity=70, time=12),
    Message('control_change', channel=2, control=64, value=127, time=28),
    Message('note_on', channel=2, note=64, velocity=55, time=40),
    Message('note_on', channel=2, note=67, velocity=30, time=64),
    Message('note_on', channel=2, note=70, velocity=66, time=64),
    Message('note_on', channel=2, note=67, velocity=0, time=16),
    Message('note_on', channel=2, note=64, velocity=0, time=5),
    Message('note_on', channel=2, note=67, velocity=53, time=43),
    Message('note_on', channel=2, note=70, velocity=0, time=26),
    Message('note_on', channel=2, note=60, velocity=0, time=10),
    Message('note_on', channel=2, note=64, velocity=66, time=25),
    Message('control_change', channel=2, control=64, value=0, time=34),
    Message('note_on', channel=2, note=48, velocity=51, time=30),
    Message('note_on', channel=2, note=60, velocity=56, time=2),
    Message('note_on', channel=2, note=64, velocity=0, time=3),
    Message('note_on', channel=2, note=67, velocity=0, time=5),
    Message('control_change', channel=2, control=64, value=127, time=3),
    Message('note_on', channel=2, note=64, velocity=53, time=62),
    Message('note_on', channel=2, note=67, velocity=53, time=58),
    Message('note_on', channel=2, note=70, velocity=72, time=64),
    Message('note_on', channel=2, note=64, velocity=0, time=14),
    Message('note_on', channel=2, note=67, velocity=0, time=0),
    Message('note_on', channel=2, note=60, velocity=0, time=21),
    Message('note_on', channel=2, note=67, velocity=70, time=26),
    Message('note_on', channel=2, note=70, velocity=0, time=16),
    Message('note_on', channel=2, note=67, velocity=0, time=49),
    Message('note_on', channel=2, note=48, velocity=0, time=4),
    Message('note_on', channel=2, note=64, velocity=72, time=1),
    Message('note_on', channel=2, note=64, velocity=0, time=34),
    Message('control_change', channel=2, control=64, value=0, time=13),
    Message('note_on', channel=2, note=60, velocity=70, time=8),
    Message('control_change', channel=2, control=64, value=127, time=28),
    Message('note_on', channel=2, note=65, velocity=55, time=40),
    Message('note_on', channel=2, note=69, velocity=30, time=64),
    Message('note_on', channel=2, note=72, velocity=66, time=64),
    Message('note_on', channel=2, note=69, velocity=0, time=16),
    Message('note_on', channel=2, note=65, velocity=0, time=5),
    Message('note_on', channel=2, note=69, velocity=53, time=43),
    Message('note_on', channel=2, note=72, velocity=0, time=26),
    Message('note_on', channel=2, note=60, velocity=0, time=10),
    Message('note_on', channel=2, note=65, velocity=66, time=25),
    Message('control_change', channel=2, control=64, value=0, time=34),
    Message('note_on', channel=2, note=41, velocity=51, time=30),
    Message('note_on', channel=2, note=60, velocity=56, time=2),
    Message('note_on', channel=2, note=65, velocity=0, time=3),
    Message('note_on', channel=2, note=69, velocity=0, time=5),
    Message('control_change', channel=2, control=64, value=127, time=3),
    Message('note_on', channel=2, note=65, velocity=53, time=62),
    Message('note_on', channel=2, note=69, velocity=53, time=58),
    Message('note_on', channel=2, note=72, velocity=72, time=64),
    Message('note_on', channel=2, note=65, velocity=0, time=14),
    Message('note_on', channel=2, note=69, velocity=0, time=0),
    Message('note_on', channel=2, note=60, velocity=0, time=21),
    Message('note_on', channel=2, note=69, velocity=70, time=26),
    Message('note_on', channel=2, note=72, velocity=0, time=16),
    Message('note_on', channel=2, note=69, velocity=0, time=49),
    Message('note_on', channel=2, note=41, velocity=0, time=4),
    Message('note_on', channel=2, note=65, velocity=72, time=1),
    Message('note_on', channel=2, note=65, velocity=0, time=34),
    Message('control_change', channel=2, control=64, value=0, time=13),
    Message('note_on', channel=2, note=60, velocity=70, time=8),
    Message('control_change', channel=2, control=64, value=127, time=28),
    Message('note_on', channel=2, note=65, velocity=55, time=40),
    Message('note_on', channel=2, note=68, velocity=30, time=64),
    Message('note_on', channel=2, note=72, velocity=66, time=64),
    Message('note_on', channel=2, note=68, velocity=0, time=16),
    Message('note_on', channel=2, note=65, velocity=0, time=5),
    Message('note_on', channel=2, note=68, velocity=53, time=43),
    Message('note_on', channel=2, note=72, velocity=0, time=26),
    Message('note_on', channel=2, note=60, velocity=0, time=10),
    Message('note_on', channel=2, note=65, velocity=66, time=25),
    Message('control_change', channel=2, control=64, value=0, time=34),
    Message('note_on', channel=2, note=41, velocity=51, time=30),
    Message('note_on', channel=2, note=60, velocity=56, time=2),
    Message('note_on', channel=2, note=65, velocity=0, time=3),
    Message('note_on', channel=2, note=68, velocity=0, time=5),
    Message('control_change', channel=2, control=64, value=127, time=3),
    Message('note_on', channel=2, note=65, velocity=53, time=62),
    Message('note_on', channel=2, note=68, velocity=53, time=58),
    Message('note_on', channel=2, note=72, velocity=72, time=64),
    Message('note_on', channel=2, note=65, velocity=0, time=14),
    Message('note_on', channel=2, note=68, velocity=0, time=0),
    Message('note_on', channel=2, note=60, velocity=0, time=21),
    Message('note_on', channel=2, note=68, velocity=70, time=26),
    Message('note_on', channel=2, note=72, velocity=0, time=16),
    Message('note_on', channel=2, note=68, velocity=0, time=49),
    Message('note_on', channel=2, note=41, velocity=0, time=4),
    Message('note_on', channel=2, note=65, velocity=72, time=1),
    Message('note_on', channel=2, note=65, velocity=0, time=34),
    Message('control_change', channel=2, control=64, value=0, time=13),
    Message('note_on', channel=2, note=60, velocity=70, time=8),
    Message('control_change', channel=2, control=64, value=127, time=28),
    Message('note_on', channel=2, note=64, velocity=55, time=40),
    Message('note_on', channel=2, note=67, velocity=30, time=64),
    Message('note_on', channel=2, note=72, velocity=66, time=64),
    Message('note_on', channel=2, note=67, velocity=0, time=16),
    Message('note_on', channel=2, note=64, velocity=0, time=5),
    Message('note_on', channel=2, note=67, velocity=53, time=43),
    Message('note_on', channel=2, note=72, velocity=0, time=26),
    Message('note_on', channel=2, note=60, velocity=0, time=10),
    Message('note_on', channel=2, note=64, velocity=66, time=25),
    Message('control_change', channel=2, control=64, value=0, time=34),
    Message('note_on', channel=2, note=48, velocity=51, time=30),
    Message('note_on', channel=2, note=60, velocity=56, time=2),
    Message('note_on', channel=2, note=64, velocity=0, time=3),
    Message('note_on', channel=2, note=67, velocity=0, time=5),
    Message('control_change', channel=2, control=64, value=127, time=3),
    Message('note_on', channel=2, note=64, velocity=53, time=62),
    Message('note_on', channel=2, note=67, velocity=53, time=58),
    Message('note_on', channel=2, note=72, velocity=72, time=64),
    Message('note_on', channel=2, note=64, velocity=0, time=14),
    Message('note_on', channel=2, note=67, velocity=0, time=0),
    Message('note_on', channel=2, note=60, velocity=0, time=21),
    Message('note_on', channel=2, note=67, velocity=70, time=26),
    Message('note_on', channel=2, note=72, velocity=0, time=16),
    Message('note_on', channel=2, note=67, velocity=0, time=49),
    Message('note_on', channel=2, note=48, velocity=0, time=4),
    Message('note_on', channel=2, note=64, velocity=72, time=1),
    Message('note_on', channel=2, note=64, velocity=0, time=34),
    Message('control_change', channel=2, control=64, value=0, time=13),
    Message('note_on', channel=2, note=43, velocity=54, time=12),
    Message('note_on', channel=2, note=62, velocity=60, time=0),
    Message('control_change', channel=2, control=64, value=127, time=24),
    Message('note_on', channel=2, note=65, velocity=51, time=44),
    Message('note_on', channel=2, note=67, velocity=53, time=60),
    Message('note_on', channel=2, note=71, velocity=76, time=64),
    Message('note_on', channel=2, note=67, velocity=0, time=13),
    Message('note_on', channel=2, note=65, velocity=0, time=7),
    Message('note_on', channel=2, note=67, velocity=59, time=43),
    Message('note_on', channel=2, note=71, velocity=0, time=3),
    Message('note_on', channel=2, note=62, velocity=0, time=34),
    Message('note_on', channel=2, note=43, velocity=0, time=19),
    Message('note_on', channel=2, note=65, velocity=74, time=8),
    Message('note_on', channel=2, note=43, velocity=57, time=38),
    Message('control_change', channel=2, control=64, value=0, time=10),
    Message('note_on', channel=2, note=62, velocity=68, time=22),
    Message('control_change', channel=2, control=64, value=127, time=13),
    Message('note_on', channel=2, note=65, velocity=0, time=16),
    Message('note_on', channel=2, note=67, velocity=0, time=19),
    Message('note_on', channel=2, note=65, velocity=70, time=16),
    Message('note_on', channel=2, note=67, velocity=58, time=56),
    Message('note_on', channel=2, note=71, velocity=82, time=64),
    Message('note_on', channel=2, note=67, velocity=0, time=15),
    Message('note_on', channel=2, note=65, velocity=0, time=3),
    Message('note_on', channel=2, note=71, velocity=0, time=41),
    Message('note_on', channel=2, note=67, velocity=60, time=10),
    Message('note_on', channel=2, note=62, velocity=0, time=19),
    Message('note_on', channel=2, note=65, velocity=76, time=42),
    Message('note_on', channel=2, note=67, velocity=0, time=3),
    Message('note_on', channel=2, note=65, velocity=0, time=24),
    Message('control_change', channel=2, control=64, value=0, time=2),
    Message('note_on', channel=2, note=43, velocity=0, time=12),
    Message('note_on', channel=2, note=60, velocity=70, time=20),
    Message('control_change', channel=2, control=64, value=127, time=28),
    Message('note_on', channel=2, note=62, velocity=55, time=40),
    Message('note_on', channel=2, note=65, velocity=30, time=64),
    Message('note_on', channel=2, note=69, velocity=66, time=64),
    Message('note_on', channel=2, note=65, velocity=0, time=16),
    Message('note_on', channel=2, note=62, velocity=0, time=5),
    Message('note_on', channel=2, note=65, velocity=53, time=43),
    Message('note_on', channel=2, note=69, velocity=0, time=26),
    Message('note_on', channel=2, note=60, velocity=0, time=10),
    Message('note_on', channel=2, note=62, velocity=66, time=25),
    Message('control_change', channel=2, control=64, value=0, time=34),
    Message('note_on', channel=2, note=41, velocity=51, time=30),
    Message('note_on', channel=2, note=60, velocity=56, time=2),
    Message('note_on', channel=2, note=62, velocity=0, time=3),
    Message('note_on', channel=2, note=65, velocity=0, time=5),
    Message('control_change', channel=2, control=64, value=127, time=3),
    Message('note_on', channel=2, note=62, velocity=53, time=62),
    Message('note_on', channel=2, note=65, velocity=53, time=58),
    Message('note_on', channel=2, note=69, velocity=72, time=64),
    Message('note_on', channel=2, note=62, velocity=0, time=14),
    Message('note_on', channel=2, note=65, velocity=0, time=0),
    Message('note_on', channel=2, note=60, velocity=0, time=21),
    Message('note_on', channel=2, note=65, velocity=70, time=26),
    Message('note_on', channel=2, note=69, velocity=0, time=16),
    Message('note_on', channel=2, note=65, velocity=0, time=49),
    Message('note_on', channel=2, note=41, velocity=0, time=4),
    Message('note_on', channel=2, note=62, velocity=72, time=1),
    Message('note_on', channel=2, note=62, velocity=0, time=34),
    Message('control_change', channel=2, control=64, value=0, time=13),
    Message('note_on', channel=2, note=48, velocity=54, time=12),
    Message('note_on', channel=2, note=60, velocity=60, time=0),
    Message('control_change', channel=2, control=64, value=127, time=24),
    Message('note_on', channel=2, note=64, velocity=51, time=44),
    Message('note_on', channel=2, note=67, velocity=53, time=60),
    Message('note_on', channel=2, note=72, velocity=76, time=64),
    Message('note_on', channel=2, note=67, velocity=0, time=13),
    Message('note_on', channel=2, note=64, velocity=0, time=7),
    Message('note_on', channel=2, note=67, velocity=59, time=43),
    Message('note_on', channel=2, note=72, velocity=0, time=3),
    Message('note_on', channel=2, note=60, velocity=0, time=34),
    Message('note_on', channel=2, note=48, velocity=0, time=19),
    Message('note_on', channel=2, note=64, velocity=74, time=8),
    Message('note_on', channel=2, note=48, velocity=57, time=38),
    Message('control_change', channel=2, control=64, value=0, time=10),
    Message('note_on', channel=2, note=36, velocity=58, time=21),
    Message('note_on', channel=2, note=60, velocity=68, time=1),
    Message('control_change', channel=2, control=64, value=127, time=13),
    Message('note_on', channel=2, note=64, velocity=0, time=16),
    Message('note_on', channel=2, note=67, velocity=0, time=19),
    Message('note_on', channel=2, note=64, velocity=70, time=16),
    Message('note_on', channel=2, note=67, velocity=58, time=56),
    Message('note_on', channel=2, note=72, velocity=82, time=64),
    Message('note_on', channel=2, note=67, velocity=0, time=15),
    Message('note_on', channel=2, note=64, velocity=0, time=3),
    Message('note_on', channel=2, note=72, velocity=0, time=41),
    Message('note_on', channel=2, note=67, velocity=60, time=10),
    Message('note_on', channel=2, note=60, velocity=0, time=19),
    Message('note_on', channel=2, note=64, velocity=76, time=42),
    Message('note_on', channel=2, note=67, velocity=0, time=3),
    Message('note_on', channel=2, note=64, velocity=0, time=24),
    Message('control_change', channel=2, control=64, value=0, time=2),
    Message('note_on', channel=2, note=36, velocity=0, time=12),
    Message('note_on', channel=2, note=48, velocity=0, time=7),
    Message('note_on', channel=2, note=48, velocity=54, time=17),
    Message('note_on', channel=2, note=60, velocity=60, time=0),
    Message('control_change', channel=2, control=64, value=127, time=24),
    Message('note_on', channel=2, note=64, velocity=51, time=44),
    Message('note_on', channel=2, note=67, velocity=53, time=60),
    Message('note_on', channel=2, note=72, velocity=76, time=64),
    Message('note_on', channel=2, note=67, velocity=0, time=13),
    Message('note_on', channel=2, note=64, velocity=0, time=7),
    Message('note_on', channel=2, note=67, velocity=59, time=43),
    Message('note_on', channel=2, note=72, velocity=0, time=3),
    Message('note_on', channel=2, note=60, velocity=0, time=34),
    Message('note_on', channel=2, note=48, velocity=0, time=19),
    Message('note_on', channel=2, note=64, velocity=74, time=8),
    Message('note_on', channel=2, note=48, velocity=57, time=38),
    Message('control_change', channel=2, control=64, value=0, time=10),
    Message('note_on', channel=2, note=36, velocity=58, time=21),
    Message('note_on', channel=2, note=60, velocity=68, time=1),
    Message('control_change', channel=2, control=64, value=127, time=13),
    Message('note_on', channel=2, note=64, velocity=0, time=16),
    Message('note_on', channel=2, note=67, velocity=0, time=19),
    Message('note_on', channel=2, note=64, velocity=70, time=16),
    Message('note_on', channel=2, note=67, velocity=58, time=56),
    Message('note_on', channel=2, note=72, velocity=82, time=64),
    Message('note_on', channel=2, note=67, velocity=0, time=15),
    Message('note_on', channel=2, note=64, velocity=0, time=3),
    Message('note_on', channel=2, note=72, velocity=0, time=41),
    Message('note_on', channel=2, note=67, velocity=60, time=10),
    Message('note_on', channel=2, note=60, velocity=0, time=19),
    Message('note_on', channel=2, note=64, velocity=76, time=42),
    Message('note_on', channel=2, note=67, velocity=0, time=3),
    Message('note_on', channel=2, note=64, velocity=0, time=24),
    Message('control_change', channel=2, control=64, value=0, time=2),
    Message('note_on', channel=2, note=36, velocity=0, time=12),
    Message('note_on', channel=2, note=48, velocity=0, time=7),
    Message('note_on', channel=2, note=48, velocity=54, time=17),
    Message('note_on', channel=2, note=60, velocity=60, time=0),
    Message('control_change', channel=2, control=64, value=127, time=24),
    Message('note_on', channel=2, note=64, velocity=51, time=44),
    Message('note_on', channel=2, note=67, velocity=53, time=60),
    Message('note_on', channel=2, note=70, velocity=76, time=64),
    Message('note_on', channel=2, note=67, velocity=0, time=13),
    Message('note_on', channel=2, note=64, velocity=0, time=7),
    Message('note_on', channel=2, note=67, velocity=59, time=43),
    Message('note_on', channel=2, note=70, velocity=0, time=3),
    Message('note_on', channel=2, note=60, velocity=0, time=34),
    Message('note_on', channel=2, note=48, velocity=0, time=19),
    Message('note_on', channel=2, note=64, velocity=74, time=8),
    Message('note_on', channel=2, note=48, velocity=57, time=38),
    Message('control_change', channel=2, control=64, value=0, time=10),
    Message('note_on', channel=2, note=36, velocity=58, time=21),
    Message('note_on', channel=2, note=60, velocity=68, time=1),
    Message('control_change', channel=2, control=64, value=127, time=13),
    Message('note_on', channel=2, note=64, velocity=0, time=16),
    Message('note_on', channel=2, note=67, velocity=0, time=19),
    Message('note_on', channel=2, note=64, velocity=70, time=16),
    Message('note_on', channel=2, note=67, velocity=58, time=56),
    Message('note_on', channel=2, note=70, velocity=82, time=64),
    Message('note_on', channel=2, note=67, velocity=0, time=15),
    Message('note_on', channel=2, note=64, velocity=0, time=3),
    Message('note_on', channel=2, note=70, velocity=0, time=41),
    Message('note_on', channel=2, note=67, velocity=60, time=10),
    Message('note_on', channel=2, note=60, velocity=0, time=19),
    Message('note_on', channel=2, note=64, velocity=76, time=42),
    Message('note_on', channel=2, note=67, velocity=0, time=3),
    Message('note_on', channel=2, note=64, velocity=0, time=24),
    Message('control_change', channel=2, control=64, value=0, time=2),
    Message('note_on', channel=2, note=36, velocity=0, time=12),
    Message('note_on', channel=2, note=48, velocity=0, time=7),
    Message('note_on', channel=2, note=60, velocity=78, time=19),
    Message('note_on', channel=2, note=65, velocity=62, time=74),
    Message('note_on', channel=2, note=69, velocity=62, time=59),
    Message('note_on', channel=2, note=72, velocity=76, time=64),
    Message('note_on', channel=2, note=69, velocity=0, time=9),
    Message('note_on', channel=2, note=65, velocity=0, time=2),
    Message('note_on', channel=2, note=69, velocity=63, time=50),
    Message('note_on', channel=2, note=72, velocity=0, time=8),
    Message('note_on', channel=2, note=65, velocity=60, time=51),
    Message('note_on', channel=2, note=60, velocity=0, time=21),
    Message('note_on', channel=2, note=60, velocity=85, time=46),
    Message('note_on', channel=2, note=69, velocity=0, time=3),
    Message('note_on', channel=2, note=65, velocity=0, time=7),
    Message('note_on', channel=2, note=65, velocity=66, time=59),
    Message('note_on', channel=2, note=69, velocity=70, time=59),
    Message('note_on', channel=2, note=72, velocity=66, time=67),
    Message('note_on', channel=2, note=65, velocity=0, time=16),
    Message('note_on', channel=2, note=69, velocity=0, time=0),
    Message('note_on', channel=2, note=69, velocity=66, time=45),
    Message('note_on', channel=2, note=72, velocity=0, time=21),
    Message('note_on', channel=2, note=60, velocity=0, time=5),
    Message('note_on', channel=2, note=65, velocity=70, time=35),
    Message('note_on', channel=2, note=60, velocity=55, time=64),
    Message('note_on', channel=2, note=69, velocity=0, time=5),
    Message('note_on', channel=2, note=65, velocity=0, time=1),
    Message('note_on', channel=2, note=65, velocity=57, time=61),
    Message('note_on', channel=2, note=69, velocity=36, time=64),
    Message('note_on', channel=2, note=72, velocity=72, time=59),
    Message('note_on', channel=2, note=69, velocity=0, time=18),
    Message('note_on', channel=2, note=65, velocity=0, time=14),
    Message('note_on', channel=2, note=69, velocity=68, time=34),
    Message('note_on', channel=2, note=72, velocity=0, time=25),
    Message('note_on', channel=2, note=60, velocity=0, time=18),
    Message('note_on', channel=2, note=65, velocity=70, time=14),
    Message('note_on', channel=2, note=69, velocity=0, time=66),
    Message('note_on', channel=2, note=60, velocity=59, time=0),
    Message('note_on', channel=2, note=65, velocity=0, time=6),
    Message('note_on', channel=2, note=65, velocity=57, time=60),
    Message('note_on', channel=2, note=69, velocity=57, time=67),
    Message('note_on', channel=2, note=72, velocity=87, time=64),
    Message('note_on', channel=2, note=69, velocity=0, time=11),
    Message('note_on', channel=2, note=65, velocity=0, time=5),
    Message('note_on', channel=2, note=69, velocity=63, time=48),
    Message('note_on', channel=2, note=60, velocity=0, time=8),
    Message('note_on', channel=2, note=72, velocity=0, time=3),
    Message('note_on', channel=2, note=65, velocity=68, time=42),
    Message('note_on', channel=2, note=69, velocity=0, time=8),
    Message('note_on', channel=2, note=65, velocity=0, time=33),
    Message('note_on', channel=2, note=62, velocity=70, time=31),
    Message('control_change', channel=2, control=64, value=127, time=28),
    Message('note_on', channel=2, note=65, velocity=55, time=40),
    Message('note_on', channel=2, note=69, velocity=30, time=64),
    Message('note_on', channel=2, note=72, velocity=66, time=64),
    Message('note_on', channel=2, note=69, velocity=0, time=16),
    Message('note_on', channel=2, note=65, velocity=0, time=5),
    Message('note_on', channel=2, note=69, velocity=53, time=43),
    Message('note_on', channel=2, note=72, velocity=0, time=26),
    Message('note_on', channel=2, note=62, velocity=0, time=10),
    Message('note_on', channel=2, note=65, velocity=66, time=25),
    Message('control_change', channel=2, control=64, value=0, time=34),
    Message('note_on', channel=2, note=50, velocity=51, time=30),
    Message('note_on', channel=2, note=62, velocity=56, time=2),
    Message('note_on', channel=2, note=65, velocity=0, time=3),
    Message('note_on', channel=2, note=69, velocity=0, time=5),
    Message('control_change', channel=2, control=64, value=127, time=3),
    Message('note_on', channel=2, note=65, velocity=53, time=62),
    Message('note_on', channel=2, note=69, velocity=53, time=58),
    Message('note_on', channel=2, note=72, velocity=72, time=64),
    Message('note_on', channel=2, note=65, velocity=0, time=14),
    Message('note_on', channel=2, note=69, velocity=0, time=0),
    Message('note_on', channel=2, note=62, velocity=0, time=21),
    Message('note_on', channel=2, note=69, velocity=70, time=26),
    Message('note_on', channel=2, note=72, velocity=0, time=16),
    Message('note_on', channel=2, note=69, velocity=0, time=49),
    Message('note_on', channel=2, note=50, velocity=0, time=4),
    Message('note_on', channel=2, note=65, velocity=72, time=1),
    Message('note_on', channel=2, note=65, velocity=0, time=34),
    Message('control_change', channel=2, control=64, value=0, time=13),
    Message('note_on', channel=2, note=43, velocity=46, time=8),
    Message('note_on', channel=2, note=65, velocity=63, time=1),
    Message('control_change', channel=2, control=64, value=127, time=27),
    Message('note_on', channel=2, note=62, velocity=41, time=40),
    Message('note_on', channel=2, note=65, velocity=0, time=18),
    Message('note_on', channel=2, note=65, velocity=58, time=38),
    Message('note_on', channel=2, note=71, velocity=78, time=74),
    Message('note_on', channel=2, note=65, velocity=0, time=32),
    Message('note_on', channel=2, note=62, velocity=0, time=5),
    Message('note_on', channel=2, note=71, velocity=0, time=25),
    Message('note_on', channel=2, note=67, velocity=41, time=5),
    Message('note_on', channel=2, note=65, velocity=52, time=56),
    Message('note_on', channel=2, note=62, velocity=68, time=64),
    Message('note_on', channel=2, note=43, velocity=0, time=96),
    Message('note_on', channel=2, note=43, velocity=72, time=27),
    Message('note_on', channel=2, note=62, velocity=0, time=23),
    Message('note_on', channel=2, note=65, velocity=0, time=1),
    Message('note_on', channel=2, note=67, velocity=0, time=2),
    Message('note_on', channel=2, note=62, velocity=38, time=11),
    Message('note_on', channel=2, note=62, velocity=0, time=24),
    Message('note_on', channel=2, note=71, velocity=47, time=3),
    Message('note_on', channel=2, note=71, velocity=0, time=63),
    Message('note_on', channel=2, note=67, velocity=66, time=6),
    Message('note_on', channel=2, note=65, velocity=63, time=59),
    Message('note_on', channel=2, note=43, velocity=0, time=13),
    Message('control_change', channel=2, control=64, value=0, time=47),
    Message('note_on', channel=2, note=67, velocity=0, time=8),
    Message('note_on', channel=2, note=65, velocity=0, time=0),
    Message('note_on', channel=2, note=40, velocity=54, time=4),
    Message('note_on', channel=2, note=59, velocity=60, time=0),
    Message('control_change', channel=2, control=64, value=127, time=24),
    Message('note_on', channel=2, note=62, velocity=51, time=44),
    Message('note_on', channel=2, note=64, velocity=53, time=60),
    Message('note_on', channel=2, note=67, velocity=76, time=64),
    Message('note_on', channel=2, note=64, velocity=0, time=13),
    Message('note_on', channel=2, note=62, velocity=0, time=7),
    Message('note_on', channel=2, note=64, velocity=59, time=43),
    Message('note_on', channel=2, note=67, velocity=0, time=3),
    Message('note_on', channel=2, note=59, velocity=0, time=34),
    Message('note_on', channel=2, note=40, velocity=0, time=19),
    Message('note_on', channel=2, note=62, velocity=74, time=8),
    Message('note_on', channel=2, note=40, velocity=57, time=38),
    Message('control_change', channel=2, control=64, value=0, time=10),
    Message('note_on', channel=2, note=59, velocity=68, time=22),
    Message('control_change', channel=2, control=64, value=127, time=13),
    Message('note_on', channel=2, note=62, velocity=0, time=16),
    Message('note_on', channel=2, note=64, velocity=0, time=19),
    Message('note_on', channel=2, note=62, velocity=70, time=16),
    Message('note_on', channel=2, note=64, velocity=58, time=56),
    Message('note_on', channel=2, note=67, velocity=82, time=64),
    Message('note_on', channel=2, note=64, velocity=0, time=15),
    Message('note_on', channel=2, note=62, velocity=0, time=3),
    Message('note_on', channel=2, note=67, velocity=0, time=41),
    Message('note_on', channel=2, note=64, velocity=60, time=10),
    Message('note_on', channel=2, note=59, velocity=0, time=19),
    Message('note_on', channel=2, note=62, velocity=76, time=42),
    Message('note_on', channel=2, note=64, velocity=0, time=3),
    Message('note_on', channel=2, note=62, velocity=0, time=24),
    Message('control_change', channel=2, control=64, value=0, time=2),
    Message('note_on', channel=2, note=40, velocity=0, time=12),
    Message('note_on', channel=2, note=45, velocity=54, time=24),
    Message('note_on', channel=2, note=64, velocity=60, time=0),
    Message('control_change', channel=2, control=64, value=127, time=24),
    Message('note_on', channel=2, note=69, velocity=51, time=44),
    Message('note_on', channel=2, note=72, velocity=53, time=60),
    Message('note_on', channel=2, note=76, velocity=76, time=64),
    Message('note_on', channel=2, note=72, velocity=0, time=13),
    Message('note_on', channel=2, note=69, velocity=0, time=7),
    Message('note_on', channel=2, note=72, velocity=59, time=43),
    Message('note_on', channel=2, note=76, velocity=0, time=3),
    Message('note_on', channel=2, note=64, velocity=0, time=34),
    Message('note_on', channel=2, note=45, velocity=0, time=19),
    Message('note_on', channel=2, note=69, velocity=74, time=8),
    Message('note_on', channel=2, note=45, velocity=57, time=38),
    Message('control_change', channel=2, control=64, value=0, time=10),
    Message('note_on', channel=2, note=64, velocity=68, time=22),
    Message('control_change', channel=2, control=64, value=127, time=13),
    Message('note_on', channel=2, note=69, velocity=0, time=16),
    Message('note_on', channel=2, note=72, velocity=0, time=19),
    Message('note_on', channel=2, note=69, velocity=70, time=16),
    Message('note_on', channel=2, note=72, velocity=58, time=56),
    Message('note_on', channel=2, note=76, velocity=82, time=64),
    Message('note_on', channel=2, note=72, velocity=0, time=15),
    Message('note_on', channel=2, note=69, velocity=0, time=3),
    Message('note_on', channel=2, note=76, velocity=0, time=41),
    Message('note_on', channel=2, note=72, velocity=60, time=10),
    Message('note_on', channel=2, note=64, velocity=0, time=19),
    Message('note_on', channel=2, note=69, velocity=76, time=42),
    Message('note_on', channel=2, note=72, velocity=0, time=3),
    Message('note_on', channel=2, note=69, velocity=0, time=24),
    Message('control_change', channel=2, control=64, value=0, time=2),
    Message('note_on', channel=2, note=45, velocity=0, time=12),
    Message('note_on', channel=2, note=62, velocity=70, time=20),
    Message('control_change', channel=2, control=64, value=127, time=28),
    Message('note_on', channel=2, note=65, velocity=55, time=40),
    Message('note_on', channel=2, note=69, velocity=30, time=64),
    Message('note_on', channel=2, note=72, velocity=66, time=64),
    Message('note_on', channel=2, note=69, velocity=0, time=16),
    Message('note_on', channel=2, note=65, velocity=0, time=5),
    Message('note_on', channel=2, note=69, velocity=53, time=43),
    Message('note_on', channel=2, note=72, velocity=0, time=26),
    Message('note_on', channel=2, note=62, velocity=0, time=10),
    Message('note_on', channel=2, note=65, velocity=66, time=25),
    Message('control_change', channel=2, control=64, value=0, time=34),
    Message('note_on', channel=2, note=50, velocity=51, time=30),
    Message('note_on', channel=2, note=62, velocity=56, time=2),
    Message('note_on', channel=2, note=65, velocity=0, time=3),
    Message('note_on', channel=2, note=69, velocity=0, time=5),
    Message('control_change', channel=2, control=64, value=127, time=3),
    Message('note_on', channel=2, note=65, velocity=53, time=62),
    Message('note_on', channel=2, note=69, velocity=53, time=58),
    Message('note_on', channel=2, note=72, velocity=72, time=64),
    Message('note_on', channel=2, note=65, velocity=0, time=14),
    Message('note_on', channel=2, note=69, velocity=0, time=0),
    Message('note_on', channel=2, note=62, velocity=0, time=21),
    Message('note_on', channel=2, note=69, velocity=70, time=26),
    Message('note_on', channel=2, note=72, velocity=0, time=16),
    Message('note_on', channel=2, note=69, velocity=0, time=49),
    Message('note_on', channel=2, note=50, velocity=0, time=4),
    Message('note_on', channel=2, note=65, velocity=72, time=1),
    Message('note_on', channel=2, note=65, velocity=0, time=34),
    Message('control_change', channel=2, control=64, value=0, time=13),
    Message('note_on', channel=2, note=43, velocity=46, time=8),
    Message('note_on', channel=2, note=65, velocity=63, time=1),
    Message('control_change', channel=2, control=64, value=127, time=27),
    Message('note_on', channel=2, note=62, velocity=41, time=40),
    Message('note_on', channel=2, note=65, velocity=0, time=18),
    Message('note_on', channel=2, note=65, velocity=58, time=38),
    Message('note_on', channel=2, note=71, velocity=78, time=74),
    Message('note_on', channel=2, note=65, velocity=0, time=32),
    Message('note_on', channel=2, note=62, velocity=0, time=5),
    Message('note_on', channel=2, note=71, velocity=0, time=25),
    Message('note_on', channel=2, note=67, velocity=41, time=5),
    Message('note_on', channel=2, note=65, velocity=52, time=56),
    Message('note_on', channel=2, note=62, velocity=68, time=64),
    Message('note_on', channel=2, note=43, velocity=0, time=96),
    Message('note_on', channel=2, note=43, velocity=72, time=27),
    Message('note_on', channel=2, note=62, velocity=0, time=23),
    Message('note_on', channel=2, note=65, velocity=0, time=1),
    Message('note_on', channel=2, note=67, velocity=0, time=2),
    Message('note_on', channel=2, note=62, velocity=38, time=11),
    Message('note_on', channel=2, note=62, velocity=0, time=24),
    Message('note_on', channel=2, note=71, velocity=47, time=3),
    Message('note_on', channel=2, note=71, velocity=0, time=63),
    Message('note_on', channel=2, note=67, velocity=66, time=6),
    Message('note_on', channel=2, note=65, velocity=63, time=59),
    Message('note_on', channel=2, note=43, velocity=0, time=13),
    Message('control_change', channel=2, control=64, value=0, time=47),
    Message('note_on', channel=2, note=67, velocity=0, time=8),
    Message('note_on', channel=2, note=65, velocity=0, time=0),
    Message('note_on', channel=2, note=41, velocity=54, time=4),
    Message('note_on', channel=2, note=60, velocity=60, time=0),
    Message('control_change', channel=2, control=64, value=127, time=24),
    Message('note_on', channel=2, note=62, velocity=51, time=44),
    Message('note_on', channel=2, note=65, velocity=53, time=60),
    Message('note_on', channel=2, note=69, velocity=76, time=64),
    Message('note_on', channel=2, note=65, velocity=0, time=13),
    Message('note_on', channel=2, note=62, velocity=0, time=7),
    Message('note_on', channel=2, note=65, velocity=59, time=43),
    Message('note_on', channel=2, note=69, velocity=0, time=3),
    Message('note_on', channel=2, note=60, velocity=0, time=34),
    Message('note_on', channel=2, note=41, velocity=0, time=19),
    Message('note_on', channel=2, note=62, velocity=74, time=8),
    Message('note_on', channel=2, note=41, velocity=57, time=38),
    Message('control_change', channel=2, control=64, value=0, time=10),
    Message('note_on', channel=2, note=60, velocity=68, time=22),
    Message('control_change', channel=2, control=64, value=127, time=13),
    Message('note_on', channel=2, note=62, velocity=0, time=16),
    Message('note_on', channel=2, note=65, velocity=0, time=19),
    Message('note_on', channel=2, note=62, velocity=70, time=16),
    Message('note_on', channel=2, note=65, velocity=58, time=56),
    Message('note_on', channel=2, note=69, velocity=82, time=64),
    Message('note_on', channel=2, note=65, velocity=0, time=15),
    Message('note_on', channel=2, note=62, velocity=0, time=3),
    Message('note_on', channel=2, note=69, velocity=0, time=41),
    Message('note_on', channel=2, note=65, velocity=60, time=10),
    Message('note_on', channel=2, note=60, velocity=0, time=19),
    Message('note_on', channel=2, note=62, velocity=76, time=42),
    Message('note_on', channel=2, note=65, velocity=0, time=3),
    Message('note_on', channel=2, note=62, velocity=0, time=24),
    Message('control_change', channel=2, control=64, value=0, time=2),
    Message('note_on', channel=2, note=41, velocity=0, time=12),
    Message('note_on', channel=2, note=60, velocity=78, time=26),
    Message('note_on', channel=2, note=64, velocity=62, time=74),
    Message('note_on', channel=2, note=67, velocity=62, time=59),
    Message('note_on', channel=2, note=72, velocity=76, time=64),
    Message('note_on', channel=2, note=67, velocity=0, time=9),
    Message('note_on', channel=2, note=64, velocity=0, time=2),
    Message('note_on', channel=2, note=67, velocity=63, time=50),
    Message('note_on', channel=2, note=72, velocity=0, time=8),
    Message('note_on', channel=2, note=64, velocity=60, time=51),
    Message('note_on', channel=2, note=60, velocity=0, time=21),
    Message('note_on', channel=2, note=60, velocity=85, time=46),
    Message('note_on', channel=2, note=67, velocity=0, time=3),
    Message('note_on', channel=2, note=64, velocity=0, time=7),
    Message('note_on', channel=2, note=64, velocity=66, time=59),
    Message('note_on', channel=2, note=67, velocity=70, time=59),
    Message('note_on', channel=2, note=72, velocity=66, time=67),
    Message('note_on', channel=2, note=64, velocity=0, time=16),
    Message('note_on', channel=2, note=67, velocity=0, time=0),
    Message('note_on', channel=2, note=67, velocity=66, time=45),
    Message('note_on', channel=2, note=72, velocity=0, time=21),
    Message('note_on', channel=2, note=60, velocity=0, time=5),
    Message('note_on', channel=2, note=64, velocity=70, time=35),
    Message('note_on', channel=2, note=60, velocity=55, time=64),
    Message('note_on', channel=2, note=67, velocity=0, time=5),
    Message('note_on', channel=2, note=64, velocity=0, time=1),
    Message('note_on', channel=2, note=64, velocity=57, time=61),
    Message('note_on', channel=2, note=67, velocity=36, time=64),
    Message('note_on', channel=2, note=72, velocity=72, time=59),
    Message('note_on', channel=2, note=67, velocity=0, time=18),
    Message('note_on', channel=2, note=64, velocity=0, time=14),
    Message('note_on', channel=2, note=67, velocity=68, time=34),
    Message('note_on', channel=2, note=72, velocity=0, time=25),
    Message('note_on', channel=2, note=60, velocity=0, time=18),
    Message('note_on', channel=2, note=64, velocity=70, time=14),
    Message('note_on', channel=2, note=67, velocity=0, time=66),
    Message('note_on', channel=2, note=60, velocity=59, time=0),
    Message('note_on', channel=2, note=64, velocity=0, time=6),
    Message('note_on', channel=2, note=64, velocity=57, time=60),
    Message('note_on', channel=2, note=67, velocity=57, time=67),
    Message('note_on', channel=2, note=72, velocity=87, time=64),
    Message('note_on', channel=2, note=67, velocity=0, time=11),
    Message('note_on', channel=2, note=64, velocity=0, time=5),
    Message('note_on', channel=2, note=67, velocity=63, time=48),
    Message('note_on', channel=2, note=60, velocity=0, time=8),
    Message('note_on', channel=2, note=72, velocity=0, time=3),
    Message('note_on', channel=2, note=64, velocity=68, time=42),
    Message('note_on', channel=2, note=67, velocity=0, time=8),
    Message('note_on', channel=2, note=64, velocity=0, time=33),
    Message('control_change', channel=2, control=64, value=0, time=31),
    MetaMessage('end_of_track', time=0)]),
  MidiTrack([
    MetaMessage('midi_port', port=1, time=0),
    MetaMessage('track_name', name='oohs1               ', time=0),
    Message('program_change', channel=5, program=53, time=0),
    Message('control_change', channel=5, control=7, value=70, time=0),
    Message('control_change', channel=5, control=64, value=0, time=0),
    Message('note_on', channel=5, note=67, velocity=122, time=29184),
    Message('note_on', channel=5, note=76, velocity=115, time=0),
    Message('note_on', channel=5, note=79, velocity=127, time=384),
    Message('note_on', channel=5, note=67, velocity=0, time=376),
    Message('note_on', channel=5, note=76, velocity=0, time=0),
    Message('note_on', channel=5, note=79, velocity=0, time=8),
    Message('note_on', channel=5, note=76, velocity=127, time=0),
    Message('note_on', channel=5, note=70, velocity=126, time=0),
    Message('note_on', channel=5, note=70, velocity=0, time=376),
    Message('note_on', channel=5, note=72, velocity=108, time=8),
    Message('note_on', channel=5, note=76, velocity=0, time=384),
    Message('note_on', channel=5, note=72, velocity=0, time=0),
    Message('note_on', channel=5, note=81, velocity=120, time=0),
    Message('note_on', channel=5, note=72, velocity=111, time=0),
    Message('note_on', channel=5, note=72, velocity=0, time=1120),
    Message('note_on', channel=5, note=69, velocity=127, time=32),
    Message('note_on', channel=5, note=81, velocity=0, time=329),
    Message('note_on', channel=5, note=69, velocity=0, time=27),
    Message('note_on', channel=5, note=77, velocity=126, time=28),
    Message('note_on', channel=5, note=72, velocity=118, time=0),
    Message('note_on', channel=5, note=72, velocity=0, time=755),
    Message('note_on', channel=5, note=77, velocity=0, time=5),
    Message('note_on', channel=5, note=77, velocity=126, time=8),
    Message('note_on', channel=5, note=71, velocity=118, time=0),
    Message('note_on', channel=5, note=71, velocity=0, time=755),
    Message('note_on', channel=5, note=77, velocity=0, time=5),
    Message('note_on', channel=5, note=74, velocity=127, time=8),
    Message('note_on', channel=5, note=67, velocity=126, time=0),
    Message('note_on', channel=5, note=67, velocity=0, time=376),
    Message('note_on', channel=5, note=71, velocity=108, time=8),
    Message('note_on', channel=5, note=74, velocity=0, time=384),
    Message('note_on', channel=5, note=71, velocity=0, time=0),
    Message('note_on', channel=5, note=72, velocity=126, time=0),
    Message('note_on', channel=5, note=64, velocity=118, time=0),
    Message('note_on', channel=5, note=64, velocity=0, time=755),
    Message('note_on', channel=5, note=72, velocity=0, time=5),
    Message('note_on', channel=5, note=77, velocity=127, time=8),
    Message('note_on', channel=5, note=72, velocity=126, time=0),
    Message('note_on', channel=5, note=72, velocity=0, time=376),
    Message('note_on', channel=5, note=74, velocity=108, time=8),
    Message('note_on', channel=5, note=77, velocity=0, time=384),
    Message('note_on', channel=5, note=74, velocity=0, time=0),
    Message('note_on', channel=5, note=77, velocity=117, time=0),
    Message('note_on', channel=5, note=71, velocity=113, time=0),
    Message('note_on', channel=5, note=79, velocity=127, time=384),
    Message('note_on', channel=5, note=77, velocity=0, time=38),
    Message('note_on', channel=5, note=79, velocity=0, time=154),
    Message('note_on', channel=5, note=77, velocity=127, time=0),
    Message('note_on', channel=5, note=77, velocity=0, time=148),
    Message('note_on', channel=5, note=71, velocity=0, time=8),
    Message('note_on', channel=5, note=74, velocity=127, time=36),
    Message('note_on', channel=5, note=69, velocity=126, time=0),
    Message('note_on', channel=5, note=69, velocity=0, time=376),
    Message('note_on', channel=5, note=72, velocity=108, time=8),
    Message('note_on', channel=5, note=74, velocity=0, time=384),
    Message('note_on', channel=5, note=72, velocity=0, time=0),
    Message('note_on', channel=5, note=76, velocity=126, time=0),
    Message('note_on', channel=5, note=67, velocity=118, time=0),
    Message('note_on', channel=5, note=67, velocity=0, time=755),
    Message('note_on', channel=5, note=76, velocity=0, time=5),
    Message('note_on', channel=5, note=67, velocity=122, time=12296),
    Message('note_on', channel=5, note=76, velocity=115, time=0),
    Message('note_on', channel=5, note=79, velocity=127, time=384),
    Message('note_on', channel=5, note=67, velocity=0, time=376),
    Message('note_on', channel=5, note=76, velocity=0, time=0),
    Message('note_on', channel=5, note=79, velocity=0, time=8),
    Message('note_on', channel=5, note=76, velocity=117, time=0),
    Message('note_on', channel=5, note=70, velocity=113, time=0),
    Message('note_on', channel=5, note=79, velocity=127, time=384),
    Message('note_on', channel=5, note=76, velocity=0, time=38),
    Message('note_on', channel=5, note=79, velocity=0, time=154),
    Message('note_on', channel=5, note=76, velocity=127, time=0),
    Message('note_on', channel=5, note=76, velocity=0, time=148),
    Message('note_on', channel=5, note=70, velocity=0, time=8),
    Message('note_on', channel=5, note=77, velocity=127, time=36),
    Message('note_on', channel=5, note=69, velocity=122, time=0),
    Message('note_on', channel=5, note=81, velocity=118, time=1152),
    Message('note_on', channel=5, note=69, velocity=0, time=355),
    Message('note_on', channel=5, note=77, velocity=0, time=1),
    Message('note_on', channel=5, note=81, velocity=0, time=15),
    Message('note_on', channel=5, note=77, velocity=127, time=13),
    Message('note_on', channel=5, note=72, velocity=126, time=0),
    Message('note_on', channel=5, note=72, velocity=0, time=376),
    Message('note_on', channel=5, note=74, velocity=108, time=8),
    Message('note_on', channel=5, note=77, velocity=0, time=384),
    Message('note_on', channel=5, note=74, velocity=0, time=0),
    Message('note_on', channel=5, note=77, velocity=117, time=0),
    Message('note_on', channel=5, note=71, velocity=113, time=0),
    Message('note_on', channel=5, note=79, velocity=127, time=384),
    Message('note_on', channel=5, note=77, velocity=0, time=38),
    Message('note_on', channel=5, note=79, velocity=0, time=154),
    Message('note_on', channel=5, note=77, velocity=127, time=0),
    Message('note_on', channel=5, note=77, velocity=0, time=148),
    Message('note_on', channel=5, note=71, velocity=0, time=8),
    Message('note_on', channel=5, note=74, velocity=117, time=36),
    Message('note_on', channel=5, note=67, velocity=113, time=0),
    Message('note_on', channel=5, note=76, velocity=127, time=384),
    Message('note_on', channel=5, note=74, velocity=0, time=38),
    Message('note_on', channel=5, note=76, velocity=0, time=154),
    Message('note_on', channel=5, note=74, velocity=127, time=0),
    Message('note_on', channel=5, note=74, velocity=0, time=148),
    Message('note_on', channel=5, note=67, velocity=0, time=8),
    Message('note_on', channel=5, note=72, velocity=126, time=36),
    Message('note_on', channel=5, note=64, velocity=118, time=0),
    Message('note_on', channel=5, note=64, velocity=0, time=755),
    Message('note_on', channel=5, note=72, velocity=0, time=5),
    Message('note_on', channel=5, note=77, velocity=127, time=8),
    Message('note_on', channel=5, note=72, velocity=126, time=0),
    Message('note_on', channel=5, note=72, velocity=0, time=376),
    Message('note_on', channel=5, note=74, velocity=108, time=8),
    Message('note_on', channel=5, note=77, velocity=0, time=384),
    Message('note_on', channel=5, note=74, velocity=0, time=0),
    Message('note_on', channel=5, note=77, velocity=126, time=0),
    Message('note_on', channel=5, note=71, velocity=118, time=0),
    Message('note_on', channel=5, note=71, velocity=0, time=755),
    Message('note_on', channel=5, note=77, velocity=0, time=5),
    Message('note_on', channel=5, note=74, velocity=126, time=8),
    Message('note_on', channel=5, note=69, velocity=118, time=0),
    Message('note_on', channel=5, note=69, velocity=0, time=755),
    Message('note_on', channel=5, note=74, velocity=0, time=5),
    Message('control_change', channel=5, control=64, value=0, time=1544),
    MetaMessage('end_of_track', time=0)]),
  MidiTrack([
    MetaMessage('midi_port', port=1, time=0),
    MetaMessage('track_name', name='strings high 1      ', time=0),
    Message('program_change', channel=6, program=44, time=0),
    Message('control_change', channel=6, control=7, value=70, time=0),
    Message('control_change', channel=6, control=64, value=0, time=0),
    Message('note_on', channel=6, note=79, velocity=82, time=29184),
    Message('note_on', channel=6, note=88, velocity=75, time=0),
    Message('note_on', channel=6, note=91, velocity=91, time=384),
    Message('note_on', channel=6, note=79, velocity=0, time=376),
    Message('note_on', channel=6, note=88, velocity=0, time=0),
    Message('note_on', channel=6, note=91, velocity=0, time=8),
    Message('note_on', channel=6, note=88, velocity=92, time=0),
    Message('note_on', channel=6, note=82, velocity=86, time=0),
    Message('note_on', channel=6, note=82, velocity=0, time=376),
    Message('note_on', channel=6, note=84, velocity=68, time=8),
    Message('note_on', channel=6, note=88, velocity=0, time=384),
    Message('note_on', channel=6, note=84, velocity=0, time=0),
    Message('note_on', channel=6, note=93, velocity=80, time=0),
    Message('note_on', channel=6, note=84, velocity=71, time=0),
    Message('note_on', channel=6, note=84, velocity=0, time=1120),
    Message('note_on', channel=6, note=81, velocity=87, time=32),
    Message('note_on', channel=6, note=93, velocity=0, time=329),
    Message('note_on', channel=6, note=81, velocity=0, time=27),
    Message('note_on', channel=6, note=89, velocity=86, time=28),
    Message('note_on', channel=6, note=84, velocity=78, time=0),
    Message('note_on', channel=6, note=84, velocity=0, time=755),
    Message('note_on', channel=6, note=89, velocity=0, time=5),
    Message('note_on', channel=6, note=89, velocity=86, time=8),
    Message('note_on', channel=6, note=83, velocity=78, time=0),
    Message('note_on', channel=6, note=83, velocity=0, time=755),
    Message('note_on', channel=6, note=89, velocity=0, time=5),
    Message('note_on', channel=6, note=86, velocity=92, time=8),
    Message('note_on', channel=6, note=79, velocity=86, time=0),
    Message('note_on', channel=6, note=79, velocity=0, time=376),
    Message('note_on', channel=6, note=83, velocity=68, time=8),
    Message('note_on', channel=6, note=86, velocity=0, time=384),
    Message('note_on', channel=6, note=83, velocity=0, time=0),
    Message('note_on', channel=6, note=84, velocity=86, time=0),
    Message('note_on', channel=6, note=76, velocity=78, time=0),
    Message('note_on', channel=6, note=76, velocity=0, time=755),
    Message('note_on', channel=6, note=84, velocity=0, time=5),
    Message('note_on', channel=6, note=89, velocity=92, time=8),
    Message('note_on', channel=6, note=84, velocity=86, time=0),
    Message('note_on', channel=6, note=84, velocity=0, time=376),
    Message('note_on', channel=6, note=86, velocity=68, time=8),
    Message('note_on', channel=6, note=89, velocity=0, time=384),
    Message('note_on', channel=6, note=86, velocity=0, time=0),
    Message('note_on', channel=6, note=89, velocity=77, time=0),
    Message('note_on', channel=6, note=83, velocity=73, time=0),
    Message('note_on', channel=6, note=91, velocity=88, time=384),
    Message('note_on', channel=6, note=89, velocity=0, time=38),
    Message('note_on', channel=6, note=91, velocity=0, time=154),
    Message('note_on', channel=6, note=89, velocity=92, time=0),
    Message('note_on', channel=6, note=89, velocity=0, time=148),
    Message('note_on', channel=6, note=83, velocity=0, time=8),
    Message('note_on', channel=6, note=86, velocity=92, time=36),
    Message('note_on', channel=6, note=81, velocity=86, time=0),
    Message('note_on', channel=6, note=81, velocity=0, time=376),
    Message('note_on', channel=6, note=84, velocity=68, time=8),
    Message('note_on', channel=6, note=86, velocity=0, time=384),
    Message('note_on', channel=6, note=84, velocity=0, time=0),
    Message('note_on', channel=6, note=88, velocity=86, time=0),
    Message('note_on', channel=6, note=79, velocity=78, time=0),
    Message('note_on', channel=6, note=79, velocity=0, time=755),
    Message('note_on', channel=6, note=88, velocity=0, time=5),
    Message('note_on', channel=6, note=79, velocity=82, time=12296),
    Message('note_on', channel=6, note=88, velocity=75, time=0),
    Message('note_on', channel=6, note=91, velocity=91, time=384),
    Message('note_on', channel=6, note=79, velocity=0, time=376),
    Message('note_on', channel=6, note=88, velocity=0, time=0),
    Message('note_on', channel=6, note=91, velocity=0, time=8),
    Message('note_on', channel=6, note=88, velocity=77, time=0),
    Message('note_on', channel=6, note=82, velocity=73, time=0),
    Message('note_on', channel=6, note=91, velocity=88, time=384),
    Message('note_on', channel=6, note=88, velocity=0, time=38),
    Message('note_on', channel=6, note=91, velocity=0, time=154),
    Message('note_on', channel=6, note=88, velocity=92, time=0),
    Message('note_on', channel=6, note=88, velocity=0, time=148),
    Message('note_on', channel=6, note=82, velocity=0, time=8),
    Message('note_on', channel=6, note=89, velocity=87, time=36),
    Message('note_on', channel=6, note=81, velocity=82, time=0),
    Message('note_on', channel=6, note=93, velocity=78, time=1152),
    Message('note_on', channel=6, note=81, velocity=0, time=355),
    Message('note_on', channel=6, note=89, velocity=0, time=1),
    Message('note_on', channel=6, note=93, velocity=0, time=15),
    Message('note_on', channel=6, note=89, velocity=92, time=13),
    Message('note_on', channel=6, note=84, velocity=86, time=0),
    Message('note_on', channel=6, note=84, velocity=0, time=376),
    Message('note_on', channel=6, note=86, velocity=68, time=8),
    Message('note_on', channel=6, note=89, velocity=0, time=384),
    Message('note_on', channel=6, note=86, velocity=0, time=0),
    Message('note_on', channel=6, note=89, velocity=77, time=0),
    Message('note_on', channel=6, note=83, velocity=73, time=0),
    Message('note_on', channel=6, note=91, velocity=88, time=384),
    Message('note_on', channel=6, note=89, velocity=0, time=38),
    Message('note_on', channel=6, note=91, velocity=0, time=154),
    Message('note_on', channel=6, note=89, velocity=92, time=0),
    Message('note_on', channel=6, note=89, velocity=0, time=148),
    Message('note_on', channel=6, note=83, velocity=0, time=8),
    Message('note_on', channel=6, note=86, velocity=77, time=36),
    Message('note_on', channel=6, note=79, velocity=73, time=0),
    Message('note_on', channel=6, note=88, velocity=88, time=384),
    Message('note_on', channel=6, note=86, velocity=0, time=38),
    Message('note_on', channel=6, note=88, velocity=0, time=154),
    Message('note_on', channel=6, note=86, velocity=92, time=0),
    Message('note_on', channel=6, note=86, velocity=0, time=148),
    Message('note_on', channel=6, note=79, velocity=0, time=8),
    Message('note_on', channel=6, note=84, velocity=86, time=36),
    Message('note_on', channel=6, note=76, velocity=78, time=0),
    Message('note_on', channel=6, note=76, velocity=0, time=755),
    Message('note_on', channel=6, note=84, velocity=0, time=5),
    Message('note_on', channel=6, note=89, velocity=92, time=8),
    Message('note_on', channel=6, note=84, velocity=86, time=0),
    Message('note_on', channel=6, note=84, velocity=0, time=376),
    Message('note_on', channel=6, note=86, velocity=68, time=8),
    Message('note_on', channel=6, note=89, velocity=0, time=384),
    Message('note_on', channel=6, note=86, velocity=0, time=0),
    Message('note_on', channel=6, note=89, velocity=86, time=0),
    Message('note_on', channel=6, note=83, velocity=78, time=0),
    Message('note_on', channel=6, note=83, velocity=0, time=755),
    Message('note_on', channel=6, note=89, velocity=0, time=5),
    Message('note_on', channel=6, note=86, velocity=86, time=8),
    Message('note_on', channel=6, note=81, velocity=78, time=0),
    Message('note_on', channel=6, note=81, velocity=0, time=755),
    Message('note_on', channel=6, note=86, velocity=0, time=5),
    Message('control_change', channel=6, control=64, value=0, time=1544),
    MetaMessage('end_of_track', time=0)]),
  MidiTrack([
    MetaMessage('midi_port', port=1, time=0),
    MetaMessage('track_name', name='synth strings1      ', time=0),
    Message('program_change', channel=7, program=48, time=0),
    Message('control_change', channel=7, control=7, value=68, time=0),
    Message('control_change', channel=7, control=64, value=0, time=0),
    Message('note_on', channel=7, note=64, velocity=127, time=1536),
    Message('note_on', channel=7, note=60, velocity=127, time=0),
    Message('note_on', channel=7, note=55, velocity=127, time=0),
    Message('note_on', channel=7, note=64, velocity=0, time=577),
    Message('note_on', channel=7, note=60, velocity=0, time=0),
    Message('note_on', channel=7, note=55, velocity=0, time=0),
    Message('note_on', channel=7, note=64, velocity=127, time=63),
    Message('note_on', channel=7, note=60, velocity=127, time=0),
    Message('note_on', channel=7, note=55, velocity=127, time=0),
    Message('note_on', channel=7, note=64, velocity=0, time=33),
    Message('note_on', channel=7, note=60, velocity=0, time=0),
    Message('note_on', channel=7, note=55, velocity=0, time=0),
    Message('note_on', channel=7, note=64, velocity=127, time=31),
    Message('note_on', channel=7, note=60, velocity=127, time=0),
    Message('note_on', channel=7, note=55, velocity=127, time=0),
    Message('note_on', channel=7, note=64, velocity=0, time=35),
    Message('note_on', channel=7, note=60, velocity=0, time=0),
    Message('note_on', channel=7, note=55, velocity=0, time=0),
    Message('note_on', channel=7, note=64, velocity=127, time=29),
    Message('note_on', channel=7, note=60, velocity=127, time=0),
    Message('note_on', channel=7, note=55, velocity=127, time=0),
    Message('note_on', channel=7, note=64, velocity=0, time=587),
    Message('note_on', channel=7, note=60, velocity=0, time=0),
    Message('note_on', channel=7, note=55, velocity=0, time=0),
    Message('note_on', channel=7, note=64, velocity=127, time=53),
    Message('note_on', channel=7, note=60, velocity=127, time=0),
    Message('note_on', channel=7, note=55, velocity=127, time=0),
    Message('note_on', channel=7, note=64, velocity=0, time=32),
    Message('note_on', channel=7, note=60, velocity=0, time=0),
    Message('note_on', channel=7, note=55, velocity=0, time=0),
    Message('note_on', channel=7, note=64, velocity=127, time=32),
    Message('note_on', channel=7, note=60, velocity=127, time=0),
    Message('note_on', channel=7, note=55, velocity=127, time=0),
    Message('note_on', channel=7, note=64, velocity=0, time=35),
    Message('note_on', channel=7, note=60, velocity=0, time=0),
    Message('note_on', channel=7, note=55, velocity=0, time=0),
    Message('note_on', channel=7, note=64, velocity=127, time=29),
    Message('note_on', channel=7, note=60, velocity=127, time=0),
    Message('note_on', channel=7, note=55, velocity=127, time=0),
    Message('note_on', channel=7, note=64, velocity=0, time=577),
    Message('note_on', channel=7, note=60, velocity=0, time=0),
    Message('note_on', channel=7, note=55, velocity=0, time=0),
    Message('note_on', channel=7, note=64, velocity=127, time=63),
    Message('note_on', channel=7, note=60, velocity=127, time=0),
    Message('note_on', channel=7, note=55, velocity=127, time=0),
    Message('note_on', channel=7, note=64, velocity=0, time=33),
    Message('note_on', channel=7, note=60, velocity=0, time=0),
    Message('note_on', channel=7, note=55, velocity=0, time=0),
    Message('note_on', channel=7, note=64, velocity=127, time=31),
    Message('note_on', channel=7, note=60, velocity=127, time=0),
    Message('note_on', channel=7, note=55, velocity=127, time=0),
    Message('note_on', channel=7, note=64, velocity=0, time=35),
    Message('note_on', channel=7, note=60, velocity=0, time=0),
    Message('note_on', channel=7, note=55, velocity=0, time=0),
    Message('note_on', channel=7, note=64, velocity=127, time=29),
    Message('note_on', channel=7, note=60, velocity=127, time=0),
    Message('note_on', channel=7, note=55, velocity=127, time=0),
    Message('note_on', channel=7, note=64, velocity=0, time=587),
    Message('note_on', channel=7, note=60, velocity=0, time=0),
    Message('note_on', channel=7, note=55, velocity=0, time=0),
    Message('note_on', channel=7, note=64, velocity=127, time=53),
    Message('note_on', channel=7, note=60, velocity=127, time=0),
    Message('note_on', channel=7, note=55, velocity=127, time=0),
    Message('note_on', channel=7, note=64, velocity=0, time=32),
    Message('note_on', channel=7, note=60, velocity=0, time=0),
    Message('note_on', channel=7, note=55, velocity=0, time=0),
    Message('note_on', channel=7, note=64, velocity=127, time=32),
    Message('note_on', channel=7, note=60, velocity=127, time=0),
    Message('note_on', channel=7, note=55, velocity=127, time=0),
    Message('note_on', channel=7, note=64, velocity=0, time=35),
    Message('note_on', channel=7, note=60, velocity=0, time=0),
    Message('note_on', channel=7, note=55, velocity=0, time=0),
    Message('note_on', channel=7, note=64, velocity=127, time=29),
    Message('note_on', channel=7, note=60, velocity=127, time=0),
    Message('note_on', channel=7, note=55, velocity=127, time=0),
    Message('note_on', channel=7, note=64, velocity=0, time=577),
    Message('note_on', channel=7, note=60, velocity=0, time=0),
    Message('note_on', channel=7, note=55, velocity=0, time=0),
    Message('note_on', channel=7, note=64, velocity=127, time=63),
    Message('note_on', channel=7, note=60, velocity=127, time=0),
    Message('note_on', channel=7, note=55, velocity=127, time=0),
    Message('note_on', channel=7, note=64, velocity=0, time=33),
    Message('note_on', channel=7, note=60, velocity=0, time=0),
    Message('note_on', channel=7, note=55, velocity=0, time=0),
    Message('note_on', channel=7, note=64, velocity=127, time=31),
    Message('note_on', channel=7, note=60, velocity=127, time=0),
    Message('note_on', channel=7, note=55, velocity=127, time=0),
    Message('note_on', channel=7, note=64, velocity=0, time=35),
    Message('note_on', channel=7, note=60, velocity=0, time=0),
    Message('note_on', channel=7, note=55, velocity=0, time=0),
    Message('note_on', channel=7, note=64, velocity=127, time=29),
    Message('note_on', channel=7, note=59, velocity=127, time=0),
    Message('note_on', channel=7, note=55, velocity=127, time=0),
    Message('note_on', channel=7, note=64, velocity=0, time=577),
    Message('note_on', channel=7, note=59, velocity=0, time=0),
    Message('note_on', channel=7, note=55, velocity=0, time=0),
    Message('note_on', channel=7, note=64, velocity=127, time=63),
    Message('note_on', channel=7, note=59, velocity=127, time=0),
    Message('note_on', channel=7, note=55, velocity=127, time=0),
    Message('note_on', channel=7, note=64, velocity=0, time=33),
    Message('note_on', channel=7, note=59, velocity=0, time=0),
    Message('note_on', channel=7, note=55, velocity=0, time=0),
    Message('note_on', channel=7, note=64, velocity=127, time=31),
    Message('note_on', channel=7, note=59, velocity=127, time=0),
    Message('note_on', channel=7, note=55, velocity=127, time=0),
    Message('note_on', channel=7, note=64, velocity=0, time=35),
    Message('note_on', channel=7, note=59, velocity=0, time=0),
    Message('note_on', channel=7, note=55, velocity=0, time=0),
    Message('note_on', channel=7, note=64, velocity=127, time=29),
    Message('note_on', channel=7, note=62, velocity=127, time=0),
    Message('note_on', channel=7, note=58, velocity=127, time=0),
    Message('note_on', channel=7, note=67, velocity=127, time=0),
    Message('note_on', channel=7, note=64, velocity=0, time=577),
    Message('note_on', channel=7, note=62, velocity=0, time=0),
    Message('note_on', channel=7, note=58, velocity=0, time=0),
    Message('note_on', channel=7, note=67, velocity=0, time=0),
    Message('note_on', channel=7, note=64, velocity=127, time=63),
    Message('note_on', channel=7, note=62, velocity=127, time=0),
    Message('note_on', channel=7, note=58, velocity=127, time=0),
    Message('note_on', channel=7, note=67, velocity=127, time=0),
    Message('note_on', channel=7, note=64, velocity=0, time=33),
    Message('note_on', channel=7, note=62, velocity=0, time=0),
    Message('note_on', channel=7, note=58, velocity=0, time=0),
    Message('note_on', channel=7, note=67, velocity=0, time=0),
    Message('note_on', channel=7, note=64, velocity=127, time=31),
    Message('note_on', channel=7, note=62, velocity=127, time=0),
    Message('note_on', channel=7, note=58, velocity=127, time=0),
    Message('note_on', channel=7, note=67, velocity=127, time=0),
    Message('note_on', channel=7, note=64, velocity=0, time=35),
    Message('note_on', channel=7, note=62, velocity=0, time=0),
    Message('note_on', channel=7, note=58, velocity=0, time=0),
    Message('note_on', channel=7, note=67, velocity=0, time=0),
    Message('note_on', channel=7, note=67, velocity=127, time=29),
    Message('note_on', channel=7, note=64, velocity=127, time=0),
    Message('note_on', channel=7, note=61, velocity=127, time=0),
    Message('note_on', channel=7, note=69, velocity=127, time=0),
    Message('note_on', channel=7, note=67, velocity=0, time=577),
    Message('note_on', channel=7, note=64, velocity=0, time=0),
    Message('note_on', channel=7, note=61, velocity=0, time=0),
    Message('note_on', channel=7, note=69, velocity=0, time=0),
    Message('note_on', channel=7, note=67, velocity=127, time=63),
    Message('note_on', channel=7, note=64, velocity=127, time=0),
    Message('note_on', channel=7, note=61, velocity=127, time=0),
    Message('note_on', channel=7, note=69, velocity=127, time=0),
    Message('note_on', channel=7, note=67, velocity=0, time=33),
    Message('note_on', channel=7, note=64, velocity=0, time=0),
    Message('note_on', channel=7, note=61, velocity=0, time=0),
    Message('note_on', channel=7, note=69, velocity=0, time=0),
    Message('note_on', channel=7, note=67, velocity=127, time=31),
    Message('note_on', channel=7, note=64, velocity=127, time=0),
    Message('note_on', channel=7, note=61, velocity=127, time=0),
    Message('note_on', channel=7, note=69, velocity=127, time=0),
    Message('note_on', channel=7, note=67, velocity=0, time=35),
    Message('note_on', channel=7, note=64, velocity=0, time=0),
    Message('note_on', channel=7, note=61, velocity=0, time=0),
    Message('note_on', channel=7, note=69, velocity=0, time=0),
    Message('note_on', channel=7, note=65, velocity=127, time=29),
    Message('note_on', channel=7, note=62, velocity=127, time=0),
    Message('note_on', channel=7, note=57, velocity=127, time=0),
    Message('note_on', channel=7, note=65, velocity=0, time=577),
    Message('note_on', channel=7, note=62, velocity=0, time=0),
    Message('note_on', channel=7, note=57, velocity=0, time=0),
    Message('note_on', channel=7, note=65, velocity=127, time=63),
    Message('note_on', channel=7, note=62, velocity=127, time=0),
    Message('note_on', channel=7, note=57, velocity=127, time=0),
    Message('note_on', channel=7, note=65, velocity=0, time=33),
    Message('note_on', channel=7, note=62, velocity=0, time=0),
    Message('note_on', channel=7, note=57, velocity=0, time=0),
    Message('note_on', channel=7, note=65, velocity=127, time=31),
    Message('note_on', channel=7, note=62, velocity=127, time=0),
    Message('note_on', channel=7, note=57, velocity=127, time=0),
    Message('note_on', channel=7, note=65, velocity=0, time=35),
    Message('note_on', channel=7, note=62, velocity=0, time=0),
    Message('note_on', channel=7, note=57, velocity=0, time=0),
    Message('note_on', channel=7, note=65, velocity=127, time=29),
    Message('note_on', channel=7, note=62, velocity=127, time=0),
    Message('note_on', channel=7, note=60, velocity=127, time=0),
    Message('note_on', channel=7, note=69, velocity=127, time=0),
    Message('note_on', channel=7, note=65, velocity=0, time=577),
    Message('note_on', channel=7, note=62, velocity=0, time=0),
    Message('note_on', channel=7, note=60, velocity=0, time=0),
    Message('note_on', channel=7, note=69, velocity=0, time=0),
    Message('note_on', channel=7, note=65, velocity=127, time=63),
    Message('note_on', channel=7, note=62, velocity=127, time=0),
    Message('note_on', channel=7, note=60, velocity=127, time=0),
    Message('note_on', channel=7, note=69, velocity=127, time=0),
    Message('note_on', channel=7, note=65, velocity=0, time=33),
    Message('note_on', channel=7, note=62, velocity=0, time=0),
    Message('note_on', channel=7, note=60, velocity=0, time=0),
    Message('note_on', channel=7, note=69, velocity=0, time=0),
    Message('note_on', channel=7, note=65, velocity=127, time=31),
    Message('note_on', channel=7, note=62, velocity=127, time=0),
    Message('note_on', channel=7, note=60, velocity=127, time=0),
    Message('note_on', channel=7, note=69, velocity=127, time=0),
    Message('note_on', channel=7, note=65, velocity=0, time=35),
    Message('note_on', channel=7, note=62, velocity=0, time=0),
    Message('note_on', channel=7, note=60, velocity=0, time=0),
    Message('note_on', channel=7, note=69, velocity=0, time=0),
    Message('note_on', channel=7, note=65, velocity=127, time=29),
    Message('note_on', channel=7, note=62, velocity=127, time=0),
    Message('note_on', channel=7, note=59, velocity=127, time=0),
    Message('note_on', channel=7, note=67, velocity=127, time=0),
    Message('note_on', channel=7, note=65, velocity=0, time=577),
    Message('note_on', channel=7, note=62, velocity=0, time=0),
    Message('note_on', channel=7, note=59, velocity=0, time=0),
    Message('note_on', channel=7, note=67, velocity=0, time=0),
    Message('note_on', channel=7, note=65, velocity=127, time=63),
    Message('note_on', channel=7, note=62, velocity=127, time=0),
    Message('note_on', channel=7, note=59, velocity=127, time=0),
    Message('note_on', channel=7, note=67, velocity=127, time=0),
    Message('note_on', channel=7, note=65, velocity=0, time=33),
    Message('note_on', channel=7, note=62, velocity=0, time=0),
    Message('note_on', channel=7, note=59, velocity=0, time=0),
    Message('note_on', channel=7, note=67, velocity=0, time=0),
    Message('note_on', channel=7, note=65, velocity=127, time=31),
    Message('note_on', channel=7, note=62, velocity=127, time=0),
    Message('note_on', channel=7, note=59, velocity=127, time=0),
    Message('note_on', channel=7, note=67, velocity=127, time=0),
    Message('note_on', channel=7, note=65, velocity=0, time=35),
    Message('note_on', channel=7, note=62, velocity=0, time=0),
    Message('note_on', channel=7, note=59, velocity=0, time=0),
    Message('note_on', channel=7, note=67, velocity=0, time=0),
    Message('note_on', channel=7, note=64, velocity=127, time=29),
    Message('note_on', channel=7, note=60, velocity=127, time=0),
    Message('note_on', channel=7, note=55, velocity=127, time=0),
    Message('note_on', channel=7, note=64, velocity=0, time=577),
    Message('note_on', channel=7, note=60, velocity=0, time=0),
    Message('note_on', channel=7, note=55, velocity=0, time=0),
    Message('note_on', channel=7, note=64, velocity=127, time=63),
    Message('note_on', channel=7, note=60, velocity=127, time=0),
    Message('note_on', channel=7, note=55, velocity=127, time=0),
    Message('note_on', channel=7, note=64, velocity=0, time=33),
    Message('note_on', channel=7, note=60, velocity=0, time=0),
    Message('note_on', channel=7, note=55, velocity=0, time=0),
    Message('note_on', channel=7, note=64, velocity=127, time=31),
    Message('note_on', channel=7, note=60, velocity=127, time=0),
    Message('note_on', channel=7, note=55, velocity=127, time=0),
    Message('note_on', channel=7, note=64, velocity=0, time=35),
    Message('note_on', channel=7, note=60, velocity=0, time=0),
    Message('note_on', channel=7, note=55, velocity=0, time=0),
    Message('note_on', channel=7, note=64, velocity=127, time=32),
    Message('note_on', channel=7, note=60, velocity=127, time=0),
    Message('note_on', channel=7, note=55, velocity=127, time=0),
    Message('note_on', channel=7, note=64, velocity=0, time=347),
    Message('note_on', channel=7, note=60, velocity=0, time=0),
    Message('note_on', channel=7, note=55, velocity=0, time=0),
    Message('note_on', channel=7, note=64, velocity=127, time=34),
    Message('note_on', channel=7, note=62, velocity=127, time=0),
    Message('note_on', channel=7, note=59, velocity=127, time=0),
    Message('note_on', channel=7, note=67, velocity=127, time=0),
    Message('note_on', channel=7, note=64, velocity=0, time=171),
    Message('note_on', channel=7, note=62, velocity=0, time=0),
    Message('note_on', channel=7, note=59, velocity=0, time=0),
    Message('note_on', channel=7, note=67, velocity=0, time=0),
    Message('note_on', channel=7, note=64, velocity=127, time=21),
    Message('note_on', channel=7, note=62, velocity=127, time=0),
    Message('note_on', channel=7, note=59, velocity=127, time=0),
    Message('note_on', channel=7, note=67, velocity=127, time=0),
    Message('note_on', channel=7, note=64, velocity=0, time=30),
    Message('note_on', channel=7, note=62, velocity=0, time=0),
    Message('note_on', channel=7, note=59, velocity=0, time=0),
    Message('note_on', channel=7, note=67, velocity=0, time=0),
    Message('note_on', channel=7, note=64, velocity=127, time=34),
    Message('note_on', channel=7, note=62, velocity=127, time=0),
    Message('note_on', channel=7, note=59, velocity=127, time=0),
    Message('note_on', channel=7, note=67, velocity=127, time=0),
    Message('note_on', channel=7, note=64, velocity=0, time=27),
    Message('note_on', channel=7, note=62, velocity=0, time=0),
    Message('note_on', channel=7, note=59, velocity=0, time=0),
    Message('note_on', channel=7, note=67, velocity=0, time=0),
    Message('note_on', channel=7, note=64, velocity=127, time=37),
    Message('note_on', channel=7, note=62, velocity=127, time=0),
    Message('note_on', channel=7, note=59, velocity=127, time=0),
    Message('note_on', channel=7, note=67, velocity=127, time=0),
    Message('note_on', channel=7, note=64, velocity=0, time=35),
    Message('note_on', channel=7, note=62, velocity=0, time=0),
    Message('note_on', channel=7, note=59, velocity=0, time=0),
    Message('note_on', channel=7, note=67, velocity=0, time=0),
    Message('note_on', channel=7, note=64, velocity=127, time=29),
    Message('note_on', channel=7, note=60, velocity=127, time=0),
    Message('note_on', channel=7, note=58, velocity=127, time=0),
    Message('note_on', channel=7, note=67, velocity=127, time=0),
    Message('note_on', channel=7, note=64, velocity=0, time=577),
    Message('note_on', channel=7, note=60, velocity=0, time=0),
    Message('note_on', channel=7, note=58, velocity=0, time=0),
    Message('note_on', channel=7, note=67, velocity=0, time=0),
    Message('note_on', channel=7, note=64, velocity=127, time=63),
    Message('note_on', channel=7, note=60, velocity=127, time=0),
    Message('note_on', channel=7, note=58, velocity=127, time=0),
    Message('note_on', channel=7, note=67, velocity=127, time=0),
    Message('note_on', channel=7, note=64, velocity=0, time=33),
    Message('note_on', channel=7, note=60, velocity=0, time=0),
    Message('note_on', channel=7, note=58, velocity=0, time=0),
    Message('note_on', channel=7, note=67, velocity=0, time=0),
    Message('note_on', channel=7, note=64, velocity=127, time=31),
    Message('note_on', channel=7, note=60, velocity=127, time=0),
    Message('note_on', channel=7, note=58, velocity=127, time=0),
    Message('note_on', channel=7, note=67, velocity=127, time=0),
    Message('note_on', channel=7, note=64, velocity=0, time=35),
    Message('note_on', channel=7, note=60, velocity=0, time=0),
    Message('note_on', channel=7, note=58, velocity=0, time=0),
    Message('note_on', channel=7, note=67, velocity=0, time=0),
    Message('note_on', channel=7, note=65, velocity=127, time=29),
    Message('note_on', channel=7, note=60, velocity=127, time=0),
    Message('note_on', channel=7, note=57, velocity=127, time=0),
    Message('note_on', channel=7, note=65, velocity=0, time=577),
    Message('note_on', channel=7, note=60, velocity=0, time=0),
    Message('note_on', channel=7, note=57, velocity=0, time=0),
    Message('note_on', channel=7, note=65, velocity=127, time=63),
    Message('note_on', channel=7, note=60, velocity=127, time=0),
    Message('note_on', channel=7, note=57, velocity=127, time=0),
    Message('note_on', channel=7, note=65, velocity=0, time=33),
    Message('note_on', channel=7, note=60, velocity=0, time=0),
    Message('note_on', channel=7, note=57, velocity=0, time=0),
    Message('note_on', channel=7, note=65, velocity=127, time=31),
    Message('note_on', channel=7, note=60, velocity=127, time=0),
    Message('note_on', channel=7, note=57, velocity=127, time=0),
    Message('note_on', channel=7, note=65, velocity=0, time=35),
    Message('note_on', channel=7, note=60, velocity=0, time=0),
    Message('note_on', channel=7, note=57, velocity=0, time=0),
    Message('note_on', channel=7, note=65, velocity=127, time=29),
    Message('note_on', channel=7, note=60, velocity=127, time=0),
    Message('note_on', channel=7, note=56, velocity=127, time=0),
    Message('note_on', channel=7, note=65, velocity=0, time=577),
    Message('note_on', channel=7, note=60, velocity=0, time=0),
    Message('note_on', channel=7, note=56, velocity=0, time=0),
    Message('note_on', channel=7, note=65, velocity=127, time=63),
    Message('note_on', channel=7, note=60, velocity=127, time=0),
    Message('note_on', channel=7, note=56, velocity=127, time=0),
    Message('note_on', channel=7, note=65, velocity=0, time=33),
    Message('note_on', channel=7, note=60, velocity=0, time=0),
    Message('note_on', channel=7, note=56, velocity=0, time=0),
    Message('note_on', channel=7, note=65, velocity=127, time=31),
    Message('note_on', channel=7, note=60, velocity=127, time=0),
    Message('note_on', channel=7, note=56, velocity=127, time=0),
    Message('note_on', channel=7, note=65, velocity=0, time=35),
    Message('note_on', channel=7, note=60, velocity=0, time=0),
    Message('note_on', channel=7, note=56, velocity=0, time=0),
    Message('note_on', channel=7, note=64, velocity=127, time=29),
    Message('note_on', channel=7, note=60, velocity=127, time=0),
    Message('note_on', channel=7, note=55, velocity=127, time=0),
    Message('note_on', channel=7, note=64, velocity=0, time=577),
    Message('note_on', channel=7, note=60, velocity=0, time=0),
    Message('note_on', channel=7, note=55, velocity=0, time=0),
    Message('note_on', channel=7, note=64, velocity=127, time=63),
    Message('note_on', channel=7, note=60, velocity=127, time=0),
    Message('note_on', channel=7, note=55, velocity=127, time=0),
    Message('note_on', channel=7, note=64, velocity=0, time=33),
    Message('note_on', channel=7, note=60, velocity=0, time=0),
    Message('note_on', channel=7, note=55, velocity=0, time=0),
    Message('note_on', channel=7, note=64, velocity=127, time=31),
    Message('note_on', channel=7, note=60, velocity=127, time=0),
    Message('note_on', channel=7, note=55, velocity=127, time=0),
    Message('note_on', channel=7, note=64, velocity=0, time=35),
    Message('note_on', channel=7, note=60, velocity=0, time=0),
    Message('note_on', channel=7, note=55, velocity=0, time=0),
    Message('note_on', channel=7, note=65, velocity=127, time=29),
    Message('note_on', channel=7, note=62, velocity=127, time=0),
    Message('note_on', channel=7, note=59, velocity=127, time=0),
    Message('note_on', channel=7, note=67, velocity=127, time=0),
    Message('note_on', channel=7, note=65, velocity=0, time=577),
    Message('note_on', channel=7, note=62, velocity=0, time=0),
    Message('note_on', channel=7, note=59, velocity=0, time=0),
    Message('note_on', channel=7, note=67, velocity=0, time=0),
    Message('note_on', channel=7, note=65, velocity=127, time=63),
    Message('note_on', channel=7, note=62, velocity=127, time=0),
    Message('note_on', channel=7, note=59, velocity=127, time=0),
    Message('note_on', channel=7, note=67, velocity=127, time=0),
    Message('note_on', channel=7, note=65, velocity=0, time=33),
    Message('note_on', channel=7, note=62, velocity=0, time=0),
    Message('note_on', channel=7, note=59, velocity=0, time=0),
    Message('note_on', channel=7, note=67, velocity=0, time=0),
    Message('note_on', channel=7, note=65, velocity=127, time=31),
    Message('note_on', channel=7, note=62, velocity=127, time=0),
    Message('note_on', channel=7, note=59, velocity=127, time=0),
    Message('note_on', channel=7, note=67, velocity=127, time=0),
    Message('note_on', channel=7, note=65, velocity=0, time=35),
    Message('note_on', channel=7, note=62, velocity=0, time=0),
    Message('note_on', channel=7, note=59, velocity=0, time=0),
    Message('note_on', channel=7, note=67, velocity=0, time=0),
    Message('note_on', channel=7, note=65, velocity=127, time=29),
    Message('note_on', channel=7, note=62, velocity=127, time=0),
    Message('note_on', channel=7, note=60, velocity=127, time=0),
    Message('note_on', channel=7, note=69, velocity=127, time=0),
    Message('note_on', channel=7, note=65, velocity=0, time=577),
    Message('note_on', channel=7, note=62, velocity=0, time=0),
    Message('note_on', channel=7, note=60, velocity=0, time=0),
    Message('note_on', channel=7, note=69, velocity=0, time=0),
    Message('note_on', channel=7, note=65, velocity=127, time=63),
    Message('note_on', channel=7, note=62, velocity=127, time=0),
    Message('note_on', channel=7, note=60, velocity=127, time=0),
    Message('note_on', channel=7, note=69, velocity=127, time=0),
    Message('note_on', channel=7, note=65, velocity=0, time=33),
    Message('note_on', channel=7, note=62, velocity=0, time=0),
    Message('note_on', channel=7, note=60, velocity=0, time=0),
    Message('note_on', channel=7, note=69, velocity=0, time=0),
    Message('note_on', channel=7, note=65, velocity=127, time=31),
    Message('note_on', channel=7, note=62, velocity=127, time=0),
    Message('note_on', channel=7, note=60, velocity=127, time=0),
    Message('note_on', channel=7, note=69, velocity=127, time=0),
    Message('note_on', channel=7, note=65, velocity=0, time=35),
    Message('note_on', channel=7, note=62, velocity=0, time=0),
    Message('note_on', channel=7, note=60, velocity=0, time=0),
    Message('note_on', channel=7, note=69, velocity=0, time=0),
    Message('note_on', channel=7, note=64, velocity=127, time=29),
    Message('note_on', channel=7, note=60, velocity=127, time=0),
    Message('note_on', channel=7, note=55, velocity=127, time=0),
    Message('note_on', channel=7, note=64, velocity=0, time=577),
    Message('note_on', channel=7, note=60, velocity=0, time=0),
    Message('note_on', channel=7, note=55, velocity=0, time=0),
    Message('note_on', channel=7, note=64, velocity=127, time=63),
    Message('note_on', channel=7, note=60, velocity=127, time=0),
    Message('note_on', channel=7, note=55, velocity=127, time=0),
    Message('note_on', channel=7, note=64, velocity=0, time=33),
    Message('note_on', channel=7, note=60, velocity=0, time=0),
    Message('note_on', channel=7, note=55, velocity=0, time=0),
    Message('note_on', channel=7, note=64, velocity=127, time=31),
    Message('note_on', channel=7, note=60, velocity=127, time=0),
    Message('note_on', channel=7, note=55, velocity=127, time=0),
    Message('note_on', channel=7, note=64, velocity=0, time=35),
    Message('note_on', channel=7, note=60, velocity=0, time=0),
    Message('note_on', channel=7, note=55, velocity=0, time=0),
    Message('note_on', channel=7, note=64, velocity=127, time=29),
    Message('note_on', channel=7, note=60, velocity=127, time=0),
    Message('note_on', channel=7, note=55, velocity=127, time=0),
    Message('note_on', channel=7, note=64, velocity=0, time=577),
    Message('note_on', channel=7, note=60, velocity=0, time=0),
    Message('note_on', channel=7, note=55, velocity=0, time=0),
    Message('note_on', channel=7, note=64, velocity=127, time=63),
    Message('note_on', channel=7, note=60, velocity=127, time=0),
    Message('note_on', channel=7, note=55, velocity=127, time=0),
    Message('note_on', channel=7, note=64, velocity=0, time=33),
    Message('note_on', channel=7, note=60, velocity=0, time=0),
    Message('note_on', channel=7, note=55, velocity=0, time=0),
    Message('note_on', channel=7, note=64, velocity=127, time=31),
    Message('note_on', channel=7, note=60, velocity=127, time=0),
    Message('note_on', channel=7, note=55, velocity=127, time=0),
    Message('note_on', channel=7, note=64, velocity=0, time=35),
    Message('note_on', channel=7, note=60, velocity=0, time=0),
    Message('note_on', channel=7, note=55, velocity=0, time=0),
    Message('note_on', channel=7, note=64, velocity=127, time=29),
    Message('note_on', channel=7, note=59, velocity=127, time=0),
    Message('note_on', channel=7, note=55, velocity=127, time=0),
    Message('note_on', channel=7, note=64, velocity=0, time=577),
    Message('note_on', channel=7, note=59, velocity=0, time=0),
    Message('note_on', channel=7, note=55, velocity=0, time=0),
    Message('note_on', channel=7, note=64, velocity=127, time=63),
    Message('note_on', channel=7, note=59, velocity=127, time=0),
    Message('note_on', channel=7, note=55, velocity=127, time=0),
    Message('note_on', channel=7, note=64, velocity=0, time=33),
    Message('note_on', channel=7, note=59, velocity=0, time=0),
    Message('note_on', channel=7, note=55, velocity=0, time=0),
    Message('note_on', channel=7, note=64, velocity=127, time=31),
    Message('note_on', channel=7, note=59, velocity=127, time=0),
    Message('note_on', channel=7, note=55, velocity=127, time=0),
    Message('note_on', channel=7, note=64, velocity=0, time=35),
    Message('note_on', channel=7, note=59, velocity=0, time=0),
    Message('note_on', channel=7, note=55, velocity=0, time=0),
    Message('note_on', channel=7, note=70, velocity=127, time=29),
    Message('note_on', channel=7, note=67, velocity=127, time=0),
    Message('note_on', channel=7, note=64, velocity=127, time=0),
    Message('note_on', channel=7, note=74, velocity=127, time=0),
    Message('note_on', channel=7, note=70, velocity=0, time=577),
    Message('note_on', channel=7, note=67, velocity=0, time=0),
    Message('note_on', channel=7, note=64, velocity=0, time=0),
    Message('note_on', channel=7, note=74, velocity=0, time=0),
    Message('note_on', channel=7, note=70, velocity=127, time=63),
    Message('note_on', channel=7, note=67, velocity=127, time=0),
    Message('note_on', channel=7, note=64, velocity=127, time=0),
    Message('note_on', channel=7, note=74, velocity=127, time=0),
    Message('note_on', channel=7, note=70, velocity=0, time=33),
    Message('note_on', channel=7, note=67, velocity=0, time=0),
    Message('note_on', channel=7, note=64, velocity=0, time=0),
    Message('note_on', channel=7, note=74, velocity=0, time=0),
    Message('note_on', channel=7, note=70, velocity=127, time=31),
    Message('note_on', channel=7, note=67, velocity=127, time=0),
    Message('note_on', channel=7, note=64, velocity=127, time=0),
    Message('note_on', channel=7, note=74, velocity=127, time=0),
    Message('note_on', channel=7, note=70, velocity=0, time=35),
    Message('note_on', channel=7, note=67, velocity=0, time=0),
    Message('note_on', channel=7, note=64, velocity=0, time=0),
    Message('note_on', channel=7, note=74, velocity=0, time=0),
    Message('note_on', channel=7, note=67, velocity=127, time=29),
    Message('note_on', channel=7, note=64, velocity=127, time=0),
    Message('note_on', channel=7, note=61, velocity=127, time=0),
    Message('note_on', channel=7, note=69, velocity=127, time=0),
    Message('note_on', channel=7, note=67, velocity=0, time=577),
    Message('note_on', channel=7, note=64, velocity=0, time=0),
    Message('note_on', channel=7, note=61, velocity=0, time=0),
    Message('note_on', channel=7, note=69, velocity=0, time=0),
    Message('note_on', channel=7, note=67, velocity=127, time=63),
    Message('note_on', channel=7, note=64, velocity=127, time=0),
    Message('note_on', channel=7, note=61, velocity=127, time=0),
    Message('note_on', channel=7, note=69, velocity=127, time=0),
    Message('note_on', channel=7, note=67, velocity=0, time=33),
    Message('note_on', channel=7, note=64, velocity=0, time=0),
    Message('note_on', channel=7, note=61, velocity=0, time=0),
    Message('note_on', channel=7, note=69, velocity=0, time=0),
    Message('note_on', channel=7, note=67, velocity=127, time=31),
    Message('note_on', channel=7, note=64, velocity=127, time=0),
    Message('note_on', channel=7, note=61, velocity=127, time=0),
    Message('note_on', channel=7, note=69, velocity=127, time=0),
    Message('note_on', channel=7, note=67, velocity=0, time=35),
    Message('note_on', channel=7, note=64, velocity=0, time=0),
    Message('note_on', channel=7, note=61, velocity=0, time=0),
    Message('note_on', channel=7, note=69, velocity=0, time=0),
    Message('note_on', channel=7, note=65, velocity=127, time=29),
    Message('note_on', channel=7, note=62, velocity=127, time=0),
    Message('note_on', channel=7, note=57, velocity=127, time=0),
    Message('note_on', channel=7, note=65, velocity=0, time=577),
    Message('note_on', channel=7, note=62, velocity=0, time=0),
    Message('note_on', channel=7, note=57, velocity=0, time=0),
    Message('note_on', channel=7, note=65, velocity=127, time=63),
    Message('note_on', channel=7, note=62, velocity=127, time=0),
    Message('note_on', channel=7, note=57, velocity=127, time=0),
    Message('note_on', channel=7, note=65, velocity=0, time=33),
    Message('note_on', channel=7, note=62, velocity=0, time=0),
    Message('note_on', channel=7, note=57, velocity=0, time=0),
    Message('note_on', channel=7, note=65, velocity=127, time=31),
    Message('note_on', channel=7, note=62, velocity=127, time=0),
    Message('note_on', channel=7, note=57, velocity=127, time=0),
    Message('note_on', channel=7, note=65, velocity=0, time=35),
    Message('note_on', channel=7, note=62, velocity=0, time=0),
    Message('note_on', channel=7, note=57, velocity=0, time=0),
    Message('note_on', channel=7, note=65, velocity=127, time=29),
    Message('note_on', channel=7, note=62, velocity=127, time=0),
    Message('note_on', channel=7, note=60, velocity=127, time=0),
    Message('note_on', channel=7, note=69, velocity=127, time=0),
    Message('note_on', channel=7, note=65, velocity=0, time=577),
    Message('note_on', channel=7, note=62, velocity=0, time=0),
    Message('note_on', channel=7, note=60, velocity=0, time=0),
    Message('note_on', channel=7, note=69, velocity=0, time=0),
    Message('note_on', channel=7, note=65, velocity=127, time=63),
    Message('note_on', channel=7, note=62, velocity=127, time=0),
    Message('note_on', channel=7, note=60, velocity=127, time=0),
    Message('note_on', channel=7, note=69, velocity=127, time=0),
    Message('note_on', channel=7, note=65, velocity=0, time=33),
    Message('note_on', channel=7, note=62, velocity=0, time=0),
    Message('note_on', channel=7, note=60, velocity=0, time=0),
    Message('note_on', channel=7, note=69, velocity=0, time=0),
    Message('note_on', channel=7, note=65, velocity=127, time=31),
    Message('note_on', channel=7, note=62, velocity=127, time=0),
    Message('note_on', channel=7, note=60, velocity=127, time=0),
    Message('note_on', channel=7, note=69, velocity=127, time=0),
    Message('note_on', channel=7, note=65, velocity=0, time=35),
    Message('note_on', channel=7, note=62, velocity=0, time=0),
    Message('note_on', channel=7, note=60, velocity=0, time=0),
    Message('note_on', channel=7, note=69, velocity=0, time=0),
    Message('note_on', channel=7, note=65, velocity=127, time=29),
    Message('note_on', channel=7, note=62, velocity=127, time=0),
    Message('note_on', channel=7, note=59, velocity=127, time=0),
    Message('note_on', channel=7, note=67, velocity=127, time=0),
    Message('note_on', channel=7, note=65, velocity=0, time=577),
    Message('note_on', channel=7, note=62, velocity=0, time=0),
    Message('note_on', channel=7, note=59, velocity=0, time=0),
    Message('note_on', channel=7, note=67, velocity=0, time=0),
    Message('note_on', channel=7, note=65, velocity=127, time=63),
    Message('note_on', channel=7, note=62, velocity=127, time=0),
    Message('note_on', channel=7, note=59, velocity=127, time=0),
    Message('note_on', channel=7, note=67, velocity=127, time=0),
    Message('note_on', channel=7, note=65, velocity=0, time=33),
    Message('note_on', channel=7, note=62, velocity=0, time=0),
    Message('note_on', channel=7, note=59, velocity=0, time=0),
    Message('note_on', channel=7, note=67, velocity=0, time=0),
    Message('note_on', channel=7, note=65, velocity=127, time=31),
    Message('note_on', channel=7, note=62, velocity=127, time=0),
    Message('note_on', channel=7, note=59, velocity=127, time=0),
    Message('note_on', channel=7, note=67, velocity=127, time=0),
    Message('note_on', channel=7, note=65, velocity=0, time=35),
    Message('note_on', channel=7, note=62, velocity=0, time=0),
    Message('note_on', channel=7, note=59, velocity=0, time=0),
    Message('note_on', channel=7, note=67, velocity=0, time=0),
    Message('note_on', channel=7, note=64, velocity=127, time=29),
    Message('note_on', channel=7, note=60, velocity=127, time=0),
    Message('note_on', channel=7, note=55, velocity=127, time=0),
    Message('note_on', channel=7, note=64, velocity=0, time=577),
    Message('note_on', channel=7, note=60, velocity=0, time=0),
    Message('note_on', channel=7, note=55, velocity=0, time=0),
    Message('note_on', channel=7, note=64, velocity=127, time=63),
    Message('note_on', channel=7, note=60, velocity=127, time=0),
    Message('note_on', channel=7, note=55, velocity=127, time=0),
    Message('note_on', channel=7, note=64, velocity=0, time=33),
    Message('note_on', channel=7, note=60, velocity=0, time=0),
    Message('note_on', channel=7, note=55, velocity=0, time=0),
    Message('note_on', channel=7, note=64, velocity=127, time=31),
    Message('note_on', channel=7, note=60, velocity=127, time=0),
    Message('note_on', channel=7, note=55, velocity=127, time=0),
    Message('note_on', channel=7, note=64, velocity=0, time=35),
    Message('note_on', channel=7, note=60, velocity=0, time=0),
    Message('note_on', channel=7, note=55, velocity=0, time=0),
    Message('note_on', channel=7, note=64, velocity=127, time=32),
    Message('note_on', channel=7, note=60, velocity=127, time=0),
    Message('note_on', channel=7, note=55, velocity=127, time=0),
    Message('note_on', channel=7, note=64, velocity=0, time=347),
    Message('note_on', channel=7, note=60, velocity=0, time=0),
    Message('note_on', channel=7, note=55, velocity=0, time=0),
    Message('note_on', channel=7, note=64, velocity=127, time=34),
    Message('note_on', channel=7, note=62, velocity=127, time=0),
    Message('note_on', channel=7, note=59, velocity=127, time=0),
    Message('note_on', channel=7, note=67, velocity=127, time=0),
    Message('note_on', channel=7, note=64, velocity=0, time=171),
    Message('note_on', channel=7, note=62, velocity=0, time=0),
    Message('note_on', channel=7, note=59, velocity=0, time=0),
    Message('note_on', channel=7, note=67, velocity=0, time=0),
    Message('note_on', channel=7, note=64, velocity=127, time=21),
    Message('note_on', channel=7, note=62, velocity=127, time=0),
    Message('note_on', channel=7, note=59, velocity=127, time=0),
    Message('note_on', channel=7, note=67, velocity=127, time=0),
    Message('note_on', channel=7, note=64, velocity=0, time=30),
    Message('note_on', channel=7, note=62, velocity=0, time=0),
    Message('note_on', channel=7, note=59, velocity=0, time=0),
    Message('note_on', channel=7, note=67, velocity=0, time=0),
    Message('note_on', channel=7, note=64, velocity=127, time=34),
    Message('note_on', channel=7, note=62, velocity=127, time=0),
    Message('note_on', channel=7, note=59, velocity=127, time=0),
    Message('note_on', channel=7, note=67, velocity=127, time=0),
    Message('note_on', channel=7, note=64, velocity=0, time=27),
    Message('note_on', channel=7, note=62, velocity=0, time=0),
    Message('note_on', channel=7, note=59, velocity=0, time=0),
    Message('note_on', channel=7, note=67, velocity=0, time=0),
    Message('note_on', channel=7, note=64, velocity=127, time=37),
    Message('note_on', channel=7, note=62, velocity=127, time=0),
    Message('note_on', channel=7, note=59, velocity=127, time=0),
    Message('note_on', channel=7, note=67, velocity=127, time=0),
    Message('note_on', channel=7, note=64, velocity=0, time=35),
    Message('note_on', channel=7, note=62, velocity=0, time=0),
    Message('note_on', channel=7, note=59, velocity=0, time=0),
    Message('note_on', channel=7, note=67, velocity=0, time=0),
    Message('note_on', channel=7, note=64, velocity=127, time=29),
    Message('note_on', channel=7, note=60, velocity=127, time=0),
    Message('note_on', channel=7, note=58, velocity=127, time=0),
    Message('note_on', channel=7, note=67, velocity=127, time=0),
    Message('note_on', channel=7, note=64, velocity=0, time=577),
    Message('note_on', channel=7, note=60, velocity=0, time=0),
    Message('note_on', channel=7, note=58, velocity=0, time=0),
    Message('note_on', channel=7, note=67, velocity=0, time=0),
    Message('note_on', channel=7, note=64, velocity=127, time=63),
    Message('note_on', channel=7, note=60, velocity=127, time=0),
    Message('note_on', channel=7, note=58, velocity=127, time=0),
    Message('note_on', channel=7, note=67, velocity=127, time=0),
    Message('note_on', channel=7, note=64, velocity=0, time=33),
    Message('note_on', channel=7, note=60, velocity=0, time=0),
    Message('note_on', channel=7, note=58, velocity=0, time=0),
    Message('note_on', channel=7, note=67, velocity=0, time=0),
    Message('note_on', channel=7, note=64, velocity=127, time=31),
    Message('note_on', channel=7, note=60, velocity=127, time=0),
    Message('note_on', channel=7, note=58, velocity=127, time=0),
    Message('note_on', channel=7, note=67, velocity=127, time=0),
    Message('note_on', channel=7, note=64, velocity=0, time=35),
    Message('note_on', channel=7, note=60, velocity=0, time=0),
    Message('note_on', channel=7, note=58, velocity=0, time=0),
    Message('note_on', channel=7, note=67, velocity=0, time=0),
    Message('note_on', channel=7, note=65, velocity=127, time=29),
    Message('note_on', channel=7, note=60, velocity=127, time=0),
    Message('note_on', channel=7, note=57, velocity=127, time=0),
    Message('note_on', channel=7, note=65, velocity=0, time=577),
    Message('note_on', channel=7, note=60, velocity=0, time=0),
    Message('note_on', channel=7, note=57, velocity=0, time=0),
    Message('note_on', channel=7, note=65, velocity=127, time=63),
    Message('note_on', channel=7, note=60, velocity=127, time=0),
    Message('note_on', channel=7, note=57, velocity=127, time=0),
    Message('note_on', channel=7, note=65, velocity=0, time=33),
    Message('note_on', channel=7, note=60, velocity=0, time=0),
    Message('note_on', channel=7, note=57, velocity=0, time=0),
    Message('note_on', channel=7, note=65, velocity=127, time=31),
    Message('note_on', channel=7, note=60, velocity=127, time=0),
    Message('note_on', channel=7, note=57, velocity=127, time=0),
    Message('note_on', channel=7, note=65, velocity=0, time=35),
    Message('note_on', channel=7, note=60, velocity=0, time=0),
    Message('note_on', channel=7, note=57, velocity=0, time=0),
    Message('note_on', channel=7, note=65, velocity=127, time=29),
    Message('note_on', channel=7, note=60, velocity=127, time=0),
    Message('note_on', channel=7, note=56, velocity=127, time=0),
    Message('note_on', channel=7, note=65, velocity=0, time=577),
    Message('note_on', channel=7, note=60, velocity=0, time=0),
    Message('note_on', channel=7, note=56, velocity=0, time=0),
    Message('note_on', channel=7, note=65, velocity=127, time=63),
    Message('note_on', channel=7, note=60, velocity=127, time=0),
    Message('note_on', channel=7, note=56, velocity=127, time=0),
    Message('note_on', channel=7, note=65, velocity=0, time=33),
    Message('note_on', channel=7, note=60, velocity=0, time=0),
    Message('note_on', channel=7, note=56, velocity=0, time=0),
    Message('note_on', channel=7, note=65, velocity=127, time=31),
    Message('note_on', channel=7, note=60, velocity=127, time=0),
    Message('note_on', channel=7, note=56, velocity=127, time=0),
    Message('note_on', channel=7, note=65, velocity=0, time=35),
    Message('note_on', channel=7, note=60, velocity=0, time=0),
    Message('note_on', channel=7, note=56, velocity=0, time=0),
    Message('note_on', channel=7, note=64, velocity=127, time=29),
    Message('note_on', channel=7, note=60, velocity=127, time=0),
    Message('note_on', channel=7, note=55, velocity=127, time=0),
    Message('note_on', channel=7, note=64, velocity=0, time=577),
    Message('note_on', channel=7, note=60, velocity=0, time=0),
    Message('note_on', channel=7, note=55, velocity=0, time=0),
    Message('note_on', channel=7, note=64, velocity=127, time=63),
    Message('note_on', channel=7, note=60, velocity=127, time=0),
    Message('note_on', channel=7, note=55, velocity=127, time=0),
    Message('note_on', channel=7, note=64, velocity=0, time=33),
    Message('note_on', channel=7, note=60, velocity=0, time=0),
    Message('note_on', channel=7, note=55, velocity=0, time=0),
    Message('note_on', channel=7, note=64, velocity=127, time=31),
    Message('note_on', channel=7, note=60, velocity=127, time=0),
    Message('note_on', channel=7, note=55, velocity=127, time=0),
    Message('note_on', channel=7, note=64, velocity=0, time=35),
    Message('note_on', channel=7, note=60, velocity=0, time=0),
    Message('note_on', channel=7, note=55, velocity=0, time=0),
    Message('note_on', channel=7, note=65, velocity=127, time=29),
    Message('note_on', channel=7, note=62, velocity=127, time=0),
    Message('note_on', channel=7, note=59, velocity=127, time=0),
    Message('note_on', channel=7, note=67, velocity=127, time=0),
    Message('note_on', channel=7, note=65, velocity=0, time=577),
    Message('note_on', channel=7, note=62, velocity=0, time=0),
    Message('note_on', channel=7, note=59, velocity=0, time=0),
    Message('note_on', channel=7, note=67, velocity=0, time=0),
    Message('note_on', channel=7, note=65, velocity=127, time=63),
    Message('note_on', channel=7, note=62, velocity=127, time=0),
    Message('note_on', channel=7, note=59, velocity=127, time=0),
    Message('note_on', channel=7, note=67, velocity=127, time=0),
    Message('note_on', channel=7, note=65, velocity=0, time=33),
    Message('note_on', channel=7, note=62, velocity=0, time=0),
    Message('note_on', channel=7, note=59, velocity=0, time=0),
    Message('note_on', channel=7, note=67, velocity=0, time=0),
    Message('note_on', channel=7, note=65, velocity=127, time=31),
    Message('note_on', channel=7, note=62, velocity=127, time=0),
    Message('note_on', channel=7, note=59, velocity=127, time=0),
    Message('note_on', channel=7, note=67, velocity=127, time=0),
    Message('note_on', channel=7, note=65, velocity=0, time=35),
    Message('note_on', channel=7, note=62, velocity=0, time=0),
    Message('note_on', channel=7, note=59, velocity=0, time=0),
    Message('note_on', channel=7, note=67, velocity=0, time=0),
    Message('note_on', channel=7, note=65, velocity=127, time=29),
    Message('note_on', channel=7, note=62, velocity=127, time=0),
    Message('note_on', channel=7, note=60, velocity=127, time=0),
    Message('note_on', channel=7, note=69, velocity=127, time=0),
    Message('note_on', channel=7, note=65, velocity=0, time=577),
    Message('note_on', channel=7, note=62, velocity=0, time=0),
    Message('note_on', channel=7, note=60, velocity=0, time=0),
    Message('note_on', channel=7, note=69, velocity=0, time=0),
    Message('note_on', channel=7, note=65, velocity=127, time=63),
    Message('note_on', channel=7, note=62, velocity=127, time=0),
    Message('note_on', channel=7, note=60, velocity=127, time=0),
    Message('note_on', channel=7, note=69, velocity=127, time=0),
    Message('note_on', channel=7, note=65, velocity=0, time=33),
    Message('note_on', channel=7, note=62, velocity=0, time=0),
    Message('note_on', channel=7, note=60, velocity=0, time=0),
    Message('note_on', channel=7, note=69, velocity=0, time=0),
    Message('note_on', channel=7, note=65, velocity=127, time=31),
    Message('note_on', channel=7, note=62, velocity=127, time=0),
    Message('note_on', channel=7, note=60, velocity=127, time=0),
    Message('note_on', channel=7, note=69, velocity=127, time=0),
    Message('note_on', channel=7, note=65, velocity=0, time=35),
    Message('note_on', channel=7, note=62, velocity=0, time=0),
    Message('note_on', channel=7, note=60, velocity=0, time=0),
    Message('note_on', channel=7, note=69, velocity=0, time=0),
    Message('note_on', channel=7, note=64, velocity=127, time=29),
    Message('note_on', channel=7, note=60, velocity=127, time=0),
    Message('note_on', channel=7, note=55, velocity=127, time=0),
    Message('note_on', channel=7, note=64, velocity=0, time=577),
    Message('note_on', channel=7, note=60, velocity=0, time=0),
    Message('note_on', channel=7, note=55, velocity=0, time=0),
    Message('note_on', channel=7, note=64, velocity=127, time=63),
    Message('note_on', channel=7, note=60, velocity=127, time=0),
    Message('note_on', channel=7, note=55, velocity=127, time=0),
    Message('note_on', channel=7, note=64, velocity=0, time=33),
    Message('note_on', channel=7, note=60, velocity=0, time=0),
    Message('note_on', channel=7, note=55, velocity=0, time=0),
    Message('note_on', channel=7, note=64, velocity=127, time=31),
    Message('note_on', channel=7, note=60, velocity=127, time=0),
    Message('note_on', channel=7, note=55, velocity=127, time=0),
    Message('note_on', channel=7, note=64, velocity=0, time=35),
    Message('note_on', channel=7, note=60, velocity=0, time=0),
    Message('note_on', channel=7, note=55, velocity=0, time=0),
    Message('note_on', channel=7, note=48, velocity=127, time=29),
    Message('note_on', channel=7, note=52, velocity=127, time=192),
    Message('note_on', channel=7, note=55, velocity=127, time=192),
    Message('note_on', channel=7, note=60, velocity=127, time=192),
    Message('note_on', channel=7, note=48, velocity=0, time=160),
    Message('note_on', channel=7, note=52, velocity=0, time=32),
    Message('note_on', channel=7, note=55, velocity=0, time=0),
    Message('note_on', channel=7, note=60, velocity=0, time=0),
    Message('note_on', channel=7, note=48, velocity=127, time=0),
    Message('note_on', channel=7, note=52, velocity=127, time=192),
    Message('note_on', channel=7, note=55, velocity=127, time=192),
    Message('note_on', channel=7, note=58, velocity=127, time=192),
    Message('note_on', channel=7, note=48, velocity=0, time=160),
    Message('note_on', channel=7, note=52, velocity=0, time=32),
    Message('note_on', channel=7, note=55, velocity=0, time=0),
    Message('note_on', channel=7, note=58, velocity=0, time=0),
    Message('note_on', channel=7, note=41, velocity=127, time=0),
    Message('note_on', channel=7, note=53, velocity=127, time=192),
    Message('note_on', channel=7, note=57, velocity=127, time=192),
    Message('note_on', channel=7, note=60, velocity=127, time=192),
    Message('note_on', channel=7, note=41, velocity=0, time=160),
    Message('note_on', channel=7, note=41, velocity=127, time=32),
    Message('note_on', channel=7, note=53, velocity=0, time=137),
    Message('note_on', channel=7, note=53, velocity=127, time=55),
    Message('note_on', channel=7, note=57, velocity=0, time=139),
    Message('note_on', channel=7, note=57, velocity=127, time=53),
    Message('note_on', channel=7, note=60, velocity=0, time=158),
    Message('note_on', channel=7, note=60, velocity=127, time=34),
    Message('note_on', channel=7, note=41, velocity=0, time=192),
    Message('note_on', channel=7, note=53, velocity=0, time=0),
    Message('note_on', channel=7, note=57, velocity=0, time=0),
    Message('note_on', channel=7, note=60, velocity=0, time=0),
    Message('note_on', channel=7, note=50, velocity=127, time=0),
    Message('note_on', channel=7, note=53, velocity=127, time=192),
    Message('note_on', channel=7, note=57, velocity=127, time=192),
    Message('note_on', channel=7, note=60, velocity=127, time=192),
    Message('note_on', channel=7, note=50, velocity=0, time=160),
    Message('note_on', channel=7, note=53, velocity=0, time=32),
    Message('note_on', channel=7, note=57, velocity=0, time=0),
    Message('note_on', channel=7, note=60, velocity=0, time=0),
    Message('note_on', channel=7, note=43, velocity=127, time=0),
    Message('note_on', channel=7, note=53, velocity=127, time=192),
    Message('note_on', channel=7, note=55, velocity=127, time=192),
    Message('note_on', channel=7, note=59, velocity=127, time=192),
    Message('note_on', channel=7, note=43, velocity=0, time=160),
    Message('note_on', channel=7, note=53, velocity=0, time=32),
    Message('note_on', channel=7, note=55, velocity=0, time=0),
    Message('note_on', channel=7, note=59, velocity=0, time=0),
    Message('note_on', channel=7, note=40, velocity=127, time=0),
    Message('note_on', channel=7, note=50, velocity=127, time=192),
    Message('note_on', channel=7, note=52, velocity=127, time=192),
    Message('note_on', channel=7, note=55, velocity=127, time=192),
    Message('note_on', channel=7, note=40, velocity=0, time=160),
    Message('note_on', channel=7, note=50, velocity=0, time=32),
    Message('note_on', channel=7, note=52, velocity=0, time=0),
    Message('note_on', channel=7, note=55, velocity=0, time=0),
    Message('note_on', channel=7, note=45, velocity=127, time=0),
    Message('note_on', channel=7, note=48, velocity=127, time=192),
    Message('note_on', channel=7, note=52, velocity=127, time=192),
    Message('note_on', channel=7, note=57, velocity=127, time=192),
    Message('note_on', channel=7, note=45, velocity=0, time=160),
    Message('note_on', channel=7, note=48, velocity=0, time=32),
    Message('note_on', channel=7, note=52, velocity=0, time=0),
    Message('note_on', channel=7, note=57, velocity=0, time=0),
    Message('note_on', channel=7, note=50, velocity=127, time=0),
    Message('note_on', channel=7, note=53, velocity=127, time=192),
    Message('note_on', channel=7, note=57, velocity=127, time=192),
    Message('note_on', channel=7, note=60, velocity=127, time=192),
    Message('note_on', channel=7, note=50, velocity=0, time=160),
    Message('note_on', channel=7, note=53, velocity=0, time=32),
    Message('note_on', channel=7, note=57, velocity=0, time=0),
    Message('note_on', channel=7, note=60, velocity=0, time=0),
    Message('note_on', channel=7, note=43, velocity=127, time=0),
    Message('note_on', channel=7, note=53, velocity=127, time=192),
    Message('note_on', channel=7, note=55, velocity=127, time=192),
    Message('note_on', channel=7, note=59, velocity=127, time=192),
    Message('note_on', channel=7, note=43, velocity=0, time=160),
    Message('note_on', channel=7, note=53, velocity=0, time=32),
    Message('note_on', channel=7, note=55, velocity=0, time=0),
    Message('note_on', channel=7, note=59, velocity=0, time=0),
    Message('note_on', channel=7, note=41, velocity=127, time=0),
    Message('note_on', channel=7, note=50, velocity=127, time=192),
    Message('note_on', channel=7, note=53, velocity=127, time=192),
    Message('note_on', channel=7, note=57, velocity=127, time=192),
    Message('note_on', channel=7, note=41, velocity=0, time=160),
    Message('note_on', channel=7, note=50, velocity=0, time=32),
    Message('note_on', channel=7, note=53, velocity=0, time=0),
    Message('note_on', channel=7, note=57, velocity=0, time=0),
    Message('note_on', channel=7, note=48, velocity=127, time=0),
    Message('note_on', channel=7, note=52, velocity=127, time=192),
    Message('note_on', channel=7, note=55, velocity=127, time=192),
    Message('note_on', channel=7, note=60, velocity=127, time=192),
    Message('note_on', channel=7, note=48, velocity=0, time=160),
    Message('note_on', channel=7, note=52, velocity=0, time=32),
    Message('note_on', channel=7, note=55, velocity=0, time=0),
    Message('note_on', channel=7, note=60, velocity=0, time=0),
    Message('note_on', channel=7, note=64, velocity=127, time=0),
    Message('note_on', channel=7, note=60, velocity=127, time=0),
    Message('note_on', channel=7, note=55, velocity=127, time=0),
    Message('note_on', channel=7, note=64, velocity=0, time=577),
    Message('note_on', channel=7, note=60, velocity=0, time=0),
    Message('note_on', channel=7, note=55, velocity=0, time=0),
    Message('note_on', channel=7, note=64, velocity=127, time=63),
    Message('note_on', channel=7, note=60, velocity=127, time=0),
    Message('note_on', channel=7, note=55, velocity=127, time=0),
    Message('note_on', channel=7, note=64, velocity=0, time=33),
    Message('note_on', channel=7, note=60, velocity=0, time=0),
    Message('note_on', channel=7, note=55, velocity=0, time=0),
    Message('note_on', channel=7, note=64, velocity=127, time=31),
    Message('note_on', channel=7, note=60, velocity=127, time=0),
    Message('note_on', channel=7, note=55, velocity=127, time=0),
    Message('note_on', channel=7, note=64, velocity=0, time=35),
    Message('note_on', channel=7, note=60, velocity=0, time=0),
    Message('note_on', channel=7, note=55, velocity=0, time=0),
    Message('note_on', channel=7, note=64, velocity=127, time=29),
    Message('note_on', channel=7, note=59, velocity=127, time=0),
    Message('note_on', channel=7, note=55, velocity=127, time=0),
    Message('note_on', channel=7, note=64, velocity=0, time=577),
    Message('note_on', channel=7, note=59, velocity=0, time=0),
    Message('note_on', channel=7, note=55, velocity=0, time=0),
    Message('note_on', channel=7, note=64, velocity=127, time=63),
    Message('note_on', channel=7, note=59, velocity=127, time=0),
    Message('note_on', channel=7, note=55, velocity=127, time=0),
    Message('note_on', channel=7, note=64, velocity=0, time=33),
    Message('note_on', channel=7, note=59, velocity=0, time=0),
    Message('note_on', channel=7, note=55, velocity=0, time=0),
    Message('note_on', channel=7, note=64, velocity=127, time=31),
    Message('note_on', channel=7, note=59, velocity=127, time=0),
    Message('note_on', channel=7, note=55, velocity=127, time=0),
    Message('note_on', channel=7, note=64, velocity=0, time=35),
    Message('note_on', channel=7, note=59, velocity=0, time=0),
    Message('note_on', channel=7, note=55, velocity=0, time=0),
    Message('note_on', channel=7, note=64, velocity=127, time=29),
    Message('note_on', channel=7, note=62, velocity=127, time=0),
    Message('note_on', channel=7, note=58, velocity=127, time=0),
    Message('note_on', channel=7, note=67, velocity=127, time=0),
    Message('note_on', channel=7, note=64, velocity=0, time=577),
    Message('note_on', channel=7, note=62, velocity=0, time=0),
    Message('note_on', channel=7, note=58, velocity=0, time=0),
    Message('note_on', channel=7, note=67, velocity=0, time=0),
    Message('note_on', channel=7, note=64, velocity=127, time=63),
    Message('note_on', channel=7, note=62, velocity=127, time=0),
    Message('note_on', channel=7, note=58, velocity=127, time=0),
    Message('note_on', channel=7, note=67, velocity=127, time=0),
    Message('note_on', channel=7, note=64, velocity=0, time=33),
    Message('note_on', channel=7, note=62, velocity=0, time=0),
    Message('note_on', channel=7, note=58, velocity=0, time=0),
    Message('note_on', channel=7, note=67, velocity=0, time=0),
    Message('note_on', channel=7, note=64, velocity=127, time=31),
    Message('note_on', channel=7, note=62, velocity=127, time=0),
    Message('note_on', channel=7, note=58, velocity=127, time=0),
    Message('note_on', channel=7, note=67, velocity=127, time=0),
    Message('note_on', channel=7, note=64, velocity=0, time=35),
    Message('note_on', channel=7, note=62, velocity=0, time=0),
    Message('note_on', channel=7, note=58, velocity=0, time=0),
    Message('note_on', channel=7, note=67, velocity=0, time=0),
    Message('note_on', channel=7, note=67, velocity=127, time=29),
    Message('note_on', channel=7, note=64, velocity=127, time=0),
    Message('note_on', channel=7, note=61, velocity=127, time=0),
    Message('note_on', channel=7, note=69, velocity=127, time=0),
    Message('note_on', channel=7, note=67, velocity=0, time=577),
    Message('note_on', channel=7, note=64, velocity=0, time=0),
    Message('note_on', channel=7, note=61, velocity=0, time=0),
    Message('note_on', channel=7, note=69, velocity=0, time=0),
    Message('note_on', channel=7, note=67, velocity=127, time=63),
    Message('note_on', channel=7, note=64, velocity=127, time=0),
    Message('note_on', channel=7, note=61, velocity=127, time=0),
    Message('note_on', channel=7, note=69, velocity=127, time=0),
    Message('note_on', channel=7, note=67, velocity=0, time=33),
    Message('note_on', channel=7, note=64, velocity=0, time=0),
    Message('note_on', channel=7, note=61, velocity=0, time=0),
    Message('note_on', channel=7, note=69, velocity=0, time=0),
    Message('note_on', channel=7, note=67, velocity=127, time=31),
    Message('note_on', channel=7, note=64, velocity=127, time=0),
    Message('note_on', channel=7, note=61, velocity=127, time=0),
    Message('note_on', channel=7, note=69, velocity=127, time=0),
    Message('note_on', channel=7, note=67, velocity=0, time=35),
    Message('note_on', channel=7, note=64, velocity=0, time=0),
    Message('note_on', channel=7, note=61, velocity=0, time=0),
    Message('note_on', channel=7, note=69, velocity=0, time=0),
    Message('note_on', channel=7, note=65, velocity=127, time=29),
    Message('note_on', channel=7, note=62, velocity=127, time=0),
    Message('note_on', channel=7, note=57, velocity=127, time=0),
    Message('note_on', channel=7, note=65, velocity=0, time=577),
    Message('note_on', channel=7, note=62, velocity=0, time=0),
    Message('note_on', channel=7, note=57, velocity=0, time=0),
    Message('note_on', channel=7, note=65, velocity=127, time=63),
    Message('note_on', channel=7, note=62, velocity=127, time=0),
    Message('note_on', channel=7, note=57, velocity=127, time=0),
    Message('note_on', channel=7, note=65, velocity=0, time=33),
    Message('note_on', channel=7, note=62, velocity=0, time=0),
    Message('note_on', channel=7, note=57, velocity=0, time=0),
    Message('note_on', channel=7, note=65, velocity=127, time=31),
    Message('note_on', channel=7, note=62, velocity=127, time=0),
    Message('note_on', channel=7, note=57, velocity=127, time=0),
    Message('note_on', channel=7, note=65, velocity=0, time=35),
    Message('note_on', channel=7, note=62, velocity=0, time=0),
    Message('note_on', channel=7, note=57, velocity=0, time=0),
    Message('note_on', channel=7, note=65, velocity=127, time=29),
    Message('note_on', channel=7, note=62, velocity=127, time=0),
    Message('note_on', channel=7, note=60, velocity=127, time=0),
    Message('note_on', channel=7, note=69, velocity=127, time=0),
    Message('note_on', channel=7, note=65, velocity=0, time=577),
    Message('note_on', channel=7, note=62, velocity=0, time=0),
    Message('note_on', channel=7, note=60, velocity=0, time=0),
    Message('note_on', channel=7, note=69, velocity=0, time=0),
    Message('note_on', channel=7, note=65, velocity=127, time=63),
    Message('note_on', channel=7, note=62, velocity=127, time=0),
    Message('note_on', channel=7, note=60, velocity=127, time=0),
    Message('note_on', channel=7, note=69, velocity=127, time=0),
    Message('note_on', channel=7, note=65, velocity=0, time=33),
    Message('note_on', channel=7, note=62, velocity=0, time=0),
    Message('note_on', channel=7, note=60, velocity=0, time=0),
    Message('note_on', channel=7, note=69, velocity=0, time=0),
    Message('note_on', channel=7, note=65, velocity=127, time=31),
    Message('note_on', channel=7, note=62, velocity=127, time=0),
    Message('note_on', channel=7, note=60, velocity=127, time=0),
    Message('note_on', channel=7, note=69, velocity=127, time=0),
    Message('note_on', channel=7, note=65, velocity=0, time=35),
    Message('note_on', channel=7, note=62, velocity=0, time=0),
    Message('note_on', channel=7, note=60, velocity=0, time=0),
    Message('note_on', channel=7, note=69, velocity=0, time=0),
    Message('note_on', channel=7, note=65, velocity=127, time=29),
    Message('note_on', channel=7, note=62, velocity=127, time=0),
    Message('note_on', channel=7, note=59, velocity=127, time=0),
    Message('note_on', channel=7, note=67, velocity=127, time=0),
    Message('note_on', channel=7, note=65, velocity=0, time=577),
    Message('note_on', channel=7, note=62, velocity=0, time=0),
    Message('note_on', channel=7, note=59, velocity=0, time=0),
    Message('note_on', channel=7, note=67, velocity=0, time=0),
    Message('note_on', channel=7, note=65, velocity=127, time=63),
    Message('note_on', channel=7, note=62, velocity=127, time=0),
    Message('note_on', channel=7, note=59, velocity=127, time=0),
    Message('note_on', channel=7, note=67, velocity=127, time=0),
    Message('note_on', channel=7, note=65, velocity=0, time=33),
    Message('note_on', channel=7, note=62, velocity=0, time=0),
    Message('note_on', channel=7, note=59, velocity=0, time=0),
    Message('note_on', channel=7, note=67, velocity=0, time=0),
    Message('note_on', channel=7, note=65, velocity=127, time=31),
    Message('note_on', channel=7, note=62, velocity=127, time=0),
    Message('note_on', channel=7, note=59, velocity=127, time=0),
    Message('note_on', channel=7, note=67, velocity=127, time=0),
    Message('note_on', channel=7, note=65, velocity=0, time=35),
    Message('note_on', channel=7, note=62, velocity=0, time=0),
    Message('note_on', channel=7, note=59, velocity=0, time=0),
    Message('note_on', channel=7, note=67, velocity=0, time=0),
    Message('note_on', channel=7, note=64, velocity=127, time=29),
    Message('note_on', channel=7, note=60, velocity=127, time=0),
    Message('note_on', channel=7, note=55, velocity=127, time=0),
    Message('note_on', channel=7, note=64, velocity=0, time=577),
    Message('note_on', channel=7, note=60, velocity=0, time=0),
    Message('note_on', channel=7, note=55, velocity=0, time=0),
    Message('note_on', channel=7, note=64, velocity=127, time=63),
    Message('note_on', channel=7, note=60, velocity=127, time=0),
    Message('note_on', channel=7, note=55, velocity=127, time=0),
    Message('note_on', channel=7, note=64, velocity=0, time=33),
    Message('note_on', channel=7, note=60, velocity=0, time=0),
    Message('note_on', channel=7, note=55, velocity=0, time=0),
    Message('note_on', channel=7, note=64, velocity=127, time=31),
    Message('note_on', channel=7, note=60, velocity=127, time=0),
    Message('note_on', channel=7, note=55, velocity=127, time=0),
    Message('note_on', channel=7, note=64, velocity=0, time=35),
    Message('note_on', channel=7, note=60, velocity=0, time=0),
    Message('note_on', channel=7, note=55, velocity=0, time=0),
    Message('note_on', channel=7, note=64, velocity=127, time=32),
    Message('note_on', channel=7, note=60, velocity=127, time=0),
    Message('note_on', channel=7, note=55, velocity=127, time=0),
    Message('note_on', channel=7, note=64, velocity=0, time=347),
    Message('note_on', channel=7, note=60, velocity=0, time=0),
    Message('note_on', channel=7, note=55, velocity=0, time=0),
    Message('note_on', channel=7, note=64, velocity=127, time=34),
    Message('note_on', channel=7, note=62, velocity=127, time=0),
    Message('note_on', channel=7, note=59, velocity=127, time=0),
    Message('note_on', channel=7, note=67, velocity=127, time=0),
    Message('note_on', channel=7, note=64, velocity=0, time=171),
    Message('note_on', channel=7, note=62, velocity=0, time=0),
    Message('note_on', channel=7, note=59, velocity=0, time=0),
    Message('note_on', channel=7, note=67, velocity=0, time=0),
    Message('note_on', channel=7, note=64, velocity=127, time=21),
    Message('note_on', channel=7, note=62, velocity=127, time=0),
    Message('note_on', channel=7, note=59, velocity=127, time=0),
    Message('note_on', channel=7, note=67, velocity=127, time=0),
    Message('note_on', channel=7, note=64, velocity=0, time=30),
    Message('note_on', channel=7, note=62, velocity=0, time=0),
    Message('note_on', channel=7, note=59, velocity=0, time=0),
    Message('note_on', channel=7, note=67, velocity=0, time=0),
    Message('note_on', channel=7, note=64, velocity=127, time=34),
    Message('note_on', channel=7, note=62, velocity=127, time=0),
    Message('note_on', channel=7, note=59, velocity=127, time=0),
    Message('note_on', channel=7, note=67, velocity=127, time=0),
    Message('note_on', channel=7, note=64, velocity=0, time=27),
    Message('note_on', channel=7, note=62, velocity=0, time=0),
    Message('note_on', channel=7, note=59, velocity=0, time=0),
    Message('note_on', channel=7, note=67, velocity=0, time=0),
    Message('note_on', channel=7, note=64, velocity=127, time=37),
    Message('note_on', channel=7, note=62, velocity=127, time=0),
    Message('note_on', channel=7, note=59, velocity=127, time=0),
    Message('note_on', channel=7, note=67, velocity=127, time=0),
    Message('note_on', channel=7, note=64, velocity=0, time=35),
    Message('note_on', channel=7, note=62, velocity=0, time=0),
    Message('note_on', channel=7, note=59, velocity=0, time=0),
    Message('note_on', channel=7, note=67, velocity=0, time=0),
    Message('note_on', channel=7, note=64, velocity=127, time=29),
    Message('note_on', channel=7, note=60, velocity=127, time=0),
    Message('note_on', channel=7, note=58, velocity=127, time=0),
    Message('note_on', channel=7, note=67, velocity=127, time=0),
    Message('note_on', channel=7, note=64, velocity=0, time=577),
    Message('note_on', channel=7, note=60, velocity=0, time=0),
    Message('note_on', channel=7, note=58, velocity=0, time=0),
    Message('note_on', channel=7, note=67, velocity=0, time=0),
    Message('note_on', channel=7, note=64, velocity=127, time=63),
    Message('note_on', channel=7, note=60, velocity=127, time=0),
    Message('note_on', channel=7, note=58, velocity=127, time=0),
    Message('note_on', channel=7, note=67, velocity=127, time=0),
    Message('note_on', channel=7, note=64, velocity=0, time=33),
    Message('note_on', channel=7, note=60, velocity=0, time=0),
    Message('note_on', channel=7, note=58, velocity=0, time=0),
    Message('note_on', channel=7, note=67, velocity=0, time=0),
    Message('note_on', channel=7, note=64, velocity=127, time=31),
    Message('note_on', channel=7, note=60, velocity=127, time=0),
    Message('note_on', channel=7, note=58, velocity=127, time=0),
    Message('note_on', channel=7, note=67, velocity=127, time=0),
    Message('note_on', channel=7, note=64, velocity=0, time=35),
    Message('note_on', channel=7, note=60, velocity=0, time=0),
    Message('note_on', channel=7, note=58, velocity=0, time=0),
    Message('note_on', channel=7, note=67, velocity=0, time=0),
    Message('note_on', channel=7, note=65, velocity=127, time=29),
    Message('note_on', channel=7, note=60, velocity=127, time=0),
    Message('note_on', channel=7, note=57, velocity=127, time=0),
    Message('note_on', channel=7, note=65, velocity=0, time=577),
    Message('note_on', channel=7, note=60, velocity=0, time=0),
    Message('note_on', channel=7, note=57, velocity=0, time=0),
    Message('note_on', channel=7, note=65, velocity=127, time=63),
    Message('note_on', channel=7, note=60, velocity=127, time=0),
    Message('note_on', channel=7, note=57, velocity=127, time=0),
    Message('note_on', channel=7, note=65, velocity=0, time=33),
    Message('note_on', channel=7, note=60, velocity=0, time=0),
    Message('note_on', channel=7, note=57, velocity=0, time=0),
    Message('note_on', channel=7, note=65, velocity=127, time=31),
    Message('note_on', channel=7, note=60, velocity=127, time=0),
    Message('note_on', channel=7, note=57, velocity=127, time=0),
    Message('note_on', channel=7, note=65, velocity=0, time=35),
    Message('note_on', channel=7, note=60, velocity=0, time=0),
    Message('note_on', channel=7, note=57, velocity=0, time=0),
    Message('note_on', channel=7, note=65, velocity=127, time=29),
    Message('note_on', channel=7, note=60, velocity=127, time=0),
    Message('note_on', channel=7, note=56, velocity=127, time=0),
    Message('note_on', channel=7, note=65, velocity=0, time=577),
    Message('note_on', channel=7, note=60, velocity=0, time=0),
    Message('note_on', channel=7, note=56, velocity=0, time=0),
    Message('note_on', channel=7, note=65, velocity=127, time=63),
    Message('note_on', channel=7, note=60, velocity=127, time=0),
    Message('note_on', channel=7, note=56, velocity=127, time=0),
    Message('note_on', channel=7, note=65, velocity=0, time=33),
    Message('note_on', channel=7, note=60, velocity=0, time=0),
    Message('note_on', channel=7, note=56, velocity=0, time=0),
    Message('note_on', channel=7, note=65, velocity=127, time=31),
    Message('note_on', channel=7, note=60, velocity=127, time=0),
    Message('note_on', channel=7, note=56, velocity=127, time=0),
    Message('note_on', channel=7, note=65, velocity=0, time=35),
    Message('note_on', channel=7, note=60, velocity=0, time=0),
    Message('note_on', channel=7, note=56, velocity=0, time=0),
    Message('note_on', channel=7, note=64, velocity=127, time=29),
    Message('note_on', channel=7, note=60, velocity=127, time=0),
    Message('note_on', channel=7, note=55, velocity=127, time=0),
    Message('note_on', channel=7, note=64, velocity=0, time=577),
    Message('note_on', channel=7, note=60, velocity=0, time=0),
    Message('note_on', channel=7, note=55, velocity=0, time=0),
    Message('note_on', channel=7, note=64, velocity=127, time=63),
    Message('note_on', channel=7, note=60, velocity=127, time=0),
    Message('note_on', channel=7, note=55, velocity=127, time=0),
    Message('note_on', channel=7, note=64, velocity=0, time=33),
    Message('note_on', channel=7, note=60, velocity=0, time=0),
    Message('note_on', channel=7, note=55, velocity=0, time=0),
    Message('note_on', channel=7, note=64, velocity=127, time=31),
    Message('note_on', channel=7, note=60, velocity=127, time=0),
    Message('note_on', channel=7, note=55, velocity=127, time=0),
    Message('note_on', channel=7, note=64, velocity=0, time=35),
    Message('note_on', channel=7, note=60, velocity=0, time=0),
    Message('note_on', channel=7, note=55, velocity=0, time=0),
    Message('note_on', channel=7, note=65, velocity=127, time=29),
    Message('note_on', channel=7, note=62, velocity=127, time=0),
    Message('note_on', channel=7, note=59, velocity=127, time=0),
    Message('note_on', channel=7, note=67, velocity=127, time=0),
    Message('note_on', channel=7, note=65, velocity=0, time=577),
    Message('note_on', channel=7, note=62, velocity=0, time=0),
    Message('note_on', channel=7, note=59, velocity=0, time=0),
    Message('note_on', channel=7, note=67, velocity=0, time=0),
    Message('note_on', channel=7, note=65, velocity=127, time=63),
    Message('note_on', channel=7, note=62, velocity=127, time=0),
    Message('note_on', channel=7, note=59, velocity=127, time=0),
    Message('note_on', channel=7, note=67, velocity=127, time=0),
    Message('note_on', channel=7, note=65, velocity=0, time=33),
    Message('note_on', channel=7, note=62, velocity=0, time=0),
    Message('note_on', channel=7, note=59, velocity=0, time=0),
    Message('note_on', channel=7, note=67, velocity=0, time=0),
    Message('note_on', channel=7, note=65, velocity=127, time=31),
    Message('note_on', channel=7, note=62, velocity=127, time=0),
    Message('note_on', channel=7, note=59, velocity=127, time=0),
    Message('note_on', channel=7, note=67, velocity=127, time=0),
    Message('note_on', channel=7, note=65, velocity=0, time=35),
    Message('note_on', channel=7, note=62, velocity=0, time=0),
    Message('note_on', channel=7, note=59, velocity=0, time=0),
    Message('note_on', channel=7, note=67, velocity=0, time=0),
    Message('note_on', channel=7, note=65, velocity=127, time=29),
    Message('note_on', channel=7, note=62, velocity=127, time=0),
    Message('note_on', channel=7, note=60, velocity=127, time=0),
    Message('note_on', channel=7, note=69, velocity=127, time=0),
    Message('note_on', channel=7, note=65, velocity=0, time=577),
    Message('note_on', channel=7, note=62, velocity=0, time=0),
    Message('note_on', channel=7, note=60, velocity=0, time=0),
    Message('note_on', channel=7, note=69, velocity=0, time=0),
    Message('note_on', channel=7, note=65, velocity=127, time=63),
    Message('note_on', channel=7, note=62, velocity=127, time=0),
    Message('note_on', channel=7, note=60, velocity=127, time=0),
    Message('note_on', channel=7, note=69, velocity=127, time=0),
    Message('note_on', channel=7, note=65, velocity=0, time=33),
    Message('note_on', channel=7, note=62, velocity=0, time=0),
    Message('note_on', channel=7, note=60, velocity=0, time=0),
    Message('note_on', channel=7, note=69, velocity=0, time=0),
    Message('note_on', channel=7, note=65, velocity=127, time=31),
    Message('note_on', channel=7, note=62, velocity=127, time=0),
    Message('note_on', channel=7, note=60, velocity=127, time=0),
    Message('note_on', channel=7, note=69, velocity=127, time=0),
    Message('note_on', channel=7, note=65, velocity=0, time=35),
    Message('note_on', channel=7, note=62, velocity=0, time=0),
    Message('note_on', channel=7, note=60, velocity=0, time=0),
    Message('note_on', channel=7, note=69, velocity=0, time=0),
    Message('note_on', channel=7, note=64, velocity=127, time=29),
    Message('note_on', channel=7, note=60, velocity=127, time=0),
    Message('note_on', channel=7, note=55, velocity=127, time=0),
    Message('note_on', channel=7, note=64, velocity=0, time=577),
    Message('note_on', channel=7, note=60, velocity=0, time=0),
    Message('note_on', channel=7, note=55, velocity=0, time=0),
    Message('note_on', channel=7, note=64, velocity=127, time=63),
    Message('note_on', channel=7, note=60, velocity=127, time=0),
    Message('note_on', channel=7, note=55, velocity=127, time=0),
    Message('note_on', channel=7, note=64, velocity=0, time=33),
    Message('note_on', channel=7, note=60, velocity=0, time=0),
    Message('note_on', channel=7, note=55, velocity=0, time=0),
    Message('note_on', channel=7, note=64, velocity=127, time=31),
    Message('note_on', channel=7, note=60, velocity=127, time=0),
    Message('note_on', channel=7, note=55, velocity=127, time=0),
    Message('note_on', channel=7, note=64, velocity=0, time=35),
    Message('note_on', channel=7, note=60, velocity=0, time=0),
    Message('note_on', channel=7, note=55, velocity=0, time=0),
    Message('note_on', channel=7, note=48, velocity=127, time=29),
    Message('note_on', channel=7, note=52, velocity=127, time=192),
    Message('note_on', channel=7, note=55, velocity=127, time=192),
    Message('note_on', channel=7, note=60, velocity=127, time=192),
    Message('note_on', channel=7, note=48, velocity=0, time=160),
    Message('note_on', channel=7, note=52, velocity=0, time=32),
    Message('note_on', channel=7, note=55, velocity=0, time=0),
    Message('note_on', channel=7, note=60, velocity=0, time=0),
    Message('note_on', channel=7, note=48, velocity=127, time=0),
    Message('note_on', channel=7, note=52, velocity=127, time=192),
    Message('note_on', channel=7, note=55, velocity=127, time=192),
    Message('note_on', channel=7, note=58, velocity=127, time=192),
    Message('note_on', channel=7, note=48, velocity=0, time=160),
    Message('note_on', channel=7, note=52, velocity=0, time=32),
    Message('note_on', channel=7, note=55, velocity=0, time=0),
    Message('note_on', channel=7, note=58, velocity=0, time=0),
    Message('note_on', channel=7, note=41, velocity=127, time=0),
    Message('note_on', channel=7, note=53, velocity=127, time=192),
    Message('note_on', channel=7, note=57, velocity=127, time=192),
    Message('note_on', channel=7, note=60, velocity=127, time=192),
    Message('note_on', channel=7, note=41, velocity=0, time=160),
    Message('note_on', channel=7, note=41, velocity=127, time=32),
    Message('note_on', channel=7, note=53, velocity=0, time=137),
    Message('note_on', channel=7, note=53, velocity=127, time=55),
    Message('note_on', channel=7, note=57, velocity=0, time=139),
    Message('note_on', channel=7, note=57, velocity=127, time=53),
    Message('note_on', channel=7, note=60, velocity=0, time=158),
    Message('note_on', channel=7, note=60, velocity=127, time=34),
    Message('note_on', channel=7, note=41, velocity=0, time=192),
    Message('note_on', channel=7, note=53, velocity=0, time=0),
    Message('note_on', channel=7, note=57, velocity=0, time=0),
    Message('note_on', channel=7, note=60, velocity=0, time=0),
    Message('note_on', channel=7, note=50, velocity=127, time=0),
    Message('note_on', channel=7, note=53, velocity=127, time=192),
    Message('note_on', channel=7, note=57, velocity=127, time=192),
    Message('note_on', channel=7, note=60, velocity=127, time=192),
    Message('note_on', channel=7, note=50, velocity=0, time=160),
    Message('note_on', channel=7, note=53, velocity=0, time=32),
    Message('note_on', channel=7, note=57, velocity=0, time=0),
    Message('note_on', channel=7, note=60, velocity=0, time=0),
    Message('note_on', channel=7, note=43, velocity=127, time=0),
    Message('note_on', channel=7, note=53, velocity=127, time=192),
    Message('note_on', channel=7, note=55, velocity=127, time=192),
    Message('note_on', channel=7, note=59, velocity=127, time=192),
    Message('note_on', channel=7, note=43, velocity=0, time=160),
    Message('note_on', channel=7, note=53, velocity=0, time=32),
    Message('note_on', channel=7, note=55, velocity=0, time=0),
    Message('note_on', channel=7, note=59, velocity=0, time=0),
    Message('note_on', channel=7, note=40, velocity=127, time=0),
    Message('note_on', channel=7, note=50, velocity=127, time=192),
    Message('note_on', channel=7, note=52, velocity=127, time=192),
    Message('note_on', channel=7, note=55, velocity=127, time=192),
    Message('note_on', channel=7, note=40, velocity=0, time=160),
    Message('note_on', channel=7, note=50, velocity=0, time=32),
    Message('note_on', channel=7, note=52, velocity=0, time=0),
    Message('note_on', channel=7, note=55, velocity=0, time=0),
    Message('note_on', channel=7, note=45, velocity=127, time=0),
    Message('note_on', channel=7, note=48, velocity=127, time=192),
    Message('note_on', channel=7, note=52, velocity=127, time=192),
    Message('note_on', channel=7, note=57, velocity=127, time=192),
    Message('note_on', channel=7, note=45, velocity=0, time=160),
    Message('note_on', channel=7, note=48, velocity=0, time=32),
    Message('note_on', channel=7, note=52, velocity=0, time=0),
    Message('note_on', channel=7, note=57, velocity=0, time=0),
    Message('note_on', channel=7, note=50, velocity=127, time=0),
    Message('note_on', channel=7, note=53, velocity=127, time=192),
    Message('note_on', channel=7, note=57, velocity=127, time=192),
    Message('note_on', channel=7, note=60, velocity=127, time=192),
    Message('note_on', channel=7, note=50, velocity=0, time=160),
    Message('note_on', channel=7, note=53, velocity=0, time=32),
    Message('note_on', channel=7, note=57, velocity=0, time=0),
    Message('note_on', channel=7, note=60, velocity=0, time=0),
    Message('note_on', channel=7, note=43, velocity=127, time=0),
    Message('note_on', channel=7, note=53, velocity=127, time=192),
    Message('note_on', channel=7, note=55, velocity=127, time=192),
    Message('note_on', channel=7, note=59, velocity=127, time=192),
    Message('note_on', channel=7, note=43, velocity=0, time=160),
    Message('note_on', channel=7, note=53, velocity=0, time=32),
    Message('note_on', channel=7, note=55, velocity=0, time=0),
    Message('note_on', channel=7, note=59, velocity=0, time=0),
    Message('note_on', channel=7, note=41, velocity=127, time=0),
    Message('note_on', channel=7, note=50, velocity=127, time=192),
    Message('note_on', channel=7, note=53, velocity=127, time=192),
    Message('note_on', channel=7, note=57, velocity=127, time=192),
    Message('note_on', channel=7, note=41, velocity=0, time=160),
    Message('note_on', channel=7, note=50, velocity=0, time=32),
    Message('note_on', channel=7, note=53, velocity=0, time=0),
    Message('note_on', channel=7, note=57, velocity=0, time=0),
    Message('note_on', channel=7, note=64, velocity=120, time=0),
    Message('note_on', channel=7, note=67, velocity=120, time=0),
    Message('note_on', channel=7, note=60, velocity=120, time=0),
    Message('note_on', channel=7, note=60, velocity=0, time=19),
    Message('note_on', channel=7, note=67, velocity=0, time=5),
    Message('note_on', channel=7, note=64, velocity=0, time=3),
    Message('note_on', channel=7, note=64, velocity=120, time=37),
    Message('note_on', channel=7, note=67, velocity=120, time=0),
    Message('note_on', channel=7, note=60, velocity=120, time=0),
    Message('note_on', channel=7, note=60, velocity=0, time=16),
    Message('note_on', channel=7, note=67, velocity=0, time=3),
    Message('note_on', channel=7, note=64, velocity=0, time=1),
    Message('note_on', channel=7, note=64, velocity=120, time=44),
    Message('note_on', channel=7, note=67, velocity=120, time=0),
    Message('note_on', channel=7, note=60, velocity=120, time=0),
    Message('note_on', channel=7, note=60, velocity=0, time=19),
    Message('note_on', channel=7, note=64, velocity=0, time=3),
    Message('note_on', channel=7, note=67, velocity=0, time=0),
    Message('note_on', channel=7, note=64, velocity=120, time=42),
    Message('note_on', channel=7, note=67, velocity=120, time=0),
    Message('note_on', channel=7, note=60, velocity=120, time=0),
    Message('note_on', channel=7, note=60, velocity=0, time=22),
    Message('note_on', channel=7, note=67, velocity=0, time=3),
    Message('note_on', channel=7, note=64, velocity=0, time=2),
    Message('note_on', channel=7, note=65, velocity=120, time=165),
    Message('note_on', channel=7, note=60, velocity=120, time=0),
    Message('note_on', channel=7, note=69, velocity=120, time=0),
    Message('note_on', channel=7, note=65, velocity=0, time=20),
    Message('note_on', channel=7, note=60, velocity=0, time=0),
    Message('note_on', channel=7, note=69, velocity=0, time=4),
    Message('note_on', channel=7, note=65, velocity=120, time=40),
    Message('note_on', channel=7, note=69, velocity=120, time=0),
    Message('note_on', channel=7, note=60, velocity=120, time=0),
    Message('note_on', channel=7, note=60, velocity=0, time=19),
    Message('note_on', channel=7, note=65, velocity=0, time=3),
    Message('note_on', channel=7, note=69, velocity=0, time=0),
    Message('note_on', channel=7, note=65, velocity=120, time=42),
    Message('note_on', channel=7, note=69, velocity=120, time=0),
    Message('note_on', channel=7, note=60, velocity=120, time=0),
    Message('note_on', channel=7, note=60, velocity=0, time=16),
    Message('note_on', channel=7, note=65, velocity=0, time=4),
    Message('note_on', channel=7, note=69, velocity=0, time=0),
    Message('note_on', channel=7, note=65, velocity=120, time=44),
    Message('note_on', channel=7, note=69, velocity=120, time=0),
    Message('note_on', channel=7, note=60, velocity=120, time=0),
    Message('note_on', channel=7, note=65, velocity=0, time=27),
    Message('note_on', channel=7, note=69, velocity=0, time=0),
    Message('note_on', channel=7, note=60, velocity=0, time=0),
    Message('note_on', channel=7, note=64, velocity=120, time=165),
    Message('note_on', channel=7, note=67, velocity=120, time=0),
    Message('note_on', channel=7, note=60, velocity=120, time=0),
    Message('note_on', channel=7, note=67, velocity=0, time=372),
    Message('note_on', channel=7, note=60, velocity=0, time=0),
    Message('note_on', channel=7, note=64, velocity=0, time=12),
    Message('note_on', channel=7, note=72, velocity=120, time=0),
    Message('note_on', channel=7, note=64, velocity=120, time=0),
    Message('note_on', channel=7, note=67, velocity=120, time=0),
    Message('note_on', channel=7, note=60, velocity=120, time=0),
    Message('control_change', channel=7, control=7, value=100, time=0),
    Message('control_change', channel=7, control=64, value=0, time=384),
    Message('note_on', channel=7, note=72, velocity=0, time=84),
    Message('note_on', channel=7, note=64, velocity=0, time=0),
    Message('note_on', channel=7, note=67, velocity=0, time=0),
    Message('note_on', channel=7, note=60, velocity=0, time=0),
    MetaMessage('end_of_track', time=0)]),
  MidiTrack([
    MetaMessage('midi_port', port=1, time=0),
    MetaMessage('track_name', name='brass1              ', time=0),
    Message('program_change', channel=10, program=61, time=0),
    Message('control_change', channel=10, control=10, value=65, time=0),
    Message('control_change', channel=10, control=64, value=0, time=0),
    Message('note_on', channel=10, note=67, velocity=122, time=29184),
    Message('note_on', channel=10, note=76, velocity=115, time=0),
    Message('note_on', channel=10, note=79, velocity=1, time=384),
    Message('note_on', channel=10, note=67, velocity=0, time=376),
    Message('note_on', channel=10, note=76, velocity=0, time=0),
    Message('note_on', channel=10, note=79, velocity=0, time=8),
    Message('note_on', channel=10, note=76, velocity=1, time=0),
    Message('note_on', channel=10, note=70, velocity=126, time=0),
    Message('note_on', channel=10, note=70, velocity=0, time=376),
    Message('note_on', channel=10, note=72, velocity=108, time=8),
    Message('note_on', channel=10, note=76, velocity=0, time=384),
    Message('note_on', channel=10, note=72, velocity=0, time=0),
    Message('note_on', channel=10, note=81, velocity=120, time=0),
    Message('note_on', channel=10, note=72, velocity=111, time=0),
    Message('note_on', channel=10, note=72, velocity=0, time=1120),
    Message('note_on', channel=10, note=69, velocity=127, time=32),
    Message('note_on', channel=10, note=81, velocity=0, time=329),
    Message('note_on', channel=10, note=69, velocity=0, time=27),
    Message('note_on', channel=10, note=77, velocity=126, time=28),
    Message('note_on', channel=10, note=72, velocity=118, time=0),
    Message('note_on', channel=10, note=72, velocity=0, time=755),
    Message('note_on', channel=10, note=77, velocity=0, time=5),
    Message('note_on', channel=10, note=77, velocity=126, time=8),
    Message('note_on', channel=10, note=71, velocity=118, time=0),
    Message('note_on', channel=10, note=71, velocity=0, time=755),
    Message('note_on', channel=10, note=77, velocity=0, time=5),
    Message('note_on', channel=10, note=74, velocity=1, time=8),
    Message('note_on', channel=10, note=67, velocity=126, time=0),
    Message('note_on', channel=10, note=67, velocity=0, time=376),
    Message('note_on', channel=10, note=71, velocity=108, time=8),
    Message('note_on', channel=10, note=74, velocity=0, time=384),
    Message('note_on', channel=10, note=71, velocity=0, time=0),
    Message('note_on', channel=10, note=72, velocity=126, time=0),
    Message('note_on', channel=10, note=64, velocity=118, time=0),
    Message('note_on', channel=10, note=64, velocity=0, time=755),
    Message('note_on', channel=10, note=72, velocity=0, time=5),
    Message('note_on', channel=10, note=77, velocity=1, time=8),
    Message('note_on', channel=10, note=72, velocity=126, time=0),
    Message('note_on', channel=10, note=72, velocity=0, time=376),
    Message('note_on', channel=10, note=74, velocity=108, time=8),
    Message('note_on', channel=10, note=77, velocity=0, time=384),
    Message('note_on', channel=10, note=74, velocity=0, time=0),
    Message('note_on', channel=10, note=77, velocity=117, time=0),
    Message('note_on', channel=10, note=71, velocity=113, time=0),
    Message('note_on', channel=10, note=79, velocity=1, time=384),
    Message('note_on', channel=10, note=77, velocity=0, time=38),
    Message('note_on', channel=10, note=79, velocity=0, time=154),
    Message('note_on', channel=10, note=77, velocity=1, time=0),
    Message('note_on', channel=10, note=77, velocity=0, time=148),
    Message('note_on', channel=10, note=71, velocity=0, time=8),
    Message('note_on', channel=10, note=74, velocity=1, time=36),
    Message('note_on', channel=10, note=69, velocity=126, time=0),
    Message('note_on', channel=10, note=69, velocity=0, time=376),
    Message('note_on', channel=10, note=72, velocity=108, time=8),
    Message('note_on', channel=10, note=74, velocity=0, time=384),
    Message('note_on', channel=10, note=72, velocity=0, time=0),
    Message('note_on', channel=10, note=76, velocity=126, time=0),
    Message('note_on', channel=10, note=67, velocity=118, time=0),
    Message('note_on', channel=10, note=67, velocity=0, time=755),
    Message('note_on', channel=10, note=76, velocity=0, time=5),
    Message('note_on', channel=10, note=67, velocity=122, time=12296),
    Message('note_on', channel=10, note=76, velocity=115, time=0),
    Message('note_on', channel=10, note=79, velocity=1, time=384),
    Message('note_on', channel=10, note=67, velocity=0, time=376),
    Message('note_on', channel=10, note=76, velocity=0, time=0),
    Message('note_on', channel=10, note=79, velocity=0, time=8),
    Message('note_on', channel=10, note=76, velocity=117, time=0),
    Message('note_on', channel=10, note=70, velocity=113, time=0),
    Message('note_on', channel=10, note=79, velocity=1, time=384),
    Message('note_on', channel=10, note=76, velocity=0, time=38),
    Message('note_on', channel=10, note=79, velocity=0, time=154),
    Message('note_on', channel=10, note=76, velocity=1, time=0),
    Message('note_on', channel=10, note=76, velocity=0, time=148),
    Message('note_on', channel=10, note=70, velocity=0, time=8),
    Message('note_on', channel=10, note=77, velocity=127, time=36),
    Message('note_on', channel=10, note=69, velocity=122, time=0),
    Message('note_on', channel=10, note=81, velocity=118, time=1152),
    Message('note_on', channel=10, note=69, velocity=0, time=355),
    Message('note_on', channel=10, note=77, velocity=0, time=1),
    Message('note_on', channel=10, note=81, velocity=0, time=15),
    Message('note_on', channel=10, note=77, velocity=1, time=13),
    Message('note_on', channel=10, note=72, velocity=126, time=0),
    Message('note_on', channel=10, note=72, velocity=0, time=376),
    Message('note_on', channel=10, note=74, velocity=108, time=8),
    Message('note_on', channel=10, note=77, velocity=0, time=384),
    Message('note_on', channel=10, note=74, velocity=0, time=0),
    Message('note_on', channel=10, note=77, velocity=117, time=0),
    Message('note_on', channel=10, note=71, velocity=113, time=0),
    Message('note_on', channel=10, note=79, velocity=1, time=384),
    Message('note_on', channel=10, note=77, velocity=0, time=38),
    Message('note_on', channel=10, note=79, velocity=0, time=154),
    Message('note_on', channel=10, note=77, velocity=1, time=0),
    Message('note_on', channel=10, note=77, velocity=0, time=148),
    Message('note_on', channel=10, note=71, velocity=0, time=8),
    Message('note_on', channel=10, note=74, velocity=117, time=36),
    Message('note_on', channel=10, note=67, velocity=113, time=0),
    Message('note_on', channel=10, note=76, velocity=1, time=384),
    Message('note_on', channel=10, note=74, velocity=0, time=38),
    Message('note_on', channel=10, note=76, velocity=0, time=154),
    Message('note_on', channel=10, note=74, velocity=1, time=0),
    Message('note_on', channel=10, note=74, velocity=0, time=148),
    Message('note_on', channel=10, note=67, velocity=0, time=8),
    Message('note_on', channel=10, note=72, velocity=126, time=36),
    Message('note_on', channel=10, note=64, velocity=118, time=0),
    Message('note_on', channel=10, note=64, velocity=0, time=755),
    Message('note_on', channel=10, note=72, velocity=0, time=5),
    Message('note_on', channel=10, note=77, velocity=1, time=8),
    Message('note_on', channel=10, note=72, velocity=126, time=0),
    Message('note_on', channel=10, note=72, velocity=0, time=376),
    Message('note_on', channel=10, note=74, velocity=108, time=8),
    Message('note_on', channel=10, note=77, velocity=0, time=384),
    Message('note_on', channel=10, note=74, velocity=0, time=0),
    Message('note_on', channel=10, note=77, velocity=126, time=0),
    Message('note_on', channel=10, note=71, velocity=118, time=0),
    Message('note_on', channel=10, note=71, velocity=0, time=755),
    Message('note_on', channel=10, note=77, velocity=0, time=5),
    Message('note_on', channel=10, note=74, velocity=126, time=8),
    Message('note_on', channel=10, note=69, velocity=118, time=0),
    Message('note_on', channel=10, note=69, velocity=0, time=755),
    Message('note_on', channel=10, note=74, velocity=0, time=5),
    Message('control_change', channel=10, control=64, value=0, time=1544),
    MetaMessage('end_of_track', time=0)]),
  MidiTrack([
    MetaMessage('midi_port', port=1, time=0),
    MetaMessage('track_name', name='clean guitar1       ', time=0),
    Message('program_change', channel=8, program=27, time=0),
    Message('control_change', channel=8, control=7, value=90, time=0),
    Message('control_change', channel=8, control=10, value=1, time=0),
    Message('control_change', channel=8, control=64, value=0, time=0),
    Message('note_on', channel=8, note=64, velocity=74, time=1728),
    Message('note_on', channel=8, note=60, velocity=74, time=0),
    Message('note_on', channel=8, note=55, velocity=74, time=0),
    Message('note_on', channel=8, note=64, velocity=0, time=27),
    Message('note_on', channel=8, note=60, velocity=0, time=0),
    Message('note_on', channel=8, note=55, velocity=0, time=0),
    Message('note_on', channel=8, note=64, velocity=83, time=357),
    Message('note_on', channel=8, note=60, velocity=83, time=0),
    Message('note_on', channel=8, note=55, velocity=83, time=0),
    Message('note_on', channel=8, note=64, velocity=0, time=20),
    Message('note_on', channel=8, note=60, velocity=0, time=0),
    Message('note_on', channel=8, note=55, velocity=0, time=0),
    Message('note_on', channel=8, note=64, velocity=83, time=364),
    Message('note_on', channel=8, note=60, velocity=83, time=0),
    Message('note_on', channel=8, note=55, velocity=83, time=0),
    Message('note_on', channel=8, note=64, velocity=0, time=24),
    Message('note_on', channel=8, note=60, velocity=0, time=0),
    Message('note_on', channel=8, note=55, velocity=0, time=0),
    Message('note_on', channel=8, note=64, velocity=82, time=360),
    Message('note_on', channel=8, note=60, velocity=82, time=0),
    Message('note_on', channel=8, note=55, velocity=82, time=0),
    Message('note_on', channel=8, note=64, velocity=0, time=20),
    Message('note_on', channel=8, note=60, velocity=0, time=0),
    Message('note_on', channel=8, note=55, velocity=0, time=0),
    Message('note_on', channel=8, note=64, velocity=74, time=364),
    Message('note_on', channel=8, note=60, velocity=74, time=0),
    Message('note_on', channel=8, note=55, velocity=74, time=0),
    Message('note_on', channel=8, note=64, velocity=0, time=27),
    Message('note_on', channel=8, note=60, velocity=0, time=0),
    Message('note_on', channel=8, note=55, velocity=0, time=0),
    Message('note_on', channel=8, note=64, velocity=83, time=357),
    Message('note_on', channel=8, note=60, velocity=83, time=0),
    Message('note_on', channel=8, note=55, velocity=83, time=0),
    Message('note_on', channel=8, note=64, velocity=0, time=20),
    Message('note_on', channel=8, note=60, velocity=0, time=0),
    Message('note_on', channel=8, note=55, velocity=0, time=0),
    Message('note_on', channel=8, note=64, velocity=83, time=364),
    Message('note_on', channel=8, note=60, velocity=83, time=0),
    Message('note_on', channel=8, note=55, velocity=83, time=0),
    Message('note_on', channel=8, note=64, velocity=0, time=24),
    Message('note_on', channel=8, note=60, velocity=0, time=0),
    Message('note_on', channel=8, note=55, velocity=0, time=0),
    Message('note_on', channel=8, note=64, velocity=82, time=360),
    Message('note_on', channel=8, note=60, velocity=82, time=0),
    Message('note_on', channel=8, note=55, velocity=82, time=0),
    Message('note_on', channel=8, note=64, velocity=0, time=20),
    Message('note_on', channel=8, note=60, velocity=0, time=0),
    Message('note_on', channel=8, note=55, velocity=0, time=0),
    Message('note_on', channel=8, note=64, velocity=74, time=364),
    Message('note_on', channel=8, note=60, velocity=74, time=0),
    Message('note_on', channel=8, note=55, velocity=74, time=0),
    Message('note_on', channel=8, note=64, velocity=0, time=27),
    Message('note_on', channel=8, note=60, velocity=0, time=0),
    Message('note_on', channel=8, note=55, velocity=0, time=0),
    Message('note_on', channel=8, note=64, velocity=83, time=357),
    Message('note_on', channel=8, note=60, velocity=83, time=0),
    Message('note_on', channel=8, note=55, velocity=83, time=0),
    Message('note_on', channel=8, note=64, velocity=0, time=20),
    Message('note_on', channel=8, note=60, velocity=0, time=0),
    Message('note_on', channel=8, note=55, velocity=0, time=0),
    Message('note_on', channel=8, note=64, velocity=74, time=364),
    Message('note_on', channel=8, note=59, velocity=74, time=0),
    Message('note_on', channel=8, note=55, velocity=74, time=0),
    Message('note_on', channel=8, note=64, velocity=0, time=27),
    Message('note_on', channel=8, note=59, velocity=0, time=0),
    Message('note_on', channel=8, note=55, velocity=0, time=0),
    Message('note_on', channel=8, note=64, velocity=83, time=357),
    Message('note_on', channel=8, note=59, velocity=83, time=0),
    Message('note_on', channel=8, note=55, velocity=83, time=0),
    Message('note_on', channel=8, note=64, velocity=0, time=20),
    Message('note_on', channel=8, note=59, velocity=0, time=0),
    Message('note_on', channel=8, note=55, velocity=0, time=0),
    Message('note_on', channel=8, note=64, velocity=74, time=364),
    Message('note_on', channel=8, note=62, velocity=74, time=0),
    Message('note_on', channel=8, note=58, velocity=74, time=0),
    Message('note_on', channel=8, note=67, velocity=74, time=0),
    Message('note_on', channel=8, note=64, velocity=0, time=27),
    Message('note_on', channel=8, note=62, velocity=0, time=0),
    Message('note_on', channel=8, note=58, velocity=0, time=0),
    Message('note_on', channel=8, note=67, velocity=0, time=0),
    Message('note_on', channel=8, note=64, velocity=83, time=357),
    Message('note_on', channel=8, note=62, velocity=83, time=0),
    Message('note_on', channel=8, note=58, velocity=83, time=0),
    Message('note_on', channel=8, note=67, velocity=83, time=0),
    Message('note_on', channel=8, note=64, velocity=0, time=20),
    Message('note_on', channel=8, note=62, velocity=0, time=0),
    Message('note_on', channel=8, note=58, velocity=0, time=0),
    Message('note_on', channel=8, note=67, velocity=0, time=0),
    Message('note_on', channel=8, note=67, velocity=74, time=364),
    Message('note_on', channel=8, note=64, velocity=74, time=0),
    Message('note_on', channel=8, note=61, velocity=74, time=0),
    Message('note_on', channel=8, note=69, velocity=74, time=0),
    Message('note_on', channel=8, note=67, velocity=0, time=27),
    Message('note_on', channel=8, note=64, velocity=0, time=0),
    Message('note_on', channel=8, note=61, velocity=0, time=0),
    Message('note_on', channel=8, note=69, velocity=0, time=0),
    Message('note_on', channel=8, note=67, velocity=83, time=357),
    Message('note_on', channel=8, note=64, velocity=83, time=0),
    Message('note_on', channel=8, note=61, velocity=83, time=0),
    Message('note_on', channel=8, note=69, velocity=83, time=0),
    Message('note_on', channel=8, note=67, velocity=0, time=20),
    Message('note_on', channel=8, note=64, velocity=0, time=0),
    Message('note_on', channel=8, note=61, velocity=0, time=0),
    Message('note_on', channel=8, note=69, velocity=0, time=0),
    Message('note_on', channel=8, note=65, velocity=74, time=364),
    Message('note_on', channel=8, note=62, velocity=74, time=0),
    Message('note_on', channel=8, note=57, velocity=74, time=0),
    Message('note_on', channel=8, note=65, velocity=0, time=27),
    Message('note_on', channel=8, note=62, velocity=0, time=0),
    Message('note_on', channel=8, note=57, velocity=0, time=0),
    Message('note_on', channel=8, note=65, velocity=83, time=357),
    Message('note_on', channel=8, note=62, velocity=83, time=0),
    Message('note_on', channel=8, note=57, velocity=83, time=0),
    Message('note_on', channel=8, note=65, velocity=0, time=20),
    Message('note_on', channel=8, note=62, velocity=0, time=0),
    Message('note_on', channel=8, note=57, velocity=0, time=0),
    Message('note_on', channel=8, note=65, velocity=74, time=364),
    Message('note_on', channel=8, note=62, velocity=74, time=0),
    Message('note_on', channel=8, note=60, velocity=74, time=0),
    Message('note_on', channel=8, note=69, velocity=74, time=0),
    Message('note_on', channel=8, note=65, velocity=0, time=27),
    Message('note_on', channel=8, note=62, velocity=0, time=0),
    Message('note_on', channel=8, note=60, velocity=0, time=0),
    Message('note_on', channel=8, note=69, velocity=0, time=0),
    Message('note_on', channel=8, note=65, velocity=83, time=357),
    Message('note_on', channel=8, note=62, velocity=83, time=0),
    Message('note_on', channel=8, note=60, velocity=83, time=0),
    Message('note_on', channel=8, note=69, velocity=83, time=0),
    Message('note_on', channel=8, note=65, velocity=0, time=20),
    Message('note_on', channel=8, note=62, velocity=0, time=0),
    Message('note_on', channel=8, note=60, velocity=0, time=0),
    Message('note_on', channel=8, note=69, velocity=0, time=0),
    Message('note_on', channel=8, note=65, velocity=74, time=364),
    Message('note_on', channel=8, note=62, velocity=74, time=0),
    Message('note_on', channel=8, note=59, velocity=74, time=0),
    Message('note_on', channel=8, note=67, velocity=74, time=0),
    Message('note_on', channel=8, note=65, velocity=0, time=27),
    Message('note_on', channel=8, note=62, velocity=0, time=0),
    Message('note_on', channel=8, note=59, velocity=0, time=0),
    Message('note_on', channel=8, note=67, velocity=0, time=0),
    Message('note_on', channel=8, note=65, velocity=83, time=357),
    Message('note_on', channel=8, note=62, velocity=83, time=0),
    Message('note_on', channel=8, note=59, velocity=83, time=0),
    Message('note_on', channel=8, note=67, velocity=83, time=0),
    Message('note_on', channel=8, note=65, velocity=0, time=20),
    Message('note_on', channel=8, note=62, velocity=0, time=0),
    Message('note_on', channel=8, note=59, velocity=0, time=0),
    Message('note_on', channel=8, note=67, velocity=0, time=0),
    Message('note_on', channel=8, note=64, velocity=74, time=364),
    Message('note_on', channel=8, note=60, velocity=74, time=0),
    Message('note_on', channel=8, note=55, velocity=74, time=0),
    Message('note_on', channel=8, note=64, velocity=0, time=27),
    Message('note_on', channel=8, note=60, velocity=0, time=0),
    Message('note_on', channel=8, note=55, velocity=0, time=0),
    Message('note_on', channel=8, note=64, velocity=83, time=357),
    Message('note_on', channel=8, note=60, velocity=83, time=0),
    Message('note_on', channel=8, note=55, velocity=83, time=0),
    Message('note_on', channel=8, note=64, velocity=0, time=20),
    Message('note_on', channel=8, note=60, velocity=0, time=0),
    Message('note_on', channel=8, note=55, velocity=0, time=0),
    Message('note_on', channel=8, note=64, velocity=74, time=364),
    Message('note_on', channel=8, note=60, velocity=74, time=0),
    Message('note_on', channel=8, note=55, velocity=74, time=0),
    Message('note_on', channel=8, note=64, velocity=0, time=27),
    Message('note_on', channel=8, note=60, velocity=0, time=0),
    Message('note_on', channel=8, note=55, velocity=0, time=0),
    Message('note_on', channel=8, note=64, velocity=74, time=357),
    Message('note_on', channel=8, note=62, velocity=74, time=0),
    Message('note_on', channel=8, note=59, velocity=74, time=0),
    Message('note_on', channel=8, note=67, velocity=74, time=0),
    Message('note_on', channel=8, note=64, velocity=0, time=27),
    Message('note_on', channel=8, note=62, velocity=0, time=0),
    Message('note_on', channel=8, note=59, velocity=0, time=0),
    Message('note_on', channel=8, note=67, velocity=0, time=0),
    Message('note_on', channel=8, note=64, velocity=74, time=357),
    Message('note_on', channel=8, note=60, velocity=74, time=0),
    Message('note_on', channel=8, note=58, velocity=74, time=0),
    Message('note_on', channel=8, note=67, velocity=74, time=0),
    Message('note_on', channel=8, note=64, velocity=0, time=27),
    Message('note_on', channel=8, note=60, velocity=0, time=0),
    Message('note_on', channel=8, note=58, velocity=0, time=0),
    Message('note_on', channel=8, note=67, velocity=0, time=0),
    Message('note_on', channel=8, note=64, velocity=83, time=357),
    Message('note_on', channel=8, note=60, velocity=83, time=0),
    Message('note_on', channel=8, note=58, velocity=83, time=0),
    Message('note_on', channel=8, note=67, velocity=83, time=0),
    Message('note_on', channel=8, note=64, velocity=0, time=20),
    Message('note_on', channel=8, note=60, velocity=0, time=0),
    Message('note_on', channel=8, note=58, velocity=0, time=0),
    Message('note_on', channel=8, note=67, velocity=0, time=0),
    Message('note_on', channel=8, note=65, velocity=74, time=364),
    Message('note_on', channel=8, note=60, velocity=74, time=0),
    Message('note_on', channel=8, note=57, velocity=74, time=0),
    Message('note_on', channel=8, note=65, velocity=0, time=27),
    Message('note_on', channel=8, note=60, velocity=0, time=0),
    Message('note_on', channel=8, note=57, velocity=0, time=0),
    Message('note_on', channel=8, note=65, velocity=83, time=357),
    Message('note_on', channel=8, note=60, velocity=83, time=0),
    Message('note_on', channel=8, note=57, velocity=83, time=0),
    Message('note_on', channel=8, note=65, velocity=0, time=20),
    Message('note_on', channel=8, note=60, velocity=0, time=0),
    Message('note_on', channel=8, note=57, velocity=0, time=0),
    Message('note_on', channel=8, note=65, velocity=74, time=364),
    Message('note_on', channel=8, note=60, velocity=74, time=0),
    Message('note_on', channel=8, note=56, velocity=74, time=0),
    Message('note_on', channel=8, note=65, velocity=0, time=27),
    Message('note_on', channel=8, note=60, velocity=0, time=0),
    Message('note_on', channel=8, note=56, velocity=0, time=0),
    Message('note_on', channel=8, note=65, velocity=83, time=357),
    Message('note_on', channel=8, note=60, velocity=83, time=0),
    Message('note_on', channel=8, note=56, velocity=83, time=0),
    Message('note_on', channel=8, note=65, velocity=0, time=20),
    Message('note_on', channel=8, note=60, velocity=0, time=0),
    Message('note_on', channel=8, note=56, velocity=0, time=0),
    Message('note_on', channel=8, note=64, velocity=74, time=364),
    Message('note_on', channel=8, note=60, velocity=74, time=0),
    Message('note_on', channel=8, note=55, velocity=74, time=0),
    Message('note_on', channel=8, note=64, velocity=0, time=27),
    Message('note_on', channel=8, note=60, velocity=0, time=0),
    Message('note_on', channel=8, note=55, velocity=0, time=0),
    Message('note_on', channel=8, note=64, velocity=83, time=357),
    Message('note_on', channel=8, note=60, velocity=83, time=0),
    Message('note_on', channel=8, note=55, velocity=83, time=0),
    Message('note_on', channel=8, note=64, velocity=0, time=20),
    Message('note_on', channel=8, note=60, velocity=0, time=0),
    Message('note_on', channel=8, note=55, velocity=0, time=0),
    Message('note_on', channel=8, note=65, velocity=74, time=364),
    Message('note_on', channel=8, note=62, velocity=74, time=0),
    Message('note_on', channel=8, note=59, velocity=74, time=0),
    Message('note_on', channel=8, note=67, velocity=74, time=0),
    Message('note_on', channel=8, note=65, velocity=0, time=27),
    Message('note_on', channel=8, note=62, velocity=0, time=0),
    Message('note_on', channel=8, note=59, velocity=0, time=0),
    Message('note_on', channel=8, note=67, velocity=0, time=0),
    Message('note_on', channel=8, note=65, velocity=83, time=357),
    Message('note_on', channel=8, note=62, velocity=83, time=0),
    Message('note_on', channel=8, note=59, velocity=83, time=0),
    Message('note_on', channel=8, note=67, velocity=83, time=0),
    Message('note_on', channel=8, note=65, velocity=0, time=20),
    Message('note_on', channel=8, note=62, velocity=0, time=0),
    Message('note_on', channel=8, note=59, velocity=0, time=0),
    Message('note_on', channel=8, note=67, velocity=0, time=0),
    Message('note_on', channel=8, note=65, velocity=74, time=364),
    Message('note_on', channel=8, note=62, velocity=74, time=0),
    Message('note_on', channel=8, note=60, velocity=74, time=0),
    Message('note_on', channel=8, note=69, velocity=74, time=0),
    Message('note_on', channel=8, note=65, velocity=0, time=27),
    Message('note_on', channel=8, note=62, velocity=0, time=0),
    Message('note_on', channel=8, note=60, velocity=0, time=0),
    Message('note_on', channel=8, note=69, velocity=0, time=0),
    Message('note_on', channel=8, note=65, velocity=83, time=357),
    Message('note_on', channel=8, note=62, velocity=83, time=0),
    Message('note_on', channel=8, note=60, velocity=83, time=0),
    Message('note_on', channel=8, note=69, velocity=83, time=0),
    Message('note_on', channel=8, note=65, velocity=0, time=20),
    Message('note_on', channel=8, note=62, velocity=0, time=0),
    Message('note_on', channel=8, note=60, velocity=0, time=0),
    Message('note_on', channel=8, note=69, velocity=0, time=0),
    Message('note_on', channel=8, note=64, velocity=74, time=364),
    Message('note_on', channel=8, note=60, velocity=74, time=0),
    Message('note_on', channel=8, note=55, velocity=74, time=0),
    Message('note_on', channel=8, note=64, velocity=0, time=27),
    Message('note_on', channel=8, note=60, velocity=0, time=0),
    Message('note_on', channel=8, note=55, velocity=0, time=0),
    Message('note_on', channel=8, note=64, velocity=83, time=357),
    Message('note_on', channel=8, note=60, velocity=83, time=0),
    Message('note_on', channel=8, note=55, velocity=83, time=0),
    Message('note_on', channel=8, note=64, velocity=0, time=20),
    Message('note_on', channel=8, note=60, velocity=0, time=0),
    Message('note_on', channel=8, note=55, velocity=0, time=0),
    Message('note_on', channel=8, note=64, velocity=74, time=364),
    Message('note_on', channel=8, note=60, velocity=74, time=0),
    Message('note_on', channel=8, note=55, velocity=74, time=0),
    Message('note_on', channel=8, note=64, velocity=0, time=27),
    Message('note_on', channel=8, note=60, velocity=0, time=0),
    Message('note_on', channel=8, note=55, velocity=0, time=0),
    Message('note_on', channel=8, note=64, velocity=83, time=357),
    Message('note_on', channel=8, note=60, velocity=83, time=0),
    Message('note_on', channel=8, note=55, velocity=83, time=0),
    Message('note_on', channel=8, note=64, velocity=0, time=20),
    Message('note_on', channel=8, note=60, velocity=0, time=0),
    Message('note_on', channel=8, note=55, velocity=0, time=0),
    Message('note_on', channel=8, note=64, velocity=74, time=364),
    Message('note_on', channel=8, note=59, velocity=74, time=0),
    Message('note_on', channel=8, note=55, velocity=74, time=0),
    Message('note_on', channel=8, note=64, velocity=0, time=27),
    Message('note_on', channel=8, note=59, velocity=0, time=0),
    Message('note_on', channel=8, note=55, velocity=0, time=0),
    Message('note_on', channel=8, note=64, velocity=83, time=357),
    Message('note_on', channel=8, note=59, velocity=83, time=0),
    Message('note_on', channel=8, note=55, velocity=83, time=0),
    Message('note_on', channel=8, note=64, velocity=0, time=20),
    Message('note_on', channel=8, note=59, velocity=0, time=0),
    Message('note_on', channel=8, note=55, velocity=0, time=0),
    Message('note_on', channel=8, note=64, velocity=74, time=364),
    Message('note_on', channel=8, note=62, velocity=74, time=0),
    Message('note_on', channel=8, note=58, velocity=74, time=0),
    Message('note_on', channel=8, note=67, velocity=74, time=0),
    Message('note_on', channel=8, note=64, velocity=0, time=27),
    Message('note_on', channel=8, note=62, velocity=0, time=0),
    Message('note_on', channel=8, note=58, velocity=0, time=0),
    Message('note_on', channel=8, note=67, velocity=0, time=0),
    Message('note_on', channel=8, note=64, velocity=83, time=357),
    Message('note_on', channel=8, note=62, velocity=83, time=0),
    Message('note_on', channel=8, note=58, velocity=83, time=0),
    Message('note_on', channel=8, note=67, velocity=83, time=0),
    Message('note_on', channel=8, note=64, velocity=0, time=20),
    Message('note_on', channel=8, note=62, velocity=0, time=0),
    Message('note_on', channel=8, note=58, velocity=0, time=0),
    Message('note_on', channel=8, note=67, velocity=0, time=0),
    Message('note_on', channel=8, note=67, velocity=74, time=364),
    Message('note_on', channel=8, note=64, velocity=74, time=0),
    Message('note_on', channel=8, note=61, velocity=74, time=0),
    Message('note_on', channel=8, note=69, velocity=74, time=0),
    Message('note_on', channel=8, note=67, velocity=0, time=27),
    Message('note_on', channel=8, note=64, velocity=0, time=0),
    Message('note_on', channel=8, note=61, velocity=0, time=0),
    Message('note_on', channel=8, note=69, velocity=0, time=0),
    Message('note_on', channel=8, note=67, velocity=83, time=357),
    Message('note_on', channel=8, note=64, velocity=83, time=0),
    Message('note_on', channel=8, note=61, velocity=83, time=0),
    Message('note_on', channel=8, note=69, velocity=83, time=0),
    Message('note_on', channel=8, note=67, velocity=0, time=20),
    Message('note_on', channel=8, note=64, velocity=0, time=0),
    Message('note_on', channel=8, note=61, velocity=0, time=0),
    Message('note_on', channel=8, note=69, velocity=0, time=0),
    Message('note_on', channel=8, note=65, velocity=74, time=364),
    Message('note_on', channel=8, note=62, velocity=74, time=0),
    Message('note_on', channel=8, note=57, velocity=74, time=0),
    Message('note_on', channel=8, note=65, velocity=0, time=27),
    Message('note_on', channel=8, note=62, velocity=0, time=0),
    Message('note_on', channel=8, note=57, velocity=0, time=0),
    Message('note_on', channel=8, note=65, velocity=83, time=357),
    Message('note_on', channel=8, note=62, velocity=83, time=0),
    Message('note_on', channel=8, note=57, velocity=83, time=0),
    Message('note_on', channel=8, note=65, velocity=0, time=20),
    Message('note_on', channel=8, note=62, velocity=0, time=0),
    Message('note_on', channel=8, note=57, velocity=0, time=0),
    Message('note_on', channel=8, note=65, velocity=74, time=364),
    Message('note_on', channel=8, note=62, velocity=74, time=0),
    Message('note_on', channel=8, note=60, velocity=74, time=0),
    Message('note_on', channel=8, note=69, velocity=74, time=0),
    Message('note_on', channel=8, note=65, velocity=0, time=27),
    Message('note_on', channel=8, note=62, velocity=0, time=0),
    Message('note_on', channel=8, note=60, velocity=0, time=0),
    Message('note_on', channel=8, note=69, velocity=0, time=0),
    Message('note_on', channel=8, note=65, velocity=83, time=357),
    Message('note_on', channel=8, note=62, velocity=83, time=0),
    Message('note_on', channel=8, note=60, velocity=83, time=0),
    Message('note_on', channel=8, note=69, velocity=83, time=0),
    Message('note_on', channel=8, note=65, velocity=0, time=20),
    Message('note_on', channel=8, note=62, velocity=0, time=0),
    Message('note_on', channel=8, note=60, velocity=0, time=0),
    Message('note_on', channel=8, note=69, velocity=0, time=0),
    Message('note_on', channel=8, note=65, velocity=74, time=364),
    Message('note_on', channel=8, note=62, velocity=74, time=0),
    Message('note_on', channel=8, note=59, velocity=74, time=0),
    Message('note_on', channel=8, note=67, velocity=74, time=0),
    Message('note_on', channel=8, note=65, velocity=0, time=27),
    Message('note_on', channel=8, note=62, velocity=0, time=0),
    Message('note_on', channel=8, note=59, velocity=0, time=0),
    Message('note_on', channel=8, note=67, velocity=0, time=0),
    Message('note_on', channel=8, note=65, velocity=83, time=357),
    Message('note_on', channel=8, note=62, velocity=83, time=0),
    Message('note_on', channel=8, note=59, velocity=83, time=0),
    Message('note_on', channel=8, note=67, velocity=83, time=0),
    Message('note_on', channel=8, note=65, velocity=0, time=20),
    Message('note_on', channel=8, note=62, velocity=0, time=0),
    Message('note_on', channel=8, note=59, velocity=0, time=0),
    Message('note_on', channel=8, note=67, velocity=0, time=0),
    Message('note_on', channel=8, note=64, velocity=74, time=364),
    Message('note_on', channel=8, note=60, velocity=74, time=0),
    Message('note_on', channel=8, note=55, velocity=74, time=0),
    Message('note_on', channel=8, note=64, velocity=0, time=27),
    Message('note_on', channel=8, note=60, velocity=0, time=0),
    Message('note_on', channel=8, note=55, velocity=0, time=0),
    Message('note_on', channel=8, note=64, velocity=83, time=357),
    Message('note_on', channel=8, note=60, velocity=83, time=0),
    Message('note_on', channel=8, note=55, velocity=83, time=0),
    Message('note_on', channel=8, note=64, velocity=0, time=20),
    Message('note_on', channel=8, note=60, velocity=0, time=0),
    Message('note_on', channel=8, note=55, velocity=0, time=0),
    Message('note_on', channel=8, note=64, velocity=74, time=364),
    Message('note_on', channel=8, note=60, velocity=74, time=0),
    Message('note_on', channel=8, note=55, velocity=74, time=0),
    Message('note_on', channel=8, note=64, velocity=0, time=27),
    Message('note_on', channel=8, note=60, velocity=0, time=0),
    Message('note_on', channel=8, note=55, velocity=0, time=0),
    Message('note_on', channel=8, note=64, velocity=74, time=357),
    Message('note_on', channel=8, note=62, velocity=74, time=0),
    Message('note_on', channel=8, note=59, velocity=74, time=0),
    Message('note_on', channel=8, note=67, velocity=74, time=0),
    Message('note_on', channel=8, note=64, velocity=0, time=27),
    Message('note_on', channel=8, note=62, velocity=0, time=0),
    Message('note_on', channel=8, note=59, velocity=0, time=0),
    Message('note_on', channel=8, note=67, velocity=0, time=0),
    Message('note_on', channel=8, note=64, velocity=74, time=357),
    Message('note_on', channel=8, note=60, velocity=74, time=0),
    Message('note_on', channel=8, note=58, velocity=74, time=0),
    Message('note_on', channel=8, note=67, velocity=74, time=0),
    Message('note_on', channel=8, note=64, velocity=0, time=27),
    Message('note_on', channel=8, note=60, velocity=0, time=0),
    Message('note_on', channel=8, note=58, velocity=0, time=0),
    Message('note_on', channel=8, note=67, velocity=0, time=0),
    Message('note_on', channel=8, note=64, velocity=83, time=357),
    Message('note_on', channel=8, note=60, velocity=83, time=0),
    Message('note_on', channel=8, note=58, velocity=83, time=0),
    Message('note_on', channel=8, note=67, velocity=83, time=0),
    Message('note_on', channel=8, note=64, velocity=0, time=20),
    Message('note_on', channel=8, note=60, velocity=0, time=0),
    Message('note_on', channel=8, note=58, velocity=0, time=0),
    Message('note_on', channel=8, note=67, velocity=0, time=0),
    Message('note_on', channel=8, note=65, velocity=74, time=364),
    Message('note_on', channel=8, note=60, velocity=74, time=0),
    Message('note_on', channel=8, note=57, velocity=74, time=0),
    Message('note_on', channel=8, note=65, velocity=0, time=27),
    Message('note_on', channel=8, note=60, velocity=0, time=0),
    Message('note_on', channel=8, note=57, velocity=0, time=0),
    Message('note_on', channel=8, note=65, velocity=83, time=357),
    Message('note_on', channel=8, note=60, velocity=83, time=0),
    Message('note_on', channel=8, note=57, velocity=83, time=0),
    Message('note_on', channel=8, note=65, velocity=0, time=20),
    Message('note_on', channel=8, note=60, velocity=0, time=0),
    Message('note_on', channel=8, note=57, velocity=0, time=0),
    Message('note_on', channel=8, note=65, velocity=74, time=364),
    Message('note_on', channel=8, note=60, velocity=74, time=0),
    Message('note_on', channel=8, note=56, velocity=74, time=0),
    Message('note_on', channel=8, note=65, velocity=0, time=27),
    Message('note_on', channel=8, note=60, velocity=0, time=0),
    Message('note_on', channel=8, note=56, velocity=0, time=0),
    Message('note_on', channel=8, note=65, velocity=83, time=357),
    Message('note_on', channel=8, note=60, velocity=83, time=0),
    Message('note_on', channel=8, note=56, velocity=83, time=0),
    Message('note_on', channel=8, note=65, velocity=0, time=20),
    Message('note_on', channel=8, note=60, velocity=0, time=0),
    Message('note_on', channel=8, note=56, velocity=0, time=0),
    Message('note_on', channel=8, note=64, velocity=74, time=364),
    Message('note_on', channel=8, note=60, velocity=74, time=0),
    Message('note_on', channel=8, note=55, velocity=74, time=0),
    Message('note_on', channel=8, note=64, velocity=0, time=27),
    Message('note_on', channel=8, note=60, velocity=0, time=0),
    Message('note_on', channel=8, note=55, velocity=0, time=0),
    Message('note_on', channel=8, note=64, velocity=83, time=357),
    Message('note_on', channel=8, note=60, velocity=83, time=0),
    Message('note_on', channel=8, note=55, velocity=83, time=0),
    Message('note_on', channel=8, note=64, velocity=0, time=20),
    Message('note_on', channel=8, note=60, velocity=0, time=0),
    Message('note_on', channel=8, note=55, velocity=0, time=0),
    Message('note_on', channel=8, note=65, velocity=74, time=364),
    Message('note_on', channel=8, note=62, velocity=74, time=0),
    Message('note_on', channel=8, note=59, velocity=74, time=0),
    Message('note_on', channel=8, note=67, velocity=74, time=0),
    Message('note_on', channel=8, note=65, velocity=0, time=27),
    Message('note_on', channel=8, note=62, velocity=0, time=0),
    Message('note_on', channel=8, note=59, velocity=0, time=0),
    Message('note_on', channel=8, note=67, velocity=0, time=0),
    Message('note_on', channel=8, note=65, velocity=83, time=357),
    Message('note_on', channel=8, note=62, velocity=83, time=0),
    Message('note_on', channel=8, note=59, velocity=83, time=0),
    Message('note_on', channel=8, note=67, velocity=83, time=0),
    Message('note_on', channel=8, note=65, velocity=0, time=20),
    Message('note_on', channel=8, note=62, velocity=0, time=0),
    Message('note_on', channel=8, note=59, velocity=0, time=0),
    Message('note_on', channel=8, note=67, velocity=0, time=0),
    Message('note_on', channel=8, note=65, velocity=74, time=364),
    Message('note_on', channel=8, note=62, velocity=74, time=0),
    Message('note_on', channel=8, note=60, velocity=74, time=0),
    Message('note_on', channel=8, note=69, velocity=74, time=0),
    Message('note_on', channel=8, note=65, velocity=0, time=27),
    Message('note_on', channel=8, note=62, velocity=0, time=0),
    Message('note_on', channel=8, note=60, velocity=0, time=0),
    Message('note_on', channel=8, note=69, velocity=0, time=0),
    Message('note_on', channel=8, note=65, velocity=83, time=357),
    Message('note_on', channel=8, note=62, velocity=83, time=0),
    Message('note_on', channel=8, note=60, velocity=83, time=0),
    Message('note_on', channel=8, note=69, velocity=83, time=0),
    Message('note_on', channel=8, note=65, velocity=0, time=20),
    Message('note_on', channel=8, note=62, velocity=0, time=0),
    Message('note_on', channel=8, note=60, velocity=0, time=0),
    Message('note_on', channel=8, note=69, velocity=0, time=0),
    Message('note_on', channel=8, note=64, velocity=74, time=364),
    Message('note_on', channel=8, note=60, velocity=74, time=0),
    Message('note_on', channel=8, note=55, velocity=74, time=0),
    Message('note_on', channel=8, note=64, velocity=0, time=27),
    Message('note_on', channel=8, note=60, velocity=0, time=0),
    Message('note_on', channel=8, note=55, velocity=0, time=0),
    Message('note_on', channel=8, note=64, velocity=83, time=357),
    Message('note_on', channel=8, note=60, velocity=83, time=0),
    Message('note_on', channel=8, note=55, velocity=83, time=0),
    Message('note_on', channel=8, note=64, velocity=0, time=20),
    Message('note_on', channel=8, note=60, velocity=0, time=0),
    Message('note_on', channel=8, note=55, velocity=0, time=0),
    Message('note_on', channel=8, note=64, velocity=74, time=364),
    Message('note_on', channel=8, note=60, velocity=74, time=0),
    Message('note_on', channel=8, note=55, velocity=74, time=0),
    Message('note_on', channel=8, note=64, velocity=0, time=27),
    Message('note_on', channel=8, note=60, velocity=0, time=0),
    Message('note_on', channel=8, note=55, velocity=0, time=0),
    Message('note_on', channel=8, note=64, velocity=83, time=357),
    Message('note_on', channel=8, note=60, velocity=83, time=0),
    Message('note_on', channel=8, note=55, velocity=83, time=0),
    Message('note_on', channel=8, note=64, velocity=0, time=20),
    Message('note_on', channel=8, note=60, velocity=0, time=0),
    Message('note_on', channel=8, note=55, velocity=0, time=0),
    Message('note_on', channel=8, note=64, velocity=74, time=364),
    Message('note_on', channel=8, note=60, velocity=74, time=0),
    Message('note_on', channel=8, note=58, velocity=74, time=0),
    Message('note_on', channel=8, note=67, velocity=74, time=0),
    Message('note_on', channel=8, note=64, velocity=0, time=27),
    Message('note_on', channel=8, note=60, velocity=0, time=0),
    Message('note_on', channel=8, note=58, velocity=0, time=0),
    Message('note_on', channel=8, note=67, velocity=0, time=0),
    Message('note_on', channel=8, note=64, velocity=83, time=357),
    Message('note_on', channel=8, note=60, velocity=83, time=0),
    Message('note_on', channel=8, note=58, velocity=83, time=0),
    Message('note_on', channel=8, note=67, velocity=83, time=0),
    Message('note_on', channel=8, note=64, velocity=0, time=20),
    Message('note_on', channel=8, note=60, velocity=0, time=0),
    Message('note_on', channel=8, note=58, velocity=0, time=0),
    Message('note_on', channel=8, note=67, velocity=0, time=0),
    Message('note_on', channel=8, note=65, velocity=74, time=364),
    Message('note_on', channel=8, note=60, velocity=74, time=0),
    Message('note_on', channel=8, note=57, velocity=74, time=0),
    Message('note_on', channel=8, note=65, velocity=0, time=27),
    Message('note_on', channel=8, note=60, velocity=0, time=0),
    Message('note_on', channel=8, note=57, velocity=0, time=0),
    Message('note_on', channel=8, note=65, velocity=83, time=357),
    Message('note_on', channel=8, note=60, velocity=83, time=0),
    Message('note_on', channel=8, note=57, velocity=83, time=0),
    Message('note_on', channel=8, note=65, velocity=0, time=20),
    Message('note_on', channel=8, note=60, velocity=0, time=0),
    Message('note_on', channel=8, note=57, velocity=0, time=0),
    Message('note_on', channel=8, note=65, velocity=83, time=364),
    Message('note_on', channel=8, note=60, velocity=83, time=0),
    Message('note_on', channel=8, note=57, velocity=83, time=0),
    Message('note_on', channel=8, note=65, velocity=0, time=24),
    Message('note_on', channel=8, note=60, velocity=0, time=0),
    Message('note_on', channel=8, note=57, velocity=0, time=0),
    Message('note_on', channel=8, note=65, velocity=82, time=360),
    Message('note_on', channel=8, note=60, velocity=82, time=0),
    Message('note_on', channel=8, note=57, velocity=82, time=0),
    Message('note_on', channel=8, note=65, velocity=0, time=20),
    Message('note_on', channel=8, note=60, velocity=0, time=0),
    Message('note_on', channel=8, note=57, velocity=0, time=0),
    Message('note_on', channel=8, note=65, velocity=74, time=364),
    Message('note_on', channel=8, note=62, velocity=74, time=0),
    Message('note_on', channel=8, note=60, velocity=74, time=0),
    Message('note_on', channel=8, note=69, velocity=74, time=0),
    Message('note_on', channel=8, note=65, velocity=0, time=27),
    Message('note_on', channel=8, note=62, velocity=0, time=0),
    Message('note_on', channel=8, note=60, velocity=0, time=0),
    Message('note_on', channel=8, note=69, velocity=0, time=0),
    Message('note_on', channel=8, note=65, velocity=83, time=357),
    Message('note_on', channel=8, note=62, velocity=83, time=0),
    Message('note_on', channel=8, note=60, velocity=83, time=0),
    Message('note_on', channel=8, note=69, velocity=83, time=0),
    Message('note_on', channel=8, note=65, velocity=0, time=20),
    Message('note_on', channel=8, note=62, velocity=0, time=0),
    Message('note_on', channel=8, note=60, velocity=0, time=0),
    Message('note_on', channel=8, note=69, velocity=0, time=0),
    Message('note_on', channel=8, note=65, velocity=74, time=364),
    Message('note_on', channel=8, note=62, velocity=74, time=0),
    Message('note_on', channel=8, note=59, velocity=74, time=0),
    Message('note_on', channel=8, note=67, velocity=74, time=0),
    Message('note_on', channel=8, note=65, velocity=0, time=27),
    Message('note_on', channel=8, note=62, velocity=0, time=0),
    Message('note_on', channel=8, note=59, velocity=0, time=0),
    Message('note_on', channel=8, note=67, velocity=0, time=0),
    Message('note_on', channel=8, note=65, velocity=83, time=357),
    Message('note_on', channel=8, note=62, velocity=83, time=0),
    Message('note_on', channel=8, note=59, velocity=83, time=0),
    Message('note_on', channel=8, note=67, velocity=83, time=0),
    Message('note_on', channel=8, note=65, velocity=0, time=20),
    Message('note_on', channel=8, note=62, velocity=0, time=0),
    Message('note_on', channel=8, note=59, velocity=0, time=0),
    Message('note_on', channel=8, note=67, velocity=0, time=0),
    Message('note_on', channel=8, note=64, velocity=74, time=364),
    Message('note_on', channel=8, note=62, velocity=74, time=0),
    Message('note_on', channel=8, note=59, velocity=74, time=0),
    Message('note_on', channel=8, note=67, velocity=74, time=0),
    Message('note_on', channel=8, note=64, velocity=0, time=27),
    Message('note_on', channel=8, note=62, velocity=0, time=0),
    Message('note_on', channel=8, note=59, velocity=0, time=0),
    Message('note_on', channel=8, note=67, velocity=0, time=0),
    Message('note_on', channel=8, note=64, velocity=83, time=357),
    Message('note_on', channel=8, note=62, velocity=83, time=0),
    Message('note_on', channel=8, note=59, velocity=83, time=0),
    Message('note_on', channel=8, note=67, velocity=83, time=0),
    Message('note_on', channel=8, note=64, velocity=0, time=20),
    Message('note_on', channel=8, note=62, velocity=0, time=0),
    Message('note_on', channel=8, note=59, velocity=0, time=0),
    Message('note_on', channel=8, note=67, velocity=0, time=0),
    Message('note_on', channel=8, note=64, velocity=74, time=364),
    Message('note_on', channel=8, note=60, velocity=74, time=0),
    Message('note_on', channel=8, note=57, velocity=74, time=0),
    Message('note_on', channel=8, note=64, velocity=0, time=27),
    Message('note_on', channel=8, note=60, velocity=0, time=0),
    Message('note_on', channel=8, note=57, velocity=0, time=0),
    Message('note_on', channel=8, note=64, velocity=83, time=357),
    Message('note_on', channel=8, note=60, velocity=83, time=0),
    Message('note_on', channel=8, note=57, velocity=83, time=0),
    Message('note_on', channel=8, note=64, velocity=0, time=20),
    Message('note_on', channel=8, note=60, velocity=0, time=0),
    Message('note_on', channel=8, note=57, velocity=0, time=0),
    Message('note_on', channel=8, note=65, velocity=74, time=364),
    Message('note_on', channel=8, note=62, velocity=74, time=0),
    Message('note_on', channel=8, note=60, velocity=74, time=0),
    Message('note_on', channel=8, note=69, velocity=74, time=0),
    Message('note_on', channel=8, note=65, velocity=0, time=27),
    Message('note_on', channel=8, note=62, velocity=0, time=0),
    Message('note_on', channel=8, note=60, velocity=0, time=0),
    Message('note_on', channel=8, note=69, velocity=0, time=0),
    Message('note_on', channel=8, note=65, velocity=83, time=357),
    Message('note_on', channel=8, note=62, velocity=83, time=0),
    Message('note_on', channel=8, note=60, velocity=83, time=0),
    Message('note_on', channel=8, note=69, velocity=83, time=0),
    Message('note_on', channel=8, note=65, velocity=0, time=20),
    Message('note_on', channel=8, note=62, velocity=0, time=0),
    Message('note_on', channel=8, note=60, velocity=0, time=0),
    Message('note_on', channel=8, note=69, velocity=0, time=0),
    Message('note_on', channel=8, note=65, velocity=74, time=364),
    Message('note_on', channel=8, note=62, velocity=74, time=0),
    Message('note_on', channel=8, note=59, velocity=74, time=0),
    Message('note_on', channel=8, note=67, velocity=74, time=0),
    Message('note_on', channel=8, note=65, velocity=0, time=27),
    Message('note_on', channel=8, note=62, velocity=0, time=0),
    Message('note_on', channel=8, note=59, velocity=0, time=0),
    Message('note_on', channel=8, note=67, velocity=0, time=0),
    Message('note_on', channel=8, note=65, velocity=83, time=357),
    Message('note_on', channel=8, note=62, velocity=83, time=0),
    Message('note_on', channel=8, note=59, velocity=83, time=0),
    Message('note_on', channel=8, note=67, velocity=83, time=0),
    Message('note_on', channel=8, note=65, velocity=0, time=20),
    Message('note_on', channel=8, note=62, velocity=0, time=0),
    Message('note_on', channel=8, note=59, velocity=0, time=0),
    Message('note_on', channel=8, note=67, velocity=0, time=0),
    Message('note_on', channel=8, note=65, velocity=74, time=364),
    Message('note_on', channel=8, note=62, velocity=74, time=0),
    Message('note_on', channel=8, note=60, velocity=74, time=0),
    Message('note_on', channel=8, note=69, velocity=74, time=0),
    Message('note_on', channel=8, note=65, velocity=0, time=27),
    Message('note_on', channel=8, note=62, velocity=0, time=0),
    Message('note_on', channel=8, note=60, velocity=0, time=0),
    Message('note_on', channel=8, note=69, velocity=0, time=0),
    Message('note_on', channel=8, note=65, velocity=83, time=357),
    Message('note_on', channel=8, note=62, velocity=83, time=0),
    Message('note_on', channel=8, note=60, velocity=83, time=0),
    Message('note_on', channel=8, note=69, velocity=83, time=0),
    Message('note_on', channel=8, note=65, velocity=0, time=20),
    Message('note_on', channel=8, note=62, velocity=0, time=0),
    Message('note_on', channel=8, note=60, velocity=0, time=0),
    Message('note_on', channel=8, note=69, velocity=0, time=0),
    Message('note_on', channel=8, note=64, velocity=74, time=364),
    Message('note_on', channel=8, note=60, velocity=74, time=0),
    Message('note_on', channel=8, note=55, velocity=74, time=0),
    Message('note_on', channel=8, note=64, velocity=0, time=27),
    Message('note_on', channel=8, note=60, velocity=0, time=0),
    Message('note_on', channel=8, note=55, velocity=0, time=0),
    Message('note_on', channel=8, note=64, velocity=83, time=357),
    Message('note_on', channel=8, note=60, velocity=83, time=0),
    Message('note_on', channel=8, note=55, velocity=83, time=0),
    Message('note_on', channel=8, note=64, velocity=0, time=20),
    Message('note_on', channel=8, note=60, velocity=0, time=0),
    Message('note_on', channel=8, note=55, velocity=0, time=0),
    Message('note_on', channel=8, note=64, velocity=74, time=364),
    Message('note_on', channel=8, note=60, velocity=74, time=0),
    Message('note_on', channel=8, note=55, velocity=74, time=0),
    Message('note_on', channel=8, note=64, velocity=0, time=27),
    Message('note_on', channel=8, note=60, velocity=0, time=0),
    Message('note_on', channel=8, note=55, velocity=0, time=0),
    Message('note_on', channel=8, note=64, velocity=83, time=357),
    Message('note_on', channel=8, note=60, velocity=83, time=0),
    Message('note_on', channel=8, note=55, velocity=83, time=0),
    Message('note_on', channel=8, note=64, velocity=0, time=20),
    Message('note_on', channel=8, note=60, velocity=0, time=0),
    Message('note_on', channel=8, note=55, velocity=0, time=0),
    Message('note_on', channel=8, note=64, velocity=74, time=364),
    Message('note_on', channel=8, note=59, velocity=74, time=0),
    Message('note_on', channel=8, note=55, velocity=74, time=0),
    Message('note_on', channel=8, note=64, velocity=0, time=27),
    Message('note_on', channel=8, note=59, velocity=0, time=0),
    Message('note_on', channel=8, note=55, velocity=0, time=0),
    Message('note_on', channel=8, note=64, velocity=83, time=357),
    Message('note_on', channel=8, note=59, velocity=83, time=0),
    Message('note_on', channel=8, note=55, velocity=83, time=0),
    Message('note_on', channel=8, note=64, velocity=0, time=20),
    Message('note_on', channel=8, note=59, velocity=0, time=0),
    Message('note_on', channel=8, note=55, velocity=0, time=0),
    Message('note_on', channel=8, note=64, velocity=74, time=364),
    Message('note_on', channel=8, note=62, velocity=74, time=0),
    Message('note_on', channel=8, note=58, velocity=74, time=0),
    Message('note_on', channel=8, note=67, velocity=74, time=0),
    Message('note_on', channel=8, note=64, velocity=0, time=27),
    Message('note_on', channel=8, note=62, velocity=0, time=0),
    Message('note_on', channel=8, note=58, velocity=0, time=0),
    Message('note_on', channel=8, note=67, velocity=0, time=0),
    Message('note_on', channel=8, note=64, velocity=83, time=357),
    Message('note_on', channel=8, note=62, velocity=83, time=0),
    Message('note_on', channel=8, note=58, velocity=83, time=0),
    Message('note_on', channel=8, note=67, velocity=83, time=0),
    Message('note_on', channel=8, note=64, velocity=0, time=20),
    Message('note_on', channel=8, note=62, velocity=0, time=0),
    Message('note_on', channel=8, note=58, velocity=0, time=0),
    Message('note_on', channel=8, note=67, velocity=0, time=0),
    Message('note_on', channel=8, note=67, velocity=74, time=364),
    Message('note_on', channel=8, note=64, velocity=74, time=0),
    Message('note_on', channel=8, note=61, velocity=74, time=0),
    Message('note_on', channel=8, note=69, velocity=74, time=0),
    Message('note_on', channel=8, note=67, velocity=0, time=27),
    Message('note_on', channel=8, note=64, velocity=0, time=0),
    Message('note_on', channel=8, note=61, velocity=0, time=0),
    Message('note_on', channel=8, note=69, velocity=0, time=0),
    Message('note_on', channel=8, note=67, velocity=83, time=357),
    Message('note_on', channel=8, note=64, velocity=83, time=0),
    Message('note_on', channel=8, note=61, velocity=83, time=0),
    Message('note_on', channel=8, note=69, velocity=83, time=0),
    Message('note_on', channel=8, note=67, velocity=0, time=20),
    Message('note_on', channel=8, note=64, velocity=0, time=0),
    Message('note_on', channel=8, note=61, velocity=0, time=0),
    Message('note_on', channel=8, note=69, velocity=0, time=0),
    Message('note_on', channel=8, note=65, velocity=74, time=364),
    Message('note_on', channel=8, note=62, velocity=74, time=0),
    Message('note_on', channel=8, note=57, velocity=74, time=0),
    Message('note_on', channel=8, note=65, velocity=0, time=27),
    Message('note_on', channel=8, note=62, velocity=0, time=0),
    Message('note_on', channel=8, note=57, velocity=0, time=0),
    Message('note_on', channel=8, note=65, velocity=83, time=357),
    Message('note_on', channel=8, note=62, velocity=83, time=0),
    Message('note_on', channel=8, note=57, velocity=83, time=0),
    Message('note_on', channel=8, note=65, velocity=0, time=20),
    Message('note_on', channel=8, note=62, velocity=0, time=0),
    Message('note_on', channel=8, note=57, velocity=0, time=0),
    Message('note_on', channel=8, note=65, velocity=74, time=364),
    Message('note_on', channel=8, note=62, velocity=74, time=0),
    Message('note_on', channel=8, note=60, velocity=74, time=0),
    Message('note_on', channel=8, note=69, velocity=74, time=0),
    Message('note_on', channel=8, note=65, velocity=0, time=27),
    Message('note_on', channel=8, note=62, velocity=0, time=0),
    Message('note_on', channel=8, note=60, velocity=0, time=0),
    Message('note_on', channel=8, note=69, velocity=0, time=0),
    Message('note_on', channel=8, note=65, velocity=83, time=357),
    Message('note_on', channel=8, note=62, velocity=83, time=0),
    Message('note_on', channel=8, note=60, velocity=83, time=0),
    Message('note_on', channel=8, note=69, velocity=83, time=0),
    Message('note_on', channel=8, note=65, velocity=0, time=20),
    Message('note_on', channel=8, note=62, velocity=0, time=0),
    Message('note_on', channel=8, note=60, velocity=0, time=0),
    Message('note_on', channel=8, note=69, velocity=0, time=0),
    Message('note_on', channel=8, note=65, velocity=74, time=364),
    Message('note_on', channel=8, note=62, velocity=74, time=0),
    Message('note_on', channel=8, note=59, velocity=74, time=0),
    Message('note_on', channel=8, note=67, velocity=74, time=0),
    Message('note_on', channel=8, note=65, velocity=0, time=27),
    Message('note_on', channel=8, note=62, velocity=0, time=0),
    Message('note_on', channel=8, note=59, velocity=0, time=0),
    Message('note_on', channel=8, note=67, velocity=0, time=0),
    Message('note_on', channel=8, note=65, velocity=83, time=357),
    Message('note_on', channel=8, note=62, velocity=83, time=0),
    Message('note_on', channel=8, note=59, velocity=83, time=0),
    Message('note_on', channel=8, note=67, velocity=83, time=0),
    Message('note_on', channel=8, note=65, velocity=0, time=20),
    Message('note_on', channel=8, note=62, velocity=0, time=0),
    Message('note_on', channel=8, note=59, velocity=0, time=0),
    Message('note_on', channel=8, note=67, velocity=0, time=0),
    Message('note_on', channel=8, note=64, velocity=74, time=364),
    Message('note_on', channel=8, note=60, velocity=74, time=0),
    Message('note_on', channel=8, note=55, velocity=74, time=0),
    Message('note_on', channel=8, note=64, velocity=0, time=27),
    Message('note_on', channel=8, note=60, velocity=0, time=0),
    Message('note_on', channel=8, note=55, velocity=0, time=0),
    Message('note_on', channel=8, note=64, velocity=83, time=357),
    Message('note_on', channel=8, note=60, velocity=83, time=0),
    Message('note_on', channel=8, note=55, velocity=83, time=0),
    Message('note_on', channel=8, note=64, velocity=0, time=20),
    Message('note_on', channel=8, note=60, velocity=0, time=0),
    Message('note_on', channel=8, note=55, velocity=0, time=0),
    Message('note_on', channel=8, note=64, velocity=74, time=364),
    Message('note_on', channel=8, note=60, velocity=74, time=0),
    Message('note_on', channel=8, note=55, velocity=74, time=0),
    Message('note_on', channel=8, note=64, velocity=0, time=27),
    Message('note_on', channel=8, note=60, velocity=0, time=0),
    Message('note_on', channel=8, note=55, velocity=0, time=0),
    Message('note_on', channel=8, note=64, velocity=74, time=357),
    Message('note_on', channel=8, note=62, velocity=74, time=0),
    Message('note_on', channel=8, note=59, velocity=74, time=0),
    Message('note_on', channel=8, note=67, velocity=74, time=0),
    Message('note_on', channel=8, note=64, velocity=0, time=27),
    Message('note_on', channel=8, note=62, velocity=0, time=0),
    Message('note_on', channel=8, note=59, velocity=0, time=0),
    Message('note_on', channel=8, note=67, velocity=0, time=0),
    Message('note_on', channel=8, note=64, velocity=74, time=357),
    Message('note_on', channel=8, note=60, velocity=74, time=0),
    Message('note_on', channel=8, note=58, velocity=74, time=0),
    Message('note_on', channel=8, note=67, velocity=74, time=0),
    Message('note_on', channel=8, note=64, velocity=0, time=27),
    Message('note_on', channel=8, note=60, velocity=0, time=0),
    Message('note_on', channel=8, note=58, velocity=0, time=0),
    Message('note_on', channel=8, note=67, velocity=0, time=0),
    Message('note_on', channel=8, note=64, velocity=83, time=357),
    Message('note_on', channel=8, note=60, velocity=83, time=0),
    Message('note_on', channel=8, note=58, velocity=83, time=0),
    Message('note_on', channel=8, note=67, velocity=83, time=0),
    Message('note_on', channel=8, note=64, velocity=0, time=20),
    Message('note_on', channel=8, note=60, velocity=0, time=0),
    Message('note_on', channel=8, note=58, velocity=0, time=0),
    Message('note_on', channel=8, note=67, velocity=0, time=0),
    Message('note_on', channel=8, note=65, velocity=74, time=364),
    Message('note_on', channel=8, note=60, velocity=74, time=0),
    Message('note_on', channel=8, note=57, velocity=74, time=0),
    Message('note_on', channel=8, note=65, velocity=0, time=27),
    Message('note_on', channel=8, note=60, velocity=0, time=0),
    Message('note_on', channel=8, note=57, velocity=0, time=0),
    Message('note_on', channel=8, note=65, velocity=83, time=357),
    Message('note_on', channel=8, note=60, velocity=83, time=0),
    Message('note_on', channel=8, note=57, velocity=83, time=0),
    Message('note_on', channel=8, note=65, velocity=0, time=20),
    Message('note_on', channel=8, note=60, velocity=0, time=0),
    Message('note_on', channel=8, note=57, velocity=0, time=0),
    Message('note_on', channel=8, note=65, velocity=74, time=364),
    Message('note_on', channel=8, note=60, velocity=74, time=0),
    Message('note_on', channel=8, note=56, velocity=74, time=0),
    Message('note_on', channel=8, note=65, velocity=0, time=27),
    Message('note_on', channel=8, note=60, velocity=0, time=0),
    Message('note_on', channel=8, note=56, velocity=0, time=0),
    Message('note_on', channel=8, note=65, velocity=83, time=357),
    Message('note_on', channel=8, note=60, velocity=83, time=0),
    Message('note_on', channel=8, note=56, velocity=83, time=0),
    Message('note_on', channel=8, note=65, velocity=0, time=20),
    Message('note_on', channel=8, note=60, velocity=0, time=0),
    Message('note_on', channel=8, note=56, velocity=0, time=0),
    Message('note_on', channel=8, note=64, velocity=74, time=364),
    Message('note_on', channel=8, note=60, velocity=74, time=0),
    Message('note_on', channel=8, note=55, velocity=74, time=0),
    Message('note_on', channel=8, note=64, velocity=0, time=27),
    Message('note_on', channel=8, note=60, velocity=0, time=0),
    Message('note_on', channel=8, note=55, velocity=0, time=0),
    Message('note_on', channel=8, note=64, velocity=83, time=357),
    Message('note_on', channel=8, note=60, velocity=83, time=0),
    Message('note_on', channel=8, note=55, velocity=83, time=0),
    Message('note_on', channel=8, note=64, velocity=0, time=20),
    Message('note_on', channel=8, note=60, velocity=0, time=0),
    Message('note_on', channel=8, note=55, velocity=0, time=0),
    Message('note_on', channel=8, note=65, velocity=74, time=364),
    Message('note_on', channel=8, note=62, velocity=74, time=0),
    Message('note_on', channel=8, note=59, velocity=74, time=0),
    Message('note_on', channel=8, note=67, velocity=74, time=0),
    Message('note_on', channel=8, note=65, velocity=0, time=27),
    Message('note_on', channel=8, note=62, velocity=0, time=0),
    Message('note_on', channel=8, note=59, velocity=0, time=0),
    Message('note_on', channel=8, note=67, velocity=0, time=0),
    Message('note_on', channel=8, note=65, velocity=83, time=357),
    Message('note_on', channel=8, note=62, velocity=83, time=0),
    Message('note_on', channel=8, note=59, velocity=83, time=0),
    Message('note_on', channel=8, note=67, velocity=83, time=0),
    Message('note_on', channel=8, note=65, velocity=0, time=20),
    Message('note_on', channel=8, note=62, velocity=0, time=0),
    Message('note_on', channel=8, note=59, velocity=0, time=0),
    Message('note_on', channel=8, note=67, velocity=0, time=0),
    Message('note_on', channel=8, note=65, velocity=74, time=364),
    Message('note_on', channel=8, note=62, velocity=74, time=0),
    Message('note_on', channel=8, note=60, velocity=74, time=0),
    Message('note_on', channel=8, note=69, velocity=74, time=0),
    Message('note_on', channel=8, note=65, velocity=0, time=27),
    Message('note_on', channel=8, note=62, velocity=0, time=0),
    Message('note_on', channel=8, note=60, velocity=0, time=0),
    Message('note_on', channel=8, note=69, velocity=0, time=0),
    Message('note_on', channel=8, note=65, velocity=83, time=357),
    Message('note_on', channel=8, note=62, velocity=83, time=0),
    Message('note_on', channel=8, note=60, velocity=83, time=0),
    Message('note_on', channel=8, note=69, velocity=83, time=0),
    Message('note_on', channel=8, note=65, velocity=0, time=20),
    Message('note_on', channel=8, note=62, velocity=0, time=0),
    Message('note_on', channel=8, note=60, velocity=0, time=0),
    Message('note_on', channel=8, note=69, velocity=0, time=0),
    Message('note_on', channel=8, note=64, velocity=74, time=364),
    Message('note_on', channel=8, note=60, velocity=74, time=0),
    Message('note_on', channel=8, note=55, velocity=74, time=0),
    Message('note_on', channel=8, note=64, velocity=0, time=27),
    Message('note_on', channel=8, note=60, velocity=0, time=0),
    Message('note_on', channel=8, note=55, velocity=0, time=0),
    Message('note_on', channel=8, note=64, velocity=83, time=357),
    Message('note_on', channel=8, note=60, velocity=83, time=0),
    Message('note_on', channel=8, note=55, velocity=83, time=0),
    Message('note_on', channel=8, note=64, velocity=0, time=20),
    Message('note_on', channel=8, note=60, velocity=0, time=0),
    Message('note_on', channel=8, note=55, velocity=0, time=0),
    Message('note_on', channel=8, note=64, velocity=74, time=364),
    Message('note_on', channel=8, note=60, velocity=74, time=0),
    Message('note_on', channel=8, note=55, velocity=74, time=0),
    Message('note_on', channel=8, note=64, velocity=0, time=27),
    Message('note_on', channel=8, note=60, velocity=0, time=0),
    Message('note_on', channel=8, note=55, velocity=0, time=0),
    Message('note_on', channel=8, note=64, velocity=83, time=357),
    Message('note_on', channel=8, note=60, velocity=83, time=0),
    Message('note_on', channel=8, note=55, velocity=83, time=0),
    Message('note_on', channel=8, note=64, velocity=0, time=20),
    Message('note_on', channel=8, note=60, velocity=0, time=0),
    Message('note_on', channel=8, note=55, velocity=0, time=0),
    Message('note_on', channel=8, note=64, velocity=74, time=364),
    Message('note_on', channel=8, note=60, velocity=74, time=0),
    Message('note_on', channel=8, note=58, velocity=74, time=0),
    Message('note_on', channel=8, note=67, velocity=74, time=0),
    Message('note_on', channel=8, note=64, velocity=0, time=27),
    Message('note_on', channel=8, note=60, velocity=0, time=0),
    Message('note_on', channel=8, note=58, velocity=0, time=0),
    Message('note_on', channel=8, note=67, velocity=0, time=0),
    Message('note_on', channel=8, note=64, velocity=83, time=357),
    Message('note_on', channel=8, note=60, velocity=83, time=0),
    Message('note_on', channel=8, note=58, velocity=83, time=0),
    Message('note_on', channel=8, note=67, velocity=83, time=0),
    Message('note_on', channel=8, note=64, velocity=0, time=20),
    Message('note_on', channel=8, note=60, velocity=0, time=0),
    Message('note_on', channel=8, note=58, velocity=0, time=0),
    Message('note_on', channel=8, note=67, velocity=0, time=0),
    Message('note_on', channel=8, note=65, velocity=74, time=364),
    Message('note_on', channel=8, note=60, velocity=74, time=0),
    Message('note_on', channel=8, note=57, velocity=74, time=0),
    Message('note_on', channel=8, note=65, velocity=0, time=27),
    Message('note_on', channel=8, note=60, velocity=0, time=0),
    Message('note_on', channel=8, note=57, velocity=0, time=0),
    Message('note_on', channel=8, note=65, velocity=83, time=357),
    Message('note_on', channel=8, note=60, velocity=83, time=0),
    Message('note_on', channel=8, note=57, velocity=83, time=0),
    Message('note_on', channel=8, note=65, velocity=0, time=20),
    Message('note_on', channel=8, note=60, velocity=0, time=0),
    Message('note_on', channel=8, note=57, velocity=0, time=0),
    Message('note_on', channel=8, note=65, velocity=83, time=364),
    Message('note_on', channel=8, note=60, velocity=83, time=0),
    Message('note_on', channel=8, note=57, velocity=83, time=0),
    Message('note_on', channel=8, note=65, velocity=0, time=24),
    Message('note_on', channel=8, note=60, velocity=0, time=0),
    Message('note_on', channel=8, note=57, velocity=0, time=0),
    Message('note_on', channel=8, note=65, velocity=82, time=360),
    Message('note_on', channel=8, note=60, velocity=82, time=0),
    Message('note_on', channel=8, note=57, velocity=82, time=0),
    Message('note_on', channel=8, note=65, velocity=0, time=20),
    Message('note_on', channel=8, note=60, velocity=0, time=0),
    Message('note_on', channel=8, note=57, velocity=0, time=0),
    Message('note_on', channel=8, note=65, velocity=74, time=364),
    Message('note_on', channel=8, note=62, velocity=74, time=0),
    Message('note_on', channel=8, note=60, velocity=74, time=0),
    Message('note_on', channel=8, note=69, velocity=74, time=0),
    Message('note_on', channel=8, note=65, velocity=0, time=27),
    Message('note_on', channel=8, note=62, velocity=0, time=0),
    Message('note_on', channel=8, note=60, velocity=0, time=0),
    Message('note_on', channel=8, note=69, velocity=0, time=0),
    Message('note_on', channel=8, note=65, velocity=83, time=357),
    Message('note_on', channel=8, note=62, velocity=83, time=0),
    Message('note_on', channel=8, note=60, velocity=83, time=0),
    Message('note_on', channel=8, note=69, velocity=83, time=0),
    Message('note_on', channel=8, note=65, velocity=0, time=20),
    Message('note_on', channel=8, note=62, velocity=0, time=0),
    Message('note_on', channel=8, note=60, velocity=0, time=0),
    Message('note_on', channel=8, note=69, velocity=0, time=0),
    Message('note_on', channel=8, note=65, velocity=74, time=364),
    Message('note_on', channel=8, note=62, velocity=74, time=0),
    Message('note_on', channel=8, note=59, velocity=74, time=0),
    Message('note_on', channel=8, note=67, velocity=74, time=0),
    Message('note_on', channel=8, note=65, velocity=0, time=27),
    Message('note_on', channel=8, note=62, velocity=0, time=0),
    Message('note_on', channel=8, note=59, velocity=0, time=0),
    Message('note_on', channel=8, note=67, velocity=0, time=0),
    Message('note_on', channel=8, note=65, velocity=83, time=357),
    Message('note_on', channel=8, note=62, velocity=83, time=0),
    Message('note_on', channel=8, note=59, velocity=83, time=0),
    Message('note_on', channel=8, note=67, velocity=83, time=0),
    Message('note_on', channel=8, note=65, velocity=0, time=20),
    Message('note_on', channel=8, note=62, velocity=0, time=0),
    Message('note_on', channel=8, note=59, velocity=0, time=0),
    Message('note_on', channel=8, note=67, velocity=0, time=0),
    Message('note_on', channel=8, note=64, velocity=74, time=364),
    Message('note_on', channel=8, note=62, velocity=74, time=0),
    Message('note_on', channel=8, note=59, velocity=74, time=0),
    Message('note_on', channel=8, note=67, velocity=74, time=0),
    Message('note_on', channel=8, note=64, velocity=0, time=27),
    Message('note_on', channel=8, note=62, velocity=0, time=0),
    Message('note_on', channel=8, note=59, velocity=0, time=0),
    Message('note_on', channel=8, note=67, velocity=0, time=0),
    Message('note_on', channel=8, note=64, velocity=83, time=357),
    Message('note_on', channel=8, note=62, velocity=83, time=0),
    Message('note_on', channel=8, note=59, velocity=83, time=0),
    Message('note_on', channel=8, note=67, velocity=83, time=0),
    Message('note_on', channel=8, note=64, velocity=0, time=20),
    Message('note_on', channel=8, note=62, velocity=0, time=0),
    Message('note_on', channel=8, note=59, velocity=0, time=0),
    Message('note_on', channel=8, note=67, velocity=0, time=0),
    Message('note_on', channel=8, note=64, velocity=74, time=364),
    Message('note_on', channel=8, note=60, velocity=74, time=0),
    Message('note_on', channel=8, note=57, velocity=74, time=0),
    Message('note_on', channel=8, note=64, velocity=0, time=27),
    Message('note_on', channel=8, note=60, velocity=0, time=0),
    Message('note_on', channel=8, note=57, velocity=0, time=0),
    Message('note_on', channel=8, note=64, velocity=83, time=357),
    Message('note_on', channel=8, note=60, velocity=83, time=0),
    Message('note_on', channel=8, note=57, velocity=83, time=0),
    Message('note_on', channel=8, note=64, velocity=0, time=20),
    Message('note_on', channel=8, note=60, velocity=0, time=0),
    Message('note_on', channel=8, note=57, velocity=0, time=0),
    Message('note_on', channel=8, note=65, velocity=74, time=364),
    Message('note_on', channel=8, note=62, velocity=74, time=0),
    Message('note_on', channel=8, note=60, velocity=74, time=0),
    Message('note_on', channel=8, note=69, velocity=74, time=0),
    Message('note_on', channel=8, note=65, velocity=0, time=27),
    Message('note_on', channel=8, note=62, velocity=0, time=0),
    Message('note_on', channel=8, note=60, velocity=0, time=0),
    Message('note_on', channel=8, note=69, velocity=0, time=0),
    Message('note_on', channel=8, note=65, velocity=83, time=357),
    Message('note_on', channel=8, note=62, velocity=83, time=0),
    Message('note_on', channel=8, note=60, velocity=83, time=0),
    Message('note_on', channel=8, note=69, velocity=83, time=0),
    Message('note_on', channel=8, note=65, velocity=0, time=20),
    Message('note_on', channel=8, note=62, velocity=0, time=0),
    Message('note_on', channel=8, note=60, velocity=0, time=0),
    Message('note_on', channel=8, note=69, velocity=0, time=0),
    Message('note_on', channel=8, note=65, velocity=74, time=364),
    Message('note_on', channel=8, note=62, velocity=74, time=0),
    Message('note_on', channel=8, note=59, velocity=74, time=0),
    Message('note_on', channel=8, note=67, velocity=74, time=0),
    Message('note_on', channel=8, note=65, velocity=0, time=27),
    Message('note_on', channel=8, note=62, velocity=0, time=0),
    Message('note_on', channel=8, note=59, velocity=0, time=0),
    Message('note_on', channel=8, note=67, velocity=0, time=0),
    Message('note_on', channel=8, note=65, velocity=83, time=357),
    Message('note_on', channel=8, note=62, velocity=83, time=0),
    Message('note_on', channel=8, note=59, velocity=83, time=0),
    Message('note_on', channel=8, note=67, velocity=83, time=0),
    Message('note_on', channel=8, note=65, velocity=0, time=20),
    Message('note_on', channel=8, note=62, velocity=0, time=0),
    Message('note_on', channel=8, note=59, velocity=0, time=0),
    Message('note_on', channel=8, note=67, velocity=0, time=0),
    Message('note_on', channel=8, note=65, velocity=74, time=364),
    Message('note_on', channel=8, note=62, velocity=74, time=0),
    Message('note_on', channel=8, note=60, velocity=74, time=0),
    Message('note_on', channel=8, note=69, velocity=74, time=0),
    Message('note_on', channel=8, note=65, velocity=0, time=27),
    Message('note_on', channel=8, note=62, velocity=0, time=0),
    Message('note_on', channel=8, note=60, velocity=0, time=0),
    Message('note_on', channel=8, note=69, velocity=0, time=0),
    Message('note_on', channel=8, note=65, velocity=83, time=357),
    Message('note_on', channel=8, note=62, velocity=83, time=0),
    Message('note_on', channel=8, note=60, velocity=83, time=0),
    Message('note_on', channel=8, note=69, velocity=83, time=0),
    Message('note_on', channel=8, note=65, velocity=0, time=20),
    Message('note_on', channel=8, note=62, velocity=0, time=0),
    Message('note_on', channel=8, note=60, velocity=0, time=0),
    Message('note_on', channel=8, note=69, velocity=0, time=0),
    Message('note_on', channel=8, note=67, velocity=67, time=172),
    Message('note_on', channel=8, note=64, velocity=75, time=0),
    Message('note_on', channel=8, note=60, velocity=73, time=0),
    Message('note_on', channel=8, note=60, velocity=0, time=147),
    Message('note_on', channel=8, note=67, velocity=0, time=3),
    Message('note_on', channel=8, note=64, velocity=0, time=0),
    Message('note_on', channel=8, note=60, velocity=92, time=42),
    Message('note_on', channel=8, note=64, velocity=102, time=0),
    Message('note_on', channel=8, note=67, velocity=102, time=0),
    Message('note_on', channel=8, note=60, velocity=0, time=38),
    Message('note_on', channel=8, note=64, velocity=0, time=0),
    Message('note_on', channel=8, note=67, velocity=0, time=0),
    Message('note_on', channel=8, note=65, velocity=70, time=154),
    Message('note_on', channel=8, note=60, velocity=73, time=0),
    Message('note_on', channel=8, note=69, velocity=57, time=0),
    Message('note_on', channel=8, note=60, velocity=0, time=158),
    Message('note_on', channel=8, note=65, velocity=0, time=2),
    Message('note_on', channel=8, note=69, velocity=0, time=1),
    Message('note_on', channel=8, note=60, velocity=87, time=31),
    Message('note_on', channel=8, note=69, velocity=87, time=0),
    Message('note_on', channel=8, note=65, velocity=94, time=0),
    Message('note_on', channel=8, note=69, velocity=0, time=35),
    Message('note_on', channel=8, note=60, velocity=0, time=3),
    Message('note_on', channel=8, note=65, velocity=0, time=0),
    Message('note_on', channel=8, note=64, velocity=85, time=154),
    Message('note_on', channel=8, note=67, velocity=80, time=0),
    Message('note_on', channel=8, note=60, velocity=89, time=0),
    Message('note_on', channel=8, note=67, velocity=0, time=48),
    Message('note_on', channel=8, note=64, velocity=0, time=3),
    Message('note_on', channel=8, note=60, velocity=0, time=3),
    Message('note_on', channel=8, note=72, velocity=55, time=330),
    Message('note_on', channel=8, note=67, velocity=80, time=0),
    Message('note_on', channel=8, note=64, velocity=83, time=0),
    Message('note_on', channel=8, note=60, velocity=81, time=0),
    Message('note_on', channel=8, note=65, velocity=80, time=0),
    Message('note_on', channel=8, note=65, velocity=0, time=3),
    Message('note_on', channel=8, note=64, velocity=0, time=376),
    Message('note_on', channel=8, note=60, velocity=0, time=0),
    Message('note_on', channel=8, note=72, velocity=0, time=1),
    Message('note_on', channel=8, note=67, velocity=0, time=0),
    Message('control_change', channel=8, control=64, value=0, time=4),
    MetaMessage('end_of_track', time=0)]),
  MidiTrack([
    MetaMessage('midi_port', port=1, time=0),
    MetaMessage('track_name', name='vibes1              ', time=0),
    Message('program_change', channel=3, program=11, time=0),
    Message('control_change', channel=3, control=7, value=100, time=0),
    Message('control_change', channel=3, control=10, value=127, time=0),
    Message('control_change', channel=3, control=64, value=127, time=28991),
    Message('control_change', channel=3, control=64, value=0, time=38),
    Message('note_on', channel=3, note=60, velocity=118, time=166),
    Message('note_on', channel=3, note=60, velocity=0, time=249),
    Message('note_on', channel=3, note=64, velocity=127, time=9),
    Message('note_on', channel=3, note=64, velocity=0, time=47),
    Message('note_on', channel=3, note=60, velocity=122, time=12),
    Message('note_on', channel=3, note=60, velocity=0, time=47),
    Message('note_on', channel=3, note=59, velocity=127, time=17),
    Message('note_on', channel=3, note=64, velocity=127, time=254),
    Message('note_on', channel=3, note=59, velocity=0, time=5),
    Message('note_on', channel=3, note=64, velocity=0, time=55),
    Message('note_on', channel=3, note=59, velocity=110, time=1),
    Message('note_on', channel=3, note=59, velocity=0, time=59),
    Message('note_on', channel=3, note=58, velocity=110, time=12),
    Message('note_on', channel=3, note=58, velocity=0, time=646),
    Message('note_on', channel=3, note=57, velocity=127, time=124),
    Message('note_on', channel=3, note=57, velocity=0, time=1375),
    Message('note_on', channel=3, note=62, velocity=110, time=155),
    Message('note_on', channel=3, note=62, velocity=0, time=552),
    Message('note_on', channel=3, note=60, velocity=118, time=19),
    Message('note_on', channel=3, note=60, velocity=0, time=185),
    Message('note_on', channel=3, note=59, velocity=118, time=11),
    Message('note_on', channel=3, note=59, velocity=0, time=649),
    Message('note_on', channel=3, note=67, velocity=113, time=314),
    Message('note_on', channel=3, note=67, velocity=0, time=192),
    Message('note_on', channel=3, note=64, velocity=113, time=22),
    Message('note_on', channel=3, note=64, velocity=0, time=132),
    Message('note_on', channel=3, note=62, velocity=87, time=28),
    Message('note_on', channel=3, note=62, velocity=0, time=156),
    Message('note_on', channel=3, note=60, velocity=87, time=27),
    Message('note_on', channel=3, note=60, velocity=0, time=757),
    Message('note_on', channel=3, note=53, velocity=118, time=18),
    Message('note_on', channel=3, note=57, velocity=69, time=275),
    Message('note_on', channel=3, note=60, velocity=106, time=58),
    Message('note_on', channel=3, note=60, velocity=0, time=43),
    Message('note_on', channel=3, note=62, velocity=90, time=29),
    Message('note_on', channel=3, note=57, velocity=0, time=8),
    Message('note_on', channel=3, note=53, velocity=0, time=4),
    Message('note_on', channel=3, note=60, velocity=110, time=170),
    Message('note_on', channel=3, note=62, velocity=0, time=8),
    Message('note_on', channel=3, note=60, velocity=0, time=160),
    Message('note_on', channel=3, note=59, velocity=106, time=14),
    Message('note_on', channel=3, note=67, velocity=106, time=401),
    Message('note_on', channel=3, note=59, velocity=0, time=214),
    Message('note_on', channel=3, note=67, velocity=0, time=3),
    Message('note_on', channel=3, note=65, velocity=127, time=153),
    Message('note_on', channel=3, note=65, velocity=0, time=729),
    Message('note_on', channel=3, note=64, velocity=87, time=37),
    Message('note_on', channel=3, note=64, velocity=0, time=602),
    Message('note_on', channel=3, note=72, velocity=127, time=12469),
    Message('note_on', channel=3, note=76, velocity=122, time=258),
    Message('note_on', channel=3, note=72, velocity=0, time=8),
    Message('note_on', channel=3, note=76, velocity=0, time=51),
    Message('note_on', channel=3, note=72, velocity=127, time=3),
    Message('note_on', channel=3, note=72, velocity=0, time=57),
    Message('note_on', channel=3, note=71, velocity=127, time=5),
    Message('note_on', channel=3, note=76, velocity=122, time=252),
    Message('note_on', channel=3, note=71, velocity=0, time=2),
    Message('note_on', channel=3, note=76, velocity=0, time=51),
    Message('note_on', channel=3, note=71, velocity=113, time=0),
    Message('note_on', channel=3, note=71, velocity=0, time=50),
    Message('note_on', channel=3, note=70, velocity=94, time=16),
    Message('note_on', channel=3, note=70, velocity=0, time=607),
    Message('note_on', channel=3, note=69, velocity=118, time=176),
    Message('note_on', channel=3, note=72, velocity=113, time=0),
    Message('note_on', channel=3, note=69, velocity=0, time=553),
    Message('note_on', channel=3, note=72, velocity=0, time=1),
    Message('note_on', channel=3, note=69, velocity=113, time=210),
    Message('note_on', channel=3, note=72, velocity=118, time=1),
    Message('note_on', channel=3, note=69, velocity=0, time=595),
    Message('note_on', channel=3, note=72, velocity=0, time=3),
    Message('note_on', channel=3, note=69, velocity=118, time=168),
    Message('note_on', channel=3, note=74, velocity=103, time=0),
    Message('note_on', channel=3, note=74, velocity=0, time=592),
    Message('note_on', channel=3, note=69, velocity=0, time=3),
    Message('note_on', channel=3, note=65, velocity=74, time=163),
    Message('note_on', channel=3, note=67, velocity=106, time=1),
    Message('note_on', channel=3, note=65, velocity=0, time=502),
    Message('note_on', channel=3, note=67, velocity=0, time=5),
    Message('note_on', channel=3, note=74, velocity=103, time=148),
    Message('note_on', channel=3, note=74, velocity=0, time=23),
    Message('note_on', channel=3, note=75, velocity=110, time=30),
    Message('note_on', channel=3, note=75, velocity=0, time=26),
    Message('note_on', channel=3, note=76, velocity=113, time=42),
    Message('note_on', channel=3, note=76, velocity=0, time=538),
    Message('note_on', channel=3, note=76, velocity=127, time=31),
    Message('note_on', channel=3, note=76, velocity=0, time=133),
    Message('note_on', channel=3, note=69, velocity=127, time=67),
    Message('note_on', channel=3, note=69, velocity=0, time=751),
    Message('note_on', channel=3, note=65, velocity=103, time=9),
    Message('note_on', channel=3, note=65, velocity=0, time=713),
    Message('note_on', channel=3, note=62, velocity=106, time=53),
    Message('note_on', channel=3, note=62, velocity=0, time=542),
    Message('note_on', channel=3, note=81, velocity=122, time=231),
    Message('note_on', channel=3, note=84, velocity=110, time=2),
    Message('note_on', channel=3, note=84, velocity=0, time=578),
    Message('note_on', channel=3, note=81, velocity=0, time=5),
    Message('control_change', channel=3, control=7, value=70, time=180),
    Message('control_change', channel=3, control=7, value=90, time=0),
    Message('note_on', channel=3, note=72, velocity=113, time=12),
    Message('note_on', channel=3, note=76, velocity=127, time=0),
    Message('note_on', channel=3, note=79, velocity=127, time=0),
    Message('note_on', channel=3, note=76, velocity=0, time=759),
    Message('note_on', channel=3, note=79, velocity=0, time=3),
    Message('note_on', channel=3, note=72, velocity=0, time=4),
    MetaMessage('end_of_track', time=0)]),
  MidiTrack([
    MetaMessage('midi_port', port=1, time=0),
    MetaMessage('track_name', name='melody piano 1      ', time=0),
    Message('program_change', channel=0, program=0, time=0),
    Message('control_change', channel=0, control=7, value=125, time=0),
    Message('note_on', channel=0, note=55, velocity=127, time=4427),
    Message('note_on', channel=0, note=55, velocity=0, time=160),
    Message('note_on', channel=0, note=64, velocity=127, time=45),
    Message('note_on', channel=0, note=62, velocity=127, time=485),
    Message('note_on', channel=0, note=64, velocity=0, time=5),
    Message('note_on', channel=0, note=64, velocity=110, time=131),
    Message('note_on', channel=0, note=62, velocity=0, time=4),
    Message('note_on', channel=0, note=62, velocity=127, time=53),
    Message('note_on', channel=0, note=64, velocity=0, time=9),
    Message('note_on', channel=0, note=62, velocity=0, time=57),
    Message('note_on', channel=0, note=64, velocity=122, time=3),
    Message('note_on', channel=0, note=62, velocity=127, time=517),
    Message('note_on', channel=0, note=64, velocity=0, time=7),
    Message('note_on', channel=0, note=64, velocity=110, time=123),
    Message('note_on', channel=0, note=62, velocity=0, time=7),
    Message('note_on', channel=0, note=62, velocity=127, time=49),
    Message('note_on', channel=0, note=64, velocity=0, time=6),
    Message('note_on', channel=0, note=64, velocity=127, time=66),
    Message('note_on', channel=0, note=62, velocity=0, time=2),
    Message('note_on', channel=0, note=64, velocity=0, time=493),
    Message('note_on', channel=0, note=62, velocity=113, time=8),
    Message('note_on', channel=0, note=62, velocity=0, time=23),
    Message('note_on', channel=0, note=64, velocity=127, time=9),
    Message('note_on', channel=0, note=64, velocity=0, time=26),
    Message('note_on', channel=0, note=62, velocity=113, time=5),
    Message('note_on', channel=0, note=64, velocity=127, time=64),
    Message('note_on', channel=0, note=62, velocity=0, time=5),
    Message('note_on', channel=0, note=64, velocity=0, time=57),
    Message('note_on', channel=0, note=62, velocity=110, time=1),
    Message('note_on', channel=0, note=62, velocity=0, time=45),
    Message('note_on', channel=0, note=62, velocity=80, time=26),
    Message('note_on', channel=0, note=62, velocity=0, time=66),
    Message('note_on', channel=0, note=61, velocity=67, time=0),
    Message('note_on', channel=0, note=61, velocity=0, time=541),
    Message('note_on', channel=0, note=57, velocity=127, time=11),
    Message('note_on', channel=0, note=57, velocity=0, time=132),
    Message('note_on', channel=0, note=65, velocity=127, time=20),
    Message('note_on', channel=0, note=65, velocity=0, time=500),
    Message('note_on', channel=0, note=64, velocity=127, time=7),
    Message('note_on', channel=0, note=64, velocity=0, time=124),
    Message('note_on', channel=0, note=65, velocity=90, time=6),
    Message('note_on', channel=0, note=64, velocity=127, time=60),
    Message('note_on', channel=0, note=65, velocity=0, time=4),
    Message('note_on', channel=0, note=64, velocity=0, time=59),
    Message('note_on', channel=0, note=65, velocity=92, time=10),
    Message('note_on', channel=0, note=65, velocity=0, time=484),
    Message('note_on', channel=0, note=64, velocity=127, time=21),
    Message('note_on', channel=0, note=64, velocity=0, time=111),
    Message('note_on', channel=0, note=65, velocity=127, time=27),
    Message('note_on', channel=0, note=65, velocity=0, time=54),
    Message('note_on', channel=0, note=64, velocity=127, time=5),
    Message('note_on', channel=0, note=64, velocity=0, time=53),
    Message('note_on', channel=0, note=65, velocity=122, time=17),
    Message('note_on', channel=0, note=65, velocity=0, time=334),
    Message('note_on', channel=0, note=67, velocity=122, time=42),
    Message('note_on', channel=0, note=67, velocity=0, time=175),
    Message('note_on', channel=0, note=62, velocity=100, time=4),
    Message('note_on', channel=0, note=62, velocity=0, time=95),
    Message('note_on', channel=0, note=65, velocity=110, time=8),
    Message('note_on', channel=0, note=65, velocity=0, time=92),
    Message('note_on', channel=0, note=65, velocity=92, time=18),
    Message('note_on', channel=0, note=65, velocity=0, time=94),
    Message('note_on', channel=0, note=64, velocity=106, time=15),
    Message('note_on', channel=0, note=64, velocity=0, time=539),
    Message('note_on', channel=0, note=60, velocity=127, time=37),
    Message('note_on', channel=0, note=60, velocity=0, time=62),
    Message('note_on', channel=0, note=67, velocity=127, time=26),
    Message('note_on', channel=0, note=60, velocity=82, time=307),
    Message('note_on', channel=0, note=60, velocity=0, time=50),
    Message('note_on', channel=0, note=59, velocity=100, time=26),
    Message('note_on', channel=0, note=67, velocity=0, time=16),
    Message('note_on', channel=0, note=67, velocity=127, time=112),
    Message('note_on', channel=0, note=67, velocity=0, time=81),
    Message('note_on', channel=0, note=67, velocity=113, time=22),
    Message('note_on', channel=0, note=67, velocity=0, time=43),
    Message('note_on', channel=0, note=69, velocity=72, time=4),
    Message('note_on', channel=0, note=59, velocity=0, time=55),
    Message('note_on', channel=0, note=69, velocity=0, time=4),
    Message('note_on', channel=0, note=67, velocity=70, time=61),
    Message('note_on', channel=0, note=58, velocity=77, time=106),
    Message('note_on', channel=0, note=58, velocity=0, time=354),
    Message('note_on', channel=0, note=67, velocity=0, time=5),
    Message('note_on', channel=0, note=64, velocity=127, time=78),
    Message('note_on', channel=0, note=64, velocity=0, time=73),
    Message('note_on', channel=0, note=65, velocity=103, time=0),
    Message('note_on', channel=0, note=67, velocity=113, time=55),
    Message('note_on', channel=0, note=65, velocity=0, time=1),
    Message('note_on', channel=0, note=67, velocity=0, time=44),
    Message('note_on', channel=0, note=65, velocity=92, time=35),
    Message('note_on', channel=0, note=57, velocity=73, time=200),
    Message('note_on', channel=0, note=65, velocity=0, time=329),
    Message('note_on', channel=0, note=57, velocity=0, time=6),
    Message('note_on', channel=0, note=65, velocity=127, time=29),
    Message('note_on', channel=0, note=65, velocity=0, time=45),
    Message('note_on', channel=0, note=65, velocity=82, time=21),
    Message('note_on', channel=0, note=65, velocity=0, time=59),
    Message('note_on', channel=0, note=64, velocity=110, time=5),
    Message('note_on', channel=0, note=64, velocity=0, time=48),
    Message('note_on', channel=0, note=67, velocity=118, time=23),
    Message('note_on', channel=0, note=67, velocity=0, time=184),
    Message('note_on', channel=0, note=56, velocity=41, time=14),
    Message('note_on', channel=0, note=65, velocity=78, time=4),
    Message('note_on', channel=0, note=56, velocity=0, time=343),
    Message('note_on', channel=0, note=65, velocity=0, time=77),
    Message('note_on', channel=0, note=67, velocity=94, time=70),
    Message('note_on', channel=0, note=65, velocity=110, time=25),
    Message('note_on', channel=0, note=67, velocity=0, time=4),
    Message('note_on', channel=0, note=65, velocity=0, time=35),
    Message('note_on', channel=0, note=64, velocity=127, time=13),
    Message('note_on', channel=0, note=64, velocity=0, time=440),
    Message('note_on', channel=0, note=55, velocity=127, time=8),
    Message('note_on', channel=0, note=55, velocity=0, time=75),
    Message('note_on', channel=0, note=65, velocity=100, time=101),
    Message('note_on', channel=0, note=65, velocity=0, time=57),
    Message('note_on', channel=0, note=64, velocity=103, time=8),
    Message('note_on', channel=0, note=64, velocity=0, time=63),
    Message('note_on', channel=0, note=62, velocity=69, time=13),
    Message('note_on', channel=0, note=59, velocity=122, time=372),
    Message('note_on', channel=0, note=62, velocity=0, time=5),
    Message('note_on', channel=0, note=60, velocity=127, time=133),
    Message('note_on', channel=0, note=59, velocity=0, time=5),
    Message('note_on', channel=0, note=60, velocity=0, time=103),
    Message('note_on', channel=0, note=62, velocity=127, time=20),
    Message('note_on', channel=0, note=62, velocity=0, time=130),
    Message('note_on', channel=0, note=53, velocity=94, time=0),
    Message('note_on', channel=0, note=62, velocity=92, time=108),
    Message('note_on', channel=0, note=53, velocity=0, time=473),
    Message('note_on', channel=0, note=62, velocity=0, time=16),
    Message('note_on', channel=0, note=64, velocity=87, time=92),
    Message('note_on', channel=0, note=62, velocity=100, time=30),
    Message('note_on', channel=0, note=64, velocity=0, time=1),
    Message('note_on', channel=0, note=62, velocity=0, time=47),
    Message('note_on', channel=0, note=60, velocity=72, time=3),
    Message('note_on', channel=0, note=60, velocity=0, time=367),
    Message('note_on', channel=0, note=67, velocity=60, time=107),
    Message('note_on', channel=0, note=69, velocity=127, time=17),
    Message('note_on', channel=0, note=67, velocity=0, time=2),
    Message('note_on', channel=0, note=67, velocity=106, time=23),
    Message('note_on', channel=0, note=69, velocity=0, time=5),
    Message('note_on', channel=0, note=67, velocity=0, time=28),
    Message('note_on', channel=0, note=66, velocity=127, time=37),
    Message('note_on', channel=0, note=67, velocity=127, time=122),
    Message('note_on', channel=0, note=66, velocity=0, time=12),
    Message('note_on', channel=0, note=67, velocity=0, time=26),
    Message('note_on', channel=0, note=76, velocity=113, time=39),
    Message('note_on', channel=0, note=76, velocity=0, time=471),
    Message('note_on', channel=0, note=67, velocity=127, time=15),
    Message('note_on', channel=0, note=67, velocity=0, time=110),
    Message('note_on', channel=0, note=76, velocity=127, time=25),
    Message('note_on', channel=0, note=76, velocity=0, time=59),
    Message('note_on', channel=0, note=76, velocity=40, time=20),
    Message('note_on', channel=0, note=75, velocity=69, time=23),
    Message('note_on', channel=0, note=76, velocity=0, time=9),
    Message('note_on', channel=0, note=75, velocity=0, time=41),
    Message('note_on', channel=0, note=76, velocity=77, time=24),
    Message('note_on', channel=0, note=76, velocity=0, time=450),
    Message('note_on', channel=0, note=67, velocity=122, time=4),
    Message('note_on', channel=0, note=67, velocity=0, time=107),
    Message('note_on', channel=0, note=76, velocity=127, time=44),
    Message('note_on', channel=0, note=75, velocity=59, time=51),
    Message('note_on', channel=0, note=76, velocity=0, time=5),
    Message('note_on', channel=0, note=75, velocity=0, time=44),
    Message('note_on', channel=0, note=76, velocity=127, time=11),
    Message('note_on', channel=0, note=74, velocity=127, time=377),
    Message('note_on', channel=0, note=76, velocity=0, time=6),
    Message('note_on', channel=0, note=74, velocity=0, time=114),
    Message('note_on', channel=0, note=76, velocity=127, time=11),
    Message('note_on', channel=0, note=74, velocity=122, time=136),
    Message('note_on', channel=0, note=76, velocity=0, time=7),
    Message('note_on', channel=0, note=74, velocity=0, time=93),
    Message('note_on', channel=0, note=74, velocity=106, time=21),
    Message('note_on', channel=0, note=73, velocity=90, time=111),
    Message('note_on', channel=0, note=74, velocity=0, time=4),
    Message('note_on', channel=0, note=73, velocity=0, time=467),
    Message('note_on', channel=0, note=69, velocity=127, time=3),
    Message('note_on', channel=0, note=69, velocity=0, time=108),
    Message('note_on', channel=0, note=75, velocity=48, time=68),
    Message('note_on', channel=0, note=76, velocity=78, time=8),
    Message('note_on', channel=0, note=77, velocity=118, time=12),
    Message('note_on', channel=0, note=75, velocity=0, time=5),
    Message('note_on', channel=0, note=76, velocity=0, time=8),
    Message('note_on', channel=0, note=77, velocity=0, time=450),
    Message('note_on', channel=0, note=76, velocity=122, time=33),
    Message('note_on', channel=0, note=76, velocity=0, time=117),
    Message('note_on', channel=0, note=77, velocity=90, time=15),
    Message('note_on', channel=0, note=76, velocity=118, time=60),
    Message('note_on', channel=0, note=77, velocity=0, time=7),
    Message('note_on', channel=0, note=76, velocity=0, time=45),
    Message('note_on', channel=0, note=77, velocity=113, time=20),
    Message('note_on', channel=0, note=76, velocity=127, time=506),
    Message('note_on', channel=0, note=77, velocity=0, time=5),
    Message('note_on', channel=0, note=76, velocity=0, time=126),
    Message('note_on', channel=0, note=77, velocity=90, time=0),
    Message('note_on', channel=0, note=76, velocity=110, time=63),
    Message('note_on', channel=0, note=77, velocity=0, time=3),
    Message('note_on', channel=0, note=76, velocity=0, time=62),
    Message('note_on', channel=0, note=77, velocity=80, time=5),
    Message('note_on', channel=0, note=77, velocity=0, time=369),
    Message('note_on', channel=0, note=79, velocity=106, time=12),
    Message('note_on', channel=0, note=71, velocity=100, time=124),
    Message('note_on', channel=0, note=79, velocity=0, time=4),
    Message('note_on', channel=0, note=77, velocity=118, time=146),
    Message('note_on', channel=0, note=71, velocity=0, time=14),
    Message('note_on', channel=0, note=77, velocity=0, time=66),
    Message('note_on', channel=0, note=77, velocity=76, time=25),
    Message('note_on', channel=0, note=77, velocity=0, time=114),
    Message('note_on', channel=0, note=76, velocity=78, time=2),
    Message('note_on', channel=0, note=76, velocity=0, time=553),
    Message('note_on', channel=0, note=72, velocity=127, time=9),
    Message('note_on', channel=0, note=72, velocity=0, time=94),
    Message('note_on', channel=0, note=79, velocity=127, time=9),
    Message('note_on', channel=0, note=71, velocity=85, time=380),
    Message('note_on', channel=0, note=79, velocity=0, time=19),
    Message('note_on', channel=0, note=79, velocity=113, time=106),
    Message('note_on', channel=0, note=79, velocity=0, time=72),
    Message('note_on', channel=0, note=79, velocity=72, time=22),
    Message('note_on', channel=0, note=79, velocity=0, time=43),
    Message('note_on', channel=0, note=81, velocity=72, time=8),
    Message('note_on', channel=0, note=71, velocity=0, time=38),
    Message('note_on', channel=0, note=81, velocity=0, time=49),
    Message('note_on', channel=0, note=70, velocity=31, time=22),
    Message('note_on', channel=0, note=79, velocity=52, time=2),
    Message('note_on', channel=0, note=70, velocity=0, time=487),
    Message('note_on', channel=0, note=79, velocity=0, time=25),
    Message('note_on', channel=0, note=76, velocity=64, time=68),
    Message('note_on', channel=0, note=76, velocity=0, time=60),
    Message('note_on', channel=0, note=77, velocity=122, time=12),
    Message('note_on', channel=0, note=79, velocity=106, time=44),
    Message('note_on', channel=0, note=77, velocity=0, time=12),
    Message('note_on', channel=0, note=79, velocity=0, time=25),
    Message('note_on', channel=0, note=81, velocity=47, time=12),
    Message('note_on', channel=0, note=81, velocity=0, time=37),
    Message('note_on', channel=0, note=77, velocity=106, time=28),
    Message('note_on', channel=0, note=69, velocity=80, time=240),
    Message('note_on', channel=0, note=70, velocity=62, time=21),
    Message('note_on', channel=0, note=69, velocity=0, time=5),
    Message('note_on', channel=0, note=70, velocity=0, time=20),
    Message('note_on', channel=0, note=69, velocity=62, time=62),
    Message('note_on', channel=0, note=69, velocity=0, time=129),
    Message('note_on', channel=0, note=77, velocity=0, time=16),
    Message('note_on', channel=0, note=77, velocity=127, time=43),
    Message('note_on', channel=0, note=76, velocity=127, time=50),
    Message('note_on', channel=0, note=77, velocity=0, time=10),
    Message('note_on', channel=0, note=76, velocity=0, time=40),
    Message('note_on', channel=0, note=77, velocity=85, time=0),
    Message('note_on', channel=0, note=76, velocity=122, time=42),
    Message('note_on', channel=0, note=77, velocity=0, time=7),
    Message('note_on', channel=0, note=76, velocity=0, time=24),
    Message('note_on', channel=0, note=79, velocity=127, time=25),
    Message('note_on', channel=0, note=68, velocity=103, time=118),
    Message('note_on', channel=0, note=79, velocity=0, time=15),
    Message('note_on', channel=0, note=77, velocity=40, time=124),
    Message('note_on', channel=0, note=68, velocity=0, time=264),
    Message('note_on', channel=0, note=77, velocity=0, time=26),
    Message('note_on', channel=0, note=77, velocity=100, time=30),
    Message('note_on', channel=0, note=77, velocity=0, time=59),
    Message('note_on', channel=0, note=79, velocity=118, time=13),
    Message('note_on', channel=0, note=79, velocity=0, time=46),
    Message('note_on', channel=0, note=77, velocity=78, time=6),
    Message('note_on', channel=0, note=77, velocity=0, time=57),
    Message('note_on', channel=0, note=76, velocity=103, time=10),
    Message('note_on', channel=0, note=67, velocity=118, time=512),
    Message('note_on', channel=0, note=76, velocity=0, time=24),
    Message('note_on', channel=0, note=67, velocity=0, time=70),
    Message('note_on', channel=0, note=77, velocity=77, time=16),
    Message('note_on', channel=0, note=77, velocity=0, time=52),
    Message('note_on', channel=0, note=76, velocity=106, time=10),
    Message('note_on', channel=0, note=76, velocity=0, time=51),
    Message('note_on', channel=0, note=74, velocity=87, time=13),
    Message('note_on', channel=0, note=71, velocity=113, time=396),
    Message('note_on', channel=0, note=74, velocity=0, time=1),
    Message('note_on', channel=0, note=72, velocity=127, time=122),
    Message('note_on', channel=0, note=71, velocity=0, time=9),
    Message('note_on', channel=0, note=72, velocity=0, time=115),
    Message('note_on', channel=0, note=74, velocity=110, time=8),
    Message('note_on', channel=0, note=65, velocity=50, time=193),
    Message('note_on', channel=0, note=69, velocity=94, time=65),
    Message('note_on', channel=0, note=74, velocity=0, time=19),
    Message('note_on', channel=0, note=74, velocity=55, time=52),
    Message('note_on', channel=0, note=65, velocity=0, time=307),
    Message('note_on', channel=0, note=69, velocity=0, time=3),
    Message('note_on', channel=0, note=74, velocity=0, time=11),
    Message('note_on', channel=0, note=74, velocity=106, time=53),
    Message('note_on', channel=0, note=76, velocity=103, time=64),
    Message('note_on', channel=0, note=74, velocity=0, time=8),
    Message('note_on', channel=0, note=76, velocity=0, time=44),
    Message('note_on', channel=0, note=74, velocity=100, time=3),
    Message('note_on', channel=0, note=74, velocity=0, time=55),
    Message('note_on', channel=0, note=72, velocity=92, time=12),
    Message('note_on', channel=0, note=72, velocity=0, time=266),
    Message('note_on', channel=0, note=64, velocity=127, time=314),
    Message('note_on', channel=0, note=65, velocity=110, time=67),
    Message('note_on', channel=0, note=64, velocity=0, time=7),
    Message('note_on', channel=0, note=65, velocity=0, time=40),
    Message('note_on', channel=0, note=67, velocity=122, time=2),
    Message('note_on', channel=0, note=67, velocity=0, time=48),
    Message('note_on', channel=0, note=67, velocity=127, time=32),
    Message('note_on', channel=0, note=67, velocity=0, time=264),
    Message('note_on', channel=0, note=69, velocity=127, time=315),
    Message('note_on', channel=0, note=67, velocity=127, time=62),
    Message('note_on', channel=0, note=69, velocity=0, time=5),
    Message('note_on', channel=0, note=67, velocity=0, time=48),
    Message('note_on', channel=0, note=66, velocity=113, time=5),
    Message('note_on', channel=0, note=66, velocity=0, time=74),
    Message('note_on', channel=0, note=67, velocity=127, time=2),
    Message('note_on', channel=0, note=67, velocity=0, time=453),
    Message('note_on', channel=0, note=64, velocity=127, time=35),
    Message('note_on', channel=0, note=64, velocity=0, time=84),
    Message('note_on', channel=0, note=65, velocity=118, time=6),
    Message('note_on', channel=0, note=67, velocity=127, time=55),
    Message('note_on', channel=0, note=65, velocity=0, time=9),
    Message('note_on', channel=0, note=67, velocity=0, time=35),
    Message('note_on', channel=0, note=69, velocity=127, time=12),
    Message('note_on', channel=0, note=69, velocity=0, time=519),
    Message('note_on', channel=0, note=70, velocity=127, time=63),
    Message('note_on', channel=0, note=70, velocity=0, time=87),
    Message('note_on', channel=0, note=69, velocity=127, time=13),
    Message('note_on', channel=0, note=69, velocity=0, time=40),
    Message('note_on', channel=0, note=68, velocity=110, time=3),
    Message('note_on', channel=0, note=69, velocity=122, time=40),
    Message('note_on', channel=0, note=68, velocity=0, time=8),
    Message('note_on', channel=0, note=69, velocity=0, time=473),
    Message('note_on', channel=0, note=69, velocity=127, time=89),
    Message('note_on', channel=0, note=69, velocity=0, time=62),
    Message('note_on', channel=0, note=71, velocity=113, time=21),
    Message('note_on', channel=0, note=71, velocity=0, time=40),
    Message('note_on', channel=0, note=72, velocity=110, time=14),
    Message('note_on', channel=0, note=72, velocity=0, time=128),
    Message('note_on', channel=0, note=72, velocity=110, time=13),
    Message('note_on', channel=0, note=72, velocity=0, time=434),
    Message('note_on', channel=0, note=69, velocity=122, time=15),
    Message('note_on', channel=0, note=69, velocity=0, time=98),
    Message('note_on', channel=0, note=72, velocity=127, time=24),
    Message('note_on', channel=0, note=72, velocity=0, time=54),
    Message('note_on', channel=0, note=74, velocity=118, time=2),
    Message('note_on', channel=0, note=74, velocity=0, time=29),
    Message('note_on', channel=0, note=72, velocity=127, time=2),
    Message('note_on', channel=0, note=71, velocity=106, time=92),
    Message('note_on', channel=0, note=72, velocity=0, time=2),
    Message('note_on', channel=0, note=71, velocity=0, time=551),
    Message('note_on', channel=0, note=71, velocity=127, time=23),
    Message('note_on', channel=0, note=72, velocity=127, time=72),
    Message('note_on', channel=0, note=71, velocity=0, time=11),
    Message('note_on', channel=0, note=72, velocity=0, time=35),
    Message('note_on', channel=0, note=74, velocity=122, time=7),
    Message('note_on', channel=0, note=74, velocity=0, time=57),
    Message('note_on', channel=0, note=74, velocity=127, time=15),
    Message('note_on', channel=0, note=74, velocity=0, time=480),
    Message('note_on', channel=0, note=74, velocity=127, time=21),
    Message('note_on', channel=0, note=74, velocity=0, time=119),
    Message('note_on', channel=0, note=76, velocity=127, time=10),
    Message('note_on', channel=0, note=76, velocity=0, time=38),
    Message('note_on', channel=0, note=74, velocity=122, time=5),
    Message('note_on', channel=0, note=74, velocity=0, time=35),
    Message('note_on', channel=0, note=72, velocity=113, time=2),
    Message('note_on', channel=0, note=72, velocity=0, time=532),
    Message('note_on', channel=0, note=72, velocity=127, time=29),
    Message('note_on', channel=0, note=72, velocity=0, time=78),
    Message('note_on', channel=0, note=72, velocity=127, time=15),
    Message('note_on', channel=0, note=72, velocity=0, time=69),
    Message('note_on', channel=0, note=72, velocity=127, time=13),
    Message('note_on', channel=0, note=72, velocity=0, time=86),
    Message('note_on', channel=0, note=72, velocity=127, time=12),
    Message('note_on', channel=0, note=72, velocity=0, time=480),
    Message('note_on', channel=0, note=72, velocity=127, time=21),
    Message('note_on', channel=0, note=72, velocity=0, time=109),
    Message('note_on', channel=0, note=74, velocity=127, time=9),
    Message('note_on', channel=0, note=74, velocity=0, time=35),
    Message('note_on', channel=0, note=72, velocity=127, time=10),
    Message('note_on', channel=0, note=71, velocity=122, time=111),
    Message('note_on', channel=0, note=72, velocity=0, time=4),
    Message('note_on', channel=0, note=71, velocity=0, time=459),
    Message('note_on', channel=0, note=71, velocity=110, time=22),
    Message('note_on', channel=0, note=72, velocity=118, time=92),
    Message('note_on', channel=0, note=71, velocity=0, time=11),
    Message('note_on', channel=0, note=72, velocity=0, time=48),
    Message('note_on', channel=0, note=74, velocity=127, time=5),
    Message('note_on', channel=0, note=74, velocity=0, time=112),
    Message('note_on', channel=0, note=74, velocity=106, time=17),
    Message('note_on', channel=0, note=74, velocity=0, time=591),
    Message('note_on', channel=0, note=76, velocity=84, time=27),
    Message('note_on', channel=0, note=76, velocity=0, time=51),
    Message('note_on', channel=0, note=74, velocity=122, time=9),
    Message('note_on', channel=0, note=74, velocity=0, time=63),
    Message('note_on', channel=0, note=72, velocity=110, time=10),
    Message('note_on', channel=0, note=72, velocity=0, time=503),
    Message('note_on', channel=0, note=43, velocity=127, time=143),
    Message('note_on', channel=0, note=43, velocity=0, time=104),
    Message('note_on', channel=0, note=52, velocity=127, time=40),
    Message('note_on', channel=0, note=50, velocity=127, time=491),
    Message('note_on', channel=0, note=52, velocity=0, time=11),
    Message('note_on', channel=0, note=50, velocity=0, time=111),
    Message('note_on', channel=0, note=52, velocity=127, time=5),
    Message('note_on', channel=0, note=52, velocity=0, time=50),
    Message('note_on', channel=0, note=50, velocity=127, time=6),
    Message('note_on', channel=0, note=50, velocity=0, time=61),
    Message('note_on', channel=0, note=52, velocity=127, time=3),
    Message('note_on', channel=0, note=52, velocity=0, time=520),
    Message('note_on', channel=0, note=50, velocity=127, time=2),
    Message('note_on', channel=0, note=50, velocity=0, time=125),
    Message('note_on', channel=0, note=52, velocity=127, time=10),
    Message('note_on', channel=0, note=52, velocity=0, time=49),
    Message('note_on', channel=0, note=50, velocity=127, time=2),
    Message('note_on', channel=0, note=50, velocity=0, time=67),
    Message('note_on', channel=0, note=52, velocity=127, time=1),
    Message('note_on', channel=0, note=52, velocity=0, time=374),
    Message('note_on', channel=0, note=50, velocity=127, time=18),
    Message('note_on', channel=0, note=50, velocity=0, time=99),
    Message('note_on', channel=0, note=52, velocity=127, time=24),
    Message('note_on', channel=0, note=52, velocity=0, time=112),
    Message('note_on', channel=0, note=50, velocity=127, time=16),
    Message('note_on', channel=0, note=50, velocity=0, time=104),
    Message('note_on', channel=0, note=50, velocity=127, time=21),
    Message('note_on', channel=0, note=49, velocity=103, time=81),
    Message('note_on', channel=0, note=50, velocity=0, time=2),
    Message('note_on', channel=0, note=49, velocity=0, time=479),
    Message('note_on', channel=0, note=45, velocity=127, time=22),
    Message('note_on', channel=0, note=45, velocity=0, time=107),
    Message('note_on', channel=0, note=51, velocity=46, time=58),
    Message('note_on', channel=0, note=52, velocity=73, time=10),
    Message('note_on', channel=0, note=53, velocity=118, time=13),
    Message('note_on', channel=0, note=51, velocity=0, time=6),
    Message('note_on', channel=0, note=52, velocity=0, time=5),
    Message('note_on', channel=0, note=53, velocity=0, time=452),
    Message('note_on', channel=0, note=52, velocity=127, time=37),
    Message('note_on', channel=0, note=52, velocity=0, time=138),
    Message('note_on', channel=0, note=53, velocity=100, time=1),
    Message('note_on', channel=0, note=52, velocity=127, time=55),
    Message('note_on', channel=0, note=53, velocity=0, time=8),
    Message('note_on', channel=0, note=52, velocity=0, time=60),
    Message('note_on', channel=0, note=53, velocity=103, time=1),
    Message('note_on', channel=0, note=53, velocity=0, time=411),
    Message('note_on', channel=0, note=52, velocity=127, time=95),
    Message('note_on', channel=0, note=52, velocity=0, time=110),
    Message('note_on', channel=0, note=53, velocity=118, time=22),
    Message('note_on', channel=0, note=53, velocity=0, time=52),
    Message('note_on', channel=0, note=52, velocity=127, time=5),
    Message('note_on', channel=0, note=52, velocity=0, time=49),
    Message('note_on', channel=0, note=53, velocity=127, time=21),
    Message('note_on', channel=0, note=53, velocity=0, time=364),
    Message('note_on', channel=0, note=55, velocity=127, time=26),
    Message('note_on', channel=0, note=55, velocity=0, time=184),
    Message('note_on', channel=0, note=50, velocity=118, time=7),
    Message('note_on', channel=0, note=50, velocity=0, time=108),
    Message('note_on', channel=0, note=53, velocity=127, time=11),
    Message('note_on', channel=0, note=53, velocity=0, time=60),
    Message('note_on', channel=0, note=53, velocity=127, time=12),
    Message('note_on', channel=0, note=53, velocity=0, time=120),
    Message('note_on', channel=0, note=52, velocity=118, time=24),
    Message('note_on', channel=0, note=48, velocity=127, time=427),
    Message('note_on', channel=0, note=52, velocity=0, time=29),
    Message('note_on', channel=0, note=48, velocity=0, time=117),
    Message('note_on', channel=0, note=55, velocity=127, time=60),
    Message('note_on', channel=0, note=55, velocity=0, time=439),
    Message('note_on', channel=0, note=57, velocity=32, time=75),
    Message('note_on', channel=0, note=57, velocity=0, time=68),
    Message('note_on', channel=0, note=57, velocity=127, time=37),
    Message('note_on', channel=0, note=57, velocity=0, time=30),
    Message('note_on', channel=0, note=55, velocity=127, time=22),
    Message('note_on', channel=0, note=57, velocity=113, time=34),
    Message('note_on', channel=0, note=55, velocity=0, time=5),
    Message('note_on', channel=0, note=57, velocity=0, time=36),
    Message('note_on', channel=0, note=55, velocity=118, time=12),
    Message('note_on', channel=0, note=52, velocity=127, time=383),
    Message('note_on', channel=0, note=55, velocity=0, time=15),
    Message('note_on', channel=0, note=52, velocity=0, time=101),
    Message('note_on', channel=0, note=53, velocity=127, time=16),
    Message('note_on', channel=0, note=55, velocity=127, time=121),
    Message('note_on', channel=0, note=53, velocity=0, time=5),
    Message('note_on', channel=0, note=55, velocity=0, time=124),
    Message('note_on', channel=0, note=53, velocity=127, time=10),
    Message('note_on', channel=0, note=53, velocity=0, time=491),
    Message('note_on', channel=0, note=52, velocity=127, time=23),
    Message('note_on', channel=0, note=52, velocity=0, time=131),
    Message('note_on', channel=0, note=53, velocity=106, time=0),
    Message('note_on', channel=0, note=53, velocity=0, time=48),
    Message('note_on', channel=0, note=52, velocity=127, time=0),
    Message('note_on', channel=0, note=52, velocity=0, time=47),
    Message('note_on', channel=0, note=55, velocity=127, time=25),
    Message('note_on', channel=0, note=55, velocity=0, time=65),
    Message('note_on', channel=0, note=53, velocity=110, time=2),
    Message('note_on', channel=0, note=53, velocity=0, time=459),
    Message('note_on', channel=0, note=53, velocity=122, time=54),
    Message('note_on', channel=0, note=55, velocity=127, time=57),
    Message('note_on', channel=0, note=53, velocity=0, time=9),
    Message('note_on', channel=0, note=55, velocity=0, time=49),
    Message('note_on', channel=0, note=53, velocity=122, time=2),
    Message('note_on', channel=0, note=53, velocity=0, time=57),
    Message('note_on', channel=0, note=52, velocity=127, time=9),
    Message('note_on', channel=0, note=52, velocity=0, time=345),
    Message('note_on', channel=0, note=43, velocity=122, time=85),
    Message('note_on', channel=0, note=43, velocity=0, time=99),
    Message('note_on', channel=0, note=51, velocity=55, time=45),
    Message('note_on', channel=0, note=52, velocity=92, time=13),
    Message('note_on', channel=0, note=53, velocity=94, time=5),
    Message('note_on', channel=0, note=51, velocity=0, time=9),
    Message('note_on', channel=0, note=52, velocity=0, time=8),
    Message('note_on', channel=0, note=53, velocity=0, time=56),
    Message('note_on', channel=0, note=52, velocity=122, time=4),
    Message('note_on', channel=0, note=52, velocity=0, time=60),
    Message('note_on', channel=0, note=50, velocity=127, time=32),
    Message('note_on', channel=0, note=50, velocity=0, time=390),
    Message('note_on', channel=0, note=47, velocity=127, time=7),
    Message('note_on', channel=0, note=47, velocity=0, time=132),
    Message('note_on', channel=0, note=48, velocity=127, time=7),
    Message('note_on', channel=0, note=48, velocity=0, time=101),
    Message('note_on', channel=0, note=50, velocity=127, time=18),
    Message('note_on', channel=0, note=50, velocity=0, time=101),
    Message('note_on', channel=0, note=50, velocity=94, time=19),
    Message('note_on', channel=0, note=50, velocity=0, time=562),
    Message('note_on', channel=0, note=50, velocity=122, time=24),
    Message('note_on', channel=0, note=52, velocity=45, time=64),
    Message('note_on', channel=0, note=50, velocity=0, time=4),
    Message('note_on', channel=0, note=52, velocity=0, time=42),
    Message('note_on', channel=0, note=50, velocity=110, time=7),
    Message('note_on', channel=0, note=50, velocity=0, time=63),
    Message('note_on', channel=0, note=48, velocity=127, time=17),
    Message('note_on', channel=0, note=48, velocity=0, time=240),
    Message('note_on', channel=0, note=64, velocity=127, time=143),
    Message('note_on', channel=0, note=64, velocity=0, time=96),
    Message('note_on', channel=0, note=65, velocity=127, time=31),
    Message('note_on', channel=0, note=65, velocity=0, time=88),
    Message('note_on', channel=0, note=67, velocity=127, time=28),
    Message('note_on', channel=0, note=67, velocity=0, time=115),
    Message('note_on', channel=0, note=67, velocity=127, time=33),
    Message('note_on', channel=0, note=67, velocity=0, time=221),
    Message('note_on', channel=0, note=69, velocity=127, time=273),
    Message('note_on', channel=0, note=67, velocity=127, time=122),
    Message('note_on', channel=0, note=69, velocity=0, time=2),
    Message('note_on', channel=0, note=67, velocity=0, time=41),
    Message('note_on', channel=0, note=66, velocity=127, time=8),
    Message('note_on', channel=0, note=66, velocity=0, time=40),
    Message('note_on', channel=0, note=67, velocity=127, time=0),
    Message('note_on', channel=0, note=67, velocity=0, time=459),
    Message('note_on', channel=0, note=64, velocity=127, time=87),
    Message('note_on', channel=0, note=64, velocity=0, time=90),
    Message('note_on', channel=0, note=65, velocity=127, time=10),
    Message('note_on', channel=0, note=65, velocity=0, time=60),
    Message('note_on', channel=0, note=67, velocity=127, time=0),
    Message('note_on', channel=0, note=67, velocity=0, time=80),
    Message('note_on', channel=0, note=69, velocity=127, time=23),
    Message('note_on', channel=0, note=69, velocity=0, time=569),
    Message('note_on', channel=0, note=70, velocity=127, time=26),
    Message('note_on', channel=0, note=70, velocity=0, time=51),
    Message('note_on', channel=0, note=69, velocity=127, time=11),
    Message('note_on', channel=0, note=69, velocity=0, time=52),
    Message('note_on', channel=0, note=68, velocity=127, time=2),
    Message('note_on', channel=0, note=68, velocity=0, time=69),
    Message('note_on', channel=0, note=69, velocity=127, time=0),
    Message('note_on', channel=0, note=69, velocity=0, time=468),
    Message('note_on', channel=0, note=69, velocity=127, time=25),
    Message('note_on', channel=0, note=69, velocity=0, time=61),
    Message('note_on', channel=0, note=71, velocity=127, time=24),
    Message('note_on', channel=0, note=71, velocity=0, time=47),
    Message('note_on', channel=0, note=72, velocity=127, time=12),
    Message('note_on', channel=0, note=72, velocity=0, time=110),
    Message('note_on', channel=0, note=72, velocity=127, time=24),
    Message('note_on', channel=0, note=72, velocity=0, time=363),
    Message('note_on', channel=0, note=69, velocity=127, time=13),
    Message('note_on', channel=0, note=69, velocity=0, time=118),
    Message('note_on', channel=0, note=72, velocity=127, time=19),
    Message('note_on', channel=0, note=72, velocity=0, time=112),
    Message('note_on', channel=0, note=74, velocity=127, time=7),
    Message('note_on', channel=0, note=74, velocity=0, time=36),
    Message('note_on', channel=0, note=72, velocity=127, time=3),
    Message('note_on', channel=0, note=72, velocity=0, time=72),
    Message('note_on', channel=0, note=71, velocity=127, time=11),
    Message('note_on', channel=0, note=71, velocity=0, time=464),
    Message('note_on', channel=0, note=71, velocity=127, time=35),
    Message('note_on', channel=0, note=71, velocity=0, time=82),
    Message('note_on', channel=0, note=72, velocity=127, time=7),
    Message('note_on', channel=0, note=72, velocity=0, time=40),
    Message('note_on', channel=0, note=74, velocity=127, time=15),
    Message('note_on', channel=0, note=74, velocity=0, time=111),
    Message('note_on', channel=0, note=74, velocity=127, time=27),
    Message('note_on', channel=0, note=74, velocity=0, time=448),
    Message('note_on', channel=0, note=74, velocity=127, time=30),
    Message('note_on', channel=0, note=74, velocity=0, time=97),
    Message('note_on', channel=0, note=76, velocity=127, time=9),
    Message('note_on', channel=0, note=76, velocity=0, time=72),
    Message('note_on', channel=0, note=74, velocity=127, time=9),
    Message('note_on', channel=0, note=74, velocity=0, time=81),
    Message('note_on', channel=0, note=72, velocity=127, time=15),
    Message('note_on', channel=0, note=72, velocity=0, time=435),
    Message('note_on', channel=0, note=72, velocity=127, time=54),
    Message('note_on', channel=0, note=72, velocity=0, time=80),
    Message('note_on', channel=0, note=72, velocity=127, time=21),
    Message('note_on', channel=0, note=72, velocity=0, time=75),
    Message('note_on', channel=0, note=72, velocity=127, time=16),
    Message('note_on', channel=0, note=72, velocity=0, time=81),
    Message('note_on', channel=0, note=72, velocity=127, time=16),
    Message('note_on', channel=0, note=69, velocity=127, time=475),
    Message('note_on', channel=0, note=72, velocity=0, time=12),
    Message('note_on', channel=0, note=69, velocity=0, time=72),
    Message('note_on', channel=0, note=72, velocity=127, time=17),
    Message('note_on', channel=0, note=72, velocity=0, time=32),
    Message('note_on', channel=0, note=74, velocity=127, time=16),
    Message('note_on', channel=0, note=74, velocity=0, time=39),
    Message('note_on', channel=0, note=72, velocity=127, time=12),
    Message('note_on', channel=0, note=72, velocity=0, time=67),
    Message('note_on', channel=0, note=71, velocity=127, time=23),
    Message('note_on', channel=0, note=71, velocity=0, time=344),
    Message('note_on', channel=0, note=71, velocity=127, time=36),
    Message('note_on', channel=0, note=71, velocity=0, time=90),
    Message('note_on', channel=0, note=72, velocity=127, time=28),
    Message('note_on', channel=0, note=72, velocity=0, time=104),
    Message('note_on', channel=0, note=74, velocity=127, time=23),
    Message('note_on', channel=0, note=74, velocity=0, time=111),
    Message('note_on', channel=0, note=74, velocity=127, time=24),
    Message('note_on', channel=0, note=74, velocity=0, time=759),
    Message('note_on', channel=0, note=72, velocity=127, time=15),
    Message('note_on', channel=0, note=72, velocity=0, time=636),
    Message('note_on', channel=0, note=79, velocity=127, time=121),
    Message('note_on', channel=0, note=79, velocity=0, time=384),
    MetaMessage('end_of_track', time=0)]),
  MidiTrack([
    MetaMessage('midi_port', port=0, time=0),
    MetaMessage('track_name', name='bass2               ', time=0),
    Message('program_change', channel=1, program=35, time=0),
    Message('control_change', channel=1, control=7, value=100, time=0),
    Message('note_on', channel=1, note=36, velocity=118, time=1536),
    Message('note_on', channel=1, note=36, velocity=0, time=208),
    Message('note_on', channel=1, note=40, velocity=105, time=112),
    Message('note_on', channel=1, note=43, velocity=118, time=64),
    Message('note_on', channel=1, note=40, velocity=0, time=9),
    Message('note_on', channel=1, note=40, velocity=118, time=183),
    Message('note_on', channel=1, note=43, velocity=0, time=8),
    Message('note_on', channel=1, note=43, velocity=118, time=120),
    Message('note_on', channel=1, note=40, velocity=0, time=17),
    Message('note_on', channel=1, note=43, velocity=0, time=21),
    Message('note_on', channel=1, note=36, velocity=118, time=26),
    Message('note_on', channel=1, note=36, velocity=0, time=222),
    Message('note_on', channel=1, note=40, velocity=118, time=98),
    Message('note_on', channel=1, note=43, velocity=118, time=64),
    Message('note_on', channel=1, note=40, velocity=0, time=8),
    Message('note_on', channel=1, note=43, velocity=0, time=185),
    Message('note_on', channel=1, note=40, velocity=105, time=0),
    Message('note_on', channel=1, note=43, velocity=120, time=127),
    Message('note_on', channel=1, note=40, velocity=0, time=3),
    Message('note_on', channel=1, note=43, velocity=0, time=48),
    Message('note_on', channel=1, note=36, velocity=118, time=13),
    Message('note_on', channel=1, note=36, velocity=0, time=208),
    Message('note_on', channel=1, note=40, velocity=105, time=112),
    Message('note_on', channel=1, note=43, velocity=118, time=64),
    Message('note_on', channel=1, note=40, velocity=0, time=9),
    Message('note_on', channel=1, note=40, velocity=118, time=183),
    Message('note_on', channel=1, note=43, velocity=0, time=8),
    Message('note_on', channel=1, note=43, velocity=118, time=120),
    Message('note_on', channel=1, note=40, velocity=0, time=17),
    Message('note_on', channel=1, note=43, velocity=0, time=21),
    Message('note_on', channel=1, note=36, velocity=118, time=26),
    Message('note_on', channel=1, note=36, velocity=0, time=222),
    Message('note_on', channel=1, note=40, velocity=118, time=98),
    Message('note_on', channel=1, note=43, velocity=118, time=64),
    Message('note_on', channel=1, note=40, velocity=0, time=8),
    Message('note_on', channel=1, note=43, velocity=0, time=185),
    Message('note_on', channel=1, note=40, velocity=105, time=0),
    Message('note_on', channel=1, note=43, velocity=120, time=127),
    Message('note_on', channel=1, note=40, velocity=0, time=3),
    Message('note_on', channel=1, note=43, velocity=0, time=48),
    Message('note_on', channel=1, note=36, velocity=112, time=13),
    Message('note_on', channel=1, note=36, velocity=0, time=308),
    Message('note_on', channel=1, note=40, velocity=112, time=12),
    Message('note_on', channel=1, note=40, velocity=0, time=68),
    Message('note_on', channel=1, note=43, velocity=112, time=0),
    Message('note_on', channel=1, note=43, velocity=0, time=192),
    Message('note_on', channel=1, note=40, velocity=112, time=0),
    Message('note_on', channel=1, note=40, velocity=0, time=117),
    Message('note_on', channel=1, note=43, velocity=127, time=7),
    Message('note_on', channel=1, note=43, velocity=0, time=57),
    Message('note_on', channel=1, note=40, velocity=112, time=7),
    Message('note_on', channel=1, note=40, velocity=0, time=308),
    Message('note_on', channel=1, note=43, velocity=112, time=12),
    Message('note_on', channel=1, note=43, velocity=0, time=68),
    Message('note_on', channel=1, note=47, velocity=112, time=0),
    Message('note_on', channel=1, note=47, velocity=0, time=192),
    Message('note_on', channel=1, note=43, velocity=112, time=0),
    Message('note_on', channel=1, note=43, velocity=0, time=117),
    Message('note_on', channel=1, note=47, velocity=127, time=7),
    Message('note_on', channel=1, note=47, velocity=0, time=57),
    Message('note_on', channel=1, note=43, velocity=112, time=7),
    Message('note_on', channel=1, note=43, velocity=0, time=308),
    Message('note_on', channel=1, note=46, velocity=112, time=12),
    Message('note_on', channel=1, note=46, velocity=0, time=68),
    Message('note_on', channel=1, note=50, velocity=112, time=0),
    Message('note_on', channel=1, note=50, velocity=0, time=192),
    Message('note_on', channel=1, note=46, velocity=112, time=0),
    Message('note_on', channel=1, note=46, velocity=0, time=117),
    Message('note_on', channel=1, note=50, velocity=127, time=7),
    Message('note_on', channel=1, note=50, velocity=0, time=57),
    Message('note_on', channel=1, note=33, velocity=112, time=7),
    Message('note_on', channel=1, note=33, velocity=0, time=308),
    Message('note_on', channel=1, note=37, velocity=112, time=12),
    Message('note_on', channel=1, note=37, velocity=0, time=68),
    Message('note_on', channel=1, note=40, velocity=112, time=0),
    Message('note_on', channel=1, note=40, velocity=0, time=192),
    Message('note_on', channel=1, note=37, velocity=112, time=0),
    Message('note_on', channel=1, note=37, velocity=0, time=117),
    Message('note_on', channel=1, note=40, velocity=127, time=7),
    Message('note_on', channel=1, note=40, velocity=0, time=57),
    Message('note_on', channel=1, note=38, velocity=112, time=7),
    Message('note_on', channel=1, note=38, velocity=0, time=308),
    Message('note_on', channel=1, note=41, velocity=112, time=12),
    Message('note_on', channel=1, note=41, velocity=0, time=68),
    Message('note_on', channel=1, note=45, velocity=112, time=0),
    Message('note_on', channel=1, note=45, velocity=0, time=192),
    Message('note_on', channel=1, note=41, velocity=112, time=0),
    Message('note_on', channel=1, note=41, velocity=0, time=117),
    Message('note_on', channel=1, note=45, velocity=127, time=7),
    Message('note_on', channel=1, note=45, velocity=0, time=57),
    Message('note_on', channel=1, note=38, velocity=112, time=7),
    Message('note_on', channel=1, note=38, velocity=0, time=308),
    Message('note_on', channel=1, note=41, velocity=112, time=12),
    Message('note_on', channel=1, note=41, velocity=0, time=68),
    Message('note_on', channel=1, note=45, velocity=112, time=0),
    Message('note_on', channel=1, note=45, velocity=0, time=192),
    Message('note_on', channel=1, note=41, velocity=112, time=0),
    Message('note_on', channel=1, note=41, velocity=0, time=117),
    Message('note_on', channel=1, note=45, velocity=127, time=7),
    Message('note_on', channel=1, note=45, velocity=0, time=57),
    Message('note_on', channel=1, note=43, velocity=112, time=7),
    Message('note_on', channel=1, note=43, velocity=0, time=308),
    Message('note_on', channel=1, note=47, velocity=112, time=12),
    Message('note_on', channel=1, note=47, velocity=0, time=68),
    Message('note_on', channel=1, note=50, velocity=112, time=0),
    Message('note_on', channel=1, note=50, velocity=0, time=192),
    Message('note_on', channel=1, note=47, velocity=112, time=0),
    Message('note_on', channel=1, note=47, velocity=0, time=117),
    Message('note_on', channel=1, note=50, velocity=127, time=7),
    Message('note_on', channel=1, note=50, velocity=0, time=57),
    Message('note_on', channel=1, note=36, velocity=112, time=7),
    Message('note_on', channel=1, note=36, velocity=0, time=308),
    Message('note_on', channel=1, note=40, velocity=112, time=12),
    Message('note_on', channel=1, note=40, velocity=0, time=68),
    Message('note_on', channel=1, note=43, velocity=112, time=0),
    Message('note_on', channel=1, note=43, velocity=0, time=192),
    Message('note_on', channel=1, note=40, velocity=112, time=0),
    Message('note_on', channel=1, note=40, velocity=0, time=117),
    Message('note_on', channel=1, note=43, velocity=127, time=7),
    Message('note_on', channel=1, note=43, velocity=0, time=57),
    Message('note_on', channel=1, note=36, velocity=122, time=7),
    Message('note_on', channel=1, note=36, velocity=0, time=220),
    Message('note_on', channel=1, note=40, velocity=109, time=100),
    Message('note_on', channel=1, note=40, velocity=0, time=48),
    Message('note_on', channel=1, note=48, velocity=107, time=16),
    Message('note_on', channel=1, note=43, velocity=120, time=192),
    Message('note_on', channel=1, note=48, velocity=0, time=4),
    Message('note_on', channel=1, note=48, velocity=120, time=124),
    Message('note_on', channel=1, note=43, velocity=0, time=4),
    Message('note_on', channel=1, note=48, velocity=0, time=55),
    Message('note_on', channel=1, note=36, velocity=112, time=5),
    Message('note_on', channel=1, note=36, velocity=0, time=308),
    Message('note_on', channel=1, note=40, velocity=112, time=12),
    Message('note_on', channel=1, note=40, velocity=0, time=68),
    Message('note_on', channel=1, note=43, velocity=112, time=0),
    Message('note_on', channel=1, note=43, velocity=0, time=192),
    Message('note_on', channel=1, note=40, velocity=112, time=0),
    Message('note_on', channel=1, note=40, velocity=0, time=117),
    Message('note_on', channel=1, note=43, velocity=127, time=7),
    Message('note_on', channel=1, note=43, velocity=0, time=57),
    Message('note_on', channel=1, note=41, velocity=112, time=7),
    Message('note_on', channel=1, note=41, velocity=0, time=308),
    Message('note_on', channel=1, note=45, velocity=112, time=12),
    Message('note_on', channel=1, note=45, velocity=0, time=68),
    Message('note_on', channel=1, note=48, velocity=112, time=0),
    Message('note_on', channel=1, note=48, velocity=0, time=192),
    Message('note_on', channel=1, note=45, velocity=112, time=0),
    Message('note_on', channel=1, note=45, velocity=0, time=117),
    Message('note_on', channel=1, note=48, velocity=127, time=7),
    Message('note_on', channel=1, note=48, velocity=0, time=57),
    Message('note_on', channel=1, note=41, velocity=112, time=7),
    Message('note_on', channel=1, note=41, velocity=0, time=308),
    Message('note_on', channel=1, note=44, velocity=112, time=12),
    Message('note_on', channel=1, note=44, velocity=0, time=68),
    Message('note_on', channel=1, note=48, velocity=112, time=0),
    Message('note_on', channel=1, note=48, velocity=0, time=192),
    Message('note_on', channel=1, note=44, velocity=112, time=0),
    Message('note_on', channel=1, note=44, velocity=0, time=117),
    Message('note_on', channel=1, note=48, velocity=127, time=7),
    Message('note_on', channel=1, note=48, velocity=0, time=57),
    Message('note_on', channel=1, note=36, velocity=112, time=7),
    Message('note_on', channel=1, note=36, velocity=0, time=308),
    Message('note_on', channel=1, note=40, velocity=112, time=12),
    Message('note_on', channel=1, note=40, velocity=0, time=68),
    Message('note_on', channel=1, note=43, velocity=112, time=0),
    Message('note_on', channel=1, note=43, velocity=0, time=192),
    Message('note_on', channel=1, note=40, velocity=112, time=0),
    Message('note_on', channel=1, note=40, velocity=0, time=117),
    Message('note_on', channel=1, note=43, velocity=127, time=7),
    Message('note_on', channel=1, note=43, velocity=0, time=57),
    Message('note_on', channel=1, note=43, velocity=112, time=7),
    Message('note_on', channel=1, note=43, velocity=0, time=308),
    Message('note_on', channel=1, note=47, velocity=112, time=12),
    Message('note_on', channel=1, note=47, velocity=0, time=68),
    Message('note_on', channel=1, note=50, velocity=112, time=0),
    Message('note_on', channel=1, note=50, velocity=0, time=192),
    Message('note_on', channel=1, note=47, velocity=112, time=0),
    Message('note_on', channel=1, note=47, velocity=0, time=117),
    Message('note_on', channel=1, note=50, velocity=127, time=7),
    Message('note_on', channel=1, note=50, velocity=0, time=57),
    Message('note_on', channel=1, note=41, velocity=112, time=7),
    Message('note_on', channel=1, note=41, velocity=0, time=308),
    Message('note_on', channel=1, note=45, velocity=112, time=12),
    Message('note_on', channel=1, note=45, velocity=0, time=68),
    Message('note_on', channel=1, note=48, velocity=112, time=0),
    Message('note_on', channel=1, note=48, velocity=0, time=192),
    Message('note_on', channel=1, note=45, velocity=112, time=0),
    Message('note_on', channel=1, note=45, velocity=0, time=117),
    Message('note_on', channel=1, note=48, velocity=127, time=7),
    Message('note_on', channel=1, note=48, velocity=0, time=57),
    Message('note_on', channel=1, note=36, velocity=115, time=7),
    Message('note_on', channel=1, note=36, velocity=0, time=32),
    Message('note_on', channel=1, note=36, velocity=115, time=32),
    Message('note_on', channel=1, note=36, velocity=0, time=36),
    Message('note_on', channel=1, note=36, velocity=115, time=28),
    Message('note_on', channel=1, note=36, velocity=0, time=33),
    Message('note_on', channel=1, note=36, velocity=115, time=31),
    Message('note_on', channel=1, note=36, velocity=0, time=33),
    Message('note_on', channel=1, note=35, velocity=117, time=31),
    Message('note_on', channel=1, note=35, velocity=0, time=41),
    Message('note_on', channel=1, note=33, velocity=117, time=23),
    Message('note_on', channel=1, note=33, velocity=0, time=38),
    Message('note_on', channel=1, note=31, velocity=115, time=26),
    Message('note_on', channel=1, note=31, velocity=0, time=36),
    Message('note_on', channel=1, note=31, velocity=115, time=28),
    Message('note_on', channel=1, note=31, velocity=0, time=38),
    Message('note_on', channel=1, note=31, velocity=115, time=26),
    Message('note_on', channel=1, note=31, velocity=0, time=28),
    Message('note_on', channel=1, note=31, velocity=115, time=36),
    Message('note_on', channel=1, note=31, velocity=0, time=33),
    Message('note_on', channel=1, note=33, velocity=115, time=31),
    Message('note_on', channel=1, note=33, velocity=0, time=32),
    Message('note_on', channel=1, note=35, velocity=117, time=32),
    Message('note_on', channel=1, note=35, velocity=0, time=32),
    Message('note_on', channel=1, note=36, velocity=112, time=32),
    Message('note_on', channel=1, note=36, velocity=0, time=308),
    Message('note_on', channel=1, note=40, velocity=112, time=12),
    Message('note_on', channel=1, note=40, velocity=0, time=68),
    Message('note_on', channel=1, note=43, velocity=112, time=0),
    Message('note_on', channel=1, note=43, velocity=0, time=192),
    Message('note_on', channel=1, note=40, velocity=112, time=0),
    Message('note_on', channel=1, note=40, velocity=0, time=117),
    Message('note_on', channel=1, note=43, velocity=127, time=7),
    Message('note_on', channel=1, note=43, velocity=0, time=57),
    Message('note_on', channel=1, note=40, velocity=112, time=7),
    Message('note_on', channel=1, note=40, velocity=0, time=308),
    Message('note_on', channel=1, note=43, velocity=112, time=12),
    Message('note_on', channel=1, note=43, velocity=0, time=68),
    Message('note_on', channel=1, note=47, velocity=112, time=0),
    Message('note_on', channel=1, note=47, velocity=0, time=192),
    Message('note_on', channel=1, note=43, velocity=112, time=0),
    Message('note_on', channel=1, note=43, velocity=0, time=117),
    Message('note_on', channel=1, note=47, velocity=127, time=7),
    Message('note_on', channel=1, note=47, velocity=0, time=57),
    Message('note_on', channel=1, note=43, velocity=112, time=7),
    Message('note_on', channel=1, note=43, velocity=0, time=308),
    Message('note_on', channel=1, note=46, velocity=112, time=12),
    Message('note_on', channel=1, note=46, velocity=0, time=68),
    Message('note_on', channel=1, note=50, velocity=112, time=0),
    Message('note_on', channel=1, note=50, velocity=0, time=192),
    Message('note_on', channel=1, note=46, velocity=112, time=0),
    Message('note_on', channel=1, note=46, velocity=0, time=117),
    Message('note_on', channel=1, note=50, velocity=127, time=7),
    Message('note_on', channel=1, note=50, velocity=0, time=57),
    Message('note_on', channel=1, note=33, velocity=112, time=7),
    Message('note_on', channel=1, note=33, velocity=0, time=308),
    Message('note_on', channel=1, note=37, velocity=112, time=12),
    Message('note_on', channel=1, note=37, velocity=0, time=68),
    Message('note_on', channel=1, note=40, velocity=112, time=0),
    Message('note_on', channel=1, note=40, velocity=0, time=192),
    Message('note_on', channel=1, note=37, velocity=112, time=0),
    Message('note_on', channel=1, note=37, velocity=0, time=117),
    Message('note_on', channel=1, note=40, velocity=127, time=7),
    Message('note_on', channel=1, note=40, velocity=0, time=57),
    Message('note_on', channel=1, note=38, velocity=112, time=7),
    Message('note_on', channel=1, note=38, velocity=0, time=308),
    Message('note_on', channel=1, note=41, velocity=112, time=12),
    Message('note_on', channel=1, note=41, velocity=0, time=68),
    Message('note_on', channel=1, note=45, velocity=112, time=0),
    Message('note_on', channel=1, note=45, velocity=0, time=192),
    Message('note_on', channel=1, note=41, velocity=112, time=0),
    Message('note_on', channel=1, note=41, velocity=0, time=117),
    Message('note_on', channel=1, note=45, velocity=127, time=7),
    Message('note_on', channel=1, note=45, velocity=0, time=57),
    Message('note_on', channel=1, note=38, velocity=112, time=7),
    Message('note_on', channel=1, note=38, velocity=0, time=308),
    Message('note_on', channel=1, note=41, velocity=112, time=12),
    Message('note_on', channel=1, note=41, velocity=0, time=68),
    Message('note_on', channel=1, note=45, velocity=112, time=0),
    Message('note_on', channel=1, note=45, velocity=0, time=192),
    Message('note_on', channel=1, note=41, velocity=112, time=0),
    Message('note_on', channel=1, note=41, velocity=0, time=117),
    Message('note_on', channel=1, note=45, velocity=127, time=7),
    Message('note_on', channel=1, note=45, velocity=0, time=57),
    Message('note_on', channel=1, note=43, velocity=112, time=7),
    Message('note_on', channel=1, note=43, velocity=0, time=308),
    Message('note_on', channel=1, note=47, velocity=112, time=12),
    Message('note_on', channel=1, note=47, velocity=0, time=68),
    Message('note_on', channel=1, note=50, velocity=112, time=0),
    Message('note_on', channel=1, note=50, velocity=0, time=192),
    Message('note_on', channel=1, note=47, velocity=112, time=0),
    Message('note_on', channel=1, note=47, velocity=0, time=117),
    Message('note_on', channel=1, note=50, velocity=127, time=7),
    Message('note_on', channel=1, note=50, velocity=0, time=57),
    Message('note_on', channel=1, note=36, velocity=112, time=7),
    Message('note_on', channel=1, note=36, velocity=0, time=308),
    Message('note_on', channel=1, note=40, velocity=112, time=12),
    Message('note_on', channel=1, note=40, velocity=0, time=68),
    Message('note_on', channel=1, note=43, velocity=112, time=0),
    Message('note_on', channel=1, note=43, velocity=0, time=192),
    Message('note_on', channel=1, note=40, velocity=112, time=0),
    Message('note_on', channel=1, note=40, velocity=0, time=117),
    Message('note_on', channel=1, note=43, velocity=127, time=7),
    Message('note_on', channel=1, note=43, velocity=0, time=57),
    Message('note_on', channel=1, note=36, velocity=122, time=7),
    Message('note_on', channel=1, note=36, velocity=0, time=220),
    Message('note_on', channel=1, note=40, velocity=109, time=100),
    Message('note_on', channel=1, note=40, velocity=0, time=48),
    Message('note_on', channel=1, note=48, velocity=107, time=16),
    Message('note_on', channel=1, note=43, velocity=120, time=192),
    Message('note_on', channel=1, note=48, velocity=0, time=4),
    Message('note_on', channel=1, note=48, velocity=120, time=124),
    Message('note_on', channel=1, note=43, velocity=0, time=4),
    Message('note_on', channel=1, note=48, velocity=0, time=55),
    Message('note_on', channel=1, note=36, velocity=112, time=5),
    Message('note_on', channel=1, note=36, velocity=0, time=308),
    Message('note_on', channel=1, note=40, velocity=112, time=12),
    Message('note_on', channel=1, note=40, velocity=0, time=68),
    Message('note_on', channel=1, note=43, velocity=112, time=0),
    Message('note_on', channel=1, note=43, velocity=0, time=192),
    Message('note_on', channel=1, note=40, velocity=112, time=0),
    Message('note_on', channel=1, note=40, velocity=0, time=117),
    Message('note_on', channel=1, note=43, velocity=127, time=7),
    Message('note_on', channel=1, note=43, velocity=0, time=57),
    Message('note_on', channel=1, note=41, velocity=112, time=7),
    Message('note_on', channel=1, note=41, velocity=0, time=308),
    Message('note_on', channel=1, note=45, velocity=112, time=12),
    Message('note_on', channel=1, note=45, velocity=0, time=68),
    Message('note_on', channel=1, note=48, velocity=112, time=0),
    Message('note_on', channel=1, note=48, velocity=0, time=192),
    Message('note_on', channel=1, note=45, velocity=112, time=0),
    Message('note_on', channel=1, note=45, velocity=0, time=117),
    Message('note_on', channel=1, note=48, velocity=127, time=7),
    Message('note_on', channel=1, note=48, velocity=0, time=57),
    Message('note_on', channel=1, note=41, velocity=112, time=7),
    Message('note_on', channel=1, note=41, velocity=0, time=308),
    Message('note_on', channel=1, note=44, velocity=112, time=12),
    Message('note_on', channel=1, note=44, velocity=0, time=68),
    Message('note_on', channel=1, note=48, velocity=112, time=0),
    Message('note_on', channel=1, note=48, velocity=0, time=192),
    Message('note_on', channel=1, note=44, velocity=112, time=0),
    Message('note_on', channel=1, note=44, velocity=0, time=117),
    Message('note_on', channel=1, note=48, velocity=127, time=7),
    Message('note_on', channel=1, note=48, velocity=0, time=57),
    Message('note_on', channel=1, note=36, velocity=112, time=7),
    Message('note_on', channel=1, note=36, velocity=0, time=308),
    Message('note_on', channel=1, note=40, velocity=112, time=12),
    Message('note_on', channel=1, note=40, velocity=0, time=68),
    Message('note_on', channel=1, note=43, velocity=112, time=0),
    Message('note_on', channel=1, note=43, velocity=0, time=192),
    Message('note_on', channel=1, note=40, velocity=112, time=0),
    Message('note_on', channel=1, note=40, velocity=0, time=117),
    Message('note_on', channel=1, note=43, velocity=127, time=7),
    Message('note_on', channel=1, note=43, velocity=0, time=57),
    Message('note_on', channel=1, note=43, velocity=112, time=7),
    Message('note_on', channel=1, note=43, velocity=0, time=308),
    Message('note_on', channel=1, note=47, velocity=112, time=12),
    Message('note_on', channel=1, note=47, velocity=0, time=68),
    Message('note_on', channel=1, note=50, velocity=112, time=0),
    Message('note_on', channel=1, note=50, velocity=0, time=192),
    Message('note_on', channel=1, note=47, velocity=112, time=0),
    Message('note_on', channel=1, note=47, velocity=0, time=117),
    Message('note_on', channel=1, note=50, velocity=127, time=7),
    Message('note_on', channel=1, note=50, velocity=0, time=57),
    Message('note_on', channel=1, note=41, velocity=112, time=7),
    Message('note_on', channel=1, note=41, velocity=0, time=308),
    Message('note_on', channel=1, note=45, velocity=112, time=12),
    Message('note_on', channel=1, note=45, velocity=0, time=68),
    Message('note_on', channel=1, note=48, velocity=112, time=0),
    Message('note_on', channel=1, note=48, velocity=0, time=192),
    Message('note_on', channel=1, note=45, velocity=112, time=0),
    Message('note_on', channel=1, note=45, velocity=0, time=117),
    Message('note_on', channel=1, note=48, velocity=127, time=7),
    Message('note_on', channel=1, note=48, velocity=0, time=57),
    Message('note_on', channel=1, note=36, velocity=115, time=7),
    Message('note_on', channel=1, note=36, velocity=0, time=32),
    Message('note_on', channel=1, note=36, velocity=115, time=32),
    Message('note_on', channel=1, note=36, velocity=0, time=36),
    Message('note_on', channel=1, note=36, velocity=115, time=28),
    Message('note_on', channel=1, note=36, velocity=0, time=33),
    Message('note_on', channel=1, note=36, velocity=115, time=31),
    Message('note_on', channel=1, note=36, velocity=0, time=33),
    Message('note_on', channel=1, note=35, velocity=117, time=31),
    Message('note_on', channel=1, note=35, velocity=0, time=41),
    Message('note_on', channel=1, note=33, velocity=117, time=23),
    Message('note_on', channel=1, note=33, velocity=0, time=38),
    Message('note_on', channel=1, note=31, velocity=115, time=26),
    Message('note_on', channel=1, note=31, velocity=0, time=36),
    Message('note_on', channel=1, note=31, velocity=115, time=28),
    Message('note_on', channel=1, note=31, velocity=0, time=38),
    Message('note_on', channel=1, note=31, velocity=115, time=26),
    Message('note_on', channel=1, note=31, velocity=0, time=28),
    Message('note_on', channel=1, note=31, velocity=115, time=36),
    Message('note_on', channel=1, note=31, velocity=0, time=33),
    Message('note_on', channel=1, note=33, velocity=115, time=31),
    Message('note_on', channel=1, note=33, velocity=0, time=32),
    Message('note_on', channel=1, note=35, velocity=117, time=32),
    Message('note_on', channel=1, note=35, velocity=0, time=32),
    Message('note_on', channel=1, note=36, velocity=117, time=32),
    Message('note_on', channel=1, note=36, velocity=0, time=46),
    Message('note_on', channel=1, note=36, velocity=115, time=18),
    Message('note_on', channel=1, note=36, velocity=0, time=30),
    Message('note_on', channel=1, note=36, velocity=115, time=34),
    Message('note_on', channel=1, note=36, velocity=0, time=36),
    Message('note_on', channel=1, note=36, velocity=117, time=28),
    Message('note_on', channel=1, note=36, velocity=0, time=28),
    Message('note_on', channel=1, note=36, velocity=115, time=164),
    Message('note_on', channel=1, note=36, velocity=0, time=49),
    Message('note_on', channel=1, note=36, velocity=115, time=15),
    Message('note_on', channel=1, note=36, velocity=0, time=35),
    Message('note_on', channel=1, note=36, velocity=115, time=29),
    Message('note_on', channel=1, note=36, velocity=0, time=36),
    Message('note_on', channel=1, note=36, velocity=117, time=28),
    Message('note_on', channel=1, note=36, velocity=0, time=36),
    Message('note_on', channel=1, note=36, velocity=117, time=156),
    Message('note_on', channel=1, note=36, velocity=0, time=46),
    Message('note_on', channel=1, note=36, velocity=115, time=18),
    Message('note_on', channel=1, note=36, velocity=0, time=30),
    Message('note_on', channel=1, note=36, velocity=115, time=34),
    Message('note_on', channel=1, note=36, velocity=0, time=36),
    Message('note_on', channel=1, note=36, velocity=117, time=28),
    Message('note_on', channel=1, note=36, velocity=0, time=28),
    Message('note_on', channel=1, note=36, velocity=115, time=164),
    Message('note_on', channel=1, note=36, velocity=0, time=49),
    Message('note_on', channel=1, note=36, velocity=115, time=15),
    Message('note_on', channel=1, note=36, velocity=0, time=35),
    Message('note_on', channel=1, note=36, velocity=115, time=29),
    Message('note_on', channel=1, note=36, velocity=0, time=36),
    Message('note_on', channel=1, note=36, velocity=117, time=28),
    Message('note_on', channel=1, note=36, velocity=0, time=36),
    Message('note_on', channel=1, note=41, velocity=117, time=156),
    Message('note_on', channel=1, note=41, velocity=0, time=46),
    Message('note_on', channel=1, note=41, velocity=115, time=18),
    Message('note_on', channel=1, note=41, velocity=0, time=30),
    Message('note_on', channel=1, note=41, velocity=115, time=34),
    Message('note_on', channel=1, note=41, velocity=0, time=36),
    Message('note_on', channel=1, note=41, velocity=117, time=28),
    Message('note_on', channel=1, note=41, velocity=0, time=28),
    Message('note_on', channel=1, note=41, velocity=115, time=164),
    Message('note_on', channel=1, note=41, velocity=0, time=49),
    Message('note_on', channel=1, note=41, velocity=115, time=15),
    Message('note_on', channel=1, note=41, velocity=0, time=35),
    Message('note_on', channel=1, note=41, velocity=115, time=29),
    Message('note_on', channel=1, note=41, velocity=0, time=36),
    Message('note_on', channel=1, note=41, velocity=117, time=28),
    Message('note_on', channel=1, note=41, velocity=0, time=36),
    Message('note_on', channel=1, note=41, velocity=115, time=156),
    Message('note_on', channel=1, note=41, velocity=0, time=44),
    Message('note_on', channel=1, note=41, velocity=115, time=20),
    Message('note_on', channel=1, note=41, velocity=0, time=38),
    Message('note_on', channel=1, note=41, velocity=115, time=26),
    Message('note_on', channel=1, note=41, velocity=0, time=36),
    Message('note_on', channel=1, note=41, velocity=115, time=28),
    Message('note_on', channel=1, note=41, velocity=0, time=33),
    Message('note_on', channel=1, note=41, velocity=115, time=159),
    Message('note_on', channel=1, note=41, velocity=0, time=44),
    Message('note_on', channel=1, note=41, velocity=115, time=20),
    Message('note_on', channel=1, note=41, velocity=0, time=33),
    Message('note_on', channel=1, note=41, velocity=115, time=31),
    Message('note_on', channel=1, note=41, velocity=0, time=35),
    Message('note_on', channel=1, note=41, velocity=117, time=29),
    Message('note_on', channel=1, note=41, velocity=0, time=36),
    Message('note_on', channel=1, note=38, velocity=117, time=156),
    Message('note_on', channel=1, note=38, velocity=0, time=46),
    Message('note_on', channel=1, note=38, velocity=115, time=18),
    Message('note_on', channel=1, note=38, velocity=0, time=30),
    Message('note_on', channel=1, note=38, velocity=115, time=34),
    Message('note_on', channel=1, note=38, velocity=0, time=36),
    Message('note_on', channel=1, note=38, velocity=117, time=28),
    Message('note_on', channel=1, note=38, velocity=0, time=28),
    Message('note_on', channel=1, note=38, velocity=115, time=164),
    Message('note_on', channel=1, note=38, velocity=0, time=49),
    Message('note_on', channel=1, note=38, velocity=115, time=15),
    Message('note_on', channel=1, note=38, velocity=0, time=35),
    Message('note_on', channel=1, note=38, velocity=115, time=29),
    Message('note_on', channel=1, note=38, velocity=0, time=36),
    Message('note_on', channel=1, note=38, velocity=117, time=28),
    Message('note_on', channel=1, note=38, velocity=0, time=36),
    Message('note_on', channel=1, note=43, velocity=117, time=156),
    Message('note_on', channel=1, note=43, velocity=0, time=46),
    Message('note_on', channel=1, note=43, velocity=115, time=18),
    Message('note_on', channel=1, note=43, velocity=0, time=30),
    Message('note_on', channel=1, note=43, velocity=115, time=34),
    Message('note_on', channel=1, note=43, velocity=0, time=36),
    Message('note_on', channel=1, note=43, velocity=117, time=28),
    Message('note_on', channel=1, note=43, velocity=0, time=28),
    Message('note_on', channel=1, note=43, velocity=115, time=164),
    Message('note_on', channel=1, note=43, velocity=0, time=49),
    Message('note_on', channel=1, note=43, velocity=115, time=15),
    Message('note_on', channel=1, note=43, velocity=0, time=35),
    Message('note_on', channel=1, note=43, velocity=115, time=29),
    Message('note_on', channel=1, note=43, velocity=0, time=36),
    Message('note_on', channel=1, note=43, velocity=117, time=28),
    Message('note_on', channel=1, note=43, velocity=0, time=36),
    Message('note_on', channel=1, note=40, velocity=117, time=156),
    Message('note_on', channel=1, note=40, velocity=0, time=46),
    Message('note_on', channel=1, note=40, velocity=115, time=18),
    Message('note_on', channel=1, note=40, velocity=0, time=30),
    Message('note_on', channel=1, note=40, velocity=115, time=34),
    Message('note_on', channel=1, note=40, velocity=0, time=36),
    Message('note_on', channel=1, note=40, velocity=117, time=28),
    Message('note_on', channel=1, note=40, velocity=0, time=28),
    Message('note_on', channel=1, note=40, velocity=115, time=164),
    Message('note_on', channel=1, note=40, velocity=0, time=49),
    Message('note_on', channel=1, note=40, velocity=115, time=15),
    Message('note_on', channel=1, note=40, velocity=0, time=35),
    Message('note_on', channel=1, note=40, velocity=115, time=29),
    Message('note_on', channel=1, note=40, velocity=0, time=36),
    Message('note_on', channel=1, note=40, velocity=117, time=28),
    Message('note_on', channel=1, note=40, velocity=0, time=36),
    Message('note_on', channel=1, note=33, velocity=117, time=156),
    Message('note_on', channel=1, note=33, velocity=0, time=46),
    Message('note_on', channel=1, note=33, velocity=115, time=18),
    Message('note_on', channel=1, note=33, velocity=0, time=30),
    Message('note_on', channel=1, note=33, velocity=115, time=34),
    Message('note_on', channel=1, note=33, velocity=0, time=36),
    Message('note_on', channel=1, note=33, velocity=117, time=28),
    Message('note_on', channel=1, note=33, velocity=0, time=28),
    Message('note_on', channel=1, note=33, velocity=115, time=164),
    Message('note_on', channel=1, note=33, velocity=0, time=49),
    Message('note_on', channel=1, note=33, velocity=115, time=15),
    Message('note_on', channel=1, note=33, velocity=0, time=35),
    Message('note_on', channel=1, note=33, velocity=115, time=29),
    Message('note_on', channel=1, note=33, velocity=0, time=36),
    Message('note_on', channel=1, note=33, velocity=117, time=28),
    Message('note_on', channel=1, note=33, velocity=0, time=36),
    Message('note_on', channel=1, note=38, velocity=117, time=156),
    Message('note_on', channel=1, note=38, velocity=0, time=46),
    Message('note_on', channel=1, note=38, velocity=115, time=18),
    Message('note_on', channel=1, note=38, velocity=0, time=30),
    Message('note_on', channel=1, note=38, velocity=115, time=34),
    Message('note_on', channel=1, note=38, velocity=0, time=36),
    Message('note_on', channel=1, note=38, velocity=117, time=28),
    Message('note_on', channel=1, note=38, velocity=0, time=28),
    Message('note_on', channel=1, note=38, velocity=115, time=164),
    Message('note_on', channel=1, note=38, velocity=0, time=49),
    Message('note_on', channel=1, note=38, velocity=115, time=15),
    Message('note_on', channel=1, note=38, velocity=0, time=35),
    Message('note_on', channel=1, note=38, velocity=115, time=29),
    Message('note_on', channel=1, note=38, velocity=0, time=36),
    Message('note_on', channel=1, note=38, velocity=117, time=28),
    Message('note_on', channel=1, note=38, velocity=0, time=36),
    Message('note_on', channel=1, note=43, velocity=117, time=156),
    Message('note_on', channel=1, note=43, velocity=0, time=46),
    Message('note_on', channel=1, note=43, velocity=115, time=18),
    Message('note_on', channel=1, note=43, velocity=0, time=30),
    Message('note_on', channel=1, note=43, velocity=115, time=34),
    Message('note_on', channel=1, note=43, velocity=0, time=36),
    Message('note_on', channel=1, note=43, velocity=117, time=28),
    Message('note_on', channel=1, note=43, velocity=0, time=28),
    Message('note_on', channel=1, note=43, velocity=115, time=164),
    Message('note_on', channel=1, note=43, velocity=0, time=49),
    Message('note_on', channel=1, note=43, velocity=115, time=15),
    Message('note_on', channel=1, note=43, velocity=0, time=35),
    Message('note_on', channel=1, note=43, velocity=115, time=29),
    Message('note_on', channel=1, note=43, velocity=0, time=36),
    Message('note_on', channel=1, note=43, velocity=117, time=28),
    Message('note_on', channel=1, note=43, velocity=0, time=36),
    Message('note_on', channel=1, note=41, velocity=115, time=156),
    Message('note_on', channel=1, note=41, velocity=0, time=48),
    Message('note_on', channel=1, note=41, velocity=115, time=16),
    Message('note_on', channel=1, note=41, velocity=0, time=35),
    Message('note_on', channel=1, note=41, velocity=115, time=29),
    Message('note_on', channel=1, note=41, velocity=0, time=35),
    Message('note_on', channel=1, note=41, velocity=115, time=29),
    Message('note_on', channel=1, note=41, velocity=0, time=33),
    Message('note_on', channel=1, note=41, velocity=115, time=31),
    Message('note_on', channel=1, note=41, velocity=0, time=33),
    Message('note_on', channel=1, note=41, velocity=115, time=31),
    Message('note_on', channel=1, note=41, velocity=0, time=33),
    Message('note_on', channel=1, note=41, velocity=115, time=31),
    Message('note_on', channel=1, note=41, velocity=0, time=32),
    Message('note_on', channel=1, note=41, velocity=117, time=32),
    Message('note_on', channel=1, note=41, velocity=0, time=32),
    Message('note_on', channel=1, note=41, velocity=117, time=32),
    Message('note_on', channel=1, note=41, velocity=0, time=33),
    Message('note_on', channel=1, note=41, velocity=115, time=31),
    Message('note_on', channel=1, note=41, velocity=0, time=30),
    Message('note_on', channel=1, note=41, velocity=115, time=34),
    Message('note_on', channel=1, note=41, velocity=0, time=33),
    Message('note_on', channel=1, note=41, velocity=115, time=31),
    Message('note_on', channel=1, note=41, velocity=0, time=33),
    Message('note_on', channel=1, note=36, velocity=115, time=31),
    Message('note_on', channel=1, note=36, velocity=0, time=48),
    Message('note_on', channel=1, note=36, velocity=115, time=16),
    Message('note_on', channel=1, note=36, velocity=0, time=35),
    Message('note_on', channel=1, note=36, velocity=115, time=29),
    Message('note_on', channel=1, note=36, velocity=0, time=35),
    Message('note_on', channel=1, note=36, velocity=115, time=29),
    Message('note_on', channel=1, note=36, velocity=0, time=33),
    Message('note_on', channel=1, note=36, velocity=115, time=31),
    Message('note_on', channel=1, note=36, velocity=0, time=33),
    Message('note_on', channel=1, note=36, velocity=115, time=31),
    Message('note_on', channel=1, note=36, velocity=0, time=33),
    Message('note_on', channel=1, note=36, velocity=115, time=31),
    Message('note_on', channel=1, note=36, velocity=0, time=32),
    Message('note_on', channel=1, note=36, velocity=117, time=32),
    Message('note_on', channel=1, note=36, velocity=0, time=32),
    Message('note_on', channel=1, note=36, velocity=117, time=32),
    Message('note_on', channel=1, note=36, velocity=0, time=33),
    Message('note_on', channel=1, note=36, velocity=115, time=31),
    Message('note_on', channel=1, note=36, velocity=0, time=30),
    Message('note_on', channel=1, note=36, velocity=115, time=34),
    Message('note_on', channel=1, note=36, velocity=0, time=33),
    Message('note_on', channel=1, note=36, velocity=115, time=31),
    Message('note_on', channel=1, note=36, velocity=0, time=33),
    Message('note_on', channel=1, note=36, velocity=112, time=31),
    Message('note_on', channel=1, note=36, velocity=0, time=308),
    Message('note_on', channel=1, note=40, velocity=112, time=12),
    Message('note_on', channel=1, note=40, velocity=0, time=68),
    Message('note_on', channel=1, note=43, velocity=112, time=0),
    Message('note_on', channel=1, note=43, velocity=0, time=192),
    Message('note_on', channel=1, note=40, velocity=112, time=0),
    Message('note_on', channel=1, note=40, velocity=0, time=117),
    Message('note_on', channel=1, note=43, velocity=127, time=7),
    Message('note_on', channel=1, note=43, velocity=0, time=57),
    Message('note_on', channel=1, note=40, velocity=112, time=7),
    Message('note_on', channel=1, note=40, velocity=0, time=308),
    Message('note_on', channel=1, note=43, velocity=112, time=12),
    Message('note_on', channel=1, note=43, velocity=0, time=68),
    Message('note_on', channel=1, note=47, velocity=112, time=0),
    Message('note_on', channel=1, note=47, velocity=0, time=192),
    Message('note_on', channel=1, note=43, velocity=112, time=0),
    Message('note_on', channel=1, note=43, velocity=0, time=117),
    Message('note_on', channel=1, note=47, velocity=127, time=7),
    Message('note_on', channel=1, note=47, velocity=0, time=57),
    Message('note_on', channel=1, note=43, velocity=112, time=7),
    Message('note_on', channel=1, note=43, velocity=0, time=308),
    Message('note_on', channel=1, note=46, velocity=112, time=12),
    Message('note_on', channel=1, note=46, velocity=0, time=68),
    Message('note_on', channel=1, note=50, velocity=112, time=0),
    Message('note_on', channel=1, note=50, velocity=0, time=192),
    Message('note_on', channel=1, note=46, velocity=112, time=0),
    Message('note_on', channel=1, note=46, velocity=0, time=117),
    Message('note_on', channel=1, note=50, velocity=127, time=7),
    Message('note_on', channel=1, note=50, velocity=0, time=57),
    Message('note_on', channel=1, note=33, velocity=112, time=7),
    Message('note_on', channel=1, note=33, velocity=0, time=308),
    Message('note_on', channel=1, note=37, velocity=112, time=12),
    Message('note_on', channel=1, note=37, velocity=0, time=68),
    Message('note_on', channel=1, note=40, velocity=112, time=0),
    Message('note_on', channel=1, note=40, velocity=0, time=192),
    Message('note_on', channel=1, note=37, velocity=112, time=0),
    Message('note_on', channel=1, note=37, velocity=0, time=117),
    Message('note_on', channel=1, note=40, velocity=127, time=7),
    Message('note_on', channel=1, note=40, velocity=0, time=57),
    Message('note_on', channel=1, note=38, velocity=112, time=7),
    Message('note_on', channel=1, note=38, velocity=0, time=308),
    Message('note_on', channel=1, note=41, velocity=112, time=12),
    Message('note_on', channel=1, note=41, velocity=0, time=68),
    Message('note_on', channel=1, note=45, velocity=112, time=0),
    Message('note_on', channel=1, note=45, velocity=0, time=192),
    Message('note_on', channel=1, note=41, velocity=112, time=0),
    Message('note_on', channel=1, note=41, velocity=0, time=117),
    Message('note_on', channel=1, note=45, velocity=127, time=7),
    Message('note_on', channel=1, note=45, velocity=0, time=57),
    Message('note_on', channel=1, note=38, velocity=112, time=7),
    Message('note_on', channel=1, note=38, velocity=0, time=308),
    Message('note_on', channel=1, note=41, velocity=112, time=12),
    Message('note_on', channel=1, note=41, velocity=0, time=68),
    Message('note_on', channel=1, note=45, velocity=112, time=0),
    Message('note_on', channel=1, note=45, velocity=0, time=192),
    Message('note_on', channel=1, note=41, velocity=112, time=0),
    Message('note_on', channel=1, note=41, velocity=0, time=117),
    Message('note_on', channel=1, note=45, velocity=127, time=7),
    Message('note_on', channel=1, note=45, velocity=0, time=57),
    Message('note_on', channel=1, note=43, velocity=112, time=7),
    Message('note_on', channel=1, note=43, velocity=0, time=308),
    Message('note_on', channel=1, note=47, velocity=112, time=12),
    Message('note_on', channel=1, note=47, velocity=0, time=68),
    Message('note_on', channel=1, note=50, velocity=112, time=0),
    Message('note_on', channel=1, note=50, velocity=0, time=192),
    Message('note_on', channel=1, note=47, velocity=112, time=0),
    Message('note_on', channel=1, note=47, velocity=0, time=117),
    Message('note_on', channel=1, note=50, velocity=127, time=7),
    Message('note_on', channel=1, note=50, velocity=0, time=57),
    Message('note_on', channel=1, note=36, velocity=112, time=7),
    Message('note_on', channel=1, note=36, velocity=0, time=308),
    Message('note_on', channel=1, note=40, velocity=112, time=12),
    Message('note_on', channel=1, note=40, velocity=0, time=68),
    Message('note_on', channel=1, note=43, velocity=112, time=0),
    Message('note_on', channel=1, note=43, velocity=0, time=192),
    Message('note_on', channel=1, note=40, velocity=112, time=0),
    Message('note_on', channel=1, note=40, velocity=0, time=117),
    Message('note_on', channel=1, note=43, velocity=127, time=7),
    Message('note_on', channel=1, note=43, velocity=0, time=57),
    Message('note_on', channel=1, note=36, velocity=122, time=7),
    Message('note_on', channel=1, note=36, velocity=0, time=220),
    Message('note_on', channel=1, note=40, velocity=109, time=100),
    Message('note_on', channel=1, note=40, velocity=0, time=48),
    Message('note_on', channel=1, note=48, velocity=107, time=16),
    Message('note_on', channel=1, note=43, velocity=120, time=192),
    Message('note_on', channel=1, note=48, velocity=0, time=4),
    Message('note_on', channel=1, note=48, velocity=120, time=124),
    Message('note_on', channel=1, note=43, velocity=0, time=4),
    Message('note_on', channel=1, note=48, velocity=0, time=55),
    Message('note_on', channel=1, note=36, velocity=112, time=5),
    Message('note_on', channel=1, note=36, velocity=0, time=308),
    Message('note_on', channel=1, note=40, velocity=112, time=12),
    Message('note_on', channel=1, note=40, velocity=0, time=68),
    Message('note_on', channel=1, note=43, velocity=112, time=0),
    Message('note_on', channel=1, note=43, velocity=0, time=192),
    Message('note_on', channel=1, note=40, velocity=112, time=0),
    Message('note_on', channel=1, note=40, velocity=0, time=117),
    Message('note_on', channel=1, note=43, velocity=127, time=7),
    Message('note_on', channel=1, note=43, velocity=0, time=57),
    Message('note_on', channel=1, note=41, velocity=112, time=7),
    Message('note_on', channel=1, note=41, velocity=0, time=308),
    Message('note_on', channel=1, note=45, velocity=112, time=12),
    Message('note_on', channel=1, note=45, velocity=0, time=68),
    Message('note_on', channel=1, note=48, velocity=112, time=0),
    Message('note_on', channel=1, note=48, velocity=0, time=192),
    Message('note_on', channel=1, note=45, velocity=112, time=0),
    Message('note_on', channel=1, note=45, velocity=0, time=117),
    Message('note_on', channel=1, note=48, velocity=127, time=7),
    Message('note_on', channel=1, note=48, velocity=0, time=57),
    Message('note_on', channel=1, note=41, velocity=112, time=7),
    Message('note_on', channel=1, note=41, velocity=0, time=308),
    Message('note_on', channel=1, note=44, velocity=112, time=12),
    Message('note_on', channel=1, note=44, velocity=0, time=68),
    Message('note_on', channel=1, note=48, velocity=112, time=0),
    Message('note_on', channel=1, note=48, velocity=0, time=192),
    Message('note_on', channel=1, note=44, velocity=112, time=0),
    Message('note_on', channel=1, note=44, velocity=0, time=117),
    Message('note_on', channel=1, note=48, velocity=127, time=7),
    Message('note_on', channel=1, note=48, velocity=0, time=57),
    Message('note_on', channel=1, note=36, velocity=112, time=7),
    Message('note_on', channel=1, note=36, velocity=0, time=308),
    Message('note_on', channel=1, note=40, velocity=112, time=12),
    Message('note_on', channel=1, note=40, velocity=0, time=68),
    Message('note_on', channel=1, note=43, velocity=112, time=0),
    Message('note_on', channel=1, note=43, velocity=0, time=192),
    Message('note_on', channel=1, note=40, velocity=112, time=0),
    Message('note_on', channel=1, note=40, velocity=0, time=117),
    Message('note_on', channel=1, note=43, velocity=127, time=7),
    Message('note_on', channel=1, note=43, velocity=0, time=57),
    Message('note_on', channel=1, note=43, velocity=112, time=7),
    Message('note_on', channel=1, note=43, velocity=0, time=308),
    Message('note_on', channel=1, note=47, velocity=112, time=12),
    Message('note_on', channel=1, note=47, velocity=0, time=68),
    Message('note_on', channel=1, note=50, velocity=112, time=0),
    Message('note_on', channel=1, note=50, velocity=0, time=192),
    Message('note_on', channel=1, note=47, velocity=112, time=0),
    Message('note_on', channel=1, note=47, velocity=0, time=117),
    Message('note_on', channel=1, note=50, velocity=127, time=7),
    Message('note_on', channel=1, note=50, velocity=0, time=57),
    Message('note_on', channel=1, note=41, velocity=112, time=7),
    Message('note_on', channel=1, note=41, velocity=0, time=308),
    Message('note_on', channel=1, note=45, velocity=112, time=12),
    Message('note_on', channel=1, note=45, velocity=0, time=68),
    Message('note_on', channel=1, note=48, velocity=112, time=0),
    Message('note_on', channel=1, note=48, velocity=0, time=192),
    Message('note_on', channel=1, note=45, velocity=112, time=0),
    Message('note_on', channel=1, note=45, velocity=0, time=117),
    Message('note_on', channel=1, note=48, velocity=127, time=7),
    Message('note_on', channel=1, note=48, velocity=0, time=57),
    Message('note_on', channel=1, note=36, velocity=115, time=7),
    Message('note_on', channel=1, note=36, velocity=0, time=32),
    Message('note_on', channel=1, note=36, velocity=115, time=32),
    Message('note_on', channel=1, note=36, velocity=0, time=36),
    Message('note_on', channel=1, note=36, velocity=115, time=28),
    Message('note_on', channel=1, note=36, velocity=0, time=33),
    Message('note_on', channel=1, note=36, velocity=115, time=31),
    Message('note_on', channel=1, note=36, velocity=0, time=33),
    Message('note_on', channel=1, note=35, velocity=117, time=31),
    Message('note_on', channel=1, note=35, velocity=0, time=41),
    Message('note_on', channel=1, note=33, velocity=117, time=23),
    Message('note_on', channel=1, note=33, velocity=0, time=38),
    Message('note_on', channel=1, note=31, velocity=115, time=26),
    Message('note_on', channel=1, note=31, velocity=0, time=36),
    Message('note_on', channel=1, note=31, velocity=115, time=28),
    Message('note_on', channel=1, note=31, velocity=0, time=38),
    Message('note_on', channel=1, note=31, velocity=115, time=26),
    Message('note_on', channel=1, note=31, velocity=0, time=28),
    Message('note_on', channel=1, note=31, velocity=115, time=36),
    Message('note_on', channel=1, note=31, velocity=0, time=33),
    Message('note_on', channel=1, note=33, velocity=115, time=31),
    Message('note_on', channel=1, note=33, velocity=0, time=32),
    Message('note_on', channel=1, note=35, velocity=117, time=32),
    Message('note_on', channel=1, note=35, velocity=0, time=32),
    Message('note_on', channel=1, note=36, velocity=117, time=32),
    Message('note_on', channel=1, note=36, velocity=0, time=46),
    Message('note_on', channel=1, note=36, velocity=115, time=18),
    Message('note_on', channel=1, note=36, velocity=0, time=30),
    Message('note_on', channel=1, note=36, velocity=115, time=34),
    Message('note_on', channel=1, note=36, velocity=0, time=36),
    Message('note_on', channel=1, note=36, velocity=117, time=28),
    Message('note_on', channel=1, note=36, velocity=0, time=28),
    Message('note_on', channel=1, note=36, velocity=115, time=164),
    Message('note_on', channel=1, note=36, velocity=0, time=49),
    Message('note_on', channel=1, note=36, velocity=115, time=15),
    Message('note_on', channel=1, note=36, velocity=0, time=35),
    Message('note_on', channel=1, note=36, velocity=115, time=29),
    Message('note_on', channel=1, note=36, velocity=0, time=36),
    Message('note_on', channel=1, note=36, velocity=117, time=28),
    Message('note_on', channel=1, note=36, velocity=0, time=36),
    Message('note_on', channel=1, note=36, velocity=117, time=156),
    Message('note_on', channel=1, note=36, velocity=0, time=46),
    Message('note_on', channel=1, note=36, velocity=115, time=18),
    Message('note_on', channel=1, note=36, velocity=0, time=30),
    Message('note_on', channel=1, note=36, velocity=115, time=34),
    Message('note_on', channel=1, note=36, velocity=0, time=36),
    Message('note_on', channel=1, note=36, velocity=117, time=28),
    Message('note_on', channel=1, note=36, velocity=0, time=28),
    Message('note_on', channel=1, note=36, velocity=115, time=164),
    Message('note_on', channel=1, note=36, velocity=0, time=49),
    Message('note_on', channel=1, note=36, velocity=115, time=15),
    Message('note_on', channel=1, note=36, velocity=0, time=35),
    Message('note_on', channel=1, note=36, velocity=115, time=29),
    Message('note_on', channel=1, note=36, velocity=0, time=36),
    Message('note_on', channel=1, note=36, velocity=117, time=28),
    Message('note_on', channel=1, note=36, velocity=0, time=36),
    Message('note_on', channel=1, note=41, velocity=117, time=156),
    Message('note_on', channel=1, note=41, velocity=0, time=46),
    Message('note_on', channel=1, note=41, velocity=115, time=18),
    Message('note_on', channel=1, note=41, velocity=0, time=30),
    Message('note_on', channel=1, note=41, velocity=115, time=34),
    Message('note_on', channel=1, note=41, velocity=0, time=36),
    Message('note_on', channel=1, note=41, velocity=117, time=28),
    Message('note_on', channel=1, note=41, velocity=0, time=28),
    Message('note_on', channel=1, note=41, velocity=115, time=164),
    Message('note_on', channel=1, note=41, velocity=0, time=49),
    Message('note_on', channel=1, note=41, velocity=115, time=15),
    Message('note_on', channel=1, note=41, velocity=0, time=35),
    Message('note_on', channel=1, note=41, velocity=115, time=29),
    Message('note_on', channel=1, note=41, velocity=0, time=36),
    Message('note_on', channel=1, note=41, velocity=117, time=28),
    Message('note_on', channel=1, note=41, velocity=0, time=36),
    Message('note_on', channel=1, note=41, velocity=115, time=156),
    Message('note_on', channel=1, note=41, velocity=0, time=44),
    Message('note_on', channel=1, note=41, velocity=115, time=20),
    Message('note_on', channel=1, note=41, velocity=0, time=38),
    Message('note_on', channel=1, note=41, velocity=115, time=26),
    Message('note_on', channel=1, note=41, velocity=0, time=36),
    Message('note_on', channel=1, note=41, velocity=115, time=28),
    Message('note_on', channel=1, note=41, velocity=0, time=33),
    Message('note_on', channel=1, note=41, velocity=115, time=159),
    Message('note_on', channel=1, note=41, velocity=0, time=44),
    Message('note_on', channel=1, note=41, velocity=115, time=20),
    Message('note_on', channel=1, note=41, velocity=0, time=33),
    Message('note_on', channel=1, note=41, velocity=115, time=31),
    Message('note_on', channel=1, note=41, velocity=0, time=35),
    Message('note_on', channel=1, note=41, velocity=117, time=29),
    Message('note_on', channel=1, note=41, velocity=0, time=36),
    Message('note_on', channel=1, note=38, velocity=117, time=156),
    Message('note_on', channel=1, note=38, velocity=0, time=46),
    Message('note_on', channel=1, note=38, velocity=115, time=18),
    Message('note_on', channel=1, note=38, velocity=0, time=30),
    Message('note_on', channel=1, note=38, velocity=115, time=34),
    Message('note_on', channel=1, note=38, velocity=0, time=36),
    Message('note_on', channel=1, note=38, velocity=117, time=28),
    Message('note_on', channel=1, note=38, velocity=0, time=28),
    Message('note_on', channel=1, note=38, velocity=115, time=164),
    Message('note_on', channel=1, note=38, velocity=0, time=49),
    Message('note_on', channel=1, note=38, velocity=115, time=15),
    Message('note_on', channel=1, note=38, velocity=0, time=35),
    Message('note_on', channel=1, note=38, velocity=115, time=29),
    Message('note_on', channel=1, note=38, velocity=0, time=36),
    Message('note_on', channel=1, note=38, velocity=117, time=28),
    Message('note_on', channel=1, note=38, velocity=0, time=36),
    Message('note_on', channel=1, note=43, velocity=117, time=156),
    Message('note_on', channel=1, note=43, velocity=0, time=46),
    Message('note_on', channel=1, note=43, velocity=115, time=18),
    Message('note_on', channel=1, note=43, velocity=0, time=30),
    Message('note_on', channel=1, note=43, velocity=115, time=34),
    Message('note_on', channel=1, note=43, velocity=0, time=36),
    Message('note_on', channel=1, note=43, velocity=117, time=28),
    Message('note_on', channel=1, note=43, velocity=0, time=28),
    Message('note_on', channel=1, note=43, velocity=115, time=164),
    Message('note_on', channel=1, note=43, velocity=0, time=49),
    Message('note_on', channel=1, note=43, velocity=115, time=15),
    Message('note_on', channel=1, note=43, velocity=0, time=35),
    Message('note_on', channel=1, note=43, velocity=115, time=29),
    Message('note_on', channel=1, note=43, velocity=0, time=36),
    Message('note_on', channel=1, note=43, velocity=117, time=28),
    Message('note_on', channel=1, note=43, velocity=0, time=36),
    Message('note_on', channel=1, note=40, velocity=117, time=156),
    Message('note_on', channel=1, note=40, velocity=0, time=46),
    Message('note_on', channel=1, note=40, velocity=115, time=18),
    Message('note_on', channel=1, note=40, velocity=0, time=30),
    Message('note_on', channel=1, note=40, velocity=115, time=34),
    Message('note_on', channel=1, note=40, velocity=0, time=36),
    Message('note_on', channel=1, note=40, velocity=117, time=28),
    Message('note_on', channel=1, note=40, velocity=0, time=28),
    Message('note_on', channel=1, note=40, velocity=115, time=164),
    Message('note_on', channel=1, note=40, velocity=0, time=49),
    Message('note_on', channel=1, note=40, velocity=115, time=15),
    Message('note_on', channel=1, note=40, velocity=0, time=35),
    Message('note_on', channel=1, note=40, velocity=115, time=29),
    Message('note_on', channel=1, note=40, velocity=0, time=36),
    Message('note_on', channel=1, note=40, velocity=117, time=28),
    Message('note_on', channel=1, note=40, velocity=0, time=36),
    Message('note_on', channel=1, note=33, velocity=117, time=156),
    Message('note_on', channel=1, note=33, velocity=0, time=46),
    Message('note_on', channel=1, note=33, velocity=115, time=18),
    Message('note_on', channel=1, note=33, velocity=0, time=30),
    Message('note_on', channel=1, note=33, velocity=115, time=34),
    Message('note_on', channel=1, note=33, velocity=0, time=36),
    Message('note_on', channel=1, note=33, velocity=117, time=28),
    Message('note_on', channel=1, note=33, velocity=0, time=28),
    Message('note_on', channel=1, note=33, velocity=115, time=164),
    Message('note_on', channel=1, note=33, velocity=0, time=49),
    Message('note_on', channel=1, note=33, velocity=115, time=15),
    Message('note_on', channel=1, note=33, velocity=0, time=35),
    Message('note_on', channel=1, note=33, velocity=115, time=29),
    Message('note_on', channel=1, note=33, velocity=0, time=36),
    Message('note_on', channel=1, note=33, velocity=117, time=28),
    Message('note_on', channel=1, note=33, velocity=0, time=36),
    Message('note_on', channel=1, note=38, velocity=117, time=156),
    Message('note_on', channel=1, note=38, velocity=0, time=46),
    Message('note_on', channel=1, note=38, velocity=115, time=18),
    Message('note_on', channel=1, note=38, velocity=0, time=30),
    Message('note_on', channel=1, note=38, velocity=115, time=34),
    Message('note_on', channel=1, note=38, velocity=0, time=36),
    Message('note_on', channel=1, note=38, velocity=117, time=28),
    Message('note_on', channel=1, note=38, velocity=0, time=28),
    Message('note_on', channel=1, note=38, velocity=115, time=164),
    Message('note_on', channel=1, note=38, velocity=0, time=49),
    Message('note_on', channel=1, note=38, velocity=115, time=15),
    Message('note_on', channel=1, note=38, velocity=0, time=35),
    Message('note_on', channel=1, note=38, velocity=115, time=29),
    Message('note_on', channel=1, note=38, velocity=0, time=36),
    Message('note_on', channel=1, note=38, velocity=117, time=28),
    Message('note_on', channel=1, note=38, velocity=0, time=36),
    Message('note_on', channel=1, note=43, velocity=117, time=156),
    Message('note_on', channel=1, note=43, velocity=0, time=46),
    Message('note_on', channel=1, note=43, velocity=115, time=18),
    Message('note_on', channel=1, note=43, velocity=0, time=30),
    Message('note_on', channel=1, note=43, velocity=115, time=34),
    Message('note_on', channel=1, note=43, velocity=0, time=36),
    Message('note_on', channel=1, note=43, velocity=117, time=28),
    Message('note_on', channel=1, note=43, velocity=0, time=28),
    Message('note_on', channel=1, note=43, velocity=115, time=164),
    Message('note_on', channel=1, note=43, velocity=0, time=49),
    Message('note_on', channel=1, note=43, velocity=115, time=15),
    Message('note_on', channel=1, note=43, velocity=0, time=35),
    Message('note_on', channel=1, note=43, velocity=115, time=29),
    Message('note_on', channel=1, note=43, velocity=0, time=36),
    Message('note_on', channel=1, note=43, velocity=117, time=28),
    Message('note_on', channel=1, note=43, velocity=0, time=36),
    Message('note_on', channel=1, note=41, velocity=115, time=156),
    Message('note_on', channel=1, note=41, velocity=0, time=48),
    Message('note_on', channel=1, note=41, velocity=115, time=16),
    Message('note_on', channel=1, note=41, velocity=0, time=35),
    Message('note_on', channel=1, note=41, velocity=115, time=29),
    Message('note_on', channel=1, note=41, velocity=0, time=35),
    Message('note_on', channel=1, note=41, velocity=115, time=29),
    Message('note_on', channel=1, note=41, velocity=0, time=33),
    Message('note_on', channel=1, note=41, velocity=115, time=31),
    Message('note_on', channel=1, note=41, velocity=0, time=33),
    Message('note_on', channel=1, note=41, velocity=115, time=31),
    Message('note_on', channel=1, note=41, velocity=0, time=33),
    Message('note_on', channel=1, note=41, velocity=115, time=31),
    Message('note_on', channel=1, note=41, velocity=0, time=32),
    Message('note_on', channel=1, note=41, velocity=117, time=32),
    Message('note_on', channel=1, note=41, velocity=0, time=32),
    Message('note_on', channel=1, note=41, velocity=117, time=32),
    Message('note_on', channel=1, note=41, velocity=0, time=33),
    Message('note_on', channel=1, note=41, velocity=115, time=31),
    Message('note_on', channel=1, note=41, velocity=0, time=30),
    Message('note_on', channel=1, note=41, velocity=115, time=34),
    Message('note_on', channel=1, note=41, velocity=0, time=33),
    Message('note_on', channel=1, note=41, velocity=115, time=31),
    Message('note_on', channel=1, note=41, velocity=0, time=33),
    Message('note_on', channel=1, note=36, velocity=115, time=31),
    Message('note_on', channel=1, note=36, velocity=0, time=40),
    Message('note_on', channel=1, note=36, velocity=115, time=24),
    Message('note_on', channel=1, note=36, velocity=0, time=33),
    Message('note_on', channel=1, note=36, velocity=115, time=31),
    Message('note_on', channel=1, note=36, velocity=0, time=32),
    Message('note_on', channel=1, note=36, velocity=115, time=32),
    Message('note_on', channel=1, note=36, velocity=0, time=32),
    Message('note_on', channel=1, note=38, velocity=117, time=32),
    Message('note_on', channel=1, note=38, velocity=0, time=32),
    Message('note_on', channel=1, note=40, velocity=115, time=32),
    Message('note_on', channel=1, note=40, velocity=0, time=35),
    Message('note_on', channel=1, note=41, velocity=115, time=29),
    Message('note_on', channel=1, note=41, velocity=0, time=32),
    Message('note_on', channel=1, note=41, velocity=115, time=32),
    Message('note_on', channel=1, note=41, velocity=0, time=30),
    Message('note_on', channel=1, note=41, velocity=115, time=34),
    Message('note_on', channel=1, note=41, velocity=0, time=30),
    Message('note_on', channel=1, note=41, velocity=115, time=34),
    Message('note_on', channel=1, note=41, velocity=0, time=30),
    Message('note_on', channel=1, note=40, velocity=115, time=34),
    Message('note_on', channel=1, note=40, velocity=0, time=30),
    Message('note_on', channel=1, note=38, velocity=117, time=34),
    Message('note_on', channel=1, note=38, velocity=0, time=32),
    Message('note_on', channel=1, note=36, velocity=117, time=32),
    Message('note_on', channel=1, note=36, velocity=0, time=107),
    Message('note_on', channel=1, note=31, velocity=115, time=85),
    Message('note_on', channel=1, note=31, velocity=0, time=118),
    Message('note_on', channel=1, note=36, velocity=115, time=74),
    Message('note_on', channel=1, note=36, velocity=0, time=382),
    MetaMessage('end_of_track', time=0)]),
  MidiTrack([
    MetaMessage('midi_port', port=0, time=0),
    MetaMessage('track_name', name='drums2              ', time=0),
    Message('control_change', channel=9, control=7, value=100, time=0),
    Message('note_on', channel=9, note=35, velocity=127, time=1536),
    Message('note_on', channel=9, note=42, velocity=127, time=0),
    Message('note_on', channel=9, note=49, velocity=127, time=0),
    Message('note_on', channel=9, note=41, velocity=127, time=0),
    Message('note_on', channel=9, note=35, velocity=0, time=64),
    Message('note_on', channel=9, note=42, velocity=0, time=0),
    Message('note_on', channel=9, note=49, velocity=0, time=0),
    Message('note_on', channel=9, note=41, velocity=0, time=0),
    Message('note_on', channel=9, note=42, velocity=127, time=0),
    Message('note_on', channel=9, note=42, velocity=0, time=64),
    Message('note_on', channel=9, note=42, velocity=127, time=0),
    Message('note_on', channel=9, note=42, velocity=0, time=64),
    Message('note_on', channel=9, note=38, velocity=127, time=0),
    Message('note_on', channel=9, note=42, velocity=127, time=0),
    Message('note_on', channel=9, note=37, velocity=127, time=0),
    Message('note_on', channel=9, note=38, velocity=0, time=64),
    Message('note_on', channel=9, note=42, velocity=0, time=0),
    Message('note_on', channel=9, note=37, velocity=0, time=0),
    Message('note_on', channel=9, note=42, velocity=127, time=0),
    Message('note_on', channel=9, note=42, velocity=0, time=64),
    Message('note_on', channel=9, note=35, velocity=127, time=0),
    Message('note_on', channel=9, note=42, velocity=127, time=0),
    Message('note_on', channel=9, note=35, velocity=0, time=64),
    Message('note_on', channel=9, note=42, velocity=0, time=0),
    Message('note_on', channel=9, note=35, velocity=127, time=0),
    Message('note_on', channel=9, note=42, velocity=127, time=0),
    Message('note_on', channel=9, note=35, velocity=0, time=64),
    Message('note_on', channel=9, note=42, velocity=0, time=0),
    Message('note_on', channel=9, note=42, velocity=127, time=0),
    Message('note_on', channel=9, note=42, velocity=0, time=64),
    Message('note_on', channel=9, note=42, velocity=127, time=0),
    Message('note_on', channel=9, note=42, velocity=0, time=64),
    Message('note_on', channel=9, note=42, velocity=127, time=0),
    Message('note_on', channel=9, note=37, velocity=127, time=0),
    Message('note_on', channel=9, note=42, velocity=0, time=64),
    Message('note_on', channel=9, note=37, velocity=0, time=0),
    Message('note_on', channel=9, note=42, velocity=127, time=0),
    Message('note_on', channel=9, note=42, velocity=0, time=64),
    Message('note_on', channel=9, note=35, velocity=127, time=0),
    Message('note_on', channel=9, note=42, velocity=127, time=0),
    Message('note_on', channel=9, note=35, velocity=0, time=64),
    Message('note_on', channel=9, note=42, velocity=0, time=0),
    Message('note_on', channel=9, note=35, velocity=127, time=0),
    Message('note_on', channel=9, note=42, velocity=127, time=0),
    Message('note_on', channel=9, note=35, velocity=0, time=64),
    Message('note_on', channel=9, note=42, velocity=0, time=0),
    Message('note_on', channel=9, note=42, velocity=127, time=0),
    Message('note_on', channel=9, note=42, velocity=0, time=64),
    Message('note_on', channel=9, note=42, velocity=127, time=0),
    Message('note_on', channel=9, note=42, velocity=0, time=64),
    Message('note_on', channel=9, note=42, velocity=127, time=0),
    Message('note_on', channel=9, note=37, velocity=127, time=0),
    Message('note_on', channel=9, note=42, velocity=0, time=64),
    Message('note_on', channel=9, note=37, velocity=0, time=0),
    Message('note_on', channel=9, note=42, velocity=127, time=0),
    Message('note_on', channel=9, note=42, velocity=0, time=64),
    Message('note_on', channel=9, note=35, velocity=127, time=0),
    Message('note_on', channel=9, note=42, velocity=127, time=0),
    Message('note_on', channel=9, note=35, velocity=0, time=64),
    Message('note_on', channel=9, note=42, velocity=0, time=0),
    Message('note_on', channel=9, note=35, velocity=127, time=0),
    Message('note_on', channel=9, note=42, velocity=127, time=0),
    Message('note_on', channel=9, note=35, velocity=0, time=64),
    Message('note_on', channel=9, note=42, velocity=0, time=0),
    Message('note_on', channel=9, note=42, velocity=127, time=0),
    Message('note_on', channel=9, note=42, velocity=0, time=64),
    Message('note_on', channel=9, note=35, velocity=127, time=0),
    Message('note_on', channel=9, note=42, velocity=127, time=0),
    Message('note_on', channel=9, note=35, velocity=0, time=64),
    Message('note_on', channel=9, note=42, velocity=0, time=0),
    Message('note_on', channel=9, note=42, velocity=127, time=0),
    Message('note_on', channel=9, note=37, velocity=127, time=0),
    Message('note_on', channel=9, note=42, velocity=0, time=64),
    Message('note_on', channel=9, note=37, velocity=0, time=0),
    Message('note_on', channel=9, note=35, velocity=127, time=0),
    Message('note_on', channel=9, note=42, velocity=127, time=0),
    Message('note_on', channel=9, note=35, velocity=0, time=64),
    Message('note_on', channel=9, note=42, velocity=0, time=0),
    Message('note_on', channel=9, note=35, velocity=127, time=0),
    Message('note_on', channel=9, note=46, velocity=127, time=0),
    Message('note_on', channel=9, note=35, velocity=0, time=64),
    Message('note_on', channel=9, note=46, velocity=0, time=0),
    Message('note_on', channel=9, note=35, velocity=127, time=0),
    Message('note_on', channel=9, note=38, velocity=127, time=0),
    Message('note_on', channel=9, note=42, velocity=127, time=0),
    Message('note_on', channel=9, note=51, velocity=127, time=0),
    Message('note_on', channel=9, note=35, velocity=0, time=64),
    Message('note_on', channel=9, note=38, velocity=0, time=0),
    Message('note_on', channel=9, note=42, velocity=0, time=0),
    Message('note_on', channel=9, note=51, velocity=0, time=0),
    Message('note_on', channel=9, note=38, velocity=127, time=0),
    Message('note_on', channel=9, note=42, velocity=127, time=0),
    Message('note_on', channel=9, note=38, velocity=0, time=64),
    Message('note_on', channel=9, note=42, velocity=0, time=0),
    Message('note_on', channel=9, note=38, velocity=127, time=0),
    Message('note_on', channel=9, note=42, velocity=127, time=0),
    Message('note_on', channel=9, note=38, velocity=0, time=64),
    Message('note_on', channel=9, note=42, velocity=0, time=0),
    Message('note_on', channel=9, note=38, velocity=127, time=0),
    Message('note_on', channel=9, note=42, velocity=127, time=0),
    Message('note_on', channel=9, note=37, velocity=127, time=0),
    Message('note_on', channel=9, note=38, velocity=0, time=64),
    Message('note_on', channel=9, note=42, velocity=0, time=0),
    Message('note_on', channel=9, note=37, velocity=0, time=0),
    Message('note_on', channel=9, note=38, velocity=127, time=0),
    Message('note_on', channel=9, note=42, velocity=127, time=0),
    Message('note_on', channel=9, note=38, velocity=0, time=64),
    Message('note_on', channel=9, note=42, velocity=0, time=0),
    Message('note_on', channel=9, note=35, velocity=127, time=0),
    Message('note_on', channel=9, note=38, velocity=127, time=0),
    Message('note_on', channel=9, note=42, velocity=127, time=0),
    Message('note_on', channel=9, note=35, velocity=0, time=64),
    Message('note_on', channel=9, note=38, velocity=0, time=0),
    Message('note_on', channel=9, note=42, velocity=0, time=0),
    Message('note_on', channel=9, note=35, velocity=127, time=0),
    Message('note_on', channel=9, note=38, velocity=127, time=0),
    Message('note_on', channel=9, note=42, velocity=127, time=0),
    Message('note_on', channel=9, note=35, velocity=0, time=64),
    Message('note_on', channel=9, note=38, velocity=0, time=0),
    Message('note_on', channel=9, note=42, velocity=0, time=0),
    Message('note_on', channel=9, note=38, velocity=127, time=0),
    Message('note_on', channel=9, note=42, velocity=127, time=0),
    Message('note_on', channel=9, note=38, velocity=0, time=64),
    Message('note_on', channel=9, note=42, velocity=0, time=0),
    Message('note_on', channel=9, note=38, velocity=127, time=0),
    Message('note_on', channel=9, note=42, velocity=127, time=0),
    Message('note_on', channel=9, note=38, velocity=0, time=64),
    Message('note_on', channel=9, note=42, velocity=0, time=0),
    Message('note_on', channel=9, note=38, velocity=127, time=0),
    Message('note_on', channel=9, note=42, velocity=127, time=0),
    Message('note_on', channel=9, note=37, velocity=127, time=0),
    Message('note_on', channel=9, note=38, velocity=0, time=64),
    Message('note_on', channel=9, note=42, velocity=0, time=0),
    Message('note_on', channel=9, note=37, velocity=0, time=0),
    Message('note_on', channel=9, note=38, velocity=127, time=0),
    Message('note_on', channel=9, note=42, velocity=127, time=0),
    Message('note_on', channel=9, note=38, velocity=0, time=64),
    Message('note_on', channel=9, note=42, velocity=0, time=0),
    Message('note_on', channel=9, note=35, velocity=127, time=0),
    Message('note_on', channel=9, note=38, velocity=127, time=0),
    Message('note_on', channel=9, note=42, velocity=127, time=0),
    Message('note_on', channel=9, note=35, velocity=0, time=64),
    Message('note_on', channel=9, note=38, velocity=0, time=0),
    Message('note_on', channel=9, note=42, velocity=0, time=0),
    Message('note_on', channel=9, note=35, velocity=127, time=0),
    Message('note_on', channel=9, note=38, velocity=127, time=0),
    Message('note_on', channel=9, note=42, velocity=127, time=0),
    Message('note_on', channel=9, note=49, velocity=127, time=0),
    Message('note_on', channel=9, note=35, velocity=0, time=64),
    Message('note_on', channel=9, note=38, velocity=0, time=0),
    Message('note_on', channel=9, note=42, velocity=0, time=0),
    Message('note_on', channel=9, note=49, velocity=0, time=0),
    Message('note_on', channel=9, note=38, velocity=127, time=0),
    Message('note_on', channel=9, note=42, velocity=127, time=0),
    Message('note_on', channel=9, note=51, velocity=127, time=0),
    Message('note_on', channel=9, note=38, velocity=0, time=64),
    Message('note_on', channel=9, note=42, velocity=0, time=0),
    Message('note_on', channel=9, note=51, velocity=0, time=0),
    Message('note_on', channel=9, note=38, velocity=127, time=0),
    Message('note_on', channel=9, note=42, velocity=127, time=0),
    Message('note_on', channel=9, note=51, velocity=127, time=0),
    Message('note_on', channel=9, note=38, velocity=0, time=64),
    Message('note_on', channel=9, note=42, velocity=0, time=0),
    Message('note_on', channel=9, note=51, velocity=0, time=0),
    Message('note_on', channel=9, note=42, velocity=127, time=0),
    Message('note_on', channel=9, note=49, velocity=127, time=0),
    Message('note_on', channel=9, note=48, velocity=127, time=0),
    Message('note_on', channel=9, note=42, velocity=0, time=64),
    Message('note_on', channel=9, note=49, velocity=0, time=0),
    Message('note_on', channel=9, note=48, velocity=0, time=0),
    Message('note_on', channel=9, note=42, velocity=127, time=0),
    Message('note_on', channel=9, note=51, velocity=127, time=0),
    Message('note_on', channel=9, note=48, velocity=127, time=0),
    Message('note_on', channel=9, note=42, velocity=0, time=64),
    Message('note_on', channel=9, note=51, velocity=0, time=0),
    Message('note_on', channel=9, note=48, velocity=0, time=0),
    Message('note_on', channel=9, note=35, velocity=127, time=0),
    Message('note_on', channel=9, note=42, velocity=127, time=0),
    Message('note_on', channel=9, note=51, velocity=127, time=0),
    Message('note_on', channel=9, note=48, velocity=127, time=0),
    Message('note_on', channel=9, note=35, velocity=0, time=64),
    Message('note_on', channel=9, note=42, velocity=0, time=0),
    Message('note_on', channel=9, note=51, velocity=0, time=0),
    Message('note_on', channel=9, note=48, velocity=0, time=0),
    Message('note_on', channel=9, note=35, velocity=127, time=0),
    Message('note_on', channel=9, note=38, velocity=127, time=0),
    Message('note_on', channel=9, note=42, velocity=127, time=0),
    Message('note_on', channel=9, note=49, velocity=127, time=0),
    Message('note_on', channel=9, note=45, velocity=127, time=0),
    Message('note_on', channel=9, note=35, velocity=0, time=64),
    Message('note_on', channel=9, note=38, velocity=0, time=0),
    Message('note_on', channel=9, note=42, velocity=0, time=0),
    Message('note_on', channel=9, note=49, velocity=0, time=0),
    Message('note_on', channel=9, note=45, velocity=0, time=0),
    Message('note_on', channel=9, note=42, velocity=127, time=0),
    Message('note_on', channel=9, note=51, velocity=127, time=0),
    Message('note_on', channel=9, note=45, velocity=127, time=0),
    Message('note_on', channel=9, note=42, velocity=0, time=64),
    Message('note_on', channel=9, note=51, velocity=0, time=0),
    Message('note_on', channel=9, note=45, velocity=0, time=0),
    Message('note_on', channel=9, note=35, velocity=127, time=0),
    Message('note_on', channel=9, note=42, velocity=127, time=0),
    Message('note_on', channel=9, note=51, velocity=127, time=0),
    Message('note_on', channel=9, note=45, velocity=127, time=0),
    Message('note_on', channel=9, note=35, velocity=0, time=64),
    Message('note_on', channel=9, note=42, velocity=0, time=0),
    Message('note_on', channel=9, note=51, velocity=0, time=0),
    Message('note_on', channel=9, note=45, velocity=0, time=0),
    Message('note_on', channel=9, note=42, velocity=127, time=0),
    Message('note_on', channel=9, note=49, velocity=127, time=0),
    Message('note_on', channel=9, note=41, velocity=127, time=0),
    Message('note_on', channel=9, note=42, velocity=0, time=64),
    Message('note_on', channel=9, note=49, velocity=0, time=0),
    Message('note_on', channel=9, note=41, velocity=0, time=0),
    Message('note_on', channel=9, note=35, velocity=127, time=0),
    Message('note_on', channel=9, note=42, velocity=127, time=0),
    Message('note_on', channel=9, note=51, velocity=127, time=0),
    Message('note_on', channel=9, note=41, velocity=127, time=0),
    Message('note_on', channel=9, note=35, velocity=0, time=64),
    Message('note_on', channel=9, note=42, velocity=0, time=0),
    Message('note_on', channel=9, note=51, velocity=0, time=0),
    Message('note_on', channel=9, note=41, velocity=0, time=0),
    Message('note_on', channel=9, note=35, velocity=127, time=0),
    Message('note_on', channel=9, note=42, velocity=127, time=0),
    Message('note_on', channel=9, note=51, velocity=127, time=0),
    Message('note_on', channel=9, note=41, velocity=127, time=0),
    Message('note_on', channel=9, note=35, velocity=0, time=64),
    Message('note_on', channel=9, note=42, velocity=0, time=0),
    Message('note_on', channel=9, note=51, velocity=0, time=0),
    Message('note_on', channel=9, note=41, velocity=0, time=0),
    Message('note_on', channel=9, note=35, velocity=127, time=0),
    Message('note_on', channel=9, note=42, velocity=127, time=0),
    Message('note_on', channel=9, note=49, velocity=127, time=0),
    Message('note_on', channel=9, note=41, velocity=127, time=0),
    Message('note_on', channel=9, note=35, velocity=0, time=64),
    Message('note_on', channel=9, note=42, velocity=0, time=0),
    Message('note_on', channel=9, note=49, velocity=0, time=0),
    Message('note_on', channel=9, note=41, velocity=0, time=0),
    Message('note_on', channel=9, note=42, velocity=127, time=0),
    Message('note_on', channel=9, note=42, velocity=0, time=64),
    Message('note_on', channel=9, note=42, velocity=127, time=0),
    Message('note_on', channel=9, note=42, velocity=0, time=64),
    Message('note_on', channel=9, note=38, velocity=127, time=0),
    Message('note_on', channel=9, note=42, velocity=127, time=0),
    Message('note_on', channel=9, note=37, velocity=127, time=0),
    Message('note_on', channel=9, note=38, velocity=0, time=64),
    Message('note_on', channel=9, note=42, velocity=0, time=0),
    Message('note_on', channel=9, note=37, velocity=0, time=0),
    Message('note_on', channel=9, note=42, velocity=127, time=0),
    Message('note_on', channel=9, note=42, velocity=0, time=64),
    Message('note_on', channel=9, note=35, velocity=127, time=0),
    Message('note_on', channel=9, note=42, velocity=127, time=0),
    Message('note_on', channel=9, note=35, velocity=0, time=64),
    Message('note_on', channel=9, note=42, velocity=0, time=0),
    Message('note_on', channel=9, note=35, velocity=127, time=0),
    Message('note_on', channel=9, note=42, velocity=127, time=0),
    Message('note_on', channel=9, note=35, velocity=0, time=64),
    Message('note_on', channel=9, note=42, velocity=0, time=0),
    Message('note_on', channel=9, note=42, velocity=127, time=0),
    Message('note_on', channel=9, note=42, velocity=0, time=64),
    Message('note_on', channel=9, note=42, velocity=127, time=0),
    Message('note_on', channel=9, note=42, velocity=0, time=64),
    Message('note_on', channel=9, note=42, velocity=127, time=0),
    Message('note_on', channel=9, note=37, velocity=127, time=0),
    Message('note_on', channel=9, note=42, velocity=0, time=64),
    Message('note_on', channel=9, note=37, velocity=0, time=0),
    Message('note_on', channel=9, note=42, velocity=127, time=0),
    Message('note_on', channel=9, note=42, velocity=0, time=64),
    Message('note_on', channel=9, note=35, velocity=127, time=0),
    Message('note_on', channel=9, note=42, velocity=127, time=0),
    Message('note_on', channel=9, note=35, velocity=0, time=64),
    Message('note_on', channel=9, note=42, velocity=0, time=0),
    Message('note_on', channel=9, note=35, velocity=127, time=0),
    Message('note_on', channel=9, note=42, velocity=127, time=0),
    Message('note_on', channel=9, note=35, velocity=0, time=64),
    Message('note_on', channel=9, note=42, velocity=0, time=0),
    Message('note_on', channel=9, note=42, velocity=127, time=0),
    Message('note_on', channel=9, note=42, velocity=0, time=64),
    Message('note_on', channel=9, note=42, velocity=127, time=0),
    Message('note_on', channel=9, note=42, velocity=0, time=64),
    Message('note_on', channel=9, note=42, velocity=127, time=0),
    Message('note_on', channel=9, note=37, velocity=127, time=0),
    Message('note_on', channel=9, note=42, velocity=0, time=64),
    Message('note_on', channel=9, note=37, velocity=0, time=0),
    Message('note_on', channel=9, note=42, velocity=127, time=0),
    Message('note_on', channel=9, note=42, velocity=0, time=64),
    Message('note_on', channel=9, note=35, velocity=127, time=0),
    Message('note_on', channel=9, note=42, velocity=127, time=0),
    Message('note_on', channel=9, note=35, velocity=0, time=64),
    Message('note_on', channel=9, note=42, velocity=0, time=0),
    Message('note_on', channel=9, note=35, velocity=127, time=0),
    Message('note_on', channel=9, note=42, velocity=127, time=0),
    Message('note_on', channel=9, note=35, velocity=0, time=64),
    Message('note_on', channel=9, note=42, velocity=0, time=0),
    Message('note_on', channel=9, note=42, velocity=127, time=0),
    Message('note_on', channel=9, note=42, velocity=0, time=64),
    Message('note_on', channel=9, note=35, velocity=127, time=0),
    Message('note_on', channel=9, note=42, velocity=127, time=0),
    Message('note_on', channel=9, note=35, velocity=0, time=64),
    Message('note_on', channel=9, note=42, velocity=0, time=0),
    Message('note_on', channel=9, note=42, velocity=127, time=0),
    Message('note_on', channel=9, note=37, velocity=127, time=0),
    Message('note_on', channel=9, note=42, velocity=0, time=64),
    Message('note_on', channel=9, note=37, velocity=0, time=0),
    Message('note_on', channel=9, note=35, velocity=127, time=0),
    Message('note_on', channel=9, note=42, velocity=127, time=0),
    Message('note_on', channel=9, note=35, velocity=0, time=64),
    Message('note_on', channel=9, note=42, velocity=0, time=0),
    Message('note_on', channel=9, note=35, velocity=127, time=0),
    Message('note_on', channel=9, note=42, velocity=127, time=0),
    Message('note_on', channel=9, note=35, velocity=0, time=64),
    Message('note_on', channel=9, note=42, velocity=0, time=0),
    Message('note_on', channel=9, note=35, velocity=127, time=0),
    Message('note_on', channel=9, note=42, velocity=127, time=0),
    Message('note_on', channel=9, note=35, velocity=0, time=64),
    Message('note_on', channel=9, note=42, velocity=0, time=0),
    Message('note_on', channel=9, note=42, velocity=127, time=0),
    Message('note_on', channel=9, note=42, velocity=0, time=64),
    Message('note_on', channel=9, note=42, velocity=127, time=0),
    Message('note_on', channel=9, note=42, velocity=0, time=64),
    Message('note_on', channel=9, note=42, velocity=127, time=0),
    Message('note_on', channel=9, note=37, velocity=127, time=0),
    Message('note_on', channel=9, note=42, velocity=0, time=64),
    Message('note_on', channel=9, note=37, velocity=0, time=0),
    Message('note_on', channel=9, note=42, velocity=127, time=0),
    Message('note_on', channel=9, note=42, velocity=0, time=64),
    Message('note_on', channel=9, note=35, velocity=127, time=0),
    Message('note_on', channel=9, note=42, velocity=127, time=0),
    Message('note_on', channel=9, note=35, velocity=0, time=64),
    Message('note_on', channel=9, note=42, velocity=0, time=0),
    Message('note_on', channel=9, note=35, velocity=127, time=0),
    Message('note_on', channel=9, note=42, velocity=127, time=0),
    Message('note_on', channel=9, note=35, velocity=0, time=64),
    Message('note_on', channel=9, note=42, velocity=0, time=0),
    Message('note_on', channel=9, note=42, velocity=127, time=0),
    Message('note_on', channel=9, note=42, velocity=0, time=64),
    Message('note_on', channel=9, note=42, velocity=127, time=0),
    Message('note_on', channel=9, note=42, velocity=0, time=64),
    Message('note_on', channel=9, note=42, velocity=127, time=0),
    Message('note_on', channel=9, note=37, velocity=127, time=0),
    Message('note_on', channel=9, note=42, velocity=0, time=64),
    Message('note_on', channel=9, note=37, velocity=0, time=0),
    Message('note_on', channel=9, note=42, velocity=127, time=0),
    Message('note_on', channel=9, note=42, velocity=0, time=64),
    Message('note_on', channel=9, note=35, velocity=127, time=0),
    Message('note_on', channel=9, note=42, velocity=127, time=0),
    Message('note_on', channel=9, note=35, velocity=0, time=64),
    Message('note_on', channel=9, note=42, velocity=0, time=0),
    Message('note_on', channel=9, note=35, velocity=127, time=0),
    Message('note_on', channel=9, note=42, velocity=127, time=0),
    Message('note_on', channel=9, note=35, velocity=0, time=64),
    Message('note_on', channel=9, note=42, velocity=0, time=0),
    Message('note_on', channel=9, note=42, velocity=127, time=0),
    Message('note_on', channel=9, note=42, velocity=0, time=64),
    Message('note_on', channel=9, note=42, velocity=127, time=0),
    Message('note_on', channel=9, note=42, velocity=0, time=64),
    Message('note_on', channel=9, note=42, velocity=127, time=0),
    Message('note_on', channel=9, note=37, velocity=127, time=0),
    Message('note_on', channel=9, note=42, velocity=0, time=64),
    Message('note_on', channel=9, note=37, velocity=0, time=0),
    Message('note_on', channel=9, note=42, velocity=127, time=0),
    Message('note_on', channel=9, note=42, velocity=0, time=64),
    Message('note_on', channel=9, note=35, velocity=127, time=0),
    Message('note_on', channel=9, note=42, velocity=127, time=0),
    Message('note_on', channel=9, note=35, velocity=0, time=64),
    Message('note_on', channel=9, note=42, velocity=0, time=0),
    Message('note_on', channel=9, note=35, velocity=127, time=0),
    Message('note_on', channel=9, note=42, velocity=127, time=0),
    Message('note_on', channel=9, note=35, velocity=0, time=64),
    Message('note_on', channel=9, note=42, velocity=0, time=0),
    Message('note_on', channel=9, note=42, velocity=127, time=0),
    Message('note_on', channel=9, note=42, velocity=0, time=64),
    Message('note_on', channel=9, note=35, velocity=127, time=0),
    Message('note_on', channel=9, note=42, velocity=127, time=0),
    Message('note_on', channel=9, note=35, velocity=0, time=64),
    Message('note_on', channel=9, note=42, velocity=0, time=0),
    Message('note_on', channel=9, note=42, velocity=127, time=0),
    Message('note_on', channel=9, note=37, velocity=127, time=0),
    Message('note_on', channel=9, note=42, velocity=0, time=64),
    Message('note_on', channel=9, note=37, velocity=0, time=0),
    Message('note_on', channel=9, note=35, velocity=127, time=0),
    Message('note_on', channel=9, note=42, velocity=127, time=0),
    Message('note_on', channel=9, note=35, velocity=0, time=64),
    Message('note_on', channel=9, note=42, velocity=0, time=0),
    Message('note_on', channel=9, note=35, velocity=127, time=0),
    Message('note_on', channel=9, note=42, velocity=127, time=0),
    Message('note_on', channel=9, note=35, velocity=0, time=64),
    Message('note_on', channel=9, note=42, velocity=0, time=0),
    Message('note_on', channel=9, note=35, velocity=127, time=0),
    Message('note_on', channel=9, note=42, velocity=127, time=0),
    Message('note_on', channel=9, note=35, velocity=0, time=64),
    Message('note_on', channel=9, note=42, velocity=0, time=0),
    Message('note_on', channel=9, note=42, velocity=127, time=0),
    Message('note_on', channel=9, note=42, velocity=0, time=64),
    Message('note_on', channel=9, note=42, velocity=127, time=0),
    Message('note_on', channel=9, note=42, velocity=0, time=64),
    Message('note_on', channel=9, note=42, velocity=127, time=0),
    Message('note_on', channel=9, note=37, velocity=127, time=0),
    Message('note_on', channel=9, note=42, velocity=0, time=64),
    Message('note_on', channel=9, note=37, velocity=0, time=0),
    Message('note_on', channel=9, note=42, velocity=127, time=0),
    Message('note_on', channel=9, note=42, velocity=0, time=64),
    Message('note_on', channel=9, note=35, velocity=127, time=0),
    Message('note_on', channel=9, note=42, velocity=127, time=0),
    Message('note_on', channel=9, note=35, velocity=0, time=64),
    Message('note_on', channel=9, note=42, velocity=0, time=0),
    Message('note_on', channel=9, note=35, velocity=127, time=0),
    Message('note_on', channel=9, note=42, velocity=127, time=0),
    Message('note_on', channel=9, note=35, velocity=0, time=64),
    Message('note_on', channel=9, note=42, velocity=0, time=0),
    Message('note_on', channel=9, note=42, velocity=127, time=0),
    Message('note_on', channel=9, note=42, velocity=0, time=64),
    Message('note_on', channel=9, note=42, velocity=127, time=0),
    Message('note_on', channel=9, note=42, velocity=0, time=64),
    Message('note_on', channel=9, note=42, velocity=127, time=0),
    Message('note_on', channel=9, note=37, velocity=127, time=0),
    Message('note_on', channel=9, note=42, velocity=0, time=64),
    Message('note_on', channel=9, note=37, velocity=0, time=0),
    Message('note_on', channel=9, note=42, velocity=127, time=0),
    Message('note_on', channel=9, note=42, velocity=0, time=64),
    Message('note_on', channel=9, note=35, velocity=127, time=0),
    Message('note_on', channel=9, note=42, velocity=127, time=0),
    Message('note_on', channel=9, note=35, velocity=0, time=64),
    Message('note_on', channel=9, note=42, velocity=0, time=0),
    Message('note_on', channel=9, note=35, velocity=127, time=0),
    Message('note_on', channel=9, note=42, velocity=127, time=0),
    Message('note_on', channel=9, note=35, velocity=0, time=64),
    Message('note_on', channel=9, note=42, velocity=0, time=0),
    Message('note_on', channel=9, note=42, velocity=127, time=0),
    Message('note_on', channel=9, note=42, velocity=0, time=64),
    Message('note_on', channel=9, note=42, velocity=127, time=0),
    Message('note_on', channel=9, note=42, velocity=0, time=64),
    Message('note_on', channel=9, note=42, velocity=127, time=0),
    Message('note_on', channel=9, note=37, velocity=127, time=0),
    Message('note_on', channel=9, note=42, velocity=0, time=64),
    Message('note_on', channel=9, note=37, velocity=0, time=0),
    Message('note_on', channel=9, note=42, velocity=127, time=0),
    Message('note_on', channel=9, note=42, velocity=0, time=64),
    Message('note_on', channel=9, note=35, velocity=127, time=0),
    Message('note_on', channel=9, note=42, velocity=127, time=0),
    Message('note_on', channel=9, note=35, velocity=0, time=64),
    Message('note_on', channel=9, note=42, velocity=0, time=0),
    Message('note_on', channel=9, note=35, velocity=127, time=0),
    Message('note_on', channel=9, note=42, velocity=127, time=0),
    Message('note_on', channel=9, note=35, velocity=0, time=64),
    Message('note_on', channel=9, note=42, velocity=0, time=0),
    Message('note_on', channel=9, note=42, velocity=127, time=0),
    Message('note_on', channel=9, note=42, velocity=0, time=64),
    Message('note_on', channel=9, note=35, velocity=127, time=0),
    Message('note_on', channel=9, note=42, velocity=127, time=0),
    Message('note_on', channel=9, note=35, velocity=0, time=64),
    Message('note_on', channel=9, note=42, velocity=0, time=0),
    Message('note_on', channel=9, note=42, velocity=127, time=0),
    Message('note_on', channel=9, note=37, velocity=127, time=0),
    Message('note_on', channel=9, note=42, velocity=0, time=64),
    Message('note_on', channel=9, note=37, velocity=0, time=0),
    Message('note_on', channel=9, note=35, velocity=127, time=0),
    Message('note_on', channel=9, note=42, velocity=127, time=0),
    Message('note_on', channel=9, note=35, velocity=0, time=64),
    Message('note_on', channel=9, note=42, velocity=0, time=0),
    Message('note_on', channel=9, note=35, velocity=127, time=0),
    Message('note_on', channel=9, note=42, velocity=127, time=0),
    Message('note_on', channel=9, note=35, velocity=0, time=64),
    Message('note_on', channel=9, note=42, velocity=0, time=0),
    Message('note_on', channel=9, note=35, velocity=127, time=0),
    Message('note_on', channel=9, note=42, velocity=127, time=0),
    Message('note_on', channel=9, note=35, velocity=0, time=64),
    Message('note_on', channel=9, note=42, velocity=0, time=0),
    Message('note_on', channel=9, note=42, velocity=127, time=0),
    Message('note_on', channel=9, note=42, velocity=0, time=64),
    Message('note_on', channel=9, note=42, velocity=127, time=0),
    Message('note_on', channel=9, note=42, velocity=0, time=64),
    Message('note_on', channel=9, note=42, velocity=127, time=0),
    Message('note_on', channel=9, note=37, velocity=127, time=0),
    Message('note_on', channel=9, note=42, velocity=0, time=64),
    Message('note_on', channel=9, note=37, velocity=0, time=0),
    Message('note_on', channel=9, note=42, velocity=127, time=0),
    Message('note_on', channel=9, note=42, velocity=0, time=64),
    Message('note_on', channel=9, note=35, velocity=127, time=0),
    Message('note_on', channel=9, note=42, velocity=127, time=0),
    Message('note_on', channel=9, note=35, velocity=0, time=64),
    Message('note_on', channel=9, note=42, velocity=0, time=0),
    Message('note_on', channel=9, note=35, velocity=127, time=0),
    Message('note_on', channel=9, note=42, velocity=127, time=0),
    Message('note_on', channel=9, note=35, velocity=0, time=64),
    Message('note_on', channel=9, note=42, velocity=0, time=0),
    Message('note_on', channel=9, note=42, velocity=127, time=0),
    Message('note_on', channel=9, note=42, velocity=0, time=64),
    Message('note_on', channel=9, note=42, velocity=127, time=0),
    Message('note_on', channel=9, note=42, velocity=0, time=64),
    Message('note_on', channel=9, note=42, velocity=127, time=0),
    Message('note_on', channel=9, note=37, velocity=127, time=0),
    Message('note_on', channel=9, note=42, velocity=0, time=64),
    Message('note_on', channel=9, note=37, velocity=0, time=0),
    Message('note_on', channel=9, note=42, velocity=127, time=0),
    Message('note_on', channel=9, note=42, velocity=0, time=64),
    Message('note_on', channel=9, note=35, velocity=127, time=0),
    Message('note_on', channel=9, note=42, velocity=127, time=0),
    Message('note_on', channel=9, note=35, velocity=0, time=64),
    Message('note_on', channel=9, note=42, velocity=0, time=0),
    Message('note_on', channel=9, note=35, velocity=127, time=0),
    Message('note_on', channel=9, note=42, velocity=127, time=0),
    Message('note_on', channel=9, note=35, velocity=0, time=64),
    Message('note_on', channel=9, note=42, velocity=0, time=0),
    Message('note_on', channel=9, note=42, velocity=127, time=0),
    Message('note_on', channel=9, note=42, velocity=0, time=64),
    Message('note_on', channel=9, note=42, velocity=127, time=0),
    Message('note_on', channel=9, note=42, velocity=0, time=64),
    Message('note_on', channel=9, note=42, velocity=127, time=0),
    Message('note_on', channel=9, note=37, velocity=127, time=0),
    Message('note_on', channel=9, note=42, velocity=0, time=64),
    Message('note_on', channel=9, note=37, velocity=0, time=0),
    Message('note_on', channel=9, note=42, velocity=127, time=0),
    Message('note_on', channel=9, note=42, velocity=0, time=64),
    Message('note_on', channel=9, note=35, velocity=127, time=0),
    Message('note_on', channel=9, note=42, velocity=127, time=0),
    Message('note_on', channel=9, note=35, velocity=0, time=64),
    Message('note_on', channel=9, note=42, velocity=0, time=0),
    Message('note_on', channel=9, note=35, velocity=127, time=0),
    Message('note_on', channel=9, note=42, velocity=127, time=0),
    Message('note_on', channel=9, note=35, velocity=0, time=64),
    Message('note_on', channel=9, note=42, velocity=0, time=0),
    Message('note_on', channel=9, note=42, velocity=127, time=0),
    Message('note_on', channel=9, note=42, velocity=0, time=64),
    Message('note_on', channel=9, note=35, velocity=127, time=0),
    Message('note_on', channel=9, note=42, velocity=127, time=0),
    Message('note_on', channel=9, note=35, velocity=0, time=64),
    Message('note_on', channel=9, note=42, velocity=0, time=0),
    Message('note_on', channel=9, note=42, velocity=127, time=0),
    Message('note_on', channel=9, note=37, velocity=127, time=0),
    Message('note_on', channel=9, note=42, velocity=0, time=64),
    Message('note_on', channel=9, note=37, velocity=0, time=0),
    Message('note_on', channel=9, note=35, velocity=127, time=0),
    Message('note_on', channel=9, note=42, velocity=127, time=0),
    Message('note_on', channel=9, note=48, velocity=127, time=0),
    Message('note_on', channel=9, note=35, velocity=0, time=64),
    Message('note_on', channel=9, note=42, velocity=0, time=0),
    Message('note_on', channel=9, note=48, velocity=0, time=0),
    Message('note_on', channel=9, note=35, velocity=127, time=0),
    Message('note_on', channel=9, note=46, velocity=127, time=0),
    Message('note_on', channel=9, note=45, velocity=127, time=0),
    Message('note_on', channel=9, note=35, velocity=0, time=64),
    Message('note_on', channel=9, note=46, velocity=0, time=0),
    Message('note_on', channel=9, note=45, velocity=0, time=0),
    Message('note_on', channel=9, note=35, velocity=127, time=0),
    Message('note_on', channel=9, note=42, velocity=127, time=0),
    Message('note_on', channel=9, note=35, velocity=0, time=64),
    Message('note_on', channel=9, note=42, velocity=0, time=0),
    Message('note_on', channel=9, note=42, velocity=127, time=0),
    Message('note_on', channel=9, note=42, velocity=0, time=64),
    Message('note_on', channel=9, note=42, velocity=127, time=0),
    Message('note_on', channel=9, note=42, velocity=0, time=64),
    Message('note_on', channel=9, note=42, velocity=127, time=0),
    Message('note_on', channel=9, note=37, velocity=127, time=0),
    Message('note_on', channel=9, note=42, velocity=0, time=64),
    Message('note_on', channel=9, note=37, velocity=0, time=0),
    Message('note_on', channel=9, note=42, velocity=127, time=0),
    Message('note_on', channel=9, note=42, velocity=0, time=64),
    Message('note_on', channel=9, note=35, velocity=127, time=0),
    Message('note_on', channel=9, note=42, velocity=127, time=0),
    Message('note_on', channel=9, note=35, velocity=0, time=64),
    Message('note_on', channel=9, note=42, velocity=0, time=0),
    Message('note_on', channel=9, note=35, velocity=127, time=0),
    Message('note_on', channel=9, note=42, velocity=127, time=0),
    Message('note_on', channel=9, note=35, velocity=0, time=64),
    Message('note_on', channel=9, note=42, velocity=0, time=0),
    Message('note_on', channel=9, note=42, velocity=127, time=0),
    Message('note_on', channel=9, note=42, velocity=0, time=64),
    Message('note_on', channel=9, note=42, velocity=127, time=0),
    Message('note_on', channel=9, note=42, velocity=0, time=64),
    Message('note_on', channel=9, note=42, velocity=127, time=0),
    Message('note_on', channel=9, note=37, velocity=127, time=0),
    Message('note_on', channel=9, note=42, velocity=0, time=64),
    Message('note_on', channel=9, note=37, velocity=0, time=0),
    Message('note_on', channel=9, note=42, velocity=127, time=0),
    Message('note_on', channel=9, note=42, velocity=0, time=64),
    Message('note_on', channel=9, note=35, velocity=127, time=0),
    Message('note_on', channel=9, note=42, velocity=127, time=0),
    Message('note_on', channel=9, note=35, velocity=0, time=64),
    Message('note_on', channel=9, note=42, velocity=0, time=0),
    Message('note_on', channel=9, note=35, velocity=127, time=0),
    Message('note_on', channel=9, note=42, velocity=127, time=0),
    Message('note_on', channel=9, note=35, velocity=0, time=64),
    Message('note_on', channel=9, note=42, velocity=0, time=0),
    Message('note_on', channel=9, note=42, velocity=127, time=0),
    Message('note_on', channel=9, note=42, velocity=0, time=64),
    Message('note_on', channel=9, note=42, velocity=127, time=0),
    Message('note_on', channel=9, note=42, velocity=0, time=64),
    Message('note_on', channel=9, note=42, velocity=127, time=0),
    Message('note_on', channel=9, note=37, velocity=127, time=0),
    Message('note_on', channel=9, note=42, velocity=0, time=64),
    Message('note_on', channel=9, note=37, velocity=0, time=0),
    Message('note_on', channel=9, note=42, velocity=127, time=0),
    Message('note_on', channel=9, note=42, velocity=0, time=64),
    Message('note_on', channel=9, note=35, velocity=127, time=0),
    Message('note_on', channel=9, note=42, velocity=127, time=0),
    Message('note_on', channel=9, note=35, velocity=0, time=64),
    Message('note_on', channel=9, note=42, velocity=0, time=0),
    Message('note_on', channel=9, note=35, velocity=127, time=0),
    Message('note_on', channel=9, note=42, velocity=127, time=0),
    Message('note_on', channel=9, note=35, velocity=0, time=64),
    Message('note_on', channel=9, note=42, velocity=0, time=0),
    Message('note_on', channel=9, note=42, velocity=127, time=0),
    Message('note_on', channel=9, note=42, velocity=0, time=64),
    Message('note_on', channel=9, note=35, velocity=127, time=0),
    Message('note_on', channel=9, note=42, velocity=127, time=0),
    Message('note_on', channel=9, note=35, velocity=0, time=64),
    Message('note_on', channel=9, note=42, velocity=0, time=0),
    Message('note_on', channel=9, note=42, velocity=127, time=0),
    Message('note_on', channel=9, note=37, velocity=127, time=0),
    Message('note_on', channel=9, note=42, velocity=0, time=64),
    Message('note_on', channel=9, note=37, velocity=0, time=0),
    Message('note_on', channel=9, note=35, velocity=127, time=0),
    Message('note_on', channel=9, note=42, velocity=127, time=0),
    Message('note_on', channel=9, note=35, velocity=0, time=64),
    Message('note_on', channel=9, note=42, velocity=0, time=0),
    Message('note_on', channel=9, note=35, velocity=127, time=0),
    Message('note_on', channel=9, note=46, velocity=127, time=0),
    Message('note_on', channel=9, note=35, velocity=0, time=64),
    Message('note_on', channel=9, note=46, velocity=0, time=0),
    Message('note_on', channel=9, note=35, velocity=127, time=0),
    Message('note_on', channel=9, note=42, velocity=127, time=0),
    Message('note_on', channel=9, note=35, velocity=0, time=64),
    Message('note_on', channel=9, note=42, velocity=0, time=0),
    Message('note_on', channel=9, note=42, velocity=127, time=0),
    Message('note_on', channel=9, note=42, velocity=0, time=64),
    Message('note_on', channel=9, note=42, velocity=127, time=0),
    Message('note_on', channel=9, note=42, velocity=0, time=64),
    Message('note_on', channel=9, note=42, velocity=127, time=0),
    Message('note_on', channel=9, note=37, velocity=127, time=0),
    Message('note_on', channel=9, note=42, velocity=0, time=64),
    Message('note_on', channel=9, note=37, velocity=0, time=0),
    Message('note_on', channel=9, note=42, velocity=127, time=0),
    Message('note_on', channel=9, note=42, velocity=0, time=64),
    Message('note_on', channel=9, note=35, velocity=127, time=0),
    Message('note_on', channel=9, note=42, velocity=127, time=0),
    Message('note_on', channel=9, note=35, velocity=0, time=64),
    Message('note_on', channel=9, note=42, velocity=0, time=0),
    Message('note_on', channel=9, note=35, velocity=127, time=0),
    Message('note_on', channel=9, note=42, velocity=127, time=0),
    Message('note_on', channel=9, note=35, velocity=0, time=64),
    Message('note_on', channel=9, note=42, velocity=0, time=0),
    Message('note_on', channel=9, note=42, velocity=127, time=0),
    Message('note_on', channel=9, note=42, velocity=0, time=64),
    Message('note_on', channel=9, note=42, velocity=127, time=0),
    Message('note_on', channel=9, note=42, velocity=0, time=64),
    Message('note_on', channel=9, note=42, velocity=127, time=0),
    Message('note_on', channel=9, note=37, velocity=127, time=0),
    Message('note_on', channel=9, note=42, velocity=0, time=64),
    Message('note_on', channel=9, note=37, velocity=0, time=0),
    Message('note_on', channel=9, note=42, velocity=127, time=0),
    Message('note_on', channel=9, note=42, velocity=0, time=64),
    Message('note_on', channel=9, note=35, velocity=127, time=0),
    Message('note_on', channel=9, note=42, velocity=127, time=0),
    Message('note_on', channel=9, note=35, velocity=0, time=64),
    Message('note_on', channel=9, note=42, velocity=0, time=0),
    Message('note_on', channel=9, note=35, velocity=127, time=0),
    Message('note_on', channel=9, note=42, velocity=127, time=0),
    Message('note_on', channel=9, note=35, velocity=0, time=64),
    Message('note_on', channel=9, note=42, velocity=0, time=0),
    Message('note_on', channel=9, note=42, velocity=127, time=0),
    Message('note_on', channel=9, note=42, velocity=0, time=64),
    Message('note_on', channel=9, note=42, velocity=127, time=0),
    Message('note_on', channel=9, note=42, velocity=0, time=64),
    Message('note_on', channel=9, note=42, velocity=127, time=0),
    Message('note_on', channel=9, note=37, velocity=127, time=0),
    Message('note_on', channel=9, note=42, velocity=0, time=64),
    Message('note_on', channel=9, note=37, velocity=0, time=0),
    Message('note_on', channel=9, note=42, velocity=127, time=0),
    Message('note_on', channel=9, note=42, velocity=0, time=64),
    Message('note_on', channel=9, note=35, velocity=127, time=0),
    Message('note_on', channel=9, note=42, velocity=127, time=0),
    Message('note_on', channel=9, note=35, velocity=0, time=64),
    Message('note_on', channel=9, note=42, velocity=0, time=0),
    Message('note_on', channel=9, note=35, velocity=127, time=0),
    Message('note_on', channel=9, note=42, velocity=127, time=0),
    Message('note_on', channel=9, note=35, velocity=0, time=64),
    Message('note_on', channel=9, note=42, velocity=0, time=0),
    Message('note_on', channel=9, note=42, velocity=127, time=0),
    Message('note_on', channel=9, note=42, velocity=0, time=64),
    Message('note_on', channel=9, note=35, velocity=127, time=0),
    Message('note_on', channel=9, note=42, velocity=127, time=0),
    Message('note_on', channel=9, note=35, velocity=0, time=64),
    Message('note_on', channel=9, note=42, velocity=0, time=0),
    Message('note_on', channel=9, note=42, velocity=127, time=0),
    Message('note_on', channel=9, note=37, velocity=127, time=0),
    Message('note_on', channel=9, note=42, velocity=0, time=64),
    Message('note_on', channel=9, note=37, velocity=0, time=0),
    Message('note_on', channel=9, note=35, velocity=127, time=0),
    Message('note_on', channel=9, note=42, velocity=127, time=0),
    Message('note_on', channel=9, note=35, velocity=0, time=64),
    Message('note_on', channel=9, note=42, velocity=0, time=0),
    Message('note_on', channel=9, note=35, velocity=127, time=0),
    Message('note_on', channel=9, note=42, velocity=127, time=0),
    Message('note_on', channel=9, note=35, velocity=0, time=64),
    Message('note_on', channel=9, note=42, velocity=0, time=0),
    Message('note_on', channel=9, note=35, velocity=127, time=0),
    Message('note_on', channel=9, note=42, velocity=127, time=0),
    Message('note_on', channel=9, note=35, velocity=0, time=64),
    Message('note_on', channel=9, note=42, velocity=0, time=0),
    Message('note_on', channel=9, note=42, velocity=127, time=0),
    Message('note_on', channel=9, note=42, velocity=0, time=64),
    Message('note_on', channel=9, note=42, velocity=127, time=0),
    Message('note_on', channel=9, note=42, velocity=0, time=64),
    Message('note_on', channel=9, note=42, velocity=127, time=0),
    Message('note_on', channel=9, note=37, velocity=127, time=0),
    Message('note_on', channel=9, note=42, velocity=0, time=64),
    Message('note_on', channel=9, note=37, velocity=0, time=0),
    Message('note_on', channel=9, note=42, velocity=127, time=0),
    Message('note_on', channel=9, note=42, velocity=0, time=64),
    Message('note_on', channel=9, note=35, velocity=127, time=0),
    Message('note_on', channel=9, note=42, velocity=127, time=0),
    Message('note_on', channel=9, note=35, velocity=0, time=64),
    Message('note_on', channel=9, note=42, velocity=0, time=0),
    Message('note_on', channel=9, note=35, velocity=127, time=0),
    Message('note_on', channel=9, note=42, velocity=127, time=0),
    Message('note_on', channel=9, note=35, velocity=0, time=64),
    Message('note_on', channel=9, note=42, velocity=0, time=0),
    Message('note_on', channel=9, note=42, velocity=127, time=0),
    Message('note_on', channel=9, note=42, velocity=0, time=64),
    Message('note_on', channel=9, note=42, velocity=127, time=0),
    Message('note_on', channel=9, note=42, velocity=0, time=64),
    Message('note_on', channel=9, note=42, velocity=127, time=0),
    Message('note_on', channel=9, note=37, velocity=127, time=0),
    Message('note_on', channel=9, note=42, velocity=0, time=64),
    Message('note_on', channel=9, note=37, velocity=0, time=0),
    Message('note_on', channel=9, note=42, velocity=127, time=0),
    Message('note_on', channel=9, note=42, velocity=0, time=64),
    Message('note_on', channel=9, note=35, velocity=127, time=0),
    Message('note_on', channel=9, note=42, velocity=127, time=0),
    Message('note_on', channel=9, note=35, velocity=0, time=64),
    Message('note_on', channel=9, note=42, velocity=0, time=0),
    Message('note_on', channel=9, note=35, velocity=127, time=0),
    Message('note_on', channel=9, note=42, velocity=127, time=0),
    Message('note_on', channel=9, note=35, velocity=0, time=64),
    Message('note_on', channel=9, note=42, velocity=0, time=0),
    Message('note_on', channel=9, note=42, velocity=127, time=0),
    Message('note_on', channel=9, note=42, velocity=0, time=64),
    Message('note_on', channel=9, note=42, velocity=127, time=0),
    Message('note_on', channel=9, note=42, velocity=0, time=64),
    Message('note_on', channel=9, note=42, velocity=127, time=0),
    Message('note_on', channel=9, note=37, velocity=127, time=0),
    Message('note_on', channel=9, note=42, velocity=0, time=64),
    Message('note_on', channel=9, note=37, velocity=0, time=0),
    Message('note_on', channel=9, note=42, velocity=127, time=0),
    Message('note_on', channel=9, note=42, velocity=0, time=64),
    Message('note_on', channel=9, note=35, velocity=127, time=0),
    Message('note_on', channel=9, note=42, velocity=127, time=0),
    Message('note_on', channel=9, note=35, velocity=0, time=64),
    Message('note_on', channel=9, note=42, velocity=0, time=0),
    Message('note_on', channel=9, note=35, velocity=127, time=0),
    Message('note_on', channel=9, note=42, velocity=127, time=0),
    Message('note_on', channel=9, note=35, velocity=0, time=64),
    Message('note_on', channel=9, note=42, velocity=0, time=0),
    Message('note_on', channel=9, note=42, velocity=127, time=0),
    Message('note_on', channel=9, note=42, velocity=0, time=64),
    Message('note_on', channel=9, note=35, velocity=127, time=0),
    Message('note_on', channel=9, note=42, velocity=127, time=0),
    Message('note_on', channel=9, note=35, velocity=0, time=64),
    Message('note_on', channel=9, note=42, velocity=0, time=0),
    Message('note_on', channel=9, note=42, velocity=127, time=0),
    Message('note_on', channel=9, note=37, velocity=127, time=0),
    Message('note_on', channel=9, note=42, velocity=0, time=64),
    Message('note_on', channel=9, note=37, velocity=0, time=0),
    Message('note_on', channel=9, note=35, velocity=127, time=0),
    Message('note_on', channel=9, note=42, velocity=127, time=0),
    Message('note_on', channel=9, note=35, velocity=0, time=64),
    Message('note_on', channel=9, note=42, velocity=0, time=0),
    Message('note_on', channel=9, note=35, velocity=127, time=0),
    Message('note_on', channel=9, note=46, velocity=127, time=0),
    Message('note_on', channel=9, note=35, velocity=0, time=64),
    Message('note_on', channel=9, note=46, velocity=0, time=0),
    Message('note_on', channel=9, note=35, velocity=127, time=0),
    Message('note_on', channel=9, note=38, velocity=127, time=0),
    Message('note_on', channel=9, note=42, velocity=127, time=0),
    Message('note_on', channel=9, note=51, velocity=127, time=0),
    Message('note_on', channel=9, note=35, velocity=0, time=64),
    Message('note_on', channel=9, note=38, velocity=0, time=0),
    Message('note_on', channel=9, note=42, velocity=0, time=0),
    Message('note_on', channel=9, note=51, velocity=0, time=0),
    Message('note_on', channel=9, note=38, velocity=127, time=0),
    Message('note_on', channel=9, note=42, velocity=127, time=0),
    Message('note_on', channel=9, note=38, velocity=0, time=64),
    Message('note_on', channel=9, note=42, velocity=0, time=0),
    Message('note_on', channel=9, note=38, velocity=127, time=0),
    Message('note_on', channel=9, note=42, velocity=127, time=0),
    Message('note_on', channel=9, note=38, velocity=0, time=64),
    Message('note_on', channel=9, note=42, velocity=0, time=0),
    Message('note_on', channel=9, note=38, velocity=127, time=0),
    Message('note_on', channel=9, note=42, velocity=127, time=0),
    Message('note_on', channel=9, note=37, velocity=127, time=0),
    Message('note_on', channel=9, note=38, velocity=0, time=64),
    Message('note_on', channel=9, note=42, velocity=0, time=0),
    Message('note_on', channel=9, note=37, velocity=0, time=0),
    Message('note_on', channel=9, note=38, velocity=127, time=0),
    Message('note_on', channel=9, note=42, velocity=127, time=0),
    Message('note_on', channel=9, note=38, velocity=0, time=64),
    Message('note_on', channel=9, note=42, velocity=0, time=0),
    Message('note_on', channel=9, note=35, velocity=127, time=0),
    Message('note_on', channel=9, note=38, velocity=127, time=0),
    Message('note_on', channel=9, note=42, velocity=127, time=0),
    Message('note_on', channel=9, note=35, velocity=0, time=64),
    Message('note_on', channel=9, note=38, velocity=0, time=0),
    Message('note_on', channel=9, note=42, velocity=0, time=0),
    Message('note_on', channel=9, note=35, velocity=127, time=0),
    Message('note_on', channel=9, note=38, velocity=127, time=0),
    Message('note_on', channel=9, note=42, velocity=127, time=0),
    Message('note_on', channel=9, note=35, velocity=0, time=64),
    Message('note_on', channel=9, note=38, velocity=0, time=0),
    Message('note_on', channel=9, note=42, velocity=0, time=0),
    Message('note_on', channel=9, note=38, velocity=127, time=0),
    Message('note_on', channel=9, note=42, velocity=127, time=0),
    Message('note_on', channel=9, note=38, velocity=0, time=64),
    Message('note_on', channel=9, note=42, velocity=0, time=0),
    Message('note_on', channel=9, note=38, velocity=127, time=0),
    Message('note_on', channel=9, note=42, velocity=127, time=0),
    Message('note_on', channel=9, note=38, velocity=0, time=64),
    Message('note_on', channel=9, note=42, velocity=0, time=0),
    Message('note_on', channel=9, note=38, velocity=127, time=0),
    Message('note_on', channel=9, note=42, velocity=127, time=0),
    Message('note_on', channel=9, note=37, velocity=127, time=0),
    Message('note_on', channel=9, note=38, velocity=0, time=64),
    Message('note_on', channel=9, note=42, velocity=0, time=0),
    Message('note_on', channel=9, note=37, velocity=0, time=0),
    Message('note_on', channel=9, note=38, velocity=127, time=0),
    Message('note_on', channel=9, note=42, velocity=127, time=0),
    Message('note_on', channel=9, note=38, velocity=0, time=64),
    Message('note_on', channel=9, note=42, velocity=0, time=0),
    Message('note_on', channel=9, note=35, velocity=127, time=0),
    Message('note_on', channel=9, note=38, velocity=127, time=0),
    Message('note_on', channel=9, note=42, velocity=127, time=0),
    Message('note_on', channel=9, note=35, velocity=0, time=64),
    Message('note_on', channel=9, note=38, velocity=0, time=0),
    Message('note_on', channel=9, note=42, velocity=0, time=0),
    Message('note_on', channel=9, note=35, velocity=127, time=0),
    Message('note_on', channel=9, note=38, velocity=127, time=0),
    Message('note_on', channel=9, note=42, velocity=127, time=0),
    Message('note_on', channel=9, note=49, velocity=127, time=0),
    Message('note_on', channel=9, note=35, velocity=0, time=64),
    Message('note_on', channel=9, note=38, velocity=0, time=0),
    Message('note_on', channel=9, note=42, velocity=0, time=0),
    Message('note_on', channel=9, note=49, velocity=0, time=0),
    Message('note_on', channel=9, note=38, velocity=127, time=0),
    Message('note_on', channel=9, note=42, velocity=127, time=0),
    Message('note_on', channel=9, note=51, velocity=127, time=0),
    Message('note_on', channel=9, note=38, velocity=0, time=64),
    Message('note_on', channel=9, note=42, velocity=0, time=0),
    Message('note_on', channel=9, note=51, velocity=0, time=0),
    Message('note_on', channel=9, note=38, velocity=127, time=0),
    Message('note_on', channel=9, note=42, velocity=127, time=0),
    Message('note_on', channel=9, note=51, velocity=127, time=0),
    Message('note_on', channel=9, note=38, velocity=0, time=64),
    Message('note_on', channel=9, note=42, velocity=0, time=0),
    Message('note_on', channel=9, note=51, velocity=0, time=0),
    Message('note_on', channel=9, note=38, velocity=127, time=0),
    Message('note_on', channel=9, note=42, velocity=127, time=0),
    Message('note_on', channel=9, note=49, velocity=127, time=0),
    Message('note_on', channel=9, note=38, velocity=0, time=64),
    Message('note_on', channel=9, note=42, velocity=0, time=0),
    Message('note_on', channel=9, note=49, velocity=0, time=0),
    Message('note_on', channel=9, note=38, velocity=127, time=0),
    Message('note_on', channel=9, note=42, velocity=127, time=0),
    Message('note_on', channel=9, note=51, velocity=127, time=0),
    Message('note_on', channel=9, note=38, velocity=0, time=64),
    Message('note_on', channel=9, note=42, velocity=0, time=0),
    Message('note_on', channel=9, note=51, velocity=0, time=0),
    Message('note_on', channel=9, note=35, velocity=127, time=0),
    Message('note_on', channel=9, note=38, velocity=127, time=0),
    Message('note_on', channel=9, note=42, velocity=127, time=0),
    Message('note_on', channel=9, note=51, velocity=127, time=0),
    Message('note_on', channel=9, note=35, velocity=0, time=64),
    Message('note_on', channel=9, note=38, velocity=0, time=0),
    Message('note_on', channel=9, note=42, velocity=0, time=0),
    Message('note_on', channel=9, note=51, velocity=0, time=0),
    Message('note_on', channel=9, note=35, velocity=127, time=0),
    Message('note_on', channel=9, note=38, velocity=127, time=0),
    Message('note_on', channel=9, note=42, velocity=127, time=0),
    Message('note_on', channel=9, note=49, velocity=127, time=0),
    Message('note_on', channel=9, note=35, velocity=0, time=64),
    Message('note_on', channel=9, note=38, velocity=0, time=0),
    Message('note_on', channel=9, note=42, velocity=0, time=0),
    Message('note_on', channel=9, note=49, velocity=0, time=0),
    Message('note_on', channel=9, note=38, velocity=127, time=0),
    Message('note_on', channel=9, note=42, velocity=127, time=0),
    Message('note_on', channel=9, note=51, velocity=127, time=0),
    Message('note_on', channel=9, note=38, velocity=0, time=64),
    Message('note_on', channel=9, note=42, velocity=0, time=0),
    Message('note_on', channel=9, note=51, velocity=0, time=0),
    Message('note_on', channel=9, note=38, velocity=127, time=0),
    Message('note_on', channel=9, note=42, velocity=127, time=0),
    Message('note_on', channel=9, note=51, velocity=127, time=0),
    Message('note_on', channel=9, note=38, velocity=0, time=64),
    Message('note_on', channel=9, note=42, velocity=0, time=0),
    Message('note_on', channel=9, note=51, velocity=0, time=0),
    Message('note_on', channel=9, note=38, velocity=127, time=0),
    Message('note_on', channel=9, note=42, velocity=127, time=0),
    Message('note_on', channel=9, note=49, velocity=127, time=0),
    Message('note_on', channel=9, note=48, velocity=127, time=0),
    Message('note_on', channel=9, note=38, velocity=0, time=64),
    Message('note_on', channel=9, note=42, velocity=0, time=0),
    Message('note_on', channel=9, note=49, velocity=0, time=0),
    Message('note_on', channel=9, note=48, velocity=0, time=0),
    Message('note_on', channel=9, note=38, velocity=127, time=0),
    Message('note_on', channel=9, note=42, velocity=127, time=0),
    Message('note_on', channel=9, note=51, velocity=127, time=0),
    Message('note_on', channel=9, note=45, velocity=127, time=0),
    Message('note_on', channel=9, note=38, velocity=0, time=64),
    Message('note_on', channel=9, note=42, velocity=0, time=0),
    Message('note_on', channel=9, note=51, velocity=0, time=0),
    Message('note_on', channel=9, note=45, velocity=0, time=0),
    Message('note_on', channel=9, note=35, velocity=127, time=0),
    Message('note_on', channel=9, note=38, velocity=127, time=0),
    Message('note_on', channel=9, note=42, velocity=127, time=0),
    Message('note_on', channel=9, note=51, velocity=127, time=0),
    Message('note_on', channel=9, note=41, velocity=127, time=0),
    Message('note_on', channel=9, note=35, velocity=0, time=64),
    Message('note_on', channel=9, note=38, velocity=0, time=0),
    Message('note_on', channel=9, note=42, velocity=0, time=0),
    Message('note_on', channel=9, note=51, velocity=0, time=0),
    Message('note_on', channel=9, note=41, velocity=0, time=0),
    Message('note_on', channel=9, note=35, velocity=127, time=0),
    Message('note_on', channel=9, note=42, velocity=127, time=0),
    Message('note_on', channel=9, note=49, velocity=127, time=0),
    Message('note_on', channel=9, note=41, velocity=127, time=0),
    Message('note_on', channel=9, note=35, velocity=0, time=64),
    Message('note_on', channel=9, note=42, velocity=0, time=0),
    Message('note_on', channel=9, note=49, velocity=0, time=0),
    Message('note_on', channel=9, note=41, velocity=0, time=0),
    Message('note_on', channel=9, note=42, velocity=127, time=0),
    Message('note_on', channel=9, note=42, velocity=0, time=64),
    Message('note_on', channel=9, note=42, velocity=127, time=0),
    Message('note_on', channel=9, note=42, velocity=0, time=64),
    Message('note_on', channel=9, note=38, velocity=127, time=0),
    Message('note_on', channel=9, note=42, velocity=127, time=0),
    Message('note_on', channel=9, note=37, velocity=127, time=0),
    Message('note_on', channel=9, note=38, velocity=0, time=64),
    Message('note_on', channel=9, note=42, velocity=0, time=0),
    Message('note_on', channel=9, note=37, velocity=0, time=0),
    Message('note_on', channel=9, note=42, velocity=127, time=0),
    Message('note_on', channel=9, note=42, velocity=0, time=64),
    Message('note_on', channel=9, note=35, velocity=127, time=0),
    Message('note_on', channel=9, note=42, velocity=127, time=0),
    Message('note_on', channel=9, note=35, velocity=0, time=64),
    Message('note_on', channel=9, note=42, velocity=0, time=0),
    Message('note_on', channel=9, note=35, velocity=127, time=0),
    Message('note_on', channel=9, note=42, velocity=127, time=0),
    Message('note_on', channel=9, note=35, velocity=0, time=64),
    Message('note_on', channel=9, note=42, velocity=0, time=0),
    Message('note_on', channel=9, note=42, velocity=127, time=0),
    Message('note_on', channel=9, note=42, velocity=0, time=64),
    Message('note_on', channel=9, note=42, velocity=127, time=0),
    Message('note_on', channel=9, note=42, velocity=0, time=64),
    Message('note_on', channel=9, note=42, velocity=127, time=0),
    Message('note_on', channel=9, note=37, velocity=127, time=0),
    Message('note_on', channel=9, note=42, velocity=0, time=64),
    Message('note_on', channel=9, note=37, velocity=0, time=0),
    Message('note_on', channel=9, note=42, velocity=127, time=0),
    Message('note_on', channel=9, note=42, velocity=0, time=64),
    Message('note_on', channel=9, note=35, velocity=127, time=0),
    Message('note_on', channel=9, note=42, velocity=127, time=0),
    Message('note_on', channel=9, note=35, velocity=0, time=64),
    Message('note_on', channel=9, note=42, velocity=0, time=0),
    Message('note_on', channel=9, note=35, velocity=127, time=0),
    Message('note_on', channel=9, note=42, velocity=127, time=0),
    Message('note_on', channel=9, note=35, velocity=0, time=64),
    Message('note_on', channel=9, note=42, velocity=0, time=0),
    Message('note_on', channel=9, note=42, velocity=127, time=0),
    Message('note_on', channel=9, note=42, velocity=0, time=64),
    Message('note_on', channel=9, note=42, velocity=127, time=0),
    Message('note_on', channel=9, note=42, velocity=0, time=64),
    Message('note_on', channel=9, note=42, velocity=127, time=0),
    Message('note_on', channel=9, note=37, velocity=127, time=0),
    Message('note_on', channel=9, note=42, velocity=0, time=64),
    Message('note_on', channel=9, note=37, velocity=0, time=0),
    Message('note_on', channel=9, note=42, velocity=127, time=0),
    Message('note_on', channel=9, note=42, velocity=0, time=64),
    Message('note_on', channel=9, note=35, velocity=127, time=0),
    Message('note_on', channel=9, note=42, velocity=127, time=0),
    Message('note_on', channel=9, note=35, velocity=0, time=64),
    Message('note_on', channel=9, note=42, velocity=0, time=0),
    Message('note_on', channel=9, note=35, velocity=127, time=0),
    Message('note_on', channel=9, note=42, velocity=127, time=0),
    Message('note_on', channel=9, note=35, velocity=0, time=64),
    Message('note_on', channel=9, note=42, velocity=0, time=0),
    Message('note_on', channel=9, note=42, velocity=127, time=0),
    Message('note_on', channel=9, note=42, velocity=0, time=64),
    Message('note_on', channel=9, note=35, velocity=127, time=0),
    Message('note_on', channel=9, note=42, velocity=127, time=0),
    Message('note_on', channel=9, note=35, velocity=0, time=64),
    Message('note_on', channel=9, note=42, velocity=0, time=0),
    Message('note_on', channel=9, note=42, velocity=127, time=0),
    Message('note_on', channel=9, note=37, velocity=127, time=0),
    Message('note_on', channel=9, note=42, velocity=0, time=64),
    Message('note_on', channel=9, note=37, velocity=0, time=0),
    Message('note_on', channel=9, note=35, velocity=127, time=0),
    Message('note_on', channel=9, note=42, velocity=127, time=0),
    Message('note_on', channel=9, note=35, velocity=0, time=64),
    Message('note_on', channel=9, note=42, velocity=0, time=0),
    Message('note_on', channel=9, note=35, velocity=127, time=0),
    Message('note_on', channel=9, note=46, velocity=127, time=0),
    Message('note_on', channel=9, note=35, velocity=0, time=64),
    Message('note_on', channel=9, note=46, velocity=0, time=0),
    Message('note_on', channel=9, note=35, velocity=127, time=0),
    Message('note_on', channel=9, note=42, velocity=127, time=0),
    Message('note_on', channel=9, note=35, velocity=0, time=64),
    Message('note_on', channel=9, note=42, velocity=0, time=0),
    Message('note_on', channel=9, note=42, velocity=127, time=0),
    Message('note_on', channel=9, note=42, velocity=0, time=64),
    Message('note_on', channel=9, note=42, velocity=127, time=0),
    Message('note_on', channel=9, note=42, velocity=0, time=64),
    Message('note_on', channel=9, note=42, velocity=127, time=0),
    Message('note_on', channel=9, note=37, velocity=127, time=0),
    Message('note_on', channel=9, note=42, velocity=0, time=64),
    Message('note_on', channel=9, note=37, velocity=0, time=0),
    Message('note_on', channel=9, note=42, velocity=127, time=0),
    Message('note_on', channel=9, note=42, velocity=0, time=64),
    Message('note_on', channel=9, note=35, velocity=127, time=0),
    Message('note_on', channel=9, note=42, velocity=127, time=0),
    Message('note_on', channel=9, note=35, velocity=0, time=64),
    Message('note_on', channel=9, note=42, velocity=0, time=0),
    Message('note_on', channel=9, note=35, velocity=127, time=0),
    Message('note_on', channel=9, note=42, velocity=127, time=0),
    Message('note_on', channel=9, note=35, velocity=0, time=64),
    Message('note_on', channel=9, note=42, velocity=0, time=0),
    Message('note_on', channel=9, note=42, velocity=127, time=0),
    Message('note_on', channel=9, note=42, velocity=0, time=64),
    Message('note_on', channel=9, note=42, velocity=127, time=0),
    Message('note_on', channel=9, note=42, velocity=0, time=64),
    Message('note_on', channel=9, note=42, velocity=127, time=0),
    Message('note_on', channel=9, note=37, velocity=127, time=0),
    Message('note_on', channel=9, note=42, velocity=0, time=64),
    Message('note_on', channel=9, note=37, velocity=0, time=0),
    Message('note_on', channel=9, note=42, velocity=127, time=0),
    Message('note_on', channel=9, note=42, velocity=0, time=64),
    Message('note_on', channel=9, note=35, velocity=127, time=0),
    Message('note_on', channel=9, note=42, velocity=127, time=0),
    Message('note_on', channel=9, note=35, velocity=0, time=64),
    Message('note_on', channel=9, note=42, velocity=0, time=0),
    Message('note_on', channel=9, note=35, velocity=127, time=0),
    Message('note_on', channel=9, note=42, velocity=127, time=0),
    Message('note_on', channel=9, note=35, velocity=0, time=64),
    Message('note_on', channel=9, note=42, velocity=0, time=0),
    Message('note_on', channel=9, note=42, velocity=127, time=0),
    Message('note_on', channel=9, note=42, velocity=0, time=64),
    Message('note_on', channel=9, note=42, velocity=127, time=0),
    Message('note_on', channel=9, note=42, velocity=0, time=64),
    Message('note_on', channel=9, note=42, velocity=127, time=0),
    Message('note_on', channel=9, note=37, velocity=127, time=0),
    Message('note_on', channel=9, note=42, velocity=0, time=64),
    Message('note_on', channel=9, note=37, velocity=0, time=0),
    Message('note_on', channel=9, note=42, velocity=127, time=0),
    Message('note_on', channel=9, note=42, velocity=0, time=64),
    Message('note_on', channel=9, note=35, velocity=127, time=0),
    Message('note_on', channel=9, note=42, velocity=127, time=0),
    Message('note_on', channel=9, note=35, velocity=0, time=64),
    Message('note_on', channel=9, note=42, velocity=0, time=0),
    Message('note_on', channel=9, note=35, velocity=127, time=0),
    Message('note_on', channel=9, note=42, velocity=127, time=0),
    Message('note_on', channel=9, note=35, velocity=0, time=64),
    Message('note_on', channel=9, note=42, velocity=0, time=0),
    Message('note_on', channel=9, note=42, velocity=127, time=0),
    Message('note_on', channel=9, note=42, velocity=0, time=64),
    Message('note_on', channel=9, note=35, velocity=127, time=0),
    Message('note_on', channel=9, note=42, velocity=127, time=0),
    Message('note_on', channel=9, note=35, velocity=0, time=64),
    Message('note_on', channel=9, note=42, velocity=0, time=0),
    Message('note_on', channel=9, note=42, velocity=127, time=0),
    Message('note_on', channel=9, note=37, velocity=127, time=0),
    Message('note_on', channel=9, note=42, velocity=0, time=64),
    Message('note_on', channel=9, note=37, velocity=0, time=0),
    Message('note_on', channel=9, note=35, velocity=127, time=0),
    Message('note_on', channel=9, note=42, velocity=127, time=0),
    Message('note_on', channel=9, note=48, velocity=127, time=0),
    Message('note_on', channel=9, note=35, velocity=0, time=64),
    Message('note_on', channel=9, note=42, velocity=0, time=0),
    Message('note_on', channel=9, note=48, velocity=0, time=0),
    Message('note_on', channel=9, note=35, velocity=127, time=0),
    Message('note_on', channel=9, note=42, velocity=127, time=0),
    Message('note_on', channel=9, note=45, velocity=127, time=0),
    Message('note_on', channel=9, note=35, velocity=0, time=64),
    Message('note_on', channel=9, note=42, velocity=0, time=0),
    Message('note_on', channel=9, note=45, velocity=0, time=0),
    Message('note_on', channel=9, note=35, velocity=127, time=0),
    Message('note_on', channel=9, note=42, velocity=127, time=0),
    Message('note_on', channel=9, note=35, velocity=0, time=64),
    Message('note_on', channel=9, note=42, velocity=0, time=0),
    Message('note_on', channel=9, note=42, velocity=127, time=0),
    Message('note_on', channel=9, note=42, velocity=0, time=64),
    Message('note_on', channel=9, note=42, velocity=127, time=0),
    Message('note_on', channel=9, note=42, velocity=0, time=64),
    Message('note_on', channel=9, note=42, velocity=127, time=0),
    Message('note_on', channel=9, note=37, velocity=127, time=0),
    Message('note_on', channel=9, note=42, velocity=0, time=64),
    Message('note_on', channel=9, note=37, velocity=0, time=0),
    Message('note_on', channel=9, note=42, velocity=127, time=0),
    Message('note_on', channel=9, note=42, velocity=0, time=64),
    Message('note_on', channel=9, note=35, velocity=127, time=0),
    Message('note_on', channel=9, note=42, velocity=127, time=0),
    Message('note_on', channel=9, note=35, velocity=0, time=64),
    Message('note_on', channel=9, note=42, velocity=0, time=0),
    Message('note_on', channel=9, note=35, velocity=127, time=0),
    Message('note_on', channel=9, note=42, velocity=127, time=0),
    Message('note_on', channel=9, note=35, velocity=0, time=64),
    Message('note_on', channel=9, note=42, velocity=0, time=0),
    Message('note_on', channel=9, note=42, velocity=127, time=0),
    Message('note_on', channel=9, note=42, velocity=0, time=64),
    Message('note_on', channel=9, note=42, velocity=127, time=0),
    Message('note_on', channel=9, note=42, velocity=0, time=64),
    Message('note_on', channel=9, note=42, velocity=127, time=0),
    Message('note_on', channel=9, note=37, velocity=127, time=0),
    Message('note_on', channel=9, note=42, velocity=0, time=64),
    Message('note_on', channel=9, note=37, velocity=0, time=0),
    Message('note_on', channel=9, note=42, velocity=127, time=0),
    Message('note_on', channel=9, note=42, velocity=0, time=64),
    Message('note_on', channel=9, note=35, velocity=127, time=0),
    Message('note_on', channel=9, note=42, velocity=127, time=0),
    Message('note_on', channel=9, note=35, velocity=0, time=64),
    Message('note_on', channel=9, note=42, velocity=0, time=0),
    Message('note_on', channel=9, note=35, velocity=127, time=0),
    Message('note_on', channel=9, note=42, velocity=127, time=0),
    Message('note_on', channel=9, note=35, velocity=0, time=64),
    Message('note_on', channel=9, note=42, velocity=0, time=0),
    Message('note_on', channel=9, note=42, velocity=127, time=0),
    Message('note_on', channel=9, note=42, velocity=0, time=64),
    Message('note_on', channel=9, note=42, velocity=127, time=0),
    Message('note_on', channel=9, note=42, velocity=0, time=64),
    Message('note_on', channel=9, note=42, velocity=127, time=0),
    Message('note_on', channel=9, note=37, velocity=127, time=0),
    Message('note_on', channel=9, note=42, velocity=0, time=64),
    Message('note_on', channel=9, note=37, velocity=0, time=0),
    Message('note_on', channel=9, note=42, velocity=127, time=0),
    Message('note_on', channel=9, note=42, velocity=0, time=64),
    Message('note_on', channel=9, note=35, velocity=127, time=0),
    Message('note_on', channel=9, note=42, velocity=127, time=0),
    Message('note_on', channel=9, note=35, velocity=0, time=64),
    Message('note_on', channel=9, note=42, velocity=0, time=0),
    Message('note_on', channel=9, note=35, velocity=127, time=0),
    Message('note_on', channel=9, note=42, velocity=127, time=0),
    Message('note_on', channel=9, note=35, velocity=0, time=64),
    Message('note_on', channel=9, note=42, velocity=0, time=0),
    Message('note_on', channel=9, note=42, velocity=127, time=0),
    Message('note_on', channel=9, note=42, velocity=0, time=64),
    Message('note_on', channel=9, note=35, velocity=127, time=0),
    Message('note_on', channel=9, note=42, velocity=127, time=0),
    Message('note_on', channel=9, note=35, velocity=0, time=64),
    Message('note_on', channel=9, note=42, velocity=0, time=0),
    Message('note_on', channel=9, note=42, velocity=127, time=0),
    Message('note_on', channel=9, note=37, velocity=127, time=0),
    Message('note_on', channel=9, note=42, velocity=0, time=64),
    Message('note_on', channel=9, note=37, velocity=0, time=0),
    Message('note_on', channel=9, note=35, velocity=127, time=0),
    Message('note_on', channel=9, note=42, velocity=127, time=0),
    Message('note_on', channel=9, note=35, velocity=0, time=64),
    Message('note_on', channel=9, note=42, velocity=0, time=0),
    Message('note_on', channel=9, note=35, velocity=127, time=0),
    Message('note_on', channel=9, note=42, velocity=127, time=0),
    Message('note_on', channel=9, note=35, velocity=0, time=64),
    Message('note_on', channel=9, note=42, velocity=0, time=0),
    Message('note_on', channel=9, note=35, velocity=127, time=0),
    Message('note_on', channel=9, note=42, velocity=127, time=0),
    Message('note_on', channel=9, note=35, velocity=0, time=64),
    Message('note_on', channel=9, note=42, velocity=0, time=0),
    Message('note_on', channel=9, note=42, velocity=127, time=0),
    Message('note_on', channel=9, note=42, velocity=0, time=64),
    Message('note_on', channel=9, note=42, velocity=127, time=0),
    Message('note_on', channel=9, note=42, velocity=0, time=64),
    Message('note_on', channel=9, note=42, velocity=127, time=0),
    Message('note_on', channel=9, note=37, velocity=127, time=0),
    Message('note_on', channel=9, note=42, velocity=0, time=64),
    Message('note_on', channel=9, note=37, velocity=0, time=0),
    Message('note_on', channel=9, note=42, velocity=127, time=0),
    Message('note_on', channel=9, note=42, velocity=0, time=64),
    Message('note_on', channel=9, note=35, velocity=127, time=0),
    Message('note_on', channel=9, note=42, velocity=127, time=0),
    Message('note_on', channel=9, note=35, velocity=0, time=64),
    Message('note_on', channel=9, note=42, velocity=0, time=0),
    Message('note_on', channel=9, note=35, velocity=127, time=0),
    Message('note_on', channel=9, note=42, velocity=127, time=0),
    Message('note_on', channel=9, note=35, velocity=0, time=64),
    Message('note_on', channel=9, note=42, velocity=0, time=0),
    Message('note_on', channel=9, note=42, velocity=127, time=0),
    Message('note_on', channel=9, note=42, velocity=0, time=64),
    Message('note_on', channel=9, note=42, velocity=127, time=0),
    Message('note_on', channel=9, note=42, velocity=0, time=64),
    Message('note_on', channel=9, note=42, velocity=127, time=0),
    Message('note_on', channel=9, note=37, velocity=127, time=0),
    Message('note_on', channel=9, note=42, velocity=0, time=64),
    Message('note_on', channel=9, note=37, velocity=0, time=0),
    Message('note_on', channel=9, note=42, velocity=127, time=0),
    Message('note_on', channel=9, note=42, velocity=0, time=64),
    Message('note_on', channel=9, note=35, velocity=127, time=0),
    Message('note_on', channel=9, note=42, velocity=127, time=0),
    Message('note_on', channel=9, note=35, velocity=0, time=64),
    Message('note_on', channel=9, note=42, velocity=0, time=0),
    Message('note_on', channel=9, note=35, velocity=127, time=0),
    Message('note_on', channel=9, note=42, velocity=127, time=0),
    Message('note_on', channel=9, note=35, velocity=0, time=64),
    Message('note_on', channel=9, note=42, velocity=0, time=0),
    Message('note_on', channel=9, note=42, velocity=127, time=0),
    Message('note_on', channel=9, note=42, velocity=0, time=64),
    Message('note_on', channel=9, note=42, velocity=127, time=0),
    Message('note_on', channel=9, note=42, velocity=0, time=64),
    Message('note_on', channel=9, note=42, velocity=127, time=0),
    Message('note_on', channel=9, note=37, velocity=127, time=0),
    Message('note_on', channel=9, note=42, velocity=0, time=64),
    Message('note_on', channel=9, note=37, velocity=0, time=0),
    Message('note_on', channel=9, note=42, velocity=127, time=0),
    Message('note_on', channel=9, note=42, velocity=0, time=64),
    Message('note_on', channel=9, note=35, velocity=127, time=0),
    Message('note_on', channel=9, note=42, velocity=127, time=0),
    Message('note_on', channel=9, note=35, velocity=0, time=64),
    Message('note_on', channel=9, note=42, velocity=0, time=0),
    Message('note_on', channel=9, note=35, velocity=127, time=0),
    Message('note_on', channel=9, note=42, velocity=127, time=0),
    Message('note_on', channel=9, note=35, velocity=0, time=64),
    Message('note_on', channel=9, note=42, velocity=0, time=0),
    Message('note_on', channel=9, note=42, velocity=127, time=0),
    Message('note_on', channel=9, note=42, velocity=0, time=64),
    Message('note_on', channel=9, note=35, velocity=127, time=0),
    Message('note_on', channel=9, note=42, velocity=127, time=0),
    Message('note_on', channel=9, note=35, velocity=0, time=64),
    Message('note_on', channel=9, note=42, velocity=0, time=0),
    Message('note_on', channel=9, note=42, velocity=127, time=0),
    Message('note_on', channel=9, note=37, velocity=127, time=0),
    Message('note_on', channel=9, note=42, velocity=0, time=64),
    Message('note_on', channel=9, note=37, velocity=0, time=0),
    Message('note_on', channel=9, note=35, velocity=127, time=0),
    Message('note_on', channel=9, note=42, velocity=127, time=0),
    Message('note_on', channel=9, note=48, velocity=127, time=0),
    Message('note_on', channel=9, note=35, velocity=0, time=64),
    Message('note_on', channel=9, note=42, velocity=0, time=0),
    Message('note_on', channel=9, note=48, velocity=0, time=0),
    Message('note_on', channel=9, note=35, velocity=127, time=0),
    Message('note_on', channel=9, note=46, velocity=127, time=0),
    Message('note_on', channel=9, note=45, velocity=127, time=0),
    Message('note_on', channel=9, note=35, velocity=0, time=64),
    Message('note_on', channel=9, note=46, velocity=0, time=0),
    Message('note_on', channel=9, note=45, velocity=0, time=0),
    Message('note_on', channel=9, note=35, velocity=127, time=0),
    Message('note_on', channel=9, note=42, velocity=127, time=0),
    Message('note_on', channel=9, note=35, velocity=0, time=64),
    Message('note_on', channel=9, note=42, velocity=0, time=0),
    Message('note_on', channel=9, note=42, velocity=127, time=0),
    Message('note_on', channel=9, note=42, velocity=0, time=64),
    Message('note_on', channel=9, note=42, velocity=127, time=0),
    Message('note_on', channel=9, note=42, velocity=0, time=64),
    Message('note_on', channel=9, note=42, velocity=127, time=0),
    Message('note_on', channel=9, note=37, velocity=127, time=0),
    Message('note_on', channel=9, note=42, velocity=0, time=64),
    Message('note_on', channel=9, note=37, velocity=0, time=0),
    Message('note_on', channel=9, note=42, velocity=127, time=0),
    Message('note_on', channel=9, note=42, velocity=0, time=64),
    Message('note_on', channel=9, note=35, velocity=127, time=0),
    Message('note_on', channel=9, note=42, velocity=127, time=0),
    Message('note_on', channel=9, note=35, velocity=0, time=64),
    Message('note_on', channel=9, note=42, velocity=0, time=0),
    Message('note_on', channel=9, note=35, velocity=127, time=0),
    Message('note_on', channel=9, note=42, velocity=127, time=0),
    Message('note_on', channel=9, note=35, velocity=0, time=64),
    Message('note_on', channel=9, note=42, velocity=0, time=0),
    Message('note_on', channel=9, note=42, velocity=127, time=0),
    Message('note_on', channel=9, note=42, velocity=0, time=64),
    Message('note_on', channel=9, note=42, velocity=127, time=0),
    Message('note_on', channel=9, note=42, velocity=0, time=64),
    Message('note_on', channel=9, note=42, velocity=127, time=0),
    Message('note_on', channel=9, note=37, velocity=127, time=0),
    Message('note_on', channel=9, note=42, velocity=0, time=64),
    Message('note_on', channel=9, note=37, velocity=0, time=0),
    Message('note_on', channel=9, note=42, velocity=127, time=0),
    Message('note_on', channel=9, note=42, velocity=0, time=64),
    Message('note_on', channel=9, note=35, velocity=127, time=0),
    Message('note_on', channel=9, note=42, velocity=127, time=0),
    Message('note_on', channel=9, note=35, velocity=0, time=64),
    Message('note_on', channel=9, note=42, velocity=0, time=0),
    Message('note_on', channel=9, note=35, velocity=127, time=0),
    Message('note_on', channel=9, note=42, velocity=127, time=0),
    Message('note_on', channel=9, note=35, velocity=0, time=64),
    Message('note_on', channel=9, note=42, velocity=0, time=0),
    Message('note_on', channel=9, note=42, velocity=127, time=0),
    Message('note_on', channel=9, note=42, velocity=0, time=64),
    Message('note_on', channel=9, note=42, velocity=127, time=0),
    Message('note_on', channel=9, note=42, velocity=0, time=64),
    Message('note_on', channel=9, note=42, velocity=127, time=0),
    Message('note_on', channel=9, note=37, velocity=127, time=0),
    Message('note_on', channel=9, note=42, velocity=0, time=64),
    Message('note_on', channel=9, note=37, velocity=0, time=0),
    Message('note_on', channel=9, note=42, velocity=127, time=0),
    Message('note_on', channel=9, note=42, velocity=0, time=64),
    Message('note_on', channel=9, note=35, velocity=127, time=0),
    Message('note_on', channel=9, note=42, velocity=127, time=0),
    Message('note_on', channel=9, note=35, velocity=0, time=64),
    Message('note_on', channel=9, note=42, velocity=0, time=0),
    Message('note_on', channel=9, note=35, velocity=127, time=0),
    Message('note_on', channel=9, note=42, velocity=127, time=0),
    Message('note_on', channel=9, note=35, velocity=0, time=64),
    Message('note_on', channel=9, note=42, velocity=0, time=0),
    Message('note_on', channel=9, note=42, velocity=127, time=0),
    Message('note_on', channel=9, note=42, velocity=0, time=64),
    Message('note_on', channel=9, note=35, velocity=127, time=0),
    Message('note_on', channel=9, note=42, velocity=127, time=0),
    Message('note_on', channel=9, note=35, velocity=0, time=64),
    Message('note_on', channel=9, note=42, velocity=0, time=0),
    Message('note_on', channel=9, note=42, velocity=127, time=0),
    Message('note_on', channel=9, note=37, velocity=127, time=0),
    Message('note_on', channel=9, note=42, velocity=0, time=64),
    Message('note_on', channel=9, note=37, velocity=0, time=0),
    Message('note_on', channel=9, note=35, velocity=127, time=0),
    Message('note_on', channel=9, note=42, velocity=127, time=0),
    Message('note_on', channel=9, note=35, velocity=0, time=64),
    Message('note_on', channel=9, note=42, velocity=0, time=0),
    Message('note_on', channel=9, note=35, velocity=127, time=0),
    Message('note_on', channel=9, note=42, velocity=127, time=0),
    Message('note_on', channel=9, note=35, velocity=0, time=64),
    Message('note_on', channel=9, note=42, velocity=0, time=0),
    Message('note_on', channel=9, note=35, velocity=127, time=0),
    Message('note_on', channel=9, note=42, velocity=127, time=0),
    Message('note_on', channel=9, note=35, velocity=0, time=64),
    Message('note_on', channel=9, note=42, velocity=0, time=0),
    Message('note_on', channel=9, note=42, velocity=127, time=0),
    Message('note_on', channel=9, note=42, velocity=0, time=64),
    Message('note_on', channel=9, note=42, velocity=127, time=0),
    Message('note_on', channel=9, note=42, velocity=0, time=64),
    Message('note_on', channel=9, note=42, velocity=127, time=0),
    Message('note_on', channel=9, note=37, velocity=127, time=0),
    Message('note_on', channel=9, note=42, velocity=0, time=64),
    Message('note_on', channel=9, note=37, velocity=0, time=0),
    Message('note_on', channel=9, note=42, velocity=127, time=0),
    Message('note_on', channel=9, note=42, velocity=0, time=64),
    Message('note_on', channel=9, note=35, velocity=127, time=0),
    Message('note_on', channel=9, note=42, velocity=127, time=0),
    Message('note_on', channel=9, note=35, velocity=0, time=64),
    Message('note_on', channel=9, note=42, velocity=0, time=0),
    Message('note_on', channel=9, note=35, velocity=127, time=0),
    Message('note_on', channel=9, note=42, velocity=127, time=0),
    Message('note_on', channel=9, note=35, velocity=0, time=64),
    Message('note_on', channel=9, note=42, velocity=0, time=0),
    Message('note_on', channel=9, note=42, velocity=127, time=0),
    Message('note_on', channel=9, note=42, velocity=0, time=64),
    Message('note_on', channel=9, note=42, velocity=127, time=0),
    Message('note_on', channel=9, note=42, velocity=0, time=64),
    Message('note_on', channel=9, note=42, velocity=127, time=0),
    Message('note_on', channel=9, note=37, velocity=127, time=0),
    Message('note_on', channel=9, note=42, velocity=0, time=64),
    Message('note_on', channel=9, note=37, velocity=0, time=0),
    Message('note_on', channel=9, note=42, velocity=127, time=0),
    Message('note_on', channel=9, note=42, velocity=0, time=64),
    Message('note_on', channel=9, note=35, velocity=127, time=0),
    Message('note_on', channel=9, note=42, velocity=127, time=0),
    Message('note_on', channel=9, note=35, velocity=0, time=64),
    Message('note_on', channel=9, note=42, velocity=0, time=0),
    Message('note_on', channel=9, note=35, velocity=127, time=0),
    Message('note_on', channel=9, note=42, velocity=127, time=0),
    Message('note_on', channel=9, note=35, velocity=0, time=64),
    Message('note_on', channel=9, note=42, velocity=0, time=0),
    Message('note_on', channel=9, note=42, velocity=127, time=0),
    Message('note_on', channel=9, note=42, velocity=0, time=64),
    Message('note_on', channel=9, note=42, velocity=127, time=0),
    Message('note_on', channel=9, note=42, velocity=0, time=64),
    Message('note_on', channel=9, note=42, velocity=127, time=0),
    Message('note_on', channel=9, note=37, velocity=127, time=0),
    Message('note_on', channel=9, note=42, velocity=0, time=64),
    Message('note_on', channel=9, note=37, velocity=0, time=0),
    Message('note_on', channel=9, note=42, velocity=127, time=0),
    Message('note_on', channel=9, note=42, velocity=0, time=64),
    Message('note_on', channel=9, note=35, velocity=127, time=0),
    Message('note_on', channel=9, note=42, velocity=127, time=0),
    Message('note_on', channel=9, note=35, velocity=0, time=64),
    Message('note_on', channel=9, note=42, velocity=0, time=0),
    Message('note_on', channel=9, note=35, velocity=127, time=0),
    Message('note_on', channel=9, note=42, velocity=127, time=0),
    Message('note_on', channel=9, note=35, velocity=0, time=64),
    Message('note_on', channel=9, note=42, velocity=0, time=0),
    Message('note_on', channel=9, note=42, velocity=127, time=0),
    Message('note_on', channel=9, note=42, velocity=0, time=64),
    Message('note_on', channel=9, note=35, velocity=127, time=0),
    Message('note_on', channel=9, note=42, velocity=127, time=0),
    Message('note_on', channel=9, note=35, velocity=0, time=64),
    Message('note_on', channel=9, note=42, velocity=0, time=0),
    Message('note_on', channel=9, note=42, velocity=127, time=0),
    Message('note_on', channel=9, note=37, velocity=127, time=0),
    Message('note_on', channel=9, note=42, velocity=0, time=64),
    Message('note_on', channel=9, note=37, velocity=0, time=0),
    Message('note_on', channel=9, note=35, velocity=127, time=0),
    Message('note_on', channel=9, note=42, velocity=127, time=0),
    Message('note_on', channel=9, note=35, velocity=0, time=64),
    Message('note_on', channel=9, note=42, velocity=0, time=0),
    Message('note_on', channel=9, note=35, velocity=127, time=0),
    Message('note_on', channel=9, note=42, velocity=127, time=0),
    Message('note_on', channel=9, note=35, velocity=0, time=64),
    Message('note_on', channel=9, note=42, velocity=0, time=0),
    Message('note_on', channel=9, note=35, velocity=127, time=0),
    Message('note_on', channel=9, note=42, velocity=127, time=0),
    Message('note_on', channel=9, note=35, velocity=0, time=64),
    Message('note_on', channel=9, note=42, velocity=0, time=0),
    Message('note_on', channel=9, note=42, velocity=127, time=0),
    Message('note_on', channel=9, note=42, velocity=0, time=64),
    Message('note_on', channel=9, note=42, velocity=127, time=0),
    Message('note_on', channel=9, note=42, velocity=0, time=64),
    Message('note_on', channel=9, note=42, velocity=127, time=0),
    Message('note_on', channel=9, note=37, velocity=127, time=0),
    Message('note_on', channel=9, note=42, velocity=0, time=64),
    Message('note_on', channel=9, note=37, velocity=0, time=0),
    Message('note_on', channel=9, note=42, velocity=127, time=0),
    Message('note_on', channel=9, note=42, velocity=0, time=64),
    Message('note_on', channel=9, note=35, velocity=127, time=0),
    Message('note_on', channel=9, note=42, velocity=127, time=0),
    Message('note_on', channel=9, note=35, velocity=0, time=64),
    Message('note_on', channel=9, note=42, velocity=0, time=0),
    Message('note_on', channel=9, note=35, velocity=127, time=0),
    Message('note_on', channel=9, note=42, velocity=127, time=0),
    Message('note_on', channel=9, note=35, velocity=0, time=64),
    Message('note_on', channel=9, note=42, velocity=0, time=0),
    Message('note_on', channel=9, note=42, velocity=127, time=0),
    Message('note_on', channel=9, note=42, velocity=0, time=64),
    Message('note_on', channel=9, note=42, velocity=127, time=0),
    Message('note_on', channel=9, note=42, velocity=0, time=64),
    Message('note_on', channel=9, note=42, velocity=127, time=0),
    Message('note_on', channel=9, note=37, velocity=127, time=0),
    Message('note_on', channel=9, note=42, velocity=0, time=64),
    Message('note_on', channel=9, note=37, velocity=0, time=0),
    Message('note_on', channel=9, note=42, velocity=127, time=0),
    Message('note_on', channel=9, note=42, velocity=0, time=64),
    Message('note_on', channel=9, note=35, velocity=127, time=0),
    Message('note_on', channel=9, note=42, velocity=127, time=0),
    Message('note_on', channel=9, note=35, velocity=0, time=64),
    Message('note_on', channel=9, note=42, velocity=0, time=0),
    Message('note_on', channel=9, note=35, velocity=127, time=0),
    Message('note_on', channel=9, note=42, velocity=127, time=0),
    Message('note_on', channel=9, note=35, velocity=0, time=64),
    Message('note_on', channel=9, note=42, velocity=0, time=0),
    Message('note_on', channel=9, note=42, velocity=127, time=0),
    Message('note_on', channel=9, note=42, velocity=0, time=64),
    Message('note_on', channel=9, note=42, velocity=127, time=0),
    Message('note_on', channel=9, note=42, velocity=0, time=64),
    Message('note_on', channel=9, note=42, velocity=127, time=0),
    Message('note_on', channel=9, note=37, velocity=127, time=0),
    Message('note_on', channel=9, note=42, velocity=0, time=64),
    Message('note_on', channel=9, note=37, velocity=0, time=0),
    Message('note_on', channel=9, note=42, velocity=127, time=0),
    Message('note_on', channel=9, note=42, velocity=0, time=64),
    Message('note_on', channel=9, note=35, velocity=127, time=0),
    Message('note_on', channel=9, note=42, velocity=127, time=0),
    Message('note_on', channel=9, note=35, velocity=0, time=64),
    Message('note_on', channel=9, note=42, velocity=0, time=0),
    Message('note_on', channel=9, note=35, velocity=127, time=0),
    Message('note_on', channel=9, note=42, velocity=127, time=0),
    Message('note_on', channel=9, note=35, velocity=0, time=64),
    Message('note_on', channel=9, note=42, velocity=0, time=0),
    Message('note_on', channel=9, note=42, velocity=127, time=0),
    Message('note_on', channel=9, note=42, velocity=0, time=64),
    Message('note_on', channel=9, note=35, velocity=127, time=0),
    Message('note_on', channel=9, note=42, velocity=127, time=0),
    Message('note_on', channel=9, note=35, velocity=0, time=64),
    Message('note_on', channel=9, note=42, velocity=0, time=0),
    Message('note_on', channel=9, note=42, velocity=127, time=0),
    Message('note_on', channel=9, note=37, velocity=127, time=0),
    Message('note_on', channel=9, note=42, velocity=0, time=64),
    Message('note_on', channel=9, note=37, velocity=0, time=0),
    Message('note_on', channel=9, note=35, velocity=127, time=0),
    Message('note_on', channel=9, note=42, velocity=127, time=0),
    Message('note_on', channel=9, note=35, velocity=0, time=64),
    Message('note_on', channel=9, note=42, velocity=0, time=0),
    Message('note_on', channel=9, note=35, velocity=127, time=0),
    Message('note_on', channel=9, note=42, velocity=127, time=0),
    Message('note_on', channel=9, note=35, velocity=0, time=64),
    Message('note_on', channel=9, note=42, velocity=0, time=0),
    Message('note_on', channel=9, note=35, velocity=127, time=0),
    Message('note_on', channel=9, note=38, velocity=127, time=0),
    Message('note_on', channel=9, note=42, velocity=127, time=0),
    Message('note_on', channel=9, note=51, velocity=127, time=0),
    Message('note_on', channel=9, note=35, velocity=0, time=64),
    Message('note_on', channel=9, note=38, velocity=0, time=0),
    Message('note_on', channel=9, note=42, velocity=0, time=0),
    Message('note_on', channel=9, note=51, velocity=0, time=0),
    Message('note_on', channel=9, note=38, velocity=127, time=0),
    Message('note_on', channel=9, note=42, velocity=127, time=0),
    Message('note_on', channel=9, note=38, velocity=0, time=64),
    Message('note_on', channel=9, note=42, velocity=0, time=0),
    Message('note_on', channel=9, note=38, velocity=127, time=0),
    Message('note_on', channel=9, note=42, velocity=127, time=0),
    Message('note_on', channel=9, note=38, velocity=0, time=64),
    Message('note_on', channel=9, note=42, velocity=0, time=0),
    Message('note_on', channel=9, note=38, velocity=127, time=0),
    Message('note_on', channel=9, note=42, velocity=127, time=0),
    Message('note_on', channel=9, note=37, velocity=127, time=0),
    Message('note_on', channel=9, note=38, velocity=0, time=64),
    Message('note_on', channel=9, note=42, velocity=0, time=0),
    Message('note_on', channel=9, note=37, velocity=0, time=0),
    Message('note_on', channel=9, note=38, velocity=127, time=0),
    Message('note_on', channel=9, note=42, velocity=127, time=0),
    Message('note_on', channel=9, note=38, velocity=0, time=64),
    Message('note_on', channel=9, note=42, velocity=0, time=0),
    Message('note_on', channel=9, note=35, velocity=127, time=0),
    Message('note_on', channel=9, note=38, velocity=127, time=0),
    Message('note_on', channel=9, note=42, velocity=127, time=0),
    Message('note_on', channel=9, note=35, velocity=0, time=64),
    Message('note_on', channel=9, note=38, velocity=0, time=0),
    Message('note_on', channel=9, note=42, velocity=0, time=0),
    Message('note_on', channel=9, note=35, velocity=127, time=0),
    Message('note_on', channel=9, note=38, velocity=127, time=0),
    Message('note_on', channel=9, note=42, velocity=127, time=0),
    Message('note_on', channel=9, note=35, velocity=0, time=64),
    Message('note_on', channel=9, note=38, velocity=0, time=0),
    Message('note_on', channel=9, note=42, velocity=0, time=0),
    Message('note_on', channel=9, note=38, velocity=127, time=0),
    Message('note_on', channel=9, note=42, velocity=127, time=0),
    Message('note_on', channel=9, note=38, velocity=0, time=64),
    Message('note_on', channel=9, note=42, velocity=0, time=0),
    Message('note_on', channel=9, note=38, velocity=127, time=0),
    Message('note_on', channel=9, note=42, velocity=127, time=0),
    Message('note_on', channel=9, note=38, velocity=0, time=64),
    Message('note_on', channel=9, note=42, velocity=0, time=0),
    Message('note_on', channel=9, note=38, velocity=127, time=0),
    Message('note_on', channel=9, note=42, velocity=127, time=0),
    Message('note_on', channel=9, note=37, velocity=127, time=0),
    Message('note_on', channel=9, note=38, velocity=0, time=64),
    Message('note_on', channel=9, note=42, velocity=0, time=0),
    Message('note_on', channel=9, note=37, velocity=0, time=0),
    Message('note_on', channel=9, note=38, velocity=127, time=0),
    Message('note_on', channel=9, note=42, velocity=127, time=0),
    Message('note_on', channel=9, note=38, velocity=0, time=64),
    Message('note_on', channel=9, note=42, velocity=0, time=0),
    Message('note_on', channel=9, note=35, velocity=127, time=0),
    Message('note_on', channel=9, note=38, velocity=127, time=0),
    Message('note_on', channel=9, note=42, velocity=127, time=0),
    Message('note_on', channel=9, note=35, velocity=0, time=64),
    Message('note_on', channel=9, note=38, velocity=0, time=0),
    Message('note_on', channel=9, note=42, velocity=0, time=0),
    Message('note_on', channel=9, note=35, velocity=127, time=0),
    Message('note_on', channel=9, note=38, velocity=127, time=0),
    Message('note_on', channel=9, note=42, velocity=127, time=0),
    Message('note_on', channel=9, note=49, velocity=127, time=0),
    Message('note_on', channel=9, note=35, velocity=0, time=64),
    Message('note_on', channel=9, note=38, velocity=0, time=0),
    Message('note_on', channel=9, note=42, velocity=0, time=0),
    Message('note_on', channel=9, note=49, velocity=0, time=0),
    Message('note_on', channel=9, note=38, velocity=127, time=0),
    Message('note_on', channel=9, note=42, velocity=127, time=0),
    Message('note_on', channel=9, note=51, velocity=127, time=0),
    Message('note_on', channel=9, note=38, velocity=0, time=64),
    Message('note_on', channel=9, note=42, velocity=0, time=0),
    Message('note_on', channel=9, note=51, velocity=0, time=0),
    Message('note_on', channel=9, note=38, velocity=127, time=0),
    Message('note_on', channel=9, note=42, velocity=127, time=0),
    Message('note_on', channel=9, note=51, velocity=127, time=0),
    Message('note_on', channel=9, note=38, velocity=0, time=64),
    Message('note_on', channel=9, note=42, velocity=0, time=0),
    Message('note_on', channel=9, note=51, velocity=0, time=0),
    Message('note_on', channel=9, note=42, velocity=127, time=0),
    Message('note_on', channel=9, note=49, velocity=127, time=0),
    Message('note_on', channel=9, note=48, velocity=127, time=0),
    Message('note_on', channel=9, note=42, velocity=0, time=64),
    Message('note_on', channel=9, note=49, velocity=0, time=0),
    Message('note_on', channel=9, note=48, velocity=0, time=0),
    Message('note_on', channel=9, note=42, velocity=127, time=0),
    Message('note_on', channel=9, note=51, velocity=127, time=0),
    Message('note_on', channel=9, note=48, velocity=127, time=0),
    Message('note_on', channel=9, note=42, velocity=0, time=64),
    Message('note_on', channel=9, note=51, velocity=0, time=0),
    Message('note_on', channel=9, note=48, velocity=0, time=0),
    Message('note_on', channel=9, note=35, velocity=127, time=0),
    Message('note_on', channel=9, note=42, velocity=127, time=0),
    Message('note_on', channel=9, note=51, velocity=127, time=0),
    Message('note_on', channel=9, note=48, velocity=127, time=0),
    Message('note_on', channel=9, note=35, velocity=0, time=64),
    Message('note_on', channel=9, note=42, velocity=0, time=0),
    Message('note_on', channel=9, note=51, velocity=0, time=0),
    Message('note_on', channel=9, note=48, velocity=0, time=0),
    Message('note_on', channel=9, note=35, velocity=127, time=0),
    Message('note_on', channel=9, note=38, velocity=127, time=0),
    Message('note_on', channel=9, note=42, velocity=127, time=0),
    Message('note_on', channel=9, note=49, velocity=127, time=0),
    Message('note_on', channel=9, note=45, velocity=127, time=0),
    Message('note_on', channel=9, note=35, velocity=0, time=64),
    Message('note_on', channel=9, note=38, velocity=0, time=0),
    Message('note_on', channel=9, note=42, velocity=0, time=0),
    Message('note_on', channel=9, note=49, velocity=0, time=0),
    Message('note_on', channel=9, note=45, velocity=0, time=0),
    Message('note_on', channel=9, note=42, velocity=127, time=0),
    Message('note_on', channel=9, note=51, velocity=127, time=0),
    Message('note_on', channel=9, note=45, velocity=127, time=0),
    Message('note_on', channel=9, note=42, velocity=0, time=64),
    Message('note_on', channel=9, note=51, velocity=0, time=0),
    Message('note_on', channel=9, note=45, velocity=0, time=0),
    Message('note_on', channel=9, note=35, velocity=127, time=0),
    Message('note_on', channel=9, note=42, velocity=127, time=0),
    Message('note_on', channel=9, note=51, velocity=127, time=0),
    Message('note_on', channel=9, note=45, velocity=127, time=0),
    Message('note_on', channel=9, note=35, velocity=0, time=64),
    Message('note_on', channel=9, note=42, velocity=0, time=0),
    Message('note_on', channel=9, note=51, velocity=0, time=0),
    Message('note_on', channel=9, note=45, velocity=0, time=0),
    Message('note_on', channel=9, note=42, velocity=127, time=0),
    Message('note_on', channel=9, note=49, velocity=127, time=0),
    Message('note_on', channel=9, note=41, velocity=127, time=0),
    Message('note_on', channel=9, note=42, velocity=0, time=64),
    Message('note_on', channel=9, note=49, velocity=0, time=0),
    Message('note_on', channel=9, note=41, velocity=0, time=0),
    Message('note_on', channel=9, note=35, velocity=127, time=0),
    Message('note_on', channel=9, note=42, velocity=127, time=0),
    Message('note_on', channel=9, note=51, velocity=127, time=0),
    Message('note_on', channel=9, note=41, velocity=127, time=0),
    Message('note_on', channel=9, note=35, velocity=0, time=64),
    Message('note_on', channel=9, note=42, velocity=0, time=0),
    Message('note_on', channel=9, note=51, velocity=0, time=0),
    Message('note_on', channel=9, note=41, velocity=0, time=0),
    Message('note_on', channel=9, note=35, velocity=127, time=0),
    Message('note_on', channel=9, note=46, velocity=127, time=0),
    Message('note_on', channel=9, note=51, velocity=127, time=0),
    Message('note_on', channel=9, note=41, velocity=127, time=0),
    Message('note_on', channel=9, note=35, velocity=0, time=64),
    Message('note_on', channel=9, note=46, velocity=0, time=0),
    Message('note_on', channel=9, note=51, velocity=0, time=0),
    Message('note_on', channel=9, note=41, velocity=0, time=0),
    Message('note_on', channel=9, note=35, velocity=127, time=0),
    Message('note_on', channel=9, note=38, velocity=127, time=0),
    Message('note_on', channel=9, note=42, velocity=127, time=0),
    Message('note_on', channel=9, note=49, velocity=127, time=0),
    Message('note_on', channel=9, note=41, velocity=127, time=0),
    Message('note_on', channel=9, note=35, velocity=0, time=64),
    Message('note_on', channel=9, note=38, velocity=0, time=0),
    Message('note_on', channel=9, note=42, velocity=0, time=0),
    Message('note_on', channel=9, note=49, velocity=0, time=0),
    Message('note_on', channel=9, note=41, velocity=0, time=0),
    Message('note_on', channel=9, note=38, velocity=127, time=0),
    Message('note_on', channel=9, note=42, velocity=127, time=0),
    Message('note_on', channel=9, note=51, velocity=127, time=0),
    Message('note_on', channel=9, note=38, velocity=0, time=64),
    Message('note_on', channel=9, note=42, velocity=0, time=0),
    Message('note_on', channel=9, note=51, velocity=0, time=0),
    Message('note_on', channel=9, note=38, velocity=127, time=0),
    Message('note_on', channel=9, note=42, velocity=127, time=0),
    Message('note_on', channel=9, note=51, velocity=127, time=0),
    Message('note_on', channel=9, note=38, velocity=0, time=64),
    Message('note_on', channel=9, note=42, velocity=0, time=0),
    Message('note_on', channel=9, note=51, velocity=0, time=0),
    Message('note_on', channel=9, note=38, velocity=127, time=0),
    Message('note_on', channel=9, note=42, velocity=127, time=0),
    Message('note_on', channel=9, note=51, velocity=127, time=0),
    Message('note_on', channel=9, note=38, velocity=0, time=64),
    Message('note_on', channel=9, note=42, velocity=0, time=0),
    Message('note_on', channel=9, note=51, velocity=0, time=0),
    Message('note_on', channel=9, note=42, velocity=127, time=0),
    Message('note_on', channel=9, note=42, velocity=0, time=64),
    Message('note_on', channel=9, note=35, velocity=127, time=0),
    Message('note_on', channel=9, note=42, velocity=127, time=0),
    Message('note_on', channel=9, note=35, velocity=0, time=64),
    Message('note_on', channel=9, note=42, velocity=0, time=0),
    Message('note_on', channel=9, note=35, velocity=127, time=0),
    Message('note_on', channel=9, note=38, velocity=127, time=0),
    Message('note_on', channel=9, note=42, velocity=127, time=0),
    Message('note_on', channel=9, note=51, velocity=127, time=0),
    Message('note_on', channel=9, note=35, velocity=0, time=64),
    Message('note_on', channel=9, note=38, velocity=0, time=0),
    Message('note_on', channel=9, note=42, velocity=0, time=0),
    Message('note_on', channel=9, note=51, velocity=0, time=0),
    Message('note_on', channel=9, note=38, velocity=127, time=0),
    Message('note_on', channel=9, note=42, velocity=127, time=0),
    Message('note_on', channel=9, note=51, velocity=127, time=0),
    Message('note_on', channel=9, note=38, velocity=0, time=64),
    Message('note_on', channel=9, note=42, velocity=0, time=0),
    Message('note_on', channel=9, note=51, velocity=0, time=0),
    Message('note_on', channel=9, note=38, velocity=127, time=0),
    Message('note_on', channel=9, note=42, velocity=127, time=0),
    Message('note_on', channel=9, note=51, velocity=127, time=0),
    Message('note_on', channel=9, note=38, velocity=0, time=64),
    Message('note_on', channel=9, note=42, velocity=0, time=0),
    Message('note_on', channel=9, note=51, velocity=0, time=0),
    Message('note_on', channel=9, note=38, velocity=127, time=0),
    Message('note_on', channel=9, note=42, velocity=127, time=0),
    Message('note_on', channel=9, note=51, velocity=127, time=0),
    Message('note_on', channel=9, note=38, velocity=0, time=64),
    Message('note_on', channel=9, note=42, velocity=0, time=0),
    Message('note_on', channel=9, note=51, velocity=0, time=0),
    Message('note_on', channel=9, note=42, velocity=127, time=0),
    Message('note_on', channel=9, note=42, velocity=0, time=64),
    Message('note_on', channel=9, note=35, velocity=127, time=0),
    Message('note_on', channel=9, note=42, velocity=127, time=0),
    Message('note_on', channel=9, note=35, velocity=0, time=64),
    Message('note_on', channel=9, note=42, velocity=0, time=0),
    Message('note_on', channel=9, note=35, velocity=127, time=0),
    Message('note_on', channel=9, note=38, velocity=127, time=0),
    Message('note_on', channel=9, note=42, velocity=127, time=0),
    Message('note_on', channel=9, note=51, velocity=127, time=0),
    Message('note_on', channel=9, note=35, velocity=0, time=64),
    Message('note_on', channel=9, note=38, velocity=0, time=0),
    Message('note_on', channel=9, note=42, velocity=0, time=0),
    Message('note_on', channel=9, note=51, velocity=0, time=0),
    Message('note_on', channel=9, note=38, velocity=127, time=0),
    Message('note_on', channel=9, note=42, velocity=127, time=0),
    Message('note_on', channel=9, note=51, velocity=127, time=0),
    Message('note_on', channel=9, note=38, velocity=0, time=64),
    Message('note_on', channel=9, note=42, velocity=0, time=0),
    Message('note_on', channel=9, note=51, velocity=0, time=0),
    Message('note_on', channel=9, note=38, velocity=127, time=0),
    Message('note_on', channel=9, note=42, velocity=127, time=0),
    Message('note_on', channel=9, note=51, velocity=127, time=0),
    Message('note_on', channel=9, note=38, velocity=0, time=64),
    Message('note_on', channel=9, note=42, velocity=0, time=0),
    Message('note_on', channel=9, note=51, velocity=0, time=0),
    Message('note_on', channel=9, note=38, velocity=127, time=0),
    Message('note_on', channel=9, note=42, velocity=127, time=0),
    Message('note_on', channel=9, note=51, velocity=127, time=0),
    Message('note_on', channel=9, note=38, velocity=0, time=64),
    Message('note_on', channel=9, note=42, velocity=0, time=0),
    Message('note_on', channel=9, note=51, velocity=0, time=0),
    Message('note_on', channel=9, note=42, velocity=127, time=0),
    Message('note_on', channel=9, note=42, velocity=0, time=64),
    Message('note_on', channel=9, note=35, velocity=127, time=0),
    Message('note_on', channel=9, note=42, velocity=127, time=0),
    Message('note_on', channel=9, note=35, velocity=0, time=64),
    Message('note_on', channel=9, note=42, velocity=0, time=0),
    Message('note_on', channel=9, note=35, velocity=127, time=0),
    Message('note_on', channel=9, note=38, velocity=127, time=0),
    Message('note_on', channel=9, note=42, velocity=127, time=0),
    Message('note_on', channel=9, note=51, velocity=127, time=0),
    Message('note_on', channel=9, note=35, velocity=0, time=64),
    Message('note_on', channel=9, note=38, velocity=0, time=0),
    Message('note_on', channel=9, note=42, velocity=0, time=0),
    Message('note_on', channel=9, note=51, velocity=0, time=0),
    Message('note_on', channel=9, note=38, velocity=127, time=0),
    Message('note_on', channel=9, note=42, velocity=127, time=0),
    Message('note_on', channel=9, note=51, velocity=127, time=0),
    Message('note_on', channel=9, note=38, velocity=0, time=64),
    Message('note_on', channel=9, note=42, velocity=0, time=0),
    Message('note_on', channel=9, note=51, velocity=0, time=0),
    Message('note_on', channel=9, note=35, velocity=127, time=0),
    Message('note_on', channel=9, note=38, velocity=127, time=0),
    Message('note_on', channel=9, note=42, velocity=127, time=0),
    Message('note_on', channel=9, note=51, velocity=127, time=0),
    Message('note_on', channel=9, note=35, velocity=0, time=64),
    Message('note_on', channel=9, note=38, velocity=0, time=0),
    Message('note_on', channel=9, note=42, velocity=0, time=0),
    Message('note_on', channel=9, note=51, velocity=0, time=0),
    Message('note_on', channel=9, note=38, velocity=127, time=0),
    Message('note_on', channel=9, note=42, velocity=127, time=0),
    Message('note_on', channel=9, note=51, velocity=127, time=0),
    Message('note_on', channel=9, note=38, velocity=0, time=64),
    Message('note_on', channel=9, note=42, velocity=0, time=0),
    Message('note_on', channel=9, note=51, velocity=0, time=0),
    Message('note_on', channel=9, note=35, velocity=127, time=0),
    Message('note_on', channel=9, note=42, velocity=127, time=0),
    Message('note_on', channel=9, note=35, velocity=0, time=64),
    Message('note_on', channel=9, note=42, velocity=0, time=0),
    Message('note_on', channel=9, note=35, velocity=127, time=0),
    Message('note_on', channel=9, note=42, velocity=127, time=0),
    Message('note_on', channel=9, note=35, velocity=0, time=64),
    Message('note_on', channel=9, note=42, velocity=0, time=0),
    Message('note_on', channel=9, note=35, velocity=127, time=0),
    Message('note_on', channel=9, note=38, velocity=127, time=0),
    Message('note_on', channel=9, note=42, velocity=127, time=0),
    Message('note_on', channel=9, note=51, velocity=127, time=0),
    Message('note_on', channel=9, note=35, velocity=0, time=64),
    Message('note_on', channel=9, note=38, velocity=0, time=0),
    Message('note_on', channel=9, note=42, velocity=0, time=0),
    Message('note_on', channel=9, note=51, velocity=0, time=0),
    Message('note_on', channel=9, note=38, velocity=127, time=0),
    Message('note_on', channel=9, note=42, velocity=127, time=0),
    Message('note_on', channel=9, note=51, velocity=127, time=0),
    Message('note_on', channel=9, note=38, velocity=0, time=64),
    Message('note_on', channel=9, note=42, velocity=0, time=0),
    Message('note_on', channel=9, note=51, velocity=0, time=0),
    Message('note_on', channel=9, note=38, velocity=127, time=0),
    Message('note_on', channel=9, note=42, velocity=127, time=0),
    Message('note_on', channel=9, note=51, velocity=127, time=0),
    Message('note_on', channel=9, note=38, velocity=0, time=64),
    Message('note_on', channel=9, note=42, velocity=0, time=0),
    Message('note_on', channel=9, note=51, velocity=0, time=0),
    Message('note_on', channel=9, note=38, velocity=127, time=0),
    Message('note_on', channel=9, note=42, velocity=127, time=0),
    Message('note_on', channel=9, note=51, velocity=127, time=0),
    Message('note_on', channel=9, note=38, velocity=0, time=64),
    Message('note_on', channel=9, note=42, velocity=0, time=0),
    Message('note_on', channel=9, note=51, velocity=0, time=0),
    Message('note_on', channel=9, note=42, velocity=127, time=0),
    Message('note_on', channel=9, note=42, velocity=0, time=64),
    Message('note_on', channel=9, note=35, velocity=127, time=0),
    Message('note_on', channel=9, note=42, velocity=127, time=0),
    Message('note_on', channel=9, note=35, velocity=0, time=64),
    Message('note_on', channel=9, note=42, velocity=0, time=0),
    Message('note_on', channel=9, note=35, velocity=127, time=0),
    Message('note_on', channel=9, note=38, velocity=127, time=0),
    Message('note_on', channel=9, note=42, velocity=127, time=0),
    Message('note_on', channel=9, note=51, velocity=127, time=0),
    Message('note_on', channel=9, note=35, velocity=0, time=64),
    Message('note_on', channel=9, note=38, velocity=0, time=0),
    Message('note_on', channel=9, note=42, velocity=0, time=0),
    Message('note_on', channel=9, note=51, velocity=0, time=0),
    Message('note_on', channel=9, note=38, velocity=127, time=0),
    Message('note_on', channel=9, note=42, velocity=127, time=0),
    Message('note_on', channel=9, note=51, velocity=127, time=0),
    Message('note_on', channel=9, note=38, velocity=0, time=64),
    Message('note_on', channel=9, note=42, velocity=0, time=0),
    Message('note_on', channel=9, note=51, velocity=0, time=0),
    Message('note_on', channel=9, note=38, velocity=127, time=0),
    Message('note_on', channel=9, note=42, velocity=127, time=0),
    Message('note_on', channel=9, note=51, velocity=127, time=0),
    Message('note_on', channel=9, note=38, velocity=0, time=64),
    Message('note_on', channel=9, note=42, velocity=0, time=0),
    Message('note_on', channel=9, note=51, velocity=0, time=0),
    Message('note_on', channel=9, note=38, velocity=127, time=0),
    Message('note_on', channel=9, note=42, velocity=127, time=0),
    Message('note_on', channel=9, note=51, velocity=127, time=0),
    Message('note_on', channel=9, note=38, velocity=0, time=64),
    Message('note_on', channel=9, note=42, velocity=0, time=0),
    Message('note_on', channel=9, note=51, velocity=0, time=0),
    Message('note_on', channel=9, note=42, velocity=127, time=0),
    Message('note_on', channel=9, note=42, velocity=0, time=64),
    Message('note_on', channel=9, note=35, velocity=127, time=0),
    Message('note_on', channel=9, note=42, velocity=127, time=0),
    Message('note_on', channel=9, note=35, velocity=0, time=64),
    Message('note_on', channel=9, note=42, velocity=0, time=0),
    Message('note_on', channel=9, note=35, velocity=127, time=0),
    Message('note_on', channel=9, note=38, velocity=127, time=0),
    Message('note_on', channel=9, note=42, velocity=127, time=0),
    Message('note_on', channel=9, note=51, velocity=127, time=0),
    Message('note_on', channel=9, note=35, velocity=0, time=64),
    Message('note_on', channel=9, note=38, velocity=0, time=0),
    Message('note_on', channel=9, note=42, velocity=0, time=0),
    Message('note_on', channel=9, note=51, velocity=0, time=0),
    Message('note_on', channel=9, note=38, velocity=127, time=0),
    Message('note_on', channel=9, note=42, velocity=127, time=0),
    Message('note_on', channel=9, note=51, velocity=127, time=0),
    Message('note_on', channel=9, note=38, velocity=0, time=64),
    Message('note_on', channel=9, note=42, velocity=0, time=0),
    Message('note_on', channel=9, note=51, velocity=0, time=0),
    Message('note_on', channel=9, note=38, velocity=127, time=0),
    Message('note_on', channel=9, note=42, velocity=127, time=0),
    Message('note_on', channel=9, note=51, velocity=127, time=0),
    Message('note_on', channel=9, note=38, velocity=0, time=64),
    Message('note_on', channel=9, note=42, velocity=0, time=0),
    Message('note_on', channel=9, note=51, velocity=0, time=0),
    Message('note_on', channel=9, note=38, velocity=127, time=0),
    Message('note_on', channel=9, note=42, velocity=127, time=0),
    Message('note_on', channel=9, note=51, velocity=127, time=0),
    Message('note_on', channel=9, note=38, velocity=0, time=64),
    Message('note_on', channel=9, note=42, velocity=0, time=0),
    Message('note_on', channel=9, note=51, velocity=0, time=0),
    Message('note_on', channel=9, note=42, velocity=127, time=0),
    Message('note_on', channel=9, note=42, velocity=0, time=64),
    Message('note_on', channel=9, note=35, velocity=127, time=0),
    Message('note_on', channel=9, note=42, velocity=127, time=0),
    Message('note_on', channel=9, note=35, velocity=0, time=64),
    Message('note_on', channel=9, note=42, velocity=0, time=0),
    Message('note_on', channel=9, note=35, velocity=127, time=0),
    Message('note_on', channel=9, note=38, velocity=127, time=0),
    Message('note_on', channel=9, note=42, velocity=127, time=0),
    Message('note_on', channel=9, note=51, velocity=127, time=0),
    Message('note_on', channel=9, note=35, velocity=0, time=64),
    Message('note_on', channel=9, note=38, velocity=0, time=0),
    Message('note_on', channel=9, note=42, velocity=0, time=0),
    Message('note_on', channel=9, note=51, velocity=0, time=0),
    Message('note_on', channel=9, note=38, velocity=127, time=0),
    Message('note_on', channel=9, note=42, velocity=127, time=0),
    Message('note_on', channel=9, note=51, velocity=127, time=0),
    Message('note_on', channel=9, note=38, velocity=0, time=64),
    Message('note_on', channel=9, note=42, velocity=0, time=0),
    Message('note_on', channel=9, note=51, velocity=0, time=0),
    Message('note_on', channel=9, note=35, velocity=127, time=0),
    Message('note_on', channel=9, note=38, velocity=127, time=0),
    Message('note_on', channel=9, note=42, velocity=127, time=0),
    Message('note_on', channel=9, note=51, velocity=127, time=0),
    Message('note_on', channel=9, note=35, velocity=0, time=64),
    Message('note_on', channel=9, note=38, velocity=0, time=0),
    Message('note_on', channel=9, note=42, velocity=0, time=0),
    Message('note_on', channel=9, note=51, velocity=0, time=0),
    Message('note_on', channel=9, note=38, velocity=127, time=0),
    Message('note_on', channel=9, note=42, velocity=127, time=0),
    Message('note_on', channel=9, note=51, velocity=127, time=0),
    Message('note_on', channel=9, note=38, velocity=0, time=64),
    Message('note_on', channel=9, note=42, velocity=0, time=0),
    Message('note_on', channel=9, note=51, velocity=0, time=0),
    Message('note_on', channel=9, note=35, velocity=127, time=0),
    Message('note_on', channel=9, note=42, velocity=127, time=0),
    Message('note_on', channel=9, note=35, velocity=0, time=64),
    Message('note_on', channel=9, note=42, velocity=0, time=0),
    Message('note_on', channel=9, note=35, velocity=127, time=0),
    Message('note_on', channel=9, note=46, velocity=127, time=0),
    Message('note_on', channel=9, note=35, velocity=0, time=64),
    Message('note_on', channel=9, note=46, velocity=0, time=0),
    Message('note_on', channel=9, note=35, velocity=127, time=0),
    Message('note_on', channel=9, note=38, velocity=127, time=0),
    Message('note_on', channel=9, note=42, velocity=127, time=0),
    Message('note_on', channel=9, note=51, velocity=127, time=0),
    Message('note_on', channel=9, note=35, velocity=0, time=64),
    Message('note_on', channel=9, note=38, velocity=0, time=0),
    Message('note_on', channel=9, note=42, velocity=0, time=0),
    Message('note_on', channel=9, note=51, velocity=0, time=0),
    Message('note_on', channel=9, note=38, velocity=127, time=0),
    Message('note_on', channel=9, note=42, velocity=127, time=0),
    Message('note_on', channel=9, note=51, velocity=127, time=0),
    Message('note_on', channel=9, note=38, velocity=0, time=64),
    Message('note_on', channel=9, note=42, velocity=0, time=0),
    Message('note_on', channel=9, note=51, velocity=0, time=0),
    Message('note_on', channel=9, note=38, velocity=127, time=0),
    Message('note_on', channel=9, note=42, velocity=127, time=0),
    Message('note_on', channel=9, note=51, velocity=127, time=0),
    Message('note_on', channel=9, note=38, velocity=0, time=64),
    Message('note_on', channel=9, note=42, velocity=0, time=0),
    Message('note_on', channel=9, note=51, velocity=0, time=0),
    Message('note_on', channel=9, note=38, velocity=127, time=0),
    Message('note_on', channel=9, note=42, velocity=127, time=0),
    Message('note_on', channel=9, note=51, velocity=127, time=0),
    Message('note_on', channel=9, note=38, velocity=0, time=64),
    Message('note_on', channel=9, note=42, velocity=0, time=0),
    Message('note_on', channel=9, note=51, velocity=0, time=0),
    Message('note_on', channel=9, note=42, velocity=127, time=0),
    Message('note_on', channel=9, note=42, velocity=0, time=64),
    Message('note_on', channel=9, note=35, velocity=127, time=0),
    Message('note_on', channel=9, note=42, velocity=127, time=0),
    Message('note_on', channel=9, note=35, velocity=0, time=64),
    Message('note_on', channel=9, note=42, velocity=0, time=0),
    Message('note_on', channel=9, note=35, velocity=127, time=0),
    Message('note_on', channel=9, note=38, velocity=127, time=0),
    Message('note_on', channel=9, note=42, velocity=127, time=0),
    Message('note_on', channel=9, note=51, velocity=127, time=0),
    Message('note_on', channel=9, note=35, velocity=0, time=64),
    Message('note_on', channel=9, note=38, velocity=0, time=0),
    Message('note_on', channel=9, note=42, velocity=0, time=0),
    Message('note_on', channel=9, note=51, velocity=0, time=0),
    Message('note_on', channel=9, note=38, velocity=127, time=0),
    Message('note_on', channel=9, note=42, velocity=127, time=0),
    Message('note_on', channel=9, note=51, velocity=127, time=0),
    Message('note_on', channel=9, note=38, velocity=0, time=64),
    Message('note_on', channel=9, note=42, velocity=0, time=0),
    Message('note_on', channel=9, note=51, velocity=0, time=0),
    Message('note_on', channel=9, note=38, velocity=127, time=0),
    Message('note_on', channel=9, note=42, velocity=127, time=0),
    Message('note_on', channel=9, note=51, velocity=127, time=0),
    Message('note_on', channel=9, note=38, velocity=0, time=64),
    Message('note_on', channel=9, note=42, velocity=0, time=0),
    Message('note_on', channel=9, note=51, velocity=0, time=0),
    Message('note_on', channel=9, note=38, velocity=127, time=0),
    Message('note_on', channel=9, note=42, velocity=127, time=0),
    Message('note_on', channel=9, note=51, velocity=127, time=0),
    Message('note_on', channel=9, note=38, velocity=0, time=64),
    Message('note_on', channel=9, note=42, velocity=0, time=0),
    Message('note_on', channel=9, note=51, velocity=0, time=0),
    Message('note_on', channel=9, note=42, velocity=127, time=0),
    Message('note_on', channel=9, note=42, velocity=0, time=64),
    Message('note_on', channel=9, note=35, velocity=127, time=0),
    Message('note_on', channel=9, note=42, velocity=127, time=0),
    Message('note_on', channel=9, note=35, velocity=0, time=64),
    Message('note_on', channel=9, note=42, velocity=0, time=0),
    Message('note_on', channel=9, note=35, velocity=127, time=0),
    Message('note_on', channel=9, note=38, velocity=127, time=0),
    Message('note_on', channel=9, note=42, velocity=127, time=0),
    Message('note_on', channel=9, note=51, velocity=127, time=0),
    Message('note_on', channel=9, note=35, velocity=0, time=64),
    Message('note_on', channel=9, note=38, velocity=0, time=0),
    Message('note_on', channel=9, note=42, velocity=0, time=0),
    Message('note_on', channel=9, note=51, velocity=0, time=0),
    Message('note_on', channel=9, note=38, velocity=127, time=0),
    Message('note_on', channel=9, note=42, velocity=127, time=0),
    Message('note_on', channel=9, note=51, velocity=127, time=0),
    Message('note_on', channel=9, note=38, velocity=0, time=64),
    Message('note_on', channel=9, note=42, velocity=0, time=0),
    Message('note_on', channel=9, note=51, velocity=0, time=0),
    Message('note_on', channel=9, note=38, velocity=127, time=0),
    Message('note_on', channel=9, note=42, velocity=127, time=0),
    Message('note_on', channel=9, note=51, velocity=127, time=0),
    Message('note_on', channel=9, note=38, velocity=0, time=64),
    Message('note_on', channel=9, note=42, velocity=0, time=0),
    Message('note_on', channel=9, note=51, velocity=0, time=0),
    Message('note_on', channel=9, note=38, velocity=127, time=0),
    Message('note_on', channel=9, note=42, velocity=127, time=0),
    Message('note_on', channel=9, note=51, velocity=127, time=0),
    Message('note_on', channel=9, note=38, velocity=0, time=64),
    Message('note_on', channel=9, note=42, velocity=0, time=0),
    Message('note_on', channel=9, note=51, velocity=0, time=0),
    Message('note_on', channel=9, note=42, velocity=127, time=0),
    Message('note_on', channel=9, note=42, velocity=0, time=64),
    Message('note_on', channel=9, note=35, velocity=127, time=0),
    Message('note_on', channel=9, note=42, velocity=127, time=0),
    Message('note_on', channel=9, note=35, velocity=0, time=64),
    Message('note_on', channel=9, note=42, velocity=0, time=0),
    Message('note_on', channel=9, note=35, velocity=127, time=0),
    Message('note_on', channel=9, note=38, velocity=127, time=0),
    Message('note_on', channel=9, note=42, velocity=127, time=0),
    Message('note_on', channel=9, note=51, velocity=127, time=0),
    Message('note_on', channel=9, note=35, velocity=0, time=64),
    Message('note_on', channel=9, note=38, velocity=0, time=0),
    Message('note_on', channel=9, note=42, velocity=0, time=0),
    Message('note_on', channel=9, note=51, velocity=0, time=0),
    Message('note_on', channel=9, note=38, velocity=127, time=0),
    Message('note_on', channel=9, note=42, velocity=127, time=0),
    Message('note_on', channel=9, note=51, velocity=127, time=0),
    Message('note_on', channel=9, note=38, velocity=0, time=64),
    Message('note_on', channel=9, note=42, velocity=0, time=0),
    Message('note_on', channel=9, note=51, velocity=0, time=0),
    Message('note_on', channel=9, note=35, velocity=127, time=0),
    Message('note_on', channel=9, note=38, velocity=127, time=0),
    Message('note_on', channel=9, note=42, velocity=127, time=0),
    Message('note_on', channel=9, note=51, velocity=127, time=0),
    Message('note_on', channel=9, note=35, velocity=0, time=64),
    Message('note_on', channel=9, note=38, velocity=0, time=0),
    Message('note_on', channel=9, note=42, velocity=0, time=0),
    Message('note_on', channel=9, note=51, velocity=0, time=0),
    Message('note_on', channel=9, note=38, velocity=127, time=0),
    Message('note_on', channel=9, note=42, velocity=127, time=0),
    Message('note_on', channel=9, note=51, velocity=127, time=0),
    Message('note_on', channel=9, note=38, velocity=0, time=64),
    Message('note_on', channel=9, note=42, velocity=0, time=0),
    Message('note_on', channel=9, note=51, velocity=0, time=0),
    Message('note_on', channel=9, note=35, velocity=127, time=0),
    Message('note_on', channel=9, note=42, velocity=127, time=0),
    Message('note_on', channel=9, note=35, velocity=0, time=64),
    Message('note_on', channel=9, note=42, velocity=0, time=0),
    Message('note_on', channel=9, note=35, velocity=127, time=0),
    Message('note_on', channel=9, note=42, velocity=127, time=0),
    Message('note_on', channel=9, note=35, velocity=0, time=64),
    Message('note_on', channel=9, note=42, velocity=0, time=0),
    Message('note_on', channel=9, note=35, velocity=127, time=0),
    Message('note_on', channel=9, note=38, velocity=127, time=0),
    Message('note_on', channel=9, note=42, velocity=127, time=0),
    Message('note_on', channel=9, note=51, velocity=127, time=0),
    Message('note_on', channel=9, note=35, velocity=0, time=64),
    Message('note_on', channel=9, note=38, velocity=0, time=0),
    Message('note_on', channel=9, note=42, velocity=0, time=0),
    Message('note_on', channel=9, note=51, velocity=0, time=0),
    Message('note_on', channel=9, note=38, velocity=127, time=0),
    Message('note_on', channel=9, note=42, velocity=127, time=0),
    Message('note_on', channel=9, note=51, velocity=127, time=0),
    Message('note_on', channel=9, note=38, velocity=0, time=64),
    Message('note_on', channel=9, note=42, velocity=0, time=0),
    Message('note_on', channel=9, note=51, velocity=0, time=0),
    Message('note_on', channel=9, note=38, velocity=127, time=0),
    Message('note_on', channel=9, note=42, velocity=127, time=0),
    Message('note_on', channel=9, note=51, velocity=127, time=0),
    Message('note_on', channel=9, note=38, velocity=0, time=64),
    Message('note_on', channel=9, note=42, velocity=0, time=0),
    Message('note_on', channel=9, note=51, velocity=0, time=0),
    Message('note_on', channel=9, note=38, velocity=127, time=0),
    Message('note_on', channel=9, note=42, velocity=127, time=0),
    Message('note_on', channel=9, note=51, velocity=127, time=0),
    Message('note_on', channel=9, note=38, velocity=0, time=64),
    Message('note_on', channel=9, note=42, velocity=0, time=0),
    Message('note_on', channel=9, note=51, velocity=0, time=0),
    Message('note_on', channel=9, note=42, velocity=127, time=0),
    Message('note_on', channel=9, note=42, velocity=0, time=64),
    Message('note_on', channel=9, note=35, velocity=127, time=0),
    Message('note_on', channel=9, note=42, velocity=127, time=0),
    Message('note_on', channel=9, note=35, velocity=0, time=64),
    Message('note_on', channel=9, note=42, velocity=0, time=0),
    Message('note_on', channel=9, note=35, velocity=127, time=0),
    Message('note_on', channel=9, note=38, velocity=127, time=0),
    Message('note_on', channel=9, note=42, velocity=127, time=0),
    Message('note_on', channel=9, note=51, velocity=127, time=0),
    Message('note_on', channel=9, note=35, velocity=0, time=64),
    Message('note_on', channel=9, note=38, velocity=0, time=0),
    Message('note_on', channel=9, note=42, velocity=0, time=0),
    Message('note_on', channel=9, note=51, velocity=0, time=0),
    Message('note_on', channel=9, note=38, velocity=127, time=0),
    Message('note_on', channel=9, note=42, velocity=127, time=0),
    Message('note_on', channel=9, note=51, velocity=127, time=0),
    Message('note_on', channel=9, note=38, velocity=0, time=64),
    Message('note_on', channel=9, note=42, velocity=0, time=0),
    Message('note_on', channel=9, note=51, velocity=0, time=0),
    Message('note_on', channel=9, note=38, velocity=127, time=0),
    Message('note_on', channel=9, note=42, velocity=127, time=0),
    Message('note_on', channel=9, note=51, velocity=127, time=0),
    Message('note_on', channel=9, note=38, velocity=0, time=64),
    Message('note_on', channel=9, note=42, velocity=0, time=0),
    Message('note_on', channel=9, note=51, velocity=0, time=0),
    Message('note_on', channel=9, note=38, velocity=127, time=0),
    Message('note_on', channel=9, note=42, velocity=127, time=0),
    Message('note_on', channel=9, note=51, velocity=127, time=0),
    Message('note_on', channel=9, note=38, velocity=0, time=64),
    Message('note_on', channel=9, note=42, velocity=0, time=0),
    Message('note_on', channel=9, note=51, velocity=0, time=0),
    Message('note_on', channel=9, note=42, velocity=127, time=0),
    Message('note_on', channel=9, note=42, velocity=0, time=64),
    Message('note_on', channel=9, note=35, velocity=127, time=0),
    Message('note_on', channel=9, note=42, velocity=127, time=0),
    Message('note_on', channel=9, note=35, velocity=0, time=64),
    Message('note_on', channel=9, note=42, velocity=0, time=0),
    Message('note_on', channel=9, note=35, velocity=127, time=0),
    Message('note_on', channel=9, note=38, velocity=127, time=0),
    Message('note_on', channel=9, note=42, velocity=127, time=0),
    Message('note_on', channel=9, note=51, velocity=127, time=0),
    Message('note_on', channel=9, note=35, velocity=0, time=64),
    Message('note_on', channel=9, note=38, velocity=0, time=0),
    Message('note_on', channel=9, note=42, velocity=0, time=0),
    Message('note_on', channel=9, note=51, velocity=0, time=0),
    Message('note_on', channel=9, note=38, velocity=127, time=0),
    Message('note_on', channel=9, note=42, velocity=127, time=0),
    Message('note_on', channel=9, note=51, velocity=127, time=0),
    Message('note_on', channel=9, note=38, velocity=0, time=64),
    Message('note_on', channel=9, note=42, velocity=0, time=0),
    Message('note_on', channel=9, note=51, velocity=0, time=0),
    Message('note_on', channel=9, note=38, velocity=127, time=0),
    Message('note_on', channel=9, note=42, velocity=127, time=0),
    Message('note_on', channel=9, note=51, velocity=127, time=0),
    Message('note_on', channel=9, note=38, velocity=0, time=64),
    Message('note_on', channel=9, note=42, velocity=0, time=0),
    Message('note_on', channel=9, note=51, velocity=0, time=0),
    Message('note_on', channel=9, note=38, velocity=127, time=0),
    Message('note_on', channel=9, note=42, velocity=127, time=0),
    Message('note_on', channel=9, note=51, velocity=127, time=0),
    Message('note_on', channel=9, note=38, velocity=0, time=64),
    Message('note_on', channel=9, note=42, velocity=0, time=0),
    Message('note_on', channel=9, note=51, velocity=0, time=0),
    Message('note_on', channel=9, note=42, velocity=127, time=0),
    Message('note_on', channel=9, note=42, velocity=0, time=64),
    Message('note_on', channel=9, note=35, velocity=127, time=0),
    Message('note_on', channel=9, note=42, velocity=127, time=0),
    Message('note_on', channel=9, note=35, velocity=0, time=64),
    Message('note_on', channel=9, note=42, velocity=0, time=0),
    Message('note_on', channel=9, note=35, velocity=127, time=0),
    Message('note_on', channel=9, note=38, velocity=127, time=0),
    Message('note_on', channel=9, note=42, velocity=127, time=0),
    Message('note_on', channel=9, note=51, velocity=127, time=0),
    Message('note_on', channel=9, note=35, velocity=0, time=64),
    Message('note_on', channel=9, note=38, velocity=0, time=0),
    Message('note_on', channel=9, note=42, velocity=0, time=0),
    Message('note_on', channel=9, note=51, velocity=0, time=0),
    Message('note_on', channel=9, note=38, velocity=127, time=0),
    Message('note_on', channel=9, note=42, velocity=127, time=0),
    Message('note_on', channel=9, note=51, velocity=127, time=0),
    Message('note_on', channel=9, note=38, velocity=0, time=64),
    Message('note_on', channel=9, note=42, velocity=0, time=0),
    Message('note_on', channel=9, note=51, velocity=0, time=0),
    Message('note_on', channel=9, note=35, velocity=127, time=0),
    Message('note_on', channel=9, note=38, velocity=127, time=0),
    Message('note_on', channel=9, note=42, velocity=127, time=0),
    Message('note_on', channel=9, note=51, velocity=127, time=0),
    Message('note_on', channel=9, note=35, velocity=0, time=64),
    Message('note_on', channel=9, note=38, velocity=0, time=0),
    Message('note_on', channel=9, note=42, velocity=0, time=0),
    Message('note_on', channel=9, note=51, velocity=0, time=0),
    Message('note_on', channel=9, note=38, velocity=127, time=0),
    Message('note_on', channel=9, note=42, velocity=127, time=0),
    Message('note_on', channel=9, note=51, velocity=127, time=0),
    Message('note_on', channel=9, note=38, velocity=0, time=64),
    Message('note_on', channel=9, note=42, velocity=0, time=0),
    Message('note_on', channel=9, note=51, velocity=0, time=0),
    Message('note_on', channel=9, note=35, velocity=127, time=0),
    Message('note_on', channel=9, note=42, velocity=127, time=0),
    Message('note_on', channel=9, note=35, velocity=0, time=64),
    Message('note_on', channel=9, note=42, velocity=0, time=0),
    Message('note_on', channel=9, note=35, velocity=127, time=0),
    Message('note_on', channel=9, note=42, velocity=127, time=0),
    Message('note_on', channel=9, note=35, velocity=0, time=64),
    Message('note_on', channel=9, note=42, velocity=0, time=0),
    Message('note_on', channel=9, note=35, velocity=127, time=0),
    Message('note_on', channel=9, note=38, velocity=127, time=0),
    Message('note_on', channel=9, note=42, velocity=127, time=0),
    Message('note_on', channel=9, note=51, velocity=127, time=0),
    Message('note_on', channel=9, note=35, velocity=0, time=64),
    Message('note_on', channel=9, note=38, velocity=0, time=0),
    Message('note_on', channel=9, note=42, velocity=0, time=0),
    Message('note_on', channel=9, note=51, velocity=0, time=0),
    Message('note_on', channel=9, note=38, velocity=127, time=0),
    Message('note_on', channel=9, note=42, velocity=127, time=0),
    Message('note_on', channel=9, note=51, velocity=127, time=0),
    Message('note_on', channel=9, note=38, velocity=0, time=64),
    Message('note_on', channel=9, note=42, velocity=0, time=0),
    Message('note_on', channel=9, note=51, velocity=0, time=0),
    Message('note_on', channel=9, note=38, velocity=127, time=0),
    Message('note_on', channel=9, note=42, velocity=127, time=0),
    Message('note_on', channel=9, note=51, velocity=127, time=0),
    Message('note_on', channel=9, note=38, velocity=0, time=64),
    Message('note_on', channel=9, note=42, velocity=0, time=0),
    Message('note_on', channel=9, note=51, velocity=0, time=0),
    Message('note_on', channel=9, note=38, velocity=127, time=0),
    Message('note_on', channel=9, note=42, velocity=127, time=0),
    Message('note_on', channel=9, note=51, velocity=127, time=0),
    Message('note_on', channel=9, note=38, velocity=0, time=64),
    Message('note_on', channel=9, note=42, velocity=0, time=0),
    Message('note_on', channel=9, note=51, velocity=0, time=0),
    Message('note_on', channel=9, note=42, velocity=127, time=0),
    Message('note_on', channel=9, note=42, velocity=0, time=64),
    Message('note_on', channel=9, note=35, velocity=127, time=0),
    Message('note_on', channel=9, note=42, velocity=127, time=0),
    Message('note_on', channel=9, note=35, velocity=0, time=64),
    Message('note_on', channel=9, note=42, velocity=0, time=0),
    Message('note_on', channel=9, note=35, velocity=127, time=0),
    Message('note_on', channel=9, note=38, velocity=127, time=0),
    Message('note_on', channel=9, note=42, velocity=127, time=0),
    Message('note_on', channel=9, note=51, velocity=127, time=0),
    Message('note_on', channel=9, note=35, velocity=0, time=64),
    Message('note_on', channel=9, note=38, velocity=0, time=0),
    Message('note_on', channel=9, note=42, velocity=0, time=0),
    Message('note_on', channel=9, note=51, velocity=0, time=0),
    Message('note_on', channel=9, note=38, velocity=127, time=0),
    Message('note_on', channel=9, note=42, velocity=127, time=0),
    Message('note_on', channel=9, note=51, velocity=127, time=0),
    Message('note_on', channel=9, note=38, velocity=0, time=64),
    Message('note_on', channel=9, note=42, velocity=0, time=0),
    Message('note_on', channel=9, note=51, velocity=0, time=0),
    Message('note_on', channel=9, note=38, velocity=127, time=0),
    Message('note_on', channel=9, note=42, velocity=127, time=0),
    Message('note_on', channel=9, note=51, velocity=127, time=0),
    Message('note_on', channel=9, note=38, velocity=0, time=64),
    Message('note_on', channel=9, note=42, velocity=0, time=0),
    Message('note_on', channel=9, note=51, velocity=0, time=0),
    Message('note_on', channel=9, note=38, velocity=127, time=0),
    Message('note_on', channel=9, note=42, velocity=127, time=0),
    Message('note_on', channel=9, note=51, velocity=127, time=0),
    Message('note_on', channel=9, note=38, velocity=0, time=64),
    Message('note_on', channel=9, note=42, velocity=0, time=0),
    Message('note_on', channel=9, note=51, velocity=0, time=0),
    Message('note_on', channel=9, note=42, velocity=127, time=0),
    Message('note_on', channel=9, note=42, velocity=0, time=64),
    Message('note_on', channel=9, note=35, velocity=127, time=0),
    Message('note_on', channel=9, note=42, velocity=127, time=0),
    Message('note_on', channel=9, note=35, velocity=0, time=64),
    Message('note_on', channel=9, note=42, velocity=0, time=0),
    Message('note_on', channel=9, note=35, velocity=127, time=0),
    Message('note_on', channel=9, note=38, velocity=127, time=0),
    Message('note_on', channel=9, note=42, velocity=127, time=0),
    Message('note_on', channel=9, note=51, velocity=127, time=0),
    Message('note_on', channel=9, note=35, velocity=0, time=64),
    Message('note_on', channel=9, note=38, velocity=0, time=0),
    Message('note_on', channel=9, note=42, velocity=0, time=0),
    Message('note_on', channel=9, note=51, velocity=0, time=0),
    Message('note_on', channel=9, note=38, velocity=127, time=0),
    Message('note_on', channel=9, note=42, velocity=127, time=0),
    Message('note_on', channel=9, note=51, velocity=127, time=0),
    Message('note_on', channel=9, note=38, velocity=0, time=64),
    Message('note_on', channel=9, note=42, velocity=0, time=0),
    Message('note_on', channel=9, note=51, velocity=0, time=0),
    Message('note_on', channel=9, note=38, velocity=127, time=0),
    Message('note_on', channel=9, note=42, velocity=127, time=0),
    Message('note_on', channel=9, note=51, velocity=127, time=0),
    Message('note_on', channel=9, note=38, velocity=0, time=64),
    Message('note_on', channel=9, note=42, velocity=0, time=0),
    Message('note_on', channel=9, note=51, velocity=0, time=0),
    Message('note_on', channel=9, note=38, velocity=127, time=0),
    Message('note_on', channel=9, note=42, velocity=127, time=0),
    Message('note_on', channel=9, note=51, velocity=127, time=0),
    Message('note_on', channel=9, note=38, velocity=0, time=64),
    Message('note_on', channel=9, note=42, velocity=0, time=0),
    Message('note_on', channel=9, note=51, velocity=0, time=0),
    Message('note_on', channel=9, note=42, velocity=127, time=0),
    Message('note_on', channel=9, note=42, velocity=0, time=64),
    Message('note_on', channel=9, note=35, velocity=127, time=0),
    Message('note_on', channel=9, note=42, velocity=127, time=0),
    Message('note_on', channel=9, note=35, velocity=0, time=64),
    Message('note_on', channel=9, note=42, velocity=0, time=0),
    Message('note_on', channel=9, note=35, velocity=127, time=0),
    Message('note_on', channel=9, note=38, velocity=127, time=0),
    Message('note_on', channel=9, note=42, velocity=127, time=0),
    Message('note_on', channel=9, note=51, velocity=127, time=0),
    Message('note_on', channel=9, note=35, velocity=0, time=64),
    Message('note_on', channel=9, note=38, velocity=0, time=0),
    Message('note_on', channel=9, note=42, velocity=0, time=0),
    Message('note_on', channel=9, note=51, velocity=0, time=0),
    Message('note_on', channel=9, note=38, velocity=127, time=0),
    Message('note_on', channel=9, note=42, velocity=127, time=0),
    Message('note_on', channel=9, note=51, velocity=127, time=0),
    Message('note_on', channel=9, note=38, velocity=0, time=64),
    Message('note_on', channel=9, note=42, velocity=0, time=0),
    Message('note_on', channel=9, note=51, velocity=0, time=0),
    Message('note_on', channel=9, note=35, velocity=127, time=0),
    Message('note_on', channel=9, note=38, velocity=127, time=0),
    Message('note_on', channel=9, note=42, velocity=127, time=0),
    Message('note_on', channel=9, note=51, velocity=127, time=0),
    Message('note_on', channel=9, note=35, velocity=0, time=64),
    Message('note_on', channel=9, note=38, velocity=0, time=0),
    Message('note_on', channel=9, note=42, velocity=0, time=0),
    Message('note_on', channel=9, note=51, velocity=0, time=0),
    Message('note_on', channel=9, note=38, velocity=127, time=0),
    Message('note_on', channel=9, note=42, velocity=127, time=0),
    Message('note_on', channel=9, note=51, velocity=127, time=0),
    Message('note_on', channel=9, note=38, velocity=0, time=64),
    Message('note_on', channel=9, note=42, velocity=0, time=0),
    Message('note_on', channel=9, note=51, velocity=0, time=0),
    Message('note_on', channel=9, note=35, velocity=127, time=0),
    Message('note_on', channel=9, note=42, velocity=127, time=0),
    Message('note_on', channel=9, note=35, velocity=0, time=64),
    Message('note_on', channel=9, note=42, velocity=0, time=0),
    Message('note_on', channel=9, note=35, velocity=127, time=0),
    Message('note_on', channel=9, note=46, velocity=127, time=0),
    Message('note_on', channel=9, note=35, velocity=0, time=64),
    Message('note_on', channel=9, note=46, velocity=0, time=0),
    Message('note_on', channel=9, note=35, velocity=127, time=0),
    Message('note_on', channel=9, note=38, velocity=127, time=0),
    Message('note_on', channel=9, note=42, velocity=127, time=0),
    Message('note_on', channel=9, note=51, velocity=127, time=0),
    Message('note_on', channel=9, note=35, velocity=0, time=64),
    Message('note_on', channel=9, note=38, velocity=0, time=0),
    Message('note_on', channel=9, note=42, velocity=0, time=0),
    Message('note_on', channel=9, note=51, velocity=0, time=0),
    Message('note_on', channel=9, note=38, velocity=127, time=0),
    Message('note_on', channel=9, note=42, velocity=127, time=0),
    Message('note_on', channel=9, note=51, velocity=127, time=0),
    Message('note_on', channel=9, note=38, velocity=0, time=64),
    Message('note_on', channel=9, note=42, velocity=0, time=0),
    Message('note_on', channel=9, note=51, velocity=0, time=0),
    Message('note_on', channel=9, note=38, velocity=127, time=0),
    Message('note_on', channel=9, note=42, velocity=127, time=0),
    Message('note_on', channel=9, note=51, velocity=127, time=0),
    Message('note_on', channel=9, note=38, velocity=0, time=64),
    Message('note_on', channel=9, note=42, velocity=0, time=0),
    Message('note_on', channel=9, note=51, velocity=0, time=0),
    Message('note_on', channel=9, note=38, velocity=127, time=0),
    Message('note_on', channel=9, note=42, velocity=127, time=0),
    Message('note_on', channel=9, note=51, velocity=127, time=0),
    Message('note_on', channel=9, note=38, velocity=0, time=64),
    Message('note_on', channel=9, note=42, velocity=0, time=0),
    Message('note_on', channel=9, note=51, velocity=0, time=0),
    Message('note_on', channel=9, note=38, velocity=127, time=0),
    Message('note_on', channel=9, note=42, velocity=127, time=0),
    Message('note_on', channel=9, note=51, velocity=127, time=0),
    Message('note_on', channel=9, note=38, velocity=0, time=64),
    Message('note_on', channel=9, note=42, velocity=0, time=0),
    Message('note_on', channel=9, note=51, velocity=0, time=0),
    Message('note_on', channel=9, note=35, velocity=127, time=0),
    Message('note_on', channel=9, note=38, velocity=127, time=0),
    Message('note_on', channel=9, note=42, velocity=127, time=0),
    Message('note_on', channel=9, note=51, velocity=127, time=0),
    Message('note_on', channel=9, note=35, velocity=0, time=64),
    Message('note_on', channel=9, note=38, velocity=0, time=0),
    Message('note_on', channel=9, note=42, velocity=0, time=0),
    Message('note_on', channel=9, note=51, velocity=0, time=0),
    Message('note_on', channel=9, note=35, velocity=127, time=0),
    Message('note_on', channel=9, note=38, velocity=127, time=0),
    Message('note_on', channel=9, note=42, velocity=127, time=0),
    Message('note_on', channel=9, note=51, velocity=127, time=0),
    Message('note_on', channel=9, note=35, velocity=0, time=64),
    Message('note_on', channel=9, note=38, velocity=0, time=0),
    Message('note_on', channel=9, note=42, velocity=0, time=0),
    Message('note_on', channel=9, note=51, velocity=0, time=0),
    Message('note_on', channel=9, note=38, velocity=127, time=0),
    Message('note_on', channel=9, note=42, velocity=127, time=0),
    Message('note_on', channel=9, note=51, velocity=127, time=0),
    Message('note_on', channel=9, note=38, velocity=0, time=64),
    Message('note_on', channel=9, note=42, velocity=0, time=0),
    Message('note_on', channel=9, note=51, velocity=0, time=0),
    Message('note_on', channel=9, note=38, velocity=127, time=0),
    Message('note_on', channel=9, note=42, velocity=127, time=0),
    Message('note_on', channel=9, note=51, velocity=127, time=0),
    Message('note_on', channel=9, note=38, velocity=0, time=64),
    Message('note_on', channel=9, note=42, velocity=0, time=0),
    Message('note_on', channel=9, note=51, velocity=0, time=0),
    Message('note_on', channel=9, note=38, velocity=127, time=0),
    Message('note_on', channel=9, note=42, velocity=127, time=0),
    Message('note_on', channel=9, note=51, velocity=127, time=0),
    Message('note_on', channel=9, note=38, velocity=0, time=64),
    Message('note_on', channel=9, note=42, velocity=0, time=0),
    Message('note_on', channel=9, note=51, velocity=0, time=0),
    Message('note_on', channel=9, note=38, velocity=127, time=0),
    Message('note_on', channel=9, note=42, velocity=127, time=0),
    Message('note_on', channel=9, note=51, velocity=127, time=0),
    Message('note_on', channel=9, note=38, velocity=0, time=64),
    Message('note_on', channel=9, note=42, velocity=0, time=0),
    Message('note_on', channel=9, note=51, velocity=0, time=0),
    Message('note_on', channel=9, note=35, velocity=127, time=0),
    Message('note_on', channel=9, note=38, velocity=127, time=0),
    Message('note_on', channel=9, note=42, velocity=127, time=0),
    Message('note_on', channel=9, note=51, velocity=127, time=0),
    Message('note_on', channel=9, note=35, velocity=0, time=64),
    Message('note_on', channel=9, note=38, velocity=0, time=0),
    Message('note_on', channel=9, note=42, velocity=0, time=0),
    Message('note_on', channel=9, note=51, velocity=0, time=0),
    Message('note_on', channel=9, note=35, velocity=127, time=0),
    Message('note_on', channel=9, note=38, velocity=127, time=0),
    Message('note_on', channel=9, note=42, velocity=127, time=0),
    Message('note_on', channel=9, note=49, velocity=127, time=0),
    Message('note_on', channel=9, note=35, velocity=0, time=64),
    Message('note_on', channel=9, note=38, velocity=0, time=0),
    Message('note_on', channel=9, note=42, velocity=0, time=0),
    Message('note_on', channel=9, note=49, velocity=0, time=0),
    Message('note_on', channel=9, note=38, velocity=127, time=0),
    Message('note_on', channel=9, note=42, velocity=127, time=0),
    Message('note_on', channel=9, note=51, velocity=127, time=0),
    Message('note_on', channel=9, note=38, velocity=0, time=64),
    Message('note_on', channel=9, note=42, velocity=0, time=0),
    Message('note_on', channel=9, note=51, velocity=0, time=0),
    Message('note_on', channel=9, note=38, velocity=127, time=0),
    Message('note_on', channel=9, note=42, velocity=127, time=0),
    Message('note_on', channel=9, note=51, velocity=127, time=0),
    Message('note_on', channel=9, note=38, velocity=0, time=64),
    Message('note_on', channel=9, note=42, velocity=0, time=0),
    Message('note_on', channel=9, note=51, velocity=0, time=0),
    Message('note_on', channel=9, note=42, velocity=127, time=0),
    Message('note_on', channel=9, note=49, velocity=127, time=0),
    Message('note_on', channel=9, note=48, velocity=127, time=0),
    Message('note_on', channel=9, note=42, velocity=0, time=64),
    Message('note_on', channel=9, note=49, velocity=0, time=0),
    Message('note_on', channel=9, note=48, velocity=0, time=0),
    Message('note_on', channel=9, note=42, velocity=127, time=0),
    Message('note_on', channel=9, note=51, velocity=127, time=0),
    Message('note_on', channel=9, note=48, velocity=127, time=0),
    Message('note_on', channel=9, note=42, velocity=0, time=64),
    Message('note_on', channel=9, note=51, velocity=0, time=0),
    Message('note_on', channel=9, note=48, velocity=0, time=0),
    Message('note_on', channel=9, note=35, velocity=127, time=0),
    Message('note_on', channel=9, note=42, velocity=127, time=0),
    Message('note_on', channel=9, note=51, velocity=127, time=0),
    Message('note_on', channel=9, note=48, velocity=127, time=0),
    Message('note_on', channel=9, note=35, velocity=0, time=64),
    Message('note_on', channel=9, note=42, velocity=0, time=0),
    Message('note_on', channel=9, note=51, velocity=0, time=0),
    Message('note_on', channel=9, note=48, velocity=0, time=0),
    Message('note_on', channel=9, note=35, velocity=127, time=0),
    Message('note_on', channel=9, note=38, velocity=127, time=0),
    Message('note_on', channel=9, note=42, velocity=127, time=0),
    Message('note_on', channel=9, note=49, velocity=127, time=0),
    Message('note_on', channel=9, note=45, velocity=127, time=0),
    Message('note_on', channel=9, note=35, velocity=0, time=64),
    Message('note_on', channel=9, note=38, velocity=0, time=0),
    Message('note_on', channel=9, note=42, velocity=0, time=0),
    Message('note_on', channel=9, note=49, velocity=0, time=0),
    Message('note_on', channel=9, note=45, velocity=0, time=0),
    Message('note_on', channel=9, note=42, velocity=127, time=0),
    Message('note_on', channel=9, note=51, velocity=127, time=0),
    Message('note_on', channel=9, note=45, velocity=127, time=0),
    Message('note_on', channel=9, note=42, velocity=0, time=64),
    Message('note_on', channel=9, note=51, velocity=0, time=0),
    Message('note_on', channel=9, note=45, velocity=0, time=0),
    Message('note_on', channel=9, note=35, velocity=127, time=0),
    Message('note_on', channel=9, note=42, velocity=127, time=0),
    Message('note_on', channel=9, note=51, velocity=127, time=0),
    Message('note_on', channel=9, note=45, velocity=127, time=0),
    Message('note_on', channel=9, note=35, velocity=0, time=64),
    Message('note_on', channel=9, note=42, velocity=0, time=0),
    Message('note_on', channel=9, note=51, velocity=0, time=0),
    Message('note_on', channel=9, note=45, velocity=0, time=0),
    Message('note_on', channel=9, note=42, velocity=127, time=0),
    Message('note_on', channel=9, note=49, velocity=127, time=0),
    Message('note_on', channel=9, note=41, velocity=127, time=0),
    Message('note_on', channel=9, note=42, velocity=0, time=64),
    Message('note_on', channel=9, note=49, velocity=0, time=0),
    Message('note_on', channel=9, note=41, velocity=0, time=0),
    Message('note_on', channel=9, note=35, velocity=127, time=0),
    Message('note_on', channel=9, note=42, velocity=127, time=0),
    Message('note_on', channel=9, note=51, velocity=127, time=0),
    Message('note_on', channel=9, note=41, velocity=127, time=0),
    Message('note_on', channel=9, note=35, velocity=0, time=64),
    Message('note_on', channel=9, note=42, velocity=0, time=0),
    Message('note_on', channel=9, note=51, velocity=0, time=0),
    Message('note_on', channel=9, note=41, velocity=0, time=0),
    Message('note_on', channel=9, note=35, velocity=127, time=0),
    Message('note_on', channel=9, note=42, velocity=127, time=0),
    Message('note_on', channel=9, note=51, velocity=127, time=0),
    Message('note_on', channel=9, note=41, velocity=127, time=0),
    Message('note_on', channel=9, note=35, velocity=0, time=64),
    Message('note_on', channel=9, note=42, velocity=0, time=0),
    Message('note_on', channel=9, note=51, velocity=0, time=0),
    Message('note_on', channel=9, note=41, velocity=0, time=0),
    Message('note_on', channel=9, note=35, velocity=127, time=0),
    Message('note_on', channel=9, note=42, velocity=127, time=0),
    Message('note_on', channel=9, note=49, velocity=127, time=0),
    Message('note_on', channel=9, note=41, velocity=127, time=0),
    Message('note_on', channel=9, note=35, velocity=0, time=64),
    Message('note_on', channel=9, note=42, velocity=0, time=0),
    Message('note_on', channel=9, note=49, velocity=0, time=0),
    Message('note_on', channel=9, note=41, velocity=0, time=0),
    Message('note_on', channel=9, note=42, velocity=127, time=0),
    Message('note_on', channel=9, note=42, velocity=0, time=64),
    Message('note_on', channel=9, note=42, velocity=127, time=0),
    Message('note_on', channel=9, note=42, velocity=0, time=64),
    Message('note_on', channel=9, note=38, velocity=127, time=0),
    Message('note_on', channel=9, note=42, velocity=127, time=0),
    Message('note_on', channel=9, note=37, velocity=127, time=0),
    Message('note_on', channel=9, note=38, velocity=0, time=64),
    Message('note_on', channel=9, note=42, velocity=0, time=0),
    Message('note_on', channel=9, note=37, velocity=0, time=0),
    Message('note_on', channel=9, note=42, velocity=127, time=0),
    Message('note_on', channel=9, note=42, velocity=0, time=64),
    Message('note_on', channel=9, note=35, velocity=127, time=0),
    Message('note_on', channel=9, note=42, velocity=127, time=0),
    Message('note_on', channel=9, note=35, velocity=0, time=64),
    Message('note_on', channel=9, note=42, velocity=0, time=0),
    Message('note_on', channel=9, note=35, velocity=127, time=0),
    Message('note_on', channel=9, note=42, velocity=127, time=0),
    Message('note_on', channel=9, note=35, velocity=0, time=64),
    Message('note_on', channel=9, note=42, velocity=0, time=0),
    Message('note_on', channel=9, note=42, velocity=127, time=0),
    Message('note_on', channel=9, note=42, velocity=0, time=64),
    Message('note_on', channel=9, note=42, velocity=127, time=0),
    Message('note_on', channel=9, note=42, velocity=0, time=64),
    Message('note_on', channel=9, note=42, velocity=127, time=0),
    Message('note_on', channel=9, note=37, velocity=127, time=0),
    Message('note_on', channel=9, note=42, velocity=0, time=64),
    Message('note_on', channel=9, note=37, velocity=0, time=0),
    Message('note_on', channel=9, note=42, velocity=127, time=0),
    Message('note_on', channel=9, note=42, velocity=0, time=64),
    Message('note_on', channel=9, note=35, velocity=127, time=0),
    Message('note_on', channel=9, note=42, velocity=127, time=0),
    Message('note_on', channel=9, note=35, velocity=0, time=64),
    Message('note_on', channel=9, note=42, velocity=0, time=0),
    Message('note_on', channel=9, note=35, velocity=127, time=0),
    Message('note_on', channel=9, note=42, velocity=127, time=0),
    Message('note_on', channel=9, note=35, velocity=0, time=64),
    Message('note_on', channel=9, note=42, velocity=0, time=0),
    Message('note_on', channel=9, note=42, velocity=127, time=0),
    Message('note_on', channel=9, note=42, velocity=0, time=64),
    Message('note_on', channel=9, note=42, velocity=127, time=0),
    Message('note_on', channel=9, note=42, velocity=0, time=64),
    Message('note_on', channel=9, note=42, velocity=127, time=0),
    Message('note_on', channel=9, note=37, velocity=127, time=0),
    Message('note_on', channel=9, note=42, velocity=0, time=64),
    Message('note_on', channel=9, note=37, velocity=0, time=0),
    Message('note_on', channel=9, note=42, velocity=127, time=0),
    Message('note_on', channel=9, note=42, velocity=0, time=64),
    Message('note_on', channel=9, note=35, velocity=127, time=0),
    Message('note_on', channel=9, note=42, velocity=127, time=0),
    Message('note_on', channel=9, note=35, velocity=0, time=64),
    Message('note_on', channel=9, note=42, velocity=0, time=0),
    Message('note_on', channel=9, note=35, velocity=127, time=0),
    Message('note_on', channel=9, note=42, velocity=127, time=0),
    Message('note_on', channel=9, note=35, velocity=0, time=64),
    Message('note_on', channel=9, note=42, velocity=0, time=0),
    Message('note_on', channel=9, note=42, velocity=127, time=0),
    Message('note_on', channel=9, note=42, velocity=0, time=64),
    Message('note_on', channel=9, note=35, velocity=127, time=0),
    Message('note_on', channel=9, note=42, velocity=127, time=0),
    Message('note_on', channel=9, note=35, velocity=0, time=64),
    Message('note_on', channel=9, note=42, velocity=0, time=0),
    Message('note_on', channel=9, note=42, velocity=127, time=0),
    Message('note_on', channel=9, note=37, velocity=127, time=0),
    Message('note_on', channel=9, note=42, velocity=0, time=64),
    Message('note_on', channel=9, note=37, velocity=0, time=0),
    Message('note_on', channel=9, note=35, velocity=127, time=0),
    Message('note_on', channel=9, note=42, velocity=127, time=0),
    Message('note_on', channel=9, note=35, velocity=0, time=64),
    Message('note_on', channel=9, note=42, velocity=0, time=0),
    Message('note_on', channel=9, note=35, velocity=127, time=0),
    Message('note_on', channel=9, note=42, velocity=127, time=0),
    Message('note_on', channel=9, note=35, velocity=0, time=64),
    Message('note_on', channel=9, note=42, velocity=0, time=0),
    Message('note_on', channel=9, note=35, velocity=127, time=0),
    Message('note_on', channel=9, note=42, velocity=127, time=0),
    Message('note_on', channel=9, note=35, velocity=0, time=64),
    Message('note_on', channel=9, note=42, velocity=0, time=0),
    Message('note_on', channel=9, note=42, velocity=127, time=0),
    Message('note_on', channel=9, note=42, velocity=0, time=64),
    Message('note_on', channel=9, note=42, velocity=127, time=0),
    Message('note_on', channel=9, note=42, velocity=0, time=64),
    Message('note_on', channel=9, note=42, velocity=127, time=0),
    Message('note_on', channel=9, note=37, velocity=127, time=0),
    Message('note_on', channel=9, note=42, velocity=0, time=64),
    Message('note_on', channel=9, note=37, velocity=0, time=0),
    Message('note_on', channel=9, note=42, velocity=127, time=0),
    Message('note_on', channel=9, note=42, velocity=0, time=64),
    Message('note_on', channel=9, note=35, velocity=127, time=0),
    Message('note_on', channel=9, note=42, velocity=127, time=0),
    Message('note_on', channel=9, note=35, velocity=0, time=64),
    Message('note_on', channel=9, note=42, velocity=0, time=0),
    Message('note_on', channel=9, note=35, velocity=127, time=0),
    Message('note_on', channel=9, note=42, velocity=127, time=0),
    Message('note_on', channel=9, note=35, velocity=0, time=64),
    Message('note_on', channel=9, note=42, velocity=0, time=0),
    Message('note_on', channel=9, note=42, velocity=127, time=0),
    Message('note_on', channel=9, note=42, velocity=0, time=64),
    Message('note_on', channel=9, note=42, velocity=127, time=0),
    Message('note_on', channel=9, note=42, velocity=0, time=64),
    Message('note_on', channel=9, note=42, velocity=127, time=0),
    Message('note_on', channel=9, note=37, velocity=127, time=0),
    Message('note_on', channel=9, note=42, velocity=0, time=64),
    Message('note_on', channel=9, note=37, velocity=0, time=0),
    Message('note_on', channel=9, note=42, velocity=127, time=0),
    Message('note_on', channel=9, note=42, velocity=0, time=64),
    Message('note_on', channel=9, note=35, velocity=127, time=0),
    Message('note_on', channel=9, note=42, velocity=127, time=0),
    Message('note_on', channel=9, note=35, velocity=0, time=64),
    Message('note_on', channel=9, note=42, velocity=0, time=0),
    Message('note_on', channel=9, note=35, velocity=127, time=0),
    Message('note_on', channel=9, note=42, velocity=127, time=0),
    Message('note_on', channel=9, note=35, velocity=0, time=64),
    Message('note_on', channel=9, note=42, velocity=0, time=0),
    Message('note_on', channel=9, note=42, velocity=127, time=0),
    Message('note_on', channel=9, note=42, velocity=0, time=64),
    Message('note_on', channel=9, note=42, velocity=127, time=0),
    Message('note_on', channel=9, note=42, velocity=0, time=64),
    Message('note_on', channel=9, note=42, velocity=127, time=0),
    Message('note_on', channel=9, note=37, velocity=127, time=0),
    Message('note_on', channel=9, note=42, velocity=0, time=64),
    Message('note_on', channel=9, note=37, velocity=0, time=0),
    Message('note_on', channel=9, note=42, velocity=127, time=0),
    Message('note_on', channel=9, note=42, velocity=0, time=64),
    Message('note_on', channel=9, note=35, velocity=127, time=0),
    Message('note_on', channel=9, note=42, velocity=127, time=0),
    Message('note_on', channel=9, note=35, velocity=0, time=64),
    Message('note_on', channel=9, note=42, velocity=0, time=0),
    Message('note_on', channel=9, note=35, velocity=127, time=0),
    Message('note_on', channel=9, note=42, velocity=127, time=0),
    Message('note_on', channel=9, note=35, velocity=0, time=64),
    Message('note_on', channel=9, note=42, velocity=0, time=0),
    Message('note_on', channel=9, note=42, velocity=127, time=0),
    Message('note_on', channel=9, note=42, velocity=0, time=64),
    Message('note_on', channel=9, note=35, velocity=127, time=0),
    Message('note_on', channel=9, note=42, velocity=127, time=0),
    Message('note_on', channel=9, note=35, velocity=0, time=64),
    Message('note_on', channel=9, note=42, velocity=0, time=0),
    Message('note_on', channel=9, note=42, velocity=127, time=0),
    Message('note_on', channel=9, note=37, velocity=127, time=0),
    Message('note_on', channel=9, note=42, velocity=0, time=64),
    Message('note_on', channel=9, note=37, velocity=0, time=0),
    Message('note_on', channel=9, note=35, velocity=127, time=0),
    Message('note_on', channel=9, note=42, velocity=127, time=0),
    Message('note_on', channel=9, note=35, velocity=0, time=64),
    Message('note_on', channel=9, note=42, velocity=0, time=0),
    Message('note_on', channel=9, note=35, velocity=127, time=0),
    Message('note_on', channel=9, note=42, velocity=127, time=0),
    Message('note_on', channel=9, note=35, velocity=0, time=64),
    Message('note_on', channel=9, note=42, velocity=0, time=0),
    Message('note_on', channel=9, note=35, velocity=127, time=0),
    Message('note_on', channel=9, note=42, velocity=127, time=0),
    Message('note_on', channel=9, note=35, velocity=0, time=64),
    Message('note_on', channel=9, note=42, velocity=0, time=0),
    Message('note_on', channel=9, note=42, velocity=127, time=0),
    Message('note_on', channel=9, note=42, velocity=0, time=64),
    Message('note_on', channel=9, note=42, velocity=127, time=0),
    Message('note_on', channel=9, note=42, velocity=0, time=64),
    Message('note_on', channel=9, note=42, velocity=127, time=0),
    Message('note_on', channel=9, note=37, velocity=127, time=0),
    Message('note_on', channel=9, note=42, velocity=0, time=64),
    Message('note_on', channel=9, note=37, velocity=0, time=0),
    Message('note_on', channel=9, note=42, velocity=127, time=0),
    Message('note_on', channel=9, note=42, velocity=0, time=64),
    Message('note_on', channel=9, note=35, velocity=127, time=0),
    Message('note_on', channel=9, note=42, velocity=127, time=0),
    Message('note_on', channel=9, note=35, velocity=0, time=64),
    Message('note_on', channel=9, note=42, velocity=0, time=0),
    Message('note_on', channel=9, note=35, velocity=127, time=0),
    Message('note_on', channel=9, note=42, velocity=127, time=0),
    Message('note_on', channel=9, note=35, velocity=0, time=64),
    Message('note_on', channel=9, note=42, velocity=0, time=0),
    Message('note_on', channel=9, note=42, velocity=127, time=0),
    Message('note_on', channel=9, note=42, velocity=0, time=64),
    Message('note_on', channel=9, note=42, velocity=127, time=0),
    Message('note_on', channel=9, note=42, velocity=0, time=64),
    Message('note_on', channel=9, note=42, velocity=127, time=0),
    Message('note_on', channel=9, note=37, velocity=127, time=0),
    Message('note_on', channel=9, note=42, velocity=0, time=64),
    Message('note_on', channel=9, note=37, velocity=0, time=0),
    Message('note_on', channel=9, note=42, velocity=127, time=0),
    Message('note_on', channel=9, note=42, velocity=0, time=64),
    Message('note_on', channel=9, note=35, velocity=127, time=0),
    Message('note_on', channel=9, note=42, velocity=127, time=0),
    Message('note_on', channel=9, note=35, velocity=0, time=64),
    Message('note_on', channel=9, note=42, velocity=0, time=0),
    Message('note_on', channel=9, note=35, velocity=127, time=0),
    Message('note_on', channel=9, note=42, velocity=127, time=0),
    Message('note_on', channel=9, note=35, velocity=0, time=64),
    Message('note_on', channel=9, note=42, velocity=0, time=0),
    Message('note_on', channel=9, note=42, velocity=127, time=0),
    Message('note_on', channel=9, note=42, velocity=0, time=64),
    Message('note_on', channel=9, note=42, velocity=127, time=0),
    Message('note_on', channel=9, note=42, velocity=0, time=64),
    Message('note_on', channel=9, note=42, velocity=127, time=0),
    Message('note_on', channel=9, note=37, velocity=127, time=0),
    Message('note_on', channel=9, note=42, velocity=0, time=64),
    Message('note_on', channel=9, note=37, velocity=0, time=0),
    Message('note_on', channel=9, note=42, velocity=127, time=0),
    Message('note_on', channel=9, note=42, velocity=0, time=64),
    Message('note_on', channel=9, note=35, velocity=127, time=0),
    Message('note_on', channel=9, note=42, velocity=127, time=0),
    Message('note_on', channel=9, note=35, velocity=0, time=64),
    Message('note_on', channel=9, note=42, velocity=0, time=0),
    Message('note_on', channel=9, note=35, velocity=127, time=0),
    Message('note_on', channel=9, note=42, velocity=127, time=0),
    Message('note_on', channel=9, note=35, velocity=0, time=64),
    Message('note_on', channel=9, note=42, velocity=0, time=0),
    Message('note_on', channel=9, note=42, velocity=127, time=0),
    Message('note_on', channel=9, note=42, velocity=0, time=64),
    Message('note_on', channel=9, note=35, velocity=127, time=0),
    Message('note_on', channel=9, note=42, velocity=127, time=0),
    Message('note_on', channel=9, note=35, velocity=0, time=64),
    Message('note_on', channel=9, note=42, velocity=0, time=0),
    Message('note_on', channel=9, note=42, velocity=127, time=0),
    Message('note_on', channel=9, note=37, velocity=127, time=0),
    Message('note_on', channel=9, note=42, velocity=0, time=64),
    Message('note_on', channel=9, note=37, velocity=0, time=0),
    Message('note_on', channel=9, note=35, velocity=127, time=0),
    Message('note_on', channel=9, note=42, velocity=127, time=0),
    Message('note_on', channel=9, note=35, velocity=0, time=64),
    Message('note_on', channel=9, note=42, velocity=0, time=0),
    Message('note_on', channel=9, note=35, velocity=127, time=0),
    Message('note_on', channel=9, note=42, velocity=127, time=0),
    Message('note_on', channel=9, note=35, velocity=0, time=64),
    Message('note_on', channel=9, note=42, velocity=0, time=0),
    Message('note_on', channel=9, note=35, velocity=127, time=0),
    Message('note_on', channel=9, note=42, velocity=127, time=0),
    Message('note_on', channel=9, note=35, velocity=0, time=64),
    Message('note_on', channel=9, note=42, velocity=0, time=0),
    Message('note_on', channel=9, note=42, velocity=127, time=0),
    Message('note_on', channel=9, note=42, velocity=0, time=64),
    Message('note_on', channel=9, note=42, velocity=127, time=0),
    Message('note_on', channel=9, note=42, velocity=0, time=64),
    Message('note_on', channel=9, note=42, velocity=127, time=0),
    Message('note_on', channel=9, note=37, velocity=127, time=0),
    Message('note_on', channel=9, note=42, velocity=0, time=64),
    Message('note_on', channel=9, note=37, velocity=0, time=0),
    Message('note_on', channel=9, note=42, velocity=127, time=0),
    Message('note_on', channel=9, note=42, velocity=0, time=64),
    Message('note_on', channel=9, note=35, velocity=127, time=0),
    Message('note_on', channel=9, note=42, velocity=127, time=0),
    Message('note_on', channel=9, note=35, velocity=0, time=64),
    Message('note_on', channel=9, note=42, velocity=0, time=0),
    Message('note_on', channel=9, note=35, velocity=127, time=0),
    Message('note_on', channel=9, note=42, velocity=127, time=0),
    Message('note_on', channel=9, note=35, velocity=0, time=64),
    Message('note_on', channel=9, note=42, velocity=0, time=0),
    Message('note_on', channel=9, note=42, velocity=127, time=0),
    Message('note_on', channel=9, note=42, velocity=0, time=64),
    Message('note_on', channel=9, note=42, velocity=127, time=0),
    Message('note_on', channel=9, note=42, velocity=0, time=64),
    Message('note_on', channel=9, note=42, velocity=127, time=0),
    Message('note_on', channel=9, note=37, velocity=127, time=0),
    Message('note_on', channel=9, note=42, velocity=0, time=64),
    Message('note_on', channel=9, note=37, velocity=0, time=0),
    Message('note_on', channel=9, note=42, velocity=127, time=0),
    Message('note_on', channel=9, note=42, velocity=0, time=64),
    Message('note_on', channel=9, note=35, velocity=127, time=0),
    Message('note_on', channel=9, note=42, velocity=127, time=0),
    Message('note_on', channel=9, note=35, velocity=0, time=64),
    Message('note_on', channel=9, note=42, velocity=0, time=0),
    Message('note_on', channel=9, note=35, velocity=127, time=0),
    Message('note_on', channel=9, note=42, velocity=127, time=0),
    Message('note_on', channel=9, note=35, velocity=0, time=64),
    Message('note_on', channel=9, note=42, velocity=0, time=0),
    Message('note_on', channel=9, note=42, velocity=127, time=0),
    Message('note_on', channel=9, note=42, velocity=0, time=64),
    Message('note_on', channel=9, note=42, velocity=127, time=0),
    Message('note_on', channel=9, note=42, velocity=0, time=64),
    Message('note_on', channel=9, note=42, velocity=127, time=0),
    Message('note_on', channel=9, note=37, velocity=127, time=0),
    Message('note_on', channel=9, note=42, velocity=0, time=64),
    Message('note_on', channel=9, note=37, velocity=0, time=0),
    Message('note_on', channel=9, note=42, velocity=127, time=0),
    Message('note_on', channel=9, note=42, velocity=0, time=64),
    Message('note_on', channel=9, note=35, velocity=127, time=0),
    Message('note_on', channel=9, note=42, velocity=127, time=0),
    Message('note_on', channel=9, note=35, velocity=0, time=64),
    Message('note_on', channel=9, note=42, velocity=0, time=0),
    Message('note_on', channel=9, note=35, velocity=127, time=0),
    Message('note_on', channel=9, note=42, velocity=127, time=0),
    Message('note_on', channel=9, note=35, velocity=0, time=64),
    Message('note_on', channel=9, note=42, velocity=0, time=0),
    Message('note_on', channel=9, note=42, velocity=127, time=0),
    Message('note_on', channel=9, note=42, velocity=0, time=64),
    Message('note_on', channel=9, note=35, velocity=127, time=0),
    Message('note_on', channel=9, note=42, velocity=127, time=0),
    Message('note_on', channel=9, note=35, velocity=0, time=64),
    Message('note_on', channel=9, note=42, velocity=0, time=0),
    Message('note_on', channel=9, note=42, velocity=127, time=0),
    Message('note_on', channel=9, note=37, velocity=127, time=0),
    Message('note_on', channel=9, note=42, velocity=0, time=64),
    Message('note_on', channel=9, note=37, velocity=0, time=0),
    Message('note_on', channel=9, note=35, velocity=127, time=0),
    Message('note_on', channel=9, note=42, velocity=127, time=0),
    Message('note_on', channel=9, note=35, velocity=0, time=64),
    Message('note_on', channel=9, note=42, velocity=0, time=0),
    Message('note_on', channel=9, note=35, velocity=127, time=0),
    Message('note_on', channel=9, note=46, velocity=127, time=0),
    Message('note_on', channel=9, note=35, velocity=0, time=64),
    Message('note_on', channel=9, note=46, velocity=0, time=0),
    Message('note_on', channel=9, note=35, velocity=127, time=0),
    Message('note_on', channel=9, note=42, velocity=127, time=0),
    Message('note_on', channel=9, note=35, velocity=0, time=64),
    Message('note_on', channel=9, note=42, velocity=0, time=0),
    Message('note_on', channel=9, note=42, velocity=127, time=0),
    Message('note_on', channel=9, note=42, velocity=0, time=64),
    Message('note_on', channel=9, note=42, velocity=127, time=0),
    Message('note_on', channel=9, note=42, velocity=0, time=64),
    Message('note_on', channel=9, note=42, velocity=127, time=0),
    Message('note_on', channel=9, note=37, velocity=127, time=0),
    Message('note_on', channel=9, note=42, velocity=0, time=64),
    Message('note_on', channel=9, note=37, velocity=0, time=0),
    Message('note_on', channel=9, note=42, velocity=127, time=0),
    Message('note_on', channel=9, note=42, velocity=0, time=64),
    Message('note_on', channel=9, note=35, velocity=127, time=0),
    Message('note_on', channel=9, note=42, velocity=127, time=0),
    Message('note_on', channel=9, note=35, velocity=0, time=64),
    Message('note_on', channel=9, note=42, velocity=0, time=0),
    Message('note_on', channel=9, note=35, velocity=127, time=0),
    Message('note_on', channel=9, note=42, velocity=127, time=0),
    Message('note_on', channel=9, note=35, velocity=0, time=64),
    Message('note_on', channel=9, note=42, velocity=0, time=0),
    Message('note_on', channel=9, note=42, velocity=127, time=0),
    Message('note_on', channel=9, note=42, velocity=0, time=64),
    Message('note_on', channel=9, note=42, velocity=127, time=0),
    Message('note_on', channel=9, note=42, velocity=0, time=64),
    Message('note_on', channel=9, note=42, velocity=127, time=0),
    Message('note_on', channel=9, note=37, velocity=127, time=0),
    Message('note_on', channel=9, note=42, velocity=0, time=64),
    Message('note_on', channel=9, note=37, velocity=0, time=0),
    Message('note_on', channel=9, note=42, velocity=127, time=0),
    Message('note_on', channel=9, note=42, velocity=0, time=64),
    Message('note_on', channel=9, note=35, velocity=127, time=0),
    Message('note_on', channel=9, note=42, velocity=127, time=0),
    Message('note_on', channel=9, note=35, velocity=0, time=64),
    Message('note_on', channel=9, note=42, velocity=0, time=0),
    Message('note_on', channel=9, note=35, velocity=127, time=0),
    Message('note_on', channel=9, note=42, velocity=127, time=0),
    Message('note_on', channel=9, note=35, velocity=0, time=64),
    Message('note_on', channel=9, note=42, velocity=0, time=0),
    Message('note_on', channel=9, note=42, velocity=127, time=0),
    Message('note_on', channel=9, note=42, velocity=0, time=64),
    Message('note_on', channel=9, note=42, velocity=127, time=0),
    Message('note_on', channel=9, note=42, velocity=0, time=64),
    Message('note_on', channel=9, note=42, velocity=127, time=0),
    Message('note_on', channel=9, note=37, velocity=127, time=0),
    Message('note_on', channel=9, note=42, velocity=0, time=64),
    Message('note_on', channel=9, note=37, velocity=0, time=0),
    Message('note_on', channel=9, note=42, velocity=127, time=0),
    Message('note_on', channel=9, note=42, velocity=0, time=64),
    Message('note_on', channel=9, note=35, velocity=127, time=0),
    Message('note_on', channel=9, note=42, velocity=127, time=0),
    Message('note_on', channel=9, note=35, velocity=0, time=64),
    Message('note_on', channel=9, note=42, velocity=0, time=0),
    Message('note_on', channel=9, note=35, velocity=127, time=0),
    Message('note_on', channel=9, note=42, velocity=127, time=0),
    Message('note_on', channel=9, note=35, velocity=0, time=64),
    Message('note_on', channel=9, note=42, velocity=0, time=0),
    Message('note_on', channel=9, note=42, velocity=127, time=0),
    Message('note_on', channel=9, note=42, velocity=0, time=64),
    Message('note_on', channel=9, note=35, velocity=127, time=0),
    Message('note_on', channel=9, note=42, velocity=127, time=0),
    Message('note_on', channel=9, note=35, velocity=0, time=64),
    Message('note_on', channel=9, note=42, velocity=0, time=0),
    Message('note_on', channel=9, note=42, velocity=127, time=0),
    Message('note_on', channel=9, note=37, velocity=127, time=0),
    Message('note_on', channel=9, note=42, velocity=0, time=64),
    Message('note_on', channel=9, note=37, velocity=0, time=0),
    Message('note_on', channel=9, note=35, velocity=127, time=0),
    Message('note_on', channel=9, note=42, velocity=127, time=0),
    Message('note_on', channel=9, note=35, velocity=0, time=64),
    Message('note_on', channel=9, note=42, velocity=0, time=0),
    Message('note_on', channel=9, note=35, velocity=127, time=0),
    Message('note_on', channel=9, note=42, velocity=127, time=0),
    Message('note_on', channel=9, note=35, velocity=0, time=64),
    Message('note_on', channel=9, note=42, velocity=0, time=0),
    Message('note_on', channel=9, note=35, velocity=127, time=0),
    Message('note_on', channel=9, note=42, velocity=127, time=0),
    Message('note_on', channel=9, note=35, velocity=0, time=64),
    Message('note_on', channel=9, note=42, velocity=0, time=0),
    Message('note_on', channel=9, note=42, velocity=127, time=0),
    Message('note_on', channel=9, note=42, velocity=0, time=64),
    Message('note_on', channel=9, note=42, velocity=127, time=0),
    Message('note_on', channel=9, note=42, velocity=0, time=64),
    Message('note_on', channel=9, note=42, velocity=127, time=0),
    Message('note_on', channel=9, note=37, velocity=127, time=0),
    Message('note_on', channel=9, note=42, velocity=0, time=64),
    Message('note_on', channel=9, note=37, velocity=0, time=0),
    Message('note_on', channel=9, note=42, velocity=127, time=0),
    Message('note_on', channel=9, note=42, velocity=0, time=64),
    Message('note_on', channel=9, note=35, velocity=127, time=0),
    Message('note_on', channel=9, note=42, velocity=127, time=0),
    Message('note_on', channel=9, note=35, velocity=0, time=64),
    Message('note_on', channel=9, note=42, velocity=0, time=0),
    Message('note_on', channel=9, note=35, velocity=127, time=0),
    Message('note_on', channel=9, note=42, velocity=127, time=0),
    Message('note_on', channel=9, note=35, velocity=0, time=64),
    Message('note_on', channel=9, note=42, velocity=0, time=0),
    Message('note_on', channel=9, note=42, velocity=127, time=0),
    Message('note_on', channel=9, note=42, velocity=0, time=64),
    Message('note_on', channel=9, note=42, velocity=127, time=0),
    Message('note_on', channel=9, note=42, velocity=0, time=64),
    Message('note_on', channel=9, note=42, velocity=127, time=0),
    Message('note_on', channel=9, note=37, velocity=127, time=0),
    Message('note_on', channel=9, note=42, velocity=0, time=64),
    Message('note_on', channel=9, note=37, velocity=0, time=0),
    Message('note_on', channel=9, note=42, velocity=127, time=0),
    Message('note_on', channel=9, note=42, velocity=0, time=64),
    Message('note_on', channel=9, note=35, velocity=127, time=0),
    Message('note_on', channel=9, note=42, velocity=127, time=0),
    Message('note_on', channel=9, note=35, velocity=0, time=64),
    Message('note_on', channel=9, note=42, velocity=0, time=0),
    Message('note_on', channel=9, note=35, velocity=127, time=0),
    Message('note_on', channel=9, note=42, velocity=127, time=0),
    Message('note_on', channel=9, note=35, velocity=0, time=64),
    Message('note_on', channel=9, note=42, velocity=0, time=0),
    Message('note_on', channel=9, note=42, velocity=127, time=0),
    Message('note_on', channel=9, note=42, velocity=0, time=64),
    Message('note_on', channel=9, note=42, velocity=127, time=0),
    Message('note_on', channel=9, note=42, velocity=0, time=64),
    Message('note_on', channel=9, note=42, velocity=127, time=0),
    Message('note_on', channel=9, note=37, velocity=127, time=0),
    Message('note_on', channel=9, note=42, velocity=0, time=64),
    Message('note_on', channel=9, note=37, velocity=0, time=0),
    Message('note_on', channel=9, note=42, velocity=127, time=0),
    Message('note_on', channel=9, note=42, velocity=0, time=64),
    Message('note_on', channel=9, note=35, velocity=127, time=0),
    Message('note_on', channel=9, note=42, velocity=127, time=0),
    Message('note_on', channel=9, note=35, velocity=0, time=64),
    Message('note_on', channel=9, note=42, velocity=0, time=0),
    Message('note_on', channel=9, note=35, velocity=127, time=0),
    Message('note_on', channel=9, note=42, velocity=127, time=0),
    Message('note_on', channel=9, note=35, velocity=0, time=64),
    Message('note_on', channel=9, note=42, velocity=0, time=0),
    Message('note_on', channel=9, note=42, velocity=127, time=0),
    Message('note_on', channel=9, note=42, velocity=0, time=64),
    Message('note_on', channel=9, note=35, velocity=127, time=0),
    Message('note_on', channel=9, note=42, velocity=127, time=0),
    Message('note_on', channel=9, note=35, velocity=0, time=64),
    Message('note_on', channel=9, note=42, velocity=0, time=0),
    Message('note_on', channel=9, note=42, velocity=127, time=0),
    Message('note_on', channel=9, note=37, velocity=127, time=0),
    Message('note_on', channel=9, note=42, velocity=0, time=64),
    Message('note_on', channel=9, note=37, velocity=0, time=0),
    Message('note_on', channel=9, note=35, velocity=127, time=0),
    Message('note_on', channel=9, note=42, velocity=127, time=0),
    Message('note_on', channel=9, note=35, velocity=0, time=64),
    Message('note_on', channel=9, note=42, velocity=0, time=0),
    Message('note_on', channel=9, note=35, velocity=127, time=0),
    Message('note_on', channel=9, note=42, velocity=127, time=0),
    Message('note_on', channel=9, note=35, velocity=0, time=64),
    Message('note_on', channel=9, note=42, velocity=0, time=0),
    Message('note_on', channel=9, note=35, velocity=127, time=0),
    Message('note_on', channel=9, note=42, velocity=127, time=0),
    Message('note_on', channel=9, note=35, velocity=0, time=64),
    Message('note_on', channel=9, note=42, velocity=0, time=0),
    Message('note_on', channel=9, note=42, velocity=127, time=0),
    Message('note_on', channel=9, note=42, velocity=0, time=64),
    Message('note_on', channel=9, note=42, velocity=127, time=0),
    Message('note_on', channel=9, note=42, velocity=0, time=64),
    Message('note_on', channel=9, note=42, velocity=127, time=0),
    Message('note_on', channel=9, note=37, velocity=127, time=0),
    Message('note_on', channel=9, note=42, velocity=0, time=64),
    Message('note_on', channel=9, note=37, velocity=0, time=0),
    Message('note_on', channel=9, note=42, velocity=127, time=0),
    Message('note_on', channel=9, note=42, velocity=0, time=64),
    Message('note_on', channel=9, note=35, velocity=127, time=0),
    Message('note_on', channel=9, note=42, velocity=127, time=0),
    Message('note_on', channel=9, note=35, velocity=0, time=64),
    Message('note_on', channel=9, note=42, velocity=0, time=0),
    Message('note_on', channel=9, note=35, velocity=127, time=0),
    Message('note_on', channel=9, note=42, velocity=127, time=0),
    Message('note_on', channel=9, note=35, velocity=0, time=64),
    Message('note_on', channel=9, note=42, velocity=0, time=0),
    Message('note_on', channel=9, note=42, velocity=127, time=0),
    Message('note_on', channel=9, note=42, velocity=0, time=64),
    Message('note_on', channel=9, note=42, velocity=127, time=0),
    Message('note_on', channel=9, note=42, velocity=0, time=64),
    Message('note_on', channel=9, note=42, velocity=127, time=0),
    Message('note_on', channel=9, note=37, velocity=127, time=0),
    Message('note_on', channel=9, note=42, velocity=0, time=64),
    Message('note_on', channel=9, note=37, velocity=0, time=0),
    Message('note_on', channel=9, note=42, velocity=127, time=0),
    Message('note_on', channel=9, note=42, velocity=0, time=64),
    Message('note_on', channel=9, note=35, velocity=127, time=0),
    Message('note_on', channel=9, note=42, velocity=127, time=0),
    Message('note_on', channel=9, note=35, velocity=0, time=64),
    Message('note_on', channel=9, note=42, velocity=0, time=0),
    Message('note_on', channel=9, note=35, velocity=127, time=0),
    Message('note_on', channel=9, note=42, velocity=127, time=0),
    Message('note_on', channel=9, note=35, velocity=0, time=64),
    Message('note_on', channel=9, note=42, velocity=0, time=0),
    Message('note_on', channel=9, note=42, velocity=127, time=0),
    Message('note_on', channel=9, note=42, velocity=0, time=64),
    Message('note_on', channel=9, note=42, velocity=127, time=0),
    Message('note_on', channel=9, note=42, velocity=0, time=64),
    Message('note_on', channel=9, note=42, velocity=127, time=0),
    Message('note_on', channel=9, note=37, velocity=127, time=0),
    Message('note_on', channel=9, note=42, velocity=0, time=64),
    Message('note_on', channel=9, note=37, velocity=0, time=0),
    Message('note_on', channel=9, note=42, velocity=127, time=0),
    Message('note_on', channel=9, note=42, velocity=0, time=64),
    Message('note_on', channel=9, note=35, velocity=127, time=0),
    Message('note_on', channel=9, note=42, velocity=127, time=0),
    Message('note_on', channel=9, note=35, velocity=0, time=64),
    Message('note_on', channel=9, note=42, velocity=0, time=0),
    Message('note_on', channel=9, note=35, velocity=127, time=0),
    Message('note_on', channel=9, note=42, velocity=127, time=0),
    Message('note_on', channel=9, note=35, velocity=0, time=64),
    Message('note_on', channel=9, note=42, velocity=0, time=0),
    Message('note_on', channel=9, note=42, velocity=127, time=0),
    Message('note_on', channel=9, note=42, velocity=0, time=64),
    Message('note_on', channel=9, note=35, velocity=127, time=0),
    Message('note_on', channel=9, note=42, velocity=127, time=0),
    Message('note_on', channel=9, note=35, velocity=0, time=64),
    Message('note_on', channel=9, note=42, velocity=0, time=0),
    Message('note_on', channel=9, note=42, velocity=127, time=0),
    Message('note_on', channel=9, note=37, velocity=127, time=0),
    Message('note_on', channel=9, note=42, velocity=0, time=64),
    Message('note_on', channel=9, note=37, velocity=0, time=0),
    Message('note_on', channel=9, note=35, velocity=127, time=0),
    Message('note_on', channel=9, note=42, velocity=127, time=0),
    Message('note_on', channel=9, note=35, velocity=0, time=64),
    Message('note_on', channel=9, note=42, velocity=0, time=0),
    Message('note_on', channel=9, note=35, velocity=127, time=0),
    Message('note_on', channel=9, note=46, velocity=127, time=0),
    Message('note_on', channel=9, note=35, velocity=0, time=64),
    Message('note_on', channel=9, note=46, velocity=0, time=0),
    Message('note_on', channel=9, note=35, velocity=127, time=0),
    Message('note_on', channel=9, note=38, velocity=127, time=0),
    Message('note_on', channel=9, note=42, velocity=127, time=0),
    Message('note_on', channel=9, note=51, velocity=127, time=0),
    Message('note_on', channel=9, note=35, velocity=0, time=64),
    Message('note_on', channel=9, note=38, velocity=0, time=0),
    Message('note_on', channel=9, note=42, velocity=0, time=0),
    Message('note_on', channel=9, note=51, velocity=0, time=0),
    Message('note_on', channel=9, note=38, velocity=127, time=0),
    Message('note_on', channel=9, note=42, velocity=127, time=0),
    Message('note_on', channel=9, note=38, velocity=0, time=64),
    Message('note_on', channel=9, note=42, velocity=0, time=0),
    Message('note_on', channel=9, note=38, velocity=127, time=0),
    Message('note_on', channel=9, note=42, velocity=127, time=0),
    Message('note_on', channel=9, note=38, velocity=0, time=64),
    Message('note_on', channel=9, note=42, velocity=0, time=0),
    Message('note_on', channel=9, note=38, velocity=127, time=0),
    Message('note_on', channel=9, note=42, velocity=127, time=0),
    Message('note_on', channel=9, note=37, velocity=127, time=0),
    Message('note_on', channel=9, note=38, velocity=0, time=64),
    Message('note_on', channel=9, note=42, velocity=0, time=0),
    Message('note_on', channel=9, note=37, velocity=0, time=0),
    Message('note_on', channel=9, note=38, velocity=127, time=0),
    Message('note_on', channel=9, note=42, velocity=127, time=0),
    Message('note_on', channel=9, note=38, velocity=0, time=64),
    Message('note_on', channel=9, note=42, velocity=0, time=0),
    Message('note_on', channel=9, note=35, velocity=127, time=0),
    Message('note_on', channel=9, note=38, velocity=127, time=0),
    Message('note_on', channel=9, note=42, velocity=127, time=0),
    Message('note_on', channel=9, note=35, velocity=0, time=64),
    Message('note_on', channel=9, note=38, velocity=0, time=0),
    Message('note_on', channel=9, note=42, velocity=0, time=0),
    Message('note_on', channel=9, note=35, velocity=127, time=0),
    Message('note_on', channel=9, note=38, velocity=127, time=0),
    Message('note_on', channel=9, note=42, velocity=127, time=0),
    Message('note_on', channel=9, note=35, velocity=0, time=64),
    Message('note_on', channel=9, note=38, velocity=0, time=0),
    Message('note_on', channel=9, note=42, velocity=0, time=0),
    Message('note_on', channel=9, note=38, velocity=127, time=0),
    Message('note_on', channel=9, note=42, velocity=127, time=0),
    Message('note_on', channel=9, note=38, velocity=0, time=64),
    Message('note_on', channel=9, note=42, velocity=0, time=0),
    Message('note_on', channel=9, note=38, velocity=127, time=0),
    Message('note_on', channel=9, note=42, velocity=127, time=0),
    Message('note_on', channel=9, note=38, velocity=0, time=64),
    Message('note_on', channel=9, note=42, velocity=0, time=0),
    Message('note_on', channel=9, note=38, velocity=127, time=0),
    Message('note_on', channel=9, note=42, velocity=127, time=0),
    Message('note_on', channel=9, note=37, velocity=127, time=0),
    Message('note_on', channel=9, note=38, velocity=0, time=64),
    Message('note_on', channel=9, note=42, velocity=0, time=0),
    Message('note_on', channel=9, note=37, velocity=0, time=0),
    Message('note_on', channel=9, note=38, velocity=127, time=0),
    Message('note_on', channel=9, note=42, velocity=127, time=0),
    Message('note_on', channel=9, note=38, velocity=0, time=64),
    Message('note_on', channel=9, note=42, velocity=0, time=0),
    Message('note_on', channel=9, note=35, velocity=127, time=0),
    Message('note_on', channel=9, note=38, velocity=127, time=0),
    Message('note_on', channel=9, note=42, velocity=127, time=0),
    Message('note_on', channel=9, note=35, velocity=0, time=64),
    Message('note_on', channel=9, note=38, velocity=0, time=0),
    Message('note_on', channel=9, note=42, velocity=0, time=0),
    Message('note_on', channel=9, note=35, velocity=127, time=0),
    Message('note_on', channel=9, note=38, velocity=127, time=0),
    Message('note_on', channel=9, note=42, velocity=127, time=0),
    Message('note_on', channel=9, note=49, velocity=127, time=0),
    Message('note_on', channel=9, note=35, velocity=0, time=64),
    Message('note_on', channel=9, note=38, velocity=0, time=0),
    Message('note_on', channel=9, note=42, velocity=0, time=0),
    Message('note_on', channel=9, note=49, velocity=0, time=0),
    Message('note_on', channel=9, note=38, velocity=127, time=0),
    Message('note_on', channel=9, note=42, velocity=127, time=0),
    Message('note_on', channel=9, note=51, velocity=127, time=0),
    Message('note_on', channel=9, note=38, velocity=0, time=64),
    Message('note_on', channel=9, note=42, velocity=0, time=0),
    Message('note_on', channel=9, note=51, velocity=0, time=0),
    Message('note_on', channel=9, note=38, velocity=127, time=0),
    Message('note_on', channel=9, note=42, velocity=127, time=0),
    Message('note_on', channel=9, note=51, velocity=127, time=0),
    Message('note_on', channel=9, note=38, velocity=0, time=64),
    Message('note_on', channel=9, note=42, velocity=0, time=0),
    Message('note_on', channel=9, note=51, velocity=0, time=0),
    Message('note_on', channel=9, note=42, velocity=127, time=0),
    Message('note_on', channel=9, note=49, velocity=127, time=0),
    Message('note_on', channel=9, note=48, velocity=127, time=0),
    Message('note_on', channel=9, note=42, velocity=0, time=64),
    Message('note_on', channel=9, note=49, velocity=0, time=0),
    Message('note_on', channel=9, note=48, velocity=0, time=0),
    Message('note_on', channel=9, note=42, velocity=127, time=0),
    Message('note_on', channel=9, note=51, velocity=127, time=0),
    Message('note_on', channel=9, note=48, velocity=127, time=0),
    Message('note_on', channel=9, note=42, velocity=0, time=64),
    Message('note_on', channel=9, note=51, velocity=0, time=0),
    Message('note_on', channel=9, note=48, velocity=0, time=0),
    Message('note_on', channel=9, note=35, velocity=127, time=0),
    Message('note_on', channel=9, note=42, velocity=127, time=0),
    Message('note_on', channel=9, note=51, velocity=127, time=0),
    Message('note_on', channel=9, note=48, velocity=127, time=0),
    Message('note_on', channel=9, note=35, velocity=0, time=64),
    Message('note_on', channel=9, note=42, velocity=0, time=0),
    Message('note_on', channel=9, note=51, velocity=0, time=0),
    Message('note_on', channel=9, note=48, velocity=0, time=0),
    Message('note_on', channel=9, note=35, velocity=127, time=0),
    Message('note_on', channel=9, note=38, velocity=127, time=0),
    Message('note_on', channel=9, note=42, velocity=127, time=0),
    Message('note_on', channel=9, note=49, velocity=127, time=0),
    Message('note_on', channel=9, note=45, velocity=127, time=0),
    Message('note_on', channel=9, note=35, velocity=0, time=64),
    Message('note_on', channel=9, note=38, velocity=0, time=0),
    Message('note_on', channel=9, note=42, velocity=0, time=0),
    Message('note_on', channel=9, note=49, velocity=0, time=0),
    Message('note_on', channel=9, note=45, velocity=0, time=0),
    Message('note_on', channel=9, note=42, velocity=127, time=0),
    Message('note_on', channel=9, note=51, velocity=127, time=0),
    Message('note_on', channel=9, note=45, velocity=127, time=0),
    Message('note_on', channel=9, note=42, velocity=0, time=64),
    Message('note_on', channel=9, note=51, velocity=0, time=0),
    Message('note_on', channel=9, note=45, velocity=0, time=0),
    Message('note_on', channel=9, note=35, velocity=127, time=0),
    Message('note_on', channel=9, note=42, velocity=127, time=0),
    Message('note_on', channel=9, note=51, velocity=127, time=0),
    Message('note_on', channel=9, note=45, velocity=127, time=0),
    Message('note_on', channel=9, note=35, velocity=0, time=64),
    Message('note_on', channel=9, note=42, velocity=0, time=0),
    Message('note_on', channel=9, note=51, velocity=0, time=0),
    Message('note_on', channel=9, note=45, velocity=0, time=0),
    Message('note_on', channel=9, note=42, velocity=127, time=0),
    Message('note_on', channel=9, note=49, velocity=127, time=0),
    Message('note_on', channel=9, note=41, velocity=127, time=0),
    Message('note_on', channel=9, note=42, velocity=0, time=64),
    Message('note_on', channel=9, note=49, velocity=0, time=0),
    Message('note_on', channel=9, note=41, velocity=0, time=0),
    Message('note_on', channel=9, note=35, velocity=127, time=0),
    Message('note_on', channel=9, note=42, velocity=127, time=0),
    Message('note_on', channel=9, note=51, velocity=127, time=0),
    Message('note_on', channel=9, note=41, velocity=127, time=0),
    Message('note_on', channel=9, note=35, velocity=0, time=64),
    Message('note_on', channel=9, note=42, velocity=0, time=0),
    Message('note_on', channel=9, note=51, velocity=0, time=0),
    Message('note_on', channel=9, note=41, velocity=0, time=0),
    Message('note_on', channel=9, note=35, velocity=127, time=0),
    Message('note_on', channel=9, note=42, velocity=127, time=0),
    Message('note_on', channel=9, note=51, velocity=127, time=0),
    Message('note_on', channel=9, note=41, velocity=127, time=0),
    Message('note_on', channel=9, note=35, velocity=0, time=64),
    Message('note_on', channel=9, note=42, velocity=0, time=0),
    Message('note_on', channel=9, note=51, velocity=0, time=0),
    Message('note_on', channel=9, note=41, velocity=0, time=0),
    Message('note_on', channel=9, note=35, velocity=127, time=0),
    Message('note_on', channel=9, note=38, velocity=127, time=0),
    Message('note_on', channel=9, note=42, velocity=127, time=0),
    Message('note_on', channel=9, note=49, velocity=127, time=0),
    Message('note_on', channel=9, note=41, velocity=127, time=0),
    Message('note_on', channel=9, note=35, velocity=0, time=64),
    Message('note_on', channel=9, note=38, velocity=0, time=0),
    Message('note_on', channel=9, note=42, velocity=0, time=0),
    Message('note_on', channel=9, note=49, velocity=0, time=0),
    Message('note_on', channel=9, note=41, velocity=0, time=0),
    Message('note_on', channel=9, note=38, velocity=127, time=0),
    Message('note_on', channel=9, note=42, velocity=127, time=0),
    Message('note_on', channel=9, note=51, velocity=127, time=0),
    Message('note_on', channel=9, note=38, velocity=0, time=64),
    Message('note_on', channel=9, note=42, velocity=0, time=0),
    Message('note_on', channel=9, note=51, velocity=0, time=0),
    Message('note_on', channel=9, note=38, velocity=127, time=0),
    Message('note_on', channel=9, note=42, velocity=127, time=0),
    Message('note_on', channel=9, note=51, velocity=127, time=0),
    Message('note_on', channel=9, note=38, velocity=0, time=64),
    Message('note_on', channel=9, note=42, velocity=0, time=0),
    Message('note_on', channel=9, note=51, velocity=0, time=0),
    Message('note_on', channel=9, note=38, velocity=127, time=0),
    Message('note_on', channel=9, note=42, velocity=127, time=0),
    Message('note_on', channel=9, note=51, velocity=127, time=0),
    Message('note_on', channel=9, note=38, velocity=0, time=64),
    Message('note_on', channel=9, note=42, velocity=0, time=0),
    Message('note_on', channel=9, note=51, velocity=0, time=0),
    Message('note_on', channel=9, note=42, velocity=127, time=0),
    Message('note_on', channel=9, note=42, velocity=0, time=64),
    Message('note_on', channel=9, note=35, velocity=127, time=0),
    Message('note_on', channel=9, note=42, velocity=127, time=0),
    Message('note_on', channel=9, note=35, velocity=0, time=64),
    Message('note_on', channel=9, note=42, velocity=0, time=0),
    Message('note_on', channel=9, note=35, velocity=127, time=0),
    Message('note_on', channel=9, note=38, velocity=127, time=0),
    Message('note_on', channel=9, note=42, velocity=127, time=0),
    Message('note_on', channel=9, note=51, velocity=127, time=0),
    Message('note_on', channel=9, note=35, velocity=0, time=64),
    Message('note_on', channel=9, note=38, velocity=0, time=0),
    Message('note_on', channel=9, note=42, velocity=0, time=0),
    Message('note_on', channel=9, note=51, velocity=0, time=0),
    Message('note_on', channel=9, note=38, velocity=127, time=0),
    Message('note_on', channel=9, note=42, velocity=127, time=0),
    Message('note_on', channel=9, note=51, velocity=127, time=0),
    Message('note_on', channel=9, note=38, velocity=0, time=64),
    Message('note_on', channel=9, note=42, velocity=0, time=0),
    Message('note_on', channel=9, note=51, velocity=0, time=0),
    Message('note_on', channel=9, note=38, velocity=127, time=0),
    Message('note_on', channel=9, note=42, velocity=127, time=0),
    Message('note_on', channel=9, note=51, velocity=127, time=0),
    Message('note_on', channel=9, note=38, velocity=0, time=64),
    Message('note_on', channel=9, note=42, velocity=0, time=0),
    Message('note_on', channel=9, note=51, velocity=0, time=0),
    Message('note_on', channel=9, note=38, velocity=127, time=0),
    Message('note_on', channel=9, note=42, velocity=127, time=0),
    Message('note_on', channel=9, note=51, velocity=127, time=0),
    Message('note_on', channel=9, note=38, velocity=0, time=64),
    Message('note_on', channel=9, note=42, velocity=0, time=0),
    Message('note_on', channel=9, note=51, velocity=0, time=0),
    Message('note_on', channel=9, note=42, velocity=127, time=0),
    Message('note_on', channel=9, note=42, velocity=0, time=64),
    Message('note_on', channel=9, note=35, velocity=127, time=0),
    Message('note_on', channel=9, note=42, velocity=127, time=0),
    Message('note_on', channel=9, note=35, velocity=0, time=64),
    Message('note_on', channel=9, note=42, velocity=0, time=0),
    Message('note_on', channel=9, note=35, velocity=127, time=0),
    Message('note_on', channel=9, note=38, velocity=127, time=0),
    Message('note_on', channel=9, note=42, velocity=127, time=0),
    Message('note_on', channel=9, note=51, velocity=127, time=0),
    Message('note_on', channel=9, note=35, velocity=0, time=64),
    Message('note_on', channel=9, note=38, velocity=0, time=0),
    Message('note_on', channel=9, note=42, velocity=0, time=0),
    Message('note_on', channel=9, note=51, velocity=0, time=0),
    Message('note_on', channel=9, note=38, velocity=127, time=0),
    Message('note_on', channel=9, note=42, velocity=127, time=0),
    Message('note_on', channel=9, note=51, velocity=127, time=0),
    Message('note_on', channel=9, note=38, velocity=0, time=64),
    Message('note_on', channel=9, note=42, velocity=0, time=0),
    Message('note_on', channel=9, note=51, velocity=0, time=0),
    Message('note_on', channel=9, note=38, velocity=127, time=0),
    Message('note_on', channel=9, note=42, velocity=127, time=0),
    Message('note_on', channel=9, note=51, velocity=127, time=0),
    Message('note_on', channel=9, note=38, velocity=0, time=64),
    Message('note_on', channel=9, note=42, velocity=0, time=0),
    Message('note_on', channel=9, note=51, velocity=0, time=0),
    Message('note_on', channel=9, note=38, velocity=127, time=0),
    Message('note_on', channel=9, note=42, velocity=127, time=0),
    Message('note_on', channel=9, note=51, velocity=127, time=0),
    Message('note_on', channel=9, note=38, velocity=0, time=64),
    Message('note_on', channel=9, note=42, velocity=0, time=0),
    Message('note_on', channel=9, note=51, velocity=0, time=0),
    Message('note_on', channel=9, note=42, velocity=127, time=0),
    Message('note_on', channel=9, note=42, velocity=0, time=64),
    Message('note_on', channel=9, note=35, velocity=127, time=0),
    Message('note_on', channel=9, note=42, velocity=127, time=0),
    Message('note_on', channel=9, note=35, velocity=0, time=64),
    Message('note_on', channel=9, note=42, velocity=0, time=0),
    Message('note_on', channel=9, note=35, velocity=127, time=0),
    Message('note_on', channel=9, note=38, velocity=127, time=0),
    Message('note_on', channel=9, note=42, velocity=127, time=0),
    Message('note_on', channel=9, note=51, velocity=127, time=0),
    Message('note_on', channel=9, note=35, velocity=0, time=64),
    Message('note_on', channel=9, note=38, velocity=0, time=0),
    Message('note_on', channel=9, note=42, velocity=0, time=0),
    Message('note_on', channel=9, note=51, velocity=0, time=0),
    Message('note_on', channel=9, note=38, velocity=127, time=0),
    Message('note_on', channel=9, note=42, velocity=127, time=0),
    Message('note_on', channel=9, note=51, velocity=127, time=0),
    Message('note_on', channel=9, note=38, velocity=0, time=64),
    Message('note_on', channel=9, note=42, velocity=0, time=0),
    Message('note_on', channel=9, note=51, velocity=0, time=0),
    Message('note_on', channel=9, note=35, velocity=127, time=0),
    Message('note_on', channel=9, note=38, velocity=127, time=0),
    Message('note_on', channel=9, note=42, velocity=127, time=0),
    Message('note_on', channel=9, note=51, velocity=127, time=0),
    Message('note_on', channel=9, note=35, velocity=0, time=64),
    Message('note_on', channel=9, note=38, velocity=0, time=0),
    Message('note_on', channel=9, note=42, velocity=0, time=0),
    Message('note_on', channel=9, note=51, velocity=0, time=0),
    Message('note_on', channel=9, note=38, velocity=127, time=0),
    Message('note_on', channel=9, note=42, velocity=127, time=0),
    Message('note_on', channel=9, note=51, velocity=127, time=0),
    Message('note_on', channel=9, note=38, velocity=0, time=64),
    Message('note_on', channel=9, note=42, velocity=0, time=0),
    Message('note_on', channel=9, note=51, velocity=0, time=0),
    Message('note_on', channel=9, note=35, velocity=127, time=0),
    Message('note_on', channel=9, note=42, velocity=127, time=0),
    Message('note_on', channel=9, note=35, velocity=0, time=64),
    Message('note_on', channel=9, note=42, velocity=0, time=0),
    Message('note_on', channel=9, note=35, velocity=127, time=0),
    Message('note_on', channel=9, note=42, velocity=127, time=0),
    Message('note_on', channel=9, note=35, velocity=0, time=64),
    Message('note_on', channel=9, note=42, velocity=0, time=0),
    Message('note_on', channel=9, note=35, velocity=127, time=0),
    Message('note_on', channel=9, note=38, velocity=127, time=0),
    Message('note_on', channel=9, note=42, velocity=127, time=0),
    Message('note_on', channel=9, note=51, velocity=127, time=0),
    Message('note_on', channel=9, note=35, velocity=0, time=64),
    Message('note_on', channel=9, note=38, velocity=0, time=0),
    Message('note_on', channel=9, note=42, velocity=0, time=0),
    Message('note_on', channel=9, note=51, velocity=0, time=0),
    Message('note_on', channel=9, note=38, velocity=127, time=0),
    Message('note_on', channel=9, note=42, velocity=127, time=0),
    Message('note_on', channel=9, note=51, velocity=127, time=0),
    Message('note_on', channel=9, note=38, velocity=0, time=64),
    Message('note_on', channel=9, note=42, velocity=0, time=0),
    Message('note_on', channel=9, note=51, velocity=0, time=0),
    Message('note_on', channel=9, note=38, velocity=127, time=0),
    Message('note_on', channel=9, note=42, velocity=127, time=0),
    Message('note_on', channel=9, note=51, velocity=127, time=0),
    Message('note_on', channel=9, note=38, velocity=0, time=64),
    Message('note_on', channel=9, note=42, velocity=0, time=0),
    Message('note_on', channel=9, note=51, velocity=0, time=0),
    Message('note_on', channel=9, note=38, velocity=127, time=0),
    Message('note_on', channel=9, note=42, velocity=127, time=0),
    Message('note_on', channel=9, note=51, velocity=127, time=0),
    Message('note_on', channel=9, note=38, velocity=0, time=64),
    Message('note_on', channel=9, note=42, velocity=0, time=0),
    Message('note_on', channel=9, note=51, velocity=0, time=0),
    Message('note_on', channel=9, note=42, velocity=127, time=0),
    Message('note_on', channel=9, note=42, velocity=0, time=64),
    Message('note_on', channel=9, note=35, velocity=127, time=0),
    Message('note_on', channel=9, note=42, velocity=127, time=0),
    Message('note_on', channel=9, note=35, velocity=0, time=64),
    Message('note_on', channel=9, note=42, velocity=0, time=0),
    Message('note_on', channel=9, note=35, velocity=127, time=0),
    Message('note_on', channel=9, note=38, velocity=127, time=0),
    Message('note_on', channel=9, note=42, velocity=127, time=0),
    Message('note_on', channel=9, note=51, velocity=127, time=0),
    Message('note_on', channel=9, note=35, velocity=0, time=64),
    Message('note_on', channel=9, note=38, velocity=0, time=0),
    Message('note_on', channel=9, note=42, velocity=0, time=0),
    Message('note_on', channel=9, note=51, velocity=0, time=0),
    Message('note_on', channel=9, note=38, velocity=127, time=0),
    Message('note_on', channel=9, note=42, velocity=127, time=0),
    Message('note_on', channel=9, note=51, velocity=127, time=0),
    Message('note_on', channel=9, note=38, velocity=0, time=64),
    Message('note_on', channel=9, note=42, velocity=0, time=0),
    Message('note_on', channel=9, note=51, velocity=0, time=0),
    Message('note_on', channel=9, note=38, velocity=127, time=0),
    Message('note_on', channel=9, note=42, velocity=127, time=0),
    Message('note_on', channel=9, note=51, velocity=127, time=0),
    Message('note_on', channel=9, note=38, velocity=0, time=64),
    Message('note_on', channel=9, note=42, velocity=0, time=0),
    Message('note_on', channel=9, note=51, velocity=0, time=0),
    Message('note_on', channel=9, note=38, velocity=127, time=0),
    Message('note_on', channel=9, note=42, velocity=127, time=0),
    Message('note_on', channel=9, note=51, velocity=127, time=0),
    Message('note_on', channel=9, note=38, velocity=0, time=64),
    Message('note_on', channel=9, note=42, velocity=0, time=0),
    Message('note_on', channel=9, note=51, velocity=0, time=0),
    Message('note_on', channel=9, note=42, velocity=127, time=0),
    Message('note_on', channel=9, note=42, velocity=0, time=64),
    Message('note_on', channel=9, note=35, velocity=127, time=0),
    Message('note_on', channel=9, note=42, velocity=127, time=0),
    Message('note_on', channel=9, note=35, velocity=0, time=64),
    Message('note_on', channel=9, note=42, velocity=0, time=0),
    Message('note_on', channel=9, note=35, velocity=127, time=0),
    Message('note_on', channel=9, note=38, velocity=127, time=0),
    Message('note_on', channel=9, note=42, velocity=127, time=0),
    Message('note_on', channel=9, note=51, velocity=127, time=0),
    Message('note_on', channel=9, note=35, velocity=0, time=64),
    Message('note_on', channel=9, note=38, velocity=0, time=0),
    Message('note_on', channel=9, note=42, velocity=0, time=0),
    Message('note_on', channel=9, note=51, velocity=0, time=0),
    Message('note_on', channel=9, note=38, velocity=127, time=0),
    Message('note_on', channel=9, note=42, velocity=127, time=0),
    Message('note_on', channel=9, note=51, velocity=127, time=0),
    Message('note_on', channel=9, note=38, velocity=0, time=64),
    Message('note_on', channel=9, note=42, velocity=0, time=0),
    Message('note_on', channel=9, note=51, velocity=0, time=0),
    Message('note_on', channel=9, note=38, velocity=127, time=0),
    Message('note_on', channel=9, note=42, velocity=127, time=0),
    Message('note_on', channel=9, note=51, velocity=127, time=0),
    Message('note_on', channel=9, note=38, velocity=0, time=64),
    Message('note_on', channel=9, note=42, velocity=0, time=0),
    Message('note_on', channel=9, note=51, velocity=0, time=0),
    Message('note_on', channel=9, note=38, velocity=127, time=0),
    Message('note_on', channel=9, note=42, velocity=127, time=0),
    Message('note_on', channel=9, note=51, velocity=127, time=0),
    Message('note_on', channel=9, note=38, velocity=0, time=64),
    Message('note_on', channel=9, note=42, velocity=0, time=0),
    Message('note_on', channel=9, note=51, velocity=0, time=0),
    Message('note_on', channel=9, note=42, velocity=127, time=0),
    Message('note_on', channel=9, note=42, velocity=0, time=64),
    Message('note_on', channel=9, note=35, velocity=127, time=0),
    Message('note_on', channel=9, note=42, velocity=127, time=0),
    Message('note_on', channel=9, note=35, velocity=0, time=64),
    Message('note_on', channel=9, note=42, velocity=0, time=0),
    Message('note_on', channel=9, note=35, velocity=127, time=0),
    Message('note_on', channel=9, note=38, velocity=127, time=0),
    Message('note_on', channel=9, note=42, velocity=127, time=0),
    Message('note_on', channel=9, note=51, velocity=127, time=0),
    Message('note_on', channel=9, note=35, velocity=0, time=64),
    Message('note_on', channel=9, note=38, velocity=0, time=0),
    Message('note_on', channel=9, note=42, velocity=0, time=0),
    Message('note_on', channel=9, note=51, velocity=0, time=0),
    Message('note_on', channel=9, note=38, velocity=127, time=0),
    Message('note_on', channel=9, note=42, velocity=127, time=0),
    Message('note_on', channel=9, note=51, velocity=127, time=0),
    Message('note_on', channel=9, note=38, velocity=0, time=64),
    Message('note_on', channel=9, note=42, velocity=0, time=0),
    Message('note_on', channel=9, note=51, velocity=0, time=0),
    Message('note_on', channel=9, note=35, velocity=127, time=0),
    Message('note_on', channel=9, note=38, velocity=127, time=0),
    Message('note_on', channel=9, note=42, velocity=127, time=0),
    Message('note_on', channel=9, note=51, velocity=127, time=0),
    Message('note_on', channel=9, note=35, velocity=0, time=64),
    Message('note_on', channel=9, note=38, velocity=0, time=0),
    Message('note_on', channel=9, note=42, velocity=0, time=0),
    Message('note_on', channel=9, note=51, velocity=0, time=0),
    Message('note_on', channel=9, note=38, velocity=127, time=0),
    Message('note_on', channel=9, note=42, velocity=127, time=0),
    Message('note_on', channel=9, note=51, velocity=127, time=0),
    Message('note_on', channel=9, note=38, velocity=0, time=64),
    Message('note_on', channel=9, note=42, velocity=0, time=0),
    Message('note_on', channel=9, note=51, velocity=0, time=0),
    Message('note_on', channel=9, note=35, velocity=127, time=0),
    Message('note_on', channel=9, note=42, velocity=127, time=0),
    Message('note_on', channel=9, note=35, velocity=0, time=64),
    Message('note_on', channel=9, note=42, velocity=0, time=0),
    Message('note_on', channel=9, note=35, velocity=127, time=0),
    Message('note_on', channel=9, note=42, velocity=127, time=0),
    Message('note_on', channel=9, note=35, velocity=0, time=64),
    Message('note_on', channel=9, note=42, velocity=0, time=0),
    Message('note_on', channel=9, note=35, velocity=127, time=0),
    Message('note_on', channel=9, note=38, velocity=127, time=0),
    Message('note_on', channel=9, note=42, velocity=127, time=0),
    Message('note_on', channel=9, note=51, velocity=127, time=0),
    Message('note_on', channel=9, note=35, velocity=0, time=64),
    Message('note_on', channel=9, note=38, velocity=0, time=0),
    Message('note_on', channel=9, note=42, velocity=0, time=0),
    Message('note_on', channel=9, note=51, velocity=0, time=0),
    Message('note_on', channel=9, note=38, velocity=127, time=0),
    Message('note_on', channel=9, note=42, velocity=127, time=0),
    Message('note_on', channel=9, note=51, velocity=127, time=0),
    Message('note_on', channel=9, note=38, velocity=0, time=64),
    Message('note_on', channel=9, note=42, velocity=0, time=0),
    Message('note_on', channel=9, note=51, velocity=0, time=0),
    Message('note_on', channel=9, note=38, velocity=127, time=0),
    Message('note_on', channel=9, note=42, velocity=127, time=0),
    Message('note_on', channel=9, note=51, velocity=127, time=0),
    Message('note_on', channel=9, note=38, velocity=0, time=64),
    Message('note_on', channel=9, note=42, velocity=0, time=0),
    Message('note_on', channel=9, note=51, velocity=0, time=0),
    Message('note_on', channel=9, note=38, velocity=127, time=0),
    Message('note_on', channel=9, note=42, velocity=127, time=0),
    Message('note_on', channel=9, note=51, velocity=127, time=0),
    Message('note_on', channel=9, note=38, velocity=0, time=64),
    Message('note_on', channel=9, note=42, velocity=0, time=0),
    Message('note_on', channel=9, note=51, velocity=0, time=0),
    Message('note_on', channel=9, note=42, velocity=127, time=0),
    Message('note_on', channel=9, note=42, velocity=0, time=64),
    Message('note_on', channel=9, note=35, velocity=127, time=0),
    Message('note_on', channel=9, note=42, velocity=127, time=0),
    Message('note_on', channel=9, note=35, velocity=0, time=64),
    Message('note_on', channel=9, note=42, velocity=0, time=0),
    Message('note_on', channel=9, note=35, velocity=127, time=0),
    Message('note_on', channel=9, note=38, velocity=127, time=0),
    Message('note_on', channel=9, note=42, velocity=127, time=0),
    Message('note_on', channel=9, note=51, velocity=127, time=0),
    Message('note_on', channel=9, note=35, velocity=0, time=64),
    Message('note_on', channel=9, note=38, velocity=0, time=0),
    Message('note_on', channel=9, note=42, velocity=0, time=0),
    Message('note_on', channel=9, note=51, velocity=0, time=0),
    Message('note_on', channel=9, note=38, velocity=127, time=0),
    Message('note_on', channel=9, note=42, velocity=127, time=0),
    Message('note_on', channel=9, note=51, velocity=127, time=0),
    Message('note_on', channel=9, note=38, velocity=0, time=64),
    Message('note_on', channel=9, note=42, velocity=0, time=0),
    Message('note_on', channel=9, note=51, velocity=0, time=0),
    Message('note_on', channel=9, note=38, velocity=127, time=0),
    Message('note_on', channel=9, note=42, velocity=127, time=0),
    Message('note_on', channel=9, note=51, velocity=127, time=0),
    Message('note_on', channel=9, note=38, velocity=0, time=64),
    Message('note_on', channel=9, note=42, velocity=0, time=0),
    Message('note_on', channel=9, note=51, velocity=0, time=0),
    Message('note_on', channel=9, note=38, velocity=127, time=0),
    Message('note_on', channel=9, note=42, velocity=127, time=0),
    Message('note_on', channel=9, note=51, velocity=127, time=0),
    Message('note_on', channel=9, note=38, velocity=0, time=64),
    Message('note_on', channel=9, note=42, velocity=0, time=0),
    Message('note_on', channel=9, note=51, velocity=0, time=0),
    Message('note_on', channel=9, note=42, velocity=127, time=0),
    Message('note_on', channel=9, note=42, velocity=0, time=64),
    Message('note_on', channel=9, note=35, velocity=127, time=0),
    Message('note_on', channel=9, note=42, velocity=127, time=0),
    Message('note_on', channel=9, note=35, velocity=0, time=64),
    Message('note_on', channel=9, note=42, velocity=0, time=0),
    Message('note_on', channel=9, note=35, velocity=127, time=0),
    Message('note_on', channel=9, note=38, velocity=127, time=0),
    Message('note_on', channel=9, note=42, velocity=127, time=0),
    Message('note_on', channel=9, note=51, velocity=127, time=0),
    Message('note_on', channel=9, note=35, velocity=0, time=64),
    Message('note_on', channel=9, note=38, velocity=0, time=0),
    Message('note_on', channel=9, note=42, velocity=0, time=0),
    Message('note_on', channel=9, note=51, velocity=0, time=0),
    Message('note_on', channel=9, note=38, velocity=127, time=0),
    Message('note_on', channel=9, note=42, velocity=127, time=0),
    Message('note_on', channel=9, note=51, velocity=127, time=0),
    Message('note_on', channel=9, note=38, velocity=0, time=64),
    Message('note_on', channel=9, note=42, velocity=0, time=0),
    Message('note_on', channel=9, note=51, velocity=0, time=0),
    Message('note_on', channel=9, note=38, velocity=127, time=0),
    Message('note_on', channel=9, note=42, velocity=127, time=0),
    Message('note_on', channel=9, note=51, velocity=127, time=0),
    Message('note_on', channel=9, note=38, velocity=0, time=64),
    Message('note_on', channel=9, note=42, velocity=0, time=0),
    Message('note_on', channel=9, note=51, velocity=0, time=0),
    Message('note_on', channel=9, note=38, velocity=127, time=0),
    Message('note_on', channel=9, note=42, velocity=127, time=0),
    Message('note_on', channel=9, note=51, velocity=127, time=0),
    Message('note_on', channel=9, note=38, velocity=0, time=64),
    Message('note_on', channel=9, note=42, velocity=0, time=0),
    Message('note_on', channel=9, note=51, velocity=0, time=0),
    Message('note_on', channel=9, note=42, velocity=127, time=0),
    Message('note_on', channel=9, note=42, velocity=0, time=64),
    Message('note_on', channel=9, note=35, velocity=127, time=0),
    Message('note_on', channel=9, note=42, velocity=127, time=0),
    Message('note_on', channel=9, note=35, velocity=0, time=64),
    Message('note_on', channel=9, note=42, velocity=0, time=0),
    Message('note_on', channel=9, note=35, velocity=127, time=0),
    Message('note_on', channel=9, note=38, velocity=127, time=0),
    Message('note_on', channel=9, note=42, velocity=127, time=0),
    Message('note_on', channel=9, note=51, velocity=127, time=0),
    Message('note_on', channel=9, note=35, velocity=0, time=64),
    Message('note_on', channel=9, note=38, velocity=0, time=0),
    Message('note_on', channel=9, note=42, velocity=0, time=0),
    Message('note_on', channel=9, note=51, velocity=0, time=0),
    Message('note_on', channel=9, note=38, velocity=127, time=0),
    Message('note_on', channel=9, note=42, velocity=127, time=0),
    Message('note_on', channel=9, note=51, velocity=127, time=0),
    Message('note_on', channel=9, note=38, velocity=0, time=64),
    Message('note_on', channel=9, note=42, velocity=0, time=0),
    Message('note_on', channel=9, note=51, velocity=0, time=0),
    Message('note_on', channel=9, note=35, velocity=127, time=0),
    Message('note_on', channel=9, note=38, velocity=127, time=0),
    Message('note_on', channel=9, note=42, velocity=127, time=0),
    Message('note_on', channel=9, note=51, velocity=127, time=0),
    Message('note_on', channel=9, note=35, velocity=0, time=64),
    Message('note_on', channel=9, note=38, velocity=0, time=0),
    Message('note_on', channel=9, note=42, velocity=0, time=0),
    Message('note_on', channel=9, note=51, velocity=0, time=0),
    Message('note_on', channel=9, note=38, velocity=127, time=0),
    Message('note_on', channel=9, note=42, velocity=127, time=0),
    Message('note_on', channel=9, note=51, velocity=127, time=0),
    Message('note_on', channel=9, note=38, velocity=0, time=64),
    Message('note_on', channel=9, note=42, velocity=0, time=0),
    Message('note_on', channel=9, note=51, velocity=0, time=0),
    Message('note_on', channel=9, note=35, velocity=127, time=0),
    Message('note_on', channel=9, note=42, velocity=127, time=0),
    Message('note_on', channel=9, note=35, velocity=0, time=64),
    Message('note_on', channel=9, note=42, velocity=0, time=0),
    Message('note_on', channel=9, note=35, velocity=127, time=0),
    Message('note_on', channel=9, note=46, velocity=127, time=0),
    Message('note_on', channel=9, note=35, velocity=0, time=64),
    Message('note_on', channel=9, note=46, velocity=0, time=0),
    Message('note_on', channel=9, note=35, velocity=127, time=0),
    Message('note_on', channel=9, note=38, velocity=127, time=0),
    Message('note_on', channel=9, note=42, velocity=127, time=0),
    Message('note_on', channel=9, note=51, velocity=127, time=0),
    Message('note_on', channel=9, note=35, velocity=0, time=64),
    Message('note_on', channel=9, note=38, velocity=0, time=0),
    Message('note_on', channel=9, note=42, velocity=0, time=0),
    Message('note_on', channel=9, note=51, velocity=0, time=0),
    Message('note_on', channel=9, note=38, velocity=127, time=0),
    Message('note_on', channel=9, note=42, velocity=127, time=0),
    Message('note_on', channel=9, note=51, velocity=127, time=0),
    Message('note_on', channel=9, note=38, velocity=0, time=64),
    Message('note_on', channel=9, note=42, velocity=0, time=0),
    Message('note_on', channel=9, note=51, velocity=0, time=0),
    Message('note_on', channel=9, note=38, velocity=127, time=0),
    Message('note_on', channel=9, note=42, velocity=127, time=0),
    Message('note_on', channel=9, note=51, velocity=127, time=0),
    Message('note_on', channel=9, note=38, velocity=0, time=64),
    Message('note_on', channel=9, note=42, velocity=0, time=0),
    Message('note_on', channel=9, note=51, velocity=0, time=0),
    Message('note_on', channel=9, note=38, velocity=127, time=0),
    Message('note_on', channel=9, note=42, velocity=127, time=0),
    Message('note_on', channel=9, note=51, velocity=127, time=0),
    Message('note_on', channel=9, note=38, velocity=0, time=64),
    Message('note_on', channel=9, note=42, velocity=0, time=0),
    Message('note_on', channel=9, note=51, velocity=0, time=0),
    Message('note_on', channel=9, note=42, velocity=127, time=0),
    Message('note_on', channel=9, note=42, velocity=0, time=64),
    Message('note_on', channel=9, note=35, velocity=127, time=0),
    Message('note_on', channel=9, note=42, velocity=127, time=0),
    Message('note_on', channel=9, note=35, velocity=0, time=64),
    Message('note_on', channel=9, note=42, velocity=0, time=0),
    Message('note_on', channel=9, note=35, velocity=127, time=0),
    Message('note_on', channel=9, note=38, velocity=127, time=0),
    Message('note_on', channel=9, note=42, velocity=127, time=0),
    Message('note_on', channel=9, note=51, velocity=127, time=0),
    Message('note_on', channel=9, note=35, velocity=0, time=64),
    Message('note_on', channel=9, note=38, velocity=0, time=0),
    Message('note_on', channel=9, note=42, velocity=0, time=0),
    Message('note_on', channel=9, note=51, velocity=0, time=0),
    Message('note_on', channel=9, note=38, velocity=127, time=0),
    Message('note_on', channel=9, note=42, velocity=127, time=0),
    Message('note_on', channel=9, note=51, velocity=127, time=0),
    Message('note_on', channel=9, note=38, velocity=0, time=64),
    Message('note_on', channel=9, note=42, velocity=0, time=0),
    Message('note_on', channel=9, note=51, velocity=0, time=0),
    Message('note_on', channel=9, note=38, velocity=127, time=0),
    Message('note_on', channel=9, note=42, velocity=127, time=0),
    Message('note_on', channel=9, note=51, velocity=127, time=0),
    Message('note_on', channel=9, note=38, velocity=0, time=64),
    Message('note_on', channel=9, note=42, velocity=0, time=0),
    Message('note_on', channel=9, note=51, velocity=0, time=0),
    Message('note_on', channel=9, note=38, velocity=127, time=0),
    Message('note_on', channel=9, note=42, velocity=127, time=0),
    Message('note_on', channel=9, note=51, velocity=127, time=0),
    Message('note_on', channel=9, note=38, velocity=0, time=64),
    Message('note_on', channel=9, note=42, velocity=0, time=0),
    Message('note_on', channel=9, note=51, velocity=0, time=0),
    Message('note_on', channel=9, note=42, velocity=127, time=0),
    Message('note_on', channel=9, note=42, velocity=0, time=64),
    Message('note_on', channel=9, note=35, velocity=127, time=0),
    Message('note_on', channel=9, note=42, velocity=127, time=0),
    Message('note_on', channel=9, note=35, velocity=0, time=64),
    Message('note_on', channel=9, note=42, velocity=0, time=0),
    Message('note_on', channel=9, note=35, velocity=127, time=0),
    Message('note_on', channel=9, note=38, velocity=127, time=0),
    Message('note_on', channel=9, note=42, velocity=127, time=0),
    Message('note_on', channel=9, note=51, velocity=127, time=0),
    Message('note_on', channel=9, note=35, velocity=0, time=64),
    Message('note_on', channel=9, note=38, velocity=0, time=0),
    Message('note_on', channel=9, note=42, velocity=0, time=0),
    Message('note_on', channel=9, note=51, velocity=0, time=0),
    Message('note_on', channel=9, note=38, velocity=127, time=0),
    Message('note_on', channel=9, note=42, velocity=127, time=0),
    Message('note_on', channel=9, note=51, velocity=127, time=0),
    Message('note_on', channel=9, note=38, velocity=0, time=64),
    Message('note_on', channel=9, note=42, velocity=0, time=0),
    Message('note_on', channel=9, note=51, velocity=0, time=0),
    Message('note_on', channel=9, note=38, velocity=127, time=0),
    Message('note_on', channel=9, note=42, velocity=127, time=0),
    Message('note_on', channel=9, note=51, velocity=127, time=0),
    Message('note_on', channel=9, note=38, velocity=0, time=64),
    Message('note_on', channel=9, note=42, velocity=0, time=0),
    Message('note_on', channel=9, note=51, velocity=0, time=0),
    Message('note_on', channel=9, note=38, velocity=127, time=0),
    Message('note_on', channel=9, note=42, velocity=127, time=0),
    Message('note_on', channel=9, note=51, velocity=127, time=0),
    Message('note_on', channel=9, note=38, velocity=0, time=64),
    Message('note_on', channel=9, note=42, velocity=0, time=0),
    Message('note_on', channel=9, note=51, velocity=0, time=0),
    Message('note_on', channel=9, note=42, velocity=127, time=0),
    Message('note_on', channel=9, note=42, velocity=0, time=64),
    Message('note_on', channel=9, note=35, velocity=127, time=0),
    Message('note_on', channel=9, note=42, velocity=127, time=0),
    Message('note_on', channel=9, note=35, velocity=0, time=64),
    Message('note_on', channel=9, note=42, velocity=0, time=0),
    Message('note_on', channel=9, note=35, velocity=127, time=0),
    Message('note_on', channel=9, note=38, velocity=127, time=0),
    Message('note_on', channel=9, note=42, velocity=127, time=0),
    Message('note_on', channel=9, note=51, velocity=127, time=0),
    Message('note_on', channel=9, note=35, velocity=0, time=64),
    Message('note_on', channel=9, note=38, velocity=0, time=0),
    Message('note_on', channel=9, note=42, velocity=0, time=0),
    Message('note_on', channel=9, note=51, velocity=0, time=0),
    Message('note_on', channel=9, note=38, velocity=127, time=0),
    Message('note_on', channel=9, note=42, velocity=127, time=0),
    Message('note_on', channel=9, note=51, velocity=127, time=0),
    Message('note_on', channel=9, note=38, velocity=0, time=64),
    Message('note_on', channel=9, note=42, velocity=0, time=0),
    Message('note_on', channel=9, note=51, velocity=0, time=0),
    Message('note_on', channel=9, note=35, velocity=127, time=0),
    Message('note_on', channel=9, note=38, velocity=127, time=0),
    Message('note_on', channel=9, note=42, velocity=127, time=0),
    Message('note_on', channel=9, note=51, velocity=127, time=0),
    Message('note_on', channel=9, note=35, velocity=0, time=64),
    Message('note_on', channel=9, note=38, velocity=0, time=0),
    Message('note_on', channel=9, note=42, velocity=0, time=0),
    Message('note_on', channel=9, note=51, velocity=0, time=0),
    Message('note_on', channel=9, note=38, velocity=127, time=0),
    Message('note_on', channel=9, note=42, velocity=127, time=0),
    Message('note_on', channel=9, note=51, velocity=127, time=0),
    Message('note_on', channel=9, note=38, velocity=0, time=64),
    Message('note_on', channel=9, note=42, velocity=0, time=0),
    Message('note_on', channel=9, note=51, velocity=0, time=0),
    Message('note_on', channel=9, note=35, velocity=127, time=0),
    Message('note_on', channel=9, note=42, velocity=127, time=0),
    Message('note_on', channel=9, note=35, velocity=0, time=64),
    Message('note_on', channel=9, note=42, velocity=0, time=0),
    Message('note_on', channel=9, note=35, velocity=127, time=0),
    Message('note_on', channel=9, note=46, velocity=127, time=0),
    Message('note_on', channel=9, note=35, velocity=0, time=64),
    Message('note_on', channel=9, note=46, velocity=0, time=0),
    Message('note_on', channel=9, note=35, velocity=127, time=0),
    Message('note_on', channel=9, note=38, velocity=127, time=0),
    Message('note_on', channel=9, note=42, velocity=127, time=0),
    Message('note_on', channel=9, note=51, velocity=127, time=0),
    Message('note_on', channel=9, note=35, velocity=0, time=64),
    Message('note_on', channel=9, note=38, velocity=0, time=0),
    Message('note_on', channel=9, note=42, velocity=0, time=0),
    Message('note_on', channel=9, note=51, velocity=0, time=0),
    Message('note_on', channel=9, note=38, velocity=127, time=0),
    Message('note_on', channel=9, note=42, velocity=127, time=0),
    Message('note_on', channel=9, note=51, velocity=127, time=0),
    Message('note_on', channel=9, note=38, velocity=0, time=64),
    Message('note_on', channel=9, note=42, velocity=0, time=0),
    Message('note_on', channel=9, note=51, velocity=0, time=0),
    Message('note_on', channel=9, note=38, velocity=127, time=0),
    Message('note_on', channel=9, note=42, velocity=127, time=0),
    Message('note_on', channel=9, note=51, velocity=127, time=0),
    Message('note_on', channel=9, note=38, velocity=0, time=64),
    Message('note_on', channel=9, note=42, velocity=0, time=0),
    Message('note_on', channel=9, note=51, velocity=0, time=0),
    Message('note_on', channel=9, note=38, velocity=127, time=0),
    Message('note_on', channel=9, note=42, velocity=127, time=0),
    Message('note_on', channel=9, note=51, velocity=127, time=0),
    Message('note_on', channel=9, note=38, velocity=0, time=64),
    Message('note_on', channel=9, note=42, velocity=0, time=0),
    Message('note_on', channel=9, note=51, velocity=0, time=0),
    Message('note_on', channel=9, note=42, velocity=127, time=0),
    Message('note_on', channel=9, note=42, velocity=0, time=64),
    Message('note_on', channel=9, note=35, velocity=127, time=0),
    Message('note_on', channel=9, note=42, velocity=127, time=0),
    Message('note_on', channel=9, note=35, velocity=0, time=64),
    Message('note_on', channel=9, note=42, velocity=0, time=0),
    Message('note_on', channel=9, note=35, velocity=127, time=0),
    Message('note_on', channel=9, note=38, velocity=127, time=0),
    Message('note_on', channel=9, note=42, velocity=127, time=0),
    Message('note_on', channel=9, note=51, velocity=127, time=0),
    Message('note_on', channel=9, note=35, velocity=0, time=64),
    Message('note_on', channel=9, note=38, velocity=0, time=0),
    Message('note_on', channel=9, note=42, velocity=0, time=0),
    Message('note_on', channel=9, note=51, velocity=0, time=0),
    Message('note_on', channel=9, note=38, velocity=127, time=0),
    Message('note_on', channel=9, note=42, velocity=127, time=0),
    Message('note_on', channel=9, note=51, velocity=127, time=0),
    Message('note_on', channel=9, note=38, velocity=0, time=64),
    Message('note_on', channel=9, note=42, velocity=0, time=0),
    Message('note_on', channel=9, note=51, velocity=0, time=0),
    Message('note_on', channel=9, note=38, velocity=127, time=0),
    Message('note_on', channel=9, note=42, velocity=127, time=0),
    Message('note_on', channel=9, note=51, velocity=127, time=0),
    Message('note_on', channel=9, note=38, velocity=0, time=64),
    Message('note_on', channel=9, note=42, velocity=0, time=0),
    Message('note_on', channel=9, note=51, velocity=0, time=0),
    Message('note_on', channel=9, note=38, velocity=127, time=0),
    Message('note_on', channel=9, note=42, velocity=127, time=0),
    Message('note_on', channel=9, note=51, velocity=127, time=0),
    Message('note_on', channel=9, note=38, velocity=0, time=64),
    Message('note_on', channel=9, note=42, velocity=0, time=0),
    Message('note_on', channel=9, note=51, velocity=0, time=0),
    Message('note_on', channel=9, note=42, velocity=127, time=0),
    Message('note_on', channel=9, note=42, velocity=0, time=64),
    Message('note_on', channel=9, note=35, velocity=127, time=0),
    Message('note_on', channel=9, note=42, velocity=127, time=0),
    Message('note_on', channel=9, note=35, velocity=0, time=64),
    Message('note_on', channel=9, note=42, velocity=0, time=0),
    Message('note_on', channel=9, note=35, velocity=127, time=0),
    Message('note_on', channel=9, note=38, velocity=127, time=0),
    Message('note_on', channel=9, note=42, velocity=127, time=0),
    Message('note_on', channel=9, note=51, velocity=127, time=0),
    Message('note_on', channel=9, note=35, velocity=0, time=64),
    Message('note_on', channel=9, note=38, velocity=0, time=0),
    Message('note_on', channel=9, note=42, velocity=0, time=0),
    Message('note_on', channel=9, note=51, velocity=0, time=0),
    Message('note_on', channel=9, note=38, velocity=127, time=0),
    Message('note_on', channel=9, note=42, velocity=127, time=0),
    Message('note_on', channel=9, note=51, velocity=127, time=0),
    Message('note_on', channel=9, note=38, velocity=0, time=64),
    Message('note_on', channel=9, note=42, velocity=0, time=0),
    Message('note_on', channel=9, note=51, velocity=0, time=0),
    Message('note_on', channel=9, note=38, velocity=127, time=0),
    Message('note_on', channel=9, note=42, velocity=127, time=0),
    Message('note_on', channel=9, note=51, velocity=127, time=0),
    Message('note_on', channel=9, note=38, velocity=0, time=64),
    Message('note_on', channel=9, note=42, velocity=0, time=0),
    Message('note_on', channel=9, note=51, velocity=0, time=0),
    Message('note_on', channel=9, note=38, velocity=127, time=0),
    Message('note_on', channel=9, note=42, velocity=127, time=0),
    Message('note_on', channel=9, note=51, velocity=127, time=0),
    Message('note_on', channel=9, note=38, velocity=0, time=64),
    Message('note_on', channel=9, note=42, velocity=0, time=0),
    Message('note_on', channel=9, note=51, velocity=0, time=0),
    Message('note_on', channel=9, note=42, velocity=127, time=0),
    Message('note_on', channel=9, note=42, velocity=0, time=64),
    Message('note_on', channel=9, note=35, velocity=127, time=0),
    Message('note_on', channel=9, note=42, velocity=127, time=0),
    Message('note_on', channel=9, note=35, velocity=0, time=64),
    Message('note_on', channel=9, note=42, velocity=0, time=0),
    Message('note_on', channel=9, note=35, velocity=127, time=0),
    Message('note_on', channel=9, note=38, velocity=127, time=0),
    Message('note_on', channel=9, note=42, velocity=127, time=0),
    Message('note_on', channel=9, note=51, velocity=127, time=0),
    Message('note_on', channel=9, note=35, velocity=0, time=64),
    Message('note_on', channel=9, note=38, velocity=0, time=0),
    Message('note_on', channel=9, note=42, velocity=0, time=0),
    Message('note_on', channel=9, note=51, velocity=0, time=0),
    Message('note_on', channel=9, note=38, velocity=127, time=0),
    Message('note_on', channel=9, note=42, velocity=127, time=0),
    Message('note_on', channel=9, note=51, velocity=127, time=0),
    Message('note_on', channel=9, note=38, velocity=0, time=64),
    Message('note_on', channel=9, note=42, velocity=0, time=0),
    Message('note_on', channel=9, note=51, velocity=0, time=0),
    Message('note_on', channel=9, note=35, velocity=127, time=0),
    Message('note_on', channel=9, note=38, velocity=127, time=0),
    Message('note_on', channel=9, note=42, velocity=127, time=0),
    Message('note_on', channel=9, note=51, velocity=127, time=0),
    Message('note_on', channel=9, note=35, velocity=0, time=64),
    Message('note_on', channel=9, note=38, velocity=0, time=0),
    Message('note_on', channel=9, note=42, velocity=0, time=0),
    Message('note_on', channel=9, note=51, velocity=0, time=0),
    Message('note_on', channel=9, note=38, velocity=127, time=0),
    Message('note_on', channel=9, note=42, velocity=127, time=0),
    Message('note_on', channel=9, note=51, velocity=127, time=0),
    Message('note_on', channel=9, note=38, velocity=0, time=64),
    Message('note_on', channel=9, note=42, velocity=0, time=0),
    Message('note_on', channel=9, note=51, velocity=0, time=0),
    Message('note_on', channel=9, note=35, velocity=127, time=0),
    Message('note_on', channel=9, note=42, velocity=127, time=0),
    Message('note_on', channel=9, note=35, velocity=0, time=64),
    Message('note_on', channel=9, note=42, velocity=0, time=0),
    Message('note_on', channel=9, note=35, velocity=127, time=0),
    Message('note_on', channel=9, note=42, velocity=127, time=0),
    Message('note_on', channel=9, note=35, velocity=0, time=64),
    Message('note_on', channel=9, note=42, velocity=0, time=0),
    Message('note_on', channel=9, note=35, velocity=127, time=0),
    Message('note_on', channel=9, note=38, velocity=127, time=0),
    Message('note_on', channel=9, note=42, velocity=127, time=0),
    Message('note_on', channel=9, note=51, velocity=127, time=0),
    Message('note_on', channel=9, note=35, velocity=0, time=64),
    Message('note_on', channel=9, note=38, velocity=0, time=0),
    Message('note_on', channel=9, note=42, velocity=0, time=0),
    Message('note_on', channel=9, note=51, velocity=0, time=0),
    Message('note_on', channel=9, note=38, velocity=127, time=0),
    Message('note_on', channel=9, note=42, velocity=127, time=0),
    Message('note_on', channel=9, note=51, velocity=127, time=0),
    Message('note_on', channel=9, note=38, velocity=0, time=64),
    Message('note_on', channel=9, note=42, velocity=0, time=0),
    Message('note_on', channel=9, note=51, velocity=0, time=0),
    Message('note_on', channel=9, note=38, velocity=127, time=0),
    Message('note_on', channel=9, note=42, velocity=127, time=0),
    Message('note_on', channel=9, note=51, velocity=127, time=0),
    Message('note_on', channel=9, note=38, velocity=0, time=64),
    Message('note_on', channel=9, note=42, velocity=0, time=0),
    Message('note_on', channel=9, note=51, velocity=0, time=0),
    Message('note_on', channel=9, note=38, velocity=127, time=0),
    Message('note_on', channel=9, note=42, velocity=127, time=0),
    Message('note_on', channel=9, note=51, velocity=127, time=0),
    Message('note_on', channel=9, note=38, velocity=0, time=64),
    Message('note_on', channel=9, note=42, velocity=0, time=0),
    Message('note_on', channel=9, note=51, velocity=0, time=0),
    Message('note_on', channel=9, note=38, velocity=127, time=0),
    Message('note_on', channel=9, note=42, velocity=127, time=0),
    Message('note_on', channel=9, note=51, velocity=127, time=0),
    Message('note_on', channel=9, note=38, velocity=0, time=64),
    Message('note_on', channel=9, note=42, velocity=0, time=0),
    Message('note_on', channel=9, note=51, velocity=0, time=0),
    Message('note_on', channel=9, note=35, velocity=127, time=0),
    Message('note_on', channel=9, note=38, velocity=127, time=0),
    Message('note_on', channel=9, note=42, velocity=127, time=0),
    Message('note_on', channel=9, note=51, velocity=127, time=0),
    Message('note_on', channel=9, note=35, velocity=0, time=64),
    Message('note_on', channel=9, note=38, velocity=0, time=0),
    Message('note_on', channel=9, note=42, velocity=0, time=0),
    Message('note_on', channel=9, note=51, velocity=0, time=0),
    Message('note_on', channel=9, note=35, velocity=127, time=0),
    Message('note_on', channel=9, note=38, velocity=127, time=0),
    Message('note_on', channel=9, note=42, velocity=127, time=0),
    Message('note_on', channel=9, note=51, velocity=127, time=0),
    Message('note_on', channel=9, note=35, velocity=0, time=64),
    Message('note_on', channel=9, note=38, velocity=0, time=0),
    Message('note_on', channel=9, note=42, velocity=0, time=0),
    Message('note_on', channel=9, note=51, velocity=0, time=0),
    Message('note_on', channel=9, note=38, velocity=127, time=0),
    Message('note_on', channel=9, note=42, velocity=127, time=0),
    Message('note_on', channel=9, note=51, velocity=127, time=0),
    Message('note_on', channel=9, note=38, velocity=0, time=64),
    Message('note_on', channel=9, note=42, velocity=0, time=0),
    Message('note_on', channel=9, note=51, velocity=0, time=0),
    Message('note_on', channel=9, note=38, velocity=127, time=0),
    Message('note_on', channel=9, note=42, velocity=127, time=0),
    Message('note_on', channel=9, note=51, velocity=127, time=0),
    Message('note_on', channel=9, note=38, velocity=0, time=64),
    Message('note_on', channel=9, note=42, velocity=0, time=0),
    Message('note_on', channel=9, note=51, velocity=0, time=0),
    Message('note_on', channel=9, note=38, velocity=127, time=0),
    Message('note_on', channel=9, note=42, velocity=127, time=0),
    Message('note_on', channel=9, note=51, velocity=127, time=0),
    Message('note_on', channel=9, note=38, velocity=0, time=64),
    Message('note_on', channel=9, note=42, velocity=0, time=0),
    Message('note_on', channel=9, note=51, velocity=0, time=0),
    Message('note_on', channel=9, note=38, velocity=127, time=0),
    Message('note_on', channel=9, note=42, velocity=127, time=0),
    Message('note_on', channel=9, note=51, velocity=127, time=0),
    Message('note_on', channel=9, note=38, velocity=0, time=64),
    Message('note_on', channel=9, note=42, velocity=0, time=0),
    Message('note_on', channel=9, note=51, velocity=0, time=0),
    Message('note_on', channel=9, note=35, velocity=127, time=0),
    Message('note_on', channel=9, note=38, velocity=127, time=0),
    Message('note_on', channel=9, note=42, velocity=127, time=0),
    Message('note_on', channel=9, note=51, velocity=127, time=0),
    Message('note_on', channel=9, note=35, velocity=0, time=64),
    Message('note_on', channel=9, note=38, velocity=0, time=0),
    Message('note_on', channel=9, note=42, velocity=0, time=0),
    Message('note_on', channel=9, note=51, velocity=0, time=0),
    Message('note_on', channel=9, note=35, velocity=127, time=0),
    Message('note_on', channel=9, note=38, velocity=127, time=0),
    Message('note_on', channel=9, note=42, velocity=127, time=0),
    Message('note_on', channel=9, note=51, velocity=127, time=0),
    Message('note_on', channel=9, note=35, velocity=0, time=64),
    Message('note_on', channel=9, note=38, velocity=0, time=0),
    Message('note_on', channel=9, note=42, velocity=0, time=0),
    Message('note_on', channel=9, note=51, velocity=0, time=0),
    Message('note_on', channel=9, note=38, velocity=127, time=0),
    Message('note_on', channel=9, note=42, velocity=127, time=0),
    Message('note_on', channel=9, note=51, velocity=127, time=0),
    Message('note_on', channel=9, note=38, velocity=0, time=64),
    Message('note_on', channel=9, note=42, velocity=0, time=0),
    Message('note_on', channel=9, note=51, velocity=0, time=0),
    Message('note_on', channel=9, note=38, velocity=127, time=0),
    Message('note_on', channel=9, note=42, velocity=127, time=0),
    Message('note_on', channel=9, note=51, velocity=127, time=0),
    Message('note_on', channel=9, note=38, velocity=0, time=64),
    Message('note_on', channel=9, note=42, velocity=0, time=0),
    Message('note_on', channel=9, note=51, velocity=0, time=0),
    Message('note_on', channel=9, note=38, velocity=127, time=0),
    Message('note_on', channel=9, note=42, velocity=127, time=0),
    Message('note_on', channel=9, note=51, velocity=127, time=0),
    Message('note_on', channel=9, note=38, velocity=0, time=64),
    Message('note_on', channel=9, note=42, velocity=0, time=0),
    Message('note_on', channel=9, note=51, velocity=0, time=0),
    Message('note_on', channel=9, note=38, velocity=127, time=0),
    Message('note_on', channel=9, note=42, velocity=127, time=0),
    Message('note_on', channel=9, note=51, velocity=127, time=0),
    Message('note_on', channel=9, note=38, velocity=0, time=64),
    Message('note_on', channel=9, note=42, velocity=0, time=0),
    Message('note_on', channel=9, note=51, velocity=0, time=0),
    Message('note_on', channel=9, note=35, velocity=127, time=0),
    Message('note_on', channel=9, note=38, velocity=127, time=0),
    Message('note_on', channel=9, note=42, velocity=127, time=0),
    Message('note_on', channel=9, note=51, velocity=127, time=0),
    Message('note_on', channel=9, note=35, velocity=0, time=64),
    Message('note_on', channel=9, note=38, velocity=0, time=0),
    Message('note_on', channel=9, note=42, velocity=0, time=0),
    Message('note_on', channel=9, note=51, velocity=0, time=0),
    Message('note_on', channel=9, note=35, velocity=127, time=0),
    Message('note_on', channel=9, note=38, velocity=127, time=0),
    Message('note_on', channel=9, note=42, velocity=127, time=0),
    Message('note_on', channel=9, note=51, velocity=127, time=0),
    Message('note_on', channel=9, note=35, velocity=0, time=64),
    Message('note_on', channel=9, note=38, velocity=0, time=0),
    Message('note_on', channel=9, note=42, velocity=0, time=0),
    Message('note_on', channel=9, note=51, velocity=0, time=0),
    Message('note_on', channel=9, note=38, velocity=127, time=0),
    Message('note_on', channel=9, note=42, velocity=127, time=0),
    Message('note_on', channel=9, note=51, velocity=127, time=0),
    Message('note_on', channel=9, note=38, velocity=0, time=64),
    Message('note_on', channel=9, note=42, velocity=0, time=0),
    Message('note_on', channel=9, note=51, velocity=0, time=0),
    Message('note_on', channel=9, note=38, velocity=127, time=0),
    Message('note_on', channel=9, note=42, velocity=127, time=0),
    Message('note_on', channel=9, note=51, velocity=127, time=0),
    Message('note_on', channel=9, note=38, velocity=0, time=64),
    Message('note_on', channel=9, note=42, velocity=0, time=0),
    Message('note_on', channel=9, note=51, velocity=0, time=0),
    Message('note_on', channel=9, note=38, velocity=127, time=0),
    Message('note_on', channel=9, note=42, velocity=127, time=0),
    Message('note_on', channel=9, note=51, velocity=127, time=0),
    Message('note_on', channel=9, note=38, velocity=0, time=64),
    Message('note_on', channel=9, note=42, velocity=0, time=0),
    Message('note_on', channel=9, note=51, velocity=0, time=0),
    Message('note_on', channel=9, note=38, velocity=127, time=0),
    Message('note_on', channel=9, note=42, velocity=127, time=0),
    Message('note_on', channel=9, note=51, velocity=127, time=0),
    Message('note_on', channel=9, note=38, velocity=0, time=64),
    Message('note_on', channel=9, note=42, velocity=0, time=0),
    Message('note_on', channel=9, note=51, velocity=0, time=0),
    Message('note_on', channel=9, note=35, velocity=127, time=0),
    Message('note_on', channel=9, note=38, velocity=127, time=0),
    Message('note_on', channel=9, note=42, velocity=127, time=0),
    Message('note_on', channel=9, note=51, velocity=127, time=0),
    Message('note_on', channel=9, note=35, velocity=0, time=64),
    Message('note_on', channel=9, note=38, velocity=0, time=0),
    Message('note_on', channel=9, note=42, velocity=0, time=0),
    Message('note_on', channel=9, note=51, velocity=0, time=0),
    Message('note_on', channel=9, note=35, velocity=127, time=0),
    Message('note_on', channel=9, note=38, velocity=127, time=0),
    Message('note_on', channel=9, note=42, velocity=127, time=0),
    Message('note_on', channel=9, note=51, velocity=127, time=0),
    Message('note_on', channel=9, note=48, velocity=127, time=0),
    Message('note_on', channel=9, note=35, velocity=0, time=64),
    Message('note_on', channel=9, note=38, velocity=0, time=0),
    Message('note_on', channel=9, note=42, velocity=0, time=0),
    Message('note_on', channel=9, note=51, velocity=0, time=0),
    Message('note_on', channel=9, note=48, velocity=0, time=0),
    Message('note_on', channel=9, note=45, velocity=127, time=0),
    Message('note_on', channel=9, note=45, velocity=0, time=64),
    Message('note_on', channel=9, note=41, velocity=127, time=0),
    Message('note_on', channel=9, note=41, velocity=0, time=64),
    Message('note_on', channel=9, note=35, velocity=127, time=0),
    Message('note_on', channel=9, note=38, velocity=127, time=0),
    Message('note_on', channel=9, note=42, velocity=127, time=0),
    Message('note_on', channel=9, note=51, velocity=127, time=0),
    Message('note_on', channel=9, note=35, velocity=0, time=64),
    Message('note_on', channel=9, note=38, velocity=0, time=0),
    Message('note_on', channel=9, note=42, velocity=0, time=0),
    Message('note_on', channel=9, note=51, velocity=0, time=0),
    Message('note_on', channel=9, note=46, velocity=127, time=0),
    Message('note_on', channel=9, note=46, velocity=0, time=64),
    Message('note_on', channel=9, note=42, velocity=127, time=0),
    Message('note_on', channel=9, note=42, velocity=0, time=64),
    Message('note_on', channel=9, note=35, velocity=127, time=0),
    Message('note_on', channel=9, note=38, velocity=127, time=0),
    Message('note_on', channel=9, note=42, velocity=127, time=0),
    Message('note_on', channel=9, note=49, velocity=127, time=0),
    Message('note_on', channel=9, note=41, velocity=127, time=0),
    Message('note_on', channel=9, note=35, velocity=0, time=64),
    Message('note_on', channel=9, note=38, velocity=0, time=0),
    Message('note_on', channel=9, note=42, velocity=0, time=0),
    Message('note_on', channel=9, note=49, velocity=0, time=0),
    Message('note_on', channel=9, note=41, velocity=0, time=0),
    Message('note_on', channel=9, note=43, velocity=127, time=358),
    Message('note_on', channel=9, note=43, velocity=0, time=18),
    Message('note_on', channel=9, note=41, velocity=127, time=2),
    Message('note_on', channel=9, note=38, velocity=127, time=15),
    Message('note_on', channel=9, note=41, velocity=0, time=8),
    Message('note_on', channel=9, note=38, velocity=0, time=59),
    MetaMessage('end_of_track', time=0)]),
  MidiTrack([
    MetaMessage('midi_port', port=0, time=0),
    MetaMessage('track_name', name='chorused piano2     ', time=0),
    Message('program_change', channel=2, program=1, time=0),
    Message('control_change', channel=2, control=7, value=80, time=0),
    Message('control_change', channel=2, control=64, value=0, time=0),
    Message('note_on', channel=2, note=60, velocity=80, time=1536),
    Message('note_on', channel=2, note=64, velocity=92, time=64),
    Message('note_on', channel=2, note=67, velocity=80, time=64),
    Message('note_on', channel=2, note=72, velocity=92, time=64),
    Message('note_on', channel=2, note=67, velocity=0, time=46),
    Message('note_on', channel=2, note=67, velocity=92, time=18),
    Message('note_on', channel=2, note=72, velocity=0, time=11),
    Message('note_on', channel=2, note=72, velocity=92, time=53),
    Message('note_on', channel=2, note=76, velocity=92, time=64),
    Message('note_on', channel=2, note=72, velocity=0, time=41),
    Message('note_on', channel=2, note=72, velocity=92, time=23),
    Message('note_on', channel=2, note=67, velocity=0, time=40),
    Message('note_on', channel=2, note=67, velocity=92, time=24),
    Message('note_on', channel=2, note=72, velocity=0, time=41),
    Message('note_on', channel=2, note=72, velocity=92, time=23),
    Message('note_on', channel=2, note=67, velocity=0, time=33),
    Message('note_on', channel=2, note=67, velocity=92, time=31),
    Message('note_on', channel=2, note=64, velocity=0, time=35),
    Message('note_on', channel=2, note=64, velocity=80, time=29),
    Message('note_on', channel=2, note=76, velocity=0, time=32),
    Message('note_on', channel=2, note=72, velocity=0, time=3),
    Message('note_on', channel=2, note=60, velocity=0, time=1),
    Message('note_on', channel=2, note=64, velocity=0, time=5),
    Message('note_on', channel=2, note=67, velocity=0, time=3),
    Message('note_on', channel=2, note=60, velocity=92, time=20),
    Message('note_on', channel=2, note=64, velocity=92, time=64),
    Message('note_on', channel=2, note=67, velocity=92, time=64),
    Message('note_on', channel=2, note=72, velocity=92, time=64),
    Message('note_on', channel=2, note=67, velocity=0, time=40),
    Message('note_on', channel=2, note=67, velocity=92, time=24),
    Message('note_on', channel=2, note=72, velocity=0, time=16),
    Message('note_on', channel=2, note=72, velocity=92, time=48),
    Message('note_on', channel=2, note=76, velocity=80, time=64),
    Message('note_on', channel=2, note=72, velocity=0, time=41),
    Message('note_on', channel=2, note=72, velocity=92, time=23),
    Message('note_on', channel=2, note=67, velocity=0, time=36),
    Message('note_on', channel=2, note=67, velocity=92, time=28),
    Message('note_on', channel=2, note=72, velocity=0, time=44),
    Message('note_on', channel=2, note=72, velocity=92, time=20),
    Message('note_on', channel=2, note=67, velocity=0, time=52),
    Message('note_on', channel=2, note=67, velocity=105, time=12),
    Message('note_on', channel=2, note=64, velocity=0, time=43),
    Message('note_on', channel=2, note=64, velocity=92, time=21),
    Message('note_on', channel=2, note=67, velocity=0, time=56),
    Message('note_on', channel=2, note=72, velocity=0, time=4),
    Message('note_on', channel=2, note=64, velocity=0, time=2),
    Message('note_on', channel=2, note=60, velocity=0, time=2),
    Message('note_on', channel=2, note=76, velocity=0, time=0),
    Message('note_on', channel=2, note=60, velocity=80, time=0),
    Message('note_on', channel=2, note=64, velocity=92, time=64),
    Message('note_on', channel=2, note=67, velocity=80, time=64),
    Message('note_on', channel=2, note=72, velocity=92, time=64),
    Message('note_on', channel=2, note=67, velocity=0, time=46),
    Message('note_on', channel=2, note=67, velocity=92, time=18),
    Message('note_on', channel=2, note=72, velocity=0, time=11),
    Message('note_on', channel=2, note=72, velocity=92, time=53),
    Message('note_on', channel=2, note=76, velocity=92, time=64),
    Message('note_on', channel=2, note=72, velocity=0, time=41),
    Message('note_on', channel=2, note=72, velocity=92, time=23),
    Message('note_on', channel=2, note=67, velocity=0, time=40),
    Message('note_on', channel=2, note=67, velocity=92, time=24),
    Message('note_on', channel=2, note=72, velocity=0, time=41),
    Message('note_on', channel=2, note=72, velocity=92, time=23),
    Message('note_on', channel=2, note=67, velocity=0, time=33),
    Message('note_on', channel=2, note=67, velocity=92, time=31),
    Message('note_on', channel=2, note=64, velocity=0, time=35),
    Message('note_on', channel=2, note=64, velocity=80, time=29),
    Message('note_on', channel=2, note=76, velocity=0, time=32),
    Message('note_on', channel=2, note=72, velocity=0, time=3),
    Message('note_on', channel=2, note=60, velocity=0, time=1),
    Message('note_on', channel=2, note=64, velocity=0, time=5),
    Message('note_on', channel=2, note=67, velocity=0, time=3),
    Message('note_on', channel=2, note=60, velocity=92, time=20),
    Message('note_on', channel=2, note=64, velocity=92, time=64),
    Message('note_on', channel=2, note=67, velocity=92, time=64),
    Message('note_on', channel=2, note=72, velocity=92, time=64),
    Message('note_on', channel=2, note=67, velocity=0, time=40),
    Message('note_on', channel=2, note=67, velocity=92, time=24),
    Message('note_on', channel=2, note=72, velocity=0, time=16),
    Message('note_on', channel=2, note=72, velocity=92, time=48),
    Message('note_on', channel=2, note=76, velocity=80, time=64),
    Message('note_on', channel=2, note=72, velocity=0, time=41),
    Message('note_on', channel=2, note=72, velocity=92, time=23),
    Message('note_on', channel=2, note=67, velocity=0, time=36),
    Message('note_on', channel=2, note=67, velocity=92, time=28),
    Message('note_on', channel=2, note=72, velocity=0, time=44),
    Message('note_on', channel=2, note=72, velocity=92, time=20),
    Message('note_on', channel=2, note=67, velocity=0, time=52),
    Message('note_on', channel=2, note=67, velocity=105, time=12),
    Message('note_on', channel=2, note=64, velocity=0, time=43),
    Message('note_on', channel=2, note=64, velocity=92, time=21),
    Message('note_on', channel=2, note=67, velocity=0, time=56),
    Message('note_on', channel=2, note=72, velocity=0, time=4),
    Message('note_on', channel=2, note=64, velocity=0, time=2),
    Message('note_on', channel=2, note=60, velocity=0, time=2),
    Message('note_on', channel=2, note=76, velocity=0, time=0),
    Message('note_on', channel=2, note=60, velocity=80, time=0),
    Message('note_on', channel=2, note=64, velocity=92, time=64),
    Message('note_on', channel=2, note=67, velocity=80, time=64),
    Message('note_on', channel=2, note=72, velocity=92, time=64),
    Message('note_on', channel=2, note=67, velocity=0, time=46),
    Message('note_on', channel=2, note=67, velocity=92, time=18),
    Message('note_on', channel=2, note=72, velocity=0, time=11),
    Message('note_on', channel=2, note=72, velocity=92, time=53),
    Message('note_on', channel=2, note=76, velocity=92, time=64),
    Message('note_on', channel=2, note=72, velocity=0, time=41),
    Message('note_on', channel=2, note=72, velocity=92, time=23),
    Message('note_on', channel=2, note=67, velocity=0, time=40),
    Message('note_on', channel=2, note=67, velocity=92, time=24),
    Message('note_on', channel=2, note=72, velocity=0, time=41),
    Message('note_on', channel=2, note=72, velocity=92, time=23),
    Message('note_on', channel=2, note=67, velocity=0, time=33),
    Message('note_on', channel=2, note=67, velocity=92, time=31),
    Message('note_on', channel=2, note=64, velocity=0, time=35),
    Message('note_on', channel=2, note=64, velocity=80, time=29),
    Message('note_on', channel=2, note=76, velocity=0, time=32),
    Message('note_on', channel=2, note=72, velocity=0, time=3),
    Message('note_on', channel=2, note=60, velocity=0, time=1),
    Message('note_on', channel=2, note=64, velocity=0, time=5),
    Message('note_on', channel=2, note=67, velocity=0, time=3),
    Message('note_on', channel=2, note=64, velocity=80, time=20),
    Message('note_on', channel=2, note=67, velocity=92, time=64),
    Message('note_on', channel=2, note=71, velocity=80, time=64),
    Message('note_on', channel=2, note=76, velocity=92, time=64),
    Message('note_on', channel=2, note=71, velocity=0, time=46),
    Message('note_on', channel=2, note=71, velocity=92, time=18),
    Message('note_on', channel=2, note=76, velocity=0, time=11),
    Message('note_on', channel=2, note=76, velocity=92, time=53),
    Message('note_on', channel=2, note=79, velocity=92, time=64),
    Message('note_on', channel=2, note=76, velocity=0, time=41),
    Message('note_on', channel=2, note=76, velocity=92, time=23),
    Message('note_on', channel=2, note=71, velocity=0, time=40),
    Message('note_on', channel=2, note=71, velocity=92, time=24),
    Message('note_on', channel=2, note=76, velocity=0, time=41),
    Message('note_on', channel=2, note=76, velocity=92, time=23),
    Message('note_on', channel=2, note=71, velocity=0, time=33),
    Message('note_on', channel=2, note=71, velocity=92, time=31),
    Message('note_on', channel=2, note=67, velocity=0, time=35),
    Message('note_on', channel=2, note=67, velocity=80, time=29),
    Message('note_on', channel=2, note=79, velocity=0, time=32),
    Message('note_on', channel=2, note=76, velocity=0, time=3),
    Message('note_on', channel=2, note=64, velocity=0, time=1),
    Message('note_on', channel=2, note=67, velocity=0, time=5),
    Message('note_on', channel=2, note=71, velocity=0, time=3),
    Message('note_on', channel=2, note=55, velocity=80, time=20),
    Message('note_on', channel=2, note=58, velocity=92, time=64),
    Message('note_on', channel=2, note=62, velocity=80, time=64),
    Message('note_on', channel=2, note=64, velocity=92, time=64),
    Message('note_on', channel=2, note=62, velocity=0, time=46),
    Message('note_on', channel=2, note=62, velocity=92, time=18),
    Message('note_on', channel=2, note=64, velocity=0, time=11),
    Message('note_on', channel=2, note=64, velocity=92, time=53),
    Message('note_on', channel=2, note=70, velocity=92, time=64),
    Message('note_on', channel=2, note=64, velocity=0, time=41),
    Message('note_on', channel=2, note=64, velocity=92, time=23),
    Message('note_on', channel=2, note=62, velocity=0, time=40),
    Message('note_on', channel=2, note=62, velocity=92, time=24),
    Message('note_on', channel=2, note=64, velocity=0, time=41),
    Message('note_on', channel=2, note=64, velocity=92, time=23),
    Message('note_on', channel=2, note=62, velocity=0, time=33),
    Message('note_on', channel=2, note=62, velocity=92, time=31),
    Message('note_on', channel=2, note=58, velocity=0, time=35),
    Message('note_on', channel=2, note=58, velocity=80, time=29),
    Message('note_on', channel=2, note=70, velocity=0, time=32),
    Message('note_on', channel=2, note=64, velocity=0, time=3),
    Message('note_on', channel=2, note=55, velocity=0, time=1),
    Message('note_on', channel=2, note=58, velocity=0, time=5),
    Message('note_on', channel=2, note=62, velocity=0, time=3),
    Message('note_on', channel=2, note=57, velocity=80, time=20),
    Message('note_on', channel=2, note=61, velocity=92, time=64),
    Message('note_on', channel=2, note=64, velocity=80, time=64),
    Message('note_on', channel=2, note=67, velocity=92, time=64),
    Message('note_on', channel=2, note=64, velocity=0, time=46),
    Message('note_on', channel=2, note=64, velocity=92, time=18),
    Message('note_on', channel=2, note=67, velocity=0, time=11),
    Message('note_on', channel=2, note=67, velocity=92, time=53),
    Message('note_on', channel=2, note=73, velocity=92, time=64),
    Message('note_on', channel=2, note=67, velocity=0, time=41),
    Message('note_on', channel=2, note=67, velocity=92, time=23),
    Message('note_on', channel=2, note=64, velocity=0, time=40),
    Message('note_on', channel=2, note=64, velocity=92, time=24),
    Message('note_on', channel=2, note=67, velocity=0, time=41),
    Message('note_on', channel=2, note=67, velocity=92, time=23),
    Message('note_on', channel=2, note=64, velocity=0, time=33),
    Message('note_on', channel=2, note=64, velocity=92, time=31),
    Message('note_on', channel=2, note=61, velocity=0, time=35),
    Message('note_on', channel=2, note=61, velocity=80, time=29),
    Message('note_on', channel=2, note=73, velocity=0, time=32),
    Message('note_on', channel=2, note=67, velocity=0, time=3),
    Message('note_on', channel=2, note=57, velocity=0, time=1),
    Message('note_on', channel=2, note=61, velocity=0, time=5),
    Message('note_on', channel=2, note=64, velocity=0, time=3),
    Message('note_on', channel=2, note=62, velocity=80, time=20),
    Message('note_on', channel=2, note=65, velocity=92, time=64),
    Message('note_on', channel=2, note=69, velocity=80, time=64),
    Message('note_on', channel=2, note=74, velocity=92, time=64),
    Message('note_on', channel=2, note=69, velocity=0, time=46),
    Message('note_on', channel=2, note=69, velocity=92, time=18),
    Message('note_on', channel=2, note=74, velocity=0, time=11),
    Message('note_on', channel=2, note=74, velocity=92, time=53),
    Message('note_on', channel=2, note=77, velocity=92, time=64),
    Message('note_on', channel=2, note=74, velocity=0, time=41),
    Message('note_on', channel=2, note=74, velocity=92, time=23),
    Message('note_on', channel=2, note=69, velocity=0, time=40),
    Message('note_on', channel=2, note=69, velocity=92, time=24),
    Message('note_on', channel=2, note=74, velocity=0, time=41),
    Message('note_on', channel=2, note=74, velocity=92, time=23),
    Message('note_on', channel=2, note=69, velocity=0, time=33),
    Message('note_on', channel=2, note=69, velocity=92, time=31),
    Message('note_on', channel=2, note=65, velocity=0, time=35),
    Message('note_on', channel=2, note=65, velocity=80, time=29),
    Message('note_on', channel=2, note=77, velocity=0, time=32),
    Message('note_on', channel=2, note=74, velocity=0, time=3),
    Message('note_on', channel=2, note=62, velocity=0, time=1),
    Message('note_on', channel=2, note=65, velocity=0, time=5),
    Message('note_on', channel=2, note=69, velocity=0, time=3),
    Message('note_on', channel=2, note=62, velocity=80, time=20),
    Message('note_on', channel=2, note=65, velocity=92, time=64),
    Message('note_on', channel=2, note=69, velocity=80, time=64),
    Message('note_on', channel=2, note=72, velocity=92, time=64),
    Message('note_on', channel=2, note=69, velocity=0, time=46),
    Message('note_on', channel=2, note=69, velocity=92, time=18),
    Message('note_on', channel=2, note=72, velocity=0, time=11),
    Message('note_on', channel=2, note=72, velocity=92, time=53),
    Message('note_on', channel=2, note=77, velocity=92, time=64),
    Message('note_on', channel=2, note=72, velocity=0, time=41),
    Message('note_on', channel=2, note=72, velocity=92, time=23),
    Message('note_on', channel=2, note=69, velocity=0, time=40),
    Message('note_on', channel=2, note=69, velocity=92, time=24),
    Message('note_on', channel=2, note=72, velocity=0, time=41),
    Message('note_on', channel=2, note=72, velocity=92, time=23),
    Message('note_on', channel=2, note=69, velocity=0, time=33),
    Message('note_on', channel=2, note=69, velocity=92, time=31),
    Message('note_on', channel=2, note=65, velocity=0, time=35),
    Message('note_on', channel=2, note=65, velocity=80, time=29),
    Message('note_on', channel=2, note=77, velocity=0, time=32),
    Message('note_on', channel=2, note=72, velocity=0, time=3),
    Message('note_on', channel=2, note=62, velocity=0, time=1),
    Message('note_on', channel=2, note=65, velocity=0, time=5),
    Message('note_on', channel=2, note=69, velocity=0, time=3),
    Message('note_on', channel=2, note=55, velocity=80, time=20),
    Message('note_on', channel=2, note=59, velocity=92, time=64),
    Message('note_on', channel=2, note=62, velocity=80, time=64),
    Message('note_on', channel=2, note=65, velocity=92, time=64),
    Message('note_on', channel=2, note=62, velocity=0, time=46),
    Message('note_on', channel=2, note=62, velocity=92, time=18),
    Message('note_on', channel=2, note=65, velocity=0, time=11),
    Message('note_on', channel=2, note=65, velocity=92, time=53),
    Message('note_on', channel=2, note=71, velocity=92, time=64),
    Message('note_on', channel=2, note=65, velocity=0, time=41),
    Message('note_on', channel=2, note=65, velocity=92, time=23),
    Message('note_on', channel=2, note=62, velocity=0, time=40),
    Message('note_on', channel=2, note=62, velocity=92, time=24),
    Message('note_on', channel=2, note=65, velocity=0, time=41),
    Message('note_on', channel=2, note=65, velocity=92, time=23),
    Message('note_on', channel=2, note=62, velocity=0, time=33),
    Message('note_on', channel=2, note=62, velocity=92, time=31),
    Message('note_on', channel=2, note=59, velocity=0, time=35),
    Message('note_on', channel=2, note=59, velocity=80, time=29),
    Message('note_on', channel=2, note=71, velocity=0, time=32),
    Message('note_on', channel=2, note=65, velocity=0, time=3),
    Message('note_on', channel=2, note=55, velocity=0, time=1),
    Message('note_on', channel=2, note=59, velocity=0, time=5),
    Message('note_on', channel=2, note=62, velocity=0, time=3),
    Message('note_on', channel=2, note=60, velocity=80, time=20),
    Message('note_on', channel=2, note=64, velocity=92, time=64),
    Message('note_on', channel=2, note=67, velocity=80, time=64),
    Message('note_on', channel=2, note=72, velocity=92, time=64),
    Message('note_on', channel=2, note=67, velocity=0, time=46),
    Message('note_on', channel=2, note=67, velocity=92, time=18),
    Message('note_on', channel=2, note=72, velocity=0, time=11),
    Message('note_on', channel=2, note=72, velocity=92, time=53),
    Message('note_on', channel=2, note=76, velocity=92, time=64),
    Message('note_on', channel=2, note=72, velocity=0, time=41),
    Message('note_on', channel=2, note=72, velocity=92, time=23),
    Message('note_on', channel=2, note=67, velocity=0, time=40),
    Message('note_on', channel=2, note=67, velocity=92, time=24),
    Message('note_on', channel=2, note=72, velocity=0, time=41),
    Message('note_on', channel=2, note=72, velocity=92, time=23),
    Message('note_on', channel=2, note=67, velocity=0, time=33),
    Message('note_on', channel=2, note=67, velocity=92, time=31),
    Message('note_on', channel=2, note=64, velocity=0, time=35),
    Message('note_on', channel=2, note=64, velocity=80, time=29),
    Message('note_on', channel=2, note=76, velocity=0, time=32),
    Message('note_on', channel=2, note=72, velocity=0, time=3),
    Message('note_on', channel=2, note=60, velocity=0, time=1),
    Message('note_on', channel=2, note=64, velocity=0, time=5),
    Message('note_on', channel=2, note=67, velocity=0, time=3),
    Message('note_on', channel=2, note=60, velocity=80, time=20),
    Message('note_on', channel=2, note=64, velocity=92, time=64),
    Message('note_on', channel=2, note=67, velocity=80, time=64),
    Message('note_on', channel=2, note=72, velocity=92, time=64),
    Message('note_on', channel=2, note=67, velocity=0, time=46),
    Message('note_on', channel=2, note=67, velocity=92, time=18),
    Message('note_on', channel=2, note=72, velocity=0, time=11),
    Message('note_on', channel=2, note=72, velocity=92, time=53),
    Message('note_on', channel=2, note=60, velocity=0, time=64),
    Message('note_on', channel=2, note=64, velocity=0, time=0),
    Message('note_on', channel=2, note=67, velocity=0, time=0),
    Message('note_on', channel=2, note=72, velocity=0, time=0),
    Message('note_on', channel=2, note=76, velocity=80, time=0),
    Message('note_on', channel=2, note=71, velocity=80, time=64),
    Message('note_on', channel=2, note=67, velocity=92, time=64),
    Message('note_on', channel=2, note=71, velocity=0, time=54),
    Message('note_on', channel=2, note=71, velocity=92, time=10),
    Message('note_on', channel=2, note=67, velocity=0, time=41),
    Message('note_on', channel=2, note=67, velocity=92, time=23),
    Message('note_on', channel=2, note=64, velocity=105, time=64),
    Message('note_on', channel=2, note=76, velocity=0, time=64),
    Message('note_on', channel=2, note=71, velocity=0, time=0),
    Message('note_on', channel=2, note=67, velocity=0, time=0),
    Message('note_on', channel=2, note=64, velocity=0, time=0),
    Message('note_on', channel=2, note=60, velocity=80, time=0),
    Message('note_on', channel=2, note=64, velocity=92, time=64),
    Message('note_on', channel=2, note=67, velocity=80, time=64),
    Message('note_on', channel=2, note=70, velocity=92, time=64),
    Message('note_on', channel=2, note=67, velocity=0, time=46),
    Message('note_on', channel=2, note=67, velocity=92, time=18),
    Message('note_on', channel=2, note=70, velocity=0, time=11),
    Message('note_on', channel=2, note=70, velocity=92, time=53),
    Message('note_on', channel=2, note=76, velocity=92, time=64),
    Message('note_on', channel=2, note=70, velocity=0, time=41),
    Message('note_on', channel=2, note=70, velocity=92, time=23),
    Message('note_on', channel=2, note=67, velocity=0, time=40),
    Message('note_on', channel=2, note=67, velocity=92, time=24),
    Message('note_on', channel=2, note=70, velocity=0, time=41),
    Message('note_on', channel=2, note=70, velocity=92, time=23),
    Message('note_on', channel=2, note=67, velocity=0, time=33),
    Message('note_on', channel=2, note=67, velocity=92, time=31),
    Message('note_on', channel=2, note=64, velocity=0, time=35),
    Message('note_on', channel=2, note=64, velocity=80, time=29),
    Message('note_on', channel=2, note=76, velocity=0, time=32),
    Message('note_on', channel=2, note=70, velocity=0, time=3),
    Message('note_on', channel=2, note=60, velocity=0, time=1),
    Message('note_on', channel=2, note=64, velocity=0, time=5),
    Message('note_on', channel=2, note=67, velocity=0, time=3),
    Message('note_on', channel=2, note=65, velocity=80, time=20),
    Message('note_on', channel=2, note=69, velocity=92, time=64),
    Message('note_on', channel=2, note=72, velocity=80, time=64),
    Message('note_on', channel=2, note=77, velocity=92, time=64),
    Message('note_on', channel=2, note=72, velocity=0, time=46),
    Message('note_on', channel=2, note=72, velocity=92, time=18),
    Message('note_on', channel=2, note=77, velocity=0, time=11),
    Message('note_on', channel=2, note=77, velocity=92, time=53),
    Message('note_on', channel=2, note=81, velocity=92, time=64),
    Message('note_on', channel=2, note=77, velocity=0, time=41),
    Message('note_on', channel=2, note=77, velocity=92, time=23),
    Message('note_on', channel=2, note=72, velocity=0, time=40),
    Message('note_on', channel=2, note=72, velocity=92, time=24),
    Message('note_on', channel=2, note=77, velocity=0, time=41),
    Message('note_on', channel=2, note=77, velocity=92, time=23),
    Message('note_on', channel=2, note=72, velocity=0, time=33),
    Message('note_on', channel=2, note=72, velocity=92, time=31),
    Message('note_on', channel=2, note=69, velocity=0, time=35),
    Message('note_on', channel=2, note=69, velocity=80, time=29),
    Message('note_on', channel=2, note=81, velocity=0, time=32),
    Message('note_on', channel=2, note=77, velocity=0, time=3),
    Message('note_on', channel=2, note=65, velocity=0, time=1),
    Message('note_on', channel=2, note=69, velocity=0, time=5),
    Message('note_on', channel=2, note=72, velocity=0, time=3),
    Message('note_on', channel=2, note=65, velocity=80, time=20),
    Message('note_on', channel=2, note=68, velocity=92, time=64),
    Message('note_on', channel=2, note=72, velocity=80, time=64),
    Message('note_on', channel=2, note=77, velocity=92, time=64),
    Message('note_on', channel=2, note=72, velocity=0, time=46),
    Message('note_on', channel=2, note=72, velocity=92, time=18),
    Message('note_on', channel=2, note=77, velocity=0, time=11),
    Message('note_on', channel=2, note=77, velocity=92, time=53),
    Message('note_on', channel=2, note=80, velocity=92, time=64),
    Message('note_on', channel=2, note=77, velocity=0, time=41),
    Message('note_on', channel=2, note=77, velocity=92, time=23),
    Message('note_on', channel=2, note=72, velocity=0, time=40),
    Message('note_on', channel=2, note=72, velocity=92, time=24),
    Message('note_on', channel=2, note=77, velocity=0, time=41),
    Message('note_on', channel=2, note=77, velocity=92, time=23),
    Message('note_on', channel=2, note=72, velocity=0, time=33),
    Message('note_on', channel=2, note=72, velocity=92, time=31),
    Message('note_on', channel=2, note=68, velocity=0, time=35),
    Message('note_on', channel=2, note=68, velocity=80, time=29),
    Message('note_on', channel=2, note=80, velocity=0, time=32),
    Message('note_on', channel=2, note=77, velocity=0, time=3),
    Message('note_on', channel=2, note=65, velocity=0, time=1),
    Message('note_on', channel=2, note=68, velocity=0, time=5),
    Message('note_on', channel=2, note=72, velocity=0, time=3),
    Message('note_on', channel=2, note=60, velocity=80, time=20),
    Message('note_on', channel=2, note=64, velocity=92, time=64),
    Message('note_on', channel=2, note=67, velocity=80, time=64),
    Message('note_on', channel=2, note=72, velocity=92, time=64),
    Message('note_on', channel=2, note=67, velocity=0, time=46),
    Message('note_on', channel=2, note=67, velocity=92, time=18),
    Message('note_on', channel=2, note=72, velocity=0, time=11),
    Message('note_on', channel=2, note=72, velocity=92, time=53),
    Message('note_on', channel=2, note=76, velocity=92, time=64),
    Message('note_on', channel=2, note=72, velocity=0, time=41),
    Message('note_on', channel=2, note=72, velocity=92, time=23),
    Message('note_on', channel=2, note=67, velocity=0, time=40),
    Message('note_on', channel=2, note=67, velocity=92, time=24),
    Message('note_on', channel=2, note=72, velocity=0, time=41),
    Message('note_on', channel=2, note=72, velocity=92, time=23),
    Message('note_on', channel=2, note=67, velocity=0, time=33),
    Message('note_on', channel=2, note=67, velocity=92, time=31),
    Message('note_on', channel=2, note=64, velocity=0, time=35),
    Message('note_on', channel=2, note=64, velocity=80, time=29),
    Message('note_on', channel=2, note=76, velocity=0, time=32),
    Message('note_on', channel=2, note=72, velocity=0, time=3),
    Message('note_on', channel=2, note=60, velocity=0, time=1),
    Message('note_on', channel=2, note=64, velocity=0, time=5),
    Message('note_on', channel=2, note=67, velocity=0, time=3),
    Message('note_on', channel=2, note=55, velocity=80, time=20),
    Message('note_on', channel=2, note=59, velocity=92, time=64),
    Message('note_on', channel=2, note=62, velocity=80, time=64),
    Message('note_on', channel=2, note=65, velocity=92, time=64),
    Message('note_on', channel=2, note=62, velocity=0, time=46),
    Message('note_on', channel=2, note=62, velocity=92, time=18),
    Message('note_on', channel=2, note=65, velocity=0, time=11),
    Message('note_on', channel=2, note=65, velocity=92, time=53),
    Message('note_on', channel=2, note=71, velocity=92, time=64),
    Message('note_on', channel=2, note=65, velocity=0, time=41),
    Message('note_on', channel=2, note=65, velocity=92, time=23),
    Message('note_on', channel=2, note=62, velocity=0, time=40),
    Message('note_on', channel=2, note=62, velocity=92, time=24),
    Message('note_on', channel=2, note=65, velocity=0, time=41),
    Message('note_on', channel=2, note=65, velocity=92, time=23),
    Message('note_on', channel=2, note=62, velocity=0, time=33),
    Message('note_on', channel=2, note=62, velocity=92, time=31),
    Message('note_on', channel=2, note=59, velocity=0, time=35),
    Message('note_on', channel=2, note=59, velocity=80, time=29),
    Message('note_on', channel=2, note=71, velocity=0, time=32),
    Message('note_on', channel=2, note=65, velocity=0, time=3),
    Message('note_on', channel=2, note=55, velocity=0, time=1),
    Message('note_on', channel=2, note=59, velocity=0, time=5),
    Message('note_on', channel=2, note=62, velocity=0, time=3),
    Message('note_on', channel=2, note=65, velocity=80, time=20),
    Message('note_on', channel=2, note=69, velocity=92, time=64),
    Message('note_on', channel=2, note=72, velocity=80, time=64),
    Message('note_on', channel=2, note=74, velocity=92, time=64),
    Message('note_on', channel=2, note=72, velocity=0, time=46),
    Message('note_on', channel=2, note=72, velocity=92, time=18),
    Message('note_on', channel=2, note=74, velocity=0, time=11),
    Message('note_on', channel=2, note=74, velocity=92, time=53),
    Message('note_on', channel=2, note=81, velocity=92, time=64),
    Message('note_on', channel=2, note=74, velocity=0, time=41),
    Message('note_on', channel=2, note=74, velocity=92, time=23),
    Message('note_on', channel=2, note=72, velocity=0, time=40),
    Message('note_on', channel=2, note=72, velocity=92, time=24),
    Message('note_on', channel=2, note=74, velocity=0, time=41),
    Message('note_on', channel=2, note=74, velocity=92, time=23),
    Message('note_on', channel=2, note=72, velocity=0, time=33),
    Message('note_on', channel=2, note=72, velocity=92, time=31),
    Message('note_on', channel=2, note=69, velocity=0, time=35),
    Message('note_on', channel=2, note=69, velocity=80, time=29),
    Message('note_on', channel=2, note=81, velocity=0, time=32),
    Message('note_on', channel=2, note=74, velocity=0, time=3),
    Message('note_on', channel=2, note=65, velocity=0, time=1),
    Message('note_on', channel=2, note=69, velocity=0, time=5),
    Message('note_on', channel=2, note=72, velocity=0, time=3),
    Message('note_on', channel=2, note=60, velocity=91, time=20),
    Message('note_on', channel=2, note=64, velocity=79, time=64),
    Message('note_on', channel=2, note=67, velocity=79, time=64),
    Message('note_on', channel=2, note=72, velocity=91, time=64),
    Message('note_on', channel=2, note=67, velocity=0, time=41),
    Message('note_on', channel=2, note=67, velocity=104, time=23),
    Message('note_on', channel=2, note=72, velocity=0, time=9),
    Message('note_on', channel=2, note=72, velocity=91, time=55),
    Message('note_on', channel=2, note=76, velocity=91, time=64),
    Message('note_on', channel=2, note=72, velocity=0, time=40),
    Message('note_on', channel=2, note=72, velocity=91, time=24),
    Message('note_on', channel=2, note=76, velocity=0, time=33),
    Message('note_on', channel=2, note=76, velocity=91, time=31),
    Message('note_on', channel=2, note=79, velocity=104, time=64),
    Message('note_on', channel=2, note=76, velocity=0, time=41),
    Message('note_on', channel=2, note=76, velocity=91, time=23),
    Message('note_on', channel=2, note=84, velocity=79, time=64),
    Message('note_on', channel=2, note=60, velocity=0, time=64),
    Message('note_on', channel=2, note=64, velocity=0, time=0),
    Message('note_on', channel=2, note=67, velocity=0, time=0),
    Message('note_on', channel=2, note=72, velocity=0, time=0),
    Message('note_on', channel=2, note=79, velocity=0, time=0),
    Message('note_on', channel=2, note=76, velocity=0, time=0),
    Message('note_on', channel=2, note=84, velocity=0, time=0),
    Message('note_on', channel=2, note=60, velocity=80, time=0),
    Message('note_on', channel=2, note=64, velocity=92, time=64),
    Message('note_on', channel=2, note=67, velocity=80, time=64),
    Message('note_on', channel=2, note=72, velocity=92, time=64),
    Message('note_on', channel=2, note=67, velocity=0, time=46),
    Message('note_on', channel=2, note=67, velocity=92, time=18),
    Message('note_on', channel=2, note=72, velocity=0, time=11),
    Message('note_on', channel=2, note=72, velocity=92, time=53),
    Message('note_on', channel=2, note=76, velocity=92, time=64),
    Message('note_on', channel=2, note=72, velocity=0, time=41),
    Message('note_on', channel=2, note=72, velocity=92, time=23),
    Message('note_on', channel=2, note=67, velocity=0, time=40),
    Message('note_on', channel=2, note=67, velocity=92, time=24),
    Message('note_on', channel=2, note=72, velocity=0, time=41),
    Message('note_on', channel=2, note=72, velocity=92, time=23),
    Message('note_on', channel=2, note=67, velocity=0, time=33),
    Message('note_on', channel=2, note=67, velocity=92, time=31),
    Message('note_on', channel=2, note=64, velocity=0, time=35),
    Message('note_on', channel=2, note=64, velocity=80, time=29),
    Message('note_on', channel=2, note=76, velocity=0, time=32),
    Message('note_on', channel=2, note=72, velocity=0, time=3),
    Message('note_on', channel=2, note=60, velocity=0, time=1),
    Message('note_on', channel=2, note=64, velocity=0, time=5),
    Message('note_on', channel=2, note=67, velocity=0, time=3),
    Message('note_on', channel=2, note=64, velocity=80, time=20),
    Message('note_on', channel=2, note=67, velocity=92, time=64),
    Message('note_on', channel=2, note=71, velocity=80, time=64),
    Message('note_on', channel=2, note=76, velocity=92, time=64),
    Message('note_on', channel=2, note=71, velocity=0, time=46),
    Message('note_on', channel=2, note=71, velocity=92, time=18),
    Message('note_on', channel=2, note=76, velocity=0, time=11),
    Message('note_on', channel=2, note=76, velocity=92, time=53),
    Message('note_on', channel=2, note=79, velocity=92, time=64),
    Message('note_on', channel=2, note=76, velocity=0, time=41),
    Message('note_on', channel=2, note=76, velocity=92, time=23),
    Message('note_on', channel=2, note=71, velocity=0, time=40),
    Message('note_on', channel=2, note=71, velocity=92, time=24),
    Message('note_on', channel=2, note=76, velocity=0, time=41),
    Message('note_on', channel=2, note=76, velocity=92, time=23),
    Message('note_on', channel=2, note=71, velocity=0, time=33),
    Message('note_on', channel=2, note=71, velocity=92, time=31),
    Message('note_on', channel=2, note=67, velocity=0, time=35),
    Message('note_on', channel=2, note=67, velocity=80, time=29),
    Message('note_on', channel=2, note=79, velocity=0, time=32),
    Message('note_on', channel=2, note=76, velocity=0, time=3),
    Message('note_on', channel=2, note=64, velocity=0, time=1),
    Message('note_on', channel=2, note=67, velocity=0, time=5),
    Message('note_on', channel=2, note=71, velocity=0, time=3),
    Message('note_on', channel=2, note=55, velocity=80, time=20),
    Message('note_on', channel=2, note=58, velocity=92, time=64),
    Message('note_on', channel=2, note=62, velocity=80, time=64),
    Message('note_on', channel=2, note=64, velocity=92, time=64),
    Message('note_on', channel=2, note=62, velocity=0, time=46),
    Message('note_on', channel=2, note=62, velocity=92, time=18),
    Message('note_on', channel=2, note=64, velocity=0, time=11),
    Message('note_on', channel=2, note=64, velocity=92, time=53),
    Message('note_on', channel=2, note=70, velocity=92, time=64),
    Message('note_on', channel=2, note=64, velocity=0, time=41),
    Message('note_on', channel=2, note=64, velocity=92, time=23),
    Message('note_on', channel=2, note=62, velocity=0, time=40),
    Message('note_on', channel=2, note=62, velocity=92, time=24),
    Message('note_on', channel=2, note=64, velocity=0, time=41),
    Message('note_on', channel=2, note=64, velocity=92, time=23),
    Message('note_on', channel=2, note=62, velocity=0, time=33),
    Message('note_on', channel=2, note=62, velocity=92, time=31),
    Message('note_on', channel=2, note=58, velocity=0, time=35),
    Message('note_on', channel=2, note=58, velocity=80, time=29),
    Message('note_on', channel=2, note=70, velocity=0, time=32),
    Message('note_on', channel=2, note=64, velocity=0, time=3),
    Message('note_on', channel=2, note=55, velocity=0, time=1),
    Message('note_on', channel=2, note=58, velocity=0, time=5),
    Message('note_on', channel=2, note=62, velocity=0, time=3),
    Message('note_on', channel=2, note=57, velocity=80, time=20),
    Message('note_on', channel=2, note=61, velocity=92, time=64),
    Message('note_on', channel=2, note=64, velocity=80, time=64),
    Message('note_on', channel=2, note=67, velocity=92, time=64),
    Message('note_on', channel=2, note=64, velocity=0, time=46),
    Message('note_on', channel=2, note=64, velocity=92, time=18),
    Message('note_on', channel=2, note=67, velocity=0, time=11),
    Message('note_on', channel=2, note=67, velocity=92, time=53),
    Message('note_on', channel=2, note=73, velocity=92, time=64),
    Message('note_on', channel=2, note=67, velocity=0, time=41),
    Message('note_on', channel=2, note=67, velocity=92, time=23),
    Message('note_on', channel=2, note=64, velocity=0, time=40),
    Message('note_on', channel=2, note=64, velocity=92, time=24),
    Message('note_on', channel=2, note=67, velocity=0, time=41),
    Message('note_on', channel=2, note=67, velocity=92, time=23),
    Message('note_on', channel=2, note=64, velocity=0, time=33),
    Message('note_on', channel=2, note=64, velocity=92, time=31),
    Message('note_on', channel=2, note=61, velocity=0, time=35),
    Message('note_on', channel=2, note=61, velocity=80, time=29),
    Message('note_on', channel=2, note=73, velocity=0, time=32),
    Message('note_on', channel=2, note=67, velocity=0, time=3),
    Message('note_on', channel=2, note=57, velocity=0, time=1),
    Message('note_on', channel=2, note=61, velocity=0, time=5),
    Message('note_on', channel=2, note=64, velocity=0, time=3),
    Message('note_on', channel=2, note=62, velocity=80, time=20),
    Message('note_on', channel=2, note=65, velocity=92, time=64),
    Message('note_on', channel=2, note=69, velocity=80, time=64),
    Message('note_on', channel=2, note=74, velocity=92, time=64),
    Message('note_on', channel=2, note=69, velocity=0, time=46),
    Message('note_on', channel=2, note=69, velocity=92, time=18),
    Message('note_on', channel=2, note=74, velocity=0, time=11),
    Message('note_on', channel=2, note=74, velocity=92, time=53),
    Message('note_on', channel=2, note=77, velocity=92, time=64),
    Message('note_on', channel=2, note=74, velocity=0, time=41),
    Message('note_on', channel=2, note=74, velocity=92, time=23),
    Message('note_on', channel=2, note=69, velocity=0, time=40),
    Message('note_on', channel=2, note=69, velocity=92, time=24),
    Message('note_on', channel=2, note=74, velocity=0, time=41),
    Message('note_on', channel=2, note=74, velocity=92, time=23),
    Message('note_on', channel=2, note=69, velocity=0, time=33),
    Message('note_on', channel=2, note=69, velocity=92, time=31),
    Message('note_on', channel=2, note=65, velocity=0, time=35),
    Message('note_on', channel=2, note=65, velocity=80, time=29),
    Message('note_on', channel=2, note=77, velocity=0, time=32),
    Message('note_on', channel=2, note=74, velocity=0, time=3),
    Message('note_on', channel=2, note=62, velocity=0, time=1),
    Message('note_on', channel=2, note=65, velocity=0, time=5),
    Message('note_on', channel=2, note=69, velocity=0, time=3),
    Message('note_on', channel=2, note=62, velocity=80, time=20),
    Message('note_on', channel=2, note=65, velocity=92, time=64),
    Message('note_on', channel=2, note=69, velocity=80, time=64),
    Message('note_on', channel=2, note=72, velocity=92, time=64),
    Message('note_on', channel=2, note=69, velocity=0, time=46),
    Message('note_on', channel=2, note=69, velocity=92, time=18),
    Message('note_on', channel=2, note=72, velocity=0, time=11),
    Message('note_on', channel=2, note=72, velocity=92, time=53),
    Message('note_on', channel=2, note=77, velocity=92, time=64),
    Message('note_on', channel=2, note=72, velocity=0, time=41),
    Message('note_on', channel=2, note=72, velocity=92, time=23),
    Message('note_on', channel=2, note=69, velocity=0, time=40),
    Message('note_on', channel=2, note=69, velocity=92, time=24),
    Message('note_on', channel=2, note=72, velocity=0, time=41),
    Message('note_on', channel=2, note=72, velocity=92, time=23),
    Message('note_on', channel=2, note=69, velocity=0, time=33),
    Message('note_on', channel=2, note=69, velocity=92, time=31),
    Message('note_on', channel=2, note=65, velocity=0, time=35),
    Message('note_on', channel=2, note=65, velocity=80, time=29),
    Message('note_on', channel=2, note=77, velocity=0, time=32),
    Message('note_on', channel=2, note=72, velocity=0, time=3),
    Message('note_on', channel=2, note=62, velocity=0, time=1),
    Message('note_on', channel=2, note=65, velocity=0, time=5),
    Message('note_on', channel=2, note=69, velocity=0, time=3),
    Message('note_on', channel=2, note=55, velocity=80, time=20),
    Message('note_on', channel=2, note=59, velocity=92, time=64),
    Message('note_on', channel=2, note=62, velocity=80, time=64),
    Message('note_on', channel=2, note=65, velocity=92, time=64),
    Message('note_on', channel=2, note=62, velocity=0, time=46),
    Message('note_on', channel=2, note=62, velocity=92, time=18),
    Message('note_on', channel=2, note=65, velocity=0, time=11),
    Message('note_on', channel=2, note=65, velocity=92, time=53),
    Message('note_on', channel=2, note=71, velocity=92, time=64),
    Message('note_on', channel=2, note=65, velocity=0, time=41),
    Message('note_on', channel=2, note=65, velocity=92, time=23),
    Message('note_on', channel=2, note=62, velocity=0, time=40),
    Message('note_on', channel=2, note=62, velocity=92, time=24),
    Message('note_on', channel=2, note=65, velocity=0, time=41),
    Message('note_on', channel=2, note=65, velocity=92, time=23),
    Message('note_on', channel=2, note=62, velocity=0, time=33),
    Message('note_on', channel=2, note=62, velocity=92, time=31),
    Message('note_on', channel=2, note=59, velocity=0, time=35),
    Message('note_on', channel=2, note=59, velocity=80, time=29),
    Message('note_on', channel=2, note=71, velocity=0, time=32),
    Message('note_on', channel=2, note=65, velocity=0, time=3),
    Message('note_on', channel=2, note=55, velocity=0, time=1),
    Message('note_on', channel=2, note=59, velocity=0, time=5),
    Message('note_on', channel=2, note=62, velocity=0, time=3),
    Message('note_on', channel=2, note=60, velocity=80, time=20),
    Message('note_on', channel=2, note=64, velocity=92, time=64),
    Message('note_on', channel=2, note=67, velocity=80, time=64),
    Message('note_on', channel=2, note=72, velocity=92, time=64),
    Message('note_on', channel=2, note=67, velocity=0, time=46),
    Message('note_on', channel=2, note=67, velocity=92, time=18),
    Message('note_on', channel=2, note=72, velocity=0, time=11),
    Message('note_on', channel=2, note=72, velocity=92, time=53),
    Message('note_on', channel=2, note=76, velocity=92, time=64),
    Message('note_on', channel=2, note=72, velocity=0, time=41),
    Message('note_on', channel=2, note=72, velocity=92, time=23),
    Message('note_on', channel=2, note=67, velocity=0, time=40),
    Message('note_on', channel=2, note=67, velocity=92, time=24),
    Message('note_on', channel=2, note=72, velocity=0, time=41),
    Message('note_on', channel=2, note=72, velocity=92, time=23),
    Message('note_on', channel=2, note=67, velocity=0, time=33),
    Message('note_on', channel=2, note=67, velocity=92, time=31),
    Message('note_on', channel=2, note=64, velocity=0, time=35),
    Message('note_on', channel=2, note=64, velocity=80, time=29),
    Message('note_on', channel=2, note=76, velocity=0, time=32),
    Message('note_on', channel=2, note=72, velocity=0, time=3),
    Message('note_on', channel=2, note=60, velocity=0, time=1),
    Message('note_on', channel=2, note=64, velocity=0, time=5),
    Message('note_on', channel=2, note=67, velocity=0, time=3),
    Message('note_on', channel=2, note=60, velocity=80, time=20),
    Message('note_on', channel=2, note=64, velocity=92, time=64),
    Message('note_on', channel=2, note=67, velocity=80, time=64),
    Message('note_on', channel=2, note=72, velocity=92, time=64),
    Message('note_on', channel=2, note=67, velocity=0, time=46),
    Message('note_on', channel=2, note=67, velocity=92, time=18),
    Message('note_on', channel=2, note=72, velocity=0, time=11),
    Message('note_on', channel=2, note=72, velocity=92, time=53),
    Message('note_on', channel=2, note=60, velocity=0, time=64),
    Message('note_on', channel=2, note=64, velocity=0, time=0),
    Message('note_on', channel=2, note=67, velocity=0, time=0),
    Message('note_on', channel=2, note=72, velocity=0, time=0),
    Message('note_on', channel=2, note=76, velocity=80, time=0),
    Message('note_on', channel=2, note=71, velocity=80, time=64),
    Message('note_on', channel=2, note=67, velocity=92, time=64),
    Message('note_on', channel=2, note=71, velocity=0, time=54),
    Message('note_on', channel=2, note=71, velocity=92, time=10),
    Message('note_on', channel=2, note=67, velocity=0, time=41),
    Message('note_on', channel=2, note=67, velocity=92, time=23),
    Message('note_on', channel=2, note=64, velocity=105, time=64),
    Message('note_on', channel=2, note=76, velocity=0, time=64),
    Message('note_on', channel=2, note=71, velocity=0, time=0),
    Message('note_on', channel=2, note=67, velocity=0, time=0),
    Message('note_on', channel=2, note=64, velocity=0, time=0),
    Message('note_on', channel=2, note=60, velocity=80, time=0),
    Message('note_on', channel=2, note=64, velocity=92, time=64),
    Message('note_on', channel=2, note=67, velocity=80, time=64),
    Message('note_on', channel=2, note=70, velocity=92, time=64),
    Message('note_on', channel=2, note=67, velocity=0, time=46),
    Message('note_on', channel=2, note=67, velocity=92, time=18),
    Message('note_on', channel=2, note=70, velocity=0, time=11),
    Message('note_on', channel=2, note=70, velocity=92, time=53),
    Message('note_on', channel=2, note=76, velocity=92, time=64),
    Message('note_on', channel=2, note=70, velocity=0, time=41),
    Message('note_on', channel=2, note=70, velocity=92, time=23),
    Message('note_on', channel=2, note=67, velocity=0, time=40),
    Message('note_on', channel=2, note=67, velocity=92, time=24),
    Message('note_on', channel=2, note=70, velocity=0, time=41),
    Message('note_on', channel=2, note=70, velocity=92, time=23),
    Message('note_on', channel=2, note=67, velocity=0, time=33),
    Message('note_on', channel=2, note=67, velocity=92, time=31),
    Message('note_on', channel=2, note=64, velocity=0, time=35),
    Message('note_on', channel=2, note=64, velocity=80, time=29),
    Message('note_on', channel=2, note=76, velocity=0, time=32),
    Message('note_on', channel=2, note=70, velocity=0, time=3),
    Message('note_on', channel=2, note=60, velocity=0, time=1),
    Message('note_on', channel=2, note=64, velocity=0, time=5),
    Message('note_on', channel=2, note=67, velocity=0, time=3),
    Message('note_on', channel=2, note=65, velocity=80, time=20),
    Message('note_on', channel=2, note=69, velocity=92, time=64),
    Message('note_on', channel=2, note=72, velocity=80, time=64),
    Message('note_on', channel=2, note=77, velocity=92, time=64),
    Message('note_on', channel=2, note=72, velocity=0, time=46),
    Message('note_on', channel=2, note=72, velocity=92, time=18),
    Message('note_on', channel=2, note=77, velocity=0, time=11),
    Message('note_on', channel=2, note=77, velocity=92, time=53),
    Message('note_on', channel=2, note=81, velocity=92, time=64),
    Message('note_on', channel=2, note=77, velocity=0, time=41),
    Message('note_on', channel=2, note=77, velocity=92, time=23),
    Message('note_on', channel=2, note=72, velocity=0, time=40),
    Message('note_on', channel=2, note=72, velocity=92, time=24),
    Message('note_on', channel=2, note=77, velocity=0, time=41),
    Message('note_on', channel=2, note=77, velocity=92, time=23),
    Message('note_on', channel=2, note=72, velocity=0, time=33),
    Message('note_on', channel=2, note=72, velocity=92, time=31),
    Message('note_on', channel=2, note=69, velocity=0, time=35),
    Message('note_on', channel=2, note=69, velocity=80, time=29),
    Message('note_on', channel=2, note=81, velocity=0, time=32),
    Message('note_on', channel=2, note=77, velocity=0, time=3),
    Message('note_on', channel=2, note=65, velocity=0, time=1),
    Message('note_on', channel=2, note=69, velocity=0, time=5),
    Message('note_on', channel=2, note=72, velocity=0, time=3),
    Message('note_on', channel=2, note=65, velocity=80, time=20),
    Message('note_on', channel=2, note=68, velocity=92, time=64),
    Message('note_on', channel=2, note=72, velocity=80, time=64),
    Message('note_on', channel=2, note=77, velocity=92, time=64),
    Message('note_on', channel=2, note=72, velocity=0, time=46),
    Message('note_on', channel=2, note=72, velocity=92, time=18),
    Message('note_on', channel=2, note=77, velocity=0, time=11),
    Message('note_on', channel=2, note=77, velocity=92, time=53),
    Message('note_on', channel=2, note=80, velocity=92, time=64),
    Message('note_on', channel=2, note=77, velocity=0, time=41),
    Message('note_on', channel=2, note=77, velocity=92, time=23),
    Message('note_on', channel=2, note=72, velocity=0, time=40),
    Message('note_on', channel=2, note=72, velocity=92, time=24),
    Message('note_on', channel=2, note=77, velocity=0, time=41),
    Message('note_on', channel=2, note=77, velocity=92, time=23),
    Message('note_on', channel=2, note=72, velocity=0, time=33),
    Message('note_on', channel=2, note=72, velocity=92, time=31),
    Message('note_on', channel=2, note=68, velocity=0, time=35),
    Message('note_on', channel=2, note=68, velocity=80, time=29),
    Message('note_on', channel=2, note=80, velocity=0, time=32),
    Message('note_on', channel=2, note=77, velocity=0, time=3),
    Message('note_on', channel=2, note=65, velocity=0, time=1),
    Message('note_on', channel=2, note=68, velocity=0, time=5),
    Message('note_on', channel=2, note=72, velocity=0, time=3),
    Message('note_on', channel=2, note=60, velocity=80, time=20),
    Message('note_on', channel=2, note=64, velocity=92, time=64),
    Message('note_on', channel=2, note=67, velocity=80, time=64),
    Message('note_on', channel=2, note=72, velocity=92, time=64),
    Message('note_on', channel=2, note=67, velocity=0, time=46),
    Message('note_on', channel=2, note=67, velocity=92, time=18),
    Message('note_on', channel=2, note=72, velocity=0, time=11),
    Message('note_on', channel=2, note=72, velocity=92, time=53),
    Message('note_on', channel=2, note=76, velocity=92, time=64),
    Message('note_on', channel=2, note=72, velocity=0, time=41),
    Message('note_on', channel=2, note=72, velocity=92, time=23),
    Message('note_on', channel=2, note=67, velocity=0, time=40),
    Message('note_on', channel=2, note=67, velocity=92, time=24),
    Message('note_on', channel=2, note=72, velocity=0, time=41),
    Message('note_on', channel=2, note=72, velocity=92, time=23),
    Message('note_on', channel=2, note=67, velocity=0, time=33),
    Message('note_on', channel=2, note=67, velocity=92, time=31),
    Message('note_on', channel=2, note=64, velocity=0, time=35),
    Message('note_on', channel=2, note=64, velocity=80, time=29),
    Message('note_on', channel=2, note=76, velocity=0, time=32),
    Message('note_on', channel=2, note=72, velocity=0, time=3),
    Message('note_on', channel=2, note=60, velocity=0, time=1),
    Message('note_on', channel=2, note=64, velocity=0, time=5),
    Message('note_on', channel=2, note=67, velocity=0, time=3),
    Message('note_on', channel=2, note=55, velocity=80, time=20),
    Message('note_on', channel=2, note=59, velocity=92, time=64),
    Message('note_on', channel=2, note=62, velocity=80, time=64),
    Message('note_on', channel=2, note=65, velocity=92, time=64),
    Message('note_on', channel=2, note=62, velocity=0, time=46),
    Message('note_on', channel=2, note=62, velocity=92, time=18),
    Message('note_on', channel=2, note=65, velocity=0, time=11),
    Message('note_on', channel=2, note=65, velocity=92, time=53),
    Message('note_on', channel=2, note=71, velocity=92, time=64),
    Message('note_on', channel=2, note=65, velocity=0, time=41),
    Message('note_on', channel=2, note=65, velocity=92, time=23),
    Message('note_on', channel=2, note=62, velocity=0, time=40),
    Message('note_on', channel=2, note=62, velocity=92, time=24),
    Message('note_on', channel=2, note=65, velocity=0, time=41),
    Message('note_on', channel=2, note=65, velocity=92, time=23),
    Message('note_on', channel=2, note=62, velocity=0, time=33),
    Message('note_on', channel=2, note=62, velocity=92, time=31),
    Message('note_on', channel=2, note=59, velocity=0, time=35),
    Message('note_on', channel=2, note=59, velocity=80, time=29),
    Message('note_on', channel=2, note=71, velocity=0, time=32),
    Message('note_on', channel=2, note=65, velocity=0, time=3),
    Message('note_on', channel=2, note=55, velocity=0, time=1),
    Message('note_on', channel=2, note=59, velocity=0, time=5),
    Message('note_on', channel=2, note=62, velocity=0, time=3),
    Message('note_on', channel=2, note=65, velocity=80, time=20),
    Message('note_on', channel=2, note=69, velocity=92, time=64),
    Message('note_on', channel=2, note=72, velocity=80, time=64),
    Message('note_on', channel=2, note=74, velocity=92, time=64),
    Message('note_on', channel=2, note=72, velocity=0, time=46),
    Message('note_on', channel=2, note=72, velocity=92, time=18),
    Message('note_on', channel=2, note=74, velocity=0, time=11),
    Message('note_on', channel=2, note=74, velocity=92, time=53),
    Message('note_on', channel=2, note=81, velocity=92, time=64),
    Message('note_on', channel=2, note=74, velocity=0, time=41),
    Message('note_on', channel=2, note=74, velocity=92, time=23),
    Message('note_on', channel=2, note=72, velocity=0, time=40),
    Message('note_on', channel=2, note=72, velocity=92, time=24),
    Message('note_on', channel=2, note=74, velocity=0, time=41),
    Message('note_on', channel=2, note=74, velocity=92, time=23),
    Message('note_on', channel=2, note=72, velocity=0, time=33),
    Message('note_on', channel=2, note=72, velocity=92, time=31),
    Message('note_on', channel=2, note=69, velocity=0, time=35),
    Message('note_on', channel=2, note=69, velocity=80, time=29),
    Message('note_on', channel=2, note=81, velocity=0, time=32),
    Message('note_on', channel=2, note=74, velocity=0, time=3),
    Message('note_on', channel=2, note=65, velocity=0, time=1),
    Message('note_on', channel=2, note=69, velocity=0, time=5),
    Message('note_on', channel=2, note=72, velocity=0, time=3),
    Message('note_on', channel=2, note=60, velocity=91, time=20),
    Message('note_on', channel=2, note=64, velocity=79, time=64),
    Message('note_on', channel=2, note=67, velocity=79, time=64),
    Message('note_on', channel=2, note=72, velocity=91, time=64),
    Message('note_on', channel=2, note=67, velocity=0, time=41),
    Message('note_on', channel=2, note=67, velocity=104, time=23),
    Message('note_on', channel=2, note=72, velocity=0, time=9),
    Message('note_on', channel=2, note=72, velocity=91, time=55),
    Message('note_on', channel=2, note=76, velocity=91, time=64),
    Message('note_on', channel=2, note=72, velocity=0, time=40),
    Message('note_on', channel=2, note=72, velocity=91, time=24),
    Message('note_on', channel=2, note=76, velocity=0, time=33),
    Message('note_on', channel=2, note=76, velocity=91, time=31),
    Message('note_on', channel=2, note=79, velocity=104, time=64),
    Message('note_on', channel=2, note=76, velocity=0, time=41),
    Message('note_on', channel=2, note=76, velocity=91, time=23),
    Message('note_on', channel=2, note=84, velocity=79, time=64),
    Message('note_on', channel=2, note=60, velocity=0, time=64),
    Message('note_on', channel=2, note=64, velocity=0, time=0),
    Message('note_on', channel=2, note=67, velocity=0, time=0),
    Message('note_on', channel=2, note=72, velocity=0, time=0),
    Message('note_on', channel=2, note=79, velocity=0, time=0),
    Message('note_on', channel=2, note=76, velocity=0, time=0),
    Message('note_on', channel=2, note=84, velocity=0, time=0),
    Message('note_on', channel=2, note=60, velocity=101, time=0),
    Message('note_on', channel=2, note=72, velocity=101, time=0),
    Message('note_on', channel=2, note=64, velocity=101, time=0),
    Message('note_on', channel=2, note=67, velocity=101, time=0),
    Message('note_on', channel=2, note=36, velocity=101, time=0),
    Message('note_on', channel=2, note=48, velocity=89, time=0),
    Message('note_on', channel=2, note=36, velocity=0, time=32),
    Message('note_on', channel=2, note=60, velocity=0, time=1),
    Message('note_on', channel=2, note=72, velocity=0, time=0),
    Message('note_on', channel=2, note=64, velocity=0, time=0),
    Message('note_on', channel=2, note=67, velocity=0, time=0),
    Message('note_on', channel=2, note=48, velocity=0, time=0),
    Message('note_on', channel=2, note=60, velocity=66, time=31),
    Message('note_on', channel=2, note=72, velocity=66, time=0),
    Message('note_on', channel=2, note=64, velocity=66, time=0),
    Message('note_on', channel=2, note=67, velocity=66, time=0),
    Message('note_on', channel=2, note=36, velocity=77, time=0),
    Message('note_on', channel=2, note=48, velocity=66, time=0),
    Message('note_on', channel=2, note=36, velocity=0, time=36),
    Message('note_on', channel=2, note=60, velocity=0, time=7),
    Message('note_on', channel=2, note=72, velocity=0, time=0),
    Message('note_on', channel=2, note=64, velocity=0, time=0),
    Message('note_on', channel=2, note=67, velocity=0, time=0),
    Message('note_on', channel=2, note=48, velocity=0, time=0),
    Message('note_on', channel=2, note=48, velocity=66, time=21),
    Message('note_on', channel=2, note=60, velocity=101, time=0),
    Message('note_on', channel=2, note=72, velocity=101, time=0),
    Message('note_on', channel=2, note=64, velocity=101, time=0),
    Message('note_on', channel=2, note=67, velocity=101, time=0),
    Message('note_on', channel=2, note=36, velocity=89, time=0),
    Message('note_on', channel=2, note=36, velocity=0, time=33),
    Message('note_on', channel=2, note=48, velocity=0, time=3),
    Message('note_on', channel=2, note=60, velocity=0, time=0),
    Message('note_on', channel=2, note=72, velocity=0, time=0),
    Message('note_on', channel=2, note=64, velocity=0, time=0),
    Message('note_on', channel=2, note=67, velocity=0, time=0),
    Message('note_on', channel=2, note=60, velocity=116, time=28),
    Message('note_on', channel=2, note=72, velocity=116, time=0),
    Message('note_on', channel=2, note=64, velocity=116, time=0),
    Message('note_on', channel=2, note=67, velocity=116, time=0),
    Message('note_on', channel=2, note=36, velocity=101, time=0),
    Message('note_on', channel=2, note=48, velocity=101, time=0),
    Message('note_on', channel=2, note=60, velocity=0, time=19),
    Message('note_on', channel=2, note=72, velocity=0, time=0),
    Message('note_on', channel=2, note=64, velocity=0, time=0),
    Message('note_on', channel=2, note=67, velocity=0, time=0),
    Message('note_on', channel=2, note=36, velocity=0, time=3),
    Message('note_on', channel=2, note=48, velocity=0, time=0),
    Message('note_on', channel=2, note=60, velocity=114, time=170),
    Message('note_on', channel=2, note=72, velocity=114, time=0),
    Message('note_on', channel=2, note=64, velocity=114, time=0),
    Message('note_on', channel=2, note=67, velocity=114, time=0),
    Message('note_on', channel=2, note=36, velocity=101, time=0),
    Message('note_on', channel=2, note=48, velocity=89, time=0),
    Message('note_on', channel=2, note=36, velocity=0, time=32),
    Message('note_on', channel=2, note=60, velocity=0, time=1),
    Message('note_on', channel=2, note=72, velocity=0, time=0),
    Message('note_on', channel=2, note=64, velocity=0, time=0),
    Message('note_on', channel=2, note=67, velocity=0, time=0),
    Message('note_on', channel=2, note=48, velocity=0, time=2),
    Message('note_on', channel=2, note=60, velocity=77, time=29),
    Message('note_on', channel=2, note=72, velocity=77, time=0),
    Message('note_on', channel=2, note=64, velocity=77, time=0),
    Message('note_on', channel=2, note=67, velocity=77, time=0),
    Message('note_on', channel=2, note=36, velocity=77, time=0),
    Message('note_on', channel=2, note=48, velocity=49, time=0),
    Message('note_on', channel=2, note=36, velocity=0, time=38),
    Message('note_on', channel=2, note=48, velocity=0, time=3),
    Message('note_on', channel=2, note=60, velocity=0, time=3),
    Message('note_on', channel=2, note=72, velocity=0, time=0),
    Message('note_on', channel=2, note=64, velocity=0, time=0),
    Message('note_on', channel=2, note=67, velocity=0, time=0),
    Message('note_on', channel=2, note=60, velocity=101, time=20),
    Message('note_on', channel=2, note=72, velocity=101, time=0),
    Message('note_on', channel=2, note=64, velocity=101, time=0),
    Message('note_on', channel=2, note=67, velocity=101, time=0),
    Message('note_on', channel=2, note=48, velocity=66, time=0),
    Message('note_on', channel=2, note=36, velocity=89, time=0),
    Message('note_on', channel=2, note=36, velocity=0, time=36),
    Message('note_on', channel=2, note=60, velocity=0, time=4),
    Message('note_on', channel=2, note=72, velocity=0, time=0),
    Message('note_on', channel=2, note=64, velocity=0, time=0),
    Message('note_on', channel=2, note=67, velocity=0, time=0),
    Message('note_on', channel=2, note=48, velocity=0, time=0),
    Message('note_on', channel=2, note=36, velocity=89, time=24),
    Message('note_on', channel=2, note=60, velocity=114, time=0),
    Message('note_on', channel=2, note=72, velocity=114, time=0),
    Message('note_on', channel=2, note=64, velocity=114, time=0),
    Message('note_on', channel=2, note=67, velocity=114, time=0),
    Message('note_on', channel=2, note=48, velocity=89, time=0),
    Message('note_on', channel=2, note=36, velocity=0, time=20),
    Message('note_on', channel=2, note=60, velocity=0, time=0),
    Message('note_on', channel=2, note=72, velocity=0, time=0),
    Message('note_on', channel=2, note=64, velocity=0, time=0),
    Message('note_on', channel=2, note=67, velocity=0, time=0),
    Message('note_on', channel=2, note=48, velocity=0, time=4),
    Message('note_on', channel=2, note=58, velocity=101, time=168),
    Message('note_on', channel=2, note=73, velocity=101, time=0),
    Message('note_on', channel=2, note=64, velocity=101, time=0),
    Message('note_on', channel=2, note=68, velocity=101, time=0),
    Message('note_on', channel=2, note=36, velocity=101, time=0),
    Message('note_on', channel=2, note=48, velocity=89, time=0),
    Message('note_on', channel=2, note=36, velocity=0, time=32),
    Message('note_on', channel=2, note=58, velocity=0, time=1),
    Message('note_on', channel=2, note=73, velocity=0, time=0),
    Message('note_on', channel=2, note=64, velocity=0, time=0),
    Message('note_on', channel=2, note=68, velocity=0, time=0),
    Message('note_on', channel=2, note=48, velocity=0, time=0),
    Message('note_on', channel=2, note=58, velocity=66, time=31),
    Message('note_on', channel=2, note=73, velocity=66, time=0),
    Message('note_on', channel=2, note=64, velocity=66, time=0),
    Message('note_on', channel=2, note=68, velocity=66, time=0),
    Message('note_on', channel=2, note=36, velocity=77, time=0),
    Message('note_on', channel=2, note=48, velocity=66, time=0),
    Message('note_on', channel=2, note=36, velocity=0, time=36),
    Message('note_on', channel=2, note=58, velocity=0, time=7),
    Message('note_on', channel=2, note=73, velocity=0, time=0),
    Message('note_on', channel=2, note=64, velocity=0, time=0),
    Message('note_on', channel=2, note=68, velocity=0, time=0),
    Message('note_on', channel=2, note=48, velocity=0, time=0),
    Message('note_on', channel=2, note=48, velocity=66, time=21),
    Message('note_on', channel=2, note=58, velocity=101, time=0),
    Message('note_on', channel=2, note=73, velocity=101, time=0),
    Message('note_on', channel=2, note=64, velocity=101, time=0),
    Message('note_on', channel=2, note=68, velocity=101, time=0),
    Message('note_on', channel=2, note=36, velocity=89, time=0),
    Message('note_on', channel=2, note=36, velocity=0, time=33),
    Message('note_on', channel=2, note=48, velocity=0, time=3),
    Message('note_on', channel=2, note=58, velocity=0, time=0),
    Message('note_on', channel=2, note=73, velocity=0, time=0),
    Message('note_on', channel=2, note=64, velocity=0, time=0),
    Message('note_on', channel=2, note=68, velocity=0, time=0),
    Message('note_on', channel=2, note=58, velocity=116, time=28),
    Message('note_on', channel=2, note=73, velocity=116, time=0),
    Message('note_on', channel=2, note=64, velocity=116, time=0),
    Message('note_on', channel=2, note=68, velocity=116, time=0),
    Message('note_on', channel=2, note=36, velocity=101, time=0),
    Message('note_on', channel=2, note=48, velocity=101, time=0),
    Message('note_on', channel=2, note=58, velocity=0, time=19),
    Message('note_on', channel=2, note=73, velocity=0, time=0),
    Message('note_on', channel=2, note=64, velocity=0, time=0),
    Message('note_on', channel=2, note=68, velocity=0, time=0),
    Message('note_on', channel=2, note=36, velocity=0, time=3),
    Message('note_on', channel=2, note=48, velocity=0, time=0),
    Message('note_on', channel=2, note=58, velocity=114, time=170),
    Message('note_on', channel=2, note=73, velocity=114, time=0),
    Message('note_on', channel=2, note=64, velocity=114, time=0),
    Message('note_on', channel=2, note=68, velocity=114, time=0),
    Message('note_on', channel=2, note=36, velocity=101, time=0),
    Message('note_on', channel=2, note=48, velocity=89, time=0),
    Message('note_on', channel=2, note=36, velocity=0, time=32),
    Message('note_on', channel=2, note=58, velocity=0, time=1),
    Message('note_on', channel=2, note=73, velocity=0, time=0),
    Message('note_on', channel=2, note=64, velocity=0, time=0),
    Message('note_on', channel=2, note=68, velocity=0, time=0),
    Message('note_on', channel=2, note=48, velocity=0, time=2),
    Message('note_on', channel=2, note=58, velocity=77, time=29),
    Message('note_on', channel=2, note=73, velocity=77, time=0),
    Message('note_on', channel=2, note=64, velocity=77, time=0),
    Message('note_on', channel=2, note=68, velocity=77, time=0),
    Message('note_on', channel=2, note=36, velocity=77, time=0),
    Message('note_on', channel=2, note=48, velocity=49, time=0),
    Message('note_on', channel=2, note=36, velocity=0, time=38),
    Message('note_on', channel=2, note=48, velocity=0, time=3),
    Message('note_on', channel=2, note=58, velocity=0, time=3),
    Message('note_on', channel=2, note=73, velocity=0, time=0),
    Message('note_on', channel=2, note=64, velocity=0, time=0),
    Message('note_on', channel=2, note=68, velocity=0, time=0),
    Message('note_on', channel=2, note=58, velocity=101, time=20),
    Message('note_on', channel=2, note=73, velocity=101, time=0),
    Message('note_on', channel=2, note=64, velocity=101, time=0),
    Message('note_on', channel=2, note=68, velocity=101, time=0),
    Message('note_on', channel=2, note=48, velocity=66, time=0),
    Message('note_on', channel=2, note=36, velocity=89, time=0),
    Message('note_on', channel=2, note=36, velocity=0, time=36),
    Message('note_on', channel=2, note=58, velocity=0, time=4),
    Message('note_on', channel=2, note=73, velocity=0, time=0),
    Message('note_on', channel=2, note=64, velocity=0, time=0),
    Message('note_on', channel=2, note=68, velocity=0, time=0),
    Message('note_on', channel=2, note=48, velocity=0, time=0),
    Message('note_on', channel=2, note=36, velocity=89, time=24),
    Message('note_on', channel=2, note=58, velocity=114, time=0),
    Message('note_on', channel=2, note=73, velocity=114, time=0),
    Message('note_on', channel=2, note=64, velocity=114, time=0),
    Message('note_on', channel=2, note=68, velocity=114, time=0),
    Message('note_on', channel=2, note=48, velocity=89, time=0),
    Message('note_on', channel=2, note=36, velocity=0, time=20),
    Message('note_on', channel=2, note=58, velocity=0, time=0),
    Message('note_on', channel=2, note=73, velocity=0, time=0),
    Message('note_on', channel=2, note=64, velocity=0, time=0),
    Message('note_on', channel=2, note=68, velocity=0, time=0),
    Message('note_on', channel=2, note=48, velocity=0, time=4),
    Message('note_on', channel=2, note=65, velocity=101, time=168),
    Message('note_on', channel=2, note=57, velocity=101, time=0),
    Message('note_on', channel=2, note=72, velocity=101, time=0),
    Message('note_on', channel=2, note=41, velocity=101, time=0),
    Message('note_on', channel=2, note=53, velocity=89, time=0),
    Message('note_on', channel=2, note=41, velocity=0, time=32),
    Message('note_on', channel=2, note=65, velocity=0, time=1),
    Message('note_on', channel=2, note=57, velocity=0, time=0),
    Message('note_on', channel=2, note=72, velocity=0, time=0),
    Message('note_on', channel=2, note=53, velocity=0, time=0),
    Message('note_on', channel=2, note=65, velocity=66, time=31),
    Message('note_on', channel=2, note=57, velocity=66, time=0),
    Message('note_on', channel=2, note=72, velocity=66, time=0),
    Message('note_on', channel=2, note=41, velocity=77, time=0),
    Message('note_on', channel=2, note=53, velocity=66, time=0),
    Message('note_on', channel=2, note=41, velocity=0, time=36),
    Message('note_on', channel=2, note=65, velocity=0, time=7),
    Message('note_on', channel=2, note=57, velocity=0, time=0),
    Message('note_on', channel=2, note=72, velocity=0, time=0),
    Message('note_on', channel=2, note=53, velocity=0, time=0),
    Message('note_on', channel=2, note=53, velocity=66, time=21),
    Message('note_on', channel=2, note=65, velocity=101, time=0),
    Message('note_on', channel=2, note=57, velocity=101, time=0),
    Message('note_on', channel=2, note=72, velocity=101, time=0),
    Message('note_on', channel=2, note=41, velocity=89, time=0),
    Message('note_on', channel=2, note=41, velocity=0, time=33),
    Message('note_on', channel=2, note=53, velocity=0, time=3),
    Message('note_on', channel=2, note=65, velocity=0, time=0),
    Message('note_on', channel=2, note=57, velocity=0, time=0),
    Message('note_on', channel=2, note=72, velocity=0, time=0),
    Message('note_on', channel=2, note=65, velocity=116, time=28),
    Message('note_on', channel=2, note=57, velocity=116, time=0),
    Message('note_on', channel=2, note=72, velocity=116, time=0),
    Message('note_on', channel=2, note=41, velocity=101, time=0),
    Message('note_on', channel=2, note=53, velocity=101, time=0),
    Message('note_on', channel=2, note=65, velocity=0, time=19),
    Message('note_on', channel=2, note=57, velocity=0, time=0),
    Message('note_on', channel=2, note=72, velocity=0, time=0),
    Message('note_on', channel=2, note=41, velocity=0, time=3),
    Message('note_on', channel=2, note=53, velocity=0, time=0),
    Message('note_on', channel=2, note=65, velocity=114, time=170),
    Message('note_on', channel=2, note=57, velocity=114, time=0),
    Message('note_on', channel=2, note=72, velocity=114, time=0),
    Message('note_on', channel=2, note=41, velocity=101, time=0),
    Message('note_on', channel=2, note=53, velocity=89, time=0),
    Message('note_on', channel=2, note=41, velocity=0, time=32),
    Message('note_on', channel=2, note=65, velocity=0, time=1),
    Message('note_on', channel=2, note=57, velocity=0, time=0),
    Message('note_on', channel=2, note=72, velocity=0, time=0),
    Message('note_on', channel=2, note=53, velocity=0, time=2),
    Message('note_on', channel=2, note=65, velocity=77, time=29),
    Message('note_on', channel=2, note=57, velocity=77, time=0),
    Message('note_on', channel=2, note=72, velocity=77, time=0),
    Message('note_on', channel=2, note=41, velocity=77, time=0),
    Message('note_on', channel=2, note=53, velocity=49, time=0),
    Message('note_on', channel=2, note=41, velocity=0, time=38),
    Message('note_on', channel=2, note=53, velocity=0, time=3),
    Message('note_on', channel=2, note=65, velocity=0, time=3),
    Message('note_on', channel=2, note=57, velocity=0, time=0),
    Message('note_on', channel=2, note=72, velocity=0, time=0),
    Message('note_on', channel=2, note=65, velocity=101, time=20),
    Message('note_on', channel=2, note=57, velocity=101, time=0),
    Message('note_on', channel=2, note=72, velocity=101, time=0),
    Message('note_on', channel=2, note=53, velocity=66, time=0),
    Message('note_on', channel=2, note=41, velocity=89, time=0),
    Message('note_on', channel=2, note=41, velocity=0, time=36),
    Message('note_on', channel=2, note=65, velocity=0, time=4),
    Message('note_on', channel=2, note=57, velocity=0, time=0),
    Message('note_on', channel=2, note=72, velocity=0, time=0),
    Message('note_on', channel=2, note=53, velocity=0, time=0),
    Message('note_on', channel=2, note=41, velocity=89, time=24),
    Message('note_on', channel=2, note=65, velocity=114, time=0),
    Message('note_on', channel=2, note=57, velocity=114, time=0),
    Message('note_on', channel=2, note=72, velocity=114, time=0),
    Message('note_on', channel=2, note=53, velocity=89, time=0),
    Message('note_on', channel=2, note=41, velocity=0, time=20),
    Message('note_on', channel=2, note=65, velocity=0, time=0),
    Message('note_on', channel=2, note=57, velocity=0, time=0),
    Message('note_on', channel=2, note=72, velocity=0, time=0),
    Message('note_on', channel=2, note=53, velocity=0, time=4),
    Message('note_on', channel=2, note=41, velocity=101, time=168),
    Message('note_on', channel=2, note=65, velocity=114, time=0),
    Message('note_on', channel=2, note=57, velocity=114, time=0),
    Message('note_on', channel=2, note=72, velocity=114, time=0),
    Message('note_on', channel=2, note=53, velocity=89, time=0),
    Message('note_on', channel=2, note=41, velocity=0, time=33),
    Message('note_on', channel=2, note=65, velocity=0, time=2),
    Message('note_on', channel=2, note=57, velocity=0, time=0),
    Message('note_on', channel=2, note=72, velocity=0, time=0),
    Message('note_on', channel=2, note=53, velocity=0, time=0),
    Message('note_on', channel=2, note=65, velocity=89, time=29),
    Message('note_on', channel=2, note=57, velocity=89, time=0),
    Message('note_on', channel=2, note=72, velocity=89, time=0),
    Message('note_on', channel=2, note=41, velocity=89, time=0),
    Message('note_on', channel=2, note=53, velocity=77, time=0),
    Message('note_on', channel=2, note=41, velocity=0, time=41),
    Message('note_on', channel=2, note=65, velocity=0, time=3),
    Message('note_on', channel=2, note=57, velocity=0, time=0),
    Message('note_on', channel=2, note=72, velocity=0, time=0),
    Message('note_on', channel=2, note=53, velocity=0, time=0),
    Message('note_on', channel=2, note=65, velocity=114, time=20),
    Message('note_on', channel=2, note=57, velocity=114, time=0),
    Message('note_on', channel=2, note=72, velocity=114, time=0),
    Message('note_on', channel=2, note=41, velocity=89, time=0),
    Message('note_on', channel=2, note=53, velocity=66, time=0),
    Message('note_on', channel=2, note=41, velocity=0, time=35),
    Message('note_on', channel=2, note=53, velocity=0, time=0),
    Message('note_on', channel=2, note=65, velocity=0, time=5),
    Message('note_on', channel=2, note=57, velocity=0, time=0),
    Message('note_on', channel=2, note=72, velocity=0, time=0),
    Message('note_on', channel=2, note=65, velocity=114, time=24),
    Message('note_on', channel=2, note=57, velocity=114, time=0),
    Message('note_on', channel=2, note=72, velocity=114, time=0),
    Message('note_on', channel=2, note=41, velocity=101, time=0),
    Message('note_on', channel=2, note=53, velocity=101, time=0),
    Message('note_on', channel=2, note=65, velocity=0, time=17),
    Message('note_on', channel=2, note=57, velocity=0, time=0),
    Message('note_on', channel=2, note=72, velocity=0, time=0),
    Message('note_on', channel=2, note=41, velocity=0, time=2),
    Message('note_on', channel=2, note=53, velocity=0, time=1),
    Message('note_on', channel=2, note=65, velocity=114, time=172),
    Message('note_on', channel=2, note=57, velocity=114, time=0),
    Message('note_on', channel=2, note=72, velocity=114, time=0),
    Message('note_on', channel=2, note=41, velocity=89, time=0),
    Message('note_on', channel=2, note=53, velocity=101, time=0),
    Message('note_on', channel=2, note=41, velocity=0, time=36),
    Message('note_on', channel=2, note=53, velocity=0, time=2),
    Message('note_on', channel=2, note=65, velocity=0, time=2),
    Message('note_on', channel=2, note=57, velocity=0, time=0),
    Message('note_on', channel=2, note=72, velocity=0, time=0),
    Message('note_on', channel=2, note=65, velocity=77, time=24),
    Message('note_on', channel=2, note=57, velocity=77, time=0),
    Message('note_on', channel=2, note=72, velocity=77, time=0),
    Message('note_on', channel=2, note=41, velocity=77, time=0),
    Message('note_on', channel=2, note=53, velocity=40, time=0),
    Message('note_on', channel=2, note=41, velocity=0, time=40),
    Message('note_on', channel=2, note=65, velocity=0, time=1),
    Message('note_on', channel=2, note=57, velocity=0, time=0),
    Message('note_on', channel=2, note=72, velocity=0, time=0),
    Message('note_on', channel=2, note=53, velocity=0, time=0),
    Message('note_on', channel=2, note=65, velocity=101, time=23),
    Message('note_on', channel=2, note=57, velocity=101, time=0),
    Message('note_on', channel=2, note=72, velocity=101, time=0),
    Message('note_on', channel=2, note=53, velocity=77, time=0),
    Message('note_on', channel=2, note=41, velocity=89, time=0),
    Message('note_on', channel=2, note=41, velocity=0, time=40),
    Message('note_on', channel=2, note=53, velocity=0, time=1),
    Message('note_on', channel=2, note=65, velocity=0, time=2),
    Message('note_on', channel=2, note=57, velocity=0, time=0),
    Message('note_on', channel=2, note=72, velocity=0, time=0),
    Message('note_on', channel=2, note=41, velocity=101, time=21),
    Message('note_on', channel=2, note=65, velocity=114, time=0),
    Message('note_on', channel=2, note=57, velocity=114, time=0),
    Message('note_on', channel=2, note=72, velocity=114, time=0),
    Message('note_on', channel=2, note=53, velocity=101, time=0),
    Message('note_on', channel=2, note=65, velocity=0, time=19),
    Message('note_on', channel=2, note=57, velocity=0, time=0),
    Message('note_on', channel=2, note=72, velocity=0, time=0),
    Message('note_on', channel=2, note=41, velocity=0, time=1),
    Message('note_on', channel=2, note=53, velocity=0, time=0),
    Message('note_on', channel=2, note=60, velocity=101, time=172),
    Message('note_on', channel=2, note=74, velocity=101, time=0),
    Message('note_on', channel=2, note=65, velocity=101, time=0),
    Message('note_on', channel=2, note=69, velocity=101, time=0),
    Message('note_on', channel=2, note=38, velocity=101, time=0),
    Message('note_on', channel=2, note=50, velocity=89, time=0),
    Message('note_on', channel=2, note=38, velocity=0, time=32),
    Message('note_on', channel=2, note=60, velocity=0, time=1),
    Message('note_on', channel=2, note=74, velocity=0, time=0),
    Message('note_on', channel=2, note=65, velocity=0, time=0),
    Message('note_on', channel=2, note=69, velocity=0, time=0),
    Message('note_on', channel=2, note=50, velocity=0, time=0),
    Message('note_on', channel=2, note=60, velocity=66, time=31),
    Message('note_on', channel=2, note=74, velocity=66, time=0),
    Message('note_on', channel=2, note=65, velocity=66, time=0),
    Message('note_on', channel=2, note=69, velocity=66, time=0),
    Message('note_on', channel=2, note=38, velocity=77, time=0),
    Message('note_on', channel=2, note=50, velocity=66, time=0),
    Message('note_on', channel=2, note=38, velocity=0, time=36),
    Message('note_on', channel=2, note=60, velocity=0, time=7),
    Message('note_on', channel=2, note=74, velocity=0, time=0),
    Message('note_on', channel=2, note=65, velocity=0, time=0),
    Message('note_on', channel=2, note=69, velocity=0, time=0),
    Message('note_on', channel=2, note=50, velocity=0, time=0),
    Message('note_on', channel=2, note=50, velocity=66, time=21),
    Message('note_on', channel=2, note=60, velocity=101, time=0),
    Message('note_on', channel=2, note=74, velocity=101, time=0),
    Message('note_on', channel=2, note=65, velocity=101, time=0),
    Message('note_on', channel=2, note=69, velocity=101, time=0),
    Message('note_on', channel=2, note=38, velocity=89, time=0),
    Message('note_on', channel=2, note=38, velocity=0, time=33),
    Message('note_on', channel=2, note=50, velocity=0, time=3),
    Message('note_on', channel=2, note=60, velocity=0, time=0),
    Message('note_on', channel=2, note=74, velocity=0, time=0),
    Message('note_on', channel=2, note=65, velocity=0, time=0),
    Message('note_on', channel=2, note=69, velocity=0, time=0),
    Message('note_on', channel=2, note=60, velocity=116, time=28),
    Message('note_on', channel=2, note=74, velocity=116, time=0),
    Message('note_on', channel=2, note=65, velocity=116, time=0),
    Message('note_on', channel=2, note=69, velocity=116, time=0),
    Message('note_on', channel=2, note=38, velocity=101, time=0),
    Message('note_on', channel=2, note=50, velocity=101, time=0),
    Message('note_on', channel=2, note=60, velocity=0, time=19),
    Message('note_on', channel=2, note=74, velocity=0, time=0),
    Message('note_on', channel=2, note=65, velocity=0, time=0),
    Message('note_on', channel=2, note=69, velocity=0, time=0),
    Message('note_on', channel=2, note=38, velocity=0, time=3),
    Message('note_on', channel=2, note=50, velocity=0, time=0),
    Message('note_on', channel=2, note=60, velocity=114, time=170),
    Message('note_on', channel=2, note=74, velocity=114, time=0),
    Message('note_on', channel=2, note=65, velocity=114, time=0),
    Message('note_on', channel=2, note=69, velocity=114, time=0),
    Message('note_on', channel=2, note=38, velocity=101, time=0),
    Message('note_on', channel=2, note=50, velocity=89, time=0),
    Message('note_on', channel=2, note=38, velocity=0, time=32),
    Message('note_on', channel=2, note=60, velocity=0, time=1),
    Message('note_on', channel=2, note=74, velocity=0, time=0),
    Message('note_on', channel=2, note=65, velocity=0, time=0),
    Message('note_on', channel=2, note=69, velocity=0, time=0),
    Message('note_on', channel=2, note=50, velocity=0, time=2),
    Message('note_on', channel=2, note=60, velocity=77, time=29),
    Message('note_on', channel=2, note=74, velocity=77, time=0),
    Message('note_on', channel=2, note=65, velocity=77, time=0),
    Message('note_on', channel=2, note=69, velocity=77, time=0),
    Message('note_on', channel=2, note=38, velocity=77, time=0),
    Message('note_on', channel=2, note=50, velocity=49, time=0),
    Message('note_on', channel=2, note=38, velocity=0, time=38),
    Message('note_on', channel=2, note=50, velocity=0, time=3),
    Message('note_on', channel=2, note=60, velocity=0, time=3),
    Message('note_on', channel=2, note=74, velocity=0, time=0),
    Message('note_on', channel=2, note=65, velocity=0, time=0),
    Message('note_on', channel=2, note=69, velocity=0, time=0),
    Message('note_on', channel=2, note=60, velocity=101, time=20),
    Message('note_on', channel=2, note=74, velocity=101, time=0),
    Message('note_on', channel=2, note=65, velocity=101, time=0),
    Message('note_on', channel=2, note=69, velocity=101, time=0),
    Message('note_on', channel=2, note=50, velocity=66, time=0),
    Message('note_on', channel=2, note=38, velocity=89, time=0),
    Message('note_on', channel=2, note=38, velocity=0, time=36),
    Message('note_on', channel=2, note=60, velocity=0, time=4),
    Message('note_on', channel=2, note=74, velocity=0, time=0),
    Message('note_on', channel=2, note=65, velocity=0, time=0),
    Message('note_on', channel=2, note=69, velocity=0, time=0),
    Message('note_on', channel=2, note=50, velocity=0, time=0),
    Message('note_on', channel=2, note=38, velocity=89, time=24),
    Message('note_on', channel=2, note=60, velocity=114, time=0),
    Message('note_on', channel=2, note=74, velocity=114, time=0),
    Message('note_on', channel=2, note=65, velocity=114, time=0),
    Message('note_on', channel=2, note=69, velocity=114, time=0),
    Message('note_on', channel=2, note=50, velocity=89, time=0),
    Message('note_on', channel=2, note=38, velocity=0, time=20),
    Message('note_on', channel=2, note=60, velocity=0, time=0),
    Message('note_on', channel=2, note=74, velocity=0, time=0),
    Message('note_on', channel=2, note=65, velocity=0, time=0),
    Message('note_on', channel=2, note=69, velocity=0, time=0),
    Message('note_on', channel=2, note=50, velocity=0, time=4),
    Message('note_on', channel=2, note=65, velocity=101, time=168),
    Message('note_on', channel=2, note=67, velocity=101, time=0),
    Message('note_on', channel=2, note=59, velocity=101, time=0),
    Message('note_on', channel=2, note=74, velocity=101, time=0),
    Message('note_on', channel=2, note=43, velocity=101, time=0),
    Message('note_on', channel=2, note=43, velocity=0, time=32),
    Message('note_on', channel=2, note=65, velocity=0, time=1),
    Message('note_on', channel=2, note=67, velocity=0, time=0),
    Message('note_on', channel=2, note=59, velocity=0, time=0),
    Message('note_on', channel=2, note=74, velocity=0, time=0),
    Message('note_on', channel=2, note=65, velocity=66, time=31),
    Message('note_on', channel=2, note=67, velocity=66, time=0),
    Message('note_on', channel=2, note=59, velocity=66, time=0),
    Message('note_on', channel=2, note=74, velocity=66, time=0),
    Message('note_on', channel=2, note=43, velocity=77, time=0),
    Message('note_on', channel=2, note=43, velocity=0, time=36),
    Message('note_on', channel=2, note=65, velocity=0, time=7),
    Message('note_on', channel=2, note=67, velocity=0, time=0),
    Message('note_on', channel=2, note=59, velocity=0, time=0),
    Message('note_on', channel=2, note=74, velocity=0, time=0),
    Message('note_on', channel=2, note=43, velocity=66, time=21),
    Message('note_on', channel=2, note=65, velocity=101, time=0),
    Message('note_on', channel=2, note=67, velocity=101, time=0),
    Message('note_on', channel=2, note=59, velocity=101, time=0),
    Message('note_on', channel=2, note=74, velocity=101, time=0),
    Message('note_on', channel=2, note=43, velocity=0, time=33),
    Message('note_on', channel=2, note=65, velocity=0, time=3),
    Message('note_on', channel=2, note=67, velocity=0, time=0),
    Message('note_on', channel=2, note=59, velocity=0, time=0),
    Message('note_on', channel=2, note=74, velocity=0, time=0),
    Message('note_on', channel=2, note=65, velocity=116, time=28),
    Message('note_on', channel=2, note=67, velocity=116, time=0),
    Message('note_on', channel=2, note=59, velocity=116, time=0),
    Message('note_on', channel=2, note=74, velocity=116, time=0),
    Message('note_on', channel=2, note=43, velocity=101, time=0),
    Message('note_on', channel=2, note=65, velocity=0, time=19),
    Message('note_on', channel=2, note=67, velocity=0, time=0),
    Message('note_on', channel=2, note=59, velocity=0, time=0),
    Message('note_on', channel=2, note=74, velocity=0, time=0),
    Message('note_on', channel=2, note=43, velocity=0, time=3),
    Message('note_on', channel=2, note=65, velocity=114, time=170),
    Message('note_on', channel=2, note=67, velocity=114, time=0),
    Message('note_on', channel=2, note=59, velocity=114, time=0),
    Message('note_on', channel=2, note=74, velocity=114, time=0),
    Message('note_on', channel=2, note=43, velocity=101, time=0),
    Message('note_on', channel=2, note=43, velocity=0, time=32),
    Message('note_on', channel=2, note=65, velocity=0, time=1),
    Message('note_on', channel=2, note=67, velocity=0, time=0),
    Message('note_on', channel=2, note=59, velocity=0, time=0),
    Message('note_on', channel=2, note=74, velocity=0, time=0),
    Message('note_on', channel=2, note=65, velocity=77, time=31),
    Message('note_on', channel=2, note=67, velocity=77, time=0),
    Message('note_on', channel=2, note=59, velocity=77, time=0),
    Message('note_on', channel=2, note=74, velocity=77, time=0),
    Message('note_on', channel=2, note=43, velocity=77, time=0),
    Message('note_on', channel=2, note=43, velocity=0, time=38),
    Message('note_on', channel=2, note=65, velocity=0, time=6),
    Message('note_on', channel=2, note=67, velocity=0, time=0),
    Message('note_on', channel=2, note=59, velocity=0, time=0),
    Message('note_on', channel=2, note=74, velocity=0, time=0),
    Message('note_on', channel=2, note=65, velocity=101, time=20),
    Message('note_on', channel=2, note=67, velocity=101, time=0),
    Message('note_on', channel=2, note=59, velocity=101, time=0),
    Message('note_on', channel=2, note=74, velocity=101, time=0),
    Message('note_on', channel=2, note=43, velocity=66, time=0),
    Message('note_on', channel=2, note=43, velocity=0, time=36),
    Message('note_on', channel=2, note=65, velocity=0, time=4),
    Message('note_on', channel=2, note=67, velocity=0, time=0),
    Message('note_on', channel=2, note=59, velocity=0, time=0),
    Message('note_on', channel=2, note=74, velocity=0, time=0),
    Message('note_on', channel=2, note=43, velocity=89, time=24),
    Message('note_on', channel=2, note=65, velocity=114, time=0),
    Message('note_on', channel=2, note=67, velocity=114, time=0),
    Message('note_on', channel=2, note=59, velocity=114, time=0),
    Message('note_on', channel=2, note=74, velocity=114, time=0),
    Message('note_on', channel=2, note=43, velocity=0, time=20),
    Message('note_on', channel=2, note=65, velocity=0, time=0),
    Message('note_on', channel=2, note=67, velocity=0, time=0),
    Message('note_on', channel=2, note=59, velocity=0, time=0),
    Message('note_on', channel=2, note=74, velocity=0, time=0),
    Message('note_on', channel=2, note=62, velocity=101, time=172),
    Message('note_on', channel=2, note=64, velocity=101, time=0),
    Message('note_on', channel=2, note=55, velocity=101, time=0),
    Message('note_on', channel=2, note=71, velocity=101, time=0),
    Message('note_on', channel=2, note=40, velocity=101, time=0),
    Message('note_on', channel=2, note=52, velocity=89, time=0),
    Message('note_on', channel=2, note=40, velocity=0, time=32),
    Message('note_on', channel=2, note=62, velocity=0, time=1),
    Message('note_on', channel=2, note=64, velocity=0, time=0),
    Message('note_on', channel=2, note=55, velocity=0, time=0),
    Message('note_on', channel=2, note=71, velocity=0, time=0),
    Message('note_on', channel=2, note=52, velocity=0, time=0),
    Message('note_on', channel=2, note=62, velocity=66, time=31),
    Message('note_on', channel=2, note=64, velocity=66, time=0),
    Message('note_on', channel=2, note=55, velocity=66, time=0),
    Message('note_on', channel=2, note=71, velocity=66, time=0),
    Message('note_on', channel=2, note=40, velocity=77, time=0),
    Message('note_on', channel=2, note=52, velocity=66, time=0),
    Message('note_on', channel=2, note=40, velocity=0, time=36),
    Message('note_on', channel=2, note=62, velocity=0, time=7),
    Message('note_on', channel=2, note=64, velocity=0, time=0),
    Message('note_on', channel=2, note=55, velocity=0, time=0),
    Message('note_on', channel=2, note=71, velocity=0, time=0),
    Message('note_on', channel=2, note=52, velocity=0, time=0),
    Message('note_on', channel=2, note=52, velocity=66, time=21),
    Message('note_on', channel=2, note=62, velocity=101, time=0),
    Message('note_on', channel=2, note=64, velocity=101, time=0),
    Message('note_on', channel=2, note=55, velocity=101, time=0),
    Message('note_on', channel=2, note=71, velocity=101, time=0),
    Message('note_on', channel=2, note=40, velocity=89, time=0),
    Message('note_on', channel=2, note=40, velocity=0, time=33),
    Message('note_on', channel=2, note=52, velocity=0, time=3),
    Message('note_on', channel=2, note=62, velocity=0, time=0),
    Message('note_on', channel=2, note=64, velocity=0, time=0),
    Message('note_on', channel=2, note=55, velocity=0, time=0),
    Message('note_on', channel=2, note=71, velocity=0, time=0),
    Message('note_on', channel=2, note=62, velocity=116, time=28),
    Message('note_on', channel=2, note=64, velocity=116, time=0),
    Message('note_on', channel=2, note=55, velocity=116, time=0),
    Message('note_on', channel=2, note=71, velocity=116, time=0),
    Message('note_on', channel=2, note=40, velocity=101, time=0),
    Message('note_on', channel=2, note=52, velocity=101, time=0),
    Message('note_on', channel=2, note=62, velocity=0, time=19),
    Message('note_on', channel=2, note=64, velocity=0, time=0),
    Message('note_on', channel=2, note=55, velocity=0, time=0),
    Message('note_on', channel=2, note=71, velocity=0, time=0),
    Message('note_on', channel=2, note=40, velocity=0, time=3),
    Message('note_on', channel=2, note=52, velocity=0, time=0),
    Message('note_on', channel=2, note=62, velocity=114, time=170),
    Message('note_on', channel=2, note=64, velocity=114, time=0),
    Message('note_on', channel=2, note=55, velocity=114, time=0),
    Message('note_on', channel=2, note=71, velocity=114, time=0),
    Message('note_on', channel=2, note=40, velocity=101, time=0),
    Message('note_on', channel=2, note=52, velocity=89, time=0),
    Message('note_on', channel=2, note=40, velocity=0, time=32),
    Message('note_on', channel=2, note=62, velocity=0, time=1),
    Message('note_on', channel=2, note=64, velocity=0, time=0),
    Message('note_on', channel=2, note=55, velocity=0, time=0),
    Message('note_on', channel=2, note=71, velocity=0, time=0),
    Message('note_on', channel=2, note=52, velocity=0, time=2),
    Message('note_on', channel=2, note=62, velocity=77, time=29),
    Message('note_on', channel=2, note=64, velocity=77, time=0),
    Message('note_on', channel=2, note=55, velocity=77, time=0),
    Message('note_on', channel=2, note=71, velocity=77, time=0),
    Message('note_on', channel=2, note=40, velocity=77, time=0),
    Message('note_on', channel=2, note=52, velocity=49, time=0),
    Message('note_on', channel=2, note=40, velocity=0, time=38),
    Message('note_on', channel=2, note=52, velocity=0, time=3),
    Message('note_on', channel=2, note=62, velocity=0, time=3),
    Message('note_on', channel=2, note=64, velocity=0, time=0),
    Message('note_on', channel=2, note=55, velocity=0, time=0),
    Message('note_on', channel=2, note=71, velocity=0, time=0),
    Message('note_on', channel=2, note=62, velocity=101, time=20),
    Message('note_on', channel=2, note=64, velocity=101, time=0),
    Message('note_on', channel=2, note=55, velocity=101, time=0),
    Message('note_on', channel=2, note=71, velocity=101, time=0),
    Message('note_on', channel=2, note=52, velocity=66, time=0),
    Message('note_on', channel=2, note=40, velocity=89, time=0),
    Message('note_on', channel=2, note=40, velocity=0, time=36),
    Message('note_on', channel=2, note=62, velocity=0, time=4),
    Message('note_on', channel=2, note=64, velocity=0, time=0),
    Message('note_on', channel=2, note=55, velocity=0, time=0),
    Message('note_on', channel=2, note=71, velocity=0, time=0),
    Message('note_on', channel=2, note=52, velocity=0, time=0),
    Message('note_on', channel=2, note=40, velocity=89, time=24),
    Message('note_on', channel=2, note=62, velocity=114, time=0),
    Message('note_on', channel=2, note=64, velocity=114, time=0),
    Message('note_on', channel=2, note=55, velocity=114, time=0),
    Message('note_on', channel=2, note=71, velocity=114, time=0),
    Message('note_on', channel=2, note=52, velocity=89, time=0),
    Message('note_on', channel=2, note=40, velocity=0, time=20),
    Message('note_on', channel=2, note=62, velocity=0, time=0),
    Message('note_on', channel=2, note=64, velocity=0, time=0),
    Message('note_on', channel=2, note=55, velocity=0, time=0),
    Message('note_on', channel=2, note=71, velocity=0, time=0),
    Message('note_on', channel=2, note=52, velocity=0, time=4),
    Message('note_on', channel=2, note=57, velocity=101, time=168),
    Message('note_on', channel=2, note=60, velocity=101, time=0),
    Message('note_on', channel=2, note=64, velocity=101, time=0),
    Message('note_on', channel=2, note=45, velocity=101, time=0),
    Message('note_on', channel=2, note=45, velocity=0, time=32),
    Message('note_on', channel=2, note=57, velocity=0, time=1),
    Message('note_on', channel=2, note=60, velocity=0, time=0),
    Message('note_on', channel=2, note=64, velocity=0, time=0),
    Message('note_on', channel=2, note=57, velocity=66, time=31),
    Message('note_on', channel=2, note=60, velocity=66, time=0),
    Message('note_on', channel=2, note=64, velocity=66, time=0),
    Message('note_on', channel=2, note=45, velocity=77, time=0),
    Message('note_on', channel=2, note=45, velocity=0, time=36),
    Message('note_on', channel=2, note=57, velocity=0, time=7),
    Message('note_on', channel=2, note=60, velocity=0, time=0),
    Message('note_on', channel=2, note=64, velocity=0, time=0),
    Message('note_on', channel=2, note=45, velocity=66, time=21),
    Message('note_on', channel=2, note=57, velocity=101, time=0),
    Message('note_on', channel=2, note=60, velocity=101, time=0),
    Message('note_on', channel=2, note=64, velocity=101, time=0),
    Message('note_on', channel=2, note=45, velocity=0, time=33),
    Message('note_on', channel=2, note=57, velocity=0, time=3),
    Message('note_on', channel=2, note=60, velocity=0, time=0),
    Message('note_on', channel=2, note=64, velocity=0, time=0),
    Message('note_on', channel=2, note=57, velocity=116, time=28),
    Message('note_on', channel=2, note=60, velocity=116, time=0),
    Message('note_on', channel=2, note=64, velocity=116, time=0),
    Message('note_on', channel=2, note=45, velocity=101, time=0),
    Message('note_on', channel=2, note=57, velocity=0, time=19),
    Message('note_on', channel=2, note=60, velocity=0, time=0),
    Message('note_on', channel=2, note=64, velocity=0, time=0),
    Message('note_on', channel=2, note=45, velocity=0, time=3),
    Message('note_on', channel=2, note=57, velocity=114, time=170),
    Message('note_on', channel=2, note=60, velocity=114, time=0),
    Message('note_on', channel=2, note=64, velocity=114, time=0),
    Message('note_on', channel=2, note=45, velocity=101, time=0),
    Message('note_on', channel=2, note=45, velocity=0, time=32),
    Message('note_on', channel=2, note=57, velocity=0, time=1),
    Message('note_on', channel=2, note=60, velocity=0, time=0),
    Message('note_on', channel=2, note=64, velocity=0, time=0),
    Message('note_on', channel=2, note=57, velocity=77, time=31),
    Message('note_on', channel=2, note=60, velocity=77, time=0),
    Message('note_on', channel=2, note=64, velocity=77, time=0),
    Message('note_on', channel=2, note=45, velocity=77, time=0),
    Message('note_on', channel=2, note=45, velocity=0, time=38),
    Message('note_on', channel=2, note=57, velocity=0, time=6),
    Message('note_on', channel=2, note=60, velocity=0, time=0),
    Message('note_on', channel=2, note=64, velocity=0, time=0),
    Message('note_on', channel=2, note=57, velocity=101, time=20),
    Message('note_on', channel=2, note=60, velocity=101, time=0),
    Message('note_on', channel=2, note=64, velocity=101, time=0),
    Message('note_on', channel=2, note=45, velocity=66, time=0),
    Message('note_on', channel=2, note=45, velocity=0, time=36),
    Message('note_on', channel=2, note=57, velocity=0, time=4),
    Message('note_on', channel=2, note=60, velocity=0, time=0),
    Message('note_on', channel=2, note=64, velocity=0, time=0),
    Message('note_on', channel=2, note=45, velocity=89, time=24),
    Message('note_on', channel=2, note=57, velocity=114, time=0),
    Message('note_on', channel=2, note=60, velocity=114, time=0),
    Message('note_on', channel=2, note=64, velocity=114, time=0),
    Message('note_on', channel=2, note=45, velocity=0, time=20),
    Message('note_on', channel=2, note=57, velocity=0, time=0),
    Message('note_on', channel=2, note=60, velocity=0, time=0),
    Message('note_on', channel=2, note=64, velocity=0, time=0),
    Message('note_on', channel=2, note=60, velocity=101, time=172),
    Message('note_on', channel=2, note=64, velocity=101, time=0),
    Message('note_on', channel=2, note=53, velocity=101, time=0),
    Message('note_on', channel=2, note=57, velocity=101, time=0),
    Message('note_on', channel=2, note=38, velocity=101, time=0),
    Message('note_on', channel=2, note=50, velocity=89, time=0),
    Message('note_on', channel=2, note=38, velocity=0, time=32),
    Message('note_on', channel=2, note=60, velocity=0, time=1),
    Message('note_on', channel=2, note=64, velocity=0, time=0),
    Message('note_on', channel=2, note=53, velocity=0, time=0),
    Message('note_on', channel=2, note=57, velocity=0, time=0),
    Message('note_on', channel=2, note=50, velocity=0, time=0),
    Message('note_on', channel=2, note=60, velocity=66, time=31),
    Message('note_on', channel=2, note=64, velocity=66, time=0),
    Message('note_on', channel=2, note=53, velocity=66, time=0),
    Message('note_on', channel=2, note=57, velocity=66, time=0),
    Message('note_on', channel=2, note=38, velocity=77, time=0),
    Message('note_on', channel=2, note=50, velocity=66, time=0),
    Message('note_on', channel=2, note=38, velocity=0, time=36),
    Message('note_on', channel=2, note=60, velocity=0, time=7),
    Message('note_on', channel=2, note=64, velocity=0, time=0),
    Message('note_on', channel=2, note=53, velocity=0, time=0),
    Message('note_on', channel=2, note=57, velocity=0, time=0),
    Message('note_on', channel=2, note=50, velocity=0, time=0),
    Message('note_on', channel=2, note=50, velocity=66, time=21),
    Message('note_on', channel=2, note=60, velocity=101, time=0),
    Message('note_on', channel=2, note=64, velocity=101, time=0),
    Message('note_on', channel=2, note=53, velocity=101, time=0),
    Message('note_on', channel=2, note=57, velocity=101, time=0),
    Message('note_on', channel=2, note=38, velocity=89, time=0),
    Message('note_on', channel=2, note=38, velocity=0, time=33),
    Message('note_on', channel=2, note=50, velocity=0, time=3),
    Message('note_on', channel=2, note=60, velocity=0, time=0),
    Message('note_on', channel=2, note=64, velocity=0, time=0),
    Message('note_on', channel=2, note=53, velocity=0, time=0),
    Message('note_on', channel=2, note=57, velocity=0, time=0),
    Message('note_on', channel=2, note=60, velocity=116, time=28),
    Message('note_on', channel=2, note=64, velocity=116, time=0),
    Message('note_on', channel=2, note=53, velocity=116, time=0),
    Message('note_on', channel=2, note=57, velocity=116, time=0),
    Message('note_on', channel=2, note=38, velocity=101, time=0),
    Message('note_on', channel=2, note=50, velocity=101, time=0),
    Message('note_on', channel=2, note=60, velocity=0, time=19),
    Message('note_on', channel=2, note=64, velocity=0, time=0),
    Message('note_on', channel=2, note=53, velocity=0, time=0),
    Message('note_on', channel=2, note=57, velocity=0, time=0),
    Message('note_on', channel=2, note=38, velocity=0, time=3),
    Message('note_on', channel=2, note=50, velocity=0, time=0),
    Message('note_on', channel=2, note=60, velocity=114, time=170),
    Message('note_on', channel=2, note=64, velocity=114, time=0),
    Message('note_on', channel=2, note=53, velocity=114, time=0),
    Message('note_on', channel=2, note=57, velocity=114, time=0),
    Message('note_on', channel=2, note=38, velocity=101, time=0),
    Message('note_on', channel=2, note=50, velocity=89, time=0),
    Message('note_on', channel=2, note=38, velocity=0, time=32),
    Message('note_on', channel=2, note=60, velocity=0, time=1),
    Message('note_on', channel=2, note=64, velocity=0, time=0),
    Message('note_on', channel=2, note=53, velocity=0, time=0),
    Message('note_on', channel=2, note=57, velocity=0, time=0),
    Message('note_on', channel=2, note=50, velocity=0, time=2),
    Message('note_on', channel=2, note=60, velocity=77, time=29),
    Message('note_on', channel=2, note=64, velocity=77, time=0),
    Message('note_on', channel=2, note=53, velocity=77, time=0),
    Message('note_on', channel=2, note=57, velocity=77, time=0),
    Message('note_on', channel=2, note=38, velocity=77, time=0),
    Message('note_on', channel=2, note=50, velocity=49, time=0),
    Message('note_on', channel=2, note=38, velocity=0, time=38),
    Message('note_on', channel=2, note=50, velocity=0, time=3),
    Message('note_on', channel=2, note=60, velocity=0, time=3),
    Message('note_on', channel=2, note=64, velocity=0, time=0),
    Message('note_on', channel=2, note=53, velocity=0, time=0),
    Message('note_on', channel=2, note=57, velocity=0, time=0),
    Message('note_on', channel=2, note=60, velocity=101, time=20),
    Message('note_on', channel=2, note=64, velocity=101, time=0),
    Message('note_on', channel=2, note=53, velocity=101, time=0),
    Message('note_on', channel=2, note=57, velocity=101, time=0),
    Message('note_on', channel=2, note=50, velocity=66, time=0),
    Message('note_on', channel=2, note=38, velocity=89, time=0),
    Message('note_on', channel=2, note=38, velocity=0, time=36),
    Message('note_on', channel=2, note=60, velocity=0, time=4),
    Message('note_on', channel=2, note=64, velocity=0, time=0),
    Message('note_on', channel=2, note=53, velocity=0, time=0),
    Message('note_on', channel=2, note=57, velocity=0, time=0),
    Message('note_on', channel=2, note=50, velocity=0, time=0),
    Message('note_on', channel=2, note=38, velocity=89, time=24),
    Message('note_on', channel=2, note=60, velocity=114, time=0),
    Message('note_on', channel=2, note=64, velocity=114, time=0),
    Message('note_on', channel=2, note=53, velocity=114, time=0),
    Message('note_on', channel=2, note=57, velocity=114, time=0),
    Message('note_on', channel=2, note=50, velocity=89, time=0),
    Message('note_on', channel=2, note=38, velocity=0, time=20),
    Message('note_on', channel=2, note=60, velocity=0, time=0),
    Message('note_on', channel=2, note=64, velocity=0, time=0),
    Message('note_on', channel=2, note=53, velocity=0, time=0),
    Message('note_on', channel=2, note=57, velocity=0, time=0),
    Message('note_on', channel=2, note=50, velocity=0, time=4),
    Message('note_on', channel=2, note=53, velocity=101, time=168),
    Message('note_on', channel=2, note=69, velocity=101, time=0),
    Message('note_on', channel=2, note=59, velocity=101, time=0),
    Message('note_on', channel=2, note=64, velocity=101, time=0),
    Message('note_on', channel=2, note=43, velocity=101, time=0),
    Message('note_on', channel=2, note=43, velocity=0, time=32),
    Message('note_on', channel=2, note=53, velocity=0, time=1),
    Message('note_on', channel=2, note=69, velocity=0, time=0),
    Message('note_on', channel=2, note=59, velocity=0, time=0),
    Message('note_on', channel=2, note=64, velocity=0, time=0),
    Message('note_on', channel=2, note=53, velocity=66, time=31),
    Message('note_on', channel=2, note=69, velocity=66, time=0),
    Message('note_on', channel=2, note=59, velocity=66, time=0),
    Message('note_on', channel=2, note=64, velocity=66, time=0),
    Message('note_on', channel=2, note=43, velocity=77, time=0),
    Message('note_on', channel=2, note=43, velocity=0, time=36),
    Message('note_on', channel=2, note=53, velocity=0, time=7),
    Message('note_on', channel=2, note=69, velocity=0, time=0),
    Message('note_on', channel=2, note=59, velocity=0, time=0),
    Message('note_on', channel=2, note=64, velocity=0, time=0),
    Message('note_on', channel=2, note=43, velocity=66, time=21),
    Message('note_on', channel=2, note=53, velocity=101, time=0),
    Message('note_on', channel=2, note=69, velocity=101, time=0),
    Message('note_on', channel=2, note=59, velocity=101, time=0),
    Message('note_on', channel=2, note=64, velocity=101, time=0),
    Message('note_on', channel=2, note=43, velocity=0, time=33),
    Message('note_on', channel=2, note=53, velocity=0, time=3),
    Message('note_on', channel=2, note=69, velocity=0, time=0),
    Message('note_on', channel=2, note=59, velocity=0, time=0),
    Message('note_on', channel=2, note=64, velocity=0, time=0),
    Message('note_on', channel=2, note=53, velocity=116, time=28),
    Message('note_on', channel=2, note=69, velocity=116, time=0),
    Message('note_on', channel=2, note=59, velocity=116, time=0),
    Message('note_on', channel=2, note=64, velocity=116, time=0),
    Message('note_on', channel=2, note=43, velocity=101, time=0),
    Message('note_on', channel=2, note=53, velocity=0, time=19),
    Message('note_on', channel=2, note=69, velocity=0, time=0),
    Message('note_on', channel=2, note=59, velocity=0, time=0),
    Message('note_on', channel=2, note=64, velocity=0, time=0),
    Message('note_on', channel=2, note=43, velocity=0, time=3),
    Message('note_on', channel=2, note=53, velocity=114, time=170),
    Message('note_on', channel=2, note=69, velocity=114, time=0),
    Message('note_on', channel=2, note=59, velocity=114, time=0),
    Message('note_on', channel=2, note=64, velocity=114, time=0),
    Message('note_on', channel=2, note=43, velocity=101, time=0),
    Message('note_on', channel=2, note=43, velocity=0, time=32),
    Message('note_on', channel=2, note=53, velocity=0, time=1),
    Message('note_on', channel=2, note=69, velocity=0, time=0),
    Message('note_on', channel=2, note=59, velocity=0, time=0),
    Message('note_on', channel=2, note=64, velocity=0, time=0),
    Message('note_on', channel=2, note=53, velocity=77, time=31),
    Message('note_on', channel=2, note=69, velocity=77, time=0),
    Message('note_on', channel=2, note=59, velocity=77, time=0),
    Message('note_on', channel=2, note=64, velocity=77, time=0),
    Message('note_on', channel=2, note=43, velocity=77, time=0),
    Message('note_on', channel=2, note=43, velocity=0, time=38),
    Message('note_on', channel=2, note=53, velocity=0, time=6),
    Message('note_on', channel=2, note=69, velocity=0, time=0),
    Message('note_on', channel=2, note=59, velocity=0, time=0),
    Message('note_on', channel=2, note=64, velocity=0, time=0),
    Message('note_on', channel=2, note=53, velocity=101, time=20),
    Message('note_on', channel=2, note=69, velocity=101, time=0),
    Message('note_on', channel=2, note=59, velocity=101, time=0),
    Message('note_on', channel=2, note=64, velocity=101, time=0),
    Message('note_on', channel=2, note=43, velocity=66, time=0),
    Message('note_on', channel=2, note=43, velocity=0, time=36),
    Message('note_on', channel=2, note=53, velocity=0, time=4),
    Message('note_on', channel=2, note=69, velocity=0, time=0),
    Message('note_on', channel=2, note=59, velocity=0, time=0),
    Message('note_on', channel=2, note=64, velocity=0, time=0),
    Message('note_on', channel=2, note=43, velocity=89, time=24),
    Message('note_on', channel=2, note=53, velocity=114, time=0),
    Message('note_on', channel=2, note=69, velocity=114, time=0),
    Message('note_on', channel=2, note=59, velocity=114, time=0),
    Message('note_on', channel=2, note=64, velocity=114, time=0),
    Message('note_on', channel=2, note=43, velocity=0, time=20),
    Message('note_on', channel=2, note=53, velocity=0, time=0),
    Message('note_on', channel=2, note=69, velocity=0, time=0),
    Message('note_on', channel=2, note=59, velocity=0, time=0),
    Message('note_on', channel=2, note=64, velocity=0, time=0),
    Message('note_on', channel=2, note=41, velocity=76, time=172),
    Message('note_on', channel=2, note=50, velocity=100, time=0),
    Message('note_on', channel=2, note=53, velocity=100, time=0),
    Message('note_on', channel=2, note=57, velocity=100, time=0),
    Message('note_on', channel=2, note=60, velocity=100, time=0),
    Message('note_on', channel=2, note=41, velocity=0, time=36),
    Message('note_on', channel=2, note=50, velocity=0, time=0),
    Message('note_on', channel=2, note=53, velocity=0, time=0),
    Message('note_on', channel=2, note=57, velocity=0, time=0),
    Message('note_on', channel=2, note=60, velocity=0, time=0),
    Message('note_on', channel=2, note=50, velocity=76, time=28),
    Message('note_on', channel=2, note=53, velocity=76, time=0),
    Message('note_on', channel=2, note=57, velocity=76, time=0),
    Message('note_on', channel=2, note=60, velocity=76, time=0),
    Message('note_on', channel=2, note=41, velocity=56, time=0),
    Message('note_on', channel=2, note=41, velocity=0, time=43),
    Message('note_on', channel=2, note=50, velocity=0, time=1),
    Message('note_on', channel=2, note=53, velocity=0, time=0),
    Message('note_on', channel=2, note=57, velocity=0, time=0),
    Message('note_on', channel=2, note=60, velocity=0, time=0),
    Message('note_on', channel=2, note=41, velocity=76, time=20),
    Message('note_on', channel=2, note=50, velocity=100, time=0),
    Message('note_on', channel=2, note=53, velocity=100, time=0),
    Message('note_on', channel=2, note=57, velocity=100, time=0),
    Message('note_on', channel=2, note=60, velocity=100, time=0),
    Message('note_on', channel=2, note=41, velocity=0, time=40),
    Message('note_on', channel=2, note=50, velocity=0, time=4),
    Message('note_on', channel=2, note=53, velocity=0, time=0),
    Message('note_on', channel=2, note=57, velocity=0, time=0),
    Message('note_on', channel=2, note=60, velocity=0, time=0),
    Message('note_on', channel=2, note=50, velocity=100, time=20),
    Message('note_on', channel=2, note=53, velocity=100, time=0),
    Message('note_on', channel=2, note=57, velocity=100, time=0),
    Message('note_on', channel=2, note=60, velocity=100, time=0),
    Message('note_on', channel=2, note=41, velocity=100, time=0),
    Message('note_on', channel=2, note=50, velocity=0, time=35),
    Message('note_on', channel=2, note=53, velocity=0, time=0),
    Message('note_on', channel=2, note=57, velocity=0, time=0),
    Message('note_on', channel=2, note=60, velocity=0, time=0),
    Message('note_on', channel=2, note=41, velocity=0, time=0),
    Message('note_on', channel=2, note=41, velocity=76, time=29),
    Message('note_on', channel=2, note=50, velocity=76, time=0),
    Message('note_on', channel=2, note=53, velocity=76, time=0),
    Message('note_on', channel=2, note=57, velocity=76, time=0),
    Message('note_on', channel=2, note=60, velocity=76, time=0),
    Message('note_on', channel=2, note=41, velocity=0, time=43),
    Message('note_on', channel=2, note=50, velocity=0, time=3),
    Message('note_on', channel=2, note=53, velocity=0, time=0),
    Message('note_on', channel=2, note=57, velocity=0, time=0),
    Message('note_on', channel=2, note=60, velocity=0, time=0),
    Message('note_on', channel=2, note=50, velocity=100, time=18),
    Message('note_on', channel=2, note=53, velocity=100, time=0),
    Message('note_on', channel=2, note=57, velocity=100, time=0),
    Message('note_on', channel=2, note=60, velocity=100, time=0),
    Message('note_on', channel=2, note=41, velocity=76, time=0),
    Message('note_on', channel=2, note=50, velocity=0, time=44),
    Message('note_on', channel=2, note=53, velocity=0, time=0),
    Message('note_on', channel=2, note=57, velocity=0, time=0),
    Message('note_on', channel=2, note=60, velocity=0, time=0),
    Message('note_on', channel=2, note=41, velocity=0, time=0),
    Message('note_on', channel=2, note=50, velocity=100, time=20),
    Message('note_on', channel=2, note=53, velocity=100, time=0),
    Message('note_on', channel=2, note=57, velocity=100, time=0),
    Message('note_on', channel=2, note=60, velocity=100, time=0),
    Message('note_on', channel=2, note=41, velocity=100, time=0),
    Message('note_on', channel=2, note=41, velocity=0, time=38),
    Message('note_on', channel=2, note=50, velocity=0, time=2),
    Message('note_on', channel=2, note=53, velocity=0, time=0),
    Message('note_on', channel=2, note=57, velocity=0, time=0),
    Message('note_on', channel=2, note=60, velocity=0, time=0),
    Message('note_on', channel=2, note=50, velocity=88, time=24),
    Message('note_on', channel=2, note=53, velocity=88, time=0),
    Message('note_on', channel=2, note=57, velocity=88, time=0),
    Message('note_on', channel=2, note=60, velocity=88, time=0),
    Message('note_on', channel=2, note=41, velocity=76, time=0),
    Message('note_on', channel=2, note=41, velocity=0, time=46),
    Message('note_on', channel=2, note=50, velocity=0, time=2),
    Message('note_on', channel=2, note=53, velocity=0, time=0),
    Message('note_on', channel=2, note=57, velocity=0, time=0),
    Message('note_on', channel=2, note=60, velocity=0, time=0),
    Message('note_on', channel=2, note=41, velocity=65, time=16),
    Message('note_on', channel=2, note=50, velocity=100, time=0),
    Message('note_on', channel=2, note=53, velocity=100, time=0),
    Message('note_on', channel=2, note=57, velocity=100, time=0),
    Message('note_on', channel=2, note=60, velocity=100, time=0),
    Message('note_on', channel=2, note=41, velocity=0, time=49),
    Message('note_on', channel=2, note=50, velocity=0, time=0),
    Message('note_on', channel=2, note=53, velocity=0, time=0),
    Message('note_on', channel=2, note=57, velocity=0, time=0),
    Message('note_on', channel=2, note=60, velocity=0, time=0),
    Message('note_on', channel=2, note=41, velocity=100, time=15),
    Message('note_on', channel=2, note=50, velocity=100, time=0),
    Message('note_on', channel=2, note=53, velocity=100, time=0),
    Message('note_on', channel=2, note=57, velocity=100, time=0),
    Message('note_on', channel=2, note=60, velocity=100, time=0),
    Message('note_on', channel=2, note=41, velocity=0, time=38),
    Message('note_on', channel=2, note=50, velocity=0, time=0),
    Message('note_on', channel=2, note=53, velocity=0, time=0),
    Message('note_on', channel=2, note=57, velocity=0, time=0),
    Message('note_on', channel=2, note=60, velocity=0, time=0),
    Message('note_on', channel=2, note=50, velocity=88, time=26),
    Message('note_on', channel=2, note=53, velocity=88, time=0),
    Message('note_on', channel=2, note=57, velocity=88, time=0),
    Message('note_on', channel=2, note=60, velocity=88, time=0),
    Message('note_on', channel=2, note=41, velocity=76, time=0),
    Message('note_on', channel=2, note=41, velocity=0, time=48),
    Message('note_on', channel=2, note=50, velocity=0, time=1),
    Message('note_on', channel=2, note=53, velocity=0, time=0),
    Message('note_on', channel=2, note=57, velocity=0, time=0),
    Message('note_on', channel=2, note=60, velocity=0, time=0),
    Message('note_on', channel=2, note=41, velocity=76, time=15),
    Message('note_on', channel=2, note=50, velocity=100, time=0),
    Message('note_on', channel=2, note=53, velocity=100, time=0),
    Message('note_on', channel=2, note=57, velocity=100, time=0),
    Message('note_on', channel=2, note=60, velocity=100, time=0),
    Message('note_on', channel=2, note=41, velocity=0, time=52),
    Message('note_on', channel=2, note=50, velocity=0, time=0),
    Message('note_on', channel=2, note=53, velocity=0, time=0),
    Message('note_on', channel=2, note=57, velocity=0, time=0),
    Message('note_on', channel=2, note=60, velocity=0, time=0),
    Message('note_on', channel=2, note=36, velocity=76, time=12),
    Message('note_on', channel=2, note=60, velocity=100, time=0),
    Message('note_on', channel=2, note=52, velocity=100, time=0),
    Message('note_on', channel=2, note=55, velocity=100, time=0),
    Message('note_on', channel=2, note=48, velocity=65, time=0),
    Message('note_on', channel=2, note=36, velocity=0, time=36),
    Message('note_on', channel=2, note=60, velocity=0, time=0),
    Message('note_on', channel=2, note=52, velocity=0, time=0),
    Message('note_on', channel=2, note=55, velocity=0, time=0),
    Message('note_on', channel=2, note=48, velocity=0, time=2),
    Message('note_on', channel=2, note=60, velocity=76, time=26),
    Message('note_on', channel=2, note=52, velocity=76, time=0),
    Message('note_on', channel=2, note=55, velocity=76, time=0),
    Message('note_on', channel=2, note=48, velocity=56, time=0),
    Message('note_on', channel=2, note=36, velocity=65, time=0),
    Message('note_on', channel=2, note=36, velocity=0, time=43),
    Message('note_on', channel=2, note=60, velocity=0, time=1),
    Message('note_on', channel=2, note=52, velocity=0, time=0),
    Message('note_on', channel=2, note=55, velocity=0, time=0),
    Message('note_on', channel=2, note=48, velocity=0, time=2),
    Message('note_on', channel=2, note=48, velocity=76, time=18),
    Message('note_on', channel=2, note=60, velocity=100, time=0),
    Message('note_on', channel=2, note=52, velocity=100, time=0),
    Message('note_on', channel=2, note=55, velocity=100, time=0),
    Message('note_on', channel=2, note=36, velocity=100, time=0),
    Message('note_on', channel=2, note=36, velocity=0, time=40),
    Message('note_on', channel=2, note=48, velocity=0, time=3),
    Message('note_on', channel=2, note=60, velocity=0, time=1),
    Message('note_on', channel=2, note=52, velocity=0, time=0),
    Message('note_on', channel=2, note=55, velocity=0, time=0),
    Message('note_on', channel=2, note=60, velocity=100, time=20),
    Message('note_on', channel=2, note=52, velocity=100, time=0),
    Message('note_on', channel=2, note=55, velocity=100, time=0),
    Message('note_on', channel=2, note=36, velocity=100, time=0),
    Message('note_on', channel=2, note=48, velocity=100, time=0),
    Message('note_on', channel=2, note=60, velocity=0, time=35),
    Message('note_on', channel=2, note=52, velocity=0, time=0),
    Message('note_on', channel=2, note=55, velocity=0, time=0),
    Message('note_on', channel=2, note=36, velocity=0, time=0),
    Message('note_on', channel=2, note=48, velocity=0, time=1),
    Message('note_on', channel=2, note=36, velocity=76, time=28),
    Message('note_on', channel=2, note=60, velocity=76, time=0),
    Message('note_on', channel=2, note=52, velocity=76, time=0),
    Message('note_on', channel=2, note=55, velocity=76, time=0),
    Message('note_on', channel=2, note=48, velocity=56, time=0),
    Message('note_on', channel=2, note=36, velocity=0, time=43),
    Message('note_on', channel=2, note=48, velocity=0, time=1),
    Message('note_on', channel=2, note=60, velocity=0, time=2),
    Message('note_on', channel=2, note=52, velocity=0, time=0),
    Message('note_on', channel=2, note=55, velocity=0, time=0),
    Message('note_on', channel=2, note=60, velocity=100, time=18),
    Message('note_on', channel=2, note=52, velocity=100, time=0),
    Message('note_on', channel=2, note=55, velocity=100, time=0),
    Message('note_on', channel=2, note=48, velocity=76, time=0),
    Message('note_on', channel=2, note=36, velocity=76, time=0),
    Message('note_on', channel=2, note=60, velocity=0, time=44),
    Message('note_on', channel=2, note=52, velocity=0, time=0),
    Message('note_on', channel=2, note=55, velocity=0, time=0),
    Message('note_on', channel=2, note=36, velocity=0, time=0),
    Message('note_on', channel=2, note=48, velocity=0, time=2),
    Message('note_on', channel=2, note=60, velocity=100, time=18),
    Message('note_on', channel=2, note=52, velocity=100, time=0),
    Message('note_on', channel=2, note=55, velocity=100, time=0),
    Message('note_on', channel=2, note=36, velocity=100, time=0),
    Message('note_on', channel=2, note=48, velocity=88, time=0),
    Message('note_on', channel=2, note=36, velocity=0, time=38),
    Message('note_on', channel=2, note=60, velocity=0, time=2),
    Message('note_on', channel=2, note=52, velocity=0, time=0),
    Message('note_on', channel=2, note=55, velocity=0, time=0),
    Message('note_on', channel=2, note=48, velocity=0, time=0),
    Message('note_on', channel=2, note=60, velocity=88, time=24),
    Message('note_on', channel=2, note=52, velocity=88, time=0),
    Message('note_on', channel=2, note=55, velocity=88, time=0),
    Message('note_on', channel=2, note=36, velocity=76, time=0),
    Message('note_on', channel=2, note=48, velocity=65, time=0),
    Message('note_on', channel=2, note=36, velocity=0, time=46),
    Message('note_on', channel=2, note=60, velocity=0, time=2),
    Message('note_on', channel=2, note=52, velocity=0, time=0),
    Message('note_on', channel=2, note=55, velocity=0, time=0),
    Message('note_on', channel=2, note=48, velocity=0, time=3),
    Message('note_on', channel=2, note=48, velocity=65, time=13),
    Message('note_on', channel=2, note=60, velocity=100, time=0),
    Message('note_on', channel=2, note=52, velocity=100, time=0),
    Message('note_on', channel=2, note=55, velocity=100, time=0),
    Message('note_on', channel=2, note=36, velocity=88, time=0),
    Message('note_on', channel=2, note=60, velocity=0, time=49),
    Message('note_on', channel=2, note=52, velocity=0, time=0),
    Message('note_on', channel=2, note=55, velocity=0, time=0),
    Message('note_on', channel=2, note=36, velocity=0, time=0),
    Message('note_on', channel=2, note=48, velocity=0, time=2),
    Message('note_on', channel=2, note=36, velocity=100, time=13),
    Message('note_on', channel=2, note=48, velocity=88, time=0),
    Message('note_on', channel=2, note=60, velocity=100, time=0),
    Message('note_on', channel=2, note=52, velocity=100, time=0),
    Message('note_on', channel=2, note=55, velocity=100, time=0),
    Message('note_on', channel=2, note=36, velocity=0, time=38),
    Message('note_on', channel=2, note=48, velocity=0, time=0),
    Message('note_on', channel=2, note=60, velocity=0, time=0),
    Message('note_on', channel=2, note=52, velocity=0, time=0),
    Message('note_on', channel=2, note=55, velocity=0, time=0),
    Message('note_on', channel=2, note=60, velocity=88, time=26),
    Message('note_on', channel=2, note=52, velocity=88, time=0),
    Message('note_on', channel=2, note=55, velocity=88, time=0),
    Message('note_on', channel=2, note=36, velocity=76, time=0),
    Message('note_on', channel=2, note=48, velocity=65, time=0),
    Message('note_on', channel=2, note=36, velocity=0, time=48),
    Message('note_on', channel=2, note=60, velocity=0, time=1),
    Message('note_on', channel=2, note=52, velocity=0, time=0),
    Message('note_on', channel=2, note=55, velocity=0, time=0),
    Message('note_on', channel=2, note=48, velocity=0, time=0),
    Message('note_on', channel=2, note=48, velocity=76, time=15),
    Message('note_on', channel=2, note=36, velocity=100, time=0),
    Message('note_on', channel=2, note=60, velocity=100, time=0),
    Message('note_on', channel=2, note=52, velocity=100, time=0),
    Message('note_on', channel=2, note=55, velocity=100, time=0),
    Message('note_on', channel=2, note=36, velocity=0, time=52),
    Message('note_on', channel=2, note=60, velocity=0, time=0),
    Message('note_on', channel=2, note=52, velocity=0, time=0),
    Message('note_on', channel=2, note=55, velocity=0, time=0),
    Message('note_on', channel=2, note=48, velocity=0, time=2),
    Message('note_on', channel=2, note=60, velocity=80, time=10),
    Message('note_on', channel=2, note=64, velocity=92, time=64),
    Message('note_on', channel=2, note=67, velocity=80, time=64),
    Message('note_on', channel=2, note=72, velocity=92, time=64),
    Message('note_on', channel=2, note=67, velocity=0, time=46),
    Message('note_on', channel=2, note=67, velocity=92, time=18),
    Message('note_on', channel=2, note=72, velocity=0, time=11),
    Message('note_on', channel=2, note=72, velocity=92, time=53),
    Message('note_on', channel=2, note=76, velocity=92, time=64),
    Message('note_on', channel=2, note=72, velocity=0, time=41),
    Message('note_on', channel=2, note=72, velocity=92, time=23),
    Message('note_on', channel=2, note=67, velocity=0, time=40),
    Message('note_on', channel=2, note=67, velocity=92, time=24),
    Message('note_on', channel=2, note=72, velocity=0, time=41),
    Message('note_on', channel=2, note=72, velocity=92, time=23),
    Message('note_on', channel=2, note=67, velocity=0, time=33),
    Message('note_on', channel=2, note=67, velocity=92, time=31),
    Message('note_on', channel=2, note=64, velocity=0, time=35),
    Message('note_on', channel=2, note=64, velocity=80, time=29),
    Message('note_on', channel=2, note=76, velocity=0, time=32),
    Message('note_on', channel=2, note=72, velocity=0, time=3),
    Message('note_on', channel=2, note=60, velocity=0, time=1),
    Message('note_on', channel=2, note=64, velocity=0, time=5),
    Message('note_on', channel=2, note=67, velocity=0, time=3),
    Message('note_on', channel=2, note=64, velocity=80, time=20),
    Message('note_on', channel=2, note=67, velocity=92, time=64),
    Message('note_on', channel=2, note=71, velocity=80, time=64),
    Message('note_on', channel=2, note=76, velocity=92, time=64),
    Message('note_on', channel=2, note=71, velocity=0, time=46),
    Message('note_on', channel=2, note=71, velocity=92, time=18),
    Message('note_on', channel=2, note=76, velocity=0, time=11),
    Message('note_on', channel=2, note=76, velocity=92, time=53),
    Message('note_on', channel=2, note=79, velocity=92, time=64),
    Message('note_on', channel=2, note=76, velocity=0, time=41),
    Message('note_on', channel=2, note=76, velocity=92, time=23),
    Message('note_on', channel=2, note=71, velocity=0, time=40),
    Message('note_on', channel=2, note=71, velocity=92, time=24),
    Message('note_on', channel=2, note=76, velocity=0, time=41),
    Message('note_on', channel=2, note=76, velocity=92, time=23),
    Message('note_on', channel=2, note=71, velocity=0, time=33),
    Message('note_on', channel=2, note=71, velocity=92, time=31),
    Message('note_on', channel=2, note=67, velocity=0, time=35),
    Message('note_on', channel=2, note=67, velocity=80, time=29),
    Message('note_on', channel=2, note=79, velocity=0, time=32),
    Message('note_on', channel=2, note=76, velocity=0, time=3),
    Message('note_on', channel=2, note=64, velocity=0, time=1),
    Message('note_on', channel=2, note=67, velocity=0, time=5),
    Message('note_on', channel=2, note=71, velocity=0, time=3),
    Message('note_on', channel=2, note=55, velocity=80, time=20),
    Message('note_on', channel=2, note=58, velocity=92, time=64),
    Message('note_on', channel=2, note=62, velocity=80, time=64),
    Message('note_on', channel=2, note=64, velocity=92, time=64),
    Message('note_on', channel=2, note=62, velocity=0, time=46),
    Message('note_on', channel=2, note=62, velocity=92, time=18),
    Message('note_on', channel=2, note=64, velocity=0, time=11),
    Message('note_on', channel=2, note=64, velocity=92, time=53),
    Message('note_on', channel=2, note=70, velocity=92, time=64),
    Message('note_on', channel=2, note=64, velocity=0, time=41),
    Message('note_on', channel=2, note=64, velocity=92, time=23),
    Message('note_on', channel=2, note=62, velocity=0, time=40),
    Message('note_on', channel=2, note=62, velocity=92, time=24),
    Message('note_on', channel=2, note=64, velocity=0, time=41),
    Message('note_on', channel=2, note=64, velocity=92, time=23),
    Message('note_on', channel=2, note=62, velocity=0, time=33),
    Message('note_on', channel=2, note=62, velocity=92, time=31),
    Message('note_on', channel=2, note=58, velocity=0, time=35),
    Message('note_on', channel=2, note=58, velocity=80, time=29),
    Message('note_on', channel=2, note=70, velocity=0, time=32),
    Message('note_on', channel=2, note=64, velocity=0, time=3),
    Message('note_on', channel=2, note=55, velocity=0, time=1),
    Message('note_on', channel=2, note=58, velocity=0, time=5),
    Message('note_on', channel=2, note=62, velocity=0, time=3),
    Message('note_on', channel=2, note=57, velocity=80, time=20),
    Message('note_on', channel=2, note=61, velocity=92, time=64),
    Message('note_on', channel=2, note=64, velocity=80, time=64),
    Message('note_on', channel=2, note=67, velocity=92, time=64),
    Message('note_on', channel=2, note=64, velocity=0, time=46),
    Message('note_on', channel=2, note=64, velocity=92, time=18),
    Message('note_on', channel=2, note=67, velocity=0, time=11),
    Message('note_on', channel=2, note=67, velocity=92, time=53),
    Message('note_on', channel=2, note=73, velocity=92, time=64),
    Message('note_on', channel=2, note=67, velocity=0, time=41),
    Message('note_on', channel=2, note=67, velocity=92, time=23),
    Message('note_on', channel=2, note=64, velocity=0, time=40),
    Message('note_on', channel=2, note=64, velocity=92, time=24),
    Message('note_on', channel=2, note=67, velocity=0, time=41),
    Message('note_on', channel=2, note=67, velocity=92, time=23),
    Message('note_on', channel=2, note=64, velocity=0, time=33),
    Message('note_on', channel=2, note=64, velocity=92, time=31),
    Message('note_on', channel=2, note=61, velocity=0, time=35),
    Message('note_on', channel=2, note=61, velocity=80, time=29),
    Message('note_on', channel=2, note=73, velocity=0, time=32),
    Message('note_on', channel=2, note=67, velocity=0, time=3),
    Message('note_on', channel=2, note=57, velocity=0, time=1),
    Message('note_on', channel=2, note=61, velocity=0, time=5),
    Message('note_on', channel=2, note=64, velocity=0, time=3),
    Message('note_on', channel=2, note=62, velocity=80, time=20),
    Message('note_on', channel=2, note=65, velocity=92, time=64),
    Message('note_on', channel=2, note=69, velocity=80, time=64),
    Message('note_on', channel=2, note=74, velocity=92, time=64),
    Message('note_on', channel=2, note=69, velocity=0, time=46),
    Message('note_on', channel=2, note=69, velocity=92, time=18),
    Message('note_on', channel=2, note=74, velocity=0, time=11),
    Message('note_on', channel=2, note=74, velocity=92, time=53),
    Message('note_on', channel=2, note=77, velocity=92, time=64),
    Message('note_on', channel=2, note=74, velocity=0, time=41),
    Message('note_on', channel=2, note=74, velocity=92, time=23),
    Message('note_on', channel=2, note=69, velocity=0, time=40),
    Message('note_on', channel=2, note=69, velocity=92, time=24),
    Message('note_on', channel=2, note=74, velocity=0, time=41),
    Message('note_on', channel=2, note=74, velocity=92, time=23),
    Message('note_on', channel=2, note=69, velocity=0, time=33),
    Message('note_on', channel=2, note=69, velocity=92, time=31),
    Message('note_on', channel=2, note=65, velocity=0, time=35),
    Message('note_on', channel=2, note=65, velocity=80, time=29),
    Message('note_on', channel=2, note=77, velocity=0, time=32),
    Message('note_on', channel=2, note=74, velocity=0, time=3),
    Message('note_on', channel=2, note=62, velocity=0, time=1),
    Message('note_on', channel=2, note=65, velocity=0, time=5),
    Message('note_on', channel=2, note=69, velocity=0, time=3),
    Message('note_on', channel=2, note=62, velocity=80, time=20),
    Message('note_on', channel=2, note=65, velocity=92, time=64),
    Message('note_on', channel=2, note=69, velocity=80, time=64),
    Message('note_on', channel=2, note=72, velocity=92, time=64),
    Message('note_on', channel=2, note=69, velocity=0, time=46),
    Message('note_on', channel=2, note=69, velocity=92, time=18),
    Message('note_on', channel=2, note=72, velocity=0, time=11),
    Message('note_on', channel=2, note=72, velocity=92, time=53),
    Message('note_on', channel=2, note=77, velocity=92, time=64),
    Message('note_on', channel=2, note=72, velocity=0, time=41),
    Message('note_on', channel=2, note=72, velocity=92, time=23),
    Message('note_on', channel=2, note=69, velocity=0, time=40),
    Message('note_on', channel=2, note=69, velocity=92, time=24),
    Message('note_on', channel=2, note=72, velocity=0, time=41),
    Message('note_on', channel=2, note=72, velocity=92, time=23),
    Message('note_on', channel=2, note=69, velocity=0, time=33),
    Message('note_on', channel=2, note=69, velocity=92, time=31),
    Message('note_on', channel=2, note=65, velocity=0, time=35),
    Message('note_on', channel=2, note=65, velocity=80, time=29),
    Message('note_on', channel=2, note=77, velocity=0, time=32),
    Message('note_on', channel=2, note=72, velocity=0, time=3),
    Message('note_on', channel=2, note=62, velocity=0, time=1),
    Message('note_on', channel=2, note=65, velocity=0, time=5),
    Message('note_on', channel=2, note=69, velocity=0, time=3),
    Message('note_on', channel=2, note=55, velocity=80, time=20),
    Message('note_on', channel=2, note=59, velocity=92, time=64),
    Message('note_on', channel=2, note=62, velocity=80, time=64),
    Message('note_on', channel=2, note=65, velocity=92, time=64),
    Message('note_on', channel=2, note=62, velocity=0, time=46),
    Message('note_on', channel=2, note=62, velocity=92, time=18),
    Message('note_on', channel=2, note=65, velocity=0, time=11),
    Message('note_on', channel=2, note=65, velocity=92, time=53),
    Message('note_on', channel=2, note=71, velocity=92, time=64),
    Message('note_on', channel=2, note=65, velocity=0, time=41),
    Message('note_on', channel=2, note=65, velocity=92, time=23),
    Message('note_on', channel=2, note=62, velocity=0, time=40),
    Message('note_on', channel=2, note=62, velocity=92, time=24),
    Message('note_on', channel=2, note=65, velocity=0, time=41),
    Message('note_on', channel=2, note=65, velocity=92, time=23),
    Message('note_on', channel=2, note=62, velocity=0, time=33),
    Message('note_on', channel=2, note=62, velocity=92, time=31),
    Message('note_on', channel=2, note=59, velocity=0, time=35),
    Message('note_on', channel=2, note=59, velocity=80, time=29),
    Message('note_on', channel=2, note=71, velocity=0, time=32),
    Message('note_on', channel=2, note=65, velocity=0, time=3),
    Message('note_on', channel=2, note=55, velocity=0, time=1),
    Message('note_on', channel=2, note=59, velocity=0, time=5),
    Message('note_on', channel=2, note=62, velocity=0, time=3),
    Message('note_on', channel=2, note=60, velocity=80, time=20),
    Message('note_on', channel=2, note=64, velocity=92, time=64),
    Message('note_on', channel=2, note=67, velocity=80, time=64),
    Message('note_on', channel=2, note=72, velocity=92, time=64),
    Message('note_on', channel=2, note=67, velocity=0, time=46),
    Message('note_on', channel=2, note=67, velocity=92, time=18),
    Message('note_on', channel=2, note=72, velocity=0, time=11),
    Message('note_on', channel=2, note=72, velocity=92, time=53),
    Message('note_on', channel=2, note=76, velocity=92, time=64),
    Message('note_on', channel=2, note=72, velocity=0, time=41),
    Message('note_on', channel=2, note=72, velocity=92, time=23),
    Message('note_on', channel=2, note=67, velocity=0, time=40),
    Message('note_on', channel=2, note=67, velocity=92, time=24),
    Message('note_on', channel=2, note=72, velocity=0, time=41),
    Message('note_on', channel=2, note=72, velocity=92, time=23),
    Message('note_on', channel=2, note=67, velocity=0, time=33),
    Message('note_on', channel=2, note=67, velocity=92, time=31),
    Message('note_on', channel=2, note=64, velocity=0, time=35),
    Message('note_on', channel=2, note=64, velocity=80, time=29),
    Message('note_on', channel=2, note=76, velocity=0, time=32),
    Message('note_on', channel=2, note=72, velocity=0, time=3),
    Message('note_on', channel=2, note=60, velocity=0, time=1),
    Message('note_on', channel=2, note=64, velocity=0, time=5),
    Message('note_on', channel=2, note=67, velocity=0, time=3),
    Message('note_on', channel=2, note=60, velocity=80, time=20),
    Message('note_on', channel=2, note=64, velocity=92, time=64),
    Message('note_on', channel=2, note=67, velocity=80, time=64),
    Message('note_on', channel=2, note=72, velocity=92, time=64),
    Message('note_on', channel=2, note=67, velocity=0, time=46),
    Message('note_on', channel=2, note=67, velocity=92, time=18),
    Message('note_on', channel=2, note=72, velocity=0, time=11),
    Message('note_on', channel=2, note=72, velocity=92, time=53),
    Message('note_on', channel=2, note=60, velocity=0, time=64),
    Message('note_on', channel=2, note=64, velocity=0, time=0),
    Message('note_on', channel=2, note=67, velocity=0, time=0),
    Message('note_on', channel=2, note=72, velocity=0, time=0),
    Message('note_on', channel=2, note=76, velocity=80, time=0),
    Message('note_on', channel=2, note=71, velocity=80, time=64),
    Message('note_on', channel=2, note=67, velocity=92, time=64),
    Message('note_on', channel=2, note=71, velocity=0, time=54),
    Message('note_on', channel=2, note=71, velocity=92, time=10),
    Message('note_on', channel=2, note=67, velocity=0, time=41),
    Message('note_on', channel=2, note=67, velocity=92, time=23),
    Message('note_on', channel=2, note=64, velocity=105, time=64),
    Message('note_on', channel=2, note=76, velocity=0, time=64),
    Message('note_on', channel=2, note=71, velocity=0, time=0),
    Message('note_on', channel=2, note=67, velocity=0, time=0),
    Message('note_on', channel=2, note=64, velocity=0, time=0),
    Message('note_on', channel=2, note=60, velocity=80, time=0),
    Message('note_on', channel=2, note=64, velocity=92, time=64),
    Message('note_on', channel=2, note=67, velocity=80, time=64),
    Message('note_on', channel=2, note=70, velocity=92, time=64),
    Message('note_on', channel=2, note=67, velocity=0, time=46),
    Message('note_on', channel=2, note=67, velocity=92, time=18),
    Message('note_on', channel=2, note=70, velocity=0, time=11),
    Message('note_on', channel=2, note=70, velocity=92, time=53),
    Message('note_on', channel=2, note=76, velocity=92, time=64),
    Message('note_on', channel=2, note=70, velocity=0, time=41),
    Message('note_on', channel=2, note=70, velocity=92, time=23),
    Message('note_on', channel=2, note=67, velocity=0, time=40),
    Message('note_on', channel=2, note=67, velocity=92, time=24),
    Message('note_on', channel=2, note=70, velocity=0, time=41),
    Message('note_on', channel=2, note=70, velocity=92, time=23),
    Message('note_on', channel=2, note=67, velocity=0, time=33),
    Message('note_on', channel=2, note=67, velocity=92, time=31),
    Message('note_on', channel=2, note=64, velocity=0, time=35),
    Message('note_on', channel=2, note=64, velocity=80, time=29),
    Message('note_on', channel=2, note=76, velocity=0, time=32),
    Message('note_on', channel=2, note=70, velocity=0, time=3),
    Message('note_on', channel=2, note=60, velocity=0, time=1),
    Message('note_on', channel=2, note=64, velocity=0, time=5),
    Message('note_on', channel=2, note=67, velocity=0, time=3),
    Message('note_on', channel=2, note=65, velocity=80, time=20),
    Message('note_on', channel=2, note=69, velocity=92, time=64),
    Message('note_on', channel=2, note=72, velocity=80, time=64),
    Message('note_on', channel=2, note=77, velocity=92, time=64),
    Message('note_on', channel=2, note=72, velocity=0, time=46),
    Message('note_on', channel=2, note=72, velocity=92, time=18),
    Message('note_on', channel=2, note=77, velocity=0, time=11),
    Message('note_on', channel=2, note=77, velocity=92, time=53),
    Message('note_on', channel=2, note=81, velocity=92, time=64),
    Message('note_on', channel=2, note=77, velocity=0, time=41),
    Message('note_on', channel=2, note=77, velocity=92, time=23),
    Message('note_on', channel=2, note=72, velocity=0, time=40),
    Message('note_on', channel=2, note=72, velocity=92, time=24),
    Message('note_on', channel=2, note=77, velocity=0, time=41),
    Message('note_on', channel=2, note=77, velocity=92, time=23),
    Message('note_on', channel=2, note=72, velocity=0, time=33),
    Message('note_on', channel=2, note=72, velocity=92, time=31),
    Message('note_on', channel=2, note=69, velocity=0, time=35),
    Message('note_on', channel=2, note=69, velocity=80, time=29),
    Message('note_on', channel=2, note=81, velocity=0, time=32),
    Message('note_on', channel=2, note=77, velocity=0, time=3),
    Message('note_on', channel=2, note=65, velocity=0, time=1),
    Message('note_on', channel=2, note=69, velocity=0, time=5),
    Message('note_on', channel=2, note=72, velocity=0, time=3),
    Message('note_on', channel=2, note=65, velocity=80, time=20),
    Message('note_on', channel=2, note=68, velocity=92, time=64),
    Message('note_on', channel=2, note=72, velocity=80, time=64),
    Message('note_on', channel=2, note=77, velocity=92, time=64),
    Message('note_on', channel=2, note=72, velocity=0, time=46),
    Message('note_on', channel=2, note=72, velocity=92, time=18),
    Message('note_on', channel=2, note=77, velocity=0, time=11),
    Message('note_on', channel=2, note=77, velocity=92, time=53),
    Message('note_on', channel=2, note=80, velocity=92, time=64),
    Message('note_on', channel=2, note=77, velocity=0, time=41),
    Message('note_on', channel=2, note=77, velocity=92, time=23),
    Message('note_on', channel=2, note=72, velocity=0, time=40),
    Message('note_on', channel=2, note=72, velocity=92, time=24),
    Message('note_on', channel=2, note=77, velocity=0, time=41),
    Message('note_on', channel=2, note=77, velocity=92, time=23),
    Message('note_on', channel=2, note=72, velocity=0, time=33),
    Message('note_on', channel=2, note=72, velocity=92, time=31),
    Message('note_on', channel=2, note=68, velocity=0, time=35),
    Message('note_on', channel=2, note=68, velocity=80, time=29),
    Message('note_on', channel=2, note=80, velocity=0, time=32),
    Message('note_on', channel=2, note=77, velocity=0, time=3),
    Message('note_on', channel=2, note=65, velocity=0, time=1),
    Message('note_on', channel=2, note=68, velocity=0, time=5),
    Message('note_on', channel=2, note=72, velocity=0, time=3),
    Message('note_on', channel=2, note=60, velocity=80, time=20),
    Message('note_on', channel=2, note=64, velocity=92, time=64),
    Message('note_on', channel=2, note=67, velocity=80, time=64),
    Message('note_on', channel=2, note=72, velocity=92, time=64),
    Message('note_on', channel=2, note=67, velocity=0, time=46),
    Message('note_on', channel=2, note=67, velocity=92, time=18),
    Message('note_on', channel=2, note=72, velocity=0, time=11),
    Message('note_on', channel=2, note=72, velocity=92, time=53),
    Message('note_on', channel=2, note=76, velocity=92, time=64),
    Message('note_on', channel=2, note=72, velocity=0, time=41),
    Message('note_on', channel=2, note=72, velocity=92, time=23),
    Message('note_on', channel=2, note=67, velocity=0, time=40),
    Message('note_on', channel=2, note=67, velocity=92, time=24),
    Message('note_on', channel=2, note=72, velocity=0, time=41),
    Message('note_on', channel=2, note=72, velocity=92, time=23),
    Message('note_on', channel=2, note=67, velocity=0, time=33),
    Message('note_on', channel=2, note=67, velocity=92, time=31),
    Message('note_on', channel=2, note=64, velocity=0, time=35),
    Message('note_on', channel=2, note=64, velocity=80, time=29),
    Message('note_on', channel=2, note=76, velocity=0, time=32),
    Message('note_on', channel=2, note=72, velocity=0, time=3),
    Message('note_on', channel=2, note=60, velocity=0, time=1),
    Message('note_on', channel=2, note=64, velocity=0, time=5),
    Message('note_on', channel=2, note=67, velocity=0, time=3),
    Message('note_on', channel=2, note=55, velocity=80, time=20),
    Message('note_on', channel=2, note=59, velocity=92, time=64),
    Message('note_on', channel=2, note=62, velocity=80, time=64),
    Message('note_on', channel=2, note=65, velocity=92, time=64),
    Message('note_on', channel=2, note=62, velocity=0, time=46),
    Message('note_on', channel=2, note=62, velocity=92, time=18),
    Message('note_on', channel=2, note=65, velocity=0, time=11),
    Message('note_on', channel=2, note=65, velocity=92, time=53),
    Message('note_on', channel=2, note=71, velocity=92, time=64),
    Message('note_on', channel=2, note=65, velocity=0, time=41),
    Message('note_on', channel=2, note=65, velocity=92, time=23),
    Message('note_on', channel=2, note=62, velocity=0, time=40),
    Message('note_on', channel=2, note=62, velocity=92, time=24),
    Message('note_on', channel=2, note=65, velocity=0, time=41),
    Message('note_on', channel=2, note=65, velocity=92, time=23),
    Message('note_on', channel=2, note=62, velocity=0, time=33),
    Message('note_on', channel=2, note=62, velocity=92, time=31),
    Message('note_on', channel=2, note=59, velocity=0, time=35),
    Message('note_on', channel=2, note=59, velocity=80, time=29),
    Message('note_on', channel=2, note=71, velocity=0, time=32),
    Message('note_on', channel=2, note=65, velocity=0, time=3),
    Message('note_on', channel=2, note=55, velocity=0, time=1),
    Message('note_on', channel=2, note=59, velocity=0, time=5),
    Message('note_on', channel=2, note=62, velocity=0, time=3),
    Message('note_on', channel=2, note=65, velocity=80, time=20),
    Message('note_on', channel=2, note=69, velocity=92, time=64),
    Message('note_on', channel=2, note=72, velocity=80, time=64),
    Message('note_on', channel=2, note=74, velocity=92, time=64),
    Message('note_on', channel=2, note=72, velocity=0, time=46),
    Message('note_on', channel=2, note=72, velocity=92, time=18),
    Message('note_on', channel=2, note=74, velocity=0, time=11),
    Message('note_on', channel=2, note=74, velocity=92, time=53),
    Message('note_on', channel=2, note=81, velocity=92, time=64),
    Message('note_on', channel=2, note=74, velocity=0, time=41),
    Message('note_on', channel=2, note=74, velocity=92, time=23),
    Message('note_on', channel=2, note=72, velocity=0, time=40),
    Message('note_on', channel=2, note=72, velocity=92, time=24),
    Message('note_on', channel=2, note=74, velocity=0, time=41),
    Message('note_on', channel=2, note=74, velocity=92, time=23),
    Message('note_on', channel=2, note=72, velocity=0, time=33),
    Message('note_on', channel=2, note=72, velocity=92, time=31),
    Message('note_on', channel=2, note=69, velocity=0, time=35),
    Message('note_on', channel=2, note=69, velocity=80, time=29),
    Message('note_on', channel=2, note=81, velocity=0, time=32),
    Message('note_on', channel=2, note=74, velocity=0, time=3),
    Message('note_on', channel=2, note=65, velocity=0, time=1),
    Message('note_on', channel=2, note=69, velocity=0, time=5),
    Message('note_on', channel=2, note=72, velocity=0, time=3),
    Message('note_on', channel=2, note=60, velocity=91, time=20),
    Message('note_on', channel=2, note=64, velocity=79, time=64),
    Message('note_on', channel=2, note=67, velocity=79, time=64),
    Message('note_on', channel=2, note=72, velocity=91, time=64),
    Message('note_on', channel=2, note=67, velocity=0, time=41),
    Message('note_on', channel=2, note=67, velocity=104, time=23),
    Message('note_on', channel=2, note=72, velocity=0, time=9),
    Message('note_on', channel=2, note=72, velocity=91, time=55),
    Message('note_on', channel=2, note=76, velocity=91, time=64),
    Message('note_on', channel=2, note=72, velocity=0, time=40),
    Message('note_on', channel=2, note=72, velocity=91, time=24),
    Message('note_on', channel=2, note=76, velocity=0, time=33),
    Message('note_on', channel=2, note=76, velocity=91, time=31),
    Message('note_on', channel=2, note=79, velocity=104, time=64),
    Message('note_on', channel=2, note=76, velocity=0, time=41),
    Message('note_on', channel=2, note=76, velocity=91, time=23),
    Message('note_on', channel=2, note=84, velocity=79, time=64),
    Message('note_on', channel=2, note=60, velocity=0, time=64),
    Message('note_on', channel=2, note=64, velocity=0, time=0),
    Message('note_on', channel=2, note=67, velocity=0, time=0),
    Message('note_on', channel=2, note=72, velocity=0, time=0),
    Message('note_on', channel=2, note=79, velocity=0, time=0),
    Message('note_on', channel=2, note=76, velocity=0, time=0),
    Message('note_on', channel=2, note=84, velocity=0, time=0),
    Message('note_on', channel=2, note=60, velocity=101, time=0),
    Message('note_on', channel=2, note=52, velocity=101, time=0),
    Message('note_on', channel=2, note=67, velocity=101, time=0),
    Message('note_on', channel=2, note=36, velocity=101, time=0),
    Message('note_on', channel=2, note=48, velocity=89, time=0),
    Message('note_on', channel=2, note=36, velocity=0, time=32),
    Message('note_on', channel=2, note=60, velocity=0, time=1),
    Message('note_on', channel=2, note=52, velocity=0, time=0),
    Message('note_on', channel=2, note=67, velocity=0, time=0),
    Message('note_on', channel=2, note=48, velocity=0, time=0),
    Message('note_on', channel=2, note=60, velocity=66, time=31),
    Message('note_on', channel=2, note=52, velocity=66, time=0),
    Message('note_on', channel=2, note=67, velocity=66, time=0),
    Message('note_on', channel=2, note=36, velocity=77, time=0),
    Message('note_on', channel=2, note=48, velocity=66, time=0),
    Message('note_on', channel=2, note=36, velocity=0, time=36),
    Message('note_on', channel=2, note=60, velocity=0, time=7),
    Message('note_on', channel=2, note=52, velocity=0, time=0),
    Message('note_on', channel=2, note=67, velocity=0, time=0),
    Message('note_on', channel=2, note=48, velocity=0, time=0),
    Message('note_on', channel=2, note=48, velocity=66, time=21),
    Message('note_on', channel=2, note=60, velocity=101, time=0),
    Message('note_on', channel=2, note=52, velocity=101, time=0),
    Message('note_on', channel=2, note=67, velocity=101, time=0),
    Message('note_on', channel=2, note=36, velocity=89, time=0),
    Message('note_on', channel=2, note=36, velocity=0, time=33),
    Message('note_on', channel=2, note=48, velocity=0, time=3),
    Message('note_on', channel=2, note=60, velocity=0, time=0),
    Message('note_on', channel=2, note=52, velocity=0, time=0),
    Message('note_on', channel=2, note=67, velocity=0, time=0),
    Message('note_on', channel=2, note=60, velocity=116, time=28),
    Message('note_on', channel=2, note=52, velocity=116, time=0),
    Message('note_on', channel=2, note=67, velocity=116, time=0),
    Message('note_on', channel=2, note=36, velocity=101, time=0),
    Message('note_on', channel=2, note=48, velocity=101, time=0),
    Message('note_on', channel=2, note=60, velocity=0, time=19),
    Message('note_on', channel=2, note=52, velocity=0, time=0),
    Message('note_on', channel=2, note=67, velocity=0, time=0),
    Message('note_on', channel=2, note=36, velocity=0, time=3),
    Message('note_on', channel=2, note=48, velocity=0, time=0),
    Message('note_on', channel=2, note=60, velocity=114, time=170),
    Message('note_on', channel=2, note=52, velocity=114, time=0),
    Message('note_on', channel=2, note=67, velocity=114, time=0),
    Message('note_on', channel=2, note=36, velocity=101, time=0),
    Message('note_on', channel=2, note=48, velocity=89, time=0),
    Message('note_on', channel=2, note=36, velocity=0, time=32),
    Message('note_on', channel=2, note=60, velocity=0, time=1),
    Message('note_on', channel=2, note=52, velocity=0, time=0),
    Message('note_on', channel=2, note=67, velocity=0, time=0),
    Message('note_on', channel=2, note=48, velocity=0, time=2),
    Message('note_on', channel=2, note=60, velocity=77, time=29),
    Message('note_on', channel=2, note=52, velocity=77, time=0),
    Message('note_on', channel=2, note=67, velocity=77, time=0),
    Message('note_on', channel=2, note=36, velocity=77, time=0),
    Message('note_on', channel=2, note=48, velocity=49, time=0),
    Message('note_on', channel=2, note=36, velocity=0, time=38),
    Message('note_on', channel=2, note=48, velocity=0, time=3),
    Message('note_on', channel=2, note=60, velocity=0, time=3),
    Message('note_on', channel=2, note=52, velocity=0, time=0),
    Message('note_on', channel=2, note=67, velocity=0, time=0),
    Message('note_on', channel=2, note=60, velocity=101, time=20),
    Message('note_on', channel=2, note=52, velocity=101, time=0),
    Message('note_on', channel=2, note=67, velocity=101, time=0),
    Message('note_on', channel=2, note=48, velocity=66, time=0),
    Message('note_on', channel=2, note=36, velocity=89, time=0),
    Message('note_on', channel=2, note=36, velocity=0, time=36),
    Message('note_on', channel=2, note=60, velocity=0, time=4),
    Message('note_on', channel=2, note=52, velocity=0, time=0),
    Message('note_on', channel=2, note=67, velocity=0, time=0),
    Message('note_on', channel=2, note=48, velocity=0, time=0),
    Message('note_on', channel=2, note=36, velocity=89, time=24),
    Message('note_on', channel=2, note=60, velocity=114, time=0),
    Message('note_on', channel=2, note=52, velocity=114, time=0),
    Message('note_on', channel=2, note=67, velocity=114, time=0),
    Message('note_on', channel=2, note=48, velocity=89, time=0),
    Message('note_on', channel=2, note=36, velocity=0, time=20),
    Message('note_on', channel=2, note=60, velocity=0, time=0),
    Message('note_on', channel=2, note=52, velocity=0, time=0),
    Message('note_on', channel=2, note=67, velocity=0, time=0),
    Message('note_on', channel=2, note=48, velocity=0, time=4),
    Message('note_on', channel=2, note=58, velocity=101, time=168),
    Message('note_on', channel=2, note=61, velocity=101, time=0),
    Message('note_on', channel=2, note=52, velocity=101, time=0),
    Message('note_on', channel=2, note=68, velocity=101, time=0),
    Message('note_on', channel=2, note=36, velocity=101, time=0),
    Message('note_on', channel=2, note=48, velocity=89, time=0),
    Message('note_on', channel=2, note=36, velocity=0, time=32),
    Message('note_on', channel=2, note=58, velocity=0, time=1),
    Message('note_on', channel=2, note=61, velocity=0, time=0),
    Message('note_on', channel=2, note=52, velocity=0, time=0),
    Message('note_on', channel=2, note=68, velocity=0, time=0),
    Message('note_on', channel=2, note=48, velocity=0, time=0),
    Message('note_on', channel=2, note=58, velocity=66, time=31),
    Message('note_on', channel=2, note=61, velocity=66, time=0),
    Message('note_on', channel=2, note=52, velocity=66, time=0),
    Message('note_on', channel=2, note=68, velocity=66, time=0),
    Message('note_on', channel=2, note=36, velocity=77, time=0),
    Message('note_on', channel=2, note=48, velocity=66, time=0),
    Message('note_on', channel=2, note=36, velocity=0, time=36),
    Message('note_on', channel=2, note=58, velocity=0, time=7),
    Message('note_on', channel=2, note=61, velocity=0, time=0),
    Message('note_on', channel=2, note=52, velocity=0, time=0),
    Message('note_on', channel=2, note=68, velocity=0, time=0),
    Message('note_on', channel=2, note=48, velocity=0, time=0),
    Message('note_on', channel=2, note=48, velocity=66, time=21),
    Message('note_on', channel=2, note=58, velocity=101, time=0),
    Message('note_on', channel=2, note=61, velocity=101, time=0),
    Message('note_on', channel=2, note=52, velocity=101, time=0),
    Message('note_on', channel=2, note=68, velocity=101, time=0),
    Message('note_on', channel=2, note=36, velocity=89, time=0),
    Message('note_on', channel=2, note=36, velocity=0, time=33),
    Message('note_on', channel=2, note=48, velocity=0, time=3),
    Message('note_on', channel=2, note=58, velocity=0, time=0),
    Message('note_on', channel=2, note=61, velocity=0, time=0),
    Message('note_on', channel=2, note=52, velocity=0, time=0),
    Message('note_on', channel=2, note=68, velocity=0, time=0),
    Message('note_on', channel=2, note=58, velocity=116, time=28),
    Message('note_on', channel=2, note=61, velocity=116, time=0),
    Message('note_on', channel=2, note=52, velocity=116, time=0),
    Message('note_on', channel=2, note=68, velocity=116, time=0),
    Message('note_on', channel=2, note=36, velocity=101, time=0),
    Message('note_on', channel=2, note=48, velocity=101, time=0),
    Message('note_on', channel=2, note=58, velocity=0, time=19),
    Message('note_on', channel=2, note=61, velocity=0, time=0),
    Message('note_on', channel=2, note=52, velocity=0, time=0),
    Message('note_on', channel=2, note=68, velocity=0, time=0),
    Message('note_on', channel=2, note=36, velocity=0, time=3),
    Message('note_on', channel=2, note=48, velocity=0, time=0),
    Message('note_on', channel=2, note=58, velocity=114, time=170),
    Message('note_on', channel=2, note=61, velocity=114, time=0),
    Message('note_on', channel=2, note=52, velocity=114, time=0),
    Message('note_on', channel=2, note=68, velocity=114, time=0),
    Message('note_on', channel=2, note=36, velocity=101, time=0),
    Message('note_on', channel=2, note=48, velocity=89, time=0),
    Message('note_on', channel=2, note=36, velocity=0, time=32),
    Message('note_on', channel=2, note=58, velocity=0, time=1),
    Message('note_on', channel=2, note=61, velocity=0, time=0),
    Message('note_on', channel=2, note=52, velocity=0, time=0),
    Message('note_on', channel=2, note=68, velocity=0, time=0),
    Message('note_on', channel=2, note=48, velocity=0, time=2),
    Message('note_on', channel=2, note=58, velocity=77, time=29),
    Message('note_on', channel=2, note=61, velocity=77, time=0),
    Message('note_on', channel=2, note=52, velocity=77, time=0),
    Message('note_on', channel=2, note=68, velocity=77, time=0),
    Message('note_on', channel=2, note=36, velocity=77, time=0),
    Message('note_on', channel=2, note=48, velocity=49, time=0),
    Message('note_on', channel=2, note=36, velocity=0, time=38),
    Message('note_on', channel=2, note=48, velocity=0, time=3),
    Message('note_on', channel=2, note=58, velocity=0, time=3),
    Message('note_on', channel=2, note=61, velocity=0, time=0),
    Message('note_on', channel=2, note=52, velocity=0, time=0),
    Message('note_on', channel=2, note=68, velocity=0, time=0),
    Message('note_on', channel=2, note=58, velocity=101, time=20),
    Message('note_on', channel=2, note=61, velocity=101, time=0),
    Message('note_on', channel=2, note=52, velocity=101, time=0),
    Message('note_on', channel=2, note=68, velocity=101, time=0),
    Message('note_on', channel=2, note=48, velocity=66, time=0),
    Message('note_on', channel=2, note=36, velocity=89, time=0),
    Message('note_on', channel=2, note=36, velocity=0, time=36),
    Message('note_on', channel=2, note=58, velocity=0, time=4),
    Message('note_on', channel=2, note=61, velocity=0, time=0),
    Message('note_on', channel=2, note=52, velocity=0, time=0),
    Message('note_on', channel=2, note=68, velocity=0, time=0),
    Message('note_on', channel=2, note=48, velocity=0, time=0),
    Message('note_on', channel=2, note=36, velocity=89, time=24),
    Message('note_on', channel=2, note=58, velocity=114, time=0),
    Message('note_on', channel=2, note=61, velocity=114, time=0),
    Message('note_on', channel=2, note=52, velocity=114, time=0),
    Message('note_on', channel=2, note=68, velocity=114, time=0),
    Message('note_on', channel=2, note=48, velocity=89, time=0),
    Message('note_on', channel=2, note=36, velocity=0, time=20),
    Message('note_on', channel=2, note=58, velocity=0, time=0),
    Message('note_on', channel=2, note=61, velocity=0, time=0),
    Message('note_on', channel=2, note=52, velocity=0, time=0),
    Message('note_on', channel=2, note=68, velocity=0, time=0),
    Message('note_on', channel=2, note=48, velocity=0, time=4),
    Message('note_on', channel=2, note=53, velocity=101, time=168),
    Message('note_on', channel=2, note=65, velocity=101, time=0),
    Message('note_on', channel=2, note=57, velocity=101, time=0),
    Message('note_on', channel=2, note=60, velocity=101, time=0),
    Message('note_on', channel=2, note=41, velocity=101, time=0),
    Message('note_on', channel=2, note=53, velocity=0, time=1),
    Message('note_on', channel=2, note=41, velocity=0, time=31),
    Message('note_on', channel=2, note=65, velocity=0, time=1),
    Message('note_on', channel=2, note=57, velocity=0, time=0),
    Message('note_on', channel=2, note=60, velocity=0, time=0),
    Message('note_on', channel=2, note=53, velocity=66, time=31),
    Message('note_on', channel=2, note=65, velocity=66, time=0),
    Message('note_on', channel=2, note=57, velocity=66, time=0),
    Message('note_on', channel=2, note=60, velocity=66, time=0),
    Message('note_on', channel=2, note=41, velocity=77, time=0),
    Message('note_on', channel=2, note=53, velocity=0, time=1),
    Message('note_on', channel=2, note=41, velocity=0, time=35),
    Message('note_on', channel=2, note=65, velocity=0, time=7),
    Message('note_on', channel=2, note=57, velocity=0, time=0),
    Message('note_on', channel=2, note=60, velocity=0, time=0),
    Message('note_on', channel=2, note=53, velocity=66, time=21),
    Message('note_on', channel=2, note=65, velocity=101, time=0),
    Message('note_on', channel=2, note=57, velocity=101, time=0),
    Message('note_on', channel=2, note=60, velocity=101, time=0),
    Message('note_on', channel=2, note=41, velocity=89, time=0),
    Message('note_on', channel=2, note=53, velocity=0, time=1),
    Message('note_on', channel=2, note=41, velocity=0, time=32),
    Message('note_on', channel=2, note=65, velocity=0, time=3),
    Message('note_on', channel=2, note=57, velocity=0, time=0),
    Message('note_on', channel=2, note=60, velocity=0, time=0),
    Message('note_on', channel=2, note=53, velocity=116, time=28),
    Message('note_on', channel=2, note=65, velocity=116, time=0),
    Message('note_on', channel=2, note=57, velocity=116, time=0),
    Message('note_on', channel=2, note=60, velocity=116, time=0),
    Message('note_on', channel=2, note=41, velocity=101, time=0),
    Message('note_on', channel=2, note=53, velocity=0, time=1),
    Message('note_on', channel=2, note=65, velocity=0, time=18),
    Message('note_on', channel=2, note=57, velocity=0, time=0),
    Message('note_on', channel=2, note=60, velocity=0, time=0),
    Message('note_on', channel=2, note=41, velocity=0, time=3),
    Message('note_on', channel=2, note=53, velocity=114, time=170),
    Message('note_on', channel=2, note=65, velocity=114, time=0),
    Message('note_on', channel=2, note=57, velocity=114, time=0),
    Message('note_on', channel=2, note=60, velocity=114, time=0),
    Message('note_on', channel=2, note=41, velocity=101, time=0),
    Message('note_on', channel=2, note=53, velocity=0, time=1),
    Message('note_on', channel=2, note=41, velocity=0, time=31),
    Message('note_on', channel=2, note=65, velocity=0, time=1),
    Message('note_on', channel=2, note=57, velocity=0, time=0),
    Message('note_on', channel=2, note=60, velocity=0, time=0),
    Message('note_on', channel=2, note=53, velocity=77, time=31),
    Message('note_on', channel=2, note=65, velocity=77, time=0),
    Message('note_on', channel=2, note=57, velocity=77, time=0),
    Message('note_on', channel=2, note=60, velocity=77, time=0),
    Message('note_on', channel=2, note=41, velocity=77, time=0),
    Message('note_on', channel=2, note=53, velocity=0, time=1),
    Message('note_on', channel=2, note=41, velocity=0, time=37),
    Message('note_on', channel=2, note=65, velocity=0, time=6),
    Message('note_on', channel=2, note=57, velocity=0, time=0),
    Message('note_on', channel=2, note=60, velocity=0, time=0),
    Message('note_on', channel=2, note=53, velocity=101, time=20),
    Message('note_on', channel=2, note=65, velocity=101, time=0),
    Message('note_on', channel=2, note=57, velocity=101, time=0),
    Message('note_on', channel=2, note=60, velocity=101, time=0),
    Message('note_on', channel=2, note=41, velocity=89, time=0),
    Message('note_on', channel=2, note=53, velocity=0, time=1),
    Message('note_on', channel=2, note=41, velocity=0, time=35),
    Message('note_on', channel=2, note=65, velocity=0, time=4),
    Message('note_on', channel=2, note=57, velocity=0, time=0),
    Message('note_on', channel=2, note=60, velocity=0, time=0),
    Message('note_on', channel=2, note=41, velocity=89, time=24),
    Message('note_on', channel=2, note=53, velocity=114, time=0),
    Message('note_on', channel=2, note=65, velocity=114, time=0),
    Message('note_on', channel=2, note=57, velocity=114, time=0),
    Message('note_on', channel=2, note=60, velocity=114, time=0),
    Message('note_on', channel=2, note=53, velocity=0, time=1),
    Message('note_on', channel=2, note=41, velocity=0, time=19),
    Message('note_on', channel=2, note=65, velocity=0, time=0),
    Message('note_on', channel=2, note=57, velocity=0, time=0),
    Message('note_on', channel=2, note=60, velocity=0, time=0),
    Message('note_on', channel=2, note=41, velocity=101, time=172),
    Message('note_on', channel=2, note=53, velocity=114, time=0),
    Message('note_on', channel=2, note=65, velocity=114, time=0),
    Message('note_on', channel=2, note=57, velocity=114, time=0),
    Message('note_on', channel=2, note=60, velocity=114, time=0),
    Message('note_on', channel=2, note=53, velocity=0, time=1),
    Message('note_on', channel=2, note=41, velocity=0, time=32),
    Message('note_on', channel=2, note=65, velocity=0, time=2),
    Message('note_on', channel=2, note=57, velocity=0, time=0),
    Message('note_on', channel=2, note=60, velocity=0, time=0),
    Message('note_on', channel=2, note=53, velocity=89, time=29),
    Message('note_on', channel=2, note=65, velocity=89, time=0),
    Message('note_on', channel=2, note=57, velocity=89, time=0),
    Message('note_on', channel=2, note=60, velocity=89, time=0),
    Message('note_on', channel=2, note=41, velocity=89, time=0),
    Message('note_on', channel=2, note=53, velocity=0, time=1),
    Message('note_on', channel=2, note=41, velocity=0, time=40),
    Message('note_on', channel=2, note=65, velocity=0, time=3),
    Message('note_on', channel=2, note=57, velocity=0, time=0),
    Message('note_on', channel=2, note=60, velocity=0, time=0),
    Message('note_on', channel=2, note=53, velocity=114, time=20),
    Message('note_on', channel=2, note=65, velocity=114, time=0),
    Message('note_on', channel=2, note=57, velocity=114, time=0),
    Message('note_on', channel=2, note=60, velocity=114, time=0),
    Message('note_on', channel=2, note=41, velocity=89, time=0),
    Message('note_on', channel=2, note=53, velocity=0, time=1),
    Message('note_on', channel=2, note=41, velocity=0, time=34),
    Message('note_on', channel=2, note=65, velocity=0, time=5),
    Message('note_on', channel=2, note=57, velocity=0, time=0),
    Message('note_on', channel=2, note=60, velocity=0, time=0),
    Message('note_on', channel=2, note=53, velocity=114, time=24),
    Message('note_on', channel=2, note=65, velocity=114, time=0),
    Message('note_on', channel=2, note=57, velocity=114, time=0),
    Message('note_on', channel=2, note=60, velocity=114, time=0),
    Message('note_on', channel=2, note=41, velocity=101, time=0),
    Message('note_on', channel=2, note=53, velocity=0, time=1),
    Message('note_on', channel=2, note=65, velocity=0, time=16),
    Message('note_on', channel=2, note=57, velocity=0, time=0),
    Message('note_on', channel=2, note=60, velocity=0, time=0),
    Message('note_on', channel=2, note=41, velocity=0, time=2),
    Message('note_on', channel=2, note=53, velocity=114, time=173),
    Message('note_on', channel=2, note=65, velocity=114, time=0),
    Message('note_on', channel=2, note=57, velocity=114, time=0),
    Message('note_on', channel=2, note=60, velocity=114, time=0),
    Message('note_on', channel=2, note=41, velocity=89, time=0),
    Message('note_on', channel=2, note=53, velocity=0, time=1),
    Message('note_on', channel=2, note=41, velocity=0, time=35),
    Message('note_on', channel=2, note=65, velocity=0, time=4),
    Message('note_on', channel=2, note=57, velocity=0, time=0),
    Message('note_on', channel=2, note=60, velocity=0, time=0),
    Message('note_on', channel=2, note=53, velocity=77, time=24),
    Message('note_on', channel=2, note=65, velocity=77, time=0),
    Message('note_on', channel=2, note=57, velocity=77, time=0),
    Message('note_on', channel=2, note=60, velocity=77, time=0),
    Message('note_on', channel=2, note=41, velocity=77, time=0),
    Message('note_on', channel=2, note=53, velocity=0, time=1),
    Message('note_on', channel=2, note=41, velocity=0, time=39),
    Message('note_on', channel=2, note=65, velocity=0, time=1),
    Message('note_on', channel=2, note=57, velocity=0, time=0),
    Message('note_on', channel=2, note=60, velocity=0, time=0),
    Message('note_on', channel=2, note=53, velocity=101, time=23),
    Message('note_on', channel=2, note=65, velocity=101, time=0),
    Message('note_on', channel=2, note=57, velocity=101, time=0),
    Message('note_on', channel=2, note=60, velocity=101, time=0),
    Message('note_on', channel=2, note=41, velocity=89, time=0),
    Message('note_on', channel=2, note=53, velocity=0, time=1),
    Message('note_on', channel=2, note=41, velocity=0, time=39),
    Message('note_on', channel=2, note=65, velocity=0, time=3),
    Message('note_on', channel=2, note=57, velocity=0, time=0),
    Message('note_on', channel=2, note=60, velocity=0, time=0),
    Message('note_on', channel=2, note=41, velocity=101, time=21),
    Message('note_on', channel=2, note=53, velocity=114, time=0),
    Message('note_on', channel=2, note=65, velocity=114, time=0),
    Message('note_on', channel=2, note=57, velocity=114, time=0),
    Message('note_on', channel=2, note=60, velocity=114, time=0),
    Message('note_on', channel=2, note=53, velocity=0, time=1),
    Message('note_on', channel=2, note=65, velocity=0, time=18),
    Message('note_on', channel=2, note=57, velocity=0, time=0),
    Message('note_on', channel=2, note=60, velocity=0, time=0),
    Message('note_on', channel=2, note=41, velocity=0, time=1),
    Message('note_on', channel=2, note=60, velocity=101, time=172),
    Message('note_on', channel=2, note=64, velocity=101, time=0),
    Message('note_on', channel=2, note=53, velocity=101, time=0),
    Message('note_on', channel=2, note=69, velocity=101, time=0),
    Message('note_on', channel=2, note=38, velocity=101, time=0),
    Message('note_on', channel=2, note=50, velocity=89, time=0),
    Message('note_on', channel=2, note=38, velocity=0, time=32),
    Message('note_on', channel=2, note=60, velocity=0, time=1),
    Message('note_on', channel=2, note=64, velocity=0, time=0),
    Message('note_on', channel=2, note=53, velocity=0, time=0),
    Message('note_on', channel=2, note=69, velocity=0, time=0),
    Message('note_on', channel=2, note=50, velocity=0, time=0),
    Message('note_on', channel=2, note=60, velocity=66, time=31),
    Message('note_on', channel=2, note=64, velocity=66, time=0),
    Message('note_on', channel=2, note=53, velocity=66, time=0),
    Message('note_on', channel=2, note=69, velocity=66, time=0),
    Message('note_on', channel=2, note=38, velocity=77, time=0),
    Message('note_on', channel=2, note=50, velocity=66, time=0),
    Message('note_on', channel=2, note=38, velocity=0, time=36),
    Message('note_on', channel=2, note=60, velocity=0, time=7),
    Message('note_on', channel=2, note=64, velocity=0, time=0),
    Message('note_on', channel=2, note=53, velocity=0, time=0),
    Message('note_on', channel=2, note=69, velocity=0, time=0),
    Message('note_on', channel=2, note=50, velocity=0, time=0),
    Message('note_on', channel=2, note=50, velocity=66, time=21),
    Message('note_on', channel=2, note=60, velocity=101, time=0),
    Message('note_on', channel=2, note=64, velocity=101, time=0),
    Message('note_on', channel=2, note=53, velocity=101, time=0),
    Message('note_on', channel=2, note=69, velocity=101, time=0),
    Message('note_on', channel=2, note=38, velocity=89, time=0),
    Message('note_on', channel=2, note=38, velocity=0, time=33),
    Message('note_on', channel=2, note=50, velocity=0, time=3),
    Message('note_on', channel=2, note=60, velocity=0, time=0),
    Message('note_on', channel=2, note=64, velocity=0, time=0),
    Message('note_on', channel=2, note=53, velocity=0, time=0),
    Message('note_on', channel=2, note=69, velocity=0, time=0),
    Message('note_on', channel=2, note=60, velocity=116, time=28),
    Message('note_on', channel=2, note=64, velocity=116, time=0),
    Message('note_on', channel=2, note=53, velocity=116, time=0),
    Message('note_on', channel=2, note=69, velocity=116, time=0),
    Message('note_on', channel=2, note=38, velocity=101, time=0),
    Message('note_on', channel=2, note=50, velocity=101, time=0),
    Message('note_on', channel=2, note=60, velocity=0, time=19),
    Message('note_on', channel=2, note=64, velocity=0, time=0),
    Message('note_on', channel=2, note=53, velocity=0, time=0),
    Message('note_on', channel=2, note=69, velocity=0, time=0),
    Message('note_on', channel=2, note=38, velocity=0, time=3),
    Message('note_on', channel=2, note=50, velocity=0, time=0),
    Message('note_on', channel=2, note=60, velocity=114, time=170),
    Message('note_on', channel=2, note=64, velocity=114, time=0),
    Message('note_on', channel=2, note=53, velocity=114, time=0),
    Message('note_on', channel=2, note=69, velocity=114, time=0),
    Message('note_on', channel=2, note=38, velocity=101, time=0),
    Message('note_on', channel=2, note=50, velocity=89, time=0),
    Message('note_on', channel=2, note=38, velocity=0, time=32),
    Message('note_on', channel=2, note=60, velocity=0, time=1),
    Message('note_on', channel=2, note=64, velocity=0, time=0),
    Message('note_on', channel=2, note=53, velocity=0, time=0),
    Message('note_on', channel=2, note=69, velocity=0, time=0),
    Message('note_on', channel=2, note=50, velocity=0, time=2),
    Message('note_on', channel=2, note=60, velocity=77, time=29),
    Message('note_on', channel=2, note=64, velocity=77, time=0),
    Message('note_on', channel=2, note=53, velocity=77, time=0),
    Message('note_on', channel=2, note=69, velocity=77, time=0),
    Message('note_on', channel=2, note=38, velocity=77, time=0),
    Message('note_on', channel=2, note=50, velocity=49, time=0),
    Message('note_on', channel=2, note=38, velocity=0, time=38),
    Message('note_on', channel=2, note=50, velocity=0, time=3),
    Message('note_on', channel=2, note=60, velocity=0, time=3),
    Message('note_on', channel=2, note=64, velocity=0, time=0),
    Message('note_on', channel=2, note=53, velocity=0, time=0),
    Message('note_on', channel=2, note=69, velocity=0, time=0),
    Message('note_on', channel=2, note=60, velocity=101, time=20),
    Message('note_on', channel=2, note=64, velocity=101, time=0),
    Message('note_on', channel=2, note=53, velocity=101, time=0),
    Message('note_on', channel=2, note=69, velocity=101, time=0),
    Message('note_on', channel=2, note=50, velocity=66, time=0),
    Message('note_on', channel=2, note=38, velocity=89, time=0),
    Message('note_on', channel=2, note=38, velocity=0, time=36),
    Message('note_on', channel=2, note=60, velocity=0, time=4),
    Message('note_on', channel=2, note=64, velocity=0, time=0),
    Message('note_on', channel=2, note=53, velocity=0, time=0),
    Message('note_on', channel=2, note=69, velocity=0, time=0),
    Message('note_on', channel=2, note=50, velocity=0, time=0),
    Message('note_on', channel=2, note=38, velocity=89, time=24),
    Message('note_on', channel=2, note=60, velocity=114, time=0),
    Message('note_on', channel=2, note=64, velocity=114, time=0),
    Message('note_on', channel=2, note=53, velocity=114, time=0),
    Message('note_on', channel=2, note=69, velocity=114, time=0),
    Message('note_on', channel=2, note=50, velocity=89, time=0),
    Message('note_on', channel=2, note=38, velocity=0, time=20),
    Message('note_on', channel=2, note=60, velocity=0, time=0),
    Message('note_on', channel=2, note=64, velocity=0, time=0),
    Message('note_on', channel=2, note=53, velocity=0, time=0),
    Message('note_on', channel=2, note=69, velocity=0, time=0),
    Message('note_on', channel=2, note=50, velocity=0, time=4),
    Message('note_on', channel=2, note=53, velocity=101, time=168),
    Message('note_on', channel=2, note=69, velocity=101, time=0),
    Message('note_on', channel=2, note=59, velocity=101, time=0),
    Message('note_on', channel=2, note=64, velocity=101, time=0),
    Message('note_on', channel=2, note=43, velocity=101, time=0),
    Message('note_on', channel=2, note=43, velocity=0, time=32),
    Message('note_on', channel=2, note=53, velocity=0, time=1),
    Message('note_on', channel=2, note=69, velocity=0, time=0),
    Message('note_on', channel=2, note=59, velocity=0, time=0),
    Message('note_on', channel=2, note=64, velocity=0, time=0),
    Message('note_on', channel=2, note=53, velocity=66, time=31),
    Message('note_on', channel=2, note=69, velocity=66, time=0),
    Message('note_on', channel=2, note=59, velocity=66, time=0),
    Message('note_on', channel=2, note=64, velocity=66, time=0),
    Message('note_on', channel=2, note=43, velocity=77, time=0),
    Message('note_on', channel=2, note=43, velocity=0, time=36),
    Message('note_on', channel=2, note=53, velocity=0, time=7),
    Message('note_on', channel=2, note=69, velocity=0, time=0),
    Message('note_on', channel=2, note=59, velocity=0, time=0),
    Message('note_on', channel=2, note=64, velocity=0, time=0),
    Message('note_on', channel=2, note=43, velocity=66, time=21),
    Message('note_on', channel=2, note=53, velocity=101, time=0),
    Message('note_on', channel=2, note=69, velocity=101, time=0),
    Message('note_on', channel=2, note=59, velocity=101, time=0),
    Message('note_on', channel=2, note=64, velocity=101, time=0),
    Message('note_on', channel=2, note=43, velocity=0, time=33),
    Message('note_on', channel=2, note=53, velocity=0, time=3),
    Message('note_on', channel=2, note=69, velocity=0, time=0),
    Message('note_on', channel=2, note=59, velocity=0, time=0),
    Message('note_on', channel=2, note=64, velocity=0, time=0),
    Message('note_on', channel=2, note=53, velocity=116, time=28),
    Message('note_on', channel=2, note=69, velocity=116, time=0),
    Message('note_on', channel=2, note=59, velocity=116, time=0),
    Message('note_on', channel=2, note=64, velocity=116, time=0),
    Message('note_on', channel=2, note=43, velocity=101, time=0),
    Message('note_on', channel=2, note=53, velocity=0, time=19),
    Message('note_on', channel=2, note=69, velocity=0, time=0),
    Message('note_on', channel=2, note=59, velocity=0, time=0),
    Message('note_on', channel=2, note=64, velocity=0, time=0),
    Message('note_on', channel=2, note=43, velocity=0, time=3),
    Message('note_on', channel=2, note=53, velocity=114, time=170),
    Message('note_on', channel=2, note=69, velocity=114, time=0),
    Message('note_on', channel=2, note=59, velocity=114, time=0),
    Message('note_on', channel=2, note=64, velocity=114, time=0),
    Message('note_on', channel=2, note=43, velocity=101, time=0),
    Message('note_on', channel=2, note=43, velocity=0, time=32),
    Message('note_on', channel=2, note=53, velocity=0, time=1),
    Message('note_on', channel=2, note=69, velocity=0, time=0),
    Message('note_on', channel=2, note=59, velocity=0, time=0),
    Message('note_on', channel=2, note=64, velocity=0, time=0),
    Message('note_on', channel=2, note=53, velocity=77, time=31),
    Message('note_on', channel=2, note=69, velocity=77, time=0),
    Message('note_on', channel=2, note=59, velocity=77, time=0),
    Message('note_on', channel=2, note=64, velocity=77, time=0),
    Message('note_on', channel=2, note=43, velocity=77, time=0),
    Message('note_on', channel=2, note=43, velocity=0, time=38),
    Message('note_on', channel=2, note=53, velocity=0, time=6),
    Message('note_on', channel=2, note=69, velocity=0, time=0),
    Message('note_on', channel=2, note=59, velocity=0, time=0),
    Message('note_on', channel=2, note=64, velocity=0, time=0),
    Message('note_on', channel=2, note=53, velocity=101, time=20),
    Message('note_on', channel=2, note=69, velocity=101, time=0),
    Message('note_on', channel=2, note=59, velocity=101, time=0),
    Message('note_on', channel=2, note=64, velocity=101, time=0),
    Message('note_on', channel=2, note=43, velocity=66, time=0),
    Message('note_on', channel=2, note=43, velocity=0, time=36),
    Message('note_on', channel=2, note=53, velocity=0, time=4),
    Message('note_on', channel=2, note=69, velocity=0, time=0),
    Message('note_on', channel=2, note=59, velocity=0, time=0),
    Message('note_on', channel=2, note=64, velocity=0, time=0),
    Message('note_on', channel=2, note=43, velocity=89, time=24),
    Message('note_on', channel=2, note=53, velocity=114, time=0),
    Message('note_on', channel=2, note=69, velocity=114, time=0),
    Message('note_on', channel=2, note=59, velocity=114, time=0),
    Message('note_on', channel=2, note=64, velocity=114, time=0),
    Message('note_on', channel=2, note=43, velocity=0, time=20),
    Message('note_on', channel=2, note=53, velocity=0, time=0),
    Message('note_on', channel=2, note=69, velocity=0, time=0),
    Message('note_on', channel=2, note=59, velocity=0, time=0),
    Message('note_on', channel=2, note=64, velocity=0, time=0),
    Message('note_on', channel=2, note=62, velocity=101, time=172),
    Message('note_on', channel=2, note=64, velocity=101, time=0),
    Message('note_on', channel=2, note=55, velocity=101, time=0),
    Message('note_on', channel=2, note=71, velocity=101, time=0),
    Message('note_on', channel=2, note=40, velocity=101, time=0),
    Message('note_on', channel=2, note=52, velocity=89, time=0),
    Message('note_on', channel=2, note=40, velocity=0, time=32),
    Message('note_on', channel=2, note=62, velocity=0, time=1),
    Message('note_on', channel=2, note=64, velocity=0, time=0),
    Message('note_on', channel=2, note=55, velocity=0, time=0),
    Message('note_on', channel=2, note=71, velocity=0, time=0),
    Message('note_on', channel=2, note=52, velocity=0, time=0),
    Message('note_on', channel=2, note=62, velocity=66, time=31),
    Message('note_on', channel=2, note=64, velocity=66, time=0),
    Message('note_on', channel=2, note=55, velocity=66, time=0),
    Message('note_on', channel=2, note=71, velocity=66, time=0),
    Message('note_on', channel=2, note=40, velocity=77, time=0),
    Message('note_on', channel=2, note=52, velocity=66, time=0),
    Message('note_on', channel=2, note=40, velocity=0, time=36),
    Message('note_on', channel=2, note=62, velocity=0, time=7),
    Message('note_on', channel=2, note=64, velocity=0, time=0),
    Message('note_on', channel=2, note=55, velocity=0, time=0),
    Message('note_on', channel=2, note=71, velocity=0, time=0),
    Message('note_on', channel=2, note=52, velocity=0, time=0),
    Message('note_on', channel=2, note=52, velocity=66, time=21),
    Message('note_on', channel=2, note=62, velocity=101, time=0),
    Message('note_on', channel=2, note=64, velocity=101, time=0),
    Message('note_on', channel=2, note=55, velocity=101, time=0),
    Message('note_on', channel=2, note=71, velocity=101, time=0),
    Message('note_on', channel=2, note=40, velocity=89, time=0),
    Message('note_on', channel=2, note=40, velocity=0, time=33),
    Message('note_on', channel=2, note=52, velocity=0, time=3),
    Message('note_on', channel=2, note=62, velocity=0, time=0),
    Message('note_on', channel=2, note=64, velocity=0, time=0),
    Message('note_on', channel=2, note=55, velocity=0, time=0),
    Message('note_on', channel=2, note=71, velocity=0, time=0),
    Message('note_on', channel=2, note=62, velocity=116, time=28),
    Message('note_on', channel=2, note=64, velocity=116, time=0),
    Message('note_on', channel=2, note=55, velocity=116, time=0),
    Message('note_on', channel=2, note=71, velocity=116, time=0),
    Message('note_on', channel=2, note=40, velocity=101, time=0),
    Message('note_on', channel=2, note=52, velocity=101, time=0),
    Message('note_on', channel=2, note=62, velocity=0, time=19),
    Message('note_on', channel=2, note=64, velocity=0, time=0),
    Message('note_on', channel=2, note=55, velocity=0, time=0),
    Message('note_on', channel=2, note=71, velocity=0, time=0),
    Message('note_on', channel=2, note=40, velocity=0, time=3),
    Message('note_on', channel=2, note=52, velocity=0, time=0),
    Message('note_on', channel=2, note=62, velocity=114, time=170),
    Message('note_on', channel=2, note=64, velocity=114, time=0),
    Message('note_on', channel=2, note=55, velocity=114, time=0),
    Message('note_on', channel=2, note=71, velocity=114, time=0),
    Message('note_on', channel=2, note=40, velocity=101, time=0),
    Message('note_on', channel=2, note=52, velocity=89, time=0),
    Message('note_on', channel=2, note=40, velocity=0, time=32),
    Message('note_on', channel=2, note=62, velocity=0, time=1),
    Message('note_on', channel=2, note=64, velocity=0, time=0),
    Message('note_on', channel=2, note=55, velocity=0, time=0),
    Message('note_on', channel=2, note=71, velocity=0, time=0),
    Message('note_on', channel=2, note=52, velocity=0, time=2),
    Message('note_on', channel=2, note=62, velocity=77, time=29),
    Message('note_on', channel=2, note=64, velocity=77, time=0),
    Message('note_on', channel=2, note=55, velocity=77, time=0),
    Message('note_on', channel=2, note=71, velocity=77, time=0),
    Message('note_on', channel=2, note=40, velocity=77, time=0),
    Message('note_on', channel=2, note=52, velocity=49, time=0),
    Message('note_on', channel=2, note=40, velocity=0, time=38),
    Message('note_on', channel=2, note=52, velocity=0, time=3),
    Message('note_on', channel=2, note=62, velocity=0, time=3),
    Message('note_on', channel=2, note=64, velocity=0, time=0),
    Message('note_on', channel=2, note=55, velocity=0, time=0),
    Message('note_on', channel=2, note=71, velocity=0, time=0),
    Message('note_on', channel=2, note=62, velocity=101, time=20),
    Message('note_on', channel=2, note=64, velocity=101, time=0),
    Message('note_on', channel=2, note=55, velocity=101, time=0),
    Message('note_on', channel=2, note=71, velocity=101, time=0),
    Message('note_on', channel=2, note=52, velocity=66, time=0),
    Message('note_on', channel=2, note=40, velocity=89, time=0),
    Message('note_on', channel=2, note=40, velocity=0, time=36),
    Message('note_on', channel=2, note=62, velocity=0, time=4),
    Message('note_on', channel=2, note=64, velocity=0, time=0),
    Message('note_on', channel=2, note=55, velocity=0, time=0),
    Message('note_on', channel=2, note=71, velocity=0, time=0),
    Message('note_on', channel=2, note=52, velocity=0, time=0),
    Message('note_on', channel=2, note=40, velocity=89, time=24),
    Message('note_on', channel=2, note=62, velocity=114, time=0),
    Message('note_on', channel=2, note=64, velocity=114, time=0),
    Message('note_on', channel=2, note=55, velocity=114, time=0),
    Message('note_on', channel=2, note=71, velocity=114, time=0),
    Message('note_on', channel=2, note=52, velocity=89, time=0),
    Message('note_on', channel=2, note=40, velocity=0, time=20),
    Message('note_on', channel=2, note=62, velocity=0, time=0),
    Message('note_on', channel=2, note=64, velocity=0, time=0),
    Message('note_on', channel=2, note=55, velocity=0, time=0),
    Message('note_on', channel=2, note=71, velocity=0, time=0),
    Message('note_on', channel=2, note=52, velocity=0, time=4),
    Message('note_on', channel=2, note=57, velocity=101, time=168),
    Message('note_on', channel=2, note=69, velocity=101, time=0),
    Message('note_on', channel=2, note=60, velocity=101, time=0),
    Message('note_on', channel=2, note=64, velocity=101, time=0),
    Message('note_on', channel=2, note=45, velocity=101, time=0),
    Message('note_on', channel=2, note=45, velocity=0, time=32),
    Message('note_on', channel=2, note=57, velocity=0, time=1),
    Message('note_on', channel=2, note=69, velocity=0, time=0),
    Message('note_on', channel=2, note=60, velocity=0, time=0),
    Message('note_on', channel=2, note=64, velocity=0, time=0),
    Message('note_on', channel=2, note=57, velocity=66, time=31),
    Message('note_on', channel=2, note=69, velocity=66, time=0),
    Message('note_on', channel=2, note=60, velocity=66, time=0),
    Message('note_on', channel=2, note=64, velocity=66, time=0),
    Message('note_on', channel=2, note=45, velocity=77, time=0),
    Message('note_on', channel=2, note=45, velocity=0, time=36),
    Message('note_on', channel=2, note=57, velocity=0, time=7),
    Message('note_on', channel=2, note=69, velocity=0, time=0),
    Message('note_on', channel=2, note=60, velocity=0, time=0),
    Message('note_on', channel=2, note=64, velocity=0, time=0),
    Message('note_on', channel=2, note=45, velocity=66, time=21),
    Message('note_on', channel=2, note=57, velocity=101, time=0),
    Message('note_on', channel=2, note=69, velocity=101, time=0),
    Message('note_on', channel=2, note=60, velocity=101, time=0),
    Message('note_on', channel=2, note=64, velocity=101, time=0),
    Message('note_on', channel=2, note=45, velocity=0, time=33),
    Message('note_on', channel=2, note=57, velocity=0, time=3),
    Message('note_on', channel=2, note=69, velocity=0, time=0),
    Message('note_on', channel=2, note=60, velocity=0, time=0),
    Message('note_on', channel=2, note=64, velocity=0, time=0),
    Message('note_on', channel=2, note=57, velocity=116, time=28),
    Message('note_on', channel=2, note=69, velocity=116, time=0),
    Message('note_on', channel=2, note=60, velocity=116, time=0),
    Message('note_on', channel=2, note=64, velocity=116, time=0),
    Message('note_on', channel=2, note=45, velocity=101, time=0),
    Message('note_on', channel=2, note=57, velocity=0, time=19),
    Message('note_on', channel=2, note=69, velocity=0, time=0),
    Message('note_on', channel=2, note=60, velocity=0, time=0),
    Message('note_on', channel=2, note=64, velocity=0, time=0),
    Message('note_on', channel=2, note=45, velocity=0, time=3),
    Message('note_on', channel=2, note=57, velocity=114, time=170),
    Message('note_on', channel=2, note=69, velocity=114, time=0),
    Message('note_on', channel=2, note=60, velocity=114, time=0),
    Message('note_on', channel=2, note=64, velocity=114, time=0),
    Message('note_on', channel=2, note=45, velocity=101, time=0),
    Message('note_on', channel=2, note=45, velocity=0, time=32),
    Message('note_on', channel=2, note=57, velocity=0, time=1),
    Message('note_on', channel=2, note=69, velocity=0, time=0),
    Message('note_on', channel=2, note=60, velocity=0, time=0),
    Message('note_on', channel=2, note=64, velocity=0, time=0),
    Message('note_on', channel=2, note=57, velocity=77, time=31),
    Message('note_on', channel=2, note=69, velocity=77, time=0),
    Message('note_on', channel=2, note=60, velocity=77, time=0),
    Message('note_on', channel=2, note=64, velocity=77, time=0),
    Message('note_on', channel=2, note=45, velocity=77, time=0),
    Message('note_on', channel=2, note=45, velocity=0, time=38),
    Message('note_on', channel=2, note=57, velocity=0, time=6),
    Message('note_on', channel=2, note=69, velocity=0, time=0),
    Message('note_on', channel=2, note=60, velocity=0, time=0),
    Message('note_on', channel=2, note=64, velocity=0, time=0),
    Message('note_on', channel=2, note=57, velocity=101, time=20),
    Message('note_on', channel=2, note=69, velocity=101, time=0),
    Message('note_on', channel=2, note=60, velocity=101, time=0),
    Message('note_on', channel=2, note=64, velocity=101, time=0),
    Message('note_on', channel=2, note=45, velocity=66, time=0),
    Message('note_on', channel=2, note=45, velocity=0, time=36),
    Message('note_on', channel=2, note=57, velocity=0, time=4),
    Message('note_on', channel=2, note=69, velocity=0, time=0),
    Message('note_on', channel=2, note=60, velocity=0, time=0),
    Message('note_on', channel=2, note=64, velocity=0, time=0),
    Message('note_on', channel=2, note=45, velocity=89, time=24),
    Message('note_on', channel=2, note=57, velocity=114, time=0),
    Message('note_on', channel=2, note=69, velocity=114, time=0),
    Message('note_on', channel=2, note=60, velocity=114, time=0),
    Message('note_on', channel=2, note=64, velocity=114, time=0),
    Message('note_on', channel=2, note=45, velocity=0, time=20),
    Message('note_on', channel=2, note=57, velocity=0, time=0),
    Message('note_on', channel=2, note=69, velocity=0, time=0),
    Message('note_on', channel=2, note=60, velocity=0, time=0),
    Message('note_on', channel=2, note=64, velocity=0, time=0),
    Message('note_on', channel=2, note=60, velocity=101, time=172),
    Message('note_on', channel=2, note=62, velocity=101, time=0),
    Message('note_on', channel=2, note=53, velocity=101, time=0),
    Message('note_on', channel=2, note=57, velocity=101, time=0),
    Message('note_on', channel=2, note=38, velocity=101, time=0),
    Message('note_on', channel=2, note=50, velocity=89, time=0),
    Message('note_on', channel=2, note=38, velocity=0, time=32),
    Message('note_on', channel=2, note=60, velocity=0, time=1),
    Message('note_on', channel=2, note=62, velocity=0, time=0),
    Message('note_on', channel=2, note=53, velocity=0, time=0),
    Message('note_on', channel=2, note=57, velocity=0, time=0),
    Message('note_on', channel=2, note=50, velocity=0, time=0),
    Message('note_on', channel=2, note=60, velocity=66, time=31),
    Message('note_on', channel=2, note=62, velocity=66, time=0),
    Message('note_on', channel=2, note=53, velocity=66, time=0),
    Message('note_on', channel=2, note=57, velocity=66, time=0),
    Message('note_on', channel=2, note=38, velocity=77, time=0),
    Message('note_on', channel=2, note=50, velocity=66, time=0),
    Message('note_on', channel=2, note=38, velocity=0, time=36),
    Message('note_on', channel=2, note=60, velocity=0, time=7),
    Message('note_on', channel=2, note=62, velocity=0, time=0),
    Message('note_on', channel=2, note=53, velocity=0, time=0),
    Message('note_on', channel=2, note=57, velocity=0, time=0),
    Message('note_on', channel=2, note=50, velocity=0, time=0),
    Message('note_on', channel=2, note=50, velocity=66, time=21),
    Message('note_on', channel=2, note=60, velocity=101, time=0),
    Message('note_on', channel=2, note=62, velocity=101, time=0),
    Message('note_on', channel=2, note=53, velocity=101, time=0),
    Message('note_on', channel=2, note=57, velocity=101, time=0),
    Message('note_on', channel=2, note=38, velocity=89, time=0),
    Message('note_on', channel=2, note=38, velocity=0, time=33),
    Message('note_on', channel=2, note=50, velocity=0, time=3),
    Message('note_on', channel=2, note=60, velocity=0, time=0),
    Message('note_on', channel=2, note=62, velocity=0, time=0),
    Message('note_on', channel=2, note=53, velocity=0, time=0),
    Message('note_on', channel=2, note=57, velocity=0, time=0),
    Message('note_on', channel=2, note=60, velocity=116, time=28),
    Message('note_on', channel=2, note=62, velocity=116, time=0),
    Message('note_on', channel=2, note=53, velocity=116, time=0),
    Message('note_on', channel=2, note=57, velocity=116, time=0),
    Message('note_on', channel=2, note=38, velocity=101, time=0),
    Message('note_on', channel=2, note=50, velocity=101, time=0),
    Message('note_on', channel=2, note=60, velocity=0, time=19),
    Message('note_on', channel=2, note=62, velocity=0, time=0),
    Message('note_on', channel=2, note=53, velocity=0, time=0),
    Message('note_on', channel=2, note=57, velocity=0, time=0),
    Message('note_on', channel=2, note=38, velocity=0, time=3),
    Message('note_on', channel=2, note=50, velocity=0, time=0),
    Message('note_on', channel=2, note=60, velocity=114, time=170),
    Message('note_on', channel=2, note=62, velocity=114, time=0),
    Message('note_on', channel=2, note=53, velocity=114, time=0),
    Message('note_on', channel=2, note=57, velocity=114, time=0),
    Message('note_on', channel=2, note=38, velocity=101, time=0),
    Message('note_on', channel=2, note=50, velocity=89, time=0),
    Message('note_on', channel=2, note=38, velocity=0, time=32),
    Message('note_on', channel=2, note=60, velocity=0, time=1),
    Message('note_on', channel=2, note=62, velocity=0, time=0),
    Message('note_on', channel=2, note=53, velocity=0, time=0),
    Message('note_on', channel=2, note=57, velocity=0, time=0),
    Message('note_on', channel=2, note=50, velocity=0, time=2),
    Message('note_on', channel=2, note=60, velocity=77, time=29),
    Message('note_on', channel=2, note=62, velocity=77, time=0),
    Message('note_on', channel=2, note=53, velocity=77, time=0),
    Message('note_on', channel=2, note=57, velocity=77, time=0),
    Message('note_on', channel=2, note=38, velocity=77, time=0),
    Message('note_on', channel=2, note=50, velocity=49, time=0),
    Message('note_on', channel=2, note=38, velocity=0, time=38),
    Message('note_on', channel=2, note=50, velocity=0, time=3),
    Message('note_on', channel=2, note=60, velocity=0, time=3),
    Message('note_on', channel=2, note=62, velocity=0, time=0),
    Message('note_on', channel=2, note=53, velocity=0, time=0),
    Message('note_on', channel=2, note=57, velocity=0, time=0),
    Message('note_on', channel=2, note=60, velocity=101, time=20),
    Message('note_on', channel=2, note=62, velocity=101, time=0),
    Message('note_on', channel=2, note=53, velocity=101, time=0),
    Message('note_on', channel=2, note=57, velocity=101, time=0),
    Message('note_on', channel=2, note=50, velocity=66, time=0),
    Message('note_on', channel=2, note=38, velocity=89, time=0),
    Message('note_on', channel=2, note=38, velocity=0, time=36),
    Message('note_on', channel=2, note=60, velocity=0, time=4),
    Message('note_on', channel=2, note=62, velocity=0, time=0),
    Message('note_on', channel=2, note=53, velocity=0, time=0),
    Message('note_on', channel=2, note=57, velocity=0, time=0),
    Message('note_on', channel=2, note=50, velocity=0, time=0),
    Message('note_on', channel=2, note=38, velocity=89, time=24),
    Message('note_on', channel=2, note=60, velocity=114, time=0),
    Message('note_on', channel=2, note=62, velocity=114, time=0),
    Message('note_on', channel=2, note=53, velocity=114, time=0),
    Message('note_on', channel=2, note=57, velocity=114, time=0),
    Message('note_on', channel=2, note=50, velocity=89, time=0),
    Message('note_on', channel=2, note=38, velocity=0, time=20),
    Message('note_on', channel=2, note=60, velocity=0, time=0),
    Message('note_on', channel=2, note=62, velocity=0, time=0),
    Message('note_on', channel=2, note=53, velocity=0, time=0),
    Message('note_on', channel=2, note=57, velocity=0, time=0),
    Message('note_on', channel=2, note=50, velocity=0, time=4),
    Message('note_on', channel=2, note=53, velocity=101, time=168),
    Message('note_on', channel=2, note=69, velocity=101, time=0),
    Message('note_on', channel=2, note=59, velocity=101, time=0),
    Message('note_on', channel=2, note=64, velocity=101, time=0),
    Message('note_on', channel=2, note=43, velocity=101, time=0),
    Message('note_on', channel=2, note=43, velocity=0, time=32),
    Message('note_on', channel=2, note=53, velocity=0, time=1),
    Message('note_on', channel=2, note=69, velocity=0, time=0),
    Message('note_on', channel=2, note=59, velocity=0, time=0),
    Message('note_on', channel=2, note=64, velocity=0, time=0),
    Message('note_on', channel=2, note=53, velocity=66, time=31),
    Message('note_on', channel=2, note=69, velocity=66, time=0),
    Message('note_on', channel=2, note=59, velocity=66, time=0),
    Message('note_on', channel=2, note=64, velocity=66, time=0),
    Message('note_on', channel=2, note=43, velocity=77, time=0),
    Message('note_on', channel=2, note=43, velocity=0, time=36),
    Message('note_on', channel=2, note=53, velocity=0, time=7),
    Message('note_on', channel=2, note=69, velocity=0, time=0),
    Message('note_on', channel=2, note=59, velocity=0, time=0),
    Message('note_on', channel=2, note=64, velocity=0, time=0),
    Message('note_on', channel=2, note=43, velocity=66, time=21),
    Message('note_on', channel=2, note=53, velocity=101, time=0),
    Message('note_on', channel=2, note=69, velocity=101, time=0),
    Message('note_on', channel=2, note=59, velocity=101, time=0),
    Message('note_on', channel=2, note=64, velocity=101, time=0),
    Message('note_on', channel=2, note=43, velocity=0, time=33),
    Message('note_on', channel=2, note=53, velocity=0, time=3),
    Message('note_on', channel=2, note=69, velocity=0, time=0),
    Message('note_on', channel=2, note=59, velocity=0, time=0),
    Message('note_on', channel=2, note=64, velocity=0, time=0),
    Message('note_on', channel=2, note=53, velocity=116, time=28),
    Message('note_on', channel=2, note=69, velocity=116, time=0),
    Message('note_on', channel=2, note=59, velocity=116, time=0),
    Message('note_on', channel=2, note=64, velocity=116, time=0),
    Message('note_on', channel=2, note=43, velocity=101, time=0),
    Message('note_on', channel=2, note=53, velocity=0, time=19),
    Message('note_on', channel=2, note=69, velocity=0, time=0),
    Message('note_on', channel=2, note=59, velocity=0, time=0),
    Message('note_on', channel=2, note=64, velocity=0, time=0),
    Message('note_on', channel=2, note=43, velocity=0, time=3),
    Message('note_on', channel=2, note=53, velocity=114, time=170),
    Message('note_on', channel=2, note=69, velocity=114, time=0),
    Message('note_on', channel=2, note=59, velocity=114, time=0),
    Message('note_on', channel=2, note=64, velocity=114, time=0),
    Message('note_on', channel=2, note=43, velocity=101, time=0),
    Message('note_on', channel=2, note=43, velocity=0, time=32),
    Message('note_on', channel=2, note=53, velocity=0, time=1),
    Message('note_on', channel=2, note=69, velocity=0, time=0),
    Message('note_on', channel=2, note=59, velocity=0, time=0),
    Message('note_on', channel=2, note=64, velocity=0, time=0),
    Message('note_on', channel=2, note=53, velocity=77, time=31),
    Message('note_on', channel=2, note=69, velocity=77, time=0),
    Message('note_on', channel=2, note=59, velocity=77, time=0),
    Message('note_on', channel=2, note=64, velocity=77, time=0),
    Message('note_on', channel=2, note=43, velocity=77, time=0),
    Message('note_on', channel=2, note=43, velocity=0, time=38),
    Message('note_on', channel=2, note=53, velocity=0, time=6),
    Message('note_on', channel=2, note=69, velocity=0, time=0),
    Message('note_on', channel=2, note=59, velocity=0, time=0),
    Message('note_on', channel=2, note=64, velocity=0, time=0),
    Message('note_on', channel=2, note=53, velocity=101, time=20),
    Message('note_on', channel=2, note=69, velocity=101, time=0),
    Message('note_on', channel=2, note=59, velocity=101, time=0),
    Message('note_on', channel=2, note=64, velocity=101, time=0),
    Message('note_on', channel=2, note=43, velocity=66, time=0),
    Message('note_on', channel=2, note=43, velocity=0, time=36),
    Message('note_on', channel=2, note=53, velocity=0, time=4),
    Message('note_on', channel=2, note=69, velocity=0, time=0),
    Message('note_on', channel=2, note=59, velocity=0, time=0),
    Message('note_on', channel=2, note=64, velocity=0, time=0),
    Message('note_on', channel=2, note=43, velocity=89, time=24),
    Message('note_on', channel=2, note=53, velocity=114, time=0),
    Message('note_on', channel=2, note=69, velocity=114, time=0),
    Message('note_on', channel=2, note=59, velocity=114, time=0),
    Message('note_on', channel=2, note=64, velocity=114, time=0),
    Message('note_on', channel=2, note=43, velocity=0, time=20),
    Message('note_on', channel=2, note=53, velocity=0, time=0),
    Message('note_on', channel=2, note=69, velocity=0, time=0),
    Message('note_on', channel=2, note=59, velocity=0, time=0),
    Message('note_on', channel=2, note=64, velocity=0, time=0),
    Message('note_on', channel=2, note=41, velocity=76, time=172),
    Message('note_on', channel=2, note=50, velocity=100, time=0),
    Message('note_on', channel=2, note=53, velocity=100, time=0),
    Message('note_on', channel=2, note=57, velocity=100, time=0),
    Message('note_on', channel=2, note=60, velocity=100, time=0),
    Message('note_on', channel=2, note=41, velocity=0, time=36),
    Message('note_on', channel=2, note=50, velocity=0, time=0),
    Message('note_on', channel=2, note=53, velocity=0, time=0),
    Message('note_on', channel=2, note=57, velocity=0, time=0),
    Message('note_on', channel=2, note=60, velocity=0, time=0),
    Message('note_on', channel=2, note=50, velocity=76, time=28),
    Message('note_on', channel=2, note=53, velocity=76, time=0),
    Message('note_on', channel=2, note=57, velocity=76, time=0),
    Message('note_on', channel=2, note=60, velocity=76, time=0),
    Message('note_on', channel=2, note=41, velocity=56, time=0),
    Message('note_on', channel=2, note=41, velocity=0, time=43),
    Message('note_on', channel=2, note=50, velocity=0, time=1),
    Message('note_on', channel=2, note=53, velocity=0, time=0),
    Message('note_on', channel=2, note=57, velocity=0, time=0),
    Message('note_on', channel=2, note=60, velocity=0, time=0),
    Message('note_on', channel=2, note=41, velocity=76, time=20),
    Message('note_on', channel=2, note=50, velocity=100, time=0),
    Message('note_on', channel=2, note=53, velocity=100, time=0),
    Message('note_on', channel=2, note=57, velocity=100, time=0),
    Message('note_on', channel=2, note=60, velocity=100, time=0),
    Message('note_on', channel=2, note=41, velocity=0, time=40),
    Message('note_on', channel=2, note=50, velocity=0, time=4),
    Message('note_on', channel=2, note=53, velocity=0, time=0),
    Message('note_on', channel=2, note=57, velocity=0, time=0),
    Message('note_on', channel=2, note=60, velocity=0, time=0),
    Message('note_on', channel=2, note=50, velocity=100, time=20),
    Message('note_on', channel=2, note=53, velocity=100, time=0),
    Message('note_on', channel=2, note=57, velocity=100, time=0),
    Message('note_on', channel=2, note=60, velocity=100, time=0),
    Message('note_on', channel=2, note=41, velocity=100, time=0),
    Message('note_on', channel=2, note=50, velocity=0, time=35),
    Message('note_on', channel=2, note=53, velocity=0, time=0),
    Message('note_on', channel=2, note=57, velocity=0, time=0),
    Message('note_on', channel=2, note=60, velocity=0, time=0),
    Message('note_on', channel=2, note=41, velocity=0, time=0),
    Message('note_on', channel=2, note=41, velocity=76, time=29),
    Message('note_on', channel=2, note=50, velocity=76, time=0),
    Message('note_on', channel=2, note=53, velocity=76, time=0),
    Message('note_on', channel=2, note=57, velocity=76, time=0),
    Message('note_on', channel=2, note=60, velocity=76, time=0),
    Message('note_on', channel=2, note=41, velocity=0, time=43),
    Message('note_on', channel=2, note=50, velocity=0, time=3),
    Message('note_on', channel=2, note=53, velocity=0, time=0),
    Message('note_on', channel=2, note=57, velocity=0, time=0),
    Message('note_on', channel=2, note=60, velocity=0, time=0),
    Message('note_on', channel=2, note=50, velocity=100, time=18),
    Message('note_on', channel=2, note=53, velocity=100, time=0),
    Message('note_on', channel=2, note=57, velocity=100, time=0),
    Message('note_on', channel=2, note=60, velocity=100, time=0),
    Message('note_on', channel=2, note=41, velocity=76, time=0),
    Message('note_on', channel=2, note=50, velocity=0, time=44),
    Message('note_on', channel=2, note=53, velocity=0, time=0),
    Message('note_on', channel=2, note=57, velocity=0, time=0),
    Message('note_on', channel=2, note=60, velocity=0, time=0),
    Message('note_on', channel=2, note=41, velocity=0, time=0),
    Message('note_on', channel=2, note=50, velocity=100, time=20),
    Message('note_on', channel=2, note=53, velocity=100, time=0),
    Message('note_on', channel=2, note=57, velocity=100, time=0),
    Message('note_on', channel=2, note=60, velocity=100, time=0),
    Message('note_on', channel=2, note=41, velocity=100, time=0),
    Message('note_on', channel=2, note=41, velocity=0, time=38),
    Message('note_on', channel=2, note=50, velocity=0, time=2),
    Message('note_on', channel=2, note=53, velocity=0, time=0),
    Message('note_on', channel=2, note=57, velocity=0, time=0),
    Message('note_on', channel=2, note=60, velocity=0, time=0),
    Message('note_on', channel=2, note=50, velocity=88, time=24),
    Message('note_on', channel=2, note=53, velocity=88, time=0),
    Message('note_on', channel=2, note=57, velocity=88, time=0),
    Message('note_on', channel=2, note=60, velocity=88, time=0),
    Message('note_on', channel=2, note=41, velocity=76, time=0),
    Message('note_on', channel=2, note=41, velocity=0, time=46),
    Message('note_on', channel=2, note=50, velocity=0, time=2),
    Message('note_on', channel=2, note=53, velocity=0, time=0),
    Message('note_on', channel=2, note=57, velocity=0, time=0),
    Message('note_on', channel=2, note=60, velocity=0, time=0),
    Message('note_on', channel=2, note=41, velocity=65, time=16),
    Message('note_on', channel=2, note=50, velocity=100, time=0),
    Message('note_on', channel=2, note=53, velocity=100, time=0),
    Message('note_on', channel=2, note=57, velocity=100, time=0),
    Message('note_on', channel=2, note=60, velocity=100, time=0),
    Message('note_on', channel=2, note=41, velocity=0, time=49),
    Message('note_on', channel=2, note=50, velocity=0, time=0),
    Message('note_on', channel=2, note=53, velocity=0, time=0),
    Message('note_on', channel=2, note=57, velocity=0, time=0),
    Message('note_on', channel=2, note=60, velocity=0, time=0),
    Message('note_on', channel=2, note=41, velocity=100, time=15),
    Message('note_on', channel=2, note=50, velocity=100, time=0),
    Message('note_on', channel=2, note=53, velocity=100, time=0),
    Message('note_on', channel=2, note=57, velocity=100, time=0),
    Message('note_on', channel=2, note=60, velocity=100, time=0),
    Message('note_on', channel=2, note=41, velocity=0, time=38),
    Message('note_on', channel=2, note=50, velocity=0, time=0),
    Message('note_on', channel=2, note=53, velocity=0, time=0),
    Message('note_on', channel=2, note=57, velocity=0, time=0),
    Message('note_on', channel=2, note=60, velocity=0, time=0),
    Message('note_on', channel=2, note=50, velocity=88, time=26),
    Message('note_on', channel=2, note=53, velocity=88, time=0),
    Message('note_on', channel=2, note=57, velocity=88, time=0),
    Message('note_on', channel=2, note=60, velocity=88, time=0),
    Message('note_on', channel=2, note=41, velocity=76, time=0),
    Message('note_on', channel=2, note=41, velocity=0, time=48),
    Message('note_on', channel=2, note=50, velocity=0, time=1),
    Message('note_on', channel=2, note=53, velocity=0, time=0),
    Message('note_on', channel=2, note=57, velocity=0, time=0),
    Message('note_on', channel=2, note=60, velocity=0, time=0),
    Message('note_on', channel=2, note=41, velocity=76, time=15),
    Message('note_on', channel=2, note=50, velocity=100, time=0),
    Message('note_on', channel=2, note=53, velocity=100, time=0),
    Message('note_on', channel=2, note=57, velocity=100, time=0),
    Message('note_on', channel=2, note=60, velocity=100, time=0),
    Message('note_on', channel=2, note=41, velocity=0, time=52),
    Message('note_on', channel=2, note=50, velocity=0, time=0),
    Message('note_on', channel=2, note=53, velocity=0, time=0),
    Message('note_on', channel=2, note=57, velocity=0, time=0),
    Message('note_on', channel=2, note=60, velocity=0, time=0),
    Message('note_on', channel=2, note=60, velocity=81, time=12),
    Message('note_on', channel=2, note=67, velocity=104, time=0),
    Message('note_on', channel=2, note=64, velocity=92, time=0),
    Message('note_on', channel=2, note=67, velocity=0, time=14),
    Message('note_on', channel=2, note=64, velocity=0, time=2),
    Message('note_on', channel=2, note=60, velocity=0, time=3),
    Message('note_on', channel=2, note=67, velocity=104, time=45),
    Message('note_on', channel=2, note=64, velocity=72, time=0),
    Message('note_on', channel=2, note=60, velocity=44, time=0),
    Message('note_on', channel=2, note=67, velocity=0, time=22),
    Message('note_on', channel=2, note=64, velocity=0, time=2),
    Message('note_on', channel=2, note=60, velocity=0, time=0),
    Message('note_on', channel=2, note=67, velocity=104, time=40),
    Message('note_on', channel=2, note=60, velocity=64, time=0),
    Message('note_on', channel=2, note=64, velocity=81, time=0),
    Message('note_on', channel=2, note=67, velocity=0, time=19),
    Message('note_on', channel=2, note=60, velocity=0, time=0),
    Message('note_on', channel=2, note=64, velocity=0, time=0),
    Message('note_on', channel=2, note=67, velocity=92, time=45),
    Message('note_on', channel=2, note=64, velocity=72, time=0),
    Message('note_on', channel=2, note=60, velocity=49, time=0),
    Message('note_on', channel=2, note=67, velocity=0, time=20),
    Message('note_on', channel=2, note=60, velocity=0, time=0),
    Message('note_on', channel=2, note=64, velocity=0, time=2),
    Message('note_on', channel=2, note=60, velocity=72, time=42),
    Message('note_on', channel=2, note=67, velocity=116, time=0),
    Message('note_on', channel=2, note=64, velocity=92, time=0),
    Message('note_on', channel=2, note=67, velocity=0, time=19),
    Message('note_on', channel=2, note=60, velocity=0, time=3),
    Message('note_on', channel=2, note=64, velocity=0, time=0),
    Message('note_on', channel=2, note=60, velocity=81, time=42),
    Message('note_on', channel=2, note=64, velocity=104, time=0),
    Message('note_on', channel=2, note=67, velocity=104, time=0),
    Message('note_on', channel=2, note=67, velocity=0, time=20),
    Message('note_on', channel=2, note=60, velocity=0, time=2),
    Message('note_on', channel=2, note=64, velocity=0, time=0),
    Message('note_on', channel=2, note=60, velocity=92, time=42),
    Message('note_on', channel=2, note=65, velocity=104, time=0),
    Message('note_on', channel=2, note=69, velocity=104, time=0),
    Message('note_on', channel=2, note=69, velocity=0, time=19),
    Message('note_on', channel=2, note=60, velocity=0, time=3),
    Message('note_on', channel=2, note=65, velocity=0, time=0),
    Message('note_on', channel=2, note=69, velocity=104, time=42),
    Message('note_on', channel=2, note=60, velocity=72, time=0),
    Message('note_on', channel=2, note=65, velocity=104, time=0),
    Message('note_on', channel=2, note=69, velocity=0, time=20),
    Message('note_on', channel=2, note=65, velocity=0, time=2),
    Message('note_on', channel=2, note=60, velocity=0, time=2),
    Message('note_on', channel=2, note=60, velocity=72, time=40),
    Message('note_on', channel=2, note=69, velocity=92, time=0),
    Message('note_on', channel=2, note=65, velocity=104, time=0),
    Message('note_on', channel=2, note=69, velocity=0, time=17),
    Message('note_on', channel=2, note=60, velocity=0, time=3),
    Message('note_on', channel=2, note=65, velocity=0, time=0),
    Message('note_on', channel=2, note=60, velocity=81, time=44),
    Message('note_on', channel=2, note=69, velocity=104, time=0),
    Message('note_on', channel=2, note=65, velocity=104, time=0),
    Message('note_on', channel=2, note=69, velocity=0, time=19),
    Message('note_on', channel=2, note=65, velocity=0, time=1),
    Message('note_on', channel=2, note=60, velocity=0, time=4),
    Message('note_on', channel=2, note=60, velocity=81, time=40),
    Message('note_on', channel=2, note=69, velocity=104, time=0),
    Message('note_on', channel=2, note=65, velocity=92, time=0),
    Message('note_on', channel=2, note=69, velocity=0, time=19),
    Message('note_on', channel=2, note=65, velocity=0, time=1),
    Message('note_on', channel=2, note=60, velocity=0, time=4),
    Message('note_on', channel=2, note=60, velocity=81, time=40),
    Message('note_on', channel=2, note=69, velocity=104, time=0),
    Message('note_on', channel=2, note=65, velocity=104, time=0),
    Message('note_on', channel=2, note=69, velocity=0, time=20),
    Message('note_on', channel=2, note=65, velocity=0, time=0),
    Message('note_on', channel=2, note=60, velocity=0, time=2),
    Message('note_on', channel=2, note=60, velocity=81, time=42),
    Message('note_on', channel=2, note=64, velocity=104, time=0),
    Message('note_on', channel=2, note=67, velocity=116, time=0),
    Message('note_on', channel=2, note=67, velocity=0, time=33),
    Message('note_on', channel=2, note=60, velocity=0, time=2),
    Message('note_on', channel=2, note=64, velocity=0, time=0),
    Message('note_on', channel=2, note=62, velocity=92, time=157),
    Message('note_on', channel=2, note=67, velocity=116, time=0),
    Message('note_on', channel=2, note=71, velocity=64, time=0),
    Message('note_on', channel=2, note=71, velocity=0, time=35),
    Message('note_on', channel=2, note=67, velocity=0, time=1),
    Message('note_on', channel=2, note=62, velocity=0, time=2),
    Message('note_on', channel=2, note=72, velocity=72, time=154),
    Message('note_on', channel=2, note=64, velocity=104, time=0),
    Message('note_on', channel=2, note=67, velocity=104, time=0),
    Message('note_on', channel=2, note=60, velocity=81, time=0),
    Message('note_on', channel=2, note=60, velocity=0, time=382),
    Message('note_on', channel=2, note=72, velocity=0, time=2),
    Message('note_on', channel=2, note=64, velocity=0, time=0),
    Message('note_on', channel=2, note=67, velocity=0, time=0),
    Message('control_change', channel=2, control=64, value=0, time=0),
    MetaMessage('end_of_track', time=0)]),
  MidiTrack([
    MetaMessage('midi_port', port=0, time=0),
    MetaMessage('track_name', name='clean guitar2       ', time=0),
    Message('program_change', channel=6, program=27, time=0),
    Message('control_change', channel=6, control=7, value=90, time=0),
    Message('control_change', channel=6, control=64, value=0, time=0),
    Message('note_on', channel=6, note=64, velocity=74, time=1728),
    Message('note_on', channel=6, note=60, velocity=74, time=0),
    Message('note_on', channel=6, note=55, velocity=74, time=0),
    Message('note_on', channel=6, note=64, velocity=0, time=27),
    Message('note_on', channel=6, note=60, velocity=0, time=0),
    Message('note_on', channel=6, note=55, velocity=0, time=0),
    Message('note_on', channel=6, note=64, velocity=83, time=357),
    Message('note_on', channel=6, note=60, velocity=83, time=0),
    Message('note_on', channel=6, note=55, velocity=83, time=0),
    Message('note_on', channel=6, note=64, velocity=0, time=20),
    Message('note_on', channel=6, note=60, velocity=0, time=0),
    Message('note_on', channel=6, note=55, velocity=0, time=0),
    Message('note_on', channel=6, note=64, velocity=83, time=364),
    Message('note_on', channel=6, note=60, velocity=83, time=0),
    Message('note_on', channel=6, note=55, velocity=83, time=0),
    Message('note_on', channel=6, note=64, velocity=0, time=24),
    Message('note_on', channel=6, note=60, velocity=0, time=0),
    Message('note_on', channel=6, note=55, velocity=0, time=0),
    Message('note_on', channel=6, note=64, velocity=82, time=360),
    Message('note_on', channel=6, note=60, velocity=82, time=0),
    Message('note_on', channel=6, note=55, velocity=82, time=0),
    Message('note_on', channel=6, note=64, velocity=0, time=20),
    Message('note_on', channel=6, note=60, velocity=0, time=0),
    Message('note_on', channel=6, note=55, velocity=0, time=0),
    Message('note_on', channel=6, note=64, velocity=74, time=364),
    Message('note_on', channel=6, note=60, velocity=74, time=0),
    Message('note_on', channel=6, note=55, velocity=74, time=0),
    Message('note_on', channel=6, note=64, velocity=0, time=27),
    Message('note_on', channel=6, note=60, velocity=0, time=0),
    Message('note_on', channel=6, note=55, velocity=0, time=0),
    Message('note_on', channel=6, note=64, velocity=83, time=357),
    Message('note_on', channel=6, note=60, velocity=83, time=0),
    Message('note_on', channel=6, note=55, velocity=83, time=0),
    Message('note_on', channel=6, note=64, velocity=0, time=20),
    Message('note_on', channel=6, note=60, velocity=0, time=0),
    Message('note_on', channel=6, note=55, velocity=0, time=0),
    Message('note_on', channel=6, note=64, velocity=83, time=364),
    Message('note_on', channel=6, note=60, velocity=83, time=0),
    Message('note_on', channel=6, note=55, velocity=83, time=0),
    Message('note_on', channel=6, note=64, velocity=0, time=24),
    Message('note_on', channel=6, note=60, velocity=0, time=0),
    Message('note_on', channel=6, note=55, velocity=0, time=0),
    Message('note_on', channel=6, note=64, velocity=82, time=360),
    Message('note_on', channel=6, note=60, velocity=82, time=0),
    Message('note_on', channel=6, note=55, velocity=82, time=0),
    Message('note_on', channel=6, note=64, velocity=0, time=20),
    Message('note_on', channel=6, note=60, velocity=0, time=0),
    Message('note_on', channel=6, note=55, velocity=0, time=0),
    Message('note_on', channel=6, note=64, velocity=74, time=364),
    Message('note_on', channel=6, note=60, velocity=74, time=0),
    Message('note_on', channel=6, note=55, velocity=74, time=0),
    Message('note_on', channel=6, note=64, velocity=0, time=27),
    Message('note_on', channel=6, note=60, velocity=0, time=0),
    Message('note_on', channel=6, note=55, velocity=0, time=0),
    Message('note_on', channel=6, note=64, velocity=83, time=357),
    Message('note_on', channel=6, note=60, velocity=83, time=0),
    Message('note_on', channel=6, note=55, velocity=83, time=0),
    Message('note_on', channel=6, note=64, velocity=0, time=20),
    Message('note_on', channel=6, note=60, velocity=0, time=0),
    Message('note_on', channel=6, note=55, velocity=0, time=0),
    Message('note_on', channel=6, note=64, velocity=74, time=364),
    Message('note_on', channel=6, note=59, velocity=74, time=0),
    Message('note_on', channel=6, note=55, velocity=74, time=0),
    Message('note_on', channel=6, note=64, velocity=0, time=27),
    Message('note_on', channel=6, note=59, velocity=0, time=0),
    Message('note_on', channel=6, note=55, velocity=0, time=0),
    Message('note_on', channel=6, note=64, velocity=83, time=357),
    Message('note_on', channel=6, note=59, velocity=83, time=0),
    Message('note_on', channel=6, note=55, velocity=83, time=0),
    Message('note_on', channel=6, note=64, velocity=0, time=20),
    Message('note_on', channel=6, note=59, velocity=0, time=0),
    Message('note_on', channel=6, note=55, velocity=0, time=0),
    Message('note_on', channel=6, note=64, velocity=74, time=364),
    Message('note_on', channel=6, note=62, velocity=74, time=0),
    Message('note_on', channel=6, note=58, velocity=74, time=0),
    Message('note_on', channel=6, note=67, velocity=74, time=0),
    Message('note_on', channel=6, note=64, velocity=0, time=27),
    Message('note_on', channel=6, note=62, velocity=0, time=0),
    Message('note_on', channel=6, note=58, velocity=0, time=0),
    Message('note_on', channel=6, note=67, velocity=0, time=0),
    Message('note_on', channel=6, note=64, velocity=83, time=357),
    Message('note_on', channel=6, note=62, velocity=83, time=0),
    Message('note_on', channel=6, note=58, velocity=83, time=0),
    Message('note_on', channel=6, note=67, velocity=83, time=0),
    Message('note_on', channel=6, note=64, velocity=0, time=20),
    Message('note_on', channel=6, note=62, velocity=0, time=0),
    Message('note_on', channel=6, note=58, velocity=0, time=0),
    Message('note_on', channel=6, note=67, velocity=0, time=0),
    Message('note_on', channel=6, note=67, velocity=74, time=364),
    Message('note_on', channel=6, note=64, velocity=74, time=0),
    Message('note_on', channel=6, note=61, velocity=74, time=0),
    Message('note_on', channel=6, note=69, velocity=74, time=0),
    Message('note_on', channel=6, note=67, velocity=0, time=27),
    Message('note_on', channel=6, note=64, velocity=0, time=0),
    Message('note_on', channel=6, note=61, velocity=0, time=0),
    Message('note_on', channel=6, note=69, velocity=0, time=0),
    Message('note_on', channel=6, note=67, velocity=83, time=357),
    Message('note_on', channel=6, note=64, velocity=83, time=0),
    Message('note_on', channel=6, note=61, velocity=83, time=0),
    Message('note_on', channel=6, note=69, velocity=83, time=0),
    Message('note_on', channel=6, note=67, velocity=0, time=20),
    Message('note_on', channel=6, note=64, velocity=0, time=0),
    Message('note_on', channel=6, note=61, velocity=0, time=0),
    Message('note_on', channel=6, note=69, velocity=0, time=0),
    Message('note_on', channel=6, note=65, velocity=74, time=364),
    Message('note_on', channel=6, note=62, velocity=74, time=0),
    Message('note_on', channel=6, note=57, velocity=74, time=0),
    Message('note_on', channel=6, note=65, velocity=0, time=27),
    Message('note_on', channel=6, note=62, velocity=0, time=0),
    Message('note_on', channel=6, note=57, velocity=0, time=0),
    Message('note_on', channel=6, note=65, velocity=83, time=357),
    Message('note_on', channel=6, note=62, velocity=83, time=0),
    Message('note_on', channel=6, note=57, velocity=83, time=0),
    Message('note_on', channel=6, note=65, velocity=0, time=20),
    Message('note_on', channel=6, note=62, velocity=0, time=0),
    Message('note_on', channel=6, note=57, velocity=0, time=0),
    Message('note_on', channel=6, note=65, velocity=74, time=364),
    Message('note_on', channel=6, note=62, velocity=74, time=0),
    Message('note_on', channel=6, note=60, velocity=74, time=0),
    Message('note_on', channel=6, note=69, velocity=74, time=0),
    Message('note_on', channel=6, note=65, velocity=0, time=27),
    Message('note_on', channel=6, note=62, velocity=0, time=0),
    Message('note_on', channel=6, note=60, velocity=0, time=0),
    Message('note_on', channel=6, note=69, velocity=0, time=0),
    Message('note_on', channel=6, note=65, velocity=83, time=357),
    Message('note_on', channel=6, note=62, velocity=83, time=0),
    Message('note_on', channel=6, note=60, velocity=83, time=0),
    Message('note_on', channel=6, note=69, velocity=83, time=0),
    Message('note_on', channel=6, note=65, velocity=0, time=20),
    Message('note_on', channel=6, note=62, velocity=0, time=0),
    Message('note_on', channel=6, note=60, velocity=0, time=0),
    Message('note_on', channel=6, note=69, velocity=0, time=0),
    Message('note_on', channel=6, note=65, velocity=74, time=364),
    Message('note_on', channel=6, note=62, velocity=74, time=0),
    Message('note_on', channel=6, note=59, velocity=74, time=0),
    Message('note_on', channel=6, note=67, velocity=74, time=0),
    Message('note_on', channel=6, note=65, velocity=0, time=27),
    Message('note_on', channel=6, note=62, velocity=0, time=0),
    Message('note_on', channel=6, note=59, velocity=0, time=0),
    Message('note_on', channel=6, note=67, velocity=0, time=0),
    Message('note_on', channel=6, note=65, velocity=83, time=357),
    Message('note_on', channel=6, note=62, velocity=83, time=0),
    Message('note_on', channel=6, note=59, velocity=83, time=0),
    Message('note_on', channel=6, note=67, velocity=83, time=0),
    Message('note_on', channel=6, note=65, velocity=0, time=20),
    Message('note_on', channel=6, note=62, velocity=0, time=0),
    Message('note_on', channel=6, note=59, velocity=0, time=0),
    Message('note_on', channel=6, note=67, velocity=0, time=0),
    Message('note_on', channel=6, note=64, velocity=74, time=364),
    Message('note_on', channel=6, note=60, velocity=74, time=0),
    Message('note_on', channel=6, note=55, velocity=74, time=0),
    Message('note_on', channel=6, note=64, velocity=0, time=27),
    Message('note_on', channel=6, note=60, velocity=0, time=0),
    Message('note_on', channel=6, note=55, velocity=0, time=0),
    Message('note_on', channel=6, note=64, velocity=83, time=357),
    Message('note_on', channel=6, note=60, velocity=83, time=0),
    Message('note_on', channel=6, note=55, velocity=83, time=0),
    Message('note_on', channel=6, note=64, velocity=0, time=20),
    Message('note_on', channel=6, note=60, velocity=0, time=0),
    Message('note_on', channel=6, note=55, velocity=0, time=0),
    Message('note_on', channel=6, note=64, velocity=74, time=364),
    Message('note_on', channel=6, note=60, velocity=74, time=0),
    Message('note_on', channel=6, note=55, velocity=74, time=0),
    Message('note_on', channel=6, note=64, velocity=0, time=27),
    Message('note_on', channel=6, note=60, velocity=0, time=0),
    Message('note_on', channel=6, note=55, velocity=0, time=0),
    Message('note_on', channel=6, note=64, velocity=74, time=357),
    Message('note_on', channel=6, note=62, velocity=74, time=0),
    Message('note_on', channel=6, note=59, velocity=74, time=0),
    Message('note_on', channel=6, note=67, velocity=74, time=0),
    Message('note_on', channel=6, note=64, velocity=0, time=27),
    Message('note_on', channel=6, note=62, velocity=0, time=0),
    Message('note_on', channel=6, note=59, velocity=0, time=0),
    Message('note_on', channel=6, note=67, velocity=0, time=0),
    Message('note_on', channel=6, note=64, velocity=74, time=357),
    Message('note_on', channel=6, note=60, velocity=74, time=0),
    Message('note_on', channel=6, note=58, velocity=74, time=0),
    Message('note_on', channel=6, note=67, velocity=74, time=0),
    Message('note_on', channel=6, note=64, velocity=0, time=27),
    Message('note_on', channel=6, note=60, velocity=0, time=0),
    Message('note_on', channel=6, note=58, velocity=0, time=0),
    Message('note_on', channel=6, note=67, velocity=0, time=0),
    Message('note_on', channel=6, note=64, velocity=83, time=357),
    Message('note_on', channel=6, note=60, velocity=83, time=0),
    Message('note_on', channel=6, note=58, velocity=83, time=0),
    Message('note_on', channel=6, note=67, velocity=83, time=0),
    Message('note_on', channel=6, note=64, velocity=0, time=20),
    Message('note_on', channel=6, note=60, velocity=0, time=0),
    Message('note_on', channel=6, note=58, velocity=0, time=0),
    Message('note_on', channel=6, note=67, velocity=0, time=0),
    Message('note_on', channel=6, note=65, velocity=74, time=364),
    Message('note_on', channel=6, note=60, velocity=74, time=0),
    Message('note_on', channel=6, note=57, velocity=74, time=0),
    Message('note_on', channel=6, note=65, velocity=0, time=27),
    Message('note_on', channel=6, note=60, velocity=0, time=0),
    Message('note_on', channel=6, note=57, velocity=0, time=0),
    Message('note_on', channel=6, note=65, velocity=83, time=357),
    Message('note_on', channel=6, note=60, velocity=83, time=0),
    Message('note_on', channel=6, note=57, velocity=83, time=0),
    Message('note_on', channel=6, note=65, velocity=0, time=20),
    Message('note_on', channel=6, note=60, velocity=0, time=0),
    Message('note_on', channel=6, note=57, velocity=0, time=0),
    Message('note_on', channel=6, note=65, velocity=74, time=364),
    Message('note_on', channel=6, note=60, velocity=74, time=0),
    Message('note_on', channel=6, note=56, velocity=74, time=0),
    Message('note_on', channel=6, note=65, velocity=0, time=27),
    Message('note_on', channel=6, note=60, velocity=0, time=0),
    Message('note_on', channel=6, note=56, velocity=0, time=0),
    Message('note_on', channel=6, note=65, velocity=83, time=357),
    Message('note_on', channel=6, note=60, velocity=83, time=0),
    Message('note_on', channel=6, note=56, velocity=83, time=0),
    Message('note_on', channel=6, note=65, velocity=0, time=20),
    Message('note_on', channel=6, note=60, velocity=0, time=0),
    Message('note_on', channel=6, note=56, velocity=0, time=0),
    Message('note_on', channel=6, note=64, velocity=74, time=364),
    Message('note_on', channel=6, note=60, velocity=74, time=0),
    Message('note_on', channel=6, note=55, velocity=74, time=0),
    Message('note_on', channel=6, note=64, velocity=0, time=27),
    Message('note_on', channel=6, note=60, velocity=0, time=0),
    Message('note_on', channel=6, note=55, velocity=0, time=0),
    Message('note_on', channel=6, note=64, velocity=83, time=357),
    Message('note_on', channel=6, note=60, velocity=83, time=0),
    Message('note_on', channel=6, note=55, velocity=83, time=0),
    Message('note_on', channel=6, note=64, velocity=0, time=20),
    Message('note_on', channel=6, note=60, velocity=0, time=0),
    Message('note_on', channel=6, note=55, velocity=0, time=0),
    Message('note_on', channel=6, note=65, velocity=74, time=364),
    Message('note_on', channel=6, note=62, velocity=74, time=0),
    Message('note_on', channel=6, note=59, velocity=74, time=0),
    Message('note_on', channel=6, note=67, velocity=74, time=0),
    Message('note_on', channel=6, note=65, velocity=0, time=27),
    Message('note_on', channel=6, note=62, velocity=0, time=0),
    Message('note_on', channel=6, note=59, velocity=0, time=0),
    Message('note_on', channel=6, note=67, velocity=0, time=0),
    Message('note_on', channel=6, note=65, velocity=83, time=357),
    Message('note_on', channel=6, note=62, velocity=83, time=0),
    Message('note_on', channel=6, note=59, velocity=83, time=0),
    Message('note_on', channel=6, note=67, velocity=83, time=0),
    Message('note_on', channel=6, note=65, velocity=0, time=20),
    Message('note_on', channel=6, note=62, velocity=0, time=0),
    Message('note_on', channel=6, note=59, velocity=0, time=0),
    Message('note_on', channel=6, note=67, velocity=0, time=0),
    Message('note_on', channel=6, note=65, velocity=74, time=364),
    Message('note_on', channel=6, note=62, velocity=74, time=0),
    Message('note_on', channel=6, note=60, velocity=74, time=0),
    Message('note_on', channel=6, note=69, velocity=74, time=0),
    Message('note_on', channel=6, note=65, velocity=0, time=27),
    Message('note_on', channel=6, note=62, velocity=0, time=0),
    Message('note_on', channel=6, note=60, velocity=0, time=0),
    Message('note_on', channel=6, note=69, velocity=0, time=0),
    Message('note_on', channel=6, note=65, velocity=83, time=357),
    Message('note_on', channel=6, note=62, velocity=83, time=0),
    Message('note_on', channel=6, note=60, velocity=83, time=0),
    Message('note_on', channel=6, note=69, velocity=83, time=0),
    Message('note_on', channel=6, note=65, velocity=0, time=20),
    Message('note_on', channel=6, note=62, velocity=0, time=0),
    Message('note_on', channel=6, note=60, velocity=0, time=0),
    Message('note_on', channel=6, note=69, velocity=0, time=0),
    Message('note_on', channel=6, note=64, velocity=74, time=364),
    Message('note_on', channel=6, note=60, velocity=74, time=0),
    Message('note_on', channel=6, note=55, velocity=74, time=0),
    Message('note_on', channel=6, note=64, velocity=0, time=27),
    Message('note_on', channel=6, note=60, velocity=0, time=0),
    Message('note_on', channel=6, note=55, velocity=0, time=0),
    Message('note_on', channel=6, note=64, velocity=83, time=357),
    Message('note_on', channel=6, note=60, velocity=83, time=0),
    Message('note_on', channel=6, note=55, velocity=83, time=0),
    Message('note_on', channel=6, note=64, velocity=0, time=20),
    Message('note_on', channel=6, note=60, velocity=0, time=0),
    Message('note_on', channel=6, note=55, velocity=0, time=0),
    Message('note_on', channel=6, note=64, velocity=74, time=364),
    Message('note_on', channel=6, note=60, velocity=74, time=0),
    Message('note_on', channel=6, note=55, velocity=74, time=0),
    Message('note_on', channel=6, note=64, velocity=0, time=27),
    Message('note_on', channel=6, note=60, velocity=0, time=0),
    Message('note_on', channel=6, note=55, velocity=0, time=0),
    Message('note_on', channel=6, note=64, velocity=83, time=357),
    Message('note_on', channel=6, note=60, velocity=83, time=0),
    Message('note_on', channel=6, note=55, velocity=83, time=0),
    Message('note_on', channel=6, note=64, velocity=0, time=20),
    Message('note_on', channel=6, note=60, velocity=0, time=0),
    Message('note_on', channel=6, note=55, velocity=0, time=0),
    Message('note_on', channel=6, note=64, velocity=74, time=364),
    Message('note_on', channel=6, note=59, velocity=74, time=0),
    Message('note_on', channel=6, note=55, velocity=74, time=0),
    Message('note_on', channel=6, note=64, velocity=0, time=27),
    Message('note_on', channel=6, note=59, velocity=0, time=0),
    Message('note_on', channel=6, note=55, velocity=0, time=0),
    Message('note_on', channel=6, note=64, velocity=83, time=357),
    Message('note_on', channel=6, note=59, velocity=83, time=0),
    Message('note_on', channel=6, note=55, velocity=83, time=0),
    Message('note_on', channel=6, note=64, velocity=0, time=20),
    Message('note_on', channel=6, note=59, velocity=0, time=0),
    Message('note_on', channel=6, note=55, velocity=0, time=0),
    Message('note_on', channel=6, note=64, velocity=74, time=364),
    Message('note_on', channel=6, note=62, velocity=74, time=0),
    Message('note_on', channel=6, note=58, velocity=74, time=0),
    Message('note_on', channel=6, note=67, velocity=74, time=0),
    Message('note_on', channel=6, note=64, velocity=0, time=27),
    Message('note_on', channel=6, note=62, velocity=0, time=0),
    Message('note_on', channel=6, note=58, velocity=0, time=0),
    Message('note_on', channel=6, note=67, velocity=0, time=0),
    Message('note_on', channel=6, note=64, velocity=83, time=357),
    Message('note_on', channel=6, note=62, velocity=83, time=0),
    Message('note_on', channel=6, note=58, velocity=83, time=0),
    Message('note_on', channel=6, note=67, velocity=83, time=0),
    Message('note_on', channel=6, note=64, velocity=0, time=20),
    Message('note_on', channel=6, note=62, velocity=0, time=0),
    Message('note_on', channel=6, note=58, velocity=0, time=0),
    Message('note_on', channel=6, note=67, velocity=0, time=0),
    Message('note_on', channel=6, note=67, velocity=74, time=364),
    Message('note_on', channel=6, note=64, velocity=74, time=0),
    Message('note_on', channel=6, note=61, velocity=74, time=0),
    Message('note_on', channel=6, note=69, velocity=74, time=0),
    Message('note_on', channel=6, note=67, velocity=0, time=27),
    Message('note_on', channel=6, note=64, velocity=0, time=0),
    Message('note_on', channel=6, note=61, velocity=0, time=0),
    Message('note_on', channel=6, note=69, velocity=0, time=0),
    Message('note_on', channel=6, note=67, velocity=83, time=357),
    Message('note_on', channel=6, note=64, velocity=83, time=0),
    Message('note_on', channel=6, note=61, velocity=83, time=0),
    Message('note_on', channel=6, note=69, velocity=83, time=0),
    Message('note_on', channel=6, note=67, velocity=0, time=20),
    Message('note_on', channel=6, note=64, velocity=0, time=0),
    Message('note_on', channel=6, note=61, velocity=0, time=0),
    Message('note_on', channel=6, note=69, velocity=0, time=0),
    Message('note_on', channel=6, note=65, velocity=74, time=364),
    Message('note_on', channel=6, note=62, velocity=74, time=0),
    Message('note_on', channel=6, note=57, velocity=74, time=0),
    Message('note_on', channel=6, note=65, velocity=0, time=27),
    Message('note_on', channel=6, note=62, velocity=0, time=0),
    Message('note_on', channel=6, note=57, velocity=0, time=0),
    Message('note_on', channel=6, note=65, velocity=83, time=357),
    Message('note_on', channel=6, note=62, velocity=83, time=0),
    Message('note_on', channel=6, note=57, velocity=83, time=0),
    Message('note_on', channel=6, note=65, velocity=0, time=20),
    Message('note_on', channel=6, note=62, velocity=0, time=0),
    Message('note_on', channel=6, note=57, velocity=0, time=0),
    Message('note_on', channel=6, note=65, velocity=74, time=364),
    Message('note_on', channel=6, note=62, velocity=74, time=0),
    Message('note_on', channel=6, note=60, velocity=74, time=0),
    Message('note_on', channel=6, note=69, velocity=74, time=0),
    Message('note_on', channel=6, note=65, velocity=0, time=27),
    Message('note_on', channel=6, note=62, velocity=0, time=0),
    Message('note_on', channel=6, note=60, velocity=0, time=0),
    Message('note_on', channel=6, note=69, velocity=0, time=0),
    Message('note_on', channel=6, note=65, velocity=83, time=357),
    Message('note_on', channel=6, note=62, velocity=83, time=0),
    Message('note_on', channel=6, note=60, velocity=83, time=0),
    Message('note_on', channel=6, note=69, velocity=83, time=0),
    Message('note_on', channel=6, note=65, velocity=0, time=20),
    Message('note_on', channel=6, note=62, velocity=0, time=0),
    Message('note_on', channel=6, note=60, velocity=0, time=0),
    Message('note_on', channel=6, note=69, velocity=0, time=0),
    Message('note_on', channel=6, note=65, velocity=74, time=364),
    Message('note_on', channel=6, note=62, velocity=74, time=0),
    Message('note_on', channel=6, note=59, velocity=74, time=0),
    Message('note_on', channel=6, note=67, velocity=74, time=0),
    Message('note_on', channel=6, note=65, velocity=0, time=27),
    Message('note_on', channel=6, note=62, velocity=0, time=0),
    Message('note_on', channel=6, note=59, velocity=0, time=0),
    Message('note_on', channel=6, note=67, velocity=0, time=0),
    Message('note_on', channel=6, note=65, velocity=83, time=357),
    Message('note_on', channel=6, note=62, velocity=83, time=0),
    Message('note_on', channel=6, note=59, velocity=83, time=0),
    Message('note_on', channel=6, note=67, velocity=83, time=0),
    Message('note_on', channel=6, note=65, velocity=0, time=20),
    Message('note_on', channel=6, note=62, velocity=0, time=0),
    Message('note_on', channel=6, note=59, velocity=0, time=0),
    Message('note_on', channel=6, note=67, velocity=0, time=0),
    Message('note_on', channel=6, note=64, velocity=74, time=364),
    Message('note_on', channel=6, note=60, velocity=74, time=0),
    Message('note_on', channel=6, note=55, velocity=74, time=0),
    Message('note_on', channel=6, note=64, velocity=0, time=27),
    Message('note_on', channel=6, note=60, velocity=0, time=0),
    Message('note_on', channel=6, note=55, velocity=0, time=0),
    Message('note_on', channel=6, note=64, velocity=83, time=357),
    Message('note_on', channel=6, note=60, velocity=83, time=0),
    Message('note_on', channel=6, note=55, velocity=83, time=0),
    Message('note_on', channel=6, note=64, velocity=0, time=20),
    Message('note_on', channel=6, note=60, velocity=0, time=0),
    Message('note_on', channel=6, note=55, velocity=0, time=0),
    Message('note_on', channel=6, note=64, velocity=74, time=364),
    Message('note_on', channel=6, note=60, velocity=74, time=0),
    Message('note_on', channel=6, note=55, velocity=74, time=0),
    Message('note_on', channel=6, note=64, velocity=0, time=27),
    Message('note_on', channel=6, note=60, velocity=0, time=0),
    Message('note_on', channel=6, note=55, velocity=0, time=0),
    Message('note_on', channel=6, note=64, velocity=74, time=357),
    Message('note_on', channel=6, note=62, velocity=74, time=0),
    Message('note_on', channel=6, note=59, velocity=74, time=0),
    Message('note_on', channel=6, note=67, velocity=74, time=0),
    Message('note_on', channel=6, note=64, velocity=0, time=27),
    Message('note_on', channel=6, note=62, velocity=0, time=0),
    Message('note_on', channel=6, note=59, velocity=0, time=0),
    Message('note_on', channel=6, note=67, velocity=0, time=0),
    Message('note_on', channel=6, note=64, velocity=74, time=357),
    Message('note_on', channel=6, note=60, velocity=74, time=0),
    Message('note_on', channel=6, note=58, velocity=74, time=0),
    Message('note_on', channel=6, note=67, velocity=74, time=0),
    Message('note_on', channel=6, note=64, velocity=0, time=27),
    Message('note_on', channel=6, note=60, velocity=0, time=0),
    Message('note_on', channel=6, note=58, velocity=0, time=0),
    Message('note_on', channel=6, note=67, velocity=0, time=0),
    Message('note_on', channel=6, note=64, velocity=83, time=357),
    Message('note_on', channel=6, note=60, velocity=83, time=0),
    Message('note_on', channel=6, note=58, velocity=83, time=0),
    Message('note_on', channel=6, note=67, velocity=83, time=0),
    Message('note_on', channel=6, note=64, velocity=0, time=20),
    Message('note_on', channel=6, note=60, velocity=0, time=0),
    Message('note_on', channel=6, note=58, velocity=0, time=0),
    Message('note_on', channel=6, note=67, velocity=0, time=0),
    Message('note_on', channel=6, note=65, velocity=74, time=364),
    Message('note_on', channel=6, note=60, velocity=74, time=0),
    Message('note_on', channel=6, note=57, velocity=74, time=0),
    Message('note_on', channel=6, note=65, velocity=0, time=27),
    Message('note_on', channel=6, note=60, velocity=0, time=0),
    Message('note_on', channel=6, note=57, velocity=0, time=0),
    Message('note_on', channel=6, note=65, velocity=83, time=357),
    Message('note_on', channel=6, note=60, velocity=83, time=0),
    Message('note_on', channel=6, note=57, velocity=83, time=0),
    Message('note_on', channel=6, note=65, velocity=0, time=20),
    Message('note_on', channel=6, note=60, velocity=0, time=0),
    Message('note_on', channel=6, note=57, velocity=0, time=0),
    Message('note_on', channel=6, note=65, velocity=74, time=364),
    Message('note_on', channel=6, note=60, velocity=74, time=0),
    Message('note_on', channel=6, note=56, velocity=74, time=0),
    Message('note_on', channel=6, note=65, velocity=0, time=27),
    Message('note_on', channel=6, note=60, velocity=0, time=0),
    Message('note_on', channel=6, note=56, velocity=0, time=0),
    Message('note_on', channel=6, note=65, velocity=83, time=357),
    Message('note_on', channel=6, note=60, velocity=83, time=0),
    Message('note_on', channel=6, note=56, velocity=83, time=0),
    Message('note_on', channel=6, note=65, velocity=0, time=20),
    Message('note_on', channel=6, note=60, velocity=0, time=0),
    Message('note_on', channel=6, note=56, velocity=0, time=0),
    Message('note_on', channel=6, note=64, velocity=74, time=364),
    Message('note_on', channel=6, note=60, velocity=74, time=0),
    Message('note_on', channel=6, note=55, velocity=74, time=0),
    Message('note_on', channel=6, note=64, velocity=0, time=27),
    Message('note_on', channel=6, note=60, velocity=0, time=0),
    Message('note_on', channel=6, note=55, velocity=0, time=0),
    Message('note_on', channel=6, note=64, velocity=83, time=357),
    Message('note_on', channel=6, note=60, velocity=83, time=0),
    Message('note_on', channel=6, note=55, velocity=83, time=0),
    Message('note_on', channel=6, note=64, velocity=0, time=20),
    Message('note_on', channel=6, note=60, velocity=0, time=0),
    Message('note_on', channel=6, note=55, velocity=0, time=0),
    Message('note_on', channel=6, note=65, velocity=74, time=364),
    Message('note_on', channel=6, note=62, velocity=74, time=0),
    Message('note_on', channel=6, note=59, velocity=74, time=0),
    Message('note_on', channel=6, note=67, velocity=74, time=0),
    Message('note_on', channel=6, note=65, velocity=0, time=27),
    Message('note_on', channel=6, note=62, velocity=0, time=0),
    Message('note_on', channel=6, note=59, velocity=0, time=0),
    Message('note_on', channel=6, note=67, velocity=0, time=0),
    Message('note_on', channel=6, note=65, velocity=83, time=357),
    Message('note_on', channel=6, note=62, velocity=83, time=0),
    Message('note_on', channel=6, note=59, velocity=83, time=0),
    Message('note_on', channel=6, note=67, velocity=83, time=0),
    Message('note_on', channel=6, note=65, velocity=0, time=20),
    Message('note_on', channel=6, note=62, velocity=0, time=0),
    Message('note_on', channel=6, note=59, velocity=0, time=0),
    Message('note_on', channel=6, note=67, velocity=0, time=0),
    Message('note_on', channel=6, note=65, velocity=74, time=364),
    Message('note_on', channel=6, note=62, velocity=74, time=0),
    Message('note_on', channel=6, note=60, velocity=74, time=0),
    Message('note_on', channel=6, note=69, velocity=74, time=0),
    Message('note_on', channel=6, note=65, velocity=0, time=27),
    Message('note_on', channel=6, note=62, velocity=0, time=0),
    Message('note_on', channel=6, note=60, velocity=0, time=0),
    Message('note_on', channel=6, note=69, velocity=0, time=0),
    Message('note_on', channel=6, note=65, velocity=83, time=357),
    Message('note_on', channel=6, note=62, velocity=83, time=0),
    Message('note_on', channel=6, note=60, velocity=83, time=0),
    Message('note_on', channel=6, note=69, velocity=83, time=0),
    Message('note_on', channel=6, note=65, velocity=0, time=20),
    Message('note_on', channel=6, note=62, velocity=0, time=0),
    Message('note_on', channel=6, note=60, velocity=0, time=0),
    Message('note_on', channel=6, note=69, velocity=0, time=0),
    Message('note_on', channel=6, note=64, velocity=74, time=364),
    Message('note_on', channel=6, note=60, velocity=74, time=0),
    Message('note_on', channel=6, note=55, velocity=74, time=0),
    Message('note_on', channel=6, note=64, velocity=0, time=27),
    Message('note_on', channel=6, note=60, velocity=0, time=0),
    Message('note_on', channel=6, note=55, velocity=0, time=0),
    Message('note_on', channel=6, note=64, velocity=83, time=357),
    Message('note_on', channel=6, note=60, velocity=83, time=0),
    Message('note_on', channel=6, note=55, velocity=83, time=0),
    Message('note_on', channel=6, note=64, velocity=0, time=20),
    Message('note_on', channel=6, note=60, velocity=0, time=0),
    Message('note_on', channel=6, note=55, velocity=0, time=0),
    Message('note_on', channel=6, note=64, velocity=74, time=364),
    Message('note_on', channel=6, note=60, velocity=74, time=0),
    Message('note_on', channel=6, note=55, velocity=74, time=0),
    Message('note_on', channel=6, note=64, velocity=0, time=27),
    Message('note_on', channel=6, note=60, velocity=0, time=0),
    Message('note_on', channel=6, note=55, velocity=0, time=0),
    Message('note_on', channel=6, note=64, velocity=83, time=357),
    Message('note_on', channel=6, note=60, velocity=83, time=0),
    Message('note_on', channel=6, note=55, velocity=83, time=0),
    Message('note_on', channel=6, note=64, velocity=0, time=20),
    Message('note_on', channel=6, note=60, velocity=0, time=0),
    Message('note_on', channel=6, note=55, velocity=0, time=0),
    Message('note_on', channel=6, note=64, velocity=74, time=364),
    Message('note_on', channel=6, note=60, velocity=74, time=0),
    Message('note_on', channel=6, note=58, velocity=74, time=0),
    Message('note_on', channel=6, note=67, velocity=74, time=0),
    Message('note_on', channel=6, note=64, velocity=0, time=27),
    Message('note_on', channel=6, note=60, velocity=0, time=0),
    Message('note_on', channel=6, note=58, velocity=0, time=0),
    Message('note_on', channel=6, note=67, velocity=0, time=0),
    Message('note_on', channel=6, note=64, velocity=83, time=357),
    Message('note_on', channel=6, note=60, velocity=83, time=0),
    Message('note_on', channel=6, note=58, velocity=83, time=0),
    Message('note_on', channel=6, note=67, velocity=83, time=0),
    Message('note_on', channel=6, note=64, velocity=0, time=20),
    Message('note_on', channel=6, note=60, velocity=0, time=0),
    Message('note_on', channel=6, note=58, velocity=0, time=0),
    Message('note_on', channel=6, note=67, velocity=0, time=0),
    Message('note_on', channel=6, note=65, velocity=74, time=364),
    Message('note_on', channel=6, note=60, velocity=74, time=0),
    Message('note_on', channel=6, note=57, velocity=74, time=0),
    Message('note_on', channel=6, note=65, velocity=0, time=27),
    Message('note_on', channel=6, note=60, velocity=0, time=0),
    Message('note_on', channel=6, note=57, velocity=0, time=0),
    Message('note_on', channel=6, note=65, velocity=83, time=357),
    Message('note_on', channel=6, note=60, velocity=83, time=0),
    Message('note_on', channel=6, note=57, velocity=83, time=0),
    Message('note_on', channel=6, note=65, velocity=0, time=20),
    Message('note_on', channel=6, note=60, velocity=0, time=0),
    Message('note_on', channel=6, note=57, velocity=0, time=0),
    Message('note_on', channel=6, note=65, velocity=83, time=364),
    Message('note_on', channel=6, note=60, velocity=83, time=0),
    Message('note_on', channel=6, note=57, velocity=83, time=0),
    Message('note_on', channel=6, note=65, velocity=0, time=24),
    Message('note_on', channel=6, note=60, velocity=0, time=0),
    Message('note_on', channel=6, note=57, velocity=0, time=0),
    Message('note_on', channel=6, note=65, velocity=82, time=360),
    Message('note_on', channel=6, note=60, velocity=82, time=0),
    Message('note_on', channel=6, note=57, velocity=82, time=0),
    Message('note_on', channel=6, note=65, velocity=0, time=20),
    Message('note_on', channel=6, note=60, velocity=0, time=0),
    Message('note_on', channel=6, note=57, velocity=0, time=0),
    Message('note_on', channel=6, note=65, velocity=74, time=364),
    Message('note_on', channel=6, note=62, velocity=74, time=0),
    Message('note_on', channel=6, note=60, velocity=74, time=0),
    Message('note_on', channel=6, note=69, velocity=74, time=0),
    Message('note_on', channel=6, note=65, velocity=0, time=27),
    Message('note_on', channel=6, note=62, velocity=0, time=0),
    Message('note_on', channel=6, note=60, velocity=0, time=0),
    Message('note_on', channel=6, note=69, velocity=0, time=0),
    Message('note_on', channel=6, note=65, velocity=83, time=357),
    Message('note_on', channel=6, note=62, velocity=83, time=0),
    Message('note_on', channel=6, note=60, velocity=83, time=0),
    Message('note_on', channel=6, note=69, velocity=83, time=0),
    Message('note_on', channel=6, note=65, velocity=0, time=20),
    Message('note_on', channel=6, note=62, velocity=0, time=0),
    Message('note_on', channel=6, note=60, velocity=0, time=0),
    Message('note_on', channel=6, note=69, velocity=0, time=0),
    Message('note_on', channel=6, note=65, velocity=74, time=364),
    Message('note_on', channel=6, note=62, velocity=74, time=0),
    Message('note_on', channel=6, note=59, velocity=74, time=0),
    Message('note_on', channel=6, note=67, velocity=74, time=0),
    Message('note_on', channel=6, note=65, velocity=0, time=27),
    Message('note_on', channel=6, note=62, velocity=0, time=0),
    Message('note_on', channel=6, note=59, velocity=0, time=0),
    Message('note_on', channel=6, note=67, velocity=0, time=0),
    Message('note_on', channel=6, note=65, velocity=83, time=357),
    Message('note_on', channel=6, note=62, velocity=83, time=0),
    Message('note_on', channel=6, note=59, velocity=83, time=0),
    Message('note_on', channel=6, note=67, velocity=83, time=0),
    Message('note_on', channel=6, note=65, velocity=0, time=20),
    Message('note_on', channel=6, note=62, velocity=0, time=0),
    Message('note_on', channel=6, note=59, velocity=0, time=0),
    Message('note_on', channel=6, note=67, velocity=0, time=0),
    Message('note_on', channel=6, note=64, velocity=74, time=364),
    Message('note_on', channel=6, note=62, velocity=74, time=0),
    Message('note_on', channel=6, note=59, velocity=74, time=0),
    Message('note_on', channel=6, note=67, velocity=74, time=0),
    Message('note_on', channel=6, note=64, velocity=0, time=27),
    Message('note_on', channel=6, note=62, velocity=0, time=0),
    Message('note_on', channel=6, note=59, velocity=0, time=0),
    Message('note_on', channel=6, note=67, velocity=0, time=0),
    Message('note_on', channel=6, note=64, velocity=83, time=357),
    Message('note_on', channel=6, note=62, velocity=83, time=0),
    Message('note_on', channel=6, note=59, velocity=83, time=0),
    Message('note_on', channel=6, note=67, velocity=83, time=0),
    Message('note_on', channel=6, note=64, velocity=0, time=20),
    Message('note_on', channel=6, note=62, velocity=0, time=0),
    Message('note_on', channel=6, note=59, velocity=0, time=0),
    Message('note_on', channel=6, note=67, velocity=0, time=0),
    Message('note_on', channel=6, note=64, velocity=74, time=364),
    Message('note_on', channel=6, note=60, velocity=74, time=0),
    Message('note_on', channel=6, note=57, velocity=74, time=0),
    Message('note_on', channel=6, note=64, velocity=0, time=27),
    Message('note_on', channel=6, note=60, velocity=0, time=0),
    Message('note_on', channel=6, note=57, velocity=0, time=0),
    Message('note_on', channel=6, note=64, velocity=83, time=357),
    Message('note_on', channel=6, note=60, velocity=83, time=0),
    Message('note_on', channel=6, note=57, velocity=83, time=0),
    Message('note_on', channel=6, note=64, velocity=0, time=20),
    Message('note_on', channel=6, note=60, velocity=0, time=0),
    Message('note_on', channel=6, note=57, velocity=0, time=0),
    Message('note_on', channel=6, note=65, velocity=74, time=364),
    Message('note_on', channel=6, note=62, velocity=74, time=0),
    Message('note_on', channel=6, note=60, velocity=74, time=0),
    Message('note_on', channel=6, note=69, velocity=74, time=0),
    Message('note_on', channel=6, note=65, velocity=0, time=27),
    Message('note_on', channel=6, note=62, velocity=0, time=0),
    Message('note_on', channel=6, note=60, velocity=0, time=0),
    Message('note_on', channel=6, note=69, velocity=0, time=0),
    Message('note_on', channel=6, note=65, velocity=83, time=357),
    Message('note_on', channel=6, note=62, velocity=83, time=0),
    Message('note_on', channel=6, note=60, velocity=83, time=0),
    Message('note_on', channel=6, note=69, velocity=83, time=0),
    Message('note_on', channel=6, note=65, velocity=0, time=20),
    Message('note_on', channel=6, note=62, velocity=0, time=0),
    Message('note_on', channel=6, note=60, velocity=0, time=0),
    Message('note_on', channel=6, note=69, velocity=0, time=0),
    Message('note_on', channel=6, note=65, velocity=74, time=364),
    Message('note_on', channel=6, note=62, velocity=74, time=0),
    Message('note_on', channel=6, note=59, velocity=74, time=0),
    Message('note_on', channel=6, note=67, velocity=74, time=0),
    Message('note_on', channel=6, note=65, velocity=0, time=27),
    Message('note_on', channel=6, note=62, velocity=0, time=0),
    Message('note_on', channel=6, note=59, velocity=0, time=0),
    Message('note_on', channel=6, note=67, velocity=0, time=0),
    Message('note_on', channel=6, note=65, velocity=83, time=357),
    Message('note_on', channel=6, note=62, velocity=83, time=0),
    Message('note_on', channel=6, note=59, velocity=83, time=0),
    Message('note_on', channel=6, note=67, velocity=83, time=0),
    Message('note_on', channel=6, note=65, velocity=0, time=20),
    Message('note_on', channel=6, note=62, velocity=0, time=0),
    Message('note_on', channel=6, note=59, velocity=0, time=0),
    Message('note_on', channel=6, note=67, velocity=0, time=0),
    Message('note_on', channel=6, note=65, velocity=74, time=364),
    Message('note_on', channel=6, note=62, velocity=74, time=0),
    Message('note_on', channel=6, note=60, velocity=74, time=0),
    Message('note_on', channel=6, note=69, velocity=74, time=0),
    Message('note_on', channel=6, note=65, velocity=0, time=27),
    Message('note_on', channel=6, note=62, velocity=0, time=0),
    Message('note_on', channel=6, note=60, velocity=0, time=0),
    Message('note_on', channel=6, note=69, velocity=0, time=0),
    Message('note_on', channel=6, note=65, velocity=83, time=357),
    Message('note_on', channel=6, note=62, velocity=83, time=0),
    Message('note_on', channel=6, note=60, velocity=83, time=0),
    Message('note_on', channel=6, note=69, velocity=83, time=0),
    Message('note_on', channel=6, note=65, velocity=0, time=20),
    Message('note_on', channel=6, note=62, velocity=0, time=0),
    Message('note_on', channel=6, note=60, velocity=0, time=0),
    Message('note_on', channel=6, note=69, velocity=0, time=0),
    Message('note_on', channel=6, note=64, velocity=74, time=364),
    Message('note_on', channel=6, note=60, velocity=74, time=0),
    Message('note_on', channel=6, note=55, velocity=74, time=0),
    Message('note_on', channel=6, note=64, velocity=0, time=27),
    Message('note_on', channel=6, note=60, velocity=0, time=0),
    Message('note_on', channel=6, note=55, velocity=0, time=0),
    Message('note_on', channel=6, note=64, velocity=83, time=357),
    Message('note_on', channel=6, note=60, velocity=83, time=0),
    Message('note_on', channel=6, note=55, velocity=83, time=0),
    Message('note_on', channel=6, note=64, velocity=0, time=20),
    Message('note_on', channel=6, note=60, velocity=0, time=0),
    Message('note_on', channel=6, note=55, velocity=0, time=0),
    Message('note_on', channel=6, note=64, velocity=74, time=364),
    Message('note_on', channel=6, note=60, velocity=74, time=0),
    Message('note_on', channel=6, note=55, velocity=74, time=0),
    Message('note_on', channel=6, note=64, velocity=0, time=27),
    Message('note_on', channel=6, note=60, velocity=0, time=0),
    Message('note_on', channel=6, note=55, velocity=0, time=0),
    Message('note_on', channel=6, note=64, velocity=83, time=357),
    Message('note_on', channel=6, note=60, velocity=83, time=0),
    Message('note_on', channel=6, note=55, velocity=83, time=0),
    Message('note_on', channel=6, note=64, velocity=0, time=20),
    Message('note_on', channel=6, note=60, velocity=0, time=0),
    Message('note_on', channel=6, note=55, velocity=0, time=0),
    Message('note_on', channel=6, note=64, velocity=74, time=364),
    Message('note_on', channel=6, note=59, velocity=74, time=0),
    Message('note_on', channel=6, note=55, velocity=74, time=0),
    Message('note_on', channel=6, note=64, velocity=0, time=27),
    Message('note_on', channel=6, note=59, velocity=0, time=0),
    Message('note_on', channel=6, note=55, velocity=0, time=0),
    Message('note_on', channel=6, note=64, velocity=83, time=357),
    Message('note_on', channel=6, note=59, velocity=83, time=0),
    Message('note_on', channel=6, note=55, velocity=83, time=0),
    Message('note_on', channel=6, note=64, velocity=0, time=20),
    Message('note_on', channel=6, note=59, velocity=0, time=0),
    Message('note_on', channel=6, note=55, velocity=0, time=0),
    Message('note_on', channel=6, note=64, velocity=74, time=364),
    Message('note_on', channel=6, note=62, velocity=74, time=0),
    Message('note_on', channel=6, note=58, velocity=74, time=0),
    Message('note_on', channel=6, note=67, velocity=74, time=0),
    Message('note_on', channel=6, note=64, velocity=0, time=27),
    Message('note_on', channel=6, note=62, velocity=0, time=0),
    Message('note_on', channel=6, note=58, velocity=0, time=0),
    Message('note_on', channel=6, note=67, velocity=0, time=0),
    Message('note_on', channel=6, note=64, velocity=83, time=357),
    Message('note_on', channel=6, note=62, velocity=83, time=0),
    Message('note_on', channel=6, note=58, velocity=83, time=0),
    Message('note_on', channel=6, note=67, velocity=83, time=0),
    Message('note_on', channel=6, note=64, velocity=0, time=20),
    Message('note_on', channel=6, note=62, velocity=0, time=0),
    Message('note_on', channel=6, note=58, velocity=0, time=0),
    Message('note_on', channel=6, note=67, velocity=0, time=0),
    Message('note_on', channel=6, note=67, velocity=74, time=364),
    Message('note_on', channel=6, note=64, velocity=74, time=0),
    Message('note_on', channel=6, note=61, velocity=74, time=0),
    Message('note_on', channel=6, note=69, velocity=74, time=0),
    Message('note_on', channel=6, note=67, velocity=0, time=27),
    Message('note_on', channel=6, note=64, velocity=0, time=0),
    Message('note_on', channel=6, note=61, velocity=0, time=0),
    Message('note_on', channel=6, note=69, velocity=0, time=0),
    Message('note_on', channel=6, note=67, velocity=83, time=357),
    Message('note_on', channel=6, note=64, velocity=83, time=0),
    Message('note_on', channel=6, note=61, velocity=83, time=0),
    Message('note_on', channel=6, note=69, velocity=83, time=0),
    Message('note_on', channel=6, note=67, velocity=0, time=20),
    Message('note_on', channel=6, note=64, velocity=0, time=0),
    Message('note_on', channel=6, note=61, velocity=0, time=0),
    Message('note_on', channel=6, note=69, velocity=0, time=0),
    Message('note_on', channel=6, note=65, velocity=74, time=364),
    Message('note_on', channel=6, note=62, velocity=74, time=0),
    Message('note_on', channel=6, note=57, velocity=74, time=0),
    Message('note_on', channel=6, note=65, velocity=0, time=27),
    Message('note_on', channel=6, note=62, velocity=0, time=0),
    Message('note_on', channel=6, note=57, velocity=0, time=0),
    Message('note_on', channel=6, note=65, velocity=83, time=357),
    Message('note_on', channel=6, note=62, velocity=83, time=0),
    Message('note_on', channel=6, note=57, velocity=83, time=0),
    Message('note_on', channel=6, note=65, velocity=0, time=20),
    Message('note_on', channel=6, note=62, velocity=0, time=0),
    Message('note_on', channel=6, note=57, velocity=0, time=0),
    Message('note_on', channel=6, note=65, velocity=74, time=364),
    Message('note_on', channel=6, note=62, velocity=74, time=0),
    Message('note_on', channel=6, note=60, velocity=74, time=0),
    Message('note_on', channel=6, note=69, velocity=74, time=0),
    Message('note_on', channel=6, note=65, velocity=0, time=27),
    Message('note_on', channel=6, note=62, velocity=0, time=0),
    Message('note_on', channel=6, note=60, velocity=0, time=0),
    Message('note_on', channel=6, note=69, velocity=0, time=0),
    Message('note_on', channel=6, note=65, velocity=83, time=357),
    Message('note_on', channel=6, note=62, velocity=83, time=0),
    Message('note_on', channel=6, note=60, velocity=83, time=0),
    Message('note_on', channel=6, note=69, velocity=83, time=0),
    Message('note_on', channel=6, note=65, velocity=0, time=20),
    Message('note_on', channel=6, note=62, velocity=0, time=0),
    Message('note_on', channel=6, note=60, velocity=0, time=0),
    Message('note_on', channel=6, note=69, velocity=0, time=0),
    Message('note_on', channel=6, note=65, velocity=74, time=364),
    Message('note_on', channel=6, note=62, velocity=74, time=0),
    Message('note_on', channel=6, note=59, velocity=74, time=0),
    Message('note_on', channel=6, note=67, velocity=74, time=0),
    Message('note_on', channel=6, note=65, velocity=0, time=27),
    Message('note_on', channel=6, note=62, velocity=0, time=0),
    Message('note_on', channel=6, note=59, velocity=0, time=0),
    Message('note_on', channel=6, note=67, velocity=0, time=0),
    Message('note_on', channel=6, note=65, velocity=83, time=357),
    Message('note_on', channel=6, note=62, velocity=83, time=0),
    Message('note_on', channel=6, note=59, velocity=83, time=0),
    Message('note_on', channel=6, note=67, velocity=83, time=0),
    Message('note_on', channel=6, note=65, velocity=0, time=20),
    Message('note_on', channel=6, note=62, velocity=0, time=0),
    Message('note_on', channel=6, note=59, velocity=0, time=0),
    Message('note_on', channel=6, note=67, velocity=0, time=0),
    Message('note_on', channel=6, note=64, velocity=74, time=364),
    Message('note_on', channel=6, note=60, velocity=74, time=0),
    Message('note_on', channel=6, note=55, velocity=74, time=0),
    Message('note_on', channel=6, note=64, velocity=0, time=27),
    Message('note_on', channel=6, note=60, velocity=0, time=0),
    Message('note_on', channel=6, note=55, velocity=0, time=0),
    Message('note_on', channel=6, note=64, velocity=83, time=357),
    Message('note_on', channel=6, note=60, velocity=83, time=0),
    Message('note_on', channel=6, note=55, velocity=83, time=0),
    Message('note_on', channel=6, note=64, velocity=0, time=20),
    Message('note_on', channel=6, note=60, velocity=0, time=0),
    Message('note_on', channel=6, note=55, velocity=0, time=0),
    Message('note_on', channel=6, note=64, velocity=74, time=364),
    Message('note_on', channel=6, note=60, velocity=74, time=0),
    Message('note_on', channel=6, note=55, velocity=74, time=0),
    Message('note_on', channel=6, note=64, velocity=0, time=27),
    Message('note_on', channel=6, note=60, velocity=0, time=0),
    Message('note_on', channel=6, note=55, velocity=0, time=0),
    Message('note_on', channel=6, note=64, velocity=74, time=357),
    Message('note_on', channel=6, note=62, velocity=74, time=0),
    Message('note_on', channel=6, note=59, velocity=74, time=0),
    Message('note_on', channel=6, note=67, velocity=74, time=0),
    Message('note_on', channel=6, note=64, velocity=0, time=27),
    Message('note_on', channel=6, note=62, velocity=0, time=0),
    Message('note_on', channel=6, note=59, velocity=0, time=0),
    Message('note_on', channel=6, note=67, velocity=0, time=0),
    Message('note_on', channel=6, note=64, velocity=74, time=357),
    Message('note_on', channel=6, note=60, velocity=74, time=0),
    Message('note_on', channel=6, note=58, velocity=74, time=0),
    Message('note_on', channel=6, note=67, velocity=74, time=0),
    Message('note_on', channel=6, note=64, velocity=0, time=27),
    Message('note_on', channel=6, note=60, velocity=0, time=0),
    Message('note_on', channel=6, note=58, velocity=0, time=0),
    Message('note_on', channel=6, note=67, velocity=0, time=0),
    Message('note_on', channel=6, note=64, velocity=83, time=357),
    Message('note_on', channel=6, note=60, velocity=83, time=0),
    Message('note_on', channel=6, note=58, velocity=83, time=0),
    Message('note_on', channel=6, note=67, velocity=83, time=0),
    Message('note_on', channel=6, note=64, velocity=0, time=20),
    Message('note_on', channel=6, note=60, velocity=0, time=0),
    Message('note_on', channel=6, note=58, velocity=0, time=0),
    Message('note_on', channel=6, note=67, velocity=0, time=0),
    Message('note_on', channel=6, note=65, velocity=74, time=364),
    Message('note_on', channel=6, note=60, velocity=74, time=0),
    Message('note_on', channel=6, note=57, velocity=74, time=0),
    Message('note_on', channel=6, note=65, velocity=0, time=27),
    Message('note_on', channel=6, note=60, velocity=0, time=0),
    Message('note_on', channel=6, note=57, velocity=0, time=0),
    Message('note_on', channel=6, note=65, velocity=83, time=357),
    Message('note_on', channel=6, note=60, velocity=83, time=0),
    Message('note_on', channel=6, note=57, velocity=83, time=0),
    Message('note_on', channel=6, note=65, velocity=0, time=20),
    Message('note_on', channel=6, note=60, velocity=0, time=0),
    Message('note_on', channel=6, note=57, velocity=0, time=0),
    Message('note_on', channel=6, note=65, velocity=74, time=364),
    Message('note_on', channel=6, note=60, velocity=74, time=0),
    Message('note_on', channel=6, note=56, velocity=74, time=0),
    Message('note_on', channel=6, note=65, velocity=0, time=27),
    Message('note_on', channel=6, note=60, velocity=0, time=0),
    Message('note_on', channel=6, note=56, velocity=0, time=0),
    Message('note_on', channel=6, note=65, velocity=83, time=357),
    Message('note_on', channel=6, note=60, velocity=83, time=0),
    Message('note_on', channel=6, note=56, velocity=83, time=0),
    Message('note_on', channel=6, note=65, velocity=0, time=20),
    Message('note_on', channel=6, note=60, velocity=0, time=0),
    Message('note_on', channel=6, note=56, velocity=0, time=0),
    Message('note_on', channel=6, note=64, velocity=74, time=364),
    Message('note_on', channel=6, note=60, velocity=74, time=0),
    Message('note_on', channel=6, note=55, velocity=74, time=0),
    Message('note_on', channel=6, note=64, velocity=0, time=27),
    Message('note_on', channel=6, note=60, velocity=0, time=0),
    Message('note_on', channel=6, note=55, velocity=0, time=0),
    Message('note_on', channel=6, note=64, velocity=83, time=357),
    Message('note_on', channel=6, note=60, velocity=83, time=0),
    Message('note_on', channel=6, note=55, velocity=83, time=0),
    Message('note_on', channel=6, note=64, velocity=0, time=20),
    Message('note_on', channel=6, note=60, velocity=0, time=0),
    Message('note_on', channel=6, note=55, velocity=0, time=0),
    Message('note_on', channel=6, note=65, velocity=74, time=364),
    Message('note_on', channel=6, note=62, velocity=74, time=0),
    Message('note_on', channel=6, note=59, velocity=74, time=0),
    Message('note_on', channel=6, note=67, velocity=74, time=0),
    Message('note_on', channel=6, note=65, velocity=0, time=27),
    Message('note_on', channel=6, note=62, velocity=0, time=0),
    Message('note_on', channel=6, note=59, velocity=0, time=0),
    Message('note_on', channel=6, note=67, velocity=0, time=0),
    Message('note_on', channel=6, note=65, velocity=83, time=357),
    Message('note_on', channel=6, note=62, velocity=83, time=0),
    Message('note_on', channel=6, note=59, velocity=83, time=0),
    Message('note_on', channel=6, note=67, velocity=83, time=0),
    Message('note_on', channel=6, note=65, velocity=0, time=20),
    Message('note_on', channel=6, note=62, velocity=0, time=0),
    Message('note_on', channel=6, note=59, velocity=0, time=0),
    Message('note_on', channel=6, note=67, velocity=0, time=0),
    Message('note_on', channel=6, note=65, velocity=74, time=364),
    Message('note_on', channel=6, note=62, velocity=74, time=0),
    Message('note_on', channel=6, note=60, velocity=74, time=0),
    Message('note_on', channel=6, note=69, velocity=74, time=0),
    Message('note_on', channel=6, note=65, velocity=0, time=27),
    Message('note_on', channel=6, note=62, velocity=0, time=0),
    Message('note_on', channel=6, note=60, velocity=0, time=0),
    Message('note_on', channel=6, note=69, velocity=0, time=0),
    Message('note_on', channel=6, note=65, velocity=83, time=357),
    Message('note_on', channel=6, note=62, velocity=83, time=0),
    Message('note_on', channel=6, note=60, velocity=83, time=0),
    Message('note_on', channel=6, note=69, velocity=83, time=0),
    Message('note_on', channel=6, note=65, velocity=0, time=20),
    Message('note_on', channel=6, note=62, velocity=0, time=0),
    Message('note_on', channel=6, note=60, velocity=0, time=0),
    Message('note_on', channel=6, note=69, velocity=0, time=0),
    Message('note_on', channel=6, note=64, velocity=74, time=364),
    Message('note_on', channel=6, note=60, velocity=74, time=0),
    Message('note_on', channel=6, note=55, velocity=74, time=0),
    Message('note_on', channel=6, note=64, velocity=0, time=27),
    Message('note_on', channel=6, note=60, velocity=0, time=0),
    Message('note_on', channel=6, note=55, velocity=0, time=0),
    Message('note_on', channel=6, note=64, velocity=83, time=357),
    Message('note_on', channel=6, note=60, velocity=83, time=0),
    Message('note_on', channel=6, note=55, velocity=83, time=0),
    Message('note_on', channel=6, note=64, velocity=0, time=20),
    Message('note_on', channel=6, note=60, velocity=0, time=0),
    Message('note_on', channel=6, note=55, velocity=0, time=0),
    Message('note_on', channel=6, note=64, velocity=74, time=364),
    Message('note_on', channel=6, note=60, velocity=74, time=0),
    Message('note_on', channel=6, note=55, velocity=74, time=0),
    Message('note_on', channel=6, note=64, velocity=0, time=27),
    Message('note_on', channel=6, note=60, velocity=0, time=0),
    Message('note_on', channel=6, note=55, velocity=0, time=0),
    Message('note_on', channel=6, note=64, velocity=83, time=357),
    Message('note_on', channel=6, note=60, velocity=83, time=0),
    Message('note_on', channel=6, note=55, velocity=83, time=0),
    Message('note_on', channel=6, note=64, velocity=0, time=20),
    Message('note_on', channel=6, note=60, velocity=0, time=0),
    Message('note_on', channel=6, note=55, velocity=0, time=0),
    Message('note_on', channel=6, note=64, velocity=74, time=364),
    Message('note_on', channel=6, note=60, velocity=74, time=0),
    Message('note_on', channel=6, note=58, velocity=74, time=0),
    Message('note_on', channel=6, note=67, velocity=74, time=0),
    Message('note_on', channel=6, note=64, velocity=0, time=27),
    Message('note_on', channel=6, note=60, velocity=0, time=0),
    Message('note_on', channel=6, note=58, velocity=0, time=0),
    Message('note_on', channel=6, note=67, velocity=0, time=0),
    Message('note_on', channel=6, note=64, velocity=83, time=357),
    Message('note_on', channel=6, note=60, velocity=83, time=0),
    Message('note_on', channel=6, note=58, velocity=83, time=0),
    Message('note_on', channel=6, note=67, velocity=83, time=0),
    Message('note_on', channel=6, note=64, velocity=0, time=20),
    Message('note_on', channel=6, note=60, velocity=0, time=0),
    Message('note_on', channel=6, note=58, velocity=0, time=0),
    Message('note_on', channel=6, note=67, velocity=0, time=0),
    Message('note_on', channel=6, note=65, velocity=74, time=364),
    Message('note_on', channel=6, note=60, velocity=74, time=0),
    Message('note_on', channel=6, note=57, velocity=74, time=0),
    Message('note_on', channel=6, note=65, velocity=0, time=27),
    Message('note_on', channel=6, note=60, velocity=0, time=0),
    Message('note_on', channel=6, note=57, velocity=0, time=0),
    Message('note_on', channel=6, note=65, velocity=83, time=357),
    Message('note_on', channel=6, note=60, velocity=83, time=0),
    Message('note_on', channel=6, note=57, velocity=83, time=0),
    Message('note_on', channel=6, note=65, velocity=0, time=20),
    Message('note_on', channel=6, note=60, velocity=0, time=0),
    Message('note_on', channel=6, note=57, velocity=0, time=0),
    Message('note_on', channel=6, note=65, velocity=83, time=364),
    Message('note_on', channel=6, note=60, velocity=83, time=0),
    Message('note_on', channel=6, note=57, velocity=83, time=0),
    Message('note_on', channel=6, note=65, velocity=0, time=24),
    Message('note_on', channel=6, note=60, velocity=0, time=0),
    Message('note_on', channel=6, note=57, velocity=0, time=0),
    Message('note_on', channel=6, note=65, velocity=82, time=360),
    Message('note_on', channel=6, note=60, velocity=82, time=0),
    Message('note_on', channel=6, note=57, velocity=82, time=0),
    Message('note_on', channel=6, note=65, velocity=0, time=20),
    Message('note_on', channel=6, note=60, velocity=0, time=0),
    Message('note_on', channel=6, note=57, velocity=0, time=0),
    Message('note_on', channel=6, note=65, velocity=74, time=364),
    Message('note_on', channel=6, note=62, velocity=74, time=0),
    Message('note_on', channel=6, note=60, velocity=74, time=0),
    Message('note_on', channel=6, note=69, velocity=74, time=0),
    Message('note_on', channel=6, note=65, velocity=0, time=27),
    Message('note_on', channel=6, note=62, velocity=0, time=0),
    Message('note_on', channel=6, note=60, velocity=0, time=0),
    Message('note_on', channel=6, note=69, velocity=0, time=0),
    Message('note_on', channel=6, note=65, velocity=83, time=357),
    Message('note_on', channel=6, note=62, velocity=83, time=0),
    Message('note_on', channel=6, note=60, velocity=83, time=0),
    Message('note_on', channel=6, note=69, velocity=83, time=0),
    Message('note_on', channel=6, note=65, velocity=0, time=20),
    Message('note_on', channel=6, note=62, velocity=0, time=0),
    Message('note_on', channel=6, note=60, velocity=0, time=0),
    Message('note_on', channel=6, note=69, velocity=0, time=0),
    Message('note_on', channel=6, note=65, velocity=74, time=364),
    Message('note_on', channel=6, note=62, velocity=74, time=0),
    Message('note_on', channel=6, note=59, velocity=74, time=0),
    Message('note_on', channel=6, note=67, velocity=74, time=0),
    Message('note_on', channel=6, note=65, velocity=0, time=27),
    Message('note_on', channel=6, note=62, velocity=0, time=0),
    Message('note_on', channel=6, note=59, velocity=0, time=0),
    Message('note_on', channel=6, note=67, velocity=0, time=0),
    Message('note_on', channel=6, note=65, velocity=83, time=357),
    Message('note_on', channel=6, note=62, velocity=83, time=0),
    Message('note_on', channel=6, note=59, velocity=83, time=0),
    Message('note_on', channel=6, note=67, velocity=83, time=0),
    Message('note_on', channel=6, note=65, velocity=0, time=20),
    Message('note_on', channel=6, note=62, velocity=0, time=0),
    Message('note_on', channel=6, note=59, velocity=0, time=0),
    Message('note_on', channel=6, note=67, velocity=0, time=0),
    Message('note_on', channel=6, note=64, velocity=74, time=364),
    Message('note_on', channel=6, note=62, velocity=74, time=0),
    Message('note_on', channel=6, note=59, velocity=74, time=0),
    Message('note_on', channel=6, note=67, velocity=74, time=0),
    Message('note_on', channel=6, note=64, velocity=0, time=27),
    Message('note_on', channel=6, note=62, velocity=0, time=0),
    Message('note_on', channel=6, note=59, velocity=0, time=0),
    Message('note_on', channel=6, note=67, velocity=0, time=0),
    Message('note_on', channel=6, note=64, velocity=83, time=357),
    Message('note_on', channel=6, note=62, velocity=83, time=0),
    Message('note_on', channel=6, note=59, velocity=83, time=0),
    Message('note_on', channel=6, note=67, velocity=83, time=0),
    Message('note_on', channel=6, note=64, velocity=0, time=20),
    Message('note_on', channel=6, note=62, velocity=0, time=0),
    Message('note_on', channel=6, note=59, velocity=0, time=0),
    Message('note_on', channel=6, note=67, velocity=0, time=0),
    Message('note_on', channel=6, note=64, velocity=74, time=364),
    Message('note_on', channel=6, note=60, velocity=74, time=0),
    Message('note_on', channel=6, note=57, velocity=74, time=0),
    Message('note_on', channel=6, note=64, velocity=0, time=27),
    Message('note_on', channel=6, note=60, velocity=0, time=0),
    Message('note_on', channel=6, note=57, velocity=0, time=0),
    Message('note_on', channel=6, note=64, velocity=83, time=357),
    Message('note_on', channel=6, note=60, velocity=83, time=0),
    Message('note_on', channel=6, note=57, velocity=83, time=0),
    Message('note_on', channel=6, note=64, velocity=0, time=20),
    Message('note_on', channel=6, note=60, velocity=0, time=0),
    Message('note_on', channel=6, note=57, velocity=0, time=0),
    Message('note_on', channel=6, note=65, velocity=74, time=364),
    Message('note_on', channel=6, note=62, velocity=74, time=0),
    Message('note_on', channel=6, note=60, velocity=74, time=0),
    Message('note_on', channel=6, note=69, velocity=74, time=0),
    Message('note_on', channel=6, note=65, velocity=0, time=27),
    Message('note_on', channel=6, note=62, velocity=0, time=0),
    Message('note_on', channel=6, note=60, velocity=0, time=0),
    Message('note_on', channel=6, note=69, velocity=0, time=0),
    Message('note_on', channel=6, note=65, velocity=83, time=357),
    Message('note_on', channel=6, note=62, velocity=83, time=0),
    Message('note_on', channel=6, note=60, velocity=83, time=0),
    Message('note_on', channel=6, note=69, velocity=83, time=0),
    Message('note_on', channel=6, note=65, velocity=0, time=20),
    Message('note_on', channel=6, note=62, velocity=0, time=0),
    Message('note_on', channel=6, note=60, velocity=0, time=0),
    Message('note_on', channel=6, note=69, velocity=0, time=0),
    Message('note_on', channel=6, note=65, velocity=74, time=364),
    Message('note_on', channel=6, note=62, velocity=74, time=0),
    Message('note_on', channel=6, note=59, velocity=74, time=0),
    Message('note_on', channel=6, note=67, velocity=74, time=0),
    Message('note_on', channel=6, note=65, velocity=0, time=27),
    Message('note_on', channel=6, note=62, velocity=0, time=0),
    Message('note_on', channel=6, note=59, velocity=0, time=0),
    Message('note_on', channel=6, note=67, velocity=0, time=0),
    Message('note_on', channel=6, note=65, velocity=83, time=357),
    Message('note_on', channel=6, note=62, velocity=83, time=0),
    Message('note_on', channel=6, note=59, velocity=83, time=0),
    Message('note_on', channel=6, note=67, velocity=83, time=0),
    Message('note_on', channel=6, note=65, velocity=0, time=20),
    Message('note_on', channel=6, note=62, velocity=0, time=0),
    Message('note_on', channel=6, note=59, velocity=0, time=0),
    Message('note_on', channel=6, note=67, velocity=0, time=0),
    Message('note_on', channel=6, note=65, velocity=74, time=364),
    Message('note_on', channel=6, note=62, velocity=74, time=0),
    Message('note_on', channel=6, note=60, velocity=74, time=0),
    Message('note_on', channel=6, note=69, velocity=74, time=0),
    Message('note_on', channel=6, note=65, velocity=0, time=27),
    Message('note_on', channel=6, note=62, velocity=0, time=0),
    Message('note_on', channel=6, note=60, velocity=0, time=0),
    Message('note_on', channel=6, note=69, velocity=0, time=0),
    Message('note_on', channel=6, note=65, velocity=83, time=357),
    Message('note_on', channel=6, note=62, velocity=83, time=0),
    Message('note_on', channel=6, note=60, velocity=83, time=0),
    Message('note_on', channel=6, note=69, velocity=83, time=0),
    Message('note_on', channel=6, note=65, velocity=0, time=20),
    Message('note_on', channel=6, note=62, velocity=0, time=0),
    Message('note_on', channel=6, note=60, velocity=0, time=0),
    Message('note_on', channel=6, note=69, velocity=0, time=0),
    Message('note_on', channel=6, note=67, velocity=67, time=172),
    Message('note_on', channel=6, note=64, velocity=75, time=0),
    Message('note_on', channel=6, note=60, velocity=73, time=0),
    Message('note_on', channel=6, note=60, velocity=0, time=147),
    Message('note_on', channel=6, note=67, velocity=0, time=3),
    Message('note_on', channel=6, note=64, velocity=0, time=0),
    Message('note_on', channel=6, note=60, velocity=92, time=42),
    Message('note_on', channel=6, note=64, velocity=102, time=0),
    Message('note_on', channel=6, note=67, velocity=102, time=0),
    Message('note_on', channel=6, note=60, velocity=0, time=38),
    Message('note_on', channel=6, note=64, velocity=0, time=0),
    Message('note_on', channel=6, note=67, velocity=0, time=0),
    Message('note_on', channel=6, note=65, velocity=70, time=154),
    Message('note_on', channel=6, note=60, velocity=73, time=0),
    Message('note_on', channel=6, note=69, velocity=57, time=0),
    Message('note_on', channel=6, note=60, velocity=0, time=158),
    Message('note_on', channel=6, note=65, velocity=0, time=2),
    Message('note_on', channel=6, note=69, velocity=0, time=1),
    Message('note_on', channel=6, note=60, velocity=87, time=31),
    Message('note_on', channel=6, note=69, velocity=87, time=0),
    Message('note_on', channel=6, note=65, velocity=94, time=0),
    Message('note_on', channel=6, note=69, velocity=0, time=35),
    Message('note_on', channel=6, note=60, velocity=0, time=3),
    Message('note_on', channel=6, note=65, velocity=0, time=0),
    Message('note_on', channel=6, note=64, velocity=85, time=154),
    Message('note_on', channel=6, note=67, velocity=80, time=0),
    Message('note_on', channel=6, note=60, velocity=89, time=0),
    Message('note_on', channel=6, note=67, velocity=0, time=48),
    Message('note_on', channel=6, note=64, velocity=0, time=3),
    Message('note_on', channel=6, note=60, velocity=0, time=3),
    Message('note_on', channel=6, note=72, velocity=55, time=330),
    Message('note_on', channel=6, note=67, velocity=80, time=0),
    Message('note_on', channel=6, note=64, velocity=83, time=0),
    Message('note_on', channel=6, note=60, velocity=81, time=0),
    Message('note_on', channel=6, note=65, velocity=80, time=0),
    Message('note_on', channel=6, note=65, velocity=0, time=3),
    Message('note_on', channel=6, note=64, velocity=0, time=376),
    Message('note_on', channel=6, note=60, velocity=0, time=0),
    Message('note_on', channel=6, note=72, velocity=0, time=1),
    Message('note_on', channel=6, note=67, velocity=0, time=0),
    Message('control_change', channel=6, control=64, value=0, time=4),
    MetaMessage('end_of_track', time=0)]),
  MidiTrack([
    MetaMessage('midi_port', port=0, time=0),
    MetaMessage('track_name', name='oohs2               ', time=0),
    Message('program_change', channel=5, program=52, time=0),
    Message('control_change', channel=5, control=7, value=60, time=0),
    Message('control_change', channel=5, control=64, value=0, time=0),
    Message('note_on', channel=5, note=76, velocity=90, time=1536),
    Message('note_on', channel=5, note=72, velocity=90, time=0),
    Message('note_on', channel=5, note=67, velocity=90, time=0),
    Message('note_on', channel=5, note=76, velocity=0, time=577),
    Message('note_on', channel=5, note=72, velocity=0, time=0),
    Message('note_on', channel=5, note=67, velocity=0, time=0),
    Message('note_on', channel=5, note=76, velocity=90, time=63),
    Message('note_on', channel=5, note=72, velocity=90, time=0),
    Message('note_on', channel=5, note=67, velocity=90, time=0),
    Message('note_on', channel=5, note=76, velocity=0, time=33),
    Message('note_on', channel=5, note=72, velocity=0, time=0),
    Message('note_on', channel=5, note=67, velocity=0, time=0),
    Message('note_on', channel=5, note=76, velocity=105, time=31),
    Message('note_on', channel=5, note=72, velocity=105, time=0),
    Message('note_on', channel=5, note=67, velocity=105, time=0),
    Message('note_on', channel=5, note=76, velocity=0, time=35),
    Message('note_on', channel=5, note=72, velocity=0, time=0),
    Message('note_on', channel=5, note=67, velocity=0, time=0),
    Message('note_on', channel=5, note=76, velocity=105, time=29),
    Message('note_on', channel=5, note=72, velocity=105, time=0),
    Message('note_on', channel=5, note=67, velocity=105, time=0),
    Message('note_on', channel=5, note=76, velocity=0, time=587),
    Message('note_on', channel=5, note=72, velocity=0, time=0),
    Message('note_on', channel=5, note=67, velocity=0, time=0),
    Message('note_on', channel=5, note=76, velocity=102, time=53),
    Message('note_on', channel=5, note=72, velocity=102, time=0),
    Message('note_on', channel=5, note=67, velocity=102, time=0),
    Message('note_on', channel=5, note=76, velocity=0, time=32),
    Message('note_on', channel=5, note=72, velocity=0, time=0),
    Message('note_on', channel=5, note=67, velocity=0, time=0),
    Message('note_on', channel=5, note=76, velocity=109, time=32),
    Message('note_on', channel=5, note=72, velocity=109, time=0),
    Message('note_on', channel=5, note=67, velocity=109, time=0),
    Message('note_on', channel=5, note=76, velocity=0, time=35),
    Message('note_on', channel=5, note=72, velocity=0, time=0),
    Message('note_on', channel=5, note=67, velocity=0, time=0),
    Message('note_on', channel=5, note=76, velocity=90, time=29),
    Message('note_on', channel=5, note=72, velocity=90, time=0),
    Message('note_on', channel=5, note=67, velocity=90, time=0),
    Message('note_on', channel=5, note=76, velocity=0, time=577),
    Message('note_on', channel=5, note=72, velocity=0, time=0),
    Message('note_on', channel=5, note=67, velocity=0, time=0),
    Message('note_on', channel=5, note=76, velocity=90, time=63),
    Message('note_on', channel=5, note=72, velocity=90, time=0),
    Message('note_on', channel=5, note=67, velocity=90, time=0),
    Message('note_on', channel=5, note=76, velocity=0, time=33),
    Message('note_on', channel=5, note=72, velocity=0, time=0),
    Message('note_on', channel=5, note=67, velocity=0, time=0),
    Message('note_on', channel=5, note=76, velocity=105, time=31),
    Message('note_on', channel=5, note=72, velocity=105, time=0),
    Message('note_on', channel=5, note=67, velocity=105, time=0),
    Message('note_on', channel=5, note=76, velocity=0, time=35),
    Message('note_on', channel=5, note=72, velocity=0, time=0),
    Message('note_on', channel=5, note=67, velocity=0, time=0),
    Message('note_on', channel=5, note=76, velocity=105, time=29),
    Message('note_on', channel=5, note=72, velocity=105, time=0),
    Message('note_on', channel=5, note=67, velocity=105, time=0),
    Message('note_on', channel=5, note=76, velocity=0, time=587),
    Message('note_on', channel=5, note=72, velocity=0, time=0),
    Message('note_on', channel=5, note=67, velocity=0, time=0),
    Message('note_on', channel=5, note=76, velocity=102, time=53),
    Message('note_on', channel=5, note=72, velocity=102, time=0),
    Message('note_on', channel=5, note=67, velocity=102, time=0),
    Message('note_on', channel=5, note=76, velocity=0, time=32),
    Message('note_on', channel=5, note=72, velocity=0, time=0),
    Message('note_on', channel=5, note=67, velocity=0, time=0),
    Message('note_on', channel=5, note=76, velocity=109, time=32),
    Message('note_on', channel=5, note=72, velocity=109, time=0),
    Message('note_on', channel=5, note=67, velocity=109, time=0),
    Message('note_on', channel=5, note=76, velocity=0, time=35),
    Message('note_on', channel=5, note=72, velocity=0, time=0),
    Message('note_on', channel=5, note=67, velocity=0, time=0),
    Message('note_on', channel=5, note=76, velocity=90, time=29),
    Message('note_on', channel=5, note=72, velocity=90, time=0),
    Message('note_on', channel=5, note=67, velocity=90, time=0),
    Message('note_on', channel=5, note=76, velocity=0, time=577),
    Message('note_on', channel=5, note=72, velocity=0, time=0),
    Message('note_on', channel=5, note=67, velocity=0, time=0),
    Message('note_on', channel=5, note=76, velocity=90, time=63),
    Message('note_on', channel=5, note=72, velocity=90, time=0),
    Message('note_on', channel=5, note=67, velocity=90, time=0),
    Message('note_on', channel=5, note=76, velocity=0, time=33),
    Message('note_on', channel=5, note=72, velocity=0, time=0),
    Message('note_on', channel=5, note=67, velocity=0, time=0),
    Message('note_on', channel=5, note=76, velocity=105, time=31),
    Message('note_on', channel=5, note=72, velocity=105, time=0),
    Message('note_on', channel=5, note=67, velocity=105, time=0),
    Message('note_on', channel=5, note=76, velocity=0, time=35),
    Message('note_on', channel=5, note=72, velocity=0, time=0),
    Message('note_on', channel=5, note=67, velocity=0, time=0),
    Message('note_on', channel=5, note=76, velocity=90, time=29),
    Message('note_on', channel=5, note=71, velocity=90, time=0),
    Message('note_on', channel=5, note=67, velocity=90, time=0),
    Message('note_on', channel=5, note=76, velocity=0, time=577),
    Message('note_on', channel=5, note=71, velocity=0, time=0),
    Message('note_on', channel=5, note=67, velocity=0, time=0),
    Message('note_on', channel=5, note=76, velocity=90, time=63),
    Message('note_on', channel=5, note=71, velocity=90, time=0),
    Message('note_on', channel=5, note=67, velocity=90, time=0),
    Message('note_on', channel=5, note=76, velocity=0, time=33),
    Message('note_on', channel=5, note=71, velocity=0, time=0),
    Message('note_on', channel=5, note=67, velocity=0, time=0),
    Message('note_on', channel=5, note=76, velocity=105, time=31),
    Message('note_on', channel=5, note=71, velocity=105, time=0),
    Message('note_on', channel=5, note=67, velocity=105, time=0),
    Message('note_on', channel=5, note=76, velocity=0, time=35),
    Message('note_on', channel=5, note=71, velocity=0, time=0),
    Message('note_on', channel=5, note=67, velocity=0, time=0),
    Message('note_on', channel=5, note=76, velocity=90, time=29),
    Message('note_on', channel=5, note=74, velocity=90, time=0),
    Message('note_on', channel=5, note=70, velocity=90, time=0),
    Message('note_on', channel=5, note=79, velocity=90, time=0),
    Message('note_on', channel=5, note=76, velocity=0, time=577),
    Message('note_on', channel=5, note=74, velocity=0, time=0),
    Message('note_on', channel=5, note=70, velocity=0, time=0),
    Message('note_on', channel=5, note=79, velocity=0, time=0),
    Message('note_on', channel=5, note=76, velocity=90, time=63),
    Message('note_on', channel=5, note=74, velocity=90, time=0),
    Message('note_on', channel=5, note=70, velocity=90, time=0),
    Message('note_on', channel=5, note=79, velocity=90, time=0),
    Message('note_on', channel=5, note=76, velocity=0, time=33),
    Message('note_on', channel=5, note=74, velocity=0, time=0),
    Message('note_on', channel=5, note=70, velocity=0, time=0),
    Message('note_on', channel=5, note=79, velocity=0, time=0),
    Message('note_on', channel=5, note=76, velocity=105, time=31),
    Message('note_on', channel=5, note=74, velocity=105, time=0),
    Message('note_on', channel=5, note=70, velocity=105, time=0),
    Message('note_on', channel=5, note=79, velocity=105, time=0),
    Message('note_on', channel=5, note=76, velocity=0, time=35),
    Message('note_on', channel=5, note=74, velocity=0, time=0),
    Message('note_on', channel=5, note=70, velocity=0, time=0),
    Message('note_on', channel=5, note=79, velocity=0, time=0),
    Message('note_on', channel=5, note=79, velocity=90, time=29),
    Message('note_on', channel=5, note=76, velocity=90, time=0),
    Message('note_on', channel=5, note=73, velocity=90, time=0),
    Message('note_on', channel=5, note=81, velocity=90, time=0),
    Message('note_on', channel=5, note=79, velocity=0, time=577),
    Message('note_on', channel=5, note=76, velocity=0, time=0),
    Message('note_on', channel=5, note=73, velocity=0, time=0),
    Message('note_on', channel=5, note=81, velocity=0, time=0),
    Message('note_on', channel=5, note=79, velocity=90, time=63),
    Message('note_on', channel=5, note=76, velocity=90, time=0),
    Message('note_on', channel=5, note=73, velocity=90, time=0),
    Message('note_on', channel=5, note=81, velocity=90, time=0),
    Message('note_on', channel=5, note=79, velocity=0, time=33),
    Message('note_on', channel=5, note=76, velocity=0, time=0),
    Message('note_on', channel=5, note=73, velocity=0, time=0),
    Message('note_on', channel=5, note=81, velocity=0, time=0),
    Message('note_on', channel=5, note=79, velocity=105, time=31),
    Message('note_on', channel=5, note=76, velocity=105, time=0),
    Message('note_on', channel=5, note=73, velocity=105, time=0),
    Message('note_on', channel=5, note=81, velocity=105, time=0),
    Message('note_on', channel=5, note=79, velocity=0, time=35),
    Message('note_on', channel=5, note=76, velocity=0, time=0),
    Message('note_on', channel=5, note=73, velocity=0, time=0),
    Message('note_on', channel=5, note=81, velocity=0, time=0),
    Message('note_on', channel=5, note=77, velocity=90, time=29),
    Message('note_on', channel=5, note=74, velocity=90, time=0),
    Message('note_on', channel=5, note=69, velocity=90, time=0),
    Message('note_on', channel=5, note=77, velocity=0, time=577),
    Message('note_on', channel=5, note=74, velocity=0, time=0),
    Message('note_on', channel=5, note=69, velocity=0, time=0),
    Message('note_on', channel=5, note=77, velocity=90, time=63),
    Message('note_on', channel=5, note=74, velocity=90, time=0),
    Message('note_on', channel=5, note=69, velocity=90, time=0),
    Message('note_on', channel=5, note=77, velocity=0, time=33),
    Message('note_on', channel=5, note=74, velocity=0, time=0),
    Message('note_on', channel=5, note=69, velocity=0, time=0),
    Message('note_on', channel=5, note=77, velocity=105, time=31),
    Message('note_on', channel=5, note=74, velocity=105, time=0),
    Message('note_on', channel=5, note=69, velocity=105, time=0),
    Message('note_on', channel=5, note=77, velocity=0, time=35),
    Message('note_on', channel=5, note=74, velocity=0, time=0),
    Message('note_on', channel=5, note=69, velocity=0, time=0),
    Message('note_on', channel=5, note=77, velocity=90, time=29),
    Message('note_on', channel=5, note=74, velocity=90, time=0),
    Message('note_on', channel=5, note=72, velocity=90, time=0),
    Message('note_on', channel=5, note=81, velocity=90, time=0),
    Message('note_on', channel=5, note=77, velocity=0, time=577),
    Message('note_on', channel=5, note=74, velocity=0, time=0),
    Message('note_on', channel=5, note=72, velocity=0, time=0),
    Message('note_on', channel=5, note=81, velocity=0, time=0),
    Message('note_on', channel=5, note=77, velocity=90, time=63),
    Message('note_on', channel=5, note=74, velocity=90, time=0),
    Message('note_on', channel=5, note=72, velocity=90, time=0),
    Message('note_on', channel=5, note=81, velocity=90, time=0),
    Message('note_on', channel=5, note=77, velocity=0, time=33),
    Message('note_on', channel=5, note=74, velocity=0, time=0),
    Message('note_on', channel=5, note=72, velocity=0, time=0),
    Message('note_on', channel=5, note=81, velocity=0, time=0),
    Message('note_on', channel=5, note=77, velocity=105, time=31),
    Message('note_on', channel=5, note=74, velocity=105, time=0),
    Message('note_on', channel=5, note=72, velocity=105, time=0),
    Message('note_on', channel=5, note=81, velocity=105, time=0),
    Message('note_on', channel=5, note=77, velocity=0, time=35),
    Message('note_on', channel=5, note=74, velocity=0, time=0),
    Message('note_on', channel=5, note=72, velocity=0, time=0),
    Message('note_on', channel=5, note=81, velocity=0, time=0),
    Message('note_on', channel=5, note=77, velocity=90, time=29),
    Message('note_on', channel=5, note=74, velocity=90, time=0),
    Message('note_on', channel=5, note=71, velocity=90, time=0),
    Message('note_on', channel=5, note=79, velocity=90, time=0),
    Message('note_on', channel=5, note=77, velocity=0, time=577),
    Message('note_on', channel=5, note=74, velocity=0, time=0),
    Message('note_on', channel=5, note=71, velocity=0, time=0),
    Message('note_on', channel=5, note=79, velocity=0, time=0),
    Message('note_on', channel=5, note=77, velocity=90, time=63),
    Message('note_on', channel=5, note=74, velocity=90, time=0),
    Message('note_on', channel=5, note=71, velocity=90, time=0),
    Message('note_on', channel=5, note=79, velocity=90, time=0),
    Message('note_on', channel=5, note=77, velocity=0, time=33),
    Message('note_on', channel=5, note=74, velocity=0, time=0),
    Message('note_on', channel=5, note=71, velocity=0, time=0),
    Message('note_on', channel=5, note=79, velocity=0, time=0),
    Message('note_on', channel=5, note=77, velocity=105, time=31),
    Message('note_on', channel=5, note=74, velocity=105, time=0),
    Message('note_on', channel=5, note=71, velocity=105, time=0),
    Message('note_on', channel=5, note=79, velocity=105, time=0),
    Message('note_on', channel=5, note=77, velocity=0, time=35),
    Message('note_on', channel=5, note=74, velocity=0, time=0),
    Message('note_on', channel=5, note=71, velocity=0, time=0),
    Message('note_on', channel=5, note=79, velocity=0, time=0),
    Message('note_on', channel=5, note=76, velocity=90, time=29),
    Message('note_on', channel=5, note=72, velocity=90, time=0),
    Message('note_on', channel=5, note=67, velocity=90, time=0),
    Message('note_on', channel=5, note=76, velocity=0, time=577),
    Message('note_on', channel=5, note=72, velocity=0, time=0),
    Message('note_on', channel=5, note=67, velocity=0, time=0),
    Message('note_on', channel=5, note=76, velocity=90, time=63),
    Message('note_on', channel=5, note=72, velocity=90, time=0),
    Message('note_on', channel=5, note=67, velocity=90, time=0),
    Message('note_on', channel=5, note=76, velocity=0, time=33),
    Message('note_on', channel=5, note=72, velocity=0, time=0),
    Message('note_on', channel=5, note=67, velocity=0, time=0),
    Message('note_on', channel=5, note=76, velocity=105, time=31),
    Message('note_on', channel=5, note=72, velocity=105, time=0),
    Message('note_on', channel=5, note=67, velocity=105, time=0),
    Message('note_on', channel=5, note=76, velocity=0, time=35),
    Message('note_on', channel=5, note=72, velocity=0, time=0),
    Message('note_on', channel=5, note=67, velocity=0, time=0),
    Message('note_on', channel=5, note=76, velocity=100, time=32),
    Message('note_on', channel=5, note=72, velocity=100, time=0),
    Message('note_on', channel=5, note=67, velocity=100, time=0),
    Message('note_on', channel=5, note=76, velocity=0, time=347),
    Message('note_on', channel=5, note=72, velocity=0, time=0),
    Message('note_on', channel=5, note=67, velocity=0, time=0),
    Message('note_on', channel=5, note=76, velocity=107, time=34),
    Message('note_on', channel=5, note=74, velocity=107, time=0),
    Message('note_on', channel=5, note=71, velocity=107, time=0),
    Message('note_on', channel=5, note=79, velocity=107, time=0),
    Message('note_on', channel=5, note=76, velocity=0, time=171),
    Message('note_on', channel=5, note=74, velocity=0, time=0),
    Message('note_on', channel=5, note=71, velocity=0, time=0),
    Message('note_on', channel=5, note=79, velocity=0, time=0),
    Message('note_on', channel=5, note=76, velocity=96, time=21),
    Message('note_on', channel=5, note=74, velocity=96, time=0),
    Message('note_on', channel=5, note=71, velocity=96, time=0),
    Message('note_on', channel=5, note=79, velocity=96, time=0),
    Message('note_on', channel=5, note=76, velocity=0, time=30),
    Message('note_on', channel=5, note=74, velocity=0, time=0),
    Message('note_on', channel=5, note=71, velocity=0, time=0),
    Message('note_on', channel=5, note=79, velocity=0, time=0),
    Message('note_on', channel=5, note=76, velocity=88, time=34),
    Message('note_on', channel=5, note=74, velocity=88, time=0),
    Message('note_on', channel=5, note=71, velocity=88, time=0),
    Message('note_on', channel=5, note=79, velocity=88, time=0),
    Message('note_on', channel=5, note=76, velocity=0, time=27),
    Message('note_on', channel=5, note=74, velocity=0, time=0),
    Message('note_on', channel=5, note=71, velocity=0, time=0),
    Message('note_on', channel=5, note=79, velocity=0, time=0),
    Message('note_on', channel=5, note=76, velocity=112, time=37),
    Message('note_on', channel=5, note=74, velocity=112, time=0),
    Message('note_on', channel=5, note=71, velocity=112, time=0),
    Message('note_on', channel=5, note=79, velocity=112, time=0),
    Message('note_on', channel=5, note=76, velocity=0, time=35),
    Message('note_on', channel=5, note=74, velocity=0, time=0),
    Message('note_on', channel=5, note=71, velocity=0, time=0),
    Message('note_on', channel=5, note=79, velocity=0, time=0),
    Message('note_on', channel=5, note=76, velocity=90, time=29),
    Message('note_on', channel=5, note=72, velocity=90, time=0),
    Message('note_on', channel=5, note=70, velocity=90, time=0),
    Message('note_on', channel=5, note=79, velocity=90, time=0),
    Message('note_on', channel=5, note=76, velocity=0, time=577),
    Message('note_on', channel=5, note=72, velocity=0, time=0),
    Message('note_on', channel=5, note=70, velocity=0, time=0),
    Message('note_on', channel=5, note=79, velocity=0, time=0),
    Message('note_on', channel=5, note=76, velocity=90, time=63),
    Message('note_on', channel=5, note=72, velocity=90, time=0),
    Message('note_on', channel=5, note=70, velocity=90, time=0),
    Message('note_on', channel=5, note=79, velocity=90, time=0),
    Message('note_on', channel=5, note=76, velocity=0, time=33),
    Message('note_on', channel=5, note=72, velocity=0, time=0),
    Message('note_on', channel=5, note=70, velocity=0, time=0),
    Message('note_on', channel=5, note=79, velocity=0, time=0),
    Message('note_on', channel=5, note=76, velocity=105, time=31),
    Message('note_on', channel=5, note=72, velocity=105, time=0),
    Message('note_on', channel=5, note=70, velocity=105, time=0),
    Message('note_on', channel=5, note=79, velocity=105, time=0),
    Message('note_on', channel=5, note=76, velocity=0, time=35),
    Message('note_on', channel=5, note=72, velocity=0, time=0),
    Message('note_on', channel=5, note=70, velocity=0, time=0),
    Message('note_on', channel=5, note=79, velocity=0, time=0),
    Message('note_on', channel=5, note=77, velocity=90, time=29),
    Message('note_on', channel=5, note=72, velocity=90, time=0),
    Message('note_on', channel=5, note=69, velocity=90, time=0),
    Message('note_on', channel=5, note=77, velocity=0, time=577),
    Message('note_on', channel=5, note=72, velocity=0, time=0),
    Message('note_on', channel=5, note=69, velocity=0, time=0),
    Message('note_on', channel=5, note=77, velocity=90, time=63),
    Message('note_on', channel=5, note=72, velocity=90, time=0),
    Message('note_on', channel=5, note=69, velocity=90, time=0),
    Message('note_on', channel=5, note=77, velocity=0, time=33),
    Message('note_on', channel=5, note=72, velocity=0, time=0),
    Message('note_on', channel=5, note=69, velocity=0, time=0),
    Message('note_on', channel=5, note=77, velocity=105, time=31),
    Message('note_on', channel=5, note=72, velocity=105, time=0),
    Message('note_on', channel=5, note=69, velocity=105, time=0),
    Message('note_on', channel=5, note=77, velocity=0, time=35),
    Message('note_on', channel=5, note=72, velocity=0, time=0),
    Message('note_on', channel=5, note=69, velocity=0, time=0),
    Message('note_on', channel=5, note=77, velocity=90, time=29),
    Message('note_on', channel=5, note=72, velocity=90, time=0),
    Message('note_on', channel=5, note=68, velocity=90, time=0),
    Message('note_on', channel=5, note=77, velocity=0, time=577),
    Message('note_on', channel=5, note=72, velocity=0, time=0),
    Message('note_on', channel=5, note=68, velocity=0, time=0),
    Message('note_on', channel=5, note=77, velocity=90, time=63),
    Message('note_on', channel=5, note=72, velocity=90, time=0),
    Message('note_on', channel=5, note=68, velocity=90, time=0),
    Message('note_on', channel=5, note=77, velocity=0, time=33),
    Message('note_on', channel=5, note=72, velocity=0, time=0),
    Message('note_on', channel=5, note=68, velocity=0, time=0),
    Message('note_on', channel=5, note=77, velocity=105, time=31),
    Message('note_on', channel=5, note=72, velocity=105, time=0),
    Message('note_on', channel=5, note=68, velocity=105, time=0),
    Message('note_on', channel=5, note=77, velocity=0, time=35),
    Message('note_on', channel=5, note=72, velocity=0, time=0),
    Message('note_on', channel=5, note=68, velocity=0, time=0),
    Message('note_on', channel=5, note=76, velocity=90, time=29),
    Message('note_on', channel=5, note=72, velocity=90, time=0),
    Message('note_on', channel=5, note=67, velocity=90, time=0),
    Message('note_on', channel=5, note=76, velocity=0, time=577),
    Message('note_on', channel=5, note=72, velocity=0, time=0),
    Message('note_on', channel=5, note=67, velocity=0, time=0),
    Message('note_on', channel=5, note=76, velocity=90, time=63),
    Message('note_on', channel=5, note=72, velocity=90, time=0),
    Message('note_on', channel=5, note=67, velocity=90, time=0),
    Message('note_on', channel=5, note=76, velocity=0, time=33),
    Message('note_on', channel=5, note=72, velocity=0, time=0),
    Message('note_on', channel=5, note=67, velocity=0, time=0),
    Message('note_on', channel=5, note=76, velocity=105, time=31),
    Message('note_on', channel=5, note=72, velocity=105, time=0),
    Message('note_on', channel=5, note=67, velocity=105, time=0),
    Message('note_on', channel=5, note=76, velocity=0, time=35),
    Message('note_on', channel=5, note=72, velocity=0, time=0),
    Message('note_on', channel=5, note=67, velocity=0, time=0),
    Message('note_on', channel=5, note=77, velocity=90, time=29),
    Message('note_on', channel=5, note=74, velocity=90, time=0),
    Message('note_on', channel=5, note=71, velocity=90, time=0),
    Message('note_on', channel=5, note=79, velocity=90, time=0),
    Message('note_on', channel=5, note=77, velocity=0, time=577),
    Message('note_on', channel=5, note=74, velocity=0, time=0),
    Message('note_on', channel=5, note=71, velocity=0, time=0),
    Message('note_on', channel=5, note=79, velocity=0, time=0),
    Message('note_on', channel=5, note=77, velocity=90, time=63),
    Message('note_on', channel=5, note=74, velocity=90, time=0),
    Message('note_on', channel=5, note=71, velocity=90, time=0),
    Message('note_on', channel=5, note=79, velocity=90, time=0),
    Message('note_on', channel=5, note=77, velocity=0, time=33),
    Message('note_on', channel=5, note=74, velocity=0, time=0),
    Message('note_on', channel=5, note=71, velocity=0, time=0),
    Message('note_on', channel=5, note=79, velocity=0, time=0),
    Message('note_on', channel=5, note=77, velocity=105, time=31),
    Message('note_on', channel=5, note=74, velocity=105, time=0),
    Message('note_on', channel=5, note=71, velocity=105, time=0),
    Message('note_on', channel=5, note=79, velocity=105, time=0),
    Message('note_on', channel=5, note=77, velocity=0, time=35),
    Message('note_on', channel=5, note=74, velocity=0, time=0),
    Message('note_on', channel=5, note=71, velocity=0, time=0),
    Message('note_on', channel=5, note=79, velocity=0, time=0),
    Message('note_on', channel=5, note=77, velocity=90, time=29),
    Message('note_on', channel=5, note=74, velocity=90, time=0),
    Message('note_on', channel=5, note=72, velocity=90, time=0),
    Message('note_on', channel=5, note=81, velocity=90, time=0),
    Message('note_on', channel=5, note=77, velocity=0, time=577),
    Message('note_on', channel=5, note=74, velocity=0, time=0),
    Message('note_on', channel=5, note=72, velocity=0, time=0),
    Message('note_on', channel=5, note=81, velocity=0, time=0),
    Message('note_on', channel=5, note=77, velocity=90, time=63),
    Message('note_on', channel=5, note=74, velocity=90, time=0),
    Message('note_on', channel=5, note=72, velocity=90, time=0),
    Message('note_on', channel=5, note=81, velocity=90, time=0),
    Message('note_on', channel=5, note=77, velocity=0, time=33),
    Message('note_on', channel=5, note=74, velocity=0, time=0),
    Message('note_on', channel=5, note=72, velocity=0, time=0),
    Message('note_on', channel=5, note=81, velocity=0, time=0),
    Message('note_on', channel=5, note=77, velocity=105, time=31),
    Message('note_on', channel=5, note=74, velocity=105, time=0),
    Message('note_on', channel=5, note=72, velocity=105, time=0),
    Message('note_on', channel=5, note=81, velocity=105, time=0),
    Message('note_on', channel=5, note=77, velocity=0, time=35),
    Message('note_on', channel=5, note=74, velocity=0, time=0),
    Message('note_on', channel=5, note=72, velocity=0, time=0),
    Message('note_on', channel=5, note=81, velocity=0, time=0),
    Message('note_on', channel=5, note=76, velocity=90, time=29),
    Message('note_on', channel=5, note=72, velocity=90, time=0),
    Message('note_on', channel=5, note=67, velocity=90, time=0),
    Message('note_on', channel=5, note=76, velocity=0, time=577),
    Message('note_on', channel=5, note=72, velocity=0, time=0),
    Message('note_on', channel=5, note=67, velocity=0, time=0),
    Message('note_on', channel=5, note=76, velocity=90, time=63),
    Message('note_on', channel=5, note=72, velocity=90, time=0),
    Message('note_on', channel=5, note=67, velocity=90, time=0),
    Message('note_on', channel=5, note=76, velocity=0, time=33),
    Message('note_on', channel=5, note=72, velocity=0, time=0),
    Message('note_on', channel=5, note=67, velocity=0, time=0),
    Message('note_on', channel=5, note=76, velocity=105, time=31),
    Message('note_on', channel=5, note=72, velocity=105, time=0),
    Message('note_on', channel=5, note=67, velocity=105, time=0),
    Message('note_on', channel=5, note=76, velocity=0, time=35),
    Message('note_on', channel=5, note=72, velocity=0, time=0),
    Message('note_on', channel=5, note=67, velocity=0, time=0),
    Message('note_on', channel=5, note=76, velocity=90, time=29),
    Message('note_on', channel=5, note=72, velocity=90, time=0),
    Message('note_on', channel=5, note=67, velocity=90, time=0),
    Message('note_on', channel=5, note=76, velocity=0, time=577),
    Message('note_on', channel=5, note=72, velocity=0, time=0),
    Message('note_on', channel=5, note=67, velocity=0, time=0),
    Message('note_on', channel=5, note=76, velocity=90, time=63),
    Message('note_on', channel=5, note=72, velocity=90, time=0),
    Message('note_on', channel=5, note=67, velocity=90, time=0),
    Message('note_on', channel=5, note=76, velocity=0, time=33),
    Message('note_on', channel=5, note=72, velocity=0, time=0),
    Message('note_on', channel=5, note=67, velocity=0, time=0),
    Message('note_on', channel=5, note=76, velocity=105, time=31),
    Message('note_on', channel=5, note=72, velocity=105, time=0),
    Message('note_on', channel=5, note=67, velocity=105, time=0),
    Message('note_on', channel=5, note=76, velocity=0, time=35),
    Message('note_on', channel=5, note=72, velocity=0, time=0),
    Message('note_on', channel=5, note=67, velocity=0, time=0),
    Message('note_on', channel=5, note=76, velocity=90, time=29),
    Message('note_on', channel=5, note=71, velocity=90, time=0),
    Message('note_on', channel=5, note=67, velocity=90, time=0),
    Message('note_on', channel=5, note=76, velocity=0, time=577),
    Message('note_on', channel=5, note=71, velocity=0, time=0),
    Message('note_on', channel=5, note=67, velocity=0, time=0),
    Message('note_on', channel=5, note=76, velocity=90, time=63),
    Message('note_on', channel=5, note=71, velocity=90, time=0),
    Message('note_on', channel=5, note=67, velocity=90, time=0),
    Message('note_on', channel=5, note=76, velocity=0, time=33),
    Message('note_on', channel=5, note=71, velocity=0, time=0),
    Message('note_on', channel=5, note=67, velocity=0, time=0),
    Message('note_on', channel=5, note=76, velocity=105, time=31),
    Message('note_on', channel=5, note=71, velocity=105, time=0),
    Message('note_on', channel=5, note=67, velocity=105, time=0),
    Message('note_on', channel=5, note=76, velocity=0, time=35),
    Message('note_on', channel=5, note=71, velocity=0, time=0),
    Message('note_on', channel=5, note=67, velocity=0, time=0),
    Message('note_on', channel=5, note=82, velocity=90, time=29),
    Message('note_on', channel=5, note=79, velocity=90, time=0),
    Message('note_on', channel=5, note=76, velocity=90, time=0),
    Message('note_on', channel=5, note=86, velocity=90, time=0),
    Message('note_on', channel=5, note=82, velocity=0, time=577),
    Message('note_on', channel=5, note=79, velocity=0, time=0),
    Message('note_on', channel=5, note=76, velocity=0, time=0),
    Message('note_on', channel=5, note=86, velocity=0, time=0),
    Message('note_on', channel=5, note=82, velocity=90, time=63),
    Message('note_on', channel=5, note=79, velocity=90, time=0),
    Message('note_on', channel=5, note=76, velocity=90, time=0),
    Message('note_on', channel=5, note=86, velocity=90, time=0),
    Message('note_on', channel=5, note=82, velocity=0, time=33),
    Message('note_on', channel=5, note=79, velocity=0, time=0),
    Message('note_on', channel=5, note=76, velocity=0, time=0),
    Message('note_on', channel=5, note=86, velocity=0, time=0),
    Message('note_on', channel=5, note=82, velocity=105, time=31),
    Message('note_on', channel=5, note=79, velocity=105, time=0),
    Message('note_on', channel=5, note=76, velocity=105, time=0),
    Message('note_on', channel=5, note=86, velocity=105, time=0),
    Message('note_on', channel=5, note=82, velocity=0, time=35),
    Message('note_on', channel=5, note=79, velocity=0, time=0),
    Message('note_on', channel=5, note=76, velocity=0, time=0),
    Message('note_on', channel=5, note=86, velocity=0, time=0),
    Message('note_on', channel=5, note=79, velocity=90, time=29),
    Message('note_on', channel=5, note=76, velocity=90, time=0),
    Message('note_on', channel=5, note=73, velocity=90, time=0),
    Message('note_on', channel=5, note=81, velocity=90, time=0),
    Message('note_on', channel=5, note=79, velocity=0, time=577),
    Message('note_on', channel=5, note=76, velocity=0, time=0),
    Message('note_on', channel=5, note=73, velocity=0, time=0),
    Message('note_on', channel=5, note=81, velocity=0, time=0),
    Message('note_on', channel=5, note=79, velocity=90, time=63),
    Message('note_on', channel=5, note=76, velocity=90, time=0),
    Message('note_on', channel=5, note=73, velocity=90, time=0),
    Message('note_on', channel=5, note=81, velocity=90, time=0),
    Message('note_on', channel=5, note=79, velocity=0, time=33),
    Message('note_on', channel=5, note=76, velocity=0, time=0),
    Message('note_on', channel=5, note=73, velocity=0, time=0),
    Message('note_on', channel=5, note=81, velocity=0, time=0),
    Message('note_on', channel=5, note=79, velocity=105, time=31),
    Message('note_on', channel=5, note=76, velocity=105, time=0),
    Message('note_on', channel=5, note=73, velocity=105, time=0),
    Message('note_on', channel=5, note=81, velocity=105, time=0),
    Message('note_on', channel=5, note=79, velocity=0, time=35),
    Message('note_on', channel=5, note=76, velocity=0, time=0),
    Message('note_on', channel=5, note=73, velocity=0, time=0),
    Message('note_on', channel=5, note=81, velocity=0, time=0),
    Message('note_on', channel=5, note=77, velocity=90, time=29),
    Message('note_on', channel=5, note=74, velocity=90, time=0),
    Message('note_on', channel=5, note=69, velocity=90, time=0),
    Message('note_on', channel=5, note=77, velocity=0, time=577),
    Message('note_on', channel=5, note=74, velocity=0, time=0),
    Message('note_on', channel=5, note=69, velocity=0, time=0),
    Message('note_on', channel=5, note=77, velocity=90, time=63),
    Message('note_on', channel=5, note=74, velocity=90, time=0),
    Message('note_on', channel=5, note=69, velocity=90, time=0),
    Message('note_on', channel=5, note=77, velocity=0, time=33),
    Message('note_on', channel=5, note=74, velocity=0, time=0),
    Message('note_on', channel=5, note=69, velocity=0, time=0),
    Message('note_on', channel=5, note=77, velocity=105, time=31),
    Message('note_on', channel=5, note=74, velocity=105, time=0),
    Message('note_on', channel=5, note=69, velocity=105, time=0),
    Message('note_on', channel=5, note=77, velocity=0, time=35),
    Message('note_on', channel=5, note=74, velocity=0, time=0),
    Message('note_on', channel=5, note=69, velocity=0, time=0),
    Message('note_on', channel=5, note=77, velocity=90, time=29),
    Message('note_on', channel=5, note=74, velocity=90, time=0),
    Message('note_on', channel=5, note=72, velocity=90, time=0),
    Message('note_on', channel=5, note=81, velocity=90, time=0),
    Message('note_on', channel=5, note=77, velocity=0, time=577),
    Message('note_on', channel=5, note=74, velocity=0, time=0),
    Message('note_on', channel=5, note=72, velocity=0, time=0),
    Message('note_on', channel=5, note=81, velocity=0, time=0),
    Message('note_on', channel=5, note=77, velocity=90, time=63),
    Message('note_on', channel=5, note=74, velocity=90, time=0),
    Message('note_on', channel=5, note=72, velocity=90, time=0),
    Message('note_on', channel=5, note=81, velocity=90, time=0),
    Message('note_on', channel=5, note=77, velocity=0, time=33),
    Message('note_on', channel=5, note=74, velocity=0, time=0),
    Message('note_on', channel=5, note=72, velocity=0, time=0),
    Message('note_on', channel=5, note=81, velocity=0, time=0),
    Message('note_on', channel=5, note=77, velocity=105, time=31),
    Message('note_on', channel=5, note=74, velocity=105, time=0),
    Message('note_on', channel=5, note=72, velocity=105, time=0),
    Message('note_on', channel=5, note=81, velocity=105, time=0),
    Message('note_on', channel=5, note=77, velocity=0, time=35),
    Message('note_on', channel=5, note=74, velocity=0, time=0),
    Message('note_on', channel=5, note=72, velocity=0, time=0),
    Message('note_on', channel=5, note=81, velocity=0, time=0),
    Message('note_on', channel=5, note=77, velocity=90, time=29),
    Message('note_on', channel=5, note=74, velocity=90, time=0),
    Message('note_on', channel=5, note=71, velocity=90, time=0),
    Message('note_on', channel=5, note=79, velocity=90, time=0),
    Message('note_on', channel=5, note=77, velocity=0, time=577),
    Message('note_on', channel=5, note=74, velocity=0, time=0),
    Message('note_on', channel=5, note=71, velocity=0, time=0),
    Message('note_on', channel=5, note=79, velocity=0, time=0),
    Message('note_on', channel=5, note=77, velocity=90, time=63),
    Message('note_on', channel=5, note=74, velocity=90, time=0),
    Message('note_on', channel=5, note=71, velocity=90, time=0),
    Message('note_on', channel=5, note=79, velocity=90, time=0),
    Message('note_on', channel=5, note=77, velocity=0, time=33),
    Message('note_on', channel=5, note=74, velocity=0, time=0),
    Message('note_on', channel=5, note=71, velocity=0, time=0),
    Message('note_on', channel=5, note=79, velocity=0, time=0),
    Message('note_on', channel=5, note=77, velocity=105, time=31),
    Message('note_on', channel=5, note=74, velocity=105, time=0),
    Message('note_on', channel=5, note=71, velocity=105, time=0),
    Message('note_on', channel=5, note=79, velocity=105, time=0),
    Message('note_on', channel=5, note=77, velocity=0, time=35),
    Message('note_on', channel=5, note=74, velocity=0, time=0),
    Message('note_on', channel=5, note=71, velocity=0, time=0),
    Message('note_on', channel=5, note=79, velocity=0, time=0),
    Message('note_on', channel=5, note=76, velocity=90, time=29),
    Message('note_on', channel=5, note=72, velocity=90, time=0),
    Message('note_on', channel=5, note=67, velocity=90, time=0),
    Message('note_on', channel=5, note=76, velocity=0, time=577),
    Message('note_on', channel=5, note=72, velocity=0, time=0),
    Message('note_on', channel=5, note=67, velocity=0, time=0),
    Message('note_on', channel=5, note=76, velocity=90, time=63),
    Message('note_on', channel=5, note=72, velocity=90, time=0),
    Message('note_on', channel=5, note=67, velocity=90, time=0),
    Message('note_on', channel=5, note=76, velocity=0, time=33),
    Message('note_on', channel=5, note=72, velocity=0, time=0),
    Message('note_on', channel=5, note=67, velocity=0, time=0),
    Message('note_on', channel=5, note=76, velocity=105, time=31),
    Message('note_on', channel=5, note=72, velocity=105, time=0),
    Message('note_on', channel=5, note=67, velocity=105, time=0),
    Message('note_on', channel=5, note=76, velocity=0, time=35),
    Message('note_on', channel=5, note=72, velocity=0, time=0),
    Message('note_on', channel=5, note=67, velocity=0, time=0),
    Message('note_on', channel=5, note=76, velocity=100, time=32),
    Message('note_on', channel=5, note=72, velocity=100, time=0),
    Message('note_on', channel=5, note=67, velocity=100, time=0),
    Message('note_on', channel=5, note=76, velocity=0, time=347),
    Message('note_on', channel=5, note=72, velocity=0, time=0),
    Message('note_on', channel=5, note=67, velocity=0, time=0),
    Message('note_on', channel=5, note=76, velocity=107, time=34),
    Message('note_on', channel=5, note=74, velocity=107, time=0),
    Message('note_on', channel=5, note=71, velocity=107, time=0),
    Message('note_on', channel=5, note=79, velocity=107, time=0),
    Message('note_on', channel=5, note=76, velocity=0, time=171),
    Message('note_on', channel=5, note=74, velocity=0, time=0),
    Message('note_on', channel=5, note=71, velocity=0, time=0),
    Message('note_on', channel=5, note=79, velocity=0, time=0),
    Message('note_on', channel=5, note=76, velocity=96, time=21),
    Message('note_on', channel=5, note=74, velocity=96, time=0),
    Message('note_on', channel=5, note=71, velocity=96, time=0),
    Message('note_on', channel=5, note=79, velocity=96, time=0),
    Message('note_on', channel=5, note=76, velocity=0, time=30),
    Message('note_on', channel=5, note=74, velocity=0, time=0),
    Message('note_on', channel=5, note=71, velocity=0, time=0),
    Message('note_on', channel=5, note=79, velocity=0, time=0),
    Message('note_on', channel=5, note=76, velocity=88, time=34),
    Message('note_on', channel=5, note=74, velocity=88, time=0),
    Message('note_on', channel=5, note=71, velocity=88, time=0),
    Message('note_on', channel=5, note=79, velocity=88, time=0),
    Message('note_on', channel=5, note=76, velocity=0, time=27),
    Message('note_on', channel=5, note=74, velocity=0, time=0),
    Message('note_on', channel=5, note=71, velocity=0, time=0),
    Message('note_on', channel=5, note=79, velocity=0, time=0),
    Message('note_on', channel=5, note=76, velocity=112, time=37),
    Message('note_on', channel=5, note=74, velocity=112, time=0),
    Message('note_on', channel=5, note=71, velocity=112, time=0),
    Message('note_on', channel=5, note=79, velocity=112, time=0),
    Message('note_on', channel=5, note=76, velocity=0, time=35),
    Message('note_on', channel=5, note=74, velocity=0, time=0),
    Message('note_on', channel=5, note=71, velocity=0, time=0),
    Message('note_on', channel=5, note=79, velocity=0, time=0),
    Message('note_on', channel=5, note=76, velocity=90, time=29),
    Message('note_on', channel=5, note=72, velocity=90, time=0),
    Message('note_on', channel=5, note=70, velocity=90, time=0),
    Message('note_on', channel=5, note=79, velocity=90, time=0),
    Message('note_on', channel=5, note=76, velocity=0, time=577),
    Message('note_on', channel=5, note=72, velocity=0, time=0),
    Message('note_on', channel=5, note=70, velocity=0, time=0),
    Message('note_on', channel=5, note=79, velocity=0, time=0),
    Message('note_on', channel=5, note=76, velocity=90, time=63),
    Message('note_on', channel=5, note=72, velocity=90, time=0),
    Message('note_on', channel=5, note=70, velocity=90, time=0),
    Message('note_on', channel=5, note=79, velocity=90, time=0),
    Message('note_on', channel=5, note=76, velocity=0, time=33),
    Message('note_on', channel=5, note=72, velocity=0, time=0),
    Message('note_on', channel=5, note=70, velocity=0, time=0),
    Message('note_on', channel=5, note=79, velocity=0, time=0),
    Message('note_on', channel=5, note=76, velocity=105, time=31),
    Message('note_on', channel=5, note=72, velocity=105, time=0),
    Message('note_on', channel=5, note=70, velocity=105, time=0),
    Message('note_on', channel=5, note=79, velocity=105, time=0),
    Message('note_on', channel=5, note=76, velocity=0, time=35),
    Message('note_on', channel=5, note=72, velocity=0, time=0),
    Message('note_on', channel=5, note=70, velocity=0, time=0),
    Message('note_on', channel=5, note=79, velocity=0, time=0),
    Message('note_on', channel=5, note=77, velocity=90, time=29),
    Message('note_on', channel=5, note=72, velocity=90, time=0),
    Message('note_on', channel=5, note=69, velocity=90, time=0),
    Message('note_on', channel=5, note=77, velocity=0, time=577),
    Message('note_on', channel=5, note=72, velocity=0, time=0),
    Message('note_on', channel=5, note=69, velocity=0, time=0),
    Message('note_on', channel=5, note=77, velocity=90, time=63),
    Message('note_on', channel=5, note=72, velocity=90, time=0),
    Message('note_on', channel=5, note=69, velocity=90, time=0),
    Message('note_on', channel=5, note=77, velocity=0, time=33),
    Message('note_on', channel=5, note=72, velocity=0, time=0),
    Message('note_on', channel=5, note=69, velocity=0, time=0),
    Message('note_on', channel=5, note=77, velocity=105, time=31),
    Message('note_on', channel=5, note=72, velocity=105, time=0),
    Message('note_on', channel=5, note=69, velocity=105, time=0),
    Message('note_on', channel=5, note=77, velocity=0, time=35),
    Message('note_on', channel=5, note=72, velocity=0, time=0),
    Message('note_on', channel=5, note=69, velocity=0, time=0),
    Message('note_on', channel=5, note=77, velocity=90, time=29),
    Message('note_on', channel=5, note=72, velocity=90, time=0),
    Message('note_on', channel=5, note=68, velocity=90, time=0),
    Message('note_on', channel=5, note=77, velocity=0, time=577),
    Message('note_on', channel=5, note=72, velocity=0, time=0),
    Message('note_on', channel=5, note=68, velocity=0, time=0),
    Message('note_on', channel=5, note=77, velocity=90, time=63),
    Message('note_on', channel=5, note=72, velocity=90, time=0),
    Message('note_on', channel=5, note=68, velocity=90, time=0),
    Message('note_on', channel=5, note=77, velocity=0, time=33),
    Message('note_on', channel=5, note=72, velocity=0, time=0),
    Message('note_on', channel=5, note=68, velocity=0, time=0),
    Message('note_on', channel=5, note=77, velocity=105, time=31),
    Message('note_on', channel=5, note=72, velocity=105, time=0),
    Message('note_on', channel=5, note=68, velocity=105, time=0),
    Message('note_on', channel=5, note=77, velocity=0, time=35),
    Message('note_on', channel=5, note=72, velocity=0, time=0),
    Message('note_on', channel=5, note=68, velocity=0, time=0),
    Message('note_on', channel=5, note=76, velocity=90, time=29),
    Message('note_on', channel=5, note=72, velocity=90, time=0),
    Message('note_on', channel=5, note=67, velocity=90, time=0),
    Message('note_on', channel=5, note=76, velocity=0, time=577),
    Message('note_on', channel=5, note=72, velocity=0, time=0),
    Message('note_on', channel=5, note=67, velocity=0, time=0),
    Message('note_on', channel=5, note=76, velocity=90, time=63),
    Message('note_on', channel=5, note=72, velocity=90, time=0),
    Message('note_on', channel=5, note=67, velocity=90, time=0),
    Message('note_on', channel=5, note=76, velocity=0, time=33),
    Message('note_on', channel=5, note=72, velocity=0, time=0),
    Message('note_on', channel=5, note=67, velocity=0, time=0),
    Message('note_on', channel=5, note=76, velocity=105, time=31),
    Message('note_on', channel=5, note=72, velocity=105, time=0),
    Message('note_on', channel=5, note=67, velocity=105, time=0),
    Message('note_on', channel=5, note=76, velocity=0, time=35),
    Message('note_on', channel=5, note=72, velocity=0, time=0),
    Message('note_on', channel=5, note=67, velocity=0, time=0),
    Message('note_on', channel=5, note=77, velocity=90, time=29),
    Message('note_on', channel=5, note=74, velocity=90, time=0),
    Message('note_on', channel=5, note=71, velocity=90, time=0),
    Message('note_on', channel=5, note=79, velocity=90, time=0),
    Message('note_on', channel=5, note=77, velocity=0, time=577),
    Message('note_on', channel=5, note=74, velocity=0, time=0),
    Message('note_on', channel=5, note=71, velocity=0, time=0),
    Message('note_on', channel=5, note=79, velocity=0, time=0),
    Message('note_on', channel=5, note=77, velocity=90, time=63),
    Message('note_on', channel=5, note=74, velocity=90, time=0),
    Message('note_on', channel=5, note=71, velocity=90, time=0),
    Message('note_on', channel=5, note=79, velocity=90, time=0),
    Message('note_on', channel=5, note=77, velocity=0, time=33),
    Message('note_on', channel=5, note=74, velocity=0, time=0),
    Message('note_on', channel=5, note=71, velocity=0, time=0),
    Message('note_on', channel=5, note=79, velocity=0, time=0),
    Message('note_on', channel=5, note=77, velocity=105, time=31),
    Message('note_on', channel=5, note=74, velocity=105, time=0),
    Message('note_on', channel=5, note=71, velocity=105, time=0),
    Message('note_on', channel=5, note=79, velocity=105, time=0),
    Message('note_on', channel=5, note=77, velocity=0, time=35),
    Message('note_on', channel=5, note=74, velocity=0, time=0),
    Message('note_on', channel=5, note=71, velocity=0, time=0),
    Message('note_on', channel=5, note=79, velocity=0, time=0),
    Message('note_on', channel=5, note=77, velocity=90, time=29),
    Message('note_on', channel=5, note=74, velocity=90, time=0),
    Message('note_on', channel=5, note=72, velocity=90, time=0),
    Message('note_on', channel=5, note=81, velocity=90, time=0),
    Message('note_on', channel=5, note=77, velocity=0, time=577),
    Message('note_on', channel=5, note=74, velocity=0, time=0),
    Message('note_on', channel=5, note=72, velocity=0, time=0),
    Message('note_on', channel=5, note=81, velocity=0, time=0),
    Message('note_on', channel=5, note=77, velocity=90, time=63),
    Message('note_on', channel=5, note=74, velocity=90, time=0),
    Message('note_on', channel=5, note=72, velocity=90, time=0),
    Message('note_on', channel=5, note=81, velocity=90, time=0),
    Message('note_on', channel=5, note=77, velocity=0, time=33),
    Message('note_on', channel=5, note=74, velocity=0, time=0),
    Message('note_on', channel=5, note=72, velocity=0, time=0),
    Message('note_on', channel=5, note=81, velocity=0, time=0),
    Message('note_on', channel=5, note=77, velocity=105, time=31),
    Message('note_on', channel=5, note=74, velocity=105, time=0),
    Message('note_on', channel=5, note=72, velocity=105, time=0),
    Message('note_on', channel=5, note=81, velocity=105, time=0),
    Message('note_on', channel=5, note=77, velocity=0, time=35),
    Message('note_on', channel=5, note=74, velocity=0, time=0),
    Message('note_on', channel=5, note=72, velocity=0, time=0),
    Message('note_on', channel=5, note=81, velocity=0, time=0),
    Message('note_on', channel=5, note=76, velocity=90, time=29),
    Message('note_on', channel=5, note=72, velocity=90, time=0),
    Message('note_on', channel=5, note=67, velocity=90, time=0),
    Message('note_on', channel=5, note=76, velocity=0, time=577),
    Message('note_on', channel=5, note=72, velocity=0, time=0),
    Message('note_on', channel=5, note=67, velocity=0, time=0),
    Message('note_on', channel=5, note=76, velocity=90, time=63),
    Message('note_on', channel=5, note=72, velocity=90, time=0),
    Message('note_on', channel=5, note=67, velocity=90, time=0),
    Message('note_on', channel=5, note=76, velocity=0, time=33),
    Message('note_on', channel=5, note=72, velocity=0, time=0),
    Message('note_on', channel=5, note=67, velocity=0, time=0),
    Message('note_on', channel=5, note=76, velocity=105, time=31),
    Message('note_on', channel=5, note=72, velocity=105, time=0),
    Message('note_on', channel=5, note=67, velocity=105, time=0),
    Message('note_on', channel=5, note=76, velocity=0, time=35),
    Message('note_on', channel=5, note=72, velocity=0, time=0),
    Message('note_on', channel=5, note=67, velocity=0, time=0),
    Message('note_on', channel=5, note=60, velocity=127, time=29),
    Message('note_on', channel=5, note=64, velocity=126, time=192),
    Message('note_on', channel=5, note=67, velocity=107, time=192),
    Message('note_on', channel=5, note=72, velocity=113, time=192),
    Message('note_on', channel=5, note=60, velocity=0, time=160),
    Message('note_on', channel=5, note=64, velocity=0, time=32),
    Message('note_on', channel=5, note=67, velocity=0, time=0),
    Message('note_on', channel=5, note=72, velocity=0, time=0),
    Message('note_on', channel=5, note=60, velocity=127, time=0),
    Message('note_on', channel=5, note=64, velocity=126, time=192),
    Message('note_on', channel=5, note=67, velocity=107, time=192),
    Message('note_on', channel=5, note=70, velocity=113, time=192),
    Message('note_on', channel=5, note=60, velocity=0, time=160),
    Message('note_on', channel=5, note=64, velocity=0, time=32),
    Message('note_on', channel=5, note=67, velocity=0, time=0),
    Message('note_on', channel=5, note=70, velocity=0, time=0),
    Message('note_on', channel=5, note=53, velocity=127, time=0),
    Message('note_on', channel=5, note=65, velocity=126, time=192),
    Message('note_on', channel=5, note=69, velocity=107, time=192),
    Message('note_on', channel=5, note=72, velocity=113, time=192),
    Message('note_on', channel=5, note=53, velocity=0, time=160),
    Message('note_on', channel=5, note=53, velocity=127, time=32),
    Message('note_on', channel=5, note=65, velocity=0, time=137),
    Message('note_on', channel=5, note=65, velocity=127, time=55),
    Message('note_on', channel=5, note=69, velocity=0, time=139),
    Message('note_on', channel=5, note=69, velocity=127, time=53),
    Message('note_on', channel=5, note=72, velocity=0, time=158),
    Message('note_on', channel=5, note=72, velocity=127, time=34),
    Message('note_on', channel=5, note=53, velocity=0, time=192),
    Message('note_on', channel=5, note=65, velocity=0, time=0),
    Message('note_on', channel=5, note=69, velocity=0, time=0),
    Message('note_on', channel=5, note=72, velocity=0, time=0),
    Message('note_on', channel=5, note=62, velocity=127, time=0),
    Message('note_on', channel=5, note=65, velocity=126, time=192),
    Message('note_on', channel=5, note=69, velocity=107, time=192),
    Message('note_on', channel=5, note=72, velocity=113, time=192),
    Message('note_on', channel=5, note=62, velocity=0, time=160),
    Message('note_on', channel=5, note=65, velocity=0, time=32),
    Message('note_on', channel=5, note=69, velocity=0, time=0),
    Message('note_on', channel=5, note=72, velocity=0, time=0),
    Message('note_on', channel=5, note=55, velocity=127, time=0),
    Message('note_on', channel=5, note=65, velocity=126, time=192),
    Message('note_on', channel=5, note=67, velocity=107, time=192),
    Message('note_on', channel=5, note=71, velocity=113, time=192),
    Message('note_on', channel=5, note=55, velocity=0, time=160),
    Message('note_on', channel=5, note=65, velocity=0, time=32),
    Message('note_on', channel=5, note=67, velocity=0, time=0),
    Message('note_on', channel=5, note=71, velocity=0, time=0),
    Message('note_on', channel=5, note=52, velocity=127, time=0),
    Message('note_on', channel=5, note=62, velocity=126, time=192),
    Message('note_on', channel=5, note=64, velocity=107, time=192),
    Message('note_on', channel=5, note=67, velocity=113, time=192),
    Message('note_on', channel=5, note=52, velocity=0, time=160),
    Message('note_on', channel=5, note=62, velocity=0, time=32),
    Message('note_on', channel=5, note=64, velocity=0, time=0),
    Message('note_on', channel=5, note=67, velocity=0, time=0),
    Message('note_on', channel=5, note=57, velocity=127, time=0),
    Message('note_on', channel=5, note=60, velocity=126, time=192),
    Message('note_on', channel=5, note=64, velocity=107, time=192),
    Message('note_on', channel=5, note=69, velocity=113, time=192),
    Message('note_on', channel=5, note=57, velocity=0, time=160),
    Message('note_on', channel=5, note=60, velocity=0, time=32),
    Message('note_on', channel=5, note=64, velocity=0, time=0),
    Message('note_on', channel=5, note=69, velocity=0, time=0),
    Message('note_on', channel=5, note=62, velocity=127, time=0),
    Message('note_on', channel=5, note=65, velocity=126, time=192),
    Message('note_on', channel=5, note=69, velocity=107, time=192),
    Message('note_on', channel=5, note=72, velocity=113, time=192),
    Message('note_on', channel=5, note=62, velocity=0, time=160),
    Message('note_on', channel=5, note=65, velocity=0, time=32),
    Message('note_on', channel=5, note=69, velocity=0, time=0),
    Message('note_on', channel=5, note=72, velocity=0, time=0),
    Message('note_on', channel=5, note=55, velocity=127, time=0),
    Message('note_on', channel=5, note=65, velocity=126, time=192),
    Message('note_on', channel=5, note=67, velocity=107, time=192),
    Message('note_on', channel=5, note=71, velocity=113, time=192),
    Message('note_on', channel=5, note=55, velocity=0, time=160),
    Message('note_on', channel=5, note=65, velocity=0, time=32),
    Message('note_on', channel=5, note=67, velocity=0, time=0),
    Message('note_on', channel=5, note=71, velocity=0, time=0),
    Message('note_on', channel=5, note=53, velocity=127, time=0),
    Message('note_on', channel=5, note=62, velocity=126, time=192),
    Message('note_on', channel=5, note=65, velocity=107, time=192),
    Message('note_on', channel=5, note=69, velocity=113, time=192),
    Message('note_on', channel=5, note=53, velocity=0, time=160),
    Message('note_on', channel=5, note=62, velocity=0, time=32),
    Message('note_on', channel=5, note=65, velocity=0, time=0),
    Message('note_on', channel=5, note=69, velocity=0, time=0),
    Message('note_on', channel=5, note=60, velocity=127, time=0),
    Message('note_on', channel=5, note=64, velocity=126, time=192),
    Message('note_on', channel=5, note=67, velocity=107, time=192),
    Message('note_on', channel=5, note=72, velocity=113, time=192),
    Message('note_on', channel=5, note=60, velocity=0, time=160),
    Message('note_on', channel=5, note=64, velocity=0, time=32),
    Message('note_on', channel=5, note=67, velocity=0, time=0),
    Message('note_on', channel=5, note=72, velocity=0, time=0),
    Message('note_on', channel=5, note=76, velocity=90, time=0),
    Message('note_on', channel=5, note=72, velocity=90, time=0),
    Message('note_on', channel=5, note=67, velocity=90, time=0),
    Message('note_on', channel=5, note=76, velocity=0, time=577),
    Message('note_on', channel=5, note=72, velocity=0, time=0),
    Message('note_on', channel=5, note=67, velocity=0, time=0),
    Message('note_on', channel=5, note=76, velocity=90, time=63),
    Message('note_on', channel=5, note=72, velocity=90, time=0),
    Message('note_on', channel=5, note=67, velocity=90, time=0),
    Message('note_on', channel=5, note=76, velocity=0, time=33),
    Message('note_on', channel=5, note=72, velocity=0, time=0),
    Message('note_on', channel=5, note=67, velocity=0, time=0),
    Message('note_on', channel=5, note=76, velocity=105, time=31),
    Message('note_on', channel=5, note=72, velocity=105, time=0),
    Message('note_on', channel=5, note=67, velocity=105, time=0),
    Message('note_on', channel=5, note=76, velocity=0, time=35),
    Message('note_on', channel=5, note=72, velocity=0, time=0),
    Message('note_on', channel=5, note=67, velocity=0, time=0),
    Message('note_on', channel=5, note=76, velocity=90, time=29),
    Message('note_on', channel=5, note=71, velocity=90, time=0),
    Message('note_on', channel=5, note=67, velocity=90, time=0),
    Message('note_on', channel=5, note=76, velocity=0, time=577),
    Message('note_on', channel=5, note=71, velocity=0, time=0),
    Message('note_on', channel=5, note=67, velocity=0, time=0),
    Message('note_on', channel=5, note=76, velocity=90, time=63),
    Message('note_on', channel=5, note=71, velocity=90, time=0),
    Message('note_on', channel=5, note=67, velocity=90, time=0),
    Message('note_on', channel=5, note=76, velocity=0, time=33),
    Message('note_on', channel=5, note=71, velocity=0, time=0),
    Message('note_on', channel=5, note=67, velocity=0, time=0),
    Message('note_on', channel=5, note=76, velocity=105, time=31),
    Message('note_on', channel=5, note=71, velocity=105, time=0),
    Message('note_on', channel=5, note=67, velocity=105, time=0),
    Message('note_on', channel=5, note=76, velocity=0, time=35),
    Message('note_on', channel=5, note=71, velocity=0, time=0),
    Message('note_on', channel=5, note=67, velocity=0, time=0),
    Message('note_on', channel=5, note=76, velocity=90, time=29),
    Message('note_on', channel=5, note=74, velocity=90, time=0),
    Message('note_on', channel=5, note=70, velocity=90, time=0),
    Message('note_on', channel=5, note=79, velocity=90, time=0),
    Message('note_on', channel=5, note=76, velocity=0, time=577),
    Message('note_on', channel=5, note=74, velocity=0, time=0),
    Message('note_on', channel=5, note=70, velocity=0, time=0),
    Message('note_on', channel=5, note=79, velocity=0, time=0),
    Message('note_on', channel=5, note=76, velocity=90, time=63),
    Message('note_on', channel=5, note=74, velocity=90, time=0),
    Message('note_on', channel=5, note=70, velocity=90, time=0),
    Message('note_on', channel=5, note=79, velocity=90, time=0),
    Message('note_on', channel=5, note=76, velocity=0, time=33),
    Message('note_on', channel=5, note=74, velocity=0, time=0),
    Message('note_on', channel=5, note=70, velocity=0, time=0),
    Message('note_on', channel=5, note=79, velocity=0, time=0),
    Message('note_on', channel=5, note=76, velocity=105, time=31),
    Message('note_on', channel=5, note=74, velocity=105, time=0),
    Message('note_on', channel=5, note=70, velocity=105, time=0),
    Message('note_on', channel=5, note=79, velocity=105, time=0),
    Message('note_on', channel=5, note=76, velocity=0, time=35),
    Message('note_on', channel=5, note=74, velocity=0, time=0),
    Message('note_on', channel=5, note=70, velocity=0, time=0),
    Message('note_on', channel=5, note=79, velocity=0, time=0),
    Message('note_on', channel=5, note=79, velocity=90, time=29),
    Message('note_on', channel=5, note=76, velocity=90, time=0),
    Message('note_on', channel=5, note=73, velocity=90, time=0),
    Message('note_on', channel=5, note=81, velocity=90, time=0),
    Message('note_on', channel=5, note=79, velocity=0, time=577),
    Message('note_on', channel=5, note=76, velocity=0, time=0),
    Message('note_on', channel=5, note=73, velocity=0, time=0),
    Message('note_on', channel=5, note=81, velocity=0, time=0),
    Message('note_on', channel=5, note=79, velocity=90, time=63),
    Message('note_on', channel=5, note=76, velocity=90, time=0),
    Message('note_on', channel=5, note=73, velocity=90, time=0),
    Message('note_on', channel=5, note=81, velocity=90, time=0),
    Message('note_on', channel=5, note=79, velocity=0, time=33),
    Message('note_on', channel=5, note=76, velocity=0, time=0),
    Message('note_on', channel=5, note=73, velocity=0, time=0),
    Message('note_on', channel=5, note=81, velocity=0, time=0),
    Message('note_on', channel=5, note=79, velocity=105, time=31),
    Message('note_on', channel=5, note=76, velocity=105, time=0),
    Message('note_on', channel=5, note=73, velocity=105, time=0),
    Message('note_on', channel=5, note=81, velocity=105, time=0),
    Message('note_on', channel=5, note=79, velocity=0, time=35),
    Message('note_on', channel=5, note=76, velocity=0, time=0),
    Message('note_on', channel=5, note=73, velocity=0, time=0),
    Message('note_on', channel=5, note=81, velocity=0, time=0),
    Message('note_on', channel=5, note=77, velocity=90, time=29),
    Message('note_on', channel=5, note=74, velocity=90, time=0),
    Message('note_on', channel=5, note=69, velocity=90, time=0),
    Message('note_on', channel=5, note=77, velocity=0, time=577),
    Message('note_on', channel=5, note=74, velocity=0, time=0),
    Message('note_on', channel=5, note=69, velocity=0, time=0),
    Message('note_on', channel=5, note=77, velocity=90, time=63),
    Message('note_on', channel=5, note=74, velocity=90, time=0),
    Message('note_on', channel=5, note=69, velocity=90, time=0),
    Message('note_on', channel=5, note=77, velocity=0, time=33),
    Message('note_on', channel=5, note=74, velocity=0, time=0),
    Message('note_on', channel=5, note=69, velocity=0, time=0),
    Message('note_on', channel=5, note=77, velocity=105, time=31),
    Message('note_on', channel=5, note=74, velocity=105, time=0),
    Message('note_on', channel=5, note=69, velocity=105, time=0),
    Message('note_on', channel=5, note=77, velocity=0, time=35),
    Message('note_on', channel=5, note=74, velocity=0, time=0),
    Message('note_on', channel=5, note=69, velocity=0, time=0),
    Message('note_on', channel=5, note=77, velocity=90, time=29),
    Message('note_on', channel=5, note=74, velocity=90, time=0),
    Message('note_on', channel=5, note=72, velocity=90, time=0),
    Message('note_on', channel=5, note=81, velocity=90, time=0),
    Message('note_on', channel=5, note=77, velocity=0, time=577),
    Message('note_on', channel=5, note=74, velocity=0, time=0),
    Message('note_on', channel=5, note=72, velocity=0, time=0),
    Message('note_on', channel=5, note=81, velocity=0, time=0),
    Message('note_on', channel=5, note=77, velocity=90, time=63),
    Message('note_on', channel=5, note=74, velocity=90, time=0),
    Message('note_on', channel=5, note=72, velocity=90, time=0),
    Message('note_on', channel=5, note=81, velocity=90, time=0),
    Message('note_on', channel=5, note=77, velocity=0, time=33),
    Message('note_on', channel=5, note=74, velocity=0, time=0),
    Message('note_on', channel=5, note=72, velocity=0, time=0),
    Message('note_on', channel=5, note=81, velocity=0, time=0),
    Message('note_on', channel=5, note=77, velocity=105, time=31),
    Message('note_on', channel=5, note=74, velocity=105, time=0),
    Message('note_on', channel=5, note=72, velocity=105, time=0),
    Message('note_on', channel=5, note=81, velocity=105, time=0),
    Message('note_on', channel=5, note=77, velocity=0, time=35),
    Message('note_on', channel=5, note=74, velocity=0, time=0),
    Message('note_on', channel=5, note=72, velocity=0, time=0),
    Message('note_on', channel=5, note=81, velocity=0, time=0),
    Message('note_on', channel=5, note=77, velocity=90, time=29),
    Message('note_on', channel=5, note=74, velocity=90, time=0),
    Message('note_on', channel=5, note=71, velocity=90, time=0),
    Message('note_on', channel=5, note=79, velocity=90, time=0),
    Message('note_on', channel=5, note=77, velocity=0, time=577),
    Message('note_on', channel=5, note=74, velocity=0, time=0),
    Message('note_on', channel=5, note=71, velocity=0, time=0),
    Message('note_on', channel=5, note=79, velocity=0, time=0),
    Message('note_on', channel=5, note=77, velocity=90, time=63),
    Message('note_on', channel=5, note=74, velocity=90, time=0),
    Message('note_on', channel=5, note=71, velocity=90, time=0),
    Message('note_on', channel=5, note=79, velocity=90, time=0),
    Message('note_on', channel=5, note=77, velocity=0, time=33),
    Message('note_on', channel=5, note=74, velocity=0, time=0),
    Message('note_on', channel=5, note=71, velocity=0, time=0),
    Message('note_on', channel=5, note=79, velocity=0, time=0),
    Message('note_on', channel=5, note=77, velocity=105, time=31),
    Message('note_on', channel=5, note=74, velocity=105, time=0),
    Message('note_on', channel=5, note=71, velocity=105, time=0),
    Message('note_on', channel=5, note=79, velocity=105, time=0),
    Message('note_on', channel=5, note=77, velocity=0, time=35),
    Message('note_on', channel=5, note=74, velocity=0, time=0),
    Message('note_on', channel=5, note=71, velocity=0, time=0),
    Message('note_on', channel=5, note=79, velocity=0, time=0),
    Message('note_on', channel=5, note=76, velocity=90, time=29),
    Message('note_on', channel=5, note=72, velocity=90, time=0),
    Message('note_on', channel=5, note=67, velocity=90, time=0),
    Message('note_on', channel=5, note=76, velocity=0, time=577),
    Message('note_on', channel=5, note=72, velocity=0, time=0),
    Message('note_on', channel=5, note=67, velocity=0, time=0),
    Message('note_on', channel=5, note=76, velocity=90, time=63),
    Message('note_on', channel=5, note=72, velocity=90, time=0),
    Message('note_on', channel=5, note=67, velocity=90, time=0),
    Message('note_on', channel=5, note=76, velocity=0, time=33),
    Message('note_on', channel=5, note=72, velocity=0, time=0),
    Message('note_on', channel=5, note=67, velocity=0, time=0),
    Message('note_on', channel=5, note=76, velocity=105, time=31),
    Message('note_on', channel=5, note=72, velocity=105, time=0),
    Message('note_on', channel=5, note=67, velocity=105, time=0),
    Message('note_on', channel=5, note=76, velocity=0, time=35),
    Message('note_on', channel=5, note=72, velocity=0, time=0),
    Message('note_on', channel=5, note=67, velocity=0, time=0),
    Message('note_on', channel=5, note=76, velocity=100, time=32),
    Message('note_on', channel=5, note=72, velocity=100, time=0),
    Message('note_on', channel=5, note=67, velocity=100, time=0),
    Message('note_on', channel=5, note=76, velocity=0, time=347),
    Message('note_on', channel=5, note=72, velocity=0, time=0),
    Message('note_on', channel=5, note=67, velocity=0, time=0),
    Message('note_on', channel=5, note=76, velocity=107, time=34),
    Message('note_on', channel=5, note=74, velocity=107, time=0),
    Message('note_on', channel=5, note=71, velocity=107, time=0),
    Message('note_on', channel=5, note=79, velocity=107, time=0),
    Message('note_on', channel=5, note=76, velocity=0, time=171),
    Message('note_on', channel=5, note=74, velocity=0, time=0),
    Message('note_on', channel=5, note=71, velocity=0, time=0),
    Message('note_on', channel=5, note=79, velocity=0, time=0),
    Message('note_on', channel=5, note=76, velocity=96, time=21),
    Message('note_on', channel=5, note=74, velocity=96, time=0),
    Message('note_on', channel=5, note=71, velocity=96, time=0),
    Message('note_on', channel=5, note=79, velocity=96, time=0),
    Message('note_on', channel=5, note=76, velocity=0, time=30),
    Message('note_on', channel=5, note=74, velocity=0, time=0),
    Message('note_on', channel=5, note=71, velocity=0, time=0),
    Message('note_on', channel=5, note=79, velocity=0, time=0),
    Message('note_on', channel=5, note=76, velocity=88, time=34),
    Message('note_on', channel=5, note=74, velocity=88, time=0),
    Message('note_on', channel=5, note=71, velocity=88, time=0),
    Message('note_on', channel=5, note=79, velocity=88, time=0),
    Message('note_on', channel=5, note=76, velocity=0, time=27),
    Message('note_on', channel=5, note=74, velocity=0, time=0),
    Message('note_on', channel=5, note=71, velocity=0, time=0),
    Message('note_on', channel=5, note=79, velocity=0, time=0),
    Message('note_on', channel=5, note=76, velocity=112, time=37),
    Message('note_on', channel=5, note=74, velocity=112, time=0),
    Message('note_on', channel=5, note=71, velocity=112, time=0),
    Message('note_on', channel=5, note=79, velocity=112, time=0),
    Message('note_on', channel=5, note=76, velocity=0, time=35),
    Message('note_on', channel=5, note=74, velocity=0, time=0),
    Message('note_on', channel=5, note=71, velocity=0, time=0),
    Message('note_on', channel=5, note=79, velocity=0, time=0),
    Message('note_on', channel=5, note=76, velocity=90, time=29),
    Message('note_on', channel=5, note=72, velocity=90, time=0),
    Message('note_on', channel=5, note=70, velocity=90, time=0),
    Message('note_on', channel=5, note=79, velocity=90, time=0),
    Message('note_on', channel=5, note=76, velocity=0, time=577),
    Message('note_on', channel=5, note=72, velocity=0, time=0),
    Message('note_on', channel=5, note=70, velocity=0, time=0),
    Message('note_on', channel=5, note=79, velocity=0, time=0),
    Message('note_on', channel=5, note=76, velocity=90, time=63),
    Message('note_on', channel=5, note=72, velocity=90, time=0),
    Message('note_on', channel=5, note=70, velocity=90, time=0),
    Message('note_on', channel=5, note=79, velocity=90, time=0),
    Message('note_on', channel=5, note=76, velocity=0, time=33),
    Message('note_on', channel=5, note=72, velocity=0, time=0),
    Message('note_on', channel=5, note=70, velocity=0, time=0),
    Message('note_on', channel=5, note=79, velocity=0, time=0),
    Message('note_on', channel=5, note=76, velocity=105, time=31),
    Message('note_on', channel=5, note=72, velocity=105, time=0),
    Message('note_on', channel=5, note=70, velocity=105, time=0),
    Message('note_on', channel=5, note=79, velocity=105, time=0),
    Message('note_on', channel=5, note=76, velocity=0, time=35),
    Message('note_on', channel=5, note=72, velocity=0, time=0),
    Message('note_on', channel=5, note=70, velocity=0, time=0),
    Message('note_on', channel=5, note=79, velocity=0, time=0),
    Message('note_on', channel=5, note=77, velocity=90, time=29),
    Message('note_on', channel=5, note=72, velocity=90, time=0),
    Message('note_on', channel=5, note=69, velocity=90, time=0),
    Message('note_on', channel=5, note=77, velocity=0, time=577),
    Message('note_on', channel=5, note=72, velocity=0, time=0),
    Message('note_on', channel=5, note=69, velocity=0, time=0),
    Message('note_on', channel=5, note=77, velocity=90, time=63),
    Message('note_on', channel=5, note=72, velocity=90, time=0),
    Message('note_on', channel=5, note=69, velocity=90, time=0),
    Message('note_on', channel=5, note=77, velocity=0, time=33),
    Message('note_on', channel=5, note=72, velocity=0, time=0),
    Message('note_on', channel=5, note=69, velocity=0, time=0),
    Message('note_on', channel=5, note=77, velocity=105, time=31),
    Message('note_on', channel=5, note=72, velocity=105, time=0),
    Message('note_on', channel=5, note=69, velocity=105, time=0),
    Message('note_on', channel=5, note=77, velocity=0, time=35),
    Message('note_on', channel=5, note=72, velocity=0, time=0),
    Message('note_on', channel=5, note=69, velocity=0, time=0),
    Message('note_on', channel=5, note=77, velocity=90, time=29),
    Message('note_on', channel=5, note=72, velocity=90, time=0),
    Message('note_on', channel=5, note=68, velocity=90, time=0),
    Message('note_on', channel=5, note=77, velocity=0, time=577),
    Message('note_on', channel=5, note=72, velocity=0, time=0),
    Message('note_on', channel=5, note=68, velocity=0, time=0),
    Message('note_on', channel=5, note=77, velocity=90, time=63),
    Message('note_on', channel=5, note=72, velocity=90, time=0),
    Message('note_on', channel=5, note=68, velocity=90, time=0),
    Message('note_on', channel=5, note=77, velocity=0, time=33),
    Message('note_on', channel=5, note=72, velocity=0, time=0),
    Message('note_on', channel=5, note=68, velocity=0, time=0),
    Message('note_on', channel=5, note=77, velocity=105, time=31),
    Message('note_on', channel=5, note=72, velocity=105, time=0),
    Message('note_on', channel=5, note=68, velocity=105, time=0),
    Message('note_on', channel=5, note=77, velocity=0, time=35),
    Message('note_on', channel=5, note=72, velocity=0, time=0),
    Message('note_on', channel=5, note=68, velocity=0, time=0),
    Message('note_on', channel=5, note=76, velocity=90, time=29),
    Message('note_on', channel=5, note=72, velocity=90, time=0),
    Message('note_on', channel=5, note=67, velocity=90, time=0),
    Message('note_on', channel=5, note=76, velocity=0, time=577),
    Message('note_on', channel=5, note=72, velocity=0, time=0),
    Message('note_on', channel=5, note=67, velocity=0, time=0),
    Message('note_on', channel=5, note=76, velocity=90, time=63),
    Message('note_on', channel=5, note=72, velocity=90, time=0),
    Message('note_on', channel=5, note=67, velocity=90, time=0),
    Message('note_on', channel=5, note=76, velocity=0, time=33),
    Message('note_on', channel=5, note=72, velocity=0, time=0),
    Message('note_on', channel=5, note=67, velocity=0, time=0),
    Message('note_on', channel=5, note=76, velocity=105, time=31),
    Message('note_on', channel=5, note=72, velocity=105, time=0),
    Message('note_on', channel=5, note=67, velocity=105, time=0),
    Message('note_on', channel=5, note=76, velocity=0, time=35),
    Message('note_on', channel=5, note=72, velocity=0, time=0),
    Message('note_on', channel=5, note=67, velocity=0, time=0),
    Message('note_on', channel=5, note=77, velocity=90, time=29),
    Message('note_on', channel=5, note=74, velocity=90, time=0),
    Message('note_on', channel=5, note=71, velocity=90, time=0),
    Message('note_on', channel=5, note=79, velocity=90, time=0),
    Message('note_on', channel=5, note=77, velocity=0, time=577),
    Message('note_on', channel=5, note=74, velocity=0, time=0),
    Message('note_on', channel=5, note=71, velocity=0, time=0),
    Message('note_on', channel=5, note=79, velocity=0, time=0),
    Message('note_on', channel=5, note=77, velocity=90, time=63),
    Message('note_on', channel=5, note=74, velocity=90, time=0),
    Message('note_on', channel=5, note=71, velocity=90, time=0),
    Message('note_on', channel=5, note=79, velocity=90, time=0),
    Message('note_on', channel=5, note=77, velocity=0, time=33),
    Message('note_on', channel=5, note=74, velocity=0, time=0),
    Message('note_on', channel=5, note=71, velocity=0, time=0),
    Message('note_on', channel=5, note=79, velocity=0, time=0),
    Message('note_on', channel=5, note=77, velocity=105, time=31),
    Message('note_on', channel=5, note=74, velocity=105, time=0),
    Message('note_on', channel=5, note=71, velocity=105, time=0),
    Message('note_on', channel=5, note=79, velocity=105, time=0),
    Message('note_on', channel=5, note=77, velocity=0, time=35),
    Message('note_on', channel=5, note=74, velocity=0, time=0),
    Message('note_on', channel=5, note=71, velocity=0, time=0),
    Message('note_on', channel=5, note=79, velocity=0, time=0),
    Message('note_on', channel=5, note=77, velocity=90, time=29),
    Message('note_on', channel=5, note=74, velocity=90, time=0),
    Message('note_on', channel=5, note=72, velocity=90, time=0),
    Message('note_on', channel=5, note=81, velocity=90, time=0),
    Message('note_on', channel=5, note=77, velocity=0, time=577),
    Message('note_on', channel=5, note=74, velocity=0, time=0),
    Message('note_on', channel=5, note=72, velocity=0, time=0),
    Message('note_on', channel=5, note=81, velocity=0, time=0),
    Message('note_on', channel=5, note=77, velocity=90, time=63),
    Message('note_on', channel=5, note=74, velocity=90, time=0),
    Message('note_on', channel=5, note=72, velocity=90, time=0),
    Message('note_on', channel=5, note=81, velocity=90, time=0),
    Message('note_on', channel=5, note=77, velocity=0, time=33),
    Message('note_on', channel=5, note=74, velocity=0, time=0),
    Message('note_on', channel=5, note=72, velocity=0, time=0),
    Message('note_on', channel=5, note=81, velocity=0, time=0),
    Message('note_on', channel=5, note=77, velocity=105, time=31),
    Message('note_on', channel=5, note=74, velocity=105, time=0),
    Message('note_on', channel=5, note=72, velocity=105, time=0),
    Message('note_on', channel=5, note=81, velocity=105, time=0),
    Message('note_on', channel=5, note=77, velocity=0, time=35),
    Message('note_on', channel=5, note=74, velocity=0, time=0),
    Message('note_on', channel=5, note=72, velocity=0, time=0),
    Message('note_on', channel=5, note=81, velocity=0, time=0),
    Message('note_on', channel=5, note=76, velocity=90, time=29),
    Message('note_on', channel=5, note=72, velocity=90, time=0),
    Message('note_on', channel=5, note=67, velocity=90, time=0),
    Message('note_on', channel=5, note=76, velocity=0, time=577),
    Message('note_on', channel=5, note=72, velocity=0, time=0),
    Message('note_on', channel=5, note=67, velocity=0, time=0),
    Message('note_on', channel=5, note=76, velocity=90, time=63),
    Message('note_on', channel=5, note=72, velocity=90, time=0),
    Message('note_on', channel=5, note=67, velocity=90, time=0),
    Message('note_on', channel=5, note=76, velocity=0, time=33),
    Message('note_on', channel=5, note=72, velocity=0, time=0),
    Message('note_on', channel=5, note=67, velocity=0, time=0),
    Message('note_on', channel=5, note=76, velocity=105, time=31),
    Message('note_on', channel=5, note=72, velocity=105, time=0),
    Message('note_on', channel=5, note=67, velocity=105, time=0),
    Message('note_on', channel=5, note=76, velocity=0, time=35),
    Message('note_on', channel=5, note=72, velocity=0, time=0),
    Message('note_on', channel=5, note=67, velocity=0, time=0),
    Message('note_on', channel=5, note=60, velocity=127, time=29),
    Message('note_on', channel=5, note=64, velocity=126, time=192),
    Message('note_on', channel=5, note=67, velocity=107, time=192),
    Message('note_on', channel=5, note=72, velocity=113, time=192),
    Message('note_on', channel=5, note=60, velocity=0, time=160),
    Message('note_on', channel=5, note=64, velocity=0, time=32),
    Message('note_on', channel=5, note=67, velocity=0, time=0),
    Message('note_on', channel=5, note=72, velocity=0, time=0),
    Message('note_on', channel=5, note=60, velocity=127, time=0),
    Message('note_on', channel=5, note=64, velocity=126, time=192),
    Message('note_on', channel=5, note=67, velocity=107, time=192),
    Message('note_on', channel=5, note=70, velocity=113, time=192),
    Message('note_on', channel=5, note=60, velocity=0, time=160),
    Message('note_on', channel=5, note=64, velocity=0, time=32),
    Message('note_on', channel=5, note=67, velocity=0, time=0),
    Message('note_on', channel=5, note=70, velocity=0, time=0),
    Message('note_on', channel=5, note=53, velocity=127, time=0),
    Message('note_on', channel=5, note=65, velocity=126, time=192),
    Message('note_on', channel=5, note=69, velocity=107, time=192),
    Message('note_on', channel=5, note=72, velocity=113, time=192),
    Message('note_on', channel=5, note=53, velocity=0, time=160),
    Message('note_on', channel=5, note=53, velocity=127, time=32),
    Message('note_on', channel=5, note=65, velocity=0, time=137),
    Message('note_on', channel=5, note=65, velocity=127, time=55),
    Message('note_on', channel=5, note=69, velocity=0, time=139),
    Message('note_on', channel=5, note=69, velocity=127, time=53),
    Message('note_on', channel=5, note=72, velocity=0, time=158),
    Message('note_on', channel=5, note=72, velocity=127, time=34),
    Message('note_on', channel=5, note=53, velocity=0, time=192),
    Message('note_on', channel=5, note=65, velocity=0, time=0),
    Message('note_on', channel=5, note=69, velocity=0, time=0),
    Message('note_on', channel=5, note=72, velocity=0, time=0),
    Message('note_on', channel=5, note=62, velocity=127, time=0),
    Message('note_on', channel=5, note=65, velocity=126, time=192),
    Message('note_on', channel=5, note=69, velocity=107, time=192),
    Message('note_on', channel=5, note=72, velocity=113, time=192),
    Message('note_on', channel=5, note=62, velocity=0, time=160),
    Message('note_on', channel=5, note=65, velocity=0, time=32),
    Message('note_on', channel=5, note=69, velocity=0, time=0),
    Message('note_on', channel=5, note=72, velocity=0, time=0),
    Message('note_on', channel=5, note=55, velocity=127, time=0),
    Message('note_on', channel=5, note=65, velocity=126, time=192),
    Message('note_on', channel=5, note=67, velocity=107, time=192),
    Message('note_on', channel=5, note=71, velocity=113, time=192),
    Message('note_on', channel=5, note=55, velocity=0, time=160),
    Message('note_on', channel=5, note=65, velocity=0, time=32),
    Message('note_on', channel=5, note=67, velocity=0, time=0),
    Message('note_on', channel=5, note=71, velocity=0, time=0),
    Message('note_on', channel=5, note=52, velocity=127, time=0),
    Message('note_on', channel=5, note=62, velocity=126, time=192),
    Message('note_on', channel=5, note=64, velocity=107, time=192),
    Message('note_on', channel=5, note=67, velocity=113, time=192),
    Message('note_on', channel=5, note=52, velocity=0, time=160),
    Message('note_on', channel=5, note=62, velocity=0, time=32),
    Message('note_on', channel=5, note=64, velocity=0, time=0),
    Message('note_on', channel=5, note=67, velocity=0, time=0),
    Message('note_on', channel=5, note=57, velocity=127, time=0),
    Message('note_on', channel=5, note=60, velocity=126, time=192),
    Message('note_on', channel=5, note=64, velocity=107, time=192),
    Message('note_on', channel=5, note=69, velocity=113, time=192),
    Message('note_on', channel=5, note=57, velocity=0, time=160),
    Message('note_on', channel=5, note=60, velocity=0, time=32),
    Message('note_on', channel=5, note=64, velocity=0, time=0),
    Message('note_on', channel=5, note=69, velocity=0, time=0),
    Message('note_on', channel=5, note=62, velocity=127, time=0),
    Message('note_on', channel=5, note=65, velocity=126, time=192),
    Message('note_on', channel=5, note=69, velocity=107, time=192),
    Message('note_on', channel=5, note=72, velocity=113, time=192),
    Message('note_on', channel=5, note=62, velocity=0, time=160),
    Message('note_on', channel=5, note=65, velocity=0, time=32),
    Message('note_on', channel=5, note=69, velocity=0, time=0),
    Message('note_on', channel=5, note=72, velocity=0, time=0),
    Message('note_on', channel=5, note=55, velocity=127, time=0),
    Message('note_on', channel=5, note=65, velocity=126, time=192),
    Message('note_on', channel=5, note=67, velocity=107, time=192),
    Message('note_on', channel=5, note=71, velocity=113, time=192),
    Message('note_on', channel=5, note=55, velocity=0, time=160),
    Message('note_on', channel=5, note=65, velocity=0, time=32),
    Message('note_on', channel=5, note=67, velocity=0, time=0),
    Message('note_on', channel=5, note=71, velocity=0, time=0),
    Message('note_on', channel=5, note=53, velocity=127, time=0),
    Message('note_on', channel=5, note=62, velocity=126, time=192),
    Message('note_on', channel=5, note=65, velocity=107, time=192),
    Message('note_on', channel=5, note=69, velocity=113, time=192),
    Message('note_on', channel=5, note=53, velocity=0, time=160),
    Message('note_on', channel=5, note=62, velocity=0, time=32),
    Message('note_on', channel=5, note=65, velocity=0, time=0),
    Message('note_on', channel=5, note=69, velocity=0, time=0),
    Message('note_on', channel=5, note=76, velocity=113, time=0),
    Message('note_on', channel=5, note=79, velocity=103, time=0),
    Message('note_on', channel=5, note=72, velocity=82, time=0),
    Message('note_on', channel=5, note=72, velocity=0, time=19),
    Message('note_on', channel=5, note=79, velocity=0, time=5),
    Message('note_on', channel=5, note=76, velocity=0, time=3),
    Message('note_on', channel=5, note=76, velocity=116, time=37),
    Message('note_on', channel=5, note=79, velocity=108, time=0),
    Message('note_on', channel=5, note=72, velocity=94, time=0),
    Message('note_on', channel=5, note=72, velocity=0, time=16),
    Message('note_on', channel=5, note=79, velocity=0, time=3),
    Message('note_on', channel=5, note=76, velocity=0, time=1),
    Message('note_on', channel=5, note=76, velocity=119, time=44),
    Message('note_on', channel=5, note=79, velocity=110, time=0),
    Message('note_on', channel=5, note=72, velocity=99, time=0),
    Message('note_on', channel=5, note=72, velocity=0, time=19),
    Message('note_on', channel=5, note=76, velocity=0, time=3),
    Message('note_on', channel=5, note=79, velocity=0, time=0),
    Message('note_on', channel=5, note=76, velocity=119, time=42),
    Message('note_on', channel=5, note=79, velocity=113, time=0),
    Message('note_on', channel=5, note=72, velocity=97, time=0),
    Message('note_on', channel=5, note=72, velocity=0, time=22),
    Message('note_on', channel=5, note=79, velocity=0, time=3),
    Message('note_on', channel=5, note=76, velocity=0, time=2),
    Message('note_on', channel=5, note=77, velocity=116, time=165),
    Message('note_on', channel=5, note=72, velocity=106, time=0),
    Message('note_on', channel=5, note=81, velocity=119, time=0),
    Message('note_on', channel=5, note=77, velocity=0, time=20),
    Message('note_on', channel=5, note=72, velocity=0, time=0),
    Message('note_on', channel=5, note=81, velocity=0, time=4),
    Message('note_on', channel=5, note=77, velocity=106, time=40),
    Message('note_on', channel=5, note=81, velocity=101, time=0),
    Message('note_on', channel=5, note=72, velocity=88, time=0),
    Message('note_on', channel=5, note=72, velocity=0, time=19),
    Message('note_on', channel=5, note=77, velocity=0, time=3),
    Message('note_on', channel=5, note=81, velocity=0, time=0),
    Message('note_on', channel=5, note=77, velocity=99, time=42),
    Message('note_on', channel=5, note=81, velocity=97, time=0),
    Message('note_on', channel=5, note=72, velocity=73, time=0),
    Message('note_on', channel=5, note=72, velocity=0, time=16),
    Message('note_on', channel=5, note=77, velocity=0, time=4),
    Message('note_on', channel=5, note=81, velocity=0, time=0),
    Message('note_on', channel=5, note=77, velocity=103, time=44),
    Message('note_on', channel=5, note=81, velocity=101, time=0),
    Message('note_on', channel=5, note=72, velocity=94, time=0),
    Message('note_on', channel=5, note=77, velocity=0, time=27),
    Message('note_on', channel=5, note=81, velocity=0, time=0),
    Message('note_on', channel=5, note=72, velocity=0, time=0),
    Message('note_on', channel=5, note=76, velocity=101, time=165),
    Message('note_on', channel=5, note=79, velocity=95, time=0),
    Message('note_on', channel=5, note=72, velocity=97, time=0),
    Message('note_on', channel=5, note=76, velocity=0, time=32),
    Message('note_on', channel=5, note=72, velocity=0, time=1),
    Message('note_on', channel=5, note=79, velocity=0, time=2),
    Message('note_on', channel=5, note=84, velocity=73, time=349),
    Message('note_on', channel=5, note=76, velocity=92, time=0),
    Message('note_on', channel=5, note=79, velocity=94, time=0),
    Message('note_on', channel=5, note=72, velocity=92, time=0),
    Message('note_on', channel=5, note=84, velocity=0, time=384),
    Message('note_on', channel=5, note=76, velocity=0, time=0),
    Message('note_on', channel=5, note=79, velocity=0, time=0),
    Message('note_on', channel=5, note=72, velocity=0, time=0),
    Message('control_change', channel=5, control=64, value=0, time=0),
    MetaMessage('end_of_track', time=0)]),
  MidiTrack([
    MetaMessage('midi_port', port=0, time=0),
    MetaMessage('track_name', name='melody piano        ', time=0),
    Message('program_change', channel=0, program=0, time=0),
    Message('control_change', channel=0, control=7, value=125, time=0),
    Message('note_on', channel=0, note=55, velocity=127, time=4427),
    Message('note_on', channel=0, note=55, velocity=0, time=160),
    Message('note_on', channel=0, note=64, velocity=127, time=45),
    Message('note_on', channel=0, note=62, velocity=127, time=485),
    Message('note_on', channel=0, note=64, velocity=0, time=5),
    Message('note_on', channel=0, note=64, velocity=110, time=131),
    Message('note_on', channel=0, note=62, velocity=0, time=4),
    Message('note_on', channel=0, note=62, velocity=127, time=53),
    Message('note_on', channel=0, note=64, velocity=0, time=9),
    Message('note_on', channel=0, note=62, velocity=0, time=57),
    Message('note_on', channel=0, note=64, velocity=122, time=3),
    Message('note_on', channel=0, note=62, velocity=127, time=517),
    Message('note_on', channel=0, note=64, velocity=0, time=7),
    Message('note_on', channel=0, note=64, velocity=110, time=123),
    Message('note_on', channel=0, note=62, velocity=0, time=7),
    Message('note_on', channel=0, note=62, velocity=127, time=49),
    Message('note_on', channel=0, note=64, velocity=0, time=6),
    Message('note_on', channel=0, note=64, velocity=127, time=66),
    Message('note_on', channel=0, note=62, velocity=0, time=2),
    Message('note_on', channel=0, note=64, velocity=0, time=493),
    Message('note_on', channel=0, note=62, velocity=113, time=8),
    Message('note_on', channel=0, note=62, velocity=0, time=23),
    Message('note_on', channel=0, note=64, velocity=127, time=9),
    Message('note_on', channel=0, note=64, velocity=0, time=26),
    Message('note_on', channel=0, note=62, velocity=113, time=5),
    Message('note_on', channel=0, note=64, velocity=127, time=64),
    Message('note_on', channel=0, note=62, velocity=0, time=5),
    Message('note_on', channel=0, note=64, velocity=0, time=57),
    Message('note_on', channel=0, note=62, velocity=110, time=1),
    Message('note_on', channel=0, note=62, velocity=0, time=45),
    Message('note_on', channel=0, note=62, velocity=80, time=26),
    Message('note_on', channel=0, note=62, velocity=0, time=66),
    Message('note_on', channel=0, note=61, velocity=67, time=0),
    Message('note_on', channel=0, note=61, velocity=0, time=541),
    Message('note_on', channel=0, note=57, velocity=127, time=11),
    Message('note_on', channel=0, note=57, velocity=0, time=132),
    Message('note_on', channel=0, note=65, velocity=127, time=20),
    Message('note_on', channel=0, note=65, velocity=0, time=500),
    Message('note_on', channel=0, note=64, velocity=127, time=7),
    Message('note_on', channel=0, note=64, velocity=0, time=124),
    Message('note_on', channel=0, note=65, velocity=90, time=6),
    Message('note_on', channel=0, note=64, velocity=127, time=60),
    Message('note_on', channel=0, note=65, velocity=0, time=4),
    Message('note_on', channel=0, note=64, velocity=0, time=59),
    Message('note_on', channel=0, note=65, velocity=92, time=10),
    Message('note_on', channel=0, note=65, velocity=0, time=484),
    Message('note_on', channel=0, note=64, velocity=127, time=21),
    Message('note_on', channel=0, note=64, velocity=0, time=111),
    Message('note_on', channel=0, note=65, velocity=127, time=27),
    Message('note_on', channel=0, note=65, velocity=0, time=54),
    Message('note_on', channel=0, note=64, velocity=127, time=5),
    Message('note_on', channel=0, note=64, velocity=0, time=53),
    Message('note_on', channel=0, note=65, velocity=122, time=17),
    Message('note_on', channel=0, note=65, velocity=0, time=334),
    Message('note_on', channel=0, note=67, velocity=122, time=42),
    Message('note_on', channel=0, note=67, velocity=0, time=175),
    Message('note_on', channel=0, note=62, velocity=100, time=4),
    Message('note_on', channel=0, note=62, velocity=0, time=95),
    Message('note_on', channel=0, note=65, velocity=110, time=8),
    Message('note_on', channel=0, note=65, velocity=0, time=92),
    Message('note_on', channel=0, note=65, velocity=92, time=18),
    Message('note_on', channel=0, note=65, velocity=0, time=94),
    Message('note_on', channel=0, note=64, velocity=106, time=15),
    Message('note_on', channel=0, note=64, velocity=0, time=539),
    Message('note_on', channel=0, note=60, velocity=127, time=37),
    Message('note_on', channel=0, note=60, velocity=0, time=62),
    Message('note_on', channel=0, note=67, velocity=127, time=26),
    Message('note_on', channel=0, note=60, velocity=82, time=307),
    Message('note_on', channel=0, note=60, velocity=0, time=50),
    Message('note_on', channel=0, note=59, velocity=100, time=26),
    Message('note_on', channel=0, note=67, velocity=0, time=16),
    Message('note_on', channel=0, note=67, velocity=127, time=112),
    Message('note_on', channel=0, note=67, velocity=0, time=81),
    Message('note_on', channel=0, note=67, velocity=113, time=22),
    Message('note_on', channel=0, note=67, velocity=0, time=43),
    Message('note_on', channel=0, note=69, velocity=72, time=4),
    Message('note_on', channel=0, note=59, velocity=0, time=55),
    Message('note_on', channel=0, note=69, velocity=0, time=4),
    Message('note_on', channel=0, note=67, velocity=70, time=61),
    Message('note_on', channel=0, note=58, velocity=77, time=106),
    Message('note_on', channel=0, note=58, velocity=0, time=354),
    Message('note_on', channel=0, note=67, velocity=0, time=5),
    Message('note_on', channel=0, note=64, velocity=127, time=78),
    Message('note_on', channel=0, note=64, velocity=0, time=73),
    Message('note_on', channel=0, note=65, velocity=103, time=0),
    Message('note_on', channel=0, note=67, velocity=113, time=55),
    Message('note_on', channel=0, note=65, velocity=0, time=1),
    Message('note_on', channel=0, note=67, velocity=0, time=44),
    Message('note_on', channel=0, note=65, velocity=92, time=35),
    Message('note_on', channel=0, note=57, velocity=73, time=200),
    Message('note_on', channel=0, note=65, velocity=0, time=329),
    Message('note_on', channel=0, note=57, velocity=0, time=6),
    Message('note_on', channel=0, note=65, velocity=127, time=29),
    Message('note_on', channel=0, note=65, velocity=0, time=45),
    Message('note_on', channel=0, note=65, velocity=82, time=21),
    Message('note_on', channel=0, note=65, velocity=0, time=59),
    Message('note_on', channel=0, note=64, velocity=110, time=5),
    Message('note_on', channel=0, note=64, velocity=0, time=48),
    Message('note_on', channel=0, note=67, velocity=118, time=23),
    Message('note_on', channel=0, note=67, velocity=0, time=184),
    Message('note_on', channel=0, note=56, velocity=41, time=14),
    Message('note_on', channel=0, note=65, velocity=78, time=4),
    Message('note_on', channel=0, note=56, velocity=0, time=343),
    Message('note_on', channel=0, note=65, velocity=0, time=77),
    Message('note_on', channel=0, note=67, velocity=94, time=70),
    Message('note_on', channel=0, note=65, velocity=110, time=25),
    Message('note_on', channel=0, note=67, velocity=0, time=4),
    Message('note_on', channel=0, note=65, velocity=0, time=35),
    Message('note_on', channel=0, note=64, velocity=127, time=13),
    Message('note_on', channel=0, note=64, velocity=0, time=440),
    Message('note_on', channel=0, note=55, velocity=127, time=8),
    Message('note_on', channel=0, note=55, velocity=0, time=75),
    Message('note_on', channel=0, note=65, velocity=100, time=101),
    Message('note_on', channel=0, note=65, velocity=0, time=57),
    Message('note_on', channel=0, note=64, velocity=103, time=8),
    Message('note_on', channel=0, note=64, velocity=0, time=63),
    Message('note_on', channel=0, note=62, velocity=69, time=13),
    Message('note_on', channel=0, note=59, velocity=122, time=372),
    Message('note_on', channel=0, note=62, velocity=0, time=5),
    Message('note_on', channel=0, note=60, velocity=127, time=133),
    Message('note_on', channel=0, note=59, velocity=0, time=5),
    Message('note_on', channel=0, note=60, velocity=0, time=103),
    Message('note_on', channel=0, note=62, velocity=127, time=20),
    Message('note_on', channel=0, note=62, velocity=0, time=130),
    Message('note_on', channel=0, note=53, velocity=94, time=0),
    Message('note_on', channel=0, note=62, velocity=92, time=108),
    Message('note_on', channel=0, note=53, velocity=0, time=473),
    Message('note_on', channel=0, note=62, velocity=0, time=16),
    Message('note_on', channel=0, note=64, velocity=87, time=92),
    Message('note_on', channel=0, note=62, velocity=100, time=30),
    Message('note_on', channel=0, note=64, velocity=0, time=1),
    Message('note_on', channel=0, note=62, velocity=0, time=47),
    Message('note_on', channel=0, note=60, velocity=72, time=3),
    Message('note_on', channel=0, note=60, velocity=0, time=367),
    Message('note_on', channel=0, note=67, velocity=60, time=107),
    Message('note_on', channel=0, note=69, velocity=127, time=17),
    Message('note_on', channel=0, note=67, velocity=0, time=2),
    Message('note_on', channel=0, note=67, velocity=106, time=23),
    Message('note_on', channel=0, note=69, velocity=0, time=5),
    Message('note_on', channel=0, note=67, velocity=0, time=28),
    Message('note_on', channel=0, note=66, velocity=127, time=37),
    Message('note_on', channel=0, note=67, velocity=127, time=122),
    Message('note_on', channel=0, note=66, velocity=0, time=12),
    Message('note_on', channel=0, note=67, velocity=0, time=26),
    Message('note_on', channel=0, note=76, velocity=113, time=39),
    Message('note_on', channel=0, note=76, velocity=0, time=471),
    Message('note_on', channel=0, note=67, velocity=127, time=15),
    Message('note_on', channel=0, note=67, velocity=0, time=110),
    Message('note_on', channel=0, note=76, velocity=127, time=25),
    Message('note_on', channel=0, note=76, velocity=0, time=59),
    Message('note_on', channel=0, note=76, velocity=40, time=20),
    Message('note_on', channel=0, note=75, velocity=69, time=23),
    Message('note_on', channel=0, note=76, velocity=0, time=9),
    Message('note_on', channel=0, note=75, velocity=0, time=41),
    Message('note_on', channel=0, note=76, velocity=77, time=24),
    Message('note_on', channel=0, note=76, velocity=0, time=450),
    Message('note_on', channel=0, note=67, velocity=122, time=4),
    Message('note_on', channel=0, note=67, velocity=0, time=107),
    Message('note_on', channel=0, note=76, velocity=127, time=44),
    Message('note_on', channel=0, note=75, velocity=59, time=51),
    Message('note_on', channel=0, note=76, velocity=0, time=5),
    Message('note_on', channel=0, note=75, velocity=0, time=44),
    Message('note_on', channel=0, note=76, velocity=127, time=11),
    Message('note_on', channel=0, note=74, velocity=127, time=377),
    Message('note_on', channel=0, note=76, velocity=0, time=6),
    Message('note_on', channel=0, note=74, velocity=0, time=114),
    Message('note_on', channel=0, note=76, velocity=127, time=11),
    Message('note_on', channel=0, note=74, velocity=122, time=136),
    Message('note_on', channel=0, note=76, velocity=0, time=7),
    Message('note_on', channel=0, note=74, velocity=0, time=93),
    Message('note_on', channel=0, note=74, velocity=106, time=21),
    Message('note_on', channel=0, note=73, velocity=90, time=111),
    Message('note_on', channel=0, note=74, velocity=0, time=4),
    Message('note_on', channel=0, note=73, velocity=0, time=467),
    Message('note_on', channel=0, note=69, velocity=127, time=3),
    Message('note_on', channel=0, note=69, velocity=0, time=108),
    Message('note_on', channel=0, note=75, velocity=48, time=68),
    Message('note_on', channel=0, note=76, velocity=78, time=8),
    Message('note_on', channel=0, note=77, velocity=118, time=12),
    Message('note_on', channel=0, note=75, velocity=0, time=5),
    Message('note_on', channel=0, note=76, velocity=0, time=8),
    Message('note_on', channel=0, note=77, velocity=0, time=450),
    Message('note_on', channel=0, note=76, velocity=122, time=33),
    Message('note_on', channel=0, note=76, velocity=0, time=117),
    Message('note_on', channel=0, note=77, velocity=90, time=15),
    Message('note_on', channel=0, note=76, velocity=118, time=60),
    Message('note_on', channel=0, note=77, velocity=0, time=7),
    Message('note_on', channel=0, note=76, velocity=0, time=45),
    Message('note_on', channel=0, note=77, velocity=113, time=20),
    Message('note_on', channel=0, note=76, velocity=127, time=506),
    Message('note_on', channel=0, note=77, velocity=0, time=5),
    Message('note_on', channel=0, note=76, velocity=0, time=126),
    Message('note_on', channel=0, note=77, velocity=90, time=0),
    Message('note_on', channel=0, note=76, velocity=110, time=63),
    Message('note_on', channel=0, note=77, velocity=0, time=3),
    Message('note_on', channel=0, note=76, velocity=0, time=62),
    Message('note_on', channel=0, note=77, velocity=80, time=5),
    Message('note_on', channel=0, note=77, velocity=0, time=369),
    Message('note_on', channel=0, note=79, velocity=106, time=12),
    Message('note_on', channel=0, note=71, velocity=100, time=124),
    Message('note_on', channel=0, note=79, velocity=0, time=4),
    Message('note_on', channel=0, note=77, velocity=118, time=146),
    Message('note_on', channel=0, note=71, velocity=0, time=14),
    Message('note_on', channel=0, note=77, velocity=0, time=66),
    Message('note_on', channel=0, note=77, velocity=76, time=25),
    Message('note_on', channel=0, note=77, velocity=0, time=114),
    Message('note_on', channel=0, note=76, velocity=78, time=2),
    Message('note_on', channel=0, note=76, velocity=0, time=553),
    Message('note_on', channel=0, note=72, velocity=127, time=9),
    Message('note_on', channel=0, note=72, velocity=0, time=94),
    Message('note_on', channel=0, note=79, velocity=127, time=9),
    Message('note_on', channel=0, note=71, velocity=85, time=380),
    Message('note_on', channel=0, note=79, velocity=0, time=19),
    Message('note_on', channel=0, note=79, velocity=113, time=106),
    Message('note_on', channel=0, note=79, velocity=0, time=72),
    Message('note_on', channel=0, note=79, velocity=72, time=22),
    Message('note_on', channel=0, note=79, velocity=0, time=43),
    Message('note_on', channel=0, note=81, velocity=72, time=8),
    Message('note_on', channel=0, note=71, velocity=0, time=38),
    Message('note_on', channel=0, note=81, velocity=0, time=49),
    Message('note_on', channel=0, note=70, velocity=31, time=22),
    Message('note_on', channel=0, note=79, velocity=52, time=2),
    Message('note_on', channel=0, note=70, velocity=0, time=487),
    Message('note_on', channel=0, note=79, velocity=0, time=25),
    Message('note_on', channel=0, note=76, velocity=64, time=68),
    Message('note_on', channel=0, note=76, velocity=0, time=60),
    Message('note_on', channel=0, note=77, velocity=122, time=12),
    Message('note_on', channel=0, note=79, velocity=106, time=44),
    Message('note_on', channel=0, note=77, velocity=0, time=12),
    Message('note_on', channel=0, note=79, velocity=0, time=25),
    Message('note_on', channel=0, note=81, velocity=47, time=12),
    Message('note_on', channel=0, note=81, velocity=0, time=37),
    Message('note_on', channel=0, note=77, velocity=106, time=28),
    Message('note_on', channel=0, note=69, velocity=80, time=240),
    Message('note_on', channel=0, note=70, velocity=62, time=21),
    Message('note_on', channel=0, note=69, velocity=0, time=5),
    Message('note_on', channel=0, note=70, velocity=0, time=20),
    Message('note_on', channel=0, note=69, velocity=62, time=62),
    Message('note_on', channel=0, note=69, velocity=0, time=129),
    Message('note_on', channel=0, note=77, velocity=0, time=16),
    Message('note_on', channel=0, note=77, velocity=127, time=43),
    Message('note_on', channel=0, note=76, velocity=127, time=50),
    Message('note_on', channel=0, note=77, velocity=0, time=10),
    Message('note_on', channel=0, note=76, velocity=0, time=40),
    Message('note_on', channel=0, note=77, velocity=85, time=0),
    Message('note_on', channel=0, note=76, velocity=122, time=42),
    Message('note_on', channel=0, note=77, velocity=0, time=7),
    Message('note_on', channel=0, note=76, velocity=0, time=24),
    Message('note_on', channel=0, note=79, velocity=127, time=25),
    Message('note_on', channel=0, note=68, velocity=103, time=118),
    Message('note_on', channel=0, note=79, velocity=0, time=15),
    Message('note_on', channel=0, note=77, velocity=40, time=124),
    Message('note_on', channel=0, note=68, velocity=0, time=264),
    Message('note_on', channel=0, note=77, velocity=0, time=26),
    Message('note_on', channel=0, note=77, velocity=100, time=30),
    Message('note_on', channel=0, note=77, velocity=0, time=59),
    Message('note_on', channel=0, note=79, velocity=118, time=13),
    Message('note_on', channel=0, note=79, velocity=0, time=46),
    Message('note_on', channel=0, note=77, velocity=78, time=6),
    Message('note_on', channel=0, note=77, velocity=0, time=57),
    Message('note_on', channel=0, note=76, velocity=103, time=10),
    Message('note_on', channel=0, note=67, velocity=118, time=512),
    Message('note_on', channel=0, note=76, velocity=0, time=24),
    Message('note_on', channel=0, note=67, velocity=0, time=70),
    Message('note_on', channel=0, note=77, velocity=77, time=16),
    Message('note_on', channel=0, note=77, velocity=0, time=52),
    Message('note_on', channel=0, note=76, velocity=106, time=10),
    Message('note_on', channel=0, note=76, velocity=0, time=51),
    Message('note_on', channel=0, note=74, velocity=87, time=13),
    Message('note_on', channel=0, note=71, velocity=113, time=396),
    Message('note_on', channel=0, note=74, velocity=0, time=1),
    Message('note_on', channel=0, note=72, velocity=127, time=122),
    Message('note_on', channel=0, note=71, velocity=0, time=9),
    Message('note_on', channel=0, note=72, velocity=0, time=115),
    Message('note_on', channel=0, note=74, velocity=110, time=8),
    Message('note_on', channel=0, note=65, velocity=50, time=193),
    Message('note_on', channel=0, note=69, velocity=94, time=65),
    Message('note_on', channel=0, note=74, velocity=0, time=19),
    Message('note_on', channel=0, note=74, velocity=55, time=52),
    Message('note_on', channel=0, note=65, velocity=0, time=307),
    Message('note_on', channel=0, note=69, velocity=0, time=3),
    Message('note_on', channel=0, note=74, velocity=0, time=11),
    Message('note_on', channel=0, note=74, velocity=106, time=53),
    Message('note_on', channel=0, note=76, velocity=103, time=64),
    Message('note_on', channel=0, note=74, velocity=0, time=8),
    Message('note_on', channel=0, note=76, velocity=0, time=44),
    Message('note_on', channel=0, note=74, velocity=100, time=3),
    Message('note_on', channel=0, note=74, velocity=0, time=55),
    Message('note_on', channel=0, note=72, velocity=92, time=12),
    Message('note_on', channel=0, note=72, velocity=0, time=266),
    Message('note_on', channel=0, note=64, velocity=127, time=314),
    Message('note_on', channel=0, note=65, velocity=110, time=67),
    Message('note_on', channel=0, note=64, velocity=0, time=7),
    Message('note_on', channel=0, note=65, velocity=0, time=40),
    Message('note_on', channel=0, note=67, velocity=122, time=2),
    Message('note_on', channel=0, note=67, velocity=0, time=48),
    Message('note_on', channel=0, note=67, velocity=127, time=32),
    Message('note_on', channel=0, note=67, velocity=0, time=264),
    Message('note_on', channel=0, note=69, velocity=127, time=315),
    Message('note_on', channel=0, note=67, velocity=127, time=62),
    Message('note_on', channel=0, note=69, velocity=0, time=5),
    Message('note_on', channel=0, note=67, velocity=0, time=48),
    Message('note_on', channel=0, note=66, velocity=113, time=5),
    Message('note_on', channel=0, note=66, velocity=0, time=74),
    Message('note_on', channel=0, note=67, velocity=127, time=2),
    Message('note_on', channel=0, note=67, velocity=0, time=453),
    Message('note_on', channel=0, note=64, velocity=127, time=35),
    Message('note_on', channel=0, note=64, velocity=0, time=84),
    Message('note_on', channel=0, note=65, velocity=118, time=6),
    Message('note_on', channel=0, note=67, velocity=127, time=55),
    Message('note_on', channel=0, note=65, velocity=0, time=9),
    Message('note_on', channel=0, note=67, velocity=0, time=35),
    Message('note_on', channel=0, note=69, velocity=127, time=12),
    Message('note_on', channel=0, note=69, velocity=0, time=519),
    Message('note_on', channel=0, note=70, velocity=127, time=63),
    Message('note_on', channel=0, note=70, velocity=0, time=87),
    Message('note_on', channel=0, note=69, velocity=127, time=13),
    Message('note_on', channel=0, note=69, velocity=0, time=40),
    Message('note_on', channel=0, note=68, velocity=110, time=3),
    Message('note_on', channel=0, note=69, velocity=122, time=40),
    Message('note_on', channel=0, note=68, velocity=0, time=8),
    Message('note_on', channel=0, note=69, velocity=0, time=473),
    Message('note_on', channel=0, note=69, velocity=127, time=89),
    Message('note_on', channel=0, note=69, velocity=0, time=62),
    Message('note_on', channel=0, note=71, velocity=113, time=21),
    Message('note_on', channel=0, note=71, velocity=0, time=40),
    Message('note_on', channel=0, note=72, velocity=110, time=14),
    Message('note_on', channel=0, note=72, velocity=0, time=128),
    Message('note_on', channel=0, note=72, velocity=110, time=13),
    Message('note_on', channel=0, note=72, velocity=0, time=434),
    Message('note_on', channel=0, note=69, velocity=122, time=15),
    Message('note_on', channel=0, note=69, velocity=0, time=98),
    Message('note_on', channel=0, note=72, velocity=127, time=24),
    Message('note_on', channel=0, note=72, velocity=0, time=54),
    Message('note_on', channel=0, note=74, velocity=118, time=2),
    Message('note_on', channel=0, note=74, velocity=0, time=29),
    Message('note_on', channel=0, note=72, velocity=127, time=2),
    Message('note_on', channel=0, note=71, velocity=106, time=92),
    Message('note_on', channel=0, note=72, velocity=0, time=2),
    Message('note_on', channel=0, note=71, velocity=0, time=551),
    Message('note_on', channel=0, note=71, velocity=127, time=23),
    Message('note_on', channel=0, note=72, velocity=127, time=72),
    Message('note_on', channel=0, note=71, velocity=0, time=11),
    Message('note_on', channel=0, note=72, velocity=0, time=35),
    Message('note_on', channel=0, note=74, velocity=122, time=7),
    Message('note_on', channel=0, note=74, velocity=0, time=57),
    Message('note_on', channel=0, note=74, velocity=127, time=15),
    Message('note_on', channel=0, note=74, velocity=0, time=480),
    Message('note_on', channel=0, note=74, velocity=127, time=21),
    Message('note_on', channel=0, note=74, velocity=0, time=119),
    Message('note_on', channel=0, note=76, velocity=127, time=10),
    Message('note_on', channel=0, note=76, velocity=0, time=38),
    Message('note_on', channel=0, note=74, velocity=122, time=5),
    Message('note_on', channel=0, note=74, velocity=0, time=35),
    Message('note_on', channel=0, note=72, velocity=113, time=2),
    Message('note_on', channel=0, note=72, velocity=0, time=532),
    Message('note_on', channel=0, note=72, velocity=127, time=29),
    Message('note_on', channel=0, note=72, velocity=0, time=78),
    Message('note_on', channel=0, note=72, velocity=127, time=15),
    Message('note_on', channel=0, note=72, velocity=0, time=69),
    Message('note_on', channel=0, note=72, velocity=127, time=13),
    Message('note_on', channel=0, note=72, velocity=0, time=86),
    Message('note_on', channel=0, note=72, velocity=127, time=12),
    Message('note_on', channel=0, note=72, velocity=0, time=480),
    Message('note_on', channel=0, note=72, velocity=127, time=21),
    Message('note_on', channel=0, note=72, velocity=0, time=109),
    Message('note_on', channel=0, note=74, velocity=127, time=9),
    Message('note_on', channel=0, note=74, velocity=0, time=35),
    Message('note_on', channel=0, note=72, velocity=127, time=10),
    Message('note_on', channel=0, note=71, velocity=122, time=111),
    Message('note_on', channel=0, note=72, velocity=0, time=4),
    Message('note_on', channel=0, note=71, velocity=0, time=459),
    Message('note_on', channel=0, note=71, velocity=110, time=22),
    Message('note_on', channel=0, note=72, velocity=118, time=92),
    Message('note_on', channel=0, note=71, velocity=0, time=11),
    Message('note_on', channel=0, note=72, velocity=0, time=48),
    Message('note_on', channel=0, note=74, velocity=127, time=5),
    Message('note_on', channel=0, note=74, velocity=0, time=112),
    Message('note_on', channel=0, note=74, velocity=106, time=17),
    Message('note_on', channel=0, note=74, velocity=0, time=591),
    Message('note_on', channel=0, note=76, velocity=84, time=27),
    Message('note_on', channel=0, note=76, velocity=0, time=51),
    Message('note_on', channel=0, note=74, velocity=122, time=9),
    Message('note_on', channel=0, note=74, velocity=0, time=63),
    Message('note_on', channel=0, note=72, velocity=110, time=10),
    Message('note_on', channel=0, note=72, velocity=0, time=503),
    Message('note_on', channel=0, note=43, velocity=127, time=143),
    Message('note_on', channel=0, note=43, velocity=0, time=104),
    Message('note_on', channel=0, note=52, velocity=127, time=40),
    Message('note_on', channel=0, note=50, velocity=127, time=491),
    Message('note_on', channel=0, note=52, velocity=0, time=11),
    Message('note_on', channel=0, note=50, velocity=0, time=111),
    Message('note_on', channel=0, note=52, velocity=127, time=5),
    Message('note_on', channel=0, note=52, velocity=0, time=50),
    Message('note_on', channel=0, note=50, velocity=127, time=6),
    Message('note_on', channel=0, note=50, velocity=0, time=61),
    Message('note_on', channel=0, note=52, velocity=127, time=3),
    Message('note_on', channel=0, note=52, velocity=0, time=520),
    Message('note_on', channel=0, note=50, velocity=127, time=2),
    Message('note_on', channel=0, note=50, velocity=0, time=125),
    Message('note_on', channel=0, note=52, velocity=127, time=10),
    Message('note_on', channel=0, note=52, velocity=0, time=49),
    Message('note_on', channel=0, note=50, velocity=127, time=2),
    Message('note_on', channel=0, note=50, velocity=0, time=67),
    Message('note_on', channel=0, note=52, velocity=127, time=1),
    Message('note_on', channel=0, note=52, velocity=0, time=374),
    Message('note_on', channel=0, note=50, velocity=127, time=18),
    Message('note_on', channel=0, note=50, velocity=0, time=99),
    Message('note_on', channel=0, note=52, velocity=127, time=24),
    Message('note_on', channel=0, note=52, velocity=0, time=112),
    Message('note_on', channel=0, note=50, velocity=127, time=16),
    Message('note_on', channel=0, note=50, velocity=0, time=104),
    Message('note_on', channel=0, note=50, velocity=127, time=21),
    Message('note_on', channel=0, note=49, velocity=103, time=81),
    Message('note_on', channel=0, note=50, velocity=0, time=2),
    Message('note_on', channel=0, note=49, velocity=0, time=479),
    Message('note_on', channel=0, note=45, velocity=127, time=22),
    Message('note_on', channel=0, note=45, velocity=0, time=107),
    Message('note_on', channel=0, note=51, velocity=46, time=58),
    Message('note_on', channel=0, note=52, velocity=73, time=10),
    Message('note_on', channel=0, note=53, velocity=118, time=13),
    Message('note_on', channel=0, note=51, velocity=0, time=6),
    Message('note_on', channel=0, note=52, velocity=0, time=5),
    Message('note_on', channel=0, note=53, velocity=0, time=452),
    Message('note_on', channel=0, note=52, velocity=127, time=37),
    Message('note_on', channel=0, note=52, velocity=0, time=138),
    Message('note_on', channel=0, note=53, velocity=100, time=1),
    Message('note_on', channel=0, note=52, velocity=127, time=55),
    Message('note_on', channel=0, note=53, velocity=0, time=8),
    Message('note_on', channel=0, note=52, velocity=0, time=60),
    Message('note_on', channel=0, note=53, velocity=103, time=1),
    Message('note_on', channel=0, note=53, velocity=0, time=411),
    Message('note_on', channel=0, note=52, velocity=127, time=95),
    Message('note_on', channel=0, note=52, velocity=0, time=110),
    Message('note_on', channel=0, note=53, velocity=118, time=22),
    Message('note_on', channel=0, note=53, velocity=0, time=52),
    Message('note_on', channel=0, note=52, velocity=127, time=5),
    Message('note_on', channel=0, note=52, velocity=0, time=49),
    Message('note_on', channel=0, note=53, velocity=127, time=21),
    Message('note_on', channel=0, note=53, velocity=0, time=364),
    Message('note_on', channel=0, note=55, velocity=127, time=26),
    Message('note_on', channel=0, note=55, velocity=0, time=184),
    Message('note_on', channel=0, note=50, velocity=118, time=7),
    Message('note_on', channel=0, note=50, velocity=0, time=108),
    Message('note_on', channel=0, note=53, velocity=127, time=11),
    Message('note_on', channel=0, note=53, velocity=0, time=60),
    Message('note_on', channel=0, note=53, velocity=127, time=12),
    Message('note_on', channel=0, note=53, velocity=0, time=120),
    Message('note_on', channel=0, note=52, velocity=118, time=24),
    Message('note_on', channel=0, note=48, velocity=127, time=427),
    Message('note_on', channel=0, note=52, velocity=0, time=29),
    Message('note_on', channel=0, note=48, velocity=0, time=117),
    Message('note_on', channel=0, note=55, velocity=127, time=60),
    Message('note_on', channel=0, note=55, velocity=0, time=439),
    Message('note_on', channel=0, note=57, velocity=32, time=75),
    Message('note_on', channel=0, note=57, velocity=0, time=68),
    Message('note_on', channel=0, note=57, velocity=127, time=37),
    Message('note_on', channel=0, note=57, velocity=0, time=30),
    Message('note_on', channel=0, note=55, velocity=127, time=22),
    Message('note_on', channel=0, note=57, velocity=113, time=34),
    Message('note_on', channel=0, note=55, velocity=0, time=5),
    Message('note_on', channel=0, note=57, velocity=0, time=36),
    Message('note_on', channel=0, note=55, velocity=118, time=12),
    Message('note_on', channel=0, note=52, velocity=127, time=383),
    Message('note_on', channel=0, note=55, velocity=0, time=15),
    Message('note_on', channel=0, note=52, velocity=0, time=101),
    Message('note_on', channel=0, note=53, velocity=127, time=16),
    Message('note_on', channel=0, note=55, velocity=127, time=121),
    Message('note_on', channel=0, note=53, velocity=0, time=5),
    Message('note_on', channel=0, note=55, velocity=0, time=124),
    Message('note_on', channel=0, note=53, velocity=127, time=10),
    Message('note_on', channel=0, note=53, velocity=0, time=491),
    Message('note_on', channel=0, note=52, velocity=127, time=23),
    Message('note_on', channel=0, note=52, velocity=0, time=131),
    Message('note_on', channel=0, note=53, velocity=106, time=0),
    Message('note_on', channel=0, note=53, velocity=0, time=48),
    Message('note_on', channel=0, note=52, velocity=127, time=0),
    Message('note_on', channel=0, note=52, velocity=0, time=47),
    Message('note_on', channel=0, note=55, velocity=127, time=25),
    Message('note_on', channel=0, note=55, velocity=0, time=65),
    Message('note_on', channel=0, note=53, velocity=110, time=2),
    Message('note_on', channel=0, note=53, velocity=0, time=459),
    Message('note_on', channel=0, note=53, velocity=122, time=54),
    Message('note_on', channel=0, note=55, velocity=127, time=57),
    Message('note_on', channel=0, note=53, velocity=0, time=9),
    Message('note_on', channel=0, note=55, velocity=0, time=49),
    Message('note_on', channel=0, note=53, velocity=122, time=2),
    Message('note_on', channel=0, note=53, velocity=0, time=57),
    Message('note_on', channel=0, note=52, velocity=127, time=9),
    Message('note_on', channel=0, note=52, velocity=0, time=345),
    Message('note_on', channel=0, note=43, velocity=122, time=85),
    Message('note_on', channel=0, note=43, velocity=0, time=99),
    Message('note_on', channel=0, note=51, velocity=55, time=45),
    Message('note_on', channel=0, note=52, velocity=92, time=13),
    Message('note_on', channel=0, note=53, velocity=94, time=5),
    Message('note_on', channel=0, note=51, velocity=0, time=9),
    Message('note_on', channel=0, note=52, velocity=0, time=8),
    Message('note_on', channel=0, note=53, velocity=0, time=56),
    Message('note_on', channel=0, note=52, velocity=122, time=4),
    Message('note_on', channel=0, note=52, velocity=0, time=60),
    Message('note_on', channel=0, note=50, velocity=127, time=32),
    Message('note_on', channel=0, note=50, velocity=0, time=390),
    Message('note_on', channel=0, note=47, velocity=127, time=7),
    Message('note_on', channel=0, note=47, velocity=0, time=132),
    Message('note_on', channel=0, note=48, velocity=127, time=7),
    Message('note_on', channel=0, note=48, velocity=0, time=101),
    Message('note_on', channel=0, note=50, velocity=127, time=18),
    Message('note_on', channel=0, note=50, velocity=0, time=101),
    Message('note_on', channel=0, note=50, velocity=94, time=19),
    Message('note_on', channel=0, note=50, velocity=0, time=562),
    Message('note_on', channel=0, note=50, velocity=122, time=24),
    Message('note_on', channel=0, note=52, velocity=45, time=64),
    Message('note_on', channel=0, note=50, velocity=0, time=4),
    Message('note_on', channel=0, note=52, velocity=0, time=42),
    Message('note_on', channel=0, note=50, velocity=110, time=7),
    Message('note_on', channel=0, note=50, velocity=0, time=63),
    Message('note_on', channel=0, note=48, velocity=127, time=17),
    Message('note_on', channel=0, note=48, velocity=0, time=240),
    Message('note_on', channel=0, note=64, velocity=127, time=143),
    Message('note_on', channel=0, note=64, velocity=0, time=96),
    Message('note_on', channel=0, note=65, velocity=127, time=31),
    Message('note_on', channel=0, note=65, velocity=0, time=88),
    Message('note_on', channel=0, note=67, velocity=127, time=28),
    Message('note_on', channel=0, note=67, velocity=0, time=115),
    Message('note_on', channel=0, note=67, velocity=127, time=33),
    Message('note_on', channel=0, note=67, velocity=0, time=221),
    Message('note_on', channel=0, note=69, velocity=127, time=273),
    Message('note_on', channel=0, note=67, velocity=127, time=122),
    Message('note_on', channel=0, note=69, velocity=0, time=2),
    Message('note_on', channel=0, note=67, velocity=0, time=41),
    Message('note_on', channel=0, note=66, velocity=127, time=8),
    Message('note_on', channel=0, note=66, velocity=0, time=40),
    Message('note_on', channel=0, note=67, velocity=127, time=0),
    Message('note_on', channel=0, note=67, velocity=0, time=459),
    Message('note_on', channel=0, note=64, velocity=127, time=87),
    Message('note_on', channel=0, note=64, velocity=0, time=90),
    Message('note_on', channel=0, note=65, velocity=127, time=10),
    Message('note_on', channel=0, note=65, velocity=0, time=60),
    Message('note_on', channel=0, note=67, velocity=127, time=0),
    Message('note_on', channel=0, note=67, velocity=0, time=80),
    Message('note_on', channel=0, note=69, velocity=127, time=23),
    Message('note_on', channel=0, note=69, velocity=0, time=569),
    Message('note_on', channel=0, note=70, velocity=127, time=26),
    Message('note_on', channel=0, note=70, velocity=0, time=51),
    Message('note_on', channel=0, note=69, velocity=127, time=11),
    Message('note_on', channel=0, note=69, velocity=0, time=52),
    Message('note_on', channel=0, note=68, velocity=127, time=2),
    Message('note_on', channel=0, note=68, velocity=0, time=69),
    Message('note_on', channel=0, note=69, velocity=127, time=0),
    Message('note_on', channel=0, note=69, velocity=0, time=468),
    Message('note_on', channel=0, note=69, velocity=127, time=25),
    Message('note_on', channel=0, note=69, velocity=0, time=61),
    Message('note_on', channel=0, note=71, velocity=127, time=24),
    Message('note_on', channel=0, note=71, velocity=0, time=47),
    Message('note_on', channel=0, note=72, velocity=127, time=12),
    Message('note_on', channel=0, note=72, velocity=0, time=110),
    Message('note_on', channel=0, note=72, velocity=127, time=24),
    Message('note_on', channel=0, note=72, velocity=0, time=363),
    Message('note_on', channel=0, note=69, velocity=127, time=13),
    Message('note_on', channel=0, note=69, velocity=0, time=118),
    Message('note_on', channel=0, note=72, velocity=127, time=19),
    Message('note_on', channel=0, note=72, velocity=0, time=112),
    Message('note_on', channel=0, note=74, velocity=127, time=7),
    Message('note_on', channel=0, note=74, velocity=0, time=36),
    Message('note_on', channel=0, note=72, velocity=127, time=3),
    Message('note_on', channel=0, note=72, velocity=0, time=72),
    Message('note_on', channel=0, note=71, velocity=127, time=11),
    Message('note_on', channel=0, note=71, velocity=0, time=464),
    Message('note_on', channel=0, note=71, velocity=127, time=35),
    Message('note_on', channel=0, note=71, velocity=0, time=82),
    Message('note_on', channel=0, note=72, velocity=127, time=7),
    Message('note_on', channel=0, note=72, velocity=0, time=40),
    Message('note_on', channel=0, note=74, velocity=127, time=15),
    Message('note_on', channel=0, note=74, velocity=0, time=111),
    Message('note_on', channel=0, note=74, velocity=127, time=27),
    Message('note_on', channel=0, note=74, velocity=0, time=448),
    Message('note_on', channel=0, note=74, velocity=127, time=30),
    Message('note_on', channel=0, note=74, velocity=0, time=97),
    Message('note_on', channel=0, note=76, velocity=127, time=9),
    Message('note_on', channel=0, note=76, velocity=0, time=72),
    Message('note_on', channel=0, note=74, velocity=127, time=9),
    Message('note_on', channel=0, note=74, velocity=0, time=81),
    Message('note_on', channel=0, note=72, velocity=127, time=15),
    Message('note_on', channel=0, note=72, velocity=0, time=435),
    Message('note_on', channel=0, note=72, velocity=127, time=54),
    Message('note_on', channel=0, note=72, velocity=0, time=80),
    Message('note_on', channel=0, note=72, velocity=127, time=21),
    Message('note_on', channel=0, note=72, velocity=0, time=75),
    Message('note_on', channel=0, note=72, velocity=127, time=16),
    Message('note_on', channel=0, note=72, velocity=0, time=81),
    Message('note_on', channel=0, note=72, velocity=127, time=16),
    Message('note_on', channel=0, note=69, velocity=127, time=475),
    Message('note_on', channel=0, note=72, velocity=0, time=12),
    Message('note_on', channel=0, note=69, velocity=0, time=72),
    Message('note_on', channel=0, note=72, velocity=127, time=17),
    Message('note_on', channel=0, note=72, velocity=0, time=32),
    Message('note_on', channel=0, note=74, velocity=127, time=16),
    Message('note_on', channel=0, note=74, velocity=0, time=39),
    Message('note_on', channel=0, note=72, velocity=127, time=12),
    Message('note_on', channel=0, note=72, velocity=0, time=67),
    Message('note_on', channel=0, note=71, velocity=127, time=23),
    Message('note_on', channel=0, note=71, velocity=0, time=344),
    Message('note_on', channel=0, note=71, velocity=127, time=36),
    Message('note_on', channel=0, note=71, velocity=0, time=90),
    Message('note_on', channel=0, note=72, velocity=127, time=28),
    Message('note_on', channel=0, note=72, velocity=0, time=104),
    Message('note_on', channel=0, note=74, velocity=127, time=23),
    Message('note_on', channel=0, note=74, velocity=0, time=111),
    Message('note_on', channel=0, note=74, velocity=127, time=24),
    Message('note_on', channel=0, note=74, velocity=0, time=759),
    Message('note_on', channel=0, note=72, velocity=127, time=15),
    Message('note_on', channel=0, note=72, velocity=0, time=636),
    Message('note_on', channel=0, note=79, velocity=127, time=121),
    Message('note_on', channel=0, note=79, velocity=0, time=384),
    MetaMessage('end_of_track', time=0)]),
  MidiTrack([
    MetaMessage('midi_port', port=0, time=0),
    MetaMessage('track_name', name='vibes2              ', time=0),
    Message('program_change', channel=3, program=11, time=0),
    Message('control_change', channel=3, control=7, value=100, time=0),
    Message('control_change', channel=3, control=10, value=127, time=0),
    Message('control_change', channel=3, control=64, value=127, time=28991),
    Message('control_change', channel=3, control=64, value=0, time=38),
    Message('note_on', channel=3, note=60, velocity=118, time=166),
    Message('note_on', channel=3, note=60, velocity=0, time=249),
    Message('note_on', channel=3, note=64, velocity=127, time=9),
    Message('note_on', channel=3, note=64, velocity=0, time=47),
    Message('note_on', channel=3, note=60, velocity=122, time=12),
    Message('note_on', channel=3, note=60, velocity=0, time=47),
    Message('note_on', channel=3, note=59, velocity=127, time=17),
    Message('note_on', channel=3, note=64, velocity=127, time=254),
    Message('note_on', channel=3, note=59, velocity=0, time=5),
    Message('note_on', channel=3, note=64, velocity=0, time=55),
    Message('note_on', channel=3, note=59, velocity=110, time=1),
    Message('note_on', channel=3, note=59, velocity=0, time=59),
    Message('note_on', channel=3, note=58, velocity=110, time=12),
    Message('note_on', channel=3, note=58, velocity=0, time=646),
    Message('note_on', channel=3, note=57, velocity=127, time=124),
    Message('note_on', channel=3, note=57, velocity=0, time=1375),
    Message('note_on', channel=3, note=62, velocity=110, time=155),
    Message('note_on', channel=3, note=62, velocity=0, time=552),
    Message('note_on', channel=3, note=60, velocity=118, time=19),
    Message('note_on', channel=3, note=60, velocity=0, time=185),
    Message('note_on', channel=3, note=59, velocity=118, time=11),
    Message('note_on', channel=3, note=59, velocity=0, time=649),
    Message('note_on', channel=3, note=67, velocity=113, time=314),
    Message('note_on', channel=3, note=67, velocity=0, time=192),
    Message('note_on', channel=3, note=64, velocity=113, time=22),
    Message('note_on', channel=3, note=64, velocity=0, time=132),
    Message('note_on', channel=3, note=62, velocity=87, time=28),
    Message('note_on', channel=3, note=62, velocity=0, time=156),
    Message('note_on', channel=3, note=60, velocity=87, time=27),
    Message('note_on', channel=3, note=60, velocity=0, time=757),
    Message('note_on', channel=3, note=53, velocity=118, time=18),
    Message('note_on', channel=3, note=57, velocity=69, time=275),
    Message('note_on', channel=3, note=60, velocity=106, time=58),
    Message('note_on', channel=3, note=60, velocity=0, time=43),
    Message('note_on', channel=3, note=62, velocity=90, time=29),
    Message('note_on', channel=3, note=57, velocity=0, time=8),
    Message('note_on', channel=3, note=53, velocity=0, time=4),
    Message('note_on', channel=3, note=60, velocity=110, time=170),
    Message('note_on', channel=3, note=62, velocity=0, time=8),
    Message('note_on', channel=3, note=60, velocity=0, time=160),
    Message('note_on', channel=3, note=59, velocity=106, time=14),
    Message('note_on', channel=3, note=67, velocity=106, time=401),
    Message('note_on', channel=3, note=59, velocity=0, time=214),
    Message('note_on', channel=3, note=67, velocity=0, time=3),
    Message('note_on', channel=3, note=65, velocity=127, time=153),
    Message('note_on', channel=3, note=65, velocity=0, time=729),
    Message('note_on', channel=3, note=64, velocity=87, time=37),
    Message('note_on', channel=3, note=64, velocity=0, time=602),
    Message('note_on', channel=3, note=72, velocity=127, time=12469),
    Message('note_on', channel=3, note=76, velocity=122, time=258),
    Message('note_on', channel=3, note=72, velocity=0, time=8),
    Message('note_on', channel=3, note=76, velocity=0, time=51),
    Message('note_on', channel=3, note=72, velocity=127, time=3),
    Message('note_on', channel=3, note=72, velocity=0, time=57),
    Message('note_on', channel=3, note=71, velocity=127, time=5),
    Message('note_on', channel=3, note=76, velocity=122, time=252),
    Message('note_on', channel=3, note=71, velocity=0, time=2),
    Message('note_on', channel=3, note=76, velocity=0, time=51),
    Message('note_on', channel=3, note=71, velocity=113, time=0),
    Message('note_on', channel=3, note=71, velocity=0, time=50),
    Message('note_on', channel=3, note=70, velocity=94, time=16),
    Message('note_on', channel=3, note=70, velocity=0, time=607),
    Message('note_on', channel=3, note=69, velocity=118, time=176),
    Message('note_on', channel=3, note=72, velocity=113, time=0),
    Message('note_on', channel=3, note=69, velocity=0, time=553),
    Message('note_on', channel=3, note=72, velocity=0, time=1),
    Message('note_on', channel=3, note=69, velocity=113, time=210),
    Message('note_on', channel=3, note=72, velocity=118, time=1),
    Message('note_on', channel=3, note=69, velocity=0, time=595),
    Message('note_on', channel=3, note=72, velocity=0, time=3),
    Message('note_on', channel=3, note=69, velocity=118, time=168),
    Message('note_on', channel=3, note=74, velocity=103, time=0),
    Message('note_on', channel=3, note=74, velocity=0, time=592),
    Message('note_on', channel=3, note=69, velocity=0, time=3),
    Message('note_on', channel=3, note=65, velocity=74, time=163),
    Message('note_on', channel=3, note=67, velocity=106, time=1),
    Message('note_on', channel=3, note=65, velocity=0, time=502),
    Message('note_on', channel=3, note=67, velocity=0, time=5),
    Message('note_on', channel=3, note=74, velocity=103, time=148),
    Message('note_on', channel=3, note=74, velocity=0, time=23),
    Message('note_on', channel=3, note=75, velocity=110, time=30),
    Message('note_on', channel=3, note=75, velocity=0, time=26),
    Message('note_on', channel=3, note=76, velocity=113, time=42),
    Message('note_on', channel=3, note=76, velocity=0, time=538),
    Message('note_on', channel=3, note=76, velocity=127, time=31),
    Message('note_on', channel=3, note=76, velocity=0, time=133),
    Message('note_on', channel=3, note=69, velocity=127, time=67),
    Message('note_on', channel=3, note=69, velocity=0, time=751),
    Message('note_on', channel=3, note=65, velocity=103, time=9),
    Message('note_on', channel=3, note=65, velocity=0, time=713),
    Message('note_on', channel=3, note=62, velocity=106, time=53),
    Message('note_on', channel=3, note=62, velocity=0, time=542),
    Message('note_on', channel=3, note=81, velocity=122, time=231),
    Message('note_on', channel=3, note=84, velocity=110, time=2),
    Message('note_on', channel=3, note=84, velocity=0, time=578),
    Message('note_on', channel=3, note=81, velocity=0, time=5),
    Message('control_change', channel=3, control=7, value=70, time=180),
    Message('note_on', channel=3, note=72, velocity=113, time=12),
    Message('note_on', channel=3, note=76, velocity=127, time=0),
    Message('note_on', channel=3, note=79, velocity=127, time=0),
    Message('note_on', channel=3, note=76, velocity=0, time=759),
    Message('note_on', channel=3, note=79, velocity=0, time=3),
    Message('note_on', channel=3, note=72, velocity=0, time=4),
    MetaMessage('end_of_track', time=0)]),
  MidiTrack([
    MetaMessage('midi_port', port=0, time=0),
    MetaMessage('track_name', name='synth strings1      ', time=0),
    Message('program_change', channel=7, program=49, time=0),
    Message('control_change', channel=7, control=7, value=68, time=0),
    Message('control_change', channel=7, control=64, value=0, time=0),
    Message('note_on', channel=7, note=64, velocity=127, time=1536),
    Message('note_on', channel=7, note=60, velocity=127, time=0),
    Message('note_on', channel=7, note=55, velocity=127, time=0),
    Message('note_on', channel=7, note=64, velocity=0, time=577),
    Message('note_on', channel=7, note=60, velocity=0, time=0),
    Message('note_on', channel=7, note=55, velocity=0, time=0),
    Message('note_on', channel=7, note=64, velocity=127, time=63),
    Message('note_on', channel=7, note=60, velocity=127, time=0),
    Message('note_on', channel=7, note=55, velocity=127, time=0),
    Message('note_on', channel=7, note=64, velocity=0, time=33),
    Message('note_on', channel=7, note=60, velocity=0, time=0),
    Message('note_on', channel=7, note=55, velocity=0, time=0),
    Message('note_on', channel=7, note=64, velocity=127, time=31),
    Message('note_on', channel=7, note=60, velocity=127, time=0),
    Message('note_on', channel=7, note=55, velocity=127, time=0),
    Message('note_on', channel=7, note=64, velocity=0, time=35),
    Message('note_on', channel=7, note=60, velocity=0, time=0),
    Message('note_on', channel=7, note=55, velocity=0, time=0),
    Message('note_on', channel=7, note=64, velocity=127, time=29),
    Message('note_on', channel=7, note=60, velocity=127, time=0),
    Message('note_on', channel=7, note=55, velocity=127, time=0),
    Message('note_on', channel=7, note=64, velocity=0, time=587),
    Message('note_on', channel=7, note=60, velocity=0, time=0),
    Message('note_on', channel=7, note=55, velocity=0, time=0),
    Message('note_on', channel=7, note=64, velocity=127, time=53),
    Message('note_on', channel=7, note=60, velocity=127, time=0),
    Message('note_on', channel=7, note=55, velocity=127, time=0),
    Message('note_on', channel=7, note=64, velocity=0, time=32),
    Message('note_on', channel=7, note=60, velocity=0, time=0),
    Message('note_on', channel=7, note=55, velocity=0, time=0),
    Message('note_on', channel=7, note=64, velocity=127, time=32),
    Message('note_on', channel=7, note=60, velocity=127, time=0),
    Message('note_on', channel=7, note=55, velocity=127, time=0),
    Message('note_on', channel=7, note=64, velocity=0, time=35),
    Message('note_on', channel=7, note=60, velocity=0, time=0),
    Message('note_on', channel=7, note=55, velocity=0, time=0),
    Message('note_on', channel=7, note=64, velocity=127, time=29),
    Message('note_on', channel=7, note=60, velocity=127, time=0),
    Message('note_on', channel=7, note=55, velocity=127, time=0),
    Message('note_on', channel=7, note=64, velocity=0, time=577),
    Message('note_on', channel=7, note=60, velocity=0, time=0),
    Message('note_on', channel=7, note=55, velocity=0, time=0),
    Message('note_on', channel=7, note=64, velocity=127, time=63),
    Message('note_on', channel=7, note=60, velocity=127, time=0),
    Message('note_on', channel=7, note=55, velocity=127, time=0),
    Message('note_on', channel=7, note=64, velocity=0, time=33),
    Message('note_on', channel=7, note=60, velocity=0, time=0),
    Message('note_on', channel=7, note=55, velocity=0, time=0),
    Message('note_on', channel=7, note=64, velocity=127, time=31),
    Message('note_on', channel=7, note=60, velocity=127, time=0),
    Message('note_on', channel=7, note=55, velocity=127, time=0),
    Message('note_on', channel=7, note=64, velocity=0, time=35),
    Message('note_on', channel=7, note=60, velocity=0, time=0),
    Message('note_on', channel=7, note=55, velocity=0, time=0),
    Message('note_on', channel=7, note=64, velocity=127, time=29),
    Message('note_on', channel=7, note=60, velocity=127, time=0),
    Message('note_on', channel=7, note=55, velocity=127, time=0),
    Message('note_on', channel=7, note=64, velocity=0, time=587),
    Message('note_on', channel=7, note=60, velocity=0, time=0),
    Message('note_on', channel=7, note=55, velocity=0, time=0),
    Message('note_on', channel=7, note=64, velocity=127, time=53),
    Message('note_on', channel=7, note=60, velocity=127, time=0),
    Message('note_on', channel=7, note=55, velocity=127, time=0),
    Message('note_on', channel=7, note=64, velocity=0, time=32),
    Message('note_on', channel=7, note=60, velocity=0, time=0),
    Message('note_on', channel=7, note=55, velocity=0, time=0),
    Message('note_on', channel=7, note=64, velocity=127, time=32),
    Message('note_on', channel=7, note=60, velocity=127, time=0),
    Message('note_on', channel=7, note=55, velocity=127, time=0),
    Message('note_on', channel=7, note=64, velocity=0, time=35),
    Message('note_on', channel=7, note=60, velocity=0, time=0),
    Message('note_on', channel=7, note=55, velocity=0, time=0),
    Message('note_on', channel=7, note=64, velocity=127, time=29),
    Message('note_on', channel=7, note=60, velocity=127, time=0),
    Message('note_on', channel=7, note=55, velocity=127, time=0),
    Message('note_on', channel=7, note=64, velocity=0, time=577),
    Message('note_on', channel=7, note=60, velocity=0, time=0),
    Message('note_on', channel=7, note=55, velocity=0, time=0),
    Message('note_on', channel=7, note=64, velocity=127, time=63),
    Message('note_on', channel=7, note=60, velocity=127, time=0),
    Message('note_on', channel=7, note=55, velocity=127, time=0),
    Message('note_on', channel=7, note=64, velocity=0, time=33),
    Message('note_on', channel=7, note=60, velocity=0, time=0),
    Message('note_on', channel=7, note=55, velocity=0, time=0),
    Message('note_on', channel=7, note=64, velocity=127, time=31),
    Message('note_on', channel=7, note=60, velocity=127, time=0),
    Message('note_on', channel=7, note=55, velocity=127, time=0),
    Message('note_on', channel=7, note=64, velocity=0, time=35),
    Message('note_on', channel=7, note=60, velocity=0, time=0),
    Message('note_on', channel=7, note=55, velocity=0, time=0),
    Message('note_on', channel=7, note=64, velocity=127, time=29),
    Message('note_on', channel=7, note=59, velocity=127, time=0),
    Message('note_on', channel=7, note=55, velocity=127, time=0),
    Message('note_on', channel=7, note=64, velocity=0, time=577),
    Message('note_on', channel=7, note=59, velocity=0, time=0),
    Message('note_on', channel=7, note=55, velocity=0, time=0),
    Message('note_on', channel=7, note=64, velocity=127, time=63),
    Message('note_on', channel=7, note=59, velocity=127, time=0),
    Message('note_on', channel=7, note=55, velocity=127, time=0),
    Message('note_on', channel=7, note=64, velocity=0, time=33),
    Message('note_on', channel=7, note=59, velocity=0, time=0),
    Message('note_on', channel=7, note=55, velocity=0, time=0),
    Message('note_on', channel=7, note=64, velocity=127, time=31),
    Message('note_on', channel=7, note=59, velocity=127, time=0),
    Message('note_on', channel=7, note=55, velocity=127, time=0),
    Message('note_on', channel=7, note=64, velocity=0, time=35),
    Message('note_on', channel=7, note=59, velocity=0, time=0),
    Message('note_on', channel=7, note=55, velocity=0, time=0),
    Message('note_on', channel=7, note=64, velocity=127, time=29),
    Message('note_on', channel=7, note=62, velocity=127, time=0),
    Message('note_on', channel=7, note=58, velocity=127, time=0),
    Message('note_on', channel=7, note=67, velocity=127, time=0),
    Message('note_on', channel=7, note=64, velocity=0, time=577),
    Message('note_on', channel=7, note=62, velocity=0, time=0),
    Message('note_on', channel=7, note=58, velocity=0, time=0),
    Message('note_on', channel=7, note=67, velocity=0, time=0),
    Message('note_on', channel=7, note=64, velocity=127, time=63),
    Message('note_on', channel=7, note=62, velocity=127, time=0),
    Message('note_on', channel=7, note=58, velocity=127, time=0),
    Message('note_on', channel=7, note=67, velocity=127, time=0),
    Message('note_on', channel=7, note=64, velocity=0, time=33),
    Message('note_on', channel=7, note=62, velocity=0, time=0),
    Message('note_on', channel=7, note=58, velocity=0, time=0),
    Message('note_on', channel=7, note=67, velocity=0, time=0),
    Message('note_on', channel=7, note=64, velocity=127, time=31),
    Message('note_on', channel=7, note=62, velocity=127, time=0),
    Message('note_on', channel=7, note=58, velocity=127, time=0),
    Message('note_on', channel=7, note=67, velocity=127, time=0),
    Message('note_on', channel=7, note=64, velocity=0, time=35),
    Message('note_on', channel=7, note=62, velocity=0, time=0),
    Message('note_on', channel=7, note=58, velocity=0, time=0),
    Message('note_on', channel=7, note=67, velocity=0, time=0),
    Message('note_on', channel=7, note=67, velocity=127, time=29),
    Message('note_on', channel=7, note=64, velocity=127, time=0),
    Message('note_on', channel=7, note=61, velocity=127, time=0),
    Message('note_on', channel=7, note=69, velocity=127, time=0),
    Message('note_on', channel=7, note=67, velocity=0, time=577),
    Message('note_on', channel=7, note=64, velocity=0, time=0),
    Message('note_on', channel=7, note=61, velocity=0, time=0),
    Message('note_on', channel=7, note=69, velocity=0, time=0),
    Message('note_on', channel=7, note=67, velocity=127, time=63),
    Message('note_on', channel=7, note=64, velocity=127, time=0),
    Message('note_on', channel=7, note=61, velocity=127, time=0),
    Message('note_on', channel=7, note=69, velocity=127, time=0),
    Message('note_on', channel=7, note=67, velocity=0, time=33),
    Message('note_on', channel=7, note=64, velocity=0, time=0),
    Message('note_on', channel=7, note=61, velocity=0, time=0),
    Message('note_on', channel=7, note=69, velocity=0, time=0),
    Message('note_on', channel=7, note=67, velocity=127, time=31),
    Message('note_on', channel=7, note=64, velocity=127, time=0),
    Message('note_on', channel=7, note=61, velocity=127, time=0),
    Message('note_on', channel=7, note=69, velocity=127, time=0),
    Message('note_on', channel=7, note=67, velocity=0, time=35),
    Message('note_on', channel=7, note=64, velocity=0, time=0),
    Message('note_on', channel=7, note=61, velocity=0, time=0),
    Message('note_on', channel=7, note=69, velocity=0, time=0),
    Message('note_on', channel=7, note=65, velocity=127, time=29),
    Message('note_on', channel=7, note=62, velocity=127, time=0),
    Message('note_on', channel=7, note=57, velocity=127, time=0),
    Message('note_on', channel=7, note=65, velocity=0, time=577),
    Message('note_on', channel=7, note=62, velocity=0, time=0),
    Message('note_on', channel=7, note=57, velocity=0, time=0),
    Message('note_on', channel=7, note=65, velocity=127, time=63),
    Message('note_on', channel=7, note=62, velocity=127, time=0),
    Message('note_on', channel=7, note=57, velocity=127, time=0),
    Message('note_on', channel=7, note=65, velocity=0, time=33),
    Message('note_on', channel=7, note=62, velocity=0, time=0),
    Message('note_on', channel=7, note=57, velocity=0, time=0),
    Message('note_on', channel=7, note=65, velocity=127, time=31),
    Message('note_on', channel=7, note=62, velocity=127, time=0),
    Message('note_on', channel=7, note=57, velocity=127, time=0),
    Message('note_on', channel=7, note=65, velocity=0, time=35),
    Message('note_on', channel=7, note=62, velocity=0, time=0),
    Message('note_on', channel=7, note=57, velocity=0, time=0),
    Message('note_on', channel=7, note=65, velocity=127, time=29),
    Message('note_on', channel=7, note=62, velocity=127, time=0),
    Message('note_on', channel=7, note=60, velocity=127, time=0),
    Message('note_on', channel=7, note=69, velocity=127, time=0),
    Message('note_on', channel=7, note=65, velocity=0, time=577),
    Message('note_on', channel=7, note=62, velocity=0, time=0),
    Message('note_on', channel=7, note=60, velocity=0, time=0),
    Message('note_on', channel=7, note=69, velocity=0, time=0),
    Message('note_on', channel=7, note=65, velocity=127, time=63),
    Message('note_on', channel=7, note=62, velocity=127, time=0),
    Message('note_on', channel=7, note=60, velocity=127, time=0),
    Message('note_on', channel=7, note=69, velocity=127, time=0),
    Message('note_on', channel=7, note=65, velocity=0, time=33),
    Message('note_on', channel=7, note=62, velocity=0, time=0),
    Message('note_on', channel=7, note=60, velocity=0, time=0),
    Message('note_on', channel=7, note=69, velocity=0, time=0),
    Message('note_on', channel=7, note=65, velocity=127, time=31),
    Message('note_on', channel=7, note=62, velocity=127, time=0),
    Message('note_on', channel=7, note=60, velocity=127, time=0),
    Message('note_on', channel=7, note=69, velocity=127, time=0),
    Message('note_on', channel=7, note=65, velocity=0, time=35),
    Message('note_on', channel=7, note=62, velocity=0, time=0),
    Message('note_on', channel=7, note=60, velocity=0, time=0),
    Message('note_on', channel=7, note=69, velocity=0, time=0),
    Message('note_on', channel=7, note=65, velocity=127, time=29),
    Message('note_on', channel=7, note=62, velocity=127, time=0),
    Message('note_on', channel=7, note=59, velocity=127, time=0),
    Message('note_on', channel=7, note=67, velocity=127, time=0),
    Message('note_on', channel=7, note=65, velocity=0, time=577),
    Message('note_on', channel=7, note=62, velocity=0, time=0),
    Message('note_on', channel=7, note=59, velocity=0, time=0),
    Message('note_on', channel=7, note=67, velocity=0, time=0),
    Message('note_on', channel=7, note=65, velocity=127, time=63),
    Message('note_on', channel=7, note=62, velocity=127, time=0),
    Message('note_on', channel=7, note=59, velocity=127, time=0),
    Message('note_on', channel=7, note=67, velocity=127, time=0),
    Message('note_on', channel=7, note=65, velocity=0, time=33),
    Message('note_on', channel=7, note=62, velocity=0, time=0),
    Message('note_on', channel=7, note=59, velocity=0, time=0),
    Message('note_on', channel=7, note=67, velocity=0, time=0),
    Message('note_on', channel=7, note=65, velocity=127, time=31),
    Message('note_on', channel=7, note=62, velocity=127, time=0),
    Message('note_on', channel=7, note=59, velocity=127, time=0),
    Message('note_on', channel=7, note=67, velocity=127, time=0),
    Message('note_on', channel=7, note=65, velocity=0, time=35),
    Message('note_on', channel=7, note=62, velocity=0, time=0),
    Message('note_on', channel=7, note=59, velocity=0, time=0),
    Message('note_on', channel=7, note=67, velocity=0, time=0),
    Message('note_on', channel=7, note=64, velocity=127, time=29),
    Message('note_on', channel=7, note=60, velocity=127, time=0),
    Message('note_on', channel=7, note=55, velocity=127, time=0),
    Message('note_on', channel=7, note=64, velocity=0, time=577),
    Message('note_on', channel=7, note=60, velocity=0, time=0),
    Message('note_on', channel=7, note=55, velocity=0, time=0),
    Message('note_on', channel=7, note=64, velocity=127, time=63),
    Message('note_on', channel=7, note=60, velocity=127, time=0),
    Message('note_on', channel=7, note=55, velocity=127, time=0),
    Message('note_on', channel=7, note=64, velocity=0, time=33),
    Message('note_on', channel=7, note=60, velocity=0, time=0),
    Message('note_on', channel=7, note=55, velocity=0, time=0),
    Message('note_on', channel=7, note=64, velocity=127, time=31),
    Message('note_on', channel=7, note=60, velocity=127, time=0),
    Message('note_on', channel=7, note=55, velocity=127, time=0),
    Message('note_on', channel=7, note=64, velocity=0, time=35),
    Message('note_on', channel=7, note=60, velocity=0, time=0),
    Message('note_on', channel=7, note=55, velocity=0, time=0),
    Message('note_on', channel=7, note=64, velocity=127, time=32),
    Message('note_on', channel=7, note=60, velocity=127, time=0),
    Message('note_on', channel=7, note=55, velocity=127, time=0),
    Message('note_on', channel=7, note=64, velocity=0, time=347),
    Message('note_on', channel=7, note=60, velocity=0, time=0),
    Message('note_on', channel=7, note=55, velocity=0, time=0),
    Message('note_on', channel=7, note=64, velocity=127, time=34),
    Message('note_on', channel=7, note=62, velocity=127, time=0),
    Message('note_on', channel=7, note=59, velocity=127, time=0),
    Message('note_on', channel=7, note=67, velocity=127, time=0),
    Message('note_on', channel=7, note=64, velocity=0, time=171),
    Message('note_on', channel=7, note=62, velocity=0, time=0),
    Message('note_on', channel=7, note=59, velocity=0, time=0),
    Message('note_on', channel=7, note=67, velocity=0, time=0),
    Message('note_on', channel=7, note=64, velocity=127, time=21),
    Message('note_on', channel=7, note=62, velocity=127, time=0),
    Message('note_on', channel=7, note=59, velocity=127, time=0),
    Message('note_on', channel=7, note=67, velocity=127, time=0),
    Message('note_on', channel=7, note=64, velocity=0, time=30),
    Message('note_on', channel=7, note=62, velocity=0, time=0),
    Message('note_on', channel=7, note=59, velocity=0, time=0),
    Message('note_on', channel=7, note=67, velocity=0, time=0),
    Message('note_on', channel=7, note=64, velocity=127, time=34),
    Message('note_on', channel=7, note=62, velocity=127, time=0),
    Message('note_on', channel=7, note=59, velocity=127, time=0),
    Message('note_on', channel=7, note=67, velocity=127, time=0),
    Message('note_on', channel=7, note=64, velocity=0, time=27),
    Message('note_on', channel=7, note=62, velocity=0, time=0),
    Message('note_on', channel=7, note=59, velocity=0, time=0),
    Message('note_on', channel=7, note=67, velocity=0, time=0),
    Message('note_on', channel=7, note=64, velocity=127, time=37),
    Message('note_on', channel=7, note=62, velocity=127, time=0),
    Message('note_on', channel=7, note=59, velocity=127, time=0),
    Message('note_on', channel=7, note=67, velocity=127, time=0),
    Message('note_on', channel=7, note=64, velocity=0, time=35),
    Message('note_on', channel=7, note=62, velocity=0, time=0),
    Message('note_on', channel=7, note=59, velocity=0, time=0),
    Message('note_on', channel=7, note=67, velocity=0, time=0),
    Message('note_on', channel=7, note=64, velocity=127, time=29),
    Message('note_on', channel=7, note=60, velocity=127, time=0),
    Message('note_on', channel=7, note=58, velocity=127, time=0),
    Message('note_on', channel=7, note=67, velocity=127, time=0),
    Message('note_on', channel=7, note=64, velocity=0, time=577),
    Message('note_on', channel=7, note=60, velocity=0, time=0),
    Message('note_on', channel=7, note=58, velocity=0, time=0),
    Message('note_on', channel=7, note=67, velocity=0, time=0),
    Message('note_on', channel=7, note=64, velocity=127, time=63),
    Message('note_on', channel=7, note=60, velocity=127, time=0),
    Message('note_on', channel=7, note=58, velocity=127, time=0),
    Message('note_on', channel=7, note=67, velocity=127, time=0),
    Message('note_on', channel=7, note=64, velocity=0, time=33),
    Message('note_on', channel=7, note=60, velocity=0, time=0),
    Message('note_on', channel=7, note=58, velocity=0, time=0),
    Message('note_on', channel=7, note=67, velocity=0, time=0),
    Message('note_on', channel=7, note=64, velocity=127, time=31),
    Message('note_on', channel=7, note=60, velocity=127, time=0),
    Message('note_on', channel=7, note=58, velocity=127, time=0),
    Message('note_on', channel=7, note=67, velocity=127, time=0),
    Message('note_on', channel=7, note=64, velocity=0, time=35),
    Message('note_on', channel=7, note=60, velocity=0, time=0),
    Message('note_on', channel=7, note=58, velocity=0, time=0),
    Message('note_on', channel=7, note=67, velocity=0, time=0),
    Message('note_on', channel=7, note=65, velocity=127, time=29),
    Message('note_on', channel=7, note=60, velocity=127, time=0),
    Message('note_on', channel=7, note=57, velocity=127, time=0),
    Message('note_on', channel=7, note=65, velocity=0, time=577),
    Message('note_on', channel=7, note=60, velocity=0, time=0),
    Message('note_on', channel=7, note=57, velocity=0, time=0),
    Message('note_on', channel=7, note=65, velocity=127, time=63),
    Message('note_on', channel=7, note=60, velocity=127, time=0),
    Message('note_on', channel=7, note=57, velocity=127, time=0),
    Message('note_on', channel=7, note=65, velocity=0, time=33),
    Message('note_on', channel=7, note=60, velocity=0, time=0),
    Message('note_on', channel=7, note=57, velocity=0, time=0),
    Message('note_on', channel=7, note=65, velocity=127, time=31),
    Message('note_on', channel=7, note=60, velocity=127, time=0),
    Message('note_on', channel=7, note=57, velocity=127, time=0),
    Message('note_on', channel=7, note=65, velocity=0, time=35),
    Message('note_on', channel=7, note=60, velocity=0, time=0),
    Message('note_on', channel=7, note=57, velocity=0, time=0),
    Message('note_on', channel=7, note=65, velocity=127, time=29),
    Message('note_on', channel=7, note=60, velocity=127, time=0),
    Message('note_on', channel=7, note=56, velocity=127, time=0),
    Message('note_on', channel=7, note=65, velocity=0, time=577),
    Message('note_on', channel=7, note=60, velocity=0, time=0),
    Message('note_on', channel=7, note=56, velocity=0, time=0),
    Message('note_on', channel=7, note=65, velocity=127, time=63),
    Message('note_on', channel=7, note=60, velocity=127, time=0),
    Message('note_on', channel=7, note=56, velocity=127, time=0),
    Message('note_on', channel=7, note=65, velocity=0, time=33),
    Message('note_on', channel=7, note=60, velocity=0, time=0),
    Message('note_on', channel=7, note=56, velocity=0, time=0),
    Message('note_on', channel=7, note=65, velocity=127, time=31),
    Message('note_on', channel=7, note=60, velocity=127, time=0),
    Message('note_on', channel=7, note=56, velocity=127, time=0),
    Message('note_on', channel=7, note=65, velocity=0, time=35),
    Message('note_on', channel=7, note=60, velocity=0, time=0),
    Message('note_on', channel=7, note=56, velocity=0, time=0),
    Message('note_on', channel=7, note=64, velocity=127, time=29),
    Message('note_on', channel=7, note=60, velocity=127, time=0),
    Message('note_on', channel=7, note=55, velocity=127, time=0),
    Message('note_on', channel=7, note=64, velocity=0, time=577),
    Message('note_on', channel=7, note=60, velocity=0, time=0),
    Message('note_on', channel=7, note=55, velocity=0, time=0),
    Message('note_on', channel=7, note=64, velocity=127, time=63),
    Message('note_on', channel=7, note=60, velocity=127, time=0),
    Message('note_on', channel=7, note=55, velocity=127, time=0),
    Message('note_on', channel=7, note=64, velocity=0, time=33),
    Message('note_on', channel=7, note=60, velocity=0, time=0),
    Message('note_on', channel=7, note=55, velocity=0, time=0),
    Message('note_on', channel=7, note=64, velocity=127, time=31),
    Message('note_on', channel=7, note=60, velocity=127, time=0),
    Message('note_on', channel=7, note=55, velocity=127, time=0),
    Message('note_on', channel=7, note=64, velocity=0, time=35),
    Message('note_on', channel=7, note=60, velocity=0, time=0),
    Message('note_on', channel=7, note=55, velocity=0, time=0),
    Message('note_on', channel=7, note=65, velocity=127, time=29),
    Message('note_on', channel=7, note=62, velocity=127, time=0),
    Message('note_on', channel=7, note=59, velocity=127, time=0),
    Message('note_on', channel=7, note=67, velocity=127, time=0),
    Message('note_on', channel=7, note=65, velocity=0, time=577),
    Message('note_on', channel=7, note=62, velocity=0, time=0),
    Message('note_on', channel=7, note=59, velocity=0, time=0),
    Message('note_on', channel=7, note=67, velocity=0, time=0),
    Message('note_on', channel=7, note=65, velocity=127, time=63),
    Message('note_on', channel=7, note=62, velocity=127, time=0),
    Message('note_on', channel=7, note=59, velocity=127, time=0),
    Message('note_on', channel=7, note=67, velocity=127, time=0),
    Message('note_on', channel=7, note=65, velocity=0, time=33),
    Message('note_on', channel=7, note=62, velocity=0, time=0),
    Message('note_on', channel=7, note=59, velocity=0, time=0),
    Message('note_on', channel=7, note=67, velocity=0, time=0),
    Message('note_on', channel=7, note=65, velocity=127, time=31),
    Message('note_on', channel=7, note=62, velocity=127, time=0),
    Message('note_on', channel=7, note=59, velocity=127, time=0),
    Message('note_on', channel=7, note=67, velocity=127, time=0),
    Message('note_on', channel=7, note=65, velocity=0, time=35),
    Message('note_on', channel=7, note=62, velocity=0, time=0),
    Message('note_on', channel=7, note=59, velocity=0, time=0),
    Message('note_on', channel=7, note=67, velocity=0, time=0),
    Message('note_on', channel=7, note=65, velocity=127, time=29),
    Message('note_on', channel=7, note=62, velocity=127, time=0),
    Message('note_on', channel=7, note=60, velocity=127, time=0),
    Message('note_on', channel=7, note=69, velocity=127, time=0),
    Message('note_on', channel=7, note=65, velocity=0, time=577),
    Message('note_on', channel=7, note=62, velocity=0, time=0),
    Message('note_on', channel=7, note=60, velocity=0, time=0),
    Message('note_on', channel=7, note=69, velocity=0, time=0),
    Message('note_on', channel=7, note=65, velocity=127, time=63),
    Message('note_on', channel=7, note=62, velocity=127, time=0),
    Message('note_on', channel=7, note=60, velocity=127, time=0),
    Message('note_on', channel=7, note=69, velocity=127, time=0),
    Message('note_on', channel=7, note=65, velocity=0, time=33),
    Message('note_on', channel=7, note=62, velocity=0, time=0),
    Message('note_on', channel=7, note=60, velocity=0, time=0),
    Message('note_on', channel=7, note=69, velocity=0, time=0),
    Message('note_on', channel=7, note=65, velocity=127, time=31),
    Message('note_on', channel=7, note=62, velocity=127, time=0),
    Message('note_on', channel=7, note=60, velocity=127, time=0),
    Message('note_on', channel=7, note=69, velocity=127, time=0),
    Message('note_on', channel=7, note=65, velocity=0, time=35),
    Message('note_on', channel=7, note=62, velocity=0, time=0),
    Message('note_on', channel=7, note=60, velocity=0, time=0),
    Message('note_on', channel=7, note=69, velocity=0, time=0),
    Message('note_on', channel=7, note=64, velocity=127, time=29),
    Message('note_on', channel=7, note=60, velocity=127, time=0),
    Message('note_on', channel=7, note=55, velocity=127, time=0),
    Message('note_on', channel=7, note=64, velocity=0, time=577),
    Message('note_on', channel=7, note=60, velocity=0, time=0),
    Message('note_on', channel=7, note=55, velocity=0, time=0),
    Message('note_on', channel=7, note=64, velocity=127, time=63),
    Message('note_on', channel=7, note=60, velocity=127, time=0),
    Message('note_on', channel=7, note=55, velocity=127, time=0),
    Message('note_on', channel=7, note=64, velocity=0, time=33),
    Message('note_on', channel=7, note=60, velocity=0, time=0),
    Message('note_on', channel=7, note=55, velocity=0, time=0),
    Message('note_on', channel=7, note=64, velocity=127, time=31),
    Message('note_on', channel=7, note=60, velocity=127, time=0),
    Message('note_on', channel=7, note=55, velocity=127, time=0),
    Message('note_on', channel=7, note=64, velocity=0, time=35),
    Message('note_on', channel=7, note=60, velocity=0, time=0),
    Message('note_on', channel=7, note=55, velocity=0, time=0),
    Message('note_on', channel=7, note=64, velocity=127, time=29),
    Message('note_on', channel=7, note=60, velocity=127, time=0),
    Message('note_on', channel=7, note=55, velocity=127, time=0),
    Message('note_on', channel=7, note=64, velocity=0, time=577),
    Message('note_on', channel=7, note=60, velocity=0, time=0),
    Message('note_on', channel=7, note=55, velocity=0, time=0),
    Message('note_on', channel=7, note=64, velocity=127, time=63),
    Message('note_on', channel=7, note=60, velocity=127, time=0),
    Message('note_on', channel=7, note=55, velocity=127, time=0),
    Message('note_on', channel=7, note=64, velocity=0, time=33),
    Message('note_on', channel=7, note=60, velocity=0, time=0),
    Message('note_on', channel=7, note=55, velocity=0, time=0),
    Message('note_on', channel=7, note=64, velocity=127, time=31),
    Message('note_on', channel=7, note=60, velocity=127, time=0),
    Message('note_on', channel=7, note=55, velocity=127, time=0),
    Message('note_on', channel=7, note=64, velocity=0, time=35),
    Message('note_on', channel=7, note=60, velocity=0, time=0),
    Message('note_on', channel=7, note=55, velocity=0, time=0),
    Message('note_on', channel=7, note=64, velocity=127, time=29),
    Message('note_on', channel=7, note=59, velocity=127, time=0),
    Message('note_on', channel=7, note=55, velocity=127, time=0),
    Message('note_on', channel=7, note=64, velocity=0, time=577),
    Message('note_on', channel=7, note=59, velocity=0, time=0),
    Message('note_on', channel=7, note=55, velocity=0, time=0),
    Message('note_on', channel=7, note=64, velocity=127, time=63),
    Message('note_on', channel=7, note=59, velocity=127, time=0),
    Message('note_on', channel=7, note=55, velocity=127, time=0),
    Message('note_on', channel=7, note=64, velocity=0, time=33),
    Message('note_on', channel=7, note=59, velocity=0, time=0),
    Message('note_on', channel=7, note=55, velocity=0, time=0),
    Message('note_on', channel=7, note=64, velocity=127, time=31),
    Message('note_on', channel=7, note=59, velocity=127, time=0),
    Message('note_on', channel=7, note=55, velocity=127, time=0),
    Message('note_on', channel=7, note=64, velocity=0, time=35),
    Message('note_on', channel=7, note=59, velocity=0, time=0),
    Message('note_on', channel=7, note=55, velocity=0, time=0),
    Message('note_on', channel=7, note=70, velocity=127, time=29),
    Message('note_on', channel=7, note=67, velocity=127, time=0),
    Message('note_on', channel=7, note=64, velocity=127, time=0),
    Message('note_on', channel=7, note=74, velocity=127, time=0),
    Message('note_on', channel=7, note=70, velocity=0, time=577),
    Message('note_on', channel=7, note=67, velocity=0, time=0),
    Message('note_on', channel=7, note=64, velocity=0, time=0),
    Message('note_on', channel=7, note=74, velocity=0, time=0),
    Message('note_on', channel=7, note=70, velocity=127, time=63),
    Message('note_on', channel=7, note=67, velocity=127, time=0),
    Message('note_on', channel=7, note=64, velocity=127, time=0),
    Message('note_on', channel=7, note=74, velocity=127, time=0),
    Message('note_on', channel=7, note=70, velocity=0, time=33),
    Message('note_on', channel=7, note=67, velocity=0, time=0),
    Message('note_on', channel=7, note=64, velocity=0, time=0),
    Message('note_on', channel=7, note=74, velocity=0, time=0),
    Message('note_on', channel=7, note=70, velocity=127, time=31),
    Message('note_on', channel=7, note=67, velocity=127, time=0),
    Message('note_on', channel=7, note=64, velocity=127, time=0),
    Message('note_on', channel=7, note=74, velocity=127, time=0),
    Message('note_on', channel=7, note=70, velocity=0, time=35),
    Message('note_on', channel=7, note=67, velocity=0, time=0),
    Message('note_on', channel=7, note=64, velocity=0, time=0),
    Message('note_on', channel=7, note=74, velocity=0, time=0),
    Message('note_on', channel=7, note=67, velocity=127, time=29),
    Message('note_on', channel=7, note=64, velocity=127, time=0),
    Message('note_on', channel=7, note=61, velocity=127, time=0),
    Message('note_on', channel=7, note=69, velocity=127, time=0),
    Message('note_on', channel=7, note=67, velocity=0, time=577),
    Message('note_on', channel=7, note=64, velocity=0, time=0),
    Message('note_on', channel=7, note=61, velocity=0, time=0),
    Message('note_on', channel=7, note=69, velocity=0, time=0),
    Message('note_on', channel=7, note=67, velocity=127, time=63),
    Message('note_on', channel=7, note=64, velocity=127, time=0),
    Message('note_on', channel=7, note=61, velocity=127, time=0),
    Message('note_on', channel=7, note=69, velocity=127, time=0),
    Message('note_on', channel=7, note=67, velocity=0, time=33),
    Message('note_on', channel=7, note=64, velocity=0, time=0),
    Message('note_on', channel=7, note=61, velocity=0, time=0),
    Message('note_on', channel=7, note=69, velocity=0, time=0),
    Message('note_on', channel=7, note=67, velocity=127, time=31),
    Message('note_on', channel=7, note=64, velocity=127, time=0),
    Message('note_on', channel=7, note=61, velocity=127, time=0),
    Message('note_on', channel=7, note=69, velocity=127, time=0),
    Message('note_on', channel=7, note=67, velocity=0, time=35),
    Message('note_on', channel=7, note=64, velocity=0, time=0),
    Message('note_on', channel=7, note=61, velocity=0, time=0),
    Message('note_on', channel=7, note=69, velocity=0, time=0),
    Message('note_on', channel=7, note=65, velocity=127, time=29),
    Message('note_on', channel=7, note=62, velocity=127, time=0),
    Message('note_on', channel=7, note=57, velocity=127, time=0),
    Message('note_on', channel=7, note=65, velocity=0, time=577),
    Message('note_on', channel=7, note=62, velocity=0, time=0),
    Message('note_on', channel=7, note=57, velocity=0, time=0),
    Message('note_on', channel=7, note=65, velocity=127, time=63),
    Message('note_on', channel=7, note=62, velocity=127, time=0),
    Message('note_on', channel=7, note=57, velocity=127, time=0),
    Message('note_on', channel=7, note=65, velocity=0, time=33),
    Message('note_on', channel=7, note=62, velocity=0, time=0),
    Message('note_on', channel=7, note=57, velocity=0, time=0),
    Message('note_on', channel=7, note=65, velocity=127, time=31),
    Message('note_on', channel=7, note=62, velocity=127, time=0),
    Message('note_on', channel=7, note=57, velocity=127, time=0),
    Message('note_on', channel=7, note=65, velocity=0, time=35),
    Message('note_on', channel=7, note=62, velocity=0, time=0),
    Message('note_on', channel=7, note=57, velocity=0, time=0),
    Message('note_on', channel=7, note=65, velocity=127, time=29),
    Message('note_on', channel=7, note=62, velocity=127, time=0),
    Message('note_on', channel=7, note=60, velocity=127, time=0),
    Message('note_on', channel=7, note=69, velocity=127, time=0),
    Message('note_on', channel=7, note=65, velocity=0, time=577),
    Message('note_on', channel=7, note=62, velocity=0, time=0),
    Message('note_on', channel=7, note=60, velocity=0, time=0),
    Message('note_on', channel=7, note=69, velocity=0, time=0),
    Message('note_on', channel=7, note=65, velocity=127, time=63),
    Message('note_on', channel=7, note=62, velocity=127, time=0),
    Message('note_on', channel=7, note=60, velocity=127, time=0),
    Message('note_on', channel=7, note=69, velocity=127, time=0),
    Message('note_on', channel=7, note=65, velocity=0, time=33),
    Message('note_on', channel=7, note=62, velocity=0, time=0),
    Message('note_on', channel=7, note=60, velocity=0, time=0),
    Message('note_on', channel=7, note=69, velocity=0, time=0),
    Message('note_on', channel=7, note=65, velocity=127, time=31),
    Message('note_on', channel=7, note=62, velocity=127, time=0),
    Message('note_on', channel=7, note=60, velocity=127, time=0),
    Message('note_on', channel=7, note=69, velocity=127, time=0),
    Message('note_on', channel=7, note=65, velocity=0, time=35),
    Message('note_on', channel=7, note=62, velocity=0, time=0),
    Message('note_on', channel=7, note=60, velocity=0, time=0),
    Message('note_on', channel=7, note=69, velocity=0, time=0),
    Message('note_on', channel=7, note=65, velocity=127, time=29),
    Message('note_on', channel=7, note=62, velocity=127, time=0),
    Message('note_on', channel=7, note=59, velocity=127, time=0),
    Message('note_on', channel=7, note=67, velocity=127, time=0),
    Message('note_on', channel=7, note=65, velocity=0, time=577),
    Message('note_on', channel=7, note=62, velocity=0, time=0),
    Message('note_on', channel=7, note=59, velocity=0, time=0),
    Message('note_on', channel=7, note=67, velocity=0, time=0),
    Message('note_on', channel=7, note=65, velocity=127, time=63),
    Message('note_on', channel=7, note=62, velocity=127, time=0),
    Message('note_on', channel=7, note=59, velocity=127, time=0),
    Message('note_on', channel=7, note=67, velocity=127, time=0),
    Message('note_on', channel=7, note=65, velocity=0, time=33),
    Message('note_on', channel=7, note=62, velocity=0, time=0),
    Message('note_on', channel=7, note=59, velocity=0, time=0),
    Message('note_on', channel=7, note=67, velocity=0, time=0),
    Message('note_on', channel=7, note=65, velocity=127, time=31),
    Message('note_on', channel=7, note=62, velocity=127, time=0),
    Message('note_on', channel=7, note=59, velocity=127, time=0),
    Message('note_on', channel=7, note=67, velocity=127, time=0),
    Message('note_on', channel=7, note=65, velocity=0, time=35),
    Message('note_on', channel=7, note=62, velocity=0, time=0),
    Message('note_on', channel=7, note=59, velocity=0, time=0),
    Message('note_on', channel=7, note=67, velocity=0, time=0),
    Message('note_on', channel=7, note=64, velocity=127, time=29),
    Message('note_on', channel=7, note=60, velocity=127, time=0),
    Message('note_on', channel=7, note=55, velocity=127, time=0),
    Message('note_on', channel=7, note=64, velocity=0, time=577),
    Message('note_on', channel=7, note=60, velocity=0, time=0),
    Message('note_on', channel=7, note=55, velocity=0, time=0),
    Message('note_on', channel=7, note=64, velocity=127, time=63),
    Message('note_on', channel=7, note=60, velocity=127, time=0),
    Message('note_on', channel=7, note=55, velocity=127, time=0),
    Message('note_on', channel=7, note=64, velocity=0, time=33),
    Message('note_on', channel=7, note=60, velocity=0, time=0),
    Message('note_on', channel=7, note=55, velocity=0, time=0),
    Message('note_on', channel=7, note=64, velocity=127, time=31),
    Message('note_on', channel=7, note=60, velocity=127, time=0),
    Message('note_on', channel=7, note=55, velocity=127, time=0),
    Message('note_on', channel=7, note=64, velocity=0, time=35),
    Message('note_on', channel=7, note=60, velocity=0, time=0),
    Message('note_on', channel=7, note=55, velocity=0, time=0),
    Message('note_on', channel=7, note=64, velocity=127, time=32),
    Message('note_on', channel=7, note=60, velocity=127, time=0),
    Message('note_on', channel=7, note=55, velocity=127, time=0),
    Message('note_on', channel=7, note=64, velocity=0, time=347),
    Message('note_on', channel=7, note=60, velocity=0, time=0),
    Message('note_on', channel=7, note=55, velocity=0, time=0),
    Message('note_on', channel=7, note=64, velocity=127, time=34),
    Message('note_on', channel=7, note=62, velocity=127, time=0),
    Message('note_on', channel=7, note=59, velocity=127, time=0),
    Message('note_on', channel=7, note=67, velocity=127, time=0),
    Message('note_on', channel=7, note=64, velocity=0, time=171),
    Message('note_on', channel=7, note=62, velocity=0, time=0),
    Message('note_on', channel=7, note=59, velocity=0, time=0),
    Message('note_on', channel=7, note=67, velocity=0, time=0),
    Message('note_on', channel=7, note=64, velocity=127, time=21),
    Message('note_on', channel=7, note=62, velocity=127, time=0),
    Message('note_on', channel=7, note=59, velocity=127, time=0),
    Message('note_on', channel=7, note=67, velocity=127, time=0),
    Message('note_on', channel=7, note=64, velocity=0, time=30),
    Message('note_on', channel=7, note=62, velocity=0, time=0),
    Message('note_on', channel=7, note=59, velocity=0, time=0),
    Message('note_on', channel=7, note=67, velocity=0, time=0),
    Message('note_on', channel=7, note=64, velocity=127, time=34),
    Message('note_on', channel=7, note=62, velocity=127, time=0),
    Message('note_on', channel=7, note=59, velocity=127, time=0),
    Message('note_on', channel=7, note=67, velocity=127, time=0),
    Message('note_on', channel=7, note=64, velocity=0, time=27),
    Message('note_on', channel=7, note=62, velocity=0, time=0),
    Message('note_on', channel=7, note=59, velocity=0, time=0),
    Message('note_on', channel=7, note=67, velocity=0, time=0),
    Message('note_on', channel=7, note=64, velocity=127, time=37),
    Message('note_on', channel=7, note=62, velocity=127, time=0),
    Message('note_on', channel=7, note=59, velocity=127, time=0),
    Message('note_on', channel=7, note=67, velocity=127, time=0),
    Message('note_on', channel=7, note=64, velocity=0, time=35),
    Message('note_on', channel=7, note=62, velocity=0, time=0),
    Message('note_on', channel=7, note=59, velocity=0, time=0),
    Message('note_on', channel=7, note=67, velocity=0, time=0),
    Message('note_on', channel=7, note=64, velocity=127, time=29),
    Message('note_on', channel=7, note=60, velocity=127, time=0),
    Message('note_on', channel=7, note=58, velocity=127, time=0),
    Message('note_on', channel=7, note=67, velocity=127, time=0),
    Message('note_on', channel=7, note=64, velocity=0, time=577),
    Message('note_on', channel=7, note=60, velocity=0, time=0),
    Message('note_on', channel=7, note=58, velocity=0, time=0),
    Message('note_on', channel=7, note=67, velocity=0, time=0),
    Message('note_on', channel=7, note=64, velocity=127, time=63),
    Message('note_on', channel=7, note=60, velocity=127, time=0),
    Message('note_on', channel=7, note=58, velocity=127, time=0),
    Message('note_on', channel=7, note=67, velocity=127, time=0),
    Message('note_on', channel=7, note=64, velocity=0, time=33),
    Message('note_on', channel=7, note=60, velocity=0, time=0),
    Message('note_on', channel=7, note=58, velocity=0, time=0),
    Message('note_on', channel=7, note=67, velocity=0, time=0),
    Message('note_on', channel=7, note=64, velocity=127, time=31),
    Message('note_on', channel=7, note=60, velocity=127, time=0),
    Message('note_on', channel=7, note=58, velocity=127, time=0),
    Message('note_on', channel=7, note=67, velocity=127, time=0),
    Message('note_on', channel=7, note=64, velocity=0, time=35),
    Message('note_on', channel=7, note=60, velocity=0, time=0),
    Message('note_on', channel=7, note=58, velocity=0, time=0),
    Message('note_on', channel=7, note=67, velocity=0, time=0),
    Message('note_on', channel=7, note=65, velocity=127, time=29),
    Message('note_on', channel=7, note=60, velocity=127, time=0),
    Message('note_on', channel=7, note=57, velocity=127, time=0),
    Message('note_on', channel=7, note=65, velocity=0, time=577),
    Message('note_on', channel=7, note=60, velocity=0, time=0),
    Message('note_on', channel=7, note=57, velocity=0, time=0),
    Message('note_on', channel=7, note=65, velocity=127, time=63),
    Message('note_on', channel=7, note=60, velocity=127, time=0),
    Message('note_on', channel=7, note=57, velocity=127, time=0),
    Message('note_on', channel=7, note=65, velocity=0, time=33),
    Message('note_on', channel=7, note=60, velocity=0, time=0),
    Message('note_on', channel=7, note=57, velocity=0, time=0),
    Message('note_on', channel=7, note=65, velocity=127, time=31),
    Message('note_on', channel=7, note=60, velocity=127, time=0),
    Message('note_on', channel=7, note=57, velocity=127, time=0),
    Message('note_on', channel=7, note=65, velocity=0, time=35),
    Message('note_on', channel=7, note=60, velocity=0, time=0),
    Message('note_on', channel=7, note=57, velocity=0, time=0),
    Message('note_on', channel=7, note=65, velocity=127, time=29),
    Message('note_on', channel=7, note=60, velocity=127, time=0),
    Message('note_on', channel=7, note=56, velocity=127, time=0),
    Message('note_on', channel=7, note=65, velocity=0, time=577),
    Message('note_on', channel=7, note=60, velocity=0, time=0),
    Message('note_on', channel=7, note=56, velocity=0, time=0),
    Message('note_on', channel=7, note=65, velocity=127, time=63),
    Message('note_on', channel=7, note=60, velocity=127, time=0),
    Message('note_on', channel=7, note=56, velocity=127, time=0),
    Message('note_on', channel=7, note=65, velocity=0, time=33),
    Message('note_on', channel=7, note=60, velocity=0, time=0),
    Message('note_on', channel=7, note=56, velocity=0, time=0),
    Message('note_on', channel=7, note=65, velocity=127, time=31),
    Message('note_on', channel=7, note=60, velocity=127, time=0),
    Message('note_on', channel=7, note=56, velocity=127, time=0),
    Message('note_on', channel=7, note=65, velocity=0, time=35),
    Message('note_on', channel=7, note=60, velocity=0, time=0),
    Message('note_on', channel=7, note=56, velocity=0, time=0),
    Message('note_on', channel=7, note=64, velocity=127, time=29),
    Message('note_on', channel=7, note=60, velocity=127, time=0),
    Message('note_on', channel=7, note=55, velocity=127, time=0),
    Message('note_on', channel=7, note=64, velocity=0, time=577),
    Message('note_on', channel=7, note=60, velocity=0, time=0),
    Message('note_on', channel=7, note=55, velocity=0, time=0),
    Message('note_on', channel=7, note=64, velocity=127, time=63),
    Message('note_on', channel=7, note=60, velocity=127, time=0),
    Message('note_on', channel=7, note=55, velocity=127, time=0),
    Message('note_on', channel=7, note=64, velocity=0, time=33),
    Message('note_on', channel=7, note=60, velocity=0, time=0),
    Message('note_on', channel=7, note=55, velocity=0, time=0),
    Message('note_on', channel=7, note=64, velocity=127, time=31),
    Message('note_on', channel=7, note=60, velocity=127, time=0),
    Message('note_on', channel=7, note=55, velocity=127, time=0),
    Message('note_on', channel=7, note=64, velocity=0, time=35),
    Message('note_on', channel=7, note=60, velocity=0, time=0),
    Message('note_on', channel=7, note=55, velocity=0, time=0),
    Message('note_on', channel=7, note=65, velocity=127, time=29),
    Message('note_on', channel=7, note=62, velocity=127, time=0),
    Message('note_on', channel=7, note=59, velocity=127, time=0),
    Message('note_on', channel=7, note=67, velocity=127, time=0),
    Message('note_on', channel=7, note=65, velocity=0, time=577),
    Message('note_on', channel=7, note=62, velocity=0, time=0),
    Message('note_on', channel=7, note=59, velocity=0, time=0),
    Message('note_on', channel=7, note=67, velocity=0, time=0),
    Message('note_on', channel=7, note=65, velocity=127, time=63),
    Message('note_on', channel=7, note=62, velocity=127, time=0),
    Message('note_on', channel=7, note=59, velocity=127, time=0),
    Message('note_on', channel=7, note=67, velocity=127, time=0),
    Message('note_on', channel=7, note=65, velocity=0, time=33),
    Message('note_on', channel=7, note=62, velocity=0, time=0),
    Message('note_on', channel=7, note=59, velocity=0, time=0),
    Message('note_on', channel=7, note=67, velocity=0, time=0),
    Message('note_on', channel=7, note=65, velocity=127, time=31),
    Message('note_on', channel=7, note=62, velocity=127, time=0),
    Message('note_on', channel=7, note=59, velocity=127, time=0),
    Message('note_on', channel=7, note=67, velocity=127, time=0),
    Message('note_on', channel=7, note=65, velocity=0, time=35),
    Message('note_on', channel=7, note=62, velocity=0, time=0),
    Message('note_on', channel=7, note=59, velocity=0, time=0),
    Message('note_on', channel=7, note=67, velocity=0, time=0),
    Message('note_on', channel=7, note=65, velocity=127, time=29),
    Message('note_on', channel=7, note=62, velocity=127, time=0),
    Message('note_on', channel=7, note=60, velocity=127, time=0),
    Message('note_on', channel=7, note=69, velocity=127, time=0),
    Message('note_on', channel=7, note=65, velocity=0, time=577),
    Message('note_on', channel=7, note=62, velocity=0, time=0),
    Message('note_on', channel=7, note=60, velocity=0, time=0),
    Message('note_on', channel=7, note=69, velocity=0, time=0),
    Message('note_on', channel=7, note=65, velocity=127, time=63),
    Message('note_on', channel=7, note=62, velocity=127, time=0),
    Message('note_on', channel=7, note=60, velocity=127, time=0),
    Message('note_on', channel=7, note=69, velocity=127, time=0),
    Message('note_on', channel=7, note=65, velocity=0, time=33),
    Message('note_on', channel=7, note=62, velocity=0, time=0),
    Message('note_on', channel=7, note=60, velocity=0, time=0),
    Message('note_on', channel=7, note=69, velocity=0, time=0),
    Message('note_on', channel=7, note=65, velocity=127, time=31),
    Message('note_on', channel=7, note=62, velocity=127, time=0),
    Message('note_on', channel=7, note=60, velocity=127, time=0),
    Message('note_on', channel=7, note=69, velocity=127, time=0),
    Message('note_on', channel=7, note=65, velocity=0, time=35),
    Message('note_on', channel=7, note=62, velocity=0, time=0),
    Message('note_on', channel=7, note=60, velocity=0, time=0),
    Message('note_on', channel=7, note=69, velocity=0, time=0),
    Message('note_on', channel=7, note=64, velocity=127, time=29),
    Message('note_on', channel=7, note=60, velocity=127, time=0),
    Message('note_on', channel=7, note=55, velocity=127, time=0),
    Message('note_on', channel=7, note=64, velocity=0, time=577),
    Message('note_on', channel=7, note=60, velocity=0, time=0),
    Message('note_on', channel=7, note=55, velocity=0, time=0),
    Message('note_on', channel=7, note=64, velocity=127, time=63),
    Message('note_on', channel=7, note=60, velocity=127, time=0),
    Message('note_on', channel=7, note=55, velocity=127, time=0),
    Message('note_on', channel=7, note=64, velocity=0, time=33),
    Message('note_on', channel=7, note=60, velocity=0, time=0),
    Message('note_on', channel=7, note=55, velocity=0, time=0),
    Message('note_on', channel=7, note=64, velocity=127, time=31),
    Message('note_on', channel=7, note=60, velocity=127, time=0),
    Message('note_on', channel=7, note=55, velocity=127, time=0),
    Message('note_on', channel=7, note=64, velocity=0, time=35),
    Message('note_on', channel=7, note=60, velocity=0, time=0),
    Message('note_on', channel=7, note=55, velocity=0, time=0),
    Message('note_on', channel=7, note=48, velocity=127, time=29),
    Message('note_on', channel=7, note=52, velocity=127, time=192),
    Message('note_on', channel=7, note=55, velocity=127, time=192),
    Message('note_on', channel=7, note=60, velocity=127, time=192),
    Message('note_on', channel=7, note=48, velocity=0, time=160),
    Message('note_on', channel=7, note=52, velocity=0, time=32),
    Message('note_on', channel=7, note=55, velocity=0, time=0),
    Message('note_on', channel=7, note=60, velocity=0, time=0),
    Message('note_on', channel=7, note=48, velocity=127, time=0),
    Message('note_on', channel=7, note=52, velocity=127, time=192),
    Message('note_on', channel=7, note=55, velocity=127, time=192),
    Message('note_on', channel=7, note=58, velocity=127, time=192),
    Message('note_on', channel=7, note=48, velocity=0, time=160),
    Message('note_on', channel=7, note=52, velocity=0, time=32),
    Message('note_on', channel=7, note=55, velocity=0, time=0),
    Message('note_on', channel=7, note=58, velocity=0, time=0),
    Message('note_on', channel=7, note=41, velocity=127, time=0),
    Message('note_on', channel=7, note=53, velocity=127, time=192),
    Message('note_on', channel=7, note=57, velocity=127, time=192),
    Message('note_on', channel=7, note=60, velocity=127, time=192),
    Message('note_on', channel=7, note=41, velocity=0, time=160),
    Message('note_on', channel=7, note=41, velocity=127, time=32),
    Message('note_on', channel=7, note=53, velocity=0, time=137),
    Message('note_on', channel=7, note=53, velocity=127, time=55),
    Message('note_on', channel=7, note=57, velocity=0, time=139),
    Message('note_on', channel=7, note=57, velocity=127, time=53),
    Message('note_on', channel=7, note=60, velocity=0, time=158),
    Message('note_on', channel=7, note=60, velocity=127, time=34),
    Message('note_on', channel=7, note=41, velocity=0, time=192),
    Message('note_on', channel=7, note=53, velocity=0, time=0),
    Message('note_on', channel=7, note=57, velocity=0, time=0),
    Message('note_on', channel=7, note=60, velocity=0, time=0),
    Message('note_on', channel=7, note=50, velocity=127, time=0),
    Message('note_on', channel=7, note=53, velocity=127, time=192),
    Message('note_on', channel=7, note=57, velocity=127, time=192),
    Message('note_on', channel=7, note=60, velocity=127, time=192),
    Message('note_on', channel=7, note=50, velocity=0, time=160),
    Message('note_on', channel=7, note=53, velocity=0, time=32),
    Message('note_on', channel=7, note=57, velocity=0, time=0),
    Message('note_on', channel=7, note=60, velocity=0, time=0),
    Message('note_on', channel=7, note=43, velocity=127, time=0),
    Message('note_on', channel=7, note=53, velocity=127, time=192),
    Message('note_on', channel=7, note=55, velocity=127, time=192),
    Message('note_on', channel=7, note=59, velocity=127, time=192),
    Message('note_on', channel=7, note=43, velocity=0, time=160),
    Message('note_on', channel=7, note=53, velocity=0, time=32),
    Message('note_on', channel=7, note=55, velocity=0, time=0),
    Message('note_on', channel=7, note=59, velocity=0, time=0),
    Message('note_on', channel=7, note=40, velocity=127, time=0),
    Message('note_on', channel=7, note=50, velocity=127, time=192),
    Message('note_on', channel=7, note=52, velocity=127, time=192),
    Message('note_on', channel=7, note=55, velocity=127, time=192),
    Message('note_on', channel=7, note=40, velocity=0, time=160),
    Message('note_on', channel=7, note=50, velocity=0, time=32),
    Message('note_on', channel=7, note=52, velocity=0, time=0),
    Message('note_on', channel=7, note=55, velocity=0, time=0),
    Message('note_on', channel=7, note=45, velocity=127, time=0),
    Message('note_on', channel=7, note=48, velocity=127, time=192),
    Message('note_on', channel=7, note=52, velocity=127, time=192),
    Message('note_on', channel=7, note=57, velocity=127, time=192),
    Message('note_on', channel=7, note=45, velocity=0, time=160),
    Message('note_on', channel=7, note=48, velocity=0, time=32),
    Message('note_on', channel=7, note=52, velocity=0, time=0),
    Message('note_on', channel=7, note=57, velocity=0, time=0),
    Message('note_on', channel=7, note=50, velocity=127, time=0),
    Message('note_on', channel=7, note=53, velocity=127, time=192),
    Message('note_on', channel=7, note=57, velocity=127, time=192),
    Message('note_on', channel=7, note=60, velocity=127, time=192),
    Message('note_on', channel=7, note=50, velocity=0, time=160),
    Message('note_on', channel=7, note=53, velocity=0, time=32),
    Message('note_on', channel=7, note=57, velocity=0, time=0),
    Message('note_on', channel=7, note=60, velocity=0, time=0),
    Message('note_on', channel=7, note=43, velocity=127, time=0),
    Message('note_on', channel=7, note=53, velocity=127, time=192),
    Message('note_on', channel=7, note=55, velocity=127, time=192),
    Message('note_on', channel=7, note=59, velocity=127, time=192),
    Message('note_on', channel=7, note=43, velocity=0, time=160),
    Message('note_on', channel=7, note=53, velocity=0, time=32),
    Message('note_on', channel=7, note=55, velocity=0, time=0),
    Message('note_on', channel=7, note=59, velocity=0, time=0),
    Message('note_on', channel=7, note=41, velocity=127, time=0),
    Message('note_on', channel=7, note=50, velocity=127, time=192),
    Message('note_on', channel=7, note=53, velocity=127, time=192),
    Message('note_on', channel=7, note=57, velocity=127, time=192),
    Message('note_on', channel=7, note=41, velocity=0, time=160),
    Message('note_on', channel=7, note=50, velocity=0, time=32),
    Message('note_on', channel=7, note=53, velocity=0, time=0),
    Message('note_on', channel=7, note=57, velocity=0, time=0),
    Message('note_on', channel=7, note=48, velocity=127, time=0),
    Message('note_on', channel=7, note=52, velocity=127, time=192),
    Message('note_on', channel=7, note=55, velocity=127, time=192),
    Message('note_on', channel=7, note=60, velocity=127, time=192),
    Message('note_on', channel=7, note=48, velocity=0, time=160),
    Message('note_on', channel=7, note=52, velocity=0, time=32),
    Message('note_on', channel=7, note=55, velocity=0, time=0),
    Message('note_on', channel=7, note=60, velocity=0, time=0),
    Message('note_on', channel=7, note=64, velocity=127, time=0),
    Message('note_on', channel=7, note=60, velocity=127, time=0),
    Message('note_on', channel=7, note=55, velocity=127, time=0),
    Message('note_on', channel=7, note=64, velocity=0, time=577),
    Message('note_on', channel=7, note=60, velocity=0, time=0),
    Message('note_on', channel=7, note=55, velocity=0, time=0),
    Message('note_on', channel=7, note=64, velocity=127, time=63),
    Message('note_on', channel=7, note=60, velocity=127, time=0),
    Message('note_on', channel=7, note=55, velocity=127, time=0),
    Message('note_on', channel=7, note=64, velocity=0, time=33),
    Message('note_on', channel=7, note=60, velocity=0, time=0),
    Message('note_on', channel=7, note=55, velocity=0, time=0),
    Message('note_on', channel=7, note=64, velocity=127, time=31),
    Message('note_on', channel=7, note=60, velocity=127, time=0),
    Message('note_on', channel=7, note=55, velocity=127, time=0),
    Message('note_on', channel=7, note=64, velocity=0, time=35),
    Message('note_on', channel=7, note=60, velocity=0, time=0),
    Message('note_on', channel=7, note=55, velocity=0, time=0),
    Message('note_on', channel=7, note=64, velocity=127, time=29),
    Message('note_on', channel=7, note=59, velocity=127, time=0),
    Message('note_on', channel=7, note=55, velocity=127, time=0),
    Message('note_on', channel=7, note=64, velocity=0, time=577),
    Message('note_on', channel=7, note=59, velocity=0, time=0),
    Message('note_on', channel=7, note=55, velocity=0, time=0),
    Message('note_on', channel=7, note=64, velocity=127, time=63),
    Message('note_on', channel=7, note=59, velocity=127, time=0),
    Message('note_on', channel=7, note=55, velocity=127, time=0),
    Message('note_on', channel=7, note=64, velocity=0, time=33),
    Message('note_on', channel=7, note=59, velocity=0, time=0),
    Message('note_on', channel=7, note=55, velocity=0, time=0),
    Message('note_on', channel=7, note=64, velocity=127, time=31),
    Message('note_on', channel=7, note=59, velocity=127, time=0),
    Message('note_on', channel=7, note=55, velocity=127, time=0),
    Message('note_on', channel=7, note=64, velocity=0, time=35),
    Message('note_on', channel=7, note=59, velocity=0, time=0),
    Message('note_on', channel=7, note=55, velocity=0, time=0),
    Message('note_on', channel=7, note=64, velocity=127, time=29),
    Message('note_on', channel=7, note=62, velocity=127, time=0),
    Message('note_on', channel=7, note=58, velocity=127, time=0),
    Message('note_on', channel=7, note=67, velocity=127, time=0),
    Message('note_on', channel=7, note=64, velocity=0, time=577),
    Message('note_on', channel=7, note=62, velocity=0, time=0),
    Message('note_on', channel=7, note=58, velocity=0, time=0),
    Message('note_on', channel=7, note=67, velocity=0, time=0),
    Message('note_on', channel=7, note=64, velocity=127, time=63),
    Message('note_on', channel=7, note=62, velocity=127, time=0),
    Message('note_on', channel=7, note=58, velocity=127, time=0),
    Message('note_on', channel=7, note=67, velocity=127, time=0),
    Message('note_on', channel=7, note=64, velocity=0, time=33),
    Message('note_on', channel=7, note=62, velocity=0, time=0),
    Message('note_on', channel=7, note=58, velocity=0, time=0),
    Message('note_on', channel=7, note=67, velocity=0, time=0),
    Message('note_on', channel=7, note=64, velocity=127, time=31),
    Message('note_on', channel=7, note=62, velocity=127, time=0),
    Message('note_on', channel=7, note=58, velocity=127, time=0),
    Message('note_on', channel=7, note=67, velocity=127, time=0),
    Message('note_on', channel=7, note=64, velocity=0, time=35),
    Message('note_on', channel=7, note=62, velocity=0, time=0),
    Message('note_on', channel=7, note=58, velocity=0, time=0),
    Message('note_on', channel=7, note=67, velocity=0, time=0),
    Message('note_on', channel=7, note=67, velocity=127, time=29),
    Message('note_on', channel=7, note=64, velocity=127, time=0),
    Message('note_on', channel=7, note=61, velocity=127, time=0),
    Message('note_on', channel=7, note=69, velocity=127, time=0),
    Message('note_on', channel=7, note=67, velocity=0, time=577),
    Message('note_on', channel=7, note=64, velocity=0, time=0),
    Message('note_on', channel=7, note=61, velocity=0, time=0),
    Message('note_on', channel=7, note=69, velocity=0, time=0),
    Message('note_on', channel=7, note=67, velocity=127, time=63),
    Message('note_on', channel=7, note=64, velocity=127, time=0),
    Message('note_on', channel=7, note=61, velocity=127, time=0),
    Message('note_on', channel=7, note=69, velocity=127, time=0),
    Message('note_on', channel=7, note=67, velocity=0, time=33),
    Message('note_on', channel=7, note=64, velocity=0, time=0),
    Message('note_on', channel=7, note=61, velocity=0, time=0),
    Message('note_on', channel=7, note=69, velocity=0, time=0),
    Message('note_on', channel=7, note=67, velocity=127, time=31),
    Message('note_on', channel=7, note=64, velocity=127, time=0),
    Message('note_on', channel=7, note=61, velocity=127, time=0),
    Message('note_on', channel=7, note=69, velocity=127, time=0),
    Message('note_on', channel=7, note=67, velocity=0, time=35),
    Message('note_on', channel=7, note=64, velocity=0, time=0),
    Message('note_on', channel=7, note=61, velocity=0, time=0),
    Message('note_on', channel=7, note=69, velocity=0, time=0),
    Message('note_on', channel=7, note=65, velocity=127, time=29),
    Message('note_on', channel=7, note=62, velocity=127, time=0),
    Message('note_on', channel=7, note=57, velocity=127, time=0),
    Message('note_on', channel=7, note=65, velocity=0, time=577),
    Message('note_on', channel=7, note=62, velocity=0, time=0),
    Message('note_on', channel=7, note=57, velocity=0, time=0),
    Message('note_on', channel=7, note=65, velocity=127, time=63),
    Message('note_on', channel=7, note=62, velocity=127, time=0),
    Message('note_on', channel=7, note=57, velocity=127, time=0),
    Message('note_on', channel=7, note=65, velocity=0, time=33),
    Message('note_on', channel=7, note=62, velocity=0, time=0),
    Message('note_on', channel=7, note=57, velocity=0, time=0),
    Message('note_on', channel=7, note=65, velocity=127, time=31),
    Message('note_on', channel=7, note=62, velocity=127, time=0),
    Message('note_on', channel=7, note=57, velocity=127, time=0),
    Message('note_on', channel=7, note=65, velocity=0, time=35),
    Message('note_on', channel=7, note=62, velocity=0, time=0),
    Message('note_on', channel=7, note=57, velocity=0, time=0),
    Message('note_on', channel=7, note=65, velocity=127, time=29),
    Message('note_on', channel=7, note=62, velocity=127, time=0),
    Message('note_on', channel=7, note=60, velocity=127, time=0),
    Message('note_on', channel=7, note=69, velocity=127, time=0),
    Message('note_on', channel=7, note=65, velocity=0, time=577),
    Message('note_on', channel=7, note=62, velocity=0, time=0),
    Message('note_on', channel=7, note=60, velocity=0, time=0),
    Message('note_on', channel=7, note=69, velocity=0, time=0),
    Message('note_on', channel=7, note=65, velocity=127, time=63),
    Message('note_on', channel=7, note=62, velocity=127, time=0),
    Message('note_on', channel=7, note=60, velocity=127, time=0),
    Message('note_on', channel=7, note=69, velocity=127, time=0),
    Message('note_on', channel=7, note=65, velocity=0, time=33),
    Message('note_on', channel=7, note=62, velocity=0, time=0),
    Message('note_on', channel=7, note=60, velocity=0, time=0),
    Message('note_on', channel=7, note=69, velocity=0, time=0),
    Message('note_on', channel=7, note=65, velocity=127, time=31),
    Message('note_on', channel=7, note=62, velocity=127, time=0),
    Message('note_on', channel=7, note=60, velocity=127, time=0),
    Message('note_on', channel=7, note=69, velocity=127, time=0),
    Message('note_on', channel=7, note=65, velocity=0, time=35),
    Message('note_on', channel=7, note=62, velocity=0, time=0),
    Message('note_on', channel=7, note=60, velocity=0, time=0),
    Message('note_on', channel=7, note=69, velocity=0, time=0),
    Message('note_on', channel=7, note=65, velocity=127, time=29),
    Message('note_on', channel=7, note=62, velocity=127, time=0),
    Message('note_on', channel=7, note=59, velocity=127, time=0),
    Message('note_on', channel=7, note=67, velocity=127, time=0),
    Message('note_on', channel=7, note=65, velocity=0, time=577),
    Message('note_on', channel=7, note=62, velocity=0, time=0),
    Message('note_on', channel=7, note=59, velocity=0, time=0),
    Message('note_on', channel=7, note=67, velocity=0, time=0),
    Message('note_on', channel=7, note=65, velocity=127, time=63),
    Message('note_on', channel=7, note=62, velocity=127, time=0),
    Message('note_on', channel=7, note=59, velocity=127, time=0),
    Message('note_on', channel=7, note=67, velocity=127, time=0),
    Message('note_on', channel=7, note=65, velocity=0, time=33),
    Message('note_on', channel=7, note=62, velocity=0, time=0),
    Message('note_on', channel=7, note=59, velocity=0, time=0),
    Message('note_on', channel=7, note=67, velocity=0, time=0),
    Message('note_on', channel=7, note=65, velocity=127, time=31),
    Message('note_on', channel=7, note=62, velocity=127, time=0),
    Message('note_on', channel=7, note=59, velocity=127, time=0),
    Message('note_on', channel=7, note=67, velocity=127, time=0),
    Message('note_on', channel=7, note=65, velocity=0, time=35),
    Message('note_on', channel=7, note=62, velocity=0, time=0),
    Message('note_on', channel=7, note=59, velocity=0, time=0),
    Message('note_on', channel=7, note=67, velocity=0, time=0),
    Message('note_on', channel=7, note=64, velocity=127, time=29),
    Message('note_on', channel=7, note=60, velocity=127, time=0),
    Message('note_on', channel=7, note=55, velocity=127, time=0),
    Message('note_on', channel=7, note=64, velocity=0, time=577),
    Message('note_on', channel=7, note=60, velocity=0, time=0),
    Message('note_on', channel=7, note=55, velocity=0, time=0),
    Message('note_on', channel=7, note=64, velocity=127, time=63),
    Message('note_on', channel=7, note=60, velocity=127, time=0),
    Message('note_on', channel=7, note=55, velocity=127, time=0),
    Message('note_on', channel=7, note=64, velocity=0, time=33),
    Message('note_on', channel=7, note=60, velocity=0, time=0),
    Message('note_on', channel=7, note=55, velocity=0, time=0),
    Message('note_on', channel=7, note=64, velocity=127, time=31),
    Message('note_on', channel=7, note=60, velocity=127, time=0),
    Message('note_on', channel=7, note=55, velocity=127, time=0),
    Message('note_on', channel=7, note=64, velocity=0, time=35),
    Message('note_on', channel=7, note=60, velocity=0, time=0),
    Message('note_on', channel=7, note=55, velocity=0, time=0),
    Message('note_on', channel=7, note=64, velocity=127, time=32),
    Message('note_on', channel=7, note=60, velocity=127, time=0),
    Message('note_on', channel=7, note=55, velocity=127, time=0),
    Message('note_on', channel=7, note=64, velocity=0, time=347),
    Message('note_on', channel=7, note=60, velocity=0, time=0),
    Message('note_on', channel=7, note=55, velocity=0, time=0),
    Message('note_on', channel=7, note=64, velocity=127, time=34),
    Message('note_on', channel=7, note=62, velocity=127, time=0),
    Message('note_on', channel=7, note=59, velocity=127, time=0),
    Message('note_on', channel=7, note=67, velocity=127, time=0),
    Message('note_on', channel=7, note=64, velocity=0, time=171),
    Message('note_on', channel=7, note=62, velocity=0, time=0),
    Message('note_on', channel=7, note=59, velocity=0, time=0),
    Message('note_on', channel=7, note=67, velocity=0, time=0),
    Message('note_on', channel=7, note=64, velocity=127, time=21),
    Message('note_on', channel=7, note=62, velocity=127, time=0),
    Message('note_on', channel=7, note=59, velocity=127, time=0),
    Message('note_on', channel=7, note=67, velocity=127, time=0),
    Message('note_on', channel=7, note=64, velocity=0, time=30),
    Message('note_on', channel=7, note=62, velocity=0, time=0),
    Message('note_on', channel=7, note=59, velocity=0, time=0),
    Message('note_on', channel=7, note=67, velocity=0, time=0),
    Message('note_on', channel=7, note=64, velocity=127, time=34),
    Message('note_on', channel=7, note=62, velocity=127, time=0),
    Message('note_on', channel=7, note=59, velocity=127, time=0),
    Message('note_on', channel=7, note=67, velocity=127, time=0),
    Message('note_on', channel=7, note=64, velocity=0, time=27),
    Message('note_on', channel=7, note=62, velocity=0, time=0),
    Message('note_on', channel=7, note=59, velocity=0, time=0),
    Message('note_on', channel=7, note=67, velocity=0, time=0),
    Message('note_on', channel=7, note=64, velocity=127, time=37),
    Message('note_on', channel=7, note=62, velocity=127, time=0),
    Message('note_on', channel=7, note=59, velocity=127, time=0),
    Message('note_on', channel=7, note=67, velocity=127, time=0),
    Message('note_on', channel=7, note=64, velocity=0, time=35),
    Message('note_on', channel=7, note=62, velocity=0, time=0),
    Message('note_on', channel=7, note=59, velocity=0, time=0),
    Message('note_on', channel=7, note=67, velocity=0, time=0),
    Message('note_on', channel=7, note=64, velocity=127, time=29),
    Message('note_on', channel=7, note=60, velocity=127, time=0),
    Message('note_on', channel=7, note=58, velocity=127, time=0),
    Message('note_on', channel=7, note=67, velocity=127, time=0),
    Message('note_on', channel=7, note=64, velocity=0, time=577),
    Message('note_on', channel=7, note=60, velocity=0, time=0),
    Message('note_on', channel=7, note=58, velocity=0, time=0),
    Message('note_on', channel=7, note=67, velocity=0, time=0),
    Message('note_on', channel=7, note=64, velocity=127, time=63),
    Message('note_on', channel=7, note=60, velocity=127, time=0),
    Message('note_on', channel=7, note=58, velocity=127, time=0),
    Message('note_on', channel=7, note=67, velocity=127, time=0),
    Message('note_on', channel=7, note=64, velocity=0, time=33),
    Message('note_on', channel=7, note=60, velocity=0, time=0),
    Message('note_on', channel=7, note=58, velocity=0, time=0),
    Message('note_on', channel=7, note=67, velocity=0, time=0),
    Message('note_on', channel=7, note=64, velocity=127, time=31),
    Message('note_on', channel=7, note=60, velocity=127, time=0),
    Message('note_on', channel=7, note=58, velocity=127, time=0),
    Message('note_on', channel=7, note=67, velocity=127, time=0),
    Message('note_on', channel=7, note=64, velocity=0, time=35),
    Message('note_on', channel=7, note=60, velocity=0, time=0),
    Message('note_on', channel=7, note=58, velocity=0, time=0),
    Message('note_on', channel=7, note=67, velocity=0, time=0),
    Message('note_on', channel=7, note=65, velocity=127, time=29),
    Message('note_on', channel=7, note=60, velocity=127, time=0),
    Message('note_on', channel=7, note=57, velocity=127, time=0),
    Message('note_on', channel=7, note=65, velocity=0, time=577),
    Message('note_on', channel=7, note=60, velocity=0, time=0),
    Message('note_on', channel=7, note=57, velocity=0, time=0),
    Message('note_on', channel=7, note=65, velocity=127, time=63),
    Message('note_on', channel=7, note=60, velocity=127, time=0),
    Message('note_on', channel=7, note=57, velocity=127, time=0),
    Message('note_on', channel=7, note=65, velocity=0, time=33),
    Message('note_on', channel=7, note=60, velocity=0, time=0),
    Message('note_on', channel=7, note=57, velocity=0, time=0),
    Message('note_on', channel=7, note=65, velocity=127, time=31),
    Message('note_on', channel=7, note=60, velocity=127, time=0),
    Message('note_on', channel=7, note=57, velocity=127, time=0),
    Message('note_on', channel=7, note=65, velocity=0, time=35),
    Message('note_on', channel=7, note=60, velocity=0, time=0),
    Message('note_on', channel=7, note=57, velocity=0, time=0),
    Message('note_on', channel=7, note=65, velocity=127, time=29),
    Message('note_on', channel=7, note=60, velocity=127, time=0),
    Message('note_on', channel=7, note=56, velocity=127, time=0),
    Message('note_on', channel=7, note=65, velocity=0, time=577),
    Message('note_on', channel=7, note=60, velocity=0, time=0),
    Message('note_on', channel=7, note=56, velocity=0, time=0),
    Message('note_on', channel=7, note=65, velocity=127, time=63),
    Message('note_on', channel=7, note=60, velocity=127, time=0),
    Message('note_on', channel=7, note=56, velocity=127, time=0),
    Message('note_on', channel=7, note=65, velocity=0, time=33),
    Message('note_on', channel=7, note=60, velocity=0, time=0),
    Message('note_on', channel=7, note=56, velocity=0, time=0),
    Message('note_on', channel=7, note=65, velocity=127, time=31),
    Message('note_on', channel=7, note=60, velocity=127, time=0),
    Message('note_on', channel=7, note=56, velocity=127, time=0),
    Message('note_on', channel=7, note=65, velocity=0, time=35),
    Message('note_on', channel=7, note=60, velocity=0, time=0),
    Message('note_on', channel=7, note=56, velocity=0, time=0),
    Message('note_on', channel=7, note=64, velocity=127, time=29),
    Message('note_on', channel=7, note=60, velocity=127, time=0),
    Message('note_on', channel=7, note=55, velocity=127, time=0),
    Message('note_on', channel=7, note=64, velocity=0, time=577),
    Message('note_on', channel=7, note=60, velocity=0, time=0),
    Message('note_on', channel=7, note=55, velocity=0, time=0),
    Message('note_on', channel=7, note=64, velocity=127, time=63),
    Message('note_on', channel=7, note=60, velocity=127, time=0),
    Message('note_on', channel=7, note=55, velocity=127, time=0),
    Message('note_on', channel=7, note=64, velocity=0, time=33),
    Message('note_on', channel=7, note=60, velocity=0, time=0),
    Message('note_on', channel=7, note=55, velocity=0, time=0),
    Message('note_on', channel=7, note=64, velocity=127, time=31),
    Message('note_on', channel=7, note=60, velocity=127, time=0),
    Message('note_on', channel=7, note=55, velocity=127, time=0),
    Message('note_on', channel=7, note=64, velocity=0, time=35),
    Message('note_on', channel=7, note=60, velocity=0, time=0),
    Message('note_on', channel=7, note=55, velocity=0, time=0),
    Message('note_on', channel=7, note=65, velocity=127, time=29),
    Message('note_on', channel=7, note=62, velocity=127, time=0),
    Message('note_on', channel=7, note=59, velocity=127, time=0),
    Message('note_on', channel=7, note=67, velocity=127, time=0),
    Message('note_on', channel=7, note=65, velocity=0, time=577),
    Message('note_on', channel=7, note=62, velocity=0, time=0),
    Message('note_on', channel=7, note=59, velocity=0, time=0),
    Message('note_on', channel=7, note=67, velocity=0, time=0),
    Message('note_on', channel=7, note=65, velocity=127, time=63),
    Message('note_on', channel=7, note=62, velocity=127, time=0),
    Message('note_on', channel=7, note=59, velocity=127, time=0),
    Message('note_on', channel=7, note=67, velocity=127, time=0),
    Message('note_on', channel=7, note=65, velocity=0, time=33),
    Message('note_on', channel=7, note=62, velocity=0, time=0),
    Message('note_on', channel=7, note=59, velocity=0, time=0),
    Message('note_on', channel=7, note=67, velocity=0, time=0),
    Message('note_on', channel=7, note=65, velocity=127, time=31),
    Message('note_on', channel=7, note=62, velocity=127, time=0),
    Message('note_on', channel=7, note=59, velocity=127, time=0),
    Message('note_on', channel=7, note=67, velocity=127, time=0),
    Message('note_on', channel=7, note=65, velocity=0, time=35),
    Message('note_on', channel=7, note=62, velocity=0, time=0),
    Message('note_on', channel=7, note=59, velocity=0, time=0),
    Message('note_on', channel=7, note=67, velocity=0, time=0),
    Message('note_on', channel=7, note=65, velocity=127, time=29),
    Message('note_on', channel=7, note=62, velocity=127, time=0),
    Message('note_on', channel=7, note=60, velocity=127, time=0),
    Message('note_on', channel=7, note=69, velocity=127, time=0),
    Message('note_on', channel=7, note=65, velocity=0, time=577),
    Message('note_on', channel=7, note=62, velocity=0, time=0),
    Message('note_on', channel=7, note=60, velocity=0, time=0),
    Message('note_on', channel=7, note=69, velocity=0, time=0),
    Message('note_on', channel=7, note=65, velocity=127, time=63),
    Message('note_on', channel=7, note=62, velocity=127, time=0),
    Message('note_on', channel=7, note=60, velocity=127, time=0),
    Message('note_on', channel=7, note=69, velocity=127, time=0),
    Message('note_on', channel=7, note=65, velocity=0, time=33),
    Message('note_on', channel=7, note=62, velocity=0, time=0),
    Message('note_on', channel=7, note=60, velocity=0, time=0),
    Message('note_on', channel=7, note=69, velocity=0, time=0),
    Message('note_on', channel=7, note=65, velocity=127, time=31),
    Message('note_on', channel=7, note=62, velocity=127, time=0),
    Message('note_on', channel=7, note=60, velocity=127, time=0),
    Message('note_on', channel=7, note=69, velocity=127, time=0),
    Message('note_on', channel=7, note=65, velocity=0, time=35),
    Message('note_on', channel=7, note=62, velocity=0, time=0),
    Message('note_on', channel=7, note=60, velocity=0, time=0),
    Message('note_on', channel=7, note=69, velocity=0, time=0),
    Message('note_on', channel=7, note=64, velocity=127, time=29),
    Message('note_on', channel=7, note=60, velocity=127, time=0),
    Message('note_on', channel=7, note=55, velocity=127, time=0),
    Message('note_on', channel=7, note=64, velocity=0, time=577),
    Message('note_on', channel=7, note=60, velocity=0, time=0),
    Message('note_on', channel=7, note=55, velocity=0, time=0),
    Message('note_on', channel=7, note=64, velocity=127, time=63),
    Message('note_on', channel=7, note=60, velocity=127, time=0),
    Message('note_on', channel=7, note=55, velocity=127, time=0),
    Message('note_on', channel=7, note=64, velocity=0, time=33),
    Message('note_on', channel=7, note=60, velocity=0, time=0),
    Message('note_on', channel=7, note=55, velocity=0, time=0),
    Message('note_on', channel=7, note=64, velocity=127, time=31),
    Message('note_on', channel=7, note=60, velocity=127, time=0),
    Message('note_on', channel=7, note=55, velocity=127, time=0),
    Message('note_on', channel=7, note=64, velocity=0, time=35),
    Message('note_on', channel=7, note=60, velocity=0, time=0),
    Message('note_on', channel=7, note=55, velocity=0, time=0),
    Message('note_on', channel=7, note=48, velocity=127, time=29),
    Message('note_on', channel=7, note=52, velocity=127, time=192),
    Message('note_on', channel=7, note=55, velocity=127, time=192),
    Message('note_on', channel=7, note=60, velocity=127, time=192),
    Message('note_on', channel=7, note=48, velocity=0, time=160),
    Message('note_on', channel=7, note=52, velocity=0, time=32),
    Message('note_on', channel=7, note=55, velocity=0, time=0),
    Message('note_on', channel=7, note=60, velocity=0, time=0),
    Message('note_on', channel=7, note=48, velocity=127, time=0),
    Message('note_on', channel=7, note=52, velocity=127, time=192),
    Message('note_on', channel=7, note=55, velocity=127, time=192),
    Message('note_on', channel=7, note=58, velocity=127, time=192),
    Message('note_on', channel=7, note=48, velocity=0, time=160),
    Message('note_on', channel=7, note=52, velocity=0, time=32),
    Message('note_on', channel=7, note=55, velocity=0, time=0),
    Message('note_on', channel=7, note=58, velocity=0, time=0),
    Message('note_on', channel=7, note=41, velocity=127, time=0),
    Message('note_on', channel=7, note=53, velocity=127, time=192),
    Message('note_on', channel=7, note=57, velocity=127, time=192),
    Message('note_on', channel=7, note=60, velocity=127, time=192),
    Message('note_on', channel=7, note=41, velocity=0, time=160),
    Message('note_on', channel=7, note=41, velocity=127, time=32),
    Message('note_on', channel=7, note=53, velocity=0, time=137),
    Message('note_on', channel=7, note=53, velocity=127, time=55),
    Message('note_on', channel=7, note=57, velocity=0, time=139),
    Message('note_on', channel=7, note=57, velocity=127, time=53),
    Message('note_on', channel=7, note=60, velocity=0, time=158),
    Message('note_on', channel=7, note=60, velocity=127, time=34),
    Message('note_on', channel=7, note=41, velocity=0, time=192),
    Message('note_on', channel=7, note=53, velocity=0, time=0),
    Message('note_on', channel=7, note=57, velocity=0, time=0),
    Message('note_on', channel=7, note=60, velocity=0, time=0),
    Message('note_on', channel=7, note=50, velocity=127, time=0),
    Message('note_on', channel=7, note=53, velocity=127, time=192),
    Message('note_on', channel=7, note=57, velocity=127, time=192),
    Message('note_on', channel=7, note=60, velocity=127, time=192),
    Message('note_on', channel=7, note=50, velocity=0, time=160),
    Message('note_on', channel=7, note=53, velocity=0, time=32),
    Message('note_on', channel=7, note=57, velocity=0, time=0),
    Message('note_on', channel=7, note=60, velocity=0, time=0),
    Message('note_on', channel=7, note=43, velocity=127, time=0),
    Message('note_on', channel=7, note=53, velocity=127, time=192),
    Message('note_on', channel=7, note=55, velocity=127, time=192),
    Message('note_on', channel=7, note=59, velocity=127, time=192),
    Message('note_on', channel=7, note=43, velocity=0, time=160),
    Message('note_on', channel=7, note=53, velocity=0, time=32),
    Message('note_on', channel=7, note=55, velocity=0, time=0),
    Message('note_on', channel=7, note=59, velocity=0, time=0),
    Message('note_on', channel=7, note=40, velocity=127, time=0),
    Message('note_on', channel=7, note=50, velocity=127, time=192),
    Message('note_on', channel=7, note=52, velocity=127, time=192),
    Message('note_on', channel=7, note=55, velocity=127, time=192),
    Message('note_on', channel=7, note=40, velocity=0, time=160),
    Message('note_on', channel=7, note=50, velocity=0, time=32),
    Message('note_on', channel=7, note=52, velocity=0, time=0),
    Message('note_on', channel=7, note=55, velocity=0, time=0),
    Message('note_on', channel=7, note=45, velocity=127, time=0),
    Message('note_on', channel=7, note=48, velocity=127, time=192),
    Message('note_on', channel=7, note=52, velocity=127, time=192),
    Message('note_on', channel=7, note=57, velocity=127, time=192),
    Message('note_on', channel=7, note=45, velocity=0, time=160),
    Message('note_on', channel=7, note=48, velocity=0, time=32),
    Message('note_on', channel=7, note=52, velocity=0, time=0),
    Message('note_on', channel=7, note=57, velocity=0, time=0),
    Message('note_on', channel=7, note=50, velocity=127, time=0),
    Message('note_on', channel=7, note=53, velocity=127, time=192),
    Message('note_on', channel=7, note=57, velocity=127, time=192),
    Message('note_on', channel=7, note=60, velocity=127, time=192),
    Message('note_on', channel=7, note=50, velocity=0, time=160),
    Message('note_on', channel=7, note=53, velocity=0, time=32),
    Message('note_on', channel=7, note=57, velocity=0, time=0),
    Message('note_on', channel=7, note=60, velocity=0, time=0),
    Message('note_on', channel=7, note=43, velocity=127, time=0),
    Message('note_on', channel=7, note=53, velocity=127, time=192),
    Message('note_on', channel=7, note=55, velocity=127, time=192),
    Message('note_on', channel=7, note=59, velocity=127, time=192),
    Message('note_on', channel=7, note=43, velocity=0, time=160),
    Message('note_on', channel=7, note=53, velocity=0, time=32),
    Message('note_on', channel=7, note=55, velocity=0, time=0),
    Message('note_on', channel=7, note=59, velocity=0, time=0),
    Message('note_on', channel=7, note=41, velocity=127, time=0),
    Message('note_on', channel=7, note=50, velocity=127, time=192),
    Message('note_on', channel=7, note=53, velocity=127, time=192),
    Message('note_on', channel=7, note=57, velocity=127, time=192),
    Message('note_on', channel=7, note=41, velocity=0, time=160),
    Message('note_on', channel=7, note=50, velocity=0, time=32),
    Message('note_on', channel=7, note=53, velocity=0, time=0),
    Message('note_on', channel=7, note=57, velocity=0, time=0),
    Message('note_on', channel=7, note=64, velocity=120, time=0),
    Message('note_on', channel=7, note=67, velocity=120, time=0),
    Message('note_on', channel=7, note=60, velocity=120, time=0),
    Message('note_on', channel=7, note=60, velocity=0, time=19),
    Message('note_on', channel=7, note=67, velocity=0, time=5),
    Message('note_on', channel=7, note=64, velocity=0, time=3),
    Message('note_on', channel=7, note=64, velocity=120, time=37),
    Message('note_on', channel=7, note=67, velocity=120, time=0),
    Message('note_on', channel=7, note=60, velocity=120, time=0),
    Message('note_on', channel=7, note=60, velocity=0, time=16),
    Message('note_on', channel=7, note=67, velocity=0, time=3),
    Message('note_on', channel=7, note=64, velocity=0, time=1),
    Message('note_on', channel=7, note=64, velocity=120, time=44),
    Message('note_on', channel=7, note=67, velocity=120, time=0),
    Message('note_on', channel=7, note=60, velocity=120, time=0),
    Message('note_on', channel=7, note=60, velocity=0, time=19),
    Message('note_on', channel=7, note=64, velocity=0, time=3),
    Message('note_on', channel=7, note=67, velocity=0, time=0),
    Message('note_on', channel=7, note=64, velocity=120, time=42),
    Message('note_on', channel=7, note=67, velocity=120, time=0),
    Message('note_on', channel=7, note=60, velocity=120, time=0),
    Message('note_on', channel=7, note=60, velocity=0, time=22),
    Message('note_on', channel=7, note=67, velocity=0, time=3),
    Message('note_on', channel=7, note=64, velocity=0, time=2),
    Message('note_on', channel=7, note=65, velocity=120, time=165),
    Message('note_on', channel=7, note=60, velocity=120, time=0),
    Message('note_on', channel=7, note=69, velocity=120, time=0),
    Message('note_on', channel=7, note=65, velocity=0, time=20),
    Message('note_on', channel=7, note=60, velocity=0, time=0),
    Message('note_on', channel=7, note=69, velocity=0, time=4),
    Message('note_on', channel=7, note=65, velocity=120, time=40),
    Message('note_on', channel=7, note=69, velocity=120, time=0),
    Message('note_on', channel=7, note=60, velocity=120, time=0),
    Message('note_on', channel=7, note=60, velocity=0, time=19),
    Message('note_on', channel=7, note=65, velocity=0, time=3),
    Message('note_on', channel=7, note=69, velocity=0, time=0),
    Message('note_on', channel=7, note=65, velocity=120, time=42),
    Message('note_on', channel=7, note=69, velocity=120, time=0),
    Message('note_on', channel=7, note=60, velocity=120, time=0),
    Message('note_on', channel=7, note=60, velocity=0, time=16),
    Message('note_on', channel=7, note=65, velocity=0, time=4),
    Message('note_on', channel=7, note=69, velocity=0, time=0),
    Message('note_on', channel=7, note=65, velocity=120, time=44),
    Message('note_on', channel=7, note=69, velocity=120, time=0),
    Message('note_on', channel=7, note=60, velocity=120, time=0),
    Message('note_on', channel=7, note=65, velocity=0, time=27),
    Message('note_on', channel=7, note=69, velocity=0, time=0),
    Message('note_on', channel=7, note=60, velocity=0, time=0),
    Message('note_on', channel=7, note=64, velocity=120, time=165),
    Message('note_on', channel=7, note=67, velocity=120, time=0),
    Message('note_on', channel=7, note=60, velocity=120, time=0),
    Message('note_on', channel=7, note=67, velocity=0, time=372),
    Message('note_on', channel=7, note=60, velocity=0, time=0),
    Message('note_on', channel=7, note=64, velocity=0, time=12),
    Message('note_on', channel=7, note=72, velocity=120, time=0),
    Message('note_on', channel=7, note=64, velocity=120, time=0),
    Message('note_on', channel=7, note=67, velocity=120, time=0),
    Message('note_on', channel=7, note=60, velocity=120, time=0),
    Message('control_change', channel=7, control=7, value=100, time=0),
    Message('control_change', channel=7, control=64, value=0, time=384),
    Message('note_on', channel=7, note=72, velocity=0, time=84),
    Message('note_on', channel=7, note=64, velocity=0, time=0),
    Message('note_on', channel=7, note=67, velocity=0, time=0),
    Message('note_on', channel=7, note=60, velocity=0, time=0),
    MetaMessage('end_of_track', time=0)]),
  MidiTrack([
    MetaMessage('midi_port', port=0, time=0),
    MetaMessage('track_name', name='brass2              ', time=0),
    Message('program_change', channel=10, program=61, time=0),
    Message('control_change', channel=10, control=10, value=65, time=0),
    Message('control_change', channel=10, control=64, value=0, time=0),
    Message('note_on', channel=10, note=67, velocity=122, time=29184),
    Message('note_on', channel=10, note=76, velocity=115, time=0),
    Message('note_on', channel=10, note=79, velocity=1, time=384),
    Message('note_on', channel=10, note=67, velocity=0, time=376),
    Message('note_on', channel=10, note=76, velocity=0, time=0),
    Message('note_on', channel=10, note=79, velocity=0, time=8),
    Message('note_on', channel=10, note=76, velocity=1, time=0),
    Message('note_on', channel=10, note=70, velocity=126, time=0),
    Message('note_on', channel=10, note=70, velocity=0, time=376),
    Message('note_on', channel=10, note=72, velocity=108, time=8),
    Message('note_on', channel=10, note=76, velocity=0, time=384),
    Message('note_on', channel=10, note=72, velocity=0, time=0),
    Message('note_on', channel=10, note=81, velocity=120, time=0),
    Message('note_on', channel=10, note=72, velocity=111, time=0),
    Message('note_on', channel=10, note=72, velocity=0, time=1120),
    Message('note_on', channel=10, note=69, velocity=127, time=32),
    Message('note_on', channel=10, note=81, velocity=0, time=329),
    Message('note_on', channel=10, note=69, velocity=0, time=27),
    Message('note_on', channel=10, note=77, velocity=126, time=28),
    Message('note_on', channel=10, note=72, velocity=118, time=0),
    Message('note_on', channel=10, note=72, velocity=0, time=755),
    Message('note_on', channel=10, note=77, velocity=0, time=5),
    Message('note_on', channel=10, note=77, velocity=126, time=8),
    Message('note_on', channel=10, note=71, velocity=118, time=0),
    Message('note_on', channel=10, note=71, velocity=0, time=755),
    Message('note_on', channel=10, note=77, velocity=0, time=5),
    Message('note_on', channel=10, note=74, velocity=1, time=8),
    Message('note_on', channel=10, note=67, velocity=126, time=0),
    Message('note_on', channel=10, note=67, velocity=0, time=376),
    Message('note_on', channel=10, note=71, velocity=108, time=8),
    Message('note_on', channel=10, note=74, velocity=0, time=384),
    Message('note_on', channel=10, note=71, velocity=0, time=0),
    Message('note_on', channel=10, note=72, velocity=126, time=0),
    Message('note_on', channel=10, note=64, velocity=118, time=0),
    Message('note_on', channel=10, note=64, velocity=0, time=755),
    Message('note_on', channel=10, note=72, velocity=0, time=5),
    Message('note_on', channel=10, note=77, velocity=1, time=8),
    Message('note_on', channel=10, note=72, velocity=126, time=0),
    Message('note_on', channel=10, note=72, velocity=0, time=376),
    Message('note_on', channel=10, note=74, velocity=108, time=8),
    Message('note_on', channel=10, note=77, velocity=0, time=384),
    Message('note_on', channel=10, note=74, velocity=0, time=0),
    Message('note_on', channel=10, note=77, velocity=117, time=0),
    Message('note_on', channel=10, note=71, velocity=113, time=0),
    Message('note_on', channel=10, note=79, velocity=1, time=384),
    Message('note_on', channel=10, note=77, velocity=0, time=38),
    Message('note_on', channel=10, note=79, velocity=0, time=154),
    Message('note_on', channel=10, note=77, velocity=1, time=0),
    Message('note_on', channel=10, note=77, velocity=0, time=148),
    Message('note_on', channel=10, note=71, velocity=0, time=8),
    Message('note_on', channel=10, note=74, velocity=1, time=36),
    Message('note_on', channel=10, note=69, velocity=126, time=0),
    Message('note_on', channel=10, note=69, velocity=0, time=376),
    Message('note_on', channel=10, note=72, velocity=108, time=8),
    Message('note_on', channel=10, note=74, velocity=0, time=384),
    Message('note_on', channel=10, note=72, velocity=0, time=0),
    Message('note_on', channel=10, note=76, velocity=126, time=0),
    Message('note_on', channel=10, note=67, velocity=118, time=0),
    Message('note_on', channel=10, note=67, velocity=0, time=755),
    Message('note_on', channel=10, note=76, velocity=0, time=5),
    Message('note_on', channel=10, note=67, velocity=122, time=12296),
    Message('note_on', channel=10, note=76, velocity=115, time=0),
    Message('note_on', channel=10, note=79, velocity=1, time=384),
    Message('note_on', channel=10, note=67, velocity=0, time=376),
    Message('note_on', channel=10, note=76, velocity=0, time=0),
    Message('note_on', channel=10, note=79, velocity=0, time=8),
    Message('note_on', channel=10, note=76, velocity=117, time=0),
    Message('note_on', channel=10, note=70, velocity=113, time=0),
    Message('note_on', channel=10, note=79, velocity=1, time=384),
    Message('note_on', channel=10, note=76, velocity=0, time=38),
    Message('note_on', channel=10, note=79, velocity=0, time=154),
    Message('note_on', channel=10, note=76, velocity=1, time=0),
    Message('note_on', channel=10, note=76, velocity=0, time=148),
    Message('note_on', channel=10, note=70, velocity=0, time=8),
    Message('note_on', channel=10, note=77, velocity=127, time=36),
    Message('note_on', channel=10, note=69, velocity=122, time=0),
    Message('note_on', channel=10, note=81, velocity=118, time=1152),
    Message('note_on', channel=10, note=69, velocity=0, time=355),
    Message('note_on', channel=10, note=77, velocity=0, time=1),
    Message('note_on', channel=10, note=81, velocity=0, time=15),
    Message('note_on', channel=10, note=77, velocity=1, time=13),
    Message('note_on', channel=10, note=72, velocity=126, time=0),
    Message('note_on', channel=10, note=72, velocity=0, time=376),
    Message('note_on', channel=10, note=74, velocity=108, time=8),
    Message('note_on', channel=10, note=77, velocity=0, time=384),
    Message('note_on', channel=10, note=74, velocity=0, time=0),
    Message('note_on', channel=10, note=77, velocity=117, time=0),
    Message('note_on', channel=10, note=71, velocity=113, time=0),
    Message('note_on', channel=10, note=79, velocity=1, time=384),
    Message('note_on', channel=10, note=77, velocity=0, time=38),
    Message('note_on', channel=10, note=79, velocity=0, time=154),
    Message('note_on', channel=10, note=77, velocity=1, time=0),
    Message('note_on', channel=10, note=77, velocity=0, time=148),
    Message('note_on', channel=10, note=71, velocity=0, time=8),
    Message('note_on', channel=10, note=74, velocity=117, time=36),
    Message('note_on', channel=10, note=67, velocity=113, time=0),
    Message('note_on', channel=10, note=76, velocity=1, time=384),
    Message('note_on', channel=10, note=74, velocity=0, time=38),
    Message('note_on', channel=10, note=76, velocity=0, time=154),
    Message('note_on', channel=10, note=74, velocity=1, time=0),
    Message('note_on', channel=10, note=74, velocity=0, time=148),
    Message('note_on', channel=10, note=67, velocity=0, time=8),
    Message('note_on', channel=10, note=72, velocity=126, time=36),
    Message('note_on', channel=10, note=64, velocity=118, time=0),
    Message('note_on', channel=10, note=64, velocity=0, time=755),
    Message('note_on', channel=10, note=72, velocity=0, time=5),
    Message('note_on', channel=10, note=77, velocity=1, time=8),
    Message('note_on', channel=10, note=72, velocity=126, time=0),
    Message('note_on', channel=10, note=72, velocity=0, time=376),
    Message('note_on', channel=10, note=74, velocity=108, time=8),
    Message('note_on', channel=10, note=77, velocity=0, time=384),
    Message('note_on', channel=10, note=74, velocity=0, time=0),
    Message('note_on', channel=10, note=77, velocity=126, time=0),
    Message('note_on', channel=10, note=71, velocity=118, time=0),
    Message('note_on', channel=10, note=71, velocity=0, time=755),
    Message('note_on', channel=10, note=77, velocity=0, time=5),
    Message('note_on', channel=10, note=74, velocity=126, time=8),
    Message('note_on', channel=10, note=69, velocity=118, time=0),
    Message('note_on', channel=10, note=69, velocity=0, time=755),
    Message('note_on', channel=10, note=74, velocity=0, time=5),
    Message('control_change', channel=10, control=64, value=0, time=1544),
    MetaMessage('end_of_track', time=0)]),
  MidiTrack([
    MetaMessage('midi_port', port=2, time=0),
    MetaMessage('track_name', name='bass 3              ', time=0),
    Message('program_change', channel=12, program=32, time=0),
    Message('control_change', channel=12, control=7, value=100, time=0),
    Message('note_on', channel=12, note=36, velocity=68, time=1537),
    Message('note_on', channel=12, note=36, velocity=0, time=261),
    Message('note_on', channel=12, note=36, velocity=70, time=61),
    Message('note_on', channel=12, note=36, velocity=0, time=24),
    Message('note_on', channel=12, note=36, velocity=82, time=40),
    Message('note_on', channel=12, note=36, velocity=0, time=229),
    Message('note_on', channel=12, note=31, velocity=62, time=30),
    Message('note_on', channel=12, note=31, velocity=0, time=18),
    Message('note_on', channel=12, note=33, velocity=85, time=35),
    Message('note_on', channel=12, note=33, velocity=0, time=69),
    Message('note_on', channel=12, note=36, velocity=85, time=0),
    Message('note_on', channel=12, note=36, velocity=0, time=283),
    Message('note_on', channel=12, note=36, velocity=85, time=48),
    Message('note_on', channel=12, note=36, velocity=0, time=19),
    Message('note_on', channel=12, note=36, velocity=87, time=48),
    Message('note_on', channel=12, note=36, velocity=0, time=285),
    Message('note_on', channel=12, note=36, velocity=72, time=21),
    Message('note_on', channel=12, note=36, velocity=0, time=25),
    Message('note_on', channel=12, note=36, velocity=68, time=40),
    Message('note_on', channel=12, note=36, velocity=0, time=261),
    Message('note_on', channel=12, note=36, velocity=70, time=61),
    Message('note_on', channel=12, note=36, velocity=0, time=24),
    Message('note_on', channel=12, note=36, velocity=82, time=40),
    Message('note_on', channel=12, note=36, velocity=0, time=229),
    Message('note_on', channel=12, note=31, velocity=62, time=30),
    Message('note_on', channel=12, note=31, velocity=0, time=18),
    Message('note_on', channel=12, note=33, velocity=85, time=35),
    Message('note_on', channel=12, note=33, velocity=0, time=69),
    Message('note_on', channel=12, note=36, velocity=85, time=0),
    Message('note_on', channel=12, note=36, velocity=0, time=283),
    Message('note_on', channel=12, note=36, velocity=85, time=48),
    Message('note_on', channel=12, note=36, velocity=0, time=19),
    Message('note_on', channel=12, note=36, velocity=87, time=48),
    Message('note_on', channel=12, note=36, velocity=0, time=285),
    Message('note_on', channel=12, note=36, velocity=72, time=21),
    Message('note_on', channel=12, note=36, velocity=0, time=25),
    Message('note_on', channel=12, note=36, velocity=80, time=42),
    Message('note_on', channel=12, note=36, velocity=0, time=256),
    Message('note_on', channel=12, note=36, velocity=82, time=59),
    Message('note_on', channel=12, note=36, velocity=0, time=24),
    Message('note_on', channel=12, note=36, velocity=82, time=45),
    Message('note_on', channel=12, note=36, velocity=0, time=286),
    Message('note_on', channel=12, note=36, velocity=98, time=32),
    Message('note_on', channel=12, note=36, velocity=0, time=29),
    Message('note_on', channel=12, note=40, velocity=80, time=37),
    Message('note_on', channel=12, note=40, velocity=0, time=256),
    Message('note_on', channel=12, note=40, velocity=82, time=59),
    Message('note_on', channel=12, note=40, velocity=0, time=24),
    Message('note_on', channel=12, note=40, velocity=82, time=45),
    Message('note_on', channel=12, note=40, velocity=0, time=286),
    Message('note_on', channel=12, note=40, velocity=98, time=32),
    Message('note_on', channel=12, note=40, velocity=0, time=29),
    Message('note_on', channel=12, note=43, velocity=80, time=37),
    Message('note_on', channel=12, note=43, velocity=0, time=256),
    Message('note_on', channel=12, note=43, velocity=82, time=59),
    Message('note_on', channel=12, note=43, velocity=0, time=24),
    Message('note_on', channel=12, note=43, velocity=82, time=45),
    Message('note_on', channel=12, note=43, velocity=0, time=286),
    Message('note_on', channel=12, note=43, velocity=98, time=32),
    Message('note_on', channel=12, note=43, velocity=0, time=29),
    Message('note_on', channel=12, note=33, velocity=80, time=37),
    Message('note_on', channel=12, note=33, velocity=0, time=256),
    Message('note_on', channel=12, note=33, velocity=82, time=59),
    Message('note_on', channel=12, note=33, velocity=0, time=24),
    Message('note_on', channel=12, note=33, velocity=82, time=45),
    Message('note_on', channel=12, note=33, velocity=0, time=286),
    Message('note_on', channel=12, note=33, velocity=98, time=32),
    Message('note_on', channel=12, note=33, velocity=0, time=29),
    Message('note_on', channel=12, note=38, velocity=80, time=37),
    Message('note_on', channel=12, note=38, velocity=0, time=256),
    Message('note_on', channel=12, note=38, velocity=82, time=59),
    Message('note_on', channel=12, note=38, velocity=0, time=24),
    Message('note_on', channel=12, note=38, velocity=82, time=45),
    Message('note_on', channel=12, note=38, velocity=0, time=286),
    Message('note_on', channel=12, note=38, velocity=98, time=32),
    Message('note_on', channel=12, note=38, velocity=0, time=29),
    Message('note_on', channel=12, note=38, velocity=80, time=37),
    Message('note_on', channel=12, note=38, velocity=0, time=256),
    Message('note_on', channel=12, note=38, velocity=82, time=59),
    Message('note_on', channel=12, note=38, velocity=0, time=24),
    Message('note_on', channel=12, note=38, velocity=82, time=45),
    Message('note_on', channel=12, note=38, velocity=0, time=286),
    Message('note_on', channel=12, note=38, velocity=98, time=32),
    Message('note_on', channel=12, note=38, velocity=0, time=29),
    Message('note_on', channel=12, note=43, velocity=80, time=37),
    Message('note_on', channel=12, note=43, velocity=0, time=256),
    Message('note_on', channel=12, note=43, velocity=82, time=59),
    Message('note_on', channel=12, note=43, velocity=0, time=24),
    Message('note_on', channel=12, note=43, velocity=82, time=45),
    Message('note_on', channel=12, note=43, velocity=0, time=286),
    Message('note_on', channel=12, note=43, velocity=98, time=32),
    Message('note_on', channel=12, note=43, velocity=0, time=29),
    Message('note_on', channel=12, note=36, velocity=80, time=37),
    Message('note_on', channel=12, note=36, velocity=0, time=256),
    Message('note_on', channel=12, note=36, velocity=82, time=59),
    Message('note_on', channel=12, note=36, velocity=0, time=24),
    Message('note_on', channel=12, note=36, velocity=82, time=45),
    Message('note_on', channel=12, note=36, velocity=0, time=286),
    Message('note_on', channel=12, note=36, velocity=98, time=32),
    Message('note_on', channel=12, note=36, velocity=0, time=29),
    Message('note_on', channel=12, note=36, velocity=80, time=34),
    Message('note_on', channel=12, note=36, velocity=0, time=268),
    Message('note_on', channel=12, note=36, velocity=95, time=56),
    Message('note_on', channel=12, note=36, velocity=0, time=34),
    Message('note_on', channel=12, note=36, velocity=80, time=26),
    Message('note_on', channel=12, note=36, velocity=0, time=268),
    Message('note_on', channel=12, note=36, velocity=95, time=56),
    Message('note_on', channel=12, note=36, velocity=0, time=34),
    Message('note_on', channel=12, note=36, velocity=80, time=29),
    Message('note_on', channel=12, note=36, velocity=0, time=256),
    Message('note_on', channel=12, note=36, velocity=82, time=59),
    Message('note_on', channel=12, note=36, velocity=0, time=24),
    Message('note_on', channel=12, note=36, velocity=82, time=45),
    Message('note_on', channel=12, note=36, velocity=0, time=286),
    Message('note_on', channel=12, note=36, velocity=98, time=32),
    Message('note_on', channel=12, note=36, velocity=0, time=29),
    Message('note_on', channel=12, note=41, velocity=80, time=37),
    Message('note_on', channel=12, note=41, velocity=0, time=256),
    Message('note_on', channel=12, note=41, velocity=82, time=59),
    Message('note_on', channel=12, note=41, velocity=0, time=24),
    Message('note_on', channel=12, note=41, velocity=82, time=45),
    Message('note_on', channel=12, note=41, velocity=0, time=286),
    Message('note_on', channel=12, note=41, velocity=98, time=32),
    Message('note_on', channel=12, note=41, velocity=0, time=29),
    Message('note_on', channel=12, note=41, velocity=80, time=37),
    Message('note_on', channel=12, note=41, velocity=0, time=256),
    Message('note_on', channel=12, note=41, velocity=82, time=59),
    Message('note_on', channel=12, note=41, velocity=0, time=24),
    Message('note_on', channel=12, note=41, velocity=82, time=45),
    Message('note_on', channel=12, note=41, velocity=0, time=286),
    Message('note_on', channel=12, note=41, velocity=98, time=32),
    Message('note_on', channel=12, note=41, velocity=0, time=29),
    Message('note_on', channel=12, note=36, velocity=80, time=37),
    Message('note_on', channel=12, note=36, velocity=0, time=256),
    Message('note_on', channel=12, note=36, velocity=82, time=59),
    Message('note_on', channel=12, note=36, velocity=0, time=24),
    Message('note_on', channel=12, note=36, velocity=82, time=45),
    Message('note_on', channel=12, note=36, velocity=0, time=286),
    Message('note_on', channel=12, note=36, velocity=98, time=32),
    Message('note_on', channel=12, note=36, velocity=0, time=29),
    Message('note_on', channel=12, note=43, velocity=80, time=37),
    Message('note_on', channel=12, note=43, velocity=0, time=256),
    Message('note_on', channel=12, note=43, velocity=82, time=59),
    Message('note_on', channel=12, note=43, velocity=0, time=24),
    Message('note_on', channel=12, note=43, velocity=82, time=45),
    Message('note_on', channel=12, note=43, velocity=0, time=286),
    Message('note_on', channel=12, note=43, velocity=98, time=32),
    Message('note_on', channel=12, note=43, velocity=0, time=29),
    Message('note_on', channel=12, note=41, velocity=80, time=37),
    Message('note_on', channel=12, note=41, velocity=0, time=256),
    Message('note_on', channel=12, note=41, velocity=82, time=59),
    Message('note_on', channel=12, note=41, velocity=0, time=24),
    Message('note_on', channel=12, note=41, velocity=82, time=45),
    Message('note_on', channel=12, note=41, velocity=0, time=286),
    Message('note_on', channel=12, note=41, velocity=98, time=32),
    Message('note_on', channel=12, note=41, velocity=0, time=29),
    Message('note_on', channel=12, note=36, velocity=80, time=37),
    Message('note_on', channel=12, note=36, velocity=0, time=256),
    Message('note_on', channel=12, note=36, velocity=82, time=59),
    Message('note_on', channel=12, note=36, velocity=0, time=24),
    Message('note_on', channel=12, note=36, velocity=82, time=45),
    Message('note_on', channel=12, note=36, velocity=0, time=286),
    Message('note_on', channel=12, note=36, velocity=98, time=32),
    Message('note_on', channel=12, note=36, velocity=0, time=29),
    Message('note_on', channel=12, note=36, velocity=80, time=37),
    Message('note_on', channel=12, note=36, velocity=0, time=256),
    Message('note_on', channel=12, note=36, velocity=82, time=59),
    Message('note_on', channel=12, note=36, velocity=0, time=24),
    Message('note_on', channel=12, note=36, velocity=82, time=45),
    Message('note_on', channel=12, note=36, velocity=0, time=286),
    Message('note_on', channel=12, note=36, velocity=98, time=32),
    Message('note_on', channel=12, note=36, velocity=0, time=29),
    Message('note_on', channel=12, note=40, velocity=80, time=37),
    Message('note_on', channel=12, note=40, velocity=0, time=256),
    Message('note_on', channel=12, note=40, velocity=82, time=59),
    Message('note_on', channel=12, note=40, velocity=0, time=24),
    Message('note_on', channel=12, note=40, velocity=82, time=45),
    Message('note_on', channel=12, note=40, velocity=0, time=286),
    Message('note_on', channel=12, note=40, velocity=98, time=32),
    Message('note_on', channel=12, note=40, velocity=0, time=29),
    Message('note_on', channel=12, note=43, velocity=80, time=37),
    Message('note_on', channel=12, note=43, velocity=0, time=256),
    Message('note_on', channel=12, note=43, velocity=82, time=59),
    Message('note_on', channel=12, note=43, velocity=0, time=24),
    Message('note_on', channel=12, note=43, velocity=82, time=45),
    Message('note_on', channel=12, note=43, velocity=0, time=286),
    Message('note_on', channel=12, note=43, velocity=98, time=32),
    Message('note_on', channel=12, note=43, velocity=0, time=29),
    Message('note_on', channel=12, note=33, velocity=80, time=37),
    Message('note_on', channel=12, note=33, velocity=0, time=256),
    Message('note_on', channel=12, note=33, velocity=82, time=59),
    Message('note_on', channel=12, note=33, velocity=0, time=24),
    Message('note_on', channel=12, note=33, velocity=82, time=45),
    Message('note_on', channel=12, note=33, velocity=0, time=286),
    Message('note_on', channel=12, note=33, velocity=98, time=32),
    Message('note_on', channel=12, note=33, velocity=0, time=29),
    Message('note_on', channel=12, note=38, velocity=80, time=37),
    Message('note_on', channel=12, note=38, velocity=0, time=256),
    Message('note_on', channel=12, note=38, velocity=82, time=59),
    Message('note_on', channel=12, note=38, velocity=0, time=24),
    Message('note_on', channel=12, note=38, velocity=82, time=45),
    Message('note_on', channel=12, note=38, velocity=0, time=286),
    Message('note_on', channel=12, note=38, velocity=98, time=32),
    Message('note_on', channel=12, note=38, velocity=0, time=29),
    Message('note_on', channel=12, note=38, velocity=80, time=37),
    Message('note_on', channel=12, note=38, velocity=0, time=256),
    Message('note_on', channel=12, note=38, velocity=82, time=59),
    Message('note_on', channel=12, note=38, velocity=0, time=24),
    Message('note_on', channel=12, note=38, velocity=82, time=45),
    Message('note_on', channel=12, note=38, velocity=0, time=286),
    Message('note_on', channel=12, note=38, velocity=98, time=32),
    Message('note_on', channel=12, note=38, velocity=0, time=29),
    Message('note_on', channel=12, note=43, velocity=80, time=37),
    Message('note_on', channel=12, note=43, velocity=0, time=256),
    Message('note_on', channel=12, note=43, velocity=82, time=59),
    Message('note_on', channel=12, note=43, velocity=0, time=24),
    Message('note_on', channel=12, note=43, velocity=82, time=45),
    Message('note_on', channel=12, note=43, velocity=0, time=286),
    Message('note_on', channel=12, note=43, velocity=98, time=32),
    Message('note_on', channel=12, note=43, velocity=0, time=29),
    Message('note_on', channel=12, note=36, velocity=80, time=37),
    Message('note_on', channel=12, note=36, velocity=0, time=256),
    Message('note_on', channel=12, note=36, velocity=82, time=59),
    Message('note_on', channel=12, note=36, velocity=0, time=24),
    Message('note_on', channel=12, note=36, velocity=82, time=45),
    Message('note_on', channel=12, note=36, velocity=0, time=286),
    Message('note_on', channel=12, note=36, velocity=98, time=32),
    Message('note_on', channel=12, note=36, velocity=0, time=29),
    Message('note_on', channel=12, note=36, velocity=80, time=34),
    Message('note_on', channel=12, note=36, velocity=0, time=268),
    Message('note_on', channel=12, note=36, velocity=95, time=56),
    Message('note_on', channel=12, note=36, velocity=0, time=34),
    Message('note_on', channel=12, note=36, velocity=80, time=26),
    Message('note_on', channel=12, note=36, velocity=0, time=268),
    Message('note_on', channel=12, note=36, velocity=95, time=56),
    Message('note_on', channel=12, note=36, velocity=0, time=34),
    Message('note_on', channel=12, note=36, velocity=80, time=29),
    Message('note_on', channel=12, note=36, velocity=0, time=256),
    Message('note_on', channel=12, note=36, velocity=82, time=59),
    Message('note_on', channel=12, note=36, velocity=0, time=24),
    Message('note_on', channel=12, note=36, velocity=82, time=45),
    Message('note_on', channel=12, note=36, velocity=0, time=286),
    Message('note_on', channel=12, note=36, velocity=98, time=32),
    Message('note_on', channel=12, note=36, velocity=0, time=29),
    Message('note_on', channel=12, note=41, velocity=80, time=37),
    Message('note_on', channel=12, note=41, velocity=0, time=256),
    Message('note_on', channel=12, note=41, velocity=82, time=59),
    Message('note_on', channel=12, note=41, velocity=0, time=24),
    Message('note_on', channel=12, note=41, velocity=82, time=45),
    Message('note_on', channel=12, note=41, velocity=0, time=286),
    Message('note_on', channel=12, note=41, velocity=98, time=32),
    Message('note_on', channel=12, note=41, velocity=0, time=29),
    Message('note_on', channel=12, note=41, velocity=80, time=37),
    Message('note_on', channel=12, note=41, velocity=0, time=256),
    Message('note_on', channel=12, note=41, velocity=82, time=59),
    Message('note_on', channel=12, note=41, velocity=0, time=24),
    Message('note_on', channel=12, note=41, velocity=82, time=45),
    Message('note_on', channel=12, note=41, velocity=0, time=286),
    Message('note_on', channel=12, note=41, velocity=98, time=32),
    Message('note_on', channel=12, note=41, velocity=0, time=29),
    Message('note_on', channel=12, note=36, velocity=80, time=37),
    Message('note_on', channel=12, note=36, velocity=0, time=256),
    Message('note_on', channel=12, note=36, velocity=82, time=59),
    Message('note_on', channel=12, note=36, velocity=0, time=24),
    Message('note_on', channel=12, note=36, velocity=82, time=45),
    Message('note_on', channel=12, note=36, velocity=0, time=286),
    Message('note_on', channel=12, note=36, velocity=98, time=32),
    Message('note_on', channel=12, note=36, velocity=0, time=29),
    Message('note_on', channel=12, note=43, velocity=80, time=37),
    Message('note_on', channel=12, note=43, velocity=0, time=256),
    Message('note_on', channel=12, note=43, velocity=82, time=59),
    Message('note_on', channel=12, note=43, velocity=0, time=24),
    Message('note_on', channel=12, note=43, velocity=82, time=45),
    Message('note_on', channel=12, note=43, velocity=0, time=286),
    Message('note_on', channel=12, note=43, velocity=98, time=32),
    Message('note_on', channel=12, note=43, velocity=0, time=29),
    Message('note_on', channel=12, note=41, velocity=80, time=37),
    Message('note_on', channel=12, note=41, velocity=0, time=256),
    Message('note_on', channel=12, note=41, velocity=82, time=59),
    Message('note_on', channel=12, note=41, velocity=0, time=24),
    Message('note_on', channel=12, note=41, velocity=82, time=45),
    Message('note_on', channel=12, note=41, velocity=0, time=286),
    Message('note_on', channel=12, note=41, velocity=98, time=32),
    Message('note_on', channel=12, note=41, velocity=0, time=29),
    Message('note_on', channel=12, note=36, velocity=80, time=37),
    Message('note_on', channel=12, note=36, velocity=0, time=256),
    Message('note_on', channel=12, note=36, velocity=82, time=59),
    Message('note_on', channel=12, note=36, velocity=0, time=24),
    Message('note_on', channel=12, note=36, velocity=82, time=45),
    Message('note_on', channel=12, note=36, velocity=0, time=286),
    Message('note_on', channel=12, note=36, velocity=98, time=32),
    Message('note_on', channel=12, note=36, velocity=0, time=29),
    Message('note_on', channel=12, note=36, velocity=80, time=42),
    Message('note_on', channel=12, note=36, velocity=0, time=256),
    Message('note_on', channel=12, note=36, velocity=87, time=56),
    Message('note_on', channel=12, note=36, velocity=0, time=20),
    Message('note_on', channel=12, note=36, velocity=93, time=50),
    Message('note_on', channel=12, note=31, velocity=85, time=258),
    Message('note_on', channel=12, note=36, velocity=0, time=3),
    Message('note_on', channel=12, note=31, velocity=0, time=51),
    Message('note_on', channel=12, note=33, velocity=95, time=5),
    Message('note_on', channel=12, note=33, velocity=0, time=35),
    Message('note_on', channel=12, note=36, velocity=85, time=26),
    Message('note_on', channel=12, note=36, velocity=0, time=272),
    Message('note_on', channel=12, note=36, velocity=64, time=49),
    Message('note_on', channel=12, note=36, velocity=0, time=21),
    Message('note_on', channel=12, note=36, velocity=82, time=46),
    Message('note_on', channel=12, note=36, velocity=0, time=279),
    Message('note_on', channel=12, note=36, velocity=89, time=25),
    Message('note_on', channel=12, note=36, velocity=0, time=31),
    Message('note_on', channel=12, note=41, velocity=100, time=48),
    Message('note_on', channel=12, note=48, velocity=95, time=310),
    Message('note_on', channel=12, note=41, velocity=0, time=3),
    Message('note_on', channel=12, note=50, velocity=98, time=18),
    Message('note_on', channel=12, note=48, velocity=0, time=3),
    Message('note_on', channel=12, note=50, velocity=0, time=67),
    Message('note_on', channel=12, note=48, velocity=59, time=2),
    Message('note_on', channel=12, note=50, velocity=80, time=293),
    Message('note_on', channel=12, note=48, velocity=0, time=6),
    Message('note_on', channel=12, note=41, velocity=87, time=77),
    Message('note_on', channel=12, note=50, velocity=0, time=2),
    Message('note_on', channel=12, note=41, velocity=0, time=243),
    Message('note_on', channel=12, note=36, velocity=87, time=3),
    Message('note_on', channel=12, note=36, velocity=0, time=53),
    Message('note_on', channel=12, note=38, velocity=66, time=0),
    Message('note_on', channel=12, note=41, velocity=87, time=67),
    Message('note_on', channel=12, note=38, velocity=0, time=3),
    Message('note_on', channel=12, note=41, velocity=0, time=251),
    Message('note_on', channel=12, note=41, velocity=87, time=69),
    Message('note_on', channel=12, note=41, velocity=0, time=31),
    Message('note_on', channel=12, note=38, velocity=89, time=36),
    Message('note_on', channel=12, note=38, velocity=0, time=280),
    Message('note_on', channel=12, note=38, velocity=78, time=37),
    Message('note_on', channel=12, note=38, velocity=0, time=26),
    Message('note_on', channel=12, note=38, velocity=95, time=40),
    Message('note_on', channel=12, note=38, velocity=0, time=229),
    Message('note_on', channel=12, note=38, velocity=52, time=33),
    Message('note_on', channel=12, note=38, velocity=0, time=23),
    Message('note_on', channel=12, note=38, velocity=91, time=33),
    Message('note_on', channel=12, note=38, velocity=0, time=32),
    Message('note_on', channel=12, note=43, velocity=80, time=39),
    Message('note_on', channel=12, note=43, velocity=0, time=256),
    Message('note_on', channel=12, note=43, velocity=87, time=56),
    Message('note_on', channel=12, note=43, velocity=0, time=20),
    Message('note_on', channel=12, note=43, velocity=93, time=50),
    Message('note_on', channel=12, note=38, velocity=85, time=258),
    Message('note_on', channel=12, note=43, velocity=0, time=3),
    Message('note_on', channel=12, note=38, velocity=0, time=51),
    Message('note_on', channel=12, note=40, velocity=95, time=5),
    Message('note_on', channel=12, note=40, velocity=0, time=35),
    Message('note_on', channel=12, note=40, velocity=89, time=30),
    Message('note_on', channel=12, note=40, velocity=0, time=280),
    Message('note_on', channel=12, note=40, velocity=78, time=37),
    Message('note_on', channel=12, note=40, velocity=0, time=26),
    Message('note_on', channel=12, note=40, velocity=95, time=40),
    Message('note_on', channel=12, note=40, velocity=0, time=229),
    Message('note_on', channel=12, note=40, velocity=52, time=33),
    Message('note_on', channel=12, note=40, velocity=0, time=23),
    Message('note_on', channel=12, note=40, velocity=91, time=33),
    Message('note_on', channel=12, note=40, velocity=0, time=32),
    Message('note_on', channel=12, note=33, velocity=85, time=31),
    Message('note_on', channel=12, note=33, velocity=0, time=272),
    Message('note_on', channel=12, note=33, velocity=64, time=49),
    Message('note_on', channel=12, note=33, velocity=0, time=21),
    Message('note_on', channel=12, note=33, velocity=82, time=46),
    Message('note_on', channel=12, note=33, velocity=0, time=279),
    Message('note_on', channel=12, note=33, velocity=89, time=25),
    Message('note_on', channel=12, note=33, velocity=0, time=31),
    Message('note_on', channel=12, note=38, velocity=85, time=45),
    Message('note_on', channel=12, note=38, velocity=0, time=272),
    Message('note_on', channel=12, note=38, velocity=64, time=49),
    Message('note_on', channel=12, note=38, velocity=0, time=21),
    Message('note_on', channel=12, note=38, velocity=82, time=46),
    Message('note_on', channel=12, note=38, velocity=0, time=279),
    Message('note_on', channel=12, note=38, velocity=89, time=25),
    Message('note_on', channel=12, note=38, velocity=0, time=31),
    Message('note_on', channel=12, note=43, velocity=89, time=49),
    Message('note_on', channel=12, note=43, velocity=0, time=280),
    Message('note_on', channel=12, note=43, velocity=78, time=37),
    Message('note_on', channel=12, note=43, velocity=0, time=26),
    Message('note_on', channel=12, note=43, velocity=95, time=40),
    Message('note_on', channel=12, note=43, velocity=0, time=229),
    Message('note_on', channel=12, note=43, velocity=52, time=33),
    Message('note_on', channel=12, note=43, velocity=0, time=23),
    Message('note_on', channel=12, note=43, velocity=91, time=33),
    Message('note_on', channel=12, note=43, velocity=0, time=32),
    Message('note_on', channel=12, note=41, velocity=89, time=35),
    Message('note_on', channel=12, note=41, velocity=0, time=280),
    Message('note_on', channel=12, note=41, velocity=78, time=37),
    Message('note_on', channel=12, note=41, velocity=0, time=26),
    Message('note_on', channel=12, note=41, velocity=95, time=40),
    Message('note_on', channel=12, note=41, velocity=0, time=229),
    Message('note_on', channel=12, note=40, velocity=52, time=33),
    Message('note_on', channel=12, note=40, velocity=0, time=23),
    Message('note_on', channel=12, note=38, velocity=91, time=33),
    Message('note_on', channel=12, note=38, velocity=0, time=32),
    Message('note_on', channel=12, note=36, velocity=80, time=39),
    Message('note_on', channel=12, note=36, velocity=0, time=256),
    Message('note_on', channel=12, note=36, velocity=87, time=56),
    Message('note_on', channel=12, note=36, velocity=0, time=20),
    Message('note_on', channel=12, note=36, velocity=93, time=50),
    Message('note_on', channel=12, note=31, velocity=85, time=258),
    Message('note_on', channel=12, note=36, velocity=0, time=3),
    Message('note_on', channel=12, note=31, velocity=0, time=51),
    Message('note_on', channel=12, note=33, velocity=95, time=5),
    Message('note_on', channel=12, note=33, velocity=0, time=35),
    Message('note_on', channel=12, note=36, velocity=80, time=29),
    Message('note_on', channel=12, note=36, velocity=0, time=256),
    Message('note_on', channel=12, note=36, velocity=82, time=59),
    Message('note_on', channel=12, note=36, velocity=0, time=24),
    Message('note_on', channel=12, note=36, velocity=82, time=45),
    Message('note_on', channel=12, note=36, velocity=0, time=286),
    Message('note_on', channel=12, note=36, velocity=98, time=32),
    Message('note_on', channel=12, note=36, velocity=0, time=29),
    Message('note_on', channel=12, note=40, velocity=80, time=37),
    Message('note_on', channel=12, note=40, velocity=0, time=256),
    Message('note_on', channel=12, note=40, velocity=82, time=59),
    Message('note_on', channel=12, note=40, velocity=0, time=24),
    Message('note_on', channel=12, note=40, velocity=82, time=45),
    Message('note_on', channel=12, note=40, velocity=0, time=286),
    Message('note_on', channel=12, note=40, velocity=98, time=32),
    Message('note_on', channel=12, note=40, velocity=0, time=29),
    Message('note_on', channel=12, note=43, velocity=80, time=37),
    Message('note_on', channel=12, note=43, velocity=0, time=256),
    Message('note_on', channel=12, note=43, velocity=82, time=59),
    Message('note_on', channel=12, note=43, velocity=0, time=24),
    Message('note_on', channel=12, note=43, velocity=82, time=45),
    Message('note_on', channel=12, note=43, velocity=0, time=286),
    Message('note_on', channel=12, note=43, velocity=98, time=32),
    Message('note_on', channel=12, note=43, velocity=0, time=29),
    Message('note_on', channel=12, note=33, velocity=80, time=37),
    Message('note_on', channel=12, note=33, velocity=0, time=256),
    Message('note_on', channel=12, note=33, velocity=82, time=59),
    Message('note_on', channel=12, note=33, velocity=0, time=24),
    Message('note_on', channel=12, note=33, velocity=82, time=45),
    Message('note_on', channel=12, note=33, velocity=0, time=286),
    Message('note_on', channel=12, note=33, velocity=98, time=32),
    Message('note_on', channel=12, note=33, velocity=0, time=29),
    Message('note_on', channel=12, note=38, velocity=80, time=37),
    Message('note_on', channel=12, note=38, velocity=0, time=256),
    Message('note_on', channel=12, note=38, velocity=82, time=59),
    Message('note_on', channel=12, note=38, velocity=0, time=24),
    Message('note_on', channel=12, note=38, velocity=82, time=45),
    Message('note_on', channel=12, note=38, velocity=0, time=286),
    Message('note_on', channel=12, note=38, velocity=98, time=32),
    Message('note_on', channel=12, note=38, velocity=0, time=29),
    Message('note_on', channel=12, note=38, velocity=80, time=37),
    Message('note_on', channel=12, note=38, velocity=0, time=256),
    Message('note_on', channel=12, note=38, velocity=82, time=59),
    Message('note_on', channel=12, note=38, velocity=0, time=24),
    Message('note_on', channel=12, note=38, velocity=82, time=45),
    Message('note_on', channel=12, note=38, velocity=0, time=286),
    Message('note_on', channel=12, note=38, velocity=98, time=32),
    Message('note_on', channel=12, note=38, velocity=0, time=29),
    Message('note_on', channel=12, note=43, velocity=80, time=37),
    Message('note_on', channel=12, note=43, velocity=0, time=256),
    Message('note_on', channel=12, note=43, velocity=82, time=59),
    Message('note_on', channel=12, note=43, velocity=0, time=24),
    Message('note_on', channel=12, note=43, velocity=82, time=45),
    Message('note_on', channel=12, note=43, velocity=0, time=286),
    Message('note_on', channel=12, note=43, velocity=98, time=32),
    Message('note_on', channel=12, note=43, velocity=0, time=29),
    Message('note_on', channel=12, note=36, velocity=80, time=37),
    Message('note_on', channel=12, note=36, velocity=0, time=256),
    Message('note_on', channel=12, note=36, velocity=82, time=59),
    Message('note_on', channel=12, note=36, velocity=0, time=24),
    Message('note_on', channel=12, note=36, velocity=82, time=45),
    Message('note_on', channel=12, note=36, velocity=0, time=286),
    Message('note_on', channel=12, note=36, velocity=98, time=32),
    Message('note_on', channel=12, note=36, velocity=0, time=29),
    Message('note_on', channel=12, note=36, velocity=80, time=34),
    Message('note_on', channel=12, note=36, velocity=0, time=268),
    Message('note_on', channel=12, note=36, velocity=95, time=56),
    Message('note_on', channel=12, note=36, velocity=0, time=34),
    Message('note_on', channel=12, note=36, velocity=80, time=26),
    Message('note_on', channel=12, note=36, velocity=0, time=268),
    Message('note_on', channel=12, note=36, velocity=95, time=56),
    Message('note_on', channel=12, note=36, velocity=0, time=34),
    Message('note_on', channel=12, note=36, velocity=80, time=29),
    Message('note_on', channel=12, note=36, velocity=0, time=256),
    Message('note_on', channel=12, note=36, velocity=82, time=59),
    Message('note_on', channel=12, note=36, velocity=0, time=24),
    Message('note_on', channel=12, note=36, velocity=82, time=45),
    Message('note_on', channel=12, note=36, velocity=0, time=286),
    Message('note_on', channel=12, note=36, velocity=98, time=32),
    Message('note_on', channel=12, note=36, velocity=0, time=29),
    Message('note_on', channel=12, note=41, velocity=80, time=37),
    Message('note_on', channel=12, note=41, velocity=0, time=256),
    Message('note_on', channel=12, note=41, velocity=82, time=59),
    Message('note_on', channel=12, note=41, velocity=0, time=24),
    Message('note_on', channel=12, note=41, velocity=82, time=45),
    Message('note_on', channel=12, note=41, velocity=0, time=286),
    Message('note_on', channel=12, note=41, velocity=98, time=32),
    Message('note_on', channel=12, note=41, velocity=0, time=29),
    Message('note_on', channel=12, note=41, velocity=80, time=37),
    Message('note_on', channel=12, note=41, velocity=0, time=256),
    Message('note_on', channel=12, note=41, velocity=82, time=59),
    Message('note_on', channel=12, note=41, velocity=0, time=24),
    Message('note_on', channel=12, note=41, velocity=82, time=45),
    Message('note_on', channel=12, note=41, velocity=0, time=286),
    Message('note_on', channel=12, note=41, velocity=98, time=32),
    Message('note_on', channel=12, note=41, velocity=0, time=29),
    Message('note_on', channel=12, note=36, velocity=80, time=37),
    Message('note_on', channel=12, note=36, velocity=0, time=256),
    Message('note_on', channel=12, note=36, velocity=82, time=59),
    Message('note_on', channel=12, note=36, velocity=0, time=24),
    Message('note_on', channel=12, note=36, velocity=82, time=45),
    Message('note_on', channel=12, note=36, velocity=0, time=286),
    Message('note_on', channel=12, note=36, velocity=98, time=32),
    Message('note_on', channel=12, note=36, velocity=0, time=29),
    Message('note_on', channel=12, note=43, velocity=80, time=37),
    Message('note_on', channel=12, note=43, velocity=0, time=256),
    Message('note_on', channel=12, note=43, velocity=82, time=59),
    Message('note_on', channel=12, note=43, velocity=0, time=24),
    Message('note_on', channel=12, note=43, velocity=82, time=45),
    Message('note_on', channel=12, note=43, velocity=0, time=286),
    Message('note_on', channel=12, note=43, velocity=98, time=32),
    Message('note_on', channel=12, note=43, velocity=0, time=29),
    Message('note_on', channel=12, note=41, velocity=80, time=37),
    Message('note_on', channel=12, note=41, velocity=0, time=256),
    Message('note_on', channel=12, note=41, velocity=82, time=59),
    Message('note_on', channel=12, note=41, velocity=0, time=24),
    Message('note_on', channel=12, note=41, velocity=82, time=45),
    Message('note_on', channel=12, note=41, velocity=0, time=286),
    Message('note_on', channel=12, note=41, velocity=98, time=32),
    Message('note_on', channel=12, note=41, velocity=0, time=29),
    Message('note_on', channel=12, note=36, velocity=80, time=37),
    Message('note_on', channel=12, note=36, velocity=0, time=256),
    Message('note_on', channel=12, note=36, velocity=82, time=59),
    Message('note_on', channel=12, note=36, velocity=0, time=24),
    Message('note_on', channel=12, note=36, velocity=82, time=45),
    Message('note_on', channel=12, note=36, velocity=0, time=286),
    Message('note_on', channel=12, note=36, velocity=98, time=32),
    Message('note_on', channel=12, note=36, velocity=0, time=29),
    Message('note_on', channel=12, note=36, velocity=85, time=34),
    Message('note_on', channel=12, note=36, velocity=0, time=272),
    Message('note_on', channel=12, note=36, velocity=64, time=49),
    Message('note_on', channel=12, note=36, velocity=0, time=21),
    Message('note_on', channel=12, note=36, velocity=82, time=46),
    Message('note_on', channel=12, note=36, velocity=0, time=279),
    Message('note_on', channel=12, note=36, velocity=89, time=25),
    Message('note_on', channel=12, note=36, velocity=0, time=31),
    Message('note_on', channel=12, note=36, velocity=89, time=49),
    Message('note_on', channel=12, note=36, velocity=0, time=280),
    Message('note_on', channel=12, note=36, velocity=78, time=37),
    Message('note_on', channel=12, note=36, velocity=0, time=26),
    Message('note_on', channel=12, note=36, velocity=95, time=40),
    Message('note_on', channel=12, note=36, velocity=0, time=229),
    Message('note_on', channel=12, note=36, velocity=52, time=33),
    Message('note_on', channel=12, note=36, velocity=0, time=23),
    Message('note_on', channel=12, note=36, velocity=91, time=33),
    Message('note_on', channel=12, note=36, velocity=0, time=32),
    Message('note_on', channel=12, note=41, velocity=100, time=34),
    Message('note_on', channel=12, note=48, velocity=95, time=310),
    Message('note_on', channel=12, note=41, velocity=0, time=3),
    Message('note_on', channel=12, note=50, velocity=98, time=18),
    Message('note_on', channel=12, note=48, velocity=0, time=3),
    Message('note_on', channel=12, note=50, velocity=0, time=67),
    Message('note_on', channel=12, note=48, velocity=59, time=2),
    Message('note_on', channel=12, note=50, velocity=80, time=293),
    Message('note_on', channel=12, note=48, velocity=0, time=6),
    Message('note_on', channel=12, note=41, velocity=87, time=77),
    Message('note_on', channel=12, note=50, velocity=0, time=2),
    Message('note_on', channel=12, note=41, velocity=0, time=243),
    Message('note_on', channel=12, note=36, velocity=87, time=3),
    Message('note_on', channel=12, note=36, velocity=0, time=53),
    Message('note_on', channel=12, note=38, velocity=66, time=0),
    Message('note_on', channel=12, note=41, velocity=87, time=67),
    Message('note_on', channel=12, note=38, velocity=0, time=3),
    Message('note_on', channel=12, note=41, velocity=0, time=251),
    Message('note_on', channel=12, note=41, velocity=87, time=69),
    Message('note_on', channel=12, note=41, velocity=0, time=31),
    Message('note_on', channel=12, note=38, velocity=85, time=32),
    Message('note_on', channel=12, note=38, velocity=0, time=272),
    Message('note_on', channel=12, note=38, velocity=64, time=49),
    Message('note_on', channel=12, note=38, velocity=0, time=21),
    Message('note_on', channel=12, note=38, velocity=82, time=46),
    Message('note_on', channel=12, note=38, velocity=0, time=279),
    Message('note_on', channel=12, note=38, velocity=89, time=25),
    Message('note_on', channel=12, note=38, velocity=0, time=31),
    Message('note_on', channel=12, note=43, velocity=80, time=53),
    Message('note_on', channel=12, note=43, velocity=0, time=256),
    Message('note_on', channel=12, note=43, velocity=87, time=56),
    Message('note_on', channel=12, note=43, velocity=0, time=20),
    Message('note_on', channel=12, note=43, velocity=93, time=50),
    Message('note_on', channel=12, note=38, velocity=85, time=258),
    Message('note_on', channel=12, note=43, velocity=0, time=3),
    Message('note_on', channel=12, note=38, velocity=0, time=51),
    Message('note_on', channel=12, note=40, velocity=95, time=5),
    Message('note_on', channel=12, note=40, velocity=0, time=35),
    Message('note_on', channel=12, note=40, velocity=80, time=34),
    Message('note_on', channel=12, note=40, velocity=0, time=256),
    Message('note_on', channel=12, note=40, velocity=87, time=56),
    Message('note_on', channel=12, note=40, velocity=0, time=20),
    Message('note_on', channel=12, note=40, velocity=93, time=50),
    Message('note_on', channel=12, note=35, velocity=85, time=258),
    Message('note_on', channel=12, note=40, velocity=0, time=3),
    Message('note_on', channel=12, note=35, velocity=0, time=51),
    Message('note_on', channel=12, note=36, velocity=95, time=5),
    Message('note_on', channel=12, note=36, velocity=0, time=35),
    Message('note_on', channel=12, note=33, velocity=89, time=30),
    Message('note_on', channel=12, note=33, velocity=0, time=280),
    Message('note_on', channel=12, note=33, velocity=78, time=37),
    Message('note_on', channel=12, note=33, velocity=0, time=26),
    Message('note_on', channel=12, note=33, velocity=95, time=40),
    Message('note_on', channel=12, note=33, velocity=0, time=229),
    Message('note_on', channel=12, note=33, velocity=52, time=33),
    Message('note_on', channel=12, note=33, velocity=0, time=23),
    Message('note_on', channel=12, note=33, velocity=91, time=33),
    Message('note_on', channel=12, note=33, velocity=0, time=32),
    Message('note_on', channel=12, note=38, velocity=85, time=31),
    Message('note_on', channel=12, note=38, velocity=0, time=272),
    Message('note_on', channel=12, note=38, velocity=64, time=49),
    Message('note_on', channel=12, note=38, velocity=0, time=21),
    Message('note_on', channel=12, note=38, velocity=82, time=46),
    Message('note_on', channel=12, note=38, velocity=0, time=279),
    Message('note_on', channel=12, note=38, velocity=89, time=25),
    Message('note_on', channel=12, note=38, velocity=0, time=31),
    Message('note_on', channel=12, note=43, velocity=85, time=45),
    Message('note_on', channel=12, note=43, velocity=0, time=272),
    Message('note_on', channel=12, note=43, velocity=64, time=49),
    Message('note_on', channel=12, note=43, velocity=0, time=21),
    Message('note_on', channel=12, note=43, velocity=82, time=46),
    Message('note_on', channel=12, note=43, velocity=0, time=279),
    Message('note_on', channel=12, note=43, velocity=89, time=25),
    Message('note_on', channel=12, note=43, velocity=0, time=31),
    Message('note_on', channel=12, note=41, velocity=85, time=45),
    Message('note_on', channel=12, note=41, velocity=0, time=272),
    Message('note_on', channel=12, note=41, velocity=64, time=49),
    Message('note_on', channel=12, note=41, velocity=0, time=21),
    Message('note_on', channel=12, note=41, velocity=82, time=46),
    Message('note_on', channel=12, note=41, velocity=0, time=279),
    Message('note_on', channel=12, note=41, velocity=89, time=25),
    Message('note_on', channel=12, note=41, velocity=0, time=31),
    Message('note_on', channel=12, note=36, velocity=68, time=46),
    Message('note_on', channel=12, note=36, velocity=0, time=261),
    Message('note_on', channel=12, note=36, velocity=70, time=61),
    Message('note_on', channel=12, note=36, velocity=0, time=24),
    Message('note_on', channel=12, note=36, velocity=82, time=40),
    Message('note_on', channel=12, note=36, velocity=0, time=229),
    Message('note_on', channel=12, note=31, velocity=62, time=30),
    Message('note_on', channel=12, note=31, velocity=0, time=18),
    Message('note_on', channel=12, note=33, velocity=85, time=35),
    Message('note_on', channel=12, note=33, velocity=0, time=69),
    Message('note_on', channel=12, note=36, velocity=85, time=0),
    Message('note_on', channel=12, note=36, velocity=0, time=283),
    Message('note_on', channel=12, note=36, velocity=85, time=48),
    Message('note_on', channel=12, note=36, velocity=0, time=19),
    Message('note_on', channel=12, note=36, velocity=87, time=48),
    Message('note_on', channel=12, note=36, velocity=0, time=285),
    MetaMessage('end_of_track', time=0)]),
  MidiTrack([
    MetaMessage('midi_port', port=2, time=0),
    MetaMessage('track_name', name='rhodes 3            ', time=0),
    Message('program_change', channel=13, program=4, time=0),
    Message('control_change', channel=13, control=7, value=80, time=0),
    Message('control_change', channel=13, control=64, value=0, time=0),
    Message('note_on', channel=13, note=60, velocity=70, time=1542),
    Message('note_on', channel=13, note=64, velocity=57, time=64),
    Message('note_on', channel=13, note=67, velocity=59, time=61),
    Message('control_change', channel=13, control=64, value=127, time=21),
    Message('note_on', channel=13, note=72, velocity=82, time=43),
    Message('note_on', channel=13, note=67, velocity=0, time=16),
    Message('note_on', channel=13, note=64, velocity=0, time=6),
    Message('note_on', channel=13, note=60, velocity=0, time=21),
    Message('note_on', channel=13, note=72, velocity=0, time=16),
    Message('note_on', channel=13, note=67, velocity=42, time=5),
    Message('note_on', channel=13, note=64, velocity=63, time=62),
    Message('control_change', channel=13, control=64, value=0, time=42),
    Message('note_on', channel=13, note=60, velocity=64, time=22),
    Message('note_on', channel=13, note=64, velocity=0, time=8),
    Message('note_on', channel=13, note=67, velocity=0, time=2),
    Message('note_on', channel=13, note=64, velocity=63, time=53),
    Message('control_change', channel=13, control=64, value=127, time=51),
    Message('note_on', channel=13, note=67, velocity=58, time=13),
    Message('note_on', channel=13, note=72, velocity=63, time=65),
    Message('note_on', channel=13, note=67, velocity=0, time=23),
    Message('note_on', channel=13, note=64, velocity=0, time=6),
    Message('note_on', channel=13, note=60, velocity=0, time=24),
    Message('note_on', channel=13, note=72, velocity=0, time=6),
    Message('note_on', channel=13, note=67, velocity=50, time=15),
    Message('note_on', channel=13, note=64, velocity=61, time=56),
    Message('note_on', channel=13, note=48, velocity=66, time=30),
    Message('control_change', channel=13, control=64, value=0, time=18),
    Message('note_on', channel=13, note=64, velocity=0, time=16),
    Message('note_on', channel=13, note=60, velocity=70, time=0),
    Message('note_on', channel=13, note=36, velocity=34, time=1),
    Message('note_on', channel=13, note=67, velocity=0, time=8),
    Message('note_on', channel=13, note=64, velocity=66, time=45),
    Message('control_change', channel=13, control=64, value=127, time=40),
    Message('note_on', channel=13, note=67, velocity=63, time=26),
    Message('note_on', channel=13, note=72, velocity=68, time=64),
    Message('note_on', channel=13, note=67, velocity=0, time=19),
    Message('note_on', channel=13, note=64, velocity=0, time=10),
    Message('note_on', channel=13, note=72, velocity=0, time=35),
    Message('note_on', channel=13, note=67, velocity=60, time=1),
    Message('note_on', channel=13, note=60, velocity=0, time=40),
    Message('note_on', channel=13, note=67, velocity=0, time=15),
    Message('note_on', channel=13, note=67, velocity=30, time=11),
    Message('note_on', channel=13, note=64, velocity=66, time=3),
    Message('note_on', channel=13, note=48, velocity=0, time=5),
    Message('note_on', channel=13, note=43, velocity=66, time=22),
    Message('control_change', channel=13, control=64, value=0, time=21),
    Message('note_on', channel=13, note=60, velocity=64, time=11),
    Message('note_on', channel=13, note=48, velocity=58, time=2),
    Message('note_on', channel=13, note=43, velocity=0, time=2),
    Message('note_on', channel=13, note=64, velocity=0, time=16),
    Message('control_change', channel=13, control=64, value=127, time=11),
    Message('note_on', channel=13, note=67, velocity=0, time=17),
    Message('note_on', channel=13, note=64, velocity=55, time=26),
    Message('note_on', channel=13, note=67, velocity=54, time=59),
    Message('note_on', channel=13, note=72, velocity=72, time=67),
    Message('note_on', channel=13, note=67, velocity=0, time=12),
    Message('note_on', channel=13, note=64, velocity=0, time=3),
    Message('note_on', channel=13, note=60, velocity=0, time=30),
    Message('note_on', channel=13, note=72, velocity=0, time=16),
    Message('note_on', channel=13, note=67, velocity=60, time=5),
    Message('note_on', channel=13, note=67, velocity=0, time=61),
    Message('note_on', channel=13, note=64, velocity=76, time=0),
    Message('control_change', channel=13, control=64, value=0, time=1),
    Message('note_on', channel=13, note=64, velocity=0, time=16),
    Message('note_on', channel=13, note=36, velocity=0, time=2),
    Message('note_on', channel=13, note=48, velocity=0, time=11),
    Message('note_on', channel=13, note=60, velocity=70, time=37),
    Message('note_on', channel=13, note=64, velocity=57, time=64),
    Message('note_on', channel=13, note=67, velocity=59, time=61),
    Message('control_change', channel=13, control=64, value=127, time=21),
    Message('note_on', channel=13, note=72, velocity=82, time=43),
    Message('note_on', channel=13, note=67, velocity=0, time=16),
    Message('note_on', channel=13, note=64, velocity=0, time=6),
    Message('note_on', channel=13, note=60, velocity=0, time=21),
    Message('note_on', channel=13, note=72, velocity=0, time=16),
    Message('note_on', channel=13, note=67, velocity=42, time=5),
    Message('note_on', channel=13, note=64, velocity=63, time=62),
    Message('control_change', channel=13, control=64, value=0, time=42),
    Message('note_on', channel=13, note=60, velocity=64, time=22),
    Message('note_on', channel=13, note=64, velocity=0, time=8),
    Message('note_on', channel=13, note=67, velocity=0, time=2),
    Message('note_on', channel=13, note=64, velocity=63, time=53),
    Message('control_change', channel=13, control=64, value=127, time=51),
    Message('note_on', channel=13, note=67, velocity=58, time=13),
    Message('note_on', channel=13, note=72, velocity=63, time=65),
    Message('note_on', channel=13, note=67, velocity=0, time=23),
    Message('note_on', channel=13, note=64, velocity=0, time=6),
    Message('note_on', channel=13, note=60, velocity=0, time=24),
    Message('note_on', channel=13, note=72, velocity=0, time=6),
    Message('note_on', channel=13, note=67, velocity=50, time=15),
    Message('note_on', channel=13, note=64, velocity=61, time=56),
    Message('note_on', channel=13, note=48, velocity=66, time=30),
    Message('control_change', channel=13, control=64, value=0, time=18),
    Message('note_on', channel=13, note=64, velocity=0, time=16),
    Message('note_on', channel=13, note=60, velocity=70, time=0),
    Message('note_on', channel=13, note=36, velocity=34, time=1),
    Message('note_on', channel=13, note=67, velocity=0, time=8),
    Message('note_on', channel=13, note=64, velocity=66, time=45),
    Message('control_change', channel=13, control=64, value=127, time=40),
    Message('note_on', channel=13, note=67, velocity=63, time=26),
    Message('note_on', channel=13, note=72, velocity=68, time=64),
    Message('note_on', channel=13, note=67, velocity=0, time=19),
    Message('note_on', channel=13, note=64, velocity=0, time=10),
    Message('note_on', channel=13, note=72, velocity=0, time=35),
    Message('note_on', channel=13, note=67, velocity=60, time=1),
    Message('note_on', channel=13, note=60, velocity=0, time=40),
    Message('note_on', channel=13, note=67, velocity=0, time=15),
    Message('note_on', channel=13, note=67, velocity=30, time=11),
    Message('note_on', channel=13, note=64, velocity=66, time=3),
    Message('note_on', channel=13, note=48, velocity=0, time=5),
    Message('note_on', channel=13, note=43, velocity=66, time=22),
    Message('control_change', channel=13, control=64, value=0, time=21),
    Message('note_on', channel=13, note=60, velocity=64, time=11),
    Message('note_on', channel=13, note=48, velocity=58, time=2),
    Message('note_on', channel=13, note=43, velocity=0, time=2),
    Message('note_on', channel=13, note=64, velocity=0, time=16),
    Message('control_change', channel=13, control=64, value=127, time=11),
    Message('note_on', channel=13, note=67, velocity=0, time=17),
    Message('note_on', channel=13, note=64, velocity=55, time=26),
    Message('note_on', channel=13, note=67, velocity=54, time=59),
    Message('note_on', channel=13, note=72, velocity=72, time=67),
    Message('note_on', channel=13, note=67, velocity=0, time=12),
    Message('note_on', channel=13, note=64, velocity=0, time=3),
    Message('note_on', channel=13, note=60, velocity=0, time=30),
    Message('note_on', channel=13, note=72, velocity=0, time=16),
    Message('note_on', channel=13, note=67, velocity=60, time=5),
    Message('note_on', channel=13, note=67, velocity=0, time=61),
    Message('note_on', channel=13, note=64, velocity=76, time=0),
    Message('control_change', channel=13, control=64, value=0, time=1),
    Message('note_on', channel=13, note=64, velocity=0, time=16),
    Message('note_on', channel=13, note=36, velocity=0, time=2),
    Message('note_on', channel=13, note=48, velocity=0, time=11),
    Message('note_on', channel=13, note=60, velocity=70, time=31),
    Message('control_change', channel=13, control=64, value=127, time=28),
    Message('note_on', channel=13, note=64, velocity=55, time=40),
    Message('note_on', channel=13, note=67, velocity=30, time=64),
    Message('note_on', channel=13, note=72, velocity=66, time=64),
    Message('note_on', channel=13, note=67, velocity=0, time=16),
    Message('note_on', channel=13, note=64, velocity=0, time=5),
    Message('note_on', channel=13, note=67, velocity=53, time=43),
    Message('note_on', channel=13, note=72, velocity=0, time=26),
    Message('note_on', channel=13, note=60, velocity=0, time=10),
    Message('note_on', channel=13, note=64, velocity=66, time=25),
    Message('control_change', channel=13, control=64, value=0, time=34),
    Message('note_on', channel=13, note=48, velocity=51, time=30),
    Message('note_on', channel=13, note=60, velocity=56, time=2),
    Message('note_on', channel=13, note=64, velocity=0, time=3),
    Message('note_on', channel=13, note=67, velocity=0, time=5),
    Message('control_change', channel=13, control=64, value=127, time=3),
    Message('note_on', channel=13, note=64, velocity=53, time=62),
    Message('note_on', channel=13, note=67, velocity=53, time=58),
    Message('note_on', channel=13, note=72, velocity=72, time=64),
    Message('note_on', channel=13, note=64, velocity=0, time=14),
    Message('note_on', channel=13, note=67, velocity=0, time=0),
    Message('note_on', channel=13, note=60, velocity=0, time=21),
    Message('note_on', channel=13, note=67, velocity=70, time=26),
    Message('note_on', channel=13, note=72, velocity=0, time=16),
    Message('note_on', channel=13, note=67, velocity=0, time=49),
    Message('note_on', channel=13, note=48, velocity=0, time=4),
    Message('note_on', channel=13, note=64, velocity=72, time=1),
    Message('note_on', channel=13, note=64, velocity=0, time=34),
    Message('control_change', channel=13, control=64, value=0, time=13),
    Message('note_on', channel=13, note=40, velocity=54, time=12),
    Message('note_on', channel=13, note=59, velocity=60, time=0),
    Message('control_change', channel=13, control=64, value=127, time=24),
    Message('note_on', channel=13, note=64, velocity=51, time=44),
    Message('note_on', channel=13, note=67, velocity=53, time=60),
    Message('note_on', channel=13, note=71, velocity=76, time=64),
    Message('note_on', channel=13, note=67, velocity=0, time=13),
    Message('note_on', channel=13, note=64, velocity=0, time=7),
    Message('note_on', channel=13, note=67, velocity=59, time=43),
    Message('note_on', channel=13, note=71, velocity=0, time=3),
    Message('note_on', channel=13, note=59, velocity=0, time=34),
    Message('note_on', channel=13, note=40, velocity=0, time=19),
    Message('note_on', channel=13, note=64, velocity=74, time=8),
    Message('note_on', channel=13, note=40, velocity=57, time=38),
    Message('control_change', channel=13, control=64, value=0, time=10),
    Message('note_on', channel=13, note=59, velocity=68, time=22),
    Message('control_change', channel=13, control=64, value=127, time=13),
    Message('note_on', channel=13, note=64, velocity=0, time=16),
    Message('note_on', channel=13, note=67, velocity=0, time=19),
    Message('note_on', channel=13, note=64, velocity=70, time=16),
    Message('note_on', channel=13, note=67, velocity=58, time=56),
    Message('note_on', channel=13, note=71, velocity=82, time=64),
    Message('note_on', channel=13, note=67, velocity=0, time=15),
    Message('note_on', channel=13, note=64, velocity=0, time=3),
    Message('note_on', channel=13, note=71, velocity=0, time=41),
    Message('note_on', channel=13, note=67, velocity=60, time=10),
    Message('note_on', channel=13, note=59, velocity=0, time=19),
    Message('note_on', channel=13, note=64, velocity=76, time=42),
    Message('note_on', channel=13, note=67, velocity=0, time=3),
    Message('note_on', channel=13, note=64, velocity=0, time=24),
    Message('control_change', channel=13, control=64, value=0, time=2),
    Message('note_on', channel=13, note=40, velocity=0, time=12),
    Message('note_on', channel=13, note=43, velocity=54, time=24),
    Message('note_on', channel=13, note=62, velocity=60, time=0),
    Message('control_change', channel=13, control=64, value=127, time=24),
    Message('note_on', channel=13, note=64, velocity=51, time=44),
    Message('note_on', channel=13, note=67, velocity=53, time=60),
    Message('note_on', channel=13, note=70, velocity=76, time=64),
    Message('note_on', channel=13, note=67, velocity=0, time=13),
    Message('note_on', channel=13, note=64, velocity=0, time=7),
    Message('note_on', channel=13, note=67, velocity=59, time=43),
    Message('note_on', channel=13, note=70, velocity=0, time=3),
    Message('note_on', channel=13, note=62, velocity=0, time=34),
    Message('note_on', channel=13, note=43, velocity=0, time=19),
    Message('note_on', channel=13, note=64, velocity=74, time=8),
    Message('note_on', channel=13, note=43, velocity=57, time=38),
    Message('control_change', channel=13, control=64, value=0, time=10),
    Message('note_on', channel=13, note=62, velocity=68, time=22),
    Message('control_change', channel=13, control=64, value=127, time=13),
    Message('note_on', channel=13, note=64, velocity=0, time=16),
    Message('note_on', channel=13, note=67, velocity=0, time=19),
    Message('note_on', channel=13, note=64, velocity=70, time=16),
    Message('note_on', channel=13, note=67, velocity=58, time=56),
    Message('note_on', channel=13, note=70, velocity=82, time=64),
    Message('note_on', channel=13, note=67, velocity=0, time=15),
    Message('note_on', channel=13, note=64, velocity=0, time=3),
    Message('note_on', channel=13, note=70, velocity=0, time=41),
    Message('note_on', channel=13, note=67, velocity=60, time=10),
    Message('note_on', channel=13, note=62, velocity=0, time=19),
    Message('note_on', channel=13, note=64, velocity=76, time=42),
    Message('note_on', channel=13, note=67, velocity=0, time=3),
    Message('note_on', channel=13, note=64, velocity=0, time=24),
    Message('control_change', channel=13, control=64, value=0, time=2),
    Message('note_on', channel=13, note=43, velocity=0, time=12),
    Message('note_on', channel=13, note=45, velocity=54, time=24),
    Message('note_on', channel=13, note=64, velocity=60, time=0),
    Message('control_change', channel=13, control=64, value=127, time=24),
    Message('note_on', channel=13, note=67, velocity=51, time=44),
    Message('note_on', channel=13, note=69, velocity=53, time=60),
    Message('note_on', channel=13, note=73, velocity=76, time=64),
    Message('note_on', channel=13, note=69, velocity=0, time=13),
    Message('note_on', channel=13, note=67, velocity=0, time=7),
    Message('note_on', channel=13, note=69, velocity=59, time=43),
    Message('note_on', channel=13, note=73, velocity=0, time=3),
    Message('note_on', channel=13, note=64, velocity=0, time=34),
    Message('note_on', channel=13, note=45, velocity=0, time=19),
    Message('note_on', channel=13, note=67, velocity=74, time=8),
    Message('note_on', channel=13, note=45, velocity=57, time=38),
    Message('control_change', channel=13, control=64, value=0, time=10),
    Message('note_on', channel=13, note=64, velocity=68, time=22),
    Message('control_change', channel=13, control=64, value=127, time=13),
    Message('note_on', channel=13, note=67, velocity=0, time=16),
    Message('note_on', channel=13, note=69, velocity=0, time=19),
    Message('note_on', channel=13, note=67, velocity=70, time=16),
    Message('note_on', channel=13, note=69, velocity=58, time=56),
    Message('note_on', channel=13, note=73, velocity=82, time=64),
    Message('note_on', channel=13, note=69, velocity=0, time=15),
    Message('note_on', channel=13, note=67, velocity=0, time=3),
    Message('note_on', channel=13, note=73, velocity=0, time=41),
    Message('note_on', channel=13, note=69, velocity=60, time=10),
    Message('note_on', channel=13, note=64, velocity=0, time=19),
    Message('note_on', channel=13, note=67, velocity=76, time=42),
    Message('note_on', channel=13, note=69, velocity=0, time=3),
    Message('note_on', channel=13, note=67, velocity=0, time=24),
    Message('control_change', channel=13, control=64, value=0, time=2),
    Message('note_on', channel=13, note=45, velocity=0, time=12),
    Message('note_on', channel=13, note=50, velocity=54, time=24),
    Message('note_on', channel=13, note=62, velocity=60, time=0),
    Message('control_change', channel=13, control=64, value=127, time=24),
    Message('note_on', channel=13, note=65, velocity=51, time=44),
    Message('note_on', channel=13, note=69, velocity=53, time=60),
    Message('note_on', channel=13, note=74, velocity=76, time=64),
    Message('note_on', channel=13, note=69, velocity=0, time=13),
    Message('note_on', channel=13, note=65, velocity=0, time=7),
    Message('note_on', channel=13, note=69, velocity=59, time=43),
    Message('note_on', channel=13, note=74, velocity=0, time=3),
    Message('note_on', channel=13, note=62, velocity=0, time=34),
    Message('note_on', channel=13, note=50, velocity=0, time=19),
    Message('note_on', channel=13, note=65, velocity=74, time=8),
    Message('note_on', channel=13, note=50, velocity=57, time=38),
    Message('control_change', channel=13, control=64, value=0, time=10),
    Message('note_on', channel=13, note=38, velocity=58, time=21),
    Message('note_on', channel=13, note=62, velocity=68, time=1),
    Message('control_change', channel=13, control=64, value=127, time=13),
    Message('note_on', channel=13, note=65, velocity=0, time=16),
    Message('note_on', channel=13, note=69, velocity=0, time=19),
    Message('note_on', channel=13, note=65, velocity=70, time=16),
    Message('note_on', channel=13, note=69, velocity=58, time=56),
    Message('note_on', channel=13, note=74, velocity=82, time=64),
    Message('note_on', channel=13, note=69, velocity=0, time=15),
    Message('note_on', channel=13, note=65, velocity=0, time=3),
    Message('note_on', channel=13, note=74, velocity=0, time=41),
    Message('note_on', channel=13, note=69, velocity=60, time=10),
    Message('note_on', channel=13, note=62, velocity=0, time=19),
    Message('note_on', channel=13, note=65, velocity=76, time=42),
    Message('note_on', channel=13, note=69, velocity=0, time=3),
    Message('note_on', channel=13, note=65, velocity=0, time=24),
    Message('control_change', channel=13, control=64, value=0, time=2),
    Message('note_on', channel=13, note=38, velocity=0, time=12),
    Message('note_on', channel=13, note=50, velocity=0, time=7),
    Message('note_on', channel=13, note=62, velocity=70, time=13),
    Message('control_change', channel=13, control=64, value=127, time=28),
    Message('note_on', channel=13, note=65, velocity=55, time=40),
    Message('note_on', channel=13, note=69, velocity=30, time=64),
    Message('note_on', channel=13, note=72, velocity=66, time=64),
    Message('note_on', channel=13, note=69, velocity=0, time=16),
    Message('note_on', channel=13, note=65, velocity=0, time=5),
    Message('note_on', channel=13, note=69, velocity=53, time=43),
    Message('note_on', channel=13, note=72, velocity=0, time=26),
    Message('note_on', channel=13, note=62, velocity=0, time=10),
    Message('note_on', channel=13, note=65, velocity=66, time=25),
    Message('control_change', channel=13, control=64, value=0, time=34),
    Message('note_on', channel=13, note=50, velocity=51, time=30),
    Message('note_on', channel=13, note=62, velocity=56, time=2),
    Message('note_on', channel=13, note=65, velocity=0, time=3),
    Message('note_on', channel=13, note=69, velocity=0, time=5),
    Message('control_change', channel=13, control=64, value=127, time=3),
    Message('note_on', channel=13, note=65, velocity=53, time=62),
    Message('note_on', channel=13, note=69, velocity=53, time=58),
    Message('note_on', channel=13, note=72, velocity=72, time=64),
    Message('note_on', channel=13, note=65, velocity=0, time=14),
    Message('note_on', channel=13, note=69, velocity=0, time=0),
    Message('note_on', channel=13, note=62, velocity=0, time=21),
    Message('note_on', channel=13, note=69, velocity=70, time=26),
    Message('note_on', channel=13, note=72, velocity=0, time=16),
    Message('note_on', channel=13, note=69, velocity=0, time=49),
    Message('note_on', channel=13, note=50, velocity=0, time=4),
    Message('note_on', channel=13, note=65, velocity=72, time=1),
    Message('note_on', channel=13, note=65, velocity=0, time=34),
    Message('control_change', channel=13, control=64, value=0, time=13),
    Message('note_on', channel=13, note=43, velocity=54, time=12),
    Message('note_on', channel=13, note=62, velocity=60, time=0),
    Message('control_change', channel=13, control=64, value=127, time=24),
    Message('note_on', channel=13, note=65, velocity=51, time=44),
    Message('note_on', channel=13, note=67, velocity=53, time=60),
    Message('note_on', channel=13, note=71, velocity=76, time=64),
    Message('note_on', channel=13, note=67, velocity=0, time=13),
    Message('note_on', channel=13, note=65, velocity=0, time=7),
    Message('note_on', channel=13, note=67, velocity=59, time=43),
    Message('note_on', channel=13, note=71, velocity=0, time=3),
    Message('note_on', channel=13, note=62, velocity=0, time=34),
    Message('note_on', channel=13, note=43, velocity=0, time=19),
    Message('note_on', channel=13, note=65, velocity=74, time=8),
    Message('note_on', channel=13, note=43, velocity=57, time=38),
    Message('control_change', channel=13, control=64, value=0, time=10),
    Message('note_on', channel=13, note=62, velocity=68, time=22),
    Message('control_change', channel=13, control=64, value=127, time=13),
    Message('note_on', channel=13, note=65, velocity=0, time=16),
    Message('note_on', channel=13, note=67, velocity=0, time=19),
    Message('note_on', channel=13, note=65, velocity=70, time=16),
    Message('note_on', channel=13, note=67, velocity=58, time=56),
    Message('note_on', channel=13, note=71, velocity=82, time=64),
    Message('note_on', channel=13, note=67, velocity=0, time=15),
    Message('note_on', channel=13, note=65, velocity=0, time=3),
    Message('note_on', channel=13, note=71, velocity=0, time=41),
    Message('note_on', channel=13, note=67, velocity=60, time=10),
    Message('note_on', channel=13, note=62, velocity=0, time=19),
    Message('note_on', channel=13, note=65, velocity=76, time=42),
    Message('note_on', channel=13, note=67, velocity=0, time=3),
    Message('note_on', channel=13, note=65, velocity=0, time=24),
    Message('control_change', channel=13, control=64, value=0, time=2),
    Message('note_on', channel=13, note=43, velocity=0, time=12),
    Message('note_on', channel=13, note=48, velocity=54, time=24),
    Message('note_on', channel=13, note=60, velocity=60, time=0),
    Message('control_change', channel=13, control=64, value=127, time=24),
    Message('note_on', channel=13, note=64, velocity=51, time=44),
    Message('note_on', channel=13, note=67, velocity=53, time=60),
    Message('note_on', channel=13, note=72, velocity=76, time=64),
    Message('note_on', channel=13, note=67, velocity=0, time=13),
    Message('note_on', channel=13, note=64, velocity=0, time=7),
    Message('note_on', channel=13, note=67, velocity=59, time=43),
    Message('note_on', channel=13, note=72, velocity=0, time=3),
    Message('note_on', channel=13, note=60, velocity=0, time=34),
    Message('note_on', channel=13, note=48, velocity=0, time=19),
    Message('note_on', channel=13, note=64, velocity=74, time=8),
    Message('note_on', channel=13, note=48, velocity=57, time=38),
    Message('control_change', channel=13, control=64, value=0, time=10),
    Message('note_on', channel=13, note=36, velocity=58, time=21),
    Message('note_on', channel=13, note=60, velocity=68, time=1),
    Message('control_change', channel=13, control=64, value=127, time=13),
    Message('note_on', channel=13, note=64, velocity=0, time=16),
    Message('note_on', channel=13, note=67, velocity=0, time=19),
    Message('note_on', channel=13, note=64, velocity=70, time=16),
    Message('note_on', channel=13, note=67, velocity=58, time=56),
    Message('note_on', channel=13, note=72, velocity=82, time=64),
    Message('note_on', channel=13, note=67, velocity=0, time=15),
    Message('note_on', channel=13, note=64, velocity=0, time=3),
    Message('note_on', channel=13, note=72, velocity=0, time=41),
    Message('note_on', channel=13, note=67, velocity=60, time=10),
    Message('note_on', channel=13, note=60, velocity=0, time=19),
    Message('note_on', channel=13, note=64, velocity=76, time=42),
    Message('note_on', channel=13, note=67, velocity=0, time=3),
    Message('note_on', channel=13, note=64, velocity=0, time=24),
    Message('control_change', channel=13, control=64, value=0, time=2),
    Message('note_on', channel=13, note=36, velocity=0, time=12),
    Message('note_on', channel=13, note=48, velocity=0, time=7),
    Message('note_on', channel=13, note=48, velocity=58, time=13),
    Message('control_change', channel=13, control=64, value=127, time=0),
    Message('note_on', channel=13, note=60, velocity=66, time=0),
    Message('note_on', channel=13, note=36, velocity=52, time=0),
    Message('note_on', channel=13, note=64, velocity=60, time=67),
    Message('note_on', channel=13, note=67, velocity=59, time=65),
    Message('note_on', channel=13, note=48, velocity=0, time=58),
    Message('note_on', channel=13, note=67, velocity=0, time=3),
    Message('note_on', channel=13, note=72, velocity=80, time=3),
    Message('note_on', channel=13, note=64, velocity=0, time=18),
    Message('note_on', channel=13, note=67, velocity=58, time=45),
    Message('note_on', channel=13, note=72, velocity=0, time=19),
    Message('note_on', channel=13, note=60, velocity=0, time=3),
    Message('note_on', channel=13, note=48, velocity=70, time=10),
    Message('note_on', channel=13, note=60, velocity=82, time=30),
    Message('note_on', channel=13, note=36, velocity=0, time=32),
    Message('note_on', channel=13, note=48, velocity=0, time=5),
    Message('control_change', channel=13, control=64, value=0, time=2),
    Message('note_on', channel=13, note=60, velocity=0, time=1),
    Message('note_on', channel=13, note=67, velocity=0, time=3),
    Message('note_on', channel=13, note=48, velocity=55, time=21),
    Message('note_on', channel=13, note=60, velocity=53, time=3),
    Message('control_change', channel=13, control=64, value=127, time=4),
    Message('note_on', channel=13, note=64, velocity=70, time=60),
    Message('note_on', channel=13, note=67, velocity=58, time=63),
    Message('note_on', channel=13, note=71, velocity=78, time=65),
    Message('note_on', channel=13, note=64, velocity=0, time=18),
    Message('note_on', channel=13, note=67, velocity=0, time=3),
    Message('note_on', channel=13, note=71, velocity=0, time=35),
    Message('note_on', channel=13, note=67, velocity=60, time=8),
    Message('note_on', channel=13, note=60, velocity=0, time=18),
    Message('control_change', channel=13, control=64, value=0, time=45),
    Message('note_on', channel=13, note=64, velocity=72, time=0),
    Message('note_on', channel=13, note=67, velocity=0, time=29),
    Message('note_on', channel=13, note=64, velocity=0, time=12),
    Message('note_on', channel=13, note=48, velocity=0, time=8),
    Message('note_on', channel=13, note=60, velocity=70, time=12),
    Message('control_change', channel=13, control=64, value=127, time=28),
    Message('note_on', channel=13, note=64, velocity=55, time=40),
    Message('note_on', channel=13, note=67, velocity=30, time=64),
    Message('note_on', channel=13, note=70, velocity=66, time=64),
    Message('note_on', channel=13, note=67, velocity=0, time=16),
    Message('note_on', channel=13, note=64, velocity=0, time=5),
    Message('note_on', channel=13, note=67, velocity=53, time=43),
    Message('note_on', channel=13, note=70, velocity=0, time=26),
    Message('note_on', channel=13, note=60, velocity=0, time=10),
    Message('note_on', channel=13, note=64, velocity=66, time=25),
    Message('control_change', channel=13, control=64, value=0, time=34),
    Message('note_on', channel=13, note=48, velocity=51, time=30),
    Message('note_on', channel=13, note=60, velocity=56, time=2),
    Message('note_on', channel=13, note=64, velocity=0, time=3),
    Message('note_on', channel=13, note=67, velocity=0, time=5),
    Message('control_change', channel=13, control=64, value=127, time=3),
    Message('note_on', channel=13, note=64, velocity=53, time=62),
    Message('note_on', channel=13, note=67, velocity=53, time=58),
    Message('note_on', channel=13, note=70, velocity=72, time=64),
    Message('note_on', channel=13, note=64, velocity=0, time=14),
    Message('note_on', channel=13, note=67, velocity=0, time=0),
    Message('note_on', channel=13, note=60, velocity=0, time=21),
    Message('note_on', channel=13, note=67, velocity=70, time=26),
    Message('note_on', channel=13, note=70, velocity=0, time=16),
    Message('note_on', channel=13, note=67, velocity=0, time=49),
    Message('note_on', channel=13, note=48, velocity=0, time=4),
    Message('note_on', channel=13, note=64, velocity=72, time=1),
    Message('note_on', channel=13, note=64, velocity=0, time=34),
    Message('control_change', channel=13, control=64, value=0, time=13),
    Message('note_on', channel=13, note=60, velocity=70, time=8),
    Message('control_change', channel=13, control=64, value=127, time=28),
    Message('note_on', channel=13, note=65, velocity=55, time=40),
    Message('note_on', channel=13, note=69, velocity=30, time=64),
    Message('note_on', channel=13, note=72, velocity=66, time=64),
    Message('note_on', channel=13, note=69, velocity=0, time=16),
    Message('note_on', channel=13, note=65, velocity=0, time=5),
    Message('note_on', channel=13, note=69, velocity=53, time=43),
    Message('note_on', channel=13, note=72, velocity=0, time=26),
    Message('note_on', channel=13, note=60, velocity=0, time=10),
    Message('note_on', channel=13, note=65, velocity=66, time=25),
    Message('control_change', channel=13, control=64, value=0, time=34),
    Message('note_on', channel=13, note=41, velocity=51, time=30),
    Message('note_on', channel=13, note=60, velocity=56, time=2),
    Message('note_on', channel=13, note=65, velocity=0, time=3),
    Message('note_on', channel=13, note=69, velocity=0, time=5),
    Message('control_change', channel=13, control=64, value=127, time=3),
    Message('note_on', channel=13, note=65, velocity=53, time=62),
    Message('note_on', channel=13, note=69, velocity=53, time=58),
    Message('note_on', channel=13, note=72, velocity=72, time=64),
    Message('note_on', channel=13, note=65, velocity=0, time=14),
    Message('note_on', channel=13, note=69, velocity=0, time=0),
    Message('note_on', channel=13, note=60, velocity=0, time=21),
    Message('note_on', channel=13, note=69, velocity=70, time=26),
    Message('note_on', channel=13, note=72, velocity=0, time=16),
    Message('note_on', channel=13, note=69, velocity=0, time=49),
    Message('note_on', channel=13, note=41, velocity=0, time=4),
    Message('note_on', channel=13, note=65, velocity=72, time=1),
    Message('note_on', channel=13, note=65, velocity=0, time=34),
    Message('control_change', channel=13, control=64, value=0, time=13),
    Message('note_on', channel=13, note=60, velocity=70, time=8),
    Message('control_change', channel=13, control=64, value=127, time=28),
    Message('note_on', channel=13, note=65, velocity=55, time=40),
    Message('note_on', channel=13, note=68, velocity=30, time=64),
    Message('note_on', channel=13, note=72, velocity=66, time=64),
    Message('note_on', channel=13, note=68, velocity=0, time=16),
    Message('note_on', channel=13, note=65, velocity=0, time=5),
    Message('note_on', channel=13, note=68, velocity=53, time=43),
    Message('note_on', channel=13, note=72, velocity=0, time=26),
    Message('note_on', channel=13, note=60, velocity=0, time=10),
    Message('note_on', channel=13, note=65, velocity=66, time=25),
    Message('control_change', channel=13, control=64, value=0, time=34),
    Message('note_on', channel=13, note=41, velocity=51, time=30),
    Message('note_on', channel=13, note=60, velocity=56, time=2),
    Message('note_on', channel=13, note=65, velocity=0, time=3),
    Message('note_on', channel=13, note=68, velocity=0, time=5),
    Message('control_change', channel=13, control=64, value=127, time=3),
    Message('note_on', channel=13, note=65, velocity=53, time=62),
    Message('note_on', channel=13, note=68, velocity=53, time=58),
    Message('note_on', channel=13, note=72, velocity=72, time=64),
    Message('note_on', channel=13, note=65, velocity=0, time=14),
    Message('note_on', channel=13, note=68, velocity=0, time=0),
    Message('note_on', channel=13, note=60, velocity=0, time=21),
    Message('note_on', channel=13, note=68, velocity=70, time=26),
    Message('note_on', channel=13, note=72, velocity=0, time=16),
    Message('note_on', channel=13, note=68, velocity=0, time=49),
    Message('note_on', channel=13, note=41, velocity=0, time=4),
    Message('note_on', channel=13, note=65, velocity=72, time=1),
    Message('note_on', channel=13, note=65, velocity=0, time=34),
    Message('control_change', channel=13, control=64, value=0, time=13),
    Message('note_on', channel=13, note=60, velocity=70, time=8),
    Message('control_change', channel=13, control=64, value=127, time=28),
    Message('note_on', channel=13, note=64, velocity=55, time=40),
    Message('note_on', channel=13, note=67, velocity=30, time=64),
    Message('note_on', channel=13, note=72, velocity=66, time=64),
    Message('note_on', channel=13, note=67, velocity=0, time=16),
    Message('note_on', channel=13, note=64, velocity=0, time=5),
    Message('note_on', channel=13, note=67, velocity=53, time=43),
    Message('note_on', channel=13, note=72, velocity=0, time=26),
    Message('note_on', channel=13, note=60, velocity=0, time=10),
    Message('note_on', channel=13, note=64, velocity=66, time=25),
    Message('control_change', channel=13, control=64, value=0, time=34),
    Message('note_on', channel=13, note=48, velocity=51, time=30),
    Message('note_on', channel=13, note=60, velocity=56, time=2),
    Message('note_on', channel=13, note=64, velocity=0, time=3),
    Message('note_on', channel=13, note=67, velocity=0, time=5),
    Message('control_change', channel=13, control=64, value=127, time=3),
    Message('note_on', channel=13, note=64, velocity=53, time=62),
    Message('note_on', channel=13, note=67, velocity=53, time=58),
    Message('note_on', channel=13, note=72, velocity=72, time=64),
    Message('note_on', channel=13, note=64, velocity=0, time=14),
    Message('note_on', channel=13, note=67, velocity=0, time=0),
    Message('note_on', channel=13, note=60, velocity=0, time=21),
    Message('note_on', channel=13, note=67, velocity=70, time=26),
    Message('note_on', channel=13, note=72, velocity=0, time=16),
    Message('note_on', channel=13, note=67, velocity=0, time=49),
    Message('note_on', channel=13, note=48, velocity=0, time=4),
    Message('note_on', channel=13, note=64, velocity=72, time=1),
    Message('note_on', channel=13, note=64, velocity=0, time=34),
    Message('control_change', channel=13, control=64, value=0, time=13),
    Message('note_on', channel=13, note=43, velocity=54, time=12),
    Message('note_on', channel=13, note=62, velocity=60, time=0),
    Message('control_change', channel=13, control=64, value=127, time=24),
    Message('note_on', channel=13, note=65, velocity=51, time=44),
    Message('note_on', channel=13, note=67, velocity=53, time=60),
    Message('note_on', channel=13, note=71, velocity=76, time=64),
    Message('note_on', channel=13, note=67, velocity=0, time=13),
    Message('note_on', channel=13, note=65, velocity=0, time=7),
    Message('note_on', channel=13, note=67, velocity=59, time=43),
    Message('note_on', channel=13, note=71, velocity=0, time=3),
    Message('note_on', channel=13, note=62, velocity=0, time=34),
    Message('note_on', channel=13, note=43, velocity=0, time=19),
    Message('note_on', channel=13, note=65, velocity=74, time=8),
    Message('note_on', channel=13, note=43, velocity=57, time=38),
    Message('control_change', channel=13, control=64, value=0, time=10),
    Message('note_on', channel=13, note=62, velocity=68, time=22),
    Message('control_change', channel=13, control=64, value=127, time=13),
    Message('note_on', channel=13, note=65, velocity=0, time=16),
    Message('note_on', channel=13, note=67, velocity=0, time=19),
    Message('note_on', channel=13, note=65, velocity=70, time=16),
    Message('note_on', channel=13, note=67, velocity=58, time=56),
    Message('note_on', channel=13, note=71, velocity=82, time=64),
    Message('note_on', channel=13, note=67, velocity=0, time=15),
    Message('note_on', channel=13, note=65, velocity=0, time=3),
    Message('note_on', channel=13, note=71, velocity=0, time=41),
    Message('note_on', channel=13, note=67, velocity=60, time=10),
    Message('note_on', channel=13, note=62, velocity=0, time=19),
    Message('note_on', channel=13, note=65, velocity=76, time=42),
    Message('note_on', channel=13, note=67, velocity=0, time=3),
    Message('note_on', channel=13, note=65, velocity=0, time=24),
    Message('control_change', channel=13, control=64, value=0, time=2),
    Message('note_on', channel=13, note=43, velocity=0, time=12),
    Message('note_on', channel=13, note=41, velocity=54, time=24),
    Message('note_on', channel=13, note=60, velocity=60, time=0),
    Message('control_change', channel=13, control=64, value=127, time=24),
    Message('note_on', channel=13, note=62, velocity=51, time=44),
    Message('note_on', channel=13, note=65, velocity=53, time=60),
    Message('note_on', channel=13, note=69, velocity=76, time=64),
    Message('note_on', channel=13, note=65, velocity=0, time=13),
    Message('note_on', channel=13, note=62, velocity=0, time=7),
    Message('note_on', channel=13, note=65, velocity=59, time=43),
    Message('note_on', channel=13, note=69, velocity=0, time=3),
    Message('note_on', channel=13, note=60, velocity=0, time=34),
    Message('note_on', channel=13, note=41, velocity=0, time=19),
    Message('note_on', channel=13, note=62, velocity=74, time=8),
    Message('note_on', channel=13, note=41, velocity=57, time=38),
    Message('control_change', channel=13, control=64, value=0, time=10),
    Message('note_on', channel=13, note=60, velocity=68, time=22),
    Message('control_change', channel=13, control=64, value=127, time=13),
    Message('note_on', channel=13, note=62, velocity=0, time=16),
    Message('note_on', channel=13, note=65, velocity=0, time=19),
    Message('note_on', channel=13, note=62, velocity=70, time=16),
    Message('note_on', channel=13, note=65, velocity=58, time=56),
    Message('note_on', channel=13, note=69, velocity=82, time=64),
    Message('note_on', channel=13, note=65, velocity=0, time=15),
    Message('note_on', channel=13, note=62, velocity=0, time=3),
    Message('note_on', channel=13, note=69, velocity=0, time=41),
    Message('note_on', channel=13, note=65, velocity=60, time=10),
    Message('note_on', channel=13, note=60, velocity=0, time=19),
    Message('note_on', channel=13, note=62, velocity=76, time=42),
    Message('note_on', channel=13, note=65, velocity=0, time=3),
    Message('note_on', channel=13, note=62, velocity=0, time=24),
    Message('control_change', channel=13, control=64, value=0, time=2),
    Message('note_on', channel=13, note=41, velocity=0, time=12),
    Message('note_on', channel=13, note=48, velocity=54, time=24),
    Message('note_on', channel=13, note=60, velocity=60, time=0),
    Message('control_change', channel=13, control=64, value=127, time=24),
    Message('note_on', channel=13, note=64, velocity=51, time=44),
    Message('note_on', channel=13, note=67, velocity=53, time=60),
    Message('note_on', channel=13, note=72, velocity=76, time=64),
    Message('note_on', channel=13, note=67, velocity=0, time=13),
    Message('note_on', channel=13, note=64, velocity=0, time=7),
    Message('note_on', channel=13, note=67, velocity=59, time=43),
    Message('note_on', channel=13, note=72, velocity=0, time=3),
    Message('note_on', channel=13, note=60, velocity=0, time=34),
    Message('note_on', channel=13, note=48, velocity=0, time=19),
    Message('note_on', channel=13, note=64, velocity=74, time=8),
    Message('note_on', channel=13, note=48, velocity=57, time=38),
    Message('control_change', channel=13, control=64, value=0, time=10),
    Message('note_on', channel=13, note=36, velocity=58, time=21),
    Message('note_on', channel=13, note=60, velocity=68, time=1),
    Message('control_change', channel=13, control=64, value=127, time=13),
    Message('note_on', channel=13, note=64, velocity=0, time=16),
    Message('note_on', channel=13, note=67, velocity=0, time=19),
    Message('note_on', channel=13, note=64, velocity=70, time=16),
    Message('note_on', channel=13, note=67, velocity=58, time=56),
    Message('note_on', channel=13, note=72, velocity=82, time=64),
    Message('note_on', channel=13, note=67, velocity=0, time=15),
    Message('note_on', channel=13, note=64, velocity=0, time=3),
    Message('note_on', channel=13, note=72, velocity=0, time=41),
    Message('note_on', channel=13, note=67, velocity=60, time=10),
    Message('note_on', channel=13, note=60, velocity=0, time=19),
    Message('note_on', channel=13, note=64, velocity=76, time=42),
    Message('note_on', channel=13, note=67, velocity=0, time=3),
    Message('note_on', channel=13, note=64, velocity=0, time=24),
    Message('control_change', channel=13, control=64, value=0, time=2),
    Message('note_on', channel=13, note=36, velocity=0, time=12),
    Message('note_on', channel=13, note=48, velocity=0, time=7),
    Message('note_on', channel=13, note=60, velocity=70, time=13),
    Message('control_change', channel=13, control=64, value=127, time=28),
    Message('note_on', channel=13, note=64, velocity=55, time=40),
    Message('note_on', channel=13, note=67, velocity=30, time=64),
    Message('note_on', channel=13, note=72, velocity=66, time=64),
    Message('note_on', channel=13, note=67, velocity=0, time=16),
    Message('note_on', channel=13, note=64, velocity=0, time=5),
    Message('note_on', channel=13, note=67, velocity=53, time=43),
    Message('note_on', channel=13, note=72, velocity=0, time=26),
    Message('note_on', channel=13, note=60, velocity=0, time=10),
    Message('note_on', channel=13, note=64, velocity=66, time=25),
    Message('control_change', channel=13, control=64, value=0, time=34),
    Message('note_on', channel=13, note=48, velocity=51, time=30),
    Message('note_on', channel=13, note=60, velocity=56, time=2),
    Message('note_on', channel=13, note=64, velocity=0, time=3),
    Message('note_on', channel=13, note=67, velocity=0, time=5),
    Message('control_change', channel=13, control=64, value=127, time=3),
    Message('note_on', channel=13, note=64, velocity=53, time=62),
    Message('note_on', channel=13, note=67, velocity=53, time=58),
    Message('note_on', channel=13, note=72, velocity=72, time=64),
    Message('note_on', channel=13, note=64, velocity=0, time=14),
    Message('note_on', channel=13, note=67, velocity=0, time=0),
    Message('note_on', channel=13, note=60, velocity=0, time=21),
    Message('note_on', channel=13, note=67, velocity=70, time=26),
    Message('note_on', channel=13, note=72, velocity=0, time=16),
    Message('note_on', channel=13, note=67, velocity=0, time=49),
    Message('note_on', channel=13, note=48, velocity=0, time=4),
    Message('note_on', channel=13, note=64, velocity=72, time=1),
    Message('note_on', channel=13, note=64, velocity=0, time=34),
    Message('control_change', channel=13, control=64, value=0, time=13),
    Message('note_on', channel=13, note=40, velocity=54, time=12),
    Message('note_on', channel=13, note=59, velocity=60, time=0),
    Message('control_change', channel=13, control=64, value=127, time=24),
    Message('note_on', channel=13, note=64, velocity=51, time=44),
    Message('note_on', channel=13, note=67, velocity=53, time=60),
    Message('note_on', channel=13, note=71, velocity=76, time=64),
    Message('note_on', channel=13, note=67, velocity=0, time=13),
    Message('note_on', channel=13, note=64, velocity=0, time=7),
    Message('note_on', channel=13, note=67, velocity=59, time=43),
    Message('note_on', channel=13, note=71, velocity=0, time=3),
    Message('note_on', channel=13, note=59, velocity=0, time=34),
    Message('note_on', channel=13, note=40, velocity=0, time=19),
    Message('note_on', channel=13, note=64, velocity=74, time=8),
    Message('note_on', channel=13, note=40, velocity=57, time=38),
    Message('control_change', channel=13, control=64, value=0, time=10),
    Message('note_on', channel=13, note=59, velocity=68, time=22),
    Message('control_change', channel=13, control=64, value=127, time=13),
    Message('note_on', channel=13, note=64, velocity=0, time=16),
    Message('note_on', channel=13, note=67, velocity=0, time=19),
    Message('note_on', channel=13, note=64, velocity=70, time=16),
    Message('note_on', channel=13, note=67, velocity=58, time=56),
    Message('note_on', channel=13, note=71, velocity=82, time=64),
    Message('note_on', channel=13, note=67, velocity=0, time=15),
    Message('note_on', channel=13, note=64, velocity=0, time=3),
    Message('note_on', channel=13, note=71, velocity=0, time=41),
    Message('note_on', channel=13, note=67, velocity=60, time=10),
    Message('note_on', channel=13, note=59, velocity=0, time=19),
    Message('note_on', channel=13, note=64, velocity=76, time=42),
    Message('note_on', channel=13, note=67, velocity=0, time=3),
    Message('note_on', channel=13, note=64, velocity=0, time=24),
    Message('control_change', channel=13, control=64, value=0, time=2),
    Message('note_on', channel=13, note=40, velocity=0, time=12),
    Message('note_on', channel=13, note=62, velocity=70, time=20),
    Message('control_change', channel=13, control=64, value=127, time=28),
    Message('note_on', channel=13, note=64, velocity=55, time=40),
    Message('note_on', channel=13, note=67, velocity=30, time=64),
    Message('note_on', channel=13, note=70, velocity=66, time=64),
    Message('note_on', channel=13, note=67, velocity=0, time=16),
    Message('note_on', channel=13, note=64, velocity=0, time=5),
    Message('note_on', channel=13, note=67, velocity=53, time=43),
    Message('note_on', channel=13, note=70, velocity=0, time=26),
    Message('note_on', channel=13, note=62, velocity=0, time=10),
    Message('note_on', channel=13, note=64, velocity=66, time=25),
    Message('control_change', channel=13, control=64, value=0, time=34),
    Message('note_on', channel=13, note=43, velocity=51, time=30),
    Message('note_on', channel=13, note=62, velocity=56, time=2),
    Message('note_on', channel=13, note=64, velocity=0, time=3),
    Message('note_on', channel=13, note=67, velocity=0, time=5),
    Message('control_change', channel=13, control=64, value=127, time=3),
    Message('note_on', channel=13, note=64, velocity=53, time=62),
    Message('note_on', channel=13, note=67, velocity=53, time=58),
    Message('note_on', channel=13, note=70, velocity=72, time=64),
    Message('note_on', channel=13, note=64, velocity=0, time=14),
    Message('note_on', channel=13, note=67, velocity=0, time=0),
    Message('note_on', channel=13, note=62, velocity=0, time=21),
    Message('note_on', channel=13, note=67, velocity=70, time=26),
    Message('note_on', channel=13, note=70, velocity=0, time=16),
    Message('note_on', channel=13, note=67, velocity=0, time=49),
    Message('note_on', channel=13, note=43, velocity=0, time=4),
    Message('note_on', channel=13, note=64, velocity=72, time=1),
    Message('note_on', channel=13, note=64, velocity=0, time=34),
    Message('control_change', channel=13, control=64, value=0, time=13),
    Message('note_on', channel=13, note=64, velocity=70, time=8),
    Message('control_change', channel=13, control=64, value=127, time=28),
    Message('note_on', channel=13, note=67, velocity=55, time=40),
    Message('note_on', channel=13, note=69, velocity=30, time=64),
    Message('note_on', channel=13, note=73, velocity=66, time=64),
    Message('note_on', channel=13, note=69, velocity=0, time=16),
    Message('note_on', channel=13, note=67, velocity=0, time=5),
    Message('note_on', channel=13, note=69, velocity=53, time=43),
    Message('note_on', channel=13, note=73, velocity=0, time=26),
    Message('note_on', channel=13, note=64, velocity=0, time=10),
    Message('note_on', channel=13, note=67, velocity=66, time=25),
    Message('control_change', channel=13, control=64, value=0, time=34),
    Message('note_on', channel=13, note=45, velocity=51, time=30),
    Message('note_on', channel=13, note=64, velocity=56, time=2),
    Message('note_on', channel=13, note=67, velocity=0, time=3),
    Message('note_on', channel=13, note=69, velocity=0, time=5),
    Message('control_change', channel=13, control=64, value=127, time=3),
    Message('note_on', channel=13, note=67, velocity=53, time=62),
    Message('note_on', channel=13, note=69, velocity=53, time=58),
    Message('note_on', channel=13, note=73, velocity=72, time=64),
    Message('note_on', channel=13, note=67, velocity=0, time=14),
    Message('note_on', channel=13, note=69, velocity=0, time=0),
    Message('note_on', channel=13, note=64, velocity=0, time=21),
    Message('note_on', channel=13, note=69, velocity=70, time=26),
    Message('note_on', channel=13, note=73, velocity=0, time=16),
    Message('note_on', channel=13, note=69, velocity=0, time=49),
    Message('note_on', channel=13, note=45, velocity=0, time=4),
    Message('note_on', channel=13, note=67, velocity=72, time=1),
    Message('note_on', channel=13, note=67, velocity=0, time=34),
    Message('control_change', channel=13, control=64, value=0, time=13),
    Message('note_on', channel=13, note=50, velocity=54, time=12),
    Message('note_on', channel=13, note=62, velocity=60, time=0),
    Message('control_change', channel=13, control=64, value=127, time=24),
    Message('note_on', channel=13, note=65, velocity=51, time=44),
    Message('note_on', channel=13, note=69, velocity=53, time=60),
    Message('note_on', channel=13, note=74, velocity=76, time=64),
    Message('note_on', channel=13, note=69, velocity=0, time=13),
    Message('note_on', channel=13, note=65, velocity=0, time=7),
    Message('note_on', channel=13, note=69, velocity=59, time=43),
    Message('note_on', channel=13, note=74, velocity=0, time=3),
    Message('note_on', channel=13, note=62, velocity=0, time=34),
    Message('note_on', channel=13, note=50, velocity=0, time=19),
    Message('note_on', channel=13, note=65, velocity=74, time=8),
    Message('note_on', channel=13, note=50, velocity=57, time=38),
    Message('control_change', channel=13, control=64, value=0, time=10),
    Message('note_on', channel=13, note=38, velocity=58, time=21),
    Message('note_on', channel=13, note=62, velocity=68, time=1),
    Message('control_change', channel=13, control=64, value=127, time=13),
    Message('note_on', channel=13, note=65, velocity=0, time=16),
    Message('note_on', channel=13, note=69, velocity=0, time=19),
    Message('note_on', channel=13, note=65, velocity=70, time=16),
    Message('note_on', channel=13, note=69, velocity=58, time=56),
    Message('note_on', channel=13, note=74, velocity=82, time=64),
    Message('note_on', channel=13, note=69, velocity=0, time=15),
    Message('note_on', channel=13, note=65, velocity=0, time=3),
    Message('note_on', channel=13, note=74, velocity=0, time=41),
    Message('note_on', channel=13, note=69, velocity=60, time=10),
    Message('note_on', channel=13, note=62, velocity=0, time=19),
    Message('note_on', channel=13, note=65, velocity=76, time=42),
    Message('note_on', channel=13, note=69, velocity=0, time=3),
    Message('note_on', channel=13, note=65, velocity=0, time=24),
    Message('control_change', channel=13, control=64, value=0, time=2),
    Message('note_on', channel=13, note=38, velocity=0, time=12),
    Message('note_on', channel=13, note=50, velocity=0, time=7),
    Message('note_on', channel=13, note=50, velocity=54, time=17),
    Message('note_on', channel=13, note=62, velocity=60, time=0),
    Message('control_change', channel=13, control=64, value=127, time=24),
    Message('note_on', channel=13, note=65, velocity=51, time=44),
    Message('note_on', channel=13, note=69, velocity=53, time=60),
    Message('note_on', channel=13, note=72, velocity=76, time=64),
    Message('note_on', channel=13, note=69, velocity=0, time=13),
    Message('note_on', channel=13, note=65, velocity=0, time=7),
    Message('note_on', channel=13, note=69, velocity=59, time=43),
    Message('note_on', channel=13, note=72, velocity=0, time=3),
    Message('note_on', channel=13, note=62, velocity=0, time=34),
    Message('note_on', channel=13, note=50, velocity=0, time=19),
    Message('note_on', channel=13, note=65, velocity=74, time=8),
    Message('note_on', channel=13, note=50, velocity=57, time=38),
    Message('control_change', channel=13, control=64, value=0, time=10),
    Message('note_on', channel=13, note=38, velocity=58, time=21),
    Message('note_on', channel=13, note=62, velocity=68, time=1),
    Message('control_change', channel=13, control=64, value=127, time=13),
    Message('note_on', channel=13, note=65, velocity=0, time=16),
    Message('note_on', channel=13, note=69, velocity=0, time=19),
    Message('note_on', channel=13, note=65, velocity=70, time=16),
    Message('note_on', channel=13, note=69, velocity=58, time=56),
    Message('note_on', channel=13, note=72, velocity=82, time=64),
    Message('note_on', channel=13, note=69, velocity=0, time=15),
    Message('note_on', channel=13, note=65, velocity=0, time=3),
    Message('note_on', channel=13, note=72, velocity=0, time=41),
    Message('note_on', channel=13, note=69, velocity=60, time=10),
    Message('note_on', channel=13, note=62, velocity=0, time=19),
    Message('note_on', channel=13, note=65, velocity=76, time=42),
    Message('note_on', channel=13, note=69, velocity=0, time=3),
    Message('note_on', channel=13, note=65, velocity=0, time=24),
    Message('control_change', channel=13, control=64, value=0, time=2),
    Message('note_on', channel=13, note=38, velocity=0, time=12),
    Message('note_on', channel=13, note=50, velocity=0, time=7),
    Message('note_on', channel=13, note=62, velocity=70, time=13),
    Message('control_change', channel=13, control=64, value=127, time=28),
    Message('note_on', channel=13, note=65, velocity=55, time=40),
    Message('note_on', channel=13, note=67, velocity=30, time=64),
    Message('note_on', channel=13, note=71, velocity=66, time=64),
    Message('note_on', channel=13, note=67, velocity=0, time=16),
    Message('note_on', channel=13, note=65, velocity=0, time=5),
    Message('note_on', channel=13, note=67, velocity=53, time=43),
    Message('note_on', channel=13, note=71, velocity=0, time=26),
    Message('note_on', channel=13, note=62, velocity=0, time=10),
    Message('note_on', channel=13, note=65, velocity=66, time=25),
    Message('control_change', channel=13, control=64, value=0, time=34),
    Message('note_on', channel=13, note=43, velocity=51, time=30),
    Message('note_on', channel=13, note=62, velocity=56, time=2),
    Message('note_on', channel=13, note=65, velocity=0, time=3),
    Message('note_on', channel=13, note=67, velocity=0, time=5),
    Message('control_change', channel=13, control=64, value=127, time=3),
    Message('note_on', channel=13, note=65, velocity=53, time=62),
    Message('note_on', channel=13, note=67, velocity=53, time=58),
    Message('note_on', channel=13, note=71, velocity=72, time=64),
    Message('note_on', channel=13, note=65, velocity=0, time=14),
    Message('note_on', channel=13, note=67, velocity=0, time=0),
    Message('note_on', channel=13, note=62, velocity=0, time=21),
    Message('note_on', channel=13, note=67, velocity=70, time=26),
    Message('note_on', channel=13, note=71, velocity=0, time=16),
    Message('note_on', channel=13, note=67, velocity=0, time=49),
    Message('note_on', channel=13, note=43, velocity=0, time=4),
    Message('note_on', channel=13, note=65, velocity=72, time=1),
    Message('note_on', channel=13, note=65, velocity=0, time=34),
    Message('control_change', channel=13, control=64, value=0, time=13),
    Message('note_on', channel=13, note=60, velocity=70, time=8),
    Message('control_change', channel=13, control=64, value=127, time=28),
    Message('note_on', channel=13, note=64, velocity=55, time=40),
    Message('note_on', channel=13, note=67, velocity=30, time=64),
    Message('note_on', channel=13, note=72, velocity=66, time=64),
    Message('note_on', channel=13, note=67, velocity=0, time=16),
    Message('note_on', channel=13, note=64, velocity=0, time=5),
    Message('note_on', channel=13, note=67, velocity=53, time=43),
    Message('note_on', channel=13, note=72, velocity=0, time=26),
    Message('note_on', channel=13, note=60, velocity=0, time=10),
    Message('note_on', channel=13, note=64, velocity=66, time=25),
    Message('control_change', channel=13, control=64, value=0, time=34),
    Message('note_on', channel=13, note=48, velocity=51, time=30),
    Message('note_on', channel=13, note=60, velocity=56, time=2),
    Message('note_on', channel=13, note=64, velocity=0, time=3),
    Message('note_on', channel=13, note=67, velocity=0, time=5),
    Message('control_change', channel=13, control=64, value=127, time=3),
    Message('note_on', channel=13, note=64, velocity=53, time=62),
    Message('note_on', channel=13, note=67, velocity=53, time=58),
    Message('note_on', channel=13, note=72, velocity=72, time=64),
    Message('note_on', channel=13, note=64, velocity=0, time=14),
    Message('note_on', channel=13, note=67, velocity=0, time=0),
    Message('note_on', channel=13, note=60, velocity=0, time=21),
    Message('note_on', channel=13, note=67, velocity=70, time=26),
    Message('note_on', channel=13, note=72, velocity=0, time=16),
    Message('note_on', channel=13, note=67, velocity=0, time=49),
    Message('note_on', channel=13, note=48, velocity=0, time=4),
    Message('note_on', channel=13, note=64, velocity=72, time=1),
    Message('note_on', channel=13, note=64, velocity=0, time=34),
    Message('control_change', channel=13, control=64, value=0, time=13),
    Message('note_on', channel=13, note=48, velocity=55, time=9),
    Message('note_on', channel=13, note=60, velocity=53, time=3),
    Message('control_change', channel=13, control=64, value=127, time=4),
    Message('note_on', channel=13, note=64, velocity=70, time=60),
    Message('note_on', channel=13, note=67, velocity=58, time=63),
    Message('note_on', channel=13, note=72, velocity=78, time=65),
    Message('note_on', channel=13, note=64, velocity=0, time=18),
    Message('note_on', channel=13, note=67, velocity=0, time=3),
    Message('note_on', channel=13, note=72, velocity=0, time=35),
    Message('note_on', channel=13, note=67, velocity=60, time=8),
    Message('note_on', channel=13, note=60, velocity=0, time=18),
    Message('control_change', channel=13, control=64, value=0, time=45),
    Message('note_on', channel=13, note=64, velocity=72, time=0),
    Message('note_on', channel=13, note=67, velocity=0, time=29),
    Message('note_on', channel=13, note=64, velocity=0, time=12),
    Message('note_on', channel=13, note=48, velocity=0, time=8),
    Message('note_on', channel=13, note=48, velocity=58, time=12),
    Message('control_change', channel=13, control=64, value=127, time=0),
    Message('note_on', channel=13, note=60, velocity=66, time=0),
    Message('note_on', channel=13, note=36, velocity=52, time=0),
    Message('note_on', channel=13, note=64, velocity=60, time=67),
    Message('note_on', channel=13, note=67, velocity=59, time=65),
    Message('note_on', channel=13, note=48, velocity=0, time=58),
    Message('note_on', channel=13, note=67, velocity=0, time=3),
    Message('note_on', channel=13, note=71, velocity=80, time=3),
    Message('note_on', channel=13, note=64, velocity=0, time=18),
    Message('note_on', channel=13, note=67, velocity=58, time=45),
    Message('note_on', channel=13, note=71, velocity=0, time=19),
    Message('note_on', channel=13, note=60, velocity=0, time=3),
    Message('note_on', channel=13, note=48, velocity=70, time=10),
    Message('note_on', channel=13, note=60, velocity=82, time=30),
    Message('note_on', channel=13, note=36, velocity=0, time=32),
    Message('note_on', channel=13, note=48, velocity=0, time=5),
    Message('control_change', channel=13, control=64, value=0, time=2),
    Message('note_on', channel=13, note=60, velocity=0, time=1),
    Message('note_on', channel=13, note=67, velocity=0, time=3),
    Message('note_on', channel=13, note=48, velocity=54, time=24),
    Message('note_on', channel=13, note=60, velocity=60, time=0),
    Message('control_change', channel=13, control=64, value=127, time=24),
    Message('note_on', channel=13, note=64, velocity=51, time=44),
    Message('note_on', channel=13, note=67, velocity=53, time=60),
    Message('note_on', channel=13, note=70, velocity=76, time=64),
    Message('note_on', channel=13, note=67, velocity=0, time=13),
    Message('note_on', channel=13, note=64, velocity=0, time=7),
    Message('note_on', channel=13, note=67, velocity=59, time=43),
    Message('note_on', channel=13, note=70, velocity=0, time=3),
    Message('note_on', channel=13, note=60, velocity=0, time=34),
    Message('note_on', channel=13, note=48, velocity=0, time=19),
    Message('note_on', channel=13, note=64, velocity=74, time=8),
    Message('note_on', channel=13, note=48, velocity=57, time=38),
    Message('control_change', channel=13, control=64, value=0, time=10),
    Message('note_on', channel=13, note=36, velocity=58, time=21),
    Message('note_on', channel=13, note=60, velocity=68, time=1),
    Message('control_change', channel=13, control=64, value=127, time=13),
    Message('note_on', channel=13, note=64, velocity=0, time=16),
    Message('note_on', channel=13, note=67, velocity=0, time=19),
    Message('note_on', channel=13, note=64, velocity=70, time=16),
    Message('note_on', channel=13, note=67, velocity=58, time=56),
    Message('note_on', channel=13, note=70, velocity=82, time=64),
    Message('note_on', channel=13, note=67, velocity=0, time=15),
    Message('note_on', channel=13, note=64, velocity=0, time=3),
    Message('note_on', channel=13, note=70, velocity=0, time=41),
    Message('note_on', channel=13, note=67, velocity=60, time=10),
    Message('note_on', channel=13, note=60, velocity=0, time=19),
    Message('note_on', channel=13, note=64, velocity=76, time=42),
    Message('note_on', channel=13, note=67, velocity=0, time=3),
    Message('note_on', channel=13, note=64, velocity=0, time=24),
    Message('control_change', channel=13, control=64, value=0, time=2),
    Message('note_on', channel=13, note=36, velocity=0, time=12),
    Message('note_on', channel=13, note=48, velocity=0, time=7),
    Message('note_on', channel=13, note=60, velocity=70, time=13),
    Message('control_change', channel=13, control=64, value=127, time=28),
    Message('note_on', channel=13, note=65, velocity=55, time=40),
    Message('note_on', channel=13, note=69, velocity=30, time=64),
    Message('note_on', channel=13, note=72, velocity=66, time=64),
    Message('note_on', channel=13, note=69, velocity=0, time=16),
    Message('note_on', channel=13, note=65, velocity=0, time=5),
    Message('note_on', channel=13, note=69, velocity=53, time=43),
    Message('note_on', channel=13, note=72, velocity=0, time=26),
    Message('note_on', channel=13, note=60, velocity=0, time=10),
    Message('note_on', channel=13, note=65, velocity=66, time=25),
    Message('control_change', channel=13, control=64, value=0, time=34),
    Message('note_on', channel=13, note=41, velocity=51, time=30),
    Message('note_on', channel=13, note=60, velocity=56, time=2),
    Message('note_on', channel=13, note=65, velocity=0, time=3),
    Message('note_on', channel=13, note=69, velocity=0, time=5),
    Message('control_change', channel=13, control=64, value=127, time=3),
    Message('note_on', channel=13, note=65, velocity=53, time=62),
    Message('note_on', channel=13, note=69, velocity=53, time=58),
    Message('note_on', channel=13, note=72, velocity=72, time=64),
    Message('note_on', channel=13, note=65, velocity=0, time=14),
    Message('note_on', channel=13, note=69, velocity=0, time=0),
    Message('note_on', channel=13, note=60, velocity=0, time=21),
    Message('note_on', channel=13, note=69, velocity=70, time=26),
    Message('note_on', channel=13, note=72, velocity=0, time=16),
    Message('note_on', channel=13, note=69, velocity=0, time=49),
    Message('note_on', channel=13, note=41, velocity=0, time=4),
    Message('note_on', channel=13, note=65, velocity=72, time=1),
    Message('note_on', channel=13, note=65, velocity=0, time=34),
    Message('control_change', channel=13, control=64, value=0, time=13),
    Message('note_on', channel=13, note=41, velocity=54, time=12),
    Message('note_on', channel=13, note=60, velocity=60, time=0),
    Message('control_change', channel=13, control=64, value=127, time=24),
    Message('note_on', channel=13, note=65, velocity=51, time=44),
    Message('note_on', channel=13, note=68, velocity=53, time=60),
    Message('note_on', channel=13, note=72, velocity=76, time=64),
    Message('note_on', channel=13, note=68, velocity=0, time=13),
    Message('note_on', channel=13, note=65, velocity=0, time=7),
    Message('note_on', channel=13, note=68, velocity=59, time=43),
    Message('note_on', channel=13, note=72, velocity=0, time=3),
    Message('note_on', channel=13, note=60, velocity=0, time=34),
    Message('note_on', channel=13, note=41, velocity=0, time=19),
    Message('note_on', channel=13, note=65, velocity=74, time=8),
    Message('note_on', channel=13, note=41, velocity=57, time=38),
    Message('control_change', channel=13, control=64, value=0, time=10),
    Message('note_on', channel=13, note=60, velocity=68, time=22),
    Message('control_change', channel=13, control=64, value=127, time=13),
    Message('note_on', channel=13, note=65, velocity=0, time=16),
    Message('note_on', channel=13, note=68, velocity=0, time=19),
    Message('note_on', channel=13, note=65, velocity=70, time=16),
    Message('note_on', channel=13, note=68, velocity=58, time=56),
    Message('note_on', channel=13, note=72, velocity=82, time=64),
    Message('note_on', channel=13, note=68, velocity=0, time=15),
    Message('note_on', channel=13, note=65, velocity=0, time=3),
    Message('note_on', channel=13, note=72, velocity=0, time=41),
    Message('note_on', channel=13, note=68, velocity=60, time=10),
    Message('note_on', channel=13, note=60, velocity=0, time=19),
    Message('note_on', channel=13, note=65, velocity=76, time=42),
    Message('note_on', channel=13, note=68, velocity=0, time=3),
    Message('note_on', channel=13, note=65, velocity=0, time=24),
    Message('control_change', channel=13, control=64, value=0, time=2),
    Message('note_on', channel=13, note=41, velocity=0, time=12),
    Message('note_on', channel=13, note=48, velocity=54, time=24),
    Message('note_on', channel=13, note=60, velocity=60, time=0),
    Message('control_change', channel=13, control=64, value=127, time=24),
    Message('note_on', channel=13, note=64, velocity=51, time=44),
    Message('note_on', channel=13, note=67, velocity=53, time=60),
    Message('note_on', channel=13, note=72, velocity=76, time=64),
    Message('note_on', channel=13, note=67, velocity=0, time=13),
    Message('note_on', channel=13, note=64, velocity=0, time=7),
    Message('note_on', channel=13, note=67, velocity=59, time=43),
    Message('note_on', channel=13, note=72, velocity=0, time=3),
    Message('note_on', channel=13, note=60, velocity=0, time=34),
    Message('note_on', channel=13, note=48, velocity=0, time=19),
    Message('note_on', channel=13, note=64, velocity=74, time=8),
    Message('note_on', channel=13, note=48, velocity=57, time=38),
    Message('control_change', channel=13, control=64, value=0, time=10),
    Message('note_on', channel=13, note=36, velocity=58, time=21),
    Message('note_on', channel=13, note=60, velocity=68, time=1),
    Message('control_change', channel=13, control=64, value=127, time=13),
    Message('note_on', channel=13, note=64, velocity=0, time=16),
    Message('note_on', channel=13, note=67, velocity=0, time=19),
    Message('note_on', channel=13, note=64, velocity=70, time=16),
    Message('note_on', channel=13, note=67, velocity=58, time=56),
    Message('note_on', channel=13, note=72, velocity=82, time=64),
    Message('note_on', channel=13, note=67, velocity=0, time=15),
    Message('note_on', channel=13, note=64, velocity=0, time=3),
    Message('note_on', channel=13, note=72, velocity=0, time=41),
    Message('note_on', channel=13, note=67, velocity=60, time=10),
    Message('note_on', channel=13, note=60, velocity=0, time=19),
    Message('note_on', channel=13, note=64, velocity=76, time=42),
    Message('note_on', channel=13, note=67, velocity=0, time=3),
    Message('note_on', channel=13, note=64, velocity=0, time=24),
    Message('control_change', channel=13, control=64, value=0, time=2),
    Message('note_on', channel=13, note=36, velocity=0, time=12),
    Message('note_on', channel=13, note=48, velocity=0, time=7),
    Message('note_on', channel=13, note=62, velocity=70, time=13),
    Message('control_change', channel=13, control=64, value=127, time=28),
    Message('note_on', channel=13, note=65, velocity=55, time=40),
    Message('note_on', channel=13, note=67, velocity=30, time=64),
    Message('note_on', channel=13, note=71, velocity=66, time=64),
    Message('note_on', channel=13, note=67, velocity=0, time=16),
    Message('note_on', channel=13, note=65, velocity=0, time=5),
    Message('note_on', channel=13, note=67, velocity=53, time=43),
    Message('note_on', channel=13, note=71, velocity=0, time=26),
    Message('note_on', channel=13, note=62, velocity=0, time=10),
    Message('note_on', channel=13, note=65, velocity=66, time=25),
    Message('control_change', channel=13, control=64, value=0, time=34),
    Message('note_on', channel=13, note=43, velocity=51, time=30),
    Message('note_on', channel=13, note=62, velocity=56, time=2),
    Message('note_on', channel=13, note=65, velocity=0, time=3),
    Message('note_on', channel=13, note=67, velocity=0, time=5),
    Message('control_change', channel=13, control=64, value=127, time=3),
    Message('note_on', channel=13, note=65, velocity=53, time=62),
    Message('note_on', channel=13, note=67, velocity=53, time=58),
    Message('note_on', channel=13, note=71, velocity=72, time=64),
    Message('note_on', channel=13, note=65, velocity=0, time=14),
    Message('note_on', channel=13, note=67, velocity=0, time=0),
    Message('note_on', channel=13, note=62, velocity=0, time=21),
    Message('note_on', channel=13, note=67, velocity=70, time=26),
    Message('note_on', channel=13, note=71, velocity=0, time=16),
    Message('note_on', channel=13, note=67, velocity=0, time=49),
    Message('note_on', channel=13, note=43, velocity=0, time=4),
    Message('note_on', channel=13, note=65, velocity=72, time=1),
    Message('note_on', channel=13, note=65, velocity=0, time=34),
    Message('control_change', channel=13, control=64, value=0, time=13),
    Message('note_on', channel=13, note=60, velocity=70, time=8),
    Message('control_change', channel=13, control=64, value=127, time=28),
    Message('note_on', channel=13, note=62, velocity=55, time=40),
    Message('note_on', channel=13, note=65, velocity=30, time=64),
    Message('note_on', channel=13, note=69, velocity=66, time=64),
    Message('note_on', channel=13, note=65, velocity=0, time=16),
    Message('note_on', channel=13, note=62, velocity=0, time=5),
    Message('note_on', channel=13, note=65, velocity=53, time=43),
    Message('note_on', channel=13, note=69, velocity=0, time=26),
    Message('note_on', channel=13, note=60, velocity=0, time=10),
    Message('note_on', channel=13, note=62, velocity=66, time=25),
    Message('control_change', channel=13, control=64, value=0, time=34),
    Message('note_on', channel=13, note=41, velocity=51, time=30),
    Message('note_on', channel=13, note=60, velocity=56, time=2),
    Message('note_on', channel=13, note=62, velocity=0, time=3),
    Message('note_on', channel=13, note=65, velocity=0, time=5),
    Message('control_change', channel=13, control=64, value=127, time=3),
    Message('note_on', channel=13, note=62, velocity=53, time=62),
    Message('note_on', channel=13, note=65, velocity=53, time=58),
    Message('note_on', channel=13, note=69, velocity=72, time=64),
    Message('note_on', channel=13, note=62, velocity=0, time=14),
    Message('note_on', channel=13, note=65, velocity=0, time=0),
    Message('note_on', channel=13, note=60, velocity=0, time=21),
    Message('note_on', channel=13, note=65, velocity=70, time=26),
    Message('note_on', channel=13, note=69, velocity=0, time=16),
    Message('note_on', channel=13, note=65, velocity=0, time=49),
    Message('note_on', channel=13, note=41, velocity=0, time=4),
    Message('note_on', channel=13, note=62, velocity=72, time=1),
    Message('note_on', channel=13, note=62, velocity=0, time=34),
    Message('control_change', channel=13, control=64, value=0, time=13),
    Message('note_on', channel=13, note=48, velocity=54, time=12),
    Message('note_on', channel=13, note=60, velocity=60, time=0),
    Message('control_change', channel=13, control=64, value=127, time=24),
    Message('note_on', channel=13, note=64, velocity=51, time=44),
    Message('note_on', channel=13, note=67, velocity=53, time=60),
    Message('note_on', channel=13, note=72, velocity=76, time=64),
    Message('note_on', channel=13, note=67, velocity=0, time=13),
    Message('note_on', channel=13, note=64, velocity=0, time=7),
    Message('note_on', channel=13, note=67, velocity=59, time=43),
    Message('note_on', channel=13, note=72, velocity=0, time=3),
    Message('note_on', channel=13, note=60, velocity=0, time=34),
    Message('note_on', channel=13, note=48, velocity=0, time=19),
    Message('note_on', channel=13, note=64, velocity=74, time=8),
    Message('note_on', channel=13, note=48, velocity=57, time=38),
    Message('control_change', channel=13, control=64, value=0, time=10),
    Message('note_on', channel=13, note=36, velocity=58, time=21),
    Message('note_on', channel=13, note=60, velocity=68, time=1),
    Message('control_change', channel=13, control=64, value=127, time=13),
    Message('note_on', channel=13, note=64, velocity=0, time=16),
    Message('note_on', channel=13, note=67, velocity=0, time=19),
    Message('note_on', channel=13, note=64, velocity=70, time=16),
    Message('note_on', channel=13, note=67, velocity=58, time=56),
    Message('note_on', channel=13, note=72, velocity=82, time=64),
    Message('note_on', channel=13, note=67, velocity=0, time=15),
    Message('note_on', channel=13, note=64, velocity=0, time=3),
    Message('note_on', channel=13, note=72, velocity=0, time=41),
    Message('note_on', channel=13, note=67, velocity=60, time=10),
    Message('note_on', channel=13, note=60, velocity=0, time=19),
    Message('note_on', channel=13, note=64, velocity=76, time=42),
    Message('note_on', channel=13, note=67, velocity=0, time=3),
    Message('note_on', channel=13, note=64, velocity=0, time=24),
    Message('control_change', channel=13, control=64, value=0, time=2),
    Message('note_on', channel=13, note=36, velocity=0, time=12),
    Message('note_on', channel=13, note=48, velocity=0, time=7),
    Message('note_on', channel=13, note=60, velocity=70, time=13),
    Message('control_change', channel=13, control=64, value=127, time=28),
    Message('note_on', channel=13, note=64, velocity=55, time=40),
    Message('note_on', channel=13, note=67, velocity=30, time=64),
    Message('note_on', channel=13, note=72, velocity=66, time=64),
    Message('note_on', channel=13, note=67, velocity=0, time=16),
    Message('note_on', channel=13, note=64, velocity=0, time=5),
    Message('note_on', channel=13, note=67, velocity=53, time=43),
    Message('note_on', channel=13, note=72, velocity=0, time=26),
    Message('note_on', channel=13, note=60, velocity=0, time=10),
    Message('note_on', channel=13, note=64, velocity=66, time=25),
    Message('control_change', channel=13, control=64, value=0, time=34),
    Message('note_on', channel=13, note=48, velocity=51, time=30),
    Message('note_on', channel=13, note=60, velocity=56, time=2),
    Message('note_on', channel=13, note=64, velocity=0, time=3),
    Message('note_on', channel=13, note=67, velocity=0, time=5),
    Message('control_change', channel=13, control=64, value=127, time=3),
    Message('note_on', channel=13, note=64, velocity=53, time=62),
    Message('note_on', channel=13, note=67, velocity=53, time=58),
    Message('note_on', channel=13, note=72, velocity=72, time=64),
    Message('note_on', channel=13, note=64, velocity=0, time=14),
    Message('note_on', channel=13, note=67, velocity=0, time=0),
    Message('note_on', channel=13, note=60, velocity=0, time=21),
    Message('note_on', channel=13, note=67, velocity=70, time=26),
    Message('note_on', channel=13, note=72, velocity=0, time=16),
    Message('note_on', channel=13, note=67, velocity=0, time=49),
    Message('note_on', channel=13, note=48, velocity=0, time=4),
    Message('note_on', channel=13, note=64, velocity=72, time=1),
    Message('note_on', channel=13, note=64, velocity=0, time=34),
    Message('control_change', channel=13, control=64, value=0, time=13),
    Message('note_on', channel=13, note=36, velocity=46, time=8),
    Message('note_on', channel=13, note=48, velocity=42, time=0),
    Message('note_on', channel=13, note=64, velocity=63, time=1),
    Message('control_change', channel=13, control=64, value=127, time=27),
    Message('note_on', channel=13, note=60, velocity=41, time=40),
    Message('note_on', channel=13, note=64, velocity=0, time=18),
    Message('note_on', channel=13, note=64, velocity=58, time=38),
    Message('note_on', channel=13, note=70, velocity=78, time=74),
    Message('note_on', channel=13, note=64, velocity=0, time=32),
    Message('note_on', channel=13, note=60, velocity=0, time=5),
    Message('note_on', channel=13, note=70, velocity=0, time=25),
    Message('note_on', channel=13, note=67, velocity=41, time=5),
    Message('note_on', channel=13, note=64, velocity=52, time=56),
    Message('note_on', channel=13, note=60, velocity=68, time=64),
    Message('note_on', channel=13, note=48, velocity=0, time=96),
    Message('note_on', channel=13, note=48, velocity=72, time=27),
    Message('note_on', channel=13, note=60, velocity=0, time=23),
    Message('note_on', channel=13, note=64, velocity=0, time=1),
    Message('note_on', channel=13, note=67, velocity=0, time=2),
    Message('note_on', channel=13, note=60, velocity=38, time=11),
    Message('note_on', channel=13, note=60, velocity=0, time=24),
    Message('note_on', channel=13, note=70, velocity=47, time=3),
    Message('note_on', channel=13, note=70, velocity=0, time=63),
    Message('note_on', channel=13, note=67, velocity=66, time=6),
    Message('note_on', channel=13, note=64, velocity=63, time=59),
    Message('note_on', channel=13, note=48, velocity=0, time=13),
    Message('control_change', channel=13, control=64, value=0, time=47),
    Message('note_on', channel=13, note=36, velocity=0, time=8),
    Message('note_on', channel=13, note=67, velocity=0, time=0),
    Message('note_on', channel=13, note=64, velocity=0, time=0),
    Message('note_on', channel=13, note=41, velocity=45, time=1),
    Message('note_on', channel=13, note=60, velocity=55, time=2),
    Message('control_change', channel=13, control=64, value=127, time=38),
    Message('note_on', channel=13, note=65, velocity=60, time=34),
    Message('note_on', channel=13, note=69, velocity=10, time=70),
    Message('note_on', channel=13, note=60, velocity=0, time=10),
    Message('note_on', channel=13, note=60, velocity=47, time=35),
    Message('note_on', channel=13, note=41, velocity=0, time=56),
    Message('note_on', channel=13, note=60, velocity=0, time=99),
    Message('note_on', channel=13, note=65, velocity=0, time=8),
    Message('note_on', channel=13, note=69, velocity=0, time=3),
    Message('note_on', channel=13, note=41, velocity=74, time=108),
    Message('note_on', channel=13, note=65, velocity=57, time=52),
    Message('note_on', channel=13, note=65, velocity=0, time=104),
    Message('note_on', channel=13, note=72, velocity=85, time=23),
    Message('note_on', channel=13, note=69, velocity=64, time=29),
    Message('note_on', channel=13, note=72, velocity=0, time=8),
    Message('note_on', channel=13, note=69, velocity=0, time=30),
    Message('note_on', channel=13, note=41, velocity=0, time=19),
    Message('note_on', channel=13, note=65, velocity=38, time=2),
    Message('note_on', channel=13, note=65, velocity=0, time=25),
    Message('control_change', channel=13, control=64, value=0, time=4),
    Message('note_on', channel=13, note=60, velocity=78, time=8),
    Message('note_on', channel=13, note=41, velocity=52, time=0),
    Message('control_change', channel=13, control=64, value=127, time=24),
    Message('note_on', channel=13, note=60, velocity=0, time=48),
    Message('note_on', channel=13, note=57, velocity=56, time=60),
    Message('note_on', channel=13, note=65, velocity=68, time=61),
    Message('note_on', channel=13, note=69, velocity=72, time=0),
    Message('note_on', channel=13, note=57, velocity=0, time=103),
    Message('note_on', channel=13, note=57, velocity=59, time=20),
    Message('note_on', channel=13, note=41, velocity=0, time=69),
    Message('note_on', channel=13, note=41, velocity=42, time=125),
    Message('note_on', channel=13, note=69, velocity=0, time=10),
    Message('note_on', channel=13, note=65, velocity=0, time=6),
    Message('note_on', channel=13, note=57, velocity=0, time=3),
    Message('note_on', channel=13, note=65, velocity=74, time=51),
    Message('note_on', channel=13, note=69, velocity=66, time=2),
    Message('note_on', channel=13, note=57, velocity=59, time=0),
    Message('note_on', channel=13, note=41, velocity=0, time=43),
    Message('note_on', channel=13, note=57, velocity=0, time=8),
    Message('note_on', channel=13, note=65, velocity=0, time=3),
    Message('note_on', channel=13, note=69, velocity=0, time=4),
    Message('control_change', channel=13, control=64, value=0, time=35),
    Message('note_on', channel=13, note=62, velocity=70, time=93),
    Message('control_change', channel=13, control=64, value=127, time=28),
    Message('note_on', channel=13, note=65, velocity=55, time=40),
    Message('note_on', channel=13, note=69, velocity=30, time=64),
    Message('note_on', channel=13, note=72, velocity=66, time=64),
    Message('note_on', channel=13, note=69, velocity=0, time=16),
    Message('note_on', channel=13, note=65, velocity=0, time=5),
    Message('note_on', channel=13, note=69, velocity=53, time=43),
    Message('note_on', channel=13, note=72, velocity=0, time=26),
    Message('note_on', channel=13, note=62, velocity=0, time=10),
    Message('note_on', channel=13, note=65, velocity=66, time=25),
    Message('control_change', channel=13, control=64, value=0, time=34),
    Message('note_on', channel=13, note=50, velocity=51, time=30),
    Message('note_on', channel=13, note=62, velocity=56, time=2),
    Message('note_on', channel=13, note=65, velocity=0, time=3),
    Message('note_on', channel=13, note=69, velocity=0, time=5),
    Message('control_change', channel=13, control=64, value=127, time=3),
    Message('note_on', channel=13, note=65, velocity=53, time=62),
    Message('note_on', channel=13, note=69, velocity=53, time=58),
    Message('note_on', channel=13, note=72, velocity=72, time=64),
    Message('note_on', channel=13, note=65, velocity=0, time=14),
    Message('note_on', channel=13, note=69, velocity=0, time=0),
    Message('note_on', channel=13, note=62, velocity=0, time=21),
    Message('note_on', channel=13, note=69, velocity=70, time=26),
    Message('note_on', channel=13, note=72, velocity=0, time=16),
    Message('note_on', channel=13, note=69, velocity=0, time=49),
    Message('note_on', channel=13, note=50, velocity=0, time=4),
    Message('note_on', channel=13, note=65, velocity=72, time=1),
    Message('note_on', channel=13, note=65, velocity=0, time=34),
    Message('control_change', channel=13, control=64, value=0, time=13),
    Message('note_on', channel=13, note=43, velocity=54, time=12),
    Message('note_on', channel=13, note=62, velocity=60, time=0),
    Message('control_change', channel=13, control=64, value=127, time=24),
    Message('note_on', channel=13, note=65, velocity=51, time=44),
    Message('note_on', channel=13, note=67, velocity=53, time=60),
    Message('note_on', channel=13, note=71, velocity=76, time=64),
    Message('note_on', channel=13, note=67, velocity=0, time=13),
    Message('note_on', channel=13, note=65, velocity=0, time=7),
    Message('note_on', channel=13, note=67, velocity=59, time=43),
    Message('note_on', channel=13, note=71, velocity=0, time=3),
    Message('note_on', channel=13, note=62, velocity=0, time=34),
    Message('note_on', channel=13, note=43, velocity=0, time=19),
    Message('note_on', channel=13, note=65, velocity=74, time=8),
    Message('note_on', channel=13, note=43, velocity=57, time=38),
    Message('control_change', channel=13, control=64, value=0, time=10),
    Message('note_on', channel=13, note=62, velocity=68, time=22),
    Message('control_change', channel=13, control=64, value=127, time=13),
    Message('note_on', channel=13, note=65, velocity=0, time=16),
    Message('note_on', channel=13, note=67, velocity=0, time=19),
    Message('note_on', channel=13, note=65, velocity=70, time=16),
    Message('note_on', channel=13, note=67, velocity=58, time=56),
    Message('note_on', channel=13, note=71, velocity=82, time=64),
    Message('note_on', channel=13, note=67, velocity=0, time=15),
    Message('note_on', channel=13, note=65, velocity=0, time=3),
    Message('note_on', channel=13, note=71, velocity=0, time=41),
    Message('note_on', channel=13, note=67, velocity=60, time=10),
    Message('note_on', channel=13, note=62, velocity=0, time=19),
    Message('note_on', channel=13, note=65, velocity=76, time=42),
    Message('note_on', channel=13, note=67, velocity=0, time=3),
    Message('note_on', channel=13, note=65, velocity=0, time=24),
    Message('control_change', channel=13, control=64, value=0, time=2),
    Message('note_on', channel=13, note=43, velocity=0, time=12),
    Message('note_on', channel=13, note=40, velocity=54, time=24),
    Message('note_on', channel=13, note=59, velocity=60, time=0),
    Message('control_change', channel=13, control=64, value=127, time=24),
    Message('note_on', channel=13, note=62, velocity=51, time=44),
    Message('note_on', channel=13, note=64, velocity=53, time=60),
    Message('note_on', channel=13, note=67, velocity=76, time=64),
    Message('note_on', channel=13, note=64, velocity=0, time=13),
    Message('note_on', channel=13, note=62, velocity=0, time=7),
    Message('note_on', channel=13, note=64, velocity=59, time=43),
    Message('note_on', channel=13, note=67, velocity=0, time=3),
    Message('note_on', channel=13, note=59, velocity=0, time=34),
    Message('note_on', channel=13, note=40, velocity=0, time=19),
    Message('note_on', channel=13, note=62, velocity=74, time=8),
    Message('note_on', channel=13, note=40, velocity=57, time=38),
    Message('control_change', channel=13, control=64, value=0, time=10),
    Message('note_on', channel=13, note=59, velocity=68, time=22),
    Message('control_change', channel=13, control=64, value=127, time=13),
    Message('note_on', channel=13, note=62, velocity=0, time=16),
    Message('note_on', channel=13, note=64, velocity=0, time=19),
    Message('note_on', channel=13, note=62, velocity=70, time=16),
    Message('note_on', channel=13, note=64, velocity=58, time=56),
    Message('note_on', channel=13, note=67, velocity=82, time=64),
    Message('note_on', channel=13, note=64, velocity=0, time=15),
    Message('note_on', channel=13, note=62, velocity=0, time=3),
    Message('note_on', channel=13, note=67, velocity=0, time=41),
    Message('note_on', channel=13, note=64, velocity=60, time=10),
    Message('note_on', channel=13, note=59, velocity=0, time=19),
    Message('note_on', channel=13, note=62, velocity=76, time=42),
    Message('note_on', channel=13, note=64, velocity=0, time=3),
    Message('note_on', channel=13, note=62, velocity=0, time=24),
    Message('control_change', channel=13, control=64, value=0, time=2),
    Message('note_on', channel=13, note=40, velocity=0, time=12),
    Message('note_on', channel=13, note=64, velocity=70, time=20),
    Message('control_change', channel=13, control=64, value=127, time=28),
    Message('note_on', channel=13, note=69, velocity=55, time=40),
    Message('note_on', channel=13, note=72, velocity=30, time=64),
    Message('note_on', channel=13, note=76, velocity=66, time=64),
    Message('note_on', channel=13, note=72, velocity=0, time=16),
    Message('note_on', channel=13, note=69, velocity=0, time=5),
    Message('note_on', channel=13, note=72, velocity=53, time=43),
    Message('note_on', channel=13, note=76, velocity=0, time=26),
    Message('note_on', channel=13, note=64, velocity=0, time=10),
    Message('note_on', channel=13, note=69, velocity=66, time=25),
    Message('control_change', channel=13, control=64, value=0, time=34),
    Message('note_on', channel=13, note=45, velocity=51, time=30),
    Message('note_on', channel=13, note=64, velocity=56, time=2),
    Message('note_on', channel=13, note=69, velocity=0, time=3),
    Message('note_on', channel=13, note=72, velocity=0, time=5),
    Message('control_change', channel=13, control=64, value=127, time=3),
    Message('note_on', channel=13, note=69, velocity=53, time=62),
    Message('note_on', channel=13, note=72, velocity=53, time=58),
    Message('note_on', channel=13, note=76, velocity=72, time=64),
    Message('note_on', channel=13, note=69, velocity=0, time=14),
    Message('note_on', channel=13, note=72, velocity=0, time=0),
    Message('note_on', channel=13, note=64, velocity=0, time=21),
    Message('note_on', channel=13, note=72, velocity=70, time=26),
    Message('note_on', channel=13, note=76, velocity=0, time=16),
    Message('note_on', channel=13, note=72, velocity=0, time=49),
    Message('note_on', channel=13, note=45, velocity=0, time=4),
    Message('note_on', channel=13, note=69, velocity=72, time=1),
    Message('note_on', channel=13, note=69, velocity=0, time=34),
    Message('control_change', channel=13, control=64, value=0, time=13),
    Message('note_on', channel=13, note=50, velocity=54, time=12),
    Message('note_on', channel=13, note=62, velocity=60, time=0),
    Message('control_change', channel=13, control=64, value=127, time=24),
    Message('note_on', channel=13, note=65, velocity=51, time=44),
    Message('note_on', channel=13, note=69, velocity=53, time=60),
    Message('note_on', channel=13, note=72, velocity=76, time=64),
    Message('note_on', channel=13, note=69, velocity=0, time=13),
    Message('note_on', channel=13, note=65, velocity=0, time=7),
    Message('note_on', channel=13, note=69, velocity=59, time=43),
    Message('note_on', channel=13, note=72, velocity=0, time=3),
    Message('note_on', channel=13, note=62, velocity=0, time=34),
    Message('note_on', channel=13, note=50, velocity=0, time=19),
    Message('note_on', channel=13, note=65, velocity=74, time=8),
    Message('note_on', channel=13, note=50, velocity=57, time=38),
    Message('control_change', channel=13, control=64, value=0, time=10),
    Message('note_on', channel=13, note=38, velocity=58, time=21),
    Message('note_on', channel=13, note=62, velocity=68, time=1),
    Message('control_change', channel=13, control=64, value=127, time=13),
    Message('note_on', channel=13, note=65, velocity=0, time=16),
    Message('note_on', channel=13, note=69, velocity=0, time=19),
    Message('note_on', channel=13, note=65, velocity=70, time=16),
    Message('note_on', channel=13, note=69, velocity=58, time=56),
    Message('note_on', channel=13, note=72, velocity=82, time=64),
    Message('note_on', channel=13, note=69, velocity=0, time=15),
    Message('note_on', channel=13, note=65, velocity=0, time=3),
    Message('note_on', channel=13, note=72, velocity=0, time=41),
    Message('note_on', channel=13, note=69, velocity=60, time=10),
    Message('note_on', channel=13, note=62, velocity=0, time=19),
    Message('note_on', channel=13, note=65, velocity=76, time=42),
    Message('note_on', channel=13, note=69, velocity=0, time=3),
    Message('note_on', channel=13, note=65, velocity=0, time=24),
    Message('control_change', channel=13, control=64, value=0, time=2),
    Message('note_on', channel=13, note=38, velocity=0, time=12),
    Message('note_on', channel=13, note=50, velocity=0, time=7),
    Message('note_on', channel=13, note=43, velocity=46, time=13),
    Message('note_on', channel=13, note=65, velocity=63, time=1),
    Message('control_change', channel=13, control=64, value=127, time=27),
    Message('note_on', channel=13, note=62, velocity=41, time=40),
    Message('note_on', channel=13, note=65, velocity=0, time=18),
    Message('note_on', channel=13, note=65, velocity=58, time=38),
    Message('note_on', channel=13, note=71, velocity=78, time=74),
    Message('note_on', channel=13, note=65, velocity=0, time=32),
    Message('note_on', channel=13, note=62, velocity=0, time=5),
    Message('note_on', channel=13, note=71, velocity=0, time=25),
    Message('note_on', channel=13, note=67, velocity=41, time=5),
    Message('note_on', channel=13, note=65, velocity=52, time=56),
    Message('note_on', channel=13, note=62, velocity=68, time=64),
    Message('note_on', channel=13, note=43, velocity=0, time=96),
    Message('note_on', channel=13, note=43, velocity=72, time=27),
    Message('note_on', channel=13, note=62, velocity=0, time=23),
    Message('note_on', channel=13, note=65, velocity=0, time=1),
    Message('note_on', channel=13, note=67, velocity=0, time=2),
    Message('note_on', channel=13, note=62, velocity=38, time=11),
    Message('note_on', channel=13, note=62, velocity=0, time=24),
    Message('note_on', channel=13, note=71, velocity=47, time=3),
    Message('note_on', channel=13, note=71, velocity=0, time=63),
    Message('note_on', channel=13, note=67, velocity=66, time=6),
    Message('note_on', channel=13, note=65, velocity=63, time=59),
    Message('note_on', channel=13, note=43, velocity=0, time=13),
    Message('control_change', channel=13, control=64, value=0, time=47),
    Message('note_on', channel=13, note=67, velocity=0, time=8),
    Message('note_on', channel=13, note=65, velocity=0, time=0),
    Message('note_on', channel=13, note=60, velocity=70, time=0),
    Message('control_change', channel=13, control=64, value=127, time=28),
    Message('note_on', channel=13, note=62, velocity=55, time=40),
    Message('note_on', channel=13, note=65, velocity=30, time=64),
    Message('note_on', channel=13, note=69, velocity=66, time=64),
    Message('note_on', channel=13, note=65, velocity=0, time=16),
    Message('note_on', channel=13, note=62, velocity=0, time=5),
    Message('note_on', channel=13, note=65, velocity=53, time=43),
    Message('note_on', channel=13, note=69, velocity=0, time=26),
    Message('note_on', channel=13, note=60, velocity=0, time=10),
    Message('note_on', channel=13, note=62, velocity=66, time=25),
    Message('control_change', channel=13, control=64, value=0, time=34),
    Message('note_on', channel=13, note=41, velocity=51, time=30),
    Message('note_on', channel=13, note=60, velocity=56, time=2),
    Message('note_on', channel=13, note=62, velocity=0, time=3),
    Message('note_on', channel=13, note=65, velocity=0, time=5),
    Message('control_change', channel=13, control=64, value=127, time=3),
    Message('note_on', channel=13, note=62, velocity=53, time=62),
    Message('note_on', channel=13, note=65, velocity=53, time=58),
    Message('note_on', channel=13, note=69, velocity=72, time=64),
    Message('note_on', channel=13, note=62, velocity=0, time=14),
    Message('note_on', channel=13, note=65, velocity=0, time=0),
    Message('note_on', channel=13, note=60, velocity=0, time=21),
    Message('note_on', channel=13, note=65, velocity=70, time=26),
    Message('note_on', channel=13, note=69, velocity=0, time=16),
    Message('note_on', channel=13, note=65, velocity=0, time=49),
    Message('note_on', channel=13, note=41, velocity=0, time=4),
    Message('note_on', channel=13, note=62, velocity=72, time=1),
    Message('note_on', channel=13, note=62, velocity=0, time=34),
    Message('control_change', channel=13, control=64, value=0, time=13),
    Message('note_on', channel=13, note=36, velocity=46, time=8),
    Message('note_on', channel=13, note=48, velocity=42, time=0),
    Message('note_on', channel=13, note=64, velocity=63, time=1),
    Message('control_change', channel=13, control=64, value=127, time=27),
    Message('note_on', channel=13, note=60, velocity=41, time=40),
    Message('note_on', channel=13, note=64, velocity=0, time=18),
    Message('note_on', channel=13, note=64, velocity=58, time=38),
    Message('note_on', channel=13, note=72, velocity=78, time=74),
    Message('note_on', channel=13, note=64, velocity=0, time=32),
    Message('note_on', channel=13, note=60, velocity=0, time=5),
    Message('note_on', channel=13, note=72, velocity=0, time=25),
    Message('note_on', channel=13, note=67, velocity=41, time=5),
    Message('note_on', channel=13, note=64, velocity=52, time=56),
    Message('note_on', channel=13, note=60, velocity=68, time=64),
    Message('note_on', channel=13, note=48, velocity=0, time=96),
    Message('note_on', channel=13, note=48, velocity=72, time=27),
    Message('note_on', channel=13, note=60, velocity=0, time=23),
    Message('note_on', channel=13, note=64, velocity=0, time=1),
    Message('note_on', channel=13, note=67, velocity=0, time=2),
    Message('note_on', channel=13, note=60, velocity=38, time=11),
    Message('note_on', channel=13, note=60, velocity=0, time=24),
    Message('note_on', channel=13, note=72, velocity=47, time=3),
    Message('note_on', channel=13, note=72, velocity=0, time=63),
    Message('note_on', channel=13, note=67, velocity=66, time=6),
    Message('note_on', channel=13, note=64, velocity=63, time=59),
    Message('note_on', channel=13, note=48, velocity=0, time=13),
    Message('control_change', channel=13, control=64, value=0, time=47),
    Message('note_on', channel=13, note=36, velocity=0, time=8),
    Message('note_on', channel=13, note=67, velocity=0, time=0),
    Message('note_on', channel=13, note=64, velocity=0, time=0),
    Message('note_on', channel=13, note=48, velocity=54, time=4),
    Message('note_on', channel=13, note=60, velocity=60, time=0),
    Message('control_change', channel=13, control=64, value=127, time=24),
    Message('note_on', channel=13, note=64, velocity=51, time=44),
    Message('note_on', channel=13, note=67, velocity=53, time=60),
    Message('note_on', channel=13, note=72, velocity=76, time=64),
    Message('note_on', channel=13, note=67, velocity=0, time=13),
    Message('note_on', channel=13, note=64, velocity=0, time=7),
    Message('note_on', channel=13, note=67, velocity=59, time=43),
    Message('note_on', channel=13, note=72, velocity=0, time=3),
    Message('note_on', channel=13, note=60, velocity=0, time=34),
    Message('note_on', channel=13, note=48, velocity=0, time=19),
    Message('note_on', channel=13, note=64, velocity=74, time=8),
    Message('note_on', channel=13, note=48, velocity=57, time=38),
    Message('control_change', channel=13, control=64, value=0, time=10),
    Message('note_on', channel=13, note=36, velocity=58, time=21),
    Message('note_on', channel=13, note=60, velocity=68, time=1),
    Message('control_change', channel=13, control=64, value=127, time=13),
    Message('note_on', channel=13, note=64, velocity=0, time=16),
    Message('note_on', channel=13, note=67, velocity=0, time=19),
    Message('note_on', channel=13, note=64, velocity=70, time=16),
    Message('note_on', channel=13, note=67, velocity=58, time=56),
    Message('note_on', channel=13, note=72, velocity=82, time=64),
    Message('note_on', channel=13, note=67, velocity=0, time=15),
    Message('note_on', channel=13, note=64, velocity=0, time=3),
    Message('note_on', channel=13, note=72, velocity=0, time=41),
    Message('note_on', channel=13, note=67, velocity=60, time=10),
    Message('note_on', channel=13, note=60, velocity=0, time=19),
    Message('note_on', channel=13, note=64, velocity=76, time=42),
    Message('note_on', channel=13, note=67, velocity=0, time=3),
    Message('note_on', channel=13, note=64, velocity=0, time=24),
    Message('control_change', channel=13, control=64, value=0, time=2),
    Message('note_on', channel=13, note=36, velocity=0, time=12),
    Message('note_on', channel=13, note=48, velocity=0, time=7),
    Message('note_on', channel=13, note=59, velocity=70, time=13),
    Message('control_change', channel=13, control=64, value=127, time=28),
    Message('note_on', channel=13, note=64, velocity=55, time=40),
    Message('note_on', channel=13, note=67, velocity=30, time=64),
    Message('note_on', channel=13, note=71, velocity=66, time=64),
    Message('note_on', channel=13, note=67, velocity=0, time=16),
    Message('note_on', channel=13, note=64, velocity=0, time=5),
    Message('note_on', channel=13, note=67, velocity=53, time=43),
    Message('note_on', channel=13, note=71, velocity=0, time=26),
    Message('note_on', channel=13, note=59, velocity=0, time=10),
    Message('note_on', channel=13, note=64, velocity=66, time=25),
    Message('control_change', channel=13, control=64, value=0, time=34),
    Message('note_on', channel=13, note=40, velocity=51, time=30),
    Message('note_on', channel=13, note=59, velocity=56, time=2),
    Message('note_on', channel=13, note=64, velocity=0, time=3),
    Message('note_on', channel=13, note=67, velocity=0, time=5),
    Message('control_change', channel=13, control=64, value=127, time=3),
    Message('note_on', channel=13, note=64, velocity=53, time=62),
    Message('note_on', channel=13, note=67, velocity=53, time=58),
    Message('note_on', channel=13, note=71, velocity=72, time=64),
    Message('note_on', channel=13, note=64, velocity=0, time=14),
    Message('note_on', channel=13, note=67, velocity=0, time=0),
    Message('note_on', channel=13, note=59, velocity=0, time=21),
    Message('note_on', channel=13, note=67, velocity=70, time=26),
    Message('note_on', channel=13, note=71, velocity=0, time=16),
    Message('note_on', channel=13, note=67, velocity=0, time=49),
    Message('note_on', channel=13, note=40, velocity=0, time=4),
    Message('note_on', channel=13, note=64, velocity=72, time=1),
    Message('note_on', channel=13, note=64, velocity=0, time=34),
    Message('control_change', channel=13, control=64, value=0, time=13),
    Message('note_on', channel=13, note=62, velocity=70, time=8),
    Message('control_change', channel=13, control=64, value=127, time=28),
    Message('note_on', channel=13, note=64, velocity=55, time=40),
    Message('note_on', channel=13, note=67, velocity=30, time=64),
    Message('note_on', channel=13, note=70, velocity=66, time=64),
    Message('note_on', channel=13, note=67, velocity=0, time=16),
    Message('note_on', channel=13, note=64, velocity=0, time=5),
    Message('note_on', channel=13, note=67, velocity=53, time=43),
    Message('note_on', channel=13, note=70, velocity=0, time=26),
    Message('note_on', channel=13, note=62, velocity=0, time=10),
    Message('note_on', channel=13, note=64, velocity=66, time=25),
    Message('control_change', channel=13, control=64, value=0, time=34),
    Message('note_on', channel=13, note=43, velocity=51, time=30),
    Message('note_on', channel=13, note=62, velocity=56, time=2),
    Message('note_on', channel=13, note=64, velocity=0, time=3),
    Message('note_on', channel=13, note=67, velocity=0, time=5),
    Message('control_change', channel=13, control=64, value=127, time=3),
    Message('note_on', channel=13, note=64, velocity=53, time=62),
    Message('note_on', channel=13, note=67, velocity=53, time=58),
    Message('note_on', channel=13, note=70, velocity=72, time=64),
    Message('note_on', channel=13, note=64, velocity=0, time=14),
    Message('note_on', channel=13, note=67, velocity=0, time=0),
    Message('note_on', channel=13, note=62, velocity=0, time=21),
    Message('note_on', channel=13, note=67, velocity=70, time=26),
    Message('note_on', channel=13, note=70, velocity=0, time=16),
    Message('note_on', channel=13, note=67, velocity=0, time=49),
    Message('note_on', channel=13, note=43, velocity=0, time=4),
    Message('note_on', channel=13, note=64, velocity=72, time=1),
    Message('note_on', channel=13, note=64, velocity=0, time=34),
    Message('control_change', channel=13, control=64, value=0, time=13),
    Message('note_on', channel=13, note=64, velocity=70, time=8),
    Message('control_change', channel=13, control=64, value=127, time=28),
    Message('note_on', channel=13, note=67, velocity=55, time=40),
    Message('note_on', channel=13, note=69, velocity=30, time=64),
    Message('note_on', channel=13, note=73, velocity=66, time=64),
    Message('note_on', channel=13, note=69, velocity=0, time=16),
    Message('note_on', channel=13, note=67, velocity=0, time=5),
    Message('note_on', channel=13, note=69, velocity=53, time=43),
    Message('note_on', channel=13, note=73, velocity=0, time=26),
    Message('note_on', channel=13, note=64, velocity=0, time=10),
    Message('note_on', channel=13, note=67, velocity=66, time=25),
    Message('control_change', channel=13, control=64, value=0, time=34),
    Message('note_on', channel=13, note=45, velocity=51, time=30),
    Message('note_on', channel=13, note=64, velocity=56, time=2),
    Message('note_on', channel=13, note=67, velocity=0, time=3),
    Message('note_on', channel=13, note=69, velocity=0, time=5),
    Message('control_change', channel=13, control=64, value=127, time=3),
    Message('note_on', channel=13, note=67, velocity=53, time=62),
    Message('note_on', channel=13, note=69, velocity=53, time=58),
    Message('note_on', channel=13, note=73, velocity=72, time=64),
    Message('note_on', channel=13, note=67, velocity=0, time=14),
    Message('note_on', channel=13, note=69, velocity=0, time=0),
    Message('note_on', channel=13, note=64, velocity=0, time=21),
    Message('note_on', channel=13, note=69, velocity=70, time=26),
    Message('note_on', channel=13, note=73, velocity=0, time=16),
    Message('note_on', channel=13, note=69, velocity=0, time=49),
    Message('note_on', channel=13, note=45, velocity=0, time=4),
    Message('note_on', channel=13, note=67, velocity=72, time=1),
    Message('note_on', channel=13, note=67, velocity=0, time=34),
    Message('control_change', channel=13, control=64, value=0, time=13),
    Message('note_on', channel=13, note=50, velocity=54, time=12),
    Message('note_on', channel=13, note=62, velocity=60, time=0),
    Message('control_change', channel=13, control=64, value=127, time=24),
    Message('note_on', channel=13, note=65, velocity=51, time=44),
    Message('note_on', channel=13, note=69, velocity=53, time=60),
    Message('note_on', channel=13, note=74, velocity=76, time=64),
    Message('note_on', channel=13, note=69, velocity=0, time=13),
    Message('note_on', channel=13, note=65, velocity=0, time=7),
    Message('note_on', channel=13, note=69, velocity=59, time=43),
    Message('note_on', channel=13, note=74, velocity=0, time=3),
    Message('note_on', channel=13, note=62, velocity=0, time=34),
    Message('note_on', channel=13, note=50, velocity=0, time=19),
    Message('note_on', channel=13, note=65, velocity=74, time=8),
    Message('note_on', channel=13, note=50, velocity=57, time=38),
    Message('control_change', channel=13, control=64, value=0, time=10),
    Message('note_on', channel=13, note=38, velocity=58, time=21),
    Message('note_on', channel=13, note=62, velocity=68, time=1),
    Message('control_change', channel=13, control=64, value=127, time=13),
    Message('note_on', channel=13, note=65, velocity=0, time=16),
    Message('note_on', channel=13, note=69, velocity=0, time=19),
    Message('note_on', channel=13, note=65, velocity=70, time=16),
    Message('note_on', channel=13, note=69, velocity=58, time=56),
    Message('note_on', channel=13, note=74, velocity=82, time=64),
    Message('note_on', channel=13, note=69, velocity=0, time=15),
    Message('note_on', channel=13, note=65, velocity=0, time=3),
    Message('note_on', channel=13, note=74, velocity=0, time=41),
    Message('note_on', channel=13, note=69, velocity=60, time=10),
    Message('note_on', channel=13, note=62, velocity=0, time=19),
    Message('note_on', channel=13, note=65, velocity=76, time=42),
    Message('note_on', channel=13, note=69, velocity=0, time=3),
    Message('note_on', channel=13, note=65, velocity=0, time=24),
    Message('control_change', channel=13, control=64, value=0, time=2),
    Message('note_on', channel=13, note=38, velocity=0, time=12),
    Message('note_on', channel=13, note=50, velocity=0, time=7),
    Message('note_on', channel=13, note=62, velocity=70, time=13),
    Message('control_change', channel=13, control=64, value=127, time=28),
    Message('note_on', channel=13, note=65, velocity=55, time=40),
    Message('note_on', channel=13, note=69, velocity=30, time=64),
    Message('note_on', channel=13, note=72, velocity=66, time=64),
    Message('note_on', channel=13, note=69, velocity=0, time=16),
    Message('note_on', channel=13, note=65, velocity=0, time=5),
    Message('note_on', channel=13, note=69, velocity=53, time=43),
    Message('note_on', channel=13, note=72, velocity=0, time=26),
    Message('note_on', channel=13, note=62, velocity=0, time=10),
    Message('note_on', channel=13, note=65, velocity=66, time=25),
    Message('control_change', channel=13, control=64, value=0, time=34),
    Message('note_on', channel=13, note=50, velocity=51, time=30),
    Message('note_on', channel=13, note=62, velocity=56, time=2),
    Message('note_on', channel=13, note=65, velocity=0, time=3),
    Message('note_on', channel=13, note=69, velocity=0, time=5),
    Message('control_change', channel=13, control=64, value=127, time=3),
    Message('note_on', channel=13, note=65, velocity=53, time=62),
    Message('note_on', channel=13, note=69, velocity=53, time=58),
    Message('note_on', channel=13, note=72, velocity=72, time=64),
    Message('note_on', channel=13, note=65, velocity=0, time=14),
    Message('note_on', channel=13, note=69, velocity=0, time=0),
    Message('note_on', channel=13, note=62, velocity=0, time=21),
    Message('note_on', channel=13, note=69, velocity=70, time=26),
    Message('note_on', channel=13, note=72, velocity=0, time=16),
    Message('note_on', channel=13, note=69, velocity=0, time=49),
    Message('note_on', channel=13, note=50, velocity=0, time=4),
    Message('note_on', channel=13, note=65, velocity=72, time=1),
    Message('note_on', channel=13, note=65, velocity=0, time=34),
    Message('control_change', channel=13, control=64, value=0, time=13),
    Message('note_on', channel=13, note=43, velocity=54, time=12),
    Message('note_on', channel=13, note=62, velocity=60, time=0),
    Message('control_change', channel=13, control=64, value=127, time=24),
    Message('note_on', channel=13, note=65, velocity=51, time=44),
    Message('note_on', channel=13, note=67, velocity=53, time=60),
    Message('note_on', channel=13, note=71, velocity=76, time=64),
    Message('note_on', channel=13, note=67, velocity=0, time=13),
    Message('note_on', channel=13, note=65, velocity=0, time=7),
    Message('note_on', channel=13, note=67, velocity=59, time=43),
    Message('note_on', channel=13, note=71, velocity=0, time=3),
    Message('note_on', channel=13, note=62, velocity=0, time=34),
    Message('note_on', channel=13, note=43, velocity=0, time=19),
    Message('note_on', channel=13, note=65, velocity=74, time=8),
    Message('note_on', channel=13, note=43, velocity=57, time=38),
    Message('control_change', channel=13, control=64, value=0, time=10),
    Message('note_on', channel=13, note=62, velocity=68, time=22),
    Message('control_change', channel=13, control=64, value=127, time=13),
    Message('note_on', channel=13, note=65, velocity=0, time=16),
    Message('note_on', channel=13, note=67, velocity=0, time=19),
    Message('note_on', channel=13, note=65, velocity=70, time=16),
    Message('note_on', channel=13, note=67, velocity=58, time=56),
    Message('note_on', channel=13, note=71, velocity=82, time=64),
    Message('note_on', channel=13, note=67, velocity=0, time=15),
    Message('note_on', channel=13, note=65, velocity=0, time=3),
    Message('note_on', channel=13, note=71, velocity=0, time=41),
    Message('note_on', channel=13, note=67, velocity=60, time=10),
    Message('note_on', channel=13, note=62, velocity=0, time=19),
    Message('note_on', channel=13, note=65, velocity=76, time=42),
    Message('note_on', channel=13, note=67, velocity=0, time=3),
    Message('note_on', channel=13, note=65, velocity=0, time=24),
    Message('control_change', channel=13, control=64, value=0, time=2),
    Message('note_on', channel=13, note=43, velocity=0, time=12),
    Message('note_on', channel=13, note=60, velocity=70, time=20),
    Message('control_change', channel=13, control=64, value=127, time=28),
    Message('note_on', channel=13, note=64, velocity=55, time=40),
    Message('note_on', channel=13, note=67, velocity=30, time=64),
    Message('note_on', channel=13, note=72, velocity=66, time=64),
    Message('note_on', channel=13, note=67, velocity=0, time=16),
    Message('note_on', channel=13, note=64, velocity=0, time=5),
    Message('note_on', channel=13, note=67, velocity=53, time=43),
    Message('note_on', channel=13, note=72, velocity=0, time=26),
    Message('note_on', channel=13, note=60, velocity=0, time=10),
    Message('note_on', channel=13, note=64, velocity=66, time=25),
    Message('control_change', channel=13, control=64, value=0, time=34),
    Message('note_on', channel=13, note=48, velocity=51, time=30),
    Message('note_on', channel=13, note=60, velocity=56, time=2),
    Message('note_on', channel=13, note=64, velocity=0, time=3),
    Message('note_on', channel=13, note=67, velocity=0, time=5),
    Message('control_change', channel=13, control=64, value=127, time=3),
    Message('note_on', channel=13, note=64, velocity=53, time=62),
    Message('note_on', channel=13, note=67, velocity=53, time=58),
    Message('note_on', channel=13, note=72, velocity=72, time=64),
    Message('note_on', channel=13, note=64, velocity=0, time=14),
    Message('note_on', channel=13, note=67, velocity=0, time=0),
    Message('note_on', channel=13, note=60, velocity=0, time=21),
    Message('note_on', channel=13, note=67, velocity=70, time=26),
    Message('note_on', channel=13, note=72, velocity=0, time=16),
    Message('note_on', channel=13, note=67, velocity=0, time=49),
    Message('note_on', channel=13, note=48, velocity=0, time=4),
    Message('note_on', channel=13, note=64, velocity=72, time=1),
    Message('note_on', channel=13, note=64, velocity=0, time=34),
    Message('control_change', channel=13, control=64, value=0, time=13),
    Message('note_on', channel=13, note=48, velocity=58, time=8),
    Message('control_change', channel=13, control=64, value=127, time=0),
    Message('note_on', channel=13, note=60, velocity=66, time=0),
    Message('note_on', channel=13, note=36, velocity=52, time=0),
    Message('note_on', channel=13, note=64, velocity=60, time=67),
    Message('note_on', channel=13, note=67, velocity=59, time=65),
    Message('note_on', channel=13, note=48, velocity=0, time=58),
    Message('note_on', channel=13, note=67, velocity=0, time=3),
    Message('note_on', channel=13, note=72, velocity=80, time=3),
    Message('note_on', channel=13, note=64, velocity=0, time=18),
    Message('note_on', channel=13, note=67, velocity=58, time=45),
    Message('note_on', channel=13, note=72, velocity=0, time=19),
    Message('note_on', channel=13, note=60, velocity=0, time=3),
    Message('note_on', channel=13, note=48, velocity=70, time=10),
    Message('note_on', channel=13, note=60, velocity=82, time=30),
    Message('note_on', channel=13, note=36, velocity=0, time=32),
    Message('note_on', channel=13, note=48, velocity=0, time=5),
    Message('control_change', channel=13, control=64, value=0, time=2),
    Message('note_on', channel=13, note=60, velocity=0, time=1),
    Message('note_on', channel=13, note=67, velocity=0, time=3),
    Message('note_on', channel=13, note=48, velocity=55, time=21),
    Message('note_on', channel=13, note=60, velocity=53, time=3),
    Message('control_change', channel=13, control=64, value=127, time=4),
    Message('note_on', channel=13, note=64, velocity=70, time=60),
    Message('note_on', channel=13, note=67, velocity=58, time=63),
    Message('note_on', channel=13, note=71, velocity=78, time=65),
    Message('note_on', channel=13, note=64, velocity=0, time=18),
    Message('note_on', channel=13, note=67, velocity=0, time=3),
    Message('note_on', channel=13, note=71, velocity=0, time=35),
    Message('note_on', channel=13, note=67, velocity=60, time=8),
    Message('note_on', channel=13, note=60, velocity=0, time=18),
    Message('control_change', channel=13, control=64, value=0, time=45),
    Message('note_on', channel=13, note=64, velocity=72, time=0),
    Message('note_on', channel=13, note=67, velocity=0, time=29),
    Message('note_on', channel=13, note=64, velocity=0, time=12),
    Message('note_on', channel=13, note=48, velocity=0, time=8),
    Message('note_on', channel=13, note=60, velocity=70, time=12),
    Message('control_change', channel=13, control=64, value=127, time=28),
    Message('note_on', channel=13, note=64, velocity=55, time=40),
    Message('note_on', channel=13, note=67, velocity=30, time=64),
    Message('note_on', channel=13, note=70, velocity=66, time=64),
    Message('note_on', channel=13, note=67, velocity=0, time=16),
    Message('note_on', channel=13, note=64, velocity=0, time=5),
    Message('note_on', channel=13, note=67, velocity=53, time=43),
    Message('note_on', channel=13, note=70, velocity=0, time=26),
    Message('note_on', channel=13, note=60, velocity=0, time=10),
    Message('note_on', channel=13, note=64, velocity=66, time=25),
    Message('control_change', channel=13, control=64, value=0, time=34),
    Message('note_on', channel=13, note=48, velocity=51, time=30),
    Message('note_on', channel=13, note=60, velocity=56, time=2),
    Message('note_on', channel=13, note=64, velocity=0, time=3),
    Message('note_on', channel=13, note=67, velocity=0, time=5),
    Message('control_change', channel=13, control=64, value=127, time=3),
    Message('note_on', channel=13, note=64, velocity=53, time=62),
    Message('note_on', channel=13, note=67, velocity=53, time=58),
    Message('note_on', channel=13, note=70, velocity=72, time=64),
    Message('note_on', channel=13, note=64, velocity=0, time=14),
    Message('note_on', channel=13, note=67, velocity=0, time=0),
    Message('note_on', channel=13, note=60, velocity=0, time=21),
    Message('note_on', channel=13, note=67, velocity=70, time=26),
    Message('note_on', channel=13, note=70, velocity=0, time=16),
    Message('note_on', channel=13, note=67, velocity=0, time=49),
    Message('note_on', channel=13, note=48, velocity=0, time=4),
    Message('note_on', channel=13, note=64, velocity=72, time=1),
    Message('note_on', channel=13, note=64, velocity=0, time=34),
    Message('control_change', channel=13, control=64, value=0, time=13),
    Message('note_on', channel=13, note=60, velocity=70, time=8),
    Message('control_change', channel=13, control=64, value=127, time=28),
    Message('note_on', channel=13, note=65, velocity=55, time=40),
    Message('note_on', channel=13, note=69, velocity=30, time=64),
    Message('note_on', channel=13, note=72, velocity=66, time=64),
    Message('note_on', channel=13, note=69, velocity=0, time=16),
    Message('note_on', channel=13, note=65, velocity=0, time=5),
    Message('note_on', channel=13, note=69, velocity=53, time=43),
    Message('note_on', channel=13, note=72, velocity=0, time=26),
    Message('note_on', channel=13, note=60, velocity=0, time=10),
    Message('note_on', channel=13, note=65, velocity=66, time=25),
    Message('control_change', channel=13, control=64, value=0, time=34),
    Message('note_on', channel=13, note=41, velocity=51, time=30),
    Message('note_on', channel=13, note=60, velocity=56, time=2),
    Message('note_on', channel=13, note=65, velocity=0, time=3),
    Message('note_on', channel=13, note=69, velocity=0, time=5),
    Message('control_change', channel=13, control=64, value=127, time=3),
    Message('note_on', channel=13, note=65, velocity=53, time=62),
    Message('note_on', channel=13, note=69, velocity=53, time=58),
    Message('note_on', channel=13, note=72, velocity=72, time=64),
    Message('note_on', channel=13, note=65, velocity=0, time=14),
    Message('note_on', channel=13, note=69, velocity=0, time=0),
    Message('note_on', channel=13, note=60, velocity=0, time=21),
    Message('note_on', channel=13, note=69, velocity=70, time=26),
    Message('note_on', channel=13, note=72, velocity=0, time=16),
    Message('note_on', channel=13, note=69, velocity=0, time=49),
    Message('note_on', channel=13, note=41, velocity=0, time=4),
    Message('note_on', channel=13, note=65, velocity=72, time=1),
    Message('note_on', channel=13, note=65, velocity=0, time=34),
    Message('control_change', channel=13, control=64, value=0, time=13),
    Message('note_on', channel=13, note=60, velocity=70, time=8),
    Message('control_change', channel=13, control=64, value=127, time=28),
    Message('note_on', channel=13, note=65, velocity=55, time=40),
    Message('note_on', channel=13, note=68, velocity=30, time=64),
    Message('note_on', channel=13, note=72, velocity=66, time=64),
    Message('note_on', channel=13, note=68, velocity=0, time=16),
    Message('note_on', channel=13, note=65, velocity=0, time=5),
    Message('note_on', channel=13, note=68, velocity=53, time=43),
    Message('note_on', channel=13, note=72, velocity=0, time=26),
    Message('note_on', channel=13, note=60, velocity=0, time=10),
    Message('note_on', channel=13, note=65, velocity=66, time=25),
    Message('control_change', channel=13, control=64, value=0, time=34),
    Message('note_on', channel=13, note=41, velocity=51, time=30),
    Message('note_on', channel=13, note=60, velocity=56, time=2),
    Message('note_on', channel=13, note=65, velocity=0, time=3),
    Message('note_on', channel=13, note=68, velocity=0, time=5),
    Message('control_change', channel=13, control=64, value=127, time=3),
    Message('note_on', channel=13, note=65, velocity=53, time=62),
    Message('note_on', channel=13, note=68, velocity=53, time=58),
    Message('note_on', channel=13, note=72, velocity=72, time=64),
    Message('note_on', channel=13, note=65, velocity=0, time=14),
    Message('note_on', channel=13, note=68, velocity=0, time=0),
    Message('note_on', channel=13, note=60, velocity=0, time=21),
    Message('note_on', channel=13, note=68, velocity=70, time=26),
    Message('note_on', channel=13, note=72, velocity=0, time=16),
    Message('note_on', channel=13, note=68, velocity=0, time=49),
    Message('note_on', channel=13, note=41, velocity=0, time=4),
    Message('note_on', channel=13, note=65, velocity=72, time=1),
    Message('note_on', channel=13, note=65, velocity=0, time=34),
    Message('control_change', channel=13, control=64, value=0, time=13),
    Message('note_on', channel=13, note=60, velocity=70, time=8),
    Message('control_change', channel=13, control=64, value=127, time=28),
    Message('note_on', channel=13, note=64, velocity=55, time=40),
    Message('note_on', channel=13, note=67, velocity=30, time=64),
    Message('note_on', channel=13, note=72, velocity=66, time=64),
    Message('note_on', channel=13, note=67, velocity=0, time=16),
    Message('note_on', channel=13, note=64, velocity=0, time=5),
    Message('note_on', channel=13, note=67, velocity=53, time=43),
    Message('note_on', channel=13, note=72, velocity=0, time=26),
    Message('note_on', channel=13, note=60, velocity=0, time=10),
    Message('note_on', channel=13, note=64, velocity=66, time=25),
    Message('control_change', channel=13, control=64, value=0, time=34),
    Message('note_on', channel=13, note=48, velocity=51, time=30),
    Message('note_on', channel=13, note=60, velocity=56, time=2),
    Message('note_on', channel=13, note=64, velocity=0, time=3),
    Message('note_on', channel=13, note=67, velocity=0, time=5),
    Message('control_change', channel=13, control=64, value=127, time=3),
    Message('note_on', channel=13, note=64, velocity=53, time=62),
    Message('note_on', channel=13, note=67, velocity=53, time=58),
    Message('note_on', channel=13, note=72, velocity=72, time=64),
    Message('note_on', channel=13, note=64, velocity=0, time=14),
    Message('note_on', channel=13, note=67, velocity=0, time=0),
    Message('note_on', channel=13, note=60, velocity=0, time=21),
    Message('note_on', channel=13, note=67, velocity=70, time=26),
    Message('note_on', channel=13, note=72, velocity=0, time=16),
    Message('note_on', channel=13, note=67, velocity=0, time=49),
    Message('note_on', channel=13, note=48, velocity=0, time=4),
    Message('note_on', channel=13, note=64, velocity=72, time=1),
    Message('note_on', channel=13, note=64, velocity=0, time=34),
    Message('control_change', channel=13, control=64, value=0, time=13),
    Message('note_on', channel=13, note=43, velocity=54, time=12),
    Message('note_on', channel=13, note=62, velocity=60, time=0),
    Message('control_change', channel=13, control=64, value=127, time=24),
    Message('note_on', channel=13, note=65, velocity=51, time=44),
    Message('note_on', channel=13, note=67, velocity=53, time=60),
    Message('note_on', channel=13, note=71, velocity=76, time=64),
    Message('note_on', channel=13, note=67, velocity=0, time=13),
    Message('note_on', channel=13, note=65, velocity=0, time=7),
    Message('note_on', channel=13, note=67, velocity=59, time=43),
    Message('note_on', channel=13, note=71, velocity=0, time=3),
    Message('note_on', channel=13, note=62, velocity=0, time=34),
    Message('note_on', channel=13, note=43, velocity=0, time=19),
    Message('note_on', channel=13, note=65, velocity=74, time=8),
    Message('note_on', channel=13, note=43, velocity=57, time=38),
    Message('control_change', channel=13, control=64, value=0, time=10),
    Message('note_on', channel=13, note=62, velocity=68, time=22),
    Message('control_change', channel=13, control=64, value=127, time=13),
    Message('note_on', channel=13, note=65, velocity=0, time=16),
    Message('note_on', channel=13, note=67, velocity=0, time=19),
    Message('note_on', channel=13, note=65, velocity=70, time=16),
    Message('note_on', channel=13, note=67, velocity=58, time=56),
    Message('note_on', channel=13, note=71, velocity=82, time=64),
    Message('note_on', channel=13, note=67, velocity=0, time=15),
    Message('note_on', channel=13, note=65, velocity=0, time=3),
    Message('note_on', channel=13, note=71, velocity=0, time=41),
    Message('note_on', channel=13, note=67, velocity=60, time=10),
    Message('note_on', channel=13, note=62, velocity=0, time=19),
    Message('note_on', channel=13, note=65, velocity=76, time=42),
    Message('note_on', channel=13, note=67, velocity=0, time=3),
    Message('note_on', channel=13, note=65, velocity=0, time=24),
    Message('control_change', channel=13, control=64, value=0, time=2),
    Message('note_on', channel=13, note=43, velocity=0, time=12),
    Message('note_on', channel=13, note=60, velocity=70, time=20),
    Message('control_change', channel=13, control=64, value=127, time=28),
    Message('note_on', channel=13, note=62, velocity=55, time=40),
    Message('note_on', channel=13, note=65, velocity=30, time=64),
    Message('note_on', channel=13, note=69, velocity=66, time=64),
    Message('note_on', channel=13, note=65, velocity=0, time=16),
    Message('note_on', channel=13, note=62, velocity=0, time=5),
    Message('note_on', channel=13, note=65, velocity=53, time=43),
    Message('note_on', channel=13, note=69, velocity=0, time=26),
    Message('note_on', channel=13, note=60, velocity=0, time=10),
    Message('note_on', channel=13, note=62, velocity=66, time=25),
    Message('control_change', channel=13, control=64, value=0, time=34),
    Message('note_on', channel=13, note=41, velocity=51, time=30),
    Message('note_on', channel=13, note=60, velocity=56, time=2),
    Message('note_on', channel=13, note=62, velocity=0, time=3),
    Message('note_on', channel=13, note=65, velocity=0, time=5),
    Message('control_change', channel=13, control=64, value=127, time=3),
    Message('note_on', channel=13, note=62, velocity=53, time=62),
    Message('note_on', channel=13, note=65, velocity=53, time=58),
    Message('note_on', channel=13, note=69, velocity=72, time=64),
    Message('note_on', channel=13, note=62, velocity=0, time=14),
    Message('note_on', channel=13, note=65, velocity=0, time=0),
    Message('note_on', channel=13, note=60, velocity=0, time=21),
    Message('note_on', channel=13, note=65, velocity=70, time=26),
    Message('note_on', channel=13, note=69, velocity=0, time=16),
    Message('note_on', channel=13, note=65, velocity=0, time=49),
    Message('note_on', channel=13, note=41, velocity=0, time=4),
    Message('note_on', channel=13, note=62, velocity=72, time=1),
    Message('note_on', channel=13, note=62, velocity=0, time=34),
    Message('control_change', channel=13, control=64, value=0, time=13),
    Message('note_on', channel=13, note=48, velocity=54, time=12),
    Message('note_on', channel=13, note=60, velocity=60, time=0),
    Message('control_change', channel=13, control=64, value=127, time=24),
    Message('note_on', channel=13, note=64, velocity=51, time=44),
    Message('note_on', channel=13, note=67, velocity=53, time=60),
    Message('note_on', channel=13, note=72, velocity=76, time=64),
    Message('note_on', channel=13, note=67, velocity=0, time=13),
    Message('note_on', channel=13, note=64, velocity=0, time=7),
    Message('note_on', channel=13, note=67, velocity=59, time=43),
    Message('note_on', channel=13, note=72, velocity=0, time=3),
    Message('note_on', channel=13, note=60, velocity=0, time=34),
    Message('note_on', channel=13, note=48, velocity=0, time=19),
    Message('note_on', channel=13, note=64, velocity=74, time=8),
    Message('note_on', channel=13, note=48, velocity=57, time=38),
    Message('control_change', channel=13, control=64, value=0, time=10),
    Message('note_on', channel=13, note=36, velocity=58, time=21),
    Message('note_on', channel=13, note=60, velocity=68, time=1),
    Message('control_change', channel=13, control=64, value=127, time=13),
    Message('note_on', channel=13, note=64, velocity=0, time=16),
    Message('note_on', channel=13, note=67, velocity=0, time=19),
    Message('note_on', channel=13, note=64, velocity=70, time=16),
    Message('note_on', channel=13, note=67, velocity=58, time=56),
    Message('note_on', channel=13, note=72, velocity=82, time=64),
    Message('note_on', channel=13, note=67, velocity=0, time=15),
    Message('note_on', channel=13, note=64, velocity=0, time=3),
    Message('note_on', channel=13, note=72, velocity=0, time=41),
    Message('note_on', channel=13, note=67, velocity=60, time=10),
    Message('note_on', channel=13, note=60, velocity=0, time=19),
    Message('note_on', channel=13, note=64, velocity=76, time=42),
    Message('note_on', channel=13, note=67, velocity=0, time=3),
    Message('note_on', channel=13, note=64, velocity=0, time=24),
    Message('control_change', channel=13, control=64, value=0, time=2),
    Message('note_on', channel=13, note=36, velocity=0, time=12),
    Message('note_on', channel=13, note=48, velocity=0, time=7),
    Message('note_on', channel=13, note=48, velocity=54, time=17),
    Message('note_on', channel=13, note=60, velocity=60, time=0),
    Message('control_change', channel=13, control=64, value=127, time=24),
    Message('note_on', channel=13, note=64, velocity=51, time=44),
    Message('note_on', channel=13, note=67, velocity=53, time=60),
    Message('note_on', channel=13, note=72, velocity=76, time=64),
    Message('note_on', channel=13, note=67, velocity=0, time=13),
    Message('note_on', channel=13, note=64, velocity=0, time=7),
    Message('note_on', channel=13, note=67, velocity=59, time=43),
    Message('note_on', channel=13, note=72, velocity=0, time=3),
    Message('note_on', channel=13, note=60, velocity=0, time=34),
    Message('note_on', channel=13, note=48, velocity=0, time=19),
    Message('note_on', channel=13, note=64, velocity=74, time=8),
    Message('note_on', channel=13, note=48, velocity=57, time=38),
    Message('control_change', channel=13, control=64, value=0, time=10),
    Message('note_on', channel=13, note=36, velocity=58, time=21),
    Message('note_on', channel=13, note=60, velocity=68, time=1),
    Message('control_change', channel=13, control=64, value=127, time=13),
    Message('note_on', channel=13, note=64, velocity=0, time=16),
    Message('note_on', channel=13, note=67, velocity=0, time=19),
    Message('note_on', channel=13, note=64, velocity=70, time=16),
    Message('note_on', channel=13, note=67, velocity=58, time=56),
    Message('note_on', channel=13, note=72, velocity=82, time=64),
    Message('note_on', channel=13, note=67, velocity=0, time=15),
    Message('note_on', channel=13, note=64, velocity=0, time=3),
    Message('note_on', channel=13, note=72, velocity=0, time=41),
    Message('note_on', channel=13, note=67, velocity=60, time=10),
    Message('note_on', channel=13, note=60, velocity=0, time=19),
    Message('note_on', channel=13, note=64, velocity=76, time=42),
    Message('note_on', channel=13, note=67, velocity=0, time=3),
    Message('note_on', channel=13, note=64, velocity=0, time=24),
    Message('control_change', channel=13, control=64, value=0, time=2),
    Message('note_on', channel=13, note=36, velocity=0, time=12),
    Message('note_on', channel=13, note=48, velocity=0, time=7),
    Message('note_on', channel=13, note=48, velocity=54, time=17),
    Message('note_on', channel=13, note=60, velocity=60, time=0),
    Message('control_change', channel=13, control=64, value=127, time=24),
    Message('note_on', channel=13, note=64, velocity=51, time=44),
    Message('note_on', channel=13, note=67, velocity=53, time=60),
    Message('note_on', channel=13, note=70, velocity=76, time=64),
    Message('note_on', channel=13, note=67, velocity=0, time=13),
    Message('note_on', channel=13, note=64, velocity=0, time=7),
    Message('note_on', channel=13, note=67, velocity=59, time=43),
    Message('note_on', channel=13, note=70, velocity=0, time=3),
    Message('note_on', channel=13, note=60, velocity=0, time=34),
    Message('note_on', channel=13, note=48, velocity=0, time=19),
    Message('note_on', channel=13, note=64, velocity=74, time=8),
    Message('note_on', channel=13, note=48, velocity=57, time=38),
    Message('control_change', channel=13, control=64, value=0, time=10),
    Message('note_on', channel=13, note=36, velocity=58, time=21),
    Message('note_on', channel=13, note=60, velocity=68, time=1),
    Message('control_change', channel=13, control=64, value=127, time=13),
    Message('note_on', channel=13, note=64, velocity=0, time=16),
    Message('note_on', channel=13, note=67, velocity=0, time=19),
    Message('note_on', channel=13, note=64, velocity=70, time=16),
    Message('note_on', channel=13, note=67, velocity=58, time=56),
    Message('note_on', channel=13, note=70, velocity=82, time=64),
    Message('note_on', channel=13, note=67, velocity=0, time=15),
    Message('note_on', channel=13, note=64, velocity=0, time=3),
    Message('note_on', channel=13, note=70, velocity=0, time=41),
    Message('note_on', channel=13, note=67, velocity=60, time=10),
    Message('note_on', channel=13, note=60, velocity=0, time=19),
    Message('note_on', channel=13, note=64, velocity=76, time=42),
    Message('note_on', channel=13, note=67, velocity=0, time=3),
    Message('note_on', channel=13, note=64, velocity=0, time=24),
    Message('control_change', channel=13, control=64, value=0, time=2),
    Message('note_on', channel=13, note=36, velocity=0, time=12),
    Message('note_on', channel=13, note=48, velocity=0, time=7),
    Message('note_on', channel=13, note=60, velocity=78, time=19),
    Message('note_on', channel=13, note=65, velocity=62, time=74),
    Message('note_on', channel=13, note=69, velocity=62, time=59),
    Message('note_on', channel=13, note=72, velocity=76, time=64),
    Message('note_on', channel=13, note=69, velocity=0, time=9),
    Message('note_on', channel=13, note=65, velocity=0, time=2),
    Message('note_on', channel=13, note=69, velocity=63, time=50),
    Message('note_on', channel=13, note=72, velocity=0, time=8),
    Message('note_on', channel=13, note=65, velocity=60, time=51),
    Message('note_on', channel=13, note=60, velocity=0, time=21),
    Message('note_on', channel=13, note=60, velocity=85, time=46),
    Message('note_on', channel=13, note=69, velocity=0, time=3),
    Message('note_on', channel=13, note=65, velocity=0, time=7),
    Message('note_on', channel=13, note=65, velocity=66, time=59),
    Message('note_on', channel=13, note=69, velocity=70, time=59),
    Message('note_on', channel=13, note=72, velocity=66, time=67),
    Message('note_on', channel=13, note=65, velocity=0, time=16),
    Message('note_on', channel=13, note=69, velocity=0, time=0),
    Message('note_on', channel=13, note=69, velocity=66, time=45),
    Message('note_on', channel=13, note=72, velocity=0, time=21),
    Message('note_on', channel=13, note=60, velocity=0, time=5),
    Message('note_on', channel=13, note=65, velocity=70, time=35),
    Message('note_on', channel=13, note=60, velocity=55, time=64),
    Message('note_on', channel=13, note=69, velocity=0, time=5),
    Message('note_on', channel=13, note=65, velocity=0, time=1),
    Message('note_on', channel=13, note=65, velocity=57, time=61),
    Message('note_on', channel=13, note=69, velocity=36, time=64),
    Message('note_on', channel=13, note=72, velocity=72, time=59),
    Message('note_on', channel=13, note=69, velocity=0, time=18),
    Message('note_on', channel=13, note=65, velocity=0, time=14),
    Message('note_on', channel=13, note=69, velocity=68, time=34),
    Message('note_on', channel=13, note=72, velocity=0, time=25),
    Message('note_on', channel=13, note=60, velocity=0, time=18),
    Message('note_on', channel=13, note=65, velocity=70, time=14),
    Message('note_on', channel=13, note=69, velocity=0, time=66),
    Message('note_on', channel=13, note=60, velocity=59, time=0),
    Message('note_on', channel=13, note=65, velocity=0, time=6),
    Message('note_on', channel=13, note=65, velocity=57, time=60),
    Message('note_on', channel=13, note=69, velocity=57, time=67),
    Message('note_on', channel=13, note=72, velocity=87, time=64),
    Message('note_on', channel=13, note=69, velocity=0, time=11),
    Message('note_on', channel=13, note=65, velocity=0, time=5),
    Message('note_on', channel=13, note=69, velocity=63, time=48),
    Message('note_on', channel=13, note=60, velocity=0, time=8),
    Message('note_on', channel=13, note=72, velocity=0, time=3),
    Message('note_on', channel=13, note=65, velocity=68, time=42),
    Message('note_on', channel=13, note=69, velocity=0, time=8),
    Message('note_on', channel=13, note=65, velocity=0, time=33),
    Message('note_on', channel=13, note=62, velocity=70, time=31),
    Message('control_change', channel=13, control=64, value=127, time=28),
    Message('note_on', channel=13, note=65, velocity=55, time=40),
    Message('note_on', channel=13, note=69, velocity=30, time=64),
    Message('note_on', channel=13, note=72, velocity=66, time=64),
    Message('note_on', channel=13, note=69, velocity=0, time=16),
    Message('note_on', channel=13, note=65, velocity=0, time=5),
    Message('note_on', channel=13, note=69, velocity=53, time=43),
    Message('note_on', channel=13, note=72, velocity=0, time=26),
    Message('note_on', channel=13, note=62, velocity=0, time=10),
    Message('note_on', channel=13, note=65, velocity=66, time=25),
    Message('control_change', channel=13, control=64, value=0, time=34),
    Message('note_on', channel=13, note=50, velocity=51, time=30),
    Message('note_on', channel=13, note=62, velocity=56, time=2),
    Message('note_on', channel=13, note=65, velocity=0, time=3),
    Message('note_on', channel=13, note=69, velocity=0, time=5),
    Message('control_change', channel=13, control=64, value=127, time=3),
    Message('note_on', channel=13, note=65, velocity=53, time=62),
    Message('note_on', channel=13, note=69, velocity=53, time=58),
    Message('note_on', channel=13, note=72, velocity=72, time=64),
    Message('note_on', channel=13, note=65, velocity=0, time=14),
    Message('note_on', channel=13, note=69, velocity=0, time=0),
    Message('note_on', channel=13, note=62, velocity=0, time=21),
    Message('note_on', channel=13, note=69, velocity=70, time=26),
    Message('note_on', channel=13, note=72, velocity=0, time=16),
    Message('note_on', channel=13, note=69, velocity=0, time=49),
    Message('note_on', channel=13, note=50, velocity=0, time=4),
    Message('note_on', channel=13, note=65, velocity=72, time=1),
    Message('note_on', channel=13, note=65, velocity=0, time=34),
    Message('control_change', channel=13, control=64, value=0, time=13),
    Message('note_on', channel=13, note=43, velocity=46, time=8),
    Message('note_on', channel=13, note=65, velocity=63, time=1),
    Message('control_change', channel=13, control=64, value=127, time=27),
    Message('note_on', channel=13, note=62, velocity=41, time=40),
    Message('note_on', channel=13, note=65, velocity=0, time=18),
    Message('note_on', channel=13, note=65, velocity=58, time=38),
    Message('note_on', channel=13, note=71, velocity=78, time=74),
    Message('note_on', channel=13, note=65, velocity=0, time=32),
    Message('note_on', channel=13, note=62, velocity=0, time=5),
    Message('note_on', channel=13, note=71, velocity=0, time=25),
    Message('note_on', channel=13, note=67, velocity=41, time=5),
    Message('note_on', channel=13, note=65, velocity=52, time=56),
    Message('note_on', channel=13, note=62, velocity=68, time=64),
    Message('note_on', channel=13, note=43, velocity=0, time=96),
    Message('note_on', channel=13, note=43, velocity=72, time=27),
    Message('note_on', channel=13, note=62, velocity=0, time=23),
    Message('note_on', channel=13, note=65, velocity=0, time=1),
    Message('note_on', channel=13, note=67, velocity=0, time=2),
    Message('note_on', channel=13, note=62, velocity=38, time=11),
    Message('note_on', channel=13, note=62, velocity=0, time=24),
    Message('note_on', channel=13, note=71, velocity=47, time=3),
    Message('note_on', channel=13, note=71, velocity=0, time=63),
    Message('note_on', channel=13, note=67, velocity=66, time=6),
    Message('note_on', channel=13, note=65, velocity=63, time=59),
    Message('note_on', channel=13, note=43, velocity=0, time=13),
    Message('control_change', channel=13, control=64, value=0, time=47),
    Message('note_on', channel=13, note=67, velocity=0, time=8),
    Message('note_on', channel=13, note=65, velocity=0, time=0),
    Message('note_on', channel=13, note=40, velocity=54, time=4),
    Message('note_on', channel=13, note=59, velocity=60, time=0),
    Message('control_change', channel=13, control=64, value=127, time=24),
    Message('note_on', channel=13, note=62, velocity=51, time=44),
    Message('note_on', channel=13, note=64, velocity=53, time=60),
    Message('note_on', channel=13, note=67, velocity=76, time=64),
    Message('note_on', channel=13, note=64, velocity=0, time=13),
    Message('note_on', channel=13, note=62, velocity=0, time=7),
    Message('note_on', channel=13, note=64, velocity=59, time=43),
    Message('note_on', channel=13, note=67, velocity=0, time=3),
    Message('note_on', channel=13, note=59, velocity=0, time=34),
    Message('note_on', channel=13, note=40, velocity=0, time=19),
    Message('note_on', channel=13, note=62, velocity=74, time=8),
    Message('note_on', channel=13, note=40, velocity=57, time=38),
    Message('control_change', channel=13, control=64, value=0, time=10),
    Message('note_on', channel=13, note=59, velocity=68, time=22),
    Message('control_change', channel=13, control=64, value=127, time=13),
    Message('note_on', channel=13, note=62, velocity=0, time=16),
    Message('note_on', channel=13, note=64, velocity=0, time=19),
    Message('note_on', channel=13, note=62, velocity=70, time=16),
    Message('note_on', channel=13, note=64, velocity=58, time=56),
    Message('note_on', channel=13, note=67, velocity=82, time=64),
    Message('note_on', channel=13, note=64, velocity=0, time=15),
    Message('note_on', channel=13, note=62, velocity=0, time=3),
    Message('note_on', channel=13, note=67, velocity=0, time=41),
    Message('note_on', channel=13, note=64, velocity=60, time=10),
    Message('note_on', channel=13, note=59, velocity=0, time=19),
    Message('note_on', channel=13, note=62, velocity=76, time=42),
    Message('note_on', channel=13, note=64, velocity=0, time=3),
    Message('note_on', channel=13, note=62, velocity=0, time=24),
    Message('control_change', channel=13, control=64, value=0, time=2),
    Message('note_on', channel=13, note=40, velocity=0, time=12),
    Message('note_on', channel=13, note=45, velocity=54, time=24),
    Message('note_on', channel=13, note=64, velocity=60, time=0),
    Message('control_change', channel=13, control=64, value=127, time=24),
    Message('note_on', channel=13, note=69, velocity=51, time=44),
    Message('note_on', channel=13, note=72, velocity=53, time=60),
    Message('note_on', channel=13, note=76, velocity=76, time=64),
    Message('note_on', channel=13, note=72, velocity=0, time=13),
    Message('note_on', channel=13, note=69, velocity=0, time=7),
    Message('note_on', channel=13, note=72, velocity=59, time=43),
    Message('note_on', channel=13, note=76, velocity=0, time=3),
    Message('note_on', channel=13, note=64, velocity=0, time=34),
    Message('note_on', channel=13, note=45, velocity=0, time=19),
    Message('note_on', channel=13, note=69, velocity=74, time=8),
    Message('note_on', channel=13, note=45, velocity=57, time=38),
    Message('control_change', channel=13, control=64, value=0, time=10),
    Message('note_on', channel=13, note=64, velocity=68, time=22),
    Message('control_change', channel=13, control=64, value=127, time=13),
    Message('note_on', channel=13, note=69, velocity=0, time=16),
    Message('note_on', channel=13, note=72, velocity=0, time=19),
    Message('note_on', channel=13, note=69, velocity=70, time=16),
    Message('note_on', channel=13, note=72, velocity=58, time=56),
    Message('note_on', channel=13, note=76, velocity=82, time=64),
    Message('note_on', channel=13, note=72, velocity=0, time=15),
    Message('note_on', channel=13, note=69, velocity=0, time=3),
    Message('note_on', channel=13, note=76, velocity=0, time=41),
    Message('note_on', channel=13, note=72, velocity=60, time=10),
    Message('note_on', channel=13, note=64, velocity=0, time=19),
    Message('note_on', channel=13, note=69, velocity=76, time=42),
    Message('note_on', channel=13, note=72, velocity=0, time=3),
    Message('note_on', channel=13, note=69, velocity=0, time=24),
    Message('control_change', channel=13, control=64, value=0, time=2),
    Message('note_on', channel=13, note=45, velocity=0, time=12),
    Message('note_on', channel=13, note=62, velocity=70, time=20),
    Message('control_change', channel=13, control=64, value=127, time=28),
    Message('note_on', channel=13, note=65, velocity=55, time=40),
    Message('note_on', channel=13, note=69, velocity=30, time=64),
    Message('note_on', channel=13, note=72, velocity=66, time=64),
    Message('note_on', channel=13, note=69, velocity=0, time=16),
    Message('note_on', channel=13, note=65, velocity=0, time=5),
    Message('note_on', channel=13, note=69, velocity=53, time=43),
    Message('note_on', channel=13, note=72, velocity=0, time=26),
    Message('note_on', channel=13, note=62, velocity=0, time=10),
    Message('note_on', channel=13, note=65, velocity=66, time=25),
    Message('control_change', channel=13, control=64, value=0, time=34),
    Message('note_on', channel=13, note=50, velocity=51, time=30),
    Message('note_on', channel=13, note=62, velocity=56, time=2),
    Message('note_on', channel=13, note=65, velocity=0, time=3),
    Message('note_on', channel=13, note=69, velocity=0, time=5),
    Message('control_change', channel=13, control=64, value=127, time=3),
    Message('note_on', channel=13, note=65, velocity=53, time=62),
    Message('note_on', channel=13, note=69, velocity=53, time=58),
    Message('note_on', channel=13, note=72, velocity=72, time=64),
    Message('note_on', channel=13, note=65, velocity=0, time=14),
    Message('note_on', channel=13, note=69, velocity=0, time=0),
    Message('note_on', channel=13, note=62, velocity=0, time=21),
    Message('note_on', channel=13, note=69, velocity=70, time=26),
    Message('note_on', channel=13, note=72, velocity=0, time=16),
    Message('note_on', channel=13, note=69, velocity=0, time=49),
    Message('note_on', channel=13, note=50, velocity=0, time=4),
    Message('note_on', channel=13, note=65, velocity=72, time=1),
    Message('note_on', channel=13, note=65, velocity=0, time=34),
    Message('control_change', channel=13, control=64, value=0, time=13),
    Message('note_on', channel=13, note=43, velocity=46, time=8),
    Message('note_on', channel=13, note=65, velocity=63, time=1),
    Message('control_change', channel=13, control=64, value=127, time=27),
    Message('note_on', channel=13, note=62, velocity=41, time=40),
    Message('note_on', channel=13, note=65, velocity=0, time=18),
    Message('note_on', channel=13, note=65, velocity=58, time=38),
    Message('note_on', channel=13, note=71, velocity=78, time=74),
    Message('note_on', channel=13, note=65, velocity=0, time=32),
    Message('note_on', channel=13, note=62, velocity=0, time=5),
    Message('note_on', channel=13, note=71, velocity=0, time=25),
    Message('note_on', channel=13, note=67, velocity=41, time=5),
    Message('note_on', channel=13, note=65, velocity=52, time=56),
    Message('note_on', channel=13, note=62, velocity=68, time=64),
    Message('note_on', channel=13, note=43, velocity=0, time=96),
    Message('note_on', channel=13, note=43, velocity=72, time=27),
    Message('note_on', channel=13, note=62, velocity=0, time=23),
    Message('note_on', channel=13, note=65, velocity=0, time=1),
    Message('note_on', channel=13, note=67, velocity=0, time=2),
    Message('note_on', channel=13, note=62, velocity=38, time=11),
    Message('note_on', channel=13, note=62, velocity=0, time=24),
    Message('note_on', channel=13, note=71, velocity=47, time=3),
    Message('note_on', channel=13, note=71, velocity=0, time=63),
    Message('note_on', channel=13, note=67, velocity=66, time=6),
    Message('note_on', channel=13, note=65, velocity=63, time=59),
    Message('note_on', channel=13, note=43, velocity=0, time=13),
    Message('control_change', channel=13, control=64, value=0, time=47),
    Message('note_on', channel=13, note=67, velocity=0, time=8),
    Message('note_on', channel=13, note=65, velocity=0, time=0),
    Message('note_on', channel=13, note=41, velocity=54, time=4),
    Message('note_on', channel=13, note=60, velocity=60, time=0),
    Message('control_change', channel=13, control=64, value=127, time=24),
    Message('note_on', channel=13, note=62, velocity=51, time=44),
    Message('note_on', channel=13, note=65, velocity=53, time=60),
    Message('note_on', channel=13, note=69, velocity=76, time=64),
    Message('note_on', channel=13, note=65, velocity=0, time=13),
    Message('note_on', channel=13, note=62, velocity=0, time=7),
    Message('note_on', channel=13, note=65, velocity=59, time=43),
    Message('note_on', channel=13, note=69, velocity=0, time=3),
    Message('note_on', channel=13, note=60, velocity=0, time=34),
    Message('note_on', channel=13, note=41, velocity=0, time=19),
    Message('note_on', channel=13, note=62, velocity=74, time=8),
    Message('note_on', channel=13, note=41, velocity=57, time=38),
    Message('control_change', channel=13, control=64, value=0, time=10),
    Message('note_on', channel=13, note=60, velocity=68, time=22),
    Message('control_change', channel=13, control=64, value=127, time=13),
    Message('note_on', channel=13, note=62, velocity=0, time=16),
    Message('note_on', channel=13, note=65, velocity=0, time=19),
    Message('note_on', channel=13, note=62, velocity=70, time=16),
    Message('note_on', channel=13, note=65, velocity=58, time=56),
    Message('note_on', channel=13, note=69, velocity=82, time=64),
    Message('note_on', channel=13, note=65, velocity=0, time=15),
    Message('note_on', channel=13, note=62, velocity=0, time=3),
    Message('note_on', channel=13, note=69, velocity=0, time=41),
    Message('note_on', channel=13, note=65, velocity=60, time=10),
    Message('note_on', channel=13, note=60, velocity=0, time=19),
    Message('note_on', channel=13, note=62, velocity=76, time=42),
    Message('note_on', channel=13, note=65, velocity=0, time=3),
    Message('note_on', channel=13, note=62, velocity=0, time=24),
    Message('control_change', channel=13, control=64, value=0, time=2),
    Message('note_on', channel=13, note=41, velocity=0, time=12),
    Message('note_on', channel=13, note=60, velocity=78, time=26),
    Message('note_on', channel=13, note=64, velocity=62, time=74),
    Message('note_on', channel=13, note=67, velocity=62, time=59),
    Message('note_on', channel=13, note=72, velocity=76, time=64),
    Message('note_on', channel=13, note=67, velocity=0, time=9),
    Message('note_on', channel=13, note=64, velocity=0, time=2),
    Message('note_on', channel=13, note=67, velocity=63, time=50),
    Message('note_on', channel=13, note=72, velocity=0, time=8),
    Message('note_on', channel=13, note=64, velocity=60, time=51),
    Message('note_on', channel=13, note=60, velocity=0, time=21),
    Message('note_on', channel=13, note=60, velocity=85, time=46),
    Message('note_on', channel=13, note=67, velocity=0, time=3),
    Message('note_on', channel=13, note=64, velocity=0, time=7),
    Message('note_on', channel=13, note=64, velocity=66, time=59),
    Message('note_on', channel=13, note=67, velocity=70, time=59),
    Message('note_on', channel=13, note=72, velocity=66, time=67),
    Message('note_on', channel=13, note=64, velocity=0, time=16),
    Message('note_on', channel=13, note=67, velocity=0, time=0),
    Message('note_on', channel=13, note=67, velocity=66, time=45),
    Message('note_on', channel=13, note=72, velocity=0, time=21),
    Message('note_on', channel=13, note=60, velocity=0, time=5),
    Message('note_on', channel=13, note=64, velocity=70, time=35),
    Message('note_on', channel=13, note=60, velocity=55, time=64),
    Message('note_on', channel=13, note=67, velocity=0, time=5),
    Message('note_on', channel=13, note=64, velocity=0, time=1),
    Message('note_on', channel=13, note=64, velocity=57, time=61),
    Message('note_on', channel=13, note=67, velocity=36, time=64),
    Message('note_on', channel=13, note=72, velocity=72, time=59),
    Message('note_on', channel=13, note=67, velocity=0, time=18),
    Message('note_on', channel=13, note=64, velocity=0, time=14),
    Message('note_on', channel=13, note=67, velocity=68, time=34),
    Message('note_on', channel=13, note=72, velocity=0, time=25),
    Message('note_on', channel=13, note=60, velocity=0, time=18),
    Message('note_on', channel=13, note=64, velocity=70, time=14),
    Message('note_on', channel=13, note=67, velocity=0, time=66),
    Message('note_on', channel=13, note=60, velocity=59, time=0),
    Message('note_on', channel=13, note=64, velocity=0, time=6),
    Message('note_on', channel=13, note=64, velocity=57, time=60),
    Message('note_on', channel=13, note=67, velocity=57, time=67),
    Message('note_on', channel=13, note=72, velocity=87, time=64),
    Message('note_on', channel=13, note=67, velocity=0, time=11),
    Message('note_on', channel=13, note=64, velocity=0, time=5),
    Message('note_on', channel=13, note=67, velocity=63, time=48),
    Message('note_on', channel=13, note=60, velocity=0, time=8),
    Message('note_on', channel=13, note=72, velocity=0, time=3),
    Message('note_on', channel=13, note=64, velocity=68, time=42),
    Message('note_on', channel=13, note=67, velocity=0, time=8),
    Message('note_on', channel=13, note=64, velocity=0, time=33),
    Message('control_change', channel=13, control=64, value=0, time=31),
    MetaMessage('end_of_track', time=0)]),
  MidiTrack([
    MetaMessage('midi_port', port=2, time=0),
    MetaMessage('track_name', name='melody piano 3      ', time=0),
    Message('program_change', channel=14, program=1, time=0),
    Message('control_change', channel=14, control=7, value=125, time=0),
    Message('note_on', channel=14, note=55, velocity=127, time=4427),
    Message('note_on', channel=14, note=55, velocity=0, time=160),
    Message('note_on', channel=14, note=64, velocity=127, time=45),
    Message('note_on', channel=14, note=62, velocity=127, time=485),
    Message('note_on', channel=14, note=64, velocity=0, time=5),
    Message('note_on', channel=14, note=64, velocity=110, time=131),
    Message('note_on', channel=14, note=62, velocity=0, time=4),
    Message('note_on', channel=14, note=62, velocity=127, time=53),
    Message('note_on', channel=14, note=64, velocity=0, time=9),
    Message('note_on', channel=14, note=62, velocity=0, time=57),
    Message('note_on', channel=14, note=64, velocity=122, time=3),
    Message('note_on', channel=14, note=62, velocity=127, time=517),
    Message('note_on', channel=14, note=64, velocity=0, time=7),
    Message('note_on', channel=14, note=64, velocity=110, time=123),
    Message('note_on', channel=14, note=62, velocity=0, time=7),
    Message('note_on', channel=14, note=62, velocity=127, time=49),
    Message('note_on', channel=14, note=64, velocity=0, time=6),
    Message('note_on', channel=14, note=64, velocity=127, time=66),
    Message('note_on', channel=14, note=62, velocity=0, time=2),
    Message('note_on', channel=14, note=64, velocity=0, time=493),
    Message('note_on', channel=14, note=62, velocity=113, time=8),
    Message('note_on', channel=14, note=62, velocity=0, time=23),
    Message('note_on', channel=14, note=64, velocity=127, time=9),
    Message('note_on', channel=14, note=64, velocity=0, time=26),
    Message('note_on', channel=14, note=62, velocity=113, time=5),
    Message('note_on', channel=14, note=64, velocity=127, time=64),
    Message('note_on', channel=14, note=62, velocity=0, time=5),
    Message('note_on', channel=14, note=64, velocity=0, time=57),
    Message('note_on', channel=14, note=62, velocity=110, time=1),
    Message('note_on', channel=14, note=62, velocity=0, time=45),
    Message('note_on', channel=14, note=62, velocity=80, time=26),
    Message('note_on', channel=14, note=62, velocity=0, time=66),
    Message('note_on', channel=14, note=61, velocity=67, time=0),
    Message('note_on', channel=14, note=61, velocity=0, time=541),
    Message('note_on', channel=14, note=57, velocity=127, time=11),
    Message('note_on', channel=14, note=57, velocity=0, time=132),
    Message('note_on', channel=14, note=65, velocity=127, time=20),
    Message('note_on', channel=14, note=65, velocity=0, time=500),
    Message('note_on', channel=14, note=64, velocity=127, time=7),
    Message('note_on', channel=14, note=64, velocity=0, time=124),
    Message('note_on', channel=14, note=65, velocity=90, time=6),
    Message('note_on', channel=14, note=64, velocity=127, time=60),
    Message('note_on', channel=14, note=65, velocity=0, time=4),
    Message('note_on', channel=14, note=64, velocity=0, time=59),
    Message('note_on', channel=14, note=65, velocity=92, time=10),
    Message('note_on', channel=14, note=65, velocity=0, time=484),
    Message('note_on', channel=14, note=64, velocity=127, time=21),
    Message('note_on', channel=14, note=64, velocity=0, time=111),
    Message('note_on', channel=14, note=65, velocity=127, time=27),
    Message('note_on', channel=14, note=65, velocity=0, time=54),
    Message('note_on', channel=14, note=64, velocity=127, time=5),
    Message('note_on', channel=14, note=64, velocity=0, time=53),
    Message('note_on', channel=14, note=65, velocity=122, time=17),
    Message('note_on', channel=14, note=65, velocity=0, time=334),
    Message('note_on', channel=14, note=67, velocity=122, time=42),
    Message('note_on', channel=14, note=67, velocity=0, time=175),
    Message('note_on', channel=14, note=62, velocity=100, time=4),
    Message('note_on', channel=14, note=62, velocity=0, time=95),
    Message('note_on', channel=14, note=65, velocity=110, time=8),
    Message('note_on', channel=14, note=65, velocity=0, time=92),
    Message('note_on', channel=14, note=65, velocity=92, time=18),
    Message('note_on', channel=14, note=65, velocity=0, time=94),
    Message('note_on', channel=14, note=64, velocity=106, time=15),
    Message('note_on', channel=14, note=64, velocity=0, time=539),
    Message('note_on', channel=14, note=60, velocity=127, time=37),
    Message('note_on', channel=14, note=60, velocity=0, time=62),
    Message('note_on', channel=14, note=67, velocity=127, time=26),
    Message('note_on', channel=14, note=60, velocity=82, time=307),
    Message('note_on', channel=14, note=60, velocity=0, time=50),
    Message('note_on', channel=14, note=59, velocity=100, time=26),
    Message('note_on', channel=14, note=67, velocity=0, time=16),
    Message('note_on', channel=14, note=67, velocity=127, time=112),
    Message('note_on', channel=14, note=67, velocity=0, time=81),
    Message('note_on', channel=14, note=67, velocity=113, time=22),
    Message('note_on', channel=14, note=67, velocity=0, time=43),
    Message('note_on', channel=14, note=69, velocity=72, time=4),
    Message('note_on', channel=14, note=59, velocity=0, time=55),
    Message('note_on', channel=14, note=69, velocity=0, time=4),
    Message('note_on', channel=14, note=67, velocity=70, time=61),
    Message('note_on', channel=14, note=58, velocity=77, time=106),
    Message('note_on', channel=14, note=58, velocity=0, time=354),
    Message('note_on', channel=14, note=67, velocity=0, time=5),
    Message('note_on', channel=14, note=64, velocity=127, time=78),
    Message('note_on', channel=14, note=64, velocity=0, time=73),
    Message('note_on', channel=14, note=65, velocity=103, time=0),
    Message('note_on', channel=14, note=67, velocity=113, time=55),
    Message('note_on', channel=14, note=65, velocity=0, time=1),
    Message('note_on', channel=14, note=67, velocity=0, time=44),
    Message('note_on', channel=14, note=65, velocity=92, time=35),
    Message('note_on', channel=14, note=57, velocity=73, time=200),
    Message('note_on', channel=14, note=65, velocity=0, time=329),
    Message('note_on', channel=14, note=57, velocity=0, time=6),
    Message('note_on', channel=14, note=65, velocity=127, time=29),
    Message('note_on', channel=14, note=65, velocity=0, time=45),
    Message('note_on', channel=14, note=65, velocity=82, time=21),
    Message('note_on', channel=14, note=65, velocity=0, time=59),
    Message('note_on', channel=14, note=64, velocity=110, time=5),
    Message('note_on', channel=14, note=64, velocity=0, time=48),
    Message('note_on', channel=14, note=67, velocity=118, time=23),
    Message('note_on', channel=14, note=67, velocity=0, time=184),
    Message('note_on', channel=14, note=56, velocity=41, time=14),
    Message('note_on', channel=14, note=65, velocity=78, time=4),
    Message('note_on', channel=14, note=56, velocity=0, time=343),
    Message('note_on', channel=14, note=65, velocity=0, time=77),
    Message('note_on', channel=14, note=67, velocity=94, time=70),
    Message('note_on', channel=14, note=65, velocity=110, time=25),
    Message('note_on', channel=14, note=67, velocity=0, time=4),
    Message('note_on', channel=14, note=65, velocity=0, time=35),
    Message('note_on', channel=14, note=64, velocity=127, time=13),
    Message('note_on', channel=14, note=64, velocity=0, time=440),
    Message('note_on', channel=14, note=55, velocity=127, time=8),
    Message('note_on', channel=14, note=55, velocity=0, time=75),
    Message('note_on', channel=14, note=65, velocity=100, time=101),
    Message('note_on', channel=14, note=65, velocity=0, time=57),
    Message('note_on', channel=14, note=64, velocity=103, time=8),
    Message('note_on', channel=14, note=64, velocity=0, time=63),
    Message('note_on', channel=14, note=62, velocity=69, time=13),
    Message('note_on', channel=14, note=59, velocity=122, time=372),
    Message('note_on', channel=14, note=62, velocity=0, time=5),
    Message('note_on', channel=14, note=60, velocity=127, time=133),
    Message('note_on', channel=14, note=59, velocity=0, time=5),
    Message('note_on', channel=14, note=60, velocity=0, time=103),
    Message('note_on', channel=14, note=62, velocity=127, time=20),
    Message('note_on', channel=14, note=62, velocity=0, time=130),
    Message('note_on', channel=14, note=53, velocity=94, time=0),
    Message('note_on', channel=14, note=62, velocity=92, time=108),
    Message('note_on', channel=14, note=53, velocity=0, time=473),
    Message('note_on', channel=14, note=62, velocity=0, time=16),
    Message('note_on', channel=14, note=64, velocity=87, time=92),
    Message('note_on', channel=14, note=62, velocity=100, time=30),
    Message('note_on', channel=14, note=64, velocity=0, time=1),
    Message('note_on', channel=14, note=62, velocity=0, time=47),
    Message('note_on', channel=14, note=60, velocity=72, time=3),
    Message('note_on', channel=14, note=60, velocity=0, time=367),
    Message('note_on', channel=14, note=67, velocity=60, time=107),
    Message('note_on', channel=14, note=69, velocity=127, time=17),
    Message('note_on', channel=14, note=67, velocity=0, time=2),
    Message('note_on', channel=14, note=67, velocity=106, time=23),
    Message('note_on', channel=14, note=69, velocity=0, time=5),
    Message('note_on', channel=14, note=67, velocity=0, time=28),
    Message('note_on', channel=14, note=66, velocity=127, time=37),
    Message('note_on', channel=14, note=67, velocity=127, time=122),
    Message('note_on', channel=14, note=66, velocity=0, time=12),
    Message('note_on', channel=14, note=67, velocity=0, time=26),
    Message('note_on', channel=14, note=76, velocity=113, time=39),
    Message('note_on', channel=14, note=76, velocity=0, time=471),
    Message('note_on', channel=14, note=67, velocity=127, time=15),
    Message('note_on', channel=14, note=67, velocity=0, time=110),
    Message('note_on', channel=14, note=76, velocity=127, time=25),
    Message('note_on', channel=14, note=76, velocity=0, time=59),
    Message('note_on', channel=14, note=76, velocity=40, time=20),
    Message('note_on', channel=14, note=75, velocity=69, time=23),
    Message('note_on', channel=14, note=76, velocity=0, time=9),
    Message('note_on', channel=14, note=75, velocity=0, time=41),
    Message('note_on', channel=14, note=76, velocity=77, time=24),
    Message('note_on', channel=14, note=76, velocity=0, time=450),
    Message('note_on', channel=14, note=67, velocity=122, time=4),
    Message('note_on', channel=14, note=67, velocity=0, time=107),
    Message('note_on', channel=14, note=76, velocity=127, time=44),
    Message('note_on', channel=14, note=75, velocity=59, time=51),
    Message('note_on', channel=14, note=76, velocity=0, time=5),
    Message('note_on', channel=14, note=75, velocity=0, time=44),
    Message('note_on', channel=14, note=76, velocity=127, time=11),
    Message('note_on', channel=14, note=74, velocity=127, time=377),
    Message('note_on', channel=14, note=76, velocity=0, time=6),
    Message('note_on', channel=14, note=74, velocity=0, time=114),
    Message('note_on', channel=14, note=76, velocity=127, time=11),
    Message('note_on', channel=14, note=74, velocity=122, time=136),
    Message('note_on', channel=14, note=76, velocity=0, time=7),
    Message('note_on', channel=14, note=74, velocity=0, time=93),
    Message('note_on', channel=14, note=74, velocity=106, time=21),
    Message('note_on', channel=14, note=73, velocity=90, time=111),
    Message('note_on', channel=14, note=74, velocity=0, time=4),
    Message('note_on', channel=14, note=73, velocity=0, time=467),
    Message('note_on', channel=14, note=69, velocity=127, time=3),
    Message('note_on', channel=14, note=69, velocity=0, time=108),
    Message('note_on', channel=14, note=75, velocity=48, time=68),
    Message('note_on', channel=14, note=76, velocity=78, time=8),
    Message('note_on', channel=14, note=77, velocity=118, time=12),
    Message('note_on', channel=14, note=75, velocity=0, time=5),
    Message('note_on', channel=14, note=76, velocity=0, time=8),
    Message('note_on', channel=14, note=77, velocity=0, time=450),
    Message('note_on', channel=14, note=76, velocity=122, time=33),
    Message('note_on', channel=14, note=76, velocity=0, time=117),
    Message('note_on', channel=14, note=77, velocity=90, time=15),
    Message('note_on', channel=14, note=76, velocity=118, time=60),
    Message('note_on', channel=14, note=77, velocity=0, time=7),
    Message('note_on', channel=14, note=76, velocity=0, time=45),
    Message('note_on', channel=14, note=77, velocity=113, time=20),
    Message('note_on', channel=14, note=76, velocity=127, time=506),
    Message('note_on', channel=14, note=77, velocity=0, time=5),
    Message('note_on', channel=14, note=76, velocity=0, time=126),
    Message('note_on', channel=14, note=77, velocity=90, time=0),
    Message('note_on', channel=14, note=76, velocity=110, time=63),
    Message('note_on', channel=14, note=77, velocity=0, time=3),
    Message('note_on', channel=14, note=76, velocity=0, time=62),
    Message('note_on', channel=14, note=77, velocity=80, time=5),
    Message('note_on', channel=14, note=77, velocity=0, time=369),
    Message('note_on', channel=14, note=79, velocity=106, time=12),
    Message('note_on', channel=14, note=71, velocity=100, time=124),
    Message('note_on', channel=14, note=79, velocity=0, time=4),
    Message('note_on', channel=14, note=77, velocity=118, time=146),
    Message('note_on', channel=14, note=71, velocity=0, time=14),
    Message('note_on', channel=14, note=77, velocity=0, time=66),
    Message('note_on', channel=14, note=77, velocity=76, time=25),
    Message('note_on', channel=14, note=77, velocity=0, time=114),
    Message('note_on', channel=14, note=76, velocity=78, time=2),
    Message('note_on', channel=14, note=76, velocity=0, time=553),
    Message('note_on', channel=14, note=72, velocity=127, time=9),
    Message('note_on', channel=14, note=72, velocity=0, time=94),
    Message('note_on', channel=14, note=79, velocity=127, time=9),
    Message('note_on', channel=14, note=71, velocity=85, time=380),
    Message('note_on', channel=14, note=79, velocity=0, time=19),
    Message('note_on', channel=14, note=79, velocity=113, time=106),
    Message('note_on', channel=14, note=79, velocity=0, time=72),
    Message('note_on', channel=14, note=79, velocity=72, time=22),
    Message('note_on', channel=14, note=79, velocity=0, time=43),
    Message('note_on', channel=14, note=81, velocity=72, time=8),
    Message('note_on', channel=14, note=71, velocity=0, time=38),
    Message('note_on', channel=14, note=81, velocity=0, time=49),
    Message('note_on', channel=14, note=70, velocity=31, time=22),
    Message('note_on', channel=14, note=79, velocity=52, time=2),
    Message('note_on', channel=14, note=70, velocity=0, time=487),
    Message('note_on', channel=14, note=79, velocity=0, time=25),
    Message('note_on', channel=14, note=76, velocity=64, time=68),
    Message('note_on', channel=14, note=76, velocity=0, time=60),
    Message('note_on', channel=14, note=77, velocity=122, time=12),
    Message('note_on', channel=14, note=79, velocity=106, time=44),
    Message('note_on', channel=14, note=77, velocity=0, time=12),
    Message('note_on', channel=14, note=79, velocity=0, time=25),
    Message('note_on', channel=14, note=81, velocity=47, time=12),
    Message('note_on', channel=14, note=81, velocity=0, time=37),
    Message('note_on', channel=14, note=77, velocity=106, time=28),
    Message('note_on', channel=14, note=69, velocity=80, time=240),
    Message('note_on', channel=14, note=70, velocity=62, time=21),
    Message('note_on', channel=14, note=69, velocity=0, time=5),
    Message('note_on', channel=14, note=70, velocity=0, time=20),
    Message('note_on', channel=14, note=69, velocity=62, time=62),
    Message('note_on', channel=14, note=69, velocity=0, time=129),
    Message('note_on', channel=14, note=77, velocity=0, time=16),
    Message('note_on', channel=14, note=77, velocity=127, time=43),
    Message('note_on', channel=14, note=76, velocity=127, time=50),
    Message('note_on', channel=14, note=77, velocity=0, time=10),
    Message('note_on', channel=14, note=76, velocity=0, time=40),
    Message('note_on', channel=14, note=77, velocity=85, time=0),
    Message('note_on', channel=14, note=76, velocity=122, time=42),
    Message('note_on', channel=14, note=77, velocity=0, time=7),
    Message('note_on', channel=14, note=76, velocity=0, time=24),
    Message('note_on', channel=14, note=79, velocity=127, time=25),
    Message('note_on', channel=14, note=68, velocity=103, time=118),
    Message('note_on', channel=14, note=79, velocity=0, time=15),
    Message('note_on', channel=14, note=77, velocity=40, time=124),
    Message('note_on', channel=14, note=68, velocity=0, time=264),
    Message('note_on', channel=14, note=77, velocity=0, time=26),
    Message('note_on', channel=14, note=77, velocity=100, time=30),
    Message('note_on', channel=14, note=77, velocity=0, time=59),
    Message('note_on', channel=14, note=79, velocity=118, time=13),
    Message('note_on', channel=14, note=79, velocity=0, time=46),
    Message('note_on', channel=14, note=77, velocity=78, time=6),
    Message('note_on', channel=14, note=77, velocity=0, time=57),
    Message('note_on', channel=14, note=76, velocity=103, time=10),
    Message('note_on', channel=14, note=67, velocity=118, time=512),
    Message('note_on', channel=14, note=76, velocity=0, time=24),
    Message('note_on', channel=14, note=67, velocity=0, time=70),
    Message('note_on', channel=14, note=77, velocity=77, time=16),
    Message('note_on', channel=14, note=77, velocity=0, time=52),
    Message('note_on', channel=14, note=76, velocity=106, time=10),
    Message('note_on', channel=14, note=76, velocity=0, time=51),
    Message('note_on', channel=14, note=74, velocity=87, time=13),
    Message('note_on', channel=14, note=71, velocity=113, time=396),
    Message('note_on', channel=14, note=74, velocity=0, time=1),
    Message('note_on', channel=14, note=72, velocity=127, time=122),
    Message('note_on', channel=14, note=71, velocity=0, time=9),
    Message('note_on', channel=14, note=72, velocity=0, time=115),
    Message('note_on', channel=14, note=74, velocity=110, time=8),
    Message('note_on', channel=14, note=65, velocity=50, time=193),
    Message('note_on', channel=14, note=69, velocity=94, time=65),
    Message('note_on', channel=14, note=74, velocity=0, time=19),
    Message('note_on', channel=14, note=74, velocity=55, time=52),
    Message('note_on', channel=14, note=65, velocity=0, time=307),
    Message('note_on', channel=14, note=69, velocity=0, time=3),
    Message('note_on', channel=14, note=74, velocity=0, time=11),
    Message('note_on', channel=14, note=74, velocity=106, time=53),
    Message('note_on', channel=14, note=76, velocity=103, time=64),
    Message('note_on', channel=14, note=74, velocity=0, time=8),
    Message('note_on', channel=14, note=76, velocity=0, time=44),
    Message('note_on', channel=14, note=74, velocity=100, time=3),
    Message('note_on', channel=14, note=74, velocity=0, time=55),
    Message('note_on', channel=14, note=72, velocity=92, time=12),
    Message('note_on', channel=14, note=72, velocity=0, time=266),
    Message('note_on', channel=14, note=64, velocity=127, time=314),
    Message('note_on', channel=14, note=65, velocity=110, time=67),
    Message('note_on', channel=14, note=64, velocity=0, time=7),
    Message('note_on', channel=14, note=65, velocity=0, time=40),
    Message('note_on', channel=14, note=67, velocity=122, time=2),
    Message('note_on', channel=14, note=67, velocity=0, time=48),
    Message('note_on', channel=14, note=67, velocity=127, time=32),
    Message('note_on', channel=14, note=67, velocity=0, time=264),
    Message('note_on', channel=14, note=69, velocity=127, time=315),
    Message('note_on', channel=14, note=67, velocity=127, time=62),
    Message('note_on', channel=14, note=69, velocity=0, time=5),
    Message('note_on', channel=14, note=67, velocity=0, time=48),
    Message('note_on', channel=14, note=66, velocity=113, time=5),
    Message('note_on', channel=14, note=66, velocity=0, time=74),
    Message('note_on', channel=14, note=67, velocity=127, time=2),
    Message('note_on', channel=14, note=67, velocity=0, time=453),
    Message('note_on', channel=14, note=64, velocity=127, time=35),
    Message('note_on', channel=14, note=64, velocity=0, time=84),
    Message('note_on', channel=14, note=65, velocity=118, time=6),
    Message('note_on', channel=14, note=67, velocity=127, time=55),
    Message('note_on', channel=14, note=65, velocity=0, time=9),
    Message('note_on', channel=14, note=67, velocity=0, time=35),
    Message('note_on', channel=14, note=69, velocity=127, time=12),
    Message('note_on', channel=14, note=69, velocity=0, time=519),
    Message('note_on', channel=14, note=70, velocity=127, time=63),
    Message('note_on', channel=14, note=70, velocity=0, time=87),
    Message('note_on', channel=14, note=69, velocity=127, time=13),
    Message('note_on', channel=14, note=69, velocity=0, time=40),
    Message('note_on', channel=14, note=68, velocity=110, time=3),
    Message('note_on', channel=14, note=69, velocity=122, time=40),
    Message('note_on', channel=14, note=68, velocity=0, time=8),
    Message('note_on', channel=14, note=69, velocity=0, time=473),
    Message('note_on', channel=14, note=69, velocity=127, time=89),
    Message('note_on', channel=14, note=69, velocity=0, time=62),
    Message('note_on', channel=14, note=71, velocity=113, time=21),
    Message('note_on', channel=14, note=71, velocity=0, time=40),
    Message('note_on', channel=14, note=72, velocity=110, time=14),
    Message('note_on', channel=14, note=72, velocity=0, time=128),
    Message('note_on', channel=14, note=72, velocity=110, time=13),
    Message('note_on', channel=14, note=72, velocity=0, time=434),
    Message('note_on', channel=14, note=69, velocity=122, time=15),
    Message('note_on', channel=14, note=69, velocity=0, time=98),
    Message('note_on', channel=14, note=72, velocity=127, time=24),
    Message('note_on', channel=14, note=72, velocity=0, time=54),
    Message('note_on', channel=14, note=74, velocity=118, time=2),
    Message('note_on', channel=14, note=74, velocity=0, time=29),
    Message('note_on', channel=14, note=72, velocity=127, time=2),
    Message('note_on', channel=14, note=71, velocity=106, time=92),
    Message('note_on', channel=14, note=72, velocity=0, time=2),
    Message('note_on', channel=14, note=71, velocity=0, time=551),
    Message('note_on', channel=14, note=71, velocity=127, time=23),
    Message('note_on', channel=14, note=72, velocity=127, time=72),
    Message('note_on', channel=14, note=71, velocity=0, time=11),
    Message('note_on', channel=14, note=72, velocity=0, time=35),
    Message('note_on', channel=14, note=74, velocity=122, time=7),
    Message('note_on', channel=14, note=74, velocity=0, time=57),
    Message('note_on', channel=14, note=74, velocity=127, time=15),
    Message('note_on', channel=14, note=74, velocity=0, time=480),
    Message('note_on', channel=14, note=74, velocity=127, time=21),
    Message('note_on', channel=14, note=74, velocity=0, time=119),
    Message('note_on', channel=14, note=76, velocity=127, time=10),
    Message('note_on', channel=14, note=76, velocity=0, time=38),
    Message('note_on', channel=14, note=74, velocity=122, time=5),
    Message('note_on', channel=14, note=74, velocity=0, time=35),
    Message('note_on', channel=14, note=72, velocity=113, time=2),
    Message('note_on', channel=14, note=72, velocity=0, time=532),
    Message('note_on', channel=14, note=72, velocity=127, time=29),
    Message('note_on', channel=14, note=72, velocity=0, time=78),
    Message('note_on', channel=14, note=72, velocity=127, time=15),
    Message('note_on', channel=14, note=72, velocity=0, time=69),
    Message('note_on', channel=14, note=72, velocity=127, time=13),
    Message('note_on', channel=14, note=72, velocity=0, time=86),
    Message('note_on', channel=14, note=72, velocity=127, time=12),
    Message('note_on', channel=14, note=72, velocity=0, time=480),
    Message('note_on', channel=14, note=72, velocity=127, time=21),
    Message('note_on', channel=14, note=72, velocity=0, time=109),
    Message('note_on', channel=14, note=74, velocity=127, time=9),
    Message('note_on', channel=14, note=74, velocity=0, time=35),
    Message('note_on', channel=14, note=72, velocity=127, time=10),
    Message('note_on', channel=14, note=71, velocity=122, time=111),
    Message('note_on', channel=14, note=72, velocity=0, time=4),
    Message('note_on', channel=14, note=71, velocity=0, time=459),
    Message('note_on', channel=14, note=71, velocity=110, time=22),
    Message('note_on', channel=14, note=72, velocity=118, time=92),
    Message('note_on', channel=14, note=71, velocity=0, time=11),
    Message('note_on', channel=14, note=72, velocity=0, time=48),
    Message('note_on', channel=14, note=74, velocity=127, time=5),
    Message('note_on', channel=14, note=74, velocity=0, time=112),
    Message('note_on', channel=14, note=74, velocity=106, time=17),
    Message('note_on', channel=14, note=74, velocity=0, time=591),
    Message('note_on', channel=14, note=76, velocity=84, time=27),
    Message('note_on', channel=14, note=76, velocity=0, time=51),
    Message('note_on', channel=14, note=74, velocity=122, time=9),
    Message('note_on', channel=14, note=74, velocity=0, time=63),
    Message('note_on', channel=14, note=72, velocity=110, time=10),
    Message('note_on', channel=14, note=72, velocity=0, time=503),
    Message('note_on', channel=14, note=43, velocity=127, time=143),
    Message('note_on', channel=14, note=43, velocity=0, time=104),
    Message('note_on', channel=14, note=52, velocity=127, time=40),
    Message('note_on', channel=14, note=50, velocity=127, time=491),
    Message('note_on', channel=14, note=52, velocity=0, time=11),
    Message('note_on', channel=14, note=50, velocity=0, time=111),
    Message('note_on', channel=14, note=52, velocity=127, time=5),
    Message('note_on', channel=14, note=52, velocity=0, time=50),
    Message('note_on', channel=14, note=50, velocity=127, time=6),
    Message('note_on', channel=14, note=50, velocity=0, time=61),
    Message('note_on', channel=14, note=52, velocity=127, time=3),
    Message('note_on', channel=14, note=52, velocity=0, time=520),
    Message('note_on', channel=14, note=50, velocity=127, time=2),
    Message('note_on', channel=14, note=50, velocity=0, time=125),
    Message('note_on', channel=14, note=52, velocity=127, time=10),
    Message('note_on', channel=14, note=52, velocity=0, time=49),
    Message('note_on', channel=14, note=50, velocity=127, time=2),
    Message('note_on', channel=14, note=50, velocity=0, time=67),
    Message('note_on', channel=14, note=52, velocity=127, time=1),
    Message('note_on', channel=14, note=52, velocity=0, time=374),
    Message('note_on', channel=14, note=50, velocity=127, time=18),
    Message('note_on', channel=14, note=50, velocity=0, time=99),
    Message('note_on', channel=14, note=52, velocity=127, time=24),
    Message('note_on', channel=14, note=52, velocity=0, time=112),
    Message('note_on', channel=14, note=50, velocity=127, time=16),
    Message('note_on', channel=14, note=50, velocity=0, time=104),
    Message('note_on', channel=14, note=50, velocity=127, time=21),
    Message('note_on', channel=14, note=49, velocity=103, time=81),
    Message('note_on', channel=14, note=50, velocity=0, time=2),
    Message('note_on', channel=14, note=49, velocity=0, time=479),
    Message('note_on', channel=14, note=45, velocity=127, time=22),
    Message('note_on', channel=14, note=45, velocity=0, time=107),
    Message('note_on', channel=14, note=51, velocity=46, time=58),
    Message('note_on', channel=14, note=52, velocity=73, time=10),
    Message('note_on', channel=14, note=53, velocity=118, time=13),
    Message('note_on', channel=14, note=51, velocity=0, time=6),
    Message('note_on', channel=14, note=52, velocity=0, time=5),
    Message('note_on', channel=14, note=53, velocity=0, time=452),
    Message('note_on', channel=14, note=52, velocity=127, time=37),
    Message('note_on', channel=14, note=52, velocity=0, time=138),
    Message('note_on', channel=14, note=53, velocity=100, time=1),
    Message('note_on', channel=14, note=52, velocity=127, time=55),
    Message('note_on', channel=14, note=53, velocity=0, time=8),
    Message('note_on', channel=14, note=52, velocity=0, time=60),
    Message('note_on', channel=14, note=53, velocity=103, time=1),
    Message('note_on', channel=14, note=53, velocity=0, time=411),
    Message('note_on', channel=14, note=52, velocity=127, time=95),
    Message('note_on', channel=14, note=52, velocity=0, time=110),
    Message('note_on', channel=14, note=53, velocity=118, time=22),
    Message('note_on', channel=14, note=53, velocity=0, time=52),
    Message('note_on', channel=14, note=52, velocity=127, time=5),
    Message('note_on', channel=14, note=52, velocity=0, time=49),
    Message('note_on', channel=14, note=53, velocity=127, time=21),
    Message('note_on', channel=14, note=53, velocity=0, time=364),
    Message('note_on', channel=14, note=55, velocity=127, time=26),
    Message('note_on', channel=14, note=55, velocity=0, time=184),
    Message('note_on', channel=14, note=50, velocity=118, time=7),
    Message('note_on', channel=14, note=50, velocity=0, time=108),
    Message('note_on', channel=14, note=53, velocity=127, time=11),
    Message('note_on', channel=14, note=53, velocity=0, time=60),
    Message('note_on', channel=14, note=53, velocity=127, time=12),
    Message('note_on', channel=14, note=53, velocity=0, time=120),
    Message('note_on', channel=14, note=52, velocity=118, time=24),
    Message('note_on', channel=14, note=48, velocity=127, time=427),
    Message('note_on', channel=14, note=52, velocity=0, time=29),
    Message('note_on', channel=14, note=48, velocity=0, time=117),
    Message('note_on', channel=14, note=55, velocity=127, time=60),
    Message('note_on', channel=14, note=55, velocity=0, time=439),
    Message('note_on', channel=14, note=57, velocity=32, time=75),
    Message('note_on', channel=14, note=57, velocity=0, time=68),
    Message('note_on', channel=14, note=57, velocity=127, time=37),
    Message('note_on', channel=14, note=57, velocity=0, time=30),
    Message('note_on', channel=14, note=55, velocity=127, time=22),
    Message('note_on', channel=14, note=57, velocity=113, time=34),
    Message('note_on', channel=14, note=55, velocity=0, time=5),
    Message('note_on', channel=14, note=57, velocity=0, time=36),
    Message('note_on', channel=14, note=55, velocity=118, time=12),
    Message('note_on', channel=14, note=52, velocity=127, time=383),
    Message('note_on', channel=14, note=55, velocity=0, time=15),
    Message('note_on', channel=14, note=52, velocity=0, time=101),
    Message('note_on', channel=14, note=53, velocity=127, time=16),
    Message('note_on', channel=14, note=55, velocity=127, time=121),
    Message('note_on', channel=14, note=53, velocity=0, time=5),
    Message('note_on', channel=14, note=55, velocity=0, time=124),
    Message('note_on', channel=14, note=53, velocity=127, time=10),
    Message('note_on', channel=14, note=53, velocity=0, time=491),
    Message('note_on', channel=14, note=52, velocity=127, time=23),
    Message('note_on', channel=14, note=52, velocity=0, time=131),
    Message('note_on', channel=14, note=53, velocity=106, time=0),
    Message('note_on', channel=14, note=53, velocity=0, time=48),
    Message('note_on', channel=14, note=52, velocity=127, time=0),
    Message('note_on', channel=14, note=52, velocity=0, time=47),
    Message('note_on', channel=14, note=55, velocity=127, time=25),
    Message('note_on', channel=14, note=55, velocity=0, time=65),
    Message('note_on', channel=14, note=53, velocity=110, time=2),
    Message('note_on', channel=14, note=53, velocity=0, time=459),
    Message('note_on', channel=14, note=53, velocity=122, time=54),
    Message('note_on', channel=14, note=55, velocity=127, time=57),
    Message('note_on', channel=14, note=53, velocity=0, time=9),
    Message('note_on', channel=14, note=55, velocity=0, time=49),
    Message('note_on', channel=14, note=53, velocity=122, time=2),
    Message('note_on', channel=14, note=53, velocity=0, time=57),
    Message('note_on', channel=14, note=52, velocity=127, time=9),
    Message('note_on', channel=14, note=52, velocity=0, time=345),
    Message('note_on', channel=14, note=43, velocity=122, time=85),
    Message('note_on', channel=14, note=43, velocity=0, time=99),
    Message('note_on', channel=14, note=51, velocity=55, time=45),
    Message('note_on', channel=14, note=52, velocity=92, time=13),
    Message('note_on', channel=14, note=53, velocity=94, time=5),
    Message('note_on', channel=14, note=51, velocity=0, time=9),
    Message('note_on', channel=14, note=52, velocity=0, time=8),
    Message('note_on', channel=14, note=53, velocity=0, time=56),
    Message('note_on', channel=14, note=52, velocity=122, time=4),
    Message('note_on', channel=14, note=52, velocity=0, time=60),
    Message('note_on', channel=14, note=50, velocity=127, time=32),
    Message('note_on', channel=14, note=50, velocity=0, time=390),
    Message('note_on', channel=14, note=47, velocity=127, time=7),
    Message('note_on', channel=14, note=47, velocity=0, time=132),
    Message('note_on', channel=14, note=48, velocity=127, time=7),
    Message('note_on', channel=14, note=48, velocity=0, time=101),
    Message('note_on', channel=14, note=50, velocity=127, time=18),
    Message('note_on', channel=14, note=50, velocity=0, time=101),
    Message('note_on', channel=14, note=50, velocity=94, time=19),
    Message('note_on', channel=14, note=50, velocity=0, time=562),
    Message('note_on', channel=14, note=50, velocity=122, time=24),
    Message('note_on', channel=14, note=52, velocity=45, time=64),
    Message('note_on', channel=14, note=50, velocity=0, time=4),
    Message('note_on', channel=14, note=52, velocity=0, time=42),
    Message('note_on', channel=14, note=50, velocity=110, time=7),
    Message('note_on', channel=14, note=50, velocity=0, time=63),
    Message('note_on', channel=14, note=48, velocity=127, time=17),
    Message('note_on', channel=14, note=48, velocity=0, time=240),
    Message('note_on', channel=14, note=64, velocity=127, time=143),
    Message('note_on', channel=14, note=64, velocity=0, time=96),
    Message('note_on', channel=14, note=65, velocity=127, time=31),
    Message('note_on', channel=14, note=65, velocity=0, time=88),
    Message('note_on', channel=14, note=67, velocity=127, time=28),
    Message('note_on', channel=14, note=67, velocity=0, time=115),
    Message('note_on', channel=14, note=67, velocity=127, time=33),
    Message('note_on', channel=14, note=67, velocity=0, time=221),
    Message('note_on', channel=14, note=69, velocity=127, time=273),
    Message('note_on', channel=14, note=67, velocity=127, time=122),
    Message('note_on', channel=14, note=69, velocity=0, time=2),
    Message('note_on', channel=14, note=67, velocity=0, time=41),
    Message('note_on', channel=14, note=66, velocity=127, time=8),
    Message('note_on', channel=14, note=66, velocity=0, time=40),
    Message('note_on', channel=14, note=67, velocity=127, time=0),
    Message('note_on', channel=14, note=67, velocity=0, time=459),
    Message('note_on', channel=14, note=64, velocity=127, time=87),
    Message('note_on', channel=14, note=64, velocity=0, time=90),
    Message('note_on', channel=14, note=65, velocity=127, time=10),
    Message('note_on', channel=14, note=65, velocity=0, time=60),
    Message('note_on', channel=14, note=67, velocity=127, time=0),
    Message('note_on', channel=14, note=67, velocity=0, time=80),
    Message('note_on', channel=14, note=69, velocity=127, time=23),
    Message('note_on', channel=14, note=69, velocity=0, time=569),
    Message('note_on', channel=14, note=70, velocity=118, time=26),
    Message('note_on', channel=14, note=70, velocity=0, time=51),
    Message('note_on', channel=14, note=69, velocity=127, time=11),
    Message('note_on', channel=14, note=69, velocity=0, time=52),
    Message('note_on', channel=14, note=68, velocity=84, time=2),
    Message('note_on', channel=14, note=68, velocity=0, time=69),
    Message('note_on', channel=14, note=69, velocity=118, time=0),
    Message('note_on', channel=14, note=69, velocity=0, time=468),
    Message('note_on', channel=14, note=69, velocity=127, time=25),
    Message('note_on', channel=14, note=69, velocity=0, time=61),
    Message('note_on', channel=14, note=71, velocity=127, time=24),
    Message('note_on', channel=14, note=71, velocity=0, time=47),
    Message('note_on', channel=14, note=72, velocity=127, time=12),
    Message('note_on', channel=14, note=72, velocity=0, time=110),
    Message('note_on', channel=14, note=72, velocity=118, time=24),
    Message('note_on', channel=14, note=72, velocity=0, time=363),
    Message('note_on', channel=14, note=69, velocity=127, time=13),
    Message('note_on', channel=14, note=69, velocity=0, time=118),
    Message('note_on', channel=14, note=72, velocity=127, time=19),
    Message('note_on', channel=14, note=72, velocity=0, time=112),
    Message('note_on', channel=14, note=74, velocity=106, time=7),
    Message('note_on', channel=14, note=74, velocity=0, time=36),
    Message('note_on', channel=14, note=72, velocity=113, time=3),
    Message('note_on', channel=14, note=72, velocity=0, time=72),
    Message('note_on', channel=14, note=71, velocity=76, time=11),
    Message('note_on', channel=14, note=71, velocity=0, time=464),
    Message('note_on', channel=14, note=71, velocity=127, time=35),
    Message('note_on', channel=14, note=71, velocity=0, time=82),
    Message('note_on', channel=14, note=72, velocity=127, time=7),
    Message('note_on', channel=14, note=72, velocity=0, time=40),
    Message('note_on', channel=14, note=74, velocity=127, time=15),
    Message('note_on', channel=14, note=74, velocity=0, time=111),
    Message('note_on', channel=14, note=74, velocity=127, time=27),
    Message('note_on', channel=14, note=74, velocity=0, time=448),
    Message('note_on', channel=14, note=74, velocity=127, time=30),
    Message('note_on', channel=14, note=74, velocity=0, time=97),
    Message('note_on', channel=14, note=76, velocity=127, time=9),
    Message('note_on', channel=14, note=76, velocity=0, time=72),
    Message('note_on', channel=14, note=74, velocity=127, time=9),
    Message('note_on', channel=14, note=74, velocity=0, time=81),
    Message('note_on', channel=14, note=72, velocity=127, time=15),
    Message('note_on', channel=14, note=72, velocity=0, time=435),
    Message('note_on', channel=14, note=72, velocity=127, time=54),
    Message('note_on', channel=14, note=72, velocity=0, time=80),
    Message('note_on', channel=14, note=72, velocity=127, time=21),
    Message('note_on', channel=14, note=72, velocity=0, time=75),
    Message('note_on', channel=14, note=72, velocity=127, time=16),
    Message('note_on', channel=14, note=72, velocity=0, time=81),
    Message('note_on', channel=14, note=72, velocity=127, time=16),
    Message('note_on', channel=14, note=69, velocity=127, time=475),
    Message('note_on', channel=14, note=72, velocity=0, time=12),
    Message('note_on', channel=14, note=69, velocity=0, time=72),
    Message('note_on', channel=14, note=72, velocity=127, time=17),
    Message('note_on', channel=14, note=72, velocity=0, time=32),
    Message('note_on', channel=14, note=74, velocity=110, time=16),
    Message('note_on', channel=14, note=74, velocity=0, time=39),
    Message('note_on', channel=14, note=72, velocity=127, time=12),
    Message('note_on', channel=14, note=72, velocity=0, time=67),
    Message('note_on', channel=14, note=71, velocity=127, time=23),
    Message('note_on', channel=14, note=71, velocity=0, time=344),
    Message('note_on', channel=14, note=71, velocity=127, time=36),
    Message('note_on', channel=14, note=71, velocity=0, time=90),
    Message('note_on', channel=14, note=72, velocity=127, time=28),
    Message('note_on', channel=14, note=72, velocity=0, time=104),
    Message('note_on', channel=14, note=74, velocity=127, time=23),
    Message('note_on', channel=14, note=74, velocity=0, time=111),
    Message('note_on', channel=14, note=74, velocity=127, time=24),
    Message('note_on', channel=14, note=74, velocity=0, time=759),
    Message('note_on', channel=14, note=72, velocity=110, time=15),
    Message('note_on', channel=14, note=72, velocity=0, time=636),
    Message('note_on', channel=14, note=79, velocity=87, time=121),
    Message('note_on', channel=14, note=79, velocity=0, time=384),
    MetaMessage('end_of_track', time=0)]),
  MidiTrack([
    MetaMessage('midi_port', port=2, time=0),
    MetaMessage('track_name', name='drums3              ', time=0),
    Message('control_change', channel=9, control=7, value=90, time=0),
    Message('note_on', channel=9, note=37, velocity=127, time=0),
    Message('note_on', channel=9, note=37, velocity=0, time=192),
    Message('note_on', channel=9, note=37, velocity=127, time=192),
    Message('note_on', channel=9, note=37, velocity=0, time=192),
    Message('note_on', channel=9, note=37, velocity=127, time=192),
    Message('note_on', channel=9, note=37, velocity=0, time=192),
    Message('note_on', channel=9, note=37, velocity=127, time=0),
    Message('note_on', channel=9, note=37, velocity=0, time=192),
    Message('note_on', channel=9, note=37, velocity=127, time=0),
    Message('note_on', channel=9, note=37, velocity=0, time=192),
    Message('note_on', channel=9, note=37, velocity=127, time=0),
    Message('note_on', channel=9, note=37, velocity=0, time=192),
    Message('note_on', channel=9, note=35, velocity=127, time=0),
    Message('note_on', channel=9, note=42, velocity=127, time=0),
    Message('note_on', channel=9, note=49, velocity=127, time=0),
    Message('note_on', channel=9, note=41, velocity=127, time=0),
    Message('note_on', channel=9, note=35, velocity=0, time=64),
    Message('note_on', channel=9, note=42, velocity=0, time=0),
    Message('note_on', channel=9, note=49, velocity=0, time=0),
    Message('note_on', channel=9, note=41, velocity=0, time=0),
    Message('note_on', channel=9, note=42, velocity=127, time=0),
    Message('note_on', channel=9, note=42, velocity=0, time=64),
    Message('note_on', channel=9, note=42, velocity=127, time=0),
    Message('note_on', channel=9, note=42, velocity=0, time=64),
    Message('note_on', channel=9, note=38, velocity=127, time=0),
    Message('note_on', channel=9, note=42, velocity=127, time=0),
    Message('note_on', channel=9, note=37, velocity=127, time=0),
    Message('note_on', channel=9, note=38, velocity=0, time=64),
    Message('note_on', channel=9, note=42, velocity=0, time=0),
    Message('note_on', channel=9, note=37, velocity=0, time=0),
    Message('note_on', channel=9, note=42, velocity=127, time=0),
    Message('note_on', channel=9, note=42, velocity=0, time=64),
    Message('note_on', channel=9, note=35, velocity=127, time=0),
    Message('note_on', channel=9, note=42, velocity=127, time=0),
    Message('note_on', channel=9, note=35, velocity=0, time=64),
    Message('note_on', channel=9, note=42, velocity=0, time=0),
    Message('note_on', channel=9, note=35, velocity=127, time=0),
    Message('note_on', channel=9, note=42, velocity=127, time=0),
    Message('note_on', channel=9, note=35, velocity=0, time=64),
    Message('note_on', channel=9, note=42, velocity=0, time=0),
    Message('note_on', channel=9, note=42, velocity=127, time=0),
    Message('note_on', channel=9, note=42, velocity=0, time=64),
    Message('note_on', channel=9, note=42, velocity=127, time=0),
    Message('note_on', channel=9, note=42, velocity=0, time=64),
    Message('note_on', channel=9, note=42, velocity=127, time=0),
    Message('note_on', channel=9, note=37, velocity=127, time=0),
    Message('note_on', channel=9, note=42, velocity=0, time=64),
    Message('note_on', channel=9, note=37, velocity=0, time=0),
    Message('note_on', channel=9, note=42, velocity=127, time=0),
    Message('note_on', channel=9, note=42, velocity=0, time=64),
    Message('note_on', channel=9, note=35, velocity=127, time=0),
    Message('note_on', channel=9, note=42, velocity=127, time=0),
    Message('note_on', channel=9, note=35, velocity=0, time=64),
    Message('note_on', channel=9, note=42, velocity=0, time=0),
    Message('note_on', channel=9, note=35, velocity=127, time=0),
    Message('note_on', channel=9, note=42, velocity=127, time=0),
    Message('note_on', channel=9, note=35, velocity=0, time=64),
    Message('note_on', channel=9, note=42, velocity=0, time=0),
    Message('note_on', channel=9, note=42, velocity=127, time=0),
    Message('note_on', channel=9, note=42, velocity=0, time=64),
    Message('note_on', channel=9, note=42, velocity=127, time=0),
    Message('note_on', channel=9, note=42, velocity=0, time=64),
    Message('note_on', channel=9, note=42, velocity=127, time=0),
    Message('note_on', channel=9, note=37, velocity=127, time=0),
    Message('note_on', channel=9, note=42, velocity=0, time=64),
    Message('note_on', channel=9, note=37, velocity=0, time=0),
    Message('note_on', channel=9, note=42, velocity=127, time=0),
    Message('note_on', channel=9, note=42, velocity=0, time=64),
    Message('note_on', channel=9, note=35, velocity=127, time=0),
    Message('note_on', channel=9, note=42, velocity=127, time=0),
    Message('note_on', channel=9, note=35, velocity=0, time=64),
    Message('note_on', channel=9, note=42, velocity=0, time=0),
    Message('note_on', channel=9, note=35, velocity=127, time=0),
    Message('note_on', channel=9, note=42, velocity=127, time=0),
    Message('note_on', channel=9, note=35, velocity=0, time=64),
    Message('note_on', channel=9, note=42, velocity=0, time=0),
    Message('note_on', channel=9, note=42, velocity=127, time=0),
    Message('note_on', channel=9, note=42, velocity=0, time=64),
    Message('note_on', channel=9, note=35, velocity=127, time=0),
    Message('note_on', channel=9, note=42, velocity=127, time=0),
    Message('note_on', channel=9, note=35, velocity=0, time=64),
    Message('note_on', channel=9, note=42, velocity=0, time=0),
    Message('note_on', channel=9, note=42, velocity=127, time=0),
    Message('note_on', channel=9, note=37, velocity=127, time=0),
    Message('note_on', channel=9, note=42, velocity=0, time=64),
    Message('note_on', channel=9, note=37, velocity=0, time=0),
    Message('note_on', channel=9, note=35, velocity=127, time=0),
    Message('note_on', channel=9, note=42, velocity=127, time=0),
    Message('note_on', channel=9, note=35, velocity=0, time=64),
    Message('note_on', channel=9, note=42, velocity=0, time=0),
    Message('note_on', channel=9, note=35, velocity=127, time=0),
    Message('note_on', channel=9, note=46, velocity=127, time=0),
    Message('note_on', channel=9, note=35, velocity=0, time=64),
    Message('note_on', channel=9, note=46, velocity=0, time=0),
    Message('note_on', channel=9, note=35, velocity=127, time=0),
    Message('note_on', channel=9, note=38, velocity=127, time=0),
    Message('note_on', channel=9, note=42, velocity=127, time=0),
    Message('note_on', channel=9, note=51, velocity=127, time=0),
    Message('note_on', channel=9, note=35, velocity=0, time=64),
    Message('note_on', channel=9, note=38, velocity=0, time=0),
    Message('note_on', channel=9, note=42, velocity=0, time=0),
    Message('note_on', channel=9, note=51, velocity=0, time=0),
    Message('note_on', channel=9, note=38, velocity=127, time=0),
    Message('note_on', channel=9, note=42, velocity=127, time=0),
    Message('note_on', channel=9, note=38, velocity=0, time=64),
    Message('note_on', channel=9, note=42, velocity=0, time=0),
    Message('note_on', channel=9, note=38, velocity=127, time=0),
    Message('note_on', channel=9, note=42, velocity=127, time=0),
    Message('note_on', channel=9, note=38, velocity=0, time=64),
    Message('note_on', channel=9, note=42, velocity=0, time=0),
    Message('note_on', channel=9, note=38, velocity=127, time=0),
    Message('note_on', channel=9, note=42, velocity=127, time=0),
    Message('note_on', channel=9, note=37, velocity=127, time=0),
    Message('note_on', channel=9, note=38, velocity=0, time=64),
    Message('note_on', channel=9, note=42, velocity=0, time=0),
    Message('note_on', channel=9, note=37, velocity=0, time=0),
    Message('note_on', channel=9, note=38, velocity=127, time=0),
    Message('note_on', channel=9, note=42, velocity=127, time=0),
    Message('note_on', channel=9, note=38, velocity=0, time=64),
    Message('note_on', channel=9, note=42, velocity=0, time=0),
    Message('note_on', channel=9, note=35, velocity=127, time=0),
    Message('note_on', channel=9, note=38, velocity=127, time=0),
    Message('note_on', channel=9, note=42, velocity=127, time=0),
    Message('note_on', channel=9, note=35, velocity=0, time=64),
    Message('note_on', channel=9, note=38, velocity=0, time=0),
    Message('note_on', channel=9, note=42, velocity=0, time=0),
    Message('note_on', channel=9, note=35, velocity=127, time=0),
    Message('note_on', channel=9, note=38, velocity=127, time=0),
    Message('note_on', channel=9, note=42, velocity=127, time=0),
    Message('note_on', channel=9, note=35, velocity=0, time=64),
    Message('note_on', channel=9, note=38, velocity=0, time=0),
    Message('note_on', channel=9, note=42, velocity=0, time=0),
    Message('note_on', channel=9, note=38, velocity=127, time=0),
    Message('note_on', channel=9, note=42, velocity=127, time=0),
    Message('note_on', channel=9, note=38, velocity=0, time=64),
    Message('note_on', channel=9, note=42, velocity=0, time=0),
    Message('note_on', channel=9, note=38, velocity=127, time=0),
    Message('note_on', channel=9, note=42, velocity=127, time=0),
    Message('note_on', channel=9, note=38, velocity=0, time=64),
    Message('note_on', channel=9, note=42, velocity=0, time=0),
    Message('note_on', channel=9, note=38, velocity=127, time=0),
    Message('note_on', channel=9, note=42, velocity=127, time=0),
    Message('note_on', channel=9, note=37, velocity=127, time=0),
    Message('note_on', channel=9, note=38, velocity=0, time=64),
    Message('note_on', channel=9, note=42, velocity=0, time=0),
    Message('note_on', channel=9, note=37, velocity=0, time=0),
    Message('note_on', channel=9, note=38, velocity=127, time=0),
    Message('note_on', channel=9, note=42, velocity=127, time=0),
    Message('note_on', channel=9, note=38, velocity=0, time=64),
    Message('note_on', channel=9, note=42, velocity=0, time=0),
    Message('note_on', channel=9, note=35, velocity=127, time=0),
    Message('note_on', channel=9, note=38, velocity=127, time=0),
    Message('note_on', channel=9, note=42, velocity=127, time=0),
    Message('note_on', channel=9, note=35, velocity=0, time=64),
    Message('note_on', channel=9, note=38, velocity=0, time=0),
    Message('note_on', channel=9, note=42, velocity=0, time=0),
    Message('note_on', channel=9, note=35, velocity=127, time=0),
    Message('note_on', channel=9, note=38, velocity=127, time=0),
    Message('note_on', channel=9, note=42, velocity=127, time=0),
    Message('note_on', channel=9, note=49, velocity=127, time=0),
    Message('note_on', channel=9, note=35, velocity=0, time=64),
    Message('note_on', channel=9, note=38, velocity=0, time=0),
    Message('note_on', channel=9, note=42, velocity=0, time=0),
    Message('note_on', channel=9, note=49, velocity=0, time=0),
    Message('note_on', channel=9, note=38, velocity=127, time=0),
    Message('note_on', channel=9, note=42, velocity=127, time=0),
    Message('note_on', channel=9, note=51, velocity=127, time=0),
    Message('note_on', channel=9, note=38, velocity=0, time=64),
    Message('note_on', channel=9, note=42, velocity=0, time=0),
    Message('note_on', channel=9, note=51, velocity=0, time=0),
    Message('note_on', channel=9, note=38, velocity=127, time=0),
    Message('note_on', channel=9, note=42, velocity=127, time=0),
    Message('note_on', channel=9, note=51, velocity=127, time=0),
    Message('note_on', channel=9, note=38, velocity=0, time=64),
    Message('note_on', channel=9, note=42, velocity=0, time=0),
    Message('note_on', channel=9, note=51, velocity=0, time=0),
    Message('note_on', channel=9, note=42, velocity=127, time=0),
    Message('note_on', channel=9, note=49, velocity=127, time=0),
    Message('note_on', channel=9, note=48, velocity=127, time=0),
    Message('note_on', channel=9, note=42, velocity=0, time=64),
    Message('note_on', channel=9, note=49, velocity=0, time=0),
    Message('note_on', channel=9, note=48, velocity=0, time=0),
    Message('note_on', channel=9, note=42, velocity=127, time=0),
    Message('note_on', channel=9, note=51, velocity=127, time=0),
    Message('note_on', channel=9, note=48, velocity=127, time=0),
    Message('note_on', channel=9, note=42, velocity=0, time=64),
    Message('note_on', channel=9, note=51, velocity=0, time=0),
    Message('note_on', channel=9, note=48, velocity=0, time=0),
    Message('note_on', channel=9, note=35, velocity=127, time=0),
    Message('note_on', channel=9, note=42, velocity=127, time=0),
    Message('note_on', channel=9, note=51, velocity=127, time=0),
    Message('note_on', channel=9, note=48, velocity=127, time=0),
    Message('note_on', channel=9, note=35, velocity=0, time=64),
    Message('note_on', channel=9, note=42, velocity=0, time=0),
    Message('note_on', channel=9, note=51, velocity=0, time=0),
    Message('note_on', channel=9, note=48, velocity=0, time=0),
    Message('note_on', channel=9, note=35, velocity=127, time=0),
    Message('note_on', channel=9, note=38, velocity=127, time=0),
    Message('note_on', channel=9, note=42, velocity=127, time=0),
    Message('note_on', channel=9, note=49, velocity=127, time=0),
    Message('note_on', channel=9, note=45, velocity=127, time=0),
    Message('note_on', channel=9, note=35, velocity=0, time=64),
    Message('note_on', channel=9, note=38, velocity=0, time=0),
    Message('note_on', channel=9, note=42, velocity=0, time=0),
    Message('note_on', channel=9, note=49, velocity=0, time=0),
    Message('note_on', channel=9, note=45, velocity=0, time=0),
    Message('note_on', channel=9, note=42, velocity=127, time=0),
    Message('note_on', channel=9, note=51, velocity=127, time=0),
    Message('note_on', channel=9, note=45, velocity=127, time=0),
    Message('note_on', channel=9, note=42, velocity=0, time=64),
    Message('note_on', channel=9, note=51, velocity=0, time=0),
    Message('note_on', channel=9, note=45, velocity=0, time=0),
    Message('note_on', channel=9, note=35, velocity=127, time=0),
    Message('note_on', channel=9, note=42, velocity=127, time=0),
    Message('note_on', channel=9, note=51, velocity=127, time=0),
    Message('note_on', channel=9, note=45, velocity=127, time=0),
    Message('note_on', channel=9, note=35, velocity=0, time=64),
    Message('note_on', channel=9, note=42, velocity=0, time=0),
    Message('note_on', channel=9, note=51, velocity=0, time=0),
    Message('note_on', channel=9, note=45, velocity=0, time=0),
    Message('note_on', channel=9, note=42, velocity=127, time=0),
    Message('note_on', channel=9, note=49, velocity=127, time=0),
    Message('note_on', channel=9, note=41, velocity=127, time=0),
    Message('note_on', channel=9, note=42, velocity=0, time=64),
    Message('note_on', channel=9, note=49, velocity=0, time=0),
    Message('note_on', channel=9, note=41, velocity=0, time=0),
    Message('note_on', channel=9, note=35, velocity=127, time=0),
    Message('note_on', channel=9, note=42, velocity=127, time=0),
    Message('note_on', channel=9, note=51, velocity=127, time=0),
    Message('note_on', channel=9, note=41, velocity=127, time=0),
    Message('note_on', channel=9, note=35, velocity=0, time=64),
    Message('note_on', channel=9, note=42, velocity=0, time=0),
    Message('note_on', channel=9, note=51, velocity=0, time=0),
    Message('note_on', channel=9, note=41, velocity=0, time=0),
    Message('note_on', channel=9, note=35, velocity=127, time=0),
    Message('note_on', channel=9, note=42, velocity=127, time=0),
    Message('note_on', channel=9, note=51, velocity=127, time=0),
    Message('note_on', channel=9, note=41, velocity=127, time=0),
    Message('note_on', channel=9, note=35, velocity=0, time=64),
    Message('note_on', channel=9, note=42, velocity=0, time=0),
    Message('note_on', channel=9, note=51, velocity=0, time=0),
    Message('note_on', channel=9, note=41, velocity=0, time=0),
    Message('note_on', channel=9, note=35, velocity=127, time=0),
    Message('note_on', channel=9, note=42, velocity=127, time=0),
    Message('note_on', channel=9, note=49, velocity=127, time=0),
    Message('note_on', channel=9, note=41, velocity=127, time=0),
    Message('note_on', channel=9, note=35, velocity=0, time=64),
    Message('note_on', channel=9, note=42, velocity=0, time=0),
    Message('note_on', channel=9, note=49, velocity=0, time=0),
    Message('note_on', channel=9, note=41, velocity=0, time=0),
    Message('note_on', channel=9, note=42, velocity=127, time=0),
    Message('note_on', channel=9, note=42, velocity=0, time=64),
    Message('note_on', channel=9, note=42, velocity=127, time=0),
    Message('note_on', channel=9, note=42, velocity=0, time=64),
    Message('note_on', channel=9, note=38, velocity=127, time=0),
    Message('note_on', channel=9, note=42, velocity=127, time=0),
    Message('note_on', channel=9, note=37, velocity=127, time=0),
    Message('note_on', channel=9, note=38, velocity=0, time=64),
    Message('note_on', channel=9, note=42, velocity=0, time=0),
    Message('note_on', channel=9, note=37, velocity=0, time=0),
    Message('note_on', channel=9, note=42, velocity=127, time=0),
    Message('note_on', channel=9, note=42, velocity=0, time=64),
    Message('note_on', channel=9, note=35, velocity=127, time=0),
    Message('note_on', channel=9, note=42, velocity=127, time=0),
    Message('note_on', channel=9, note=35, velocity=0, time=64),
    Message('note_on', channel=9, note=42, velocity=0, time=0),
    Message('note_on', channel=9, note=35, velocity=127, time=0),
    Message('note_on', channel=9, note=42, velocity=127, time=0),
    Message('note_on', channel=9, note=35, velocity=0, time=64),
    Message('note_on', channel=9, note=42, velocity=0, time=0),
    Message('note_on', channel=9, note=42, velocity=127, time=0),
    Message('note_on', channel=9, note=42, velocity=0, time=64),
    Message('note_on', channel=9, note=42, velocity=127, time=0),
    Message('note_on', channel=9, note=42, velocity=0, time=64),
    Message('note_on', channel=9, note=42, velocity=127, time=0),
    Message('note_on', channel=9, note=37, velocity=127, time=0),
    Message('note_on', channel=9, note=42, velocity=0, time=64),
    Message('note_on', channel=9, note=37, velocity=0, time=0),
    Message('note_on', channel=9, note=42, velocity=127, time=0),
    Message('note_on', channel=9, note=42, velocity=0, time=64),
    Message('note_on', channel=9, note=35, velocity=127, time=0),
    Message('note_on', channel=9, note=42, velocity=127, time=0),
    Message('note_on', channel=9, note=35, velocity=0, time=64),
    Message('note_on', channel=9, note=42, velocity=0, time=0),
    Message('note_on', channel=9, note=35, velocity=127, time=0),
    Message('note_on', channel=9, note=42, velocity=127, time=0),
    Message('note_on', channel=9, note=35, velocity=0, time=64),
    Message('note_on', channel=9, note=42, velocity=0, time=0),
    Message('note_on', channel=9, note=42, velocity=127, time=0),
    Message('note_on', channel=9, note=42, velocity=0, time=64),
    Message('note_on', channel=9, note=42, velocity=127, time=0),
    Message('note_on', channel=9, note=42, velocity=0, time=64),
    Message('note_on', channel=9, note=42, velocity=127, time=0),
    Message('note_on', channel=9, note=37, velocity=127, time=0),
    Message('note_on', channel=9, note=42, velocity=0, time=64),
    Message('note_on', channel=9, note=37, velocity=0, time=0),
    Message('note_on', channel=9, note=42, velocity=127, time=0),
    Message('note_on', channel=9, note=42, velocity=0, time=64),
    Message('note_on', channel=9, note=35, velocity=127, time=0),
    Message('note_on', channel=9, note=42, velocity=127, time=0),
    Message('note_on', channel=9, note=35, velocity=0, time=64),
    Message('note_on', channel=9, note=42, velocity=0, time=0),
    Message('note_on', channel=9, note=35, velocity=127, time=0),
    Message('note_on', channel=9, note=42, velocity=127, time=0),
    Message('note_on', channel=9, note=35, velocity=0, time=64),
    Message('note_on', channel=9, note=42, velocity=0, time=0),
    Message('note_on', channel=9, note=42, velocity=127, time=0),
    Message('note_on', channel=9, note=42, velocity=0, time=64),
    Message('note_on', channel=9, note=35, velocity=127, time=0),
    Message('note_on', channel=9, note=42, velocity=127, time=0),
    Message('note_on', channel=9, note=35, velocity=0, time=64),
    Message('note_on', channel=9, note=42, velocity=0, time=0),
    Message('note_on', channel=9, note=42, velocity=127, time=0),
    Message('note_on', channel=9, note=37, velocity=127, time=0),
    Message('note_on', channel=9, note=42, velocity=0, time=64),
    Message('note_on', channel=9, note=37, velocity=0, time=0),
    Message('note_on', channel=9, note=35, velocity=127, time=0),
    Message('note_on', channel=9, note=42, velocity=127, time=0),
    Message('note_on', channel=9, note=35, velocity=0, time=64),
    Message('note_on', channel=9, note=42, velocity=0, time=0),
    Message('note_on', channel=9, note=35, velocity=127, time=0),
    Message('note_on', channel=9, note=42, velocity=127, time=0),
    Message('note_on', channel=9, note=35, velocity=0, time=64),
    Message('note_on', channel=9, note=42, velocity=0, time=0),
    Message('note_on', channel=9, note=35, velocity=127, time=0),
    Message('note_on', channel=9, note=42, velocity=127, time=0),
    Message('note_on', channel=9, note=35, velocity=0, time=64),
    Message('note_on', channel=9, note=42, velocity=0, time=0),
    Message('note_on', channel=9, note=42, velocity=127, time=0),
    Message('note_on', channel=9, note=42, velocity=0, time=64),
    Message('note_on', channel=9, note=42, velocity=127, time=0),
    Message('note_on', channel=9, note=42, velocity=0, time=64),
    Message('note_on', channel=9, note=42, velocity=127, time=0),
    Message('note_on', channel=9, note=37, velocity=127, time=0),
    Message('note_on', channel=9, note=42, velocity=0, time=64),
    Message('note_on', channel=9, note=37, velocity=0, time=0),
    Message('note_on', channel=9, note=42, velocity=127, time=0),
    Message('note_on', channel=9, note=42, velocity=0, time=64),
    Message('note_on', channel=9, note=35, velocity=127, time=0),
    Message('note_on', channel=9, note=42, velocity=127, time=0),
    Message('note_on', channel=9, note=35, velocity=0, time=64),
    Message('note_on', channel=9, note=42, velocity=0, time=0),
    Message('note_on', channel=9, note=35, velocity=127, time=0),
    Message('note_on', channel=9, note=42, velocity=127, time=0),
    Message('note_on', channel=9, note=35, velocity=0, time=64),
    Message('note_on', channel=9, note=42, velocity=0, time=0),
    Message('note_on', channel=9, note=42, velocity=127, time=0),
    Message('note_on', channel=9, note=42, velocity=0, time=64),
    Message('note_on', channel=9, note=42, velocity=127, time=0),
    Message('note_on', channel=9, note=42, velocity=0, time=64),
    Message('note_on', channel=9, note=42, velocity=127, time=0),
    Message('note_on', channel=9, note=37, velocity=127, time=0),
    Message('note_on', channel=9, note=42, velocity=0, time=64),
    Message('note_on', channel=9, note=37, velocity=0, time=0),
    Message('note_on', channel=9, note=42, velocity=127, time=0),
    Message('note_on', channel=9, note=42, velocity=0, time=64),
    Message('note_on', channel=9, note=35, velocity=127, time=0),
    Message('note_on', channel=9, note=42, velocity=127, time=0),
    Message('note_on', channel=9, note=35, velocity=0, time=64),
    Message('note_on', channel=9, note=42, velocity=0, time=0),
    Message('note_on', channel=9, note=35, velocity=127, time=0),
    Message('note_on', channel=9, note=42, velocity=127, time=0),
    Message('note_on', channel=9, note=35, velocity=0, time=64),
    Message('note_on', channel=9, note=42, velocity=0, time=0),
    Message('note_on', channel=9, note=42, velocity=127, time=0),
    Message('note_on', channel=9, note=42, velocity=0, time=64),
    Message('note_on', channel=9, note=42, velocity=127, time=0),
    Message('note_on', channel=9, note=42, velocity=0, time=64),
    Message('note_on', channel=9, note=42, velocity=127, time=0),
    Message('note_on', channel=9, note=37, velocity=127, time=0),
    Message('note_on', channel=9, note=42, velocity=0, time=64),
    Message('note_on', channel=9, note=37, velocity=0, time=0),
    Message('note_on', channel=9, note=42, velocity=127, time=0),
    Message('note_on', channel=9, note=42, velocity=0, time=64),
    Message('note_on', channel=9, note=35, velocity=127, time=0),
    Message('note_on', channel=9, note=42, velocity=127, time=0),
    Message('note_on', channel=9, note=35, velocity=0, time=64),
    Message('note_on', channel=9, note=42, velocity=0, time=0),
    Message('note_on', channel=9, note=35, velocity=127, time=0),
    Message('note_on', channel=9, note=42, velocity=127, time=0),
    Message('note_on', channel=9, note=35, velocity=0, time=64),
    Message('note_on', channel=9, note=42, velocity=0, time=0),
    Message('note_on', channel=9, note=42, velocity=127, time=0),
    Message('note_on', channel=9, note=42, velocity=0, time=64),
    Message('note_on', channel=9, note=35, velocity=127, time=0),
    Message('note_on', channel=9, note=42, velocity=127, time=0),
    Message('note_on', channel=9, note=35, velocity=0, time=64),
    Message('note_on', channel=9, note=42, velocity=0, time=0),
    Message('note_on', channel=9, note=42, velocity=127, time=0),
    Message('note_on', channel=9, note=37, velocity=127, time=0),
    Message('note_on', channel=9, note=42, velocity=0, time=64),
    Message('note_on', channel=9, note=37, velocity=0, time=0),
    Message('note_on', channel=9, note=35, velocity=127, time=0),
    Message('note_on', channel=9, note=42, velocity=127, time=0),
    Message('note_on', channel=9, note=35, velocity=0, time=64),
    Message('note_on', channel=9, note=42, velocity=0, time=0),
    Message('note_on', channel=9, note=35, velocity=127, time=0),
    Message('note_on', channel=9, note=42, velocity=127, time=0),
    Message('note_on', channel=9, note=35, velocity=0, time=64),
    Message('note_on', channel=9, note=42, velocity=0, time=0),
    Message('note_on', channel=9, note=35, velocity=127, time=0),
    Message('note_on', channel=9, note=42, velocity=127, time=0),
    Message('note_on', channel=9, note=35, velocity=0, time=64),
    Message('note_on', channel=9, note=42, velocity=0, time=0),
    Message('note_on', channel=9, note=42, velocity=127, time=0),
    Message('note_on', channel=9, note=42, velocity=0, time=64),
    Message('note_on', channel=9, note=42, velocity=127, time=0),
    Message('note_on', channel=9, note=42, velocity=0, time=64),
    Message('note_on', channel=9, note=42, velocity=127, time=0),
    Message('note_on', channel=9, note=37, velocity=127, time=0),
    Message('note_on', channel=9, note=42, velocity=0, time=64),
    Message('note_on', channel=9, note=37, velocity=0, time=0),
    Message('note_on', channel=9, note=42, velocity=127, time=0),
    Message('note_on', channel=9, note=42, velocity=0, time=64),
    Message('note_on', channel=9, note=35, velocity=127, time=0),
    Message('note_on', channel=9, note=42, velocity=127, time=0),
    Message('note_on', channel=9, note=35, velocity=0, time=64),
    Message('note_on', channel=9, note=42, velocity=0, time=0),
    Message('note_on', channel=9, note=35, velocity=127, time=0),
    Message('note_on', channel=9, note=42, velocity=127, time=0),
    Message('note_on', channel=9, note=35, velocity=0, time=64),
    Message('note_on', channel=9, note=42, velocity=0, time=0),
    Message('note_on', channel=9, note=42, velocity=127, time=0),
    Message('note_on', channel=9, note=42, velocity=0, time=64),
    Message('note_on', channel=9, note=42, velocity=127, time=0),
    Message('note_on', channel=9, note=42, velocity=0, time=64),
    Message('note_on', channel=9, note=42, velocity=127, time=0),
    Message('note_on', channel=9, note=37, velocity=127, time=0),
    Message('note_on', channel=9, note=42, velocity=0, time=64),
    Message('note_on', channel=9, note=37, velocity=0, time=0),
    Message('note_on', channel=9, note=42, velocity=127, time=0),
    Message('note_on', channel=9, note=42, velocity=0, time=64),
    Message('note_on', channel=9, note=35, velocity=127, time=0),
    Message('note_on', channel=9, note=42, velocity=127, time=0),
    Message('note_on', channel=9, note=35, velocity=0, time=64),
    Message('note_on', channel=9, note=42, velocity=0, time=0),
    Message('note_on', channel=9, note=35, velocity=127, time=0),
    Message('note_on', channel=9, note=42, velocity=127, time=0),
    Message('note_on', channel=9, note=35, velocity=0, time=64),
    Message('note_on', channel=9, note=42, velocity=0, time=0),
    Message('note_on', channel=9, note=42, velocity=127, time=0),
    Message('note_on', channel=9, note=42, velocity=0, time=64),
    Message('note_on', channel=9, note=42, velocity=127, time=0),
    Message('note_on', channel=9, note=42, velocity=0, time=64),
    Message('note_on', channel=9, note=42, velocity=127, time=0),
    Message('note_on', channel=9, note=37, velocity=127, time=0),
    Message('note_on', channel=9, note=42, velocity=0, time=64),
    Message('note_on', channel=9, note=37, velocity=0, time=0),
    Message('note_on', channel=9, note=42, velocity=127, time=0),
    Message('note_on', channel=9, note=42, velocity=0, time=64),
    Message('note_on', channel=9, note=35, velocity=127, time=0),
    Message('note_on', channel=9, note=42, velocity=127, time=0),
    Message('note_on', channel=9, note=35, velocity=0, time=64),
    Message('note_on', channel=9, note=42, velocity=0, time=0),
    Message('note_on', channel=9, note=35, velocity=127, time=0),
    Message('note_on', channel=9, note=42, velocity=127, time=0),
    Message('note_on', channel=9, note=35, velocity=0, time=64),
    Message('note_on', channel=9, note=42, velocity=0, time=0),
    Message('note_on', channel=9, note=42, velocity=127, time=0),
    Message('note_on', channel=9, note=42, velocity=0, time=64),
    Message('note_on', channel=9, note=35, velocity=127, time=0),
    Message('note_on', channel=9, note=42, velocity=127, time=0),
    Message('note_on', channel=9, note=35, velocity=0, time=64),
    Message('note_on', channel=9, note=42, velocity=0, time=0),
    Message('note_on', channel=9, note=42, velocity=127, time=0),
    Message('note_on', channel=9, note=37, velocity=127, time=0),
    Message('note_on', channel=9, note=42, velocity=0, time=64),
    Message('note_on', channel=9, note=37, velocity=0, time=0),
    Message('note_on', channel=9, note=35, velocity=127, time=0),
    Message('note_on', channel=9, note=42, velocity=127, time=0),
    Message('note_on', channel=9, note=35, velocity=0, time=64),
    Message('note_on', channel=9, note=42, velocity=0, time=0),
    Message('note_on', channel=9, note=35, velocity=127, time=0),
    Message('note_on', channel=9, note=42, velocity=127, time=0),
    Message('note_on', channel=9, note=35, velocity=0, time=64),
    Message('note_on', channel=9, note=42, velocity=0, time=0),
    Message('note_on', channel=9, note=35, velocity=127, time=0),
    Message('note_on', channel=9, note=42, velocity=127, time=0),
    Message('note_on', channel=9, note=35, velocity=0, time=64),
    Message('note_on', channel=9, note=42, velocity=0, time=0),
    Message('note_on', channel=9, note=42, velocity=127, time=0),
    Message('note_on', channel=9, note=42, velocity=0, time=64),
    Message('note_on', channel=9, note=42, velocity=127, time=0),
    Message('note_on', channel=9, note=42, velocity=0, time=64),
    Message('note_on', channel=9, note=42, velocity=127, time=0),
    Message('note_on', channel=9, note=37, velocity=127, time=0),
    Message('note_on', channel=9, note=42, velocity=0, time=64),
    Message('note_on', channel=9, note=37, velocity=0, time=0),
    Message('note_on', channel=9, note=42, velocity=127, time=0),
    Message('note_on', channel=9, note=42, velocity=0, time=64),
    Message('note_on', channel=9, note=35, velocity=127, time=0),
    Message('note_on', channel=9, note=42, velocity=127, time=0),
    Message('note_on', channel=9, note=35, velocity=0, time=64),
    Message('note_on', channel=9, note=42, velocity=0, time=0),
    Message('note_on', channel=9, note=35, velocity=127, time=0),
    Message('note_on', channel=9, note=42, velocity=127, time=0),
    Message('note_on', channel=9, note=35, velocity=0, time=64),
    Message('note_on', channel=9, note=42, velocity=0, time=0),
    Message('note_on', channel=9, note=42, velocity=127, time=0),
    Message('note_on', channel=9, note=42, velocity=0, time=64),
    Message('note_on', channel=9, note=42, velocity=127, time=0),
    Message('note_on', channel=9, note=42, velocity=0, time=64),
    Message('note_on', channel=9, note=42, velocity=127, time=0),
    Message('note_on', channel=9, note=37, velocity=127, time=0),
    Message('note_on', channel=9, note=42, velocity=0, time=64),
    Message('note_on', channel=9, note=37, velocity=0, time=0),
    Message('note_on', channel=9, note=42, velocity=127, time=0),
    Message('note_on', channel=9, note=42, velocity=0, time=64),
    Message('note_on', channel=9, note=35, velocity=127, time=0),
    Message('note_on', channel=9, note=42, velocity=127, time=0),
    Message('note_on', channel=9, note=35, velocity=0, time=64),
    Message('note_on', channel=9, note=42, velocity=0, time=0),
    Message('note_on', channel=9, note=35, velocity=127, time=0),
    Message('note_on', channel=9, note=42, velocity=127, time=0),
    Message('note_on', channel=9, note=35, velocity=0, time=64),
    Message('note_on', channel=9, note=42, velocity=0, time=0),
    Message('note_on', channel=9, note=42, velocity=127, time=0),
    Message('note_on', channel=9, note=42, velocity=0, time=64),
    Message('note_on', channel=9, note=42, velocity=127, time=0),
    Message('note_on', channel=9, note=42, velocity=0, time=64),
    Message('note_on', channel=9, note=42, velocity=127, time=0),
    Message('note_on', channel=9, note=37, velocity=127, time=0),
    Message('note_on', channel=9, note=42, velocity=0, time=64),
    Message('note_on', channel=9, note=37, velocity=0, time=0),
    Message('note_on', channel=9, note=42, velocity=127, time=0),
    Message('note_on', channel=9, note=42, velocity=0, time=64),
    Message('note_on', channel=9, note=35, velocity=127, time=0),
    Message('note_on', channel=9, note=42, velocity=127, time=0),
    Message('note_on', channel=9, note=35, velocity=0, time=64),
    Message('note_on', channel=9, note=42, velocity=0, time=0),
    Message('note_on', channel=9, note=35, velocity=127, time=0),
    Message('note_on', channel=9, note=42, velocity=127, time=0),
    Message('note_on', channel=9, note=35, velocity=0, time=64),
    Message('note_on', channel=9, note=42, velocity=0, time=0),
    Message('note_on', channel=9, note=42, velocity=127, time=0),
    Message('note_on', channel=9, note=42, velocity=0, time=64),
    Message('note_on', channel=9, note=35, velocity=127, time=0),
    Message('note_on', channel=9, note=42, velocity=127, time=0),
    Message('note_on', channel=9, note=35, velocity=0, time=64),
    Message('note_on', channel=9, note=42, velocity=0, time=0),
    Message('note_on', channel=9, note=42, velocity=127, time=0),
    Message('note_on', channel=9, note=37, velocity=127, time=0),
    Message('note_on', channel=9, note=42, velocity=0, time=64),
    Message('note_on', channel=9, note=37, velocity=0, time=0),
    Message('note_on', channel=9, note=35, velocity=127, time=0),
    Message('note_on', channel=9, note=42, velocity=127, time=0),
    Message('note_on', channel=9, note=48, velocity=127, time=0),
    Message('note_on', channel=9, note=35, velocity=0, time=64),
    Message('note_on', channel=9, note=42, velocity=0, time=0),
    Message('note_on', channel=9, note=48, velocity=0, time=0),
    Message('note_on', channel=9, note=35, velocity=127, time=0),
    Message('note_on', channel=9, note=46, velocity=127, time=0),
    Message('note_on', channel=9, note=45, velocity=127, time=0),
    Message('note_on', channel=9, note=35, velocity=0, time=64),
    Message('note_on', channel=9, note=46, velocity=0, time=0),
    Message('note_on', channel=9, note=45, velocity=0, time=0),
    Message('note_on', channel=9, note=35, velocity=127, time=0),
    Message('note_on', channel=9, note=42, velocity=127, time=0),
    Message('note_on', channel=9, note=35, velocity=0, time=64),
    Message('note_on', channel=9, note=42, velocity=0, time=0),
    Message('note_on', channel=9, note=42, velocity=127, time=0),
    Message('note_on', channel=9, note=42, velocity=0, time=64),
    Message('note_on', channel=9, note=42, velocity=127, time=0),
    Message('note_on', channel=9, note=42, velocity=0, time=64),
    Message('note_on', channel=9, note=42, velocity=127, time=0),
    Message('note_on', channel=9, note=37, velocity=127, time=0),
    Message('note_on', channel=9, note=42, velocity=0, time=64),
    Message('note_on', channel=9, note=37, velocity=0, time=0),
    Message('note_on', channel=9, note=42, velocity=127, time=0),
    Message('note_on', channel=9, note=42, velocity=0, time=64),
    Message('note_on', channel=9, note=35, velocity=127, time=0),
    Message('note_on', channel=9, note=42, velocity=127, time=0),
    Message('note_on', channel=9, note=35, velocity=0, time=64),
    Message('note_on', channel=9, note=42, velocity=0, time=0),
    Message('note_on', channel=9, note=35, velocity=127, time=0),
    Message('note_on', channel=9, note=42, velocity=127, time=0),
    Message('note_on', channel=9, note=35, velocity=0, time=64),
    Message('note_on', channel=9, note=42, velocity=0, time=0),
    Message('note_on', channel=9, note=42, velocity=127, time=0),
    Message('note_on', channel=9, note=42, velocity=0, time=64),
    Message('note_on', channel=9, note=42, velocity=127, time=0),
    Message('note_on', channel=9, note=42, velocity=0, time=64),
    Message('note_on', channel=9, note=42, velocity=127, time=0),
    Message('note_on', channel=9, note=37, velocity=127, time=0),
    Message('note_on', channel=9, note=42, velocity=0, time=64),
    Message('note_on', channel=9, note=37, velocity=0, time=0),
    Message('note_on', channel=9, note=42, velocity=127, time=0),
    Message('note_on', channel=9, note=42, velocity=0, time=64),
    Message('note_on', channel=9, note=35, velocity=127, time=0),
    Message('note_on', channel=9, note=42, velocity=127, time=0),
    Message('note_on', channel=9, note=35, velocity=0, time=64),
    Message('note_on', channel=9, note=42, velocity=0, time=0),
    Message('note_on', channel=9, note=35, velocity=127, time=0),
    Message('note_on', channel=9, note=42, velocity=127, time=0),
    Message('note_on', channel=9, note=35, velocity=0, time=64),
    Message('note_on', channel=9, note=42, velocity=0, time=0),
    Message('note_on', channel=9, note=42, velocity=127, time=0),
    Message('note_on', channel=9, note=42, velocity=0, time=64),
    Message('note_on', channel=9, note=42, velocity=127, time=0),
    Message('note_on', channel=9, note=42, velocity=0, time=64),
    Message('note_on', channel=9, note=42, velocity=127, time=0),
    Message('note_on', channel=9, note=37, velocity=127, time=0),
    Message('note_on', channel=9, note=42, velocity=0, time=64),
    Message('note_on', channel=9, note=37, velocity=0, time=0),
    Message('note_on', channel=9, note=42, velocity=127, time=0),
    Message('note_on', channel=9, note=42, velocity=0, time=64),
    Message('note_on', channel=9, note=35, velocity=127, time=0),
    Message('note_on', channel=9, note=42, velocity=127, time=0),
    Message('note_on', channel=9, note=35, velocity=0, time=64),
    Message('note_on', channel=9, note=42, velocity=0, time=0),
    Message('note_on', channel=9, note=35, velocity=127, time=0),
    Message('note_on', channel=9, note=42, velocity=127, time=0),
    Message('note_on', channel=9, note=35, velocity=0, time=64),
    Message('note_on', channel=9, note=42, velocity=0, time=0),
    Message('note_on', channel=9, note=42, velocity=127, time=0),
    Message('note_on', channel=9, note=42, velocity=0, time=64),
    Message('note_on', channel=9, note=35, velocity=127, time=0),
    Message('note_on', channel=9, note=42, velocity=127, time=0),
    Message('note_on', channel=9, note=35, velocity=0, time=64),
    Message('note_on', channel=9, note=42, velocity=0, time=0),
    Message('note_on', channel=9, note=42, velocity=127, time=0),
    Message('note_on', channel=9, note=37, velocity=127, time=0),
    Message('note_on', channel=9, note=42, velocity=0, time=64),
    Message('note_on', channel=9, note=37, velocity=0, time=0),
    Message('note_on', channel=9, note=35, velocity=127, time=0),
    Message('note_on', channel=9, note=42, velocity=127, time=0),
    Message('note_on', channel=9, note=35, velocity=0, time=64),
    Message('note_on', channel=9, note=42, velocity=0, time=0),
    Message('note_on', channel=9, note=35, velocity=127, time=0),
    Message('note_on', channel=9, note=46, velocity=127, time=0),
    Message('note_on', channel=9, note=35, velocity=0, time=64),
    Message('note_on', channel=9, note=46, velocity=0, time=0),
    Message('note_on', channel=9, note=35, velocity=127, time=0),
    Message('note_on', channel=9, note=42, velocity=127, time=0),
    Message('note_on', channel=9, note=35, velocity=0, time=64),
    Message('note_on', channel=9, note=42, velocity=0, time=0),
    Message('note_on', channel=9, note=42, velocity=127, time=0),
    Message('note_on', channel=9, note=42, velocity=0, time=64),
    Message('note_on', channel=9, note=42, velocity=127, time=0),
    Message('note_on', channel=9, note=42, velocity=0, time=64),
    Message('note_on', channel=9, note=42, velocity=127, time=0),
    Message('note_on', channel=9, note=37, velocity=127, time=0),
    Message('note_on', channel=9, note=42, velocity=0, time=64),
    Message('note_on', channel=9, note=37, velocity=0, time=0),
    Message('note_on', channel=9, note=42, velocity=127, time=0),
    Message('note_on', channel=9, note=42, velocity=0, time=64),
    Message('note_on', channel=9, note=35, velocity=127, time=0),
    Message('note_on', channel=9, note=42, velocity=127, time=0),
    Message('note_on', channel=9, note=35, velocity=0, time=64),
    Message('note_on', channel=9, note=42, velocity=0, time=0),
    Message('note_on', channel=9, note=35, velocity=127, time=0),
    Message('note_on', channel=9, note=42, velocity=127, time=0),
    Message('note_on', channel=9, note=35, velocity=0, time=64),
    Message('note_on', channel=9, note=42, velocity=0, time=0),
    Message('note_on', channel=9, note=42, velocity=127, time=0),
    Message('note_on', channel=9, note=42, velocity=0, time=64),
    Message('note_on', channel=9, note=42, velocity=127, time=0),
    Message('note_on', channel=9, note=42, velocity=0, time=64),
    Message('note_on', channel=9, note=42, velocity=127, time=0),
    Message('note_on', channel=9, note=37, velocity=127, time=0),
    Message('note_on', channel=9, note=42, velocity=0, time=64),
    Message('note_on', channel=9, note=37, velocity=0, time=0),
    Message('note_on', channel=9, note=42, velocity=127, time=0),
    Message('note_on', channel=9, note=42, velocity=0, time=64),
    Message('note_on', channel=9, note=35, velocity=127, time=0),
    Message('note_on', channel=9, note=42, velocity=127, time=0),
    Message('note_on', channel=9, note=35, velocity=0, time=64),
    Message('note_on', channel=9, note=42, velocity=0, time=0),
    Message('note_on', channel=9, note=35, velocity=127, time=0),
    Message('note_on', channel=9, note=42, velocity=127, time=0),
    Message('note_on', channel=9, note=35, velocity=0, time=64),
    Message('note_on', channel=9, note=42, velocity=0, time=0),
    Message('note_on', channel=9, note=42, velocity=127, time=0),
    Message('note_on', channel=9, note=42, velocity=0, time=64),
    Message('note_on', channel=9, note=42, velocity=127, time=0),
    Message('note_on', channel=9, note=42, velocity=0, time=64),
    Message('note_on', channel=9, note=42, velocity=127, time=0),
    Message('note_on', channel=9, note=37, velocity=127, time=0),
    Message('note_on', channel=9, note=42, velocity=0, time=64),
    Message('note_on', channel=9, note=37, velocity=0, time=0),
    Message('note_on', channel=9, note=42, velocity=127, time=0),
    Message('note_on', channel=9, note=42, velocity=0, time=64),
    Message('note_on', channel=9, note=35, velocity=127, time=0),
    Message('note_on', channel=9, note=42, velocity=127, time=0),
    Message('note_on', channel=9, note=35, velocity=0, time=64),
    Message('note_on', channel=9, note=42, velocity=0, time=0),
    Message('note_on', channel=9, note=35, velocity=127, time=0),
    Message('note_on', channel=9, note=42, velocity=127, time=0),
    Message('note_on', channel=9, note=35, velocity=0, time=64),
    Message('note_on', channel=9, note=42, velocity=0, time=0),
    Message('note_on', channel=9, note=42, velocity=127, time=0),
    Message('note_on', channel=9, note=42, velocity=0, time=64),
    Message('note_on', channel=9, note=35, velocity=127, time=0),
    Message('note_on', channel=9, note=42, velocity=127, time=0),
    Message('note_on', channel=9, note=35, velocity=0, time=64),
    Message('note_on', channel=9, note=42, velocity=0, time=0),
    Message('note_on', channel=9, note=42, velocity=127, time=0),
    Message('note_on', channel=9, note=37, velocity=127, time=0),
    Message('note_on', channel=9, note=42, velocity=0, time=64),
    Message('note_on', channel=9, note=37, velocity=0, time=0),
    Message('note_on', channel=9, note=35, velocity=127, time=0),
    Message('note_on', channel=9, note=42, velocity=127, time=0),
    Message('note_on', channel=9, note=35, velocity=0, time=64),
    Message('note_on', channel=9, note=42, velocity=0, time=0),
    Message('note_on', channel=9, note=35, velocity=127, time=0),
    Message('note_on', channel=9, note=42, velocity=127, time=0),
    Message('note_on', channel=9, note=35, velocity=0, time=64),
    Message('note_on', channel=9, note=42, velocity=0, time=0),
    Message('note_on', channel=9, note=35, velocity=127, time=0),
    Message('note_on', channel=9, note=42, velocity=127, time=0),
    Message('note_on', channel=9, note=35, velocity=0, time=64),
    Message('note_on', channel=9, note=42, velocity=0, time=0),
    Message('note_on', channel=9, note=42, velocity=127, time=0),
    Message('note_on', channel=9, note=42, velocity=0, time=64),
    Message('note_on', channel=9, note=42, velocity=127, time=0),
    Message('note_on', channel=9, note=42, velocity=0, time=64),
    Message('note_on', channel=9, note=42, velocity=127, time=0),
    Message('note_on', channel=9, note=37, velocity=127, time=0),
    Message('note_on', channel=9, note=42, velocity=0, time=64),
    Message('note_on', channel=9, note=37, velocity=0, time=0),
    Message('note_on', channel=9, note=42, velocity=127, time=0),
    Message('note_on', channel=9, note=42, velocity=0, time=64),
    Message('note_on', channel=9, note=35, velocity=127, time=0),
    Message('note_on', channel=9, note=42, velocity=127, time=0),
    Message('note_on', channel=9, note=35, velocity=0, time=64),
    Message('note_on', channel=9, note=42, velocity=0, time=0),
    Message('note_on', channel=9, note=35, velocity=127, time=0),
    Message('note_on', channel=9, note=42, velocity=127, time=0),
    Message('note_on', channel=9, note=35, velocity=0, time=64),
    Message('note_on', channel=9, note=42, velocity=0, time=0),
    Message('note_on', channel=9, note=42, velocity=127, time=0),
    Message('note_on', channel=9, note=42, velocity=0, time=64),
    Message('note_on', channel=9, note=42, velocity=127, time=0),
    Message('note_on', channel=9, note=42, velocity=0, time=64),
    Message('note_on', channel=9, note=42, velocity=127, time=0),
    Message('note_on', channel=9, note=37, velocity=127, time=0),
    Message('note_on', channel=9, note=42, velocity=0, time=64),
    Message('note_on', channel=9, note=37, velocity=0, time=0),
    Message('note_on', channel=9, note=42, velocity=127, time=0),
    Message('note_on', channel=9, note=42, velocity=0, time=64),
    Message('note_on', channel=9, note=35, velocity=127, time=0),
    Message('note_on', channel=9, note=42, velocity=127, time=0),
    Message('note_on', channel=9, note=35, velocity=0, time=64),
    Message('note_on', channel=9, note=42, velocity=0, time=0),
    Message('note_on', channel=9, note=35, velocity=127, time=0),
    Message('note_on', channel=9, note=42, velocity=127, time=0),
    Message('note_on', channel=9, note=35, velocity=0, time=64),
    Message('note_on', channel=9, note=42, velocity=0, time=0),
    Message('note_on', channel=9, note=42, velocity=127, time=0),
    Message('note_on', channel=9, note=42, velocity=0, time=64),
    Message('note_on', channel=9, note=42, velocity=127, time=0),
    Message('note_on', channel=9, note=42, velocity=0, time=64),
    Message('note_on', channel=9, note=42, velocity=127, time=0),
    Message('note_on', channel=9, note=37, velocity=127, time=0),
    Message('note_on', channel=9, note=42, velocity=0, time=64),
    Message('note_on', channel=9, note=37, velocity=0, time=0),
    Message('note_on', channel=9, note=42, velocity=127, time=0),
    Message('note_on', channel=9, note=42, velocity=0, time=64),
    Message('note_on', channel=9, note=35, velocity=127, time=0),
    Message('note_on', channel=9, note=42, velocity=127, time=0),
    Message('note_on', channel=9, note=35, velocity=0, time=64),
    Message('note_on', channel=9, note=42, velocity=0, time=0),
    Message('note_on', channel=9, note=35, velocity=127, time=0),
    Message('note_on', channel=9, note=42, velocity=127, time=0),
    Message('note_on', channel=9, note=35, velocity=0, time=64),
    Message('note_on', channel=9, note=42, velocity=0, time=0),
    Message('note_on', channel=9, note=42, velocity=127, time=0),
    Message('note_on', channel=9, note=42, velocity=0, time=64),
    Message('note_on', channel=9, note=35, velocity=127, time=0),
    Message('note_on', channel=9, note=42, velocity=127, time=0),
    Message('note_on', channel=9, note=35, velocity=0, time=64),
    Message('note_on', channel=9, note=42, velocity=0, time=0),
    Message('note_on', channel=9, note=42, velocity=127, time=0),
    Message('note_on', channel=9, note=37, velocity=127, time=0),
    Message('note_on', channel=9, note=42, velocity=0, time=64),
    Message('note_on', channel=9, note=37, velocity=0, time=0),
    Message('note_on', channel=9, note=35, velocity=127, time=0),
    Message('note_on', channel=9, note=42, velocity=127, time=0),
    Message('note_on', channel=9, note=35, velocity=0, time=64),
    Message('note_on', channel=9, note=42, velocity=0, time=0),
    Message('note_on', channel=9, note=35, velocity=127, time=0),
    Message('note_on', channel=9, note=46, velocity=127, time=0),
    Message('note_on', channel=9, note=35, velocity=0, time=64),
    Message('note_on', channel=9, note=46, velocity=0, time=0),
    Message('note_on', channel=9, note=35, velocity=127, time=0),
    Message('note_on', channel=9, note=38, velocity=127, time=0),
    Message('note_on', channel=9, note=42, velocity=127, time=0),
    Message('note_on', channel=9, note=51, velocity=127, time=0),
    Message('note_on', channel=9, note=35, velocity=0, time=64),
    Message('note_on', channel=9, note=38, velocity=0, time=0),
    Message('note_on', channel=9, note=42, velocity=0, time=0),
    Message('note_on', channel=9, note=51, velocity=0, time=0),
    Message('note_on', channel=9, note=38, velocity=127, time=0),
    Message('note_on', channel=9, note=42, velocity=127, time=0),
    Message('note_on', channel=9, note=38, velocity=0, time=64),
    Message('note_on', channel=9, note=42, velocity=0, time=0),
    Message('note_on', channel=9, note=38, velocity=127, time=0),
    Message('note_on', channel=9, note=42, velocity=127, time=0),
    Message('note_on', channel=9, note=38, velocity=0, time=64),
    Message('note_on', channel=9, note=42, velocity=0, time=0),
    Message('note_on', channel=9, note=38, velocity=127, time=0),
    Message('note_on', channel=9, note=42, velocity=127, time=0),
    Message('note_on', channel=9, note=37, velocity=127, time=0),
    Message('note_on', channel=9, note=38, velocity=0, time=64),
    Message('note_on', channel=9, note=42, velocity=0, time=0),
    Message('note_on', channel=9, note=37, velocity=0, time=0),
    Message('note_on', channel=9, note=38, velocity=127, time=0),
    Message('note_on', channel=9, note=42, velocity=127, time=0),
    Message('note_on', channel=9, note=38, velocity=0, time=64),
    Message('note_on', channel=9, note=42, velocity=0, time=0),
    Message('note_on', channel=9, note=35, velocity=127, time=0),
    Message('note_on', channel=9, note=38, velocity=127, time=0),
    Message('note_on', channel=9, note=42, velocity=127, time=0),
    Message('note_on', channel=9, note=35, velocity=0, time=64),
    Message('note_on', channel=9, note=38, velocity=0, time=0),
    Message('note_on', channel=9, note=42, velocity=0, time=0),
    Message('note_on', channel=9, note=35, velocity=127, time=0),
    Message('note_on', channel=9, note=38, velocity=127, time=0),
    Message('note_on', channel=9, note=42, velocity=127, time=0),
    Message('note_on', channel=9, note=35, velocity=0, time=64),
    Message('note_on', channel=9, note=38, velocity=0, time=0),
    Message('note_on', channel=9, note=42, velocity=0, time=0),
    Message('note_on', channel=9, note=38, velocity=127, time=0),
    Message('note_on', channel=9, note=42, velocity=127, time=0),
    Message('note_on', channel=9, note=38, velocity=0, time=64),
    Message('note_on', channel=9, note=42, velocity=0, time=0),
    Message('note_on', channel=9, note=38, velocity=127, time=0),
    Message('note_on', channel=9, note=42, velocity=127, time=0),
    Message('note_on', channel=9, note=38, velocity=0, time=64),
    Message('note_on', channel=9, note=42, velocity=0, time=0),
    Message('note_on', channel=9, note=38, velocity=127, time=0),
    Message('note_on', channel=9, note=42, velocity=127, time=0),
    Message('note_on', channel=9, note=37, velocity=127, time=0),
    Message('note_on', channel=9, note=38, velocity=0, time=64),
    Message('note_on', channel=9, note=42, velocity=0, time=0),
    Message('note_on', channel=9, note=37, velocity=0, time=0),
    Message('note_on', channel=9, note=38, velocity=127, time=0),
    Message('note_on', channel=9, note=42, velocity=127, time=0),
    Message('note_on', channel=9, note=38, velocity=0, time=64),
    Message('note_on', channel=9, note=42, velocity=0, time=0),
    Message('note_on', channel=9, note=35, velocity=127, time=0),
    Message('note_on', channel=9, note=38, velocity=127, time=0),
    Message('note_on', channel=9, note=42, velocity=127, time=0),
    Message('note_on', channel=9, note=35, velocity=0, time=64),
    Message('note_on', channel=9, note=38, velocity=0, time=0),
    Message('note_on', channel=9, note=42, velocity=0, time=0),
    Message('note_on', channel=9, note=35, velocity=127, time=0),
    Message('note_on', channel=9, note=38, velocity=127, time=0),
    Message('note_on', channel=9, note=42, velocity=127, time=0),
    Message('note_on', channel=9, note=49, velocity=127, time=0),
    Message('note_on', channel=9, note=35, velocity=0, time=64),
    Message('note_on', channel=9, note=38, velocity=0, time=0),
    Message('note_on', channel=9, note=42, velocity=0, time=0),
    Message('note_on', channel=9, note=49, velocity=0, time=0),
    Message('note_on', channel=9, note=38, velocity=127, time=0),
    Message('note_on', channel=9, note=42, velocity=127, time=0),
    Message('note_on', channel=9, note=51, velocity=127, time=0),
    Message('note_on', channel=9, note=38, velocity=0, time=64),
    Message('note_on', channel=9, note=42, velocity=0, time=0),
    Message('note_on', channel=9, note=51, velocity=0, time=0),
    Message('note_on', channel=9, note=38, velocity=127, time=0),
    Message('note_on', channel=9, note=42, velocity=127, time=0),
    Message('note_on', channel=9, note=51, velocity=127, time=0),
    Message('note_on', channel=9, note=38, velocity=0, time=64),
    Message('note_on', channel=9, note=42, velocity=0, time=0),
    Message('note_on', channel=9, note=51, velocity=0, time=0),
    Message('note_on', channel=9, note=38, velocity=127, time=0),
    Message('note_on', channel=9, note=42, velocity=127, time=0),
    Message('note_on', channel=9, note=49, velocity=127, time=0),
    Message('note_on', channel=9, note=38, velocity=0, time=64),
    Message('note_on', channel=9, note=42, velocity=0, time=0),
    Message('note_on', channel=9, note=49, velocity=0, time=0),
    Message('note_on', channel=9, note=38, velocity=127, time=0),
    Message('note_on', channel=9, note=42, velocity=127, time=0),
    Message('note_on', channel=9, note=51, velocity=127, time=0),
    Message('note_on', channel=9, note=38, velocity=0, time=64),
    Message('note_on', channel=9, note=42, velocity=0, time=0),
    Message('note_on', channel=9, note=51, velocity=0, time=0),
    Message('note_on', channel=9, note=35, velocity=127, time=0),
    Message('note_on', channel=9, note=38, velocity=127, time=0),
    Message('note_on', channel=9, note=42, velocity=127, time=0),
    Message('note_on', channel=9, note=51, velocity=127, time=0),
    Message('note_on', channel=9, note=35, velocity=0, time=64),
    Message('note_on', channel=9, note=38, velocity=0, time=0),
    Message('note_on', channel=9, note=42, velocity=0, time=0),
    Message('note_on', channel=9, note=51, velocity=0, time=0),
    Message('note_on', channel=9, note=35, velocity=127, time=0),
    Message('note_on', channel=9, note=38, velocity=127, time=0),
    Message('note_on', channel=9, note=42, velocity=127, time=0),
    Message('note_on', channel=9, note=49, velocity=127, time=0),
    Message('note_on', channel=9, note=35, velocity=0, time=64),
    Message('note_on', channel=9, note=38, velocity=0, time=0),
    Message('note_on', channel=9, note=42, velocity=0, time=0),
    Message('note_on', channel=9, note=49, velocity=0, time=0),
    Message('note_on', channel=9, note=38, velocity=127, time=0),
    Message('note_on', channel=9, note=42, velocity=127, time=0),
    Message('note_on', channel=9, note=51, velocity=127, time=0),
    Message('note_on', channel=9, note=38, velocity=0, time=64),
    Message('note_on', channel=9, note=42, velocity=0, time=0),
    Message('note_on', channel=9, note=51, velocity=0, time=0),
    Message('note_on', channel=9, note=38, velocity=127, time=0),
    Message('note_on', channel=9, note=42, velocity=127, time=0),
    Message('note_on', channel=9, note=51, velocity=127, time=0),
    Message('note_on', channel=9, note=38, velocity=0, time=64),
    Message('note_on', channel=9, note=42, velocity=0, time=0),
    Message('note_on', channel=9, note=51, velocity=0, time=0),
    Message('note_on', channel=9, note=38, velocity=127, time=0),
    Message('note_on', channel=9, note=42, velocity=127, time=0),
    Message('note_on', channel=9, note=49, velocity=127, time=0),
    Message('note_on', channel=9, note=48, velocity=127, time=0),
    Message('note_on', channel=9, note=38, velocity=0, time=64),
    Message('note_on', channel=9, note=42, velocity=0, time=0),
    Message('note_on', channel=9, note=49, velocity=0, time=0),
    Message('note_on', channel=9, note=48, velocity=0, time=0),
    Message('note_on', channel=9, note=38, velocity=127, time=0),
    Message('note_on', channel=9, note=42, velocity=127, time=0),
    Message('note_on', channel=9, note=51, velocity=127, time=0),
    Message('note_on', channel=9, note=45, velocity=127, time=0),
    Message('note_on', channel=9, note=38, velocity=0, time=64),
    Message('note_on', channel=9, note=42, velocity=0, time=0),
    Message('note_on', channel=9, note=51, velocity=0, time=0),
    Message('note_on', channel=9, note=45, velocity=0, time=0),
    Message('note_on', channel=9, note=35, velocity=127, time=0),
    Message('note_on', channel=9, note=38, velocity=127, time=0),
    Message('note_on', channel=9, note=42, velocity=127, time=0),
    Message('note_on', channel=9, note=51, velocity=127, time=0),
    Message('note_on', channel=9, note=41, velocity=127, time=0),
    Message('note_on', channel=9, note=35, velocity=0, time=64),
    Message('note_on', channel=9, note=38, velocity=0, time=0),
    Message('note_on', channel=9, note=42, velocity=0, time=0),
    Message('note_on', channel=9, note=51, velocity=0, time=0),
    Message('note_on', channel=9, note=41, velocity=0, time=0),
    Message('note_on', channel=9, note=35, velocity=127, time=0),
    Message('note_on', channel=9, note=42, velocity=127, time=0),
    Message('note_on', channel=9, note=49, velocity=127, time=0),
    Message('note_on', channel=9, note=41, velocity=127, time=0),
    Message('note_on', channel=9, note=35, velocity=0, time=64),
    Message('note_on', channel=9, note=42, velocity=0, time=0),
    Message('note_on', channel=9, note=49, velocity=0, time=0),
    Message('note_on', channel=9, note=41, velocity=0, time=0),
    Message('note_on', channel=9, note=42, velocity=127, time=0),
    Message('note_on', channel=9, note=42, velocity=0, time=64),
    Message('note_on', channel=9, note=42, velocity=127, time=0),
    Message('note_on', channel=9, note=42, velocity=0, time=64),
    Message('note_on', channel=9, note=38, velocity=127, time=0),
    Message('note_on', channel=9, note=42, velocity=127, time=0),
    Message('note_on', channel=9, note=37, velocity=127, time=0),
    Message('note_on', channel=9, note=38, velocity=0, time=64),
    Message('note_on', channel=9, note=42, velocity=0, time=0),
    Message('note_on', channel=9, note=37, velocity=0, time=0),
    Message('note_on', channel=9, note=42, velocity=127, time=0),
    Message('note_on', channel=9, note=42, velocity=0, time=64),
    Message('note_on', channel=9, note=35, velocity=127, time=0),
    Message('note_on', channel=9, note=42, velocity=127, time=0),
    Message('note_on', channel=9, note=35, velocity=0, time=64),
    Message('note_on', channel=9, note=42, velocity=0, time=0),
    Message('note_on', channel=9, note=35, velocity=127, time=0),
    Message('note_on', channel=9, note=42, velocity=127, time=0),
    Message('note_on', channel=9, note=35, velocity=0, time=64),
    Message('note_on', channel=9, note=42, velocity=0, time=0),
    Message('note_on', channel=9, note=42, velocity=127, time=0),
    Message('note_on', channel=9, note=42, velocity=0, time=64),
    Message('note_on', channel=9, note=42, velocity=127, time=0),
    Message('note_on', channel=9, note=42, velocity=0, time=64),
    Message('note_on', channel=9, note=42, velocity=127, time=0),
    Message('note_on', channel=9, note=37, velocity=127, time=0),
    Message('note_on', channel=9, note=42, velocity=0, time=64),
    Message('note_on', channel=9, note=37, velocity=0, time=0),
    Message('note_on', channel=9, note=42, velocity=127, time=0),
    Message('note_on', channel=9, note=42, velocity=0, time=64),
    Message('note_on', channel=9, note=35, velocity=127, time=0),
    Message('note_on', channel=9, note=42, velocity=127, time=0),
    Message('note_on', channel=9, note=35, velocity=0, time=64),
    Message('note_on', channel=9, note=42, velocity=0, time=0),
    Message('note_on', channel=9, note=35, velocity=127, time=0),
    Message('note_on', channel=9, note=42, velocity=127, time=0),
    Message('note_on', channel=9, note=35, velocity=0, time=64),
    Message('note_on', channel=9, note=42, velocity=0, time=0),
    Message('note_on', channel=9, note=42, velocity=127, time=0),
    Message('note_on', channel=9, note=42, velocity=0, time=64),
    Message('note_on', channel=9, note=42, velocity=127, time=0),
    Message('note_on', channel=9, note=42, velocity=0, time=64),
    Message('note_on', channel=9, note=42, velocity=127, time=0),
    Message('note_on', channel=9, note=37, velocity=127, time=0),
    Message('note_on', channel=9, note=42, velocity=0, time=64),
    Message('note_on', channel=9, note=37, velocity=0, time=0),
    Message('note_on', channel=9, note=42, velocity=127, time=0),
    Message('note_on', channel=9, note=42, velocity=0, time=64),
    Message('note_on', channel=9, note=35, velocity=127, time=0),
    Message('note_on', channel=9, note=42, velocity=127, time=0),
    Message('note_on', channel=9, note=35, velocity=0, time=64),
    Message('note_on', channel=9, note=42, velocity=0, time=0),
    Message('note_on', channel=9, note=35, velocity=127, time=0),
    Message('note_on', channel=9, note=42, velocity=127, time=0),
    Message('note_on', channel=9, note=35, velocity=0, time=64),
    Message('note_on', channel=9, note=42, velocity=0, time=0),
    Message('note_on', channel=9, note=42, velocity=127, time=0),
    Message('note_on', channel=9, note=42, velocity=0, time=64),
    Message('note_on', channel=9, note=35, velocity=127, time=0),
    Message('note_on', channel=9, note=42, velocity=127, time=0),
    Message('note_on', channel=9, note=35, velocity=0, time=64),
    Message('note_on', channel=9, note=42, velocity=0, time=0),
    Message('note_on', channel=9, note=42, velocity=127, time=0),
    Message('note_on', channel=9, note=37, velocity=127, time=0),
    Message('note_on', channel=9, note=42, velocity=0, time=64),
    Message('note_on', channel=9, note=37, velocity=0, time=0),
    Message('note_on', channel=9, note=35, velocity=127, time=0),
    Message('note_on', channel=9, note=42, velocity=127, time=0),
    Message('note_on', channel=9, note=35, velocity=0, time=64),
    Message('note_on', channel=9, note=42, velocity=0, time=0),
    Message('note_on', channel=9, note=35, velocity=127, time=0),
    Message('note_on', channel=9, note=46, velocity=127, time=0),
    Message('note_on', channel=9, note=35, velocity=0, time=64),
    Message('note_on', channel=9, note=46, velocity=0, time=0),
    Message('note_on', channel=9, note=35, velocity=127, time=0),
    Message('note_on', channel=9, note=42, velocity=127, time=0),
    Message('note_on', channel=9, note=35, velocity=0, time=64),
    Message('note_on', channel=9, note=42, velocity=0, time=0),
    Message('note_on', channel=9, note=42, velocity=127, time=0),
    Message('note_on', channel=9, note=42, velocity=0, time=64),
    Message('note_on', channel=9, note=42, velocity=127, time=0),
    Message('note_on', channel=9, note=42, velocity=0, time=64),
    Message('note_on', channel=9, note=42, velocity=127, time=0),
    Message('note_on', channel=9, note=37, velocity=127, time=0),
    Message('note_on', channel=9, note=42, velocity=0, time=64),
    Message('note_on', channel=9, note=37, velocity=0, time=0),
    Message('note_on', channel=9, note=42, velocity=127, time=0),
    Message('note_on', channel=9, note=42, velocity=0, time=64),
    Message('note_on', channel=9, note=35, velocity=127, time=0),
    Message('note_on', channel=9, note=42, velocity=127, time=0),
    Message('note_on', channel=9, note=35, velocity=0, time=64),
    Message('note_on', channel=9, note=42, velocity=0, time=0),
    Message('note_on', channel=9, note=35, velocity=127, time=0),
    Message('note_on', channel=9, note=42, velocity=127, time=0),
    Message('note_on', channel=9, note=35, velocity=0, time=64),
    Message('note_on', channel=9, note=42, velocity=0, time=0),
    Message('note_on', channel=9, note=42, velocity=127, time=0),
    Message('note_on', channel=9, note=42, velocity=0, time=64),
    Message('note_on', channel=9, note=42, velocity=127, time=0),
    Message('note_on', channel=9, note=42, velocity=0, time=64),
    Message('note_on', channel=9, note=42, velocity=127, time=0),
    Message('note_on', channel=9, note=37, velocity=127, time=0),
    Message('note_on', channel=9, note=42, velocity=0, time=64),
    Message('note_on', channel=9, note=37, velocity=0, time=0),
    Message('note_on', channel=9, note=42, velocity=127, time=0),
    Message('note_on', channel=9, note=42, velocity=0, time=64),
    Message('note_on', channel=9, note=35, velocity=127, time=0),
    Message('note_on', channel=9, note=42, velocity=127, time=0),
    Message('note_on', channel=9, note=35, velocity=0, time=64),
    Message('note_on', channel=9, note=42, velocity=0, time=0),
    Message('note_on', channel=9, note=35, velocity=127, time=0),
    Message('note_on', channel=9, note=42, velocity=127, time=0),
    Message('note_on', channel=9, note=35, velocity=0, time=64),
    Message('note_on', channel=9, note=42, velocity=0, time=0),
    Message('note_on', channel=9, note=42, velocity=127, time=0),
    Message('note_on', channel=9, note=42, velocity=0, time=64),
    Message('note_on', channel=9, note=42, velocity=127, time=0),
    Message('note_on', channel=9, note=42, velocity=0, time=64),
    Message('note_on', channel=9, note=42, velocity=127, time=0),
    Message('note_on', channel=9, note=37, velocity=127, time=0),
    Message('note_on', channel=9, note=42, velocity=0, time=64),
    Message('note_on', channel=9, note=37, velocity=0, time=0),
    Message('note_on', channel=9, note=42, velocity=127, time=0),
    Message('note_on', channel=9, note=42, velocity=0, time=64),
    Message('note_on', channel=9, note=35, velocity=127, time=0),
    Message('note_on', channel=9, note=42, velocity=127, time=0),
    Message('note_on', channel=9, note=35, velocity=0, time=64),
    Message('note_on', channel=9, note=42, velocity=0, time=0),
    Message('note_on', channel=9, note=35, velocity=127, time=0),
    Message('note_on', channel=9, note=42, velocity=127, time=0),
    Message('note_on', channel=9, note=35, velocity=0, time=64),
    Message('note_on', channel=9, note=42, velocity=0, time=0),
    Message('note_on', channel=9, note=42, velocity=127, time=0),
    Message('note_on', channel=9, note=42, velocity=0, time=64),
    Message('note_on', channel=9, note=35, velocity=127, time=0),
    Message('note_on', channel=9, note=42, velocity=127, time=0),
    Message('note_on', channel=9, note=35, velocity=0, time=64),
    Message('note_on', channel=9, note=42, velocity=0, time=0),
    Message('note_on', channel=9, note=42, velocity=127, time=0),
    Message('note_on', channel=9, note=37, velocity=127, time=0),
    Message('note_on', channel=9, note=42, velocity=0, time=64),
    Message('note_on', channel=9, note=37, velocity=0, time=0),
    Message('note_on', channel=9, note=35, velocity=127, time=0),
    Message('note_on', channel=9, note=42, velocity=127, time=0),
    Message('note_on', channel=9, note=48, velocity=127, time=0),
    Message('note_on', channel=9, note=35, velocity=0, time=64),
    Message('note_on', channel=9, note=42, velocity=0, time=0),
    Message('note_on', channel=9, note=48, velocity=0, time=0),
    Message('note_on', channel=9, note=35, velocity=127, time=0),
    Message('note_on', channel=9, note=42, velocity=127, time=0),
    Message('note_on', channel=9, note=45, velocity=127, time=0),
    Message('note_on', channel=9, note=35, velocity=0, time=64),
    Message('note_on', channel=9, note=42, velocity=0, time=0),
    Message('note_on', channel=9, note=45, velocity=0, time=0),
    Message('note_on', channel=9, note=35, velocity=127, time=0),
    Message('note_on', channel=9, note=42, velocity=127, time=0),
    Message('note_on', channel=9, note=35, velocity=0, time=64),
    Message('note_on', channel=9, note=42, velocity=0, time=0),
    Message('note_on', channel=9, note=42, velocity=127, time=0),
    Message('note_on', channel=9, note=42, velocity=0, time=64),
    Message('note_on', channel=9, note=42, velocity=127, time=0),
    Message('note_on', channel=9, note=42, velocity=0, time=64),
    Message('note_on', channel=9, note=42, velocity=127, time=0),
    Message('note_on', channel=9, note=37, velocity=127, time=0),
    Message('note_on', channel=9, note=42, velocity=0, time=64),
    Message('note_on', channel=9, note=37, velocity=0, time=0),
    Message('note_on', channel=9, note=42, velocity=127, time=0),
    Message('note_on', channel=9, note=42, velocity=0, time=64),
    Message('note_on', channel=9, note=35, velocity=127, time=0),
    Message('note_on', channel=9, note=42, velocity=127, time=0),
    Message('note_on', channel=9, note=35, velocity=0, time=64),
    Message('note_on', channel=9, note=42, velocity=0, time=0),
    Message('note_on', channel=9, note=35, velocity=127, time=0),
    Message('note_on', channel=9, note=42, velocity=127, time=0),
    Message('note_on', channel=9, note=35, velocity=0, time=64),
    Message('note_on', channel=9, note=42, velocity=0, time=0),
    Message('note_on', channel=9, note=42, velocity=127, time=0),
    Message('note_on', channel=9, note=42, velocity=0, time=64),
    Message('note_on', channel=9, note=42, velocity=127, time=0),
    Message('note_on', channel=9, note=42, velocity=0, time=64),
    Message('note_on', channel=9, note=42, velocity=127, time=0),
    Message('note_on', channel=9, note=37, velocity=127, time=0),
    Message('note_on', channel=9, note=42, velocity=0, time=64),
    Message('note_on', channel=9, note=37, velocity=0, time=0),
    Message('note_on', channel=9, note=42, velocity=127, time=0),
    Message('note_on', channel=9, note=42, velocity=0, time=64),
    Message('note_on', channel=9, note=35, velocity=127, time=0),
    Message('note_on', channel=9, note=42, velocity=127, time=0),
    Message('note_on', channel=9, note=35, velocity=0, time=64),
    Message('note_on', channel=9, note=42, velocity=0, time=0),
    Message('note_on', channel=9, note=35, velocity=127, time=0),
    Message('note_on', channel=9, note=42, velocity=127, time=0),
    Message('note_on', channel=9, note=35, velocity=0, time=64),
    Message('note_on', channel=9, note=42, velocity=0, time=0),
    Message('note_on', channel=9, note=42, velocity=127, time=0),
    Message('note_on', channel=9, note=42, velocity=0, time=64),
    Message('note_on', channel=9, note=42, velocity=127, time=0),
    Message('note_on', channel=9, note=42, velocity=0, time=64),
    Message('note_on', channel=9, note=42, velocity=127, time=0),
    Message('note_on', channel=9, note=37, velocity=127, time=0),
    Message('note_on', channel=9, note=42, velocity=0, time=64),
    Message('note_on', channel=9, note=37, velocity=0, time=0),
    Message('note_on', channel=9, note=42, velocity=127, time=0),
    Message('note_on', channel=9, note=42, velocity=0, time=64),
    Message('note_on', channel=9, note=35, velocity=127, time=0),
    Message('note_on', channel=9, note=42, velocity=127, time=0),
    Message('note_on', channel=9, note=35, velocity=0, time=64),
    Message('note_on', channel=9, note=42, velocity=0, time=0),
    Message('note_on', channel=9, note=35, velocity=127, time=0),
    Message('note_on', channel=9, note=42, velocity=127, time=0),
    Message('note_on', channel=9, note=35, velocity=0, time=64),
    Message('note_on', channel=9, note=42, velocity=0, time=0),
    Message('note_on', channel=9, note=42, velocity=127, time=0),
    Message('note_on', channel=9, note=42, velocity=0, time=64),
    Message('note_on', channel=9, note=35, velocity=127, time=0),
    Message('note_on', channel=9, note=42, velocity=127, time=0),
    Message('note_on', channel=9, note=35, velocity=0, time=64),
    Message('note_on', channel=9, note=42, velocity=0, time=0),
    Message('note_on', channel=9, note=42, velocity=127, time=0),
    Message('note_on', channel=9, note=37, velocity=127, time=0),
    Message('note_on', channel=9, note=42, velocity=0, time=64),
    Message('note_on', channel=9, note=37, velocity=0, time=0),
    Message('note_on', channel=9, note=35, velocity=127, time=0),
    Message('note_on', channel=9, note=42, velocity=127, time=0),
    Message('note_on', channel=9, note=35, velocity=0, time=64),
    Message('note_on', channel=9, note=42, velocity=0, time=0),
    Message('note_on', channel=9, note=35, velocity=127, time=0),
    Message('note_on', channel=9, note=42, velocity=127, time=0),
    Message('note_on', channel=9, note=35, velocity=0, time=64),
    Message('note_on', channel=9, note=42, velocity=0, time=0),
    Message('note_on', channel=9, note=35, velocity=127, time=0),
    Message('note_on', channel=9, note=42, velocity=127, time=0),
    Message('note_on', channel=9, note=35, velocity=0, time=64),
    Message('note_on', channel=9, note=42, velocity=0, time=0),
    Message('note_on', channel=9, note=42, velocity=127, time=0),
    Message('note_on', channel=9, note=42, velocity=0, time=64),
    Message('note_on', channel=9, note=42, velocity=127, time=0),
    Message('note_on', channel=9, note=42, velocity=0, time=64),
    Message('note_on', channel=9, note=42, velocity=127, time=0),
    Message('note_on', channel=9, note=37, velocity=127, time=0),
    Message('note_on', channel=9, note=42, velocity=0, time=64),
    Message('note_on', channel=9, note=37, velocity=0, time=0),
    Message('note_on', channel=9, note=42, velocity=127, time=0),
    Message('note_on', channel=9, note=42, velocity=0, time=64),
    Message('note_on', channel=9, note=35, velocity=127, time=0),
    Message('note_on', channel=9, note=42, velocity=127, time=0),
    Message('note_on', channel=9, note=35, velocity=0, time=64),
    Message('note_on', channel=9, note=42, velocity=0, time=0),
    Message('note_on', channel=9, note=35, velocity=127, time=0),
    Message('note_on', channel=9, note=42, velocity=127, time=0),
    Message('note_on', channel=9, note=35, velocity=0, time=64),
    Message('note_on', channel=9, note=42, velocity=0, time=0),
    Message('note_on', channel=9, note=42, velocity=127, time=0),
    Message('note_on', channel=9, note=42, velocity=0, time=64),
    Message('note_on', channel=9, note=42, velocity=127, time=0),
    Message('note_on', channel=9, note=42, velocity=0, time=64),
    Message('note_on', channel=9, note=42, velocity=127, time=0),
    Message('note_on', channel=9, note=37, velocity=127, time=0),
    Message('note_on', channel=9, note=42, velocity=0, time=64),
    Message('note_on', channel=9, note=37, velocity=0, time=0),
    Message('note_on', channel=9, note=42, velocity=127, time=0),
    Message('note_on', channel=9, note=42, velocity=0, time=64),
    Message('note_on', channel=9, note=35, velocity=127, time=0),
    Message('note_on', channel=9, note=42, velocity=127, time=0),
    Message('note_on', channel=9, note=35, velocity=0, time=64),
    Message('note_on', channel=9, note=42, velocity=0, time=0),
    Message('note_on', channel=9, note=35, velocity=127, time=0),
    Message('note_on', channel=9, note=42, velocity=127, time=0),
    Message('note_on', channel=9, note=35, velocity=0, time=64),
    Message('note_on', channel=9, note=42, velocity=0, time=0),
    Message('note_on', channel=9, note=42, velocity=127, time=0),
    Message('note_on', channel=9, note=42, velocity=0, time=64),
    Message('note_on', channel=9, note=42, velocity=127, time=0),
    Message('note_on', channel=9, note=42, velocity=0, time=64),
    Message('note_on', channel=9, note=42, velocity=127, time=0),
    Message('note_on', channel=9, note=37, velocity=127, time=0),
    Message('note_on', channel=9, note=42, velocity=0, time=64),
    Message('note_on', channel=9, note=37, velocity=0, time=0),
    Message('note_on', channel=9, note=42, velocity=127, time=0),
    Message('note_on', channel=9, note=42, velocity=0, time=64),
    Message('note_on', channel=9, note=35, velocity=127, time=0),
    Message('note_on', channel=9, note=42, velocity=127, time=0),
    Message('note_on', channel=9, note=35, velocity=0, time=64),
    Message('note_on', channel=9, note=42, velocity=0, time=0),
    Message('note_on', channel=9, note=35, velocity=127, time=0),
    Message('note_on', channel=9, note=42, velocity=127, time=0),
    Message('note_on', channel=9, note=35, velocity=0, time=64),
    Message('note_on', channel=9, note=42, velocity=0, time=0),
    Message('note_on', channel=9, note=42, velocity=127, time=0),
    Message('note_on', channel=9, note=42, velocity=0, time=64),
    Message('note_on', channel=9, note=35, velocity=127, time=0),
    Message('note_on', channel=9, note=42, velocity=127, time=0),
    Message('note_on', channel=9, note=35, velocity=0, time=64),
    Message('note_on', channel=9, note=42, velocity=0, time=0),
    Message('note_on', channel=9, note=42, velocity=127, time=0),
    Message('note_on', channel=9, note=37, velocity=127, time=0),
    Message('note_on', channel=9, note=42, velocity=0, time=64),
    Message('note_on', channel=9, note=37, velocity=0, time=0),
    Message('note_on', channel=9, note=35, velocity=127, time=0),
    Message('note_on', channel=9, note=42, velocity=127, time=0),
    Message('note_on', channel=9, note=48, velocity=127, time=0),
    Message('note_on', channel=9, note=35, velocity=0, time=64),
    Message('note_on', channel=9, note=42, velocity=0, time=0),
    Message('note_on', channel=9, note=48, velocity=0, time=0),
    Message('note_on', channel=9, note=35, velocity=127, time=0),
    Message('note_on', channel=9, note=46, velocity=127, time=0),
    Message('note_on', channel=9, note=45, velocity=127, time=0),
    Message('note_on', channel=9, note=35, velocity=0, time=64),
    Message('note_on', channel=9, note=46, velocity=0, time=0),
    Message('note_on', channel=9, note=45, velocity=0, time=0),
    Message('note_on', channel=9, note=35, velocity=127, time=0),
    Message('note_on', channel=9, note=42, velocity=127, time=0),
    Message('note_on', channel=9, note=35, velocity=0, time=64),
    Message('note_on', channel=9, note=42, velocity=0, time=0),
    Message('note_on', channel=9, note=42, velocity=127, time=0),
    Message('note_on', channel=9, note=42, velocity=0, time=64),
    Message('note_on', channel=9, note=42, velocity=127, time=0),
    Message('note_on', channel=9, note=42, velocity=0, time=64),
    Message('note_on', channel=9, note=42, velocity=127, time=0),
    Message('note_on', channel=9, note=37, velocity=127, time=0),
    Message('note_on', channel=9, note=42, velocity=0, time=64),
    Message('note_on', channel=9, note=37, velocity=0, time=0),
    Message('note_on', channel=9, note=42, velocity=127, time=0),
    Message('note_on', channel=9, note=42, velocity=0, time=64),
    Message('note_on', channel=9, note=35, velocity=127, time=0),
    Message('note_on', channel=9, note=42, velocity=127, time=0),
    Message('note_on', channel=9, note=35, velocity=0, time=64),
    Message('note_on', channel=9, note=42, velocity=0, time=0),
    Message('note_on', channel=9, note=35, velocity=127, time=0),
    Message('note_on', channel=9, note=42, velocity=127, time=0),
    Message('note_on', channel=9, note=35, velocity=0, time=64),
    Message('note_on', channel=9, note=42, velocity=0, time=0),
    Message('note_on', channel=9, note=42, velocity=127, time=0),
    Message('note_on', channel=9, note=42, velocity=0, time=64),
    Message('note_on', channel=9, note=42, velocity=127, time=0),
    Message('note_on', channel=9, note=42, velocity=0, time=64),
    Message('note_on', channel=9, note=42, velocity=127, time=0),
    Message('note_on', channel=9, note=37, velocity=127, time=0),
    Message('note_on', channel=9, note=42, velocity=0, time=64),
    Message('note_on', channel=9, note=37, velocity=0, time=0),
    Message('note_on', channel=9, note=42, velocity=127, time=0),
    Message('note_on', channel=9, note=42, velocity=0, time=64),
    Message('note_on', channel=9, note=35, velocity=127, time=0),
    Message('note_on', channel=9, note=42, velocity=127, time=0),
    Message('note_on', channel=9, note=35, velocity=0, time=64),
    Message('note_on', channel=9, note=42, velocity=0, time=0),
    Message('note_on', channel=9, note=35, velocity=127, time=0),
    Message('note_on', channel=9, note=42, velocity=127, time=0),
    Message('note_on', channel=9, note=35, velocity=0, time=64),
    Message('note_on', channel=9, note=42, velocity=0, time=0),
    Message('note_on', channel=9, note=42, velocity=127, time=0),
    Message('note_on', channel=9, note=42, velocity=0, time=64),
    Message('note_on', channel=9, note=42, velocity=127, time=0),
    Message('note_on', channel=9, note=42, velocity=0, time=64),
    Message('note_on', channel=9, note=42, velocity=127, time=0),
    Message('note_on', channel=9, note=37, velocity=127, time=0),
    Message('note_on', channel=9, note=42, velocity=0, time=64),
    Message('note_on', channel=9, note=37, velocity=0, time=0),
    Message('note_on', channel=9, note=42, velocity=127, time=0),
    Message('note_on', channel=9, note=42, velocity=0, time=64),
    Message('note_on', channel=9, note=35, velocity=127, time=0),
    Message('note_on', channel=9, note=42, velocity=127, time=0),
    Message('note_on', channel=9, note=35, velocity=0, time=64),
    Message('note_on', channel=9, note=42, velocity=0, time=0),
    Message('note_on', channel=9, note=35, velocity=127, time=0),
    Message('note_on', channel=9, note=42, velocity=127, time=0),
    Message('note_on', channel=9, note=35, velocity=0, time=64),
    Message('note_on', channel=9, note=42, velocity=0, time=0),
    Message('note_on', channel=9, note=42, velocity=127, time=0),
    Message('note_on', channel=9, note=42, velocity=0, time=64),
    Message('note_on', channel=9, note=35, velocity=127, time=0),
    Message('note_on', channel=9, note=42, velocity=127, time=0),
    Message('note_on', channel=9, note=35, velocity=0, time=64),
    Message('note_on', channel=9, note=42, velocity=0, time=0),
    Message('note_on', channel=9, note=42, velocity=127, time=0),
    Message('note_on', channel=9, note=37, velocity=127, time=0),
    Message('note_on', channel=9, note=42, velocity=0, time=64),
    Message('note_on', channel=9, note=37, velocity=0, time=0),
    Message('note_on', channel=9, note=35, velocity=127, time=0),
    Message('note_on', channel=9, note=42, velocity=127, time=0),
    Message('note_on', channel=9, note=35, velocity=0, time=64),
    Message('note_on', channel=9, note=42, velocity=0, time=0),
    Message('note_on', channel=9, note=35, velocity=127, time=0),
    Message('note_on', channel=9, note=42, velocity=127, time=0),
    Message('note_on', channel=9, note=35, velocity=0, time=64),
    Message('note_on', channel=9, note=42, velocity=0, time=0),
    Message('note_on', channel=9, note=35, velocity=127, time=0),
    Message('note_on', channel=9, note=42, velocity=127, time=0),
    Message('note_on', channel=9, note=35, velocity=0, time=64),
    Message('note_on', channel=9, note=42, velocity=0, time=0),
    Message('note_on', channel=9, note=42, velocity=127, time=0),
    Message('note_on', channel=9, note=42, velocity=0, time=64),
    Message('note_on', channel=9, note=42, velocity=127, time=0),
    Message('note_on', channel=9, note=42, velocity=0, time=64),
    Message('note_on', channel=9, note=42, velocity=127, time=0),
    Message('note_on', channel=9, note=37, velocity=127, time=0),
    Message('note_on', channel=9, note=42, velocity=0, time=64),
    Message('note_on', channel=9, note=37, velocity=0, time=0),
    Message('note_on', channel=9, note=42, velocity=127, time=0),
    Message('note_on', channel=9, note=42, velocity=0, time=64),
    Message('note_on', channel=9, note=35, velocity=127, time=0),
    Message('note_on', channel=9, note=42, velocity=127, time=0),
    Message('note_on', channel=9, note=35, velocity=0, time=64),
    Message('note_on', channel=9, note=42, velocity=0, time=0),
    Message('note_on', channel=9, note=35, velocity=127, time=0),
    Message('note_on', channel=9, note=42, velocity=127, time=0),
    Message('note_on', channel=9, note=35, velocity=0, time=64),
    Message('note_on', channel=9, note=42, velocity=0, time=0),
    Message('note_on', channel=9, note=42, velocity=127, time=0),
    Message('note_on', channel=9, note=42, velocity=0, time=64),
    Message('note_on', channel=9, note=42, velocity=127, time=0),
    Message('note_on', channel=9, note=42, velocity=0, time=64),
    Message('note_on', channel=9, note=42, velocity=127, time=0),
    Message('note_on', channel=9, note=37, velocity=127, time=0),
    Message('note_on', channel=9, note=42, velocity=0, time=64),
    Message('note_on', channel=9, note=37, velocity=0, time=0),
    Message('note_on', channel=9, note=42, velocity=127, time=0),
    Message('note_on', channel=9, note=42, velocity=0, time=64),
    Message('note_on', channel=9, note=35, velocity=127, time=0),
    Message('note_on', channel=9, note=42, velocity=127, time=0),
    Message('note_on', channel=9, note=35, velocity=0, time=64),
    Message('note_on', channel=9, note=42, velocity=0, time=0),
    Message('note_on', channel=9, note=35, velocity=127, time=0),
    Message('note_on', channel=9, note=42, velocity=127, time=0),
    Message('note_on', channel=9, note=35, velocity=0, time=64),
    Message('note_on', channel=9, note=42, velocity=0, time=0),
    Message('note_on', channel=9, note=42, velocity=127, time=0),
    Message('note_on', channel=9, note=42, velocity=0, time=64),
    Message('note_on', channel=9, note=42, velocity=127, time=0),
    Message('note_on', channel=9, note=42, velocity=0, time=64),
    Message('note_on', channel=9, note=42, velocity=127, time=0),
    Message('note_on', channel=9, note=37, velocity=127, time=0),
    Message('note_on', channel=9, note=42, velocity=0, time=64),
    Message('note_on', channel=9, note=37, velocity=0, time=0),
    Message('note_on', channel=9, note=42, velocity=127, time=0),
    Message('note_on', channel=9, note=42, velocity=0, time=64),
    Message('note_on', channel=9, note=35, velocity=127, time=0),
    Message('note_on', channel=9, note=42, velocity=127, time=0),
    Message('note_on', channel=9, note=35, velocity=0, time=64),
    Message('note_on', channel=9, note=42, velocity=0, time=0),
    Message('note_on', channel=9, note=35, velocity=127, time=0),
    Message('note_on', channel=9, note=42, velocity=127, time=0),
    Message('note_on', channel=9, note=35, velocity=0, time=64),
    Message('note_on', channel=9, note=42, velocity=0, time=0),
    Message('note_on', channel=9, note=42, velocity=127, time=0),
    Message('note_on', channel=9, note=42, velocity=0, time=64),
    Message('note_on', channel=9, note=35, velocity=127, time=0),
    Message('note_on', channel=9, note=42, velocity=127, time=0),
    Message('note_on', channel=9, note=35, velocity=0, time=64),
    Message('note_on', channel=9, note=42, velocity=0, time=0),
    Message('note_on', channel=9, note=42, velocity=127, time=0),
    Message('note_on', channel=9, note=37, velocity=127, time=0),
    Message('note_on', channel=9, note=42, velocity=0, time=64),
    Message('note_on', channel=9, note=37, velocity=0, time=0),
    Message('note_on', channel=9, note=35, velocity=127, time=0),
    Message('note_on', channel=9, note=42, velocity=127, time=0),
    Message('note_on', channel=9, note=35, velocity=0, time=64),
    Message('note_on', channel=9, note=42, velocity=0, time=0),
    Message('note_on', channel=9, note=35, velocity=127, time=0),
    Message('note_on', channel=9, note=42, velocity=127, time=0),
    Message('note_on', channel=9, note=35, velocity=0, time=64),
    Message('note_on', channel=9, note=42, velocity=0, time=0),
    Message('note_on', channel=9, note=35, velocity=127, time=0),
    Message('note_on', channel=9, note=42, velocity=127, time=0),
    Message('note_on', channel=9, note=35, velocity=0, time=64),
    Message('note_on', channel=9, note=42, velocity=0, time=0),
    Message('note_on', channel=9, note=42, velocity=127, time=0),
    Message('note_on', channel=9, note=42, velocity=0, time=64),
    Message('note_on', channel=9, note=42, velocity=127, time=0),
    Message('note_on', channel=9, note=42, velocity=0, time=64),
    Message('note_on', channel=9, note=42, velocity=127, time=0),
    Message('note_on', channel=9, note=37, velocity=127, time=0),
    Message('note_on', channel=9, note=42, velocity=0, time=64),
    Message('note_on', channel=9, note=37, velocity=0, time=0),
    Message('note_on', channel=9, note=42, velocity=127, time=0),
    Message('note_on', channel=9, note=42, velocity=0, time=64),
    Message('note_on', channel=9, note=35, velocity=127, time=0),
    Message('note_on', channel=9, note=42, velocity=127, time=0),
    Message('note_on', channel=9, note=35, velocity=0, time=64),
    Message('note_on', channel=9, note=42, velocity=0, time=0),
    Message('note_on', channel=9, note=35, velocity=127, time=0),
    Message('note_on', channel=9, note=42, velocity=127, time=0),
    Message('note_on', channel=9, note=35, velocity=0, time=64),
    Message('note_on', channel=9, note=42, velocity=0, time=0),
    Message('note_on', channel=9, note=42, velocity=127, time=0),
    Message('note_on', channel=9, note=42, velocity=0, time=64),
    Message('note_on', channel=9, note=42, velocity=127, time=0),
    Message('note_on', channel=9, note=42, velocity=0, time=64),
    Message('note_on', channel=9, note=42, velocity=127, time=0),
    Message('note_on', channel=9, note=37, velocity=127, time=0),
    Message('note_on', channel=9, note=42, velocity=0, time=64),
    Message('note_on', channel=9, note=37, velocity=0, time=0),
    Message('note_on', channel=9, note=42, velocity=127, time=0),
    Message('note_on', channel=9, note=42, velocity=0, time=64),
    Message('note_on', channel=9, note=35, velocity=127, time=0),
    Message('note_on', channel=9, note=42, velocity=127, time=0),
    Message('note_on', channel=9, note=35, velocity=0, time=64),
    Message('note_on', channel=9, note=42, velocity=0, time=0),
    Message('note_on', channel=9, note=35, velocity=127, time=0),
    Message('note_on', channel=9, note=42, velocity=127, time=0),
    Message('note_on', channel=9, note=35, velocity=0, time=64),
    Message('note_on', channel=9, note=42, velocity=0, time=0),
    Message('note_on', channel=9, note=42, velocity=127, time=0),
    Message('note_on', channel=9, note=42, velocity=0, time=64),
    Message('note_on', channel=9, note=42, velocity=127, time=0),
    Message('note_on', channel=9, note=42, velocity=0, time=64),
    Message('note_on', channel=9, note=42, velocity=127, time=0),
    Message('note_on', channel=9, note=37, velocity=127, time=0),
    Message('note_on', channel=9, note=42, velocity=0, time=64),
    Message('note_on', channel=9, note=37, velocity=0, time=0),
    Message('note_on', channel=9, note=42, velocity=127, time=0),
    Message('note_on', channel=9, note=42, velocity=0, time=64),
    Message('note_on', channel=9, note=35, velocity=127, time=0),
    Message('note_on', channel=9, note=42, velocity=127, time=0),
    Message('note_on', channel=9, note=35, velocity=0, time=64),
    Message('note_on', channel=9, note=42, velocity=0, time=0),
    Message('note_on', channel=9, note=35, velocity=127, time=0),
    Message('note_on', channel=9, note=42, velocity=127, time=0),
    Message('note_on', channel=9, note=35, velocity=0, time=64),
    Message('note_on', channel=9, note=42, velocity=0, time=0),
    Message('note_on', channel=9, note=42, velocity=127, time=0),
    Message('note_on', channel=9, note=42, velocity=0, time=64),
    Message('note_on', channel=9, note=35, velocity=127, time=0),
    Message('note_on', channel=9, note=42, velocity=127, time=0),
    Message('note_on', channel=9, note=35, velocity=0, time=64),
    Message('note_on', channel=9, note=42, velocity=0, time=0),
    Message('note_on', channel=9, note=42, velocity=127, time=0),
    Message('note_on', channel=9, note=37, velocity=127, time=0),
    Message('note_on', channel=9, note=42, velocity=0, time=64),
    Message('note_on', channel=9, note=37, velocity=0, time=0),
    Message('note_on', channel=9, note=35, velocity=127, time=0),
    Message('note_on', channel=9, note=42, velocity=127, time=0),
    Message('note_on', channel=9, note=35, velocity=0, time=64),
    Message('note_on', channel=9, note=42, velocity=0, time=0),
    Message('note_on', channel=9, note=35, velocity=127, time=0),
    Message('note_on', channel=9, note=42, velocity=127, time=0),
    Message('note_on', channel=9, note=35, velocity=0, time=64),
    Message('note_on', channel=9, note=42, velocity=0, time=0),
    Message('note_on', channel=9, note=35, velocity=127, time=0),
    Message('note_on', channel=9, note=38, velocity=127, time=0),
    Message('note_on', channel=9, note=42, velocity=127, time=0),
    Message('note_on', channel=9, note=51, velocity=127, time=0),
    Message('note_on', channel=9, note=35, velocity=0, time=64),
    Message('note_on', channel=9, note=38, velocity=0, time=0),
    Message('note_on', channel=9, note=42, velocity=0, time=0),
    Message('note_on', channel=9, note=51, velocity=0, time=0),
    Message('note_on', channel=9, note=38, velocity=127, time=0),
    Message('note_on', channel=9, note=42, velocity=127, time=0),
    Message('note_on', channel=9, note=38, velocity=0, time=64),
    Message('note_on', channel=9, note=42, velocity=0, time=0),
    Message('note_on', channel=9, note=38, velocity=127, time=0),
    Message('note_on', channel=9, note=42, velocity=127, time=0),
    Message('note_on', channel=9, note=38, velocity=0, time=64),
    Message('note_on', channel=9, note=42, velocity=0, time=0),
    Message('note_on', channel=9, note=38, velocity=127, time=0),
    Message('note_on', channel=9, note=42, velocity=127, time=0),
    Message('note_on', channel=9, note=37, velocity=127, time=0),
    Message('note_on', channel=9, note=38, velocity=0, time=64),
    Message('note_on', channel=9, note=42, velocity=0, time=0),
    Message('note_on', channel=9, note=37, velocity=0, time=0),
    Message('note_on', channel=9, note=38, velocity=127, time=0),
    Message('note_on', channel=9, note=42, velocity=127, time=0),
    Message('note_on', channel=9, note=38, velocity=0, time=64),
    Message('note_on', channel=9, note=42, velocity=0, time=0),
    Message('note_on', channel=9, note=35, velocity=127, time=0),
    Message('note_on', channel=9, note=38, velocity=127, time=0),
    Message('note_on', channel=9, note=42, velocity=127, time=0),
    Message('note_on', channel=9, note=35, velocity=0, time=64),
    Message('note_on', channel=9, note=38, velocity=0, time=0),
    Message('note_on', channel=9, note=42, velocity=0, time=0),
    Message('note_on', channel=9, note=35, velocity=127, time=0),
    Message('note_on', channel=9, note=38, velocity=127, time=0),
    Message('note_on', channel=9, note=42, velocity=127, time=0),
    Message('note_on', channel=9, note=35, velocity=0, time=64),
    Message('note_on', channel=9, note=38, velocity=0, time=0),
    Message('note_on', channel=9, note=42, velocity=0, time=0),
    Message('note_on', channel=9, note=38, velocity=127, time=0),
    Message('note_on', channel=9, note=42, velocity=127, time=0),
    Message('note_on', channel=9, note=38, velocity=0, time=64),
    Message('note_on', channel=9, note=42, velocity=0, time=0),
    Message('note_on', channel=9, note=38, velocity=127, time=0),
    Message('note_on', channel=9, note=42, velocity=127, time=0),
    Message('note_on', channel=9, note=38, velocity=0, time=64),
    Message('note_on', channel=9, note=42, velocity=0, time=0),
    Message('note_on', channel=9, note=38, velocity=127, time=0),
    Message('note_on', channel=9, note=42, velocity=127, time=0),
    Message('note_on', channel=9, note=37, velocity=127, time=0),
    Message('note_on', channel=9, note=38, velocity=0, time=64),
    Message('note_on', channel=9, note=42, velocity=0, time=0),
    Message('note_on', channel=9, note=37, velocity=0, time=0),
    Message('note_on', channel=9, note=38, velocity=127, time=0),
    Message('note_on', channel=9, note=42, velocity=127, time=0),
    Message('note_on', channel=9, note=38, velocity=0, time=64),
    Message('note_on', channel=9, note=42, velocity=0, time=0),
    Message('note_on', channel=9, note=35, velocity=127, time=0),
    Message('note_on', channel=9, note=38, velocity=127, time=0),
    Message('note_on', channel=9, note=42, velocity=127, time=0),
    Message('note_on', channel=9, note=35, velocity=0, time=64),
    Message('note_on', channel=9, note=38, velocity=0, time=0),
    Message('note_on', channel=9, note=42, velocity=0, time=0),
    Message('note_on', channel=9, note=35, velocity=127, time=0),
    Message('note_on', channel=9, note=38, velocity=127, time=0),
    Message('note_on', channel=9, note=42, velocity=127, time=0),
    Message('note_on', channel=9, note=49, velocity=127, time=0),
    Message('note_on', channel=9, note=35, velocity=0, time=64),
    Message('note_on', channel=9, note=38, velocity=0, time=0),
    Message('note_on', channel=9, note=42, velocity=0, time=0),
    Message('note_on', channel=9, note=49, velocity=0, time=0),
    Message('note_on', channel=9, note=38, velocity=127, time=0),
    Message('note_on', channel=9, note=42, velocity=127, time=0),
    Message('note_on', channel=9, note=51, velocity=127, time=0),
    Message('note_on', channel=9, note=38, velocity=0, time=64),
    Message('note_on', channel=9, note=42, velocity=0, time=0),
    Message('note_on', channel=9, note=51, velocity=0, time=0),
    Message('note_on', channel=9, note=38, velocity=127, time=0),
    Message('note_on', channel=9, note=42, velocity=127, time=0),
    Message('note_on', channel=9, note=51, velocity=127, time=0),
    Message('note_on', channel=9, note=38, velocity=0, time=64),
    Message('note_on', channel=9, note=42, velocity=0, time=0),
    Message('note_on', channel=9, note=51, velocity=0, time=0),
    Message('note_on', channel=9, note=42, velocity=127, time=0),
    Message('note_on', channel=9, note=49, velocity=127, time=0),
    Message('note_on', channel=9, note=48, velocity=127, time=0),
    Message('note_on', channel=9, note=42, velocity=0, time=64),
    Message('note_on', channel=9, note=49, velocity=0, time=0),
    Message('note_on', channel=9, note=48, velocity=0, time=0),
    Message('note_on', channel=9, note=42, velocity=127, time=0),
    Message('note_on', channel=9, note=51, velocity=127, time=0),
    Message('note_on', channel=9, note=48, velocity=127, time=0),
    Message('note_on', channel=9, note=42, velocity=0, time=64),
    Message('note_on', channel=9, note=51, velocity=0, time=0),
    Message('note_on', channel=9, note=48, velocity=0, time=0),
    Message('note_on', channel=9, note=35, velocity=127, time=0),
    Message('note_on', channel=9, note=42, velocity=127, time=0),
    Message('note_on', channel=9, note=51, velocity=127, time=0),
    Message('note_on', channel=9, note=48, velocity=127, time=0),
    Message('note_on', channel=9, note=35, velocity=0, time=64),
    Message('note_on', channel=9, note=42, velocity=0, time=0),
    Message('note_on', channel=9, note=51, velocity=0, time=0),
    Message('note_on', channel=9, note=48, velocity=0, time=0),
    Message('note_on', channel=9, note=35, velocity=127, time=0),
    Message('note_on', channel=9, note=38, velocity=127, time=0),
    Message('note_on', channel=9, note=42, velocity=127, time=0),
    Message('note_on', channel=9, note=49, velocity=127, time=0),
    Message('note_on', channel=9, note=45, velocity=127, time=0),
    Message('note_on', channel=9, note=35, velocity=0, time=64),
    Message('note_on', channel=9, note=38, velocity=0, time=0),
    Message('note_on', channel=9, note=42, velocity=0, time=0),
    Message('note_on', channel=9, note=49, velocity=0, time=0),
    Message('note_on', channel=9, note=45, velocity=0, time=0),
    Message('note_on', channel=9, note=42, velocity=127, time=0),
    Message('note_on', channel=9, note=51, velocity=127, time=0),
    Message('note_on', channel=9, note=45, velocity=127, time=0),
    Message('note_on', channel=9, note=42, velocity=0, time=64),
    Message('note_on', channel=9, note=51, velocity=0, time=0),
    Message('note_on', channel=9, note=45, velocity=0, time=0),
    Message('note_on', channel=9, note=35, velocity=127, time=0),
    Message('note_on', channel=9, note=42, velocity=127, time=0),
    Message('note_on', channel=9, note=51, velocity=127, time=0),
    Message('note_on', channel=9, note=45, velocity=127, time=0),
    Message('note_on', channel=9, note=35, velocity=0, time=64),
    Message('note_on', channel=9, note=42, velocity=0, time=0),
    Message('note_on', channel=9, note=51, velocity=0, time=0),
    Message('note_on', channel=9, note=45, velocity=0, time=0),
    Message('note_on', channel=9, note=42, velocity=127, time=0),
    Message('note_on', channel=9, note=49, velocity=127, time=0),
    Message('note_on', channel=9, note=41, velocity=127, time=0),
    Message('note_on', channel=9, note=42, velocity=0, time=64),
    Message('note_on', channel=9, note=49, velocity=0, time=0),
    Message('note_on', channel=9, note=41, velocity=0, time=0),
    Message('note_on', channel=9, note=35, velocity=127, time=0),
    Message('note_on', channel=9, note=42, velocity=127, time=0),
    Message('note_on', channel=9, note=51, velocity=127, time=0),
    Message('note_on', channel=9, note=41, velocity=127, time=0),
    Message('note_on', channel=9, note=35, velocity=0, time=64),
    Message('note_on', channel=9, note=42, velocity=0, time=0),
    Message('note_on', channel=9, note=51, velocity=0, time=0),
    Message('note_on', channel=9, note=41, velocity=0, time=0),
    Message('note_on', channel=9, note=35, velocity=127, time=0),
    Message('note_on', channel=9, note=46, velocity=127, time=0),
    Message('note_on', channel=9, note=51, velocity=127, time=0),
    Message('note_on', channel=9, note=41, velocity=127, time=0),
    Message('note_on', channel=9, note=35, velocity=0, time=64),
    Message('note_on', channel=9, note=46, velocity=0, time=0),
    Message('note_on', channel=9, note=51, velocity=0, time=0),
    Message('note_on', channel=9, note=41, velocity=0, time=0),
    Message('note_on', channel=9, note=35, velocity=127, time=0),
    Message('note_on', channel=9, note=38, velocity=127, time=0),
    Message('note_on', channel=9, note=42, velocity=127, time=0),
    Message('note_on', channel=9, note=49, velocity=127, time=0),
    Message('note_on', channel=9, note=41, velocity=127, time=0),
    Message('note_on', channel=9, note=35, velocity=0, time=64),
    Message('note_on', channel=9, note=38, velocity=0, time=0),
    Message('note_on', channel=9, note=42, velocity=0, time=0),
    Message('note_on', channel=9, note=49, velocity=0, time=0),
    Message('note_on', channel=9, note=41, velocity=0, time=0),
    Message('note_on', channel=9, note=38, velocity=127, time=0),
    Message('note_on', channel=9, note=42, velocity=127, time=0),
    Message('note_on', channel=9, note=51, velocity=127, time=0),
    Message('note_on', channel=9, note=38, velocity=0, time=64),
    Message('note_on', channel=9, note=42, velocity=0, time=0),
    Message('note_on', channel=9, note=51, velocity=0, time=0),
    Message('note_on', channel=9, note=38, velocity=127, time=0),
    Message('note_on', channel=9, note=42, velocity=127, time=0),
    Message('note_on', channel=9, note=51, velocity=127, time=0),
    Message('note_on', channel=9, note=38, velocity=0, time=64),
    Message('note_on', channel=9, note=42, velocity=0, time=0),
    Message('note_on', channel=9, note=51, velocity=0, time=0),
    Message('note_on', channel=9, note=38, velocity=127, time=0),
    Message('note_on', channel=9, note=42, velocity=127, time=0),
    Message('note_on', channel=9, note=51, velocity=127, time=0),
    Message('note_on', channel=9, note=38, velocity=0, time=64),
    Message('note_on', channel=9, note=42, velocity=0, time=0),
    Message('note_on', channel=9, note=51, velocity=0, time=0),
    Message('note_on', channel=9, note=42, velocity=127, time=0),
    Message('note_on', channel=9, note=42, velocity=0, time=64),
    Message('note_on', channel=9, note=35, velocity=127, time=0),
    Message('note_on', channel=9, note=42, velocity=127, time=0),
    Message('note_on', channel=9, note=35, velocity=0, time=64),
    Message('note_on', channel=9, note=42, velocity=0, time=0),
    Message('note_on', channel=9, note=35, velocity=127, time=0),
    Message('note_on', channel=9, note=38, velocity=127, time=0),
    Message('note_on', channel=9, note=42, velocity=127, time=0),
    Message('note_on', channel=9, note=51, velocity=127, time=0),
    Message('note_on', channel=9, note=35, velocity=0, time=64),
    Message('note_on', channel=9, note=38, velocity=0, time=0),
    Message('note_on', channel=9, note=42, velocity=0, time=0),
    Message('note_on', channel=9, note=51, velocity=0, time=0),
    Message('note_on', channel=9, note=38, velocity=127, time=0),
    Message('note_on', channel=9, note=42, velocity=127, time=0),
    Message('note_on', channel=9, note=51, velocity=127, time=0),
    Message('note_on', channel=9, note=38, velocity=0, time=64),
    Message('note_on', channel=9, note=42, velocity=0, time=0),
    Message('note_on', channel=9, note=51, velocity=0, time=0),
    Message('note_on', channel=9, note=38, velocity=127, time=0),
    Message('note_on', channel=9, note=42, velocity=127, time=0),
    Message('note_on', channel=9, note=51, velocity=127, time=0),
    Message('note_on', channel=9, note=38, velocity=0, time=64),
    Message('note_on', channel=9, note=42, velocity=0, time=0),
    Message('note_on', channel=9, note=51, velocity=0, time=0),
    Message('note_on', channel=9, note=38, velocity=127, time=0),
    Message('note_on', channel=9, note=42, velocity=127, time=0),
    Message('note_on', channel=9, note=51, velocity=127, time=0),
    Message('note_on', channel=9, note=38, velocity=0, time=64),
    Message('note_on', channel=9, note=42, velocity=0, time=0),
    Message('note_on', channel=9, note=51, velocity=0, time=0),
    Message('note_on', channel=9, note=42, velocity=127, time=0),
    Message('note_on', channel=9, note=42, velocity=0, time=64),
    Message('note_on', channel=9, note=35, velocity=127, time=0),
    Message('note_on', channel=9, note=42, velocity=127, time=0),
    Message('note_on', channel=9, note=35, velocity=0, time=64),
    Message('note_on', channel=9, note=42, velocity=0, time=0),
    Message('note_on', channel=9, note=35, velocity=127, time=0),
    Message('note_on', channel=9, note=38, velocity=127, time=0),
    Message('note_on', channel=9, note=42, velocity=127, time=0),
    Message('note_on', channel=9, note=51, velocity=127, time=0),
    Message('note_on', channel=9, note=35, velocity=0, time=64),
    Message('note_on', channel=9, note=38, velocity=0, time=0),
    Message('note_on', channel=9, note=42, velocity=0, time=0),
    Message('note_on', channel=9, note=51, velocity=0, time=0),
    Message('note_on', channel=9, note=38, velocity=127, time=0),
    Message('note_on', channel=9, note=42, velocity=127, time=0),
    Message('note_on', channel=9, note=51, velocity=127, time=0),
    Message('note_on', channel=9, note=38, velocity=0, time=64),
    Message('note_on', channel=9, note=42, velocity=0, time=0),
    Message('note_on', channel=9, note=51, velocity=0, time=0),
    Message('note_on', channel=9, note=38, velocity=127, time=0),
    Message('note_on', channel=9, note=42, velocity=127, time=0),
    Message('note_on', channel=9, note=51, velocity=127, time=0),
    Message('note_on', channel=9, note=38, velocity=0, time=64),
    Message('note_on', channel=9, note=42, velocity=0, time=0),
    Message('note_on', channel=9, note=51, velocity=0, time=0),
    Message('note_on', channel=9, note=38, velocity=127, time=0),
    Message('note_on', channel=9, note=42, velocity=127, time=0),
    Message('note_on', channel=9, note=51, velocity=127, time=0),
    Message('note_on', channel=9, note=38, velocity=0, time=64),
    Message('note_on', channel=9, note=42, velocity=0, time=0),
    Message('note_on', channel=9, note=51, velocity=0, time=0),
    Message('note_on', channel=9, note=42, velocity=127, time=0),
    Message('note_on', channel=9, note=42, velocity=0, time=64),
    Message('note_on', channel=9, note=35, velocity=127, time=0),
    Message('note_on', channel=9, note=42, velocity=127, time=0),
    Message('note_on', channel=9, note=35, velocity=0, time=64),
    Message('note_on', channel=9, note=42, velocity=0, time=0),
    Message('note_on', channel=9, note=35, velocity=127, time=0),
    Message('note_on', channel=9, note=38, velocity=127, time=0),
    Message('note_on', channel=9, note=42, velocity=127, time=0),
    Message('note_on', channel=9, note=51, velocity=127, time=0),
    Message('note_on', channel=9, note=35, velocity=0, time=64),
    Message('note_on', channel=9, note=38, velocity=0, time=0),
    Message('note_on', channel=9, note=42, velocity=0, time=0),
    Message('note_on', channel=9, note=51, velocity=0, time=0),
    Message('note_on', channel=9, note=38, velocity=127, time=0),
    Message('note_on', channel=9, note=42, velocity=127, time=0),
    Message('note_on', channel=9, note=51, velocity=127, time=0),
    Message('note_on', channel=9, note=38, velocity=0, time=64),
    Message('note_on', channel=9, note=42, velocity=0, time=0),
    Message('note_on', channel=9, note=51, velocity=0, time=0),
    Message('note_on', channel=9, note=35, velocity=127, time=0),
    Message('note_on', channel=9, note=38, velocity=127, time=0),
    Message('note_on', channel=9, note=42, velocity=127, time=0),
    Message('note_on', channel=9, note=51, velocity=127, time=0),
    Message('note_on', channel=9, note=35, velocity=0, time=64),
    Message('note_on', channel=9, note=38, velocity=0, time=0),
    Message('note_on', channel=9, note=42, velocity=0, time=0),
    Message('note_on', channel=9, note=51, velocity=0, time=0),
    Message('note_on', channel=9, note=38, velocity=127, time=0),
    Message('note_on', channel=9, note=42, velocity=127, time=0),
    Message('note_on', channel=9, note=51, velocity=127, time=0),
    Message('note_on', channel=9, note=38, velocity=0, time=64),
    Message('note_on', channel=9, note=42, velocity=0, time=0),
    Message('note_on', channel=9, note=51, velocity=0, time=0),
    Message('note_on', channel=9, note=35, velocity=127, time=0),
    Message('note_on', channel=9, note=42, velocity=127, time=0),
    Message('note_on', channel=9, note=35, velocity=0, time=64),
    Message('note_on', channel=9, note=42, velocity=0, time=0),
    Message('note_on', channel=9, note=35, velocity=127, time=0),
    Message('note_on', channel=9, note=42, velocity=127, time=0),
    Message('note_on', channel=9, note=35, velocity=0, time=64),
    Message('note_on', channel=9, note=42, velocity=0, time=0),
    Message('note_on', channel=9, note=35, velocity=127, time=0),
    Message('note_on', channel=9, note=38, velocity=127, time=0),
    Message('note_on', channel=9, note=42, velocity=127, time=0),
    Message('note_on', channel=9, note=51, velocity=127, time=0),
    Message('note_on', channel=9, note=35, velocity=0, time=64),
    Message('note_on', channel=9, note=38, velocity=0, time=0),
    Message('note_on', channel=9, note=42, velocity=0, time=0),
    Message('note_on', channel=9, note=51, velocity=0, time=0),
    Message('note_on', channel=9, note=38, velocity=127, time=0),
    Message('note_on', channel=9, note=42, velocity=127, time=0),
    Message('note_on', channel=9, note=51, velocity=127, time=0),
    Message('note_on', channel=9, note=38, velocity=0, time=64),
    Message('note_on', channel=9, note=42, velocity=0, time=0),
    Message('note_on', channel=9, note=51, velocity=0, time=0),
    Message('note_on', channel=9, note=38, velocity=127, time=0),
    Message('note_on', channel=9, note=42, velocity=127, time=0),
    Message('note_on', channel=9, note=51, velocity=127, time=0),
    Message('note_on', channel=9, note=38, velocity=0, time=64),
    Message('note_on', channel=9, note=42, velocity=0, time=0),
    Message('note_on', channel=9, note=51, velocity=0, time=0),
    Message('note_on', channel=9, note=38, velocity=127, time=0),
    Message('note_on', channel=9, note=42, velocity=127, time=0),
    Message('note_on', channel=9, note=51, velocity=127, time=0),
    Message('note_on', channel=9, note=38, velocity=0, time=64),
    Message('note_on', channel=9, note=42, velocity=0, time=0),
    Message('note_on', channel=9, note=51, velocity=0, time=0),
    Message('note_on', channel=9, note=42, velocity=127, time=0),
    Message('note_on', channel=9, note=42, velocity=0, time=64),
    Message('note_on', channel=9, note=35, velocity=127, time=0),
    Message('note_on', channel=9, note=42, velocity=127, time=0),
    Message('note_on', channel=9, note=35, velocity=0, time=64),
    Message('note_on', channel=9, note=42, velocity=0, time=0),
    Message('note_on', channel=9, note=35, velocity=127, time=0),
    Message('note_on', channel=9, note=38, velocity=127, time=0),
    Message('note_on', channel=9, note=42, velocity=127, time=0),
    Message('note_on', channel=9, note=51, velocity=127, time=0),
    Message('note_on', channel=9, note=35, velocity=0, time=64),
    Message('note_on', channel=9, note=38, velocity=0, time=0),
    Message('note_on', channel=9, note=42, velocity=0, time=0),
    Message('note_on', channel=9, note=51, velocity=0, time=0),
    Message('note_on', channel=9, note=38, velocity=127, time=0),
    Message('note_on', channel=9, note=42, velocity=127, time=0),
    Message('note_on', channel=9, note=51, velocity=127, time=0),
    Message('note_on', channel=9, note=38, velocity=0, time=64),
    Message('note_on', channel=9, note=42, velocity=0, time=0),
    Message('note_on', channel=9, note=51, velocity=0, time=0),
    Message('note_on', channel=9, note=38, velocity=127, time=0),
    Message('note_on', channel=9, note=42, velocity=127, time=0),
    Message('note_on', channel=9, note=51, velocity=127, time=0),
    Message('note_on', channel=9, note=38, velocity=0, time=64),
    Message('note_on', channel=9, note=42, velocity=0, time=0),
    Message('note_on', channel=9, note=51, velocity=0, time=0),
    Message('note_on', channel=9, note=38, velocity=127, time=0),
    Message('note_on', channel=9, note=42, velocity=127, time=0),
    Message('note_on', channel=9, note=51, velocity=127, time=0),
    Message('note_on', channel=9, note=38, velocity=0, time=64),
    Message('note_on', channel=9, note=42, velocity=0, time=0),
    Message('note_on', channel=9, note=51, velocity=0, time=0),
    Message('note_on', channel=9, note=42, velocity=127, time=0),
    Message('note_on', channel=9, note=42, velocity=0, time=64),
    Message('note_on', channel=9, note=35, velocity=127, time=0),
    Message('note_on', channel=9, note=42, velocity=127, time=0),
    Message('note_on', channel=9, note=35, velocity=0, time=64),
    Message('note_on', channel=9, note=42, velocity=0, time=0),
    Message('note_on', channel=9, note=35, velocity=127, time=0),
    Message('note_on', channel=9, note=38, velocity=127, time=0),
    Message('note_on', channel=9, note=42, velocity=127, time=0),
    Message('note_on', channel=9, note=51, velocity=127, time=0),
    Message('note_on', channel=9, note=35, velocity=0, time=64),
    Message('note_on', channel=9, note=38, velocity=0, time=0),
    Message('note_on', channel=9, note=42, velocity=0, time=0),
    Message('note_on', channel=9, note=51, velocity=0, time=0),
    Message('note_on', channel=9, note=38, velocity=127, time=0),
    Message('note_on', channel=9, note=42, velocity=127, time=0),
    Message('note_on', channel=9, note=51, velocity=127, time=0),
    Message('note_on', channel=9, note=38, velocity=0, time=64),
    Message('note_on', channel=9, note=42, velocity=0, time=0),
    Message('note_on', channel=9, note=51, velocity=0, time=0),
    Message('note_on', channel=9, note=38, velocity=127, time=0),
    Message('note_on', channel=9, note=42, velocity=127, time=0),
    Message('note_on', channel=9, note=51, velocity=127, time=0),
    Message('note_on', channel=9, note=38, velocity=0, time=64),
    Message('note_on', channel=9, note=42, velocity=0, time=0),
    Message('note_on', channel=9, note=51, velocity=0, time=0),
    Message('note_on', channel=9, note=38, velocity=127, time=0),
    Message('note_on', channel=9, note=42, velocity=127, time=0),
    Message('note_on', channel=9, note=51, velocity=127, time=0),
    Message('note_on', channel=9, note=38, velocity=0, time=64),
    Message('note_on', channel=9, note=42, velocity=0, time=0),
    Message('note_on', channel=9, note=51, velocity=0, time=0),
    Message('note_on', channel=9, note=42, velocity=127, time=0),
    Message('note_on', channel=9, note=42, velocity=0, time=64),
    Message('note_on', channel=9, note=35, velocity=127, time=0),
    Message('note_on', channel=9, note=42, velocity=127, time=0),
    Message('note_on', channel=9, note=35, velocity=0, time=64),
    Message('note_on', channel=9, note=42, velocity=0, time=0),
    Message('note_on', channel=9, note=35, velocity=127, time=0),
    Message('note_on', channel=9, note=38, velocity=127, time=0),
    Message('note_on', channel=9, note=42, velocity=127, time=0),
    Message('note_on', channel=9, note=51, velocity=127, time=0),
    Message('note_on', channel=9, note=35, velocity=0, time=64),
    Message('note_on', channel=9, note=38, velocity=0, time=0),
    Message('note_on', channel=9, note=42, velocity=0, time=0),
    Message('note_on', channel=9, note=51, velocity=0, time=0),
    Message('note_on', channel=9, note=38, velocity=127, time=0),
    Message('note_on', channel=9, note=42, velocity=127, time=0),
    Message('note_on', channel=9, note=51, velocity=127, time=0),
    Message('note_on', channel=9, note=38, velocity=0, time=64),
    Message('note_on', channel=9, note=42, velocity=0, time=0),
    Message('note_on', channel=9, note=51, velocity=0, time=0),
    Message('note_on', channel=9, note=35, velocity=127, time=0),
    Message('note_on', channel=9, note=38, velocity=127, time=0),
    Message('note_on', channel=9, note=42, velocity=127, time=0),
    Message('note_on', channel=9, note=51, velocity=127, time=0),
    Message('note_on', channel=9, note=35, velocity=0, time=64),
    Message('note_on', channel=9, note=38, velocity=0, time=0),
    Message('note_on', channel=9, note=42, velocity=0, time=0),
    Message('note_on', channel=9, note=51, velocity=0, time=0),
    Message('note_on', channel=9, note=38, velocity=127, time=0),
    Message('note_on', channel=9, note=42, velocity=127, time=0),
    Message('note_on', channel=9, note=51, velocity=127, time=0),
    Message('note_on', channel=9, note=38, velocity=0, time=64),
    Message('note_on', channel=9, note=42, velocity=0, time=0),
    Message('note_on', channel=9, note=51, velocity=0, time=0),
    Message('note_on', channel=9, note=35, velocity=127, time=0),
    Message('note_on', channel=9, note=42, velocity=127, time=0),
    Message('note_on', channel=9, note=35, velocity=0, time=64),
    Message('note_on', channel=9, note=42, velocity=0, time=0),
    Message('note_on', channel=9, note=35, velocity=127, time=0),
    Message('note_on', channel=9, note=46, velocity=127, time=0),
    Message('note_on', channel=9, note=35, velocity=0, time=64),
    Message('note_on', channel=9, note=46, velocity=0, time=0),
    Message('note_on', channel=9, note=35, velocity=127, time=0),
    Message('note_on', channel=9, note=38, velocity=127, time=0),
    Message('note_on', channel=9, note=42, velocity=127, time=0),
    Message('note_on', channel=9, note=51, velocity=127, time=0),
    Message('note_on', channel=9, note=35, velocity=0, time=64),
    Message('note_on', channel=9, note=38, velocity=0, time=0),
    Message('note_on', channel=9, note=42, velocity=0, time=0),
    Message('note_on', channel=9, note=51, velocity=0, time=0),
    Message('note_on', channel=9, note=38, velocity=127, time=0),
    Message('note_on', channel=9, note=42, velocity=127, time=0),
    Message('note_on', channel=9, note=51, velocity=127, time=0),
    Message('note_on', channel=9, note=38, velocity=0, time=64),
    Message('note_on', channel=9, note=42, velocity=0, time=0),
    Message('note_on', channel=9, note=51, velocity=0, time=0),
    Message('note_on', channel=9, note=38, velocity=127, time=0),
    Message('note_on', channel=9, note=42, velocity=127, time=0),
    Message('note_on', channel=9, note=51, velocity=127, time=0),
    Message('note_on', channel=9, note=38, velocity=0, time=64),
    Message('note_on', channel=9, note=42, velocity=0, time=0),
    Message('note_on', channel=9, note=51, velocity=0, time=0),
    Message('note_on', channel=9, note=38, velocity=127, time=0),
    Message('note_on', channel=9, note=42, velocity=127, time=0),
    Message('note_on', channel=9, note=51, velocity=127, time=0),
    Message('note_on', channel=9, note=38, velocity=0, time=64),
    Message('note_on', channel=9, note=42, velocity=0, time=0),
    Message('note_on', channel=9, note=51, velocity=0, time=0),
    Message('note_on', channel=9, note=42, velocity=127, time=0),
    Message('note_on', channel=9, note=42, velocity=0, time=64),
    Message('note_on', channel=9, note=35, velocity=127, time=0),
    Message('note_on', channel=9, note=42, velocity=127, time=0),
    Message('note_on', channel=9, note=35, velocity=0, time=64),
    Message('note_on', channel=9, note=42, velocity=0, time=0),
    Message('note_on', channel=9, note=35, velocity=127, time=0),
    Message('note_on', channel=9, note=38, velocity=127, time=0),
    Message('note_on', channel=9, note=42, velocity=127, time=0),
    Message('note_on', channel=9, note=51, velocity=127, time=0),
    Message('note_on', channel=9, note=35, velocity=0, time=64),
    Message('note_on', channel=9, note=38, velocity=0, time=0),
    Message('note_on', channel=9, note=42, velocity=0, time=0),
    Message('note_on', channel=9, note=51, velocity=0, time=0),
    Message('note_on', channel=9, note=38, velocity=127, time=0),
    Message('note_on', channel=9, note=42, velocity=127, time=0),
    Message('note_on', channel=9, note=51, velocity=127, time=0),
    Message('note_on', channel=9, note=38, velocity=0, time=64),
    Message('note_on', channel=9, note=42, velocity=0, time=0),
    Message('note_on', channel=9, note=51, velocity=0, time=0),
    Message('note_on', channel=9, note=38, velocity=127, time=0),
    Message('note_on', channel=9, note=42, velocity=127, time=0),
    Message('note_on', channel=9, note=51, velocity=127, time=0),
    Message('note_on', channel=9, note=38, velocity=0, time=64),
    Message('note_on', channel=9, note=42, velocity=0, time=0),
    Message('note_on', channel=9, note=51, velocity=0, time=0),
    Message('note_on', channel=9, note=38, velocity=127, time=0),
    Message('note_on', channel=9, note=42, velocity=127, time=0),
    Message('note_on', channel=9, note=51, velocity=127, time=0),
    Message('note_on', channel=9, note=38, velocity=0, time=64),
    Message('note_on', channel=9, note=42, velocity=0, time=0),
    Message('note_on', channel=9, note=51, velocity=0, time=0),
    Message('note_on', channel=9, note=42, velocity=127, time=0),
    Message('note_on', channel=9, note=42, velocity=0, time=64),
    Message('note_on', channel=9, note=35, velocity=127, time=0),
    Message('note_on', channel=9, note=42, velocity=127, time=0),
    Message('note_on', channel=9, note=35, velocity=0, time=64),
    Message('note_on', channel=9, note=42, velocity=0, time=0),
    Message('note_on', channel=9, note=35, velocity=127, time=0),
    Message('note_on', channel=9, note=38, velocity=127, time=0),
    Message('note_on', channel=9, note=42, velocity=127, time=0),
    Message('note_on', channel=9, note=51, velocity=127, time=0),
    Message('note_on', channel=9, note=35, velocity=0, time=64),
    Message('note_on', channel=9, note=38, velocity=0, time=0),
    Message('note_on', channel=9, note=42, velocity=0, time=0),
    Message('note_on', channel=9, note=51, velocity=0, time=0),
    Message('note_on', channel=9, note=38, velocity=127, time=0),
    Message('note_on', channel=9, note=42, velocity=127, time=0),
    Message('note_on', channel=9, note=51, velocity=127, time=0),
    Message('note_on', channel=9, note=38, velocity=0, time=64),
    Message('note_on', channel=9, note=42, velocity=0, time=0),
    Message('note_on', channel=9, note=51, velocity=0, time=0),
    Message('note_on', channel=9, note=38, velocity=127, time=0),
    Message('note_on', channel=9, note=42, velocity=127, time=0),
    Message('note_on', channel=9, note=51, velocity=127, time=0),
    Message('note_on', channel=9, note=38, velocity=0, time=64),
    Message('note_on', channel=9, note=42, velocity=0, time=0),
    Message('note_on', channel=9, note=51, velocity=0, time=0),
    Message('note_on', channel=9, note=38, velocity=127, time=0),
    Message('note_on', channel=9, note=42, velocity=127, time=0),
    Message('note_on', channel=9, note=51, velocity=127, time=0),
    Message('note_on', channel=9, note=38, velocity=0, time=64),
    Message('note_on', channel=9, note=42, velocity=0, time=0),
    Message('note_on', channel=9, note=51, velocity=0, time=0),
    Message('note_on', channel=9, note=42, velocity=127, time=0),
    Message('note_on', channel=9, note=42, velocity=0, time=64),
    Message('note_on', channel=9, note=35, velocity=127, time=0),
    Message('note_on', channel=9, note=42, velocity=127, time=0),
    Message('note_on', channel=9, note=35, velocity=0, time=64),
    Message('note_on', channel=9, note=42, velocity=0, time=0),
    Message('note_on', channel=9, note=35, velocity=127, time=0),
    Message('note_on', channel=9, note=38, velocity=127, time=0),
    Message('note_on', channel=9, note=42, velocity=127, time=0),
    Message('note_on', channel=9, note=51, velocity=127, time=0),
    Message('note_on', channel=9, note=35, velocity=0, time=64),
    Message('note_on', channel=9, note=38, velocity=0, time=0),
    Message('note_on', channel=9, note=42, velocity=0, time=0),
    Message('note_on', channel=9, note=51, velocity=0, time=0),
    Message('note_on', channel=9, note=38, velocity=127, time=0),
    Message('note_on', channel=9, note=42, velocity=127, time=0),
    Message('note_on', channel=9, note=51, velocity=127, time=0),
    Message('note_on', channel=9, note=38, velocity=0, time=64),
    Message('note_on', channel=9, note=42, velocity=0, time=0),
    Message('note_on', channel=9, note=51, velocity=0, time=0),
    Message('note_on', channel=9, note=35, velocity=127, time=0),
    Message('note_on', channel=9, note=38, velocity=127, time=0),
    Message('note_on', channel=9, note=42, velocity=127, time=0),
    Message('note_on', channel=9, note=51, velocity=127, time=0),
    Message('note_on', channel=9, note=35, velocity=0, time=64),
    Message('note_on', channel=9, note=38, velocity=0, time=0),
    Message('note_on', channel=9, note=42, velocity=0, time=0),
    Message('note_on', channel=9, note=51, velocity=0, time=0),
    Message('note_on', channel=9, note=38, velocity=127, time=0),
    Message('note_on', channel=9, note=42, velocity=127, time=0),
    Message('note_on', channel=9, note=51, velocity=127, time=0),
    Message('note_on', channel=9, note=38, velocity=0, time=64),
    Message('note_on', channel=9, note=42, velocity=0, time=0),
    Message('note_on', channel=9, note=51, velocity=0, time=0),
    Message('note_on', channel=9, note=35, velocity=127, time=0),
    Message('note_on', channel=9, note=42, velocity=127, time=0),
    Message('note_on', channel=9, note=35, velocity=0, time=64),
    Message('note_on', channel=9, note=42, velocity=0, time=0),
    Message('note_on', channel=9, note=35, velocity=127, time=0),
    Message('note_on', channel=9, note=42, velocity=127, time=0),
    Message('note_on', channel=9, note=35, velocity=0, time=64),
    Message('note_on', channel=9, note=42, velocity=0, time=0),
    Message('note_on', channel=9, note=35, velocity=127, time=0),
    Message('note_on', channel=9, note=38, velocity=127, time=0),
    Message('note_on', channel=9, note=42, velocity=127, time=0),
    Message('note_on', channel=9, note=51, velocity=127, time=0),
    Message('note_on', channel=9, note=35, velocity=0, time=64),
    Message('note_on', channel=9, note=38, velocity=0, time=0),
    Message('note_on', channel=9, note=42, velocity=0, time=0),
    Message('note_on', channel=9, note=51, velocity=0, time=0),
    Message('note_on', channel=9, note=38, velocity=127, time=0),
    Message('note_on', channel=9, note=42, velocity=127, time=0),
    Message('note_on', channel=9, note=51, velocity=127, time=0),
    Message('note_on', channel=9, note=38, velocity=0, time=64),
    Message('note_on', channel=9, note=42, velocity=0, time=0),
    Message('note_on', channel=9, note=51, velocity=0, time=0),
    Message('note_on', channel=9, note=38, velocity=127, time=0),
    Message('note_on', channel=9, note=42, velocity=127, time=0),
    Message('note_on', channel=9, note=51, velocity=127, time=0),
    Message('note_on', channel=9, note=38, velocity=0, time=64),
    Message('note_on', channel=9, note=42, velocity=0, time=0),
    Message('note_on', channel=9, note=51, velocity=0, time=0),
    Message('note_on', channel=9, note=38, velocity=127, time=0),
    Message('note_on', channel=9, note=42, velocity=127, time=0),
    Message('note_on', channel=9, note=51, velocity=127, time=0),
    Message('note_on', channel=9, note=38, velocity=0, time=64),
    Message('note_on', channel=9, note=42, velocity=0, time=0),
    Message('note_on', channel=9, note=51, velocity=0, time=0),
    Message('note_on', channel=9, note=42, velocity=127, time=0),
    Message('note_on', channel=9, note=42, velocity=0, time=64),
    Message('note_on', channel=9, note=35, velocity=127, time=0),
    Message('note_on', channel=9, note=42, velocity=127, time=0),
    Message('note_on', channel=9, note=35, velocity=0, time=64),
    Message('note_on', channel=9, note=42, velocity=0, time=0),
    Message('note_on', channel=9, note=35, velocity=127, time=0),
    Message('note_on', channel=9, note=38, velocity=127, time=0),
    Message('note_on', channel=9, note=42, velocity=127, time=0),
    Message('note_on', channel=9, note=51, velocity=127, time=0),
    Message('note_on', channel=9, note=35, velocity=0, time=64),
    Message('note_on', channel=9, note=38, velocity=0, time=0),
    Message('note_on', channel=9, note=42, velocity=0, time=0),
    Message('note_on', channel=9, note=51, velocity=0, time=0),
    Message('note_on', channel=9, note=38, velocity=127, time=0),
    Message('note_on', channel=9, note=42, velocity=127, time=0),
    Message('note_on', channel=9, note=51, velocity=127, time=0),
    Message('note_on', channel=9, note=38, velocity=0, time=64),
    Message('note_on', channel=9, note=42, velocity=0, time=0),
    Message('note_on', channel=9, note=51, velocity=0, time=0),
    Message('note_on', channel=9, note=38, velocity=127, time=0),
    Message('note_on', channel=9, note=42, velocity=127, time=0),
    Message('note_on', channel=9, note=51, velocity=127, time=0),
    Message('note_on', channel=9, note=38, velocity=0, time=64),
    Message('note_on', channel=9, note=42, velocity=0, time=0),
    Message('note_on', channel=9, note=51, velocity=0, time=0),
    Message('note_on', channel=9, note=38, velocity=127, time=0),
    Message('note_on', channel=9, note=42, velocity=127, time=0),
    Message('note_on', channel=9, note=51, velocity=127, time=0),
    Message('note_on', channel=9, note=38, velocity=0, time=64),
    Message('note_on', channel=9, note=42, velocity=0, time=0),
    Message('note_on', channel=9, note=51, velocity=0, time=0),
    Message('note_on', channel=9, note=42, velocity=127, time=0),
    Message('note_on', channel=9, note=42, velocity=0, time=64),
    Message('note_on', channel=9, note=35, velocity=127, time=0),
    Message('note_on', channel=9, note=42, velocity=127, time=0),
    Message('note_on', channel=9, note=35, velocity=0, time=64),
    Message('note_on', channel=9, note=42, velocity=0, time=0),
    Message('note_on', channel=9, note=35, velocity=127, time=0),
    Message('note_on', channel=9, note=38, velocity=127, time=0),
    Message('note_on', channel=9, note=42, velocity=127, time=0),
    Message('note_on', channel=9, note=51, velocity=127, time=0),
    Message('note_on', channel=9, note=35, velocity=0, time=64),
    Message('note_on', channel=9, note=38, velocity=0, time=0),
    Message('note_on', channel=9, note=42, velocity=0, time=0),
    Message('note_on', channel=9, note=51, velocity=0, time=0),
    Message('note_on', channel=9, note=38, velocity=127, time=0),
    Message('note_on', channel=9, note=42, velocity=127, time=0),
    Message('note_on', channel=9, note=51, velocity=127, time=0),
    Message('note_on', channel=9, note=38, velocity=0, time=64),
    Message('note_on', channel=9, note=42, velocity=0, time=0),
    Message('note_on', channel=9, note=51, velocity=0, time=0),
    Message('note_on', channel=9, note=38, velocity=127, time=0),
    Message('note_on', channel=9, note=42, velocity=127, time=0),
    Message('note_on', channel=9, note=51, velocity=127, time=0),
    Message('note_on', channel=9, note=38, velocity=0, time=64),
    Message('note_on', channel=9, note=42, velocity=0, time=0),
    Message('note_on', channel=9, note=51, velocity=0, time=0),
    Message('note_on', channel=9, note=38, velocity=127, time=0),
    Message('note_on', channel=9, note=42, velocity=127, time=0),
    Message('note_on', channel=9, note=51, velocity=127, time=0),
    Message('note_on', channel=9, note=38, velocity=0, time=64),
    Message('note_on', channel=9, note=42, velocity=0, time=0),
    Message('note_on', channel=9, note=51, velocity=0, time=0),
    Message('note_on', channel=9, note=42, velocity=127, time=0),
    Message('note_on', channel=9, note=42, velocity=0, time=64),
    Message('note_on', channel=9, note=35, velocity=127, time=0),
    Message('note_on', channel=9, note=42, velocity=127, time=0),
    Message('note_on', channel=9, note=35, velocity=0, time=64),
    Message('note_on', channel=9, note=42, velocity=0, time=0),
    Message('note_on', channel=9, note=35, velocity=127, time=0),
    Message('note_on', channel=9, note=38, velocity=127, time=0),
    Message('note_on', channel=9, note=42, velocity=127, time=0),
    Message('note_on', channel=9, note=51, velocity=127, time=0),
    Message('note_on', channel=9, note=35, velocity=0, time=64),
    Message('note_on', channel=9, note=38, velocity=0, time=0),
    Message('note_on', channel=9, note=42, velocity=0, time=0),
    Message('note_on', channel=9, note=51, velocity=0, time=0),
    Message('note_on', channel=9, note=38, velocity=127, time=0),
    Message('note_on', channel=9, note=42, velocity=127, time=0),
    Message('note_on', channel=9, note=51, velocity=127, time=0),
    Message('note_on', channel=9, note=38, velocity=0, time=64),
    Message('note_on', channel=9, note=42, velocity=0, time=0),
    Message('note_on', channel=9, note=51, velocity=0, time=0),
    Message('note_on', channel=9, note=35, velocity=127, time=0),
    Message('note_on', channel=9, note=38, velocity=127, time=0),
    Message('note_on', channel=9, note=42, velocity=127, time=0),
    Message('note_on', channel=9, note=51, velocity=127, time=0),
    Message('note_on', channel=9, note=35, velocity=0, time=64),
    Message('note_on', channel=9, note=38, velocity=0, time=0),
    Message('note_on', channel=9, note=42, velocity=0, time=0),
    Message('note_on', channel=9, note=51, velocity=0, time=0),
    Message('note_on', channel=9, note=38, velocity=127, time=0),
    Message('note_on', channel=9, note=42, velocity=127, time=0),
    Message('note_on', channel=9, note=51, velocity=127, time=0),
    Message('note_on', channel=9, note=38, velocity=0, time=64),
    Message('note_on', channel=9, note=42, velocity=0, time=0),
    Message('note_on', channel=9, note=51, velocity=0, time=0),
    Message('note_on', channel=9, note=35, velocity=127, time=0),
    Message('note_on', channel=9, note=42, velocity=127, time=0),
    Message('note_on', channel=9, note=35, velocity=0, time=64),
    Message('note_on', channel=9, note=42, velocity=0, time=0),
    Message('note_on', channel=9, note=35, velocity=127, time=0),
    Message('note_on', channel=9, note=42, velocity=127, time=0),
    Message('note_on', channel=9, note=35, velocity=0, time=64),
    Message('note_on', channel=9, note=42, velocity=0, time=0),
    Message('note_on', channel=9, note=35, velocity=127, time=0),
    Message('note_on', channel=9, note=38, velocity=127, time=0),
    Message('note_on', channel=9, note=42, velocity=127, time=0),
    Message('note_on', channel=9, note=51, velocity=127, time=0),
    Message('note_on', channel=9, note=35, velocity=0, time=64),
    Message('note_on', channel=9, note=38, velocity=0, time=0),
    Message('note_on', channel=9, note=42, velocity=0, time=0),
    Message('note_on', channel=9, note=51, velocity=0, time=0),
    Message('note_on', channel=9, note=38, velocity=127, time=0),
    Message('note_on', channel=9, note=42, velocity=127, time=0),
    Message('note_on', channel=9, note=51, velocity=127, time=0),
    Message('note_on', channel=9, note=38, velocity=0, time=64),
    Message('note_on', channel=9, note=42, velocity=0, time=0),
    Message('note_on', channel=9, note=51, velocity=0, time=0),
    Message('note_on', channel=9, note=38, velocity=127, time=0),
    Message('note_on', channel=9, note=42, velocity=127, time=0),
    Message('note_on', channel=9, note=51, velocity=127, time=0),
    Message('note_on', channel=9, note=38, velocity=0, time=64),
    Message('note_on', channel=9, note=42, velocity=0, time=0),
    Message('note_on', channel=9, note=51, velocity=0, time=0),
    Message('note_on', channel=9, note=38, velocity=127, time=0),
    Message('note_on', channel=9, note=42, velocity=127, time=0),
    Message('note_on', channel=9, note=51, velocity=127, time=0),
    Message('note_on', channel=9, note=38, velocity=0, time=64),
    Message('note_on', channel=9, note=42, velocity=0, time=0),
    Message('note_on', channel=9, note=51, velocity=0, time=0),
    Message('note_on', channel=9, note=42, velocity=127, time=0),
    Message('note_on', channel=9, note=42, velocity=0, time=64),
    Message('note_on', channel=9, note=35, velocity=127, time=0),
    Message('note_on', channel=9, note=42, velocity=127, time=0),
    Message('note_on', channel=9, note=35, velocity=0, time=64),
    Message('note_on', channel=9, note=42, velocity=0, time=0),
    Message('note_on', channel=9, note=35, velocity=127, time=0),
    Message('note_on', channel=9, note=38, velocity=127, time=0),
    Message('note_on', channel=9, note=42, velocity=127, time=0),
    Message('note_on', channel=9, note=51, velocity=127, time=0),
    Message('note_on', channel=9, note=35, velocity=0, time=64),
    Message('note_on', channel=9, note=38, velocity=0, time=0),
    Message('note_on', channel=9, note=42, velocity=0, time=0),
    Message('note_on', channel=9, note=51, velocity=0, time=0),
    Message('note_on', channel=9, note=38, velocity=127, time=0),
    Message('note_on', channel=9, note=42, velocity=127, time=0),
    Message('note_on', channel=9, note=51, velocity=127, time=0),
    Message('note_on', channel=9, note=38, velocity=0, time=64),
    Message('note_on', channel=9, note=42, velocity=0, time=0),
    Message('note_on', channel=9, note=51, velocity=0, time=0),
    Message('note_on', channel=9, note=38, velocity=127, time=0),
    Message('note_on', channel=9, note=42, velocity=127, time=0),
    Message('note_on', channel=9, note=51, velocity=127, time=0),
    Message('note_on', channel=9, note=38, velocity=0, time=64),
    Message('note_on', channel=9, note=42, velocity=0, time=0),
    Message('note_on', channel=9, note=51, velocity=0, time=0),
    Message('note_on', channel=9, note=38, velocity=127, time=0),
    Message('note_on', channel=9, note=42, velocity=127, time=0),
    Message('note_on', channel=9, note=51, velocity=127, time=0),
    Message('note_on', channel=9, note=38, velocity=0, time=64),
    Message('note_on', channel=9, note=42, velocity=0, time=0),
    Message('note_on', channel=9, note=51, velocity=0, time=0),
    Message('note_on', channel=9, note=42, velocity=127, time=0),
    Message('note_on', channel=9, note=42, velocity=0, time=64),
    Message('note_on', channel=9, note=35, velocity=127, time=0),
    Message('note_on', channel=9, note=42, velocity=127, time=0),
    Message('note_on', channel=9, note=35, velocity=0, time=64),
    Message('note_on', channel=9, note=42, velocity=0, time=0),
    Message('note_on', channel=9, note=35, velocity=127, time=0),
    Message('note_on', channel=9, note=38, velocity=127, time=0),
    Message('note_on', channel=9, note=42, velocity=127, time=0),
    Message('note_on', channel=9, note=51, velocity=127, time=0),
    Message('note_on', channel=9, note=35, velocity=0, time=64),
    Message('note_on', channel=9, note=38, velocity=0, time=0),
    Message('note_on', channel=9, note=42, velocity=0, time=0),
    Message('note_on', channel=9, note=51, velocity=0, time=0),
    Message('note_on', channel=9, note=38, velocity=127, time=0),
    Message('note_on', channel=9, note=42, velocity=127, time=0),
    Message('note_on', channel=9, note=51, velocity=127, time=0),
    Message('note_on', channel=9, note=38, velocity=0, time=64),
    Message('note_on', channel=9, note=42, velocity=0, time=0),
    Message('note_on', channel=9, note=51, velocity=0, time=0),
    Message('note_on', channel=9, note=38, velocity=127, time=0),
    Message('note_on', channel=9, note=42, velocity=127, time=0),
    Message('note_on', channel=9, note=51, velocity=127, time=0),
    Message('note_on', channel=9, note=38, velocity=0, time=64),
    Message('note_on', channel=9, note=42, velocity=0, time=0),
    Message('note_on', channel=9, note=51, velocity=0, time=0),
    Message('note_on', channel=9, note=38, velocity=127, time=0),
    Message('note_on', channel=9, note=42, velocity=127, time=0),
    Message('note_on', channel=9, note=51, velocity=127, time=0),
    Message('note_on', channel=9, note=38, velocity=0, time=64),
    Message('note_on', channel=9, note=42, velocity=0, time=0),
    Message('note_on', channel=9, note=51, velocity=0, time=0),
    Message('note_on', channel=9, note=42, velocity=127, time=0),
    Message('note_on', channel=9, note=42, velocity=0, time=64),
    Message('note_on', channel=9, note=35, velocity=127, time=0),
    Message('note_on', channel=9, note=42, velocity=127, time=0),
    Message('note_on', channel=9, note=35, velocity=0, time=64),
    Message('note_on', channel=9, note=42, velocity=0, time=0),
    Message('note_on', channel=9, note=35, velocity=127, time=0),
    Message('note_on', channel=9, note=38, velocity=127, time=0),
    Message('note_on', channel=9, note=42, velocity=127, time=0),
    Message('note_on', channel=9, note=51, velocity=127, time=0),
    Message('note_on', channel=9, note=35, velocity=0, time=64),
    Message('note_on', channel=9, note=38, velocity=0, time=0),
    Message('note_on', channel=9, note=42, velocity=0, time=0),
    Message('note_on', channel=9, note=51, velocity=0, time=0),
    Message('note_on', channel=9, note=38, velocity=127, time=0),
    Message('note_on', channel=9, note=42, velocity=127, time=0),
    Message('note_on', channel=9, note=51, velocity=127, time=0),
    Message('note_on', channel=9, note=38, velocity=0, time=64),
    Message('note_on', channel=9, note=42, velocity=0, time=0),
    Message('note_on', channel=9, note=51, velocity=0, time=0),
    Message('note_on', channel=9, note=35, velocity=127, time=0),
    Message('note_on', channel=9, note=38, velocity=127, time=0),
    Message('note_on', channel=9, note=42, velocity=127, time=0),
    Message('note_on', channel=9, note=51, velocity=127, time=0),
    Message('note_on', channel=9, note=35, velocity=0, time=64),
    Message('note_on', channel=9, note=38, velocity=0, time=0),
    Message('note_on', channel=9, note=42, velocity=0, time=0),
    Message('note_on', channel=9, note=51, velocity=0, time=0),
    Message('note_on', channel=9, note=38, velocity=127, time=0),
    Message('note_on', channel=9, note=42, velocity=127, time=0),
    Message('note_on', channel=9, note=51, velocity=127, time=0),
    Message('note_on', channel=9, note=38, velocity=0, time=64),
    Message('note_on', channel=9, note=42, velocity=0, time=0),
    Message('note_on', channel=9, note=51, velocity=0, time=0),
    Message('note_on', channel=9, note=35, velocity=127, time=0),
    Message('note_on', channel=9, note=42, velocity=127, time=0),
    Message('note_on', channel=9, note=35, velocity=0, time=64),
    Message('note_on', channel=9, note=42, velocity=0, time=0),
    Message('note_on', channel=9, note=35, velocity=127, time=0),
    Message('note_on', channel=9, note=46, velocity=127, time=0),
    Message('note_on', channel=9, note=35, velocity=0, time=64),
    Message('note_on', channel=9, note=46, velocity=0, time=0),
    Message('note_on', channel=9, note=35, velocity=127, time=0),
    Message('note_on', channel=9, note=38, velocity=127, time=0),
    Message('note_on', channel=9, note=42, velocity=127, time=0),
    Message('note_on', channel=9, note=51, velocity=127, time=0),
    Message('note_on', channel=9, note=35, velocity=0, time=64),
    Message('note_on', channel=9, note=38, velocity=0, time=0),
    Message('note_on', channel=9, note=42, velocity=0, time=0),
    Message('note_on', channel=9, note=51, velocity=0, time=0),
    Message('note_on', channel=9, note=38, velocity=127, time=0),
    Message('note_on', channel=9, note=42, velocity=127, time=0),
    Message('note_on', channel=9, note=51, velocity=127, time=0),
    Message('note_on', channel=9, note=38, velocity=0, time=64),
    Message('note_on', channel=9, note=42, velocity=0, time=0),
    Message('note_on', channel=9, note=51, velocity=0, time=0),
    Message('note_on', channel=9, note=38, velocity=127, time=0),
    Message('note_on', channel=9, note=42, velocity=127, time=0),
    Message('note_on', channel=9, note=51, velocity=127, time=0),
    Message('note_on', channel=9, note=38, velocity=0, time=64),
    Message('note_on', channel=9, note=42, velocity=0, time=0),
    Message('note_on', channel=9, note=51, velocity=0, time=0),
    Message('note_on', channel=9, note=38, velocity=127, time=0),
    Message('note_on', channel=9, note=42, velocity=127, time=0),
    Message('note_on', channel=9, note=51, velocity=127, time=0),
    Message('note_on', channel=9, note=38, velocity=0, time=64),
    Message('note_on', channel=9, note=42, velocity=0, time=0),
    Message('note_on', channel=9, note=51, velocity=0, time=0),
    Message('note_on', channel=9, note=38, velocity=127, time=0),
    Message('note_on', channel=9, note=42, velocity=127, time=0),
    Message('note_on', channel=9, note=51, velocity=127, time=0),
    Message('note_on', channel=9, note=38, velocity=0, time=64),
    Message('note_on', channel=9, note=42, velocity=0, time=0),
    Message('note_on', channel=9, note=51, velocity=0, time=0),
    Message('note_on', channel=9, note=35, velocity=127, time=0),
    Message('note_on', channel=9, note=38, velocity=127, time=0),
    Message('note_on', channel=9, note=42, velocity=127, time=0),
    Message('note_on', channel=9, note=51, velocity=127, time=0),
    Message('note_on', channel=9, note=35, velocity=0, time=64),
    Message('note_on', channel=9, note=38, velocity=0, time=0),
    Message('note_on', channel=9, note=42, velocity=0, time=0),
    Message('note_on', channel=9, note=51, velocity=0, time=0),
    Message('note_on', channel=9, note=35, velocity=127, time=0),
    Message('note_on', channel=9, note=38, velocity=127, time=0),
    Message('note_on', channel=9, note=42, velocity=127, time=0),
    Message('note_on', channel=9, note=51, velocity=127, time=0),
    Message('note_on', channel=9, note=35, velocity=0, time=64),
    Message('note_on', channel=9, note=38, velocity=0, time=0),
    Message('note_on', channel=9, note=42, velocity=0, time=0),
    Message('note_on', channel=9, note=51, velocity=0, time=0),
    Message('note_on', channel=9, note=38, velocity=127, time=0),
    Message('note_on', channel=9, note=42, velocity=127, time=0),
    Message('note_on', channel=9, note=51, velocity=127, time=0),
    Message('note_on', channel=9, note=38, velocity=0, time=64),
    Message('note_on', channel=9, note=42, velocity=0, time=0),
    Message('note_on', channel=9, note=51, velocity=0, time=0),
    Message('note_on', channel=9, note=38, velocity=127, time=0),
    Message('note_on', channel=9, note=42, velocity=127, time=0),
    Message('note_on', channel=9, note=51, velocity=127, time=0),
    Message('note_on', channel=9, note=38, velocity=0, time=64),
    Message('note_on', channel=9, note=42, velocity=0, time=0),
    Message('note_on', channel=9, note=51, velocity=0, time=0),
    Message('note_on', channel=9, note=38, velocity=127, time=0),
    Message('note_on', channel=9, note=42, velocity=127, time=0),
    Message('note_on', channel=9, note=51, velocity=127, time=0),
    Message('note_on', channel=9, note=38, velocity=0, time=64),
    Message('note_on', channel=9, note=42, velocity=0, time=0),
    Message('note_on', channel=9, note=51, velocity=0, time=0),
    Message('note_on', channel=9, note=38, velocity=127, time=0),
    Message('note_on', channel=9, note=42, velocity=127, time=0),
    Message('note_on', channel=9, note=51, velocity=127, time=0),
    Message('note_on', channel=9, note=38, velocity=0, time=64),
    Message('note_on', channel=9, note=42, velocity=0, time=0),
    Message('note_on', channel=9, note=51, velocity=0, time=0),
    Message('note_on', channel=9, note=35, velocity=127, time=0),
    Message('note_on', channel=9, note=38, velocity=127, time=0),
    Message('note_on', channel=9, note=42, velocity=127, time=0),
    Message('note_on', channel=9, note=51, velocity=127, time=0),
    Message('note_on', channel=9, note=35, velocity=0, time=64),
    Message('note_on', channel=9, note=38, velocity=0, time=0),
    Message('note_on', channel=9, note=42, velocity=0, time=0),
    Message('note_on', channel=9, note=51, velocity=0, time=0),
    Message('note_on', channel=9, note=35, velocity=127, time=0),
    Message('note_on', channel=9, note=38, velocity=127, time=0),
    Message('note_on', channel=9, note=42, velocity=127, time=0),
    Message('note_on', channel=9, note=49, velocity=127, time=0),
    Message('note_on', channel=9, note=35, velocity=0, time=64),
    Message('note_on', channel=9, note=38, velocity=0, time=0),
    Message('note_on', channel=9, note=42, velocity=0, time=0),
    Message('note_on', channel=9, note=49, velocity=0, time=0),
    Message('note_on', channel=9, note=38, velocity=127, time=0),
    Message('note_on', channel=9, note=42, velocity=127, time=0),
    Message('note_on', channel=9, note=51, velocity=127, time=0),
    Message('note_on', channel=9, note=38, velocity=0, time=64),
    Message('note_on', channel=9, note=42, velocity=0, time=0),
    Message('note_on', channel=9, note=51, velocity=0, time=0),
    Message('note_on', channel=9, note=38, velocity=127, time=0),
    Message('note_on', channel=9, note=42, velocity=127, time=0),
    Message('note_on', channel=9, note=51, velocity=127, time=0),
    Message('note_on', channel=9, note=38, velocity=0, time=64),
    Message('note_on', channel=9, note=42, velocity=0, time=0),
    Message('note_on', channel=9, note=51, velocity=0, time=0),
    Message('note_on', channel=9, note=42, velocity=127, time=0),
    Message('note_on', channel=9, note=49, velocity=127, time=0),
    Message('note_on', channel=9, note=48, velocity=127, time=0),
    Message('note_on', channel=9, note=42, velocity=0, time=64),
    Message('note_on', channel=9, note=49, velocity=0, time=0),
    Message('note_on', channel=9, note=48, velocity=0, time=0),
    Message('note_on', channel=9, note=42, velocity=127, time=0),
    Message('note_on', channel=9, note=51, velocity=127, time=0),
    Message('note_on', channel=9, note=48, velocity=127, time=0),
    Message('note_on', channel=9, note=42, velocity=0, time=64),
    Message('note_on', channel=9, note=51, velocity=0, time=0),
    Message('note_on', channel=9, note=48, velocity=0, time=0),
    Message('note_on', channel=9, note=35, velocity=127, time=0),
    Message('note_on', channel=9, note=42, velocity=127, time=0),
    Message('note_on', channel=9, note=51, velocity=127, time=0),
    Message('note_on', channel=9, note=48, velocity=127, time=0),
    Message('note_on', channel=9, note=35, velocity=0, time=64),
    Message('note_on', channel=9, note=42, velocity=0, time=0),
    Message('note_on', channel=9, note=51, velocity=0, time=0),
    Message('note_on', channel=9, note=48, velocity=0, time=0),
    Message('note_on', channel=9, note=35, velocity=127, time=0),
    Message('note_on', channel=9, note=38, velocity=127, time=0),
    Message('note_on', channel=9, note=42, velocity=127, time=0),
    Message('note_on', channel=9, note=49, velocity=127, time=0),
    Message('note_on', channel=9, note=45, velocity=127, time=0),
    Message('note_on', channel=9, note=35, velocity=0, time=64),
    Message('note_on', channel=9, note=38, velocity=0, time=0),
    Message('note_on', channel=9, note=42, velocity=0, time=0),
    Message('note_on', channel=9, note=49, velocity=0, time=0),
    Message('note_on', channel=9, note=45, velocity=0, time=0),
    Message('note_on', channel=9, note=42, velocity=127, time=0),
    Message('note_on', channel=9, note=51, velocity=127, time=0),
    Message('note_on', channel=9, note=45, velocity=127, time=0),
    Message('note_on', channel=9, note=42, velocity=0, time=64),
    Message('note_on', channel=9, note=51, velocity=0, time=0),
    Message('note_on', channel=9, note=45, velocity=0, time=0),
    Message('note_on', channel=9, note=35, velocity=127, time=0),
    Message('note_on', channel=9, note=42, velocity=127, time=0),
    Message('note_on', channel=9, note=51, velocity=127, time=0),
    Message('note_on', channel=9, note=45, velocity=127, time=0),
    Message('note_on', channel=9, note=35, velocity=0, time=64),
    Message('note_on', channel=9, note=42, velocity=0, time=0),
    Message('note_on', channel=9, note=51, velocity=0, time=0),
    Message('note_on', channel=9, note=45, velocity=0, time=0),
    Message('note_on', channel=9, note=42, velocity=127, time=0),
    Message('note_on', channel=9, note=49, velocity=127, time=0),
    Message('note_on', channel=9, note=41, velocity=127, time=0),
    Message('note_on', channel=9, note=42, velocity=0, time=64),
    Message('note_on', channel=9, note=49, velocity=0, time=0),
    Message('note_on', channel=9, note=41, velocity=0, time=0),
    Message('note_on', channel=9, note=35, velocity=127, time=0),
    Message('note_on', channel=9, note=42, velocity=127, time=0),
    Message('note_on', channel=9, note=51, velocity=127, time=0),
    Message('note_on', channel=9, note=41, velocity=127, time=0),
    Message('note_on', channel=9, note=35, velocity=0, time=64),
    Message('note_on', channel=9, note=42, velocity=0, time=0),
    Message('note_on', channel=9, note=51, velocity=0, time=0),
    Message('note_on', channel=9, note=41, velocity=0, time=0),
    Message('note_on', channel=9, note=35, velocity=127, time=0),
    Message('note_on', channel=9, note=42, velocity=127, time=0),
    Message('note_on', channel=9, note=51, velocity=127, time=0),
    Message('note_on', channel=9, note=41, velocity=127, time=0),
    Message('note_on', channel=9, note=35, velocity=0, time=64),
    Message('note_on', channel=9, note=42, velocity=0, time=0),
    Message('note_on', channel=9, note=51, velocity=0, time=0),
    Message('note_on', channel=9, note=41, velocity=0, time=0),
    Message('note_on', channel=9, note=35, velocity=127, time=0),
    Message('note_on', channel=9, note=42, velocity=127, time=0),
    Message('note_on', channel=9, note=49, velocity=127, time=0),
    Message('note_on', channel=9, note=41, velocity=127, time=0),
    Message('note_on', channel=9, note=35, velocity=0, time=64),
    Message('note_on', channel=9, note=42, velocity=0, time=0),
    Message('note_on', channel=9, note=49, velocity=0, time=0),
    Message('note_on', channel=9, note=41, velocity=0, time=0),
    Message('note_on', channel=9, note=42, velocity=127, time=0),
    Message('note_on', channel=9, note=42, velocity=0, time=64),
    Message('note_on', channel=9, note=42, velocity=127, time=0),
    Message('note_on', channel=9, note=42, velocity=0, time=64),
    Message('note_on', channel=9, note=38, velocity=127, time=0),
    Message('note_on', channel=9, note=42, velocity=127, time=0),
    Message('note_on', channel=9, note=37, velocity=127, time=0),
    Message('note_on', channel=9, note=38, velocity=0, time=64),
    Message('note_on', channel=9, note=42, velocity=0, time=0),
    Message('note_on', channel=9, note=37, velocity=0, time=0),
    Message('note_on', channel=9, note=42, velocity=127, time=0),
    Message('note_on', channel=9, note=42, velocity=0, time=64),
    Message('note_on', channel=9, note=35, velocity=127, time=0),
    Message('note_on', channel=9, note=42, velocity=127, time=0),
    Message('note_on', channel=9, note=35, velocity=0, time=64),
    Message('note_on', channel=9, note=42, velocity=0, time=0),
    Message('note_on', channel=9, note=35, velocity=127, time=0),
    Message('note_on', channel=9, note=42, velocity=127, time=0),
    Message('note_on', channel=9, note=35, velocity=0, time=64),
    Message('note_on', channel=9, note=42, velocity=0, time=0),
    Message('note_on', channel=9, note=42, velocity=127, time=0),
    Message('note_on', channel=9, note=42, velocity=0, time=64),
    Message('note_on', channel=9, note=42, velocity=127, time=0),
    Message('note_on', channel=9, note=42, velocity=0, time=64),
    Message('note_on', channel=9, note=42, velocity=127, time=0),
    Message('note_on', channel=9, note=37, velocity=127, time=0),
    Message('note_on', channel=9, note=42, velocity=0, time=64),
    Message('note_on', channel=9, note=37, velocity=0, time=0),
    Message('note_on', channel=9, note=42, velocity=127, time=0),
    Message('note_on', channel=9, note=42, velocity=0, time=64),
    Message('note_on', channel=9, note=35, velocity=127, time=0),
    Message('note_on', channel=9, note=42, velocity=127, time=0),
    Message('note_on', channel=9, note=35, velocity=0, time=64),
    Message('note_on', channel=9, note=42, velocity=0, time=0),
    Message('note_on', channel=9, note=35, velocity=127, time=0),
    Message('note_on', channel=9, note=42, velocity=127, time=0),
    Message('note_on', channel=9, note=35, velocity=0, time=64),
    Message('note_on', channel=9, note=42, velocity=0, time=0),
    Message('note_on', channel=9, note=42, velocity=127, time=0),
    Message('note_on', channel=9, note=42, velocity=0, time=64),
    Message('note_on', channel=9, note=42, velocity=127, time=0),
    Message('note_on', channel=9, note=42, velocity=0, time=64),
    Message('note_on', channel=9, note=42, velocity=127, time=0),
    Message('note_on', channel=9, note=37, velocity=127, time=0),
    Message('note_on', channel=9, note=42, velocity=0, time=64),
    Message('note_on', channel=9, note=37, velocity=0, time=0),
    Message('note_on', channel=9, note=42, velocity=127, time=0),
    Message('note_on', channel=9, note=42, velocity=0, time=64),
    Message('note_on', channel=9, note=35, velocity=127, time=0),
    Message('note_on', channel=9, note=42, velocity=127, time=0),
    Message('note_on', channel=9, note=35, velocity=0, time=64),
    Message('note_on', channel=9, note=42, velocity=0, time=0),
    Message('note_on', channel=9, note=35, velocity=127, time=0),
    Message('note_on', channel=9, note=42, velocity=127, time=0),
    Message('note_on', channel=9, note=35, velocity=0, time=64),
    Message('note_on', channel=9, note=42, velocity=0, time=0),
    Message('note_on', channel=9, note=42, velocity=127, time=0),
    Message('note_on', channel=9, note=42, velocity=0, time=64),
    Message('note_on', channel=9, note=35, velocity=127, time=0),
    Message('note_on', channel=9, note=42, velocity=127, time=0),
    Message('note_on', channel=9, note=35, velocity=0, time=64),
    Message('note_on', channel=9, note=42, velocity=0, time=0),
    Message('note_on', channel=9, note=42, velocity=127, time=0),
    Message('note_on', channel=9, note=37, velocity=127, time=0),
    Message('note_on', channel=9, note=42, velocity=0, time=64),
    Message('note_on', channel=9, note=37, velocity=0, time=0),
    Message('note_on', channel=9, note=35, velocity=127, time=0),
    Message('note_on', channel=9, note=42, velocity=127, time=0),
    Message('note_on', channel=9, note=35, velocity=0, time=64),
    Message('note_on', channel=9, note=42, velocity=0, time=0),
    Message('note_on', channel=9, note=35, velocity=127, time=0),
    Message('note_on', channel=9, note=42, velocity=127, time=0),
    Message('note_on', channel=9, note=35, velocity=0, time=64),
    Message('note_on', channel=9, note=42, velocity=0, time=0),
    Message('note_on', channel=9, note=35, velocity=127, time=0),
    Message('note_on', channel=9, note=42, velocity=127, time=0),
    Message('note_on', channel=9, note=35, velocity=0, time=64),
    Message('note_on', channel=9, note=42, velocity=0, time=0),
    Message('note_on', channel=9, note=42, velocity=127, time=0),
    Message('note_on', channel=9, note=42, velocity=0, time=64),
    Message('note_on', channel=9, note=42, velocity=127, time=0),
    Message('note_on', channel=9, note=42, velocity=0, time=64),
    Message('note_on', channel=9, note=42, velocity=127, time=0),
    Message('note_on', channel=9, note=37, velocity=127, time=0),
    Message('note_on', channel=9, note=42, velocity=0, time=64),
    Message('note_on', channel=9, note=37, velocity=0, time=0),
    Message('note_on', channel=9, note=42, velocity=127, time=0),
    Message('note_on', channel=9, note=42, velocity=0, time=64),
    Message('note_on', channel=9, note=35, velocity=127, time=0),
    Message('note_on', channel=9, note=42, velocity=127, time=0),
    Message('note_on', channel=9, note=35, velocity=0, time=64),
    Message('note_on', channel=9, note=42, velocity=0, time=0),
    Message('note_on', channel=9, note=35, velocity=127, time=0),
    Message('note_on', channel=9, note=42, velocity=127, time=0),
    Message('note_on', channel=9, note=35, velocity=0, time=64),
    Message('note_on', channel=9, note=42, velocity=0, time=0),
    Message('note_on', channel=9, note=42, velocity=127, time=0),
    Message('note_on', channel=9, note=42, velocity=0, time=64),
    Message('note_on', channel=9, note=42, velocity=127, time=0),
    Message('note_on', channel=9, note=42, velocity=0, time=64),
    Message('note_on', channel=9, note=42, velocity=127, time=0),
    Message('note_on', channel=9, note=37, velocity=127, time=0),
    Message('note_on', channel=9, note=42, velocity=0, time=64),
    Message('note_on', channel=9, note=37, velocity=0, time=0),
    Message('note_on', channel=9, note=42, velocity=127, time=0),
    Message('note_on', channel=9, note=42, velocity=0, time=64),
    Message('note_on', channel=9, note=35, velocity=127, time=0),
    Message('note_on', channel=9, note=42, velocity=127, time=0),
    Message('note_on', channel=9, note=35, velocity=0, time=64),
    Message('note_on', channel=9, note=42, velocity=0, time=0),
    Message('note_on', channel=9, note=35, velocity=127, time=0),
    Message('note_on', channel=9, note=42, velocity=127, time=0),
    Message('note_on', channel=9, note=35, velocity=0, time=64),
    Message('note_on', channel=9, note=42, velocity=0, time=0),
    Message('note_on', channel=9, note=42, velocity=127, time=0),
    Message('note_on', channel=9, note=42, velocity=0, time=64),
    Message('note_on', channel=9, note=42, velocity=127, time=0),
    Message('note_on', channel=9, note=42, velocity=0, time=64),
    Message('note_on', channel=9, note=42, velocity=127, time=0),
    Message('note_on', channel=9, note=37, velocity=127, time=0),
    Message('note_on', channel=9, note=42, velocity=0, time=64),
    Message('note_on', channel=9, note=37, velocity=0, time=0),
    Message('note_on', channel=9, note=42, velocity=127, time=0),
    Message('note_on', channel=9, note=42, velocity=0, time=64),
    Message('note_on', channel=9, note=35, velocity=127, time=0),
    Message('note_on', channel=9, note=42, velocity=127, time=0),
    Message('note_on', channel=9, note=35, velocity=0, time=64),
    Message('note_on', channel=9, note=42, velocity=0, time=0),
    Message('note_on', channel=9, note=35, velocity=127, time=0),
    Message('note_on', channel=9, note=42, velocity=127, time=0),
    Message('note_on', channel=9, note=35, velocity=0, time=64),
    Message('note_on', channel=9, note=42, velocity=0, time=0),
    Message('note_on', channel=9, note=42, velocity=127, time=0),
    Message('note_on', channel=9, note=42, velocity=0, time=64),
    Message('note_on', channel=9, note=35, velocity=127, time=0),
    Message('note_on', channel=9, note=42, velocity=127, time=0),
    Message('note_on', channel=9, note=35, velocity=0, time=64),
    Message('note_on', channel=9, note=42, velocity=0, time=0),
    Message('note_on', channel=9, note=42, velocity=127, time=0),
    Message('note_on', channel=9, note=37, velocity=127, time=0),
    Message('note_on', channel=9, note=42, velocity=0, time=64),
    Message('note_on', channel=9, note=37, velocity=0, time=0),
    Message('note_on', channel=9, note=35, velocity=127, time=0),
    Message('note_on', channel=9, note=42, velocity=127, time=0),
    Message('note_on', channel=9, note=35, velocity=0, time=64),
    Message('note_on', channel=9, note=42, velocity=0, time=0),
    Message('note_on', channel=9, note=35, velocity=127, time=0),
    Message('note_on', channel=9, note=42, velocity=127, time=0),
    Message('note_on', channel=9, note=35, velocity=0, time=64),
    Message('note_on', channel=9, note=42, velocity=0, time=0),
    Message('note_on', channel=9, note=35, velocity=127, time=0),
    Message('note_on', channel=9, note=42, velocity=127, time=0),
    Message('note_on', channel=9, note=35, velocity=0, time=64),
    Message('note_on', channel=9, note=42, velocity=0, time=0),
    Message('note_on', channel=9, note=42, velocity=127, time=0),
    Message('note_on', channel=9, note=42, velocity=0, time=64),
    Message('note_on', channel=9, note=42, velocity=127, time=0),
    Message('note_on', channel=9, note=42, velocity=0, time=64),
    Message('note_on', channel=9, note=42, velocity=127, time=0),
    Message('note_on', channel=9, note=37, velocity=127, time=0),
    Message('note_on', channel=9, note=42, velocity=0, time=64),
    Message('note_on', channel=9, note=37, velocity=0, time=0),
    Message('note_on', channel=9, note=42, velocity=127, time=0),
    Message('note_on', channel=9, note=42, velocity=0, time=64),
    Message('note_on', channel=9, note=35, velocity=127, time=0),
    Message('note_on', channel=9, note=42, velocity=127, time=0),
    Message('note_on', channel=9, note=35, velocity=0, time=64),
    Message('note_on', channel=9, note=42, velocity=0, time=0),
    Message('note_on', channel=9, note=35, velocity=127, time=0),
    Message('note_on', channel=9, note=42, velocity=127, time=0),
    Message('note_on', channel=9, note=35, velocity=0, time=64),
    Message('note_on', channel=9, note=42, velocity=0, time=0),
    Message('note_on', channel=9, note=42, velocity=127, time=0),
    Message('note_on', channel=9, note=42, velocity=0, time=64),
    Message('note_on', channel=9, note=42, velocity=127, time=0),
    Message('note_on', channel=9, note=42, velocity=0, time=64),
    Message('note_on', channel=9, note=42, velocity=127, time=0),
    Message('note_on', channel=9, note=37, velocity=127, time=0),
    Message('note_on', channel=9, note=42, velocity=0, time=64),
    Message('note_on', channel=9, note=37, velocity=0, time=0),
    Message('note_on', channel=9, note=42, velocity=127, time=0),
    Message('note_on', channel=9, note=42, velocity=0, time=64),
    Message('note_on', channel=9, note=35, velocity=127, time=0),
    Message('note_on', channel=9, note=42, velocity=127, time=0),
    Message('note_on', channel=9, note=35, velocity=0, time=64),
    Message('note_on', channel=9, note=42, velocity=0, time=0),
    Message('note_on', channel=9, note=35, velocity=127, time=0),
    Message('note_on', channel=9, note=42, velocity=127, time=0),
    Message('note_on', channel=9, note=35, velocity=0, time=64),
    Message('note_on', channel=9, note=42, velocity=0, time=0),
    Message('note_on', channel=9, note=42, velocity=127, time=0),
    Message('note_on', channel=9, note=42, velocity=0, time=64),
    Message('note_on', channel=9, note=42, velocity=127, time=0),
    Message('note_on', channel=9, note=42, velocity=0, time=64),
    Message('note_on', channel=9, note=42, velocity=127, time=0),
    Message('note_on', channel=9, note=37, velocity=127, time=0),
    Message('note_on', channel=9, note=42, velocity=0, time=64),
    Message('note_on', channel=9, note=37, velocity=0, time=0),
    Message('note_on', channel=9, note=42, velocity=127, time=0),
    Message('note_on', channel=9, note=42, velocity=0, time=64),
    Message('note_on', channel=9, note=35, velocity=127, time=0),
    Message('note_on', channel=9, note=42, velocity=127, time=0),
    Message('note_on', channel=9, note=35, velocity=0, time=64),
    Message('note_on', channel=9, note=42, velocity=0, time=0),
    Message('note_on', channel=9, note=35, velocity=127, time=0),
    Message('note_on', channel=9, note=42, velocity=127, time=0),
    Message('note_on', channel=9, note=35, velocity=0, time=64),
    Message('note_on', channel=9, note=42, velocity=0, time=0),
    Message('note_on', channel=9, note=42, velocity=127, time=0),
    Message('note_on', channel=9, note=42, velocity=0, time=64),
    Message('note_on', channel=9, note=35, velocity=127, time=0),
    Message('note_on', channel=9, note=42, velocity=127, time=0),
    Message('note_on', channel=9, note=35, velocity=0, time=64),
    Message('note_on', channel=9, note=42, velocity=0, time=0),
    Message('note_on', channel=9, note=42, velocity=127, time=0),
    Message('note_on', channel=9, note=37, velocity=127, time=0),
    Message('note_on', channel=9, note=42, velocity=0, time=64),
    Message('note_on', channel=9, note=37, velocity=0, time=0),
    Message('note_on', channel=9, note=35, velocity=127, time=0),
    Message('note_on', channel=9, note=42, velocity=127, time=0),
    Message('note_on', channel=9, note=35, velocity=0, time=64),
    Message('note_on', channel=9, note=42, velocity=0, time=0),
    Message('note_on', channel=9, note=35, velocity=127, time=0),
    Message('note_on', channel=9, note=42, velocity=127, time=0),
    Message('note_on', channel=9, note=35, velocity=0, time=64),
    Message('note_on', channel=9, note=42, velocity=0, time=0),
    Message('note_on', channel=9, note=35, velocity=127, time=0),
    Message('note_on', channel=9, note=42, velocity=127, time=0),
    Message('note_on', channel=9, note=35, velocity=0, time=64),
    Message('note_on', channel=9, note=42, velocity=0, time=0),
    Message('note_on', channel=9, note=42, velocity=127, time=0),
    Message('note_on', channel=9, note=42, velocity=0, time=64),
    Message('note_on', channel=9, note=42, velocity=127, time=0),
    Message('note_on', channel=9, note=42, velocity=0, time=64),
    Message('note_on', channel=9, note=42, velocity=127, time=0),
    Message('note_on', channel=9, note=37, velocity=127, time=0),
    Message('note_on', channel=9, note=42, velocity=0, time=64),
    Message('note_on', channel=9, note=37, velocity=0, time=0),
    Message('note_on', channel=9, note=42, velocity=127, time=0),
    Message('note_on', channel=9, note=42, velocity=0, time=64),
    Message('note_on', channel=9, note=35, velocity=127, time=0),
    Message('note_on', channel=9, note=42, velocity=127, time=0),
    Message('note_on', channel=9, note=35, velocity=0, time=64),
    Message('note_on', channel=9, note=42, velocity=0, time=0),
    Message('note_on', channel=9, note=35, velocity=127, time=0),
    Message('note_on', channel=9, note=42, velocity=127, time=0),
    Message('note_on', channel=9, note=35, velocity=0, time=64),
    Message('note_on', channel=9, note=42, velocity=0, time=0),
    Message('note_on', channel=9, note=42, velocity=127, time=0),
    Message('note_on', channel=9, note=42, velocity=0, time=64),
    Message('note_on', channel=9, note=42, velocity=127, time=0),
    Message('note_on', channel=9, note=42, velocity=0, time=64),
    Message('note_on', channel=9, note=42, velocity=127, time=0),
    Message('note_on', channel=9, note=37, velocity=127, time=0),
    Message('note_on', channel=9, note=42, velocity=0, time=64),
    Message('note_on', channel=9, note=37, velocity=0, time=0),
    Message('note_on', channel=9, note=42, velocity=127, time=0),
    Message('note_on', channel=9, note=42, velocity=0, time=64),
    Message('note_on', channel=9, note=35, velocity=127, time=0),
    Message('note_on', channel=9, note=42, velocity=127, time=0),
    Message('note_on', channel=9, note=35, velocity=0, time=64),
    Message('note_on', channel=9, note=42, velocity=0, time=0),
    Message('note_on', channel=9, note=35, velocity=127, time=0),
    Message('note_on', channel=9, note=42, velocity=127, time=0),
    Message('note_on', channel=9, note=35, velocity=0, time=64),
    Message('note_on', channel=9, note=42, velocity=0, time=0),
    Message('note_on', channel=9, note=42, velocity=127, time=0),
    Message('note_on', channel=9, note=42, velocity=0, time=64),
    Message('note_on', channel=9, note=42, velocity=127, time=0),
    Message('note_on', channel=9, note=42, velocity=0, time=64),
    Message('note_on', channel=9, note=42, velocity=127, time=0),
    Message('note_on', channel=9, note=37, velocity=127, time=0),
    Message('note_on', channel=9, note=42, velocity=0, time=64),
    Message('note_on', channel=9, note=37, velocity=0, time=0),
    Message('note_on', channel=9, note=42, velocity=127, time=0),
    Message('note_on', channel=9, note=42, velocity=0, time=64),
    Message('note_on', channel=9, note=35, velocity=127, time=0),
    Message('note_on', channel=9, note=42, velocity=127, time=0),
    Message('note_on', channel=9, note=35, velocity=0, time=64),
    Message('note_on', channel=9, note=42, velocity=0, time=0),
    Message('note_on', channel=9, note=35, velocity=127, time=0),
    Message('note_on', channel=9, note=42, velocity=127, time=0),
    Message('note_on', channel=9, note=35, velocity=0, time=64),
    Message('note_on', channel=9, note=42, velocity=0, time=0),
    Message('note_on', channel=9, note=42, velocity=127, time=0),
    Message('note_on', channel=9, note=42, velocity=0, time=64),
    Message('note_on', channel=9, note=35, velocity=127, time=0),
    Message('note_on', channel=9, note=42, velocity=127, time=0),
    Message('note_on', channel=9, note=35, velocity=0, time=64),
    Message('note_on', channel=9, note=42, velocity=0, time=0),
    Message('note_on', channel=9, note=42, velocity=127, time=0),
    Message('note_on', channel=9, note=37, velocity=127, time=0),
    Message('note_on', channel=9, note=42, velocity=0, time=64),
    Message('note_on', channel=9, note=37, velocity=0, time=0),
    Message('note_on', channel=9, note=35, velocity=127, time=0),
    Message('note_on', channel=9, note=42, velocity=127, time=0),
    Message('note_on', channel=9, note=35, velocity=0, time=64),
    Message('note_on', channel=9, note=42, velocity=0, time=0),
    Message('note_on', channel=9, note=35, velocity=127, time=0),
    Message('note_on', channel=9, note=46, velocity=127, time=0),
    Message('note_on', channel=9, note=35, velocity=0, time=64),
    Message('note_on', channel=9, note=46, velocity=0, time=0),
    Message('note_on', channel=9, note=35, velocity=127, time=0),
    Message('note_on', channel=9, note=42, velocity=127, time=0),
    Message('note_on', channel=9, note=35, velocity=0, time=64),
    Message('note_on', channel=9, note=42, velocity=0, time=0),
    Message('note_on', channel=9, note=42, velocity=127, time=0),
    Message('note_on', channel=9, note=42, velocity=0, time=64),
    Message('note_on', channel=9, note=42, velocity=127, time=0),
    Message('note_on', channel=9, note=42, velocity=0, time=64),
    Message('note_on', channel=9, note=42, velocity=127, time=0),
    Message('note_on', channel=9, note=37, velocity=127, time=0),
    Message('note_on', channel=9, note=42, velocity=0, time=64),
    Message('note_on', channel=9, note=37, velocity=0, time=0),
    Message('note_on', channel=9, note=42, velocity=127, time=0),
    Message('note_on', channel=9, note=42, velocity=0, time=64),
    Message('note_on', channel=9, note=35, velocity=127, time=0),
    Message('note_on', channel=9, note=42, velocity=127, time=0),
    Message('note_on', channel=9, note=35, velocity=0, time=64),
    Message('note_on', channel=9, note=42, velocity=0, time=0),
    Message('note_on', channel=9, note=35, velocity=127, time=0),
    Message('note_on', channel=9, note=42, velocity=127, time=0),
    Message('note_on', channel=9, note=35, velocity=0, time=64),
    Message('note_on', channel=9, note=42, velocity=0, time=0),
    Message('note_on', channel=9, note=42, velocity=127, time=0),
    Message('note_on', channel=9, note=42, velocity=0, time=64),
    Message('note_on', channel=9, note=42, velocity=127, time=0),
    Message('note_on', channel=9, note=42, velocity=0, time=64),
    Message('note_on', channel=9, note=42, velocity=127, time=0),
    Message('note_on', channel=9, note=37, velocity=127, time=0),
    Message('note_on', channel=9, note=42, velocity=0, time=64),
    Message('note_on', channel=9, note=37, velocity=0, time=0),
    Message('note_on', channel=9, note=42, velocity=127, time=0),
    Message('note_on', channel=9, note=42, velocity=0, time=64),
    Message('note_on', channel=9, note=35, velocity=127, time=0),
    Message('note_on', channel=9, note=42, velocity=127, time=0),
    Message('note_on', channel=9, note=35, velocity=0, time=64),
    Message('note_on', channel=9, note=42, velocity=0, time=0),
    Message('note_on', channel=9, note=35, velocity=127, time=0),
    Message('note_on', channel=9, note=42, velocity=127, time=0),
    Message('note_on', channel=9, note=35, velocity=0, time=64),
    Message('note_on', channel=9, note=42, velocity=0, time=0),
    Message('note_on', channel=9, note=42, velocity=127, time=0),
    Message('note_on', channel=9, note=42, velocity=0, time=64),
    Message('note_on', channel=9, note=42, velocity=127, time=0),
    Message('note_on', channel=9, note=42, velocity=0, time=64),
    Message('note_on', channel=9, note=42, velocity=127, time=0),
    Message('note_on', channel=9, note=37, velocity=127, time=0),
    Message('note_on', channel=9, note=42, velocity=0, time=64),
    Message('note_on', channel=9, note=37, velocity=0, time=0),
    Message('note_on', channel=9, note=42, velocity=127, time=0),
    Message('note_on', channel=9, note=42, velocity=0, time=64),
    Message('note_on', channel=9, note=35, velocity=127, time=0),
    Message('note_on', channel=9, note=42, velocity=127, time=0),
    Message('note_on', channel=9, note=35, velocity=0, time=64),
    Message('note_on', channel=9, note=42, velocity=0, time=0),
    Message('note_on', channel=9, note=35, velocity=127, time=0),
    Message('note_on', channel=9, note=42, velocity=127, time=0),
    Message('note_on', channel=9, note=35, velocity=0, time=64),
    Message('note_on', channel=9, note=42, velocity=0, time=0),
    Message('note_on', channel=9, note=42, velocity=127, time=0),
    Message('note_on', channel=9, note=42, velocity=0, time=64),
    Message('note_on', channel=9, note=35, velocity=127, time=0),
    Message('note_on', channel=9, note=42, velocity=127, time=0),
    Message('note_on', channel=9, note=35, velocity=0, time=64),
    Message('note_on', channel=9, note=42, velocity=0, time=0),
    Message('note_on', channel=9, note=42, velocity=127, time=0),
    Message('note_on', channel=9, note=37, velocity=127, time=0),
    Message('note_on', channel=9, note=42, velocity=0, time=64),
    Message('note_on', channel=9, note=37, velocity=0, time=0),
    Message('note_on', channel=9, note=35, velocity=127, time=0),
    Message('note_on', channel=9, note=42, velocity=127, time=0),
    Message('note_on', channel=9, note=35, velocity=0, time=64),
    Message('note_on', channel=9, note=42, velocity=0, time=0),
    Message('note_on', channel=9, note=35, velocity=127, time=0),
    Message('note_on', channel=9, note=42, velocity=127, time=0),
    Message('note_on', channel=9, note=35, velocity=0, time=64),
    Message('note_on', channel=9, note=42, velocity=0, time=0),
    Message('note_on', channel=9, note=35, velocity=127, time=0),
    Message('note_on', channel=9, note=42, velocity=127, time=0),
    Message('note_on', channel=9, note=35, velocity=0, time=64),
    Message('note_on', channel=9, note=42, velocity=0, time=0),
    Message('note_on', channel=9, note=42, velocity=127, time=0),
    Message('note_on', channel=9, note=42, velocity=0, time=64),
    Message('note_on', channel=9, note=42, velocity=127, time=0),
    Message('note_on', channel=9, note=42, velocity=0, time=64),
    Message('note_on', channel=9, note=42, velocity=127, time=0),
    Message('note_on', channel=9, note=37, velocity=127, time=0),
    Message('note_on', channel=9, note=42, velocity=0, time=64),
    Message('note_on', channel=9, note=37, velocity=0, time=0),
    Message('note_on', channel=9, note=42, velocity=127, time=0),
    Message('note_on', channel=9, note=42, velocity=0, time=64),
    Message('note_on', channel=9, note=35, velocity=127, time=0),
    Message('note_on', channel=9, note=42, velocity=127, time=0),
    Message('note_on', channel=9, note=35, velocity=0, time=64),
    Message('note_on', channel=9, note=42, velocity=0, time=0),
    Message('note_on', channel=9, note=35, velocity=127, time=0),
    Message('note_on', channel=9, note=42, velocity=127, time=0),
    Message('note_on', channel=9, note=35, velocity=0, time=64),
    Message('note_on', channel=9, note=42, velocity=0, time=0),
    Message('note_on', channel=9, note=42, velocity=127, time=0),
    Message('note_on', channel=9, note=42, velocity=0, time=64),
    Message('note_on', channel=9, note=42, velocity=127, time=0),
    Message('note_on', channel=9, note=42, velocity=0, time=64),
    Message('note_on', channel=9, note=42, velocity=127, time=0),
    Message('note_on', channel=9, note=37, velocity=127, time=0),
    Message('note_on', channel=9, note=42, velocity=0, time=64),
    Message('note_on', channel=9, note=37, velocity=0, time=0),
    Message('note_on', channel=9, note=42, velocity=127, time=0),
    Message('note_on', channel=9, note=42, velocity=0, time=64),
    Message('note_on', channel=9, note=35, velocity=127, time=0),
    Message('note_on', channel=9, note=42, velocity=127, time=0),
    Message('note_on', channel=9, note=35, velocity=0, time=64),
    Message('note_on', channel=9, note=42, velocity=0, time=0),
    Message('note_on', channel=9, note=35, velocity=127, time=0),
    Message('note_on', channel=9, note=42, velocity=127, time=0),
    Message('note_on', channel=9, note=35, velocity=0, time=64),
    Message('note_on', channel=9, note=42, velocity=0, time=0),
    Message('note_on', channel=9, note=42, velocity=127, time=0),
    Message('note_on', channel=9, note=42, velocity=0, time=64),
    Message('note_on', channel=9, note=42, velocity=127, time=0),
    Message('note_on', channel=9, note=42, velocity=0, time=64),
    Message('note_on', channel=9, note=42, velocity=127, time=0),
    Message('note_on', channel=9, note=37, velocity=127, time=0),
    Message('note_on', channel=9, note=42, velocity=0, time=64),
    Message('note_on', channel=9, note=37, velocity=0, time=0),
    Message('note_on', channel=9, note=42, velocity=127, time=0),
    Message('note_on', channel=9, note=42, velocity=0, time=64),
    Message('note_on', channel=9, note=35, velocity=127, time=0),
    Message('note_on', channel=9, note=42, velocity=127, time=0),
    Message('note_on', channel=9, note=35, velocity=0, time=64),
    Message('note_on', channel=9, note=42, velocity=0, time=0),
    Message('note_on', channel=9, note=35, velocity=127, time=0),
    Message('note_on', channel=9, note=42, velocity=127, time=0),
    Message('note_on', channel=9, note=35, velocity=0, time=64),
    Message('note_on', channel=9, note=42, velocity=0, time=0),
    Message('note_on', channel=9, note=42, velocity=127, time=0),
    Message('note_on', channel=9, note=42, velocity=0, time=64),
    Message('note_on', channel=9, note=35, velocity=127, time=0),
    Message('note_on', channel=9, note=42, velocity=127, time=0),
    Message('note_on', channel=9, note=35, velocity=0, time=64),
    Message('note_on', channel=9, note=42, velocity=0, time=0),
    Message('note_on', channel=9, note=42, velocity=127, time=0),
    Message('note_on', channel=9, note=37, velocity=127, time=0),
    Message('note_on', channel=9, note=42, velocity=0, time=64),
    Message('note_on', channel=9, note=37, velocity=0, time=0),
    Message('note_on', channel=9, note=35, velocity=127, time=0),
    Message('note_on', channel=9, note=42, velocity=127, time=0),
    Message('note_on', channel=9, note=35, velocity=0, time=64),
    Message('note_on', channel=9, note=42, velocity=0, time=0),
    Message('note_on', channel=9, note=35, velocity=127, time=0),
    Message('note_on', channel=9, note=42, velocity=127, time=0),
    Message('note_on', channel=9, note=35, velocity=0, time=64),
    Message('note_on', channel=9, note=42, velocity=0, time=0),
    Message('note_on', channel=9, note=35, velocity=127, time=0),
    Message('note_on', channel=9, note=42, velocity=127, time=0),
    Message('note_on', channel=9, note=35, velocity=0, time=64),
    Message('note_on', channel=9, note=42, velocity=0, time=0),
    Message('note_on', channel=9, note=42, velocity=127, time=0),
    Message('note_on', channel=9, note=42, velocity=0, time=64),
    Message('note_on', channel=9, note=42, velocity=127, time=0),
    Message('note_on', channel=9, note=42, velocity=0, time=64),
    Message('note_on', channel=9, note=42, velocity=127, time=0),
    Message('note_on', channel=9, note=37, velocity=127, time=0),
    Message('note_on', channel=9, note=42, velocity=0, time=64),
    Message('note_on', channel=9, note=37, velocity=0, time=0),
    Message('note_on', channel=9, note=42, velocity=127, time=0),
    Message('note_on', channel=9, note=42, velocity=0, time=64),
    Message('note_on', channel=9, note=35, velocity=127, time=0),
    Message('note_on', channel=9, note=42, velocity=127, time=0),
    Message('note_on', channel=9, note=35, velocity=0, time=64),
    Message('note_on', channel=9, note=42, velocity=0, time=0),
    Message('note_on', channel=9, note=35, velocity=127, time=0),
    Message('note_on', channel=9, note=42, velocity=127, time=0),
    Message('note_on', channel=9, note=35, velocity=0, time=64),
    Message('note_on', channel=9, note=42, velocity=0, time=0),
    Message('note_on', channel=9, note=42, velocity=127, time=0),
    Message('note_on', channel=9, note=42, velocity=0, time=64),
    Message('note_on', channel=9, note=42, velocity=127, time=0),
    Message('note_on', channel=9, note=42, velocity=0, time=64),
    Message('note_on', channel=9, note=42, velocity=127, time=0),
    Message('note_on', channel=9, note=37, velocity=127, time=0),
    Message('note_on', channel=9, note=42, velocity=0, time=64),
    Message('note_on', channel=9, note=37, velocity=0, time=0),
    Message('note_on', channel=9, note=42, velocity=127, time=0),
    Message('note_on', channel=9, note=42, velocity=0, time=64),
    Message('note_on', channel=9, note=35, velocity=127, time=0),
    Message('note_on', channel=9, note=42, velocity=127, time=0),
    Message('note_on', channel=9, note=35, velocity=0, time=64),
    Message('note_on', channel=9, note=42, velocity=0, time=0),
    Message('note_on', channel=9, note=35, velocity=127, time=0),
    Message('note_on', channel=9, note=42, velocity=127, time=0),
    Message('note_on', channel=9, note=35, velocity=0, time=64),
    Message('note_on', channel=9, note=42, velocity=0, time=0),
    Message('note_on', channel=9, note=42, velocity=127, time=0),
    Message('note_on', channel=9, note=42, velocity=0, time=64),
    Message('note_on', channel=9, note=42, velocity=127, time=0),
    Message('note_on', channel=9, note=42, velocity=0, time=64),
    Message('note_on', channel=9, note=42, velocity=127, time=0),
    Message('note_on', channel=9, note=37, velocity=127, time=0),
    Message('note_on', channel=9, note=42, velocity=0, time=64),
    Message('note_on', channel=9, note=37, velocity=0, time=0),
    Message('note_on', channel=9, note=42, velocity=127, time=0),
    Message('note_on', channel=9, note=42, velocity=0, time=64),
    Message('note_on', channel=9, note=35, velocity=127, time=0),
    Message('note_on', channel=9, note=42, velocity=127, time=0),
    Message('note_on', channel=9, note=35, velocity=0, time=64),
    Message('note_on', channel=9, note=42, velocity=0, time=0),
    Message('note_on', channel=9, note=35, velocity=127, time=0),
    Message('note_on', channel=9, note=42, velocity=127, time=0),
    Message('note_on', channel=9, note=35, velocity=0, time=64),
    Message('note_on', channel=9, note=42, velocity=0, time=0),
    Message('note_on', channel=9, note=42, velocity=127, time=0),
    Message('note_on', channel=9, note=42, velocity=0, time=64),
    Message('note_on', channel=9, note=35, velocity=127, time=0),
    Message('note_on', channel=9, note=42, velocity=127, time=0),
    Message('note_on', channel=9, note=35, velocity=0, time=64),
    Message('note_on', channel=9, note=42, velocity=0, time=0),
    Message('note_on', channel=9, note=42, velocity=127, time=0),
    Message('note_on', channel=9, note=37, velocity=127, time=0),
    Message('note_on', channel=9, note=42, velocity=0, time=64),
    Message('note_on', channel=9, note=37, velocity=0, time=0),
    Message('note_on', channel=9, note=35, velocity=127, time=0),
    Message('note_on', channel=9, note=42, velocity=127, time=0),
    Message('note_on', channel=9, note=35, velocity=0, time=64),
    Message('note_on', channel=9, note=42, velocity=0, time=0),
    Message('note_on', channel=9, note=35, velocity=127, time=0),
    Message('note_on', channel=9, note=46, velocity=127, time=0),
    Message('note_on', channel=9, note=35, velocity=0, time=64),
    Message('note_on', channel=9, note=46, velocity=0, time=0),
    Message('note_on', channel=9, note=35, velocity=127, time=0),
    Message('note_on', channel=9, note=38, velocity=127, time=0),
    Message('note_on', channel=9, note=42, velocity=127, time=0),
    Message('note_on', channel=9, note=51, velocity=127, time=0),
    Message('note_on', channel=9, note=35, velocity=0, time=64),
    Message('note_on', channel=9, note=38, velocity=0, time=0),
    Message('note_on', channel=9, note=42, velocity=0, time=0),
    Message('note_on', channel=9, note=51, velocity=0, time=0),
    Message('note_on', channel=9, note=38, velocity=127, time=0),
    Message('note_on', channel=9, note=42, velocity=127, time=0),
    Message('note_on', channel=9, note=38, velocity=0, time=64),
    Message('note_on', channel=9, note=42, velocity=0, time=0),
    Message('note_on', channel=9, note=38, velocity=127, time=0),
    Message('note_on', channel=9, note=42, velocity=127, time=0),
    Message('note_on', channel=9, note=38, velocity=0, time=64),
    Message('note_on', channel=9, note=42, velocity=0, time=0),
    Message('note_on', channel=9, note=38, velocity=127, time=0),
    Message('note_on', channel=9, note=42, velocity=127, time=0),
    Message('note_on', channel=9, note=37, velocity=127, time=0),
    Message('note_on', channel=9, note=38, velocity=0, time=64),
    Message('note_on', channel=9, note=42, velocity=0, time=0),
    Message('note_on', channel=9, note=37, velocity=0, time=0),
    Message('note_on', channel=9, note=38, velocity=127, time=0),
    Message('note_on', channel=9, note=42, velocity=127, time=0),
    Message('note_on', channel=9, note=38, velocity=0, time=64),
    Message('note_on', channel=9, note=42, velocity=0, time=0),
    Message('note_on', channel=9, note=35, velocity=127, time=0),
    Message('note_on', channel=9, note=38, velocity=127, time=0),
    Message('note_on', channel=9, note=42, velocity=127, time=0),
    Message('note_on', channel=9, note=35, velocity=0, time=64),
    Message('note_on', channel=9, note=38, velocity=0, time=0),
    Message('note_on', channel=9, note=42, velocity=0, time=0),
    Message('note_on', channel=9, note=35, velocity=127, time=0),
    Message('note_on', channel=9, note=38, velocity=127, time=0),
    Message('note_on', channel=9, note=42, velocity=127, time=0),
    Message('note_on', channel=9, note=35, velocity=0, time=64),
    Message('note_on', channel=9, note=38, velocity=0, time=0),
    Message('note_on', channel=9, note=42, velocity=0, time=0),
    Message('note_on', channel=9, note=38, velocity=127, time=0),
    Message('note_on', channel=9, note=42, velocity=127, time=0),
    Message('note_on', channel=9, note=38, velocity=0, time=64),
    Message('note_on', channel=9, note=42, velocity=0, time=0),
    Message('note_on', channel=9, note=38, velocity=127, time=0),
    Message('note_on', channel=9, note=42, velocity=127, time=0),
    Message('note_on', channel=9, note=38, velocity=0, time=64),
    Message('note_on', channel=9, note=42, velocity=0, time=0),
    Message('note_on', channel=9, note=38, velocity=127, time=0),
    Message('note_on', channel=9, note=42, velocity=127, time=0),
    Message('note_on', channel=9, note=37, velocity=127, time=0),
    Message('note_on', channel=9, note=38, velocity=0, time=64),
    Message('note_on', channel=9, note=42, velocity=0, time=0),
    Message('note_on', channel=9, note=37, velocity=0, time=0),
    Message('note_on', channel=9, note=38, velocity=127, time=0),
    Message('note_on', channel=9, note=42, velocity=127, time=0),
    Message('note_on', channel=9, note=38, velocity=0, time=64),
    Message('note_on', channel=9, note=42, velocity=0, time=0),
    Message('note_on', channel=9, note=35, velocity=127, time=0),
    Message('note_on', channel=9, note=38, velocity=127, time=0),
    Message('note_on', channel=9, note=42, velocity=127, time=0),
    Message('note_on', channel=9, note=35, velocity=0, time=64),
    Message('note_on', channel=9, note=38, velocity=0, time=0),
    Message('note_on', channel=9, note=42, velocity=0, time=0),
    Message('note_on', channel=9, note=35, velocity=127, time=0),
    Message('note_on', channel=9, note=38, velocity=127, time=0),
    Message('note_on', channel=9, note=42, velocity=127, time=0),
    Message('note_on', channel=9, note=49, velocity=127, time=0),
    Message('note_on', channel=9, note=35, velocity=0, time=64),
    Message('note_on', channel=9, note=38, velocity=0, time=0),
    Message('note_on', channel=9, note=42, velocity=0, time=0),
    Message('note_on', channel=9, note=49, velocity=0, time=0),
    Message('note_on', channel=9, note=38, velocity=127, time=0),
    Message('note_on', channel=9, note=42, velocity=127, time=0),
    Message('note_on', channel=9, note=51, velocity=127, time=0),
    Message('note_on', channel=9, note=38, velocity=0, time=64),
    Message('note_on', channel=9, note=42, velocity=0, time=0),
    Message('note_on', channel=9, note=51, velocity=0, time=0),
    Message('note_on', channel=9, note=38, velocity=127, time=0),
    Message('note_on', channel=9, note=42, velocity=127, time=0),
    Message('note_on', channel=9, note=51, velocity=127, time=0),
    Message('note_on', channel=9, note=38, velocity=0, time=64),
    Message('note_on', channel=9, note=42, velocity=0, time=0),
    Message('note_on', channel=9, note=51, velocity=0, time=0),
    Message('note_on', channel=9, note=42, velocity=127, time=0),
    Message('note_on', channel=9, note=49, velocity=127, time=0),
    Message('note_on', channel=9, note=48, velocity=127, time=0),
    Message('note_on', channel=9, note=42, velocity=0, time=64),
    Message('note_on', channel=9, note=49, velocity=0, time=0),
    Message('note_on', channel=9, note=48, velocity=0, time=0),
    Message('note_on', channel=9, note=42, velocity=127, time=0),
    Message('note_on', channel=9, note=51, velocity=127, time=0),
    Message('note_on', channel=9, note=48, velocity=127, time=0),
    Message('note_on', channel=9, note=42, velocity=0, time=64),
    Message('note_on', channel=9, note=51, velocity=0, time=0),
    Message('note_on', channel=9, note=48, velocity=0, time=0),
    Message('note_on', channel=9, note=35, velocity=127, time=0),
    Message('note_on', channel=9, note=42, velocity=127, time=0),
    Message('note_on', channel=9, note=51, velocity=127, time=0),
    Message('note_on', channel=9, note=48, velocity=127, time=0),
    Message('note_on', channel=9, note=35, velocity=0, time=64),
    Message('note_on', channel=9, note=42, velocity=0, time=0),
    Message('note_on', channel=9, note=51, velocity=0, time=0),
    Message('note_on', channel=9, note=48, velocity=0, time=0),
    Message('note_on', channel=9, note=35, velocity=127, time=0),
    Message('note_on', channel=9, note=38, velocity=127, time=0),
    Message('note_on', channel=9, note=42, velocity=127, time=0),
    Message('note_on', channel=9, note=49, velocity=127, time=0),
    Message('note_on', channel=9, note=45, velocity=127, time=0),
    Message('note_on', channel=9, note=35, velocity=0, time=64),
    Message('note_on', channel=9, note=38, velocity=0, time=0),
    Message('note_on', channel=9, note=42, velocity=0, time=0),
    Message('note_on', channel=9, note=49, velocity=0, time=0),
    Message('note_on', channel=9, note=45, velocity=0, time=0),
    Message('note_on', channel=9, note=42, velocity=127, time=0),
    Message('note_on', channel=9, note=51, velocity=127, time=0),
    Message('note_on', channel=9, note=45, velocity=127, time=0),
    Message('note_on', channel=9, note=42, velocity=0, time=64),
    Message('note_on', channel=9, note=51, velocity=0, time=0),
    Message('note_on', channel=9, note=45, velocity=0, time=0),
    Message('note_on', channel=9, note=35, velocity=127, time=0),
    Message('note_on', channel=9, note=42, velocity=127, time=0),
    Message('note_on', channel=9, note=51, velocity=127, time=0),
    Message('note_on', channel=9, note=45, velocity=127, time=0),
    Message('note_on', channel=9, note=35, velocity=0, time=64),
    Message('note_on', channel=9, note=42, velocity=0, time=0),
    Message('note_on', channel=9, note=51, velocity=0, time=0),
    Message('note_on', channel=9, note=45, velocity=0, time=0),
    Message('note_on', channel=9, note=42, velocity=127, time=0),
    Message('note_on', channel=9, note=49, velocity=127, time=0),
    Message('note_on', channel=9, note=41, velocity=127, time=0),
    Message('note_on', channel=9, note=42, velocity=0, time=64),
    Message('note_on', channel=9, note=49, velocity=0, time=0),
    Message('note_on', channel=9, note=41, velocity=0, time=0),
    Message('note_on', channel=9, note=35, velocity=127, time=0),
    Message('note_on', channel=9, note=42, velocity=127, time=0),
    Message('note_on', channel=9, note=51, velocity=127, time=0),
    Message('note_on', channel=9, note=41, velocity=127, time=0),
    Message('note_on', channel=9, note=35, velocity=0, time=64),
    Message('note_on', channel=9, note=42, velocity=0, time=0),
    Message('note_on', channel=9, note=51, velocity=0, time=0),
    Message('note_on', channel=9, note=41, velocity=0, time=0),
    Message('note_on', channel=9, note=35, velocity=127, time=0),
    Message('note_on', channel=9, note=42, velocity=127, time=0),
    Message('note_on', channel=9, note=51, velocity=127, time=0),
    Message('note_on', channel=9, note=41, velocity=127, time=0),
    Message('note_on', channel=9, note=35, velocity=0, time=64),
    Message('note_on', channel=9, note=42, velocity=0, time=0),
    Message('note_on', channel=9, note=51, velocity=0, time=0),
    Message('note_on', channel=9, note=41, velocity=0, time=0),
    Message('note_on', channel=9, note=35, velocity=127, time=0),
    Message('note_on', channel=9, note=38, velocity=127, time=0),
    Message('note_on', channel=9, note=42, velocity=127, time=0),
    Message('note_on', channel=9, note=49, velocity=127, time=0),
    Message('note_on', channel=9, note=41, velocity=127, time=0),
    Message('note_on', channel=9, note=35, velocity=0, time=64),
    Message('note_on', channel=9, note=38, velocity=0, time=0),
    Message('note_on', channel=9, note=42, velocity=0, time=0),
    Message('note_on', channel=9, note=49, velocity=0, time=0),
    Message('note_on', channel=9, note=41, velocity=0, time=0),
    Message('note_on', channel=9, note=38, velocity=127, time=0),
    Message('note_on', channel=9, note=42, velocity=127, time=0),
    Message('note_on', channel=9, note=51, velocity=127, time=0),
    Message('note_on', channel=9, note=38, velocity=0, time=64),
    Message('note_on', channel=9, note=42, velocity=0, time=0),
    Message('note_on', channel=9, note=51, velocity=0, time=0),
    Message('note_on', channel=9, note=38, velocity=127, time=0),
    Message('note_on', channel=9, note=42, velocity=127, time=0),
    Message('note_on', channel=9, note=51, velocity=127, time=0),
    Message('note_on', channel=9, note=38, velocity=0, time=64),
    Message('note_on', channel=9, note=42, velocity=0, time=0),
    Message('note_on', channel=9, note=51, velocity=0, time=0),
    Message('note_on', channel=9, note=38, velocity=127, time=0),
    Message('note_on', channel=9, note=42, velocity=127, time=0),
    Message('note_on', channel=9, note=51, velocity=127, time=0),
    Message('note_on', channel=9, note=38, velocity=0, time=64),
    Message('note_on', channel=9, note=42, velocity=0, time=0),
    Message('note_on', channel=9, note=51, velocity=0, time=0),
    Message('note_on', channel=9, note=42, velocity=127, time=0),
    Message('note_on', channel=9, note=42, velocity=0, time=64),
    Message('note_on', channel=9, note=35, velocity=127, time=0),
    Message('note_on', channel=9, note=42, velocity=127, time=0),
    Message('note_on', channel=9, note=35, velocity=0, time=64),
    Message('note_on', channel=9, note=42, velocity=0, time=0),
    Message('note_on', channel=9, note=35, velocity=127, time=0),
    Message('note_on', channel=9, note=38, velocity=127, time=0),
    Message('note_on', channel=9, note=42, velocity=127, time=0),
    Message('note_on', channel=9, note=51, velocity=127, time=0),
    Message('note_on', channel=9, note=35, velocity=0, time=64),
    Message('note_on', channel=9, note=38, velocity=0, time=0),
    Message('note_on', channel=9, note=42, velocity=0, time=0),
    Message('note_on', channel=9, note=51, velocity=0, time=0),
    Message('note_on', channel=9, note=38, velocity=127, time=0),
    Message('note_on', channel=9, note=42, velocity=127, time=0),
    Message('note_on', channel=9, note=51, velocity=127, time=0),
    Message('note_on', channel=9, note=38, velocity=0, time=64),
    Message('note_on', channel=9, note=42, velocity=0, time=0),
    Message('note_on', channel=9, note=51, velocity=0, time=0),
    Message('note_on', channel=9, note=38, velocity=127, time=0),
    Message('note_on', channel=9, note=42, velocity=127, time=0),
    Message('note_on', channel=9, note=51, velocity=127, time=0),
    Message('note_on', channel=9, note=38, velocity=0, time=64),
    Message('note_on', channel=9, note=42, velocity=0, time=0),
    Message('note_on', channel=9, note=51, velocity=0, time=0),
    Message('note_on', channel=9, note=38, velocity=127, time=0),
    Message('note_on', channel=9, note=42, velocity=127, time=0),
    Message('note_on', channel=9, note=51, velocity=127, time=0),
    Message('note_on', channel=9, note=38, velocity=0, time=64),
    Message('note_on', channel=9, note=42, velocity=0, time=0),
    Message('note_on', channel=9, note=51, velocity=0, time=0),
    Message('note_on', channel=9, note=42, velocity=127, time=0),
    Message('note_on', channel=9, note=42, velocity=0, time=64),
    Message('note_on', channel=9, note=35, velocity=127, time=0),
    Message('note_on', channel=9, note=42, velocity=127, time=0),
    Message('note_on', channel=9, note=35, velocity=0, time=64),
    Message('note_on', channel=9, note=42, velocity=0, time=0),
    Message('note_on', channel=9, note=35, velocity=127, time=0),
    Message('note_on', channel=9, note=38, velocity=127, time=0),
    Message('note_on', channel=9, note=42, velocity=127, time=0),
    Message('note_on', channel=9, note=51, velocity=127, time=0),
    Message('note_on', channel=9, note=35, velocity=0, time=64),
    Message('note_on', channel=9, note=38, velocity=0, time=0),
    Message('note_on', channel=9, note=42, velocity=0, time=0),
    Message('note_on', channel=9, note=51, velocity=0, time=0),
    Message('note_on', channel=9, note=38, velocity=127, time=0),
    Message('note_on', channel=9, note=42, velocity=127, time=0),
    Message('note_on', channel=9, note=51, velocity=127, time=0),
    Message('note_on', channel=9, note=38, velocity=0, time=64),
    Message('note_on', channel=9, note=42, velocity=0, time=0),
    Message('note_on', channel=9, note=51, velocity=0, time=0),
    Message('note_on', channel=9, note=38, velocity=127, time=0),
    Message('note_on', channel=9, note=42, velocity=127, time=0),
    Message('note_on', channel=9, note=51, velocity=127, time=0),
    Message('note_on', channel=9, note=38, velocity=0, time=64),
    Message('note_on', channel=9, note=42, velocity=0, time=0),
    Message('note_on', channel=9, note=51, velocity=0, time=0),
    Message('note_on', channel=9, note=38, velocity=127, time=0),
    Message('note_on', channel=9, note=42, velocity=127, time=0),
    Message('note_on', channel=9, note=51, velocity=127, time=0),
    Message('note_on', channel=9, note=38, velocity=0, time=64),
    Message('note_on', channel=9, note=42, velocity=0, time=0),
    Message('note_on', channel=9, note=51, velocity=0, time=0),
    Message('note_on', channel=9, note=42, velocity=127, time=0),
    Message('note_on', channel=9, note=42, velocity=0, time=64),
    Message('note_on', channel=9, note=35, velocity=127, time=0),
    Message('note_on', channel=9, note=42, velocity=127, time=0),
    Message('note_on', channel=9, note=35, velocity=0, time=64),
    Message('note_on', channel=9, note=42, velocity=0, time=0),
    Message('note_on', channel=9, note=35, velocity=127, time=0),
    Message('note_on', channel=9, note=38, velocity=127, time=0),
    Message('note_on', channel=9, note=42, velocity=127, time=0),
    Message('note_on', channel=9, note=51, velocity=127, time=0),
    Message('note_on', channel=9, note=35, velocity=0, time=64),
    Message('note_on', channel=9, note=38, velocity=0, time=0),
    Message('note_on', channel=9, note=42, velocity=0, time=0),
    Message('note_on', channel=9, note=51, velocity=0, time=0),
    Message('note_on', channel=9, note=38, velocity=127, time=0),
    Message('note_on', channel=9, note=42, velocity=127, time=0),
    Message('note_on', channel=9, note=51, velocity=127, time=0),
    Message('note_on', channel=9, note=38, velocity=0, time=64),
    Message('note_on', channel=9, note=42, velocity=0, time=0),
    Message('note_on', channel=9, note=51, velocity=0, time=0),
    Message('note_on', channel=9, note=35, velocity=127, time=0),
    Message('note_on', channel=9, note=38, velocity=127, time=0),
    Message('note_on', channel=9, note=42, velocity=127, time=0),
    Message('note_on', channel=9, note=51, velocity=127, time=0),
    Message('note_on', channel=9, note=35, velocity=0, time=64),
    Message('note_on', channel=9, note=38, velocity=0, time=0),
    Message('note_on', channel=9, note=42, velocity=0, time=0),
    Message('note_on', channel=9, note=51, velocity=0, time=0),
    Message('note_on', channel=9, note=38, velocity=127, time=0),
    Message('note_on', channel=9, note=42, velocity=127, time=0),
    Message('note_on', channel=9, note=51, velocity=127, time=0),
    Message('note_on', channel=9, note=38, velocity=0, time=64),
    Message('note_on', channel=9, note=42, velocity=0, time=0),
    Message('note_on', channel=9, note=51, velocity=0, time=0),
    Message('note_on', channel=9, note=35, velocity=127, time=0),
    Message('note_on', channel=9, note=42, velocity=127, time=0),
    Message('note_on', channel=9, note=35, velocity=0, time=64),
    Message('note_on', channel=9, note=42, velocity=0, time=0),
    Message('note_on', channel=9, note=35, velocity=127, time=0),
    Message('note_on', channel=9, note=42, velocity=127, time=0),
    Message('note_on', channel=9, note=35, velocity=0, time=64),
    Message('note_on', channel=9, note=42, velocity=0, time=0),
    Message('note_on', channel=9, note=35, velocity=127, time=0),
    Message('note_on', channel=9, note=38, velocity=127, time=0),
    Message('note_on', channel=9, note=42, velocity=127, time=0),
    Message('note_on', channel=9, note=51, velocity=127, time=0),
    Message('note_on', channel=9, note=35, velocity=0, time=64),
    Message('note_on', channel=9, note=38, velocity=0, time=0),
    Message('note_on', channel=9, note=42, velocity=0, time=0),
    Message('note_on', channel=9, note=51, velocity=0, time=0),
    Message('note_on', channel=9, note=38, velocity=127, time=0),
    Message('note_on', channel=9, note=42, velocity=127, time=0),
    Message('note_on', channel=9, note=51, velocity=127, time=0),
    Message('note_on', channel=9, note=38, velocity=0, time=64),
    Message('note_on', channel=9, note=42, velocity=0, time=0),
    Message('note_on', channel=9, note=51, velocity=0, time=0),
    Message('note_on', channel=9, note=38, velocity=127, time=0),
    Message('note_on', channel=9, note=42, velocity=127, time=0),
    Message('note_on', channel=9, note=51, velocity=127, time=0),
    Message('note_on', channel=9, note=38, velocity=0, time=64),
    Message('note_on', channel=9, note=42, velocity=0, time=0),
    Message('note_on', channel=9, note=51, velocity=0, time=0),
    Message('note_on', channel=9, note=38, velocity=127, time=0),
    Message('note_on', channel=9, note=42, velocity=127, time=0),
    Message('note_on', channel=9, note=51, velocity=127, time=0),
    Message('note_on', channel=9, note=38, velocity=0, time=64),
    Message('note_on', channel=9, note=42, velocity=0, time=0),
    Message('note_on', channel=9, note=51, velocity=0, time=0),
    Message('note_on', channel=9, note=42, velocity=127, time=0),
    Message('note_on', channel=9, note=42, velocity=0, time=64),
    Message('note_on', channel=9, note=35, velocity=127, time=0),
    Message('note_on', channel=9, note=42, velocity=127, time=0),
    Message('note_on', channel=9, note=35, velocity=0, time=64),
    Message('note_on', channel=9, note=42, velocity=0, time=0),
    Message('note_on', channel=9, note=35, velocity=127, time=0),
    Message('note_on', channel=9, note=38, velocity=127, time=0),
    Message('note_on', channel=9, note=42, velocity=127, time=0),
    Message('note_on', channel=9, note=51, velocity=127, time=0),
    Message('note_on', channel=9, note=35, velocity=0, time=64),
    Message('note_on', channel=9, note=38, velocity=0, time=0),
    Message('note_on', channel=9, note=42, velocity=0, time=0),
    Message('note_on', channel=9, note=51, velocity=0, time=0),
    Message('note_on', channel=9, note=38, velocity=127, time=0),
    Message('note_on', channel=9, note=42, velocity=127, time=0),
    Message('note_on', channel=9, note=51, velocity=127, time=0),
    Message('note_on', channel=9, note=38, velocity=0, time=64),
    Message('note_on', channel=9, note=42, velocity=0, time=0),
    Message('note_on', channel=9, note=51, velocity=0, time=0),
    Message('note_on', channel=9, note=38, velocity=127, time=0),
    Message('note_on', channel=9, note=42, velocity=127, time=0),
    Message('note_on', channel=9, note=51, velocity=127, time=0),
    Message('note_on', channel=9, note=38, velocity=0, time=64),
    Message('note_on', channel=9, note=42, velocity=0, time=0),
    Message('note_on', channel=9, note=51, velocity=0, time=0),
    Message('note_on', channel=9, note=38, velocity=127, time=0),
    Message('note_on', channel=9, note=42, velocity=127, time=0),
    Message('note_on', channel=9, note=51, velocity=127, time=0),
    Message('note_on', channel=9, note=38, velocity=0, time=64),
    Message('note_on', channel=9, note=42, velocity=0, time=0),
    Message('note_on', channel=9, note=51, velocity=0, time=0),
    Message('note_on', channel=9, note=42, velocity=127, time=0),
    Message('note_on', channel=9, note=42, velocity=0, time=64),
    Message('note_on', channel=9, note=35, velocity=127, time=0),
    Message('note_on', channel=9, note=42, velocity=127, time=0),
    Message('note_on', channel=9, note=35, velocity=0, time=64),
    Message('note_on', channel=9, note=42, velocity=0, time=0),
    Message('note_on', channel=9, note=35, velocity=127, time=0),
    Message('note_on', channel=9, note=38, velocity=127, time=0),
    Message('note_on', channel=9, note=42, velocity=127, time=0),
    Message('note_on', channel=9, note=51, velocity=127, time=0),
    Message('note_on', channel=9, note=35, velocity=0, time=64),
    Message('note_on', channel=9, note=38, velocity=0, time=0),
    Message('note_on', channel=9, note=42, velocity=0, time=0),
    Message('note_on', channel=9, note=51, velocity=0, time=0),
    Message('note_on', channel=9, note=38, velocity=127, time=0),
    Message('note_on', channel=9, note=42, velocity=127, time=0),
    Message('note_on', channel=9, note=51, velocity=127, time=0),
    Message('note_on', channel=9, note=38, velocity=0, time=64),
    Message('note_on', channel=9, note=42, velocity=0, time=0),
    Message('note_on', channel=9, note=51, velocity=0, time=0),
    Message('note_on', channel=9, note=38, velocity=127, time=0),
    Message('note_on', channel=9, note=42, velocity=127, time=0),
    Message('note_on', channel=9, note=51, velocity=127, time=0),
    Message('note_on', channel=9, note=38, velocity=0, time=64),
    Message('note_on', channel=9, note=42, velocity=0, time=0),
    Message('note_on', channel=9, note=51, velocity=0, time=0),
    Message('note_on', channel=9, note=38, velocity=127, time=0),
    Message('note_on', channel=9, note=42, velocity=127, time=0),
    Message('note_on', channel=9, note=51, velocity=127, time=0),
    Message('note_on', channel=9, note=38, velocity=0, time=64),
    Message('note_on', channel=9, note=42, velocity=0, time=0),
    Message('note_on', channel=9, note=51, velocity=0, time=0),
    Message('note_on', channel=9, note=42, velocity=127, time=0),
    Message('note_on', channel=9, note=42, velocity=0, time=64),
    Message('note_on', channel=9, note=35, velocity=127, time=0),
    Message('note_on', channel=9, note=42, velocity=127, time=0),
    Message('note_on', channel=9, note=35, velocity=0, time=64),
    Message('note_on', channel=9, note=42, velocity=0, time=0),
    Message('note_on', channel=9, note=35, velocity=127, time=0),
    Message('note_on', channel=9, note=38, velocity=127, time=0),
    Message('note_on', channel=9, note=42, velocity=127, time=0),
    Message('note_on', channel=9, note=51, velocity=127, time=0),
    Message('note_on', channel=9, note=35, velocity=0, time=64),
    Message('note_on', channel=9, note=38, velocity=0, time=0),
    Message('note_on', channel=9, note=42, velocity=0, time=0),
    Message('note_on', channel=9, note=51, velocity=0, time=0),
    Message('note_on', channel=9, note=38, velocity=127, time=0),
    Message('note_on', channel=9, note=42, velocity=127, time=0),
    Message('note_on', channel=9, note=51, velocity=127, time=0),
    Message('note_on', channel=9, note=38, velocity=0, time=64),
    Message('note_on', channel=9, note=42, velocity=0, time=0),
    Message('note_on', channel=9, note=51, velocity=0, time=0),
    Message('note_on', channel=9, note=35, velocity=127, time=0),
    Message('note_on', channel=9, note=38, velocity=127, time=0),
    Message('note_on', channel=9, note=42, velocity=127, time=0),
    Message('note_on', channel=9, note=51, velocity=127, time=0),
    Message('note_on', channel=9, note=35, velocity=0, time=64),
    Message('note_on', channel=9, note=38, velocity=0, time=0),
    Message('note_on', channel=9, note=42, velocity=0, time=0),
    Message('note_on', channel=9, note=51, velocity=0, time=0),
    Message('note_on', channel=9, note=38, velocity=127, time=0),
    Message('note_on', channel=9, note=42, velocity=127, time=0),
    Message('note_on', channel=9, note=51, velocity=127, time=0),
    Message('note_on', channel=9, note=38, velocity=0, time=64),
    Message('note_on', channel=9, note=42, velocity=0, time=0),
    Message('note_on', channel=9, note=51, velocity=0, time=0),
    Message('note_on', channel=9, note=35, velocity=127, time=0),
    Message('note_on', channel=9, note=42, velocity=127, time=0),
    Message('note_on', channel=9, note=35, velocity=0, time=64),
    Message('note_on', channel=9, note=42, velocity=0, time=0),
    Message('note_on', channel=9, note=35, velocity=127, time=0),
    Message('note_on', channel=9, note=42, velocity=127, time=0),
    Message('note_on', channel=9, note=35, velocity=0, time=64),
    Message('note_on', channel=9, note=42, velocity=0, time=0),
    Message('note_on', channel=9, note=35, velocity=127, time=0),
    Message('note_on', channel=9, note=38, velocity=127, time=0),
    Message('note_on', channel=9, note=42, velocity=127, time=0),
    Message('note_on', channel=9, note=51, velocity=127, time=0),
    Message('note_on', channel=9, note=35, velocity=0, time=64),
    Message('note_on', channel=9, note=38, velocity=0, time=0),
    Message('note_on', channel=9, note=42, velocity=0, time=0),
    Message('note_on', channel=9, note=51, velocity=0, time=0),
    Message('note_on', channel=9, note=38, velocity=127, time=0),
    Message('note_on', channel=9, note=42, velocity=127, time=0),
    Message('note_on', channel=9, note=51, velocity=127, time=0),
    Message('note_on', channel=9, note=38, velocity=0, time=64),
    Message('note_on', channel=9, note=42, velocity=0, time=0),
    Message('note_on', channel=9, note=51, velocity=0, time=0),
    Message('note_on', channel=9, note=38, velocity=127, time=0),
    Message('note_on', channel=9, note=42, velocity=127, time=0),
    Message('note_on', channel=9, note=51, velocity=127, time=0),
    Message('note_on', channel=9, note=38, velocity=0, time=64),
    Message('note_on', channel=9, note=42, velocity=0, time=0),
    Message('note_on', channel=9, note=51, velocity=0, time=0),
    Message('note_on', channel=9, note=38, velocity=127, time=0),
    Message('note_on', channel=9, note=42, velocity=127, time=0),
    Message('note_on', channel=9, note=51, velocity=127, time=0),
    Message('note_on', channel=9, note=38, velocity=0, time=64),
    Message('note_on', channel=9, note=42, velocity=0, time=0),
    Message('note_on', channel=9, note=51, velocity=0, time=0),
    Message('note_on', channel=9, note=42, velocity=127, time=0),
    Message('note_on', channel=9, note=42, velocity=0, time=64),
    Message('note_on', channel=9, note=35, velocity=127, time=0),
    Message('note_on', channel=9, note=42, velocity=127, time=0),
    Message('note_on', channel=9, note=35, velocity=0, time=64),
    Message('note_on', channel=9, note=42, velocity=0, time=0),
    Message('note_on', channel=9, note=35, velocity=127, time=0),
    Message('note_on', channel=9, note=38, velocity=127, time=0),
    Message('note_on', channel=9, note=42, velocity=127, time=0),
    Message('note_on', channel=9, note=51, velocity=127, time=0),
    Message('note_on', channel=9, note=35, velocity=0, time=64),
    Message('note_on', channel=9, note=38, velocity=0, time=0),
    Message('note_on', channel=9, note=42, velocity=0, time=0),
    Message('note_on', channel=9, note=51, velocity=0, time=0),
    Message('note_on', channel=9, note=38, velocity=127, time=0),
    Message('note_on', channel=9, note=42, velocity=127, time=0),
    Message('note_on', channel=9, note=51, velocity=127, time=0),
    Message('note_on', channel=9, note=38, velocity=0, time=64),
    Message('note_on', channel=9, note=42, velocity=0, time=0),
    Message('note_on', channel=9, note=51, velocity=0, time=0),
    Message('note_on', channel=9, note=38, velocity=127, time=0),
    Message('note_on', channel=9, note=42, velocity=127, time=0),
    Message('note_on', channel=9, note=51, velocity=127, time=0),
    Message('note_on', channel=9, note=38, velocity=0, time=64),
    Message('note_on', channel=9, note=42, velocity=0, time=0),
    Message('note_on', channel=9, note=51, velocity=0, time=0),
    Message('note_on', channel=9, note=38, velocity=127, time=0),
    Message('note_on', channel=9, note=42, velocity=127, time=0),
    Message('note_on', channel=9, note=51, velocity=127, time=0),
    Message('note_on', channel=9, note=38, velocity=0, time=64),
    Message('note_on', channel=9, note=42, velocity=0, time=0),
    Message('note_on', channel=9, note=51, velocity=0, time=0),
    Message('note_on', channel=9, note=42, velocity=127, time=0),
    Message('note_on', channel=9, note=42, velocity=0, time=64),
    Message('note_on', channel=9, note=35, velocity=127, time=0),
    Message('note_on', channel=9, note=42, velocity=127, time=0),
    Message('note_on', channel=9, note=35, velocity=0, time=64),
    Message('note_on', channel=9, note=42, velocity=0, time=0),
    Message('note_on', channel=9, note=35, velocity=127, time=0),
    Message('note_on', channel=9, note=38, velocity=127, time=0),
    Message('note_on', channel=9, note=42, velocity=127, time=0),
    Message('note_on', channel=9, note=51, velocity=127, time=0),
    Message('note_on', channel=9, note=35, velocity=0, time=64),
    Message('note_on', channel=9, note=38, velocity=0, time=0),
    Message('note_on', channel=9, note=42, velocity=0, time=0),
    Message('note_on', channel=9, note=51, velocity=0, time=0),
    Message('note_on', channel=9, note=38, velocity=127, time=0),
    Message('note_on', channel=9, note=42, velocity=127, time=0),
    Message('note_on', channel=9, note=51, velocity=127, time=0),
    Message('note_on', channel=9, note=38, velocity=0, time=64),
    Message('note_on', channel=9, note=42, velocity=0, time=0),
    Message('note_on', channel=9, note=51, velocity=0, time=0),
    Message('note_on', channel=9, note=38, velocity=127, time=0),
    Message('note_on', channel=9, note=42, velocity=127, time=0),
    Message('note_on', channel=9, note=51, velocity=127, time=0),
    Message('note_on', channel=9, note=38, velocity=0, time=64),
    Message('note_on', channel=9, note=42, velocity=0, time=0),
    Message('note_on', channel=9, note=51, velocity=0, time=0),
    Message('note_on', channel=9, note=38, velocity=127, time=0),
    Message('note_on', channel=9, note=42, velocity=127, time=0),
    Message('note_on', channel=9, note=51, velocity=127, time=0),
    Message('note_on', channel=9, note=38, velocity=0, time=64),
    Message('note_on', channel=9, note=42, velocity=0, time=0),
    Message('note_on', channel=9, note=51, velocity=0, time=0),
    Message('note_on', channel=9, note=42, velocity=127, time=0),
    Message('note_on', channel=9, note=42, velocity=0, time=64),
    Message('note_on', channel=9, note=35, velocity=127, time=0),
    Message('note_on', channel=9, note=42, velocity=127, time=0),
    Message('note_on', channel=9, note=35, velocity=0, time=64),
    Message('note_on', channel=9, note=42, velocity=0, time=0),
    Message('note_on', channel=9, note=35, velocity=127, time=0),
    Message('note_on', channel=9, note=38, velocity=127, time=0),
    Message('note_on', channel=9, note=42, velocity=127, time=0),
    Message('note_on', channel=9, note=51, velocity=127, time=0),
    Message('note_on', channel=9, note=35, velocity=0, time=64),
    Message('note_on', channel=9, note=38, velocity=0, time=0),
    Message('note_on', channel=9, note=42, velocity=0, time=0),
    Message('note_on', channel=9, note=51, velocity=0, time=0),
    Message('note_on', channel=9, note=38, velocity=127, time=0),
    Message('note_on', channel=9, note=42, velocity=127, time=0),
    Message('note_on', channel=9, note=51, velocity=127, time=0),
    Message('note_on', channel=9, note=38, velocity=0, time=64),
    Message('note_on', channel=9, note=42, velocity=0, time=0),
    Message('note_on', channel=9, note=51, velocity=0, time=0),
    Message('note_on', channel=9, note=35, velocity=127, time=0),
    Message('note_on', channel=9, note=38, velocity=127, time=0),
    Message('note_on', channel=9, note=42, velocity=127, time=0),
    Message('note_on', channel=9, note=51, velocity=127, time=0),
    Message('note_on', channel=9, note=35, velocity=0, time=64),
    Message('note_on', channel=9, note=38, velocity=0, time=0),
    Message('note_on', channel=9, note=42, velocity=0, time=0),
    Message('note_on', channel=9, note=51, velocity=0, time=0),
    Message('note_on', channel=9, note=38, velocity=127, time=0),
    Message('note_on', channel=9, note=42, velocity=127, time=0),
    Message('note_on', channel=9, note=51, velocity=127, time=0),
    Message('note_on', channel=9, note=38, velocity=0, time=64),
    Message('note_on', channel=9, note=42, velocity=0, time=0),
    Message('note_on', channel=9, note=51, velocity=0, time=0),
    Message('note_on', channel=9, note=35, velocity=127, time=0),
    Message('note_on', channel=9, note=42, velocity=127, time=0),
    Message('note_on', channel=9, note=35, velocity=0, time=64),
    Message('note_on', channel=9, note=42, velocity=0, time=0),
    Message('note_on', channel=9, note=35, velocity=127, time=0),
    Message('note_on', channel=9, note=46, velocity=127, time=0),
    Message('note_on', channel=9, note=35, velocity=0, time=64),
    Message('note_on', channel=9, note=46, velocity=0, time=0),
    Message('note_on', channel=9, note=35, velocity=127, time=0),
    Message('note_on', channel=9, note=38, velocity=127, time=0),
    Message('note_on', channel=9, note=42, velocity=127, time=0),
    Message('note_on', channel=9, note=51, velocity=127, time=0),
    Message('note_on', channel=9, note=35, velocity=0, time=64),
    Message('note_on', channel=9, note=38, velocity=0, time=0),
    Message('note_on', channel=9, note=42, velocity=0, time=0),
    Message('note_on', channel=9, note=51, velocity=0, time=0),
    Message('note_on', channel=9, note=38, velocity=127, time=0),
    Message('note_on', channel=9, note=42, velocity=127, time=0),
    Message('note_on', channel=9, note=51, velocity=127, time=0),
    Message('note_on', channel=9, note=38, velocity=0, time=64),
    Message('note_on', channel=9, note=42, velocity=0, time=0),
    Message('note_on', channel=9, note=51, velocity=0, time=0),
    Message('note_on', channel=9, note=38, velocity=127, time=0),
    Message('note_on', channel=9, note=42, velocity=127, time=0),
    Message('note_on', channel=9, note=51, velocity=127, time=0),
    Message('note_on', channel=9, note=38, velocity=0, time=64),
    Message('note_on', channel=9, note=42, velocity=0, time=0),
    Message('note_on', channel=9, note=51, velocity=0, time=0),
    Message('note_on', channel=9, note=38, velocity=127, time=0),
    Message('note_on', channel=9, note=42, velocity=127, time=0),
    Message('note_on', channel=9, note=51, velocity=127, time=0),
    Message('note_on', channel=9, note=38, velocity=0, time=64),
    Message('note_on', channel=9, note=42, velocity=0, time=0),
    Message('note_on', channel=9, note=51, velocity=0, time=0),
    Message('note_on', channel=9, note=42, velocity=127, time=0),
    Message('note_on', channel=9, note=42, velocity=0, time=64),
    Message('note_on', channel=9, note=35, velocity=127, time=0),
    Message('note_on', channel=9, note=42, velocity=127, time=0),
    Message('note_on', channel=9, note=35, velocity=0, time=64),
    Message('note_on', channel=9, note=42, velocity=0, time=0),
    Message('note_on', channel=9, note=35, velocity=127, time=0),
    Message('note_on', channel=9, note=38, velocity=127, time=0),
    Message('note_on', channel=9, note=42, velocity=127, time=0),
    Message('note_on', channel=9, note=51, velocity=127, time=0),
    Message('note_on', channel=9, note=35, velocity=0, time=64),
    Message('note_on', channel=9, note=38, velocity=0, time=0),
    Message('note_on', channel=9, note=42, velocity=0, time=0),
    Message('note_on', channel=9, note=51, velocity=0, time=0),
    Message('note_on', channel=9, note=38, velocity=127, time=0),
    Message('note_on', channel=9, note=42, velocity=127, time=0),
    Message('note_on', channel=9, note=51, velocity=127, time=0),
    Message('note_on', channel=9, note=38, velocity=0, time=64),
    Message('note_on', channel=9, note=42, velocity=0, time=0),
    Message('note_on', channel=9, note=51, velocity=0, time=0),
    Message('note_on', channel=9, note=38, velocity=127, time=0),
    Message('note_on', channel=9, note=42, velocity=127, time=0),
    Message('note_on', channel=9, note=51, velocity=127, time=0),
    Message('note_on', channel=9, note=38, velocity=0, time=64),
    Message('note_on', channel=9, note=42, velocity=0, time=0),
    Message('note_on', channel=9, note=51, velocity=0, time=0),
    Message('note_on', channel=9, note=38, velocity=127, time=0),
    Message('note_on', channel=9, note=42, velocity=127, time=0),
    Message('note_on', channel=9, note=51, velocity=127, time=0),
    Message('note_on', channel=9, note=38, velocity=0, time=64),
    Message('note_on', channel=9, note=42, velocity=0, time=0),
    Message('note_on', channel=9, note=51, velocity=0, time=0),
    Message('note_on', channel=9, note=42, velocity=127, time=0),
    Message('note_on', channel=9, note=42, velocity=0, time=64),
    Message('note_on', channel=9, note=35, velocity=127, time=0),
    Message('note_on', channel=9, note=42, velocity=127, time=0),
    Message('note_on', channel=9, note=35, velocity=0, time=64),
    Message('note_on', channel=9, note=42, velocity=0, time=0),
    Message('note_on', channel=9, note=35, velocity=127, time=0),
    Message('note_on', channel=9, note=38, velocity=127, time=0),
    Message('note_on', channel=9, note=42, velocity=127, time=0),
    Message('note_on', channel=9, note=51, velocity=127, time=0),
    Message('note_on', channel=9, note=35, velocity=0, time=64),
    Message('note_on', channel=9, note=38, velocity=0, time=0),
    Message('note_on', channel=9, note=42, velocity=0, time=0),
    Message('note_on', channel=9, note=51, velocity=0, time=0),
    Message('note_on', channel=9, note=38, velocity=127, time=0),
    Message('note_on', channel=9, note=42, velocity=127, time=0),
    Message('note_on', channel=9, note=51, velocity=127, time=0),
    Message('note_on', channel=9, note=38, velocity=0, time=64),
    Message('note_on', channel=9, note=42, velocity=0, time=0),
    Message('note_on', channel=9, note=51, velocity=0, time=0),
    Message('note_on', channel=9, note=38, velocity=127, time=0),
    Message('note_on', channel=9, note=42, velocity=127, time=0),
    Message('note_on', channel=9, note=51, velocity=127, time=0),
    Message('note_on', channel=9, note=38, velocity=0, time=64),
    Message('note_on', channel=9, note=42, velocity=0, time=0),
    Message('note_on', channel=9, note=51, velocity=0, time=0),
    Message('note_on', channel=9, note=38, velocity=127, time=0),
    Message('note_on', channel=9, note=42, velocity=127, time=0),
    Message('note_on', channel=9, note=51, velocity=127, time=0),
    Message('note_on', channel=9, note=38, velocity=0, time=64),
    Message('note_on', channel=9, note=42, velocity=0, time=0),
    Message('note_on', channel=9, note=51, velocity=0, time=0),
    Message('note_on', channel=9, note=42, velocity=127, time=0),
    Message('note_on', channel=9, note=42, velocity=0, time=64),
    Message('note_on', channel=9, note=35, velocity=127, time=0),
    Message('note_on', channel=9, note=42, velocity=127, time=0),
    Message('note_on', channel=9, note=35, velocity=0, time=64),
    Message('note_on', channel=9, note=42, velocity=0, time=0),
    Message('note_on', channel=9, note=35, velocity=127, time=0),
    Message('note_on', channel=9, note=38, velocity=127, time=0),
    Message('note_on', channel=9, note=42, velocity=127, time=0),
    Message('note_on', channel=9, note=51, velocity=127, time=0),
    Message('note_on', channel=9, note=35, velocity=0, time=64),
    Message('note_on', channel=9, note=38, velocity=0, time=0),
    Message('note_on', channel=9, note=42, velocity=0, time=0),
    Message('note_on', channel=9, note=51, velocity=0, time=0),
    Message('note_on', channel=9, note=38, velocity=127, time=0),
    Message('note_on', channel=9, note=42, velocity=127, time=0),
    Message('note_on', channel=9, note=51, velocity=127, time=0),
    Message('note_on', channel=9, note=38, velocity=0, time=64),
    Message('note_on', channel=9, note=42, velocity=0, time=0),
    Message('note_on', channel=9, note=51, velocity=0, time=0),
    Message('note_on', channel=9, note=35, velocity=127, time=0),
    Message('note_on', channel=9, note=38, velocity=127, time=0),
    Message('note_on', channel=9, note=42, velocity=127, time=0),
    Message('note_on', channel=9, note=51, velocity=127, time=0),
    Message('note_on', channel=9, note=35, velocity=0, time=64),
    Message('note_on', channel=9, note=38, velocity=0, time=0),
    Message('note_on', channel=9, note=42, velocity=0, time=0),
    Message('note_on', channel=9, note=51, velocity=0, time=0),
    Message('note_on', channel=9, note=38, velocity=127, time=0),
    Message('note_on', channel=9, note=42, velocity=127, time=0),
    Message('note_on', channel=9, note=51, velocity=127, time=0),
    Message('note_on', channel=9, note=38, velocity=0, time=64),
    Message('note_on', channel=9, note=42, velocity=0, time=0),
    Message('note_on', channel=9, note=51, velocity=0, time=0),
    Message('note_on', channel=9, note=35, velocity=127, time=0),
    Message('note_on', channel=9, note=42, velocity=127, time=0),
    Message('note_on', channel=9, note=35, velocity=0, time=64),
    Message('note_on', channel=9, note=42, velocity=0, time=0),
    Message('note_on', channel=9, note=35, velocity=127, time=0),
    Message('note_on', channel=9, note=46, velocity=127, time=0),
    Message('note_on', channel=9, note=35, velocity=0, time=64),
    Message('note_on', channel=9, note=46, velocity=0, time=0),
    Message('note_on', channel=9, note=35, velocity=127, time=0),
    Message('note_on', channel=9, note=38, velocity=127, time=0),
    Message('note_on', channel=9, note=42, velocity=127, time=0),
    Message('note_on', channel=9, note=51, velocity=127, time=0),
    Message('note_on', channel=9, note=35, velocity=0, time=64),
    Message('note_on', channel=9, note=38, velocity=0, time=0),
    Message('note_on', channel=9, note=42, velocity=0, time=0),
    Message('note_on', channel=9, note=51, velocity=0, time=0),
    Message('note_on', channel=9, note=38, velocity=127, time=0),
    Message('note_on', channel=9, note=42, velocity=127, time=0),
    Message('note_on', channel=9, note=51, velocity=127, time=0),
    Message('note_on', channel=9, note=38, velocity=0, time=64),
    Message('note_on', channel=9, note=42, velocity=0, time=0),
    Message('note_on', channel=9, note=51, velocity=0, time=0),
    Message('note_on', channel=9, note=38, velocity=127, time=0),
    Message('note_on', channel=9, note=42, velocity=127, time=0),
    Message('note_on', channel=9, note=51, velocity=127, time=0),
    Message('note_on', channel=9, note=38, velocity=0, time=64),
    Message('note_on', channel=9, note=42, velocity=0, time=0),
    Message('note_on', channel=9, note=51, velocity=0, time=0),
    Message('note_on', channel=9, note=38, velocity=127, time=0),
    Message('note_on', channel=9, note=42, velocity=127, time=0),
    Message('note_on', channel=9, note=51, velocity=127, time=0),
    Message('note_on', channel=9, note=38, velocity=0, time=64),
    Message('note_on', channel=9, note=42, velocity=0, time=0),
    Message('note_on', channel=9, note=51, velocity=0, time=0),
    Message('note_on', channel=9, note=42, velocity=127, time=0),
    Message('note_on', channel=9, note=42, velocity=0, time=64),
    Message('note_on', channel=9, note=35, velocity=127, time=0),
    Message('note_on', channel=9, note=42, velocity=127, time=0),
    Message('note_on', channel=9, note=35, velocity=0, time=64),
    Message('note_on', channel=9, note=42, velocity=0, time=0),
    Message('note_on', channel=9, note=35, velocity=127, time=0),
    Message('note_on', channel=9, note=38, velocity=127, time=0),
    Message('note_on', channel=9, note=42, velocity=127, time=0),
    Message('note_on', channel=9, note=51, velocity=127, time=0),
    Message('note_on', channel=9, note=35, velocity=0, time=64),
    Message('note_on', channel=9, note=38, velocity=0, time=0),
    Message('note_on', channel=9, note=42, velocity=0, time=0),
    Message('note_on', channel=9, note=51, velocity=0, time=0),
    Message('note_on', channel=9, note=38, velocity=127, time=0),
    Message('note_on', channel=9, note=42, velocity=127, time=0),
    Message('note_on', channel=9, note=51, velocity=127, time=0),
    Message('note_on', channel=9, note=38, velocity=0, time=64),
    Message('note_on', channel=9, note=42, velocity=0, time=0),
    Message('note_on', channel=9, note=51, velocity=0, time=0),
    Message('note_on', channel=9, note=38, velocity=127, time=0),
    Message('note_on', channel=9, note=42, velocity=127, time=0),
    Message('note_on', channel=9, note=51, velocity=127, time=0),
    Message('note_on', channel=9, note=38, velocity=0, time=64),
    Message('note_on', channel=9, note=42, velocity=0, time=0),
    Message('note_on', channel=9, note=51, velocity=0, time=0),
    Message('note_on', channel=9, note=38, velocity=127, time=0),
    Message('note_on', channel=9, note=42, velocity=127, time=0),
    Message('note_on', channel=9, note=51, velocity=127, time=0),
    Message('note_on', channel=9, note=38, velocity=0, time=64),
    Message('note_on', channel=9, note=42, velocity=0, time=0),
    Message('note_on', channel=9, note=51, velocity=0, time=0),
    Message('note_on', channel=9, note=42, velocity=127, time=0),
    Message('note_on', channel=9, note=42, velocity=0, time=64),
    Message('note_on', channel=9, note=35, velocity=127, time=0),
    Message('note_on', channel=9, note=42, velocity=127, time=0),
    Message('note_on', channel=9, note=35, velocity=0, time=64),
    Message('note_on', channel=9, note=42, velocity=0, time=0),
    Message('note_on', channel=9, note=35, velocity=127, time=0),
    Message('note_on', channel=9, note=38, velocity=127, time=0),
    Message('note_on', channel=9, note=42, velocity=127, time=0),
    Message('note_on', channel=9, note=51, velocity=127, time=0),
    Message('note_on', channel=9, note=35, velocity=0, time=64),
    Message('note_on', channel=9, note=38, velocity=0, time=0),
    Message('note_on', channel=9, note=42, velocity=0, time=0),
    Message('note_on', channel=9, note=51, velocity=0, time=0),
    Message('note_on', channel=9, note=38, velocity=127, time=0),
    Message('note_on', channel=9, note=42, velocity=127, time=0),
    Message('note_on', channel=9, note=51, velocity=127, time=0),
    Message('note_on', channel=9, note=38, velocity=0, time=64),
    Message('note_on', channel=9, note=42, velocity=0, time=0),
    Message('note_on', channel=9, note=51, velocity=0, time=0),
    Message('note_on', channel=9, note=38, velocity=127, time=0),
    Message('note_on', channel=9, note=42, velocity=127, time=0),
    Message('note_on', channel=9, note=51, velocity=127, time=0),
    Message('note_on', channel=9, note=38, velocity=0, time=64),
    Message('note_on', channel=9, note=42, velocity=0, time=0),
    Message('note_on', channel=9, note=51, velocity=0, time=0),
    Message('note_on', channel=9, note=38, velocity=127, time=0),
    Message('note_on', channel=9, note=42, velocity=127, time=0),
    Message('note_on', channel=9, note=51, velocity=127, time=0),
    Message('note_on', channel=9, note=38, velocity=0, time=64),
    Message('note_on', channel=9, note=42, velocity=0, time=0),
    Message('note_on', channel=9, note=51, velocity=0, time=0),
    Message('note_on', channel=9, note=42, velocity=127, time=0),
    Message('note_on', channel=9, note=42, velocity=0, time=64),
    Message('note_on', channel=9, note=35, velocity=127, time=0),
    Message('note_on', channel=9, note=42, velocity=127, time=0),
    Message('note_on', channel=9, note=35, velocity=0, time=64),
    Message('note_on', channel=9, note=42, velocity=0, time=0),
    Message('note_on', channel=9, note=35, velocity=127, time=0),
    Message('note_on', channel=9, note=38, velocity=127, time=0),
    Message('note_on', channel=9, note=42, velocity=127, time=0),
    Message('note_on', channel=9, note=51, velocity=127, time=0),
    Message('note_on', channel=9, note=35, velocity=0, time=64),
    Message('note_on', channel=9, note=38, velocity=0, time=0),
    Message('note_on', channel=9, note=42, velocity=0, time=0),
    Message('note_on', channel=9, note=51, velocity=0, time=0),
    Message('note_on', channel=9, note=38, velocity=127, time=0),
    Message('note_on', channel=9, note=42, velocity=127, time=0),
    Message('note_on', channel=9, note=51, velocity=127, time=0),
    Message('note_on', channel=9, note=38, velocity=0, time=64),
    Message('note_on', channel=9, note=42, velocity=0, time=0),
    Message('note_on', channel=9, note=51, velocity=0, time=0),
    Message('note_on', channel=9, note=35, velocity=127, time=0),
    Message('note_on', channel=9, note=38, velocity=127, time=0),
    Message('note_on', channel=9, note=42, velocity=127, time=0),
    Message('note_on', channel=9, note=51, velocity=127, time=0),
    Message('note_on', channel=9, note=35, velocity=0, time=64),
    Message('note_on', channel=9, note=38, velocity=0, time=0),
    Message('note_on', channel=9, note=42, velocity=0, time=0),
    Message('note_on', channel=9, note=51, velocity=0, time=0),
    Message('note_on', channel=9, note=38, velocity=127, time=0),
    Message('note_on', channel=9, note=42, velocity=127, time=0),
    Message('note_on', channel=9, note=51, velocity=127, time=0),
    Message('note_on', channel=9, note=38, velocity=0, time=64),
    Message('note_on', channel=9, note=42, velocity=0, time=0),
    Message('note_on', channel=9, note=51, velocity=0, time=0),
    Message('note_on', channel=9, note=35, velocity=127, time=0),
    Message('note_on', channel=9, note=42, velocity=127, time=0),
    Message('note_on', channel=9, note=35, velocity=0, time=64),
    Message('note_on', channel=9, note=42, velocity=0, time=0),
    Message('note_on', channel=9, note=35, velocity=127, time=0),
    Message('note_on', channel=9, note=42, velocity=127, time=0),
    Message('note_on', channel=9, note=35, velocity=0, time=64),
    Message('note_on', channel=9, note=42, velocity=0, time=0),
    Message('note_on', channel=9, note=35, velocity=127, time=0),
    Message('note_on', channel=9, note=38, velocity=127, time=0),
    Message('note_on', channel=9, note=42, velocity=127, time=0),
    Message('note_on', channel=9, note=51, velocity=127, time=0),
    Message('note_on', channel=9, note=35, velocity=0, time=64),
    Message('note_on', channel=9, note=38, velocity=0, time=0),
    Message('note_on', channel=9, note=42, velocity=0, time=0),
    Message('note_on', channel=9, note=51, velocity=0, time=0),
    Message('note_on', channel=9, note=38, velocity=127, time=0),
    Message('note_on', channel=9, note=42, velocity=127, time=0),
    Message('note_on', channel=9, note=51, velocity=127, time=0),
    Message('note_on', channel=9, note=38, velocity=0, time=64),
    Message('note_on', channel=9, note=42, velocity=0, time=0),
    Message('note_on', channel=9, note=51, velocity=0, time=0),
    Message('note_on', channel=9, note=38, velocity=127, time=0),
    Message('note_on', channel=9, note=42, velocity=127, time=0),
    Message('note_on', channel=9, note=51, velocity=127, time=0),
    Message('note_on', channel=9, note=38, velocity=0, time=64),
    Message('note_on', channel=9, note=42, velocity=0, time=0),
    Message('note_on', channel=9, note=51, velocity=0, time=0),
    Message('note_on', channel=9, note=38, velocity=127, time=0),
    Message('note_on', channel=9, note=42, velocity=127, time=0),
    Message('note_on', channel=9, note=51, velocity=127, time=0),
    Message('note_on', channel=9, note=38, velocity=0, time=64),
    Message('note_on', channel=9, note=42, velocity=0, time=0),
    Message('note_on', channel=9, note=51, velocity=0, time=0),
    Message('note_on', channel=9, note=38, velocity=127, time=0),
    Message('note_on', channel=9, note=42, velocity=127, time=0),
    Message('note_on', channel=9, note=51, velocity=127, time=0),
    Message('note_on', channel=9, note=38, velocity=0, time=64),
    Message('note_on', channel=9, note=42, velocity=0, time=0),
    Message('note_on', channel=9, note=51, velocity=0, time=0),
    Message('note_on', channel=9, note=35, velocity=127, time=0),
    Message('note_on', channel=9, note=38, velocity=127, time=0),
    Message('note_on', channel=9, note=42, velocity=127, time=0),
    Message('note_on', channel=9, note=51, velocity=127, time=0),
    Message('note_on', channel=9, note=35, velocity=0, time=64),
    Message('note_on', channel=9, note=38, velocity=0, time=0),
    Message('note_on', channel=9, note=42, velocity=0, time=0),
    Message('note_on', channel=9, note=51, velocity=0, time=0),
    Message('note_on', channel=9, note=35, velocity=127, time=0),
    Message('note_on', channel=9, note=38, velocity=127, time=0),
    Message('note_on', channel=9, note=42, velocity=127, time=0),
    Message('note_on', channel=9, note=51, velocity=127, time=0),
    Message('note_on', channel=9, note=35, velocity=0, time=64),
    Message('note_on', channel=9, note=38, velocity=0, time=0),
    Message('note_on', channel=9, note=42, velocity=0, time=0),
    Message('note_on', channel=9, note=51, velocity=0, time=0),
    Message('note_on', channel=9, note=38, velocity=127, time=0),
    Message('note_on', channel=9, note=42, velocity=127, time=0),
    Message('note_on', channel=9, note=51, velocity=127, time=0),
    Message('note_on', channel=9, note=38, velocity=0, time=64),
    Message('note_on', channel=9, note=42, velocity=0, time=0),
    Message('note_on', channel=9, note=51, velocity=0, time=0),
    Message('note_on', channel=9, note=38, velocity=127, time=0),
    Message('note_on', channel=9, note=42, velocity=127, time=0),
    Message('note_on', channel=9, note=51, velocity=127, time=0),
    Message('note_on', channel=9, note=38, velocity=0, time=64),
    Message('note_on', channel=9, note=42, velocity=0, time=0),
    Message('note_on', channel=9, note=51, velocity=0, time=0),
    Message('note_on', channel=9, note=38, velocity=127, time=0),
    Message('note_on', channel=9, note=42, velocity=127, time=0),
    Message('note_on', channel=9, note=51, velocity=127, time=0),
    Message('note_on', channel=9, note=38, velocity=0, time=64),
    Message('note_on', channel=9, note=42, velocity=0, time=0),
    Message('note_on', channel=9, note=51, velocity=0, time=0),
    Message('note_on', channel=9, note=38, velocity=127, time=0),
    Message('note_on', channel=9, note=42, velocity=127, time=0),
    Message('note_on', channel=9, note=51, velocity=127, time=0),
    Message('note_on', channel=9, note=38, velocity=0, time=64),
    Message('note_on', channel=9, note=42, velocity=0, time=0),
    Message('note_on', channel=9, note=51, velocity=0, time=0),
    Message('note_on', channel=9, note=35, velocity=127, time=0),
    Message('note_on', channel=9, note=38, velocity=127, time=0),
    Message('note_on', channel=9, note=42, velocity=127, time=0),
    Message('note_on', channel=9, note=51, velocity=127, time=0),
    Message('note_on', channel=9, note=35, velocity=0, time=64),
    Message('note_on', channel=9, note=38, velocity=0, time=0),
    Message('note_on', channel=9, note=42, velocity=0, time=0),
    Message('note_on', channel=9, note=51, velocity=0, time=0),
    Message('note_on', channel=9, note=35, velocity=127, time=0),
    Message('note_on', channel=9, note=38, velocity=127, time=0),
    Message('note_on', channel=9, note=42, velocity=127, time=0),
    Message('note_on', channel=9, note=51, velocity=127, time=0),
    Message('note_on', channel=9, note=35, velocity=0, time=64),
    Message('note_on', channel=9, note=38, velocity=0, time=0),
    Message('note_on', channel=9, note=42, velocity=0, time=0),
    Message('note_on', channel=9, note=51, velocity=0, time=0),
    Message('note_on', channel=9, note=38, velocity=127, time=0),
    Message('note_on', channel=9, note=42, velocity=127, time=0),
    Message('note_on', channel=9, note=51, velocity=127, time=0),
    Message('note_on', channel=9, note=38, velocity=0, time=64),
    Message('note_on', channel=9, note=42, velocity=0, time=0),
    Message('note_on', channel=9, note=51, velocity=0, time=0),
    Message('note_on', channel=9, note=38, velocity=127, time=0),
    Message('note_on', channel=9, note=42, velocity=127, time=0),
    Message('note_on', channel=9, note=51, velocity=127, time=0),
    Message('note_on', channel=9, note=38, velocity=0, time=64),
    Message('note_on', channel=9, note=42, velocity=0, time=0),
    Message('note_on', channel=9, note=51, velocity=0, time=0),
    Message('note_on', channel=9, note=38, velocity=127, time=0),
    Message('note_on', channel=9, note=42, velocity=127, time=0),
    Message('note_on', channel=9, note=51, velocity=127, time=0),
    Message('note_on', channel=9, note=38, velocity=0, time=64),
    Message('note_on', channel=9, note=42, velocity=0, time=0),
    Message('note_on', channel=9, note=51, velocity=0, time=0),
    Message('note_on', channel=9, note=38, velocity=127, time=0),
    Message('note_on', channel=9, note=42, velocity=127, time=0),
    Message('note_on', channel=9, note=51, velocity=127, time=0),
    Message('note_on', channel=9, note=38, velocity=0, time=64),
    Message('note_on', channel=9, note=42, velocity=0, time=0),
    Message('note_on', channel=9, note=51, velocity=0, time=0),
    Message('note_on', channel=9, note=35, velocity=127, time=0),
    Message('note_on', channel=9, note=38, velocity=127, time=0),
    Message('note_on', channel=9, note=42, velocity=127, time=0),
    Message('note_on', channel=9, note=51, velocity=127, time=0),
    Message('note_on', channel=9, note=35, velocity=0, time=64),
    Message('note_on', channel=9, note=38, velocity=0, time=0),
    Message('note_on', channel=9, note=42, velocity=0, time=0),
    Message('note_on', channel=9, note=51, velocity=0, time=0),
    Message('note_on', channel=9, note=35, velocity=127, time=0),
    Message('note_on', channel=9, note=38, velocity=127, time=0),
    Message('note_on', channel=9, note=42, velocity=127, time=0),
    Message('note_on', channel=9, note=51, velocity=127, time=0),
    Message('note_on', channel=9, note=35, velocity=0, time=64),
    Message('note_on', channel=9, note=38, velocity=0, time=0),
    Message('note_on', channel=9, note=42, velocity=0, time=0),
    Message('note_on', channel=9, note=51, velocity=0, time=0),
    Message('note_on', channel=9, note=38, velocity=127, time=0),
    Message('note_on', channel=9, note=42, velocity=127, time=0),
    Message('note_on', channel=9, note=51, velocity=127, time=0),
    Message('note_on', channel=9, note=38, velocity=0, time=64),
    Message('note_on', channel=9, note=42, velocity=0, time=0),
    Message('note_on', channel=9, note=51, velocity=0, time=0),
    Message('note_on', channel=9, note=38, velocity=127, time=0),
    Message('note_on', channel=9, note=42, velocity=127, time=0),
    Message('note_on', channel=9, note=51, velocity=127, time=0),
    Message('note_on', channel=9, note=38, velocity=0, time=64),
    Message('note_on', channel=9, note=42, velocity=0, time=0),
    Message('note_on', channel=9, note=51, velocity=0, time=0),
    Message('note_on', channel=9, note=38, velocity=127, time=0),
    Message('note_on', channel=9, note=42, velocity=127, time=0),
    Message('note_on', channel=9, note=51, velocity=127, time=0),
    Message('note_on', channel=9, note=38, velocity=0, time=64),
    Message('note_on', channel=9, note=42, velocity=0, time=0),
    Message('note_on', channel=9, note=51, velocity=0, time=0),
    Message('note_on', channel=9, note=38, velocity=127, time=0),
    Message('note_on', channel=9, note=42, velocity=127, time=0),
    Message('note_on', channel=9, note=51, velocity=127, time=0),
    Message('note_on', channel=9, note=38, velocity=0, time=64),
    Message('note_on', channel=9, note=42, velocity=0, time=0),
    Message('note_on', channel=9, note=51, velocity=0, time=0),
    Message('note_on', channel=9, note=35, velocity=127, time=0),
    Message('note_on', channel=9, note=38, velocity=127, time=0),
    Message('note_on', channel=9, note=42, velocity=127, time=0),
    Message('note_on', channel=9, note=51, velocity=127, time=0),
    Message('note_on', channel=9, note=35, velocity=0, time=64),
    Message('note_on', channel=9, note=38, velocity=0, time=0),
    Message('note_on', channel=9, note=42, velocity=0, time=0),
    Message('note_on', channel=9, note=51, velocity=0, time=0),
    Message('note_on', channel=9, note=35, velocity=127, time=0),
    Message('note_on', channel=9, note=38, velocity=127, time=0),
    Message('note_on', channel=9, note=42, velocity=127, time=0),
    Message('note_on', channel=9, note=51, velocity=127, time=0),
    Message('note_on', channel=9, note=48, velocity=127, time=0),
    Message('note_on', channel=9, note=35, velocity=0, time=64),
    Message('note_on', channel=9, note=38, velocity=0, time=0),
    Message('note_on', channel=9, note=42, velocity=0, time=0),
    Message('note_on', channel=9, note=51, velocity=0, time=0),
    Message('note_on', channel=9, note=48, velocity=0, time=0),
    Message('note_on', channel=9, note=45, velocity=127, time=0),
    Message('note_on', channel=9, note=45, velocity=0, time=64),
    Message('note_on', channel=9, note=41, velocity=127, time=0),
    Message('note_on', channel=9, note=41, velocity=0, time=64),
    Message('note_on', channel=9, note=35, velocity=127, time=0),
    Message('note_on', channel=9, note=38, velocity=127, time=0),
    Message('note_on', channel=9, note=42, velocity=127, time=0),
    Message('note_on', channel=9, note=51, velocity=127, time=0),
    Message('note_on', channel=9, note=35, velocity=0, time=64),
    Message('note_on', channel=9, note=38, velocity=0, time=0),
    Message('note_on', channel=9, note=42, velocity=0, time=0),
    Message('note_on', channel=9, note=51, velocity=0, time=0),
    Message('note_on', channel=9, note=46, velocity=127, time=0),
    Message('note_on', channel=9, note=46, velocity=0, time=64),
    Message('note_on', channel=9, note=42, velocity=127, time=0),
    Message('note_on', channel=9, note=42, velocity=0, time=64),
    Message('note_on', channel=9, note=35, velocity=127, time=0),
    Message('note_on', channel=9, note=38, velocity=127, time=0),
    Message('note_on', channel=9, note=42, velocity=127, time=0),
    Message('note_on', channel=9, note=49, velocity=127, time=0),
    Message('note_on', channel=9, note=41, velocity=127, time=0),
    Message('note_on', channel=9, note=35, velocity=0, time=64),
    Message('note_on', channel=9, note=38, velocity=0, time=0),
    Message('note_on', channel=9, note=42, velocity=0, time=0),
    Message('note_on', channel=9, note=49, velocity=0, time=0),
    Message('note_on', channel=9, note=41, velocity=0, time=0),
    Message('note_on', channel=9, note=43, velocity=127, time=358),
    Message('note_on', channel=9, note=43, velocity=0, time=18),
    Message('note_on', channel=9, note=41, velocity=127, time=2),
    Message('note_on', channel=9, note=38, velocity=127, time=15),
    Message('note_on', channel=9, note=41, velocity=0, time=8),
    Message('note_on', channel=9, note=38, velocity=0, time=59),
    MetaMessage('end_of_track', time=0)])
])
