MidiFile(type=1, ticks_per_beat=240, tracks=[
  MidiTrack([
    MetaMessage('set_tempo', tempo=500000, time=0),
    MetaMessage('time_signature', numerator=4, denominator=4, clocks_per_click=24, notated_32nd_notes_per_beat=8, time=0),
    MetaMessage('set_tempo', tempo=348837, time=0),
    MetaMessage('end_of_track', time=0)]),
  MidiTrack([
    MetaMessage('midi_port', port=0, time=0),
    MetaMessage('channel_prefix', channel=1, time=0),
    Message('program_change', channel=1, program=33, time=0),
    Message('note_on', channel=1, note=29, velocity=127, time=960),
    Message('note_on', channel=1, note=29, velocity=0, time=140),
    Message('note_on', channel=1, note=29, velocity=127, time=100),
    Message('note_on', channel=1, note=29, velocity=0, time=700),
    Message('note_on', channel=1, note=27, velocity=127, time=20),
    Message('note_on', channel=1, note=27, velocity=0, time=140),
    Message('note_on', channel=1, note=27, velocity=127, time=100),
    Message('note_on', channel=1, note=27, velocity=0, time=700),
    Message('note_on', channel=1, note=34, velocity=127, time=20),
    Message('note_on', channel=1, note=34, velocity=0, time=140),
    Message('note_on', channel=1, note=34, velocity=127, time=100),
    Message('note_on', channel=1, note=34, velocity=0, time=700),
    Message('note_on', channel=1, note=38, velocity=127, time=20),
    Message('note_on', channel=1, note=38, velocity=0, time=460),
    Message('note_on', channel=1, note=36, velocity=127, time=20),
    Message('note_on', channel=1, note=36, velocity=0, time=460),
    Message('note_on', channel=1, note=29, velocity=127, time=20),
    Message('note_on', channel=1, note=29, velocity=0, time=140),
    Message('note_on', channel=1, note=29, velocity=127, time=100),
    Message('note_on', channel=1, note=29, velocity=0, time=700),
    Message('note_on', channel=1, note=27, velocity=127, time=20),
    Message('note_on', channel=1, note=27, velocity=0, time=140),
    Message('note_on', channel=1, note=27, velocity=127, time=100),
    Message('note_on', channel=1, note=27, velocity=0, time=700),
    Message('note_on', channel=1, note=34, velocity=127, time=20),
    Message('note_on', channel=1, note=34, velocity=0, time=140),
    Message('note_on', channel=1, note=34, velocity=127, time=100),
    Message('note_on', channel=1, note=34, velocity=0, time=700),
    Message('note_on', channel=1, note=33, velocity=127, time=20),
    Message('note_on', channel=1, note=33, velocity=0, time=240),
    Message('note_on', channel=1, note=31, velocity=127, time=0),
    Message('note_on', channel=1, note=31, velocity=0, time=160),
    Message('note_on', channel=1, note=29, velocity=127, time=0),
    Message('note_on', channel=1, note=29, velocity=0, time=80),
    Message('note_on', channel=1, note=31, velocity=127, time=0),
    Message('note_on', channel=1, note=31, velocity=0, time=160),
    Message('note_on', channel=1, note=29, velocity=127, time=0),
    Message('note_on', channel=1, note=29, velocity=0, time=80),
    Message('note_on', channel=1, note=26, velocity=127, time=0),
    Message('note_on', channel=1, note=26, velocity=0, time=160),
    Message('note_on', channel=1, note=29, velocity=127, time=0),
    Message('note_on', channel=1, note=29, velocity=0, time=220),
    Message('note_on', channel=1, note=27, velocity=106, time=820),
    Message('note_on', channel=1, note=27, velocity=0, time=240),
    Message('note_on', channel=1, note=27, velocity=107, time=0),
    Message('note_on', channel=1, note=27, velocity=0, time=720),
    Message('note_on', channel=1, note=34, velocity=105, time=0),
    Message('note_on', channel=1, note=34, velocity=0, time=240),
    Message('note_on', channel=1, note=34, velocity=104, time=0),
    Message('note_on', channel=1, note=34, velocity=0, time=700),
    Message('note_on', channel=1, note=34, velocity=103, time=20),
    Message('note_on', channel=1, note=34, velocity=0, time=240),
    Message('note_on', channel=1, note=34, velocity=101, time=0),
    Message('note_on', channel=1, note=34, velocity=0, time=440),
    Message('note_on', channel=1, note=34, velocity=127, time=40),
    Message('note_on', channel=1, note=34, velocity=0, time=160),
    Message('note_on', channel=1, note=36, velocity=127, time=0),
    Message('note_on', channel=1, note=36, velocity=0, time=80),
    Message('note_on', channel=1, note=29, velocity=106, time=0),
    Message('note_on', channel=1, note=29, velocity=0, time=160),
    Message('note_on', channel=1, note=29, velocity=106, time=80),
    Message('note_on', channel=1, note=29, velocity=0, time=720),
    Message('note_on', channel=1, note=27, velocity=103, time=0),
    Message('note_on', channel=1, note=27, velocity=0, time=240),
    Message('note_on', channel=1, note=27, velocity=106, time=0),
    Message('note_on', channel=1, note=27, velocity=0, time=720),
    Message('note_on', channel=1, note=34, velocity=104, time=0),
    Message('note_on', channel=1, note=34, velocity=0, time=240),
    Message('note_on', channel=1, note=34, velocity=107, time=0),
    Message('note_on', channel=1, note=34, velocity=0, time=700),
    Message('note_on', channel=1, note=34, velocity=104, time=20),
    Message('note_on', channel=1, note=34, velocity=0, time=240),
    Message('note_on', channel=1, note=34, velocity=106, time=0),
    Message('note_on', channel=1, note=34, velocity=0, time=360),
    Message('note_on', channel=1, note=36, velocity=127, time=40),
    Message('note_on', channel=1, note=36, velocity=0, time=320),
    Message('note_on', channel=1, note=29, velocity=107, time=0),
    Message('note_on', channel=1, note=29, velocity=0, time=240),
    Message('note_on', channel=1, note=29, velocity=106, time=0),
    Message('note_on', channel=1, note=29, velocity=0, time=720),
    Message('note_on', channel=1, note=27, velocity=106, time=0),
    Message('note_on', channel=1, note=27, velocity=0, time=240),
    Message('note_on', channel=1, note=27, velocity=103, time=0),
    Message('note_on', channel=1, note=27, velocity=0, time=720),
    Message('note_on', channel=1, note=34, velocity=107, time=0),
    Message('note_on', channel=1, note=34, velocity=0, time=240),
    Message('note_on', channel=1, note=34, velocity=106, time=0),
    Message('note_on', channel=1, note=34, velocity=0, time=700),
    Message('note_on', channel=1, note=34, velocity=107, time=20),
    Message('note_on', channel=1, note=34, velocity=0, time=240),
    Message('note_on', channel=1, note=34, velocity=110, time=0),
    Message('note_on', channel=1, note=34, velocity=0, time=440),
    Message('note_on', channel=1, note=34, velocity=127, time=40),
    Message('note_on', channel=1, note=34, velocity=0, time=160),
    Message('note_on', channel=1, note=36, velocity=127, time=0),
    Message('note_on', channel=1, note=36, velocity=0, time=80),
    Message('note_on', channel=1, note=29, velocity=107, time=0),
    Message('note_on', channel=1, note=29, velocity=0, time=240),
    Message('note_on', channel=1, note=29, velocity=104, time=0),
    Message('note_on', channel=1, note=29, velocity=0, time=720),
    Message('note_on', channel=1, note=27, velocity=104, time=0),
    Message('note_on', channel=1, note=27, velocity=0, time=240),
    Message('note_on', channel=1, note=27, velocity=108, time=0),
    Message('note_on', channel=1, note=27, velocity=0, time=720),
    Message('note_on', channel=1, note=34, velocity=107, time=0),
    Message('note_on', channel=1, note=34, velocity=0, time=240),
    Message('note_on', channel=1, note=34, velocity=107, time=0),
    Message('note_on', channel=1, note=34, velocity=0, time=700),
    Message('note_on', channel=1, note=34, velocity=107, time=20),
    Message('note_on', channel=1, note=34, velocity=0, time=240),
    Message('note_on', channel=1, note=34, velocity=106, time=0),
    Message('note_on', channel=1, note=34, velocity=0, time=360),
    Message('note_on', channel=1, note=36, velocity=127, time=40),
    Message('note_on', channel=1, note=36, velocity=0, time=320),
    Message('note_on', channel=1, note=34, velocity=127, time=0),
    Message('note_on', channel=1, note=34, velocity=0, time=160),
    Message('note_on', channel=1, note=34, velocity=127, time=80),
    Message('note_on', channel=1, note=34, velocity=0, time=720),
    Message('note_on', channel=1, note=36, velocity=127, time=0),
    Message('note_on', channel=1, note=36, velocity=0, time=160),
    Message('note_on', channel=1, note=36, velocity=127, time=80),
    Message('note_on', channel=1, note=36, velocity=0, time=720),
    Message('note_on', channel=1, note=38, velocity=127, time=0),
    Message('note_on', channel=1, note=38, velocity=0, time=160),
    Message('note_on', channel=1, note=38, velocity=127, time=80),
    Message('note_on', channel=1, note=38, velocity=0, time=720),
    Message('note_on', channel=1, note=40, velocity=127, time=0),
    Message('note_on', channel=1, note=40, velocity=0, time=160),
    Message('note_on', channel=1, note=40, velocity=127, time=80),
    Message('note_on', channel=1, note=40, velocity=0, time=720),
    Message('note_on', channel=1, note=29, velocity=123, time=0),
    Message('note_on', channel=1, note=29, velocity=0, time=180),
    Message('note_on', channel=1, note=29, velocity=123, time=60),
    Message('note_on', channel=1, note=29, velocity=0, time=480),
    Message('note_on', channel=1, note=33, velocity=123, time=0),
    Message('note_on', channel=1, note=33, velocity=0, time=160),
    Message('note_on', channel=1, note=34, velocity=123, time=0),
    Message('note_on', channel=1, note=34, velocity=0, time=80),
    Message('note_on', channel=1, note=36, velocity=123, time=0),
    Message('note_on', channel=1, note=36, velocity=0, time=160),
    Message('note_on', channel=1, note=36, velocity=123, time=80),
    Message('note_on', channel=1, note=36, velocity=0, time=720),
    Message('note_on', channel=1, note=34, velocity=123, time=0),
    Message('note_on', channel=1, note=34, velocity=0, time=160),
    Message('note_on', channel=1, note=34, velocity=123, time=80),
    Message('note_on', channel=1, note=34, velocity=0, time=720),
    Message('note_on', channel=1, note=36, velocity=123, time=0),
    Message('note_on', channel=1, note=36, velocity=0, time=160),
    Message('note_on', channel=1, note=36, velocity=123, time=80),
    Message('note_on', channel=1, note=36, velocity=0, time=720),
    Message('note_on', channel=1, note=29, velocity=123, time=0),
    Message('note_on', channel=1, note=29, velocity=0, time=180),
    Message('note_on', channel=1, note=29, velocity=123, time=60),
    Message('note_on', channel=1, note=29, velocity=0, time=480),
    Message('note_on', channel=1, note=33, velocity=123, time=0),
    Message('note_on', channel=1, note=33, velocity=0, time=160),
    Message('note_on', channel=1, note=34, velocity=123, time=0),
    Message('note_on', channel=1, note=34, velocity=0, time=80),
    Message('note_on', channel=1, note=36, velocity=123, time=0),
    Message('note_on', channel=1, note=36, velocity=0, time=160),
    Message('note_on', channel=1, note=36, velocity=123, time=80),
    Message('note_on', channel=1, note=36, velocity=0, time=720),
    Message('note_on', channel=1, note=38, velocity=123, time=0),
    Message('note_on', channel=1, note=38, velocity=0, time=460),
    Message('note_on', channel=1, note=36, velocity=123, time=20),
    Message('note_on', channel=1, note=36, velocity=0, time=480),
    Message('note_on', channel=1, note=34, velocity=123, time=0),
    Message('note_on', channel=1, note=34, velocity=0, time=480),
    Message('note_on', channel=1, note=36, velocity=123, time=0),
    Message('note_on', channel=1, note=36, velocity=0, time=480),
    Message('note_on', channel=1, note=29, velocity=123, time=0),
    Message('note_on', channel=1, note=29, velocity=0, time=180),
    Message('note_on', channel=1, note=29, velocity=123, time=60),
    Message('note_on', channel=1, note=29, velocity=0, time=480),
    Message('note_on', channel=1, note=33, velocity=123, time=0),
    Message('note_on', channel=1, note=33, velocity=0, time=160),
    Message('note_on', channel=1, note=34, velocity=123, time=0),
    Message('note_on', channel=1, note=34, velocity=0, time=80),
    Message('note_on', channel=1, note=36, velocity=123, time=0),
    Message('note_on', channel=1, note=36, velocity=0, time=160),
    Message('note_on', channel=1, note=36, velocity=123, time=80),
    Message('note_on', channel=1, note=36, velocity=0, time=720),
    Message('note_on', channel=1, note=31, velocity=123, time=0),
    Message('note_on', channel=1, note=31, velocity=0, time=480),
    Message('note_on', channel=1, note=33, velocity=123, time=0),
    Message('note_on', channel=1, note=33, velocity=0, time=480),
    Message('note_on', channel=1, note=34, velocity=123, time=0),
    Message('note_on', channel=1, note=34, velocity=0, time=480),
    Message('note_on', channel=1, note=36, velocity=123, time=0),
    Message('note_on', channel=1, note=36, velocity=0, time=480),
    Message('note_on', channel=1, note=38, velocity=123, time=0),
    Message('note_on', channel=1, note=38, velocity=0, time=480),
    Message('note_on', channel=1, note=36, velocity=123, time=0),
    Message('note_on', channel=1, note=36, velocity=0, time=480),
    Message('note_on', channel=1, note=34, velocity=123, time=0),
    Message('note_on', channel=1, note=34, velocity=0, time=480),
    Message('note_on', channel=1, note=36, velocity=123, time=0),
    Message('note_on', channel=1, note=36, velocity=0, time=480),
    Message('note_on', channel=1, note=29, velocity=127, time=0),
    Message('note_on', channel=1, note=29, velocity=0, time=140),
    Message('note_on', channel=1, note=29, velocity=127, time=100),
    Message('note_on', channel=1, note=29, velocity=0, time=700),
    Message('note_on', channel=1, note=27, velocity=127, time=20),
    Message('note_on', channel=1, note=27, velocity=0, time=140),
    Message('note_on', channel=1, note=27, velocity=127, time=100),
    Message('note_on', channel=1, note=27, velocity=0, time=700),
    Message('note_on', channel=1, note=34, velocity=127, time=20),
    Message('note_on', channel=1, note=34, velocity=0, time=140),
    Message('note_on', channel=1, note=34, velocity=127, time=100),
    Message('note_on', channel=1, note=34, velocity=0, time=700),
    Message('note_on', channel=1, note=33, velocity=127, time=20),
    Message('note_on', channel=1, note=33, velocity=0, time=240),
    Message('note_on', channel=1, note=31, velocity=127, time=0),
    Message('note_on', channel=1, note=31, velocity=0, time=160),
    Message('note_on', channel=1, note=29, velocity=127, time=0),
    Message('note_on', channel=1, note=29, velocity=0, time=80),
    Message('note_on', channel=1, note=31, velocity=127, time=0),
    Message('note_on', channel=1, note=31, velocity=0, time=160),
    Message('note_on', channel=1, note=29, velocity=127, time=0),
    Message('note_on', channel=1, note=29, velocity=0, time=80),
    Message('note_on', channel=1, note=26, velocity=127, time=0),
    Message('note_on', channel=1, note=26, velocity=0, time=160),
    Message('note_on', channel=1, note=29, velocity=127, time=0),
    Message('note_on', channel=1, note=29, velocity=0, time=220),
    Message('note_on', channel=1, note=27, velocity=109, time=820),
    Message('note_on', channel=1, note=27, velocity=0, time=240),
    Message('note_on', channel=1, note=27, velocity=107, time=0),
    Message('note_on', channel=1, note=27, velocity=0, time=720),
    Message('note_on', channel=1, note=34, velocity=106, time=0),
    Message('note_on', channel=1, note=34, velocity=0, time=240),
    Message('note_on', channel=1, note=34, velocity=105, time=0),
    Message('note_on', channel=1, note=34, velocity=0, time=700),
    Message('note_on', channel=1, note=34, velocity=105, time=20),
    Message('note_on', channel=1, note=34, velocity=0, time=240),
    Message('note_on', channel=1, note=34, velocity=102, time=0),
    Message('note_on', channel=1, note=34, velocity=0, time=440),
    Message('note_on', channel=1, note=34, velocity=127, time=40),
    Message('note_on', channel=1, note=34, velocity=0, time=160),
    Message('note_on', channel=1, note=36, velocity=127, time=0),
    Message('note_on', channel=1, note=36, velocity=0, time=80),
    Message('note_on', channel=1, note=29, velocity=105, time=0),
    Message('note_on', channel=1, note=29, velocity=0, time=240),
    Message('note_on', channel=1, note=29, velocity=105, time=0),
    Message('note_on', channel=1, note=29, velocity=0, time=720),
    Message('note_on', channel=1, note=27, velocity=103, time=0),
    Message('note_on', channel=1, note=27, velocity=0, time=240),
    Message('note_on', channel=1, note=27, velocity=103, time=0),
    Message('note_on', channel=1, note=27, velocity=0, time=720),
    Message('note_on', channel=1, note=34, velocity=103, time=0),
    Message('note_on', channel=1, note=34, velocity=0, time=240),
    Message('note_on', channel=1, note=34, velocity=101, time=0),
    Message('note_on', channel=1, note=34, velocity=0, time=700),
    Message('note_on', channel=1, note=34, velocity=102, time=20),
    Message('note_on', channel=1, note=34, velocity=0, time=240),
    Message('note_on', channel=1, note=34, velocity=101, time=0),
    Message('note_on', channel=1, note=34, velocity=0, time=360),
    Message('note_on', channel=1, note=36, velocity=127, time=40),
    Message('note_on', channel=1, note=36, velocity=0, time=320),
    Message('note_on', channel=1, note=29, velocity=104, time=0),
    Message('note_on', channel=1, note=29, velocity=0, time=240),
    Message('note_on', channel=1, note=29, velocity=103, time=0),
    Message('note_on', channel=1, note=29, velocity=0, time=720),
    Message('note_on', channel=1, note=27, velocity=102, time=0),
    Message('note_on', channel=1, note=27, velocity=0, time=240),
    Message('note_on', channel=1, note=27, velocity=105, time=0),
    Message('note_on', channel=1, note=27, velocity=0, time=720),
    Message('note_on', channel=1, note=34, velocity=103, time=0),
    Message('note_on', channel=1, note=34, velocity=0, time=240),
    Message('note_on', channel=1, note=34, velocity=105, time=0),
    Message('note_on', channel=1, note=34, velocity=0, time=700),
    Message('note_on', channel=1, note=34, velocity=100, time=20),
    Message('note_on', channel=1, note=34, velocity=0, time=240),
    Message('note_on', channel=1, note=34, velocity=102, time=0),
    Message('note_on', channel=1, note=34, velocity=0, time=440),
    Message('note_on', channel=1, note=34, velocity=127, time=40),
    Message('note_on', channel=1, note=34, velocity=0, time=160),
    Message('note_on', channel=1, note=36, velocity=127, time=0),
    Message('note_on', channel=1, note=36, velocity=0, time=80),
    Message('note_on', channel=1, note=29, velocity=104, time=0),
    Message('note_on', channel=1, note=29, velocity=0, time=240),
    Message('note_on', channel=1, note=29, velocity=104, time=0),
    Message('note_on', channel=1, note=29, velocity=0, time=720),
    Message('note_on', channel=1, note=27, velocity=106, time=0),
    Message('note_on', channel=1, note=27, velocity=0, time=240),
    Message('note_on', channel=1, note=27, velocity=107, time=0),
    Message('note_on', channel=1, note=27, velocity=0, time=720),
    Message('note_on', channel=1, note=34, velocity=107, time=0),
    Message('note_on', channel=1, note=34, velocity=0, time=240),
    Message('note_on', channel=1, note=34, velocity=103, time=0),
    Message('note_on', channel=1, note=34, velocity=0, time=700),
    Message('note_on', channel=1, note=34, velocity=105, time=20),
    Message('note_on', channel=1, note=34, velocity=0, time=240),
    Message('note_on', channel=1, note=34, velocity=104, time=0),
    Message('note_on', channel=1, note=34, velocity=0, time=360),
    Message('note_on', channel=1, note=36, velocity=127, time=40),
    Message('note_on', channel=1, note=36, velocity=0, time=320),
    Message('note_on', channel=1, note=34, velocity=127, time=0),
    Message('note_on', channel=1, note=34, velocity=0, time=160),
    Message('note_on', channel=1, note=34, velocity=127, time=80),
    Message('note_on', channel=1, note=34, velocity=0, time=720),
    Message('note_on', channel=1, note=36, velocity=127, time=0),
    Message('note_on', channel=1, note=36, velocity=0, time=160),
    Message('note_on', channel=1, note=36, velocity=127, time=80),
    Message('note_on', channel=1, note=36, velocity=0, time=720),
    Message('note_on', channel=1, note=38, velocity=127, time=0),
    Message('note_on', channel=1, note=38, velocity=0, time=160),
    Message('note_on', channel=1, note=38, velocity=127, time=80),
    Message('note_on', channel=1, note=38, velocity=0, time=720),
    Message('note_on', channel=1, note=40, velocity=127, time=0),
    Message('note_on', channel=1, note=40, velocity=0, time=160),
    Message('note_on', channel=1, note=40, velocity=127, time=80),
    Message('note_on', channel=1, note=40, velocity=0, time=720),
    Message('note_on', channel=1, note=29, velocity=123, time=0),
    Message('note_on', channel=1, note=29, velocity=0, time=180),
    Message('note_on', channel=1, note=29, velocity=123, time=60),
    Message('note_on', channel=1, note=29, velocity=0, time=480),
    Message('note_on', channel=1, note=33, velocity=123, time=0),
    Message('note_on', channel=1, note=33, velocity=0, time=160),
    Message('note_on', channel=1, note=34, velocity=123, time=0),
    Message('note_on', channel=1, note=34, velocity=0, time=80),
    Message('note_on', channel=1, note=36, velocity=123, time=0),
    Message('note_on', channel=1, note=36, velocity=0, time=160),
    Message('note_on', channel=1, note=36, velocity=123, time=80),
    Message('note_on', channel=1, note=36, velocity=0, time=720),
    Message('note_on', channel=1, note=34, velocity=123, time=0),
    Message('note_on', channel=1, note=34, velocity=0, time=160),
    Message('note_on', channel=1, note=34, velocity=123, time=80),
    Message('note_on', channel=1, note=34, velocity=0, time=720),
    Message('note_on', channel=1, note=36, velocity=123, time=0),
    Message('note_on', channel=1, note=36, velocity=0, time=160),
    Message('note_on', channel=1, note=36, velocity=123, time=80),
    Message('note_on', channel=1, note=36, velocity=0, time=720),
    Message('note_on', channel=1, note=29, velocity=123, time=0),
    Message('note_on', channel=1, note=29, velocity=0, time=180),
    Message('note_on', channel=1, note=29, velocity=123, time=60),
    Message('note_on', channel=1, note=29, velocity=0, time=480),
    Message('note_on', channel=1, note=33, velocity=123, time=0),
    Message('note_on', channel=1, note=33, velocity=0, time=160),
    Message('note_on', channel=1, note=34, velocity=123, time=0),
    Message('note_on', channel=1, note=34, velocity=0, time=80),
    Message('note_on', channel=1, note=36, velocity=123, time=0),
    Message('note_on', channel=1, note=36, velocity=0, time=160),
    Message('note_on', channel=1, note=36, velocity=123, time=80),
    Message('note_on', channel=1, note=36, velocity=0, time=720),
    Message('note_on', channel=1, note=38, velocity=123, time=0),
    Message('note_on', channel=1, note=38, velocity=0, time=460),
    Message('note_on', channel=1, note=36, velocity=123, time=20),
    Message('note_on', channel=1, note=36, velocity=0, time=480),
    Message('note_on', channel=1, note=34, velocity=123, time=0),
    Message('note_on', channel=1, note=34, velocity=0, time=480),
    Message('note_on', channel=1, note=36, velocity=123, time=0),
    Message('note_on', channel=1, note=36, velocity=0, time=480),
    Message('note_on', channel=1, note=29, velocity=123, time=0),
    Message('note_on', channel=1, note=29, velocity=0, time=180),
    Message('note_on', channel=1, note=29, velocity=123, time=60),
    Message('note_on', channel=1, note=29, velocity=0, time=480),
    Message('note_on', channel=1, note=33, velocity=123, time=0),
    Message('note_on', channel=1, note=33, velocity=0, time=160),
    Message('note_on', channel=1, note=34, velocity=123, time=0),
    Message('note_on', channel=1, note=34, velocity=0, time=80),
    Message('note_on', channel=1, note=36, velocity=123, time=0),
    Message('note_on', channel=1, note=36, velocity=0, time=160),
    Message('note_on', channel=1, note=36, velocity=123, time=80),
    Message('note_on', channel=1, note=36, velocity=0, time=720),
    Message('note_on', channel=1, note=31, velocity=123, time=0),
    Message('note_on', channel=1, note=31, velocity=0, time=480),
    Message('note_on', channel=1, note=33, velocity=123, time=0),
    Message('note_on', channel=1, note=33, velocity=0, time=480),
    Message('note_on', channel=1, note=34, velocity=123, time=0),
    Message('note_on', channel=1, note=34, velocity=0, time=480),
    Message('note_on', channel=1, note=36, velocity=123, time=0),
    Message('note_on', channel=1, note=36, velocity=0, time=480),
    Message('note_on', channel=1, note=38, velocity=123, time=0),
    Message('note_on', channel=1, note=38, velocity=0, time=480),
    Message('note_on', channel=1, note=36, velocity=123, time=0),
    Message('note_on', channel=1, note=36, velocity=0, time=480),
    Message('note_on', channel=1, note=34, velocity=123, time=0),
    Message('note_on', channel=1, note=34, velocity=0, time=480),
    Message('note_on', channel=1, note=36, velocity=123, time=0),
    Message('note_on', channel=1, note=36, velocity=0, time=480),
    Message('note_on', channel=1, note=29, velocity=127, time=0),
    Message('note_on', channel=1, note=29, velocity=0, time=140),
    Message('note_on', channel=1, note=29, velocity=127, time=100),
    Message('note_on', channel=1, note=29, velocity=0, time=700),
    Message('note_on', channel=1, note=27, velocity=127, time=20),
    Message('note_on', channel=1, note=27, velocity=0, time=140),
    Message('note_on', channel=1, note=27, velocity=127, time=100),
    Message('note_on', channel=1, note=27, velocity=0, time=700),
    Message('note_on', channel=1, note=34, velocity=127, time=20),
    Message('note_on', channel=1, note=34, velocity=0, time=140),
    Message('note_on', channel=1, note=34, velocity=127, time=100),
    Message('note_on', channel=1, note=34, velocity=0, time=700),
    Message('note_on', channel=1, note=38, velocity=127, time=20),
    Message('note_on', channel=1, note=38, velocity=0, time=460),
    Message('note_on', channel=1, note=36, velocity=127, time=20),
    Message('note_on', channel=1, note=36, velocity=0, time=460),
    Message('note_on', channel=1, note=29, velocity=127, time=20),
    Message('note_on', channel=1, note=29, velocity=0, time=140),
    Message('note_on', channel=1, note=29, velocity=127, time=100),
    Message('note_on', channel=1, note=29, velocity=0, time=700),
    Message('note_on', channel=1, note=27, velocity=127, time=20),
    Message('note_on', channel=1, note=27, velocity=0, time=140),
    Message('note_on', channel=1, note=27, velocity=127, time=100),
    Message('note_on', channel=1, note=27, velocity=0, time=700),
    Message('note_on', channel=1, note=34, velocity=127, time=20),
    Message('note_on', channel=1, note=34, velocity=0, time=140),
    Message('note_on', channel=1, note=34, velocity=127, time=100),
    Message('note_on', channel=1, note=34, velocity=0, time=700),
    Message('note_on', channel=1, note=38, velocity=127, time=20),
    Message('note_on', channel=1, note=38, velocity=0, time=480),
    Message('note_on', channel=1, note=36, velocity=127, time=0),
    Message('note_on', channel=1, note=36, velocity=0, time=480),
    Message('note_on', channel=1, note=31, velocity=109, time=0),
    Message('note_on', channel=1, note=31, velocity=0, time=240),
    Message('note_on', channel=1, note=31, velocity=107, time=0),
    Message('note_on', channel=1, note=31, velocity=0, time=240),
    Message('note_on', channel=1, note=31, velocity=107, time=0),
    Message('note_on', channel=1, note=31, velocity=0, time=240),
    Message('note_on', channel=1, note=31, velocity=106, time=0),
    Message('note_on', channel=1, note=31, velocity=0, time=240),
    Message('note_on', channel=1, note=31, velocity=106, time=0),
    Message('note_on', channel=1, note=31, velocity=0, time=240),
    Message('note_on', channel=1, note=31, velocity=106, time=0),
    Message('note_on', channel=1, note=31, velocity=0, time=240),
    Message('note_on', channel=1, note=31, velocity=106, time=0),
    Message('note_on', channel=1, note=31, velocity=0, time=240),
    Message('note_on', channel=1, note=31, velocity=106, time=0),
    Message('note_on', channel=1, note=31, velocity=0, time=240),
    Message('note_on', channel=1, note=33, velocity=105, time=0),
    Message('note_on', channel=1, note=33, velocity=0, time=240),
    Message('note_on', channel=1, note=33, velocity=105, time=0),
    Message('note_on', channel=1, note=33, velocity=0, time=240),
    Message('note_on', channel=1, note=33, velocity=105, time=0),
    Message('note_on', channel=1, note=33, velocity=0, time=240),
    Message('note_on', channel=1, note=33, velocity=105, time=0),
    Message('note_on', channel=1, note=33, velocity=0, time=240),
    Message('note_on', channel=1, note=33, velocity=103, time=0),
    Message('note_on', channel=1, note=33, velocity=0, time=240),
    Message('note_on', channel=1, note=33, velocity=103, time=0),
    Message('note_on', channel=1, note=33, velocity=0, time=240),
    Message('note_on', channel=1, note=33, velocity=103, time=0),
    Message('note_on', channel=1, note=33, velocity=0, time=240),
    Message('note_on', channel=1, note=33, velocity=103, time=0),
    Message('note_on', channel=1, note=33, velocity=0, time=240),
    Message('note_on', channel=1, note=34, velocity=106, time=0),
    Message('note_on', channel=1, note=34, velocity=0, time=240),
    Message('note_on', channel=1, note=34, velocity=106, time=0),
    Message('note_on', channel=1, note=34, velocity=0, time=240),
    Message('note_on', channel=1, note=34, velocity=106, time=0),
    Message('note_on', channel=1, note=34, velocity=0, time=240),
    Message('note_on', channel=1, note=34, velocity=106, time=0),
    Message('note_on', channel=1, note=34, velocity=0, time=240),
    Message('note_on', channel=1, note=34, velocity=106, time=0),
    Message('note_on', channel=1, note=34, velocity=0, time=240),
    Message('note_on', channel=1, note=34, velocity=106, time=0),
    Message('note_on', channel=1, note=34, velocity=0, time=240),
    Message('note_on', channel=1, note=34, velocity=106, time=0),
    Message('note_on', channel=1, note=34, velocity=0, time=240),
    Message('note_on', channel=1, note=34, velocity=106, time=0),
    Message('note_on', channel=1, note=34, velocity=0, time=240),
    Message('note_on', channel=1, note=36, velocity=104, time=0),
    Message('note_on', channel=1, note=36, velocity=0, time=240),
    Message('note_on', channel=1, note=36, velocity=104, time=0),
    Message('note_on', channel=1, note=36, velocity=0, time=240),
    Message('note_on', channel=1, note=36, velocity=104, time=0),
    Message('note_on', channel=1, note=36, velocity=0, time=240),
    Message('note_on', channel=1, note=36, velocity=104, time=0),
    Message('note_on', channel=1, note=36, velocity=0, time=240),
    Message('note_on', channel=1, note=36, velocity=104, time=0),
    Message('note_on', channel=1, note=36, velocity=0, time=240),
    Message('note_on', channel=1, note=36, velocity=104, time=0),
    Message('note_on', channel=1, note=36, velocity=0, time=240),
    Message('note_on', channel=1, note=36, velocity=104, time=0),
    Message('note_on', channel=1, note=36, velocity=0, time=240),
    Message('note_on', channel=1, note=36, velocity=104, time=0),
    Message('note_on', channel=1, note=36, velocity=0, time=240),
    Message('note_on', channel=1, note=29, velocity=123, time=0),
    Message('note_on', channel=1, note=29, velocity=0, time=100),
    Message('note_on', channel=1, note=29, velocity=123, time=40),
    Message('note_on', channel=1, note=29, velocity=0, time=200),
    Message('note_on', channel=1, note=33, velocity=123, time=380),
    Message('note_on', channel=1, note=33, velocity=0, time=160),
    Message('note_on', channel=1, note=34, velocity=123, time=0),
    Message('note_on', channel=1, note=34, velocity=0, time=80),
    Message('note_on', channel=1, note=36, velocity=123, time=0),
    Message('note_on', channel=1, note=36, velocity=0, time=80),
    Message('note_on', channel=1, note=36, velocity=123, time=80),
    Message('note_on', channel=1, note=36, velocity=0, time=160),
    Message('note_on', channel=1, note=34, velocity=123, time=640),
    Message('note_on', channel=1, note=34, velocity=0, time=80),
    Message('note_on', channel=1, note=34, velocity=123, time=80),
    Message('note_on', channel=1, note=34, velocity=0, time=180),
    Message('note_on', channel=1, note=36, velocity=123, time=620),
    Message('note_on', channel=1, note=36, velocity=0, time=80),
    Message('note_on', channel=1, note=36, velocity=123, time=80),
    Message('note_on', channel=1, note=36, velocity=0, time=180),
    Message('note_on', channel=1, note=38, velocity=123, time=140),
    Message('note_on', channel=1, note=38, velocity=0, time=180),
    Message('note_on', channel=1, note=36, velocity=123, time=60),
    Message('note_on', channel=1, note=36, velocity=0, time=140),
    Message('note_on', channel=1, note=38, velocity=123, time=20),
    Message('note_on', channel=1, note=38, velocity=0, time=80),
    Message('note_on', channel=1, note=29, velocity=123, time=0),
    Message('note_on', channel=1, note=29, velocity=0, time=80),
    Message('note_on', channel=1, note=29, velocity=123, time=80),
    Message('note_on', channel=1, note=29, velocity=0, time=180),
    Message('note_on', channel=1, note=33, velocity=123, time=380),
    Message('note_on', channel=1, note=33, velocity=0, time=160),
    Message('note_on', channel=1, note=34, velocity=123, time=0),
    Message('note_on', channel=1, note=34, velocity=0, time=80),
    Message('note_on', channel=1, note=36, velocity=123, time=0),
    Message('note_on', channel=1, note=36, velocity=0, time=80),
    Message('note_on', channel=1, note=36, velocity=123, time=80),
    Message('note_on', channel=1, note=36, velocity=0, time=80),
    Message('note_on', channel=1, note=38, velocity=123, time=720),
    Message('note_on', channel=1, note=38, velocity=0, time=460),
    Message('note_on', channel=1, note=36, velocity=123, time=20),
    Message('note_on', channel=1, note=36, velocity=0, time=480),
    Message('note_on', channel=1, note=34, velocity=123, time=0),
    Message('note_on', channel=1, note=34, velocity=0, time=480),
    Message('note_on', channel=1, note=36, velocity=123, time=0),
    Message('note_on', channel=1, note=36, velocity=0, time=240),
    Message('note_on', channel=1, note=38, velocity=123, time=0),
    Message('note_on', channel=1, note=38, velocity=0, time=160),
    Message('note_on', channel=1, note=36, velocity=123, time=0),
    Message('note_on', channel=1, note=36, velocity=0, time=80),
    Message('note_on', channel=1, note=29, velocity=123, time=0),
    Message('note_on', channel=1, note=36, velocity=123, time=160),
    Message('note_on', channel=1, note=29, velocity=0, time=20),
    Message('note_on', channel=1, note=36, velocity=0, time=60),
    Message('note_on', channel=1, note=29, velocity=123, time=0),
    Message('note_on', channel=1, note=29, velocity=0, time=480),
    Message('note_on', channel=1, note=33, velocity=123, time=0),
    Message('note_on', channel=1, note=33, velocity=0, time=160),
    Message('note_on', channel=1, note=34, velocity=123, time=0),
    Message('note_on', channel=1, note=34, velocity=0, time=80),
    Message('note_on', channel=1, note=36, velocity=123, time=0),
    Message('note_on', channel=1, note=36, velocity=0, time=160),
    Message('note_on', channel=1, note=36, velocity=123, time=80),
    Message('note_on', channel=1, note=36, velocity=0, time=720),
    Message('note_on', channel=1, note=31, velocity=123, time=0),
    Message('note_on', channel=1, note=31, velocity=0, time=480),
    Message('note_on', channel=1, note=33, velocity=123, time=0),
    Message('note_on', channel=1, note=33, velocity=0, time=480),
    Message('note_on', channel=1, note=34, velocity=123, time=0),
    Message('note_on', channel=1, note=34, velocity=0, time=480),
    Message('note_on', channel=1, note=36, velocity=123, time=0),
    Message('note_on', channel=1, note=36, velocity=0, time=480),
    Message('note_on', channel=1, note=38, velocity=123, time=0),
    Message('note_on', channel=1, note=38, velocity=0, time=480),
    Message('note_on', channel=1, note=36, velocity=123, time=0),
    Message('note_on', channel=1, note=36, velocity=0, time=480),
    Message('note_on', channel=1, note=34, velocity=123, time=0),
    Message('note_on', channel=1, note=34, velocity=0, time=480),
    Message('note_on', channel=1, note=36, velocity=123, time=0),
    Message('note_on', channel=1, note=36, velocity=0, time=480),
    Message('note_on', channel=1, note=38, velocity=125, time=240),
    Message('note_on', channel=1, note=38, velocity=0, time=240),
    Message('note_on', channel=1, note=36, velocity=123, time=0),
    Message('note_on', channel=1, note=36, velocity=0, time=480),
    Message('note_on', channel=1, note=34, velocity=123, time=0),
    Message('note_on', channel=1, note=34, velocity=0, time=480),
    Message('note_on', channel=1, note=36, velocity=123, time=0),
    Message('note_on', channel=1, note=36, velocity=0, time=480),
    Message('note_on', channel=1, note=38, velocity=123, time=0),
    Message('note_on', channel=1, note=38, velocity=0, time=480),
    Message('note_on', channel=1, note=36, velocity=123, time=0),
    Message('note_on', channel=1, note=36, velocity=0, time=480),
    Message('note_on', channel=1, note=34, velocity=123, time=0),
    Message('note_on', channel=1, note=34, velocity=0, time=480),
    Message('note_on', channel=1, note=36, velocity=123, time=0),
    Message('note_on', channel=1, note=36, velocity=0, time=480),
    Message('note_on', channel=1, note=29, velocity=127, time=0),
    Message('note_on', channel=1, note=29, velocity=0, time=140),
    Message('note_on', channel=1, note=29, velocity=127, time=100),
    Message('note_on', channel=1, note=29, velocity=0, time=700),
    Message('note_on', channel=1, note=27, velocity=127, time=20),
    Message('note_on', channel=1, note=27, velocity=0, time=140),
    Message('note_on', channel=1, note=27, velocity=127, time=100),
    Message('note_on', channel=1, note=27, velocity=0, time=700),
    Message('note_on', channel=1, note=34, velocity=127, time=20),
    Message('note_on', channel=1, note=34, velocity=0, time=140),
    Message('note_on', channel=1, note=34, velocity=127, time=100),
    Message('note_on', channel=1, note=34, velocity=0, time=700),
    Message('note_on', channel=1, note=38, velocity=127, time=20),
    Message('note_on', channel=1, note=38, velocity=0, time=460),
    Message('note_on', channel=1, note=36, velocity=127, time=20),
    Message('note_on', channel=1, note=36, velocity=0, time=460),
    Message('note_on', channel=1, note=29, velocity=127, time=20),
    Message('note_on', channel=1, note=29, velocity=0, time=140),
    Message('note_on', channel=1, note=29, velocity=127, time=100),
    Message('note_on', channel=1, note=29, velocity=0, time=700),
    Message('note_on', channel=1, note=27, velocity=127, time=20),
    Message('note_on', channel=1, note=27, velocity=0, time=140),
    Message('note_on', channel=1, note=27, velocity=127, time=100),
    Message('note_on', channel=1, note=27, velocity=0, time=700),
    Message('note_on', channel=1, note=34, velocity=127, time=20),
    Message('note_on', channel=1, note=34, velocity=0, time=140),
    Message('note_on', channel=1, note=34, velocity=127, time=100),
    Message('note_on', channel=1, note=34, velocity=0, time=700),
    Message('note_on', channel=1, note=33, velocity=127, time=20),
    Message('note_on', channel=1, note=33, velocity=0, time=240),
    Message('note_on', channel=1, note=31, velocity=127, time=0),
    Message('note_on', channel=1, note=31, velocity=0, time=160),
    Message('note_on', channel=1, note=29, velocity=127, time=0),
    Message('note_on', channel=1, note=29, velocity=0, time=80),
    Message('note_on', channel=1, note=31, velocity=127, time=0),
    Message('note_on', channel=1, note=31, velocity=0, time=160),
    Message('note_on', channel=1, note=29, velocity=127, time=0),
    Message('note_on', channel=1, note=29, velocity=0, time=80),
    Message('note_on', channel=1, note=26, velocity=127, time=0),
    Message('note_on', channel=1, note=26, velocity=0, time=160),
    Message('note_on', channel=1, note=29, velocity=127, time=0),
    Message('note_on', channel=1, note=29, velocity=0, time=2940),
    MetaMessage('end_of_track', time=0)]),
  MidiTrack([
    MetaMessage('midi_port', port=0, time=0),
    MetaMessage('channel_prefix', channel=2, time=0),
    Message('program_change', channel=2, program=1, time=0),
    Message('note_on', channel=2, note=65, velocity=127, time=960),
    Message('note_on', channel=2, note=65, velocity=0, time=240),
    Message('note_on', channel=2, note=65, velocity=127, time=0),
    Message('note_on', channel=2, note=65, velocity=0, time=160),
    Message('note_on', channel=2, note=62, velocity=108, time=0),
    Message('note_on', channel=2, note=62, velocity=0, time=80),
    Message('note_on', channel=2, note=65, velocity=118, time=0),
    Message('note_on', channel=2, note=65, velocity=0, time=140),
    Message('note_on', channel=2, note=69, velocity=123, time=20),
    Message('note_on', channel=2, note=69, velocity=0, time=320),
    Message('note_on', channel=2, note=65, velocity=127, time=0),
    Message('note_on', channel=2, note=65, velocity=0, time=240),
    Message('note_on', channel=2, note=65, velocity=127, time=0),
    Message('note_on', channel=2, note=65, velocity=0, time=160),
    Message('note_on', channel=2, note=62, velocity=109, time=0),
    Message('note_on', channel=2, note=62, velocity=0, time=80),
    Message('note_on', channel=2, note=65, velocity=116, time=0),
    Message('note_on', channel=2, note=65, velocity=0, time=140),
    Message('note_on', channel=2, note=69, velocity=124, time=20),
    Message('note_on', channel=2, note=69, velocity=0, time=320),
    Message('note_on', channel=2, note=65, velocity=127, time=0),
    Message('note_on', channel=2, note=65, velocity=0, time=240),
    Message('note_on', channel=2, note=65, velocity=127, time=0),
    Message('note_on', channel=2, note=65, velocity=0, time=160),
    Message('note_on', channel=2, note=62, velocity=113, time=0),
    Message('note_on', channel=2, note=62, velocity=0, time=80),
    Message('note_on', channel=2, note=65, velocity=116, time=0),
    Message('note_on', channel=2, note=65, velocity=0, time=140),
    Message('note_on', channel=2, note=69, velocity=122, time=20),
    Message('note_on', channel=2, note=69, velocity=0, time=320),
    Message('note_on', channel=2, note=65, velocity=127, time=0),
    Message('note_on', channel=2, note=69, velocity=127, time=0),
    Message('note_on', channel=2, note=69, velocity=0, time=480),
    Message('note_on', channel=2, note=65, velocity=0, time=0),
    Message('note_on', channel=2, note=64, velocity=127, time=0),
    Message('note_on', channel=2, note=67, velocity=127, time=0),
    Message('note_on', channel=2, note=67, velocity=0, time=480),
    Message('note_on', channel=2, note=64, velocity=0, time=0),
    Message('note_on', channel=2, note=65, velocity=127, time=0),
    Message('note_on', channel=2, note=65, velocity=0, time=240),
    Message('note_on', channel=2, note=65, velocity=127, time=0),
    Message('note_on', channel=2, note=65, velocity=0, time=160),
    Message('note_on', channel=2, note=62, velocity=108, time=0),
    Message('note_on', channel=2, note=62, velocity=0, time=80),
    Message('note_on', channel=2, note=65, velocity=117, time=0),
    Message('note_on', channel=2, note=65, velocity=0, time=140),
    Message('note_on', channel=2, note=69, velocity=127, time=20),
    Message('note_on', channel=2, note=69, velocity=0, time=320),
    Message('note_on', channel=2, note=65, velocity=127, time=0),
    Message('note_on', channel=2, note=65, velocity=0, time=240),
    Message('note_on', channel=2, note=65, velocity=127, time=0),
    Message('note_on', channel=2, note=65, velocity=0, time=160),
    Message('note_on', channel=2, note=62, velocity=107, time=0),
    Message('note_on', channel=2, note=62, velocity=0, time=80),
    Message('note_on', channel=2, note=65, velocity=115, time=0),
    Message('note_on', channel=2, note=65, velocity=0, time=140),
    Message('note_on', channel=2, note=69, velocity=127, time=20),
    Message('note_on', channel=2, note=69, velocity=0, time=320),
    Message('note_on', channel=2, note=65, velocity=127, time=0),
    Message('note_on', channel=2, note=65, velocity=0, time=240),
    Message('note_on', channel=2, note=65, velocity=127, time=0),
    Message('note_on', channel=2, note=65, velocity=0, time=160),
    Message('note_on', channel=2, note=62, velocity=109, time=0),
    Message('note_on', channel=2, note=62, velocity=0, time=80),
    Message('note_on', channel=2, note=65, velocity=116, time=0),
    Message('note_on', channel=2, note=65, velocity=0, time=140),
    Message('note_on', channel=2, note=69, velocity=127, time=20),
    Message('note_on', channel=2, note=69, velocity=0, time=320),
    Message('note_on', channel=2, note=69, velocity=127, time=0),
    Message('note_on', channel=2, note=69, velocity=0, time=240),
    Message('note_on', channel=2, note=67, velocity=127, time=0),
    Message('note_on', channel=2, note=67, velocity=0, time=160),
    Message('note_on', channel=2, note=65, velocity=127, time=0),
    Message('note_on', channel=2, note=65, velocity=0, time=80),
    Message('note_on', channel=2, note=67, velocity=127, time=0),
    Message('note_on', channel=2, note=67, velocity=0, time=160),
    Message('note_on', channel=2, note=65, velocity=127, time=0),
    Message('note_on', channel=2, note=65, velocity=0, time=80),
    Message('note_on', channel=2, note=62, velocity=127, time=0),
    Message('note_on', channel=2, note=62, velocity=0, time=160),
    Message('note_on', channel=2, note=65, velocity=127, time=0),
    Message('note_on', channel=2, note=65, velocity=0, time=80),
    Message('note_on', channel=2, note=60, velocity=87, time=640),
    Message('note_on', channel=2, note=65, velocity=99, time=0),
    Message('note_on', channel=2, note=60, velocity=0, time=44),
    Message('note_on', channel=2, note=65, velocity=0, time=40),
    Message('note_on', channel=2, note=65, velocity=95, time=486),
    Message('note_on', channel=2, note=63, velocity=95, time=2),
    Message('note_on', channel=2, note=63, velocity=0, time=60),
    Message('note_on', channel=2, note=65, velocity=0, time=20),
    Message('note_on', channel=2, note=63, velocity=99, time=298),
    Message('note_on', channel=2, note=65, velocity=99, time=6),
    Message('note_on', channel=2, note=63, velocity=0, time=74),
    Message('note_on', channel=2, note=65, velocity=0, time=24),
    Message('note_on', channel=2, note=65, velocity=68, time=466),
    Message('note_on', channel=2, note=62, velocity=70, time=12),
    Message('note_on', channel=2, note=65, velocity=0, time=56),
    Message('note_on', channel=2, note=62, velocity=0, time=42),
    Message('note_on', channel=2, note=62, velocity=95, time=290),
    Message('note_on', channel=2, note=65, velocity=99, time=0),
    Message('note_on', channel=2, note=62, velocity=0, time=58),
    Message('note_on', channel=2, note=65, velocity=0, time=12),
    Message('note_on', channel=2, note=65, velocity=79, time=490),
    Message('note_on', channel=2, note=60, velocity=79, time=0),
    Message('note_on', channel=2, note=60, velocity=0, time=70),
    Message('note_on', channel=2, note=65, velocity=0, time=0),
    Message('note_on', channel=2, note=60, velocity=83, time=332),
    Message('note_on', channel=2, note=65, velocity=79, time=2),
    Message('note_on', channel=2, note=60, velocity=0, time=52),
    Message('note_on', channel=2, note=65, velocity=0, time=16),
    Message('note_on', channel=2, note=68, velocity=63, time=248),
    Message('note_on', channel=2, note=68, velocity=0, time=48),
    Message('note_on', channel=2, note=69, velocity=65, time=32),
    Message('note_on', channel=2, note=69, velocity=0, time=72),
    Message('note_on', channel=2, note=72, velocity=99, time=8),
    Message('note_on', channel=2, note=65, velocity=83, time=80),
    Message('note_on', channel=2, note=60, velocity=83, time=0),
    Message('note_on', channel=2, note=60, velocity=0, time=54),
    Message('note_on', channel=2, note=65, velocity=0, time=0),
    Message('note_on', channel=2, note=72, velocity=0, time=22),
    Message('note_on', channel=2, note=60, velocity=84, time=324),
    Message('note_on', channel=2, note=65, velocity=84, time=0),
    Message('note_on', channel=2, note=65, velocity=0, time=66),
    Message('note_on', channel=2, note=60, velocity=0, time=0),
    Message('note_on', channel=2, note=65, velocity=75, time=494),
    Message('note_on', channel=2, note=63, velocity=75, time=6),
    Message('note_on', channel=2, note=65, velocity=0, time=100),
    Message('note_on', channel=2, note=63, velocity=0, time=6),
    Message('note_on', channel=2, note=65, velocity=76, time=278),
    Message('note_on', channel=2, note=63, velocity=76, time=2),
    Message('note_on', channel=2, note=63, velocity=0, time=70),
    Message('note_on', channel=2, note=65, velocity=0, time=2),
    Message('note_on', channel=2, note=62, velocity=63, time=496),
    Message('note_on', channel=2, note=65, velocity=60, time=0),
    Message('note_on', channel=2, note=62, velocity=0, time=60),
    Message('note_on', channel=2, note=65, velocity=0, time=4),
    Message('note_on', channel=2, note=65, velocity=99, time=336),
    Message('note_on', channel=2, note=62, velocity=99, time=0),
    Message('note_on', channel=2, note=62, velocity=0, time=76),
    Message('note_on', channel=2, note=65, velocity=0, time=6),
    Message('note_on', channel=2, note=60, velocity=83, time=478),
    Message('note_on', channel=2, note=65, velocity=83, time=0),
    Message('note_on', channel=2, note=60, velocity=0, time=24),
    Message('note_on', channel=2, note=65, velocity=0, time=10),
    Message('note_on', channel=2, note=65, velocity=103, time=366),
    Message('note_on', channel=2, note=62, velocity=103, time=0),
    Message('note_on', channel=2, note=62, velocity=0, time=52),
    Message('note_on', channel=2, note=65, velocity=0, time=10),
    Message('note_on', channel=2, note=60, velocity=95, time=498),
    Message('note_on', channel=2, note=65, velocity=95, time=0),
    Message('note_on', channel=2, note=65, velocity=0, time=56),
    Message('note_on', channel=2, note=60, velocity=0, time=10),
    Message('note_on', channel=2, note=65, velocity=99, time=334),
    Message('note_on', channel=2, note=60, velocity=67, time=0),
    Message('note_on', channel=2, note=60, velocity=0, time=42),
    Message('note_on', channel=2, note=65, velocity=0, time=20),
    Message('note_on', channel=2, note=65, velocity=112, time=498),
    Message('note_on', channel=2, note=63, velocity=95, time=0),
    Message('note_on', channel=2, note=65, velocity=0, time=44),
    Message('note_on', channel=2, note=63, velocity=0, time=6),
    Message('note_on', channel=2, note=65, velocity=99, time=342),
    Message('note_on', channel=2, note=63, velocity=91, time=6),
    Message('note_on', channel=2, note=63, velocity=0, time=66),
    Message('note_on', channel=2, note=65, velocity=0, time=0),
    Message('note_on', channel=2, note=62, velocity=75, time=496),
    Message('note_on', channel=2, note=65, velocity=91, time=0),
    Message('note_on', channel=2, note=62, velocity=0, time=108),
    Message('note_on', channel=2, note=65, velocity=0, time=12),
    Message('note_on', channel=2, note=65, velocity=95, time=264),
    Message('note_on', channel=2, note=62, velocity=95, time=6),
    Message('note_on', channel=2, note=62, velocity=0, time=74),
    Message('note_on', channel=2, note=65, velocity=0, time=14),
    Message('note_on', channel=2, note=62, velocity=83, time=482),
    Message('note_on', channel=2, note=65, velocity=91, time=0),
    Message('note_on', channel=2, note=62, velocity=0, time=64),
    Message('note_on', channel=2, note=65, velocity=0, time=20),
    Message('note_on', channel=2, note=65, velocity=103, time=318),
    Message('note_on', channel=2, note=62, velocity=91, time=86),
    Message('note_on', channel=2, note=65, velocity=0, time=12),
    Message('note_on', channel=2, note=62, velocity=0, time=60),
    Message('note_on', channel=2, note=60, velocity=103, time=92),
    Message('note_on', channel=2, note=60, velocity=0, time=56),
    Message('note_on', channel=2, note=65, velocity=95, time=252),
    Message('note_on', channel=2, note=60, velocity=95, time=0),
    Message('note_on', channel=2, note=60, velocity=0, time=88),
    Message('note_on', channel=2, note=65, velocity=0, time=0),
    Message('note_on', channel=2, note=65, velocity=91, time=312),
    Message('note_on', channel=2, note=60, velocity=95, time=0),
    Message('note_on', channel=2, note=65, velocity=0, time=70),
    Message('note_on', channel=2, note=60, velocity=0, time=18),
    Message('note_on', channel=2, note=63, velocity=95, time=472),
    Message('note_on', channel=2, note=65, velocity=103, time=4),
    Message('note_on', channel=2, note=65, velocity=0, time=82),
    Message('note_on', channel=2, note=63, velocity=0, time=2),
    Message('note_on', channel=2, note=65, velocity=103, time=306),
    Message('note_on', channel=2, note=63, velocity=95, time=10),
    Message('note_on', channel=2, note=63, velocity=0, time=48),
    Message('note_on', channel=2, note=65, velocity=0, time=8),
    Message('note_on', channel=2, note=65, velocity=99, time=500),
    Message('note_on', channel=2, note=62, velocity=83, time=0),
    Message('note_on', channel=2, note=62, velocity=0, time=58),
    Message('note_on', channel=2, note=65, velocity=0, time=26),
    Message('note_on', channel=2, note=62, velocity=87, time=316),
    Message('note_on', channel=2, note=65, velocity=87, time=0),
    Message('note_on', channel=2, note=65, velocity=0, time=28),
    Message('note_on', channel=2, note=62, velocity=0, time=0),
    Message('note_on', channel=2, note=65, velocity=103, time=540),
    Message('note_on', channel=2, note=62, velocity=103, time=0),
    Message('note_on', channel=2, note=65, velocity=0, time=76),
    Message('note_on', channel=2, note=62, velocity=0, time=8),
    Message('note_on', channel=2, note=60, velocity=99, time=308),
    Message('note_on', channel=2, note=60, velocity=0, time=320),
    Message('note_on', channel=2, note=62, velocity=99, time=0),
    Message('note_on', channel=2, note=58, velocity=99, time=0),
    Message('note_on', channel=2, note=58, velocity=0, time=960),
    Message('note_on', channel=2, note=62, velocity=0, time=0),
    Message('note_on', channel=2, note=64, velocity=99, time=0),
    Message('note_on', channel=2, note=60, velocity=99, time=0),
    Message('note_on', channel=2, note=60, velocity=0, time=960),
    Message('note_on', channel=2, note=64, velocity=0, time=0),
    Message('note_on', channel=2, note=62, velocity=99, time=0),
    Message('note_on', channel=2, note=65, velocity=99, time=0),
    Message('note_on', channel=2, note=65, velocity=0, time=960),
    Message('note_on', channel=2, note=62, velocity=0, time=0),
    Message('note_on', channel=2, note=67, velocity=99, time=0),
    Message('note_on', channel=2, note=64, velocity=99, time=0),
    Message('note_on', channel=2, note=64, velocity=0, time=960),
    Message('note_on', channel=2, note=67, velocity=0, time=0),
    Message('note_on', channel=2, note=53, velocity=103, time=8),
    Message('note_on', channel=2, note=53, velocity=0, time=126),
    Message('note_on', channel=2, note=53, velocity=87, time=82),
    Message('note_on', channel=2, note=60, velocity=95, time=278),
    Message('note_on', channel=2, note=57, velocity=91, time=0),
    Message('note_on', channel=2, note=65, velocity=69, time=2),
    Message('note_on', channel=2, note=53, velocity=0, time=16),
    Message('note_on', channel=2, note=53, velocity=112, time=144),
    Message('note_on', channel=2, note=65, velocity=0, time=42),
    Message('note_on', channel=2, note=57, velocity=0, time=96),
    Message('note_on', channel=2, note=60, velocity=0, time=10),
    Message('note_on', channel=2, note=64, velocity=83, time=94),
    Message('note_on', channel=2, note=53, velocity=0, time=8),
    Message('note_on', channel=2, note=48, velocity=99, time=54),
    Message('note_on', channel=2, note=64, velocity=0, time=8),
    Message('note_on', channel=2, note=48, velocity=0, time=106),
    Message('note_on', channel=2, note=48, velocity=103, time=126),
    Message('note_on', channel=2, note=60, velocity=75, time=240),
    Message('note_on', channel=2, note=55, velocity=91, time=0),
    Message('note_on', channel=2, note=64, velocity=99, time=0),
    Message('note_on', channel=2, note=48, velocity=0, time=456),
    Message('note_on', channel=2, note=55, velocity=0, time=70),
    Message('note_on', channel=2, note=60, velocity=0, time=12),
    Message('note_on', channel=2, note=64, velocity=0, time=24),
    Message('note_on', channel=2, note=46, velocity=91, time=170),
    Message('note_on', channel=2, note=53, velocity=71, time=228),
    Message('note_on', channel=2, note=58, velocity=67, time=0),
    Message('note_on', channel=2, note=62, velocity=103, time=6),
    Message('note_on', channel=2, note=53, velocity=0, time=340),
    Message('note_on', channel=2, note=58, velocity=0, time=22),
    Message('note_on', channel=2, note=46, velocity=0, time=26),
    Message('note_on', channel=2, note=62, velocity=0, time=30),
    Message('note_on', channel=2, note=48, velocity=71, time=36),
    Message('note_on', channel=2, note=48, velocity=0, time=124),
    Message('note_on', channel=2, note=48, velocity=91, time=146),
    Message('note_on', channel=2, note=55, velocity=103, time=230),
    Message('note_on', channel=2, note=64, velocity=99, time=14),
    Message('note_on', channel=2, note=60, velocity=103, time=2),
    Message('note_on', channel=2, note=48, velocity=0, time=32),
    Message('note_on', channel=2, note=48, velocity=112, time=112),
    Message('note_on', channel=2, note=60, velocity=0, time=236),
    Message('note_on', channel=2, note=60, velocity=103, time=4),
    Message('note_on', channel=2, note=60, velocity=0, time=80),
    Message('note_on', channel=2, note=41, velocity=103, time=0),
    Message('note_on', channel=2, note=48, velocity=0, time=36),
    Message('note_on', channel=2, note=55, velocity=0, time=22),
    Message('note_on', channel=2, note=64, velocity=0, time=18),
    Message('note_on', channel=2, note=41, velocity=0, time=18),
    Message('note_on', channel=2, note=41, velocity=103, time=146),
    Message('note_on', channel=2, note=60, velocity=95, time=240),
    Message('note_on', channel=2, note=53, velocity=103, time=0),
    Message('note_on', channel=2, note=57, velocity=112, time=0),
    Message('note_on', channel=2, note=41, velocity=0, time=446),
    Message('note_on', channel=2, note=53, velocity=0, time=22),
    Message('note_on', channel=2, note=57, velocity=0, time=10),
    Message('note_on', channel=2, note=60, velocity=0, time=10),
    Message('note_on', channel=2, note=48, velocity=103, time=4),
    Message('note_on', channel=2, note=48, velocity=0, time=108),
    Message('note_on', channel=2, note=48, velocity=87, time=120),
    Message('note_on', channel=2, note=60, velocity=95, time=240),
    Message('note_on', channel=2, note=64, velocity=99, time=0),
    Message('note_on', channel=2, note=55, velocity=83, time=6),
    Message('note_on', channel=2, note=48, velocity=0, time=66),
    Message('note_on', channel=2, note=48, velocity=59, time=60),
    Message('note_on', channel=2, note=48, velocity=0, time=244),
    Message('note_on', channel=2, note=60, velocity=0, time=4),
    Message('note_on', channel=2, note=55, velocity=0, time=8),
    Message('note_on', channel=2, note=64, velocity=0, time=36),
    Message('note_on', channel=2, note=57, velocity=91, time=56),
    Message('note_on', channel=2, note=50, velocity=91, time=0),
    Message('note_on', channel=2, note=53, velocity=55, time=0),
    Message('note_on', channel=2, note=53, velocity=0, time=480),
    Message('note_on', channel=2, note=50, velocity=0, time=0),
    Message('note_on', channel=2, note=57, velocity=0, time=0),
    Message('note_on', channel=2, note=48, velocity=91, time=0),
    Message('note_on', channel=2, note=52, velocity=55, time=0),
    Message('note_on', channel=2, note=55, velocity=91, time=0),
    Message('note_on', channel=2, note=60, velocity=103, time=400),
    Message('note_on', channel=2, note=60, velocity=0, time=80),
    Message('note_on', channel=2, note=48, velocity=0, time=0),
    Message('note_on', channel=2, note=52, velocity=0, time=0),
    Message('note_on', channel=2, note=55, velocity=0, time=0),
    Message('note_on', channel=2, note=46, velocity=99, time=0),
    Message('note_on', channel=2, note=53, velocity=87, time=0),
    Message('note_on', channel=2, note=50, velocity=83, time=0),
    Message('note_on', channel=2, note=58, velocity=112, time=0),
    Message('note_on', channel=2, note=62, velocity=112, time=0),
    Message('note_on', channel=2, note=50, velocity=0, time=288),
    Message('note_on', channel=2, note=53, velocity=0, time=8),
    Message('note_on', channel=2, note=46, velocity=0, time=72),
    Message('note_on', channel=2, note=62, velocity=0, time=38),
    Message('note_on', channel=2, note=58, velocity=0, time=10),
    Message('note_on', channel=2, note=52, velocity=95, time=64),
    Message('note_on', channel=2, note=48, velocity=87, time=0),
    Message('note_on', channel=2, note=55, velocity=103, time=0),
    Message('note_on', channel=2, note=60, velocity=99, time=0),
    Message('note_on', channel=2, note=60, velocity=0, time=316),
    Message('note_on', channel=2, note=52, velocity=0, time=6),
    Message('note_on', channel=2, note=55, velocity=0, time=2),
    Message('note_on', channel=2, note=48, velocity=0, time=14),
    Message('note_on', channel=2, note=48, velocity=112, time=142),
    Message('note_on', channel=2, note=41, velocity=83, time=0),
    Message('note_on', channel=2, note=45, velocity=112, time=0),
    Message('note_on', channel=2, note=53, velocity=71, time=160),
    Message('note_on', channel=2, note=48, velocity=0, time=20),
    Message('note_on', channel=2, note=53, velocity=0, time=10),
    Message('note_on', channel=2, note=45, velocity=0, time=50),
    Message('note_on', channel=2, note=41, velocity=0, time=0),
    Message('note_on', channel=2, note=48, velocity=71, time=0),
    Message('note_on', channel=2, note=45, velocity=71, time=0),
    Message('note_on', channel=2, note=41, velocity=71, time=0),
    Message('note_on', channel=2, note=41, velocity=0, time=240),
    Message('note_on', channel=2, note=45, velocity=0, time=0),
    Message('note_on', channel=2, note=48, velocity=0, time=0),
    Message('note_on', channel=2, note=57, velocity=99, time=50),
    Message('note_on', channel=2, note=53, velocity=99, time=0),
    Message('note_on', channel=2, note=60, velocity=99, time=4),
    Message('note_on', channel=2, note=53, velocity=0, time=296),
    Message('note_on', channel=2, note=57, velocity=0, time=46),
    Message('note_on', channel=2, note=60, velocity=0, time=20),
    Message('note_on', channel=2, note=48, velocity=79, time=24),
    Message('note_on', channel=2, note=60, velocity=79, time=84),
    Message('note_on', channel=2, note=60, velocity=0, time=54),
    Message('note_on', channel=2, note=48, velocity=0, time=68),
    Message('note_on', channel=2, note=48, velocity=95, time=102),
    Message('note_on', channel=2, note=64, velocity=99, time=214),
    Message('note_on', channel=2, note=60, velocity=99, time=4),
    Message('note_on', channel=2, note=55, velocity=83, time=4),
    Message('note_on', channel=2, note=48, velocity=0, time=62),
    Message('note_on', channel=2, note=55, velocity=0, time=296),
    Message('note_on', channel=2, note=60, velocity=0, time=4),
    Message('note_on', channel=2, note=64, velocity=0, time=30),
    Message('note_on', channel=2, note=43, velocity=83, time=78),
    Message('note_on', channel=2, note=55, velocity=99, time=0),
    Message('note_on', channel=2, note=58, velocity=121, time=0),
    Message('note_on', channel=2, note=62, velocity=103, time=0),
    Message('note_on', channel=2, note=62, velocity=0, time=442),
    Message('note_on', channel=2, note=58, velocity=0, time=18),
    Message('note_on', channel=2, note=55, velocity=0, time=0),
    Message('note_on', channel=2, note=45, velocity=112, time=20),
    Message('note_on', channel=2, note=53, velocity=91, time=0),
    Message('note_on', channel=2, note=57, velocity=68, time=0),
    Message('note_on', channel=2, note=60, velocity=95, time=0),
    Message('note_on', channel=2, note=43, velocity=0, time=34),
    Message('note_on', channel=2, note=57, velocity=0, time=446),
    Message('note_on', channel=2, note=45, velocity=0, time=0),
    Message('note_on', channel=2, note=53, velocity=0, time=0),
    Message('note_on', channel=2, note=60, velocity=0, time=0),
    Message('note_on', channel=2, note=46, velocity=112, time=0),
    Message('note_on', channel=2, note=53, velocity=79, time=0),
    Message('note_on', channel=2, note=58, velocity=103, time=0),
    Message('note_on', channel=2, note=62, velocity=103, time=0),
    Message('note_on', channel=2, note=57, velocity=83, time=160),
    Message('note_on', channel=2, note=53, velocity=0, time=48),
    Message('note_on', channel=2, note=53, velocity=83, time=32),
    Message('note_on', channel=2, note=57, velocity=0, time=12),
    Message('note_on', channel=2, note=62, velocity=0, time=228),
    Message('note_on', channel=2, note=46, velocity=0, time=0),
    Message('note_on', channel=2, note=58, velocity=0, time=0),
    Message('note_on', channel=2, note=53, velocity=0, time=0),
    Message('note_on', channel=2, note=48, velocity=87, time=0),
    Message('note_on', channel=2, note=55, velocity=79, time=0),
    Message('note_on', channel=2, note=60, velocity=91, time=0),
    Message('note_on', channel=2, note=64, velocity=99, time=0),
    Message('note_on', channel=2, note=64, velocity=0, time=480),
    Message('note_on', channel=2, note=48, velocity=0, time=0),
    Message('note_on', channel=2, note=55, velocity=0, time=0),
    Message('note_on', channel=2, note=60, velocity=0, time=0),
    Message('note_on', channel=2, note=58, velocity=95, time=0),
    Message('note_on', channel=2, note=50, velocity=95, time=0),
    Message('note_on', channel=2, note=53, velocity=95, time=0),
    Message('note_on', channel=2, note=62, velocity=95, time=0),
    Message('note_on', channel=2, note=62, velocity=0, time=480),
    Message('note_on', channel=2, note=58, velocity=0, time=0),
    Message('note_on', channel=2, note=50, velocity=0, time=0),
    Message('note_on', channel=2, note=53, velocity=0, time=0),
    Message('note_on', channel=2, note=55, velocity=121, time=0),
    Message('note_on', channel=2, note=52, velocity=121, time=0),
    Message('note_on', channel=2, note=48, velocity=121, time=0),
    Message('note_on', channel=2, note=60, velocity=103, time=0),
    Message('note_on', channel=2, note=60, velocity=0, time=460),
    Message('note_on', channel=2, note=55, velocity=0, time=0),
    Message('note_on', channel=2, note=52, velocity=0, time=0),
    Message('note_on', channel=2, note=48, velocity=0, time=0),
    Message('note_on', channel=2, note=46, velocity=99, time=40),
    Message('note_on', channel=2, note=62, velocity=91, time=0),
    Message('note_on', channel=2, note=58, velocity=99, time=2),
    Message('note_on', channel=2, note=53, velocity=70, time=0),
    Message('note_on', channel=2, note=50, velocity=95, time=10),
    Message('note_on', channel=2, note=50, velocity=0, time=260),
    Message('note_on', channel=2, note=53, velocity=0, time=34),
    Message('note_on', channel=2, note=58, velocity=0, time=30),
    Message('note_on', channel=2, note=62, velocity=0, time=64),
    Message('note_on', channel=2, note=60, velocity=112, time=70),
    Message('note_on', channel=2, note=64, velocity=103, time=2),
    Message('note_on', channel=2, note=46, velocity=0, time=4),
    Message('note_on', channel=2, note=55, velocity=99, time=0),
    Message('note_on', channel=2, note=48, velocity=112, time=0),
    Message('note_on', channel=2, note=55, velocity=0, time=440),
    Message('note_on', channel=2, note=60, velocity=0, time=2),
    Message('note_on', channel=2, note=48, velocity=0, time=18),
    Message('note_on', channel=2, note=64, velocity=0, time=2),
    Message('note_on', channel=2, note=53, velocity=97, time=2),
    Message('note_on', channel=2, note=65, velocity=120, time=0),
    Message('note_on', channel=2, note=65, velocity=0, time=240),
    Message('note_on', channel=2, note=53, velocity=0, time=0),
    Message('note_on', channel=2, note=60, velocity=93, time=0),
    Message('note_on', channel=2, note=57, velocity=93, time=0),
    Message('note_on', channel=2, note=53, velocity=93, time=0),
    Message('note_on', channel=2, note=65, velocity=119, time=0),
    Message('note_on', channel=2, note=65, velocity=0, time=160),
    Message('note_on', channel=2, note=62, velocity=96, time=0),
    Message('note_on', channel=2, note=62, velocity=0, time=80),
    Message('note_on', channel=2, note=65, velocity=107, time=0),
    Message('note_on', channel=2, note=65, velocity=0, time=140),
    Message('note_on', channel=2, note=69, velocity=116, time=20),
    Message('note_on', channel=2, note=69, velocity=0, time=320),
    Message('note_on', channel=2, note=53, velocity=0, time=0),
    Message('note_on', channel=2, note=57, velocity=0, time=0),
    Message('note_on', channel=2, note=60, velocity=0, time=0),
    Message('note_on', channel=2, note=51, velocity=93, time=0),
    Message('note_on', channel=2, note=65, velocity=115, time=0),
    Message('note_on', channel=2, note=65, velocity=0, time=240),
    Message('note_on', channel=2, note=51, velocity=0, time=0),
    Message('note_on', channel=2, note=58, velocity=93, time=0),
    Message('note_on', channel=2, note=55, velocity=93, time=0),
    Message('note_on', channel=2, note=65, velocity=113, time=0),
    Message('note_on', channel=2, note=51, velocity=93, time=0),
    Message('note_on', channel=2, note=65, velocity=0, time=160),
    Message('note_on', channel=2, note=62, velocity=97, time=0),
    Message('note_on', channel=2, note=62, velocity=0, time=80),
    Message('note_on', channel=2, note=65, velocity=105, time=0),
    Message('note_on', channel=2, note=65, velocity=0, time=140),
    Message('note_on', channel=2, note=69, velocity=120, time=20),
    Message('note_on', channel=2, note=69, velocity=0, time=320),
    Message('note_on', channel=2, note=51, velocity=0, time=0),
    Message('note_on', channel=2, note=55, velocity=0, time=0),
    Message('note_on', channel=2, note=58, velocity=0, time=0),
    Message('note_on', channel=2, note=46, velocity=93, time=0),
    Message('note_on', channel=2, note=65, velocity=120, time=0),
    Message('note_on', channel=2, note=65, velocity=0, time=240),
    Message('note_on', channel=2, note=46, velocity=0, time=0),
    Message('note_on', channel=2, note=50, velocity=93, time=0),
    Message('note_on', channel=2, note=46, velocity=93, time=0),
    Message('note_on', channel=2, note=65, velocity=119, time=0),
    Message('note_on', channel=2, note=53, velocity=93, time=0),
    Message('note_on', channel=2, note=65, velocity=0, time=160),
    Message('note_on', channel=2, note=62, velocity=100, time=0),
    Message('note_on', channel=2, note=62, velocity=0, time=80),
    Message('note_on', channel=2, note=65, velocity=111, time=0),
    Message('note_on', channel=2, note=65, velocity=0, time=140),
    Message('note_on', channel=2, note=69, velocity=122, time=20),
    Message('note_on', channel=2, note=69, velocity=0, time=320),
    Message('note_on', channel=2, note=53, velocity=0, time=0),
    Message('note_on', channel=2, note=46, velocity=0, time=0),
    Message('note_on', channel=2, note=50, velocity=0, time=0),
    Message('note_on', channel=2, note=57, velocity=119, time=0),
    Message('note_on', channel=2, note=69, velocity=119, time=0),
    Message('note_on', channel=2, note=69, velocity=0, time=240),
    Message('note_on', channel=2, note=57, velocity=0, time=0),
    Message('note_on', channel=2, note=55, velocity=117, time=0),
    Message('note_on', channel=2, note=67, velocity=117, time=0),
    Message('note_on', channel=2, note=67, velocity=0, time=160),
    Message('note_on', channel=2, note=55, velocity=0, time=0),
    Message('note_on', channel=2, note=65, velocity=100, time=0),
    Message('note_on', channel=2, note=53, velocity=100, time=0),
    Message('note_on', channel=2, note=53, velocity=0, time=80),
    Message('note_on', channel=2, note=65, velocity=0, time=0),
    Message('note_on', channel=2, note=55, velocity=117, time=0),
    Message('note_on', channel=2, note=67, velocity=117, time=0),
    Message('note_on', channel=2, note=67, velocity=0, time=160),
    Message('note_on', channel=2, note=55, velocity=0, time=0),
    Message('note_on', channel=2, note=65, velocity=99, time=0),
    Message('note_on', channel=2, note=53, velocity=99, time=0),
    Message('note_on', channel=2, note=53, velocity=0, time=80),
    Message('note_on', channel=2, note=65, velocity=0, time=0),
    Message('note_on', channel=2, note=50, velocity=117, time=0),
    Message('note_on', channel=2, note=62, velocity=117, time=0),
    Message('note_on', channel=2, note=62, velocity=0, time=160),
    Message('note_on', channel=2, note=50, velocity=0, time=0),
    Message('note_on', channel=2, note=65, velocity=117, time=0),
    Message('note_on', channel=2, note=53, velocity=117, time=0),
    Message('note_on', channel=2, note=53, velocity=0, time=80),
    Message('note_on', channel=2, note=65, velocity=0, time=0),
    Message('note_on', channel=2, note=60, velocity=87, time=640),
    Message('note_on', channel=2, note=65, velocity=99, time=0),
    Message('note_on', channel=2, note=60, velocity=0, time=44),
    Message('note_on', channel=2, note=65, velocity=0, time=40),
    Message('note_on', channel=2, note=65, velocity=95, time=486),
    Message('note_on', channel=2, note=63, velocity=95, time=2),
    Message('note_on', channel=2, note=63, velocity=0, time=60),
    Message('note_on', channel=2, note=65, velocity=0, time=20),
    Message('note_on', channel=2, note=63, velocity=99, time=298),
    Message('note_on', channel=2, note=65, velocity=99, time=6),
    Message('note_on', channel=2, note=63, velocity=0, time=74),
    Message('note_on', channel=2, note=65, velocity=0, time=24),
    Message('note_on', channel=2, note=65, velocity=68, time=466),
    Message('note_on', channel=2, note=62, velocity=70, time=12),
    Message('note_on', channel=2, note=65, velocity=0, time=56),
    Message('note_on', channel=2, note=62, velocity=0, time=42),
    Message('note_on', channel=2, note=62, velocity=95, time=290),
    Message('note_on', channel=2, note=65, velocity=99, time=0),
    Message('note_on', channel=2, note=62, velocity=0, time=58),
    Message('note_on', channel=2, note=65, velocity=0, time=12),
    Message('note_on', channel=2, note=65, velocity=79, time=490),
    Message('note_on', channel=2, note=60, velocity=79, time=0),
    Message('note_on', channel=2, note=60, velocity=0, time=70),
    Message('note_on', channel=2, note=65, velocity=0, time=0),
    Message('note_on', channel=2, note=60, velocity=83, time=332),
    Message('note_on', channel=2, note=65, velocity=79, time=2),
    Message('note_on', channel=2, note=60, velocity=0, time=52),
    Message('note_on', channel=2, note=65, velocity=0, time=16),
    Message('note_on', channel=2, note=68, velocity=63, time=248),
    Message('note_on', channel=2, note=68, velocity=0, time=48),
    Message('note_on', channel=2, note=69, velocity=65, time=32),
    Message('note_on', channel=2, note=69, velocity=0, time=72),
    Message('note_on', channel=2, note=72, velocity=99, time=8),
    Message('note_on', channel=2, note=65, velocity=83, time=80),
    Message('note_on', channel=2, note=60, velocity=83, time=0),
    Message('note_on', channel=2, note=60, velocity=0, time=54),
    Message('note_on', channel=2, note=65, velocity=0, time=0),
    Message('note_on', channel=2, note=72, velocity=0, time=22),
    Message('note_on', channel=2, note=60, velocity=84, time=324),
    Message('note_on', channel=2, note=65, velocity=84, time=0),
    Message('note_on', channel=2, note=65, velocity=0, time=66),
    Message('note_on', channel=2, note=60, velocity=0, time=0),
    Message('note_on', channel=2, note=65, velocity=75, time=494),
    Message('note_on', channel=2, note=63, velocity=75, time=6),
    Message('note_on', channel=2, note=65, velocity=0, time=100),
    Message('note_on', channel=2, note=63, velocity=0, time=6),
    Message('note_on', channel=2, note=65, velocity=76, time=278),
    Message('note_on', channel=2, note=63, velocity=76, time=2),
    Message('note_on', channel=2, note=63, velocity=0, time=70),
    Message('note_on', channel=2, note=65, velocity=0, time=2),
    Message('note_on', channel=2, note=62, velocity=63, time=496),
    Message('note_on', channel=2, note=65, velocity=60, time=0),
    Message('note_on', channel=2, note=62, velocity=0, time=60),
    Message('note_on', channel=2, note=65, velocity=0, time=4),
    Message('note_on', channel=2, note=65, velocity=99, time=336),
    Message('note_on', channel=2, note=62, velocity=99, time=0),
    Message('note_on', channel=2, note=62, velocity=0, time=76),
    Message('note_on', channel=2, note=65, velocity=0, time=6),
    Message('note_on', channel=2, note=60, velocity=83, time=478),
    Message('note_on', channel=2, note=65, velocity=83, time=0),
    Message('note_on', channel=2, note=60, velocity=0, time=24),
    Message('note_on', channel=2, note=65, velocity=0, time=10),
    Message('note_on', channel=2, note=65, velocity=103, time=366),
    Message('note_on', channel=2, note=62, velocity=103, time=0),
    Message('note_on', channel=2, note=62, velocity=0, time=52),
    Message('note_on', channel=2, note=65, velocity=0, time=10),
    Message('note_on', channel=2, note=60, velocity=95, time=498),
    Message('note_on', channel=2, note=65, velocity=95, time=0),
    Message('note_on', channel=2, note=65, velocity=0, time=56),
    Message('note_on', channel=2, note=60, velocity=0, time=10),
    Message('note_on', channel=2, note=65, velocity=99, time=334),
    Message('note_on', channel=2, note=60, velocity=67, time=0),
    Message('note_on', channel=2, note=60, velocity=0, time=42),
    Message('note_on', channel=2, note=65, velocity=0, time=20),
    Message('note_on', channel=2, note=65, velocity=112, time=498),
    Message('note_on', channel=2, note=63, velocity=95, time=0),
    Message('note_on', channel=2, note=65, velocity=0, time=44),
    Message('note_on', channel=2, note=63, velocity=0, time=6),
    Message('note_on', channel=2, note=65, velocity=99, time=342),
    Message('note_on', channel=2, note=63, velocity=91, time=6),
    Message('note_on', channel=2, note=63, velocity=0, time=66),
    Message('note_on', channel=2, note=65, velocity=0, time=0),
    Message('note_on', channel=2, note=62, velocity=75, time=496),
    Message('note_on', channel=2, note=65, velocity=91, time=0),
    Message('note_on', channel=2, note=62, velocity=0, time=108),
    Message('note_on', channel=2, note=65, velocity=0, time=12),
    Message('note_on', channel=2, note=65, velocity=95, time=264),
    Message('note_on', channel=2, note=62, velocity=95, time=6),
    Message('note_on', channel=2, note=62, velocity=0, time=74),
    Message('note_on', channel=2, note=65, velocity=0, time=14),
    Message('note_on', channel=2, note=62, velocity=83, time=482),
    Message('note_on', channel=2, note=65, velocity=91, time=0),
    Message('note_on', channel=2, note=62, velocity=0, time=64),
    Message('note_on', channel=2, note=65, velocity=0, time=20),
    Message('note_on', channel=2, note=65, velocity=103, time=318),
    Message('note_on', channel=2, note=62, velocity=91, time=86),
    Message('note_on', channel=2, note=65, velocity=0, time=12),
    Message('note_on', channel=2, note=62, velocity=0, time=60),
    Message('note_on', channel=2, note=60, velocity=103, time=92),
    Message('note_on', channel=2, note=60, velocity=0, time=56),
    Message('note_on', channel=2, note=65, velocity=95, time=252),
    Message('note_on', channel=2, note=60, velocity=95, time=0),
    Message('note_on', channel=2, note=60, velocity=0, time=88),
    Message('note_on', channel=2, note=65, velocity=0, time=0),
    Message('note_on', channel=2, note=65, velocity=91, time=312),
    Message('note_on', channel=2, note=60, velocity=95, time=0),
    Message('note_on', channel=2, note=65, velocity=0, time=70),
    Message('note_on', channel=2, note=60, velocity=0, time=18),
    Message('note_on', channel=2, note=63, velocity=95, time=472),
    Message('note_on', channel=2, note=65, velocity=103, time=4),
    Message('note_on', channel=2, note=65, velocity=0, time=82),
    Message('note_on', channel=2, note=63, velocity=0, time=2),
    Message('note_on', channel=2, note=65, velocity=103, time=306),
    Message('note_on', channel=2, note=63, velocity=95, time=10),
    Message('note_on', channel=2, note=63, velocity=0, time=48),
    Message('note_on', channel=2, note=65, velocity=0, time=8),
    Message('note_on', channel=2, note=65, velocity=99, time=500),
    Message('note_on', channel=2, note=62, velocity=83, time=0),
    Message('note_on', channel=2, note=62, velocity=0, time=58),
    Message('note_on', channel=2, note=65, velocity=0, time=26),
    Message('note_on', channel=2, note=62, velocity=87, time=316),
    Message('note_on', channel=2, note=65, velocity=87, time=0),
    Message('note_on', channel=2, note=65, velocity=0, time=28),
    Message('note_on', channel=2, note=62, velocity=0, time=0),
    Message('note_on', channel=2, note=65, velocity=103, time=540),
    Message('note_on', channel=2, note=62, velocity=103, time=0),
    Message('note_on', channel=2, note=65, velocity=0, time=76),
    Message('note_on', channel=2, note=62, velocity=0, time=8),
    Message('note_on', channel=2, note=60, velocity=99, time=308),
    Message('note_on', channel=2, note=60, velocity=0, time=320),
    Message('note_on', channel=2, note=62, velocity=99, time=0),
    Message('note_on', channel=2, note=58, velocity=99, time=0),
    Message('note_on', channel=2, note=58, velocity=0, time=960),
    Message('note_on', channel=2, note=62, velocity=0, time=0),
    Message('note_on', channel=2, note=64, velocity=99, time=0),
    Message('note_on', channel=2, note=60, velocity=99, time=0),
    Message('note_on', channel=2, note=60, velocity=0, time=960),
    Message('note_on', channel=2, note=64, velocity=0, time=0),
    Message('note_on', channel=2, note=62, velocity=99, time=0),
    Message('note_on', channel=2, note=65, velocity=99, time=0),
    Message('note_on', channel=2, note=65, velocity=0, time=960),
    Message('note_on', channel=2, note=62, velocity=0, time=0),
    Message('note_on', channel=2, note=67, velocity=99, time=0),
    Message('note_on', channel=2, note=64, velocity=99, time=0),
    Message('note_on', channel=2, note=64, velocity=0, time=960),
    Message('note_on', channel=2, note=67, velocity=0, time=0),
    Message('note_on', channel=2, note=53, velocity=103, time=8),
    Message('note_on', channel=2, note=53, velocity=0, time=126),
    Message('note_on', channel=2, note=53, velocity=87, time=106),
    Message('note_on', channel=2, note=57, velocity=91, time=240),
    Message('note_on', channel=2, note=60, velocity=95, time=0),
    Message('note_on', channel=2, note=65, velocity=69, time=0),
    Message('note_on', channel=2, note=53, velocity=0, time=56),
    Message('note_on', channel=2, note=53, velocity=112, time=104),
    Message('note_on', channel=2, note=65, velocity=0, time=42),
    Message('note_on', channel=2, note=57, velocity=0, time=98),
    Message('note_on', channel=2, note=60, velocity=0, time=10),
    Message('note_on', channel=2, note=64, velocity=83, time=90),
    Message('note_on', channel=2, note=53, velocity=0, time=10),
    Message('note_on', channel=2, note=64, velocity=0, time=70),
    Message('note_on', channel=2, note=48, velocity=99, time=0),
    Message('note_on', channel=2, note=48, velocity=0, time=114),
    Message('note_on', channel=2, note=48, velocity=103, time=126),
    Message('note_on', channel=2, note=60, velocity=75, time=240),
    Message('note_on', channel=2, note=55, velocity=91, time=0),
    Message('note_on', channel=2, note=64, velocity=99, time=0),
    Message('note_on', channel=2, note=48, velocity=0, time=456),
    Message('note_on', channel=2, note=55, velocity=0, time=70),
    Message('note_on', channel=2, note=60, velocity=0, time=12),
    Message('note_on', channel=2, note=64, velocity=0, time=24),
    Message('note_on', channel=2, note=46, velocity=91, time=170),
    Message('note_on', channel=2, note=53, velocity=71, time=228),
    Message('note_on', channel=2, note=58, velocity=67, time=0),
    Message('note_on', channel=2, note=62, velocity=103, time=6),
    Message('note_on', channel=2, note=53, velocity=0, time=340),
    Message('note_on', channel=2, note=58, velocity=0, time=22),
    Message('note_on', channel=2, note=46, velocity=0, time=26),
    Message('note_on', channel=2, note=62, velocity=0, time=30),
    Message('note_on', channel=2, note=48, velocity=71, time=36),
    Message('note_on', channel=2, note=48, velocity=0, time=124),
    Message('note_on', channel=2, note=48, velocity=91, time=146),
    Message('note_on', channel=2, note=55, velocity=103, time=230),
    Message('note_on', channel=2, note=64, velocity=99, time=14),
    Message('note_on', channel=2, note=60, velocity=103, time=2),
    Message('note_on', channel=2, note=48, velocity=0, time=32),
    Message('note_on', channel=2, note=48, velocity=112, time=112),
    Message('note_on', channel=2, note=60, velocity=0, time=236),
    Message('note_on', channel=2, note=60, velocity=103, time=4),
    Message('note_on', channel=2, note=60, velocity=0, time=80),
    Message('note_on', channel=2, note=41, velocity=103, time=0),
    Message('note_on', channel=2, note=48, velocity=0, time=36),
    Message('note_on', channel=2, note=55, velocity=0, time=22),
    Message('note_on', channel=2, note=64, velocity=0, time=18),
    Message('note_on', channel=2, note=41, velocity=0, time=18),
    Message('note_on', channel=2, note=41, velocity=103, time=146),
    Message('note_on', channel=2, note=60, velocity=95, time=240),
    Message('note_on', channel=2, note=53, velocity=103, time=0),
    Message('note_on', channel=2, note=57, velocity=112, time=0),
    Message('note_on', channel=2, note=41, velocity=0, time=446),
    Message('note_on', channel=2, note=53, velocity=0, time=22),
    Message('note_on', channel=2, note=57, velocity=0, time=10),
    Message('note_on', channel=2, note=60, velocity=0, time=10),
    Message('note_on', channel=2, note=48, velocity=103, time=4),
    Message('note_on', channel=2, note=48, velocity=0, time=108),
    Message('note_on', channel=2, note=48, velocity=87, time=120),
    Message('note_on', channel=2, note=60, velocity=95, time=240),
    Message('note_on', channel=2, note=64, velocity=99, time=0),
    Message('note_on', channel=2, note=55, velocity=83, time=6),
    Message('note_on', channel=2, note=48, velocity=0, time=66),
    Message('note_on', channel=2, note=48, velocity=59, time=60),
    Message('note_on', channel=2, note=48, velocity=0, time=244),
    Message('note_on', channel=2, note=60, velocity=0, time=4),
    Message('note_on', channel=2, note=55, velocity=0, time=8),
    Message('note_on', channel=2, note=64, velocity=0, time=36),
    Message('note_on', channel=2, note=57, velocity=91, time=56),
    Message('note_on', channel=2, note=50, velocity=91, time=0),
    Message('note_on', channel=2, note=53, velocity=55, time=0),
    Message('note_on', channel=2, note=53, velocity=0, time=480),
    Message('note_on', channel=2, note=50, velocity=0, time=0),
    Message('note_on', channel=2, note=57, velocity=0, time=0),
    Message('note_on', channel=2, note=48, velocity=91, time=0),
    Message('note_on', channel=2, note=52, velocity=55, time=0),
    Message('note_on', channel=2, note=55, velocity=91, time=0),
    Message('note_on', channel=2, note=60, velocity=103, time=400),
    Message('note_on', channel=2, note=60, velocity=0, time=80),
    Message('note_on', channel=2, note=48, velocity=0, time=0),
    Message('note_on', channel=2, note=52, velocity=0, time=0),
    Message('note_on', channel=2, note=55, velocity=0, time=0),
    Message('note_on', channel=2, note=46, velocity=99, time=0),
    Message('note_on', channel=2, note=53, velocity=87, time=0),
    Message('note_on', channel=2, note=50, velocity=83, time=0),
    Message('note_on', channel=2, note=58, velocity=112, time=0),
    Message('note_on', channel=2, note=62, velocity=112, time=0),
    Message('note_on', channel=2, note=50, velocity=0, time=288),
    Message('note_on', channel=2, note=53, velocity=0, time=8),
    Message('note_on', channel=2, note=46, velocity=0, time=72),
    Message('note_on', channel=2, note=62, velocity=0, time=38),
    Message('note_on', channel=2, note=58, velocity=0, time=10),
    Message('note_on', channel=2, note=52, velocity=95, time=64),
    Message('note_on', channel=2, note=48, velocity=87, time=0),
    Message('note_on', channel=2, note=55, velocity=103, time=0),
    Message('note_on', channel=2, note=60, velocity=99, time=0),
    Message('note_on', channel=2, note=60, velocity=0, time=316),
    Message('note_on', channel=2, note=52, velocity=0, time=6),
    Message('note_on', channel=2, note=55, velocity=0, time=2),
    Message('note_on', channel=2, note=48, velocity=0, time=14),
    Message('note_on', channel=2, note=57, velocity=112, time=142),
    Message('note_on', channel=2, note=53, velocity=83, time=0),
    Message('note_on', channel=2, note=60, velocity=112, time=0),
    Message('note_on', channel=2, note=60, velocity=0, time=140),
    Message('note_on', channel=2, note=65, velocity=103, time=20),
    Message('note_on', channel=2, note=65, velocity=0, time=80),
    Message('note_on', channel=2, note=53, velocity=0, time=0),
    Message('note_on', channel=2, note=57, velocity=0, time=0),
    Message('note_on', channel=2, note=60, velocity=71, time=0),
    Message('note_on', channel=2, note=57, velocity=71, time=0),
    Message('note_on', channel=2, note=53, velocity=71, time=0),
    Message('note_on', channel=2, note=53, velocity=0, time=240),
    Message('note_on', channel=2, note=57, velocity=0, time=0),
    Message('note_on', channel=2, note=60, velocity=0, time=0),
    Message('note_on', channel=2, note=65, velocity=99, time=0),
    Message('note_on', channel=2, note=57, velocity=99, time=0),
    Message('note_on', channel=2, note=53, velocity=99, time=0),
    Message('note_on', channel=2, note=60, velocity=99, time=20),
    Message('note_on', channel=2, note=60, velocity=0, time=460),
    Message('note_on', channel=2, note=65, velocity=0, time=0),
    Message('note_on', channel=2, note=57, velocity=0, time=0),
    Message('note_on', channel=2, note=53, velocity=0, time=0),
    Message('note_on', channel=2, note=48, velocity=79, time=0),
    Message('note_on', channel=2, note=60, velocity=79, time=44),
    Message('note_on', channel=2, note=60, velocity=0, time=54),
    Message('note_on', channel=2, note=48, velocity=0, time=108),
    Message('note_on', channel=2, note=48, velocity=95, time=34),
    Message('note_on', channel=2, note=64, velocity=99, time=242),
    Message('note_on', channel=2, note=60, velocity=99, time=4),
    Message('note_on', channel=2, note=55, velocity=83, time=4),
    Message('note_on', channel=2, note=48, velocity=0, time=34),
    Message('note_on', channel=2, note=55, velocity=0, time=324),
    Message('note_on', channel=2, note=60, velocity=0, time=4),
    Message('note_on', channel=2, note=64, velocity=0, time=30),
    Message('note_on', channel=2, note=43, velocity=83, time=78),
    Message('note_on', channel=2, note=55, velocity=99, time=0),
    Message('note_on', channel=2, note=58, velocity=121, time=0),
    Message('note_on', channel=2, note=62, velocity=103, time=0),
    Message('note_on', channel=2, note=62, velocity=0, time=442),
    Message('note_on', channel=2, note=58, velocity=0, time=18),
    Message('note_on', channel=2, note=55, velocity=0, time=0),
    Message('note_on', channel=2, note=45, velocity=112, time=20),
    Message('note_on', channel=2, note=53, velocity=91, time=0),
    Message('note_on', channel=2, note=57, velocity=68, time=0),
    Message('note_on', channel=2, note=60, velocity=95, time=0),
    Message('note_on', channel=2, note=43, velocity=0, time=34),
    Message('note_on', channel=2, note=57, velocity=0, time=446),
    Message('note_on', channel=2, note=45, velocity=0, time=0),
    Message('note_on', channel=2, note=53, velocity=0, time=0),
    Message('note_on', channel=2, note=60, velocity=0, time=0),
    Message('note_on', channel=2, note=46, velocity=112, time=0),
    Message('note_on', channel=2, note=53, velocity=79, time=0),
    Message('note_on', channel=2, note=58, velocity=103, time=0),
    Message('note_on', channel=2, note=62, velocity=103, time=0),
    Message('note_on', channel=2, note=62, velocity=0, time=160),
    Message('note_on', channel=2, note=65, velocity=83, time=0),
    Message('note_on', channel=2, note=62, velocity=83, time=80),
    Message('note_on', channel=2, note=65, velocity=0, time=12),
    Message('note_on', channel=2, note=46, velocity=0, time=228),
    Message('note_on', channel=2, note=58, velocity=0, time=0),
    Message('note_on', channel=2, note=53, velocity=0, time=0),
    Message('note_on', channel=2, note=62, velocity=0, time=0),
    Message('note_on', channel=2, note=48, velocity=87, time=0),
    Message('note_on', channel=2, note=55, velocity=79, time=0),
    Message('note_on', channel=2, note=60, velocity=91, time=0),
    Message('note_on', channel=2, note=64, velocity=99, time=0),
    Message('note_on', channel=2, note=64, velocity=0, time=480),
    Message('note_on', channel=2, note=48, velocity=0, time=0),
    Message('note_on', channel=2, note=55, velocity=0, time=0),
    Message('note_on', channel=2, note=60, velocity=0, time=0),
    Message('note_on', channel=2, note=62, velocity=95, time=0),
    Message('note_on', channel=2, note=58, velocity=87, time=0),
    Message('note_on', channel=2, note=53, velocity=95, time=0),
    Message('note_on', channel=2, note=50, velocity=95, time=0),
    Message('note_on', channel=2, note=50, velocity=0, time=480),
    Message('note_on', channel=2, note=62, velocity=0, time=0),
    Message('note_on', channel=2, note=58, velocity=0, time=0),
    Message('note_on', channel=2, note=53, velocity=0, time=0),
    Message('note_on', channel=2, note=55, velocity=121, time=0),
    Message('note_on', channel=2, note=52, velocity=121, time=0),
    Message('note_on', channel=2, note=48, velocity=121, time=0),
    Message('note_on', channel=2, note=60, velocity=103, time=0),
    Message('note_on', channel=2, note=60, velocity=0, time=460),
    Message('note_on', channel=2, note=55, velocity=0, time=0),
    Message('note_on', channel=2, note=52, velocity=0, time=0),
    Message('note_on', channel=2, note=48, velocity=0, time=0),
    Message('note_on', channel=2, note=62, velocity=91, time=20),
    Message('note_on', channel=2, note=58, velocity=99, time=0),
    Message('note_on', channel=2, note=53, velocity=70, time=0),
    Message('note_on', channel=2, note=50, velocity=95, time=0),
    Message('note_on', channel=2, note=46, velocity=99, time=0),
    Message('note_on', channel=2, note=50, velocity=0, time=260),
    Message('note_on', channel=2, note=53, velocity=0, time=44),
    Message('note_on', channel=2, note=58, velocity=0, time=30),
    Message('note_on', channel=2, note=62, velocity=0, time=66),
    Message('note_on', channel=2, note=46, velocity=0, time=76),
    Message('note_on', channel=2, note=60, velocity=112, time=14),
    Message('note_on', channel=2, note=64, velocity=103, time=2),
    Message('note_on', channel=2, note=55, velocity=99, time=4),
    Message('note_on', channel=2, note=48, velocity=112, time=0),
    Message('note_on', channel=2, note=55, velocity=0, time=440),
    Message('note_on', channel=2, note=60, velocity=0, time=2),
    Message('note_on', channel=2, note=48, velocity=0, time=18),
    Message('note_on', channel=2, note=64, velocity=0, time=2),
    Message('note_on', channel=2, note=53, velocity=97, time=2),
    Message('note_on', channel=2, note=65, velocity=120, time=0),
    Message('note_on', channel=2, note=65, velocity=0, time=240),
    Message('note_on', channel=2, note=53, velocity=0, time=0),
    Message('note_on', channel=2, note=60, velocity=93, time=0),
    Message('note_on', channel=2, note=57, velocity=93, time=0),
    Message('note_on', channel=2, note=53, velocity=93, time=0),
    Message('note_on', channel=2, note=65, velocity=119, time=0),
    Message('note_on', channel=2, note=65, velocity=0, time=160),
    Message('note_on', channel=2, note=62, velocity=96, time=0),
    Message('note_on', channel=2, note=62, velocity=0, time=80),
    Message('note_on', channel=2, note=65, velocity=107, time=0),
    Message('note_on', channel=2, note=65, velocity=0, time=140),
    Message('note_on', channel=2, note=69, velocity=116, time=20),
    Message('note_on', channel=2, note=69, velocity=0, time=320),
    Message('note_on', channel=2, note=53, velocity=0, time=0),
    Message('note_on', channel=2, note=57, velocity=0, time=0),
    Message('note_on', channel=2, note=60, velocity=0, time=0),
    Message('note_on', channel=2, note=51, velocity=93, time=0),
    Message('note_on', channel=2, note=65, velocity=115, time=0),
    Message('note_on', channel=2, note=65, velocity=0, time=240),
    Message('note_on', channel=2, note=51, velocity=0, time=0),
    Message('note_on', channel=2, note=58, velocity=93, time=0),
    Message('note_on', channel=2, note=55, velocity=93, time=0),
    Message('note_on', channel=2, note=65, velocity=113, time=0),
    Message('note_on', channel=2, note=51, velocity=93, time=0),
    Message('note_on', channel=2, note=65, velocity=0, time=160),
    Message('note_on', channel=2, note=62, velocity=97, time=0),
    Message('note_on', channel=2, note=62, velocity=0, time=80),
    Message('note_on', channel=2, note=65, velocity=105, time=0),
    Message('note_on', channel=2, note=65, velocity=0, time=140),
    Message('note_on', channel=2, note=69, velocity=120, time=20),
    Message('note_on', channel=2, note=69, velocity=0, time=320),
    Message('note_on', channel=2, note=51, velocity=0, time=0),
    Message('note_on', channel=2, note=55, velocity=0, time=0),
    Message('note_on', channel=2, note=58, velocity=0, time=0),
    Message('note_on', channel=2, note=58, velocity=93, time=0),
    Message('note_on', channel=2, note=65, velocity=120, time=0),
    Message('note_on', channel=2, note=65, velocity=0, time=240),
    Message('note_on', channel=2, note=58, velocity=0, time=0),
    Message('note_on', channel=2, note=50, velocity=93, time=0),
    Message('note_on', channel=2, note=58, velocity=93, time=0),
    Message('note_on', channel=2, note=65, velocity=119, time=0),
    Message('note_on', channel=2, note=53, velocity=93, time=0),
    Message('note_on', channel=2, note=65, velocity=0, time=160),
    Message('note_on', channel=2, note=62, velocity=100, time=0),
    Message('note_on', channel=2, note=62, velocity=0, time=80),
    Message('note_on', channel=2, note=65, velocity=111, time=0),
    Message('note_on', channel=2, note=65, velocity=0, time=140),
    Message('note_on', channel=2, note=69, velocity=122, time=20),
    Message('note_on', channel=2, note=69, velocity=0, time=320),
    Message('note_on', channel=2, note=53, velocity=0, time=0),
    Message('note_on', channel=2, note=58, velocity=0, time=0),
    Message('note_on', channel=2, note=50, velocity=0, time=0),
    Message('note_on', channel=2, note=53, velocity=119, time=0),
    Message('note_on', channel=2, note=60, velocity=119, time=0),
    Message('note_on', channel=2, note=65, velocity=119, time=0),
    Message('note_on', channel=2, note=57, velocity=119, time=0),
    Message('note_on', channel=2, note=69, velocity=119, time=0),
    Message('note_on', channel=2, note=69, velocity=0, time=480),
    Message('note_on', channel=2, note=65, velocity=0, time=0),
    Message('note_on', channel=2, note=53, velocity=0, time=0),
    Message('note_on', channel=2, note=60, velocity=0, time=0),
    Message('note_on', channel=2, note=57, velocity=0, time=0),
    Message('note_on', channel=2, note=64, velocity=117, time=0),
    Message('note_on', channel=2, note=60, velocity=117, time=0),
    Message('note_on', channel=2, note=55, velocity=117, time=0),
    Message('note_on', channel=2, note=67, velocity=117, time=0),
    Message('note_on', channel=2, note=67, velocity=0, time=480),
    Message('note_on', channel=2, note=64, velocity=0, time=0),
    Message('note_on', channel=2, note=60, velocity=0, time=0),
    Message('note_on', channel=2, note=55, velocity=0, time=0),
    Message('note_on', channel=2, note=53, velocity=97, time=0),
    Message('note_on', channel=2, note=65, velocity=120, time=0),
    Message('note_on', channel=2, note=65, velocity=0, time=240),
    Message('note_on', channel=2, note=53, velocity=0, time=0),
    Message('note_on', channel=2, note=60, velocity=93, time=0),
    Message('note_on', channel=2, note=57, velocity=93, time=0),
    Message('note_on', channel=2, note=53, velocity=93, time=0),
    Message('note_on', channel=2, note=65, velocity=119, time=0),
    Message('note_on', channel=2, note=65, velocity=0, time=160),
    Message('note_on', channel=2, note=62, velocity=96, time=0),
    Message('note_on', channel=2, note=62, velocity=0, time=80),
    Message('note_on', channel=2, note=65, velocity=107, time=0),
    Message('note_on', channel=2, note=65, velocity=0, time=140),
    Message('note_on', channel=2, note=69, velocity=116, time=20),
    Message('note_on', channel=2, note=69, velocity=0, time=320),
    Message('note_on', channel=2, note=53, velocity=0, time=0),
    Message('note_on', channel=2, note=57, velocity=0, time=0),
    Message('note_on', channel=2, note=60, velocity=0, time=0),
    Message('note_on', channel=2, note=51, velocity=93, time=0),
    Message('note_on', channel=2, note=65, velocity=115, time=0),
    Message('note_on', channel=2, note=65, velocity=0, time=240),
    Message('note_on', channel=2, note=51, velocity=0, time=0),
    Message('note_on', channel=2, note=58, velocity=93, time=0),
    Message('note_on', channel=2, note=55, velocity=93, time=0),
    Message('note_on', channel=2, note=65, velocity=113, time=0),
    Message('note_on', channel=2, note=51, velocity=93, time=0),
    Message('note_on', channel=2, note=65, velocity=0, time=160),
    Message('note_on', channel=2, note=62, velocity=97, time=0),
    Message('note_on', channel=2, note=62, velocity=0, time=80),
    Message('note_on', channel=2, note=65, velocity=105, time=0),
    Message('note_on', channel=2, note=65, velocity=0, time=140),
    Message('note_on', channel=2, note=69, velocity=120, time=20),
    Message('note_on', channel=2, note=69, velocity=0, time=320),
    Message('note_on', channel=2, note=51, velocity=0, time=0),
    Message('note_on', channel=2, note=55, velocity=0, time=0),
    Message('note_on', channel=2, note=58, velocity=0, time=0),
    Message('note_on', channel=2, note=46, velocity=93, time=0),
    Message('note_on', channel=2, note=65, velocity=120, time=0),
    Message('note_on', channel=2, note=65, velocity=0, time=240),
    Message('note_on', channel=2, note=46, velocity=0, time=0),
    Message('note_on', channel=2, note=50, velocity=93, time=0),
    Message('note_on', channel=2, note=46, velocity=93, time=0),
    Message('note_on', channel=2, note=65, velocity=119, time=0),
    Message('note_on', channel=2, note=53, velocity=93, time=0),
    Message('note_on', channel=2, note=65, velocity=0, time=160),
    Message('note_on', channel=2, note=62, velocity=100, time=0),
    Message('note_on', channel=2, note=62, velocity=0, time=80),
    Message('note_on', channel=2, note=65, velocity=111, time=0),
    Message('note_on', channel=2, note=65, velocity=0, time=140),
    Message('note_on', channel=2, note=69, velocity=122, time=20),
    Message('note_on', channel=2, note=69, velocity=0, time=320),
    Message('note_on', channel=2, note=53, velocity=0, time=0),
    Message('note_on', channel=2, note=46, velocity=0, time=0),
    Message('note_on', channel=2, note=50, velocity=0, time=0),
    Message('note_on', channel=2, note=53, velocity=119, time=0),
    Message('note_on', channel=2, note=60, velocity=119, time=0),
    Message('note_on', channel=2, note=65, velocity=119, time=0),
    Message('note_on', channel=2, note=57, velocity=119, time=0),
    Message('note_on', channel=2, note=69, velocity=119, time=0),
    Message('note_on', channel=2, note=69, velocity=0, time=480),
    Message('note_on', channel=2, note=65, velocity=0, time=0),
    Message('note_on', channel=2, note=53, velocity=0, time=0),
    Message('note_on', channel=2, note=60, velocity=0, time=0),
    Message('note_on', channel=2, note=57, velocity=0, time=0),
    Message('note_on', channel=2, note=64, velocity=117, time=0),
    Message('note_on', channel=2, note=60, velocity=117, time=0),
    Message('note_on', channel=2, note=55, velocity=117, time=0),
    Message('note_on', channel=2, note=67, velocity=117, time=0),
    Message('note_on', channel=2, note=67, velocity=0, time=480),
    Message('note_on', channel=2, note=64, velocity=0, time=0),
    Message('note_on', channel=2, note=60, velocity=0, time=0),
    Message('note_on', channel=2, note=55, velocity=0, time=0),
    Message('note_on', channel=2, note=58, velocity=93, time=0),
    Message('note_on', channel=2, note=50, velocity=93, time=0),
    Message('note_on', channel=2, note=55, velocity=93, time=0),
    Message('note_on', channel=2, note=43, velocity=93, time=0),
    Message('note_on', channel=2, note=43, velocity=0, time=960),
    Message('note_on', channel=2, note=58, velocity=0, time=0),
    Message('note_on', channel=2, note=50, velocity=0, time=0),
    Message('note_on', channel=2, note=55, velocity=0, time=0),
    Message('note_on', channel=2, note=58, velocity=78, time=0),
    Message('note_on', channel=2, note=55, velocity=78, time=0),
    Message('note_on', channel=2, note=50, velocity=78, time=0),
    Message('note_on', channel=2, note=43, velocity=78, time=0),
    Message('note_on', channel=2, note=43, velocity=0, time=100),
    Message('note_on', channel=2, note=58, velocity=0, time=0),
    Message('note_on', channel=2, note=55, velocity=0, time=0),
    Message('note_on', channel=2, note=50, velocity=0, time=0),
    Message('note_on', channel=2, note=55, velocity=93, time=140),
    Message('note_on', channel=2, note=50, velocity=93, time=0),
    Message('note_on', channel=2, note=43, velocity=93, time=0),
    Message('note_on', channel=2, note=58, velocity=93, time=0),
    Message('note_on', channel=2, note=58, velocity=0, time=720),
    Message('note_on', channel=2, note=55, velocity=0, time=0),
    Message('note_on', channel=2, note=50, velocity=0, time=0),
    Message('note_on', channel=2, note=43, velocity=0, time=0),
    Message('note_on', channel=2, note=60, velocity=93, time=0),
    Message('note_on', channel=2, note=57, velocity=93, time=0),
    Message('note_on', channel=2, note=53, velocity=93, time=0),
    Message('note_on', channel=2, note=45, velocity=93, time=0),
    Message('note_on', channel=2, note=45, velocity=0, time=960),
    Message('note_on', channel=2, note=60, velocity=0, time=0),
    Message('note_on', channel=2, note=57, velocity=0, time=0),
    Message('note_on', channel=2, note=53, velocity=0, time=0),
    Message('note_on', channel=2, note=60, velocity=78, time=0),
    Message('note_on', channel=2, note=53, velocity=78, time=0),
    Message('note_on', channel=2, note=45, velocity=78, time=0),
    Message('note_on', channel=2, note=57, velocity=78, time=0),
    Message('note_on', channel=2, note=57, velocity=0, time=100),
    Message('note_on', channel=2, note=60, velocity=0, time=0),
    Message('note_on', channel=2, note=53, velocity=0, time=0),
    Message('note_on', channel=2, note=45, velocity=0, time=0),
    Message('note_on', channel=2, note=60, velocity=93, time=140),
    Message('note_on', channel=2, note=57, velocity=93, time=0),
    Message('note_on', channel=2, note=53, velocity=93, time=0),
    Message('note_on', channel=2, note=45, velocity=93, time=0),
    Message('note_on', channel=2, note=45, velocity=0, time=720),
    Message('note_on', channel=2, note=60, velocity=0, time=0),
    Message('note_on', channel=2, note=57, velocity=0, time=0),
    Message('note_on', channel=2, note=53, velocity=0, time=0),
    Message('note_on', channel=2, note=62, velocity=93, time=0),
    Message('note_on', channel=2, note=58, velocity=93, time=0),
    Message('note_on', channel=2, note=53, velocity=93, time=0),
    Message('note_on', channel=2, note=46, velocity=93, time=0),
    Message('note_on', channel=2, note=46, velocity=0, time=960),
    Message('note_on', channel=2, note=62, velocity=0, time=0),
    Message('note_on', channel=2, note=58, velocity=0, time=0),
    Message('note_on', channel=2, note=53, velocity=0, time=0),
    Message('note_on', channel=2, note=62, velocity=78, time=0),
    Message('note_on', channel=2, note=58, velocity=78, time=0),
    Message('note_on', channel=2, note=53, velocity=78, time=0),
    Message('note_on', channel=2, note=46, velocity=78, time=0),
    Message('note_on', channel=2, note=46, velocity=0, time=100),
    Message('note_on', channel=2, note=62, velocity=0, time=0),
    Message('note_on', channel=2, note=58, velocity=0, time=0),
    Message('note_on', channel=2, note=53, velocity=0, time=0),
    Message('note_on', channel=2, note=46, velocity=93, time=140),
    Message('note_on', channel=2, note=53, velocity=93, time=0),
    Message('note_on', channel=2, note=58, velocity=93, time=0),
    Message('note_on', channel=2, note=62, velocity=93, time=0),
    Message('note_on', channel=2, note=62, velocity=0, time=720),
    Message('note_on', channel=2, note=46, velocity=0, time=0),
    Message('note_on', channel=2, note=53, velocity=0, time=0),
    Message('note_on', channel=2, note=58, velocity=0, time=0),
    Message('note_on', channel=2, note=64, velocity=93, time=0),
    Message('note_on', channel=2, note=60, velocity=93, time=0),
    Message('note_on', channel=2, note=55, velocity=93, time=0),
    Message('note_on', channel=2, note=48, velocity=93, time=0),
    Message('note_on', channel=2, note=48, velocity=0, time=960),
    Message('note_on', channel=2, note=64, velocity=0, time=0),
    Message('note_on', channel=2, note=60, velocity=0, time=0),
    Message('note_on', channel=2, note=55, velocity=0, time=0),
    Message('note_on', channel=2, note=64, velocity=78, time=0),
    Message('note_on', channel=2, note=60, velocity=78, time=0),
    Message('note_on', channel=2, note=55, velocity=78, time=0),
    Message('note_on', channel=2, note=48, velocity=78, time=0),
    Message('note_on', channel=2, note=48, velocity=0, time=100),
    Message('note_on', channel=2, note=64, velocity=0, time=0),
    Message('note_on', channel=2, note=60, velocity=0, time=0),
    Message('note_on', channel=2, note=55, velocity=0, time=0),
    Message('note_on', channel=2, note=64, velocity=93, time=140),
    Message('note_on', channel=2, note=60, velocity=93, time=0),
    Message('note_on', channel=2, note=55, velocity=93, time=0),
    Message('note_on', channel=2, note=48, velocity=93, time=0),
    Message('note_on', channel=2, note=48, velocity=0, time=720),
    Message('note_on', channel=2, note=64, velocity=0, time=0),
    Message('note_on', channel=2, note=60, velocity=0, time=0),
    Message('note_on', channel=2, note=55, velocity=0, time=0),
    Message('note_on', channel=2, note=57, velocity=103, time=0),
    Message('note_on', channel=2, note=53, velocity=103, time=0),
    Message('note_on', channel=2, note=60, velocity=103, time=0),
    Message('note_on', channel=2, note=60, velocity=0, time=126),
    Message('note_on', channel=2, note=53, velocity=0, time=0),
    Message('note_on', channel=2, note=57, velocity=0, time=0),
    Message('note_on', channel=2, note=53, velocity=87, time=34),
    Message('note_on', channel=2, note=57, velocity=103, time=0),
    Message('note_on', channel=2, note=60, velocity=103, time=0),
    Message('note_on', channel=2, note=60, velocity=0, time=80),
    Message('note_on', channel=2, note=57, velocity=0, time=0),
    Message('note_on', channel=2, note=53, velocity=0, time=0),
    Message('note_on', channel=2, note=64, velocity=83, time=658),
    Message('note_on', channel=2, note=48, velocity=99, time=62),
    Message('note_on', channel=2, note=55, velocity=91, time=0),
    Message('note_on', channel=2, note=60, velocity=75, time=0),
    Message('note_on', channel=2, note=64, velocity=0, time=8),
    Message('note_on', channel=2, note=60, velocity=0, time=92),
    Message('note_on', channel=2, note=55, velocity=0, time=0),
    Message('note_on', channel=2, note=48, velocity=0, time=14),
    Message('note_on', channel=2, note=48, velocity=75, time=46),
    Message('note_on', channel=2, note=55, velocity=75, time=0),
    Message('note_on', channel=2, note=60, velocity=75, time=0),
    Message('note_on', channel=2, note=60, velocity=0, time=80),
    Message('note_on', channel=2, note=55, velocity=0, time=0),
    Message('note_on', channel=2, note=48, velocity=0, time=0),
    Message('note_on', channel=2, note=62, velocity=91, time=720),
    Message('note_on', channel=2, note=58, velocity=91, time=0),
    Message('note_on', channel=2, note=53, velocity=91, time=0),
    Message('note_on', channel=2, note=46, velocity=91, time=0),
    Message('note_on', channel=2, note=46, velocity=0, time=80),
    Message('note_on', channel=2, note=62, velocity=0, time=0),
    Message('note_on', channel=2, note=58, velocity=0, time=0),
    Message('note_on', channel=2, note=53, velocity=0, time=0),
    Message('note_on', channel=2, note=46, velocity=91, time=80),
    Message('note_on', channel=2, note=53, velocity=91, time=0),
    Message('note_on', channel=2, note=58, velocity=91, time=0),
    Message('note_on', channel=2, note=62, velocity=91, time=0),
    Message('note_on', channel=2, note=62, velocity=0, time=80),
    Message('note_on', channel=2, note=46, velocity=0, time=0),
    Message('note_on', channel=2, note=53, velocity=0, time=0),
    Message('note_on', channel=2, note=58, velocity=0, time=0),
    Message('note_on', channel=2, note=64, velocity=88, time=720),
    Message('note_on', channel=2, note=60, velocity=88, time=0),
    Message('note_on', channel=2, note=55, velocity=88, time=0),
    Message('note_on', channel=2, note=48, velocity=88, time=0),
    Message('note_on', channel=2, note=48, velocity=0, time=80),
    Message('note_on', channel=2, note=64, velocity=0, time=0),
    Message('note_on', channel=2, note=60, velocity=0, time=0),
    Message('note_on', channel=2, note=55, velocity=0, time=0),
    Message('note_on', channel=2, note=64, velocity=88, time=80),
    Message('note_on', channel=2, note=60, velocity=88, time=0),
    Message('note_on', channel=2, note=55, velocity=88, time=0),
    Message('note_on', channel=2, note=48, velocity=88, time=0),
    Message('note_on', channel=2, note=48, velocity=0, time=80),
    Message('note_on', channel=2, note=64, velocity=0, time=0),
    Message('note_on', channel=2, note=60, velocity=0, time=0),
    Message('note_on', channel=2, note=55, velocity=0, time=0),
    Message('note_on', channel=2, note=55, velocity=103, time=240),
    Message('note_on', channel=2, note=64, velocity=99, time=14),
    Message('note_on', channel=2, note=60, velocity=103, time=2),
    Message('note_on', channel=2, note=48, velocity=112, time=144),
    Message('note_on', channel=2, note=60, velocity=0, time=236),
    Message('note_on', channel=2, note=60, velocity=103, time=4),
    Message('note_on', channel=2, note=48, velocity=0, time=40),
    Message('note_on', channel=2, note=55, velocity=0, time=0),
    Message('note_on', channel=2, note=64, velocity=0, time=14),
    Message('note_on', channel=2, note=60, velocity=0, time=26),
    Message('note_on', channel=2, note=57, velocity=112, time=0),
    Message('note_on', channel=2, note=53, velocity=112, time=0),
    Message('note_on', channel=2, note=48, velocity=112, time=0),
    Message('note_on', channel=2, note=41, velocity=103, time=0),
    Message('note_on', channel=2, note=41, velocity=0, time=80),
    Message('note_on', channel=2, note=57, velocity=0, time=0),
    Message('note_on', channel=2, note=53, velocity=0, time=0),
    Message('note_on', channel=2, note=48, velocity=0, time=0),
    Message('note_on', channel=2, note=57, velocity=103, time=80),
    Message('note_on', channel=2, note=53, velocity=103, time=0),
    Message('note_on', channel=2, note=48, velocity=103, time=0),
    Message('note_on', channel=2, note=41, velocity=103, time=0),
    Message('note_on', channel=2, note=41, velocity=0, time=80),
    Message('note_on', channel=2, note=57, velocity=0, time=0),
    Message('note_on', channel=2, note=53, velocity=0, time=0),
    Message('note_on', channel=2, note=48, velocity=0, time=0),
    Message('note_on', channel=2, note=55, velocity=103, time=720),
    Message('note_on', channel=2, note=52, velocity=103, time=0),
    Message('note_on', channel=2, note=48, velocity=103, time=0),
    Message('note_on', channel=2, note=48, velocity=0, time=80),
    Message('note_on', channel=2, note=52, velocity=0, time=0),
    Message('note_on', channel=2, note=55, velocity=0, time=0),
    Message('note_on', channel=2, note=55, velocity=103, time=80),
    Message('note_on', channel=2, note=48, velocity=103, time=0),
    Message('note_on', channel=2, note=52, velocity=103, time=0),
    Message('note_on', channel=2, note=52, velocity=0, time=80),
    Message('note_on', channel=2, note=48, velocity=0, time=0),
    Message('note_on', channel=2, note=55, velocity=0, time=0),
    Message('note_on', channel=2, note=57, velocity=91, time=720),
    Message('note_on', channel=2, note=50, velocity=91, time=0),
    Message('note_on', channel=2, note=53, velocity=55, time=0),
    Message('note_on', channel=2, note=53, velocity=0, time=480),
    Message('note_on', channel=2, note=50, velocity=0, time=0),
    Message('note_on', channel=2, note=57, velocity=0, time=0),
    Message('note_on', channel=2, note=48, velocity=91, time=0),
    Message('note_on', channel=2, note=52, velocity=55, time=0),
    Message('note_on', channel=2, note=55, velocity=91, time=0),
    Message('note_on', channel=2, note=60, velocity=103, time=400),
    Message('note_on', channel=2, note=60, velocity=0, time=80),
    Message('note_on', channel=2, note=48, velocity=0, time=0),
    Message('note_on', channel=2, note=52, velocity=0, time=0),
    Message('note_on', channel=2, note=55, velocity=0, time=0),
    Message('note_on', channel=2, note=46, velocity=99, time=0),
    Message('note_on', channel=2, note=53, velocity=87, time=0),
    Message('note_on', channel=2, note=50, velocity=83, time=0),
    Message('note_on', channel=2, note=58, velocity=112, time=0),
    Message('note_on', channel=2, note=62, velocity=112, time=0),
    Message('note_on', channel=2, note=50, velocity=0, time=288),
    Message('note_on', channel=2, note=53, velocity=0, time=8),
    Message('note_on', channel=2, note=46, velocity=0, time=72),
    Message('note_on', channel=2, note=62, velocity=0, time=38),
    Message('note_on', channel=2, note=58, velocity=0, time=10),
    Message('note_on', channel=2, note=52, velocity=95, time=64),
    Message('note_on', channel=2, note=48, velocity=87, time=0),
    Message('note_on', channel=2, note=55, velocity=103, time=0),
    Message('note_on', channel=2, note=60, velocity=99, time=0),
    Message('note_on', channel=2, note=60, velocity=0, time=316),
    Message('note_on', channel=2, note=52, velocity=0, time=6),
    Message('note_on', channel=2, note=55, velocity=0, time=2),
    Message('note_on', channel=2, note=48, velocity=0, time=14),
    Message('note_on', channel=2, note=48, velocity=112, time=142),
    Message('note_on', channel=2, note=41, velocity=83, time=0),
    Message('note_on', channel=2, note=57, velocity=112, time=0),
    Message('note_on', channel=2, note=53, velocity=71, time=160),
    Message('note_on', channel=2, note=48, velocity=0, time=20),
    Message('note_on', channel=2, note=53, velocity=0, time=10),
    Message('note_on', channel=2, note=57, velocity=0, time=50),
    Message('note_on', channel=2, note=41, velocity=0, time=0),
    Message('note_on', channel=2, note=48, velocity=71, time=0),
    Message('note_on', channel=2, note=57, velocity=71, time=0),
    Message('note_on', channel=2, note=41, velocity=71, time=0),
    Message('note_on', channel=2, note=41, velocity=0, time=240),
    Message('note_on', channel=2, note=57, velocity=0, time=0),
    Message('note_on', channel=2, note=48, velocity=0, time=0),
    Message('note_on', channel=2, note=53, velocity=99, time=0),
    Message('note_on', channel=2, note=57, velocity=99, time=0),
    Message('note_on', channel=2, note=60, velocity=99, time=0),
    Message('note_on', channel=2, note=53, velocity=0, time=300),
    Message('note_on', channel=2, note=57, velocity=0, time=46),
    Message('note_on', channel=2, note=60, velocity=0, time=16),
    Message('note_on', channel=2, note=48, velocity=79, time=78),
    Message('note_on', channel=2, note=60, velocity=79, time=84),
    Message('note_on', channel=2, note=60, velocity=0, time=54),
    Message('note_on', channel=2, note=48, velocity=0, time=68),
    Message('note_on', channel=2, note=48, velocity=95, time=102),
    Message('note_on', channel=2, note=64, velocity=99, time=214),
    Message('note_on', channel=2, note=60, velocity=99, time=4),
    Message('note_on', channel=2, note=55, velocity=83, time=4),
    Message('note_on', channel=2, note=48, velocity=0, time=62),
    Message('note_on', channel=2, note=55, velocity=0, time=296),
    Message('note_on', channel=2, note=60, velocity=0, time=4),
    Message('note_on', channel=2, note=64, velocity=0, time=30),
    Message('note_on', channel=2, note=43, velocity=83, time=78),
    Message('note_on', channel=2, note=55, velocity=99, time=0),
    Message('note_on', channel=2, note=58, velocity=121, time=0),
    Message('note_on', channel=2, note=62, velocity=103, time=0),
    Message('note_on', channel=2, note=62, velocity=0, time=442),
    Message('note_on', channel=2, note=58, velocity=0, time=18),
    Message('note_on', channel=2, note=55, velocity=0, time=0),
    Message('note_on', channel=2, note=45, velocity=112, time=20),
    Message('note_on', channel=2, note=53, velocity=91, time=0),
    Message('note_on', channel=2, note=57, velocity=68, time=0),
    Message('note_on', channel=2, note=60, velocity=95, time=0),
    Message('note_on', channel=2, note=43, velocity=0, time=34),
    Message('note_on', channel=2, note=57, velocity=0, time=446),
    Message('note_on', channel=2, note=45, velocity=0, time=0),
    Message('note_on', channel=2, note=53, velocity=0, time=0),
    Message('note_on', channel=2, note=60, velocity=0, time=0),
    Message('note_on', channel=2, note=46, velocity=112, time=0),
    Message('note_on', channel=2, note=53, velocity=79, time=0),
    Message('note_on', channel=2, note=58, velocity=103, time=0),
    Message('note_on', channel=2, note=62, velocity=103, time=0),
    Message('note_on', channel=2, note=57, velocity=83, time=160),
    Message('note_on', channel=2, note=53, velocity=0, time=48),
    Message('note_on', channel=2, note=53, velocity=83, time=32),
    Message('note_on', channel=2, note=57, velocity=0, time=12),
    Message('note_on', channel=2, note=62, velocity=0, time=228),
    Message('note_on', channel=2, note=46, velocity=0, time=0),
    Message('note_on', channel=2, note=58, velocity=0, time=0),
    Message('note_on', channel=2, note=53, velocity=0, time=0),
    Message('note_on', channel=2, note=48, velocity=87, time=0),
    Message('note_on', channel=2, note=55, velocity=79, time=0),
    Message('note_on', channel=2, note=60, velocity=91, time=0),
    Message('note_on', channel=2, note=64, velocity=99, time=0),
    Message('note_on', channel=2, note=64, velocity=0, time=480),
    Message('note_on', channel=2, note=48, velocity=0, time=0),
    Message('note_on', channel=2, note=55, velocity=0, time=0),
    Message('note_on', channel=2, note=60, velocity=0, time=0),
    Message('note_on', channel=2, note=62, velocity=95, time=0),
    Message('note_on', channel=2, note=58, velocity=87, time=0),
    Message('note_on', channel=2, note=53, velocity=95, time=0),
    Message('note_on', channel=2, note=50, velocity=95, time=0),
    Message('note_on', channel=2, note=50, velocity=0, time=480),
    Message('note_on', channel=2, note=62, velocity=0, time=0),
    Message('note_on', channel=2, note=58, velocity=0, time=0),
    Message('note_on', channel=2, note=53, velocity=0, time=0),
    Message('note_on', channel=2, note=55, velocity=121, time=0),
    Message('note_on', channel=2, note=52, velocity=121, time=0),
    Message('note_on', channel=2, note=48, velocity=121, time=0),
    Message('note_on', channel=2, note=60, velocity=103, time=0),
    Message('note_on', channel=2, note=60, velocity=0, time=460),
    Message('note_on', channel=2, note=55, velocity=0, time=0),
    Message('note_on', channel=2, note=52, velocity=0, time=0),
    Message('note_on', channel=2, note=48, velocity=0, time=0),
    Message('note_on', channel=2, note=58, velocity=99, time=20),
    Message('note_on', channel=2, note=62, velocity=91, time=0),
    Message('note_on', channel=2, note=53, velocity=70, time=0),
    Message('note_on', channel=2, note=50, velocity=95, time=0),
    Message('note_on', channel=2, note=46, velocity=99, time=0),
    Message('note_on', channel=2, note=50, velocity=0, time=260),
    Message('note_on', channel=2, note=53, velocity=0, time=44),
    Message('note_on', channel=2, note=58, velocity=0, time=30),
    Message('note_on', channel=2, note=62, velocity=0, time=66),
    Message('note_on', channel=2, note=46, velocity=0, time=76),
    Message('note_on', channel=2, note=60, velocity=112, time=14),
    Message('note_on', channel=2, note=64, velocity=103, time=2),
    Message('note_on', channel=2, note=55, velocity=99, time=4),
    Message('note_on', channel=2, note=48, velocity=112, time=0),
    Message('note_on', channel=2, note=55, velocity=0, time=440),
    Message('note_on', channel=2, note=60, velocity=0, time=2),
    Message('note_on', channel=2, note=48, velocity=0, time=18),
    Message('note_on', channel=2, note=64, velocity=0, time=2),
    Message('note_on', channel=2, note=50, velocity=95, time=238),
    Message('note_on', channel=2, note=53, velocity=95, time=4),
    Message('note_on', channel=2, note=62, velocity=95, time=0),
    Message('note_on', channel=2, note=58, velocity=87, time=12),
    Message('note_on', channel=2, note=58, velocity=0, time=228),
    Message('note_on', channel=2, note=62, velocity=0, time=0),
    Message('note_on', channel=2, note=53, velocity=0, time=0),
    Message('note_on', channel=2, note=55, velocity=121, time=0),
    Message('note_on', channel=2, note=52, velocity=121, time=0),
    Message('note_on', channel=2, note=48, velocity=121, time=0),
    Message('note_on', channel=2, note=60, velocity=103, time=0),
    Message('note_on', channel=2, note=50, velocity=0, time=16),
    Message('note_on', channel=2, note=48, velocity=0, time=444),
    Message('note_on', channel=2, note=55, velocity=0, time=0),
    Message('note_on', channel=2, note=52, velocity=0, time=0),
    Message('note_on', channel=2, note=60, velocity=0, time=0),
    Message('note_on', channel=2, note=62, velocity=91, time=20),
    Message('note_on', channel=2, note=58, velocity=99, time=0),
    Message('note_on', channel=2, note=53, velocity=70, time=0),
    Message('note_on', channel=2, note=50, velocity=95, time=0),
    Message('note_on', channel=2, note=46, velocity=99, time=0),
    Message('note_on', channel=2, note=50, velocity=0, time=260),
    Message('note_on', channel=2, note=53, velocity=0, time=44),
    Message('note_on', channel=2, note=58, velocity=0, time=30),
    Message('note_on', channel=2, note=62, velocity=0, time=66),
    Message('note_on', channel=2, note=46, velocity=0, time=76),
    Message('note_on', channel=2, note=60, velocity=112, time=14),
    Message('note_on', channel=2, note=64, velocity=103, time=2),
    Message('note_on', channel=2, note=55, velocity=99, time=4),
    Message('note_on', channel=2, note=48, velocity=112, time=0),
    Message('note_on', channel=2, note=55, velocity=0, time=440),
    Message('note_on', channel=2, note=60, velocity=0, time=2),
    Message('note_on', channel=2, note=48, velocity=0, time=18),
    Message('note_on', channel=2, note=64, velocity=0, time=2),
    Message('note_on', channel=2, note=62, velocity=95, time=2),
    Message('note_on', channel=2, note=58, velocity=87, time=0),
    Message('note_on', channel=2, note=53, velocity=95, time=0),
    Message('note_on', channel=2, note=50, velocity=95, time=0),
    Message('note_on', channel=2, note=50, velocity=0, time=480),
    Message('note_on', channel=2, note=62, velocity=0, time=0),
    Message('note_on', channel=2, note=58, velocity=0, time=0),
    Message('note_on', channel=2, note=53, velocity=0, time=0),
    Message('note_on', channel=2, note=55, velocity=121, time=0),
    Message('note_on', channel=2, note=52, velocity=121, time=0),
    Message('note_on', channel=2, note=48, velocity=121, time=0),
    Message('note_on', channel=2, note=60, velocity=103, time=0),
    Message('note_on', channel=2, note=60, velocity=0, time=460),
    Message('note_on', channel=2, note=55, velocity=0, time=0),
    Message('note_on', channel=2, note=52, velocity=0, time=0),
    Message('note_on', channel=2, note=48, velocity=0, time=0),
    Message('note_on', channel=2, note=58, velocity=99, time=20),
    Message('note_on', channel=2, note=62, velocity=91, time=0),
    Message('note_on', channel=2, note=53, velocity=70, time=0),
    Message('note_on', channel=2, note=50, velocity=95, time=0),
    Message('note_on', channel=2, note=46, velocity=99, time=0),
    Message('note_on', channel=2, note=50, velocity=0, time=260),
    Message('note_on', channel=2, note=53, velocity=0, time=44),
    Message('note_on', channel=2, note=58, velocity=0, time=30),
    Message('note_on', channel=2, note=62, velocity=0, time=66),
    Message('note_on', channel=2, note=46, velocity=0, time=76),
    Message('note_on', channel=2, note=60, velocity=112, time=14),
    Message('note_on', channel=2, note=64, velocity=103, time=2),
    Message('note_on', channel=2, note=55, velocity=99, time=4),
    Message('note_on', channel=2, note=48, velocity=112, time=0),
    Message('note_on', channel=2, note=55, velocity=0, time=440),
    Message('note_on', channel=2, note=60, velocity=0, time=2),
    Message('note_on', channel=2, note=48, velocity=0, time=18),
    Message('note_on', channel=2, note=64, velocity=0, time=2),
    Message('note_on', channel=2, note=53, velocity=97, time=2),
    Message('note_on', channel=2, note=65, velocity=120, time=0),
    Message('note_on', channel=2, note=65, velocity=0, time=240),
    Message('note_on', channel=2, note=53, velocity=0, time=0),
    Message('note_on', channel=2, note=60, velocity=93, time=0),
    Message('note_on', channel=2, note=57, velocity=93, time=0),
    Message('note_on', channel=2, note=53, velocity=93, time=0),
    Message('note_on', channel=2, note=65, velocity=119, time=0),
    Message('note_on', channel=2, note=65, velocity=0, time=160),
    Message('note_on', channel=2, note=62, velocity=96, time=0),
    Message('note_on', channel=2, note=62, velocity=0, time=80),
    Message('note_on', channel=2, note=65, velocity=107, time=0),
    Message('note_on', channel=2, note=65, velocity=0, time=140),
    Message('note_on', channel=2, note=69, velocity=116, time=20),
    Message('note_on', channel=2, note=69, velocity=0, time=320),
    Message('note_on', channel=2, note=53, velocity=0, time=0),
    Message('note_on', channel=2, note=57, velocity=0, time=0),
    Message('note_on', channel=2, note=60, velocity=0, time=0),
    Message('note_on', channel=2, note=51, velocity=93, time=0),
    Message('note_on', channel=2, note=65, velocity=115, time=0),
    Message('note_on', channel=2, note=65, velocity=0, time=240),
    Message('note_on', channel=2, note=51, velocity=0, time=0),
    Message('note_on', channel=2, note=58, velocity=93, time=0),
    Message('note_on', channel=2, note=55, velocity=93, time=0),
    Message('note_on', channel=2, note=65, velocity=113, time=0),
    Message('note_on', channel=2, note=51, velocity=93, time=0),
    Message('note_on', channel=2, note=65, velocity=0, time=160),
    Message('note_on', channel=2, note=62, velocity=97, time=0),
    Message('note_on', channel=2, note=62, velocity=0, time=80),
    Message('note_on', channel=2, note=65, velocity=105, time=0),
    Message('note_on', channel=2, note=65, velocity=0, time=140),
    Message('note_on', channel=2, note=69, velocity=120, time=20),
    Message('note_on', channel=2, note=69, velocity=0, time=320),
    Message('note_on', channel=2, note=51, velocity=0, time=0),
    Message('note_on', channel=2, note=55, velocity=0, time=0),
    Message('note_on', channel=2, note=58, velocity=0, time=0),
    Message('note_on', channel=2, note=58, velocity=93, time=0),
    Message('note_on', channel=2, note=65, velocity=120, time=0),
    Message('note_on', channel=2, note=65, velocity=0, time=240),
    Message('note_on', channel=2, note=58, velocity=0, time=0),
    Message('note_on', channel=2, note=50, velocity=93, time=0),
    Message('note_on', channel=2, note=58, velocity=93, time=0),
    Message('note_on', channel=2, note=65, velocity=119, time=0),
    Message('note_on', channel=2, note=53, velocity=93, time=0),
    Message('note_on', channel=2, note=65, velocity=0, time=160),
    Message('note_on', channel=2, note=62, velocity=100, time=0),
    Message('note_on', channel=2, note=62, velocity=0, time=80),
    Message('note_on', channel=2, note=65, velocity=111, time=0),
    Message('note_on', channel=2, note=65, velocity=0, time=140),
    Message('note_on', channel=2, note=69, velocity=122, time=20),
    Message('note_on', channel=2, note=69, velocity=0, time=320),
    Message('note_on', channel=2, note=53, velocity=0, time=0),
    Message('note_on', channel=2, note=58, velocity=0, time=0),
    Message('note_on', channel=2, note=50, velocity=0, time=0),
    Message('note_on', channel=2, note=53, velocity=119, time=0),
    Message('note_on', channel=2, note=60, velocity=119, time=0),
    Message('note_on', channel=2, note=65, velocity=119, time=0),
    Message('note_on', channel=2, note=57, velocity=119, time=0),
    Message('note_on', channel=2, note=69, velocity=119, time=0),
    Message('note_on', channel=2, note=69, velocity=0, time=480),
    Message('note_on', channel=2, note=65, velocity=0, time=0),
    Message('note_on', channel=2, note=53, velocity=0, time=0),
    Message('note_on', channel=2, note=60, velocity=0, time=0),
    Message('note_on', channel=2, note=57, velocity=0, time=0),
    Message('note_on', channel=2, note=64, velocity=117, time=0),
    Message('note_on', channel=2, note=60, velocity=117, time=0),
    Message('note_on', channel=2, note=55, velocity=117, time=0),
    Message('note_on', channel=2, note=67, velocity=117, time=0),
    Message('note_on', channel=2, note=67, velocity=0, time=480),
    Message('note_on', channel=2, note=64, velocity=0, time=0),
    Message('note_on', channel=2, note=60, velocity=0, time=0),
    Message('note_on', channel=2, note=55, velocity=0, time=0),
    Message('note_on', channel=2, note=53, velocity=97, time=0),
    Message('note_on', channel=2, note=65, velocity=120, time=0),
    Message('note_on', channel=2, note=65, velocity=0, time=240),
    Message('note_on', channel=2, note=53, velocity=0, time=0),
    Message('note_on', channel=2, note=60, velocity=93, time=0),
    Message('note_on', channel=2, note=57, velocity=93, time=0),
    Message('note_on', channel=2, note=53, velocity=93, time=0),
    Message('note_on', channel=2, note=65, velocity=119, time=0),
    Message('note_on', channel=2, note=65, velocity=0, time=160),
    Message('note_on', channel=2, note=62, velocity=96, time=0),
    Message('note_on', channel=2, note=62, velocity=0, time=80),
    Message('note_on', channel=2, note=65, velocity=107, time=0),
    Message('note_on', channel=2, note=65, velocity=0, time=140),
    Message('note_on', channel=2, note=69, velocity=116, time=20),
    Message('note_on', channel=2, note=69, velocity=0, time=320),
    Message('note_on', channel=2, note=53, velocity=0, time=0),
    Message('note_on', channel=2, note=57, velocity=0, time=0),
    Message('note_on', channel=2, note=60, velocity=0, time=0),
    Message('note_on', channel=2, note=51, velocity=93, time=0),
    Message('note_on', channel=2, note=65, velocity=115, time=0),
    Message('note_on', channel=2, note=65, velocity=0, time=240),
    Message('note_on', channel=2, note=51, velocity=0, time=0),
    Message('note_on', channel=2, note=58, velocity=93, time=0),
    Message('note_on', channel=2, note=55, velocity=93, time=0),
    Message('note_on', channel=2, note=65, velocity=113, time=0),
    Message('note_on', channel=2, note=51, velocity=93, time=0),
    Message('note_on', channel=2, note=65, velocity=0, time=160),
    Message('note_on', channel=2, note=62, velocity=97, time=0),
    Message('note_on', channel=2, note=62, velocity=0, time=80),
    Message('note_on', channel=2, note=65, velocity=105, time=0),
    Message('note_on', channel=2, note=65, velocity=0, time=140),
    Message('note_on', channel=2, note=69, velocity=120, time=20),
    Message('note_on', channel=2, note=69, velocity=0, time=320),
    Message('note_on', channel=2, note=51, velocity=0, time=0),
    Message('note_on', channel=2, note=55, velocity=0, time=0),
    Message('note_on', channel=2, note=58, velocity=0, time=0),
    Message('note_on', channel=2, note=58, velocity=93, time=0),
    Message('note_on', channel=2, note=65, velocity=120, time=0),
    Message('note_on', channel=2, note=65, velocity=0, time=240),
    Message('note_on', channel=2, note=58, velocity=0, time=0),
    Message('note_on', channel=2, note=50, velocity=93, time=0),
    Message('note_on', channel=2, note=58, velocity=93, time=0),
    Message('note_on', channel=2, note=65, velocity=119, time=0),
    Message('note_on', channel=2, note=53, velocity=93, time=0),
    Message('note_on', channel=2, note=65, velocity=0, time=160),
    Message('note_on', channel=2, note=62, velocity=100, time=0),
    Message('note_on', channel=2, note=62, velocity=0, time=80),
    Message('note_on', channel=2, note=65, velocity=111, time=0),
    Message('note_on', channel=2, note=65, velocity=0, time=140),
    Message('note_on', channel=2, note=69, velocity=122, time=20),
    Message('note_on', channel=2, note=69, velocity=0, time=320),
    Message('note_on', channel=2, note=53, velocity=0, time=0),
    Message('note_on', channel=2, note=58, velocity=0, time=0),
    Message('note_on', channel=2, note=50, velocity=0, time=0),
    Message('note_on', channel=2, note=57, velocity=119, time=0),
    Message('note_on', channel=2, note=69, velocity=119, time=0),
    Message('note_on', channel=2, note=69, velocity=0, time=240),
    Message('note_on', channel=2, note=57, velocity=0, time=0),
    Message('note_on', channel=2, note=55, velocity=117, time=0),
    Message('note_on', channel=2, note=67, velocity=117, time=0),
    Message('note_on', channel=2, note=67, velocity=0, time=160),
    Message('note_on', channel=2, note=55, velocity=0, time=0),
    Message('note_on', channel=2, note=65, velocity=100, time=0),
    Message('note_on', channel=2, note=53, velocity=100, time=0),
    Message('note_on', channel=2, note=53, velocity=0, time=80),
    Message('note_on', channel=2, note=65, velocity=0, time=0),
    Message('note_on', channel=2, note=55, velocity=117, time=0),
    Message('note_on', channel=2, note=67, velocity=117, time=0),
    Message('note_on', channel=2, note=67, velocity=0, time=160),
    Message('note_on', channel=2, note=55, velocity=0, time=0),
    Message('note_on', channel=2, note=65, velocity=99, time=0),
    Message('note_on', channel=2, note=53, velocity=99, time=0),
    Message('note_on', channel=2, note=53, velocity=0, time=80),
    Message('note_on', channel=2, note=65, velocity=0, time=0),
    Message('note_on', channel=2, note=50, velocity=117, time=0),
    Message('note_on', channel=2, note=62, velocity=117, time=0),
    Message('note_on', channel=2, note=62, velocity=0, time=160),
    Message('note_on', channel=2, note=50, velocity=0, time=0),
    Message('note_on', channel=2, note=60, velocity=117, time=0),
    Message('note_on', channel=2, note=65, velocity=117, time=0),
    Message('note_on', channel=2, note=53, velocity=117, time=0),
    Message('note_on', channel=2, note=53, velocity=0, time=2880),
    Message('note_on', channel=2, note=60, velocity=0, time=0),
    Message('note_on', channel=2, note=65, velocity=0, time=20),
    MetaMessage('end_of_track', time=0)]),
  MidiTrack([
    MetaMessage('midi_port', port=0, time=0),
    MetaMessage('channel_prefix', channel=3, time=0),
    Message('program_change', channel=3, program=30, time=0),
    Message('control_change', channel=3, control=7, value=114, time=0),
    Message('note_on', channel=3, note=53, velocity=94, time=960),
    Message('pitchwheel', channel=3, pitch=-127, time=132),
    Message('pitchwheel', channel=3, pitch=-127, time=14),
    Message('pitchwheel', channel=3, pitch=-127, time=120),
    Message('pitchwheel', channel=3, pitch=1, time=46),
    Message('pitchwheel', channel=3, pitch=-127, time=34),
    Message('pitchwheel', channel=3, pitch=-255, time=46),
    Message('pitchwheel', channel=3, pitch=-383, time=14),
    Message('pitchwheel', channel=3, pitch=-639, time=6),
    Message('pitchwheel', channel=3, pitch=-1023, time=8),
    Message('pitchwheel', channel=3, pitch=-1919, time=6),
    Message('pitchwheel', channel=3, pitch=-2431, time=6),
    Message('pitchwheel', channel=3, pitch=-3071, time=8),
    Message('pitchwheel', channel=3, pitch=-3711, time=6),
    Message('pitchwheel', channel=3, pitch=-4479, time=6),
    Message('pitchwheel', channel=3, pitch=-7935, time=8),
    Message('pitchwheel', channel=3, pitch=-8191, time=6),
    Message('note_off', channel=3, note=53, velocity=0, time=34),
    Message('pitchwheel', channel=3, pitch=-127, time=6),
    Message('note_on', channel=3, note=53, velocity=93, time=464),
    Message('pitchwheel', channel=3, pitch=-383, time=336),
    Message('pitchwheel', channel=3, pitch=-511, time=46),
    Message('pitchwheel', channel=3, pitch=-639, time=8),
    Message('pitchwheel', channel=3, pitch=-895, time=12),
    Message('pitchwheel', channel=3, pitch=-1279, time=8),
    Message('pitchwheel', channel=3, pitch=-1663, time=6),
    Message('pitchwheel', channel=3, pitch=-1919, time=6),
    Message('pitchwheel', channel=3, pitch=-2303, time=8),
    Message('pitchwheel', channel=3, pitch=-2687, time=6),
    Message('pitchwheel', channel=3, pitch=-2943, time=6),
    Message('pitchwheel', channel=3, pitch=-3455, time=8),
    Message('pitchwheel', channel=3, pitch=-8191, time=6),
    Message('pitchwheel', channel=3, pitch=-7807, time=14),
    Message('pitchwheel', channel=3, pitch=-7935, time=6),
    Message('note_off', channel=3, note=53, velocity=0, time=4),
    Message('pitchwheel', channel=3, pitch=-127, time=16),
    Message('note_on', channel=3, note=53, velocity=90, time=454),
    Message('pitchwheel', channel=3, pitch=-383, time=340),
    Message('pitchwheel', channel=3, pitch=-511, time=46),
    Message('pitchwheel', channel=3, pitch=-639, time=8),
    Message('pitchwheel', channel=3, pitch=-895, time=12),
    Message('pitchwheel', channel=3, pitch=-1279, time=8),
    Message('pitchwheel', channel=3, pitch=-1663, time=6),
    Message('pitchwheel', channel=3, pitch=-1919, time=6),
    Message('pitchwheel', channel=3, pitch=-2687, time=14),
    Message('pitchwheel', channel=3, pitch=-2943, time=6),
    Message('pitchwheel', channel=3, pitch=-3455, time=8),
    Message('pitchwheel', channel=3, pitch=-8191, time=6),
    Message('pitchwheel', channel=3, pitch=-7807, time=14),
    Message('note_off', channel=3, note=53, velocity=0, time=6),
    Message('pitchwheel', channel=3, pitch=-7935, time=0),
    Message('pitchwheel', channel=3, pitch=-127, time=20),
    Message('note_on', channel=3, note=57, velocity=93, time=470),
    Message('note_on', channel=3, note=55, velocity=89, time=470),
    Message('note_on', channel=3, note=57, velocity=0, time=10),
    Message('note_on', channel=3, note=55, velocity=0, time=470),
    Message('note_on', channel=3, note=53, velocity=96, time=10),
    Message('pitchwheel', channel=3, pitch=-383, time=310),
    Message('pitchwheel', channel=3, pitch=-511, time=46),
    Message('pitchwheel', channel=3, pitch=-639, time=8),
    Message('pitchwheel', channel=3, pitch=-895, time=12),
    Message('pitchwheel', channel=3, pitch=-1279, time=8),
    Message('pitchwheel', channel=3, pitch=-1663, time=6),
    Message('pitchwheel', channel=3, pitch=-1919, time=6),
    Message('pitchwheel', channel=3, pitch=-2687, time=14),
    Message('pitchwheel', channel=3, pitch=-2943, time=6),
    Message('pitchwheel', channel=3, pitch=-3455, time=8),
    Message('pitchwheel', channel=3, pitch=-8191, time=6),
    Message('pitchwheel', channel=3, pitch=-7807, time=14),
    Message('pitchwheel', channel=3, pitch=-7935, time=6),
    Message('note_off', channel=3, note=53, velocity=0, time=10),
    Message('pitchwheel', channel=3, pitch=-127, time=10),
    Message('note_on', channel=3, note=53, velocity=92, time=480),
    Message('pitchwheel', channel=3, pitch=-383, time=340),
    Message('pitchwheel', channel=3, pitch=-511, time=46),
    Message('pitchwheel', channel=3, pitch=-639, time=8),
    Message('pitchwheel', channel=3, pitch=-895, time=12),
    Message('pitchwheel', channel=3, pitch=-1279, time=8),
    Message('pitchwheel', channel=3, pitch=-1663, time=6),
    Message('pitchwheel', channel=3, pitch=-1919, time=6),
    Message('pitchwheel', channel=3, pitch=-2687, time=14),
    Message('pitchwheel', channel=3, pitch=-2943, time=6),
    Message('pitchwheel', channel=3, pitch=-3455, time=8),
    Message('note_off', channel=3, note=53, velocity=0, time=6),
    Message('pitchwheel', channel=3, pitch=-8191, time=0),
    Message('pitchwheel', channel=3, pitch=-7807, time=14),
    Message('pitchwheel', channel=3, pitch=-7935, time=6),
    Message('pitchwheel', channel=3, pitch=-127, time=20),
    Message('note_on', channel=3, note=53, velocity=92, time=460),
    Message('pitchwheel', channel=3, pitch=-383, time=340),
    Message('pitchwheel', channel=3, pitch=-511, time=46),
    Message('pitchwheel', channel=3, pitch=-639, time=8),
    Message('pitchwheel', channel=3, pitch=-895, time=12),
    Message('pitchwheel', channel=3, pitch=-1279, time=8),
    Message('pitchwheel', channel=3, pitch=-1663, time=6),
    Message('pitchwheel', channel=3, pitch=-1919, time=6),
    Message('pitchwheel', channel=3, pitch=-2687, time=14),
    Message('pitchwheel', channel=3, pitch=-2943, time=6),
    Message('pitchwheel', channel=3, pitch=-3455, time=8),
    Message('pitchwheel', channel=3, pitch=-8191, time=6),
    Message('pitchwheel', channel=3, pitch=-7807, time=14),
    Message('note_off', channel=3, note=53, velocity=0, time=6),
    Message('pitchwheel', channel=3, pitch=-7935, time=0),
    Message('pitchwheel', channel=3, pitch=-127, time=20),
    Message('note_on', channel=3, note=57, velocity=104, time=460),
    Message('note_on', channel=3, note=57, velocity=0, time=240),
    Message('note_on', channel=3, note=55, velocity=87, time=6),
    Message('note_on', channel=3, note=53, velocity=96, time=154),
    Message('note_on', channel=3, note=55, velocity=0, time=8),
    Message('note_on', channel=3, note=53, velocity=0, time=70),
    Message('note_on', channel=3, note=55, velocity=67, time=2),
    Message('note_on', channel=3, note=53, velocity=96, time=160),
    Message('note_on', channel=3, note=55, velocity=0, time=6),
    Message('note_on', channel=3, note=53, velocity=0, time=74),
    Message('note_on', channel=3, note=50, velocity=83, time=0),
    Message('note_on', channel=3, note=53, velocity=107, time=154),
    Message('note_on', channel=3, note=50, velocity=0, time=16),
    Message('note_on', channel=3, note=53, velocity=0, time=142),
    Message('note_on', channel=3, note=46, velocity=74, time=15288),
    Message('note_on', channel=3, note=46, velocity=0, time=960),
    Message('note_on', channel=3, note=48, velocity=70, time=0),
    Message('note_on', channel=3, note=48, velocity=0, time=960),
    Message('note_on', channel=3, note=50, velocity=69, time=0),
    Message('note_on', channel=3, note=50, velocity=0, time=960),
    Message('note_on', channel=3, note=52, velocity=69, time=0),
    Message('note_on', channel=3, note=52, velocity=0, time=960),
    Message('note_on', channel=3, note=41, velocity=75, time=0),
    Message('note_on', channel=3, note=41, velocity=0, time=960),
    Message('note_on', channel=3, note=48, velocity=80, time=0),
    Message('note_on', channel=3, note=48, velocity=0, time=960),
    Message('note_on', channel=3, note=46, velocity=78, time=0),
    Message('note_on', channel=3, note=46, velocity=0, time=960),
    Message('note_on', channel=3, note=48, velocity=80, time=10),
    Message('note_on', channel=3, note=41, velocity=77, time=958),
    Message('note_on', channel=3, note=48, velocity=0, time=16),
    Message('note_on', channel=3, note=48, velocity=80, time=940),
    Message('note_on', channel=3, note=41, velocity=0, time=40),
    Message('note_on', channel=3, note=50, velocity=69, time=914),
    Message('note_on', channel=3, note=48, velocity=0, time=30),
    Message('note_on', channel=3, note=48, velocity=71, time=446),
    Message('note_on', channel=3, note=50, velocity=0, time=36),
    Message('note_on', channel=3, note=46, velocity=68, time=442),
    Message('note_on', channel=3, note=48, velocity=0, time=42),
    Message('note_on', channel=3, note=46, velocity=0, time=412),
    Message('note_on', channel=3, note=48, velocity=75, time=34),
    Message('note_on', channel=3, note=50, velocity=79, time=160),
    Message('note_on', channel=3, note=48, velocity=0, time=32),
    Message('note_on', channel=3, note=50, velocity=0, time=48),
    Message('note_on', channel=3, note=53, velocity=90, time=0),
    Message('note_on', channel=3, note=48, velocity=74, time=1196),
    Message('note_on', channel=3, note=53, velocity=0, time=12),
    Message('note_on', channel=3, note=43, velocity=77, time=952),
    Message('note_on', channel=3, note=48, velocity=0, time=20),
    Message('note_on', channel=3, note=45, velocity=77, time=456),
    Message('note_on', channel=3, note=43, velocity=0, time=40),
    Message('note_on', channel=3, note=46, velocity=75, time=444),
    Message('note_on', channel=3, note=45, velocity=0, time=54),
    Message('note_on', channel=3, note=48, velocity=74, time=436),
    Message('note_on', channel=3, note=46, velocity=0, time=6),
    Message('note_on', channel=3, note=50, velocity=76, time=450),
    Message('note_on', channel=3, note=48, velocity=0, time=28),
    Message('note_on', channel=3, note=48, velocity=83, time=460),
    Message('note_on', channel=3, note=50, velocity=0, time=22),
    Message('note_on', channel=3, note=46, velocity=79, time=458),
    Message('note_on', channel=3, note=48, velocity=0, time=14),
    Message('note_on', channel=3, note=48, velocity=87, time=480),
    Message('note_on', channel=3, note=46, velocity=0, time=22),
    Message('note_on', channel=3, note=48, velocity=0, time=424),
    Message('note_on', channel=3, note=53, velocity=79, time=36),
    Message('pitchwheel', channel=3, pitch=-383, time=310),
    Message('pitchwheel', channel=3, pitch=-511, time=46),
    Message('pitchwheel', channel=3, pitch=-639, time=8),
    Message('pitchwheel', channel=3, pitch=-895, time=12),
    Message('pitchwheel', channel=3, pitch=-1279, time=8),
    Message('pitchwheel', channel=3, pitch=-1663, time=6),
    Message('pitchwheel', channel=3, pitch=-1919, time=6),
    Message('pitchwheel', channel=3, pitch=-2687, time=14),
    Message('pitchwheel', channel=3, pitch=-2943, time=6),
    Message('pitchwheel', channel=3, pitch=-3455, time=8),
    Message('pitchwheel', channel=3, pitch=-8191, time=6),
    Message('pitchwheel', channel=3, pitch=-7807, time=14),
    Message('pitchwheel', channel=3, pitch=-7935, time=6),
    Message('note_off', channel=3, note=53, velocity=0, time=10),
    Message('pitchwheel', channel=3, pitch=-127, time=10),
    Message('note_on', channel=3, note=53, velocity=75, time=480),
    Message('pitchwheel', channel=3, pitch=-383, time=340),
    Message('pitchwheel', channel=3, pitch=-511, time=46),
    Message('pitchwheel', channel=3, pitch=-639, time=8),
    Message('pitchwheel', channel=3, pitch=-895, time=12),
    Message('pitchwheel', channel=3, pitch=-1279, time=8),
    Message('pitchwheel', channel=3, pitch=-1663, time=6),
    Message('pitchwheel', channel=3, pitch=-1919, time=6),
    Message('pitchwheel', channel=3, pitch=-2687, time=14),
    Message('pitchwheel', channel=3, pitch=-2943, time=6),
    Message('pitchwheel', channel=3, pitch=-3455, time=8),
    Message('note_off', channel=3, note=53, velocity=0, time=6),
    Message('pitchwheel', channel=3, pitch=-8191, time=0),
    Message('pitchwheel', channel=3, pitch=-7807, time=14),
    Message('pitchwheel', channel=3, pitch=-7935, time=6),
    Message('pitchwheel', channel=3, pitch=-127, time=20),
    Message('note_on', channel=3, note=53, velocity=75, time=460),
    Message('pitchwheel', channel=3, pitch=-383, time=340),
    Message('pitchwheel', channel=3, pitch=-511, time=46),
    Message('pitchwheel', channel=3, pitch=-639, time=8),
    Message('pitchwheel', channel=3, pitch=-895, time=12),
    Message('pitchwheel', channel=3, pitch=-1279, time=8),
    Message('pitchwheel', channel=3, pitch=-1663, time=6),
    Message('pitchwheel', channel=3, pitch=-1919, time=6),
    Message('pitchwheel', channel=3, pitch=-2687, time=14),
    Message('pitchwheel', channel=3, pitch=-2943, time=6),
    Message('pitchwheel', channel=3, pitch=-3455, time=8),
    Message('pitchwheel', channel=3, pitch=-8191, time=6),
    Message('pitchwheel', channel=3, pitch=-7807, time=14),
    Message('note_off', channel=3, note=53, velocity=0, time=6),
    Message('pitchwheel', channel=3, pitch=-7935, time=0),
    Message('pitchwheel', channel=3, pitch=-127, time=20),
    Message('note_on', channel=3, note=57, velocity=91, time=460),
    Message('note_on', channel=3, note=57, velocity=0, time=240),
    Message('note_on', channel=3, note=55, velocity=80, time=6),
    Message('note_on', channel=3, note=53, velocity=85, time=154),
    Message('note_on', channel=3, note=55, velocity=0, time=8),
    Message('note_on', channel=3, note=53, velocity=0, time=70),
    Message('note_on', channel=3, note=55, velocity=79, time=2),
    Message('note_on', channel=3, note=53, velocity=81, time=160),
    Message('note_on', channel=3, note=55, velocity=0, time=6),
    Message('note_on', channel=3, note=53, velocity=0, time=74),
    Message('note_on', channel=3, note=50, velocity=83, time=0),
    Message('note_on', channel=3, note=53, velocity=107, time=154),
    Message('note_on', channel=3, note=50, velocity=0, time=16),
    Message('note_on', channel=3, note=53, velocity=0, time=142),
    Message('note_on', channel=3, note=46, velocity=88, time=15288),
    Message('note_on', channel=3, note=46, velocity=0, time=960),
    Message('note_on', channel=3, note=48, velocity=89, time=0),
    Message('note_on', channel=3, note=48, velocity=0, time=960),
    Message('note_on', channel=3, note=50, velocity=82, time=0),
    Message('note_on', channel=3, note=50, velocity=0, time=960),
    Message('note_on', channel=3, note=52, velocity=91, time=0),
    Message('note_on', channel=3, note=52, velocity=0, time=960),
    Message('note_on', channel=3, note=41, velocity=86, time=0),
    Message('note_on', channel=3, note=41, velocity=0, time=960),
    Message('note_on', channel=3, note=48, velocity=84, time=0),
    Message('note_on', channel=3, note=48, velocity=0, time=960),
    Message('note_on', channel=3, note=46, velocity=80, time=0),
    Message('note_on', channel=3, note=46, velocity=0, time=960),
    Message('note_on', channel=3, note=48, velocity=83, time=10),
    Message('note_on', channel=3, note=41, velocity=80, time=958),
    Message('note_on', channel=3, note=48, velocity=0, time=16),
    Message('note_on', channel=3, note=48, velocity=75, time=940),
    Message('note_on', channel=3, note=41, velocity=0, time=40),
    Message('note_on', channel=3, note=50, velocity=75, time=914),
    Message('note_on', channel=3, note=48, velocity=0, time=30),
    Message('note_on', channel=3, note=48, velocity=79, time=446),
    Message('note_on', channel=3, note=50, velocity=0, time=36),
    Message('note_on', channel=3, note=46, velocity=75, time=442),
    Message('note_on', channel=3, note=48, velocity=0, time=42),
    Message('note_on', channel=3, note=46, velocity=0, time=412),
    Message('note_on', channel=3, note=48, velocity=82, time=34),
    Message('note_on', channel=3, note=50, velocity=85, time=160),
    Message('note_on', channel=3, note=48, velocity=0, time=32),
    Message('note_on', channel=3, note=50, velocity=0, time=48),
    Message('note_on', channel=3, note=53, velocity=93, time=0),
    Message('note_on', channel=3, note=48, velocity=70, time=1196),
    Message('note_on', channel=3, note=53, velocity=0, time=12),
    Message('note_on', channel=3, note=43, velocity=75, time=952),
    Message('note_on', channel=3, note=48, velocity=0, time=20),
    Message('note_on', channel=3, note=45, velocity=74, time=456),
    Message('note_on', channel=3, note=43, velocity=0, time=40),
    Message('note_on', channel=3, note=46, velocity=73, time=444),
    Message('note_on', channel=3, note=45, velocity=0, time=54),
    Message('note_on', channel=3, note=48, velocity=80, time=436),
    Message('note_on', channel=3, note=46, velocity=0, time=6),
    Message('note_on', channel=3, note=50, velocity=77, time=450),
    Message('note_on', channel=3, note=48, velocity=0, time=28),
    Message('note_on', channel=3, note=48, velocity=83, time=460),
    Message('note_on', channel=3, note=50, velocity=0, time=22),
    Message('note_on', channel=3, note=46, velocity=79, time=458),
    Message('note_on', channel=3, note=48, velocity=0, time=14),
    Message('note_on', channel=3, note=48, velocity=87, time=480),
    Message('note_on', channel=3, note=46, velocity=0, time=22),
    Message('note_on', channel=3, note=48, velocity=0, time=424),
    Message('note_on', channel=3, note=53, velocity=79, time=36),
    Message('pitchwheel', channel=3, pitch=-383, time=310),
    Message('pitchwheel', channel=3, pitch=-511, time=46),
    Message('pitchwheel', channel=3, pitch=-639, time=8),
    Message('pitchwheel', channel=3, pitch=-895, time=12),
    Message('pitchwheel', channel=3, pitch=-1279, time=8),
    Message('pitchwheel', channel=3, pitch=-1663, time=6),
    Message('pitchwheel', channel=3, pitch=-1919, time=6),
    Message('pitchwheel', channel=3, pitch=-2687, time=14),
    Message('pitchwheel', channel=3, pitch=-2943, time=6),
    Message('pitchwheel', channel=3, pitch=-3455, time=8),
    Message('pitchwheel', channel=3, pitch=-8191, time=6),
    Message('pitchwheel', channel=3, pitch=-7807, time=14),
    Message('pitchwheel', channel=3, pitch=-7935, time=6),
    Message('note_off', channel=3, note=53, velocity=0, time=10),
    Message('pitchwheel', channel=3, pitch=-127, time=10),
    Message('note_on', channel=3, note=51, velocity=75, time=480),
    Message('pitchwheel', channel=3, pitch=-383, time=340),
    Message('pitchwheel', channel=3, pitch=-511, time=46),
    Message('pitchwheel', channel=3, pitch=-639, time=8),
    Message('pitchwheel', channel=3, pitch=-895, time=12),
    Message('pitchwheel', channel=3, pitch=-1279, time=8),
    Message('pitchwheel', channel=3, pitch=-1663, time=6),
    Message('pitchwheel', channel=3, pitch=-1919, time=6),
    Message('pitchwheel', channel=3, pitch=-2687, time=14),
    Message('pitchwheel', channel=3, pitch=-2943, time=6),
    Message('pitchwheel', channel=3, pitch=-3455, time=8),
    Message('note_off', channel=3, note=51, velocity=0, time=6),
    Message('pitchwheel', channel=3, pitch=-8191, time=0),
    Message('pitchwheel', channel=3, pitch=-7807, time=14),
    Message('pitchwheel', channel=3, pitch=-7935, time=6),
    Message('pitchwheel', channel=3, pitch=-127, time=20),
    Message('note_on', channel=3, note=46, velocity=75, time=460),
    Message('pitchwheel', channel=3, pitch=-383, time=340),
    Message('pitchwheel', channel=3, pitch=-511, time=46),
    Message('pitchwheel', channel=3, pitch=-639, time=8),
    Message('pitchwheel', channel=3, pitch=-895, time=12),
    Message('pitchwheel', channel=3, pitch=-1279, time=8),
    Message('pitchwheel', channel=3, pitch=-1663, time=6),
    Message('pitchwheel', channel=3, pitch=-1919, time=6),
    Message('pitchwheel', channel=3, pitch=-2687, time=14),
    Message('pitchwheel', channel=3, pitch=-2943, time=6),
    Message('pitchwheel', channel=3, pitch=-3455, time=8),
    Message('pitchwheel', channel=3, pitch=-8191, time=6),
    Message('pitchwheel', channel=3, pitch=-7807, time=14),
    Message('note_off', channel=3, note=46, velocity=0, time=6),
    Message('pitchwheel', channel=3, pitch=-7935, time=0),
    Message('pitchwheel', channel=3, pitch=-127, time=20),
    Message('note_on', channel=3, note=57, velocity=63, time=460),
    Message('note_on', channel=3, note=57, velocity=0, time=480),
    Message('note_on', channel=3, note=55, velocity=65, time=0),
    Message('note_on', channel=3, note=55, velocity=0, time=480),
    Message('note_on', channel=3, note=53, velocity=79, time=10),
    Message('pitchwheel', channel=3, pitch=-383, time=310),
    Message('pitchwheel', channel=3, pitch=-511, time=46),
    Message('pitchwheel', channel=3, pitch=-639, time=8),
    Message('pitchwheel', channel=3, pitch=-895, time=12),
    Message('pitchwheel', channel=3, pitch=-1279, time=8),
    Message('pitchwheel', channel=3, pitch=-1663, time=6),
    Message('pitchwheel', channel=3, pitch=-1919, time=6),
    Message('pitchwheel', channel=3, pitch=-2687, time=14),
    Message('pitchwheel', channel=3, pitch=-2943, time=6),
    Message('pitchwheel', channel=3, pitch=-3455, time=8),
    Message('pitchwheel', channel=3, pitch=-8191, time=6),
    Message('pitchwheel', channel=3, pitch=-7807, time=14),
    Message('pitchwheel', channel=3, pitch=-7935, time=6),
    Message('note_off', channel=3, note=53, velocity=0, time=10),
    Message('pitchwheel', channel=3, pitch=-127, time=10),
    Message('note_on', channel=3, note=51, velocity=75, time=480),
    Message('pitchwheel', channel=3, pitch=-383, time=340),
    Message('pitchwheel', channel=3, pitch=-511, time=46),
    Message('pitchwheel', channel=3, pitch=-639, time=8),
    Message('pitchwheel', channel=3, pitch=-895, time=12),
    Message('pitchwheel', channel=3, pitch=-1279, time=8),
    Message('pitchwheel', channel=3, pitch=-1663, time=6),
    Message('pitchwheel', channel=3, pitch=-1919, time=6),
    Message('pitchwheel', channel=3, pitch=-2687, time=14),
    Message('pitchwheel', channel=3, pitch=-2943, time=6),
    Message('pitchwheel', channel=3, pitch=-3455, time=8),
    Message('note_off', channel=3, note=51, velocity=0, time=6),
    Message('pitchwheel', channel=3, pitch=-8191, time=0),
    Message('pitchwheel', channel=3, pitch=-7807, time=14),
    Message('pitchwheel', channel=3, pitch=-7935, time=6),
    Message('pitchwheel', channel=3, pitch=-127, time=20),
    Message('note_on', channel=3, note=46, velocity=75, time=460),
    Message('pitchwheel', channel=3, pitch=-383, time=340),
    Message('pitchwheel', channel=3, pitch=-511, time=46),
    Message('pitchwheel', channel=3, pitch=-639, time=8),
    Message('pitchwheel', channel=3, pitch=-895, time=12),
    Message('pitchwheel', channel=3, pitch=-1279, time=8),
    Message('pitchwheel', channel=3, pitch=-1663, time=6),
    Message('pitchwheel', channel=3, pitch=-1919, time=6),
    Message('pitchwheel', channel=3, pitch=-2687, time=14),
    Message('pitchwheel', channel=3, pitch=-2943, time=6),
    Message('pitchwheel', channel=3, pitch=-3455, time=8),
    Message('pitchwheel', channel=3, pitch=-8191, time=6),
    Message('pitchwheel', channel=3, pitch=-7807, time=14),
    Message('note_off', channel=3, note=46, velocity=0, time=6),
    Message('pitchwheel', channel=3, pitch=-7935, time=0),
    Message('pitchwheel', channel=3, pitch=-127, time=20),
    Message('note_on', channel=3, note=57, velocity=63, time=460),
    Message('note_on', channel=3, note=57, velocity=0, time=480),
    Message('note_on', channel=3, note=55, velocity=65, time=0),
    Message('note_on', channel=3, note=55, velocity=0, time=480),
    Message('note_on', channel=3, note=43, velocity=75, time=0),
    Message('note_on', channel=3, note=43, velocity=0, time=1920),
    Message('note_on', channel=3, note=45, velocity=75, time=0),
    Message('note_on', channel=3, note=45, velocity=0, time=1920),
    Message('note_on', channel=3, note=46, velocity=75, time=0),
    Message('note_on', channel=3, note=46, velocity=0, time=1920),
    Message('note_on', channel=3, note=48, velocity=75, time=0),
    Message('note_on', channel=3, note=48, velocity=0, time=1920),
    Message('note_on', channel=3, note=41, velocity=93, time=0),
    Message('note_on', channel=3, note=41, velocity=0, time=120),
    Message('note_on', channel=3, note=41, velocity=92, time=40),
    Message('note_on', channel=3, note=41, velocity=0, time=140),
    Message('note_on', channel=3, note=48, velocity=88, time=660),
    Message('note_on', channel=3, note=48, velocity=0, time=120),
    Message('note_on', channel=3, note=48, velocity=89, time=40),
    Message('note_on', channel=3, note=48, velocity=0, time=140),
    Message('note_on', channel=3, note=46, velocity=89, time=660),
    Message('note_on', channel=3, note=46, velocity=0, time=140),
    Message('note_on', channel=3, note=46, velocity=89, time=20),
    Message('note_on', channel=3, note=46, velocity=0, time=140),
    Message('note_on', channel=3, note=48, velocity=89, time=660),
    Message('note_on', channel=3, note=48, velocity=0, time=140),
    Message('note_on', channel=3, note=48, velocity=89, time=20),
    Message('note_on', channel=3, note=48, velocity=0, time=140),
    Message('note_on', channel=3, note=41, velocity=89, time=660),
    Message('note_on', channel=3, note=41, velocity=0, time=140),
    Message('note_on', channel=3, note=41, velocity=89, time=20),
    Message('note_on', channel=3, note=41, velocity=0, time=140),
    Message('note_on', channel=3, note=48, velocity=89, time=660),
    Message('note_on', channel=3, note=48, velocity=0, time=140),
    Message('note_on', channel=3, note=48, velocity=89, time=20),
    Message('note_on', channel=3, note=48, velocity=0, time=140),
    Message('note_on', channel=3, note=50, velocity=92, time=660),
    Message('note_on', channel=3, note=50, velocity=0, time=480),
    Message('note_on', channel=3, note=48, velocity=92, time=0),
    Message('note_on', channel=3, note=48, velocity=0, time=480),
    Message('note_on', channel=3, note=46, velocity=92, time=0),
    Message('note_on', channel=3, note=46, velocity=0, time=480),
    Message('note_on', channel=3, note=48, velocity=92, time=0),
    Message('note_on', channel=3, note=48, velocity=0, time=480),
    Message('note_on', channel=3, note=41, velocity=92, time=0),
    Message('note_on', channel=3, note=41, velocity=0, time=960),
    Message('note_on', channel=3, note=48, velocity=92, time=0),
    Message('note_on', channel=3, note=48, velocity=0, time=960),
    Message('note_on', channel=3, note=43, velocity=92, time=0),
    Message('note_on', channel=3, note=43, velocity=0, time=480),
    Message('note_on', channel=3, note=45, velocity=92, time=0),
    Message('note_on', channel=3, note=45, velocity=0, time=480),
    Message('note_on', channel=3, note=46, velocity=92, time=0),
    Message('note_on', channel=3, note=46, velocity=0, time=480),
    Message('note_on', channel=3, note=48, velocity=92, time=0),
    Message('note_on', channel=3, note=48, velocity=0, time=480),
    Message('note_on', channel=3, note=50, velocity=92, time=0),
    Message('note_on', channel=3, note=50, velocity=0, time=480),
    Message('note_on', channel=3, note=48, velocity=92, time=0),
    Message('note_on', channel=3, note=48, velocity=0, time=480),
    Message('note_on', channel=3, note=46, velocity=92, time=0),
    Message('note_on', channel=3, note=46, velocity=0, time=480),
    Message('note_on', channel=3, note=48, velocity=92, time=0),
    Message('note_on', channel=3, note=48, velocity=0, time=480),
    Message('note_on', channel=3, note=50, velocity=92, time=240),
    Message('note_on', channel=3, note=50, velocity=0, time=240),
    Message('note_on', channel=3, note=48, velocity=92, time=0),
    Message('note_on', channel=3, note=48, velocity=0, time=480),
    Message('note_on', channel=3, note=46, velocity=92, time=0),
    Message('note_on', channel=3, note=46, velocity=0, time=480),
    Message('note_on', channel=3, note=48, velocity=92, time=0),
    Message('note_on', channel=3, note=48, velocity=0, time=480),
    Message('note_on', channel=3, note=50, velocity=92, time=0),
    Message('note_on', channel=3, note=50, velocity=0, time=480),
    Message('note_on', channel=3, note=48, velocity=92, time=0),
    Message('note_on', channel=3, note=48, velocity=0, time=480),
    Message('note_on', channel=3, note=46, velocity=92, time=0),
    Message('note_on', channel=3, note=46, velocity=0, time=480),
    Message('note_on', channel=3, note=48, velocity=92, time=0),
    Message('note_on', channel=3, note=48, velocity=0, time=480),
    Message('note_on', channel=3, note=53, velocity=94, time=0),
    Message('pitchwheel', channel=3, pitch=-127, time=132),
    Message('pitchwheel', channel=3, pitch=-127, time=14),
    Message('pitchwheel', channel=3, pitch=-127, time=120),
    Message('pitchwheel', channel=3, pitch=1, time=46),
    Message('pitchwheel', channel=3, pitch=-127, time=34),
    Message('pitchwheel', channel=3, pitch=-255, time=46),
    Message('pitchwheel', channel=3, pitch=-383, time=14),
    Message('pitchwheel', channel=3, pitch=-639, time=6),
    Message('pitchwheel', channel=3, pitch=-1023, time=8),
    Message('pitchwheel', channel=3, pitch=-1919, time=6),
    Message('pitchwheel', channel=3, pitch=-2431, time=6),
    Message('pitchwheel', channel=3, pitch=-3071, time=8),
    Message('pitchwheel', channel=3, pitch=-3711, time=6),
    Message('pitchwheel', channel=3, pitch=-4479, time=6),
    Message('pitchwheel', channel=3, pitch=-7935, time=8),
    Message('pitchwheel', channel=3, pitch=-8191, time=6),
    Message('note_off', channel=3, note=53, velocity=0, time=34),
    Message('pitchwheel', channel=3, pitch=-127, time=6),
    Message('note_on', channel=3, note=53, velocity=93, time=464),
    Message('pitchwheel', channel=3, pitch=-383, time=336),
    Message('pitchwheel', channel=3, pitch=-511, time=46),
    Message('pitchwheel', channel=3, pitch=-639, time=8),
    Message('pitchwheel', channel=3, pitch=-895, time=12),
    Message('pitchwheel', channel=3, pitch=-1279, time=8),
    Message('pitchwheel', channel=3, pitch=-1663, time=6),
    Message('pitchwheel', channel=3, pitch=-1919, time=6),
    Message('pitchwheel', channel=3, pitch=-2303, time=8),
    Message('pitchwheel', channel=3, pitch=-2687, time=6),
    Message('pitchwheel', channel=3, pitch=-2943, time=6),
    Message('pitchwheel', channel=3, pitch=-3455, time=8),
    Message('pitchwheel', channel=3, pitch=-8191, time=6),
    Message('pitchwheel', channel=3, pitch=-7807, time=14),
    Message('pitchwheel', channel=3, pitch=-7935, time=6),
    Message('note_off', channel=3, note=53, velocity=0, time=4),
    Message('pitchwheel', channel=3, pitch=-127, time=16),
    Message('note_on', channel=3, note=53, velocity=90, time=454),
    Message('pitchwheel', channel=3, pitch=-383, time=340),
    Message('pitchwheel', channel=3, pitch=-511, time=46),
    Message('pitchwheel', channel=3, pitch=-639, time=8),
    Message('pitchwheel', channel=3, pitch=-895, time=12),
    Message('pitchwheel', channel=3, pitch=-1279, time=8),
    Message('pitchwheel', channel=3, pitch=-1663, time=6),
    Message('pitchwheel', channel=3, pitch=-1919, time=6),
    Message('pitchwheel', channel=3, pitch=-2687, time=14),
    Message('pitchwheel', channel=3, pitch=-2943, time=6),
    Message('pitchwheel', channel=3, pitch=-3455, time=8),
    Message('pitchwheel', channel=3, pitch=-8191, time=6),
    Message('pitchwheel', channel=3, pitch=-7807, time=14),
    Message('note_off', channel=3, note=53, velocity=0, time=6),
    Message('pitchwheel', channel=3, pitch=-7935, time=0),
    Message('pitchwheel', channel=3, pitch=-127, time=20),
    Message('note_on', channel=3, note=57, velocity=93, time=470),
    Message('note_on', channel=3, note=55, velocity=89, time=470),
    Message('note_on', channel=3, note=57, velocity=0, time=10),
    Message('note_on', channel=3, note=55, velocity=0, time=470),
    Message('note_on', channel=3, note=53, velocity=96, time=10),
    Message('pitchwheel', channel=3, pitch=-383, time=310),
    Message('pitchwheel', channel=3, pitch=-511, time=46),
    Message('pitchwheel', channel=3, pitch=-639, time=8),
    Message('pitchwheel', channel=3, pitch=-895, time=12),
    Message('pitchwheel', channel=3, pitch=-1279, time=8),
    Message('pitchwheel', channel=3, pitch=-1663, time=6),
    Message('pitchwheel', channel=3, pitch=-1919, time=6),
    Message('pitchwheel', channel=3, pitch=-2687, time=14),
    Message('pitchwheel', channel=3, pitch=-2943, time=6),
    Message('pitchwheel', channel=3, pitch=-3455, time=8),
    Message('pitchwheel', channel=3, pitch=-8191, time=6),
    Message('pitchwheel', channel=3, pitch=-7807, time=14),
    Message('pitchwheel', channel=3, pitch=-7935, time=6),
    Message('note_off', channel=3, note=53, velocity=0, time=10),
    Message('pitchwheel', channel=3, pitch=-127, time=10),
    Message('note_on', channel=3, note=53, velocity=92, time=480),
    Message('pitchwheel', channel=3, pitch=-383, time=340),
    Message('pitchwheel', channel=3, pitch=-511, time=46),
    Message('pitchwheel', channel=3, pitch=-639, time=8),
    Message('pitchwheel', channel=3, pitch=-895, time=12),
    Message('pitchwheel', channel=3, pitch=-1279, time=8),
    Message('pitchwheel', channel=3, pitch=-1663, time=6),
    Message('pitchwheel', channel=3, pitch=-1919, time=6),
    Message('pitchwheel', channel=3, pitch=-2687, time=14),
    Message('pitchwheel', channel=3, pitch=-2943, time=6),
    Message('pitchwheel', channel=3, pitch=-3455, time=8),
    Message('note_off', channel=3, note=53, velocity=0, time=6),
    Message('pitchwheel', channel=3, pitch=-8191, time=0),
    Message('pitchwheel', channel=3, pitch=-7807, time=14),
    Message('pitchwheel', channel=3, pitch=-7935, time=6),
    Message('pitchwheel', channel=3, pitch=-127, time=20),
    Message('control_change', channel=3, control=7, value=127, time=140),
    Message('control_change', channel=3, control=7, value=125, time=230),
    Message('control_change', channel=3, control=7, value=122, time=20),
    Message('note_on', channel=3, note=53, velocity=92, time=70),
    Message('control_change', channel=3, control=7, value=118, time=100),
    Message('pitchwheel', channel=3, pitch=-383, time=240),
    Message('pitchwheel', channel=3, pitch=-511, time=46),
    Message('pitchwheel', channel=3, pitch=-639, time=8),
    Message('pitchwheel', channel=3, pitch=-895, time=12),
    Message('pitchwheel', channel=3, pitch=-1279, time=8),
    Message('pitchwheel', channel=3, pitch=-1663, time=6),
    Message('pitchwheel', channel=3, pitch=-1919, time=6),
    Message('pitchwheel', channel=3, pitch=-2687, time=14),
    Message('pitchwheel', channel=3, pitch=-2943, time=6),
    Message('pitchwheel', channel=3, pitch=-3455, time=8),
    Message('pitchwheel', channel=3, pitch=-8191, time=6),
    Message('pitchwheel', channel=3, pitch=-7807, time=14),
    Message('note_off', channel=3, note=53, velocity=0, time=6),
    Message('pitchwheel', channel=3, pitch=-7935, time=0),
    Message('pitchwheel', channel=3, pitch=-127, time=20),
    Message('note_on', channel=3, note=57, velocity=104, time=460),
    Message('note_on', channel=3, note=57, velocity=0, time=240),
    Message('note_on', channel=3, note=55, velocity=87, time=6),
    Message('note_on', channel=3, note=53, velocity=96, time=154),
    Message('note_on', channel=3, note=55, velocity=0, time=8),
    Message('note_on', channel=3, note=53, velocity=0, time=70),
    Message('note_on', channel=3, note=55, velocity=67, time=2),
    Message('note_on', channel=3, note=53, velocity=96, time=160),
    Message('note_on', channel=3, note=55, velocity=0, time=6),
    Message('note_on', channel=3, note=53, velocity=0, time=74),
    Message('note_on', channel=3, note=50, velocity=83, time=0),
    Message('note_on', channel=3, note=53, velocity=107, time=154),
    Message('note_on', channel=3, note=50, velocity=0, time=16),
    Message('control_change', channel=3, control=7, value=117, time=422),
    Message('control_change', channel=3, control=7, value=113, time=20),
    Message('control_change', channel=3, control=7, value=111, time=50),
    Message('control_change', channel=3, control=7, value=110, time=70),
    Message('control_change', channel=3, control=7, value=109, time=40),
    Message('control_change', channel=3, control=7, value=108, time=40),
    Message('control_change', channel=3, control=7, value=107, time=120),
    Message('control_change', channel=3, control=7, value=106, time=20),
    Message('control_change', channel=3, control=7, value=104, time=20),
    Message('control_change', channel=3, control=7, value=103, time=30),
    Message('control_change', channel=3, control=7, value=102, time=60),
    Message('control_change', channel=3, control=7, value=101, time=20),
    Message('control_change', channel=3, control=7, value=99, time=50),
    Message('control_change', channel=3, control=7, value=97, time=60),
    Message('control_change', channel=3, control=7, value=96, time=30),
    Message('control_change', channel=3, control=7, value=95, time=20),
    Message('control_change', channel=3, control=7, value=94, time=60),
    Message('control_change', channel=3, control=7, value=92, time=50),
    Message('control_change', channel=3, control=7, value=90, time=30),
    Message('control_change', channel=3, control=7, value=89, time=40),
    Message('control_change', channel=3, control=7, value=88, time=40),
    Message('control_change', channel=3, control=7, value=87, time=20),
    Message('control_change', channel=3, control=7, value=85, time=30),
    Message('control_change', channel=3, control=7, value=84, time=40),
    Message('control_change', channel=3, control=7, value=83, time=70),
    Message('control_change', channel=3, control=7, value=82, time=20),
    Message('control_change', channel=3, control=7, value=81, time=30),
    Message('control_change', channel=3, control=7, value=80, time=20),
    Message('control_change', channel=3, control=7, value=78, time=20),
    Message('control_change', channel=3, control=7, value=77, time=40),
    Message('control_change', channel=3, control=7, value=76, time=30),
    Message('control_change', channel=3, control=7, value=75, time=20),
    Message('control_change', channel=3, control=7, value=74, time=20),
    Message('control_change', channel=3, control=7, value=73, time=20),
    Message('control_change', channel=3, control=7, value=70, time=20),
    Message('control_change', channel=3, control=7, value=69, time=10),
    Message('control_change', channel=3, control=7, value=66, time=20),
    Message('control_change', channel=3, control=7, value=63, time=20),
    Message('control_change', channel=3, control=7, value=62, time=30),
    Message('control_change', channel=3, control=7, value=61, time=80),
    Message('control_change', channel=3, control=7, value=59, time=90),
    Message('control_change', channel=3, control=7, value=57, time=40),
    Message('control_change', channel=3, control=7, value=56, time=70),
    Message('control_change', channel=3, control=7, value=55, time=10),
    Message('control_change', channel=3, control=7, value=54, time=80),
    Message('control_change', channel=3, control=7, value=52, time=20),
    Message('control_change', channel=3, control=7, value=50, time=30),
    Message('control_change', channel=3, control=7, value=49, time=40),
    Message('control_change', channel=3, control=7, value=48, time=10),
    Message('control_change', channel=3, control=7, value=47, time=30),
    Message('control_change', channel=3, control=7, value=45, time=10),
    Message('control_change', channel=3, control=7, value=43, time=40),
    Message('control_change', channel=3, control=7, value=42, time=20),
    Message('control_change', channel=3, control=7, value=41, time=10),
    Message('control_change', channel=3, control=7, value=40, time=60),
    Message('control_change', channel=3, control=7, value=38, time=58),
    Message('control_change', channel=3, control=7, value=37, time=52),
    Message('control_change', channel=3, control=7, value=36, time=50),
    Message('control_change', channel=3, control=7, value=35, time=20),
    Message('control_change', channel=3, control=7, value=34, time=30),
    Message('control_change', channel=3, control=7, value=33, time=30),
    Message('control_change', channel=3, control=7, value=31, time=30),
    Message('control_change', channel=3, control=7, value=30, time=108),
    Message('control_change', channel=3, control=7, value=29, time=30),
    Message('control_change', channel=3, control=7, value=28, time=30),
    Message('note_off', channel=3, note=53, velocity=0, time=14),
    Message('control_change', channel=3, control=7, value=27, time=0),
    Message('control_change', channel=3, control=7, value=26, time=56),
    MetaMessage('end_of_track', time=0)]),
  MidiTrack([
    MetaMessage('midi_port', port=0, time=0),
    MetaMessage('channel_prefix', channel=4, time=0),
    Message('program_change', channel=4, program=26, time=0),
    Message('control_change', channel=4, control=7, value=96, time=0),
    Message('control_change', channel=4, control=93, value=118, time=972),
    Message('control_change', channel=4, control=91, value=120, time=18),
    Message('control_change', channel=4, control=94, value=12, time=10),
    Message('control_change', channel=4, control=7, value=90, time=60),
    Message('control_change', channel=4, control=7, value=87, time=20),
    Message('control_change', channel=4, control=7, value=84, time=20),
    Message('control_change', channel=4, control=7, value=83, time=50),
    Message('control_change', channel=4, control=7, value=63, time=20),
    Message('note_on', channel=4, note=65, velocity=89, time=280),
    Message('note_on', channel=4, note=60, velocity=71, time=2),
    Message('control_change', channel=4, control=7, value=73, time=18),
    Message('control_change', channel=4, control=7, value=88, time=20),
    Message('control_change', channel=4, control=7, value=99, time=20),
    Message('control_change', channel=4, control=7, value=113, time=40),
    Message('control_change', channel=4, control=7, value=115, time=20),
    Message('control_change', channel=4, control=7, value=117, time=10),
    Message('control_change', channel=4, control=7, value=118, time=20),
    Message('control_change', channel=4, control=7, value=119, time=20),
    Message('control_change', channel=4, control=7, value=120, time=40),
    Message('control_change', channel=4, control=7, value=124, time=10),
    Message('control_change', channel=4, control=7, value=125, time=20),
    Message('control_change', channel=4, control=7, value=124, time=170),
    Message('control_change', channel=4, control=7, value=117, time=10),
    Message('control_change', channel=4, control=7, value=111, time=20),
    Message('control_change', channel=4, control=7, value=108, time=20),
    Message('control_change', channel=4, control=7, value=103, time=20),
    Message('note_off', channel=4, note=60, velocity=0, time=6),
    Message('control_change', channel=4, control=7, value=99, time=14),
    Message('note_off', channel=4, note=65, velocity=0, time=2),
    Message('control_change', channel=4, control=7, value=97, time=10),
    Message('control_change', channel=4, control=7, value=94, time=20),
    Message('control_change', channel=4, control=7, value=92, time=20),
    Message('control_change', channel=4, control=7, value=89, time=20),
    Message('control_change', channel=4, control=7, value=85, time=10),
    Message('control_change', channel=4, control=7, value=82, time=20),
    Message('control_change', channel=4, control=7, value=78, time=18),
    Message('control_change', channel=4, control=7, value=75, time=20),
    Message('control_change', channel=4, control=7, value=74, time=20),
    Message('control_change', channel=4, control=7, value=73, time=20),
    Message('control_change', channel=4, control=7, value=71, time=10),
    Message('control_change', channel=4, control=7, value=70, time=20),
    Message('control_change', channel=4, control=7, value=69, time=20),
    Message('control_change', channel=4, control=7, value=68, time=40),
    Message('control_change', channel=4, control=7, value=73, time=110),
    Message('control_change', channel=4, control=7, value=80, time=16),
    Message('control_change', channel=4, control=7, value=84, time=20),
    Message('control_change', channel=4, control=7, value=85, time=14),
    Message('note_on', channel=4, note=63, velocity=80, time=20),
    Message('note_on', channel=4, note=58, velocity=80, time=0),
    Message('control_change', channel=4, control=7, value=89, time=20),
    Message('control_change', channel=4, control=7, value=92, time=10),
    Message('control_change', channel=4, control=7, value=93, time=20),
    Message('control_change', channel=4, control=7, value=94, time=20),
    Message('control_change', channel=4, control=7, value=99, time=20),
    Message('control_change', channel=4, control=7, value=103, time=20),
    Message('control_change', channel=4, control=7, value=106, time=20),
    Message('control_change', channel=4, control=7, value=108, time=10),
    Message('control_change', channel=4, control=7, value=110, time=60),
    Message('control_change', channel=4, control=7, value=113, time=20),
    Message('control_change', channel=4, control=7, value=115, time=20),
    Message('control_change', channel=4, control=7, value=117, time=10),
    Message('control_change', channel=4, control=7, value=118, time=60),
    Message('control_change', channel=4, control=7, value=119, time=10),
    Message('control_change', channel=4, control=7, value=122, time=20),
    Message('control_change', channel=4, control=7, value=117, time=110),
    Message('control_change', channel=4, control=7, value=110, time=20),
    Message('note_off', channel=4, note=63, velocity=0, time=8),
    Message('control_change', channel=4, control=7, value=103, time=14),
    Message('control_change', channel=4, control=7, value=96, time=18),
    Message('note_off', channel=4, note=58, velocity=0, time=6),
    Message('control_change', channel=4, control=7, value=90, time=10),
    Message('control_change', channel=4, control=7, value=89, time=20),
    Message('control_change', channel=4, control=7, value=85, time=20),
    Message('control_change', channel=4, control=7, value=84, time=10),
    Message('control_change', channel=4, control=7, value=78, time=20),
    Message('control_change', channel=4, control=7, value=73, time=24),
    Message('control_change', channel=4, control=7, value=70, time=10),
    Message('control_change', channel=4, control=7, value=66, time=20),
    Message('control_change', channel=4, control=7, value=64, time=20),
    Message('control_change', channel=4, control=7, value=63, time=20),
    Message('control_change', channel=4, control=7, value=64, time=220),
    Message('control_change', channel=4, control=7, value=65, time=10),
    Message('control_change', channel=4, control=7, value=68, time=20),
    Message('note_on', channel=4, note=62, velocity=80, time=20),
    Message('note_on', channel=4, note=58, velocity=80, time=0),
    Message('control_change', channel=4, control=7, value=71, time=2),
    Message('control_change', channel=4, control=7, value=77, time=18),
    Message('control_change', channel=4, control=7, value=80, time=10),
    Message('control_change', channel=4, control=7, value=85, time=60),
    Message('control_change', channel=4, control=7, value=102, time=20),
    Message('control_change', channel=4, control=7, value=106, time=30),
    Message('control_change', channel=4, control=7, value=107, time=40),
    Message('control_change', channel=4, control=7, value=101, time=20),
    Message('control_change', channel=4, control=7, value=104, time=20),
    Message('control_change', channel=4, control=7, value=105, time=30),
    Message('control_change', channel=4, control=7, value=106, time=20),
    Message('control_change', channel=4, control=7, value=110, time=40),
    Message('control_change', channel=4, control=7, value=111, time=10),
    Message('control_change', channel=4, control=7, value=115, time=20),
    Message('control_change', channel=4, control=7, value=122, time=20),
    Message('control_change', channel=4, control=7, value=125, time=20),
    Message('control_change', channel=4, control=7, value=126, time=10),
    Message('note_off', channel=4, note=58, velocity=0, time=90),
    Message('note_off', channel=4, note=62, velocity=0, time=0),
    Message('control_change', channel=4, control=7, value=108, time=10),
    Message('control_change', channel=4, control=7, value=101, time=20),
    Message('control_change', channel=4, control=7, value=94, time=10),
    Message('control_change', channel=4, control=7, value=89, time=20),
    Message('control_change', channel=4, control=7, value=84, time=20),
    Message('control_change', channel=4, control=7, value=80, time=20),
    Message('control_change', channel=4, control=7, value=78, time=20),
    Message('control_change', channel=4, control=7, value=77, time=10),
    Message('control_change', channel=4, control=7, value=73, time=20),
    Message('control_change', channel=4, control=7, value=70, time=20),
    Message('control_change', channel=4, control=7, value=66, time=20),
    Message('control_change', channel=4, control=7, value=64, time=20),
    Message('control_change', channel=4, control=7, value=63, time=20),
    Message('control_change', channel=4, control=7, value=62, time=10),
    Message('control_change', channel=4, control=7, value=59, time=20),
    Message('control_change', channel=4, control=7, value=66, time=110),
    Message('note_on', channel=4, note=60, velocity=80, time=128),
    Message('control_change', channel=4, control=7, value=68, time=22),
    Message('control_change', channel=4, control=7, value=77, time=10),
    Message('control_change', channel=4, control=7, value=90, time=40),
    Message('control_change', channel=4, control=7, value=120, time=20),
    Message('control_change', channel=4, control=7, value=98, time=20),
    Message('note_on', channel=4, note=62, velocity=71, time=32),
    Message('note_on', channel=4, note=60, velocity=0, time=34),
    Message('note_on', channel=4, note=65, velocity=89, time=44),
    Message('note_on', channel=4, note=62, velocity=0, time=22),
    Message('note_on', channel=4, note=65, velocity=97, time=146),
    Message('note_on', channel=4, note=65, velocity=0, time=46),
    Message('control_change', channel=4, control=7, value=91, time=216),
    Message('control_change', channel=4, control=7, value=97, time=20),
    Message('control_change', channel=4, control=7, value=101, time=10),
    Message('control_change', channel=4, control=7, value=88, time=20),
    Message('control_change', channel=4, control=7, value=86, time=20),
    Message('control_change', channel=4, control=7, value=88, time=20),
    Message('control_change', channel=4, control=7, value=89, time=20),
    Message('control_change', channel=4, control=7, value=59, time=20),
    Message('control_change', channel=4, control=7, value=42, time=10),
    Message('control_change', channel=4, control=7, value=41, time=20),
    Message('control_change', channel=4, control=7, value=42, time=56),
    Message('note_off', channel=4, note=65, velocity=0, time=2),
    Message('control_change', channel=4, control=7, value=49, time=18),
    Message('control_change', channel=4, control=7, value=66, time=14),
    Message('control_change', channel=4, control=7, value=84, time=20),
    Message('control_change', channel=4, control=7, value=90, time=22),
    Message('control_change', channel=4, control=7, value=96, time=12),
    Message('note_on', channel=4, note=65, velocity=80, time=0),
    Message('note_on', channel=4, note=60, velocity=71, time=0),
    Message('control_change', channel=4, control=7, value=103, time=16),
    Message('control_change', channel=4, control=7, value=110, time=20),
    Message('control_change', channel=4, control=7, value=115, time=20),
    Message('control_change', channel=4, control=7, value=117, time=20),
    Message('control_change', channel=4, control=7, value=122, time=20),
    Message('control_change', channel=4, control=7, value=127, time=20),
    Message('control_change', channel=4, control=7, value=124, time=250),
    Message('control_change', channel=4, control=7, value=120, time=20),
    Message('control_change', channel=4, control=7, value=103, time=20),
    Message('control_change', channel=4, control=7, value=96, time=10),
    Message('control_change', channel=4, control=7, value=92, time=20),
    Message('control_change', channel=4, control=7, value=90, time=20),
    Message('control_change', channel=4, control=7, value=89, time=12),
    Message('note_off', channel=4, note=60, velocity=0, time=10),
    Message('control_change', channel=4, control=7, value=88, time=10),
    Message('note_off', channel=4, note=65, velocity=0, time=22),
    Message('control_change', channel=4, control=7, value=85, time=0),
    Message('control_change', channel=4, control=7, value=80, time=20),
    Message('control_change', channel=4, control=7, value=75, time=20),
    Message('control_change', channel=4, control=7, value=68, time=10),
    Message('control_change', channel=4, control=7, value=63, time=20),
    Message('control_change', channel=4, control=7, value=57, time=20),
    Message('control_change', channel=4, control=7, value=54, time=16),
    Message('control_change', channel=4, control=7, value=57, time=236),
    Message('control_change', channel=4, control=7, value=63, time=20),
    Message('control_change', channel=4, control=7, value=68, time=20),
    Message('control_change', channel=4, control=7, value=70, time=20),
    Message('control_change', channel=4, control=7, value=73, time=36),
    Message('note_on', channel=4, note=63, velocity=80, time=8),
    Message('note_on', channel=4, note=58, velocity=80, time=4),
    Message('control_change', channel=4, control=7, value=78, time=6),
    Message('control_change', channel=4, control=7, value=85, time=10),
    Message('control_change', channel=4, control=7, value=92, time=20),
    Message('control_change', channel=4, control=7, value=97, time=20),
    Message('control_change', channel=4, control=7, value=101, time=20),
    Message('control_change', channel=4, control=7, value=103, time=20),
    Message('control_change', channel=4, control=7, value=106, time=10),
    Message('control_change', channel=4, control=7, value=108, time=20),
    Message('control_change', channel=4, control=7, value=110, time=20),
    Message('control_change', channel=4, control=7, value=111, time=40),
    Message('control_change', channel=4, control=7, value=115, time=10),
    Message('control_change', channel=4, control=7, value=120, time=20),
    Message('control_change', channel=4, control=7, value=115, time=180),
    Message('control_change', channel=4, control=7, value=110, time=20),
    Message('control_change', channel=4, control=7, value=104, time=20),
    Message('control_change', channel=4, control=7, value=103, time=20),
    Message('control_change', channel=4, control=7, value=97, time=22),
    Message('control_change', channel=4, control=7, value=94, time=18),
    Message('note_off', channel=4, note=63, velocity=0, time=18),
    Message('control_change', channel=4, control=7, value=90, time=0),
    Message('control_change', channel=4, control=7, value=87, time=10),
    Message('note_off', channel=4, note=58, velocity=0, time=10),
    Message('control_change', channel=4, control=7, value=82, time=10),
    Message('control_change', channel=4, control=7, value=77, time=20),
    Message('control_change', channel=4, control=7, value=59, time=20),
    Message('control_change', channel=4, control=7, value=56, time=22),
    Message('control_change', channel=4, control=7, value=61, time=320),
    Message('control_change', channel=4, control=7, value=68, time=22),
    Message('control_change', channel=4, control=7, value=73, time=18),
    Message('note_on', channel=4, note=58, velocity=80, time=0),
    Message('note_on', channel=4, note=62, velocity=80, time=4),
    Message('control_change', channel=4, control=7, value=78, time=16),
    Message('control_change', channel=4, control=7, value=82, time=10),
    Message('control_change', channel=4, control=7, value=84, time=20),
    Message('control_change', channel=4, control=7, value=87, time=20),
    Message('control_change', channel=4, control=7, value=92, time=20),
    Message('control_change', channel=4, control=7, value=97, time=20),
    Message('control_change', channel=4, control=7, value=103, time=10),
    Message('control_change', channel=4, control=7, value=106, time=20),
    Message('control_change', channel=4, control=7, value=108, time=20),
    Message('control_change', channel=4, control=7, value=110, time=20),
    Message('control_change', channel=4, control=7, value=113, time=20),
    Message('control_change', channel=4, control=7, value=115, time=10),
    Message('control_change', channel=4, control=7, value=117, time=20),
    Message('control_change', channel=4, control=7, value=118, time=20),
    Message('note_off', channel=4, note=58, velocity=0, time=126),
    Message('note_off', channel=4, note=62, velocity=0, time=12),
    Message('control_change', channel=4, control=7, value=113, time=62),
    Message('note_on', channel=4, note=69, velocity=89, time=10),
    Message('control_change', channel=4, control=7, value=110, time=2),
    Message('control_change', channel=4, control=7, value=104, time=28),
    Message('control_change', channel=4, control=7, value=99, time=10),
    Message('control_change', channel=4, control=7, value=94, time=20),
    Message('control_change', channel=4, control=7, value=92, time=20),
    Message('control_change', channel=4, control=7, value=90, time=40),
    Message('control_change', channel=4, control=7, value=87, time=50),
    Message('control_change', channel=4, control=7, value=85, time=20),
    Message('control_change', channel=4, control=7, value=84, time=20),
    Message('control_change', channel=4, control=7, value=83, time=10),
    Message('note_off', channel=4, note=69, velocity=0, time=20),
    Message('note_on', channel=4, note=67, velocity=53, time=10),
    Message('note_on', channel=4, note=67, velocity=0, time=104),
    Message('control_change', channel=4, control=7, value=89, time=0),
    Message('control_change', channel=4, control=7, value=94, time=20),
    Message('control_change', channel=4, control=7, value=101, time=10),
    Message('note_on', channel=4, note=65, velocity=80, time=18),
    Message('control_change', channel=4, control=7, value=104, time=6),
    Message('control_change', channel=4, control=7, value=105, time=10),
    Message('control_change', channel=4, control=7, value=106, time=22),
    Message('control_change', channel=4, control=7, value=110, time=20),
    Message('note_off', channel=4, note=65, velocity=0, time=18),
    Message('note_on', channel=4, note=67, velocity=37, time=2),
    Message('control_change', channel=4, control=7, value=111, time=2),
    Message('control_change', channel=4, control=7, value=112, time=98),
    Message('control_change', channel=4, control=7, value=113, time=20),
    Message('note_on', channel=4, note=65, velocity=80, time=44),
    Message('note_on', channel=4, note=67, velocity=0, time=30),
    Message('note_on', channel=4, note=62, velocity=71, time=46),
    Message('control_change', channel=4, control=7, value=115, time=10),
    Message('note_off', channel=4, note=65, velocity=0, time=16),
    Message('control_change', channel=4, control=7, value=118, time=4),
    Message('control_change', channel=4, control=7, value=124, time=20),
    Message('control_change', channel=4, control=7, value=125, time=20),
    Message('control_change', channel=4, control=7, value=126, time=10),
    Message('note_off', channel=4, note=62, velocity=0, time=22),
    Message('control_change', channel=4, control=7, value=127, time=0),
    Message('note_on', channel=4, note=65, velocity=80, time=50),
    Message('note_on', channel=4, note=65, velocity=0, time=180),
    Message('control_change', channel=4, control=7, value=47, time=13656),
    Message('note_on', channel=4, note=53, velocity=89, time=1612),
    Message('note_on', channel=4, note=58, velocity=89, time=0),
    Message('control_change', channel=4, control=7, value=49, time=2),
    Message('control_change', channel=4, control=7, value=70, time=20),
    Message('control_change', channel=4, control=7, value=75, time=18),
    Message('control_change', channel=4, control=7, value=77, time=20),
    Message('control_change', channel=4, control=7, value=91, time=50),
    Message('control_change', channel=4, control=7, value=98, time=20),
    Message('control_change', channel=4, control=7, value=101, time=20),
    Message('control_change', channel=4, control=7, value=109, time=20),
    Message('control_change', channel=4, control=7, value=101, time=10),
    Message('control_change', channel=4, control=7, value=108, time=20),
    Message('control_change', channel=4, control=7, value=113, time=20),
    Message('control_change', channel=4, control=7, value=115, time=20),
    Message('control_change', channel=4, control=7, value=118, time=20),
    Message('control_change', channel=4, control=7, value=122, time=10),
    Message('control_change', channel=4, control=7, value=125, time=20),
    Message('control_change', channel=4, control=7, value=126, time=20),
    Message('control_change', channel=4, control=7, value=125, time=160),
    Message('control_change', channel=4, control=7, value=118, time=22),
    Message('control_change', channel=4, control=7, value=101, time=18),
    Message('control_change', channel=4, control=7, value=96, time=20),
    Message('control_change', channel=4, control=7, value=95, time=10),
    Message('control_change', channel=4, control=7, value=94, time=40),
    Message('control_change', channel=4, control=7, value=89, time=20),
    Message('control_change', channel=4, control=7, value=64, time=350),
    Message('note_off', channel=4, note=58, velocity=0, time=10),
    Message('note_off', channel=4, note=53, velocity=0, time=0),
    Message('note_on', channel=4, note=55, velocity=89, time=0),
    Message('note_on', channel=4, note=60, velocity=89, time=0),
    Message('control_change', channel=4, control=7, value=68, time=2),
    Message('control_change', channel=4, control=7, value=70, time=20),
    Message('control_change', channel=4, control=7, value=71, time=18),
    Message('control_change', channel=4, control=7, value=75, time=20),
    Message('control_change', channel=4, control=7, value=81, time=20),
    Message('control_change', channel=4, control=7, value=89, time=10),
    Message('control_change', channel=4, control=7, value=93, time=40),
    Message('control_change', channel=4, control=7, value=99, time=20),
    Message('control_change', channel=4, control=7, value=104, time=20),
    Message('control_change', channel=4, control=7, value=106, time=10),
    Message('control_change', channel=4, control=7, value=104, time=20),
    Message('control_change', channel=4, control=7, value=110, time=10),
    Message('control_change', channel=4, control=7, value=111, time=20),
    Message('control_change', channel=4, control=7, value=112, time=20),
    Message('control_change', channel=4, control=7, value=113, time=20),
    Message('control_change', channel=4, control=7, value=115, time=20),
    Message('control_change', channel=4, control=7, value=117, time=30),
    Message('control_change', channel=4, control=7, value=118, time=20),
    Message('control_change', channel=4, control=7, value=122, time=90),
    Message('control_change', channel=4, control=7, value=124, time=40),
    Message('control_change', channel=4, control=7, value=118, time=90),
    Message('control_change', channel=4, control=7, value=113, time=20),
    Message('control_change', channel=4, control=7, value=106, time=10),
    Message('control_change', channel=4, control=7, value=101, time=20),
    Message('control_change', channel=4, control=7, value=99, time=20),
    Message('control_change', channel=4, control=7, value=97, time=20),
    Message('control_change', channel=4, control=7, value=96, time=10),
    Message('control_change', channel=4, control=7, value=92, time=20),
    Message('control_change', channel=4, control=7, value=90, time=20),
    Message('control_change', channel=4, control=7, value=69, time=140),
    Message('note_off', channel=4, note=60, velocity=0, time=120),
    Message('note_off', channel=4, note=55, velocity=0, time=0),
    Message('note_on', channel=4, note=58, velocity=89, time=0),
    Message('note_on', channel=4, note=62, velocity=89, time=0),
    Message('control_change', channel=4, control=7, value=76, time=12),
    Message('control_change', channel=4, control=7, value=91, time=18),
    Message('control_change', channel=4, control=7, value=98, time=60),
    Message('control_change', channel=4, control=7, value=111, time=10),
    Message('control_change', channel=4, control=7, value=115, time=20),
    Message('control_change', channel=4, control=7, value=118, time=20),
    Message('control_change', channel=4, control=7, value=119, time=20),
    Message('control_change', channel=4, control=7, value=122, time=20),
    Message('control_change', channel=4, control=7, value=124, time=20),
    Message('control_change', channel=4, control=7, value=125, time=30),
    Message('control_change', channel=4, control=7, value=126, time=20),
    Message('control_change', channel=4, control=7, value=127, time=20),
    Message('control_change', channel=4, control=7, value=110, time=270),
    Message('control_change', channel=4, control=7, value=92, time=20),
    Message('control_change', channel=4, control=7, value=63, time=390),
    Message('note_off', channel=4, note=62, velocity=0, time=10),
    Message('note_off', channel=4, note=58, velocity=0, time=0),
    Message('note_on', channel=4, note=60, velocity=89, time=0),
    Message('note_on', channel=4, note=64, velocity=89, time=0),
    Message('control_change', channel=4, control=7, value=66, time=12),
    Message('control_change', channel=4, control=7, value=74, time=18),
    Message('control_change', channel=4, control=7, value=86, time=20),
    Message('control_change', channel=4, control=7, value=100, time=20),
    Message('control_change', channel=4, control=7, value=117, time=20),
    Message('control_change', channel=4, control=7, value=118, time=10),
    Message('control_change', channel=4, control=7, value=122, time=20),
    Message('control_change', channel=4, control=7, value=125, time=30),
    Message('control_change', channel=4, control=7, value=126, time=10),
    Message('control_change', channel=4, control=7, value=127, time=20),
    Message('control_change', channel=4, control=7, value=125, time=330),
    Message('control_change', channel=4, control=7, value=120, time=10),
    Message('control_change', channel=4, control=7, value=115, time=20),
    Message('control_change', channel=4, control=7, value=110, time=20),
    Message('control_change', channel=4, control=7, value=106, time=10),
    Message('control_change', channel=4, control=7, value=103, time=20),
    Message('control_change', channel=4, control=7, value=99, time=20),
    Message('control_change', channel=4, control=7, value=94, time=20),
    Message('control_change', channel=4, control=7, value=90, time=20),
    Message('control_change', channel=4, control=7, value=89, time=20),
    Message('control_change', channel=4, control=7, value=88, time=10),
    Message('control_change', channel=4, control=7, value=85, time=20),
    Message('control_change', channel=4, control=7, value=82, time=20),
    Message('control_change', channel=4, control=7, value=78, time=20),
    Message('control_change', channel=4, control=7, value=77, time=20),
    Message('control_change', channel=4, control=7, value=76, time=10),
    Message('control_change', channel=4, control=7, value=75, time=20),
    Message('control_change', channel=4, control=7, value=74, time=20),
    Message('control_change', channel=4, control=7, value=73, time=20),
    Message('control_change', channel=4, control=7, value=70, time=20),
    Message('control_change', channel=4, control=7, value=66, time=20),
    Message('control_change', channel=4, control=7, value=64, time=10),
    Message('note_off', channel=4, note=64, velocity=0, time=80),
    Message('note_off', channel=4, note=60, velocity=0, time=0),
    Message('note_on', channel=4, note=65, velocity=80, time=8),
    Message('note_on', channel=4, note=60, velocity=71, time=2),
    Message('control_change', channel=4, control=7, value=72, time=10),
    Message('control_change', channel=4, control=7, value=85, time=134),
    Message('control_change', channel=4, control=7, value=92, time=6),
    Message('control_change', channel=4, control=7, value=99, time=20),
    Message('control_change', channel=4, control=7, value=104, time=20),
    Message('control_change', channel=4, control=7, value=95, time=634),
    Message('control_change', channel=4, control=7, value=82, time=20),
    Message('control_change', channel=4, control=7, value=79, time=10),
    Message('control_change', channel=4, control=7, value=75, time=26),
    Message('note_off', channel=4, note=60, velocity=0, time=16),
    Message('note_off', channel=4, note=65, velocity=0, time=16),
    Message('note_on', channel=4, note=60, velocity=62, time=38),
    Message('note_on', channel=4, note=64, velocity=71, time=0),
    Message('control_change', channel=4, control=7, value=77, time=2),
    Message('control_change', channel=4, control=7, value=82, time=16),
    Message('control_change', channel=4, control=7, value=90, time=22),
    Message('control_change', channel=4, control=7, value=94, time=20),
    Message('control_change', channel=4, control=7, value=97, time=10),
    Message('control_change', channel=4, control=7, value=103, time=20),
    Message('control_change', channel=4, control=7, value=106, time=20),
    Message('control_change', channel=4, control=7, value=108, time=60),
    Message('control_change', channel=4, control=7, value=110, time=10),
    Message('note_off', channel=4, note=60, velocity=0, time=436),
    Message('control_change', channel=4, control=7, value=101, time=144),
    Message('control_change', channel=4, control=7, value=96, time=20),
    Message('control_change', channel=4, control=7, value=90, time=20),
    Message('control_change', channel=4, control=7, value=83, time=50),
    Message('note_off', channel=4, note=64, velocity=0, time=24),
    Message('control_change', channel=4, control=7, value=81, time=0),
    Message('control_change', channel=4, control=7, value=75, time=10),
    Message('control_change', channel=4, control=7, value=65, time=20),
    Message('note_on', channel=4, note=62, velocity=62, time=70),
    Message('note_on', channel=4, note=58, velocity=62, time=6),
    Message('control_change', channel=4, control=7, value=75, time=20),
    Message('control_change', channel=4, control=7, value=87, time=18),
    Message('control_change', channel=4, control=7, value=95, time=64),
    Message('control_change', channel=4, control=7, value=100, time=20),
    Message('control_change', channel=4, control=7, value=106, time=238),
    Message('control_change', channel=4, control=7, value=110, time=20),
    Message('control_change', channel=4, control=7, value=100, time=310),
    Message('control_change', channel=4, control=7, value=95, time=10),
    Message('note_off', channel=4, note=58, velocity=0, time=136),
    Message('control_change', channel=4, control=7, value=90, time=18),
    Message('control_change', channel=4, control=7, value=83, time=10),
    Message('note_off', channel=4, note=62, velocity=0, time=16),
    Message('control_change', channel=4, control=7, value=77, time=4),
    Message('control_change', channel=4, control=7, value=69, time=20),
    Message('control_change', channel=4, control=7, value=63, time=16),
    Message('control_change', channel=4, control=7, value=59, time=40),
    Message('note_on', channel=4, note=64, velocity=71, time=0),
    Message('note_on', channel=4, note=60, velocity=71, time=4),
    Message('control_change', channel=4, control=7, value=70, time=16),
    Message('control_change', channel=4, control=7, value=87, time=10),
    Message('control_change', channel=4, control=7, value=92, time=30),
    Message('control_change', channel=4, control=7, value=93, time=10),
    Message('control_change', channel=4, control=7, value=96, time=34),
    Message('control_change', channel=4, control=7, value=103, time=20),
    Message('control_change', channel=4, control=7, value=108, time=26),
    Message('control_change', channel=4, control=7, value=111, time=20),
    Message('control_change', channel=4, control=7, value=112, time=10),
    Message('control_change', channel=4, control=7, value=113, time=90),
    Message('note_off', channel=4, note=64, velocity=0, time=498),
    Message('control_change', channel=4, control=7, value=105, time=30),
    Message('control_change', channel=4, control=7, value=98, time=20),
    Message('control_change', channel=4, control=7, value=91, time=20),
    Message('note_off', channel=4, note=60, velocity=0, time=16),
    Message('control_change', channel=4, control=7, value=85, time=2),
    Message('control_change', channel=4, control=7, value=78, time=14),
    Message('control_change', channel=4, control=7, value=72, time=20),
    Message('control_change', channel=4, control=7, value=65, time=10),
    Message('note_on', channel=4, note=65, velocity=62, time=60),
    Message('note_on', channel=4, note=60, velocity=62, time=4),
    Message('control_change', channel=4, control=7, value=68, time=12),
    Message('control_change', channel=4, control=7, value=74, time=22),
    Message('control_change', channel=4, control=7, value=81, time=18),
    Message('control_change', channel=4, control=7, value=89, time=18),
    Message('control_change', channel=4, control=7, value=97, time=10),
    Message('control_change', channel=4, control=7, value=102, time=20),
    Message('control_change', channel=4, control=7, value=110, time=20),
    Message('control_change', channel=4, control=7, value=111, time=36),
    Message('control_change', channel=4, control=7, value=112, time=20),
    Message('control_change', channel=4, control=7, value=113, time=20),
    Message('control_change', channel=4, control=7, value=107, time=540),
    Message('control_change', channel=4, control=7, value=98, time=20),
    Message('control_change', channel=4, control=7, value=91, time=70),
    Message('note_off', channel=4, note=60, velocity=0, time=12),
    Message('note_off', channel=4, note=65, velocity=0, time=2),
    Message('control_change', channel=4, control=7, value=85, time=10),
    Message('control_change', channel=4, control=7, value=79, time=16),
    Message('control_change', channel=4, control=7, value=68, time=20),
    Message('note_on', channel=4, note=64, velocity=62, time=60),
    Message('note_on', channel=4, note=60, velocity=62, time=2),
    Message('control_change', channel=4, control=7, value=75, time=10),
    Message('control_change', channel=4, control=7, value=87, time=18),
    Message('control_change', channel=4, control=7, value=89, time=34),
    Message('control_change', channel=4, control=7, value=92, time=20),
    Message('control_change', channel=4, control=7, value=96, time=10),
    Message('control_change', channel=4, control=7, value=101, time=26),
    Message('control_change', channel=4, control=7, value=104, time=20),
    Message('control_change', channel=4, control=7, value=105, time=30),
    Message('control_change', channel=4, control=7, value=106, time=20),
    Message('control_change', channel=4, control=7, value=110, time=20),
    Message('control_change', channel=4, control=7, value=111, time=20),
    Message('control_change', channel=4, control=7, value=112, time=10),
    Message('control_change', channel=4, control=7, value=113, time=20),
    Message('control_change', channel=4, control=7, value=105, time=510),
    Message('control_change', channel=4, control=7, value=97, time=20),
    Message('control_change', channel=4, control=7, value=90, time=20),
    Message('control_change', channel=4, control=7, value=83, time=20),
    Message('note_off', channel=4, note=60, velocity=0, time=16),
    Message('note_off', channel=4, note=64, velocity=0, time=14),
    Message('control_change', channel=4, control=7, value=75, time=0),
    Message('control_change', channel=4, control=7, value=64, time=20),
    Message('control_change', channel=4, control=7, value=62, time=14),
    Message('note_on', channel=4, note=62, velocity=71, time=56),
    Message('note_on', channel=4, note=65, velocity=45, time=0),
    Message('control_change', channel=4, control=7, value=67, time=2),
    Message('control_change', channel=4, control=7, value=77, time=20),
    Message('control_change', channel=4, control=7, value=86, time=18),
    Message('control_change', channel=4, control=7, value=92, time=10),
    Message('control_change', channel=4, control=7, value=97, time=20),
    Message('control_change', channel=4, control=7, value=110, time=20),
    Message('control_change', channel=4, control=7, value=111, time=20),
    Message('control_change', channel=4, control=7, value=113, time=50),
    Message('control_change', channel=4, control=7, value=104, time=220),
    Message('control_change', channel=4, control=7, value=97, time=20),
    Message('control_change', channel=4, control=7, value=90, time=10),
    Message('control_change', channel=4, control=7, value=83, time=20),
    Message('control_change', channel=4, control=7, value=72, time=20),
    Message('control_change', channel=4, control=7, value=62, time=24),
    Message('note_off', channel=4, note=65, velocity=0, time=6),
    Message('note_off', channel=4, note=62, velocity=0, time=0),
    Message('note_on', channel=4, note=64, velocity=71, time=0),
    Message('note_on', channel=4, note=60, velocity=71, time=4),
    Message('control_change', channel=4, control=7, value=66, time=26),
    Message('control_change', channel=4, control=7, value=75, time=20),
    Message('control_change', channel=4, control=7, value=84, time=10),
    Message('control_change', channel=4, control=7, value=90, time=20),
    Message('control_change', channel=4, control=7, value=94, time=20),
    Message('control_change', channel=4, control=7, value=99, time=20),
    Message('control_change', channel=4, control=7, value=103, time=20),
    Message('control_change', channel=4, control=7, value=107, time=20),
    Message('control_change', channel=4, control=7, value=110, time=10),
    Message('control_change', channel=4, control=7, value=112, time=20),
    Message('control_change', channel=4, control=7, value=93, time=150),
    Message('control_change', channel=4, control=7, value=73, time=10),
    Message('control_change', channel=4, control=7, value=54, time=20),
    Message('note_off', channel=4, note=64, velocity=0, time=110),
    Message('note_off', channel=4, note=60, velocity=0, time=4),
    Message('note_on', channel=4, note=62, velocity=62, time=2),
    Message('note_on', channel=4, note=58, velocity=62, time=2),
    Message('control_change', channel=4, control=7, value=64, time=46),
    Message('control_change', channel=4, control=7, value=77, time=20),
    Message('control_change', channel=4, control=7, value=87, time=20),
    Message('control_change', channel=4, control=7, value=95, time=66),
    Message('control_change', channel=4, control=7, value=101, time=20),
    Message('control_change', channel=4, control=7, value=107, time=20),
    Message('control_change', channel=4, control=7, value=112, time=20),
    Message('control_change', channel=4, control=7, value=120, time=86),
    Message('control_change', channel=4, control=7, value=117, time=72),
    Message('control_change', channel=4, control=7, value=99, time=20),
    Message('control_change', channel=4, control=7, value=82, time=18),
    Message('note_off', channel=4, note=62, velocity=0, time=20),
    Message('control_change', channel=4, control=7, value=75, time=10),
    Message('note_off', channel=4, note=58, velocity=0, time=2),
    Message('control_change', channel=4, control=7, value=67, time=10),
    Message('note_on', channel=4, note=64, velocity=71, time=30),
    Message('note_on', channel=4, note=60, velocity=62, time=4),
    Message('control_change', channel=4, control=7, value=74, time=88),
    Message('control_change', channel=4, control=7, value=81, time=20),
    Message('control_change', channel=4, control=7, value=86, time=20),
    Message('control_change', channel=4, control=7, value=90, time=20),
    Message('control_change', channel=4, control=7, value=96, time=10),
    Message('control_change', channel=4, control=7, value=99, time=22),
    Message('control_change', channel=4, control=7, value=103, time=20),
    Message('control_change', channel=4, control=7, value=104, time=10),
    Message('control_change', channel=4, control=7, value=108, time=78),
    Message('control_change', channel=4, control=7, value=111, time=24),
    Message('control_change', channel=4, control=7, value=115, time=14),
    Message('note_off', channel=4, note=64, velocity=0, time=30),
    Message('control_change', channel=4, control=7, value=98, time=0),
    Message('note_off', channel=4, note=60, velocity=0, time=62),
    Message('control_change', channel=4, control=7, value=83, time=20),
    Message('control_change', channel=4, control=7, value=68, time=10),
    Message('note_on', channel=4, note=65, velocity=71, time=20),
    Message('note_on', channel=4, note=60, velocity=62, time=0),
    Message('control_change', channel=4, control=7, value=56, time=2),
    Message('control_change', channel=4, control=7, value=70, time=20),
    Message('control_change', channel=4, control=7, value=78, time=68),
    Message('control_change', channel=4, control=7, value=85, time=20),
    Message('control_change', channel=4, control=7, value=92, time=20),
    Message('control_change', channel=4, control=7, value=99, time=20),
    Message('control_change', channel=4, control=7, value=104, time=20),
    Message('control_change', channel=4, control=7, value=110, time=10),
    Message('control_change', channel=4, control=7, value=113, time=20),
    Message('control_change', channel=4, control=7, value=111, time=450),
    Message('control_change', channel=4, control=7, value=96, time=20),
    Message('control_change', channel=4, control=7, value=80, time=20),
    Message('control_change', channel=4, control=7, value=71, time=20),
    Message('control_change', channel=4, control=7, value=63, time=30),
    Message('note_off', channel=4, note=65, velocity=0, time=136),
    Message('note_off', channel=4, note=60, velocity=0, time=16),
    Message('note_on', channel=4, note=60, velocity=62, time=68),
    Message('note_on', channel=4, note=64, velocity=53, time=0),
    Message('control_change', channel=4, control=7, value=64, time=2),
    Message('control_change', channel=4, control=7, value=70, time=16),
    Message('control_change', channel=4, control=7, value=77, time=22),
    Message('control_change', channel=4, control=7, value=85, time=14),
    Message('control_change', channel=4, control=7, value=92, time=20),
    Message('control_change', channel=4, control=7, value=98, time=20),
    Message('control_change', channel=4, control=7, value=102, time=14),
    Message('control_change', channel=4, control=7, value=108, time=20),
    Message('control_change', channel=4, control=7, value=112, time=20),
    Message('control_change', channel=4, control=7, value=113, time=18),
    Message('note_off', channel=4, note=64, velocity=0, time=548),
    Message('note_off', channel=4, note=60, velocity=0, time=24),
    Message('control_change', channel=4, control=7, value=105, time=62),
    Message('control_change', channel=4, control=7, value=96, time=52),
    Message('control_change', channel=4, control=7, value=89, time=20),
    Message('control_change', channel=4, control=7, value=82, time=20),
    Message('control_change', channel=4, control=7, value=76, time=10),
    Message('control_change', channel=4, control=7, value=69, time=20),
    Message('control_change', channel=4, control=7, value=63, time=20),
    Message('note_on', channel=4, note=55, velocity=62, time=18),
    Message('note_on', channel=4, note=58, velocity=80, time=0),
    Message('control_change', channel=4, control=7, value=67, time=2),
    Message('control_change', channel=4, control=7, value=74, time=18),
    Message('control_change', channel=4, control=7, value=80, time=20),
    Message('control_change', channel=4, control=7, value=87, time=20),
    Message('control_change', channel=4, control=7, value=96, time=180),
    Message('control_change', channel=4, control=7, value=103, time=10),
    Message('control_change', channel=4, control=7, value=113, time=20),
    Message('control_change', channel=4, control=7, value=110, time=20),
    Message('control_change', channel=4, control=7, value=103, time=20),
    Message('control_change', channel=4, control=7, value=96, time=20),
    Message('note_off', channel=4, note=55, velocity=0, time=48),
    Message('note_off', channel=4, note=58, velocity=0, time=12),
    Message('control_change', channel=4, control=7, value=89, time=30),
    Message('control_change', channel=4, control=7, value=81, time=10),
    Message('control_change', channel=4, control=7, value=74, time=22),
    Message('control_change', channel=4, control=7, value=68, time=24),
    Message('note_on', channel=4, note=53, velocity=62, time=4),
    Message('note_on', channel=4, note=57, velocity=62, time=0),
    Message('control_change', channel=4, control=7, value=71, time=12),
    Message('control_change', channel=4, control=7, value=75, time=18),
    Message('control_change', channel=4, control=7, value=78, time=16),
    Message('control_change', channel=4, control=7, value=82, time=20),
    Message('control_change', channel=4, control=7, value=87, time=20),
    Message('control_change', channel=4, control=7, value=90, time=10),
    Message('control_change', channel=4, control=7, value=91, time=20),
    Message('control_change', channel=4, control=7, value=94, time=20),
    Message('control_change', channel=4, control=7, value=97, time=20),
    Message('control_change', channel=4, control=7, value=101, time=14),
    Message('control_change', channel=4, control=7, value=104, time=20),
    Message('control_change', channel=4, control=7, value=105, time=20),
    Message('control_change', channel=4, control=7, value=106, time=20),
    Message('control_change', channel=4, control=7, value=103, time=50),
    Message('control_change', channel=4, control=7, value=85, time=20),
    Message('control_change', channel=4, control=7, value=78, time=20),
    Message('control_change', channel=4, control=7, value=61, time=20),
    Message('control_change', channel=4, control=7, value=56, time=10),
    Message('note_off', channel=4, note=53, velocity=0, time=20),
    Message('control_change', channel=4, control=7, value=52, time=0),
    Message('note_off', channel=4, note=57, velocity=0, time=36),
    Message('control_change', channel=4, control=7, value=59, time=40),
    Message('note_on', channel=4, note=58, velocity=45, time=34),
    Message('note_on', channel=4, note=62, velocity=53, time=0),
    Message('control_change', channel=4, control=7, value=67, time=2),
    Message('control_change', channel=4, control=7, value=75, time=20),
    Message('control_change', channel=4, control=7, value=85, time=18),
    Message('control_change', channel=4, control=7, value=92, time=14),
    Message('control_change', channel=4, control=7, value=99, time=20),
    Message('control_change', channel=4, control=7, value=105, time=20),
    Message('control_change', channel=4, control=7, value=111, time=10),
    Message('control_change', channel=4, control=7, value=113, time=20),
    Message('note_off', channel=4, note=58, velocity=0, time=184),
    Message('control_change', channel=4, control=7, value=109, time=0),
    Message('control_change', channel=4, control=7, value=99, time=20),
    Message('note_off', channel=4, note=62, velocity=0, time=8),
    Message('control_change', channel=4, control=7, value=90, time=10),
    Message('control_change', channel=4, control=7, value=82, time=10),
    Message('control_change', channel=4, control=7, value=75, time=60),
    Message('control_change', channel=4, control=7, value=69, time=20),
    Message('control_change', channel=4, control=7, value=63, time=20),
    Message('note_on', channel=4, note=60, velocity=53, time=24),
    Message('note_on', channel=4, note=64, velocity=49, time=4),
    Message('control_change', channel=4, control=7, value=67, time=12),
    Message('control_change', channel=4, control=7, value=73, time=14),
    Message('control_change', channel=4, control=7, value=80, time=20),
    Message('control_change', channel=4, control=7, value=91, time=20),
    Message('control_change', channel=4, control=7, value=101, time=10),
    Message('control_change', channel=4, control=7, value=103, time=160),
    Message('control_change', channel=4, control=7, value=98, time=40),
    Message('control_change', channel=4, control=7, value=86, time=20),
    Message('control_change', channel=4, control=7, value=74, time=140),
    Message('note_off', channel=4, note=64, velocity=0, time=24),
    Message('control_change', channel=4, control=7, value=63, time=2),
    Message('note_off', channel=4, note=60, velocity=0, time=14),
    Message('note_on', channel=4, note=65, velocity=53, time=0),
    Message('note_on', channel=4, note=62, velocity=53, time=6),
    Message('control_change', channel=4, control=7, value=56, time=18),
    Message('control_change', channel=4, control=7, value=61, time=16),
    Message('control_change', channel=4, control=7, value=66, time=10),
    Message('control_change', channel=4, control=7, value=75, time=20),
    Message('control_change', channel=4, control=7, value=83, time=20),
    Message('control_change', channel=4, control=7, value=88, time=20),
    Message('control_change', channel=4, control=7, value=96, time=20),
    Message('control_change', channel=4, control=7, value=103, time=20),
    Message('control_change', channel=4, control=7, value=110, time=10),
    Message('control_change', channel=4, control=7, value=113, time=20),
    Message('control_change', channel=4, control=7, value=99, time=20),
    Message('control_change', channel=4, control=7, value=92, time=20),
    Message('control_change', channel=4, control=7, value=86, time=20),
    Message('control_change', channel=4, control=7, value=74, time=10),
    Message('control_change', channel=4, control=7, value=63, time=20),
    Message('note_off', channel=4, note=65, velocity=0, time=194),
    Message('note_off', channel=4, note=62, velocity=0, time=6),
    Message('note_on', channel=4, note=64, velocity=62, time=10),
    Message('note_on', channel=4, note=60, velocity=62, time=0),
    Message('control_change', channel=4, control=7, value=67, time=190),
    Message('control_change', channel=4, control=7, value=70, time=20),
    Message('control_change', channel=4, control=7, value=75, time=140),
    Message('note_off', channel=4, note=60, velocity=0, time=10),
    Message('note_off', channel=4, note=64, velocity=0, time=0),
    Message('control_change', channel=4, control=7, value=81, time=10),
    Message('control_change', channel=4, control=7, value=96, time=20),
    Message('control_change', channel=4, control=7, value=105, time=20),
    Message('control_change', channel=4, control=7, value=100, time=40),
    Message('control_change', channel=4, control=7, value=89, time=10),
    Message('control_change', channel=4, control=7, value=70, time=22),
    Message('note_on', channel=4, note=62, velocity=62, time=6),
    Message('note_on', channel=4, note=58, velocity=62, time=4),
    Message('control_change', channel=4, control=7, value=66, time=168),
    Message('control_change', channel=4, control=7, value=73, time=20),
    Message('control_change', channel=4, control=7, value=80, time=20),
    Message('control_change', channel=4, control=7, value=86, time=10),
    Message('control_change', channel=4, control=7, value=95, time=20),
    Message('control_change', channel=4, control=7, value=100, time=62),
    Message('control_change', channel=4, control=7, value=106, time=14),
    Message('control_change', channel=4, control=7, value=110, time=20),
    Message('control_change', channel=4, control=7, value=113, time=20),
    Message('note_off', channel=4, note=58, velocity=0, time=28),
    Message('control_change', channel=4, control=7, value=103, time=26),
    Message('control_change', channel=4, control=7, value=89, time=20),
    Message('note_off', channel=4, note=62, velocity=0, time=6),
    Message('control_change', channel=4, control=7, value=76, time=10),
    Message('control_change', channel=4, control=7, value=66, time=20),
    Message('note_on', channel=4, note=64, velocity=62, time=4),
    Message('note_on', channel=4, note=60, velocity=62, time=0),
    Message('control_change', channel=4, control=7, value=75, time=16),
    Message('control_change', channel=4, control=7, value=83, time=14),
    Message('control_change', channel=4, control=7, value=93, time=20),
    Message('control_change', channel=4, control=7, value=99, time=10),
    Message('control_change', channel=4, control=7, value=103, time=20),
    Message('control_change', channel=4, control=7, value=107, time=130),
    Message('control_change', channel=4, control=7, value=113, time=20),
    Message('note_off', channel=4, note=64, velocity=0, time=134),
    Message('note_off', channel=4, note=60, velocity=0, time=36),
    Message('control_change', channel=4, control=7, value=101, time=30),
    Message('control_change', channel=4, control=7, value=97, time=10),
    Message('control_change', channel=4, control=7, value=82, time=18),
    Message('control_change', channel=4, control=7, value=91, time=212),
    Message('control_change', channel=4, control=7, value=97, time=20),
    Message('control_change', channel=4, control=7, value=101, time=10),
    Message('control_change', channel=4, control=7, value=88, time=20),
    Message('control_change', channel=4, control=7, value=86, time=20),
    Message('control_change', channel=4, control=7, value=88, time=20),
    Message('control_change', channel=4, control=7, value=89, time=20),
    Message('control_change', channel=4, control=7, value=59, time=20),
    Message('control_change', channel=4, control=7, value=42, time=10),
    Message('control_change', channel=4, control=7, value=41, time=20),
    Message('control_change', channel=4, control=7, value=42, time=56),
    Message('control_change', channel=4, control=7, value=49, time=20),
    Message('control_change', channel=4, control=7, value=66, time=14),
    Message('control_change', channel=4, control=7, value=84, time=20),
    Message('control_change', channel=4, control=7, value=90, time=22),
    Message('control_change', channel=4, control=7, value=96, time=12),
    Message('note_on', channel=4, note=65, velocity=80, time=0),
    Message('note_on', channel=4, note=60, velocity=71, time=0),
    Message('control_change', channel=4, control=7, value=103, time=16),
    Message('control_change', channel=4, control=7, value=110, time=20),
    Message('control_change', channel=4, control=7, value=115, time=20),
    Message('control_change', channel=4, control=7, value=117, time=20),
    Message('control_change', channel=4, control=7, value=122, time=20),
    Message('control_change', channel=4, control=7, value=127, time=20),
    Message('control_change', channel=4, control=7, value=124, time=250),
    Message('control_change', channel=4, control=7, value=120, time=20),
    Message('control_change', channel=4, control=7, value=103, time=20),
    Message('control_change', channel=4, control=7, value=96, time=10),
    Message('control_change', channel=4, control=7, value=92, time=20),
    Message('control_change', channel=4, control=7, value=90, time=20),
    Message('control_change', channel=4, control=7, value=89, time=12),
    Message('note_off', channel=4, note=60, velocity=0, time=10),
    Message('control_change', channel=4, control=7, value=88, time=10),
    Message('note_off', channel=4, note=65, velocity=0, time=22),
    Message('control_change', channel=4, control=7, value=85, time=0),
    Message('control_change', channel=4, control=7, value=80, time=20),
    Message('control_change', channel=4, control=7, value=75, time=20),
    Message('control_change', channel=4, control=7, value=68, time=10),
    Message('control_change', channel=4, control=7, value=63, time=20),
    Message('control_change', channel=4, control=7, value=57, time=20),
    Message('control_change', channel=4, control=7, value=54, time=16),
    Message('control_change', channel=4, control=7, value=57, time=236),
    Message('control_change', channel=4, control=7, value=63, time=20),
    Message('control_change', channel=4, control=7, value=68, time=20),
    Message('control_change', channel=4, control=7, value=70, time=20),
    Message('control_change', channel=4, control=7, value=73, time=36),
    Message('note_on', channel=4, note=63, velocity=80, time=8),
    Message('note_on', channel=4, note=58, velocity=80, time=4),
    Message('control_change', channel=4, control=7, value=78, time=6),
    Message('control_change', channel=4, control=7, value=85, time=10),
    Message('control_change', channel=4, control=7, value=92, time=20),
    Message('control_change', channel=4, control=7, value=97, time=20),
    Message('control_change', channel=4, control=7, value=101, time=20),
    Message('control_change', channel=4, control=7, value=103, time=20),
    Message('control_change', channel=4, control=7, value=106, time=10),
    Message('control_change', channel=4, control=7, value=108, time=20),
    Message('control_change', channel=4, control=7, value=110, time=20),
    Message('control_change', channel=4, control=7, value=111, time=40),
    Message('control_change', channel=4, control=7, value=115, time=10),
    Message('control_change', channel=4, control=7, value=120, time=20),
    Message('control_change', channel=4, control=7, value=115, time=180),
    Message('control_change', channel=4, control=7, value=110, time=20),
    Message('control_change', channel=4, control=7, value=104, time=20),
    Message('control_change', channel=4, control=7, value=103, time=20),
    Message('control_change', channel=4, control=7, value=97, time=22),
    Message('control_change', channel=4, control=7, value=94, time=18),
    Message('note_off', channel=4, note=63, velocity=0, time=18),
    Message('control_change', channel=4, control=7, value=90, time=0),
    Message('control_change', channel=4, control=7, value=87, time=10),
    Message('note_off', channel=4, note=58, velocity=0, time=10),
    Message('control_change', channel=4, control=7, value=82, time=10),
    Message('control_change', channel=4, control=7, value=77, time=20),
    Message('control_change', channel=4, control=7, value=59, time=20),
    Message('control_change', channel=4, control=7, value=56, time=22),
    Message('control_change', channel=4, control=7, value=61, time=320),
    Message('control_change', channel=4, control=7, value=68, time=22),
    Message('control_change', channel=4, control=7, value=73, time=18),
    Message('note_on', channel=4, note=58, velocity=80, time=0),
    Message('note_on', channel=4, note=62, velocity=80, time=4),
    Message('control_change', channel=4, control=7, value=78, time=16),
    Message('control_change', channel=4, control=7, value=82, time=10),
    Message('control_change', channel=4, control=7, value=84, time=20),
    Message('control_change', channel=4, control=7, value=87, time=20),
    Message('control_change', channel=4, control=7, value=92, time=20),
    Message('control_change', channel=4, control=7, value=97, time=20),
    Message('control_change', channel=4, control=7, value=103, time=10),
    Message('control_change', channel=4, control=7, value=106, time=20),
    Message('control_change', channel=4, control=7, value=108, time=20),
    Message('control_change', channel=4, control=7, value=110, time=20),
    Message('control_change', channel=4, control=7, value=113, time=20),
    Message('control_change', channel=4, control=7, value=115, time=10),
    Message('control_change', channel=4, control=7, value=117, time=20),
    Message('control_change', channel=4, control=7, value=118, time=20),
    Message('note_off', channel=4, note=58, velocity=0, time=126),
    Message('note_off', channel=4, note=62, velocity=0, time=12),
    Message('control_change', channel=4, control=7, value=113, time=62),
    Message('note_on', channel=4, note=69, velocity=89, time=10),
    Message('control_change', channel=4, control=7, value=110, time=2),
    Message('control_change', channel=4, control=7, value=104, time=28),
    Message('control_change', channel=4, control=7, value=99, time=10),
    Message('control_change', channel=4, control=7, value=94, time=20),
    Message('control_change', channel=4, control=7, value=92, time=20),
    Message('control_change', channel=4, control=7, value=90, time=40),
    Message('control_change', channel=4, control=7, value=87, time=50),
    Message('control_change', channel=4, control=7, value=85, time=20),
    Message('control_change', channel=4, control=7, value=84, time=20),
    Message('control_change', channel=4, control=7, value=83, time=10),
    Message('note_off', channel=4, note=69, velocity=0, time=20),
    Message('note_on', channel=4, note=67, velocity=53, time=10),
    Message('note_on', channel=4, note=67, velocity=0, time=104),
    Message('control_change', channel=4, control=7, value=89, time=0),
    Message('control_change', channel=4, control=7, value=94, time=20),
    Message('control_change', channel=4, control=7, value=101, time=10),
    Message('note_on', channel=4, note=65, velocity=80, time=18),
    Message('control_change', channel=4, control=7, value=104, time=6),
    Message('control_change', channel=4, control=7, value=105, time=10),
    Message('control_change', channel=4, control=7, value=106, time=22),
    Message('control_change', channel=4, control=7, value=110, time=20),
    Message('note_off', channel=4, note=65, velocity=0, time=18),
    Message('note_on', channel=4, note=67, velocity=37, time=2),
    Message('control_change', channel=4, control=7, value=111, time=2),
    Message('control_change', channel=4, control=7, value=112, time=98),
    Message('control_change', channel=4, control=7, value=113, time=20),
    Message('note_on', channel=4, note=65, velocity=80, time=44),
    Message('note_on', channel=4, note=67, velocity=0, time=30),
    Message('note_on', channel=4, note=62, velocity=71, time=46),
    Message('control_change', channel=4, control=7, value=115, time=10),
    Message('note_off', channel=4, note=65, velocity=0, time=16),
    Message('control_change', channel=4, control=7, value=118, time=4),
    Message('control_change', channel=4, control=7, value=124, time=20),
    Message('control_change', channel=4, control=7, value=125, time=20),
    Message('control_change', channel=4, control=7, value=126, time=10),
    Message('note_off', channel=4, note=62, velocity=0, time=22),
    Message('control_change', channel=4, control=7, value=127, time=0),
    Message('note_on', channel=4, note=65, velocity=80, time=50),
    Message('note_on', channel=4, note=65, velocity=0, time=180),
    Message('control_change', channel=4, control=7, value=47, time=13656),
    Message('note_on', channel=4, note=53, velocity=89, time=1612),
    Message('note_on', channel=4, note=58, velocity=89, time=0),
    Message('control_change', channel=4, control=7, value=49, time=2),
    Message('control_change', channel=4, control=7, value=70, time=20),
    Message('control_change', channel=4, control=7, value=75, time=18),
    Message('control_change', channel=4, control=7, value=77, time=20),
    Message('control_change', channel=4, control=7, value=91, time=50),
    Message('control_change', channel=4, control=7, value=98, time=20),
    Message('control_change', channel=4, control=7, value=101, time=20),
    Message('control_change', channel=4, control=7, value=109, time=20),
    Message('control_change', channel=4, control=7, value=101, time=10),
    Message('control_change', channel=4, control=7, value=108, time=20),
    Message('control_change', channel=4, control=7, value=113, time=20),
    Message('control_change', channel=4, control=7, value=115, time=20),
    Message('control_change', channel=4, control=7, value=118, time=20),
    Message('control_change', channel=4, control=7, value=122, time=10),
    Message('control_change', channel=4, control=7, value=125, time=20),
    Message('control_change', channel=4, control=7, value=126, time=20),
    Message('control_change', channel=4, control=7, value=125, time=160),
    Message('control_change', channel=4, control=7, value=118, time=22),
    Message('control_change', channel=4, control=7, value=101, time=18),
    Message('control_change', channel=4, control=7, value=96, time=20),
    Message('control_change', channel=4, control=7, value=95, time=10),
    Message('control_change', channel=4, control=7, value=94, time=40),
    Message('control_change', channel=4, control=7, value=89, time=20),
    Message('control_change', channel=4, control=7, value=64, time=350),
    Message('note_off', channel=4, note=58, velocity=0, time=10),
    Message('note_off', channel=4, note=53, velocity=0, time=0),
    Message('note_on', channel=4, note=55, velocity=89, time=0),
    Message('note_on', channel=4, note=60, velocity=89, time=0),
    Message('control_change', channel=4, control=7, value=68, time=2),
    Message('control_change', channel=4, control=7, value=70, time=20),
    Message('control_change', channel=4, control=7, value=71, time=18),
    Message('control_change', channel=4, control=7, value=75, time=20),
    Message('control_change', channel=4, control=7, value=81, time=20),
    Message('control_change', channel=4, control=7, value=89, time=10),
    Message('control_change', channel=4, control=7, value=93, time=40),
    Message('control_change', channel=4, control=7, value=99, time=20),
    Message('control_change', channel=4, control=7, value=104, time=20),
    Message('control_change', channel=4, control=7, value=106, time=10),
    Message('control_change', channel=4, control=7, value=104, time=20),
    Message('control_change', channel=4, control=7, value=110, time=10),
    Message('control_change', channel=4, control=7, value=111, time=20),
    Message('control_change', channel=4, control=7, value=112, time=20),
    Message('control_change', channel=4, control=7, value=113, time=20),
    Message('control_change', channel=4, control=7, value=115, time=20),
    Message('control_change', channel=4, control=7, value=117, time=30),
    Message('control_change', channel=4, control=7, value=118, time=20),
    Message('control_change', channel=4, control=7, value=122, time=90),
    Message('control_change', channel=4, control=7, value=124, time=40),
    Message('control_change', channel=4, control=7, value=118, time=90),
    Message('control_change', channel=4, control=7, value=113, time=20),
    Message('control_change', channel=4, control=7, value=106, time=10),
    Message('control_change', channel=4, control=7, value=101, time=20),
    Message('control_change', channel=4, control=7, value=99, time=20),
    Message('control_change', channel=4, control=7, value=97, time=20),
    Message('control_change', channel=4, control=7, value=96, time=10),
    Message('control_change', channel=4, control=7, value=92, time=20),
    Message('control_change', channel=4, control=7, value=90, time=20),
    Message('control_change', channel=4, control=7, value=69, time=140),
    Message('note_off', channel=4, note=60, velocity=0, time=120),
    Message('note_off', channel=4, note=55, velocity=0, time=0),
    Message('note_on', channel=4, note=58, velocity=89, time=0),
    Message('note_on', channel=4, note=62, velocity=89, time=0),
    Message('control_change', channel=4, control=7, value=76, time=12),
    Message('control_change', channel=4, control=7, value=91, time=18),
    Message('control_change', channel=4, control=7, value=98, time=60),
    Message('control_change', channel=4, control=7, value=111, time=10),
    Message('control_change', channel=4, control=7, value=115, time=20),
    Message('control_change', channel=4, control=7, value=118, time=20),
    Message('control_change', channel=4, control=7, value=119, time=20),
    Message('control_change', channel=4, control=7, value=122, time=20),
    Message('control_change', channel=4, control=7, value=124, time=20),
    Message('control_change', channel=4, control=7, value=125, time=30),
    Message('control_change', channel=4, control=7, value=126, time=20),
    Message('control_change', channel=4, control=7, value=127, time=20),
    Message('control_change', channel=4, control=7, value=110, time=270),
    Message('control_change', channel=4, control=7, value=92, time=20),
    Message('control_change', channel=4, control=7, value=63, time=390),
    Message('note_off', channel=4, note=62, velocity=0, time=10),
    Message('note_off', channel=4, note=58, velocity=0, time=0),
    Message('note_on', channel=4, note=60, velocity=89, time=0),
    Message('note_on', channel=4, note=64, velocity=89, time=0),
    Message('control_change', channel=4, control=7, value=66, time=12),
    Message('control_change', channel=4, control=7, value=74, time=18),
    Message('control_change', channel=4, control=7, value=86, time=20),
    Message('control_change', channel=4, control=7, value=100, time=20),
    Message('control_change', channel=4, control=7, value=117, time=20),
    Message('control_change', channel=4, control=7, value=118, time=10),
    Message('control_change', channel=4, control=7, value=122, time=20),
    Message('control_change', channel=4, control=7, value=125, time=30),
    Message('control_change', channel=4, control=7, value=126, time=10),
    Message('control_change', channel=4, control=7, value=127, time=20),
    Message('control_change', channel=4, control=7, value=125, time=330),
    Message('control_change', channel=4, control=7, value=120, time=10),
    Message('control_change', channel=4, control=7, value=115, time=20),
    Message('control_change', channel=4, control=7, value=110, time=20),
    Message('control_change', channel=4, control=7, value=106, time=10),
    Message('control_change', channel=4, control=7, value=103, time=20),
    Message('control_change', channel=4, control=7, value=99, time=20),
    Message('control_change', channel=4, control=7, value=94, time=20),
    Message('control_change', channel=4, control=7, value=90, time=20),
    Message('control_change', channel=4, control=7, value=89, time=20),
    Message('control_change', channel=4, control=7, value=88, time=10),
    Message('control_change', channel=4, control=7, value=85, time=20),
    Message('control_change', channel=4, control=7, value=82, time=20),
    Message('control_change', channel=4, control=7, value=78, time=20),
    Message('control_change', channel=4, control=7, value=77, time=20),
    Message('control_change', channel=4, control=7, value=76, time=10),
    Message('control_change', channel=4, control=7, value=75, time=20),
    Message('control_change', channel=4, control=7, value=74, time=20),
    Message('control_change', channel=4, control=7, value=73, time=20),
    Message('control_change', channel=4, control=7, value=70, time=20),
    Message('control_change', channel=4, control=7, value=66, time=20),
    Message('control_change', channel=4, control=7, value=64, time=10),
    Message('note_off', channel=4, note=64, velocity=0, time=80),
    Message('note_off', channel=4, note=60, velocity=0, time=0),
    Message('note_on', channel=4, note=65, velocity=80, time=8),
    Message('note_on', channel=4, note=60, velocity=71, time=2),
    Message('control_change', channel=4, control=7, value=72, time=10),
    Message('control_change', channel=4, control=7, value=85, time=134),
    Message('control_change', channel=4, control=7, value=92, time=6),
    Message('control_change', channel=4, control=7, value=99, time=20),
    Message('control_change', channel=4, control=7, value=104, time=20),
    Message('control_change', channel=4, control=7, value=95, time=634),
    Message('control_change', channel=4, control=7, value=82, time=20),
    Message('control_change', channel=4, control=7, value=79, time=10),
    Message('control_change', channel=4, control=7, value=75, time=26),
    Message('note_off', channel=4, note=60, velocity=0, time=16),
    Message('note_off', channel=4, note=65, velocity=0, time=16),
    Message('note_on', channel=4, note=60, velocity=62, time=38),
    Message('note_on', channel=4, note=64, velocity=71, time=0),
    Message('control_change', channel=4, control=7, value=77, time=2),
    Message('control_change', channel=4, control=7, value=82, time=16),
    Message('control_change', channel=4, control=7, value=90, time=22),
    Message('control_change', channel=4, control=7, value=94, time=20),
    Message('control_change', channel=4, control=7, value=97, time=10),
    Message('control_change', channel=4, control=7, value=103, time=20),
    Message('control_change', channel=4, control=7, value=106, time=20),
    Message('control_change', channel=4, control=7, value=108, time=60),
    Message('control_change', channel=4, control=7, value=110, time=10),
    Message('note_off', channel=4, note=60, velocity=0, time=436),
    Message('control_change', channel=4, control=7, value=101, time=144),
    Message('control_change', channel=4, control=7, value=96, time=20),
    Message('control_change', channel=4, control=7, value=90, time=20),
    Message('control_change', channel=4, control=7, value=83, time=50),
    Message('note_off', channel=4, note=64, velocity=0, time=24),
    Message('control_change', channel=4, control=7, value=81, time=0),
    Message('control_change', channel=4, control=7, value=75, time=10),
    Message('control_change', channel=4, control=7, value=65, time=20),
    Message('note_on', channel=4, note=62, velocity=62, time=70),
    Message('note_on', channel=4, note=58, velocity=62, time=6),
    Message('control_change', channel=4, control=7, value=75, time=20),
    Message('control_change', channel=4, control=7, value=87, time=18),
    Message('control_change', channel=4, control=7, value=95, time=64),
    Message('control_change', channel=4, control=7, value=100, time=20),
    Message('control_change', channel=4, control=7, value=106, time=238),
    Message('control_change', channel=4, control=7, value=110, time=20),
    Message('control_change', channel=4, control=7, value=100, time=310),
    Message('control_change', channel=4, control=7, value=95, time=10),
    Message('note_off', channel=4, note=58, velocity=0, time=136),
    Message('control_change', channel=4, control=7, value=90, time=18),
    Message('control_change', channel=4, control=7, value=83, time=10),
    Message('note_off', channel=4, note=62, velocity=0, time=16),
    Message('control_change', channel=4, control=7, value=77, time=4),
    Message('control_change', channel=4, control=7, value=69, time=20),
    Message('control_change', channel=4, control=7, value=63, time=16),
    Message('control_change', channel=4, control=7, value=59, time=40),
    Message('note_on', channel=4, note=64, velocity=71, time=0),
    Message('note_on', channel=4, note=60, velocity=71, time=4),
    Message('control_change', channel=4, control=7, value=70, time=16),
    Message('control_change', channel=4, control=7, value=87, time=10),
    Message('control_change', channel=4, control=7, value=92, time=30),
    Message('control_change', channel=4, control=7, value=93, time=10),
    Message('control_change', channel=4, control=7, value=96, time=34),
    Message('control_change', channel=4, control=7, value=103, time=20),
    Message('control_change', channel=4, control=7, value=108, time=26),
    Message('control_change', channel=4, control=7, value=111, time=20),
    Message('control_change', channel=4, control=7, value=112, time=10),
    Message('control_change', channel=4, control=7, value=113, time=90),
    Message('note_off', channel=4, note=64, velocity=0, time=498),
    Message('control_change', channel=4, control=7, value=105, time=30),
    Message('control_change', channel=4, control=7, value=98, time=20),
    Message('control_change', channel=4, control=7, value=91, time=20),
    Message('note_off', channel=4, note=60, velocity=0, time=16),
    Message('control_change', channel=4, control=7, value=85, time=2),
    Message('control_change', channel=4, control=7, value=78, time=14),
    Message('control_change', channel=4, control=7, value=72, time=20),
    Message('control_change', channel=4, control=7, value=65, time=10),
    Message('note_on', channel=4, note=65, velocity=62, time=60),
    Message('note_on', channel=4, note=60, velocity=62, time=4),
    Message('control_change', channel=4, control=7, value=68, time=12),
    Message('control_change', channel=4, control=7, value=74, time=22),
    Message('control_change', channel=4, control=7, value=81, time=18),
    Message('control_change', channel=4, control=7, value=89, time=18),
    Message('control_change', channel=4, control=7, value=97, time=10),
    Message('control_change', channel=4, control=7, value=102, time=20),
    Message('control_change', channel=4, control=7, value=110, time=20),
    Message('control_change', channel=4, control=7, value=111, time=36),
    Message('control_change', channel=4, control=7, value=112, time=20),
    Message('control_change', channel=4, control=7, value=113, time=20),
    Message('control_change', channel=4, control=7, value=107, time=540),
    Message('control_change', channel=4, control=7, value=98, time=20),
    Message('control_change', channel=4, control=7, value=91, time=70),
    Message('note_off', channel=4, note=60, velocity=0, time=12),
    Message('note_off', channel=4, note=65, velocity=0, time=2),
    Message('control_change', channel=4, control=7, value=85, time=10),
    Message('control_change', channel=4, control=7, value=79, time=16),
    Message('control_change', channel=4, control=7, value=68, time=20),
    Message('note_on', channel=4, note=64, velocity=62, time=60),
    Message('note_on', channel=4, note=60, velocity=62, time=2),
    Message('control_change', channel=4, control=7, value=75, time=10),
    Message('control_change', channel=4, control=7, value=87, time=18),
    Message('control_change', channel=4, control=7, value=89, time=34),
    Message('control_change', channel=4, control=7, value=92, time=20),
    Message('control_change', channel=4, control=7, value=96, time=10),
    Message('control_change', channel=4, control=7, value=101, time=26),
    Message('control_change', channel=4, control=7, value=104, time=20),
    Message('control_change', channel=4, control=7, value=105, time=30),
    Message('control_change', channel=4, control=7, value=106, time=20),
    Message('control_change', channel=4, control=7, value=110, time=20),
    Message('control_change', channel=4, control=7, value=111, time=20),
    Message('control_change', channel=4, control=7, value=112, time=10),
    Message('control_change', channel=4, control=7, value=113, time=20),
    Message('control_change', channel=4, control=7, value=105, time=510),
    Message('control_change', channel=4, control=7, value=97, time=20),
    Message('control_change', channel=4, control=7, value=90, time=20),
    Message('control_change', channel=4, control=7, value=83, time=20),
    Message('note_off', channel=4, note=60, velocity=0, time=16),
    Message('note_off', channel=4, note=64, velocity=0, time=14),
    Message('control_change', channel=4, control=7, value=75, time=0),
    Message('control_change', channel=4, control=7, value=64, time=20),
    Message('control_change', channel=4, control=7, value=62, time=14),
    Message('note_on', channel=4, note=62, velocity=71, time=56),
    Message('note_on', channel=4, note=65, velocity=45, time=0),
    Message('control_change', channel=4, control=7, value=67, time=2),
    Message('control_change', channel=4, control=7, value=77, time=20),
    Message('control_change', channel=4, control=7, value=86, time=18),
    Message('control_change', channel=4, control=7, value=92, time=10),
    Message('control_change', channel=4, control=7, value=97, time=20),
    Message('control_change', channel=4, control=7, value=110, time=20),
    Message('control_change', channel=4, control=7, value=111, time=20),
    Message('control_change', channel=4, control=7, value=113, time=50),
    Message('control_change', channel=4, control=7, value=104, time=220),
    Message('control_change', channel=4, control=7, value=97, time=20),
    Message('control_change', channel=4, control=7, value=90, time=10),
    Message('control_change', channel=4, control=7, value=83, time=20),
    Message('control_change', channel=4, control=7, value=72, time=20),
    Message('control_change', channel=4, control=7, value=62, time=24),
    Message('note_off', channel=4, note=65, velocity=0, time=6),
    Message('note_off', channel=4, note=62, velocity=0, time=0),
    Message('note_on', channel=4, note=64, velocity=71, time=0),
    Message('note_on', channel=4, note=60, velocity=71, time=4),
    Message('control_change', channel=4, control=7, value=66, time=26),
    Message('control_change', channel=4, control=7, value=75, time=20),
    Message('control_change', channel=4, control=7, value=84, time=10),
    Message('control_change', channel=4, control=7, value=90, time=20),
    Message('control_change', channel=4, control=7, value=94, time=20),
    Message('control_change', channel=4, control=7, value=99, time=20),
    Message('control_change', channel=4, control=7, value=103, time=20),
    Message('control_change', channel=4, control=7, value=107, time=20),
    Message('control_change', channel=4, control=7, value=110, time=10),
    Message('control_change', channel=4, control=7, value=112, time=20),
    Message('control_change', channel=4, control=7, value=93, time=150),
    Message('control_change', channel=4, control=7, value=73, time=10),
    Message('control_change', channel=4, control=7, value=54, time=20),
    Message('note_off', channel=4, note=64, velocity=0, time=110),
    Message('note_off', channel=4, note=60, velocity=0, time=4),
    Message('note_on', channel=4, note=62, velocity=62, time=2),
    Message('note_on', channel=4, note=58, velocity=62, time=2),
    Message('control_change', channel=4, control=7, value=64, time=46),
    Message('control_change', channel=4, control=7, value=77, time=20),
    Message('control_change', channel=4, control=7, value=87, time=20),
    Message('control_change', channel=4, control=7, value=95, time=66),
    Message('control_change', channel=4, control=7, value=101, time=20),
    Message('control_change', channel=4, control=7, value=107, time=20),
    Message('control_change', channel=4, control=7, value=112, time=20),
    Message('control_change', channel=4, control=7, value=120, time=86),
    Message('control_change', channel=4, control=7, value=117, time=72),
    Message('control_change', channel=4, control=7, value=99, time=20),
    Message('control_change', channel=4, control=7, value=82, time=18),
    Message('note_off', channel=4, note=62, velocity=0, time=20),
    Message('control_change', channel=4, control=7, value=75, time=10),
    Message('note_off', channel=4, note=58, velocity=0, time=2),
    Message('control_change', channel=4, control=7, value=67, time=10),
    Message('note_on', channel=4, note=64, velocity=71, time=30),
    Message('note_on', channel=4, note=60, velocity=62, time=4),
    Message('control_change', channel=4, control=7, value=74, time=88),
    Message('control_change', channel=4, control=7, value=81, time=20),
    Message('control_change', channel=4, control=7, value=86, time=20),
    Message('control_change', channel=4, control=7, value=90, time=20),
    Message('control_change', channel=4, control=7, value=96, time=10),
    Message('control_change', channel=4, control=7, value=99, time=22),
    Message('control_change', channel=4, control=7, value=103, time=20),
    Message('control_change', channel=4, control=7, value=104, time=10),
    Message('control_change', channel=4, control=7, value=108, time=78),
    Message('control_change', channel=4, control=7, value=111, time=24),
    Message('control_change', channel=4, control=7, value=115, time=14),
    Message('note_off', channel=4, note=64, velocity=0, time=30),
    Message('control_change', channel=4, control=7, value=98, time=0),
    Message('note_off', channel=4, note=60, velocity=0, time=62),
    Message('control_change', channel=4, control=7, value=83, time=20),
    Message('control_change', channel=4, control=7, value=68, time=10),
    Message('note_on', channel=4, note=65, velocity=71, time=20),
    Message('note_on', channel=4, note=60, velocity=62, time=0),
    Message('control_change', channel=4, control=7, value=56, time=2),
    Message('control_change', channel=4, control=7, value=70, time=20),
    Message('control_change', channel=4, control=7, value=78, time=68),
    Message('control_change', channel=4, control=7, value=85, time=20),
    Message('control_change', channel=4, control=7, value=92, time=20),
    Message('control_change', channel=4, control=7, value=99, time=20),
    Message('control_change', channel=4, control=7, value=104, time=20),
    Message('control_change', channel=4, control=7, value=110, time=10),
    Message('control_change', channel=4, control=7, value=113, time=20),
    Message('control_change', channel=4, control=7, value=111, time=450),
    Message('control_change', channel=4, control=7, value=96, time=20),
    Message('control_change', channel=4, control=7, value=80, time=20),
    Message('control_change', channel=4, control=7, value=71, time=20),
    Message('control_change', channel=4, control=7, value=63, time=30),
    Message('note_off', channel=4, note=65, velocity=0, time=136),
    Message('note_off', channel=4, note=60, velocity=0, time=16),
    Message('note_on', channel=4, note=60, velocity=62, time=68),
    Message('note_on', channel=4, note=64, velocity=53, time=0),
    Message('control_change', channel=4, control=7, value=64, time=2),
    Message('control_change', channel=4, control=7, value=70, time=16),
    Message('control_change', channel=4, control=7, value=77, time=22),
    Message('control_change', channel=4, control=7, value=85, time=14),
    Message('control_change', channel=4, control=7, value=92, time=20),
    Message('control_change', channel=4, control=7, value=98, time=20),
    Message('control_change', channel=4, control=7, value=102, time=14),
    Message('control_change', channel=4, control=7, value=108, time=20),
    Message('control_change', channel=4, control=7, value=112, time=20),
    Message('control_change', channel=4, control=7, value=113, time=18),
    Message('note_off', channel=4, note=64, velocity=0, time=548),
    Message('note_off', channel=4, note=60, velocity=0, time=24),
    Message('control_change', channel=4, control=7, value=105, time=62),
    Message('control_change', channel=4, control=7, value=96, time=52),
    Message('control_change', channel=4, control=7, value=89, time=20),
    Message('control_change', channel=4, control=7, value=82, time=20),
    Message('control_change', channel=4, control=7, value=76, time=10),
    Message('control_change', channel=4, control=7, value=69, time=20),
    Message('control_change', channel=4, control=7, value=63, time=20),
    Message('note_on', channel=4, note=55, velocity=62, time=18),
    Message('note_on', channel=4, note=58, velocity=80, time=0),
    Message('control_change', channel=4, control=7, value=67, time=2),
    Message('control_change', channel=4, control=7, value=74, time=18),
    Message('control_change', channel=4, control=7, value=80, time=20),
    Message('control_change', channel=4, control=7, value=87, time=20),
    Message('control_change', channel=4, control=7, value=96, time=180),
    Message('control_change', channel=4, control=7, value=103, time=10),
    Message('control_change', channel=4, control=7, value=113, time=20),
    Message('control_change', channel=4, control=7, value=110, time=20),
    Message('control_change', channel=4, control=7, value=103, time=20),
    Message('control_change', channel=4, control=7, value=96, time=20),
    Message('note_off', channel=4, note=55, velocity=0, time=48),
    Message('note_off', channel=4, note=58, velocity=0, time=12),
    Message('control_change', channel=4, control=7, value=89, time=30),
    Message('control_change', channel=4, control=7, value=81, time=10),
    Message('control_change', channel=4, control=7, value=74, time=22),
    Message('control_change', channel=4, control=7, value=68, time=24),
    Message('note_on', channel=4, note=53, velocity=62, time=4),
    Message('note_on', channel=4, note=57, velocity=62, time=0),
    Message('control_change', channel=4, control=7, value=71, time=12),
    Message('control_change', channel=4, control=7, value=75, time=18),
    Message('control_change', channel=4, control=7, value=78, time=16),
    Message('control_change', channel=4, control=7, value=82, time=20),
    Message('control_change', channel=4, control=7, value=87, time=20),
    Message('control_change', channel=4, control=7, value=90, time=10),
    Message('control_change', channel=4, control=7, value=91, time=20),
    Message('control_change', channel=4, control=7, value=94, time=20),
    Message('control_change', channel=4, control=7, value=97, time=20),
    Message('control_change', channel=4, control=7, value=101, time=14),
    Message('control_change', channel=4, control=7, value=104, time=20),
    Message('control_change', channel=4, control=7, value=105, time=20),
    Message('control_change', channel=4, control=7, value=106, time=20),
    Message('control_change', channel=4, control=7, value=103, time=50),
    Message('control_change', channel=4, control=7, value=85, time=20),
    Message('control_change', channel=4, control=7, value=78, time=20),
    Message('control_change', channel=4, control=7, value=61, time=20),
    Message('control_change', channel=4, control=7, value=56, time=10),
    Message('note_off', channel=4, note=53, velocity=0, time=20),
    Message('control_change', channel=4, control=7, value=52, time=0),
    Message('note_off', channel=4, note=57, velocity=0, time=36),
    Message('control_change', channel=4, control=7, value=59, time=40),
    Message('note_on', channel=4, note=58, velocity=45, time=34),
    Message('note_on', channel=4, note=62, velocity=53, time=0),
    Message('control_change', channel=4, control=7, value=67, time=2),
    Message('control_change', channel=4, control=7, value=75, time=20),
    Message('control_change', channel=4, control=7, value=85, time=18),
    Message('control_change', channel=4, control=7, value=92, time=14),
    Message('control_change', channel=4, control=7, value=99, time=20),
    Message('control_change', channel=4, control=7, value=105, time=20),
    Message('control_change', channel=4, control=7, value=111, time=10),
    Message('control_change', channel=4, control=7, value=113, time=20),
    Message('note_off', channel=4, note=58, velocity=0, time=184),
    Message('control_change', channel=4, control=7, value=109, time=0),
    Message('control_change', channel=4, control=7, value=99, time=20),
    Message('note_off', channel=4, note=62, velocity=0, time=8),
    Message('control_change', channel=4, control=7, value=90, time=10),
    Message('control_change', channel=4, control=7, value=82, time=10),
    Message('control_change', channel=4, control=7, value=75, time=60),
    Message('control_change', channel=4, control=7, value=69, time=20),
    Message('control_change', channel=4, control=7, value=63, time=20),
    Message('note_on', channel=4, note=60, velocity=53, time=24),
    Message('note_on', channel=4, note=64, velocity=49, time=4),
    Message('control_change', channel=4, control=7, value=67, time=12),
    Message('control_change', channel=4, control=7, value=73, time=14),
    Message('control_change', channel=4, control=7, value=80, time=20),
    Message('control_change', channel=4, control=7, value=91, time=20),
    Message('control_change', channel=4, control=7, value=101, time=10),
    Message('control_change', channel=4, control=7, value=103, time=160),
    Message('control_change', channel=4, control=7, value=98, time=40),
    Message('control_change', channel=4, control=7, value=86, time=20),
    Message('control_change', channel=4, control=7, value=74, time=140),
    Message('note_off', channel=4, note=64, velocity=0, time=24),
    Message('control_change', channel=4, control=7, value=63, time=2),
    Message('note_off', channel=4, note=60, velocity=0, time=14),
    Message('note_on', channel=4, note=65, velocity=53, time=0),
    Message('note_on', channel=4, note=62, velocity=53, time=6),
    Message('control_change', channel=4, control=7, value=56, time=18),
    Message('control_change', channel=4, control=7, value=61, time=16),
    Message('control_change', channel=4, control=7, value=66, time=10),
    Message('control_change', channel=4, control=7, value=75, time=20),
    Message('control_change', channel=4, control=7, value=83, time=20),
    Message('control_change', channel=4, control=7, value=88, time=20),
    Message('control_change', channel=4, control=7, value=96, time=20),
    Message('control_change', channel=4, control=7, value=103, time=20),
    Message('control_change', channel=4, control=7, value=110, time=10),
    Message('control_change', channel=4, control=7, value=113, time=20),
    Message('control_change', channel=4, control=7, value=99, time=20),
    Message('control_change', channel=4, control=7, value=92, time=20),
    Message('control_change', channel=4, control=7, value=86, time=20),
    Message('control_change', channel=4, control=7, value=74, time=10),
    Message('control_change', channel=4, control=7, value=63, time=20),
    Message('note_off', channel=4, note=65, velocity=0, time=194),
    Message('note_off', channel=4, note=62, velocity=0, time=6),
    Message('note_on', channel=4, note=64, velocity=62, time=10),
    Message('note_on', channel=4, note=60, velocity=62, time=0),
    Message('control_change', channel=4, control=7, value=67, time=190),
    Message('control_change', channel=4, control=7, value=70, time=20),
    Message('control_change', channel=4, control=7, value=75, time=140),
    Message('note_off', channel=4, note=60, velocity=0, time=10),
    Message('note_off', channel=4, note=64, velocity=0, time=0),
    Message('control_change', channel=4, control=7, value=81, time=10),
    Message('control_change', channel=4, control=7, value=96, time=20),
    Message('control_change', channel=4, control=7, value=105, time=20),
    Message('control_change', channel=4, control=7, value=100, time=40),
    Message('control_change', channel=4, control=7, value=89, time=10),
    Message('control_change', channel=4, control=7, value=70, time=22),
    Message('note_on', channel=4, note=62, velocity=62, time=6),
    Message('note_on', channel=4, note=58, velocity=62, time=4),
    Message('control_change', channel=4, control=7, value=66, time=168),
    Message('control_change', channel=4, control=7, value=73, time=20),
    Message('control_change', channel=4, control=7, value=80, time=20),
    Message('control_change', channel=4, control=7, value=86, time=10),
    Message('control_change', channel=4, control=7, value=95, time=20),
    Message('control_change', channel=4, control=7, value=100, time=62),
    Message('control_change', channel=4, control=7, value=106, time=14),
    Message('control_change', channel=4, control=7, value=110, time=20),
    Message('control_change', channel=4, control=7, value=113, time=20),
    Message('note_off', channel=4, note=58, velocity=0, time=28),
    Message('control_change', channel=4, control=7, value=103, time=26),
    Message('control_change', channel=4, control=7, value=89, time=20),
    Message('note_off', channel=4, note=62, velocity=0, time=6),
    Message('control_change', channel=4, control=7, value=76, time=10),
    Message('control_change', channel=4, control=7, value=66, time=20),
    Message('note_on', channel=4, note=64, velocity=62, time=4),
    Message('note_on', channel=4, note=60, velocity=62, time=0),
    Message('control_change', channel=4, control=7, value=75, time=16),
    Message('control_change', channel=4, control=7, value=83, time=14),
    Message('control_change', channel=4, control=7, value=93, time=20),
    Message('control_change', channel=4, control=7, value=99, time=10),
    Message('control_change', channel=4, control=7, value=103, time=20),
    Message('control_change', channel=4, control=7, value=107, time=130),
    Message('control_change', channel=4, control=7, value=113, time=20),
    Message('note_off', channel=4, note=64, velocity=0, time=134),
    Message('note_off', channel=4, note=60, velocity=0, time=36),
    Message('control_change', channel=4, control=7, value=101, time=30),
    Message('control_change', channel=4, control=7, value=97, time=10),
    Message('control_change', channel=4, control=7, value=82, time=18),
    Message('note_on', channel=4, note=58, velocity=89, time=7702),
    Message('note_on', channel=4, note=62, velocity=89, time=0),
    Message('note_on', channel=4, note=55, velocity=89, time=0),
    Message('note_on', channel=4, note=55, velocity=0, time=1920),
    Message('note_on', channel=4, note=62, velocity=0, time=0),
    Message('note_on', channel=4, note=58, velocity=0, time=0),
    Message('note_on', channel=4, note=65, velocity=89, time=0),
    Message('note_on', channel=4, note=60, velocity=89, time=0),
    Message('note_on', channel=4, note=57, velocity=89, time=0),
    Message('note_on', channel=4, note=57, velocity=0, time=1920),
    Message('note_on', channel=4, note=60, velocity=0, time=0),
    Message('note_on', channel=4, note=65, velocity=0, time=0),
    Message('note_on', channel=4, note=65, velocity=89, time=0),
    Message('note_on', channel=4, note=62, velocity=89, time=0),
    Message('note_on', channel=4, note=58, velocity=89, time=0),
    Message('note_on', channel=4, note=58, velocity=0, time=1920),
    Message('note_on', channel=4, note=62, velocity=0, time=0),
    Message('note_on', channel=4, note=65, velocity=0, time=0),
    Message('note_on', channel=4, note=67, velocity=89, time=0),
    Message('note_on', channel=4, note=64, velocity=89, time=0),
    Message('note_on', channel=4, note=60, velocity=89, time=0),
    Message('note_on', channel=4, note=60, velocity=0, time=1920),
    Message('note_on', channel=4, note=64, velocity=0, time=0),
    Message('note_on', channel=4, note=67, velocity=0, time=0),
    Message('note_on', channel=4, note=60, velocity=89, time=0),
    Message('note_on', channel=4, note=57, velocity=89, time=0),
    Message('note_on', channel=4, note=53, velocity=89, time=0),
    Message('note_on', channel=4, note=53, velocity=0, time=80),
    Message('note_on', channel=4, note=57, velocity=0, time=0),
    Message('note_on', channel=4, note=60, velocity=0, time=0),
    Message('note_on', channel=4, note=57, velocity=89, time=80),
    Message('note_on', channel=4, note=60, velocity=89, time=0),
    Message('note_on', channel=4, note=53, velocity=89, time=0),
    Message('note_on', channel=4, note=53, velocity=0, time=80),
    Message('note_on', channel=4, note=60, velocity=0, time=0),
    Message('note_on', channel=4, note=57, velocity=0, time=0),
    Message('note_on', channel=4, note=67, velocity=89, time=720),
    Message('note_on', channel=4, note=64, velocity=89, time=0),
    Message('note_on', channel=4, note=60, velocity=89, time=0),
    Message('note_on', channel=4, note=60, velocity=0, time=80),
    Message('note_on', channel=4, note=64, velocity=0, time=0),
    Message('note_on', channel=4, note=67, velocity=0, time=0),
    Message('note_on', channel=4, note=64, velocity=89, time=80),
    Message('note_on', channel=4, note=60, velocity=89, time=0),
    Message('note_on', channel=4, note=67, velocity=89, time=0),
    Message('note_on', channel=4, note=67, velocity=0, time=80),
    Message('note_on', channel=4, note=60, velocity=0, time=0),
    Message('note_on', channel=4, note=64, velocity=0, time=0),
    Message('note_on', channel=4, note=65, velocity=89, time=720),
    Message('note_on', channel=4, note=62, velocity=89, time=0),
    Message('note_on', channel=4, note=58, velocity=89, time=0),
    Message('note_on', channel=4, note=58, velocity=0, time=80),
    Message('note_on', channel=4, note=62, velocity=0, time=0),
    Message('note_on', channel=4, note=65, velocity=0, time=0),
    Message('note_on', channel=4, note=58, velocity=89, time=80),
    Message('note_on', channel=4, note=62, velocity=89, time=0),
    Message('note_on', channel=4, note=65, velocity=89, time=0),
    Message('note_on', channel=4, note=65, velocity=0, time=80),
    Message('note_on', channel=4, note=62, velocity=0, time=0),
    Message('note_on', channel=4, note=58, velocity=0, time=0),
    Message('note_on', channel=4, note=67, velocity=89, time=720),
    Message('note_on', channel=4, note=64, velocity=89, time=0),
    Message('note_on', channel=4, note=60, velocity=89, time=0),
    Message('note_on', channel=4, note=60, velocity=0, time=80),
    Message('note_on', channel=4, note=64, velocity=0, time=0),
    Message('note_on', channel=4, note=67, velocity=0, time=0),
    Message('note_on', channel=4, note=60, velocity=89, time=80),
    Message('note_on', channel=4, note=64, velocity=89, time=0),
    Message('note_on', channel=4, note=67, velocity=89, time=0),
    Message('note_on', channel=4, note=67, velocity=0, time=80),
    Message('note_on', channel=4, note=64, velocity=0, time=0),
    Message('note_on', channel=4, note=60, velocity=0, time=0),
    Message('note_on', channel=4, note=60, velocity=89, time=720),
    Message('note_on', channel=4, note=57, velocity=89, time=0),
    Message('note_on', channel=4, note=53, velocity=89, time=0),
    Message('note_on', channel=4, note=53, velocity=0, time=80),
    Message('note_on', channel=4, note=57, velocity=0, time=0),
    Message('note_on', channel=4, note=60, velocity=0, time=0),
    Message('note_on', channel=4, note=53, velocity=89, time=80),
    Message('note_on', channel=4, note=57, velocity=89, time=0),
    Message('note_on', channel=4, note=60, velocity=89, time=0),
    Message('note_on', channel=4, note=60, velocity=0, time=80),
    Message('note_on', channel=4, note=57, velocity=0, time=0),
    Message('note_on', channel=4, note=53, velocity=0, time=0),
    Message('note_on', channel=4, note=64, velocity=89, time=720),
    Message('note_on', channel=4, note=60, velocity=89, time=0),
    Message('note_on', channel=4, note=67, velocity=89, time=0),
    Message('note_on', channel=4, note=67, velocity=0, time=80),
    Message('note_on', channel=4, note=60, velocity=0, time=0),
    Message('note_on', channel=4, note=64, velocity=0, time=0),
    Message('note_on', channel=4, note=60, velocity=89, time=80),
    Message('note_on', channel=4, note=64, velocity=89, time=0),
    Message('note_on', channel=4, note=67, velocity=89, time=0),
    Message('note_on', channel=4, note=67, velocity=0, time=80),
    Message('note_on', channel=4, note=64, velocity=0, time=0),
    Message('note_on', channel=4, note=60, velocity=0, time=0),
    Message('note_on', channel=4, note=62, velocity=89, time=720),
    Message('note_on', channel=4, note=62, velocity=0, time=480),
    Message('note_on', channel=4, note=60, velocity=89, time=0),
    Message('note_on', channel=4, note=60, velocity=0, time=480),
    Message('note_on', channel=4, note=62, velocity=89, time=0),
    Message('note_on', channel=4, note=62, velocity=0, time=480),
    Message('note_on', channel=4, note=64, velocity=89, time=0),
    Message('note_on', channel=4, note=64, velocity=0, time=480),
    Message('note_on', channel=4, note=65, velocity=71, time=0),
    Message('note_on', channel=4, note=60, velocity=62, time=0),
    Message('control_change', channel=4, control=7, value=56, time=2),
    Message('control_change', channel=4, control=7, value=70, time=20),
    Message('control_change', channel=4, control=7, value=78, time=68),
    Message('control_change', channel=4, control=7, value=85, time=20),
    Message('control_change', channel=4, control=7, value=92, time=20),
    Message('control_change', channel=4, control=7, value=99, time=20),
    Message('control_change', channel=4, control=7, value=104, time=20),
    Message('control_change', channel=4, control=7, value=110, time=10),
    Message('control_change', channel=4, control=7, value=113, time=20),
    Message('control_change', channel=4, control=7, value=111, time=450),
    Message('control_change', channel=4, control=7, value=96, time=20),
    Message('control_change', channel=4, control=7, value=80, time=20),
    Message('control_change', channel=4, control=7, value=71, time=20),
    Message('control_change', channel=4, control=7, value=63, time=30),
    Message('note_off', channel=4, note=65, velocity=0, time=136),
    Message('note_off', channel=4, note=60, velocity=0, time=16),
    Message('note_on', channel=4, note=60, velocity=62, time=68),
    Message('note_on', channel=4, note=64, velocity=53, time=0),
    Message('control_change', channel=4, control=7, value=64, time=2),
    Message('control_change', channel=4, control=7, value=70, time=16),
    Message('control_change', channel=4, control=7, value=77, time=22),
    Message('control_change', channel=4, control=7, value=85, time=14),
    Message('control_change', channel=4, control=7, value=92, time=20),
    Message('control_change', channel=4, control=7, value=98, time=20),
    Message('control_change', channel=4, control=7, value=102, time=14),
    Message('control_change', channel=4, control=7, value=108, time=20),
    Message('control_change', channel=4, control=7, value=112, time=20),
    Message('control_change', channel=4, control=7, value=113, time=18),
    Message('note_off', channel=4, note=64, velocity=0, time=548),
    Message('note_off', channel=4, note=60, velocity=0, time=24),
    Message('control_change', channel=4, control=7, value=105, time=62),
    Message('control_change', channel=4, control=7, value=96, time=52),
    Message('control_change', channel=4, control=7, value=89, time=20),
    Message('control_change', channel=4, control=7, value=82, time=20),
    Message('control_change', channel=4, control=7, value=76, time=10),
    Message('control_change', channel=4, control=7, value=69, time=20),
    Message('control_change', channel=4, control=7, value=63, time=20),
    Message('note_on', channel=4, note=55, velocity=62, time=18),
    Message('note_on', channel=4, note=58, velocity=80, time=0),
    Message('control_change', channel=4, control=7, value=67, time=2),
    Message('control_change', channel=4, control=7, value=74, time=18),
    Message('control_change', channel=4, control=7, value=80, time=20),
    Message('control_change', channel=4, control=7, value=87, time=20),
    Message('control_change', channel=4, control=7, value=96, time=180),
    Message('control_change', channel=4, control=7, value=103, time=10),
    Message('control_change', channel=4, control=7, value=113, time=20),
    Message('control_change', channel=4, control=7, value=110, time=20),
    Message('control_change', channel=4, control=7, value=103, time=20),
    Message('control_change', channel=4, control=7, value=96, time=20),
    Message('note_off', channel=4, note=55, velocity=0, time=48),
    Message('note_off', channel=4, note=58, velocity=0, time=12),
    Message('control_change', channel=4, control=7, value=89, time=30),
    Message('control_change', channel=4, control=7, value=81, time=10),
    Message('control_change', channel=4, control=7, value=74, time=22),
    Message('control_change', channel=4, control=7, value=68, time=24),
    Message('note_on', channel=4, note=53, velocity=62, time=4),
    Message('note_on', channel=4, note=57, velocity=62, time=0),
    Message('control_change', channel=4, control=7, value=71, time=12),
    Message('control_change', channel=4, control=7, value=75, time=18),
    Message('control_change', channel=4, control=7, value=78, time=16),
    Message('control_change', channel=4, control=7, value=82, time=20),
    Message('control_change', channel=4, control=7, value=87, time=20),
    Message('control_change', channel=4, control=7, value=90, time=10),
    Message('control_change', channel=4, control=7, value=91, time=20),
    Message('control_change', channel=4, control=7, value=94, time=20),
    Message('control_change', channel=4, control=7, value=97, time=20),
    Message('control_change', channel=4, control=7, value=101, time=14),
    Message('control_change', channel=4, control=7, value=104, time=20),
    Message('control_change', channel=4, control=7, value=105, time=20),
    Message('control_change', channel=4, control=7, value=106, time=20),
    Message('control_change', channel=4, control=7, value=103, time=50),
    Message('control_change', channel=4, control=7, value=85, time=20),
    Message('control_change', channel=4, control=7, value=78, time=20),
    Message('control_change', channel=4, control=7, value=61, time=20),
    Message('control_change', channel=4, control=7, value=56, time=10),
    Message('note_off', channel=4, note=53, velocity=0, time=20),
    Message('control_change', channel=4, control=7, value=52, time=0),
    Message('note_off', channel=4, note=57, velocity=0, time=36),
    Message('control_change', channel=4, control=7, value=59, time=40),
    Message('note_on', channel=4, note=58, velocity=45, time=34),
    Message('note_on', channel=4, note=62, velocity=53, time=0),
    Message('control_change', channel=4, control=7, value=67, time=2),
    Message('control_change', channel=4, control=7, value=75, time=20),
    Message('control_change', channel=4, control=7, value=85, time=18),
    Message('control_change', channel=4, control=7, value=92, time=14),
    Message('control_change', channel=4, control=7, value=99, time=20),
    Message('control_change', channel=4, control=7, value=105, time=20),
    Message('control_change', channel=4, control=7, value=111, time=10),
    Message('control_change', channel=4, control=7, value=113, time=20),
    Message('note_off', channel=4, note=58, velocity=0, time=184),
    Message('control_change', channel=4, control=7, value=109, time=0),
    Message('control_change', channel=4, control=7, value=99, time=20),
    Message('note_off', channel=4, note=62, velocity=0, time=8),
    Message('control_change', channel=4, control=7, value=90, time=10),
    Message('control_change', channel=4, control=7, value=82, time=10),
    Message('control_change', channel=4, control=7, value=75, time=60),
    Message('control_change', channel=4, control=7, value=69, time=20),
    Message('control_change', channel=4, control=7, value=63, time=20),
    Message('note_on', channel=4, note=60, velocity=53, time=24),
    Message('note_on', channel=4, note=64, velocity=49, time=4),
    Message('control_change', channel=4, control=7, value=67, time=12),
    Message('control_change', channel=4, control=7, value=73, time=14),
    Message('control_change', channel=4, control=7, value=80, time=20),
    Message('control_change', channel=4, control=7, value=91, time=20),
    Message('control_change', channel=4, control=7, value=101, time=10),
    Message('control_change', channel=4, control=7, value=103, time=160),
    Message('control_change', channel=4, control=7, value=98, time=40),
    Message('control_change', channel=4, control=7, value=86, time=20),
    Message('control_change', channel=4, control=7, value=74, time=140),
    Message('note_off', channel=4, note=64, velocity=0, time=24),
    Message('control_change', channel=4, control=7, value=63, time=2),
    Message('note_off', channel=4, note=60, velocity=0, time=14),
    Message('note_on', channel=4, note=65, velocity=53, time=0),
    Message('note_on', channel=4, note=62, velocity=53, time=6),
    Message('control_change', channel=4, control=7, value=56, time=18),
    Message('control_change', channel=4, control=7, value=61, time=16),
    Message('control_change', channel=4, control=7, value=66, time=10),
    Message('control_change', channel=4, control=7, value=75, time=20),
    Message('control_change', channel=4, control=7, value=83, time=20),
    Message('control_change', channel=4, control=7, value=88, time=20),
    Message('control_change', channel=4, control=7, value=96, time=20),
    Message('control_change', channel=4, control=7, value=103, time=20),
    Message('control_change', channel=4, control=7, value=110, time=10),
    Message('control_change', channel=4, control=7, value=113, time=20),
    Message('control_change', channel=4, control=7, value=99, time=20),
    Message('control_change', channel=4, control=7, value=92, time=20),
    Message('control_change', channel=4, control=7, value=86, time=20),
    Message('control_change', channel=4, control=7, value=74, time=10),
    Message('control_change', channel=4, control=7, value=63, time=20),
    Message('note_off', channel=4, note=65, velocity=0, time=194),
    Message('note_off', channel=4, note=62, velocity=0, time=6),
    Message('note_on', channel=4, note=64, velocity=62, time=10),
    Message('note_on', channel=4, note=60, velocity=62, time=0),
    Message('control_change', channel=4, control=7, value=67, time=190),
    Message('control_change', channel=4, control=7, value=70, time=20),
    Message('control_change', channel=4, control=7, value=75, time=140),
    Message('note_off', channel=4, note=60, velocity=0, time=10),
    Message('note_off', channel=4, note=64, velocity=0, time=0),
    Message('control_change', channel=4, control=7, value=81, time=10),
    Message('control_change', channel=4, control=7, value=96, time=20),
    Message('control_change', channel=4, control=7, value=105, time=20),
    Message('control_change', channel=4, control=7, value=100, time=40),
    Message('control_change', channel=4, control=7, value=89, time=10),
    Message('control_change', channel=4, control=7, value=70, time=22),
    Message('note_on', channel=4, note=62, velocity=62, time=6),
    Message('note_on', channel=4, note=58, velocity=62, time=4),
    Message('control_change', channel=4, control=7, value=66, time=168),
    Message('control_change', channel=4, control=7, value=73, time=20),
    Message('control_change', channel=4, control=7, value=80, time=20),
    Message('control_change', channel=4, control=7, value=86, time=10),
    Message('control_change', channel=4, control=7, value=95, time=20),
    Message('control_change', channel=4, control=7, value=100, time=62),
    Message('control_change', channel=4, control=7, value=106, time=14),
    Message('control_change', channel=4, control=7, value=110, time=20),
    Message('control_change', channel=4, control=7, value=113, time=20),
    Message('note_off', channel=4, note=58, velocity=0, time=28),
    Message('control_change', channel=4, control=7, value=103, time=26),
    Message('control_change', channel=4, control=7, value=89, time=20),
    Message('note_off', channel=4, note=62, velocity=0, time=6),
    Message('control_change', channel=4, control=7, value=76, time=10),
    Message('control_change', channel=4, control=7, value=66, time=20),
    Message('note_on', channel=4, note=64, velocity=62, time=4),
    Message('note_on', channel=4, note=60, velocity=62, time=0),
    Message('control_change', channel=4, control=7, value=75, time=16),
    Message('control_change', channel=4, control=7, value=83, time=14),
    Message('control_change', channel=4, control=7, value=93, time=20),
    Message('control_change', channel=4, control=7, value=99, time=10),
    Message('control_change', channel=4, control=7, value=103, time=20),
    Message('control_change', channel=4, control=7, value=107, time=130),
    Message('control_change', channel=4, control=7, value=113, time=20),
    Message('note_off', channel=4, note=64, velocity=0, time=134),
    Message('note_off', channel=4, note=60, velocity=0, time=36),
    Message('control_change', channel=4, control=7, value=101, time=30),
    Message('control_change', channel=4, control=7, value=97, time=10),
    Message('control_change', channel=4, control=7, value=82, time=18),
    Message('control_change', channel=4, control=7, value=56, time=46),
    Message('control_change', channel=4, control=7, value=61, time=16),
    Message('control_change', channel=4, control=7, value=66, time=10),
    Message('control_change', channel=4, control=7, value=75, time=20),
    Message('control_change', channel=4, control=7, value=83, time=20),
    Message('control_change', channel=4, control=7, value=88, time=20),
    Message('control_change', channel=4, control=7, value=96, time=20),
    Message('control_change', channel=4, control=7, value=103, time=20),
    Message('control_change', channel=4, control=7, value=110, time=10),
    Message('control_change', channel=4, control=7, value=113, time=20),
    Message('control_change', channel=4, control=7, value=99, time=20),
    Message('control_change', channel=4, control=7, value=92, time=20),
    Message('control_change', channel=4, control=7, value=86, time=20),
    Message('note_on', channel=4, note=62, velocity=53, time=0),
    Message('note_on', channel=4, note=65, velocity=53, time=0),
    Message('control_change', channel=4, control=7, value=74, time=10),
    Message('control_change', channel=4, control=7, value=63, time=20),
    Message('note_off', channel=4, note=65, velocity=0, time=210),
    Message('note_off', channel=4, note=62, velocity=0, time=0),
    Message('note_on', channel=4, note=64, velocity=62, time=0),
    Message('note_on', channel=4, note=60, velocity=62, time=0),
    Message('control_change', channel=4, control=7, value=67, time=190),
    Message('control_change', channel=4, control=7, value=70, time=20),
    Message('control_change', channel=4, control=7, value=75, time=140),
    Message('note_off', channel=4, note=60, velocity=0, time=10),
    Message('note_off', channel=4, note=64, velocity=0, time=0),
    Message('control_change', channel=4, control=7, value=81, time=10),
    Message('control_change', channel=4, control=7, value=96, time=20),
    Message('control_change', channel=4, control=7, value=105, time=20),
    Message('control_change', channel=4, control=7, value=100, time=40),
    Message('control_change', channel=4, control=7, value=89, time=10),
    Message('control_change', channel=4, control=7, value=70, time=22),
    Message('note_on', channel=4, note=62, velocity=62, time=6),
    Message('note_on', channel=4, note=58, velocity=62, time=4),
    Message('control_change', channel=4, control=7, value=66, time=168),
    Message('control_change', channel=4, control=7, value=73, time=20),
    Message('control_change', channel=4, control=7, value=80, time=20),
    Message('control_change', channel=4, control=7, value=86, time=10),
    Message('control_change', channel=4, control=7, value=95, time=20),
    Message('control_change', channel=4, control=7, value=100, time=62),
    Message('control_change', channel=4, control=7, value=106, time=14),
    Message('control_change', channel=4, control=7, value=110, time=20),
    Message('control_change', channel=4, control=7, value=113, time=20),
    Message('note_off', channel=4, note=58, velocity=0, time=28),
    Message('control_change', channel=4, control=7, value=103, time=26),
    Message('control_change', channel=4, control=7, value=89, time=20),
    Message('note_off', channel=4, note=62, velocity=0, time=6),
    Message('control_change', channel=4, control=7, value=76, time=10),
    Message('control_change', channel=4, control=7, value=66, time=20),
    Message('note_on', channel=4, note=64, velocity=62, time=4),
    Message('note_on', channel=4, note=60, velocity=62, time=0),
    Message('control_change', channel=4, control=7, value=75, time=16),
    Message('control_change', channel=4, control=7, value=83, time=14),
    Message('control_change', channel=4, control=7, value=93, time=20),
    Message('control_change', channel=4, control=7, value=99, time=10),
    Message('control_change', channel=4, control=7, value=103, time=20),
    Message('control_change', channel=4, control=7, value=107, time=130),
    Message('control_change', channel=4, control=7, value=113, time=20),
    Message('note_off', channel=4, note=64, velocity=0, time=134),
    Message('note_off', channel=4, note=60, velocity=0, time=36),
    Message('control_change', channel=4, control=7, value=101, time=30),
    Message('control_change', channel=4, control=7, value=97, time=10),
    Message('control_change', channel=4, control=7, value=82, time=18),
    Message('note_on', channel=4, note=65, velocity=53, time=22),
    Message('note_on', channel=4, note=62, velocity=53, time=6),
    Message('control_change', channel=4, control=7, value=56, time=18),
    Message('control_change', channel=4, control=7, value=61, time=16),
    Message('control_change', channel=4, control=7, value=66, time=10),
    Message('control_change', channel=4, control=7, value=75, time=20),
    Message('control_change', channel=4, control=7, value=83, time=20),
    Message('control_change', channel=4, control=7, value=88, time=20),
    Message('control_change', channel=4, control=7, value=96, time=20),
    Message('control_change', channel=4, control=7, value=103, time=20),
    Message('control_change', channel=4, control=7, value=110, time=10),
    Message('control_change', channel=4, control=7, value=113, time=20),
    Message('control_change', channel=4, control=7, value=99, time=20),
    Message('control_change', channel=4, control=7, value=92, time=20),
    Message('control_change', channel=4, control=7, value=86, time=20),
    Message('control_change', channel=4, control=7, value=74, time=10),
    Message('control_change', channel=4, control=7, value=63, time=20),
    Message('note_off', channel=4, note=65, velocity=0, time=194),
    Message('note_off', channel=4, note=62, velocity=0, time=6),
    Message('note_on', channel=4, note=64, velocity=62, time=10),
    Message('note_on', channel=4, note=60, velocity=62, time=0),
    Message('control_change', channel=4, control=7, value=67, time=190),
    Message('control_change', channel=4, control=7, value=70, time=20),
    Message('control_change', channel=4, control=7, value=75, time=140),
    Message('note_off', channel=4, note=60, velocity=0, time=10),
    Message('note_off', channel=4, note=64, velocity=0, time=0),
    Message('control_change', channel=4, control=7, value=81, time=10),
    Message('control_change', channel=4, control=7, value=96, time=20),
    Message('control_change', channel=4, control=7, value=105, time=20),
    Message('control_change', channel=4, control=7, value=100, time=40),
    Message('control_change', channel=4, control=7, value=89, time=10),
    Message('control_change', channel=4, control=7, value=70, time=22),
    Message('note_on', channel=4, note=62, velocity=62, time=6),
    Message('note_on', channel=4, note=58, velocity=62, time=4),
    Message('control_change', channel=4, control=7, value=66, time=168),
    Message('control_change', channel=4, control=7, value=73, time=20),
    Message('control_change', channel=4, control=7, value=80, time=20),
    Message('control_change', channel=4, control=7, value=86, time=10),
    Message('control_change', channel=4, control=7, value=95, time=20),
    Message('control_change', channel=4, control=7, value=100, time=62),
    Message('control_change', channel=4, control=7, value=106, time=14),
    Message('control_change', channel=4, control=7, value=110, time=20),
    Message('control_change', channel=4, control=7, value=113, time=20),
    Message('note_off', channel=4, note=58, velocity=0, time=28),
    Message('control_change', channel=4, control=7, value=103, time=26),
    Message('control_change', channel=4, control=7, value=89, time=20),
    Message('note_off', channel=4, note=62, velocity=0, time=6),
    Message('control_change', channel=4, control=7, value=76, time=10),
    Message('control_change', channel=4, control=7, value=66, time=20),
    Message('note_on', channel=4, note=64, velocity=62, time=4),
    Message('note_on', channel=4, note=60, velocity=62, time=0),
    Message('control_change', channel=4, control=7, value=75, time=16),
    Message('control_change', channel=4, control=7, value=83, time=14),
    Message('control_change', channel=4, control=7, value=93, time=20),
    Message('control_change', channel=4, control=7, value=99, time=10),
    Message('control_change', channel=4, control=7, value=103, time=20),
    Message('control_change', channel=4, control=7, value=107, time=130),
    Message('control_change', channel=4, control=7, value=113, time=20),
    Message('note_off', channel=4, note=64, velocity=0, time=134),
    Message('note_off', channel=4, note=60, velocity=0, time=36),
    Message('control_change', channel=4, control=7, value=101, time=30),
    Message('control_change', channel=4, control=7, value=97, time=10),
    Message('control_change', channel=4, control=7, value=82, time=18),
    Message('control_change', channel=4, control=93, value=118, time=34),
    Message('control_change', channel=4, control=91, value=120, time=18),
    Message('control_change', channel=4, control=94, value=12, time=10),
    Message('control_change', channel=4, control=7, value=96, time=40),
    Message('control_change', channel=4, control=7, value=90, time=20),
    Message('control_change', channel=4, control=7, value=87, time=20),
    Message('control_change', channel=4, control=7, value=84, time=20),
    Message('control_change', channel=4, control=7, value=83, time=50),
    Message('control_change', channel=4, control=7, value=63, time=20),
    Message('note_on', channel=4, note=65, velocity=89, time=280),
    Message('note_on', channel=4, note=60, velocity=71, time=2),
    Message('control_change', channel=4, control=7, value=73, time=18),
    Message('control_change', channel=4, control=7, value=88, time=20),
    Message('control_change', channel=4, control=7, value=99, time=20),
    Message('control_change', channel=4, control=7, value=113, time=40),
    Message('control_change', channel=4, control=7, value=115, time=20),
    Message('control_change', channel=4, control=7, value=117, time=10),
    Message('control_change', channel=4, control=7, value=118, time=20),
    Message('control_change', channel=4, control=7, value=119, time=20),
    Message('control_change', channel=4, control=7, value=120, time=40),
    Message('control_change', channel=4, control=7, value=124, time=10),
    Message('control_change', channel=4, control=7, value=125, time=20),
    Message('control_change', channel=4, control=7, value=124, time=170),
    Message('control_change', channel=4, control=7, value=117, time=10),
    Message('control_change', channel=4, control=7, value=111, time=20),
    Message('control_change', channel=4, control=7, value=108, time=20),
    Message('control_change', channel=4, control=7, value=103, time=20),
    Message('note_off', channel=4, note=60, velocity=0, time=6),
    Message('control_change', channel=4, control=7, value=99, time=14),
    Message('note_off', channel=4, note=65, velocity=0, time=2),
    Message('control_change', channel=4, control=7, value=97, time=10),
    Message('control_change', channel=4, control=7, value=94, time=20),
    Message('control_change', channel=4, control=7, value=92, time=20),
    Message('control_change', channel=4, control=7, value=89, time=20),
    Message('control_change', channel=4, control=7, value=85, time=10),
    Message('control_change', channel=4, control=7, value=82, time=20),
    Message('control_change', channel=4, control=7, value=78, time=18),
    Message('control_change', channel=4, control=7, value=75, time=20),
    Message('control_change', channel=4, control=7, value=74, time=20),
    Message('control_change', channel=4, control=7, value=73, time=20),
    Message('control_change', channel=4, control=7, value=71, time=10),
    Message('control_change', channel=4, control=7, value=70, time=20),
    Message('control_change', channel=4, control=7, value=69, time=20),
    Message('control_change', channel=4, control=7, value=68, time=40),
    Message('control_change', channel=4, control=7, value=73, time=110),
    Message('control_change', channel=4, control=7, value=80, time=16),
    Message('control_change', channel=4, control=7, value=84, time=20),
    Message('control_change', channel=4, control=7, value=85, time=14),
    Message('note_on', channel=4, note=63, velocity=80, time=20),
    Message('note_on', channel=4, note=58, velocity=80, time=0),
    Message('control_change', channel=4, control=7, value=89, time=20),
    Message('control_change', channel=4, control=7, value=92, time=10),
    Message('control_change', channel=4, control=7, value=93, time=20),
    Message('control_change', channel=4, control=7, value=94, time=20),
    Message('control_change', channel=4, control=7, value=99, time=20),
    Message('control_change', channel=4, control=7, value=103, time=20),
    Message('control_change', channel=4, control=7, value=106, time=20),
    Message('control_change', channel=4, control=7, value=108, time=10),
    Message('control_change', channel=4, control=7, value=110, time=60),
    Message('control_change', channel=4, control=7, value=113, time=20),
    Message('control_change', channel=4, control=7, value=115, time=20),
    Message('control_change', channel=4, control=7, value=117, time=10),
    Message('control_change', channel=4, control=7, value=118, time=60),
    Message('control_change', channel=4, control=7, value=119, time=10),
    Message('control_change', channel=4, control=7, value=122, time=20),
    Message('control_change', channel=4, control=7, value=117, time=110),
    Message('control_change', channel=4, control=7, value=110, time=20),
    Message('note_off', channel=4, note=63, velocity=0, time=8),
    Message('control_change', channel=4, control=7, value=103, time=14),
    Message('control_change', channel=4, control=7, value=96, time=18),
    Message('note_off', channel=4, note=58, velocity=0, time=6),
    Message('control_change', channel=4, control=7, value=90, time=10),
    Message('control_change', channel=4, control=7, value=89, time=20),
    Message('control_change', channel=4, control=7, value=85, time=20),
    Message('control_change', channel=4, control=7, value=84, time=10),
    Message('control_change', channel=4, control=7, value=78, time=20),
    Message('control_change', channel=4, control=7, value=73, time=24),
    Message('control_change', channel=4, control=7, value=70, time=10),
    Message('control_change', channel=4, control=7, value=66, time=20),
    Message('control_change', channel=4, control=7, value=64, time=20),
    Message('control_change', channel=4, control=7, value=63, time=20),
    Message('control_change', channel=4, control=7, value=64, time=220),
    Message('control_change', channel=4, control=7, value=65, time=10),
    Message('control_change', channel=4, control=7, value=68, time=20),
    Message('note_on', channel=4, note=62, velocity=80, time=20),
    Message('note_on', channel=4, note=58, velocity=80, time=0),
    Message('control_change', channel=4, control=7, value=71, time=2),
    Message('control_change', channel=4, control=7, value=77, time=18),
    Message('control_change', channel=4, control=7, value=80, time=10),
    Message('control_change', channel=4, control=7, value=85, time=60),
    Message('control_change', channel=4, control=7, value=102, time=20),
    Message('control_change', channel=4, control=7, value=106, time=30),
    Message('control_change', channel=4, control=7, value=107, time=40),
    Message('control_change', channel=4, control=7, value=101, time=20),
    Message('control_change', channel=4, control=7, value=104, time=20),
    Message('control_change', channel=4, control=7, value=105, time=30),
    Message('control_change', channel=4, control=7, value=106, time=20),
    Message('control_change', channel=4, control=7, value=110, time=40),
    Message('control_change', channel=4, control=7, value=111, time=10),
    Message('control_change', channel=4, control=7, value=115, time=20),
    Message('control_change', channel=4, control=7, value=122, time=20),
    Message('control_change', channel=4, control=7, value=125, time=20),
    Message('control_change', channel=4, control=7, value=126, time=10),
    Message('note_off', channel=4, note=58, velocity=0, time=90),
    Message('note_off', channel=4, note=62, velocity=0, time=0),
    Message('control_change', channel=4, control=7, value=108, time=10),
    Message('control_change', channel=4, control=7, value=101, time=20),
    Message('control_change', channel=4, control=7, value=94, time=10),
    Message('control_change', channel=4, control=7, value=89, time=20),
    Message('control_change', channel=4, control=7, value=84, time=20),
    Message('control_change', channel=4, control=7, value=80, time=20),
    Message('control_change', channel=4, control=7, value=78, time=20),
    Message('control_change', channel=4, control=7, value=77, time=10),
    Message('control_change', channel=4, control=7, value=73, time=20),
    Message('control_change', channel=4, control=7, value=70, time=20),
    Message('control_change', channel=4, control=7, value=66, time=20),
    Message('control_change', channel=4, control=7, value=64, time=20),
    Message('control_change', channel=4, control=7, value=63, time=20),
    Message('control_change', channel=4, control=7, value=62, time=10),
    Message('control_change', channel=4, control=7, value=59, time=20),
    Message('control_change', channel=4, control=7, value=66, time=110),
    Message('note_on', channel=4, note=60, velocity=80, time=128),
    Message('control_change', channel=4, control=7, value=68, time=22),
    Message('control_change', channel=4, control=7, value=77, time=10),
    Message('control_change', channel=4, control=7, value=90, time=40),
    Message('control_change', channel=4, control=7, value=120, time=20),
    Message('control_change', channel=4, control=7, value=98, time=20),
    Message('note_on', channel=4, note=62, velocity=71, time=32),
    Message('note_on', channel=4, note=60, velocity=0, time=34),
    Message('note_on', channel=4, note=65, velocity=89, time=44),
    Message('note_on', channel=4, note=62, velocity=0, time=22),
    Message('note_on', channel=4, note=65, velocity=97, time=146),
    Message('note_on', channel=4, note=65, velocity=0, time=46),
    Message('control_change', channel=4, control=7, value=91, time=216),
    Message('control_change', channel=4, control=7, value=97, time=20),
    Message('control_change', channel=4, control=7, value=101, time=10),
    Message('control_change', channel=4, control=7, value=88, time=20),
    Message('control_change', channel=4, control=7, value=86, time=20),
    Message('control_change', channel=4, control=7, value=88, time=20),
    Message('control_change', channel=4, control=7, value=89, time=20),
    Message('control_change', channel=4, control=7, value=59, time=20),
    Message('control_change', channel=4, control=7, value=42, time=10),
    Message('control_change', channel=4, control=7, value=41, time=20),
    Message('control_change', channel=4, control=7, value=42, time=56),
    Message('note_off', channel=4, note=65, velocity=0, time=2),
    Message('control_change', channel=4, control=7, value=49, time=18),
    Message('control_change', channel=4, control=7, value=66, time=14),
    Message('control_change', channel=4, control=7, value=84, time=20),
    Message('control_change', channel=4, control=7, value=90, time=22),
    Message('control_change', channel=4, control=7, value=96, time=12),
    Message('note_on', channel=4, note=65, velocity=80, time=0),
    Message('note_on', channel=4, note=60, velocity=71, time=0),
    Message('control_change', channel=4, control=7, value=103, time=16),
    Message('control_change', channel=4, control=7, value=110, time=20),
    Message('control_change', channel=4, control=7, value=115, time=20),
    Message('control_change', channel=4, control=7, value=117, time=20),
    Message('control_change', channel=4, control=7, value=122, time=20),
    Message('control_change', channel=4, control=7, value=127, time=20),
    Message('control_change', channel=4, control=7, value=124, time=250),
    Message('control_change', channel=4, control=7, value=120, time=20),
    Message('control_change', channel=4, control=7, value=103, time=20),
    Message('control_change', channel=4, control=7, value=96, time=10),
    Message('control_change', channel=4, control=7, value=92, time=20),
    Message('control_change', channel=4, control=7, value=90, time=20),
    Message('control_change', channel=4, control=7, value=89, time=12),
    Message('note_off', channel=4, note=60, velocity=0, time=10),
    Message('control_change', channel=4, control=7, value=88, time=10),
    Message('note_off', channel=4, note=65, velocity=0, time=22),
    Message('control_change', channel=4, control=7, value=85, time=0),
    Message('control_change', channel=4, control=7, value=80, time=20),
    Message('control_change', channel=4, control=7, value=75, time=20),
    Message('control_change', channel=4, control=7, value=68, time=10),
    Message('control_change', channel=4, control=7, value=63, time=20),
    Message('control_change', channel=4, control=7, value=57, time=20),
    Message('control_change', channel=4, control=7, value=54, time=16),
    Message('control_change', channel=4, control=7, value=57, time=236),
    Message('control_change', channel=4, control=7, value=63, time=20),
    Message('control_change', channel=4, control=7, value=68, time=20),
    Message('control_change', channel=4, control=7, value=70, time=20),
    Message('control_change', channel=4, control=7, value=73, time=36),
    Message('note_on', channel=4, note=63, velocity=80, time=8),
    Message('note_on', channel=4, note=58, velocity=80, time=4),
    Message('control_change', channel=4, control=7, value=78, time=6),
    Message('control_change', channel=4, control=7, value=85, time=10),
    Message('control_change', channel=4, control=7, value=92, time=20),
    Message('control_change', channel=4, control=7, value=97, time=20),
    Message('control_change', channel=4, control=7, value=101, time=20),
    Message('control_change', channel=4, control=7, value=103, time=20),
    Message('control_change', channel=4, control=7, value=106, time=10),
    Message('control_change', channel=4, control=7, value=108, time=20),
    Message('control_change', channel=4, control=7, value=110, time=20),
    Message('control_change', channel=4, control=7, value=111, time=40),
    Message('control_change', channel=4, control=7, value=115, time=10),
    Message('control_change', channel=4, control=7, value=120, time=20),
    Message('control_change', channel=4, control=7, value=115, time=180),
    Message('control_change', channel=4, control=7, value=110, time=20),
    Message('control_change', channel=4, control=7, value=104, time=20),
    Message('control_change', channel=4, control=7, value=103, time=20),
    Message('control_change', channel=4, control=7, value=97, time=22),
    Message('control_change', channel=4, control=7, value=94, time=18),
    Message('note_off', channel=4, note=63, velocity=0, time=18),
    Message('control_change', channel=4, control=7, value=90, time=0),
    Message('control_change', channel=4, control=7, value=87, time=10),
    Message('note_off', channel=4, note=58, velocity=0, time=10),
    Message('control_change', channel=4, control=7, value=82, time=10),
    Message('control_change', channel=4, control=7, value=77, time=20),
    Message('control_change', channel=4, control=7, value=59, time=20),
    Message('control_change', channel=4, control=7, value=56, time=22),
    Message('control_change', channel=4, control=7, value=61, time=320),
    Message('control_change', channel=4, control=7, value=68, time=22),
    Message('control_change', channel=4, control=7, value=73, time=18),
    Message('note_on', channel=4, note=58, velocity=80, time=0),
    Message('note_on', channel=4, note=62, velocity=80, time=4),
    Message('control_change', channel=4, control=7, value=78, time=16),
    Message('control_change', channel=4, control=7, value=82, time=10),
    Message('control_change', channel=4, control=7, value=84, time=20),
    Message('control_change', channel=4, control=7, value=87, time=20),
    Message('control_change', channel=4, control=7, value=92, time=20),
    Message('control_change', channel=4, control=7, value=97, time=20),
    Message('control_change', channel=4, control=7, value=103, time=10),
    Message('control_change', channel=4, control=7, value=106, time=20),
    Message('control_change', channel=4, control=7, value=108, time=20),
    Message('control_change', channel=4, control=7, value=110, time=20),
    Message('control_change', channel=4, control=7, value=113, time=20),
    Message('control_change', channel=4, control=7, value=115, time=10),
    Message('control_change', channel=4, control=7, value=117, time=20),
    Message('control_change', channel=4, control=7, value=118, time=20),
    Message('note_off', channel=4, note=58, velocity=0, time=126),
    Message('note_off', channel=4, note=62, velocity=0, time=12),
    Message('control_change', channel=4, control=7, value=113, time=62),
    Message('note_on', channel=4, note=69, velocity=89, time=10),
    Message('control_change', channel=4, control=7, value=110, time=2),
    Message('control_change', channel=4, control=7, value=104, time=28),
    Message('control_change', channel=4, control=7, value=99, time=10),
    Message('control_change', channel=4, control=7, value=94, time=20),
    Message('control_change', channel=4, control=7, value=92, time=20),
    Message('control_change', channel=4, control=7, value=90, time=40),
    Message('control_change', channel=4, control=7, value=87, time=50),
    Message('control_change', channel=4, control=7, value=85, time=20),
    Message('control_change', channel=4, control=7, value=84, time=20),
    Message('control_change', channel=4, control=7, value=83, time=10),
    Message('note_off', channel=4, note=69, velocity=0, time=20),
    Message('note_on', channel=4, note=67, velocity=53, time=10),
    Message('note_on', channel=4, note=67, velocity=0, time=104),
    Message('control_change', channel=4, control=7, value=89, time=0),
    Message('control_change', channel=4, control=7, value=94, time=20),
    Message('control_change', channel=4, control=7, value=101, time=10),
    Message('note_on', channel=4, note=65, velocity=80, time=18),
    Message('control_change', channel=4, control=7, value=104, time=6),
    Message('control_change', channel=4, control=7, value=105, time=10),
    Message('control_change', channel=4, control=7, value=106, time=22),
    Message('control_change', channel=4, control=7, value=110, time=20),
    Message('note_off', channel=4, note=65, velocity=0, time=18),
    Message('note_on', channel=4, note=67, velocity=37, time=2),
    Message('control_change', channel=4, control=7, value=111, time=2),
    Message('control_change', channel=4, control=7, value=112, time=98),
    Message('control_change', channel=4, control=7, value=113, time=20),
    Message('note_on', channel=4, note=65, velocity=80, time=44),
    Message('note_on', channel=4, note=67, velocity=0, time=30),
    Message('note_on', channel=4, note=62, velocity=71, time=46),
    Message('control_change', channel=4, control=7, value=115, time=10),
    Message('note_off', channel=4, note=65, velocity=0, time=16),
    Message('control_change', channel=4, control=7, value=118, time=4),
    Message('control_change', channel=4, control=7, value=124, time=20),
    Message('control_change', channel=4, control=7, value=125, time=20),
    Message('control_change', channel=4, control=7, value=126, time=10),
    Message('note_off', channel=4, note=62, velocity=0, time=22),
    Message('control_change', channel=4, control=7, value=127, time=0),
    Message('note_on', channel=4, note=65, velocity=80, time=50),
    Message('note_on', channel=4, note=65, velocity=0, time=2920),
    MetaMessage('end_of_track', time=0)]),
  MidiTrack([
    MetaMessage('midi_port', port=0, time=0),
    MetaMessage('channel_prefix', channel=6, time=0),
    Message('program_change', channel=6, program=66, time=0),
    Message('note_on', channel=6, note=60, velocity=68, time=8400),
    Message('note_on', channel=6, note=60, velocity=0, time=48),
    Message('note_on', channel=6, note=57, velocity=55, time=112),
    Message('note_on', channel=6, note=57, velocity=0, time=60),
    Message('note_on', channel=6, note=60, velocity=77, time=20),
    Message('note_on', channel=6, note=60, velocity=0, time=80),
    Message('note_on', channel=6, note=57, velocity=68, time=80),
    Message('note_on', channel=6, note=57, velocity=0, time=52),
    Message('note_on', channel=6, note=60, velocity=86, time=28),
    Message('note_on', channel=6, note=60, velocity=0, time=82),
    Message('note_on', channel=6, note=60, velocity=77, time=158),
    Message('note_on', channel=6, note=60, velocity=0, time=132),
    Message('note_on', channel=6, note=60, velocity=77, time=28),
    Message('note_on', channel=6, note=60, velocity=0, time=80),
    Message('note_on', channel=6, note=60, velocity=68, time=4),
    Message('note_on', channel=6, note=60, velocity=0, time=114),
    Message('note_on', channel=6, note=57, velocity=68, time=30),
    Message('note_on', channel=6, note=57, velocity=0, time=184),
    Message('note_on', channel=6, note=60, velocity=86, time=62),
    Message('note_on', channel=6, note=60, velocity=0, time=92),
    Message('note_on', channel=6, note=57, velocity=77, time=8),
    Message('note_on', channel=6, note=57, velocity=0, time=102),
    Message('note_on', channel=6, note=62, velocity=95, time=28),
    Message('note_on', channel=6, note=62, velocity=0, time=272),
    Message('note_on', channel=6, note=56, velocity=59, time=464),
    Message('note_on', channel=6, note=56, velocity=0, time=60),
    Message('note_on', channel=6, note=56, velocity=95, time=26),
    Message('note_on', channel=6, note=56, velocity=0, time=62),
    Message('note_on', channel=6, note=53, velocity=59, time=90),
    Message('note_on', channel=6, note=53, velocity=0, time=60),
    Message('note_on', channel=6, note=56, velocity=86, time=24),
    Message('note_on', channel=6, note=56, velocity=0, time=120),
    Message('note_on', channel=6, note=55, velocity=95, time=118),
    Message('note_on', channel=6, note=55, velocity=0, time=140),
    Message('note_on', channel=6, note=53, velocity=104, time=20),
    Message('note_on', channel=6, note=53, velocity=0, time=80),
    Message('note_on', channel=6, note=57, velocity=104, time=0),
    Message('note_on', channel=6, note=50, velocity=86, time=178),
    Message('note_on', channel=6, note=57, velocity=0, time=42),
    Message('note_on', channel=6, note=50, velocity=0, time=118),
    Message('note_on', channel=6, note=53, velocity=86, time=82),
    Message('note_on', channel=6, note=53, velocity=0, time=300),
    Message('note_on', channel=6, note=53, velocity=77, time=640),
    Message('note_on', channel=6, note=57, velocity=86, time=80),
    Message('note_on', channel=6, note=53, velocity=0, time=20),
    Message('note_on', channel=6, note=57, velocity=0, time=120),
    Message('note_on', channel=6, note=62, velocity=86, time=40),
    Message('note_on', channel=6, note=62, velocity=0, time=260),
    Message('note_on', channel=6, note=60, velocity=86, time=40),
    Message('note_on', channel=6, note=60, velocity=0, time=160),
    Message('note_on', channel=6, note=57, velocity=68, time=80),
    Message('note_on', channel=6, note=57, velocity=0, time=160),
    Message('note_on', channel=6, note=55, velocity=68, time=0),
    Message('note_on', channel=6, note=57, velocity=86, time=80),
    Message('note_on', channel=6, note=55, velocity=0, time=6),
    Message('note_on', channel=6, note=57, velocity=0, time=214),
    Message('note_on', channel=6, note=50, velocity=68, time=28),
    Message('note_on', channel=6, note=50, velocity=0, time=140),
    Message('note_on', channel=6, note=53, velocity=95, time=12),
    Message('note_on', channel=6, note=53, velocity=0, time=792),
    Message('note_on', channel=6, note=60, velocity=86, time=1448),
    Message('note_on', channel=6, note=60, velocity=0, time=140),
    Message('note_on', channel=6, note=57, velocity=68, time=20),
    Message('note_on', channel=6, note=57, velocity=0, time=80),
    Message('note_on', channel=6, note=60, velocity=77, time=0),
    Message('note_on', channel=6, note=60, velocity=0, time=132),
    Message('note_on', channel=6, note=57, velocity=77, time=28),
    Message('note_on', channel=6, note=57, velocity=0, time=80),
    Message('note_on', channel=6, note=60, velocity=68, time=4),
    Message('note_on', channel=6, note=60, velocity=0, time=114),
    Message('note_on', channel=6, note=57, velocity=68, time=30),
    Message('note_on', channel=6, note=60, velocity=86, time=92),
    Message('note_on', channel=6, note=57, velocity=0, time=8),
    Message('note_on', channel=6, note=60, velocity=0, time=132),
    Message('note_on', channel=6, note=62, velocity=95, time=100),
    Message('note_on', channel=6, note=62, velocity=0, time=360),
    Message('note_on', channel=6, note=57, velocity=95, time=120),
    Message('note_on', channel=6, note=57, velocity=0, time=120),
    Message('note_on', channel=6, note=53, velocity=95, time=40),
    Message('note_on', channel=6, note=53, velocity=0, time=120),
    Message('note_on', channel=6, note=56, velocity=95, time=206),
    Message('note_on', channel=6, note=56, velocity=0, time=120),
    Message('note_on', channel=6, note=56, velocity=59, time=32),
    Message('note_on', channel=6, note=56, velocity=0, time=80),
    Message('note_on', channel=6, note=56, velocity=86, time=4),
    Message('note_on', channel=6, note=56, velocity=0, time=220),
    Message('note_on', channel=6, note=53, velocity=95, time=18),
    Message('note_on', channel=6, note=53, velocity=0, time=140),
    Message('note_on', channel=6, note=50, velocity=95, time=20),
    Message('note_on', channel=6, note=50, velocity=0, time=80),
    Message('note_on', channel=6, note=57, velocity=104, time=0),
    Message('note_on', channel=6, note=50, velocity=86, time=178),
    Message('note_on', channel=6, note=57, velocity=0, time=42),
    Message('note_on', channel=6, note=53, velocity=86, time=20),
    Message('note_on', channel=6, note=50, velocity=0, time=18),
    Message('note_on', channel=6, note=53, velocity=0, time=282),
    Message('note_on', channel=6, note=53, velocity=77, time=820),
    Message('note_on', channel=6, note=57, velocity=86, time=80),
    Message('note_on', channel=6, note=53, velocity=0, time=20),
    Message('note_on', channel=6, note=57, velocity=0, time=120),
    Message('note_on', channel=6, note=62, velocity=86, time=40),
    Message('note_on', channel=6, note=62, velocity=0, time=260),
    Message('note_on', channel=6, note=60, velocity=86, time=40),
    Message('note_on', channel=6, note=60, velocity=0, time=160),
    Message('note_on', channel=6, note=57, velocity=68, time=80),
    Message('note_on', channel=6, note=57, velocity=0, time=160),
    Message('note_on', channel=6, note=55, velocity=68, time=0),
    Message('note_on', channel=6, note=57, velocity=86, time=80),
    Message('note_on', channel=6, note=55, velocity=0, time=6),
    Message('note_on', channel=6, note=57, velocity=0, time=214),
    Message('note_on', channel=6, note=50, velocity=68, time=28),
    Message('note_on', channel=6, note=50, velocity=0, time=140),
    Message('note_on', channel=6, note=53, velocity=95, time=12),
    Message('note_on', channel=6, note=53, velocity=0, time=792),
    Message('note_on', channel=6, note=60, velocity=86, time=968),
    Message('note_on', channel=6, note=60, velocity=0, time=160),
    Message('note_on', channel=6, note=57, velocity=86, time=0),
    Message('note_on', channel=6, note=57, velocity=0, time=80),
    Message('note_on', channel=6, note=60, velocity=86, time=0),
    Message('note_on', channel=6, note=60, velocity=0, time=160),
    Message('note_on', channel=6, note=57, velocity=86, time=80),
    Message('note_on', channel=6, note=57, velocity=0, time=160),
    Message('note_on', channel=6, note=60, velocity=86, time=0),
    Message('note_on', channel=6, note=60, velocity=0, time=260),
    Message('note_on', channel=6, note=60, velocity=86, time=60),
    Message('note_on', channel=6, note=60, velocity=0, time=160),
    Message('note_on', channel=6, note=57, velocity=86, time=0),
    Message('note_on', channel=6, note=57, velocity=0, time=80),
    Message('note_on', channel=6, note=60, velocity=86, time=0),
    Message('note_on', channel=6, note=60, velocity=0, time=160),
    Message('note_on', channel=6, note=57, velocity=86, time=0),
    Message('note_on', channel=6, note=57, velocity=0, time=80),
    Message('note_on', channel=6, note=60, velocity=86, time=0),
    Message('note_on', channel=6, note=60, velocity=0, time=220),
    Message('note_on', channel=6, note=62, velocity=86, time=20),
    Message('note_on', channel=6, note=62, velocity=0, time=220),
    Message('note_on', channel=6, note=62, velocity=86, time=420),
    Message('note_on', channel=6, note=62, velocity=0, time=80),
    Message('note_on', channel=6, note=62, velocity=86, time=0),
    Message('note_on', channel=6, note=62, velocity=0, time=140),
    Message('note_on', channel=6, note=60, velocity=86, time=20),
    Message('note_on', channel=6, note=60, velocity=0, time=80),
    Message('note_on', channel=6, note=62, velocity=86, time=0),
    Message('note_on', channel=6, note=62, velocity=0, time=140),
    Message('note_on', channel=6, note=62, velocity=86, time=100),
    Message('note_on', channel=6, note=62, velocity=0, time=180),
    Message('note_on', channel=6, note=64, velocity=86, time=60),
    Message('note_on', channel=6, note=60, velocity=86, time=160),
    Message('note_on', channel=6, note=64, velocity=0, time=20),
    Message('note_on', channel=6, note=60, velocity=0, time=60),
    Message('note_on', channel=6, note=60, velocity=86, time=0),
    Message('note_on', channel=6, note=60, velocity=0, time=160),
    Message('note_on', channel=6, note=60, velocity=86, time=0),
    Message('note_on', channel=6, note=60, velocity=0, time=240),
    Message('note_on', channel=6, note=57, velocity=86, time=0),
    Message('note_on', channel=6, note=57, velocity=0, time=80),
    Message('note_on', channel=6, note=60, velocity=86, time=0),
    Message('note_on', channel=6, note=60, velocity=0, time=160),
    Message('note_on', channel=6, note=57, velocity=86, time=0),
    Message('note_on', channel=6, note=57, velocity=0, time=80),
    Message('note_on', channel=6, note=60, velocity=86, time=0),
    Message('note_on', channel=6, note=60, velocity=0, time=160),
    Message('note_on', channel=6, note=57, velocity=86, time=0),
    Message('note_on', channel=6, note=57, velocity=0, time=80),
    Message('note_on', channel=6, note=60, velocity=86, time=0),
    Message('note_on', channel=6, note=60, velocity=0, time=220),
    Message('note_on', channel=6, note=60, velocity=86, time=20),
    Message('note_on', channel=6, note=60, velocity=0, time=220),
    Message('note_on', channel=6, note=60, velocity=86, time=20),
    Message('note_on', channel=6, note=60, velocity=0, time=160),
    Message('note_on', channel=6, note=57, velocity=86, time=0),
    Message('note_on', channel=6, note=57, velocity=0, time=80),
    Message('note_on', channel=6, note=60, velocity=86, time=0),
    Message('note_on', channel=6, note=60, velocity=0, time=160),
    Message('note_on', channel=6, note=60, velocity=86, time=0),
    Message('note_on', channel=6, note=60, velocity=0, time=240),
    Message('note_on', channel=6, note=62, velocity=86, time=0),
    Message('note_on', channel=6, note=62, velocity=0, time=240),
    Message('note_on', channel=6, note=57, velocity=86, time=0),
    Message('note_on', channel=6, note=57, velocity=0, time=80),
    Message('note_on', channel=6, note=60, velocity=86, time=0),
    Message('note_on', channel=6, note=60, velocity=0, time=160),
    Message('note_on', channel=6, note=57, velocity=86, time=0),
    Message('note_on', channel=6, note=57, velocity=0, time=80),
    Message('note_on', channel=6, note=62, velocity=86, time=240),
    Message('note_on', channel=6, note=62, velocity=0, time=160),
    Message('note_on', channel=6, note=53, velocity=86, time=0),
    Message('note_on', channel=6, note=53, velocity=0, time=80),
    Message('note_on', channel=6, note=56, velocity=86, time=0),
    Message('note_on', channel=6, note=56, velocity=0, time=140),
    Message('note_on', channel=6, note=56, velocity=86, time=20),
    Message('note_on', channel=6, note=56, velocity=0, time=80),
    Message('note_on', channel=6, note=56, velocity=86, time=0),
    Message('note_on', channel=6, note=56, velocity=0, time=240),
    Message('note_on', channel=6, note=56, velocity=86, time=0),
    Message('note_on', channel=6, note=56, velocity=0, time=140),
    Message('note_on', channel=6, note=53, velocity=86, time=20),
    Message('note_on', channel=6, note=53, velocity=0, time=80),
    Message('note_on', channel=6, note=56, velocity=86, time=0),
    Message('note_on', channel=6, note=56, velocity=0, time=360),
    Message('note_on', channel=6, note=57, velocity=86, time=600),
    Message('note_on', channel=6, note=57, velocity=0, time=160),
    Message('note_on', channel=6, note=60, velocity=86, time=0),
    Message('note_on', channel=6, note=60, velocity=0, time=80),
    Message('note_on', channel=6, note=60, velocity=86, time=0),
    Message('note_on', channel=6, note=60, velocity=0, time=140),
    Message('note_on', channel=6, note=60, velocity=86, time=100),
    Message('note_on', channel=6, note=60, velocity=0, time=140),
    Message('note_on', channel=6, note=57, velocity=86, time=20),
    Message('note_on', channel=6, note=57, velocity=0, time=80),
    Message('note_on', channel=6, note=62, velocity=86, time=0),
    Message('note_on', channel=6, note=62, velocity=0, time=140),
    Message('note_on', channel=6, note=57, velocity=86, time=20),
    Message('note_on', channel=6, note=57, velocity=0, time=80),
    Message('note_on', channel=6, note=53, velocity=86, time=0),
    Message('note_on', channel=6, note=53, velocity=0, time=140),
    Message('note_on', channel=6, note=53, velocity=86, time=20),
    Message('note_on', channel=6, note=53, velocity=0, time=80),
    Message('note_on', channel=6, note=57, velocity=86, time=0),
    Message('note_on', channel=6, note=57, velocity=0, time=200),
    Message('note_on', channel=6, note=57, velocity=86, time=40),
    Message('note_on', channel=6, note=57, velocity=0, time=400),
    Message('note_on', channel=6, note=53, velocity=86, time=80),
    Message('note_on', channel=6, note=53, velocity=0, time=200),
    Message('note_on', channel=6, note=65, velocity=86, time=920),
    Message('note_on', channel=6, note=65, velocity=0, time=240),
    Message('note_on', channel=6, note=62, velocity=86, time=0),
    Message('note_on', channel=6, note=62, velocity=0, time=80),
    Message('note_on', channel=6, note=60, velocity=86, time=0),
    Message('note_on', channel=6, note=60, velocity=0, time=80),
    Message('note_on', channel=6, note=60, velocity=86, time=80),
    Message('note_on', channel=6, note=60, velocity=0, time=240),
    Message('note_on', channel=6, note=60, velocity=86, time=80),
    Message('note_on', channel=6, note=60, velocity=0, time=240),
    Message('note_on', channel=6, note=60, velocity=86, time=0),
    Message('note_on', channel=6, note=60, velocity=0, time=240),
    Message('note_on', channel=6, note=60, velocity=86, time=0),
    Message('note_on', channel=6, note=60, velocity=0, time=160),
    Message('note_on', channel=6, note=57, velocity=86, time=0),
    Message('note_on', channel=6, note=57, velocity=0, time=80),
    Message('note_on', channel=6, note=60, velocity=86, time=0),
    Message('note_on', channel=6, note=60, velocity=0, time=240),
    Message('note_on', channel=6, note=60, velocity=86, time=0),
    Message('note_on', channel=6, note=60, velocity=0, time=240),
    Message('note_on', channel=6, note=62, velocity=86, time=0),
    Message('note_on', channel=6, note=62, velocity=0, time=160),
    Message('note_on', channel=6, note=60, velocity=86, time=0),
    Message('note_on', channel=6, note=60, velocity=0, time=80),
    Message('note_on', channel=6, note=62, velocity=86, time=0),
    Message('note_on', channel=6, note=62, velocity=0, time=160),
    Message('note_on', channel=6, note=65, velocity=86, time=0),
    Message('note_on', channel=6, note=65, velocity=0, time=260),
    Message('note_on', channel=6, note=62, velocity=86, time=60),
    Message('note_on', channel=6, note=62, velocity=0, time=160),
    Message('note_on', channel=6, note=65, velocity=86, time=0),
    Message('note_on', channel=6, note=65, velocity=0, time=200),
    Message('note_on', channel=6, note=62, velocity=86, time=120),
    Message('note_on', channel=6, note=62, velocity=0, time=160),
    Message('note_on', channel=6, note=65, velocity=86, time=0),
    Message('note_on', channel=6, note=65, velocity=0, time=160),
    Message('note_on', channel=6, note=65, velocity=86, time=100),
    Message('note_on', channel=6, note=65, velocity=0, time=160),
    Message('note_on', channel=6, note=62, velocity=86, time=60),
    Message('note_on', channel=6, note=62, velocity=0, time=160),
    Message('note_on', channel=6, note=60, velocity=86, time=160),
    Message('note_on', channel=6, note=60, velocity=0, time=160),
    Message('note_on', channel=6, note=62, velocity=86, time=0),
    Message('note_on', channel=6, note=62, velocity=0, time=80),
    Message('note_on', channel=6, note=65, velocity=86, time=240),
    Message('note_on', channel=6, note=65, velocity=0, time=180),
    Message('note_on', channel=6, note=62, velocity=86, time=60),
    Message('note_on', channel=6, note=62, velocity=0, time=180),
    Message('note_on', channel=6, note=60, velocity=86, time=60),
    Message('note_on', channel=6, note=60, velocity=0, time=80),
    Message('note_on', channel=6, note=57, velocity=86, time=80),
    Message('note_on', channel=6, note=57, velocity=0, time=80),
    Message('note_on', channel=6, note=55, velocity=86, time=0),
    Message('note_on', channel=6, note=55, velocity=0, time=80),
    Message('note_on', channel=6, note=53, velocity=86, time=0),
    Message('note_on', channel=6, note=53, velocity=0, time=260),
    Message('note_on', channel=6, note=57, velocity=86, time=60),
    Message('note_on', channel=6, note=57, velocity=0, time=200),
    Message('note_on', channel=6, note=50, velocity=86, time=40),
    Message('note_on', channel=6, note=50, velocity=0, time=80),
    Message('note_on', channel=6, note=53, velocity=86, time=0),
    Message('note_on', channel=6, note=53, velocity=0, time=180),
    Message('note_on', channel=6, note=53, velocity=86, time=60),
    Message('note_on', channel=6, note=53, velocity=0, time=240),
    Message('note_on', channel=6, note=60, velocity=68, time=3360),
    Message('note_on', channel=6, note=60, velocity=0, time=120),
    Message('note_on', channel=6, note=57, velocity=55, time=40),
    Message('note_on', channel=6, note=57, velocity=0, time=80),
    Message('note_on', channel=6, note=60, velocity=77, time=0),
    Message('note_on', channel=6, note=60, velocity=0, time=200),
    Message('note_on', channel=6, note=60, velocity=86, time=40),
    Message('note_on', channel=6, note=60, velocity=0, time=200),
    Message('note_on', channel=6, note=60, velocity=77, time=40),
    Message('note_on', channel=6, note=60, velocity=0, time=132),
    Message('note_on', channel=6, note=57, velocity=77, time=28),
    Message('note_on', channel=6, note=57, velocity=0, time=80),
    Message('note_on', channel=6, note=60, velocity=68, time=4),
    Message('note_on', channel=6, note=60, velocity=0, time=114),
    Message('note_on', channel=6, note=57, velocity=68, time=30),
    Message('note_on', channel=6, note=60, velocity=86, time=92),
    Message('note_on', channel=6, note=57, velocity=0, time=8),
    Message('note_on', channel=6, note=60, velocity=0, time=192),
    Message('note_on', channel=6, note=60, velocity=77, time=40),
    Message('note_on', channel=6, note=60, velocity=0, time=200),
    Message('note_on', channel=6, note=62, velocity=95, time=40),
    Message('note_on', channel=6, note=56, velocity=86, time=240),
    Message('note_on', channel=6, note=62, velocity=0, time=32),
    Message('note_on', channel=6, note=56, velocity=0, time=88),
    Message('note_on', channel=6, note=53, velocity=86, time=40),
    Message('note_on', channel=6, note=53, velocity=0, time=80),
    Message('note_on', channel=6, note=56, velocity=95, time=246),
    Message('note_on', channel=6, note=56, velocity=0, time=62),
    Message('note_on', channel=6, note=56, velocity=59, time=90),
    Message('note_on', channel=6, note=56, velocity=0, time=36),
    Message('note_on', channel=6, note=56, velocity=86, time=48),
    Message('note_on', channel=6, note=56, velocity=0, time=120),
    Message('note_on', channel=6, note=53, velocity=95, time=118),
    Message('note_on', channel=6, note=53, velocity=0, time=140),
    Message('note_on', channel=6, note=65, velocity=104, time=36),
    Message('note_on', channel=6, note=65, velocity=0, time=220),
    Message('note_on', channel=6, note=56, velocity=86, time=22),
    Message('note_on', channel=6, note=56, velocity=0, time=160),
    Message('note_on', channel=6, note=53, velocity=86, time=82),
    Message('note_on', channel=6, note=53, velocity=0, time=300),
    Message('note_on', channel=6, note=57, velocity=77, time=400),
    Message('note_on', channel=6, note=57, velocity=0, time=80),
    Message('note_on', channel=6, note=60, velocity=86, time=0),
    Message('note_on', channel=6, note=60, velocity=0, time=140),
    Message('note_on', channel=6, note=57, velocity=86, time=20),
    Message('note_on', channel=6, note=57, velocity=0, time=80),
    Message('note_on', channel=6, note=62, velocity=86, time=0),
    Message('note_on', channel=6, note=53, velocity=86, time=240),
    Message('note_on', channel=6, note=62, velocity=0, time=20),
    Message('note_on', channel=6, note=53, velocity=0, time=140),
    Message('note_on', channel=6, note=56, velocity=86, time=0),
    Message('note_on', channel=6, note=56, velocity=0, time=220),
    Message('note_on', channel=6, note=55, velocity=68, time=100),
    Message('note_on', channel=6, note=55, velocity=0, time=160),
    Message('note_on', channel=6, note=53, velocity=68, time=0),
    Message('note_on', channel=6, note=57, velocity=86, time=80),
    Message('note_on', channel=6, note=53, velocity=0, time=6),
    Message('note_on', channel=6, note=57, velocity=0, time=214),
    Message('note_on', channel=6, note=50, velocity=68, time=28),
    Message('note_on', channel=6, note=50, velocity=0, time=140),
    Message('note_on', channel=6, note=53, velocity=95, time=12),
    Message('note_on', channel=6, note=53, velocity=0, time=792),
    Message('note_on', channel=6, note=60, velocity=86, time=1448),
    Message('note_on', channel=6, note=60, velocity=0, time=140),
    Message('note_on', channel=6, note=57, velocity=68, time=20),
    Message('note_on', channel=6, note=57, velocity=0, time=80),
    Message('note_on', channel=6, note=60, velocity=77, time=0),
    Message('note_on', channel=6, note=60, velocity=0, time=240),
    Message('note_on', channel=6, note=57, velocity=68, time=4),
    Message('note_on', channel=6, note=57, velocity=0, time=114),
    Message('note_on', channel=6, note=60, velocity=68, time=30),
    Message('note_on', channel=6, note=60, velocity=0, time=200),
    Message('note_on', channel=6, note=60, velocity=86, time=32),
    Message('note_on', channel=6, note=60, velocity=0, time=100),
    Message('note_on', channel=6, note=57, velocity=86, time=0),
    Message('note_on', channel=6, note=62, velocity=95, time=160),
    Message('note_on', channel=6, note=57, velocity=0, time=20),
    Message('note_on', channel=6, note=62, velocity=0, time=340),
    Message('note_on', channel=6, note=65, velocity=95, time=446),
    Message('note_on', channel=6, note=65, velocity=0, time=120),
    Message('note_on', channel=6, note=53, velocity=59, time=32),
    Message('note_on', channel=6, note=53, velocity=0, time=80),
    Message('note_on', channel=6, note=56, velocity=86, time=4),
    Message('note_on', channel=6, note=56, velocity=0, time=220),
    Message('note_on', channel=6, note=56, velocity=95, time=18),
    Message('note_on', channel=6, note=56, velocity=0, time=140),
    Message('note_on', channel=6, note=56, velocity=104, time=20),
    Message('note_on', channel=6, note=56, velocity=0, time=220),
    Message('note_on', channel=6, note=56, velocity=86, time=38),
    Message('note_on', channel=6, note=56, velocity=0, time=200),
    Message('note_on', channel=6, note=53, velocity=86, time=22),
    Message('note_on', channel=6, note=53, velocity=0, time=240),
    Message('note_on', channel=6, note=53, velocity=86, time=0),
    Message('note_on', channel=6, note=53, velocity=0, time=80),
    Message('note_on', channel=6, note=56, velocity=86, time=0),
    Message('note_on', channel=6, note=56, velocity=0, time=160),
    Message('note_on', channel=6, note=53, velocity=86, time=0),
    Message('note_on', channel=6, note=53, velocity=0, time=80),
    Message('note_on', channel=6, note=56, velocity=86, time=0),
    Message('note_on', channel=6, note=56, velocity=0, time=240),
    Message('note_on', channel=6, note=53, velocity=77, time=400),
    Message('note_on', channel=6, note=53, velocity=0, time=80),
    Message('note_on', channel=6, note=57, velocity=86, time=0),
    Message('note_on', channel=6, note=60, velocity=86, time=80),
    Message('note_on', channel=6, note=57, velocity=0, time=20),
    Message('note_on', channel=6, note=62, velocity=86, time=60),
    Message('note_on', channel=6, note=60, velocity=0, time=20),
    Message('note_on', channel=6, note=62, velocity=0, time=60),
    Message('note_on', channel=6, note=60, velocity=86, time=0),
    Message('note_on', channel=6, note=60, velocity=0, time=160),
    Message('note_on', channel=6, note=53, velocity=68, time=80),
    Message('note_on', channel=6, note=53, velocity=0, time=160),
    Message('note_on', channel=6, note=56, velocity=86, time=80),
    Message('note_on', channel=6, note=56, velocity=0, time=160),
    Message('note_on', channel=6, note=56, velocity=68, time=0),
    Message('note_on', channel=6, note=56, velocity=0, time=300),
    Message('note_on', channel=6, note=53, velocity=95, time=20),
    Message('note_on', channel=6, note=53, velocity=0, time=792),
    Message('note_on', channel=6, note=57, velocity=86, time=808),
    Message('note_on', channel=6, note=57, velocity=0, time=80),
    Message('note_on', channel=6, note=60, velocity=86, time=0),
    Message('note_on', channel=6, note=60, velocity=0, time=160),
    Message('note_on', channel=6, note=57, velocity=86, time=240),
    Message('note_on', channel=6, note=57, velocity=0, time=80),
    Message('note_on', channel=6, note=60, velocity=86, time=0),
    Message('note_on', channel=6, note=60, velocity=0, time=140),
    Message('note_on', channel=6, note=57, velocity=86, time=20),
    Message('note_on', channel=6, note=57, velocity=0, time=80),
    Message('note_on', channel=6, note=60, velocity=86, time=0),
    Message('note_on', channel=6, note=60, velocity=0, time=240),
    Message('note_on', channel=6, note=57, velocity=86, time=0),
    Message('note_on', channel=6, note=57, velocity=0, time=220),
    Message('note_on', channel=6, note=60, velocity=86, time=20),
    Message('note_on', channel=6, note=60, velocity=0, time=160),
    Message('note_on', channel=6, note=60, velocity=86, time=0),
    Message('note_on', channel=6, note=62, velocity=86, time=240),
    Message('note_on', channel=6, note=60, velocity=0, time=20),
    Message('note_on', channel=6, note=62, velocity=0, time=220),
    Message('note_on', channel=6, note=57, velocity=86, time=0),
    Message('note_on', channel=6, note=57, velocity=0, time=80),
    Message('note_on', channel=6, note=60, velocity=86, time=0),
    Message('note_on', channel=6, note=60, velocity=0, time=140),
    Message('note_on', channel=6, note=57, velocity=86, time=20),
    Message('note_on', channel=6, note=57, velocity=0, time=260),
    Message('note_on', channel=6, note=62, velocity=86, time=60),
    Message('note_on', channel=6, note=62, velocity=0, time=140),
    Message('note_on', channel=6, note=60, velocity=86, time=20),
    Message('note_on', channel=6, note=60, velocity=0, time=80),
    Message('note_on', channel=6, note=62, velocity=86, time=0),
    Message('note_on', channel=6, note=62, velocity=0, time=140),
    Message('note_on', channel=6, note=60, velocity=86, time=20),
    Message('note_on', channel=6, note=60, velocity=0, time=80),
    Message('note_on', channel=6, note=62, velocity=86, time=0),
    Message('note_on', channel=6, note=62, velocity=0, time=140),
    Message('note_on', channel=6, note=62, velocity=86, time=20),
    Message('note_on', channel=6, note=62, velocity=0, time=80),
    Message('note_on', channel=6, note=64, velocity=86, time=0),
    Message('note_on', channel=6, note=62, velocity=86, time=160),
    Message('note_on', channel=6, note=64, velocity=0, time=20),
    Message('note_on', channel=6, note=62, velocity=0, time=60),
    Message('note_on', channel=6, note=60, velocity=86, time=0),
    Message('note_on', channel=6, note=60, velocity=0, time=160),
    Message('note_on', channel=6, note=60, velocity=86, time=0),
    Message('note_on', channel=6, note=60, velocity=0, time=240),
    Message('note_on', channel=6, note=57, velocity=86, time=0),
    Message('note_on', channel=6, note=57, velocity=0, time=80),
    Message('note_on', channel=6, note=60, velocity=86, time=0),
    Message('note_on', channel=6, note=60, velocity=0, time=160),
    Message('note_on', channel=6, note=57, velocity=86, time=0),
    Message('note_on', channel=6, note=57, velocity=0, time=80),
    Message('note_on', channel=6, note=60, velocity=86, time=0),
    Message('note_on', channel=6, note=60, velocity=0, time=160),
    Message('note_on', channel=6, note=57, velocity=86, time=0),
    Message('note_on', channel=6, note=57, velocity=0, time=80),
    Message('note_on', channel=6, note=60, velocity=86, time=0),
    Message('note_on', channel=6, note=60, velocity=0, time=220),
    Message('note_on', channel=6, note=60, velocity=86, time=20),
    Message('note_on', channel=6, note=60, velocity=0, time=220),
    Message('note_on', channel=6, note=60, velocity=86, time=20),
    Message('note_on', channel=6, note=60, velocity=0, time=160),
    Message('note_on', channel=6, note=57, velocity=86, time=0),
    Message('note_on', channel=6, note=57, velocity=0, time=80),
    Message('note_on', channel=6, note=60, velocity=86, time=0),
    Message('note_on', channel=6, note=60, velocity=0, time=160),
    Message('note_on', channel=6, note=60, velocity=86, time=0),
    Message('note_on', channel=6, note=60, velocity=0, time=240),
    Message('note_on', channel=6, note=62, velocity=86, time=0),
    Message('note_on', channel=6, note=62, velocity=0, time=240),
    Message('note_on', channel=6, note=57, velocity=86, time=0),
    Message('note_on', channel=6, note=57, velocity=0, time=80),
    Message('note_on', channel=6, note=60, velocity=86, time=0),
    Message('note_on', channel=6, note=60, velocity=0, time=160),
    Message('note_on', channel=6, note=57, velocity=86, time=0),
    Message('note_on', channel=6, note=57, velocity=0, time=80),
    Message('note_on', channel=6, note=62, velocity=86, time=240),
    Message('note_on', channel=6, note=62, velocity=0, time=160),
    Message('note_on', channel=6, note=53, velocity=86, time=0),
    Message('note_on', channel=6, note=53, velocity=0, time=80),
    Message('note_on', channel=6, note=56, velocity=86, time=0),
    Message('note_on', channel=6, note=56, velocity=0, time=140),
    Message('note_on', channel=6, note=56, velocity=86, time=20),
    Message('note_on', channel=6, note=56, velocity=0, time=80),
    Message('note_on', channel=6, note=56, velocity=86, time=0),
    Message('note_on', channel=6, note=56, velocity=0, time=240),
    Message('note_on', channel=6, note=56, velocity=86, time=0),
    Message('note_on', channel=6, note=56, velocity=0, time=140),
    Message('note_on', channel=6, note=53, velocity=86, time=20),
    Message('note_on', channel=6, note=53, velocity=0, time=80),
    Message('note_on', channel=6, note=56, velocity=86, time=0),
    Message('note_on', channel=6, note=56, velocity=0, time=360),
    Message('note_on', channel=6, note=57, velocity=86, time=600),
    Message('note_on', channel=6, note=57, velocity=0, time=160),
    Message('note_on', channel=6, note=60, velocity=86, time=0),
    Message('note_on', channel=6, note=60, velocity=0, time=80),
    Message('note_on', channel=6, note=60, velocity=86, time=0),
    Message('note_on', channel=6, note=60, velocity=0, time=140),
    Message('note_on', channel=6, note=60, velocity=86, time=100),
    Message('note_on', channel=6, note=60, velocity=0, time=140),
    Message('note_on', channel=6, note=57, velocity=86, time=20),
    Message('note_on', channel=6, note=57, velocity=0, time=80),
    Message('note_on', channel=6, note=62, velocity=86, time=0),
    Message('note_on', channel=6, note=62, velocity=0, time=140),
    Message('note_on', channel=6, note=57, velocity=86, time=20),
    Message('note_on', channel=6, note=57, velocity=0, time=80),
    Message('note_on', channel=6, note=53, velocity=86, time=0),
    Message('note_on', channel=6, note=53, velocity=0, time=140),
    Message('note_on', channel=6, note=53, velocity=86, time=20),
    Message('note_on', channel=6, note=53, velocity=0, time=80),
    Message('note_on', channel=6, note=57, velocity=86, time=0),
    Message('note_on', channel=6, note=57, velocity=0, time=200),
    Message('note_on', channel=6, note=57, velocity=86, time=40),
    Message('note_on', channel=6, note=57, velocity=0, time=400),
    Message('note_on', channel=6, note=53, velocity=86, time=80),
    Message('note_on', channel=6, note=53, velocity=0, time=200),
    Message('note_on', channel=6, note=65, velocity=86, time=920),
    Message('note_on', channel=6, note=65, velocity=0, time=240),
    Message('note_on', channel=6, note=62, velocity=86, time=0),
    Message('note_on', channel=6, note=62, velocity=0, time=80),
    Message('note_on', channel=6, note=60, velocity=86, time=0),
    Message('note_on', channel=6, note=60, velocity=0, time=80),
    Message('note_on', channel=6, note=60, velocity=86, time=80),
    Message('note_on', channel=6, note=60, velocity=0, time=240),
    Message('note_on', channel=6, note=60, velocity=86, time=80),
    Message('note_on', channel=6, note=60, velocity=0, time=240),
    Message('note_on', channel=6, note=60, velocity=86, time=0),
    Message('note_on', channel=6, note=60, velocity=0, time=240),
    Message('note_on', channel=6, note=60, velocity=86, time=0),
    Message('note_on', channel=6, note=60, velocity=0, time=160),
    Message('note_on', channel=6, note=57, velocity=86, time=0),
    Message('note_on', channel=6, note=57, velocity=0, time=80),
    Message('note_on', channel=6, note=60, velocity=86, time=0),
    Message('note_on', channel=6, note=60, velocity=0, time=240),
    Message('note_on', channel=6, note=60, velocity=86, time=0),
    Message('note_on', channel=6, note=60, velocity=0, time=240),
    Message('note_on', channel=6, note=62, velocity=86, time=0),
    Message('note_on', channel=6, note=62, velocity=0, time=160),
    Message('note_on', channel=6, note=60, velocity=86, time=0),
    Message('note_on', channel=6, note=60, velocity=0, time=80),
    Message('note_on', channel=6, note=62, velocity=86, time=0),
    Message('note_on', channel=6, note=62, velocity=0, time=160),
    Message('note_on', channel=6, note=65, velocity=86, time=0),
    Message('note_on', channel=6, note=65, velocity=0, time=260),
    Message('note_on', channel=6, note=62, velocity=86, time=60),
    Message('note_on', channel=6, note=62, velocity=0, time=160),
    Message('note_on', channel=6, note=65, velocity=86, time=0),
    Message('note_on', channel=6, note=65, velocity=0, time=200),
    Message('note_on', channel=6, note=62, velocity=86, time=120),
    Message('note_on', channel=6, note=62, velocity=0, time=160),
    Message('note_on', channel=6, note=65, velocity=86, time=0),
    Message('note_on', channel=6, note=65, velocity=0, time=160),
    Message('note_on', channel=6, note=65, velocity=86, time=100),
    Message('note_on', channel=6, note=65, velocity=0, time=160),
    Message('note_on', channel=6, note=62, velocity=86, time=60),
    Message('note_on', channel=6, note=62, velocity=0, time=160),
    Message('note_on', channel=6, note=60, velocity=86, time=160),
    Message('note_on', channel=6, note=60, velocity=0, time=160),
    Message('note_on', channel=6, note=62, velocity=86, time=0),
    Message('note_on', channel=6, note=62, velocity=0, time=80),
    Message('note_on', channel=6, note=65, velocity=86, time=240),
    Message('note_on', channel=6, note=65, velocity=0, time=180),
    Message('note_on', channel=6, note=62, velocity=86, time=60),
    Message('note_on', channel=6, note=62, velocity=0, time=180),
    Message('note_on', channel=6, note=60, velocity=86, time=60),
    Message('note_on', channel=6, note=60, velocity=0, time=80),
    Message('note_on', channel=6, note=57, velocity=86, time=80),
    Message('note_on', channel=6, note=57, velocity=0, time=80),
    Message('note_on', channel=6, note=55, velocity=86, time=0),
    Message('note_on', channel=6, note=55, velocity=0, time=80),
    Message('note_on', channel=6, note=53, velocity=86, time=0),
    Message('note_on', channel=6, note=53, velocity=0, time=260),
    Message('note_on', channel=6, note=57, velocity=86, time=60),
    Message('note_on', channel=6, note=57, velocity=0, time=200),
    Message('note_on', channel=6, note=50, velocity=86, time=40),
    Message('note_on', channel=6, note=50, velocity=0, time=80),
    Message('note_on', channel=6, note=53, velocity=86, time=0),
    Message('note_on', channel=6, note=53, velocity=0, time=180),
    Message('note_on', channel=6, note=53, velocity=86, time=60),
    Message('note_on', channel=6, note=53, velocity=0, time=240),
    Message('note_on', channel=6, note=57, velocity=86, time=7600),
    Message('note_on', channel=6, note=57, velocity=0, time=220),
    Message('note_on', channel=6, note=60, velocity=86, time=20),
    Message('note_on', channel=6, note=60, velocity=0, time=80),
    Message('note_on', channel=6, note=60, velocity=86, time=0),
    Message('note_on', channel=6, note=60, velocity=0, time=400),
    Message('note_on', channel=6, note=60, velocity=86, time=80),
    Message('note_on', channel=6, note=60, velocity=0, time=220),
    Message('note_on', channel=6, note=57, velocity=86, time=20),
    Message('note_on', channel=6, note=57, velocity=0, time=160),
    Message('note_on', channel=6, note=62, velocity=86, time=20),
    Message('note_on', channel=6, note=57, velocity=86, time=300),
    Message('note_on', channel=6, note=62, velocity=0, time=40),
    Message('note_on', channel=6, note=57, velocity=0, time=120),
    Message('note_on', channel=6, note=60, velocity=86, time=0),
    Message('note_on', channel=6, note=60, velocity=0, time=120),
    Message('note_on', channel=6, note=62, velocity=86, time=40),
    Message('note_on', channel=6, note=62, velocity=0, time=160),
    Message('note_on', channel=6, note=60, velocity=86, time=0),
    Message('note_on', channel=6, note=60, velocity=0, time=120),
    Message('note_on', channel=6, note=60, velocity=86, time=40),
    Message('note_on', channel=6, note=60, velocity=0, time=200),
    Message('note_on', channel=6, note=57, velocity=86, time=40),
    Message('note_on', channel=6, note=57, velocity=0, time=120),
    Message('note_on', channel=6, note=57, velocity=86, time=40),
    Message('note_on', channel=6, note=57, velocity=0, time=80),
    Message('note_on', channel=6, note=58, velocity=86, time=0),
    Message('note_on', channel=6, note=58, velocity=0, time=80),
    Message('note_on', channel=6, note=57, velocity=55, time=0),
    Message('note_on', channel=6, note=57, velocity=0, time=80),
    Message('note_on', channel=6, note=55, velocity=50, time=0),
    Message('note_on', channel=6, note=55, velocity=0, time=80),
    Message('note_on', channel=6, note=53, velocity=62, time=0),
    Message('note_on', channel=6, note=53, velocity=0, time=280),
    Message('note_on', channel=6, note=60, velocity=86, time=280),
    Message('note_on', channel=6, note=60, velocity=0, time=140),
    Message('note_on', channel=6, note=60, velocity=86, time=20),
    Message('note_on', channel=6, note=60, velocity=0, time=80),
    Message('note_on', channel=6, note=60, velocity=86, time=0),
    Message('note_on', channel=6, note=60, velocity=0, time=240),
    Message('note_on', channel=6, note=57, velocity=86, time=0),
    Message('note_on', channel=6, note=57, velocity=0, time=160),
    Message('note_on', channel=6, note=60, velocity=86, time=0),
    Message('note_on', channel=6, note=60, velocity=0, time=320),
    Message('note_on', channel=6, note=57, velocity=86, time=0),
    Message('note_on', channel=6, note=57, velocity=0, time=160),
    Message('note_on', channel=6, note=60, velocity=86, time=0),
    Message('note_on', channel=6, note=60, velocity=0, time=240),
    Message('note_on', channel=6, note=62, velocity=86, time=0),
    Message('note_on', channel=6, note=62, velocity=0, time=280),
    Message('note_on', channel=6, note=64, velocity=86, time=520),
    Message('note_on', channel=6, note=64, velocity=0, time=160),
    Message('note_on', channel=6, note=64, velocity=86, time=80),
    Message('note_on', channel=6, note=64, velocity=0, time=160),
    Message('note_on', channel=6, note=64, velocity=86, time=20),
    Message('note_on', channel=6, note=64, velocity=0, time=200),
    Message('note_on', channel=6, note=62, velocity=86, time=20),
    Message('note_on', channel=6, note=62, velocity=0, time=80),
    Message('note_on', channel=6, note=60, velocity=86, time=0),
    Message('note_on', channel=6, note=60, velocity=0, time=120),
    Message('note_on', channel=6, note=60, velocity=86, time=40),
    Message('note_on', channel=6, note=60, velocity=0, time=460),
    Message('note_on', channel=6, note=65, velocity=86, time=20),
    Message('note_on', channel=6, note=62, velocity=86, time=240),
    Message('note_on', channel=6, note=65, velocity=0, time=20),
    Message('note_on', channel=6, note=62, velocity=0, time=60),
    Message('note_on', channel=6, note=60, velocity=86, time=0),
    Message('note_on', channel=6, note=60, velocity=0, time=80),
    Message('note_on', channel=6, note=60, velocity=86, time=80),
    Message('note_on', channel=6, note=60, velocity=0, time=220),
    Message('note_on', channel=6, note=57, velocity=86, time=20),
    Message('note_on', channel=6, note=57, velocity=0, time=80),
    Message('note_on', channel=6, note=60, velocity=86, time=0),
    Message('note_on', channel=6, note=60, velocity=0, time=220),
    Message('note_on', channel=6, note=60, velocity=86, time=20),
    Message('note_on', channel=6, note=60, velocity=0, time=220),
    Message('note_on', channel=6, note=60, velocity=86, time=20),
    Message('note_on', channel=6, note=60, velocity=0, time=160),
    Message('note_on', channel=6, note=57, velocity=86, time=0),
    Message('note_on', channel=6, note=57, velocity=0, time=80),
    Message('note_on', channel=6, note=60, velocity=86, time=0),
    Message('note_on', channel=6, note=60, velocity=0, time=160),
    Message('note_on', channel=6, note=60, velocity=86, time=0),
    Message('note_on', channel=6, note=60, velocity=0, time=240),
    Message('note_on', channel=6, note=62, velocity=86, time=0),
    Message('note_on', channel=6, note=62, velocity=0, time=240),
    Message('note_on', channel=6, note=57, velocity=86, time=0),
    Message('note_on', channel=6, note=57, velocity=0, time=80),
    Message('note_on', channel=6, note=60, velocity=86, time=0),
    Message('note_on', channel=6, note=60, velocity=0, time=160),
    Message('note_on', channel=6, note=57, velocity=86, time=0),
    Message('note_on', channel=6, note=57, velocity=0, time=80),
    Message('note_on', channel=6, note=62, velocity=86, time=240),
    Message('note_on', channel=6, note=62, velocity=0, time=160),
    Message('note_on', channel=6, note=53, velocity=86, time=0),
    Message('note_on', channel=6, note=53, velocity=0, time=80),
    Message('note_on', channel=6, note=56, velocity=86, time=0),
    Message('note_on', channel=6, note=56, velocity=0, time=140),
    Message('note_on', channel=6, note=56, velocity=86, time=20),
    Message('note_on', channel=6, note=56, velocity=0, time=80),
    Message('note_on', channel=6, note=56, velocity=86, time=0),
    Message('note_on', channel=6, note=56, velocity=0, time=240),
    Message('note_on', channel=6, note=56, velocity=86, time=0),
    Message('note_on', channel=6, note=56, velocity=0, time=140),
    Message('note_on', channel=6, note=53, velocity=86, time=20),
    Message('note_on', channel=6, note=53, velocity=0, time=80),
    Message('note_on', channel=6, note=56, velocity=86, time=0),
    Message('note_on', channel=6, note=56, velocity=0, time=360),
    Message('note_on', channel=6, note=57, velocity=86, time=600),
    Message('note_on', channel=6, note=57, velocity=0, time=160),
    Message('note_on', channel=6, note=60, velocity=86, time=0),
    Message('note_on', channel=6, note=60, velocity=0, time=80),
    Message('note_on', channel=6, note=60, velocity=86, time=0),
    Message('note_on', channel=6, note=60, velocity=0, time=140),
    Message('note_on', channel=6, note=60, velocity=86, time=100),
    Message('note_on', channel=6, note=60, velocity=0, time=140),
    Message('note_on', channel=6, note=57, velocity=86, time=20),
    Message('note_on', channel=6, note=57, velocity=0, time=80),
    Message('note_on', channel=6, note=62, velocity=86, time=0),
    Message('note_on', channel=6, note=62, velocity=0, time=140),
    Message('note_on', channel=6, note=57, velocity=86, time=20),
    Message('note_on', channel=6, note=57, velocity=0, time=80),
    Message('note_on', channel=6, note=53, velocity=86, time=0),
    Message('note_on', channel=6, note=53, velocity=0, time=140),
    Message('note_on', channel=6, note=53, velocity=86, time=20),
    Message('note_on', channel=6, note=53, velocity=0, time=80),
    Message('note_on', channel=6, note=57, velocity=86, time=0),
    Message('note_on', channel=6, note=57, velocity=0, time=200),
    Message('note_on', channel=6, note=57, velocity=86, time=40),
    Message('note_on', channel=6, note=57, velocity=0, time=400),
    Message('note_on', channel=6, note=53, velocity=86, time=80),
    Message('note_on', channel=6, note=53, velocity=0, time=200),
    Message('note_on', channel=6, note=65, velocity=86, time=920),
    Message('note_on', channel=6, note=65, velocity=0, time=240),
    Message('note_on', channel=6, note=62, velocity=86, time=0),
    Message('note_on', channel=6, note=62, velocity=0, time=80),
    Message('note_on', channel=6, note=60, velocity=86, time=0),
    Message('note_on', channel=6, note=60, velocity=0, time=80),
    Message('note_on', channel=6, note=60, velocity=86, time=80),
    Message('note_on', channel=6, note=60, velocity=0, time=240),
    Message('note_on', channel=6, note=60, velocity=86, time=80),
    Message('note_on', channel=6, note=60, velocity=0, time=240),
    Message('note_on', channel=6, note=60, velocity=86, time=0),
    Message('note_on', channel=6, note=60, velocity=0, time=240),
    Message('note_on', channel=6, note=60, velocity=86, time=0),
    Message('note_on', channel=6, note=60, velocity=0, time=160),
    Message('note_on', channel=6, note=57, velocity=86, time=0),
    Message('note_on', channel=6, note=57, velocity=0, time=80),
    Message('note_on', channel=6, note=60, velocity=86, time=0),
    Message('note_on', channel=6, note=60, velocity=0, time=240),
    Message('note_on', channel=6, note=60, velocity=86, time=0),
    Message('note_on', channel=6, note=60, velocity=0, time=240),
    Message('note_on', channel=6, note=62, velocity=86, time=0),
    Message('note_on', channel=6, note=62, velocity=0, time=160),
    Message('note_on', channel=6, note=60, velocity=86, time=0),
    Message('note_on', channel=6, note=60, velocity=0, time=80),
    Message('note_on', channel=6, note=62, velocity=86, time=0),
    Message('note_on', channel=6, note=62, velocity=0, time=160),
    Message('note_on', channel=6, note=65, velocity=86, time=0),
    Message('note_on', channel=6, note=65, velocity=0, time=260),
    Message('note_on', channel=6, note=62, velocity=86, time=60),
    Message('note_on', channel=6, note=62, velocity=0, time=160),
    Message('note_on', channel=6, note=65, velocity=86, time=0),
    Message('note_on', channel=6, note=65, velocity=0, time=200),
    Message('note_on', channel=6, note=62, velocity=86, time=120),
    Message('note_on', channel=6, note=62, velocity=0, time=160),
    Message('note_on', channel=6, note=65, velocity=86, time=0),
    Message('note_on', channel=6, note=65, velocity=0, time=160),
    Message('note_on', channel=6, note=65, velocity=86, time=100),
    Message('note_on', channel=6, note=65, velocity=0, time=160),
    Message('note_on', channel=6, note=62, velocity=86, time=60),
    Message('note_on', channel=6, note=62, velocity=0, time=160),
    Message('note_on', channel=6, note=60, velocity=86, time=160),
    Message('note_on', channel=6, note=60, velocity=0, time=160),
    Message('note_on', channel=6, note=62, velocity=86, time=0),
    Message('note_on', channel=6, note=62, velocity=0, time=80),
    Message('note_on', channel=6, note=65, velocity=86, time=240),
    Message('note_on', channel=6, note=65, velocity=0, time=180),
    Message('note_on', channel=6, note=62, velocity=86, time=60),
    Message('note_on', channel=6, note=62, velocity=0, time=180),
    Message('note_on', channel=6, note=60, velocity=86, time=60),
    Message('note_on', channel=6, note=60, velocity=0, time=80),
    Message('note_on', channel=6, note=57, velocity=86, time=80),
    Message('note_on', channel=6, note=57, velocity=0, time=80),
    Message('note_on', channel=6, note=55, velocity=86, time=0),
    Message('note_on', channel=6, note=55, velocity=0, time=80),
    Message('note_on', channel=6, note=53, velocity=86, time=0),
    Message('note_on', channel=6, note=53, velocity=0, time=260),
    Message('note_on', channel=6, note=62, velocity=86, time=140),
    Message('note_on', channel=6, note=62, velocity=0, time=160),
    Message('note_on', channel=6, note=65, velocity=86, time=0),
    Message('note_on', channel=6, note=65, velocity=0, time=220),
    Message('note_on', channel=6, note=60, velocity=86, time=240),
    Message('note_on', channel=6, note=60, velocity=0, time=100),
    Message('note_on', channel=6, note=65, velocity=86, time=0),
    Message('note_on', channel=6, note=65, velocity=0, time=180),
    Message('note_on', channel=6, note=62, velocity=86, time=60),
    Message('note_on', channel=6, note=62, velocity=0, time=180),
    Message('note_on', channel=6, note=60, velocity=86, time=60),
    Message('note_on', channel=6, note=60, velocity=0, time=120),
    Message('note_on', channel=6, note=57, velocity=86, time=40),
    Message('note_on', channel=6, note=57, velocity=0, time=80),
    Message('note_on', channel=6, note=55, velocity=86, time=0),
    Message('note_on', channel=6, note=55, velocity=0, time=80),
    Message('note_on', channel=6, note=53, velocity=86, time=0),
    Message('note_on', channel=6, note=53, velocity=0, time=260),
    Message('note_on', channel=6, note=62, velocity=86, time=140),
    Message('note_on', channel=6, note=62, velocity=0, time=160),
    Message('note_on', channel=6, note=65, velocity=86, time=0),
    Message('note_on', channel=6, note=65, velocity=0, time=220),
    Message('note_on', channel=6, note=60, velocity=86, time=240),
    Message('note_on', channel=6, note=60, velocity=0, time=100),
    Message('note_on', channel=6, note=65, velocity=86, time=0),
    Message('note_on', channel=6, note=65, velocity=0, time=180),
    Message('note_on', channel=6, note=62, velocity=86, time=60),
    Message('note_on', channel=6, note=62, velocity=0, time=180),
    Message('note_on', channel=6, note=60, velocity=86, time=60),
    Message('note_on', channel=6, note=60, velocity=0, time=120),
    Message('note_on', channel=6, note=57, velocity=86, time=40),
    Message('note_on', channel=6, note=57, velocity=0, time=80),
    Message('note_on', channel=6, note=55, velocity=86, time=0),
    Message('note_on', channel=6, note=55, velocity=0, time=80),
    Message('note_on', channel=6, note=53, velocity=86, time=0),
    Message('note_on', channel=6, note=53, velocity=0, time=280),
    Message('note_on', channel=6, note=57, velocity=86, time=40),
    Message('note_on', channel=6, note=57, velocity=0, time=200),
    Message('note_on', channel=6, note=50, velocity=86, time=40),
    Message('note_on', channel=6, note=50, velocity=0, time=80),
    Message('note_on', channel=6, note=53, velocity=86, time=0),
    Message('note_on', channel=6, note=53, velocity=0, time=180),
    Message('note_on', channel=6, note=53, velocity=86, time=60),
    Message('note_on', channel=6, note=53, velocity=0, time=240),
    Message('note_on', channel=6, note=57, velocity=95, time=1920),
    Message('note_on', channel=6, note=57, velocity=0, time=940),
    Message('note_on', channel=6, note=57, velocity=95, time=20),
    Message('note_on', channel=6, note=57, velocity=0, time=240),
    Message('note_on', channel=6, note=57, velocity=95, time=0),
    Message('note_on', channel=6, note=57, velocity=0, time=140),
    Message('note_on', channel=6, note=50, velocity=95, time=20),
    Message('note_on', channel=6, note=50, velocity=0, time=80),
    Message('note_on', channel=6, note=53, velocity=95, time=0),
    Message('note_on', channel=6, note=53, velocity=0, time=180),
    Message('note_on', channel=6, note=53, velocity=95, time=60),
    Message('note_on', channel=6, note=53, velocity=0, time=340),
    MetaMessage('end_of_track', time=0)]),
  MidiTrack([
    MetaMessage('midi_port', port=0, time=0),
    MetaMessage('channel_prefix', channel=7, time=0),
    Message('program_change', channel=7, program=29, time=0),
    Message('control_change', channel=7, control=7, value=114, time=0),
    Message('note_on', channel=7, note=53, velocity=83, time=960),
    Message('pitchwheel', channel=7, pitch=-127, time=132),
    Message('pitchwheel', channel=7, pitch=-127, time=14),
    Message('pitchwheel', channel=7, pitch=-127, time=120),
    Message('pitchwheel', channel=7, pitch=1, time=46),
    Message('pitchwheel', channel=7, pitch=-127, time=34),
    Message('pitchwheel', channel=7, pitch=-255, time=46),
    Message('pitchwheel', channel=7, pitch=-383, time=14),
    Message('pitchwheel', channel=7, pitch=-639, time=6),
    Message('pitchwheel', channel=7, pitch=-1023, time=8),
    Message('pitchwheel', channel=7, pitch=-1919, time=6),
    Message('pitchwheel', channel=7, pitch=-2431, time=6),
    Message('pitchwheel', channel=7, pitch=-3071, time=8),
    Message('pitchwheel', channel=7, pitch=-3711, time=6),
    Message('pitchwheel', channel=7, pitch=-4479, time=6),
    Message('pitchwheel', channel=7, pitch=-7935, time=8),
    Message('pitchwheel', channel=7, pitch=-8191, time=6),
    Message('note_off', channel=7, note=53, velocity=0, time=34),
    Message('pitchwheel', channel=7, pitch=-127, time=6),
    Message('note_on', channel=7, note=53, velocity=82, time=464),
    Message('pitchwheel', channel=7, pitch=-383, time=336),
    Message('pitchwheel', channel=7, pitch=-511, time=46),
    Message('pitchwheel', channel=7, pitch=-639, time=8),
    Message('pitchwheel', channel=7, pitch=-895, time=12),
    Message('pitchwheel', channel=7, pitch=-1279, time=8),
    Message('pitchwheel', channel=7, pitch=-1663, time=6),
    Message('pitchwheel', channel=7, pitch=-1919, time=6),
    Message('pitchwheel', channel=7, pitch=-2303, time=8),
    Message('pitchwheel', channel=7, pitch=-2687, time=6),
    Message('pitchwheel', channel=7, pitch=-2943, time=6),
    Message('pitchwheel', channel=7, pitch=-3455, time=8),
    Message('pitchwheel', channel=7, pitch=-8191, time=6),
    Message('pitchwheel', channel=7, pitch=-7807, time=14),
    Message('pitchwheel', channel=7, pitch=-7935, time=6),
    Message('note_off', channel=7, note=53, velocity=0, time=4),
    Message('pitchwheel', channel=7, pitch=-127, time=16),
    Message('note_on', channel=7, note=53, velocity=79, time=454),
    Message('pitchwheel', channel=7, pitch=-383, time=340),
    Message('pitchwheel', channel=7, pitch=-511, time=46),
    Message('pitchwheel', channel=7, pitch=-639, time=8),
    Message('pitchwheel', channel=7, pitch=-895, time=12),
    Message('pitchwheel', channel=7, pitch=-1279, time=8),
    Message('pitchwheel', channel=7, pitch=-1663, time=6),
    Message('pitchwheel', channel=7, pitch=-1919, time=6),
    Message('pitchwheel', channel=7, pitch=-2687, time=14),
    Message('pitchwheel', channel=7, pitch=-2943, time=6),
    Message('pitchwheel', channel=7, pitch=-3455, time=8),
    Message('pitchwheel', channel=7, pitch=-8191, time=6),
    Message('pitchwheel', channel=7, pitch=-7807, time=14),
    Message('note_off', channel=7, note=53, velocity=0, time=6),
    Message('pitchwheel', channel=7, pitch=-7935, time=0),
    Message('pitchwheel', channel=7, pitch=-127, time=20),
    Message('note_on', channel=7, note=57, velocity=82, time=470),
    Message('note_on', channel=7, note=55, velocity=78, time=470),
    Message('note_on', channel=7, note=57, velocity=0, time=10),
    Message('note_on', channel=7, note=55, velocity=0, time=470),
    Message('note_on', channel=7, note=53, velocity=85, time=10),
    Message('pitchwheel', channel=7, pitch=-383, time=310),
    Message('pitchwheel', channel=7, pitch=-511, time=46),
    Message('pitchwheel', channel=7, pitch=-639, time=8),
    Message('pitchwheel', channel=7, pitch=-895, time=12),
    Message('pitchwheel', channel=7, pitch=-1279, time=8),
    Message('pitchwheel', channel=7, pitch=-1663, time=6),
    Message('pitchwheel', channel=7, pitch=-1919, time=6),
    Message('pitchwheel', channel=7, pitch=-2687, time=14),
    Message('pitchwheel', channel=7, pitch=-2943, time=6),
    Message('pitchwheel', channel=7, pitch=-3455, time=8),
    Message('pitchwheel', channel=7, pitch=-8191, time=6),
    Message('pitchwheel', channel=7, pitch=-7807, time=14),
    Message('pitchwheel', channel=7, pitch=-7935, time=6),
    Message('note_off', channel=7, note=53, velocity=0, time=10),
    Message('pitchwheel', channel=7, pitch=-127, time=10),
    Message('note_on', channel=7, note=53, velocity=81, time=480),
    Message('pitchwheel', channel=7, pitch=-383, time=340),
    Message('pitchwheel', channel=7, pitch=-511, time=46),
    Message('pitchwheel', channel=7, pitch=-639, time=8),
    Message('pitchwheel', channel=7, pitch=-895, time=12),
    Message('pitchwheel', channel=7, pitch=-1279, time=8),
    Message('pitchwheel', channel=7, pitch=-1663, time=6),
    Message('pitchwheel', channel=7, pitch=-1919, time=6),
    Message('pitchwheel', channel=7, pitch=-2687, time=14),
    Message('pitchwheel', channel=7, pitch=-2943, time=6),
    Message('pitchwheel', channel=7, pitch=-3455, time=8),
    Message('note_off', channel=7, note=53, velocity=0, time=6),
    Message('pitchwheel', channel=7, pitch=-8191, time=0),
    Message('pitchwheel', channel=7, pitch=-7807, time=14),
    Message('pitchwheel', channel=7, pitch=-7935, time=6),
    Message('pitchwheel', channel=7, pitch=-127, time=20),
    Message('note_on', channel=7, note=53, velocity=81, time=460),
    Message('pitchwheel', channel=7, pitch=-383, time=340),
    Message('pitchwheel', channel=7, pitch=-511, time=46),
    Message('pitchwheel', channel=7, pitch=-639, time=8),
    Message('pitchwheel', channel=7, pitch=-895, time=12),
    Message('pitchwheel', channel=7, pitch=-1279, time=8),
    Message('pitchwheel', channel=7, pitch=-1663, time=6),
    Message('pitchwheel', channel=7, pitch=-1919, time=6),
    Message('pitchwheel', channel=7, pitch=-2687, time=14),
    Message('pitchwheel', channel=7, pitch=-2943, time=6),
    Message('pitchwheel', channel=7, pitch=-3455, time=8),
    Message('pitchwheel', channel=7, pitch=-8191, time=6),
    Message('pitchwheel', channel=7, pitch=-7807, time=14),
    Message('note_off', channel=7, note=53, velocity=0, time=6),
    Message('pitchwheel', channel=7, pitch=-7935, time=0),
    Message('pitchwheel', channel=7, pitch=-127, time=20),
    Message('note_on', channel=7, note=57, velocity=93, time=460),
    Message('note_on', channel=7, note=57, velocity=0, time=240),
    Message('note_on', channel=7, note=55, velocity=76, time=6),
    Message('note_on', channel=7, note=53, velocity=85, time=154),
    Message('note_on', channel=7, note=55, velocity=0, time=8),
    Message('note_on', channel=7, note=53, velocity=0, time=70),
    Message('note_on', channel=7, note=55, velocity=56, time=2),
    Message('note_on', channel=7, note=53, velocity=85, time=160),
    Message('note_on', channel=7, note=55, velocity=0, time=6),
    Message('note_on', channel=7, note=53, velocity=0, time=74),
    Message('note_on', channel=7, note=50, velocity=72, time=0),
    Message('note_on', channel=7, note=53, velocity=96, time=154),
    Message('note_on', channel=7, note=50, velocity=0, time=16),
    Message('note_on', channel=7, note=53, velocity=0, time=142),
    Message('note_on', channel=7, note=46, velocity=63, time=15288),
    Message('note_on', channel=7, note=46, velocity=0, time=960),
    Message('note_on', channel=7, note=48, velocity=59, time=0),
    Message('note_on', channel=7, note=48, velocity=0, time=960),
    Message('note_on', channel=7, note=50, velocity=58, time=0),
    Message('note_on', channel=7, note=50, velocity=0, time=960),
    Message('note_on', channel=7, note=52, velocity=58, time=0),
    Message('note_on', channel=7, note=52, velocity=0, time=960),
    Message('note_on', channel=7, note=41, velocity=64, time=0),
    Message('note_on', channel=7, note=41, velocity=0, time=960),
    Message('note_on', channel=7, note=48, velocity=69, time=0),
    Message('note_on', channel=7, note=48, velocity=0, time=960),
    Message('note_on', channel=7, note=46, velocity=67, time=0),
    Message('note_on', channel=7, note=46, velocity=0, time=960),
    Message('note_on', channel=7, note=48, velocity=69, time=10),
    Message('note_on', channel=7, note=41, velocity=66, time=958),
    Message('note_on', channel=7, note=48, velocity=0, time=16),
    Message('note_on', channel=7, note=48, velocity=69, time=940),
    Message('note_on', channel=7, note=41, velocity=0, time=40),
    Message('note_on', channel=7, note=50, velocity=58, time=914),
    Message('note_on', channel=7, note=48, velocity=0, time=30),
    Message('note_on', channel=7, note=48, velocity=60, time=446),
    Message('note_on', channel=7, note=50, velocity=0, time=36),
    Message('note_on', channel=7, note=46, velocity=57, time=442),
    Message('note_on', channel=7, note=48, velocity=0, time=42),
    Message('note_on', channel=7, note=46, velocity=0, time=412),
    Message('note_on', channel=7, note=48, velocity=64, time=34),
    Message('note_on', channel=7, note=50, velocity=68, time=160),
    Message('note_on', channel=7, note=48, velocity=0, time=32),
    Message('note_on', channel=7, note=50, velocity=0, time=48),
    Message('note_on', channel=7, note=53, velocity=79, time=0),
    Message('note_on', channel=7, note=48, velocity=63, time=1196),
    Message('note_on', channel=7, note=53, velocity=0, time=12),
    Message('note_on', channel=7, note=43, velocity=66, time=952),
    Message('note_on', channel=7, note=48, velocity=0, time=20),
    Message('note_on', channel=7, note=45, velocity=66, time=456),
    Message('note_on', channel=7, note=43, velocity=0, time=40),
    Message('note_on', channel=7, note=46, velocity=64, time=444),
    Message('note_on', channel=7, note=45, velocity=0, time=54),
    Message('note_on', channel=7, note=48, velocity=63, time=436),
    Message('note_on', channel=7, note=46, velocity=0, time=6),
    Message('note_on', channel=7, note=50, velocity=65, time=450),
    Message('note_on', channel=7, note=48, velocity=0, time=28),
    Message('note_on', channel=7, note=48, velocity=72, time=460),
    Message('note_on', channel=7, note=50, velocity=0, time=22),
    Message('note_on', channel=7, note=46, velocity=68, time=458),
    Message('note_on', channel=7, note=48, velocity=0, time=14),
    Message('note_on', channel=7, note=48, velocity=76, time=480),
    Message('note_on', channel=7, note=46, velocity=0, time=22),
    Message('note_on', channel=7, note=48, velocity=0, time=424),
    Message('note_on', channel=7, note=53, velocity=68, time=36),
    Message('pitchwheel', channel=7, pitch=-383, time=310),
    Message('pitchwheel', channel=7, pitch=-511, time=46),
    Message('pitchwheel', channel=7, pitch=-639, time=8),
    Message('pitchwheel', channel=7, pitch=-895, time=12),
    Message('pitchwheel', channel=7, pitch=-1279, time=8),
    Message('pitchwheel', channel=7, pitch=-1663, time=6),
    Message('pitchwheel', channel=7, pitch=-1919, time=6),
    Message('pitchwheel', channel=7, pitch=-2687, time=14),
    Message('pitchwheel', channel=7, pitch=-2943, time=6),
    Message('pitchwheel', channel=7, pitch=-3455, time=8),
    Message('pitchwheel', channel=7, pitch=-8191, time=6),
    Message('pitchwheel', channel=7, pitch=-7807, time=14),
    Message('pitchwheel', channel=7, pitch=-7935, time=6),
    Message('note_off', channel=7, note=53, velocity=0, time=10),
    Message('pitchwheel', channel=7, pitch=-127, time=10),
    Message('note_on', channel=7, note=53, velocity=64, time=480),
    Message('pitchwheel', channel=7, pitch=-383, time=340),
    Message('pitchwheel', channel=7, pitch=-511, time=46),
    Message('pitchwheel', channel=7, pitch=-639, time=8),
    Message('pitchwheel', channel=7, pitch=-895, time=12),
    Message('pitchwheel', channel=7, pitch=-1279, time=8),
    Message('pitchwheel', channel=7, pitch=-1663, time=6),
    Message('pitchwheel', channel=7, pitch=-1919, time=6),
    Message('pitchwheel', channel=7, pitch=-2687, time=14),
    Message('pitchwheel', channel=7, pitch=-2943, time=6),
    Message('pitchwheel', channel=7, pitch=-3455, time=8),
    Message('note_off', channel=7, note=53, velocity=0, time=6),
    Message('pitchwheel', channel=7, pitch=-8191, time=0),
    Message('pitchwheel', channel=7, pitch=-7807, time=14),
    Message('pitchwheel', channel=7, pitch=-7935, time=6),
    Message('pitchwheel', channel=7, pitch=-127, time=20),
    Message('note_on', channel=7, note=53, velocity=64, time=460),
    Message('pitchwheel', channel=7, pitch=-383, time=340),
    Message('pitchwheel', channel=7, pitch=-511, time=46),
    Message('pitchwheel', channel=7, pitch=-639, time=8),
    Message('pitchwheel', channel=7, pitch=-895, time=12),
    Message('pitchwheel', channel=7, pitch=-1279, time=8),
    Message('pitchwheel', channel=7, pitch=-1663, time=6),
    Message('pitchwheel', channel=7, pitch=-1919, time=6),
    Message('pitchwheel', channel=7, pitch=-2687, time=14),
    Message('pitchwheel', channel=7, pitch=-2943, time=6),
    Message('pitchwheel', channel=7, pitch=-3455, time=8),
    Message('pitchwheel', channel=7, pitch=-8191, time=6),
    Message('pitchwheel', channel=7, pitch=-7807, time=14),
    Message('note_off', channel=7, note=53, velocity=0, time=6),
    Message('pitchwheel', channel=7, pitch=-7935, time=0),
    Message('pitchwheel', channel=7, pitch=-127, time=20),
    Message('note_on', channel=7, note=57, velocity=80, time=460),
    Message('note_on', channel=7, note=57, velocity=0, time=240),
    Message('note_on', channel=7, note=55, velocity=69, time=6),
    Message('note_on', channel=7, note=53, velocity=74, time=154),
    Message('note_on', channel=7, note=55, velocity=0, time=8),
    Message('note_on', channel=7, note=53, velocity=0, time=70),
    Message('note_on', channel=7, note=55, velocity=68, time=2),
    Message('note_on', channel=7, note=53, velocity=70, time=160),
    Message('note_on', channel=7, note=55, velocity=0, time=6),
    Message('note_on', channel=7, note=53, velocity=0, time=74),
    Message('note_on', channel=7, note=50, velocity=72, time=0),
    Message('note_on', channel=7, note=53, velocity=96, time=154),
    Message('note_on', channel=7, note=50, velocity=0, time=16),
    Message('note_on', channel=7, note=53, velocity=0, time=142),
    Message('note_on', channel=7, note=46, velocity=77, time=15288),
    Message('note_on', channel=7, note=46, velocity=0, time=960),
    Message('note_on', channel=7, note=48, velocity=78, time=0),
    Message('note_on', channel=7, note=48, velocity=0, time=960),
    Message('note_on', channel=7, note=50, velocity=71, time=0),
    Message('note_on', channel=7, note=50, velocity=0, time=960),
    Message('note_on', channel=7, note=52, velocity=80, time=0),
    Message('note_on', channel=7, note=52, velocity=0, time=960),
    Message('note_on', channel=7, note=41, velocity=75, time=0),
    Message('note_on', channel=7, note=41, velocity=0, time=960),
    Message('note_on', channel=7, note=48, velocity=73, time=0),
    Message('note_on', channel=7, note=48, velocity=0, time=960),
    Message('note_on', channel=7, note=46, velocity=69, time=0),
    Message('note_on', channel=7, note=46, velocity=0, time=960),
    Message('note_on', channel=7, note=48, velocity=72, time=10),
    Message('note_on', channel=7, note=41, velocity=69, time=958),
    Message('note_on', channel=7, note=48, velocity=0, time=16),
    Message('note_on', channel=7, note=48, velocity=64, time=940),
    Message('note_on', channel=7, note=41, velocity=0, time=40),
    Message('note_on', channel=7, note=50, velocity=64, time=914),
    Message('note_on', channel=7, note=48, velocity=0, time=30),
    Message('note_on', channel=7, note=48, velocity=68, time=446),
    Message('note_on', channel=7, note=50, velocity=0, time=36),
    Message('note_on', channel=7, note=46, velocity=64, time=442),
    Message('note_on', channel=7, note=48, velocity=0, time=42),
    Message('note_on', channel=7, note=46, velocity=0, time=412),
    Message('note_on', channel=7, note=48, velocity=71, time=34),
    Message('note_on', channel=7, note=50, velocity=74, time=160),
    Message('note_on', channel=7, note=48, velocity=0, time=32),
    Message('note_on', channel=7, note=50, velocity=0, time=48),
    Message('note_on', channel=7, note=53, velocity=82, time=0),
    Message('note_on', channel=7, note=48, velocity=59, time=1196),
    Message('note_on', channel=7, note=53, velocity=0, time=12),
    Message('note_on', channel=7, note=43, velocity=64, time=952),
    Message('note_on', channel=7, note=48, velocity=0, time=20),
    Message('note_on', channel=7, note=45, velocity=63, time=456),
    Message('note_on', channel=7, note=43, velocity=0, time=40),
    Message('note_on', channel=7, note=46, velocity=62, time=444),
    Message('note_on', channel=7, note=45, velocity=0, time=54),
    Message('note_on', channel=7, note=48, velocity=69, time=436),
    Message('note_on', channel=7, note=46, velocity=0, time=6),
    Message('note_on', channel=7, note=50, velocity=66, time=450),
    Message('note_on', channel=7, note=48, velocity=0, time=28),
    Message('note_on', channel=7, note=48, velocity=72, time=460),
    Message('note_on', channel=7, note=50, velocity=0, time=22),
    Message('note_on', channel=7, note=46, velocity=68, time=458),
    Message('note_on', channel=7, note=48, velocity=0, time=14),
    Message('note_on', channel=7, note=48, velocity=76, time=480),
    Message('note_on', channel=7, note=46, velocity=0, time=22),
    Message('note_on', channel=7, note=48, velocity=0, time=424),
    Message('note_on', channel=7, note=53, velocity=68, time=36),
    Message('pitchwheel', channel=7, pitch=-383, time=310),
    Message('pitchwheel', channel=7, pitch=-511, time=46),
    Message('pitchwheel', channel=7, pitch=-639, time=8),
    Message('pitchwheel', channel=7, pitch=-895, time=12),
    Message('pitchwheel', channel=7, pitch=-1279, time=8),
    Message('pitchwheel', channel=7, pitch=-1663, time=6),
    Message('pitchwheel', channel=7, pitch=-1919, time=6),
    Message('pitchwheel', channel=7, pitch=-2687, time=14),
    Message('pitchwheel', channel=7, pitch=-2943, time=6),
    Message('pitchwheel', channel=7, pitch=-3455, time=8),
    Message('pitchwheel', channel=7, pitch=-8191, time=6),
    Message('pitchwheel', channel=7, pitch=-7807, time=14),
    Message('pitchwheel', channel=7, pitch=-7935, time=6),
    Message('note_off', channel=7, note=53, velocity=0, time=10),
    Message('pitchwheel', channel=7, pitch=-127, time=10),
    Message('note_on', channel=7, note=51, velocity=64, time=480),
    Message('pitchwheel', channel=7, pitch=-383, time=340),
    Message('pitchwheel', channel=7, pitch=-511, time=46),
    Message('pitchwheel', channel=7, pitch=-639, time=8),
    Message('pitchwheel', channel=7, pitch=-895, time=12),
    Message('pitchwheel', channel=7, pitch=-1279, time=8),
    Message('pitchwheel', channel=7, pitch=-1663, time=6),
    Message('pitchwheel', channel=7, pitch=-1919, time=6),
    Message('pitchwheel', channel=7, pitch=-2687, time=14),
    Message('pitchwheel', channel=7, pitch=-2943, time=6),
    Message('pitchwheel', channel=7, pitch=-3455, time=8),
    Message('note_off', channel=7, note=51, velocity=0, time=6),
    Message('pitchwheel', channel=7, pitch=-8191, time=0),
    Message('pitchwheel', channel=7, pitch=-7807, time=14),
    Message('pitchwheel', channel=7, pitch=-7935, time=6),
    Message('pitchwheel', channel=7, pitch=-127, time=20),
    Message('note_on', channel=7, note=46, velocity=64, time=460),
    Message('pitchwheel', channel=7, pitch=-383, time=340),
    Message('pitchwheel', channel=7, pitch=-511, time=46),
    Message('pitchwheel', channel=7, pitch=-639, time=8),
    Message('pitchwheel', channel=7, pitch=-895, time=12),
    Message('pitchwheel', channel=7, pitch=-1279, time=8),
    Message('pitchwheel', channel=7, pitch=-1663, time=6),
    Message('pitchwheel', channel=7, pitch=-1919, time=6),
    Message('pitchwheel', channel=7, pitch=-2687, time=14),
    Message('pitchwheel', channel=7, pitch=-2943, time=6),
    Message('pitchwheel', channel=7, pitch=-3455, time=8),
    Message('pitchwheel', channel=7, pitch=-8191, time=6),
    Message('pitchwheel', channel=7, pitch=-7807, time=14),
    Message('note_off', channel=7, note=46, velocity=0, time=6),
    Message('pitchwheel', channel=7, pitch=-7935, time=0),
    Message('pitchwheel', channel=7, pitch=-127, time=20),
    Message('note_on', channel=7, note=57, velocity=52, time=460),
    Message('note_on', channel=7, note=57, velocity=0, time=480),
    Message('note_on', channel=7, note=55, velocity=54, time=0),
    Message('note_on', channel=7, note=55, velocity=0, time=480),
    Message('note_on', channel=7, note=53, velocity=68, time=10),
    Message('pitchwheel', channel=7, pitch=-383, time=310),
    Message('pitchwheel', channel=7, pitch=-511, time=46),
    Message('pitchwheel', channel=7, pitch=-639, time=8),
    Message('pitchwheel', channel=7, pitch=-895, time=12),
    Message('pitchwheel', channel=7, pitch=-1279, time=8),
    Message('pitchwheel', channel=7, pitch=-1663, time=6),
    Message('pitchwheel', channel=7, pitch=-1919, time=6),
    Message('pitchwheel', channel=7, pitch=-2687, time=14),
    Message('pitchwheel', channel=7, pitch=-2943, time=6),
    Message('pitchwheel', channel=7, pitch=-3455, time=8),
    Message('pitchwheel', channel=7, pitch=-8191, time=6),
    Message('pitchwheel', channel=7, pitch=-7807, time=14),
    Message('pitchwheel', channel=7, pitch=-7935, time=6),
    Message('note_off', channel=7, note=53, velocity=0, time=10),
    Message('pitchwheel', channel=7, pitch=-127, time=10),
    Message('note_on', channel=7, note=51, velocity=64, time=480),
    Message('pitchwheel', channel=7, pitch=-383, time=340),
    Message('pitchwheel', channel=7, pitch=-511, time=46),
    Message('pitchwheel', channel=7, pitch=-639, time=8),
    Message('pitchwheel', channel=7, pitch=-895, time=12),
    Message('pitchwheel', channel=7, pitch=-1279, time=8),
    Message('pitchwheel', channel=7, pitch=-1663, time=6),
    Message('pitchwheel', channel=7, pitch=-1919, time=6),
    Message('pitchwheel', channel=7, pitch=-2687, time=14),
    Message('pitchwheel', channel=7, pitch=-2943, time=6),
    Message('pitchwheel', channel=7, pitch=-3455, time=8),
    Message('note_off', channel=7, note=51, velocity=0, time=6),
    Message('pitchwheel', channel=7, pitch=-8191, time=0),
    Message('pitchwheel', channel=7, pitch=-7807, time=14),
    Message('pitchwheel', channel=7, pitch=-7935, time=6),
    Message('pitchwheel', channel=7, pitch=-127, time=20),
    Message('note_on', channel=7, note=46, velocity=64, time=460),
    Message('pitchwheel', channel=7, pitch=-383, time=340),
    Message('pitchwheel', channel=7, pitch=-511, time=46),
    Message('pitchwheel', channel=7, pitch=-639, time=8),
    Message('pitchwheel', channel=7, pitch=-895, time=12),
    Message('pitchwheel', channel=7, pitch=-1279, time=8),
    Message('pitchwheel', channel=7, pitch=-1663, time=6),
    Message('pitchwheel', channel=7, pitch=-1919, time=6),
    Message('pitchwheel', channel=7, pitch=-2687, time=14),
    Message('pitchwheel', channel=7, pitch=-2943, time=6),
    Message('pitchwheel', channel=7, pitch=-3455, time=8),
    Message('pitchwheel', channel=7, pitch=-8191, time=6),
    Message('pitchwheel', channel=7, pitch=-7807, time=14),
    Message('note_off', channel=7, note=46, velocity=0, time=6),
    Message('pitchwheel', channel=7, pitch=-7935, time=0),
    Message('pitchwheel', channel=7, pitch=-127, time=20),
    Message('note_on', channel=7, note=57, velocity=52, time=460),
    Message('note_on', channel=7, note=57, velocity=0, time=480),
    Message('note_on', channel=7, note=55, velocity=54, time=0),
    Message('note_on', channel=7, note=55, velocity=0, time=480),
    Message('note_on', channel=7, note=43, velocity=64, time=0),
    Message('note_on', channel=7, note=43, velocity=0, time=1920),
    Message('note_on', channel=7, note=45, velocity=64, time=0),
    Message('note_on', channel=7, note=45, velocity=0, time=1920),
    Message('note_on', channel=7, note=46, velocity=64, time=0),
    Message('note_on', channel=7, note=46, velocity=0, time=1920),
    Message('note_on', channel=7, note=48, velocity=64, time=0),
    Message('note_on', channel=7, note=48, velocity=0, time=1920),
    Message('note_on', channel=7, note=41, velocity=82, time=0),
    Message('note_on', channel=7, note=41, velocity=0, time=120),
    Message('note_on', channel=7, note=41, velocity=81, time=40),
    Message('note_on', channel=7, note=41, velocity=0, time=140),
    Message('note_on', channel=7, note=48, velocity=77, time=660),
    Message('note_on', channel=7, note=48, velocity=0, time=120),
    Message('note_on', channel=7, note=48, velocity=78, time=40),
    Message('note_on', channel=7, note=48, velocity=0, time=140),
    Message('note_on', channel=7, note=46, velocity=78, time=660),
    Message('note_on', channel=7, note=46, velocity=0, time=140),
    Message('note_on', channel=7, note=46, velocity=78, time=20),
    Message('note_on', channel=7, note=46, velocity=0, time=140),
    Message('note_on', channel=7, note=48, velocity=78, time=660),
    Message('note_on', channel=7, note=48, velocity=0, time=140),
    Message('note_on', channel=7, note=48, velocity=78, time=20),
    Message('note_on', channel=7, note=48, velocity=0, time=140),
    Message('note_on', channel=7, note=41, velocity=78, time=660),
    Message('note_on', channel=7, note=41, velocity=0, time=140),
    Message('note_on', channel=7, note=41, velocity=78, time=20),
    Message('note_on', channel=7, note=41, velocity=0, time=140),
    Message('note_on', channel=7, note=48, velocity=78, time=660),
    Message('note_on', channel=7, note=48, velocity=0, time=140),
    Message('note_on', channel=7, note=48, velocity=78, time=20),
    Message('note_on', channel=7, note=48, velocity=0, time=140),
    Message('note_on', channel=7, note=50, velocity=81, time=660),
    Message('note_on', channel=7, note=50, velocity=0, time=480),
    Message('note_on', channel=7, note=48, velocity=81, time=0),
    Message('note_on', channel=7, note=48, velocity=0, time=480),
    Message('note_on', channel=7, note=46, velocity=81, time=0),
    Message('note_on', channel=7, note=46, velocity=0, time=480),
    Message('note_on', channel=7, note=48, velocity=81, time=0),
    Message('note_on', channel=7, note=48, velocity=0, time=480),
    Message('note_on', channel=7, note=41, velocity=81, time=0),
    Message('note_on', channel=7, note=41, velocity=0, time=960),
    Message('note_on', channel=7, note=48, velocity=81, time=0),
    Message('note_on', channel=7, note=48, velocity=0, time=960),
    Message('note_on', channel=7, note=43, velocity=81, time=0),
    Message('note_on', channel=7, note=43, velocity=0, time=480),
    Message('note_on', channel=7, note=45, velocity=81, time=0),
    Message('note_on', channel=7, note=45, velocity=0, time=480),
    Message('note_on', channel=7, note=46, velocity=81, time=0),
    Message('note_on', channel=7, note=46, velocity=0, time=480),
    Message('note_on', channel=7, note=48, velocity=81, time=0),
    Message('note_on', channel=7, note=48, velocity=0, time=480),
    Message('note_on', channel=7, note=50, velocity=81, time=0),
    Message('note_on', channel=7, note=50, velocity=0, time=480),
    Message('note_on', channel=7, note=48, velocity=81, time=0),
    Message('note_on', channel=7, note=48, velocity=0, time=480),
    Message('note_on', channel=7, note=46, velocity=81, time=0),
    Message('note_on', channel=7, note=46, velocity=0, time=480),
    Message('note_on', channel=7, note=48, velocity=81, time=0),
    Message('note_on', channel=7, note=48, velocity=0, time=480),
    Message('note_on', channel=7, note=50, velocity=81, time=240),
    Message('note_on', channel=7, note=50, velocity=0, time=240),
    Message('note_on', channel=7, note=48, velocity=81, time=0),
    Message('note_on', channel=7, note=48, velocity=0, time=480),
    Message('note_on', channel=7, note=46, velocity=81, time=0),
    Message('note_on', channel=7, note=46, velocity=0, time=480),
    Message('note_on', channel=7, note=48, velocity=81, time=0),
    Message('note_on', channel=7, note=48, velocity=0, time=480),
    Message('note_on', channel=7, note=50, velocity=81, time=0),
    Message('note_on', channel=7, note=50, velocity=0, time=480),
    Message('note_on', channel=7, note=48, velocity=81, time=0),
    Message('note_on', channel=7, note=48, velocity=0, time=480),
    Message('note_on', channel=7, note=46, velocity=81, time=0),
    Message('note_on', channel=7, note=46, velocity=0, time=480),
    Message('note_on', channel=7, note=48, velocity=81, time=0),
    Message('note_on', channel=7, note=48, velocity=0, time=480),
    Message('note_on', channel=7, note=53, velocity=83, time=0),
    Message('pitchwheel', channel=7, pitch=-127, time=132),
    Message('pitchwheel', channel=7, pitch=-127, time=14),
    Message('pitchwheel', channel=7, pitch=-127, time=120),
    Message('pitchwheel', channel=7, pitch=1, time=46),
    Message('pitchwheel', channel=7, pitch=-127, time=34),
    Message('pitchwheel', channel=7, pitch=-255, time=46),
    Message('pitchwheel', channel=7, pitch=-383, time=14),
    Message('pitchwheel', channel=7, pitch=-639, time=6),
    Message('pitchwheel', channel=7, pitch=-1023, time=8),
    Message('pitchwheel', channel=7, pitch=-1919, time=6),
    Message('pitchwheel', channel=7, pitch=-2431, time=6),
    Message('pitchwheel', channel=7, pitch=-3071, time=8),
    Message('pitchwheel', channel=7, pitch=-3711, time=6),
    Message('pitchwheel', channel=7, pitch=-4479, time=6),
    Message('pitchwheel', channel=7, pitch=-7935, time=8),
    Message('pitchwheel', channel=7, pitch=-8191, time=6),
    Message('note_off', channel=7, note=53, velocity=0, time=34),
    Message('pitchwheel', channel=7, pitch=-127, time=6),
    Message('note_on', channel=7, note=53, velocity=82, time=464),
    Message('pitchwheel', channel=7, pitch=-383, time=336),
    Message('pitchwheel', channel=7, pitch=-511, time=46),
    Message('pitchwheel', channel=7, pitch=-639, time=8),
    Message('pitchwheel', channel=7, pitch=-895, time=12),
    Message('pitchwheel', channel=7, pitch=-1279, time=8),
    Message('pitchwheel', channel=7, pitch=-1663, time=6),
    Message('pitchwheel', channel=7, pitch=-1919, time=6),
    Message('pitchwheel', channel=7, pitch=-2303, time=8),
    Message('pitchwheel', channel=7, pitch=-2687, time=6),
    Message('pitchwheel', channel=7, pitch=-2943, time=6),
    Message('pitchwheel', channel=7, pitch=-3455, time=8),
    Message('pitchwheel', channel=7, pitch=-8191, time=6),
    Message('pitchwheel', channel=7, pitch=-7807, time=14),
    Message('pitchwheel', channel=7, pitch=-7935, time=6),
    Message('note_off', channel=7, note=53, velocity=0, time=4),
    Message('pitchwheel', channel=7, pitch=-127, time=16),
    Message('note_on', channel=7, note=53, velocity=79, time=454),
    Message('pitchwheel', channel=7, pitch=-383, time=340),
    Message('pitchwheel', channel=7, pitch=-511, time=46),
    Message('pitchwheel', channel=7, pitch=-639, time=8),
    Message('pitchwheel', channel=7, pitch=-895, time=12),
    Message('pitchwheel', channel=7, pitch=-1279, time=8),
    Message('pitchwheel', channel=7, pitch=-1663, time=6),
    Message('pitchwheel', channel=7, pitch=-1919, time=6),
    Message('pitchwheel', channel=7, pitch=-2687, time=14),
    Message('pitchwheel', channel=7, pitch=-2943, time=6),
    Message('pitchwheel', channel=7, pitch=-3455, time=8),
    Message('pitchwheel', channel=7, pitch=-8191, time=6),
    Message('pitchwheel', channel=7, pitch=-7807, time=14),
    Message('note_off', channel=7, note=53, velocity=0, time=6),
    Message('pitchwheel', channel=7, pitch=-7935, time=0),
    Message('pitchwheel', channel=7, pitch=-127, time=20),
    Message('note_on', channel=7, note=57, velocity=82, time=470),
    Message('note_on', channel=7, note=55, velocity=78, time=470),
    Message('note_on', channel=7, note=57, velocity=0, time=10),
    Message('note_on', channel=7, note=55, velocity=0, time=470),
    Message('note_on', channel=7, note=53, velocity=85, time=10),
    Message('pitchwheel', channel=7, pitch=-383, time=310),
    Message('pitchwheel', channel=7, pitch=-511, time=46),
    Message('pitchwheel', channel=7, pitch=-639, time=8),
    Message('pitchwheel', channel=7, pitch=-895, time=12),
    Message('pitchwheel', channel=7, pitch=-1279, time=8),
    Message('pitchwheel', channel=7, pitch=-1663, time=6),
    Message('pitchwheel', channel=7, pitch=-1919, time=6),
    Message('pitchwheel', channel=7, pitch=-2687, time=14),
    Message('pitchwheel', channel=7, pitch=-2943, time=6),
    Message('pitchwheel', channel=7, pitch=-3455, time=8),
    Message('pitchwheel', channel=7, pitch=-8191, time=6),
    Message('pitchwheel', channel=7, pitch=-7807, time=14),
    Message('pitchwheel', channel=7, pitch=-7935, time=6),
    Message('note_off', channel=7, note=53, velocity=0, time=10),
    Message('pitchwheel', channel=7, pitch=-127, time=10),
    Message('note_on', channel=7, note=53, velocity=81, time=480),
    Message('pitchwheel', channel=7, pitch=-383, time=340),
    Message('pitchwheel', channel=7, pitch=-511, time=46),
    Message('pitchwheel', channel=7, pitch=-639, time=8),
    Message('pitchwheel', channel=7, pitch=-895, time=12),
    Message('pitchwheel', channel=7, pitch=-1279, time=8),
    Message('pitchwheel', channel=7, pitch=-1663, time=6),
    Message('pitchwheel', channel=7, pitch=-1919, time=6),
    Message('pitchwheel', channel=7, pitch=-2687, time=14),
    Message('pitchwheel', channel=7, pitch=-2943, time=6),
    Message('pitchwheel', channel=7, pitch=-3455, time=8),
    Message('note_off', channel=7, note=53, velocity=0, time=6),
    Message('pitchwheel', channel=7, pitch=-8191, time=0),
    Message('pitchwheel', channel=7, pitch=-7807, time=14),
    Message('pitchwheel', channel=7, pitch=-7935, time=6),
    Message('pitchwheel', channel=7, pitch=-127, time=20),
    Message('control_change', channel=7, control=7, value=127, time=140),
    Message('control_change', channel=7, control=7, value=125, time=230),
    Message('control_change', channel=7, control=7, value=122, time=20),
    Message('note_on', channel=7, note=53, velocity=81, time=70),
    Message('control_change', channel=7, control=7, value=118, time=100),
    Message('pitchwheel', channel=7, pitch=-383, time=240),
    Message('pitchwheel', channel=7, pitch=-511, time=46),
    Message('pitchwheel', channel=7, pitch=-639, time=8),
    Message('pitchwheel', channel=7, pitch=-895, time=12),
    Message('pitchwheel', channel=7, pitch=-1279, time=8),
    Message('pitchwheel', channel=7, pitch=-1663, time=6),
    Message('pitchwheel', channel=7, pitch=-1919, time=6),
    Message('pitchwheel', channel=7, pitch=-2687, time=14),
    Message('pitchwheel', channel=7, pitch=-2943, time=6),
    Message('pitchwheel', channel=7, pitch=-3455, time=8),
    Message('pitchwheel', channel=7, pitch=-8191, time=6),
    Message('pitchwheel', channel=7, pitch=-7807, time=14),
    Message('note_off', channel=7, note=53, velocity=0, time=6),
    Message('pitchwheel', channel=7, pitch=-7935, time=0),
    Message('pitchwheel', channel=7, pitch=-127, time=20),
    Message('note_on', channel=7, note=57, velocity=93, time=460),
    Message('note_on', channel=7, note=57, velocity=0, time=240),
    Message('note_on', channel=7, note=55, velocity=76, time=6),
    Message('note_on', channel=7, note=53, velocity=85, time=154),
    Message('note_on', channel=7, note=55, velocity=0, time=8),
    Message('note_on', channel=7, note=53, velocity=0, time=70),
    Message('note_on', channel=7, note=55, velocity=56, time=2),
    Message('note_on', channel=7, note=53, velocity=85, time=160),
    Message('note_on', channel=7, note=55, velocity=0, time=6),
    Message('note_on', channel=7, note=53, velocity=0, time=74),
    Message('note_on', channel=7, note=50, velocity=72, time=0),
    Message('note_on', channel=7, note=53, velocity=96, time=154),
    Message('note_on', channel=7, note=50, velocity=0, time=16),
    Message('control_change', channel=7, control=7, value=117, time=422),
    Message('control_change', channel=7, control=7, value=113, time=20),
    Message('control_change', channel=7, control=7, value=111, time=50),
    Message('control_change', channel=7, control=7, value=110, time=70),
    Message('control_change', channel=7, control=7, value=109, time=40),
    Message('control_change', channel=7, control=7, value=108, time=40),
    Message('control_change', channel=7, control=7, value=107, time=120),
    Message('control_change', channel=7, control=7, value=106, time=20),
    Message('control_change', channel=7, control=7, value=104, time=20),
    Message('control_change', channel=7, control=7, value=103, time=30),
    Message('control_change', channel=7, control=7, value=102, time=60),
    Message('control_change', channel=7, control=7, value=101, time=20),
    Message('control_change', channel=7, control=7, value=99, time=50),
    Message('control_change', channel=7, control=7, value=97, time=60),
    Message('control_change', channel=7, control=7, value=96, time=30),
    Message('control_change', channel=7, control=7, value=95, time=20),
    Message('control_change', channel=7, control=7, value=94, time=60),
    Message('control_change', channel=7, control=7, value=92, time=50),
    Message('control_change', channel=7, control=7, value=90, time=30),
    Message('control_change', channel=7, control=7, value=89, time=40),
    Message('control_change', channel=7, control=7, value=88, time=40),
    Message('control_change', channel=7, control=7, value=87, time=20),
    Message('control_change', channel=7, control=7, value=85, time=30),
    Message('control_change', channel=7, control=7, value=84, time=40),
    Message('control_change', channel=7, control=7, value=83, time=70),
    Message('control_change', channel=7, control=7, value=82, time=20),
    Message('control_change', channel=7, control=7, value=81, time=30),
    Message('control_change', channel=7, control=7, value=80, time=20),
    Message('control_change', channel=7, control=7, value=78, time=20),
    Message('control_change', channel=7, control=7, value=77, time=40),
    Message('control_change', channel=7, control=7, value=76, time=30),
    Message('control_change', channel=7, control=7, value=75, time=20),
    Message('control_change', channel=7, control=7, value=74, time=20),
    Message('control_change', channel=7, control=7, value=73, time=20),
    Message('control_change', channel=7, control=7, value=70, time=20),
    Message('control_change', channel=7, control=7, value=69, time=10),
    Message('control_change', channel=7, control=7, value=66, time=20),
    Message('control_change', channel=7, control=7, value=63, time=20),
    Message('control_change', channel=7, control=7, value=62, time=30),
    Message('control_change', channel=7, control=7, value=61, time=80),
    Message('control_change', channel=7, control=7, value=59, time=90),
    Message('control_change', channel=7, control=7, value=57, time=40),
    Message('control_change', channel=7, control=7, value=56, time=70),
    Message('control_change', channel=7, control=7, value=55, time=10),
    Message('control_change', channel=7, control=7, value=54, time=80),
    Message('control_change', channel=7, control=7, value=52, time=20),
    Message('control_change', channel=7, control=7, value=50, time=30),
    Message('control_change', channel=7, control=7, value=49, time=40),
    Message('control_change', channel=7, control=7, value=48, time=10),
    Message('control_change', channel=7, control=7, value=47, time=30),
    Message('control_change', channel=7, control=7, value=45, time=10),
    Message('control_change', channel=7, control=7, value=43, time=40),
    Message('control_change', channel=7, control=7, value=42, time=20),
    Message('control_change', channel=7, control=7, value=41, time=10),
    Message('control_change', channel=7, control=7, value=40, time=60),
    Message('control_change', channel=7, control=7, value=38, time=58),
    Message('control_change', channel=7, control=7, value=37, time=52),
    Message('control_change', channel=7, control=7, value=36, time=50),
    Message('control_change', channel=7, control=7, value=35, time=20),
    Message('control_change', channel=7, control=7, value=34, time=30),
    Message('control_change', channel=7, control=7, value=33, time=30),
    Message('control_change', channel=7, control=7, value=31, time=30),
    Message('control_change', channel=7, control=7, value=30, time=108),
    Message('control_change', channel=7, control=7, value=29, time=30),
    Message('control_change', channel=7, control=7, value=28, time=30),
    Message('note_off', channel=7, note=53, velocity=0, time=14),
    Message('control_change', channel=7, control=7, value=27, time=0),
    Message('control_change', channel=7, control=7, value=26, time=56),
    MetaMessage('end_of_track', time=0)]),
  MidiTrack([
    MetaMessage('midi_port', port=0, time=0),
    MetaMessage('channel_prefix', channel=8, time=0),
    Message('program_change', channel=8, program=89, time=0),
    Message('control_change', channel=8, control=7, value=114, time=0),
    Message('note_on', channel=8, note=53, velocity=111, time=960),
    Message('pitchwheel', channel=8, pitch=-127, time=132),
    Message('pitchwheel', channel=8, pitch=-127, time=14),
    Message('pitchwheel', channel=8, pitch=-127, time=120),
    Message('pitchwheel', channel=8, pitch=1, time=46),
    Message('pitchwheel', channel=8, pitch=-127, time=34),
    Message('pitchwheel', channel=8, pitch=-255, time=46),
    Message('pitchwheel', channel=8, pitch=-383, time=14),
    Message('pitchwheel', channel=8, pitch=-639, time=6),
    Message('pitchwheel', channel=8, pitch=-1023, time=8),
    Message('pitchwheel', channel=8, pitch=-1919, time=6),
    Message('pitchwheel', channel=8, pitch=-2431, time=6),
    Message('pitchwheel', channel=8, pitch=-3071, time=8),
    Message('pitchwheel', channel=8, pitch=-3711, time=6),
    Message('pitchwheel', channel=8, pitch=-4479, time=6),
    Message('pitchwheel', channel=8, pitch=-7935, time=8),
    Message('pitchwheel', channel=8, pitch=-8191, time=6),
    Message('note_off', channel=8, note=53, velocity=0, time=34),
    Message('pitchwheel', channel=8, pitch=-127, time=6),
    Message('note_on', channel=8, note=53, velocity=110, time=464),
    Message('pitchwheel', channel=8, pitch=-383, time=336),
    Message('pitchwheel', channel=8, pitch=-511, time=46),
    Message('pitchwheel', channel=8, pitch=-639, time=8),
    Message('pitchwheel', channel=8, pitch=-895, time=12),
    Message('pitchwheel', channel=8, pitch=-1279, time=8),
    Message('pitchwheel', channel=8, pitch=-1663, time=6),
    Message('pitchwheel', channel=8, pitch=-1919, time=6),
    Message('pitchwheel', channel=8, pitch=-2303, time=8),
    Message('pitchwheel', channel=8, pitch=-2687, time=6),
    Message('pitchwheel', channel=8, pitch=-2943, time=6),
    Message('pitchwheel', channel=8, pitch=-3455, time=8),
    Message('pitchwheel', channel=8, pitch=-8191, time=6),
    Message('pitchwheel', channel=8, pitch=-7807, time=14),
    Message('pitchwheel', channel=8, pitch=-7935, time=6),
    Message('note_off', channel=8, note=53, velocity=0, time=4),
    Message('pitchwheel', channel=8, pitch=-127, time=16),
    Message('note_on', channel=8, note=53, velocity=107, time=454),
    Message('pitchwheel', channel=8, pitch=-383, time=340),
    Message('pitchwheel', channel=8, pitch=-511, time=46),
    Message('pitchwheel', channel=8, pitch=-639, time=8),
    Message('pitchwheel', channel=8, pitch=-895, time=12),
    Message('pitchwheel', channel=8, pitch=-1279, time=8),
    Message('pitchwheel', channel=8, pitch=-1663, time=6),
    Message('pitchwheel', channel=8, pitch=-1919, time=6),
    Message('pitchwheel', channel=8, pitch=-2687, time=14),
    Message('pitchwheel', channel=8, pitch=-2943, time=6),
    Message('pitchwheel', channel=8, pitch=-3455, time=8),
    Message('pitchwheel', channel=8, pitch=-8191, time=6),
    Message('pitchwheel', channel=8, pitch=-7807, time=14),
    Message('note_off', channel=8, note=53, velocity=0, time=6),
    Message('pitchwheel', channel=8, pitch=-7935, time=0),
    Message('pitchwheel', channel=8, pitch=-127, time=20),
    Message('note_on', channel=8, note=57, velocity=110, time=470),
    Message('note_on', channel=8, note=55, velocity=106, time=470),
    Message('note_on', channel=8, note=57, velocity=0, time=10),
    Message('note_on', channel=8, note=55, velocity=0, time=470),
    Message('note_on', channel=8, note=53, velocity=113, time=10),
    Message('pitchwheel', channel=8, pitch=-383, time=310),
    Message('pitchwheel', channel=8, pitch=-511, time=46),
    Message('pitchwheel', channel=8, pitch=-639, time=8),
    Message('pitchwheel', channel=8, pitch=-895, time=12),
    Message('pitchwheel', channel=8, pitch=-1279, time=8),
    Message('pitchwheel', channel=8, pitch=-1663, time=6),
    Message('pitchwheel', channel=8, pitch=-1919, time=6),
    Message('pitchwheel', channel=8, pitch=-2687, time=14),
    Message('pitchwheel', channel=8, pitch=-2943, time=6),
    Message('pitchwheel', channel=8, pitch=-3455, time=8),
    Message('pitchwheel', channel=8, pitch=-8191, time=6),
    Message('pitchwheel', channel=8, pitch=-7807, time=14),
    Message('pitchwheel', channel=8, pitch=-7935, time=6),
    Message('note_off', channel=8, note=53, velocity=0, time=10),
    Message('pitchwheel', channel=8, pitch=-127, time=10),
    Message('note_on', channel=8, note=53, velocity=109, time=480),
    Message('pitchwheel', channel=8, pitch=-383, time=340),
    Message('pitchwheel', channel=8, pitch=-511, time=46),
    Message('pitchwheel', channel=8, pitch=-639, time=8),
    Message('pitchwheel', channel=8, pitch=-895, time=12),
    Message('pitchwheel', channel=8, pitch=-1279, time=8),
    Message('pitchwheel', channel=8, pitch=-1663, time=6),
    Message('pitchwheel', channel=8, pitch=-1919, time=6),
    Message('pitchwheel', channel=8, pitch=-2687, time=14),
    Message('pitchwheel', channel=8, pitch=-2943, time=6),
    Message('pitchwheel', channel=8, pitch=-3455, time=8),
    Message('note_off', channel=8, note=53, velocity=0, time=6),
    Message('pitchwheel', channel=8, pitch=-8191, time=0),
    Message('pitchwheel', channel=8, pitch=-7807, time=14),
    Message('pitchwheel', channel=8, pitch=-7935, time=6),
    Message('pitchwheel', channel=8, pitch=-127, time=20),
    Message('note_on', channel=8, note=53, velocity=109, time=460),
    Message('pitchwheel', channel=8, pitch=-383, time=340),
    Message('pitchwheel', channel=8, pitch=-511, time=46),
    Message('pitchwheel', channel=8, pitch=-639, time=8),
    Message('pitchwheel', channel=8, pitch=-895, time=12),
    Message('pitchwheel', channel=8, pitch=-1279, time=8),
    Message('pitchwheel', channel=8, pitch=-1663, time=6),
    Message('pitchwheel', channel=8, pitch=-1919, time=6),
    Message('pitchwheel', channel=8, pitch=-2687, time=14),
    Message('pitchwheel', channel=8, pitch=-2943, time=6),
    Message('pitchwheel', channel=8, pitch=-3455, time=8),
    Message('pitchwheel', channel=8, pitch=-8191, time=6),
    Message('pitchwheel', channel=8, pitch=-7807, time=14),
    Message('note_off', channel=8, note=53, velocity=0, time=6),
    Message('pitchwheel', channel=8, pitch=-7935, time=0),
    Message('pitchwheel', channel=8, pitch=-127, time=20),
    Message('note_on', channel=8, note=57, velocity=121, time=460),
    Message('note_on', channel=8, note=57, velocity=0, time=240),
    Message('note_on', channel=8, note=55, velocity=104, time=6),
    Message('note_on', channel=8, note=53, velocity=113, time=154),
    Message('note_on', channel=8, note=55, velocity=0, time=8),
    Message('note_on', channel=8, note=53, velocity=0, time=70),
    Message('note_on', channel=8, note=55, velocity=84, time=2),
    Message('note_on', channel=8, note=53, velocity=113, time=160),
    Message('note_on', channel=8, note=55, velocity=0, time=6),
    Message('note_on', channel=8, note=53, velocity=0, time=74),
    Message('note_on', channel=8, note=50, velocity=100, time=0),
    Message('note_on', channel=8, note=53, velocity=124, time=154),
    Message('note_on', channel=8, note=50, velocity=0, time=16),
    Message('note_on', channel=8, note=53, velocity=0, time=142),
    Message('note_on', channel=8, note=46, velocity=91, time=15288),
    Message('note_on', channel=8, note=46, velocity=0, time=960),
    Message('note_on', channel=8, note=48, velocity=87, time=0),
    Message('note_on', channel=8, note=48, velocity=0, time=960),
    Message('note_on', channel=8, note=50, velocity=86, time=0),
    Message('note_on', channel=8, note=50, velocity=0, time=960),
    Message('note_on', channel=8, note=52, velocity=86, time=0),
    Message('note_on', channel=8, note=52, velocity=0, time=960),
    Message('note_on', channel=8, note=41, velocity=92, time=0),
    Message('note_on', channel=8, note=41, velocity=0, time=960),
    Message('note_on', channel=8, note=48, velocity=97, time=0),
    Message('note_on', channel=8, note=48, velocity=0, time=960),
    Message('note_on', channel=8, note=46, velocity=95, time=0),
    Message('note_on', channel=8, note=46, velocity=0, time=960),
    Message('note_on', channel=8, note=48, velocity=97, time=10),
    Message('note_on', channel=8, note=41, velocity=94, time=958),
    Message('note_on', channel=8, note=48, velocity=0, time=16),
    Message('note_on', channel=8, note=48, velocity=97, time=940),
    Message('note_on', channel=8, note=41, velocity=0, time=40),
    Message('note_on', channel=8, note=50, velocity=86, time=914),
    Message('note_on', channel=8, note=48, velocity=0, time=30),
    Message('note_on', channel=8, note=48, velocity=88, time=446),
    Message('note_on', channel=8, note=50, velocity=0, time=36),
    Message('note_on', channel=8, note=46, velocity=85, time=442),
    Message('note_on', channel=8, note=48, velocity=0, time=42),
    Message('note_on', channel=8, note=46, velocity=0, time=412),
    Message('note_on', channel=8, note=48, velocity=92, time=34),
    Message('note_on', channel=8, note=50, velocity=96, time=160),
    Message('note_on', channel=8, note=48, velocity=0, time=32),
    Message('note_on', channel=8, note=50, velocity=0, time=48),
    Message('note_on', channel=8, note=53, velocity=107, time=0),
    Message('note_on', channel=8, note=48, velocity=91, time=1196),
    Message('note_on', channel=8, note=53, velocity=0, time=12),
    Message('note_on', channel=8, note=43, velocity=94, time=952),
    Message('note_on', channel=8, note=48, velocity=0, time=20),
    Message('note_on', channel=8, note=45, velocity=94, time=456),
    Message('note_on', channel=8, note=43, velocity=0, time=40),
    Message('note_on', channel=8, note=46, velocity=92, time=444),
    Message('note_on', channel=8, note=45, velocity=0, time=54),
    Message('note_on', channel=8, note=48, velocity=91, time=436),
    Message('note_on', channel=8, note=46, velocity=0, time=6),
    Message('note_on', channel=8, note=50, velocity=93, time=450),
    Message('note_on', channel=8, note=48, velocity=0, time=28),
    Message('note_on', channel=8, note=48, velocity=100, time=460),
    Message('note_on', channel=8, note=50, velocity=0, time=22),
    Message('note_on', channel=8, note=46, velocity=96, time=458),
    Message('note_on', channel=8, note=48, velocity=0, time=14),
    Message('note_on', channel=8, note=48, velocity=104, time=480),
    Message('note_on', channel=8, note=46, velocity=0, time=22),
    Message('note_on', channel=8, note=48, velocity=0, time=424),
    Message('note_on', channel=8, note=53, velocity=96, time=36),
    Message('pitchwheel', channel=8, pitch=-383, time=310),
    Message('pitchwheel', channel=8, pitch=-511, time=46),
    Message('pitchwheel', channel=8, pitch=-639, time=8),
    Message('pitchwheel', channel=8, pitch=-895, time=12),
    Message('pitchwheel', channel=8, pitch=-1279, time=8),
    Message('pitchwheel', channel=8, pitch=-1663, time=6),
    Message('pitchwheel', channel=8, pitch=-1919, time=6),
    Message('pitchwheel', channel=8, pitch=-2687, time=14),
    Message('pitchwheel', channel=8, pitch=-2943, time=6),
    Message('pitchwheel', channel=8, pitch=-3455, time=8),
    Message('pitchwheel', channel=8, pitch=-8191, time=6),
    Message('pitchwheel', channel=8, pitch=-7807, time=14),
    Message('pitchwheel', channel=8, pitch=-7935, time=6),
    Message('note_off', channel=8, note=53, velocity=0, time=10),
    Message('pitchwheel', channel=8, pitch=-127, time=10),
    Message('note_on', channel=8, note=53, velocity=92, time=480),
    Message('pitchwheel', channel=8, pitch=-383, time=340),
    Message('pitchwheel', channel=8, pitch=-511, time=46),
    Message('pitchwheel', channel=8, pitch=-639, time=8),
    Message('pitchwheel', channel=8, pitch=-895, time=12),
    Message('pitchwheel', channel=8, pitch=-1279, time=8),
    Message('pitchwheel', channel=8, pitch=-1663, time=6),
    Message('pitchwheel', channel=8, pitch=-1919, time=6),
    Message('pitchwheel', channel=8, pitch=-2687, time=14),
    Message('pitchwheel', channel=8, pitch=-2943, time=6),
    Message('pitchwheel', channel=8, pitch=-3455, time=8),
    Message('note_off', channel=8, note=53, velocity=0, time=6),
    Message('pitchwheel', channel=8, pitch=-8191, time=0),
    Message('pitchwheel', channel=8, pitch=-7807, time=14),
    Message('pitchwheel', channel=8, pitch=-7935, time=6),
    Message('pitchwheel', channel=8, pitch=-127, time=20),
    Message('note_on', channel=8, note=53, velocity=92, time=460),
    Message('pitchwheel', channel=8, pitch=-383, time=340),
    Message('pitchwheel', channel=8, pitch=-511, time=46),
    Message('pitchwheel', channel=8, pitch=-639, time=8),
    Message('pitchwheel', channel=8, pitch=-895, time=12),
    Message('pitchwheel', channel=8, pitch=-1279, time=8),
    Message('pitchwheel', channel=8, pitch=-1663, time=6),
    Message('pitchwheel', channel=8, pitch=-1919, time=6),
    Message('pitchwheel', channel=8, pitch=-2687, time=14),
    Message('pitchwheel', channel=8, pitch=-2943, time=6),
    Message('pitchwheel', channel=8, pitch=-3455, time=8),
    Message('pitchwheel', channel=8, pitch=-8191, time=6),
    Message('pitchwheel', channel=8, pitch=-7807, time=14),
    Message('note_off', channel=8, note=53, velocity=0, time=6),
    Message('pitchwheel', channel=8, pitch=-7935, time=0),
    Message('pitchwheel', channel=8, pitch=-127, time=20),
    Message('note_on', channel=8, note=57, velocity=108, time=460),
    Message('note_on', channel=8, note=57, velocity=0, time=240),
    Message('note_on', channel=8, note=55, velocity=97, time=6),
    Message('note_on', channel=8, note=53, velocity=102, time=154),
    Message('note_on', channel=8, note=55, velocity=0, time=8),
    Message('note_on', channel=8, note=53, velocity=0, time=70),
    Message('note_on', channel=8, note=55, velocity=96, time=2),
    Message('note_on', channel=8, note=53, velocity=98, time=160),
    Message('note_on', channel=8, note=55, velocity=0, time=6),
    Message('note_on', channel=8, note=53, velocity=0, time=74),
    Message('note_on', channel=8, note=50, velocity=100, time=0),
    Message('note_on', channel=8, note=53, velocity=124, time=154),
    Message('note_on', channel=8, note=50, velocity=0, time=16),
    Message('note_on', channel=8, note=53, velocity=0, time=142),
    Message('note_on', channel=8, note=46, velocity=105, time=15288),
    Message('note_on', channel=8, note=46, velocity=0, time=960),
    Message('note_on', channel=8, note=48, velocity=106, time=0),
    Message('note_on', channel=8, note=48, velocity=0, time=960),
    Message('note_on', channel=8, note=50, velocity=99, time=0),
    Message('note_on', channel=8, note=50, velocity=0, time=960),
    Message('note_on', channel=8, note=52, velocity=108, time=0),
    Message('note_on', channel=8, note=52, velocity=0, time=960),
    Message('note_on', channel=8, note=41, velocity=103, time=0),
    Message('note_on', channel=8, note=41, velocity=0, time=960),
    Message('note_on', channel=8, note=48, velocity=101, time=0),
    Message('note_on', channel=8, note=48, velocity=0, time=960),
    Message('note_on', channel=8, note=46, velocity=97, time=0),
    Message('note_on', channel=8, note=46, velocity=0, time=960),
    Message('note_on', channel=8, note=48, velocity=100, time=10),
    Message('note_on', channel=8, note=41, velocity=97, time=958),
    Message('note_on', channel=8, note=48, velocity=0, time=16),
    Message('note_on', channel=8, note=48, velocity=92, time=940),
    Message('note_on', channel=8, note=41, velocity=0, time=40),
    Message('note_on', channel=8, note=50, velocity=92, time=914),
    Message('note_on', channel=8, note=48, velocity=0, time=30),
    Message('note_on', channel=8, note=48, velocity=96, time=446),
    Message('note_on', channel=8, note=50, velocity=0, time=36),
    Message('note_on', channel=8, note=46, velocity=92, time=442),
    Message('note_on', channel=8, note=48, velocity=0, time=42),
    Message('note_on', channel=8, note=46, velocity=0, time=412),
    Message('note_on', channel=8, note=48, velocity=99, time=34),
    Message('note_on', channel=8, note=50, velocity=102, time=160),
    Message('note_on', channel=8, note=48, velocity=0, time=32),
    Message('note_on', channel=8, note=50, velocity=0, time=48),
    Message('note_on', channel=8, note=53, velocity=110, time=0),
    Message('note_on', channel=8, note=48, velocity=87, time=1196),
    Message('note_on', channel=8, note=53, velocity=0, time=12),
    Message('note_on', channel=8, note=43, velocity=92, time=952),
    Message('note_on', channel=8, note=48, velocity=0, time=20),
    Message('note_on', channel=8, note=45, velocity=91, time=456),
    Message('note_on', channel=8, note=43, velocity=0, time=40),
    Message('note_on', channel=8, note=46, velocity=90, time=444),
    Message('note_on', channel=8, note=45, velocity=0, time=54),
    Message('note_on', channel=8, note=48, velocity=97, time=436),
    Message('note_on', channel=8, note=46, velocity=0, time=6),
    Message('note_on', channel=8, note=50, velocity=94, time=450),
    Message('note_on', channel=8, note=48, velocity=0, time=28),
    Message('note_on', channel=8, note=48, velocity=100, time=460),
    Message('note_on', channel=8, note=50, velocity=0, time=22),
    Message('note_on', channel=8, note=46, velocity=96, time=458),
    Message('note_on', channel=8, note=48, velocity=0, time=14),
    Message('note_on', channel=8, note=48, velocity=104, time=480),
    Message('note_on', channel=8, note=46, velocity=0, time=22),
    Message('note_on', channel=8, note=48, velocity=0, time=424),
    Message('note_on', channel=8, note=53, velocity=96, time=36),
    Message('pitchwheel', channel=8, pitch=-383, time=310),
    Message('pitchwheel', channel=8, pitch=-511, time=46),
    Message('pitchwheel', channel=8, pitch=-639, time=8),
    Message('pitchwheel', channel=8, pitch=-895, time=12),
    Message('pitchwheel', channel=8, pitch=-1279, time=8),
    Message('pitchwheel', channel=8, pitch=-1663, time=6),
    Message('pitchwheel', channel=8, pitch=-1919, time=6),
    Message('pitchwheel', channel=8, pitch=-2687, time=14),
    Message('pitchwheel', channel=8, pitch=-2943, time=6),
    Message('pitchwheel', channel=8, pitch=-3455, time=8),
    Message('pitchwheel', channel=8, pitch=-8191, time=6),
    Message('pitchwheel', channel=8, pitch=-7807, time=14),
    Message('pitchwheel', channel=8, pitch=-7935, time=6),
    Message('note_off', channel=8, note=53, velocity=0, time=10),
    Message('pitchwheel', channel=8, pitch=-127, time=10),
    Message('note_on', channel=8, note=51, velocity=92, time=480),
    Message('pitchwheel', channel=8, pitch=-383, time=340),
    Message('pitchwheel', channel=8, pitch=-511, time=46),
    Message('pitchwheel', channel=8, pitch=-639, time=8),
    Message('pitchwheel', channel=8, pitch=-895, time=12),
    Message('pitchwheel', channel=8, pitch=-1279, time=8),
    Message('pitchwheel', channel=8, pitch=-1663, time=6),
    Message('pitchwheel', channel=8, pitch=-1919, time=6),
    Message('pitchwheel', channel=8, pitch=-2687, time=14),
    Message('pitchwheel', channel=8, pitch=-2943, time=6),
    Message('pitchwheel', channel=8, pitch=-3455, time=8),
    Message('note_off', channel=8, note=51, velocity=0, time=6),
    Message('pitchwheel', channel=8, pitch=-8191, time=0),
    Message('pitchwheel', channel=8, pitch=-7807, time=14),
    Message('pitchwheel', channel=8, pitch=-7935, time=6),
    Message('pitchwheel', channel=8, pitch=-127, time=20),
    Message('note_on', channel=8, note=46, velocity=92, time=460),
    Message('pitchwheel', channel=8, pitch=-383, time=340),
    Message('pitchwheel', channel=8, pitch=-511, time=46),
    Message('pitchwheel', channel=8, pitch=-639, time=8),
    Message('pitchwheel', channel=8, pitch=-895, time=12),
    Message('pitchwheel', channel=8, pitch=-1279, time=8),
    Message('pitchwheel', channel=8, pitch=-1663, time=6),
    Message('pitchwheel', channel=8, pitch=-1919, time=6),
    Message('pitchwheel', channel=8, pitch=-2687, time=14),
    Message('pitchwheel', channel=8, pitch=-2943, time=6),
    Message('pitchwheel', channel=8, pitch=-3455, time=8),
    Message('pitchwheel', channel=8, pitch=-8191, time=6),
    Message('pitchwheel', channel=8, pitch=-7807, time=14),
    Message('note_off', channel=8, note=46, velocity=0, time=6),
    Message('pitchwheel', channel=8, pitch=-7935, time=0),
    Message('pitchwheel', channel=8, pitch=-127, time=20),
    Message('note_on', channel=8, note=57, velocity=80, time=460),
    Message('note_on', channel=8, note=57, velocity=0, time=480),
    Message('note_on', channel=8, note=55, velocity=82, time=0),
    Message('note_on', channel=8, note=55, velocity=0, time=480),
    Message('note_on', channel=8, note=53, velocity=96, time=10),
    Message('pitchwheel', channel=8, pitch=-383, time=310),
    Message('pitchwheel', channel=8, pitch=-511, time=46),
    Message('pitchwheel', channel=8, pitch=-639, time=8),
    Message('pitchwheel', channel=8, pitch=-895, time=12),
    Message('pitchwheel', channel=8, pitch=-1279, time=8),
    Message('pitchwheel', channel=8, pitch=-1663, time=6),
    Message('pitchwheel', channel=8, pitch=-1919, time=6),
    Message('pitchwheel', channel=8, pitch=-2687, time=14),
    Message('pitchwheel', channel=8, pitch=-2943, time=6),
    Message('pitchwheel', channel=8, pitch=-3455, time=8),
    Message('pitchwheel', channel=8, pitch=-8191, time=6),
    Message('pitchwheel', channel=8, pitch=-7807, time=14),
    Message('pitchwheel', channel=8, pitch=-7935, time=6),
    Message('note_off', channel=8, note=53, velocity=0, time=10),
    Message('pitchwheel', channel=8, pitch=-127, time=10),
    Message('note_on', channel=8, note=51, velocity=92, time=480),
    Message('pitchwheel', channel=8, pitch=-383, time=340),
    Message('pitchwheel', channel=8, pitch=-511, time=46),
    Message('pitchwheel', channel=8, pitch=-639, time=8),
    Message('pitchwheel', channel=8, pitch=-895, time=12),
    Message('pitchwheel', channel=8, pitch=-1279, time=8),
    Message('pitchwheel', channel=8, pitch=-1663, time=6),
    Message('pitchwheel', channel=8, pitch=-1919, time=6),
    Message('pitchwheel', channel=8, pitch=-2687, time=14),
    Message('pitchwheel', channel=8, pitch=-2943, time=6),
    Message('pitchwheel', channel=8, pitch=-3455, time=8),
    Message('note_off', channel=8, note=51, velocity=0, time=6),
    Message('pitchwheel', channel=8, pitch=-8191, time=0),
    Message('pitchwheel', channel=8, pitch=-7807, time=14),
    Message('pitchwheel', channel=8, pitch=-7935, time=6),
    Message('pitchwheel', channel=8, pitch=-127, time=20),
    Message('note_on', channel=8, note=46, velocity=92, time=460),
    Message('pitchwheel', channel=8, pitch=-383, time=340),
    Message('pitchwheel', channel=8, pitch=-511, time=46),
    Message('pitchwheel', channel=8, pitch=-639, time=8),
    Message('pitchwheel', channel=8, pitch=-895, time=12),
    Message('pitchwheel', channel=8, pitch=-1279, time=8),
    Message('pitchwheel', channel=8, pitch=-1663, time=6),
    Message('pitchwheel', channel=8, pitch=-1919, time=6),
    Message('pitchwheel', channel=8, pitch=-2687, time=14),
    Message('pitchwheel', channel=8, pitch=-2943, time=6),
    Message('pitchwheel', channel=8, pitch=-3455, time=8),
    Message('pitchwheel', channel=8, pitch=-8191, time=6),
    Message('pitchwheel', channel=8, pitch=-7807, time=14),
    Message('note_off', channel=8, note=46, velocity=0, time=6),
    Message('pitchwheel', channel=8, pitch=-7935, time=0),
    Message('pitchwheel', channel=8, pitch=-127, time=20),
    Message('note_on', channel=8, note=57, velocity=80, time=460),
    Message('note_on', channel=8, note=57, velocity=0, time=480),
    Message('note_on', channel=8, note=55, velocity=82, time=0),
    Message('note_on', channel=8, note=55, velocity=0, time=480),
    Message('note_on', channel=8, note=43, velocity=92, time=0),
    Message('note_on', channel=8, note=43, velocity=0, time=1920),
    Message('note_on', channel=8, note=45, velocity=92, time=0),
    Message('note_on', channel=8, note=45, velocity=0, time=1920),
    Message('note_on', channel=8, note=46, velocity=92, time=0),
    Message('note_on', channel=8, note=46, velocity=0, time=1920),
    Message('note_on', channel=8, note=48, velocity=92, time=0),
    Message('note_on', channel=8, note=48, velocity=0, time=1920),
    Message('note_on', channel=8, note=41, velocity=110, time=0),
    Message('note_on', channel=8, note=41, velocity=0, time=120),
    Message('note_on', channel=8, note=41, velocity=109, time=40),
    Message('note_on', channel=8, note=41, velocity=0, time=140),
    Message('note_on', channel=8, note=48, velocity=105, time=660),
    Message('note_on', channel=8, note=48, velocity=0, time=120),
    Message('note_on', channel=8, note=48, velocity=106, time=40),
    Message('note_on', channel=8, note=48, velocity=0, time=140),
    Message('note_on', channel=8, note=46, velocity=106, time=660),
    Message('note_on', channel=8, note=46, velocity=0, time=140),
    Message('note_on', channel=8, note=46, velocity=106, time=20),
    Message('note_on', channel=8, note=46, velocity=0, time=140),
    Message('note_on', channel=8, note=48, velocity=106, time=660),
    Message('note_on', channel=8, note=48, velocity=0, time=140),
    Message('note_on', channel=8, note=48, velocity=106, time=20),
    Message('note_on', channel=8, note=48, velocity=0, time=140),
    Message('note_on', channel=8, note=41, velocity=106, time=660),
    Message('note_on', channel=8, note=41, velocity=0, time=140),
    Message('note_on', channel=8, note=41, velocity=106, time=20),
    Message('note_on', channel=8, note=41, velocity=0, time=140),
    Message('note_on', channel=8, note=48, velocity=106, time=660),
    Message('note_on', channel=8, note=48, velocity=0, time=140),
    Message('note_on', channel=8, note=48, velocity=106, time=20),
    Message('note_on', channel=8, note=48, velocity=0, time=140),
    Message('note_on', channel=8, note=50, velocity=109, time=660),
    Message('note_on', channel=8, note=50, velocity=0, time=480),
    Message('note_on', channel=8, note=48, velocity=109, time=0),
    Message('note_on', channel=8, note=48, velocity=0, time=480),
    Message('note_on', channel=8, note=46, velocity=109, time=0),
    Message('note_on', channel=8, note=46, velocity=0, time=480),
    Message('note_on', channel=8, note=48, velocity=109, time=0),
    Message('note_on', channel=8, note=48, velocity=0, time=480),
    Message('note_on', channel=8, note=41, velocity=109, time=0),
    Message('note_on', channel=8, note=41, velocity=0, time=960),
    Message('note_on', channel=8, note=48, velocity=109, time=0),
    Message('note_on', channel=8, note=48, velocity=0, time=960),
    Message('note_on', channel=8, note=43, velocity=109, time=0),
    Message('note_on', channel=8, note=43, velocity=0, time=480),
    Message('note_on', channel=8, note=45, velocity=109, time=0),
    Message('note_on', channel=8, note=45, velocity=0, time=480),
    Message('note_on', channel=8, note=46, velocity=109, time=0),
    Message('note_on', channel=8, note=46, velocity=0, time=480),
    Message('note_on', channel=8, note=48, velocity=109, time=0),
    Message('note_on', channel=8, note=48, velocity=0, time=480),
    Message('note_on', channel=8, note=50, velocity=109, time=0),
    Message('note_on', channel=8, note=50, velocity=0, time=480),
    Message('note_on', channel=8, note=48, velocity=109, time=0),
    Message('note_on', channel=8, note=48, velocity=0, time=480),
    Message('note_on', channel=8, note=46, velocity=109, time=0),
    Message('note_on', channel=8, note=46, velocity=0, time=480),
    Message('note_on', channel=8, note=48, velocity=109, time=0),
    Message('note_on', channel=8, note=48, velocity=0, time=480),
    Message('note_on', channel=8, note=50, velocity=109, time=240),
    Message('note_on', channel=8, note=50, velocity=0, time=240),
    Message('note_on', channel=8, note=48, velocity=109, time=0),
    Message('note_on', channel=8, note=48, velocity=0, time=480),
    Message('note_on', channel=8, note=46, velocity=109, time=0),
    Message('note_on', channel=8, note=46, velocity=0, time=480),
    Message('note_on', channel=8, note=48, velocity=109, time=0),
    Message('note_on', channel=8, note=48, velocity=0, time=480),
    Message('note_on', channel=8, note=50, velocity=109, time=0),
    Message('note_on', channel=8, note=50, velocity=0, time=480),
    Message('note_on', channel=8, note=48, velocity=109, time=0),
    Message('note_on', channel=8, note=48, velocity=0, time=480),
    Message('note_on', channel=8, note=46, velocity=109, time=0),
    Message('note_on', channel=8, note=46, velocity=0, time=480),
    Message('note_on', channel=8, note=48, velocity=109, time=0),
    Message('note_on', channel=8, note=48, velocity=0, time=480),
    Message('note_on', channel=8, note=53, velocity=111, time=0),
    Message('pitchwheel', channel=8, pitch=-127, time=132),
    Message('pitchwheel', channel=8, pitch=-127, time=14),
    Message('pitchwheel', channel=8, pitch=-127, time=120),
    Message('pitchwheel', channel=8, pitch=1, time=46),
    Message('pitchwheel', channel=8, pitch=-127, time=34),
    Message('pitchwheel', channel=8, pitch=-255, time=46),
    Message('pitchwheel', channel=8, pitch=-383, time=14),
    Message('pitchwheel', channel=8, pitch=-639, time=6),
    Message('pitchwheel', channel=8, pitch=-1023, time=8),
    Message('pitchwheel', channel=8, pitch=-1919, time=6),
    Message('pitchwheel', channel=8, pitch=-2431, time=6),
    Message('pitchwheel', channel=8, pitch=-3071, time=8),
    Message('pitchwheel', channel=8, pitch=-3711, time=6),
    Message('pitchwheel', channel=8, pitch=-4479, time=6),
    Message('pitchwheel', channel=8, pitch=-7935, time=8),
    Message('pitchwheel', channel=8, pitch=-8191, time=6),
    Message('note_off', channel=8, note=53, velocity=0, time=34),
    Message('pitchwheel', channel=8, pitch=-127, time=6),
    Message('note_on', channel=8, note=53, velocity=110, time=464),
    Message('pitchwheel', channel=8, pitch=-383, time=336),
    Message('pitchwheel', channel=8, pitch=-511, time=46),
    Message('pitchwheel', channel=8, pitch=-639, time=8),
    Message('pitchwheel', channel=8, pitch=-895, time=12),
    Message('pitchwheel', channel=8, pitch=-1279, time=8),
    Message('pitchwheel', channel=8, pitch=-1663, time=6),
    Message('pitchwheel', channel=8, pitch=-1919, time=6),
    Message('pitchwheel', channel=8, pitch=-2303, time=8),
    Message('pitchwheel', channel=8, pitch=-2687, time=6),
    Message('pitchwheel', channel=8, pitch=-2943, time=6),
    Message('pitchwheel', channel=8, pitch=-3455, time=8),
    Message('pitchwheel', channel=8, pitch=-8191, time=6),
    Message('pitchwheel', channel=8, pitch=-7807, time=14),
    Message('pitchwheel', channel=8, pitch=-7935, time=6),
    Message('note_off', channel=8, note=53, velocity=0, time=4),
    Message('pitchwheel', channel=8, pitch=-127, time=16),
    Message('note_on', channel=8, note=53, velocity=107, time=454),
    Message('pitchwheel', channel=8, pitch=-383, time=340),
    Message('pitchwheel', channel=8, pitch=-511, time=46),
    Message('pitchwheel', channel=8, pitch=-639, time=8),
    Message('pitchwheel', channel=8, pitch=-895, time=12),
    Message('pitchwheel', channel=8, pitch=-1279, time=8),
    Message('pitchwheel', channel=8, pitch=-1663, time=6),
    Message('pitchwheel', channel=8, pitch=-1919, time=6),
    Message('pitchwheel', channel=8, pitch=-2687, time=14),
    Message('pitchwheel', channel=8, pitch=-2943, time=6),
    Message('pitchwheel', channel=8, pitch=-3455, time=8),
    Message('pitchwheel', channel=8, pitch=-8191, time=6),
    Message('pitchwheel', channel=8, pitch=-7807, time=14),
    Message('note_off', channel=8, note=53, velocity=0, time=6),
    Message('pitchwheel', channel=8, pitch=-7935, time=0),
    Message('pitchwheel', channel=8, pitch=-127, time=20),
    Message('note_on', channel=8, note=57, velocity=110, time=470),
    Message('note_on', channel=8, note=55, velocity=106, time=470),
    Message('note_on', channel=8, note=57, velocity=0, time=10),
    Message('note_on', channel=8, note=55, velocity=0, time=470),
    Message('note_on', channel=8, note=53, velocity=113, time=10),
    Message('pitchwheel', channel=8, pitch=-383, time=310),
    Message('pitchwheel', channel=8, pitch=-511, time=46),
    Message('pitchwheel', channel=8, pitch=-639, time=8),
    Message('pitchwheel', channel=8, pitch=-895, time=12),
    Message('pitchwheel', channel=8, pitch=-1279, time=8),
    Message('pitchwheel', channel=8, pitch=-1663, time=6),
    Message('pitchwheel', channel=8, pitch=-1919, time=6),
    Message('pitchwheel', channel=8, pitch=-2687, time=14),
    Message('pitchwheel', channel=8, pitch=-2943, time=6),
    Message('pitchwheel', channel=8, pitch=-3455, time=8),
    Message('pitchwheel', channel=8, pitch=-8191, time=6),
    Message('pitchwheel', channel=8, pitch=-7807, time=14),
    Message('pitchwheel', channel=8, pitch=-7935, time=6),
    Message('note_off', channel=8, note=53, velocity=0, time=10),
    Message('pitchwheel', channel=8, pitch=-127, time=10),
    Message('note_on', channel=8, note=53, velocity=109, time=480),
    Message('pitchwheel', channel=8, pitch=-383, time=340),
    Message('pitchwheel', channel=8, pitch=-511, time=46),
    Message('pitchwheel', channel=8, pitch=-639, time=8),
    Message('pitchwheel', channel=8, pitch=-895, time=12),
    Message('pitchwheel', channel=8, pitch=-1279, time=8),
    Message('pitchwheel', channel=8, pitch=-1663, time=6),
    Message('pitchwheel', channel=8, pitch=-1919, time=6),
    Message('pitchwheel', channel=8, pitch=-2687, time=14),
    Message('pitchwheel', channel=8, pitch=-2943, time=6),
    Message('pitchwheel', channel=8, pitch=-3455, time=8),
    Message('note_off', channel=8, note=53, velocity=0, time=6),
    Message('pitchwheel', channel=8, pitch=-8191, time=0),
    Message('pitchwheel', channel=8, pitch=-7807, time=14),
    Message('pitchwheel', channel=8, pitch=-7935, time=6),
    Message('pitchwheel', channel=8, pitch=-127, time=20),
    Message('control_change', channel=8, control=7, value=127, time=140),
    Message('control_change', channel=8, control=7, value=125, time=230),
    Message('control_change', channel=8, control=7, value=122, time=20),
    Message('note_on', channel=8, note=53, velocity=109, time=70),
    Message('control_change', channel=8, control=7, value=118, time=100),
    Message('pitchwheel', channel=8, pitch=-383, time=240),
    Message('pitchwheel', channel=8, pitch=-511, time=46),
    Message('pitchwheel', channel=8, pitch=-639, time=8),
    Message('pitchwheel', channel=8, pitch=-895, time=12),
    Message('pitchwheel', channel=8, pitch=-1279, time=8),
    Message('pitchwheel', channel=8, pitch=-1663, time=6),
    Message('pitchwheel', channel=8, pitch=-1919, time=6),
    Message('pitchwheel', channel=8, pitch=-2687, time=14),
    Message('pitchwheel', channel=8, pitch=-2943, time=6),
    Message('pitchwheel', channel=8, pitch=-3455, time=8),
    Message('pitchwheel', channel=8, pitch=-8191, time=6),
    Message('pitchwheel', channel=8, pitch=-7807, time=14),
    Message('note_off', channel=8, note=53, velocity=0, time=6),
    Message('pitchwheel', channel=8, pitch=-7935, time=0),
    Message('pitchwheel', channel=8, pitch=-127, time=20),
    Message('note_on', channel=8, note=57, velocity=121, time=460),
    Message('note_on', channel=8, note=57, velocity=0, time=240),
    Message('note_on', channel=8, note=55, velocity=104, time=6),
    Message('note_on', channel=8, note=53, velocity=113, time=154),
    Message('note_on', channel=8, note=55, velocity=0, time=8),
    Message('note_on', channel=8, note=53, velocity=0, time=70),
    Message('note_on', channel=8, note=55, velocity=84, time=2),
    Message('note_on', channel=8, note=53, velocity=113, time=160),
    Message('note_on', channel=8, note=55, velocity=0, time=6),
    Message('note_on', channel=8, note=53, velocity=0, time=74),
    Message('note_on', channel=8, note=50, velocity=100, time=0),
    Message('note_on', channel=8, note=53, velocity=124, time=154),
    Message('note_on', channel=8, note=50, velocity=0, time=16),
    Message('control_change', channel=8, control=7, value=117, time=422),
    Message('control_change', channel=8, control=7, value=113, time=20),
    Message('control_change', channel=8, control=7, value=111, time=50),
    Message('control_change', channel=8, control=7, value=110, time=70),
    Message('control_change', channel=8, control=7, value=109, time=40),
    Message('control_change', channel=8, control=7, value=108, time=40),
    Message('control_change', channel=8, control=7, value=107, time=120),
    Message('control_change', channel=8, control=7, value=106, time=20),
    Message('control_change', channel=8, control=7, value=104, time=20),
    Message('control_change', channel=8, control=7, value=103, time=30),
    Message('control_change', channel=8, control=7, value=102, time=60),
    Message('control_change', channel=8, control=7, value=101, time=20),
    Message('control_change', channel=8, control=7, value=99, time=50),
    Message('control_change', channel=8, control=7, value=97, time=60),
    Message('control_change', channel=8, control=7, value=96, time=30),
    Message('control_change', channel=8, control=7, value=95, time=20),
    Message('control_change', channel=8, control=7, value=94, time=60),
    Message('control_change', channel=8, control=7, value=92, time=50),
    Message('control_change', channel=8, control=7, value=90, time=30),
    Message('control_change', channel=8, control=7, value=89, time=40),
    Message('control_change', channel=8, control=7, value=88, time=40),
    Message('control_change', channel=8, control=7, value=87, time=20),
    Message('control_change', channel=8, control=7, value=85, time=30),
    Message('control_change', channel=8, control=7, value=84, time=40),
    Message('control_change', channel=8, control=7, value=83, time=70),
    Message('control_change', channel=8, control=7, value=82, time=20),
    Message('control_change', channel=8, control=7, value=81, time=30),
    Message('control_change', channel=8, control=7, value=80, time=20),
    Message('control_change', channel=8, control=7, value=78, time=20),
    Message('control_change', channel=8, control=7, value=77, time=40),
    Message('control_change', channel=8, control=7, value=76, time=30),
    Message('control_change', channel=8, control=7, value=75, time=20),
    Message('control_change', channel=8, control=7, value=74, time=20),
    Message('control_change', channel=8, control=7, value=73, time=20),
    Message('control_change', channel=8, control=7, value=70, time=20),
    Message('control_change', channel=8, control=7, value=69, time=10),
    Message('control_change', channel=8, control=7, value=66, time=20),
    Message('control_change', channel=8, control=7, value=63, time=20),
    Message('control_change', channel=8, control=7, value=62, time=30),
    Message('control_change', channel=8, control=7, value=61, time=80),
    Message('control_change', channel=8, control=7, value=59, time=90),
    Message('control_change', channel=8, control=7, value=57, time=40),
    Message('control_change', channel=8, control=7, value=56, time=70),
    Message('control_change', channel=8, control=7, value=55, time=10),
    Message('control_change', channel=8, control=7, value=54, time=80),
    Message('control_change', channel=8, control=7, value=52, time=20),
    Message('control_change', channel=8, control=7, value=50, time=30),
    Message('control_change', channel=8, control=7, value=49, time=40),
    Message('control_change', channel=8, control=7, value=48, time=10),
    Message('control_change', channel=8, control=7, value=47, time=30),
    Message('control_change', channel=8, control=7, value=45, time=10),
    Message('control_change', channel=8, control=7, value=43, time=40),
    Message('control_change', channel=8, control=7, value=42, time=20),
    Message('control_change', channel=8, control=7, value=41, time=10),
    Message('control_change', channel=8, control=7, value=40, time=60),
    Message('control_change', channel=8, control=7, value=38, time=58),
    Message('control_change', channel=8, control=7, value=37, time=52),
    Message('control_change', channel=8, control=7, value=36, time=50),
    Message('control_change', channel=8, control=7, value=35, time=20),
    Message('control_change', channel=8, control=7, value=34, time=30),
    Message('control_change', channel=8, control=7, value=33, time=30),
    Message('control_change', channel=8, control=7, value=31, time=30),
    Message('control_change', channel=8, control=7, value=30, time=108),
    Message('control_change', channel=8, control=7, value=29, time=30),
    Message('control_change', channel=8, control=7, value=28, time=30),
    Message('note_off', channel=8, note=53, velocity=0, time=14),
    Message('control_change', channel=8, control=7, value=27, time=0),
    Message('control_change', channel=8, control=7, value=26, time=56),
    MetaMessage('end_of_track', time=0)]),
  MidiTrack([
    MetaMessage('midi_port', port=0, time=0),
    MetaMessage('channel_prefix', channel=5, time=0),
    Message('program_change', channel=5, program=30, time=0),
    Message('note_on', channel=5, note=60, velocity=109, time=77520),
    Message('pitchwheel', channel=5, pitch=-6144, time=106),
    Message('pitchwheel', channel=5, pitch=-5760, time=6),
    Message('pitchwheel', channel=5, pitch=-5632, time=8),
    Message('pitchwheel', channel=5, pitch=-5376, time=6),
    Message('pitchwheel', channel=5, pitch=-4864, time=6),
    Message('pitchwheel', channel=5, pitch=-4736, time=8),
    Message('pitchwheel', channel=5, pitch=-4352, time=6),
    Message('pitchwheel', channel=5, pitch=-3968, time=6),
    Message('pitchwheel', channel=5, pitch=-3456, time=8),
    Message('pitchwheel', channel=5, pitch=-3200, time=6),
    Message('pitchwheel', channel=5, pitch=-2944, time=6),
    Message('pitchwheel', channel=5, pitch=-2560, time=8),
    Message('pitchwheel', channel=5, pitch=0, time=6),
    Message('pitchwheel', channel=5, pitch=-640, time=6),
    Message('pitchwheel', channel=5, pitch=-1408, time=8),
    Message('pitchwheel', channel=5, pitch=128, time=6),
    Message('pitchwheel', channel=5, pitch=128, time=14),
    Message('note_off', channel=5, note=60, velocity=0, time=20),
    Message('note_on', channel=5, note=69, velocity=109, time=0),
    Message('note_on', channel=5, note=69, velocity=0, time=140),
    Message('note_on', channel=5, note=60, velocity=109, time=20),
    Message('note_on', channel=5, note=60, velocity=0, time=180),
    Message('note_on', channel=5, note=69, velocity=109, time=140),
    Message('note_on', channel=5, note=69, velocity=0, time=140),
    Message('note_on', channel=5, note=60, velocity=109, time=20),
    Message('note_on', channel=5, note=69, velocity=109, time=80),
    Message('note_on', channel=5, note=60, velocity=0, time=60),
    Message('note_on', channel=5, note=69, velocity=0, time=100),
    Message('note_on', channel=5, note=60, velocity=109, time=0),
    Message('note_on', channel=5, note=69, velocity=109, time=80),
    Message('pitchwheel', channel=5, pitch=-128, time=46),
    Message('pitchwheel', channel=5, pitch=-256, time=20),
    Message('pitchwheel', channel=5, pitch=-384, time=6),
    Message('note_off', channel=5, note=60, velocity=0, time=8),
    Message('pitchwheel', channel=5, pitch=-512, time=6),
    Message('pitchwheel', channel=5, pitch=-640, time=6),
    Message('pitchwheel', channel=5, pitch=-896, time=8),
    Message('pitchwheel', channel=5, pitch=-1152, time=6),
    Message('pitchwheel', channel=5, pitch=-1280, time=6),
    Message('pitchwheel', channel=5, pitch=-1792, time=8),
    Message('pitchwheel', channel=5, pitch=-1920, time=6),
    Message('pitchwheel', channel=5, pitch=-2560, time=6),
    Message('pitchwheel', channel=5, pitch=-2816, time=8),
    Message('pitchwheel', channel=5, pitch=-3584, time=6),
    Message('pitchwheel', channel=5, pitch=-3840, time=6),
    Message('pitchwheel', channel=5, pitch=-3968, time=8),
    Message('pitchwheel', channel=5, pitch=-4992, time=6),
    Message('pitchwheel', channel=5, pitch=-5248, time=6),
    Message('pitchwheel', channel=5, pitch=-5504, time=8),
    Message('pitchwheel', channel=5, pitch=-6016, time=6),
    Message('pitchwheel', channel=5, pitch=-6400, time=6),
    Message('pitchwheel', channel=5, pitch=-6656, time=8),
    Message('pitchwheel', channel=5, pitch=-6784, time=12),
    Message('pitchwheel', channel=5, pitch=-6912, time=8),
    Message('pitchwheel', channel=5, pitch=-7168, time=6),
    Message('pitchwheel', channel=5, pitch=-7296, time=6),
    Message('pitchwheel', channel=5, pitch=-7424, time=8),
    Message('pitchwheel', channel=5, pitch=-7808, time=6),
    Message('note_off', channel=5, note=69, velocity=0, time=134),
    Message('pitchwheel', channel=5, pitch=128, time=340),
    Message('note_on', channel=5, note=69, velocity=109, time=0),
    Message('pitchwheel', channel=5, pitch=-4096, time=12),
    Message('pitchwheel', channel=5, pitch=-3968, time=8),
    Message('pitchwheel', channel=5, pitch=-3584, time=6),
    Message('pitchwheel', channel=5, pitch=-3456, time=6),
    Message('pitchwheel', channel=5, pitch=-3328, time=8),
    Message('pitchwheel', channel=5, pitch=-2944, time=6),
    Message('pitchwheel', channel=5, pitch=-2816, time=6),
    Message('pitchwheel', channel=5, pitch=-2560, time=8),
    Message('pitchwheel', channel=5, pitch=-2432, time=6),
    Message('pitchwheel', channel=5, pitch=-2304, time=6),
    Message('pitchwheel', channel=5, pitch=-1920, time=8),
    Message('pitchwheel', channel=5, pitch=-1664, time=6),
    Message('pitchwheel', channel=5, pitch=-1280, time=6),
    Message('pitchwheel', channel=5, pitch=-1024, time=8),
    Message('pitchwheel', channel=5, pitch=-896, time=6),
    Message('pitchwheel', channel=5, pitch=-512, time=6),
    Message('pitchwheel', channel=5, pitch=-384, time=8),
    Message('pitchwheel', channel=5, pitch=-128, time=6),
    Message('pitchwheel', channel=5, pitch=128, time=6),
    Message('pitchwheel', channel=5, pitch=256, time=8),
    Message('pitchwheel', channel=5, pitch=512, time=6),
    Message('pitchwheel', channel=5, pitch=640, time=6),
    Message('pitchwheel', channel=5, pitch=768, time=8),
    Message('pitchwheel', channel=5, pitch=896, time=6),
    Message('pitchwheel', channel=5, pitch=1024, time=6),
    Message('pitchwheel', channel=5, pitch=1152, time=8),
    Message('pitchwheel', channel=5, pitch=1408, time=6),
    Message('pitchwheel', channel=5, pitch=1664, time=6),
    Message('pitchwheel', channel=5, pitch=1792, time=8),
    Message('pitchwheel', channel=5, pitch=2176, time=6),
    Message('pitchwheel', channel=5, pitch=2560, time=6),
    Message('pitchwheel', channel=5, pitch=2944, time=8),
    Message('pitchwheel', channel=5, pitch=3584, time=6),
    Message('pitchwheel', channel=5, pitch=3712, time=6),
    Message('pitchwheel', channel=5, pitch=3968, time=8),
    Message('pitchwheel', channel=5, pitch=4096, time=6),
    Message('pitchwheel', channel=5, pitch=4096, time=440),
    Message('pitchwheel', channel=5, pitch=3968, time=34),
    Message('pitchwheel', channel=5, pitch=3840, time=12),
    Message('pitchwheel', channel=5, pitch=3712, time=14),
    Message('pitchwheel', channel=5, pitch=3584, time=6),
    Message('pitchwheel', channel=5, pitch=3456, time=8),
    Message('pitchwheel', channel=5, pitch=3328, time=12),
    Message('pitchwheel', channel=5, pitch=3072, time=8),
    Message('pitchwheel', channel=5, pitch=2944, time=6),
    Message('pitchwheel', channel=5, pitch=2816, time=6),
    Message('pitchwheel', channel=5, pitch=2688, time=8),
    Message('pitchwheel', channel=5, pitch=2560, time=6),
    Message('pitchwheel', channel=5, pitch=2304, time=6),
    Message('pitchwheel', channel=5, pitch=2176, time=8),
    Message('pitchwheel', channel=5, pitch=2048, time=6),
    Message('pitchwheel', channel=5, pitch=1792, time=6),
    Message('pitchwheel', channel=5, pitch=1664, time=8),
    Message('pitchwheel', channel=5, pitch=1536, time=6),
    Message('pitchwheel', channel=5, pitch=1408, time=6),
    Message('pitchwheel', channel=5, pitch=1280, time=8),
    Message('pitchwheel', channel=5, pitch=1152, time=6),
    Message('pitchwheel', channel=5, pitch=1024, time=6),
    Message('pitchwheel', channel=5, pitch=896, time=8),
    Message('pitchwheel', channel=5, pitch=768, time=12),
    Message('pitchwheel', channel=5, pitch=640, time=8),
    Message('pitchwheel', channel=5, pitch=512, time=6),
    Message('pitchwheel', channel=5, pitch=384, time=14),
    Message('pitchwheel', channel=5, pitch=256, time=6),
    Message('note_off', channel=5, note=69, velocity=0, time=34),
    Message('note_on', channel=5, note=69, velocity=109, time=240),
    Message('note_on', channel=5, note=68, velocity=109, time=160),
    Message('note_on', channel=5, note=69, velocity=0, time=20),
    Message('note_on', channel=5, note=68, velocity=0, time=60),
    Message('note_on', channel=5, note=67, velocity=109, time=0),
    Message('note_on', channel=5, note=67, velocity=0, time=160),
    Message('note_on', channel=5, note=65, velocity=109, time=0),
    Message('note_on', channel=5, note=65, velocity=0, time=80),
    Message('note_on', channel=5, note=62, velocity=109, time=0),
    Message('pitchwheel', channel=5, pitch=0, time=52),
    Message('pitchwheel', channel=5, pitch=-128, time=20),
    Message('pitchwheel', channel=5, pitch=-256, time=14),
    Message('pitchwheel', channel=5, pitch=-384, time=14),
    Message('pitchwheel', channel=5, pitch=-512, time=6),
    Message('pitchwheel', channel=5, pitch=-640, time=6),
    Message('pitchwheel', channel=5, pitch=-768, time=8),
    Message('pitchwheel', channel=5, pitch=-1024, time=6),
    Message('pitchwheel', channel=5, pitch=-1280, time=6),
    Message('pitchwheel', channel=5, pitch=-1408, time=8),
    Message('pitchwheel', channel=5, pitch=-1664, time=6),
    Message('pitchwheel', channel=5, pitch=-1920, time=6),
    Message('pitchwheel', channel=5, pitch=-2432, time=8),
    Message('pitchwheel', channel=5, pitch=-2816, time=6),
    Message('pitchwheel', channel=5, pitch=-3328, time=6),
    Message('pitchwheel', channel=5, pitch=-3584, time=8),
    Message('pitchwheel', channel=5, pitch=-3968, time=6),
    Message('pitchwheel', channel=5, pitch=-4224, time=6),
    Message('note_off', channel=5, note=62, velocity=0, time=48),
    Message('note_on', channel=5, note=57, velocity=109, time=0),
    Message('pitchwheel', channel=5, pitch=0, time=6),
    Message('note_off', channel=5, note=57, velocity=0, time=154),
    Message('note_on', channel=5, note=60, velocity=109, time=0),
    Message('note_on', channel=5, note=60, velocity=0, time=180),
    Message('note_on', channel=5, note=60, velocity=109, time=60),
    Message('note_on', channel=5, note=60, velocity=0, time=300),
    Message('note_on', channel=5, note=63, velocity=109, time=20),
    Message('pitchwheel', channel=5, pitch=0, time=180),
    Message('pitchwheel', channel=5, pitch=-128, time=26),
    Message('pitchwheel', channel=5, pitch=-256, time=20),
    Message('pitchwheel', channel=5, pitch=-384, time=6),
    Message('pitchwheel', channel=5, pitch=-512, time=8),
    Message('pitchwheel', channel=5, pitch=-768, time=12),
    Message('pitchwheel', channel=5, pitch=-896, time=8),
    Message('pitchwheel', channel=5, pitch=-1152, time=12),
    Message('pitchwheel', channel=5, pitch=-1280, time=8),
    Message('pitchwheel', channel=5, pitch=-1536, time=12),
    Message('pitchwheel', channel=5, pitch=-1664, time=8),
    Message('pitchwheel', channel=5, pitch=-1920, time=6),
    Message('pitchwheel', channel=5, pitch=-2048, time=6),
    Message('pitchwheel', channel=5, pitch=-2176, time=8),
    Message('pitchwheel', channel=5, pitch=-2560, time=6),
    Message('pitchwheel', channel=5, pitch=-2688, time=6),
    Message('pitchwheel', channel=5, pitch=-2816, time=8),
    Message('pitchwheel', channel=5, pitch=-2944, time=6),
    Message('pitchwheel', channel=5, pitch=-3200, time=6),
    Message('pitchwheel', channel=5, pitch=-3328, time=8),
    Message('pitchwheel', channel=5, pitch=-3712, time=6),
    Message('pitchwheel', channel=5, pitch=-4096, time=6),
    Message('pitchwheel', channel=5, pitch=-4352, time=8),
    Message('note_off', channel=5, note=63, velocity=0, time=60),
    Message('pitchwheel', channel=5, pitch=0, time=32),
    Message('note_on', channel=5, note=62, velocity=109, time=8),
    Message('note_on', channel=5, note=62, velocity=0, time=240),
    Message('note_on', channel=5, note=65, velocity=109, time=0),
    Message('note_on', channel=5, note=65, velocity=0, time=160),
    Message('note_on', channel=5, note=65, velocity=109, time=0),
    Message('note_on', channel=5, note=65, velocity=0, time=160),
    Message('pitchwheel', channel=5, pitch=-7679, time=160),
    Message('note_on', channel=5, note=69, velocity=109, time=0),
    Message('pitchwheel', channel=5, pitch=-7935, time=6),
    Message('pitchwheel', channel=5, pitch=-8063, time=14),
    Message('pitchwheel', channel=5, pitch=-7935, time=46),
    Message('pitchwheel', channel=5, pitch=-7807, time=6),
    Message('pitchwheel', channel=5, pitch=-7679, time=8),
    Message('pitchwheel', channel=5, pitch=-7423, time=12),
    Message('pitchwheel', channel=5, pitch=-7295, time=8),
    Message('pitchwheel', channel=5, pitch=-7039, time=6),
    Message('pitchwheel', channel=5, pitch=-6783, time=6),
    Message('pitchwheel', channel=5, pitch=-6399, time=8),
    Message('pitchwheel', channel=5, pitch=-5887, time=6),
    Message('pitchwheel', channel=5, pitch=-5503, time=6),
    Message('pitchwheel', channel=5, pitch=-4991, time=8),
    Message('pitchwheel', channel=5, pitch=-4479, time=6),
    Message('pitchwheel', channel=5, pitch=-4223, time=6),
    Message('pitchwheel', channel=5, pitch=-3711, time=8),
    Message('pitchwheel', channel=5, pitch=-3199, time=6),
    Message('pitchwheel', channel=5, pitch=-2943, time=6),
    Message('pitchwheel', channel=5, pitch=-2431, time=8),
    Message('pitchwheel', channel=5, pitch=-2303, time=6),
    Message('pitchwheel', channel=5, pitch=-1791, time=6),
    Message('pitchwheel', channel=5, pitch=-1535, time=8),
    Message('pitchwheel', channel=5, pitch=-1151, time=6),
    Message('pitchwheel', channel=5, pitch=-895, time=6),
    Message('pitchwheel', channel=5, pitch=-512, time=8),
    Message('pitchwheel', channel=5, pitch=-256, time=6),
    Message('pitchwheel', channel=5, pitch=-128, time=6),
    Message('pitchwheel', channel=5, pitch=0, time=8),
    Message('note_off', channel=5, note=69, velocity=0, time=1200),
    Message('note_on', channel=5, note=69, velocity=88, time=0),
    Message('note_on', channel=5, note=69, velocity=0, time=240),
    Message('note_on', channel=5, note=67, velocity=94, time=0),
    Message('note_on', channel=5, note=65, velocity=91, time=160),
    Message('note_on', channel=5, note=67, velocity=0, time=20),
    Message('note_on', channel=5, note=64, velocity=85, time=140),
    Message('note_on', channel=5, note=65, velocity=0, time=20),
    Message('note_on', channel=5, note=62, velocity=81, time=140),
    Message('note_on', channel=5, note=64, velocity=0, time=20),
    Message('note_on', channel=5, note=62, velocity=0, time=1900),
    Message('note_on', channel=5, note=60, velocity=80, time=0),
    Message('note_on', channel=5, note=60, velocity=0, time=1920),
    Message('note_on', channel=5, note=58, velocity=72, time=0),
    Message('note_on', channel=5, note=58, velocity=0, time=1920),
    Message('note_on', channel=5, note=60, velocity=73, time=0),
    Message('note_on', channel=5, note=60, velocity=0, time=1920),
    Message('note_on', channel=5, note=65, velocity=89, time=0),
    Message('note_on', channel=5, note=65, velocity=0, time=100),
    Message('note_on', channel=5, note=65, velocity=92, time=60),
    Message('note_on', channel=5, note=65, velocity=0, time=140),
    Message('note_on', channel=5, note=64, velocity=90, time=660),
    Message('note_on', channel=5, note=64, velocity=0, time=140),
    Message('note_on', channel=5, note=64, velocity=92, time=20),
    Message('note_on', channel=5, note=64, velocity=0, time=140),
    Message('note_on', channel=5, note=62, velocity=109, time=660),
    Message('note_on', channel=5, note=62, velocity=0, time=140),
    Message('note_on', channel=5, note=62, velocity=109, time=20),
    Message('note_on', channel=5, note=62, velocity=0, time=140),
    Message('note_on', channel=5, note=64, velocity=109, time=660),
    Message('note_on', channel=5, note=64, velocity=0, time=140),
    Message('note_on', channel=5, note=64, velocity=109, time=20),
    Message('note_on', channel=5, note=64, velocity=0, time=140),
    Message('note_on', channel=5, note=65, velocity=109, time=660),
    Message('note_on', channel=5, note=65, velocity=0, time=140),
    Message('note_on', channel=5, note=65, velocity=109, time=20),
    Message('note_on', channel=5, note=65, velocity=0, time=140),
    Message('note_on', channel=5, note=64, velocity=109, time=660),
    Message('note_on', channel=5, note=64, velocity=0, time=140),
    Message('note_on', channel=5, note=64, velocity=109, time=20),
    Message('note_on', channel=5, note=64, velocity=0, time=140),
    Message('note_on', channel=5, note=62, velocity=96, time=660),
    Message('note_on', channel=5, note=62, velocity=0, time=460),
    Message('note_on', channel=5, note=64, velocity=97, time=20),
    Message('note_on', channel=5, note=64, velocity=0, time=480),
    Message('note_on', channel=5, note=65, velocity=94, time=0),
    Message('note_on', channel=5, note=65, velocity=0, time=480),
    Message('note_on', channel=5, note=67, velocity=98, time=0),
    Message('note_on', channel=5, note=67, velocity=0, time=480),
    Message('note_on', channel=5, note=69, velocity=91, time=0),
    Message('note_on', channel=5, note=69, velocity=0, time=960),
    Message('note_on', channel=5, note=67, velocity=80, time=0),
    Message('note_on', channel=5, note=67, velocity=0, time=960),
    Message('note_on', channel=5, note=67, velocity=83, time=0),
    Message('note_on', channel=5, note=67, velocity=0, time=480),
    Message('note_on', channel=5, note=69, velocity=79, time=0),
    Message('note_on', channel=5, note=69, velocity=0, time=480),
    Message('note_on', channel=5, note=70, velocity=78, time=0),
    Message('note_on', channel=5, note=70, velocity=0, time=480),
    Message('note_on', channel=5, note=72, velocity=80, time=0),
    Message('note_on', channel=5, note=72, velocity=0, time=480),
    Message('note_on', channel=5, note=74, velocity=80, time=0),
    Message('note_on', channel=5, note=74, velocity=0, time=480),
    Message('note_on', channel=5, note=72, velocity=79, time=0),
    Message('note_on', channel=5, note=72, velocity=0, time=480),
    Message('note_on', channel=5, note=70, velocity=78, time=0),
    Message('note_on', channel=5, note=70, velocity=0, time=480),
    Message('note_on', channel=5, note=72, velocity=75, time=0),
    Message('note_on', channel=5, note=72, velocity=0, time=480),
    Message('note_on', channel=5, note=74, velocity=80, time=240),
    Message('note_on', channel=5, note=74, velocity=0, time=240),
    Message('note_on', channel=5, note=72, velocity=77, time=0),
    Message('note_on', channel=5, note=72, velocity=0, time=480),
    Message('note_on', channel=5, note=70, velocity=91, time=0),
    Message('note_on', channel=5, note=70, velocity=0, time=480),
    Message('note_on', channel=5, note=72, velocity=91, time=0),
    Message('note_on', channel=5, note=72, velocity=0, time=480),
    Message('note_on', channel=5, note=74, velocity=91, time=0),
    Message('note_on', channel=5, note=74, velocity=0, time=480),
    Message('note_on', channel=5, note=72, velocity=91, time=0),
    Message('note_on', channel=5, note=72, velocity=0, time=480),
    Message('note_on', channel=5, note=70, velocity=91, time=0),
    Message('note_on', channel=5, note=70, velocity=0, time=480),
    Message('note_on', channel=5, note=72, velocity=91, time=0),
    Message('note_on', channel=5, note=72, velocity=0, time=480),
    MetaMessage('end_of_track', time=0)]),
  MidiTrack([
    MetaMessage('midi_port', port=0, time=0),
    MetaMessage('channel_prefix', channel=9, time=0),
    Message('note_on', channel=9, note=38, velocity=92, time=0),
    Message('note_on', channel=9, note=38, velocity=0, time=30),
    Message('note_on', channel=9, note=38, velocity=124, time=210),
    Message('note_on', channel=9, note=38, velocity=0, time=30),
    Message('note_on', channel=9, note=38, velocity=38, time=90),
    Message('note_on', channel=9, note=38, velocity=0, time=30),
    Message('note_on', channel=9, note=38, velocity=38, time=10),
    Message('note_on', channel=9, note=38, velocity=0, time=30),
    Message('note_on', channel=9, note=38, velocity=39, time=10),
    Message('note_on', channel=9, note=38, velocity=0, time=30),
    Message('note_on', channel=9, note=38, velocity=127, time=10),
    Message('note_on', channel=9, note=38, velocity=0, time=30),
    Message('note_on', channel=9, note=35, velocity=116, time=130),
    Message('note_on', channel=9, note=35, velocity=0, time=30),
    Message('note_on', channel=9, note=38, velocity=126, time=50),
    Message('note_on', channel=9, note=38, velocity=0, time=30),
    Message('note_on', channel=9, note=38, velocity=127, time=130),
    Message('note_on', channel=9, note=38, velocity=0, time=30),
    Message('note_on', channel=9, note=35, velocity=127, time=50),
    Message('note_on', channel=9, note=49, velocity=105, time=0),
    Message('note_on', channel=9, note=49, velocity=0, time=30),
    Message('note_on', channel=9, note=35, velocity=0, time=0),
    Message('note_on', channel=9, note=42, velocity=80, time=130),
    Message('note_on', channel=9, note=42, velocity=0, time=30),
    Message('note_on', channel=9, note=35, velocity=123, time=50),
    Message('note_on', channel=9, note=42, velocity=94, time=0),
    Message('note_on', channel=9, note=42, velocity=0, time=30),
    Message('note_on', channel=9, note=35, velocity=0, time=0),
    Message('note_on', channel=9, note=42, velocity=83, time=130),
    Message('note_on', channel=9, note=42, velocity=0, time=30),
    Message('note_on', channel=9, note=49, velocity=90, time=50),
    Message('note_on', channel=9, note=38, velocity=125, time=0),
    Message('note_on', channel=9, note=42, velocity=125, time=0),
    Message('note_on', channel=9, note=42, velocity=0, time=30),
    Message('note_on', channel=9, note=38, velocity=0, time=0),
    Message('note_on', channel=9, note=49, velocity=0, time=0),
    Message('note_on', channel=9, note=42, velocity=79, time=130),
    Message('note_on', channel=9, note=42, velocity=0, time=30),
    Message('note_on', channel=9, note=42, velocity=98, time=50),
    Message('note_on', channel=9, note=42, velocity=0, time=30),
    Message('note_on', channel=9, note=42, velocity=83, time=130),
    Message('note_on', channel=9, note=42, velocity=0, time=30),
    Message('note_on', channel=9, note=35, velocity=126, time=50),
    Message('note_on', channel=9, note=42, velocity=126, time=0),
    Message('note_on', channel=9, note=42, velocity=0, time=30),
    Message('note_on', channel=9, note=35, velocity=0, time=0),
    Message('note_on', channel=9, note=42, velocity=83, time=130),
    Message('note_on', channel=9, note=42, velocity=0, time=30),
    Message('note_on', channel=9, note=42, velocity=90, time=50),
    Message('note_on', channel=9, note=35, velocity=100, time=0),
    Message('note_on', channel=9, note=35, velocity=0, time=30),
    Message('note_on', channel=9, note=42, velocity=0, time=0),
    Message('note_on', channel=9, note=42, velocity=80, time=130),
    Message('note_on', channel=9, note=42, velocity=0, time=30),
    Message('note_on', channel=9, note=49, velocity=90, time=50),
    Message('note_on', channel=9, note=38, velocity=127, time=0),
    Message('note_on', channel=9, note=42, velocity=126, time=0),
    Message('note_on', channel=9, note=42, velocity=0, time=30),
    Message('note_on', channel=9, note=38, velocity=0, time=0),
    Message('note_on', channel=9, note=49, velocity=0, time=0),
    Message('note_on', channel=9, note=42, velocity=83, time=130),
    Message('note_on', channel=9, note=42, velocity=0, time=30),
    Message('note_on', channel=9, note=42, velocity=105, time=50),
    Message('note_on', channel=9, note=42, velocity=0, time=30),
    Message('note_on', channel=9, note=42, velocity=83, time=130),
    Message('note_on', channel=9, note=42, velocity=0, time=30),
    Message('note_on', channel=9, note=35, velocity=127, time=50),
    Message('note_on', channel=9, note=42, velocity=127, time=0),
    Message('note_on', channel=9, note=42, velocity=0, time=30),
    Message('note_on', channel=9, note=35, velocity=0, time=0),
    Message('note_on', channel=9, note=42, velocity=100, time=130),
    Message('note_on', channel=9, note=42, velocity=0, time=30),
    Message('note_on', channel=9, note=35, velocity=123, time=50),
    Message('note_on', channel=9, note=42, velocity=94, time=0),
    Message('note_on', channel=9, note=42, velocity=0, time=30),
    Message('note_on', channel=9, note=35, velocity=0, time=0),
    Message('note_on', channel=9, note=42, velocity=83, time=130),
    Message('note_on', channel=9, note=42, velocity=0, time=30),
    Message('note_on', channel=9, note=49, velocity=90, time=50),
    Message('note_on', channel=9, note=38, velocity=125, time=0),
    Message('note_on', channel=9, note=42, velocity=125, time=0),
    Message('note_on', channel=9, note=42, velocity=0, time=30),
    Message('note_on', channel=9, note=38, velocity=0, time=0),
    Message('note_on', channel=9, note=49, velocity=0, time=0),
    Message('note_on', channel=9, note=42, velocity=100, time=130),
    Message('note_on', channel=9, note=42, velocity=0, time=30),
    Message('note_on', channel=9, note=42, velocity=92, time=50),
    Message('note_on', channel=9, note=42, velocity=0, time=30),
    Message('note_on', channel=9, note=42, velocity=100, time=130),
    Message('note_on', channel=9, note=35, velocity=55, time=0),
    Message('note_on', channel=9, note=35, velocity=0, time=30),
    Message('note_on', channel=9, note=42, velocity=0, time=0),
    Message('note_on', channel=9, note=42, velocity=126, time=50),
    Message('note_on', channel=9, note=35, velocity=126, time=0),
    Message('note_on', channel=9, note=35, velocity=0, time=30),
    Message('note_on', channel=9, note=42, velocity=0, time=0),
    Message('note_on', channel=9, note=42, velocity=100, time=130),
    Message('note_on', channel=9, note=42, velocity=0, time=30),
    Message('note_on', channel=9, note=42, velocity=90, time=50),
    Message('note_on', channel=9, note=35, velocity=100, time=0),
    Message('note_on', channel=9, note=35, velocity=0, time=30),
    Message('note_on', channel=9, note=42, velocity=0, time=0),
    Message('note_on', channel=9, note=42, velocity=83, time=130),
    Message('note_on', channel=9, note=42, velocity=0, time=30),
    Message('note_on', channel=9, note=49, velocity=90, time=50),
    Message('note_on', channel=9, note=38, velocity=126, time=0),
    Message('note_on', channel=9, note=42, velocity=126, time=0),
    Message('note_on', channel=9, note=42, velocity=0, time=30),
    Message('note_on', channel=9, note=38, velocity=0, time=0),
    Message('note_on', channel=9, note=49, velocity=0, time=0),
    Message('note_on', channel=9, note=35, velocity=72, time=130),
    Message('note_on', channel=9, note=35, velocity=0, time=30),
    Message('note_on', channel=9, note=38, velocity=105, time=50),
    Message('note_on', channel=9, note=38, velocity=0, time=30),
    Message('note_on', channel=9, note=38, velocity=105, time=130),
    Message('note_on', channel=9, note=38, velocity=0, time=30),
    Message('note_on', channel=9, note=35, velocity=127, time=50),
    Message('note_on', channel=9, note=42, velocity=103, time=0),
    Message('note_on', channel=9, note=42, velocity=0, time=30),
    Message('note_on', channel=9, note=35, velocity=0, time=0),
    Message('note_on', channel=9, note=42, velocity=80, time=130),
    Message('note_on', channel=9, note=42, velocity=0, time=30),
    Message('note_on', channel=9, note=35, velocity=123, time=50),
    Message('note_on', channel=9, note=42, velocity=94, time=0),
    Message('note_on', channel=9, note=42, velocity=0, time=30),
    Message('note_on', channel=9, note=35, velocity=0, time=0),
    Message('note_on', channel=9, note=42, velocity=83, time=130),
    Message('note_on', channel=9, note=42, velocity=0, time=30),
    Message('note_on', channel=9, note=49, velocity=90, time=50),
    Message('note_on', channel=9, note=38, velocity=125, time=0),
    Message('note_on', channel=9, note=42, velocity=125, time=0),
    Message('note_on', channel=9, note=42, velocity=0, time=30),
    Message('note_on', channel=9, note=38, velocity=0, time=0),
    Message('note_on', channel=9, note=49, velocity=0, time=0),
    Message('note_on', channel=9, note=42, velocity=79, time=130),
    Message('note_on', channel=9, note=42, velocity=0, time=30),
    Message('note_on', channel=9, note=42, velocity=98, time=50),
    Message('note_on', channel=9, note=42, velocity=0, time=30),
    Message('note_on', channel=9, note=42, velocity=83, time=130),
    Message('note_on', channel=9, note=42, velocity=0, time=30),
    Message('note_on', channel=9, note=35, velocity=126, time=50),
    Message('note_on', channel=9, note=42, velocity=126, time=0),
    Message('note_on', channel=9, note=42, velocity=0, time=30),
    Message('note_on', channel=9, note=35, velocity=0, time=0),
    Message('note_on', channel=9, note=42, velocity=83, time=130),
    Message('note_on', channel=9, note=42, velocity=0, time=30),
    Message('note_on', channel=9, note=42, velocity=90, time=50),
    Message('note_on', channel=9, note=35, velocity=100, time=0),
    Message('note_on', channel=9, note=35, velocity=0, time=30),
    Message('note_on', channel=9, note=42, velocity=0, time=0),
    Message('note_on', channel=9, note=42, velocity=80, time=130),
    Message('note_on', channel=9, note=42, velocity=0, time=30),
    Message('note_on', channel=9, note=49, velocity=90, time=50),
    Message('note_on', channel=9, note=38, velocity=127, time=0),
    Message('note_on', channel=9, note=42, velocity=126, time=0),
    Message('note_on', channel=9, note=42, velocity=0, time=30),
    Message('note_on', channel=9, note=38, velocity=0, time=0),
    Message('note_on', channel=9, note=49, velocity=0, time=0),
    Message('note_on', channel=9, note=42, velocity=83, time=130),
    Message('note_on', channel=9, note=42, velocity=0, time=30),
    Message('note_on', channel=9, note=42, velocity=105, time=50),
    Message('note_on', channel=9, note=42, velocity=0, time=30),
    Message('note_on', channel=9, note=42, velocity=83, time=130),
    Message('note_on', channel=9, note=42, velocity=0, time=30),
    Message('note_on', channel=9, note=35, velocity=127, time=50),
    Message('note_on', channel=9, note=42, velocity=127, time=0),
    Message('note_on', channel=9, note=42, velocity=0, time=30),
    Message('note_on', channel=9, note=35, velocity=0, time=0),
    Message('note_on', channel=9, note=42, velocity=100, time=130),
    Message('note_on', channel=9, note=42, velocity=0, time=30),
    Message('note_on', channel=9, note=35, velocity=123, time=50),
    Message('note_on', channel=9, note=42, velocity=94, time=0),
    Message('note_on', channel=9, note=42, velocity=0, time=30),
    Message('note_on', channel=9, note=35, velocity=0, time=0),
    Message('note_on', channel=9, note=42, velocity=83, time=130),
    Message('note_on', channel=9, note=42, velocity=0, time=30),
    Message('note_on', channel=9, note=49, velocity=90, time=50),
    Message('note_on', channel=9, note=38, velocity=125, time=0),
    Message('note_on', channel=9, note=42, velocity=125, time=0),
    Message('note_on', channel=9, note=42, velocity=0, time=30),
    Message('note_on', channel=9, note=38, velocity=0, time=0),
    Message('note_on', channel=9, note=49, velocity=0, time=0),
    Message('note_on', channel=9, note=42, velocity=100, time=130),
    Message('note_on', channel=9, note=42, velocity=0, time=30),
    Message('note_on', channel=9, note=42, velocity=92, time=50),
    Message('note_on', channel=9, note=42, velocity=0, time=30),
    Message('note_on', channel=9, note=42, velocity=77, time=130),
    Message('note_on', channel=9, note=42, velocity=0, time=30),
    Message('note_on', channel=9, note=42, velocity=126, time=50),
    Message('note_on', channel=9, note=35, velocity=126, time=0),
    Message('note_on', channel=9, note=49, velocity=77, time=0),
    Message('note_on', channel=9, note=49, velocity=0, time=30),
    Message('note_on', channel=9, note=35, velocity=0, time=0),
    Message('note_on', channel=9, note=42, velocity=0, time=0),
    Message('note_on', channel=9, note=42, velocity=100, time=130),
    Message('note_on', channel=9, note=42, velocity=0, time=30),
    Message('note_on', channel=9, note=42, velocity=90, time=50),
    Message('note_on', channel=9, note=35, velocity=100, time=0),
    Message('note_on', channel=9, note=35, velocity=0, time=30),
    Message('note_on', channel=9, note=42, velocity=0, time=0),
    Message('note_on', channel=9, note=42, velocity=83, time=130),
    Message('note_on', channel=9, note=42, velocity=0, time=30),
    Message('note_on', channel=9, note=49, velocity=90, time=50),
    Message('note_on', channel=9, note=38, velocity=126, time=0),
    Message('note_on', channel=9, note=42, velocity=126, time=0),
    Message('note_on', channel=9, note=42, velocity=0, time=30),
    Message('note_on', channel=9, note=38, velocity=0, time=0),
    Message('note_on', channel=9, note=49, velocity=0, time=0),
    Message('note_on', channel=9, note=42, velocity=100, time=130),
    Message('note_on', channel=9, note=42, velocity=0, time=30),
    Message('note_on', channel=9, note=38, velocity=126, time=50),
    Message('note_on', channel=9, note=46, velocity=92, time=0),
    Message('note_on', channel=9, note=46, velocity=0, time=30),
    Message('note_on', channel=9, note=38, velocity=0, time=0),
    Message('note_on', channel=9, note=38, velocity=126, time=130),
    Message('note_on', channel=9, note=46, velocity=127, time=0),
    Message('note_on', channel=9, note=46, velocity=0, time=30),
    Message('note_on', channel=9, note=38, velocity=0, time=0),
    Message('note_on', channel=9, note=42, velocity=44, time=50),
    Message('note_on', channel=9, note=42, velocity=0, time=30),
    Message('note_on', channel=9, note=42, velocity=94, time=210),
    Message('note_on', channel=9, note=35, velocity=123, time=0),
    Message('note_on', channel=9, note=35, velocity=0, time=30),
    Message('note_on', channel=9, note=42, velocity=0, time=0),
    Message('note_on', channel=9, note=42, velocity=125, time=210),
    Message('note_on', channel=9, note=38, velocity=125, time=0),
    Message('note_on', channel=9, note=38, velocity=0, time=30),
    Message('note_on', channel=9, note=42, velocity=0, time=0),
    Message('note_on', channel=9, note=42, velocity=100, time=130),
    Message('note_on', channel=9, note=42, velocity=0, time=30),
    Message('note_on', channel=9, note=42, velocity=92, time=50),
    Message('note_on', channel=9, note=42, velocity=0, time=30),
    Message('note_on', channel=9, note=35, velocity=126, time=210),
    Message('note_on', channel=9, note=42, velocity=126, time=0),
    Message('note_on', channel=9, note=42, velocity=0, time=30),
    Message('note_on', channel=9, note=35, velocity=0, time=0),
    Message('note_on', channel=9, note=42, velocity=100, time=130),
    Message('note_on', channel=9, note=42, velocity=0, time=30),
    Message('note_on', channel=9, note=46, velocity=90, time=50),
    Message('note_on', channel=9, note=35, velocity=100, time=0),
    Message('note_on', channel=9, note=35, velocity=0, time=30),
    Message('note_on', channel=9, note=46, velocity=0, time=0),
    Message('note_on', channel=9, note=42, velocity=126, time=210),
    Message('note_on', channel=9, note=38, velocity=127, time=0),
    Message('note_on', channel=9, note=38, velocity=0, time=30),
    Message('note_on', channel=9, note=42, velocity=0, time=0),
    Message('note_on', channel=9, note=42, velocity=100, time=130),
    Message('note_on', channel=9, note=42, velocity=0, time=30),
    Message('note_on', channel=9, note=42, velocity=94, time=50),
    Message('note_on', channel=9, note=42, velocity=0, time=30),
    Message('note_on', channel=9, note=35, velocity=127, time=210),
    Message('note_on', channel=9, note=42, velocity=127, time=0),
    Message('note_on', channel=9, note=42, velocity=0, time=30),
    Message('note_on', channel=9, note=35, velocity=0, time=0),
    Message('note_on', channel=9, note=42, velocity=100, time=130),
    Message('note_on', channel=9, note=42, velocity=0, time=30),
    Message('note_on', channel=9, note=35, velocity=123, time=50),
    Message('note_on', channel=9, note=42, velocity=94, time=0),
    Message('note_on', channel=9, note=42, velocity=0, time=30),
    Message('note_on', channel=9, note=35, velocity=0, time=0),
    Message('note_on', channel=9, note=38, velocity=125, time=210),
    Message('note_on', channel=9, note=42, velocity=125, time=0),
    Message('note_on', channel=9, note=42, velocity=0, time=30),
    Message('note_on', channel=9, note=38, velocity=0, time=0),
    Message('note_on', channel=9, note=42, velocity=100, time=130),
    Message('note_on', channel=9, note=42, velocity=0, time=30),
    Message('note_on', channel=9, note=42, velocity=92, time=50),
    Message('note_on', channel=9, note=42, velocity=0, time=30),
    Message('note_on', channel=9, note=42, velocity=126, time=210),
    Message('note_on', channel=9, note=35, velocity=126, time=0),
    Message('note_on', channel=9, note=35, velocity=0, time=30),
    Message('note_on', channel=9, note=42, velocity=0, time=0),
    Message('note_on', channel=9, note=38, velocity=127, time=130),
    Message('note_on', channel=9, note=42, velocity=100, time=0),
    Message('note_on', channel=9, note=42, velocity=0, time=30),
    Message('note_on', channel=9, note=38, velocity=0, time=0),
    Message('note_on', channel=9, note=42, velocity=90, time=50),
    Message('note_on', channel=9, note=35, velocity=100, time=0),
    Message('note_on', channel=9, note=35, velocity=0, time=30),
    Message('note_on', channel=9, note=42, velocity=0, time=0),
    Message('note_on', channel=9, note=38, velocity=127, time=210),
    Message('note_on', channel=9, note=42, velocity=126, time=0),
    Message('note_on', channel=9, note=42, velocity=0, time=30),
    Message('note_on', channel=9, note=38, velocity=0, time=0),
    Message('note_on', channel=9, note=42, velocity=100, time=130),
    Message('note_on', channel=9, note=42, velocity=0, time=30),
    Message('note_on', channel=9, note=42, velocity=92, time=50),
    Message('note_on', channel=9, note=42, velocity=0, time=30),
    Message('note_on', channel=9, note=42, velocity=92, time=50),
    Message('note_on', channel=9, note=42, velocity=0, time=30),
    Message('note_on', channel=9, note=42, velocity=93, time=50),
    Message('note_on', channel=9, note=42, velocity=0, time=30),
    Message('note_on', channel=9, note=35, velocity=124, time=50),
    Message('note_on', channel=9, note=42, velocity=124, time=0),
    Message('note_on', channel=9, note=42, velocity=0, time=30),
    Message('note_on', channel=9, note=35, velocity=0, time=0),
    Message('note_on', channel=9, note=42, velocity=100, time=130),
    Message('note_on', channel=9, note=42, velocity=0, time=30),
    Message('note_on', channel=9, note=42, velocity=94, time=50),
    Message('note_on', channel=9, note=35, velocity=123, time=0),
    Message('note_on', channel=9, note=35, velocity=0, time=30),
    Message('note_on', channel=9, note=42, velocity=0, time=0),
    Message('note_on', channel=9, note=42, velocity=125, time=210),
    Message('note_on', channel=9, note=38, velocity=125, time=0),
    Message('note_on', channel=9, note=38, velocity=0, time=30),
    Message('note_on', channel=9, note=42, velocity=0, time=0),
    Message('note_on', channel=9, note=42, velocity=100, time=130),
    Message('note_on', channel=9, note=42, velocity=0, time=30),
    Message('note_on', channel=9, note=42, velocity=92, time=50),
    Message('note_on', channel=9, note=42, velocity=0, time=30),
    Message('note_on', channel=9, note=35, velocity=126, time=210),
    Message('note_on', channel=9, note=42, velocity=126, time=0),
    Message('note_on', channel=9, note=42, velocity=0, time=30),
    Message('note_on', channel=9, note=35, velocity=0, time=0),
    Message('note_on', channel=9, note=42, velocity=100, time=130),
    Message('note_on', channel=9, note=42, velocity=0, time=30),
    Message('note_on', channel=9, note=42, velocity=90, time=50),
    Message('note_on', channel=9, note=35, velocity=100, time=0),
    Message('note_on', channel=9, note=35, velocity=0, time=30),
    Message('note_on', channel=9, note=42, velocity=0, time=0),
    Message('note_on', channel=9, note=42, velocity=126, time=210),
    Message('note_on', channel=9, note=38, velocity=127, time=0),
    Message('note_on', channel=9, note=38, velocity=0, time=30),
    Message('note_on', channel=9, note=42, velocity=0, time=0),
    Message('note_on', channel=9, note=42, velocity=100, time=130),
    Message('note_on', channel=9, note=42, velocity=0, time=30),
    Message('note_on', channel=9, note=46, velocity=94, time=50),
    Message('note_on', channel=9, note=46, velocity=0, time=30),
    Message('note_on', channel=9, note=35, velocity=127, time=210),
    Message('note_on', channel=9, note=42, velocity=127, time=0),
    Message('note_on', channel=9, note=42, velocity=0, time=30),
    Message('note_on', channel=9, note=35, velocity=0, time=0),
    Message('note_on', channel=9, note=42, velocity=100, time=130),
    Message('note_on', channel=9, note=42, velocity=0, time=30),
    Message('note_on', channel=9, note=35, velocity=123, time=50),
    Message('note_on', channel=9, note=42, velocity=94, time=0),
    Message('note_on', channel=9, note=42, velocity=0, time=30),
    Message('note_on', channel=9, note=35, velocity=0, time=0),
    Message('note_on', channel=9, note=38, velocity=125, time=210),
    Message('note_on', channel=9, note=42, velocity=125, time=0),
    Message('note_on', channel=9, note=42, velocity=0, time=30),
    Message('note_on', channel=9, note=38, velocity=0, time=0),
    Message('note_on', channel=9, note=42, velocity=100, time=130),
    Message('note_on', channel=9, note=42, velocity=0, time=30),
    Message('note_on', channel=9, note=42, velocity=92, time=50),
    Message('note_on', channel=9, note=42, velocity=0, time=30),
    Message('note_on', channel=9, note=42, velocity=126, time=210),
    Message('note_on', channel=9, note=35, velocity=126, time=0),
    Message('note_on', channel=9, note=35, velocity=0, time=30),
    Message('note_on', channel=9, note=42, velocity=0, time=0),
    Message('note_on', channel=9, note=38, velocity=127, time=130),
    Message('note_on', channel=9, note=42, velocity=100, time=0),
    Message('note_on', channel=9, note=42, velocity=0, time=30),
    Message('note_on', channel=9, note=38, velocity=0, time=0),
    Message('note_on', channel=9, note=46, velocity=90, time=50),
    Message('note_on', channel=9, note=35, velocity=100, time=0),
    Message('note_on', channel=9, note=35, velocity=0, time=30),
    Message('note_on', channel=9, note=46, velocity=0, time=0),
    Message('note_on', channel=9, note=38, velocity=127, time=210),
    Message('note_on', channel=9, note=42, velocity=126, time=0),
    Message('note_on', channel=9, note=42, velocity=0, time=30),
    Message('note_on', channel=9, note=38, velocity=0, time=0),
    Message('note_on', channel=9, note=42, velocity=100, time=130),
    Message('note_on', channel=9, note=42, velocity=0, time=30),
    Message('note_on', channel=9, note=46, velocity=92, time=50),
    Message('note_on', channel=9, note=46, velocity=0, time=30),
    Message('note_on', channel=9, note=35, velocity=124, time=210),
    Message('note_on', channel=9, note=42, velocity=124, time=0),
    Message('note_on', channel=9, note=42, velocity=0, time=30),
    Message('note_on', channel=9, note=35, velocity=0, time=0),
    Message('note_on', channel=9, note=42, velocity=100, time=130),
    Message('note_on', channel=9, note=42, velocity=0, time=30),
    Message('note_on', channel=9, note=42, velocity=94, time=50),
    Message('note_on', channel=9, note=35, velocity=123, time=0),
    Message('note_on', channel=9, note=35, velocity=0, time=30),
    Message('note_on', channel=9, note=42, velocity=0, time=0),
    Message('note_on', channel=9, note=42, velocity=125, time=210),
    Message('note_on', channel=9, note=38, velocity=125, time=0),
    Message('note_on', channel=9, note=38, velocity=0, time=30),
    Message('note_on', channel=9, note=42, velocity=0, time=0),
    Message('note_on', channel=9, note=42, velocity=100, time=130),
    Message('note_on', channel=9, note=42, velocity=0, time=30),
    Message('note_on', channel=9, note=42, velocity=92, time=50),
    Message('note_on', channel=9, note=42, velocity=0, time=30),
    Message('note_on', channel=9, note=35, velocity=126, time=210),
    Message('note_on', channel=9, note=42, velocity=126, time=0),
    Message('note_on', channel=9, note=42, velocity=0, time=30),
    Message('note_on', channel=9, note=35, velocity=0, time=0),
    Message('note_on', channel=9, note=42, velocity=100, time=130),
    Message('note_on', channel=9, note=42, velocity=0, time=30),
    Message('note_on', channel=9, note=46, velocity=90, time=50),
    Message('note_on', channel=9, note=35, velocity=100, time=0),
    Message('note_on', channel=9, note=35, velocity=0, time=30),
    Message('note_on', channel=9, note=46, velocity=0, time=0),
    Message('note_on', channel=9, note=42, velocity=126, time=210),
    Message('note_on', channel=9, note=38, velocity=127, time=0),
    Message('note_on', channel=9, note=38, velocity=0, time=30),
    Message('note_on', channel=9, note=42, velocity=0, time=0),
    Message('note_on', channel=9, note=42, velocity=100, time=130),
    Message('note_on', channel=9, note=42, velocity=0, time=30),
    Message('note_on', channel=9, note=42, velocity=94, time=50),
    Message('note_on', channel=9, note=42, velocity=0, time=30),
    Message('note_on', channel=9, note=35, velocity=127, time=210),
    Message('note_on', channel=9, note=42, velocity=127, time=0),
    Message('note_on', channel=9, note=42, velocity=0, time=30),
    Message('note_on', channel=9, note=35, velocity=0, time=0),
    Message('note_on', channel=9, note=42, velocity=100, time=130),
    Message('note_on', channel=9, note=42, velocity=0, time=30),
    Message('note_on', channel=9, note=35, velocity=123, time=50),
    Message('note_on', channel=9, note=42, velocity=94, time=0),
    Message('note_on', channel=9, note=42, velocity=0, time=30),
    Message('note_on', channel=9, note=35, velocity=0, time=0),
    Message('note_on', channel=9, note=38, velocity=125, time=210),
    Message('note_on', channel=9, note=42, velocity=125, time=0),
    Message('note_on', channel=9, note=42, velocity=0, time=30),
    Message('note_on', channel=9, note=38, velocity=0, time=0),
    Message('note_on', channel=9, note=42, velocity=100, time=130),
    Message('note_on', channel=9, note=42, velocity=0, time=30),
    Message('note_on', channel=9, note=42, velocity=92, time=50),
    Message('note_on', channel=9, note=42, velocity=0, time=30),
    Message('note_on', channel=9, note=42, velocity=126, time=210),
    Message('note_on', channel=9, note=35, velocity=126, time=0),
    Message('note_on', channel=9, note=35, velocity=0, time=30),
    Message('note_on', channel=9, note=42, velocity=0, time=0),
    Message('note_on', channel=9, note=38, velocity=127, time=130),
    Message('note_on', channel=9, note=42, velocity=100, time=0),
    Message('note_on', channel=9, note=42, velocity=0, time=30),
    Message('note_on', channel=9, note=38, velocity=0, time=0),
    Message('note_on', channel=9, note=46, velocity=90, time=50),
    Message('note_on', channel=9, note=35, velocity=100, time=0),
    Message('note_on', channel=9, note=35, velocity=0, time=30),
    Message('note_on', channel=9, note=46, velocity=0, time=0),
    Message('note_on', channel=9, note=38, velocity=127, time=210),
    Message('note_on', channel=9, note=42, velocity=126, time=0),
    Message('note_on', channel=9, note=42, velocity=0, time=30),
    Message('note_on', channel=9, note=38, velocity=0, time=0),
    Message('note_on', channel=9, note=42, velocity=100, time=130),
    Message('note_on', channel=9, note=42, velocity=0, time=30),
    Message('note_on', channel=9, note=46, velocity=92, time=50),
    Message('note_on', channel=9, note=46, velocity=0, time=30),
    Message('note_on', channel=9, note=35, velocity=124, time=210),
    Message('note_on', channel=9, note=42, velocity=124, time=0),
    Message('note_on', channel=9, note=42, velocity=0, time=30),
    Message('note_on', channel=9, note=35, velocity=0, time=0),
    Message('note_on', channel=9, note=42, velocity=100, time=130),
    Message('note_on', channel=9, note=42, velocity=0, time=30),
    Message('note_on', channel=9, note=42, velocity=94, time=50),
    Message('note_on', channel=9, note=35, velocity=123, time=0),
    Message('note_on', channel=9, note=35, velocity=0, time=30),
    Message('note_on', channel=9, note=42, velocity=0, time=0),
    Message('note_on', channel=9, note=42, velocity=125, time=210),
    Message('note_on', channel=9, note=38, velocity=125, time=0),
    Message('note_on', channel=9, note=38, velocity=0, time=30),
    Message('note_on', channel=9, note=42, velocity=0, time=0),
    Message('note_on', channel=9, note=42, velocity=100, time=130),
    Message('note_on', channel=9, note=42, velocity=0, time=30),
    Message('note_on', channel=9, note=42, velocity=92, time=50),
    Message('note_on', channel=9, note=42, velocity=0, time=30),
    Message('note_on', channel=9, note=35, velocity=126, time=210),
    Message('note_on', channel=9, note=42, velocity=126, time=0),
    Message('note_on', channel=9, note=42, velocity=0, time=30),
    Message('note_on', channel=9, note=35, velocity=0, time=0),
    Message('note_on', channel=9, note=42, velocity=100, time=130),
    Message('note_on', channel=9, note=42, velocity=0, time=30),
    Message('note_on', channel=9, note=42, velocity=90, time=50),
    Message('note_on', channel=9, note=35, velocity=100, time=0),
    Message('note_on', channel=9, note=35, velocity=0, time=30),
    Message('note_on', channel=9, note=42, velocity=0, time=0),
    Message('note_on', channel=9, note=42, velocity=126, time=210),
    Message('note_on', channel=9, note=38, velocity=127, time=0),
    Message('note_on', channel=9, note=38, velocity=0, time=30),
    Message('note_on', channel=9, note=42, velocity=0, time=0),
    Message('note_on', channel=9, note=42, velocity=100, time=130),
    Message('note_on', channel=9, note=42, velocity=0, time=30),
    Message('note_on', channel=9, note=46, velocity=94, time=50),
    Message('note_on', channel=9, note=46, velocity=0, time=30),
    Message('note_on', channel=9, note=35, velocity=127, time=210),
    Message('note_on', channel=9, note=42, velocity=127, time=0),
    Message('note_on', channel=9, note=42, velocity=0, time=30),
    Message('note_on', channel=9, note=35, velocity=0, time=0),
    Message('note_on', channel=9, note=42, velocity=100, time=130),
    Message('note_on', channel=9, note=42, velocity=0, time=30),
    Message('note_on', channel=9, note=35, velocity=123, time=50),
    Message('note_on', channel=9, note=42, velocity=94, time=0),
    Message('note_on', channel=9, note=42, velocity=0, time=30),
    Message('note_on', channel=9, note=35, velocity=0, time=0),
    Message('note_on', channel=9, note=38, velocity=125, time=210),
    Message('note_on', channel=9, note=42, velocity=125, time=0),
    Message('note_on', channel=9, note=42, velocity=0, time=30),
    Message('note_on', channel=9, note=38, velocity=0, time=0),
    Message('note_on', channel=9, note=42, velocity=100, time=130),
    Message('note_on', channel=9, note=42, velocity=0, time=30),
    Message('note_on', channel=9, note=42, velocity=92, time=50),
    Message('note_on', channel=9, note=42, velocity=0, time=30),
    Message('note_on', channel=9, note=42, velocity=126, time=210),
    Message('note_on', channel=9, note=35, velocity=126, time=0),
    Message('note_on', channel=9, note=35, velocity=0, time=30),
    Message('note_on', channel=9, note=42, velocity=0, time=0),
    Message('note_on', channel=9, note=38, velocity=127, time=130),
    Message('note_on', channel=9, note=42, velocity=100, time=0),
    Message('note_on', channel=9, note=42, velocity=0, time=30),
    Message('note_on', channel=9, note=38, velocity=0, time=0),
    Message('note_on', channel=9, note=42, velocity=90, time=50),
    Message('note_on', channel=9, note=35, velocity=100, time=0),
    Message('note_on', channel=9, note=35, velocity=0, time=30),
    Message('note_on', channel=9, note=42, velocity=0, time=0),
    Message('note_on', channel=9, note=38, velocity=127, time=210),
    Message('note_on', channel=9, note=42, velocity=126, time=0),
    Message('note_on', channel=9, note=42, velocity=0, time=30),
    Message('note_on', channel=9, note=38, velocity=0, time=0),
    Message('note_on', channel=9, note=35, velocity=94, time=130),
    Message('note_on', channel=9, note=42, velocity=100, time=0),
    Message('note_on', channel=9, note=49, velocity=94, time=0),
    Message('note_on', channel=9, note=49, velocity=0, time=30),
    Message('note_on', channel=9, note=42, velocity=0, time=0),
    Message('note_on', channel=9, note=35, velocity=0, time=0),
    Message('note_on', channel=9, note=42, velocity=92, time=50),
    Message('note_on', channel=9, note=42, velocity=0, time=30),
    Message('note_on', channel=9, note=42, velocity=92, time=50),
    Message('note_on', channel=9, note=42, velocity=0, time=30),
    Message('note_on', channel=9, note=42, velocity=93, time=50),
    Message('note_on', channel=9, note=42, velocity=0, time=30),
    Message('note_on', channel=9, note=35, velocity=124, time=50),
    Message('note_on', channel=9, note=57, velocity=104, time=0),
    Message('note_on', channel=9, note=57, velocity=0, time=30),
    Message('note_on', channel=9, note=35, velocity=0, time=0),
    Message('note_on', channel=9, note=42, velocity=100, time=130),
    Message('note_on', channel=9, note=42, velocity=0, time=30),
    Message('note_on', channel=9, note=42, velocity=94, time=50),
    Message('note_on', channel=9, note=35, velocity=123, time=0),
    Message('note_on', channel=9, note=35, velocity=0, time=30),
    Message('note_on', channel=9, note=42, velocity=0, time=0),
    Message('note_on', channel=9, note=49, velocity=96, time=210),
    Message('note_on', channel=9, note=38, velocity=125, time=0),
    Message('note_on', channel=9, note=38, velocity=0, time=30),
    Message('note_on', channel=9, note=49, velocity=0, time=0),
    Message('note_on', channel=9, note=42, velocity=100, time=130),
    Message('note_on', channel=9, note=42, velocity=0, time=30),
    Message('note_on', channel=9, note=42, velocity=92, time=50),
    Message('note_on', channel=9, note=42, velocity=0, time=30),
    Message('note_on', channel=9, note=35, velocity=126, time=210),
    Message('note_on', channel=9, note=42, velocity=126, time=0),
    Message('note_on', channel=9, note=42, velocity=0, time=30),
    Message('note_on', channel=9, note=35, velocity=0, time=0),
    Message('note_on', channel=9, note=42, velocity=100, time=130),
    Message('note_on', channel=9, note=42, velocity=0, time=30),
    Message('note_on', channel=9, note=42, velocity=90, time=50),
    Message('note_on', channel=9, note=35, velocity=100, time=0),
    Message('note_on', channel=9, note=35, velocity=0, time=30),
    Message('note_on', channel=9, note=42, velocity=0, time=0),
    Message('note_on', channel=9, note=49, velocity=96, time=210),
    Message('note_on', channel=9, note=42, velocity=126, time=0),
    Message('note_on', channel=9, note=38, velocity=127, time=0),
    Message('note_on', channel=9, note=38, velocity=0, time=30),
    Message('note_on', channel=9, note=42, velocity=0, time=0),
    Message('note_on', channel=9, note=49, velocity=0, time=0),
    Message('note_on', channel=9, note=42, velocity=100, time=130),
    Message('note_on', channel=9, note=42, velocity=0, time=30),
    Message('note_on', channel=9, note=42, velocity=94, time=50),
    Message('note_on', channel=9, note=42, velocity=0, time=30),
    Message('note_on', channel=9, note=35, velocity=127, time=210),
    Message('note_on', channel=9, note=42, velocity=127, time=0),
    Message('note_on', channel=9, note=42, velocity=0, time=30),
    Message('note_on', channel=9, note=35, velocity=0, time=0),
    Message('note_on', channel=9, note=42, velocity=100, time=130),
    Message('note_on', channel=9, note=42, velocity=0, time=30),
    Message('note_on', channel=9, note=35, velocity=123, time=50),
    Message('note_on', channel=9, note=42, velocity=94, time=0),
    Message('note_on', channel=9, note=42, velocity=0, time=30),
    Message('note_on', channel=9, note=35, velocity=0, time=0),
    Message('note_on', channel=9, note=49, velocity=96, time=210),
    Message('note_on', channel=9, note=38, velocity=125, time=0),
    Message('note_on', channel=9, note=42, velocity=125, time=0),
    Message('note_on', channel=9, note=42, velocity=0, time=30),
    Message('note_on', channel=9, note=38, velocity=0, time=0),
    Message('note_on', channel=9, note=49, velocity=0, time=0),
    Message('note_on', channel=9, note=42, velocity=100, time=130),
    Message('note_on', channel=9, note=42, velocity=0, time=30),
    Message('note_on', channel=9, note=42, velocity=92, time=50),
    Message('note_on', channel=9, note=42, velocity=0, time=30),
    Message('note_on', channel=9, note=42, velocity=126, time=210),
    Message('note_on', channel=9, note=35, velocity=126, time=0),
    Message('note_on', channel=9, note=35, velocity=0, time=30),
    Message('note_on', channel=9, note=42, velocity=0, time=0),
    Message('note_on', channel=9, note=38, velocity=127, time=130),
    Message('note_on', channel=9, note=42, velocity=100, time=0),
    Message('note_on', channel=9, note=42, velocity=0, time=30),
    Message('note_on', channel=9, note=38, velocity=0, time=0),
    Message('note_on', channel=9, note=42, velocity=90, time=50),
    Message('note_on', channel=9, note=35, velocity=100, time=0),
    Message('note_on', channel=9, note=35, velocity=0, time=30),
    Message('note_on', channel=9, note=42, velocity=0, time=0),
    Message('note_on', channel=9, note=49, velocity=96, time=210),
    Message('note_on', channel=9, note=38, velocity=127, time=0),
    Message('note_on', channel=9, note=42, velocity=126, time=0),
    Message('note_on', channel=9, note=42, velocity=0, time=30),
    Message('note_on', channel=9, note=38, velocity=0, time=0),
    Message('note_on', channel=9, note=49, velocity=0, time=0),
    Message('note_on', channel=9, note=42, velocity=100, time=130),
    Message('note_on', channel=9, note=42, velocity=0, time=30),
    Message('note_on', channel=9, note=38, velocity=92, time=50),
    Message('note_on', channel=9, note=38, velocity=0, time=30),
    Message('note_on', channel=9, note=38, velocity=92, time=50),
    Message('note_on', channel=9, note=38, velocity=0, time=30),
    Message('note_on', channel=9, note=38, velocity=93, time=50),
    Message('note_on', channel=9, note=38, velocity=0, time=30),
    Message('note_on', channel=9, note=57, velocity=93, time=50),
    Message('note_on', channel=9, note=35, velocity=124, time=0),
    Message('note_on', channel=9, note=42, velocity=124, time=0),
    Message('note_on', channel=9, note=42, velocity=0, time=30),
    Message('note_on', channel=9, note=35, velocity=0, time=0),
    Message('note_on', channel=9, note=57, velocity=0, time=0),
    Message('note_on', channel=9, note=42, velocity=100, time=130),
    Message('note_on', channel=9, note=42, velocity=0, time=30),
    Message('note_on', channel=9, note=42, velocity=94, time=50),
    Message('note_on', channel=9, note=35, velocity=123, time=0),
    Message('note_on', channel=9, note=35, velocity=0, time=30),
    Message('note_on', channel=9, note=42, velocity=0, time=0),
    Message('note_on', channel=9, note=49, velocity=93, time=210),
    Message('note_on', channel=9, note=42, velocity=125, time=0),
    Message('note_on', channel=9, note=38, velocity=125, time=0),
    Message('note_on', channel=9, note=38, velocity=0, time=30),
    Message('note_on', channel=9, note=42, velocity=0, time=0),
    Message('note_on', channel=9, note=49, velocity=0, time=0),
    Message('note_on', channel=9, note=42, velocity=100, time=130),
    Message('note_on', channel=9, note=42, velocity=0, time=30),
    Message('note_on', channel=9, note=42, velocity=92, time=50),
    Message('note_on', channel=9, note=42, velocity=0, time=30),
    Message('note_on', channel=9, note=35, velocity=126, time=210),
    Message('note_on', channel=9, note=42, velocity=126, time=0),
    Message('note_on', channel=9, note=42, velocity=0, time=30),
    Message('note_on', channel=9, note=35, velocity=0, time=0),
    Message('note_on', channel=9, note=42, velocity=100, time=130),
    Message('note_on', channel=9, note=42, velocity=0, time=30),
    Message('note_on', channel=9, note=42, velocity=90, time=50),
    Message('note_on', channel=9, note=35, velocity=100, time=0),
    Message('note_on', channel=9, note=35, velocity=0, time=30),
    Message('note_on', channel=9, note=42, velocity=0, time=0),
    Message('note_on', channel=9, note=49, velocity=93, time=210),
    Message('note_on', channel=9, note=42, velocity=126, time=0),
    Message('note_on', channel=9, note=38, velocity=127, time=0),
    Message('note_on', channel=9, note=38, velocity=0, time=30),
    Message('note_on', channel=9, note=42, velocity=0, time=0),
    Message('note_on', channel=9, note=49, velocity=0, time=0),
    Message('note_on', channel=9, note=42, velocity=100, time=130),
    Message('note_on', channel=9, note=42, velocity=0, time=30),
    Message('note_on', channel=9, note=42, velocity=94, time=50),
    Message('note_on', channel=9, note=42, velocity=0, time=30),
    Message('note_on', channel=9, note=35, velocity=127, time=210),
    Message('note_on', channel=9, note=42, velocity=127, time=0),
    Message('note_on', channel=9, note=42, velocity=0, time=30),
    Message('note_on', channel=9, note=35, velocity=0, time=0),
    Message('note_on', channel=9, note=42, velocity=100, time=130),
    Message('note_on', channel=9, note=42, velocity=0, time=30),
    Message('note_on', channel=9, note=35, velocity=123, time=50),
    Message('note_on', channel=9, note=42, velocity=94, time=0),
    Message('note_on', channel=9, note=42, velocity=0, time=30),
    Message('note_on', channel=9, note=35, velocity=0, time=0),
    Message('note_on', channel=9, note=49, velocity=93, time=210),
    Message('note_on', channel=9, note=38, velocity=125, time=0),
    Message('note_on', channel=9, note=42, velocity=125, time=0),
    Message('note_on', channel=9, note=42, velocity=0, time=30),
    Message('note_on', channel=9, note=38, velocity=0, time=0),
    Message('note_on', channel=9, note=49, velocity=0, time=0),
    Message('note_on', channel=9, note=42, velocity=100, time=130),
    Message('note_on', channel=9, note=42, velocity=0, time=30),
    Message('note_on', channel=9, note=42, velocity=92, time=50),
    Message('note_on', channel=9, note=42, velocity=0, time=30),
    Message('note_on', channel=9, note=42, velocity=126, time=210),
    Message('note_on', channel=9, note=35, velocity=126, time=0),
    Message('note_on', channel=9, note=35, velocity=0, time=30),
    Message('note_on', channel=9, note=42, velocity=0, time=0),
    Message('note_on', channel=9, note=38, velocity=127, time=130),
    Message('note_on', channel=9, note=42, velocity=100, time=0),
    Message('note_on', channel=9, note=42, velocity=0, time=30),
    Message('note_on', channel=9, note=38, velocity=0, time=0),
    Message('note_on', channel=9, note=42, velocity=90, time=50),
    Message('note_on', channel=9, note=35, velocity=100, time=0),
    Message('note_on', channel=9, note=35, velocity=0, time=30),
    Message('note_on', channel=9, note=42, velocity=0, time=0),
    Message('note_on', channel=9, note=38, velocity=127, time=210),
    Message('note_on', channel=9, note=42, velocity=126, time=0),
    Message('note_on', channel=9, note=42, velocity=0, time=30),
    Message('note_on', channel=9, note=38, velocity=0, time=0),
    Message('note_on', channel=9, note=42, velocity=100, time=130),
    Message('note_on', channel=9, note=42, velocity=0, time=30),
    Message('note_on', channel=9, note=38, velocity=92, time=50),
    Message('note_on', channel=9, note=38, velocity=0, time=30),
    Message('note_on', channel=9, note=38, velocity=93, time=130),
    Message('note_on', channel=9, note=38, velocity=0, time=30),
    Message('note_on', channel=9, note=57, velocity=93, time=50),
    Message('note_on', channel=9, note=35, velocity=124, time=0),
    Message('note_on', channel=9, note=42, velocity=124, time=0),
    Message('note_on', channel=9, note=42, velocity=0, time=30),
    Message('note_on', channel=9, note=35, velocity=0, time=0),
    Message('note_on', channel=9, note=57, velocity=0, time=0),
    Message('note_on', channel=9, note=42, velocity=100, time=130),
    Message('note_on', channel=9, note=42, velocity=0, time=30),
    Message('note_on', channel=9, note=42, velocity=94, time=50),
    Message('note_on', channel=9, note=35, velocity=123, time=0),
    Message('note_on', channel=9, note=35, velocity=0, time=30),
    Message('note_on', channel=9, note=42, velocity=0, time=0),
    Message('note_on', channel=9, note=49, velocity=93, time=210),
    Message('note_on', channel=9, note=42, velocity=125, time=0),
    Message('note_on', channel=9, note=38, velocity=125, time=0),
    Message('note_on', channel=9, note=38, velocity=0, time=30),
    Message('note_on', channel=9, note=42, velocity=0, time=0),
    Message('note_on', channel=9, note=49, velocity=0, time=0),
    Message('note_on', channel=9, note=42, velocity=100, time=130),
    Message('note_on', channel=9, note=42, velocity=0, time=30),
    Message('note_on', channel=9, note=42, velocity=92, time=50),
    Message('note_on', channel=9, note=42, velocity=0, time=30),
    Message('note_on', channel=9, note=35, velocity=126, time=210),
    Message('note_on', channel=9, note=42, velocity=126, time=0),
    Message('note_on', channel=9, note=42, velocity=0, time=30),
    Message('note_on', channel=9, note=35, velocity=0, time=0),
    Message('note_on', channel=9, note=42, velocity=100, time=130),
    Message('note_on', channel=9, note=42, velocity=0, time=30),
    Message('note_on', channel=9, note=42, velocity=90, time=50),
    Message('note_on', channel=9, note=35, velocity=100, time=0),
    Message('note_on', channel=9, note=35, velocity=0, time=30),
    Message('note_on', channel=9, note=42, velocity=0, time=0),
    Message('note_on', channel=9, note=49, velocity=93, time=210),
    Message('note_on', channel=9, note=42, velocity=126, time=0),
    Message('note_on', channel=9, note=38, velocity=127, time=0),
    Message('note_on', channel=9, note=38, velocity=0, time=30),
    Message('note_on', channel=9, note=42, velocity=0, time=0),
    Message('note_on', channel=9, note=49, velocity=0, time=0),
    Message('note_on', channel=9, note=42, velocity=100, time=130),
    Message('note_on', channel=9, note=42, velocity=0, time=30),
    Message('note_on', channel=9, note=42, velocity=94, time=50),
    Message('note_on', channel=9, note=42, velocity=0, time=30),
    Message('note_on', channel=9, note=57, velocity=93, time=210),
    Message('note_on', channel=9, note=35, velocity=127, time=0),
    Message('note_on', channel=9, note=42, velocity=127, time=0),
    Message('note_on', channel=9, note=42, velocity=0, time=30),
    Message('note_on', channel=9, note=35, velocity=0, time=0),
    Message('note_on', channel=9, note=57, velocity=0, time=0),
    Message('note_on', channel=9, note=42, velocity=100, time=130),
    Message('note_on', channel=9, note=42, velocity=0, time=30),
    Message('note_on', channel=9, note=35, velocity=123, time=50),
    Message('note_on', channel=9, note=42, velocity=94, time=0),
    Message('note_on', channel=9, note=42, velocity=0, time=30),
    Message('note_on', channel=9, note=35, velocity=0, time=0),
    Message('note_on', channel=9, note=49, velocity=93, time=210),
    Message('note_on', channel=9, note=38, velocity=125, time=0),
    Message('note_on', channel=9, note=42, velocity=125, time=0),
    Message('note_on', channel=9, note=42, velocity=0, time=30),
    Message('note_on', channel=9, note=38, velocity=0, time=0),
    Message('note_on', channel=9, note=49, velocity=0, time=0),
    Message('note_on', channel=9, note=42, velocity=100, time=130),
    Message('note_on', channel=9, note=42, velocity=0, time=30),
    Message('note_on', channel=9, note=42, velocity=92, time=50),
    Message('note_on', channel=9, note=42, velocity=0, time=30),
    Message('note_on', channel=9, note=57, velocity=93, time=210),
    Message('note_on', channel=9, note=42, velocity=126, time=0),
    Message('note_on', channel=9, note=35, velocity=126, time=0),
    Message('note_on', channel=9, note=35, velocity=0, time=30),
    Message('note_on', channel=9, note=42, velocity=0, time=0),
    Message('note_on', channel=9, note=57, velocity=0, time=0),
    Message('note_on', channel=9, note=38, velocity=127, time=130),
    Message('note_on', channel=9, note=42, velocity=100, time=0),
    Message('note_on', channel=9, note=42, velocity=0, time=30),
    Message('note_on', channel=9, note=38, velocity=0, time=0),
    Message('note_on', channel=9, note=42, velocity=90, time=50),
    Message('note_on', channel=9, note=35, velocity=100, time=0),
    Message('note_on', channel=9, note=35, velocity=0, time=30),
    Message('note_on', channel=9, note=42, velocity=0, time=0),
    Message('note_on', channel=9, note=49, velocity=93, time=210),
    Message('note_on', channel=9, note=38, velocity=127, time=0),
    Message('note_on', channel=9, note=42, velocity=126, time=0),
    Message('note_on', channel=9, note=42, velocity=0, time=30),
    Message('note_on', channel=9, note=38, velocity=0, time=0),
    Message('note_on', channel=9, note=49, velocity=0, time=0),
    Message('note_on', channel=9, note=42, velocity=100, time=130),
    Message('note_on', channel=9, note=42, velocity=0, time=30),
    Message('note_on', channel=9, note=42, velocity=92, time=50),
    Message('note_on', channel=9, note=42, velocity=0, time=30),
    Message('note_on', channel=9, note=42, velocity=92, time=50),
    Message('note_on', channel=9, note=42, velocity=0, time=30),
    Message('note_on', channel=9, note=42, velocity=93, time=50),
    Message('note_on', channel=9, note=42, velocity=0, time=30),
    Message('note_on', channel=9, note=57, velocity=93, time=50),
    Message('note_on', channel=9, note=35, velocity=124, time=0),
    Message('note_on', channel=9, note=42, velocity=124, time=0),
    Message('note_on', channel=9, note=42, velocity=0, time=30),
    Message('note_on', channel=9, note=35, velocity=0, time=0),
    Message('note_on', channel=9, note=57, velocity=0, time=0),
    Message('note_on', channel=9, note=42, velocity=100, time=130),
    Message('note_on', channel=9, note=42, velocity=0, time=30),
    Message('note_on', channel=9, note=42, velocity=94, time=50),
    Message('note_on', channel=9, note=35, velocity=123, time=0),
    Message('note_on', channel=9, note=35, velocity=0, time=30),
    Message('note_on', channel=9, note=42, velocity=0, time=0),
    Message('note_on', channel=9, note=49, velocity=93, time=210),
    Message('note_on', channel=9, note=42, velocity=125, time=0),
    Message('note_on', channel=9, note=38, velocity=125, time=0),
    Message('note_on', channel=9, note=38, velocity=0, time=30),
    Message('note_on', channel=9, note=42, velocity=0, time=0),
    Message('note_on', channel=9, note=49, velocity=0, time=0),
    Message('note_on', channel=9, note=42, velocity=100, time=130),
    Message('note_on', channel=9, note=42, velocity=0, time=30),
    Message('note_on', channel=9, note=42, velocity=92, time=50),
    Message('note_on', channel=9, note=42, velocity=0, time=30),
    Message('note_on', channel=9, note=35, velocity=126, time=210),
    Message('note_on', channel=9, note=42, velocity=126, time=0),
    Message('note_on', channel=9, note=42, velocity=0, time=30),
    Message('note_on', channel=9, note=35, velocity=0, time=0),
    Message('note_on', channel=9, note=42, velocity=100, time=130),
    Message('note_on', channel=9, note=42, velocity=0, time=30),
    Message('note_on', channel=9, note=42, velocity=90, time=50),
    Message('note_on', channel=9, note=35, velocity=100, time=0),
    Message('note_on', channel=9, note=35, velocity=0, time=30),
    Message('note_on', channel=9, note=42, velocity=0, time=0),
    Message('note_on', channel=9, note=49, velocity=93, time=210),
    Message('note_on', channel=9, note=42, velocity=126, time=0),
    Message('note_on', channel=9, note=38, velocity=127, time=0),
    Message('note_on', channel=9, note=38, velocity=0, time=30),
    Message('note_on', channel=9, note=42, velocity=0, time=0),
    Message('note_on', channel=9, note=49, velocity=0, time=0),
    Message('note_on', channel=9, note=42, velocity=100, time=130),
    Message('note_on', channel=9, note=42, velocity=0, time=30),
    Message('note_on', channel=9, note=42, velocity=94, time=50),
    Message('note_on', channel=9, note=42, velocity=0, time=30),
    Message('note_on', channel=9, note=35, velocity=127, time=210),
    Message('note_on', channel=9, note=42, velocity=127, time=0),
    Message('note_on', channel=9, note=42, velocity=0, time=30),
    Message('note_on', channel=9, note=35, velocity=0, time=0),
    Message('note_on', channel=9, note=42, velocity=100, time=130),
    Message('note_on', channel=9, note=42, velocity=0, time=30),
    Message('note_on', channel=9, note=35, velocity=123, time=50),
    Message('note_on', channel=9, note=42, velocity=94, time=0),
    Message('note_on', channel=9, note=42, velocity=0, time=30),
    Message('note_on', channel=9, note=35, velocity=0, time=0),
    Message('note_on', channel=9, note=49, velocity=93, time=210),
    Message('note_on', channel=9, note=38, velocity=125, time=0),
    Message('note_on', channel=9, note=42, velocity=125, time=0),
    Message('note_on', channel=9, note=42, velocity=0, time=30),
    Message('note_on', channel=9, note=38, velocity=0, time=0),
    Message('note_on', channel=9, note=49, velocity=0, time=0),
    Message('note_on', channel=9, note=42, velocity=100, time=130),
    Message('note_on', channel=9, note=42, velocity=0, time=30),
    Message('note_on', channel=9, note=42, velocity=92, time=50),
    Message('note_on', channel=9, note=42, velocity=0, time=30),
    Message('note_on', channel=9, note=42, velocity=126, time=210),
    Message('note_on', channel=9, note=35, velocity=126, time=0),
    Message('note_on', channel=9, note=35, velocity=0, time=30),
    Message('note_on', channel=9, note=42, velocity=0, time=0),
    Message('note_on', channel=9, note=42, velocity=100, time=130),
    Message('note_on', channel=9, note=42, velocity=0, time=30),
    Message('note_on', channel=9, note=42, velocity=90, time=50),
    Message('note_on', channel=9, note=35, velocity=100, time=0),
    Message('note_on', channel=9, note=35, velocity=0, time=30),
    Message('note_on', channel=9, note=42, velocity=0, time=0),
    Message('note_on', channel=9, note=49, velocity=93, time=210),
    Message('note_on', channel=9, note=38, velocity=127, time=0),
    Message('note_on', channel=9, note=42, velocity=126, time=0),
    Message('note_on', channel=9, note=42, velocity=0, time=30),
    Message('note_on', channel=9, note=38, velocity=0, time=0),
    Message('note_on', channel=9, note=49, velocity=0, time=0),
    Message('note_on', channel=9, note=42, velocity=100, time=130),
    Message('note_on', channel=9, note=42, velocity=0, time=30),
    Message('note_on', channel=9, note=38, velocity=127, time=50),
    Message('note_on', channel=9, note=38, velocity=0, time=30),
    Message('note_on', channel=9, note=38, velocity=119, time=130),
    Message('note_on', channel=9, note=38, velocity=0, time=30),
    Message('note_on', channel=9, note=57, velocity=93, time=50),
    Message('note_on', channel=9, note=42, velocity=127, time=0),
    Message('note_on', channel=9, note=35, velocity=127, time=0),
    Message('note_on', channel=9, note=35, velocity=0, time=30),
    Message('note_on', channel=9, note=42, velocity=0, time=0),
    Message('note_on', channel=9, note=57, velocity=0, time=0),
    Message('note_on', channel=9, note=42, velocity=100, time=130),
    Message('note_on', channel=9, note=42, velocity=0, time=30),
    Message('note_on', channel=9, note=42, velocity=94, time=50),
    Message('note_on', channel=9, note=35, velocity=123, time=0),
    Message('note_on', channel=9, note=35, velocity=0, time=30),
    Message('note_on', channel=9, note=42, velocity=0, time=0),
    Message('note_on', channel=9, note=49, velocity=93, time=210),
    Message('note_on', channel=9, note=42, velocity=125, time=0),
    Message('note_on', channel=9, note=38, velocity=125, time=0),
    Message('note_on', channel=9, note=38, velocity=0, time=30),
    Message('note_on', channel=9, note=42, velocity=0, time=0),
    Message('note_on', channel=9, note=49, velocity=0, time=0),
    Message('note_on', channel=9, note=42, velocity=100, time=130),
    Message('note_on', channel=9, note=42, velocity=0, time=30),
    Message('note_on', channel=9, note=42, velocity=92, time=50),
    Message('note_on', channel=9, note=42, velocity=0, time=30),
    Message('note_on', channel=9, note=57, velocity=93, time=210),
    Message('note_on', channel=9, note=35, velocity=126, time=0),
    Message('note_on', channel=9, note=42, velocity=126, time=0),
    Message('note_on', channel=9, note=42, velocity=0, time=30),
    Message('note_on', channel=9, note=35, velocity=0, time=0),
    Message('note_on', channel=9, note=57, velocity=0, time=0),
    Message('note_on', channel=9, note=42, velocity=100, time=130),
    Message('note_on', channel=9, note=42, velocity=0, time=30),
    Message('note_on', channel=9, note=42, velocity=90, time=50),
    Message('note_on', channel=9, note=35, velocity=100, time=0),
    Message('note_on', channel=9, note=35, velocity=0, time=30),
    Message('note_on', channel=9, note=42, velocity=0, time=0),
    Message('note_on', channel=9, note=49, velocity=93, time=210),
    Message('note_on', channel=9, note=42, velocity=126, time=0),
    Message('note_on', channel=9, note=38, velocity=127, time=0),
    Message('note_on', channel=9, note=38, velocity=0, time=30),
    Message('note_on', channel=9, note=42, velocity=0, time=0),
    Message('note_on', channel=9, note=49, velocity=0, time=0),
    Message('note_on', channel=9, note=42, velocity=100, time=130),
    Message('note_on', channel=9, note=42, velocity=0, time=30),
    Message('note_on', channel=9, note=45, velocity=114, time=50),
    Message('note_on', channel=9, note=42, velocity=94, time=0),
    Message('note_on', channel=9, note=42, velocity=0, time=30),
    Message('note_on', channel=9, note=45, velocity=0, time=0),
    Message('note_on', channel=9, note=43, velocity=120, time=50),
    Message('note_on', channel=9, note=43, velocity=0, time=30),
    Message('note_on', channel=9, note=41, velocity=116, time=50),
    Message('note_on', channel=9, note=41, velocity=0, time=30),
    Message('note_on', channel=9, note=35, velocity=127, time=50),
    Message('note_on', channel=9, note=42, velocity=103, time=0),
    Message('note_on', channel=9, note=42, velocity=0, time=30),
    Message('note_on', channel=9, note=35, velocity=0, time=0),
    Message('note_on', channel=9, note=42, velocity=80, time=130),
    Message('note_on', channel=9, note=42, velocity=0, time=30),
    Message('note_on', channel=9, note=35, velocity=123, time=50),
    Message('note_on', channel=9, note=42, velocity=94, time=0),
    Message('note_on', channel=9, note=42, velocity=0, time=30),
    Message('note_on', channel=9, note=35, velocity=0, time=0),
    Message('note_on', channel=9, note=42, velocity=83, time=130),
    Message('note_on', channel=9, note=42, velocity=0, time=30),
    Message('note_on', channel=9, note=49, velocity=90, time=50),
    Message('note_on', channel=9, note=38, velocity=125, time=0),
    Message('note_on', channel=9, note=42, velocity=125, time=0),
    Message('note_on', channel=9, note=42, velocity=0, time=30),
    Message('note_on', channel=9, note=38, velocity=0, time=0),
    Message('note_on', channel=9, note=49, velocity=0, time=0),
    Message('note_on', channel=9, note=42, velocity=79, time=130),
    Message('note_on', channel=9, note=42, velocity=0, time=30),
    Message('note_on', channel=9, note=42, velocity=98, time=50),
    Message('note_on', channel=9, note=42, velocity=0, time=30),
    Message('note_on', channel=9, note=42, velocity=83, time=130),
    Message('note_on', channel=9, note=42, velocity=0, time=30),
    Message('note_on', channel=9, note=35, velocity=126, time=50),
    Message('note_on', channel=9, note=42, velocity=126, time=0),
    Message('note_on', channel=9, note=42, velocity=0, time=30),
    Message('note_on', channel=9, note=35, velocity=0, time=0),
    Message('note_on', channel=9, note=42, velocity=83, time=130),
    Message('note_on', channel=9, note=42, velocity=0, time=30),
    Message('note_on', channel=9, note=42, velocity=90, time=50),
    Message('note_on', channel=9, note=35, velocity=100, time=0),
    Message('note_on', channel=9, note=35, velocity=0, time=30),
    Message('note_on', channel=9, note=42, velocity=0, time=0),
    Message('note_on', channel=9, note=42, velocity=80, time=130),
    Message('note_on', channel=9, note=42, velocity=0, time=30),
    Message('note_on', channel=9, note=49, velocity=90, time=50),
    Message('note_on', channel=9, note=38, velocity=127, time=0),
    Message('note_on', channel=9, note=42, velocity=126, time=0),
    Message('note_on', channel=9, note=42, velocity=0, time=30),
    Message('note_on', channel=9, note=38, velocity=0, time=0),
    Message('note_on', channel=9, note=49, velocity=0, time=0),
    Message('note_on', channel=9, note=42, velocity=83, time=130),
    Message('note_on', channel=9, note=42, velocity=0, time=30),
    Message('note_on', channel=9, note=42, velocity=105, time=50),
    Message('note_on', channel=9, note=42, velocity=0, time=30),
    Message('note_on', channel=9, note=42, velocity=83, time=130),
    Message('note_on', channel=9, note=42, velocity=0, time=30),
    Message('note_on', channel=9, note=35, velocity=127, time=50),
    Message('note_on', channel=9, note=42, velocity=127, time=0),
    Message('note_on', channel=9, note=42, velocity=0, time=30),
    Message('note_on', channel=9, note=35, velocity=0, time=0),
    Message('note_on', channel=9, note=42, velocity=100, time=130),
    Message('note_on', channel=9, note=42, velocity=0, time=30),
    Message('note_on', channel=9, note=35, velocity=123, time=50),
    Message('note_on', channel=9, note=42, velocity=94, time=0),
    Message('note_on', channel=9, note=42, velocity=0, time=30),
    Message('note_on', channel=9, note=35, velocity=0, time=0),
    Message('note_on', channel=9, note=42, velocity=83, time=130),
    Message('note_on', channel=9, note=42, velocity=0, time=30),
    Message('note_on', channel=9, note=49, velocity=90, time=50),
    Message('note_on', channel=9, note=38, velocity=125, time=0),
    Message('note_on', channel=9, note=42, velocity=125, time=0),
    Message('note_on', channel=9, note=42, velocity=0, time=30),
    Message('note_on', channel=9, note=38, velocity=0, time=0),
    Message('note_on', channel=9, note=49, velocity=0, time=0),
    Message('note_on', channel=9, note=42, velocity=100, time=130),
    Message('note_on', channel=9, note=42, velocity=0, time=30),
    Message('note_on', channel=9, note=42, velocity=92, time=50),
    Message('note_on', channel=9, note=38, velocity=101, time=0),
    Message('note_on', channel=9, note=38, velocity=0, time=30),
    Message('note_on', channel=9, note=42, velocity=0, time=0),
    Message('note_on', channel=9, note=42, velocity=77, time=130),
    Message('note_on', channel=9, note=42, velocity=0, time=30),
    Message('note_on', channel=9, note=42, velocity=126, time=50),
    Message('note_on', channel=9, note=35, velocity=126, time=0),
    Message('note_on', channel=9, note=49, velocity=77, time=0),
    Message('note_on', channel=9, note=49, velocity=0, time=30),
    Message('note_on', channel=9, note=35, velocity=0, time=0),
    Message('note_on', channel=9, note=42, velocity=0, time=0),
    Message('note_on', channel=9, note=42, velocity=100, time=130),
    Message('note_on', channel=9, note=42, velocity=0, time=30),
    Message('note_on', channel=9, note=42, velocity=90, time=50),
    Message('note_on', channel=9, note=35, velocity=100, time=0),
    Message('note_on', channel=9, note=35, velocity=0, time=30),
    Message('note_on', channel=9, note=42, velocity=0, time=0),
    Message('note_on', channel=9, note=42, velocity=83, time=130),
    Message('note_on', channel=9, note=42, velocity=0, time=30),
    Message('note_on', channel=9, note=49, velocity=90, time=50),
    Message('note_on', channel=9, note=38, velocity=126, time=0),
    Message('note_on', channel=9, note=42, velocity=126, time=0),
    Message('note_on', channel=9, note=42, velocity=0, time=30),
    Message('note_on', channel=9, note=38, velocity=0, time=0),
    Message('note_on', channel=9, note=49, velocity=0, time=0),
    Message('note_on', channel=9, note=42, velocity=100, time=130),
    Message('note_on', channel=9, note=42, velocity=0, time=30),
    Message('note_on', channel=9, note=38, velocity=126, time=50),
    Message('note_on', channel=9, note=46, velocity=92, time=0),
    Message('note_on', channel=9, note=46, velocity=0, time=30),
    Message('note_on', channel=9, note=38, velocity=0, time=0),
    Message('note_on', channel=9, note=38, velocity=126, time=130),
    Message('note_on', channel=9, note=46, velocity=127, time=0),
    Message('note_on', channel=9, note=46, velocity=0, time=30),
    Message('note_on', channel=9, note=38, velocity=0, time=0),
    Message('note_on', channel=9, note=42, velocity=44, time=50),
    Message('note_on', channel=9, note=42, velocity=0, time=30),
    Message('note_on', channel=9, note=42, velocity=94, time=210),
    Message('note_on', channel=9, note=35, velocity=123, time=0),
    Message('note_on', channel=9, note=35, velocity=0, time=30),
    Message('note_on', channel=9, note=42, velocity=0, time=0),
    Message('note_on', channel=9, note=42, velocity=125, time=210),
    Message('note_on', channel=9, note=38, velocity=125, time=0),
    Message('note_on', channel=9, note=38, velocity=0, time=30),
    Message('note_on', channel=9, note=42, velocity=0, time=0),
    Message('note_on', channel=9, note=42, velocity=100, time=130),
    Message('note_on', channel=9, note=42, velocity=0, time=30),
    Message('note_on', channel=9, note=42, velocity=92, time=50),
    Message('note_on', channel=9, note=42, velocity=0, time=30),
    Message('note_on', channel=9, note=35, velocity=126, time=210),
    Message('note_on', channel=9, note=42, velocity=126, time=0),
    Message('note_on', channel=9, note=42, velocity=0, time=30),
    Message('note_on', channel=9, note=35, velocity=0, time=0),
    Message('note_on', channel=9, note=42, velocity=100, time=130),
    Message('note_on', channel=9, note=42, velocity=0, time=30),
    Message('note_on', channel=9, note=46, velocity=90, time=50),
    Message('note_on', channel=9, note=35, velocity=100, time=0),
    Message('note_on', channel=9, note=35, velocity=0, time=30),
    Message('note_on', channel=9, note=46, velocity=0, time=0),
    Message('note_on', channel=9, note=42, velocity=126, time=210),
    Message('note_on', channel=9, note=38, velocity=127, time=0),
    Message('note_on', channel=9, note=38, velocity=0, time=30),
    Message('note_on', channel=9, note=42, velocity=0, time=0),
    Message('note_on', channel=9, note=42, velocity=100, time=130),
    Message('note_on', channel=9, note=42, velocity=0, time=30),
    Message('note_on', channel=9, note=42, velocity=94, time=50),
    Message('note_on', channel=9, note=42, velocity=0, time=30),
    Message('note_on', channel=9, note=35, velocity=127, time=210),
    Message('note_on', channel=9, note=42, velocity=127, time=0),
    Message('note_on', channel=9, note=42, velocity=0, time=30),
    Message('note_on', channel=9, note=35, velocity=0, time=0),
    Message('note_on', channel=9, note=42, velocity=100, time=130),
    Message('note_on', channel=9, note=42, velocity=0, time=30),
    Message('note_on', channel=9, note=35, velocity=123, time=50),
    Message('note_on', channel=9, note=42, velocity=94, time=0),
    Message('note_on', channel=9, note=42, velocity=0, time=30),
    Message('note_on', channel=9, note=35, velocity=0, time=0),
    Message('note_on', channel=9, note=38, velocity=125, time=210),
    Message('note_on', channel=9, note=42, velocity=125, time=0),
    Message('note_on', channel=9, note=42, velocity=0, time=30),
    Message('note_on', channel=9, note=38, velocity=0, time=0),
    Message('note_on', channel=9, note=42, velocity=100, time=130),
    Message('note_on', channel=9, note=42, velocity=0, time=30),
    Message('note_on', channel=9, note=42, velocity=92, time=50),
    Message('note_on', channel=9, note=42, velocity=0, time=30),
    Message('note_on', channel=9, note=42, velocity=126, time=210),
    Message('note_on', channel=9, note=35, velocity=126, time=0),
    Message('note_on', channel=9, note=35, velocity=0, time=30),
    Message('note_on', channel=9, note=42, velocity=0, time=0),
    Message('note_on', channel=9, note=38, velocity=127, time=130),
    Message('note_on', channel=9, note=42, velocity=100, time=0),
    Message('note_on', channel=9, note=42, velocity=0, time=30),
    Message('note_on', channel=9, note=38, velocity=0, time=0),
    Message('note_on', channel=9, note=42, velocity=90, time=50),
    Message('note_on', channel=9, note=35, velocity=100, time=0),
    Message('note_on', channel=9, note=35, velocity=0, time=30),
    Message('note_on', channel=9, note=42, velocity=0, time=0),
    Message('note_on', channel=9, note=38, velocity=127, time=210),
    Message('note_on', channel=9, note=42, velocity=126, time=0),
    Message('note_on', channel=9, note=42, velocity=0, time=30),
    Message('note_on', channel=9, note=38, velocity=0, time=0),
    Message('note_on', channel=9, note=42, velocity=100, time=130),
    Message('note_on', channel=9, note=42, velocity=0, time=30),
    Message('note_on', channel=9, note=42, velocity=92, time=50),
    Message('note_on', channel=9, note=42, velocity=0, time=30),
    Message('note_on', channel=9, note=42, velocity=92, time=50),
    Message('note_on', channel=9, note=42, velocity=0, time=30),
    Message('note_on', channel=9, note=42, velocity=93, time=50),
    Message('note_on', channel=9, note=42, velocity=0, time=30),
    Message('note_on', channel=9, note=35, velocity=124, time=50),
    Message('note_on', channel=9, note=42, velocity=124, time=0),
    Message('note_on', channel=9, note=42, velocity=0, time=30),
    Message('note_on', channel=9, note=35, velocity=0, time=0),
    Message('note_on', channel=9, note=42, velocity=100, time=130),
    Message('note_on', channel=9, note=42, velocity=0, time=30),
    Message('note_on', channel=9, note=42, velocity=94, time=50),
    Message('note_on', channel=9, note=35, velocity=123, time=0),
    Message('note_on', channel=9, note=35, velocity=0, time=30),
    Message('note_on', channel=9, note=42, velocity=0, time=0),
    Message('note_on', channel=9, note=42, velocity=125, time=210),
    Message('note_on', channel=9, note=38, velocity=125, time=0),
    Message('note_on', channel=9, note=38, velocity=0, time=30),
    Message('note_on', channel=9, note=42, velocity=0, time=0),
    Message('note_on', channel=9, note=42, velocity=100, time=130),
    Message('note_on', channel=9, note=42, velocity=0, time=30),
    Message('note_on', channel=9, note=42, velocity=92, time=50),
    Message('note_on', channel=9, note=42, velocity=0, time=30),
    Message('note_on', channel=9, note=35, velocity=126, time=210),
    Message('note_on', channel=9, note=42, velocity=126, time=0),
    Message('note_on', channel=9, note=42, velocity=0, time=30),
    Message('note_on', channel=9, note=35, velocity=0, time=0),
    Message('note_on', channel=9, note=42, velocity=100, time=130),
    Message('note_on', channel=9, note=42, velocity=0, time=30),
    Message('note_on', channel=9, note=42, velocity=90, time=50),
    Message('note_on', channel=9, note=35, velocity=100, time=0),
    Message('note_on', channel=9, note=35, velocity=0, time=30),
    Message('note_on', channel=9, note=42, velocity=0, time=0),
    Message('note_on', channel=9, note=42, velocity=126, time=210),
    Message('note_on', channel=9, note=38, velocity=127, time=0),
    Message('note_on', channel=9, note=38, velocity=0, time=30),
    Message('note_on', channel=9, note=42, velocity=0, time=0),
    Message('note_on', channel=9, note=42, velocity=100, time=130),
    Message('note_on', channel=9, note=42, velocity=0, time=30),
    Message('note_on', channel=9, note=46, velocity=94, time=50),
    Message('note_on', channel=9, note=46, velocity=0, time=30),
    Message('note_on', channel=9, note=35, velocity=127, time=210),
    Message('note_on', channel=9, note=42, velocity=127, time=0),
    Message('note_on', channel=9, note=42, velocity=0, time=30),
    Message('note_on', channel=9, note=35, velocity=0, time=0),
    Message('note_on', channel=9, note=42, velocity=100, time=130),
    Message('note_on', channel=9, note=42, velocity=0, time=30),
    Message('note_on', channel=9, note=35, velocity=123, time=50),
    Message('note_on', channel=9, note=42, velocity=94, time=0),
    Message('note_on', channel=9, note=42, velocity=0, time=30),
    Message('note_on', channel=9, note=35, velocity=0, time=0),
    Message('note_on', channel=9, note=38, velocity=125, time=210),
    Message('note_on', channel=9, note=42, velocity=125, time=0),
    Message('note_on', channel=9, note=42, velocity=0, time=30),
    Message('note_on', channel=9, note=38, velocity=0, time=0),
    Message('note_on', channel=9, note=42, velocity=100, time=130),
    Message('note_on', channel=9, note=42, velocity=0, time=30),
    Message('note_on', channel=9, note=42, velocity=92, time=50),
    Message('note_on', channel=9, note=42, velocity=0, time=30),
    Message('note_on', channel=9, note=42, velocity=126, time=210),
    Message('note_on', channel=9, note=35, velocity=126, time=0),
    Message('note_on', channel=9, note=35, velocity=0, time=30),
    Message('note_on', channel=9, note=42, velocity=0, time=0),
    Message('note_on', channel=9, note=38, velocity=127, time=130),
    Message('note_on', channel=9, note=42, velocity=100, time=0),
    Message('note_on', channel=9, note=42, velocity=0, time=30),
    Message('note_on', channel=9, note=38, velocity=0, time=0),
    Message('note_on', channel=9, note=46, velocity=90, time=50),
    Message('note_on', channel=9, note=35, velocity=100, time=0),
    Message('note_on', channel=9, note=35, velocity=0, time=30),
    Message('note_on', channel=9, note=46, velocity=0, time=0),
    Message('note_on', channel=9, note=38, velocity=127, time=210),
    Message('note_on', channel=9, note=42, velocity=126, time=0),
    Message('note_on', channel=9, note=42, velocity=0, time=30),
    Message('note_on', channel=9, note=38, velocity=0, time=0),
    Message('note_on', channel=9, note=42, velocity=100, time=130),
    Message('note_on', channel=9, note=42, velocity=0, time=30),
    Message('note_on', channel=9, note=46, velocity=92, time=50),
    Message('note_on', channel=9, note=46, velocity=0, time=30),
    Message('note_on', channel=9, note=35, velocity=124, time=210),
    Message('note_on', channel=9, note=42, velocity=124, time=0),
    Message('note_on', channel=9, note=42, velocity=0, time=30),
    Message('note_on', channel=9, note=35, velocity=0, time=0),
    Message('note_on', channel=9, note=42, velocity=100, time=130),
    Message('note_on', channel=9, note=42, velocity=0, time=30),
    Message('note_on', channel=9, note=42, velocity=94, time=50),
    Message('note_on', channel=9, note=35, velocity=123, time=0),
    Message('note_on', channel=9, note=35, velocity=0, time=30),
    Message('note_on', channel=9, note=42, velocity=0, time=0),
    Message('note_on', channel=9, note=42, velocity=125, time=210),
    Message('note_on', channel=9, note=38, velocity=125, time=0),
    Message('note_on', channel=9, note=38, velocity=0, time=30),
    Message('note_on', channel=9, note=42, velocity=0, time=0),
    Message('note_on', channel=9, note=42, velocity=100, time=130),
    Message('note_on', channel=9, note=42, velocity=0, time=30),
    Message('note_on', channel=9, note=42, velocity=92, time=50),
    Message('note_on', channel=9, note=42, velocity=0, time=30),
    Message('note_on', channel=9, note=35, velocity=126, time=210),
    Message('note_on', channel=9, note=42, velocity=126, time=0),
    Message('note_on', channel=9, note=42, velocity=0, time=30),
    Message('note_on', channel=9, note=35, velocity=0, time=0),
    Message('note_on', channel=9, note=42, velocity=100, time=130),
    Message('note_on', channel=9, note=42, velocity=0, time=30),
    Message('note_on', channel=9, note=46, velocity=90, time=50),
    Message('note_on', channel=9, note=35, velocity=100, time=0),
    Message('note_on', channel=9, note=35, velocity=0, time=30),
    Message('note_on', channel=9, note=46, velocity=0, time=0),
    Message('note_on', channel=9, note=42, velocity=126, time=210),
    Message('note_on', channel=9, note=38, velocity=127, time=0),
    Message('note_on', channel=9, note=38, velocity=0, time=30),
    Message('note_on', channel=9, note=42, velocity=0, time=0),
    Message('note_on', channel=9, note=42, velocity=100, time=130),
    Message('note_on', channel=9, note=42, velocity=0, time=30),
    Message('note_on', channel=9, note=42, velocity=94, time=50),
    Message('note_on', channel=9, note=42, velocity=0, time=30),
    Message('note_on', channel=9, note=35, velocity=127, time=210),
    Message('note_on', channel=9, note=42, velocity=127, time=0),
    Message('note_on', channel=9, note=42, velocity=0, time=30),
    Message('note_on', channel=9, note=35, velocity=0, time=0),
    Message('note_on', channel=9, note=42, velocity=100, time=130),
    Message('note_on', channel=9, note=42, velocity=0, time=30),
    Message('note_on', channel=9, note=35, velocity=123, time=50),
    Message('note_on', channel=9, note=42, velocity=94, time=0),
    Message('note_on', channel=9, note=42, velocity=0, time=30),
    Message('note_on', channel=9, note=35, velocity=0, time=0),
    Message('note_on', channel=9, note=38, velocity=125, time=210),
    Message('note_on', channel=9, note=42, velocity=125, time=0),
    Message('note_on', channel=9, note=42, velocity=0, time=30),
    Message('note_on', channel=9, note=38, velocity=0, time=0),
    Message('note_on', channel=9, note=42, velocity=100, time=130),
    Message('note_on', channel=9, note=42, velocity=0, time=30),
    Message('note_on', channel=9, note=42, velocity=92, time=50),
    Message('note_on', channel=9, note=42, velocity=0, time=30),
    Message('note_on', channel=9, note=42, velocity=126, time=210),
    Message('note_on', channel=9, note=35, velocity=126, time=0),
    Message('note_on', channel=9, note=35, velocity=0, time=30),
    Message('note_on', channel=9, note=42, velocity=0, time=0),
    Message('note_on', channel=9, note=38, velocity=127, time=130),
    Message('note_on', channel=9, note=42, velocity=100, time=0),
    Message('note_on', channel=9, note=42, velocity=0, time=30),
    Message('note_on', channel=9, note=38, velocity=0, time=0),
    Message('note_on', channel=9, note=46, velocity=90, time=50),
    Message('note_on', channel=9, note=35, velocity=100, time=0),
    Message('note_on', channel=9, note=35, velocity=0, time=30),
    Message('note_on', channel=9, note=46, velocity=0, time=0),
    Message('note_on', channel=9, note=38, velocity=127, time=210),
    Message('note_on', channel=9, note=42, velocity=126, time=0),
    Message('note_on', channel=9, note=42, velocity=0, time=30),
    Message('note_on', channel=9, note=38, velocity=0, time=0),
    Message('note_on', channel=9, note=42, velocity=100, time=130),
    Message('note_on', channel=9, note=42, velocity=0, time=30),
    Message('note_on', channel=9, note=46, velocity=92, time=50),
    Message('note_on', channel=9, note=46, velocity=0, time=30),
    Message('note_on', channel=9, note=35, velocity=124, time=210),
    Message('note_on', channel=9, note=42, velocity=124, time=0),
    Message('note_on', channel=9, note=42, velocity=0, time=30),
    Message('note_on', channel=9, note=35, velocity=0, time=0),
    Message('note_on', channel=9, note=42, velocity=100, time=130),
    Message('note_on', channel=9, note=42, velocity=0, time=30),
    Message('note_on', channel=9, note=42, velocity=94, time=50),
    Message('note_on', channel=9, note=35, velocity=123, time=0),
    Message('note_on', channel=9, note=35, velocity=0, time=30),
    Message('note_on', channel=9, note=42, velocity=0, time=0),
    Message('note_on', channel=9, note=42, velocity=125, time=210),
    Message('note_on', channel=9, note=38, velocity=125, time=0),
    Message('note_on', channel=9, note=38, velocity=0, time=30),
    Message('note_on', channel=9, note=42, velocity=0, time=0),
    Message('note_on', channel=9, note=42, velocity=100, time=130),
    Message('note_on', channel=9, note=42, velocity=0, time=30),
    Message('note_on', channel=9, note=42, velocity=92, time=50),
    Message('note_on', channel=9, note=42, velocity=0, time=30),
    Message('note_on', channel=9, note=35, velocity=126, time=210),
    Message('note_on', channel=9, note=42, velocity=126, time=0),
    Message('note_on', channel=9, note=42, velocity=0, time=30),
    Message('note_on', channel=9, note=35, velocity=0, time=0),
    Message('note_on', channel=9, note=42, velocity=100, time=130),
    Message('note_on', channel=9, note=42, velocity=0, time=30),
    Message('note_on', channel=9, note=42, velocity=90, time=50),
    Message('note_on', channel=9, note=35, velocity=100, time=0),
    Message('note_on', channel=9, note=35, velocity=0, time=30),
    Message('note_on', channel=9, note=42, velocity=0, time=0),
    Message('note_on', channel=9, note=42, velocity=126, time=210),
    Message('note_on', channel=9, note=38, velocity=127, time=0),
    Message('note_on', channel=9, note=38, velocity=0, time=30),
    Message('note_on', channel=9, note=42, velocity=0, time=0),
    Message('note_on', channel=9, note=42, velocity=100, time=130),
    Message('note_on', channel=9, note=42, velocity=0, time=30),
    Message('note_on', channel=9, note=46, velocity=94, time=50),
    Message('note_on', channel=9, note=46, velocity=0, time=30),
    Message('note_on', channel=9, note=35, velocity=127, time=210),
    Message('note_on', channel=9, note=42, velocity=127, time=0),
    Message('note_on', channel=9, note=42, velocity=0, time=30),
    Message('note_on', channel=9, note=35, velocity=0, time=0),
    Message('note_on', channel=9, note=42, velocity=100, time=130),
    Message('note_on', channel=9, note=42, velocity=0, time=30),
    Message('note_on', channel=9, note=35, velocity=123, time=50),
    Message('note_on', channel=9, note=42, velocity=94, time=0),
    Message('note_on', channel=9, note=42, velocity=0, time=30),
    Message('note_on', channel=9, note=35, velocity=0, time=0),
    Message('note_on', channel=9, note=38, velocity=125, time=210),
    Message('note_on', channel=9, note=42, velocity=125, time=0),
    Message('note_on', channel=9, note=42, velocity=0, time=30),
    Message('note_on', channel=9, note=38, velocity=0, time=0),
    Message('note_on', channel=9, note=42, velocity=100, time=130),
    Message('note_on', channel=9, note=42, velocity=0, time=30),
    Message('note_on', channel=9, note=42, velocity=92, time=50),
    Message('note_on', channel=9, note=42, velocity=0, time=30),
    Message('note_on', channel=9, note=42, velocity=126, time=210),
    Message('note_on', channel=9, note=35, velocity=126, time=0),
    Message('note_on', channel=9, note=35, velocity=0, time=30),
    Message('note_on', channel=9, note=42, velocity=0, time=0),
    Message('note_on', channel=9, note=38, velocity=127, time=130),
    Message('note_on', channel=9, note=42, velocity=100, time=0),
    Message('note_on', channel=9, note=42, velocity=0, time=30),
    Message('note_on', channel=9, note=38, velocity=0, time=0),
    Message('note_on', channel=9, note=42, velocity=90, time=50),
    Message('note_on', channel=9, note=35, velocity=100, time=0),
    Message('note_on', channel=9, note=35, velocity=0, time=30),
    Message('note_on', channel=9, note=42, velocity=0, time=0),
    Message('note_on', channel=9, note=38, velocity=127, time=210),
    Message('note_on', channel=9, note=42, velocity=126, time=0),
    Message('note_on', channel=9, note=42, velocity=0, time=30),
    Message('note_on', channel=9, note=38, velocity=0, time=0),
    Message('note_on', channel=9, note=35, velocity=94, time=130),
    Message('note_on', channel=9, note=42, velocity=100, time=0),
    Message('note_on', channel=9, note=49, velocity=94, time=0),
    Message('note_on', channel=9, note=49, velocity=0, time=30),
    Message('note_on', channel=9, note=42, velocity=0, time=0),
    Message('note_on', channel=9, note=35, velocity=0, time=0),
    Message('note_on', channel=9, note=42, velocity=92, time=50),
    Message('note_on', channel=9, note=42, velocity=0, time=30),
    Message('note_on', channel=9, note=42, velocity=92, time=50),
    Message('note_on', channel=9, note=42, velocity=0, time=30),
    Message('note_on', channel=9, note=42, velocity=93, time=50),
    Message('note_on', channel=9, note=42, velocity=0, time=30),
    Message('note_on', channel=9, note=35, velocity=124, time=50),
    Message('note_on', channel=9, note=57, velocity=104, time=0),
    Message('note_on', channel=9, note=57, velocity=0, time=30),
    Message('note_on', channel=9, note=35, velocity=0, time=0),
    Message('note_on', channel=9, note=42, velocity=100, time=130),
    Message('note_on', channel=9, note=42, velocity=0, time=30),
    Message('note_on', channel=9, note=42, velocity=94, time=50),
    Message('note_on', channel=9, note=35, velocity=123, time=0),
    Message('note_on', channel=9, note=35, velocity=0, time=30),
    Message('note_on', channel=9, note=42, velocity=0, time=0),
    Message('note_on', channel=9, note=49, velocity=96, time=210),
    Message('note_on', channel=9, note=38, velocity=125, time=0),
    Message('note_on', channel=9, note=38, velocity=0, time=30),
    Message('note_on', channel=9, note=49, velocity=0, time=0),
    Message('note_on', channel=9, note=42, velocity=100, time=130),
    Message('note_on', channel=9, note=42, velocity=0, time=30),
    Message('note_on', channel=9, note=42, velocity=92, time=50),
    Message('note_on', channel=9, note=42, velocity=0, time=30),
    Message('note_on', channel=9, note=35, velocity=126, time=210),
    Message('note_on', channel=9, note=42, velocity=126, time=0),
    Message('note_on', channel=9, note=42, velocity=0, time=30),
    Message('note_on', channel=9, note=35, velocity=0, time=0),
    Message('note_on', channel=9, note=42, velocity=100, time=130),
    Message('note_on', channel=9, note=42, velocity=0, time=30),
    Message('note_on', channel=9, note=42, velocity=90, time=50),
    Message('note_on', channel=9, note=35, velocity=100, time=0),
    Message('note_on', channel=9, note=35, velocity=0, time=30),
    Message('note_on', channel=9, note=42, velocity=0, time=0),
    Message('note_on', channel=9, note=49, velocity=96, time=210),
    Message('note_on', channel=9, note=42, velocity=126, time=0),
    Message('note_on', channel=9, note=38, velocity=127, time=0),
    Message('note_on', channel=9, note=38, velocity=0, time=30),
    Message('note_on', channel=9, note=42, velocity=0, time=0),
    Message('note_on', channel=9, note=49, velocity=0, time=0),
    Message('note_on', channel=9, note=42, velocity=100, time=130),
    Message('note_on', channel=9, note=42, velocity=0, time=30),
    Message('note_on', channel=9, note=42, velocity=94, time=50),
    Message('note_on', channel=9, note=42, velocity=0, time=30),
    Message('note_on', channel=9, note=35, velocity=127, time=210),
    Message('note_on', channel=9, note=42, velocity=127, time=0),
    Message('note_on', channel=9, note=42, velocity=0, time=30),
    Message('note_on', channel=9, note=35, velocity=0, time=0),
    Message('note_on', channel=9, note=42, velocity=100, time=130),
    Message('note_on', channel=9, note=42, velocity=0, time=30),
    Message('note_on', channel=9, note=35, velocity=123, time=50),
    Message('note_on', channel=9, note=42, velocity=94, time=0),
    Message('note_on', channel=9, note=42, velocity=0, time=30),
    Message('note_on', channel=9, note=35, velocity=0, time=0),
    Message('note_on', channel=9, note=49, velocity=96, time=210),
    Message('note_on', channel=9, note=38, velocity=125, time=0),
    Message('note_on', channel=9, note=42, velocity=125, time=0),
    Message('note_on', channel=9, note=42, velocity=0, time=30),
    Message('note_on', channel=9, note=38, velocity=0, time=0),
    Message('note_on', channel=9, note=49, velocity=0, time=0),
    Message('note_on', channel=9, note=42, velocity=100, time=130),
    Message('note_on', channel=9, note=42, velocity=0, time=30),
    Message('note_on', channel=9, note=42, velocity=92, time=50),
    Message('note_on', channel=9, note=42, velocity=0, time=30),
    Message('note_on', channel=9, note=42, velocity=126, time=210),
    Message('note_on', channel=9, note=35, velocity=126, time=0),
    Message('note_on', channel=9, note=35, velocity=0, time=30),
    Message('note_on', channel=9, note=42, velocity=0, time=0),
    Message('note_on', channel=9, note=38, velocity=127, time=130),
    Message('note_on', channel=9, note=42, velocity=100, time=0),
    Message('note_on', channel=9, note=42, velocity=0, time=30),
    Message('note_on', channel=9, note=38, velocity=0, time=0),
    Message('note_on', channel=9, note=42, velocity=90, time=50),
    Message('note_on', channel=9, note=35, velocity=100, time=0),
    Message('note_on', channel=9, note=35, velocity=0, time=30),
    Message('note_on', channel=9, note=42, velocity=0, time=0),
    Message('note_on', channel=9, note=49, velocity=96, time=210),
    Message('note_on', channel=9, note=38, velocity=127, time=0),
    Message('note_on', channel=9, note=42, velocity=126, time=0),
    Message('note_on', channel=9, note=42, velocity=0, time=30),
    Message('note_on', channel=9, note=38, velocity=0, time=0),
    Message('note_on', channel=9, note=49, velocity=0, time=0),
    Message('note_on', channel=9, note=42, velocity=100, time=130),
    Message('note_on', channel=9, note=42, velocity=0, time=30),
    Message('note_on', channel=9, note=38, velocity=92, time=50),
    Message('note_on', channel=9, note=38, velocity=0, time=30),
    Message('note_on', channel=9, note=38, velocity=92, time=50),
    Message('note_on', channel=9, note=38, velocity=0, time=30),
    Message('note_on', channel=9, note=38, velocity=93, time=50),
    Message('note_on', channel=9, note=38, velocity=0, time=30),
    Message('note_on', channel=9, note=57, velocity=93, time=50),
    Message('note_on', channel=9, note=35, velocity=124, time=0),
    Message('note_on', channel=9, note=42, velocity=124, time=0),
    Message('note_on', channel=9, note=42, velocity=0, time=30),
    Message('note_on', channel=9, note=35, velocity=0, time=0),
    Message('note_on', channel=9, note=57, velocity=0, time=0),
    Message('note_on', channel=9, note=42, velocity=100, time=130),
    Message('note_on', channel=9, note=42, velocity=0, time=30),
    Message('note_on', channel=9, note=42, velocity=94, time=50),
    Message('note_on', channel=9, note=35, velocity=123, time=0),
    Message('note_on', channel=9, note=35, velocity=0, time=30),
    Message('note_on', channel=9, note=42, velocity=0, time=0),
    Message('note_on', channel=9, note=49, velocity=93, time=210),
    Message('note_on', channel=9, note=42, velocity=125, time=0),
    Message('note_on', channel=9, note=38, velocity=125, time=0),
    Message('note_on', channel=9, note=38, velocity=0, time=30),
    Message('note_on', channel=9, note=42, velocity=0, time=0),
    Message('note_on', channel=9, note=49, velocity=0, time=0),
    Message('note_on', channel=9, note=42, velocity=100, time=130),
    Message('note_on', channel=9, note=42, velocity=0, time=30),
    Message('note_on', channel=9, note=42, velocity=92, time=50),
    Message('note_on', channel=9, note=42, velocity=0, time=30),
    Message('note_on', channel=9, note=35, velocity=126, time=210),
    Message('note_on', channel=9, note=42, velocity=126, time=0),
    Message('note_on', channel=9, note=42, velocity=0, time=30),
    Message('note_on', channel=9, note=35, velocity=0, time=0),
    Message('note_on', channel=9, note=42, velocity=100, time=130),
    Message('note_on', channel=9, note=42, velocity=0, time=30),
    Message('note_on', channel=9, note=42, velocity=90, time=50),
    Message('note_on', channel=9, note=35, velocity=100, time=0),
    Message('note_on', channel=9, note=35, velocity=0, time=30),
    Message('note_on', channel=9, note=42, velocity=0, time=0),
    Message('note_on', channel=9, note=49, velocity=93, time=210),
    Message('note_on', channel=9, note=42, velocity=126, time=0),
    Message('note_on', channel=9, note=38, velocity=127, time=0),
    Message('note_on', channel=9, note=38, velocity=0, time=30),
    Message('note_on', channel=9, note=42, velocity=0, time=0),
    Message('note_on', channel=9, note=49, velocity=0, time=0),
    Message('note_on', channel=9, note=42, velocity=100, time=130),
    Message('note_on', channel=9, note=42, velocity=0, time=30),
    Message('note_on', channel=9, note=42, velocity=94, time=50),
    Message('note_on', channel=9, note=42, velocity=0, time=30),
    Message('note_on', channel=9, note=35, velocity=127, time=210),
    Message('note_on', channel=9, note=42, velocity=127, time=0),
    Message('note_on', channel=9, note=42, velocity=0, time=30),
    Message('note_on', channel=9, note=35, velocity=0, time=0),
    Message('note_on', channel=9, note=42, velocity=100, time=130),
    Message('note_on', channel=9, note=42, velocity=0, time=30),
    Message('note_on', channel=9, note=35, velocity=123, time=50),
    Message('note_on', channel=9, note=42, velocity=94, time=0),
    Message('note_on', channel=9, note=42, velocity=0, time=30),
    Message('note_on', channel=9, note=35, velocity=0, time=0),
    Message('note_on', channel=9, note=49, velocity=93, time=210),
    Message('note_on', channel=9, note=38, velocity=125, time=0),
    Message('note_on', channel=9, note=42, velocity=125, time=0),
    Message('note_on', channel=9, note=42, velocity=0, time=30),
    Message('note_on', channel=9, note=38, velocity=0, time=0),
    Message('note_on', channel=9, note=49, velocity=0, time=0),
    Message('note_on', channel=9, note=42, velocity=100, time=130),
    Message('note_on', channel=9, note=42, velocity=0, time=30),
    Message('note_on', channel=9, note=42, velocity=92, time=50),
    Message('note_on', channel=9, note=42, velocity=0, time=30),
    Message('note_on', channel=9, note=42, velocity=126, time=210),
    Message('note_on', channel=9, note=35, velocity=126, time=0),
    Message('note_on', channel=9, note=35, velocity=0, time=30),
    Message('note_on', channel=9, note=42, velocity=0, time=0),
    Message('note_on', channel=9, note=38, velocity=127, time=130),
    Message('note_on', channel=9, note=42, velocity=100, time=0),
    Message('note_on', channel=9, note=42, velocity=0, time=30),
    Message('note_on', channel=9, note=38, velocity=0, time=0),
    Message('note_on', channel=9, note=42, velocity=90, time=50),
    Message('note_on', channel=9, note=35, velocity=100, time=0),
    Message('note_on', channel=9, note=35, velocity=0, time=30),
    Message('note_on', channel=9, note=42, velocity=0, time=0),
    Message('note_on', channel=9, note=38, velocity=127, time=210),
    Message('note_on', channel=9, note=42, velocity=126, time=0),
    Message('note_on', channel=9, note=42, velocity=0, time=30),
    Message('note_on', channel=9, note=38, velocity=0, time=0),
    Message('note_on', channel=9, note=42, velocity=100, time=130),
    Message('note_on', channel=9, note=42, velocity=0, time=30),
    Message('note_on', channel=9, note=38, velocity=92, time=50),
    Message('note_on', channel=9, note=38, velocity=0, time=30),
    Message('note_on', channel=9, note=38, velocity=93, time=130),
    Message('note_on', channel=9, note=38, velocity=0, time=30),
    Message('note_on', channel=9, note=57, velocity=93, time=50),
    Message('note_on', channel=9, note=35, velocity=124, time=0),
    Message('note_on', channel=9, note=42, velocity=124, time=0),
    Message('note_on', channel=9, note=42, velocity=0, time=30),
    Message('note_on', channel=9, note=35, velocity=0, time=0),
    Message('note_on', channel=9, note=57, velocity=0, time=0),
    Message('note_on', channel=9, note=42, velocity=100, time=130),
    Message('note_on', channel=9, note=42, velocity=0, time=30),
    Message('note_on', channel=9, note=42, velocity=94, time=50),
    Message('note_on', channel=9, note=35, velocity=123, time=0),
    Message('note_on', channel=9, note=35, velocity=0, time=30),
    Message('note_on', channel=9, note=42, velocity=0, time=0),
    Message('note_on', channel=9, note=49, velocity=93, time=210),
    Message('note_on', channel=9, note=42, velocity=125, time=0),
    Message('note_on', channel=9, note=38, velocity=125, time=0),
    Message('note_on', channel=9, note=38, velocity=0, time=30),
    Message('note_on', channel=9, note=42, velocity=0, time=0),
    Message('note_on', channel=9, note=49, velocity=0, time=0),
    Message('note_on', channel=9, note=42, velocity=100, time=130),
    Message('note_on', channel=9, note=42, velocity=0, time=30),
    Message('note_on', channel=9, note=42, velocity=92, time=50),
    Message('note_on', channel=9, note=42, velocity=0, time=30),
    Message('note_on', channel=9, note=35, velocity=126, time=210),
    Message('note_on', channel=9, note=42, velocity=126, time=0),
    Message('note_on', channel=9, note=42, velocity=0, time=30),
    Message('note_on', channel=9, note=35, velocity=0, time=0),
    Message('note_on', channel=9, note=42, velocity=100, time=130),
    Message('note_on', channel=9, note=42, velocity=0, time=30),
    Message('note_on', channel=9, note=42, velocity=90, time=50),
    Message('note_on', channel=9, note=35, velocity=100, time=0),
    Message('note_on', channel=9, note=35, velocity=0, time=30),
    Message('note_on', channel=9, note=42, velocity=0, time=0),
    Message('note_on', channel=9, note=49, velocity=93, time=210),
    Message('note_on', channel=9, note=42, velocity=126, time=0),
    Message('note_on', channel=9, note=38, velocity=127, time=0),
    Message('note_on', channel=9, note=38, velocity=0, time=30),
    Message('note_on', channel=9, note=42, velocity=0, time=0),
    Message('note_on', channel=9, note=49, velocity=0, time=0),
    Message('note_on', channel=9, note=42, velocity=100, time=130),
    Message('note_on', channel=9, note=42, velocity=0, time=30),
    Message('note_on', channel=9, note=42, velocity=94, time=50),
    Message('note_on', channel=9, note=42, velocity=0, time=30),
    Message('note_on', channel=9, note=57, velocity=93, time=210),
    Message('note_on', channel=9, note=35, velocity=127, time=0),
    Message('note_on', channel=9, note=42, velocity=127, time=0),
    Message('note_on', channel=9, note=42, velocity=0, time=30),
    Message('note_on', channel=9, note=35, velocity=0, time=0),
    Message('note_on', channel=9, note=57, velocity=0, time=0),
    Message('note_on', channel=9, note=42, velocity=100, time=130),
    Message('note_on', channel=9, note=42, velocity=0, time=30),
    Message('note_on', channel=9, note=35, velocity=123, time=50),
    Message('note_on', channel=9, note=42, velocity=94, time=0),
    Message('note_on', channel=9, note=42, velocity=0, time=30),
    Message('note_on', channel=9, note=35, velocity=0, time=0),
    Message('note_on', channel=9, note=49, velocity=93, time=210),
    Message('note_on', channel=9, note=38, velocity=125, time=0),
    Message('note_on', channel=9, note=42, velocity=125, time=0),
    Message('note_on', channel=9, note=42, velocity=0, time=30),
    Message('note_on', channel=9, note=38, velocity=0, time=0),
    Message('note_on', channel=9, note=49, velocity=0, time=0),
    Message('note_on', channel=9, note=42, velocity=100, time=130),
    Message('note_on', channel=9, note=42, velocity=0, time=30),
    Message('note_on', channel=9, note=42, velocity=92, time=50),
    Message('note_on', channel=9, note=42, velocity=0, time=30),
    Message('note_on', channel=9, note=57, velocity=93, time=210),
    Message('note_on', channel=9, note=42, velocity=126, time=0),
    Message('note_on', channel=9, note=35, velocity=126, time=0),
    Message('note_on', channel=9, note=35, velocity=0, time=30),
    Message('note_on', channel=9, note=42, velocity=0, time=0),
    Message('note_on', channel=9, note=57, velocity=0, time=0),
    Message('note_on', channel=9, note=38, velocity=127, time=130),
    Message('note_on', channel=9, note=42, velocity=100, time=0),
    Message('note_on', channel=9, note=42, velocity=0, time=30),
    Message('note_on', channel=9, note=38, velocity=0, time=0),
    Message('note_on', channel=9, note=42, velocity=90, time=50),
    Message('note_on', channel=9, note=35, velocity=100, time=0),
    Message('note_on', channel=9, note=35, velocity=0, time=30),
    Message('note_on', channel=9, note=42, velocity=0, time=0),
    Message('note_on', channel=9, note=49, velocity=93, time=210),
    Message('note_on', channel=9, note=38, velocity=127, time=0),
    Message('note_on', channel=9, note=42, velocity=126, time=0),
    Message('note_on', channel=9, note=42, velocity=0, time=30),
    Message('note_on', channel=9, note=38, velocity=0, time=0),
    Message('note_on', channel=9, note=49, velocity=0, time=0),
    Message('note_on', channel=9, note=42, velocity=100, time=130),
    Message('note_on', channel=9, note=42, velocity=0, time=30),
    Message('note_on', channel=9, note=42, velocity=92, time=50),
    Message('note_on', channel=9, note=42, velocity=0, time=30),
    Message('note_on', channel=9, note=42, velocity=92, time=50),
    Message('note_on', channel=9, note=42, velocity=0, time=30),
    Message('note_on', channel=9, note=42, velocity=93, time=50),
    Message('note_on', channel=9, note=42, velocity=0, time=30),
    Message('note_on', channel=9, note=57, velocity=93, time=50),
    Message('note_on', channel=9, note=35, velocity=124, time=0),
    Message('note_on', channel=9, note=42, velocity=124, time=0),
    Message('note_on', channel=9, note=42, velocity=0, time=30),
    Message('note_on', channel=9, note=35, velocity=0, time=0),
    Message('note_on', channel=9, note=57, velocity=0, time=0),
    Message('note_on', channel=9, note=42, velocity=100, time=130),
    Message('note_on', channel=9, note=42, velocity=0, time=30),
    Message('note_on', channel=9, note=42, velocity=94, time=50),
    Message('note_on', channel=9, note=35, velocity=123, time=0),
    Message('note_on', channel=9, note=35, velocity=0, time=30),
    Message('note_on', channel=9, note=42, velocity=0, time=0),
    Message('note_on', channel=9, note=49, velocity=93, time=210),
    Message('note_on', channel=9, note=42, velocity=125, time=0),
    Message('note_on', channel=9, note=38, velocity=125, time=0),
    Message('note_on', channel=9, note=38, velocity=0, time=30),
    Message('note_on', channel=9, note=42, velocity=0, time=0),
    Message('note_on', channel=9, note=49, velocity=0, time=0),
    Message('note_on', channel=9, note=42, velocity=100, time=130),
    Message('note_on', channel=9, note=42, velocity=0, time=30),
    Message('note_on', channel=9, note=42, velocity=92, time=50),
    Message('note_on', channel=9, note=42, velocity=0, time=30),
    Message('note_on', channel=9, note=35, velocity=126, time=210),
    Message('note_on', channel=9, note=42, velocity=126, time=0),
    Message('note_on', channel=9, note=42, velocity=0, time=30),
    Message('note_on', channel=9, note=35, velocity=0, time=0),
    Message('note_on', channel=9, note=42, velocity=100, time=130),
    Message('note_on', channel=9, note=42, velocity=0, time=30),
    Message('note_on', channel=9, note=42, velocity=90, time=50),
    Message('note_on', channel=9, note=35, velocity=100, time=0),
    Message('note_on', channel=9, note=35, velocity=0, time=30),
    Message('note_on', channel=9, note=42, velocity=0, time=0),
    Message('note_on', channel=9, note=49, velocity=93, time=210),
    Message('note_on', channel=9, note=42, velocity=126, time=0),
    Message('note_on', channel=9, note=38, velocity=127, time=0),
    Message('note_on', channel=9, note=38, velocity=0, time=30),
    Message('note_on', channel=9, note=42, velocity=0, time=0),
    Message('note_on', channel=9, note=49, velocity=0, time=0),
    Message('note_on', channel=9, note=42, velocity=100, time=130),
    Message('note_on', channel=9, note=42, velocity=0, time=30),
    Message('note_on', channel=9, note=42, velocity=94, time=50),
    Message('note_on', channel=9, note=42, velocity=0, time=30),
    Message('note_on', channel=9, note=35, velocity=127, time=210),
    Message('note_on', channel=9, note=42, velocity=127, time=0),
    Message('note_on', channel=9, note=42, velocity=0, time=30),
    Message('note_on', channel=9, note=35, velocity=0, time=0),
    Message('note_on', channel=9, note=42, velocity=100, time=130),
    Message('note_on', channel=9, note=42, velocity=0, time=30),
    Message('note_on', channel=9, note=35, velocity=123, time=50),
    Message('note_on', channel=9, note=42, velocity=94, time=0),
    Message('note_on', channel=9, note=42, velocity=0, time=30),
    Message('note_on', channel=9, note=35, velocity=0, time=0),
    Message('note_on', channel=9, note=49, velocity=93, time=210),
    Message('note_on', channel=9, note=38, velocity=125, time=0),
    Message('note_on', channel=9, note=42, velocity=125, time=0),
    Message('note_on', channel=9, note=42, velocity=0, time=30),
    Message('note_on', channel=9, note=38, velocity=0, time=0),
    Message('note_on', channel=9, note=49, velocity=0, time=0),
    Message('note_on', channel=9, note=42, velocity=100, time=130),
    Message('note_on', channel=9, note=42, velocity=0, time=30),
    Message('note_on', channel=9, note=42, velocity=92, time=50),
    Message('note_on', channel=9, note=42, velocity=0, time=30),
    Message('note_on', channel=9, note=42, velocity=126, time=210),
    Message('note_on', channel=9, note=35, velocity=126, time=0),
    Message('note_on', channel=9, note=35, velocity=0, time=30),
    Message('note_on', channel=9, note=42, velocity=0, time=0),
    Message('note_on', channel=9, note=42, velocity=100, time=130),
    Message('note_on', channel=9, note=42, velocity=0, time=30),
    Message('note_on', channel=9, note=42, velocity=90, time=50),
    Message('note_on', channel=9, note=35, velocity=100, time=0),
    Message('note_on', channel=9, note=35, velocity=0, time=30),
    Message('note_on', channel=9, note=42, velocity=0, time=0),
    Message('note_on', channel=9, note=49, velocity=93, time=210),
    Message('note_on', channel=9, note=38, velocity=127, time=0),
    Message('note_on', channel=9, note=42, velocity=126, time=0),
    Message('note_on', channel=9, note=42, velocity=0, time=30),
    Message('note_on', channel=9, note=38, velocity=0, time=0),
    Message('note_on', channel=9, note=49, velocity=0, time=0),
    Message('note_on', channel=9, note=42, velocity=100, time=130),
    Message('note_on', channel=9, note=42, velocity=0, time=30),
    Message('note_on', channel=9, note=38, velocity=127, time=50),
    Message('note_on', channel=9, note=38, velocity=0, time=30),
    Message('note_on', channel=9, note=38, velocity=127, time=130),
    Message('note_on', channel=9, note=38, velocity=0, time=30),
    Message('note_on', channel=9, note=57, velocity=93, time=50),
    Message('note_on', channel=9, note=42, velocity=127, time=0),
    Message('note_on', channel=9, note=35, velocity=127, time=0),
    Message('note_on', channel=9, note=35, velocity=0, time=30),
    Message('note_on', channel=9, note=42, velocity=0, time=0),
    Message('note_on', channel=9, note=57, velocity=0, time=0),
    Message('note_on', channel=9, note=42, velocity=100, time=130),
    Message('note_on', channel=9, note=42, velocity=0, time=30),
    Message('note_on', channel=9, note=42, velocity=94, time=50),
    Message('note_on', channel=9, note=35, velocity=123, time=0),
    Message('note_on', channel=9, note=35, velocity=0, time=30),
    Message('note_on', channel=9, note=42, velocity=0, time=0),
    Message('note_on', channel=9, note=49, velocity=93, time=210),
    Message('note_on', channel=9, note=42, velocity=125, time=0),
    Message('note_on', channel=9, note=38, velocity=125, time=0),
    Message('note_on', channel=9, note=38, velocity=0, time=30),
    Message('note_on', channel=9, note=42, velocity=0, time=0),
    Message('note_on', channel=9, note=49, velocity=0, time=0),
    Message('note_on', channel=9, note=42, velocity=100, time=130),
    Message('note_on', channel=9, note=42, velocity=0, time=30),
    Message('note_on', channel=9, note=42, velocity=92, time=50),
    Message('note_on', channel=9, note=42, velocity=0, time=30),
    Message('note_on', channel=9, note=57, velocity=93, time=210),
    Message('note_on', channel=9, note=35, velocity=126, time=0),
    Message('note_on', channel=9, note=42, velocity=126, time=0),
    Message('note_on', channel=9, note=42, velocity=0, time=30),
    Message('note_on', channel=9, note=35, velocity=0, time=0),
    Message('note_on', channel=9, note=57, velocity=0, time=0),
    Message('note_on', channel=9, note=42, velocity=100, time=130),
    Message('note_on', channel=9, note=42, velocity=0, time=30),
    Message('note_on', channel=9, note=42, velocity=90, time=50),
    Message('note_on', channel=9, note=35, velocity=100, time=0),
    Message('note_on', channel=9, note=35, velocity=0, time=30),
    Message('note_on', channel=9, note=42, velocity=0, time=0),
    Message('note_on', channel=9, note=49, velocity=93, time=210),
    Message('note_on', channel=9, note=42, velocity=126, time=0),
    Message('note_on', channel=9, note=38, velocity=127, time=0),
    Message('note_on', channel=9, note=38, velocity=0, time=30),
    Message('note_on', channel=9, note=42, velocity=0, time=0),
    Message('note_on', channel=9, note=49, velocity=0, time=0),
    Message('note_on', channel=9, note=42, velocity=100, time=130),
    Message('note_on', channel=9, note=42, velocity=0, time=30),
    Message('note_on', channel=9, note=45, velocity=93, time=50),
    Message('note_on', channel=9, note=42, velocity=94, time=0),
    Message('note_on', channel=9, note=42, velocity=0, time=30),
    Message('note_on', channel=9, note=45, velocity=0, time=0),
    Message('note_on', channel=9, note=43, velocity=120, time=50),
    Message('note_on', channel=9, note=43, velocity=0, time=30),
    Message('note_on', channel=9, note=41, velocity=116, time=50),
    Message('note_on', channel=9, note=41, velocity=0, time=30),
    Message('note_on', channel=9, note=35, velocity=127, time=50),
    Message('note_on', channel=9, note=49, velocity=105, time=0),
    Message('note_on', channel=9, note=49, velocity=0, time=30),
    Message('note_on', channel=9, note=35, velocity=0, time=0),
    Message('note_on', channel=9, note=42, velocity=80, time=130),
    Message('note_on', channel=9, note=42, velocity=0, time=30),
    Message('note_on', channel=9, note=35, velocity=123, time=50),
    Message('note_on', channel=9, note=42, velocity=94, time=0),
    Message('note_on', channel=9, note=42, velocity=0, time=30),
    Message('note_on', channel=9, note=35, velocity=0, time=0),
    Message('note_on', channel=9, note=42, velocity=83, time=130),
    Message('note_on', channel=9, note=42, velocity=0, time=30),
    Message('note_on', channel=9, note=49, velocity=90, time=50),
    Message('note_on', channel=9, note=38, velocity=125, time=0),
    Message('note_on', channel=9, note=42, velocity=125, time=0),
    Message('note_on', channel=9, note=42, velocity=0, time=30),
    Message('note_on', channel=9, note=38, velocity=0, time=0),
    Message('note_on', channel=9, note=49, velocity=0, time=0),
    Message('note_on', channel=9, note=42, velocity=79, time=130),
    Message('note_on', channel=9, note=42, velocity=0, time=30),
    Message('note_on', channel=9, note=42, velocity=98, time=50),
    Message('note_on', channel=9, note=42, velocity=0, time=30),
    Message('note_on', channel=9, note=42, velocity=83, time=130),
    Message('note_on', channel=9, note=42, velocity=0, time=30),
    Message('note_on', channel=9, note=35, velocity=126, time=50),
    Message('note_on', channel=9, note=42, velocity=126, time=0),
    Message('note_on', channel=9, note=42, velocity=0, time=30),
    Message('note_on', channel=9, note=35, velocity=0, time=0),
    Message('note_on', channel=9, note=42, velocity=83, time=130),
    Message('note_on', channel=9, note=42, velocity=0, time=30),
    Message('note_on', channel=9, note=42, velocity=90, time=50),
    Message('note_on', channel=9, note=35, velocity=100, time=0),
    Message('note_on', channel=9, note=35, velocity=0, time=30),
    Message('note_on', channel=9, note=42, velocity=0, time=0),
    Message('note_on', channel=9, note=42, velocity=80, time=130),
    Message('note_on', channel=9, note=42, velocity=0, time=30),
    Message('note_on', channel=9, note=49, velocity=90, time=50),
    Message('note_on', channel=9, note=38, velocity=127, time=0),
    Message('note_on', channel=9, note=42, velocity=126, time=0),
    Message('note_on', channel=9, note=42, velocity=0, time=30),
    Message('note_on', channel=9, note=38, velocity=0, time=0),
    Message('note_on', channel=9, note=49, velocity=0, time=0),
    Message('note_on', channel=9, note=42, velocity=83, time=130),
    Message('note_on', channel=9, note=42, velocity=0, time=30),
    Message('note_on', channel=9, note=42, velocity=105, time=50),
    Message('note_on', channel=9, note=42, velocity=0, time=30),
    Message('note_on', channel=9, note=42, velocity=83, time=130),
    Message('note_on', channel=9, note=42, velocity=0, time=30),
    Message('note_on', channel=9, note=35, velocity=127, time=50),
    Message('note_on', channel=9, note=42, velocity=127, time=0),
    Message('note_on', channel=9, note=42, velocity=0, time=30),
    Message('note_on', channel=9, note=35, velocity=0, time=0),
    Message('note_on', channel=9, note=42, velocity=100, time=130),
    Message('note_on', channel=9, note=42, velocity=0, time=30),
    Message('note_on', channel=9, note=35, velocity=123, time=50),
    Message('note_on', channel=9, note=42, velocity=94, time=0),
    Message('note_on', channel=9, note=42, velocity=0, time=30),
    Message('note_on', channel=9, note=35, velocity=0, time=0),
    Message('note_on', channel=9, note=42, velocity=83, time=130),
    Message('note_on', channel=9, note=42, velocity=0, time=30),
    Message('note_on', channel=9, note=49, velocity=90, time=50),
    Message('note_on', channel=9, note=38, velocity=125, time=0),
    Message('note_on', channel=9, note=42, velocity=125, time=0),
    Message('note_on', channel=9, note=42, velocity=0, time=30),
    Message('note_on', channel=9, note=38, velocity=0, time=0),
    Message('note_on', channel=9, note=49, velocity=0, time=0),
    Message('note_on', channel=9, note=42, velocity=100, time=130),
    Message('note_on', channel=9, note=42, velocity=0, time=30),
    Message('note_on', channel=9, note=42, velocity=92, time=50),
    Message('note_on', channel=9, note=42, velocity=0, time=30),
    Message('note_on', channel=9, note=42, velocity=100, time=130),
    Message('note_on', channel=9, note=35, velocity=55, time=0),
    Message('note_on', channel=9, note=35, velocity=0, time=30),
    Message('note_on', channel=9, note=42, velocity=0, time=0),
    Message('note_on', channel=9, note=42, velocity=126, time=50),
    Message('note_on', channel=9, note=35, velocity=126, time=0),
    Message('note_on', channel=9, note=35, velocity=0, time=30),
    Message('note_on', channel=9, note=42, velocity=0, time=0),
    Message('note_on', channel=9, note=42, velocity=100, time=130),
    Message('note_on', channel=9, note=42, velocity=0, time=30),
    Message('note_on', channel=9, note=42, velocity=90, time=50),
    Message('note_on', channel=9, note=35, velocity=100, time=0),
    Message('note_on', channel=9, note=35, velocity=0, time=30),
    Message('note_on', channel=9, note=42, velocity=0, time=0),
    Message('note_on', channel=9, note=42, velocity=83, time=130),
    Message('note_on', channel=9, note=42, velocity=0, time=30),
    Message('note_on', channel=9, note=49, velocity=90, time=50),
    Message('note_on', channel=9, note=38, velocity=126, time=0),
    Message('note_on', channel=9, note=42, velocity=126, time=0),
    Message('note_on', channel=9, note=42, velocity=0, time=30),
    Message('note_on', channel=9, note=38, velocity=0, time=0),
    Message('note_on', channel=9, note=49, velocity=0, time=0),
    Message('note_on', channel=9, note=35, velocity=72, time=130),
    Message('note_on', channel=9, note=35, velocity=0, time=30),
    Message('note_on', channel=9, note=38, velocity=105, time=50),
    Message('note_on', channel=9, note=38, velocity=0, time=30),
    Message('note_on', channel=9, note=38, velocity=105, time=130),
    Message('note_on', channel=9, note=38, velocity=0, time=30),
    Message('note_on', channel=9, note=35, velocity=127, time=50),
    Message('note_on', channel=9, note=42, velocity=103, time=0),
    Message('note_on', channel=9, note=42, velocity=0, time=30),
    Message('note_on', channel=9, note=35, velocity=0, time=0),
    Message('note_on', channel=9, note=42, velocity=80, time=130),
    Message('note_on', channel=9, note=42, velocity=0, time=30),
    Message('note_on', channel=9, note=35, velocity=123, time=50),
    Message('note_on', channel=9, note=42, velocity=94, time=0),
    Message('note_on', channel=9, note=42, velocity=0, time=30),
    Message('note_on', channel=9, note=35, velocity=0, time=0),
    Message('note_on', channel=9, note=42, velocity=83, time=130),
    Message('note_on', channel=9, note=42, velocity=0, time=30),
    Message('note_on', channel=9, note=49, velocity=90, time=50),
    Message('note_on', channel=9, note=38, velocity=125, time=0),
    Message('note_on', channel=9, note=42, velocity=125, time=0),
    Message('note_on', channel=9, note=42, velocity=0, time=30),
    Message('note_on', channel=9, note=38, velocity=0, time=0),
    Message('note_on', channel=9, note=49, velocity=0, time=0),
    Message('note_on', channel=9, note=42, velocity=79, time=130),
    Message('note_on', channel=9, note=42, velocity=0, time=30),
    Message('note_on', channel=9, note=42, velocity=98, time=50),
    Message('note_on', channel=9, note=42, velocity=0, time=30),
    Message('note_on', channel=9, note=42, velocity=83, time=130),
    Message('note_on', channel=9, note=42, velocity=0, time=30),
    Message('note_on', channel=9, note=35, velocity=126, time=50),
    Message('note_on', channel=9, note=42, velocity=126, time=0),
    Message('note_on', channel=9, note=42, velocity=0, time=30),
    Message('note_on', channel=9, note=35, velocity=0, time=0),
    Message('note_on', channel=9, note=42, velocity=83, time=130),
    Message('note_on', channel=9, note=42, velocity=0, time=30),
    Message('note_on', channel=9, note=42, velocity=90, time=50),
    Message('note_on', channel=9, note=35, velocity=100, time=0),
    Message('note_on', channel=9, note=35, velocity=0, time=30),
    Message('note_on', channel=9, note=42, velocity=0, time=0),
    Message('note_on', channel=9, note=42, velocity=80, time=130),
    Message('note_on', channel=9, note=42, velocity=0, time=30),
    Message('note_on', channel=9, note=49, velocity=90, time=50),
    Message('note_on', channel=9, note=38, velocity=127, time=0),
    Message('note_on', channel=9, note=42, velocity=126, time=0),
    Message('note_on', channel=9, note=42, velocity=0, time=30),
    Message('note_on', channel=9, note=38, velocity=0, time=0),
    Message('note_on', channel=9, note=49, velocity=0, time=0),
    Message('note_on', channel=9, note=42, velocity=83, time=130),
    Message('note_on', channel=9, note=42, velocity=0, time=30),
    Message('note_on', channel=9, note=42, velocity=105, time=50),
    Message('note_on', channel=9, note=42, velocity=0, time=30),
    Message('note_on', channel=9, note=42, velocity=83, time=130),
    Message('note_on', channel=9, note=42, velocity=0, time=30),
    Message('note_on', channel=9, note=35, velocity=127, time=50),
    Message('note_on', channel=9, note=42, velocity=127, time=0),
    Message('note_on', channel=9, note=42, velocity=0, time=30),
    Message('note_on', channel=9, note=35, velocity=0, time=0),
    Message('note_on', channel=9, note=42, velocity=100, time=130),
    Message('note_on', channel=9, note=42, velocity=0, time=30),
    Message('note_on', channel=9, note=35, velocity=123, time=50),
    Message('note_on', channel=9, note=42, velocity=94, time=0),
    Message('note_on', channel=9, note=42, velocity=0, time=30),
    Message('note_on', channel=9, note=35, velocity=0, time=0),
    Message('note_on', channel=9, note=42, velocity=83, time=130),
    Message('note_on', channel=9, note=42, velocity=0, time=30),
    Message('note_on', channel=9, note=49, velocity=90, time=50),
    Message('note_on', channel=9, note=38, velocity=125, time=0),
    Message('note_on', channel=9, note=42, velocity=125, time=0),
    Message('note_on', channel=9, note=42, velocity=0, time=30),
    Message('note_on', channel=9, note=38, velocity=0, time=0),
    Message('note_on', channel=9, note=49, velocity=0, time=0),
    Message('note_on', channel=9, note=42, velocity=100, time=130),
    Message('note_on', channel=9, note=42, velocity=0, time=30),
    Message('note_on', channel=9, note=42, velocity=92, time=50),
    Message('note_on', channel=9, note=38, velocity=101, time=0),
    Message('note_on', channel=9, note=38, velocity=0, time=30),
    Message('note_on', channel=9, note=42, velocity=0, time=0),
    Message('note_on', channel=9, note=42, velocity=77, time=130),
    Message('note_on', channel=9, note=42, velocity=0, time=30),
    Message('note_on', channel=9, note=42, velocity=126, time=50),
    Message('note_on', channel=9, note=35, velocity=126, time=0),
    Message('note_on', channel=9, note=49, velocity=77, time=0),
    Message('note_on', channel=9, note=49, velocity=0, time=30),
    Message('note_on', channel=9, note=35, velocity=0, time=0),
    Message('note_on', channel=9, note=42, velocity=0, time=0),
    Message('note_on', channel=9, note=42, velocity=100, time=130),
    Message('note_on', channel=9, note=42, velocity=0, time=30),
    Message('note_on', channel=9, note=42, velocity=90, time=50),
    Message('note_on', channel=9, note=35, velocity=100, time=0),
    Message('note_on', channel=9, note=35, velocity=0, time=30),
    Message('note_on', channel=9, note=42, velocity=0, time=0),
    Message('note_on', channel=9, note=42, velocity=83, time=130),
    Message('note_on', channel=9, note=42, velocity=0, time=30),
    Message('note_on', channel=9, note=49, velocity=90, time=50),
    Message('note_on', channel=9, note=38, velocity=126, time=0),
    Message('note_on', channel=9, note=42, velocity=126, time=0),
    Message('note_on', channel=9, note=42, velocity=0, time=30),
    Message('note_on', channel=9, note=38, velocity=0, time=0),
    Message('note_on', channel=9, note=49, velocity=0, time=0),
    Message('note_on', channel=9, note=42, velocity=100, time=130),
    Message('note_on', channel=9, note=42, velocity=0, time=30),
    Message('note_on', channel=9, note=38, velocity=126, time=50),
    Message('note_on', channel=9, note=46, velocity=92, time=0),
    Message('note_on', channel=9, note=46, velocity=0, time=30),
    Message('note_on', channel=9, note=38, velocity=0, time=0),
    Message('note_on', channel=9, note=38, velocity=126, time=130),
    Message('note_on', channel=9, note=38, velocity=0, time=30),
    Message('note_on', channel=9, note=35, velocity=127, time=50),
    Message('note_on', channel=9, note=49, velocity=107, time=0),
    Message('note_on', channel=9, note=49, velocity=0, time=30),
    Message('note_on', channel=9, note=35, velocity=0, time=0),
    Message('note_on', channel=9, note=35, velocity=123, time=210),
    Message('note_on', channel=9, note=51, velocity=94, time=0),
    Message('note_on', channel=9, note=51, velocity=0, time=30),
    Message('note_on', channel=9, note=35, velocity=0, time=0),
    Message('note_on', channel=9, note=51, velocity=125, time=210),
    Message('note_on', channel=9, note=38, velocity=125, time=0),
    Message('note_on', channel=9, note=38, velocity=0, time=30),
    Message('note_on', channel=9, note=51, velocity=0, time=0),
    Message('note_on', channel=9, note=51, velocity=100, time=130),
    Message('note_on', channel=9, note=51, velocity=0, time=30),
    Message('note_on', channel=9, note=51, velocity=92, time=50),
    Message('note_on', channel=9, note=51, velocity=0, time=30),
    Message('note_on', channel=9, note=35, velocity=126, time=210),
    Message('note_on', channel=9, note=51, velocity=126, time=0),
    Message('note_on', channel=9, note=51, velocity=0, time=30),
    Message('note_on', channel=9, note=35, velocity=0, time=0),
    Message('note_on', channel=9, note=51, velocity=100, time=130),
    Message('note_on', channel=9, note=51, velocity=0, time=30),
    Message('note_on', channel=9, note=35, velocity=100, time=50),
    Message('note_on', channel=9, note=51, velocity=90, time=0),
    Message('note_on', channel=9, note=51, velocity=0, time=30),
    Message('note_on', channel=9, note=35, velocity=0, time=0),
    Message('note_on', channel=9, note=49, velocity=94, time=210),
    Message('note_on', channel=9, note=38, velocity=127, time=0),
    Message('note_on', channel=9, note=38, velocity=0, time=30),
    Message('note_on', channel=9, note=49, velocity=0, time=0),
    Message('note_on', channel=9, note=51, velocity=100, time=130),
    Message('note_on', channel=9, note=51, velocity=0, time=30),
    Message('note_on', channel=9, note=51, velocity=94, time=50),
    Message('note_on', channel=9, note=51, velocity=0, time=30),
    Message('note_on', channel=9, note=35, velocity=127, time=210),
    Message('note_on', channel=9, note=51, velocity=127, time=0),
    Message('note_on', channel=9, note=51, velocity=0, time=30),
    Message('note_on', channel=9, note=35, velocity=0, time=0),
    Message('note_on', channel=9, note=51, velocity=100, time=130),
    Message('note_on', channel=9, note=51, velocity=0, time=30),
    Message('note_on', channel=9, note=35, velocity=123, time=50),
    Message('note_on', channel=9, note=51, velocity=94, time=0),
    Message('note_on', channel=9, note=51, velocity=0, time=30),
    Message('note_on', channel=9, note=35, velocity=0, time=0),
    Message('note_on', channel=9, note=51, velocity=125, time=210),
    Message('note_on', channel=9, note=38, velocity=125, time=0),
    Message('note_on', channel=9, note=38, velocity=0, time=30),
    Message('note_on', channel=9, note=51, velocity=0, time=0),
    Message('note_on', channel=9, note=51, velocity=100, time=130),
    Message('note_on', channel=9, note=51, velocity=0, time=30),
    Message('note_on', channel=9, note=51, velocity=92, time=50),
    Message('note_on', channel=9, note=51, velocity=0, time=30),
    Message('note_on', channel=9, note=51, velocity=126, time=210),
    Message('note_on', channel=9, note=35, velocity=126, time=0),
    Message('note_on', channel=9, note=35, velocity=0, time=30),
    Message('note_on', channel=9, note=51, velocity=0, time=0),
    Message('note_on', channel=9, note=51, velocity=100, time=130),
    Message('note_on', channel=9, note=38, velocity=127, time=0),
    Message('note_on', channel=9, note=38, velocity=0, time=30),
    Message('note_on', channel=9, note=51, velocity=0, time=0),
    Message('note_on', channel=9, note=35, velocity=100, time=50),
    Message('note_on', channel=9, note=51, velocity=90, time=0),
    Message('note_on', channel=9, note=51, velocity=0, time=30),
    Message('note_on', channel=9, note=35, velocity=0, time=0),
    Message('note_on', channel=9, note=38, velocity=127, time=210),
    Message('note_on', channel=9, note=49, velocity=96, time=0),
    Message('note_on', channel=9, note=49, velocity=0, time=30),
    Message('note_on', channel=9, note=38, velocity=0, time=0),
    Message('note_on', channel=9, note=51, velocity=100, time=130),
    Message('note_on', channel=9, note=51, velocity=0, time=30),
    Message('note_on', channel=9, note=51, velocity=92, time=50),
    Message('note_on', channel=9, note=51, velocity=0, time=30),
    Message('note_on', channel=9, note=51, velocity=92, time=50),
    Message('note_on', channel=9, note=51, velocity=0, time=30),
    Message('note_on', channel=9, note=51, velocity=93, time=50),
    Message('note_on', channel=9, note=51, velocity=0, time=30),
    Message('note_on', channel=9, note=35, velocity=124, time=50),
    Message('note_on', channel=9, note=51, velocity=124, time=0),
    Message('note_on', channel=9, note=51, velocity=0, time=30),
    Message('note_on', channel=9, note=35, velocity=0, time=0),
    Message('note_on', channel=9, note=51, velocity=100, time=130),
    Message('note_on', channel=9, note=51, velocity=0, time=30),
    Message('note_on', channel=9, note=35, velocity=123, time=50),
    Message('note_on', channel=9, note=51, velocity=94, time=0),
    Message('note_on', channel=9, note=51, velocity=0, time=30),
    Message('note_on', channel=9, note=35, velocity=0, time=0),
    Message('note_on', channel=9, note=38, velocity=125, time=210),
    Message('note_on', channel=9, note=51, velocity=125, time=0),
    Message('note_on', channel=9, note=51, velocity=0, time=30),
    Message('note_on', channel=9, note=38, velocity=0, time=0),
    Message('note_on', channel=9, note=51, velocity=100, time=130),
    Message('note_on', channel=9, note=51, velocity=0, time=30),
    Message('note_on', channel=9, note=51, velocity=92, time=50),
    Message('note_on', channel=9, note=51, velocity=0, time=30),
    Message('note_on', channel=9, note=51, velocity=126, time=210),
    Message('note_on', channel=9, note=35, velocity=126, time=0),
    Message('note_on', channel=9, note=35, velocity=0, time=30),
    Message('note_on', channel=9, note=51, velocity=0, time=0),
    Message('note_on', channel=9, note=51, velocity=100, time=130),
    Message('note_on', channel=9, note=51, velocity=0, time=30),
    Message('note_on', channel=9, note=51, velocity=90, time=50),
    Message('note_on', channel=9, note=35, velocity=100, time=0),
    Message('note_on', channel=9, note=35, velocity=0, time=30),
    Message('note_on', channel=9, note=51, velocity=0, time=0),
    Message('note_on', channel=9, note=38, velocity=127, time=210),
    Message('note_on', channel=9, note=49, velocity=99, time=0),
    Message('note_on', channel=9, note=49, velocity=0, time=30),
    Message('note_on', channel=9, note=38, velocity=0, time=0),
    Message('note_on', channel=9, note=51, velocity=100, time=130),
    Message('note_on', channel=9, note=51, velocity=0, time=30),
    Message('note_on', channel=9, note=51, velocity=94, time=50),
    Message('note_on', channel=9, note=51, velocity=0, time=30),
    Message('note_on', channel=9, note=35, velocity=127, time=210),
    Message('note_on', channel=9, note=51, velocity=127, time=0),
    Message('note_on', channel=9, note=51, velocity=0, time=30),
    Message('note_on', channel=9, note=35, velocity=0, time=0),
    Message('note_on', channel=9, note=51, velocity=100, time=130),
    Message('note_on', channel=9, note=51, velocity=0, time=30),
    Message('note_on', channel=9, note=51, velocity=94, time=50),
    Message('note_on', channel=9, note=35, velocity=123, time=0),
    Message('note_on', channel=9, note=35, velocity=0, time=30),
    Message('note_on', channel=9, note=51, velocity=0, time=0),
    Message('note_on', channel=9, note=38, velocity=125, time=210),
    Message('note_on', channel=9, note=51, velocity=125, time=0),
    Message('note_on', channel=9, note=51, velocity=0, time=30),
    Message('note_on', channel=9, note=38, velocity=0, time=0),
    Message('note_on', channel=9, note=51, velocity=100, time=130),
    Message('note_on', channel=9, note=51, velocity=0, time=30),
    Message('note_on', channel=9, note=51, velocity=92, time=50),
    Message('note_on', channel=9, note=51, velocity=0, time=30),
    Message('note_on', channel=9, note=35, velocity=126, time=210),
    Message('note_on', channel=9, note=51, velocity=126, time=0),
    Message('note_on', channel=9, note=51, velocity=0, time=30),
    Message('note_on', channel=9, note=35, velocity=0, time=0),
    Message('note_on', channel=9, note=51, velocity=100, time=130),
    Message('note_on', channel=9, note=38, velocity=127, time=0),
    Message('note_on', channel=9, note=38, velocity=0, time=30),
    Message('note_on', channel=9, note=51, velocity=0, time=0),
    Message('note_on', channel=9, note=51, velocity=90, time=50),
    Message('note_on', channel=9, note=35, velocity=100, time=0),
    Message('note_on', channel=9, note=35, velocity=0, time=30),
    Message('note_on', channel=9, note=51, velocity=0, time=0),
    Message('note_on', channel=9, note=51, velocity=126, time=210),
    Message('note_on', channel=9, note=38, velocity=127, time=0),
    Message('note_on', channel=9, note=38, velocity=0, time=30),
    Message('note_on', channel=9, note=51, velocity=0, time=0),
    Message('note_on', channel=9, note=51, velocity=100, time=130),
    Message('note_on', channel=9, note=51, velocity=0, time=30),
    Message('note_on', channel=9, note=51, velocity=92, time=50),
    Message('note_on', channel=9, note=51, velocity=0, time=30),
    Message('note_on', channel=9, note=35, velocity=124, time=210),
    Message('note_on', channel=9, note=57, velocity=104, time=0),
    Message('note_on', channel=9, note=57, velocity=0, time=30),
    Message('note_on', channel=9, note=35, velocity=0, time=0),
    Message('note_on', channel=9, note=42, velocity=119, time=130),
    Message('note_on', channel=9, note=35, velocity=119, time=0),
    Message('note_on', channel=9, note=35, velocity=0, time=30),
    Message('note_on', channel=9, note=42, velocity=0, time=0),
    Message('note_on', channel=9, note=42, velocity=96, time=290),
    Message('note_on', channel=9, note=38, velocity=125, time=0),
    Message('note_on', channel=9, note=38, velocity=0, time=30),
    Message('note_on', channel=9, note=42, velocity=0, time=0),
    Message('note_on', channel=9, note=42, velocity=100, time=130),
    Message('note_on', channel=9, note=42, velocity=0, time=30),
    Message('note_on', channel=9, note=42, velocity=92, time=50),
    Message('note_on', channel=9, note=42, velocity=0, time=30),
    Message('note_on', channel=9, note=35, velocity=126, time=210),
    Message('note_on', channel=9, note=42, velocity=126, time=0),
    Message('note_on', channel=9, note=42, velocity=0, time=30),
    Message('note_on', channel=9, note=35, velocity=0, time=0),
    Message('note_on', channel=9, note=42, velocity=117, time=130),
    Message('note_on', channel=9, note=35, velocity=117, time=0),
    Message('note_on', channel=9, note=35, velocity=0, time=30),
    Message('note_on', channel=9, note=42, velocity=0, time=0),
    Message('note_on', channel=9, note=42, velocity=126, time=290),
    Message('note_on', channel=9, note=38, velocity=127, time=0),
    Message('note_on', channel=9, note=38, velocity=0, time=30),
    Message('note_on', channel=9, note=42, velocity=0, time=0),
    Message('note_on', channel=9, note=42, velocity=100, time=130),
    Message('note_on', channel=9, note=42, velocity=0, time=30),
    Message('note_on', channel=9, note=42, velocity=94, time=50),
    Message('note_on', channel=9, note=42, velocity=0, time=30),
    Message('note_on', channel=9, note=35, velocity=127, time=210),
    Message('note_on', channel=9, note=42, velocity=127, time=0),
    Message('note_on', channel=9, note=42, velocity=0, time=30),
    Message('note_on', channel=9, note=35, velocity=0, time=0),
    Message('note_on', channel=9, note=42, velocity=119, time=130),
    Message('note_on', channel=9, note=35, velocity=119, time=0),
    Message('note_on', channel=9, note=35, velocity=0, time=30),
    Message('note_on', channel=9, note=42, velocity=0, time=0),
    Message('note_on', channel=9, note=38, velocity=125, time=290),
    Message('note_on', channel=9, note=46, velocity=125, time=0),
    Message('note_on', channel=9, note=46, velocity=0, time=30),
    Message('note_on', channel=9, note=38, velocity=0, time=0),
    Message('note_on', channel=9, note=38, velocity=126, time=210),
    Message('note_on', channel=9, note=46, velocity=109, time=0),
    Message('note_on', channel=9, note=46, velocity=0, time=30),
    Message('note_on', channel=9, note=38, velocity=0, time=0),
    Message('note_on', channel=9, note=38, velocity=126, time=130),
    Message('note_on', channel=9, note=38, velocity=0, time=30),
    Message('note_on', channel=9, note=46, velocity=126, time=50),
    Message('note_on', channel=9, note=35, velocity=126, time=0),
    Message('note_on', channel=9, note=35, velocity=0, time=30),
    Message('note_on', channel=9, note=46, velocity=0, time=0),
    Message('note_on', channel=9, note=38, velocity=127, time=130),
    Message('note_on', channel=9, note=38, velocity=0, time=30),
    Message('note_on', channel=9, note=46, velocity=90, time=50),
    Message('note_on', channel=9, note=35, velocity=100, time=0),
    Message('note_on', channel=9, note=35, velocity=0, time=30),
    Message('note_on', channel=9, note=46, velocity=0, time=0),
    Message('note_on', channel=9, note=38, velocity=127, time=210),
    Message('note_on', channel=9, note=46, velocity=126, time=0),
    Message('note_on', channel=9, note=46, velocity=0, time=30),
    Message('note_on', channel=9, note=38, velocity=0, time=0),
    Message('note_on', channel=9, note=35, velocity=100, time=130),
    Message('note_on', channel=9, note=35, velocity=0, time=30),
    Message('note_on', channel=9, note=35, velocity=92, time=50),
    Message('note_on', channel=9, note=46, velocity=120, time=0),
    Message('note_on', channel=9, note=46, velocity=0, time=30),
    Message('note_on', channel=9, note=35, velocity=0, time=0),
    Message('note_on', channel=9, note=38, velocity=93, time=130),
    Message('note_on', channel=9, note=38, velocity=0, time=30),
    Message('note_on', channel=9, note=35, velocity=124, time=50),
    Message('note_on', channel=9, note=46, velocity=124, time=0),
    Message('note_on', channel=9, note=46, velocity=0, time=30),
    Message('note_on', channel=9, note=35, velocity=0, time=0),
    Message('note_on', channel=9, note=46, velocity=94, time=210),
    Message('note_on', channel=9, note=35, velocity=123, time=0),
    Message('note_on', channel=9, note=35, velocity=0, time=30),
    Message('note_on', channel=9, note=46, velocity=0, time=0),
    Message('note_on', channel=9, note=46, velocity=125, time=210),
    Message('note_on', channel=9, note=38, velocity=125, time=0),
    Message('note_on', channel=9, note=57, velocity=93, time=0),
    Message('note_on', channel=9, note=57, velocity=0, time=30),
    Message('note_on', channel=9, note=38, velocity=0, time=0),
    Message('note_on', channel=9, note=46, velocity=0, time=0),
    Message('note_on', channel=9, note=46, velocity=92, time=210),
    Message('note_on', channel=9, note=46, velocity=0, time=30),
    Message('note_on', channel=9, note=35, velocity=90, time=130),
    Message('note_on', channel=9, note=35, velocity=0, time=30),
    Message('note_on', channel=9, note=35, velocity=126, time=50),
    Message('note_on', channel=9, note=46, velocity=126, time=0),
    Message('note_on', channel=9, note=46, velocity=0, time=30),
    Message('note_on', channel=9, note=35, velocity=0, time=0),
    Message('note_on', channel=9, note=38, velocity=69, time=130),
    Message('note_on', channel=9, note=38, velocity=0, time=30),
    Message('note_on', channel=9, note=46, velocity=90, time=50),
    Message('note_on', channel=9, note=35, velocity=100, time=0),
    Message('note_on', channel=9, note=35, velocity=0, time=30),
    Message('note_on', channel=9, note=46, velocity=0, time=0),
    Message('note_on', channel=9, note=49, velocity=93, time=210),
    Message('note_on', channel=9, note=46, velocity=126, time=0),
    Message('note_on', channel=9, note=38, velocity=127, time=0),
    Message('note_on', channel=9, note=38, velocity=0, time=30),
    Message('note_on', channel=9, note=46, velocity=0, time=0),
    Message('note_on', channel=9, note=49, velocity=0, time=0),
    Message('note_on', channel=9, note=35, velocity=90, time=130),
    Message('note_on', channel=9, note=35, velocity=0, time=30),
    Message('note_on', channel=9, note=38, velocity=126, time=50),
    Message('note_on', channel=9, note=38, velocity=0, time=30),
    Message('note_on', channel=9, note=38, velocity=126, time=50),
    Message('note_on', channel=9, note=38, velocity=0, time=30),
    Message('note_on', channel=9, note=38, velocity=126, time=50),
    Message('note_on', channel=9, note=38, velocity=0, time=30),
    Message('note_on', channel=9, note=57, velocity=93, time=50),
    Message('note_on', channel=9, note=35, velocity=127, time=0),
    Message('note_on', channel=9, note=35, velocity=0, time=30),
    Message('note_on', channel=9, note=57, velocity=0, time=0),
    Message('note_on', channel=9, note=35, velocity=90, time=450),
    Message('note_on', channel=9, note=49, velocity=93, time=0),
    Message('note_on', channel=9, note=38, velocity=125, time=0),
    Message('note_on', channel=9, note=38, velocity=0, time=30),
    Message('note_on', channel=9, note=49, velocity=0, time=0),
    Message('note_on', channel=9, note=35, velocity=0, time=0),
    Message('note_on', channel=9, note=57, velocity=93, time=450),
    Message('note_on', channel=9, note=35, velocity=126, time=0),
    Message('note_on', channel=9, note=35, velocity=0, time=30),
    Message('note_on', channel=9, note=57, velocity=0, time=0),
    Message('note_on', channel=9, note=49, velocity=93, time=450),
    Message('note_on', channel=9, note=38, velocity=127, time=0),
    Message('note_on', channel=9, note=35, velocity=100, time=0),
    Message('note_on', channel=9, note=35, velocity=0, time=30),
    Message('note_on', channel=9, note=38, velocity=0, time=0),
    Message('note_on', channel=9, note=49, velocity=0, time=0),
    Message('note_on', channel=9, note=42, velocity=100, time=130),
    Message('note_on', channel=9, note=42, velocity=0, time=30),
    Message('note_on', channel=9, note=45, velocity=92, time=50),
    Message('note_on', channel=9, note=45, velocity=0, time=30),
    Message('note_on', channel=9, note=43, velocity=92, time=50),
    Message('note_on', channel=9, note=43, velocity=0, time=30),
    Message('note_on', channel=9, note=41, velocity=93, time=50),
    Message('note_on', channel=9, note=41, velocity=0, time=30),
    Message('note_on', channel=9, note=57, velocity=93, time=50),
    Message('note_on', channel=9, note=35, velocity=124, time=0),
    Message('note_on', channel=9, note=35, velocity=0, time=30),
    Message('note_on', channel=9, note=57, velocity=0, time=0),
    Message('note_on', channel=9, note=46, velocity=94, time=210),
    Message('note_on', channel=9, note=35, velocity=123, time=0),
    Message('note_on', channel=9, note=35, velocity=0, time=30),
    Message('note_on', channel=9, note=46, velocity=0, time=0),
    Message('note_on', channel=9, note=49, velocity=93, time=210),
    Message('note_on', channel=9, note=38, velocity=125, time=0),
    Message('note_on', channel=9, note=38, velocity=0, time=30),
    Message('note_on', channel=9, note=49, velocity=0, time=0),
    Message('note_on', channel=9, note=46, velocity=92, time=210),
    Message('note_on', channel=9, note=46, velocity=0, time=30),
    Message('note_on', channel=9, note=35, velocity=126, time=210),
    Message('note_on', channel=9, note=46, velocity=126, time=0),
    Message('note_on', channel=9, note=46, velocity=0, time=30),
    Message('note_on', channel=9, note=35, velocity=0, time=0),
    Message('note_on', channel=9, note=46, velocity=90, time=210),
    Message('note_on', channel=9, note=35, velocity=100, time=0),
    Message('note_on', channel=9, note=35, velocity=0, time=30),
    Message('note_on', channel=9, note=46, velocity=0, time=0),
    Message('note_on', channel=9, note=46, velocity=93, time=210),
    Message('note_on', channel=9, note=38, velocity=127, time=0),
    Message('note_on', channel=9, note=38, velocity=0, time=30),
    Message('note_on', channel=9, note=46, velocity=0, time=0),
    Message('note_on', channel=9, note=46, velocity=94, time=210),
    Message('note_on', channel=9, note=46, velocity=0, time=30),
    Message('note_on', channel=9, note=35, velocity=127, time=210),
    Message('note_on', channel=9, note=46, velocity=127, time=0),
    Message('note_on', channel=9, note=46, velocity=0, time=30),
    Message('note_on', channel=9, note=35, velocity=0, time=0),
    Message('note_on', channel=9, note=35, velocity=123, time=210),
    Message('note_on', channel=9, note=46, velocity=94, time=0),
    Message('note_on', channel=9, note=46, velocity=0, time=30),
    Message('note_on', channel=9, note=35, velocity=0, time=0),
    Message('note_on', channel=9, note=46, velocity=93, time=210),
    Message('note_on', channel=9, note=38, velocity=125, time=0),
    Message('note_on', channel=9, note=38, velocity=0, time=30),
    Message('note_on', channel=9, note=46, velocity=0, time=0),
    Message('note_on', channel=9, note=46, velocity=92, time=210),
    Message('note_on', channel=9, note=46, velocity=0, time=30),
    Message('note_on', channel=9, note=46, velocity=126, time=210),
    Message('note_on', channel=9, note=35, velocity=126, time=0),
    Message('note_on', channel=9, note=35, velocity=0, time=30),
    Message('note_on', channel=9, note=46, velocity=0, time=0),
    Message('note_on', channel=9, note=46, velocity=90, time=210),
    Message('note_on', channel=9, note=35, velocity=100, time=0),
    Message('note_on', channel=9, note=35, velocity=0, time=30),
    Message('note_on', channel=9, note=46, velocity=0, time=0),
    Message('note_on', channel=9, note=38, velocity=127, time=210),
    Message('note_on', channel=9, note=46, velocity=126, time=0),
    Message('note_on', channel=9, note=46, velocity=0, time=30),
    Message('note_on', channel=9, note=38, velocity=0, time=0),
    Message('note_on', channel=9, note=38, velocity=127, time=210),
    Message('note_on', channel=9, note=38, velocity=0, time=30),
    Message('note_on', channel=9, note=38, velocity=127, time=130),
    Message('note_on', channel=9, note=38, velocity=0, time=30),
    Message('note_on', channel=9, note=57, velocity=93, time=50),
    Message('note_on', channel=9, note=46, velocity=127, time=0),
    Message('note_on', channel=9, note=35, velocity=127, time=0),
    Message('note_on', channel=9, note=35, velocity=0, time=30),
    Message('note_on', channel=9, note=46, velocity=0, time=0),
    Message('note_on', channel=9, note=57, velocity=0, time=0),
    Message('note_on', channel=9, note=46, velocity=94, time=210),
    Message('note_on', channel=9, note=35, velocity=123, time=0),
    Message('note_on', channel=9, note=35, velocity=0, time=30),
    Message('note_on', channel=9, note=46, velocity=0, time=0),
    Message('note_on', channel=9, note=49, velocity=93, time=210),
    Message('note_on', channel=9, note=46, velocity=125, time=0),
    Message('note_on', channel=9, note=38, velocity=125, time=0),
    Message('note_on', channel=9, note=38, velocity=0, time=30),
    Message('note_on', channel=9, note=46, velocity=0, time=0),
    Message('note_on', channel=9, note=49, velocity=0, time=0),
    Message('note_on', channel=9, note=46, velocity=92, time=210),
    Message('note_on', channel=9, note=46, velocity=0, time=30),
    Message('note_on', channel=9, note=57, velocity=93, time=210),
    Message('note_on', channel=9, note=35, velocity=126, time=0),
    Message('note_on', channel=9, note=46, velocity=126, time=0),
    Message('note_on', channel=9, note=46, velocity=0, time=30),
    Message('note_on', channel=9, note=35, velocity=0, time=0),
    Message('note_on', channel=9, note=57, velocity=0, time=0),
    Message('note_on', channel=9, note=46, velocity=90, time=210),
    Message('note_on', channel=9, note=35, velocity=100, time=0),
    Message('note_on', channel=9, note=35, velocity=0, time=30),
    Message('note_on', channel=9, note=46, velocity=0, time=0),
    Message('note_on', channel=9, note=49, velocity=93, time=210),
    Message('note_on', channel=9, note=46, velocity=126, time=0),
    Message('note_on', channel=9, note=38, velocity=127, time=0),
    Message('note_on', channel=9, note=38, velocity=0, time=30),
    Message('note_on', channel=9, note=46, velocity=0, time=0),
    Message('note_on', channel=9, note=49, velocity=0, time=0),
    Message('note_on', channel=9, note=46, velocity=94, time=210),
    Message('note_on', channel=9, note=46, velocity=0, time=30),
    Message('note_on', channel=9, note=42, velocity=100, time=130),
    Message('note_on', channel=9, note=42, velocity=0, time=30),
    Message('note_on', channel=9, note=57, velocity=94, time=290),
    Message('note_on', channel=9, note=35, velocity=123, time=0),
    Message('note_on', channel=9, note=35, velocity=0, time=30),
    Message('note_on', channel=9, note=57, velocity=0, time=0),
    Message('note_on', channel=9, note=49, velocity=125, time=210),
    Message('note_on', channel=9, note=38, velocity=125, time=0),
    Message('note_on', channel=9, note=38, velocity=0, time=30),
    Message('note_on', channel=9, note=49, velocity=0, time=0),
    Message('note_on', channel=9, note=35, velocity=126, time=450),
    Message('note_on', channel=9, note=57, velocity=126, time=0),
    Message('note_on', channel=9, note=57, velocity=0, time=30),
    Message('note_on', channel=9, note=35, velocity=0, time=0),
    Message('note_on', channel=9, note=42, velocity=100, time=130),
    Message('note_on', channel=9, note=42, velocity=0, time=30),
    Message('note_on', channel=9, note=42, velocity=90, time=50),
    Message('note_on', channel=9, note=35, velocity=100, time=0),
    Message('note_on', channel=9, note=35, velocity=0, time=30),
    Message('note_on', channel=9, note=42, velocity=0, time=0),
    Message('note_on', channel=9, note=42, velocity=126, time=210),
    Message('note_on', channel=9, note=38, velocity=127, time=0),
    Message('note_on', channel=9, note=38, velocity=0, time=30),
    Message('note_on', channel=9, note=42, velocity=0, time=0),
    Message('note_on', channel=9, note=42, velocity=100, time=130),
    Message('note_on', channel=9, note=42, velocity=0, time=30),
    Message('note_on', channel=9, note=38, velocity=100, time=50),
    Message('note_on', channel=9, note=42, velocity=94, time=0),
    Message('note_on', channel=9, note=42, velocity=0, time=30),
    Message('note_on', channel=9, note=38, velocity=0, time=0),
    Message('note_on', channel=9, note=38, velocity=100, time=50),
    Message('note_on', channel=9, note=38, velocity=0, time=30),
    Message('note_on', channel=9, note=38, velocity=100, time=50),
    Message('note_on', channel=9, note=38, velocity=0, time=30),
    Message('note_on', channel=9, note=35, velocity=127, time=50),
    Message('note_on', channel=9, note=42, velocity=127, time=0),
    Message('note_on', channel=9, note=57, velocity=100, time=0),
    Message('note_on', channel=9, note=57, velocity=0, time=30),
    Message('note_on', channel=9, note=42, velocity=0, time=0),
    Message('note_on', channel=9, note=35, velocity=0, time=0),
    Message('note_on', channel=9, note=42, velocity=100, time=130),
    Message('note_on', channel=9, note=42, velocity=0, time=30),
    Message('note_on', channel=9, note=35, velocity=123, time=50),
    Message('note_on', channel=9, note=42, velocity=94, time=0),
    Message('note_on', channel=9, note=42, velocity=0, time=30),
    Message('note_on', channel=9, note=35, velocity=0, time=0),
    Message('note_on', channel=9, note=49, velocity=100, time=210),
    Message('note_on', channel=9, note=38, velocity=125, time=0),
    Message('note_on', channel=9, note=42, velocity=125, time=0),
    Message('note_on', channel=9, note=42, velocity=0, time=30),
    Message('note_on', channel=9, note=38, velocity=0, time=0),
    Message('note_on', channel=9, note=49, velocity=0, time=0),
    Message('note_on', channel=9, note=42, velocity=100, time=130),
    Message('note_on', channel=9, note=42, velocity=0, time=30),
    Message('note_on', channel=9, note=42, velocity=92, time=50),
    Message('note_on', channel=9, note=42, velocity=0, time=30),
    Message('note_on', channel=9, note=57, velocity=100, time=210),
    Message('note_on', channel=9, note=42, velocity=126, time=0),
    Message('note_on', channel=9, note=35, velocity=126, time=0),
    Message('note_on', channel=9, note=35, velocity=0, time=30),
    Message('note_on', channel=9, note=42, velocity=0, time=0),
    Message('note_on', channel=9, note=57, velocity=0, time=0),
    Message('note_on', channel=9, note=38, velocity=127, time=130),
    Message('note_on', channel=9, note=42, velocity=100, time=0),
    Message('note_on', channel=9, note=42, velocity=0, time=30),
    Message('note_on', channel=9, note=38, velocity=0, time=0),
    Message('note_on', channel=9, note=42, velocity=90, time=50),
    Message('note_on', channel=9, note=35, velocity=100, time=0),
    Message('note_on', channel=9, note=35, velocity=0, time=30),
    Message('note_on', channel=9, note=42, velocity=0, time=0),
    Message('note_on', channel=9, note=49, velocity=93, time=210),
    Message('note_on', channel=9, note=38, velocity=127, time=0),
    Message('note_on', channel=9, note=42, velocity=126, time=0),
    Message('note_on', channel=9, note=42, velocity=0, time=30),
    Message('note_on', channel=9, note=38, velocity=0, time=0),
    Message('note_on', channel=9, note=49, velocity=0, time=0),
    Message('note_on', channel=9, note=42, velocity=100, time=130),
    Message('note_on', channel=9, note=42, velocity=0, time=30),
    Message('note_on', channel=9, note=45, velocity=122, time=50),
    Message('note_on', channel=9, note=45, velocity=0, time=30),
    Message('note_on', channel=9, note=43, velocity=113, time=50),
    Message('note_on', channel=9, note=43, velocity=0, time=30),
    Message('note_on', channel=9, note=41, velocity=116, time=50),
    Message('note_on', channel=9, note=41, velocity=0, time=30),
    Message('note_on', channel=9, note=35, velocity=127, time=50),
    Message('note_on', channel=9, note=49, velocity=105, time=0),
    Message('note_on', channel=9, note=49, velocity=0, time=30),
    Message('note_on', channel=9, note=35, velocity=0, time=0),
    Message('note_on', channel=9, note=42, velocity=80, time=130),
    Message('note_on', channel=9, note=42, velocity=0, time=30),
    Message('note_on', channel=9, note=35, velocity=123, time=50),
    Message('note_on', channel=9, note=42, velocity=94, time=0),
    Message('note_on', channel=9, note=42, velocity=0, time=30),
    Message('note_on', channel=9, note=35, velocity=0, time=0),
    Message('note_on', channel=9, note=42, velocity=83, time=130),
    Message('note_on', channel=9, note=42, velocity=0, time=30),
    Message('note_on', channel=9, note=49, velocity=90, time=50),
    Message('note_on', channel=9, note=38, velocity=125, time=0),
    Message('note_on', channel=9, note=42, velocity=125, time=0),
    Message('note_on', channel=9, note=42, velocity=0, time=30),
    Message('note_on', channel=9, note=38, velocity=0, time=0),
    Message('note_on', channel=9, note=49, velocity=0, time=0),
    Message('note_on', channel=9, note=42, velocity=79, time=130),
    Message('note_on', channel=9, note=42, velocity=0, time=30),
    Message('note_on', channel=9, note=42, velocity=98, time=50),
    Message('note_on', channel=9, note=42, velocity=0, time=30),
    Message('note_on', channel=9, note=42, velocity=83, time=130),
    Message('note_on', channel=9, note=42, velocity=0, time=30),
    Message('note_on', channel=9, note=35, velocity=126, time=50),
    Message('note_on', channel=9, note=42, velocity=126, time=0),
    Message('note_on', channel=9, note=42, velocity=0, time=30),
    Message('note_on', channel=9, note=35, velocity=0, time=0),
    Message('note_on', channel=9, note=42, velocity=83, time=130),
    Message('note_on', channel=9, note=42, velocity=0, time=30),
    Message('note_on', channel=9, note=42, velocity=90, time=50),
    Message('note_on', channel=9, note=35, velocity=100, time=0),
    Message('note_on', channel=9, note=35, velocity=0, time=30),
    Message('note_on', channel=9, note=42, velocity=0, time=0),
    Message('note_on', channel=9, note=42, velocity=80, time=130),
    Message('note_on', channel=9, note=42, velocity=0, time=30),
    Message('note_on', channel=9, note=49, velocity=90, time=50),
    Message('note_on', channel=9, note=38, velocity=127, time=0),
    Message('note_on', channel=9, note=42, velocity=126, time=0),
    Message('note_on', channel=9, note=42, velocity=0, time=30),
    Message('note_on', channel=9, note=38, velocity=0, time=0),
    Message('note_on', channel=9, note=49, velocity=0, time=0),
    Message('note_on', channel=9, note=42, velocity=83, time=130),
    Message('note_on', channel=9, note=42, velocity=0, time=30),
    Message('note_on', channel=9, note=42, velocity=105, time=50),
    Message('note_on', channel=9, note=42, velocity=0, time=30),
    Message('note_on', channel=9, note=42, velocity=83, time=130),
    Message('note_on', channel=9, note=42, velocity=0, time=30),
    Message('note_on', channel=9, note=35, velocity=127, time=50),
    Message('note_on', channel=9, note=42, velocity=127, time=0),
    Message('note_on', channel=9, note=42, velocity=0, time=30),
    Message('note_on', channel=9, note=35, velocity=0, time=0),
    Message('note_on', channel=9, note=42, velocity=100, time=130),
    Message('note_on', channel=9, note=42, velocity=0, time=30),
    Message('note_on', channel=9, note=35, velocity=123, time=50),
    Message('note_on', channel=9, note=42, velocity=94, time=0),
    Message('note_on', channel=9, note=42, velocity=0, time=30),
    Message('note_on', channel=9, note=35, velocity=0, time=0),
    Message('note_on', channel=9, note=42, velocity=83, time=130),
    Message('note_on', channel=9, note=42, velocity=0, time=30),
    Message('note_on', channel=9, note=49, velocity=90, time=50),
    Message('note_on', channel=9, note=38, velocity=125, time=0),
    Message('note_on', channel=9, note=42, velocity=125, time=0),
    Message('note_on', channel=9, note=42, velocity=0, time=30),
    Message('note_on', channel=9, note=38, velocity=0, time=0),
    Message('note_on', channel=9, note=49, velocity=0, time=0),
    Message('note_on', channel=9, note=42, velocity=100, time=130),
    Message('note_on', channel=9, note=42, velocity=0, time=30),
    Message('note_on', channel=9, note=42, velocity=92, time=50),
    Message('note_on', channel=9, note=42, velocity=0, time=30),
    Message('note_on', channel=9, note=42, velocity=100, time=130),
    Message('note_on', channel=9, note=35, velocity=55, time=0),
    Message('note_on', channel=9, note=35, velocity=0, time=30),
    Message('note_on', channel=9, note=42, velocity=0, time=0),
    Message('note_on', channel=9, note=42, velocity=126, time=50),
    Message('note_on', channel=9, note=35, velocity=126, time=0),
    Message('note_on', channel=9, note=35, velocity=0, time=30),
    Message('note_on', channel=9, note=42, velocity=0, time=0),
    Message('note_on', channel=9, note=42, velocity=100, time=130),
    Message('note_on', channel=9, note=42, velocity=0, time=30),
    Message('note_on', channel=9, note=42, velocity=90, time=50),
    Message('note_on', channel=9, note=35, velocity=100, time=0),
    Message('note_on', channel=9, note=35, velocity=0, time=30),
    Message('note_on', channel=9, note=42, velocity=0, time=0),
    Message('note_on', channel=9, note=42, velocity=83, time=130),
    Message('note_on', channel=9, note=42, velocity=0, time=30),
    Message('note_on', channel=9, note=49, velocity=90, time=50),
    Message('note_on', channel=9, note=38, velocity=126, time=0),
    Message('note_on', channel=9, note=42, velocity=126, time=0),
    Message('note_on', channel=9, note=42, velocity=0, time=30),
    Message('note_on', channel=9, note=38, velocity=0, time=0),
    Message('note_on', channel=9, note=49, velocity=0, time=0),
    Message('note_on', channel=9, note=35, velocity=72, time=130),
    Message('note_on', channel=9, note=35, velocity=0, time=30),
    Message('note_on', channel=9, note=38, velocity=105, time=50),
    Message('note_on', channel=9, note=38, velocity=0, time=30),
    Message('note_on', channel=9, note=38, velocity=105, time=130),
    Message('note_on', channel=9, note=38, velocity=0, time=30),
    Message('note_on', channel=9, note=35, velocity=127, time=50),
    Message('note_on', channel=9, note=42, velocity=103, time=0),
    Message('note_on', channel=9, note=42, velocity=0, time=30),
    Message('note_on', channel=9, note=35, velocity=0, time=0),
    Message('note_on', channel=9, note=42, velocity=80, time=130),
    Message('note_on', channel=9, note=42, velocity=0, time=30),
    Message('note_on', channel=9, note=35, velocity=123, time=50),
    Message('note_on', channel=9, note=42, velocity=94, time=0),
    Message('note_on', channel=9, note=42, velocity=0, time=30),
    Message('note_on', channel=9, note=35, velocity=0, time=0),
    Message('note_on', channel=9, note=42, velocity=83, time=130),
    Message('note_on', channel=9, note=42, velocity=0, time=30),
    Message('note_on', channel=9, note=49, velocity=90, time=50),
    Message('note_on', channel=9, note=38, velocity=125, time=0),
    Message('note_on', channel=9, note=42, velocity=125, time=0),
    Message('note_on', channel=9, note=42, velocity=0, time=30),
    Message('note_on', channel=9, note=38, velocity=0, time=0),
    Message('note_on', channel=9, note=49, velocity=0, time=0),
    Message('note_on', channel=9, note=42, velocity=79, time=130),
    Message('note_on', channel=9, note=42, velocity=0, time=30),
    Message('note_on', channel=9, note=42, velocity=98, time=50),
    Message('note_on', channel=9, note=42, velocity=0, time=30),
    Message('note_on', channel=9, note=42, velocity=83, time=130),
    Message('note_on', channel=9, note=42, velocity=0, time=30),
    Message('note_on', channel=9, note=35, velocity=126, time=50),
    Message('note_on', channel=9, note=42, velocity=126, time=0),
    Message('note_on', channel=9, note=42, velocity=0, time=30),
    Message('note_on', channel=9, note=35, velocity=0, time=0),
    Message('note_on', channel=9, note=42, velocity=83, time=130),
    Message('note_on', channel=9, note=42, velocity=0, time=30),
    Message('note_on', channel=9, note=42, velocity=90, time=50),
    Message('note_on', channel=9, note=35, velocity=100, time=0),
    Message('note_on', channel=9, note=35, velocity=0, time=30),
    Message('note_on', channel=9, note=42, velocity=0, time=0),
    Message('note_on', channel=9, note=42, velocity=80, time=130),
    Message('note_on', channel=9, note=42, velocity=0, time=30),
    Message('note_on', channel=9, note=49, velocity=90, time=50),
    Message('note_on', channel=9, note=38, velocity=127, time=0),
    Message('note_on', channel=9, note=42, velocity=126, time=0),
    Message('note_on', channel=9, note=42, velocity=0, time=30),
    Message('note_on', channel=9, note=38, velocity=0, time=0),
    Message('note_on', channel=9, note=49, velocity=0, time=0),
    Message('note_on', channel=9, note=42, velocity=83, time=130),
    Message('note_on', channel=9, note=42, velocity=0, time=30),
    Message('note_on', channel=9, note=42, velocity=105, time=50),
    Message('note_on', channel=9, note=42, velocity=0, time=30),
    Message('note_on', channel=9, note=42, velocity=83, time=130),
    Message('note_on', channel=9, note=42, velocity=0, time=30),
    Message('note_on', channel=9, note=35, velocity=127, time=50),
    Message('note_on', channel=9, note=42, velocity=127, time=0),
    Message('note_on', channel=9, note=42, velocity=0, time=30),
    Message('note_on', channel=9, note=35, velocity=0, time=0),
    Message('note_on', channel=9, note=42, velocity=100, time=130),
    Message('note_on', channel=9, note=42, velocity=0, time=30),
    Message('note_on', channel=9, note=35, velocity=123, time=50),
    Message('note_on', channel=9, note=42, velocity=94, time=0),
    Message('note_on', channel=9, note=42, velocity=0, time=30),
    Message('note_on', channel=9, note=35, velocity=0, time=0),
    Message('note_on', channel=9, note=42, velocity=83, time=130),
    Message('note_on', channel=9, note=42, velocity=0, time=30),
    Message('note_on', channel=9, note=49, velocity=90, time=50),
    Message('note_on', channel=9, note=38, velocity=125, time=0),
    Message('note_on', channel=9, note=42, velocity=125, time=0),
    Message('note_on', channel=9, note=42, velocity=0, time=30),
    Message('note_on', channel=9, note=38, velocity=0, time=0),
    Message('note_on', channel=9, note=49, velocity=0, time=0),
    Message('note_on', channel=9, note=42, velocity=100, time=130),
    Message('note_on', channel=9, note=42, velocity=0, time=30),
    Message('note_on', channel=9, note=42, velocity=92, time=50),
    Message('note_on', channel=9, note=38, velocity=101, time=0),
    Message('note_on', channel=9, note=38, velocity=0, time=30),
    Message('note_on', channel=9, note=42, velocity=0, time=0),
    Message('note_on', channel=9, note=42, velocity=77, time=130),
    Message('note_on', channel=9, note=42, velocity=0, time=30),
    Message('note_on', channel=9, note=42, velocity=126, time=50),
    Message('note_on', channel=9, note=35, velocity=126, time=0),
    Message('note_on', channel=9, note=49, velocity=77, time=0),
    Message('note_on', channel=9, note=49, velocity=0, time=30),
    Message('note_on', channel=9, note=35, velocity=0, time=0),
    Message('note_on', channel=9, note=42, velocity=0, time=0),
    Message('note_on', channel=9, note=42, velocity=100, time=130),
    Message('note_on', channel=9, note=42, velocity=0, time=30),
    Message('note_on', channel=9, note=42, velocity=90, time=50),
    Message('note_on', channel=9, note=35, velocity=100, time=0),
    Message('note_on', channel=9, note=35, velocity=0, time=30),
    Message('note_on', channel=9, note=42, velocity=0, time=0),
    Message('note_on', channel=9, note=42, velocity=83, time=130),
    Message('note_on', channel=9, note=42, velocity=0, time=30),
    Message('note_on', channel=9, note=49, velocity=90, time=50),
    Message('note_on', channel=9, note=38, velocity=126, time=0),
    Message('note_on', channel=9, note=42, velocity=126, time=0),
    Message('note_on', channel=9, note=42, velocity=0, time=30),
    Message('note_on', channel=9, note=38, velocity=0, time=0),
    Message('note_on', channel=9, note=49, velocity=0, time=0),
    Message('note_on', channel=9, note=38, velocity=100, time=130),
    Message('note_on', channel=9, note=38, velocity=0, time=30),
    Message('note_on', channel=9, note=38, velocity=126, time=50),
    Message('note_on', channel=9, note=46, velocity=92, time=0),
    Message('note_on', channel=9, note=46, velocity=0, time=30),
    Message('note_on', channel=9, note=38, velocity=0, time=0),
    Message('note_on', channel=9, note=35, velocity=126, time=130),
    Message('note_on', channel=9, note=49, velocity=127, time=0),
    Message('note_on', channel=9, note=49, velocity=0, time=30),
    Message('note_on', channel=9, note=35, velocity=0, time=0),
    Message('note_on', channel=9, note=45, velocity=100, time=2730),
    Message('note_on', channel=9, note=45, velocity=0, time=30),
    Message('note_on', channel=9, note=43, velocity=100, time=10),
    Message('note_on', channel=9, note=43, velocity=0, time=30),
    Message('note_on', channel=9, note=41, velocity=100, time=10),
    Message('note_on', channel=9, note=41, velocity=0, time=30),
    Message('note_on', channel=9, note=36, velocity=100, time=30),
    Message('note_on', channel=9, note=36, velocity=0, time=30),
    MetaMessage('end_of_track', time=0)]),
  MidiTrack([
    MetaMessage('midi_port', port=0, time=0),
    MetaMessage('channel_prefix', channel=10, time=0),
    Message('program_change', channel=10, program=2, time=0),
    Message('note_on', channel=10, note=65, velocity=118, time=960),
    Message('note_on', channel=10, note=65, velocity=0, time=240),
    Message('note_on', channel=10, note=65, velocity=118, time=0),
    Message('note_on', channel=10, note=65, velocity=0, time=160),
    Message('note_on', channel=10, note=62, velocity=99, time=0),
    Message('note_on', channel=10, note=62, velocity=0, time=80),
    Message('note_on', channel=10, note=65, velocity=109, time=0),
    Message('note_on', channel=10, note=65, velocity=0, time=140),
    Message('note_on', channel=10, note=69, velocity=114, time=20),
    Message('note_on', channel=10, note=69, velocity=0, time=320),
    Message('note_on', channel=10, note=65, velocity=118, time=0),
    Message('note_on', channel=10, note=65, velocity=0, time=240),
    Message('note_on', channel=10, note=65, velocity=118, time=0),
    Message('note_on', channel=10, note=65, velocity=0, time=160),
    Message('note_on', channel=10, note=62, velocity=100, time=0),
    Message('note_on', channel=10, note=62, velocity=0, time=80),
    Message('note_on', channel=10, note=65, velocity=107, time=0),
    Message('note_on', channel=10, note=65, velocity=0, time=140),
    Message('note_on', channel=10, note=69, velocity=115, time=20),
    Message('note_on', channel=10, note=69, velocity=0, time=320),
    Message('note_on', channel=10, note=65, velocity=118, time=0),
    Message('note_on', channel=10, note=65, velocity=0, time=240),
    Message('note_on', channel=10, note=65, velocity=118, time=0),
    Message('note_on', channel=10, note=65, velocity=0, time=160),
    Message('note_on', channel=10, note=62, velocity=104, time=0),
    Message('note_on', channel=10, note=62, velocity=0, time=80),
    Message('note_on', channel=10, note=65, velocity=107, time=0),
    Message('note_on', channel=10, note=65, velocity=0, time=140),
    Message('note_on', channel=10, note=69, velocity=113, time=20),
    Message('note_on', channel=10, note=69, velocity=0, time=320),
    Message('note_on', channel=10, note=65, velocity=118, time=0),
    Message('note_on', channel=10, note=69, velocity=118, time=0),
    Message('note_on', channel=10, note=69, velocity=0, time=480),
    Message('note_on', channel=10, note=65, velocity=0, time=0),
    Message('note_on', channel=10, note=64, velocity=118, time=0),
    Message('note_on', channel=10, note=67, velocity=118, time=0),
    Message('note_on', channel=10, note=67, velocity=0, time=480),
    Message('note_on', channel=10, note=64, velocity=0, time=0),
    Message('note_on', channel=10, note=65, velocity=118, time=0),
    Message('note_on', channel=10, note=65, velocity=0, time=240),
    Message('note_on', channel=10, note=65, velocity=118, time=0),
    Message('note_on', channel=10, note=65, velocity=0, time=160),
    Message('note_on', channel=10, note=62, velocity=99, time=0),
    Message('note_on', channel=10, note=62, velocity=0, time=80),
    Message('note_on', channel=10, note=65, velocity=108, time=0),
    Message('note_on', channel=10, note=65, velocity=0, time=140),
    Message('note_on', channel=10, note=69, velocity=118, time=20),
    Message('note_on', channel=10, note=69, velocity=0, time=320),
    Message('note_on', channel=10, note=65, velocity=118, time=0),
    Message('note_on', channel=10, note=65, velocity=0, time=240),
    Message('note_on', channel=10, note=65, velocity=118, time=0),
    Message('note_on', channel=10, note=65, velocity=0, time=160),
    Message('note_on', channel=10, note=62, velocity=98, time=0),
    Message('note_on', channel=10, note=62, velocity=0, time=80),
    Message('note_on', channel=10, note=65, velocity=106, time=0),
    Message('note_on', channel=10, note=65, velocity=0, time=140),
    Message('note_on', channel=10, note=69, velocity=118, time=20),
    Message('note_on', channel=10, note=69, velocity=0, time=320),
    Message('note_on', channel=10, note=65, velocity=118, time=0),
    Message('note_on', channel=10, note=65, velocity=0, time=240),
    Message('note_on', channel=10, note=65, velocity=118, time=0),
    Message('note_on', channel=10, note=65, velocity=0, time=160),
    Message('note_on', channel=10, note=62, velocity=100, time=0),
    Message('note_on', channel=10, note=62, velocity=0, time=80),
    Message('note_on', channel=10, note=65, velocity=107, time=0),
    Message('note_on', channel=10, note=65, velocity=0, time=140),
    Message('note_on', channel=10, note=69, velocity=118, time=20),
    Message('note_on', channel=10, note=69, velocity=0, time=320),
    Message('note_on', channel=10, note=69, velocity=118, time=0),
    Message('note_on', channel=10, note=69, velocity=0, time=240),
    Message('note_on', channel=10, note=67, velocity=118, time=0),
    Message('note_on', channel=10, note=67, velocity=0, time=160),
    Message('note_on', channel=10, note=65, velocity=118, time=0),
    Message('note_on', channel=10, note=65, velocity=0, time=80),
    Message('note_on', channel=10, note=67, velocity=118, time=0),
    Message('note_on', channel=10, note=67, velocity=0, time=160),
    Message('note_on', channel=10, note=65, velocity=118, time=0),
    Message('note_on', channel=10, note=65, velocity=0, time=80),
    Message('note_on', channel=10, note=62, velocity=118, time=0),
    Message('note_on', channel=10, note=62, velocity=0, time=160),
    Message('note_on', channel=10, note=65, velocity=118, time=0),
    Message('note_on', channel=10, note=65, velocity=0, time=80),
    Message('note_on', channel=10, note=60, velocity=78, time=640),
    Message('note_on', channel=10, note=65, velocity=90, time=0),
    Message('note_on', channel=10, note=60, velocity=0, time=44),
    Message('note_on', channel=10, note=65, velocity=0, time=40),
    Message('note_on', channel=10, note=65, velocity=86, time=486),
    Message('note_on', channel=10, note=63, velocity=86, time=2),
    Message('note_on', channel=10, note=63, velocity=0, time=60),
    Message('note_on', channel=10, note=65, velocity=0, time=20),
    Message('note_on', channel=10, note=63, velocity=90, time=298),
    Message('note_on', channel=10, note=65, velocity=90, time=6),
    Message('note_on', channel=10, note=63, velocity=0, time=74),
    Message('note_on', channel=10, note=65, velocity=0, time=24),
    Message('note_on', channel=10, note=65, velocity=59, time=466),
    Message('note_on', channel=10, note=62, velocity=61, time=12),
    Message('note_on', channel=10, note=65, velocity=0, time=56),
    Message('note_on', channel=10, note=62, velocity=0, time=42),
    Message('note_on', channel=10, note=62, velocity=86, time=290),
    Message('note_on', channel=10, note=65, velocity=90, time=0),
    Message('note_on', channel=10, note=62, velocity=0, time=58),
    Message('note_on', channel=10, note=65, velocity=0, time=12),
    Message('note_on', channel=10, note=65, velocity=70, time=490),
    Message('note_on', channel=10, note=60, velocity=70, time=0),
    Message('note_on', channel=10, note=60, velocity=0, time=70),
    Message('note_on', channel=10, note=65, velocity=0, time=0),
    Message('note_on', channel=10, note=60, velocity=74, time=332),
    Message('note_on', channel=10, note=65, velocity=70, time=2),
    Message('note_on', channel=10, note=60, velocity=0, time=52),
    Message('note_on', channel=10, note=65, velocity=0, time=16),
    Message('note_on', channel=10, note=68, velocity=54, time=248),
    Message('note_on', channel=10, note=68, velocity=0, time=48),
    Message('note_on', channel=10, note=69, velocity=56, time=32),
    Message('note_on', channel=10, note=69, velocity=0, time=72),
    Message('note_on', channel=10, note=72, velocity=90, time=8),
    Message('note_on', channel=10, note=65, velocity=74, time=80),
    Message('note_on', channel=10, note=60, velocity=74, time=0),
    Message('note_on', channel=10, note=60, velocity=0, time=54),
    Message('note_on', channel=10, note=65, velocity=0, time=0),
    Message('note_on', channel=10, note=72, velocity=0, time=22),
    Message('note_on', channel=10, note=60, velocity=75, time=324),
    Message('note_on', channel=10, note=65, velocity=75, time=0),
    Message('note_on', channel=10, note=65, velocity=0, time=66),
    Message('note_on', channel=10, note=60, velocity=0, time=0),
    Message('note_on', channel=10, note=65, velocity=66, time=494),
    Message('note_on', channel=10, note=63, velocity=66, time=6),
    Message('note_on', channel=10, note=65, velocity=0, time=100),
    Message('note_on', channel=10, note=63, velocity=0, time=6),
    Message('note_on', channel=10, note=65, velocity=67, time=278),
    Message('note_on', channel=10, note=63, velocity=67, time=2),
    Message('note_on', channel=10, note=63, velocity=0, time=70),
    Message('note_on', channel=10, note=65, velocity=0, time=2),
    Message('note_on', channel=10, note=62, velocity=54, time=496),
    Message('note_on', channel=10, note=65, velocity=51, time=0),
    Message('note_on', channel=10, note=62, velocity=0, time=60),
    Message('note_on', channel=10, note=65, velocity=0, time=4),
    Message('note_on', channel=10, note=65, velocity=90, time=336),
    Message('note_on', channel=10, note=62, velocity=90, time=0),
    Message('note_on', channel=10, note=62, velocity=0, time=76),
    Message('note_on', channel=10, note=65, velocity=0, time=6),
    Message('note_on', channel=10, note=60, velocity=74, time=478),
    Message('note_on', channel=10, note=65, velocity=74, time=0),
    Message('note_on', channel=10, note=60, velocity=0, time=24),
    Message('note_on', channel=10, note=65, velocity=0, time=10),
    Message('note_on', channel=10, note=65, velocity=94, time=366),
    Message('note_on', channel=10, note=62, velocity=94, time=0),
    Message('note_on', channel=10, note=62, velocity=0, time=52),
    Message('note_on', channel=10, note=65, velocity=0, time=10),
    Message('note_on', channel=10, note=60, velocity=86, time=498),
    Message('note_on', channel=10, note=65, velocity=86, time=0),
    Message('note_on', channel=10, note=65, velocity=0, time=56),
    Message('note_on', channel=10, note=60, velocity=0, time=10),
    Message('note_on', channel=10, note=65, velocity=90, time=334),
    Message('note_on', channel=10, note=60, velocity=58, time=0),
    Message('note_on', channel=10, note=60, velocity=0, time=42),
    Message('note_on', channel=10, note=65, velocity=0, time=20),
    Message('note_on', channel=10, note=65, velocity=103, time=498),
    Message('note_on', channel=10, note=63, velocity=86, time=0),
    Message('note_on', channel=10, note=65, velocity=0, time=44),
    Message('note_on', channel=10, note=63, velocity=0, time=6),
    Message('note_on', channel=10, note=65, velocity=90, time=342),
    Message('note_on', channel=10, note=63, velocity=82, time=6),
    Message('note_on', channel=10, note=63, velocity=0, time=66),
    Message('note_on', channel=10, note=65, velocity=0, time=0),
    Message('note_on', channel=10, note=62, velocity=66, time=496),
    Message('note_on', channel=10, note=65, velocity=82, time=0),
    Message('note_on', channel=10, note=62, velocity=0, time=108),
    Message('note_on', channel=10, note=65, velocity=0, time=12),
    Message('note_on', channel=10, note=65, velocity=86, time=264),
    Message('note_on', channel=10, note=62, velocity=86, time=6),
    Message('note_on', channel=10, note=62, velocity=0, time=74),
    Message('note_on', channel=10, note=65, velocity=0, time=14),
    Message('note_on', channel=10, note=62, velocity=74, time=482),
    Message('note_on', channel=10, note=65, velocity=82, time=0),
    Message('note_on', channel=10, note=62, velocity=0, time=64),
    Message('note_on', channel=10, note=65, velocity=0, time=20),
    Message('note_on', channel=10, note=65, velocity=94, time=318),
    Message('note_on', channel=10, note=62, velocity=82, time=86),
    Message('note_on', channel=10, note=65, velocity=0, time=12),
    Message('note_on', channel=10, note=62, velocity=0, time=60),
    Message('note_on', channel=10, note=60, velocity=94, time=92),
    Message('note_on', channel=10, note=60, velocity=0, time=56),
    Message('note_on', channel=10, note=65, velocity=86, time=252),
    Message('note_on', channel=10, note=60, velocity=86, time=0),
    Message('note_on', channel=10, note=60, velocity=0, time=88),
    Message('note_on', channel=10, note=65, velocity=0, time=0),
    Message('note_on', channel=10, note=65, velocity=82, time=312),
    Message('note_on', channel=10, note=60, velocity=86, time=0),
    Message('note_on', channel=10, note=65, velocity=0, time=70),
    Message('note_on', channel=10, note=60, velocity=0, time=18),
    Message('note_on', channel=10, note=63, velocity=86, time=472),
    Message('note_on', channel=10, note=65, velocity=94, time=4),
    Message('note_on', channel=10, note=65, velocity=0, time=82),
    Message('note_on', channel=10, note=63, velocity=0, time=2),
    Message('note_on', channel=10, note=65, velocity=94, time=306),
    Message('note_on', channel=10, note=63, velocity=86, time=10),
    Message('note_on', channel=10, note=63, velocity=0, time=48),
    Message('note_on', channel=10, note=65, velocity=0, time=8),
    Message('note_on', channel=10, note=65, velocity=90, time=500),
    Message('note_on', channel=10, note=62, velocity=74, time=0),
    Message('note_on', channel=10, note=62, velocity=0, time=58),
    Message('note_on', channel=10, note=65, velocity=0, time=26),
    Message('note_on', channel=10, note=62, velocity=78, time=316),
    Message('note_on', channel=10, note=65, velocity=78, time=0),
    Message('note_on', channel=10, note=65, velocity=0, time=28),
    Message('note_on', channel=10, note=62, velocity=0, time=0),
    Message('note_on', channel=10, note=65, velocity=94, time=540),
    Message('note_on', channel=10, note=62, velocity=94, time=0),
    Message('note_on', channel=10, note=65, velocity=0, time=76),
    Message('note_on', channel=10, note=62, velocity=0, time=8),
    Message('note_on', channel=10, note=60, velocity=90, time=308),
    Message('note_on', channel=10, note=60, velocity=0, time=320),
    Message('note_on', channel=10, note=62, velocity=90, time=0),
    Message('note_on', channel=10, note=58, velocity=90, time=0),
    Message('note_on', channel=10, note=58, velocity=0, time=960),
    Message('note_on', channel=10, note=62, velocity=0, time=0),
    Message('note_on', channel=10, note=64, velocity=90, time=0),
    Message('note_on', channel=10, note=60, velocity=90, time=0),
    Message('note_on', channel=10, note=60, velocity=0, time=960),
    Message('note_on', channel=10, note=64, velocity=0, time=0),
    Message('note_on', channel=10, note=62, velocity=90, time=0),
    Message('note_on', channel=10, note=65, velocity=90, time=0),
    Message('note_on', channel=10, note=65, velocity=0, time=960),
    Message('note_on', channel=10, note=62, velocity=0, time=0),
    Message('note_on', channel=10, note=67, velocity=90, time=0),
    Message('note_on', channel=10, note=64, velocity=90, time=0),
    Message('note_on', channel=10, note=64, velocity=0, time=960),
    Message('note_on', channel=10, note=67, velocity=0, time=0),
    Message('note_on', channel=10, note=53, velocity=94, time=8),
    Message('note_on', channel=10, note=53, velocity=0, time=126),
    Message('note_on', channel=10, note=53, velocity=78, time=82),
    Message('note_on', channel=10, note=60, velocity=86, time=278),
    Message('note_on', channel=10, note=57, velocity=82, time=0),
    Message('note_on', channel=10, note=65, velocity=60, time=2),
    Message('note_on', channel=10, note=53, velocity=0, time=16),
    Message('note_on', channel=10, note=53, velocity=103, time=144),
    Message('note_on', channel=10, note=65, velocity=0, time=42),
    Message('note_on', channel=10, note=57, velocity=0, time=96),
    Message('note_on', channel=10, note=60, velocity=0, time=10),
    Message('note_on', channel=10, note=64, velocity=74, time=94),
    Message('note_on', channel=10, note=53, velocity=0, time=8),
    Message('note_on', channel=10, note=48, velocity=90, time=54),
    Message('note_on', channel=10, note=64, velocity=0, time=8),
    Message('note_on', channel=10, note=48, velocity=0, time=106),
    Message('note_on', channel=10, note=48, velocity=94, time=126),
    Message('note_on', channel=10, note=60, velocity=66, time=240),
    Message('note_on', channel=10, note=55, velocity=82, time=0),
    Message('note_on', channel=10, note=64, velocity=90, time=0),
    Message('note_on', channel=10, note=48, velocity=0, time=456),
    Message('note_on', channel=10, note=55, velocity=0, time=70),
    Message('note_on', channel=10, note=60, velocity=0, time=12),
    Message('note_on', channel=10, note=64, velocity=0, time=24),
    Message('note_on', channel=10, note=46, velocity=82, time=170),
    Message('note_on', channel=10, note=53, velocity=62, time=228),
    Message('note_on', channel=10, note=58, velocity=58, time=0),
    Message('note_on', channel=10, note=62, velocity=94, time=6),
    Message('note_on', channel=10, note=53, velocity=0, time=340),
    Message('note_on', channel=10, note=58, velocity=0, time=22),
    Message('note_on', channel=10, note=46, velocity=0, time=26),
    Message('note_on', channel=10, note=62, velocity=0, time=30),
    Message('note_on', channel=10, note=48, velocity=62, time=36),
    Message('note_on', channel=10, note=48, velocity=0, time=124),
    Message('note_on', channel=10, note=48, velocity=82, time=146),
    Message('note_on', channel=10, note=55, velocity=94, time=230),
    Message('note_on', channel=10, note=64, velocity=90, time=14),
    Message('note_on', channel=10, note=60, velocity=94, time=2),
    Message('note_on', channel=10, note=48, velocity=0, time=32),
    Message('note_on', channel=10, note=48, velocity=103, time=112),
    Message('note_on', channel=10, note=60, velocity=0, time=236),
    Message('note_on', channel=10, note=60, velocity=94, time=4),
    Message('note_on', channel=10, note=60, velocity=0, time=80),
    Message('note_on', channel=10, note=41, velocity=94, time=0),
    Message('note_on', channel=10, note=48, velocity=0, time=36),
    Message('note_on', channel=10, note=55, velocity=0, time=22),
    Message('note_on', channel=10, note=64, velocity=0, time=18),
    Message('note_on', channel=10, note=41, velocity=0, time=18),
    Message('note_on', channel=10, note=41, velocity=94, time=146),
    Message('note_on', channel=10, note=60, velocity=86, time=240),
    Message('note_on', channel=10, note=53, velocity=94, time=0),
    Message('note_on', channel=10, note=57, velocity=103, time=0),
    Message('note_on', channel=10, note=41, velocity=0, time=446),
    Message('note_on', channel=10, note=53, velocity=0, time=22),
    Message('note_on', channel=10, note=57, velocity=0, time=10),
    Message('note_on', channel=10, note=60, velocity=0, time=10),
    Message('note_on', channel=10, note=48, velocity=94, time=4),
    Message('note_on', channel=10, note=48, velocity=0, time=108),
    Message('note_on', channel=10, note=48, velocity=78, time=120),
    Message('note_on', channel=10, note=60, velocity=86, time=240),
    Message('note_on', channel=10, note=64, velocity=90, time=0),
    Message('note_on', channel=10, note=55, velocity=74, time=6),
    Message('note_on', channel=10, note=48, velocity=0, time=66),
    Message('note_on', channel=10, note=48, velocity=50, time=60),
    Message('note_on', channel=10, note=48, velocity=0, time=244),
    Message('note_on', channel=10, note=60, velocity=0, time=4),
    Message('note_on', channel=10, note=55, velocity=0, time=8),
    Message('note_on', channel=10, note=64, velocity=0, time=36),
    Message('note_on', channel=10, note=57, velocity=82, time=56),
    Message('note_on', channel=10, note=50, velocity=82, time=0),
    Message('note_on', channel=10, note=53, velocity=46, time=0),
    Message('note_on', channel=10, note=53, velocity=0, time=480),
    Message('note_on', channel=10, note=50, velocity=0, time=0),
    Message('note_on', channel=10, note=57, velocity=0, time=0),
    Message('note_on', channel=10, note=48, velocity=82, time=0),
    Message('note_on', channel=10, note=52, velocity=46, time=0),
    Message('note_on', channel=10, note=55, velocity=82, time=0),
    Message('note_on', channel=10, note=60, velocity=94, time=400),
    Message('note_on', channel=10, note=60, velocity=0, time=80),
    Message('note_on', channel=10, note=48, velocity=0, time=0),
    Message('note_on', channel=10, note=52, velocity=0, time=0),
    Message('note_on', channel=10, note=55, velocity=0, time=0),
    Message('note_on', channel=10, note=46, velocity=90, time=0),
    Message('note_on', channel=10, note=53, velocity=78, time=0),
    Message('note_on', channel=10, note=50, velocity=74, time=0),
    Message('note_on', channel=10, note=58, velocity=103, time=0),
    Message('note_on', channel=10, note=62, velocity=103, time=0),
    Message('note_on', channel=10, note=50, velocity=0, time=288),
    Message('note_on', channel=10, note=53, velocity=0, time=8),
    Message('note_on', channel=10, note=46, velocity=0, time=72),
    Message('note_on', channel=10, note=62, velocity=0, time=38),
    Message('note_on', channel=10, note=58, velocity=0, time=10),
    Message('note_on', channel=10, note=52, velocity=86, time=64),
    Message('note_on', channel=10, note=48, velocity=78, time=0),
    Message('note_on', channel=10, note=55, velocity=94, time=0),
    Message('note_on', channel=10, note=60, velocity=90, time=0),
    Message('note_on', channel=10, note=60, velocity=0, time=316),
    Message('note_on', channel=10, note=52, velocity=0, time=6),
    Message('note_on', channel=10, note=55, velocity=0, time=2),
    Message('note_on', channel=10, note=48, velocity=0, time=14),
    Message('note_on', channel=10, note=48, velocity=103, time=142),
    Message('note_on', channel=10, note=41, velocity=74, time=0),
    Message('note_on', channel=10, note=45, velocity=103, time=0),
    Message('note_on', channel=10, note=53, velocity=62, time=160),
    Message('note_on', channel=10, note=48, velocity=0, time=20),
    Message('note_on', channel=10, note=53, velocity=0, time=10),
    Message('note_on', channel=10, note=45, velocity=0, time=50),
    Message('note_on', channel=10, note=41, velocity=0, time=0),
    Message('note_on', channel=10, note=48, velocity=62, time=0),
    Message('note_on', channel=10, note=45, velocity=62, time=0),
    Message('note_on', channel=10, note=41, velocity=62, time=0),
    Message('note_on', channel=10, note=41, velocity=0, time=240),
    Message('note_on', channel=10, note=45, velocity=0, time=0),
    Message('note_on', channel=10, note=48, velocity=0, time=0),
    Message('note_on', channel=10, note=57, velocity=90, time=50),
    Message('note_on', channel=10, note=53, velocity=90, time=0),
    Message('note_on', channel=10, note=60, velocity=90, time=4),
    Message('note_on', channel=10, note=53, velocity=0, time=296),
    Message('note_on', channel=10, note=57, velocity=0, time=46),
    Message('note_on', channel=10, note=60, velocity=0, time=20),
    Message('note_on', channel=10, note=48, velocity=70, time=24),
    Message('note_on', channel=10, note=60, velocity=70, time=84),
    Message('note_on', channel=10, note=60, velocity=0, time=54),
    Message('note_on', channel=10, note=48, velocity=0, time=68),
    Message('note_on', channel=10, note=48, velocity=86, time=102),
    Message('note_on', channel=10, note=64, velocity=90, time=214),
    Message('note_on', channel=10, note=60, velocity=90, time=4),
    Message('note_on', channel=10, note=55, velocity=74, time=4),
    Message('note_on', channel=10, note=48, velocity=0, time=62),
    Message('note_on', channel=10, note=55, velocity=0, time=296),
    Message('note_on', channel=10, note=60, velocity=0, time=4),
    Message('note_on', channel=10, note=64, velocity=0, time=30),
    Message('note_on', channel=10, note=43, velocity=74, time=78),
    Message('note_on', channel=10, note=55, velocity=90, time=0),
    Message('note_on', channel=10, note=58, velocity=112, time=0),
    Message('note_on', channel=10, note=62, velocity=94, time=0),
    Message('note_on', channel=10, note=62, velocity=0, time=442),
    Message('note_on', channel=10, note=58, velocity=0, time=18),
    Message('note_on', channel=10, note=55, velocity=0, time=0),
    Message('note_on', channel=10, note=45, velocity=103, time=20),
    Message('note_on', channel=10, note=53, velocity=82, time=0),
    Message('note_on', channel=10, note=57, velocity=59, time=0),
    Message('note_on', channel=10, note=60, velocity=86, time=0),
    Message('note_on', channel=10, note=43, velocity=0, time=34),
    Message('note_on', channel=10, note=57, velocity=0, time=446),
    Message('note_on', channel=10, note=45, velocity=0, time=0),
    Message('note_on', channel=10, note=53, velocity=0, time=0),
    Message('note_on', channel=10, note=60, velocity=0, time=0),
    Message('note_on', channel=10, note=46, velocity=103, time=0),
    Message('note_on', channel=10, note=53, velocity=70, time=0),
    Message('note_on', channel=10, note=58, velocity=94, time=0),
    Message('note_on', channel=10, note=62, velocity=94, time=0),
    Message('note_on', channel=10, note=57, velocity=74, time=160),
    Message('note_on', channel=10, note=53, velocity=0, time=48),
    Message('note_on', channel=10, note=53, velocity=74, time=32),
    Message('note_on', channel=10, note=57, velocity=0, time=12),
    Message('note_on', channel=10, note=62, velocity=0, time=228),
    Message('note_on', channel=10, note=46, velocity=0, time=0),
    Message('note_on', channel=10, note=58, velocity=0, time=0),
    Message('note_on', channel=10, note=53, velocity=0, time=0),
    Message('note_on', channel=10, note=48, velocity=78, time=0),
    Message('note_on', channel=10, note=55, velocity=70, time=0),
    Message('note_on', channel=10, note=60, velocity=82, time=0),
    Message('note_on', channel=10, note=64, velocity=90, time=0),
    Message('note_on', channel=10, note=64, velocity=0, time=480),
    Message('note_on', channel=10, note=48, velocity=0, time=0),
    Message('note_on', channel=10, note=55, velocity=0, time=0),
    Message('note_on', channel=10, note=60, velocity=0, time=0),
    Message('note_on', channel=10, note=58, velocity=86, time=0),
    Message('note_on', channel=10, note=50, velocity=86, time=0),
    Message('note_on', channel=10, note=53, velocity=86, time=0),
    Message('note_on', channel=10, note=62, velocity=86, time=0),
    Message('note_on', channel=10, note=62, velocity=0, time=480),
    Message('note_on', channel=10, note=58, velocity=0, time=0),
    Message('note_on', channel=10, note=50, velocity=0, time=0),
    Message('note_on', channel=10, note=53, velocity=0, time=0),
    Message('note_on', channel=10, note=55, velocity=112, time=0),
    Message('note_on', channel=10, note=52, velocity=112, time=0),
    Message('note_on', channel=10, note=48, velocity=112, time=0),
    Message('note_on', channel=10, note=60, velocity=94, time=0),
    Message('note_on', channel=10, note=60, velocity=0, time=460),
    Message('note_on', channel=10, note=55, velocity=0, time=0),
    Message('note_on', channel=10, note=52, velocity=0, time=0),
    Message('note_on', channel=10, note=48, velocity=0, time=0),
    Message('note_on', channel=10, note=46, velocity=90, time=40),
    Message('note_on', channel=10, note=62, velocity=82, time=0),
    Message('note_on', channel=10, note=58, velocity=90, time=2),
    Message('note_on', channel=10, note=53, velocity=61, time=0),
    Message('note_on', channel=10, note=50, velocity=86, time=10),
    Message('note_on', channel=10, note=50, velocity=0, time=260),
    Message('note_on', channel=10, note=53, velocity=0, time=34),
    Message('note_on', channel=10, note=58, velocity=0, time=30),
    Message('note_on', channel=10, note=62, velocity=0, time=64),
    Message('note_on', channel=10, note=60, velocity=103, time=70),
    Message('note_on', channel=10, note=64, velocity=94, time=2),
    Message('note_on', channel=10, note=46, velocity=0, time=4),
    Message('note_on', channel=10, note=55, velocity=90, time=0),
    Message('note_on', channel=10, note=48, velocity=103, time=0),
    Message('note_on', channel=10, note=55, velocity=0, time=440),
    Message('note_on', channel=10, note=60, velocity=0, time=2),
    Message('note_on', channel=10, note=48, velocity=0, time=18),
    Message('note_on', channel=10, note=64, velocity=0, time=2),
    Message('note_on', channel=10, note=53, velocity=88, time=2),
    Message('note_on', channel=10, note=65, velocity=111, time=0),
    Message('note_on', channel=10, note=65, velocity=0, time=240),
    Message('note_on', channel=10, note=53, velocity=0, time=0),
    Message('note_on', channel=10, note=60, velocity=84, time=0),
    Message('note_on', channel=10, note=57, velocity=84, time=0),
    Message('note_on', channel=10, note=53, velocity=84, time=0),
    Message('note_on', channel=10, note=65, velocity=110, time=0),
    Message('note_on', channel=10, note=65, velocity=0, time=160),
    Message('note_on', channel=10, note=62, velocity=87, time=0),
    Message('note_on', channel=10, note=62, velocity=0, time=80),
    Message('note_on', channel=10, note=65, velocity=98, time=0),
    Message('note_on', channel=10, note=65, velocity=0, time=140),
    Message('note_on', channel=10, note=69, velocity=107, time=20),
    Message('note_on', channel=10, note=69, velocity=0, time=320),
    Message('note_on', channel=10, note=53, velocity=0, time=0),
    Message('note_on', channel=10, note=57, velocity=0, time=0),
    Message('note_on', channel=10, note=60, velocity=0, time=0),
    Message('note_on', channel=10, note=51, velocity=84, time=0),
    Message('note_on', channel=10, note=65, velocity=106, time=0),
    Message('note_on', channel=10, note=65, velocity=0, time=240),
    Message('note_on', channel=10, note=51, velocity=0, time=0),
    Message('note_on', channel=10, note=58, velocity=84, time=0),
    Message('note_on', channel=10, note=55, velocity=84, time=0),
    Message('note_on', channel=10, note=65, velocity=104, time=0),
    Message('note_on', channel=10, note=51, velocity=84, time=0),
    Message('note_on', channel=10, note=65, velocity=0, time=160),
    Message('note_on', channel=10, note=62, velocity=88, time=0),
    Message('note_on', channel=10, note=62, velocity=0, time=80),
    Message('note_on', channel=10, note=65, velocity=96, time=0),
    Message('note_on', channel=10, note=65, velocity=0, time=140),
    Message('note_on', channel=10, note=69, velocity=111, time=20),
    Message('note_on', channel=10, note=69, velocity=0, time=320),
    Message('note_on', channel=10, note=51, velocity=0, time=0),
    Message('note_on', channel=10, note=55, velocity=0, time=0),
    Message('note_on', channel=10, note=58, velocity=0, time=0),
    Message('note_on', channel=10, note=46, velocity=84, time=0),
    Message('note_on', channel=10, note=65, velocity=111, time=0),
    Message('note_on', channel=10, note=65, velocity=0, time=240),
    Message('note_on', channel=10, note=46, velocity=0, time=0),
    Message('note_on', channel=10, note=50, velocity=84, time=0),
    Message('note_on', channel=10, note=46, velocity=84, time=0),
    Message('note_on', channel=10, note=65, velocity=110, time=0),
    Message('note_on', channel=10, note=53, velocity=84, time=0),
    Message('note_on', channel=10, note=65, velocity=0, time=160),
    Message('note_on', channel=10, note=62, velocity=91, time=0),
    Message('note_on', channel=10, note=62, velocity=0, time=80),
    Message('note_on', channel=10, note=65, velocity=102, time=0),
    Message('note_on', channel=10, note=65, velocity=0, time=140),
    Message('note_on', channel=10, note=69, velocity=113, time=20),
    Message('note_on', channel=10, note=69, velocity=0, time=320),
    Message('note_on', channel=10, note=53, velocity=0, time=0),
    Message('note_on', channel=10, note=46, velocity=0, time=0),
    Message('note_on', channel=10, note=50, velocity=0, time=0),
    Message('note_on', channel=10, note=57, velocity=110, time=0),
    Message('note_on', channel=10, note=69, velocity=110, time=0),
    Message('note_on', channel=10, note=69, velocity=0, time=240),
    Message('note_on', channel=10, note=57, velocity=0, time=0),
    Message('note_on', channel=10, note=55, velocity=108, time=0),
    Message('note_on', channel=10, note=67, velocity=108, time=0),
    Message('note_on', channel=10, note=67, velocity=0, time=160),
    Message('note_on', channel=10, note=55, velocity=0, time=0),
    Message('note_on', channel=10, note=65, velocity=91, time=0),
    Message('note_on', channel=10, note=53, velocity=91, time=0),
    Message('note_on', channel=10, note=53, velocity=0, time=80),
    Message('note_on', channel=10, note=65, velocity=0, time=0),
    Message('note_on', channel=10, note=55, velocity=108, time=0),
    Message('note_on', channel=10, note=67, velocity=108, time=0),
    Message('note_on', channel=10, note=67, velocity=0, time=160),
    Message('note_on', channel=10, note=55, velocity=0, time=0),
    Message('note_on', channel=10, note=65, velocity=90, time=0),
    Message('note_on', channel=10, note=53, velocity=90, time=0),
    Message('note_on', channel=10, note=53, velocity=0, time=80),
    Message('note_on', channel=10, note=65, velocity=0, time=0),
    Message('note_on', channel=10, note=50, velocity=108, time=0),
    Message('note_on', channel=10, note=62, velocity=108, time=0),
    Message('note_on', channel=10, note=62, velocity=0, time=160),
    Message('note_on', channel=10, note=50, velocity=0, time=0),
    Message('note_on', channel=10, note=65, velocity=108, time=0),
    Message('note_on', channel=10, note=53, velocity=108, time=0),
    Message('note_on', channel=10, note=53, velocity=0, time=80),
    Message('note_on', channel=10, note=65, velocity=0, time=0),
    Message('note_on', channel=10, note=60, velocity=78, time=640),
    Message('note_on', channel=10, note=65, velocity=90, time=0),
    Message('note_on', channel=10, note=60, velocity=0, time=44),
    Message('note_on', channel=10, note=65, velocity=0, time=40),
    Message('note_on', channel=10, note=65, velocity=86, time=486),
    Message('note_on', channel=10, note=63, velocity=86, time=2),
    Message('note_on', channel=10, note=63, velocity=0, time=60),
    Message('note_on', channel=10, note=65, velocity=0, time=20),
    Message('note_on', channel=10, note=63, velocity=90, time=298),
    Message('note_on', channel=10, note=65, velocity=90, time=6),
    Message('note_on', channel=10, note=63, velocity=0, time=74),
    Message('note_on', channel=10, note=65, velocity=0, time=24),
    Message('note_on', channel=10, note=65, velocity=59, time=466),
    Message('note_on', channel=10, note=62, velocity=61, time=12),
    Message('note_on', channel=10, note=65, velocity=0, time=56),
    Message('note_on', channel=10, note=62, velocity=0, time=42),
    Message('note_on', channel=10, note=62, velocity=86, time=290),
    Message('note_on', channel=10, note=65, velocity=90, time=0),
    Message('note_on', channel=10, note=62, velocity=0, time=58),
    Message('note_on', channel=10, note=65, velocity=0, time=12),
    Message('note_on', channel=10, note=65, velocity=70, time=490),
    Message('note_on', channel=10, note=60, velocity=70, time=0),
    Message('note_on', channel=10, note=60, velocity=0, time=70),
    Message('note_on', channel=10, note=65, velocity=0, time=0),
    Message('note_on', channel=10, note=60, velocity=74, time=332),
    Message('note_on', channel=10, note=65, velocity=70, time=2),
    Message('note_on', channel=10, note=60, velocity=0, time=52),
    Message('note_on', channel=10, note=65, velocity=0, time=16),
    Message('note_on', channel=10, note=68, velocity=54, time=248),
    Message('note_on', channel=10, note=68, velocity=0, time=48),
    Message('note_on', channel=10, note=69, velocity=56, time=32),
    Message('note_on', channel=10, note=69, velocity=0, time=72),
    Message('note_on', channel=10, note=72, velocity=90, time=8),
    Message('note_on', channel=10, note=65, velocity=74, time=80),
    Message('note_on', channel=10, note=60, velocity=74, time=0),
    Message('note_on', channel=10, note=60, velocity=0, time=54),
    Message('note_on', channel=10, note=65, velocity=0, time=0),
    Message('note_on', channel=10, note=72, velocity=0, time=22),
    Message('note_on', channel=10, note=60, velocity=75, time=324),
    Message('note_on', channel=10, note=65, velocity=75, time=0),
    Message('note_on', channel=10, note=65, velocity=0, time=66),
    Message('note_on', channel=10, note=60, velocity=0, time=0),
    Message('note_on', channel=10, note=65, velocity=66, time=494),
    Message('note_on', channel=10, note=63, velocity=66, time=6),
    Message('note_on', channel=10, note=65, velocity=0, time=100),
    Message('note_on', channel=10, note=63, velocity=0, time=6),
    Message('note_on', channel=10, note=65, velocity=67, time=278),
    Message('note_on', channel=10, note=63, velocity=67, time=2),
    Message('note_on', channel=10, note=63, velocity=0, time=70),
    Message('note_on', channel=10, note=65, velocity=0, time=2),
    Message('note_on', channel=10, note=62, velocity=54, time=496),
    Message('note_on', channel=10, note=65, velocity=51, time=0),
    Message('note_on', channel=10, note=62, velocity=0, time=60),
    Message('note_on', channel=10, note=65, velocity=0, time=4),
    Message('note_on', channel=10, note=65, velocity=90, time=336),
    Message('note_on', channel=10, note=62, velocity=90, time=0),
    Message('note_on', channel=10, note=62, velocity=0, time=76),
    Message('note_on', channel=10, note=65, velocity=0, time=6),
    Message('note_on', channel=10, note=60, velocity=74, time=478),
    Message('note_on', channel=10, note=65, velocity=74, time=0),
    Message('note_on', channel=10, note=60, velocity=0, time=24),
    Message('note_on', channel=10, note=65, velocity=0, time=10),
    Message('note_on', channel=10, note=65, velocity=94, time=366),
    Message('note_on', channel=10, note=62, velocity=94, time=0),
    Message('note_on', channel=10, note=62, velocity=0, time=52),
    Message('note_on', channel=10, note=65, velocity=0, time=10),
    Message('note_on', channel=10, note=60, velocity=86, time=498),
    Message('note_on', channel=10, note=65, velocity=86, time=0),
    Message('note_on', channel=10, note=65, velocity=0, time=56),
    Message('note_on', channel=10, note=60, velocity=0, time=10),
    Message('note_on', channel=10, note=65, velocity=90, time=334),
    Message('note_on', channel=10, note=60, velocity=58, time=0),
    Message('note_on', channel=10, note=60, velocity=0, time=42),
    Message('note_on', channel=10, note=65, velocity=0, time=20),
    Message('note_on', channel=10, note=65, velocity=103, time=498),
    Message('note_on', channel=10, note=63, velocity=86, time=0),
    Message('note_on', channel=10, note=65, velocity=0, time=44),
    Message('note_on', channel=10, note=63, velocity=0, time=6),
    Message('note_on', channel=10, note=65, velocity=90, time=342),
    Message('note_on', channel=10, note=63, velocity=82, time=6),
    Message('note_on', channel=10, note=63, velocity=0, time=66),
    Message('note_on', channel=10, note=65, velocity=0, time=0),
    Message('note_on', channel=10, note=62, velocity=66, time=496),
    Message('note_on', channel=10, note=65, velocity=82, time=0),
    Message('note_on', channel=10, note=62, velocity=0, time=108),
    Message('note_on', channel=10, note=65, velocity=0, time=12),
    Message('note_on', channel=10, note=65, velocity=86, time=264),
    Message('note_on', channel=10, note=62, velocity=86, time=6),
    Message('note_on', channel=10, note=62, velocity=0, time=74),
    Message('note_on', channel=10, note=65, velocity=0, time=14),
    Message('note_on', channel=10, note=62, velocity=74, time=482),
    Message('note_on', channel=10, note=65, velocity=82, time=0),
    Message('note_on', channel=10, note=62, velocity=0, time=64),
    Message('note_on', channel=10, note=65, velocity=0, time=20),
    Message('note_on', channel=10, note=65, velocity=94, time=318),
    Message('note_on', channel=10, note=62, velocity=82, time=86),
    Message('note_on', channel=10, note=65, velocity=0, time=12),
    Message('note_on', channel=10, note=62, velocity=0, time=60),
    Message('note_on', channel=10, note=60, velocity=94, time=92),
    Message('note_on', channel=10, note=60, velocity=0, time=56),
    Message('note_on', channel=10, note=65, velocity=86, time=252),
    Message('note_on', channel=10, note=60, velocity=86, time=0),
    Message('note_on', channel=10, note=60, velocity=0, time=88),
    Message('note_on', channel=10, note=65, velocity=0, time=0),
    Message('note_on', channel=10, note=65, velocity=82, time=312),
    Message('note_on', channel=10, note=60, velocity=86, time=0),
    Message('note_on', channel=10, note=65, velocity=0, time=70),
    Message('note_on', channel=10, note=60, velocity=0, time=18),
    Message('note_on', channel=10, note=63, velocity=86, time=472),
    Message('note_on', channel=10, note=65, velocity=94, time=4),
    Message('note_on', channel=10, note=65, velocity=0, time=82),
    Message('note_on', channel=10, note=63, velocity=0, time=2),
    Message('note_on', channel=10, note=65, velocity=94, time=306),
    Message('note_on', channel=10, note=63, velocity=86, time=10),
    Message('note_on', channel=10, note=63, velocity=0, time=48),
    Message('note_on', channel=10, note=65, velocity=0, time=8),
    Message('note_on', channel=10, note=65, velocity=90, time=500),
    Message('note_on', channel=10, note=62, velocity=74, time=0),
    Message('note_on', channel=10, note=62, velocity=0, time=58),
    Message('note_on', channel=10, note=65, velocity=0, time=26),
    Message('note_on', channel=10, note=62, velocity=78, time=316),
    Message('note_on', channel=10, note=65, velocity=78, time=0),
    Message('note_on', channel=10, note=65, velocity=0, time=28),
    Message('note_on', channel=10, note=62, velocity=0, time=0),
    Message('note_on', channel=10, note=65, velocity=94, time=540),
    Message('note_on', channel=10, note=62, velocity=94, time=0),
    Message('note_on', channel=10, note=65, velocity=0, time=76),
    Message('note_on', channel=10, note=62, velocity=0, time=8),
    Message('note_on', channel=10, note=60, velocity=90, time=308),
    Message('note_on', channel=10, note=60, velocity=0, time=320),
    Message('note_on', channel=10, note=62, velocity=90, time=0),
    Message('note_on', channel=10, note=58, velocity=90, time=0),
    Message('note_on', channel=10, note=58, velocity=0, time=960),
    Message('note_on', channel=10, note=62, velocity=0, time=0),
    Message('note_on', channel=10, note=64, velocity=90, time=0),
    Message('note_on', channel=10, note=60, velocity=90, time=0),
    Message('note_on', channel=10, note=60, velocity=0, time=960),
    Message('note_on', channel=10, note=64, velocity=0, time=0),
    Message('note_on', channel=10, note=62, velocity=90, time=0),
    Message('note_on', channel=10, note=65, velocity=90, time=0),
    Message('note_on', channel=10, note=65, velocity=0, time=960),
    Message('note_on', channel=10, note=62, velocity=0, time=0),
    Message('note_on', channel=10, note=67, velocity=90, time=0),
    Message('note_on', channel=10, note=64, velocity=90, time=0),
    Message('note_on', channel=10, note=64, velocity=0, time=960),
    Message('note_on', channel=10, note=67, velocity=0, time=0),
    Message('note_on', channel=10, note=53, velocity=94, time=8),
    Message('note_on', channel=10, note=53, velocity=0, time=126),
    Message('note_on', channel=10, note=53, velocity=78, time=106),
    Message('note_on', channel=10, note=57, velocity=82, time=240),
    Message('note_on', channel=10, note=60, velocity=86, time=0),
    Message('note_on', channel=10, note=65, velocity=60, time=0),
    Message('note_on', channel=10, note=53, velocity=0, time=56),
    Message('note_on', channel=10, note=53, velocity=103, time=104),
    Message('note_on', channel=10, note=65, velocity=0, time=42),
    Message('note_on', channel=10, note=57, velocity=0, time=98),
    Message('note_on', channel=10, note=60, velocity=0, time=10),
    Message('note_on', channel=10, note=64, velocity=74, time=90),
    Message('note_on', channel=10, note=53, velocity=0, time=10),
    Message('note_on', channel=10, note=64, velocity=0, time=70),
    Message('note_on', channel=10, note=48, velocity=90, time=0),
    Message('note_on', channel=10, note=48, velocity=0, time=114),
    Message('note_on', channel=10, note=48, velocity=94, time=126),
    Message('note_on', channel=10, note=60, velocity=66, time=240),
    Message('note_on', channel=10, note=55, velocity=82, time=0),
    Message('note_on', channel=10, note=64, velocity=90, time=0),
    Message('note_on', channel=10, note=48, velocity=0, time=456),
    Message('note_on', channel=10, note=55, velocity=0, time=70),
    Message('note_on', channel=10, note=60, velocity=0, time=12),
    Message('note_on', channel=10, note=64, velocity=0, time=24),
    Message('note_on', channel=10, note=46, velocity=82, time=170),
    Message('note_on', channel=10, note=53, velocity=62, time=228),
    Message('note_on', channel=10, note=58, velocity=58, time=0),
    Message('note_on', channel=10, note=62, velocity=94, time=6),
    Message('note_on', channel=10, note=53, velocity=0, time=340),
    Message('note_on', channel=10, note=58, velocity=0, time=22),
    Message('note_on', channel=10, note=46, velocity=0, time=26),
    Message('note_on', channel=10, note=62, velocity=0, time=30),
    Message('note_on', channel=10, note=48, velocity=62, time=36),
    Message('note_on', channel=10, note=48, velocity=0, time=124),
    Message('note_on', channel=10, note=48, velocity=82, time=146),
    Message('note_on', channel=10, note=55, velocity=94, time=230),
    Message('note_on', channel=10, note=64, velocity=90, time=14),
    Message('note_on', channel=10, note=60, velocity=94, time=2),
    Message('note_on', channel=10, note=48, velocity=0, time=32),
    Message('note_on', channel=10, note=48, velocity=103, time=112),
    Message('note_on', channel=10, note=60, velocity=0, time=236),
    Message('note_on', channel=10, note=60, velocity=94, time=4),
    Message('note_on', channel=10, note=60, velocity=0, time=80),
    Message('note_on', channel=10, note=41, velocity=94, time=0),
    Message('note_on', channel=10, note=48, velocity=0, time=36),
    Message('note_on', channel=10, note=55, velocity=0, time=22),
    Message('note_on', channel=10, note=64, velocity=0, time=18),
    Message('note_on', channel=10, note=41, velocity=0, time=18),
    Message('note_on', channel=10, note=41, velocity=94, time=146),
    Message('note_on', channel=10, note=60, velocity=86, time=240),
    Message('note_on', channel=10, note=53, velocity=94, time=0),
    Message('note_on', channel=10, note=57, velocity=103, time=0),
    Message('note_on', channel=10, note=41, velocity=0, time=446),
    Message('note_on', channel=10, note=53, velocity=0, time=22),
    Message('note_on', channel=10, note=57, velocity=0, time=10),
    Message('note_on', channel=10, note=60, velocity=0, time=10),
    Message('note_on', channel=10, note=48, velocity=94, time=4),
    Message('note_on', channel=10, note=48, velocity=0, time=108),
    Message('note_on', channel=10, note=48, velocity=78, time=120),
    Message('note_on', channel=10, note=60, velocity=86, time=240),
    Message('note_on', channel=10, note=64, velocity=90, time=0),
    Message('note_on', channel=10, note=55, velocity=74, time=6),
    Message('note_on', channel=10, note=48, velocity=0, time=66),
    Message('note_on', channel=10, note=48, velocity=50, time=60),
    Message('note_on', channel=10, note=48, velocity=0, time=244),
    Message('note_on', channel=10, note=60, velocity=0, time=4),
    Message('note_on', channel=10, note=55, velocity=0, time=8),
    Message('note_on', channel=10, note=64, velocity=0, time=36),
    Message('note_on', channel=10, note=57, velocity=82, time=56),
    Message('note_on', channel=10, note=50, velocity=82, time=0),
    Message('note_on', channel=10, note=53, velocity=46, time=0),
    Message('note_on', channel=10, note=53, velocity=0, time=480),
    Message('note_on', channel=10, note=50, velocity=0, time=0),
    Message('note_on', channel=10, note=57, velocity=0, time=0),
    Message('note_on', channel=10, note=48, velocity=82, time=0),
    Message('note_on', channel=10, note=52, velocity=46, time=0),
    Message('note_on', channel=10, note=55, velocity=82, time=0),
    Message('note_on', channel=10, note=60, velocity=94, time=400),
    Message('note_on', channel=10, note=60, velocity=0, time=80),
    Message('note_on', channel=10, note=48, velocity=0, time=0),
    Message('note_on', channel=10, note=52, velocity=0, time=0),
    Message('note_on', channel=10, note=55, velocity=0, time=0),
    Message('note_on', channel=10, note=46, velocity=90, time=0),
    Message('note_on', channel=10, note=53, velocity=78, time=0),
    Message('note_on', channel=10, note=50, velocity=74, time=0),
    Message('note_on', channel=10, note=58, velocity=103, time=0),
    Message('note_on', channel=10, note=62, velocity=103, time=0),
    Message('note_on', channel=10, note=50, velocity=0, time=288),
    Message('note_on', channel=10, note=53, velocity=0, time=8),
    Message('note_on', channel=10, note=46, velocity=0, time=72),
    Message('note_on', channel=10, note=62, velocity=0, time=38),
    Message('note_on', channel=10, note=58, velocity=0, time=10),
    Message('note_on', channel=10, note=52, velocity=86, time=64),
    Message('note_on', channel=10, note=48, velocity=78, time=0),
    Message('note_on', channel=10, note=55, velocity=94, time=0),
    Message('note_on', channel=10, note=60, velocity=90, time=0),
    Message('note_on', channel=10, note=60, velocity=0, time=316),
    Message('note_on', channel=10, note=52, velocity=0, time=6),
    Message('note_on', channel=10, note=55, velocity=0, time=2),
    Message('note_on', channel=10, note=48, velocity=0, time=14),
    Message('note_on', channel=10, note=57, velocity=103, time=142),
    Message('note_on', channel=10, note=53, velocity=74, time=0),
    Message('note_on', channel=10, note=60, velocity=103, time=0),
    Message('note_on', channel=10, note=60, velocity=0, time=140),
    Message('note_on', channel=10, note=65, velocity=94, time=20),
    Message('note_on', channel=10, note=65, velocity=0, time=80),
    Message('note_on', channel=10, note=53, velocity=0, time=0),
    Message('note_on', channel=10, note=57, velocity=0, time=0),
    Message('note_on', channel=10, note=60, velocity=62, time=0),
    Message('note_on', channel=10, note=57, velocity=62, time=0),
    Message('note_on', channel=10, note=53, velocity=62, time=0),
    Message('note_on', channel=10, note=53, velocity=0, time=240),
    Message('note_on', channel=10, note=57, velocity=0, time=0),
    Message('note_on', channel=10, note=60, velocity=0, time=0),
    Message('note_on', channel=10, note=65, velocity=90, time=0),
    Message('note_on', channel=10, note=57, velocity=90, time=0),
    Message('note_on', channel=10, note=53, velocity=90, time=0),
    Message('note_on', channel=10, note=60, velocity=90, time=20),
    Message('note_on', channel=10, note=60, velocity=0, time=460),
    Message('note_on', channel=10, note=65, velocity=0, time=0),
    Message('note_on', channel=10, note=57, velocity=0, time=0),
    Message('note_on', channel=10, note=53, velocity=0, time=0),
    Message('note_on', channel=10, note=48, velocity=70, time=0),
    Message('note_on', channel=10, note=60, velocity=70, time=44),
    Message('note_on', channel=10, note=60, velocity=0, time=54),
    Message('note_on', channel=10, note=48, velocity=0, time=108),
    Message('note_on', channel=10, note=48, velocity=86, time=34),
    Message('note_on', channel=10, note=64, velocity=90, time=242),
    Message('note_on', channel=10, note=60, velocity=90, time=4),
    Message('note_on', channel=10, note=55, velocity=74, time=4),
    Message('note_on', channel=10, note=48, velocity=0, time=34),
    Message('note_on', channel=10, note=55, velocity=0, time=324),
    Message('note_on', channel=10, note=60, velocity=0, time=4),
    Message('note_on', channel=10, note=64, velocity=0, time=30),
    Message('note_on', channel=10, note=43, velocity=74, time=78),
    Message('note_on', channel=10, note=55, velocity=90, time=0),
    Message('note_on', channel=10, note=58, velocity=112, time=0),
    Message('note_on', channel=10, note=62, velocity=94, time=0),
    Message('note_on', channel=10, note=62, velocity=0, time=442),
    Message('note_on', channel=10, note=58, velocity=0, time=18),
    Message('note_on', channel=10, note=55, velocity=0, time=0),
    Message('note_on', channel=10, note=45, velocity=103, time=20),
    Message('note_on', channel=10, note=53, velocity=82, time=0),
    Message('note_on', channel=10, note=57, velocity=59, time=0),
    Message('note_on', channel=10, note=60, velocity=86, time=0),
    Message('note_on', channel=10, note=43, velocity=0, time=34),
    Message('note_on', channel=10, note=57, velocity=0, time=446),
    Message('note_on', channel=10, note=45, velocity=0, time=0),
    Message('note_on', channel=10, note=53, velocity=0, time=0),
    Message('note_on', channel=10, note=60, velocity=0, time=0),
    Message('note_on', channel=10, note=46, velocity=103, time=0),
    Message('note_on', channel=10, note=53, velocity=70, time=0),
    Message('note_on', channel=10, note=58, velocity=94, time=0),
    Message('note_on', channel=10, note=62, velocity=94, time=0),
    Message('note_on', channel=10, note=62, velocity=0, time=160),
    Message('note_on', channel=10, note=65, velocity=74, time=0),
    Message('note_on', channel=10, note=62, velocity=74, time=80),
    Message('note_on', channel=10, note=65, velocity=0, time=12),
    Message('note_on', channel=10, note=46, velocity=0, time=228),
    Message('note_on', channel=10, note=58, velocity=0, time=0),
    Message('note_on', channel=10, note=53, velocity=0, time=0),
    Message('note_on', channel=10, note=62, velocity=0, time=0),
    Message('note_on', channel=10, note=48, velocity=78, time=0),
    Message('note_on', channel=10, note=55, velocity=70, time=0),
    Message('note_on', channel=10, note=60, velocity=82, time=0),
    Message('note_on', channel=10, note=64, velocity=90, time=0),
    Message('note_on', channel=10, note=64, velocity=0, time=480),
    Message('note_on', channel=10, note=48, velocity=0, time=0),
    Message('note_on', channel=10, note=55, velocity=0, time=0),
    Message('note_on', channel=10, note=60, velocity=0, time=0),
    Message('note_on', channel=10, note=62, velocity=86, time=0),
    Message('note_on', channel=10, note=58, velocity=78, time=0),
    Message('note_on', channel=10, note=53, velocity=86, time=0),
    Message('note_on', channel=10, note=50, velocity=86, time=0),
    Message('note_on', channel=10, note=50, velocity=0, time=480),
    Message('note_on', channel=10, note=62, velocity=0, time=0),
    Message('note_on', channel=10, note=58, velocity=0, time=0),
    Message('note_on', channel=10, note=53, velocity=0, time=0),
    Message('note_on', channel=10, note=55, velocity=112, time=0),
    Message('note_on', channel=10, note=52, velocity=112, time=0),
    Message('note_on', channel=10, note=48, velocity=112, time=0),
    Message('note_on', channel=10, note=60, velocity=94, time=0),
    Message('note_on', channel=10, note=60, velocity=0, time=460),
    Message('note_on', channel=10, note=55, velocity=0, time=0),
    Message('note_on', channel=10, note=52, velocity=0, time=0),
    Message('note_on', channel=10, note=48, velocity=0, time=0),
    Message('note_on', channel=10, note=62, velocity=82, time=20),
    Message('note_on', channel=10, note=58, velocity=90, time=0),
    Message('note_on', channel=10, note=53, velocity=61, time=0),
    Message('note_on', channel=10, note=50, velocity=86, time=0),
    Message('note_on', channel=10, note=46, velocity=90, time=0),
    Message('note_on', channel=10, note=50, velocity=0, time=260),
    Message('note_on', channel=10, note=53, velocity=0, time=44),
    Message('note_on', channel=10, note=58, velocity=0, time=30),
    Message('note_on', channel=10, note=62, velocity=0, time=66),
    Message('note_on', channel=10, note=46, velocity=0, time=76),
    Message('note_on', channel=10, note=60, velocity=103, time=14),
    Message('note_on', channel=10, note=64, velocity=94, time=2),
    Message('note_on', channel=10, note=55, velocity=90, time=4),
    Message('note_on', channel=10, note=48, velocity=103, time=0),
    Message('note_on', channel=10, note=55, velocity=0, time=440),
    Message('note_on', channel=10, note=60, velocity=0, time=2),
    Message('note_on', channel=10, note=48, velocity=0, time=18),
    Message('note_on', channel=10, note=64, velocity=0, time=2),
    Message('note_on', channel=10, note=53, velocity=88, time=2),
    Message('note_on', channel=10, note=65, velocity=111, time=0),
    Message('note_on', channel=10, note=65, velocity=0, time=240),
    Message('note_on', channel=10, note=53, velocity=0, time=0),
    Message('note_on', channel=10, note=60, velocity=84, time=0),
    Message('note_on', channel=10, note=57, velocity=84, time=0),
    Message('note_on', channel=10, note=53, velocity=84, time=0),
    Message('note_on', channel=10, note=65, velocity=110, time=0),
    Message('note_on', channel=10, note=65, velocity=0, time=160),
    Message('note_on', channel=10, note=62, velocity=87, time=0),
    Message('note_on', channel=10, note=62, velocity=0, time=80),
    Message('note_on', channel=10, note=65, velocity=98, time=0),
    Message('note_on', channel=10, note=65, velocity=0, time=140),
    Message('note_on', channel=10, note=69, velocity=107, time=20),
    Message('note_on', channel=10, note=69, velocity=0, time=320),
    Message('note_on', channel=10, note=53, velocity=0, time=0),
    Message('note_on', channel=10, note=57, velocity=0, time=0),
    Message('note_on', channel=10, note=60, velocity=0, time=0),
    Message('note_on', channel=10, note=51, velocity=84, time=0),
    Message('note_on', channel=10, note=65, velocity=106, time=0),
    Message('note_on', channel=10, note=65, velocity=0, time=240),
    Message('note_on', channel=10, note=51, velocity=0, time=0),
    Message('note_on', channel=10, note=58, velocity=84, time=0),
    Message('note_on', channel=10, note=55, velocity=84, time=0),
    Message('note_on', channel=10, note=65, velocity=104, time=0),
    Message('note_on', channel=10, note=51, velocity=84, time=0),
    Message('note_on', channel=10, note=65, velocity=0, time=160),
    Message('note_on', channel=10, note=62, velocity=88, time=0),
    Message('note_on', channel=10, note=62, velocity=0, time=80),
    Message('note_on', channel=10, note=65, velocity=96, time=0),
    Message('note_on', channel=10, note=65, velocity=0, time=140),
    Message('note_on', channel=10, note=69, velocity=111, time=20),
    Message('note_on', channel=10, note=69, velocity=0, time=320),
    Message('note_on', channel=10, note=51, velocity=0, time=0),
    Message('note_on', channel=10, note=55, velocity=0, time=0),
    Message('note_on', channel=10, note=58, velocity=0, time=0),
    Message('note_on', channel=10, note=58, velocity=84, time=0),
    Message('note_on', channel=10, note=65, velocity=111, time=0),
    Message('note_on', channel=10, note=65, velocity=0, time=240),
    Message('note_on', channel=10, note=58, velocity=0, time=0),
    Message('note_on', channel=10, note=50, velocity=84, time=0),
    Message('note_on', channel=10, note=58, velocity=84, time=0),
    Message('note_on', channel=10, note=65, velocity=110, time=0),
    Message('note_on', channel=10, note=53, velocity=84, time=0),
    Message('note_on', channel=10, note=65, velocity=0, time=160),
    Message('note_on', channel=10, note=62, velocity=91, time=0),
    Message('note_on', channel=10, note=62, velocity=0, time=80),
    Message('note_on', channel=10, note=65, velocity=102, time=0),
    Message('note_on', channel=10, note=65, velocity=0, time=140),
    Message('note_on', channel=10, note=69, velocity=113, time=20),
    Message('note_on', channel=10, note=69, velocity=0, time=320),
    Message('note_on', channel=10, note=53, velocity=0, time=0),
    Message('note_on', channel=10, note=58, velocity=0, time=0),
    Message('note_on', channel=10, note=50, velocity=0, time=0),
    Message('note_on', channel=10, note=53, velocity=110, time=0),
    Message('note_on', channel=10, note=60, velocity=110, time=0),
    Message('note_on', channel=10, note=65, velocity=110, time=0),
    Message('note_on', channel=10, note=57, velocity=110, time=0),
    Message('note_on', channel=10, note=69, velocity=110, time=0),
    Message('note_on', channel=10, note=69, velocity=0, time=480),
    Message('note_on', channel=10, note=65, velocity=0, time=0),
    Message('note_on', channel=10, note=53, velocity=0, time=0),
    Message('note_on', channel=10, note=60, velocity=0, time=0),
    Message('note_on', channel=10, note=57, velocity=0, time=0),
    Message('note_on', channel=10, note=64, velocity=108, time=0),
    Message('note_on', channel=10, note=60, velocity=108, time=0),
    Message('note_on', channel=10, note=55, velocity=108, time=0),
    Message('note_on', channel=10, note=67, velocity=108, time=0),
    Message('note_on', channel=10, note=67, velocity=0, time=480),
    Message('note_on', channel=10, note=64, velocity=0, time=0),
    Message('note_on', channel=10, note=60, velocity=0, time=0),
    Message('note_on', channel=10, note=55, velocity=0, time=0),
    Message('note_on', channel=10, note=53, velocity=88, time=0),
    Message('note_on', channel=10, note=65, velocity=111, time=0),
    Message('note_on', channel=10, note=65, velocity=0, time=240),
    Message('note_on', channel=10, note=53, velocity=0, time=0),
    Message('note_on', channel=10, note=60, velocity=84, time=0),
    Message('note_on', channel=10, note=57, velocity=84, time=0),
    Message('note_on', channel=10, note=53, velocity=84, time=0),
    Message('note_on', channel=10, note=65, velocity=110, time=0),
    Message('note_on', channel=10, note=65, velocity=0, time=160),
    Message('note_on', channel=10, note=62, velocity=87, time=0),
    Message('note_on', channel=10, note=62, velocity=0, time=80),
    Message('note_on', channel=10, note=65, velocity=98, time=0),
    Message('note_on', channel=10, note=65, velocity=0, time=140),
    Message('note_on', channel=10, note=69, velocity=107, time=20),
    Message('note_on', channel=10, note=69, velocity=0, time=320),
    Message('note_on', channel=10, note=53, velocity=0, time=0),
    Message('note_on', channel=10, note=57, velocity=0, time=0),
    Message('note_on', channel=10, note=60, velocity=0, time=0),
    Message('note_on', channel=10, note=51, velocity=84, time=0),
    Message('note_on', channel=10, note=65, velocity=106, time=0),
    Message('note_on', channel=10, note=65, velocity=0, time=240),
    Message('note_on', channel=10, note=51, velocity=0, time=0),
    Message('note_on', channel=10, note=58, velocity=84, time=0),
    Message('note_on', channel=10, note=55, velocity=84, time=0),
    Message('note_on', channel=10, note=65, velocity=104, time=0),
    Message('note_on', channel=10, note=51, velocity=84, time=0),
    Message('note_on', channel=10, note=65, velocity=0, time=160),
    Message('note_on', channel=10, note=62, velocity=88, time=0),
    Message('note_on', channel=10, note=62, velocity=0, time=80),
    Message('note_on', channel=10, note=65, velocity=96, time=0),
    Message('note_on', channel=10, note=65, velocity=0, time=140),
    Message('note_on', channel=10, note=69, velocity=111, time=20),
    Message('note_on', channel=10, note=69, velocity=0, time=320),
    Message('note_on', channel=10, note=51, velocity=0, time=0),
    Message('note_on', channel=10, note=55, velocity=0, time=0),
    Message('note_on', channel=10, note=58, velocity=0, time=0),
    Message('note_on', channel=10, note=46, velocity=84, time=0),
    Message('note_on', channel=10, note=65, velocity=111, time=0),
    Message('note_on', channel=10, note=65, velocity=0, time=240),
    Message('note_on', channel=10, note=46, velocity=0, time=0),
    Message('note_on', channel=10, note=50, velocity=84, time=0),
    Message('note_on', channel=10, note=46, velocity=84, time=0),
    Message('note_on', channel=10, note=65, velocity=110, time=0),
    Message('note_on', channel=10, note=53, velocity=84, time=0),
    Message('note_on', channel=10, note=65, velocity=0, time=160),
    Message('note_on', channel=10, note=62, velocity=91, time=0),
    Message('note_on', channel=10, note=62, velocity=0, time=80),
    Message('note_on', channel=10, note=65, velocity=102, time=0),
    Message('note_on', channel=10, note=65, velocity=0, time=140),
    Message('note_on', channel=10, note=69, velocity=113, time=20),
    Message('note_on', channel=10, note=69, velocity=0, time=320),
    Message('note_on', channel=10, note=53, velocity=0, time=0),
    Message('note_on', channel=10, note=46, velocity=0, time=0),
    Message('note_on', channel=10, note=50, velocity=0, time=0),
    Message('note_on', channel=10, note=53, velocity=110, time=0),
    Message('note_on', channel=10, note=60, velocity=110, time=0),
    Message('note_on', channel=10, note=65, velocity=110, time=0),
    Message('note_on', channel=10, note=57, velocity=110, time=0),
    Message('note_on', channel=10, note=69, velocity=110, time=0),
    Message('note_on', channel=10, note=69, velocity=0, time=480),
    Message('note_on', channel=10, note=65, velocity=0, time=0),
    Message('note_on', channel=10, note=53, velocity=0, time=0),
    Message('note_on', channel=10, note=60, velocity=0, time=0),
    Message('note_on', channel=10, note=57, velocity=0, time=0),
    Message('note_on', channel=10, note=64, velocity=108, time=0),
    Message('note_on', channel=10, note=60, velocity=108, time=0),
    Message('note_on', channel=10, note=55, velocity=108, time=0),
    Message('note_on', channel=10, note=67, velocity=108, time=0),
    Message('note_on', channel=10, note=67, velocity=0, time=480),
    Message('note_on', channel=10, note=64, velocity=0, time=0),
    Message('note_on', channel=10, note=60, velocity=0, time=0),
    Message('note_on', channel=10, note=55, velocity=0, time=0),
    Message('note_on', channel=10, note=58, velocity=84, time=0),
    Message('note_on', channel=10, note=50, velocity=84, time=0),
    Message('note_on', channel=10, note=55, velocity=84, time=0),
    Message('note_on', channel=10, note=43, velocity=84, time=0),
    Message('note_on', channel=10, note=43, velocity=0, time=960),
    Message('note_on', channel=10, note=58, velocity=0, time=0),
    Message('note_on', channel=10, note=50, velocity=0, time=0),
    Message('note_on', channel=10, note=55, velocity=0, time=0),
    Message('note_on', channel=10, note=58, velocity=69, time=0),
    Message('note_on', channel=10, note=55, velocity=69, time=0),
    Message('note_on', channel=10, note=50, velocity=69, time=0),
    Message('note_on', channel=10, note=43, velocity=69, time=0),
    Message('note_on', channel=10, note=43, velocity=0, time=100),
    Message('note_on', channel=10, note=58, velocity=0, time=0),
    Message('note_on', channel=10, note=55, velocity=0, time=0),
    Message('note_on', channel=10, note=50, velocity=0, time=0),
    Message('note_on', channel=10, note=55, velocity=84, time=140),
    Message('note_on', channel=10, note=50, velocity=84, time=0),
    Message('note_on', channel=10, note=43, velocity=84, time=0),
    Message('note_on', channel=10, note=58, velocity=84, time=0),
    Message('note_on', channel=10, note=58, velocity=0, time=720),
    Message('note_on', channel=10, note=55, velocity=0, time=0),
    Message('note_on', channel=10, note=50, velocity=0, time=0),
    Message('note_on', channel=10, note=43, velocity=0, time=0),
    Message('note_on', channel=10, note=60, velocity=84, time=0),
    Message('note_on', channel=10, note=57, velocity=84, time=0),
    Message('note_on', channel=10, note=53, velocity=84, time=0),
    Message('note_on', channel=10, note=45, velocity=84, time=0),
    Message('note_on', channel=10, note=45, velocity=0, time=960),
    Message('note_on', channel=10, note=60, velocity=0, time=0),
    Message('note_on', channel=10, note=57, velocity=0, time=0),
    Message('note_on', channel=10, note=53, velocity=0, time=0),
    Message('note_on', channel=10, note=60, velocity=69, time=0),
    Message('note_on', channel=10, note=53, velocity=69, time=0),
    Message('note_on', channel=10, note=45, velocity=69, time=0),
    Message('note_on', channel=10, note=57, velocity=69, time=0),
    Message('note_on', channel=10, note=57, velocity=0, time=100),
    Message('note_on', channel=10, note=60, velocity=0, time=0),
    Message('note_on', channel=10, note=53, velocity=0, time=0),
    Message('note_on', channel=10, note=45, velocity=0, time=0),
    Message('note_on', channel=10, note=60, velocity=84, time=140),
    Message('note_on', channel=10, note=57, velocity=84, time=0),
    Message('note_on', channel=10, note=53, velocity=84, time=0),
    Message('note_on', channel=10, note=45, velocity=84, time=0),
    Message('note_on', channel=10, note=45, velocity=0, time=720),
    Message('note_on', channel=10, note=60, velocity=0, time=0),
    Message('note_on', channel=10, note=57, velocity=0, time=0),
    Message('note_on', channel=10, note=53, velocity=0, time=0),
    Message('note_on', channel=10, note=62, velocity=84, time=0),
    Message('note_on', channel=10, note=58, velocity=84, time=0),
    Message('note_on', channel=10, note=53, velocity=84, time=0),
    Message('note_on', channel=10, note=46, velocity=84, time=0),
    Message('note_on', channel=10, note=46, velocity=0, time=960),
    Message('note_on', channel=10, note=62, velocity=0, time=0),
    Message('note_on', channel=10, note=58, velocity=0, time=0),
    Message('note_on', channel=10, note=53, velocity=0, time=0),
    Message('note_on', channel=10, note=62, velocity=69, time=0),
    Message('note_on', channel=10, note=58, velocity=69, time=0),
    Message('note_on', channel=10, note=53, velocity=69, time=0),
    Message('note_on', channel=10, note=46, velocity=69, time=0),
    Message('note_on', channel=10, note=46, velocity=0, time=100),
    Message('note_on', channel=10, note=62, velocity=0, time=0),
    Message('note_on', channel=10, note=58, velocity=0, time=0),
    Message('note_on', channel=10, note=53, velocity=0, time=0),
    Message('note_on', channel=10, note=46, velocity=84, time=140),
    Message('note_on', channel=10, note=53, velocity=84, time=0),
    Message('note_on', channel=10, note=58, velocity=84, time=0),
    Message('note_on', channel=10, note=62, velocity=84, time=0),
    Message('note_on', channel=10, note=62, velocity=0, time=720),
    Message('note_on', channel=10, note=46, velocity=0, time=0),
    Message('note_on', channel=10, note=53, velocity=0, time=0),
    Message('note_on', channel=10, note=58, velocity=0, time=0),
    Message('note_on', channel=10, note=64, velocity=84, time=0),
    Message('note_on', channel=10, note=60, velocity=84, time=0),
    Message('note_on', channel=10, note=55, velocity=84, time=0),
    Message('note_on', channel=10, note=48, velocity=84, time=0),
    Message('note_on', channel=10, note=48, velocity=0, time=960),
    Message('note_on', channel=10, note=64, velocity=0, time=0),
    Message('note_on', channel=10, note=60, velocity=0, time=0),
    Message('note_on', channel=10, note=55, velocity=0, time=0),
    Message('note_on', channel=10, note=64, velocity=69, time=0),
    Message('note_on', channel=10, note=60, velocity=69, time=0),
    Message('note_on', channel=10, note=55, velocity=69, time=0),
    Message('note_on', channel=10, note=48, velocity=69, time=0),
    Message('note_on', channel=10, note=48, velocity=0, time=100),
    Message('note_on', channel=10, note=64, velocity=0, time=0),
    Message('note_on', channel=10, note=60, velocity=0, time=0),
    Message('note_on', channel=10, note=55, velocity=0, time=0),
    Message('note_on', channel=10, note=64, velocity=84, time=140),
    Message('note_on', channel=10, note=60, velocity=84, time=0),
    Message('note_on', channel=10, note=55, velocity=84, time=0),
    Message('note_on', channel=10, note=48, velocity=84, time=0),
    Message('note_on', channel=10, note=48, velocity=0, time=720),
    Message('note_on', channel=10, note=64, velocity=0, time=0),
    Message('note_on', channel=10, note=60, velocity=0, time=0),
    Message('note_on', channel=10, note=55, velocity=0, time=0),
    Message('note_on', channel=10, note=57, velocity=94, time=0),
    Message('note_on', channel=10, note=53, velocity=94, time=0),
    Message('note_on', channel=10, note=60, velocity=94, time=0),
    Message('note_on', channel=10, note=60, velocity=0, time=126),
    Message('note_on', channel=10, note=53, velocity=0, time=0),
    Message('note_on', channel=10, note=57, velocity=0, time=0),
    Message('note_on', channel=10, note=53, velocity=78, time=34),
    Message('note_on', channel=10, note=57, velocity=94, time=0),
    Message('note_on', channel=10, note=60, velocity=94, time=0),
    Message('note_on', channel=10, note=60, velocity=0, time=80),
    Message('note_on', channel=10, note=57, velocity=0, time=0),
    Message('note_on', channel=10, note=53, velocity=0, time=0),
    Message('note_on', channel=10, note=64, velocity=74, time=658),
    Message('note_on', channel=10, note=48, velocity=90, time=62),
    Message('note_on', channel=10, note=55, velocity=82, time=0),
    Message('note_on', channel=10, note=60, velocity=66, time=0),
    Message('note_on', channel=10, note=64, velocity=0, time=8),
    Message('note_on', channel=10, note=60, velocity=0, time=92),
    Message('note_on', channel=10, note=55, velocity=0, time=0),
    Message('note_on', channel=10, note=48, velocity=0, time=14),
    Message('note_on', channel=10, note=48, velocity=66, time=46),
    Message('note_on', channel=10, note=55, velocity=66, time=0),
    Message('note_on', channel=10, note=60, velocity=66, time=0),
    Message('note_on', channel=10, note=60, velocity=0, time=80),
    Message('note_on', channel=10, note=55, velocity=0, time=0),
    Message('note_on', channel=10, note=48, velocity=0, time=0),
    Message('note_on', channel=10, note=62, velocity=82, time=720),
    Message('note_on', channel=10, note=58, velocity=82, time=0),
    Message('note_on', channel=10, note=53, velocity=82, time=0),
    Message('note_on', channel=10, note=46, velocity=82, time=0),
    Message('note_on', channel=10, note=46, velocity=0, time=80),
    Message('note_on', channel=10, note=62, velocity=0, time=0),
    Message('note_on', channel=10, note=58, velocity=0, time=0),
    Message('note_on', channel=10, note=53, velocity=0, time=0),
    Message('note_on', channel=10, note=46, velocity=82, time=80),
    Message('note_on', channel=10, note=53, velocity=82, time=0),
    Message('note_on', channel=10, note=58, velocity=82, time=0),
    Message('note_on', channel=10, note=62, velocity=82, time=0),
    Message('note_on', channel=10, note=62, velocity=0, time=80),
    Message('note_on', channel=10, note=46, velocity=0, time=0),
    Message('note_on', channel=10, note=53, velocity=0, time=0),
    Message('note_on', channel=10, note=58, velocity=0, time=0),
    Message('note_on', channel=10, note=64, velocity=79, time=720),
    Message('note_on', channel=10, note=60, velocity=79, time=0),
    Message('note_on', channel=10, note=55, velocity=79, time=0),
    Message('note_on', channel=10, note=48, velocity=79, time=0),
    Message('note_on', channel=10, note=48, velocity=0, time=80),
    Message('note_on', channel=10, note=64, velocity=0, time=0),
    Message('note_on', channel=10, note=60, velocity=0, time=0),
    Message('note_on', channel=10, note=55, velocity=0, time=0),
    Message('note_on', channel=10, note=64, velocity=79, time=80),
    Message('note_on', channel=10, note=60, velocity=79, time=0),
    Message('note_on', channel=10, note=55, velocity=79, time=0),
    Message('note_on', channel=10, note=48, velocity=79, time=0),
    Message('note_on', channel=10, note=48, velocity=0, time=80),
    Message('note_on', channel=10, note=64, velocity=0, time=0),
    Message('note_on', channel=10, note=60, velocity=0, time=0),
    Message('note_on', channel=10, note=55, velocity=0, time=0),
    Message('note_on', channel=10, note=55, velocity=94, time=240),
    Message('note_on', channel=10, note=64, velocity=90, time=14),
    Message('note_on', channel=10, note=60, velocity=94, time=2),
    Message('note_on', channel=10, note=48, velocity=103, time=144),
    Message('note_on', channel=10, note=60, velocity=0, time=236),
    Message('note_on', channel=10, note=60, velocity=94, time=4),
    Message('note_on', channel=10, note=48, velocity=0, time=40),
    Message('note_on', channel=10, note=55, velocity=0, time=0),
    Message('note_on', channel=10, note=64, velocity=0, time=14),
    Message('note_on', channel=10, note=60, velocity=0, time=26),
    Message('note_on', channel=10, note=57, velocity=103, time=0),
    Message('note_on', channel=10, note=53, velocity=103, time=0),
    Message('note_on', channel=10, note=48, velocity=103, time=0),
    Message('note_on', channel=10, note=41, velocity=94, time=0),
    Message('note_on', channel=10, note=41, velocity=0, time=80),
    Message('note_on', channel=10, note=57, velocity=0, time=0),
    Message('note_on', channel=10, note=53, velocity=0, time=0),
    Message('note_on', channel=10, note=48, velocity=0, time=0),
    Message('note_on', channel=10, note=57, velocity=94, time=80),
    Message('note_on', channel=10, note=53, velocity=94, time=0),
    Message('note_on', channel=10, note=48, velocity=94, time=0),
    Message('note_on', channel=10, note=41, velocity=94, time=0),
    Message('note_on', channel=10, note=41, velocity=0, time=80),
    Message('note_on', channel=10, note=57, velocity=0, time=0),
    Message('note_on', channel=10, note=53, velocity=0, time=0),
    Message('note_on', channel=10, note=48, velocity=0, time=0),
    Message('note_on', channel=10, note=55, velocity=94, time=720),
    Message('note_on', channel=10, note=52, velocity=94, time=0),
    Message('note_on', channel=10, note=48, velocity=94, time=0),
    Message('note_on', channel=10, note=48, velocity=0, time=80),
    Message('note_on', channel=10, note=52, velocity=0, time=0),
    Message('note_on', channel=10, note=55, velocity=0, time=0),
    Message('note_on', channel=10, note=55, velocity=94, time=80),
    Message('note_on', channel=10, note=48, velocity=94, time=0),
    Message('note_on', channel=10, note=52, velocity=94, time=0),
    Message('note_on', channel=10, note=52, velocity=0, time=80),
    Message('note_on', channel=10, note=48, velocity=0, time=0),
    Message('note_on', channel=10, note=55, velocity=0, time=0),
    Message('note_on', channel=10, note=57, velocity=82, time=720),
    Message('note_on', channel=10, note=50, velocity=82, time=0),
    Message('note_on', channel=10, note=53, velocity=46, time=0),
    Message('note_on', channel=10, note=53, velocity=0, time=480),
    Message('note_on', channel=10, note=50, velocity=0, time=0),
    Message('note_on', channel=10, note=57, velocity=0, time=0),
    Message('note_on', channel=10, note=48, velocity=82, time=0),
    Message('note_on', channel=10, note=52, velocity=46, time=0),
    Message('note_on', channel=10, note=55, velocity=82, time=0),
    Message('note_on', channel=10, note=60, velocity=94, time=400),
    Message('note_on', channel=10, note=60, velocity=0, time=80),
    Message('note_on', channel=10, note=48, velocity=0, time=0),
    Message('note_on', channel=10, note=52, velocity=0, time=0),
    Message('note_on', channel=10, note=55, velocity=0, time=0),
    Message('note_on', channel=10, note=46, velocity=90, time=0),
    Message('note_on', channel=10, note=53, velocity=78, time=0),
    Message('note_on', channel=10, note=50, velocity=74, time=0),
    Message('note_on', channel=10, note=58, velocity=103, time=0),
    Message('note_on', channel=10, note=62, velocity=103, time=0),
    Message('note_on', channel=10, note=50, velocity=0, time=288),
    Message('note_on', channel=10, note=53, velocity=0, time=8),
    Message('note_on', channel=10, note=46, velocity=0, time=72),
    Message('note_on', channel=10, note=62, velocity=0, time=38),
    Message('note_on', channel=10, note=58, velocity=0, time=10),
    Message('note_on', channel=10, note=52, velocity=86, time=64),
    Message('note_on', channel=10, note=48, velocity=78, time=0),
    Message('note_on', channel=10, note=55, velocity=94, time=0),
    Message('note_on', channel=10, note=60, velocity=90, time=0),
    Message('note_on', channel=10, note=60, velocity=0, time=316),
    Message('note_on', channel=10, note=52, velocity=0, time=6),
    Message('note_on', channel=10, note=55, velocity=0, time=2),
    Message('note_on', channel=10, note=48, velocity=0, time=14),
    Message('note_on', channel=10, note=48, velocity=103, time=142),
    Message('note_on', channel=10, note=41, velocity=74, time=0),
    Message('note_on', channel=10, note=57, velocity=103, time=0),
    Message('note_on', channel=10, note=53, velocity=62, time=160),
    Message('note_on', channel=10, note=48, velocity=0, time=20),
    Message('note_on', channel=10, note=53, velocity=0, time=10),
    Message('note_on', channel=10, note=57, velocity=0, time=50),
    Message('note_on', channel=10, note=41, velocity=0, time=0),
    Message('note_on', channel=10, note=48, velocity=62, time=0),
    Message('note_on', channel=10, note=57, velocity=62, time=0),
    Message('note_on', channel=10, note=41, velocity=62, time=0),
    Message('note_on', channel=10, note=41, velocity=0, time=240),
    Message('note_on', channel=10, note=57, velocity=0, time=0),
    Message('note_on', channel=10, note=48, velocity=0, time=0),
    Message('note_on', channel=10, note=53, velocity=90, time=0),
    Message('note_on', channel=10, note=57, velocity=90, time=0),
    Message('note_on', channel=10, note=60, velocity=90, time=0),
    Message('note_on', channel=10, note=53, velocity=0, time=300),
    Message('note_on', channel=10, note=57, velocity=0, time=46),
    Message('note_on', channel=10, note=60, velocity=0, time=16),
    Message('note_on', channel=10, note=48, velocity=70, time=78),
    Message('note_on', channel=10, note=60, velocity=70, time=84),
    Message('note_on', channel=10, note=60, velocity=0, time=54),
    Message('note_on', channel=10, note=48, velocity=0, time=68),
    Message('note_on', channel=10, note=48, velocity=86, time=102),
    Message('note_on', channel=10, note=64, velocity=90, time=214),
    Message('note_on', channel=10, note=60, velocity=90, time=4),
    Message('note_on', channel=10, note=55, velocity=74, time=4),
    Message('note_on', channel=10, note=48, velocity=0, time=62),
    Message('note_on', channel=10, note=55, velocity=0, time=296),
    Message('note_on', channel=10, note=60, velocity=0, time=4),
    Message('note_on', channel=10, note=64, velocity=0, time=30),
    Message('note_on', channel=10, note=43, velocity=74, time=78),
    Message('note_on', channel=10, note=55, velocity=90, time=0),
    Message('note_on', channel=10, note=58, velocity=112, time=0),
    Message('note_on', channel=10, note=62, velocity=94, time=0),
    Message('note_on', channel=10, note=62, velocity=0, time=442),
    Message('note_on', channel=10, note=58, velocity=0, time=18),
    Message('note_on', channel=10, note=55, velocity=0, time=0),
    Message('note_on', channel=10, note=45, velocity=103, time=20),
    Message('note_on', channel=10, note=53, velocity=82, time=0),
    Message('note_on', channel=10, note=57, velocity=59, time=0),
    Message('note_on', channel=10, note=60, velocity=86, time=0),
    Message('note_on', channel=10, note=43, velocity=0, time=34),
    Message('note_on', channel=10, note=57, velocity=0, time=446),
    Message('note_on', channel=10, note=45, velocity=0, time=0),
    Message('note_on', channel=10, note=53, velocity=0, time=0),
    Message('note_on', channel=10, note=60, velocity=0, time=0),
    Message('note_on', channel=10, note=46, velocity=103, time=0),
    Message('note_on', channel=10, note=53, velocity=70, time=0),
    Message('note_on', channel=10, note=58, velocity=94, time=0),
    Message('note_on', channel=10, note=62, velocity=94, time=0),
    Message('note_on', channel=10, note=57, velocity=74, time=160),
    Message('note_on', channel=10, note=53, velocity=0, time=48),
    Message('note_on', channel=10, note=53, velocity=74, time=32),
    Message('note_on', channel=10, note=57, velocity=0, time=12),
    Message('note_on', channel=10, note=62, velocity=0, time=228),
    Message('note_on', channel=10, note=46, velocity=0, time=0),
    Message('note_on', channel=10, note=58, velocity=0, time=0),
    Message('note_on', channel=10, note=53, velocity=0, time=0),
    Message('note_on', channel=10, note=48, velocity=78, time=0),
    Message('note_on', channel=10, note=55, velocity=70, time=0),
    Message('note_on', channel=10, note=60, velocity=82, time=0),
    Message('note_on', channel=10, note=64, velocity=90, time=0),
    Message('note_on', channel=10, note=64, velocity=0, time=480),
    Message('note_on', channel=10, note=48, velocity=0, time=0),
    Message('note_on', channel=10, note=55, velocity=0, time=0),
    Message('note_on', channel=10, note=60, velocity=0, time=0),
    Message('note_on', channel=10, note=62, velocity=86, time=0),
    Message('note_on', channel=10, note=58, velocity=78, time=0),
    Message('note_on', channel=10, note=53, velocity=86, time=0),
    Message('note_on', channel=10, note=50, velocity=86, time=0),
    Message('note_on', channel=10, note=50, velocity=0, time=480),
    Message('note_on', channel=10, note=62, velocity=0, time=0),
    Message('note_on', channel=10, note=58, velocity=0, time=0),
    Message('note_on', channel=10, note=53, velocity=0, time=0),
    Message('note_on', channel=10, note=55, velocity=112, time=0),
    Message('note_on', channel=10, note=52, velocity=112, time=0),
    Message('note_on', channel=10, note=48, velocity=112, time=0),
    Message('note_on', channel=10, note=60, velocity=94, time=0),
    Message('note_on', channel=10, note=60, velocity=0, time=460),
    Message('note_on', channel=10, note=55, velocity=0, time=0),
    Message('note_on', channel=10, note=52, velocity=0, time=0),
    Message('note_on', channel=10, note=48, velocity=0, time=0),
    Message('note_on', channel=10, note=58, velocity=90, time=20),
    Message('note_on', channel=10, note=62, velocity=82, time=0),
    Message('note_on', channel=10, note=53, velocity=61, time=0),
    Message('note_on', channel=10, note=50, velocity=86, time=0),
    Message('note_on', channel=10, note=46, velocity=90, time=0),
    Message('note_on', channel=10, note=50, velocity=0, time=260),
    Message('note_on', channel=10, note=53, velocity=0, time=44),
    Message('note_on', channel=10, note=58, velocity=0, time=30),
    Message('note_on', channel=10, note=62, velocity=0, time=66),
    Message('note_on', channel=10, note=46, velocity=0, time=76),
    Message('note_on', channel=10, note=60, velocity=103, time=14),
    Message('note_on', channel=10, note=64, velocity=94, time=2),
    Message('note_on', channel=10, note=55, velocity=90, time=4),
    Message('note_on', channel=10, note=48, velocity=103, time=0),
    Message('note_on', channel=10, note=55, velocity=0, time=440),
    Message('note_on', channel=10, note=60, velocity=0, time=2),
    Message('note_on', channel=10, note=48, velocity=0, time=18),
    Message('note_on', channel=10, note=64, velocity=0, time=2),
    Message('note_on', channel=10, note=50, velocity=86, time=238),
    Message('note_on', channel=10, note=53, velocity=86, time=4),
    Message('note_on', channel=10, note=62, velocity=86, time=0),
    Message('note_on', channel=10, note=58, velocity=78, time=12),
    Message('note_on', channel=10, note=58, velocity=0, time=228),
    Message('note_on', channel=10, note=62, velocity=0, time=0),
    Message('note_on', channel=10, note=53, velocity=0, time=0),
    Message('note_on', channel=10, note=55, velocity=112, time=0),
    Message('note_on', channel=10, note=52, velocity=112, time=0),
    Message('note_on', channel=10, note=48, velocity=112, time=0),
    Message('note_on', channel=10, note=60, velocity=94, time=0),
    Message('note_on', channel=10, note=50, velocity=0, time=16),
    Message('note_on', channel=10, note=48, velocity=0, time=444),
    Message('note_on', channel=10, note=55, velocity=0, time=0),
    Message('note_on', channel=10, note=52, velocity=0, time=0),
    Message('note_on', channel=10, note=60, velocity=0, time=0),
    Message('note_on', channel=10, note=62, velocity=82, time=20),
    Message('note_on', channel=10, note=58, velocity=90, time=0),
    Message('note_on', channel=10, note=53, velocity=61, time=0),
    Message('note_on', channel=10, note=50, velocity=86, time=0),
    Message('note_on', channel=10, note=46, velocity=90, time=0),
    Message('note_on', channel=10, note=50, velocity=0, time=260),
    Message('note_on', channel=10, note=53, velocity=0, time=44),
    Message('note_on', channel=10, note=58, velocity=0, time=30),
    Message('note_on', channel=10, note=62, velocity=0, time=66),
    Message('note_on', channel=10, note=46, velocity=0, time=76),
    Message('note_on', channel=10, note=60, velocity=103, time=14),
    Message('note_on', channel=10, note=64, velocity=94, time=2),
    Message('note_on', channel=10, note=55, velocity=90, time=4),
    Message('note_on', channel=10, note=48, velocity=103, time=0),
    Message('note_on', channel=10, note=55, velocity=0, time=440),
    Message('note_on', channel=10, note=60, velocity=0, time=2),
    Message('note_on', channel=10, note=48, velocity=0, time=18),
    Message('note_on', channel=10, note=64, velocity=0, time=2),
    Message('note_on', channel=10, note=62, velocity=86, time=2),
    Message('note_on', channel=10, note=58, velocity=78, time=0),
    Message('note_on', channel=10, note=53, velocity=86, time=0),
    Message('note_on', channel=10, note=50, velocity=86, time=0),
    Message('note_on', channel=10, note=50, velocity=0, time=480),
    Message('note_on', channel=10, note=62, velocity=0, time=0),
    Message('note_on', channel=10, note=58, velocity=0, time=0),
    Message('note_on', channel=10, note=53, velocity=0, time=0),
    Message('note_on', channel=10, note=55, velocity=112, time=0),
    Message('note_on', channel=10, note=52, velocity=112, time=0),
    Message('note_on', channel=10, note=48, velocity=112, time=0),
    Message('note_on', channel=10, note=60, velocity=94, time=0),
    Message('note_on', channel=10, note=60, velocity=0, time=460),
    Message('note_on', channel=10, note=55, velocity=0, time=0),
    Message('note_on', channel=10, note=52, velocity=0, time=0),
    Message('note_on', channel=10, note=48, velocity=0, time=0),
    Message('note_on', channel=10, note=58, velocity=90, time=20),
    Message('note_on', channel=10, note=62, velocity=82, time=0),
    Message('note_on', channel=10, note=53, velocity=61, time=0),
    Message('note_on', channel=10, note=50, velocity=86, time=0),
    Message('note_on', channel=10, note=46, velocity=90, time=0),
    Message('note_on', channel=10, note=50, velocity=0, time=260),
    Message('note_on', channel=10, note=53, velocity=0, time=44),
    Message('note_on', channel=10, note=58, velocity=0, time=30),
    Message('note_on', channel=10, note=62, velocity=0, time=66),
    Message('note_on', channel=10, note=46, velocity=0, time=76),
    Message('note_on', channel=10, note=60, velocity=103, time=14),
    Message('note_on', channel=10, note=64, velocity=94, time=2),
    Message('note_on', channel=10, note=55, velocity=90, time=4),
    Message('note_on', channel=10, note=48, velocity=103, time=0),
    Message('note_on', channel=10, note=55, velocity=0, time=440),
    Message('note_on', channel=10, note=60, velocity=0, time=2),
    Message('note_on', channel=10, note=48, velocity=0, time=18),
    Message('note_on', channel=10, note=64, velocity=0, time=2),
    Message('note_on', channel=10, note=53, velocity=88, time=2),
    Message('note_on', channel=10, note=65, velocity=111, time=0),
    Message('note_on', channel=10, note=65, velocity=0, time=240),
    Message('note_on', channel=10, note=53, velocity=0, time=0),
    Message('note_on', channel=10, note=60, velocity=84, time=0),
    Message('note_on', channel=10, note=57, velocity=84, time=0),
    Message('note_on', channel=10, note=53, velocity=84, time=0),
    Message('note_on', channel=10, note=65, velocity=110, time=0),
    Message('note_on', channel=10, note=65, velocity=0, time=160),
    Message('note_on', channel=10, note=62, velocity=87, time=0),
    Message('note_on', channel=10, note=62, velocity=0, time=80),
    Message('note_on', channel=10, note=65, velocity=98, time=0),
    Message('note_on', channel=10, note=65, velocity=0, time=140),
    Message('note_on', channel=10, note=69, velocity=107, time=20),
    Message('note_on', channel=10, note=69, velocity=0, time=320),
    Message('note_on', channel=10, note=53, velocity=0, time=0),
    Message('note_on', channel=10, note=57, velocity=0, time=0),
    Message('note_on', channel=10, note=60, velocity=0, time=0),
    Message('note_on', channel=10, note=51, velocity=84, time=0),
    Message('note_on', channel=10, note=65, velocity=106, time=0),
    Message('note_on', channel=10, note=65, velocity=0, time=240),
    Message('note_on', channel=10, note=51, velocity=0, time=0),
    Message('note_on', channel=10, note=58, velocity=84, time=0),
    Message('note_on', channel=10, note=55, velocity=84, time=0),
    Message('note_on', channel=10, note=65, velocity=104, time=0),
    Message('note_on', channel=10, note=51, velocity=84, time=0),
    Message('note_on', channel=10, note=65, velocity=0, time=160),
    Message('note_on', channel=10, note=62, velocity=88, time=0),
    Message('note_on', channel=10, note=62, velocity=0, time=80),
    Message('note_on', channel=10, note=65, velocity=96, time=0),
    Message('note_on', channel=10, note=65, velocity=0, time=140),
    Message('note_on', channel=10, note=69, velocity=111, time=20),
    Message('note_on', channel=10, note=69, velocity=0, time=320),
    Message('note_on', channel=10, note=51, velocity=0, time=0),
    Message('note_on', channel=10, note=55, velocity=0, time=0),
    Message('note_on', channel=10, note=58, velocity=0, time=0),
    Message('note_on', channel=10, note=58, velocity=84, time=0),
    Message('note_on', channel=10, note=65, velocity=111, time=0),
    Message('note_on', channel=10, note=65, velocity=0, time=240),
    Message('note_on', channel=10, note=58, velocity=0, time=0),
    Message('note_on', channel=10, note=50, velocity=84, time=0),
    Message('note_on', channel=10, note=58, velocity=84, time=0),
    Message('note_on', channel=10, note=65, velocity=110, time=0),
    Message('note_on', channel=10, note=53, velocity=84, time=0),
    Message('note_on', channel=10, note=65, velocity=0, time=160),
    Message('note_on', channel=10, note=62, velocity=91, time=0),
    Message('note_on', channel=10, note=62, velocity=0, time=80),
    Message('note_on', channel=10, note=65, velocity=102, time=0),
    Message('note_on', channel=10, note=65, velocity=0, time=140),
    Message('note_on', channel=10, note=69, velocity=113, time=20),
    Message('note_on', channel=10, note=69, velocity=0, time=320),
    Message('note_on', channel=10, note=53, velocity=0, time=0),
    Message('note_on', channel=10, note=58, velocity=0, time=0),
    Message('note_on', channel=10, note=50, velocity=0, time=0),
    Message('note_on', channel=10, note=53, velocity=110, time=0),
    Message('note_on', channel=10, note=60, velocity=110, time=0),
    Message('note_on', channel=10, note=65, velocity=110, time=0),
    Message('note_on', channel=10, note=57, velocity=110, time=0),
    Message('note_on', channel=10, note=69, velocity=110, time=0),
    Message('note_on', channel=10, note=69, velocity=0, time=480),
    Message('note_on', channel=10, note=65, velocity=0, time=0),
    Message('note_on', channel=10, note=53, velocity=0, time=0),
    Message('note_on', channel=10, note=60, velocity=0, time=0),
    Message('note_on', channel=10, note=57, velocity=0, time=0),
    Message('note_on', channel=10, note=64, velocity=108, time=0),
    Message('note_on', channel=10, note=60, velocity=108, time=0),
    Message('note_on', channel=10, note=55, velocity=108, time=0),
    Message('note_on', channel=10, note=67, velocity=108, time=0),
    Message('note_on', channel=10, note=67, velocity=0, time=480),
    Message('note_on', channel=10, note=64, velocity=0, time=0),
    Message('note_on', channel=10, note=60, velocity=0, time=0),
    Message('note_on', channel=10, note=55, velocity=0, time=0),
    Message('note_on', channel=10, note=53, velocity=88, time=0),
    Message('note_on', channel=10, note=65, velocity=111, time=0),
    Message('note_on', channel=10, note=65, velocity=0, time=240),
    Message('note_on', channel=10, note=53, velocity=0, time=0),
    Message('note_on', channel=10, note=60, velocity=84, time=0),
    Message('note_on', channel=10, note=57, velocity=84, time=0),
    Message('note_on', channel=10, note=53, velocity=84, time=0),
    Message('note_on', channel=10, note=65, velocity=110, time=0),
    Message('note_on', channel=10, note=65, velocity=0, time=160),
    Message('note_on', channel=10, note=62, velocity=87, time=0),
    Message('note_on', channel=10, note=62, velocity=0, time=80),
    Message('note_on', channel=10, note=65, velocity=98, time=0),
    Message('note_on', channel=10, note=65, velocity=0, time=140),
    Message('note_on', channel=10, note=69, velocity=107, time=20),
    Message('note_on', channel=10, note=69, velocity=0, time=320),
    Message('note_on', channel=10, note=53, velocity=0, time=0),
    Message('note_on', channel=10, note=57, velocity=0, time=0),
    Message('note_on', channel=10, note=60, velocity=0, time=0),
    Message('note_on', channel=10, note=51, velocity=84, time=0),
    Message('note_on', channel=10, note=65, velocity=106, time=0),
    Message('note_on', channel=10, note=65, velocity=0, time=240),
    Message('note_on', channel=10, note=51, velocity=0, time=0),
    Message('note_on', channel=10, note=58, velocity=84, time=0),
    Message('note_on', channel=10, note=55, velocity=84, time=0),
    Message('note_on', channel=10, note=65, velocity=104, time=0),
    Message('note_on', channel=10, note=51, velocity=84, time=0),
    Message('note_on', channel=10, note=65, velocity=0, time=160),
    Message('note_on', channel=10, note=62, velocity=88, time=0),
    Message('note_on', channel=10, note=62, velocity=0, time=80),
    Message('note_on', channel=10, note=65, velocity=96, time=0),
    Message('note_on', channel=10, note=65, velocity=0, time=140),
    Message('note_on', channel=10, note=69, velocity=111, time=20),
    Message('note_on', channel=10, note=69, velocity=0, time=320),
    Message('note_on', channel=10, note=51, velocity=0, time=0),
    Message('note_on', channel=10, note=55, velocity=0, time=0),
    Message('note_on', channel=10, note=58, velocity=0, time=0),
    Message('note_on', channel=10, note=58, velocity=84, time=0),
    Message('note_on', channel=10, note=65, velocity=111, time=0),
    Message('note_on', channel=10, note=65, velocity=0, time=240),
    Message('note_on', channel=10, note=58, velocity=0, time=0),
    Message('note_on', channel=10, note=50, velocity=84, time=0),
    Message('note_on', channel=10, note=58, velocity=84, time=0),
    Message('note_on', channel=10, note=65, velocity=110, time=0),
    Message('note_on', channel=10, note=53, velocity=84, time=0),
    Message('note_on', channel=10, note=65, velocity=0, time=160),
    Message('note_on', channel=10, note=62, velocity=91, time=0),
    Message('note_on', channel=10, note=62, velocity=0, time=80),
    Message('note_on', channel=10, note=65, velocity=102, time=0),
    Message('note_on', channel=10, note=65, velocity=0, time=140),
    Message('note_on', channel=10, note=69, velocity=113, time=20),
    Message('note_on', channel=10, note=69, velocity=0, time=320),
    Message('note_on', channel=10, note=53, velocity=0, time=0),
    Message('note_on', channel=10, note=58, velocity=0, time=0),
    Message('note_on', channel=10, note=50, velocity=0, time=0),
    Message('note_on', channel=10, note=57, velocity=110, time=0),
    Message('note_on', channel=10, note=69, velocity=110, time=0),
    Message('note_on', channel=10, note=69, velocity=0, time=240),
    Message('note_on', channel=10, note=57, velocity=0, time=0),
    Message('note_on', channel=10, note=55, velocity=108, time=0),
    Message('note_on', channel=10, note=67, velocity=108, time=0),
    Message('note_on', channel=10, note=67, velocity=0, time=160),
    Message('note_on', channel=10, note=55, velocity=0, time=0),
    Message('note_on', channel=10, note=65, velocity=91, time=0),
    Message('note_on', channel=10, note=53, velocity=91, time=0),
    Message('note_on', channel=10, note=53, velocity=0, time=80),
    Message('note_on', channel=10, note=65, velocity=0, time=0),
    Message('note_on', channel=10, note=55, velocity=108, time=0),
    Message('note_on', channel=10, note=67, velocity=108, time=0),
    Message('note_on', channel=10, note=67, velocity=0, time=160),
    Message('note_on', channel=10, note=55, velocity=0, time=0),
    Message('note_on', channel=10, note=65, velocity=90, time=0),
    Message('note_on', channel=10, note=53, velocity=90, time=0),
    Message('note_on', channel=10, note=53, velocity=0, time=80),
    Message('note_on', channel=10, note=65, velocity=0, time=0),
    Message('note_on', channel=10, note=50, velocity=108, time=0),
    Message('note_on', channel=10, note=62, velocity=108, time=0),
    Message('note_on', channel=10, note=62, velocity=0, time=160),
    Message('note_on', channel=10, note=50, velocity=0, time=0),
    Message('note_on', channel=10, note=60, velocity=108, time=0),
    Message('note_on', channel=10, note=65, velocity=108, time=0),
    Message('note_on', channel=10, note=53, velocity=108, time=0),
    Message('note_on', channel=10, note=53, velocity=0, time=2880),
    Message('note_on', channel=10, note=60, velocity=0, time=0),
    Message('note_on', channel=10, note=65, velocity=0, time=20),
    MetaMessage('end_of_track', time=0)])
])
