MidiFile(type=1, ticks_per_beat=480, tracks=[
  MidiTrack([
    UnknownMetaMessage(type_byte=8, data=(76, 105, 103, 104, 116, 32, 101, 109, 32, 85, 112, 0), time=0),
    UnknownMetaMessage(type_byte=10, data=(65, 108, 101, 120, 32, 65, 114, 98, 101, 105, 116, 101, 114, 0), time=0),
    MetaMessage('time_signature', numerator=4, denominator=4, clocks_per_click=24, notated_32nd_notes_per_beat=8, time=0),
    MetaMessage('key_signature', key='F', time=0),
    Message('program_change', channel=0, program=73, time=0),
    Message('control_change', channel=0, control=7, value=100, time=2),
    Message('control_change', channel=0, control=10, value=64, time=2),
    Message('control_change', channel=0, control=91, value=30, time=2),
    Message('control_change', channel=0, control=93, value=30, time=2),
    Message('note_on', channel=0, note=67, velocity=80, time=15112),
    Message('note_on', channel=0, note=67, velocity=0, time=239),
    Message('note_on', channel=0, note=74, velocity=112, time=1),
    Message('note_on', channel=0, note=74, velocity=0, time=7679),
    Message('note_on', channel=0, note=89, velocity=112, time=1),
    Message('note_on', channel=0, note=89, velocity=0, time=239),
    Message('note_on', channel=0, note=89, velocity=112, time=1),
    Message('note_on', channel=0, note=89, velocity=0, time=239),
    Message('note_on', channel=0, note=89, velocity=112, time=1),
    Message('note_on', channel=0, note=89, velocity=0, time=239),
    Message('note_on', channel=0, note=89, velocity=112, time=1),
    Message('note_on', channel=0, note=89, velocity=0, time=239),
    Message('note_on', channel=0, note=89, velocity=112, time=1),
    Message('note_on', channel=0, note=89, velocity=0, time=239),
    Message('note_on', channel=0, note=89, velocity=112, time=1),
    Message('note_on', channel=0, note=89, velocity=0, time=239),
    Message('note_on', channel=0, note=88, velocity=112, time=1),
    Message('note_on', channel=0, note=88, velocity=0, time=239),
    Message('note_on', channel=0, note=86, velocity=112, time=1),
    Message('note_on', channel=0, note=86, velocity=0, time=239),
    Message('note_on', channel=0, note=86, velocity=112, time=961),
    Message('note_on', channel=0, note=86, velocity=0, time=479),
    Message('note_on', channel=0, note=86, velocity=112, time=1),
    Message('note_on', channel=0, note=86, velocity=0, time=239),
    Message('note_on', channel=0, note=88, velocity=112, time=1),
    Message('note_on', channel=0, note=88, velocity=0, time=239),
    Message('note_on', channel=0, note=89, velocity=112, time=1),
    Message('note_on', channel=0, note=89, velocity=0, time=239),
    Message('note_on', channel=0, note=88, velocity=112, time=1),
    Message('note_on', channel=0, note=88, velocity=0, time=239),
    Message('note_on', channel=0, note=86, velocity=112, time=1),
    Message('note_on', channel=0, note=86, velocity=0, time=239),
    Message('note_on', channel=0, note=88, velocity=112, time=1),
    Message('note_on', channel=0, note=88, velocity=0, time=239),
    Message('note_on', channel=0, note=89, velocity=112, time=1),
    Message('note_on', channel=0, note=89, velocity=0, time=239),
    Message('note_on', channel=0, note=88, velocity=112, time=1),
    Message('note_on', channel=0, note=88, velocity=0, time=239),
    Message('note_on', channel=0, note=86, velocity=112, time=1),
    Message('note_on', channel=0, note=86, velocity=0, time=479),
    Message('note_on', channel=0, note=86, velocity=112, time=961),
    Message('note_on', channel=0, note=86, velocity=0, time=479),
    Message('note_on', channel=0, note=86, velocity=112, time=1),
    Message('note_on', channel=0, note=86, velocity=0, time=239),
    Message('note_on', channel=0, note=88, velocity=112, time=1),
    Message('note_on', channel=0, note=88, velocity=0, time=239),
    Message('note_on', channel=0, note=89, velocity=112, time=1),
    Message('note_on', channel=0, note=89, velocity=0, time=239),
    Message('note_on', channel=0, note=88, velocity=112, time=1),
    Message('note_on', channel=0, note=88, velocity=0, time=239),
    Message('note_on', channel=0, note=86, velocity=112, time=1),
    Message('note_on', channel=0, note=86, velocity=0, time=239),
    Message('note_on', channel=0, note=88, velocity=112, time=1),
    Message('note_on', channel=0, note=88, velocity=0, time=239),
    Message('note_on', channel=0, note=89, velocity=112, time=1),
    Message('note_on', channel=0, note=89, velocity=0, time=479),
    Message('note_on', channel=0, note=86, velocity=112, time=1),
    Message('note_on', channel=0, note=86, velocity=0, time=239),
    Message('note_on', channel=0, note=88, velocity=112, time=1),
    Message('note_on', channel=0, note=88, velocity=0, time=239),
    Message('note_on', channel=0, note=89, velocity=112, time=1),
    Message('note_on', channel=0, note=89, velocity=0, time=719),
    Message('note_on', channel=0, note=88, velocity=112, time=1),
    Message('note_on', channel=0, note=88, velocity=0, time=719),
    Message('note_on', channel=0, note=86, velocity=112, time=1),
    Message('note_on', channel=0, note=86, velocity=0, time=239),
    Message('note_on', channel=0, note=88, velocity=112, time=1),
    Message('note_on', channel=0, note=88, velocity=0, time=239),
    Message('note_on', channel=0, note=89, velocity=112, time=1),
    Message('note_on', channel=0, note=89, velocity=0, time=479),
    Message('note_on', channel=0, note=86, velocity=112, time=1),
    Message('note_on', channel=0, note=86, velocity=0, time=239),
    Message('note_on', channel=0, note=88, velocity=112, time=1),
    Message('note_on', channel=0, note=88, velocity=0, time=239),
    Message('note_on', channel=0, note=89, velocity=112, time=1),
    Message('note_on', channel=0, note=89, velocity=0, time=239),
    Message('note_on', channel=0, note=88, velocity=112, time=1),
    Message('note_on', channel=0, note=88, velocity=0, time=239),
    Message('note_on', channel=0, note=86, velocity=112, time=1),
    Message('note_on', channel=0, note=86, velocity=0, time=239),
    Message('note_on', channel=0, note=84, velocity=112, time=1),
    Message('note_on', channel=0, note=84, velocity=0, time=239),
    Message('note_on', channel=0, note=86, velocity=112, time=1),
    Message('note_on', channel=0, note=86, velocity=0, time=1919),
    Message('note_on', channel=0, note=89, velocity=112, time=1),
    Message('note_on', channel=0, note=89, velocity=0, time=239),
    Message('note_on', channel=0, note=89, velocity=112, time=1),
    Message('note_on', channel=0, note=89, velocity=0, time=239),
    Message('note_on', channel=0, note=89, velocity=112, time=1),
    Message('note_on', channel=0, note=89, velocity=0, time=479),
    Message('note_on', channel=0, note=89, velocity=112, time=1),
    Message('note_on', channel=0, note=89, velocity=0, time=239),
    Message('note_on', channel=0, note=89, velocity=112, time=1),
    Message('note_on', channel=0, note=89, velocity=0, time=239),
    Message('note_on', channel=0, note=88, velocity=112, time=1),
    Message('note_on', channel=0, note=88, velocity=0, time=239),
    Message('note_on', channel=0, note=86, velocity=112, time=1),
    Message('note_on', channel=0, note=86, velocity=0, time=239),
    Message('note_on', channel=0, note=86, velocity=112, time=961),
    Message('note_on', channel=0, note=86, velocity=0, time=479),
    Message('note_on', channel=0, note=86, velocity=112, time=1),
    Message('note_on', channel=0, note=86, velocity=0, time=239),
    Message('note_on', channel=0, note=88, velocity=112, time=1),
    Message('note_on', channel=0, note=88, velocity=0, time=239),
    Message('note_on', channel=0, note=89, velocity=112, time=1),
    Message('note_on', channel=0, note=89, velocity=0, time=239),
    Message('note_on', channel=0, note=88, velocity=112, time=1),
    Message('note_on', channel=0, note=88, velocity=0, time=239),
    Message('note_on', channel=0, note=86, velocity=112, time=1),
    Message('note_on', channel=0, note=86, velocity=0, time=239),
    Message('note_on', channel=0, note=88, velocity=112, time=1),
    Message('note_on', channel=0, note=88, velocity=0, time=239),
    Message('note_on', channel=0, note=89, velocity=112, time=1),
    Message('note_on', channel=0, note=89, velocity=0, time=239),
    Message('note_on', channel=0, note=88, velocity=112, time=1),
    Message('note_on', channel=0, note=88, velocity=0, time=239),
    Message('note_on', channel=0, note=86, velocity=112, time=1),
    Message('note_on', channel=0, note=86, velocity=0, time=239),
    Message('note_on', channel=0, note=88, velocity=112, time=1),
    Message('note_on', channel=0, note=88, velocity=0, time=239),
    Message('note_on', channel=0, note=86, velocity=112, time=961),
    Message('note_on', channel=0, note=86, velocity=0, time=479),
    Message('note_on', channel=0, note=86, velocity=112, time=1),
    Message('note_on', channel=0, note=86, velocity=0, time=239),
    Message('note_on', channel=0, note=88, velocity=112, time=1),
    Message('note_on', channel=0, note=88, velocity=0, time=239),
    Message('note_on', channel=0, note=89, velocity=112, time=1),
    Message('note_on', channel=0, note=89, velocity=0, time=239),
    Message('note_on', channel=0, note=88, velocity=112, time=1),
    Message('note_on', channel=0, note=88, velocity=0, time=239),
    Message('note_on', channel=0, note=86, velocity=112, time=1),
    Message('note_on', channel=0, note=86, velocity=0, time=239),
    Message('note_on', channel=0, note=88, velocity=112, time=1),
    Message('note_on', channel=0, note=88, velocity=0, time=239),
    Message('note_on', channel=0, note=89, velocity=112, time=1),
    Message('note_on', channel=0, note=89, velocity=0, time=239),
    Message('note_on', channel=0, note=88, velocity=112, time=1),
    Message('note_on', channel=0, note=88, velocity=0, time=239),
    Message('note_on', channel=0, note=86, velocity=112, time=1),
    Message('note_on', channel=0, note=86, velocity=0, time=479),
    Message('note_on', channel=0, note=89, velocity=112, time=1),
    Message('note_on', channel=0, note=89, velocity=0, time=239),
    Message('note_on', channel=0, note=88, velocity=112, time=1),
    Message('note_on', channel=0, note=88, velocity=0, time=239),
    Message('note_on', channel=0, note=86, velocity=112, time=1),
    Message('note_on', channel=0, note=86, velocity=0, time=479),
    Message('note_on', channel=0, note=89, velocity=112, time=1),
    Message('note_on', channel=0, note=89, velocity=0, time=239),
    Message('note_on', channel=0, note=88, velocity=112, time=1),
    Message('note_on', channel=0, note=88, velocity=0, time=239),
    Message('note_on', channel=0, note=86, velocity=112, time=1),
    Message('note_on', channel=0, note=86, velocity=0, time=479),
    Message('note_on', channel=0, note=89, velocity=112, time=1),
    Message('note_on', channel=0, note=89, velocity=0, time=239),
    Message('note_on', channel=0, note=88, velocity=112, time=1),
    Message('note_on', channel=0, note=88, velocity=0, time=239),
    Message('note_on', channel=0, note=86, velocity=112, time=1),
    Message('note_on', channel=0, note=86, velocity=0, time=239),
    Message('note_on', channel=0, note=88, velocity=112, time=1),
    Message('note_on', channel=0, note=88, velocity=0, time=239),
    Message('note_on', channel=0, note=89, velocity=112, time=1),
    Message('note_on', channel=0, note=89, velocity=0, time=239),
    Message('note_on', channel=0, note=88, velocity=112, time=1),
    Message('note_on', channel=0, note=88, velocity=0, time=239),
    Message('note_on', channel=0, note=86, velocity=112, time=1),
    Message('note_on', channel=0, note=86, velocity=0, time=239),
    Message('note_on', channel=0, note=84, velocity=112, time=1),
    Message('note_on', channel=0, note=84, velocity=0, time=239),
    Message('note_on', channel=0, note=86, velocity=112, time=1),
    Message('note_on', channel=0, note=86, velocity=0, time=1919),
    Message('note_on', channel=0, note=81, velocity=96, time=11521),
    Message('note_on', channel=0, note=81, velocity=0, time=479),
    Message('note_on', channel=0, note=81, velocity=96, time=1),
    Message('note_on', channel=0, note=81, velocity=0, time=479),
    Message('note_on', channel=0, note=81, velocity=96, time=1),
    Message('note_on', channel=0, note=81, velocity=0, time=239),
    Message('note_on', channel=0, note=77, velocity=96, time=1),
    Message('note_on', channel=0, note=77, velocity=0, time=239),
    Message('note_on', channel=0, note=84, velocity=96, time=1),
    Message('note_on', channel=0, note=84, velocity=0, time=239),
    Message('note_on', channel=0, note=86, velocity=96, time=1),
    Message('note_on', channel=0, note=86, velocity=0, time=239),
    Message('note_on', channel=0, note=82, velocity=96, time=1),
    Message('note_on', channel=0, note=82, velocity=0, time=479),
    Message('note_on', channel=0, note=82, velocity=96, time=1),
    Message('note_on', channel=0, note=82, velocity=0, time=479),
    Message('note_on', channel=0, note=82, velocity=96, time=1),
    Message('note_on', channel=0, note=82, velocity=0, time=239),
    Message('note_on', channel=0, note=77, velocity=96, time=1),
    Message('note_on', channel=0, note=77, velocity=0, time=239),
    Message('note_on', channel=0, note=84, velocity=96, time=1),
    Message('note_on', channel=0, note=84, velocity=0, time=239),
    Message('note_on', channel=0, note=86, velocity=96, time=1),
    Message('note_on', channel=0, note=86, velocity=0, time=239),
    Message('note_on', channel=0, note=81, velocity=96, time=1),
    Message('note_on', channel=0, note=81, velocity=0, time=479),
    Message('note_on', channel=0, note=81, velocity=96, time=1),
    Message('note_on', channel=0, note=81, velocity=0, time=479),
    Message('note_on', channel=0, note=81, velocity=96, time=1),
    Message('note_on', channel=0, note=81, velocity=0, time=239),
    Message('note_on', channel=0, note=84, velocity=96, time=1),
    Message('note_on', channel=0, note=84, velocity=0, time=239),
    Message('note_on', channel=0, note=84, velocity=96, time=1),
    Message('note_on', channel=0, note=84, velocity=0, time=239),
    Message('note_on', channel=0, note=81, velocity=96, time=1),
    Message('note_on', channel=0, note=81, velocity=0, time=479),
    Message('note_on', channel=0, note=81, velocity=96, time=1),
    Message('note_on', channel=0, note=81, velocity=0, time=719),
    Message('note_on', channel=0, note=81, velocity=96, time=241),
    Message('note_on', channel=0, note=81, velocity=0, time=239),
    Message('note_on', channel=0, note=84, velocity=96, time=1),
    Message('note_on', channel=0, note=84, velocity=0, time=239),
    Message('note_on', channel=0, note=86, velocity=96, time=1),
    Message('note_on', channel=0, note=86, velocity=0, time=239),
    Message('note_on', channel=0, note=81, velocity=96, time=1),
    Message('note_on', channel=0, note=81, velocity=0, time=479),
    Message('note_on', channel=0, note=81, velocity=96, time=1),
    Message('note_on', channel=0, note=81, velocity=0, time=479),
    Message('note_on', channel=0, note=81, velocity=96, time=1),
    Message('note_on', channel=0, note=81, velocity=0, time=239),
    Message('note_on', channel=0, note=77, velocity=96, time=1),
    Message('note_on', channel=0, note=77, velocity=0, time=239),
    Message('note_on', channel=0, note=84, velocity=96, time=1),
    Message('note_on', channel=0, note=84, velocity=0, time=239),
    Message('note_on', channel=0, note=86, velocity=96, time=1),
    Message('note_on', channel=0, note=86, velocity=0, time=239),
    Message('note_on', channel=0, note=82, velocity=96, time=1),
    Message('note_on', channel=0, note=82, velocity=0, time=479),
    Message('note_on', channel=0, note=82, velocity=96, time=1),
    Message('note_on', channel=0, note=82, velocity=0, time=479),
    Message('note_on', channel=0, note=82, velocity=96, time=1),
    Message('note_on', channel=0, note=82, velocity=0, time=239),
    Message('note_on', channel=0, note=77, velocity=96, time=1),
    Message('note_on', channel=0, note=77, velocity=0, time=239),
    Message('note_on', channel=0, note=84, velocity=96, time=1),
    Message('note_on', channel=0, note=84, velocity=0, time=239),
    Message('note_on', channel=0, note=86, velocity=96, time=1),
    Message('note_on', channel=0, note=86, velocity=0, time=239),
    Message('note_on', channel=0, note=81, velocity=96, time=1),
    Message('note_on', channel=0, note=81, velocity=0, time=479),
    Message('note_on', channel=0, note=81, velocity=96, time=1),
    Message('note_on', channel=0, note=81, velocity=0, time=479),
    Message('note_on', channel=0, note=81, velocity=96, time=1),
    Message('note_on', channel=0, note=81, velocity=0, time=239),
    Message('note_on', channel=0, note=84, velocity=96, time=1),
    Message('note_on', channel=0, note=84, velocity=0, time=239),
    Message('note_on', channel=0, note=84, velocity=96, time=1),
    Message('note_on', channel=0, note=84, velocity=0, time=239),
    Message('note_on', channel=0, note=81, velocity=96, time=1),
    Message('note_on', channel=0, note=81, velocity=0, time=479),
    Message('note_on', channel=0, note=81, velocity=96, time=1),
    Message('note_on', channel=0, note=81, velocity=0, time=719),
    Message('note_on', channel=0, note=81, velocity=96, time=7201),
    Message('note_on', channel=0, note=81, velocity=0, time=239),
    Message('note_on', channel=0, note=81, velocity=96, time=1),
    Message('note_on', channel=0, note=81, velocity=0, time=239),
    Message('note_on', channel=0, note=81, velocity=96, time=1),
    Message('note_on', channel=0, note=81, velocity=0, time=479),
    Message('note_on', channel=0, note=81, velocity=96, time=1),
    Message('note_on', channel=0, note=81, velocity=0, time=479),
    Message('note_on', channel=0, note=81, velocity=96, time=6241),
    Message('note_on', channel=0, note=81, velocity=0, time=239),
    Message('note_on', channel=0, note=81, velocity=96, time=1),
    Message('note_on', channel=0, note=81, velocity=0, time=239),
    Message('note_on', channel=0, note=81, velocity=96, time=1),
    Message('note_on', channel=0, note=81, velocity=0, time=479),
    Message('note_on', channel=0, note=81, velocity=96, time=1),
    Message('note_on', channel=0, note=81, velocity=0, time=479),
    Message('note_on', channel=0, note=74, velocity=96, time=7681),
    Message('note_on', channel=0, note=74, velocity=0, time=719),
    Message('note_on', channel=0, note=81, velocity=96, time=1),
    Message('note_on', channel=0, note=81, velocity=0, time=719),
    Message('note_on', channel=0, note=79, velocity=96, time=1),
    Message('note_on', channel=0, note=79, velocity=0, time=239),
    Message('note_on', channel=0, note=77, velocity=96, time=1),
    Message('note_on', channel=0, note=77, velocity=0, time=239),
    Message('note_on', channel=0, note=79, velocity=96, time=1),
    Message('note_on', channel=0, note=79, velocity=0, time=719),
    Message('note_on', channel=0, note=81, velocity=96, time=1),
    Message('note_on', channel=0, note=81, velocity=0, time=719),
    Message('note_on', channel=0, note=79, velocity=96, time=1),
    Message('note_on', channel=0, note=79, velocity=0, time=239),
    Message('note_on', channel=0, note=77, velocity=96, time=1),
    Message('note_on', channel=0, note=77, velocity=0, time=239),
    Message('note_on', channel=0, note=79, velocity=96, time=1),
    Message('note_on', channel=0, note=79, velocity=0, time=719),
    Message('note_on', channel=0, note=81, velocity=96, time=1),
    Message('note_on', channel=0, note=81, velocity=0, time=479),
    Message('note_on', channel=0, note=77, velocity=96, time=1),
    Message('note_on', channel=0, note=77, velocity=0, time=239),
    Message('note_on', channel=0, note=76, velocity=96, time=1),
    Message('note_on', channel=0, note=76, velocity=0, time=239),
    Message('note_on', channel=0, note=74, velocity=96, time=1),
    Message('note_on', channel=0, note=74, velocity=0, time=2159),
    Message('note_on', channel=0, note=74, velocity=96, time=1),
    Message('note_on', channel=0, note=74, velocity=0, time=719),
    Message('note_on', channel=0, note=81, velocity=96, time=1),
    Message('note_on', channel=0, note=81, velocity=0, time=719),
    Message('note_on', channel=0, note=79, velocity=96, time=1),
    Message('note_on', channel=0, note=79, velocity=0, time=239),
    Message('note_on', channel=0, note=77, velocity=96, time=1),
    Message('note_on', channel=0, note=77, velocity=0, time=239),
    Message('note_on', channel=0, note=79, velocity=96, time=1),
    Message('note_on', channel=0, note=79, velocity=0, time=719),
    Message('note_on', channel=0, note=81, velocity=96, time=1),
    Message('note_on', channel=0, note=81, velocity=0, time=719),
    Message('note_on', channel=0, note=79, velocity=96, time=1),
    Message('note_on', channel=0, note=79, velocity=0, time=239),
    Message('note_on', channel=0, note=77, velocity=96, time=1),
    Message('note_on', channel=0, note=77, velocity=0, time=239),
    Message('note_on', channel=0, note=79, velocity=96, time=1),
    Message('note_on', channel=0, note=79, velocity=0, time=719),
    Message('note_on', channel=0, note=81, velocity=96, time=1),
    Message('note_on', channel=0, note=81, velocity=0, time=479),
    Message('note_on', channel=0, note=77, velocity=96, time=1),
    Message('note_on', channel=0, note=77, velocity=0, time=239),
    Message('note_on', channel=0, note=76, velocity=96, time=1),
    Message('note_on', channel=0, note=76, velocity=0, time=239),
    Message('note_on', channel=0, note=74, velocity=96, time=1),
    Message('note_on', channel=0, note=74, velocity=0, time=2159),
    Message('note_on', channel=0, note=79, velocity=96, time=1201),
    Message('note_on', channel=0, note=79, velocity=0, time=239),
    Message('note_on', channel=0, note=79, velocity=96, time=1),
    Message('note_on', channel=0, note=79, velocity=0, time=239),
    Message('note_on', channel=0, note=81, velocity=96, time=1),
    Message('note_on', channel=0, note=81, velocity=0, time=239),
    Message('note_on', channel=0, note=81, velocity=96, time=1),
    Message('note_on', channel=0, note=81, velocity=0, time=479),
    Message('note_on', channel=0, note=81, velocity=96, time=1),
    Message('note_on', channel=0, note=81, velocity=0, time=479),
    Message('note_on', channel=0, note=81, velocity=96, time=1),
    Message('note_on', channel=0, note=81, velocity=0, time=239),
    Message('note_on', channel=0, note=77, velocity=96, time=1),
    Message('note_on', channel=0, note=77, velocity=0, time=239),
    Message('note_on', channel=0, note=84, velocity=96, time=1),
    Message('note_on', channel=0, note=84, velocity=0, time=239),
    Message('note_on', channel=0, note=86, velocity=96, time=1),
    Message('note_on', channel=0, note=86, velocity=0, time=239),
    Message('note_on', channel=0, note=82, velocity=96, time=1),
    Message('note_on', channel=0, note=82, velocity=0, time=479),
    Message('note_on', channel=0, note=82, velocity=96, time=1),
    Message('note_on', channel=0, note=82, velocity=0, time=479),
    Message('note_on', channel=0, note=82, velocity=96, time=1),
    Message('note_on', channel=0, note=82, velocity=0, time=239),
    Message('note_on', channel=0, note=77, velocity=96, time=1),
    Message('note_on', channel=0, note=77, velocity=0, time=239),
    Message('note_on', channel=0, note=84, velocity=96, time=1),
    Message('note_on', channel=0, note=84, velocity=0, time=239),
    Message('note_on', channel=0, note=86, velocity=96, time=1),
    Message('note_on', channel=0, note=86, velocity=0, time=239),
    Message('note_on', channel=0, note=81, velocity=96, time=1),
    Message('note_on', channel=0, note=81, velocity=0, time=479),
    Message('note_on', channel=0, note=81, velocity=96, time=1),
    Message('note_on', channel=0, note=81, velocity=0, time=479),
    Message('note_on', channel=0, note=81, velocity=96, time=1),
    Message('note_on', channel=0, note=81, velocity=0, time=239),
    Message('note_on', channel=0, note=84, velocity=96, time=1),
    Message('note_on', channel=0, note=84, velocity=0, time=239),
    Message('note_on', channel=0, note=84, velocity=96, time=1),
    Message('note_on', channel=0, note=84, velocity=0, time=239),
    Message('note_on', channel=0, note=81, velocity=96, time=1),
    Message('note_on', channel=0, note=81, velocity=0, time=479),
    Message('note_on', channel=0, note=81, velocity=96, time=1),
    Message('note_on', channel=0, note=81, velocity=0, time=719),
    Message('note_on', channel=0, note=81, velocity=96, time=241),
    Message('note_on', channel=0, note=81, velocity=0, time=239),
    Message('note_on', channel=0, note=84, velocity=96, time=1),
    Message('note_on', channel=0, note=84, velocity=0, time=239),
    Message('note_on', channel=0, note=86, velocity=96, time=1),
    Message('note_on', channel=0, note=86, velocity=0, time=239),
    Message('note_on', channel=0, note=81, velocity=96, time=1),
    Message('note_on', channel=0, note=81, velocity=0, time=479),
    Message('note_on', channel=0, note=81, velocity=96, time=1),
    Message('note_on', channel=0, note=81, velocity=0, time=479),
    Message('note_on', channel=0, note=81, velocity=96, time=1),
    Message('note_on', channel=0, note=81, velocity=0, time=239),
    Message('note_on', channel=0, note=77, velocity=96, time=1),
    Message('note_on', channel=0, note=77, velocity=0, time=239),
    Message('note_on', channel=0, note=84, velocity=96, time=1),
    Message('note_on', channel=0, note=84, velocity=0, time=239),
    Message('note_on', channel=0, note=86, velocity=96, time=1),
    Message('note_on', channel=0, note=86, velocity=0, time=239),
    Message('note_on', channel=0, note=82, velocity=96, time=1),
    Message('note_on', channel=0, note=82, velocity=0, time=479),
    Message('note_on', channel=0, note=82, velocity=96, time=1),
    Message('note_on', channel=0, note=82, velocity=0, time=479),
    Message('note_on', channel=0, note=82, velocity=96, time=1),
    Message('note_on', channel=0, note=82, velocity=0, time=239),
    Message('note_on', channel=0, note=77, velocity=96, time=1),
    Message('note_on', channel=0, note=77, velocity=0, time=239),
    Message('note_on', channel=0, note=84, velocity=96, time=1),
    Message('note_on', channel=0, note=84, velocity=0, time=239),
    Message('note_on', channel=0, note=86, velocity=96, time=1),
    Message('note_on', channel=0, note=86, velocity=0, time=239),
    Message('note_on', channel=0, note=81, velocity=96, time=1),
    Message('note_on', channel=0, note=81, velocity=0, time=479),
    Message('note_on', channel=0, note=81, velocity=96, time=1),
    Message('note_on', channel=0, note=81, velocity=0, time=479),
    Message('note_on', channel=0, note=81, velocity=96, time=1),
    Message('note_on', channel=0, note=81, velocity=0, time=239),
    Message('note_on', channel=0, note=84, velocity=96, time=1),
    Message('note_on', channel=0, note=84, velocity=0, time=239),
    Message('note_on', channel=0, note=84, velocity=96, time=1),
    Message('note_on', channel=0, note=84, velocity=0, time=239),
    Message('note_on', channel=0, note=81, velocity=96, time=1),
    Message('note_on', channel=0, note=81, velocity=0, time=479),
    Message('note_on', channel=0, note=81, velocity=96, time=1),
    Message('note_on', channel=0, note=81, velocity=0, time=719),
    Message('note_on', channel=0, note=81, velocity=96, time=7201),
    Message('note_on', channel=0, note=81, velocity=0, time=239),
    Message('note_on', channel=0, note=81, velocity=96, time=1),
    Message('note_on', channel=0, note=81, velocity=0, time=239),
    Message('note_on', channel=0, note=81, velocity=96, time=1),
    Message('note_on', channel=0, note=81, velocity=0, time=479),
    Message('note_on', channel=0, note=81, velocity=96, time=1),
    Message('note_on', channel=0, note=81, velocity=0, time=479),
    Message('note_on', channel=0, note=81, velocity=96, time=6241),
    Message('note_on', channel=0, note=81, velocity=0, time=239),
    Message('note_on', channel=0, note=81, velocity=96, time=1),
    Message('note_on', channel=0, note=81, velocity=0, time=239),
    Message('note_on', channel=0, note=81, velocity=96, time=1),
    Message('note_on', channel=0, note=81, velocity=0, time=479),
    Message('note_on', channel=0, note=81, velocity=96, time=1),
    Message('note_on', channel=0, note=81, velocity=0, time=479),
    Message('note_on', channel=0, note=74, velocity=96, time=1),
    Message('note_on', channel=0, note=74, velocity=0, time=719),
    Message('note_on', channel=0, note=81, velocity=96, time=1),
    Message('note_on', channel=0, note=81, velocity=0, time=719),
    Message('note_on', channel=0, note=79, velocity=96, time=1),
    Message('note_on', channel=0, note=79, velocity=0, time=239),
    Message('note_on', channel=0, note=77, velocity=96, time=1),
    Message('note_on', channel=0, note=77, velocity=0, time=239),
    Message('note_on', channel=0, note=79, velocity=96, time=1),
    Message('note_on', channel=0, note=79, velocity=0, time=719),
    Message('note_on', channel=0, note=81, velocity=96, time=1),
    Message('note_on', channel=0, note=81, velocity=0, time=719),
    Message('note_on', channel=0, note=79, velocity=96, time=1),
    Message('note_on', channel=0, note=79, velocity=0, time=239),
    Message('note_on', channel=0, note=77, velocity=96, time=1),
    Message('note_on', channel=0, note=77, velocity=0, time=239),
    Message('note_on', channel=0, note=79, velocity=96, time=1),
    Message('note_on', channel=0, note=79, velocity=0, time=719),
    Message('note_on', channel=0, note=81, velocity=96, time=1),
    Message('note_on', channel=0, note=81, velocity=0, time=479),
    Message('note_on', channel=0, note=77, velocity=96, time=1),
    Message('note_on', channel=0, note=77, velocity=0, time=239),
    Message('note_on', channel=0, note=76, velocity=96, time=1),
    Message('note_on', channel=0, note=76, velocity=0, time=239),
    Message('note_on', channel=0, note=74, velocity=96, time=1),
    Message('note_on', channel=0, note=74, velocity=0, time=2159),
    MetaMessage('end_of_track', time=1)]),
  MidiTrack([
    MetaMessage('key_signature', key='G', time=0),
    Message('program_change', channel=1, program=71, time=0),
    Message('control_change', channel=1, control=7, value=100, time=2),
    Message('control_change', channel=1, control=10, value=64, time=2),
    Message('control_change', channel=1, control=91, value=30, time=2),
    Message('control_change', channel=1, control=93, value=30, time=2),
    Message('note_on', channel=1, note=67, velocity=80, time=15112),
    Message('note_on', channel=1, note=67, velocity=0, time=239),
    Message('note_on', channel=1, note=74, velocity=112, time=1),
    Message('note_on', channel=1, note=74, velocity=0, time=7679),
    Message('note_on', channel=1, note=77, velocity=112, time=1),
    Message('note_on', channel=1, note=77, velocity=0, time=239),
    Message('note_on', channel=1, note=77, velocity=112, time=1),
    Message('note_on', channel=1, note=77, velocity=0, time=239),
    Message('note_on', channel=1, note=77, velocity=112, time=1),
    Message('note_on', channel=1, note=77, velocity=0, time=239),
    Message('note_on', channel=1, note=77, velocity=112, time=1),
    Message('note_on', channel=1, note=77, velocity=0, time=239),
    Message('note_on', channel=1, note=77, velocity=112, time=1),
    Message('note_on', channel=1, note=77, velocity=0, time=239),
    Message('note_on', channel=1, note=77, velocity=112, time=1),
    Message('note_on', channel=1, note=77, velocity=0, time=239),
    Message('note_on', channel=1, note=76, velocity=112, time=1),
    Message('note_on', channel=1, note=76, velocity=0, time=239),
    Message('note_on', channel=1, note=74, velocity=112, time=1),
    Message('note_on', channel=1, note=74, velocity=0, time=239),
    Message('note_on', channel=1, note=74, velocity=112, time=961),
    Message('note_on', channel=1, note=74, velocity=0, time=479),
    Message('note_on', channel=1, note=74, velocity=112, time=1),
    Message('note_on', channel=1, note=74, velocity=0, time=239),
    Message('note_on', channel=1, note=76, velocity=112, time=1),
    Message('note_on', channel=1, note=76, velocity=0, time=239),
    Message('note_on', channel=1, note=77, velocity=112, time=1),
    Message('note_on', channel=1, note=77, velocity=0, time=239),
    Message('note_on', channel=1, note=76, velocity=112, time=1),
    Message('note_on', channel=1, note=76, velocity=0, time=239),
    Message('note_on', channel=1, note=74, velocity=112, time=1),
    Message('note_on', channel=1, note=74, velocity=0, time=239),
    Message('note_on', channel=1, note=76, velocity=112, time=1),
    Message('note_on', channel=1, note=76, velocity=0, time=239),
    Message('note_on', channel=1, note=77, velocity=112, time=1),
    Message('note_on', channel=1, note=77, velocity=0, time=239),
    Message('note_on', channel=1, note=76, velocity=112, time=1),
    Message('note_on', channel=1, note=76, velocity=0, time=239),
    Message('note_on', channel=1, note=74, velocity=112, time=1),
    Message('note_on', channel=1, note=74, velocity=0, time=479),
    Message('note_on', channel=1, note=74, velocity=112, time=961),
    Message('note_on', channel=1, note=74, velocity=0, time=479),
    Message('note_on', channel=1, note=74, velocity=112, time=1),
    Message('note_on', channel=1, note=74, velocity=0, time=239),
    Message('note_on', channel=1, note=76, velocity=112, time=1),
    Message('note_on', channel=1, note=76, velocity=0, time=239),
    Message('note_on', channel=1, note=77, velocity=112, time=1),
    Message('note_on', channel=1, note=77, velocity=0, time=239),
    Message('note_on', channel=1, note=76, velocity=112, time=1),
    Message('note_on', channel=1, note=76, velocity=0, time=239),
    Message('note_on', channel=1, note=74, velocity=112, time=1),
    Message('note_on', channel=1, note=74, velocity=0, time=239),
    Message('note_on', channel=1, note=76, velocity=112, time=1),
    Message('note_on', channel=1, note=76, velocity=0, time=239),
    Message('note_on', channel=1, note=77, velocity=112, time=1),
    Message('note_on', channel=1, note=77, velocity=0, time=479),
    Message('note_on', channel=1, note=74, velocity=112, time=1),
    Message('note_on', channel=1, note=74, velocity=0, time=239),
    Message('note_on', channel=1, note=76, velocity=112, time=1),
    Message('note_on', channel=1, note=76, velocity=0, time=239),
    Message('note_on', channel=1, note=77, velocity=112, time=1),
    Message('note_on', channel=1, note=77, velocity=0, time=719),
    Message('note_on', channel=1, note=76, velocity=112, time=1),
    Message('note_on', channel=1, note=76, velocity=0, time=719),
    Message('note_on', channel=1, note=74, velocity=112, time=1),
    Message('note_on', channel=1, note=74, velocity=0, time=239),
    Message('note_on', channel=1, note=76, velocity=112, time=1),
    Message('note_on', channel=1, note=76, velocity=0, time=239),
    Message('note_on', channel=1, note=77, velocity=112, time=1),
    Message('note_on', channel=1, note=77, velocity=0, time=479),
    Message('note_on', channel=1, note=74, velocity=112, time=1),
    Message('note_on', channel=1, note=74, velocity=0, time=239),
    Message('note_on', channel=1, note=76, velocity=112, time=1),
    Message('note_on', channel=1, note=76, velocity=0, time=239),
    Message('note_on', channel=1, note=77, velocity=112, time=1),
    Message('note_on', channel=1, note=77, velocity=0, time=239),
    Message('note_on', channel=1, note=76, velocity=112, time=1),
    Message('note_on', channel=1, note=76, velocity=0, time=239),
    Message('note_on', channel=1, note=74, velocity=112, time=1),
    Message('note_on', channel=1, note=74, velocity=0, time=239),
    Message('note_on', channel=1, note=72, velocity=112, time=1),
    Message('note_on', channel=1, note=72, velocity=0, time=239),
    Message('note_on', channel=1, note=74, velocity=112, time=1),
    Message('note_on', channel=1, note=74, velocity=0, time=1919),
    Message('note_on', channel=1, note=77, velocity=112, time=1),
    Message('note_on', channel=1, note=77, velocity=0, time=239),
    Message('note_on', channel=1, note=77, velocity=112, time=1),
    Message('note_on', channel=1, note=77, velocity=0, time=239),
    Message('note_on', channel=1, note=77, velocity=112, time=1),
    Message('note_on', channel=1, note=77, velocity=0, time=479),
    Message('note_on', channel=1, note=77, velocity=112, time=1),
    Message('note_on', channel=1, note=77, velocity=0, time=239),
    Message('note_on', channel=1, note=77, velocity=112, time=1),
    Message('note_on', channel=1, note=77, velocity=0, time=239),
    Message('note_on', channel=1, note=76, velocity=112, time=1),
    Message('note_on', channel=1, note=76, velocity=0, time=239),
    Message('note_on', channel=1, note=74, velocity=112, time=1),
    Message('note_on', channel=1, note=74, velocity=0, time=239),
    Message('note_on', channel=1, note=74, velocity=112, time=961),
    Message('note_on', channel=1, note=74, velocity=0, time=479),
    Message('note_on', channel=1, note=74, velocity=112, time=1),
    Message('note_on', channel=1, note=74, velocity=0, time=239),
    Message('note_on', channel=1, note=76, velocity=112, time=1),
    Message('note_on', channel=1, note=76, velocity=0, time=239),
    Message('note_on', channel=1, note=77, velocity=112, time=1),
    Message('note_on', channel=1, note=77, velocity=0, time=239),
    Message('note_on', channel=1, note=76, velocity=112, time=1),
    Message('note_on', channel=1, note=76, velocity=0, time=239),
    Message('note_on', channel=1, note=74, velocity=112, time=1),
    Message('note_on', channel=1, note=74, velocity=0, time=239),
    Message('note_on', channel=1, note=76, velocity=112, time=1),
    Message('note_on', channel=1, note=76, velocity=0, time=239),
    Message('note_on', channel=1, note=77, velocity=112, time=1),
    Message('note_on', channel=1, note=77, velocity=0, time=239),
    Message('note_on', channel=1, note=76, velocity=112, time=1),
    Message('note_on', channel=1, note=76, velocity=0, time=239),
    Message('note_on', channel=1, note=74, velocity=112, time=1),
    Message('note_on', channel=1, note=74, velocity=0, time=239),
    Message('note_on', channel=1, note=76, velocity=112, time=1),
    Message('note_on', channel=1, note=76, velocity=0, time=239),
    Message('note_on', channel=1, note=74, velocity=112, time=961),
    Message('note_on', channel=1, note=74, velocity=0, time=479),
    Message('note_on', channel=1, note=74, velocity=112, time=1),
    Message('note_on', channel=1, note=74, velocity=0, time=239),
    Message('note_on', channel=1, note=76, velocity=112, time=1),
    Message('note_on', channel=1, note=76, velocity=0, time=239),
    Message('note_on', channel=1, note=77, velocity=112, time=1),
    Message('note_on', channel=1, note=77, velocity=0, time=239),
    Message('note_on', channel=1, note=76, velocity=112, time=1),
    Message('note_on', channel=1, note=76, velocity=0, time=239),
    Message('note_on', channel=1, note=74, velocity=112, time=1),
    Message('note_on', channel=1, note=74, velocity=0, time=239),
    Message('note_on', channel=1, note=76, velocity=112, time=1),
    Message('note_on', channel=1, note=76, velocity=0, time=239),
    Message('note_on', channel=1, note=77, velocity=112, time=1),
    Message('note_on', channel=1, note=77, velocity=0, time=239),
    Message('note_on', channel=1, note=76, velocity=112, time=1),
    Message('note_on', channel=1, note=76, velocity=0, time=239),
    Message('note_on', channel=1, note=74, velocity=112, time=1),
    Message('note_on', channel=1, note=74, velocity=0, time=479),
    Message('note_on', channel=1, note=77, velocity=112, time=1),
    Message('note_on', channel=1, note=77, velocity=0, time=239),
    Message('note_on', channel=1, note=76, velocity=112, time=1),
    Message('note_on', channel=1, note=76, velocity=0, time=239),
    Message('note_on', channel=1, note=74, velocity=112, time=1),
    Message('note_on', channel=1, note=74, velocity=0, time=479),
    Message('note_on', channel=1, note=77, velocity=112, time=1),
    Message('note_on', channel=1, note=77, velocity=0, time=239),
    Message('note_on', channel=1, note=76, velocity=112, time=1),
    Message('note_on', channel=1, note=76, velocity=0, time=239),
    Message('note_on', channel=1, note=74, velocity=112, time=1),
    Message('note_on', channel=1, note=74, velocity=0, time=479),
    Message('note_on', channel=1, note=77, velocity=112, time=1),
    Message('note_on', channel=1, note=77, velocity=0, time=239),
    Message('note_on', channel=1, note=76, velocity=112, time=1),
    Message('note_on', channel=1, note=76, velocity=0, time=239),
    Message('note_on', channel=1, note=74, velocity=112, time=1),
    Message('note_on', channel=1, note=74, velocity=0, time=239),
    Message('note_on', channel=1, note=76, velocity=112, time=1),
    Message('note_on', channel=1, note=76, velocity=0, time=239),
    Message('note_on', channel=1, note=77, velocity=112, time=1),
    Message('note_on', channel=1, note=77, velocity=0, time=239),
    Message('note_on', channel=1, note=76, velocity=112, time=1),
    Message('note_on', channel=1, note=76, velocity=0, time=239),
    Message('note_on', channel=1, note=74, velocity=112, time=1),
    Message('note_on', channel=1, note=74, velocity=0, time=239),
    Message('note_on', channel=1, note=72, velocity=112, time=1),
    Message('note_on', channel=1, note=72, velocity=0, time=239),
    Message('note_on', channel=1, note=74, velocity=112, time=1),
    Message('note_on', channel=1, note=74, velocity=0, time=1919),
    Message('note_on', channel=1, note=74, velocity=112, time=11521),
    Message('note_on', channel=1, note=74, velocity=0, time=479),
    Message('note_on', channel=1, note=74, velocity=112, time=1),
    Message('note_on', channel=1, note=74, velocity=0, time=479),
    Message('note_on', channel=1, note=74, velocity=112, time=1),
    Message('note_on', channel=1, note=74, velocity=0, time=239),
    Message('note_on', channel=1, note=65, velocity=112, time=1),
    Message('note_on', channel=1, note=65, velocity=0, time=239),
    Message('note_on', channel=1, note=72, velocity=112, time=1),
    Message('note_on', channel=1, note=72, velocity=0, time=239),
    Message('note_on', channel=1, note=74, velocity=112, time=1),
    Message('note_on', channel=1, note=74, velocity=0, time=239),
    Message('note_on', channel=1, note=74, velocity=112, time=1),
    Message('note_on', channel=1, note=74, velocity=0, time=479),
    Message('note_on', channel=1, note=74, velocity=112, time=1),
    Message('note_on', channel=1, note=74, velocity=0, time=479),
    Message('note_on', channel=1, note=74, velocity=112, time=1),
    Message('note_on', channel=1, note=74, velocity=0, time=239),
    Message('note_on', channel=1, note=69, velocity=112, time=1),
    Message('note_on', channel=1, note=69, velocity=0, time=239),
    Message('note_on', channel=1, note=72, velocity=112, time=1),
    Message('note_on', channel=1, note=72, velocity=0, time=239),
    Message('note_on', channel=1, note=74, velocity=112, time=1),
    Message('note_on', channel=1, note=74, velocity=0, time=239),
    Message('note_on', channel=1, note=74, velocity=112, time=1),
    Message('note_on', channel=1, note=74, velocity=0, time=479),
    Message('note_on', channel=1, note=74, velocity=112, time=1),
    Message('note_on', channel=1, note=74, velocity=0, time=479),
    Message('note_on', channel=1, note=74, velocity=112, time=1),
    Message('note_on', channel=1, note=74, velocity=0, time=239),
    Message('note_on', channel=1, note=69, velocity=112, time=1921),
    Message('note_on', channel=1, note=69, velocity=0, time=239),
    Message('note_on', channel=1, note=72, velocity=112, time=1),
    Message('note_on', channel=1, note=72, velocity=0, time=239),
    Message('note_on', channel=1, note=74, velocity=112, time=1),
    Message('note_on', channel=1, note=74, velocity=0, time=239),
    Message('note_on', channel=1, note=74, velocity=112, time=1),
    Message('note_on', channel=1, note=74, velocity=0, time=479),
    Message('note_on', channel=1, note=74, velocity=112, time=1),
    Message('note_on', channel=1, note=74, velocity=0, time=479),
    Message('note_on', channel=1, note=74, velocity=112, time=1),
    Message('note_on', channel=1, note=74, velocity=0, time=239),
    Message('note_on', channel=1, note=65, velocity=112, time=1),
    Message('note_on', channel=1, note=65, velocity=0, time=239),
    Message('note_on', channel=1, note=72, velocity=112, time=1),
    Message('note_on', channel=1, note=72, velocity=0, time=239),
    Message('note_on', channel=1, note=74, velocity=112, time=1),
    Message('note_on', channel=1, note=74, velocity=0, time=239),
    Message('note_on', channel=1, note=74, velocity=112, time=1),
    Message('note_on', channel=1, note=74, velocity=0, time=479),
    Message('note_on', channel=1, note=74, velocity=112, time=1),
    Message('note_on', channel=1, note=74, velocity=0, time=479),
    Message('note_on', channel=1, note=74, velocity=112, time=1),
    Message('note_on', channel=1, note=74, velocity=0, time=239),
    Message('note_on', channel=1, note=69, velocity=112, time=1),
    Message('note_on', channel=1, note=69, velocity=0, time=239),
    Message('note_on', channel=1, note=72, velocity=112, time=1),
    Message('note_on', channel=1, note=72, velocity=0, time=239),
    Message('note_on', channel=1, note=74, velocity=112, time=1),
    Message('note_on', channel=1, note=74, velocity=0, time=239),
    Message('note_on', channel=1, note=74, velocity=112, time=1),
    Message('note_on', channel=1, note=74, velocity=0, time=479),
    Message('note_on', channel=1, note=74, velocity=112, time=1),
    Message('note_on', channel=1, note=74, velocity=0, time=479),
    Message('note_on', channel=1, note=74, velocity=112, time=1),
    Message('note_on', channel=1, note=74, velocity=0, time=239),
    Message('note_on', channel=1, note=69, velocity=64, time=8881),
    Message('note_on', channel=1, note=69, velocity=0, time=239),
    Message('note_on', channel=1, note=69, velocity=64, time=1),
    Message('note_on', channel=1, note=69, velocity=0, time=239),
    Message('note_on', channel=1, note=69, velocity=64, time=1),
    Message('note_on', channel=1, note=69, velocity=0, time=479),
    Message('note_on', channel=1, note=69, velocity=64, time=1),
    Message('note_on', channel=1, note=69, velocity=0, time=479),
    Message('note_on', channel=1, note=69, velocity=64, time=6241),
    Message('note_on', channel=1, note=69, velocity=0, time=239),
    Message('note_on', channel=1, note=69, velocity=64, time=1),
    Message('note_on', channel=1, note=69, velocity=0, time=239),
    Message('note_on', channel=1, note=69, velocity=64, time=1),
    Message('note_on', channel=1, note=69, velocity=0, time=479),
    Message('note_on', channel=1, note=69, velocity=64, time=1),
    Message('note_on', channel=1, note=69, velocity=0, time=479),
    Message('note_on', channel=1, note=62, velocity=64, time=7681),
    Message('note_on', channel=1, note=62, velocity=0, time=719),
    Message('note_on', channel=1, note=69, velocity=64, time=1),
    Message('note_on', channel=1, note=69, velocity=0, time=719),
    Message('note_on', channel=1, note=67, velocity=64, time=1),
    Message('note_on', channel=1, note=67, velocity=0, time=239),
    Message('note_on', channel=1, note=65, velocity=64, time=1),
    Message('note_on', channel=1, note=65, velocity=0, time=239),
    Message('note_on', channel=1, note=67, velocity=64, time=1),
    Message('note_on', channel=1, note=67, velocity=0, time=719),
    Message('note_on', channel=1, note=69, velocity=64, time=1),
    Message('note_on', channel=1, note=69, velocity=0, time=719),
    Message('note_on', channel=1, note=67, velocity=64, time=1),
    Message('note_on', channel=1, note=67, velocity=0, time=239),
    Message('note_on', channel=1, note=65, velocity=64, time=1),
    Message('note_on', channel=1, note=65, velocity=0, time=239),
    Message('note_on', channel=1, note=67, velocity=64, time=1),
    Message('note_on', channel=1, note=67, velocity=0, time=719),
    Message('note_on', channel=1, note=69, velocity=64, time=1),
    Message('note_on', channel=1, note=69, velocity=0, time=479),
    Message('note_on', channel=1, note=65, velocity=64, time=1),
    Message('note_on', channel=1, note=65, velocity=0, time=239),
    Message('note_on', channel=1, note=64, velocity=64, time=1),
    Message('note_on', channel=1, note=64, velocity=0, time=239),
    Message('note_on', channel=1, note=62, velocity=64, time=1),
    Message('note_on', channel=1, note=62, velocity=0, time=2159),
    Message('note_on', channel=1, note=62, velocity=64, time=1),
    Message('note_on', channel=1, note=62, velocity=0, time=719),
    Message('note_on', channel=1, note=69, velocity=64, time=1),
    Message('note_on', channel=1, note=69, velocity=0, time=719),
    Message('note_on', channel=1, note=67, velocity=64, time=1),
    Message('note_on', channel=1, note=67, velocity=0, time=239),
    Message('note_on', channel=1, note=65, velocity=64, time=1),
    Message('note_on', channel=1, note=65, velocity=0, time=239),
    Message('note_on', channel=1, note=67, velocity=64, time=1),
    Message('note_on', channel=1, note=67, velocity=0, time=719),
    Message('note_on', channel=1, note=69, velocity=64, time=1),
    Message('note_on', channel=1, note=69, velocity=0, time=719),
    Message('note_on', channel=1, note=67, velocity=64, time=1),
    Message('note_on', channel=1, note=67, velocity=0, time=239),
    Message('note_on', channel=1, note=65, velocity=64, time=1),
    Message('note_on', channel=1, note=65, velocity=0, time=239),
    Message('note_on', channel=1, note=67, velocity=64, time=1),
    Message('note_on', channel=1, note=67, velocity=0, time=719),
    Message('note_on', channel=1, note=69, velocity=64, time=1),
    Message('note_on', channel=1, note=69, velocity=0, time=479),
    Message('note_on', channel=1, note=65, velocity=64, time=1),
    Message('note_on', channel=1, note=65, velocity=0, time=239),
    Message('note_on', channel=1, note=64, velocity=64, time=1),
    Message('note_on', channel=1, note=64, velocity=0, time=239),
    Message('note_on', channel=1, note=62, velocity=64, time=1),
    Message('note_on', channel=1, note=62, velocity=0, time=2159),
    Message('note_on', channel=1, note=72, velocity=64, time=1201),
    Message('note_on', channel=1, note=72, velocity=0, time=239),
    Message('note_on', channel=1, note=72, velocity=64, time=1),
    Message('note_on', channel=1, note=72, velocity=0, time=239),
    Message('note_on', channel=1, note=74, velocity=64, time=1),
    Message('note_on', channel=1, note=74, velocity=0, time=239),
    Message('note_on', channel=1, note=74, velocity=64, time=1),
    Message('note_on', channel=1, note=74, velocity=0, time=479),
    Message('note_on', channel=1, note=74, velocity=64, time=1),
    Message('note_on', channel=1, note=74, velocity=0, time=479),
    Message('note_on', channel=1, note=74, velocity=64, time=1),
    Message('note_on', channel=1, note=74, velocity=0, time=239),
    Message('note_on', channel=1, note=65, velocity=64, time=1),
    Message('note_on', channel=1, note=65, velocity=0, time=239),
    Message('note_on', channel=1, note=72, velocity=64, time=1),
    Message('note_on', channel=1, note=72, velocity=0, time=239),
    Message('note_on', channel=1, note=74, velocity=64, time=1),
    Message('note_on', channel=1, note=74, velocity=0, time=239),
    Message('note_on', channel=1, note=74, velocity=64, time=1),
    Message('note_on', channel=1, note=74, velocity=0, time=479),
    Message('note_on', channel=1, note=74, velocity=64, time=1),
    Message('note_on', channel=1, note=74, velocity=0, time=479),
    Message('note_on', channel=1, note=74, velocity=64, time=1),
    Message('note_on', channel=1, note=74, velocity=0, time=239),
    Message('note_on', channel=1, note=69, velocity=64, time=1),
    Message('note_on', channel=1, note=69, velocity=0, time=239),
    Message('note_on', channel=1, note=72, velocity=64, time=1),
    Message('note_on', channel=1, note=72, velocity=0, time=239),
    Message('note_on', channel=1, note=74, velocity=64, time=1),
    Message('note_on', channel=1, note=74, velocity=0, time=239),
    Message('note_on', channel=1, note=74, velocity=64, time=1),
    Message('note_on', channel=1, note=74, velocity=0, time=479),
    Message('note_on', channel=1, note=74, velocity=64, time=1),
    Message('note_on', channel=1, note=74, velocity=0, time=479),
    Message('note_on', channel=1, note=74, velocity=64, time=1),
    Message('note_on', channel=1, note=74, velocity=0, time=239),
    Message('note_on', channel=1, note=69, velocity=64, time=1921),
    Message('note_on', channel=1, note=69, velocity=0, time=239),
    Message('note_on', channel=1, note=72, velocity=64, time=1),
    Message('note_on', channel=1, note=72, velocity=0, time=239),
    Message('note_on', channel=1, note=74, velocity=64, time=1),
    Message('note_on', channel=1, note=74, velocity=0, time=239),
    Message('note_on', channel=1, note=74, velocity=64, time=1),
    Message('note_on', channel=1, note=74, velocity=0, time=479),
    Message('note_on', channel=1, note=74, velocity=64, time=1),
    Message('note_on', channel=1, note=74, velocity=0, time=479),
    Message('note_on', channel=1, note=74, velocity=64, time=1),
    Message('note_on', channel=1, note=74, velocity=0, time=239),
    Message('note_on', channel=1, note=65, velocity=64, time=1),
    Message('note_on', channel=1, note=65, velocity=0, time=239),
    Message('note_on', channel=1, note=72, velocity=64, time=1),
    Message('note_on', channel=1, note=72, velocity=0, time=239),
    Message('note_on', channel=1, note=74, velocity=64, time=1),
    Message('note_on', channel=1, note=74, velocity=0, time=239),
    Message('note_on', channel=1, note=74, velocity=64, time=1),
    Message('note_on', channel=1, note=74, velocity=0, time=479),
    Message('note_on', channel=1, note=74, velocity=64, time=1),
    Message('note_on', channel=1, note=74, velocity=0, time=479),
    Message('note_on', channel=1, note=74, velocity=64, time=1),
    Message('note_on', channel=1, note=74, velocity=0, time=239),
    Message('note_on', channel=1, note=69, velocity=64, time=1),
    Message('note_on', channel=1, note=69, velocity=0, time=239),
    Message('note_on', channel=1, note=72, velocity=64, time=1),
    Message('note_on', channel=1, note=72, velocity=0, time=239),
    Message('note_on', channel=1, note=74, velocity=64, time=1),
    Message('note_on', channel=1, note=74, velocity=0, time=239),
    Message('note_on', channel=1, note=74, velocity=64, time=1),
    Message('note_on', channel=1, note=74, velocity=0, time=479),
    Message('note_on', channel=1, note=74, velocity=64, time=1),
    Message('note_on', channel=1, note=74, velocity=0, time=479),
    Message('note_on', channel=1, note=74, velocity=64, time=1),
    Message('note_on', channel=1, note=74, velocity=0, time=239),
    Message('note_on', channel=1, note=69, velocity=64, time=8881),
    Message('note_on', channel=1, note=69, velocity=0, time=239),
    Message('note_on', channel=1, note=69, velocity=64, time=1),
    Message('note_on', channel=1, note=69, velocity=0, time=239),
    Message('note_on', channel=1, note=69, velocity=64, time=1),
    Message('note_on', channel=1, note=69, velocity=0, time=479),
    Message('note_on', channel=1, note=69, velocity=64, time=1),
    Message('note_on', channel=1, note=69, velocity=0, time=479),
    Message('note_on', channel=1, note=69, velocity=64, time=6241),
    Message('note_on', channel=1, note=69, velocity=0, time=239),
    Message('note_on', channel=1, note=69, velocity=64, time=1),
    Message('note_on', channel=1, note=69, velocity=0, time=239),
    Message('note_on', channel=1, note=69, velocity=64, time=1),
    Message('note_on', channel=1, note=69, velocity=0, time=479),
    Message('note_on', channel=1, note=69, velocity=64, time=1),
    Message('note_on', channel=1, note=69, velocity=0, time=479),
    Message('note_on', channel=1, note=62, velocity=64, time=1),
    Message('note_on', channel=1, note=62, velocity=0, time=719),
    Message('note_on', channel=1, note=69, velocity=64, time=1),
    Message('note_on', channel=1, note=69, velocity=0, time=719),
    Message('note_on', channel=1, note=67, velocity=64, time=1),
    Message('note_on', channel=1, note=67, velocity=0, time=239),
    Message('note_on', channel=1, note=65, velocity=64, time=1),
    Message('note_on', channel=1, note=65, velocity=0, time=239),
    Message('note_on', channel=1, note=67, velocity=64, time=1),
    Message('note_on', channel=1, note=67, velocity=0, time=719),
    Message('note_on', channel=1, note=69, velocity=64, time=1),
    Message('note_on', channel=1, note=69, velocity=0, time=719),
    Message('note_on', channel=1, note=67, velocity=64, time=1),
    Message('note_on', channel=1, note=67, velocity=0, time=239),
    Message('note_on', channel=1, note=65, velocity=64, time=1),
    Message('note_on', channel=1, note=65, velocity=0, time=239),
    Message('note_on', channel=1, note=67, velocity=64, time=1),
    Message('note_on', channel=1, note=67, velocity=0, time=719),
    Message('note_on', channel=1, note=69, velocity=64, time=1),
    Message('note_on', channel=1, note=69, velocity=0, time=479),
    Message('note_on', channel=1, note=65, velocity=64, time=1),
    Message('note_on', channel=1, note=65, velocity=0, time=239),
    Message('note_on', channel=1, note=64, velocity=64, time=1),
    Message('note_on', channel=1, note=64, velocity=0, time=239),
    Message('note_on', channel=1, note=62, velocity=64, time=1),
    Message('note_on', channel=1, note=62, velocity=0, time=2159),
    MetaMessage('end_of_track', time=1)]),
  MidiTrack([
    MetaMessage('key_signature', key='G', time=0),
    Message('note_on', channel=1, note=69, velocity=112, time=15360),
    Message('note_on', channel=1, note=69, velocity=0, time=719),
    Message('note_on', channel=1, note=69, velocity=112, time=1),
    Message('note_on', channel=1, note=69, velocity=0, time=239),
    Message('note_on', channel=1, note=69, velocity=112, time=1),
    Message('note_on', channel=1, note=69, velocity=0, time=479),
    Message('note_on', channel=1, note=69, velocity=112, time=1),
    Message('note_on', channel=1, note=69, velocity=0, time=719),
    Message('note_on', channel=1, note=69, velocity=112, time=1),
    Message('note_on', channel=1, note=69, velocity=0, time=239),
    Message('note_on', channel=1, note=69, velocity=112, time=1),
    Message('note_on', channel=1, note=69, velocity=0, time=479),
    Message('note_on', channel=1, note=69, velocity=112, time=1),
    Message('note_on', channel=1, note=69, velocity=0, time=239),
    Message('note_on', channel=1, note=69, velocity=112, time=1),
    Message('note_on', channel=1, note=69, velocity=0, time=239),
    Message('note_on', channel=1, note=67, velocity=112, time=1),
    Message('note_on', channel=1, note=67, velocity=0, time=239),
    Message('note_on', channel=1, note=67, velocity=112, time=1),
    Message('note_on', channel=1, note=67, velocity=0, time=239),
    Message('note_on', channel=1, note=69, velocity=112, time=1),
    Message('note_on', channel=1, note=69, velocity=0, time=719),
    Message('note_on', channel=1, note=69, velocity=112, time=1),
    Message('note_on', channel=1, note=69, velocity=0, time=239),
    Message('note_on', channel=1, note=69, velocity=112, time=1),
    Message('note_on', channel=1, note=69, velocity=0, time=479),
    Message('note_on', channel=1, note=69, velocity=112, time=1),
    Message('note_on', channel=1, note=69, velocity=0, time=719),
    Message('note_on', channel=1, note=69, velocity=112, time=1),
    Message('note_on', channel=1, note=69, velocity=0, time=239),
    Message('note_on', channel=1, note=69, velocity=112, time=1),
    Message('note_on', channel=1, note=69, velocity=0, time=479),
    Message('note_on', channel=1, note=69, velocity=112, time=1),
    Message('note_on', channel=1, note=69, velocity=0, time=239),
    Message('note_on', channel=1, note=69, velocity=112, time=1),
    Message('note_on', channel=1, note=69, velocity=0, time=239),
    Message('note_on', channel=1, note=67, velocity=112, time=1),
    Message('note_on', channel=1, note=67, velocity=0, time=239),
    Message('note_on', channel=1, note=67, velocity=112, time=1),
    Message('note_on', channel=1, note=67, velocity=0, time=239),
    Message('note_on', channel=1, note=62, velocity=112, time=2881),
    Message('note_on', channel=1, note=62, velocity=0, time=479),
    Message('note_on', channel=1, note=62, velocity=112, time=1),
    Message('note_on', channel=1, note=62, velocity=0, time=479),
    Message('note_on', channel=1, note=65, velocity=112, time=1),
    Message('note_on', channel=1, note=65, velocity=0, time=239),
    Message('note_on', channel=1, note=64, velocity=112, time=1),
    Message('note_on', channel=1, note=64, velocity=0, time=239),
    Message('note_on', channel=1, note=62, velocity=112, time=1),
    Message('note_on', channel=1, note=62, velocity=0, time=479),
    Message('note_on', channel=1, note=65, velocity=112, time=1),
    Message('note_on', channel=1, note=65, velocity=0, time=239),
    Message('note_on', channel=1, note=64, velocity=112, time=1),
    Message('note_on', channel=1, note=64, velocity=0, time=239),
    Message('note_on', channel=1, note=62, velocity=112, time=1),
    Message('note_on', channel=1, note=62, velocity=0, time=479),
    Message('note_on', channel=1, note=62, velocity=112, time=961),
    Message('note_on', channel=1, note=62, velocity=0, time=959),
    Message('note_on', channel=1, note=65, velocity=112, time=1),
    Message('note_on', channel=1, note=65, velocity=0, time=239),
    Message('note_on', channel=1, note=67, velocity=112, time=1),
    Message('note_on', channel=1, note=67, velocity=0, time=239),
    Message('note_on', channel=1, note=69, velocity=112, time=1),
    Message('note_on', channel=1, note=69, velocity=0, time=239),
    Message('note_on', channel=1, note=67, velocity=112, time=1),
    Message('note_on', channel=1, note=67, velocity=0, time=239),
    Message('note_on', channel=1, note=65, velocity=112, time=1),
    Message('note_on', channel=1, note=65, velocity=0, time=479),
    Message('note_on', channel=1, note=62, velocity=112, time=1),
    Message('note_on', channel=1, note=62, velocity=0, time=239),
    Message('note_on', channel=1, note=64, velocity=112, time=1),
    Message('note_on', channel=1, note=64, velocity=0, time=239),
    Message('note_on', channel=1, note=62, velocity=112, time=1),
    Message('note_on', channel=1, note=62, velocity=0, time=719),
    Message('note_on', channel=1, note=60, velocity=112, time=1),
    Message('note_on', channel=1, note=60, velocity=0, time=719),
    Message('note_on', channel=1, note=65, velocity=112, time=1),
    Message('note_on', channel=1, note=65, velocity=0, time=239),
    Message('note_on', channel=1, note=64, velocity=112, time=1),
    Message('note_on', channel=1, note=64, velocity=0, time=239),
    Message('note_on', channel=1, note=65, velocity=112, time=1),
    Message('note_on', channel=1, note=65, velocity=0, time=479),
    Message('note_on', channel=1, note=69, velocity=112, time=1),
    Message('note_on', channel=1, note=69, velocity=0, time=239),
    Message('note_on', channel=1, note=67, velocity=112, time=1),
    Message('note_on', channel=1, note=67, velocity=0, time=239),
    Message('note_on', channel=1, note=65, velocity=112, time=1),
    Message('note_on', channel=1, note=65, velocity=0, time=239),
    Message('note_on', channel=1, note=64, velocity=112, time=1),
    Message('note_on', channel=1, note=64, velocity=0, time=239),
    Message('note_on', channel=1, note=62, velocity=112, time=1),
    Message('note_on', channel=1, note=62, velocity=0, time=239),
    Message('note_on', channel=1, note=60, velocity=112, time=1),
    Message('note_on', channel=1, note=60, velocity=0, time=239),
    Message('note_on', channel=1, note=62, velocity=112, time=1),
    Message('note_on', channel=1, note=62, velocity=0, time=1919),
    Message('note_on', channel=1, note=65, velocity=112, time=1),
    Message('note_on', channel=1, note=65, velocity=0, time=959),
    Message('note_on', channel=1, note=69, velocity=112, time=1),
    Message('note_on', channel=1, note=69, velocity=0, time=239),
    Message('note_on', channel=1, note=69, velocity=112, time=1),
    Message('note_on', channel=1, note=69, velocity=0, time=239),
    Message('note_on', channel=1, note=70, velocity=112, time=1),
    Message('note_on', channel=1, note=70, velocity=0, time=239),
    Message('note_on', channel=1, note=69, velocity=112, time=1),
    Message('note_on', channel=1, note=69, velocity=0, time=239),
    Message('note_on', channel=1, note=62, velocity=112, time=961),
    Message('note_on', channel=1, note=62, velocity=0, time=479),
    Message('note_on', channel=1, note=62, velocity=112, time=1),
    Message('note_on', channel=1, note=62, velocity=0, time=239),
    Message('note_on', channel=1, note=64, velocity=112, time=1),
    Message('note_on', channel=1, note=64, velocity=0, time=239),
    Message('note_on', channel=1, note=65, velocity=112, time=1),
    Message('note_on', channel=1, note=65, velocity=0, time=239),
    Message('note_on', channel=1, note=64, velocity=112, time=1),
    Message('note_on', channel=1, note=64, velocity=0, time=239),
    Message('note_on', channel=1, note=62, velocity=112, time=1),
    Message('note_on', channel=1, note=62, velocity=0, time=239),
    Message('note_on', channel=1, note=60, velocity=112, time=1),
    Message('note_on', channel=1, note=60, velocity=0, time=239),
    Message('note_on', channel=1, note=58, velocity=112, time=1),
    Message('note_on', channel=1, note=58, velocity=0, time=239),
    Message('note_on', channel=1, note=60, velocity=112, time=1),
    Message('note_on', channel=1, note=60, velocity=0, time=239),
    Message('note_on', channel=1, note=62, velocity=112, time=1),
    Message('note_on', channel=1, note=62, velocity=0, time=239),
    Message('note_on', channel=1, note=64, velocity=112, time=1),
    Message('note_on', channel=1, note=64, velocity=0, time=239),
    Message('note_on', channel=1, note=70, velocity=112, time=961),
    Message('note_on', channel=1, note=70, velocity=0, time=479),
    Message('note_on', channel=1, note=70, velocity=112, time=1),
    Message('note_on', channel=1, note=70, velocity=0, time=239),
    Message('note_on', channel=1, note=69, velocity=112, time=1),
    Message('note_on', channel=1, note=69, velocity=0, time=239),
    Message('note_on', channel=1, note=69, velocity=112, time=1),
    Message('note_on', channel=1, note=69, velocity=0, time=239),
    Message('note_on', channel=1, note=69, velocity=112, time=1),
    Message('note_on', channel=1, note=69, velocity=0, time=239),
    Message('note_on', channel=1, note=70, velocity=112, time=1),
    Message('note_on', channel=1, note=70, velocity=0, time=239),
    Message('note_on', channel=1, note=69, velocity=112, time=1),
    Message('note_on', channel=1, note=69, velocity=0, time=239),
    Message('note_on', channel=1, note=65, velocity=112, time=1),
    Message('note_on', channel=1, note=65, velocity=0, time=239),
    Message('note_on', channel=1, note=64, velocity=112, time=1),
    Message('note_on', channel=1, note=64, velocity=0, time=239),
    Message('note_on', channel=1, note=62, velocity=112, time=1),
    Message('note_on', channel=1, note=62, velocity=0, time=479),
    Message('note_on', channel=1, note=62, velocity=112, time=1),
    Message('note_on', channel=1, note=62, velocity=0, time=239),
    Message('note_on', channel=1, note=64, velocity=112, time=1),
    Message('note_on', channel=1, note=64, velocity=0, time=239),
    Message('note_on', channel=1, note=62, velocity=112, time=1),
    Message('note_on', channel=1, note=62, velocity=0, time=479),
    Message('note_on', channel=1, note=62, velocity=112, time=1),
    Message('note_on', channel=1, note=62, velocity=0, time=239),
    Message('note_on', channel=1, note=64, velocity=112, time=1),
    Message('note_on', channel=1, note=64, velocity=0, time=239),
    Message('note_on', channel=1, note=62, velocity=112, time=1),
    Message('note_on', channel=1, note=62, velocity=0, time=479),
    Message('note_on', channel=1, note=58, velocity=112, time=1),
    Message('note_on', channel=1, note=58, velocity=0, time=239),
    Message('note_on', channel=1, note=60, velocity=112, time=1),
    Message('note_on', channel=1, note=60, velocity=0, time=239),
    Message('note_on', channel=1, note=62, velocity=112, time=1),
    Message('note_on', channel=1, note=62, velocity=0, time=239),
    Message('note_on', channel=1, note=64, velocity=112, time=1),
    Message('note_on', channel=1, note=64, velocity=0, time=239),
    Message('note_on', channel=1, note=65, velocity=112, time=1),
    Message('note_on', channel=1, note=65, velocity=0, time=239),
    Message('note_on', channel=1, note=64, velocity=112, time=1),
    Message('note_on', channel=1, note=64, velocity=0, time=239),
    Message('note_on', channel=1, note=62, velocity=112, time=1),
    Message('note_on', channel=1, note=62, velocity=0, time=239),
    Message('note_on', channel=1, note=60, velocity=112, time=1),
    Message('note_on', channel=1, note=60, velocity=0, time=239),
    Message('note_on', channel=1, note=62, velocity=112, time=1),
    Message('note_on', channel=1, note=62, velocity=0, time=1919),
    Message('note_on', channel=1, note=69, velocity=112, time=11521),
    Message('note_on', channel=1, note=69, velocity=0, time=479),
    Message('note_on', channel=1, note=69, velocity=112, time=1),
    Message('note_on', channel=1, note=69, velocity=0, time=479),
    Message('note_on', channel=1, note=69, velocity=112, time=481),
    Message('note_on', channel=1, note=69, velocity=0, time=479),
    Message('note_on', channel=1, note=65, velocity=112, time=1),
    Message('note_on', channel=1, note=65, velocity=0, time=479),
    Message('note_on', channel=1, note=65, velocity=112, time=1),
    Message('note_on', channel=1, note=65, velocity=0, time=479),
    Message('note_on', channel=1, note=70, velocity=112, time=481),
    Message('note_on', channel=1, note=70, velocity=0, time=479),
    Message('note_on', channel=1, note=60, velocity=112, time=1),
    Message('note_on', channel=1, note=60, velocity=0, time=479),
    Message('note_on', channel=1, note=60, velocity=112, time=1),
    Message('note_on', channel=1, note=60, velocity=0, time=479),
    Message('note_on', channel=1, note=65, velocity=112, time=481),
    Message('note_on', channel=1, note=65, velocity=0, time=479),
    Message('note_on', channel=1, note=60, velocity=112, time=1),
    Message('note_on', channel=1, note=60, velocity=0, time=479),
    Message('note_on', channel=1, note=60, velocity=112, time=1),
    Message('note_on', channel=1, note=60, velocity=0, time=479),
    Message('note_on', channel=1, note=67, velocity=112, time=1),
    Message('note_on', channel=1, note=67, velocity=0, time=479),
    Message('note_on', channel=1, note=67, velocity=112, time=1),
    Message('note_on', channel=1, note=67, velocity=0, time=479),
    Message('note_on', channel=1, note=69, velocity=112, time=1),
    Message('note_on', channel=1, note=69, velocity=0, time=479),
    Message('note_on', channel=1, note=69, velocity=112, time=1),
    Message('note_on', channel=1, note=69, velocity=0, time=479),
    Message('note_on', channel=1, note=69, velocity=112, time=481),
    Message('note_on', channel=1, note=69, velocity=0, time=479),
    Message('note_on', channel=1, note=65, velocity=112, time=1),
    Message('note_on', channel=1, note=65, velocity=0, time=479),
    Message('note_on', channel=1, note=65, velocity=112, time=1),
    Message('note_on', channel=1, note=65, velocity=0, time=479),
    Message('note_on', channel=1, note=70, velocity=112, time=481),
    Message('note_on', channel=1, note=70, velocity=0, time=479),
    Message('note_on', channel=1, note=72, velocity=112, time=1),
    Message('note_on', channel=1, note=72, velocity=0, time=479),
    Message('note_on', channel=1, note=72, velocity=112, time=1),
    Message('note_on', channel=1, note=72, velocity=0, time=479),
    Message('note_on', channel=1, note=72, velocity=112, time=481),
    Message('note_on', channel=1, note=72, velocity=0, time=479),
    Message('note_on', channel=1, note=72, velocity=112, time=1),
    Message('note_on', channel=1, note=72, velocity=0, time=479),
    Message('note_on', channel=1, note=72, velocity=112, time=1),
    Message('note_on', channel=1, note=72, velocity=0, time=479),
    Message('note_on', channel=1, note=67, velocity=112, time=1),
    Message('note_on', channel=1, note=67, velocity=0, time=479),
    Message('note_on', channel=1, note=67, velocity=112, time=1),
    Message('note_on', channel=1, note=67, velocity=0, time=479),
    Message('note_on', channel=1, note=69, velocity=64, time=1),
    Message('note_on', channel=1, note=69, velocity=0, time=479),
    Message('note_on', channel=1, note=69, velocity=64, time=1),
    Message('note_on', channel=1, note=69, velocity=0, time=479),
    Message('note_on', channel=1, note=74, velocity=64, time=1),
    Message('note_on', channel=1, note=74, velocity=0, time=479),
    Message('note_on', channel=1, note=74, velocity=64, time=1),
    Message('note_on', channel=1, note=74, velocity=0, time=479),
    Message('note_on', channel=1, note=65, velocity=64, time=1),
    Message('note_on', channel=1, note=65, velocity=0, time=479),
    Message('note_on', channel=1, note=65, velocity=64, time=1),
    Message('note_on', channel=1, note=65, velocity=0, time=479),
    Message('note_on', channel=1, note=70, velocity=64, time=1),
    Message('note_on', channel=1, note=70, velocity=0, time=479),
    Message('note_on', channel=1, note=70, velocity=64, time=1),
    Message('note_on', channel=1, note=70, velocity=0, time=479),
    Message('note_on', channel=1, note=60, velocity=64, time=1),
    Message('note_on', channel=1, note=60, velocity=0, time=479),
    Message('note_on', channel=1, note=60, velocity=64, time=1),
    Message('note_on', channel=1, note=60, velocity=0, time=479),
    Message('note_on', channel=1, note=65, velocity=64, time=1),
    Message('note_on', channel=1, note=65, velocity=0, time=479),
    Message('note_on', channel=1, note=65, velocity=64, time=1),
    Message('note_on', channel=1, note=65, velocity=0, time=479),
    Message('note_on', channel=1, note=65, velocity=64, time=1),
    Message('note_on', channel=1, note=65, velocity=0, time=479),
    Message('note_on', channel=1, note=65, velocity=64, time=1),
    Message('note_on', channel=1, note=65, velocity=0, time=479),
    Message('note_on', channel=1, note=67, velocity=64, time=1),
    Message('note_on', channel=1, note=67, velocity=0, time=479),
    Message('note_on', channel=1, note=67, velocity=64, time=1),
    Message('note_on', channel=1, note=67, velocity=0, time=479),
    Message('note_on', channel=1, note=69, velocity=64, time=1),
    Message('note_on', channel=1, note=69, velocity=0, time=479),
    Message('note_on', channel=1, note=69, velocity=64, time=1),
    Message('note_on', channel=1, note=69, velocity=0, time=479),
    Message('note_on', channel=1, note=74, velocity=64, time=1),
    Message('note_on', channel=1, note=74, velocity=0, time=479),
    Message('note_on', channel=1, note=74, velocity=64, time=1),
    Message('note_on', channel=1, note=74, velocity=0, time=479),
    Message('note_on', channel=1, note=65, velocity=64, time=1),
    Message('note_on', channel=1, note=65, velocity=0, time=479),
    Message('note_on', channel=1, note=65, velocity=64, time=1),
    Message('note_on', channel=1, note=65, velocity=0, time=479),
    Message('note_on', channel=1, note=58, velocity=64, time=1),
    Message('note_on', channel=1, note=58, velocity=0, time=479),
    Message('note_on', channel=1, note=58, velocity=64, time=1),
    Message('note_on', channel=1, note=58, velocity=0, time=479),
    Message('note_on', channel=1, note=60, velocity=64, time=1),
    Message('note_on', channel=1, note=60, velocity=0, time=479),
    Message('note_on', channel=1, note=60, velocity=64, time=1),
    Message('note_on', channel=1, note=60, velocity=0, time=479),
    Message('note_on', channel=1, note=65, velocity=64, time=1),
    Message('note_on', channel=1, note=65, velocity=0, time=479),
    Message('note_on', channel=1, note=65, velocity=64, time=1),
    Message('note_on', channel=1, note=65, velocity=0, time=479),
    Message('note_on', channel=1, note=65, velocity=64, time=1),
    Message('note_on', channel=1, note=65, velocity=0, time=479),
    Message('note_on', channel=1, note=69, velocity=64, time=1),
    Message('note_on', channel=1, note=69, velocity=0, time=239),
    Message('note_on', channel=1, note=69, velocity=64, time=1),
    Message('note_on', channel=1, note=69, velocity=0, time=239),
    Message('note_on', channel=1, note=69, velocity=64, time=1),
    Message('note_on', channel=1, note=69, velocity=0, time=479),
    Message('note_on', channel=1, note=69, velocity=64, time=1),
    Message('note_on', channel=1, note=69, velocity=0, time=479),
    Message('note_on', channel=1, note=69, velocity=64, time=1),
    Message('note_on', channel=1, note=69, velocity=0, time=719),
    Message('note_on', channel=1, note=69, velocity=64, time=1),
    Message('note_on', channel=1, note=69, velocity=0, time=239),
    Message('note_on', channel=1, note=69, velocity=64, time=1),
    Message('note_on', channel=1, note=69, velocity=0, time=479),
    Message('note_on', channel=1, note=69, velocity=64, time=1),
    Message('note_on', channel=1, note=69, velocity=0, time=719),
    Message('note_on', channel=1, note=69, velocity=64, time=1),
    Message('note_on', channel=1, note=69, velocity=0, time=239),
    Message('note_on', channel=1, note=69, velocity=64, time=1),
    Message('note_on', channel=1, note=69, velocity=0, time=479),
    Message('note_on', channel=1, note=69, velocity=64, time=1),
    Message('note_on', channel=1, note=69, velocity=0, time=239),
    Message('note_on', channel=1, note=69, velocity=64, time=1),
    Message('note_on', channel=1, note=69, velocity=0, time=239),
    Message('note_on', channel=1, note=67, velocity=64, time=1),
    Message('note_on', channel=1, note=67, velocity=0, time=239),
    Message('note_on', channel=1, note=67, velocity=64, time=1),
    Message('note_on', channel=1, note=67, velocity=0, time=239),
    Message('note_on', channel=1, note=69, velocity=64, time=1),
    Message('note_on', channel=1, note=69, velocity=0, time=719),
    Message('note_on', channel=1, note=69, velocity=64, time=1),
    Message('note_on', channel=1, note=69, velocity=0, time=239),
    Message('note_on', channel=1, note=69, velocity=64, time=1),
    Message('note_on', channel=1, note=69, velocity=0, time=479),
    Message('note_on', channel=1, note=69, velocity=64, time=1),
    Message('note_on', channel=1, note=69, velocity=0, time=719),
    Message('note_on', channel=1, note=69, velocity=64, time=1),
    Message('note_on', channel=1, note=69, velocity=0, time=239),
    Message('note_on', channel=1, note=69, velocity=64, time=1),
    Message('note_on', channel=1, note=69, velocity=0, time=479),
    Message('note_on', channel=1, note=69, velocity=64, time=1),
    Message('note_on', channel=1, note=69, velocity=0, time=239),
    Message('note_on', channel=1, note=69, velocity=64, time=1),
    Message('note_on', channel=1, note=69, velocity=0, time=239),
    Message('note_on', channel=1, note=67, velocity=64, time=1),
    Message('note_on', channel=1, note=67, velocity=0, time=239),
    Message('note_on', channel=1, note=67, velocity=64, time=1),
    Message('note_on', channel=1, note=67, velocity=0, time=239),
    Message('note_on', channel=1, note=69, velocity=64, time=1),
    Message('note_on', channel=1, note=69, velocity=0, time=719),
    Message('note_on', channel=1, note=69, velocity=64, time=1),
    Message('note_on', channel=1, note=69, velocity=0, time=239),
    Message('note_on', channel=1, note=69, velocity=64, time=1),
    Message('note_on', channel=1, note=69, velocity=0, time=479),
    Message('note_on', channel=1, note=69, velocity=64, time=1),
    Message('note_on', channel=1, note=69, velocity=0, time=719),
    Message('note_on', channel=1, note=69, velocity=64, time=1),
    Message('note_on', channel=1, note=69, velocity=0, time=239),
    Message('note_on', channel=1, note=69, velocity=64, time=1),
    Message('note_on', channel=1, note=69, velocity=0, time=479),
    Message('note_on', channel=1, note=69, velocity=64, time=1),
    Message('note_on', channel=1, note=69, velocity=0, time=239),
    Message('note_on', channel=1, note=69, velocity=64, time=1),
    Message('note_on', channel=1, note=69, velocity=0, time=239),
    Message('note_on', channel=1, note=67, velocity=64, time=1),
    Message('note_on', channel=1, note=67, velocity=0, time=239),
    Message('note_on', channel=1, note=67, velocity=64, time=1),
    Message('note_on', channel=1, note=67, velocity=0, time=239),
    Message('note_on', channel=1, note=69, velocity=64, time=1),
    Message('note_on', channel=1, note=69, velocity=0, time=719),
    Message('note_on', channel=1, note=69, velocity=64, time=1),
    Message('note_on', channel=1, note=69, velocity=0, time=239),
    Message('note_on', channel=1, note=69, velocity=64, time=1),
    Message('note_on', channel=1, note=69, velocity=0, time=479),
    Message('note_on', channel=1, note=69, velocity=64, time=1),
    Message('note_on', channel=1, note=69, velocity=0, time=719),
    Message('note_on', channel=1, note=69, velocity=64, time=1),
    Message('note_on', channel=1, note=69, velocity=0, time=239),
    Message('note_on', channel=1, note=69, velocity=64, time=1),
    Message('note_on', channel=1, note=69, velocity=0, time=479),
    Message('note_on', channel=1, note=69, velocity=64, time=1),
    Message('note_on', channel=1, note=69, velocity=0, time=239),
    Message('note_on', channel=1, note=69, velocity=64, time=1),
    Message('note_on', channel=1, note=69, velocity=0, time=239),
    Message('note_on', channel=1, note=67, velocity=64, time=1),
    Message('note_on', channel=1, note=67, velocity=0, time=239),
    Message('note_on', channel=1, note=67, velocity=64, time=1),
    Message('note_on', channel=1, note=67, velocity=0, time=239),
    Message('note_on', channel=1, note=69, velocity=64, time=1),
    Message('note_on', channel=1, note=69, velocity=0, time=719),
    Message('note_on', channel=1, note=69, velocity=64, time=1),
    Message('note_on', channel=1, note=69, velocity=0, time=239),
    Message('note_on', channel=1, note=69, velocity=64, time=1),
    Message('note_on', channel=1, note=69, velocity=0, time=479),
    Message('note_on', channel=1, note=69, velocity=64, time=1),
    Message('note_on', channel=1, note=69, velocity=0, time=719),
    Message('note_on', channel=1, note=69, velocity=64, time=1),
    Message('note_on', channel=1, note=69, velocity=0, time=239),
    Message('note_on', channel=1, note=69, velocity=64, time=1),
    Message('note_on', channel=1, note=69, velocity=0, time=479),
    Message('note_on', channel=1, note=69, velocity=64, time=1),
    Message('note_on', channel=1, note=69, velocity=0, time=239),
    Message('note_on', channel=1, note=69, velocity=64, time=1),
    Message('note_on', channel=1, note=69, velocity=0, time=239),
    Message('note_on', channel=1, note=67, velocity=64, time=1),
    Message('note_on', channel=1, note=67, velocity=0, time=239),
    Message('note_on', channel=1, note=67, velocity=64, time=1),
    Message('note_on', channel=1, note=67, velocity=0, time=239),
    Message('note_on', channel=1, note=69, velocity=64, time=1),
    Message('note_on', channel=1, note=69, velocity=0, time=719),
    Message('note_on', channel=1, note=69, velocity=64, time=1),
    Message('note_on', channel=1, note=69, velocity=0, time=239),
    Message('note_on', channel=1, note=69, velocity=64, time=1),
    Message('note_on', channel=1, note=69, velocity=0, time=479),
    Message('note_on', channel=1, note=69, velocity=64, time=1),
    Message('note_on', channel=1, note=69, velocity=0, time=959),
    Message('note_on', channel=1, note=72, velocity=64, time=2641),
    Message('note_on', channel=1, note=72, velocity=0, time=239),
    Message('note_on', channel=1, note=72, velocity=64, time=1),
    Message('note_on', channel=1, note=72, velocity=0, time=239),
    Message('note_on', channel=1, note=74, velocity=64, time=1),
    Message('note_on', channel=1, note=74, velocity=0, time=239),
    Message('note_on', channel=1, note=69, velocity=64, time=1),
    Message('note_on', channel=1, note=69, velocity=0, time=479),
    Message('note_on', channel=1, note=69, velocity=64, time=1),
    Message('note_on', channel=1, note=69, velocity=0, time=479),
    Message('note_on', channel=1, note=69, velocity=64, time=481),
    Message('note_on', channel=1, note=69, velocity=0, time=479),
    Message('note_on', channel=1, note=65, velocity=64, time=1),
    Message('note_on', channel=1, note=65, velocity=0, time=479),
    Message('note_on', channel=1, note=65, velocity=64, time=1),
    Message('note_on', channel=1, note=65, velocity=0, time=479),
    Message('note_on', channel=1, note=70, velocity=64, time=481),
    Message('note_on', channel=1, note=70, velocity=0, time=479),
    Message('note_on', channel=1, note=60, velocity=64, time=1),
    Message('note_on', channel=1, note=60, velocity=0, time=479),
    Message('note_on', channel=1, note=60, velocity=64, time=1),
    Message('note_on', channel=1, note=60, velocity=0, time=479),
    Message('note_on', channel=1, note=65, velocity=64, time=481),
    Message('note_on', channel=1, note=65, velocity=0, time=479),
    Message('note_on', channel=1, note=60, velocity=64, time=1),
    Message('note_on', channel=1, note=60, velocity=0, time=479),
    Message('note_on', channel=1, note=60, velocity=64, time=1),
    Message('note_on', channel=1, note=60, velocity=0, time=479),
    Message('note_on', channel=1, note=67, velocity=64, time=1),
    Message('note_on', channel=1, note=67, velocity=0, time=479),
    Message('note_on', channel=1, note=67, velocity=64, time=1),
    Message('note_on', channel=1, note=67, velocity=0, time=479),
    Message('note_on', channel=1, note=69, velocity=64, time=1),
    Message('note_on', channel=1, note=69, velocity=0, time=479),
    Message('note_on', channel=1, note=69, velocity=64, time=1),
    Message('note_on', channel=1, note=69, velocity=0, time=479),
    Message('note_on', channel=1, note=69, velocity=64, time=481),
    Message('note_on', channel=1, note=69, velocity=0, time=479),
    Message('note_on', channel=1, note=65, velocity=64, time=1),
    Message('note_on', channel=1, note=65, velocity=0, time=479),
    Message('note_on', channel=1, note=65, velocity=64, time=1),
    Message('note_on', channel=1, note=65, velocity=0, time=479),
    Message('note_on', channel=1, note=70, velocity=64, time=481),
    Message('note_on', channel=1, note=70, velocity=0, time=479),
    Message('note_on', channel=1, note=72, velocity=64, time=1),
    Message('note_on', channel=1, note=72, velocity=0, time=479),
    Message('note_on', channel=1, note=72, velocity=64, time=1),
    Message('note_on', channel=1, note=72, velocity=0, time=479),
    Message('note_on', channel=1, note=72, velocity=64, time=481),
    Message('note_on', channel=1, note=72, velocity=0, time=479),
    Message('note_on', channel=1, note=72, velocity=64, time=1),
    Message('note_on', channel=1, note=72, velocity=0, time=479),
    Message('note_on', channel=1, note=72, velocity=64, time=1),
    Message('note_on', channel=1, note=72, velocity=0, time=479),
    Message('note_on', channel=1, note=67, velocity=64, time=1),
    Message('note_on', channel=1, note=67, velocity=0, time=479),
    Message('note_on', channel=1, note=67, velocity=64, time=1),
    Message('note_on', channel=1, note=67, velocity=0, time=479),
    Message('note_on', channel=1, note=69, velocity=64, time=1),
    Message('note_on', channel=1, note=69, velocity=0, time=479),
    Message('note_on', channel=1, note=69, velocity=64, time=1),
    Message('note_on', channel=1, note=69, velocity=0, time=479),
    Message('note_on', channel=1, note=74, velocity=64, time=1),
    Message('note_on', channel=1, note=74, velocity=0, time=479),
    Message('note_on', channel=1, note=74, velocity=64, time=1),
    Message('note_on', channel=1, note=74, velocity=0, time=479),
    Message('note_on', channel=1, note=65, velocity=64, time=1),
    Message('note_on', channel=1, note=65, velocity=0, time=479),
    Message('note_on', channel=1, note=65, velocity=64, time=1),
    Message('note_on', channel=1, note=65, velocity=0, time=479),
    Message('note_on', channel=1, note=70, velocity=64, time=1),
    Message('note_on', channel=1, note=70, velocity=0, time=479),
    Message('note_on', channel=1, note=70, velocity=64, time=1),
    Message('note_on', channel=1, note=70, velocity=0, time=479),
    Message('note_on', channel=1, note=60, velocity=64, time=1),
    Message('note_on', channel=1, note=60, velocity=0, time=479),
    Message('note_on', channel=1, note=60, velocity=64, time=1),
    Message('note_on', channel=1, note=60, velocity=0, time=479),
    Message('note_on', channel=1, note=65, velocity=64, time=1),
    Message('note_on', channel=1, note=65, velocity=0, time=479),
    Message('note_on', channel=1, note=65, velocity=64, time=1),
    Message('note_on', channel=1, note=65, velocity=0, time=479),
    Message('note_on', channel=1, note=65, velocity=64, time=1),
    Message('note_on', channel=1, note=65, velocity=0, time=479),
    Message('note_on', channel=1, note=65, velocity=64, time=1),
    Message('note_on', channel=1, note=65, velocity=0, time=479),
    Message('note_on', channel=1, note=67, velocity=64, time=1),
    Message('note_on', channel=1, note=67, velocity=0, time=479),
    Message('note_on', channel=1, note=67, velocity=64, time=1),
    Message('note_on', channel=1, note=67, velocity=0, time=479),
    Message('note_on', channel=1, note=69, velocity=64, time=1),
    Message('note_on', channel=1, note=69, velocity=0, time=479),
    Message('note_on', channel=1, note=69, velocity=64, time=1),
    Message('note_on', channel=1, note=69, velocity=0, time=479),
    Message('note_on', channel=1, note=74, velocity=64, time=1),
    Message('note_on', channel=1, note=74, velocity=0, time=479),
    Message('note_on', channel=1, note=74, velocity=64, time=1),
    Message('note_on', channel=1, note=74, velocity=0, time=479),
    Message('note_on', channel=1, note=65, velocity=64, time=1),
    Message('note_on', channel=1, note=65, velocity=0, time=479),
    Message('note_on', channel=1, note=65, velocity=64, time=1),
    Message('note_on', channel=1, note=65, velocity=0, time=479),
    Message('note_on', channel=1, note=58, velocity=64, time=1),
    Message('note_on', channel=1, note=58, velocity=0, time=479),
    Message('note_on', channel=1, note=58, velocity=64, time=1),
    Message('note_on', channel=1, note=58, velocity=0, time=479),
    Message('note_on', channel=1, note=60, velocity=64, time=1),
    Message('note_on', channel=1, note=60, velocity=0, time=479),
    Message('note_on', channel=1, note=60, velocity=64, time=1),
    Message('note_on', channel=1, note=60, velocity=0, time=479),
    Message('note_on', channel=1, note=65, velocity=64, time=1),
    Message('note_on', channel=1, note=65, velocity=0, time=479),
    Message('note_on', channel=1, note=65, velocity=64, time=1),
    Message('note_on', channel=1, note=65, velocity=0, time=479),
    Message('note_on', channel=1, note=65, velocity=64, time=1),
    Message('note_on', channel=1, note=65, velocity=0, time=479),
    Message('note_on', channel=1, note=69, velocity=64, time=1),
    Message('note_on', channel=1, note=69, velocity=0, time=239),
    Message('note_on', channel=1, note=69, velocity=64, time=1),
    Message('note_on', channel=1, note=69, velocity=0, time=239),
    Message('note_on', channel=1, note=69, velocity=64, time=1),
    Message('note_on', channel=1, note=69, velocity=0, time=479),
    Message('note_on', channel=1, note=69, velocity=64, time=1),
    Message('note_on', channel=1, note=69, velocity=0, time=479),
    MetaMessage('end_of_track', time=1)]),
  MidiTrack([
    MetaMessage('key_signature', key='D', time=0),
    Message('program_change', channel=2, program=65, time=0),
    Message('control_change', channel=2, control=7, value=100, time=2),
    Message('control_change', channel=2, control=10, value=64, time=2),
    Message('control_change', channel=2, control=91, value=30, time=2),
    Message('control_change', channel=2, control=93, value=30, time=2),
    Message('note_on', channel=2, note=62, velocity=80, time=7672),
    Message('note_on', channel=2, note=62, velocity=0, time=719),
    Message('note_on', channel=2, note=69, velocity=80, time=1),
    Message('note_on', channel=2, note=69, velocity=0, time=719),
    Message('note_on', channel=2, note=67, velocity=80, time=1),
    Message('note_on', channel=2, note=67, velocity=0, time=239),
    Message('note_on', channel=2, note=65, velocity=80, time=1),
    Message('note_on', channel=2, note=65, velocity=0, time=239),
    Message('note_on', channel=2, note=67, velocity=80, time=1),
    Message('note_on', channel=2, note=67, velocity=0, time=719),
    Message('note_on', channel=2, note=69, velocity=80, time=1),
    Message('note_on', channel=2, note=69, velocity=0, time=719),
    Message('note_on', channel=2, note=67, velocity=80, time=1),
    Message('note_on', channel=2, note=67, velocity=0, time=239),
    Message('note_on', channel=2, note=65, velocity=80, time=1),
    Message('note_on', channel=2, note=65, velocity=0, time=239),
    Message('note_on', channel=2, note=67, velocity=80, time=1),
    Message('note_on', channel=2, note=67, velocity=0, time=719),
    Message('note_on', channel=2, note=69, velocity=80, time=1),
    Message('note_on', channel=2, note=69, velocity=0, time=479),
    Message('note_on', channel=2, note=65, velocity=80, time=1),
    Message('note_on', channel=2, note=65, velocity=0, time=239),
    Message('note_on', channel=2, note=64, velocity=80, time=1),
    Message('note_on', channel=2, note=64, velocity=0, time=239),
    Message('note_on', channel=2, note=62, velocity=80, time=1),
    Message('note_on', channel=2, note=62, velocity=0, time=2159),
    Message('note_on', channel=2, note=62, velocity=80, time=1),
    Message('note_on', channel=2, note=62, velocity=0, time=719),
    Message('note_on', channel=2, note=69, velocity=80, time=1),
    Message('note_on', channel=2, note=69, velocity=0, time=719),
    Message('note_on', channel=2, note=67, velocity=80, time=1),
    Message('note_on', channel=2, note=67, velocity=0, time=239),
    Message('note_on', channel=2, note=65, velocity=80, time=1),
    Message('note_on', channel=2, note=65, velocity=0, time=239),
    Message('note_on', channel=2, note=67, velocity=80, time=1),
    Message('note_on', channel=2, note=67, velocity=0, time=719),
    Message('note_on', channel=2, note=69, velocity=80, time=1),
    Message('note_on', channel=2, note=69, velocity=0, time=719),
    Message('note_on', channel=2, note=67, velocity=80, time=1),
    Message('note_on', channel=2, note=67, velocity=0, time=239),
    Message('note_on', channel=2, note=65, velocity=80, time=1),
    Message('note_on', channel=2, note=65, velocity=0, time=239),
    Message('note_on', channel=2, note=67, velocity=80, time=1),
    Message('note_on', channel=2, note=67, velocity=0, time=719),
    Message('note_on', channel=2, note=69, velocity=80, time=1),
    Message('note_on', channel=2, note=69, velocity=0, time=479),
    Message('note_on', channel=2, note=65, velocity=80, time=1),
    Message('note_on', channel=2, note=65, velocity=0, time=239),
    Message('note_on', channel=2, note=64, velocity=80, time=1),
    Message('note_on', channel=2, note=64, velocity=0, time=239),
    Message('note_on', channel=2, note=74, velocity=80, time=1),
    Message('note_on', channel=2, note=74, velocity=0, time=2159),
    Message('note_on', channel=2, note=77, velocity=80, time=1),
    Message('note_on', channel=2, note=77, velocity=0, time=239),
    Message('note_on', channel=2, note=77, velocity=80, time=1),
    Message('note_on', channel=2, note=77, velocity=0, time=239),
    Message('note_on', channel=2, note=77, velocity=80, time=1),
    Message('note_on', channel=2, note=77, velocity=0, time=239),
    Message('note_on', channel=2, note=77, velocity=80, time=1),
    Message('note_on', channel=2, note=77, velocity=0, time=239),
    Message('note_on', channel=2, note=77, velocity=80, time=1),
    Message('note_on', channel=2, note=77, velocity=0, time=239),
    Message('note_on', channel=2, note=77, velocity=80, time=1),
    Message('note_on', channel=2, note=77, velocity=0, time=239),
    Message('note_on', channel=2, note=76, velocity=80, time=1),
    Message('note_on', channel=2, note=76, velocity=0, time=239),
    Message('note_on', channel=2, note=74, velocity=80, time=1),
    Message('note_on', channel=2, note=74, velocity=0, time=239),
    Message('note_on', channel=2, note=74, velocity=80, time=961),
    Message('note_on', channel=2, note=74, velocity=0, time=479),
    Message('note_on', channel=2, note=74, velocity=80, time=1),
    Message('note_on', channel=2, note=74, velocity=0, time=239),
    Message('note_on', channel=2, note=76, velocity=80, time=1),
    Message('note_on', channel=2, note=76, velocity=0, time=239),
    Message('note_on', channel=2, note=77, velocity=80, time=1),
    Message('note_on', channel=2, note=77, velocity=0, time=239),
    Message('note_on', channel=2, note=76, velocity=80, time=1),
    Message('note_on', channel=2, note=76, velocity=0, time=239),
    Message('note_on', channel=2, note=74, velocity=80, time=1),
    Message('note_on', channel=2, note=74, velocity=0, time=239),
    Message('note_on', channel=2, note=76, velocity=80, time=1),
    Message('note_on', channel=2, note=76, velocity=0, time=239),
    Message('note_on', channel=2, note=77, velocity=80, time=1),
    Message('note_on', channel=2, note=77, velocity=0, time=239),
    Message('note_on', channel=2, note=76, velocity=80, time=1),
    Message('note_on', channel=2, note=76, velocity=0, time=239),
    Message('note_on', channel=2, note=74, velocity=80, time=1),
    Message('note_on', channel=2, note=74, velocity=0, time=479),
    Message('note_on', channel=2, note=74, velocity=80, time=961),
    Message('note_on', channel=2, note=74, velocity=0, time=479),
    Message('note_on', channel=2, note=74, velocity=80, time=1),
    Message('note_on', channel=2, note=74, velocity=0, time=239),
    Message('note_on', channel=2, note=76, velocity=80, time=1),
    Message('note_on', channel=2, note=76, velocity=0, time=239),
    Message('note_on', channel=2, note=77, velocity=80, time=1),
    Message('note_on', channel=2, note=77, velocity=0, time=239),
    Message('note_on', channel=2, note=76, velocity=80, time=1),
    Message('note_on', channel=2, note=76, velocity=0, time=239),
    Message('note_on', channel=2, note=74, velocity=80, time=1),
    Message('note_on', channel=2, note=74, velocity=0, time=239),
    Message('note_on', channel=2, note=76, velocity=80, time=1),
    Message('note_on', channel=2, note=76, velocity=0, time=239),
    Message('note_on', channel=2, note=77, velocity=80, time=1),
    Message('note_on', channel=2, note=77, velocity=0, time=479),
    Message('note_on', channel=2, note=74, velocity=80, time=1),
    Message('note_on', channel=2, note=74, velocity=0, time=239),
    Message('note_on', channel=2, note=76, velocity=80, time=1),
    Message('note_on', channel=2, note=76, velocity=0, time=239),
    Message('note_on', channel=2, note=77, velocity=80, time=1),
    Message('note_on', channel=2, note=77, velocity=0, time=719),
    Message('note_on', channel=2, note=76, velocity=80, time=1),
    Message('note_on', channel=2, note=76, velocity=0, time=719),
    Message('note_on', channel=2, note=74, velocity=80, time=1),
    Message('note_on', channel=2, note=74, velocity=0, time=239),
    Message('note_on', channel=2, note=76, velocity=80, time=1),
    Message('note_on', channel=2, note=76, velocity=0, time=239),
    Message('note_on', channel=2, note=77, velocity=80, time=1),
    Message('note_on', channel=2, note=77, velocity=0, time=479),
    Message('note_on', channel=2, note=74, velocity=80, time=1),
    Message('note_on', channel=2, note=74, velocity=0, time=239),
    Message('note_on', channel=2, note=76, velocity=80, time=1),
    Message('note_on', channel=2, note=76, velocity=0, time=239),
    Message('note_on', channel=2, note=77, velocity=80, time=1),
    Message('note_on', channel=2, note=77, velocity=0, time=239),
    Message('note_on', channel=2, note=76, velocity=80, time=1),
    Message('note_on', channel=2, note=76, velocity=0, time=239),
    Message('note_on', channel=2, note=74, velocity=80, time=1),
    Message('note_on', channel=2, note=74, velocity=0, time=239),
    Message('note_on', channel=2, note=72, velocity=80, time=1),
    Message('note_on', channel=2, note=72, velocity=0, time=239),
    Message('note_on', channel=2, note=74, velocity=80, time=1),
    Message('note_on', channel=2, note=74, velocity=0, time=1919),
    Message('note_on', channel=2, note=77, velocity=80, time=1),
    Message('note_on', channel=2, note=77, velocity=0, time=239),
    Message('note_on', channel=2, note=77, velocity=80, time=1),
    Message('note_on', channel=2, note=77, velocity=0, time=239),
    Message('note_on', channel=2, note=77, velocity=80, time=1),
    Message('note_on', channel=2, note=77, velocity=0, time=479),
    Message('note_on', channel=2, note=77, velocity=80, time=1),
    Message('note_on', channel=2, note=77, velocity=0, time=239),
    Message('note_on', channel=2, note=77, velocity=80, time=1),
    Message('note_on', channel=2, note=77, velocity=0, time=239),
    Message('note_on', channel=2, note=76, velocity=80, time=1),
    Message('note_on', channel=2, note=76, velocity=0, time=239),
    Message('note_on', channel=2, note=74, velocity=80, time=1),
    Message('note_on', channel=2, note=74, velocity=0, time=239),
    Message('note_on', channel=2, note=74, velocity=80, time=961),
    Message('note_on', channel=2, note=74, velocity=0, time=479),
    Message('note_on', channel=2, note=74, velocity=80, time=1),
    Message('note_on', channel=2, note=74, velocity=0, time=239),
    Message('note_on', channel=2, note=76, velocity=80, time=1),
    Message('note_on', channel=2, note=76, velocity=0, time=239),
    Message('note_on', channel=2, note=77, velocity=80, time=1),
    Message('note_on', channel=2, note=77, velocity=0, time=239),
    Message('note_on', channel=2, note=76, velocity=80, time=1),
    Message('note_on', channel=2, note=76, velocity=0, time=239),
    Message('note_on', channel=2, note=74, velocity=80, time=1),
    Message('note_on', channel=2, note=74, velocity=0, time=239),
    Message('note_on', channel=2, note=76, velocity=80, time=1),
    Message('note_on', channel=2, note=76, velocity=0, time=239),
    Message('note_on', channel=2, note=77, velocity=80, time=1),
    Message('note_on', channel=2, note=77, velocity=0, time=239),
    Message('note_on', channel=2, note=76, velocity=80, time=1),
    Message('note_on', channel=2, note=76, velocity=0, time=239),
    Message('note_on', channel=2, note=74, velocity=80, time=1),
    Message('note_on', channel=2, note=74, velocity=0, time=239),
    Message('note_on', channel=2, note=76, velocity=80, time=1),
    Message('note_on', channel=2, note=76, velocity=0, time=239),
    Message('note_on', channel=2, note=74, velocity=80, time=961),
    Message('note_on', channel=2, note=74, velocity=0, time=479),
    Message('note_on', channel=2, note=74, velocity=80, time=1),
    Message('note_on', channel=2, note=74, velocity=0, time=239),
    Message('note_on', channel=2, note=76, velocity=80, time=1),
    Message('note_on', channel=2, note=76, velocity=0, time=239),
    Message('note_on', channel=2, note=77, velocity=80, time=1),
    Message('note_on', channel=2, note=77, velocity=0, time=239),
    Message('note_on', channel=2, note=76, velocity=80, time=1),
    Message('note_on', channel=2, note=76, velocity=0, time=239),
    Message('note_on', channel=2, note=74, velocity=80, time=1),
    Message('note_on', channel=2, note=74, velocity=0, time=239),
    Message('note_on', channel=2, note=76, velocity=80, time=1),
    Message('note_on', channel=2, note=76, velocity=0, time=239),
    Message('note_on', channel=2, note=77, velocity=80, time=1),
    Message('note_on', channel=2, note=77, velocity=0, time=239),
    Message('note_on', channel=2, note=76, velocity=80, time=1),
    Message('note_on', channel=2, note=76, velocity=0, time=239),
    Message('note_on', channel=2, note=74, velocity=80, time=1),
    Message('note_on', channel=2, note=74, velocity=0, time=479),
    Message('note_on', channel=2, note=77, velocity=80, time=1),
    Message('note_on', channel=2, note=77, velocity=0, time=239),
    Message('note_on', channel=2, note=76, velocity=80, time=1),
    Message('note_on', channel=2, note=76, velocity=0, time=239),
    Message('note_on', channel=2, note=74, velocity=80, time=1),
    Message('note_on', channel=2, note=74, velocity=0, time=479),
    Message('note_on', channel=2, note=77, velocity=80, time=1),
    Message('note_on', channel=2, note=77, velocity=0, time=239),
    Message('note_on', channel=2, note=76, velocity=80, time=1),
    Message('note_on', channel=2, note=76, velocity=0, time=239),
    Message('note_on', channel=2, note=74, velocity=80, time=1),
    Message('note_on', channel=2, note=74, velocity=0, time=479),
    Message('note_on', channel=2, note=77, velocity=80, time=1),
    Message('note_on', channel=2, note=77, velocity=0, time=239),
    Message('note_on', channel=2, note=76, velocity=80, time=1),
    Message('note_on', channel=2, note=76, velocity=0, time=239),
    Message('note_on', channel=2, note=74, velocity=80, time=1),
    Message('note_on', channel=2, note=74, velocity=0, time=239),
    Message('note_on', channel=2, note=76, velocity=80, time=1),
    Message('note_on', channel=2, note=76, velocity=0, time=239),
    Message('note_on', channel=2, note=77, velocity=80, time=1),
    Message('note_on', channel=2, note=77, velocity=0, time=239),
    Message('note_on', channel=2, note=76, velocity=80, time=1),
    Message('note_on', channel=2, note=76, velocity=0, time=239),
    Message('note_on', channel=2, note=74, velocity=80, time=1),
    Message('note_on', channel=2, note=74, velocity=0, time=239),
    Message('note_on', channel=2, note=72, velocity=80, time=1),
    Message('note_on', channel=2, note=72, velocity=0, time=239),
    Message('note_on', channel=2, note=74, velocity=80, time=1),
    Message('note_on', channel=2, note=74, velocity=0, time=1919),
    Message('note_on', channel=2, note=74, velocity=112, time=11521),
    Message('note_on', channel=2, note=74, velocity=0, time=479),
    Message('note_on', channel=2, note=74, velocity=112, time=1),
    Message('note_on', channel=2, note=74, velocity=0, time=479),
    Message('note_on', channel=2, note=74, velocity=112, time=1),
    Message('note_on', channel=2, note=74, velocity=0, time=239),
    Message('note_on', channel=2, note=65, velocity=112, time=1),
    Message('note_on', channel=2, note=65, velocity=0, time=239),
    Message('note_on', channel=2, note=72, velocity=112, time=1),
    Message('note_on', channel=2, note=72, velocity=0, time=239),
    Message('note_on', channel=2, note=74, velocity=112, time=1),
    Message('note_on', channel=2, note=74, velocity=0, time=239),
    Message('note_on', channel=2, note=74, velocity=112, time=1),
    Message('note_on', channel=2, note=74, velocity=0, time=479),
    Message('note_on', channel=2, note=74, velocity=112, time=1),
    Message('note_on', channel=2, note=74, velocity=0, time=479),
    Message('note_on', channel=2, note=74, velocity=112, time=1),
    Message('note_on', channel=2, note=74, velocity=0, time=239),
    Message('note_on', channel=2, note=69, velocity=112, time=1),
    Message('note_on', channel=2, note=69, velocity=0, time=239),
    Message('note_on', channel=2, note=72, velocity=112, time=1),
    Message('note_on', channel=2, note=72, velocity=0, time=239),
    Message('note_on', channel=2, note=74, velocity=112, time=1),
    Message('note_on', channel=2, note=74, velocity=0, time=239),
    Message('note_on', channel=2, note=74, velocity=112, time=1),
    Message('note_on', channel=2, note=74, velocity=0, time=479),
    Message('note_on', channel=2, note=74, velocity=112, time=1),
    Message('note_on', channel=2, note=74, velocity=0, time=479),
    Message('note_on', channel=2, note=74, velocity=112, time=1),
    Message('note_on', channel=2, note=74, velocity=0, time=239),
    Message('note_on', channel=2, note=69, velocity=112, time=1921),
    Message('note_on', channel=2, note=69, velocity=0, time=239),
    Message('note_on', channel=2, note=72, velocity=112, time=1),
    Message('note_on', channel=2, note=72, velocity=0, time=239),
    Message('note_on', channel=2, note=74, velocity=112, time=1),
    Message('note_on', channel=2, note=74, velocity=0, time=239),
    Message('note_on', channel=2, note=74, velocity=112, time=1),
    Message('note_on', channel=2, note=74, velocity=0, time=479),
    Message('note_on', channel=2, note=74, velocity=112, time=1),
    Message('note_on', channel=2, note=74, velocity=0, time=479),
    Message('note_on', channel=2, note=74, velocity=112, time=1),
    Message('note_on', channel=2, note=74, velocity=0, time=239),
    Message('note_on', channel=2, note=65, velocity=112, time=1),
    Message('note_on', channel=2, note=65, velocity=0, time=239),
    Message('note_on', channel=2, note=72, velocity=112, time=1),
    Message('note_on', channel=2, note=72, velocity=0, time=239),
    Message('note_on', channel=2, note=74, velocity=112, time=1),
    Message('note_on', channel=2, note=74, velocity=0, time=239),
    Message('note_on', channel=2, note=74, velocity=112, time=1),
    Message('note_on', channel=2, note=74, velocity=0, time=479),
    Message('note_on', channel=2, note=74, velocity=112, time=1),
    Message('note_on', channel=2, note=74, velocity=0, time=479),
    Message('note_on', channel=2, note=74, velocity=112, time=1),
    Message('note_on', channel=2, note=74, velocity=0, time=239),
    Message('note_on', channel=2, note=69, velocity=112, time=1),
    Message('note_on', channel=2, note=69, velocity=0, time=239),
    Message('note_on', channel=2, note=72, velocity=112, time=1),
    Message('note_on', channel=2, note=72, velocity=0, time=239),
    Message('note_on', channel=2, note=74, velocity=112, time=1),
    Message('note_on', channel=2, note=74, velocity=0, time=239),
    Message('note_on', channel=2, note=74, velocity=112, time=1),
    Message('note_on', channel=2, note=74, velocity=0, time=479),
    Message('note_on', channel=2, note=74, velocity=112, time=1),
    Message('note_on', channel=2, note=74, velocity=0, time=479),
    Message('note_on', channel=2, note=74, velocity=112, time=1),
    Message('note_on', channel=2, note=74, velocity=0, time=239),
    Message('note_on', channel=2, note=74, velocity=64, time=2641),
    Message('note_on', channel=2, note=74, velocity=0, time=239),
    Message('note_on', channel=2, note=65, velocity=64, time=1),
    Message('note_on', channel=2, note=65, velocity=0, time=239),
    Message('note_on', channel=2, note=74, velocity=64, time=1),
    Message('note_on', channel=2, note=74, velocity=0, time=239),
    Message('note_on', channel=2, note=65, velocity=64, time=1),
    Message('note_on', channel=2, note=65, velocity=0, time=239),
    Message('note_on', channel=2, note=74, velocity=64, time=1),
    Message('note_on', channel=2, note=74, velocity=0, time=239),
    Message('note_on', channel=2, note=65, velocity=64, time=1),
    Message('note_on', channel=2, note=65, velocity=0, time=239),
    Message('note_on', channel=2, note=74, velocity=64, time=1),
    Message('note_on', channel=2, note=74, velocity=0, time=239),
    Message('note_on', channel=2, note=65, velocity=64, time=1),
    Message('note_on', channel=2, note=65, velocity=0, time=239),
    Message('note_on', channel=2, note=74, velocity=64, time=1),
    Message('note_on', channel=2, note=74, velocity=0, time=239),
    Message('note_on', channel=2, note=65, velocity=64, time=1),
    Message('note_on', channel=2, note=65, velocity=0, time=239),
    Message('note_on', channel=2, note=74, velocity=64, time=1),
    Message('note_on', channel=2, note=74, velocity=0, time=239),
    Message('note_on', channel=2, note=65, velocity=64, time=1),
    Message('note_on', channel=2, note=65, velocity=0, time=239),
    Message('note_on', channel=2, note=74, velocity=64, time=1),
    Message('note_on', channel=2, note=74, velocity=0, time=239),
    Message('note_on', channel=2, note=65, velocity=64, time=1),
    Message('note_on', channel=2, note=65, velocity=0, time=239),
    Message('note_on', channel=2, note=74, velocity=64, time=1),
    Message('note_on', channel=2, note=74, velocity=0, time=239),
    Message('note_on', channel=2, note=65, velocity=64, time=1),
    Message('note_on', channel=2, note=65, velocity=0, time=239),
    Message('note_on', channel=2, note=74, velocity=64, time=1),
    Message('note_on', channel=2, note=74, velocity=0, time=239),
    Message('note_on', channel=2, note=65, velocity=64, time=1),
    Message('note_on', channel=2, note=65, velocity=0, time=239),
    Message('note_on', channel=2, note=74, velocity=64, time=1),
    Message('note_on', channel=2, note=74, velocity=0, time=239),
    Message('note_on', channel=2, note=65, velocity=64, time=1),
    Message('note_on', channel=2, note=65, velocity=0, time=239),
    Message('note_on', channel=2, note=74, velocity=64, time=1),
    Message('note_on', channel=2, note=74, velocity=0, time=239),
    Message('note_on', channel=2, note=65, velocity=64, time=1),
    Message('note_on', channel=2, note=65, velocity=0, time=239),
    Message('note_on', channel=2, note=74, velocity=64, time=1),
    Message('note_on', channel=2, note=74, velocity=0, time=239),
    Message('note_on', channel=2, note=65, velocity=64, time=1),
    Message('note_on', channel=2, note=65, velocity=0, time=239),
    Message('note_on', channel=2, note=69, velocity=64, time=1),
    Message('note_on', channel=2, note=69, velocity=0, time=239),
    Message('note_on', channel=2, note=65, velocity=64, time=1),
    Message('note_on', channel=2, note=65, velocity=0, time=239),
    Message('note_on', channel=2, note=69, velocity=64, time=1),
    Message('note_on', channel=2, note=69, velocity=0, time=239),
    Message('note_on', channel=2, note=65, velocity=64, time=1),
    Message('note_on', channel=2, note=65, velocity=0, time=239),
    Message('note_on', channel=2, note=69, velocity=64, time=1),
    Message('note_on', channel=2, note=69, velocity=0, time=239),
    Message('note_on', channel=2, note=65, velocity=64, time=1),
    Message('note_on', channel=2, note=65, velocity=0, time=239),
    Message('note_on', channel=2, note=69, velocity=64, time=1),
    Message('note_on', channel=2, note=69, velocity=0, time=239),
    Message('note_on', channel=2, note=65, velocity=64, time=1),
    Message('note_on', channel=2, note=65, velocity=0, time=239),
    Message('note_on', channel=2, note=74, velocity=64, time=1),
    Message('note_on', channel=2, note=74, velocity=0, time=239),
    Message('note_on', channel=2, note=65, velocity=64, time=1),
    Message('note_on', channel=2, note=65, velocity=0, time=239),
    Message('note_on', channel=2, note=74, velocity=64, time=1),
    Message('note_on', channel=2, note=74, velocity=0, time=239),
    Message('note_on', channel=2, note=65, velocity=64, time=1),
    Message('note_on', channel=2, note=65, velocity=0, time=239),
    Message('note_on', channel=2, note=74, velocity=64, time=1),
    Message('note_on', channel=2, note=74, velocity=0, time=239),
    Message('note_on', channel=2, note=65, velocity=64, time=1),
    Message('note_on', channel=2, note=65, velocity=0, time=239),
    Message('note_on', channel=2, note=74, velocity=64, time=1),
    Message('note_on', channel=2, note=74, velocity=0, time=239),
    Message('note_on', channel=2, note=65, velocity=64, time=1),
    Message('note_on', channel=2, note=65, velocity=0, time=239),
    Message('note_on', channel=2, note=74, velocity=64, time=1),
    Message('note_on', channel=2, note=74, velocity=0, time=239),
    Message('note_on', channel=2, note=65, velocity=64, time=1),
    Message('note_on', channel=2, note=65, velocity=0, time=239),
    Message('note_on', channel=2, note=74, velocity=64, time=1),
    Message('note_on', channel=2, note=74, velocity=0, time=239),
    Message('note_on', channel=2, note=65, velocity=64, time=1),
    Message('note_on', channel=2, note=65, velocity=0, time=239),
    Message('note_on', channel=2, note=74, velocity=64, time=1),
    Message('note_on', channel=2, note=74, velocity=0, time=239),
    Message('note_on', channel=2, note=65, velocity=64, time=1),
    Message('note_on', channel=2, note=65, velocity=0, time=239),
    Message('note_on', channel=2, note=74, velocity=64, time=1),
    Message('note_on', channel=2, note=74, velocity=0, time=239),
    Message('note_on', channel=2, note=65, velocity=64, time=1),
    Message('note_on', channel=2, note=65, velocity=0, time=239),
    Message('note_on', channel=2, note=74, velocity=64, time=1),
    Message('note_on', channel=2, note=74, velocity=0, time=239),
    Message('note_on', channel=2, note=65, velocity=64, time=1),
    Message('note_on', channel=2, note=65, velocity=0, time=239),
    Message('note_on', channel=2, note=74, velocity=64, time=1),
    Message('note_on', channel=2, note=74, velocity=0, time=239),
    Message('note_on', channel=2, note=65, velocity=64, time=1),
    Message('note_on', channel=2, note=65, velocity=0, time=239),
    Message('note_on', channel=2, note=74, velocity=64, time=1),
    Message('note_on', channel=2, note=74, velocity=0, time=239),
    Message('note_on', channel=2, note=65, velocity=64, time=1),
    Message('note_on', channel=2, note=65, velocity=0, time=239),
    Message('note_on', channel=2, note=74, velocity=64, time=1),
    Message('note_on', channel=2, note=74, velocity=0, time=239),
    Message('note_on', channel=2, note=65, velocity=64, time=1),
    Message('note_on', channel=2, note=65, velocity=0, time=239),
    Message('note_on', channel=2, note=69, velocity=64, time=1),
    Message('note_on', channel=2, note=69, velocity=0, time=239),
    Message('note_on', channel=2, note=65, velocity=64, time=1),
    Message('note_on', channel=2, note=65, velocity=0, time=239),
    Message('note_on', channel=2, note=69, velocity=64, time=1),
    Message('note_on', channel=2, note=69, velocity=0, time=239),
    Message('note_on', channel=2, note=65, velocity=64, time=1),
    Message('note_on', channel=2, note=65, velocity=0, time=239),
    Message('note_on', channel=2, note=69, velocity=64, time=1),
    Message('note_on', channel=2, note=69, velocity=0, time=239),
    Message('note_on', channel=2, note=65, velocity=64, time=1),
    Message('note_on', channel=2, note=65, velocity=0, time=239),
    Message('note_on', channel=2, note=69, velocity=64, time=1),
    Message('note_on', channel=2, note=69, velocity=0, time=239),
    Message('note_on', channel=2, note=65, velocity=64, time=1),
    Message('note_on', channel=2, note=65, velocity=0, time=239),
    Message('note_on', channel=2, note=62, velocity=64, time=7681),
    Message('note_on', channel=2, note=62, velocity=0, time=719),
    Message('note_on', channel=2, note=69, velocity=64, time=1),
    Message('note_on', channel=2, note=69, velocity=0, time=719),
    Message('note_on', channel=2, note=67, velocity=64, time=1),
    Message('note_on', channel=2, note=67, velocity=0, time=239),
    Message('note_on', channel=2, note=65, velocity=64, time=1),
    Message('note_on', channel=2, note=65, velocity=0, time=239),
    Message('note_on', channel=2, note=67, velocity=64, time=1),
    Message('note_on', channel=2, note=67, velocity=0, time=719),
    Message('note_on', channel=2, note=69, velocity=64, time=1),
    Message('note_on', channel=2, note=69, velocity=0, time=719),
    Message('note_on', channel=2, note=67, velocity=64, time=1),
    Message('note_on', channel=2, note=67, velocity=0, time=239),
    Message('note_on', channel=2, note=65, velocity=64, time=1),
    Message('note_on', channel=2, note=65, velocity=0, time=239),
    Message('note_on', channel=2, note=67, velocity=64, time=1),
    Message('note_on', channel=2, note=67, velocity=0, time=719),
    Message('note_on', channel=2, note=69, velocity=64, time=1),
    Message('note_on', channel=2, note=69, velocity=0, time=479),
    Message('note_on', channel=2, note=65, velocity=64, time=1),
    Message('note_on', channel=2, note=65, velocity=0, time=239),
    Message('note_on', channel=2, note=64, velocity=64, time=1),
    Message('note_on', channel=2, note=64, velocity=0, time=239),
    Message('note_on', channel=2, note=62, velocity=64, time=1),
    Message('note_on', channel=2, note=62, velocity=0, time=2159),
    Message('note_on', channel=2, note=62, velocity=64, time=1),
    Message('note_on', channel=2, note=62, velocity=0, time=719),
    Message('note_on', channel=2, note=69, velocity=64, time=1),
    Message('note_on', channel=2, note=69, velocity=0, time=719),
    Message('note_on', channel=2, note=67, velocity=64, time=1),
    Message('note_on', channel=2, note=67, velocity=0, time=239),
    Message('note_on', channel=2, note=65, velocity=64, time=1),
    Message('note_on', channel=2, note=65, velocity=0, time=239),
    Message('note_on', channel=2, note=67, velocity=64, time=1),
    Message('note_on', channel=2, note=67, velocity=0, time=719),
    Message('note_on', channel=2, note=69, velocity=64, time=1),
    Message('note_on', channel=2, note=69, velocity=0, time=719),
    Message('note_on', channel=2, note=67, velocity=64, time=1),
    Message('note_on', channel=2, note=67, velocity=0, time=239),
    Message('note_on', channel=2, note=65, velocity=64, time=1),
    Message('note_on', channel=2, note=65, velocity=0, time=239),
    Message('note_on', channel=2, note=67, velocity=64, time=1),
    Message('note_on', channel=2, note=67, velocity=0, time=719),
    Message('note_on', channel=2, note=69, velocity=64, time=1),
    Message('note_on', channel=2, note=69, velocity=0, time=479),
    Message('note_on', channel=2, note=65, velocity=64, time=1),
    Message('note_on', channel=2, note=65, velocity=0, time=239),
    Message('note_on', channel=2, note=64, velocity=64, time=1),
    Message('note_on', channel=2, note=64, velocity=0, time=239),
    Message('note_on', channel=2, note=62, velocity=64, time=1),
    Message('note_on', channel=2, note=62, velocity=0, time=2159),
    Message('note_on', channel=2, note=72, velocity=64, time=1201),
    Message('note_on', channel=2, note=72, velocity=0, time=239),
    Message('note_on', channel=2, note=72, velocity=64, time=1),
    Message('note_on', channel=2, note=72, velocity=0, time=239),
    Message('note_on', channel=2, note=74, velocity=64, time=1),
    Message('note_on', channel=2, note=74, velocity=0, time=239),
    Message('note_on', channel=2, note=74, velocity=64, time=1),
    Message('note_on', channel=2, note=74, velocity=0, time=479),
    Message('note_on', channel=2, note=74, velocity=64, time=1),
    Message('note_on', channel=2, note=74, velocity=0, time=479),
    Message('note_on', channel=2, note=74, velocity=64, time=1),
    Message('note_on', channel=2, note=74, velocity=0, time=239),
    Message('note_on', channel=2, note=65, velocity=64, time=1),
    Message('note_on', channel=2, note=65, velocity=0, time=239),
    Message('note_on', channel=2, note=72, velocity=64, time=1),
    Message('note_on', channel=2, note=72, velocity=0, time=239),
    Message('note_on', channel=2, note=74, velocity=64, time=1),
    Message('note_on', channel=2, note=74, velocity=0, time=239),
    Message('note_on', channel=2, note=74, velocity=64, time=1),
    Message('note_on', channel=2, note=74, velocity=0, time=479),
    Message('note_on', channel=2, note=74, velocity=64, time=1),
    Message('note_on', channel=2, note=74, velocity=0, time=479),
    Message('note_on', channel=2, note=74, velocity=64, time=1),
    Message('note_on', channel=2, note=74, velocity=0, time=239),
    Message('note_on', channel=2, note=69, velocity=64, time=1),
    Message('note_on', channel=2, note=69, velocity=0, time=239),
    Message('note_on', channel=2, note=72, velocity=64, time=1),
    Message('note_on', channel=2, note=72, velocity=0, time=239),
    Message('note_on', channel=2, note=74, velocity=64, time=1),
    Message('note_on', channel=2, note=74, velocity=0, time=239),
    Message('note_on', channel=2, note=74, velocity=64, time=1),
    Message('note_on', channel=2, note=74, velocity=0, time=479),
    Message('note_on', channel=2, note=74, velocity=64, time=1),
    Message('note_on', channel=2, note=74, velocity=0, time=479),
    Message('note_on', channel=2, note=74, velocity=64, time=1),
    Message('note_on', channel=2, note=74, velocity=0, time=239),
    Message('note_on', channel=2, note=69, velocity=64, time=1921),
    Message('note_on', channel=2, note=69, velocity=0, time=239),
    Message('note_on', channel=2, note=72, velocity=64, time=1),
    Message('note_on', channel=2, note=72, velocity=0, time=239),
    Message('note_on', channel=2, note=74, velocity=64, time=1),
    Message('note_on', channel=2, note=74, velocity=0, time=239),
    Message('note_on', channel=2, note=74, velocity=64, time=1),
    Message('note_on', channel=2, note=74, velocity=0, time=479),
    Message('note_on', channel=2, note=74, velocity=64, time=1),
    Message('note_on', channel=2, note=74, velocity=0, time=479),
    Message('note_on', channel=2, note=74, velocity=64, time=1),
    Message('note_on', channel=2, note=74, velocity=0, time=239),
    Message('note_on', channel=2, note=65, velocity=64, time=1),
    Message('note_on', channel=2, note=65, velocity=0, time=239),
    Message('note_on', channel=2, note=72, velocity=64, time=1),
    Message('note_on', channel=2, note=72, velocity=0, time=239),
    Message('note_on', channel=2, note=74, velocity=64, time=1),
    Message('note_on', channel=2, note=74, velocity=0, time=239),
    Message('note_on', channel=2, note=74, velocity=64, time=1),
    Message('note_on', channel=2, note=74, velocity=0, time=479),
    Message('note_on', channel=2, note=74, velocity=64, time=1),
    Message('note_on', channel=2, note=74, velocity=0, time=479),
    Message('note_on', channel=2, note=74, velocity=64, time=1),
    Message('note_on', channel=2, note=74, velocity=0, time=239),
    Message('note_on', channel=2, note=69, velocity=64, time=1),
    Message('note_on', channel=2, note=69, velocity=0, time=239),
    Message('note_on', channel=2, note=72, velocity=64, time=1),
    Message('note_on', channel=2, note=72, velocity=0, time=239),
    Message('note_on', channel=2, note=74, velocity=64, time=1),
    Message('note_on', channel=2, note=74, velocity=0, time=239),
    Message('note_on', channel=2, note=74, velocity=64, time=1),
    Message('note_on', channel=2, note=74, velocity=0, time=479),
    Message('note_on', channel=2, note=74, velocity=64, time=1),
    Message('note_on', channel=2, note=74, velocity=0, time=479),
    Message('note_on', channel=2, note=74, velocity=64, time=1),
    Message('note_on', channel=2, note=74, velocity=0, time=239),
    Message('note_on', channel=2, note=74, velocity=64, time=2641),
    Message('note_on', channel=2, note=74, velocity=0, time=239),
    Message('note_on', channel=2, note=65, velocity=64, time=1),
    Message('note_on', channel=2, note=65, velocity=0, time=239),
    Message('note_on', channel=2, note=74, velocity=64, time=1),
    Message('note_on', channel=2, note=74, velocity=0, time=239),
    Message('note_on', channel=2, note=65, velocity=64, time=1),
    Message('note_on', channel=2, note=65, velocity=0, time=239),
    Message('note_on', channel=2, note=74, velocity=64, time=1),
    Message('note_on', channel=2, note=74, velocity=0, time=239),
    Message('note_on', channel=2, note=65, velocity=64, time=1),
    Message('note_on', channel=2, note=65, velocity=0, time=239),
    Message('note_on', channel=2, note=74, velocity=64, time=1),
    Message('note_on', channel=2, note=74, velocity=0, time=239),
    Message('note_on', channel=2, note=65, velocity=64, time=1),
    Message('note_on', channel=2, note=65, velocity=0, time=239),
    Message('note_on', channel=2, note=74, velocity=64, time=1),
    Message('note_on', channel=2, note=74, velocity=0, time=239),
    Message('note_on', channel=2, note=65, velocity=64, time=1),
    Message('note_on', channel=2, note=65, velocity=0, time=239),
    Message('note_on', channel=2, note=74, velocity=64, time=1),
    Message('note_on', channel=2, note=74, velocity=0, time=239),
    Message('note_on', channel=2, note=65, velocity=64, time=1),
    Message('note_on', channel=2, note=65, velocity=0, time=239),
    Message('note_on', channel=2, note=74, velocity=64, time=1),
    Message('note_on', channel=2, note=74, velocity=0, time=239),
    Message('note_on', channel=2, note=65, velocity=64, time=1),
    Message('note_on', channel=2, note=65, velocity=0, time=239),
    Message('note_on', channel=2, note=74, velocity=64, time=1),
    Message('note_on', channel=2, note=74, velocity=0, time=239),
    Message('note_on', channel=2, note=65, velocity=64, time=1),
    Message('note_on', channel=2, note=65, velocity=0, time=239),
    Message('note_on', channel=2, note=74, velocity=64, time=1),
    Message('note_on', channel=2, note=74, velocity=0, time=239),
    Message('note_on', channel=2, note=65, velocity=64, time=1),
    Message('note_on', channel=2, note=65, velocity=0, time=239),
    Message('note_on', channel=2, note=74, velocity=64, time=1),
    Message('note_on', channel=2, note=74, velocity=0, time=239),
    Message('note_on', channel=2, note=65, velocity=64, time=1),
    Message('note_on', channel=2, note=65, velocity=0, time=239),
    Message('note_on', channel=2, note=74, velocity=64, time=1),
    Message('note_on', channel=2, note=74, velocity=0, time=239),
    Message('note_on', channel=2, note=65, velocity=64, time=1),
    Message('note_on', channel=2, note=65, velocity=0, time=239),
    Message('note_on', channel=2, note=74, velocity=64, time=1),
    Message('note_on', channel=2, note=74, velocity=0, time=239),
    Message('note_on', channel=2, note=65, velocity=64, time=1),
    Message('note_on', channel=2, note=65, velocity=0, time=239),
    Message('note_on', channel=2, note=69, velocity=64, time=1),
    Message('note_on', channel=2, note=69, velocity=0, time=239),
    Message('note_on', channel=2, note=65, velocity=64, time=1),
    Message('note_on', channel=2, note=65, velocity=0, time=239),
    Message('note_on', channel=2, note=69, velocity=64, time=1),
    Message('note_on', channel=2, note=69, velocity=0, time=239),
    Message('note_on', channel=2, note=65, velocity=64, time=1),
    Message('note_on', channel=2, note=65, velocity=0, time=239),
    Message('note_on', channel=2, note=69, velocity=64, time=1),
    Message('note_on', channel=2, note=69, velocity=0, time=239),
    Message('note_on', channel=2, note=65, velocity=64, time=1),
    Message('note_on', channel=2, note=65, velocity=0, time=239),
    Message('note_on', channel=2, note=69, velocity=64, time=1),
    Message('note_on', channel=2, note=69, velocity=0, time=239),
    Message('note_on', channel=2, note=65, velocity=64, time=1),
    Message('note_on', channel=2, note=65, velocity=0, time=239),
    Message('note_on', channel=2, note=74, velocity=64, time=1),
    Message('note_on', channel=2, note=74, velocity=0, time=239),
    Message('note_on', channel=2, note=65, velocity=64, time=1),
    Message('note_on', channel=2, note=65, velocity=0, time=239),
    Message('note_on', channel=2, note=74, velocity=64, time=1),
    Message('note_on', channel=2, note=74, velocity=0, time=239),
    Message('note_on', channel=2, note=65, velocity=64, time=1),
    Message('note_on', channel=2, note=65, velocity=0, time=239),
    Message('note_on', channel=2, note=74, velocity=64, time=1),
    Message('note_on', channel=2, note=74, velocity=0, time=239),
    Message('note_on', channel=2, note=65, velocity=64, time=1),
    Message('note_on', channel=2, note=65, velocity=0, time=239),
    Message('note_on', channel=2, note=74, velocity=64, time=1),
    Message('note_on', channel=2, note=74, velocity=0, time=239),
    Message('note_on', channel=2, note=65, velocity=64, time=1),
    Message('note_on', channel=2, note=65, velocity=0, time=239),
    Message('note_on', channel=2, note=74, velocity=64, time=1),
    Message('note_on', channel=2, note=74, velocity=0, time=239),
    Message('note_on', channel=2, note=65, velocity=64, time=1),
    Message('note_on', channel=2, note=65, velocity=0, time=239),
    Message('note_on', channel=2, note=74, velocity=64, time=1),
    Message('note_on', channel=2, note=74, velocity=0, time=239),
    Message('note_on', channel=2, note=65, velocity=64, time=1),
    Message('note_on', channel=2, note=65, velocity=0, time=239),
    Message('note_on', channel=2, note=74, velocity=64, time=1),
    Message('note_on', channel=2, note=74, velocity=0, time=239),
    Message('note_on', channel=2, note=65, velocity=64, time=1),
    Message('note_on', channel=2, note=65, velocity=0, time=239),
    Message('note_on', channel=2, note=74, velocity=64, time=1),
    Message('note_on', channel=2, note=74, velocity=0, time=239),
    Message('note_on', channel=2, note=65, velocity=64, time=1),
    Message('note_on', channel=2, note=65, velocity=0, time=239),
    Message('note_on', channel=2, note=74, velocity=64, time=1),
    Message('note_on', channel=2, note=74, velocity=0, time=239),
    Message('note_on', channel=2, note=65, velocity=64, time=1),
    Message('note_on', channel=2, note=65, velocity=0, time=239),
    Message('note_on', channel=2, note=74, velocity=64, time=1),
    Message('note_on', channel=2, note=74, velocity=0, time=239),
    Message('note_on', channel=2, note=65, velocity=64, time=1),
    Message('note_on', channel=2, note=65, velocity=0, time=239),
    Message('note_on', channel=2, note=74, velocity=64, time=1),
    Message('note_on', channel=2, note=74, velocity=0, time=239),
    Message('note_on', channel=2, note=65, velocity=64, time=1),
    Message('note_on', channel=2, note=65, velocity=0, time=239),
    Message('note_on', channel=2, note=74, velocity=64, time=1),
    Message('note_on', channel=2, note=74, velocity=0, time=239),
    Message('note_on', channel=2, note=65, velocity=64, time=1),
    Message('note_on', channel=2, note=65, velocity=0, time=239),
    Message('note_on', channel=2, note=69, velocity=64, time=1),
    Message('note_on', channel=2, note=69, velocity=0, time=239),
    Message('note_on', channel=2, note=65, velocity=64, time=1),
    Message('note_on', channel=2, note=65, velocity=0, time=239),
    Message('note_on', channel=2, note=69, velocity=64, time=1),
    Message('note_on', channel=2, note=69, velocity=0, time=239),
    Message('note_on', channel=2, note=65, velocity=64, time=1),
    Message('note_on', channel=2, note=65, velocity=0, time=239),
    Message('note_on', channel=2, note=69, velocity=64, time=1),
    Message('note_on', channel=2, note=69, velocity=0, time=239),
    Message('note_on', channel=2, note=65, velocity=64, time=1),
    Message('note_on', channel=2, note=65, velocity=0, time=239),
    Message('note_on', channel=2, note=69, velocity=64, time=1),
    Message('note_on', channel=2, note=69, velocity=0, time=239),
    Message('note_on', channel=2, note=65, velocity=64, time=1),
    Message('note_on', channel=2, note=65, velocity=0, time=239),
    MetaMessage('end_of_track', time=1)]),
  MidiTrack([
    MetaMessage('key_signature', key='D', time=0),
    Message('note_on', channel=2, note=57, velocity=80, time=7680),
    Message('note_on', channel=2, note=57, velocity=0, time=719),
    Message('note_on', channel=2, note=62, velocity=80, time=1),
    Message('note_on', channel=2, note=62, velocity=0, time=719),
    Message('note_on', channel=2, note=62, velocity=80, time=1),
    Message('note_on', channel=2, note=62, velocity=0, time=239),
    Message('note_on', channel=2, note=65, velocity=80, time=1),
    Message('note_on', channel=2, note=65, velocity=0, time=239),
    Message('note_on', channel=2, note=62, velocity=80, time=1),
    Message('note_on', channel=2, note=62, velocity=0, time=719),
    Message('note_on', channel=2, note=62, velocity=80, time=1),
    Message('note_on', channel=2, note=62, velocity=0, time=719),
    Message('note_on', channel=2, note=62, velocity=80, time=1),
    Message('note_on', channel=2, note=62, velocity=0, time=239),
    Message('note_on', channel=2, note=65, velocity=80, time=1),
    Message('note_on', channel=2, note=65, velocity=0, time=239),
    Message('note_on', channel=2, note=62, velocity=80, time=1),
    Message('note_on', channel=2, note=62, velocity=0, time=719),
    Message('note_on', channel=2, note=62, velocity=80, time=1),
    Message('note_on', channel=2, note=62, velocity=0, time=479),
    Message('note_on', channel=2, note=65, velocity=80, time=1),
    Message('note_on', channel=2, note=65, velocity=0, time=239),
    Message('note_on', channel=2, note=64, velocity=80, time=1),
    Message('note_on', channel=2, note=64, velocity=0, time=239),
    Message('note_on', channel=2, note=62, velocity=80, time=1),
    Message('note_on', channel=2, note=62, velocity=0, time=2159),
    Message('note_on', channel=2, note=57, velocity=80, time=1),
    Message('note_on', channel=2, note=57, velocity=0, time=719),
    Message('note_on', channel=2, note=62, velocity=80, time=1),
    Message('note_on', channel=2, note=62, velocity=0, time=719),
    Message('note_on', channel=2, note=62, velocity=80, time=1),
    Message('note_on', channel=2, note=62, velocity=0, time=239),
    Message('note_on', channel=2, note=60, velocity=80, time=1),
    Message('note_on', channel=2, note=60, velocity=0, time=239),
    Message('note_on', channel=2, note=62, velocity=80, time=1),
    Message('note_on', channel=2, note=62, velocity=0, time=719),
    Message('note_on', channel=2, note=64, velocity=80, time=1),
    Message('note_on', channel=2, note=64, velocity=0, time=719),
    Message('note_on', channel=2, note=62, velocity=80, time=1),
    Message('note_on', channel=2, note=62, velocity=0, time=239),
    Message('note_on', channel=2, note=60, velocity=80, time=1),
    Message('note_on', channel=2, note=60, velocity=0, time=239),
    Message('note_on', channel=2, note=62, velocity=80, time=1),
    Message('note_on', channel=2, note=62, velocity=0, time=719),
    Message('note_on', channel=2, note=62, velocity=80, time=1),
    Message('note_on', channel=2, note=62, velocity=0, time=479),
    Message('note_on', channel=2, note=65, velocity=80, time=1),
    Message('note_on', channel=2, note=65, velocity=0, time=239),
    Message('note_on', channel=2, note=64, velocity=80, time=1),
    Message('note_on', channel=2, note=64, velocity=0, time=239),
    Message('note_on', channel=2, note=62, velocity=80, time=1),
    Message('note_on', channel=2, note=62, velocity=0, time=2159),
    Message('note_on', channel=2, note=65, velocity=80, time=1),
    Message('note_on', channel=2, note=65, velocity=0, time=959),
    Message('note_on', channel=2, note=65, velocity=80, time=1),
    Message('note_on', channel=2, note=65, velocity=0, time=239),
    Message('note_on', channel=2, note=65, velocity=80, time=1),
    Message('note_on', channel=2, note=65, velocity=0, time=239),
    Message('note_on', channel=2, note=64, velocity=80, time=1),
    Message('note_on', channel=2, note=64, velocity=0, time=239),
    Message('note_on', channel=2, note=62, velocity=80, time=1),
    Message('note_on', channel=2, note=62, velocity=0, time=239),
    Message('note_on', channel=2, note=62, velocity=80, time=961),
    Message('note_on', channel=2, note=62, velocity=0, time=479),
    Message('note_on', channel=2, note=62, velocity=80, time=1),
    Message('note_on', channel=2, note=62, velocity=0, time=479),
    Message('note_on', channel=2, note=65, velocity=80, time=1),
    Message('note_on', channel=2, note=65, velocity=0, time=239),
    Message('note_on', channel=2, note=64, velocity=80, time=1),
    Message('note_on', channel=2, note=64, velocity=0, time=239),
    Message('note_on', channel=2, note=62, velocity=80, time=1),
    Message('note_on', channel=2, note=62, velocity=0, time=479),
    Message('note_on', channel=2, note=65, velocity=80, time=1),
    Message('note_on', channel=2, note=65, velocity=0, time=239),
    Message('note_on', channel=2, note=64, velocity=80, time=1),
    Message('note_on', channel=2, note=64, velocity=0, time=239),
    Message('note_on', channel=2, note=62, velocity=80, time=1),
    Message('note_on', channel=2, note=62, velocity=0, time=479),
    Message('note_on', channel=2, note=62, velocity=80, time=961),
    Message('note_on', channel=2, note=62, velocity=0, time=959),
    Message('note_on', channel=2, note=65, velocity=80, time=1),
    Message('note_on', channel=2, note=65, velocity=0, time=239),
    Message('note_on', channel=2, note=67, velocity=80, time=1),
    Message('note_on', channel=2, note=67, velocity=0, time=239),
    Message('note_on', channel=2, note=69, velocity=80, time=1),
    Message('note_on', channel=2, note=69, velocity=0, time=239),
    Message('note_on', channel=2, note=67, velocity=80, time=1),
    Message('note_on', channel=2, note=67, velocity=0, time=239),
    Message('note_on', channel=2, note=65, velocity=80, time=1),
    Message('note_on', channel=2, note=65, velocity=0, time=479),
    Message('note_on', channel=2, note=62, velocity=80, time=1),
    Message('note_on', channel=2, note=62, velocity=0, time=239),
    Message('note_on', channel=2, note=64, velocity=80, time=1),
    Message('note_on', channel=2, note=64, velocity=0, time=239),
    Message('note_on', channel=2, note=62, velocity=80, time=1),
    Message('note_on', channel=2, note=62, velocity=0, time=719),
    Message('note_on', channel=2, note=60, velocity=80, time=1),
    Message('note_on', channel=2, note=60, velocity=0, time=719),
    Message('note_on', channel=2, note=65, velocity=80, time=1),
    Message('note_on', channel=2, note=65, velocity=0, time=239),
    Message('note_on', channel=2, note=64, velocity=80, time=1),
    Message('note_on', channel=2, note=64, velocity=0, time=239),
    Message('note_on', channel=2, note=65, velocity=80, time=1),
    Message('note_on', channel=2, note=65, velocity=0, time=479),
    Message('note_on', channel=2, note=69, velocity=80, time=1),
    Message('note_on', channel=2, note=69, velocity=0, time=239),
    Message('note_on', channel=2, note=67, velocity=80, time=1),
    Message('note_on', channel=2, note=67, velocity=0, time=239),
    Message('note_on', channel=2, note=65, velocity=80, time=1),
    Message('note_on', channel=2, note=65, velocity=0, time=239),
    Message('note_on', channel=2, note=64, velocity=80, time=1),
    Message('note_on', channel=2, note=64, velocity=0, time=239),
    Message('note_on', channel=2, note=62, velocity=80, time=1),
    Message('note_on', channel=2, note=62, velocity=0, time=239),
    Message('note_on', channel=2, note=60, velocity=80, time=1),
    Message('note_on', channel=2, note=60, velocity=0, time=239),
    Message('note_on', channel=2, note=62, velocity=80, time=1),
    Message('note_on', channel=2, note=62, velocity=0, time=1919),
    Message('note_on', channel=2, note=69, velocity=80, time=1),
    Message('note_on', channel=2, note=69, velocity=0, time=239),
    Message('note_on', channel=2, note=69, velocity=80, time=241),
    Message('note_on', channel=2, note=69, velocity=0, time=479),
    Message('note_on', channel=2, note=69, velocity=80, time=1),
    Message('note_on', channel=2, note=69, velocity=0, time=239),
    Message('note_on', channel=2, note=69, velocity=80, time=1),
    Message('note_on', channel=2, note=69, velocity=0, time=239),
    Message('note_on', channel=2, note=70, velocity=80, time=1),
    Message('note_on', channel=2, note=70, velocity=0, time=239),
    Message('note_on', channel=2, note=69, velocity=80, time=1),
    Message('note_on', channel=2, note=69, velocity=0, time=239),
    Message('note_on', channel=2, note=62, velocity=80, time=961),
    Message('note_on', channel=2, note=62, velocity=0, time=479),
    Message('note_on', channel=2, note=62, velocity=80, time=1),
    Message('note_on', channel=2, note=62, velocity=0, time=239),
    Message('note_on', channel=2, note=64, velocity=80, time=1),
    Message('note_on', channel=2, note=64, velocity=0, time=239),
    Message('note_on', channel=2, note=65, velocity=80, time=1),
    Message('note_on', channel=2, note=65, velocity=0, time=239),
    Message('note_on', channel=2, note=64, velocity=80, time=1),
    Message('note_on', channel=2, note=64, velocity=0, time=239),
    Message('note_on', channel=2, note=62, velocity=80, time=1),
    Message('note_on', channel=2, note=62, velocity=0, time=239),
    Message('note_on', channel=2, note=60, velocity=80, time=1),
    Message('note_on', channel=2, note=60, velocity=0, time=239),
    Message('note_on', channel=2, note=58, velocity=80, time=1),
    Message('note_on', channel=2, note=58, velocity=0, time=239),
    Message('note_on', channel=2, note=60, velocity=80, time=1),
    Message('note_on', channel=2, note=60, velocity=0, time=239),
    Message('note_on', channel=2, note=62, velocity=80, time=1),
    Message('note_on', channel=2, note=62, velocity=0, time=239),
    Message('note_on', channel=2, note=64, velocity=80, time=1),
    Message('note_on', channel=2, note=64, velocity=0, time=239),
    Message('note_on', channel=2, note=70, velocity=80, time=961),
    Message('note_on', channel=2, note=70, velocity=0, time=479),
    Message('note_on', channel=2, note=70, velocity=80, time=1),
    Message('note_on', channel=2, note=70, velocity=0, time=239),
    Message('note_on', channel=2, note=69, velocity=80, time=1),
    Message('note_on', channel=2, note=69, velocity=0, time=239),
    Message('note_on', channel=2, note=69, velocity=80, time=1),
    Message('note_on', channel=2, note=69, velocity=0, time=239),
    Message('note_on', channel=2, note=69, velocity=80, time=1),
    Message('note_on', channel=2, note=69, velocity=0, time=239),
    Message('note_on', channel=2, note=70, velocity=80, time=1),
    Message('note_on', channel=2, note=70, velocity=0, time=239),
    Message('note_on', channel=2, note=69, velocity=80, time=1),
    Message('note_on', channel=2, note=69, velocity=0, time=239),
    Message('note_on', channel=2, note=65, velocity=80, time=1),
    Message('note_on', channel=2, note=65, velocity=0, time=239),
    Message('note_on', channel=2, note=64, velocity=80, time=1),
    Message('note_on', channel=2, note=64, velocity=0, time=239),
    Message('note_on', channel=2, note=62, velocity=80, time=1),
    Message('note_on', channel=2, note=62, velocity=0, time=479),
    Message('note_on', channel=2, note=62, velocity=80, time=1),
    Message('note_on', channel=2, note=62, velocity=0, time=239),
    Message('note_on', channel=2, note=64, velocity=80, time=1),
    Message('note_on', channel=2, note=64, velocity=0, time=239),
    Message('note_on', channel=2, note=62, velocity=80, time=1),
    Message('note_on', channel=2, note=62, velocity=0, time=479),
    Message('note_on', channel=2, note=62, velocity=80, time=1),
    Message('note_on', channel=2, note=62, velocity=0, time=239),
    Message('note_on', channel=2, note=64, velocity=80, time=1),
    Message('note_on', channel=2, note=64, velocity=0, time=239),
    Message('note_on', channel=2, note=62, velocity=80, time=1),
    Message('note_on', channel=2, note=62, velocity=0, time=479),
    Message('note_on', channel=2, note=58, velocity=80, time=1),
    Message('note_on', channel=2, note=58, velocity=0, time=239),
    Message('note_on', channel=2, note=60, velocity=80, time=1),
    Message('note_on', channel=2, note=60, velocity=0, time=239),
    Message('note_on', channel=2, note=62, velocity=80, time=1),
    Message('note_on', channel=2, note=62, velocity=0, time=239),
    Message('note_on', channel=2, note=64, velocity=80, time=1),
    Message('note_on', channel=2, note=64, velocity=0, time=239),
    Message('note_on', channel=2, note=65, velocity=80, time=1),
    Message('note_on', channel=2, note=65, velocity=0, time=239),
    Message('note_on', channel=2, note=64, velocity=80, time=1),
    Message('note_on', channel=2, note=64, velocity=0, time=239),
    Message('note_on', channel=2, note=62, velocity=80, time=1),
    Message('note_on', channel=2, note=62, velocity=0, time=239),
    Message('note_on', channel=2, note=60, velocity=80, time=1),
    Message('note_on', channel=2, note=60, velocity=0, time=239),
    Message('note_on', channel=2, note=62, velocity=80, time=1),
    Message('note_on', channel=2, note=62, velocity=0, time=1919),
    Message('note_on', channel=2, note=69, velocity=112, time=11521),
    Message('note_on', channel=2, note=69, velocity=0, time=479),
    Message('note_on', channel=2, note=69, velocity=112, time=1),
    Message('note_on', channel=2, note=69, velocity=0, time=479),
    Message('note_on', channel=2, note=69, velocity=112, time=481),
    Message('note_on', channel=2, note=69, velocity=0, time=479),
    Message('note_on', channel=2, note=65, velocity=112, time=1),
    Message('note_on', channel=2, note=65, velocity=0, time=479),
    Message('note_on', channel=2, note=65, velocity=112, time=1),
    Message('note_on', channel=2, note=65, velocity=0, time=479),
    Message('note_on', channel=2, note=70, velocity=112, time=481),
    Message('note_on', channel=2, note=70, velocity=0, time=479),
    Message('note_on', channel=2, note=60, velocity=112, time=1),
    Message('note_on', channel=2, note=60, velocity=0, time=479),
    Message('note_on', channel=2, note=60, velocity=112, time=1),
    Message('note_on', channel=2, note=60, velocity=0, time=479),
    Message('note_on', channel=2, note=65, velocity=112, time=481),
    Message('note_on', channel=2, note=65, velocity=0, time=479),
    Message('note_on', channel=2, note=60, velocity=112, time=1),
    Message('note_on', channel=2, note=60, velocity=0, time=479),
    Message('note_on', channel=2, note=60, velocity=112, time=1),
    Message('note_on', channel=2, note=60, velocity=0, time=479),
    Message('note_on', channel=2, note=67, velocity=112, time=1),
    Message('note_on', channel=2, note=67, velocity=0, time=479),
    Message('note_on', channel=2, note=67, velocity=112, time=1),
    Message('note_on', channel=2, note=67, velocity=0, time=479),
    Message('note_on', channel=2, note=69, velocity=112, time=1),
    Message('note_on', channel=2, note=69, velocity=0, time=479),
    Message('note_on', channel=2, note=69, velocity=112, time=1),
    Message('note_on', channel=2, note=69, velocity=0, time=479),
    Message('note_on', channel=2, note=69, velocity=112, time=481),
    Message('note_on', channel=2, note=69, velocity=0, time=479),
    Message('note_on', channel=2, note=65, velocity=112, time=1),
    Message('note_on', channel=2, note=65, velocity=0, time=479),
    Message('note_on', channel=2, note=65, velocity=112, time=1),
    Message('note_on', channel=2, note=65, velocity=0, time=479),
    Message('note_on', channel=2, note=70, velocity=112, time=481),
    Message('note_on', channel=2, note=70, velocity=0, time=479),
    Message('note_on', channel=2, note=72, velocity=112, time=1),
    Message('note_on', channel=2, note=72, velocity=0, time=479),
    Message('note_on', channel=2, note=72, velocity=112, time=1),
    Message('note_on', channel=2, note=72, velocity=0, time=479),
    Message('note_on', channel=2, note=72, velocity=112, time=481),
    Message('note_on', channel=2, note=72, velocity=0, time=479),
    Message('note_on', channel=2, note=72, velocity=112, time=1),
    Message('note_on', channel=2, note=72, velocity=0, time=479),
    Message('note_on', channel=2, note=72, velocity=112, time=1),
    Message('note_on', channel=2, note=72, velocity=0, time=479),
    Message('note_on', channel=2, note=67, velocity=112, time=1),
    Message('note_on', channel=2, note=67, velocity=0, time=479),
    Message('note_on', channel=2, note=67, velocity=112, time=1),
    Message('note_on', channel=2, note=67, velocity=0, time=479),
    Message('note_on', channel=2, note=69, velocity=64, time=1),
    Message('note_on', channel=2, note=69, velocity=0, time=479),
    Message('note_on', channel=2, note=69, velocity=64, time=1),
    Message('note_on', channel=2, note=69, velocity=0, time=479),
    Message('note_on', channel=2, note=62, velocity=64, time=1),
    Message('note_on', channel=2, note=62, velocity=0, time=479),
    Message('note_on', channel=2, note=62, velocity=64, time=1),
    Message('note_on', channel=2, note=62, velocity=0, time=479),
    Message('note_on', channel=2, note=65, velocity=64, time=1),
    Message('note_on', channel=2, note=65, velocity=0, time=479),
    Message('note_on', channel=2, note=65, velocity=64, time=1),
    Message('note_on', channel=2, note=65, velocity=0, time=479),
    Message('note_on', channel=2, note=58, velocity=64, time=1),
    Message('note_on', channel=2, note=58, velocity=0, time=479),
    Message('note_on', channel=2, note=58, velocity=64, time=1),
    Message('note_on', channel=2, note=58, velocity=0, time=479),
    Message('note_on', channel=2, note=60, velocity=64, time=1),
    Message('note_on', channel=2, note=60, velocity=0, time=479),
    Message('note_on', channel=2, note=60, velocity=64, time=1),
    Message('note_on', channel=2, note=60, velocity=0, time=479),
    Message('note_on', channel=2, note=65, velocity=64, time=1),
    Message('note_on', channel=2, note=65, velocity=0, time=479),
    Message('note_on', channel=2, note=65, velocity=64, time=1),
    Message('note_on', channel=2, note=65, velocity=0, time=479),
    Message('note_on', channel=2, note=65, velocity=64, time=1),
    Message('note_on', channel=2, note=65, velocity=0, time=479),
    Message('note_on', channel=2, note=65, velocity=64, time=1),
    Message('note_on', channel=2, note=65, velocity=0, time=479),
    Message('note_on', channel=2, note=67, velocity=64, time=1),
    Message('note_on', channel=2, note=67, velocity=0, time=479),
    Message('note_on', channel=2, note=67, velocity=64, time=1),
    Message('note_on', channel=2, note=67, velocity=0, time=479),
    Message('note_on', channel=2, note=69, velocity=64, time=1),
    Message('note_on', channel=2, note=69, velocity=0, time=479),
    Message('note_on', channel=2, note=69, velocity=64, time=1),
    Message('note_on', channel=2, note=69, velocity=0, time=479),
    Message('note_on', channel=2, note=62, velocity=64, time=1),
    Message('note_on', channel=2, note=62, velocity=0, time=479),
    Message('note_on', channel=2, note=62, velocity=64, time=1),
    Message('note_on', channel=2, note=62, velocity=0, time=479),
    Message('note_on', channel=2, note=65, velocity=64, time=1),
    Message('note_on', channel=2, note=65, velocity=0, time=479),
    Message('note_on', channel=2, note=65, velocity=64, time=1),
    Message('note_on', channel=2, note=65, velocity=0, time=479),
    Message('note_on', channel=2, note=58, velocity=64, time=1),
    Message('note_on', channel=2, note=58, velocity=0, time=479),
    Message('note_on', channel=2, note=58, velocity=64, time=1),
    Message('note_on', channel=2, note=58, velocity=0, time=479),
    Message('note_on', channel=2, note=60, velocity=64, time=1),
    Message('note_on', channel=2, note=60, velocity=0, time=479),
    Message('note_on', channel=2, note=60, velocity=64, time=1),
    Message('note_on', channel=2, note=60, velocity=0, time=479),
    Message('note_on', channel=2, note=65, velocity=64, time=1),
    Message('note_on', channel=2, note=65, velocity=0, time=479),
    Message('note_on', channel=2, note=65, velocity=64, time=1),
    Message('note_on', channel=2, note=65, velocity=0, time=479),
    Message('note_on', channel=2, note=65, velocity=64, time=1),
    Message('note_on', channel=2, note=65, velocity=0, time=479),
    Message('note_on', channel=2, note=69, velocity=64, time=1),
    Message('note_on', channel=2, note=69, velocity=0, time=239),
    Message('note_on', channel=2, note=69, velocity=64, time=1),
    Message('note_on', channel=2, note=69, velocity=0, time=239),
    Message('note_on', channel=2, note=69, velocity=64, time=1),
    Message('note_on', channel=2, note=69, velocity=0, time=479),
    Message('note_on', channel=2, note=69, velocity=64, time=1),
    Message('note_on', channel=2, note=69, velocity=0, time=479),
    Message('note_on', channel=2, note=69, velocity=64, time=1),
    Message('note_on', channel=2, note=69, velocity=0, time=719),
    Message('note_on', channel=2, note=69, velocity=64, time=1),
    Message('note_on', channel=2, note=69, velocity=0, time=239),
    Message('note_on', channel=2, note=69, velocity=64, time=1),
    Message('note_on', channel=2, note=69, velocity=0, time=479),
    Message('note_on', channel=2, note=69, velocity=64, time=1),
    Message('note_on', channel=2, note=69, velocity=0, time=719),
    Message('note_on', channel=2, note=69, velocity=64, time=1),
    Message('note_on', channel=2, note=69, velocity=0, time=239),
    Message('note_on', channel=2, note=69, velocity=64, time=1),
    Message('note_on', channel=2, note=69, velocity=0, time=479),
    Message('note_on', channel=2, note=69, velocity=64, time=1),
    Message('note_on', channel=2, note=69, velocity=0, time=239),
    Message('note_on', channel=2, note=69, velocity=64, time=1),
    Message('note_on', channel=2, note=69, velocity=0, time=239),
    Message('note_on', channel=2, note=67, velocity=64, time=1),
    Message('note_on', channel=2, note=67, velocity=0, time=239),
    Message('note_on', channel=2, note=67, velocity=64, time=1),
    Message('note_on', channel=2, note=67, velocity=0, time=239),
    Message('note_on', channel=2, note=69, velocity=64, time=1),
    Message('note_on', channel=2, note=69, velocity=0, time=719),
    Message('note_on', channel=2, note=69, velocity=64, time=1),
    Message('note_on', channel=2, note=69, velocity=0, time=239),
    Message('note_on', channel=2, note=69, velocity=64, time=1),
    Message('note_on', channel=2, note=69, velocity=0, time=479),
    Message('note_on', channel=2, note=69, velocity=64, time=1),
    Message('note_on', channel=2, note=69, velocity=0, time=719),
    Message('note_on', channel=2, note=69, velocity=64, time=1),
    Message('note_on', channel=2, note=69, velocity=0, time=239),
    Message('note_on', channel=2, note=69, velocity=64, time=1),
    Message('note_on', channel=2, note=69, velocity=0, time=479),
    Message('note_on', channel=2, note=69, velocity=64, time=1),
    Message('note_on', channel=2, note=69, velocity=0, time=239),
    Message('note_on', channel=2, note=69, velocity=64, time=1),
    Message('note_on', channel=2, note=69, velocity=0, time=239),
    Message('note_on', channel=2, note=67, velocity=64, time=1),
    Message('note_on', channel=2, note=67, velocity=0, time=239),
    Message('note_on', channel=2, note=67, velocity=64, time=1),
    Message('note_on', channel=2, note=67, velocity=0, time=239),
    Message('note_on', channel=2, note=69, velocity=64, time=1),
    Message('note_on', channel=2, note=69, velocity=0, time=719),
    Message('note_on', channel=2, note=69, velocity=64, time=1),
    Message('note_on', channel=2, note=69, velocity=0, time=239),
    Message('note_on', channel=2, note=69, velocity=64, time=1),
    Message('note_on', channel=2, note=69, velocity=0, time=479),
    Message('note_on', channel=2, note=69, velocity=64, time=1),
    Message('note_on', channel=2, note=69, velocity=0, time=719),
    Message('note_on', channel=2, note=69, velocity=64, time=1),
    Message('note_on', channel=2, note=69, velocity=0, time=239),
    Message('note_on', channel=2, note=69, velocity=64, time=1),
    Message('note_on', channel=2, note=69, velocity=0, time=479),
    Message('note_on', channel=2, note=69, velocity=64, time=1),
    Message('note_on', channel=2, note=69, velocity=0, time=239),
    Message('note_on', channel=2, note=69, velocity=64, time=1),
    Message('note_on', channel=2, note=69, velocity=0, time=239),
    Message('note_on', channel=2, note=67, velocity=64, time=1),
    Message('note_on', channel=2, note=67, velocity=0, time=239),
    Message('note_on', channel=2, note=67, velocity=64, time=1),
    Message('note_on', channel=2, note=67, velocity=0, time=239),
    Message('note_on', channel=2, note=69, velocity=64, time=1),
    Message('note_on', channel=2, note=69, velocity=0, time=719),
    Message('note_on', channel=2, note=69, velocity=64, time=1),
    Message('note_on', channel=2, note=69, velocity=0, time=239),
    Message('note_on', channel=2, note=69, velocity=64, time=1),
    Message('note_on', channel=2, note=69, velocity=0, time=479),
    Message('note_on', channel=2, note=69, velocity=64, time=1),
    Message('note_on', channel=2, note=69, velocity=0, time=719),
    Message('note_on', channel=2, note=69, velocity=64, time=1),
    Message('note_on', channel=2, note=69, velocity=0, time=239),
    Message('note_on', channel=2, note=69, velocity=64, time=1),
    Message('note_on', channel=2, note=69, velocity=0, time=479),
    Message('note_on', channel=2, note=69, velocity=64, time=1),
    Message('note_on', channel=2, note=69, velocity=0, time=239),
    Message('note_on', channel=2, note=69, velocity=64, time=1),
    Message('note_on', channel=2, note=69, velocity=0, time=239),
    Message('note_on', channel=2, note=67, velocity=64, time=1),
    Message('note_on', channel=2, note=67, velocity=0, time=239),
    Message('note_on', channel=2, note=67, velocity=64, time=1),
    Message('note_on', channel=2, note=67, velocity=0, time=239),
    Message('note_on', channel=2, note=69, velocity=64, time=1),
    Message('note_on', channel=2, note=69, velocity=0, time=719),
    Message('note_on', channel=2, note=69, velocity=64, time=1),
    Message('note_on', channel=2, note=69, velocity=0, time=239),
    Message('note_on', channel=2, note=69, velocity=64, time=1),
    Message('note_on', channel=2, note=69, velocity=0, time=479),
    Message('note_on', channel=2, note=69, velocity=64, time=1),
    Message('note_on', channel=2, note=69, velocity=0, time=719),
    Message('note_on', channel=2, note=69, velocity=64, time=1),
    Message('note_on', channel=2, note=69, velocity=0, time=239),
    Message('note_on', channel=2, note=69, velocity=64, time=1),
    Message('note_on', channel=2, note=69, velocity=0, time=479),
    Message('note_on', channel=2, note=69, velocity=64, time=1),
    Message('note_on', channel=2, note=69, velocity=0, time=239),
    Message('note_on', channel=2, note=69, velocity=64, time=1),
    Message('note_on', channel=2, note=69, velocity=0, time=239),
    Message('note_on', channel=2, note=67, velocity=64, time=1),
    Message('note_on', channel=2, note=67, velocity=0, time=239),
    Message('note_on', channel=2, note=67, velocity=64, time=1),
    Message('note_on', channel=2, note=67, velocity=0, time=239),
    Message('note_on', channel=2, note=69, velocity=64, time=1),
    Message('note_on', channel=2, note=69, velocity=0, time=719),
    Message('note_on', channel=2, note=69, velocity=64, time=1),
    Message('note_on', channel=2, note=69, velocity=0, time=239),
    Message('note_on', channel=2, note=69, velocity=64, time=1),
    Message('note_on', channel=2, note=69, velocity=0, time=479),
    Message('note_on', channel=2, note=69, velocity=64, time=1),
    Message('note_on', channel=2, note=69, velocity=0, time=959),
    Message('note_on', channel=2, note=72, velocity=64, time=2641),
    Message('note_on', channel=2, note=72, velocity=0, time=239),
    Message('note_on', channel=2, note=72, velocity=64, time=1),
    Message('note_on', channel=2, note=72, velocity=0, time=239),
    Message('note_on', channel=2, note=74, velocity=64, time=1),
    Message('note_on', channel=2, note=74, velocity=0, time=239),
    Message('note_on', channel=2, note=69, velocity=64, time=1),
    Message('note_on', channel=2, note=69, velocity=0, time=479),
    Message('note_on', channel=2, note=69, velocity=64, time=1),
    Message('note_on', channel=2, note=69, velocity=0, time=479),
    Message('note_on', channel=2, note=69, velocity=64, time=481),
    Message('note_on', channel=2, note=69, velocity=0, time=479),
    Message('note_on', channel=2, note=65, velocity=64, time=1),
    Message('note_on', channel=2, note=65, velocity=0, time=479),
    Message('note_on', channel=2, note=65, velocity=64, time=1),
    Message('note_on', channel=2, note=65, velocity=0, time=479),
    Message('note_on', channel=2, note=70, velocity=64, time=481),
    Message('note_on', channel=2, note=70, velocity=0, time=479),
    Message('note_on', channel=2, note=60, velocity=64, time=1),
    Message('note_on', channel=2, note=60, velocity=0, time=479),
    Message('note_on', channel=2, note=60, velocity=64, time=1),
    Message('note_on', channel=2, note=60, velocity=0, time=479),
    Message('note_on', channel=2, note=65, velocity=64, time=481),
    Message('note_on', channel=2, note=65, velocity=0, time=479),
    Message('note_on', channel=2, note=60, velocity=64, time=1),
    Message('note_on', channel=2, note=60, velocity=0, time=479),
    Message('note_on', channel=2, note=60, velocity=64, time=1),
    Message('note_on', channel=2, note=60, velocity=0, time=479),
    Message('note_on', channel=2, note=67, velocity=64, time=1),
    Message('note_on', channel=2, note=67, velocity=0, time=479),
    Message('note_on', channel=2, note=67, velocity=64, time=1),
    Message('note_on', channel=2, note=67, velocity=0, time=479),
    Message('note_on', channel=2, note=69, velocity=64, time=1),
    Message('note_on', channel=2, note=69, velocity=0, time=479),
    Message('note_on', channel=2, note=69, velocity=64, time=1),
    Message('note_on', channel=2, note=69, velocity=0, time=479),
    Message('note_on', channel=2, note=69, velocity=64, time=481),
    Message('note_on', channel=2, note=69, velocity=0, time=479),
    Message('note_on', channel=2, note=65, velocity=64, time=1),
    Message('note_on', channel=2, note=65, velocity=0, time=479),
    Message('note_on', channel=2, note=65, velocity=64, time=1),
    Message('note_on', channel=2, note=65, velocity=0, time=479),
    Message('note_on', channel=2, note=70, velocity=64, time=481),
    Message('note_on', channel=2, note=70, velocity=0, time=479),
    Message('note_on', channel=2, note=72, velocity=64, time=1),
    Message('note_on', channel=2, note=72, velocity=0, time=479),
    Message('note_on', channel=2, note=72, velocity=64, time=1),
    Message('note_on', channel=2, note=72, velocity=0, time=479),
    Message('note_on', channel=2, note=72, velocity=64, time=481),
    Message('note_on', channel=2, note=72, velocity=0, time=479),
    Message('note_on', channel=2, note=72, velocity=64, time=1),
    Message('note_on', channel=2, note=72, velocity=0, time=479),
    Message('note_on', channel=2, note=72, velocity=64, time=1),
    Message('note_on', channel=2, note=72, velocity=0, time=479),
    Message('note_on', channel=2, note=67, velocity=64, time=1),
    Message('note_on', channel=2, note=67, velocity=0, time=479),
    Message('note_on', channel=2, note=67, velocity=64, time=1),
    Message('note_on', channel=2, note=67, velocity=0, time=479),
    Message('note_on', channel=2, note=69, velocity=64, time=1),
    Message('note_on', channel=2, note=69, velocity=0, time=479),
    Message('note_on', channel=2, note=69, velocity=64, time=1),
    Message('note_on', channel=2, note=69, velocity=0, time=479),
    Message('note_on', channel=2, note=62, velocity=64, time=1),
    Message('note_on', channel=2, note=62, velocity=0, time=479),
    Message('note_on', channel=2, note=62, velocity=64, time=1),
    Message('note_on', channel=2, note=62, velocity=0, time=479),
    Message('note_on', channel=2, note=65, velocity=64, time=1),
    Message('note_on', channel=2, note=65, velocity=0, time=479),
    Message('note_on', channel=2, note=65, velocity=64, time=1),
    Message('note_on', channel=2, note=65, velocity=0, time=479),
    Message('note_on', channel=2, note=58, velocity=64, time=1),
    Message('note_on', channel=2, note=58, velocity=0, time=479),
    Message('note_on', channel=2, note=58, velocity=64, time=1),
    Message('note_on', channel=2, note=58, velocity=0, time=479),
    Message('note_on', channel=2, note=60, velocity=64, time=1),
    Message('note_on', channel=2, note=60, velocity=0, time=479),
    Message('note_on', channel=2, note=60, velocity=64, time=1),
    Message('note_on', channel=2, note=60, velocity=0, time=479),
    Message('note_on', channel=2, note=65, velocity=64, time=1),
    Message('note_on', channel=2, note=65, velocity=0, time=479),
    Message('note_on', channel=2, note=65, velocity=64, time=1),
    Message('note_on', channel=2, note=65, velocity=0, time=479),
    Message('note_on', channel=2, note=65, velocity=64, time=1),
    Message('note_on', channel=2, note=65, velocity=0, time=479),
    Message('note_on', channel=2, note=65, velocity=64, time=1),
    Message('note_on', channel=2, note=65, velocity=0, time=479),
    Message('note_on', channel=2, note=67, velocity=64, time=1),
    Message('note_on', channel=2, note=67, velocity=0, time=479),
    Message('note_on', channel=2, note=67, velocity=64, time=1),
    Message('note_on', channel=2, note=67, velocity=0, time=479),
    Message('note_on', channel=2, note=69, velocity=64, time=1),
    Message('note_on', channel=2, note=69, velocity=0, time=479),
    Message('note_on', channel=2, note=69, velocity=64, time=1),
    Message('note_on', channel=2, note=69, velocity=0, time=479),
    Message('note_on', channel=2, note=62, velocity=64, time=1),
    Message('note_on', channel=2, note=62, velocity=0, time=479),
    Message('note_on', channel=2, note=62, velocity=64, time=1),
    Message('note_on', channel=2, note=62, velocity=0, time=479),
    Message('note_on', channel=2, note=65, velocity=64, time=1),
    Message('note_on', channel=2, note=65, velocity=0, time=479),
    Message('note_on', channel=2, note=65, velocity=64, time=1),
    Message('note_on', channel=2, note=65, velocity=0, time=479),
    Message('note_on', channel=2, note=58, velocity=64, time=1),
    Message('note_on', channel=2, note=58, velocity=0, time=479),
    Message('note_on', channel=2, note=58, velocity=64, time=1),
    Message('note_on', channel=2, note=58, velocity=0, time=479),
    Message('note_on', channel=2, note=60, velocity=64, time=1),
    Message('note_on', channel=2, note=60, velocity=0, time=479),
    Message('note_on', channel=2, note=60, velocity=64, time=1),
    Message('note_on', channel=2, note=60, velocity=0, time=479),
    Message('note_on', channel=2, note=65, velocity=64, time=1),
    Message('note_on', channel=2, note=65, velocity=0, time=479),
    Message('note_on', channel=2, note=65, velocity=64, time=1),
    Message('note_on', channel=2, note=65, velocity=0, time=479),
    Message('note_on', channel=2, note=65, velocity=64, time=1),
    Message('note_on', channel=2, note=65, velocity=0, time=479),
    Message('note_on', channel=2, note=69, velocity=64, time=1),
    Message('note_on', channel=2, note=69, velocity=0, time=239),
    Message('note_on', channel=2, note=69, velocity=64, time=1),
    Message('note_on', channel=2, note=69, velocity=0, time=239),
    Message('note_on', channel=2, note=69, velocity=64, time=1),
    Message('note_on', channel=2, note=69, velocity=0, time=479),
    Message('note_on', channel=2, note=69, velocity=64, time=1),
    Message('note_on', channel=2, note=69, velocity=0, time=479),
    MetaMessage('end_of_track', time=1)]),
  MidiTrack([
    MetaMessage('key_signature', key='C', time=0),
    Message('program_change', channel=3, program=60, time=0),
    Message('control_change', channel=3, control=7, value=100, time=2),
    Message('control_change', channel=3, control=10, value=64, time=2),
    Message('control_change', channel=3, control=91, value=30, time=2),
    Message('control_change', channel=3, control=93, value=30, time=2),
    Message('note_on', channel=3, note=57, velocity=80, time=7672),
    Message('note_on', channel=3, note=57, velocity=0, time=719),
    Message('note_on', channel=3, note=57, velocity=80, time=1),
    Message('note_on', channel=3, note=57, velocity=0, time=239),
    Message('note_on', channel=3, note=57, velocity=80, time=1),
    Message('note_on', channel=3, note=57, velocity=0, time=479),
    Message('note_on', channel=3, note=57, velocity=80, time=1),
    Message('note_on', channel=3, note=57, velocity=0, time=719),
    Message('note_on', channel=3, note=57, velocity=80, time=1),
    Message('note_on', channel=3, note=57, velocity=0, time=239),
    Message('note_on', channel=3, note=57, velocity=80, time=1),
    Message('note_on', channel=3, note=57, velocity=0, time=479),
    Message('note_on', channel=3, note=57, velocity=80, time=1),
    Message('note_on', channel=3, note=57, velocity=0, time=239),
    Message('note_on', channel=3, note=57, velocity=80, time=1),
    Message('note_on', channel=3, note=57, velocity=0, time=239),
    Message('note_on', channel=3, note=55, velocity=80, time=1),
    Message('note_on', channel=3, note=55, velocity=0, time=239),
    Message('note_on', channel=3, note=55, velocity=80, time=1),
    Message('note_on', channel=3, note=55, velocity=0, time=239),
    Message('note_on', channel=3, note=57, velocity=80, time=1),
    Message('note_on', channel=3, note=57, velocity=0, time=719),
    Message('note_on', channel=3, note=57, velocity=80, time=1),
    Message('note_on', channel=3, note=57, velocity=0, time=239),
    Message('note_on', channel=3, note=57, velocity=80, time=1),
    Message('note_on', channel=3, note=57, velocity=0, time=479),
    Message('note_on', channel=3, note=57, velocity=80, time=1),
    Message('note_on', channel=3, note=57, velocity=0, time=719),
    Message('note_on', channel=3, note=57, velocity=80, time=1),
    Message('note_on', channel=3, note=57, velocity=0, time=239),
    Message('note_on', channel=3, note=57, velocity=80, time=1),
    Message('note_on', channel=3, note=57, velocity=0, time=479),
    Message('note_on', channel=3, note=57, velocity=80, time=1),
    Message('note_on', channel=3, note=57, velocity=0, time=239),
    Message('note_on', channel=3, note=57, velocity=80, time=1),
    Message('note_on', channel=3, note=57, velocity=0, time=239),
    Message('note_on', channel=3, note=55, velocity=80, time=1),
    Message('note_on', channel=3, note=55, velocity=0, time=239),
    Message('note_on', channel=3, note=55, velocity=80, time=1),
    Message('note_on', channel=3, note=55, velocity=0, time=239),
    Message('note_on', channel=3, note=57, velocity=80, time=1),
    Message('note_on', channel=3, note=57, velocity=0, time=719),
    Message('note_on', channel=3, note=62, velocity=80, time=1),
    Message('note_on', channel=3, note=62, velocity=0, time=719),
    Message('note_on', channel=3, note=62, velocity=80, time=1),
    Message('note_on', channel=3, note=62, velocity=0, time=239),
    Message('note_on', channel=3, note=65, velocity=80, time=1),
    Message('note_on', channel=3, note=65, velocity=0, time=239),
    Message('note_on', channel=3, note=62, velocity=80, time=1),
    Message('note_on', channel=3, note=62, velocity=0, time=719),
    Message('note_on', channel=3, note=62, velocity=80, time=1),
    Message('note_on', channel=3, note=62, velocity=0, time=719),
    Message('note_on', channel=3, note=62, velocity=80, time=1),
    Message('note_on', channel=3, note=62, velocity=0, time=239),
    Message('note_on', channel=3, note=65, velocity=80, time=1),
    Message('note_on', channel=3, note=65, velocity=0, time=239),
    Message('note_on', channel=3, note=62, velocity=80, time=1),
    Message('note_on', channel=3, note=62, velocity=0, time=719),
    Message('note_on', channel=3, note=62, velocity=80, time=1),
    Message('note_on', channel=3, note=62, velocity=0, time=479),
    Message('note_on', channel=3, note=65, velocity=80, time=1),
    Message('note_on', channel=3, note=65, velocity=0, time=239),
    Message('note_on', channel=3, note=64, velocity=80, time=1),
    Message('note_on', channel=3, note=64, velocity=0, time=239),
    Message('note_on', channel=3, note=74, velocity=80, time=1),
    Message('note_on', channel=3, note=74, velocity=0, time=2159),
    Message('note_on', channel=3, note=65, velocity=80, time=1),
    Message('note_on', channel=3, note=65, velocity=0, time=959),
    Message('note_on', channel=3, note=65, velocity=80, time=1),
    Message('note_on', channel=3, note=65, velocity=0, time=239),
    Message('note_on', channel=3, note=65, velocity=80, time=1),
    Message('note_on', channel=3, note=65, velocity=0, time=239),
    Message('note_on', channel=3, note=64, velocity=80, time=1),
    Message('note_on', channel=3, note=64, velocity=0, time=239),
    Message('note_on', channel=3, note=62, velocity=80, time=1),
    Message('note_on', channel=3, note=62, velocity=0, time=239),
    Message('note_on', channel=3, note=62, velocity=80, time=961),
    Message('note_on', channel=3, note=62, velocity=0, time=479),
    Message('note_on', channel=3, note=62, velocity=80, time=1),
    Message('note_on', channel=3, note=62, velocity=0, time=239),
    Message('note_on', channel=3, note=64, velocity=80, time=1),
    Message('note_on', channel=3, note=64, velocity=0, time=239),
    Message('note_on', channel=3, note=65, velocity=80, time=1),
    Message('note_on', channel=3, note=65, velocity=0, time=239),
    Message('note_on', channel=3, note=64, velocity=80, time=1),
    Message('note_on', channel=3, note=64, velocity=0, time=239),
    Message('note_on', channel=3, note=62, velocity=80, time=1),
    Message('note_on', channel=3, note=62, velocity=0, time=239),
    Message('note_on', channel=3, note=64, velocity=80, time=1),
    Message('note_on', channel=3, note=64, velocity=0, time=239),
    Message('note_on', channel=3, note=65, velocity=80, time=1),
    Message('note_on', channel=3, note=65, velocity=0, time=239),
    Message('note_on', channel=3, note=64, velocity=80, time=1),
    Message('note_on', channel=3, note=64, velocity=0, time=239),
    Message('note_on', channel=3, note=62, velocity=80, time=1),
    Message('note_on', channel=3, note=62, velocity=0, time=479),
    Message('note_on', channel=3, note=62, velocity=80, time=961),
    Message('note_on', channel=3, note=62, velocity=0, time=479),
    Message('note_on', channel=3, note=62, velocity=80, time=1),
    Message('note_on', channel=3, note=62, velocity=0, time=239),
    Message('note_on', channel=3, note=64, velocity=80, time=1),
    Message('note_on', channel=3, note=64, velocity=0, time=239),
    Message('note_on', channel=3, note=65, velocity=80, time=1),
    Message('note_on', channel=3, note=65, velocity=0, time=239),
    Message('note_on', channel=3, note=64, velocity=80, time=1),
    Message('note_on', channel=3, note=64, velocity=0, time=239),
    Message('note_on', channel=3, note=62, velocity=80, time=1),
    Message('note_on', channel=3, note=62, velocity=0, time=239),
    Message('note_on', channel=3, note=64, velocity=80, time=1),
    Message('note_on', channel=3, note=64, velocity=0, time=239),
    Message('note_on', channel=3, note=65, velocity=80, time=1),
    Message('note_on', channel=3, note=65, velocity=0, time=479),
    Message('note_on', channel=3, note=62, velocity=80, time=1),
    Message('note_on', channel=3, note=62, velocity=0, time=239),
    Message('note_on', channel=3, note=64, velocity=80, time=1),
    Message('note_on', channel=3, note=64, velocity=0, time=239),
    Message('note_on', channel=3, note=65, velocity=80, time=1),
    Message('note_on', channel=3, note=65, velocity=0, time=719),
    Message('note_on', channel=3, note=64, velocity=80, time=1),
    Message('note_on', channel=3, note=64, velocity=0, time=719),
    Message('note_on', channel=3, note=62, velocity=80, time=1),
    Message('note_on', channel=3, note=62, velocity=0, time=239),
    Message('note_on', channel=3, note=64, velocity=80, time=1),
    Message('note_on', channel=3, note=64, velocity=0, time=239),
    Message('note_on', channel=3, note=65, velocity=80, time=1),
    Message('note_on', channel=3, note=65, velocity=0, time=479),
    Message('note_on', channel=3, note=62, velocity=80, time=1),
    Message('note_on', channel=3, note=62, velocity=0, time=239),
    Message('note_on', channel=3, note=64, velocity=80, time=1),
    Message('note_on', channel=3, note=64, velocity=0, time=239),
    Message('note_on', channel=3, note=65, velocity=80, time=1),
    Message('note_on', channel=3, note=65, velocity=0, time=239),
    Message('note_on', channel=3, note=64, velocity=80, time=1),
    Message('note_on', channel=3, note=64, velocity=0, time=239),
    Message('note_on', channel=3, note=62, velocity=80, time=1),
    Message('note_on', channel=3, note=62, velocity=0, time=239),
    Message('note_on', channel=3, note=60, velocity=80, time=1),
    Message('note_on', channel=3, note=60, velocity=0, time=239),
    Message('note_on', channel=3, note=62, velocity=80, time=1),
    Message('note_on', channel=3, note=62, velocity=0, time=1919),
    Message('note_on', channel=3, note=65, velocity=80, time=1),
    Message('note_on', channel=3, note=65, velocity=0, time=239),
    Message('note_on', channel=3, note=65, velocity=80, time=1),
    Message('note_on', channel=3, note=65, velocity=0, time=239),
    Message('note_on', channel=3, note=65, velocity=80, time=1),
    Message('note_on', channel=3, note=65, velocity=0, time=479),
    Message('note_on', channel=3, note=65, velocity=80, time=1),
    Message('note_on', channel=3, note=65, velocity=0, time=239),
    Message('note_on', channel=3, note=65, velocity=80, time=1),
    Message('note_on', channel=3, note=65, velocity=0, time=239),
    Message('note_on', channel=3, note=64, velocity=80, time=1),
    Message('note_on', channel=3, note=64, velocity=0, time=239),
    Message('note_on', channel=3, note=62, velocity=80, time=1),
    Message('note_on', channel=3, note=62, velocity=0, time=239),
    Message('note_on', channel=3, note=62, velocity=80, time=961),
    Message('note_on', channel=3, note=62, velocity=0, time=479),
    Message('note_on', channel=3, note=62, velocity=80, time=1),
    Message('note_on', channel=3, note=62, velocity=0, time=239),
    Message('note_on', channel=3, note=64, velocity=80, time=1),
    Message('note_on', channel=3, note=64, velocity=0, time=239),
    Message('note_on', channel=3, note=65, velocity=80, time=1),
    Message('note_on', channel=3, note=65, velocity=0, time=239),
    Message('note_on', channel=3, note=64, velocity=80, time=1),
    Message('note_on', channel=3, note=64, velocity=0, time=239),
    Message('note_on', channel=3, note=62, velocity=80, time=1),
    Message('note_on', channel=3, note=62, velocity=0, time=239),
    Message('note_on', channel=3, note=64, velocity=80, time=1),
    Message('note_on', channel=3, note=64, velocity=0, time=239),
    Message('note_on', channel=3, note=65, velocity=80, time=1),
    Message('note_on', channel=3, note=65, velocity=0, time=239),
    Message('note_on', channel=3, note=64, velocity=80, time=1),
    Message('note_on', channel=3, note=64, velocity=0, time=239),
    Message('note_on', channel=3, note=62, velocity=80, time=1),
    Message('note_on', channel=3, note=62, velocity=0, time=239),
    Message('note_on', channel=3, note=64, velocity=80, time=1),
    Message('note_on', channel=3, note=64, velocity=0, time=239),
    Message('note_on', channel=3, note=62, velocity=80, time=961),
    Message('note_on', channel=3, note=62, velocity=0, time=479),
    Message('note_on', channel=3, note=62, velocity=80, time=1),
    Message('note_on', channel=3, note=62, velocity=0, time=239),
    Message('note_on', channel=3, note=64, velocity=80, time=1),
    Message('note_on', channel=3, note=64, velocity=0, time=239),
    Message('note_on', channel=3, note=65, velocity=80, time=1),
    Message('note_on', channel=3, note=65, velocity=0, time=239),
    Message('note_on', channel=3, note=64, velocity=80, time=1),
    Message('note_on', channel=3, note=64, velocity=0, time=239),
    Message('note_on', channel=3, note=62, velocity=80, time=1),
    Message('note_on', channel=3, note=62, velocity=0, time=239),
    Message('note_on', channel=3, note=64, velocity=80, time=1),
    Message('note_on', channel=3, note=64, velocity=0, time=239),
    Message('note_on', channel=3, note=65, velocity=80, time=1),
    Message('note_on', channel=3, note=65, velocity=0, time=239),
    Message('note_on', channel=3, note=64, velocity=80, time=1),
    Message('note_on', channel=3, note=64, velocity=0, time=239),
    Message('note_on', channel=3, note=62, velocity=80, time=1),
    Message('note_on', channel=3, note=62, velocity=0, time=479),
    Message('note_on', channel=3, note=65, velocity=80, time=1),
    Message('note_on', channel=3, note=65, velocity=0, time=239),
    Message('note_on', channel=3, note=64, velocity=80, time=1),
    Message('note_on', channel=3, note=64, velocity=0, time=239),
    Message('note_on', channel=3, note=62, velocity=80, time=1),
    Message('note_on', channel=3, note=62, velocity=0, time=479),
    Message('note_on', channel=3, note=65, velocity=80, time=1),
    Message('note_on', channel=3, note=65, velocity=0, time=239),
    Message('note_on', channel=3, note=64, velocity=80, time=1),
    Message('note_on', channel=3, note=64, velocity=0, time=239),
    Message('note_on', channel=3, note=62, velocity=80, time=1),
    Message('note_on', channel=3, note=62, velocity=0, time=479),
    Message('note_on', channel=3, note=65, velocity=80, time=1),
    Message('note_on', channel=3, note=65, velocity=0, time=239),
    Message('note_on', channel=3, note=64, velocity=80, time=1),
    Message('note_on', channel=3, note=64, velocity=0, time=239),
    Message('note_on', channel=3, note=62, velocity=80, time=1),
    Message('note_on', channel=3, note=62, velocity=0, time=239),
    Message('note_on', channel=3, note=64, velocity=80, time=1),
    Message('note_on', channel=3, note=64, velocity=0, time=239),
    Message('note_on', channel=3, note=65, velocity=80, time=1),
    Message('note_on', channel=3, note=65, velocity=0, time=239),
    Message('note_on', channel=3, note=64, velocity=80, time=1),
    Message('note_on', channel=3, note=64, velocity=0, time=239),
    Message('note_on', channel=3, note=62, velocity=80, time=1),
    Message('note_on', channel=3, note=62, velocity=0, time=239),
    Message('note_on', channel=3, note=60, velocity=80, time=1),
    Message('note_on', channel=3, note=60, velocity=0, time=239),
    Message('note_on', channel=3, note=62, velocity=80, time=1),
    Message('note_on', channel=3, note=62, velocity=0, time=1919),
    Message('note_on', channel=3, note=62, velocity=96, time=11521),
    Message('note_on', channel=3, note=62, velocity=0, time=479),
    Message('note_on', channel=3, note=62, velocity=96, time=1),
    Message('note_on', channel=3, note=62, velocity=0, time=479),
    Message('note_on', channel=3, note=62, velocity=96, time=1),
    Message('note_on', channel=3, note=62, velocity=0, time=239),
    Message('note_on', channel=3, note=53, velocity=96, time=1),
    Message('note_on', channel=3, note=53, velocity=0, time=239),
    Message('note_on', channel=3, note=60, velocity=96, time=1),
    Message('note_on', channel=3, note=60, velocity=0, time=239),
    Message('note_on', channel=3, note=62, velocity=96, time=1),
    Message('note_on', channel=3, note=62, velocity=0, time=239),
    Message('note_on', channel=3, note=62, velocity=96, time=1),
    Message('note_on', channel=3, note=62, velocity=0, time=479),
    Message('note_on', channel=3, note=62, velocity=96, time=1),
    Message('note_on', channel=3, note=62, velocity=0, time=479),
    Message('note_on', channel=3, note=62, velocity=96, time=1),
    Message('note_on', channel=3, note=62, velocity=0, time=239),
    Message('note_on', channel=3, note=53, velocity=96, time=1),
    Message('note_on', channel=3, note=53, velocity=0, time=239),
    Message('note_on', channel=3, note=60, velocity=96, time=1),
    Message('note_on', channel=3, note=60, velocity=0, time=239),
    Message('note_on', channel=3, note=62, velocity=96, time=1),
    Message('note_on', channel=3, note=62, velocity=0, time=239),
    Message('note_on', channel=3, note=62, velocity=96, time=1),
    Message('note_on', channel=3, note=62, velocity=0, time=479),
    Message('note_on', channel=3, note=62, velocity=96, time=1),
    Message('note_on', channel=3, note=62, velocity=0, time=479),
    Message('note_on', channel=3, note=62, velocity=96, time=1),
    Message('note_on', channel=3, note=62, velocity=0, time=239),
    Message('note_on', channel=3, note=62, velocity=96, time=241),
    Message('note_on', channel=3, note=50, velocity=96, time=0),
    Message('note_on', channel=3, note=62, velocity=0, time=239),
    Message('note_on', channel=3, note=50, velocity=0, time=0),
    Message('note_on', channel=3, note=74, velocity=96, time=1),
    Message('note_on', channel=3, note=62, velocity=96, time=0),
    Message('note_on', channel=3, note=74, velocity=0, time=239),
    Message('note_on', channel=3, note=74, velocity=96, time=1),
    Message('note_on', channel=3, note=74, velocity=0, time=959),
    Message('note_on', channel=3, note=62, velocity=0, time=0),
    Message('note_on', channel=3, note=57, velocity=96, time=241),
    Message('note_on', channel=3, note=57, velocity=0, time=239),
    Message('note_on', channel=3, note=60, velocity=96, time=1),
    Message('note_on', channel=3, note=60, velocity=0, time=239),
    Message('note_on', channel=3, note=62, velocity=96, time=1),
    Message('note_on', channel=3, note=62, velocity=0, time=239),
    Message('note_on', channel=3, note=62, velocity=96, time=1),
    Message('note_on', channel=3, note=62, velocity=0, time=479),
    Message('note_on', channel=3, note=62, velocity=96, time=1),
    Message('note_on', channel=3, note=62, velocity=0, time=479),
    Message('note_on', channel=3, note=62, velocity=96, time=1),
    Message('note_on', channel=3, note=62, velocity=0, time=239),
    Message('note_on', channel=3, note=53, velocity=96, time=1),
    Message('note_on', channel=3, note=53, velocity=0, time=239),
    Message('note_on', channel=3, note=60, velocity=96, time=1),
    Message('note_on', channel=3, note=60, velocity=0, time=239),
    Message('note_on', channel=3, note=62, velocity=96, time=1),
    Message('note_on', channel=3, note=62, velocity=0, time=239),
    Message('note_on', channel=3, note=62, velocity=96, time=1),
    Message('note_on', channel=3, note=62, velocity=0, time=479),
    Message('note_on', channel=3, note=62, velocity=96, time=1),
    Message('note_on', channel=3, note=62, velocity=0, time=479),
    Message('note_on', channel=3, note=62, velocity=96, time=1),
    Message('note_on', channel=3, note=62, velocity=0, time=239),
    Message('note_on', channel=3, note=53, velocity=96, time=1),
    Message('note_on', channel=3, note=53, velocity=0, time=239),
    Message('note_on', channel=3, note=60, velocity=96, time=1),
    Message('note_on', channel=3, note=60, velocity=0, time=239),
    Message('note_on', channel=3, note=62, velocity=96, time=1),
    Message('note_on', channel=3, note=62, velocity=0, time=239),
    Message('note_on', channel=3, note=62, velocity=96, time=1),
    Message('note_on', channel=3, note=62, velocity=0, time=479),
    Message('note_on', channel=3, note=62, velocity=96, time=1),
    Message('note_on', channel=3, note=62, velocity=0, time=479),
    Message('note_on', channel=3, note=62, velocity=96, time=1),
    Message('note_on', channel=3, note=62, velocity=0, time=239),
    Message('note_on', channel=3, note=62, velocity=96, time=241),
    Message('note_on', channel=3, note=50, velocity=96, time=0),
    Message('note_on', channel=3, note=62, velocity=0, time=239),
    Message('note_on', channel=3, note=50, velocity=0, time=0),
    Message('note_on', channel=3, note=74, velocity=96, time=1),
    Message('note_on', channel=3, note=62, velocity=96, time=0),
    Message('note_on', channel=3, note=74, velocity=0, time=239),
    Message('note_on', channel=3, note=74, velocity=96, time=1),
    Message('note_on', channel=3, note=74, velocity=0, time=959),
    Message('note_on', channel=3, note=62, velocity=0, time=0),
    Message('note_on', channel=3, note=57, velocity=96, time=7201),
    Message('note_on', channel=3, note=57, velocity=0, time=239),
    Message('note_on', channel=3, note=57, velocity=96, time=1),
    Message('note_on', channel=3, note=57, velocity=0, time=239),
    Message('note_on', channel=3, note=57, velocity=96, time=1),
    Message('note_on', channel=3, note=57, velocity=0, time=479),
    Message('note_on', channel=3, note=57, velocity=96, time=1),
    Message('note_on', channel=3, note=57, velocity=0, time=479),
    Message('note_on', channel=3, note=57, velocity=96, time=6241),
    Message('note_on', channel=3, note=57, velocity=0, time=239),
    Message('note_on', channel=3, note=57, velocity=96, time=1),
    Message('note_on', channel=3, note=57, velocity=0, time=239),
    Message('note_on', channel=3, note=57, velocity=96, time=1),
    Message('note_on', channel=3, note=57, velocity=0, time=479),
    Message('note_on', channel=3, note=57, velocity=96, time=1),
    Message('note_on', channel=3, note=57, velocity=0, time=479),
    Message('note_on', channel=3, note=62, velocity=96, time=6721),
    Message('note_on', channel=3, note=62, velocity=0, time=479),
    Message('note_on', channel=3, note=64, velocity=96, time=1),
    Message('note_on', channel=3, note=64, velocity=0, time=479),
    Message('note_on', channel=3, note=65, velocity=96, time=1),
    Message('note_on', channel=3, note=65, velocity=0, time=479),
    Message('note_on', channel=3, note=64, velocity=96, time=1),
    Message('note_on', channel=3, note=64, velocity=0, time=479),
    Message('note_on', channel=3, note=62, velocity=96, time=1),
    Message('note_on', channel=3, note=62, velocity=0, time=479),
    Message('note_on', channel=3, note=65, velocity=96, time=1),
    Message('note_on', channel=3, note=65, velocity=0, time=479),
    Message('note_on', channel=3, note=67, velocity=96, time=1),
    Message('note_on', channel=3, note=67, velocity=0, time=479),
    Message('note_on', channel=3, note=65, velocity=96, time=1),
    Message('note_on', channel=3, note=65, velocity=0, time=479),
    Message('note_on', channel=3, note=64, velocity=96, time=1),
    Message('note_on', channel=3, note=64, velocity=0, time=479),
    Message('note_on', channel=3, note=69, velocity=96, time=1),
    Message('note_on', channel=3, note=69, velocity=0, time=10559),
    Message('note_on', channel=3, note=69, velocity=96, time=1),
    Message('note_on', channel=3, note=69, velocity=0, time=479),
    Message('note_on', channel=3, note=69, velocity=96, time=1),
    Message('note_on', channel=3, note=69, velocity=0, time=479),
    Message('note_on', channel=3, note=69, velocity=96, time=1),
    Message('note_on', channel=3, note=69, velocity=0, time=479),
    Message('note_on', channel=3, note=60, velocity=96, time=1201),
    Message('note_on', channel=3, note=60, velocity=0, time=239),
    Message('note_on', channel=3, note=60, velocity=96, time=1),
    Message('note_on', channel=3, note=60, velocity=0, time=239),
    Message('note_on', channel=3, note=62, velocity=96, time=1),
    Message('note_on', channel=3, note=62, velocity=0, time=239),
    Message('note_on', channel=3, note=62, velocity=96, time=1),
    Message('note_on', channel=3, note=62, velocity=0, time=479),
    Message('note_on', channel=3, note=62, velocity=96, time=1),
    Message('note_on', channel=3, note=62, velocity=0, time=479),
    Message('note_on', channel=3, note=62, velocity=96, time=1),
    Message('note_on', channel=3, note=62, velocity=0, time=239),
    Message('note_on', channel=3, note=53, velocity=96, time=1),
    Message('note_on', channel=3, note=53, velocity=0, time=239),
    Message('note_on', channel=3, note=60, velocity=96, time=1),
    Message('note_on', channel=3, note=60, velocity=0, time=239),
    Message('note_on', channel=3, note=62, velocity=96, time=1),
    Message('note_on', channel=3, note=62, velocity=0, time=239),
    Message('note_on', channel=3, note=62, velocity=96, time=1),
    Message('note_on', channel=3, note=62, velocity=0, time=479),
    Message('note_on', channel=3, note=62, velocity=96, time=1),
    Message('note_on', channel=3, note=62, velocity=0, time=479),
    Message('note_on', channel=3, note=62, velocity=96, time=1),
    Message('note_on', channel=3, note=62, velocity=0, time=239),
    Message('note_on', channel=3, note=53, velocity=96, time=1),
    Message('note_on', channel=3, note=53, velocity=0, time=239),
    Message('note_on', channel=3, note=60, velocity=96, time=1),
    Message('note_on', channel=3, note=60, velocity=0, time=239),
    Message('note_on', channel=3, note=62, velocity=96, time=1),
    Message('note_on', channel=3, note=62, velocity=0, time=239),
    Message('note_on', channel=3, note=62, velocity=96, time=1),
    Message('note_on', channel=3, note=62, velocity=0, time=479),
    Message('note_on', channel=3, note=62, velocity=96, time=1),
    Message('note_on', channel=3, note=62, velocity=0, time=479),
    Message('note_on', channel=3, note=62, velocity=96, time=1),
    Message('note_on', channel=3, note=62, velocity=0, time=239),
    Message('note_on', channel=3, note=62, velocity=96, time=241),
    Message('note_on', channel=3, note=50, velocity=96, time=0),
    Message('note_on', channel=3, note=62, velocity=0, time=239),
    Message('note_on', channel=3, note=50, velocity=0, time=0),
    Message('note_on', channel=3, note=74, velocity=96, time=1),
    Message('note_on', channel=3, note=62, velocity=96, time=0),
    Message('note_on', channel=3, note=74, velocity=0, time=239),
    Message('note_on', channel=3, note=74, velocity=96, time=1),
    Message('note_on', channel=3, note=74, velocity=0, time=959),
    Message('note_on', channel=3, note=62, velocity=0, time=0),
    Message('note_on', channel=3, note=57, velocity=96, time=241),
    Message('note_on', channel=3, note=57, velocity=0, time=239),
    Message('note_on', channel=3, note=60, velocity=96, time=1),
    Message('note_on', channel=3, note=60, velocity=0, time=239),
    Message('note_on', channel=3, note=62, velocity=96, time=1),
    Message('note_on', channel=3, note=62, velocity=0, time=239),
    Message('note_on', channel=3, note=62, velocity=96, time=1),
    Message('note_on', channel=3, note=62, velocity=0, time=479),
    Message('note_on', channel=3, note=62, velocity=96, time=1),
    Message('note_on', channel=3, note=62, velocity=0, time=479),
    Message('note_on', channel=3, note=62, velocity=96, time=1),
    Message('note_on', channel=3, note=62, velocity=0, time=239),
    Message('note_on', channel=3, note=53, velocity=96, time=1),
    Message('note_on', channel=3, note=53, velocity=0, time=239),
    Message('note_on', channel=3, note=60, velocity=96, time=1),
    Message('note_on', channel=3, note=60, velocity=0, time=239),
    Message('note_on', channel=3, note=62, velocity=96, time=1),
    Message('note_on', channel=3, note=62, velocity=0, time=239),
    Message('note_on', channel=3, note=62, velocity=96, time=1),
    Message('note_on', channel=3, note=62, velocity=0, time=479),
    Message('note_on', channel=3, note=62, velocity=96, time=1),
    Message('note_on', channel=3, note=62, velocity=0, time=479),
    Message('note_on', channel=3, note=62, velocity=96, time=1),
    Message('note_on', channel=3, note=62, velocity=0, time=239),
    Message('note_on', channel=3, note=53, velocity=96, time=1),
    Message('note_on', channel=3, note=53, velocity=0, time=239),
    Message('note_on', channel=3, note=60, velocity=96, time=1),
    Message('note_on', channel=3, note=60, velocity=0, time=239),
    Message('note_on', channel=3, note=62, velocity=96, time=1),
    Message('note_on', channel=3, note=62, velocity=0, time=239),
    Message('note_on', channel=3, note=62, velocity=96, time=1),
    Message('note_on', channel=3, note=62, velocity=0, time=479),
    Message('note_on', channel=3, note=62, velocity=96, time=1),
    Message('note_on', channel=3, note=62, velocity=0, time=479),
    Message('note_on', channel=3, note=62, velocity=96, time=1),
    Message('note_on', channel=3, note=62, velocity=0, time=239),
    Message('note_on', channel=3, note=62, velocity=96, time=241),
    Message('note_on', channel=3, note=50, velocity=96, time=0),
    Message('note_on', channel=3, note=62, velocity=0, time=239),
    Message('note_on', channel=3, note=50, velocity=0, time=0),
    Message('note_on', channel=3, note=74, velocity=96, time=1),
    Message('note_on', channel=3, note=62, velocity=96, time=0),
    Message('note_on', channel=3, note=74, velocity=0, time=239),
    Message('note_on', channel=3, note=74, velocity=96, time=1),
    Message('note_on', channel=3, note=74, velocity=0, time=959),
    Message('note_on', channel=3, note=62, velocity=0, time=0),
    Message('note_on', channel=3, note=57, velocity=96, time=7201),
    Message('note_on', channel=3, note=57, velocity=0, time=239),
    Message('note_on', channel=3, note=57, velocity=96, time=1),
    Message('note_on', channel=3, note=57, velocity=0, time=239),
    Message('note_on', channel=3, note=57, velocity=96, time=1),
    Message('note_on', channel=3, note=57, velocity=0, time=479),
    Message('note_on', channel=3, note=57, velocity=96, time=1),
    Message('note_on', channel=3, note=57, velocity=0, time=479),
    Message('note_on', channel=3, note=57, velocity=96, time=6241),
    Message('note_on', channel=3, note=57, velocity=0, time=239),
    Message('note_on', channel=3, note=57, velocity=96, time=1),
    Message('note_on', channel=3, note=57, velocity=0, time=239),
    Message('note_on', channel=3, note=57, velocity=96, time=1),
    Message('note_on', channel=3, note=57, velocity=0, time=479),
    Message('note_on', channel=3, note=57, velocity=96, time=1),
    Message('note_on', channel=3, note=57, velocity=0, time=479),
    Message('note_on', channel=3, note=62, velocity=96, time=1),
    Message('note_on', channel=3, note=62, velocity=0, time=719),
    Message('note_on', channel=3, note=69, velocity=96, time=1),
    Message('note_on', channel=3, note=69, velocity=0, time=719),
    Message('note_on', channel=3, note=67, velocity=96, time=1),
    Message('note_on', channel=3, note=67, velocity=0, time=239),
    Message('note_on', channel=3, note=65, velocity=96, time=1),
    Message('note_on', channel=3, note=65, velocity=0, time=239),
    Message('note_on', channel=3, note=67, velocity=96, time=1),
    Message('note_on', channel=3, note=67, velocity=0, time=719),
    Message('note_on', channel=3, note=69, velocity=96, time=1),
    Message('note_on', channel=3, note=69, velocity=0, time=719),
    Message('note_on', channel=3, note=67, velocity=96, time=1),
    Message('note_on', channel=3, note=67, velocity=0, time=239),
    Message('note_on', channel=3, note=65, velocity=96, time=1),
    Message('note_on', channel=3, note=65, velocity=0, time=239),
    Message('note_on', channel=3, note=67, velocity=96, time=1),
    Message('note_on', channel=3, note=67, velocity=0, time=719),
    Message('note_on', channel=3, note=69, velocity=96, time=1),
    Message('note_on', channel=3, note=69, velocity=0, time=479),
    Message('note_on', channel=3, note=65, velocity=96, time=1),
    Message('note_on', channel=3, note=65, velocity=0, time=239),
    Message('note_on', channel=3, note=64, velocity=96, time=1),
    Message('note_on', channel=3, note=64, velocity=0, time=239),
    Message('note_on', channel=3, note=62, velocity=96, time=1),
    Message('note_on', channel=3, note=62, velocity=0, time=2159),
    MetaMessage('end_of_track', time=1)]),
  MidiTrack([
    MetaMessage('key_signature', key='G', time=0),
    Message('program_change', channel=4, program=56, time=0),
    Message('control_change', channel=4, control=7, value=100, time=2),
    Message('control_change', channel=4, control=10, value=64, time=2),
    Message('control_change', channel=4, control=91, value=30, time=2),
    Message('control_change', channel=4, control=93, value=30, time=2),
    Message('note_on', channel=4, note=62, velocity=80, time=15352),
    Message('note_on', channel=4, note=62, velocity=0, time=719),
    Message('note_on', channel=4, note=69, velocity=80, time=1),
    Message('note_on', channel=4, note=69, velocity=0, time=719),
    Message('note_on', channel=4, note=67, velocity=80, time=1),
    Message('note_on', channel=4, note=67, velocity=0, time=239),
    Message('note_on', channel=4, note=65, velocity=80, time=1),
    Message('note_on', channel=4, note=65, velocity=0, time=239),
    Message('note_on', channel=4, note=67, velocity=80, time=1),
    Message('note_on', channel=4, note=67, velocity=0, time=719),
    Message('note_on', channel=4, note=69, velocity=80, time=1),
    Message('note_on', channel=4, note=69, velocity=0, time=719),
    Message('note_on', channel=4, note=67, velocity=80, time=1),
    Message('note_on', channel=4, note=67, velocity=0, time=239),
    Message('note_on', channel=4, note=65, velocity=80, time=1),
    Message('note_on', channel=4, note=65, velocity=0, time=239),
    Message('note_on', channel=4, note=67, velocity=80, time=1),
    Message('note_on', channel=4, note=67, velocity=0, time=719),
    Message('note_on', channel=4, note=69, velocity=80, time=1),
    Message('note_on', channel=4, note=69, velocity=0, time=479),
    Message('note_on', channel=4, note=65, velocity=80, time=1),
    Message('note_on', channel=4, note=65, velocity=0, time=239),
    Message('note_on', channel=4, note=64, velocity=80, time=1),
    Message('note_on', channel=4, note=64, velocity=0, time=239),
    Message('note_on', channel=4, note=74, velocity=80, time=1),
    Message('note_on', channel=4, note=74, velocity=0, time=2159),
    Message('note_on', channel=4, note=77, velocity=80, time=1),
    Message('note_on', channel=4, note=77, velocity=0, time=239),
    Message('note_on', channel=4, note=77, velocity=80, time=1),
    Message('note_on', channel=4, note=77, velocity=0, time=239),
    Message('note_on', channel=4, note=77, velocity=80, time=1),
    Message('note_on', channel=4, note=77, velocity=0, time=239),
    Message('note_on', channel=4, note=77, velocity=80, time=1),
    Message('note_on', channel=4, note=77, velocity=0, time=239),
    Message('note_on', channel=4, note=77, velocity=80, time=1),
    Message('note_on', channel=4, note=77, velocity=0, time=239),
    Message('note_on', channel=4, note=77, velocity=80, time=1),
    Message('note_on', channel=4, note=77, velocity=0, time=239),
    Message('note_on', channel=4, note=76, velocity=80, time=1),
    Message('note_on', channel=4, note=76, velocity=0, time=239),
    Message('note_on', channel=4, note=74, velocity=80, time=1),
    Message('note_on', channel=4, note=74, velocity=0, time=239),
    Message('note_on', channel=4, note=74, velocity=80, time=961),
    Message('note_on', channel=4, note=74, velocity=0, time=479),
    Message('note_on', channel=4, note=74, velocity=80, time=1),
    Message('note_on', channel=4, note=74, velocity=0, time=239),
    Message('note_on', channel=4, note=76, velocity=80, time=1),
    Message('note_on', channel=4, note=76, velocity=0, time=239),
    Message('note_on', channel=4, note=77, velocity=80, time=1),
    Message('note_on', channel=4, note=77, velocity=0, time=239),
    Message('note_on', channel=4, note=76, velocity=80, time=1),
    Message('note_on', channel=4, note=76, velocity=0, time=239),
    Message('note_on', channel=4, note=74, velocity=80, time=1),
    Message('note_on', channel=4, note=74, velocity=0, time=239),
    Message('note_on', channel=4, note=76, velocity=80, time=1),
    Message('note_on', channel=4, note=76, velocity=0, time=239),
    Message('note_on', channel=4, note=77, velocity=80, time=1),
    Message('note_on', channel=4, note=77, velocity=0, time=239),
    Message('note_on', channel=4, note=76, velocity=80, time=1),
    Message('note_on', channel=4, note=76, velocity=0, time=239),
    Message('note_on', channel=4, note=74, velocity=80, time=1),
    Message('note_on', channel=4, note=74, velocity=0, time=479),
    Message('note_on', channel=4, note=74, velocity=80, time=961),
    Message('note_on', channel=4, note=74, velocity=0, time=479),
    Message('note_on', channel=4, note=74, velocity=80, time=1),
    Message('note_on', channel=4, note=74, velocity=0, time=239),
    Message('note_on', channel=4, note=76, velocity=80, time=1),
    Message('note_on', channel=4, note=76, velocity=0, time=239),
    Message('note_on', channel=4, note=77, velocity=80, time=1),
    Message('note_on', channel=4, note=77, velocity=0, time=239),
    Message('note_on', channel=4, note=76, velocity=80, time=1),
    Message('note_on', channel=4, note=76, velocity=0, time=239),
    Message('note_on', channel=4, note=74, velocity=80, time=1),
    Message('note_on', channel=4, note=74, velocity=0, time=239),
    Message('note_on', channel=4, note=76, velocity=80, time=1),
    Message('note_on', channel=4, note=76, velocity=0, time=239),
    Message('note_on', channel=4, note=77, velocity=80, time=1),
    Message('note_on', channel=4, note=77, velocity=0, time=479),
    Message('note_on', channel=4, note=74, velocity=80, time=1),
    Message('note_on', channel=4, note=74, velocity=0, time=239),
    Message('note_on', channel=4, note=76, velocity=80, time=1),
    Message('note_on', channel=4, note=76, velocity=0, time=239),
    Message('note_on', channel=4, note=77, velocity=80, time=1),
    Message('note_on', channel=4, note=77, velocity=0, time=719),
    Message('note_on', channel=4, note=76, velocity=80, time=1),
    Message('note_on', channel=4, note=76, velocity=0, time=719),
    Message('note_on', channel=4, note=74, velocity=80, time=1),
    Message('note_on', channel=4, note=74, velocity=0, time=239),
    Message('note_on', channel=4, note=76, velocity=80, time=1),
    Message('note_on', channel=4, note=76, velocity=0, time=239),
    Message('note_on', channel=4, note=77, velocity=80, time=1),
    Message('note_on', channel=4, note=77, velocity=0, time=479),
    Message('note_on', channel=4, note=74, velocity=80, time=1),
    Message('note_on', channel=4, note=74, velocity=0, time=239),
    Message('note_on', channel=4, note=76, velocity=80, time=1),
    Message('note_on', channel=4, note=76, velocity=0, time=239),
    Message('note_on', channel=4, note=77, velocity=80, time=1),
    Message('note_on', channel=4, note=77, velocity=0, time=239),
    Message('note_on', channel=4, note=76, velocity=80, time=1),
    Message('note_on', channel=4, note=76, velocity=0, time=239),
    Message('note_on', channel=4, note=74, velocity=80, time=1),
    Message('note_on', channel=4, note=74, velocity=0, time=239),
    Message('note_on', channel=4, note=72, velocity=80, time=1),
    Message('note_on', channel=4, note=72, velocity=0, time=239),
    Message('note_on', channel=4, note=74, velocity=80, time=1),
    Message('note_on', channel=4, note=74, velocity=0, time=1919),
    Message('note_on', channel=4, note=77, velocity=80, time=1),
    Message('note_on', channel=4, note=77, velocity=0, time=239),
    Message('note_on', channel=4, note=77, velocity=80, time=1),
    Message('note_on', channel=4, note=77, velocity=0, time=239),
    Message('note_on', channel=4, note=77, velocity=80, time=1),
    Message('note_on', channel=4, note=77, velocity=0, time=479),
    Message('note_on', channel=4, note=77, velocity=80, time=1),
    Message('note_on', channel=4, note=77, velocity=0, time=239),
    Message('note_on', channel=4, note=77, velocity=80, time=1),
    Message('note_on', channel=4, note=77, velocity=0, time=239),
    Message('note_on', channel=4, note=76, velocity=80, time=1),
    Message('note_on', channel=4, note=76, velocity=0, time=239),
    Message('note_on', channel=4, note=74, velocity=80, time=1),
    Message('note_on', channel=4, note=74, velocity=0, time=239),
    Message('note_on', channel=4, note=74, velocity=80, time=961),
    Message('note_on', channel=4, note=74, velocity=0, time=479),
    Message('note_on', channel=4, note=74, velocity=80, time=1),
    Message('note_on', channel=4, note=74, velocity=0, time=239),
    Message('note_on', channel=4, note=76, velocity=80, time=1),
    Message('note_on', channel=4, note=76, velocity=0, time=239),
    Message('note_on', channel=4, note=77, velocity=80, time=1),
    Message('note_on', channel=4, note=77, velocity=0, time=239),
    Message('note_on', channel=4, note=76, velocity=80, time=1),
    Message('note_on', channel=4, note=76, velocity=0, time=239),
    Message('note_on', channel=4, note=74, velocity=80, time=1),
    Message('note_on', channel=4, note=74, velocity=0, time=239),
    Message('note_on', channel=4, note=76, velocity=80, time=1),
    Message('note_on', channel=4, note=76, velocity=0, time=239),
    Message('note_on', channel=4, note=77, velocity=80, time=1),
    Message('note_on', channel=4, note=77, velocity=0, time=239),
    Message('note_on', channel=4, note=76, velocity=80, time=1),
    Message('note_on', channel=4, note=76, velocity=0, time=239),
    Message('note_on', channel=4, note=74, velocity=80, time=1),
    Message('note_on', channel=4, note=74, velocity=0, time=239),
    Message('note_on', channel=4, note=76, velocity=80, time=1),
    Message('note_on', channel=4, note=76, velocity=0, time=239),
    Message('note_on', channel=4, note=74, velocity=80, time=961),
    Message('note_on', channel=4, note=74, velocity=0, time=479),
    Message('note_on', channel=4, note=74, velocity=80, time=1),
    Message('note_on', channel=4, note=74, velocity=0, time=239),
    Message('note_on', channel=4, note=76, velocity=80, time=1),
    Message('note_on', channel=4, note=76, velocity=0, time=239),
    Message('note_on', channel=4, note=77, velocity=80, time=1),
    Message('note_on', channel=4, note=77, velocity=0, time=239),
    Message('note_on', channel=4, note=76, velocity=80, time=1),
    Message('note_on', channel=4, note=76, velocity=0, time=239),
    Message('note_on', channel=4, note=74, velocity=80, time=1),
    Message('note_on', channel=4, note=74, velocity=0, time=239),
    Message('note_on', channel=4, note=76, velocity=80, time=1),
    Message('note_on', channel=4, note=76, velocity=0, time=239),
    Message('note_on', channel=4, note=77, velocity=80, time=1),
    Message('note_on', channel=4, note=77, velocity=0, time=239),
    Message('note_on', channel=4, note=76, velocity=80, time=1),
    Message('note_on', channel=4, note=76, velocity=0, time=239),
    Message('note_on', channel=4, note=74, velocity=80, time=1),
    Message('note_on', channel=4, note=74, velocity=0, time=479),
    Message('note_on', channel=4, note=77, velocity=80, time=1),
    Message('note_on', channel=4, note=77, velocity=0, time=239),
    Message('note_on', channel=4, note=76, velocity=80, time=1),
    Message('note_on', channel=4, note=76, velocity=0, time=239),
    Message('note_on', channel=4, note=74, velocity=80, time=1),
    Message('note_on', channel=4, note=74, velocity=0, time=479),
    Message('note_on', channel=4, note=77, velocity=80, time=1),
    Message('note_on', channel=4, note=77, velocity=0, time=239),
    Message('note_on', channel=4, note=76, velocity=80, time=1),
    Message('note_on', channel=4, note=76, velocity=0, time=239),
    Message('note_on', channel=4, note=74, velocity=80, time=1),
    Message('note_on', channel=4, note=74, velocity=0, time=479),
    Message('note_on', channel=4, note=77, velocity=80, time=1),
    Message('note_on', channel=4, note=77, velocity=0, time=239),
    Message('note_on', channel=4, note=76, velocity=80, time=1),
    Message('note_on', channel=4, note=76, velocity=0, time=239),
    Message('note_on', channel=4, note=74, velocity=80, time=1),
    Message('note_on', channel=4, note=74, velocity=0, time=239),
    Message('note_on', channel=4, note=76, velocity=80, time=1),
    Message('note_on', channel=4, note=76, velocity=0, time=239),
    Message('note_on', channel=4, note=77, velocity=80, time=1),
    Message('note_on', channel=4, note=77, velocity=0, time=239),
    Message('note_on', channel=4, note=76, velocity=80, time=1),
    Message('note_on', channel=4, note=76, velocity=0, time=239),
    Message('note_on', channel=4, note=74, velocity=80, time=1),
    Message('note_on', channel=4, note=74, velocity=0, time=239),
    Message('note_on', channel=4, note=72, velocity=80, time=1),
    Message('note_on', channel=4, note=72, velocity=0, time=239),
    Message('note_on', channel=4, note=74, velocity=80, time=1),
    Message('note_on', channel=4, note=74, velocity=0, time=1919),
    Message('note_on', channel=4, note=74, velocity=112, time=11521),
    Message('note_on', channel=4, note=74, velocity=0, time=479),
    Message('note_on', channel=4, note=74, velocity=112, time=1),
    Message('note_on', channel=4, note=74, velocity=0, time=479),
    Message('note_on', channel=4, note=74, velocity=112, time=1),
    Message('note_on', channel=4, note=74, velocity=0, time=239),
    Message('note_on', channel=4, note=65, velocity=112, time=1),
    Message('note_on', channel=4, note=65, velocity=0, time=239),
    Message('note_on', channel=4, note=72, velocity=112, time=1),
    Message('note_on', channel=4, note=72, velocity=0, time=239),
    Message('note_on', channel=4, note=74, velocity=112, time=1),
    Message('note_on', channel=4, note=74, velocity=0, time=239),
    Message('note_on', channel=4, note=74, velocity=112, time=1),
    Message('note_on', channel=4, note=74, velocity=0, time=479),
    Message('note_on', channel=4, note=74, velocity=112, time=1),
    Message('note_on', channel=4, note=74, velocity=0, time=479),
    Message('note_on', channel=4, note=74, velocity=112, time=1),
    Message('note_on', channel=4, note=74, velocity=0, time=239),
    Message('note_on', channel=4, note=65, velocity=112, time=1),
    Message('note_on', channel=4, note=65, velocity=0, time=239),
    Message('note_on', channel=4, note=72, velocity=112, time=1),
    Message('note_on', channel=4, note=72, velocity=0, time=239),
    Message('note_on', channel=4, note=74, velocity=112, time=1),
    Message('note_on', channel=4, note=74, velocity=0, time=239),
    Message('note_on', channel=4, note=74, velocity=112, time=1),
    Message('note_on', channel=4, note=74, velocity=0, time=479),
    Message('note_on', channel=4, note=74, velocity=112, time=1),
    Message('note_on', channel=4, note=74, velocity=0, time=479),
    Message('note_on', channel=4, note=74, velocity=112, time=1),
    Message('note_on', channel=4, note=74, velocity=0, time=239),
    Message('note_on', channel=4, note=84, velocity=112, time=1),
    Message('note_on', channel=4, note=72, velocity=112, time=0),
    Message('note_on', channel=4, note=84, velocity=0, time=239),
    Message('note_on', channel=4, note=72, velocity=0, time=0),
    Message('note_on', channel=4, note=84, velocity=112, time=1),
    Message('note_on', channel=4, note=72, velocity=112, time=0),
    Message('note_on', channel=4, note=84, velocity=0, time=239),
    Message('note_on', channel=4, note=72, velocity=0, time=0),
    Message('note_on', channel=4, note=86, velocity=112, time=1),
    Message('note_on', channel=4, note=81, velocity=112, time=0),
    Message('note_on', channel=4, note=74, velocity=112, time=0),
    Message('note_on', channel=4, note=74, velocity=0, time=239),
    Message('note_on', channel=4, note=74, velocity=112, time=1),
    Message('note_on', channel=4, note=74, velocity=0, time=239),
    Message('note_on', channel=4, note=86, velocity=0, time=0),
    Message('note_on', channel=4, note=81, velocity=0, time=0),
    Message('note_on', channel=4, note=86, velocity=112, time=1),
    Message('note_on', channel=4, note=81, velocity=112, time=0),
    Message('note_on', channel=4, note=74, velocity=112, time=0),
    Message('note_on', channel=4, note=86, velocity=0, time=719),
    Message('note_on', channel=4, note=81, velocity=0, time=0),
    Message('note_on', channel=4, note=74, velocity=0, time=0),
    Message('note_on', channel=4, note=69, velocity=112, time=241),
    Message('note_on', channel=4, note=69, velocity=0, time=239),
    Message('note_on', channel=4, note=72, velocity=112, time=1),
    Message('note_on', channel=4, note=72, velocity=0, time=239),
    Message('note_on', channel=4, note=74, velocity=112, time=1),
    Message('note_on', channel=4, note=74, velocity=0, time=239),
    Message('note_on', channel=4, note=74, velocity=112, time=1),
    Message('note_on', channel=4, note=74, velocity=0, time=479),
    Message('note_on', channel=4, note=74, velocity=112, time=1),
    Message('note_on', channel=4, note=74, velocity=0, time=479),
    Message('note_on', channel=4, note=74, velocity=112, time=1),
    Message('note_on', channel=4, note=74, velocity=0, time=239),
    Message('note_on', channel=4, note=65, velocity=112, time=1),
    Message('note_on', channel=4, note=65, velocity=0, time=239),
    Message('note_on', channel=4, note=72, velocity=112, time=1),
    Message('note_on', channel=4, note=72, velocity=0, time=239),
    Message('note_on', channel=4, note=74, velocity=112, time=1),
    Message('note_on', channel=4, note=74, velocity=0, time=239),
    Message('note_on', channel=4, note=74, velocity=112, time=1),
    Message('note_on', channel=4, note=74, velocity=0, time=479),
    Message('note_on', channel=4, note=74, velocity=112, time=1),
    Message('note_on', channel=4, note=74, velocity=0, time=479),
    Message('note_on', channel=4, note=74, velocity=112, time=1),
    Message('note_on', channel=4, note=74, velocity=0, time=239),
    Message('note_on', channel=4, note=65, velocity=112, time=1),
    Message('note_on', channel=4, note=65, velocity=0, time=239),
    Message('note_on', channel=4, note=72, velocity=112, time=1),
    Message('note_on', channel=4, note=72, velocity=0, time=239),
    Message('note_on', channel=4, note=74, velocity=112, time=1),
    Message('note_on', channel=4, note=74, velocity=0, time=239),
    Message('note_on', channel=4, note=74, velocity=112, time=1),
    Message('note_on', channel=4, note=74, velocity=0, time=479),
    Message('note_on', channel=4, note=74, velocity=112, time=1),
    Message('note_on', channel=4, note=74, velocity=0, time=479),
    Message('note_on', channel=4, note=74, velocity=112, time=1),
    Message('note_on', channel=4, note=74, velocity=0, time=239),
    Message('note_on', channel=4, note=84, velocity=112, time=1),
    Message('note_on', channel=4, note=72, velocity=112, time=0),
    Message('note_on', channel=4, note=84, velocity=0, time=239),
    Message('note_on', channel=4, note=72, velocity=0, time=0),
    Message('note_on', channel=4, note=84, velocity=112, time=1),
    Message('note_on', channel=4, note=72, velocity=112, time=0),
    Message('note_on', channel=4, note=84, velocity=0, time=239),
    Message('note_on', channel=4, note=72, velocity=0, time=0),
    Message('note_on', channel=4, note=86, velocity=112, time=1),
    Message('note_on', channel=4, note=81, velocity=112, time=0),
    Message('note_on', channel=4, note=74, velocity=112, time=0),
    Message('note_on', channel=4, note=74, velocity=0, time=239),
    Message('note_on', channel=4, note=74, velocity=112, time=1),
    Message('note_on', channel=4, note=74, velocity=0, time=239),
    Message('note_on', channel=4, note=86, velocity=0, time=0),
    Message('note_on', channel=4, note=81, velocity=0, time=0),
    Message('note_on', channel=4, note=86, velocity=112, time=1),
    Message('note_on', channel=4, note=81, velocity=112, time=0),
    Message('note_on', channel=4, note=74, velocity=112, time=0),
    Message('note_on', channel=4, note=86, velocity=0, time=719),
    Message('note_on', channel=4, note=81, velocity=0, time=0),
    Message('note_on', channel=4, note=74, velocity=0, time=0),
    Message('note_on', channel=4, note=74, velocity=64, time=961),
    Message('note_on', channel=4, note=74, velocity=0, time=239),
    Message('note_on', channel=4, note=65, velocity=64, time=1),
    Message('note_on', channel=4, note=65, velocity=0, time=239),
    Message('note_on', channel=4, note=74, velocity=64, time=1),
    Message('note_on', channel=4, note=74, velocity=0, time=239),
    Message('note_on', channel=4, note=65, velocity=64, time=1),
    Message('note_on', channel=4, note=65, velocity=0, time=239),
    Message('note_on', channel=4, note=74, velocity=64, time=1),
    Message('note_on', channel=4, note=74, velocity=0, time=239),
    Message('note_on', channel=4, note=65, velocity=64, time=1),
    Message('note_on', channel=4, note=65, velocity=0, time=239),
    Message('note_on', channel=4, note=74, velocity=64, time=1),
    Message('note_on', channel=4, note=74, velocity=0, time=239),
    Message('note_on', channel=4, note=65, velocity=64, time=1),
    Message('note_on', channel=4, note=65, velocity=0, time=239),
    Message('note_on', channel=4, note=74, velocity=64, time=1),
    Message('note_on', channel=4, note=74, velocity=0, time=239),
    Message('note_on', channel=4, note=65, velocity=64, time=1),
    Message('note_on', channel=4, note=65, velocity=0, time=239),
    Message('note_on', channel=4, note=74, velocity=64, time=1),
    Message('note_on', channel=4, note=74, velocity=0, time=239),
    Message('note_on', channel=4, note=65, velocity=64, time=1),
    Message('note_on', channel=4, note=65, velocity=0, time=239),
    Message('note_on', channel=4, note=74, velocity=64, time=1),
    Message('note_on', channel=4, note=74, velocity=0, time=239),
    Message('note_on', channel=4, note=65, velocity=64, time=1),
    Message('note_on', channel=4, note=65, velocity=0, time=239),
    Message('note_on', channel=4, note=74, velocity=64, time=1),
    Message('note_on', channel=4, note=74, velocity=0, time=239),
    Message('note_on', channel=4, note=65, velocity=64, time=1),
    Message('note_on', channel=4, note=65, velocity=0, time=239),
    Message('note_on', channel=4, note=74, velocity=64, time=1),
    Message('note_on', channel=4, note=74, velocity=0, time=239),
    Message('note_on', channel=4, note=65, velocity=64, time=1),
    Message('note_on', channel=4, note=65, velocity=0, time=239),
    Message('note_on', channel=4, note=74, velocity=64, time=1),
    Message('note_on', channel=4, note=74, velocity=0, time=239),
    Message('note_on', channel=4, note=65, velocity=64, time=1),
    Message('note_on', channel=4, note=65, velocity=0, time=239),
    Message('note_on', channel=4, note=74, velocity=64, time=1),
    Message('note_on', channel=4, note=74, velocity=0, time=239),
    Message('note_on', channel=4, note=65, velocity=64, time=1),
    Message('note_on', channel=4, note=65, velocity=0, time=239),
    Message('note_on', channel=4, note=74, velocity=64, time=1),
    Message('note_on', channel=4, note=74, velocity=0, time=239),
    Message('note_on', channel=4, note=65, velocity=64, time=1),
    Message('note_on', channel=4, note=65, velocity=0, time=239),
    Message('note_on', channel=4, note=69, velocity=64, time=1),
    Message('note_on', channel=4, note=69, velocity=0, time=239),
    Message('note_on', channel=4, note=65, velocity=64, time=1),
    Message('note_on', channel=4, note=65, velocity=0, time=239),
    Message('note_on', channel=4, note=69, velocity=64, time=1),
    Message('note_on', channel=4, note=69, velocity=0, time=239),
    Message('note_on', channel=4, note=65, velocity=64, time=1),
    Message('note_on', channel=4, note=65, velocity=0, time=239),
    Message('note_on', channel=4, note=69, velocity=64, time=1),
    Message('note_on', channel=4, note=69, velocity=0, time=239),
    Message('note_on', channel=4, note=65, velocity=64, time=1),
    Message('note_on', channel=4, note=65, velocity=0, time=239),
    Message('note_on', channel=4, note=69, velocity=64, time=1),
    Message('note_on', channel=4, note=69, velocity=0, time=239),
    Message('note_on', channel=4, note=65, velocity=64, time=1),
    Message('note_on', channel=4, note=65, velocity=0, time=239),
    Message('note_on', channel=4, note=74, velocity=64, time=1),
    Message('note_on', channel=4, note=74, velocity=0, time=239),
    Message('note_on', channel=4, note=65, velocity=64, time=1),
    Message('note_on', channel=4, note=65, velocity=0, time=239),
    Message('note_on', channel=4, note=74, velocity=64, time=1),
    Message('note_on', channel=4, note=74, velocity=0, time=239),
    Message('note_on', channel=4, note=65, velocity=64, time=1),
    Message('note_on', channel=4, note=65, velocity=0, time=239),
    Message('note_on', channel=4, note=74, velocity=64, time=1),
    Message('note_on', channel=4, note=74, velocity=0, time=239),
    Message('note_on', channel=4, note=65, velocity=64, time=1),
    Message('note_on', channel=4, note=65, velocity=0, time=239),
    Message('note_on', channel=4, note=74, velocity=64, time=1),
    Message('note_on', channel=4, note=74, velocity=0, time=239),
    Message('note_on', channel=4, note=65, velocity=64, time=1),
    Message('note_on', channel=4, note=65, velocity=0, time=239),
    Message('note_on', channel=4, note=74, velocity=64, time=1),
    Message('note_on', channel=4, note=74, velocity=0, time=239),
    Message('note_on', channel=4, note=65, velocity=64, time=1),
    Message('note_on', channel=4, note=65, velocity=0, time=239),
    Message('note_on', channel=4, note=74, velocity=64, time=1),
    Message('note_on', channel=4, note=74, velocity=0, time=239),
    Message('note_on', channel=4, note=65, velocity=64, time=1),
    Message('note_on', channel=4, note=65, velocity=0, time=239),
    Message('note_on', channel=4, note=74, velocity=64, time=1),
    Message('note_on', channel=4, note=74, velocity=0, time=239),
    Message('note_on', channel=4, note=65, velocity=64, time=1),
    Message('note_on', channel=4, note=65, velocity=0, time=239),
    Message('note_on', channel=4, note=74, velocity=64, time=1),
    Message('note_on', channel=4, note=74, velocity=0, time=239),
    Message('note_on', channel=4, note=65, velocity=64, time=1),
    Message('note_on', channel=4, note=65, velocity=0, time=239),
    Message('note_on', channel=4, note=74, velocity=64, time=1),
    Message('note_on', channel=4, note=74, velocity=0, time=239),
    Message('note_on', channel=4, note=65, velocity=64, time=1),
    Message('note_on', channel=4, note=65, velocity=0, time=239),
    Message('note_on', channel=4, note=74, velocity=64, time=1),
    Message('note_on', channel=4, note=74, velocity=0, time=239),
    Message('note_on', channel=4, note=65, velocity=64, time=1),
    Message('note_on', channel=4, note=65, velocity=0, time=239),
    Message('note_on', channel=4, note=74, velocity=64, time=1),
    Message('note_on', channel=4, note=74, velocity=0, time=239),
    Message('note_on', channel=4, note=65, velocity=64, time=1),
    Message('note_on', channel=4, note=65, velocity=0, time=239),
    Message('note_on', channel=4, note=74, velocity=64, time=1),
    Message('note_on', channel=4, note=74, velocity=0, time=239),
    Message('note_on', channel=4, note=65, velocity=64, time=1),
    Message('note_on', channel=4, note=65, velocity=0, time=239),
    Message('note_on', channel=4, note=69, velocity=64, time=1),
    Message('note_on', channel=4, note=69, velocity=0, time=239),
    Message('note_on', channel=4, note=65, velocity=64, time=1),
    Message('note_on', channel=4, note=65, velocity=0, time=239),
    Message('note_on', channel=4, note=69, velocity=64, time=1),
    Message('note_on', channel=4, note=69, velocity=0, time=239),
    Message('note_on', channel=4, note=65, velocity=64, time=1),
    Message('note_on', channel=4, note=65, velocity=0, time=239),
    Message('note_on', channel=4, note=69, velocity=64, time=1),
    Message('note_on', channel=4, note=69, velocity=0, time=239),
    Message('note_on', channel=4, note=65, velocity=64, time=1),
    Message('note_on', channel=4, note=65, velocity=0, time=239),
    Message('note_on', channel=4, note=69, velocity=64, time=1),
    Message('note_on', channel=4, note=69, velocity=0, time=239),
    Message('note_on', channel=4, note=65, velocity=64, time=1),
    Message('note_on', channel=4, note=65, velocity=0, time=239),
    Message('note_on', channel=4, note=74, velocity=96, time=14401),
    Message('note_on', channel=4, note=74, velocity=0, time=479),
    Message('note_on', channel=4, note=76, velocity=96, time=1),
    Message('note_on', channel=4, note=76, velocity=0, time=479),
    Message('note_on', channel=4, note=77, velocity=96, time=1),
    Message('note_on', channel=4, note=77, velocity=0, time=479),
    Message('note_on', channel=4, note=76, velocity=96, time=1),
    Message('note_on', channel=4, note=76, velocity=0, time=479),
    Message('note_on', channel=4, note=74, velocity=96, time=1),
    Message('note_on', channel=4, note=74, velocity=0, time=479),
    Message('note_on', channel=4, note=77, velocity=96, time=1),
    Message('note_on', channel=4, note=77, velocity=0, time=479),
    Message('note_on', channel=4, note=79, velocity=96, time=1),
    Message('note_on', channel=4, note=79, velocity=0, time=479),
    Message('note_on', channel=4, note=77, velocity=96, time=1),
    Message('note_on', channel=4, note=77, velocity=0, time=479),
    Message('note_on', channel=4, note=76, velocity=96, time=1),
    Message('note_on', channel=4, note=76, velocity=0, time=479),
    Message('note_on', channel=4, note=81, velocity=96, time=1),
    Message('note_on', channel=4, note=81, velocity=0, time=2879),
    Message('note_on', channel=4, note=81, velocity=96, time=1),
    Message('note_on', channel=4, note=81, velocity=0, time=479),
    Message('note_on', channel=4, note=81, velocity=96, time=1),
    Message('note_on', channel=4, note=81, velocity=0, time=479),
    Message('note_on', channel=4, note=81, velocity=96, time=1),
    Message('note_on', channel=4, note=81, velocity=0, time=479),
    Message('note_on', channel=4, note=72, velocity=96, time=1201),
    Message('note_on', channel=4, note=72, velocity=0, time=239),
    Message('note_on', channel=4, note=72, velocity=96, time=1),
    Message('note_on', channel=4, note=72, velocity=0, time=239),
    Message('note_on', channel=4, note=74, velocity=96, time=1),
    Message('note_on', channel=4, note=74, velocity=0, time=239),
    Message('note_on', channel=4, note=74, velocity=96, time=1),
    Message('note_on', channel=4, note=74, velocity=0, time=479),
    Message('note_on', channel=4, note=74, velocity=96, time=1),
    Message('note_on', channel=4, note=74, velocity=0, time=479),
    Message('note_on', channel=4, note=74, velocity=96, time=1),
    Message('note_on', channel=4, note=74, velocity=0, time=239),
    Message('note_on', channel=4, note=65, velocity=96, time=1),
    Message('note_on', channel=4, note=65, velocity=0, time=239),
    Message('note_on', channel=4, note=72, velocity=96, time=1),
    Message('note_on', channel=4, note=72, velocity=0, time=239),
    Message('note_on', channel=4, note=74, velocity=96, time=1),
    Message('note_on', channel=4, note=74, velocity=0, time=239),
    Message('note_on', channel=4, note=74, velocity=96, time=1),
    Message('note_on', channel=4, note=74, velocity=0, time=479),
    Message('note_on', channel=4, note=74, velocity=96, time=1),
    Message('note_on', channel=4, note=74, velocity=0, time=479),
    Message('note_on', channel=4, note=74, velocity=96, time=1),
    Message('note_on', channel=4, note=74, velocity=0, time=239),
    Message('note_on', channel=4, note=65, velocity=96, time=1),
    Message('note_on', channel=4, note=65, velocity=0, time=239),
    Message('note_on', channel=4, note=72, velocity=96, time=1),
    Message('note_on', channel=4, note=72, velocity=0, time=239),
    Message('note_on', channel=4, note=74, velocity=96, time=1),
    Message('note_on', channel=4, note=74, velocity=0, time=239),
    Message('note_on', channel=4, note=74, velocity=96, time=1),
    Message('note_on', channel=4, note=74, velocity=0, time=479),
    Message('note_on', channel=4, note=74, velocity=96, time=1),
    Message('note_on', channel=4, note=74, velocity=0, time=479),
    Message('note_on', channel=4, note=74, velocity=96, time=1),
    Message('note_on', channel=4, note=74, velocity=0, time=239),
    Message('note_on', channel=4, note=84, velocity=96, time=1),
    Message('note_on', channel=4, note=72, velocity=96, time=0),
    Message('note_on', channel=4, note=84, velocity=0, time=239),
    Message('note_on', channel=4, note=72, velocity=0, time=0),
    Message('note_on', channel=4, note=84, velocity=96, time=1),
    Message('note_on', channel=4, note=72, velocity=96, time=0),
    Message('note_on', channel=4, note=84, velocity=0, time=239),
    Message('note_on', channel=4, note=72, velocity=0, time=0),
    Message('note_on', channel=4, note=86, velocity=96, time=1),
    Message('note_on', channel=4, note=81, velocity=96, time=0),
    Message('note_on', channel=4, note=74, velocity=96, time=0),
    Message('note_on', channel=4, note=74, velocity=0, time=239),
    Message('note_on', channel=4, note=74, velocity=96, time=1),
    Message('note_on', channel=4, note=74, velocity=0, time=239),
    Message('note_on', channel=4, note=86, velocity=0, time=0),
    Message('note_on', channel=4, note=81, velocity=0, time=0),
    Message('note_on', channel=4, note=86, velocity=96, time=1),
    Message('note_on', channel=4, note=81, velocity=96, time=0),
    Message('note_on', channel=4, note=74, velocity=96, time=0),
    Message('note_on', channel=4, note=86, velocity=0, time=719),
    Message('note_on', channel=4, note=81, velocity=0, time=0),
    Message('note_on', channel=4, note=74, velocity=0, time=0),
    Message('note_on', channel=4, note=69, velocity=96, time=241),
    Message('note_on', channel=4, note=69, velocity=0, time=239),
    Message('note_on', channel=4, note=72, velocity=96, time=1),
    Message('note_on', channel=4, note=72, velocity=0, time=239),
    Message('note_on', channel=4, note=74, velocity=96, time=1),
    Message('note_on', channel=4, note=74, velocity=0, time=239),
    Message('note_on', channel=4, note=74, velocity=96, time=1),
    Message('note_on', channel=4, note=74, velocity=0, time=479),
    Message('note_on', channel=4, note=74, velocity=96, time=1),
    Message('note_on', channel=4, note=74, velocity=0, time=479),
    Message('note_on', channel=4, note=74, velocity=96, time=1),
    Message('note_on', channel=4, note=74, velocity=0, time=239),
    Message('note_on', channel=4, note=65, velocity=96, time=1),
    Message('note_on', channel=4, note=65, velocity=0, time=239),
    Message('note_on', channel=4, note=72, velocity=96, time=1),
    Message('note_on', channel=4, note=72, velocity=0, time=239),
    Message('note_on', channel=4, note=74, velocity=96, time=1),
    Message('note_on', channel=4, note=74, velocity=0, time=239),
    Message('note_on', channel=4, note=74, velocity=96, time=1),
    Message('note_on', channel=4, note=74, velocity=0, time=479),
    Message('note_on', channel=4, note=74, velocity=96, time=1),
    Message('note_on', channel=4, note=74, velocity=0, time=479),
    Message('note_on', channel=4, note=74, velocity=96, time=1),
    Message('note_on', channel=4, note=74, velocity=0, time=239),
    Message('note_on', channel=4, note=65, velocity=96, time=1),
    Message('note_on', channel=4, note=65, velocity=0, time=239),
    Message('note_on', channel=4, note=72, velocity=96, time=1),
    Message('note_on', channel=4, note=72, velocity=0, time=239),
    Message('note_on', channel=4, note=74, velocity=96, time=1),
    Message('note_on', channel=4, note=74, velocity=0, time=239),
    Message('note_on', channel=4, note=74, velocity=96, time=1),
    Message('note_on', channel=4, note=74, velocity=0, time=479),
    Message('note_on', channel=4, note=74, velocity=96, time=1),
    Message('note_on', channel=4, note=74, velocity=0, time=479),
    Message('note_on', channel=4, note=74, velocity=96, time=1),
    Message('note_on', channel=4, note=74, velocity=0, time=239),
    Message('note_on', channel=4, note=84, velocity=96, time=1),
    Message('note_on', channel=4, note=72, velocity=96, time=0),
    Message('note_on', channel=4, note=84, velocity=0, time=239),
    Message('note_on', channel=4, note=72, velocity=0, time=0),
    Message('note_on', channel=4, note=84, velocity=96, time=1),
    Message('note_on', channel=4, note=72, velocity=96, time=0),
    Message('note_on', channel=4, note=84, velocity=0, time=239),
    Message('note_on', channel=4, note=72, velocity=0, time=0),
    Message('note_on', channel=4, note=86, velocity=96, time=1),
    Message('note_on', channel=4, note=81, velocity=96, time=0),
    Message('note_on', channel=4, note=74, velocity=96, time=0),
    Message('note_on', channel=4, note=74, velocity=0, time=239),
    Message('note_on', channel=4, note=74, velocity=96, time=1),
    Message('note_on', channel=4, note=74, velocity=0, time=239),
    Message('note_on', channel=4, note=86, velocity=0, time=0),
    Message('note_on', channel=4, note=81, velocity=0, time=0),
    Message('note_on', channel=4, note=86, velocity=96, time=1),
    Message('note_on', channel=4, note=81, velocity=96, time=0),
    Message('note_on', channel=4, note=74, velocity=96, time=0),
    Message('note_on', channel=4, note=86, velocity=0, time=719),
    Message('note_on', channel=4, note=81, velocity=0, time=0),
    Message('note_on', channel=4, note=74, velocity=0, time=0),
    Message('note_on', channel=4, note=74, velocity=96, time=961),
    Message('note_on', channel=4, note=74, velocity=0, time=239),
    Message('note_on', channel=4, note=65, velocity=96, time=1),
    Message('note_on', channel=4, note=65, velocity=0, time=239),
    Message('note_on', channel=4, note=74, velocity=96, time=1),
    Message('note_on', channel=4, note=74, velocity=0, time=239),
    Message('note_on', channel=4, note=65, velocity=96, time=1),
    Message('note_on', channel=4, note=65, velocity=0, time=239),
    Message('note_on', channel=4, note=74, velocity=96, time=1),
    Message('note_on', channel=4, note=74, velocity=0, time=239),
    Message('note_on', channel=4, note=65, velocity=96, time=1),
    Message('note_on', channel=4, note=65, velocity=0, time=239),
    Message('note_on', channel=4, note=74, velocity=96, time=1),
    Message('note_on', channel=4, note=74, velocity=0, time=239),
    Message('note_on', channel=4, note=65, velocity=96, time=1),
    Message('note_on', channel=4, note=65, velocity=0, time=239),
    Message('note_on', channel=4, note=74, velocity=96, time=1),
    Message('note_on', channel=4, note=74, velocity=0, time=239),
    Message('note_on', channel=4, note=65, velocity=96, time=1),
    Message('note_on', channel=4, note=65, velocity=0, time=239),
    Message('note_on', channel=4, note=74, velocity=96, time=1),
    Message('note_on', channel=4, note=74, velocity=0, time=239),
    Message('note_on', channel=4, note=65, velocity=96, time=1),
    Message('note_on', channel=4, note=65, velocity=0, time=239),
    Message('note_on', channel=4, note=74, velocity=96, time=1),
    Message('note_on', channel=4, note=74, velocity=0, time=239),
    Message('note_on', channel=4, note=65, velocity=96, time=1),
    Message('note_on', channel=4, note=65, velocity=0, time=239),
    Message('note_on', channel=4, note=74, velocity=96, time=1),
    Message('note_on', channel=4, note=74, velocity=0, time=239),
    Message('note_on', channel=4, note=65, velocity=96, time=1),
    Message('note_on', channel=4, note=65, velocity=0, time=239),
    Message('note_on', channel=4, note=74, velocity=96, time=1),
    Message('note_on', channel=4, note=74, velocity=0, time=239),
    Message('note_on', channel=4, note=65, velocity=96, time=1),
    Message('note_on', channel=4, note=65, velocity=0, time=239),
    Message('note_on', channel=4, note=74, velocity=96, time=1),
    Message('note_on', channel=4, note=74, velocity=0, time=239),
    Message('note_on', channel=4, note=65, velocity=96, time=1),
    Message('note_on', channel=4, note=65, velocity=0, time=239),
    Message('note_on', channel=4, note=74, velocity=96, time=1),
    Message('note_on', channel=4, note=74, velocity=0, time=239),
    Message('note_on', channel=4, note=65, velocity=96, time=1),
    Message('note_on', channel=4, note=65, velocity=0, time=239),
    Message('note_on', channel=4, note=74, velocity=96, time=1),
    Message('note_on', channel=4, note=74, velocity=0, time=239),
    Message('note_on', channel=4, note=65, velocity=96, time=1),
    Message('note_on', channel=4, note=65, velocity=0, time=239),
    Message('note_on', channel=4, note=69, velocity=96, time=1),
    Message('note_on', channel=4, note=69, velocity=0, time=239),
    Message('note_on', channel=4, note=65, velocity=96, time=1),
    Message('note_on', channel=4, note=65, velocity=0, time=239),
    Message('note_on', channel=4, note=69, velocity=96, time=1),
    Message('note_on', channel=4, note=69, velocity=0, time=239),
    Message('note_on', channel=4, note=65, velocity=96, time=1),
    Message('note_on', channel=4, note=65, velocity=0, time=239),
    Message('note_on', channel=4, note=69, velocity=96, time=1),
    Message('note_on', channel=4, note=69, velocity=0, time=239),
    Message('note_on', channel=4, note=65, velocity=96, time=1),
    Message('note_on', channel=4, note=65, velocity=0, time=239),
    Message('note_on', channel=4, note=69, velocity=96, time=1),
    Message('note_on', channel=4, note=69, velocity=0, time=239),
    Message('note_on', channel=4, note=65, velocity=96, time=1),
    Message('note_on', channel=4, note=65, velocity=0, time=239),
    Message('note_on', channel=4, note=74, velocity=96, time=1),
    Message('note_on', channel=4, note=74, velocity=0, time=239),
    Message('note_on', channel=4, note=65, velocity=96, time=1),
    Message('note_on', channel=4, note=65, velocity=0, time=239),
    Message('note_on', channel=4, note=74, velocity=96, time=1),
    Message('note_on', channel=4, note=74, velocity=0, time=239),
    Message('note_on', channel=4, note=65, velocity=96, time=1),
    Message('note_on', channel=4, note=65, velocity=0, time=239),
    Message('note_on', channel=4, note=74, velocity=96, time=1),
    Message('note_on', channel=4, note=74, velocity=0, time=239),
    Message('note_on', channel=4, note=65, velocity=96, time=1),
    Message('note_on', channel=4, note=65, velocity=0, time=239),
    Message('note_on', channel=4, note=74, velocity=96, time=1),
    Message('note_on', channel=4, note=74, velocity=0, time=239),
    Message('note_on', channel=4, note=65, velocity=96, time=1),
    Message('note_on', channel=4, note=65, velocity=0, time=239),
    Message('note_on', channel=4, note=74, velocity=96, time=1),
    Message('note_on', channel=4, note=74, velocity=0, time=239),
    Message('note_on', channel=4, note=65, velocity=96, time=1),
    Message('note_on', channel=4, note=65, velocity=0, time=239),
    Message('note_on', channel=4, note=74, velocity=96, time=1),
    Message('note_on', channel=4, note=74, velocity=0, time=239),
    Message('note_on', channel=4, note=65, velocity=96, time=1),
    Message('note_on', channel=4, note=65, velocity=0, time=239),
    Message('note_on', channel=4, note=74, velocity=96, time=1),
    Message('note_on', channel=4, note=74, velocity=0, time=239),
    Message('note_on', channel=4, note=65, velocity=96, time=1),
    Message('note_on', channel=4, note=65, velocity=0, time=239),
    Message('note_on', channel=4, note=74, velocity=96, time=1),
    Message('note_on', channel=4, note=74, velocity=0, time=239),
    Message('note_on', channel=4, note=65, velocity=96, time=1),
    Message('note_on', channel=4, note=65, velocity=0, time=239),
    Message('note_on', channel=4, note=74, velocity=96, time=1),
    Message('note_on', channel=4, note=74, velocity=0, time=239),
    Message('note_on', channel=4, note=65, velocity=96, time=1),
    Message('note_on', channel=4, note=65, velocity=0, time=239),
    Message('note_on', channel=4, note=74, velocity=96, time=1),
    Message('note_on', channel=4, note=74, velocity=0, time=239),
    Message('note_on', channel=4, note=65, velocity=96, time=1),
    Message('note_on', channel=4, note=65, velocity=0, time=239),
    Message('note_on', channel=4, note=74, velocity=96, time=1),
    Message('note_on', channel=4, note=74, velocity=0, time=239),
    Message('note_on', channel=4, note=65, velocity=96, time=1),
    Message('note_on', channel=4, note=65, velocity=0, time=239),
    Message('note_on', channel=4, note=74, velocity=96, time=1),
    Message('note_on', channel=4, note=74, velocity=0, time=239),
    Message('note_on', channel=4, note=65, velocity=96, time=1),
    Message('note_on', channel=4, note=65, velocity=0, time=239),
    Message('note_on', channel=4, note=69, velocity=96, time=1),
    Message('note_on', channel=4, note=69, velocity=0, time=239),
    Message('note_on', channel=4, note=65, velocity=96, time=1),
    Message('note_on', channel=4, note=65, velocity=0, time=239),
    Message('note_on', channel=4, note=69, velocity=96, time=1),
    Message('note_on', channel=4, note=69, velocity=0, time=239),
    Message('note_on', channel=4, note=65, velocity=96, time=1),
    Message('note_on', channel=4, note=65, velocity=0, time=239),
    Message('note_on', channel=4, note=69, velocity=96, time=1),
    Message('note_on', channel=4, note=69, velocity=0, time=239),
    Message('note_on', channel=4, note=65, velocity=96, time=1),
    Message('note_on', channel=4, note=65, velocity=0, time=239),
    Message('note_on', channel=4, note=69, velocity=96, time=1),
    Message('note_on', channel=4, note=69, velocity=0, time=239),
    Message('note_on', channel=4, note=65, velocity=96, time=1),
    Message('note_on', channel=4, note=65, velocity=0, time=239),
    MetaMessage('end_of_track', time=1)]),
  MidiTrack([
    MetaMessage('key_signature', key='G', time=0),
    Message('note_on', channel=4, note=62, velocity=80, time=7680),
    Message('note_on', channel=4, note=62, velocity=0, time=719),
    Message('note_on', channel=4, note=62, velocity=80, time=1),
    Message('note_on', channel=4, note=62, velocity=0, time=239),
    Message('note_on', channel=4, note=62, velocity=80, time=1),
    Message('note_on', channel=4, note=62, velocity=0, time=479),
    Message('note_on', channel=4, note=62, velocity=80, time=1),
    Message('note_on', channel=4, note=62, velocity=0, time=719),
    Message('note_on', channel=4, note=62, velocity=80, time=1),
    Message('note_on', channel=4, note=62, velocity=0, time=239),
    Message('note_on', channel=4, note=62, velocity=80, time=1),
    Message('note_on', channel=4, note=62, velocity=0, time=479),
    Message('note_on', channel=4, note=62, velocity=80, time=1),
    Message('note_on', channel=4, note=62, velocity=0, time=239),
    Message('note_on', channel=4, note=62, velocity=80, time=1),
    Message('note_on', channel=4, note=62, velocity=0, time=239),
    Message('note_on', channel=4, note=60, velocity=80, time=1),
    Message('note_on', channel=4, note=60, velocity=0, time=239),
    Message('note_on', channel=4, note=60, velocity=80, time=1),
    Message('note_on', channel=4, note=60, velocity=0, time=239),
    Message('note_on', channel=4, note=62, velocity=80, time=1),
    Message('note_on', channel=4, note=62, velocity=0, time=719),
    Message('note_on', channel=4, note=62, velocity=80, time=1),
    Message('note_on', channel=4, note=62, velocity=0, time=239),
    Message('note_on', channel=4, note=62, velocity=80, time=1),
    Message('note_on', channel=4, note=62, velocity=0, time=479),
    Message('note_on', channel=4, note=62, velocity=80, time=1),
    Message('note_on', channel=4, note=62, velocity=0, time=719),
    Message('note_on', channel=4, note=62, velocity=80, time=1),
    Message('note_on', channel=4, note=62, velocity=0, time=239),
    Message('note_on', channel=4, note=62, velocity=80, time=1),
    Message('note_on', channel=4, note=62, velocity=0, time=479),
    Message('note_on', channel=4, note=62, velocity=80, time=1),
    Message('note_on', channel=4, note=62, velocity=0, time=239),
    Message('note_on', channel=4, note=62, velocity=80, time=1),
    Message('note_on', channel=4, note=62, velocity=0, time=239),
    Message('note_on', channel=4, note=60, velocity=80, time=1),
    Message('note_on', channel=4, note=60, velocity=0, time=239),
    Message('note_on', channel=4, note=60, velocity=80, time=1),
    Message('note_on', channel=4, note=60, velocity=0, time=239),
    Message('note_on', channel=4, note=62, velocity=80, time=1),
    Message('note_on', channel=4, note=62, velocity=0, time=719),
    Message('note_on', channel=4, note=62, velocity=80, time=1),
    Message('note_on', channel=4, note=62, velocity=0, time=239),
    Message('note_on', channel=4, note=62, velocity=80, time=1),
    Message('note_on', channel=4, note=62, velocity=0, time=479),
    Message('note_on', channel=4, note=62, velocity=80, time=1),
    Message('note_on', channel=4, note=62, velocity=0, time=719),
    Message('note_on', channel=4, note=62, velocity=80, time=1),
    Message('note_on', channel=4, note=62, velocity=0, time=239),
    Message('note_on', channel=4, note=62, velocity=80, time=1),
    Message('note_on', channel=4, note=62, velocity=0, time=479),
    Message('note_on', channel=4, note=62, velocity=80, time=1),
    Message('note_on', channel=4, note=62, velocity=0, time=239),
    Message('note_on', channel=4, note=62, velocity=80, time=1),
    Message('note_on', channel=4, note=62, velocity=0, time=239),
    Message('note_on', channel=4, note=60, velocity=80, time=1),
    Message('note_on', channel=4, note=60, velocity=0, time=239),
    Message('note_on', channel=4, note=60, velocity=80, time=1),
    Message('note_on', channel=4, note=60, velocity=0, time=239),
    Message('note_on', channel=4, note=62, velocity=80, time=1),
    Message('note_on', channel=4, note=62, velocity=0, time=719),
    Message('note_on', channel=4, note=62, velocity=80, time=1),
    Message('note_on', channel=4, note=62, velocity=0, time=239),
    Message('note_on', channel=4, note=62, velocity=80, time=1),
    Message('note_on', channel=4, note=62, velocity=0, time=479),
    Message('note_on', channel=4, note=62, velocity=80, time=1),
    Message('note_on', channel=4, note=62, velocity=0, time=719),
    Message('note_on', channel=4, note=62, velocity=80, time=1),
    Message('note_on', channel=4, note=62, velocity=0, time=239),
    Message('note_on', channel=4, note=62, velocity=80, time=1),
    Message('note_on', channel=4, note=62, velocity=0, time=479),
    Message('note_on', channel=4, note=62, velocity=80, time=1),
    Message('note_on', channel=4, note=62, velocity=0, time=239),
    Message('note_on', channel=4, note=62, velocity=80, time=1),
    Message('note_on', channel=4, note=62, velocity=0, time=239),
    Message('note_on', channel=4, note=60, velocity=80, time=1),
    Message('note_on', channel=4, note=60, velocity=0, time=239),
    Message('note_on', channel=4, note=60, velocity=80, time=1),
    Message('note_on', channel=4, note=60, velocity=0, time=239),
    Message('note_on', channel=4, note=65, velocity=80, time=1),
    Message('note_on', channel=4, note=65, velocity=0, time=239),
    Message('note_on', channel=4, note=65, velocity=80, time=1),
    Message('note_on', channel=4, note=65, velocity=0, time=239),
    Message('note_on', channel=4, note=65, velocity=80, time=1),
    Message('note_on', channel=4, note=65, velocity=0, time=239),
    Message('note_on', channel=4, note=65, velocity=80, time=1),
    Message('note_on', channel=4, note=65, velocity=0, time=239),
    Message('note_on', channel=4, note=65, velocity=80, time=1),
    Message('note_on', channel=4, note=65, velocity=0, time=239),
    Message('note_on', channel=4, note=65, velocity=80, time=1),
    Message('note_on', channel=4, note=65, velocity=0, time=239),
    Message('note_on', channel=4, note=67, velocity=80, time=1),
    Message('note_on', channel=4, note=67, velocity=0, time=239),
    Message('note_on', channel=4, note=62, velocity=80, time=1),
    Message('note_on', channel=4, note=62, velocity=0, time=239),
    Message('note_on', channel=4, note=62, velocity=80, time=961),
    Message('note_on', channel=4, note=62, velocity=0, time=479),
    Message('note_on', channel=4, note=62, velocity=80, time=1),
    Message('note_on', channel=4, note=62, velocity=0, time=479),
    Message('note_on', channel=4, note=65, velocity=80, time=1),
    Message('note_on', channel=4, note=65, velocity=0, time=239),
    Message('note_on', channel=4, note=64, velocity=80, time=1),
    Message('note_on', channel=4, note=64, velocity=0, time=239),
    Message('note_on', channel=4, note=62, velocity=80, time=1),
    Message('note_on', channel=4, note=62, velocity=0, time=479),
    Message('note_on', channel=4, note=65, velocity=80, time=1),
    Message('note_on', channel=4, note=65, velocity=0, time=239),
    Message('note_on', channel=4, note=64, velocity=80, time=1),
    Message('note_on', channel=4, note=64, velocity=0, time=239),
    Message('note_on', channel=4, note=62, velocity=80, time=1),
    Message('note_on', channel=4, note=62, velocity=0, time=479),
    Message('note_on', channel=4, note=62, velocity=80, time=961),
    Message('note_on', channel=4, note=62, velocity=0, time=959),
    Message('note_on', channel=4, note=65, velocity=80, time=1),
    Message('note_on', channel=4, note=65, velocity=0, time=239),
    Message('note_on', channel=4, note=67, velocity=80, time=1),
    Message('note_on', channel=4, note=67, velocity=0, time=239),
    Message('note_on', channel=4, note=69, velocity=80, time=1),
    Message('note_on', channel=4, note=69, velocity=0, time=239),
    Message('note_on', channel=4, note=67, velocity=80, time=1),
    Message('note_on', channel=4, note=67, velocity=0, time=239),
    Message('note_on', channel=4, note=65, velocity=80, time=1),
    Message('note_on', channel=4, note=65, velocity=0, time=479),
    Message('note_on', channel=4, note=62, velocity=80, time=1),
    Message('note_on', channel=4, note=62, velocity=0, time=239),
    Message('note_on', channel=4, note=64, velocity=80, time=1),
    Message('note_on', channel=4, note=64, velocity=0, time=239),
    Message('note_on', channel=4, note=62, velocity=80, time=1),
    Message('note_on', channel=4, note=62, velocity=0, time=719),
    Message('note_on', channel=4, note=60, velocity=80, time=1),
    Message('note_on', channel=4, note=60, velocity=0, time=719),
    Message('note_on', channel=4, note=65, velocity=80, time=1),
    Message('note_on', channel=4, note=65, velocity=0, time=239),
    Message('note_on', channel=4, note=64, velocity=80, time=1),
    Message('note_on', channel=4, note=64, velocity=0, time=239),
    Message('note_on', channel=4, note=65, velocity=80, time=1),
    Message('note_on', channel=4, note=65, velocity=0, time=479),
    Message('note_on', channel=4, note=69, velocity=80, time=1),
    Message('note_on', channel=4, note=69, velocity=0, time=239),
    Message('note_on', channel=4, note=67, velocity=80, time=1),
    Message('note_on', channel=4, note=67, velocity=0, time=239),
    Message('note_on', channel=4, note=65, velocity=80, time=1),
    Message('note_on', channel=4, note=65, velocity=0, time=239),
    Message('note_on', channel=4, note=64, velocity=80, time=1),
    Message('note_on', channel=4, note=64, velocity=0, time=239),
    Message('note_on', channel=4, note=62, velocity=80, time=1),
    Message('note_on', channel=4, note=62, velocity=0, time=239),
    Message('note_on', channel=4, note=60, velocity=80, time=1),
    Message('note_on', channel=4, note=60, velocity=0, time=239),
    Message('note_on', channel=4, note=62, velocity=80, time=1),
    Message('note_on', channel=4, note=62, velocity=0, time=1919),
    Message('note_on', channel=4, note=69, velocity=80, time=1),
    Message('note_on', channel=4, note=69, velocity=0, time=239),
    Message('note_on', channel=4, note=69, velocity=80, time=241),
    Message('note_on', channel=4, note=69, velocity=0, time=479),
    Message('note_on', channel=4, note=69, velocity=80, time=1),
    Message('note_on', channel=4, note=69, velocity=0, time=239),
    Message('note_on', channel=4, note=69, velocity=80, time=1),
    Message('note_on', channel=4, note=69, velocity=0, time=239),
    Message('note_on', channel=4, note=70, velocity=80, time=1),
    Message('note_on', channel=4, note=70, velocity=0, time=239),
    Message('note_on', channel=4, note=69, velocity=80, time=1),
    Message('note_on', channel=4, note=69, velocity=0, time=239),
    Message('note_on', channel=4, note=62, velocity=80, time=961),
    Message('note_on', channel=4, note=62, velocity=0, time=479),
    Message('note_on', channel=4, note=62, velocity=80, time=1),
    Message('note_on', channel=4, note=62, velocity=0, time=239),
    Message('note_on', channel=4, note=64, velocity=80, time=1),
    Message('note_on', channel=4, note=64, velocity=0, time=239),
    Message('note_on', channel=4, note=65, velocity=80, time=1),
    Message('note_on', channel=4, note=65, velocity=0, time=239),
    Message('note_on', channel=4, note=64, velocity=80, time=1),
    Message('note_on', channel=4, note=64, velocity=0, time=239),
    Message('note_on', channel=4, note=62, velocity=80, time=1),
    Message('note_on', channel=4, note=62, velocity=0, time=239),
    Message('note_on', channel=4, note=60, velocity=80, time=1),
    Message('note_on', channel=4, note=60, velocity=0, time=239),
    Message('note_on', channel=4, note=58, velocity=80, time=1),
    Message('note_on', channel=4, note=58, velocity=0, time=239),
    Message('note_on', channel=4, note=60, velocity=80, time=1),
    Message('note_on', channel=4, note=60, velocity=0, time=239),
    Message('note_on', channel=4, note=62, velocity=80, time=1),
    Message('note_on', channel=4, note=62, velocity=0, time=239),
    Message('note_on', channel=4, note=64, velocity=80, time=1),
    Message('note_on', channel=4, note=64, velocity=0, time=239),
    Message('note_on', channel=4, note=70, velocity=80, time=961),
    Message('note_on', channel=4, note=70, velocity=0, time=479),
    Message('note_on', channel=4, note=70, velocity=80, time=1),
    Message('note_on', channel=4, note=70, velocity=0, time=239),
    Message('note_on', channel=4, note=69, velocity=80, time=1),
    Message('note_on', channel=4, note=69, velocity=0, time=239),
    Message('note_on', channel=4, note=69, velocity=80, time=1),
    Message('note_on', channel=4, note=69, velocity=0, time=239),
    Message('note_on', channel=4, note=69, velocity=80, time=1),
    Message('note_on', channel=4, note=69, velocity=0, time=239),
    Message('note_on', channel=4, note=70, velocity=80, time=1),
    Message('note_on', channel=4, note=70, velocity=0, time=239),
    Message('note_on', channel=4, note=69, velocity=80, time=1),
    Message('note_on', channel=4, note=69, velocity=0, time=239),
    Message('note_on', channel=4, note=65, velocity=80, time=1),
    Message('note_on', channel=4, note=65, velocity=0, time=239),
    Message('note_on', channel=4, note=64, velocity=80, time=1),
    Message('note_on', channel=4, note=64, velocity=0, time=239),
    Message('note_on', channel=4, note=62, velocity=80, time=1),
    Message('note_on', channel=4, note=62, velocity=0, time=479),
    Message('note_on', channel=4, note=62, velocity=80, time=1),
    Message('note_on', channel=4, note=62, velocity=0, time=239),
    Message('note_on', channel=4, note=64, velocity=80, time=1),
    Message('note_on', channel=4, note=64, velocity=0, time=239),
    Message('note_on', channel=4, note=62, velocity=80, time=1),
    Message('note_on', channel=4, note=62, velocity=0, time=479),
    Message('note_on', channel=4, note=62, velocity=80, time=1),
    Message('note_on', channel=4, note=62, velocity=0, time=239),
    Message('note_on', channel=4, note=64, velocity=80, time=1),
    Message('note_on', channel=4, note=64, velocity=0, time=239),
    Message('note_on', channel=4, note=62, velocity=80, time=1),
    Message('note_on', channel=4, note=62, velocity=0, time=479),
    Message('note_on', channel=4, note=58, velocity=80, time=1),
    Message('note_on', channel=4, note=58, velocity=0, time=239),
    Message('note_on', channel=4, note=60, velocity=80, time=1),
    Message('note_on', channel=4, note=60, velocity=0, time=239),
    Message('note_on', channel=4, note=62, velocity=80, time=1),
    Message('note_on', channel=4, note=62, velocity=0, time=239),
    Message('note_on', channel=4, note=64, velocity=80, time=1),
    Message('note_on', channel=4, note=64, velocity=0, time=239),
    Message('note_on', channel=4, note=65, velocity=80, time=1),
    Message('note_on', channel=4, note=65, velocity=0, time=239),
    Message('note_on', channel=4, note=64, velocity=80, time=1),
    Message('note_on', channel=4, note=64, velocity=0, time=239),
    Message('note_on', channel=4, note=62, velocity=80, time=1),
    Message('note_on', channel=4, note=62, velocity=0, time=239),
    Message('note_on', channel=4, note=60, velocity=80, time=1),
    Message('note_on', channel=4, note=60, velocity=0, time=239),
    Message('note_on', channel=4, note=62, velocity=80, time=1),
    Message('note_on', channel=4, note=62, velocity=0, time=1919),
    Message('note_on', channel=4, note=62, velocity=112, time=11521),
    Message('note_on', channel=4, note=62, velocity=0, time=479),
    Message('note_on', channel=4, note=62, velocity=112, time=1),
    Message('note_on', channel=4, note=62, velocity=0, time=479),
    Message('note_on', channel=4, note=62, velocity=112, time=481),
    Message('note_on', channel=4, note=62, velocity=0, time=479),
    Message('note_on', channel=4, note=58, velocity=112, time=1),
    Message('note_on', channel=4, note=58, velocity=0, time=479),
    Message('note_on', channel=4, note=58, velocity=112, time=1),
    Message('note_on', channel=4, note=58, velocity=0, time=479),
    Message('note_on', channel=4, note=58, velocity=112, time=481),
    Message('note_on', channel=4, note=58, velocity=0, time=479),
    Message('note_on', channel=4, note=67, velocity=112, time=1),
    Message('note_on', channel=4, note=67, velocity=0, time=479),
    Message('note_on', channel=4, note=67, velocity=112, time=1),
    Message('note_on', channel=4, note=67, velocity=0, time=479),
    Message('note_on', channel=4, note=67, velocity=112, time=481),
    Message('note_on', channel=4, note=67, velocity=0, time=479),
    Message('note_on', channel=4, note=67, velocity=112, time=1),
    Message('note_on', channel=4, note=67, velocity=0, time=479),
    Message('note_on', channel=4, note=67, velocity=112, time=1),
    Message('note_on', channel=4, note=67, velocity=0, time=479),
    Message('note_on', channel=4, note=60, velocity=112, time=1),
    Message('note_on', channel=4, note=60, velocity=0, time=479),
    Message('note_on', channel=4, note=60, velocity=112, time=1),
    Message('note_on', channel=4, note=60, velocity=0, time=479),
    Message('note_on', channel=4, note=62, velocity=112, time=1),
    Message('note_on', channel=4, note=62, velocity=0, time=479),
    Message('note_on', channel=4, note=62, velocity=112, time=1),
    Message('note_on', channel=4, note=62, velocity=0, time=479),
    Message('note_on', channel=4, note=62, velocity=112, time=481),
    Message('note_on', channel=4, note=62, velocity=0, time=479),
    Message('note_on', channel=4, note=58, velocity=112, time=1),
    Message('note_on', channel=4, note=58, velocity=0, time=479),
    Message('note_on', channel=4, note=58, velocity=112, time=1),
    Message('note_on', channel=4, note=58, velocity=0, time=479),
    Message('note_on', channel=4, note=58, velocity=112, time=481),
    Message('note_on', channel=4, note=58, velocity=0, time=479),
    Message('note_on', channel=4, note=67, velocity=112, time=1),
    Message('note_on', channel=4, note=67, velocity=0, time=479),
    Message('note_on', channel=4, note=67, velocity=112, time=1),
    Message('note_on', channel=4, note=67, velocity=0, time=479),
    Message('note_on', channel=4, note=67, velocity=112, time=481),
    Message('note_on', channel=4, note=67, velocity=0, time=479),
    Message('note_on', channel=4, note=67, velocity=112, time=1),
    Message('note_on', channel=4, note=67, velocity=0, time=479),
    Message('note_on', channel=4, note=67, velocity=112, time=1),
    Message('note_on', channel=4, note=67, velocity=0, time=479),
    Message('note_on', channel=4, note=60, velocity=112, time=1),
    Message('note_on', channel=4, note=60, velocity=0, time=479),
    Message('note_on', channel=4, note=60, velocity=112, time=1),
    Message('note_on', channel=4, note=60, velocity=0, time=479),
    Message('note_on', channel=4, note=69, velocity=64, time=1),
    Message('note_on', channel=4, note=69, velocity=0, time=479),
    Message('note_on', channel=4, note=69, velocity=64, time=1),
    Message('note_on', channel=4, note=69, velocity=0, time=479),
    Message('note_on', channel=4, note=62, velocity=64, time=1),
    Message('note_on', channel=4, note=62, velocity=0, time=479),
    Message('note_on', channel=4, note=62, velocity=64, time=1),
    Message('note_on', channel=4, note=62, velocity=0, time=479),
    Message('note_on', channel=4, note=65, velocity=64, time=1),
    Message('note_on', channel=4, note=65, velocity=0, time=479),
    Message('note_on', channel=4, note=65, velocity=64, time=1),
    Message('note_on', channel=4, note=65, velocity=0, time=479),
    Message('note_on', channel=4, note=58, velocity=64, time=1),
    Message('note_on', channel=4, note=58, velocity=0, time=479),
    Message('note_on', channel=4, note=58, velocity=64, time=1),
    Message('note_on', channel=4, note=58, velocity=0, time=479),
    Message('note_on', channel=4, note=60, velocity=64, time=1),
    Message('note_on', channel=4, note=60, velocity=0, time=479),
    Message('note_on', channel=4, note=60, velocity=64, time=1),
    Message('note_on', channel=4, note=60, velocity=0, time=479),
    Message('note_on', channel=4, note=65, velocity=64, time=1),
    Message('note_on', channel=4, note=65, velocity=0, time=479),
    Message('note_on', channel=4, note=65, velocity=64, time=1),
    Message('note_on', channel=4, note=65, velocity=0, time=479),
    Message('note_on', channel=4, note=65, velocity=64, time=1),
    Message('note_on', channel=4, note=65, velocity=0, time=479),
    Message('note_on', channel=4, note=65, velocity=64, time=1),
    Message('note_on', channel=4, note=65, velocity=0, time=479),
    Message('note_on', channel=4, note=55, velocity=64, time=1),
    Message('note_on', channel=4, note=55, velocity=0, time=479),
    Message('note_on', channel=4, note=55, velocity=64, time=1),
    Message('note_on', channel=4, note=55, velocity=0, time=479),
    Message('note_on', channel=4, note=57, velocity=64, time=1),
    Message('note_on', channel=4, note=57, velocity=0, time=479),
    Message('note_on', channel=4, note=57, velocity=64, time=1),
    Message('note_on', channel=4, note=57, velocity=0, time=479),
    Message('note_on', channel=4, note=62, velocity=64, time=1),
    Message('note_on', channel=4, note=62, velocity=0, time=479),
    Message('note_on', channel=4, note=62, velocity=64, time=1),
    Message('note_on', channel=4, note=62, velocity=0, time=479),
    Message('note_on', channel=4, note=53, velocity=64, time=1),
    Message('note_on', channel=4, note=53, velocity=0, time=479),
    Message('note_on', channel=4, note=53, velocity=64, time=1),
    Message('note_on', channel=4, note=53, velocity=0, time=479),
    Message('note_on', channel=4, note=58, velocity=64, time=1),
    Message('note_on', channel=4, note=58, velocity=0, time=479),
    Message('note_on', channel=4, note=58, velocity=64, time=1),
    Message('note_on', channel=4, note=58, velocity=0, time=479),
    Message('note_on', channel=4, note=60, velocity=64, time=1),
    Message('note_on', channel=4, note=60, velocity=0, time=479),
    Message('note_on', channel=4, note=60, velocity=64, time=1),
    Message('note_on', channel=4, note=60, velocity=0, time=479),
    Message('note_on', channel=4, note=65, velocity=64, time=1),
    Message('note_on', channel=4, note=65, velocity=0, time=479),
    Message('note_on', channel=4, note=65, velocity=64, time=1),
    Message('note_on', channel=4, note=65, velocity=0, time=479),
    Message('note_on', channel=4, note=65, velocity=64, time=1),
    Message('note_on', channel=4, note=65, velocity=0, time=479),
    Message('note_on', channel=4, note=69, velocity=64, time=1),
    Message('note_on', channel=4, note=69, velocity=0, time=239),
    Message('note_on', channel=4, note=69, velocity=64, time=1),
    Message('note_on', channel=4, note=69, velocity=0, time=239),
    Message('note_on', channel=4, note=69, velocity=64, time=1),
    Message('note_on', channel=4, note=69, velocity=0, time=479),
    Message('note_on', channel=4, note=69, velocity=64, time=1),
    Message('note_on', channel=4, note=69, velocity=0, time=479),
    Message('note_on', channel=4, note=57, velocity=64, time=1),
    Message('note_on', channel=4, note=57, velocity=0, time=719),
    Message('note_on', channel=4, note=57, velocity=64, time=1),
    Message('note_on', channel=4, note=57, velocity=0, time=239),
    Message('note_on', channel=4, note=57, velocity=64, time=1),
    Message('note_on', channel=4, note=57, velocity=0, time=479),
    Message('note_on', channel=4, note=57, velocity=64, time=1),
    Message('note_on', channel=4, note=57, velocity=0, time=719),
    Message('note_on', channel=4, note=57, velocity=64, time=1),
    Message('note_on', channel=4, note=57, velocity=0, time=239),
    Message('note_on', channel=4, note=57, velocity=64, time=1),
    Message('note_on', channel=4, note=57, velocity=0, time=479),
    Message('note_on', channel=4, note=57, velocity=64, time=1),
    Message('note_on', channel=4, note=57, velocity=0, time=239),
    Message('note_on', channel=4, note=57, velocity=64, time=1),
    Message('note_on', channel=4, note=57, velocity=0, time=239),
    Message('note_on', channel=4, note=55, velocity=64, time=1),
    Message('note_on', channel=4, note=55, velocity=0, time=239),
    Message('note_on', channel=4, note=55, velocity=64, time=1),
    Message('note_on', channel=4, note=55, velocity=0, time=239),
    Message('note_on', channel=4, note=57, velocity=64, time=1),
    Message('note_on', channel=4, note=57, velocity=0, time=719),
    Message('note_on', channel=4, note=57, velocity=64, time=1),
    Message('note_on', channel=4, note=57, velocity=0, time=239),
    Message('note_on', channel=4, note=57, velocity=64, time=1),
    Message('note_on', channel=4, note=57, velocity=0, time=479),
    Message('note_on', channel=4, note=57, velocity=64, time=1),
    Message('note_on', channel=4, note=57, velocity=0, time=719),
    Message('note_on', channel=4, note=57, velocity=64, time=1),
    Message('note_on', channel=4, note=57, velocity=0, time=239),
    Message('note_on', channel=4, note=57, velocity=64, time=1),
    Message('note_on', channel=4, note=57, velocity=0, time=479),
    Message('note_on', channel=4, note=57, velocity=64, time=1),
    Message('note_on', channel=4, note=57, velocity=0, time=239),
    Message('note_on', channel=4, note=57, velocity=64, time=1),
    Message('note_on', channel=4, note=57, velocity=0, time=239),
    Message('note_on', channel=4, note=55, velocity=64, time=1),
    Message('note_on', channel=4, note=55, velocity=0, time=239),
    Message('note_on', channel=4, note=55, velocity=64, time=1),
    Message('note_on', channel=4, note=55, velocity=0, time=239),
    Message('note_on', channel=4, note=57, velocity=64, time=1),
    Message('note_on', channel=4, note=57, velocity=0, time=719),
    Message('note_on', channel=4, note=57, velocity=64, time=1),
    Message('note_on', channel=4, note=57, velocity=0, time=239),
    Message('note_on', channel=4, note=57, velocity=64, time=1),
    Message('note_on', channel=4, note=57, velocity=0, time=479),
    Message('note_on', channel=4, note=57, velocity=64, time=1),
    Message('note_on', channel=4, note=57, velocity=0, time=719),
    Message('note_on', channel=4, note=57, velocity=64, time=1),
    Message('note_on', channel=4, note=57, velocity=0, time=239),
    Message('note_on', channel=4, note=57, velocity=64, time=1),
    Message('note_on', channel=4, note=57, velocity=0, time=479),
    Message('note_on', channel=4, note=57, velocity=64, time=1),
    Message('note_on', channel=4, note=57, velocity=0, time=239),
    Message('note_on', channel=4, note=57, velocity=64, time=1),
    Message('note_on', channel=4, note=57, velocity=0, time=239),
    Message('note_on', channel=4, note=55, velocity=64, time=1),
    Message('note_on', channel=4, note=55, velocity=0, time=239),
    Message('note_on', channel=4, note=55, velocity=64, time=1),
    Message('note_on', channel=4, note=55, velocity=0, time=239),
    Message('note_on', channel=4, note=57, velocity=64, time=1),
    Message('note_on', channel=4, note=57, velocity=0, time=719),
    Message('note_on', channel=4, note=57, velocity=64, time=1),
    Message('note_on', channel=4, note=57, velocity=0, time=239),
    Message('note_on', channel=4, note=57, velocity=64, time=1),
    Message('note_on', channel=4, note=57, velocity=0, time=479),
    Message('note_on', channel=4, note=57, velocity=64, time=1),
    Message('note_on', channel=4, note=57, velocity=0, time=719),
    Message('note_on', channel=4, note=57, velocity=64, time=1),
    Message('note_on', channel=4, note=57, velocity=0, time=239),
    Message('note_on', channel=4, note=57, velocity=64, time=1),
    Message('note_on', channel=4, note=57, velocity=0, time=479),
    Message('note_on', channel=4, note=57, velocity=96, time=1),
    Message('note_on', channel=4, note=57, velocity=0, time=239),
    Message('note_on', channel=4, note=57, velocity=96, time=1),
    Message('note_on', channel=4, note=57, velocity=0, time=239),
    Message('note_on', channel=4, note=55, velocity=96, time=1),
    Message('note_on', channel=4, note=55, velocity=0, time=239),
    Message('note_on', channel=4, note=55, velocity=96, time=1),
    Message('note_on', channel=4, note=55, velocity=0, time=239),
    Message('note_on', channel=4, note=57, velocity=96, time=1),
    Message('note_on', channel=4, note=57, velocity=0, time=719),
    Message('note_on', channel=4, note=57, velocity=96, time=1),
    Message('note_on', channel=4, note=57, velocity=0, time=239),
    Message('note_on', channel=4, note=57, velocity=96, time=1),
    Message('note_on', channel=4, note=57, velocity=0, time=479),
    Message('note_on', channel=4, note=57, velocity=96, time=1),
    Message('note_on', channel=4, note=57, velocity=0, time=719),
    Message('note_on', channel=4, note=57, velocity=96, time=1),
    Message('note_on', channel=4, note=57, velocity=0, time=239),
    Message('note_on', channel=4, note=57, velocity=96, time=1),
    Message('note_on', channel=4, note=57, velocity=0, time=479),
    Message('note_on', channel=4, note=57, velocity=96, time=1),
    Message('note_on', channel=4, note=57, velocity=0, time=239),
    Message('note_on', channel=4, note=57, velocity=96, time=1),
    Message('note_on', channel=4, note=57, velocity=0, time=239),
    Message('note_on', channel=4, note=55, velocity=96, time=1),
    Message('note_on', channel=4, note=55, velocity=0, time=239),
    Message('note_on', channel=4, note=55, velocity=96, time=1),
    Message('note_on', channel=4, note=55, velocity=0, time=239),
    Message('note_on', channel=4, note=57, velocity=96, time=1),
    Message('note_on', channel=4, note=57, velocity=0, time=719),
    Message('note_on', channel=4, note=57, velocity=96, time=1),
    Message('note_on', channel=4, note=57, velocity=0, time=239),
    Message('note_on', channel=4, note=57, velocity=96, time=1),
    Message('note_on', channel=4, note=57, velocity=0, time=479),
    Message('note_on', channel=4, note=57, velocity=96, time=1),
    Message('note_on', channel=4, note=57, velocity=0, time=959),
    Message('note_on', channel=4, note=60, velocity=96, time=2641),
    Message('note_on', channel=4, note=60, velocity=0, time=239),
    Message('note_on', channel=4, note=60, velocity=96, time=1),
    Message('note_on', channel=4, note=60, velocity=0, time=239),
    Message('note_on', channel=4, note=62, velocity=96, time=1),
    Message('note_on', channel=4, note=62, velocity=0, time=239),
    Message('note_on', channel=4, note=62, velocity=96, time=1),
    Message('note_on', channel=4, note=62, velocity=0, time=479),
    Message('note_on', channel=4, note=62, velocity=96, time=1),
    Message('note_on', channel=4, note=62, velocity=0, time=479),
    Message('note_on', channel=4, note=62, velocity=96, time=481),
    Message('note_on', channel=4, note=62, velocity=0, time=479),
    Message('note_on', channel=4, note=58, velocity=96, time=1),
    Message('note_on', channel=4, note=58, velocity=0, time=479),
    Message('note_on', channel=4, note=58, velocity=96, time=1),
    Message('note_on', channel=4, note=58, velocity=0, time=479),
    Message('note_on', channel=4, note=58, velocity=96, time=481),
    Message('note_on', channel=4, note=58, velocity=0, time=479),
    Message('note_on', channel=4, note=67, velocity=96, time=1),
    Message('note_on', channel=4, note=67, velocity=0, time=479),
    Message('note_on', channel=4, note=67, velocity=96, time=1),
    Message('note_on', channel=4, note=67, velocity=0, time=479),
    Message('note_on', channel=4, note=67, velocity=96, time=481),
    Message('note_on', channel=4, note=67, velocity=0, time=479),
    Message('note_on', channel=4, note=67, velocity=96, time=1),
    Message('note_on', channel=4, note=67, velocity=0, time=479),
    Message('note_on', channel=4, note=67, velocity=96, time=1),
    Message('note_on', channel=4, note=67, velocity=0, time=479),
    Message('note_on', channel=4, note=60, velocity=96, time=1),
    Message('note_on', channel=4, note=60, velocity=0, time=479),
    Message('note_on', channel=4, note=60, velocity=96, time=1),
    Message('note_on', channel=4, note=60, velocity=0, time=479),
    Message('note_on', channel=4, note=62, velocity=96, time=1),
    Message('note_on', channel=4, note=62, velocity=0, time=479),
    Message('note_on', channel=4, note=62, velocity=96, time=1),
    Message('note_on', channel=4, note=62, velocity=0, time=479),
    Message('note_on', channel=4, note=62, velocity=96, time=481),
    Message('note_on', channel=4, note=62, velocity=0, time=479),
    Message('note_on', channel=4, note=58, velocity=96, time=1),
    Message('note_on', channel=4, note=58, velocity=0, time=479),
    Message('note_on', channel=4, note=58, velocity=96, time=1),
    Message('note_on', channel=4, note=58, velocity=0, time=479),
    Message('note_on', channel=4, note=58, velocity=96, time=481),
    Message('note_on', channel=4, note=58, velocity=0, time=479),
    Message('note_on', channel=4, note=67, velocity=96, time=1),
    Message('note_on', channel=4, note=67, velocity=0, time=479),
    Message('note_on', channel=4, note=67, velocity=96, time=1),
    Message('note_on', channel=4, note=67, velocity=0, time=479),
    Message('note_on', channel=4, note=67, velocity=96, time=481),
    Message('note_on', channel=4, note=67, velocity=0, time=479),
    Message('note_on', channel=4, note=67, velocity=96, time=1),
    Message('note_on', channel=4, note=67, velocity=0, time=479),
    Message('note_on', channel=4, note=67, velocity=96, time=1),
    Message('note_on', channel=4, note=67, velocity=0, time=479),
    Message('note_on', channel=4, note=60, velocity=96, time=1),
    Message('note_on', channel=4, note=60, velocity=0, time=479),
    Message('note_on', channel=4, note=60, velocity=96, time=1),
    Message('note_on', channel=4, note=60, velocity=0, time=479),
    Message('note_on', channel=4, note=69, velocity=96, time=1),
    Message('note_on', channel=4, note=69, velocity=0, time=479),
    Message('note_on', channel=4, note=69, velocity=96, time=1),
    Message('note_on', channel=4, note=69, velocity=0, time=479),
    Message('note_on', channel=4, note=62, velocity=96, time=1),
    Message('note_on', channel=4, note=62, velocity=0, time=479),
    Message('note_on', channel=4, note=62, velocity=96, time=1),
    Message('note_on', channel=4, note=62, velocity=0, time=479),
    Message('note_on', channel=4, note=65, velocity=96, time=1),
    Message('note_on', channel=4, note=65, velocity=0, time=479),
    Message('note_on', channel=4, note=65, velocity=96, time=1),
    Message('note_on', channel=4, note=65, velocity=0, time=479),
    Message('note_on', channel=4, note=58, velocity=96, time=1),
    Message('note_on', channel=4, note=58, velocity=0, time=479),
    Message('note_on', channel=4, note=58, velocity=96, time=1),
    Message('note_on', channel=4, note=58, velocity=0, time=479),
    Message('note_on', channel=4, note=60, velocity=96, time=1),
    Message('note_on', channel=4, note=60, velocity=0, time=479),
    Message('note_on', channel=4, note=60, velocity=96, time=1),
    Message('note_on', channel=4, note=60, velocity=0, time=479),
    Message('note_on', channel=4, note=65, velocity=96, time=1),
    Message('note_on', channel=4, note=65, velocity=0, time=479),
    Message('note_on', channel=4, note=65, velocity=96, time=1),
    Message('note_on', channel=4, note=65, velocity=0, time=479),
    Message('note_on', channel=4, note=65, velocity=96, time=1),
    Message('note_on', channel=4, note=65, velocity=0, time=479),
    Message('note_on', channel=4, note=65, velocity=96, time=1),
    Message('note_on', channel=4, note=65, velocity=0, time=479),
    Message('note_on', channel=4, note=55, velocity=96, time=1),
    Message('note_on', channel=4, note=55, velocity=0, time=479),
    Message('note_on', channel=4, note=55, velocity=96, time=1),
    Message('note_on', channel=4, note=55, velocity=0, time=479),
    Message('note_on', channel=4, note=57, velocity=96, time=1),
    Message('note_on', channel=4, note=57, velocity=0, time=479),
    Message('note_on', channel=4, note=57, velocity=96, time=1),
    Message('note_on', channel=4, note=57, velocity=0, time=479),
    Message('note_on', channel=4, note=62, velocity=96, time=1),
    Message('note_on', channel=4, note=62, velocity=0, time=479),
    Message('note_on', channel=4, note=62, velocity=96, time=1),
    Message('note_on', channel=4, note=62, velocity=0, time=479),
    Message('note_on', channel=4, note=53, velocity=96, time=1),
    Message('note_on', channel=4, note=53, velocity=0, time=479),
    Message('note_on', channel=4, note=53, velocity=96, time=1),
    Message('note_on', channel=4, note=53, velocity=0, time=479),
    Message('note_on', channel=4, note=58, velocity=96, time=1),
    Message('note_on', channel=4, note=58, velocity=0, time=479),
    Message('note_on', channel=4, note=58, velocity=96, time=1),
    Message('note_on', channel=4, note=58, velocity=0, time=479),
    Message('note_on', channel=4, note=60, velocity=96, time=1),
    Message('note_on', channel=4, note=60, velocity=0, time=479),
    Message('note_on', channel=4, note=60, velocity=96, time=1),
    Message('note_on', channel=4, note=60, velocity=0, time=479),
    Message('note_on', channel=4, note=65, velocity=96, time=1),
    Message('note_on', channel=4, note=65, velocity=0, time=479),
    Message('note_on', channel=4, note=65, velocity=96, time=1),
    Message('note_on', channel=4, note=65, velocity=0, time=479),
    Message('note_on', channel=4, note=65, velocity=96, time=1),
    Message('note_on', channel=4, note=65, velocity=0, time=479),
    Message('note_on', channel=4, note=69, velocity=96, time=1),
    Message('note_on', channel=4, note=69, velocity=0, time=239),
    Message('note_on', channel=4, note=69, velocity=96, time=1),
    Message('note_on', channel=4, note=69, velocity=0, time=239),
    Message('note_on', channel=4, note=69, velocity=96, time=1),
    Message('note_on', channel=4, note=69, velocity=0, time=479),
    Message('note_on', channel=4, note=69, velocity=96, time=1),
    Message('note_on', channel=4, note=69, velocity=0, time=479),
    MetaMessage('end_of_track', time=1)]),
  MidiTrack([
    MetaMessage('key_signature', key='G', time=0),
    Message('program_change', channel=6, program=66, time=0),
    Message('note_on', channel=6, note=57, velocity=80, time=0),
    Message('control_change', channel=6, control=7, value=100, time=2),
    Message('control_change', channel=6, control=10, value=64, time=2),
    Message('control_change', channel=6, control=91, value=30, time=2),
    Message('control_change', channel=6, control=93, value=30, time=2),
    Message('note_on', channel=6, note=57, velocity=0, time=711),
    Message('note_on', channel=6, note=57, velocity=80, time=1),
    Message('note_on', channel=6, note=57, velocity=0, time=239),
    Message('note_on', channel=6, note=57, velocity=80, time=1),
    Message('note_on', channel=6, note=57, velocity=0, time=479),
    Message('note_on', channel=6, note=57, velocity=80, time=1),
    Message('note_on', channel=6, note=57, velocity=0, time=719),
    Message('note_on', channel=6, note=57, velocity=80, time=1),
    Message('note_on', channel=6, note=57, velocity=0, time=239),
    Message('note_on', channel=6, note=57, velocity=80, time=1),
    Message('note_on', channel=6, note=57, velocity=0, time=479),
    Message('note_on', channel=6, note=57, velocity=80, time=1),
    Message('note_on', channel=6, note=57, velocity=0, time=239),
    Message('note_on', channel=6, note=57, velocity=80, time=1),
    Message('note_on', channel=6, note=57, velocity=0, time=239),
    Message('note_on', channel=6, note=55, velocity=80, time=1),
    Message('note_on', channel=6, note=55, velocity=0, time=239),
    Message('note_on', channel=6, note=55, velocity=80, time=1),
    Message('note_on', channel=6, note=55, velocity=0, time=239),
    Message('note_on', channel=6, note=57, velocity=80, time=1),
    Message('note_on', channel=6, note=57, velocity=0, time=719),
    Message('note_on', channel=6, note=57, velocity=80, time=1),
    Message('note_on', channel=6, note=57, velocity=0, time=239),
    Message('note_on', channel=6, note=57, velocity=80, time=1),
    Message('note_on', channel=6, note=57, velocity=0, time=479),
    Message('note_on', channel=6, note=57, velocity=80, time=1),
    Message('note_on', channel=6, note=57, velocity=0, time=719),
    Message('note_on', channel=6, note=57, velocity=80, time=1),
    Message('note_on', channel=6, note=57, velocity=0, time=239),
    Message('note_on', channel=6, note=57, velocity=80, time=1),
    Message('note_on', channel=6, note=57, velocity=0, time=479),
    Message('note_on', channel=6, note=57, velocity=80, time=1),
    Message('note_on', channel=6, note=57, velocity=0, time=239),
    Message('note_on', channel=6, note=57, velocity=80, time=1),
    Message('note_on', channel=6, note=57, velocity=0, time=239),
    Message('note_on', channel=6, note=55, velocity=80, time=1),
    Message('note_on', channel=6, note=55, velocity=0, time=239),
    Message('note_on', channel=6, note=55, velocity=80, time=1),
    Message('note_on', channel=6, note=55, velocity=0, time=239),
    Message('note_on', channel=6, note=57, velocity=96, time=1),
    Message('note_on', channel=6, note=57, velocity=0, time=719),
    Message('note_on', channel=6, note=57, velocity=96, time=1),
    Message('note_on', channel=6, note=57, velocity=0, time=239),
    Message('note_on', channel=6, note=57, velocity=96, time=1),
    Message('note_on', channel=6, note=57, velocity=0, time=479),
    Message('note_on', channel=6, note=57, velocity=96, time=1),
    Message('note_on', channel=6, note=57, velocity=0, time=719),
    Message('note_on', channel=6, note=57, velocity=96, time=1),
    Message('note_on', channel=6, note=57, velocity=0, time=239),
    Message('note_on', channel=6, note=57, velocity=96, time=1),
    Message('note_on', channel=6, note=57, velocity=0, time=479),
    Message('note_on', channel=6, note=57, velocity=96, time=1),
    Message('note_on', channel=6, note=57, velocity=0, time=239),
    Message('note_on', channel=6, note=57, velocity=96, time=1),
    Message('note_on', channel=6, note=57, velocity=0, time=239),
    Message('note_on', channel=6, note=55, velocity=96, time=1),
    Message('note_on', channel=6, note=55, velocity=0, time=239),
    Message('note_on', channel=6, note=55, velocity=96, time=1),
    Message('note_on', channel=6, note=55, velocity=0, time=239),
    Message('note_on', channel=6, note=57, velocity=96, time=1),
    Message('note_on', channel=6, note=57, velocity=0, time=719),
    Message('note_on', channel=6, note=57, velocity=96, time=1),
    Message('note_on', channel=6, note=57, velocity=0, time=239),
    Message('note_on', channel=6, note=57, velocity=96, time=1),
    Message('note_on', channel=6, note=57, velocity=0, time=479),
    Message('note_on', channel=6, note=57, velocity=96, time=1),
    Message('note_on', channel=6, note=57, velocity=0, time=719),
    Message('note_on', channel=6, note=57, velocity=96, time=1),
    Message('note_on', channel=6, note=57, velocity=0, time=239),
    Message('note_on', channel=6, note=57, velocity=96, time=1),
    Message('note_on', channel=6, note=57, velocity=0, time=479),
    Message('note_on', channel=6, note=57, velocity=96, time=1),
    Message('note_on', channel=6, note=57, velocity=0, time=239),
    Message('note_on', channel=6, note=57, velocity=96, time=1),
    Message('note_on', channel=6, note=57, velocity=0, time=239),
    Message('note_on', channel=6, note=55, velocity=96, time=1),
    Message('note_on', channel=6, note=55, velocity=0, time=239),
    Message('note_on', channel=6, note=55, velocity=96, time=1),
    Message('note_on', channel=6, note=55, velocity=0, time=239),
    Message('note_on', channel=6, note=57, velocity=96, time=1),
    Message('note_on', channel=6, note=57, velocity=0, time=719),
    Message('note_on', channel=6, note=57, velocity=96, time=1),
    Message('note_on', channel=6, note=57, velocity=0, time=239),
    Message('note_on', channel=6, note=57, velocity=96, time=1),
    Message('note_on', channel=6, note=57, velocity=0, time=479),
    Message('note_on', channel=6, note=57, velocity=96, time=1),
    Message('note_on', channel=6, note=57, velocity=0, time=719),
    Message('note_on', channel=6, note=57, velocity=96, time=1),
    Message('note_on', channel=6, note=57, velocity=0, time=239),
    Message('note_on', channel=6, note=57, velocity=96, time=1),
    Message('note_on', channel=6, note=57, velocity=0, time=479),
    Message('note_on', channel=6, note=57, velocity=96, time=1),
    Message('note_on', channel=6, note=57, velocity=0, time=239),
    Message('note_on', channel=6, note=57, velocity=96, time=1),
    Message('note_on', channel=6, note=57, velocity=0, time=239),
    Message('note_on', channel=6, note=55, velocity=96, time=1),
    Message('note_on', channel=6, note=55, velocity=0, time=239),
    Message('note_on', channel=6, note=55, velocity=96, time=1),
    Message('note_on', channel=6, note=55, velocity=0, time=239),
    Message('note_on', channel=6, note=57, velocity=96, time=1),
    Message('note_on', channel=6, note=57, velocity=0, time=719),
    Message('note_on', channel=6, note=57, velocity=96, time=1),
    Message('note_on', channel=6, note=57, velocity=0, time=239),
    Message('note_on', channel=6, note=57, velocity=96, time=1),
    Message('note_on', channel=6, note=57, velocity=0, time=479),
    Message('note_on', channel=6, note=57, velocity=96, time=1),
    Message('note_on', channel=6, note=57, velocity=0, time=719),
    Message('note_on', channel=6, note=57, velocity=96, time=1),
    Message('note_on', channel=6, note=57, velocity=0, time=239),
    Message('note_on', channel=6, note=57, velocity=96, time=1),
    Message('note_on', channel=6, note=57, velocity=0, time=479),
    Message('note_on', channel=6, note=57, velocity=96, time=1),
    Message('note_on', channel=6, note=57, velocity=0, time=239),
    Message('note_on', channel=6, note=57, velocity=96, time=1),
    Message('note_on', channel=6, note=57, velocity=0, time=239),
    Message('note_on', channel=6, note=55, velocity=96, time=1),
    Message('note_on', channel=6, note=55, velocity=0, time=239),
    Message('note_on', channel=6, note=55, velocity=96, time=1),
    Message('note_on', channel=6, note=55, velocity=0, time=239),
    Message('note_on', channel=6, note=53, velocity=96, time=1),
    Message('note_on', channel=6, note=53, velocity=0, time=239),
    Message('note_on', channel=6, note=53, velocity=96, time=1),
    Message('note_on', channel=6, note=53, velocity=0, time=239),
    Message('note_on', channel=6, note=53, velocity=96, time=1),
    Message('note_on', channel=6, note=53, velocity=0, time=239),
    Message('note_on', channel=6, note=53, velocity=96, time=1),
    Message('note_on', channel=6, note=53, velocity=0, time=239),
    Message('note_on', channel=6, note=53, velocity=96, time=1),
    Message('note_on', channel=6, note=53, velocity=0, time=239),
    Message('note_on', channel=6, note=53, velocity=96, time=1),
    Message('note_on', channel=6, note=53, velocity=0, time=239),
    Message('note_on', channel=6, note=52, velocity=96, time=1),
    Message('note_on', channel=6, note=52, velocity=0, time=239),
    Message('note_on', channel=6, note=50, velocity=96, time=1),
    Message('note_on', channel=6, note=50, velocity=0, time=239),
    Message('note_on', channel=6, note=50, velocity=96, time=961),
    Message('note_on', channel=6, note=50, velocity=0, time=479),
    Message('note_on', channel=6, note=50, velocity=96, time=1),
    Message('note_on', channel=6, note=50, velocity=0, time=239),
    Message('note_on', channel=6, note=52, velocity=96, time=1),
    Message('note_on', channel=6, note=52, velocity=0, time=239),
    Message('note_on', channel=6, note=53, velocity=96, time=1),
    Message('note_on', channel=6, note=53, velocity=0, time=239),
    Message('note_on', channel=6, note=52, velocity=96, time=1),
    Message('note_on', channel=6, note=52, velocity=0, time=239),
    Message('note_on', channel=6, note=50, velocity=96, time=1),
    Message('note_on', channel=6, note=50, velocity=0, time=239),
    Message('note_on', channel=6, note=52, velocity=96, time=1),
    Message('note_on', channel=6, note=52, velocity=0, time=239),
    Message('note_on', channel=6, note=53, velocity=96, time=1),
    Message('note_on', channel=6, note=53, velocity=0, time=239),
    Message('note_on', channel=6, note=52, velocity=96, time=1),
    Message('note_on', channel=6, note=52, velocity=0, time=239),
    Message('note_on', channel=6, note=50, velocity=96, time=1),
    Message('note_on', channel=6, note=50, velocity=0, time=479),
    Message('note_on', channel=6, note=50, velocity=96, time=961),
    Message('note_on', channel=6, note=50, velocity=0, time=479),
    Message('note_on', channel=6, note=50, velocity=96, time=1),
    Message('note_on', channel=6, note=50, velocity=0, time=239),
    Message('note_on', channel=6, note=52, velocity=96, time=1),
    Message('note_on', channel=6, note=52, velocity=0, time=239),
    Message('note_on', channel=6, note=53, velocity=96, time=1),
    Message('note_on', channel=6, note=53, velocity=0, time=239),
    Message('note_on', channel=6, note=52, velocity=96, time=1),
    Message('note_on', channel=6, note=52, velocity=0, time=239),
    Message('note_on', channel=6, note=50, velocity=96, time=1),
    Message('note_on', channel=6, note=50, velocity=0, time=239),
    Message('note_on', channel=6, note=52, velocity=96, time=1),
    Message('note_on', channel=6, note=52, velocity=0, time=239),
    Message('note_on', channel=6, note=53, velocity=96, time=1),
    Message('note_on', channel=6, note=53, velocity=0, time=479),
    Message('note_on', channel=6, note=50, velocity=96, time=1),
    Message('note_on', channel=6, note=50, velocity=0, time=239),
    Message('note_on', channel=6, note=52, velocity=96, time=1),
    Message('note_on', channel=6, note=52, velocity=0, time=239),
    Message('note_on', channel=6, note=53, velocity=96, time=1),
    Message('note_on', channel=6, note=53, velocity=0, time=719),
    Message('note_on', channel=6, note=52, velocity=96, time=1),
    Message('note_on', channel=6, note=52, velocity=0, time=719),
    Message('note_on', channel=6, note=50, velocity=96, time=1),
    Message('note_on', channel=6, note=50, velocity=0, time=239),
    Message('note_on', channel=6, note=52, velocity=96, time=1),
    Message('note_on', channel=6, note=52, velocity=0, time=239),
    Message('note_on', channel=6, note=53, velocity=96, time=1),
    Message('note_on', channel=6, note=53, velocity=0, time=479),
    Message('note_on', channel=6, note=50, velocity=96, time=1),
    Message('note_on', channel=6, note=50, velocity=0, time=239),
    Message('note_on', channel=6, note=52, velocity=96, time=1),
    Message('note_on', channel=6, note=52, velocity=0, time=239),
    Message('note_on', channel=6, note=53, velocity=96, time=1),
    Message('note_on', channel=6, note=53, velocity=0, time=239),
    Message('note_on', channel=6, note=52, velocity=96, time=1),
    Message('note_on', channel=6, note=52, velocity=0, time=239),
    Message('note_on', channel=6, note=50, velocity=96, time=1),
    Message('note_on', channel=6, note=50, velocity=0, time=239),
    Message('note_on', channel=6, note=48, velocity=96, time=1),
    Message('note_on', channel=6, note=48, velocity=0, time=239),
    Message('note_on', channel=6, note=50, velocity=96, time=1),
    Message('note_on', channel=6, note=50, velocity=0, time=1919),
    Message('note_on', channel=6, note=57, velocity=96, time=1),
    Message('note_on', channel=6, note=57, velocity=0, time=239),
    Message('note_on', channel=6, note=57, velocity=96, time=241),
    Message('note_on', channel=6, note=57, velocity=0, time=479),
    Message('note_on', channel=6, note=57, velocity=96, time=1),
    Message('note_on', channel=6, note=57, velocity=0, time=239),
    Message('note_on', channel=6, note=57, velocity=96, time=1),
    Message('note_on', channel=6, note=57, velocity=0, time=239),
    Message('note_on', channel=6, note=58, velocity=96, time=1),
    Message('note_on', channel=6, note=58, velocity=0, time=239),
    Message('note_on', channel=6, note=57, velocity=96, time=1),
    Message('note_on', channel=6, note=57, velocity=0, time=239),
    Message('note_on', channel=6, note=50, velocity=96, time=961),
    Message('note_on', channel=6, note=50, velocity=0, time=479),
    Message('note_on', channel=6, note=50, velocity=96, time=1),
    Message('note_on', channel=6, note=50, velocity=0, time=239),
    Message('note_on', channel=6, note=52, velocity=96, time=1),
    Message('note_on', channel=6, note=52, velocity=0, time=239),
    Message('note_on', channel=6, note=57, velocity=96, time=1),
    Message('note_on', channel=6, note=57, velocity=0, time=239),
    Message('note_on', channel=6, note=57, velocity=96, time=721),
    Message('note_on', channel=6, note=57, velocity=0, time=239),
    Message('note_on', channel=6, note=52, velocity=96, time=1),
    Message('note_on', channel=6, note=52, velocity=0, time=239),
    Message('note_on', channel=6, note=50, velocity=96, time=1),
    Message('note_on', channel=6, note=50, velocity=0, time=239),
    Message('note_on', channel=6, note=52, velocity=96, time=1),
    Message('note_on', channel=6, note=52, velocity=0, time=239),
    Message('note_on', channel=6, note=50, velocity=96, time=961),
    Message('note_on', channel=6, note=50, velocity=0, time=479),
    Message('note_on', channel=6, note=50, velocity=96, time=1),
    Message('note_on', channel=6, note=50, velocity=0, time=239),
    Message('note_on', channel=6, note=52, velocity=96, time=1),
    Message('note_on', channel=6, note=52, velocity=0, time=239),
    Message('note_on', channel=6, note=53, velocity=96, time=1),
    Message('note_on', channel=6, note=53, velocity=0, time=239),
    Message('note_on', channel=6, note=52, velocity=96, time=1),
    Message('note_on', channel=6, note=52, velocity=0, time=239),
    Message('note_on', channel=6, note=50, velocity=96, time=1),
    Message('note_on', channel=6, note=50, velocity=0, time=239),
    Message('note_on', channel=6, note=52, velocity=96, time=1),
    Message('note_on', channel=6, note=52, velocity=0, time=239),
    Message('note_on', channel=6, note=53, velocity=96, time=1),
    Message('note_on', channel=6, note=53, velocity=0, time=239),
    Message('note_on', channel=6, note=52, velocity=96, time=1),
    Message('note_on', channel=6, note=52, velocity=0, time=239),
    Message('note_on', channel=6, note=50, velocity=96, time=1),
    Message('note_on', channel=6, note=50, velocity=0, time=479),
    Message('note_on', channel=6, note=50, velocity=96, time=1),
    Message('note_on', channel=6, note=50, velocity=0, time=239),
    Message('note_on', channel=6, note=52, velocity=96, time=1),
    Message('note_on', channel=6, note=52, velocity=0, time=239),
    Message('note_on', channel=6, note=50, velocity=96, time=1),
    Message('note_on', channel=6, note=50, velocity=0, time=479),
    Message('note_on', channel=6, note=50, velocity=96, time=1),
    Message('note_on', channel=6, note=50, velocity=0, time=239),
    Message('note_on', channel=6, note=52, velocity=96, time=1),
    Message('note_on', channel=6, note=52, velocity=0, time=239),
    Message('note_on', channel=6, note=50, velocity=96, time=1),
    Message('note_on', channel=6, note=50, velocity=0, time=479),
    Message('note_on', channel=6, note=50, velocity=96, time=1),
    Message('note_on', channel=6, note=50, velocity=0, time=239),
    Message('note_on', channel=6, note=52, velocity=96, time=1),
    Message('note_on', channel=6, note=52, velocity=0, time=239),
    Message('note_on', channel=6, note=50, velocity=96, time=1),
    Message('note_on', channel=6, note=50, velocity=0, time=239),
    Message('note_on', channel=6, note=52, velocity=96, time=1),
    Message('note_on', channel=6, note=52, velocity=0, time=239),
    Message('note_on', channel=6, note=53, velocity=96, time=1),
    Message('note_on', channel=6, note=53, velocity=0, time=239),
    Message('note_on', channel=6, note=52, velocity=96, time=1),
    Message('note_on', channel=6, note=52, velocity=0, time=239),
    Message('note_on', channel=6, note=50, velocity=96, time=1),
    Message('note_on', channel=6, note=50, velocity=0, time=239),
    Message('note_on', channel=6, note=48, velocity=96, time=1),
    Message('note_on', channel=6, note=48, velocity=0, time=239),
    Message('note_on', channel=6, note=50, velocity=96, time=1),
    Message('note_on', channel=6, note=50, velocity=0, time=959),
    Message('note_on', channel=6, note=50, velocity=112, time=1),
    Message('note_on', channel=6, note=50, velocity=0, time=479),
    Message('note_on', channel=6, note=52, velocity=112, time=1),
    Message('note_on', channel=6, note=52, velocity=0, time=479),
    Message('note_on', channel=6, note=53, velocity=112, time=1),
    Message('note_on', channel=6, note=53, velocity=0, time=479),
    Message('note_on', channel=6, note=52, velocity=112, time=1),
    Message('note_on', channel=6, note=52, velocity=0, time=479),
    Message('note_on', channel=6, note=50, velocity=112, time=1),
    Message('note_on', channel=6, note=50, velocity=0, time=479),
    Message('note_on', channel=6, note=53, velocity=112, time=1),
    Message('note_on', channel=6, note=53, velocity=0, time=479),
    Message('note_on', channel=6, note=55, velocity=112, time=1),
    Message('note_on', channel=6, note=55, velocity=0, time=479),
    Message('note_on', channel=6, note=53, velocity=112, time=1),
    Message('note_on', channel=6, note=53, velocity=0, time=479),
    Message('note_on', channel=6, note=52, velocity=112, time=1),
    Message('note_on', channel=6, note=52, velocity=0, time=479),
    Message('note_on', channel=6, note=57, velocity=112, time=1),
    Message('note_on', channel=6, note=57, velocity=0, time=959),
    Message('note_on', channel=6, note=58, velocity=112, time=1),
    Message('note_on', channel=6, note=58, velocity=0, time=239),
    Message('note_on', channel=6, note=57, velocity=112, time=1),
    Message('note_on', channel=6, note=57, velocity=0, time=719),
    Message('note_on', channel=6, note=58, velocity=112, time=1),
    Message('note_on', channel=6, note=58, velocity=0, time=239),
    Message('note_on', channel=6, note=57, velocity=112, time=1),
    Message('note_on', channel=6, note=57, velocity=0, time=719),
    Message('note_on', channel=6, note=60, velocity=126, time=4561),
    Message('note_on', channel=6, note=60, velocity=0, time=239),
    Message('note_on', channel=6, note=60, velocity=126, time=1),
    Message('note_on', channel=6, note=60, velocity=0, time=239),
    Message('note_on', channel=6, note=62, velocity=126, time=1),
    Message('note_on', channel=6, note=62, velocity=0, time=239),
    Message('note_on', channel=6, note=62, velocity=96, time=1),
    Message('note_on', channel=6, note=62, velocity=0, time=479),
    Message('note_on', channel=6, note=62, velocity=96, time=1),
    Message('note_on', channel=6, note=62, velocity=0, time=479),
    Message('note_on', channel=6, note=62, velocity=96, time=1),
    Message('note_on', channel=6, note=62, velocity=0, time=239),
    Message('note_on', channel=6, note=53, velocity=96, time=1),
    Message('note_on', channel=6, note=53, velocity=0, time=239),
    Message('note_on', channel=6, note=60, velocity=96, time=1),
    Message('note_on', channel=6, note=60, velocity=0, time=239),
    Message('note_on', channel=6, note=62, velocity=96, time=1),
    Message('note_on', channel=6, note=62, velocity=0, time=239),
    Message('note_on', channel=6, note=62, velocity=96, time=1),
    Message('note_on', channel=6, note=62, velocity=0, time=479),
    Message('note_on', channel=6, note=62, velocity=96, time=1),
    Message('note_on', channel=6, note=62, velocity=0, time=479),
    Message('note_on', channel=6, note=62, velocity=96, time=1),
    Message('note_on', channel=6, note=62, velocity=0, time=239),
    Message('note_on', channel=6, note=53, velocity=96, time=1),
    Message('note_on', channel=6, note=53, velocity=0, time=239),
    Message('note_on', channel=6, note=60, velocity=96, time=1),
    Message('note_on', channel=6, note=60, velocity=0, time=239),
    Message('note_on', channel=6, note=62, velocity=96, time=1),
    Message('note_on', channel=6, note=62, velocity=0, time=239),
    Message('note_on', channel=6, note=62, velocity=96, time=1),
    Message('note_on', channel=6, note=62, velocity=0, time=479),
    Message('note_on', channel=6, note=62, velocity=96, time=1),
    Message('note_on', channel=6, note=62, velocity=0, time=479),
    Message('note_on', channel=6, note=62, velocity=96, time=1),
    Message('note_on', channel=6, note=62, velocity=0, time=239),
    Message('note_on', channel=6, note=57, velocity=96, time=1921),
    Message('note_on', channel=6, note=57, velocity=0, time=239),
    Message('note_on', channel=6, note=60, velocity=96, time=1),
    Message('note_on', channel=6, note=60, velocity=0, time=239),
    Message('note_on', channel=6, note=62, velocity=96, time=1),
    Message('note_on', channel=6, note=62, velocity=0, time=239),
    Message('note_on', channel=6, note=62, velocity=96, time=1),
    Message('note_on', channel=6, note=62, velocity=0, time=479),
    Message('note_on', channel=6, note=62, velocity=96, time=1),
    Message('note_on', channel=6, note=62, velocity=0, time=479),
    Message('note_on', channel=6, note=62, velocity=96, time=1),
    Message('note_on', channel=6, note=62, velocity=0, time=239),
    Message('note_on', channel=6, note=53, velocity=96, time=1),
    Message('note_on', channel=6, note=53, velocity=0, time=239),
    Message('note_on', channel=6, note=60, velocity=96, time=1),
    Message('note_on', channel=6, note=60, velocity=0, time=239),
    Message('note_on', channel=6, note=62, velocity=96, time=1),
    Message('note_on', channel=6, note=62, velocity=0, time=239),
    Message('note_on', channel=6, note=62, velocity=96, time=1),
    Message('note_on', channel=6, note=62, velocity=0, time=479),
    Message('note_on', channel=6, note=62, velocity=96, time=1),
    Message('note_on', channel=6, note=62, velocity=0, time=479),
    Message('note_on', channel=6, note=62, velocity=96, time=1),
    Message('note_on', channel=6, note=62, velocity=0, time=239),
    Message('note_on', channel=6, note=53, velocity=96, time=1),
    Message('note_on', channel=6, note=53, velocity=0, time=239),
    Message('note_on', channel=6, note=60, velocity=96, time=1),
    Message('note_on', channel=6, note=60, velocity=0, time=239),
    Message('note_on', channel=6, note=62, velocity=96, time=1),
    Message('note_on', channel=6, note=62, velocity=0, time=239),
    Message('note_on', channel=6, note=62, velocity=96, time=1),
    Message('note_on', channel=6, note=62, velocity=0, time=479),
    Message('note_on', channel=6, note=62, velocity=96, time=1),
    Message('note_on', channel=6, note=62, velocity=0, time=479),
    Message('note_on', channel=6, note=62, velocity=96, time=1),
    Message('note_on', channel=6, note=62, velocity=0, time=239),
    Message('note_on', channel=6, note=57, velocity=126, time=2641),
    Message('note_on', channel=6, note=57, velocity=0, time=719),
    Message('note_on', channel=6, note=62, velocity=126, time=1),
    Message('note_on', channel=6, note=62, velocity=0, time=719),
    Message('note_on', channel=6, note=67, velocity=126, time=1),
    Message('note_on', channel=6, note=67, velocity=0, time=239),
    Message('note_on', channel=6, note=65, velocity=126, time=1),
    Message('note_on', channel=6, note=65, velocity=0, time=239),
    Message('note_on', channel=6, note=62, velocity=126, time=1),
    Message('note_on', channel=6, note=62, velocity=0, time=719),
    Message('note_on', channel=6, note=62, velocity=126, time=1),
    Message('note_on', channel=6, note=62, velocity=0, time=719),
    Message('note_on', channel=6, note=62, velocity=126, time=1),
    Message('note_on', channel=6, note=62, velocity=0, time=239),
    Message('note_on', channel=6, note=65, velocity=126, time=1),
    Message('note_on', channel=6, note=65, velocity=0, time=239),
    Message('note_on', channel=6, note=60, velocity=126, time=1),
    Message('note_on', channel=6, note=60, velocity=0, time=719),
    Message('note_on', channel=6, note=60, velocity=126, time=1),
    Message('note_on', channel=6, note=60, velocity=0, time=479),
    Message('note_on', channel=6, note=65, velocity=126, time=1),
    Message('note_on', channel=6, note=65, velocity=0, time=239),
    Message('note_on', channel=6, note=62, velocity=126, time=1),
    Message('note_on', channel=6, note=62, velocity=0, time=239),
    Message('note_on', channel=6, note=57, velocity=126, time=1),
    Message('note_on', channel=6, note=57, velocity=0, time=2159),
    Message('note_on', channel=6, note=57, velocity=126, time=1),
    Message('note_on', channel=6, note=57, velocity=0, time=719),
    Message('note_on', channel=6, note=62, velocity=126, time=1),
    Message('note_on', channel=6, note=62, velocity=0, time=719),
    Message('note_on', channel=6, note=67, velocity=126, time=1),
    Message('note_on', channel=6, note=67, velocity=0, time=239),
    Message('note_on', channel=6, note=65, velocity=126, time=1),
    Message('note_on', channel=6, note=65, velocity=0, time=239),
    Message('note_on', channel=6, note=62, velocity=126, time=1),
    Message('note_on', channel=6, note=62, velocity=0, time=719),
    Message('note_on', channel=6, note=62, velocity=126, time=1),
    Message('note_on', channel=6, note=62, velocity=0, time=719),
    Message('note_on', channel=6, note=62, velocity=126, time=1),
    Message('note_on', channel=6, note=62, velocity=0, time=239),
    Message('note_on', channel=6, note=65, velocity=126, time=1),
    Message('note_on', channel=6, note=65, velocity=0, time=239),
    Message('note_on', channel=6, note=60, velocity=126, time=1),
    Message('note_on', channel=6, note=60, velocity=0, time=719),
    Message('note_on', channel=6, note=60, velocity=126, time=1),
    Message('note_on', channel=6, note=60, velocity=0, time=479),
    Message('note_on', channel=6, note=65, velocity=126, time=1),
    Message('note_on', channel=6, note=65, velocity=0, time=239),
    Message('note_on', channel=6, note=62, velocity=126, time=1),
    Message('note_on', channel=6, note=62, velocity=0, time=239),
    Message('note_on', channel=6, note=57, velocity=126, time=1),
    Message('note_on', channel=6, note=57, velocity=0, time=2159),
    Message('note_on', channel=6, note=57, velocity=126, time=1),
    Message('note_on', channel=6, note=57, velocity=0, time=719),
    Message('note_on', channel=6, note=57, velocity=126, time=1),
    Message('note_on', channel=6, note=57, velocity=0, time=239),
    Message('note_on', channel=6, note=57, velocity=126, time=1),
    Message('note_on', channel=6, note=57, velocity=0, time=479),
    Message('note_on', channel=6, note=57, velocity=126, time=1),
    Message('note_on', channel=6, note=57, velocity=0, time=719),
    Message('note_on', channel=6, note=57, velocity=126, time=1),
    Message('note_on', channel=6, note=57, velocity=0, time=239),
    Message('note_on', channel=6, note=57, velocity=126, time=1),
    Message('note_on', channel=6, note=57, velocity=0, time=479),
    Message('note_on', channel=6, note=57, velocity=126, time=1),
    Message('note_on', channel=6, note=57, velocity=0, time=239),
    Message('note_on', channel=6, note=57, velocity=126, time=1),
    Message('note_on', channel=6, note=57, velocity=0, time=239),
    Message('note_on', channel=6, note=55, velocity=126, time=1),
    Message('note_on', channel=6, note=55, velocity=0, time=239),
    Message('note_on', channel=6, note=55, velocity=126, time=1),
    Message('note_on', channel=6, note=55, velocity=0, time=239),
    Message('note_on', channel=6, note=57, velocity=126, time=1),
    Message('note_on', channel=6, note=57, velocity=0, time=719),
    Message('note_on', channel=6, note=57, velocity=126, time=1),
    Message('note_on', channel=6, note=57, velocity=0, time=239),
    Message('note_on', channel=6, note=57, velocity=126, time=1),
    Message('note_on', channel=6, note=57, velocity=0, time=479),
    Message('note_on', channel=6, note=57, velocity=126, time=1),
    Message('note_on', channel=6, note=57, velocity=0, time=719),
    Message('note_on', channel=6, note=57, velocity=126, time=1),
    Message('note_on', channel=6, note=57, velocity=0, time=239),
    Message('note_on', channel=6, note=57, velocity=126, time=1),
    Message('note_on', channel=6, note=57, velocity=0, time=479),
    Message('note_on', channel=6, note=57, velocity=126, time=1),
    Message('note_on', channel=6, note=57, velocity=0, time=239),
    Message('note_on', channel=6, note=57, velocity=126, time=1),
    Message('note_on', channel=6, note=57, velocity=0, time=239),
    Message('note_on', channel=6, note=55, velocity=126, time=1),
    Message('note_on', channel=6, note=55, velocity=0, time=239),
    Message('note_on', channel=6, note=55, velocity=126, time=1),
    Message('note_on', channel=6, note=55, velocity=0, time=239),
    Message('note_on', channel=6, note=57, velocity=126, time=1),
    Message('note_on', channel=6, note=57, velocity=0, time=719),
    Message('note_on', channel=6, note=57, velocity=126, time=1),
    Message('note_on', channel=6, note=57, velocity=0, time=239),
    Message('note_on', channel=6, note=57, velocity=126, time=1),
    Message('note_on', channel=6, note=57, velocity=0, time=479),
    Message('note_on', channel=6, note=57, velocity=126, time=1),
    Message('note_on', channel=6, note=57, velocity=0, time=719),
    Message('note_on', channel=6, note=57, velocity=126, time=1),
    Message('note_on', channel=6, note=57, velocity=0, time=239),
    Message('note_on', channel=6, note=57, velocity=126, time=1),
    Message('note_on', channel=6, note=57, velocity=0, time=479),
    Message('note_on', channel=6, note=57, velocity=126, time=1),
    Message('note_on', channel=6, note=57, velocity=0, time=239),
    Message('note_on', channel=6, note=57, velocity=126, time=1),
    Message('note_on', channel=6, note=57, velocity=0, time=239),
    Message('note_on', channel=6, note=55, velocity=126, time=1),
    Message('note_on', channel=6, note=55, velocity=0, time=239),
    Message('note_on', channel=6, note=55, velocity=126, time=1),
    Message('note_on', channel=6, note=55, velocity=0, time=239),
    Message('note_on', channel=6, note=57, velocity=126, time=1),
    Message('note_on', channel=6, note=57, velocity=0, time=719),
    Message('note_on', channel=6, note=57, velocity=126, time=1),
    Message('note_on', channel=6, note=57, velocity=0, time=239),
    Message('note_on', channel=6, note=57, velocity=126, time=1),
    Message('note_on', channel=6, note=57, velocity=0, time=479),
    Message('note_on', channel=6, note=57, velocity=126, time=1),
    Message('note_on', channel=6, note=57, velocity=0, time=719),
    Message('note_on', channel=6, note=57, velocity=126, time=1),
    Message('note_on', channel=6, note=57, velocity=0, time=239),
    Message('note_on', channel=6, note=57, velocity=126, time=1),
    Message('note_on', channel=6, note=57, velocity=0, time=479),
    Message('note_on', channel=6, note=57, velocity=126, time=1),
    Message('note_on', channel=6, note=57, velocity=0, time=239),
    Message('note_on', channel=6, note=57, velocity=126, time=1),
    Message('note_on', channel=6, note=57, velocity=0, time=239),
    Message('note_on', channel=6, note=55, velocity=126, time=1),
    Message('note_on', channel=6, note=55, velocity=0, time=239),
    Message('note_on', channel=6, note=55, velocity=126, time=1),
    Message('note_on', channel=6, note=55, velocity=0, time=239),
    Message('note_on', channel=6, note=57, velocity=126, time=1),
    Message('note_on', channel=6, note=57, velocity=0, time=719),
    Message('note_on', channel=6, note=57, velocity=126, time=1),
    Message('note_on', channel=6, note=57, velocity=0, time=239),
    Message('note_on', channel=6, note=57, velocity=126, time=1),
    Message('note_on', channel=6, note=57, velocity=0, time=479),
    Message('note_on', channel=6, note=57, velocity=126, time=1),
    Message('note_on', channel=6, note=57, velocity=0, time=719),
    Message('note_on', channel=6, note=57, velocity=126, time=1),
    Message('note_on', channel=6, note=57, velocity=0, time=239),
    Message('note_on', channel=6, note=57, velocity=126, time=1),
    Message('note_on', channel=6, note=57, velocity=0, time=479),
    Message('note_on', channel=6, note=57, velocity=126, time=1),
    Message('note_on', channel=6, note=57, velocity=0, time=239),
    Message('note_on', channel=6, note=57, velocity=126, time=1),
    Message('note_on', channel=6, note=57, velocity=0, time=239),
    Message('note_on', channel=6, note=55, velocity=126, time=1),
    Message('note_on', channel=6, note=55, velocity=0, time=239),
    Message('note_on', channel=6, note=55, velocity=126, time=1),
    Message('note_on', channel=6, note=55, velocity=0, time=239),
    Message('note_on', channel=6, note=57, velocity=126, time=1),
    Message('note_on', channel=6, note=57, velocity=0, time=719),
    Message('note_on', channel=6, note=57, velocity=126, time=1),
    Message('note_on', channel=6, note=57, velocity=0, time=239),
    Message('note_on', channel=6, note=57, velocity=126, time=1),
    Message('note_on', channel=6, note=57, velocity=0, time=479),
    Message('note_on', channel=6, note=57, velocity=126, time=1),
    Message('note_on', channel=6, note=57, velocity=0, time=2399),
    Message('note_on', channel=6, note=60, velocity=126, time=1201),
    Message('note_on', channel=6, note=60, velocity=0, time=239),
    Message('note_on', channel=6, note=60, velocity=126, time=1),
    Message('note_on', channel=6, note=60, velocity=0, time=239),
    Message('note_on', channel=6, note=62, velocity=126, time=1),
    Message('note_on', channel=6, note=62, velocity=0, time=239),
    Message('note_on', channel=6, note=62, velocity=126, time=1),
    Message('note_on', channel=6, note=62, velocity=0, time=479),
    Message('note_on', channel=6, note=62, velocity=126, time=1),
    Message('note_on', channel=6, note=62, velocity=0, time=479),
    Message('note_on', channel=6, note=62, velocity=126, time=1),
    Message('note_on', channel=6, note=62, velocity=0, time=239),
    Message('note_on', channel=6, note=53, velocity=126, time=1),
    Message('note_on', channel=6, note=53, velocity=0, time=239),
    Message('note_on', channel=6, note=60, velocity=126, time=1),
    Message('note_on', channel=6, note=60, velocity=0, time=239),
    Message('note_on', channel=6, note=62, velocity=126, time=1),
    Message('note_on', channel=6, note=62, velocity=0, time=239),
    Message('note_on', channel=6, note=62, velocity=126, time=1),
    Message('note_on', channel=6, note=62, velocity=0, time=479),
    Message('note_on', channel=6, note=62, velocity=126, time=1),
    Message('note_on', channel=6, note=62, velocity=0, time=479),
    Message('note_on', channel=6, note=62, velocity=126, time=1),
    Message('note_on', channel=6, note=62, velocity=0, time=239),
    Message('note_on', channel=6, note=53, velocity=126, time=1),
    Message('note_on', channel=6, note=53, velocity=0, time=239),
    Message('note_on', channel=6, note=60, velocity=126, time=1),
    Message('note_on', channel=6, note=60, velocity=0, time=239),
    Message('note_on', channel=6, note=62, velocity=126, time=1),
    Message('note_on', channel=6, note=62, velocity=0, time=239),
    Message('note_on', channel=6, note=62, velocity=126, time=1),
    Message('note_on', channel=6, note=62, velocity=0, time=479),
    Message('note_on', channel=6, note=62, velocity=126, time=1),
    Message('note_on', channel=6, note=62, velocity=0, time=479),
    Message('note_on', channel=6, note=62, velocity=126, time=1),
    Message('note_on', channel=6, note=62, velocity=0, time=239),
    Message('note_on', channel=6, note=57, velocity=126, time=1921),
    Message('note_on', channel=6, note=57, velocity=0, time=239),
    Message('note_on', channel=6, note=60, velocity=126, time=1),
    Message('note_on', channel=6, note=60, velocity=0, time=239),
    Message('note_on', channel=6, note=62, velocity=126, time=1),
    Message('note_on', channel=6, note=62, velocity=0, time=239),
    Message('note_on', channel=6, note=62, velocity=126, time=1),
    Message('note_on', channel=6, note=62, velocity=0, time=479),
    Message('note_on', channel=6, note=62, velocity=126, time=1),
    Message('note_on', channel=6, note=62, velocity=0, time=479),
    Message('note_on', channel=6, note=62, velocity=126, time=1),
    Message('note_on', channel=6, note=62, velocity=0, time=239),
    Message('note_on', channel=6, note=53, velocity=126, time=1),
    Message('note_on', channel=6, note=53, velocity=0, time=239),
    Message('note_on', channel=6, note=60, velocity=126, time=1),
    Message('note_on', channel=6, note=60, velocity=0, time=239),
    Message('note_on', channel=6, note=62, velocity=126, time=1),
    Message('note_on', channel=6, note=62, velocity=0, time=239),
    Message('note_on', channel=6, note=62, velocity=126, time=1),
    Message('note_on', channel=6, note=62, velocity=0, time=479),
    Message('note_on', channel=6, note=62, velocity=126, time=1),
    Message('note_on', channel=6, note=62, velocity=0, time=479),
    Message('note_on', channel=6, note=62, velocity=126, time=1),
    Message('note_on', channel=6, note=62, velocity=0, time=239),
    Message('note_on', channel=6, note=53, velocity=126, time=1),
    Message('note_on', channel=6, note=53, velocity=0, time=239),
    Message('note_on', channel=6, note=60, velocity=126, time=1),
    Message('note_on', channel=6, note=60, velocity=0, time=239),
    Message('note_on', channel=6, note=62, velocity=126, time=1),
    Message('note_on', channel=6, note=62, velocity=0, time=239),
    Message('note_on', channel=6, note=62, velocity=126, time=1),
    Message('note_on', channel=6, note=62, velocity=0, time=479),
    Message('note_on', channel=6, note=62, velocity=126, time=1),
    Message('note_on', channel=6, note=62, velocity=0, time=479),
    Message('note_on', channel=6, note=62, velocity=126, time=1),
    Message('note_on', channel=6, note=62, velocity=0, time=239),
    Message('note_on', channel=6, note=57, velocity=126, time=2641),
    Message('note_on', channel=6, note=57, velocity=0, time=719),
    Message('note_on', channel=6, note=62, velocity=126, time=1),
    Message('note_on', channel=6, note=62, velocity=0, time=719),
    Message('note_on', channel=6, note=67, velocity=126, time=1),
    Message('note_on', channel=6, note=67, velocity=0, time=239),
    Message('note_on', channel=6, note=65, velocity=126, time=1),
    Message('note_on', channel=6, note=65, velocity=0, time=239),
    Message('note_on', channel=6, note=62, velocity=126, time=1),
    Message('note_on', channel=6, note=62, velocity=0, time=719),
    Message('note_on', channel=6, note=62, velocity=126, time=1),
    Message('note_on', channel=6, note=62, velocity=0, time=719),
    Message('note_on', channel=6, note=62, velocity=126, time=1),
    Message('note_on', channel=6, note=62, velocity=0, time=239),
    Message('note_on', channel=6, note=65, velocity=126, time=1),
    Message('note_on', channel=6, note=65, velocity=0, time=239),
    Message('note_on', channel=6, note=60, velocity=126, time=1),
    Message('note_on', channel=6, note=60, velocity=0, time=719),
    Message('note_on', channel=6, note=60, velocity=126, time=1),
    Message('note_on', channel=6, note=60, velocity=0, time=479),
    Message('note_on', channel=6, note=65, velocity=126, time=1),
    Message('note_on', channel=6, note=65, velocity=0, time=239),
    Message('note_on', channel=6, note=62, velocity=126, time=1),
    Message('note_on', channel=6, note=62, velocity=0, time=239),
    Message('note_on', channel=6, note=57, velocity=126, time=1),
    Message('note_on', channel=6, note=57, velocity=0, time=2159),
    Message('note_on', channel=6, note=57, velocity=126, time=1),
    Message('note_on', channel=6, note=57, velocity=0, time=719),
    Message('note_on', channel=6, note=62, velocity=126, time=1),
    Message('note_on', channel=6, note=62, velocity=0, time=719),
    Message('note_on', channel=6, note=67, velocity=126, time=1),
    Message('note_on', channel=6, note=67, velocity=0, time=239),
    Message('note_on', channel=6, note=65, velocity=126, time=1),
    Message('note_on', channel=6, note=65, velocity=0, time=239),
    Message('note_on', channel=6, note=62, velocity=126, time=1),
    Message('note_on', channel=6, note=62, velocity=0, time=719),
    Message('note_on', channel=6, note=62, velocity=126, time=1),
    Message('note_on', channel=6, note=62, velocity=0, time=719),
    Message('note_on', channel=6, note=62, velocity=126, time=1),
    Message('note_on', channel=6, note=62, velocity=0, time=239),
    Message('note_on', channel=6, note=65, velocity=126, time=1),
    Message('note_on', channel=6, note=65, velocity=0, time=239),
    Message('note_on', channel=6, note=60, velocity=126, time=1),
    Message('note_on', channel=6, note=60, velocity=0, time=719),
    Message('note_on', channel=6, note=60, velocity=126, time=1),
    Message('note_on', channel=6, note=60, velocity=0, time=479),
    Message('note_on', channel=6, note=65, velocity=126, time=1),
    Message('note_on', channel=6, note=65, velocity=0, time=239),
    Message('note_on', channel=6, note=62, velocity=126, time=1),
    Message('note_on', channel=6, note=62, velocity=0, time=239),
    Message('note_on', channel=6, note=57, velocity=126, time=1),
    Message('note_on', channel=6, note=57, velocity=0, time=2159),
    Message('note_on', channel=6, note=57, velocity=126, time=1),
    Message('note_on', channel=6, note=57, velocity=0, time=719),
    Message('note_on', channel=6, note=62, velocity=126, time=1),
    Message('note_on', channel=6, note=62, velocity=0, time=719),
    Message('note_on', channel=6, note=67, velocity=126, time=1),
    Message('note_on', channel=6, note=67, velocity=0, time=239),
    Message('note_on', channel=6, note=65, velocity=126, time=1),
    Message('note_on', channel=6, note=65, velocity=0, time=239),
    Message('note_on', channel=6, note=62, velocity=126, time=1),
    Message('note_on', channel=6, note=62, velocity=0, time=719),
    Message('note_on', channel=6, note=62, velocity=126, time=1),
    Message('note_on', channel=6, note=62, velocity=0, time=719),
    Message('note_on', channel=6, note=62, velocity=126, time=1),
    Message('note_on', channel=6, note=62, velocity=0, time=239),
    Message('note_on', channel=6, note=65, velocity=126, time=1),
    Message('note_on', channel=6, note=65, velocity=0, time=239),
    Message('note_on', channel=6, note=60, velocity=126, time=1),
    Message('note_on', channel=6, note=60, velocity=0, time=719),
    Message('note_on', channel=6, note=60, velocity=126, time=1),
    Message('note_on', channel=6, note=60, velocity=0, time=479),
    Message('note_on', channel=6, note=65, velocity=126, time=1),
    Message('note_on', channel=6, note=65, velocity=0, time=239),
    Message('note_on', channel=6, note=62, velocity=126, time=1),
    Message('note_on', channel=6, note=62, velocity=0, time=239),
    Message('note_on', channel=6, note=57, velocity=126, time=1),
    Message('note_on', channel=6, note=57, velocity=0, time=2159),
    MetaMessage('end_of_track', time=1)]),
  MidiTrack([
    MetaMessage('key_signature', key='F', time=0),
    Message('program_change', channel=7, program=57, time=0),
    Message('note_on', channel=7, note=57, velocity=80, time=0),
    Message('control_change', channel=7, control=7, value=100, time=2),
    Message('control_change', channel=7, control=10, value=64, time=2),
    Message('control_change', channel=7, control=91, value=30, time=2),
    Message('control_change', channel=7, control=93, value=30, time=2),
    Message('note_on', channel=7, note=57, velocity=0, time=711),
    Message('note_on', channel=7, note=57, velocity=80, time=1),
    Message('note_on', channel=7, note=57, velocity=0, time=239),
    Message('note_on', channel=7, note=57, velocity=80, time=1),
    Message('note_on', channel=7, note=57, velocity=0, time=479),
    Message('note_on', channel=7, note=57, velocity=80, time=1),
    Message('note_on', channel=7, note=57, velocity=0, time=719),
    Message('note_on', channel=7, note=57, velocity=80, time=1),
    Message('note_on', channel=7, note=57, velocity=0, time=239),
    Message('note_on', channel=7, note=57, velocity=80, time=1),
    Message('note_on', channel=7, note=57, velocity=0, time=479),
    Message('note_on', channel=7, note=57, velocity=80, time=1),
    Message('note_on', channel=7, note=57, velocity=0, time=239),
    Message('note_on', channel=7, note=57, velocity=80, time=1),
    Message('note_on', channel=7, note=57, velocity=0, time=239),
    Message('note_on', channel=7, note=55, velocity=80, time=1),
    Message('note_on', channel=7, note=55, velocity=0, time=239),
    Message('note_on', channel=7, note=55, velocity=80, time=1),
    Message('note_on', channel=7, note=55, velocity=0, time=239),
    Message('note_on', channel=7, note=57, velocity=80, time=1),
    Message('note_on', channel=7, note=57, velocity=0, time=719),
    Message('note_on', channel=7, note=57, velocity=80, time=1),
    Message('note_on', channel=7, note=57, velocity=0, time=239),
    Message('note_on', channel=7, note=57, velocity=80, time=1),
    Message('note_on', channel=7, note=57, velocity=0, time=479),
    Message('note_on', channel=7, note=57, velocity=80, time=1),
    Message('note_on', channel=7, note=57, velocity=0, time=719),
    Message('note_on', channel=7, note=57, velocity=80, time=1),
    Message('note_on', channel=7, note=57, velocity=0, time=239),
    Message('note_on', channel=7, note=57, velocity=80, time=1),
    Message('note_on', channel=7, note=57, velocity=0, time=479),
    Message('note_on', channel=7, note=57, velocity=80, time=1),
    Message('note_on', channel=7, note=57, velocity=0, time=239),
    Message('note_on', channel=7, note=57, velocity=80, time=1),
    Message('note_on', channel=7, note=57, velocity=0, time=239),
    Message('note_on', channel=7, note=55, velocity=80, time=1),
    Message('note_on', channel=7, note=55, velocity=0, time=239),
    Message('note_on', channel=7, note=55, velocity=80, time=1),
    Message('note_on', channel=7, note=55, velocity=0, time=239),
    Message('note_on', channel=7, note=50, velocity=96, time=1),
    Message('note_on', channel=7, note=50, velocity=0, time=719),
    Message('note_on', channel=7, note=57, velocity=96, time=1),
    Message('note_on', channel=7, note=57, velocity=0, time=719),
    Message('note_on', channel=7, note=55, velocity=96, time=1),
    Message('note_on', channel=7, note=55, velocity=0, time=239),
    Message('note_on', channel=7, note=53, velocity=96, time=1),
    Message('note_on', channel=7, note=53, velocity=0, time=239),
    Message('note_on', channel=7, note=55, velocity=96, time=1),
    Message('note_on', channel=7, note=55, velocity=0, time=719),
    Message('note_on', channel=7, note=57, velocity=96, time=1),
    Message('note_on', channel=7, note=57, velocity=0, time=719),
    Message('note_on', channel=7, note=55, velocity=96, time=1),
    Message('note_on', channel=7, note=55, velocity=0, time=239),
    Message('note_on', channel=7, note=53, velocity=96, time=1),
    Message('note_on', channel=7, note=53, velocity=0, time=239),
    Message('note_on', channel=7, note=55, velocity=96, time=1),
    Message('note_on', channel=7, note=55, velocity=0, time=719),
    Message('note_on', channel=7, note=57, velocity=96, time=1),
    Message('note_on', channel=7, note=57, velocity=0, time=479),
    Message('note_on', channel=7, note=53, velocity=96, time=1),
    Message('note_on', channel=7, note=53, velocity=0, time=239),
    Message('note_on', channel=7, note=52, velocity=96, time=1),
    Message('note_on', channel=7, note=52, velocity=0, time=239),
    Message('note_on', channel=7, note=50, velocity=96, time=1),
    Message('note_on', channel=7, note=50, velocity=0, time=1919),
    Message('note_on', channel=7, note=50, velocity=96, time=1),
    Message('note_on', channel=7, note=50, velocity=0, time=239),
    Message('note_on', channel=7, note=57, velocity=96, time=1),
    Message('note_on', channel=7, note=57, velocity=0, time=239),
    Message('note_on', channel=7, note=57, velocity=96, time=1),
    Message('note_on', channel=7, note=57, velocity=0, time=239),
    Message('note_on', channel=7, note=57, velocity=96, time=1),
    Message('note_on', channel=7, note=57, velocity=0, time=239),
    Message('note_on', channel=7, note=57, velocity=96, time=1),
    Message('note_on', channel=7, note=57, velocity=0, time=239),
    Message('note_on', channel=7, note=57, velocity=96, time=1),
    Message('note_on', channel=7, note=57, velocity=0, time=239),
    Message('note_on', channel=7, note=57, velocity=96, time=1),
    Message('note_on', channel=7, note=57, velocity=0, time=239),
    Message('note_on', channel=7, note=57, velocity=96, time=1),
    Message('note_on', channel=7, note=57, velocity=0, time=239),
    Message('note_on', channel=7, note=57, velocity=96, time=1),
    Message('note_on', channel=7, note=57, velocity=0, time=239),
    Message('note_on', channel=7, note=57, velocity=96, time=1),
    Message('note_on', channel=7, note=57, velocity=0, time=239),
    Message('note_on', channel=7, note=57, velocity=96, time=1),
    Message('note_on', channel=7, note=57, velocity=0, time=239),
    Message('note_on', channel=7, note=57, velocity=96, time=1),
    Message('note_on', channel=7, note=57, velocity=0, time=239),
    Message('note_on', channel=7, note=57, velocity=96, time=1),
    Message('note_on', channel=7, note=57, velocity=0, time=239),
    Message('note_on', channel=7, note=57, velocity=96, time=1),
    Message('note_on', channel=7, note=57, velocity=0, time=239),
    Message('note_on', channel=7, note=57, velocity=96, time=1),
    Message('note_on', channel=7, note=57, velocity=0, time=239),
    Message('note_on', channel=7, note=57, velocity=96, time=1),
    Message('note_on', channel=7, note=57, velocity=0, time=239),
    Message('note_on', channel=7, note=57, velocity=96, time=1),
    Message('note_on', channel=7, note=57, velocity=0, time=239),
    Message('note_on', channel=7, note=57, velocity=96, time=1),
    Message('note_on', channel=7, note=57, velocity=0, time=239),
    Message('note_on', channel=7, note=57, velocity=96, time=1),
    Message('note_on', channel=7, note=57, velocity=0, time=239),
    Message('note_on', channel=7, note=57, velocity=96, time=1),
    Message('note_on', channel=7, note=57, velocity=0, time=239),
    Message('note_on', channel=7, note=57, velocity=96, time=1),
    Message('note_on', channel=7, note=57, velocity=0, time=239),
    Message('note_on', channel=7, note=57, velocity=96, time=1),
    Message('note_on', channel=7, note=57, velocity=0, time=239),
    Message('note_on', channel=7, note=57, velocity=96, time=1),
    Message('note_on', channel=7, note=57, velocity=0, time=239),
    Message('note_on', channel=7, note=57, velocity=96, time=1),
    Message('note_on', channel=7, note=57, velocity=0, time=239),
    Message('note_on', channel=7, note=57, velocity=96, time=1),
    Message('note_on', channel=7, note=57, velocity=0, time=239),
    Message('note_on', channel=7, note=57, velocity=96, time=1),
    Message('note_on', channel=7, note=57, velocity=0, time=239),
    Message('note_on', channel=7, note=57, velocity=96, time=1),
    Message('note_on', channel=7, note=57, velocity=0, time=239),
    Message('note_on', channel=7, note=57, velocity=96, time=1),
    Message('note_on', channel=7, note=57, velocity=0, time=239),
    Message('note_on', channel=7, note=57, velocity=96, time=1),
    Message('note_on', channel=7, note=57, velocity=0, time=239),
    Message('note_on', channel=7, note=57, velocity=96, time=1),
    Message('note_on', channel=7, note=57, velocity=0, time=239),
    Message('note_on', channel=7, note=57, velocity=96, time=1),
    Message('note_on', channel=7, note=57, velocity=0, time=239),
    Message('note_on', channel=7, note=57, velocity=96, time=1),
    Message('note_on', channel=7, note=57, velocity=0, time=239),
    Message('note_on', channel=7, note=57, velocity=96, time=1),
    Message('note_on', channel=7, note=57, velocity=0, time=239),
    Message('note_on', channel=7, note=62, velocity=96, time=1),
    Message('note_on', channel=7, note=62, velocity=0, time=1919),
    Message('note_on', channel=7, note=62, velocity=126, time=1),
    Message('note_on', channel=7, note=62, velocity=0, time=479),
    Message('note_on', channel=7, note=62, velocity=126, time=1),
    Message('note_on', channel=7, note=62, velocity=0, time=1439),
    Message('note_on', channel=7, note=58, velocity=126, time=1921),
    Message('note_on', channel=7, note=58, velocity=0, time=479),
    Message('note_on', channel=7, note=58, velocity=126, time=1),
    Message('note_on', channel=7, note=58, velocity=0, time=1439),
    Message('note_on', channel=7, note=57, velocity=126, time=9601),
    Message('note_on', channel=7, note=57, velocity=0, time=479),
    Message('note_on', channel=7, note=57, velocity=126, time=1),
    Message('note_on', channel=7, note=57, velocity=0, time=1439),
    Message('note_on', channel=7, note=58, velocity=126, time=1921),
    Message('note_on', channel=7, note=58, velocity=0, time=479),
    Message('note_on', channel=7, note=58, velocity=126, time=1),
    Message('note_on', channel=7, note=58, velocity=0, time=1439),
    Message('note_on', channel=7, note=62, velocity=80, time=5761),
    Message('note_on', channel=7, note=62, velocity=0, time=959),
    Message('note_on', channel=7, note=62, velocity=112, time=1),
    Message('note_on', channel=7, note=62, velocity=0, time=479),
    Message('note_on', channel=7, note=64, velocity=112, time=1),
    Message('note_on', channel=7, note=64, velocity=0, time=479),
    Message('note_on', channel=7, note=65, velocity=112, time=1),
    Message('note_on', channel=7, note=65, velocity=0, time=479),
    Message('note_on', channel=7, note=64, velocity=112, time=1),
    Message('note_on', channel=7, note=64, velocity=0, time=479),
    Message('note_on', channel=7, note=62, velocity=112, time=1),
    Message('note_on', channel=7, note=62, velocity=0, time=479),
    Message('note_on', channel=7, note=65, velocity=112, time=1),
    Message('note_on', channel=7, note=65, velocity=0, time=479),
    Message('note_on', channel=7, note=67, velocity=112, time=1),
    Message('note_on', channel=7, note=67, velocity=0, time=479),
    Message('note_on', channel=7, note=65, velocity=112, time=1),
    Message('note_on', channel=7, note=65, velocity=0, time=479),
    Message('note_on', channel=7, note=64, velocity=112, time=1),
    Message('note_on', channel=7, note=64, velocity=0, time=479),
    Message('note_on', channel=7, note=69, velocity=112, time=1),
    Message('note_on', channel=7, note=69, velocity=0, time=959),
    Message('note_on', channel=7, note=70, velocity=112, time=1),
    Message('note_on', channel=7, note=70, velocity=0, time=239),
    Message('note_on', channel=7, note=69, velocity=112, time=1),
    Message('note_on', channel=7, note=69, velocity=0, time=719),
    Message('note_on', channel=7, note=70, velocity=112, time=1),
    Message('note_on', channel=7, note=70, velocity=0, time=239),
    Message('note_on', channel=7, note=69, velocity=112, time=1),
    Message('note_on', channel=7, note=69, velocity=0, time=719),
    Message('note_on', channel=7, note=60, velocity=126, time=4561),
    Message('note_on', channel=7, note=60, velocity=0, time=239),
    Message('note_on', channel=7, note=60, velocity=126, time=1),
    Message('note_on', channel=7, note=60, velocity=0, time=239),
    Message('note_on', channel=7, note=62, velocity=126, time=1),
    Message('note_on', channel=7, note=62, velocity=0, time=239),
    Message('note_on', channel=7, note=62, velocity=112, time=1),
    Message('note_on', channel=7, note=62, velocity=0, time=479),
    Message('note_on', channel=7, note=62, velocity=112, time=1),
    Message('note_on', channel=7, note=62, velocity=0, time=479),
    Message('note_on', channel=7, note=62, velocity=112, time=1),
    Message('note_on', channel=7, note=62, velocity=0, time=239),
    Message('note_on', channel=7, note=53, velocity=112, time=1),
    Message('note_on', channel=7, note=53, velocity=0, time=239),
    Message('note_on', channel=7, note=60, velocity=112, time=1),
    Message('note_on', channel=7, note=60, velocity=0, time=239),
    Message('note_on', channel=7, note=62, velocity=112, time=1),
    Message('note_on', channel=7, note=62, velocity=0, time=239),
    Message('note_on', channel=7, note=62, velocity=112, time=1),
    Message('note_on', channel=7, note=62, velocity=0, time=479),
    Message('note_on', channel=7, note=62, velocity=112, time=1),
    Message('note_on', channel=7, note=62, velocity=0, time=479),
    Message('note_on', channel=7, note=62, velocity=112, time=1),
    Message('note_on', channel=7, note=62, velocity=0, time=239),
    Message('note_on', channel=7, note=53, velocity=112, time=1),
    Message('note_on', channel=7, note=53, velocity=0, time=239),
    Message('note_on', channel=7, note=60, velocity=112, time=1),
    Message('note_on', channel=7, note=60, velocity=0, time=239),
    Message('note_on', channel=7, note=62, velocity=112, time=1),
    Message('note_on', channel=7, note=62, velocity=0, time=239),
    Message('note_on', channel=7, note=62, velocity=112, time=1),
    Message('note_on', channel=7, note=62, velocity=0, time=479),
    Message('note_on', channel=7, note=62, velocity=112, time=1),
    Message('note_on', channel=7, note=62, velocity=0, time=479),
    Message('note_on', channel=7, note=62, velocity=112, time=1),
    Message('note_on', channel=7, note=62, velocity=0, time=239),
    Message('note_on', channel=7, note=72, velocity=112, time=1),
    Message('note_on', channel=7, note=60, velocity=112, time=0),
    Message('note_on', channel=7, note=72, velocity=0, time=239),
    Message('note_on', channel=7, note=60, velocity=0, time=0),
    Message('note_on', channel=7, note=72, velocity=112, time=1),
    Message('note_on', channel=7, note=60, velocity=112, time=0),
    Message('note_on', channel=7, note=72, velocity=0, time=239),
    Message('note_on', channel=7, note=60, velocity=0, time=0),
    Message('note_on', channel=7, note=74, velocity=112, time=1),
    Message('note_on', channel=7, note=62, velocity=112, time=0),
    Message('note_on', channel=7, note=74, velocity=0, time=239),
    Message('note_on', channel=7, note=62, velocity=0, time=0),
    Message('note_on', channel=7, note=74, velocity=112, time=1),
    Message('note_on', channel=7, note=62, velocity=112, time=0),
    Message('note_on', channel=7, note=74, velocity=0, time=239),
    Message('note_on', channel=7, note=62, velocity=0, time=0),
    Message('note_on', channel=7, note=74, velocity=112, time=1),
    Message('note_on', channel=7, note=62, velocity=112, time=0),
    Message('note_on', channel=7, note=74, velocity=0, time=719),
    Message('note_on', channel=7, note=62, velocity=0, time=0),
    Message('note_on', channel=7, note=57, velocity=112, time=241),
    Message('note_on', channel=7, note=57, velocity=0, time=239),
    Message('note_on', channel=7, note=60, velocity=112, time=1),
    Message('note_on', channel=7, note=60, velocity=0, time=239),
    Message('note_on', channel=7, note=62, velocity=112, time=1),
    Message('note_on', channel=7, note=62, velocity=0, time=239),
    Message('note_on', channel=7, note=62, velocity=112, time=1),
    Message('note_on', channel=7, note=62, velocity=0, time=479),
    Message('note_on', channel=7, note=62, velocity=112, time=1),
    Message('note_on', channel=7, note=62, velocity=0, time=479),
    Message('note_on', channel=7, note=62, velocity=112, time=1),
    Message('note_on', channel=7, note=62, velocity=0, time=239),
    Message('note_on', channel=7, note=53, velocity=112, time=1),
    Message('note_on', channel=7, note=53, velocity=0, time=239),
    Message('note_on', channel=7, note=60, velocity=112, time=1),
    Message('note_on', channel=7, note=60, velocity=0, time=239),
    Message('note_on', channel=7, note=62, velocity=112, time=1),
    Message('note_on', channel=7, note=62, velocity=0, time=239),
    Message('note_on', channel=7, note=62, velocity=112, time=1),
    Message('note_on', channel=7, note=62, velocity=0, time=479),
    Message('note_on', channel=7, note=62, velocity=112, time=1),
    Message('note_on', channel=7, note=62, velocity=0, time=479),
    Message('note_on', channel=7, note=62, velocity=112, time=1),
    Message('note_on', channel=7, note=62, velocity=0, time=239),
    Message('note_on', channel=7, note=53, velocity=112, time=1),
    Message('note_on', channel=7, note=53, velocity=0, time=239),
    Message('note_on', channel=7, note=60, velocity=112, time=1),
    Message('note_on', channel=7, note=60, velocity=0, time=239),
    Message('note_on', channel=7, note=62, velocity=112, time=1),
    Message('note_on', channel=7, note=62, velocity=0, time=239),
    Message('note_on', channel=7, note=62, velocity=112, time=1),
    Message('note_on', channel=7, note=62, velocity=0, time=479),
    Message('note_on', channel=7, note=62, velocity=112, time=1),
    Message('note_on', channel=7, note=62, velocity=0, time=479),
    Message('note_on', channel=7, note=62, velocity=112, time=1),
    Message('note_on', channel=7, note=62, velocity=0, time=239),
    Message('note_on', channel=7, note=72, velocity=112, time=1),
    Message('note_on', channel=7, note=60, velocity=112, time=0),
    Message('note_on', channel=7, note=72, velocity=0, time=239),
    Message('note_on', channel=7, note=60, velocity=0, time=0),
    Message('note_on', channel=7, note=72, velocity=112, time=1),
    Message('note_on', channel=7, note=60, velocity=112, time=0),
    Message('note_on', channel=7, note=72, velocity=0, time=239),
    Message('note_on', channel=7, note=60, velocity=0, time=0),
    Message('note_on', channel=7, note=74, velocity=112, time=1),
    Message('note_on', channel=7, note=62, velocity=112, time=0),
    Message('note_on', channel=7, note=74, velocity=0, time=239),
    Message('note_on', channel=7, note=62, velocity=0, time=0),
    Message('note_on', channel=7, note=74, velocity=112, time=1),
    Message('note_on', channel=7, note=62, velocity=112, time=0),
    Message('note_on', channel=7, note=74, velocity=0, time=239),
    Message('note_on', channel=7, note=62, velocity=0, time=0),
    Message('note_on', channel=7, note=74, velocity=112, time=1),
    Message('note_on', channel=7, note=62, velocity=112, time=0),
    Message('note_on', channel=7, note=74, velocity=0, time=719),
    Message('note_on', channel=7, note=62, velocity=0, time=0),
    Message('note_on', channel=7, note=62, velocity=126, time=961),
    Message('note_on', channel=7, note=62, velocity=0, time=719),
    Message('note_on', channel=7, note=69, velocity=126, time=1),
    Message('note_on', channel=7, note=69, velocity=0, time=719),
    Message('note_on', channel=7, note=67, velocity=126, time=1),
    Message('note_on', channel=7, note=67, velocity=0, time=239),
    Message('note_on', channel=7, note=65, velocity=126, time=1),
    Message('note_on', channel=7, note=65, velocity=0, time=239),
    Message('note_on', channel=7, note=67, velocity=126, time=1),
    Message('note_on', channel=7, note=67, velocity=0, time=719),
    Message('note_on', channel=7, note=69, velocity=126, time=1),
    Message('note_on', channel=7, note=69, velocity=0, time=719),
    Message('note_on', channel=7, note=67, velocity=126, time=1),
    Message('note_on', channel=7, note=67, velocity=0, time=239),
    Message('note_on', channel=7, note=65, velocity=126, time=1),
    Message('note_on', channel=7, note=65, velocity=0, time=239),
    Message('note_on', channel=7, note=67, velocity=126, time=1),
    Message('note_on', channel=7, note=67, velocity=0, time=719),
    Message('note_on', channel=7, note=69, velocity=126, time=1),
    Message('note_on', channel=7, note=69, velocity=0, time=479),
    Message('note_on', channel=7, note=65, velocity=126, time=1),
    Message('note_on', channel=7, note=65, velocity=0, time=239),
    Message('note_on', channel=7, note=64, velocity=126, time=1),
    Message('note_on', channel=7, note=64, velocity=0, time=239),
    Message('note_on', channel=7, note=62, velocity=126, time=1),
    Message('note_on', channel=7, note=62, velocity=0, time=2159),
    Message('note_on', channel=7, note=62, velocity=126, time=1),
    Message('note_on', channel=7, note=62, velocity=0, time=719),
    Message('note_on', channel=7, note=69, velocity=126, time=1),
    Message('note_on', channel=7, note=69, velocity=0, time=719),
    Message('note_on', channel=7, note=67, velocity=126, time=1),
    Message('note_on', channel=7, note=67, velocity=0, time=239),
    Message('note_on', channel=7, note=65, velocity=126, time=1),
    Message('note_on', channel=7, note=65, velocity=0, time=239),
    Message('note_on', channel=7, note=67, velocity=126, time=1),
    Message('note_on', channel=7, note=67, velocity=0, time=719),
    Message('note_on', channel=7, note=69, velocity=126, time=1),
    Message('note_on', channel=7, note=69, velocity=0, time=719),
    Message('note_on', channel=7, note=67, velocity=126, time=1),
    Message('note_on', channel=7, note=67, velocity=0, time=239),
    Message('note_on', channel=7, note=65, velocity=126, time=1),
    Message('note_on', channel=7, note=65, velocity=0, time=239),
    Message('note_on', channel=7, note=67, velocity=126, time=1),
    Message('note_on', channel=7, note=67, velocity=0, time=719),
    Message('note_on', channel=7, note=69, velocity=126, time=1),
    Message('note_on', channel=7, note=69, velocity=0, time=479),
    Message('note_on', channel=7, note=65, velocity=126, time=1),
    Message('note_on', channel=7, note=65, velocity=0, time=239),
    Message('note_on', channel=7, note=64, velocity=126, time=1),
    Message('note_on', channel=7, note=64, velocity=0, time=239),
    Message('note_on', channel=7, note=62, velocity=126, time=1),
    Message('note_on', channel=7, note=62, velocity=0, time=2159),
    Message('note_on', channel=7, note=62, velocity=126, time=14401),
    Message('note_on', channel=7, note=62, velocity=0, time=479),
    Message('note_on', channel=7, note=64, velocity=126, time=1),
    Message('note_on', channel=7, note=64, velocity=0, time=479),
    Message('note_on', channel=7, note=65, velocity=126, time=1),
    Message('note_on', channel=7, note=65, velocity=0, time=479),
    Message('note_on', channel=7, note=64, velocity=126, time=1),
    Message('note_on', channel=7, note=64, velocity=0, time=479),
    Message('note_on', channel=7, note=62, velocity=126, time=1),
    Message('note_on', channel=7, note=62, velocity=0, time=479),
    Message('note_on', channel=7, note=65, velocity=126, time=1),
    Message('note_on', channel=7, note=65, velocity=0, time=479),
    Message('note_on', channel=7, note=67, velocity=126, time=1),
    Message('note_on', channel=7, note=67, velocity=0, time=479),
    Message('note_on', channel=7, note=65, velocity=126, time=1),
    Message('note_on', channel=7, note=65, velocity=0, time=479),
    Message('note_on', channel=7, note=64, velocity=126, time=1),
    Message('note_on', channel=7, note=64, velocity=0, time=479),
    Message('note_on', channel=7, note=69, velocity=126, time=1),
    Message('note_on', channel=7, note=69, velocity=0, time=2879),
    Message('note_on', channel=7, note=69, velocity=126, time=1),
    Message('note_on', channel=7, note=69, velocity=0, time=479),
    Message('note_on', channel=7, note=69, velocity=126, time=1),
    Message('note_on', channel=7, note=69, velocity=0, time=479),
    Message('note_on', channel=7, note=69, velocity=126, time=1),
    Message('note_on', channel=7, note=69, velocity=0, time=479),
    Message('note_on', channel=7, note=60, velocity=126, time=1201),
    Message('note_on', channel=7, note=60, velocity=0, time=239),
    Message('note_on', channel=7, note=60, velocity=126, time=1),
    Message('note_on', channel=7, note=60, velocity=0, time=239),
    Message('note_on', channel=7, note=62, velocity=126, time=1),
    Message('note_on', channel=7, note=62, velocity=0, time=239),
    Message('note_on', channel=7, note=62, velocity=126, time=1),
    Message('note_on', channel=7, note=62, velocity=0, time=479),
    Message('note_on', channel=7, note=62, velocity=126, time=1),
    Message('note_on', channel=7, note=62, velocity=0, time=479),
    Message('note_on', channel=7, note=62, velocity=126, time=1),
    Message('note_on', channel=7, note=62, velocity=0, time=239),
    Message('note_on', channel=7, note=53, velocity=126, time=1),
    Message('note_on', channel=7, note=53, velocity=0, time=239),
    Message('note_on', channel=7, note=60, velocity=126, time=1),
    Message('note_on', channel=7, note=60, velocity=0, time=239),
    Message('note_on', channel=7, note=62, velocity=126, time=1),
    Message('note_on', channel=7, note=62, velocity=0, time=239),
    Message('note_on', channel=7, note=62, velocity=126, time=1),
    Message('note_on', channel=7, note=62, velocity=0, time=479),
    Message('note_on', channel=7, note=62, velocity=126, time=1),
    Message('note_on', channel=7, note=62, velocity=0, time=479),
    Message('note_on', channel=7, note=62, velocity=126, time=1),
    Message('note_on', channel=7, note=62, velocity=0, time=239),
    Message('note_on', channel=7, note=53, velocity=126, time=1),
    Message('note_on', channel=7, note=53, velocity=0, time=239),
    Message('note_on', channel=7, note=60, velocity=126, time=1),
    Message('note_on', channel=7, note=60, velocity=0, time=239),
    Message('note_on', channel=7, note=62, velocity=126, time=1),
    Message('note_on', channel=7, note=62, velocity=0, time=239),
    Message('note_on', channel=7, note=62, velocity=126, time=1),
    Message('note_on', channel=7, note=62, velocity=0, time=479),
    Message('note_on', channel=7, note=62, velocity=126, time=1),
    Message('note_on', channel=7, note=62, velocity=0, time=479),
    Message('note_on', channel=7, note=62, velocity=126, time=1),
    Message('note_on', channel=7, note=62, velocity=0, time=239),
    Message('note_on', channel=7, note=72, velocity=126, time=1),
    Message('note_on', channel=7, note=60, velocity=126, time=0),
    Message('note_on', channel=7, note=72, velocity=0, time=239),
    Message('note_on', channel=7, note=60, velocity=0, time=0),
    Message('note_on', channel=7, note=72, velocity=126, time=1),
    Message('note_on', channel=7, note=60, velocity=126, time=0),
    Message('note_on', channel=7, note=72, velocity=0, time=239),
    Message('note_on', channel=7, note=60, velocity=0, time=0),
    Message('note_on', channel=7, note=74, velocity=126, time=1),
    Message('note_on', channel=7, note=62, velocity=126, time=0),
    Message('note_on', channel=7, note=74, velocity=0, time=239),
    Message('note_on', channel=7, note=62, velocity=0, time=0),
    Message('note_on', channel=7, note=74, velocity=126, time=1),
    Message('note_on', channel=7, note=62, velocity=126, time=0),
    Message('note_on', channel=7, note=74, velocity=0, time=239),
    Message('note_on', channel=7, note=62, velocity=0, time=0),
    Message('note_on', channel=7, note=74, velocity=126, time=1),
    Message('note_on', channel=7, note=62, velocity=126, time=0),
    Message('note_on', channel=7, note=74, velocity=0, time=719),
    Message('note_on', channel=7, note=62, velocity=0, time=0),
    Message('note_on', channel=7, note=57, velocity=126, time=241),
    Message('note_on', channel=7, note=57, velocity=0, time=239),
    Message('note_on', channel=7, note=60, velocity=126, time=1),
    Message('note_on', channel=7, note=60, velocity=0, time=239),
    Message('note_on', channel=7, note=62, velocity=126, time=1),
    Message('note_on', channel=7, note=62, velocity=0, time=239),
    Message('note_on', channel=7, note=62, velocity=126, time=1),
    Message('note_on', channel=7, note=62, velocity=0, time=479),
    Message('note_on', channel=7, note=62, velocity=126, time=1),
    Message('note_on', channel=7, note=62, velocity=0, time=479),
    Message('note_on', channel=7, note=62, velocity=126, time=1),
    Message('note_on', channel=7, note=62, velocity=0, time=239),
    Message('note_on', channel=7, note=53, velocity=126, time=1),
    Message('note_on', channel=7, note=53, velocity=0, time=239),
    Message('note_on', channel=7, note=60, velocity=126, time=1),
    Message('note_on', channel=7, note=60, velocity=0, time=239),
    Message('note_on', channel=7, note=62, velocity=126, time=1),
    Message('note_on', channel=7, note=62, velocity=0, time=239),
    Message('note_on', channel=7, note=62, velocity=126, time=1),
    Message('note_on', channel=7, note=62, velocity=0, time=479),
    Message('note_on', channel=7, note=62, velocity=126, time=1),
    Message('note_on', channel=7, note=62, velocity=0, time=479),
    Message('note_on', channel=7, note=62, velocity=126, time=1),
    Message('note_on', channel=7, note=62, velocity=0, time=239),
    Message('note_on', channel=7, note=53, velocity=126, time=1),
    Message('note_on', channel=7, note=53, velocity=0, time=239),
    Message('note_on', channel=7, note=60, velocity=126, time=1),
    Message('note_on', channel=7, note=60, velocity=0, time=239),
    Message('note_on', channel=7, note=62, velocity=126, time=1),
    Message('note_on', channel=7, note=62, velocity=0, time=239),
    Message('note_on', channel=7, note=62, velocity=126, time=1),
    Message('note_on', channel=7, note=62, velocity=0, time=479),
    Message('note_on', channel=7, note=62, velocity=126, time=1),
    Message('note_on', channel=7, note=62, velocity=0, time=479),
    Message('note_on', channel=7, note=62, velocity=126, time=1),
    Message('note_on', channel=7, note=62, velocity=0, time=239),
    Message('note_on', channel=7, note=72, velocity=126, time=1),
    Message('note_on', channel=7, note=60, velocity=126, time=0),
    Message('note_on', channel=7, note=72, velocity=0, time=239),
    Message('note_on', channel=7, note=60, velocity=0, time=0),
    Message('note_on', channel=7, note=72, velocity=126, time=1),
    Message('note_on', channel=7, note=60, velocity=126, time=0),
    Message('note_on', channel=7, note=72, velocity=0, time=239),
    Message('note_on', channel=7, note=60, velocity=0, time=0),
    Message('note_on', channel=7, note=74, velocity=126, time=1),
    Message('note_on', channel=7, note=62, velocity=126, time=0),
    Message('note_on', channel=7, note=74, velocity=0, time=239),
    Message('note_on', channel=7, note=62, velocity=0, time=0),
    Message('note_on', channel=7, note=74, velocity=126, time=1),
    Message('note_on', channel=7, note=62, velocity=126, time=0),
    Message('note_on', channel=7, note=74, velocity=0, time=239),
    Message('note_on', channel=7, note=62, velocity=0, time=0),
    Message('note_on', channel=7, note=74, velocity=126, time=1),
    Message('note_on', channel=7, note=62, velocity=126, time=0),
    Message('note_on', channel=7, note=74, velocity=0, time=719),
    Message('note_on', channel=7, note=62, velocity=0, time=0),
    Message('note_on', channel=7, note=62, velocity=126, time=961),
    Message('note_on', channel=7, note=62, velocity=0, time=719),
    Message('note_on', channel=7, note=69, velocity=126, time=1),
    Message('note_on', channel=7, note=69, velocity=0, time=719),
    Message('note_on', channel=7, note=67, velocity=126, time=1),
    Message('note_on', channel=7, note=67, velocity=0, time=239),
    Message('note_on', channel=7, note=65, velocity=126, time=1),
    Message('note_on', channel=7, note=65, velocity=0, time=239),
    Message('note_on', channel=7, note=67, velocity=126, time=1),
    Message('note_on', channel=7, note=67, velocity=0, time=719),
    Message('note_on', channel=7, note=69, velocity=126, time=1),
    Message('note_on', channel=7, note=69, velocity=0, time=719),
    Message('note_on', channel=7, note=67, velocity=126, time=1),
    Message('note_on', channel=7, note=67, velocity=0, time=239),
    Message('note_on', channel=7, note=65, velocity=126, time=1),
    Message('note_on', channel=7, note=65, velocity=0, time=239),
    Message('note_on', channel=7, note=67, velocity=126, time=1),
    Message('note_on', channel=7, note=67, velocity=0, time=719),
    Message('note_on', channel=7, note=69, velocity=126, time=1),
    Message('note_on', channel=7, note=69, velocity=0, time=479),
    Message('note_on', channel=7, note=65, velocity=126, time=1),
    Message('note_on', channel=7, note=65, velocity=0, time=239),
    Message('note_on', channel=7, note=64, velocity=126, time=1),
    Message('note_on', channel=7, note=64, velocity=0, time=239),
    Message('note_on', channel=7, note=62, velocity=126, time=1),
    Message('note_on', channel=7, note=62, velocity=0, time=2159),
    Message('note_on', channel=7, note=62, velocity=126, time=1),
    Message('note_on', channel=7, note=62, velocity=0, time=719),
    Message('note_on', channel=7, note=69, velocity=126, time=1),
    Message('note_on', channel=7, note=69, velocity=0, time=719),
    Message('note_on', channel=7, note=67, velocity=126, time=1),
    Message('note_on', channel=7, note=67, velocity=0, time=239),
    Message('note_on', channel=7, note=65, velocity=126, time=1),
    Message('note_on', channel=7, note=65, velocity=0, time=239),
    Message('note_on', channel=7, note=67, velocity=126, time=1),
    Message('note_on', channel=7, note=67, velocity=0, time=719),
    Message('note_on', channel=7, note=69, velocity=126, time=1),
    Message('note_on', channel=7, note=69, velocity=0, time=719),
    Message('note_on', channel=7, note=67, velocity=126, time=1),
    Message('note_on', channel=7, note=67, velocity=0, time=239),
    Message('note_on', channel=7, note=65, velocity=126, time=1),
    Message('note_on', channel=7, note=65, velocity=0, time=239),
    Message('note_on', channel=7, note=67, velocity=126, time=1),
    Message('note_on', channel=7, note=67, velocity=0, time=719),
    Message('note_on', channel=7, note=69, velocity=126, time=1),
    Message('note_on', channel=7, note=69, velocity=0, time=479),
    Message('note_on', channel=7, note=65, velocity=126, time=1),
    Message('note_on', channel=7, note=65, velocity=0, time=239),
    Message('note_on', channel=7, note=64, velocity=126, time=1),
    Message('note_on', channel=7, note=64, velocity=0, time=239),
    Message('note_on', channel=7, note=62, velocity=126, time=1),
    Message('note_on', channel=7, note=62, velocity=0, time=2159),
    Message('note_on', channel=7, note=62, velocity=126, time=1),
    Message('note_on', channel=7, note=62, velocity=0, time=719),
    Message('note_on', channel=7, note=69, velocity=126, time=1),
    Message('note_on', channel=7, note=69, velocity=0, time=719),
    Message('note_on', channel=7, note=67, velocity=126, time=1),
    Message('note_on', channel=7, note=67, velocity=0, time=239),
    Message('note_on', channel=7, note=65, velocity=126, time=1),
    Message('note_on', channel=7, note=65, velocity=0, time=239),
    Message('note_on', channel=7, note=67, velocity=126, time=1),
    Message('note_on', channel=7, note=67, velocity=0, time=719),
    Message('note_on', channel=7, note=69, velocity=126, time=1),
    Message('note_on', channel=7, note=69, velocity=0, time=719),
    Message('note_on', channel=7, note=67, velocity=126, time=1),
    Message('note_on', channel=7, note=67, velocity=0, time=239),
    Message('note_on', channel=7, note=65, velocity=126, time=1),
    Message('note_on', channel=7, note=65, velocity=0, time=239),
    Message('note_on', channel=7, note=67, velocity=126, time=1),
    Message('note_on', channel=7, note=67, velocity=0, time=719),
    Message('note_on', channel=7, note=69, velocity=126, time=1),
    Message('note_on', channel=7, note=69, velocity=0, time=479),
    Message('note_on', channel=7, note=65, velocity=126, time=1),
    Message('note_on', channel=7, note=65, velocity=0, time=239),
    Message('note_on', channel=7, note=64, velocity=126, time=1),
    Message('note_on', channel=7, note=64, velocity=0, time=239),
    Message('note_on', channel=7, note=62, velocity=126, time=1),
    Message('note_on', channel=7, note=62, velocity=0, time=2159),
    MetaMessage('end_of_track', time=1)]),
  MidiTrack([
    MetaMessage('key_signature', key='F', time=0),
    Message('note_on', channel=7, note=57, velocity=96, time=7680),
    Message('note_on', channel=7, note=57, velocity=0, time=719),
    Message('note_on', channel=7, note=57, velocity=96, time=1),
    Message('note_on', channel=7, note=57, velocity=0, time=239),
    Message('note_on', channel=7, note=57, velocity=96, time=1),
    Message('note_on', channel=7, note=57, velocity=0, time=479),
    Message('note_on', channel=7, note=57, velocity=96, time=1),
    Message('note_on', channel=7, note=57, velocity=0, time=719),
    Message('note_on', channel=7, note=57, velocity=96, time=1),
    Message('note_on', channel=7, note=57, velocity=0, time=239),
    Message('note_on', channel=7, note=57, velocity=96, time=1),
    Message('note_on', channel=7, note=57, velocity=0, time=479),
    Message('note_on', channel=7, note=57, velocity=96, time=1),
    Message('note_on', channel=7, note=57, velocity=0, time=239),
    Message('note_on', channel=7, note=57, velocity=96, time=1),
    Message('note_on', channel=7, note=57, velocity=0, time=239),
    Message('note_on', channel=7, note=55, velocity=96, time=1),
    Message('note_on', channel=7, note=55, velocity=0, time=239),
    Message('note_on', channel=7, note=55, velocity=96, time=1),
    Message('note_on', channel=7, note=55, velocity=0, time=239),
    Message('note_on', channel=7, note=57, velocity=96, time=1),
    Message('note_on', channel=7, note=57, velocity=0, time=719),
    Message('note_on', channel=7, note=57, velocity=96, time=1),
    Message('note_on', channel=7, note=57, velocity=0, time=239),
    Message('note_on', channel=7, note=57, velocity=96, time=1),
    Message('note_on', channel=7, note=57, velocity=0, time=479),
    Message('note_on', channel=7, note=57, velocity=96, time=1),
    Message('note_on', channel=7, note=57, velocity=0, time=719),
    Message('note_on', channel=7, note=57, velocity=96, time=1),
    Message('note_on', channel=7, note=57, velocity=0, time=239),
    Message('note_on', channel=7, note=57, velocity=96, time=1),
    Message('note_on', channel=7, note=57, velocity=0, time=479),
    Message('note_on', channel=7, note=57, velocity=96, time=1),
    Message('note_on', channel=7, note=57, velocity=0, time=239),
    Message('note_on', channel=7, note=57, velocity=96, time=1),
    Message('note_on', channel=7, note=57, velocity=0, time=239),
    Message('note_on', channel=7, note=55, velocity=96, time=1),
    Message('note_on', channel=7, note=55, velocity=0, time=239),
    Message('note_on', channel=7, note=55, velocity=96, time=1),
    Message('note_on', channel=7, note=55, velocity=0, time=239),
    Message('note_on', channel=7, note=50, velocity=96, time=1),
    Message('note_on', channel=7, note=50, velocity=0, time=239),
    Message('note_on', channel=7, note=50, velocity=96, time=1),
    Message('note_on', channel=7, note=50, velocity=0, time=239),
    Message('note_on', channel=7, note=50, velocity=96, time=1),
    Message('note_on', channel=7, note=50, velocity=0, time=239),
    Message('note_on', channel=7, note=50, velocity=96, time=1),
    Message('note_on', channel=7, note=50, velocity=0, time=239),
    Message('note_on', channel=7, note=50, velocity=96, time=1),
    Message('note_on', channel=7, note=50, velocity=0, time=239),
    Message('note_on', channel=7, note=50, velocity=96, time=1),
    Message('note_on', channel=7, note=50, velocity=0, time=239),
    Message('note_on', channel=7, note=50, velocity=96, time=1),
    Message('note_on', channel=7, note=50, velocity=0, time=239),
    Message('note_on', channel=7, note=50, velocity=96, time=1),
    Message('note_on', channel=7, note=50, velocity=0, time=239),
    Message('note_on', channel=7, note=50, velocity=96, time=1),
    Message('note_on', channel=7, note=50, velocity=0, time=239),
    Message('note_on', channel=7, note=50, velocity=96, time=1),
    Message('note_on', channel=7, note=50, velocity=0, time=239),
    Message('note_on', channel=7, note=50, velocity=96, time=1),
    Message('note_on', channel=7, note=50, velocity=0, time=239),
    Message('note_on', channel=7, note=50, velocity=96, time=1),
    Message('note_on', channel=7, note=50, velocity=0, time=239),
    Message('note_on', channel=7, note=50, velocity=96, time=1),
    Message('note_on', channel=7, note=50, velocity=0, time=239),
    Message('note_on', channel=7, note=50, velocity=96, time=1),
    Message('note_on', channel=7, note=50, velocity=0, time=239),
    Message('note_on', channel=7, note=50, velocity=96, time=1),
    Message('note_on', channel=7, note=50, velocity=0, time=239),
    Message('note_on', channel=7, note=50, velocity=96, time=1),
    Message('note_on', channel=7, note=50, velocity=0, time=239),
    Message('note_on', channel=7, note=50, velocity=96, time=1),
    Message('note_on', channel=7, note=50, velocity=0, time=239),
    Message('note_on', channel=7, note=50, velocity=96, time=1),
    Message('note_on', channel=7, note=50, velocity=0, time=239),
    Message('note_on', channel=7, note=50, velocity=96, time=1),
    Message('note_on', channel=7, note=50, velocity=0, time=239),
    Message('note_on', channel=7, note=50, velocity=96, time=1),
    Message('note_on', channel=7, note=50, velocity=0, time=239),
    Message('note_on', channel=7, note=50, velocity=96, time=1),
    Message('note_on', channel=7, note=50, velocity=0, time=239),
    Message('note_on', channel=7, note=50, velocity=96, time=1),
    Message('note_on', channel=7, note=50, velocity=0, time=239),
    Message('note_on', channel=7, note=50, velocity=96, time=1),
    Message('note_on', channel=7, note=50, velocity=0, time=239),
    Message('note_on', channel=7, note=50, velocity=96, time=1),
    Message('note_on', channel=7, note=50, velocity=0, time=239),
    Message('note_on', channel=7, note=50, velocity=96, time=1),
    Message('note_on', channel=7, note=50, velocity=0, time=239),
    Message('note_on', channel=7, note=50, velocity=96, time=1),
    Message('note_on', channel=7, note=50, velocity=0, time=239),
    Message('note_on', channel=7, note=50, velocity=96, time=1),
    Message('note_on', channel=7, note=50, velocity=0, time=239),
    Message('note_on', channel=7, note=50, velocity=96, time=1),
    Message('note_on', channel=7, note=50, velocity=0, time=239),
    Message('note_on', channel=7, note=50, velocity=96, time=1),
    Message('note_on', channel=7, note=50, velocity=0, time=239),
    Message('note_on', channel=7, note=50, velocity=96, time=1),
    Message('note_on', channel=7, note=50, velocity=0, time=239),
    Message('note_on', channel=7, note=50, velocity=96, time=1),
    Message('note_on', channel=7, note=50, velocity=0, time=239),
    Message('note_on', channel=7, note=50, velocity=96, time=1),
    Message('note_on', channel=7, note=50, velocity=0, time=239),
    Message('note_on', channel=7, note=50, velocity=96, time=1),
    Message('note_on', channel=7, note=50, velocity=0, time=1919),
    Message('note_on', channel=7, note=57, velocity=126, time=1),
    Message('note_on', channel=7, note=57, velocity=0, time=479),
    Message('note_on', channel=7, note=57, velocity=126, time=1),
    Message('note_on', channel=7, note=57, velocity=0, time=1439),
    Message('note_on', channel=7, note=58, velocity=80, time=1),
    Message('note_on', channel=7, note=58, velocity=0, time=239),
    Message('note_on', channel=7, note=58, velocity=80, time=1),
    Message('note_on', channel=7, note=58, velocity=0, time=239),
    Message('note_on', channel=7, note=58, velocity=80, time=1),
    Message('note_on', channel=7, note=58, velocity=0, time=239),
    Message('note_on', channel=7, note=58, velocity=80, time=1),
    Message('note_on', channel=7, note=58, velocity=0, time=239),
    Message('note_on', channel=7, note=58, velocity=80, time=1),
    Message('note_on', channel=7, note=58, velocity=0, time=239),
    Message('note_on', channel=7, note=58, velocity=80, time=1),
    Message('note_on', channel=7, note=58, velocity=0, time=239),
    Message('note_on', channel=7, note=58, velocity=80, time=1),
    Message('note_on', channel=7, note=58, velocity=0, time=239),
    Message('note_on', channel=7, note=58, velocity=80, time=1),
    Message('note_on', channel=7, note=58, velocity=0, time=239),
    Message('note_on', channel=7, note=53, velocity=126, time=1),
    Message('note_on', channel=7, note=53, velocity=0, time=479),
    Message('note_on', channel=7, note=53, velocity=126, time=1),
    Message('note_on', channel=7, note=53, velocity=0, time=1439),
    Message('note_on', channel=7, note=57, velocity=80, time=1),
    Message('note_on', channel=7, note=57, velocity=0, time=239),
    Message('note_on', channel=7, note=57, velocity=80, time=1),
    Message('note_on', channel=7, note=57, velocity=0, time=239),
    Message('note_on', channel=7, note=50, velocity=80, time=1),
    Message('note_on', channel=7, note=50, velocity=0, time=239),
    Message('note_on', channel=7, note=50, velocity=80, time=1),
    Message('note_on', channel=7, note=50, velocity=0, time=239),
    Message('note_on', channel=7, note=50, velocity=80, time=1),
    Message('note_on', channel=7, note=50, velocity=0, time=239),
    Message('note_on', channel=7, note=50, velocity=80, time=1),
    Message('note_on', channel=7, note=50, velocity=0, time=239),
    Message('note_on', channel=7, note=50, velocity=80, time=1),
    Message('note_on', channel=7, note=50, velocity=0, time=239),
    Message('note_on', channel=7, note=50, velocity=80, time=1),
    Message('note_on', channel=7, note=50, velocity=0, time=239),
    Message('note_on', channel=7, note=50, velocity=80, time=1),
    Message('note_on', channel=7, note=50, velocity=0, time=239),
    Message('note_on', channel=7, note=50, velocity=80, time=1),
    Message('note_on', channel=7, note=50, velocity=0, time=239),
    Message('note_on', channel=7, note=50, velocity=80, time=1),
    Message('note_on', channel=7, note=50, velocity=0, time=239),
    Message('note_on', channel=7, note=50, velocity=80, time=1),
    Message('note_on', channel=7, note=50, velocity=0, time=239),
    Message('note_on', channel=7, note=50, velocity=80, time=1),
    Message('note_on', channel=7, note=50, velocity=0, time=239),
    Message('note_on', channel=7, note=50, velocity=80, time=1),
    Message('note_on', channel=7, note=50, velocity=0, time=239),
    Message('note_on', channel=7, note=50, velocity=80, time=1),
    Message('note_on', channel=7, note=50, velocity=0, time=239),
    Message('note_on', channel=7, note=50, velocity=80, time=1),
    Message('note_on', channel=7, note=50, velocity=0, time=239),
    Message('note_on', channel=7, note=58, velocity=80, time=1),
    Message('note_on', channel=7, note=58, velocity=0, time=239),
    Message('note_on', channel=7, note=58, velocity=80, time=1),
    Message('note_on', channel=7, note=58, velocity=0, time=239),
    Message('note_on', channel=7, note=58, velocity=80, time=1),
    Message('note_on', channel=7, note=58, velocity=0, time=239),
    Message('note_on', channel=7, note=58, velocity=80, time=1),
    Message('note_on', channel=7, note=58, velocity=0, time=239),
    Message('note_on', channel=7, note=58, velocity=80, time=1),
    Message('note_on', channel=7, note=58, velocity=0, time=239),
    Message('note_on', channel=7, note=58, velocity=80, time=1),
    Message('note_on', channel=7, note=58, velocity=0, time=239),
    Message('note_on', channel=7, note=58, velocity=80, time=1),
    Message('note_on', channel=7, note=58, velocity=0, time=239),
    Message('note_on', channel=7, note=58, velocity=80, time=1),
    Message('note_on', channel=7, note=58, velocity=0, time=239),
    Message('note_on', channel=7, note=58, velocity=80, time=1),
    Message('note_on', channel=7, note=58, velocity=0, time=239),
    Message('note_on', channel=7, note=58, velocity=80, time=1),
    Message('note_on', channel=7, note=58, velocity=0, time=239),
    Message('note_on', channel=7, note=58, velocity=80, time=1),
    Message('note_on', channel=7, note=58, velocity=0, time=239),
    Message('note_on', channel=7, note=58, velocity=80, time=1),
    Message('note_on', channel=7, note=58, velocity=0, time=239),
    Message('note_on', channel=7, note=58, velocity=80, time=1),
    Message('note_on', channel=7, note=58, velocity=0, time=239),
    Message('note_on', channel=7, note=58, velocity=80, time=1),
    Message('note_on', channel=7, note=58, velocity=0, time=239),
    Message('note_on', channel=7, note=50, velocity=80, time=1),
    Message('note_on', channel=7, note=50, velocity=0, time=239),
    Message('note_on', channel=7, note=50, velocity=80, time=1),
    Message('note_on', channel=7, note=50, velocity=0, time=239),
    Message('note_on', channel=7, note=50, velocity=80, time=1),
    Message('note_on', channel=7, note=50, velocity=0, time=239),
    Message('note_on', channel=7, note=50, velocity=80, time=1),
    Message('note_on', channel=7, note=50, velocity=0, time=239),
    Message('note_on', channel=7, note=50, velocity=80, time=1),
    Message('note_on', channel=7, note=50, velocity=0, time=239),
    Message('note_on', channel=7, note=50, velocity=80, time=1),
    Message('note_on', channel=7, note=50, velocity=0, time=239),
    Message('note_on', channel=7, note=50, velocity=80, time=1),
    Message('note_on', channel=7, note=50, velocity=0, time=239),
    Message('note_on', channel=7, note=50, velocity=80, time=1),
    Message('note_on', channel=7, note=50, velocity=0, time=239),
    Message('note_on', channel=7, note=50, velocity=80, time=1),
    Message('note_on', channel=7, note=50, velocity=0, time=239),
    Message('note_on', channel=7, note=50, velocity=80, time=1),
    Message('note_on', channel=7, note=50, velocity=0, time=239),
    Message('note_on', channel=7, note=50, velocity=126, time=1),
    Message('note_on', channel=7, note=50, velocity=0, time=479),
    Message('note_on', channel=7, note=50, velocity=126, time=1),
    Message('note_on', channel=7, note=50, velocity=0, time=1439),
    Message('note_on', channel=7, note=53, velocity=80, time=1),
    Message('note_on', channel=7, note=53, velocity=0, time=239),
    Message('note_on', channel=7, note=53, velocity=80, time=1),
    Message('note_on', channel=7, note=53, velocity=0, time=239),
    Message('note_on', channel=7, note=58, velocity=80, time=1),
    Message('note_on', channel=7, note=58, velocity=0, time=239),
    Message('note_on', channel=7, note=58, velocity=80, time=1),
    Message('note_on', channel=7, note=58, velocity=0, time=239),
    Message('note_on', channel=7, note=58, velocity=80, time=1),
    Message('note_on', channel=7, note=58, velocity=0, time=239),
    Message('note_on', channel=7, note=58, velocity=80, time=1),
    Message('note_on', channel=7, note=58, velocity=0, time=239),
    Message('note_on', channel=7, note=58, velocity=80, time=1),
    Message('note_on', channel=7, note=58, velocity=0, time=239),
    Message('note_on', channel=7, note=58, velocity=80, time=1),
    Message('note_on', channel=7, note=58, velocity=0, time=239),
    Message('note_on', channel=7, note=53, velocity=126, time=1),
    Message('note_on', channel=7, note=53, velocity=0, time=479),
    Message('note_on', channel=7, note=53, velocity=126, time=1),
    Message('note_on', channel=7, note=53, velocity=0, time=1439),
    Message('note_on', channel=7, note=50, velocity=80, time=1),
    Message('note_on', channel=7, note=50, velocity=0, time=239),
    Message('note_on', channel=7, note=50, velocity=80, time=1),
    Message('note_on', channel=7, note=50, velocity=0, time=239),
    Message('note_on', channel=7, note=50, velocity=80, time=1),
    Message('note_on', channel=7, note=50, velocity=0, time=239),
    Message('note_on', channel=7, note=50, velocity=80, time=1),
    Message('note_on', channel=7, note=50, velocity=0, time=239),
    Message('note_on', channel=7, note=50, velocity=80, time=1),
    Message('note_on', channel=7, note=50, velocity=0, time=239),
    Message('note_on', channel=7, note=50, velocity=80, time=1),
    Message('note_on', channel=7, note=50, velocity=0, time=239),
    Message('note_on', channel=7, note=50, velocity=80, time=1),
    Message('note_on', channel=7, note=50, velocity=0, time=239),
    Message('note_on', channel=7, note=50, velocity=80, time=1),
    Message('note_on', channel=7, note=50, velocity=0, time=239),
    Message('note_on', channel=7, note=50, velocity=80, time=1),
    Message('note_on', channel=7, note=50, velocity=0, time=239),
    Message('note_on', channel=7, note=50, velocity=80, time=1),
    Message('note_on', channel=7, note=50, velocity=0, time=239),
    Message('note_on', channel=7, note=50, velocity=80, time=1),
    Message('note_on', channel=7, note=50, velocity=0, time=239),
    Message('note_on', channel=7, note=50, velocity=80, time=1),
    Message('note_on', channel=7, note=50, velocity=0, time=239),
    Message('note_on', channel=7, note=50, velocity=80, time=1),
    Message('note_on', channel=7, note=50, velocity=0, time=239),
    Message('note_on', channel=7, note=50, velocity=80, time=1),
    Message('note_on', channel=7, note=50, velocity=0, time=239),
    Message('note_on', channel=7, note=50, velocity=80, time=1),
    Message('note_on', channel=7, note=50, velocity=0, time=239),
    Message('note_on', channel=7, note=50, velocity=80, time=1),
    Message('note_on', channel=7, note=50, velocity=0, time=239),
    Message('note_on', channel=7, note=58, velocity=80, time=1),
    Message('note_on', channel=7, note=58, velocity=0, time=239),
    Message('note_on', channel=7, note=58, velocity=80, time=1),
    Message('note_on', channel=7, note=58, velocity=0, time=239),
    Message('note_on', channel=7, note=58, velocity=80, time=1),
    Message('note_on', channel=7, note=58, velocity=0, time=239),
    Message('note_on', channel=7, note=58, velocity=80, time=1),
    Message('note_on', channel=7, note=58, velocity=0, time=239),
    Message('note_on', channel=7, note=58, velocity=80, time=1),
    Message('note_on', channel=7, note=58, velocity=0, time=239),
    Message('note_on', channel=7, note=58, velocity=80, time=1),
    Message('note_on', channel=7, note=58, velocity=0, time=239),
    Message('note_on', channel=7, note=58, velocity=80, time=1),
    Message('note_on', channel=7, note=58, velocity=0, time=239),
    Message('note_on', channel=7, note=58, velocity=80, time=1),
    Message('note_on', channel=7, note=58, velocity=0, time=239),
    Message('note_on', channel=7, note=58, velocity=80, time=1),
    Message('note_on', channel=7, note=58, velocity=0, time=959),
    Message('note_on', channel=7, note=50, velocity=112, time=1),
    Message('note_on', channel=7, note=50, velocity=0, time=479),
    Message('note_on', channel=7, note=52, velocity=112, time=1),
    Message('note_on', channel=7, note=52, velocity=0, time=479),
    Message('note_on', channel=7, note=53, velocity=112, time=1),
    Message('note_on', channel=7, note=53, velocity=0, time=479),
    Message('note_on', channel=7, note=52, velocity=112, time=1),
    Message('note_on', channel=7, note=52, velocity=0, time=479),
    Message('note_on', channel=7, note=50, velocity=112, time=1),
    Message('note_on', channel=7, note=50, velocity=0, time=479),
    Message('note_on', channel=7, note=53, velocity=112, time=1),
    Message('note_on', channel=7, note=53, velocity=0, time=479),
    Message('note_on', channel=7, note=55, velocity=112, time=1),
    Message('note_on', channel=7, note=55, velocity=0, time=479),
    Message('note_on', channel=7, note=53, velocity=112, time=1),
    Message('note_on', channel=7, note=53, velocity=0, time=479),
    Message('note_on', channel=7, note=52, velocity=112, time=1),
    Message('note_on', channel=7, note=52, velocity=0, time=479),
    Message('note_on', channel=7, note=57, velocity=112, time=1),
    Message('note_on', channel=7, note=57, velocity=0, time=959),
    Message('note_on', channel=7, note=58, velocity=112, time=1),
    Message('note_on', channel=7, note=58, velocity=0, time=239),
    Message('note_on', channel=7, note=57, velocity=112, time=1),
    Message('note_on', channel=7, note=57, velocity=0, time=719),
    Message('note_on', channel=7, note=58, velocity=112, time=1),
    Message('note_on', channel=7, note=58, velocity=0, time=239),
    Message('note_on', channel=7, note=57, velocity=112, time=1),
    Message('note_on', channel=7, note=57, velocity=0, time=719),
    Message('note_on', channel=7, note=60, velocity=126, time=4561),
    Message('note_on', channel=7, note=60, velocity=0, time=239),
    Message('note_on', channel=7, note=60, velocity=126, time=1),
    Message('note_on', channel=7, note=60, velocity=0, time=239),
    Message('note_on', channel=7, note=62, velocity=126, time=1),
    Message('note_on', channel=7, note=62, velocity=0, time=239),
    Message('note_on', channel=7, note=62, velocity=112, time=1),
    Message('note_on', channel=7, note=62, velocity=0, time=479),
    Message('note_on', channel=7, note=62, velocity=112, time=1),
    Message('note_on', channel=7, note=62, velocity=0, time=479),
    Message('note_on', channel=7, note=62, velocity=112, time=481),
    Message('note_on', channel=7, note=62, velocity=0, time=479),
    Message('note_on', channel=7, note=58, velocity=112, time=1),
    Message('note_on', channel=7, note=58, velocity=0, time=479),
    Message('note_on', channel=7, note=58, velocity=112, time=1),
    Message('note_on', channel=7, note=58, velocity=0, time=479),
    Message('note_on', channel=7, note=58, velocity=112, time=481),
    Message('note_on', channel=7, note=58, velocity=0, time=479),
    Message('note_on', channel=7, note=53, velocity=112, time=1),
    Message('note_on', channel=7, note=53, velocity=0, time=479),
    Message('note_on', channel=7, note=53, velocity=112, time=1),
    Message('note_on', channel=7, note=53, velocity=0, time=479),
    Message('note_on', channel=7, note=53, velocity=112, time=481),
    Message('note_on', channel=7, note=53, velocity=0, time=479),
    Message('note_on', channel=7, note=53, velocity=112, time=1),
    Message('note_on', channel=7, note=53, velocity=0, time=479),
    Message('note_on', channel=7, note=53, velocity=112, time=1),
    Message('note_on', channel=7, note=53, velocity=0, time=479),
    Message('note_on', channel=7, note=60, velocity=112, time=1),
    Message('note_on', channel=7, note=60, velocity=0, time=479),
    Message('note_on', channel=7, note=60, velocity=112, time=1),
    Message('note_on', channel=7, note=60, velocity=0, time=479),
    Message('note_on', channel=7, note=62, velocity=112, time=1),
    Message('note_on', channel=7, note=62, velocity=0, time=479),
    Message('note_on', channel=7, note=62, velocity=112, time=1),
    Message('note_on', channel=7, note=62, velocity=0, time=479),
    Message('note_on', channel=7, note=62, velocity=112, time=481),
    Message('note_on', channel=7, note=62, velocity=0, time=479),
    Message('note_on', channel=7, note=58, velocity=112, time=1),
    Message('note_on', channel=7, note=58, velocity=0, time=479),
    Message('note_on', channel=7, note=58, velocity=112, time=1),
    Message('note_on', channel=7, note=58, velocity=0, time=479),
    Message('note_on', channel=7, note=58, velocity=112, time=481),
    Message('note_on', channel=7, note=58, velocity=0, time=479),
    Message('note_on', channel=7, note=53, velocity=112, time=1),
    Message('note_on', channel=7, note=53, velocity=0, time=479),
    Message('note_on', channel=7, note=53, velocity=112, time=1),
    Message('note_on', channel=7, note=53, velocity=0, time=479),
    Message('note_on', channel=7, note=53, velocity=112, time=481),
    Message('note_on', channel=7, note=53, velocity=0, time=479),
    Message('note_on', channel=7, note=53, velocity=112, time=1),
    Message('note_on', channel=7, note=53, velocity=0, time=479),
    Message('note_on', channel=7, note=53, velocity=112, time=1),
    Message('note_on', channel=7, note=53, velocity=0, time=479),
    Message('note_on', channel=7, note=60, velocity=112, time=1),
    Message('note_on', channel=7, note=60, velocity=0, time=479),
    Message('note_on', channel=7, note=60, velocity=112, time=1),
    Message('note_on', channel=7, note=60, velocity=0, time=479),
    Message('note_on', channel=7, note=53, velocity=126, time=1),
    Message('note_on', channel=7, note=53, velocity=0, time=719),
    Message('note_on', channel=7, note=62, velocity=126, time=1),
    Message('note_on', channel=7, note=62, velocity=0, time=719),
    Message('note_on', channel=7, note=55, velocity=126, time=1),
    Message('note_on', channel=7, note=55, velocity=0, time=239),
    Message('note_on', channel=7, note=53, velocity=126, time=1),
    Message('note_on', channel=7, note=53, velocity=0, time=239),
    Message('note_on', channel=7, note=62, velocity=126, time=1),
    Message('note_on', channel=7, note=62, velocity=0, time=719),
    Message('note_on', channel=7, note=62, velocity=126, time=1),
    Message('note_on', channel=7, note=62, velocity=0, time=719),
    Message('note_on', channel=7, note=62, velocity=126, time=1),
    Message('note_on', channel=7, note=62, velocity=0, time=239),
    Message('note_on', channel=7, note=65, velocity=126, time=1),
    Message('note_on', channel=7, note=65, velocity=0, time=239),
    Message('note_on', channel=7, note=60, velocity=126, time=1),
    Message('note_on', channel=7, note=60, velocity=0, time=719),
    Message('note_on', channel=7, note=60, velocity=126, time=1),
    Message('note_on', channel=7, note=60, velocity=0, time=479),
    Message('note_on', channel=7, note=65, velocity=126, time=1),
    Message('note_on', channel=7, note=65, velocity=0, time=239),
    Message('note_on', channel=7, note=62, velocity=126, time=1),
    Message('note_on', channel=7, note=62, velocity=0, time=239),
    Message('note_on', channel=7, note=57, velocity=126, time=1),
    Message('note_on', channel=7, note=57, velocity=0, time=2159),
    Message('note_on', channel=7, note=53, velocity=126, time=1),
    Message('note_on', channel=7, note=53, velocity=0, time=719),
    Message('note_on', channel=7, note=62, velocity=126, time=1),
    Message('note_on', channel=7, note=62, velocity=0, time=719),
    Message('note_on', channel=7, note=55, velocity=126, time=1),
    Message('note_on', channel=7, note=55, velocity=0, time=239),
    Message('note_on', channel=7, note=53, velocity=126, time=1),
    Message('note_on', channel=7, note=53, velocity=0, time=239),
    Message('note_on', channel=7, note=62, velocity=126, time=1),
    Message('note_on', channel=7, note=62, velocity=0, time=719),
    Message('note_on', channel=7, note=62, velocity=126, time=1),
    Message('note_on', channel=7, note=62, velocity=0, time=719),
    Message('note_on', channel=7, note=62, velocity=126, time=1),
    Message('note_on', channel=7, note=62, velocity=0, time=239),
    Message('note_on', channel=7, note=65, velocity=126, time=1),
    Message('note_on', channel=7, note=65, velocity=0, time=239),
    Message('note_on', channel=7, note=60, velocity=126, time=1),
    Message('note_on', channel=7, note=60, velocity=0, time=719),
    Message('note_on', channel=7, note=60, velocity=126, time=1),
    Message('note_on', channel=7, note=60, velocity=0, time=479),
    Message('note_on', channel=7, note=65, velocity=126, time=1),
    Message('note_on', channel=7, note=65, velocity=0, time=239),
    Message('note_on', channel=7, note=62, velocity=126, time=1),
    Message('note_on', channel=7, note=62, velocity=0, time=239),
    Message('note_on', channel=7, note=57, velocity=126, time=1),
    Message('note_on', channel=7, note=57, velocity=0, time=719),
    Message('note_on', channel=7, note=57, velocity=126, time=1),
    Message('note_on', channel=7, note=57, velocity=0, time=239),
    Message('note_on', channel=7, note=57, velocity=126, time=1),
    Message('note_on', channel=7, note=57, velocity=0, time=239),
    Message('note_on', channel=7, note=57, velocity=126, time=1),
    Message('note_on', channel=7, note=57, velocity=0, time=479),
    Message('note_on', channel=7, note=57, velocity=126, time=1),
    Message('note_on', channel=7, note=57, velocity=0, time=479),
    Message('note_on', channel=7, note=57, velocity=126, time=1),
    Message('note_on', channel=7, note=57, velocity=0, time=719),
    Message('note_on', channel=7, note=57, velocity=126, time=1),
    Message('note_on', channel=7, note=57, velocity=0, time=239),
    Message('note_on', channel=7, note=57, velocity=126, time=1),
    Message('note_on', channel=7, note=57, velocity=0, time=479),
    Message('note_on', channel=7, note=57, velocity=126, time=1),
    Message('note_on', channel=7, note=57, velocity=0, time=719),
    Message('note_on', channel=7, note=57, velocity=126, time=1),
    Message('note_on', channel=7, note=57, velocity=0, time=239),
    Message('note_on', channel=7, note=57, velocity=126, time=1),
    Message('note_on', channel=7, note=57, velocity=0, time=479),
    Message('note_on', channel=7, note=57, velocity=126, time=1),
    Message('note_on', channel=7, note=57, velocity=0, time=239),
    Message('note_on', channel=7, note=57, velocity=126, time=1),
    Message('note_on', channel=7, note=57, velocity=0, time=239),
    Message('note_on', channel=7, note=55, velocity=126, time=1),
    Message('note_on', channel=7, note=55, velocity=0, time=239),
    Message('note_on', channel=7, note=55, velocity=126, time=1),
    Message('note_on', channel=7, note=55, velocity=0, time=239),
    Message('note_on', channel=7, note=57, velocity=126, time=1),
    Message('note_on', channel=7, note=57, velocity=0, time=719),
    Message('note_on', channel=7, note=57, velocity=126, time=1),
    Message('note_on', channel=7, note=57, velocity=0, time=239),
    Message('note_on', channel=7, note=57, velocity=126, time=1),
    Message('note_on', channel=7, note=57, velocity=0, time=479),
    Message('note_on', channel=7, note=57, velocity=126, time=1),
    Message('note_on', channel=7, note=57, velocity=0, time=719),
    Message('note_on', channel=7, note=57, velocity=126, time=1),
    Message('note_on', channel=7, note=57, velocity=0, time=239),
    Message('note_on', channel=7, note=57, velocity=126, time=1),
    Message('note_on', channel=7, note=57, velocity=0, time=479),
    Message('note_on', channel=7, note=57, velocity=126, time=1),
    Message('note_on', channel=7, note=57, velocity=0, time=239),
    Message('note_on', channel=7, note=57, velocity=126, time=1),
    Message('note_on', channel=7, note=57, velocity=0, time=239),
    Message('note_on', channel=7, note=55, velocity=126, time=1),
    Message('note_on', channel=7, note=55, velocity=0, time=239),
    Message('note_on', channel=7, note=55, velocity=126, time=1),
    Message('note_on', channel=7, note=55, velocity=0, time=239),
    Message('note_on', channel=7, note=50, velocity=126, time=1),
    Message('note_on', channel=7, note=50, velocity=0, time=719),
    Message('note_on', channel=7, note=57, velocity=126, time=1),
    Message('note_on', channel=7, note=57, velocity=0, time=719),
    Message('note_on', channel=7, note=55, velocity=126, time=1),
    Message('note_on', channel=7, note=55, velocity=0, time=239),
    Message('note_on', channel=7, note=53, velocity=126, time=1),
    Message('note_on', channel=7, note=53, velocity=0, time=239),
    Message('note_on', channel=7, note=55, velocity=126, time=1),
    Message('note_on', channel=7, note=55, velocity=0, time=719),
    Message('note_on', channel=7, note=57, velocity=126, time=1),
    Message('note_on', channel=7, note=57, velocity=0, time=719),
    Message('note_on', channel=7, note=55, velocity=126, time=1),
    Message('note_on', channel=7, note=55, velocity=0, time=239),
    Message('note_on', channel=7, note=53, velocity=126, time=1),
    Message('note_on', channel=7, note=53, velocity=0, time=239),
    Message('note_on', channel=7, note=55, velocity=126, time=1),
    Message('note_on', channel=7, note=55, velocity=0, time=719),
    Message('note_on', channel=7, note=57, velocity=126, time=1),
    Message('note_on', channel=7, note=57, velocity=0, time=479),
    Message('note_on', channel=7, note=53, velocity=126, time=1),
    Message('note_on', channel=7, note=53, velocity=0, time=239),
    Message('note_on', channel=7, note=52, velocity=126, time=1),
    Message('note_on', channel=7, note=52, velocity=0, time=239),
    Message('note_on', channel=7, note=50, velocity=126, time=1),
    Message('note_on', channel=7, note=50, velocity=0, time=2159),
    Message('note_on', channel=7, note=50, velocity=126, time=1),
    Message('note_on', channel=7, note=50, velocity=0, time=719),
    Message('note_on', channel=7, note=57, velocity=126, time=1),
    Message('note_on', channel=7, note=57, velocity=0, time=719),
    Message('note_on', channel=7, note=55, velocity=126, time=1),
    Message('note_on', channel=7, note=55, velocity=0, time=239),
    Message('note_on', channel=7, note=53, velocity=126, time=1),
    Message('note_on', channel=7, note=53, velocity=0, time=239),
    Message('note_on', channel=7, note=55, velocity=126, time=1),
    Message('note_on', channel=7, note=55, velocity=0, time=719),
    Message('note_on', channel=7, note=57, velocity=126, time=1),
    Message('note_on', channel=7, note=57, velocity=0, time=719),
    Message('note_on', channel=7, note=55, velocity=126, time=1),
    Message('note_on', channel=7, note=55, velocity=0, time=239),
    Message('note_on', channel=7, note=53, velocity=126, time=1),
    Message('note_on', channel=7, note=53, velocity=0, time=239),
    Message('note_on', channel=7, note=55, velocity=126, time=1),
    Message('note_on', channel=7, note=55, velocity=0, time=719),
    Message('note_on', channel=7, note=57, velocity=126, time=1),
    Message('note_on', channel=7, note=57, velocity=0, time=479),
    Message('note_on', channel=7, note=53, velocity=126, time=1),
    Message('note_on', channel=7, note=53, velocity=0, time=239),
    Message('note_on', channel=7, note=52, velocity=126, time=1),
    Message('note_on', channel=7, note=52, velocity=0, time=239),
    Message('note_on', channel=7, note=50, velocity=126, time=1),
    Message('note_on', channel=7, note=50, velocity=0, time=2159),
    Message('note_on', channel=7, note=60, velocity=126, time=1201),
    Message('note_on', channel=7, note=60, velocity=0, time=239),
    Message('note_on', channel=7, note=60, velocity=126, time=1),
    Message('note_on', channel=7, note=60, velocity=0, time=239),
    Message('note_on', channel=7, note=62, velocity=126, time=1),
    Message('note_on', channel=7, note=62, velocity=0, time=239),
    Message('note_on', channel=7, note=62, velocity=126, time=1),
    Message('note_on', channel=7, note=62, velocity=0, time=479),
    Message('note_on', channel=7, note=62, velocity=126, time=1),
    Message('note_on', channel=7, note=62, velocity=0, time=479),
    Message('note_on', channel=7, note=62, velocity=126, time=481),
    Message('note_on', channel=7, note=62, velocity=0, time=479),
    Message('note_on', channel=7, note=58, velocity=126, time=1),
    Message('note_on', channel=7, note=58, velocity=0, time=479),
    Message('note_on', channel=7, note=58, velocity=126, time=1),
    Message('note_on', channel=7, note=58, velocity=0, time=479),
    Message('note_on', channel=7, note=58, velocity=126, time=481),
    Message('note_on', channel=7, note=58, velocity=0, time=479),
    Message('note_on', channel=7, note=53, velocity=126, time=1),
    Message('note_on', channel=7, note=53, velocity=0, time=479),
    Message('note_on', channel=7, note=53, velocity=126, time=1),
    Message('note_on', channel=7, note=53, velocity=0, time=479),
    Message('note_on', channel=7, note=53, velocity=126, time=481),
    Message('note_on', channel=7, note=53, velocity=0, time=479),
    Message('note_on', channel=7, note=53, velocity=126, time=1),
    Message('note_on', channel=7, note=53, velocity=0, time=479),
    Message('note_on', channel=7, note=53, velocity=126, time=1),
    Message('note_on', channel=7, note=53, velocity=0, time=479),
    Message('note_on', channel=7, note=60, velocity=126, time=1),
    Message('note_on', channel=7, note=60, velocity=0, time=479),
    Message('note_on', channel=7, note=60, velocity=126, time=1),
    Message('note_on', channel=7, note=60, velocity=0, time=479),
    Message('note_on', channel=7, note=62, velocity=126, time=1),
    Message('note_on', channel=7, note=62, velocity=0, time=479),
    Message('note_on', channel=7, note=62, velocity=126, time=1),
    Message('note_on', channel=7, note=62, velocity=0, time=479),
    Message('note_on', channel=7, note=62, velocity=126, time=481),
    Message('note_on', channel=7, note=62, velocity=0, time=479),
    Message('note_on', channel=7, note=58, velocity=126, time=1),
    Message('note_on', channel=7, note=58, velocity=0, time=479),
    Message('note_on', channel=7, note=58, velocity=126, time=1),
    Message('note_on', channel=7, note=58, velocity=0, time=479),
    Message('note_on', channel=7, note=58, velocity=126, time=481),
    Message('note_on', channel=7, note=58, velocity=0, time=479),
    Message('note_on', channel=7, note=53, velocity=126, time=1),
    Message('note_on', channel=7, note=53, velocity=0, time=479),
    Message('note_on', channel=7, note=53, velocity=126, time=1),
    Message('note_on', channel=7, note=53, velocity=0, time=479),
    Message('note_on', channel=7, note=53, velocity=126, time=481),
    Message('note_on', channel=7, note=53, velocity=0, time=479),
    Message('note_on', channel=7, note=53, velocity=126, time=1),
    Message('note_on', channel=7, note=53, velocity=0, time=479),
    Message('note_on', channel=7, note=53, velocity=126, time=1),
    Message('note_on', channel=7, note=53, velocity=0, time=479),
    Message('note_on', channel=7, note=60, velocity=126, time=1),
    Message('note_on', channel=7, note=60, velocity=0, time=479),
    Message('note_on', channel=7, note=60, velocity=126, time=1),
    Message('note_on', channel=7, note=60, velocity=0, time=479),
    Message('note_on', channel=7, note=53, velocity=126, time=1),
    Message('note_on', channel=7, note=53, velocity=0, time=719),
    Message('note_on', channel=7, note=62, velocity=126, time=1),
    Message('note_on', channel=7, note=62, velocity=0, time=719),
    Message('note_on', channel=7, note=55, velocity=126, time=1),
    Message('note_on', channel=7, note=55, velocity=0, time=239),
    Message('note_on', channel=7, note=53, velocity=126, time=1),
    Message('note_on', channel=7, note=53, velocity=0, time=239),
    Message('note_on', channel=7, note=62, velocity=126, time=1),
    Message('note_on', channel=7, note=62, velocity=0, time=719),
    Message('note_on', channel=7, note=62, velocity=126, time=1),
    Message('note_on', channel=7, note=62, velocity=0, time=719),
    Message('note_on', channel=7, note=62, velocity=126, time=1),
    Message('note_on', channel=7, note=62, velocity=0, time=239),
    Message('note_on', channel=7, note=65, velocity=126, time=1),
    Message('note_on', channel=7, note=65, velocity=0, time=239),
    Message('note_on', channel=7, note=60, velocity=126, time=1),
    Message('note_on', channel=7, note=60, velocity=0, time=719),
    Message('note_on', channel=7, note=60, velocity=126, time=1),
    Message('note_on', channel=7, note=60, velocity=0, time=479),
    Message('note_on', channel=7, note=65, velocity=126, time=1),
    Message('note_on', channel=7, note=65, velocity=0, time=239),
    Message('note_on', channel=7, note=62, velocity=126, time=1),
    Message('note_on', channel=7, note=62, velocity=0, time=239),
    Message('note_on', channel=7, note=57, velocity=126, time=1),
    Message('note_on', channel=7, note=57, velocity=0, time=2159),
    Message('note_on', channel=7, note=53, velocity=126, time=1),
    Message('note_on', channel=7, note=53, velocity=0, time=719),
    Message('note_on', channel=7, note=62, velocity=126, time=1),
    Message('note_on', channel=7, note=62, velocity=0, time=719),
    Message('note_on', channel=7, note=55, velocity=126, time=1),
    Message('note_on', channel=7, note=55, velocity=0, time=239),
    Message('note_on', channel=7, note=53, velocity=126, time=1),
    Message('note_on', channel=7, note=53, velocity=0, time=239),
    Message('note_on', channel=7, note=62, velocity=126, time=1),
    Message('note_on', channel=7, note=62, velocity=0, time=719),
    Message('note_on', channel=7, note=62, velocity=126, time=1),
    Message('note_on', channel=7, note=62, velocity=0, time=719),
    Message('note_on', channel=7, note=62, velocity=126, time=1),
    Message('note_on', channel=7, note=62, velocity=0, time=239),
    Message('note_on', channel=7, note=65, velocity=126, time=1),
    Message('note_on', channel=7, note=65, velocity=0, time=239),
    Message('note_on', channel=7, note=60, velocity=126, time=1),
    Message('note_on', channel=7, note=60, velocity=0, time=719),
    Message('note_on', channel=7, note=60, velocity=126, time=1),
    Message('note_on', channel=7, note=60, velocity=0, time=479),
    Message('note_on', channel=7, note=65, velocity=126, time=1),
    Message('note_on', channel=7, note=65, velocity=0, time=239),
    Message('note_on', channel=7, note=62, velocity=126, time=1),
    Message('note_on', channel=7, note=62, velocity=0, time=239),
    Message('note_on', channel=7, note=57, velocity=126, time=1),
    Message('note_on', channel=7, note=57, velocity=0, time=719),
    Message('note_on', channel=7, note=57, velocity=126, time=1),
    Message('note_on', channel=7, note=57, velocity=0, time=239),
    Message('note_on', channel=7, note=57, velocity=126, time=1),
    Message('note_on', channel=7, note=57, velocity=0, time=239),
    Message('note_on', channel=7, note=57, velocity=126, time=1),
    Message('note_on', channel=7, note=57, velocity=0, time=479),
    Message('note_on', channel=7, note=57, velocity=126, time=1),
    Message('note_on', channel=7, note=57, velocity=0, time=479),
    MetaMessage('end_of_track', time=1)]),
  MidiTrack([
    MetaMessage('key_signature', key='F', time=0),
    Message('program_change', channel=8, program=58, time=0),
    Message('note_on', channel=8, note=57, velocity=80, time=0),
    Message('control_change', channel=8, control=7, value=100, time=2),
    Message('control_change', channel=8, control=10, value=64, time=2),
    Message('control_change', channel=8, control=91, value=30, time=2),
    Message('control_change', channel=8, control=93, value=30, time=2),
    Message('note_on', channel=8, note=57, velocity=0, time=711),
    Message('note_on', channel=8, note=57, velocity=80, time=1),
    Message('note_on', channel=8, note=57, velocity=0, time=239),
    Message('note_on', channel=8, note=57, velocity=80, time=1),
    Message('note_on', channel=8, note=57, velocity=0, time=479),
    Message('note_on', channel=8, note=57, velocity=80, time=1),
    Message('note_on', channel=8, note=57, velocity=0, time=719),
    Message('note_on', channel=8, note=57, velocity=80, time=1),
    Message('note_on', channel=8, note=57, velocity=0, time=239),
    Message('note_on', channel=8, note=57, velocity=80, time=1),
    Message('note_on', channel=8, note=57, velocity=0, time=479),
    Message('note_on', channel=8, note=57, velocity=80, time=1),
    Message('note_on', channel=8, note=57, velocity=0, time=239),
    Message('note_on', channel=8, note=57, velocity=80, time=1),
    Message('note_on', channel=8, note=57, velocity=0, time=239),
    Message('note_on', channel=8, note=55, velocity=80, time=1),
    Message('note_on', channel=8, note=55, velocity=0, time=239),
    Message('note_on', channel=8, note=55, velocity=80, time=1),
    Message('note_on', channel=8, note=55, velocity=0, time=239),
    Message('note_on', channel=8, note=57, velocity=80, time=1),
    Message('note_on', channel=8, note=57, velocity=0, time=719),
    Message('note_on', channel=8, note=57, velocity=80, time=1),
    Message('note_on', channel=8, note=57, velocity=0, time=239),
    Message('note_on', channel=8, note=57, velocity=80, time=1),
    Message('note_on', channel=8, note=57, velocity=0, time=479),
    Message('note_on', channel=8, note=57, velocity=80, time=1),
    Message('note_on', channel=8, note=57, velocity=0, time=719),
    Message('note_on', channel=8, note=57, velocity=80, time=1),
    Message('note_on', channel=8, note=57, velocity=0, time=239),
    Message('note_on', channel=8, note=57, velocity=80, time=1),
    Message('note_on', channel=8, note=57, velocity=0, time=479),
    Message('note_on', channel=8, note=57, velocity=80, time=1),
    Message('note_on', channel=8, note=57, velocity=0, time=239),
    Message('note_on', channel=8, note=57, velocity=80, time=1),
    Message('note_on', channel=8, note=57, velocity=0, time=239),
    Message('note_on', channel=8, note=55, velocity=80, time=1),
    Message('note_on', channel=8, note=55, velocity=0, time=239),
    Message('note_on', channel=8, note=55, velocity=80, time=1),
    Message('note_on', channel=8, note=55, velocity=0, time=239),
    Message('note_on', channel=8, note=45, velocity=96, time=1),
    Message('note_on', channel=8, note=45, velocity=0, time=719),
    Message('note_on', channel=8, note=50, velocity=96, time=1),
    Message('note_on', channel=8, note=50, velocity=0, time=719),
    Message('note_on', channel=8, note=50, velocity=96, time=1),
    Message('note_on', channel=8, note=50, velocity=0, time=239),
    Message('note_on', channel=8, note=53, velocity=96, time=1),
    Message('note_on', channel=8, note=53, velocity=0, time=239),
    Message('note_on', channel=8, note=50, velocity=96, time=1),
    Message('note_on', channel=8, note=50, velocity=0, time=719),
    Message('note_on', channel=8, note=50, velocity=96, time=1),
    Message('note_on', channel=8, note=50, velocity=0, time=719),
    Message('note_on', channel=8, note=50, velocity=96, time=1),
    Message('note_on', channel=8, note=50, velocity=0, time=239),
    Message('note_on', channel=8, note=53, velocity=96, time=1),
    Message('note_on', channel=8, note=53, velocity=0, time=239),
    Message('note_on', channel=8, note=50, velocity=96, time=1),
    Message('note_on', channel=8, note=50, velocity=0, time=719),
    Message('note_on', channel=8, note=50, velocity=96, time=1),
    Message('note_on', channel=8, note=50, velocity=0, time=479),
    Message('note_on', channel=8, note=53, velocity=96, time=1),
    Message('note_on', channel=8, note=53, velocity=0, time=239),
    Message('note_on', channel=8, note=52, velocity=96, time=1),
    Message('note_on', channel=8, note=52, velocity=0, time=239),
    Message('note_on', channel=8, note=50, velocity=96, time=1),
    Message('note_on', channel=8, note=50, velocity=0, time=2159),
    Message('note_on', channel=8, note=45, velocity=96, time=1),
    Message('note_on', channel=8, note=45, velocity=0, time=719),
    Message('note_on', channel=8, note=50, velocity=96, time=1),
    Message('note_on', channel=8, note=50, velocity=0, time=719),
    Message('note_on', channel=8, note=50, velocity=96, time=1),
    Message('note_on', channel=8, note=50, velocity=0, time=239),
    Message('note_on', channel=8, note=53, velocity=96, time=1),
    Message('note_on', channel=8, note=53, velocity=0, time=239),
    Message('note_on', channel=8, note=50, velocity=96, time=1),
    Message('note_on', channel=8, note=50, velocity=0, time=719),
    Message('note_on', channel=8, note=50, velocity=96, time=1),
    Message('note_on', channel=8, note=50, velocity=0, time=719),
    Message('note_on', channel=8, note=50, velocity=96, time=1),
    Message('note_on', channel=8, note=50, velocity=0, time=239),
    Message('note_on', channel=8, note=53, velocity=96, time=1),
    Message('note_on', channel=8, note=53, velocity=0, time=239),
    Message('note_on', channel=8, note=50, velocity=96, time=1),
    Message('note_on', channel=8, note=50, velocity=0, time=719),
    Message('note_on', channel=8, note=50, velocity=96, time=1),
    Message('note_on', channel=8, note=50, velocity=0, time=479),
    Message('note_on', channel=8, note=53, velocity=96, time=1),
    Message('note_on', channel=8, note=53, velocity=0, time=239),
    Message('note_on', channel=8, note=52, velocity=96, time=1),
    Message('note_on', channel=8, note=52, velocity=0, time=239),
    Message('note_on', channel=8, note=62, velocity=96, time=1),
    Message('note_on', channel=8, note=62, velocity=0, time=2159),
    Message('note_on', channel=8, note=62, velocity=96, time=1),
    Message('note_on', channel=8, note=62, velocity=0, time=1919),
    Message('note_on', channel=8, note=62, velocity=126, time=1),
    Message('note_on', channel=8, note=62, velocity=0, time=479),
    Message('note_on', channel=8, note=62, velocity=126, time=1),
    Message('note_on', channel=8, note=62, velocity=0, time=1439),
    Message('note_on', channel=8, note=58, velocity=126, time=1921),
    Message('note_on', channel=8, note=58, velocity=0, time=479),
    Message('note_on', channel=8, note=58, velocity=126, time=1),
    Message('note_on', channel=8, note=58, velocity=0, time=1439),
    Message('note_on', channel=8, note=57, velocity=126, time=9601),
    Message('note_on', channel=8, note=57, velocity=0, time=479),
    Message('note_on', channel=8, note=57, velocity=126, time=1),
    Message('note_on', channel=8, note=57, velocity=0, time=1439),
    Message('note_on', channel=8, note=58, velocity=126, time=1921),
    Message('note_on', channel=8, note=58, velocity=0, time=479),
    Message('note_on', channel=8, note=58, velocity=126, time=1),
    Message('note_on', channel=8, note=58, velocity=0, time=1439),
    Message('note_on', channel=8, note=62, velocity=80, time=5761),
    Message('note_on', channel=8, note=62, velocity=0, time=959),
    Message('note_on', channel=8, note=62, velocity=112, time=1),
    Message('note_on', channel=8, note=62, velocity=0, time=479),
    Message('note_on', channel=8, note=64, velocity=112, time=1),
    Message('note_on', channel=8, note=64, velocity=0, time=479),
    Message('note_on', channel=8, note=65, velocity=112, time=1),
    Message('note_on', channel=8, note=65, velocity=0, time=479),
    Message('note_on', channel=8, note=64, velocity=112, time=1),
    Message('note_on', channel=8, note=64, velocity=0, time=479),
    Message('note_on', channel=8, note=62, velocity=112, time=1),
    Message('note_on', channel=8, note=62, velocity=0, time=479),
    Message('note_on', channel=8, note=65, velocity=112, time=1),
    Message('note_on', channel=8, note=65, velocity=0, time=479),
    Message('note_on', channel=8, note=67, velocity=112, time=1),
    Message('note_on', channel=8, note=67, velocity=0, time=479),
    Message('note_on', channel=8, note=65, velocity=112, time=1),
    Message('note_on', channel=8, note=65, velocity=0, time=479),
    Message('note_on', channel=8, note=64, velocity=112, time=1),
    Message('note_on', channel=8, note=64, velocity=0, time=479),
    Message('note_on', channel=8, note=69, velocity=112, time=1),
    Message('note_on', channel=8, note=69, velocity=0, time=959),
    Message('note_on', channel=8, note=70, velocity=112, time=1),
    Message('note_on', channel=8, note=70, velocity=0, time=239),
    Message('note_on', channel=8, note=69, velocity=112, time=1),
    Message('note_on', channel=8, note=69, velocity=0, time=719),
    Message('note_on', channel=8, note=70, velocity=112, time=1),
    Message('note_on', channel=8, note=70, velocity=0, time=239),
    Message('note_on', channel=8, note=69, velocity=112, time=1),
    Message('note_on', channel=8, note=69, velocity=0, time=719),
    Message('note_on', channel=8, note=60, velocity=126, time=4561),
    Message('note_on', channel=8, note=60, velocity=0, time=239),
    Message('note_on', channel=8, note=60, velocity=126, time=1),
    Message('note_on', channel=8, note=60, velocity=0, time=239),
    Message('note_on', channel=8, note=62, velocity=126, time=1),
    Message('note_on', channel=8, note=62, velocity=0, time=239),
    Message('note_on', channel=8, note=62, velocity=112, time=1),
    Message('note_on', channel=8, note=62, velocity=0, time=479),
    Message('note_on', channel=8, note=62, velocity=112, time=1),
    Message('note_on', channel=8, note=62, velocity=0, time=479),
    Message('note_on', channel=8, note=62, velocity=112, time=1),
    Message('note_on', channel=8, note=62, velocity=0, time=239),
    Message('note_on', channel=8, note=53, velocity=112, time=1),
    Message('note_on', channel=8, note=53, velocity=0, time=239),
    Message('note_on', channel=8, note=60, velocity=112, time=1),
    Message('note_on', channel=8, note=60, velocity=0, time=239),
    Message('note_on', channel=8, note=62, velocity=112, time=1),
    Message('note_on', channel=8, note=62, velocity=0, time=239),
    Message('note_on', channel=8, note=62, velocity=112, time=1),
    Message('note_on', channel=8, note=62, velocity=0, time=479),
    Message('note_on', channel=8, note=62, velocity=112, time=1),
    Message('note_on', channel=8, note=62, velocity=0, time=479),
    Message('note_on', channel=8, note=62, velocity=112, time=1),
    Message('note_on', channel=8, note=62, velocity=0, time=239),
    Message('note_on', channel=8, note=57, velocity=112, time=1),
    Message('note_on', channel=8, note=57, velocity=0, time=239),
    Message('note_on', channel=8, note=60, velocity=112, time=1),
    Message('note_on', channel=8, note=60, velocity=0, time=239),
    Message('note_on', channel=8, note=62, velocity=112, time=1),
    Message('note_on', channel=8, note=62, velocity=0, time=239),
    Message('note_on', channel=8, note=62, velocity=112, time=1),
    Message('note_on', channel=8, note=62, velocity=0, time=479),
    Message('note_on', channel=8, note=62, velocity=112, time=1),
    Message('note_on', channel=8, note=62, velocity=0, time=479),
    Message('note_on', channel=8, note=62, velocity=112, time=1),
    Message('note_on', channel=8, note=62, velocity=0, time=239),
    Message('note_on', channel=8, note=57, velocity=112, time=1921),
    Message('note_on', channel=8, note=57, velocity=0, time=239),
    Message('note_on', channel=8, note=60, velocity=112, time=1),
    Message('note_on', channel=8, note=60, velocity=0, time=239),
    Message('note_on', channel=8, note=62, velocity=112, time=1),
    Message('note_on', channel=8, note=62, velocity=0, time=239),
    Message('note_on', channel=8, note=62, velocity=112, time=1),
    Message('note_on', channel=8, note=62, velocity=0, time=479),
    Message('note_on', channel=8, note=62, velocity=112, time=1),
    Message('note_on', channel=8, note=62, velocity=0, time=479),
    Message('note_on', channel=8, note=62, velocity=112, time=1),
    Message('note_on', channel=8, note=62, velocity=0, time=239),
    Message('note_on', channel=8, note=53, velocity=112, time=1),
    Message('note_on', channel=8, note=53, velocity=0, time=239),
    Message('note_on', channel=8, note=60, velocity=112, time=1),
    Message('note_on', channel=8, note=60, velocity=0, time=239),
    Message('note_on', channel=8, note=62, velocity=112, time=1),
    Message('note_on', channel=8, note=62, velocity=0, time=239),
    Message('note_on', channel=8, note=62, velocity=112, time=1),
    Message('note_on', channel=8, note=62, velocity=0, time=479),
    Message('note_on', channel=8, note=62, velocity=112, time=1),
    Message('note_on', channel=8, note=62, velocity=0, time=479),
    Message('note_on', channel=8, note=62, velocity=112, time=1),
    Message('note_on', channel=8, note=62, velocity=0, time=239),
    Message('note_on', channel=8, note=57, velocity=112, time=1),
    Message('note_on', channel=8, note=57, velocity=0, time=239),
    Message('note_on', channel=8, note=60, velocity=112, time=1),
    Message('note_on', channel=8, note=60, velocity=0, time=239),
    Message('note_on', channel=8, note=62, velocity=112, time=1),
    Message('note_on', channel=8, note=62, velocity=0, time=239),
    Message('note_on', channel=8, note=62, velocity=112, time=1),
    Message('note_on', channel=8, note=62, velocity=0, time=479),
    Message('note_on', channel=8, note=62, velocity=112, time=1),
    Message('note_on', channel=8, note=62, velocity=0, time=479),
    Message('note_on', channel=8, note=62, velocity=112, time=1),
    Message('note_on', channel=8, note=62, velocity=0, time=239),
    Message('note_on', channel=8, note=62, velocity=126, time=2641),
    Message('note_on', channel=8, note=62, velocity=0, time=719),
    Message('note_on', channel=8, note=57, velocity=126, time=1),
    Message('note_on', channel=8, note=57, velocity=0, time=719),
    Message('note_on', channel=8, note=55, velocity=126, time=1),
    Message('note_on', channel=8, note=55, velocity=0, time=239),
    Message('note_on', channel=8, note=53, velocity=126, time=1),
    Message('note_on', channel=8, note=53, velocity=0, time=239),
    Message('note_on', channel=8, note=55, velocity=126, time=1),
    Message('note_on', channel=8, note=55, velocity=0, time=719),
    Message('note_on', channel=8, note=57, velocity=126, time=1),
    Message('note_on', channel=8, note=57, velocity=0, time=719),
    Message('note_on', channel=8, note=55, velocity=126, time=1),
    Message('note_on', channel=8, note=55, velocity=0, time=239),
    Message('note_on', channel=8, note=53, velocity=126, time=1),
    Message('note_on', channel=8, note=53, velocity=0, time=239),
    Message('note_on', channel=8, note=55, velocity=126, time=1),
    Message('note_on', channel=8, note=55, velocity=0, time=719),
    Message('note_on', channel=8, note=57, velocity=126, time=1),
    Message('note_on', channel=8, note=57, velocity=0, time=479),
    Message('note_on', channel=8, note=53, velocity=126, time=1),
    Message('note_on', channel=8, note=53, velocity=0, time=239),
    Message('note_on', channel=8, note=52, velocity=126, time=1),
    Message('note_on', channel=8, note=52, velocity=0, time=239),
    Message('note_on', channel=8, note=50, velocity=126, time=1),
    Message('note_on', channel=8, note=50, velocity=0, time=2159),
    Message('note_on', channel=8, note=62, velocity=126, time=1),
    Message('note_on', channel=8, note=62, velocity=0, time=719),
    Message('note_on', channel=8, note=57, velocity=126, time=1),
    Message('note_on', channel=8, note=57, velocity=0, time=719),
    Message('note_on', channel=8, note=55, velocity=126, time=1),
    Message('note_on', channel=8, note=55, velocity=0, time=239),
    Message('note_on', channel=8, note=53, velocity=126, time=1),
    Message('note_on', channel=8, note=53, velocity=0, time=239),
    Message('note_on', channel=8, note=55, velocity=126, time=1),
    Message('note_on', channel=8, note=55, velocity=0, time=719),
    Message('note_on', channel=8, note=57, velocity=126, time=1),
    Message('note_on', channel=8, note=57, velocity=0, time=719),
    Message('note_on', channel=8, note=55, velocity=126, time=1),
    Message('note_on', channel=8, note=55, velocity=0, time=239),
    Message('note_on', channel=8, note=53, velocity=126, time=1),
    Message('note_on', channel=8, note=53, velocity=0, time=239),
    Message('note_on', channel=8, note=55, velocity=126, time=1),
    Message('note_on', channel=8, note=55, velocity=0, time=719),
    Message('note_on', channel=8, note=57, velocity=126, time=1),
    Message('note_on', channel=8, note=57, velocity=0, time=479),
    Message('note_on', channel=8, note=53, velocity=126, time=1),
    Message('note_on', channel=8, note=53, velocity=0, time=239),
    Message('note_on', channel=8, note=52, velocity=126, time=1),
    Message('note_on', channel=8, note=52, velocity=0, time=239),
    Message('note_on', channel=8, note=50, velocity=126, time=1),
    Message('note_on', channel=8, note=50, velocity=0, time=2159),
    Message('note_on', channel=8, note=50, velocity=126, time=6721),
    Message('note_on', channel=8, note=50, velocity=0, time=479),
    Message('note_on', channel=8, note=52, velocity=126, time=1),
    Message('note_on', channel=8, note=52, velocity=0, time=479),
    Message('note_on', channel=8, note=53, velocity=126, time=1),
    Message('note_on', channel=8, note=53, velocity=0, time=479),
    Message('note_on', channel=8, note=52, velocity=126, time=1),
    Message('note_on', channel=8, note=52, velocity=0, time=479),
    Message('note_on', channel=8, note=50, velocity=126, time=1),
    Message('note_on', channel=8, note=50, velocity=0, time=479),
    Message('note_on', channel=8, note=53, velocity=126, time=1),
    Message('note_on', channel=8, note=53, velocity=0, time=479),
    Message('note_on', channel=8, note=55, velocity=126, time=1),
    Message('note_on', channel=8, note=55, velocity=0, time=479),
    Message('note_on', channel=8, note=53, velocity=126, time=1),
    Message('note_on', channel=8, note=53, velocity=0, time=479),
    Message('note_on', channel=8, note=52, velocity=126, time=1),
    Message('note_on', channel=8, note=52, velocity=0, time=479),
    Message('note_on', channel=8, note=57, velocity=126, time=1),
    Message('note_on', channel=8, note=57, velocity=0, time=10559),
    Message('note_on', channel=8, note=57, velocity=126, time=1),
    Message('note_on', channel=8, note=57, velocity=0, time=479),
    Message('note_on', channel=8, note=57, velocity=126, time=1),
    Message('note_on', channel=8, note=57, velocity=0, time=479),
    Message('note_on', channel=8, note=57, velocity=126, time=1),
    Message('note_on', channel=8, note=57, velocity=0, time=479),
    Message('note_on', channel=8, note=60, velocity=126, time=1201),
    Message('note_on', channel=8, note=60, velocity=0, time=239),
    Message('note_on', channel=8, note=60, velocity=126, time=1),
    Message('note_on', channel=8, note=60, velocity=0, time=239),
    Message('note_on', channel=8, note=62, velocity=126, time=1),
    Message('note_on', channel=8, note=62, velocity=0, time=239),
    Message('note_on', channel=8, note=62, velocity=126, time=1),
    Message('note_on', channel=8, note=62, velocity=0, time=479),
    Message('note_on', channel=8, note=62, velocity=126, time=1),
    Message('note_on', channel=8, note=62, velocity=0, time=479),
    Message('note_on', channel=8, note=62, velocity=126, time=1),
    Message('note_on', channel=8, note=62, velocity=0, time=239),
    Message('note_on', channel=8, note=53, velocity=126, time=1),
    Message('note_on', channel=8, note=53, velocity=0, time=239),
    Message('note_on', channel=8, note=60, velocity=126, time=1),
    Message('note_on', channel=8, note=60, velocity=0, time=239),
    Message('note_on', channel=8, note=62, velocity=126, time=1),
    Message('note_on', channel=8, note=62, velocity=0, time=239),
    Message('note_on', channel=8, note=62, velocity=126, time=1),
    Message('note_on', channel=8, note=62, velocity=0, time=479),
    Message('note_on', channel=8, note=62, velocity=126, time=1),
    Message('note_on', channel=8, note=62, velocity=0, time=479),
    Message('note_on', channel=8, note=62, velocity=126, time=1),
    Message('note_on', channel=8, note=62, velocity=0, time=239),
    Message('note_on', channel=8, note=57, velocity=126, time=1),
    Message('note_on', channel=8, note=57, velocity=0, time=239),
    Message('note_on', channel=8, note=60, velocity=126, time=1),
    Message('note_on', channel=8, note=60, velocity=0, time=239),
    Message('note_on', channel=8, note=62, velocity=126, time=1),
    Message('note_on', channel=8, note=62, velocity=0, time=239),
    Message('note_on', channel=8, note=62, velocity=126, time=1),
    Message('note_on', channel=8, note=62, velocity=0, time=479),
    Message('note_on', channel=8, note=62, velocity=126, time=1),
    Message('note_on', channel=8, note=62, velocity=0, time=479),
    Message('note_on', channel=8, note=62, velocity=126, time=1),
    Message('note_on', channel=8, note=62, velocity=0, time=239),
    Message('note_on', channel=8, note=57, velocity=126, time=1921),
    Message('note_on', channel=8, note=57, velocity=0, time=239),
    Message('note_on', channel=8, note=60, velocity=126, time=1),
    Message('note_on', channel=8, note=60, velocity=0, time=239),
    Message('note_on', channel=8, note=62, velocity=126, time=1),
    Message('note_on', channel=8, note=62, velocity=0, time=239),
    Message('note_on', channel=8, note=62, velocity=126, time=1),
    Message('note_on', channel=8, note=62, velocity=0, time=479),
    Message('note_on', channel=8, note=62, velocity=126, time=1),
    Message('note_on', channel=8, note=62, velocity=0, time=479),
    Message('note_on', channel=8, note=62, velocity=126, time=1),
    Message('note_on', channel=8, note=62, velocity=0, time=239),
    Message('note_on', channel=8, note=53, velocity=126, time=1),
    Message('note_on', channel=8, note=53, velocity=0, time=239),
    Message('note_on', channel=8, note=60, velocity=126, time=1),
    Message('note_on', channel=8, note=60, velocity=0, time=239),
    Message('note_on', channel=8, note=62, velocity=126, time=1),
    Message('note_on', channel=8, note=62, velocity=0, time=239),
    Message('note_on', channel=8, note=62, velocity=126, time=1),
    Message('note_on', channel=8, note=62, velocity=0, time=479),
    Message('note_on', channel=8, note=62, velocity=126, time=1),
    Message('note_on', channel=8, note=62, velocity=0, time=479),
    Message('note_on', channel=8, note=62, velocity=126, time=1),
    Message('note_on', channel=8, note=62, velocity=0, time=239),
    Message('note_on', channel=8, note=57, velocity=126, time=1),
    Message('note_on', channel=8, note=57, velocity=0, time=239),
    Message('note_on', channel=8, note=60, velocity=126, time=1),
    Message('note_on', channel=8, note=60, velocity=0, time=239),
    Message('note_on', channel=8, note=62, velocity=126, time=1),
    Message('note_on', channel=8, note=62, velocity=0, time=239),
    Message('note_on', channel=8, note=62, velocity=126, time=1),
    Message('note_on', channel=8, note=62, velocity=0, time=479),
    Message('note_on', channel=8, note=62, velocity=126, time=1),
    Message('note_on', channel=8, note=62, velocity=0, time=479),
    Message('note_on', channel=8, note=62, velocity=126, time=1),
    Message('note_on', channel=8, note=62, velocity=0, time=239),
    Message('note_on', channel=8, note=62, velocity=126, time=2641),
    Message('note_on', channel=8, note=62, velocity=0, time=719),
    Message('note_on', channel=8, note=57, velocity=126, time=1),
    Message('note_on', channel=8, note=57, velocity=0, time=719),
    Message('note_on', channel=8, note=55, velocity=126, time=1),
    Message('note_on', channel=8, note=55, velocity=0, time=239),
    Message('note_on', channel=8, note=53, velocity=126, time=1),
    Message('note_on', channel=8, note=53, velocity=0, time=239),
    Message('note_on', channel=8, note=55, velocity=126, time=1),
    Message('note_on', channel=8, note=55, velocity=0, time=719),
    Message('note_on', channel=8, note=57, velocity=126, time=1),
    Message('note_on', channel=8, note=57, velocity=0, time=719),
    Message('note_on', channel=8, note=55, velocity=126, time=1),
    Message('note_on', channel=8, note=55, velocity=0, time=239),
    Message('note_on', channel=8, note=53, velocity=126, time=1),
    Message('note_on', channel=8, note=53, velocity=0, time=239),
    Message('note_on', channel=8, note=55, velocity=126, time=1),
    Message('note_on', channel=8, note=55, velocity=0, time=719),
    Message('note_on', channel=8, note=57, velocity=126, time=1),
    Message('note_on', channel=8, note=57, velocity=0, time=479),
    Message('note_on', channel=8, note=53, velocity=126, time=1),
    Message('note_on', channel=8, note=53, velocity=0, time=239),
    Message('note_on', channel=8, note=52, velocity=126, time=1),
    Message('note_on', channel=8, note=52, velocity=0, time=239),
    Message('note_on', channel=8, note=50, velocity=126, time=1),
    Message('note_on', channel=8, note=50, velocity=0, time=2159),
    Message('note_on', channel=8, note=62, velocity=126, time=1),
    Message('note_on', channel=8, note=62, velocity=0, time=719),
    Message('note_on', channel=8, note=57, velocity=126, time=1),
    Message('note_on', channel=8, note=57, velocity=0, time=719),
    Message('note_on', channel=8, note=55, velocity=126, time=1),
    Message('note_on', channel=8, note=55, velocity=0, time=239),
    Message('note_on', channel=8, note=53, velocity=126, time=1),
    Message('note_on', channel=8, note=53, velocity=0, time=239),
    Message('note_on', channel=8, note=55, velocity=126, time=1),
    Message('note_on', channel=8, note=55, velocity=0, time=719),
    Message('note_on', channel=8, note=57, velocity=126, time=1),
    Message('note_on', channel=8, note=57, velocity=0, time=719),
    Message('note_on', channel=8, note=55, velocity=126, time=1),
    Message('note_on', channel=8, note=55, velocity=0, time=239),
    Message('note_on', channel=8, note=53, velocity=126, time=1),
    Message('note_on', channel=8, note=53, velocity=0, time=239),
    Message('note_on', channel=8, note=55, velocity=126, time=1),
    Message('note_on', channel=8, note=55, velocity=0, time=719),
    Message('note_on', channel=8, note=57, velocity=126, time=1),
    Message('note_on', channel=8, note=57, velocity=0, time=479),
    Message('note_on', channel=8, note=53, velocity=126, time=1),
    Message('note_on', channel=8, note=53, velocity=0, time=239),
    Message('note_on', channel=8, note=52, velocity=126, time=1),
    Message('note_on', channel=8, note=52, velocity=0, time=239),
    Message('note_on', channel=8, note=50, velocity=126, time=1),
    Message('note_on', channel=8, note=50, velocity=0, time=2159),
    Message('note_on', channel=8, note=53, velocity=126, time=1),
    Message('note_on', channel=8, note=53, velocity=0, time=719),
    Message('note_on', channel=8, note=62, velocity=126, time=1),
    Message('note_on', channel=8, note=62, velocity=0, time=719),
    Message('note_on', channel=8, note=55, velocity=126, time=1),
    Message('note_on', channel=8, note=55, velocity=0, time=239),
    Message('note_on', channel=8, note=53, velocity=126, time=1),
    Message('note_on', channel=8, note=53, velocity=0, time=239),
    Message('note_on', channel=8, note=62, velocity=126, time=1),
    Message('note_on', channel=8, note=62, velocity=0, time=719),
    Message('note_on', channel=8, note=62, velocity=126, time=1),
    Message('note_on', channel=8, note=62, velocity=0, time=719),
    Message('note_on', channel=8, note=62, velocity=126, time=1),
    Message('note_on', channel=8, note=62, velocity=0, time=239),
    Message('note_on', channel=8, note=65, velocity=126, time=1),
    Message('note_on', channel=8, note=65, velocity=0, time=239),
    Message('note_on', channel=8, note=60, velocity=126, time=1),
    Message('note_on', channel=8, note=60, velocity=0, time=719),
    Message('note_on', channel=8, note=60, velocity=126, time=1),
    Message('note_on', channel=8, note=60, velocity=0, time=479),
    Message('note_on', channel=8, note=65, velocity=126, time=1),
    Message('note_on', channel=8, note=65, velocity=0, time=239),
    Message('note_on', channel=8, note=62, velocity=126, time=1),
    Message('note_on', channel=8, note=62, velocity=0, time=239),
    Message('note_on', channel=8, note=57, velocity=126, time=1),
    Message('note_on', channel=8, note=57, velocity=0, time=2159),
    MetaMessage('end_of_track', time=1)]),
  MidiTrack([
    MetaMessage('key_signature', key='F', time=0),
    Message('note_on', channel=8, note=57, velocity=96, time=7680),
    Message('note_on', channel=8, note=57, velocity=0, time=719),
    Message('note_on', channel=8, note=57, velocity=96, time=1),
    Message('note_on', channel=8, note=57, velocity=0, time=239),
    Message('note_on', channel=8, note=57, velocity=96, time=1),
    Message('note_on', channel=8, note=57, velocity=0, time=479),
    Message('note_on', channel=8, note=57, velocity=96, time=1),
    Message('note_on', channel=8, note=57, velocity=0, time=719),
    Message('note_on', channel=8, note=57, velocity=96, time=1),
    Message('note_on', channel=8, note=57, velocity=0, time=239),
    Message('note_on', channel=8, note=57, velocity=96, time=1),
    Message('note_on', channel=8, note=57, velocity=0, time=479),
    Message('note_on', channel=8, note=57, velocity=96, time=1),
    Message('note_on', channel=8, note=57, velocity=0, time=239),
    Message('note_on', channel=8, note=57, velocity=96, time=1),
    Message('note_on', channel=8, note=57, velocity=0, time=239),
    Message('note_on', channel=8, note=55, velocity=96, time=1),
    Message('note_on', channel=8, note=55, velocity=0, time=239),
    Message('note_on', channel=8, note=55, velocity=96, time=1),
    Message('note_on', channel=8, note=55, velocity=0, time=239),
    Message('note_on', channel=8, note=57, velocity=96, time=1),
    Message('note_on', channel=8, note=57, velocity=0, time=719),
    Message('note_on', channel=8, note=57, velocity=96, time=1),
    Message('note_on', channel=8, note=57, velocity=0, time=239),
    Message('note_on', channel=8, note=57, velocity=96, time=1),
    Message('note_on', channel=8, note=57, velocity=0, time=479),
    Message('note_on', channel=8, note=57, velocity=96, time=1),
    Message('note_on', channel=8, note=57, velocity=0, time=719),
    Message('note_on', channel=8, note=57, velocity=96, time=1),
    Message('note_on', channel=8, note=57, velocity=0, time=239),
    Message('note_on', channel=8, note=57, velocity=96, time=1),
    Message('note_on', channel=8, note=57, velocity=0, time=479),
    Message('note_on', channel=8, note=57, velocity=96, time=1),
    Message('note_on', channel=8, note=57, velocity=0, time=239),
    Message('note_on', channel=8, note=57, velocity=96, time=1),
    Message('note_on', channel=8, note=57, velocity=0, time=239),
    Message('note_on', channel=8, note=55, velocity=96, time=1),
    Message('note_on', channel=8, note=55, velocity=0, time=239),
    Message('note_on', channel=8, note=55, velocity=96, time=1),
    Message('note_on', channel=8, note=55, velocity=0, time=239),
    Message('note_on', channel=8, note=57, velocity=96, time=1),
    Message('note_on', channel=8, note=57, velocity=0, time=719),
    Message('note_on', channel=8, note=57, velocity=96, time=1),
    Message('note_on', channel=8, note=57, velocity=0, time=239),
    Message('note_on', channel=8, note=57, velocity=96, time=1),
    Message('note_on', channel=8, note=57, velocity=0, time=479),
    Message('note_on', channel=8, note=57, velocity=96, time=1),
    Message('note_on', channel=8, note=57, velocity=0, time=719),
    Message('note_on', channel=8, note=57, velocity=96, time=1),
    Message('note_on', channel=8, note=57, velocity=0, time=239),
    Message('note_on', channel=8, note=57, velocity=96, time=1),
    Message('note_on', channel=8, note=57, velocity=0, time=479),
    Message('note_on', channel=8, note=57, velocity=96, time=1),
    Message('note_on', channel=8, note=57, velocity=0, time=239),
    Message('note_on', channel=8, note=57, velocity=96, time=1),
    Message('note_on', channel=8, note=57, velocity=0, time=239),
    Message('note_on', channel=8, note=55, velocity=96, time=1),
    Message('note_on', channel=8, note=55, velocity=0, time=239),
    Message('note_on', channel=8, note=55, velocity=96, time=1),
    Message('note_on', channel=8, note=55, velocity=0, time=239),
    Message('note_on', channel=8, note=57, velocity=96, time=1),
    Message('note_on', channel=8, note=57, velocity=0, time=719),
    Message('note_on', channel=8, note=57, velocity=96, time=1),
    Message('note_on', channel=8, note=57, velocity=0, time=239),
    Message('note_on', channel=8, note=57, velocity=96, time=1),
    Message('note_on', channel=8, note=57, velocity=0, time=479),
    Message('note_on', channel=8, note=57, velocity=96, time=1),
    Message('note_on', channel=8, note=57, velocity=0, time=719),
    Message('note_on', channel=8, note=57, velocity=96, time=1),
    Message('note_on', channel=8, note=57, velocity=0, time=239),
    Message('note_on', channel=8, note=57, velocity=96, time=1),
    Message('note_on', channel=8, note=57, velocity=0, time=479),
    Message('note_on', channel=8, note=57, velocity=96, time=1),
    Message('note_on', channel=8, note=57, velocity=0, time=239),
    Message('note_on', channel=8, note=57, velocity=96, time=1),
    Message('note_on', channel=8, note=57, velocity=0, time=239),
    Message('note_on', channel=8, note=55, velocity=96, time=1),
    Message('note_on', channel=8, note=55, velocity=0, time=239),
    Message('note_on', channel=8, note=55, velocity=96, time=1),
    Message('note_on', channel=8, note=55, velocity=0, time=239),
    Message('note_on', channel=8, note=50, velocity=96, time=1),
    Message('note_on', channel=8, note=50, velocity=0, time=1919),
    Message('note_on', channel=8, note=57, velocity=126, time=1),
    Message('note_on', channel=8, note=57, velocity=0, time=479),
    Message('note_on', channel=8, note=57, velocity=126, time=1),
    Message('note_on', channel=8, note=57, velocity=0, time=1439),
    Message('note_on', channel=8, note=53, velocity=80, time=1),
    Message('note_on', channel=8, note=53, velocity=0, time=239),
    Message('note_on', channel=8, note=53, velocity=80, time=1),
    Message('note_on', channel=8, note=53, velocity=0, time=239),
    Message('note_on', channel=8, note=58, velocity=80, time=1),
    Message('note_on', channel=8, note=58, velocity=0, time=239),
    Message('note_on', channel=8, note=58, velocity=80, time=1),
    Message('note_on', channel=8, note=58, velocity=0, time=239),
    Message('note_on', channel=8, note=58, velocity=80, time=1),
    Message('note_on', channel=8, note=58, velocity=0, time=239),
    Message('note_on', channel=8, note=58, velocity=80, time=1),
    Message('note_on', channel=8, note=58, velocity=0, time=239),
    Message('note_on', channel=8, note=58, velocity=80, time=1),
    Message('note_on', channel=8, note=58, velocity=0, time=239),
    Message('note_on', channel=8, note=58, velocity=80, time=1),
    Message('note_on', channel=8, note=58, velocity=0, time=239),
    Message('note_on', channel=8, note=53, velocity=126, time=1),
    Message('note_on', channel=8, note=53, velocity=0, time=479),
    Message('note_on', channel=8, note=53, velocity=126, time=1),
    Message('note_on', channel=8, note=53, velocity=0, time=1439),
    Message('note_on', channel=8, note=57, velocity=80, time=1),
    Message('note_on', channel=8, note=57, velocity=0, time=239),
    Message('note_on', channel=8, note=57, velocity=80, time=1),
    Message('note_on', channel=8, note=57, velocity=0, time=239),
    Message('note_on', channel=8, note=50, velocity=80, time=1),
    Message('note_on', channel=8, note=50, velocity=0, time=239),
    Message('note_on', channel=8, note=50, velocity=80, time=1),
    Message('note_on', channel=8, note=50, velocity=0, time=239),
    Message('note_on', channel=8, note=50, velocity=80, time=1),
    Message('note_on', channel=8, note=50, velocity=0, time=239),
    Message('note_on', channel=8, note=50, velocity=80, time=1),
    Message('note_on', channel=8, note=50, velocity=0, time=239),
    Message('note_on', channel=8, note=50, velocity=80, time=1),
    Message('note_on', channel=8, note=50, velocity=0, time=239),
    Message('note_on', channel=8, note=50, velocity=80, time=1),
    Message('note_on', channel=8, note=50, velocity=0, time=239),
    Message('note_on', channel=8, note=50, velocity=80, time=1),
    Message('note_on', channel=8, note=50, velocity=0, time=239),
    Message('note_on', channel=8, note=50, velocity=80, time=1),
    Message('note_on', channel=8, note=50, velocity=0, time=239),
    Message('note_on', channel=8, note=50, velocity=80, time=1),
    Message('note_on', channel=8, note=50, velocity=0, time=239),
    Message('note_on', channel=8, note=50, velocity=80, time=1),
    Message('note_on', channel=8, note=50, velocity=0, time=239),
    Message('note_on', channel=8, note=50, velocity=80, time=1),
    Message('note_on', channel=8, note=50, velocity=0, time=239),
    Message('note_on', channel=8, note=50, velocity=80, time=1),
    Message('note_on', channel=8, note=50, velocity=0, time=239),
    Message('note_on', channel=8, note=50, velocity=80, time=1),
    Message('note_on', channel=8, note=50, velocity=0, time=239),
    Message('note_on', channel=8, note=50, velocity=80, time=1),
    Message('note_on', channel=8, note=50, velocity=0, time=239),
    Message('note_on', channel=8, note=58, velocity=80, time=1),
    Message('note_on', channel=8, note=58, velocity=0, time=239),
    Message('note_on', channel=8, note=58, velocity=80, time=1),
    Message('note_on', channel=8, note=58, velocity=0, time=239),
    Message('note_on', channel=8, note=58, velocity=80, time=1),
    Message('note_on', channel=8, note=58, velocity=0, time=239),
    Message('note_on', channel=8, note=58, velocity=80, time=1),
    Message('note_on', channel=8, note=58, velocity=0, time=239),
    Message('note_on', channel=8, note=58, velocity=80, time=1),
    Message('note_on', channel=8, note=58, velocity=0, time=239),
    Message('note_on', channel=8, note=58, velocity=80, time=1),
    Message('note_on', channel=8, note=58, velocity=0, time=239),
    Message('note_on', channel=8, note=58, velocity=80, time=1),
    Message('note_on', channel=8, note=58, velocity=0, time=239),
    Message('note_on', channel=8, note=58, velocity=80, time=1),
    Message('note_on', channel=8, note=58, velocity=0, time=239),
    Message('note_on', channel=8, note=58, velocity=80, time=1),
    Message('note_on', channel=8, note=58, velocity=0, time=239),
    Message('note_on', channel=8, note=58, velocity=80, time=1),
    Message('note_on', channel=8, note=58, velocity=0, time=239),
    Message('note_on', channel=8, note=58, velocity=80, time=1),
    Message('note_on', channel=8, note=58, velocity=0, time=239),
    Message('note_on', channel=8, note=58, velocity=80, time=1),
    Message('note_on', channel=8, note=58, velocity=0, time=239),
    Message('note_on', channel=8, note=58, velocity=80, time=1),
    Message('note_on', channel=8, note=58, velocity=0, time=239),
    Message('note_on', channel=8, note=58, velocity=80, time=1),
    Message('note_on', channel=8, note=58, velocity=0, time=239),
    Message('note_on', channel=8, note=50, velocity=80, time=1),
    Message('note_on', channel=8, note=50, velocity=0, time=239),
    Message('note_on', channel=8, note=50, velocity=80, time=1),
    Message('note_on', channel=8, note=50, velocity=0, time=239),
    Message('note_on', channel=8, note=57, velocity=126, time=1),
    Message('note_on', channel=8, note=57, velocity=0, time=239),
    Message('note_on', channel=8, note=57, velocity=126, time=1),
    Message('note_on', channel=8, note=57, velocity=0, time=239),
    Message('note_on', channel=8, note=57, velocity=126, time=1),
    Message('note_on', channel=8, note=57, velocity=0, time=239),
    Message('note_on', channel=8, note=57, velocity=126, time=1),
    Message('note_on', channel=8, note=57, velocity=0, time=239),
    Message('note_on', channel=8, note=57, velocity=126, time=1),
    Message('note_on', channel=8, note=57, velocity=0, time=239),
    Message('note_on', channel=8, note=57, velocity=126, time=1),
    Message('note_on', channel=8, note=57, velocity=0, time=239),
    Message('note_on', channel=8, note=57, velocity=126, time=1),
    Message('note_on', channel=8, note=57, velocity=0, time=239),
    Message('note_on', channel=8, note=57, velocity=126, time=1),
    Message('note_on', channel=8, note=57, velocity=0, time=239),
    Message('note_on', channel=8, note=57, velocity=126, time=1),
    Message('note_on', channel=8, note=57, velocity=0, time=479),
    Message('note_on', channel=8, note=57, velocity=126, time=1),
    Message('note_on', channel=8, note=57, velocity=0, time=1439),
    Message('note_on', channel=8, note=58, velocity=80, time=1),
    Message('note_on', channel=8, note=58, velocity=0, time=239),
    Message('note_on', channel=8, note=58, velocity=80, time=1),
    Message('note_on', channel=8, note=58, velocity=0, time=239),
    Message('note_on', channel=8, note=58, velocity=80, time=1),
    Message('note_on', channel=8, note=58, velocity=0, time=239),
    Message('note_on', channel=8, note=58, velocity=80, time=1),
    Message('note_on', channel=8, note=58, velocity=0, time=239),
    Message('note_on', channel=8, note=58, velocity=80, time=1),
    Message('note_on', channel=8, note=58, velocity=0, time=239),
    Message('note_on', channel=8, note=58, velocity=80, time=1),
    Message('note_on', channel=8, note=58, velocity=0, time=239),
    Message('note_on', channel=8, note=58, velocity=80, time=1),
    Message('note_on', channel=8, note=58, velocity=0, time=239),
    Message('note_on', channel=8, note=58, velocity=80, time=1),
    Message('note_on', channel=8, note=58, velocity=0, time=239),
    Message('note_on', channel=8, note=58, velocity=126, time=1),
    Message('note_on', channel=8, note=58, velocity=0, time=479),
    Message('note_on', channel=8, note=58, velocity=126, time=1),
    Message('note_on', channel=8, note=58, velocity=0, time=1439),
    Message('note_on', channel=8, note=50, velocity=80, time=1),
    Message('note_on', channel=8, note=50, velocity=0, time=239),
    Message('note_on', channel=8, note=50, velocity=80, time=1),
    Message('note_on', channel=8, note=50, velocity=0, time=239),
    Message('note_on', channel=8, note=50, velocity=80, time=1),
    Message('note_on', channel=8, note=50, velocity=0, time=239),
    Message('note_on', channel=8, note=50, velocity=80, time=1),
    Message('note_on', channel=8, note=50, velocity=0, time=239),
    Message('note_on', channel=8, note=50, velocity=80, time=1),
    Message('note_on', channel=8, note=50, velocity=0, time=239),
    Message('note_on', channel=8, note=50, velocity=80, time=1),
    Message('note_on', channel=8, note=50, velocity=0, time=239),
    Message('note_on', channel=8, note=50, velocity=80, time=1),
    Message('note_on', channel=8, note=50, velocity=0, time=239),
    Message('note_on', channel=8, note=50, velocity=80, time=1),
    Message('note_on', channel=8, note=50, velocity=0, time=239),
    Message('note_on', channel=8, note=50, velocity=80, time=1),
    Message('note_on', channel=8, note=50, velocity=0, time=239),
    Message('note_on', channel=8, note=50, velocity=80, time=1),
    Message('note_on', channel=8, note=50, velocity=0, time=239),
    Message('note_on', channel=8, note=50, velocity=80, time=1),
    Message('note_on', channel=8, note=50, velocity=0, time=239),
    Message('note_on', channel=8, note=50, velocity=80, time=1),
    Message('note_on', channel=8, note=50, velocity=0, time=239),
    Message('note_on', channel=8, note=50, velocity=80, time=1),
    Message('note_on', channel=8, note=50, velocity=0, time=239),
    Message('note_on', channel=8, note=50, velocity=80, time=1),
    Message('note_on', channel=8, note=50, velocity=0, time=239),
    Message('note_on', channel=8, note=50, velocity=80, time=1),
    Message('note_on', channel=8, note=50, velocity=0, time=239),
    Message('note_on', channel=8, note=50, velocity=80, time=1),
    Message('note_on', channel=8, note=50, velocity=0, time=239),
    Message('note_on', channel=8, note=58, velocity=80, time=1),
    Message('note_on', channel=8, note=58, velocity=0, time=239),
    Message('note_on', channel=8, note=58, velocity=80, time=1),
    Message('note_on', channel=8, note=58, velocity=0, time=239),
    Message('note_on', channel=8, note=58, velocity=80, time=1),
    Message('note_on', channel=8, note=58, velocity=0, time=239),
    Message('note_on', channel=8, note=58, velocity=80, time=1),
    Message('note_on', channel=8, note=58, velocity=0, time=239),
    Message('note_on', channel=8, note=58, velocity=80, time=1),
    Message('note_on', channel=8, note=58, velocity=0, time=239),
    Message('note_on', channel=8, note=58, velocity=80, time=1),
    Message('note_on', channel=8, note=58, velocity=0, time=239),
    Message('note_on', channel=8, note=58, velocity=80, time=1),
    Message('note_on', channel=8, note=58, velocity=0, time=239),
    Message('note_on', channel=8, note=58, velocity=80, time=1),
    Message('note_on', channel=8, note=58, velocity=0, time=239),
    Message('note_on', channel=8, note=58, velocity=80, time=1),
    Message('note_on', channel=8, note=58, velocity=0, time=959),
    Message('note_on', channel=8, note=50, velocity=112, time=1),
    Message('note_on', channel=8, note=50, velocity=0, time=479),
    Message('note_on', channel=8, note=52, velocity=112, time=1),
    Message('note_on', channel=8, note=52, velocity=0, time=479),
    Message('note_on', channel=8, note=53, velocity=112, time=1),
    Message('note_on', channel=8, note=53, velocity=0, time=479),
    Message('note_on', channel=8, note=52, velocity=112, time=1),
    Message('note_on', channel=8, note=52, velocity=0, time=479),
    Message('note_on', channel=8, note=50, velocity=112, time=1),
    Message('note_on', channel=8, note=50, velocity=0, time=479),
    Message('note_on', channel=8, note=53, velocity=112, time=1),
    Message('note_on', channel=8, note=53, velocity=0, time=479),
    Message('note_on', channel=8, note=55, velocity=112, time=1),
    Message('note_on', channel=8, note=55, velocity=0, time=479),
    Message('note_on', channel=8, note=53, velocity=112, time=1),
    Message('note_on', channel=8, note=53, velocity=0, time=479),
    Message('note_on', channel=8, note=52, velocity=112, time=1),
    Message('note_on', channel=8, note=52, velocity=0, time=479),
    Message('note_on', channel=8, note=57, velocity=112, time=1),
    Message('note_on', channel=8, note=57, velocity=0, time=959),
    Message('note_on', channel=8, note=58, velocity=112, time=1),
    Message('note_on', channel=8, note=58, velocity=0, time=239),
    Message('note_on', channel=8, note=57, velocity=112, time=1),
    Message('note_on', channel=8, note=57, velocity=0, time=719),
    Message('note_on', channel=8, note=58, velocity=112, time=1),
    Message('note_on', channel=8, note=58, velocity=0, time=239),
    Message('note_on', channel=8, note=57, velocity=112, time=1),
    Message('note_on', channel=8, note=57, velocity=0, time=719),
    Message('note_on', channel=8, note=60, velocity=126, time=4561),
    Message('note_on', channel=8, note=60, velocity=0, time=239),
    Message('note_on', channel=8, note=60, velocity=126, time=1),
    Message('note_on', channel=8, note=60, velocity=0, time=239),
    Message('note_on', channel=8, note=62, velocity=126, time=1),
    Message('note_on', channel=8, note=62, velocity=0, time=239),
    Message('note_on', channel=8, note=62, velocity=112, time=1),
    Message('note_on', channel=8, note=62, velocity=0, time=479),
    Message('note_on', channel=8, note=62, velocity=112, time=1),
    Message('note_on', channel=8, note=62, velocity=0, time=479),
    Message('note_on', channel=8, note=62, velocity=112, time=481),
    Message('note_on', channel=8, note=62, velocity=0, time=479),
    Message('note_on', channel=8, note=58, velocity=112, time=1),
    Message('note_on', channel=8, note=58, velocity=0, time=479),
    Message('note_on', channel=8, note=58, velocity=112, time=1),
    Message('note_on', channel=8, note=58, velocity=0, time=479),
    Message('note_on', channel=8, note=58, velocity=112, time=481),
    Message('note_on', channel=8, note=58, velocity=0, time=479),
    Message('note_on', channel=8, note=53, velocity=112, time=1),
    Message('note_on', channel=8, note=53, velocity=0, time=479),
    Message('note_on', channel=8, note=53, velocity=112, time=1),
    Message('note_on', channel=8, note=53, velocity=0, time=479),
    Message('note_on', channel=8, note=53, velocity=112, time=481),
    Message('note_on', channel=8, note=53, velocity=0, time=479),
    Message('note_on', channel=8, note=53, velocity=112, time=1),
    Message('note_on', channel=8, note=53, velocity=0, time=479),
    Message('note_on', channel=8, note=53, velocity=112, time=1),
    Message('note_on', channel=8, note=53, velocity=0, time=479),
    Message('note_on', channel=8, note=60, velocity=112, time=1),
    Message('note_on', channel=8, note=60, velocity=0, time=479),
    Message('note_on', channel=8, note=60, velocity=112, time=1),
    Message('note_on', channel=8, note=60, velocity=0, time=479),
    Message('note_on', channel=8, note=62, velocity=112, time=1),
    Message('note_on', channel=8, note=62, velocity=0, time=479),
    Message('note_on', channel=8, note=62, velocity=112, time=1),
    Message('note_on', channel=8, note=62, velocity=0, time=479),
    Message('note_on', channel=8, note=62, velocity=112, time=481),
    Message('note_on', channel=8, note=62, velocity=0, time=479),
    Message('note_on', channel=8, note=58, velocity=112, time=1),
    Message('note_on', channel=8, note=58, velocity=0, time=479),
    Message('note_on', channel=8, note=58, velocity=112, time=1),
    Message('note_on', channel=8, note=58, velocity=0, time=479),
    Message('note_on', channel=8, note=58, velocity=112, time=481),
    Message('note_on', channel=8, note=58, velocity=0, time=479),
    Message('note_on', channel=8, note=53, velocity=112, time=1),
    Message('note_on', channel=8, note=53, velocity=0, time=479),
    Message('note_on', channel=8, note=53, velocity=112, time=1),
    Message('note_on', channel=8, note=53, velocity=0, time=479),
    Message('note_on', channel=8, note=53, velocity=112, time=481),
    Message('note_on', channel=8, note=53, velocity=0, time=479),
    Message('note_on', channel=8, note=53, velocity=112, time=1),
    Message('note_on', channel=8, note=53, velocity=0, time=479),
    Message('note_on', channel=8, note=53, velocity=112, time=1),
    Message('note_on', channel=8, note=53, velocity=0, time=479),
    Message('note_on', channel=8, note=60, velocity=112, time=1),
    Message('note_on', channel=8, note=60, velocity=0, time=479),
    Message('note_on', channel=8, note=60, velocity=126, time=1),
    Message('note_on', channel=8, note=60, velocity=0, time=479),
    Message('note_on', channel=8, note=53, velocity=126, time=1),
    Message('note_on', channel=8, note=53, velocity=0, time=719),
    Message('note_on', channel=8, note=62, velocity=126, time=1),
    Message('note_on', channel=8, note=62, velocity=0, time=719),
    Message('note_on', channel=8, note=55, velocity=126, time=1),
    Message('note_on', channel=8, note=55, velocity=0, time=239),
    Message('note_on', channel=8, note=53, velocity=126, time=1),
    Message('note_on', channel=8, note=53, velocity=0, time=239),
    Message('note_on', channel=8, note=62, velocity=126, time=1),
    Message('note_on', channel=8, note=62, velocity=0, time=719),
    Message('note_on', channel=8, note=62, velocity=126, time=1),
    Message('note_on', channel=8, note=62, velocity=0, time=719),
    Message('note_on', channel=8, note=62, velocity=126, time=1),
    Message('note_on', channel=8, note=62, velocity=0, time=239),
    Message('note_on', channel=8, note=65, velocity=126, time=1),
    Message('note_on', channel=8, note=65, velocity=0, time=239),
    Message('note_on', channel=8, note=60, velocity=126, time=1),
    Message('note_on', channel=8, note=60, velocity=0, time=719),
    Message('note_on', channel=8, note=60, velocity=126, time=1),
    Message('note_on', channel=8, note=60, velocity=0, time=479),
    Message('note_on', channel=8, note=65, velocity=126, time=1),
    Message('note_on', channel=8, note=65, velocity=0, time=239),
    Message('note_on', channel=8, note=62, velocity=126, time=1),
    Message('note_on', channel=8, note=62, velocity=0, time=239),
    Message('note_on', channel=8, note=57, velocity=126, time=1),
    Message('note_on', channel=8, note=57, velocity=0, time=2159),
    Message('note_on', channel=8, note=53, velocity=126, time=1),
    Message('note_on', channel=8, note=53, velocity=0, time=719),
    Message('note_on', channel=8, note=62, velocity=126, time=1),
    Message('note_on', channel=8, note=62, velocity=0, time=719),
    Message('note_on', channel=8, note=55, velocity=126, time=1),
    Message('note_on', channel=8, note=55, velocity=0, time=239),
    Message('note_on', channel=8, note=53, velocity=126, time=1),
    Message('note_on', channel=8, note=53, velocity=0, time=239),
    Message('note_on', channel=8, note=62, velocity=126, time=1),
    Message('note_on', channel=8, note=62, velocity=0, time=719),
    Message('note_on', channel=8, note=62, velocity=126, time=1),
    Message('note_on', channel=8, note=62, velocity=0, time=719),
    Message('note_on', channel=8, note=62, velocity=126, time=1),
    Message('note_on', channel=8, note=62, velocity=0, time=239),
    Message('note_on', channel=8, note=65, velocity=126, time=1),
    Message('note_on', channel=8, note=65, velocity=0, time=239),
    Message('note_on', channel=8, note=60, velocity=126, time=1),
    Message('note_on', channel=8, note=60, velocity=0, time=719),
    Message('note_on', channel=8, note=60, velocity=126, time=1),
    Message('note_on', channel=8, note=60, velocity=0, time=479),
    Message('note_on', channel=8, note=65, velocity=126, time=1),
    Message('note_on', channel=8, note=65, velocity=0, time=239),
    Message('note_on', channel=8, note=62, velocity=126, time=1),
    Message('note_on', channel=8, note=62, velocity=0, time=239),
    Message('note_on', channel=8, note=57, velocity=126, time=1),
    Message('note_on', channel=8, note=57, velocity=0, time=719),
    Message('note_on', channel=8, note=57, velocity=126, time=1),
    Message('note_on', channel=8, note=57, velocity=0, time=239),
    Message('note_on', channel=8, note=57, velocity=126, time=1),
    Message('note_on', channel=8, note=57, velocity=0, time=239),
    Message('note_on', channel=8, note=57, velocity=126, time=1),
    Message('note_on', channel=8, note=57, velocity=0, time=479),
    Message('note_on', channel=8, note=57, velocity=126, time=1),
    Message('note_on', channel=8, note=57, velocity=0, time=479),
    Message('note_on', channel=8, note=57, velocity=126, time=1),
    Message('note_on', channel=8, note=57, velocity=0, time=719),
    Message('note_on', channel=8, note=57, velocity=126, time=1),
    Message('note_on', channel=8, note=57, velocity=0, time=239),
    Message('note_on', channel=8, note=57, velocity=126, time=1),
    Message('note_on', channel=8, note=57, velocity=0, time=479),
    Message('note_on', channel=8, note=57, velocity=126, time=1),
    Message('note_on', channel=8, note=57, velocity=0, time=719),
    Message('note_on', channel=8, note=57, velocity=126, time=1),
    Message('note_on', channel=8, note=57, velocity=0, time=239),
    Message('note_on', channel=8, note=57, velocity=126, time=1),
    Message('note_on', channel=8, note=57, velocity=0, time=479),
    Message('note_on', channel=8, note=57, velocity=126, time=1),
    Message('note_on', channel=8, note=57, velocity=0, time=239),
    Message('note_on', channel=8, note=57, velocity=126, time=1),
    Message('note_on', channel=8, note=57, velocity=0, time=239),
    Message('note_on', channel=8, note=55, velocity=126, time=1),
    Message('note_on', channel=8, note=55, velocity=0, time=239),
    Message('note_on', channel=8, note=55, velocity=126, time=1),
    Message('note_on', channel=8, note=55, velocity=0, time=239),
    Message('note_on', channel=8, note=57, velocity=126, time=1),
    Message('note_on', channel=8, note=57, velocity=0, time=719),
    Message('note_on', channel=8, note=57, velocity=126, time=1),
    Message('note_on', channel=8, note=57, velocity=0, time=239),
    Message('note_on', channel=8, note=57, velocity=126, time=1),
    Message('note_on', channel=8, note=57, velocity=0, time=479),
    Message('note_on', channel=8, note=57, velocity=126, time=1),
    Message('note_on', channel=8, note=57, velocity=0, time=719),
    Message('note_on', channel=8, note=57, velocity=126, time=1),
    Message('note_on', channel=8, note=57, velocity=0, time=239),
    Message('note_on', channel=8, note=57, velocity=126, time=1),
    Message('note_on', channel=8, note=57, velocity=0, time=479),
    Message('note_on', channel=8, note=57, velocity=126, time=1),
    Message('note_on', channel=8, note=57, velocity=0, time=239),
    Message('note_on', channel=8, note=57, velocity=126, time=1),
    Message('note_on', channel=8, note=57, velocity=0, time=239),
    Message('note_on', channel=8, note=55, velocity=126, time=1),
    Message('note_on', channel=8, note=55, velocity=0, time=239),
    Message('note_on', channel=8, note=55, velocity=126, time=1),
    Message('note_on', channel=8, note=55, velocity=0, time=239),
    Message('note_on', channel=8, note=50, velocity=126, time=1),
    Message('note_on', channel=8, note=50, velocity=0, time=719),
    Message('note_on', channel=8, note=57, velocity=126, time=1),
    Message('note_on', channel=8, note=57, velocity=0, time=719),
    Message('note_on', channel=8, note=55, velocity=126, time=1),
    Message('note_on', channel=8, note=55, velocity=0, time=239),
    Message('note_on', channel=8, note=53, velocity=126, time=1),
    Message('note_on', channel=8, note=53, velocity=0, time=239),
    Message('note_on', channel=8, note=55, velocity=126, time=1),
    Message('note_on', channel=8, note=55, velocity=0, time=719),
    Message('note_on', channel=8, note=57, velocity=126, time=1),
    Message('note_on', channel=8, note=57, velocity=0, time=719),
    Message('note_on', channel=8, note=55, velocity=126, time=1),
    Message('note_on', channel=8, note=55, velocity=0, time=239),
    Message('note_on', channel=8, note=53, velocity=126, time=1),
    Message('note_on', channel=8, note=53, velocity=0, time=239),
    Message('note_on', channel=8, note=55, velocity=126, time=1),
    Message('note_on', channel=8, note=55, velocity=0, time=719),
    Message('note_on', channel=8, note=57, velocity=126, time=1),
    Message('note_on', channel=8, note=57, velocity=0, time=479),
    Message('note_on', channel=8, note=53, velocity=126, time=1),
    Message('note_on', channel=8, note=53, velocity=0, time=239),
    Message('note_on', channel=8, note=52, velocity=126, time=1),
    Message('note_on', channel=8, note=52, velocity=0, time=239),
    Message('note_on', channel=8, note=50, velocity=126, time=1),
    Message('note_on', channel=8, note=50, velocity=0, time=2159),
    Message('note_on', channel=8, note=50, velocity=126, time=1),
    Message('note_on', channel=8, note=50, velocity=0, time=719),
    Message('note_on', channel=8, note=57, velocity=126, time=1),
    Message('note_on', channel=8, note=57, velocity=0, time=719),
    Message('note_on', channel=8, note=55, velocity=126, time=1),
    Message('note_on', channel=8, note=55, velocity=0, time=239),
    Message('note_on', channel=8, note=53, velocity=126, time=1),
    Message('note_on', channel=8, note=53, velocity=0, time=239),
    Message('note_on', channel=8, note=55, velocity=126, time=1),
    Message('note_on', channel=8, note=55, velocity=0, time=719),
    Message('note_on', channel=8, note=57, velocity=126, time=1),
    Message('note_on', channel=8, note=57, velocity=0, time=719),
    Message('note_on', channel=8, note=55, velocity=126, time=1),
    Message('note_on', channel=8, note=55, velocity=0, time=239),
    Message('note_on', channel=8, note=53, velocity=126, time=1),
    Message('note_on', channel=8, note=53, velocity=0, time=239),
    Message('note_on', channel=8, note=55, velocity=126, time=1),
    Message('note_on', channel=8, note=55, velocity=0, time=719),
    Message('note_on', channel=8, note=57, velocity=126, time=1),
    Message('note_on', channel=8, note=57, velocity=0, time=479),
    Message('note_on', channel=8, note=53, velocity=126, time=1),
    Message('note_on', channel=8, note=53, velocity=0, time=239),
    Message('note_on', channel=8, note=52, velocity=126, time=1),
    Message('note_on', channel=8, note=52, velocity=0, time=239),
    Message('note_on', channel=8, note=50, velocity=126, time=1),
    Message('note_on', channel=8, note=50, velocity=0, time=2159),
    Message('note_on', channel=8, note=60, velocity=126, time=1201),
    Message('note_on', channel=8, note=60, velocity=0, time=239),
    Message('note_on', channel=8, note=60, velocity=126, time=1),
    Message('note_on', channel=8, note=60, velocity=0, time=239),
    Message('note_on', channel=8, note=62, velocity=126, time=1),
    Message('note_on', channel=8, note=62, velocity=0, time=239),
    Message('note_on', channel=8, note=62, velocity=126, time=1),
    Message('note_on', channel=8, note=62, velocity=0, time=479),
    Message('note_on', channel=8, note=62, velocity=126, time=1),
    Message('note_on', channel=8, note=62, velocity=0, time=479),
    Message('note_on', channel=8, note=62, velocity=126, time=481),
    Message('note_on', channel=8, note=62, velocity=0, time=479),
    Message('note_on', channel=8, note=58, velocity=126, time=1),
    Message('note_on', channel=8, note=58, velocity=0, time=479),
    Message('note_on', channel=8, note=58, velocity=126, time=1),
    Message('note_on', channel=8, note=58, velocity=0, time=479),
    Message('note_on', channel=8, note=58, velocity=126, time=481),
    Message('note_on', channel=8, note=58, velocity=0, time=479),
    Message('note_on', channel=8, note=53, velocity=126, time=1),
    Message('note_on', channel=8, note=53, velocity=0, time=479),
    Message('note_on', channel=8, note=53, velocity=126, time=1),
    Message('note_on', channel=8, note=53, velocity=0, time=479),
    Message('note_on', channel=8, note=53, velocity=126, time=481),
    Message('note_on', channel=8, note=53, velocity=0, time=479),
    Message('note_on', channel=8, note=53, velocity=126, time=1),
    Message('note_on', channel=8, note=53, velocity=0, time=479),
    Message('note_on', channel=8, note=53, velocity=126, time=1),
    Message('note_on', channel=8, note=53, velocity=0, time=479),
    Message('note_on', channel=8, note=60, velocity=126, time=1),
    Message('note_on', channel=8, note=60, velocity=0, time=479),
    Message('note_on', channel=8, note=60, velocity=126, time=1),
    Message('note_on', channel=8, note=60, velocity=0, time=479),
    Message('note_on', channel=8, note=62, velocity=126, time=1),
    Message('note_on', channel=8, note=62, velocity=0, time=479),
    Message('note_on', channel=8, note=62, velocity=126, time=1),
    Message('note_on', channel=8, note=62, velocity=0, time=479),
    Message('note_on', channel=8, note=62, velocity=126, time=481),
    Message('note_on', channel=8, note=62, velocity=0, time=479),
    Message('note_on', channel=8, note=58, velocity=126, time=1),
    Message('note_on', channel=8, note=58, velocity=0, time=479),
    Message('note_on', channel=8, note=58, velocity=126, time=1),
    Message('note_on', channel=8, note=58, velocity=0, time=479),
    Message('note_on', channel=8, note=58, velocity=126, time=481),
    Message('note_on', channel=8, note=58, velocity=0, time=479),
    Message('note_on', channel=8, note=53, velocity=126, time=1),
    Message('note_on', channel=8, note=53, velocity=0, time=479),
    Message('note_on', channel=8, note=53, velocity=126, time=1),
    Message('note_on', channel=8, note=53, velocity=0, time=479),
    Message('note_on', channel=8, note=53, velocity=126, time=481),
    Message('note_on', channel=8, note=53, velocity=0, time=479),
    Message('note_on', channel=8, note=53, velocity=126, time=1),
    Message('note_on', channel=8, note=53, velocity=0, time=479),
    Message('note_on', channel=8, note=53, velocity=126, time=1),
    Message('note_on', channel=8, note=53, velocity=0, time=479),
    Message('note_on', channel=8, note=60, velocity=126, time=1),
    Message('note_on', channel=8, note=60, velocity=0, time=479),
    Message('note_on', channel=8, note=60, velocity=126, time=1),
    Message('note_on', channel=8, note=60, velocity=0, time=479),
    Message('note_on', channel=8, note=53, velocity=126, time=1),
    Message('note_on', channel=8, note=53, velocity=0, time=719),
    Message('note_on', channel=8, note=62, velocity=126, time=1),
    Message('note_on', channel=8, note=62, velocity=0, time=719),
    Message('note_on', channel=8, note=55, velocity=126, time=1),
    Message('note_on', channel=8, note=55, velocity=0, time=239),
    Message('note_on', channel=8, note=53, velocity=126, time=1),
    Message('note_on', channel=8, note=53, velocity=0, time=239),
    Message('note_on', channel=8, note=62, velocity=126, time=1),
    Message('note_on', channel=8, note=62, velocity=0, time=719),
    Message('note_on', channel=8, note=62, velocity=126, time=1),
    Message('note_on', channel=8, note=62, velocity=0, time=719),
    Message('note_on', channel=8, note=62, velocity=126, time=1),
    Message('note_on', channel=8, note=62, velocity=0, time=239),
    Message('note_on', channel=8, note=65, velocity=126, time=1),
    Message('note_on', channel=8, note=65, velocity=0, time=239),
    Message('note_on', channel=8, note=60, velocity=126, time=1),
    Message('note_on', channel=8, note=60, velocity=0, time=719),
    Message('note_on', channel=8, note=60, velocity=126, time=1),
    Message('note_on', channel=8, note=60, velocity=0, time=479),
    Message('note_on', channel=8, note=65, velocity=126, time=1),
    Message('note_on', channel=8, note=65, velocity=0, time=239),
    Message('note_on', channel=8, note=62, velocity=126, time=1),
    Message('note_on', channel=8, note=62, velocity=0, time=239),
    Message('note_on', channel=8, note=57, velocity=126, time=1),
    Message('note_on', channel=8, note=57, velocity=0, time=2159),
    Message('note_on', channel=8, note=53, velocity=126, time=1),
    Message('note_on', channel=8, note=53, velocity=0, time=719),
    Message('note_on', channel=8, note=62, velocity=126, time=1),
    Message('note_on', channel=8, note=62, velocity=0, time=719),
    Message('note_on', channel=8, note=55, velocity=126, time=1),
    Message('note_on', channel=8, note=55, velocity=0, time=239),
    Message('note_on', channel=8, note=53, velocity=126, time=1),
    Message('note_on', channel=8, note=53, velocity=0, time=239),
    Message('note_on', channel=8, note=62, velocity=126, time=1),
    Message('note_on', channel=8, note=62, velocity=0, time=719),
    Message('note_on', channel=8, note=62, velocity=126, time=1),
    Message('note_on', channel=8, note=62, velocity=0, time=719),
    Message('note_on', channel=8, note=62, velocity=126, time=1),
    Message('note_on', channel=8, note=62, velocity=0, time=239),
    Message('note_on', channel=8, note=65, velocity=126, time=1),
    Message('note_on', channel=8, note=65, velocity=0, time=239),
    Message('note_on', channel=8, note=60, velocity=126, time=1),
    Message('note_on', channel=8, note=60, velocity=0, time=719),
    Message('note_on', channel=8, note=60, velocity=126, time=1),
    Message('note_on', channel=8, note=60, velocity=0, time=479),
    Message('note_on', channel=8, note=65, velocity=126, time=1),
    Message('note_on', channel=8, note=65, velocity=0, time=239),
    Message('note_on', channel=8, note=62, velocity=126, time=1),
    Message('note_on', channel=8, note=62, velocity=0, time=239),
    Message('note_on', channel=8, note=57, velocity=126, time=1),
    Message('note_on', channel=8, note=57, velocity=0, time=719),
    Message('note_on', channel=8, note=57, velocity=126, time=1),
    Message('note_on', channel=8, note=57, velocity=0, time=239),
    Message('note_on', channel=8, note=57, velocity=126, time=1),
    Message('note_on', channel=8, note=57, velocity=0, time=239),
    Message('note_on', channel=8, note=57, velocity=126, time=1),
    Message('note_on', channel=8, note=57, velocity=0, time=479),
    Message('note_on', channel=8, note=57, velocity=126, time=1),
    Message('note_on', channel=8, note=57, velocity=0, time=479),
    MetaMessage('end_of_track', time=1)]),
  MidiTrack([
    MetaMessage('key_signature', key='F', time=0),
    Message('program_change', channel=10, program=58, time=0),
    Message('note_on', channel=10, note=45, velocity=80, time=0),
    Message('control_change', channel=10, control=7, value=100, time=2),
    Message('control_change', channel=10, control=10, value=64, time=2),
    Message('control_change', channel=10, control=91, value=30, time=2),
    Message('control_change', channel=10, control=93, value=30, time=2),
    Message('note_on', channel=10, note=45, velocity=0, time=711),
    Message('note_on', channel=10, note=45, velocity=80, time=1),
    Message('note_on', channel=10, note=45, velocity=0, time=239),
    Message('note_on', channel=10, note=45, velocity=80, time=1),
    Message('note_on', channel=10, note=45, velocity=0, time=479),
    Message('note_on', channel=10, note=45, velocity=80, time=1),
    Message('note_on', channel=10, note=45, velocity=0, time=719),
    Message('note_on', channel=10, note=45, velocity=80, time=1),
    Message('note_on', channel=10, note=45, velocity=0, time=239),
    Message('note_on', channel=10, note=45, velocity=80, time=1),
    Message('note_on', channel=10, note=45, velocity=0, time=479),
    Message('note_on', channel=10, note=45, velocity=80, time=1),
    Message('note_on', channel=10, note=45, velocity=0, time=239),
    Message('note_on', channel=10, note=45, velocity=80, time=1),
    Message('note_on', channel=10, note=45, velocity=0, time=239),
    Message('note_on', channel=10, note=43, velocity=80, time=1),
    Message('note_on', channel=10, note=43, velocity=0, time=239),
    Message('note_on', channel=10, note=43, velocity=80, time=1),
    Message('note_on', channel=10, note=43, velocity=0, time=239),
    Message('note_on', channel=10, note=45, velocity=80, time=1),
    Message('note_on', channel=10, note=45, velocity=0, time=719),
    Message('note_on', channel=10, note=45, velocity=80, time=1),
    Message('note_on', channel=10, note=45, velocity=0, time=239),
    Message('note_on', channel=10, note=45, velocity=80, time=1),
    Message('note_on', channel=10, note=45, velocity=0, time=479),
    Message('note_on', channel=10, note=45, velocity=80, time=1),
    Message('note_on', channel=10, note=45, velocity=0, time=719),
    Message('note_on', channel=10, note=45, velocity=80, time=1),
    Message('note_on', channel=10, note=45, velocity=0, time=239),
    Message('note_on', channel=10, note=45, velocity=80, time=1),
    Message('note_on', channel=10, note=45, velocity=0, time=479),
    Message('note_on', channel=10, note=45, velocity=80, time=1),
    Message('note_on', channel=10, note=45, velocity=0, time=239),
    Message('note_on', channel=10, note=45, velocity=80, time=1),
    Message('note_on', channel=10, note=45, velocity=0, time=239),
    Message('note_on', channel=10, note=43, velocity=80, time=1),
    Message('note_on', channel=10, note=43, velocity=0, time=239),
    Message('note_on', channel=10, note=43, velocity=80, time=1),
    Message('note_on', channel=10, note=43, velocity=0, time=239),
    Message('note_on', channel=10, note=45, velocity=80, time=1),
    Message('note_on', channel=10, note=45, velocity=0, time=479),
    Message('note_on', channel=10, note=45, velocity=80, time=1),
    Message('note_on', channel=10, note=45, velocity=0, time=479),
    Message('note_on', channel=10, note=45, velocity=80, time=1),
    Message('note_on', channel=10, note=45, velocity=0, time=479),
    Message('note_on', channel=10, note=45, velocity=80, time=1),
    Message('note_on', channel=10, note=45, velocity=0, time=479),
    Message('note_on', channel=10, note=45, velocity=80, time=1),
    Message('note_on', channel=10, note=45, velocity=0, time=479),
    Message('note_on', channel=10, note=45, velocity=80, time=1),
    Message('note_on', channel=10, note=45, velocity=0, time=479),
    Message('note_on', channel=10, note=45, velocity=80, time=1),
    Message('note_on', channel=10, note=45, velocity=0, time=479),
    Message('note_on', channel=10, note=45, velocity=80, time=1),
    Message('note_on', channel=10, note=45, velocity=0, time=479),
    Message('note_on', channel=10, note=45, velocity=80, time=1),
    Message('note_on', channel=10, note=45, velocity=0, time=479),
    Message('note_on', channel=10, note=45, velocity=80, time=1),
    Message('note_on', channel=10, note=45, velocity=0, time=479),
    Message('note_on', channel=10, note=45, velocity=80, time=1),
    Message('note_on', channel=10, note=45, velocity=0, time=479),
    Message('note_on', channel=10, note=45, velocity=80, time=1),
    Message('note_on', channel=10, note=45, velocity=0, time=479),
    Message('note_on', channel=10, note=45, velocity=80, time=1),
    Message('note_on', channel=10, note=45, velocity=0, time=479),
    Message('note_on', channel=10, note=45, velocity=80, time=1),
    Message('note_on', channel=10, note=45, velocity=0, time=479),
    Message('note_on', channel=10, note=45, velocity=80, time=1),
    Message('note_on', channel=10, note=45, velocity=0, time=479),
    Message('note_on', channel=10, note=45, velocity=80, time=1),
    Message('note_on', channel=10, note=45, velocity=0, time=479),
    Message('note_on', channel=10, note=45, velocity=80, time=1),
    Message('note_on', channel=10, note=45, velocity=0, time=239),
    Message('note_on', channel=10, note=45, velocity=80, time=1),
    Message('note_on', channel=10, note=45, velocity=0, time=239),
    Message('note_on', channel=10, note=45, velocity=80, time=1),
    Message('note_on', channel=10, note=45, velocity=0, time=239),
    Message('note_on', channel=10, note=45, velocity=80, time=1),
    Message('note_on', channel=10, note=45, velocity=0, time=239),
    Message('note_on', channel=10, note=45, velocity=80, time=1),
    Message('note_on', channel=10, note=45, velocity=0, time=239),
    Message('note_on', channel=10, note=45, velocity=80, time=1),
    Message('note_on', channel=10, note=45, velocity=0, time=239),
    Message('note_on', channel=10, note=45, velocity=80, time=1),
    Message('note_on', channel=10, note=45, velocity=0, time=239),
    Message('note_on', channel=10, note=45, velocity=80, time=1),
    Message('note_on', channel=10, note=45, velocity=0, time=239),
    Message('note_on', channel=10, note=45, velocity=80, time=1),
    Message('note_on', channel=10, note=45, velocity=0, time=239),
    Message('note_on', channel=10, note=45, velocity=80, time=1),
    Message('note_on', channel=10, note=45, velocity=0, time=239),
    Message('note_on', channel=10, note=45, velocity=80, time=1),
    Message('note_on', channel=10, note=45, velocity=0, time=239),
    Message('note_on', channel=10, note=45, velocity=80, time=1),
    Message('note_on', channel=10, note=45, velocity=0, time=239),
    Message('note_on', channel=10, note=45, velocity=80, time=1),
    Message('note_on', channel=10, note=45, velocity=0, time=239),
    Message('note_on', channel=10, note=45, velocity=80, time=1),
    Message('note_on', channel=10, note=45, velocity=0, time=239),
    Message('note_on', channel=10, note=45, velocity=80, time=1),
    Message('note_on', channel=10, note=45, velocity=0, time=239),
    Message('note_on', channel=10, note=45, velocity=80, time=1),
    Message('note_on', channel=10, note=45, velocity=0, time=239),
    Message('note_on', channel=10, note=45, velocity=80, time=1),
    Message('note_on', channel=10, note=45, velocity=0, time=239),
    Message('note_on', channel=10, note=45, velocity=80, time=1),
    Message('note_on', channel=10, note=45, velocity=0, time=239),
    Message('note_on', channel=10, note=45, velocity=80, time=1),
    Message('note_on', channel=10, note=45, velocity=0, time=239),
    Message('note_on', channel=10, note=45, velocity=80, time=1),
    Message('note_on', channel=10, note=45, velocity=0, time=239),
    Message('note_on', channel=10, note=45, velocity=80, time=1),
    Message('note_on', channel=10, note=45, velocity=0, time=239),
    Message('note_on', channel=10, note=45, velocity=80, time=1),
    Message('note_on', channel=10, note=45, velocity=0, time=239),
    Message('note_on', channel=10, note=45, velocity=80, time=1),
    Message('note_on', channel=10, note=45, velocity=0, time=239),
    Message('note_on', channel=10, note=45, velocity=80, time=1),
    Message('note_on', channel=10, note=45, velocity=0, time=239),
    Message('note_on', channel=10, note=45, velocity=80, time=1),
    Message('note_on', channel=10, note=45, velocity=0, time=239),
    Message('note_on', channel=10, note=45, velocity=80, time=1),
    Message('note_on', channel=10, note=45, velocity=0, time=239),
    Message('note_on', channel=10, note=45, velocity=80, time=1),
    Message('note_on', channel=10, note=45, velocity=0, time=239),
    Message('note_on', channel=10, note=45, velocity=80, time=1),
    Message('note_on', channel=10, note=45, velocity=0, time=239),
    Message('note_on', channel=10, note=45, velocity=80, time=1),
    Message('note_on', channel=10, note=45, velocity=0, time=239),
    Message('note_on', channel=10, note=45, velocity=80, time=1),
    Message('note_on', channel=10, note=45, velocity=0, time=239),
    Message('note_on', channel=10, note=45, velocity=80, time=1),
    Message('note_on', channel=10, note=45, velocity=0, time=239),
    Message('note_on', channel=10, note=45, velocity=80, time=1),
    Message('note_on', channel=10, note=45, velocity=0, time=239),
    Message('note_on', channel=10, note=45, velocity=80, time=1),
    Message('note_on', channel=10, note=45, velocity=0, time=1919),
    Message('note_on', channel=10, note=45, velocity=126, time=1),
    Message('note_on', channel=10, note=45, velocity=0, time=479),
    Message('note_on', channel=10, note=45, velocity=126, time=1),
    Message('note_on', channel=10, note=45, velocity=0, time=1439),
    Message('note_on', channel=10, note=41, velocity=80, time=1),
    Message('note_on', channel=10, note=41, velocity=0, time=239),
    Message('note_on', channel=10, note=41, velocity=80, time=1),
    Message('note_on', channel=10, note=41, velocity=0, time=239),
    Message('note_on', channel=10, note=34, velocity=80, time=1),
    Message('note_on', channel=10, note=34, velocity=0, time=239),
    Message('note_on', channel=10, note=34, velocity=80, time=1),
    Message('note_on', channel=10, note=34, velocity=0, time=239),
    Message('note_on', channel=10, note=34, velocity=80, time=1),
    Message('note_on', channel=10, note=34, velocity=0, time=239),
    Message('note_on', channel=10, note=34, velocity=80, time=1),
    Message('note_on', channel=10, note=34, velocity=0, time=239),
    Message('note_on', channel=10, note=34, velocity=80, time=1),
    Message('note_on', channel=10, note=34, velocity=0, time=239),
    Message('note_on', channel=10, note=34, velocity=80, time=1),
    Message('note_on', channel=10, note=34, velocity=0, time=239),
    Message('note_on', channel=10, note=41, velocity=80, time=1),
    Message('note_on', channel=10, note=41, velocity=0, time=239),
    Message('note_on', channel=10, note=41, velocity=80, time=1),
    Message('note_on', channel=10, note=41, velocity=0, time=239),
    Message('note_on', channel=10, note=41, velocity=80, time=1),
    Message('note_on', channel=10, note=41, velocity=0, time=239),
    Message('note_on', channel=10, note=41, velocity=80, time=1),
    Message('note_on', channel=10, note=41, velocity=0, time=239),
    Message('note_on', channel=10, note=41, velocity=80, time=1),
    Message('note_on', channel=10, note=41, velocity=0, time=239),
    Message('note_on', channel=10, note=41, velocity=80, time=1),
    Message('note_on', channel=10, note=41, velocity=0, time=239),
    Message('note_on', channel=10, note=41, velocity=80, time=1),
    Message('note_on', channel=10, note=41, velocity=0, time=239),
    Message('note_on', channel=10, note=41, velocity=80, time=1),
    Message('note_on', channel=10, note=41, velocity=0, time=239),
    Message('note_on', channel=10, note=45, velocity=80, time=1),
    Message('note_on', channel=10, note=45, velocity=0, time=239),
    Message('note_on', channel=10, note=45, velocity=80, time=1),
    Message('note_on', channel=10, note=45, velocity=0, time=239),
    Message('note_on', channel=10, note=38, velocity=80, time=1),
    Message('note_on', channel=10, note=38, velocity=0, time=239),
    Message('note_on', channel=10, note=38, velocity=80, time=1),
    Message('note_on', channel=10, note=38, velocity=0, time=239),
    Message('note_on', channel=10, note=38, velocity=80, time=1),
    Message('note_on', channel=10, note=38, velocity=0, time=239),
    Message('note_on', channel=10, note=38, velocity=80, time=1),
    Message('note_on', channel=10, note=38, velocity=0, time=239),
    Message('note_on', channel=10, note=38, velocity=80, time=1),
    Message('note_on', channel=10, note=38, velocity=0, time=239),
    Message('note_on', channel=10, note=38, velocity=80, time=1),
    Message('note_on', channel=10, note=38, velocity=0, time=239),
    Message('note_on', channel=10, note=38, velocity=80, time=1),
    Message('note_on', channel=10, note=38, velocity=0, time=239),
    Message('note_on', channel=10, note=38, velocity=80, time=1),
    Message('note_on', channel=10, note=38, velocity=0, time=239),
    Message('note_on', channel=10, note=38, velocity=80, time=1),
    Message('note_on', channel=10, note=38, velocity=0, time=239),
    Message('note_on', channel=10, note=38, velocity=80, time=1),
    Message('note_on', channel=10, note=38, velocity=0, time=239),
    Message('note_on', channel=10, note=38, velocity=80, time=1),
    Message('note_on', channel=10, note=38, velocity=0, time=239),
    Message('note_on', channel=10, note=38, velocity=80, time=1),
    Message('note_on', channel=10, note=38, velocity=0, time=239),
    Message('note_on', channel=10, note=38, velocity=80, time=1),
    Message('note_on', channel=10, note=38, velocity=0, time=239),
    Message('note_on', channel=10, note=38, velocity=80, time=1),
    Message('note_on', channel=10, note=38, velocity=0, time=239),
    Message('note_on', channel=10, note=41, velocity=80, time=1),
    Message('note_on', channel=10, note=41, velocity=0, time=239),
    Message('note_on', channel=10, note=41, velocity=80, time=1),
    Message('note_on', channel=10, note=41, velocity=0, time=239),
    Message('note_on', channel=10, note=46, velocity=80, time=1),
    Message('note_on', channel=10, note=46, velocity=0, time=239),
    Message('note_on', channel=10, note=46, velocity=80, time=1),
    Message('note_on', channel=10, note=46, velocity=0, time=239),
    Message('note_on', channel=10, note=46, velocity=80, time=1),
    Message('note_on', channel=10, note=46, velocity=0, time=239),
    Message('note_on', channel=10, note=46, velocity=80, time=1),
    Message('note_on', channel=10, note=46, velocity=0, time=239),
    Message('note_on', channel=10, note=46, velocity=80, time=1),
    Message('note_on', channel=10, note=46, velocity=0, time=239),
    Message('note_on', channel=10, note=46, velocity=80, time=1),
    Message('note_on', channel=10, note=46, velocity=0, time=239),
    Message('note_on', channel=10, note=46, velocity=80, time=1),
    Message('note_on', channel=10, note=46, velocity=0, time=239),
    Message('note_on', channel=10, note=46, velocity=80, time=1),
    Message('note_on', channel=10, note=46, velocity=0, time=239),
    Message('note_on', channel=10, note=46, velocity=80, time=1),
    Message('note_on', channel=10, note=46, velocity=0, time=239),
    Message('note_on', channel=10, note=46, velocity=80, time=1),
    Message('note_on', channel=10, note=46, velocity=0, time=239),
    Message('note_on', channel=10, note=41, velocity=80, time=1),
    Message('note_on', channel=10, note=41, velocity=0, time=239),
    Message('note_on', channel=10, note=41, velocity=80, time=1),
    Message('note_on', channel=10, note=41, velocity=0, time=239),
    Message('note_on', channel=10, note=38, velocity=80, time=1),
    Message('note_on', channel=10, note=38, velocity=0, time=239),
    Message('note_on', channel=10, note=38, velocity=80, time=1),
    Message('note_on', channel=10, note=38, velocity=0, time=239),
    Message('note_on', channel=10, note=38, velocity=80, time=1),
    Message('note_on', channel=10, note=38, velocity=0, time=239),
    Message('note_on', channel=10, note=38, velocity=80, time=1),
    Message('note_on', channel=10, note=38, velocity=0, time=239),
    Message('note_on', channel=10, note=38, velocity=80, time=1),
    Message('note_on', channel=10, note=38, velocity=0, time=239),
    Message('note_on', channel=10, note=38, velocity=80, time=1),
    Message('note_on', channel=10, note=38, velocity=0, time=239),
    Message('note_on', channel=10, note=38, velocity=80, time=1),
    Message('note_on', channel=10, note=38, velocity=0, time=239),
    Message('note_on', channel=10, note=38, velocity=80, time=1),
    Message('note_on', channel=10, note=38, velocity=0, time=239),
    Message('note_on', channel=10, note=38, velocity=80, time=1),
    Message('note_on', channel=10, note=38, velocity=0, time=239),
    Message('note_on', channel=10, note=38, velocity=80, time=1),
    Message('note_on', channel=10, note=38, velocity=0, time=239),
    Message('note_on', channel=10, note=38, velocity=80, time=1),
    Message('note_on', channel=10, note=38, velocity=0, time=239),
    Message('note_on', channel=10, note=38, velocity=80, time=1),
    Message('note_on', channel=10, note=38, velocity=0, time=239),
    Message('note_on', channel=10, note=38, velocity=80, time=1),
    Message('note_on', channel=10, note=38, velocity=0, time=239),
    Message('note_on', channel=10, note=38, velocity=80, time=1),
    Message('note_on', channel=10, note=38, velocity=0, time=239),
    Message('note_on', channel=10, note=38, velocity=80, time=1),
    Message('note_on', channel=10, note=38, velocity=0, time=239),
    Message('note_on', channel=10, note=38, velocity=80, time=1),
    Message('note_on', channel=10, note=38, velocity=0, time=239),
    Message('note_on', channel=10, note=45, velocity=80, time=1),
    Message('note_on', channel=10, note=45, velocity=0, time=239),
    Message('note_on', channel=10, note=45, velocity=80, time=1),
    Message('note_on', channel=10, note=45, velocity=0, time=239),
    Message('note_on', channel=10, note=46, velocity=80, time=1),
    Message('note_on', channel=10, note=46, velocity=0, time=239),
    Message('note_on', channel=10, note=46, velocity=80, time=1),
    Message('note_on', channel=10, note=46, velocity=0, time=239),
    Message('note_on', channel=10, note=46, velocity=80, time=1),
    Message('note_on', channel=10, note=46, velocity=0, time=239),
    Message('note_on', channel=10, note=46, velocity=80, time=1),
    Message('note_on', channel=10, note=46, velocity=0, time=239),
    Message('note_on', channel=10, note=46, velocity=80, time=1),
    Message('note_on', channel=10, note=46, velocity=0, time=239),
    Message('note_on', channel=10, note=46, velocity=80, time=1),
    Message('note_on', channel=10, note=46, velocity=0, time=239),
    Message('note_on', channel=10, note=46, velocity=80, time=1),
    Message('note_on', channel=10, note=46, velocity=0, time=239),
    Message('note_on', channel=10, note=46, velocity=80, time=1),
    Message('note_on', channel=10, note=46, velocity=0, time=239),
    Message('note_on', channel=10, note=41, velocity=80, time=1),
    Message('note_on', channel=10, note=41, velocity=0, time=239),
    Message('note_on', channel=10, note=41, velocity=80, time=1),
    Message('note_on', channel=10, note=41, velocity=0, time=239),
    Message('note_on', channel=10, note=41, velocity=80, time=1),
    Message('note_on', channel=10, note=41, velocity=0, time=239),
    Message('note_on', channel=10, note=41, velocity=80, time=1),
    Message('note_on', channel=10, note=41, velocity=0, time=239),
    Message('note_on', channel=10, note=46, velocity=80, time=1),
    Message('note_on', channel=10, note=46, velocity=0, time=239),
    Message('note_on', channel=10, note=46, velocity=80, time=1),
    Message('note_on', channel=10, note=46, velocity=0, time=239),
    Message('note_on', channel=10, note=46, velocity=80, time=1),
    Message('note_on', channel=10, note=46, velocity=0, time=239),
    Message('note_on', channel=10, note=46, velocity=80, time=1),
    Message('note_on', channel=10, note=46, velocity=0, time=239),
    Message('note_on', channel=10, note=45, velocity=80, time=1),
    Message('note_on', channel=10, note=45, velocity=0, time=239),
    Message('note_on', channel=10, note=45, velocity=80, time=1),
    Message('note_on', channel=10, note=45, velocity=0, time=239),
    Message('note_on', channel=10, note=50, velocity=80, time=1),
    Message('note_on', channel=10, note=50, velocity=0, time=239),
    Message('note_on', channel=10, note=50, velocity=80, time=1),
    Message('note_on', channel=10, note=50, velocity=0, time=239),
    Message('note_on', channel=10, note=50, velocity=80, time=1),
    Message('note_on', channel=10, note=50, velocity=0, time=239),
    Message('note_on', channel=10, note=50, velocity=80, time=1),
    Message('note_on', channel=10, note=50, velocity=0, time=239),
    Message('note_on', channel=10, note=50, velocity=80, time=1),
    Message('note_on', channel=10, note=50, velocity=0, time=239),
    Message('note_on', channel=10, note=50, velocity=80, time=1),
    Message('note_on', channel=10, note=50, velocity=0, time=239),
    Message('note_on', channel=10, note=50, velocity=80, time=1),
    Message('note_on', channel=10, note=50, velocity=0, time=239),
    Message('note_on', channel=10, note=50, velocity=80, time=1),
    Message('note_on', channel=10, note=50, velocity=0, time=239),
    Message('note_on', channel=10, note=50, velocity=80, time=1),
    Message('note_on', channel=10, note=50, velocity=0, time=239),
    Message('note_on', channel=10, note=50, velocity=80, time=1),
    Message('note_on', channel=10, note=50, velocity=0, time=239),
    Message('note_on', channel=10, note=50, velocity=80, time=1),
    Message('note_on', channel=10, note=50, velocity=0, time=239),
    Message('note_on', channel=10, note=50, velocity=80, time=1),
    Message('note_on', channel=10, note=50, velocity=0, time=239),
    Message('note_on', channel=10, note=50, velocity=80, time=1),
    Message('note_on', channel=10, note=50, velocity=0, time=239),
    Message('note_on', channel=10, note=50, velocity=80, time=1),
    Message('note_on', channel=10, note=50, velocity=0, time=239),
    Message('note_on', channel=10, note=41, velocity=80, time=1),
    Message('note_on', channel=10, note=41, velocity=0, time=239),
    Message('note_on', channel=10, note=41, velocity=80, time=1),
    Message('note_on', channel=10, note=41, velocity=0, time=239),
    Message('note_on', channel=10, note=46, velocity=80, time=1),
    Message('note_on', channel=10, note=46, velocity=0, time=239),
    Message('note_on', channel=10, note=46, velocity=80, time=1),
    Message('note_on', channel=10, note=46, velocity=0, time=239),
    Message('note_on', channel=10, note=46, velocity=80, time=1),
    Message('note_on', channel=10, note=46, velocity=0, time=239),
    Message('note_on', channel=10, note=46, velocity=80, time=1),
    Message('note_on', channel=10, note=46, velocity=0, time=239),
    Message('note_on', channel=10, note=46, velocity=80, time=1),
    Message('note_on', channel=10, note=46, velocity=0, time=239),
    Message('note_on', channel=10, note=46, velocity=80, time=1),
    Message('note_on', channel=10, note=46, velocity=0, time=239),
    Message('note_on', channel=10, note=46, velocity=80, time=1),
    Message('note_on', channel=10, note=46, velocity=0, time=959),
    Message('note_on', channel=10, note=38, velocity=112, time=1),
    Message('note_on', channel=10, note=38, velocity=0, time=479),
    Message('note_on', channel=10, note=40, velocity=112, time=1),
    Message('note_on', channel=10, note=40, velocity=0, time=479),
    Message('note_on', channel=10, note=41, velocity=112, time=1),
    Message('note_on', channel=10, note=41, velocity=0, time=479),
    Message('note_on', channel=10, note=40, velocity=112, time=1),
    Message('note_on', channel=10, note=40, velocity=0, time=479),
    Message('note_on', channel=10, note=38, velocity=112, time=1),
    Message('note_on', channel=10, note=38, velocity=0, time=479),
    Message('note_on', channel=10, note=41, velocity=112, time=1),
    Message('note_on', channel=10, note=41, velocity=0, time=479),
    Message('note_on', channel=10, note=43, velocity=112, time=1),
    Message('note_on', channel=10, note=43, velocity=0, time=479),
    Message('note_on', channel=10, note=41, velocity=112, time=1),
    Message('note_on', channel=10, note=41, velocity=0, time=479),
    Message('note_on', channel=10, note=40, velocity=112, time=1),
    Message('note_on', channel=10, note=40, velocity=0, time=479),
    Message('note_on', channel=10, note=45, velocity=112, time=1),
    Message('note_on', channel=10, note=45, velocity=0, time=959),
    Message('note_on', channel=10, note=46, velocity=112, time=1),
    Message('note_on', channel=10, note=46, velocity=0, time=239),
    Message('note_on', channel=10, note=45, velocity=112, time=1),
    Message('note_on', channel=10, note=45, velocity=0, time=719),
    Message('note_on', channel=10, note=46, velocity=112, time=1),
    Message('note_on', channel=10, note=46, velocity=0, time=239),
    Message('note_on', channel=10, note=45, velocity=112, time=1),
    Message('note_on', channel=10, note=45, velocity=0, time=719),
    Message('note_on', channel=10, note=48, velocity=126, time=4561),
    Message('note_on', channel=10, note=48, velocity=0, time=239),
    Message('note_on', channel=10, note=48, velocity=126, time=1),
    Message('note_on', channel=10, note=48, velocity=0, time=239),
    Message('note_on', channel=10, note=50, velocity=126, time=1),
    Message('note_on', channel=10, note=50, velocity=0, time=239),
    Message('note_on', channel=10, note=50, velocity=112, time=1),
    Message('note_on', channel=10, note=50, velocity=0, time=479),
    Message('note_on', channel=10, note=50, velocity=112, time=1),
    Message('note_on', channel=10, note=50, velocity=0, time=479),
    Message('note_on', channel=10, note=50, velocity=112, time=481),
    Message('note_on', channel=10, note=50, velocity=0, time=479),
    Message('note_on', channel=10, note=46, velocity=112, time=1),
    Message('note_on', channel=10, note=46, velocity=0, time=479),
    Message('note_on', channel=10, note=46, velocity=112, time=1),
    Message('note_on', channel=10, note=46, velocity=0, time=479),
    Message('note_on', channel=10, note=46, velocity=112, time=481),
    Message('note_on', channel=10, note=46, velocity=0, time=479),
    Message('note_on', channel=10, note=41, velocity=112, time=1),
    Message('note_on', channel=10, note=41, velocity=0, time=479),
    Message('note_on', channel=10, note=41, velocity=112, time=1),
    Message('note_on', channel=10, note=41, velocity=0, time=479),
    Message('note_on', channel=10, note=41, velocity=112, time=481),
    Message('note_on', channel=10, note=41, velocity=0, time=479),
    Message('note_on', channel=10, note=41, velocity=112, time=1),
    Message('note_on', channel=10, note=41, velocity=0, time=479),
    Message('note_on', channel=10, note=41, velocity=112, time=1),
    Message('note_on', channel=10, note=41, velocity=0, time=479),
    Message('note_on', channel=10, note=48, velocity=112, time=1),
    Message('note_on', channel=10, note=48, velocity=0, time=479),
    Message('note_on', channel=10, note=48, velocity=112, time=1),
    Message('note_on', channel=10, note=48, velocity=0, time=479),
    Message('note_on', channel=10, note=50, velocity=112, time=1),
    Message('note_on', channel=10, note=50, velocity=0, time=479),
    Message('note_on', channel=10, note=50, velocity=112, time=1),
    Message('note_on', channel=10, note=50, velocity=0, time=479),
    Message('note_on', channel=10, note=50, velocity=112, time=481),
    Message('note_on', channel=10, note=50, velocity=0, time=479),
    Message('note_on', channel=10, note=46, velocity=112, time=1),
    Message('note_on', channel=10, note=46, velocity=0, time=479),
    Message('note_on', channel=10, note=46, velocity=112, time=1),
    Message('note_on', channel=10, note=46, velocity=0, time=479),
    Message('note_on', channel=10, note=46, velocity=112, time=481),
    Message('note_on', channel=10, note=46, velocity=0, time=479),
    Message('note_on', channel=10, note=41, velocity=112, time=1),
    Message('note_on', channel=10, note=41, velocity=0, time=479),
    Message('note_on', channel=10, note=41, velocity=112, time=1),
    Message('note_on', channel=10, note=41, velocity=0, time=479),
    Message('note_on', channel=10, note=41, velocity=112, time=481),
    Message('note_on', channel=10, note=41, velocity=0, time=479),
    Message('note_on', channel=10, note=41, velocity=112, time=1),
    Message('note_on', channel=10, note=41, velocity=0, time=479),
    Message('note_on', channel=10, note=41, velocity=112, time=1),
    Message('note_on', channel=10, note=41, velocity=0, time=479),
    Message('note_on', channel=10, note=48, velocity=112, time=1),
    Message('note_on', channel=10, note=48, velocity=0, time=479),
    Message('note_on', channel=10, note=48, velocity=112, time=1),
    Message('note_on', channel=10, note=48, velocity=0, time=479),
    Message('note_on', channel=10, note=50, velocity=126, time=1),
    Message('note_on', channel=10, note=50, velocity=0, time=719),
    Message('note_on', channel=10, note=45, velocity=126, time=1),
    Message('note_on', channel=10, note=45, velocity=0, time=719),
    Message('note_on', channel=10, note=43, velocity=126, time=1),
    Message('note_on', channel=10, note=43, velocity=0, time=239),
    Message('note_on', channel=10, note=41, velocity=126, time=1),
    Message('note_on', channel=10, note=41, velocity=0, time=239),
    Message('note_on', channel=10, note=43, velocity=126, time=1),
    Message('note_on', channel=10, note=43, velocity=0, time=719),
    Message('note_on', channel=10, note=45, velocity=126, time=1),
    Message('note_on', channel=10, note=45, velocity=0, time=719),
    Message('note_on', channel=10, note=43, velocity=126, time=1),
    Message('note_on', channel=10, note=43, velocity=0, time=239),
    Message('note_on', channel=10, note=41, velocity=126, time=1),
    Message('note_on', channel=10, note=41, velocity=0, time=239),
    Message('note_on', channel=10, note=43, velocity=126, time=1),
    Message('note_on', channel=10, note=43, velocity=0, time=719),
    Message('note_on', channel=10, note=45, velocity=126, time=1),
    Message('note_on', channel=10, note=45, velocity=0, time=479),
    Message('note_on', channel=10, note=41, velocity=126, time=1),
    Message('note_on', channel=10, note=41, velocity=0, time=239),
    Message('note_on', channel=10, note=40, velocity=126, time=1),
    Message('note_on', channel=10, note=40, velocity=0, time=239),
    Message('note_on', channel=10, note=38, velocity=126, time=1),
    Message('note_on', channel=10, note=38, velocity=0, time=2159),
    Message('note_on', channel=10, note=50, velocity=126, time=1),
    Message('note_on', channel=10, note=50, velocity=0, time=719),
    Message('note_on', channel=10, note=45, velocity=126, time=1),
    Message('note_on', channel=10, note=45, velocity=0, time=719),
    Message('note_on', channel=10, note=43, velocity=126, time=1),
    Message('note_on', channel=10, note=43, velocity=0, time=239),
    Message('note_on', channel=10, note=41, velocity=126, time=1),
    Message('note_on', channel=10, note=41, velocity=0, time=239),
    Message('note_on', channel=10, note=43, velocity=126, time=1),
    Message('note_on', channel=10, note=43, velocity=0, time=719),
    Message('note_on', channel=10, note=45, velocity=126, time=1),
    Message('note_on', channel=10, note=45, velocity=0, time=719),
    Message('note_on', channel=10, note=43, velocity=126, time=1),
    Message('note_on', channel=10, note=43, velocity=0, time=239),
    Message('note_on', channel=10, note=41, velocity=126, time=1),
    Message('note_on', channel=10, note=41, velocity=0, time=239),
    Message('note_on', channel=10, note=43, velocity=126, time=1),
    Message('note_on', channel=10, note=43, velocity=0, time=719),
    Message('note_on', channel=10, note=45, velocity=126, time=1),
    Message('note_on', channel=10, note=45, velocity=0, time=479),
    Message('note_on', channel=10, note=41, velocity=126, time=1),
    Message('note_on', channel=10, note=41, velocity=0, time=239),
    Message('note_on', channel=10, note=40, velocity=126, time=1),
    Message('note_on', channel=10, note=40, velocity=0, time=239),
    Message('note_on', channel=10, note=38, velocity=126, time=1),
    Message('note_on', channel=10, note=38, velocity=0, time=2159),
    Message('note_on', channel=10, note=45, velocity=126, time=1),
    Message('note_on', channel=10, note=45, velocity=0, time=719),
    Message('note_on', channel=10, note=45, velocity=126, time=1),
    Message('note_on', channel=10, note=45, velocity=0, time=239),
    Message('note_on', channel=10, note=45, velocity=126, time=1),
    Message('note_on', channel=10, note=45, velocity=0, time=479),
    Message('note_on', channel=10, note=45, velocity=126, time=1),
    Message('note_on', channel=10, note=45, velocity=0, time=719),
    Message('note_on', channel=10, note=45, velocity=126, time=1),
    Message('note_on', channel=10, note=45, velocity=0, time=239),
    Message('note_on', channel=10, note=45, velocity=126, time=1),
    Message('note_on', channel=10, note=45, velocity=0, time=479),
    Message('note_on', channel=10, note=45, velocity=126, time=1),
    Message('note_on', channel=10, note=45, velocity=0, time=239),
    Message('note_on', channel=10, note=45, velocity=126, time=1),
    Message('note_on', channel=10, note=45, velocity=0, time=239),
    Message('note_on', channel=10, note=43, velocity=126, time=1),
    Message('note_on', channel=10, note=43, velocity=0, time=239),
    Message('note_on', channel=10, note=43, velocity=126, time=1),
    Message('note_on', channel=10, note=43, velocity=0, time=239),
    Message('note_on', channel=10, note=45, velocity=126, time=1),
    Message('note_on', channel=10, note=45, velocity=0, time=719),
    Message('note_on', channel=10, note=45, velocity=126, time=1),
    Message('note_on', channel=10, note=45, velocity=0, time=239),
    Message('note_on', channel=10, note=45, velocity=126, time=1),
    Message('note_on', channel=10, note=45, velocity=0, time=479),
    Message('note_on', channel=10, note=45, velocity=126, time=1),
    Message('note_on', channel=10, note=45, velocity=0, time=719),
    Message('note_on', channel=10, note=45, velocity=126, time=1),
    Message('note_on', channel=10, note=45, velocity=0, time=239),
    Message('note_on', channel=10, note=45, velocity=126, time=1),
    Message('note_on', channel=10, note=45, velocity=0, time=479),
    Message('note_on', channel=10, note=45, velocity=126, time=1),
    Message('note_on', channel=10, note=45, velocity=0, time=239),
    Message('note_on', channel=10, note=45, velocity=126, time=1),
    Message('note_on', channel=10, note=45, velocity=0, time=239),
    Message('note_on', channel=10, note=43, velocity=126, time=1),
    Message('note_on', channel=10, note=43, velocity=0, time=239),
    Message('note_on', channel=10, note=43, velocity=126, time=1),
    Message('note_on', channel=10, note=43, velocity=0, time=239),
    Message('note_on', channel=10, note=45, velocity=126, time=1),
    Message('note_on', channel=10, note=45, velocity=0, time=719),
    Message('note_on', channel=10, note=45, velocity=126, time=1),
    Message('note_on', channel=10, note=45, velocity=0, time=239),
    Message('note_on', channel=10, note=45, velocity=126, time=1),
    Message('note_on', channel=10, note=45, velocity=0, time=479),
    Message('note_on', channel=10, note=45, velocity=126, time=1),
    Message('note_on', channel=10, note=45, velocity=0, time=719),
    Message('note_on', channel=10, note=45, velocity=126, time=1),
    Message('note_on', channel=10, note=45, velocity=0, time=239),
    Message('note_on', channel=10, note=45, velocity=126, time=1),
    Message('note_on', channel=10, note=45, velocity=0, time=479),
    Message('note_on', channel=10, note=45, velocity=126, time=1),
    Message('note_on', channel=10, note=45, velocity=0, time=239),
    Message('note_on', channel=10, note=45, velocity=126, time=1),
    Message('note_on', channel=10, note=45, velocity=0, time=239),
    Message('note_on', channel=10, note=43, velocity=126, time=1),
    Message('note_on', channel=10, note=43, velocity=0, time=239),
    Message('note_on', channel=10, note=43, velocity=126, time=1),
    Message('note_on', channel=10, note=43, velocity=0, time=239),
    Message('note_on', channel=10, note=45, velocity=126, time=1),
    Message('note_on', channel=10, note=45, velocity=0, time=719),
    Message('note_on', channel=10, note=45, velocity=126, time=1),
    Message('note_on', channel=10, note=45, velocity=0, time=239),
    Message('note_on', channel=10, note=45, velocity=126, time=1),
    Message('note_on', channel=10, note=45, velocity=0, time=479),
    Message('note_on', channel=10, note=45, velocity=126, time=1),
    Message('note_on', channel=10, note=45, velocity=0, time=719),
    Message('note_on', channel=10, note=45, velocity=126, time=1),
    Message('note_on', channel=10, note=45, velocity=0, time=239),
    Message('note_on', channel=10, note=45, velocity=126, time=1),
    Message('note_on', channel=10, note=45, velocity=0, time=479),
    Message('note_on', channel=10, note=45, velocity=126, time=1),
    Message('note_on', channel=10, note=45, velocity=0, time=239),
    Message('note_on', channel=10, note=45, velocity=126, time=1),
    Message('note_on', channel=10, note=45, velocity=0, time=239),
    Message('note_on', channel=10, note=43, velocity=126, time=1),
    Message('note_on', channel=10, note=43, velocity=0, time=239),
    Message('note_on', channel=10, note=43, velocity=126, time=1),
    Message('note_on', channel=10, note=43, velocity=0, time=239),
    Message('note_on', channel=10, note=45, velocity=126, time=1),
    Message('note_on', channel=10, note=45, velocity=0, time=239),
    Message('note_on', channel=10, note=45, velocity=126, time=1),
    Message('note_on', channel=10, note=45, velocity=0, time=239),
    Message('note_on', channel=10, note=45, velocity=126, time=1),
    Message('note_on', channel=10, note=45, velocity=0, time=239),
    Message('note_on', channel=10, note=45, velocity=126, time=1),
    Message('note_on', channel=10, note=45, velocity=0, time=239),
    Message('note_on', channel=10, note=45, velocity=126, time=1),
    Message('note_on', channel=10, note=45, velocity=0, time=239),
    Message('note_on', channel=10, note=45, velocity=126, time=1),
    Message('note_on', channel=10, note=45, velocity=0, time=239),
    Message('note_on', channel=10, note=45, velocity=126, time=1),
    Message('note_on', channel=10, note=45, velocity=0, time=239),
    Message('note_on', channel=10, note=45, velocity=126, time=1),
    Message('note_on', channel=10, note=45, velocity=0, time=239),
    Message('note_on', channel=10, note=45, velocity=126, time=1),
    Message('note_on', channel=10, note=45, velocity=0, time=239),
    Message('note_on', channel=10, note=45, velocity=126, time=1),
    Message('note_on', channel=10, note=45, velocity=0, time=239),
    Message('note_on', channel=10, note=45, velocity=126, time=1),
    Message('note_on', channel=10, note=45, velocity=0, time=239),
    Message('note_on', channel=10, note=45, velocity=126, time=1),
    Message('note_on', channel=10, note=45, velocity=0, time=239),
    Message('note_on', channel=10, note=45, velocity=126, time=1),
    Message('note_on', channel=10, note=45, velocity=0, time=239),
    Message('note_on', channel=10, note=45, velocity=126, time=1),
    Message('note_on', channel=10, note=45, velocity=0, time=239),
    Message('note_on', channel=10, note=45, velocity=126, time=1),
    Message('note_on', channel=10, note=45, velocity=0, time=239),
    Message('note_on', channel=10, note=45, velocity=126, time=1),
    Message('note_on', channel=10, note=45, velocity=0, time=239),
    Message('note_on', channel=10, note=45, velocity=126, time=1),
    Message('note_on', channel=10, note=45, velocity=0, time=239),
    Message('note_on', channel=10, note=45, velocity=126, time=1),
    Message('note_on', channel=10, note=45, velocity=0, time=239),
    Message('note_on', channel=10, note=45, velocity=126, time=1),
    Message('note_on', channel=10, note=45, velocity=0, time=239),
    Message('note_on', channel=10, note=45, velocity=126, time=1),
    Message('note_on', channel=10, note=45, velocity=0, time=239),
    Message('note_on', channel=10, note=45, velocity=126, time=1),
    Message('note_on', channel=10, note=45, velocity=0, time=239),
    Message('note_on', channel=10, note=45, velocity=126, time=1),
    Message('note_on', channel=10, note=45, velocity=0, time=239),
    Message('note_on', channel=10, note=45, velocity=126, time=1),
    Message('note_on', channel=10, note=45, velocity=0, time=239),
    Message('note_on', channel=10, note=45, velocity=126, time=1),
    Message('note_on', channel=10, note=45, velocity=0, time=239),
    Message('note_on', channel=10, note=45, velocity=126, time=1),
    Message('note_on', channel=10, note=45, velocity=0, time=479),
    Message('note_on', channel=10, note=48, velocity=126, time=2641),
    Message('note_on', channel=10, note=48, velocity=0, time=239),
    Message('note_on', channel=10, note=48, velocity=126, time=1),
    Message('note_on', channel=10, note=48, velocity=0, time=239),
    Message('note_on', channel=10, note=50, velocity=126, time=1),
    Message('note_on', channel=10, note=50, velocity=0, time=239),
    Message('note_on', channel=10, note=50, velocity=126, time=1),
    Message('note_on', channel=10, note=50, velocity=0, time=479),
    Message('note_on', channel=10, note=50, velocity=126, time=1),
    Message('note_on', channel=10, note=50, velocity=0, time=479),
    Message('note_on', channel=10, note=50, velocity=126, time=481),
    Message('note_on', channel=10, note=50, velocity=0, time=479),
    Message('note_on', channel=10, note=46, velocity=126, time=1),
    Message('note_on', channel=10, note=46, velocity=0, time=479),
    Message('note_on', channel=10, note=46, velocity=126, time=1),
    Message('note_on', channel=10, note=46, velocity=0, time=479),
    Message('note_on', channel=10, note=46, velocity=126, time=481),
    Message('note_on', channel=10, note=46, velocity=0, time=479),
    Message('note_on', channel=10, note=41, velocity=126, time=1),
    Message('note_on', channel=10, note=41, velocity=0, time=479),
    Message('note_on', channel=10, note=41, velocity=126, time=1),
    Message('note_on', channel=10, note=41, velocity=0, time=479),
    Message('note_on', channel=10, note=41, velocity=126, time=481),
    Message('note_on', channel=10, note=41, velocity=0, time=479),
    Message('note_on', channel=10, note=41, velocity=126, time=1),
    Message('note_on', channel=10, note=41, velocity=0, time=479),
    Message('note_on', channel=10, note=41, velocity=126, time=1),
    Message('note_on', channel=10, note=41, velocity=0, time=479),
    Message('note_on', channel=10, note=48, velocity=126, time=1),
    Message('note_on', channel=10, note=48, velocity=0, time=479),
    Message('note_on', channel=10, note=48, velocity=126, time=1),
    Message('note_on', channel=10, note=48, velocity=0, time=479),
    Message('note_on', channel=10, note=50, velocity=126, time=1),
    Message('note_on', channel=10, note=50, velocity=0, time=479),
    Message('note_on', channel=10, note=50, velocity=126, time=1),
    Message('note_on', channel=10, note=50, velocity=0, time=479),
    Message('note_on', channel=10, note=50, velocity=126, time=481),
    Message('note_on', channel=10, note=50, velocity=0, time=479),
    Message('note_on', channel=10, note=46, velocity=126, time=1),
    Message('note_on', channel=10, note=46, velocity=0, time=479),
    Message('note_on', channel=10, note=46, velocity=126, time=1),
    Message('note_on', channel=10, note=46, velocity=0, time=479),
    Message('note_on', channel=10, note=46, velocity=126, time=481),
    Message('note_on', channel=10, note=46, velocity=0, time=479),
    Message('note_on', channel=10, note=41, velocity=126, time=1),
    Message('note_on', channel=10, note=41, velocity=0, time=479),
    Message('note_on', channel=10, note=41, velocity=126, time=1),
    Message('note_on', channel=10, note=41, velocity=0, time=479),
    Message('note_on', channel=10, note=41, velocity=126, time=481),
    Message('note_on', channel=10, note=41, velocity=0, time=479),
    Message('note_on', channel=10, note=41, velocity=126, time=1),
    Message('note_on', channel=10, note=41, velocity=0, time=479),
    Message('note_on', channel=10, note=41, velocity=126, time=1),
    Message('note_on', channel=10, note=41, velocity=0, time=479),
    Message('note_on', channel=10, note=48, velocity=126, time=1),
    Message('note_on', channel=10, note=48, velocity=0, time=479),
    Message('note_on', channel=10, note=48, velocity=126, time=1),
    Message('note_on', channel=10, note=48, velocity=0, time=479),
    Message('note_on', channel=10, note=50, velocity=126, time=1),
    Message('note_on', channel=10, note=50, velocity=0, time=719),
    Message('note_on', channel=10, note=45, velocity=126, time=1),
    Message('note_on', channel=10, note=45, velocity=0, time=719),
    Message('note_on', channel=10, note=43, velocity=126, time=1),
    Message('note_on', channel=10, note=43, velocity=0, time=239),
    Message('note_on', channel=10, note=41, velocity=126, time=1),
    Message('note_on', channel=10, note=41, velocity=0, time=239),
    Message('note_on', channel=10, note=43, velocity=126, time=1),
    Message('note_on', channel=10, note=43, velocity=0, time=719),
    Message('note_on', channel=10, note=45, velocity=126, time=1),
    Message('note_on', channel=10, note=45, velocity=0, time=719),
    Message('note_on', channel=10, note=43, velocity=126, time=1),
    Message('note_on', channel=10, note=43, velocity=0, time=239),
    Message('note_on', channel=10, note=41, velocity=126, time=1),
    Message('note_on', channel=10, note=41, velocity=0, time=239),
    Message('note_on', channel=10, note=43, velocity=126, time=1),
    Message('note_on', channel=10, note=43, velocity=0, time=719),
    Message('note_on', channel=10, note=45, velocity=126, time=1),
    Message('note_on', channel=10, note=45, velocity=0, time=479),
    Message('note_on', channel=10, note=41, velocity=126, time=1),
    Message('note_on', channel=10, note=41, velocity=0, time=239),
    Message('note_on', channel=10, note=40, velocity=126, time=1),
    Message('note_on', channel=10, note=40, velocity=0, time=239),
    Message('note_on', channel=10, note=38, velocity=126, time=1),
    Message('note_on', channel=10, note=38, velocity=0, time=2159),
    Message('note_on', channel=10, note=50, velocity=126, time=1),
    Message('note_on', channel=10, note=50, velocity=0, time=719),
    Message('note_on', channel=10, note=45, velocity=126, time=1),
    Message('note_on', channel=10, note=45, velocity=0, time=719),
    Message('note_on', channel=10, note=43, velocity=126, time=1),
    Message('note_on', channel=10, note=43, velocity=0, time=239),
    Message('note_on', channel=10, note=41, velocity=126, time=1),
    Message('note_on', channel=10, note=41, velocity=0, time=239),
    Message('note_on', channel=10, note=43, velocity=126, time=1),
    Message('note_on', channel=10, note=43, velocity=0, time=719),
    Message('note_on', channel=10, note=45, velocity=126, time=1),
    Message('note_on', channel=10, note=45, velocity=0, time=719),
    Message('note_on', channel=10, note=43, velocity=126, time=1),
    Message('note_on', channel=10, note=43, velocity=0, time=239),
    Message('note_on', channel=10, note=41, velocity=126, time=1),
    Message('note_on', channel=10, note=41, velocity=0, time=239),
    Message('note_on', channel=10, note=43, velocity=126, time=1),
    Message('note_on', channel=10, note=43, velocity=0, time=719),
    Message('note_on', channel=10, note=45, velocity=126, time=1),
    Message('note_on', channel=10, note=45, velocity=0, time=479),
    Message('note_on', channel=10, note=41, velocity=126, time=1),
    Message('note_on', channel=10, note=41, velocity=0, time=239),
    Message('note_on', channel=10, note=40, velocity=126, time=1),
    Message('note_on', channel=10, note=40, velocity=0, time=239),
    Message('note_on', channel=10, note=38, velocity=126, time=1),
    Message('note_on', channel=10, note=38, velocity=0, time=2159),
    MetaMessage('end_of_track', time=1)]),
  MidiTrack([
    MetaMessage('key_signature', key='F', time=0),
    Message('note_on', channel=10, note=38, velocity=80, time=7680),
    Message('note_on', channel=10, note=38, velocity=0, time=479),
    Message('note_on', channel=10, note=45, velocity=80, time=1),
    Message('note_on', channel=10, note=45, velocity=0, time=479),
    Message('note_on', channel=10, note=45, velocity=80, time=1),
    Message('note_on', channel=10, note=45, velocity=0, time=479),
    Message('note_on', channel=10, note=45, velocity=80, time=1),
    Message('note_on', channel=10, note=45, velocity=0, time=479),
    Message('note_on', channel=10, note=45, velocity=80, time=1),
    Message('note_on', channel=10, note=45, velocity=0, time=479),
    Message('note_on', channel=10, note=45, velocity=80, time=1),
    Message('note_on', channel=10, note=45, velocity=0, time=479),
    Message('note_on', channel=10, note=45, velocity=80, time=1),
    Message('note_on', channel=10, note=45, velocity=0, time=479),
    Message('note_on', channel=10, note=45, velocity=80, time=1),
    Message('note_on', channel=10, note=45, velocity=0, time=479),
    Message('note_on', channel=10, note=45, velocity=80, time=1),
    Message('note_on', channel=10, note=45, velocity=0, time=479),
    Message('note_on', channel=10, note=45, velocity=80, time=1),
    Message('note_on', channel=10, note=45, velocity=0, time=479),
    Message('note_on', channel=10, note=45, velocity=80, time=1),
    Message('note_on', channel=10, note=45, velocity=0, time=479),
    Message('note_on', channel=10, note=45, velocity=80, time=1),
    Message('note_on', channel=10, note=45, velocity=0, time=479),
    Message('note_on', channel=10, note=45, velocity=80, time=1),
    Message('note_on', channel=10, note=45, velocity=0, time=479),
    Message('note_on', channel=10, note=45, velocity=80, time=1),
    Message('note_on', channel=10, note=45, velocity=0, time=479),
    Message('note_on', channel=10, note=45, velocity=80, time=1),
    Message('note_on', channel=10, note=45, velocity=0, time=479),
    Message('note_on', channel=10, note=45, velocity=80, time=1),
    Message('note_on', channel=10, note=45, velocity=0, time=479),
    Message('note_on', channel=10, note=38, velocity=80, time=1),
    Message('note_on', channel=10, note=38, velocity=0, time=239),
    Message('note_on', channel=10, note=38, velocity=80, time=1),
    Message('note_on', channel=10, note=38, velocity=0, time=239),
    Message('note_on', channel=10, note=45, velocity=80, time=1),
    Message('note_on', channel=10, note=45, velocity=0, time=239),
    Message('note_on', channel=10, note=45, velocity=80, time=1),
    Message('note_on', channel=10, note=45, velocity=0, time=239),
    Message('note_on', channel=10, note=45, velocity=80, time=1),
    Message('note_on', channel=10, note=45, velocity=0, time=239),
    Message('note_on', channel=10, note=45, velocity=80, time=1),
    Message('note_on', channel=10, note=45, velocity=0, time=239),
    Message('note_on', channel=10, note=45, velocity=80, time=1),
    Message('note_on', channel=10, note=45, velocity=0, time=239),
    Message('note_on', channel=10, note=45, velocity=80, time=1),
    Message('note_on', channel=10, note=45, velocity=0, time=239),
    Message('note_on', channel=10, note=45, velocity=80, time=1),
    Message('note_on', channel=10, note=45, velocity=0, time=239),
    Message('note_on', channel=10, note=45, velocity=80, time=1),
    Message('note_on', channel=10, note=45, velocity=0, time=239),
    Message('note_on', channel=10, note=45, velocity=80, time=1),
    Message('note_on', channel=10, note=45, velocity=0, time=239),
    Message('note_on', channel=10, note=45, velocity=80, time=1),
    Message('note_on', channel=10, note=45, velocity=0, time=239),
    Message('note_on', channel=10, note=45, velocity=80, time=1),
    Message('note_on', channel=10, note=45, velocity=0, time=239),
    Message('note_on', channel=10, note=45, velocity=80, time=1),
    Message('note_on', channel=10, note=45, velocity=0, time=239),
    Message('note_on', channel=10, note=45, velocity=80, time=1),
    Message('note_on', channel=10, note=45, velocity=0, time=239),
    Message('note_on', channel=10, note=45, velocity=80, time=1),
    Message('note_on', channel=10, note=45, velocity=0, time=239),
    Message('note_on', channel=10, note=45, velocity=80, time=1),
    Message('note_on', channel=10, note=45, velocity=0, time=239),
    Message('note_on', channel=10, note=45, velocity=80, time=1),
    Message('note_on', channel=10, note=45, velocity=0, time=239),
    Message('note_on', channel=10, note=45, velocity=80, time=1),
    Message('note_on', channel=10, note=45, velocity=0, time=239),
    Message('note_on', channel=10, note=45, velocity=80, time=1),
    Message('note_on', channel=10, note=45, velocity=0, time=239),
    Message('note_on', channel=10, note=45, velocity=80, time=1),
    Message('note_on', channel=10, note=45, velocity=0, time=239),
    Message('note_on', channel=10, note=45, velocity=80, time=1),
    Message('note_on', channel=10, note=45, velocity=0, time=239),
    Message('note_on', channel=10, note=45, velocity=80, time=1),
    Message('note_on', channel=10, note=45, velocity=0, time=239),
    Message('note_on', channel=10, note=45, velocity=80, time=1),
    Message('note_on', channel=10, note=45, velocity=0, time=239),
    Message('note_on', channel=10, note=45, velocity=80, time=1),
    Message('note_on', channel=10, note=45, velocity=0, time=239),
    Message('note_on', channel=10, note=45, velocity=80, time=1),
    Message('note_on', channel=10, note=45, velocity=0, time=239),
    Message('note_on', channel=10, note=45, velocity=80, time=1),
    Message('note_on', channel=10, note=45, velocity=0, time=239),
    Message('note_on', channel=10, note=45, velocity=80, time=1),
    Message('note_on', channel=10, note=45, velocity=0, time=239),
    Message('note_on', channel=10, note=45, velocity=80, time=1),
    Message('note_on', channel=10, note=45, velocity=0, time=239),
    Message('note_on', channel=10, note=45, velocity=80, time=1),
    Message('note_on', channel=10, note=45, velocity=0, time=239),
    Message('note_on', channel=10, note=45, velocity=80, time=1),
    Message('note_on', channel=10, note=45, velocity=0, time=239),
    Message('note_on', channel=10, note=45, velocity=80, time=1),
    Message('note_on', channel=10, note=45, velocity=0, time=239),
    Message('note_on', channel=10, note=38, velocity=80, time=1),
    Message('note_on', channel=10, note=38, velocity=0, time=1919),
    Message('note_on', channel=10, note=38, velocity=126, time=1),
    Message('note_on', channel=10, note=38, velocity=0, time=479),
    Message('note_on', channel=10, note=38, velocity=126, time=1),
    Message('note_on', channel=10, note=38, velocity=0, time=1439),
    Message('note_on', channel=10, note=41, velocity=80, time=1),
    Message('note_on', channel=10, note=41, velocity=0, time=239),
    Message('note_on', channel=10, note=41, velocity=80, time=1),
    Message('note_on', channel=10, note=41, velocity=0, time=239),
    Message('note_on', channel=10, note=34, velocity=80, time=1),
    Message('note_on', channel=10, note=34, velocity=0, time=239),
    Message('note_on', channel=10, note=34, velocity=80, time=1),
    Message('note_on', channel=10, note=34, velocity=0, time=239),
    Message('note_on', channel=10, note=34, velocity=80, time=1),
    Message('note_on', channel=10, note=34, velocity=0, time=239),
    Message('note_on', channel=10, note=34, velocity=80, time=1),
    Message('note_on', channel=10, note=34, velocity=0, time=239),
    Message('note_on', channel=10, note=34, velocity=80, time=1),
    Message('note_on', channel=10, note=34, velocity=0, time=239),
    Message('note_on', channel=10, note=34, velocity=80, time=1),
    Message('note_on', channel=10, note=34, velocity=0, time=239),
    Message('note_on', channel=10, note=34, velocity=80, time=1),
    Message('note_on', channel=10, note=34, velocity=0, time=239),
    Message('note_on', channel=10, note=34, velocity=80, time=1),
    Message('note_on', channel=10, note=34, velocity=0, time=239),
    Message('note_on', channel=10, note=34, velocity=80, time=1),
    Message('note_on', channel=10, note=34, velocity=0, time=239),
    Message('note_on', channel=10, note=34, velocity=80, time=1),
    Message('note_on', channel=10, note=34, velocity=0, time=239),
    Message('note_on', channel=10, note=34, velocity=80, time=1),
    Message('note_on', channel=10, note=34, velocity=0, time=239),
    Message('note_on', channel=10, note=34, velocity=80, time=1),
    Message('note_on', channel=10, note=34, velocity=0, time=239),
    Message('note_on', channel=10, note=34, velocity=80, time=1),
    Message('note_on', channel=10, note=34, velocity=0, time=239),
    Message('note_on', channel=10, note=34, velocity=80, time=1),
    Message('note_on', channel=10, note=34, velocity=0, time=239),
    Message('note_on', channel=10, note=38, velocity=80, time=1),
    Message('note_on', channel=10, note=38, velocity=0, time=239),
    Message('note_on', channel=10, note=38, velocity=80, time=1),
    Message('note_on', channel=10, note=38, velocity=0, time=239),
    Message('note_on', channel=10, note=38, velocity=80, time=1),
    Message('note_on', channel=10, note=38, velocity=0, time=239),
    Message('note_on', channel=10, note=38, velocity=80, time=1),
    Message('note_on', channel=10, note=38, velocity=0, time=239),
    Message('note_on', channel=10, note=38, velocity=80, time=1),
    Message('note_on', channel=10, note=38, velocity=0, time=239),
    Message('note_on', channel=10, note=38, velocity=80, time=1),
    Message('note_on', channel=10, note=38, velocity=0, time=239),
    Message('note_on', channel=10, note=38, velocity=80, time=1),
    Message('note_on', channel=10, note=38, velocity=0, time=239),
    Message('note_on', channel=10, note=38, velocity=80, time=1),
    Message('note_on', channel=10, note=38, velocity=0, time=239),
    Message('note_on', channel=10, note=38, velocity=80, time=1),
    Message('note_on', channel=10, note=38, velocity=0, time=239),
    Message('note_on', channel=10, note=38, velocity=80, time=1),
    Message('note_on', channel=10, note=38, velocity=0, time=239),
    Message('note_on', channel=10, note=38, velocity=80, time=1),
    Message('note_on', channel=10, note=38, velocity=0, time=239),
    Message('note_on', channel=10, note=38, velocity=80, time=1),
    Message('note_on', channel=10, note=38, velocity=0, time=239),
    Message('note_on', channel=10, note=38, velocity=80, time=1),
    Message('note_on', channel=10, note=38, velocity=0, time=239),
    Message('note_on', channel=10, note=38, velocity=80, time=1),
    Message('note_on', channel=10, note=38, velocity=0, time=239),
    Message('note_on', channel=10, note=38, velocity=80, time=1),
    Message('note_on', channel=10, note=38, velocity=0, time=239),
    Message('note_on', channel=10, note=38, velocity=80, time=1),
    Message('note_on', channel=10, note=38, velocity=0, time=239),
    Message('note_on', channel=10, note=41, velocity=80, time=1),
    Message('note_on', channel=10, note=41, velocity=0, time=239),
    Message('note_on', channel=10, note=41, velocity=80, time=1),
    Message('note_on', channel=10, note=41, velocity=0, time=239),
    Message('note_on', channel=10, note=46, velocity=80, time=1),
    Message('note_on', channel=10, note=46, velocity=0, time=239),
    Message('note_on', channel=10, note=46, velocity=80, time=1),
    Message('note_on', channel=10, note=46, velocity=0, time=239),
    Message('note_on', channel=10, note=46, velocity=80, time=1),
    Message('note_on', channel=10, note=46, velocity=0, time=239),
    Message('note_on', channel=10, note=46, velocity=80, time=1),
    Message('note_on', channel=10, note=46, velocity=0, time=239),
    Message('note_on', channel=10, note=46, velocity=80, time=1),
    Message('note_on', channel=10, note=46, velocity=0, time=239),
    Message('note_on', channel=10, note=46, velocity=80, time=1),
    Message('note_on', channel=10, note=46, velocity=0, time=239),
    Message('note_on', channel=10, note=46, velocity=80, time=1),
    Message('note_on', channel=10, note=46, velocity=0, time=239),
    Message('note_on', channel=10, note=46, velocity=80, time=1),
    Message('note_on', channel=10, note=46, velocity=0, time=239),
    Message('note_on', channel=10, note=46, velocity=80, time=1),
    Message('note_on', channel=10, note=46, velocity=0, time=239),
    Message('note_on', channel=10, note=46, velocity=80, time=1),
    Message('note_on', channel=10, note=46, velocity=0, time=239),
    Message('note_on', channel=10, note=41, velocity=80, time=1),
    Message('note_on', channel=10, note=41, velocity=0, time=239),
    Message('note_on', channel=10, note=41, velocity=80, time=1),
    Message('note_on', channel=10, note=41, velocity=0, time=239),
    Message('note_on', channel=10, note=38, velocity=80, time=1),
    Message('note_on', channel=10, note=38, velocity=0, time=239),
    Message('note_on', channel=10, note=38, velocity=80, time=1),
    Message('note_on', channel=10, note=38, velocity=0, time=239),
    Message('note_on', channel=10, note=38, velocity=80, time=1),
    Message('note_on', channel=10, note=38, velocity=0, time=239),
    Message('note_on', channel=10, note=38, velocity=80, time=1),
    Message('note_on', channel=10, note=38, velocity=0, time=239),
    Message('note_on', channel=10, note=38, velocity=80, time=1),
    Message('note_on', channel=10, note=38, velocity=0, time=239),
    Message('note_on', channel=10, note=38, velocity=80, time=1),
    Message('note_on', channel=10, note=38, velocity=0, time=239),
    Message('note_on', channel=10, note=38, velocity=80, time=1),
    Message('note_on', channel=10, note=38, velocity=0, time=239),
    Message('note_on', channel=10, note=38, velocity=80, time=1),
    Message('note_on', channel=10, note=38, velocity=0, time=239),
    Message('note_on', channel=10, note=38, velocity=80, time=1),
    Message('note_on', channel=10, note=38, velocity=0, time=239),
    Message('note_on', channel=10, note=38, velocity=80, time=1),
    Message('note_on', channel=10, note=38, velocity=0, time=239),
    Message('note_on', channel=10, note=38, velocity=80, time=1),
    Message('note_on', channel=10, note=38, velocity=0, time=239),
    Message('note_on', channel=10, note=38, velocity=80, time=1),
    Message('note_on', channel=10, note=38, velocity=0, time=239),
    Message('note_on', channel=10, note=38, velocity=80, time=1),
    Message('note_on', channel=10, note=38, velocity=0, time=239),
    Message('note_on', channel=10, note=38, velocity=80, time=1),
    Message('note_on', channel=10, note=38, velocity=0, time=239),
    Message('note_on', channel=10, note=38, velocity=80, time=1),
    Message('note_on', channel=10, note=38, velocity=0, time=239),
    Message('note_on', channel=10, note=38, velocity=80, time=1),
    Message('note_on', channel=10, note=38, velocity=0, time=239),
    Message('note_on', channel=10, note=45, velocity=80, time=1),
    Message('note_on', channel=10, note=45, velocity=0, time=239),
    Message('note_on', channel=10, note=45, velocity=80, time=1),
    Message('note_on', channel=10, note=45, velocity=0, time=239),
    Message('note_on', channel=10, note=46, velocity=80, time=1),
    Message('note_on', channel=10, note=46, velocity=0, time=239),
    Message('note_on', channel=10, note=46, velocity=80, time=1),
    Message('note_on', channel=10, note=46, velocity=0, time=239),
    Message('note_on', channel=10, note=46, velocity=80, time=1),
    Message('note_on', channel=10, note=46, velocity=0, time=239),
    Message('note_on', channel=10, note=46, velocity=80, time=1),
    Message('note_on', channel=10, note=46, velocity=0, time=239),
    Message('note_on', channel=10, note=46, velocity=80, time=1),
    Message('note_on', channel=10, note=46, velocity=0, time=239),
    Message('note_on', channel=10, note=46, velocity=80, time=1),
    Message('note_on', channel=10, note=46, velocity=0, time=239),
    Message('note_on', channel=10, note=46, velocity=80, time=1),
    Message('note_on', channel=10, note=46, velocity=0, time=239),
    Message('note_on', channel=10, note=46, velocity=80, time=1),
    Message('note_on', channel=10, note=46, velocity=0, time=239),
    Message('note_on', channel=10, note=41, velocity=80, time=1),
    Message('note_on', channel=10, note=41, velocity=0, time=239),
    Message('note_on', channel=10, note=41, velocity=80, time=1),
    Message('note_on', channel=10, note=41, velocity=0, time=239),
    Message('note_on', channel=10, note=41, velocity=80, time=1),
    Message('note_on', channel=10, note=41, velocity=0, time=239),
    Message('note_on', channel=10, note=41, velocity=80, time=1),
    Message('note_on', channel=10, note=41, velocity=0, time=239),
    Message('note_on', channel=10, note=46, velocity=80, time=1),
    Message('note_on', channel=10, note=46, velocity=0, time=239),
    Message('note_on', channel=10, note=46, velocity=80, time=1),
    Message('note_on', channel=10, note=46, velocity=0, time=239),
    Message('note_on', channel=10, note=46, velocity=80, time=1),
    Message('note_on', channel=10, note=46, velocity=0, time=239),
    Message('note_on', channel=10, note=46, velocity=80, time=1),
    Message('note_on', channel=10, note=46, velocity=0, time=239),
    Message('note_on', channel=10, note=45, velocity=80, time=1),
    Message('note_on', channel=10, note=45, velocity=0, time=239),
    Message('note_on', channel=10, note=45, velocity=80, time=1),
    Message('note_on', channel=10, note=45, velocity=0, time=239),
    Message('note_on', channel=10, note=45, velocity=80, time=1),
    Message('note_on', channel=10, note=45, velocity=0, time=239),
    Message('note_on', channel=10, note=45, velocity=80, time=1),
    Message('note_on', channel=10, note=45, velocity=0, time=239),
    Message('note_on', channel=10, note=45, velocity=80, time=1),
    Message('note_on', channel=10, note=45, velocity=0, time=239),
    Message('note_on', channel=10, note=45, velocity=80, time=1),
    Message('note_on', channel=10, note=45, velocity=0, time=239),
    Message('note_on', channel=10, note=45, velocity=80, time=1),
    Message('note_on', channel=10, note=45, velocity=0, time=239),
    Message('note_on', channel=10, note=45, velocity=80, time=1),
    Message('note_on', channel=10, note=45, velocity=0, time=239),
    Message('note_on', channel=10, note=45, velocity=80, time=1),
    Message('note_on', channel=10, note=45, velocity=0, time=239),
    Message('note_on', channel=10, note=45, velocity=80, time=1),
    Message('note_on', channel=10, note=45, velocity=0, time=239),
    Message('note_on', channel=10, note=45, velocity=80, time=1),
    Message('note_on', channel=10, note=45, velocity=0, time=239),
    Message('note_on', channel=10, note=45, velocity=80, time=1),
    Message('note_on', channel=10, note=45, velocity=0, time=239),
    Message('note_on', channel=10, note=45, velocity=80, time=1),
    Message('note_on', channel=10, note=45, velocity=0, time=239),
    Message('note_on', channel=10, note=45, velocity=80, time=1),
    Message('note_on', channel=10, note=45, velocity=0, time=239),
    Message('note_on', channel=10, note=45, velocity=80, time=1),
    Message('note_on', channel=10, note=45, velocity=0, time=239),
    Message('note_on', channel=10, note=45, velocity=80, time=1),
    Message('note_on', channel=10, note=45, velocity=0, time=239),
    Message('note_on', channel=10, note=41, velocity=80, time=1),
    Message('note_on', channel=10, note=41, velocity=0, time=239),
    Message('note_on', channel=10, note=41, velocity=80, time=1),
    Message('note_on', channel=10, note=41, velocity=0, time=239),
    Message('note_on', channel=10, note=46, velocity=80, time=1),
    Message('note_on', channel=10, note=46, velocity=0, time=239),
    Message('note_on', channel=10, note=46, velocity=80, time=1),
    Message('note_on', channel=10, note=46, velocity=0, time=239),
    Message('note_on', channel=10, note=46, velocity=80, time=1),
    Message('note_on', channel=10, note=46, velocity=0, time=239),
    Message('note_on', channel=10, note=46, velocity=80, time=1),
    Message('note_on', channel=10, note=46, velocity=0, time=239),
    Message('note_on', channel=10, note=46, velocity=80, time=1),
    Message('note_on', channel=10, note=46, velocity=0, time=239),
    Message('note_on', channel=10, note=46, velocity=80, time=1),
    Message('note_on', channel=10, note=46, velocity=0, time=239),
    Message('note_on', channel=10, note=46, velocity=80, time=1),
    Message('note_on', channel=10, note=46, velocity=0, time=959),
    Message('note_on', channel=10, note=38, velocity=112, time=1),
    Message('note_on', channel=10, note=38, velocity=0, time=479),
    Message('note_on', channel=10, note=40, velocity=112, time=1),
    Message('note_on', channel=10, note=40, velocity=0, time=479),
    Message('note_on', channel=10, note=41, velocity=112, time=1),
    Message('note_on', channel=10, note=41, velocity=0, time=479),
    Message('note_on', channel=10, note=40, velocity=112, time=1),
    Message('note_on', channel=10, note=40, velocity=0, time=479),
    Message('note_on', channel=10, note=38, velocity=112, time=1),
    Message('note_on', channel=10, note=38, velocity=0, time=479),
    Message('note_on', channel=10, note=41, velocity=112, time=1),
    Message('note_on', channel=10, note=41, velocity=0, time=479),
    Message('note_on', channel=10, note=43, velocity=112, time=1),
    Message('note_on', channel=10, note=43, velocity=0, time=479),
    Message('note_on', channel=10, note=41, velocity=112, time=1),
    Message('note_on', channel=10, note=41, velocity=0, time=479),
    Message('note_on', channel=10, note=40, velocity=112, time=1),
    Message('note_on', channel=10, note=40, velocity=0, time=479),
    Message('note_on', channel=10, note=45, velocity=112, time=1),
    Message('note_on', channel=10, note=45, velocity=0, time=959),
    Message('note_on', channel=10, note=46, velocity=112, time=1),
    Message('note_on', channel=10, note=46, velocity=0, time=239),
    Message('note_on', channel=10, note=45, velocity=112, time=1),
    Message('note_on', channel=10, note=45, velocity=0, time=719),
    Message('note_on', channel=10, note=46, velocity=112, time=1),
    Message('note_on', channel=10, note=46, velocity=0, time=239),
    Message('note_on', channel=10, note=45, velocity=112, time=1),
    Message('note_on', channel=10, note=45, velocity=0, time=719),
    Message('note_on', channel=10, note=48, velocity=126, time=4561),
    Message('note_on', channel=10, note=48, velocity=0, time=239),
    Message('note_on', channel=10, note=48, velocity=126, time=1),
    Message('note_on', channel=10, note=48, velocity=0, time=239),
    Message('note_on', channel=10, note=50, velocity=126, time=1),
    Message('note_on', channel=10, note=50, velocity=0, time=239),
    Message('note_on', channel=10, note=45, velocity=112, time=1),
    Message('note_on', channel=10, note=45, velocity=0, time=479),
    Message('note_on', channel=10, note=45, velocity=112, time=1),
    Message('note_on', channel=10, note=45, velocity=0, time=479),
    Message('note_on', channel=10, note=45, velocity=112, time=481),
    Message('note_on', channel=10, note=45, velocity=0, time=479),
    Message('note_on', channel=10, note=41, velocity=112, time=1),
    Message('note_on', channel=10, note=41, velocity=0, time=479),
    Message('note_on', channel=10, note=41, velocity=112, time=1),
    Message('note_on', channel=10, note=41, velocity=0, time=479),
    Message('note_on', channel=10, note=46, velocity=112, time=481),
    Message('note_on', channel=10, note=46, velocity=0, time=479),
    Message('note_on', channel=10, note=36, velocity=112, time=1),
    Message('note_on', channel=10, note=36, velocity=0, time=479),
    Message('note_on', channel=10, note=36, velocity=112, time=1),
    Message('note_on', channel=10, note=36, velocity=0, time=479),
    Message('note_on', channel=10, note=41, velocity=112, time=481),
    Message('note_on', channel=10, note=41, velocity=0, time=479),
    Message('note_on', channel=10, note=36, velocity=112, time=1),
    Message('note_on', channel=10, note=36, velocity=0, time=479),
    Message('note_on', channel=10, note=36, velocity=112, time=1),
    Message('note_on', channel=10, note=36, velocity=0, time=479),
    Message('note_on', channel=10, note=43, velocity=112, time=1),
    Message('note_on', channel=10, note=43, velocity=0, time=479),
    Message('note_on', channel=10, note=43, velocity=112, time=1),
    Message('note_on', channel=10, note=43, velocity=0, time=479),
    Message('note_on', channel=10, note=45, velocity=112, time=1),
    Message('note_on', channel=10, note=45, velocity=0, time=479),
    Message('note_on', channel=10, note=45, velocity=112, time=1),
    Message('note_on', channel=10, note=45, velocity=0, time=479),
    Message('note_on', channel=10, note=45, velocity=112, time=481),
    Message('note_on', channel=10, note=45, velocity=0, time=479),
    Message('note_on', channel=10, note=41, velocity=112, time=1),
    Message('note_on', channel=10, note=41, velocity=0, time=479),
    Message('note_on', channel=10, note=41, velocity=112, time=1),
    Message('note_on', channel=10, note=41, velocity=0, time=479),
    Message('note_on', channel=10, note=46, velocity=112, time=481),
    Message('note_on', channel=10, note=46, velocity=0, time=479),
    Message('note_on', channel=10, note=36, velocity=112, time=1),
    Message('note_on', channel=10, note=36, velocity=0, time=479),
    Message('note_on', channel=10, note=36, velocity=112, time=1),
    Message('note_on', channel=10, note=36, velocity=0, time=479),
    Message('note_on', channel=10, note=36, velocity=112, time=481),
    Message('note_on', channel=10, note=36, velocity=0, time=479),
    Message('note_on', channel=10, note=36, velocity=112, time=1),
    Message('note_on', channel=10, note=36, velocity=0, time=479),
    Message('note_on', channel=10, note=36, velocity=112, time=1),
    Message('note_on', channel=10, note=36, velocity=0, time=479),
    Message('note_on', channel=10, note=43, velocity=112, time=1),
    Message('note_on', channel=10, note=43, velocity=0, time=479),
    Message('note_on', channel=10, note=43, velocity=112, time=1),
    Message('note_on', channel=10, note=43, velocity=0, time=479),
    Message('note_on', channel=10, note=45, velocity=126, time=1),
    Message('note_on', channel=10, note=45, velocity=0, time=479),
    Message('note_on', channel=10, note=45, velocity=126, time=1),
    Message('note_on', channel=10, note=45, velocity=0, time=479),
    Message('note_on', channel=10, note=50, velocity=126, time=1),
    Message('note_on', channel=10, note=50, velocity=0, time=479),
    Message('note_on', channel=10, note=50, velocity=126, time=1),
    Message('note_on', channel=10, note=50, velocity=0, time=479),
    Message('note_on', channel=10, note=41, velocity=126, time=1),
    Message('note_on', channel=10, note=41, velocity=0, time=479),
    Message('note_on', channel=10, note=41, velocity=126, time=1),
    Message('note_on', channel=10, note=41, velocity=0, time=479),
    Message('note_on', channel=10, note=46, velocity=126, time=1),
    Message('note_on', channel=10, note=46, velocity=0, time=479),
    Message('note_on', channel=10, note=46, velocity=126, time=1),
    Message('note_on', channel=10, note=46, velocity=0, time=479),
    Message('note_on', channel=10, note=48, velocity=126, time=1),
    Message('note_on', channel=10, note=48, velocity=0, time=479),
    Message('note_on', channel=10, note=48, velocity=126, time=1),
    Message('note_on', channel=10, note=48, velocity=0, time=479),
    Message('note_on', channel=10, note=53, velocity=126, time=1),
    Message('note_on', channel=10, note=53, velocity=0, time=479),
    Message('note_on', channel=10, note=53, velocity=126, time=1),
    Message('note_on', channel=10, note=53, velocity=0, time=479),
    Message('note_on', channel=10, note=53, velocity=126, time=1),
    Message('note_on', channel=10, note=53, velocity=0, time=479),
    Message('note_on', channel=10, note=53, velocity=126, time=1),
    Message('note_on', channel=10, note=53, velocity=0, time=479),
    Message('note_on', channel=10, note=43, velocity=126, time=1),
    Message('note_on', channel=10, note=43, velocity=0, time=479),
    Message('note_on', channel=10, note=43, velocity=126, time=1),
    Message('note_on', channel=10, note=43, velocity=0, time=479),
    Message('note_on', channel=10, note=45, velocity=126, time=1),
    Message('note_on', channel=10, note=45, velocity=0, time=479),
    Message('note_on', channel=10, note=45, velocity=126, time=1),
    Message('note_on', channel=10, note=45, velocity=0, time=479),
    Message('note_on', channel=10, note=50, velocity=126, time=1),
    Message('note_on', channel=10, note=50, velocity=0, time=479),
    Message('note_on', channel=10, note=50, velocity=126, time=1),
    Message('note_on', channel=10, note=50, velocity=0, time=479),
    Message('note_on', channel=10, note=41, velocity=126, time=1),
    Message('note_on', channel=10, note=41, velocity=0, time=479),
    Message('note_on', channel=10, note=41, velocity=126, time=1),
    Message('note_on', channel=10, note=41, velocity=0, time=479),
    Message('note_on', channel=10, note=46, velocity=126, time=1),
    Message('note_on', channel=10, note=46, velocity=0, time=479),
    Message('note_on', channel=10, note=46, velocity=126, time=1),
    Message('note_on', channel=10, note=46, velocity=0, time=479),
    Message('note_on', channel=10, note=36, velocity=126, time=1),
    Message('note_on', channel=10, note=36, velocity=0, time=479),
    Message('note_on', channel=10, note=36, velocity=126, time=1),
    Message('note_on', channel=10, note=36, velocity=0, time=479),
    Message('note_on', channel=10, note=41, velocity=126, time=1),
    Message('note_on', channel=10, note=41, velocity=0, time=479),
    Message('note_on', channel=10, note=41, velocity=126, time=1),
    Message('note_on', channel=10, note=41, velocity=0, time=479),
    Message('note_on', channel=10, note=41, velocity=126, time=1),
    Message('note_on', channel=10, note=41, velocity=0, time=479),
    Message('note_on', channel=10, note=45, velocity=126, time=1),
    Message('note_on', channel=10, note=45, velocity=0, time=239),
    Message('note_on', channel=10, note=45, velocity=126, time=1),
    Message('note_on', channel=10, note=45, velocity=0, time=239),
    Message('note_on', channel=10, note=45, velocity=126, time=1),
    Message('note_on', channel=10, note=45, velocity=0, time=479),
    Message('note_on', channel=10, note=45, velocity=126, time=1),
    Message('note_on', channel=10, note=45, velocity=0, time=479),
    Message('note_on', channel=10, note=45, velocity=126, time=1),
    Message('note_on', channel=10, note=45, velocity=0, time=719),
    Message('note_on', channel=10, note=45, velocity=126, time=1),
    Message('note_on', channel=10, note=45, velocity=0, time=239),
    Message('note_on', channel=10, note=45, velocity=126, time=1),
    Message('note_on', channel=10, note=45, velocity=0, time=479),
    Message('note_on', channel=10, note=45, velocity=126, time=1),
    Message('note_on', channel=10, note=45, velocity=0, time=719),
    Message('note_on', channel=10, note=45, velocity=126, time=1),
    Message('note_on', channel=10, note=45, velocity=0, time=239),
    Message('note_on', channel=10, note=45, velocity=126, time=1),
    Message('note_on', channel=10, note=45, velocity=0, time=479),
    Message('note_on', channel=10, note=45, velocity=126, time=1),
    Message('note_on', channel=10, note=45, velocity=0, time=239),
    Message('note_on', channel=10, note=45, velocity=126, time=1),
    Message('note_on', channel=10, note=45, velocity=0, time=239),
    Message('note_on', channel=10, note=43, velocity=126, time=1),
    Message('note_on', channel=10, note=43, velocity=0, time=239),
    Message('note_on', channel=10, note=43, velocity=126, time=1),
    Message('note_on', channel=10, note=43, velocity=0, time=239),
    Message('note_on', channel=10, note=45, velocity=126, time=1),
    Message('note_on', channel=10, note=45, velocity=0, time=719),
    Message('note_on', channel=10, note=45, velocity=126, time=1),
    Message('note_on', channel=10, note=45, velocity=0, time=239),
    Message('note_on', channel=10, note=45, velocity=126, time=1),
    Message('note_on', channel=10, note=45, velocity=0, time=479),
    Message('note_on', channel=10, note=45, velocity=126, time=1),
    Message('note_on', channel=10, note=45, velocity=0, time=719),
    Message('note_on', channel=10, note=45, velocity=126, time=1),
    Message('note_on', channel=10, note=45, velocity=0, time=239),
    Message('note_on', channel=10, note=45, velocity=126, time=1),
    Message('note_on', channel=10, note=45, velocity=0, time=479),
    Message('note_on', channel=10, note=45, velocity=126, time=1),
    Message('note_on', channel=10, note=45, velocity=0, time=239),
    Message('note_on', channel=10, note=45, velocity=126, time=1),
    Message('note_on', channel=10, note=45, velocity=0, time=239),
    Message('note_on', channel=10, note=43, velocity=126, time=1),
    Message('note_on', channel=10, note=43, velocity=0, time=239),
    Message('note_on', channel=10, note=43, velocity=126, time=1),
    Message('note_on', channel=10, note=43, velocity=0, time=239),
    Message('note_on', channel=10, note=45, velocity=126, time=1),
    Message('note_on', channel=10, note=45, velocity=0, time=719),
    Message('note_on', channel=10, note=45, velocity=126, time=1),
    Message('note_on', channel=10, note=45, velocity=0, time=239),
    Message('note_on', channel=10, note=45, velocity=126, time=1),
    Message('note_on', channel=10, note=45, velocity=0, time=479),
    Message('note_on', channel=10, note=45, velocity=126, time=1),
    Message('note_on', channel=10, note=45, velocity=0, time=719),
    Message('note_on', channel=10, note=45, velocity=126, time=1),
    Message('note_on', channel=10, note=45, velocity=0, time=239),
    Message('note_on', channel=10, note=45, velocity=126, time=1),
    Message('note_on', channel=10, note=45, velocity=0, time=479),
    Message('note_on', channel=10, note=45, velocity=126, time=1),
    Message('note_on', channel=10, note=45, velocity=0, time=239),
    Message('note_on', channel=10, note=45, velocity=126, time=1),
    Message('note_on', channel=10, note=45, velocity=0, time=239),
    Message('note_on', channel=10, note=43, velocity=126, time=1),
    Message('note_on', channel=10, note=43, velocity=0, time=239),
    Message('note_on', channel=10, note=43, velocity=126, time=1),
    Message('note_on', channel=10, note=43, velocity=0, time=239),
    Message('note_on', channel=10, note=45, velocity=126, time=1),
    Message('note_on', channel=10, note=45, velocity=0, time=719),
    Message('note_on', channel=10, note=45, velocity=126, time=1),
    Message('note_on', channel=10, note=45, velocity=0, time=239),
    Message('note_on', channel=10, note=45, velocity=126, time=1),
    Message('note_on', channel=10, note=45, velocity=0, time=479),
    Message('note_on', channel=10, note=45, velocity=126, time=1),
    Message('note_on', channel=10, note=45, velocity=0, time=719),
    Message('note_on', channel=10, note=45, velocity=126, time=1),
    Message('note_on', channel=10, note=45, velocity=0, time=239),
    Message('note_on', channel=10, note=45, velocity=126, time=1),
    Message('note_on', channel=10, note=45, velocity=0, time=479),
    Message('note_on', channel=10, note=45, velocity=126, time=1),
    Message('note_on', channel=10, note=45, velocity=0, time=239),
    Message('note_on', channel=10, note=45, velocity=126, time=1),
    Message('note_on', channel=10, note=45, velocity=0, time=239),
    Message('note_on', channel=10, note=43, velocity=126, time=1),
    Message('note_on', channel=10, note=43, velocity=0, time=239),
    Message('note_on', channel=10, note=43, velocity=126, time=1),
    Message('note_on', channel=10, note=43, velocity=0, time=239),
    Message('note_on', channel=10, note=45, velocity=126, time=1),
    Message('note_on', channel=10, note=45, velocity=0, time=239),
    Message('note_on', channel=10, note=45, velocity=126, time=1),
    Message('note_on', channel=10, note=45, velocity=0, time=239),
    Message('note_on', channel=10, note=45, velocity=126, time=1),
    Message('note_on', channel=10, note=45, velocity=0, time=239),
    Message('note_on', channel=10, note=45, velocity=126, time=1),
    Message('note_on', channel=10, note=45, velocity=0, time=239),
    Message('note_on', channel=10, note=45, velocity=126, time=1),
    Message('note_on', channel=10, note=45, velocity=0, time=239),
    Message('note_on', channel=10, note=45, velocity=126, time=1),
    Message('note_on', channel=10, note=45, velocity=0, time=239),
    Message('note_on', channel=10, note=45, velocity=126, time=1),
    Message('note_on', channel=10, note=45, velocity=0, time=239),
    Message('note_on', channel=10, note=45, velocity=126, time=1),
    Message('note_on', channel=10, note=45, velocity=0, time=239),
    Message('note_on', channel=10, note=45, velocity=126, time=1),
    Message('note_on', channel=10, note=45, velocity=0, time=239),
    Message('note_on', channel=10, note=45, velocity=126, time=1),
    Message('note_on', channel=10, note=45, velocity=0, time=239),
    Message('note_on', channel=10, note=45, velocity=126, time=1),
    Message('note_on', channel=10, note=45, velocity=0, time=239),
    Message('note_on', channel=10, note=45, velocity=126, time=1),
    Message('note_on', channel=10, note=45, velocity=0, time=239),
    Message('note_on', channel=10, note=45, velocity=126, time=1),
    Message('note_on', channel=10, note=45, velocity=0, time=239),
    Message('note_on', channel=10, note=45, velocity=126, time=1),
    Message('note_on', channel=10, note=45, velocity=0, time=239),
    Message('note_on', channel=10, note=45, velocity=126, time=1),
    Message('note_on', channel=10, note=45, velocity=0, time=239),
    Message('note_on', channel=10, note=45, velocity=126, time=1),
    Message('note_on', channel=10, note=45, velocity=0, time=239),
    Message('note_on', channel=10, note=45, velocity=126, time=1),
    Message('note_on', channel=10, note=45, velocity=0, time=239),
    Message('note_on', channel=10, note=45, velocity=126, time=1),
    Message('note_on', channel=10, note=45, velocity=0, time=239),
    Message('note_on', channel=10, note=45, velocity=126, time=1),
    Message('note_on', channel=10, note=45, velocity=0, time=239),
    Message('note_on', channel=10, note=45, velocity=126, time=1),
    Message('note_on', channel=10, note=45, velocity=0, time=239),
    Message('note_on', channel=10, note=45, velocity=126, time=1),
    Message('note_on', channel=10, note=45, velocity=0, time=239),
    Message('note_on', channel=10, note=45, velocity=126, time=1),
    Message('note_on', channel=10, note=45, velocity=0, time=239),
    Message('note_on', channel=10, note=45, velocity=126, time=1),
    Message('note_on', channel=10, note=45, velocity=0, time=239),
    Message('note_on', channel=10, note=45, velocity=126, time=1),
    Message('note_on', channel=10, note=45, velocity=0, time=239),
    Message('note_on', channel=10, note=45, velocity=126, time=1),
    Message('note_on', channel=10, note=45, velocity=0, time=479),
    Message('note_on', channel=10, note=48, velocity=126, time=2641),
    Message('note_on', channel=10, note=48, velocity=0, time=239),
    Message('note_on', channel=10, note=48, velocity=126, time=1),
    Message('note_on', channel=10, note=48, velocity=0, time=239),
    Message('note_on', channel=10, note=50, velocity=126, time=1),
    Message('note_on', channel=10, note=50, velocity=0, time=239),
    Message('note_on', channel=10, note=45, velocity=126, time=1),
    Message('note_on', channel=10, note=45, velocity=0, time=479),
    Message('note_on', channel=10, note=45, velocity=126, time=1),
    Message('note_on', channel=10, note=45, velocity=0, time=479),
    Message('note_on', channel=10, note=45, velocity=126, time=481),
    Message('note_on', channel=10, note=45, velocity=0, time=479),
    Message('note_on', channel=10, note=41, velocity=126, time=1),
    Message('note_on', channel=10, note=41, velocity=0, time=479),
    Message('note_on', channel=10, note=41, velocity=126, time=1),
    Message('note_on', channel=10, note=41, velocity=0, time=479),
    Message('note_on', channel=10, note=46, velocity=126, time=481),
    Message('note_on', channel=10, note=46, velocity=0, time=479),
    Message('note_on', channel=10, note=36, velocity=126, time=1),
    Message('note_on', channel=10, note=36, velocity=0, time=479),
    Message('note_on', channel=10, note=36, velocity=126, time=1),
    Message('note_on', channel=10, note=36, velocity=0, time=479),
    Message('note_on', channel=10, note=41, velocity=126, time=481),
    Message('note_on', channel=10, note=41, velocity=0, time=479),
    Message('note_on', channel=10, note=36, velocity=126, time=1),
    Message('note_on', channel=10, note=36, velocity=0, time=479),
    Message('note_on', channel=10, note=36, velocity=126, time=1),
    Message('note_on', channel=10, note=36, velocity=0, time=479),
    Message('note_on', channel=10, note=43, velocity=126, time=1),
    Message('note_on', channel=10, note=43, velocity=0, time=479),
    Message('note_on', channel=10, note=43, velocity=126, time=1),
    Message('note_on', channel=10, note=43, velocity=0, time=479),
    Message('note_on', channel=10, note=45, velocity=126, time=1),
    Message('note_on', channel=10, note=45, velocity=0, time=479),
    Message('note_on', channel=10, note=45, velocity=126, time=1),
    Message('note_on', channel=10, note=45, velocity=0, time=479),
    Message('note_on', channel=10, note=45, velocity=126, time=481),
    Message('note_on', channel=10, note=45, velocity=0, time=479),
    Message('note_on', channel=10, note=41, velocity=126, time=1),
    Message('note_on', channel=10, note=41, velocity=0, time=479),
    Message('note_on', channel=10, note=41, velocity=126, time=1),
    Message('note_on', channel=10, note=41, velocity=0, time=479),
    Message('note_on', channel=10, note=46, velocity=126, time=481),
    Message('note_on', channel=10, note=46, velocity=0, time=479),
    Message('note_on', channel=10, note=36, velocity=126, time=1),
    Message('note_on', channel=10, note=36, velocity=0, time=479),
    Message('note_on', channel=10, note=36, velocity=126, time=1),
    Message('note_on', channel=10, note=36, velocity=0, time=479),
    Message('note_on', channel=10, note=36, velocity=126, time=481),
    Message('note_on', channel=10, note=36, velocity=0, time=479),
    Message('note_on', channel=10, note=36, velocity=126, time=1),
    Message('note_on', channel=10, note=36, velocity=0, time=479),
    Message('note_on', channel=10, note=36, velocity=126, time=1),
    Message('note_on', channel=10, note=36, velocity=0, time=479),
    Message('note_on', channel=10, note=43, velocity=126, time=1),
    Message('note_on', channel=10, note=43, velocity=0, time=479),
    Message('note_on', channel=10, note=43, velocity=126, time=1),
    Message('note_on', channel=10, note=43, velocity=0, time=479),
    Message('note_on', channel=10, note=45, velocity=126, time=1),
    Message('note_on', channel=10, note=45, velocity=0, time=479),
    Message('note_on', channel=10, note=45, velocity=126, time=1),
    Message('note_on', channel=10, note=45, velocity=0, time=479),
    Message('note_on', channel=10, note=50, velocity=126, time=1),
    Message('note_on', channel=10, note=50, velocity=0, time=479),
    Message('note_on', channel=10, note=50, velocity=126, time=1),
    Message('note_on', channel=10, note=50, velocity=0, time=479),
    Message('note_on', channel=10, note=41, velocity=126, time=1),
    Message('note_on', channel=10, note=41, velocity=0, time=479),
    Message('note_on', channel=10, note=41, velocity=126, time=1),
    Message('note_on', channel=10, note=41, velocity=0, time=479),
    Message('note_on', channel=10, note=46, velocity=126, time=1),
    Message('note_on', channel=10, note=46, velocity=0, time=479),
    Message('note_on', channel=10, note=46, velocity=126, time=1),
    Message('note_on', channel=10, note=46, velocity=0, time=479),
    Message('note_on', channel=10, note=48, velocity=126, time=1),
    Message('note_on', channel=10, note=48, velocity=0, time=479),
    Message('note_on', channel=10, note=48, velocity=126, time=1),
    Message('note_on', channel=10, note=48, velocity=0, time=479),
    Message('note_on', channel=10, note=53, velocity=126, time=1),
    Message('note_on', channel=10, note=53, velocity=0, time=479),
    Message('note_on', channel=10, note=53, velocity=126, time=1),
    Message('note_on', channel=10, note=53, velocity=0, time=479),
    Message('note_on', channel=10, note=53, velocity=126, time=1),
    Message('note_on', channel=10, note=53, velocity=0, time=479),
    Message('note_on', channel=10, note=53, velocity=126, time=1),
    Message('note_on', channel=10, note=53, velocity=0, time=479),
    Message('note_on', channel=10, note=43, velocity=126, time=1),
    Message('note_on', channel=10, note=43, velocity=0, time=479),
    Message('note_on', channel=10, note=43, velocity=126, time=1),
    Message('note_on', channel=10, note=43, velocity=0, time=479),
    Message('note_on', channel=10, note=45, velocity=126, time=1),
    Message('note_on', channel=10, note=45, velocity=0, time=479),
    Message('note_on', channel=10, note=45, velocity=126, time=1),
    Message('note_on', channel=10, note=45, velocity=0, time=479),
    Message('note_on', channel=10, note=50, velocity=126, time=1),
    Message('note_on', channel=10, note=50, velocity=0, time=479),
    Message('note_on', channel=10, note=50, velocity=126, time=1),
    Message('note_on', channel=10, note=50, velocity=0, time=479),
    Message('note_on', channel=10, note=41, velocity=126, time=1),
    Message('note_on', channel=10, note=41, velocity=0, time=479),
    Message('note_on', channel=10, note=41, velocity=126, time=1),
    Message('note_on', channel=10, note=41, velocity=0, time=479),
    Message('note_on', channel=10, note=46, velocity=126, time=1),
    Message('note_on', channel=10, note=46, velocity=0, time=479),
    Message('note_on', channel=10, note=46, velocity=126, time=1),
    Message('note_on', channel=10, note=46, velocity=0, time=479),
    Message('note_on', channel=10, note=36, velocity=126, time=1),
    Message('note_on', channel=10, note=36, velocity=0, time=479),
    Message('note_on', channel=10, note=36, velocity=126, time=1),
    Message('note_on', channel=10, note=36, velocity=0, time=479),
    Message('note_on', channel=10, note=41, velocity=126, time=1),
    Message('note_on', channel=10, note=41, velocity=0, time=479),
    Message('note_on', channel=10, note=41, velocity=126, time=1),
    Message('note_on', channel=10, note=41, velocity=0, time=479),
    Message('note_on', channel=10, note=41, velocity=126, time=1),
    Message('note_on', channel=10, note=41, velocity=0, time=479),
    Message('note_on', channel=10, note=45, velocity=126, time=1),
    Message('note_on', channel=10, note=45, velocity=0, time=239),
    Message('note_on', channel=10, note=45, velocity=126, time=1),
    Message('note_on', channel=10, note=45, velocity=0, time=239),
    Message('note_on', channel=10, note=45, velocity=126, time=1),
    Message('note_on', channel=10, note=45, velocity=0, time=479),
    Message('note_on', channel=10, note=45, velocity=126, time=1),
    Message('note_on', channel=10, note=45, velocity=0, time=479),
    MetaMessage('end_of_track', time=1)])
])
