MidiFile(type=1, ticks_per_beat=480, tracks=[
  MidiTrack([
    MetaMessage('track_name', name='scarboroughfair', time=0),
    MetaMessage('smpte_offset', frame_rate=24, hours=0, minutes=0, seconds=0, frames=0, sub_frames=0, time=0),
    MetaMessage('set_tempo', tempo=500000, time=0),
    MetaMessage('time_signature', numerator=3, denominator=4, clocks_per_click=24, notated_32nd_notes_per_beat=8, time=0),
    MetaMessage('key_signature', key='Em', time=0),
    MetaMessage('end_of_track', time=0)]),
  MidiTrack([
    MetaMessage('track_name', name='Trombone', time=0),
    MetaMessage('midi_port', port=0, time=0),
    MetaMessage('channel_prefix', channel=0, time=0),
    Message('control_change', channel=0, control=7, value=127, time=0),
    Message('control_change', channel=0, control=10, value=88, time=0),
    Message('control_change', channel=0, control=91, value=64, time=0),
    Message('control_change', channel=0, control=93, value=84, time=0),
    Message('program_change', channel=0, program=57, time=0),
    Message('control_change', channel=0, control=123, value=0, time=0),
    Message('note_on', channel=0, note=64, velocity=110, time=7200),
    Message('note_off', channel=0, note=64, velocity=64, time=768),
    Message('note_on', channel=0, note=64, velocity=104, time=192),
    Message('note_off', channel=0, note=64, velocity=64, time=384),
    Message('note_on', channel=0, note=71, velocity=99, time=96),
    Message('note_off', channel=0, note=71, velocity=64, time=192),
    Message('note_on', channel=0, note=71, velocity=100, time=48),
    Message('note_off', channel=0, note=71, velocity=64, time=768),
    Message('note_on', channel=0, note=71, velocity=113, time=192),
    Message('note_off', channel=0, note=71, velocity=64, time=192),
    Message('note_on', channel=0, note=66, velocity=110, time=48),
    Message('note_off', channel=0, note=66, velocity=64, time=576),
    Message('note_on', channel=0, note=67, velocity=110, time=144),
    Message('note_off', channel=0, note=67, velocity=64, time=192),
    Message('note_on', channel=0, note=66, velocity=112, time=48),
    Message('note_off', channel=0, note=66, velocity=64, time=384),
    Message('note_on', channel=0, note=64, velocity=114, time=96),
    Message('note_off', channel=0, note=64, velocity=64, time=2304),
    Message('control_change', channel=0, control=86, value=37, time=576),
    Message('note_on', channel=0, note=71, velocity=101, time=480),
    Message('note_off', channel=0, note=71, velocity=64, time=384),
    Message('note_on', channel=0, note=74, velocity=110, time=96),
    Message('note_off', channel=0, note=74, velocity=64, time=384),
    Message('note_on', channel=0, note=76, velocity=109, time=96),
    Message('note_off', channel=0, note=76, velocity=64, time=768),
    Message('note_on', channel=0, note=74, velocity=109, time=192),
    Message('note_off', channel=0, note=74, velocity=64, time=384),
    Message('note_on', channel=0, note=71, velocity=99, time=96),
    Message('note_off', channel=0, note=71, velocity=64, time=384),
    Message('note_on', channel=0, note=73, velocity=109, time=96),
    Message('note_off', channel=0, note=73, velocity=64, time=384),
    Message('note_on', channel=0, note=69, velocity=110, time=96),
    Message('note_off', channel=0, note=69, velocity=64, time=384),
    Message('note_on', channel=0, note=71, velocity=111, time=96),
    Message('note_off', channel=0, note=71, velocity=64, time=5064),
    Message('note_on', channel=0, note=76, velocity=112, time=216),
    Message('note_off', channel=0, note=76, velocity=64, time=384),
    Message('note_on', channel=0, note=76, velocity=105, time=96),
    Message('note_off', channel=0, note=76, velocity=64, time=768),
    Message('note_on', channel=0, note=76, velocity=105, time=192),
    Message('note_off', channel=0, note=76, velocity=64, time=384),
    Message('note_on', channel=0, note=74, velocity=105, time=96),
    Message('note_off', channel=0, note=74, velocity=64, time=768),
    Message('note_on', channel=0, note=71, velocity=110, time=192),
    Message('note_off', channel=0, note=71, velocity=64, time=384),
    Message('note_on', channel=0, note=71, velocity=115, time=96),
    Message('note_off', channel=0, note=71, velocity=64, time=384),
    Message('note_on', channel=0, note=69, velocity=117, time=96),
    Message('note_off', channel=0, note=69, velocity=64, time=384),
    Message('note_on', channel=0, note=67, velocity=116, time=96),
    Message('note_off', channel=0, note=67, velocity=64, time=384),
    Message('note_on', channel=0, note=66, velocity=97, time=96),
    Message('note_off', channel=0, note=66, velocity=64, time=2592),
    Message('note_on', channel=0, note=64, velocity=96, time=288),
    Message('note_off', channel=0, note=64, velocity=64, time=768),
    Message('note_on', channel=0, note=71, velocity=111, time=192),
    Message('note_off', channel=0, note=71, velocity=64, time=384),
    Message('note_on', channel=0, note=69, velocity=113, time=96),
    Message('note_off', channel=0, note=69, velocity=64, time=768),
    Message('note_on', channel=0, note=67, velocity=106, time=192),
    Message('note_off', channel=0, note=67, velocity=64, time=384),
    Message('note_on', channel=0, note=66, velocity=113, time=96),
    Message('note_off', channel=0, note=66, velocity=64, time=384),
    Message('note_on', channel=0, note=64, velocity=119, time=96),
    Message('note_off', channel=0, note=64, velocity=64, time=384),
    Message('note_on', channel=0, note=62, velocity=111, time=96),
    Message('note_off', channel=0, note=62, velocity=64, time=384),
    Message('note_on', channel=0, note=64, velocity=106, time=96),
    Message('note_off', channel=0, note=64, velocity=64, time=5516),
    Message('note_on', channel=0, note=64, velocity=109, time=2164),
    Message('note_off', channel=0, note=64, velocity=64, time=384),
    Message('note_on', channel=0, note=64, velocity=100, time=96),
    Message('note_off', channel=0, note=64, velocity=64, time=384),
    Message('note_on', channel=0, note=62, velocity=98, time=96),
    Message('note_off', channel=0, note=62, velocity=64, time=384),
    Message('note_on', channel=0, note=64, velocity=110, time=96),
    Message('note_off', channel=0, note=64, velocity=64, time=384),
    Message('note_on', channel=0, note=62, velocity=108, time=96),
    Message('note_off', channel=0, note=62, velocity=64, time=384),
    Message('note_on', channel=0, note=67, velocity=125, time=96),
    Message('note_off', channel=0, note=67, velocity=64, time=384),
    Message('note_on', channel=0, note=66, velocity=106, time=96),
    Message('note_off', channel=0, note=66, velocity=64, time=384),
    Message('note_on', channel=0, note=64, velocity=108, time=96),
    Message('note_off', channel=0, note=64, velocity=64, time=384),
    Message('note_on', channel=0, note=64, velocity=106, time=96),
    Message('note_off', channel=0, note=64, velocity=64, time=384),
    Message('note_on', channel=0, note=64, velocity=110, time=96),
    Message('note_off', channel=0, note=64, velocity=64, time=384),
    Message('note_on', channel=0, note=62, velocity=111, time=96),
    Message('note_off', channel=0, note=62, velocity=64, time=384),
    Message('note_on', channel=0, note=59, velocity=106, time=96),
    Message('note_off', channel=0, note=59, velocity=64, time=1420),
    Message('control_change', channel=0, control=86, value=37, time=20),
    Message('control_change', channel=0, control=86, value=37, time=1440),
    Message('note_on', channel=0, note=74, velocity=112, time=1440),
    Message('note_off', channel=0, note=74, velocity=64, time=384),
    Message('note_on', channel=0, note=76, velocity=113, time=96),
    Message('note_off', channel=0, note=76, velocity=64, time=384),
    Message('note_on', channel=0, note=74, velocity=109, time=96),
    Message('note_off', channel=0, note=74, velocity=64, time=384),
    Message('note_on', channel=0, note=76, velocity=110, time=96),
    Message('note_off', channel=0, note=76, velocity=64, time=384),
    Message('note_on', channel=0, note=76, velocity=110, time=96),
    Message('note_off', channel=0, note=76, velocity=64, time=384),
    Message('note_on', channel=0, note=76, velocity=107, time=96),
    Message('note_off', channel=0, note=76, velocity=64, time=384),
    Message('note_on', channel=0, note=78, velocity=101, time=96),
    Message('note_off', channel=0, note=78, velocity=64, time=384),
    Message('note_on', channel=0, note=78, velocity=111, time=96),
    Message('note_off', channel=0, note=78, velocity=64, time=384),
    Message('note_on', channel=0, note=78, velocity=103, time=96),
    Message('note_off', channel=0, note=78, velocity=64, time=384),
    Message('note_on', channel=0, note=76, velocity=109, time=96),
    Message('note_off', channel=0, note=76, velocity=64, time=1420),
    Message('control_change', channel=0, control=86, value=37, time=20),
    Message('control_change', channel=0, control=86, value=37, time=1440),
    Message('note_on', channel=0, note=62, velocity=117, time=1440),
    Message('note_off', channel=0, note=62, velocity=64, time=384),
    Message('note_on', channel=0, note=64, velocity=108, time=96),
    Message('note_off', channel=0, note=64, velocity=64, time=384),
    Message('note_on', channel=0, note=64, velocity=103, time=96),
    Message('note_off', channel=0, note=64, velocity=64, time=384),
    Message('note_on', channel=0, note=62, velocity=110, time=96),
    Message('note_off', channel=0, note=62, velocity=64, time=384),
    Message('note_on', channel=0, note=62, velocity=109, time=96),
    Message('note_off', channel=0, note=62, velocity=64, time=384),
    Message('note_on', channel=0, note=62, velocity=119, time=96),
    Message('note_off', channel=0, note=62, velocity=64, time=384),
    Message('note_on', channel=0, note=62, velocity=108, time=96),
    Message('note_off', channel=0, note=62, velocity=64, time=384),
    Message('note_on', channel=0, note=64, velocity=113, time=96),
    Message('note_off', channel=0, note=64, velocity=64, time=384),
    Message('note_on', channel=0, note=62, velocity=107, time=96),
    Message('note_off', channel=0, note=62, velocity=64, time=384),
    Message('note_on', channel=0, note=64, velocity=111, time=96),
    Message('note_off', channel=0, note=64, velocity=64, time=384),
    Message('note_on', channel=0, note=64, velocity=109, time=96),
    Message('note_off', channel=0, note=64, velocity=64, time=940),
    Message('control_change', channel=0, control=86, value=37, time=20),
    Message('control_change', channel=0, control=86, value=37, time=1440),
    Message('note_on', channel=0, note=67, velocity=112, time=1440),
    Message('note_off', channel=0, note=67, velocity=64, time=384),
    Message('note_on', channel=0, note=66, velocity=110, time=96),
    Message('note_off', channel=0, note=66, velocity=64, time=384),
    Message('note_on', channel=0, note=67, velocity=118, time=96),
    Message('note_off', channel=0, note=67, velocity=64, time=384),
    Message('note_on', channel=0, note=69, velocity=111, time=96),
    Message('note_off', channel=0, note=69, velocity=64, time=384),
    Message('note_on', channel=0, note=67, velocity=101, time=96),
    Message('note_off', channel=0, note=67, velocity=64, time=384),
    Message('note_on', channel=0, note=66, velocity=103, time=96),
    Message('note_off', channel=0, note=66, velocity=64, time=384),
    Message('note_on', channel=0, note=67, velocity=110, time=96),
    Message('note_off', channel=0, note=67, velocity=64, time=384),
    Message('note_on', channel=0, note=66, velocity=112, time=96),
    Message('note_off', channel=0, note=66, velocity=64, time=384),
    Message('note_on', channel=0, note=62, velocity=110, time=96),
    Message('note_off', channel=0, note=62, velocity=64, time=384),
    Message('note_on', channel=0, note=64, velocity=105, time=96),
    Message('note_off', channel=0, note=64, velocity=64, time=1152),
    Message('note_on', channel=0, note=64, velocity=107, time=2208),
    Message('note_off', channel=0, note=64, velocity=64, time=384),
    Message('note_on', channel=0, note=64, velocity=114, time=96),
    Message('note_off', channel=0, note=64, velocity=64, time=384),
    Message('note_on', channel=0, note=62, velocity=107, time=96),
    Message('note_off', channel=0, note=62, velocity=64, time=384),
    Message('note_on', channel=0, note=64, velocity=117, time=96),
    Message('note_off', channel=0, note=64, velocity=64, time=384),
    Message('note_on', channel=0, note=62, velocity=108, time=96),
    Message('note_off', channel=0, note=62, velocity=64, time=384),
    Message('note_on', channel=0, note=64, velocity=124, time=96),
    Message('note_off', channel=0, note=64, velocity=64, time=384),
    Message('note_on', channel=0, note=64, velocity=122, time=576),
    Message('note_off', channel=0, note=64, velocity=64, time=384),
    Message('note_on', channel=0, note=64, velocity=114, time=96),
    Message('note_off', channel=0, note=64, velocity=64, time=384),
    Message('note_on', channel=0, note=64, velocity=120, time=96),
    Message('note_off', channel=0, note=64, velocity=64, time=384),
    Message('note_on', channel=0, note=62, velocity=106, time=96),
    Message('note_off', channel=0, note=62, velocity=64, time=384),
    Message('note_on', channel=0, note=59, velocity=112, time=96),
    Message('note_off', channel=0, note=59, velocity=64, time=1420),
    Message('control_change', channel=0, control=86, value=37, time=20),
    Message('control_change', channel=0, control=86, value=37, time=1440),
    Message('note_on', channel=0, note=74, velocity=110, time=1440),
    Message('note_off', channel=0, note=74, velocity=64, time=384),
    Message('note_on', channel=0, note=76, velocity=110, time=96),
    Message('note_off', channel=0, note=76, velocity=64, time=384),
    Message('note_on', channel=0, note=74, velocity=110, time=96),
    Message('note_off', channel=0, note=74, velocity=64, time=384),
    Message('note_on', channel=0, note=69, velocity=101, time=96),
    Message('note_off', channel=0, note=69, velocity=64, time=768),
    Message('note_on', channel=0, note=73, velocity=119, time=192),
    Message('note_off', channel=0, note=73, velocity=64, time=384),
    Message('note_on', channel=0, note=74, velocity=101, time=96),
    Message('note_off', channel=0, note=74, velocity=64, time=384),
    Message('note_on', channel=0, note=73, velocity=106, time=96),
    Message('note_off', channel=0, note=73, velocity=64, time=384),
    Message('note_on', channel=0, note=69, velocity=114, time=96),
    Message('note_off', channel=0, note=69, velocity=64, time=384),
    Message('note_on', channel=0, note=71, velocity=112, time=96),
    Message('note_off', channel=0, note=71, velocity=64, time=1420),
    Message('control_change', channel=0, control=86, value=37, time=20),
    Message('control_change', channel=0, control=86, value=37, time=1440),
    Message('note_on', channel=0, note=67, velocity=109, time=1440),
    Message('note_off', channel=0, note=67, velocity=64, time=384),
    Message('note_on', channel=0, note=69, velocity=116, time=96),
    Message('note_off', channel=0, note=69, velocity=64, time=384),
    Message('note_on', channel=0, note=71, velocity=115, time=96),
    Message('note_off', channel=0, note=71, velocity=64, time=384),
    Message('note_on', channel=0, note=74, velocity=104, time=96),
    Message('note_off', channel=0, note=74, velocity=64, time=384),
    Message('note_on', channel=0, note=69, velocity=104, time=576),
    Message('note_off', channel=0, note=69, velocity=64, time=384),
    Message('note_on', channel=0, note=74, velocity=110, time=96),
    Message('note_off', channel=0, note=74, velocity=64, time=576),
    Message('note_on', channel=0, note=69, velocity=107, time=144),
    Message('note_off', channel=0, note=69, velocity=64, time=192),
    Message('note_on', channel=0, note=74, velocity=110, time=48),
    Message('note_off', channel=0, note=74, velocity=64, time=192),
    Message('note_on', channel=0, note=73, velocity=110, time=48),
    Message('note_off', channel=0, note=73, velocity=64, time=192),
    Message('note_on', channel=0, note=76, velocity=98, time=48),
    Message('note_off', channel=0, note=76, velocity=64, time=384),
    Message('control_change', channel=0, control=86, value=37, time=1056),
    Message('control_change', channel=0, control=86, value=37, time=1440),
    Message('note_on', channel=0, note=67, velocity=109, time=1440),
    Message('note_off', channel=0, note=67, velocity=64, time=384),
    Message('note_on', channel=0, note=66, velocity=113, time=96),
    Message('note_off', channel=0, note=66, velocity=64, time=384),
    Message('note_on', channel=0, note=67, velocity=103, time=96),
    Message('note_off', channel=0, note=67, velocity=64, time=384),
    Message('note_on', channel=0, note=69, velocity=120, time=96),
    Message('note_off', channel=0, note=69, velocity=64, time=384),
    Message('note_on', channel=0, note=67, velocity=121, time=96),
    Message('note_off', channel=0, note=67, velocity=64, time=384),
    Message('note_on', channel=0, note=66, velocity=110, time=96),
    Message('note_off', channel=0, note=66, velocity=64, time=384),
    Message('note_on', channel=0, note=67, velocity=112, time=96),
    Message('note_off', channel=0, note=67, velocity=64, time=384),
    Message('note_on', channel=0, note=66, velocity=104, time=96),
    Message('note_off', channel=0, note=66, velocity=64, time=384),
    Message('note_on', channel=0, note=62, velocity=110, time=96),
    Message('note_off', channel=0, note=62, velocity=64, time=384),
    Message('note_on', channel=0, note=64, velocity=104, time=96),
    Message('note_off', channel=0, note=64, velocity=64, time=1152),
    Message('note_on', channel=0, note=62, velocity=109, time=3168),
    Message('note_off', channel=0, note=62, velocity=64, time=384),
    Message('note_on', channel=0, note=64, velocity=110, time=96),
    Message('note_off', channel=0, note=64, velocity=64, time=384),
    Message('note_on', channel=0, note=62, velocity=98, time=96),
    Message('note_off', channel=0, note=62, velocity=64, time=384),
    Message('note_on', channel=0, note=67, velocity=111, time=96),
    Message('note_off', channel=0, note=67, velocity=64, time=384),
    Message('note_on', channel=0, note=66, velocity=101, time=96),
    Message('note_off', channel=0, note=66, velocity=64, time=384),
    Message('note_on', channel=0, note=64, velocity=109, time=96),
    Message('note_off', channel=0, note=64, velocity=64, time=384),
    Message('note_on', channel=0, note=64, velocity=107, time=96),
    Message('note_off', channel=0, note=64, velocity=64, time=384),
    Message('note_on', channel=0, note=64, velocity=110, time=96),
    Message('note_off', channel=0, note=64, velocity=64, time=384),
    Message('note_on', channel=0, note=62, velocity=110, time=96),
    Message('note_off', channel=0, note=62, velocity=64, time=384),
    Message('note_on', channel=0, note=64, velocity=114, time=96),
    Message('note_off', channel=0, note=64, velocity=64, time=384),
    Message('note_on', channel=0, note=59, velocity=108, time=96),
    Message('note_off', channel=0, note=59, velocity=64, time=940),
    Message('control_change', channel=0, control=86, value=37, time=20),
    Message('control_change', channel=0, control=86, value=37, time=1440),
    Message('note_on', channel=0, note=74, velocity=114, time=1440),
    Message('note_off', channel=0, note=74, velocity=64, time=384),
    Message('note_on', channel=0, note=76, velocity=106, time=96),
    Message('note_off', channel=0, note=76, velocity=64, time=384),
    Message('note_on', channel=0, note=74, velocity=116, time=96),
    Message('note_off', channel=0, note=74, velocity=64, time=384),
    Message('note_on', channel=0, note=73, velocity=121, time=96),
    Message('note_off', channel=0, note=73, velocity=64, time=384),
    Message('note_on', channel=0, note=71, velocity=96, time=96),
    Message('note_off', channel=0, note=71, velocity=64, time=384),
    Message('note_on', channel=0, note=73, velocity=112, time=96),
    Message('note_off', channel=0, note=73, velocity=64, time=384),
    Message('note_on', channel=0, note=74, velocity=110, time=96),
    Message('note_off', channel=0, note=74, velocity=64, time=384),
    Message('note_on', channel=0, note=73, velocity=112, time=96),
    Message('note_off', channel=0, note=73, velocity=64, time=384),
    Message('note_on', channel=0, note=69, velocity=103, time=96),
    Message('note_off', channel=0, note=69, velocity=64, time=384),
    Message('note_on', channel=0, note=71, velocity=124, time=96),
    Message('note_off', channel=0, note=71, velocity=64, time=1420),
    Message('control_change', channel=0, control=86, value=37, time=20),
    Message('control_change', channel=0, control=86, value=37, time=1440),
    Message('note_on', channel=0, note=74, velocity=124, time=480),
    Message('note_off', channel=0, note=74, velocity=64, time=384),
    Message('note_on', channel=0, note=74, velocity=103, time=96),
    Message('note_off', channel=0, note=74, velocity=64, time=384),
    Message('note_on', channel=0, note=74, velocity=124, time=96),
    Message('note_off', channel=0, note=74, velocity=64, time=384),
    Message('note_on', channel=0, note=71, velocity=104, time=96),
    Message('note_off', channel=0, note=71, velocity=64, time=384),
    Message('note_on', channel=0, note=74, velocity=109, time=96),
    Message('note_off', channel=0, note=74, velocity=64, time=384),
    Message('note_on', channel=0, note=69, velocity=110, time=96),
    Message('note_off', channel=0, note=69, velocity=64, time=768),
    Message('note_on', channel=0, note=69, velocity=112, time=192),
    Message('note_off', channel=0, note=69, velocity=64, time=384),
    Message('note_on', channel=0, note=62, velocity=112, time=96),
    Message('note_off', channel=0, note=62, velocity=64, time=192),
    Message('note_on', channel=0, note=64, velocity=120, time=48),
    Message('note_off', channel=0, note=64, velocity=64, time=192),
    Message('note_on', channel=0, note=66, velocity=110, time=48),
    Message('note_off', channel=0, note=66, velocity=64, time=384),
    Message('note_on', channel=0, note=67, velocity=110, time=96),
    Message('note_off', channel=0, note=67, velocity=64, time=384),
    Message('note_on', channel=0, note=64, velocity=106, time=96),
    Message('note_off', channel=0, note=64, velocity=64, time=384),
    Message('note_on', channel=0, note=64, velocity=107, time=96),
    Message('note_off', channel=0, note=64, velocity=64, time=940),
    Message('control_change', channel=0, control=86, value=37, time=20),
    Message('control_change', channel=0, control=86, value=37, time=1440),
    Message('note_on', channel=0, note=64, velocity=112, time=7200),
    Message('note_off', channel=0, note=64, velocity=64, time=768),
    Message('note_on', channel=0, note=64, velocity=116, time=192),
    Message('note_off', channel=0, note=64, velocity=64, time=384),
    Message('note_on', channel=0, note=71, velocity=114, time=96),
    Message('note_off', channel=0, note=71, velocity=64, time=192),
    Message('note_on', channel=0, note=71, velocity=112, time=48),
    Message('note_off', channel=0, note=71, velocity=64, time=768),
    Message('note_on', channel=0, note=71, velocity=110, time=192),
    Message('note_off', channel=0, note=71, velocity=64, time=192),
    Message('note_on', channel=0, note=66, velocity=109, time=48),
    Message('note_off', channel=0, note=66, velocity=64, time=576),
    Message('note_on', channel=0, note=67, velocity=102, time=144),
    Message('note_off', channel=0, note=67, velocity=64, time=192),
    Message('note_on', channel=0, note=66, velocity=100, time=48),
    Message('note_off', channel=0, note=66, velocity=64, time=384),
    Message('note_on', channel=0, note=64, velocity=115, time=96),
    Message('note_off', channel=0, note=64, velocity=64, time=2304),
    Message('control_change', channel=0, control=86, value=37, time=576),
    Message('note_on', channel=0, note=71, velocity=100, time=480),
    Message('note_off', channel=0, note=71, velocity=64, time=384),
    Message('note_on', channel=0, note=74, velocity=113, time=96),
    Message('note_off', channel=0, note=74, velocity=64, time=384),
    Message('note_on', channel=0, note=76, velocity=120, time=96),
    Message('note_off', channel=0, note=76, velocity=64, time=768),
    Message('note_on', channel=0, note=74, velocity=97, time=192),
    Message('note_off', channel=0, note=74, velocity=64, time=384),
    Message('note_on', channel=0, note=71, velocity=108, time=96),
    Message('note_off', channel=0, note=71, velocity=64, time=384),
    Message('note_on', channel=0, note=73, velocity=111, time=96),
    Message('note_off', channel=0, note=73, velocity=64, time=384),
    Message('note_on', channel=0, note=69, velocity=118, time=96),
    Message('note_off', channel=0, note=69, velocity=64, time=384),
    Message('note_on', channel=0, note=71, velocity=112, time=96),
    Message('note_off', channel=0, note=71, velocity=64, time=5064),
    Message('note_on', channel=0, note=76, velocity=107, time=216),
    Message('note_off', channel=0, note=76, velocity=64, time=384),
    Message('note_on', channel=0, note=76, velocity=105, time=96),
    Message('note_off', channel=0, note=76, velocity=64, time=768),
    Message('note_on', channel=0, note=76, velocity=110, time=192),
    Message('note_off', channel=0, note=76, velocity=64, time=384),
    Message('note_on', channel=0, note=74, velocity=120, time=96),
    Message('note_off', channel=0, note=74, velocity=64, time=768),
    Message('note_on', channel=0, note=71, velocity=116, time=192),
    Message('note_off', channel=0, note=71, velocity=64, time=384),
    Message('note_on', channel=0, note=71, velocity=121, time=96),
    Message('note_off', channel=0, note=71, velocity=64, time=384),
    Message('note_on', channel=0, note=69, velocity=110, time=96),
    Message('note_off', channel=0, note=69, velocity=64, time=384),
    Message('note_on', channel=0, note=67, velocity=97, time=96),
    Message('note_off', channel=0, note=67, velocity=64, time=384),
    Message('note_on', channel=0, note=66, velocity=107, time=96),
    Message('note_off', channel=0, note=66, velocity=64, time=2592),
    Message('note_on', channel=0, note=64, velocity=108, time=288),
    Message('note_off', channel=0, note=64, velocity=64, time=768),
    Message('note_on', channel=0, note=71, velocity=109, time=192),
    Message('note_off', channel=0, note=71, velocity=64, time=384),
    Message('note_on', channel=0, note=69, velocity=109, time=96),
    Message('note_off', channel=0, note=69, velocity=64, time=768),
    Message('note_on', channel=0, note=67, velocity=105, time=192),
    Message('note_off', channel=0, note=67, velocity=64, time=384),
    Message('note_on', channel=0, note=66, velocity=98, time=96),
    Message('note_off', channel=0, note=66, velocity=64, time=384),
    Message('note_on', channel=0, note=64, velocity=117, time=96),
    Message('note_off', channel=0, note=64, velocity=64, time=384),
    Message('note_on', channel=0, note=62, velocity=120, time=96),
    Message('note_off', channel=0, note=62, velocity=64, time=384),
    Message('note_on', channel=0, note=64, velocity=105, time=96),
    Message('note_off', channel=0, note=64, velocity=64, time=5516),
    MetaMessage('end_of_track', time=0)]),
  MidiTrack([
    MetaMessage('track_name', name='Sax', time=0),
    MetaMessage('midi_port', port=0, time=0),
    MetaMessage('channel_prefix', channel=1, time=0),
    Message('control_change', channel=1, control=7, value=127, time=0),
    Message('control_change', channel=1, control=10, value=40, time=0),
    Message('control_change', channel=1, control=91, value=64, time=0),
    Message('control_change', channel=1, control=93, value=84, time=0),
    Message('program_change', channel=1, program=65, time=0),
    Message('control_change', channel=1, control=123, value=0, time=0),
    Message('note_on', channel=1, note=64, velocity=112, time=41760),
    Message('note_off', channel=1, note=64, velocity=64, time=384),
    Message('note_on', channel=1, note=64, velocity=111, time=96),
    Message('note_off', channel=1, note=64, velocity=64, time=384),
    Message('note_on', channel=1, note=64, velocity=115, time=96),
    Message('note_off', channel=1, note=64, velocity=64, time=384),
    Message('note_on', channel=1, note=71, velocity=106, time=96),
    Message('note_off', channel=1, note=71, velocity=64, time=384),
    Message('note_on', channel=1, note=71, velocity=97, time=96),
    Message('note_off', channel=1, note=71, velocity=64, time=384),
    Message('note_on', channel=1, note=71, velocity=109, time=96),
    Message('note_off', channel=1, note=71, velocity=64, time=384),
    Message('note_on', channel=1, note=66, velocity=111, time=96),
    Message('note_off', channel=1, note=66, velocity=64, time=768),
    Message('note_on', channel=1, note=66, velocity=118, time=192),
    Message('note_off', channel=1, note=66, velocity=64, time=384),
    Message('note_on', channel=1, note=64, velocity=104, time=96),
    Message('note_off', channel=1, note=64, velocity=64, time=2304),
    Message('control_change', channel=1, control=86, value=37, time=576),
    Message('note_on', channel=1, note=71, velocity=97, time=480),
    Message('note_off', channel=1, note=71, velocity=64, time=384),
    Message('note_on', channel=1, note=74, velocity=112, time=96),
    Message('note_off', channel=1, note=74, velocity=64, time=384),
    Message('note_on', channel=1, note=76, velocity=110, time=96),
    Message('note_off', channel=1, note=76, velocity=64, time=768),
    Message('note_on', channel=1, note=74, velocity=114, time=192),
    Message('note_off', channel=1, note=74, velocity=64, time=384),
    Message('note_on', channel=1, note=71, velocity=98, time=96),
    Message('note_off', channel=1, note=71, velocity=64, time=384),
    Message('note_on', channel=1, note=73, velocity=110, time=96),
    Message('note_off', channel=1, note=73, velocity=64, time=384),
    Message('note_on', channel=1, note=69, velocity=125, time=96),
    Message('note_off', channel=1, note=69, velocity=64, time=384),
    Message('note_on', channel=1, note=71, velocity=109, time=96),
    Message('note_off', channel=1, note=71, velocity=64, time=4240),
    Message('note_on', channel=1, note=76, velocity=97, time=1040),
    Message('note_off', channel=1, note=76, velocity=64, time=384),
    Message('note_on', channel=1, note=76, velocity=110, time=96),
    Message('note_off', channel=1, note=76, velocity=64, time=768),
    Message('note_on', channel=1, note=76, velocity=109, time=192),
    Message('note_off', channel=1, note=76, velocity=64, time=384),
    Message('note_on', channel=1, note=74, velocity=104, time=96),
    Message('note_off', channel=1, note=74, velocity=64, time=768),
    Message('note_on', channel=1, note=71, velocity=97, time=192),
    Message('note_off', channel=1, note=71, velocity=64, time=384),
    Message('note_on', channel=1, note=71, velocity=109, time=96),
    Message('note_off', channel=1, note=71, velocity=64, time=384),
    Message('note_on', channel=1, note=69, velocity=115, time=96),
    Message('note_off', channel=1, note=69, velocity=64, time=384),
    Message('note_on', channel=1, note=67, velocity=105, time=96),
    Message('note_off', channel=1, note=67, velocity=64, time=384),
    Message('note_on', channel=1, note=66, velocity=108, time=96),
    Message('note_off', channel=1, note=66, velocity=64, time=2304),
    Message('note_on', channel=1, note=64, velocity=116, time=576),
    Message('note_off', channel=1, note=64, velocity=64, time=768),
    Message('note_on', channel=1, note=71, velocity=111, time=192),
    Message('note_off', channel=1, note=71, velocity=64, time=384),
    Message('note_on', channel=1, note=69, velocity=110, time=96),
    Message('note_off', channel=1, note=69, velocity=64, time=768),
    Message('note_on', channel=1, note=67, velocity=109, time=192),
    Message('note_off', channel=1, note=67, velocity=64, time=384),
    Message('note_on', channel=1, note=66, velocity=97, time=96),
    Message('note_off', channel=1, note=66, velocity=64, time=384),
    Message('note_on', channel=1, note=64, velocity=112, time=96),
    Message('note_off', channel=1, note=64, velocity=64, time=384),
    Message('note_on', channel=1, note=62, velocity=119, time=96),
    Message('note_off', channel=1, note=62, velocity=64, time=384),
    Message('note_on', channel=1, note=64, velocity=114, time=96),
    Message('note_off', channel=1, note=64, velocity=64, time=5532),
    Message('note_on', channel=1, note=64, velocity=113, time=228),
    Message('note_off', channel=1, note=64, velocity=64, time=384),
    Message('note_on', channel=1, note=64, velocity=110, time=96),
    Message('note_off', channel=1, note=64, velocity=64, time=384),
    Message('note_on', channel=1, note=64, velocity=114, time=96),
    Message('note_off', channel=1, note=64, velocity=64, time=384),
    Message('note_on', channel=1, note=71, velocity=111, time=96),
    Message('note_off', channel=1, note=71, velocity=64, time=384),
    Message('note_on', channel=1, note=71, velocity=105, time=96),
    Message('note_off', channel=1, note=71, velocity=64, time=384),
    Message('note_on', channel=1, note=71, velocity=96, time=96),
    Message('note_off', channel=1, note=71, velocity=64, time=384),
    Message('note_on', channel=1, note=66, velocity=113, time=96),
    Message('note_off', channel=1, note=66, velocity=64, time=768),
    Message('note_on', channel=1, note=66, velocity=110, time=192),
    Message('note_off', channel=1, note=66, velocity=64, time=384),
    Message('note_on', channel=1, note=64, velocity=118, time=96),
    Message('note_off', channel=1, note=64, velocity=64, time=2304),
    Message('control_change', channel=1, control=86, value=37, time=576),
    Message('note_on', channel=1, note=71, velocity=100, time=480),
    Message('note_off', channel=1, note=71, velocity=64, time=384),
    Message('note_on', channel=1, note=74, velocity=123, time=96),
    Message('note_off', channel=1, note=74, velocity=64, time=384),
    Message('note_on', channel=1, note=76, velocity=114, time=96),
    Message('note_off', channel=1, note=76, velocity=64, time=768),
    Message('note_on', channel=1, note=74, velocity=110, time=192),
    Message('note_off', channel=1, note=74, velocity=64, time=384),
    Message('note_on', channel=1, note=71, velocity=122, time=96),
    Message('note_off', channel=1, note=71, velocity=64, time=384),
    Message('note_on', channel=1, note=73, velocity=109, time=96),
    Message('note_off', channel=1, note=73, velocity=64, time=384),
    Message('note_on', channel=1, note=69, velocity=110, time=96),
    Message('note_off', channel=1, note=69, velocity=64, time=384),
    Message('note_on', channel=1, note=71, velocity=101, time=96),
    Message('note_off', channel=1, note=71, velocity=64, time=4240),
    Message('note_on', channel=1, note=67, velocity=115, time=1040),
    Message('note_off', channel=1, note=67, velocity=64, time=384),
    Message('note_on', channel=1, note=67, velocity=101, time=96),
    Message('note_off', channel=1, note=67, velocity=64, time=384),
    Message('note_on', channel=1, note=67, velocity=105, time=96),
    Message('note_off', channel=1, note=67, velocity=64, time=384),
    Message('note_on', channel=1, note=69, velocity=110, time=96),
    Message('note_off', channel=1, note=69, velocity=64, time=384),
    Message('note_on', channel=1, note=71, velocity=110, time=96),
    Message('note_off', channel=1, note=71, velocity=64, time=768),
    Message('note_on', channel=1, note=69, velocity=122, time=192),
    Message('note_off', channel=1, note=69, velocity=64, time=384),
    Message('note_on', channel=1, note=67, velocity=114, time=96),
    Message('note_off', channel=1, note=67, velocity=64, time=384),
    Message('note_on', channel=1, note=69, velocity=105, time=96),
    Message('note_off', channel=1, note=69, velocity=64, time=384),
    Message('note_on', channel=1, note=67, velocity=109, time=96),
    Message('note_off', channel=1, note=67, velocity=64, time=384),
    Message('note_on', channel=1, note=66, velocity=115, time=96),
    Message('note_off', channel=1, note=66, velocity=64, time=2304),
    Message('note_on', channel=1, note=64, velocity=123, time=576),
    Message('note_off', channel=1, note=64, velocity=64, time=768),
    Message('note_on', channel=1, note=71, velocity=110, time=192),
    Message('note_off', channel=1, note=71, velocity=64, time=384),
    Message('note_on', channel=1, note=69, velocity=114, time=96),
    Message('note_off', channel=1, note=69, velocity=64, time=768),
    Message('note_on', channel=1, note=67, velocity=105, time=192),
    Message('note_off', channel=1, note=67, velocity=64, time=384),
    Message('note_on', channel=1, note=66, velocity=105, time=96),
    Message('note_off', channel=1, note=66, velocity=64, time=384),
    Message('note_on', channel=1, note=64, velocity=109, time=96),
    Message('note_off', channel=1, note=64, velocity=64, time=384),
    Message('note_on', channel=1, note=62, velocity=107, time=96),
    Message('note_off', channel=1, note=62, velocity=64, time=384),
    Message('note_on', channel=1, note=64, velocity=98, time=96),
    Message('note_off', channel=1, note=64, velocity=64, time=5532),
    Message('note_on', channel=1, note=64, velocity=113, time=228),
    Message('note_off', channel=1, note=64, velocity=64, time=384),
    Message('note_on', channel=1, note=64, velocity=101, time=96),
    Message('note_off', channel=1, note=64, velocity=64, time=384),
    Message('note_on', channel=1, note=64, velocity=98, time=96),
    Message('note_off', channel=1, note=64, velocity=64, time=384),
    Message('note_on', channel=1, note=71, velocity=107, time=96),
    Message('note_off', channel=1, note=71, velocity=64, time=384),
    Message('note_on', channel=1, note=71, velocity=108, time=96),
    Message('note_off', channel=1, note=71, velocity=64, time=384),
    Message('note_on', channel=1, note=71, velocity=105, time=96),
    Message('note_off', channel=1, note=71, velocity=64, time=192),
    Message('note_on', channel=1, note=71, velocity=117, time=48),
    Message('note_off', channel=1, note=71, velocity=64, time=192),
    Message('note_on', channel=1, note=66, velocity=110, time=48),
    Message('note_off', channel=1, note=66, velocity=64, time=768),
    Message('note_on', channel=1, note=66, velocity=110, time=192),
    Message('note_off', channel=1, note=66, velocity=64, time=384),
    Message('note_on', channel=1, note=64, velocity=105, time=96),
    Message('note_off', channel=1, note=64, velocity=64, time=384),
    Message('note_on', channel=1, note=64, velocity=110, time=96),
    Message('note_off', channel=1, note=64, velocity=64, time=1920),
    Message('control_change', channel=1, control=86, value=37, time=480),
    Message('note_on', channel=1, note=71, velocity=124, time=480),
    Message('note_off', channel=1, note=71, velocity=64, time=384),
    Message('note_on', channel=1, note=74, velocity=118, time=96),
    Message('note_off', channel=1, note=74, velocity=64, time=384),
    Message('note_on', channel=1, note=76, velocity=113, time=96),
    Message('note_off', channel=1, note=76, velocity=64, time=768),
    Message('note_on', channel=1, note=74, velocity=110, time=192),
    Message('note_off', channel=1, note=74, velocity=64, time=384),
    Message('note_on', channel=1, note=71, velocity=101, time=96),
    Message('note_off', channel=1, note=71, velocity=64, time=384),
    Message('note_on', channel=1, note=73, velocity=116, time=96),
    Message('note_off', channel=1, note=73, velocity=64, time=384),
    Message('note_on', channel=1, note=69, velocity=109, time=96),
    Message('note_off', channel=1, note=69, velocity=64, time=384),
    Message('note_on', channel=1, note=71, velocity=106, time=96),
    Message('note_off', channel=1, note=71, velocity=64, time=4240),
    Message('note_on', channel=1, note=67, velocity=114, time=1040),
    Message('note_off', channel=1, note=67, velocity=64, time=384),
    Message('note_on', channel=1, note=67, velocity=102, time=96),
    Message('note_off', channel=1, note=67, velocity=64, time=384),
    Message('note_on', channel=1, note=67, velocity=109, time=96),
    Message('note_off', channel=1, note=67, velocity=64, time=384),
    Message('note_on', channel=1, note=69, velocity=109, time=96),
    Message('note_off', channel=1, note=69, velocity=64, time=384),
    Message('note_on', channel=1, note=71, velocity=103, time=96),
    Message('note_off', channel=1, note=71, velocity=64, time=768),
    Message('note_on', channel=1, note=69, velocity=110, time=192),
    Message('note_off', channel=1, note=69, velocity=64, time=384),
    Message('note_on', channel=1, note=67, velocity=110, time=96),
    Message('note_off', channel=1, note=67, velocity=64, time=384),
    Message('note_on', channel=1, note=69, velocity=110, time=96),
    Message('note_off', channel=1, note=69, velocity=64, time=384),
    Message('note_on', channel=1, note=67, velocity=106, time=96),
    Message('note_off', channel=1, note=67, velocity=64, time=384),
    Message('note_on', channel=1, note=66, velocity=109, time=96),
    Message('note_off', channel=1, note=66, velocity=64, time=2304),
    Message('note_on', channel=1, note=64, velocity=109, time=576),
    Message('note_off', channel=1, note=64, velocity=64, time=768),
    Message('note_on', channel=1, note=71, velocity=106, time=192),
    Message('note_off', channel=1, note=71, velocity=64, time=384),
    Message('note_on', channel=1, note=69, velocity=123, time=96),
    Message('note_off', channel=1, note=69, velocity=64, time=768),
    Message('note_on', channel=1, note=67, velocity=111, time=192),
    Message('note_off', channel=1, note=67, velocity=64, time=384),
    Message('note_on', channel=1, note=66, velocity=117, time=96),
    Message('note_off', channel=1, note=66, velocity=64, time=384),
    Message('note_on', channel=1, note=64, velocity=104, time=96),
    Message('note_off', channel=1, note=64, velocity=64, time=384),
    Message('note_on', channel=1, note=62, velocity=110, time=96),
    Message('note_off', channel=1, note=62, velocity=64, time=384),
    Message('note_on', channel=1, note=64, velocity=109, time=96),
    Message('note_off', channel=1, note=64, velocity=64, time=4300),
    Message('control_change', channel=1, control=86, value=37, time=20),
    MetaMessage('end_of_track', time=0)]),
  MidiTrack([
    MetaMessage('track_name', name='Guitar 1', time=0),
    MetaMessage('midi_port', port=0, time=0),
    MetaMessage('channel_prefix', channel=2, time=0),
    Message('control_change', channel=2, control=7, value=114, time=0),
    Message('control_change', channel=2, control=10, value=16, time=0),
    Message('control_change', channel=2, control=91, value=64, time=0),
    Message('control_change', channel=2, control=93, value=84, time=0),
    Message('program_change', channel=2, program=24, time=0),
    Message('control_change', channel=2, control=123, value=0, time=0),
    Message('note_on', channel=2, note=52, velocity=97, time=1440),
    Message('note_off', channel=2, note=52, velocity=64, time=192),
    Message('note_on', channel=2, note=59, velocity=91, time=48),
    Message('note_off', channel=2, note=59, velocity=64, time=192),
    Message('note_on', channel=2, note=62, velocity=91, time=48),
    Message('note_off', channel=2, note=62, velocity=64, time=192),
    Message('note_on', channel=2, note=61, velocity=94, time=48),
    Message('note_off', channel=2, note=61, velocity=64, time=192),
    Message('note_on', channel=2, note=57, velocity=96, time=48),
    Message('note_off', channel=2, note=57, velocity=64, time=192),
    Message('note_on', channel=2, note=59, velocity=90, time=48),
    Message('note_off', channel=2, note=59, velocity=64, time=192),
    Message('note_on', channel=2, note=52, velocity=91, time=48),
    Message('note_off', channel=2, note=52, velocity=64, time=192),
    Message('note_on', channel=2, note=59, velocity=78, time=48),
    Message('note_off', channel=2, note=59, velocity=64, time=192),
    Message('note_on', channel=2, note=57, velocity=91, time=48),
    Message('note_off', channel=2, note=57, velocity=64, time=192),
    Message('note_on', channel=2, note=59, velocity=80, time=48),
    Message('note_off', channel=2, note=59, velocity=64, time=192),
    Message('note_on', channel=2, note=54, velocity=97, time=48),
    Message('note_off', channel=2, note=54, velocity=64, time=192),
    Message('note_on', channel=2, note=55, velocity=92, time=48),
    Message('note_off', channel=2, note=55, velocity=64, time=192),
    Message('note_on', channel=2, note=52, velocity=81, time=48),
    Message('note_off', channel=2, note=52, velocity=64, time=192),
    Message('note_on', channel=2, note=59, velocity=90, time=48),
    Message('note_off', channel=2, note=59, velocity=64, time=192),
    Message('note_on', channel=2, note=62, velocity=92, time=48),
    Message('note_off', channel=2, note=62, velocity=64, time=192),
    Message('note_on', channel=2, note=61, velocity=88, time=48),
    Message('note_off', channel=2, note=61, velocity=64, time=192),
    Message('note_on', channel=2, note=57, velocity=92, time=48),
    Message('note_off', channel=2, note=57, velocity=64, time=192),
    Message('note_on', channel=2, note=59, velocity=90, time=48),
    Message('note_off', channel=2, note=59, velocity=64, time=192),
    Message('note_on', channel=2, note=52, velocity=87, time=48),
    Message('note_off', channel=2, note=52, velocity=64, time=192),
    Message('note_on', channel=2, note=59, velocity=81, time=48),
    Message('note_off', channel=2, note=59, velocity=64, time=192),
    Message('note_on', channel=2, note=57, velocity=90, time=48),
    Message('note_off', channel=2, note=57, velocity=64, time=192),
    Message('note_on', channel=2, note=59, velocity=100, time=48),
    Message('note_off', channel=2, note=59, velocity=64, time=192),
    Message('note_on', channel=2, note=54, velocity=89, time=48),
    Message('note_off', channel=2, note=54, velocity=64, time=192),
    Message('note_on', channel=2, note=55, velocity=83, time=48),
    Message('note_off', channel=2, note=55, velocity=64, time=192),
    Message('note_on', channel=2, note=52, velocity=94, time=48),
    Message('note_off', channel=2, note=52, velocity=64, time=192),
    Message('note_on', channel=2, note=59, velocity=91, time=48),
    Message('note_off', channel=2, note=59, velocity=64, time=192),
    Message('note_on', channel=2, note=62, velocity=96, time=48),
    Message('note_off', channel=2, note=62, velocity=64, time=192),
    Message('note_on', channel=2, note=61, velocity=102, time=48),
    Message('note_off', channel=2, note=61, velocity=64, time=192),
    Message('note_on', channel=2, note=57, velocity=101, time=48),
    Message('note_off', channel=2, note=57, velocity=64, time=192),
    Message('note_on', channel=2, note=59, velocity=87, time=48),
    Message('note_off', channel=2, note=59, velocity=64, time=192),
    Message('note_on', channel=2, note=52, velocity=92, time=48),
    Message('note_off', channel=2, note=52, velocity=64, time=192),
    Message('note_on', channel=2, note=59, velocity=89, time=48),
    Message('note_off', channel=2, note=59, velocity=64, time=192),
    Message('note_on', channel=2, note=57, velocity=89, time=48),
    Message('note_off', channel=2, note=57, velocity=64, time=192),
    Message('note_on', channel=2, note=59, velocity=90, time=48),
    Message('note_off', channel=2, note=59, velocity=64, time=192),
    Message('note_on', channel=2, note=54, velocity=90, time=48),
    Message('note_off', channel=2, note=54, velocity=64, time=192),
    Message('note_on', channel=2, note=55, velocity=98, time=48),
    Message('note_off', channel=2, note=55, velocity=64, time=192),
    Message('note_on', channel=2, note=50, velocity=97, time=48),
    Message('note_off', channel=2, note=50, velocity=64, time=192),
    Message('note_on', channel=2, note=57, velocity=97, time=48),
    Message('note_off', channel=2, note=57, velocity=64, time=192),
    Message('note_on', channel=2, note=50, velocity=91, time=48),
    Message('note_off', channel=2, note=50, velocity=64, time=192),
    Message('note_on', channel=2, note=52, velocity=77, time=48),
    Message('note_off', channel=2, note=52, velocity=64, time=192),
    Message('note_on', channel=2, note=54, velocity=96, time=48),
    Message('note_off', channel=2, note=54, velocity=64, time=192),
    Message('note_on', channel=2, note=57, velocity=84, time=48),
    Message('note_off', channel=2, note=57, velocity=64, time=192),
    Message('note_on', channel=2, note=52, velocity=87, time=48),
    Message('note_off', channel=2, note=52, velocity=64, time=192),
    Message('note_on', channel=2, note=59, velocity=90, time=48),
    Message('note_off', channel=2, note=59, velocity=64, time=192),
    Message('note_on', channel=2, note=62, velocity=94, time=48),
    Message('note_off', channel=2, note=62, velocity=64, time=192),
    Message('note_on', channel=2, note=61, velocity=91, time=48),
    Message('note_off', channel=2, note=61, velocity=64, time=192),
    Message('note_on', channel=2, note=57, velocity=91, time=48),
    Message('note_off', channel=2, note=57, velocity=64, time=192),
    Message('note_on', channel=2, note=59, velocity=92, time=48),
    Message('note_off', channel=2, note=59, velocity=64, time=192),
    Message('note_on', channel=2, note=52, velocity=80, time=48),
    Message('note_off', channel=2, note=52, velocity=64, time=192),
    Message('note_on', channel=2, note=59, velocity=100, time=48),
    Message('note_off', channel=2, note=59, velocity=64, time=192),
    Message('note_on', channel=2, note=57, velocity=75, time=48),
    Message('note_off', channel=2, note=57, velocity=64, time=192),
    Message('note_on', channel=2, note=59, velocity=89, time=48),
    Message('note_off', channel=2, note=59, velocity=64, time=192),
    Message('note_on', channel=2, note=54, velocity=84, time=48),
    Message('note_off', channel=2, note=54, velocity=64, time=192),
    Message('note_on', channel=2, note=55, velocity=87, time=48),
    Message('note_off', channel=2, note=55, velocity=64, time=192),
    Message('note_on', channel=2, note=55, velocity=94, time=48),
    Message('note_off', channel=2, note=55, velocity=64, time=192),
    Message('note_on', channel=2, note=59, velocity=94, time=48),
    Message('note_off', channel=2, note=59, velocity=64, time=192),
    Message('note_on', channel=2, note=62, velocity=88, time=48),
    Message('note_off', channel=2, note=62, velocity=64, time=192),
    Message('note_on', channel=2, note=59, velocity=92, time=48),
    Message('note_off', channel=2, note=59, velocity=64, time=192),
    Message('note_on', channel=2, note=55, velocity=84, time=48),
    Message('note_off', channel=2, note=55, velocity=64, time=192),
    Message('note_on', channel=2, note=59, velocity=90, time=48),
    Message('note_off', channel=2, note=59, velocity=64, time=192),
    Message('note_on', channel=2, note=52, velocity=103, time=48),
    Message('note_off', channel=2, note=52, velocity=64, time=192),
    Message('note_on', channel=2, note=59, velocity=97, time=48),
    Message('note_off', channel=2, note=59, velocity=64, time=192),
    Message('note_on', channel=2, note=64, velocity=87, time=48),
    Message('note_off', channel=2, note=64, velocity=64, time=192),
    Message('note_on', channel=2, note=59, velocity=86, time=48),
    Message('note_off', channel=2, note=59, velocity=64, time=192),
    Message('note_on', channel=2, note=52, velocity=78, time=48),
    Message('note_off', channel=2, note=52, velocity=64, time=192),
    Message('note_on', channel=2, note=59, velocity=90, time=48),
    Message('note_off', channel=2, note=59, velocity=64, time=192),
    Message('note_on', channel=2, note=55, velocity=94, time=48),
    Message('note_off', channel=2, note=55, velocity=64, time=192),
    Message('note_on', channel=2, note=62, velocity=77, time=48),
    Message('note_off', channel=2, note=62, velocity=64, time=192),
    Message('note_on', channel=2, note=57, velocity=93, time=48),
    Message('note_off', channel=2, note=57, velocity=64, time=192),
    Message('note_on', channel=2, note=61, velocity=91, time=48),
    Message('note_off', channel=2, note=61, velocity=64, time=192),
    Message('note_on', channel=2, note=64, velocity=103, time=48),
    Message('note_off', channel=2, note=64, velocity=64, time=192),
    Message('note_on', channel=2, note=61, velocity=86, time=48),
    Message('note_off', channel=2, note=61, velocity=64, time=192),
    Message('note_on', channel=2, note=52, velocity=91, time=48),
    Message('note_off', channel=2, note=52, velocity=64, time=192),
    Message('note_on', channel=2, note=59, velocity=91, time=48),
    Message('note_off', channel=2, note=59, velocity=64, time=192),
    Message('note_on', channel=2, note=62, velocity=91, time=48),
    Message('note_off', channel=2, note=62, velocity=64, time=192),
    Message('note_on', channel=2, note=61, velocity=97, time=48),
    Message('note_off', channel=2, note=61, velocity=64, time=192),
    Message('note_on', channel=2, note=57, velocity=89, time=48),
    Message('note_off', channel=2, note=57, velocity=64, time=192),
    Message('note_on', channel=2, note=59, velocity=86, time=48),
    Message('note_off', channel=2, note=59, velocity=64, time=192),
    Message('note_on', channel=2, note=52, velocity=84, time=48),
    Message('note_off', channel=2, note=52, velocity=64, time=192),
    Message('note_on', channel=2, note=59, velocity=94, time=48),
    Message('note_off', channel=2, note=59, velocity=64, time=192),
    Message('note_on', channel=2, note=57, velocity=76, time=48),
    Message('note_off', channel=2, note=57, velocity=64, time=192),
    Message('note_on', channel=2, note=59, velocity=96, time=48),
    Message('note_off', channel=2, note=59, velocity=64, time=192),
    Message('note_on', channel=2, note=54, velocity=90, time=48),
    Message('note_off', channel=2, note=54, velocity=64, time=192),
    Message('note_on', channel=2, note=55, velocity=79, time=48),
    Message('note_off', channel=2, note=55, velocity=64, time=192),
    Message('note_on', channel=2, note=52, velocity=95, time=48),
    Message('note_off', channel=2, note=52, velocity=64, time=192),
    Message('note_on', channel=2, note=59, velocity=96, time=48),
    Message('note_off', channel=2, note=59, velocity=64, time=192),
    Message('note_on', channel=2, note=62, velocity=89, time=48),
    Message('note_off', channel=2, note=62, velocity=64, time=192),
    Message('note_on', channel=2, note=61, velocity=98, time=48),
    Message('note_off', channel=2, note=61, velocity=64, time=192),
    Message('note_on', channel=2, note=57, velocity=86, time=48),
    Message('note_off', channel=2, note=57, velocity=64, time=192),
    Message('note_on', channel=2, note=59, velocity=98, time=48),
    Message('note_off', channel=2, note=59, velocity=64, time=192),
    Message('note_on', channel=2, note=52, velocity=76, time=48),
    Message('note_off', channel=2, note=52, velocity=64, time=192),
    Message('note_on', channel=2, note=59, velocity=90, time=48),
    Message('note_off', channel=2, note=59, velocity=64, time=192),
    Message('note_on', channel=2, note=57, velocity=90, time=48),
    Message('note_off', channel=2, note=57, velocity=64, time=192),
    Message('note_on', channel=2, note=59, velocity=76, time=48),
    Message('note_off', channel=2, note=59, velocity=64, time=192),
    Message('note_on', channel=2, note=54, velocity=85, time=48),
    Message('note_off', channel=2, note=54, velocity=64, time=192),
    Message('note_on', channel=2, note=55, velocity=90, time=48),
    Message('note_off', channel=2, note=55, velocity=64, time=192),
    Message('note_on', channel=2, note=52, velocity=90, time=48),
    Message('note_off', channel=2, note=52, velocity=64, time=192),
    Message('note_on', channel=2, note=59, velocity=83, time=48),
    Message('note_off', channel=2, note=59, velocity=64, time=192),
    Message('note_on', channel=2, note=64, velocity=75, time=48),
    Message('note_off', channel=2, note=64, velocity=64, time=192),
    Message('note_on', channel=2, note=59, velocity=90, time=48),
    Message('note_off', channel=2, note=59, velocity=64, time=192),
    Message('note_on', channel=2, note=52, velocity=76, time=48),
    Message('note_off', channel=2, note=52, velocity=64, time=192),
    Message('note_on', channel=2, note=59, velocity=100, time=48),
    Message('note_off', channel=2, note=59, velocity=64, time=192),
    Message('note_on', channel=2, note=55, velocity=90, time=48),
    Message('note_off', channel=2, note=55, velocity=64, time=192),
    Message('note_on', channel=2, note=59, velocity=90, time=48),
    Message('note_off', channel=2, note=59, velocity=64, time=192),
    Message('note_on', channel=2, note=62, velocity=82, time=48),
    Message('note_off', channel=2, note=62, velocity=64, time=192),
    Message('note_on', channel=2, note=59, velocity=90, time=48),
    Message('note_off', channel=2, note=59, velocity=64, time=192),
    Message('note_on', channel=2, note=62, velocity=90, time=48),
    Message('note_off', channel=2, note=62, velocity=64, time=192),
    Message('note_on', channel=2, note=59, velocity=86, time=48),
    Message('note_off', channel=2, note=59, velocity=64, time=192),
    Message('note_on', channel=2, note=55, velocity=83, time=48),
    Message('note_off', channel=2, note=55, velocity=64, time=192),
    Message('note_on', channel=2, note=59, velocity=105, time=48),
    Message('note_off', channel=2, note=59, velocity=64, time=192),
    Message('note_on', channel=2, note=54, velocity=94, time=48),
    Message('note_off', channel=2, note=54, velocity=64, time=192),
    Message('note_on', channel=2, note=57, velocity=94, time=48),
    Message('note_off', channel=2, note=57, velocity=64, time=192),
    Message('note_on', channel=2, note=52, velocity=90, time=48),
    Message('note_off', channel=2, note=52, velocity=64, time=192),
    Message('note_on', channel=2, note=55, velocity=91, time=48),
    Message('note_off', channel=2, note=55, velocity=64, time=192),
    Message('note_on', channel=2, note=50, velocity=90, time=48),
    Message('note_off', channel=2, note=50, velocity=64, time=192),
    Message('note_on', channel=2, note=57, velocity=95, time=48),
    Message('note_off', channel=2, note=57, velocity=64, time=192),
    Message('note_on', channel=2, note=62, velocity=101, time=48),
    Message('note_off', channel=2, note=62, velocity=64, time=192),
    Message('note_on', channel=2, note=57, velocity=87, time=48),
    Message('note_off', channel=2, note=57, velocity=64, time=192),
    Message('note_on', channel=2, note=55, velocity=99, time=48),
    Message('note_off', channel=2, note=55, velocity=64, time=192),
    Message('note_on', channel=2, note=57, velocity=90, time=48),
    Message('note_off', channel=2, note=57, velocity=64, time=192),
    Message('note_on', channel=2, note=54, velocity=85, time=48),
    Message('note_off', channel=2, note=54, velocity=64, time=192),
    Message('note_on', channel=2, note=57, velocity=93, time=48),
    Message('note_off', channel=2, note=57, velocity=64, time=192),
    Message('note_on', channel=2, note=52, velocity=90, time=48),
    Message('note_off', channel=2, note=52, velocity=64, time=192),
    Message('note_on', channel=2, note=57, velocity=99, time=48),
    Message('note_off', channel=2, note=57, velocity=64, time=192),
    Message('note_on', channel=2, note=50, velocity=89, time=48),
    Message('note_off', channel=2, note=50, velocity=64, time=192),
    Message('note_on', channel=2, note=57, velocity=92, time=48),
    Message('note_off', channel=2, note=57, velocity=64, time=192),
    Message('note_on', channel=2, note=52, velocity=87, time=48),
    Message('note_off', channel=2, note=52, velocity=64, time=192),
    Message('note_on', channel=2, note=55, velocity=92, time=48),
    Message('note_off', channel=2, note=55, velocity=64, time=192),
    Message('note_on', channel=2, note=59, velocity=79, time=48),
    Message('note_off', channel=2, note=59, velocity=64, time=192),
    Message('note_on', channel=2, note=55, velocity=100, time=48),
    Message('note_off', channel=2, note=55, velocity=64, time=192),
    Message('note_on', channel=2, note=52, velocity=95, time=48),
    Message('note_off', channel=2, note=52, velocity=64, time=192),
    Message('note_on', channel=2, note=55, velocity=84, time=48),
    Message('note_off', channel=2, note=55, velocity=64, time=192),
    Message('note_on', channel=2, note=50, velocity=85, time=48),
    Message('note_off', channel=2, note=50, velocity=64, time=192),
    Message('note_on', channel=2, note=54, velocity=86, time=48),
    Message('note_off', channel=2, note=54, velocity=64, time=192),
    Message('note_on', channel=2, note=57, velocity=102, time=48),
    Message('note_off', channel=2, note=57, velocity=64, time=192),
    Message('note_on', channel=2, note=54, velocity=86, time=48),
    Message('note_off', channel=2, note=54, velocity=64, time=192),
    Message('note_on', channel=2, note=52, velocity=93, time=48),
    Message('note_off', channel=2, note=52, velocity=64, time=192),
    Message('note_on', channel=2, note=55, velocity=99, time=48),
    Message('note_off', channel=2, note=55, velocity=64, time=192),
    Message('note_on', channel=2, note=50, velocity=91, time=48),
    Message('note_off', channel=2, note=50, velocity=64, time=192),
    Message('note_on', channel=2, note=54, velocity=80, time=48),
    Message('note_off', channel=2, note=54, velocity=64, time=192),
    Message('note_on', channel=2, note=52, velocity=86, time=48),
    Message('note_off', channel=2, note=52, velocity=64, time=192),
    Message('note_on', channel=2, note=55, velocity=104, time=48),
    Message('note_off', channel=2, note=55, velocity=64, time=192),
    Message('note_on', channel=2, note=54, velocity=90, time=48),
    Message('note_off', channel=2, note=54, velocity=64, time=192),
    Message('note_on', channel=2, note=57, velocity=83, time=48),
    Message('note_off', channel=2, note=57, velocity=64, time=192),
    Message('note_on', channel=2, note=52, velocity=97, time=48),
    Message('note_off', channel=2, note=52, velocity=64, time=192),
    Message('note_on', channel=2, note=59, velocity=76, time=48),
    Message('note_off', channel=2, note=59, velocity=64, time=192),
    Message('note_on', channel=2, note=62, velocity=90, time=48),
    Message('note_off', channel=2, note=62, velocity=64, time=192),
    Message('note_on', channel=2, note=61, velocity=79, time=48),
    Message('note_off', channel=2, note=61, velocity=64, time=192),
    Message('note_on', channel=2, note=57, velocity=81, time=48),
    Message('note_off', channel=2, note=57, velocity=64, time=192),
    Message('note_on', channel=2, note=59, velocity=81, time=48),
    Message('note_off', channel=2, note=59, velocity=64, time=192),
    Message('note_on', channel=2, note=52, velocity=97, time=48),
    Message('note_off', channel=2, note=52, velocity=64, time=192),
    Message('note_on', channel=2, note=59, velocity=86, time=48),
    Message('note_off', channel=2, note=59, velocity=64, time=192),
    Message('note_on', channel=2, note=57, velocity=90, time=48),
    Message('note_off', channel=2, note=57, velocity=64, time=192),
    Message('note_on', channel=2, note=59, velocity=78, time=48),
    Message('note_off', channel=2, note=59, velocity=64, time=192),
    Message('note_on', channel=2, note=54, velocity=98, time=48),
    Message('note_off', channel=2, note=54, velocity=64, time=192),
    Message('note_on', channel=2, note=55, velocity=92, time=48),
    Message('note_off', channel=2, note=55, velocity=64, time=192),
    Message('note_on', channel=2, note=52, velocity=78, time=48),
    Message('note_off', channel=2, note=52, velocity=64, time=192),
    Message('note_on', channel=2, note=59, velocity=86, time=48),
    Message('note_off', channel=2, note=59, velocity=64, time=192),
    Message('note_on', channel=2, note=62, velocity=79, time=48),
    Message('note_off', channel=2, note=62, velocity=64, time=192),
    Message('note_on', channel=2, note=61, velocity=85, time=48),
    Message('note_off', channel=2, note=61, velocity=64, time=192),
    Message('note_on', channel=2, note=57, velocity=90, time=48),
    Message('note_off', channel=2, note=57, velocity=64, time=192),
    Message('note_on', channel=2, note=59, velocity=89, time=48),
    Message('note_off', channel=2, note=59, velocity=64, time=192),
    Message('note_on', channel=2, note=52, velocity=103, time=48),
    Message('note_off', channel=2, note=52, velocity=64, time=192),
    Message('note_on', channel=2, note=59, velocity=84, time=48),
    Message('note_off', channel=2, note=59, velocity=64, time=192),
    Message('note_on', channel=2, note=57, velocity=97, time=48),
    Message('note_off', channel=2, note=57, velocity=64, time=192),
    Message('note_on', channel=2, note=59, velocity=101, time=48),
    Message('note_off', channel=2, note=59, velocity=64, time=192),
    Message('note_on', channel=2, note=54, velocity=90, time=48),
    Message('note_off', channel=2, note=54, velocity=64, time=192),
    Message('note_on', channel=2, note=55, velocity=105, time=48),
    Message('note_on', channel=2, note=52, velocity=90, time=240),
    Message('note_off', channel=2, note=52, velocity=64, time=192),
    Message('note_on', channel=2, note=59, velocity=82, time=48),
    Message('note_off', channel=2, note=59, velocity=64, time=192),
    Message('note_on', channel=2, note=62, velocity=82, time=48),
    Message('note_off', channel=2, note=62, velocity=64, time=192),
    Message('note_on', channel=2, note=61, velocity=93, time=48),
    Message('note_off', channel=2, note=61, velocity=64, time=192),
    Message('note_on', channel=2, note=57, velocity=95, time=48),
    Message('note_off', channel=2, note=55, velocity=64, time=144),
    Message('note_off', channel=2, note=57, velocity=64, time=48),
    Message('note_on', channel=2, note=59, velocity=75, time=48),
    Message('note_off', channel=2, note=59, velocity=64, time=192),
    Message('note_on', channel=2, note=52, velocity=90, time=48),
    Message('note_off', channel=2, note=52, velocity=64, time=192),
    Message('note_on', channel=2, note=59, velocity=96, time=48),
    Message('note_off', channel=2, note=59, velocity=64, time=192),
    Message('note_on', channel=2, note=57, velocity=87, time=48),
    Message('note_off', channel=2, note=57, velocity=64, time=192),
    Message('note_on', channel=2, note=59, velocity=91, time=48),
    Message('note_off', channel=2, note=59, velocity=64, time=192),
    Message('note_on', channel=2, note=54, velocity=90, time=48),
    Message('note_off', channel=2, note=54, velocity=64, time=192),
    Message('note_on', channel=2, note=55, velocity=89, time=48),
    Message('note_off', channel=2, note=55, velocity=64, time=192),
    Message('note_on', channel=2, note=50, velocity=101, time=48),
    Message('note_off', channel=2, note=50, velocity=64, time=192),
    Message('note_on', channel=2, note=57, velocity=90, time=48),
    Message('note_off', channel=2, note=57, velocity=64, time=192),
    Message('note_on', channel=2, note=52, velocity=90, time=48),
    Message('note_off', channel=2, note=52, velocity=64, time=192),
    Message('note_on', channel=2, note=57, velocity=98, time=48),
    Message('note_off', channel=2, note=57, velocity=64, time=192),
    Message('note_on', channel=2, note=50, velocity=105, time=48),
    Message('note_off', channel=2, note=50, velocity=64, time=192),
    Message('note_on', channel=2, note=57, velocity=92, time=48),
    Message('note_off', channel=2, note=57, velocity=64, time=192),
    Message('note_on', channel=2, note=52, velocity=80, time=48),
    Message('note_off', channel=2, note=52, velocity=64, time=192),
    Message('note_on', channel=2, note=59, velocity=88, time=48),
    Message('note_off', channel=2, note=59, velocity=64, time=192),
    Message('note_on', channel=2, note=62, velocity=88, time=48),
    Message('note_off', channel=2, note=62, velocity=64, time=192),
    Message('note_on', channel=2, note=61, velocity=100, time=48),
    Message('note_off', channel=2, note=61, velocity=64, time=192),
    Message('note_on', channel=2, note=57, velocity=101, time=48),
    Message('note_off', channel=2, note=57, velocity=64, time=192),
    Message('note_on', channel=2, note=59, velocity=91, time=48),
    Message('note_off', channel=2, note=59, velocity=64, time=192),
    Message('note_on', channel=2, note=52, velocity=102, time=48),
    Message('note_off', channel=2, note=52, velocity=64, time=192),
    Message('note_on', channel=2, note=59, velocity=90, time=48),
    Message('note_off', channel=2, note=59, velocity=64, time=192),
    Message('note_on', channel=2, note=57, velocity=94, time=48),
    Message('note_off', channel=2, note=57, velocity=64, time=192),
    Message('note_on', channel=2, note=59, velocity=89, time=48),
    Message('note_off', channel=2, note=59, velocity=64, time=192),
    Message('note_on', channel=2, note=54, velocity=90, time=48),
    Message('note_off', channel=2, note=54, velocity=64, time=192),
    Message('note_on', channel=2, note=55, velocity=100, time=48),
    Message('note_off', channel=2, note=55, velocity=64, time=192),
    Message('note_on', channel=2, note=55, velocity=91, time=48),
    Message('note_off', channel=2, note=55, velocity=64, time=192),
    Message('note_on', channel=2, note=59, velocity=99, time=48),
    Message('note_off', channel=2, note=59, velocity=64, time=192),
    Message('note_on', channel=2, note=62, velocity=77, time=48),
    Message('note_off', channel=2, note=62, velocity=64, time=192),
    Message('note_on', channel=2, note=59, velocity=94, time=48),
    Message('note_off', channel=2, note=59, velocity=64, time=192),
    Message('note_on', channel=2, note=55, velocity=89, time=48),
    Message('note_off', channel=2, note=55, velocity=64, time=192),
    Message('note_on', channel=2, note=59, velocity=90, time=48),
    Message('note_off', channel=2, note=59, velocity=64, time=192),
    Message('note_on', channel=2, note=52, velocity=77, time=48),
    Message('note_off', channel=2, note=52, velocity=64, time=192),
    Message('note_on', channel=2, note=59, velocity=90, time=48),
    Message('note_off', channel=2, note=59, velocity=64, time=192),
    Message('note_on', channel=2, note=64, velocity=89, time=48),
    Message('note_off', channel=2, note=64, velocity=64, time=192),
    Message('note_on', channel=2, note=59, velocity=79, time=48),
    Message('note_off', channel=2, note=59, velocity=64, time=192),
    Message('note_on', channel=2, note=52, velocity=89, time=48),
    Message('note_off', channel=2, note=52, velocity=64, time=192),
    Message('note_on', channel=2, note=59, velocity=89, time=48),
    Message('note_off', channel=2, note=59, velocity=64, time=192),
    Message('note_on', channel=2, note=55, velocity=100, time=48),
    Message('note_off', channel=2, note=55, velocity=64, time=192),
    Message('note_on', channel=2, note=62, velocity=100, time=48),
    Message('note_off', channel=2, note=62, velocity=64, time=192),
    Message('note_on', channel=2, note=57, velocity=103, time=48),
    Message('note_off', channel=2, note=57, velocity=64, time=192),
    Message('note_on', channel=2, note=61, velocity=105, time=48),
    Message('note_off', channel=2, note=61, velocity=64, time=192),
    Message('note_on', channel=2, note=64, velocity=104, time=48),
    Message('note_off', channel=2, note=64, velocity=64, time=192),
    Message('note_on', channel=2, note=61, velocity=92, time=48),
    Message('note_off', channel=2, note=61, velocity=64, time=192),
    Message('note_on', channel=2, note=52, velocity=100, time=48),
    Message('note_off', channel=2, note=52, velocity=64, time=192),
    Message('note_on', channel=2, note=59, velocity=93, time=48),
    Message('note_off', channel=2, note=59, velocity=64, time=192),
    Message('note_on', channel=2, note=62, velocity=80, time=48),
    Message('note_off', channel=2, note=62, velocity=64, time=192),
    Message('note_on', channel=2, note=61, velocity=99, time=48),
    Message('note_off', channel=2, note=61, velocity=64, time=192),
    Message('note_on', channel=2, note=57, velocity=102, time=48),
    Message('note_off', channel=2, note=57, velocity=64, time=192),
    Message('note_on', channel=2, note=59, velocity=90, time=48),
    Message('note_off', channel=2, note=59, velocity=64, time=192),
    Message('note_on', channel=2, note=52, velocity=75, time=48),
    Message('note_off', channel=2, note=52, velocity=64, time=192),
    Message('note_on', channel=2, note=59, velocity=104, time=48),
    Message('note_off', channel=2, note=59, velocity=64, time=192),
    Message('note_on', channel=2, note=57, velocity=90, time=48),
    Message('note_off', channel=2, note=57, velocity=64, time=192),
    Message('note_on', channel=2, note=59, velocity=105, time=48),
    Message('note_off', channel=2, note=59, velocity=64, time=192),
    Message('note_on', channel=2, note=54, velocity=90, time=48),
    Message('note_off', channel=2, note=54, velocity=64, time=192),
    Message('note_on', channel=2, note=55, velocity=90, time=48),
    Message('note_off', channel=2, note=55, velocity=64, time=192),
    Message('note_on', channel=2, note=52, velocity=100, time=48),
    Message('note_off', channel=2, note=52, velocity=64, time=192),
    Message('note_on', channel=2, note=55, velocity=93, time=48),
    Message('note_off', channel=2, note=55, velocity=64, time=192),
    Message('note_on', channel=2, note=57, velocity=78, time=48),
    Message('note_off', channel=2, note=57, velocity=64, time=192),
    Message('note_on', channel=2, note=59, velocity=89, time=48),
    Message('note_off', channel=2, note=59, velocity=64, time=192),
    Message('note_on', channel=2, note=57, velocity=89, time=48),
    Message('note_off', channel=2, note=57, velocity=64, time=192),
    Message('note_on', channel=2, note=54, velocity=88, time=48),
    Message('note_off', channel=2, note=54, velocity=64, time=192),
    Message('note_on', channel=2, note=52, velocity=77, time=48),
    Message('note_off', channel=2, note=52, velocity=64, time=192),
    Message('note_on', channel=2, note=55, velocity=86, time=48),
    Message('note_off', channel=2, note=55, velocity=64, time=192),
    Message('note_on', channel=2, note=57, velocity=86, time=48),
    Message('note_off', channel=2, note=57, velocity=64, time=192),
    Message('note_on', channel=2, note=59, velocity=93, time=48),
    Message('note_off', channel=2, note=59, velocity=64, time=192),
    Message('note_on', channel=2, note=57, velocity=92, time=48),
    Message('note_off', channel=2, note=57, velocity=64, time=192),
    Message('note_on', channel=2, note=55, velocity=92, time=48),
    Message('note_off', channel=2, note=55, velocity=64, time=192),
    Message('note_on', channel=2, note=52, velocity=83, time=48),
    Message('note_off', channel=2, note=52, velocity=64, time=192),
    Message('note_on', channel=2, note=59, velocity=89, time=48),
    Message('note_off', channel=2, note=59, velocity=64, time=192),
    Message('note_on', channel=2, note=64, velocity=89, time=48),
    Message('note_off', channel=2, note=64, velocity=64, time=192),
    Message('note_on', channel=2, note=59, velocity=77, time=48),
    Message('note_off', channel=2, note=59, velocity=64, time=192),
    Message('note_on', channel=2, note=52, velocity=99, time=48),
    Message('note_off', channel=2, note=52, velocity=64, time=192),
    Message('note_on', channel=2, note=59, velocity=84, time=48),
    Message('note_off', channel=2, note=59, velocity=64, time=192),
    Message('note_on', channel=2, note=55, velocity=81, time=48),
    Message('note_off', channel=2, note=55, velocity=64, time=192),
    Message('note_on', channel=2, note=59, velocity=90, time=48),
    Message('note_off', channel=2, note=59, velocity=64, time=192),
    Message('note_on', channel=2, note=62, velocity=83, time=48),
    Message('note_off', channel=2, note=62, velocity=64, time=192),
    Message('note_on', channel=2, note=59, velocity=89, time=48),
    Message('note_off', channel=2, note=59, velocity=64, time=192),
    Message('note_on', channel=2, note=62, velocity=83, time=48),
    Message('note_off', channel=2, note=62, velocity=64, time=192),
    Message('note_on', channel=2, note=59, velocity=90, time=48),
    Message('note_off', channel=2, note=59, velocity=64, time=192),
    Message('note_on', channel=2, note=55, velocity=91, time=48),
    Message('note_off', channel=2, note=55, velocity=64, time=192),
    Message('note_on', channel=2, note=59, velocity=86, time=48),
    Message('note_off', channel=2, note=59, velocity=64, time=192),
    Message('note_on', channel=2, note=54, velocity=85, time=48),
    Message('note_off', channel=2, note=54, velocity=64, time=192),
    Message('note_on', channel=2, note=57, velocity=91, time=48),
    Message('note_off', channel=2, note=57, velocity=64, time=192),
    Message('note_on', channel=2, note=52, velocity=86, time=48),
    Message('note_off', channel=2, note=52, velocity=64, time=192),
    Message('note_on', channel=2, note=55, velocity=85, time=48),
    Message('note_off', channel=2, note=55, velocity=64, time=192),
    Message('note_on', channel=2, note=50, velocity=84, time=48),
    Message('note_off', channel=2, note=50, velocity=64, time=192),
    Message('note_on', channel=2, note=57, velocity=84, time=48),
    Message('note_off', channel=2, note=57, velocity=64, time=192),
    Message('note_on', channel=2, note=62, velocity=91, time=48),
    Message('note_off', channel=2, note=62, velocity=64, time=192),
    Message('note_on', channel=2, note=57, velocity=91, time=48),
    Message('note_off', channel=2, note=57, velocity=64, time=192),
    Message('note_on', channel=2, note=55, velocity=90, time=48),
    Message('note_off', channel=2, note=55, velocity=64, time=192),
    Message('note_on', channel=2, note=57, velocity=90, time=48),
    Message('note_off', channel=2, note=57, velocity=64, time=192),
    Message('note_on', channel=2, note=54, velocity=85, time=48),
    Message('note_off', channel=2, note=54, velocity=64, time=192),
    Message('note_on', channel=2, note=57, velocity=92, time=48),
    Message('note_off', channel=2, note=57, velocity=64, time=192),
    Message('note_on', channel=2, note=52, velocity=105, time=48),
    Message('note_off', channel=2, note=52, velocity=64, time=192),
    Message('note_on', channel=2, note=57, velocity=86, time=48),
    Message('note_off', channel=2, note=57, velocity=64, time=192),
    Message('note_on', channel=2, note=50, velocity=93, time=48),
    Message('note_off', channel=2, note=50, velocity=64, time=192),
    Message('note_on', channel=2, note=57, velocity=88, time=48),
    Message('note_off', channel=2, note=57, velocity=64, time=192),
    Message('note_on', channel=2, note=52, velocity=94, time=48),
    Message('note_off', channel=2, note=52, velocity=64, time=192),
    Message('note_on', channel=2, note=55, velocity=92, time=48),
    Message('note_off', channel=2, note=55, velocity=64, time=192),
    Message('note_on', channel=2, note=59, velocity=88, time=48),
    Message('note_off', channel=2, note=59, velocity=64, time=192),
    Message('note_on', channel=2, note=55, velocity=93, time=48),
    Message('note_off', channel=2, note=55, velocity=64, time=192),
    Message('note_on', channel=2, note=52, velocity=92, time=48),
    Message('note_off', channel=2, note=52, velocity=64, time=192),
    Message('note_on', channel=2, note=55, velocity=97, time=48),
    Message('note_off', channel=2, note=55, velocity=64, time=192),
    Message('note_on', channel=2, note=50, velocity=89, time=48),
    Message('note_off', channel=2, note=50, velocity=64, time=192),
    Message('note_on', channel=2, note=54, velocity=80, time=48),
    Message('note_off', channel=2, note=54, velocity=64, time=192),
    Message('note_on', channel=2, note=57, velocity=90, time=48),
    Message('note_off', channel=2, note=57, velocity=64, time=192),
    Message('note_on', channel=2, note=54, velocity=83, time=48),
    Message('note_off', channel=2, note=54, velocity=64, time=192),
    Message('note_on', channel=2, note=52, velocity=82, time=48),
    Message('note_off', channel=2, note=52, velocity=64, time=192),
    Message('note_on', channel=2, note=55, velocity=104, time=48),
    Message('note_off', channel=2, note=55, velocity=64, time=192),
    Message('note_on', channel=2, note=50, velocity=99, time=48),
    Message('note_off', channel=2, note=50, velocity=64, time=192),
    Message('note_on', channel=2, note=54, velocity=85, time=48),
    Message('note_off', channel=2, note=54, velocity=64, time=192),
    Message('note_on', channel=2, note=52, velocity=87, time=48),
    Message('note_off', channel=2, note=52, velocity=64, time=192),
    Message('note_on', channel=2, note=55, velocity=90, time=48),
    Message('note_off', channel=2, note=55, velocity=64, time=192),
    Message('note_on', channel=2, note=54, velocity=86, time=48),
    Message('note_off', channel=2, note=54, velocity=64, time=192),
    Message('note_on', channel=2, note=57, velocity=90, time=48),
    Message('note_off', channel=2, note=57, velocity=64, time=192),
    Message('note_on', channel=2, note=52, velocity=88, time=48),
    Message('note_off', channel=2, note=52, velocity=64, time=192),
    Message('note_on', channel=2, note=59, velocity=89, time=48),
    Message('note_off', channel=2, note=59, velocity=64, time=192),
    Message('note_on', channel=2, note=57, velocity=91, time=48),
    Message('note_off', channel=2, note=57, velocity=64, time=192),
    Message('note_on', channel=2, note=59, velocity=83, time=48),
    Message('note_off', channel=2, note=59, velocity=64, time=192),
    Message('note_on', channel=2, note=55, velocity=88, time=48),
    Message('note_off', channel=2, note=55, velocity=64, time=192),
    Message('note_on', channel=2, note=59, velocity=90, time=48),
    Message('note_off', channel=2, note=59, velocity=64, time=192),
    Message('note_on', channel=2, note=54, velocity=94, time=48),
    Message('note_off', channel=2, note=54, velocity=64, time=192),
    Message('note_on', channel=2, note=59, velocity=88, time=48),
    Message('note_off', channel=2, note=59, velocity=64, time=192),
    Message('note_on', channel=2, note=52, velocity=91, time=48),
    Message('note_off', channel=2, note=52, velocity=64, time=192),
    Message('note_on', channel=2, note=59, velocity=94, time=48),
    Message('note_off', channel=2, note=59, velocity=64, time=192),
    Message('note_on', channel=2, note=50, velocity=90, time=48),
    Message('note_off', channel=2, note=50, velocity=64, time=192),
    Message('note_on', channel=2, note=59, velocity=89, time=48),
    Message('note_off', channel=2, note=59, velocity=64, time=192),
    Message('note_on', channel=2, note=52, velocity=94, time=48),
    Message('note_off', channel=2, note=52, velocity=64, time=192),
    Message('note_on', channel=2, note=59, velocity=93, time=48),
    Message('note_off', channel=2, note=59, velocity=64, time=192),
    Message('note_on', channel=2, note=54, velocity=92, time=48),
    Message('note_off', channel=2, note=54, velocity=64, time=192),
    Message('note_on', channel=2, note=59, velocity=92, time=48),
    Message('note_off', channel=2, note=59, velocity=64, time=192),
    Message('note_on', channel=2, note=55, velocity=103, time=48),
    Message('note_off', channel=2, note=55, velocity=64, time=192),
    Message('note_on', channel=2, note=59, velocity=96, time=48),
    Message('note_off', channel=2, note=59, velocity=64, time=192),
    Message('note_on', channel=2, note=52, velocity=79, time=48),
    Message('note_off', channel=2, note=52, velocity=64, time=192),
    Message('note_on', channel=2, note=55, velocity=89, time=48),
    Message('note_off', channel=2, note=55, velocity=64, time=192),
    Message('note_on', channel=2, note=57, velocity=79, time=48),
    Message('note_off', channel=2, note=57, velocity=64, time=192),
    Message('note_on', channel=2, note=59, velocity=90, time=48),
    Message('note_off', channel=2, note=59, velocity=64, time=192),
    Message('note_on', channel=2, note=57, velocity=90, time=48),
    Message('note_off', channel=2, note=57, velocity=64, time=192),
    Message('note_on', channel=2, note=55, velocity=90, time=48),
    Message('note_off', channel=2, note=55, velocity=64, time=192),
    Message('note_on', channel=2, note=52, velocity=93, time=48),
    Message('note_off', channel=2, note=52, velocity=64, time=192),
    Message('note_on', channel=2, note=59, velocity=80, time=48),
    Message('note_off', channel=2, note=59, velocity=64, time=192),
    Message('note_on', channel=2, note=62, velocity=81, time=48),
    Message('note_off', channel=2, note=62, velocity=64, time=192),
    Message('note_on', channel=2, note=61, velocity=97, time=48),
    Message('note_off', channel=2, note=61, velocity=64, time=192),
    Message('note_on', channel=2, note=57, velocity=91, time=48),
    Message('note_off', channel=2, note=57, velocity=64, time=192),
    Message('note_on', channel=2, note=59, velocity=102, time=48),
    Message('note_off', channel=2, note=59, velocity=64, time=192),
    Message('note_on', channel=2, note=52, velocity=91, time=48),
    Message('note_off', channel=2, note=52, velocity=64, time=192),
    Message('note_on', channel=2, note=59, velocity=92, time=48),
    Message('note_off', channel=2, note=59, velocity=64, time=192),
    Message('note_on', channel=2, note=57, velocity=78, time=48),
    Message('note_off', channel=2, note=57, velocity=64, time=192),
    Message('note_on', channel=2, note=59, velocity=98, time=48),
    Message('note_off', channel=2, note=59, velocity=64, time=192),
    Message('note_on', channel=2, note=54, velocity=81, time=48),
    Message('note_off', channel=2, note=54, velocity=64, time=192),
    Message('note_on', channel=2, note=55, velocity=97, time=48),
    Message('note_off', channel=2, note=55, velocity=64, time=192),
    Message('note_on', channel=2, note=50, velocity=95, time=48),
    Message('note_off', channel=2, note=50, velocity=64, time=192),
    Message('note_on', channel=2, note=57, velocity=102, time=48),
    Message('note_off', channel=2, note=57, velocity=64, time=192),
    Message('note_on', channel=2, note=52, velocity=97, time=48),
    Message('note_off', channel=2, note=52, velocity=64, time=192),
    Message('note_on', channel=2, note=57, velocity=93, time=48),
    Message('note_off', channel=2, note=57, velocity=64, time=192),
    Message('note_on', channel=2, note=50, velocity=88, time=48),
    Message('note_off', channel=2, note=50, velocity=64, time=192),
    Message('note_on', channel=2, note=57, velocity=91, time=48),
    Message('note_off', channel=2, note=57, velocity=64, time=192),
    Message('note_on', channel=2, note=52, velocity=77, time=48),
    Message('note_off', channel=2, note=52, velocity=64, time=192),
    Message('note_on', channel=2, note=59, velocity=90, time=48),
    Message('note_off', channel=2, note=59, velocity=64, time=192),
    Message('note_on', channel=2, note=62, velocity=92, time=48),
    Message('note_off', channel=2, note=62, velocity=64, time=192),
    Message('note_on', channel=2, note=61, velocity=80, time=48),
    Message('note_off', channel=2, note=61, velocity=64, time=192),
    Message('note_on', channel=2, note=57, velocity=89, time=48),
    Message('note_off', channel=2, note=57, velocity=64, time=192),
    Message('note_on', channel=2, note=59, velocity=90, time=48),
    Message('note_off', channel=2, note=59, velocity=64, time=192),
    Message('note_on', channel=2, note=52, velocity=97, time=48),
    Message('note_off', channel=2, note=52, velocity=64, time=192),
    Message('note_on', channel=2, note=59, velocity=84, time=48),
    Message('note_off', channel=2, note=59, velocity=64, time=192),
    Message('note_on', channel=2, note=57, velocity=102, time=48),
    Message('note_off', channel=2, note=57, velocity=64, time=192),
    Message('note_on', channel=2, note=59, velocity=91, time=48),
    Message('note_off', channel=2, note=59, velocity=64, time=192),
    Message('note_on', channel=2, note=54, velocity=94, time=48),
    Message('note_off', channel=2, note=54, velocity=64, time=192),
    Message('note_on', channel=2, note=55, velocity=90, time=48),
    Message('note_off', channel=2, note=55, velocity=64, time=192),
    Message('note_on', channel=2, note=55, velocity=90, time=48),
    Message('note_off', channel=2, note=55, velocity=64, time=192),
    Message('note_on', channel=2, note=59, velocity=79, time=48),
    Message('note_off', channel=2, note=59, velocity=64, time=192),
    Message('note_on', channel=2, note=62, velocity=90, time=48),
    Message('note_off', channel=2, note=62, velocity=64, time=192),
    Message('note_on', channel=2, note=59, velocity=89, time=48),
    Message('note_off', channel=2, note=59, velocity=64, time=192),
    Message('note_on', channel=2, note=55, velocity=103, time=48),
    Message('note_off', channel=2, note=55, velocity=64, time=192),
    Message('note_on', channel=2, note=59, velocity=86, time=48),
    Message('note_off', channel=2, note=59, velocity=64, time=192),
    Message('note_on', channel=2, note=52, velocity=90, time=48),
    Message('note_off', channel=2, note=52, velocity=64, time=192),
    Message('note_on', channel=2, note=59, velocity=104, time=48),
    Message('note_off', channel=2, note=59, velocity=64, time=192),
    Message('note_on', channel=2, note=64, velocity=90, time=48),
    Message('note_off', channel=2, note=64, velocity=64, time=192),
    Message('note_on', channel=2, note=59, velocity=99, time=48),
    Message('note_off', channel=2, note=59, velocity=64, time=192),
    Message('note_on', channel=2, note=52, velocity=90, time=48),
    Message('note_off', channel=2, note=52, velocity=64, time=192),
    Message('note_on', channel=2, note=59, velocity=88, time=48),
    Message('note_off', channel=2, note=59, velocity=64, time=192),
    Message('note_on', channel=2, note=55, velocity=88, time=48),
    Message('note_off', channel=2, note=55, velocity=64, time=192),
    Message('note_on', channel=2, note=62, velocity=91, time=48),
    Message('note_off', channel=2, note=62, velocity=64, time=192),
    Message('note_on', channel=2, note=57, velocity=93, time=48),
    Message('note_off', channel=2, note=57, velocity=64, time=192),
    Message('note_on', channel=2, note=61, velocity=81, time=48),
    Message('note_off', channel=2, note=61, velocity=64, time=192),
    Message('note_on', channel=2, note=64, velocity=103, time=48),
    Message('note_off', channel=2, note=64, velocity=64, time=192),
    Message('note_on', channel=2, note=61, velocity=94, time=48),
    Message('note_off', channel=2, note=61, velocity=64, time=192),
    Message('note_on', channel=2, note=52, velocity=90, time=48),
    Message('note_off', channel=2, note=52, velocity=64, time=192),
    Message('note_on', channel=2, note=59, velocity=90, time=48),
    Message('note_off', channel=2, note=59, velocity=64, time=192),
    Message('note_on', channel=2, note=62, velocity=89, time=48),
    Message('note_off', channel=2, note=62, velocity=64, time=192),
    Message('note_on', channel=2, note=61, velocity=90, time=48),
    Message('note_off', channel=2, note=61, velocity=64, time=192),
    Message('note_on', channel=2, note=57, velocity=101, time=48),
    Message('note_off', channel=2, note=57, velocity=64, time=192),
    Message('note_on', channel=2, note=59, velocity=82, time=48),
    Message('note_off', channel=2, note=59, velocity=64, time=192),
    Message('note_on', channel=2, note=52, velocity=89, time=48),
    Message('note_off', channel=2, note=52, velocity=64, time=192),
    Message('note_on', channel=2, note=59, velocity=92, time=48),
    Message('note_off', channel=2, note=59, velocity=64, time=192),
    Message('note_on', channel=2, note=57, velocity=83, time=48),
    Message('note_off', channel=2, note=57, velocity=64, time=192),
    Message('note_on', channel=2, note=59, velocity=90, time=48),
    Message('note_off', channel=2, note=59, velocity=64, time=192),
    Message('note_on', channel=2, note=54, velocity=75, time=48),
    Message('note_off', channel=2, note=54, velocity=64, time=192),
    Message('note_on', channel=2, note=55, velocity=90, time=48),
    Message('note_off', channel=2, note=55, velocity=64, time=192),
    Message('note_on', channel=2, note=52, velocity=84, time=48),
    Message('note_off', channel=2, note=52, velocity=64, time=192),
    Message('note_on', channel=2, note=55, velocity=90, time=48),
    Message('note_off', channel=2, note=55, velocity=64, time=192),
    Message('note_on', channel=2, note=57, velocity=88, time=48),
    Message('note_off', channel=2, note=57, velocity=64, time=192),
    Message('note_on', channel=2, note=59, velocity=90, time=48),
    Message('note_off', channel=2, note=59, velocity=64, time=192),
    Message('note_on', channel=2, note=57, velocity=85, time=48),
    Message('note_off', channel=2, note=57, velocity=64, time=192),
    Message('note_on', channel=2, note=54, velocity=91, time=48),
    Message('note_off', channel=2, note=54, velocity=64, time=192),
    Message('note_on', channel=2, note=52, velocity=99, time=48),
    Message('note_off', channel=2, note=52, velocity=64, time=192),
    Message('note_on', channel=2, note=55, velocity=82, time=48),
    Message('note_off', channel=2, note=55, velocity=64, time=192),
    Message('note_on', channel=2, note=57, velocity=105, time=48),
    Message('note_off', channel=2, note=57, velocity=64, time=192),
    Message('note_on', channel=2, note=59, velocity=92, time=48),
    Message('note_off', channel=2, note=59, velocity=64, time=192),
    Message('note_on', channel=2, note=57, velocity=81, time=48),
    Message('note_off', channel=2, note=57, velocity=64, time=192),
    Message('note_on', channel=2, note=55, velocity=84, time=48),
    Message('note_off', channel=2, note=55, velocity=64, time=192),
    Message('note_on', channel=2, note=52, velocity=101, time=48),
    Message('note_off', channel=2, note=52, velocity=64, time=192),
    Message('note_on', channel=2, note=59, velocity=90, time=48),
    Message('note_off', channel=2, note=59, velocity=64, time=192),
    Message('note_on', channel=2, note=64, velocity=78, time=48),
    Message('note_off', channel=2, note=64, velocity=64, time=192),
    Message('note_on', channel=2, note=59, velocity=101, time=48),
    Message('note_off', channel=2, note=59, velocity=64, time=192),
    Message('note_on', channel=2, note=52, velocity=99, time=48),
    Message('note_off', channel=2, note=52, velocity=64, time=192),
    Message('note_on', channel=2, note=59, velocity=99, time=48),
    Message('note_off', channel=2, note=59, velocity=64, time=192),
    Message('note_on', channel=2, note=55, velocity=104, time=48),
    Message('note_off', channel=2, note=55, velocity=64, time=192),
    Message('note_on', channel=2, note=59, velocity=105, time=48),
    Message('note_off', channel=2, note=59, velocity=64, time=192),
    Message('note_on', channel=2, note=62, velocity=80, time=48),
    Message('note_off', channel=2, note=62, velocity=64, time=192),
    Message('note_on', channel=2, note=59, velocity=104, time=48),
    Message('note_off', channel=2, note=59, velocity=64, time=192),
    Message('note_on', channel=2, note=62, velocity=91, time=48),
    Message('note_off', channel=2, note=62, velocity=64, time=192),
    Message('note_on', channel=2, note=59, velocity=94, time=48),
    Message('note_off', channel=2, note=59, velocity=64, time=192),
    Message('note_on', channel=2, note=55, velocity=98, time=48),
    Message('note_off', channel=2, note=55, velocity=64, time=192),
    Message('note_on', channel=2, note=59, velocity=87, time=48),
    Message('note_off', channel=2, note=59, velocity=64, time=192),
    Message('note_on', channel=2, note=54, velocity=87, time=48),
    Message('note_off', channel=2, note=54, velocity=64, time=192),
    Message('note_on', channel=2, note=57, velocity=95, time=48),
    Message('note_off', channel=2, note=57, velocity=64, time=192),
    Message('note_on', channel=2, note=52, velocity=92, time=48),
    Message('note_off', channel=2, note=52, velocity=64, time=192),
    Message('note_on', channel=2, note=55, velocity=90, time=48),
    Message('note_off', channel=2, note=55, velocity=64, time=192),
    Message('note_on', channel=2, note=50, velocity=87, time=48),
    Message('note_off', channel=2, note=50, velocity=64, time=192),
    Message('note_on', channel=2, note=57, velocity=90, time=48),
    Message('note_off', channel=2, note=57, velocity=64, time=192),
    Message('note_on', channel=2, note=62, velocity=81, time=48),
    Message('note_off', channel=2, note=62, velocity=64, time=192),
    Message('note_on', channel=2, note=57, velocity=79, time=48),
    Message('note_off', channel=2, note=57, velocity=64, time=192),
    Message('note_on', channel=2, note=55, velocity=94, time=48),
    Message('note_off', channel=2, note=55, velocity=64, time=192),
    Message('note_on', channel=2, note=57, velocity=88, time=48),
    Message('note_off', channel=2, note=57, velocity=64, time=192),
    Message('note_on', channel=2, note=54, velocity=90, time=48),
    Message('note_off', channel=2, note=54, velocity=64, time=192),
    Message('note_on', channel=2, note=57, velocity=100, time=48),
    Message('note_off', channel=2, note=57, velocity=64, time=192),
    Message('note_on', channel=2, note=52, velocity=90, time=48),
    Message('note_off', channel=2, note=52, velocity=64, time=192),
    Message('note_on', channel=2, note=57, velocity=80, time=48),
    Message('note_off', channel=2, note=57, velocity=64, time=192),
    Message('note_on', channel=2, note=50, velocity=97, time=48),
    Message('note_off', channel=2, note=50, velocity=64, time=192),
    Message('note_on', channel=2, note=57, velocity=96, time=48),
    Message('note_off', channel=2, note=57, velocity=64, time=192),
    Message('note_on', channel=2, note=52, velocity=82, time=48),
    Message('note_off', channel=2, note=52, velocity=64, time=192),
    Message('note_on', channel=2, note=55, velocity=104, time=48),
    Message('note_off', channel=2, note=55, velocity=64, time=192),
    Message('note_on', channel=2, note=59, velocity=90, time=48),
    Message('note_off', channel=2, note=59, velocity=64, time=192),
    Message('note_on', channel=2, note=55, velocity=87, time=48),
    Message('note_off', channel=2, note=55, velocity=64, time=192),
    Message('note_on', channel=2, note=52, velocity=90, time=48),
    Message('note_off', channel=2, note=52, velocity=64, time=192),
    Message('note_on', channel=2, note=55, velocity=98, time=48),
    Message('note_off', channel=2, note=55, velocity=64, time=192),
    Message('note_on', channel=2, note=50, velocity=81, time=48),
    Message('note_off', channel=2, note=50, velocity=64, time=192),
    Message('note_on', channel=2, note=54, velocity=95, time=48),
    Message('note_off', channel=2, note=54, velocity=64, time=192),
    Message('note_on', channel=2, note=57, velocity=90, time=48),
    Message('note_off', channel=2, note=57, velocity=64, time=192),
    Message('note_on', channel=2, note=54, velocity=88, time=48),
    Message('note_off', channel=2, note=54, velocity=64, time=192),
    Message('note_on', channel=2, note=52, velocity=83, time=48),
    Message('note_off', channel=2, note=52, velocity=64, time=192),
    Message('note_on', channel=2, note=55, velocity=90, time=48),
    Message('note_off', channel=2, note=55, velocity=64, time=192),
    Message('note_on', channel=2, note=50, velocity=76, time=48),
    Message('note_off', channel=2, note=50, velocity=64, time=192),
    Message('note_on', channel=2, note=54, velocity=79, time=48),
    Message('note_off', channel=2, note=54, velocity=64, time=192),
    Message('note_on', channel=2, note=52, velocity=102, time=48),
    Message('note_off', channel=2, note=52, velocity=64, time=192),
    Message('note_on', channel=2, note=55, velocity=90, time=48),
    Message('note_off', channel=2, note=55, velocity=64, time=192),
    Message('note_on', channel=2, note=54, velocity=83, time=48),
    Message('note_off', channel=2, note=54, velocity=64, time=192),
    Message('note_on', channel=2, note=57, velocity=79, time=48),
    Message('note_off', channel=2, note=57, velocity=64, time=192),
    Message('note_on', channel=2, note=52, velocity=92, time=48),
    Message('note_off', channel=2, note=52, velocity=64, time=192),
    Message('note_on', channel=2, note=59, velocity=89, time=48),
    Message('note_off', channel=2, note=59, velocity=64, time=192),
    Message('note_on', channel=2, note=57, velocity=77, time=48),
    Message('note_off', channel=2, note=57, velocity=64, time=192),
    Message('note_on', channel=2, note=59, velocity=91, time=48),
    Message('note_off', channel=2, note=59, velocity=64, time=192),
    Message('note_on', channel=2, note=55, velocity=90, time=48),
    Message('note_off', channel=2, note=55, velocity=64, time=192),
    Message('note_on', channel=2, note=59, velocity=90, time=48),
    Message('note_off', channel=2, note=59, velocity=64, time=192),
    Message('note_on', channel=2, note=54, velocity=89, time=48),
    Message('note_off', channel=2, note=54, velocity=64, time=192),
    Message('note_on', channel=2, note=59, velocity=94, time=48),
    Message('note_off', channel=2, note=59, velocity=64, time=192),
    Message('note_on', channel=2, note=52, velocity=91, time=48),
    Message('note_off', channel=2, note=52, velocity=64, time=192),
    Message('note_on', channel=2, note=59, velocity=88, time=48),
    Message('note_off', channel=2, note=59, velocity=64, time=192),
    Message('note_on', channel=2, note=50, velocity=101, time=48),
    Message('note_off', channel=2, note=50, velocity=64, time=192),
    Message('note_on', channel=2, note=59, velocity=92, time=48),
    Message('note_off', channel=2, note=59, velocity=64, time=192),
    Message('note_on', channel=2, note=52, velocity=80, time=48),
    Message('note_off', channel=2, note=52, velocity=64, time=192),
    Message('note_on', channel=2, note=59, velocity=93, time=48),
    Message('note_off', channel=2, note=59, velocity=64, time=192),
    Message('note_on', channel=2, note=54, velocity=86, time=48),
    Message('note_off', channel=2, note=54, velocity=64, time=192),
    Message('note_on', channel=2, note=59, velocity=83, time=48),
    Message('note_off', channel=2, note=59, velocity=64, time=192),
    Message('note_on', channel=2, note=55, velocity=102, time=48),
    Message('note_off', channel=2, note=55, velocity=64, time=192),
    Message('note_on', channel=2, note=59, velocity=94, time=48),
    Message('note_off', channel=2, note=59, velocity=64, time=192),
    Message('note_on', channel=2, note=52, velocity=77, time=48),
    Message('note_off', channel=2, note=52, velocity=64, time=192),
    Message('note_on', channel=2, note=55, velocity=90, time=48),
    Message('note_off', channel=2, note=55, velocity=64, time=192),
    Message('note_on', channel=2, note=57, velocity=87, time=48),
    Message('note_off', channel=2, note=57, velocity=64, time=192),
    Message('note_on', channel=2, note=59, velocity=76, time=48),
    Message('note_off', channel=2, note=59, velocity=64, time=192),
    Message('note_on', channel=2, note=57, velocity=76, time=48),
    Message('note_off', channel=2, note=57, velocity=64, time=192),
    Message('note_on', channel=2, note=55, velocity=80, time=48),
    Message('note_off', channel=2, note=55, velocity=64, time=192),
    Message('note_on', channel=2, note=52, velocity=90, time=48),
    Message('note_off', channel=2, note=52, velocity=64, time=192),
    Message('note_on', channel=2, note=59, velocity=93, time=48),
    Message('note_off', channel=2, note=59, velocity=64, time=192),
    Message('note_on', channel=2, note=62, velocity=86, time=48),
    Message('note_off', channel=2, note=62, velocity=64, time=192),
    Message('note_on', channel=2, note=61, velocity=97, time=48),
    Message('note_off', channel=2, note=61, velocity=64, time=192),
    Message('note_on', channel=2, note=57, velocity=91, time=48),
    Message('note_off', channel=2, note=57, velocity=64, time=192),
    Message('note_on', channel=2, note=59, velocity=91, time=48),
    Message('note_off', channel=2, note=59, velocity=64, time=192),
    Message('note_on', channel=2, note=52, velocity=81, time=48),
    Message('note_off', channel=2, note=52, velocity=64, time=192),
    Message('note_on', channel=2, note=59, velocity=77, time=48),
    Message('note_off', channel=2, note=59, velocity=64, time=192),
    Message('note_on', channel=2, note=57, velocity=103, time=48),
    Message('note_off', channel=2, note=57, velocity=64, time=192),
    Message('note_on', channel=2, note=59, velocity=81, time=48),
    Message('note_off', channel=2, note=59, velocity=64, time=192),
    Message('note_on', channel=2, note=54, velocity=97, time=48),
    Message('note_off', channel=2, note=54, velocity=64, time=192),
    Message('note_on', channel=2, note=55, velocity=88, time=48),
    Message('note_off', channel=2, note=55, velocity=64, time=192),
    Message('note_on', channel=2, note=50, velocity=101, time=48),
    Message('note_off', channel=2, note=50, velocity=64, time=192),
    Message('note_on', channel=2, note=57, velocity=94, time=48),
    Message('note_off', channel=2, note=57, velocity=64, time=192),
    Message('note_on', channel=2, note=52, velocity=89, time=48),
    Message('note_off', channel=2, note=52, velocity=64, time=192),
    Message('note_on', channel=2, note=57, velocity=88, time=48),
    Message('note_off', channel=2, note=57, velocity=64, time=192),
    Message('note_on', channel=2, note=50, velocity=97, time=48),
    Message('note_off', channel=2, note=50, velocity=64, time=192),
    Message('note_on', channel=2, note=57, velocity=85, time=48),
    Message('note_off', channel=2, note=57, velocity=64, time=192),
    Message('note_on', channel=2, note=52, velocity=88, time=48),
    Message('note_off', channel=2, note=52, velocity=64, time=192),
    Message('note_on', channel=2, note=59, velocity=88, time=48),
    Message('note_off', channel=2, note=59, velocity=64, time=192),
    Message('note_on', channel=2, note=62, velocity=92, time=48),
    Message('note_off', channel=2, note=62, velocity=64, time=192),
    Message('note_on', channel=2, note=61, velocity=90, time=48),
    Message('note_off', channel=2, note=61, velocity=64, time=192),
    Message('note_on', channel=2, note=57, velocity=95, time=48),
    Message('note_off', channel=2, note=57, velocity=64, time=192),
    Message('note_on', channel=2, note=59, velocity=104, time=48),
    Message('note_off', channel=2, note=59, velocity=64, time=192),
    Message('note_on', channel=2, note=52, velocity=81, time=48),
    Message('note_off', channel=2, note=52, velocity=64, time=192),
    Message('note_on', channel=2, note=59, velocity=81, time=48),
    Message('note_off', channel=2, note=59, velocity=64, time=192),
    Message('note_on', channel=2, note=57, velocity=89, time=48),
    Message('note_off', channel=2, note=57, velocity=64, time=192),
    Message('note_on', channel=2, note=59, velocity=83, time=48),
    Message('note_off', channel=2, note=59, velocity=64, time=192),
    Message('note_on', channel=2, note=54, velocity=84, time=48),
    Message('note_off', channel=2, note=54, velocity=64, time=192),
    Message('note_on', channel=2, note=55, velocity=89, time=48),
    Message('note_off', channel=2, note=55, velocity=64, time=192),
    Message('note_on', channel=2, note=55, velocity=92, time=48),
    Message('note_off', channel=2, note=55, velocity=64, time=192),
    Message('note_on', channel=2, note=59, velocity=76, time=48),
    Message('note_off', channel=2, note=59, velocity=64, time=192),
    Message('note_on', channel=2, note=62, velocity=93, time=48),
    Message('note_off', channel=2, note=62, velocity=64, time=192),
    Message('note_on', channel=2, note=59, velocity=91, time=48),
    Message('note_off', channel=2, note=59, velocity=64, time=192),
    Message('note_on', channel=2, note=55, velocity=85, time=48),
    Message('note_off', channel=2, note=55, velocity=64, time=192),
    Message('note_on', channel=2, note=59, velocity=90, time=48),
    Message('note_off', channel=2, note=59, velocity=64, time=192),
    Message('note_on', channel=2, note=52, velocity=90, time=48),
    Message('note_off', channel=2, note=52, velocity=64, time=192),
    Message('note_on', channel=2, note=59, velocity=104, time=48),
    Message('note_off', channel=2, note=59, velocity=64, time=192),
    Message('note_on', channel=2, note=64, velocity=98, time=48),
    Message('note_off', channel=2, note=64, velocity=64, time=192),
    Message('note_on', channel=2, note=59, velocity=92, time=48),
    Message('note_off', channel=2, note=59, velocity=64, time=192),
    Message('note_on', channel=2, note=52, velocity=102, time=48),
    Message('note_off', channel=2, note=52, velocity=64, time=192),
    Message('note_on', channel=2, note=59, velocity=76, time=48),
    Message('note_off', channel=2, note=59, velocity=64, time=192),
    Message('note_on', channel=2, note=55, velocity=90, time=48),
    Message('note_off', channel=2, note=55, velocity=64, time=192),
    Message('note_on', channel=2, note=62, velocity=78, time=48),
    Message('note_off', channel=2, note=62, velocity=64, time=192),
    Message('note_on', channel=2, note=57, velocity=90, time=48),
    Message('note_off', channel=2, note=57, velocity=64, time=192),
    Message('note_on', channel=2, note=61, velocity=90, time=48),
    Message('note_off', channel=2, note=61, velocity=64, time=192),
    Message('note_on', channel=2, note=64, velocity=75, time=48),
    Message('note_off', channel=2, note=64, velocity=64, time=192),
    Message('note_on', channel=2, note=61, velocity=104, time=48),
    Message('note_off', channel=2, note=61, velocity=64, time=192),
    Message('note_on', channel=2, note=52, velocity=90, time=48),
    Message('note_off', channel=2, note=52, velocity=64, time=192),
    Message('note_on', channel=2, note=59, velocity=75, time=48),
    Message('note_off', channel=2, note=59, velocity=64, time=192),
    Message('note_on', channel=2, note=62, velocity=86, time=48),
    Message('note_off', channel=2, note=62, velocity=64, time=192),
    Message('note_on', channel=2, note=61, velocity=88, time=48),
    Message('note_off', channel=2, note=61, velocity=64, time=192),
    Message('note_on', channel=2, note=57, velocity=92, time=48),
    Message('note_off', channel=2, note=57, velocity=64, time=192),
    Message('note_on', channel=2, note=59, velocity=93, time=48),
    Message('note_off', channel=2, note=59, velocity=64, time=192),
    Message('note_on', channel=2, note=52, velocity=102, time=48),
    Message('note_off', channel=2, note=52, velocity=64, time=192),
    Message('note_on', channel=2, note=59, velocity=80, time=48),
    Message('note_off', channel=2, note=59, velocity=64, time=192),
    Message('note_on', channel=2, note=57, velocity=92, time=48),
    Message('note_off', channel=2, note=57, velocity=64, time=192),
    Message('note_on', channel=2, note=59, velocity=93, time=48),
    Message('note_off', channel=2, note=59, velocity=64, time=192),
    Message('note_on', channel=2, note=54, velocity=90, time=48),
    Message('note_off', channel=2, note=54, velocity=64, time=192),
    Message('note_on', channel=2, note=55, velocity=90, time=48),
    Message('note_off', channel=2, note=55, velocity=64, time=192),
    Message('note_on', channel=2, note=52, velocity=95, time=48),
    Message('note_off', channel=2, note=52, velocity=64, time=192),
    Message('note_on', channel=2, note=55, velocity=88, time=48),
    Message('note_off', channel=2, note=55, velocity=64, time=192),
    Message('note_on', channel=2, note=57, velocity=90, time=48),
    Message('note_off', channel=2, note=57, velocity=64, time=192),
    Message('note_on', channel=2, note=59, velocity=87, time=48),
    Message('note_off', channel=2, note=59, velocity=64, time=192),
    Message('note_on', channel=2, note=57, velocity=90, time=48),
    Message('note_off', channel=2, note=57, velocity=64, time=192),
    Message('note_on', channel=2, note=54, velocity=87, time=48),
    Message('note_off', channel=2, note=54, velocity=64, time=192),
    Message('note_on', channel=2, note=52, velocity=80, time=48),
    Message('note_off', channel=2, note=52, velocity=64, time=192),
    Message('note_on', channel=2, note=55, velocity=86, time=48),
    Message('note_off', channel=2, note=55, velocity=64, time=192),
    Message('note_on', channel=2, note=57, velocity=102, time=48),
    Message('note_off', channel=2, note=57, velocity=64, time=192),
    Message('note_on', channel=2, note=59, velocity=90, time=48),
    Message('note_off', channel=2, note=59, velocity=64, time=192),
    Message('note_on', channel=2, note=57, velocity=104, time=48),
    Message('note_off', channel=2, note=57, velocity=64, time=192),
    Message('note_on', channel=2, note=55, velocity=89, time=48),
    Message('note_off', channel=2, note=55, velocity=64, time=192),
    Message('note_on', channel=2, note=52, velocity=90, time=48),
    Message('note_off', channel=2, note=52, velocity=64, time=192),
    Message('note_on', channel=2, note=59, velocity=90, time=48),
    Message('note_off', channel=2, note=59, velocity=64, time=192),
    Message('note_on', channel=2, note=64, velocity=88, time=48),
    Message('note_off', channel=2, note=64, velocity=64, time=192),
    Message('note_on', channel=2, note=59, velocity=86, time=48),
    Message('note_off', channel=2, note=59, velocity=64, time=192),
    Message('note_on', channel=2, note=52, velocity=84, time=48),
    Message('note_off', channel=2, note=52, velocity=64, time=192),
    Message('note_on', channel=2, note=59, velocity=87, time=48),
    Message('note_off', channel=2, note=59, velocity=64, time=192),
    Message('note_on', channel=2, note=55, velocity=79, time=48),
    Message('note_off', channel=2, note=55, velocity=64, time=192),
    Message('note_on', channel=2, note=59, velocity=77, time=48),
    Message('note_off', channel=2, note=59, velocity=64, time=192),
    Message('note_on', channel=2, note=62, velocity=103, time=48),
    Message('note_off', channel=2, note=62, velocity=64, time=192),
    Message('note_on', channel=2, note=59, velocity=88, time=48),
    Message('note_off', channel=2, note=59, velocity=64, time=192),
    Message('note_on', channel=2, note=62, velocity=90, time=48),
    Message('note_off', channel=2, note=62, velocity=64, time=192),
    Message('note_on', channel=2, note=59, velocity=103, time=48),
    Message('note_off', channel=2, note=59, velocity=64, time=192),
    Message('note_on', channel=2, note=55, velocity=81, time=48),
    Message('note_off', channel=2, note=55, velocity=64, time=192),
    Message('note_on', channel=2, note=59, velocity=98, time=48),
    Message('note_off', channel=2, note=59, velocity=64, time=192),
    Message('note_on', channel=2, note=54, velocity=92, time=48),
    Message('note_off', channel=2, note=54, velocity=64, time=192),
    Message('note_on', channel=2, note=57, velocity=91, time=48),
    Message('note_off', channel=2, note=57, velocity=64, time=192),
    Message('note_on', channel=2, note=52, velocity=95, time=48),
    Message('note_off', channel=2, note=52, velocity=64, time=192),
    Message('note_on', channel=2, note=55, velocity=84, time=48),
    Message('note_off', channel=2, note=55, velocity=64, time=192),
    Message('note_on', channel=2, note=50, velocity=96, time=48),
    Message('note_off', channel=2, note=50, velocity=64, time=192),
    Message('note_on', channel=2, note=57, velocity=90, time=48),
    Message('note_off', channel=2, note=57, velocity=64, time=192),
    Message('note_on', channel=2, note=62, velocity=104, time=48),
    Message('note_off', channel=2, note=62, velocity=64, time=192),
    Message('note_on', channel=2, note=57, velocity=77, time=48),
    Message('note_off', channel=2, note=57, velocity=64, time=192),
    Message('note_on', channel=2, note=55, velocity=88, time=48),
    Message('note_off', channel=2, note=55, velocity=64, time=192),
    Message('note_on', channel=2, note=57, velocity=89, time=48),
    Message('note_off', channel=2, note=57, velocity=64, time=192),
    Message('note_on', channel=2, note=54, velocity=84, time=48),
    Message('note_off', channel=2, note=54, velocity=64, time=192),
    Message('note_on', channel=2, note=57, velocity=95, time=48),
    Message('note_off', channel=2, note=57, velocity=64, time=192),
    Message('note_on', channel=2, note=52, velocity=89, time=48),
    Message('note_off', channel=2, note=52, velocity=64, time=192),
    Message('note_on', channel=2, note=57, velocity=89, time=48),
    Message('note_off', channel=2, note=57, velocity=64, time=192),
    Message('note_on', channel=2, note=50, velocity=91, time=48),
    Message('note_off', channel=2, note=50, velocity=64, time=192),
    Message('note_on', channel=2, note=57, velocity=81, time=48),
    Message('note_off', channel=2, note=57, velocity=64, time=192),
    Message('note_on', channel=2, note=52, velocity=97, time=48),
    Message('note_off', channel=2, note=52, velocity=64, time=192),
    Message('note_on', channel=2, note=55, velocity=98, time=48),
    Message('note_off', channel=2, note=55, velocity=64, time=192),
    Message('note_on', channel=2, note=59, velocity=101, time=48),
    Message('note_off', channel=2, note=59, velocity=64, time=192),
    Message('note_on', channel=2, note=55, velocity=89, time=48),
    Message('note_off', channel=2, note=55, velocity=64, time=192),
    Message('note_on', channel=2, note=52, velocity=90, time=48),
    Message('note_off', channel=2, note=52, velocity=64, time=192),
    Message('note_on', channel=2, note=55, velocity=84, time=48),
    Message('note_off', channel=2, note=55, velocity=64, time=192),
    Message('note_on', channel=2, note=50, velocity=94, time=48),
    Message('note_off', channel=2, note=50, velocity=64, time=192),
    Message('note_on', channel=2, note=54, velocity=96, time=48),
    Message('note_off', channel=2, note=54, velocity=64, time=192),
    Message('note_on', channel=2, note=57, velocity=87, time=48),
    Message('note_off', channel=2, note=57, velocity=64, time=192),
    Message('note_on', channel=2, note=54, velocity=87, time=48),
    Message('note_off', channel=2, note=54, velocity=64, time=192),
    Message('note_on', channel=2, note=52, velocity=92, time=48),
    Message('note_off', channel=2, note=52, velocity=64, time=192),
    Message('note_on', channel=2, note=55, velocity=102, time=48),
    Message('note_off', channel=2, note=55, velocity=64, time=192),
    Message('note_on', channel=2, note=50, velocity=86, time=48),
    Message('note_off', channel=2, note=50, velocity=64, time=192),
    Message('note_on', channel=2, note=54, velocity=89, time=48),
    Message('note_off', channel=2, note=54, velocity=64, time=192),
    Message('note_on', channel=2, note=52, velocity=78, time=48),
    Message('note_off', channel=2, note=52, velocity=64, time=192),
    Message('note_on', channel=2, note=55, velocity=100, time=48),
    Message('note_off', channel=2, note=55, velocity=64, time=192),
    Message('note_on', channel=2, note=54, velocity=93, time=48),
    Message('note_off', channel=2, note=54, velocity=64, time=192),
    Message('note_on', channel=2, note=57, velocity=104, time=48),
    Message('note_off', channel=2, note=57, velocity=64, time=192),
    Message('note_on', channel=2, note=52, velocity=83, time=48),
    Message('note_off', channel=2, note=52, velocity=64, time=192),
    Message('note_on', channel=2, note=59, velocity=80, time=48),
    Message('note_off', channel=2, note=59, velocity=64, time=192),
    Message('note_on', channel=2, note=62, velocity=92, time=48),
    Message('note_off', channel=2, note=62, velocity=64, time=192),
    Message('note_on', channel=2, note=61, velocity=93, time=48),
    Message('note_off', channel=2, note=61, velocity=64, time=192),
    Message('note_on', channel=2, note=57, velocity=94, time=48),
    Message('note_off', channel=2, note=57, velocity=64, time=192),
    Message('note_on', channel=2, note=59, velocity=88, time=48),
    Message('note_off', channel=2, note=59, velocity=64, time=192),
    Message('note_on', channel=2, note=52, velocity=90, time=48),
    Message('note_off', channel=2, note=52, velocity=64, time=192),
    Message('note_on', channel=2, note=59, velocity=89, time=48),
    Message('note_off', channel=2, note=59, velocity=64, time=192),
    Message('note_on', channel=2, note=57, velocity=97, time=48),
    Message('note_off', channel=2, note=57, velocity=64, time=192),
    Message('note_on', channel=2, note=59, velocity=90, time=48),
    Message('note_off', channel=2, note=59, velocity=64, time=192),
    Message('note_on', channel=2, note=54, velocity=93, time=48),
    Message('note_off', channel=2, note=54, velocity=64, time=192),
    Message('note_on', channel=2, note=55, velocity=100, time=48),
    Message('note_off', channel=2, note=55, velocity=64, time=192),
    Message('note_on', channel=2, note=52, velocity=84, time=48),
    Message('note_off', channel=2, note=52, velocity=64, time=192),
    Message('note_on', channel=2, note=59, velocity=100, time=48),
    Message('note_off', channel=2, note=59, velocity=64, time=192),
    Message('note_on', channel=2, note=62, velocity=90, time=48),
    Message('note_off', channel=2, note=62, velocity=64, time=192),
    Message('note_on', channel=2, note=61, velocity=89, time=48),
    Message('note_off', channel=2, note=61, velocity=64, time=192),
    Message('note_on', channel=2, note=57, velocity=88, time=48),
    Message('note_off', channel=2, note=57, velocity=64, time=192),
    Message('note_on', channel=2, note=59, velocity=84, time=48),
    Message('note_off', channel=2, note=59, velocity=64, time=192),
    Message('note_on', channel=2, note=52, velocity=96, time=48),
    Message('note_off', channel=2, note=52, velocity=64, time=192),
    Message('note_on', channel=2, note=59, velocity=79, time=48),
    Message('note_off', channel=2, note=59, velocity=64, time=192),
    Message('note_on', channel=2, note=57, velocity=88, time=48),
    Message('note_off', channel=2, note=57, velocity=64, time=192),
    Message('note_on', channel=2, note=59, velocity=95, time=48),
    Message('note_off', channel=2, note=59, velocity=64, time=192),
    Message('note_on', channel=2, note=54, velocity=75, time=48),
    Message('note_off', channel=2, note=54, velocity=64, time=192),
    Message('note_on', channel=2, note=55, velocity=98, time=48),
    Message('note_off', channel=2, note=55, velocity=64, time=192),
    Message('note_on', channel=2, note=52, velocity=85, time=48),
    Message('note_off', channel=2, note=52, velocity=64, time=192),
    Message('note_on', channel=2, note=59, velocity=95, time=48),
    Message('note_off', channel=2, note=59, velocity=64, time=192),
    Message('note_on', channel=2, note=62, velocity=95, time=48),
    Message('note_off', channel=2, note=62, velocity=64, time=192),
    Message('note_on', channel=2, note=61, velocity=91, time=48),
    Message('note_off', channel=2, note=61, velocity=64, time=192),
    Message('note_on', channel=2, note=57, velocity=91, time=48),
    Message('note_off', channel=2, note=57, velocity=64, time=192),
    Message('note_on', channel=2, note=59, velocity=90, time=48),
    Message('note_off', channel=2, note=59, velocity=64, time=192),
    Message('note_on', channel=2, note=52, velocity=91, time=48),
    Message('note_off', channel=2, note=52, velocity=64, time=192),
    Message('note_on', channel=2, note=59, velocity=81, time=48),
    Message('note_off', channel=2, note=59, velocity=64, time=192),
    Message('note_on', channel=2, note=57, velocity=104, time=48),
    Message('note_off', channel=2, note=57, velocity=64, time=192),
    Message('note_on', channel=2, note=59, velocity=89, time=48),
    Message('note_off', channel=2, note=59, velocity=64, time=192),
    Message('note_on', channel=2, note=54, velocity=104, time=48),
    Message('note_off', channel=2, note=54, velocity=64, time=192),
    Message('note_on', channel=2, note=55, velocity=77, time=48),
    Message('note_off', channel=2, note=55, velocity=64, time=192),
    Message('note_on', channel=2, note=50, velocity=82, time=48),
    Message('note_off', channel=2, note=50, velocity=64, time=192),
    Message('note_on', channel=2, note=57, velocity=91, time=48),
    Message('note_off', channel=2, note=57, velocity=64, time=192),
    Message('note_on', channel=2, note=50, velocity=92, time=48),
    Message('note_off', channel=2, note=50, velocity=64, time=192),
    Message('note_on', channel=2, note=52, velocity=90, time=48),
    Message('note_off', channel=2, note=52, velocity=64, time=192),
    Message('note_on', channel=2, note=54, velocity=99, time=48),
    Message('note_off', channel=2, note=54, velocity=64, time=192),
    Message('note_on', channel=2, note=57, velocity=79, time=48),
    Message('note_off', channel=2, note=57, velocity=64, time=192),
    Message('note_on', channel=2, note=52, velocity=86, time=48),
    Message('note_off', channel=2, note=52, velocity=64, time=192),
    Message('note_on', channel=2, note=59, velocity=101, time=48),
    Message('note_off', channel=2, note=59, velocity=64, time=192),
    Message('note_on', channel=2, note=62, velocity=84, time=48),
    Message('note_off', channel=2, note=62, velocity=64, time=192),
    Message('note_on', channel=2, note=61, velocity=104, time=48),
    Message('note_off', channel=2, note=61, velocity=64, time=192),
    Message('note_on', channel=2, note=57, velocity=103, time=48),
    Message('note_off', channel=2, note=57, velocity=64, time=192),
    Message('note_on', channel=2, note=59, velocity=90, time=48),
    Message('note_off', channel=2, note=59, velocity=64, time=192),
    Message('note_on', channel=2, note=52, velocity=79, time=48),
    Message('note_off', channel=2, note=52, velocity=64, time=192),
    Message('note_on', channel=2, note=59, velocity=102, time=48),
    Message('note_off', channel=2, note=59, velocity=64, time=192),
    Message('note_on', channel=2, note=57, velocity=85, time=48),
    Message('note_off', channel=2, note=57, velocity=64, time=192),
    Message('note_on', channel=2, note=59, velocity=77, time=48),
    Message('note_off', channel=2, note=59, velocity=64, time=192),
    Message('note_on', channel=2, note=54, velocity=96, time=48),
    Message('note_off', channel=2, note=54, velocity=64, time=192),
    Message('note_on', channel=2, note=55, velocity=90, time=48),
    Message('note_off', channel=2, note=55, velocity=64, time=192),
    Message('note_on', channel=2, note=55, velocity=90, time=48),
    Message('note_off', channel=2, note=55, velocity=64, time=192),
    Message('note_on', channel=2, note=59, velocity=89, time=48),
    Message('note_off', channel=2, note=59, velocity=64, time=192),
    Message('note_on', channel=2, note=62, velocity=97, time=48),
    Message('note_off', channel=2, note=62, velocity=64, time=192),
    Message('note_on', channel=2, note=59, velocity=103, time=48),
    Message('note_off', channel=2, note=59, velocity=64, time=192),
    Message('note_on', channel=2, note=55, velocity=99, time=48),
    Message('note_off', channel=2, note=55, velocity=64, time=192),
    Message('note_on', channel=2, note=59, velocity=92, time=48),
    Message('note_off', channel=2, note=59, velocity=64, time=192),
    Message('note_on', channel=2, note=52, velocity=76, time=48),
    Message('note_off', channel=2, note=52, velocity=64, time=192),
    Message('note_on', channel=2, note=59, velocity=77, time=48),
    Message('note_off', channel=2, note=59, velocity=64, time=192),
    Message('note_on', channel=2, note=64, velocity=91, time=48),
    Message('note_off', channel=2, note=64, velocity=64, time=192),
    Message('note_on', channel=2, note=59, velocity=87, time=48),
    Message('note_off', channel=2, note=59, velocity=64, time=192),
    Message('note_on', channel=2, note=52, velocity=75, time=48),
    Message('note_off', channel=2, note=52, velocity=64, time=192),
    Message('note_on', channel=2, note=59, velocity=102, time=48),
    Message('note_off', channel=2, note=59, velocity=64, time=192),
    Message('note_on', channel=2, note=55, velocity=98, time=48),
    Message('note_off', channel=2, note=55, velocity=64, time=192),
    Message('note_on', channel=2, note=62, velocity=102, time=48),
    Message('note_off', channel=2, note=62, velocity=64, time=192),
    Message('note_on', channel=2, note=57, velocity=81, time=48),
    Message('note_off', channel=2, note=57, velocity=64, time=192),
    Message('note_on', channel=2, note=61, velocity=81, time=48),
    Message('note_off', channel=2, note=61, velocity=64, time=192),
    Message('note_on', channel=2, note=64, velocity=92, time=48),
    Message('note_off', channel=2, note=64, velocity=64, time=192),
    Message('note_on', channel=2, note=61, velocity=91, time=48),
    Message('note_off', channel=2, note=61, velocity=64, time=192),
    Message('note_on', channel=2, note=52, velocity=89, time=48),
    Message('note_off', channel=2, note=52, velocity=64, time=192),
    Message('note_on', channel=2, note=59, velocity=76, time=48),
    Message('note_off', channel=2, note=59, velocity=64, time=192),
    Message('note_on', channel=2, note=62, velocity=84, time=48),
    Message('note_off', channel=2, note=62, velocity=64, time=192),
    Message('note_on', channel=2, note=61, velocity=88, time=48),
    Message('note_off', channel=2, note=61, velocity=64, time=192),
    Message('note_on', channel=2, note=57, velocity=87, time=48),
    Message('note_off', channel=2, note=57, velocity=64, time=192),
    Message('note_on', channel=2, note=59, velocity=104, time=48),
    Message('note_off', channel=2, note=59, velocity=64, time=192),
    Message('note_on', channel=2, note=52, velocity=97, time=48),
    Message('note_off', channel=2, note=52, velocity=64, time=192),
    Message('note_on', channel=2, note=59, velocity=86, time=48),
    Message('note_off', channel=2, note=59, velocity=64, time=192),
    Message('note_on', channel=2, note=57, velocity=85, time=48),
    Message('note_off', channel=2, note=57, velocity=64, time=192),
    Message('note_on', channel=2, note=59, velocity=93, time=48),
    Message('note_off', channel=2, note=59, velocity=64, time=192),
    Message('note_on', channel=2, note=54, velocity=104, time=48),
    Message('note_off', channel=2, note=54, velocity=64, time=192),
    Message('note_on', channel=2, note=55, velocity=79, time=48),
    Message('note_off', channel=2, note=55, velocity=64, time=192),
    Message('note_on', channel=2, note=52, velocity=88, time=48),
    Message('note_off', channel=2, note=52, velocity=64, time=192),
    Message('note_on', channel=2, note=59, velocity=103, time=48),
    Message('note_off', channel=2, note=59, velocity=64, time=192),
    Message('note_on', channel=2, note=62, velocity=97, time=48),
    Message('note_off', channel=2, note=62, velocity=64, time=192),
    Message('note_on', channel=2, note=61, velocity=93, time=48),
    Message('note_off', channel=2, note=61, velocity=64, time=192),
    Message('note_on', channel=2, note=57, velocity=88, time=48),
    Message('note_off', channel=2, note=57, velocity=64, time=192),
    Message('note_on', channel=2, note=59, velocity=92, time=48),
    Message('note_off', channel=2, note=59, velocity=64, time=192),
    Message('note_on', channel=2, note=52, velocity=90, time=48),
    Message('note_off', channel=2, note=52, velocity=64, time=192),
    Message('note_on', channel=2, note=59, velocity=90, time=48),
    Message('note_off', channel=2, note=59, velocity=64, time=192),
    Message('note_on', channel=2, note=57, velocity=89, time=48),
    Message('note_off', channel=2, note=57, velocity=64, time=192),
    Message('note_on', channel=2, note=59, velocity=90, time=48),
    Message('note_off', channel=2, note=59, velocity=64, time=192),
    Message('note_on', channel=2, note=54, velocity=95, time=48),
    Message('note_off', channel=2, note=54, velocity=64, time=192),
    Message('note_on', channel=2, note=55, velocity=85, time=48),
    Message('note_off', channel=2, note=55, velocity=64, time=192),
    Message('note_on', channel=2, note=52, velocity=90, time=48),
    Message('note_off', channel=2, note=52, velocity=64, time=192),
    Message('note_on', channel=2, note=59, velocity=76, time=48),
    Message('note_off', channel=2, note=59, velocity=64, time=192),
    Message('note_on', channel=2, note=64, velocity=93, time=48),
    Message('note_off', channel=2, note=64, velocity=64, time=192),
    Message('note_on', channel=2, note=59, velocity=101, time=48),
    Message('note_off', channel=2, note=59, velocity=64, time=192),
    Message('note_on', channel=2, note=52, velocity=93, time=48),
    Message('note_off', channel=2, note=52, velocity=64, time=192),
    Message('note_on', channel=2, note=59, velocity=90, time=48),
    Message('note_off', channel=2, note=59, velocity=64, time=192),
    Message('note_on', channel=2, note=55, velocity=90, time=48),
    Message('note_off', channel=2, note=55, velocity=64, time=192),
    Message('note_on', channel=2, note=59, velocity=99, time=48),
    Message('note_off', channel=2, note=59, velocity=64, time=192),
    Message('note_on', channel=2, note=62, velocity=93, time=48),
    Message('note_off', channel=2, note=62, velocity=64, time=192),
    Message('note_on', channel=2, note=59, velocity=84, time=48),
    Message('note_off', channel=2, note=59, velocity=64, time=192),
    Message('note_on', channel=2, note=62, velocity=84, time=48),
    Message('note_off', channel=2, note=62, velocity=64, time=192),
    Message('note_on', channel=2, note=59, velocity=99, time=48),
    Message('note_off', channel=2, note=59, velocity=64, time=192),
    Message('note_on', channel=2, note=55, velocity=84, time=48),
    Message('note_off', channel=2, note=55, velocity=64, time=192),
    Message('note_on', channel=2, note=59, velocity=85, time=48),
    Message('note_off', channel=2, note=59, velocity=64, time=192),
    Message('note_on', channel=2, note=54, velocity=91, time=48),
    Message('note_off', channel=2, note=54, velocity=64, time=192),
    Message('note_on', channel=2, note=57, velocity=102, time=48),
    Message('note_off', channel=2, note=57, velocity=64, time=192),
    Message('note_on', channel=2, note=52, velocity=88, time=48),
    Message('note_off', channel=2, note=52, velocity=64, time=192),
    Message('note_on', channel=2, note=55, velocity=93, time=48),
    Message('note_off', channel=2, note=55, velocity=64, time=192),
    Message('note_on', channel=2, note=50, velocity=91, time=48),
    Message('note_off', channel=2, note=50, velocity=64, time=192),
    Message('note_on', channel=2, note=57, velocity=82, time=48),
    Message('note_off', channel=2, note=57, velocity=64, time=192),
    Message('note_on', channel=2, note=62, velocity=100, time=48),
    Message('note_off', channel=2, note=62, velocity=64, time=192),
    Message('note_on', channel=2, note=57, velocity=92, time=48),
    Message('note_off', channel=2, note=57, velocity=64, time=192),
    Message('note_on', channel=2, note=55, velocity=93, time=48),
    Message('note_off', channel=2, note=55, velocity=64, time=192),
    Message('note_on', channel=2, note=57, velocity=88, time=48),
    Message('note_off', channel=2, note=57, velocity=64, time=192),
    Message('note_on', channel=2, note=54, velocity=102, time=48),
    Message('note_off', channel=2, note=54, velocity=64, time=192),
    Message('note_on', channel=2, note=57, velocity=89, time=48),
    Message('note_off', channel=2, note=57, velocity=64, time=192),
    Message('note_on', channel=2, note=52, velocity=92, time=48),
    Message('note_off', channel=2, note=52, velocity=64, time=192),
    Message('note_on', channel=2, note=57, velocity=90, time=48),
    Message('note_off', channel=2, note=57, velocity=64, time=192),
    Message('note_on', channel=2, note=50, velocity=97, time=48),
    Message('note_off', channel=2, note=50, velocity=64, time=192),
    Message('note_on', channel=2, note=57, velocity=88, time=48),
    Message('note_off', channel=2, note=57, velocity=64, time=192),
    Message('note_on', channel=2, note=52, velocity=77, time=48),
    Message('note_off', channel=2, note=52, velocity=64, time=192),
    Message('note_on', channel=2, note=55, velocity=104, time=48),
    Message('note_off', channel=2, note=55, velocity=64, time=192),
    Message('note_on', channel=2, note=59, velocity=86, time=48),
    Message('note_off', channel=2, note=59, velocity=64, time=192),
    Message('note_on', channel=2, note=55, velocity=99, time=48),
    Message('note_off', channel=2, note=55, velocity=64, time=192),
    Message('note_on', channel=2, note=52, velocity=84, time=48),
    Message('note_off', channel=2, note=52, velocity=64, time=192),
    Message('note_on', channel=2, note=55, velocity=88, time=48),
    Message('note_off', channel=2, note=55, velocity=64, time=192),
    Message('note_on', channel=2, note=50, velocity=81, time=48),
    Message('note_off', channel=2, note=50, velocity=64, time=192),
    Message('note_on', channel=2, note=54, velocity=83, time=48),
    Message('note_off', channel=2, note=54, velocity=64, time=192),
    Message('note_on', channel=2, note=57, velocity=102, time=48),
    Message('note_off', channel=2, note=57, velocity=64, time=192),
    Message('note_on', channel=2, note=54, velocity=99, time=48),
    Message('note_off', channel=2, note=54, velocity=64, time=192),
    Message('note_on', channel=2, note=52, velocity=82, time=48),
    Message('note_off', channel=2, note=52, velocity=64, time=192),
    Message('note_on', channel=2, note=55, velocity=90, time=48),
    Message('note_off', channel=2, note=55, velocity=64, time=192),
    Message('note_on', channel=2, note=50, velocity=80, time=48),
    Message('note_off', channel=2, note=50, velocity=64, time=192),
    Message('note_on', channel=2, note=54, velocity=89, time=48),
    Message('note_off', channel=2, note=54, velocity=64, time=192),
    Message('note_on', channel=2, note=52, velocity=91, time=48),
    Message('note_off', channel=2, note=52, velocity=64, time=192),
    Message('note_on', channel=2, note=55, velocity=91, time=48),
    Message('note_off', channel=2, note=55, velocity=64, time=192),
    Message('note_on', channel=2, note=54, velocity=90, time=48),
    Message('note_off', channel=2, note=54, velocity=64, time=192),
    Message('note_on', channel=2, note=57, velocity=90, time=48),
    Message('note_off', channel=2, note=57, velocity=64, time=192),
    Message('note_on', channel=2, note=52, velocity=89, time=48),
    Message('note_off', channel=2, note=52, velocity=64, time=192),
    Message('note_on', channel=2, note=59, velocity=89, time=48),
    Message('note_off', channel=2, note=59, velocity=64, time=192),
    Message('note_on', channel=2, note=62, velocity=105, time=48),
    Message('note_off', channel=2, note=62, velocity=64, time=192),
    Message('note_on', channel=2, note=61, velocity=76, time=48),
    Message('note_off', channel=2, note=61, velocity=64, time=192),
    Message('note_on', channel=2, note=57, velocity=92, time=48),
    Message('note_off', channel=2, note=57, velocity=64, time=192),
    Message('note_on', channel=2, note=59, velocity=101, time=48),
    Message('note_off', channel=2, note=59, velocity=64, time=192),
    Message('note_on', channel=2, note=52, velocity=95, time=48),
    Message('note_off', channel=2, note=52, velocity=64, time=192),
    Message('note_on', channel=2, note=59, velocity=75, time=48),
    Message('note_off', channel=2, note=59, velocity=64, time=192),
    Message('note_on', channel=2, note=57, velocity=90, time=48),
    Message('note_off', channel=2, note=57, velocity=64, time=192),
    Message('note_on', channel=2, note=59, velocity=90, time=48),
    Message('note_off', channel=2, note=59, velocity=64, time=192),
    Message('note_on', channel=2, note=54, velocity=80, time=48),
    Message('note_off', channel=2, note=54, velocity=64, time=192),
    Message('note_on', channel=2, note=55, velocity=98, time=48),
    Message('note_off', channel=2, note=55, velocity=64, time=192),
    Message('note_on', channel=2, note=52, velocity=93, time=48),
    Message('note_off', channel=2, note=52, velocity=64, time=192),
    Message('note_on', channel=2, note=55, velocity=104, time=48),
    Message('note_off', channel=2, note=55, velocity=64, time=192),
    Message('note_on', channel=2, note=59, velocity=103, time=48),
    Message('note_off', channel=2, note=59, velocity=64, time=192),
    Message('note_on', channel=2, note=55, velocity=82, time=48),
    Message('note_off', channel=2, note=55, velocity=64, time=192),
    Message('note_on', channel=2, note=57, velocity=91, time=48),
    Message('note_off', channel=2, note=57, velocity=64, time=192),
    Message('note_on', channel=2, note=62, velocity=77, time=48),
    Message('note_off', channel=2, note=62, velocity=64, time=192),
    Message('note_on', channel=2, note=52, velocity=86, time=48),
    Message('note_on', channel=2, note=59, velocity=90, time=0),
    Message('note_on', channel=2, note=64, velocity=89, time=0),
    Message('note_on', channel=2, note=76, velocity=86, time=480),
    Message('note_on', channel=2, note=83, velocity=88, time=0),
    Message('note_off', channel=2, note=64, velocity=64, time=752),
    Message('note_off', channel=2, note=59, velocity=64, time=0),
    Message('note_off', channel=2, note=52, velocity=64, time=8),
    Message('note_off', channel=2, note=76, velocity=64, time=8),
    Message('note_off', channel=2, note=83, velocity=64, time=0),
    MetaMessage('end_of_track', time=0)]),
  MidiTrack([
    MetaMessage('track_name', name='Guitar', time=0),
    MetaMessage('midi_port', port=0, time=0),
    MetaMessage('channel_prefix', channel=3, time=0),
    Message('control_change', channel=3, control=7, value=99, time=0),
    Message('control_change', channel=3, control=10, value=112, time=0),
    Message('control_change', channel=3, control=32, value=0, time=0),
    Message('control_change', channel=3, control=91, value=64, time=0),
    Message('control_change', channel=3, control=93, value=84, time=0),
    Message('program_change', channel=3, program=25, time=0),
    Message('control_change', channel=3, control=123, value=0, time=0),
    Message('control_change', channel=3, control=64, value=0, time=0),
    Message('note_on', channel=3, note=40, velocity=46, time=7188),
    Message('note_on', channel=3, note=47, velocity=49, time=8),
    Message('note_on', channel=3, note=52, velocity=58, time=8),
    Message('note_on', channel=3, note=55, velocity=58, time=8),
    Message('note_on', channel=3, note=59, velocity=58, time=8),
    Message('note_on', channel=3, note=64, velocity=58, time=8),
    Message('note_off', channel=3, note=47, velocity=64, time=428),
    Message('note_off', channel=3, note=52, velocity=64, time=8),
    Message('note_on', channel=3, note=47, velocity=38, time=0),
    Message('note_on', channel=3, note=52, velocity=45, time=8),
    Message('note_off', channel=3, note=55, velocity=64, time=4),
    Message('note_on', channel=3, note=55, velocity=45, time=8),
    Message('note_off', channel=3, note=40, velocity=64, time=4),
    Message('note_off', channel=3, note=59, velocity=64, time=0),
    Message('note_off', channel=3, note=64, velocity=64, time=0),
    Message('note_on', channel=3, note=59, velocity=45, time=4),
    Message('note_on', channel=3, note=64, velocity=45, time=12),
    Message('note_off', channel=3, note=64, velocity=64, time=220),
    Message('note_on', channel=3, note=64, velocity=32, time=8),
    Message('note_off', channel=3, note=47, velocity=64, time=4),
    Message('note_off', channel=3, note=52, velocity=64, time=0),
    Message('note_off', channel=3, note=55, velocity=64, time=0),
    Message('note_off', channel=3, note=59, velocity=64, time=0),
    Message('note_on', channel=3, note=59, velocity=36, time=4),
    Message('note_on', channel=3, note=55, velocity=36, time=8),
    Message('note_on', channel=3, note=52, velocity=32, time=8),
    Message('note_on', channel=3, note=47, velocity=23, time=8),
    Message('note_on', channel=3, note=40, velocity=4, time=8),
    Message('note_off', channel=3, note=47, velocity=64, time=172),
    Message('note_off', channel=3, note=52, velocity=64, time=8),
    Message('note_on', channel=3, note=47, velocity=53, time=0),
    Message('note_on', channel=3, note=52, velocity=63, time=8),
    Message('note_off', channel=3, note=55, velocity=64, time=4),
    Message('note_off', channel=3, note=59, velocity=64, time=8),
    Message('note_on', channel=3, note=55, velocity=63, time=0),
    Message('note_on', channel=3, note=59, velocity=63, time=8),
    Message('note_off', channel=3, note=64, velocity=64, time=4),
    Message('note_on', channel=3, note=64, velocity=63, time=8),
    Message('note_off', channel=3, note=40, velocity=64, time=32),
    Message('note_off', channel=3, note=64, velocity=64, time=164),
    Message('note_off', channel=3, note=59, velocity=64, time=8),
    Message('note_on', channel=3, note=64, velocity=35, time=0),
    Message('note_on', channel=3, note=59, velocity=40, time=8),
    Message('note_off', channel=3, note=47, velocity=64, time=4),
    Message('note_off', channel=3, note=52, velocity=64, time=0),
    Message('note_off', channel=3, note=55, velocity=64, time=0),
    Message('note_on', channel=3, note=55, velocity=40, time=4),
    Message('note_on', channel=3, note=52, velocity=35, time=8),
    Message('note_on', channel=3, note=47, velocity=25, time=8),
    Message('note_on', channel=3, note=40, velocity=5, time=8),
    Message('note_off', channel=3, note=40, velocity=64, time=180),
    Message('note_off', channel=3, note=47, velocity=64, time=8),
    Message('note_on', channel=3, note=40, velocity=40, time=0),
    Message('note_off', channel=3, note=52, velocity=64, time=8),
    Message('note_on', channel=3, note=47, velocity=43, time=0),
    Message('note_off', channel=3, note=55, velocity=64, time=8),
    Message('note_on', channel=3, note=52, velocity=51, time=0),
    Message('note_off', channel=3, note=59, velocity=64, time=8),
    Message('note_on', channel=3, note=55, velocity=51, time=0),
    Message('note_off', channel=3, note=64, velocity=64, time=8),
    Message('note_on', channel=3, note=59, velocity=51, time=0),
    Message('note_on', channel=3, note=64, velocity=51, time=8),
    Message('note_off', channel=3, note=64, velocity=64, time=392),
    Message('note_off', channel=3, note=40, velocity=64, time=0),
    Message('note_off', channel=3, note=47, velocity=64, time=0),
    Message('note_off', channel=3, note=52, velocity=64, time=0),
    Message('note_off', channel=3, note=55, velocity=64, time=0),
    Message('note_off', channel=3, note=59, velocity=64, time=0),
    Message('note_on', channel=3, note=47, velocity=56, time=48),
    Message('note_on', channel=3, note=52, velocity=66, time=8),
    Message('note_on', channel=3, note=55, velocity=66, time=12),
    Message('note_on', channel=3, note=59, velocity=66, time=8),
    Message('note_on', channel=3, note=64, velocity=66, time=12),
    Message('note_off', channel=3, note=47, velocity=64, time=432),
    Message('note_off', channel=3, note=52, velocity=64, time=8),
    Message('note_on', channel=3, note=47, velocity=56, time=0),
    Message('note_on', channel=3, note=52, velocity=66, time=8),
    Message('note_off', channel=3, note=55, velocity=64, time=4),
    Message('note_on', channel=3, note=55, velocity=66, time=8),
    Message('note_off', channel=3, note=59, velocity=64, time=4),
    Message('note_off', channel=3, note=64, velocity=64, time=0),
    Message('note_on', channel=3, note=59, velocity=66, time=4),
    Message('note_on', channel=3, note=64, velocity=66, time=12),
    Message('note_off', channel=3, note=64, velocity=64, time=436),
    Message('note_off', channel=3, note=47, velocity=64, time=0),
    Message('note_off', channel=3, note=52, velocity=64, time=0),
    Message('note_off', channel=3, note=55, velocity=64, time=0),
    Message('note_off', channel=3, note=59, velocity=64, time=0),
    Message('note_on', channel=3, note=66, velocity=60, time=28),
    Message('note_on', channel=3, note=62, velocity=60, time=0),
    Message('note_on', channel=3, note=50, velocity=60, time=0),
    Message('note_off', channel=3, note=62, velocity=64, time=244),
    Message('note_off', channel=3, note=66, velocity=64, time=0),
    Message('note_on', channel=3, note=66, velocity=54, time=4),
    Message('note_on', channel=3, note=62, velocity=29, time=8),
    Message('note_off', channel=3, note=62, velocity=64, time=220),
    Message('note_off', channel=3, note=66, velocity=64, time=0),
    Message('note_on', channel=3, note=66, velocity=60, time=4),
    Message('note_on', channel=3, note=57, velocity=45, time=0),
    Message('note_on', channel=3, note=62, velocity=68, time=4),
    Message('note_off', channel=3, note=62, velocity=64, time=216),
    Message('note_off', channel=3, note=57, velocity=64, time=40),
    Message('note_on', channel=3, note=57, velocity=70, time=8),
    Message('note_on', channel=3, note=62, velocity=61, time=4),
    Message('note_off', channel=3, note=66, velocity=64, time=168),
    Message('note_off', channel=3, note=57, velocity=64, time=32),
    Message('note_off', channel=3, note=62, velocity=64, time=0),
    Message('note_on', channel=3, note=62, velocity=68, time=4),
    Message('note_on', channel=3, note=66, velocity=60, time=4),
    Message('note_on', channel=3, note=57, velocity=60, time=0),
    Message('note_off', channel=3, note=57, velocity=64, time=212),
    Message('note_on', channel=3, note=57, velocity=67, time=52),
    Message('note_off', channel=3, note=62, velocity=64, time=116),
    Message('note_off', channel=3, note=50, velocity=64, time=20),
    Message('note_off', channel=3, note=66, velocity=64, time=20),
    Message('note_off', channel=3, note=57, velocity=64, time=28),
    Message('note_on', channel=3, note=64, velocity=61, time=32),
    Message('note_on', channel=3, note=40, velocity=55, time=0),
    Message('note_on', channel=3, note=59, velocity=61, time=0),
    Message('note_on', channel=3, note=52, velocity=61, time=0),
    Message('note_off', channel=3, note=64, velocity=64, time=432),
    Message('note_on', channel=3, note=64, velocity=61, time=48),
    Message('note_on', channel=3, note=55, velocity=61, time=0),
    Message('note_off', channel=3, note=55, velocity=64, time=240),
    Message('note_off', channel=3, note=64, velocity=64, time=20),
    Message('note_on', channel=3, note=55, velocity=47, time=4),
    Message('note_on', channel=3, note=64, velocity=63, time=4),
    Message('note_off', channel=3, note=64, velocity=64, time=208),
    Message('note_off', channel=3, note=55, velocity=64, time=0),
    Message('note_on', channel=3, note=64, velocity=61, time=4),
    Message('note_on', channel=3, note=55, velocity=61, time=0),
    Message('note_off', channel=3, note=55, velocity=64, time=240),
    Message('note_off', channel=3, note=64, velocity=64, time=16),
    Message('note_on', channel=3, note=55, velocity=60, time=4),
    Message('note_off', channel=3, note=55, velocity=64, time=172),
    Message('note_off', channel=3, note=40, velocity=64, time=4),
    Message('note_off', channel=3, note=52, velocity=64, time=0),
    Message('note_off', channel=3, note=59, velocity=64, time=4),
    Message('note_on', channel=3, note=40, velocity=56, time=32),
    Message('note_on', channel=3, note=55, velocity=55, time=12),
    Message('note_on', channel=3, note=52, velocity=55, time=4),
    Message('note_on', channel=3, note=59, velocity=63, time=8),
    Message('note_off', channel=3, note=59, velocity=64, time=408),
    Message('note_off', channel=3, note=55, velocity=64, time=4),
    Message('note_on', channel=3, note=55, velocity=64, time=44),
    Message('note_on', channel=3, note=59, velocity=69, time=4),
    Message('note_off', channel=3, note=59, velocity=64, time=212),
    Message('note_off', channel=3, note=55, velocity=64, time=32),
    Message('note_on', channel=3, note=55, velocity=52, time=4),
    Message('note_on', channel=3, note=59, velocity=50, time=4),
    Message('note_off', channel=3, note=52, velocity=64, time=192),
    Message('note_off', channel=3, note=55, velocity=64, time=28),
    Message('note_off', channel=3, note=59, velocity=64, time=0),
    Message('note_on', channel=3, note=55, velocity=64, time=4),
    Message('note_on', channel=3, note=52, velocity=64, time=0),
    Message('note_on', channel=3, note=59, velocity=54, time=4),
    Message('note_off', channel=3, note=59, velocity=64, time=212),
    Message('note_off', channel=3, note=55, velocity=64, time=40),
    Message('note_on', channel=3, note=55, velocity=53, time=4),
    Message('note_on', channel=3, note=59, velocity=50, time=12),
    Message('note_off', channel=3, note=52, velocity=64, time=108),
    Message('note_off', channel=3, note=40, velocity=64, time=68),
    Message('note_off', channel=3, note=55, velocity=64, time=12),
    Message('note_off', channel=3, note=59, velocity=64, time=4),
    Message('note_on', channel=3, note=67, velocity=60, time=24),
    Message('note_on', channel=3, note=43, velocity=54, time=0),
    Message('note_on', channel=3, note=59, velocity=60, time=0),
    Message('note_on', channel=3, note=50, velocity=60, time=0),
    Message('note_off', channel=3, note=59, velocity=64, time=244),
    Message('note_off', channel=3, note=67, velocity=64, time=0),
    Message('note_on', channel=3, note=67, velocity=54, time=4),
    Message('note_on', channel=3, note=59, velocity=29, time=8),
    Message('note_off', channel=3, note=59, velocity=64, time=220),
    Message('note_off', channel=3, note=67, velocity=64, time=0),
    Message('note_on', channel=3, note=67, velocity=60, time=4),
    Message('note_on', channel=3, note=55, velocity=45, time=0),
    Message('note_on', channel=3, note=59, velocity=68, time=4),
    Message('note_off', channel=3, note=59, velocity=64, time=216),
    Message('note_off', channel=3, note=55, velocity=64, time=40),
    Message('note_on', channel=3, note=55, velocity=70, time=8),
    Message('note_on', channel=3, note=59, velocity=61, time=4),
    Message('note_off', channel=3, note=67, velocity=64, time=168),
    Message('note_off', channel=3, note=55, velocity=64, time=32),
    Message('note_off', channel=3, note=59, velocity=64, time=0),
    Message('note_on', channel=3, note=59, velocity=68, time=4),
    Message('note_on', channel=3, note=67, velocity=60, time=4),
    Message('note_on', channel=3, note=55, velocity=60, time=0),
    Message('note_off', channel=3, note=55, velocity=64, time=212),
    Message('note_on', channel=3, note=55, velocity=67, time=52),
    Message('note_off', channel=3, note=59, velocity=64, time=116),
    Message('note_off', channel=3, note=50, velocity=64, time=20),
    Message('note_off', channel=3, note=43, velocity=64, time=16),
    Message('note_off', channel=3, note=67, velocity=64, time=4),
    Message('note_off', channel=3, note=55, velocity=64, time=28),
    Message('note_on', channel=3, note=64, velocity=61, time=32),
    Message('note_on', channel=3, note=40, velocity=55, time=0),
    Message('note_on', channel=3, note=59, velocity=61, time=0),
    Message('note_on', channel=3, note=52, velocity=61, time=0),
    Message('note_off', channel=3, note=64, velocity=64, time=432),
    Message('note_on', channel=3, note=64, velocity=61, time=48),
    Message('note_on', channel=3, note=55, velocity=61, time=0),
    Message('note_off', channel=3, note=55, velocity=64, time=240),
    Message('note_off', channel=3, note=64, velocity=64, time=20),
    Message('note_on', channel=3, note=55, velocity=47, time=4),
    Message('note_on', channel=3, note=64, velocity=63, time=4),
    Message('note_off', channel=3, note=64, velocity=64, time=208),
    Message('note_off', channel=3, note=55, velocity=64, time=0),
    Message('note_on', channel=3, note=64, velocity=61, time=4),
    Message('note_on', channel=3, note=55, velocity=61, time=0),
    Message('note_off', channel=3, note=55, velocity=64, time=240),
    Message('note_off', channel=3, note=64, velocity=64, time=16),
    Message('note_on', channel=3, note=55, velocity=60, time=4),
    Message('note_off', channel=3, note=55, velocity=64, time=172),
    Message('note_off', channel=3, note=40, velocity=64, time=4),
    Message('note_off', channel=3, note=52, velocity=64, time=0),
    Message('note_off', channel=3, note=59, velocity=64, time=4),
    Message('note_on', channel=3, note=43, velocity=43, time=20),
    Message('note_on', channel=3, note=47, velocity=45, time=8),
    Message('note_on', channel=3, note=50, velocity=54, time=8),
    Message('note_on', channel=3, note=55, velocity=54, time=8),
    Message('note_on', channel=3, note=59, velocity=54, time=8),
    Message('note_on', channel=3, note=67, velocity=54, time=8),
    Message('note_off', channel=3, note=67, velocity=64, time=412),
    Message('note_off', channel=3, note=59, velocity=64, time=0),
    Message('note_off', channel=3, note=55, velocity=64, time=0),
    Message('note_off', channel=3, note=50, velocity=64, time=0),
    Message('note_off', channel=3, note=47, velocity=64, time=0),
    Message('note_off', channel=3, note=43, velocity=64, time=0),
    Message('note_on', channel=3, note=52, velocity=54, time=28),
    Message('note_on', channel=3, note=57, velocity=54, time=12),
    Message('note_on', channel=3, note=61, velocity=54, time=12),
    Message('note_on', channel=3, note=64, velocity=54, time=12),
    Message('note_off', channel=3, note=64, velocity=64, time=196),
    Message('note_off', channel=3, note=61, velocity=64, time=8),
    Message('note_on', channel=3, note=64, velocity=31, time=0),
    Message('note_on', channel=3, note=61, velocity=36, time=8),
    Message('note_off', channel=3, note=57, velocity=64, time=4),
    Message('note_on', channel=3, note=57, velocity=36, time=8),
    Message('note_off', channel=3, note=52, velocity=64, time=4),
    Message('note_on', channel=3, note=52, velocity=31, time=4),
    Message('note_on', channel=3, note=45, velocity=22, time=12),
    Message('note_off', channel=3, note=45, velocity=64, time=192),
    Message('note_off', channel=3, note=64, velocity=64, time=0),
    Message('note_off', channel=3, note=61, velocity=64, time=0),
    Message('note_off', channel=3, note=57, velocity=64, time=0),
    Message('note_off', channel=3, note=52, velocity=64, time=0),
    Message('note_on', channel=3, note=52, velocity=54, time=8),
    Message('note_on', channel=3, note=57, velocity=54, time=12),
    Message('note_on', channel=3, note=61, velocity=54, time=12),
    Message('note_on', channel=3, note=64, velocity=54, time=12),
    Message('note_off', channel=3, note=64, velocity=64, time=188),
    Message('note_off', channel=3, note=61, velocity=64, time=0),
    Message('note_off', channel=3, note=57, velocity=64, time=0),
    Message('note_off', channel=3, note=52, velocity=64, time=0),
    Message('note_on', channel=3, note=64, velocity=31, time=20),
    Message('note_on', channel=3, note=61, velocity=36, time=8),
    Message('note_on', channel=3, note=57, velocity=36, time=12),
    Message('note_on', channel=3, note=52, velocity=31, time=8),
    Message('note_on', channel=3, note=45, velocity=22, time=12),
    Message('note_off', channel=3, note=45, velocity=64, time=192),
    Message('note_off', channel=3, note=52, velocity=64, time=0),
    Message('note_off', channel=3, note=57, velocity=64, time=0),
    Message('note_off', channel=3, note=61, velocity=64, time=0),
    Message('note_off', channel=3, note=64, velocity=64, time=0),
    Message('note_on', channel=3, note=40, velocity=55, time=24),
    Message('note_on', channel=3, note=52, velocity=61, time=0),
    Message('note_on', channel=3, note=55, velocity=69, time=8),
    Message('note_on', channel=3, note=59, velocity=61, time=8),
    Message('note_on', channel=3, note=64, velocity=51, time=8),
    Message('note_off', channel=3, note=64, velocity=64, time=412),
    Message('note_off', channel=3, note=55, velocity=64, time=24),
    Message('note_on', channel=3, note=64, velocity=61, time=20),
    Message('note_on', channel=3, note=55, velocity=61, time=0),
    Message('note_off', channel=3, note=55, velocity=64, time=188),
    Message('note_off', channel=3, note=64, velocity=64, time=64),
    Message('note_on', channel=3, note=55, velocity=60, time=4),
    Message('note_off', channel=3, note=55, velocity=64, time=220),
    Message('note_on', channel=3, note=64, velocity=62, time=4),
    Message('note_on', channel=3, note=55, velocity=50, time=0),
    Message('note_off', channel=3, note=55, velocity=64, time=188),
    Message('note_off', channel=3, note=64, velocity=64, time=52),
    Message('note_on', channel=3, note=55, velocity=47, time=4),
    Message('note_on', channel=3, note=64, velocity=41, time=4),
    Message('note_off', channel=3, note=59, velocity=64, time=184),
    Message('note_off', channel=3, note=40, velocity=64, time=16),
    Message('note_off', channel=3, note=64, velocity=64, time=8),
    Message('note_off', channel=3, note=52, velocity=64, time=4),
    Message('note_off', channel=3, note=55, velocity=64, time=16),
    Message('note_on', channel=3, note=64, velocity=69, time=4),
    Message('note_on', channel=3, note=55, velocity=61, time=0),
    Message('note_on', channel=3, note=59, velocity=61, time=0),
    Message('note_on', channel=3, note=52, velocity=69, time=4),
    Message('note_on', channel=3, note=40, velocity=55, time=0),
    Message('note_off', channel=3, note=55, velocity=64, time=192),
    Message('note_on', channel=3, note=55, velocity=47, time=44),
    Message('note_off', channel=3, note=64, velocity=64, time=148),
    Message('note_off', channel=3, note=55, velocity=64, time=32),
    Message('note_off', channel=3, note=59, velocity=64, time=52),
    Message('note_on', channel=3, note=64, velocity=61, time=8),
    Message('note_on', channel=3, note=55, velocity=61, time=0),
    Message('note_on', channel=3, note=59, velocity=61, time=0),
    Message('note_off', channel=3, note=59, velocity=64, time=432),
    Message('note_off', channel=3, note=55, velocity=64, time=0),
    Message('note_off', channel=3, note=64, velocity=64, time=0),
    Message('note_on', channel=3, note=64, velocity=69, time=48),
    Message('note_on', channel=3, note=55, velocity=61, time=0),
    Message('note_on', channel=3, note=59, velocity=61, time=0),
    Message('note_off', channel=3, note=59, velocity=64, time=452),
    Message('note_off', channel=3, note=55, velocity=64, time=0),
    Message('note_off', channel=3, note=52, velocity=64, time=0),
    Message('note_off', channel=3, note=40, velocity=64, time=0),
    Message('note_off', channel=3, note=64, velocity=64, time=0),
    Message('note_on', channel=3, note=40, velocity=56, time=20),
    Message('note_on', channel=3, note=55, velocity=55, time=12),
    Message('note_on', channel=3, note=52, velocity=55, time=4),
    Message('note_on', channel=3, note=59, velocity=63, time=8),
    Message('note_off', channel=3, note=59, velocity=64, time=408),
    Message('note_off', channel=3, note=55, velocity=64, time=4),
    Message('note_on', channel=3, note=55, velocity=64, time=44),
    Message('note_on', channel=3, note=59, velocity=69, time=4),
    Message('note_off', channel=3, note=59, velocity=64, time=212),
    Message('note_off', channel=3, note=55, velocity=64, time=32),
    Message('note_on', channel=3, note=55, velocity=52, time=4),
    Message('note_on', channel=3, note=59, velocity=50, time=4),
    Message('note_off', channel=3, note=52, velocity=64, time=192),
    Message('note_off', channel=3, note=55, velocity=64, time=28),
    Message('note_off', channel=3, note=59, velocity=64, time=0),
    Message('note_on', channel=3, note=55, velocity=64, time=4),
    Message('note_on', channel=3, note=52, velocity=64, time=0),
    Message('note_on', channel=3, note=59, velocity=54, time=4),
    Message('note_off', channel=3, note=59, velocity=64, time=212),
    Message('note_off', channel=3, note=55, velocity=64, time=40),
    Message('note_on', channel=3, note=55, velocity=53, time=4),
    Message('note_on', channel=3, note=59, velocity=50, time=12),
    Message('note_off', channel=3, note=52, velocity=64, time=108),
    Message('note_off', channel=3, note=40, velocity=64, time=60),
    Message('note_off', channel=3, note=59, velocity=64, time=4),
    Message('note_off', channel=3, note=55, velocity=64, time=32),
    Message('note_on', channel=3, note=55, velocity=52, time=4),
    Message('note_on', channel=3, note=52, velocity=65, time=0),
    Message('note_on', channel=3, note=59, velocity=71, time=0),
    Message('note_on', channel=3, note=40, velocity=56, time=4),
    Message('note_off', channel=3, note=55, velocity=64, time=252),
    Message('note_on', channel=3, note=55, velocity=55, time=4),
    Message('note_off', channel=3, note=52, velocity=64, time=140),
    Message('note_off', channel=3, note=40, velocity=64, time=8),
    Message('note_off', channel=3, note=59, velocity=64, time=4),
    Message('note_off', channel=3, note=55, velocity=64, time=64),
    Message('note_on', channel=3, note=55, velocity=58, time=4),
    Message('note_on', channel=3, note=52, velocity=64, time=0),
    Message('note_on', channel=3, note=59, velocity=62, time=0),
    Message('note_off', channel=3, note=59, velocity=64, time=472),
    Message('note_off', channel=3, note=52, velocity=64, time=0),
    Message('note_off', channel=3, note=55, velocity=64, time=0),
    Message('note_on', channel=3, note=55, velocity=64, time=8),
    Message('note_on', channel=3, note=52, velocity=64, time=0),
    Message('note_on', channel=3, note=59, velocity=64, time=0),
    Message('note_off', channel=3, note=59, velocity=64, time=460),
    Message('note_off', channel=3, note=52, velocity=64, time=0),
    Message('note_off', channel=3, note=55, velocity=64, time=0),
    Message('note_on', channel=3, note=40, velocity=56, time=20),
    Message('note_on', channel=3, note=55, velocity=55, time=12),
    Message('note_on', channel=3, note=52, velocity=55, time=4),
    Message('note_on', channel=3, note=59, velocity=63, time=8),
    Message('note_off', channel=3, note=59, velocity=64, time=408),
    Message('note_off', channel=3, note=55, velocity=64, time=4),
    Message('note_on', channel=3, note=55, velocity=64, time=44),
    Message('note_on', channel=3, note=59, velocity=69, time=4),
    Message('note_off', channel=3, note=59, velocity=64, time=212),
    Message('note_off', channel=3, note=55, velocity=64, time=32),
    Message('note_on', channel=3, note=55, velocity=52, time=4),
    Message('note_on', channel=3, note=59, velocity=50, time=4),
    Message('note_off', channel=3, note=52, velocity=64, time=192),
    Message('note_off', channel=3, note=55, velocity=64, time=28),
    Message('note_off', channel=3, note=59, velocity=64, time=0),
    Message('note_on', channel=3, note=55, velocity=64, time=4),
    Message('note_on', channel=3, note=52, velocity=64, time=0),
    Message('note_on', channel=3, note=59, velocity=54, time=4),
    Message('note_off', channel=3, note=59, velocity=64, time=212),
    Message('note_off', channel=3, note=55, velocity=64, time=40),
    Message('note_on', channel=3, note=55, velocity=53, time=4),
    Message('note_on', channel=3, note=59, velocity=50, time=12),
    Message('note_off', channel=3, note=52, velocity=64, time=108),
    Message('note_off', channel=3, note=40, velocity=64, time=68),
    Message('note_off', channel=3, note=55, velocity=64, time=12),
    Message('note_off', channel=3, note=59, velocity=64, time=4),
    Message('note_on', channel=3, note=43, velocity=46, time=4),
    Message('note_on', channel=3, note=47, velocity=49, time=8),
    Message('note_on', channel=3, note=50, velocity=58, time=8),
    Message('note_on', channel=3, note=55, velocity=58, time=8),
    Message('note_on', channel=3, note=59, velocity=58, time=8),
    Message('note_on', channel=3, note=67, velocity=58, time=8),
    Message('note_off', channel=3, note=47, velocity=64, time=428),
    Message('note_off', channel=3, note=50, velocity=64, time=8),
    Message('note_on', channel=3, note=47, velocity=38, time=0),
    Message('note_on', channel=3, note=50, velocity=45, time=8),
    Message('note_off', channel=3, note=55, velocity=64, time=4),
    Message('note_on', channel=3, note=55, velocity=45, time=8),
    Message('note_off', channel=3, note=43, velocity=64, time=4),
    Message('note_off', channel=3, note=59, velocity=64, time=0),
    Message('note_off', channel=3, note=67, velocity=64, time=0),
    Message('note_on', channel=3, note=59, velocity=45, time=4),
    Message('note_on', channel=3, note=67, velocity=45, time=12),
    Message('note_off', channel=3, note=67, velocity=64, time=220),
    Message('note_on', channel=3, note=67, velocity=32, time=8),
    Message('note_off', channel=3, note=47, velocity=64, time=4),
    Message('note_off', channel=3, note=50, velocity=64, time=0),
    Message('note_off', channel=3, note=55, velocity=64, time=0),
    Message('note_off', channel=3, note=59, velocity=64, time=0),
    Message('note_on', channel=3, note=59, velocity=36, time=4),
    Message('note_on', channel=3, note=55, velocity=36, time=8),
    Message('note_on', channel=3, note=50, velocity=32, time=8),
    Message('note_on', channel=3, note=47, velocity=23, time=8),
    Message('note_on', channel=3, note=43, velocity=4, time=8),
    Message('note_off', channel=3, note=47, velocity=64, time=172),
    Message('note_off', channel=3, note=50, velocity=64, time=8),
    Message('note_on', channel=3, note=47, velocity=53, time=0),
    Message('note_on', channel=3, note=50, velocity=63, time=8),
    Message('note_off', channel=3, note=55, velocity=64, time=4),
    Message('note_off', channel=3, note=59, velocity=64, time=8),
    Message('note_on', channel=3, note=55, velocity=63, time=0),
    Message('note_on', channel=3, note=59, velocity=63, time=8),
    Message('note_off', channel=3, note=67, velocity=64, time=4),
    Message('note_on', channel=3, note=67, velocity=63, time=8),
    Message('note_off', channel=3, note=43, velocity=64, time=32),
    Message('note_off', channel=3, note=67, velocity=64, time=164),
    Message('note_off', channel=3, note=59, velocity=64, time=8),
    Message('note_on', channel=3, note=67, velocity=35, time=0),
    Message('note_on', channel=3, note=59, velocity=40, time=8),
    Message('note_off', channel=3, note=47, velocity=64, time=4),
    Message('note_off', channel=3, note=50, velocity=64, time=0),
    Message('note_off', channel=3, note=55, velocity=64, time=0),
    Message('note_on', channel=3, note=55, velocity=40, time=4),
    Message('note_on', channel=3, note=50, velocity=35, time=8),
    Message('note_on', channel=3, note=47, velocity=25, time=8),
    Message('note_on', channel=3, note=43, velocity=5, time=8),
    Message('note_off', channel=3, note=43, velocity=64, time=184),
    Message('note_off', channel=3, note=47, velocity=64, time=0),
    Message('note_off', channel=3, note=50, velocity=64, time=0),
    Message('note_off', channel=3, note=67, velocity=64, time=0),
    Message('note_off', channel=3, note=59, velocity=64, time=0),
    Message('note_off', channel=3, note=55, velocity=64, time=0),
    Message('note_on', channel=3, note=43, velocity=43, time=8),
    Message('note_on', channel=3, note=47, velocity=45, time=8),
    Message('note_on', channel=3, note=50, velocity=54, time=8),
    Message('note_on', channel=3, note=55, velocity=54, time=8),
    Message('note_on', channel=3, note=59, velocity=54, time=8),
    Message('note_on', channel=3, note=67, velocity=54, time=8),
    Message('note_off', channel=3, note=67, velocity=64, time=412),
    Message('note_off', channel=3, note=59, velocity=64, time=0),
    Message('note_off', channel=3, note=55, velocity=64, time=0),
    Message('note_off', channel=3, note=50, velocity=64, time=0),
    Message('note_off', channel=3, note=47, velocity=64, time=0),
    Message('note_off', channel=3, note=43, velocity=64, time=0),
    Message('note_on', channel=3, note=49, velocity=45, time=28),
    Message('note_on', channel=3, note=54, velocity=54, time=8),
    Message('note_on', channel=3, note=57, velocity=54, time=12),
    Message('note_on', channel=3, note=61, velocity=54, time=8),
    Message('note_on', channel=3, note=66, velocity=54, time=12),
    Message('note_off', channel=3, note=66, velocity=64, time=412),
    Message('note_off', channel=3, note=61, velocity=64, time=0),
    Message('note_off', channel=3, note=57, velocity=64, time=0),
    Message('note_off', channel=3, note=54, velocity=64, time=0),
    Message('note_off', channel=3, note=49, velocity=64, time=0),
    Message('note_on', channel=3, note=47, velocity=45, time=28),
    Message('note_on', channel=3, note=52, velocity=54, time=8),
    Message('note_on', channel=3, note=55, velocity=54, time=12),
    Message('note_on', channel=3, note=59, velocity=54, time=8),
    Message('note_on', channel=3, note=64, velocity=54, time=12),
    Message('note_off', channel=3, note=64, velocity=64, time=184),
    Message('note_off', channel=3, note=59, velocity=64, time=0),
    Message('note_off', channel=3, note=55, velocity=64, time=0),
    Message('note_off', channel=3, note=52, velocity=64, time=0),
    Message('note_off', channel=3, note=47, velocity=64, time=0),
    Message('note_on', channel=3, note=50, velocity=71, time=268),
    Message('note_off', channel=3, note=50, velocity=64, time=8),
    Message('note_on', channel=3, note=57, velocity=55, time=4),
    Message('note_on', channel=3, note=50, velocity=55, time=4),
    Message('note_on', channel=3, note=62, velocity=63, time=8),
    Message('note_off', channel=3, note=62, velocity=64, time=408),
    Message('note_off', channel=3, note=57, velocity=64, time=4),
    Message('note_on', channel=3, note=57, velocity=64, time=44),
    Message('note_on', channel=3, note=62, velocity=69, time=4),
    Message('note_off', channel=3, note=62, velocity=64, time=212),
    Message('note_off', channel=3, note=57, velocity=64, time=32),
    Message('note_on', channel=3, note=57, velocity=52, time=4),
    Message('note_on', channel=3, note=62, velocity=50, time=4),
    Message('note_off', channel=3, note=50, velocity=64, time=192),
    Message('note_off', channel=3, note=57, velocity=64, time=28),
    Message('note_off', channel=3, note=62, velocity=64, time=0),
    Message('note_on', channel=3, note=57, velocity=64, time=4),
    Message('note_on', channel=3, note=50, velocity=64, time=0),
    Message('note_on', channel=3, note=62, velocity=54, time=4),
    Message('note_off', channel=3, note=62, velocity=64, time=212),
    Message('note_off', channel=3, note=57, velocity=64, time=40),
    Message('note_on', channel=3, note=57, velocity=53, time=4),
    Message('note_on', channel=3, note=62, velocity=50, time=12),
    Message('note_off', channel=3, note=50, velocity=64, time=108),
    Message('note_off', channel=3, note=57, velocity=64, time=80),
    Message('note_off', channel=3, note=62, velocity=64, time=4),
    Message('note_on', channel=3, note=66, velocity=61, time=24),
    Message('note_on', channel=3, note=62, velocity=61, time=0),
    Message('note_on', channel=3, note=50, velocity=61, time=0),
    Message('note_off', channel=3, note=66, velocity=64, time=432),
    Message('note_on', channel=3, note=66, velocity=61, time=48),
    Message('note_on', channel=3, note=57, velocity=61, time=0),
    Message('note_off', channel=3, note=57, velocity=64, time=240),
    Message('note_off', channel=3, note=66, velocity=64, time=20),
    Message('note_on', channel=3, note=57, velocity=47, time=4),
    Message('note_on', channel=3, note=66, velocity=63, time=4),
    Message('note_off', channel=3, note=66, velocity=64, time=208),
    Message('note_off', channel=3, note=57, velocity=64, time=0),
    Message('note_on', channel=3, note=66, velocity=61, time=4),
    Message('note_on', channel=3, note=57, velocity=61, time=0),
    Message('note_off', channel=3, note=57, velocity=64, time=240),
    Message('note_off', channel=3, note=66, velocity=64, time=16),
    Message('note_on', channel=3, note=57, velocity=60, time=4),
    Message('note_off', channel=3, note=57, velocity=64, time=172),
    Message('note_off', channel=3, note=50, velocity=64, time=4),
    Message('note_off', channel=3, note=62, velocity=64, time=4),
    Message('note_on', channel=3, note=55, velocity=45, time=32),
    Message('note_on', channel=3, note=52, velocity=59, time=8),
    Message('note_on', channel=3, note=40, velocity=47, time=0),
    Message('note_on', channel=3, note=59, velocity=45, time=4),
    Message('note_on', channel=3, note=64, velocity=68, time=4),
    Message('note_off', channel=3, note=55, velocity=64, time=412),
    Message('note_off', channel=3, note=52, velocity=64, time=52),
    Message('note_on', channel=3, note=52, velocity=59, time=8),
    Message('note_on', channel=3, note=55, velocity=59, time=0),
    Message('note_off', channel=3, note=59, velocity=64, time=172),
    Message('note_off', channel=3, note=55, velocity=64, time=68),
    Message('note_off', channel=3, note=52, velocity=64, time=8),
    Message('note_on', channel=3, note=55, velocity=59, time=4),
    Message('note_on', channel=3, note=59, velocity=59, time=4),
    Message('note_off', channel=3, note=55, velocity=64, time=220),
    Message('note_on', channel=3, note=52, velocity=59, time=4),
    Message('note_on', channel=3, note=55, velocity=59, time=0),
    Message('note_off', channel=3, note=59, velocity=64, time=128),
    Message('note_off', channel=3, note=55, velocity=64, time=104),
    Message('note_on', channel=3, note=55, velocity=59, time=8),
    Message('note_off', channel=3, note=52, velocity=64, time=16),
    Message('note_on', channel=3, note=59, velocity=59, time=4),
    Message('note_off', channel=3, note=64, velocity=64, time=140),
    Message('note_off', channel=3, note=40, velocity=64, time=40),
    Message('note_off', channel=3, note=55, velocity=64, time=0),
    Message('note_off', channel=3, note=59, velocity=64, time=12),
    Message('note_on', channel=3, note=50, velocity=58, time=8),
    Message('note_on', channel=3, note=57, velocity=58, time=12),
    Message('note_on', channel=3, note=62, velocity=58, time=12),
    Message('note_on', channel=3, note=66, velocity=58, time=12),
    Message('note_off', channel=3, note=57, velocity=64, time=432),
    Message('note_on', channel=3, note=57, velocity=45, time=8),
    Message('note_off', channel=3, note=62, velocity=64, time=8),
    Message('note_on', channel=3, note=62, velocity=45, time=8),
    Message('note_off', channel=3, note=50, velocity=64, time=8),
    Message('note_off', channel=3, note=66, velocity=64, time=0),
    Message('note_on', channel=3, note=66, velocity=45, time=8),
    Message('note_off', channel=3, note=66, velocity=64, time=228),
    Message('note_on', channel=3, note=66, velocity=32, time=8),
    Message('note_off', channel=3, note=57, velocity=64, time=4),
    Message('note_off', channel=3, note=62, velocity=64, time=0),
    Message('note_on', channel=3, note=62, velocity=36, time=8),
    Message('note_on', channel=3, note=57, velocity=36, time=12),
    Message('note_on', channel=3, note=50, velocity=32, time=12),
    Message('note_off', channel=3, note=50, velocity=64, time=156),
    Message('note_off', channel=3, note=57, velocity=64, time=0),
    Message('note_off', channel=3, note=66, velocity=64, time=0),
    Message('note_off', channel=3, note=62, velocity=64, time=0),
    Message('note_on', channel=3, note=47, velocity=45, time=24),
    Message('note_on', channel=3, note=52, velocity=54, time=8),
    Message('note_on', channel=3, note=55, velocity=54, time=12),
    Message('note_on', channel=3, note=59, velocity=54, time=8),
    Message('note_on', channel=3, note=64, velocity=54, time=12),
    Message('note_off', channel=3, note=64, velocity=64, time=184),
    Message('note_off', channel=3, note=59, velocity=64, time=0),
    Message('note_off', channel=3, note=55, velocity=64, time=0),
    Message('note_off', channel=3, note=52, velocity=64, time=0),
    Message('note_off', channel=3, note=47, velocity=64, time=0),
    Message('note_on', channel=3, note=50, velocity=54, time=256),
    Message('note_on', channel=3, note=57, velocity=54, time=12),
    Message('note_on', channel=3, note=62, velocity=54, time=12),
    Message('note_on', channel=3, note=66, velocity=54, time=12),
    Message('note_off', channel=3, note=66, velocity=64, time=416),
    Message('note_off', channel=3, note=62, velocity=64, time=0),
    Message('note_off', channel=3, note=57, velocity=64, time=0),
    Message('note_off', channel=3, note=50, velocity=64, time=0),
    Message('note_on', channel=3, note=47, velocity=45, time=28),
    Message('note_on', channel=3, note=52, velocity=54, time=8),
    Message('note_on', channel=3, note=55, velocity=54, time=12),
    Message('note_on', channel=3, note=59, velocity=54, time=8),
    Message('note_on', channel=3, note=64, velocity=54, time=12),
    Message('note_off', channel=3, note=64, velocity=64, time=412),
    Message('note_off', channel=3, note=59, velocity=64, time=0),
    Message('note_off', channel=3, note=55, velocity=64, time=0),
    Message('note_off', channel=3, note=52, velocity=64, time=0),
    Message('note_off', channel=3, note=47, velocity=64, time=0),
    Message('note_on', channel=3, note=57, velocity=54, time=28),
    Message('note_on', channel=3, note=62, velocity=54, time=16),
    Message('note_on', channel=3, note=66, velocity=54, time=16),
    Message('note_off', channel=3, note=66, velocity=64, time=192),
    Message('note_off', channel=3, note=62, velocity=64, time=0),
    Message('note_off', channel=3, note=57, velocity=64, time=0),
    Message('note_on', channel=3, note=64, velocity=60, time=276),
    Message('note_on', channel=3, note=40, velocity=54, time=0),
    Message('note_on', channel=3, note=59, velocity=60, time=0),
    Message('note_on', channel=3, note=52, velocity=60, time=0),
    Message('note_off', channel=3, note=59, velocity=64, time=244),
    Message('note_off', channel=3, note=64, velocity=64, time=0),
    Message('note_on', channel=3, note=64, velocity=54, time=4),
    Message('note_on', channel=3, note=59, velocity=29, time=8),
    Message('note_off', channel=3, note=59, velocity=64, time=220),
    Message('note_off', channel=3, note=64, velocity=64, time=0),
    Message('note_on', channel=3, note=64, velocity=60, time=4),
    Message('note_on', channel=3, note=55, velocity=45, time=0),
    Message('note_on', channel=3, note=59, velocity=68, time=4),
    Message('note_off', channel=3, note=59, velocity=64, time=216),
    Message('note_off', channel=3, note=55, velocity=64, time=40),
    Message('note_on', channel=3, note=55, velocity=70, time=8),
    Message('note_on', channel=3, note=59, velocity=61, time=4),
    Message('note_off', channel=3, note=64, velocity=64, time=168),
    Message('note_off', channel=3, note=55, velocity=64, time=32),
    Message('note_off', channel=3, note=59, velocity=64, time=0),
    Message('note_on', channel=3, note=59, velocity=68, time=4),
    Message('note_on', channel=3, note=64, velocity=60, time=4),
    Message('note_on', channel=3, note=55, velocity=60, time=0),
    Message('note_off', channel=3, note=55, velocity=64, time=212),
    Message('note_on', channel=3, note=55, velocity=67, time=52),
    Message('note_off', channel=3, note=59, velocity=64, time=116),
    Message('note_off', channel=3, note=52, velocity=64, time=20),
    Message('note_off', channel=3, note=40, velocity=64, time=16),
    Message('note_off', channel=3, note=64, velocity=64, time=4),
    Message('note_off', channel=3, note=55, velocity=64, time=48),
    Message('note_on', channel=3, note=52, velocity=68, time=4),
    Message('note_on', channel=3, note=64, velocity=60, time=8),
    Message('note_on', channel=3, note=55, velocity=60, time=0),
    Message('note_on', channel=3, note=59, velocity=60, time=0),
    Message('note_on', channel=3, note=40, velocity=54, time=4),
    Message('note_off', channel=3, note=55, velocity=64, time=208),
    Message('note_off', channel=3, note=64, velocity=64, time=40),
    Message('note_off', channel=3, note=59, velocity=64, time=0),
    Message('note_on', channel=3, note=55, velocity=57, time=4),
    Message('note_on', channel=3, note=59, velocity=68, time=0),
    Message('note_off', channel=3, note=59, velocity=64, time=220),
    Message('note_off', channel=3, note=55, velocity=64, time=0),
    Message('note_on', channel=3, note=64, velocity=60, time=4),
    Message('note_on', channel=3, note=55, velocity=60, time=0),
    Message('note_on', channel=3, note=59, velocity=60, time=0),
    Message('note_off', channel=3, note=52, velocity=64, time=408),
    Message('note_off', channel=3, note=64, velocity=64, time=28),
    Message('note_off', channel=3, note=55, velocity=64, time=0),
    Message('note_off', channel=3, note=59, velocity=64, time=0),
    Message('note_on', channel=3, note=64, velocity=60, time=44),
    Message('note_on', channel=3, note=55, velocity=60, time=0),
    Message('note_on', channel=3, note=59, velocity=60, time=0),
    Message('note_on', channel=3, note=52, velocity=68, time=4),
    Message('note_off', channel=3, note=59, velocity=64, time=220),
    Message('note_off', channel=3, note=64, velocity=64, time=0),
    Message('note_on', channel=3, note=64, velocity=48, time=24),
    Message('note_on', channel=3, note=59, velocity=57, time=0),
    Message('note_off', channel=3, note=40, velocity=64, time=64),
    Message('note_off', channel=3, note=55, velocity=64, time=140),
    Message('note_off', channel=3, note=52, velocity=64, time=0),
    Message('note_off', channel=3, note=64, velocity=64, time=0),
    Message('note_off', channel=3, note=59, velocity=64, time=0),
    Message('note_on', channel=3, note=55, velocity=60, time=28),
    Message('note_on', channel=3, note=40, velocity=54, time=0),
    Message('note_on', channel=3, note=59, velocity=60, time=0),
    Message('note_on', channel=3, note=52, velocity=60, time=0),
    Message('note_off', channel=3, note=59, velocity=64, time=252),
    Message('note_off', channel=3, note=55, velocity=64, time=0),
    Message('note_on', channel=3, note=64, velocity=44, time=4),
    Message('note_on', channel=3, note=59, velocity=60, time=0),
    Message('note_off', channel=3, note=59, velocity=64, time=220),
    Message('note_off', channel=3, note=64, velocity=64, time=0),
    Message('note_on', channel=3, note=64, velocity=60, time=4),
    Message('note_on', channel=3, note=55, velocity=45, time=0),
    Message('note_on', channel=3, note=59, velocity=68, time=4),
    Message('note_off', channel=3, note=59, velocity=64, time=252),
    Message('note_off', channel=3, note=55, velocity=64, time=0),
    Message('note_off', channel=3, note=64, velocity=64, time=0),
    Message('note_on', channel=3, note=59, velocity=29, time=4),
    Message('note_on', channel=3, note=64, velocity=44, time=4),
    Message('note_off', channel=3, note=64, velocity=64, time=208),
    Message('note_off', channel=3, note=59, velocity=64, time=0),
    Message('note_on', channel=3, note=59, velocity=68, time=4),
    Message('note_on', channel=3, note=64, velocity=60, time=4),
    Message('note_on', channel=3, note=55, velocity=60, time=0),
    Message('note_off', channel=3, note=59, velocity=64, time=204),
    Message('note_off', channel=3, note=55, velocity=64, time=8),
    Message('note_off', channel=3, note=64, velocity=64, time=28),
    Message('note_on', channel=3, note=55, velocity=67, time=0),
    Message('note_on', channel=3, note=59, velocity=50, time=4),
    Message('note_off', channel=3, note=40, velocity=64, time=144),
    Message('note_off', channel=3, note=52, velocity=64, time=24),
    Message('note_off', channel=3, note=55, velocity=64, time=36),
    Message('note_off', channel=3, note=59, velocity=64, time=20),
    Message('note_on', channel=3, note=52, velocity=68, time=4),
    Message('note_on', channel=3, note=59, velocity=60, time=8),
    Message('note_on', channel=3, note=64, velocity=60, time=0),
    Message('note_on', channel=3, note=55, velocity=60, time=0),
    Message('note_on', channel=3, note=40, velocity=54, time=4),
    Message('note_off', channel=3, note=55, velocity=64, time=208),
    Message('note_off', channel=3, note=59, velocity=64, time=36),
    Message('note_on', channel=3, note=59, velocity=57, time=4),
    Message('note_on', channel=3, note=55, velocity=76, time=12),
    Message('note_off', channel=3, note=64, velocity=64, time=124),
    Message('note_off', channel=3, note=59, velocity=64, time=88),
    Message('note_off', channel=3, note=55, velocity=64, time=0),
    Message('note_on', channel=3, note=59, velocity=60, time=4),
    Message('note_on', channel=3, note=64, velocity=60, time=0),
    Message('note_on', channel=3, note=55, velocity=60, time=0),
    Message('note_off', channel=3, note=52, velocity=64, time=392),
    Message('note_off', channel=3, note=59, velocity=64, time=44),
    Message('note_off', channel=3, note=64, velocity=64, time=0),
    Message('note_off', channel=3, note=55, velocity=64, time=0),
    Message('note_off', channel=3, note=40, velocity=64, time=8),
    Message('note_on', channel=3, note=59, velocity=60, time=36),
    Message('note_on', channel=3, note=64, velocity=73, time=0),
    Message('note_on', channel=3, note=55, velocity=69, time=0),
    Message('note_on', channel=3, note=52, velocity=68, time=4),
    Message('note_off', channel=3, note=64, velocity=64, time=220),
    Message('note_off', channel=3, note=59, velocity=64, time=0),
    Message('note_on', channel=3, note=64, velocity=48, time=24),
    Message('note_on', channel=3, note=59, velocity=57, time=0),
    Message('note_off', channel=3, note=59, velocity=64, time=204),
    Message('note_off', channel=3, note=55, velocity=64, time=0),
    Message('note_off', channel=3, note=52, velocity=64, time=0),
    Message('note_off', channel=3, note=64, velocity=64, time=0),
    Message('note_on', channel=3, note=55, velocity=45, time=20),
    Message('note_on', channel=3, note=52, velocity=59, time=8),
    Message('note_on', channel=3, note=40, velocity=47, time=0),
    Message('note_on', channel=3, note=59, velocity=45, time=4),
    Message('note_on', channel=3, note=64, velocity=68, time=4),
    Message('note_off', channel=3, note=55, velocity=64, time=412),
    Message('note_off', channel=3, note=52, velocity=64, time=52),
    Message('note_on', channel=3, note=52, velocity=59, time=8),
    Message('note_on', channel=3, note=55, velocity=59, time=0),
    Message('note_off', channel=3, note=59, velocity=64, time=172),
    Message('note_off', channel=3, note=55, velocity=64, time=68),
    Message('note_off', channel=3, note=52, velocity=64, time=8),
    Message('note_on', channel=3, note=55, velocity=59, time=4),
    Message('note_on', channel=3, note=59, velocity=59, time=4),
    Message('note_off', channel=3, note=55, velocity=64, time=220),
    Message('note_on', channel=3, note=52, velocity=59, time=4),
    Message('note_on', channel=3, note=55, velocity=59, time=0),
    Message('note_off', channel=3, note=59, velocity=64, time=128),
    Message('note_off', channel=3, note=55, velocity=64, time=104),
    Message('note_on', channel=3, note=55, velocity=59, time=8),
    Message('note_off', channel=3, note=52, velocity=64, time=16),
    Message('note_on', channel=3, note=59, velocity=59, time=4),
    Message('note_off', channel=3, note=64, velocity=64, time=140),
    Message('note_off', channel=3, note=55, velocity=64, time=60),
    Message('note_off', channel=3, note=59, velocity=64, time=16),
    Message('note_off', channel=3, note=40, velocity=64, time=4),
    Message('note_on', channel=3, note=52, velocity=59, time=0),
    Message('note_on', channel=3, note=55, velocity=59, time=0),
    Message('note_on', channel=3, note=59, velocity=59, time=0),
    Message('note_on', channel=3, note=64, velocity=73, time=4),
    Message('note_on', channel=3, note=40, velocity=58, time=0),
    Message('note_off', channel=3, note=59, velocity=64, time=252),
    Message('note_off', channel=3, note=55, velocity=64, time=0),
    Message('note_off', channel=3, note=52, velocity=64, time=0),
    Message('note_on', channel=3, note=52, velocity=59, time=224),
    Message('note_on', channel=3, note=55, velocity=59, time=0),
    Message('note_on', channel=3, note=59, velocity=59, time=24),
    Message('note_off', channel=3, note=59, velocity=64, time=448),
    Message('note_off', channel=3, note=55, velocity=64, time=4),
    Message('note_off', channel=3, note=52, velocity=64, time=0),
    Message('note_on', channel=3, note=52, velocity=59, time=4),
    Message('note_on', channel=3, note=55, velocity=59, time=4),
    Message('note_on', channel=3, note=59, velocity=59, time=8),
    Message('note_off', channel=3, note=40, velocity=64, time=164),
    Message('note_off', channel=3, note=64, velocity=64, time=116),
    Message('note_off', channel=3, note=52, velocity=64, time=160),
    Message('note_off', channel=3, note=55, velocity=64, time=0),
    Message('note_off', channel=3, note=59, velocity=64, time=0),
    Message('note_on', channel=3, note=50, velocity=54, time=8),
    Message('note_on', channel=3, note=57, velocity=54, time=12),
    Message('note_on', channel=3, note=62, velocity=54, time=12),
    Message('note_on', channel=3, note=66, velocity=54, time=12),
    Message('note_off', channel=3, note=66, velocity=64, time=416),
    Message('note_off', channel=3, note=62, velocity=64, time=0),
    Message('note_off', channel=3, note=57, velocity=64, time=0),
    Message('note_off', channel=3, note=50, velocity=64, time=0),
    Message('note_on', channel=3, note=47, velocity=45, time=28),
    Message('note_on', channel=3, note=52, velocity=54, time=8),
    Message('note_on', channel=3, note=55, velocity=54, time=12),
    Message('note_on', channel=3, note=59, velocity=54, time=8),
    Message('note_on', channel=3, note=64, velocity=54, time=12),
    Message('note_off', channel=3, note=64, velocity=64, time=192),
    Message('note_off', channel=3, note=59, velocity=64, time=8),
    Message('note_on', channel=3, note=64, velocity=31, time=0),
    Message('note_off', channel=3, note=55, velocity=64, time=8),
    Message('note_on', channel=3, note=59, velocity=36, time=0),
    Message('note_off', channel=3, note=52, velocity=64, time=8),
    Message('note_on', channel=3, note=55, velocity=36, time=0),
    Message('note_off', channel=3, note=47, velocity=64, time=8),
    Message('note_on', channel=3, note=52, velocity=31, time=0),
    Message('note_on', channel=3, note=47, velocity=22, time=8),
    Message('note_on', channel=3, note=40, velocity=4, time=8),
    Message('note_off', channel=3, note=40, velocity=64, time=192),
    Message('note_off', channel=3, note=47, velocity=64, time=0),
    Message('note_off', channel=3, note=64, velocity=64, time=0),
    Message('note_off', channel=3, note=59, velocity=64, time=0),
    Message('note_off', channel=3, note=55, velocity=64, time=0),
    Message('note_off', channel=3, note=52, velocity=64, time=0),
    Message('note_on', channel=3, note=57, velocity=54, time=8),
    Message('note_on', channel=3, note=62, velocity=54, time=16),
    Message('note_on', channel=3, note=66, velocity=54, time=16),
    Message('note_off', channel=3, note=66, velocity=64, time=192),
    Message('note_off', channel=3, note=62, velocity=64, time=0),
    Message('note_off', channel=3, note=57, velocity=64, time=0),
    Message('note_on', channel=3, note=55, velocity=60, time=276),
    Message('note_on', channel=3, note=40, velocity=54, time=0),
    Message('note_on', channel=3, note=59, velocity=60, time=0),
    Message('note_on', channel=3, note=52, velocity=60, time=0),
    Message('note_off', channel=3, note=59, velocity=64, time=252),
    Message('note_off', channel=3, note=55, velocity=64, time=0),
    Message('note_on', channel=3, note=64, velocity=44, time=4),
    Message('note_on', channel=3, note=59, velocity=60, time=0),
    Message('note_off', channel=3, note=59, velocity=64, time=220),
    Message('note_off', channel=3, note=64, velocity=64, time=0),
    Message('note_on', channel=3, note=64, velocity=60, time=4),
    Message('note_on', channel=3, note=55, velocity=45, time=0),
    Message('note_on', channel=3, note=59, velocity=68, time=4),
    Message('note_off', channel=3, note=59, velocity=64, time=252),
    Message('note_off', channel=3, note=55, velocity=64, time=0),
    Message('note_off', channel=3, note=64, velocity=64, time=0),
    Message('note_on', channel=3, note=59, velocity=29, time=4),
    Message('note_on', channel=3, note=64, velocity=44, time=4),
    Message('note_off', channel=3, note=64, velocity=64, time=208),
    Message('note_off', channel=3, note=59, velocity=64, time=0),
    Message('note_on', channel=3, note=59, velocity=68, time=4),
    Message('note_on', channel=3, note=64, velocity=60, time=4),
    Message('note_on', channel=3, note=55, velocity=60, time=0),
    Message('note_off', channel=3, note=59, velocity=64, time=204),
    Message('note_off', channel=3, note=55, velocity=64, time=8),
    Message('note_off', channel=3, note=64, velocity=64, time=28),
    Message('note_on', channel=3, note=55, velocity=67, time=0),
    Message('note_on', channel=3, note=59, velocity=50, time=4),
    Message('note_off', channel=3, note=40, velocity=64, time=144),
    Message('note_off', channel=3, note=52, velocity=64, time=24),
    Message('note_off', channel=3, note=59, velocity=64, time=24),
    Message('note_off', channel=3, note=55, velocity=64, time=20),
    Message('note_on', channel=3, note=40, velocity=55, time=24),
    Message('note_on', channel=3, note=52, velocity=61, time=0),
    Message('note_on', channel=3, note=55, velocity=69, time=8),
    Message('note_on', channel=3, note=59, velocity=61, time=8),
    Message('note_on', channel=3, note=64, velocity=51, time=8),
    Message('note_off', channel=3, note=64, velocity=64, time=412),
    Message('note_off', channel=3, note=55, velocity=64, time=24),
    Message('note_on', channel=3, note=64, velocity=61, time=20),
    Message('note_on', channel=3, note=55, velocity=61, time=0),
    Message('note_off', channel=3, note=55, velocity=64, time=188),
    Message('note_off', channel=3, note=64, velocity=64, time=64),
    Message('note_on', channel=3, note=55, velocity=60, time=4),
    Message('note_off', channel=3, note=55, velocity=64, time=220),
    Message('note_on', channel=3, note=64, velocity=62, time=4),
    Message('note_on', channel=3, note=55, velocity=50, time=0),
    Message('note_off', channel=3, note=55, velocity=64, time=188),
    Message('note_off', channel=3, note=64, velocity=64, time=52),
    Message('note_on', channel=3, note=55, velocity=47, time=4),
    Message('note_on', channel=3, note=64, velocity=41, time=4),
    Message('note_off', channel=3, note=40, velocity=64, time=180),
    Message('note_off', channel=3, note=52, velocity=64, time=4),
    Message('note_off', channel=3, note=55, velocity=64, time=8),
    Message('note_off', channel=3, note=59, velocity=64, time=8),
    Message('note_off', channel=3, note=64, velocity=64, time=0),
    Message('note_on', channel=3, note=55, velocity=60, time=32),
    Message('note_on', channel=3, note=43, velocity=54, time=0),
    Message('note_on', channel=3, note=59, velocity=60, time=0),
    Message('note_on', channel=3, note=50, velocity=60, time=0),
    Message('note_off', channel=3, note=59, velocity=64, time=252),
    Message('note_off', channel=3, note=55, velocity=64, time=0),
    Message('note_on', channel=3, note=67, velocity=44, time=4),
    Message('note_on', channel=3, note=59, velocity=60, time=0),
    Message('note_off', channel=3, note=59, velocity=64, time=220),
    Message('note_off', channel=3, note=67, velocity=64, time=0),
    Message('note_on', channel=3, note=67, velocity=60, time=4),
    Message('note_on', channel=3, note=55, velocity=45, time=0),
    Message('note_on', channel=3, note=59, velocity=68, time=4),
    Message('note_off', channel=3, note=59, velocity=64, time=252),
    Message('note_off', channel=3, note=55, velocity=64, time=0),
    Message('note_off', channel=3, note=67, velocity=64, time=0),
    Message('note_on', channel=3, note=59, velocity=29, time=4),
    Message('note_on', channel=3, note=67, velocity=44, time=4),
    Message('note_off', channel=3, note=67, velocity=64, time=208),
    Message('note_off', channel=3, note=59, velocity=64, time=0),
    Message('note_on', channel=3, note=59, velocity=68, time=4),
    Message('note_on', channel=3, note=67, velocity=60, time=4),
    Message('note_on', channel=3, note=55, velocity=60, time=0),
    Message('note_off', channel=3, note=59, velocity=64, time=204),
    Message('note_off', channel=3, note=55, velocity=64, time=8),
    Message('note_off', channel=3, note=67, velocity=64, time=28),
    Message('note_on', channel=3, note=55, velocity=67, time=0),
    Message('note_on', channel=3, note=59, velocity=50, time=4),
    Message('note_off', channel=3, note=43, velocity=64, time=144),
    Message('note_off', channel=3, note=50, velocity=64, time=24),
    Message('note_off', channel=3, note=59, velocity=64, time=24),
    Message('note_off', channel=3, note=55, velocity=64, time=20),
    Message('note_on', channel=3, note=40, velocity=46, time=4),
    Message('note_on', channel=3, note=47, velocity=49, time=8),
    Message('note_on', channel=3, note=52, velocity=58, time=8),
    Message('note_on', channel=3, note=55, velocity=58, time=8),
    Message('note_on', channel=3, note=59, velocity=58, time=8),
    Message('note_on', channel=3, note=64, velocity=58, time=8),
    Message('note_off', channel=3, note=47, velocity=64, time=428),
    Message('note_off', channel=3, note=52, velocity=64, time=8),
    Message('note_on', channel=3, note=47, velocity=38, time=0),
    Message('note_on', channel=3, note=52, velocity=45, time=8),
    Message('note_off', channel=3, note=55, velocity=64, time=4),
    Message('note_on', channel=3, note=55, velocity=45, time=8),
    Message('note_off', channel=3, note=40, velocity=64, time=4),
    Message('note_off', channel=3, note=59, velocity=64, time=0),
    Message('note_off', channel=3, note=64, velocity=64, time=0),
    Message('note_on', channel=3, note=59, velocity=45, time=4),
    Message('note_on', channel=3, note=64, velocity=45, time=12),
    Message('note_off', channel=3, note=64, velocity=64, time=220),
    Message('note_on', channel=3, note=64, velocity=32, time=8),
    Message('note_off', channel=3, note=47, velocity=64, time=4),
    Message('note_off', channel=3, note=52, velocity=64, time=0),
    Message('note_off', channel=3, note=55, velocity=64, time=0),
    Message('note_off', channel=3, note=59, velocity=64, time=0),
    Message('note_on', channel=3, note=59, velocity=36, time=4),
    Message('note_on', channel=3, note=55, velocity=36, time=8),
    Message('note_on', channel=3, note=52, velocity=32, time=8),
    Message('note_on', channel=3, note=47, velocity=23, time=8),
    Message('note_on', channel=3, note=40, velocity=4, time=8),
    Message('note_off', channel=3, note=47, velocity=64, time=172),
    Message('note_off', channel=3, note=52, velocity=64, time=8),
    Message('note_on', channel=3, note=47, velocity=53, time=0),
    Message('note_on', channel=3, note=52, velocity=63, time=8),
    Message('note_off', channel=3, note=55, velocity=64, time=4),
    Message('note_off', channel=3, note=59, velocity=64, time=8),
    Message('note_on', channel=3, note=55, velocity=63, time=0),
    Message('note_on', channel=3, note=59, velocity=63, time=8),
    Message('note_off', channel=3, note=64, velocity=64, time=4),
    Message('note_on', channel=3, note=64, velocity=63, time=8),
    Message('note_off', channel=3, note=40, velocity=64, time=32),
    Message('note_off', channel=3, note=64, velocity=64, time=164),
    Message('note_off', channel=3, note=59, velocity=64, time=8),
    Message('note_on', channel=3, note=64, velocity=35, time=0),
    Message('note_on', channel=3, note=59, velocity=40, time=8),
    Message('note_off', channel=3, note=47, velocity=64, time=4),
    Message('note_off', channel=3, note=52, velocity=64, time=0),
    Message('note_off', channel=3, note=55, velocity=64, time=0),
    Message('note_on', channel=3, note=55, velocity=40, time=4),
    Message('note_on', channel=3, note=52, velocity=35, time=8),
    Message('note_on', channel=3, note=47, velocity=25, time=8),
    Message('note_on', channel=3, note=40, velocity=5, time=8),
    Message('note_off', channel=3, note=40, velocity=64, time=184),
    Message('note_off', channel=3, note=47, velocity=64, time=0),
    Message('note_off', channel=3, note=52, velocity=64, time=0),
    Message('note_off', channel=3, note=64, velocity=64, time=0),
    Message('note_off', channel=3, note=59, velocity=64, time=0),
    Message('note_off', channel=3, note=55, velocity=64, time=0),
    Message('note_on', channel=3, note=43, velocity=43, time=8),
    Message('note_on', channel=3, note=47, velocity=45, time=8),
    Message('note_on', channel=3, note=50, velocity=54, time=8),
    Message('note_on', channel=3, note=55, velocity=54, time=8),
    Message('note_on', channel=3, note=59, velocity=54, time=8),
    Message('note_on', channel=3, note=67, velocity=54, time=8),
    Message('note_off', channel=3, note=67, velocity=64, time=412),
    Message('note_off', channel=3, note=59, velocity=64, time=0),
    Message('note_off', channel=3, note=55, velocity=64, time=0),
    Message('note_off', channel=3, note=50, velocity=64, time=0),
    Message('note_off', channel=3, note=47, velocity=64, time=0),
    Message('note_off', channel=3, note=43, velocity=64, time=0),
    Message('note_on', channel=3, note=52, velocity=54, time=28),
    Message('note_on', channel=3, note=57, velocity=54, time=12),
    Message('note_on', channel=3, note=61, velocity=54, time=12),
    Message('note_on', channel=3, note=64, velocity=54, time=12),
    Message('note_off', channel=3, note=64, velocity=64, time=196),
    Message('note_off', channel=3, note=61, velocity=64, time=8),
    Message('note_on', channel=3, note=64, velocity=31, time=0),
    Message('note_on', channel=3, note=61, velocity=36, time=8),
    Message('note_off', channel=3, note=57, velocity=64, time=4),
    Message('note_on', channel=3, note=57, velocity=36, time=8),
    Message('note_off', channel=3, note=52, velocity=64, time=4),
    Message('note_on', channel=3, note=52, velocity=31, time=4),
    Message('note_on', channel=3, note=45, velocity=22, time=12),
    Message('note_off', channel=3, note=45, velocity=64, time=192),
    Message('note_off', channel=3, note=64, velocity=64, time=0),
    Message('note_off', channel=3, note=61, velocity=64, time=0),
    Message('note_off', channel=3, note=57, velocity=64, time=0),
    Message('note_off', channel=3, note=52, velocity=64, time=0),
    Message('note_on', channel=3, note=52, velocity=54, time=8),
    Message('note_on', channel=3, note=57, velocity=54, time=12),
    Message('note_on', channel=3, note=61, velocity=54, time=12),
    Message('note_on', channel=3, note=64, velocity=54, time=12),
    Message('note_off', channel=3, note=64, velocity=64, time=188),
    Message('note_off', channel=3, note=61, velocity=64, time=0),
    Message('note_off', channel=3, note=57, velocity=64, time=0),
    Message('note_off', channel=3, note=52, velocity=64, time=0),
    Message('note_on', channel=3, note=64, velocity=31, time=20),
    Message('note_on', channel=3, note=61, velocity=36, time=8),
    Message('note_on', channel=3, note=57, velocity=36, time=12),
    Message('note_on', channel=3, note=52, velocity=31, time=8),
    Message('note_on', channel=3, note=45, velocity=22, time=12),
    Message('note_off', channel=3, note=45, velocity=64, time=192),
    Message('note_off', channel=3, note=52, velocity=64, time=0),
    Message('note_off', channel=3, note=57, velocity=64, time=0),
    Message('note_off', channel=3, note=61, velocity=64, time=0),
    Message('note_off', channel=3, note=64, velocity=64, time=0),
    Message('note_on', channel=3, note=40, velocity=56, time=16),
    Message('note_on', channel=3, note=55, velocity=55, time=12),
    Message('note_on', channel=3, note=52, velocity=55, time=4),
    Message('note_on', channel=3, note=59, velocity=63, time=8),
    Message('note_off', channel=3, note=59, velocity=64, time=408),
    Message('note_off', channel=3, note=55, velocity=64, time=4),
    Message('note_on', channel=3, note=55, velocity=64, time=44),
    Message('note_on', channel=3, note=59, velocity=69, time=4),
    Message('note_off', channel=3, note=59, velocity=64, time=212),
    Message('note_off', channel=3, note=55, velocity=64, time=32),
    Message('note_on', channel=3, note=55, velocity=52, time=4),
    Message('note_on', channel=3, note=59, velocity=50, time=4),
    Message('note_off', channel=3, note=52, velocity=64, time=192),
    Message('note_off', channel=3, note=55, velocity=64, time=28),
    Message('note_off', channel=3, note=59, velocity=64, time=0),
    Message('note_on', channel=3, note=55, velocity=64, time=4),
    Message('note_on', channel=3, note=52, velocity=64, time=0),
    Message('note_on', channel=3, note=59, velocity=54, time=4),
    Message('note_off', channel=3, note=59, velocity=64, time=212),
    Message('note_off', channel=3, note=55, velocity=64, time=40),
    Message('note_on', channel=3, note=55, velocity=53, time=4),
    Message('note_on', channel=3, note=59, velocity=50, time=12),
    Message('note_off', channel=3, note=52, velocity=64, time=108),
    Message('note_off', channel=3, note=40, velocity=64, time=60),
    Message('note_off', channel=3, note=59, velocity=64, time=4),
    Message('note_off', channel=3, note=55, velocity=64, time=32),
    Message('note_on', channel=3, note=55, velocity=52, time=4),
    Message('note_on', channel=3, note=52, velocity=65, time=0),
    Message('note_on', channel=3, note=59, velocity=71, time=0),
    Message('note_on', channel=3, note=40, velocity=56, time=4),
    Message('note_off', channel=3, note=55, velocity=64, time=252),
    Message('note_on', channel=3, note=55, velocity=55, time=4),
    Message('note_off', channel=3, note=52, velocity=64, time=140),
    Message('note_off', channel=3, note=40, velocity=64, time=8),
    Message('note_off', channel=3, note=59, velocity=64, time=4),
    Message('note_off', channel=3, note=55, velocity=64, time=64),
    Message('note_on', channel=3, note=55, velocity=58, time=4),
    Message('note_on', channel=3, note=52, velocity=64, time=0),
    Message('note_on', channel=3, note=59, velocity=62, time=0),
    Message('note_off', channel=3, note=59, velocity=64, time=472),
    Message('note_off', channel=3, note=52, velocity=64, time=0),
    Message('note_off', channel=3, note=55, velocity=64, time=0),
    Message('note_on', channel=3, note=55, velocity=64, time=8),
    Message('note_on', channel=3, note=52, velocity=64, time=0),
    Message('note_on', channel=3, note=59, velocity=64, time=0),
    Message('note_off', channel=3, note=59, velocity=64, time=460),
    Message('note_off', channel=3, note=52, velocity=64, time=0),
    Message('note_off', channel=3, note=55, velocity=64, time=0),
    Message('note_on', channel=3, note=55, velocity=45, time=20),
    Message('note_on', channel=3, note=52, velocity=59, time=8),
    Message('note_on', channel=3, note=40, velocity=47, time=0),
    Message('note_on', channel=3, note=59, velocity=45, time=4),
    Message('note_on', channel=3, note=64, velocity=68, time=4),
    Message('note_off', channel=3, note=55, velocity=64, time=412),
    Message('note_off', channel=3, note=52, velocity=64, time=52),
    Message('note_on', channel=3, note=52, velocity=59, time=8),
    Message('note_on', channel=3, note=55, velocity=59, time=0),
    Message('note_off', channel=3, note=59, velocity=64, time=172),
    Message('note_off', channel=3, note=55, velocity=64, time=68),
    Message('note_off', channel=3, note=52, velocity=64, time=8),
    Message('note_on', channel=3, note=55, velocity=59, time=4),
    Message('note_on', channel=3, note=59, velocity=59, time=4),
    Message('note_off', channel=3, note=55, velocity=64, time=220),
    Message('note_on', channel=3, note=52, velocity=59, time=4),
    Message('note_on', channel=3, note=55, velocity=59, time=0),
    Message('note_off', channel=3, note=59, velocity=64, time=128),
    Message('note_off', channel=3, note=55, velocity=64, time=104),
    Message('note_on', channel=3, note=55, velocity=59, time=8),
    Message('note_off', channel=3, note=52, velocity=64, time=16),
    Message('note_on', channel=3, note=59, velocity=59, time=4),
    Message('note_off', channel=3, note=64, velocity=64, time=140),
    Message('note_off', channel=3, note=55, velocity=64, time=60),
    Message('note_off', channel=3, note=59, velocity=64, time=16),
    Message('note_off', channel=3, note=40, velocity=64, time=4),
    Message('note_on', channel=3, note=52, velocity=59, time=0),
    Message('note_on', channel=3, note=55, velocity=59, time=0),
    Message('note_on', channel=3, note=59, velocity=59, time=0),
    Message('note_on', channel=3, note=64, velocity=73, time=4),
    Message('note_on', channel=3, note=40, velocity=58, time=0),
    Message('note_off', channel=3, note=59, velocity=64, time=252),
    Message('note_off', channel=3, note=55, velocity=64, time=0),
    Message('note_off', channel=3, note=52, velocity=64, time=0),
    Message('note_on', channel=3, note=52, velocity=59, time=224),
    Message('note_on', channel=3, note=55, velocity=59, time=0),
    Message('note_on', channel=3, note=59, velocity=59, time=24),
    Message('note_off', channel=3, note=59, velocity=64, time=448),
    Message('note_off', channel=3, note=55, velocity=64, time=4),
    Message('note_off', channel=3, note=52, velocity=64, time=0),
    Message('note_on', channel=3, note=52, velocity=59, time=4),
    Message('note_on', channel=3, note=55, velocity=59, time=4),
    Message('note_on', channel=3, note=59, velocity=59, time=8),
    Message('note_off', channel=3, note=40, velocity=64, time=164),
    Message('note_off', channel=3, note=64, velocity=64, time=116),
    Message('note_off', channel=3, note=52, velocity=64, time=160),
    Message('note_off', channel=3, note=55, velocity=64, time=0),
    Message('note_off', channel=3, note=59, velocity=64, time=0),
    Message('note_on', channel=3, note=59, velocity=59, time=20),
    Message('note_on', channel=3, note=40, velocity=53, time=0),
    Message('note_on', channel=3, note=52, velocity=59, time=0),
    Message('note_on', channel=3, note=64, velocity=59, time=0),
    Message('note_off', channel=3, note=59, velocity=64, time=432),
    Message('note_on', channel=3, note=55, velocity=59, time=48),
    Message('note_on', channel=3, note=59, velocity=59, time=0),
    Message('note_off', channel=3, note=55, velocity=64, time=240),
    Message('note_off', channel=3, note=59, velocity=64, time=20),
    Message('note_on', channel=3, note=55, velocity=38, time=4),
    Message('note_on', channel=3, note=59, velocity=44, time=0),
    Message('note_off', channel=3, note=59, velocity=64, time=212),
    Message('note_off', channel=3, note=55, velocity=64, time=0),
    Message('note_on', channel=3, note=55, velocity=59, time=4),
    Message('note_on', channel=3, note=59, velocity=59, time=0),
    Message('note_off', channel=3, note=55, velocity=64, time=212),
    Message('note_off', channel=3, note=59, velocity=64, time=44),
    Message('note_on', channel=3, note=55, velocity=50, time=4),
    Message('note_off', channel=3, note=64, velocity=64, time=152),
    Message('note_off', channel=3, note=40, velocity=64, time=12),
    Message('note_off', channel=3, note=52, velocity=64, time=4),
    Message('note_off', channel=3, note=55, velocity=64, time=16),
    Message('note_on', channel=3, note=55, velocity=60, time=44),
    Message('note_on', channel=3, note=43, velocity=54, time=0),
    Message('note_on', channel=3, note=59, velocity=60, time=0),
    Message('note_on', channel=3, note=50, velocity=60, time=0),
    Message('note_off', channel=3, note=59, velocity=64, time=252),
    Message('note_off', channel=3, note=55, velocity=64, time=0),
    Message('note_on', channel=3, note=67, velocity=44, time=4),
    Message('note_on', channel=3, note=59, velocity=60, time=0),
    Message('note_off', channel=3, note=59, velocity=64, time=220),
    Message('note_off', channel=3, note=67, velocity=64, time=0),
    Message('note_on', channel=3, note=67, velocity=60, time=4),
    Message('note_on', channel=3, note=55, velocity=45, time=0),
    Message('note_on', channel=3, note=59, velocity=68, time=4),
    Message('note_off', channel=3, note=59, velocity=64, time=252),
    Message('note_off', channel=3, note=55, velocity=64, time=0),
    Message('note_off', channel=3, note=67, velocity=64, time=0),
    Message('note_on', channel=3, note=59, velocity=29, time=4),
    Message('note_on', channel=3, note=67, velocity=44, time=4),
    Message('note_off', channel=3, note=67, velocity=64, time=208),
    Message('note_off', channel=3, note=59, velocity=64, time=0),
    Message('note_on', channel=3, note=59, velocity=68, time=4),
    Message('note_on', channel=3, note=67, velocity=60, time=4),
    Message('note_on', channel=3, note=55, velocity=60, time=0),
    Message('note_off', channel=3, note=59, velocity=64, time=204),
    Message('note_off', channel=3, note=55, velocity=64, time=8),
    Message('note_off', channel=3, note=67, velocity=64, time=28),
    Message('note_on', channel=3, note=55, velocity=67, time=0),
    Message('note_on', channel=3, note=59, velocity=50, time=4),
    Message('note_off', channel=3, note=43, velocity=64, time=144),
    Message('note_off', channel=3, note=50, velocity=64, time=24),
    Message('note_off', channel=3, note=59, velocity=64, time=24),
    Message('note_off', channel=3, note=55, velocity=64, time=20),
    Message('note_on', channel=3, note=43, velocity=43, time=4),
    Message('note_on', channel=3, note=47, velocity=45, time=8),
    Message('note_on', channel=3, note=50, velocity=54, time=8),
    Message('note_on', channel=3, note=55, velocity=54, time=8),
    Message('note_on', channel=3, note=59, velocity=54, time=8),
    Message('note_on', channel=3, note=67, velocity=54, time=8),
    Message('note_off', channel=3, note=67, velocity=64, time=412),
    Message('note_off', channel=3, note=59, velocity=64, time=0),
    Message('note_off', channel=3, note=55, velocity=64, time=0),
    Message('note_off', channel=3, note=50, velocity=64, time=0),
    Message('note_off', channel=3, note=47, velocity=64, time=0),
    Message('note_off', channel=3, note=43, velocity=64, time=0),
    Message('note_on', channel=3, note=49, velocity=45, time=28),
    Message('note_on', channel=3, note=54, velocity=54, time=8),
    Message('note_on', channel=3, note=57, velocity=54, time=12),
    Message('note_on', channel=3, note=61, velocity=54, time=8),
    Message('note_on', channel=3, note=66, velocity=54, time=12),
    Message('note_off', channel=3, note=66, velocity=64, time=412),
    Message('note_off', channel=3, note=61, velocity=64, time=0),
    Message('note_off', channel=3, note=57, velocity=64, time=0),
    Message('note_off', channel=3, note=54, velocity=64, time=0),
    Message('note_off', channel=3, note=49, velocity=64, time=0),
    Message('note_on', channel=3, note=47, velocity=45, time=28),
    Message('note_on', channel=3, note=52, velocity=54, time=8),
    Message('note_on', channel=3, note=55, velocity=54, time=12),
    Message('note_on', channel=3, note=59, velocity=54, time=8),
    Message('note_on', channel=3, note=64, velocity=54, time=12),
    Message('note_off', channel=3, note=64, velocity=64, time=184),
    Message('note_off', channel=3, note=59, velocity=64, time=0),
    Message('note_off', channel=3, note=55, velocity=64, time=0),
    Message('note_off', channel=3, note=52, velocity=64, time=0),
    Message('note_off', channel=3, note=47, velocity=64, time=0),
    Message('note_on', channel=3, note=64, velocity=31, time=20),
    Message('note_on', channel=3, note=59, velocity=36, time=8),
    Message('note_on', channel=3, note=55, velocity=36, time=8),
    Message('note_on', channel=3, note=52, velocity=31, time=8),
    Message('note_on', channel=3, note=47, velocity=22, time=8),
    Message('note_on', channel=3, note=40, velocity=4, time=8),
    Message('note_off', channel=3, note=40, velocity=64, time=192),
    Message('note_off', channel=3, note=47, velocity=64, time=0),
    Message('note_off', channel=3, note=52, velocity=64, time=0),
    Message('note_off', channel=3, note=55, velocity=64, time=0),
    Message('note_off', channel=3, note=59, velocity=64, time=0),
    Message('note_off', channel=3, note=64, velocity=64, time=0),
    Message('note_on', channel=3, note=66, velocity=60, time=24),
    Message('note_on', channel=3, note=62, velocity=60, time=0),
    Message('note_on', channel=3, note=50, velocity=60, time=0),
    Message('note_off', channel=3, note=62, velocity=64, time=244),
    Message('note_off', channel=3, note=66, velocity=64, time=0),
    Message('note_on', channel=3, note=66, velocity=54, time=4),
    Message('note_on', channel=3, note=62, velocity=29, time=8),
    Message('note_off', channel=3, note=62, velocity=64, time=220),
    Message('note_off', channel=3, note=66, velocity=64, time=0),
    Message('note_on', channel=3, note=66, velocity=60, time=4),
    Message('note_on', channel=3, note=57, velocity=45, time=0),
    Message('note_on', channel=3, note=62, velocity=68, time=4),
    Message('note_off', channel=3, note=62, velocity=64, time=216),
    Message('note_off', channel=3, note=57, velocity=64, time=40),
    Message('note_on', channel=3, note=57, velocity=70, time=8),
    Message('note_on', channel=3, note=62, velocity=61, time=4),
    Message('note_off', channel=3, note=66, velocity=64, time=168),
    Message('note_off', channel=3, note=57, velocity=64, time=32),
    Message('note_off', channel=3, note=62, velocity=64, time=0),
    Message('note_on', channel=3, note=62, velocity=68, time=4),
    Message('note_on', channel=3, note=66, velocity=60, time=4),
    Message('note_on', channel=3, note=57, velocity=60, time=0),
    Message('note_off', channel=3, note=57, velocity=64, time=212),
    Message('note_on', channel=3, note=57, velocity=67, time=52),
    Message('note_off', channel=3, note=62, velocity=64, time=116),
    Message('note_off', channel=3, note=50, velocity=64, time=20),
    Message('note_off', channel=3, note=66, velocity=64, time=20),
    Message('note_off', channel=3, note=57, velocity=64, time=28),
    Message('note_on', channel=3, note=57, velocity=60, time=32),
    Message('note_on', channel=3, note=62, velocity=60, time=0),
    Message('note_on', channel=3, note=50, velocity=60, time=0),
    Message('note_off', channel=3, note=62, velocity=64, time=252),
    Message('note_off', channel=3, note=57, velocity=64, time=0),
    Message('note_on', channel=3, note=66, velocity=44, time=4),
    Message('note_on', channel=3, note=62, velocity=60, time=0),
    Message('note_off', channel=3, note=62, velocity=64, time=220),
    Message('note_off', channel=3, note=66, velocity=64, time=0),
    Message('note_on', channel=3, note=66, velocity=60, time=4),
    Message('note_on', channel=3, note=57, velocity=45, time=0),
    Message('note_on', channel=3, note=62, velocity=68, time=4),
    Message('note_off', channel=3, note=62, velocity=64, time=252),
    Message('note_off', channel=3, note=57, velocity=64, time=0),
    Message('note_off', channel=3, note=66, velocity=64, time=0),
    Message('note_on', channel=3, note=62, velocity=29, time=4),
    Message('note_on', channel=3, note=66, velocity=44, time=4),
    Message('note_off', channel=3, note=66, velocity=64, time=208),
    Message('note_off', channel=3, note=62, velocity=64, time=0),
    Message('note_on', channel=3, note=62, velocity=68, time=4),
    Message('note_on', channel=3, note=66, velocity=60, time=4),
    Message('note_on', channel=3, note=57, velocity=60, time=0),
    Message('note_off', channel=3, note=62, velocity=64, time=204),
    Message('note_off', channel=3, note=57, velocity=64, time=8),
    Message('note_off', channel=3, note=66, velocity=64, time=28),
    Message('note_on', channel=3, note=57, velocity=67, time=0),
    Message('note_on', channel=3, note=62, velocity=50, time=4),
    Message('note_off', channel=3, note=50, velocity=64, time=168),
    Message('note_off', channel=3, note=62, velocity=64, time=24),
    Message('note_off', channel=3, note=57, velocity=64, time=20),
    Message('note_on', channel=3, note=40, velocity=55, time=24),
    Message('note_on', channel=3, note=52, velocity=61, time=0),
    Message('note_on', channel=3, note=55, velocity=69, time=8),
    Message('note_on', channel=3, note=59, velocity=61, time=8),
    Message('note_on', channel=3, note=64, velocity=51, time=8),
    Message('note_off', channel=3, note=64, velocity=64, time=412),
    Message('note_off', channel=3, note=55, velocity=64, time=24),
    Message('note_on', channel=3, note=64, velocity=61, time=20),
    Message('note_on', channel=3, note=55, velocity=61, time=0),
    Message('note_off', channel=3, note=55, velocity=64, time=188),
    Message('note_off', channel=3, note=64, velocity=64, time=64),
    Message('note_on', channel=3, note=55, velocity=60, time=4),
    Message('note_off', channel=3, note=55, velocity=64, time=220),
    Message('note_on', channel=3, note=64, velocity=62, time=4),
    Message('note_on', channel=3, note=55, velocity=50, time=0),
    Message('note_off', channel=3, note=55, velocity=64, time=188),
    Message('note_off', channel=3, note=64, velocity=64, time=52),
    Message('note_on', channel=3, note=55, velocity=47, time=4),
    Message('note_on', channel=3, note=64, velocity=41, time=4),
    Message('note_off', channel=3, note=40, velocity=64, time=180),
    Message('note_off', channel=3, note=52, velocity=64, time=4),
    Message('note_off', channel=3, note=55, velocity=64, time=8),
    Message('note_off', channel=3, note=59, velocity=64, time=8),
    Message('note_off', channel=3, note=64, velocity=64, time=0),
    Message('note_on', channel=3, note=62, velocity=59, time=24),
    Message('note_on', channel=3, note=50, velocity=59, time=0),
    Message('note_on', channel=3, note=66, velocity=59, time=0),
    Message('note_off', channel=3, note=62, velocity=64, time=432),
    Message('note_on', channel=3, note=57, velocity=59, time=48),
    Message('note_on', channel=3, note=62, velocity=59, time=0),
    Message('note_off', channel=3, note=57, velocity=64, time=240),
    Message('note_off', channel=3, note=62, velocity=64, time=20),
    Message('note_on', channel=3, note=57, velocity=38, time=4),
    Message('note_on', channel=3, note=62, velocity=44, time=0),
    Message('note_off', channel=3, note=57, velocity=64, time=172),
    Message('note_off', channel=3, note=50, velocity=64, time=4),
    Message('note_off', channel=3, note=66, velocity=64, time=24),
    Message('note_off', channel=3, note=62, velocity=64, time=0),
    Message('note_on', channel=3, note=47, velocity=45, time=4),
    Message('note_on', channel=3, note=52, velocity=54, time=8),
    Message('note_on', channel=3, note=55, velocity=54, time=12),
    Message('note_on', channel=3, note=59, velocity=54, time=8),
    Message('note_on', channel=3, note=64, velocity=54, time=12),
    Message('note_off', channel=3, note=64, velocity=64, time=184),
    Message('note_off', channel=3, note=59, velocity=64, time=0),
    Message('note_off', channel=3, note=55, velocity=64, time=0),
    Message('note_off', channel=3, note=52, velocity=64, time=0),
    Message('note_off', channel=3, note=47, velocity=64, time=0),
    Message('note_on', channel=3, note=50, velocity=54, time=256),
    Message('note_on', channel=3, note=57, velocity=54, time=12),
    Message('note_on', channel=3, note=62, velocity=54, time=12),
    Message('note_on', channel=3, note=66, velocity=54, time=12),
    Message('note_off', channel=3, note=66, velocity=64, time=416),
    Message('note_off', channel=3, note=62, velocity=64, time=0),
    Message('note_off', channel=3, note=57, velocity=64, time=0),
    Message('note_off', channel=3, note=50, velocity=64, time=0),
    Message('note_on', channel=3, note=47, velocity=45, time=28),
    Message('note_on', channel=3, note=52, velocity=54, time=8),
    Message('note_on', channel=3, note=55, velocity=54, time=12),
    Message('note_on', channel=3, note=59, velocity=54, time=8),
    Message('note_on', channel=3, note=64, velocity=54, time=12),
    Message('note_off', channel=3, note=64, velocity=64, time=192),
    Message('note_off', channel=3, note=59, velocity=64, time=8),
    Message('note_on', channel=3, note=64, velocity=31, time=0),
    Message('note_off', channel=3, note=55, velocity=64, time=8),
    Message('note_on', channel=3, note=59, velocity=36, time=0),
    Message('note_off', channel=3, note=52, velocity=64, time=8),
    Message('note_on', channel=3, note=55, velocity=36, time=0),
    Message('note_off', channel=3, note=47, velocity=64, time=8),
    Message('note_on', channel=3, note=52, velocity=31, time=0),
    Message('note_on', channel=3, note=47, velocity=22, time=8),
    Message('note_on', channel=3, note=40, velocity=4, time=8),
    Message('note_off', channel=3, note=40, velocity=64, time=192),
    Message('note_off', channel=3, note=47, velocity=64, time=0),
    Message('note_off', channel=3, note=64, velocity=64, time=0),
    Message('note_off', channel=3, note=59, velocity=64, time=0),
    Message('note_off', channel=3, note=55, velocity=64, time=0),
    Message('note_off', channel=3, note=52, velocity=64, time=0),
    Message('note_on', channel=3, note=57, velocity=54, time=8),
    Message('note_on', channel=3, note=62, velocity=54, time=16),
    Message('note_on', channel=3, note=66, velocity=54, time=16),
    Message('note_off', channel=3, note=66, velocity=64, time=192),
    Message('note_off', channel=3, note=62, velocity=64, time=0),
    Message('note_off', channel=3, note=57, velocity=64, time=0),
    Message('note_on', channel=3, note=66, velocity=31, time=20),
    Message('note_on', channel=3, note=62, velocity=36, time=12),
    Message('note_on', channel=3, note=57, velocity=36, time=12),
    Message('note_on', channel=3, note=50, velocity=31, time=12),
    Message('note_off', channel=3, note=50, velocity=64, time=196),
    Message('note_off', channel=3, note=57, velocity=64, time=0),
    Message('note_off', channel=3, note=62, velocity=64, time=0),
    Message('note_off', channel=3, note=66, velocity=64, time=0),
    Message('note_on', channel=3, note=59, velocity=59, time=16),
    Message('note_on', channel=3, note=40, velocity=53, time=0),
    Message('note_on', channel=3, note=52, velocity=59, time=0),
    Message('note_on', channel=3, note=64, velocity=59, time=0),
    Message('note_off', channel=3, note=59, velocity=64, time=432),
    Message('note_on', channel=3, note=55, velocity=59, time=48),
    Message('note_on', channel=3, note=59, velocity=59, time=0),
    Message('note_off', channel=3, note=55, velocity=64, time=240),
    Message('note_off', channel=3, note=59, velocity=64, time=20),
    Message('note_on', channel=3, note=55, velocity=38, time=4),
    Message('note_on', channel=3, note=59, velocity=44, time=0),
    Message('note_off', channel=3, note=59, velocity=64, time=212),
    Message('note_off', channel=3, note=55, velocity=64, time=0),
    Message('note_on', channel=3, note=55, velocity=59, time=4),
    Message('note_on', channel=3, note=59, velocity=59, time=0),
    Message('note_off', channel=3, note=55, velocity=64, time=212),
    Message('note_off', channel=3, note=59, velocity=64, time=44),
    Message('note_on', channel=3, note=55, velocity=50, time=4),
    Message('note_off', channel=3, note=40, velocity=64, time=164),
    Message('note_off', channel=3, note=64, velocity=64, time=48),
    Message('note_off', channel=3, note=55, velocity=64, time=4),
    Message('note_on', channel=3, note=55, velocity=59, time=4),
    Message('note_on', channel=3, note=59, velocity=59, time=0),
    Message('note_on', channel=3, note=64, velocity=59, time=0),
    Message('note_on', channel=3, note=40, velocity=53, time=4),
    Message('note_off', channel=3, note=59, velocity=64, time=260),
    Message('note_off', channel=3, note=55, velocity=64, time=8),
    Message('note_off', channel=3, note=64, velocity=64, time=0),
    Message('note_on', channel=3, note=59, velocity=22, time=0),
    Message('note_on', channel=3, note=64, velocity=44, time=4),
    Message('note_off', channel=3, note=64, velocity=64, time=200),
    Message('note_off', channel=3, note=59, velocity=64, time=0),
    Message('note_on', channel=3, note=55, velocity=59, time=4),
    Message('note_on', channel=3, note=59, velocity=59, time=0),
    Message('note_on', channel=3, note=64, velocity=59, time=0),
    Message('note_off', channel=3, note=64, velocity=64, time=472),
    Message('note_off', channel=3, note=59, velocity=64, time=0),
    Message('note_off', channel=3, note=55, velocity=64, time=0),
    Message('note_on', channel=3, note=55, velocity=59, time=8),
    Message('note_on', channel=3, note=59, velocity=59, time=0),
    Message('note_on', channel=3, note=64, velocity=59, time=0),
    Message('note_off', channel=3, note=40, velocity=64, time=108),
    Message('note_off', channel=3, note=52, velocity=64, time=220),
    Message('note_off', channel=3, note=55, velocity=64, time=132),
    Message('note_off', channel=3, note=59, velocity=64, time=0),
    Message('note_off', channel=3, note=64, velocity=64, time=0),
    Message('note_on', channel=3, note=40, velocity=56, time=20),
    Message('note_on', channel=3, note=55, velocity=55, time=12),
    Message('note_on', channel=3, note=52, velocity=55, time=4),
    Message('note_on', channel=3, note=59, velocity=63, time=8),
    Message('note_off', channel=3, note=59, velocity=64, time=408),
    Message('note_off', channel=3, note=55, velocity=64, time=4),
    Message('note_on', channel=3, note=55, velocity=64, time=44),
    Message('note_on', channel=3, note=59, velocity=69, time=4),
    Message('note_off', channel=3, note=59, velocity=64, time=212),
    Message('note_off', channel=3, note=55, velocity=64, time=32),
    Message('note_on', channel=3, note=55, velocity=52, time=4),
    Message('note_on', channel=3, note=59, velocity=50, time=4),
    Message('note_off', channel=3, note=52, velocity=64, time=192),
    Message('note_off', channel=3, note=55, velocity=64, time=28),
    Message('note_off', channel=3, note=59, velocity=64, time=0),
    Message('note_on', channel=3, note=55, velocity=64, time=4),
    Message('note_on', channel=3, note=52, velocity=64, time=0),
    Message('note_on', channel=3, note=59, velocity=54, time=4),
    Message('note_off', channel=3, note=59, velocity=64, time=212),
    Message('note_off', channel=3, note=55, velocity=64, time=40),
    Message('note_on', channel=3, note=55, velocity=53, time=4),
    Message('note_on', channel=3, note=59, velocity=50, time=12),
    Message('note_off', channel=3, note=52, velocity=64, time=108),
    Message('note_off', channel=3, note=40, velocity=64, time=60),
    Message('note_off', channel=3, note=59, velocity=64, time=4),
    Message('note_off', channel=3, note=55, velocity=64, time=32),
    Message('note_on', channel=3, note=55, velocity=52, time=4),
    Message('note_on', channel=3, note=52, velocity=65, time=0),
    Message('note_on', channel=3, note=59, velocity=71, time=0),
    Message('note_on', channel=3, note=40, velocity=56, time=4),
    Message('note_off', channel=3, note=55, velocity=64, time=252),
    Message('note_on', channel=3, note=55, velocity=55, time=4),
    Message('note_off', channel=3, note=52, velocity=64, time=140),
    Message('note_off', channel=3, note=40, velocity=64, time=8),
    Message('note_off', channel=3, note=59, velocity=64, time=4),
    Message('note_off', channel=3, note=55, velocity=64, time=64),
    Message('note_on', channel=3, note=55, velocity=58, time=4),
    Message('note_on', channel=3, note=52, velocity=64, time=0),
    Message('note_on', channel=3, note=59, velocity=62, time=0),
    Message('note_off', channel=3, note=59, velocity=64, time=472),
    Message('note_off', channel=3, note=52, velocity=64, time=0),
    Message('note_off', channel=3, note=55, velocity=64, time=0),
    Message('note_on', channel=3, note=55, velocity=64, time=8),
    Message('note_on', channel=3, note=52, velocity=64, time=0),
    Message('note_on', channel=3, note=59, velocity=64, time=0),
    Message('note_off', channel=3, note=59, velocity=64, time=460),
    Message('note_off', channel=3, note=52, velocity=64, time=0),
    Message('note_off', channel=3, note=55, velocity=64, time=0),
    Message('note_on', channel=3, note=40, velocity=46, time=8),
    Message('note_on', channel=3, note=47, velocity=49, time=8),
    Message('note_on', channel=3, note=52, velocity=58, time=8),
    Message('note_on', channel=3, note=55, velocity=58, time=8),
    Message('note_on', channel=3, note=59, velocity=58, time=8),
    Message('note_on', channel=3, note=64, velocity=58, time=8),
    Message('note_off', channel=3, note=47, velocity=64, time=428),
    Message('note_off', channel=3, note=52, velocity=64, time=8),
    Message('note_on', channel=3, note=47, velocity=38, time=0),
    Message('note_on', channel=3, note=52, velocity=45, time=8),
    Message('note_off', channel=3, note=55, velocity=64, time=4),
    Message('note_on', channel=3, note=55, velocity=45, time=8),
    Message('note_off', channel=3, note=40, velocity=64, time=4),
    Message('note_off', channel=3, note=59, velocity=64, time=0),
    Message('note_off', channel=3, note=64, velocity=64, time=0),
    Message('note_on', channel=3, note=59, velocity=45, time=4),
    Message('note_on', channel=3, note=64, velocity=45, time=12),
    Message('note_off', channel=3, note=64, velocity=64, time=220),
    Message('note_on', channel=3, note=64, velocity=32, time=8),
    Message('note_off', channel=3, note=47, velocity=64, time=4),
    Message('note_off', channel=3, note=52, velocity=64, time=0),
    Message('note_off', channel=3, note=55, velocity=64, time=0),
    Message('note_off', channel=3, note=59, velocity=64, time=0),
    Message('note_on', channel=3, note=59, velocity=36, time=4),
    Message('note_on', channel=3, note=55, velocity=36, time=8),
    Message('note_on', channel=3, note=52, velocity=32, time=8),
    Message('note_on', channel=3, note=47, velocity=23, time=8),
    Message('note_on', channel=3, note=40, velocity=4, time=8),
    Message('note_off', channel=3, note=47, velocity=64, time=172),
    Message('note_off', channel=3, note=52, velocity=64, time=8),
    Message('note_on', channel=3, note=47, velocity=53, time=0),
    Message('note_on', channel=3, note=52, velocity=63, time=8),
    Message('note_off', channel=3, note=55, velocity=64, time=4),
    Message('note_off', channel=3, note=59, velocity=64, time=8),
    Message('note_on', channel=3, note=55, velocity=63, time=0),
    Message('note_on', channel=3, note=59, velocity=63, time=8),
    Message('note_off', channel=3, note=64, velocity=64, time=4),
    Message('note_on', channel=3, note=64, velocity=63, time=8),
    Message('note_off', channel=3, note=40, velocity=64, time=32),
    Message('note_off', channel=3, note=64, velocity=64, time=164),
    Message('note_off', channel=3, note=59, velocity=64, time=8),
    Message('note_on', channel=3, note=64, velocity=35, time=0),
    Message('note_on', channel=3, note=59, velocity=40, time=8),
    Message('note_off', channel=3, note=47, velocity=64, time=4),
    Message('note_off', channel=3, note=52, velocity=64, time=0),
    Message('note_off', channel=3, note=55, velocity=64, time=0),
    Message('note_on', channel=3, note=55, velocity=40, time=4),
    Message('note_on', channel=3, note=52, velocity=35, time=8),
    Message('note_on', channel=3, note=47, velocity=25, time=8),
    Message('note_on', channel=3, note=40, velocity=5, time=8),
    Message('note_off', channel=3, note=40, velocity=64, time=180),
    Message('note_off', channel=3, note=47, velocity=64, time=8),
    Message('note_on', channel=3, note=40, velocity=40, time=0),
    Message('note_off', channel=3, note=52, velocity=64, time=8),
    Message('note_on', channel=3, note=47, velocity=43, time=0),
    Message('note_off', channel=3, note=55, velocity=64, time=8),
    Message('note_on', channel=3, note=52, velocity=51, time=0),
    Message('note_off', channel=3, note=59, velocity=64, time=8),
    Message('note_on', channel=3, note=55, velocity=51, time=0),
    Message('note_off', channel=3, note=64, velocity=64, time=8),
    Message('note_on', channel=3, note=59, velocity=51, time=0),
    Message('note_on', channel=3, note=64, velocity=51, time=8),
    Message('note_off', channel=3, note=64, velocity=64, time=392),
    Message('note_off', channel=3, note=40, velocity=64, time=0),
    Message('note_off', channel=3, note=47, velocity=64, time=0),
    Message('note_off', channel=3, note=52, velocity=64, time=0),
    Message('note_off', channel=3, note=55, velocity=64, time=0),
    Message('note_off', channel=3, note=59, velocity=64, time=0),
    Message('note_on', channel=3, note=47, velocity=56, time=48),
    Message('note_on', channel=3, note=52, velocity=66, time=8),
    Message('note_on', channel=3, note=55, velocity=66, time=12),
    Message('note_on', channel=3, note=59, velocity=66, time=8),
    Message('note_on', channel=3, note=64, velocity=66, time=12),
    Message('note_off', channel=3, note=47, velocity=64, time=432),
    Message('note_off', channel=3, note=52, velocity=64, time=8),
    Message('note_on', channel=3, note=47, velocity=56, time=0),
    Message('note_on', channel=3, note=52, velocity=66, time=8),
    Message('note_off', channel=3, note=55, velocity=64, time=4),
    Message('note_on', channel=3, note=55, velocity=66, time=8),
    Message('note_off', channel=3, note=59, velocity=64, time=4),
    Message('note_off', channel=3, note=64, velocity=64, time=0),
    Message('note_on', channel=3, note=59, velocity=66, time=4),
    Message('note_on', channel=3, note=64, velocity=66, time=12),
    Message('note_off', channel=3, note=64, velocity=64, time=436),
    Message('note_off', channel=3, note=47, velocity=64, time=0),
    Message('note_off', channel=3, note=52, velocity=64, time=0),
    Message('note_off', channel=3, note=55, velocity=64, time=0),
    Message('note_off', channel=3, note=59, velocity=64, time=0),
    Message('note_on', channel=3, note=50, velocity=54, time=8),
    Message('note_on', channel=3, note=57, velocity=54, time=12),
    Message('note_on', channel=3, note=62, velocity=54, time=12),
    Message('note_on', channel=3, note=66, velocity=54, time=12),
    Message('note_off', channel=3, note=66, velocity=64, time=416),
    Message('note_off', channel=3, note=62, velocity=64, time=0),
    Message('note_off', channel=3, note=57, velocity=64, time=0),
    Message('note_off', channel=3, note=50, velocity=64, time=0),
    Message('note_on', channel=3, note=47, velocity=45, time=28),
    Message('note_on', channel=3, note=52, velocity=54, time=8),
    Message('note_on', channel=3, note=55, velocity=54, time=12),
    Message('note_on', channel=3, note=59, velocity=54, time=8),
    Message('note_on', channel=3, note=64, velocity=54, time=12),
    Message('note_off', channel=3, note=64, velocity=64, time=192),
    Message('note_off', channel=3, note=59, velocity=64, time=8),
    Message('note_on', channel=3, note=64, velocity=31, time=0),
    Message('note_off', channel=3, note=55, velocity=64, time=8),
    Message('note_on', channel=3, note=59, velocity=36, time=0),
    Message('note_off', channel=3, note=52, velocity=64, time=8),
    Message('note_on', channel=3, note=55, velocity=36, time=0),
    Message('note_off', channel=3, note=47, velocity=64, time=8),
    Message('note_on', channel=3, note=52, velocity=31, time=0),
    Message('note_on', channel=3, note=47, velocity=22, time=8),
    Message('note_on', channel=3, note=40, velocity=4, time=8),
    Message('note_off', channel=3, note=40, velocity=64, time=192),
    Message('note_off', channel=3, note=47, velocity=64, time=0),
    Message('note_off', channel=3, note=64, velocity=64, time=0),
    Message('note_off', channel=3, note=59, velocity=64, time=0),
    Message('note_off', channel=3, note=55, velocity=64, time=0),
    Message('note_off', channel=3, note=52, velocity=64, time=0),
    Message('note_on', channel=3, note=57, velocity=54, time=8),
    Message('note_on', channel=3, note=62, velocity=54, time=16),
    Message('note_on', channel=3, note=66, velocity=54, time=16),
    Message('note_off', channel=3, note=66, velocity=64, time=192),
    Message('note_off', channel=3, note=62, velocity=64, time=0),
    Message('note_off', channel=3, note=57, velocity=64, time=0),
    Message('note_on', channel=3, note=55, velocity=60, time=276),
    Message('note_on', channel=3, note=40, velocity=54, time=0),
    Message('note_on', channel=3, note=59, velocity=60, time=0),
    Message('note_on', channel=3, note=52, velocity=60, time=0),
    Message('note_off', channel=3, note=59, velocity=64, time=252),
    Message('note_off', channel=3, note=55, velocity=64, time=0),
    Message('note_on', channel=3, note=64, velocity=44, time=4),
    Message('note_on', channel=3, note=59, velocity=60, time=0),
    Message('note_off', channel=3, note=59, velocity=64, time=220),
    Message('note_off', channel=3, note=64, velocity=64, time=0),
    Message('note_on', channel=3, note=64, velocity=60, time=4),
    Message('note_on', channel=3, note=55, velocity=45, time=0),
    Message('note_on', channel=3, note=59, velocity=68, time=4),
    Message('note_off', channel=3, note=59, velocity=64, time=252),
    Message('note_off', channel=3, note=55, velocity=64, time=0),
    Message('note_off', channel=3, note=64, velocity=64, time=0),
    Message('note_on', channel=3, note=59, velocity=29, time=4),
    Message('note_on', channel=3, note=64, velocity=44, time=4),
    Message('note_off', channel=3, note=64, velocity=64, time=208),
    Message('note_off', channel=3, note=59, velocity=64, time=0),
    Message('note_on', channel=3, note=59, velocity=68, time=4),
    Message('note_on', channel=3, note=64, velocity=60, time=4),
    Message('note_on', channel=3, note=55, velocity=60, time=0),
    Message('note_off', channel=3, note=59, velocity=64, time=204),
    Message('note_off', channel=3, note=55, velocity=64, time=8),
    Message('note_off', channel=3, note=64, velocity=64, time=28),
    Message('note_on', channel=3, note=55, velocity=67, time=0),
    Message('note_on', channel=3, note=59, velocity=50, time=4),
    Message('note_off', channel=3, note=40, velocity=64, time=144),
    Message('note_off', channel=3, note=52, velocity=64, time=24),
    Message('note_off', channel=3, note=59, velocity=64, time=24),
    Message('note_off', channel=3, note=55, velocity=64, time=20),
    Message('note_on', channel=3, note=55, velocity=45, time=16),
    Message('note_on', channel=3, note=52, velocity=59, time=8),
    Message('note_on', channel=3, note=40, velocity=47, time=0),
    Message('note_on', channel=3, note=59, velocity=45, time=4),
    Message('note_on', channel=3, note=64, velocity=68, time=4),
    Message('note_off', channel=3, note=55, velocity=64, time=412),
    Message('note_off', channel=3, note=52, velocity=64, time=52),
    Message('note_on', channel=3, note=52, velocity=59, time=8),
    Message('note_on', channel=3, note=55, velocity=59, time=0),
    Message('note_off', channel=3, note=59, velocity=64, time=172),
    Message('note_off', channel=3, note=55, velocity=64, time=68),
    Message('note_off', channel=3, note=52, velocity=64, time=8),
    Message('note_on', channel=3, note=55, velocity=59, time=4),
    Message('note_on', channel=3, note=59, velocity=59, time=4),
    Message('note_off', channel=3, note=55, velocity=64, time=220),
    Message('note_on', channel=3, note=52, velocity=59, time=4),
    Message('note_on', channel=3, note=55, velocity=59, time=0),
    Message('note_off', channel=3, note=59, velocity=64, time=128),
    Message('note_off', channel=3, note=55, velocity=64, time=104),
    Message('note_on', channel=3, note=55, velocity=59, time=8),
    Message('note_off', channel=3, note=52, velocity=64, time=16),
    Message('note_on', channel=3, note=59, velocity=59, time=4),
    Message('note_off', channel=3, note=64, velocity=64, time=140),
    Message('note_off', channel=3, note=40, velocity=64, time=40),
    Message('note_off', channel=3, note=55, velocity=64, time=0),
    Message('note_off', channel=3, note=59, velocity=64, time=12),
    Message('note_on', channel=3, note=43, velocity=46, time=8),
    Message('note_on', channel=3, note=47, velocity=49, time=8),
    Message('note_on', channel=3, note=50, velocity=58, time=8),
    Message('note_on', channel=3, note=55, velocity=58, time=8),
    Message('note_on', channel=3, note=59, velocity=58, time=8),
    Message('note_on', channel=3, note=67, velocity=58, time=8),
    Message('note_off', channel=3, note=47, velocity=64, time=428),
    Message('note_off', channel=3, note=50, velocity=64, time=8),
    Message('note_on', channel=3, note=47, velocity=38, time=0),
    Message('note_on', channel=3, note=50, velocity=45, time=8),
    Message('note_off', channel=3, note=55, velocity=64, time=4),
    Message('note_on', channel=3, note=55, velocity=45, time=8),
    Message('note_off', channel=3, note=43, velocity=64, time=4),
    Message('note_off', channel=3, note=59, velocity=64, time=0),
    Message('note_off', channel=3, note=67, velocity=64, time=0),
    Message('note_on', channel=3, note=59, velocity=45, time=4),
    Message('note_on', channel=3, note=67, velocity=45, time=12),
    Message('note_off', channel=3, note=67, velocity=64, time=220),
    Message('note_on', channel=3, note=67, velocity=32, time=8),
    Message('note_off', channel=3, note=47, velocity=64, time=4),
    Message('note_off', channel=3, note=50, velocity=64, time=0),
    Message('note_off', channel=3, note=55, velocity=64, time=0),
    Message('note_off', channel=3, note=59, velocity=64, time=0),
    Message('note_on', channel=3, note=59, velocity=36, time=4),
    Message('note_on', channel=3, note=55, velocity=36, time=8),
    Message('note_on', channel=3, note=50, velocity=32, time=8),
    Message('note_on', channel=3, note=47, velocity=23, time=8),
    Message('note_on', channel=3, note=43, velocity=4, time=8),
    Message('note_off', channel=3, note=47, velocity=64, time=172),
    Message('note_off', channel=3, note=50, velocity=64, time=8),
    Message('note_on', channel=3, note=47, velocity=53, time=0),
    Message('note_on', channel=3, note=50, velocity=63, time=8),
    Message('note_off', channel=3, note=55, velocity=64, time=4),
    Message('note_off', channel=3, note=59, velocity=64, time=8),
    Message('note_on', channel=3, note=55, velocity=63, time=0),
    Message('note_on', channel=3, note=59, velocity=63, time=8),
    Message('note_off', channel=3, note=67, velocity=64, time=4),
    Message('note_on', channel=3, note=67, velocity=63, time=8),
    Message('note_off', channel=3, note=43, velocity=64, time=32),
    Message('note_off', channel=3, note=67, velocity=64, time=164),
    Message('note_off', channel=3, note=59, velocity=64, time=8),
    Message('note_on', channel=3, note=67, velocity=35, time=0),
    Message('note_on', channel=3, note=59, velocity=40, time=8),
    Message('note_off', channel=3, note=47, velocity=64, time=4),
    Message('note_off', channel=3, note=50, velocity=64, time=0),
    Message('note_off', channel=3, note=55, velocity=64, time=0),
    Message('note_on', channel=3, note=55, velocity=40, time=4),
    Message('note_on', channel=3, note=50, velocity=35, time=8),
    Message('note_on', channel=3, note=47, velocity=25, time=8),
    Message('note_on', channel=3, note=43, velocity=5, time=8),
    Message('note_off', channel=3, note=43, velocity=64, time=184),
    Message('note_off', channel=3, note=47, velocity=64, time=0),
    Message('note_off', channel=3, note=50, velocity=64, time=0),
    Message('note_off', channel=3, note=67, velocity=64, time=0),
    Message('note_off', channel=3, note=59, velocity=64, time=0),
    Message('note_off', channel=3, note=55, velocity=64, time=0),
    Message('note_on', channel=3, note=64, velocity=60, time=28),
    Message('note_on', channel=3, note=40, velocity=54, time=0),
    Message('note_on', channel=3, note=59, velocity=60, time=0),
    Message('note_on', channel=3, note=52, velocity=60, time=0),
    Message('note_off', channel=3, note=59, velocity=64, time=244),
    Message('note_off', channel=3, note=64, velocity=64, time=0),
    Message('note_on', channel=3, note=64, velocity=54, time=4),
    Message('note_on', channel=3, note=59, velocity=29, time=8),
    Message('note_off', channel=3, note=59, velocity=64, time=220),
    Message('note_off', channel=3, note=64, velocity=64, time=0),
    Message('note_on', channel=3, note=64, velocity=60, time=4),
    Message('note_on', channel=3, note=55, velocity=45, time=0),
    Message('note_on', channel=3, note=59, velocity=68, time=4),
    Message('note_off', channel=3, note=59, velocity=64, time=216),
    Message('note_off', channel=3, note=55, velocity=64, time=40),
    Message('note_on', channel=3, note=55, velocity=70, time=8),
    Message('note_on', channel=3, note=59, velocity=61, time=4),
    Message('note_off', channel=3, note=64, velocity=64, time=168),
    Message('note_off', channel=3, note=55, velocity=64, time=32),
    Message('note_off', channel=3, note=59, velocity=64, time=0),
    Message('note_on', channel=3, note=59, velocity=68, time=4),
    Message('note_on', channel=3, note=64, velocity=60, time=4),
    Message('note_on', channel=3, note=55, velocity=60, time=0),
    Message('note_off', channel=3, note=55, velocity=64, time=212),
    Message('note_on', channel=3, note=55, velocity=67, time=52),
    Message('note_off', channel=3, note=59, velocity=64, time=116),
    Message('note_off', channel=3, note=52, velocity=64, time=20),
    Message('note_off', channel=3, note=40, velocity=64, time=16),
    Message('note_off', channel=3, note=64, velocity=64, time=4),
    Message('note_off', channel=3, note=55, velocity=64, time=28),
    Message('note_on', channel=3, note=43, velocity=43, time=12),
    Message('note_on', channel=3, note=47, velocity=45, time=8),
    Message('note_on', channel=3, note=50, velocity=54, time=8),
    Message('note_on', channel=3, note=55, velocity=54, time=8),
    Message('note_on', channel=3, note=59, velocity=54, time=8),
    Message('note_on', channel=3, note=67, velocity=54, time=8),
    Message('note_off', channel=3, note=67, velocity=64, time=412),
    Message('note_off', channel=3, note=59, velocity=64, time=0),
    Message('note_off', channel=3, note=55, velocity=64, time=0),
    Message('note_off', channel=3, note=50, velocity=64, time=0),
    Message('note_off', channel=3, note=47, velocity=64, time=0),
    Message('note_off', channel=3, note=43, velocity=64, time=0),
    Message('note_on', channel=3, note=52, velocity=54, time=28),
    Message('note_on', channel=3, note=57, velocity=54, time=12),
    Message('note_on', channel=3, note=61, velocity=54, time=12),
    Message('note_on', channel=3, note=64, velocity=54, time=12),
    Message('note_off', channel=3, note=64, velocity=64, time=196),
    Message('note_off', channel=3, note=61, velocity=64, time=8),
    Message('note_on', channel=3, note=64, velocity=31, time=0),
    Message('note_on', channel=3, note=61, velocity=36, time=8),
    Message('note_off', channel=3, note=57, velocity=64, time=4),
    Message('note_on', channel=3, note=57, velocity=36, time=8),
    Message('note_off', channel=3, note=52, velocity=64, time=4),
    Message('note_on', channel=3, note=52, velocity=31, time=4),
    Message('note_on', channel=3, note=45, velocity=22, time=12),
    Message('note_off', channel=3, note=45, velocity=64, time=192),
    Message('note_off', channel=3, note=64, velocity=64, time=0),
    Message('note_off', channel=3, note=61, velocity=64, time=0),
    Message('note_off', channel=3, note=57, velocity=64, time=0),
    Message('note_off', channel=3, note=52, velocity=64, time=0),
    Message('note_on', channel=3, note=52, velocity=54, time=8),
    Message('note_on', channel=3, note=57, velocity=54, time=12),
    Message('note_on', channel=3, note=61, velocity=54, time=12),
    Message('note_on', channel=3, note=64, velocity=54, time=12),
    Message('note_off', channel=3, note=64, velocity=64, time=188),
    Message('note_off', channel=3, note=61, velocity=64, time=0),
    Message('note_off', channel=3, note=57, velocity=64, time=0),
    Message('note_off', channel=3, note=52, velocity=64, time=0),
    Message('note_on', channel=3, note=64, velocity=61, time=276),
    Message('note_on', channel=3, note=40, velocity=55, time=0),
    Message('note_on', channel=3, note=59, velocity=61, time=0),
    Message('note_on', channel=3, note=52, velocity=61, time=0),
    Message('note_off', channel=3, note=64, velocity=64, time=432),
    Message('note_on', channel=3, note=64, velocity=61, time=48),
    Message('note_on', channel=3, note=55, velocity=61, time=0),
    Message('note_off', channel=3, note=55, velocity=64, time=240),
    Message('note_off', channel=3, note=64, velocity=64, time=20),
    Message('note_on', channel=3, note=55, velocity=47, time=4),
    Message('note_on', channel=3, note=64, velocity=63, time=4),
    Message('note_off', channel=3, note=64, velocity=64, time=208),
    Message('note_off', channel=3, note=55, velocity=64, time=0),
    Message('note_on', channel=3, note=64, velocity=61, time=4),
    Message('note_on', channel=3, note=55, velocity=61, time=0),
    Message('note_off', channel=3, note=55, velocity=64, time=240),
    Message('note_off', channel=3, note=64, velocity=64, time=16),
    Message('note_on', channel=3, note=55, velocity=60, time=4),
    Message('note_off', channel=3, note=59, velocity=64, time=212),
    Message('note_off', channel=3, note=55, velocity=64, time=4),
    Message('note_on', channel=3, note=64, velocity=61, time=4),
    Message('note_on', channel=3, note=55, velocity=61, time=0),
    Message('note_on', channel=3, note=59, velocity=61, time=0),
    Message('note_off', channel=3, note=64, velocity=64, time=248),
    Message('note_on', channel=3, note=64, velocity=44, time=4),
    Message('note_off', channel=3, note=55, velocity=64, time=176),
    Message('note_off', channel=3, note=59, velocity=64, time=4),
    Message('note_off', channel=3, note=64, velocity=64, time=44),
    Message('note_on', channel=3, note=64, velocity=61, time=4),
    Message('note_on', channel=3, note=55, velocity=61, time=0),
    Message('note_on', channel=3, note=59, velocity=61, time=0),
    Message('note_off', channel=3, note=59, velocity=64, time=472),
    Message('note_off', channel=3, note=55, velocity=64, time=0),
    Message('note_off', channel=3, note=64, velocity=64, time=0),
    Message('note_on', channel=3, note=64, velocity=61, time=8),
    Message('note_on', channel=3, note=55, velocity=61, time=0),
    Message('note_on', channel=3, note=59, velocity=61, time=0),
    Message('note_off', channel=3, note=59, velocity=64, time=452),
    Message('note_off', channel=3, note=55, velocity=64, time=0),
    Message('note_off', channel=3, note=40, velocity=64, time=0),
    Message('note_off', channel=3, note=52, velocity=64, time=0),
    Message('note_off', channel=3, note=64, velocity=64, time=0),
    Message('note_on', channel=3, note=64, velocity=60, time=28),
    Message('note_on', channel=3, note=40, velocity=54, time=0),
    Message('note_on', channel=3, note=59, velocity=60, time=0),
    Message('note_on', channel=3, note=52, velocity=60, time=0),
    Message('note_off', channel=3, note=59, velocity=64, time=244),
    Message('note_off', channel=3, note=64, velocity=64, time=0),
    Message('note_on', channel=3, note=64, velocity=54, time=4),
    Message('note_on', channel=3, note=59, velocity=29, time=8),
    Message('note_off', channel=3, note=59, velocity=64, time=220),
    Message('note_off', channel=3, note=64, velocity=64, time=0),
    Message('note_on', channel=3, note=64, velocity=60, time=4),
    Message('note_on', channel=3, note=55, velocity=45, time=0),
    Message('note_on', channel=3, note=59, velocity=68, time=4),
    Message('note_off', channel=3, note=59, velocity=64, time=216),
    Message('note_off', channel=3, note=55, velocity=64, time=40),
    Message('note_on', channel=3, note=55, velocity=70, time=8),
    Message('note_on', channel=3, note=59, velocity=61, time=4),
    Message('note_off', channel=3, note=64, velocity=64, time=168),
    Message('note_off', channel=3, note=55, velocity=64, time=32),
    Message('note_off', channel=3, note=59, velocity=64, time=0),
    Message('note_on', channel=3, note=59, velocity=68, time=4),
    Message('note_on', channel=3, note=64, velocity=60, time=4),
    Message('note_on', channel=3, note=55, velocity=60, time=0),
    Message('note_off', channel=3, note=55, velocity=64, time=212),
    Message('note_on', channel=3, note=55, velocity=67, time=52),
    Message('note_off', channel=3, note=59, velocity=64, time=116),
    Message('note_off', channel=3, note=52, velocity=64, time=20),
    Message('note_off', channel=3, note=40, velocity=64, time=16),
    Message('note_off', channel=3, note=64, velocity=64, time=4),
    Message('note_off', channel=3, note=55, velocity=64, time=48),
    Message('note_on', channel=3, note=52, velocity=68, time=4),
    Message('note_on', channel=3, note=64, velocity=60, time=8),
    Message('note_on', channel=3, note=55, velocity=60, time=0),
    Message('note_on', channel=3, note=59, velocity=60, time=0),
    Message('note_on', channel=3, note=40, velocity=54, time=4),
    Message('note_off', channel=3, note=55, velocity=64, time=208),
    Message('note_off', channel=3, note=64, velocity=64, time=40),
    Message('note_off', channel=3, note=59, velocity=64, time=0),
    Message('note_on', channel=3, note=55, velocity=57, time=4),
    Message('note_on', channel=3, note=59, velocity=68, time=0),
    Message('note_off', channel=3, note=59, velocity=64, time=220),
    Message('note_off', channel=3, note=55, velocity=64, time=0),
    Message('note_on', channel=3, note=64, velocity=60, time=4),
    Message('note_on', channel=3, note=55, velocity=60, time=0),
    Message('note_on', channel=3, note=59, velocity=60, time=0),
    Message('note_off', channel=3, note=52, velocity=64, time=408),
    Message('note_off', channel=3, note=64, velocity=64, time=28),
    Message('note_off', channel=3, note=55, velocity=64, time=0),
    Message('note_off', channel=3, note=59, velocity=64, time=0),
    Message('note_on', channel=3, note=64, velocity=60, time=44),
    Message('note_on', channel=3, note=55, velocity=60, time=0),
    Message('note_on', channel=3, note=59, velocity=60, time=0),
    Message('note_on', channel=3, note=52, velocity=68, time=4),
    Message('note_off', channel=3, note=59, velocity=64, time=220),
    Message('note_off', channel=3, note=64, velocity=64, time=0),
    Message('note_on', channel=3, note=64, velocity=48, time=24),
    Message('note_on', channel=3, note=59, velocity=57, time=0),
    Message('note_off', channel=3, note=40, velocity=64, time=64),
    Message('note_off', channel=3, note=55, velocity=64, time=140),
    Message('note_off', channel=3, note=52, velocity=64, time=0),
    Message('note_off', channel=3, note=64, velocity=64, time=0),
    Message('note_off', channel=3, note=59, velocity=64, time=0),
    Message('note_on', channel=3, note=40, velocity=55, time=28),
    Message('note_on', channel=3, note=52, velocity=61, time=0),
    Message('note_on', channel=3, note=55, velocity=69, time=8),
    Message('note_on', channel=3, note=59, velocity=61, time=8),
    Message('note_on', channel=3, note=64, velocity=51, time=8),
    Message('note_off', channel=3, note=64, velocity=64, time=412),
    Message('note_off', channel=3, note=55, velocity=64, time=24),
    Message('note_on', channel=3, note=64, velocity=61, time=20),
    Message('note_on', channel=3, note=55, velocity=61, time=0),
    Message('note_off', channel=3, note=55, velocity=64, time=188),
    Message('note_off', channel=3, note=64, velocity=64, time=64),
    Message('note_on', channel=3, note=55, velocity=60, time=4),
    Message('note_off', channel=3, note=55, velocity=64, time=220),
    Message('note_on', channel=3, note=64, velocity=62, time=4),
    Message('note_on', channel=3, note=55, velocity=50, time=0),
    Message('note_off', channel=3, note=55, velocity=64, time=188),
    Message('note_off', channel=3, note=64, velocity=64, time=52),
    Message('note_on', channel=3, note=55, velocity=47, time=4),
    Message('note_on', channel=3, note=64, velocity=41, time=4),
    Message('note_off', channel=3, note=40, velocity=64, time=180),
    Message('note_off', channel=3, note=52, velocity=64, time=4),
    Message('note_off', channel=3, note=55, velocity=64, time=8),
    Message('note_off', channel=3, note=59, velocity=64, time=8),
    Message('note_off', channel=3, note=64, velocity=64, time=0),
    Message('note_on', channel=3, note=43, velocity=55, time=32),
    Message('note_on', channel=3, note=50, velocity=61, time=0),
    Message('note_on', channel=3, note=55, velocity=69, time=8),
    Message('note_on', channel=3, note=59, velocity=61, time=8),
    Message('note_on', channel=3, note=67, velocity=51, time=8),
    Message('note_off', channel=3, note=67, velocity=64, time=412),
    Message('note_off', channel=3, note=55, velocity=64, time=24),
    Message('note_on', channel=3, note=67, velocity=61, time=20),
    Message('note_on', channel=3, note=55, velocity=61, time=0),
    Message('note_off', channel=3, note=55, velocity=64, time=188),
    Message('note_off', channel=3, note=67, velocity=64, time=64),
    Message('note_on', channel=3, note=55, velocity=60, time=4),
    Message('note_off', channel=3, note=55, velocity=64, time=220),
    Message('note_on', channel=3, note=67, velocity=62, time=4),
    Message('note_on', channel=3, note=55, velocity=50, time=0),
    Message('note_off', channel=3, note=55, velocity=64, time=188),
    Message('note_off', channel=3, note=67, velocity=64, time=52),
    Message('note_on', channel=3, note=55, velocity=47, time=4),
    Message('note_on', channel=3, note=67, velocity=41, time=4),
    Message('note_off', channel=3, note=43, velocity=64, time=180),
    Message('note_off', channel=3, note=50, velocity=64, time=4),
    Message('note_off', channel=3, note=55, velocity=64, time=8),
    Message('note_off', channel=3, note=59, velocity=64, time=8),
    Message('note_off', channel=3, note=67, velocity=64, time=0),
    Message('note_on', channel=3, note=43, velocity=43, time=12),
    Message('note_on', channel=3, note=47, velocity=45, time=8),
    Message('note_on', channel=3, note=50, velocity=54, time=8),
    Message('note_on', channel=3, note=55, velocity=54, time=8),
    Message('note_on', channel=3, note=59, velocity=54, time=8),
    Message('note_on', channel=3, note=67, velocity=54, time=8),
    Message('note_off', channel=3, note=67, velocity=64, time=412),
    Message('note_off', channel=3, note=59, velocity=64, time=0),
    Message('note_off', channel=3, note=55, velocity=64, time=0),
    Message('note_off', channel=3, note=50, velocity=64, time=0),
    Message('note_off', channel=3, note=47, velocity=64, time=0),
    Message('note_off', channel=3, note=43, velocity=64, time=0),
    Message('note_on', channel=3, note=49, velocity=45, time=28),
    Message('note_on', channel=3, note=54, velocity=54, time=8),
    Message('note_on', channel=3, note=57, velocity=54, time=12),
    Message('note_on', channel=3, note=61, velocity=54, time=8),
    Message('note_on', channel=3, note=66, velocity=54, time=12),
    Message('note_off', channel=3, note=66, velocity=64, time=192),
    Message('note_off', channel=3, note=61, velocity=64, time=8),
    Message('note_on', channel=3, note=66, velocity=31, time=0),
    Message('note_off', channel=3, note=57, velocity=64, time=8),
    Message('note_on', channel=3, note=61, velocity=36, time=0),
    Message('note_off', channel=3, note=54, velocity=64, time=8),
    Message('note_on', channel=3, note=57, velocity=36, time=0),
    Message('note_off', channel=3, note=49, velocity=64, time=8),
    Message('note_on', channel=3, note=54, velocity=31, time=0),
    Message('note_on', channel=3, note=49, velocity=22, time=8),
    Message('note_on', channel=3, note=42, velocity=4, time=8),
    Message('note_off', channel=3, note=42, velocity=64, time=192),
    Message('note_off', channel=3, note=49, velocity=64, time=0),
    Message('note_off', channel=3, note=66, velocity=64, time=0),
    Message('note_off', channel=3, note=61, velocity=64, time=0),
    Message('note_off', channel=3, note=57, velocity=64, time=0),
    Message('note_off', channel=3, note=54, velocity=64, time=0),
    Message('note_on', channel=3, note=47, velocity=45, time=8),
    Message('note_on', channel=3, note=52, velocity=54, time=8),
    Message('note_on', channel=3, note=55, velocity=54, time=12),
    Message('note_on', channel=3, note=59, velocity=54, time=8),
    Message('note_on', channel=3, note=64, velocity=54, time=12),
    Message('note_off', channel=3, note=64, velocity=64, time=184),
    Message('note_off', channel=3, note=59, velocity=64, time=0),
    Message('note_off', channel=3, note=55, velocity=64, time=0),
    Message('note_off', channel=3, note=52, velocity=64, time=0),
    Message('note_off', channel=3, note=47, velocity=64, time=0),
    Message('note_on', channel=3, note=64, velocity=31, time=20),
    Message('note_on', channel=3, note=59, velocity=36, time=8),
    Message('note_on', channel=3, note=55, velocity=36, time=8),
    Message('note_on', channel=3, note=52, velocity=31, time=8),
    Message('note_on', channel=3, note=47, velocity=22, time=8),
    Message('note_on', channel=3, note=40, velocity=4, time=8),
    Message('note_off', channel=3, note=40, velocity=64, time=192),
    Message('note_off', channel=3, note=47, velocity=64, time=0),
    Message('note_off', channel=3, note=52, velocity=64, time=0),
    Message('note_off', channel=3, note=55, velocity=64, time=0),
    Message('note_off', channel=3, note=59, velocity=64, time=0),
    Message('note_off', channel=3, note=64, velocity=64, time=0),
    Message('note_on', channel=3, note=50, velocity=58, time=4),
    Message('note_on', channel=3, note=57, velocity=58, time=12),
    Message('note_on', channel=3, note=62, velocity=58, time=12),
    Message('note_on', channel=3, note=66, velocity=58, time=12),
    Message('note_off', channel=3, note=57, velocity=64, time=432),
    Message('note_on', channel=3, note=57, velocity=45, time=8),
    Message('note_off', channel=3, note=62, velocity=64, time=8),
    Message('note_on', channel=3, note=62, velocity=45, time=8),
    Message('note_off', channel=3, note=50, velocity=64, time=8),
    Message('note_off', channel=3, note=66, velocity=64, time=0),
    Message('note_on', channel=3, note=66, velocity=45, time=8),
    Message('note_off', channel=3, note=66, velocity=64, time=228),
    Message('note_on', channel=3, note=66, velocity=32, time=8),
    Message('note_off', channel=3, note=57, velocity=64, time=4),
    Message('note_off', channel=3, note=62, velocity=64, time=0),
    Message('note_on', channel=3, note=62, velocity=36, time=8),
    Message('note_on', channel=3, note=57, velocity=36, time=12),
    Message('note_on', channel=3, note=50, velocity=32, time=12),
    Message('note_off', channel=3, note=57, velocity=64, time=176),
    Message('note_on', channel=3, note=57, velocity=63, time=8),
    Message('note_off', channel=3, note=62, velocity=64, time=8),
    Message('note_on', channel=3, note=62, velocity=63, time=8),
    Message('note_off', channel=3, note=66, velocity=64, time=8),
    Message('note_on', channel=3, note=66, velocity=63, time=8),
    Message('note_off', channel=3, note=50, velocity=64, time=40),
    Message('note_off', channel=3, note=66, velocity=64, time=164),
    Message('note_on', channel=3, note=66, velocity=35, time=8),
    Message('note_off', channel=3, note=62, velocity=64, time=4),
    Message('note_off', channel=3, note=57, velocity=64, time=8),
    Message('note_on', channel=3, note=62, velocity=40, time=0),
    Message('note_on', channel=3, note=57, velocity=40, time=12),
    Message('note_on', channel=3, note=50, velocity=35, time=12),
    Message('note_off', channel=3, note=50, velocity=64, time=188),
    Message('note_off', channel=3, note=57, velocity=64, time=0),
    Message('note_off', channel=3, note=66, velocity=64, time=0),
    Message('note_off', channel=3, note=62, velocity=64, time=0),
    Message('note_on', channel=3, note=50, velocity=58, time=8),
    Message('note_on', channel=3, note=57, velocity=58, time=12),
    Message('note_on', channel=3, note=62, velocity=58, time=12),
    Message('note_on', channel=3, note=66, velocity=58, time=12),
    Message('note_off', channel=3, note=57, velocity=64, time=432),
    Message('note_on', channel=3, note=57, velocity=45, time=8),
    Message('note_off', channel=3, note=62, velocity=64, time=8),
    Message('note_on', channel=3, note=62, velocity=45, time=8),
    Message('note_off', channel=3, note=50, velocity=64, time=8),
    Message('note_off', channel=3, note=66, velocity=64, time=0),
    Message('note_on', channel=3, note=66, velocity=45, time=8),
    Message('note_off', channel=3, note=66, velocity=64, time=228),
    Message('note_on', channel=3, note=66, velocity=32, time=8),
    Message('note_off', channel=3, note=57, velocity=64, time=4),
    Message('note_off', channel=3, note=62, velocity=64, time=0),
    Message('note_on', channel=3, note=62, velocity=36, time=8),
    Message('note_on', channel=3, note=57, velocity=36, time=12),
    Message('note_on', channel=3, note=50, velocity=32, time=12),
    Message('note_off', channel=3, note=57, velocity=64, time=176),
    Message('note_on', channel=3, note=57, velocity=63, time=8),
    Message('note_off', channel=3, note=62, velocity=64, time=8),
    Message('note_on', channel=3, note=62, velocity=63, time=8),
    Message('note_off', channel=3, note=66, velocity=64, time=8),
    Message('note_on', channel=3, note=66, velocity=63, time=8),
    Message('note_off', channel=3, note=50, velocity=64, time=40),
    Message('note_off', channel=3, note=66, velocity=64, time=164),
    Message('note_on', channel=3, note=66, velocity=35, time=8),
    Message('note_off', channel=3, note=62, velocity=64, time=4),
    Message('note_off', channel=3, note=57, velocity=64, time=8),
    Message('note_on', channel=3, note=62, velocity=40, time=0),
    Message('note_on', channel=3, note=57, velocity=40, time=12),
    Message('note_on', channel=3, note=50, velocity=35, time=12),
    Message('note_off', channel=3, note=50, velocity=64, time=188),
    Message('note_off', channel=3, note=57, velocity=64, time=0),
    Message('note_off', channel=3, note=66, velocity=64, time=0),
    Message('note_off', channel=3, note=62, velocity=64, time=0),
    Message('note_on', channel=3, note=40, velocity=46, time=8),
    Message('note_on', channel=3, note=47, velocity=49, time=8),
    Message('note_on', channel=3, note=52, velocity=58, time=8),
    Message('note_on', channel=3, note=55, velocity=58, time=8),
    Message('note_on', channel=3, note=59, velocity=58, time=8),
    Message('note_on', channel=3, note=64, velocity=58, time=8),
    Message('note_off', channel=3, note=47, velocity=64, time=428),
    Message('note_off', channel=3, note=52, velocity=64, time=8),
    Message('note_on', channel=3, note=47, velocity=38, time=0),
    Message('note_on', channel=3, note=52, velocity=45, time=8),
    Message('note_off', channel=3, note=55, velocity=64, time=4),
    Message('note_on', channel=3, note=55, velocity=45, time=8),
    Message('note_off', channel=3, note=40, velocity=64, time=4),
    Message('note_off', channel=3, note=59, velocity=64, time=0),
    Message('note_off', channel=3, note=64, velocity=64, time=0),
    Message('note_on', channel=3, note=59, velocity=45, time=4),
    Message('note_on', channel=3, note=64, velocity=45, time=12),
    Message('note_off', channel=3, note=64, velocity=64, time=220),
    Message('note_on', channel=3, note=64, velocity=32, time=8),
    Message('note_off', channel=3, note=47, velocity=64, time=4),
    Message('note_off', channel=3, note=52, velocity=64, time=0),
    Message('note_off', channel=3, note=55, velocity=64, time=0),
    Message('note_off', channel=3, note=59, velocity=64, time=0),
    Message('note_on', channel=3, note=59, velocity=36, time=4),
    Message('note_on', channel=3, note=55, velocity=36, time=8),
    Message('note_on', channel=3, note=52, velocity=32, time=8),
    Message('note_on', channel=3, note=47, velocity=23, time=8),
    Message('note_on', channel=3, note=40, velocity=4, time=8),
    Message('note_off', channel=3, note=47, velocity=64, time=172),
    Message('note_off', channel=3, note=52, velocity=64, time=8),
    Message('note_on', channel=3, note=47, velocity=53, time=0),
    Message('note_on', channel=3, note=52, velocity=63, time=8),
    Message('note_off', channel=3, note=55, velocity=64, time=4),
    Message('note_off', channel=3, note=59, velocity=64, time=8),
    Message('note_on', channel=3, note=55, velocity=63, time=0),
    Message('note_on', channel=3, note=59, velocity=63, time=8),
    Message('note_off', channel=3, note=64, velocity=64, time=4),
    Message('note_on', channel=3, note=64, velocity=63, time=8),
    Message('note_off', channel=3, note=40, velocity=64, time=32),
    Message('note_off', channel=3, note=64, velocity=64, time=164),
    Message('note_off', channel=3, note=59, velocity=64, time=8),
    Message('note_on', channel=3, note=64, velocity=35, time=0),
    Message('note_on', channel=3, note=59, velocity=40, time=8),
    Message('note_off', channel=3, note=47, velocity=64, time=4),
    Message('note_off', channel=3, note=52, velocity=64, time=0),
    Message('note_off', channel=3, note=55, velocity=64, time=0),
    Message('note_on', channel=3, note=55, velocity=40, time=4),
    Message('note_on', channel=3, note=52, velocity=35, time=8),
    Message('note_on', channel=3, note=47, velocity=25, time=8),
    Message('note_on', channel=3, note=40, velocity=5, time=8),
    Message('note_off', channel=3, note=40, velocity=64, time=184),
    Message('note_off', channel=3, note=47, velocity=64, time=0),
    Message('note_off', channel=3, note=52, velocity=64, time=0),
    Message('note_off', channel=3, note=64, velocity=64, time=0),
    Message('note_off', channel=3, note=59, velocity=64, time=0),
    Message('note_off', channel=3, note=55, velocity=64, time=0),
    Message('note_on', channel=3, note=50, velocity=71, time=20),
    Message('note_off', channel=3, note=50, velocity=64, time=8),
    Message('note_on', channel=3, note=57, velocity=55, time=4),
    Message('note_on', channel=3, note=50, velocity=55, time=4),
    Message('note_on', channel=3, note=62, velocity=63, time=8),
    Message('note_off', channel=3, note=62, velocity=64, time=408),
    Message('note_off', channel=3, note=57, velocity=64, time=4),
    Message('note_on', channel=3, note=57, velocity=64, time=44),
    Message('note_on', channel=3, note=62, velocity=69, time=4),
    Message('note_off', channel=3, note=62, velocity=64, time=212),
    Message('note_off', channel=3, note=57, velocity=64, time=32),
    Message('note_on', channel=3, note=57, velocity=52, time=4),
    Message('note_on', channel=3, note=62, velocity=50, time=4),
    Message('note_off', channel=3, note=57, velocity=64, time=188),
    Message('note_off', channel=3, note=50, velocity=64, time=16),
    Message('note_off', channel=3, note=62, velocity=64, time=0),
    Message('note_on', channel=3, note=47, velocity=45, time=8),
    Message('note_on', channel=3, note=52, velocity=54, time=8),
    Message('note_on', channel=3, note=55, velocity=54, time=12),
    Message('note_on', channel=3, note=59, velocity=54, time=8),
    Message('note_on', channel=3, note=64, velocity=54, time=12),
    Message('note_off', channel=3, note=64, velocity=64, time=184),
    Message('note_off', channel=3, note=59, velocity=64, time=0),
    Message('note_off', channel=3, note=55, velocity=64, time=0),
    Message('note_off', channel=3, note=52, velocity=64, time=0),
    Message('note_off', channel=3, note=47, velocity=64, time=0),
    Message('note_on', channel=3, note=64, velocity=31, time=20),
    Message('note_on', channel=3, note=59, velocity=36, time=8),
    Message('note_on', channel=3, note=55, velocity=36, time=8),
    Message('note_on', channel=3, note=52, velocity=31, time=8),
    Message('note_on', channel=3, note=47, velocity=22, time=8),
    Message('note_on', channel=3, note=40, velocity=4, time=8),
    Message('note_off', channel=3, note=40, velocity=64, time=192),
    Message('note_off', channel=3, note=47, velocity=64, time=0),
    Message('note_off', channel=3, note=52, velocity=64, time=0),
    Message('note_off', channel=3, note=55, velocity=64, time=0),
    Message('note_off', channel=3, note=59, velocity=64, time=0),
    Message('note_off', channel=3, note=64, velocity=64, time=0),
    Message('note_on', channel=3, note=50, velocity=54, time=4),
    Message('note_on', channel=3, note=57, velocity=54, time=12),
    Message('note_on', channel=3, note=62, velocity=54, time=12),
    Message('note_on', channel=3, note=66, velocity=54, time=12),
    Message('note_off', channel=3, note=66, velocity=64, time=416),
    Message('note_off', channel=3, note=62, velocity=64, time=0),
    Message('note_off', channel=3, note=57, velocity=64, time=0),
    Message('note_off', channel=3, note=50, velocity=64, time=0),
    Message('note_on', channel=3, note=47, velocity=45, time=28),
    Message('note_on', channel=3, note=52, velocity=54, time=8),
    Message('note_on', channel=3, note=55, velocity=54, time=12),
    Message('note_on', channel=3, note=59, velocity=54, time=8),
    Message('note_on', channel=3, note=64, velocity=54, time=12),
    Message('note_off', channel=3, note=64, velocity=64, time=192),
    Message('note_off', channel=3, note=59, velocity=64, time=8),
    Message('note_on', channel=3, note=64, velocity=31, time=0),
    Message('note_off', channel=3, note=55, velocity=64, time=8),
    Message('note_on', channel=3, note=59, velocity=36, time=0),
    Message('note_off', channel=3, note=52, velocity=64, time=8),
    Message('note_on', channel=3, note=55, velocity=36, time=0),
    Message('note_off', channel=3, note=47, velocity=64, time=8),
    Message('note_on', channel=3, note=52, velocity=31, time=0),
    Message('note_on', channel=3, note=47, velocity=22, time=8),
    Message('note_on', channel=3, note=40, velocity=4, time=8),
    Message('note_off', channel=3, note=40, velocity=64, time=192),
    Message('note_off', channel=3, note=47, velocity=64, time=0),
    Message('note_off', channel=3, note=64, velocity=64, time=0),
    Message('note_off', channel=3, note=59, velocity=64, time=0),
    Message('note_off', channel=3, note=55, velocity=64, time=0),
    Message('note_off', channel=3, note=52, velocity=64, time=0),
    Message('note_on', channel=3, note=57, velocity=54, time=8),
    Message('note_on', channel=3, note=62, velocity=54, time=16),
    Message('note_on', channel=3, note=66, velocity=54, time=16),
    Message('note_off', channel=3, note=66, velocity=64, time=192),
    Message('note_off', channel=3, note=62, velocity=64, time=0),
    Message('note_off', channel=3, note=57, velocity=64, time=0),
    Message('note_on', channel=3, note=66, velocity=31, time=20),
    Message('note_on', channel=3, note=62, velocity=36, time=12),
    Message('note_on', channel=3, note=57, velocity=36, time=12),
    Message('note_on', channel=3, note=50, velocity=31, time=12),
    Message('note_off', channel=3, note=50, velocity=64, time=196),
    Message('note_off', channel=3, note=57, velocity=64, time=0),
    Message('note_off', channel=3, note=62, velocity=64, time=0),
    Message('note_off', channel=3, note=66, velocity=64, time=0),
    Message('note_on', channel=3, note=55, velocity=60, time=24),
    Message('note_on', channel=3, note=40, velocity=54, time=0),
    Message('note_on', channel=3, note=59, velocity=60, time=0),
    Message('note_on', channel=3, note=52, velocity=60, time=0),
    Message('note_off', channel=3, note=59, velocity=64, time=252),
    Message('note_off', channel=3, note=55, velocity=64, time=0),
    Message('note_on', channel=3, note=64, velocity=44, time=4),
    Message('note_on', channel=3, note=59, velocity=60, time=0),
    Message('note_off', channel=3, note=59, velocity=64, time=220),
    Message('note_off', channel=3, note=64, velocity=64, time=0),
    Message('note_on', channel=3, note=64, velocity=60, time=4),
    Message('note_on', channel=3, note=55, velocity=45, time=0),
    Message('note_on', channel=3, note=59, velocity=68, time=4),
    Message('note_off', channel=3, note=59, velocity=64, time=252),
    Message('note_off', channel=3, note=55, velocity=64, time=0),
    Message('note_off', channel=3, note=64, velocity=64, time=0),
    Message('note_on', channel=3, note=59, velocity=29, time=4),
    Message('note_on', channel=3, note=64, velocity=44, time=4),
    Message('note_off', channel=3, note=64, velocity=64, time=208),
    Message('note_off', channel=3, note=59, velocity=64, time=0),
    Message('note_on', channel=3, note=59, velocity=68, time=4),
    Message('note_on', channel=3, note=64, velocity=60, time=4),
    Message('note_on', channel=3, note=55, velocity=60, time=0),
    Message('note_off', channel=3, note=59, velocity=64, time=204),
    Message('note_off', channel=3, note=55, velocity=64, time=8),
    Message('note_off', channel=3, note=64, velocity=64, time=28),
    Message('note_on', channel=3, note=55, velocity=67, time=0),
    Message('note_on', channel=3, note=59, velocity=50, time=4),
    Message('note_off', channel=3, note=40, velocity=64, time=144),
    Message('note_off', channel=3, note=52, velocity=64, time=24),
    Message('note_off', channel=3, note=55, velocity=64, time=36),
    Message('note_off', channel=3, note=59, velocity=64, time=20),
    Message('note_on', channel=3, note=52, velocity=68, time=4),
    Message('note_on', channel=3, note=59, velocity=60, time=8),
    Message('note_on', channel=3, note=64, velocity=60, time=0),
    Message('note_on', channel=3, note=55, velocity=60, time=0),
    Message('note_on', channel=3, note=40, velocity=54, time=4),
    Message('note_off', channel=3, note=55, velocity=64, time=208),
    Message('note_off', channel=3, note=59, velocity=64, time=36),
    Message('note_on', channel=3, note=59, velocity=57, time=4),
    Message('note_on', channel=3, note=55, velocity=76, time=12),
    Message('note_off', channel=3, note=64, velocity=64, time=124),
    Message('note_off', channel=3, note=59, velocity=64, time=88),
    Message('note_off', channel=3, note=55, velocity=64, time=0),
    Message('note_on', channel=3, note=59, velocity=60, time=4),
    Message('note_on', channel=3, note=64, velocity=60, time=0),
    Message('note_on', channel=3, note=55, velocity=60, time=0),
    Message('note_off', channel=3, note=52, velocity=64, time=392),
    Message('note_off', channel=3, note=59, velocity=64, time=44),
    Message('note_off', channel=3, note=64, velocity=64, time=0),
    Message('note_off', channel=3, note=55, velocity=64, time=0),
    Message('note_off', channel=3, note=40, velocity=64, time=8),
    Message('note_on', channel=3, note=59, velocity=60, time=36),
    Message('note_on', channel=3, note=64, velocity=73, time=0),
    Message('note_on', channel=3, note=55, velocity=69, time=0),
    Message('note_on', channel=3, note=52, velocity=68, time=4),
    Message('note_off', channel=3, note=64, velocity=64, time=220),
    Message('note_off', channel=3, note=59, velocity=64, time=0),
    Message('note_on', channel=3, note=64, velocity=48, time=24),
    Message('note_on', channel=3, note=59, velocity=57, time=0),
    Message('note_off', channel=3, note=59, velocity=64, time=204),
    Message('note_off', channel=3, note=55, velocity=64, time=0),
    Message('note_off', channel=3, note=52, velocity=64, time=0),
    Message('note_off', channel=3, note=64, velocity=64, time=0),
    Message('note_on', channel=3, note=40, velocity=56, time=20),
    Message('note_on', channel=3, note=55, velocity=55, time=12),
    Message('note_on', channel=3, note=52, velocity=55, time=4),
    Message('note_on', channel=3, note=59, velocity=63, time=8),
    Message('note_off', channel=3, note=59, velocity=64, time=408),
    Message('note_off', channel=3, note=55, velocity=64, time=4),
    Message('note_on', channel=3, note=55, velocity=64, time=44),
    Message('note_on', channel=3, note=59, velocity=69, time=4),
    Message('note_off', channel=3, note=59, velocity=64, time=212),
    Message('note_off', channel=3, note=55, velocity=64, time=32),
    Message('note_on', channel=3, note=55, velocity=52, time=4),
    Message('note_on', channel=3, note=59, velocity=50, time=4),
    Message('note_off', channel=3, note=52, velocity=64, time=192),
    Message('note_off', channel=3, note=55, velocity=64, time=28),
    Message('note_off', channel=3, note=59, velocity=64, time=0),
    Message('note_on', channel=3, note=55, velocity=64, time=4),
    Message('note_on', channel=3, note=52, velocity=64, time=0),
    Message('note_on', channel=3, note=59, velocity=54, time=4),
    Message('note_off', channel=3, note=59, velocity=64, time=212),
    Message('note_off', channel=3, note=55, velocity=64, time=40),
    Message('note_on', channel=3, note=55, velocity=53, time=4),
    Message('note_on', channel=3, note=59, velocity=50, time=12),
    Message('note_off', channel=3, note=52, velocity=64, time=108),
    Message('note_off', channel=3, note=40, velocity=64, time=60),
    Message('note_off', channel=3, note=59, velocity=64, time=4),
    Message('note_off', channel=3, note=55, velocity=64, time=32),
    Message('note_on', channel=3, note=55, velocity=52, time=4),
    Message('note_on', channel=3, note=52, velocity=65, time=0),
    Message('note_on', channel=3, note=59, velocity=71, time=0),
    Message('note_on', channel=3, note=40, velocity=56, time=4),
    Message('note_off', channel=3, note=55, velocity=64, time=252),
    Message('note_on', channel=3, note=55, velocity=55, time=4),
    Message('note_off', channel=3, note=52, velocity=64, time=140),
    Message('note_off', channel=3, note=40, velocity=64, time=8),
    Message('note_off', channel=3, note=59, velocity=64, time=4),
    Message('note_off', channel=3, note=55, velocity=64, time=64),
    Message('note_on', channel=3, note=55, velocity=58, time=4),
    Message('note_on', channel=3, note=52, velocity=64, time=0),
    Message('note_on', channel=3, note=59, velocity=62, time=0),
    Message('note_off', channel=3, note=59, velocity=64, time=472),
    Message('note_off', channel=3, note=52, velocity=64, time=0),
    Message('note_off', channel=3, note=55, velocity=64, time=0),
    Message('note_on', channel=3, note=55, velocity=64, time=8),
    Message('note_on', channel=3, note=52, velocity=64, time=0),
    Message('note_on', channel=3, note=59, velocity=64, time=0),
    Message('note_off', channel=3, note=59, velocity=64, time=460),
    Message('note_off', channel=3, note=52, velocity=64, time=0),
    Message('note_off', channel=3, note=55, velocity=64, time=0),
    Message('note_on', channel=3, note=64, velocity=60, time=28),
    Message('note_on', channel=3, note=40, velocity=54, time=0),
    Message('note_on', channel=3, note=59, velocity=60, time=0),
    Message('note_on', channel=3, note=52, velocity=60, time=0),
    Message('note_off', channel=3, note=59, velocity=64, time=244),
    Message('note_off', channel=3, note=64, velocity=64, time=0),
    Message('note_on', channel=3, note=64, velocity=54, time=4),
    Message('note_on', channel=3, note=59, velocity=29, time=8),
    Message('note_off', channel=3, note=59, velocity=64, time=220),
    Message('note_off', channel=3, note=64, velocity=64, time=0),
    Message('note_on', channel=3, note=64, velocity=60, time=4),
    Message('note_on', channel=3, note=55, velocity=45, time=0),
    Message('note_on', channel=3, note=59, velocity=68, time=4),
    Message('note_off', channel=3, note=59, velocity=64, time=216),
    Message('note_off', channel=3, note=55, velocity=64, time=40),
    Message('note_on', channel=3, note=55, velocity=70, time=8),
    Message('note_on', channel=3, note=59, velocity=61, time=4),
    Message('note_off', channel=3, note=64, velocity=64, time=168),
    Message('note_off', channel=3, note=55, velocity=64, time=32),
    Message('note_off', channel=3, note=59, velocity=64, time=0),
    Message('note_on', channel=3, note=59, velocity=68, time=4),
    Message('note_on', channel=3, note=64, velocity=60, time=4),
    Message('note_on', channel=3, note=55, velocity=60, time=0),
    Message('note_off', channel=3, note=55, velocity=64, time=212),
    Message('note_on', channel=3, note=55, velocity=67, time=52),
    Message('note_off', channel=3, note=59, velocity=64, time=116),
    Message('note_off', channel=3, note=52, velocity=64, time=20),
    Message('note_off', channel=3, note=40, velocity=64, time=16),
    Message('note_off', channel=3, note=64, velocity=64, time=4),
    Message('note_off', channel=3, note=55, velocity=64, time=48),
    Message('note_on', channel=3, note=52, velocity=68, time=4),
    Message('note_on', channel=3, note=64, velocity=60, time=8),
    Message('note_on', channel=3, note=55, velocity=60, time=0),
    Message('note_on', channel=3, note=59, velocity=60, time=0),
    Message('note_on', channel=3, note=40, velocity=54, time=4),
    Message('note_off', channel=3, note=55, velocity=64, time=208),
    Message('note_off', channel=3, note=64, velocity=64, time=40),
    Message('note_off', channel=3, note=59, velocity=64, time=0),
    Message('note_on', channel=3, note=55, velocity=57, time=4),
    Message('note_on', channel=3, note=59, velocity=68, time=0),
    Message('note_off', channel=3, note=59, velocity=64, time=220),
    Message('note_off', channel=3, note=55, velocity=64, time=0),
    Message('note_on', channel=3, note=64, velocity=60, time=4),
    Message('note_on', channel=3, note=55, velocity=60, time=0),
    Message('note_on', channel=3, note=59, velocity=60, time=0),
    Message('note_off', channel=3, note=52, velocity=64, time=408),
    Message('note_off', channel=3, note=64, velocity=64, time=28),
    Message('note_off', channel=3, note=55, velocity=64, time=0),
    Message('note_off', channel=3, note=59, velocity=64, time=0),
    Message('note_on', channel=3, note=64, velocity=60, time=44),
    Message('note_on', channel=3, note=55, velocity=60, time=0),
    Message('note_on', channel=3, note=59, velocity=60, time=0),
    Message('note_on', channel=3, note=52, velocity=68, time=4),
    Message('note_off', channel=3, note=59, velocity=64, time=220),
    Message('note_off', channel=3, note=64, velocity=64, time=0),
    Message('note_on', channel=3, note=64, velocity=48, time=24),
    Message('note_on', channel=3, note=59, velocity=57, time=0),
    Message('note_off', channel=3, note=40, velocity=64, time=64),
    Message('note_off', channel=3, note=55, velocity=64, time=140),
    Message('note_off', channel=3, note=52, velocity=64, time=0),
    Message('note_off', channel=3, note=64, velocity=64, time=0),
    Message('note_off', channel=3, note=59, velocity=64, time=0),
    Message('note_on', channel=3, note=50, velocity=54, time=8),
    Message('note_on', channel=3, note=57, velocity=54, time=12),
    Message('note_on', channel=3, note=62, velocity=54, time=12),
    Message('note_on', channel=3, note=66, velocity=54, time=12),
    Message('note_off', channel=3, note=66, velocity=64, time=416),
    Message('note_off', channel=3, note=62, velocity=64, time=0),
    Message('note_off', channel=3, note=57, velocity=64, time=0),
    Message('note_off', channel=3, note=50, velocity=64, time=0),
    Message('note_on', channel=3, note=47, velocity=45, time=28),
    Message('note_on', channel=3, note=52, velocity=54, time=8),
    Message('note_on', channel=3, note=55, velocity=54, time=12),
    Message('note_on', channel=3, note=59, velocity=54, time=8),
    Message('note_on', channel=3, note=64, velocity=54, time=12),
    Message('note_off', channel=3, note=64, velocity=64, time=192),
    Message('note_off', channel=3, note=59, velocity=64, time=8),
    Message('note_on', channel=3, note=64, velocity=31, time=0),
    Message('note_off', channel=3, note=55, velocity=64, time=8),
    Message('note_on', channel=3, note=59, velocity=36, time=0),
    Message('note_off', channel=3, note=52, velocity=64, time=8),
    Message('note_on', channel=3, note=55, velocity=36, time=0),
    Message('note_off', channel=3, note=47, velocity=64, time=8),
    Message('note_on', channel=3, note=52, velocity=31, time=0),
    Message('note_on', channel=3, note=47, velocity=22, time=8),
    Message('note_on', channel=3, note=40, velocity=4, time=8),
    Message('note_off', channel=3, note=40, velocity=64, time=192),
    Message('note_off', channel=3, note=47, velocity=64, time=0),
    Message('note_off', channel=3, note=64, velocity=64, time=0),
    Message('note_off', channel=3, note=59, velocity=64, time=0),
    Message('note_off', channel=3, note=55, velocity=64, time=0),
    Message('note_off', channel=3, note=52, velocity=64, time=0),
    Message('note_on', channel=3, note=57, velocity=54, time=8),
    Message('note_on', channel=3, note=62, velocity=54, time=16),
    Message('note_on', channel=3, note=66, velocity=54, time=16),
    Message('note_off', channel=3, note=66, velocity=64, time=192),
    Message('note_off', channel=3, note=62, velocity=64, time=0),
    Message('note_off', channel=3, note=57, velocity=64, time=0),
    Message('note_on', channel=3, note=66, velocity=31, time=20),
    Message('note_on', channel=3, note=62, velocity=36, time=12),
    Message('note_on', channel=3, note=57, velocity=36, time=12),
    Message('note_on', channel=3, note=50, velocity=31, time=12),
    Message('note_off', channel=3, note=50, velocity=64, time=196),
    Message('note_off', channel=3, note=57, velocity=64, time=0),
    Message('note_off', channel=3, note=62, velocity=64, time=0),
    Message('note_off', channel=3, note=66, velocity=64, time=0),
    Message('note_on', channel=3, note=55, velocity=45, time=16),
    Message('note_on', channel=3, note=52, velocity=59, time=8),
    Message('note_on', channel=3, note=40, velocity=47, time=0),
    Message('note_on', channel=3, note=59, velocity=45, time=4),
    Message('note_on', channel=3, note=64, velocity=68, time=4),
    Message('note_off', channel=3, note=55, velocity=64, time=412),
    Message('note_off', channel=3, note=52, velocity=64, time=52),
    Message('note_on', channel=3, note=52, velocity=59, time=8),
    Message('note_on', channel=3, note=55, velocity=59, time=0),
    Message('note_off', channel=3, note=59, velocity=64, time=172),
    Message('note_off', channel=3, note=55, velocity=64, time=68),
    Message('note_off', channel=3, note=52, velocity=64, time=8),
    Message('note_on', channel=3, note=55, velocity=59, time=4),
    Message('note_on', channel=3, note=59, velocity=59, time=4),
    Message('note_off', channel=3, note=55, velocity=64, time=220),
    Message('note_on', channel=3, note=52, velocity=59, time=4),
    Message('note_on', channel=3, note=55, velocity=59, time=0),
    Message('note_off', channel=3, note=59, velocity=64, time=128),
    Message('note_off', channel=3, note=55, velocity=64, time=104),
    Message('note_on', channel=3, note=55, velocity=59, time=8),
    Message('note_off', channel=3, note=52, velocity=64, time=16),
    Message('note_on', channel=3, note=59, velocity=59, time=4),
    Message('note_off', channel=3, note=64, velocity=64, time=140),
    Message('note_off', channel=3, note=40, velocity=64, time=40),
    Message('note_off', channel=3, note=55, velocity=64, time=0),
    Message('note_off', channel=3, note=59, velocity=64, time=12),
    Message('note_on', channel=3, note=40, velocity=46, time=8),
    Message('note_on', channel=3, note=47, velocity=49, time=8),
    Message('note_on', channel=3, note=52, velocity=58, time=8),
    Message('note_on', channel=3, note=55, velocity=58, time=8),
    Message('note_on', channel=3, note=59, velocity=58, time=8),
    Message('note_on', channel=3, note=64, velocity=58, time=8),
    Message('note_off', channel=3, note=47, velocity=64, time=428),
    Message('note_off', channel=3, note=52, velocity=64, time=8),
    Message('note_on', channel=3, note=47, velocity=38, time=0),
    Message('note_on', channel=3, note=52, velocity=45, time=8),
    Message('note_off', channel=3, note=55, velocity=64, time=4),
    Message('note_on', channel=3, note=55, velocity=45, time=8),
    Message('note_off', channel=3, note=40, velocity=64, time=4),
    Message('note_off', channel=3, note=59, velocity=64, time=0),
    Message('note_off', channel=3, note=64, velocity=64, time=0),
    Message('note_on', channel=3, note=59, velocity=45, time=4),
    Message('note_on', channel=3, note=64, velocity=45, time=12),
    Message('note_off', channel=3, note=64, velocity=64, time=220),
    Message('note_on', channel=3, note=64, velocity=32, time=8),
    Message('note_off', channel=3, note=47, velocity=64, time=4),
    Message('note_off', channel=3, note=52, velocity=64, time=0),
    Message('note_off', channel=3, note=55, velocity=64, time=0),
    Message('note_off', channel=3, note=59, velocity=64, time=0),
    Message('note_on', channel=3, note=59, velocity=36, time=4),
    Message('note_on', channel=3, note=55, velocity=36, time=8),
    Message('note_on', channel=3, note=52, velocity=32, time=8),
    Message('note_on', channel=3, note=47, velocity=23, time=8),
    Message('note_on', channel=3, note=40, velocity=4, time=8),
    Message('note_off', channel=3, note=47, velocity=64, time=172),
    Message('note_off', channel=3, note=52, velocity=64, time=8),
    Message('note_on', channel=3, note=47, velocity=53, time=0),
    Message('note_on', channel=3, note=52, velocity=63, time=8),
    Message('note_off', channel=3, note=55, velocity=64, time=4),
    Message('note_off', channel=3, note=59, velocity=64, time=8),
    Message('note_on', channel=3, note=55, velocity=63, time=0),
    Message('note_on', channel=3, note=59, velocity=63, time=8),
    Message('note_off', channel=3, note=64, velocity=64, time=4),
    Message('note_on', channel=3, note=64, velocity=63, time=8),
    Message('note_off', channel=3, note=40, velocity=64, time=32),
    Message('note_off', channel=3, note=64, velocity=64, time=164),
    Message('note_off', channel=3, note=59, velocity=64, time=8),
    Message('note_on', channel=3, note=64, velocity=35, time=0),
    Message('note_on', channel=3, note=59, velocity=40, time=8),
    Message('note_off', channel=3, note=47, velocity=64, time=4),
    Message('note_off', channel=3, note=52, velocity=64, time=0),
    Message('note_off', channel=3, note=55, velocity=64, time=0),
    Message('note_on', channel=3, note=55, velocity=40, time=4),
    Message('note_on', channel=3, note=52, velocity=35, time=8),
    Message('note_on', channel=3, note=47, velocity=25, time=8),
    Message('note_on', channel=3, note=40, velocity=5, time=8),
    Message('note_off', channel=3, note=40, velocity=64, time=184),
    Message('note_off', channel=3, note=47, velocity=64, time=0),
    Message('note_off', channel=3, note=52, velocity=64, time=0),
    Message('note_off', channel=3, note=64, velocity=64, time=0),
    Message('note_off', channel=3, note=59, velocity=64, time=0),
    Message('note_off', channel=3, note=55, velocity=64, time=0),
    Message('note_on', channel=3, note=67, velocity=60, time=28),
    Message('note_on', channel=3, note=43, velocity=54, time=0),
    Message('note_on', channel=3, note=59, velocity=60, time=0),
    Message('note_on', channel=3, note=50, velocity=60, time=0),
    Message('note_off', channel=3, note=59, velocity=64, time=244),
    Message('note_off', channel=3, note=67, velocity=64, time=0),
    Message('note_on', channel=3, note=67, velocity=54, time=4),
    Message('note_on', channel=3, note=59, velocity=29, time=8),
    Message('note_off', channel=3, note=59, velocity=64, time=220),
    Message('note_off', channel=3, note=67, velocity=64, time=0),
    Message('note_on', channel=3, note=67, velocity=60, time=4),
    Message('note_on', channel=3, note=55, velocity=45, time=0),
    Message('note_on', channel=3, note=59, velocity=68, time=4),
    Message('note_off', channel=3, note=59, velocity=64, time=216),
    Message('note_off', channel=3, note=55, velocity=64, time=40),
    Message('note_on', channel=3, note=55, velocity=70, time=8),
    Message('note_on', channel=3, note=59, velocity=61, time=4),
    Message('note_off', channel=3, note=67, velocity=64, time=168),
    Message('note_off', channel=3, note=55, velocity=64, time=32),
    Message('note_off', channel=3, note=59, velocity=64, time=0),
    Message('note_on', channel=3, note=59, velocity=68, time=4),
    Message('note_on', channel=3, note=67, velocity=60, time=4),
    Message('note_on', channel=3, note=55, velocity=60, time=0),
    Message('note_off', channel=3, note=55, velocity=64, time=212),
    Message('note_on', channel=3, note=55, velocity=67, time=52),
    Message('note_off', channel=3, note=59, velocity=64, time=116),
    Message('note_off', channel=3, note=50, velocity=64, time=20),
    Message('note_off', channel=3, note=43, velocity=64, time=16),
    Message('note_off', channel=3, note=67, velocity=64, time=4),
    Message('note_off', channel=3, note=55, velocity=64, time=28),
    Message('note_on', channel=3, note=55, velocity=45, time=24),
    Message('note_on', channel=3, note=52, velocity=59, time=8),
    Message('note_on', channel=3, note=40, velocity=47, time=0),
    Message('note_on', channel=3, note=59, velocity=45, time=4),
    Message('note_on', channel=3, note=64, velocity=68, time=4),
    Message('note_off', channel=3, note=55, velocity=64, time=412),
    Message('note_off', channel=3, note=52, velocity=64, time=52),
    Message('note_on', channel=3, note=52, velocity=59, time=8),
    Message('note_on', channel=3, note=55, velocity=59, time=0),
    Message('note_off', channel=3, note=59, velocity=64, time=172),
    Message('note_off', channel=3, note=55, velocity=64, time=68),
    Message('note_off', channel=3, note=52, velocity=64, time=8),
    Message('note_on', channel=3, note=55, velocity=59, time=4),
    Message('note_on', channel=3, note=59, velocity=59, time=4),
    Message('note_off', channel=3, note=55, velocity=64, time=220),
    Message('note_on', channel=3, note=52, velocity=59, time=4),
    Message('note_on', channel=3, note=55, velocity=59, time=0),
    Message('note_off', channel=3, note=59, velocity=64, time=128),
    Message('note_off', channel=3, note=55, velocity=64, time=104),
    Message('note_on', channel=3, note=55, velocity=59, time=8),
    Message('note_off', channel=3, note=52, velocity=64, time=16),
    Message('note_on', channel=3, note=59, velocity=59, time=4),
    Message('note_off', channel=3, note=64, velocity=64, time=140),
    Message('note_off', channel=3, note=40, velocity=64, time=40),
    Message('note_off', channel=3, note=55, velocity=64, time=0),
    Message('note_off', channel=3, note=59, velocity=64, time=12),
    Message('note_on', channel=3, note=43, velocity=43, time=8),
    Message('note_on', channel=3, note=47, velocity=45, time=8),
    Message('note_on', channel=3, note=50, velocity=54, time=8),
    Message('note_on', channel=3, note=55, velocity=54, time=8),
    Message('note_on', channel=3, note=59, velocity=54, time=8),
    Message('note_on', channel=3, note=67, velocity=54, time=8),
    Message('note_off', channel=3, note=67, velocity=64, time=412),
    Message('note_off', channel=3, note=59, velocity=64, time=0),
    Message('note_off', channel=3, note=55, velocity=64, time=0),
    Message('note_off', channel=3, note=50, velocity=64, time=0),
    Message('note_off', channel=3, note=47, velocity=64, time=0),
    Message('note_off', channel=3, note=43, velocity=64, time=0),
    Message('note_on', channel=3, note=52, velocity=54, time=28),
    Message('note_on', channel=3, note=57, velocity=54, time=12),
    Message('note_on', channel=3, note=61, velocity=54, time=12),
    Message('note_on', channel=3, note=64, velocity=54, time=12),
    Message('note_off', channel=3, note=64, velocity=64, time=416),
    Message('note_off', channel=3, note=61, velocity=64, time=0),
    Message('note_off', channel=3, note=57, velocity=64, time=0),
    Message('note_off', channel=3, note=52, velocity=64, time=0),
    Message('note_on', channel=3, note=52, velocity=54, time=28),
    Message('note_on', channel=3, note=57, velocity=54, time=12),
    Message('note_on', channel=3, note=61, velocity=54, time=12),
    Message('note_on', channel=3, note=64, velocity=54, time=12),
    Message('note_off', channel=3, note=64, velocity=64, time=188),
    Message('note_off', channel=3, note=61, velocity=64, time=0),
    Message('note_off', channel=3, note=57, velocity=64, time=0),
    Message('note_off', channel=3, note=52, velocity=64, time=0),
    Message('note_on', channel=3, note=64, velocity=31, time=20),
    Message('note_on', channel=3, note=61, velocity=36, time=8),
    Message('note_on', channel=3, note=57, velocity=36, time=12),
    Message('note_on', channel=3, note=52, velocity=31, time=8),
    Message('note_on', channel=3, note=45, velocity=22, time=12),
    Message('note_off', channel=3, note=45, velocity=64, time=192),
    Message('note_off', channel=3, note=52, velocity=64, time=0),
    Message('note_off', channel=3, note=57, velocity=64, time=0),
    Message('note_off', channel=3, note=61, velocity=64, time=0),
    Message('note_off', channel=3, note=64, velocity=64, time=0),
    Message('note_on', channel=3, note=64, velocity=61, time=24),
    Message('note_on', channel=3, note=40, velocity=55, time=0),
    Message('note_on', channel=3, note=59, velocity=61, time=0),
    Message('note_on', channel=3, note=52, velocity=61, time=0),
    Message('note_off', channel=3, note=64, velocity=64, time=432),
    Message('note_on', channel=3, note=64, velocity=61, time=48),
    Message('note_on', channel=3, note=55, velocity=61, time=0),
    Message('note_off', channel=3, note=55, velocity=64, time=240),
    Message('note_off', channel=3, note=64, velocity=64, time=20),
    Message('note_on', channel=3, note=55, velocity=47, time=4),
    Message('note_on', channel=3, note=64, velocity=63, time=4),
    Message('note_off', channel=3, note=64, velocity=64, time=208),
    Message('note_off', channel=3, note=55, velocity=64, time=0),
    Message('note_on', channel=3, note=64, velocity=61, time=4),
    Message('note_on', channel=3, note=55, velocity=61, time=0),
    Message('note_off', channel=3, note=55, velocity=64, time=240),
    Message('note_off', channel=3, note=64, velocity=64, time=16),
    Message('note_on', channel=3, note=55, velocity=60, time=4),
    Message('note_off', channel=3, note=59, velocity=64, time=212),
    Message('note_off', channel=3, note=55, velocity=64, time=4),
    Message('note_on', channel=3, note=64, velocity=61, time=4),
    Message('note_on', channel=3, note=55, velocity=61, time=0),
    Message('note_on', channel=3, note=59, velocity=61, time=0),
    Message('note_off', channel=3, note=64, velocity=64, time=248),
    Message('note_on', channel=3, note=64, velocity=44, time=4),
    Message('note_off', channel=3, note=55, velocity=64, time=176),
    Message('note_off', channel=3, note=59, velocity=64, time=4),
    Message('note_off', channel=3, note=64, velocity=64, time=44),
    Message('note_on', channel=3, note=64, velocity=61, time=4),
    Message('note_on', channel=3, note=55, velocity=61, time=0),
    Message('note_on', channel=3, note=59, velocity=61, time=0),
    Message('note_off', channel=3, note=59, velocity=64, time=472),
    Message('note_off', channel=3, note=55, velocity=64, time=0),
    Message('note_off', channel=3, note=64, velocity=64, time=0),
    Message('note_on', channel=3, note=64, velocity=61, time=8),
    Message('note_on', channel=3, note=55, velocity=61, time=0),
    Message('note_on', channel=3, note=59, velocity=61, time=0),
    Message('note_off', channel=3, note=59, velocity=64, time=452),
    Message('note_off', channel=3, note=55, velocity=64, time=0),
    Message('note_off', channel=3, note=40, velocity=64, time=0),
    Message('note_off', channel=3, note=52, velocity=64, time=0),
    Message('note_off', channel=3, note=64, velocity=64, time=0),
    Message('note_on', channel=3, note=40, velocity=46, time=8),
    Message('note_on', channel=3, note=47, velocity=49, time=8),
    Message('note_on', channel=3, note=52, velocity=58, time=8),
    Message('note_on', channel=3, note=55, velocity=58, time=8),
    Message('note_on', channel=3, note=59, velocity=58, time=8),
    Message('note_on', channel=3, note=64, velocity=58, time=8),
    Message('note_off', channel=3, note=47, velocity=64, time=428),
    Message('note_off', channel=3, note=52, velocity=64, time=8),
    Message('note_on', channel=3, note=47, velocity=38, time=0),
    Message('note_on', channel=3, note=52, velocity=45, time=8),
    Message('note_off', channel=3, note=55, velocity=64, time=4),
    Message('note_on', channel=3, note=55, velocity=45, time=8),
    Message('note_off', channel=3, note=40, velocity=64, time=4),
    Message('note_off', channel=3, note=59, velocity=64, time=0),
    Message('note_off', channel=3, note=64, velocity=64, time=0),
    Message('note_on', channel=3, note=59, velocity=45, time=4),
    Message('note_on', channel=3, note=64, velocity=45, time=12),
    Message('note_off', channel=3, note=64, velocity=64, time=220),
    Message('note_on', channel=3, note=64, velocity=32, time=8),
    Message('note_off', channel=3, note=47, velocity=64, time=4),
    Message('note_off', channel=3, note=52, velocity=64, time=0),
    Message('note_off', channel=3, note=55, velocity=64, time=0),
    Message('note_off', channel=3, note=59, velocity=64, time=0),
    Message('note_on', channel=3, note=59, velocity=36, time=4),
    Message('note_on', channel=3, note=55, velocity=36, time=8),
    Message('note_on', channel=3, note=52, velocity=32, time=8),
    Message('note_on', channel=3, note=47, velocity=23, time=8),
    Message('note_on', channel=3, note=40, velocity=4, time=8),
    Message('note_off', channel=3, note=47, velocity=64, time=172),
    Message('note_off', channel=3, note=52, velocity=64, time=8),
    Message('note_on', channel=3, note=47, velocity=53, time=0),
    Message('note_on', channel=3, note=52, velocity=63, time=8),
    Message('note_off', channel=3, note=55, velocity=64, time=4),
    Message('note_off', channel=3, note=59, velocity=64, time=8),
    Message('note_on', channel=3, note=55, velocity=63, time=0),
    Message('note_on', channel=3, note=59, velocity=63, time=8),
    Message('note_off', channel=3, note=64, velocity=64, time=4),
    Message('note_on', channel=3, note=64, velocity=63, time=8),
    Message('note_off', channel=3, note=40, velocity=64, time=32),
    Message('note_off', channel=3, note=64, velocity=64, time=164),
    Message('note_off', channel=3, note=59, velocity=64, time=8),
    Message('note_on', channel=3, note=64, velocity=35, time=0),
    Message('note_on', channel=3, note=59, velocity=40, time=8),
    Message('note_off', channel=3, note=47, velocity=64, time=4),
    Message('note_off', channel=3, note=52, velocity=64, time=0),
    Message('note_off', channel=3, note=55, velocity=64, time=0),
    Message('note_on', channel=3, note=55, velocity=40, time=4),
    Message('note_on', channel=3, note=52, velocity=35, time=8),
    Message('note_on', channel=3, note=47, velocity=25, time=8),
    Message('note_on', channel=3, note=40, velocity=5, time=8),
    Message('note_off', channel=3, note=40, velocity=64, time=180),
    Message('note_off', channel=3, note=47, velocity=64, time=8),
    Message('note_on', channel=3, note=40, velocity=40, time=0),
    Message('note_off', channel=3, note=52, velocity=64, time=8),
    Message('note_on', channel=3, note=47, velocity=43, time=0),
    Message('note_off', channel=3, note=55, velocity=64, time=8),
    Message('note_on', channel=3, note=52, velocity=51, time=0),
    Message('note_off', channel=3, note=59, velocity=64, time=8),
    Message('note_on', channel=3, note=55, velocity=51, time=0),
    Message('note_off', channel=3, note=64, velocity=64, time=8),
    Message('note_on', channel=3, note=59, velocity=51, time=0),
    Message('note_on', channel=3, note=64, velocity=51, time=8),
    Message('note_off', channel=3, note=64, velocity=64, time=392),
    Message('note_off', channel=3, note=40, velocity=64, time=0),
    Message('note_off', channel=3, note=47, velocity=64, time=0),
    Message('note_off', channel=3, note=52, velocity=64, time=0),
    Message('note_off', channel=3, note=55, velocity=64, time=0),
    Message('note_off', channel=3, note=59, velocity=64, time=0),
    Message('note_on', channel=3, note=47, velocity=56, time=48),
    Message('note_on', channel=3, note=52, velocity=66, time=8),
    Message('note_on', channel=3, note=55, velocity=66, time=12),
    Message('note_on', channel=3, note=59, velocity=66, time=8),
    Message('note_on', channel=3, note=64, velocity=66, time=12),
    Message('note_off', channel=3, note=47, velocity=64, time=432),
    Message('note_off', channel=3, note=52, velocity=64, time=8),
    Message('note_on', channel=3, note=47, velocity=56, time=0),
    Message('note_on', channel=3, note=52, velocity=66, time=8),
    Message('note_off', channel=3, note=55, velocity=64, time=4),
    Message('note_on', channel=3, note=55, velocity=66, time=8),
    Message('note_off', channel=3, note=59, velocity=64, time=4),
    Message('note_off', channel=3, note=64, velocity=64, time=0),
    Message('note_on', channel=3, note=59, velocity=66, time=4),
    Message('note_on', channel=3, note=64, velocity=66, time=12),
    Message('note_off', channel=3, note=64, velocity=64, time=436),
    Message('note_off', channel=3, note=47, velocity=64, time=0),
    Message('note_off', channel=3, note=52, velocity=64, time=0),
    Message('note_off', channel=3, note=55, velocity=64, time=0),
    Message('note_off', channel=3, note=59, velocity=64, time=0),
    Message('note_on', channel=3, note=59, velocity=59, time=20),
    Message('note_on', channel=3, note=40, velocity=53, time=0),
    Message('note_on', channel=3, note=52, velocity=59, time=0),
    Message('note_on', channel=3, note=64, velocity=59, time=0),
    Message('note_off', channel=3, note=59, velocity=64, time=432),
    Message('note_on', channel=3, note=55, velocity=59, time=48),
    Message('note_on', channel=3, note=59, velocity=59, time=0),
    Message('note_off', channel=3, note=55, velocity=64, time=240),
    Message('note_off', channel=3, note=59, velocity=64, time=20),
    Message('note_on', channel=3, note=55, velocity=38, time=4),
    Message('note_on', channel=3, note=59, velocity=44, time=0),
    Message('note_off', channel=3, note=59, velocity=64, time=212),
    Message('note_off', channel=3, note=55, velocity=64, time=0),
    Message('note_on', channel=3, note=55, velocity=59, time=4),
    Message('note_on', channel=3, note=59, velocity=59, time=0),
    Message('note_off', channel=3, note=55, velocity=64, time=212),
    Message('note_off', channel=3, note=59, velocity=64, time=44),
    Message('note_on', channel=3, note=55, velocity=50, time=4),
    Message('note_off', channel=3, note=64, velocity=64, time=152),
    Message('note_off', channel=3, note=40, velocity=64, time=12),
    Message('note_off', channel=3, note=52, velocity=64, time=4),
    Message('note_off', channel=3, note=55, velocity=64, time=16),
    Message('note_on', channel=3, note=67, velocity=60, time=44),
    Message('note_on', channel=3, note=43, velocity=54, time=0),
    Message('note_on', channel=3, note=59, velocity=60, time=0),
    Message('note_on', channel=3, note=50, velocity=60, time=0),
    Message('note_off', channel=3, note=59, velocity=64, time=244),
    Message('note_off', channel=3, note=67, velocity=64, time=0),
    Message('note_on', channel=3, note=67, velocity=54, time=4),
    Message('note_on', channel=3, note=59, velocity=29, time=8),
    Message('note_off', channel=3, note=59, velocity=64, time=220),
    Message('note_off', channel=3, note=67, velocity=64, time=0),
    Message('note_on', channel=3, note=67, velocity=60, time=4),
    Message('note_on', channel=3, note=55, velocity=45, time=0),
    Message('note_on', channel=3, note=59, velocity=68, time=4),
    Message('note_off', channel=3, note=59, velocity=64, time=216),
    Message('note_off', channel=3, note=55, velocity=64, time=40),
    Message('note_on', channel=3, note=55, velocity=70, time=8),
    Message('note_on', channel=3, note=59, velocity=61, time=4),
    Message('note_off', channel=3, note=67, velocity=64, time=168),
    Message('note_off', channel=3, note=55, velocity=64, time=32),
    Message('note_off', channel=3, note=59, velocity=64, time=0),
    Message('note_on', channel=3, note=59, velocity=68, time=4),
    Message('note_on', channel=3, note=67, velocity=60, time=4),
    Message('note_on', channel=3, note=55, velocity=60, time=0),
    Message('note_off', channel=3, note=55, velocity=64, time=212),
    Message('note_on', channel=3, note=55, velocity=67, time=52),
    Message('note_off', channel=3, note=59, velocity=64, time=116),
    Message('note_off', channel=3, note=50, velocity=64, time=20),
    Message('note_off', channel=3, note=43, velocity=64, time=16),
    Message('note_off', channel=3, note=67, velocity=64, time=4),
    Message('note_off', channel=3, note=55, velocity=64, time=28),
    Message('note_on', channel=3, note=43, velocity=43, time=12),
    Message('note_on', channel=3, note=47, velocity=45, time=8),
    Message('note_on', channel=3, note=50, velocity=54, time=8),
    Message('note_on', channel=3, note=55, velocity=54, time=8),
    Message('note_on', channel=3, note=59, velocity=54, time=8),
    Message('note_on', channel=3, note=67, velocity=54, time=8),
    Message('note_off', channel=3, note=67, velocity=64, time=412),
    Message('note_off', channel=3, note=59, velocity=64, time=0),
    Message('note_off', channel=3, note=55, velocity=64, time=0),
    Message('note_off', channel=3, note=50, velocity=64, time=0),
    Message('note_off', channel=3, note=47, velocity=64, time=0),
    Message('note_off', channel=3, note=43, velocity=64, time=0),
    Message('note_on', channel=3, note=49, velocity=45, time=28),
    Message('note_on', channel=3, note=54, velocity=54, time=8),
    Message('note_on', channel=3, note=57, velocity=54, time=12),
    Message('note_on', channel=3, note=61, velocity=54, time=8),
    Message('note_on', channel=3, note=66, velocity=54, time=12),
    Message('note_off', channel=3, note=66, velocity=64, time=412),
    Message('note_off', channel=3, note=61, velocity=64, time=0),
    Message('note_off', channel=3, note=57, velocity=64, time=0),
    Message('note_off', channel=3, note=54, velocity=64, time=0),
    Message('note_off', channel=3, note=49, velocity=64, time=0),
    Message('note_on', channel=3, note=47, velocity=45, time=28),
    Message('note_on', channel=3, note=52, velocity=54, time=8),
    Message('note_on', channel=3, note=55, velocity=54, time=12),
    Message('note_on', channel=3, note=59, velocity=54, time=8),
    Message('note_on', channel=3, note=64, velocity=54, time=12),
    Message('note_off', channel=3, note=64, velocity=64, time=184),
    Message('note_off', channel=3, note=59, velocity=64, time=0),
    Message('note_off', channel=3, note=55, velocity=64, time=0),
    Message('note_off', channel=3, note=52, velocity=64, time=0),
    Message('note_off', channel=3, note=47, velocity=64, time=0),
    Message('note_on', channel=3, note=64, velocity=31, time=20),
    Message('note_on', channel=3, note=59, velocity=36, time=8),
    Message('note_on', channel=3, note=55, velocity=36, time=8),
    Message('note_on', channel=3, note=52, velocity=31, time=8),
    Message('note_on', channel=3, note=47, velocity=22, time=8),
    Message('note_on', channel=3, note=40, velocity=4, time=8),
    Message('note_off', channel=3, note=40, velocity=64, time=192),
    Message('note_off', channel=3, note=47, velocity=64, time=0),
    Message('note_off', channel=3, note=52, velocity=64, time=0),
    Message('note_off', channel=3, note=55, velocity=64, time=0),
    Message('note_off', channel=3, note=59, velocity=64, time=0),
    Message('note_off', channel=3, note=64, velocity=64, time=0),
    Message('note_on', channel=3, note=66, velocity=60, time=24),
    Message('note_on', channel=3, note=62, velocity=60, time=0),
    Message('note_on', channel=3, note=50, velocity=60, time=0),
    Message('note_off', channel=3, note=62, velocity=64, time=244),
    Message('note_off', channel=3, note=66, velocity=64, time=0),
    Message('note_on', channel=3, note=66, velocity=54, time=4),
    Message('note_on', channel=3, note=62, velocity=29, time=8),
    Message('note_off', channel=3, note=62, velocity=64, time=220),
    Message('note_off', channel=3, note=66, velocity=64, time=0),
    Message('note_on', channel=3, note=66, velocity=60, time=4),
    Message('note_on', channel=3, note=57, velocity=45, time=0),
    Message('note_on', channel=3, note=62, velocity=68, time=4),
    Message('note_off', channel=3, note=62, velocity=64, time=216),
    Message('note_off', channel=3, note=57, velocity=64, time=40),
    Message('note_on', channel=3, note=57, velocity=70, time=8),
    Message('note_on', channel=3, note=62, velocity=61, time=4),
    Message('note_off', channel=3, note=66, velocity=64, time=168),
    Message('note_off', channel=3, note=57, velocity=64, time=32),
    Message('note_off', channel=3, note=62, velocity=64, time=0),
    Message('note_on', channel=3, note=62, velocity=68, time=4),
    Message('note_on', channel=3, note=66, velocity=60, time=4),
    Message('note_on', channel=3, note=57, velocity=60, time=0),
    Message('note_off', channel=3, note=57, velocity=64, time=212),
    Message('note_on', channel=3, note=57, velocity=67, time=52),
    Message('note_off', channel=3, note=62, velocity=64, time=116),
    Message('note_off', channel=3, note=50, velocity=64, time=20),
    Message('note_off', channel=3, note=66, velocity=64, time=20),
    Message('note_off', channel=3, note=57, velocity=64, time=28),
    Message('note_on', channel=3, note=50, velocity=71, time=24),
    Message('note_off', channel=3, note=50, velocity=64, time=8),
    Message('note_on', channel=3, note=57, velocity=55, time=4),
    Message('note_on', channel=3, note=50, velocity=55, time=4),
    Message('note_on', channel=3, note=62, velocity=63, time=8),
    Message('note_off', channel=3, note=62, velocity=64, time=408),
    Message('note_off', channel=3, note=57, velocity=64, time=4),
    Message('note_on', channel=3, note=57, velocity=64, time=44),
    Message('note_on', channel=3, note=62, velocity=69, time=4),
    Message('note_off', channel=3, note=62, velocity=64, time=212),
    Message('note_off', channel=3, note=57, velocity=64, time=32),
    Message('note_on', channel=3, note=57, velocity=52, time=4),
    Message('note_on', channel=3, note=62, velocity=50, time=4),
    Message('note_off', channel=3, note=50, velocity=64, time=192),
    Message('note_off', channel=3, note=57, velocity=64, time=28),
    Message('note_off', channel=3, note=62, velocity=64, time=0),
    Message('note_on', channel=3, note=57, velocity=64, time=4),
    Message('note_on', channel=3, note=50, velocity=64, time=0),
    Message('note_on', channel=3, note=62, velocity=54, time=4),
    Message('note_off', channel=3, note=62, velocity=64, time=212),
    Message('note_off', channel=3, note=57, velocity=64, time=40),
    Message('note_on', channel=3, note=57, velocity=53, time=4),
    Message('note_on', channel=3, note=62, velocity=50, time=12),
    Message('note_off', channel=3, note=50, velocity=64, time=108),
    Message('note_off', channel=3, note=57, velocity=64, time=80),
    Message('note_off', channel=3, note=62, velocity=64, time=4),
    Message('note_on', channel=3, note=40, velocity=55, time=24),
    Message('note_on', channel=3, note=52, velocity=61, time=0),
    Message('note_on', channel=3, note=55, velocity=69, time=8),
    Message('note_on', channel=3, note=59, velocity=61, time=8),
    Message('note_on', channel=3, note=64, velocity=51, time=8),
    Message('note_off', channel=3, note=64, velocity=64, time=412),
    Message('note_off', channel=3, note=55, velocity=64, time=24),
    Message('note_on', channel=3, note=64, velocity=61, time=20),
    Message('note_on', channel=3, note=55, velocity=61, time=0),
    Message('note_off', channel=3, note=55, velocity=64, time=188),
    Message('note_off', channel=3, note=64, velocity=64, time=64),
    Message('note_on', channel=3, note=55, velocity=60, time=4),
    Message('note_off', channel=3, note=55, velocity=64, time=220),
    Message('note_on', channel=3, note=64, velocity=62, time=4),
    Message('note_on', channel=3, note=55, velocity=50, time=0),
    Message('note_off', channel=3, note=55, velocity=64, time=188),
    Message('note_off', channel=3, note=64, velocity=64, time=52),
    Message('note_on', channel=3, note=55, velocity=47, time=4),
    Message('note_on', channel=3, note=64, velocity=41, time=4),
    Message('note_off', channel=3, note=40, velocity=64, time=180),
    Message('note_off', channel=3, note=52, velocity=64, time=4),
    Message('note_off', channel=3, note=55, velocity=64, time=8),
    Message('note_off', channel=3, note=59, velocity=64, time=8),
    Message('note_off', channel=3, note=64, velocity=64, time=0),
    Message('note_on', channel=3, note=62, velocity=59, time=24),
    Message('note_on', channel=3, note=50, velocity=59, time=0),
    Message('note_on', channel=3, note=66, velocity=59, time=0),
    Message('note_off', channel=3, note=62, velocity=64, time=432),
    Message('note_on', channel=3, note=57, velocity=59, time=48),
    Message('note_on', channel=3, note=62, velocity=59, time=0),
    Message('note_off', channel=3, note=57, velocity=64, time=240),
    Message('note_off', channel=3, note=62, velocity=64, time=20),
    Message('note_on', channel=3, note=57, velocity=38, time=4),
    Message('note_on', channel=3, note=62, velocity=44, time=0),
    Message('note_off', channel=3, note=57, velocity=64, time=172),
    Message('note_off', channel=3, note=50, velocity=64, time=4),
    Message('note_off', channel=3, note=66, velocity=64, time=24),
    Message('note_off', channel=3, note=62, velocity=64, time=0),
    Message('note_on', channel=3, note=47, velocity=45, time=4),
    Message('note_on', channel=3, note=52, velocity=54, time=8),
    Message('note_on', channel=3, note=55, velocity=54, time=12),
    Message('note_on', channel=3, note=59, velocity=54, time=8),
    Message('note_on', channel=3, note=64, velocity=54, time=12),
    Message('note_off', channel=3, note=64, velocity=64, time=184),
    Message('note_off', channel=3, note=59, velocity=64, time=0),
    Message('note_off', channel=3, note=55, velocity=64, time=0),
    Message('note_off', channel=3, note=52, velocity=64, time=0),
    Message('note_off', channel=3, note=47, velocity=64, time=0),
    Message('note_on', channel=3, note=50, velocity=54, time=256),
    Message('note_on', channel=3, note=57, velocity=54, time=12),
    Message('note_on', channel=3, note=62, velocity=54, time=12),
    Message('note_on', channel=3, note=66, velocity=54, time=12),
    Message('note_off', channel=3, note=66, velocity=64, time=416),
    Message('note_off', channel=3, note=62, velocity=64, time=0),
    Message('note_off', channel=3, note=57, velocity=64, time=0),
    Message('note_off', channel=3, note=50, velocity=64, time=0),
    Message('note_on', channel=3, note=47, velocity=45, time=28),
    Message('note_on', channel=3, note=52, velocity=54, time=8),
    Message('note_on', channel=3, note=55, velocity=54, time=12),
    Message('note_on', channel=3, note=59, velocity=54, time=8),
    Message('note_on', channel=3, note=64, velocity=54, time=12),
    Message('note_off', channel=3, note=64, velocity=64, time=412),
    Message('note_off', channel=3, note=59, velocity=64, time=0),
    Message('note_off', channel=3, note=55, velocity=64, time=0),
    Message('note_off', channel=3, note=52, velocity=64, time=0),
    Message('note_off', channel=3, note=47, velocity=64, time=0),
    Message('note_on', channel=3, note=57, velocity=54, time=28),
    Message('note_on', channel=3, note=62, velocity=54, time=16),
    Message('note_on', channel=3, note=66, velocity=54, time=16),
    Message('note_off', channel=3, note=66, velocity=64, time=192),
    Message('note_off', channel=3, note=62, velocity=64, time=0),
    Message('note_off', channel=3, note=57, velocity=64, time=0),
    Message('note_on', channel=3, note=64, velocity=60, time=276),
    Message('note_on', channel=3, note=40, velocity=54, time=0),
    Message('note_on', channel=3, note=59, velocity=60, time=0),
    Message('note_on', channel=3, note=52, velocity=60, time=0),
    Message('note_off', channel=3, note=59, velocity=64, time=244),
    Message('note_off', channel=3, note=64, velocity=64, time=0),
    Message('note_on', channel=3, note=64, velocity=54, time=4),
    Message('note_on', channel=3, note=59, velocity=29, time=8),
    Message('note_off', channel=3, note=59, velocity=64, time=220),
    Message('note_off', channel=3, note=64, velocity=64, time=0),
    Message('note_on', channel=3, note=64, velocity=60, time=4),
    Message('note_on', channel=3, note=55, velocity=45, time=0),
    Message('note_on', channel=3, note=59, velocity=68, time=4),
    Message('note_off', channel=3, note=59, velocity=64, time=216),
    Message('note_off', channel=3, note=55, velocity=64, time=40),
    Message('note_on', channel=3, note=55, velocity=70, time=8),
    Message('note_on', channel=3, note=59, velocity=61, time=4),
    Message('note_off', channel=3, note=64, velocity=64, time=168),
    Message('note_off', channel=3, note=55, velocity=64, time=32),
    Message('note_off', channel=3, note=59, velocity=64, time=0),
    Message('note_on', channel=3, note=59, velocity=68, time=4),
    Message('note_on', channel=3, note=64, velocity=60, time=4),
    Message('note_on', channel=3, note=55, velocity=60, time=0),
    Message('note_off', channel=3, note=55, velocity=64, time=212),
    Message('note_on', channel=3, note=55, velocity=67, time=52),
    Message('note_off', channel=3, note=59, velocity=64, time=116),
    Message('note_off', channel=3, note=52, velocity=64, time=20),
    Message('note_off', channel=3, note=40, velocity=64, time=16),
    Message('note_off', channel=3, note=64, velocity=64, time=4),
    Message('note_off', channel=3, note=55, velocity=64, time=48),
    Message('note_on', channel=3, note=52, velocity=68, time=4),
    Message('note_on', channel=3, note=64, velocity=60, time=8),
    Message('note_on', channel=3, note=55, velocity=60, time=0),
    Message('note_on', channel=3, note=59, velocity=60, time=0),
    Message('note_on', channel=3, note=40, velocity=54, time=4),
    Message('note_off', channel=3, note=55, velocity=64, time=208),
    Message('note_off', channel=3, note=64, velocity=64, time=40),
    Message('note_off', channel=3, note=59, velocity=64, time=0),
    Message('note_on', channel=3, note=55, velocity=57, time=4),
    Message('note_on', channel=3, note=59, velocity=68, time=0),
    Message('note_off', channel=3, note=59, velocity=64, time=220),
    Message('note_off', channel=3, note=55, velocity=64, time=0),
    Message('note_on', channel=3, note=64, velocity=60, time=4),
    Message('note_on', channel=3, note=55, velocity=60, time=0),
    Message('note_on', channel=3, note=59, velocity=60, time=0),
    Message('note_off', channel=3, note=52, velocity=64, time=408),
    Message('note_off', channel=3, note=64, velocity=64, time=28),
    Message('note_off', channel=3, note=55, velocity=64, time=0),
    Message('note_off', channel=3, note=59, velocity=64, time=0),
    Message('note_on', channel=3, note=64, velocity=60, time=44),
    Message('note_on', channel=3, note=55, velocity=60, time=0),
    Message('note_on', channel=3, note=59, velocity=60, time=0),
    Message('note_on', channel=3, note=52, velocity=68, time=4),
    Message('note_off', channel=3, note=59, velocity=64, time=220),
    Message('note_off', channel=3, note=64, velocity=64, time=0),
    Message('note_on', channel=3, note=64, velocity=48, time=24),
    Message('note_on', channel=3, note=59, velocity=57, time=0),
    Message('note_off', channel=3, note=40, velocity=64, time=64),
    Message('note_off', channel=3, note=55, velocity=64, time=140),
    Message('note_off', channel=3, note=52, velocity=64, time=0),
    Message('note_off', channel=3, note=64, velocity=64, time=0),
    Message('note_off', channel=3, note=59, velocity=64, time=0),
    Message('note_on', channel=3, note=55, velocity=60, time=28),
    Message('note_on', channel=3, note=40, velocity=54, time=0),
    Message('note_on', channel=3, note=59, velocity=60, time=0),
    Message('note_on', channel=3, note=52, velocity=60, time=0),
    Message('note_off', channel=3, note=59, velocity=64, time=252),
    Message('note_off', channel=3, note=55, velocity=64, time=0),
    Message('note_on', channel=3, note=64, velocity=44, time=4),
    Message('note_on', channel=3, note=59, velocity=60, time=0),
    Message('note_off', channel=3, note=59, velocity=64, time=220),
    Message('note_off', channel=3, note=64, velocity=64, time=0),
    Message('note_on', channel=3, note=64, velocity=60, time=4),
    Message('note_on', channel=3, note=55, velocity=45, time=0),
    Message('note_on', channel=3, note=59, velocity=68, time=4),
    Message('note_off', channel=3, note=59, velocity=64, time=252),
    Message('note_off', channel=3, note=55, velocity=64, time=0),
    Message('note_off', channel=3, note=64, velocity=64, time=0),
    Message('note_on', channel=3, note=59, velocity=29, time=4),
    Message('note_on', channel=3, note=64, velocity=44, time=4),
    Message('note_off', channel=3, note=64, velocity=64, time=208),
    Message('note_off', channel=3, note=59, velocity=64, time=0),
    Message('note_on', channel=3, note=59, velocity=68, time=4),
    Message('note_on', channel=3, note=64, velocity=60, time=4),
    Message('note_on', channel=3, note=55, velocity=60, time=0),
    Message('note_off', channel=3, note=59, velocity=64, time=204),
    Message('note_off', channel=3, note=55, velocity=64, time=8),
    Message('note_off', channel=3, note=64, velocity=64, time=28),
    Message('note_on', channel=3, note=55, velocity=67, time=0),
    Message('note_on', channel=3, note=59, velocity=50, time=4),
    Message('note_off', channel=3, note=40, velocity=64, time=144),
    Message('note_off', channel=3, note=52, velocity=64, time=24),
    Message('note_off', channel=3, note=55, velocity=64, time=36),
    Message('note_off', channel=3, note=59, velocity=64, time=20),
    Message('note_on', channel=3, note=52, velocity=68, time=4),
    Message('note_on', channel=3, note=59, velocity=60, time=8),
    Message('note_on', channel=3, note=64, velocity=60, time=0),
    Message('note_on', channel=3, note=55, velocity=60, time=0),
    Message('note_on', channel=3, note=40, velocity=54, time=4),
    Message('note_off', channel=3, note=55, velocity=64, time=208),
    Message('note_off', channel=3, note=59, velocity=64, time=36),
    Message('note_on', channel=3, note=59, velocity=57, time=4),
    Message('note_on', channel=3, note=55, velocity=76, time=12),
    Message('note_off', channel=3, note=64, velocity=64, time=124),
    Message('note_off', channel=3, note=59, velocity=64, time=88),
    Message('note_off', channel=3, note=55, velocity=64, time=0),
    Message('note_on', channel=3, note=59, velocity=60, time=4),
    Message('note_on', channel=3, note=64, velocity=60, time=0),
    Message('note_on', channel=3, note=55, velocity=60, time=0),
    Message('note_off', channel=3, note=52, velocity=64, time=392),
    Message('note_off', channel=3, note=59, velocity=64, time=44),
    Message('note_off', channel=3, note=64, velocity=64, time=0),
    Message('note_off', channel=3, note=55, velocity=64, time=0),
    Message('note_off', channel=3, note=40, velocity=64, time=8),
    Message('note_on', channel=3, note=59, velocity=60, time=36),
    Message('note_on', channel=3, note=64, velocity=73, time=0),
    Message('note_on', channel=3, note=55, velocity=69, time=0),
    Message('note_on', channel=3, note=52, velocity=68, time=4),
    Message('note_off', channel=3, note=64, velocity=64, time=220),
    Message('note_off', channel=3, note=59, velocity=64, time=0),
    Message('note_on', channel=3, note=64, velocity=48, time=24),
    Message('note_on', channel=3, note=59, velocity=57, time=0),
    Message('note_off', channel=3, note=59, velocity=64, time=204),
    Message('note_off', channel=3, note=55, velocity=64, time=0),
    Message('note_off', channel=3, note=52, velocity=64, time=0),
    Message('note_off', channel=3, note=64, velocity=64, time=0),
    Message('note_on', channel=3, note=55, velocity=45, time=20),
    Message('note_on', channel=3, note=52, velocity=59, time=8),
    Message('note_on', channel=3, note=40, velocity=47, time=0),
    Message('note_on', channel=3, note=59, velocity=45, time=4),
    Message('note_on', channel=3, note=64, velocity=68, time=4),
    Message('note_off', channel=3, note=55, velocity=64, time=412),
    Message('note_off', channel=3, note=52, velocity=64, time=52),
    Message('note_on', channel=3, note=52, velocity=59, time=8),
    Message('note_on', channel=3, note=55, velocity=59, time=0),
    Message('note_off', channel=3, note=59, velocity=64, time=172),
    Message('note_off', channel=3, note=55, velocity=64, time=68),
    Message('note_off', channel=3, note=52, velocity=64, time=8),
    Message('note_on', channel=3, note=55, velocity=59, time=4),
    Message('note_on', channel=3, note=59, velocity=59, time=4),
    Message('note_off', channel=3, note=55, velocity=64, time=220),
    Message('note_on', channel=3, note=52, velocity=59, time=4),
    Message('note_on', channel=3, note=55, velocity=59, time=0),
    Message('note_off', channel=3, note=59, velocity=64, time=128),
    Message('note_off', channel=3, note=55, velocity=64, time=104),
    Message('note_on', channel=3, note=55, velocity=59, time=8),
    Message('note_off', channel=3, note=52, velocity=64, time=16),
    Message('note_on', channel=3, note=59, velocity=59, time=4),
    Message('note_off', channel=3, note=64, velocity=64, time=140),
    Message('note_off', channel=3, note=55, velocity=64, time=60),
    Message('note_off', channel=3, note=59, velocity=64, time=16),
    Message('note_off', channel=3, note=40, velocity=64, time=4),
    Message('note_on', channel=3, note=52, velocity=59, time=0),
    Message('note_on', channel=3, note=55, velocity=59, time=0),
    Message('note_on', channel=3, note=59, velocity=59, time=0),
    Message('note_on', channel=3, note=64, velocity=73, time=4),
    Message('note_on', channel=3, note=40, velocity=58, time=0),
    Message('note_off', channel=3, note=59, velocity=64, time=252),
    Message('note_off', channel=3, note=55, velocity=64, time=0),
    Message('note_off', channel=3, note=52, velocity=64, time=0),
    Message('note_on', channel=3, note=52, velocity=59, time=224),
    Message('note_on', channel=3, note=55, velocity=59, time=0),
    Message('note_on', channel=3, note=59, velocity=59, time=24),
    Message('note_off', channel=3, note=59, velocity=64, time=448),
    Message('note_off', channel=3, note=55, velocity=64, time=4),
    Message('note_off', channel=3, note=52, velocity=64, time=0),
    Message('note_on', channel=3, note=52, velocity=59, time=4),
    Message('note_on', channel=3, note=55, velocity=59, time=4),
    Message('note_on', channel=3, note=59, velocity=59, time=8),
    Message('note_off', channel=3, note=40, velocity=64, time=164),
    Message('note_off', channel=3, note=64, velocity=64, time=116),
    Message('note_off', channel=3, note=52, velocity=64, time=160),
    Message('note_off', channel=3, note=55, velocity=64, time=0),
    Message('note_off', channel=3, note=59, velocity=64, time=0),
    Message('note_on', channel=3, note=50, velocity=71, time=20),
    Message('note_off', channel=3, note=50, velocity=64, time=8),
    Message('note_on', channel=3, note=57, velocity=55, time=4),
    Message('note_on', channel=3, note=50, velocity=55, time=4),
    Message('note_on', channel=3, note=62, velocity=63, time=8),
    Message('note_off', channel=3, note=62, velocity=64, time=408),
    Message('note_off', channel=3, note=57, velocity=64, time=4),
    Message('note_on', channel=3, note=57, velocity=64, time=44),
    Message('note_on', channel=3, note=62, velocity=69, time=4),
    Message('note_off', channel=3, note=62, velocity=64, time=212),
    Message('note_off', channel=3, note=57, velocity=64, time=32),
    Message('note_on', channel=3, note=57, velocity=52, time=4),
    Message('note_on', channel=3, note=62, velocity=50, time=4),
    Message('note_off', channel=3, note=50, velocity=64, time=192),
    Message('note_off', channel=3, note=57, velocity=64, time=28),
    Message('note_off', channel=3, note=62, velocity=64, time=0),
    Message('note_on', channel=3, note=57, velocity=64, time=4),
    Message('note_on', channel=3, note=50, velocity=64, time=0),
    Message('note_on', channel=3, note=62, velocity=54, time=4),
    Message('note_off', channel=3, note=62, velocity=64, time=212),
    Message('note_off', channel=3, note=57, velocity=64, time=40),
    Message('note_on', channel=3, note=57, velocity=53, time=4),
    Message('note_on', channel=3, note=62, velocity=50, time=12),
    Message('note_off', channel=3, note=50, velocity=64, time=108),
    Message('note_off', channel=3, note=57, velocity=64, time=80),
    Message('note_off', channel=3, note=62, velocity=64, time=4),
    Message('note_on', channel=3, note=64, velocity=61, time=24),
    Message('note_on', channel=3, note=40, velocity=55, time=0),
    Message('note_on', channel=3, note=59, velocity=61, time=0),
    Message('note_on', channel=3, note=52, velocity=61, time=0),
    Message('note_off', channel=3, note=64, velocity=64, time=432),
    Message('note_on', channel=3, note=64, velocity=61, time=48),
    Message('note_on', channel=3, note=55, velocity=61, time=0),
    Message('note_off', channel=3, note=55, velocity=64, time=240),
    Message('note_off', channel=3, note=64, velocity=64, time=20),
    Message('note_on', channel=3, note=55, velocity=47, time=4),
    Message('note_on', channel=3, note=64, velocity=63, time=4),
    Message('note_off', channel=3, note=64, velocity=64, time=208),
    Message('note_off', channel=3, note=55, velocity=64, time=0),
    Message('note_on', channel=3, note=64, velocity=61, time=4),
    Message('note_on', channel=3, note=55, velocity=61, time=0),
    Message('note_off', channel=3, note=55, velocity=64, time=240),
    Message('note_off', channel=3, note=64, velocity=64, time=16),
    Message('note_on', channel=3, note=55, velocity=60, time=4),
    Message('note_off', channel=3, note=55, velocity=64, time=172),
    Message('note_off', channel=3, note=40, velocity=64, time=4),
    Message('note_off', channel=3, note=52, velocity=64, time=0),
    Message('note_off', channel=3, note=59, velocity=64, time=4),
    Message('note_on', channel=3, note=64, velocity=60, time=40),
    Message('note_on', channel=3, note=40, velocity=54, time=0),
    Message('note_on', channel=3, note=59, velocity=60, time=0),
    Message('note_on', channel=3, note=52, velocity=60, time=0),
    Message('note_off', channel=3, note=59, velocity=64, time=244),
    Message('note_off', channel=3, note=64, velocity=64, time=0),
    Message('note_on', channel=3, note=64, velocity=54, time=4),
    Message('note_on', channel=3, note=59, velocity=29, time=8),
    Message('note_off', channel=3, note=59, velocity=64, time=220),
    Message('note_off', channel=3, note=64, velocity=64, time=0),
    Message('note_on', channel=3, note=64, velocity=60, time=4),
    Message('note_on', channel=3, note=55, velocity=45, time=0),
    Message('note_on', channel=3, note=59, velocity=68, time=4),
    Message('note_off', channel=3, note=59, velocity=64, time=216),
    Message('note_off', channel=3, note=55, velocity=64, time=40),
    Message('note_on', channel=3, note=55, velocity=70, time=8),
    Message('note_on', channel=3, note=59, velocity=61, time=4),
    Message('note_off', channel=3, note=64, velocity=64, time=168),
    Message('note_off', channel=3, note=55, velocity=64, time=32),
    Message('note_off', channel=3, note=59, velocity=64, time=0),
    Message('note_on', channel=3, note=59, velocity=68, time=4),
    Message('note_on', channel=3, note=64, velocity=60, time=4),
    Message('note_on', channel=3, note=55, velocity=60, time=0),
    Message('note_off', channel=3, note=55, velocity=64, time=212),
    Message('note_on', channel=3, note=55, velocity=67, time=52),
    Message('note_off', channel=3, note=59, velocity=64, time=116),
    Message('note_off', channel=3, note=52, velocity=64, time=20),
    Message('note_off', channel=3, note=40, velocity=64, time=16),
    Message('note_off', channel=3, note=64, velocity=64, time=4),
    Message('note_off', channel=3, note=55, velocity=64, time=28),
    Message('note_on', channel=3, note=43, velocity=56, time=24),
    Message('note_on', channel=3, note=55, velocity=55, time=12),
    Message('note_on', channel=3, note=50, velocity=55, time=4),
    Message('note_on', channel=3, note=59, velocity=63, time=8),
    Message('note_off', channel=3, note=59, velocity=64, time=408),
    Message('note_off', channel=3, note=55, velocity=64, time=4),
    Message('note_on', channel=3, note=55, velocity=64, time=44),
    Message('note_on', channel=3, note=59, velocity=69, time=4),
    Message('note_off', channel=3, note=59, velocity=64, time=212),
    Message('note_off', channel=3, note=55, velocity=64, time=32),
    Message('note_on', channel=3, note=55, velocity=52, time=4),
    Message('note_on', channel=3, note=59, velocity=50, time=4),
    Message('note_off', channel=3, note=50, velocity=64, time=192),
    Message('note_off', channel=3, note=55, velocity=64, time=28),
    Message('note_off', channel=3, note=59, velocity=64, time=0),
    Message('note_on', channel=3, note=55, velocity=64, time=4),
    Message('note_on', channel=3, note=50, velocity=64, time=0),
    Message('note_on', channel=3, note=59, velocity=54, time=4),
    Message('note_off', channel=3, note=59, velocity=64, time=212),
    Message('note_off', channel=3, note=55, velocity=64, time=40),
    Message('note_on', channel=3, note=55, velocity=53, time=4),
    Message('note_on', channel=3, note=59, velocity=50, time=12),
    Message('note_off', channel=3, note=50, velocity=64, time=108),
    Message('note_off', channel=3, note=43, velocity=64, time=68),
    Message('note_off', channel=3, note=55, velocity=64, time=12),
    Message('note_off', channel=3, note=59, velocity=64, time=4),
    Message('note_on', channel=3, note=59, velocity=59, time=16),
    Message('note_on', channel=3, note=40, velocity=53, time=0),
    Message('note_on', channel=3, note=52, velocity=59, time=0),
    Message('note_on', channel=3, note=64, velocity=59, time=0),
    Message('note_off', channel=3, note=59, velocity=64, time=432),
    Message('note_on', channel=3, note=55, velocity=59, time=48),
    Message('note_on', channel=3, note=59, velocity=59, time=0),
    Message('note_off', channel=3, note=55, velocity=64, time=240),
    Message('note_off', channel=3, note=59, velocity=64, time=20),
    Message('note_on', channel=3, note=55, velocity=38, time=4),
    Message('note_on', channel=3, note=59, velocity=44, time=0),
    Message('note_off', channel=3, note=59, velocity=64, time=212),
    Message('note_off', channel=3, note=55, velocity=64, time=0),
    Message('note_on', channel=3, note=55, velocity=59, time=4),
    Message('note_on', channel=3, note=59, velocity=59, time=0),
    Message('note_off', channel=3, note=55, velocity=64, time=212),
    Message('note_off', channel=3, note=59, velocity=64, time=44),
    Message('note_on', channel=3, note=55, velocity=50, time=4),
    Message('note_off', channel=3, note=64, velocity=64, time=152),
    Message('note_off', channel=3, note=40, velocity=64, time=12),
    Message('note_off', channel=3, note=52, velocity=64, time=4),
    Message('note_off', channel=3, note=55, velocity=64, time=16),
    Message('note_on', channel=3, note=43, velocity=43, time=24),
    Message('note_on', channel=3, note=47, velocity=45, time=8),
    Message('note_on', channel=3, note=50, velocity=54, time=8),
    Message('note_on', channel=3, note=55, velocity=54, time=8),
    Message('note_on', channel=3, note=59, velocity=54, time=8),
    Message('note_on', channel=3, note=67, velocity=54, time=8),
    Message('note_off', channel=3, note=67, velocity=64, time=412),
    Message('note_off', channel=3, note=59, velocity=64, time=0),
    Message('note_off', channel=3, note=55, velocity=64, time=0),
    Message('note_off', channel=3, note=50, velocity=64, time=0),
    Message('note_off', channel=3, note=47, velocity=64, time=0),
    Message('note_off', channel=3, note=43, velocity=64, time=0),
    Message('note_on', channel=3, note=52, velocity=54, time=28),
    Message('note_on', channel=3, note=57, velocity=54, time=12),
    Message('note_on', channel=3, note=61, velocity=54, time=12),
    Message('note_on', channel=3, note=64, velocity=54, time=12),
    Message('note_off', channel=3, note=64, velocity=64, time=196),
    Message('note_off', channel=3, note=61, velocity=64, time=8),
    Message('note_on', channel=3, note=64, velocity=31, time=0),
    Message('note_on', channel=3, note=61, velocity=36, time=8),
    Message('note_off', channel=3, note=57, velocity=64, time=4),
    Message('note_on', channel=3, note=57, velocity=36, time=8),
    Message('note_off', channel=3, note=52, velocity=64, time=4),
    Message('note_on', channel=3, note=52, velocity=31, time=4),
    Message('note_on', channel=3, note=45, velocity=22, time=12),
    Message('note_off', channel=3, note=45, velocity=64, time=192),
    Message('note_off', channel=3, note=64, velocity=64, time=0),
    Message('note_off', channel=3, note=61, velocity=64, time=0),
    Message('note_off', channel=3, note=57, velocity=64, time=0),
    Message('note_off', channel=3, note=52, velocity=64, time=0),
    Message('note_on', channel=3, note=52, velocity=54, time=8),
    Message('note_on', channel=3, note=57, velocity=54, time=12),
    Message('note_on', channel=3, note=61, velocity=54, time=12),
    Message('note_on', channel=3, note=64, velocity=54, time=12),
    Message('note_off', channel=3, note=64, velocity=64, time=188),
    Message('note_off', channel=3, note=61, velocity=64, time=0),
    Message('note_off', channel=3, note=57, velocity=64, time=0),
    Message('note_off', channel=3, note=52, velocity=64, time=0),
    Message('note_on', channel=3, note=64, velocity=31, time=20),
    Message('note_on', channel=3, note=61, velocity=36, time=8),
    Message('note_on', channel=3, note=57, velocity=36, time=12),
    Message('note_on', channel=3, note=52, velocity=31, time=8),
    Message('note_on', channel=3, note=45, velocity=22, time=12),
    Message('note_off', channel=3, note=45, velocity=64, time=192),
    Message('note_off', channel=3, note=52, velocity=64, time=0),
    Message('note_off', channel=3, note=57, velocity=64, time=0),
    Message('note_off', channel=3, note=61, velocity=64, time=0),
    Message('note_off', channel=3, note=64, velocity=64, time=0),
    Message('note_on', channel=3, note=40, velocity=46, time=4),
    Message('note_on', channel=3, note=47, velocity=49, time=8),
    Message('note_on', channel=3, note=52, velocity=58, time=8),
    Message('note_on', channel=3, note=55, velocity=58, time=8),
    Message('note_on', channel=3, note=59, velocity=58, time=8),
    Message('note_on', channel=3, note=64, velocity=58, time=8),
    Message('note_off', channel=3, note=47, velocity=64, time=428),
    Message('note_off', channel=3, note=52, velocity=64, time=8),
    Message('note_on', channel=3, note=47, velocity=38, time=0),
    Message('note_on', channel=3, note=52, velocity=45, time=8),
    Message('note_off', channel=3, note=55, velocity=64, time=4),
    Message('note_on', channel=3, note=55, velocity=45, time=8),
    Message('note_off', channel=3, note=40, velocity=64, time=4),
    Message('note_off', channel=3, note=59, velocity=64, time=0),
    Message('note_off', channel=3, note=64, velocity=64, time=0),
    Message('note_on', channel=3, note=59, velocity=45, time=4),
    Message('note_on', channel=3, note=64, velocity=45, time=12),
    Message('note_off', channel=3, note=64, velocity=64, time=220),
    Message('note_on', channel=3, note=64, velocity=32, time=8),
    Message('note_off', channel=3, note=47, velocity=64, time=4),
    Message('note_off', channel=3, note=52, velocity=64, time=0),
    Message('note_off', channel=3, note=55, velocity=64, time=0),
    Message('note_off', channel=3, note=59, velocity=64, time=0),
    Message('note_on', channel=3, note=59, velocity=36, time=4),
    Message('note_on', channel=3, note=55, velocity=36, time=8),
    Message('note_on', channel=3, note=52, velocity=32, time=8),
    Message('note_on', channel=3, note=47, velocity=23, time=8),
    Message('note_on', channel=3, note=40, velocity=4, time=8),
    Message('note_off', channel=3, note=47, velocity=64, time=172),
    Message('note_off', channel=3, note=52, velocity=64, time=8),
    Message('note_on', channel=3, note=47, velocity=53, time=0),
    Message('note_on', channel=3, note=52, velocity=63, time=8),
    Message('note_off', channel=3, note=55, velocity=64, time=4),
    Message('note_off', channel=3, note=59, velocity=64, time=8),
    Message('note_on', channel=3, note=55, velocity=63, time=0),
    Message('note_on', channel=3, note=59, velocity=63, time=8),
    Message('note_off', channel=3, note=64, velocity=64, time=4),
    Message('note_on', channel=3, note=64, velocity=63, time=8),
    Message('note_off', channel=3, note=40, velocity=64, time=32),
    Message('note_off', channel=3, note=64, velocity=64, time=164),
    Message('note_off', channel=3, note=59, velocity=64, time=8),
    Message('note_on', channel=3, note=64, velocity=35, time=0),
    Message('note_on', channel=3, note=59, velocity=40, time=8),
    Message('note_off', channel=3, note=47, velocity=64, time=4),
    Message('note_off', channel=3, note=52, velocity=64, time=0),
    Message('note_off', channel=3, note=55, velocity=64, time=0),
    Message('note_on', channel=3, note=55, velocity=40, time=4),
    Message('note_on', channel=3, note=52, velocity=35, time=8),
    Message('note_on', channel=3, note=47, velocity=25, time=8),
    Message('note_on', channel=3, note=40, velocity=5, time=8),
    Message('note_off', channel=3, note=40, velocity=64, time=180),
    Message('note_off', channel=3, note=47, velocity=64, time=8),
    Message('note_on', channel=3, note=40, velocity=40, time=0),
    Message('note_off', channel=3, note=52, velocity=64, time=8),
    Message('note_on', channel=3, note=47, velocity=43, time=0),
    Message('note_off', channel=3, note=55, velocity=64, time=8),
    Message('note_on', channel=3, note=52, velocity=51, time=0),
    Message('note_off', channel=3, note=59, velocity=64, time=8),
    Message('note_on', channel=3, note=55, velocity=51, time=0),
    Message('note_off', channel=3, note=64, velocity=64, time=8),
    Message('note_on', channel=3, note=59, velocity=51, time=0),
    Message('note_on', channel=3, note=64, velocity=51, time=8),
    Message('note_off', channel=3, note=64, velocity=64, time=392),
    Message('note_off', channel=3, note=40, velocity=64, time=0),
    Message('note_off', channel=3, note=47, velocity=64, time=0),
    Message('note_off', channel=3, note=52, velocity=64, time=0),
    Message('note_off', channel=3, note=55, velocity=64, time=0),
    Message('note_off', channel=3, note=59, velocity=64, time=0),
    Message('note_on', channel=3, note=47, velocity=56, time=48),
    Message('note_on', channel=3, note=52, velocity=66, time=8),
    Message('note_on', channel=3, note=55, velocity=66, time=12),
    Message('note_on', channel=3, note=59, velocity=66, time=8),
    Message('note_on', channel=3, note=64, velocity=66, time=12),
    Message('note_off', channel=3, note=47, velocity=64, time=432),
    Message('note_off', channel=3, note=52, velocity=64, time=8),
    Message('note_on', channel=3, note=47, velocity=56, time=0),
    Message('note_on', channel=3, note=52, velocity=66, time=8),
    Message('note_off', channel=3, note=55, velocity=64, time=4),
    Message('note_on', channel=3, note=55, velocity=66, time=8),
    Message('note_off', channel=3, note=59, velocity=64, time=4),
    Message('note_off', channel=3, note=64, velocity=64, time=0),
    Message('note_on', channel=3, note=59, velocity=66, time=4),
    Message('note_on', channel=3, note=64, velocity=66, time=12),
    Message('note_off', channel=3, note=64, velocity=64, time=436),
    Message('note_off', channel=3, note=47, velocity=64, time=0),
    Message('note_off', channel=3, note=52, velocity=64, time=0),
    Message('note_off', channel=3, note=55, velocity=64, time=0),
    Message('note_off', channel=3, note=59, velocity=64, time=0),
    Message('note_on', channel=3, note=64, velocity=60, time=28),
    Message('note_on', channel=3, note=40, velocity=54, time=0),
    Message('note_on', channel=3, note=59, velocity=60, time=0),
    Message('note_on', channel=3, note=52, velocity=60, time=0),
    Message('note_off', channel=3, note=59, velocity=64, time=244),
    Message('note_off', channel=3, note=64, velocity=64, time=0),
    Message('note_on', channel=3, note=64, velocity=54, time=4),
    Message('note_on', channel=3, note=59, velocity=29, time=8),
    Message('note_off', channel=3, note=59, velocity=64, time=220),
    Message('note_off', channel=3, note=64, velocity=64, time=0),
    Message('note_on', channel=3, note=64, velocity=60, time=4),
    Message('note_on', channel=3, note=55, velocity=45, time=0),
    Message('note_on', channel=3, note=59, velocity=68, time=4),
    Message('note_off', channel=3, note=59, velocity=64, time=216),
    Message('note_off', channel=3, note=55, velocity=64, time=40),
    Message('note_on', channel=3, note=55, velocity=70, time=8),
    Message('note_on', channel=3, note=59, velocity=61, time=4),
    Message('note_off', channel=3, note=64, velocity=64, time=168),
    Message('note_off', channel=3, note=55, velocity=64, time=32),
    Message('note_off', channel=3, note=59, velocity=64, time=0),
    Message('note_on', channel=3, note=59, velocity=68, time=4),
    Message('note_on', channel=3, note=64, velocity=60, time=4),
    Message('note_on', channel=3, note=55, velocity=60, time=0),
    Message('note_off', channel=3, note=55, velocity=64, time=212),
    Message('note_on', channel=3, note=55, velocity=67, time=52),
    Message('note_off', channel=3, note=59, velocity=64, time=116),
    Message('note_off', channel=3, note=52, velocity=64, time=20),
    Message('note_off', channel=3, note=40, velocity=64, time=16),
    Message('note_off', channel=3, note=64, velocity=64, time=4),
    Message('note_off', channel=3, note=55, velocity=64, time=48),
    Message('note_on', channel=3, note=52, velocity=68, time=4),
    Message('note_on', channel=3, note=64, velocity=60, time=8),
    Message('note_on', channel=3, note=55, velocity=60, time=0),
    Message('note_on', channel=3, note=59, velocity=60, time=0),
    Message('note_on', channel=3, note=40, velocity=54, time=4),
    Message('note_off', channel=3, note=55, velocity=64, time=208),
    Message('note_off', channel=3, note=64, velocity=64, time=40),
    Message('note_off', channel=3, note=59, velocity=64, time=0),
    Message('note_on', channel=3, note=55, velocity=57, time=4),
    Message('note_on', channel=3, note=59, velocity=68, time=0),
    Message('note_off', channel=3, note=59, velocity=64, time=220),
    Message('note_off', channel=3, note=55, velocity=64, time=0),
    Message('note_on', channel=3, note=64, velocity=60, time=4),
    Message('note_on', channel=3, note=55, velocity=60, time=0),
    Message('note_on', channel=3, note=59, velocity=60, time=0),
    Message('note_off', channel=3, note=52, velocity=64, time=408),
    Message('note_off', channel=3, note=64, velocity=64, time=28),
    Message('note_off', channel=3, note=55, velocity=64, time=0),
    Message('note_off', channel=3, note=59, velocity=64, time=0),
    Message('note_on', channel=3, note=64, velocity=60, time=44),
    Message('note_on', channel=3, note=55, velocity=60, time=0),
    Message('note_on', channel=3, note=59, velocity=60, time=0),
    Message('note_on', channel=3, note=52, velocity=68, time=4),
    Message('note_off', channel=3, note=59, velocity=64, time=220),
    Message('note_off', channel=3, note=64, velocity=64, time=0),
    Message('note_on', channel=3, note=64, velocity=48, time=24),
    Message('note_on', channel=3, note=59, velocity=57, time=0),
    Message('note_off', channel=3, note=40, velocity=64, time=64),
    Message('note_off', channel=3, note=55, velocity=64, time=140),
    Message('note_off', channel=3, note=52, velocity=64, time=0),
    Message('note_off', channel=3, note=64, velocity=64, time=0),
    Message('note_off', channel=3, note=59, velocity=64, time=0),
    Message('note_on', channel=3, note=55, velocity=45, time=20),
    Message('note_on', channel=3, note=52, velocity=59, time=8),
    Message('note_on', channel=3, note=40, velocity=47, time=0),
    Message('note_on', channel=3, note=59, velocity=45, time=4),
    Message('note_on', channel=3, note=64, velocity=68, time=4),
    Message('note_off', channel=3, note=55, velocity=64, time=412),
    Message('note_off', channel=3, note=52, velocity=64, time=52),
    Message('note_on', channel=3, note=52, velocity=59, time=8),
    Message('note_on', channel=3, note=55, velocity=59, time=0),
    Message('note_off', channel=3, note=59, velocity=64, time=172),
    Message('note_off', channel=3, note=55, velocity=64, time=68),
    Message('note_off', channel=3, note=52, velocity=64, time=8),
    Message('note_on', channel=3, note=55, velocity=59, time=4),
    Message('note_on', channel=3, note=59, velocity=59, time=4),
    Message('note_off', channel=3, note=55, velocity=64, time=220),
    Message('note_on', channel=3, note=52, velocity=59, time=4),
    Message('note_on', channel=3, note=55, velocity=59, time=0),
    Message('note_off', channel=3, note=59, velocity=64, time=128),
    Message('note_off', channel=3, note=55, velocity=64, time=104),
    Message('note_on', channel=3, note=55, velocity=59, time=8),
    Message('note_off', channel=3, note=52, velocity=64, time=16),
    Message('note_on', channel=3, note=59, velocity=59, time=4),
    Message('note_off', channel=3, note=64, velocity=64, time=140),
    Message('note_off', channel=3, note=40, velocity=64, time=40),
    Message('note_off', channel=3, note=55, velocity=64, time=0),
    Message('note_off', channel=3, note=59, velocity=64, time=12),
    Message('note_on', channel=3, note=67, velocity=60, time=28),
    Message('note_on', channel=3, note=43, velocity=54, time=0),
    Message('note_on', channel=3, note=59, velocity=60, time=0),
    Message('note_on', channel=3, note=50, velocity=60, time=0),
    Message('note_off', channel=3, note=59, velocity=64, time=244),
    Message('note_off', channel=3, note=67, velocity=64, time=0),
    Message('note_on', channel=3, note=67, velocity=54, time=4),
    Message('note_on', channel=3, note=59, velocity=29, time=8),
    Message('note_off', channel=3, note=59, velocity=64, time=220),
    Message('note_off', channel=3, note=67, velocity=64, time=0),
    Message('note_on', channel=3, note=67, velocity=60, time=4),
    Message('note_on', channel=3, note=55, velocity=45, time=0),
    Message('note_on', channel=3, note=59, velocity=68, time=4),
    Message('note_off', channel=3, note=59, velocity=64, time=216),
    Message('note_off', channel=3, note=55, velocity=64, time=40),
    Message('note_on', channel=3, note=55, velocity=70, time=8),
    Message('note_on', channel=3, note=59, velocity=61, time=4),
    Message('note_off', channel=3, note=67, velocity=64, time=168),
    Message('note_off', channel=3, note=55, velocity=64, time=32),
    Message('note_off', channel=3, note=59, velocity=64, time=0),
    Message('note_on', channel=3, note=59, velocity=68, time=4),
    Message('note_on', channel=3, note=67, velocity=60, time=4),
    Message('note_on', channel=3, note=55, velocity=60, time=0),
    Message('note_off', channel=3, note=55, velocity=64, time=212),
    Message('note_on', channel=3, note=55, velocity=67, time=52),
    Message('note_off', channel=3, note=59, velocity=64, time=116),
    Message('note_off', channel=3, note=50, velocity=64, time=20),
    Message('note_off', channel=3, note=43, velocity=64, time=16),
    Message('note_off', channel=3, note=67, velocity=64, time=4),
    Message('note_off', channel=3, note=55, velocity=64, time=28),
    Message('note_on', channel=3, note=43, velocity=43, time=12),
    Message('note_on', channel=3, note=47, velocity=45, time=8),
    Message('note_on', channel=3, note=50, velocity=54, time=8),
    Message('note_on', channel=3, note=55, velocity=54, time=8),
    Message('note_on', channel=3, note=59, velocity=54, time=8),
    Message('note_on', channel=3, note=67, velocity=54, time=8),
    Message('note_off', channel=3, note=67, velocity=64, time=412),
    Message('note_off', channel=3, note=59, velocity=64, time=0),
    Message('note_off', channel=3, note=55, velocity=64, time=0),
    Message('note_off', channel=3, note=50, velocity=64, time=0),
    Message('note_off', channel=3, note=47, velocity=64, time=0),
    Message('note_off', channel=3, note=43, velocity=64, time=0),
    Message('note_on', channel=3, note=49, velocity=45, time=28),
    Message('note_on', channel=3, note=54, velocity=54, time=8),
    Message('note_on', channel=3, note=57, velocity=54, time=12),
    Message('note_on', channel=3, note=61, velocity=54, time=8),
    Message('note_on', channel=3, note=66, velocity=54, time=12),
    Message('note_off', channel=3, note=66, velocity=64, time=192),
    Message('note_off', channel=3, note=61, velocity=64, time=8),
    Message('note_on', channel=3, note=66, velocity=31, time=0),
    Message('note_off', channel=3, note=57, velocity=64, time=8),
    Message('note_on', channel=3, note=61, velocity=36, time=0),
    Message('note_off', channel=3, note=54, velocity=64, time=8),
    Message('note_on', channel=3, note=57, velocity=36, time=0),
    Message('note_off', channel=3, note=49, velocity=64, time=8),
    Message('note_on', channel=3, note=54, velocity=31, time=0),
    Message('note_on', channel=3, note=49, velocity=22, time=8),
    Message('note_on', channel=3, note=42, velocity=4, time=8),
    Message('note_off', channel=3, note=42, velocity=64, time=192),
    Message('note_off', channel=3, note=49, velocity=64, time=0),
    Message('note_off', channel=3, note=66, velocity=64, time=0),
    Message('note_off', channel=3, note=61, velocity=64, time=0),
    Message('note_off', channel=3, note=57, velocity=64, time=0),
    Message('note_off', channel=3, note=54, velocity=64, time=0),
    Message('note_on', channel=3, note=47, velocity=45, time=8),
    Message('note_on', channel=3, note=52, velocity=54, time=8),
    Message('note_on', channel=3, note=55, velocity=54, time=12),
    Message('note_on', channel=3, note=59, velocity=54, time=8),
    Message('note_on', channel=3, note=64, velocity=54, time=12),
    Message('note_off', channel=3, note=64, velocity=64, time=184),
    Message('note_off', channel=3, note=59, velocity=64, time=0),
    Message('note_off', channel=3, note=55, velocity=64, time=0),
    Message('note_off', channel=3, note=52, velocity=64, time=0),
    Message('note_off', channel=3, note=47, velocity=64, time=0),
    Message('note_on', channel=3, note=50, velocity=71, time=268),
    Message('note_off', channel=3, note=50, velocity=64, time=8),
    Message('note_on', channel=3, note=57, velocity=55, time=4),
    Message('note_on', channel=3, note=50, velocity=55, time=4),
    Message('note_on', channel=3, note=62, velocity=63, time=8),
    Message('note_off', channel=3, note=62, velocity=64, time=408),
    Message('note_off', channel=3, note=57, velocity=64, time=4),
    Message('note_on', channel=3, note=57, velocity=64, time=44),
    Message('note_on', channel=3, note=62, velocity=69, time=4),
    Message('note_off', channel=3, note=62, velocity=64, time=212),
    Message('note_off', channel=3, note=57, velocity=64, time=32),
    Message('note_on', channel=3, note=57, velocity=52, time=4),
    Message('note_on', channel=3, note=62, velocity=50, time=4),
    Message('note_off', channel=3, note=50, velocity=64, time=192),
    Message('note_off', channel=3, note=57, velocity=64, time=28),
    Message('note_off', channel=3, note=62, velocity=64, time=0),
    Message('note_on', channel=3, note=57, velocity=64, time=4),
    Message('note_on', channel=3, note=50, velocity=64, time=0),
    Message('note_on', channel=3, note=62, velocity=54, time=4),
    Message('note_off', channel=3, note=62, velocity=64, time=212),
    Message('note_off', channel=3, note=57, velocity=64, time=40),
    Message('note_on', channel=3, note=57, velocity=53, time=4),
    Message('note_on', channel=3, note=62, velocity=50, time=12),
    Message('note_off', channel=3, note=50, velocity=64, time=108),
    Message('note_off', channel=3, note=57, velocity=64, time=80),
    Message('note_off', channel=3, note=62, velocity=64, time=4),
    Message('note_on', channel=3, note=57, velocity=60, time=24),
    Message('note_on', channel=3, note=62, velocity=60, time=0),
    Message('note_on', channel=3, note=50, velocity=60, time=0),
    Message('note_off', channel=3, note=62, velocity=64, time=252),
    Message('note_off', channel=3, note=57, velocity=64, time=0),
    Message('note_on', channel=3, note=66, velocity=44, time=4),
    Message('note_on', channel=3, note=62, velocity=60, time=0),
    Message('note_off', channel=3, note=62, velocity=64, time=220),
    Message('note_off', channel=3, note=66, velocity=64, time=0),
    Message('note_on', channel=3, note=66, velocity=60, time=4),
    Message('note_on', channel=3, note=57, velocity=45, time=0),
    Message('note_on', channel=3, note=62, velocity=68, time=4),
    Message('note_off', channel=3, note=62, velocity=64, time=252),
    Message('note_off', channel=3, note=57, velocity=64, time=0),
    Message('note_off', channel=3, note=66, velocity=64, time=0),
    Message('note_on', channel=3, note=62, velocity=29, time=4),
    Message('note_on', channel=3, note=66, velocity=44, time=4),
    Message('note_off', channel=3, note=66, velocity=64, time=208),
    Message('note_off', channel=3, note=62, velocity=64, time=0),
    Message('note_on', channel=3, note=62, velocity=68, time=4),
    Message('note_on', channel=3, note=66, velocity=60, time=4),
    Message('note_on', channel=3, note=57, velocity=60, time=0),
    Message('note_off', channel=3, note=62, velocity=64, time=204),
    Message('note_off', channel=3, note=57, velocity=64, time=8),
    Message('note_off', channel=3, note=66, velocity=64, time=28),
    Message('note_on', channel=3, note=57, velocity=67, time=0),
    Message('note_on', channel=3, note=62, velocity=50, time=4),
    Message('note_off', channel=3, note=50, velocity=64, time=168),
    Message('note_off', channel=3, note=62, velocity=64, time=24),
    Message('note_off', channel=3, note=57, velocity=64, time=20),
    Message('note_on', channel=3, note=59, velocity=59, time=16),
    Message('note_on', channel=3, note=40, velocity=53, time=0),
    Message('note_on', channel=3, note=52, velocity=59, time=0),
    Message('note_on', channel=3, note=64, velocity=59, time=0),
    Message('note_off', channel=3, note=59, velocity=64, time=432),
    Message('note_on', channel=3, note=55, velocity=59, time=48),
    Message('note_on', channel=3, note=59, velocity=59, time=0),
    Message('note_off', channel=3, note=55, velocity=64, time=240),
    Message('note_off', channel=3, note=59, velocity=64, time=20),
    Message('note_on', channel=3, note=55, velocity=38, time=4),
    Message('note_on', channel=3, note=59, velocity=44, time=0),
    Message('note_off', channel=3, note=59, velocity=64, time=212),
    Message('note_off', channel=3, note=55, velocity=64, time=0),
    Message('note_on', channel=3, note=55, velocity=59, time=4),
    Message('note_on', channel=3, note=59, velocity=59, time=0),
    Message('note_off', channel=3, note=55, velocity=64, time=212),
    Message('note_off', channel=3, note=59, velocity=64, time=44),
    Message('note_on', channel=3, note=55, velocity=50, time=4),
    Message('note_off', channel=3, note=64, velocity=64, time=152),
    Message('note_off', channel=3, note=40, velocity=64, time=12),
    Message('note_off', channel=3, note=52, velocity=64, time=4),
    Message('note_off', channel=3, note=55, velocity=64, time=16),
    Message('note_on', channel=3, note=57, velocity=45, time=36),
    Message('note_on', channel=3, note=50, velocity=59, time=8),
    Message('note_on', channel=3, note=62, velocity=45, time=4),
    Message('note_on', channel=3, note=66, velocity=68, time=4),
    Message('note_off', channel=3, note=57, velocity=64, time=412),
    Message('note_off', channel=3, note=50, velocity=64, time=52),
    Message('note_on', channel=3, note=50, velocity=59, time=8),
    Message('note_on', channel=3, note=57, velocity=59, time=0),
    Message('note_off', channel=3, note=62, velocity=64, time=172),
    Message('note_off', channel=3, note=57, velocity=64, time=68),
    Message('note_off', channel=3, note=50, velocity=64, time=8),
    Message('note_on', channel=3, note=57, velocity=59, time=4),
    Message('note_on', channel=3, note=62, velocity=59, time=4),
    Message('note_off', channel=3, note=66, velocity=64, time=180),
    Message('note_off', channel=3, note=57, velocity=64, time=12),
    Message('note_off', channel=3, note=62, velocity=64, time=4),
    Message('note_on', channel=3, note=47, velocity=45, time=8),
    Message('note_on', channel=3, note=52, velocity=54, time=8),
    Message('note_on', channel=3, note=55, velocity=54, time=12),
    Message('note_on', channel=3, note=59, velocity=54, time=8),
    Message('note_on', channel=3, note=64, velocity=54, time=12),
    Message('note_off', channel=3, note=64, velocity=64, time=184),
    Message('note_off', channel=3, note=59, velocity=64, time=0),
    Message('note_off', channel=3, note=55, velocity=64, time=0),
    Message('note_off', channel=3, note=52, velocity=64, time=0),
    Message('note_off', channel=3, note=47, velocity=64, time=0),
    Message('note_on', channel=3, note=50, velocity=54, time=256),
    Message('note_on', channel=3, note=57, velocity=54, time=12),
    Message('note_on', channel=3, note=62, velocity=54, time=12),
    Message('note_on', channel=3, note=66, velocity=54, time=12),
    Message('note_off', channel=3, note=66, velocity=64, time=416),
    Message('note_off', channel=3, note=62, velocity=64, time=0),
    Message('note_off', channel=3, note=57, velocity=64, time=0),
    Message('note_off', channel=3, note=50, velocity=64, time=0),
    Message('note_on', channel=3, note=47, velocity=45, time=28),
    Message('note_on', channel=3, note=52, velocity=54, time=8),
    Message('note_on', channel=3, note=55, velocity=54, time=12),
    Message('note_on', channel=3, note=59, velocity=54, time=8),
    Message('note_on', channel=3, note=64, velocity=54, time=12),
    Message('note_off', channel=3, note=64, velocity=64, time=412),
    Message('note_off', channel=3, note=59, velocity=64, time=0),
    Message('note_off', channel=3, note=55, velocity=64, time=0),
    Message('note_off', channel=3, note=52, velocity=64, time=0),
    Message('note_off', channel=3, note=47, velocity=64, time=0),
    Message('note_on', channel=3, note=57, velocity=54, time=28),
    Message('note_on', channel=3, note=62, velocity=54, time=16),
    Message('note_on', channel=3, note=66, velocity=54, time=16),
    Message('note_off', channel=3, note=66, velocity=64, time=192),
    Message('note_off', channel=3, note=62, velocity=64, time=0),
    Message('note_off', channel=3, note=57, velocity=64, time=0),
    Message('note_on', channel=3, note=66, velocity=31, time=20),
    Message('note_on', channel=3, note=62, velocity=36, time=12),
    Message('note_on', channel=3, note=57, velocity=36, time=12),
    Message('note_on', channel=3, note=50, velocity=31, time=12),
    Message('note_off', channel=3, note=50, velocity=64, time=196),
    Message('note_off', channel=3, note=57, velocity=64, time=0),
    Message('note_off', channel=3, note=62, velocity=64, time=0),
    Message('note_off', channel=3, note=66, velocity=64, time=0),
    Message('note_on', channel=3, note=64, velocity=61, time=24),
    Message('note_on', channel=3, note=40, velocity=55, time=0),
    Message('note_on', channel=3, note=59, velocity=61, time=0),
    Message('note_on', channel=3, note=52, velocity=61, time=0),
    Message('note_off', channel=3, note=64, velocity=64, time=432),
    Message('note_on', channel=3, note=64, velocity=61, time=48),
    Message('note_on', channel=3, note=55, velocity=61, time=0),
    Message('note_off', channel=3, note=55, velocity=64, time=240),
    Message('note_off', channel=3, note=64, velocity=64, time=20),
    Message('note_on', channel=3, note=55, velocity=47, time=4),
    Message('note_on', channel=3, note=64, velocity=63, time=4),
    Message('note_off', channel=3, note=64, velocity=64, time=208),
    Message('note_off', channel=3, note=55, velocity=64, time=0),
    Message('note_on', channel=3, note=64, velocity=61, time=4),
    Message('note_on', channel=3, note=55, velocity=61, time=0),
    Message('note_off', channel=3, note=55, velocity=64, time=240),
    Message('note_off', channel=3, note=64, velocity=64, time=16),
    Message('note_on', channel=3, note=55, velocity=60, time=4),
    Message('note_off', channel=3, note=59, velocity=64, time=212),
    Message('note_off', channel=3, note=55, velocity=64, time=4),
    Message('note_on', channel=3, note=64, velocity=61, time=4),
    Message('note_on', channel=3, note=55, velocity=61, time=0),
    Message('note_on', channel=3, note=59, velocity=61, time=0),
    Message('note_off', channel=3, note=64, velocity=64, time=248),
    Message('note_on', channel=3, note=64, velocity=44, time=4),
    Message('note_off', channel=3, note=55, velocity=64, time=176),
    Message('note_off', channel=3, note=59, velocity=64, time=4),
    Message('note_off', channel=3, note=64, velocity=64, time=44),
    Message('note_on', channel=3, note=64, velocity=61, time=4),
    Message('note_on', channel=3, note=55, velocity=61, time=0),
    Message('note_on', channel=3, note=59, velocity=61, time=0),
    Message('note_off', channel=3, note=59, velocity=64, time=472),
    Message('note_off', channel=3, note=55, velocity=64, time=0),
    Message('note_off', channel=3, note=64, velocity=64, time=0),
    Message('note_on', channel=3, note=64, velocity=61, time=8),
    Message('note_on', channel=3, note=55, velocity=61, time=0),
    Message('note_on', channel=3, note=59, velocity=61, time=0),
    Message('note_off', channel=3, note=59, velocity=64, time=452),
    Message('note_off', channel=3, note=55, velocity=64, time=0),
    Message('note_off', channel=3, note=40, velocity=64, time=0),
    Message('note_off', channel=3, note=52, velocity=64, time=0),
    Message('note_off', channel=3, note=64, velocity=64, time=0),
    Message('note_on', channel=3, note=40, velocity=46, time=8),
    Message('note_on', channel=3, note=47, velocity=49, time=8),
    Message('note_on', channel=3, note=52, velocity=58, time=8),
    Message('note_on', channel=3, note=55, velocity=58, time=8),
    Message('note_on', channel=3, note=59, velocity=58, time=8),
    Message('note_on', channel=3, note=64, velocity=58, time=8),
    Message('note_off', channel=3, note=47, velocity=64, time=428),
    Message('note_off', channel=3, note=52, velocity=64, time=8),
    Message('note_on', channel=3, note=47, velocity=38, time=0),
    Message('note_on', channel=3, note=52, velocity=45, time=8),
    Message('note_off', channel=3, note=55, velocity=64, time=4),
    Message('note_on', channel=3, note=55, velocity=45, time=8),
    Message('note_off', channel=3, note=40, velocity=64, time=4),
    Message('note_off', channel=3, note=59, velocity=64, time=0),
    Message('note_off', channel=3, note=64, velocity=64, time=0),
    Message('note_on', channel=3, note=59, velocity=45, time=4),
    Message('note_on', channel=3, note=64, velocity=45, time=12),
    Message('note_off', channel=3, note=64, velocity=64, time=220),
    Message('note_on', channel=3, note=64, velocity=32, time=8),
    Message('note_off', channel=3, note=47, velocity=64, time=4),
    Message('note_off', channel=3, note=52, velocity=64, time=0),
    Message('note_off', channel=3, note=55, velocity=64, time=0),
    Message('note_off', channel=3, note=59, velocity=64, time=0),
    Message('note_on', channel=3, note=59, velocity=36, time=4),
    Message('note_on', channel=3, note=55, velocity=36, time=8),
    Message('note_on', channel=3, note=52, velocity=32, time=8),
    Message('note_on', channel=3, note=47, velocity=23, time=8),
    Message('note_on', channel=3, note=40, velocity=4, time=8),
    Message('note_off', channel=3, note=40, velocity=64, time=152),
    Message('note_off', channel=3, note=47, velocity=64, time=0),
    Message('note_off', channel=3, note=52, velocity=64, time=0),
    Message('note_off', channel=3, note=55, velocity=64, time=0),
    Message('note_off', channel=3, note=64, velocity=64, time=0),
    Message('note_off', channel=3, note=59, velocity=64, time=0),
    Message('note_on', channel=3, note=57, velocity=54, time=24),
    Message('note_on', channel=3, note=62, velocity=54, time=16),
    Message('note_on', channel=3, note=66, velocity=54, time=16),
    Message('note_off', channel=3, note=66, velocity=64, time=192),
    Message('note_off', channel=3, note=62, velocity=64, time=0),
    Message('note_off', channel=3, note=57, velocity=64, time=0),
    Message('note_on', channel=3, note=40, velocity=43, time=256),
    Message('note_on', channel=3, note=47, velocity=45, time=8),
    Message('note_on', channel=3, note=52, velocity=54, time=8),
    Message('note_on', channel=3, note=55, velocity=54, time=8),
    Message('note_on', channel=3, note=59, velocity=54, time=8),
    Message('note_on', channel=3, note=64, velocity=54, time=8),
    Message('note_off', channel=3, note=64, velocity=64, time=412),
    Message('note_off', channel=3, note=59, velocity=64, time=0),
    Message('note_off', channel=3, note=55, velocity=64, time=0),
    Message('note_off', channel=3, note=52, velocity=64, time=0),
    Message('note_off', channel=3, note=47, velocity=64, time=0),
    Message('note_off', channel=3, note=40, velocity=64, time=0),
    Message('control_change', channel=3, control=64, value=0, time=1000),
    MetaMessage('end_of_track', time=0)]),
  MidiTrack([
    MetaMessage('track_name', name='Guitar  ', time=0),
    MetaMessage('midi_port', port=0, time=0),
    MetaMessage('channel_prefix', channel=4, time=0),
    Message('control_change', channel=4, control=7, value=99, time=0),
    Message('control_change', channel=4, control=10, value=32, time=0),
    Message('control_change', channel=4, control=32, value=0, time=0),
    Message('control_change', channel=4, control=91, value=99, time=0),
    Message('program_change', channel=4, program=25, time=0),
    Message('control_change', channel=4, control=123, value=0, time=0),
    Message('control_change', channel=4, control=64, value=0, time=0),
    Message('note_on', channel=4, note=40, velocity=46, time=7208),
    Message('note_on', channel=4, note=47, velocity=49, time=464),
    Message('note_on', channel=4, note=52, velocity=58, time=8),
    Message('note_on', channel=4, note=55, velocity=58, time=12),
    Message('note_on', channel=4, note=59, velocity=58, time=8),
    Message('note_on', channel=4, note=64, velocity=58, time=12),
    Message('note_off', channel=4, note=64, velocity=64, time=200),
    Message('note_off', channel=4, note=59, velocity=64, time=8),
    Message('note_on', channel=4, note=64, velocity=35, time=0),
    Message('note_off', channel=4, note=55, velocity=64, time=8),
    Message('note_on', channel=4, note=59, velocity=40, time=0),
    Message('note_on', channel=4, note=55, velocity=40, time=8),
    Message('note_off', channel=4, note=52, velocity=64, time=4),
    Message('note_off', channel=4, note=47, velocity=64, time=0),
    Message('note_on', channel=4, note=52, velocity=35, time=4),
    Message('note_off', channel=4, note=40, velocity=64, time=8),
    Message('note_on', channel=4, note=47, velocity=25, time=0),
    Message('note_on', channel=4, note=40, velocity=5, time=8),
    Message('note_off', channel=4, note=47, velocity=64, time=176),
    Message('note_off', channel=4, note=52, velocity=64, time=8),
    Message('note_on', channel=4, note=47, velocity=41, time=0),
    Message('note_on', channel=4, note=52, velocity=49, time=8),
    Message('note_off', channel=4, note=55, velocity=64, time=4),
    Message('note_off', channel=4, note=59, velocity=64, time=8),
    Message('note_on', channel=4, note=55, velocity=49, time=0),
    Message('note_on', channel=4, note=59, velocity=49, time=8),
    Message('note_off', channel=4, note=64, velocity=64, time=8),
    Message('note_off', channel=4, note=40, velocity=64, time=0),
    Message('note_on', channel=4, note=64, velocity=49, time=4),
    Message('note_on', channel=4, note=40, velocity=47, time=464),
    Message('note_off', channel=4, note=47, velocity=64, time=100),
    Message('note_off', channel=4, note=52, velocity=64, time=0),
    Message('note_off', channel=4, note=55, velocity=64, time=0),
    Message('note_off', channel=4, note=59, velocity=64, time=0),
    Message('note_off', channel=4, note=64, velocity=64, time=0),
    Message('note_on', channel=4, note=64, velocity=27, time=128),
    Message('note_on', channel=4, note=59, velocity=31, time=8),
    Message('note_on', channel=4, note=55, velocity=31, time=8),
    Message('note_on', channel=4, note=52, velocity=27, time=8),
    Message('note_off', channel=4, note=40, velocity=64, time=8),
    Message('note_on', channel=4, note=47, velocity=19, time=0),
    Message('note_on', channel=4, note=40, velocity=3, time=8),
    Message('note_off', channel=4, note=47, velocity=64, time=176),
    Message('note_off', channel=4, note=52, velocity=64, time=8),
    Message('note_on', channel=4, note=47, velocity=41, time=0),
    Message('note_on', channel=4, note=52, velocity=49, time=8),
    Message('note_off', channel=4, note=55, velocity=64, time=4),
    Message('note_off', channel=4, note=59, velocity=64, time=8),
    Message('note_on', channel=4, note=55, velocity=49, time=0),
    Message('note_on', channel=4, note=59, velocity=49, time=8),
    Message('note_off', channel=4, note=64, velocity=64, time=4),
    Message('note_on', channel=4, note=64, velocity=49, time=8),
    Message('note_off', channel=4, note=40, velocity=64, time=4),
    Message('note_off', channel=4, note=47, velocity=64, time=220),
    Message('note_off', channel=4, note=52, velocity=64, time=0),
    Message('note_off', channel=4, note=55, velocity=64, time=0),
    Message('note_off', channel=4, note=59, velocity=64, time=0),
    Message('note_off', channel=4, note=64, velocity=64, time=0),
    Message('note_on', channel=4, note=64, velocity=37, time=8),
    Message('note_on', channel=4, note=59, velocity=43, time=8),
    Message('note_on', channel=4, note=55, velocity=43, time=8),
    Message('note_on', channel=4, note=52, velocity=37, time=8),
    Message('note_on', channel=4, note=47, velocity=27, time=8),
    Message('note_on', channel=4, note=40, velocity=5, time=8),
    Message('note_off', channel=4, note=47, velocity=64, time=160),
    Message('note_off', channel=4, note=52, velocity=64, time=8),
    Message('note_on', channel=4, note=47, velocity=37, time=0),
    Message('note_on', channel=4, note=52, velocity=44, time=8),
    Message('note_off', channel=4, note=55, velocity=64, time=4),
    Message('note_on', channel=4, note=55, velocity=44, time=8),
    Message('note_off', channel=4, note=59, velocity=64, time=4),
    Message('note_off', channel=4, note=64, velocity=64, time=0),
    Message('note_off', channel=4, note=40, velocity=64, time=0),
    Message('note_on', channel=4, note=59, velocity=44, time=4),
    Message('note_on', channel=4, note=64, velocity=44, time=12),
    Message('note_off', channel=4, note=64, velocity=64, time=208),
    Message('note_off', channel=4, note=59, velocity=64, time=8),
    Message('note_on', channel=4, note=64, velocity=30, time=0),
    Message('note_off', channel=4, note=55, velocity=64, time=8),
    Message('note_on', channel=4, note=59, velocity=34, time=0),
    Message('note_off', channel=4, note=47, velocity=64, time=8),
    Message('note_off', channel=4, note=52, velocity=64, time=0),
    Message('note_on', channel=4, note=55, velocity=34, time=0),
    Message('note_on', channel=4, note=52, velocity=30, time=8),
    Message('note_on', channel=4, note=47, velocity=21, time=8),
    Message('note_on', channel=4, note=40, velocity=4, time=8),
    Message('note_off', channel=4, note=40, velocity=64, time=184),
    Message('note_off', channel=4, note=47, velocity=64, time=0),
    Message('note_off', channel=4, note=52, velocity=64, time=0),
    Message('note_off', channel=4, note=64, velocity=64, time=0),
    Message('note_off', channel=4, note=59, velocity=64, time=0),
    Message('note_off', channel=4, note=55, velocity=64, time=0),
    Message('note_on', channel=4, note=50, velocity=58, time=28),
    Message('note_on', channel=4, note=57, velocity=58, time=464),
    Message('note_on', channel=4, note=62, velocity=58, time=16),
    Message('note_on', channel=4, note=66, velocity=58, time=16),
    Message('note_off', channel=4, note=57, velocity=64, time=440),
    Message('note_on', channel=4, note=57, velocity=58, time=8),
    Message('note_off', channel=4, note=62, velocity=64, time=8),
    Message('note_on', channel=4, note=62, velocity=58, time=8),
    Message('note_off', channel=4, note=66, velocity=64, time=4),
    Message('note_on', channel=4, note=66, velocity=58, time=12),
    Message('note_off', channel=4, note=50, velocity=64, time=92),
    Message('note_off', channel=4, note=57, velocity=64, time=332),
    Message('note_off', channel=4, note=62, velocity=64, time=0),
    Message('note_off', channel=4, note=66, velocity=64, time=0),
    Message('note_on', channel=4, note=40, velocity=46, time=40),
    Message('note_on', channel=4, note=47, velocity=49, time=464),
    Message('note_on', channel=4, note=52, velocity=58, time=8),
    Message('note_on', channel=4, note=55, velocity=58, time=12),
    Message('note_on', channel=4, note=59, velocity=58, time=8),
    Message('note_on', channel=4, note=64, velocity=58, time=12),
    Message('note_off', channel=4, note=47, velocity=64, time=432),
    Message('note_off', channel=4, note=52, velocity=64, time=8),
    Message('note_on', channel=4, note=47, velocity=49, time=0),
    Message('note_on', channel=4, note=52, velocity=58, time=8),
    Message('note_off', channel=4, note=55, velocity=64, time=4),
    Message('note_off', channel=4, note=59, velocity=64, time=8),
    Message('note_off', channel=4, note=64, velocity=64, time=0),
    Message('note_on', channel=4, note=55, velocity=58, time=0),
    Message('note_on', channel=4, note=59, velocity=58, time=8),
    Message('note_on', channel=4, note=64, velocity=58, time=12),
    Message('note_off', channel=4, note=40, velocity=64, time=84),
    Message('note_off', channel=4, note=47, velocity=64, time=332),
    Message('note_off', channel=4, note=52, velocity=64, time=0),
    Message('note_off', channel=4, note=55, velocity=64, time=0),
    Message('note_off', channel=4, note=59, velocity=64, time=0),
    Message('note_off', channel=4, note=64, velocity=64, time=0),
    Message('note_on', channel=4, note=40, velocity=46, time=40),
    Message('note_on', channel=4, note=47, velocity=49, time=464),
    Message('note_on', channel=4, note=52, velocity=58, time=8),
    Message('note_on', channel=4, note=55, velocity=58, time=12),
    Message('note_on', channel=4, note=59, velocity=58, time=8),
    Message('note_on', channel=4, note=64, velocity=58, time=12),
    Message('note_off', channel=4, note=64, velocity=64, time=200),
    Message('note_off', channel=4, note=59, velocity=64, time=8),
    Message('note_on', channel=4, note=64, velocity=35, time=0),
    Message('note_off', channel=4, note=55, velocity=64, time=8),
    Message('note_on', channel=4, note=59, velocity=40, time=0),
    Message('note_on', channel=4, note=55, velocity=40, time=8),
    Message('note_off', channel=4, note=52, velocity=64, time=4),
    Message('note_off', channel=4, note=47, velocity=64, time=0),
    Message('note_on', channel=4, note=52, velocity=35, time=4),
    Message('note_off', channel=4, note=40, velocity=64, time=8),
    Message('note_on', channel=4, note=47, velocity=25, time=0),
    Message('note_on', channel=4, note=40, velocity=5, time=8),
    Message('note_off', channel=4, note=47, velocity=64, time=176),
    Message('note_off', channel=4, note=52, velocity=64, time=8),
    Message('note_on', channel=4, note=47, velocity=41, time=0),
    Message('note_on', channel=4, note=52, velocity=49, time=8),
    Message('note_off', channel=4, note=55, velocity=64, time=4),
    Message('note_off', channel=4, note=59, velocity=64, time=8),
    Message('note_on', channel=4, note=55, velocity=49, time=0),
    Message('note_on', channel=4, note=59, velocity=49, time=8),
    Message('note_off', channel=4, note=64, velocity=64, time=8),
    Message('note_off', channel=4, note=40, velocity=64, time=0),
    Message('note_on', channel=4, note=64, velocity=49, time=4),
    Message('note_off', channel=4, note=47, velocity=64, time=404),
    Message('note_off', channel=4, note=52, velocity=64, time=0),
    Message('note_off', channel=4, note=55, velocity=64, time=0),
    Message('note_off', channel=4, note=59, velocity=64, time=0),
    Message('note_off', channel=4, note=64, velocity=64, time=0),
    Message('note_on', channel=4, note=43, velocity=46, time=60),
    Message('note_on', channel=4, note=47, velocity=49, time=464),
    Message('note_on', channel=4, note=50, velocity=58, time=8),
    Message('note_on', channel=4, note=55, velocity=58, time=12),
    Message('note_on', channel=4, note=59, velocity=58, time=8),
    Message('note_on', channel=4, note=67, velocity=58, time=12),
    Message('note_off', channel=4, note=67, velocity=64, time=200),
    Message('note_off', channel=4, note=59, velocity=64, time=8),
    Message('note_on', channel=4, note=67, velocity=35, time=0),
    Message('note_off', channel=4, note=55, velocity=64, time=8),
    Message('note_on', channel=4, note=59, velocity=40, time=0),
    Message('note_on', channel=4, note=55, velocity=40, time=8),
    Message('note_off', channel=4, note=50, velocity=64, time=4),
    Message('note_off', channel=4, note=47, velocity=64, time=0),
    Message('note_on', channel=4, note=50, velocity=35, time=4),
    Message('note_off', channel=4, note=43, velocity=64, time=8),
    Message('note_on', channel=4, note=47, velocity=25, time=0),
    Message('note_on', channel=4, note=43, velocity=5, time=8),
    Message('note_off', channel=4, note=47, velocity=64, time=176),
    Message('note_off', channel=4, note=50, velocity=64, time=8),
    Message('note_on', channel=4, note=47, velocity=41, time=0),
    Message('note_on', channel=4, note=50, velocity=49, time=8),
    Message('note_off', channel=4, note=55, velocity=64, time=4),
    Message('note_off', channel=4, note=59, velocity=64, time=8),
    Message('note_on', channel=4, note=55, velocity=49, time=0),
    Message('note_on', channel=4, note=59, velocity=49, time=8),
    Message('note_off', channel=4, note=67, velocity=64, time=8),
    Message('note_off', channel=4, note=43, velocity=64, time=0),
    Message('note_on', channel=4, note=67, velocity=49, time=4),
    Message('note_off', channel=4, note=47, velocity=64, time=404),
    Message('note_off', channel=4, note=50, velocity=64, time=0),
    Message('note_off', channel=4, note=55, velocity=64, time=0),
    Message('note_off', channel=4, note=59, velocity=64, time=0),
    Message('note_off', channel=4, note=67, velocity=64, time=0),
    Message('note_on', channel=4, note=40, velocity=46, time=60),
    Message('note_on', channel=4, note=47, velocity=49, time=464),
    Message('note_on', channel=4, note=52, velocity=58, time=8),
    Message('note_on', channel=4, note=55, velocity=58, time=12),
    Message('note_on', channel=4, note=59, velocity=58, time=8),
    Message('note_on', channel=4, note=64, velocity=58, time=12),
    Message('note_off', channel=4, note=64, velocity=64, time=200),
    Message('note_off', channel=4, note=59, velocity=64, time=8),
    Message('note_on', channel=4, note=64, velocity=35, time=0),
    Message('note_off', channel=4, note=55, velocity=64, time=8),
    Message('note_on', channel=4, note=59, velocity=40, time=0),
    Message('note_on', channel=4, note=55, velocity=40, time=8),
    Message('note_off', channel=4, note=52, velocity=64, time=4),
    Message('note_off', channel=4, note=47, velocity=64, time=0),
    Message('note_on', channel=4, note=52, velocity=35, time=4),
    Message('note_off', channel=4, note=40, velocity=64, time=8),
    Message('note_on', channel=4, note=47, velocity=25, time=0),
    Message('note_on', channel=4, note=40, velocity=5, time=8),
    Message('note_off', channel=4, note=47, velocity=64, time=176),
    Message('note_off', channel=4, note=52, velocity=64, time=8),
    Message('note_on', channel=4, note=47, velocity=41, time=0),
    Message('note_on', channel=4, note=52, velocity=49, time=8),
    Message('note_off', channel=4, note=55, velocity=64, time=4),
    Message('note_off', channel=4, note=59, velocity=64, time=8),
    Message('note_on', channel=4, note=55, velocity=49, time=0),
    Message('note_on', channel=4, note=59, velocity=49, time=8),
    Message('note_off', channel=4, note=64, velocity=64, time=8),
    Message('note_off', channel=4, note=40, velocity=64, time=0),
    Message('note_on', channel=4, note=64, velocity=49, time=4),
    Message('note_off', channel=4, note=47, velocity=64, time=404),
    Message('note_off', channel=4, note=52, velocity=64, time=0),
    Message('note_off', channel=4, note=55, velocity=64, time=0),
    Message('note_off', channel=4, note=59, velocity=64, time=0),
    Message('note_off', channel=4, note=64, velocity=64, time=0),
    Message('note_on', channel=4, note=43, velocity=44, time=60),
    Message('note_off', channel=4, note=43, velocity=64, time=444),
    Message('note_on', channel=4, note=52, velocity=58, time=12),
    Message('note_on', channel=4, note=57, velocity=58, time=12),
    Message('note_on', channel=4, note=61, velocity=58, time=12),
    Message('note_on', channel=4, note=64, velocity=58, time=12),
    Message('note_off', channel=4, note=64, velocity=64, time=436),
    Message('note_off', channel=4, note=61, velocity=64, time=0),
    Message('note_off', channel=4, note=57, velocity=64, time=0),
    Message('note_off', channel=4, note=52, velocity=64, time=0),
    Message('note_on', channel=4, note=52, velocity=58, time=8),
    Message('note_on', channel=4, note=57, velocity=58, time=12),
    Message('note_on', channel=4, note=61, velocity=58, time=12),
    Message('note_on', channel=4, note=64, velocity=58, time=12),
    Message('note_off', channel=4, note=64, velocity=64, time=432),
    Message('note_off', channel=4, note=61, velocity=64, time=0),
    Message('note_off', channel=4, note=57, velocity=64, time=0),
    Message('note_off', channel=4, note=52, velocity=64, time=0),
    Message('note_on', channel=4, note=40, velocity=46, time=36),
    Message('note_on', channel=4, note=47, velocity=49, time=464),
    Message('note_on', channel=4, note=52, velocity=58, time=8),
    Message('note_on', channel=4, note=55, velocity=58, time=12),
    Message('note_on', channel=4, note=59, velocity=58, time=8),
    Message('note_on', channel=4, note=64, velocity=58, time=12),
    Message('note_off', channel=4, note=64, velocity=64, time=200),
    Message('note_off', channel=4, note=59, velocity=64, time=8),
    Message('note_on', channel=4, note=64, velocity=35, time=0),
    Message('note_off', channel=4, note=55, velocity=64, time=8),
    Message('note_on', channel=4, note=59, velocity=40, time=0),
    Message('note_on', channel=4, note=55, velocity=40, time=8),
    Message('note_off', channel=4, note=52, velocity=64, time=4),
    Message('note_off', channel=4, note=47, velocity=64, time=0),
    Message('note_on', channel=4, note=52, velocity=35, time=4),
    Message('note_off', channel=4, note=40, velocity=64, time=8),
    Message('note_on', channel=4, note=47, velocity=25, time=0),
    Message('note_on', channel=4, note=40, velocity=5, time=8),
    Message('note_off', channel=4, note=47, velocity=64, time=176),
    Message('note_off', channel=4, note=52, velocity=64, time=8),
    Message('note_on', channel=4, note=47, velocity=41, time=0),
    Message('note_on', channel=4, note=52, velocity=49, time=8),
    Message('note_off', channel=4, note=55, velocity=64, time=4),
    Message('note_off', channel=4, note=59, velocity=64, time=8),
    Message('note_on', channel=4, note=55, velocity=49, time=0),
    Message('note_on', channel=4, note=59, velocity=49, time=8),
    Message('note_off', channel=4, note=64, velocity=64, time=8),
    Message('note_off', channel=4, note=40, velocity=64, time=0),
    Message('note_on', channel=4, note=64, velocity=49, time=4),
    Message('note_on', channel=4, note=40, velocity=47, time=464),
    Message('note_off', channel=4, note=47, velocity=64, time=100),
    Message('note_off', channel=4, note=52, velocity=64, time=0),
    Message('note_off', channel=4, note=55, velocity=64, time=0),
    Message('note_off', channel=4, note=59, velocity=64, time=0),
    Message('note_off', channel=4, note=64, velocity=64, time=0),
    Message('note_on', channel=4, note=64, velocity=27, time=128),
    Message('note_on', channel=4, note=59, velocity=31, time=8),
    Message('note_on', channel=4, note=55, velocity=31, time=8),
    Message('note_on', channel=4, note=52, velocity=27, time=8),
    Message('note_off', channel=4, note=40, velocity=64, time=8),
    Message('note_on', channel=4, note=47, velocity=19, time=0),
    Message('note_on', channel=4, note=40, velocity=3, time=8),
    Message('note_off', channel=4, note=47, velocity=64, time=176),
    Message('note_off', channel=4, note=52, velocity=64, time=8),
    Message('note_on', channel=4, note=47, velocity=41, time=0),
    Message('note_on', channel=4, note=52, velocity=49, time=8),
    Message('note_off', channel=4, note=55, velocity=64, time=4),
    Message('note_off', channel=4, note=59, velocity=64, time=8),
    Message('note_on', channel=4, note=55, velocity=49, time=0),
    Message('note_on', channel=4, note=59, velocity=49, time=8),
    Message('note_off', channel=4, note=64, velocity=64, time=4),
    Message('note_on', channel=4, note=64, velocity=49, time=8),
    Message('note_off', channel=4, note=40, velocity=64, time=4),
    Message('note_off', channel=4, note=47, velocity=64, time=220),
    Message('note_off', channel=4, note=52, velocity=64, time=0),
    Message('note_off', channel=4, note=55, velocity=64, time=0),
    Message('note_off', channel=4, note=59, velocity=64, time=0),
    Message('note_off', channel=4, note=64, velocity=64, time=0),
    Message('note_on', channel=4, note=64, velocity=37, time=8),
    Message('note_on', channel=4, note=59, velocity=43, time=8),
    Message('note_on', channel=4, note=55, velocity=43, time=8),
    Message('note_on', channel=4, note=52, velocity=37, time=8),
    Message('note_on', channel=4, note=47, velocity=27, time=8),
    Message('note_on', channel=4, note=40, velocity=5, time=8),
    Message('note_off', channel=4, note=47, velocity=64, time=160),
    Message('note_off', channel=4, note=52, velocity=64, time=8),
    Message('note_on', channel=4, note=47, velocity=37, time=0),
    Message('note_on', channel=4, note=52, velocity=44, time=8),
    Message('note_off', channel=4, note=55, velocity=64, time=4),
    Message('note_on', channel=4, note=55, velocity=44, time=8),
    Message('note_off', channel=4, note=59, velocity=64, time=4),
    Message('note_off', channel=4, note=64, velocity=64, time=0),
    Message('note_off', channel=4, note=40, velocity=64, time=0),
    Message('note_on', channel=4, note=59, velocity=44, time=4),
    Message('note_on', channel=4, note=64, velocity=44, time=12),
    Message('note_off', channel=4, note=64, velocity=64, time=208),
    Message('note_off', channel=4, note=59, velocity=64, time=8),
    Message('note_on', channel=4, note=64, velocity=30, time=0),
    Message('note_off', channel=4, note=55, velocity=64, time=8),
    Message('note_on', channel=4, note=59, velocity=34, time=0),
    Message('note_off', channel=4, note=47, velocity=64, time=8),
    Message('note_off', channel=4, note=52, velocity=64, time=0),
    Message('note_on', channel=4, note=55, velocity=34, time=0),
    Message('note_on', channel=4, note=52, velocity=30, time=8),
    Message('note_on', channel=4, note=47, velocity=21, time=8),
    Message('note_on', channel=4, note=40, velocity=4, time=8),
    Message('note_off', channel=4, note=40, velocity=64, time=184),
    Message('note_off', channel=4, note=47, velocity=64, time=0),
    Message('note_off', channel=4, note=52, velocity=64, time=0),
    Message('note_off', channel=4, note=64, velocity=64, time=0),
    Message('note_off', channel=4, note=59, velocity=64, time=0),
    Message('note_off', channel=4, note=55, velocity=64, time=0),
    Message('note_on', channel=4, note=40, velocity=46, time=28),
    Message('note_on', channel=4, note=47, velocity=49, time=464),
    Message('note_on', channel=4, note=52, velocity=58, time=8),
    Message('note_on', channel=4, note=55, velocity=58, time=12),
    Message('note_on', channel=4, note=59, velocity=58, time=8),
    Message('note_on', channel=4, note=64, velocity=58, time=12),
    Message('note_off', channel=4, note=47, velocity=64, time=432),
    Message('note_off', channel=4, note=52, velocity=64, time=8),
    Message('note_on', channel=4, note=47, velocity=49, time=0),
    Message('note_on', channel=4, note=52, velocity=58, time=8),
    Message('note_off', channel=4, note=55, velocity=64, time=4),
    Message('note_off', channel=4, note=59, velocity=64, time=8),
    Message('note_off', channel=4, note=64, velocity=64, time=0),
    Message('note_on', channel=4, note=55, velocity=58, time=0),
    Message('note_on', channel=4, note=59, velocity=58, time=8),
    Message('note_on', channel=4, note=64, velocity=58, time=12),
    Message('note_off', channel=4, note=40, velocity=64, time=84),
    Message('note_on', channel=4, note=40, velocity=46, time=372),
    Message('note_off', channel=4, note=47, velocity=64, time=4),
    Message('note_off', channel=4, note=52, velocity=64, time=0),
    Message('note_off', channel=4, note=55, velocity=64, time=0),
    Message('note_off', channel=4, note=59, velocity=64, time=0),
    Message('note_off', channel=4, note=64, velocity=64, time=0),
    Message('note_on', channel=4, note=47, velocity=49, time=460),
    Message('note_on', channel=4, note=52, velocity=58, time=8),
    Message('note_on', channel=4, note=55, velocity=58, time=12),
    Message('note_on', channel=4, note=59, velocity=58, time=8),
    Message('note_on', channel=4, note=64, velocity=58, time=12),
    Message('note_off', channel=4, note=47, velocity=64, time=432),
    Message('note_off', channel=4, note=52, velocity=64, time=8),
    Message('note_on', channel=4, note=47, velocity=49, time=0),
    Message('note_on', channel=4, note=52, velocity=58, time=8),
    Message('note_off', channel=4, note=55, velocity=64, time=4),
    Message('note_on', channel=4, note=55, velocity=58, time=8),
    Message('note_off', channel=4, note=59, velocity=64, time=4),
    Message('note_off', channel=4, note=64, velocity=64, time=0),
    Message('note_on', channel=4, note=59, velocity=58, time=4),
    Message('note_on', channel=4, note=64, velocity=58, time=12),
    Message('note_off', channel=4, note=40, velocity=64, time=196),
    Message('note_off', channel=4, note=47, velocity=64, time=232),
    Message('note_off', channel=4, note=52, velocity=64, time=0),
    Message('note_off', channel=4, note=55, velocity=64, time=0),
    Message('note_off', channel=4, note=59, velocity=64, time=0),
    Message('note_off', channel=4, note=64, velocity=64, time=0),
    Message('note_on', channel=4, note=40, velocity=44, time=28),
    Message('note_on', channel=4, note=47, velocity=46, time=464),
    Message('note_on', channel=4, note=52, velocity=55, time=8),
    Message('note_on', channel=4, note=55, velocity=55, time=12),
    Message('note_on', channel=4, note=59, velocity=55, time=8),
    Message('note_on', channel=4, note=64, velocity=55, time=12),
    Message('note_off', channel=4, note=47, velocity=64, time=432),
    Message('note_off', channel=4, note=52, velocity=64, time=8),
    Message('note_on', channel=4, note=47, velocity=46, time=0),
    Message('note_on', channel=4, note=52, velocity=55, time=8),
    Message('note_off', channel=4, note=55, velocity=64, time=4),
    Message('note_on', channel=4, note=55, velocity=55, time=8),
    Message('note_off', channel=4, note=59, velocity=64, time=4),
    Message('note_off', channel=4, note=64, velocity=64, time=0),
    Message('note_on', channel=4, note=59, velocity=55, time=4),
    Message('note_on', channel=4, note=64, velocity=55, time=12),
    Message('note_off', channel=4, note=40, velocity=64, time=340),
    Message('note_off', channel=4, note=47, velocity=64, time=76),
    Message('note_off', channel=4, note=52, velocity=64, time=0),
    Message('note_off', channel=4, note=55, velocity=64, time=0),
    Message('note_off', channel=4, note=59, velocity=64, time=0),
    Message('note_off', channel=4, note=64, velocity=64, time=0),
    Message('note_on', channel=4, note=43, velocity=46, time=40),
    Message('note_on', channel=4, note=47, velocity=49, time=464),
    Message('note_on', channel=4, note=50, velocity=58, time=8),
    Message('note_on', channel=4, note=55, velocity=58, time=12),
    Message('note_on', channel=4, note=59, velocity=58, time=8),
    Message('note_on', channel=4, note=67, velocity=58, time=12),
    Message('note_off', channel=4, note=47, velocity=64, time=432),
    Message('note_off', channel=4, note=50, velocity=64, time=8),
    Message('note_on', channel=4, note=47, velocity=49, time=0),
    Message('note_on', channel=4, note=50, velocity=58, time=8),
    Message('note_off', channel=4, note=55, velocity=64, time=4),
    Message('note_off', channel=4, note=59, velocity=64, time=8),
    Message('note_off', channel=4, note=67, velocity=64, time=0),
    Message('note_on', channel=4, note=55, velocity=58, time=0),
    Message('note_on', channel=4, note=59, velocity=58, time=8),
    Message('note_on', channel=4, note=67, velocity=58, time=12),
    Message('note_off', channel=4, note=43, velocity=64, time=84),
    Message('note_off', channel=4, note=47, velocity=64, time=332),
    Message('note_off', channel=4, note=50, velocity=64, time=0),
    Message('note_off', channel=4, note=55, velocity=64, time=0),
    Message('note_off', channel=4, note=59, velocity=64, time=0),
    Message('note_off', channel=4, note=67, velocity=64, time=0),
    Message('note_on', channel=4, note=43, velocity=44, time=40),
    Message('note_off', channel=4, note=43, velocity=64, time=444),
    Message('note_on', channel=4, note=49, velocity=49, time=12),
    Message('note_on', channel=4, note=54, velocity=58, time=8),
    Message('note_on', channel=4, note=57, velocity=58, time=12),
    Message('note_on', channel=4, note=61, velocity=58, time=8),
    Message('note_on', channel=4, note=66, velocity=58, time=12),
    Message('note_off', channel=4, note=66, velocity=64, time=432),
    Message('note_off', channel=4, note=61, velocity=64, time=0),
    Message('note_off', channel=4, note=57, velocity=64, time=0),
    Message('note_off', channel=4, note=54, velocity=64, time=0),
    Message('note_off', channel=4, note=49, velocity=64, time=0),
    Message('note_on', channel=4, note=47, velocity=49, time=8),
    Message('note_on', channel=4, note=52, velocity=58, time=8),
    Message('note_on', channel=4, note=55, velocity=58, time=12),
    Message('note_on', channel=4, note=59, velocity=58, time=8),
    Message('note_on', channel=4, note=64, velocity=58, time=12),
    Message('note_off', channel=4, note=64, velocity=64, time=428),
    Message('note_off', channel=4, note=59, velocity=64, time=0),
    Message('note_off', channel=4, note=55, velocity=64, time=0),
    Message('note_off', channel=4, note=52, velocity=64, time=0),
    Message('note_off', channel=4, note=47, velocity=64, time=0),
    Message('note_on', channel=4, note=50, velocity=58, time=36),
    Message('note_on', channel=4, note=57, velocity=58, time=464),
    Message('note_on', channel=4, note=62, velocity=58, time=16),
    Message('note_on', channel=4, note=66, velocity=58, time=16),
    Message('note_off', channel=4, note=66, velocity=64, time=208),
    Message('note_on', channel=4, note=66, velocity=35, time=8),
    Message('note_off', channel=4, note=62, velocity=64, time=4),
    Message('note_on', channel=4, note=62, velocity=40, time=8),
    Message('note_off', channel=4, note=57, velocity=64, time=8),
    Message('note_on', channel=4, note=57, velocity=40, time=4),
    Message('note_off', channel=4, note=50, velocity=64, time=4),
    Message('note_on', channel=4, note=50, velocity=35, time=8),
    Message('note_off', channel=4, note=57, velocity=64, time=180),
    Message('note_on', channel=4, note=57, velocity=49, time=8),
    Message('note_off', channel=4, note=62, velocity=64, time=8),
    Message('note_on', channel=4, note=62, velocity=49, time=8),
    Message('note_off', channel=4, note=66, velocity=64, time=8),
    Message('note_on', channel=4, note=66, velocity=49, time=8),
    Message('note_off', channel=4, note=50, velocity=64, time=4),
    Message('note_off', channel=4, note=57, velocity=64, time=408),
    Message('note_off', channel=4, note=62, velocity=64, time=0),
    Message('note_off', channel=4, note=66, velocity=64, time=0),
    Message('note_on', channel=4, note=50, velocity=55, time=60),
    Message('note_on', channel=4, note=57, velocity=55, time=464),
    Message('note_on', channel=4, note=62, velocity=55, time=16),
    Message('note_on', channel=4, note=66, velocity=55, time=16),
    Message('note_off', channel=4, note=57, velocity=64, time=440),
    Message('note_on', channel=4, note=57, velocity=55, time=8),
    Message('note_off', channel=4, note=62, velocity=64, time=8),
    Message('note_on', channel=4, note=62, velocity=55, time=8),
    Message('note_off', channel=4, note=66, velocity=64, time=8),
    Message('note_on', channel=4, note=66, velocity=55, time=8),
    Message('note_off', channel=4, note=50, velocity=64, time=348),
    Message('note_off', channel=4, note=57, velocity=64, time=76),
    Message('note_off', channel=4, note=62, velocity=64, time=0),
    Message('note_off', channel=4, note=66, velocity=64, time=0),
    Message('note_on', channel=4, note=40, velocity=46, time=40),
    Message('note_on', channel=4, note=47, velocity=49, time=464),
    Message('note_on', channel=4, note=52, velocity=58, time=8),
    Message('note_on', channel=4, note=55, velocity=58, time=12),
    Message('note_on', channel=4, note=59, velocity=58, time=8),
    Message('note_on', channel=4, note=64, velocity=58, time=12),
    Message('note_off', channel=4, note=47, velocity=64, time=432),
    Message('note_off', channel=4, note=52, velocity=64, time=8),
    Message('note_on', channel=4, note=47, velocity=49, time=0),
    Message('note_on', channel=4, note=52, velocity=58, time=8),
    Message('note_off', channel=4, note=55, velocity=64, time=4),
    Message('note_off', channel=4, note=59, velocity=64, time=8),
    Message('note_off', channel=4, note=64, velocity=64, time=0),
    Message('note_on', channel=4, note=55, velocity=58, time=0),
    Message('note_on', channel=4, note=59, velocity=58, time=8),
    Message('note_on', channel=4, note=64, velocity=58, time=12),
    Message('note_off', channel=4, note=40, velocity=64, time=84),
    Message('note_off', channel=4, note=47, velocity=64, time=332),
    Message('note_off', channel=4, note=52, velocity=64, time=0),
    Message('note_off', channel=4, note=55, velocity=64, time=0),
    Message('note_off', channel=4, note=59, velocity=64, time=0),
    Message('note_off', channel=4, note=64, velocity=64, time=0),
    Message('note_on', channel=4, note=50, velocity=58, time=40),
    Message('note_on', channel=4, note=57, velocity=58, time=464),
    Message('note_on', channel=4, note=62, velocity=58, time=16),
    Message('note_on', channel=4, note=66, velocity=58, time=16),
    Message('note_off', channel=4, note=50, velocity=64, time=396),
    Message('note_off', channel=4, note=57, velocity=64, time=12),
    Message('note_off', channel=4, note=62, velocity=64, time=0),
    Message('note_off', channel=4, note=66, velocity=64, time=0),
    Message('note_on', channel=4, note=47, velocity=49, time=32),
    Message('note_on', channel=4, note=52, velocity=58, time=8),
    Message('note_on', channel=4, note=55, velocity=58, time=12),
    Message('note_on', channel=4, note=59, velocity=58, time=8),
    Message('note_on', channel=4, note=64, velocity=58, time=12),
    Message('note_off', channel=4, note=64, velocity=64, time=428),
    Message('note_off', channel=4, note=59, velocity=64, time=0),
    Message('note_off', channel=4, note=55, velocity=64, time=0),
    Message('note_off', channel=4, note=52, velocity=64, time=0),
    Message('note_off', channel=4, note=47, velocity=64, time=0),
    Message('note_on', channel=4, note=50, velocity=55, time=36),
    Message('note_off', channel=4, note=50, velocity=64, time=444),
    Message('note_on', channel=4, note=47, velocity=49, time=12),
    Message('note_on', channel=4, note=52, velocity=58, time=8),
    Message('note_on', channel=4, note=55, velocity=58, time=12),
    Message('note_on', channel=4, note=59, velocity=58, time=8),
    Message('note_on', channel=4, note=64, velocity=58, time=12),
    Message('note_off', channel=4, note=64, velocity=64, time=432),
    Message('note_off', channel=4, note=59, velocity=64, time=0),
    Message('note_off', channel=4, note=55, velocity=64, time=0),
    Message('note_off', channel=4, note=52, velocity=64, time=0),
    Message('note_off', channel=4, note=47, velocity=64, time=0),
    Message('note_on', channel=4, note=57, velocity=58, time=8),
    Message('note_on', channel=4, note=62, velocity=58, time=16),
    Message('note_on', channel=4, note=66, velocity=58, time=16),
    Message('note_off', channel=4, note=66, velocity=64, time=436),
    Message('note_off', channel=4, note=62, velocity=64, time=0),
    Message('note_off', channel=4, note=57, velocity=64, time=0),
    Message('note_on', channel=4, note=40, velocity=46, time=36),
    Message('note_on', channel=4, note=47, velocity=49, time=464),
    Message('note_on', channel=4, note=52, velocity=58, time=8),
    Message('note_on', channel=4, note=55, velocity=58, time=12),
    Message('note_on', channel=4, note=59, velocity=58, time=8),
    Message('note_on', channel=4, note=64, velocity=58, time=12),
    Message('note_off', channel=4, note=64, velocity=64, time=200),
    Message('note_off', channel=4, note=59, velocity=64, time=8),
    Message('note_on', channel=4, note=64, velocity=35, time=0),
    Message('note_off', channel=4, note=55, velocity=64, time=8),
    Message('note_on', channel=4, note=59, velocity=40, time=0),
    Message('note_on', channel=4, note=55, velocity=40, time=8),
    Message('note_off', channel=4, note=52, velocity=64, time=4),
    Message('note_off', channel=4, note=47, velocity=64, time=0),
    Message('note_on', channel=4, note=52, velocity=35, time=4),
    Message('note_off', channel=4, note=40, velocity=64, time=8),
    Message('note_on', channel=4, note=47, velocity=25, time=0),
    Message('note_on', channel=4, note=40, velocity=5, time=8),
    Message('note_off', channel=4, note=47, velocity=64, time=176),
    Message('note_off', channel=4, note=52, velocity=64, time=8),
    Message('note_on', channel=4, note=47, velocity=41, time=0),
    Message('note_on', channel=4, note=52, velocity=49, time=8),
    Message('note_off', channel=4, note=55, velocity=64, time=4),
    Message('note_off', channel=4, note=59, velocity=64, time=8),
    Message('note_on', channel=4, note=55, velocity=49, time=0),
    Message('note_on', channel=4, note=59, velocity=49, time=8),
    Message('note_off', channel=4, note=64, velocity=64, time=8),
    Message('note_off', channel=4, note=40, velocity=64, time=0),
    Message('note_on', channel=4, note=64, velocity=49, time=4),
    Message('note_on', channel=4, note=40, velocity=47, time=464),
    Message('note_off', channel=4, note=47, velocity=64, time=100),
    Message('note_off', channel=4, note=52, velocity=64, time=0),
    Message('note_off', channel=4, note=55, velocity=64, time=0),
    Message('note_off', channel=4, note=59, velocity=64, time=0),
    Message('note_off', channel=4, note=64, velocity=64, time=0),
    Message('note_on', channel=4, note=64, velocity=27, time=128),
    Message('note_on', channel=4, note=59, velocity=31, time=8),
    Message('note_on', channel=4, note=55, velocity=31, time=8),
    Message('note_on', channel=4, note=52, velocity=27, time=8),
    Message('note_off', channel=4, note=40, velocity=64, time=8),
    Message('note_on', channel=4, note=47, velocity=19, time=0),
    Message('note_on', channel=4, note=40, velocity=3, time=8),
    Message('note_off', channel=4, note=47, velocity=64, time=176),
    Message('note_off', channel=4, note=52, velocity=64, time=8),
    Message('note_on', channel=4, note=47, velocity=41, time=0),
    Message('note_on', channel=4, note=52, velocity=49, time=8),
    Message('note_off', channel=4, note=55, velocity=64, time=4),
    Message('note_off', channel=4, note=59, velocity=64, time=8),
    Message('note_on', channel=4, note=55, velocity=49, time=0),
    Message('note_on', channel=4, note=59, velocity=49, time=8),
    Message('note_off', channel=4, note=64, velocity=64, time=4),
    Message('note_on', channel=4, note=64, velocity=49, time=8),
    Message('note_off', channel=4, note=40, velocity=64, time=4),
    Message('note_off', channel=4, note=47, velocity=64, time=220),
    Message('note_off', channel=4, note=52, velocity=64, time=0),
    Message('note_off', channel=4, note=55, velocity=64, time=0),
    Message('note_off', channel=4, note=59, velocity=64, time=0),
    Message('note_off', channel=4, note=64, velocity=64, time=0),
    Message('note_on', channel=4, note=64, velocity=37, time=8),
    Message('note_on', channel=4, note=59, velocity=43, time=8),
    Message('note_on', channel=4, note=55, velocity=43, time=8),
    Message('note_on', channel=4, note=52, velocity=37, time=8),
    Message('note_on', channel=4, note=47, velocity=27, time=8),
    Message('note_on', channel=4, note=40, velocity=5, time=8),
    Message('note_off', channel=4, note=47, velocity=64, time=160),
    Message('note_off', channel=4, note=52, velocity=64, time=8),
    Message('note_on', channel=4, note=47, velocity=37, time=0),
    Message('note_on', channel=4, note=52, velocity=44, time=8),
    Message('note_off', channel=4, note=55, velocity=64, time=4),
    Message('note_on', channel=4, note=55, velocity=44, time=8),
    Message('note_off', channel=4, note=59, velocity=64, time=4),
    Message('note_off', channel=4, note=64, velocity=64, time=0),
    Message('note_off', channel=4, note=40, velocity=64, time=0),
    Message('note_on', channel=4, note=59, velocity=44, time=4),
    Message('note_on', channel=4, note=64, velocity=44, time=12),
    Message('note_off', channel=4, note=64, velocity=64, time=208),
    Message('note_off', channel=4, note=59, velocity=64, time=8),
    Message('note_on', channel=4, note=64, velocity=30, time=0),
    Message('note_off', channel=4, note=55, velocity=64, time=8),
    Message('note_on', channel=4, note=59, velocity=34, time=0),
    Message('note_off', channel=4, note=47, velocity=64, time=8),
    Message('note_off', channel=4, note=52, velocity=64, time=0),
    Message('note_on', channel=4, note=55, velocity=34, time=0),
    Message('note_on', channel=4, note=52, velocity=30, time=8),
    Message('note_on', channel=4, note=47, velocity=21, time=8),
    Message('note_on', channel=4, note=40, velocity=4, time=8),
    Message('note_off', channel=4, note=40, velocity=64, time=184),
    Message('note_off', channel=4, note=47, velocity=64, time=0),
    Message('note_off', channel=4, note=52, velocity=64, time=0),
    Message('note_off', channel=4, note=64, velocity=64, time=0),
    Message('note_off', channel=4, note=59, velocity=64, time=0),
    Message('note_off', channel=4, note=55, velocity=64, time=0),
    Message('note_on', channel=4, note=40, velocity=46, time=28),
    Message('note_on', channel=4, note=47, velocity=49, time=464),
    Message('note_on', channel=4, note=52, velocity=58, time=8),
    Message('note_on', channel=4, note=55, velocity=58, time=12),
    Message('note_on', channel=4, note=59, velocity=58, time=8),
    Message('note_on', channel=4, note=64, velocity=58, time=12),
    Message('note_off', channel=4, note=64, velocity=64, time=200),
    Message('note_off', channel=4, note=59, velocity=64, time=8),
    Message('note_on', channel=4, note=64, velocity=35, time=0),
    Message('note_off', channel=4, note=55, velocity=64, time=8),
    Message('note_on', channel=4, note=59, velocity=40, time=0),
    Message('note_on', channel=4, note=55, velocity=40, time=8),
    Message('note_off', channel=4, note=52, velocity=64, time=4),
    Message('note_off', channel=4, note=47, velocity=64, time=0),
    Message('note_on', channel=4, note=52, velocity=35, time=4),
    Message('note_off', channel=4, note=40, velocity=64, time=8),
    Message('note_on', channel=4, note=47, velocity=25, time=0),
    Message('note_on', channel=4, note=40, velocity=5, time=8),
    Message('note_off', channel=4, note=47, velocity=64, time=176),
    Message('note_off', channel=4, note=52, velocity=64, time=8),
    Message('note_on', channel=4, note=47, velocity=41, time=0),
    Message('note_on', channel=4, note=52, velocity=49, time=8),
    Message('note_off', channel=4, note=55, velocity=64, time=4),
    Message('note_off', channel=4, note=59, velocity=64, time=8),
    Message('note_on', channel=4, note=55, velocity=49, time=0),
    Message('note_on', channel=4, note=59, velocity=49, time=8),
    Message('note_off', channel=4, note=64, velocity=64, time=8),
    Message('note_off', channel=4, note=40, velocity=64, time=0),
    Message('note_on', channel=4, note=64, velocity=49, time=4),
    Message('note_on', channel=4, note=40, velocity=47, time=464),
    Message('note_off', channel=4, note=47, velocity=64, time=100),
    Message('note_off', channel=4, note=52, velocity=64, time=0),
    Message('note_off', channel=4, note=55, velocity=64, time=0),
    Message('note_off', channel=4, note=59, velocity=64, time=0),
    Message('note_off', channel=4, note=64, velocity=64, time=0),
    Message('note_on', channel=4, note=64, velocity=27, time=128),
    Message('note_on', channel=4, note=59, velocity=31, time=8),
    Message('note_on', channel=4, note=55, velocity=31, time=8),
    Message('note_on', channel=4, note=52, velocity=27, time=8),
    Message('note_off', channel=4, note=40, velocity=64, time=8),
    Message('note_on', channel=4, note=47, velocity=19, time=0),
    Message('note_on', channel=4, note=40, velocity=3, time=8),
    Message('note_off', channel=4, note=47, velocity=64, time=176),
    Message('note_off', channel=4, note=52, velocity=64, time=8),
    Message('note_on', channel=4, note=47, velocity=41, time=0),
    Message('note_on', channel=4, note=52, velocity=49, time=8),
    Message('note_off', channel=4, note=55, velocity=64, time=4),
    Message('note_off', channel=4, note=59, velocity=64, time=8),
    Message('note_on', channel=4, note=55, velocity=49, time=0),
    Message('note_on', channel=4, note=59, velocity=49, time=8),
    Message('note_off', channel=4, note=64, velocity=64, time=4),
    Message('note_on', channel=4, note=64, velocity=49, time=8),
    Message('note_off', channel=4, note=40, velocity=64, time=4),
    Message('note_off', channel=4, note=47, velocity=64, time=220),
    Message('note_off', channel=4, note=52, velocity=64, time=0),
    Message('note_off', channel=4, note=55, velocity=64, time=0),
    Message('note_off', channel=4, note=59, velocity=64, time=0),
    Message('note_off', channel=4, note=64, velocity=64, time=0),
    Message('note_on', channel=4, note=64, velocity=37, time=8),
    Message('note_on', channel=4, note=59, velocity=43, time=8),
    Message('note_on', channel=4, note=55, velocity=43, time=8),
    Message('note_on', channel=4, note=52, velocity=37, time=8),
    Message('note_on', channel=4, note=47, velocity=27, time=8),
    Message('note_on', channel=4, note=40, velocity=5, time=8),
    Message('note_off', channel=4, note=47, velocity=64, time=160),
    Message('note_off', channel=4, note=52, velocity=64, time=8),
    Message('note_on', channel=4, note=47, velocity=37, time=0),
    Message('note_on', channel=4, note=52, velocity=44, time=8),
    Message('note_off', channel=4, note=55, velocity=64, time=4),
    Message('note_on', channel=4, note=55, velocity=44, time=8),
    Message('note_off', channel=4, note=59, velocity=64, time=4),
    Message('note_off', channel=4, note=64, velocity=64, time=0),
    Message('note_off', channel=4, note=40, velocity=64, time=0),
    Message('note_on', channel=4, note=59, velocity=44, time=4),
    Message('note_on', channel=4, note=64, velocity=44, time=12),
    Message('note_off', channel=4, note=64, velocity=64, time=208),
    Message('note_off', channel=4, note=59, velocity=64, time=8),
    Message('note_on', channel=4, note=64, velocity=30, time=0),
    Message('note_off', channel=4, note=55, velocity=64, time=8),
    Message('note_on', channel=4, note=59, velocity=34, time=0),
    Message('note_off', channel=4, note=47, velocity=64, time=8),
    Message('note_off', channel=4, note=52, velocity=64, time=0),
    Message('note_on', channel=4, note=55, velocity=34, time=0),
    Message('note_on', channel=4, note=52, velocity=30, time=8),
    Message('note_on', channel=4, note=47, velocity=21, time=8),
    Message('note_on', channel=4, note=40, velocity=4, time=8),
    Message('note_off', channel=4, note=40, velocity=64, time=184),
    Message('note_off', channel=4, note=47, velocity=64, time=0),
    Message('note_off', channel=4, note=52, velocity=64, time=0),
    Message('note_off', channel=4, note=64, velocity=64, time=0),
    Message('note_off', channel=4, note=59, velocity=64, time=0),
    Message('note_off', channel=4, note=55, velocity=64, time=0),
    Message('note_on', channel=4, note=40, velocity=55, time=28),
    Message('note_on', channel=4, note=47, velocity=58, time=464),
    Message('note_on', channel=4, note=52, velocity=69, time=8),
    Message('note_on', channel=4, note=55, velocity=69, time=12),
    Message('note_on', channel=4, note=59, velocity=69, time=8),
    Message('note_on', channel=4, note=64, velocity=69, time=12),
    Message('note_off', channel=4, note=64, velocity=64, time=200),
    Message('note_off', channel=4, note=59, velocity=64, time=8),
    Message('note_on', channel=4, note=64, velocity=43, time=0),
    Message('note_off', channel=4, note=55, velocity=64, time=8),
    Message('note_on', channel=4, note=59, velocity=49, time=0),
    Message('note_on', channel=4, note=55, velocity=49, time=8),
    Message('note_off', channel=4, note=52, velocity=64, time=4),
    Message('note_off', channel=4, note=47, velocity=64, time=0),
    Message('note_on', channel=4, note=52, velocity=43, time=4),
    Message('note_off', channel=4, note=40, velocity=64, time=8),
    Message('note_on', channel=4, note=47, velocity=31, time=0),
    Message('note_on', channel=4, note=40, velocity=6, time=8),
    Message('note_off', channel=4, note=47, velocity=64, time=176),
    Message('note_off', channel=4, note=52, velocity=64, time=8),
    Message('note_on', channel=4, note=47, velocity=51, time=0),
    Message('note_on', channel=4, note=52, velocity=60, time=8),
    Message('note_off', channel=4, note=55, velocity=64, time=4),
    Message('note_off', channel=4, note=59, velocity=64, time=8),
    Message('note_on', channel=4, note=55, velocity=60, time=0),
    Message('note_on', channel=4, note=59, velocity=60, time=8),
    Message('note_off', channel=4, note=64, velocity=64, time=8),
    Message('note_off', channel=4, note=40, velocity=64, time=0),
    Message('note_on', channel=4, note=64, velocity=60, time=4),
    Message('note_on', channel=4, note=40, velocity=56, time=464),
    Message('note_off', channel=4, note=47, velocity=64, time=100),
    Message('note_off', channel=4, note=52, velocity=64, time=0),
    Message('note_off', channel=4, note=55, velocity=64, time=0),
    Message('note_off', channel=4, note=59, velocity=64, time=0),
    Message('note_off', channel=4, note=64, velocity=64, time=0),
    Message('note_on', channel=4, note=64, velocity=35, time=128),
    Message('note_on', channel=4, note=59, velocity=40, time=8),
    Message('note_on', channel=4, note=55, velocity=40, time=8),
    Message('note_on', channel=4, note=52, velocity=35, time=8),
    Message('note_off', channel=4, note=40, velocity=64, time=8),
    Message('note_on', channel=4, note=47, velocity=25, time=0),
    Message('note_on', channel=4, note=40, velocity=5, time=8),
    Message('note_off', channel=4, note=47, velocity=64, time=176),
    Message('note_off', channel=4, note=52, velocity=64, time=8),
    Message('note_on', channel=4, note=47, velocity=51, time=0),
    Message('note_on', channel=4, note=52, velocity=60, time=8),
    Message('note_off', channel=4, note=55, velocity=64, time=4),
    Message('note_off', channel=4, note=59, velocity=64, time=8),
    Message('note_on', channel=4, note=55, velocity=60, time=0),
    Message('note_on', channel=4, note=59, velocity=60, time=8),
    Message('note_off', channel=4, note=64, velocity=64, time=4),
    Message('note_on', channel=4, note=64, velocity=60, time=8),
    Message('note_off', channel=4, note=40, velocity=64, time=4),
    Message('note_off', channel=4, note=47, velocity=64, time=220),
    Message('note_off', channel=4, note=52, velocity=64, time=0),
    Message('note_off', channel=4, note=55, velocity=64, time=0),
    Message('note_off', channel=4, note=59, velocity=64, time=0),
    Message('note_off', channel=4, note=64, velocity=64, time=0),
    Message('note_on', channel=4, note=64, velocity=45, time=8),
    Message('note_on', channel=4, note=59, velocity=52, time=8),
    Message('note_on', channel=4, note=55, velocity=52, time=8),
    Message('note_on', channel=4, note=52, velocity=45, time=8),
    Message('note_on', channel=4, note=47, velocity=32, time=8),
    Message('note_on', channel=4, note=40, velocity=6, time=8),
    Message('note_off', channel=4, note=47, velocity=64, time=160),
    Message('note_off', channel=4, note=52, velocity=64, time=8),
    Message('note_on', channel=4, note=47, velocity=46, time=0),
    Message('note_on', channel=4, note=52, velocity=55, time=8),
    Message('note_off', channel=4, note=55, velocity=64, time=4),
    Message('note_on', channel=4, note=55, velocity=55, time=8),
    Message('note_off', channel=4, note=59, velocity=64, time=4),
    Message('note_off', channel=4, note=64, velocity=64, time=0),
    Message('note_off', channel=4, note=40, velocity=64, time=0),
    Message('note_on', channel=4, note=59, velocity=55, time=4),
    Message('note_on', channel=4, note=64, velocity=55, time=12),
    Message('note_off', channel=4, note=64, velocity=64, time=208),
    Message('note_off', channel=4, note=59, velocity=64, time=8),
    Message('note_on', channel=4, note=64, velocity=37, time=0),
    Message('note_off', channel=4, note=55, velocity=64, time=8),
    Message('note_on', channel=4, note=59, velocity=43, time=0),
    Message('note_off', channel=4, note=47, velocity=64, time=8),
    Message('note_off', channel=4, note=52, velocity=64, time=0),
    Message('note_on', channel=4, note=55, velocity=43, time=0),
    Message('note_on', channel=4, note=52, velocity=37, time=8),
    Message('note_on', channel=4, note=47, velocity=27, time=8),
    Message('note_on', channel=4, note=40, velocity=5, time=8),
    Message('note_off', channel=4, note=40, velocity=64, time=184),
    Message('note_off', channel=4, note=47, velocity=64, time=0),
    Message('note_off', channel=4, note=52, velocity=64, time=0),
    Message('note_off', channel=4, note=64, velocity=64, time=0),
    Message('note_off', channel=4, note=59, velocity=64, time=0),
    Message('note_off', channel=4, note=55, velocity=64, time=0),
    Message('note_on', channel=4, note=50, velocity=61, time=28),
    Message('note_off', channel=4, note=50, velocity=64, time=444),
    Message('note_on', channel=4, note=47, velocity=51, time=12),
    Message('note_on', channel=4, note=52, velocity=61, time=8),
    Message('note_on', channel=4, note=55, velocity=61, time=12),
    Message('note_on', channel=4, note=59, velocity=61, time=8),
    Message('note_on', channel=4, note=64, velocity=61, time=12),
    Message('note_off', channel=4, note=64, velocity=64, time=432),
    Message('note_off', channel=4, note=59, velocity=64, time=0),
    Message('note_off', channel=4, note=55, velocity=64, time=0),
    Message('note_off', channel=4, note=52, velocity=64, time=0),
    Message('note_off', channel=4, note=47, velocity=64, time=0),
    Message('note_on', channel=4, note=57, velocity=61, time=8),
    Message('note_on', channel=4, note=62, velocity=61, time=16),
    Message('note_on', channel=4, note=66, velocity=61, time=16),
    Message('note_off', channel=4, note=66, velocity=64, time=436),
    Message('note_off', channel=4, note=62, velocity=64, time=0),
    Message('note_off', channel=4, note=57, velocity=64, time=0),
    Message('note_on', channel=4, note=40, velocity=52, time=36),
    Message('note_on', channel=4, note=47, velocity=55, time=464),
    Message('note_on', channel=4, note=52, velocity=65, time=8),
    Message('note_on', channel=4, note=55, velocity=65, time=12),
    Message('note_on', channel=4, note=59, velocity=65, time=8),
    Message('note_on', channel=4, note=64, velocity=65, time=12),
    Message('note_off', channel=4, note=64, velocity=64, time=200),
    Message('note_off', channel=4, note=59, velocity=64, time=8),
    Message('note_on', channel=4, note=64, velocity=40, time=0),
    Message('note_off', channel=4, note=55, velocity=64, time=8),
    Message('note_on', channel=4, note=59, velocity=46, time=0),
    Message('note_on', channel=4, note=55, velocity=46, time=8),
    Message('note_off', channel=4, note=52, velocity=64, time=4),
    Message('note_off', channel=4, note=47, velocity=64, time=0),
    Message('note_on', channel=4, note=52, velocity=40, time=4),
    Message('note_off', channel=4, note=40, velocity=64, time=8),
    Message('note_on', channel=4, note=47, velocity=29, time=0),
    Message('note_on', channel=4, note=40, velocity=5, time=8),
    Message('note_off', channel=4, note=47, velocity=64, time=176),
    Message('note_off', channel=4, note=52, velocity=64, time=8),
    Message('note_on', channel=4, note=47, velocity=47, time=0),
    Message('note_on', channel=4, note=52, velocity=56, time=8),
    Message('note_off', channel=4, note=55, velocity=64, time=4),
    Message('note_off', channel=4, note=59, velocity=64, time=8),
    Message('note_on', channel=4, note=55, velocity=56, time=0),
    Message('note_on', channel=4, note=59, velocity=56, time=8),
    Message('note_off', channel=4, note=64, velocity=64, time=8),
    Message('note_off', channel=4, note=40, velocity=64, time=0),
    Message('note_on', channel=4, note=64, velocity=56, time=4),
    Message('note_off', channel=4, note=47, velocity=64, time=404),
    Message('note_off', channel=4, note=52, velocity=64, time=0),
    Message('note_off', channel=4, note=55, velocity=64, time=0),
    Message('note_off', channel=4, note=59, velocity=64, time=0),
    Message('note_off', channel=4, note=64, velocity=64, time=0),
    Message('note_on', channel=4, note=40, velocity=52, time=60),
    Message('note_on', channel=4, note=47, velocity=55, time=464),
    Message('note_on', channel=4, note=52, velocity=65, time=8),
    Message('note_on', channel=4, note=55, velocity=65, time=12),
    Message('note_on', channel=4, note=59, velocity=65, time=8),
    Message('note_on', channel=4, note=64, velocity=65, time=12),
    Message('note_off', channel=4, note=64, velocity=64, time=200),
    Message('note_off', channel=4, note=59, velocity=64, time=8),
    Message('note_on', channel=4, note=64, velocity=40, time=0),
    Message('note_off', channel=4, note=55, velocity=64, time=8),
    Message('note_on', channel=4, note=59, velocity=46, time=0),
    Message('note_on', channel=4, note=55, velocity=46, time=8),
    Message('note_off', channel=4, note=52, velocity=64, time=4),
    Message('note_off', channel=4, note=47, velocity=64, time=0),
    Message('note_on', channel=4, note=52, velocity=40, time=4),
    Message('note_off', channel=4, note=40, velocity=64, time=8),
    Message('note_on', channel=4, note=47, velocity=29, time=0),
    Message('note_on', channel=4, note=40, velocity=5, time=8),
    Message('note_off', channel=4, note=47, velocity=64, time=176),
    Message('note_off', channel=4, note=52, velocity=64, time=8),
    Message('note_on', channel=4, note=47, velocity=47, time=0),
    Message('note_on', channel=4, note=52, velocity=56, time=8),
    Message('note_off', channel=4, note=55, velocity=64, time=4),
    Message('note_off', channel=4, note=59, velocity=64, time=8),
    Message('note_on', channel=4, note=55, velocity=56, time=0),
    Message('note_on', channel=4, note=59, velocity=56, time=8),
    Message('note_off', channel=4, note=64, velocity=64, time=8),
    Message('note_off', channel=4, note=40, velocity=64, time=0),
    Message('note_on', channel=4, note=64, velocity=56, time=4),
    Message('note_off', channel=4, note=47, velocity=64, time=404),
    Message('note_off', channel=4, note=52, velocity=64, time=0),
    Message('note_off', channel=4, note=55, velocity=64, time=0),
    Message('note_off', channel=4, note=59, velocity=64, time=0),
    Message('note_off', channel=4, note=64, velocity=64, time=0),
    Message('note_on', channel=4, note=43, velocity=52, time=60),
    Message('note_on', channel=4, note=47, velocity=55, time=464),
    Message('note_on', channel=4, note=50, velocity=65, time=8),
    Message('note_on', channel=4, note=55, velocity=65, time=12),
    Message('note_on', channel=4, note=59, velocity=65, time=8),
    Message('note_on', channel=4, note=67, velocity=65, time=12),
    Message('note_off', channel=4, note=67, velocity=64, time=200),
    Message('note_off', channel=4, note=59, velocity=64, time=8),
    Message('note_on', channel=4, note=67, velocity=40, time=0),
    Message('note_off', channel=4, note=55, velocity=64, time=8),
    Message('note_on', channel=4, note=59, velocity=46, time=0),
    Message('note_on', channel=4, note=55, velocity=46, time=8),
    Message('note_off', channel=4, note=50, velocity=64, time=4),
    Message('note_off', channel=4, note=47, velocity=64, time=0),
    Message('note_on', channel=4, note=50, velocity=40, time=4),
    Message('note_off', channel=4, note=43, velocity=64, time=8),
    Message('note_on', channel=4, note=47, velocity=29, time=0),
    Message('note_on', channel=4, note=43, velocity=5, time=8),
    Message('note_off', channel=4, note=47, velocity=64, time=176),
    Message('note_off', channel=4, note=50, velocity=64, time=8),
    Message('note_on', channel=4, note=47, velocity=47, time=0),
    Message('note_on', channel=4, note=50, velocity=56, time=8),
    Message('note_off', channel=4, note=55, velocity=64, time=4),
    Message('note_off', channel=4, note=59, velocity=64, time=8),
    Message('note_on', channel=4, note=55, velocity=56, time=0),
    Message('note_on', channel=4, note=59, velocity=56, time=8),
    Message('note_off', channel=4, note=67, velocity=64, time=8),
    Message('note_off', channel=4, note=43, velocity=64, time=0),
    Message('note_on', channel=4, note=67, velocity=56, time=4),
    Message('note_off', channel=4, note=47, velocity=64, time=404),
    Message('note_off', channel=4, note=50, velocity=64, time=0),
    Message('note_off', channel=4, note=55, velocity=64, time=0),
    Message('note_off', channel=4, note=59, velocity=64, time=0),
    Message('note_off', channel=4, note=67, velocity=64, time=0),
    Message('note_on', channel=4, note=40, velocity=48, time=60),
    Message('note_on', channel=4, note=47, velocity=51, time=464),
    Message('note_on', channel=4, note=52, velocity=61, time=8),
    Message('note_on', channel=4, note=55, velocity=61, time=12),
    Message('note_on', channel=4, note=59, velocity=61, time=8),
    Message('note_on', channel=4, note=64, velocity=61, time=12),
    Message('note_off', channel=4, note=47, velocity=64, time=432),
    Message('note_off', channel=4, note=52, velocity=64, time=8),
    Message('note_on', channel=4, note=47, velocity=51, time=0),
    Message('note_on', channel=4, note=52, velocity=61, time=8),
    Message('note_off', channel=4, note=55, velocity=64, time=4),
    Message('note_off', channel=4, note=59, velocity=64, time=8),
    Message('note_off', channel=4, note=64, velocity=64, time=0),
    Message('note_on', channel=4, note=55, velocity=61, time=0),
    Message('note_on', channel=4, note=59, velocity=61, time=8),
    Message('note_on', channel=4, note=64, velocity=61, time=12),
    Message('note_off', channel=4, note=40, velocity=64, time=84),
    Message('note_off', channel=4, note=47, velocity=64, time=332),
    Message('note_off', channel=4, note=52, velocity=64, time=0),
    Message('note_off', channel=4, note=55, velocity=64, time=0),
    Message('note_off', channel=4, note=59, velocity=64, time=0),
    Message('note_off', channel=4, note=64, velocity=64, time=0),
    Message('note_on', channel=4, note=43, velocity=48, time=40),
    Message('note_off', channel=4, note=43, velocity=64, time=444),
    Message('note_on', channel=4, note=52, velocity=61, time=12),
    Message('note_on', channel=4, note=57, velocity=61, time=12),
    Message('note_on', channel=4, note=61, velocity=61, time=12),
    Message('note_on', channel=4, note=64, velocity=61, time=12),
    Message('note_off', channel=4, note=64, velocity=64, time=436),
    Message('note_off', channel=4, note=61, velocity=64, time=0),
    Message('note_off', channel=4, note=57, velocity=64, time=0),
    Message('note_off', channel=4, note=52, velocity=64, time=0),
    Message('note_on', channel=4, note=52, velocity=61, time=8),
    Message('note_on', channel=4, note=57, velocity=61, time=12),
    Message('note_on', channel=4, note=61, velocity=61, time=12),
    Message('note_on', channel=4, note=64, velocity=61, time=12),
    Message('note_off', channel=4, note=64, velocity=64, time=432),
    Message('note_off', channel=4, note=61, velocity=64, time=0),
    Message('note_off', channel=4, note=57, velocity=64, time=0),
    Message('note_off', channel=4, note=52, velocity=64, time=0),
    Message('note_on', channel=4, note=40, velocity=48, time=36),
    Message('note_on', channel=4, note=47, velocity=51, time=464),
    Message('note_on', channel=4, note=52, velocity=61, time=8),
    Message('note_on', channel=4, note=55, velocity=61, time=12),
    Message('note_on', channel=4, note=59, velocity=61, time=8),
    Message('note_on', channel=4, note=64, velocity=61, time=12),
    Message('note_off', channel=4, note=47, velocity=64, time=432),
    Message('note_off', channel=4, note=52, velocity=64, time=8),
    Message('note_on', channel=4, note=47, velocity=51, time=0),
    Message('note_on', channel=4, note=52, velocity=61, time=8),
    Message('note_off', channel=4, note=55, velocity=64, time=4),
    Message('note_on', channel=4, note=55, velocity=61, time=8),
    Message('note_off', channel=4, note=59, velocity=64, time=4),
    Message('note_off', channel=4, note=64, velocity=64, time=0),
    Message('note_on', channel=4, note=59, velocity=61, time=4),
    Message('note_on', channel=4, note=64, velocity=61, time=12),
    Message('note_off', channel=4, note=40, velocity=64, time=340),
    Message('note_on', channel=4, note=40, velocity=48, time=120),
    Message('note_off', channel=4, note=47, velocity=64, time=408),
    Message('note_off', channel=4, note=52, velocity=64, time=0),
    Message('note_off', channel=4, note=55, velocity=64, time=0),
    Message('note_off', channel=4, note=59, velocity=64, time=0),
    Message('note_off', channel=4, note=64, velocity=64, time=0),
    Message('note_on', channel=4, note=47, velocity=51, time=52),
    Message('note_on', channel=4, note=52, velocity=61, time=8),
    Message('note_on', channel=4, note=55, velocity=61, time=12),
    Message('note_on', channel=4, note=59, velocity=61, time=8),
    Message('note_on', channel=4, note=64, velocity=61, time=12),
    Message('note_off', channel=4, note=47, velocity=64, time=432),
    Message('note_off', channel=4, note=52, velocity=64, time=8),
    Message('note_on', channel=4, note=47, velocity=51, time=0),
    Message('note_on', channel=4, note=52, velocity=61, time=8),
    Message('note_off', channel=4, note=55, velocity=64, time=4),
    Message('note_on', channel=4, note=55, velocity=61, time=8),
    Message('note_off', channel=4, note=59, velocity=64, time=4),
    Message('note_off', channel=4, note=64, velocity=64, time=0),
    Message('note_on', channel=4, note=59, velocity=61, time=4),
    Message('note_on', channel=4, note=64, velocity=61, time=12),
    Message('note_off', channel=4, note=40, velocity=64, time=372),
    Message('note_off', channel=4, note=47, velocity=64, time=56),
    Message('note_off', channel=4, note=52, velocity=64, time=0),
    Message('note_off', channel=4, note=55, velocity=64, time=0),
    Message('note_off', channel=4, note=59, velocity=64, time=0),
    Message('note_off', channel=4, note=64, velocity=64, time=0),
    Message('note_on', channel=4, note=40, velocity=48, time=28),
    Message('note_on', channel=4, note=47, velocity=51, time=464),
    Message('note_on', channel=4, note=52, velocity=61, time=8),
    Message('note_on', channel=4, note=55, velocity=61, time=12),
    Message('note_on', channel=4, note=59, velocity=61, time=8),
    Message('note_on', channel=4, note=64, velocity=61, time=12),
    Message('note_off', channel=4, note=47, velocity=64, time=432),
    Message('note_off', channel=4, note=52, velocity=64, time=8),
    Message('note_on', channel=4, note=47, velocity=51, time=0),
    Message('note_on', channel=4, note=52, velocity=61, time=8),
    Message('note_off', channel=4, note=55, velocity=64, time=4),
    Message('note_off', channel=4, note=59, velocity=64, time=8),
    Message('note_off', channel=4, note=64, velocity=64, time=0),
    Message('note_on', channel=4, note=55, velocity=61, time=0),
    Message('note_on', channel=4, note=59, velocity=61, time=8),
    Message('note_on', channel=4, note=64, velocity=61, time=12),
    Message('note_off', channel=4, note=40, velocity=64, time=84),
    Message('note_on', channel=4, note=40, velocity=48, time=372),
    Message('note_off', channel=4, note=47, velocity=64, time=4),
    Message('note_off', channel=4, note=52, velocity=64, time=0),
    Message('note_off', channel=4, note=55, velocity=64, time=0),
    Message('note_off', channel=4, note=59, velocity=64, time=0),
    Message('note_off', channel=4, note=64, velocity=64, time=0),
    Message('note_on', channel=4, note=47, velocity=51, time=460),
    Message('note_on', channel=4, note=52, velocity=61, time=8),
    Message('note_on', channel=4, note=55, velocity=61, time=12),
    Message('note_on', channel=4, note=59, velocity=61, time=8),
    Message('note_on', channel=4, note=64, velocity=61, time=12),
    Message('note_off', channel=4, note=47, velocity=64, time=432),
    Message('note_off', channel=4, note=52, velocity=64, time=8),
    Message('note_on', channel=4, note=47, velocity=51, time=0),
    Message('note_on', channel=4, note=52, velocity=61, time=8),
    Message('note_off', channel=4, note=55, velocity=64, time=4),
    Message('note_on', channel=4, note=55, velocity=61, time=8),
    Message('note_off', channel=4, note=59, velocity=64, time=4),
    Message('note_off', channel=4, note=64, velocity=64, time=0),
    Message('note_on', channel=4, note=59, velocity=61, time=4),
    Message('note_on', channel=4, note=64, velocity=61, time=12),
    Message('note_off', channel=4, note=40, velocity=64, time=196),
    Message('note_off', channel=4, note=47, velocity=64, time=232),
    Message('note_off', channel=4, note=52, velocity=64, time=0),
    Message('note_off', channel=4, note=55, velocity=64, time=0),
    Message('note_off', channel=4, note=59, velocity=64, time=0),
    Message('note_off', channel=4, note=64, velocity=64, time=0),
    Message('note_on', channel=4, note=40, velocity=48, time=28),
    Message('note_on', channel=4, note=47, velocity=51, time=464),
    Message('note_on', channel=4, note=52, velocity=61, time=8),
    Message('note_on', channel=4, note=55, velocity=61, time=12),
    Message('note_on', channel=4, note=59, velocity=61, time=8),
    Message('note_on', channel=4, note=64, velocity=61, time=12),
    Message('note_off', channel=4, note=47, velocity=64, time=432),
    Message('note_off', channel=4, note=52, velocity=64, time=8),
    Message('note_on', channel=4, note=47, velocity=51, time=0),
    Message('note_on', channel=4, note=52, velocity=61, time=8),
    Message('note_off', channel=4, note=55, velocity=64, time=4),
    Message('note_on', channel=4, note=55, velocity=61, time=8),
    Message('note_off', channel=4, note=59, velocity=64, time=4),
    Message('note_off', channel=4, note=64, velocity=64, time=0),
    Message('note_on', channel=4, note=59, velocity=61, time=4),
    Message('note_on', channel=4, note=64, velocity=61, time=12),
    Message('note_off', channel=4, note=40, velocity=64, time=340),
    Message('note_off', channel=4, note=47, velocity=64, time=76),
    Message('note_off', channel=4, note=52, velocity=64, time=0),
    Message('note_off', channel=4, note=55, velocity=64, time=0),
    Message('note_off', channel=4, note=59, velocity=64, time=0),
    Message('note_off', channel=4, note=64, velocity=64, time=0),
    Message('note_on', channel=4, note=43, velocity=48, time=40),
    Message('note_on', channel=4, note=47, velocity=51, time=464),
    Message('note_on', channel=4, note=50, velocity=61, time=8),
    Message('note_on', channel=4, note=55, velocity=61, time=12),
    Message('note_on', channel=4, note=59, velocity=61, time=8),
    Message('note_on', channel=4, note=67, velocity=61, time=12),
    Message('note_off', channel=4, note=47, velocity=64, time=432),
    Message('note_off', channel=4, note=50, velocity=64, time=8),
    Message('note_on', channel=4, note=47, velocity=51, time=0),
    Message('note_on', channel=4, note=50, velocity=61, time=8),
    Message('note_off', channel=4, note=55, velocity=64, time=4),
    Message('note_off', channel=4, note=59, velocity=64, time=8),
    Message('note_off', channel=4, note=67, velocity=64, time=0),
    Message('note_on', channel=4, note=55, velocity=61, time=0),
    Message('note_on', channel=4, note=59, velocity=61, time=8),
    Message('note_on', channel=4, note=67, velocity=61, time=12),
    Message('note_off', channel=4, note=43, velocity=64, time=84),
    Message('note_off', channel=4, note=47, velocity=64, time=332),
    Message('note_off', channel=4, note=50, velocity=64, time=0),
    Message('note_off', channel=4, note=55, velocity=64, time=0),
    Message('note_off', channel=4, note=59, velocity=64, time=0),
    Message('note_off', channel=4, note=67, velocity=64, time=0),
    Message('note_on', channel=4, note=43, velocity=48, time=40),
    Message('note_off', channel=4, note=43, velocity=64, time=444),
    Message('note_on', channel=4, note=49, velocity=51, time=12),
    Message('note_on', channel=4, note=54, velocity=61, time=8),
    Message('note_on', channel=4, note=57, velocity=61, time=12),
    Message('note_on', channel=4, note=61, velocity=61, time=8),
    Message('note_on', channel=4, note=66, velocity=61, time=12),
    Message('note_off', channel=4, note=66, velocity=64, time=432),
    Message('note_off', channel=4, note=61, velocity=64, time=0),
    Message('note_off', channel=4, note=57, velocity=64, time=0),
    Message('note_off', channel=4, note=54, velocity=64, time=0),
    Message('note_off', channel=4, note=49, velocity=64, time=0),
    Message('note_on', channel=4, note=47, velocity=51, time=8),
    Message('note_on', channel=4, note=52, velocity=61, time=8),
    Message('note_on', channel=4, note=55, velocity=61, time=12),
    Message('note_on', channel=4, note=59, velocity=61, time=8),
    Message('note_on', channel=4, note=64, velocity=61, time=12),
    Message('note_off', channel=4, note=64, velocity=64, time=428),
    Message('note_off', channel=4, note=59, velocity=64, time=0),
    Message('note_off', channel=4, note=55, velocity=64, time=0),
    Message('note_off', channel=4, note=52, velocity=64, time=0),
    Message('note_off', channel=4, note=47, velocity=64, time=0),
    Message('note_on', channel=4, note=50, velocity=65, time=36),
    Message('note_on', channel=4, note=57, velocity=65, time=464),
    Message('note_on', channel=4, note=62, velocity=65, time=16),
    Message('note_on', channel=4, note=66, velocity=65, time=16),
    Message('note_off', channel=4, note=66, velocity=64, time=208),
    Message('note_on', channel=4, note=66, velocity=40, time=8),
    Message('note_off', channel=4, note=62, velocity=64, time=4),
    Message('note_on', channel=4, note=62, velocity=46, time=8),
    Message('note_off', channel=4, note=57, velocity=64, time=8),
    Message('note_on', channel=4, note=57, velocity=46, time=4),
    Message('note_off', channel=4, note=50, velocity=64, time=4),
    Message('note_on', channel=4, note=50, velocity=40, time=8),
    Message('note_off', channel=4, note=57, velocity=64, time=180),
    Message('note_on', channel=4, note=57, velocity=56, time=8),
    Message('note_off', channel=4, note=62, velocity=64, time=8),
    Message('note_on', channel=4, note=62, velocity=56, time=8),
    Message('note_off', channel=4, note=66, velocity=64, time=8),
    Message('note_on', channel=4, note=66, velocity=56, time=8),
    Message('note_off', channel=4, note=50, velocity=64, time=4),
    Message('note_off', channel=4, note=57, velocity=64, time=408),
    Message('note_off', channel=4, note=62, velocity=64, time=0),
    Message('note_off', channel=4, note=66, velocity=64, time=0),
    Message('note_on', channel=4, note=50, velocity=61, time=60),
    Message('note_on', channel=4, note=57, velocity=61, time=464),
    Message('note_on', channel=4, note=62, velocity=61, time=16),
    Message('note_on', channel=4, note=66, velocity=61, time=16),
    Message('note_off', channel=4, note=57, velocity=64, time=440),
    Message('note_on', channel=4, note=57, velocity=61, time=8),
    Message('note_off', channel=4, note=62, velocity=64, time=8),
    Message('note_on', channel=4, note=62, velocity=61, time=8),
    Message('note_off', channel=4, note=66, velocity=64, time=8),
    Message('note_on', channel=4, note=66, velocity=61, time=8),
    Message('note_off', channel=4, note=50, velocity=64, time=348),
    Message('note_off', channel=4, note=57, velocity=64, time=76),
    Message('note_off', channel=4, note=62, velocity=64, time=0),
    Message('note_off', channel=4, note=66, velocity=64, time=0),
    Message('note_on', channel=4, note=40, velocity=48, time=40),
    Message('note_on', channel=4, note=47, velocity=51, time=464),
    Message('note_on', channel=4, note=52, velocity=61, time=8),
    Message('note_on', channel=4, note=55, velocity=61, time=12),
    Message('note_on', channel=4, note=59, velocity=61, time=8),
    Message('note_on', channel=4, note=64, velocity=61, time=12),
    Message('note_off', channel=4, note=47, velocity=64, time=432),
    Message('note_off', channel=4, note=52, velocity=64, time=8),
    Message('note_on', channel=4, note=47, velocity=51, time=0),
    Message('note_on', channel=4, note=52, velocity=61, time=8),
    Message('note_off', channel=4, note=55, velocity=64, time=4),
    Message('note_off', channel=4, note=59, velocity=64, time=8),
    Message('note_off', channel=4, note=64, velocity=64, time=0),
    Message('note_on', channel=4, note=55, velocity=61, time=0),
    Message('note_on', channel=4, note=59, velocity=61, time=8),
    Message('note_on', channel=4, note=64, velocity=61, time=12),
    Message('note_off', channel=4, note=40, velocity=64, time=84),
    Message('note_off', channel=4, note=47, velocity=64, time=332),
    Message('note_off', channel=4, note=52, velocity=64, time=0),
    Message('note_off', channel=4, note=55, velocity=64, time=0),
    Message('note_off', channel=4, note=59, velocity=64, time=0),
    Message('note_off', channel=4, note=64, velocity=64, time=0),
    Message('note_on', channel=4, note=50, velocity=61, time=40),
    Message('note_on', channel=4, note=57, velocity=61, time=464),
    Message('note_on', channel=4, note=62, velocity=61, time=16),
    Message('note_on', channel=4, note=66, velocity=61, time=16),
    Message('note_off', channel=4, note=50, velocity=64, time=396),
    Message('note_off', channel=4, note=57, velocity=64, time=12),
    Message('note_off', channel=4, note=62, velocity=64, time=0),
    Message('note_off', channel=4, note=66, velocity=64, time=0),
    Message('note_on', channel=4, note=47, velocity=51, time=32),
    Message('note_on', channel=4, note=52, velocity=61, time=8),
    Message('note_on', channel=4, note=55, velocity=61, time=12),
    Message('note_on', channel=4, note=59, velocity=61, time=8),
    Message('note_on', channel=4, note=64, velocity=61, time=12),
    Message('note_off', channel=4, note=64, velocity=64, time=428),
    Message('note_off', channel=4, note=59, velocity=64, time=0),
    Message('note_off', channel=4, note=55, velocity=64, time=0),
    Message('note_off', channel=4, note=52, velocity=64, time=0),
    Message('note_off', channel=4, note=47, velocity=64, time=0),
    Message('note_on', channel=4, note=50, velocity=61, time=36),
    Message('note_off', channel=4, note=50, velocity=64, time=444),
    Message('note_on', channel=4, note=47, velocity=51, time=12),
    Message('note_on', channel=4, note=52, velocity=61, time=8),
    Message('note_on', channel=4, note=55, velocity=61, time=12),
    Message('note_on', channel=4, note=59, velocity=61, time=8),
    Message('note_on', channel=4, note=64, velocity=61, time=12),
    Message('note_off', channel=4, note=64, velocity=64, time=432),
    Message('note_off', channel=4, note=59, velocity=64, time=0),
    Message('note_off', channel=4, note=55, velocity=64, time=0),
    Message('note_off', channel=4, note=52, velocity=64, time=0),
    Message('note_off', channel=4, note=47, velocity=64, time=0),
    Message('note_on', channel=4, note=57, velocity=61, time=8),
    Message('note_on', channel=4, note=62, velocity=61, time=16),
    Message('note_on', channel=4, note=66, velocity=61, time=16),
    Message('note_off', channel=4, note=66, velocity=64, time=436),
    Message('note_off', channel=4, note=62, velocity=64, time=0),
    Message('note_off', channel=4, note=57, velocity=64, time=0),
    Message('note_on', channel=4, note=40, velocity=55, time=36),
    Message('note_on', channel=4, note=47, velocity=58, time=464),
    Message('note_on', channel=4, note=52, velocity=69, time=8),
    Message('note_on', channel=4, note=55, velocity=69, time=12),
    Message('note_on', channel=4, note=59, velocity=69, time=8),
    Message('note_on', channel=4, note=64, velocity=69, time=12),
    Message('note_off', channel=4, note=64, velocity=64, time=200),
    Message('note_off', channel=4, note=59, velocity=64, time=8),
    Message('note_on', channel=4, note=64, velocity=43, time=0),
    Message('note_off', channel=4, note=55, velocity=64, time=8),
    Message('note_on', channel=4, note=59, velocity=49, time=0),
    Message('note_on', channel=4, note=55, velocity=49, time=8),
    Message('note_off', channel=4, note=52, velocity=64, time=4),
    Message('note_off', channel=4, note=47, velocity=64, time=0),
    Message('note_on', channel=4, note=52, velocity=43, time=4),
    Message('note_off', channel=4, note=40, velocity=64, time=8),
    Message('note_on', channel=4, note=47, velocity=31, time=0),
    Message('note_on', channel=4, note=40, velocity=6, time=8),
    Message('note_off', channel=4, note=47, velocity=64, time=176),
    Message('note_off', channel=4, note=52, velocity=64, time=8),
    Message('note_on', channel=4, note=47, velocity=51, time=0),
    Message('note_on', channel=4, note=52, velocity=60, time=8),
    Message('note_off', channel=4, note=55, velocity=64, time=4),
    Message('note_off', channel=4, note=59, velocity=64, time=8),
    Message('note_on', channel=4, note=55, velocity=60, time=0),
    Message('note_on', channel=4, note=59, velocity=60, time=8),
    Message('note_off', channel=4, note=64, velocity=64, time=8),
    Message('note_off', channel=4, note=40, velocity=64, time=0),
    Message('note_on', channel=4, note=64, velocity=60, time=4),
    Message('note_on', channel=4, note=40, velocity=56, time=464),
    Message('note_off', channel=4, note=47, velocity=64, time=100),
    Message('note_off', channel=4, note=52, velocity=64, time=0),
    Message('note_off', channel=4, note=55, velocity=64, time=0),
    Message('note_off', channel=4, note=59, velocity=64, time=0),
    Message('note_off', channel=4, note=64, velocity=64, time=0),
    Message('note_on', channel=4, note=64, velocity=35, time=128),
    Message('note_on', channel=4, note=59, velocity=40, time=8),
    Message('note_on', channel=4, note=55, velocity=40, time=8),
    Message('note_on', channel=4, note=52, velocity=35, time=8),
    Message('note_off', channel=4, note=40, velocity=64, time=8),
    Message('note_on', channel=4, note=47, velocity=25, time=0),
    Message('note_on', channel=4, note=40, velocity=5, time=8),
    Message('note_off', channel=4, note=47, velocity=64, time=176),
    Message('note_off', channel=4, note=52, velocity=64, time=8),
    Message('note_on', channel=4, note=47, velocity=51, time=0),
    Message('note_on', channel=4, note=52, velocity=60, time=8),
    Message('note_off', channel=4, note=55, velocity=64, time=4),
    Message('note_off', channel=4, note=59, velocity=64, time=8),
    Message('note_on', channel=4, note=55, velocity=60, time=0),
    Message('note_on', channel=4, note=59, velocity=60, time=8),
    Message('note_off', channel=4, note=64, velocity=64, time=4),
    Message('note_on', channel=4, note=64, velocity=60, time=8),
    Message('note_off', channel=4, note=40, velocity=64, time=4),
    Message('note_off', channel=4, note=47, velocity=64, time=220),
    Message('note_off', channel=4, note=52, velocity=64, time=0),
    Message('note_off', channel=4, note=55, velocity=64, time=0),
    Message('note_off', channel=4, note=59, velocity=64, time=0),
    Message('note_off', channel=4, note=64, velocity=64, time=0),
    Message('note_on', channel=4, note=64, velocity=45, time=8),
    Message('note_on', channel=4, note=59, velocity=52, time=8),
    Message('note_on', channel=4, note=55, velocity=52, time=8),
    Message('note_on', channel=4, note=52, velocity=45, time=8),
    Message('note_on', channel=4, note=47, velocity=32, time=8),
    Message('note_on', channel=4, note=40, velocity=6, time=8),
    Message('note_off', channel=4, note=47, velocity=64, time=160),
    Message('note_off', channel=4, note=52, velocity=64, time=8),
    Message('note_on', channel=4, note=47, velocity=46, time=0),
    Message('note_on', channel=4, note=52, velocity=55, time=8),
    Message('note_off', channel=4, note=55, velocity=64, time=4),
    Message('note_on', channel=4, note=55, velocity=55, time=8),
    Message('note_off', channel=4, note=59, velocity=64, time=4),
    Message('note_off', channel=4, note=64, velocity=64, time=0),
    Message('note_off', channel=4, note=40, velocity=64, time=0),
    Message('note_on', channel=4, note=59, velocity=55, time=4),
    Message('note_on', channel=4, note=64, velocity=55, time=12),
    Message('note_off', channel=4, note=64, velocity=64, time=208),
    Message('note_off', channel=4, note=59, velocity=64, time=8),
    Message('note_on', channel=4, note=64, velocity=37, time=0),
    Message('note_off', channel=4, note=55, velocity=64, time=8),
    Message('note_on', channel=4, note=59, velocity=43, time=0),
    Message('note_off', channel=4, note=47, velocity=64, time=8),
    Message('note_off', channel=4, note=52, velocity=64, time=0),
    Message('note_on', channel=4, note=55, velocity=43, time=0),
    Message('note_on', channel=4, note=52, velocity=37, time=8),
    Message('note_on', channel=4, note=47, velocity=27, time=8),
    Message('note_on', channel=4, note=40, velocity=5, time=8),
    Message('note_off', channel=4, note=40, velocity=64, time=184),
    Message('note_off', channel=4, note=47, velocity=64, time=0),
    Message('note_off', channel=4, note=52, velocity=64, time=0),
    Message('note_off', channel=4, note=64, velocity=64, time=0),
    Message('note_off', channel=4, note=59, velocity=64, time=0),
    Message('note_off', channel=4, note=55, velocity=64, time=0),
    Message('note_on', channel=4, note=40, velocity=48, time=28),
    Message('note_on', channel=4, note=47, velocity=51, time=464),
    Message('note_on', channel=4, note=52, velocity=61, time=8),
    Message('note_on', channel=4, note=55, velocity=61, time=12),
    Message('note_on', channel=4, note=59, velocity=61, time=8),
    Message('note_on', channel=4, note=64, velocity=61, time=12),
    Message('note_off', channel=4, note=47, velocity=64, time=432),
    Message('note_off', channel=4, note=52, velocity=64, time=8),
    Message('note_on', channel=4, note=47, velocity=51, time=0),
    Message('note_on', channel=4, note=52, velocity=61, time=8),
    Message('note_off', channel=4, note=55, velocity=64, time=4),
    Message('note_off', channel=4, note=59, velocity=64, time=8),
    Message('note_off', channel=4, note=64, velocity=64, time=0),
    Message('note_on', channel=4, note=55, velocity=61, time=0),
    Message('note_on', channel=4, note=59, velocity=61, time=8),
    Message('note_on', channel=4, note=64, velocity=61, time=12),
    Message('note_off', channel=4, note=40, velocity=64, time=84),
    Message('note_on', channel=4, note=40, velocity=48, time=372),
    Message('note_off', channel=4, note=47, velocity=64, time=4),
    Message('note_off', channel=4, note=52, velocity=64, time=0),
    Message('note_off', channel=4, note=55, velocity=64, time=0),
    Message('note_off', channel=4, note=59, velocity=64, time=0),
    Message('note_off', channel=4, note=64, velocity=64, time=0),
    Message('note_on', channel=4, note=47, velocity=51, time=460),
    Message('note_on', channel=4, note=52, velocity=61, time=8),
    Message('note_on', channel=4, note=55, velocity=61, time=12),
    Message('note_on', channel=4, note=59, velocity=61, time=8),
    Message('note_on', channel=4, note=64, velocity=61, time=12),
    Message('note_off', channel=4, note=47, velocity=64, time=432),
    Message('note_off', channel=4, note=52, velocity=64, time=8),
    Message('note_on', channel=4, note=47, velocity=51, time=0),
    Message('note_on', channel=4, note=52, velocity=61, time=8),
    Message('note_off', channel=4, note=55, velocity=64, time=4),
    Message('note_on', channel=4, note=55, velocity=61, time=8),
    Message('note_off', channel=4, note=59, velocity=64, time=4),
    Message('note_off', channel=4, note=64, velocity=64, time=0),
    Message('note_on', channel=4, note=59, velocity=61, time=4),
    Message('note_on', channel=4, note=64, velocity=61, time=12),
    Message('note_off', channel=4, note=40, velocity=64, time=196),
    Message('note_off', channel=4, note=47, velocity=64, time=232),
    Message('note_off', channel=4, note=52, velocity=64, time=0),
    Message('note_off', channel=4, note=55, velocity=64, time=0),
    Message('note_off', channel=4, note=59, velocity=64, time=0),
    Message('note_off', channel=4, note=64, velocity=64, time=0),
    Message('note_on', channel=4, note=40, velocity=48, time=28),
    Message('note_on', channel=4, note=47, velocity=51, time=464),
    Message('note_on', channel=4, note=52, velocity=61, time=8),
    Message('note_on', channel=4, note=55, velocity=61, time=12),
    Message('note_on', channel=4, note=59, velocity=61, time=8),
    Message('note_on', channel=4, note=64, velocity=61, time=12),
    Message('note_off', channel=4, note=47, velocity=64, time=432),
    Message('note_off', channel=4, note=52, velocity=64, time=8),
    Message('note_on', channel=4, note=47, velocity=51, time=0),
    Message('note_on', channel=4, note=52, velocity=61, time=8),
    Message('note_off', channel=4, note=55, velocity=64, time=4),
    Message('note_off', channel=4, note=59, velocity=64, time=8),
    Message('note_off', channel=4, note=64, velocity=64, time=0),
    Message('note_on', channel=4, note=55, velocity=61, time=0),
    Message('note_on', channel=4, note=59, velocity=61, time=8),
    Message('note_on', channel=4, note=64, velocity=61, time=12),
    Message('note_off', channel=4, note=40, velocity=64, time=84),
    Message('note_on', channel=4, note=40, velocity=48, time=372),
    Message('note_off', channel=4, note=47, velocity=64, time=4),
    Message('note_off', channel=4, note=52, velocity=64, time=0),
    Message('note_off', channel=4, note=55, velocity=64, time=0),
    Message('note_off', channel=4, note=59, velocity=64, time=0),
    Message('note_off', channel=4, note=64, velocity=64, time=0),
    Message('note_on', channel=4, note=47, velocity=51, time=460),
    Message('note_on', channel=4, note=52, velocity=61, time=8),
    Message('note_on', channel=4, note=55, velocity=61, time=12),
    Message('note_on', channel=4, note=59, velocity=61, time=8),
    Message('note_on', channel=4, note=64, velocity=61, time=12),
    Message('note_off', channel=4, note=47, velocity=64, time=432),
    Message('note_off', channel=4, note=52, velocity=64, time=8),
    Message('note_on', channel=4, note=47, velocity=51, time=0),
    Message('note_on', channel=4, note=52, velocity=61, time=8),
    Message('note_off', channel=4, note=55, velocity=64, time=4),
    Message('note_on', channel=4, note=55, velocity=61, time=8),
    Message('note_off', channel=4, note=59, velocity=64, time=4),
    Message('note_off', channel=4, note=64, velocity=64, time=0),
    Message('note_on', channel=4, note=59, velocity=61, time=4),
    Message('note_on', channel=4, note=64, velocity=61, time=12),
    Message('note_off', channel=4, note=40, velocity=64, time=196),
    Message('note_off', channel=4, note=47, velocity=64, time=232),
    Message('note_off', channel=4, note=52, velocity=64, time=0),
    Message('note_off', channel=4, note=55, velocity=64, time=0),
    Message('note_off', channel=4, note=59, velocity=64, time=0),
    Message('note_off', channel=4, note=64, velocity=64, time=0),
    Message('note_on', channel=4, note=50, velocity=61, time=28),
    Message('note_off', channel=4, note=50, velocity=64, time=444),
    Message('note_on', channel=4, note=47, velocity=51, time=12),
    Message('note_on', channel=4, note=52, velocity=61, time=8),
    Message('note_on', channel=4, note=55, velocity=61, time=12),
    Message('note_on', channel=4, note=59, velocity=61, time=8),
    Message('note_on', channel=4, note=64, velocity=61, time=12),
    Message('note_off', channel=4, note=64, velocity=64, time=432),
    Message('note_off', channel=4, note=59, velocity=64, time=0),
    Message('note_off', channel=4, note=55, velocity=64, time=0),
    Message('note_off', channel=4, note=52, velocity=64, time=0),
    Message('note_off', channel=4, note=47, velocity=64, time=0),
    Message('note_on', channel=4, note=57, velocity=61, time=8),
    Message('note_on', channel=4, note=62, velocity=61, time=16),
    Message('note_on', channel=4, note=66, velocity=61, time=16),
    Message('note_off', channel=4, note=66, velocity=64, time=436),
    Message('note_off', channel=4, note=62, velocity=64, time=0),
    Message('note_off', channel=4, note=57, velocity=64, time=0),
    Message('note_on', channel=4, note=40, velocity=52, time=36),
    Message('note_on', channel=4, note=47, velocity=55, time=464),
    Message('note_on', channel=4, note=52, velocity=65, time=8),
    Message('note_on', channel=4, note=55, velocity=65, time=12),
    Message('note_on', channel=4, note=59, velocity=65, time=8),
    Message('note_on', channel=4, note=64, velocity=65, time=12),
    Message('note_off', channel=4, note=64, velocity=64, time=200),
    Message('note_off', channel=4, note=59, velocity=64, time=8),
    Message('note_on', channel=4, note=64, velocity=40, time=0),
    Message('note_off', channel=4, note=55, velocity=64, time=8),
    Message('note_on', channel=4, note=59, velocity=46, time=0),
    Message('note_on', channel=4, note=55, velocity=46, time=8),
    Message('note_off', channel=4, note=52, velocity=64, time=4),
    Message('note_off', channel=4, note=47, velocity=64, time=0),
    Message('note_on', channel=4, note=52, velocity=40, time=4),
    Message('note_off', channel=4, note=40, velocity=64, time=8),
    Message('note_on', channel=4, note=47, velocity=29, time=0),
    Message('note_on', channel=4, note=40, velocity=5, time=8),
    Message('note_off', channel=4, note=47, velocity=64, time=176),
    Message('note_off', channel=4, note=52, velocity=64, time=8),
    Message('note_on', channel=4, note=47, velocity=47, time=0),
    Message('note_on', channel=4, note=52, velocity=56, time=8),
    Message('note_off', channel=4, note=55, velocity=64, time=4),
    Message('note_off', channel=4, note=59, velocity=64, time=8),
    Message('note_on', channel=4, note=55, velocity=56, time=0),
    Message('note_on', channel=4, note=59, velocity=56, time=8),
    Message('note_off', channel=4, note=64, velocity=64, time=8),
    Message('note_off', channel=4, note=40, velocity=64, time=0),
    Message('note_on', channel=4, note=64, velocity=56, time=4),
    Message('note_off', channel=4, note=47, velocity=64, time=404),
    Message('note_off', channel=4, note=52, velocity=64, time=0),
    Message('note_off', channel=4, note=55, velocity=64, time=0),
    Message('note_off', channel=4, note=59, velocity=64, time=0),
    Message('note_off', channel=4, note=64, velocity=64, time=0),
    Message('note_on', channel=4, note=40, velocity=52, time=60),
    Message('note_on', channel=4, note=47, velocity=55, time=464),
    Message('note_on', channel=4, note=52, velocity=65, time=8),
    Message('note_on', channel=4, note=55, velocity=65, time=12),
    Message('note_on', channel=4, note=59, velocity=65, time=8),
    Message('note_on', channel=4, note=64, velocity=65, time=12),
    Message('note_off', channel=4, note=64, velocity=64, time=200),
    Message('note_off', channel=4, note=59, velocity=64, time=8),
    Message('note_on', channel=4, note=64, velocity=40, time=0),
    Message('note_off', channel=4, note=55, velocity=64, time=8),
    Message('note_on', channel=4, note=59, velocity=46, time=0),
    Message('note_on', channel=4, note=55, velocity=46, time=8),
    Message('note_off', channel=4, note=52, velocity=64, time=4),
    Message('note_off', channel=4, note=47, velocity=64, time=0),
    Message('note_on', channel=4, note=52, velocity=40, time=4),
    Message('note_off', channel=4, note=40, velocity=64, time=8),
    Message('note_on', channel=4, note=47, velocity=29, time=0),
    Message('note_on', channel=4, note=40, velocity=5, time=8),
    Message('note_off', channel=4, note=47, velocity=64, time=176),
    Message('note_off', channel=4, note=52, velocity=64, time=8),
    Message('note_on', channel=4, note=47, velocity=47, time=0),
    Message('note_on', channel=4, note=52, velocity=56, time=8),
    Message('note_off', channel=4, note=55, velocity=64, time=4),
    Message('note_off', channel=4, note=59, velocity=64, time=8),
    Message('note_on', channel=4, note=55, velocity=56, time=0),
    Message('note_on', channel=4, note=59, velocity=56, time=8),
    Message('note_off', channel=4, note=64, velocity=64, time=8),
    Message('note_off', channel=4, note=40, velocity=64, time=0),
    Message('note_on', channel=4, note=64, velocity=56, time=4),
    Message('note_off', channel=4, note=47, velocity=64, time=404),
    Message('note_off', channel=4, note=52, velocity=64, time=0),
    Message('note_off', channel=4, note=55, velocity=64, time=0),
    Message('note_off', channel=4, note=59, velocity=64, time=0),
    Message('note_off', channel=4, note=64, velocity=64, time=0),
    Message('note_on', channel=4, note=43, velocity=52, time=60),
    Message('note_on', channel=4, note=47, velocity=55, time=464),
    Message('note_on', channel=4, note=50, velocity=65, time=8),
    Message('note_on', channel=4, note=55, velocity=65, time=12),
    Message('note_on', channel=4, note=59, velocity=65, time=8),
    Message('note_on', channel=4, note=67, velocity=65, time=12),
    Message('note_off', channel=4, note=67, velocity=64, time=200),
    Message('note_off', channel=4, note=59, velocity=64, time=8),
    Message('note_on', channel=4, note=67, velocity=40, time=0),
    Message('note_off', channel=4, note=55, velocity=64, time=8),
    Message('note_on', channel=4, note=59, velocity=46, time=0),
    Message('note_on', channel=4, note=55, velocity=46, time=8),
    Message('note_off', channel=4, note=50, velocity=64, time=4),
    Message('note_off', channel=4, note=47, velocity=64, time=0),
    Message('note_on', channel=4, note=50, velocity=40, time=4),
    Message('note_off', channel=4, note=43, velocity=64, time=8),
    Message('note_on', channel=4, note=47, velocity=29, time=0),
    Message('note_on', channel=4, note=43, velocity=5, time=8),
    Message('note_off', channel=4, note=47, velocity=64, time=176),
    Message('note_off', channel=4, note=50, velocity=64, time=8),
    Message('note_on', channel=4, note=47, velocity=47, time=0),
    Message('note_on', channel=4, note=50, velocity=56, time=8),
    Message('note_off', channel=4, note=55, velocity=64, time=4),
    Message('note_off', channel=4, note=59, velocity=64, time=8),
    Message('note_on', channel=4, note=55, velocity=56, time=0),
    Message('note_on', channel=4, note=59, velocity=56, time=8),
    Message('note_off', channel=4, note=67, velocity=64, time=8),
    Message('note_off', channel=4, note=43, velocity=64, time=0),
    Message('note_on', channel=4, note=67, velocity=56, time=4),
    Message('note_off', channel=4, note=47, velocity=64, time=404),
    Message('note_off', channel=4, note=50, velocity=64, time=0),
    Message('note_off', channel=4, note=55, velocity=64, time=0),
    Message('note_off', channel=4, note=59, velocity=64, time=0),
    Message('note_off', channel=4, note=67, velocity=64, time=0),
    Message('note_on', channel=4, note=40, velocity=48, time=60),
    Message('note_on', channel=4, note=47, velocity=51, time=464),
    Message('note_on', channel=4, note=52, velocity=61, time=8),
    Message('note_on', channel=4, note=55, velocity=61, time=12),
    Message('note_on', channel=4, note=59, velocity=61, time=8),
    Message('note_on', channel=4, note=64, velocity=61, time=12),
    Message('note_off', channel=4, note=47, velocity=64, time=432),
    Message('note_off', channel=4, note=52, velocity=64, time=8),
    Message('note_on', channel=4, note=47, velocity=51, time=0),
    Message('note_on', channel=4, note=52, velocity=61, time=8),
    Message('note_off', channel=4, note=55, velocity=64, time=4),
    Message('note_on', channel=4, note=55, velocity=61, time=8),
    Message('note_off', channel=4, note=59, velocity=64, time=4),
    Message('note_off', channel=4, note=64, velocity=64, time=0),
    Message('note_on', channel=4, note=59, velocity=61, time=4),
    Message('note_on', channel=4, note=64, velocity=61, time=12),
    Message('note_off', channel=4, note=40, velocity=64, time=340),
    Message('note_off', channel=4, note=47, velocity=64, time=76),
    Message('note_off', channel=4, note=52, velocity=64, time=0),
    Message('note_off', channel=4, note=55, velocity=64, time=0),
    Message('note_off', channel=4, note=59, velocity=64, time=0),
    Message('note_off', channel=4, note=64, velocity=64, time=0),
    Message('note_on', channel=4, note=43, velocity=48, time=40),
    Message('note_off', channel=4, note=43, velocity=64, time=444),
    Message('note_on', channel=4, note=52, velocity=61, time=12),
    Message('note_on', channel=4, note=57, velocity=61, time=12),
    Message('note_on', channel=4, note=61, velocity=61, time=12),
    Message('note_on', channel=4, note=64, velocity=61, time=12),
    Message('note_off', channel=4, note=64, velocity=64, time=436),
    Message('note_off', channel=4, note=61, velocity=64, time=0),
    Message('note_off', channel=4, note=57, velocity=64, time=0),
    Message('note_off', channel=4, note=52, velocity=64, time=0),
    Message('note_on', channel=4, note=52, velocity=61, time=8),
    Message('note_on', channel=4, note=57, velocity=61, time=12),
    Message('note_on', channel=4, note=61, velocity=61, time=12),
    Message('note_on', channel=4, note=64, velocity=61, time=12),
    Message('note_off', channel=4, note=64, velocity=64, time=432),
    Message('note_off', channel=4, note=61, velocity=64, time=0),
    Message('note_off', channel=4, note=57, velocity=64, time=0),
    Message('note_off', channel=4, note=52, velocity=64, time=0),
    Message('note_on', channel=4, note=40, velocity=55, time=36),
    Message('note_on', channel=4, note=47, velocity=58, time=464),
    Message('note_on', channel=4, note=52, velocity=69, time=8),
    Message('note_on', channel=4, note=55, velocity=69, time=12),
    Message('note_on', channel=4, note=59, velocity=69, time=8),
    Message('note_on', channel=4, note=64, velocity=69, time=12),
    Message('note_off', channel=4, note=64, velocity=64, time=200),
    Message('note_off', channel=4, note=59, velocity=64, time=8),
    Message('note_on', channel=4, note=64, velocity=43, time=0),
    Message('note_off', channel=4, note=55, velocity=64, time=8),
    Message('note_on', channel=4, note=59, velocity=49, time=0),
    Message('note_on', channel=4, note=55, velocity=49, time=8),
    Message('note_off', channel=4, note=52, velocity=64, time=4),
    Message('note_off', channel=4, note=47, velocity=64, time=0),
    Message('note_on', channel=4, note=52, velocity=43, time=4),
    Message('note_off', channel=4, note=40, velocity=64, time=8),
    Message('note_on', channel=4, note=47, velocity=31, time=0),
    Message('note_on', channel=4, note=40, velocity=6, time=8),
    Message('note_off', channel=4, note=47, velocity=64, time=176),
    Message('note_off', channel=4, note=52, velocity=64, time=8),
    Message('note_on', channel=4, note=47, velocity=51, time=0),
    Message('note_on', channel=4, note=52, velocity=60, time=8),
    Message('note_off', channel=4, note=55, velocity=64, time=4),
    Message('note_off', channel=4, note=59, velocity=64, time=8),
    Message('note_on', channel=4, note=55, velocity=60, time=0),
    Message('note_on', channel=4, note=59, velocity=60, time=8),
    Message('note_off', channel=4, note=64, velocity=64, time=8),
    Message('note_off', channel=4, note=40, velocity=64, time=0),
    Message('note_on', channel=4, note=64, velocity=60, time=4),
    Message('note_on', channel=4, note=40, velocity=56, time=464),
    Message('note_off', channel=4, note=47, velocity=64, time=100),
    Message('note_off', channel=4, note=52, velocity=64, time=0),
    Message('note_off', channel=4, note=55, velocity=64, time=0),
    Message('note_off', channel=4, note=59, velocity=64, time=0),
    Message('note_off', channel=4, note=64, velocity=64, time=0),
    Message('note_on', channel=4, note=64, velocity=35, time=128),
    Message('note_on', channel=4, note=59, velocity=40, time=8),
    Message('note_on', channel=4, note=55, velocity=40, time=8),
    Message('note_on', channel=4, note=52, velocity=35, time=8),
    Message('note_off', channel=4, note=40, velocity=64, time=8),
    Message('note_on', channel=4, note=47, velocity=25, time=0),
    Message('note_on', channel=4, note=40, velocity=5, time=8),
    Message('note_off', channel=4, note=47, velocity=64, time=176),
    Message('note_off', channel=4, note=52, velocity=64, time=8),
    Message('note_on', channel=4, note=47, velocity=51, time=0),
    Message('note_on', channel=4, note=52, velocity=60, time=8),
    Message('note_off', channel=4, note=55, velocity=64, time=4),
    Message('note_off', channel=4, note=59, velocity=64, time=8),
    Message('note_on', channel=4, note=55, velocity=60, time=0),
    Message('note_on', channel=4, note=59, velocity=60, time=8),
    Message('note_off', channel=4, note=64, velocity=64, time=4),
    Message('note_on', channel=4, note=64, velocity=60, time=8),
    Message('note_off', channel=4, note=40, velocity=64, time=4),
    Message('note_off', channel=4, note=47, velocity=64, time=220),
    Message('note_off', channel=4, note=52, velocity=64, time=0),
    Message('note_off', channel=4, note=55, velocity=64, time=0),
    Message('note_off', channel=4, note=59, velocity=64, time=0),
    Message('note_off', channel=4, note=64, velocity=64, time=0),
    Message('note_on', channel=4, note=64, velocity=45, time=8),
    Message('note_on', channel=4, note=59, velocity=52, time=8),
    Message('note_on', channel=4, note=55, velocity=52, time=8),
    Message('note_on', channel=4, note=52, velocity=45, time=8),
    Message('note_on', channel=4, note=47, velocity=32, time=8),
    Message('note_on', channel=4, note=40, velocity=6, time=8),
    Message('note_off', channel=4, note=47, velocity=64, time=160),
    Message('note_off', channel=4, note=52, velocity=64, time=8),
    Message('note_on', channel=4, note=47, velocity=46, time=0),
    Message('note_on', channel=4, note=52, velocity=55, time=8),
    Message('note_off', channel=4, note=55, velocity=64, time=4),
    Message('note_on', channel=4, note=55, velocity=55, time=8),
    Message('note_off', channel=4, note=59, velocity=64, time=4),
    Message('note_off', channel=4, note=64, velocity=64, time=0),
    Message('note_off', channel=4, note=40, velocity=64, time=0),
    Message('note_on', channel=4, note=59, velocity=55, time=4),
    Message('note_on', channel=4, note=64, velocity=55, time=12),
    Message('note_off', channel=4, note=64, velocity=64, time=208),
    Message('note_off', channel=4, note=59, velocity=64, time=8),
    Message('note_on', channel=4, note=64, velocity=37, time=0),
    Message('note_off', channel=4, note=55, velocity=64, time=8),
    Message('note_on', channel=4, note=59, velocity=43, time=0),
    Message('note_off', channel=4, note=47, velocity=64, time=8),
    Message('note_off', channel=4, note=52, velocity=64, time=0),
    Message('note_on', channel=4, note=55, velocity=43, time=0),
    Message('note_on', channel=4, note=52, velocity=37, time=8),
    Message('note_on', channel=4, note=47, velocity=27, time=8),
    Message('note_on', channel=4, note=40, velocity=5, time=8),
    Message('note_off', channel=4, note=40, velocity=64, time=184),
    Message('note_off', channel=4, note=47, velocity=64, time=0),
    Message('note_off', channel=4, note=52, velocity=64, time=0),
    Message('note_off', channel=4, note=64, velocity=64, time=0),
    Message('note_off', channel=4, note=59, velocity=64, time=0),
    Message('note_off', channel=4, note=55, velocity=64, time=0),
    Message('note_on', channel=4, note=40, velocity=55, time=28),
    Message('note_on', channel=4, note=47, velocity=58, time=464),
    Message('note_on', channel=4, note=52, velocity=69, time=8),
    Message('note_on', channel=4, note=55, velocity=69, time=12),
    Message('note_on', channel=4, note=59, velocity=69, time=8),
    Message('note_on', channel=4, note=64, velocity=69, time=12),
    Message('note_off', channel=4, note=64, velocity=64, time=200),
    Message('note_off', channel=4, note=59, velocity=64, time=8),
    Message('note_on', channel=4, note=64, velocity=43, time=0),
    Message('note_off', channel=4, note=55, velocity=64, time=8),
    Message('note_on', channel=4, note=59, velocity=49, time=0),
    Message('note_on', channel=4, note=55, velocity=49, time=8),
    Message('note_off', channel=4, note=52, velocity=64, time=4),
    Message('note_off', channel=4, note=47, velocity=64, time=0),
    Message('note_on', channel=4, note=52, velocity=43, time=4),
    Message('note_off', channel=4, note=40, velocity=64, time=8),
    Message('note_on', channel=4, note=47, velocity=31, time=0),
    Message('note_on', channel=4, note=40, velocity=6, time=8),
    Message('note_off', channel=4, note=47, velocity=64, time=176),
    Message('note_off', channel=4, note=52, velocity=64, time=8),
    Message('note_on', channel=4, note=47, velocity=51, time=0),
    Message('note_on', channel=4, note=52, velocity=60, time=8),
    Message('note_off', channel=4, note=55, velocity=64, time=4),
    Message('note_off', channel=4, note=59, velocity=64, time=8),
    Message('note_on', channel=4, note=55, velocity=60, time=0),
    Message('note_on', channel=4, note=59, velocity=60, time=8),
    Message('note_off', channel=4, note=64, velocity=64, time=8),
    Message('note_off', channel=4, note=40, velocity=64, time=0),
    Message('note_on', channel=4, note=64, velocity=60, time=4),
    Message('note_on', channel=4, note=40, velocity=56, time=464),
    Message('note_off', channel=4, note=47, velocity=64, time=100),
    Message('note_off', channel=4, note=52, velocity=64, time=0),
    Message('note_off', channel=4, note=55, velocity=64, time=0),
    Message('note_off', channel=4, note=59, velocity=64, time=0),
    Message('note_off', channel=4, note=64, velocity=64, time=0),
    Message('note_on', channel=4, note=64, velocity=35, time=128),
    Message('note_on', channel=4, note=59, velocity=40, time=8),
    Message('note_on', channel=4, note=55, velocity=40, time=8),
    Message('note_on', channel=4, note=52, velocity=35, time=8),
    Message('note_off', channel=4, note=40, velocity=64, time=8),
    Message('note_on', channel=4, note=47, velocity=25, time=0),
    Message('note_on', channel=4, note=40, velocity=5, time=8),
    Message('note_off', channel=4, note=47, velocity=64, time=176),
    Message('note_off', channel=4, note=52, velocity=64, time=8),
    Message('note_on', channel=4, note=47, velocity=51, time=0),
    Message('note_on', channel=4, note=52, velocity=60, time=8),
    Message('note_off', channel=4, note=55, velocity=64, time=4),
    Message('note_off', channel=4, note=59, velocity=64, time=8),
    Message('note_on', channel=4, note=55, velocity=60, time=0),
    Message('note_on', channel=4, note=59, velocity=60, time=8),
    Message('note_off', channel=4, note=64, velocity=64, time=4),
    Message('note_on', channel=4, note=64, velocity=60, time=8),
    Message('note_off', channel=4, note=40, velocity=64, time=4),
    Message('note_off', channel=4, note=47, velocity=64, time=220),
    Message('note_off', channel=4, note=52, velocity=64, time=0),
    Message('note_off', channel=4, note=55, velocity=64, time=0),
    Message('note_off', channel=4, note=59, velocity=64, time=0),
    Message('note_off', channel=4, note=64, velocity=64, time=0),
    Message('note_on', channel=4, note=64, velocity=45, time=8),
    Message('note_on', channel=4, note=59, velocity=52, time=8),
    Message('note_on', channel=4, note=55, velocity=52, time=8),
    Message('note_on', channel=4, note=52, velocity=45, time=8),
    Message('note_on', channel=4, note=47, velocity=32, time=8),
    Message('note_on', channel=4, note=40, velocity=6, time=8),
    Message('note_off', channel=4, note=47, velocity=64, time=160),
    Message('note_off', channel=4, note=52, velocity=64, time=8),
    Message('note_on', channel=4, note=47, velocity=46, time=0),
    Message('note_on', channel=4, note=52, velocity=55, time=8),
    Message('note_off', channel=4, note=55, velocity=64, time=4),
    Message('note_on', channel=4, note=55, velocity=55, time=8),
    Message('note_off', channel=4, note=59, velocity=64, time=4),
    Message('note_off', channel=4, note=64, velocity=64, time=0),
    Message('note_off', channel=4, note=40, velocity=64, time=0),
    Message('note_on', channel=4, note=59, velocity=55, time=4),
    Message('note_on', channel=4, note=64, velocity=55, time=12),
    Message('note_off', channel=4, note=64, velocity=64, time=208),
    Message('note_off', channel=4, note=59, velocity=64, time=8),
    Message('note_on', channel=4, note=64, velocity=37, time=0),
    Message('note_off', channel=4, note=55, velocity=64, time=8),
    Message('note_on', channel=4, note=59, velocity=43, time=0),
    Message('note_off', channel=4, note=47, velocity=64, time=8),
    Message('note_off', channel=4, note=52, velocity=64, time=0),
    Message('note_on', channel=4, note=55, velocity=43, time=0),
    Message('note_on', channel=4, note=52, velocity=37, time=8),
    Message('note_on', channel=4, note=47, velocity=27, time=8),
    Message('note_on', channel=4, note=40, velocity=5, time=8),
    Message('note_off', channel=4, note=40, velocity=64, time=184),
    Message('note_off', channel=4, note=47, velocity=64, time=0),
    Message('note_off', channel=4, note=52, velocity=64, time=0),
    Message('note_off', channel=4, note=64, velocity=64, time=0),
    Message('note_off', channel=4, note=59, velocity=64, time=0),
    Message('note_off', channel=4, note=55, velocity=64, time=0),
    Message('note_on', channel=4, note=40, velocity=52, time=28),
    Message('note_on', channel=4, note=47, velocity=55, time=464),
    Message('note_on', channel=4, note=52, velocity=65, time=8),
    Message('note_on', channel=4, note=55, velocity=65, time=12),
    Message('note_on', channel=4, note=59, velocity=65, time=8),
    Message('note_on', channel=4, note=64, velocity=65, time=12),
    Message('note_off', channel=4, note=64, velocity=64, time=200),
    Message('note_off', channel=4, note=59, velocity=64, time=8),
    Message('note_on', channel=4, note=64, velocity=40, time=0),
    Message('note_off', channel=4, note=55, velocity=64, time=8),
    Message('note_on', channel=4, note=59, velocity=46, time=0),
    Message('note_on', channel=4, note=55, velocity=46, time=8),
    Message('note_off', channel=4, note=52, velocity=64, time=4),
    Message('note_off', channel=4, note=47, velocity=64, time=0),
    Message('note_on', channel=4, note=52, velocity=40, time=4),
    Message('note_off', channel=4, note=40, velocity=64, time=8),
    Message('note_on', channel=4, note=47, velocity=29, time=0),
    Message('note_on', channel=4, note=40, velocity=5, time=8),
    Message('note_off', channel=4, note=47, velocity=64, time=176),
    Message('note_off', channel=4, note=52, velocity=64, time=8),
    Message('note_on', channel=4, note=47, velocity=47, time=0),
    Message('note_on', channel=4, note=52, velocity=56, time=8),
    Message('note_off', channel=4, note=55, velocity=64, time=4),
    Message('note_off', channel=4, note=59, velocity=64, time=8),
    Message('note_on', channel=4, note=55, velocity=56, time=0),
    Message('note_on', channel=4, note=59, velocity=56, time=8),
    Message('note_off', channel=4, note=64, velocity=64, time=8),
    Message('note_off', channel=4, note=40, velocity=64, time=0),
    Message('note_on', channel=4, note=64, velocity=56, time=4),
    Message('note_off', channel=4, note=47, velocity=64, time=404),
    Message('note_off', channel=4, note=52, velocity=64, time=0),
    Message('note_off', channel=4, note=55, velocity=64, time=0),
    Message('note_off', channel=4, note=59, velocity=64, time=0),
    Message('note_off', channel=4, note=64, velocity=64, time=0),
    Message('note_on', channel=4, note=43, velocity=48, time=60),
    Message('note_on', channel=4, note=47, velocity=51, time=464),
    Message('note_on', channel=4, note=50, velocity=61, time=8),
    Message('note_on', channel=4, note=55, velocity=61, time=12),
    Message('note_on', channel=4, note=59, velocity=61, time=8),
    Message('note_on', channel=4, note=67, velocity=61, time=12),
    Message('note_off', channel=4, note=47, velocity=64, time=432),
    Message('note_off', channel=4, note=50, velocity=64, time=8),
    Message('note_on', channel=4, note=47, velocity=51, time=0),
    Message('note_on', channel=4, note=50, velocity=61, time=8),
    Message('note_off', channel=4, note=55, velocity=64, time=4),
    Message('note_off', channel=4, note=59, velocity=64, time=8),
    Message('note_off', channel=4, note=67, velocity=64, time=0),
    Message('note_on', channel=4, note=55, velocity=61, time=0),
    Message('note_on', channel=4, note=59, velocity=61, time=8),
    Message('note_on', channel=4, note=67, velocity=61, time=12),
    Message('note_off', channel=4, note=43, velocity=64, time=84),
    Message('note_off', channel=4, note=47, velocity=64, time=332),
    Message('note_off', channel=4, note=50, velocity=64, time=0),
    Message('note_off', channel=4, note=55, velocity=64, time=0),
    Message('note_off', channel=4, note=59, velocity=64, time=0),
    Message('note_off', channel=4, note=67, velocity=64, time=0),
    Message('note_on', channel=4, note=43, velocity=48, time=40),
    Message('note_off', channel=4, note=43, velocity=64, time=444),
    Message('note_on', channel=4, note=49, velocity=51, time=12),
    Message('note_on', channel=4, note=54, velocity=61, time=8),
    Message('note_on', channel=4, note=57, velocity=61, time=12),
    Message('note_on', channel=4, note=61, velocity=61, time=8),
    Message('note_on', channel=4, note=66, velocity=61, time=12),
    Message('note_off', channel=4, note=66, velocity=64, time=432),
    Message('note_off', channel=4, note=61, velocity=64, time=0),
    Message('note_off', channel=4, note=57, velocity=64, time=0),
    Message('note_off', channel=4, note=54, velocity=64, time=0),
    Message('note_off', channel=4, note=49, velocity=64, time=0),
    Message('note_on', channel=4, note=47, velocity=51, time=8),
    Message('note_on', channel=4, note=52, velocity=61, time=8),
    Message('note_on', channel=4, note=55, velocity=61, time=12),
    Message('note_on', channel=4, note=59, velocity=61, time=8),
    Message('note_on', channel=4, note=64, velocity=61, time=12),
    Message('note_off', channel=4, note=64, velocity=64, time=428),
    Message('note_off', channel=4, note=59, velocity=64, time=0),
    Message('note_off', channel=4, note=55, velocity=64, time=0),
    Message('note_off', channel=4, note=52, velocity=64, time=0),
    Message('note_off', channel=4, note=47, velocity=64, time=0),
    Message('note_on', channel=4, note=50, velocity=65, time=36),
    Message('note_on', channel=4, note=57, velocity=65, time=464),
    Message('note_on', channel=4, note=62, velocity=65, time=16),
    Message('note_on', channel=4, note=66, velocity=65, time=16),
    Message('note_off', channel=4, note=66, velocity=64, time=208),
    Message('note_on', channel=4, note=66, velocity=40, time=8),
    Message('note_off', channel=4, note=62, velocity=64, time=4),
    Message('note_on', channel=4, note=62, velocity=46, time=8),
    Message('note_off', channel=4, note=57, velocity=64, time=8),
    Message('note_on', channel=4, note=57, velocity=46, time=4),
    Message('note_off', channel=4, note=50, velocity=64, time=4),
    Message('note_on', channel=4, note=50, velocity=40, time=8),
    Message('note_off', channel=4, note=57, velocity=64, time=180),
    Message('note_on', channel=4, note=57, velocity=56, time=8),
    Message('note_off', channel=4, note=62, velocity=64, time=8),
    Message('note_on', channel=4, note=62, velocity=56, time=8),
    Message('note_off', channel=4, note=66, velocity=64, time=8),
    Message('note_on', channel=4, note=66, velocity=56, time=8),
    Message('note_off', channel=4, note=50, velocity=64, time=4),
    Message('note_off', channel=4, note=57, velocity=64, time=408),
    Message('note_off', channel=4, note=62, velocity=64, time=0),
    Message('note_off', channel=4, note=66, velocity=64, time=0),
    Message('note_on', channel=4, note=50, velocity=61, time=60),
    Message('note_on', channel=4, note=57, velocity=61, time=464),
    Message('note_on', channel=4, note=62, velocity=61, time=16),
    Message('note_on', channel=4, note=66, velocity=61, time=16),
    Message('note_off', channel=4, note=57, velocity=64, time=440),
    Message('note_on', channel=4, note=57, velocity=61, time=8),
    Message('note_off', channel=4, note=62, velocity=64, time=8),
    Message('note_on', channel=4, note=62, velocity=61, time=8),
    Message('note_off', channel=4, note=66, velocity=64, time=8),
    Message('note_on', channel=4, note=66, velocity=61, time=8),
    Message('note_off', channel=4, note=50, velocity=64, time=348),
    Message('note_off', channel=4, note=57, velocity=64, time=76),
    Message('note_off', channel=4, note=62, velocity=64, time=0),
    Message('note_off', channel=4, note=66, velocity=64, time=0),
    Message('note_on', channel=4, note=40, velocity=48, time=40),
    Message('note_on', channel=4, note=47, velocity=51, time=464),
    Message('note_on', channel=4, note=52, velocity=61, time=8),
    Message('note_on', channel=4, note=55, velocity=61, time=12),
    Message('note_on', channel=4, note=59, velocity=61, time=8),
    Message('note_on', channel=4, note=64, velocity=61, time=12),
    Message('note_off', channel=4, note=47, velocity=64, time=432),
    Message('note_off', channel=4, note=52, velocity=64, time=8),
    Message('note_on', channel=4, note=47, velocity=51, time=0),
    Message('note_on', channel=4, note=52, velocity=61, time=8),
    Message('note_off', channel=4, note=55, velocity=64, time=4),
    Message('note_on', channel=4, note=55, velocity=61, time=8),
    Message('note_off', channel=4, note=59, velocity=64, time=4),
    Message('note_off', channel=4, note=64, velocity=64, time=0),
    Message('note_on', channel=4, note=59, velocity=61, time=4),
    Message('note_on', channel=4, note=64, velocity=61, time=12),
    Message('note_off', channel=4, note=40, velocity=64, time=340),
    Message('note_off', channel=4, note=47, velocity=64, time=76),
    Message('note_off', channel=4, note=52, velocity=64, time=0),
    Message('note_off', channel=4, note=55, velocity=64, time=0),
    Message('note_off', channel=4, note=59, velocity=64, time=0),
    Message('note_off', channel=4, note=64, velocity=64, time=0),
    Message('note_on', channel=4, note=50, velocity=64, time=40),
    Message('note_on', channel=4, note=57, velocity=64, time=464),
    Message('note_on', channel=4, note=62, velocity=64, time=16),
    Message('note_on', channel=4, note=66, velocity=64, time=16),
    Message('note_off', channel=4, note=66, velocity=64, time=208),
    Message('note_on', channel=4, note=66, velocity=39, time=8),
    Message('note_off', channel=4, note=62, velocity=64, time=4),
    Message('note_on', channel=4, note=62, velocity=45, time=8),
    Message('note_off', channel=4, note=57, velocity=64, time=8),
    Message('note_on', channel=4, note=57, velocity=45, time=4),
    Message('note_off', channel=4, note=50, velocity=64, time=4),
    Message('note_on', channel=4, note=50, velocity=39, time=8),
    Message('note_off', channel=4, note=66, velocity=64, time=172),
    Message('note_off', channel=4, note=62, velocity=64, time=0),
    Message('note_off', channel=4, note=57, velocity=64, time=0),
    Message('note_off', channel=4, note=50, velocity=64, time=0),
    Message('note_on', channel=4, note=47, velocity=51, time=16),
    Message('note_on', channel=4, note=52, velocity=61, time=8),
    Message('note_on', channel=4, note=55, velocity=61, time=12),
    Message('note_on', channel=4, note=59, velocity=61, time=8),
    Message('note_on', channel=4, note=64, velocity=61, time=12),
    Message('note_off', channel=4, note=64, velocity=64, time=428),
    Message('note_off', channel=4, note=59, velocity=64, time=0),
    Message('note_off', channel=4, note=55, velocity=64, time=0),
    Message('note_off', channel=4, note=52, velocity=64, time=0),
    Message('note_off', channel=4, note=47, velocity=64, time=0),
    Message('note_on', channel=4, note=50, velocity=61, time=36),
    Message('note_off', channel=4, note=50, velocity=64, time=444),
    Message('note_on', channel=4, note=47, velocity=51, time=12),
    Message('note_on', channel=4, note=52, velocity=61, time=8),
    Message('note_on', channel=4, note=55, velocity=61, time=12),
    Message('note_on', channel=4, note=59, velocity=61, time=8),
    Message('note_on', channel=4, note=64, velocity=61, time=12),
    Message('note_off', channel=4, note=64, velocity=64, time=432),
    Message('note_off', channel=4, note=59, velocity=64, time=0),
    Message('note_off', channel=4, note=55, velocity=64, time=0),
    Message('note_off', channel=4, note=52, velocity=64, time=0),
    Message('note_off', channel=4, note=47, velocity=64, time=0),
    Message('note_on', channel=4, note=57, velocity=61, time=8),
    Message('note_on', channel=4, note=62, velocity=61, time=16),
    Message('note_on', channel=4, note=66, velocity=61, time=16),
    Message('note_off', channel=4, note=66, velocity=64, time=436),
    Message('note_off', channel=4, note=62, velocity=64, time=0),
    Message('note_off', channel=4, note=57, velocity=64, time=0),
    Message('note_on', channel=4, note=40, velocity=48, time=36),
    Message('note_on', channel=4, note=47, velocity=51, time=464),
    Message('note_on', channel=4, note=52, velocity=61, time=8),
    Message('note_on', channel=4, note=55, velocity=61, time=12),
    Message('note_on', channel=4, note=59, velocity=61, time=8),
    Message('note_on', channel=4, note=64, velocity=61, time=12),
    Message('note_off', channel=4, note=47, velocity=64, time=432),
    Message('note_off', channel=4, note=52, velocity=64, time=8),
    Message('note_on', channel=4, note=47, velocity=51, time=0),
    Message('note_on', channel=4, note=52, velocity=61, time=8),
    Message('note_off', channel=4, note=55, velocity=64, time=4),
    Message('note_on', channel=4, note=55, velocity=61, time=8),
    Message('note_off', channel=4, note=59, velocity=64, time=4),
    Message('note_off', channel=4, note=64, velocity=64, time=0),
    Message('note_on', channel=4, note=59, velocity=61, time=4),
    Message('note_on', channel=4, note=64, velocity=61, time=12),
    Message('note_off', channel=4, note=40, velocity=64, time=340),
    Message('note_on', channel=4, note=40, velocity=48, time=120),
    Message('note_off', channel=4, note=47, velocity=64, time=408),
    Message('note_off', channel=4, note=52, velocity=64, time=0),
    Message('note_off', channel=4, note=55, velocity=64, time=0),
    Message('note_off', channel=4, note=59, velocity=64, time=0),
    Message('note_off', channel=4, note=64, velocity=64, time=0),
    Message('note_on', channel=4, note=47, velocity=51, time=52),
    Message('note_on', channel=4, note=52, velocity=61, time=8),
    Message('note_on', channel=4, note=55, velocity=61, time=12),
    Message('note_on', channel=4, note=59, velocity=61, time=8),
    Message('note_on', channel=4, note=64, velocity=61, time=12),
    Message('note_off', channel=4, note=47, velocity=64, time=432),
    Message('note_off', channel=4, note=52, velocity=64, time=8),
    Message('note_on', channel=4, note=47, velocity=51, time=0),
    Message('note_on', channel=4, note=52, velocity=61, time=8),
    Message('note_off', channel=4, note=55, velocity=64, time=4),
    Message('note_on', channel=4, note=55, velocity=61, time=8),
    Message('note_off', channel=4, note=59, velocity=64, time=4),
    Message('note_off', channel=4, note=64, velocity=64, time=0),
    Message('note_on', channel=4, note=59, velocity=61, time=4),
    Message('note_on', channel=4, note=64, velocity=61, time=12),
    Message('note_off', channel=4, note=40, velocity=64, time=372),
    Message('note_off', channel=4, note=47, velocity=64, time=56),
    Message('note_off', channel=4, note=52, velocity=64, time=0),
    Message('note_off', channel=4, note=55, velocity=64, time=0),
    Message('note_off', channel=4, note=59, velocity=64, time=0),
    Message('note_off', channel=4, note=64, velocity=64, time=0),
    Message('note_on', channel=4, note=40, velocity=55, time=28),
    Message('note_on', channel=4, note=47, velocity=58, time=464),
    Message('note_on', channel=4, note=52, velocity=69, time=8),
    Message('note_on', channel=4, note=55, velocity=69, time=12),
    Message('note_on', channel=4, note=59, velocity=69, time=8),
    Message('note_on', channel=4, note=64, velocity=69, time=12),
    Message('note_off', channel=4, note=64, velocity=64, time=200),
    Message('note_off', channel=4, note=59, velocity=64, time=8),
    Message('note_on', channel=4, note=64, velocity=43, time=0),
    Message('note_off', channel=4, note=55, velocity=64, time=8),
    Message('note_on', channel=4, note=59, velocity=49, time=0),
    Message('note_on', channel=4, note=55, velocity=49, time=8),
    Message('note_off', channel=4, note=52, velocity=64, time=4),
    Message('note_off', channel=4, note=47, velocity=64, time=0),
    Message('note_on', channel=4, note=52, velocity=43, time=4),
    Message('note_off', channel=4, note=40, velocity=64, time=8),
    Message('note_on', channel=4, note=47, velocity=31, time=0),
    Message('note_on', channel=4, note=40, velocity=6, time=8),
    Message('note_off', channel=4, note=47, velocity=64, time=176),
    Message('note_off', channel=4, note=52, velocity=64, time=8),
    Message('note_on', channel=4, note=47, velocity=51, time=0),
    Message('note_on', channel=4, note=52, velocity=60, time=8),
    Message('note_off', channel=4, note=55, velocity=64, time=4),
    Message('note_off', channel=4, note=59, velocity=64, time=8),
    Message('note_on', channel=4, note=55, velocity=60, time=0),
    Message('note_on', channel=4, note=59, velocity=60, time=8),
    Message('note_off', channel=4, note=64, velocity=64, time=8),
    Message('note_off', channel=4, note=40, velocity=64, time=0),
    Message('note_on', channel=4, note=64, velocity=60, time=4),
    Message('note_on', channel=4, note=40, velocity=56, time=464),
    Message('note_off', channel=4, note=47, velocity=64, time=100),
    Message('note_off', channel=4, note=52, velocity=64, time=0),
    Message('note_off', channel=4, note=55, velocity=64, time=0),
    Message('note_off', channel=4, note=59, velocity=64, time=0),
    Message('note_off', channel=4, note=64, velocity=64, time=0),
    Message('note_on', channel=4, note=64, velocity=35, time=128),
    Message('note_on', channel=4, note=59, velocity=40, time=8),
    Message('note_on', channel=4, note=55, velocity=40, time=8),
    Message('note_on', channel=4, note=52, velocity=35, time=8),
    Message('note_off', channel=4, note=40, velocity=64, time=8),
    Message('note_on', channel=4, note=47, velocity=25, time=0),
    Message('note_on', channel=4, note=40, velocity=5, time=8),
    Message('note_off', channel=4, note=47, velocity=64, time=176),
    Message('note_off', channel=4, note=52, velocity=64, time=8),
    Message('note_on', channel=4, note=47, velocity=51, time=0),
    Message('note_on', channel=4, note=52, velocity=60, time=8),
    Message('note_off', channel=4, note=55, velocity=64, time=4),
    Message('note_off', channel=4, note=59, velocity=64, time=8),
    Message('note_on', channel=4, note=55, velocity=60, time=0),
    Message('note_on', channel=4, note=59, velocity=60, time=8),
    Message('note_off', channel=4, note=64, velocity=64, time=4),
    Message('note_on', channel=4, note=64, velocity=60, time=8),
    Message('note_off', channel=4, note=40, velocity=64, time=4),
    Message('note_off', channel=4, note=47, velocity=64, time=220),
    Message('note_off', channel=4, note=52, velocity=64, time=0),
    Message('note_off', channel=4, note=55, velocity=64, time=0),
    Message('note_off', channel=4, note=59, velocity=64, time=0),
    Message('note_off', channel=4, note=64, velocity=64, time=0),
    Message('note_on', channel=4, note=64, velocity=45, time=8),
    Message('note_on', channel=4, note=59, velocity=52, time=8),
    Message('note_on', channel=4, note=55, velocity=52, time=8),
    Message('note_on', channel=4, note=52, velocity=45, time=8),
    Message('note_on', channel=4, note=47, velocity=32, time=8),
    Message('note_on', channel=4, note=40, velocity=6, time=8),
    Message('note_off', channel=4, note=47, velocity=64, time=160),
    Message('note_off', channel=4, note=52, velocity=64, time=8),
    Message('note_on', channel=4, note=47, velocity=46, time=0),
    Message('note_on', channel=4, note=52, velocity=55, time=8),
    Message('note_off', channel=4, note=55, velocity=64, time=4),
    Message('note_on', channel=4, note=55, velocity=55, time=8),
    Message('note_off', channel=4, note=59, velocity=64, time=4),
    Message('note_off', channel=4, note=64, velocity=64, time=0),
    Message('note_off', channel=4, note=40, velocity=64, time=0),
    Message('note_on', channel=4, note=59, velocity=55, time=4),
    Message('note_on', channel=4, note=64, velocity=55, time=12),
    Message('note_off', channel=4, note=64, velocity=64, time=208),
    Message('note_off', channel=4, note=59, velocity=64, time=8),
    Message('note_on', channel=4, note=64, velocity=37, time=0),
    Message('note_off', channel=4, note=55, velocity=64, time=8),
    Message('note_on', channel=4, note=59, velocity=43, time=0),
    Message('note_off', channel=4, note=47, velocity=64, time=8),
    Message('note_off', channel=4, note=52, velocity=64, time=0),
    Message('note_on', channel=4, note=55, velocity=43, time=0),
    Message('note_on', channel=4, note=52, velocity=37, time=8),
    Message('note_on', channel=4, note=47, velocity=27, time=8),
    Message('note_on', channel=4, note=40, velocity=5, time=8),
    Message('note_off', channel=4, note=40, velocity=64, time=184),
    Message('note_off', channel=4, note=47, velocity=64, time=0),
    Message('note_off', channel=4, note=52, velocity=64, time=0),
    Message('note_off', channel=4, note=64, velocity=64, time=0),
    Message('note_off', channel=4, note=59, velocity=64, time=0),
    Message('note_off', channel=4, note=55, velocity=64, time=0),
    Message('note_on', channel=4, note=40, velocity=48, time=28),
    Message('note_on', channel=4, note=47, velocity=51, time=464),
    Message('note_on', channel=4, note=52, velocity=61, time=8),
    Message('note_on', channel=4, note=55, velocity=61, time=12),
    Message('note_on', channel=4, note=59, velocity=61, time=8),
    Message('note_on', channel=4, note=64, velocity=61, time=12),
    Message('note_off', channel=4, note=47, velocity=64, time=432),
    Message('note_off', channel=4, note=52, velocity=64, time=8),
    Message('note_on', channel=4, note=47, velocity=51, time=0),
    Message('note_on', channel=4, note=52, velocity=61, time=8),
    Message('note_off', channel=4, note=55, velocity=64, time=4),
    Message('note_off', channel=4, note=59, velocity=64, time=8),
    Message('note_off', channel=4, note=64, velocity=64, time=0),
    Message('note_on', channel=4, note=55, velocity=61, time=0),
    Message('note_on', channel=4, note=59, velocity=61, time=8),
    Message('note_on', channel=4, note=64, velocity=61, time=12),
    Message('note_off', channel=4, note=40, velocity=64, time=84),
    Message('note_on', channel=4, note=40, velocity=48, time=372),
    Message('note_off', channel=4, note=47, velocity=64, time=4),
    Message('note_off', channel=4, note=52, velocity=64, time=0),
    Message('note_off', channel=4, note=55, velocity=64, time=0),
    Message('note_off', channel=4, note=59, velocity=64, time=0),
    Message('note_off', channel=4, note=64, velocity=64, time=0),
    Message('note_on', channel=4, note=47, velocity=51, time=460),
    Message('note_on', channel=4, note=52, velocity=61, time=8),
    Message('note_on', channel=4, note=55, velocity=61, time=12),
    Message('note_on', channel=4, note=59, velocity=61, time=8),
    Message('note_on', channel=4, note=64, velocity=61, time=12),
    Message('note_off', channel=4, note=47, velocity=64, time=432),
    Message('note_off', channel=4, note=52, velocity=64, time=8),
    Message('note_on', channel=4, note=47, velocity=51, time=0),
    Message('note_on', channel=4, note=52, velocity=61, time=8),
    Message('note_off', channel=4, note=55, velocity=64, time=4),
    Message('note_on', channel=4, note=55, velocity=61, time=8),
    Message('note_off', channel=4, note=59, velocity=64, time=4),
    Message('note_off', channel=4, note=64, velocity=64, time=0),
    Message('note_on', channel=4, note=59, velocity=61, time=4),
    Message('note_on', channel=4, note=64, velocity=61, time=12),
    Message('note_off', channel=4, note=40, velocity=64, time=196),
    Message('note_off', channel=4, note=47, velocity=64, time=232),
    Message('note_off', channel=4, note=52, velocity=64, time=0),
    Message('note_off', channel=4, note=55, velocity=64, time=0),
    Message('note_off', channel=4, note=59, velocity=64, time=0),
    Message('note_off', channel=4, note=64, velocity=64, time=0),
    Message('note_on', channel=4, note=50, velocity=61, time=28),
    Message('note_off', channel=4, note=50, velocity=64, time=444),
    Message('note_on', channel=4, note=47, velocity=51, time=12),
    Message('note_on', channel=4, note=52, velocity=61, time=8),
    Message('note_on', channel=4, note=55, velocity=61, time=12),
    Message('note_on', channel=4, note=59, velocity=61, time=8),
    Message('note_on', channel=4, note=64, velocity=61, time=12),
    Message('note_off', channel=4, note=64, velocity=64, time=432),
    Message('note_off', channel=4, note=59, velocity=64, time=0),
    Message('note_off', channel=4, note=55, velocity=64, time=0),
    Message('note_off', channel=4, note=52, velocity=64, time=0),
    Message('note_off', channel=4, note=47, velocity=64, time=0),
    Message('note_on', channel=4, note=57, velocity=61, time=8),
    Message('note_on', channel=4, note=62, velocity=61, time=16),
    Message('note_on', channel=4, note=66, velocity=61, time=16),
    Message('note_off', channel=4, note=66, velocity=64, time=436),
    Message('note_off', channel=4, note=62, velocity=64, time=0),
    Message('note_off', channel=4, note=57, velocity=64, time=0),
    Message('note_on', channel=4, note=40, velocity=52, time=36),
    Message('note_on', channel=4, note=47, velocity=55, time=464),
    Message('note_on', channel=4, note=52, velocity=65, time=8),
    Message('note_on', channel=4, note=55, velocity=65, time=12),
    Message('note_on', channel=4, note=59, velocity=65, time=8),
    Message('note_on', channel=4, note=64, velocity=65, time=12),
    Message('note_off', channel=4, note=64, velocity=64, time=200),
    Message('note_off', channel=4, note=59, velocity=64, time=8),
    Message('note_on', channel=4, note=64, velocity=40, time=0),
    Message('note_off', channel=4, note=55, velocity=64, time=8),
    Message('note_on', channel=4, note=59, velocity=46, time=0),
    Message('note_on', channel=4, note=55, velocity=46, time=8),
    Message('note_off', channel=4, note=52, velocity=64, time=4),
    Message('note_off', channel=4, note=47, velocity=64, time=0),
    Message('note_on', channel=4, note=52, velocity=40, time=4),
    Message('note_off', channel=4, note=40, velocity=64, time=8),
    Message('note_on', channel=4, note=47, velocity=29, time=0),
    Message('note_on', channel=4, note=40, velocity=5, time=8),
    Message('note_off', channel=4, note=47, velocity=64, time=176),
    Message('note_off', channel=4, note=52, velocity=64, time=8),
    Message('note_on', channel=4, note=47, velocity=47, time=0),
    Message('note_on', channel=4, note=52, velocity=56, time=8),
    Message('note_off', channel=4, note=55, velocity=64, time=4),
    Message('note_off', channel=4, note=59, velocity=64, time=8),
    Message('note_on', channel=4, note=55, velocity=56, time=0),
    Message('note_on', channel=4, note=59, velocity=56, time=8),
    Message('note_off', channel=4, note=64, velocity=64, time=8),
    Message('note_off', channel=4, note=40, velocity=64, time=0),
    Message('note_on', channel=4, note=64, velocity=56, time=4),
    Message('note_off', channel=4, note=47, velocity=64, time=404),
    Message('note_off', channel=4, note=52, velocity=64, time=0),
    Message('note_off', channel=4, note=55, velocity=64, time=0),
    Message('note_off', channel=4, note=59, velocity=64, time=0),
    Message('note_off', channel=4, note=64, velocity=64, time=0),
    Message('note_on', channel=4, note=40, velocity=48, time=60),
    Message('note_on', channel=4, note=47, velocity=51, time=464),
    Message('note_on', channel=4, note=52, velocity=61, time=8),
    Message('note_on', channel=4, note=55, velocity=61, time=12),
    Message('note_on', channel=4, note=59, velocity=61, time=8),
    Message('note_on', channel=4, note=64, velocity=61, time=12),
    Message('note_off', channel=4, note=47, velocity=64, time=432),
    Message('note_off', channel=4, note=52, velocity=64, time=8),
    Message('note_on', channel=4, note=47, velocity=51, time=0),
    Message('note_on', channel=4, note=52, velocity=61, time=8),
    Message('note_off', channel=4, note=55, velocity=64, time=4),
    Message('note_on', channel=4, note=55, velocity=61, time=8),
    Message('note_off', channel=4, note=59, velocity=64, time=4),
    Message('note_off', channel=4, note=64, velocity=64, time=0),
    Message('note_on', channel=4, note=59, velocity=61, time=4),
    Message('note_on', channel=4, note=64, velocity=61, time=12),
    Message('note_off', channel=4, note=40, velocity=64, time=340),
    Message('note_off', channel=4, note=47, velocity=64, time=76),
    Message('note_off', channel=4, note=52, velocity=64, time=0),
    Message('note_off', channel=4, note=55, velocity=64, time=0),
    Message('note_off', channel=4, note=59, velocity=64, time=0),
    Message('note_off', channel=4, note=64, velocity=64, time=0),
    Message('note_on', channel=4, note=43, velocity=48, time=40),
    Message('note_on', channel=4, note=47, velocity=51, time=464),
    Message('note_on', channel=4, note=50, velocity=61, time=8),
    Message('note_on', channel=4, note=55, velocity=61, time=12),
    Message('note_on', channel=4, note=59, velocity=61, time=8),
    Message('note_on', channel=4, note=67, velocity=61, time=12),
    Message('note_off', channel=4, note=47, velocity=64, time=432),
    Message('note_off', channel=4, note=50, velocity=64, time=8),
    Message('note_on', channel=4, note=47, velocity=51, time=0),
    Message('note_on', channel=4, note=50, velocity=61, time=8),
    Message('note_off', channel=4, note=55, velocity=64, time=4),
    Message('note_off', channel=4, note=59, velocity=64, time=8),
    Message('note_off', channel=4, note=67, velocity=64, time=0),
    Message('note_on', channel=4, note=55, velocity=61, time=0),
    Message('note_on', channel=4, note=59, velocity=61, time=8),
    Message('note_on', channel=4, note=67, velocity=61, time=12),
    Message('note_off', channel=4, note=43, velocity=64, time=84),
    Message('note_off', channel=4, note=47, velocity=64, time=332),
    Message('note_off', channel=4, note=50, velocity=64, time=0),
    Message('note_off', channel=4, note=55, velocity=64, time=0),
    Message('note_off', channel=4, note=59, velocity=64, time=0),
    Message('note_off', channel=4, note=67, velocity=64, time=0),
    Message('note_on', channel=4, note=40, velocity=48, time=40),
    Message('note_on', channel=4, note=47, velocity=51, time=464),
    Message('note_on', channel=4, note=52, velocity=61, time=8),
    Message('note_on', channel=4, note=55, velocity=61, time=12),
    Message('note_on', channel=4, note=59, velocity=61, time=8),
    Message('note_on', channel=4, note=64, velocity=61, time=12),
    Message('note_off', channel=4, note=47, velocity=64, time=432),
    Message('note_off', channel=4, note=52, velocity=64, time=8),
    Message('note_on', channel=4, note=47, velocity=51, time=0),
    Message('note_on', channel=4, note=52, velocity=61, time=8),
    Message('note_off', channel=4, note=55, velocity=64, time=4),
    Message('note_on', channel=4, note=55, velocity=61, time=8),
    Message('note_off', channel=4, note=59, velocity=64, time=4),
    Message('note_off', channel=4, note=64, velocity=64, time=0),
    Message('note_on', channel=4, note=59, velocity=61, time=4),
    Message('note_on', channel=4, note=64, velocity=61, time=12),
    Message('note_off', channel=4, note=40, velocity=64, time=340),
    Message('note_off', channel=4, note=47, velocity=64, time=76),
    Message('note_off', channel=4, note=52, velocity=64, time=0),
    Message('note_off', channel=4, note=55, velocity=64, time=0),
    Message('note_off', channel=4, note=59, velocity=64, time=0),
    Message('note_off', channel=4, note=64, velocity=64, time=0),
    Message('note_on', channel=4, note=43, velocity=48, time=40),
    Message('note_off', channel=4, note=43, velocity=64, time=444),
    Message('note_on', channel=4, note=52, velocity=61, time=12),
    Message('note_on', channel=4, note=57, velocity=61, time=12),
    Message('note_on', channel=4, note=61, velocity=61, time=12),
    Message('note_on', channel=4, note=64, velocity=61, time=12),
    Message('note_off', channel=4, note=64, velocity=64, time=436),
    Message('note_off', channel=4, note=61, velocity=64, time=0),
    Message('note_off', channel=4, note=57, velocity=64, time=0),
    Message('note_off', channel=4, note=52, velocity=64, time=0),
    Message('note_on', channel=4, note=52, velocity=61, time=8),
    Message('note_on', channel=4, note=57, velocity=61, time=12),
    Message('note_on', channel=4, note=61, velocity=61, time=12),
    Message('note_on', channel=4, note=64, velocity=61, time=12),
    Message('note_off', channel=4, note=64, velocity=64, time=432),
    Message('note_off', channel=4, note=61, velocity=64, time=0),
    Message('note_off', channel=4, note=57, velocity=64, time=0),
    Message('note_off', channel=4, note=52, velocity=64, time=0),
    Message('note_on', channel=4, note=40, velocity=48, time=36),
    Message('note_on', channel=4, note=47, velocity=51, time=464),
    Message('note_on', channel=4, note=52, velocity=61, time=8),
    Message('note_on', channel=4, note=55, velocity=61, time=12),
    Message('note_on', channel=4, note=59, velocity=61, time=8),
    Message('note_on', channel=4, note=64, velocity=61, time=12),
    Message('note_off', channel=4, note=47, velocity=64, time=432),
    Message('note_off', channel=4, note=52, velocity=64, time=8),
    Message('note_on', channel=4, note=47, velocity=51, time=0),
    Message('note_on', channel=4, note=52, velocity=61, time=8),
    Message('note_off', channel=4, note=55, velocity=64, time=4),
    Message('note_on', channel=4, note=55, velocity=61, time=8),
    Message('note_off', channel=4, note=59, velocity=64, time=4),
    Message('note_off', channel=4, note=64, velocity=64, time=0),
    Message('note_on', channel=4, note=59, velocity=61, time=4),
    Message('note_on', channel=4, note=64, velocity=61, time=12),
    Message('note_off', channel=4, note=40, velocity=64, time=340),
    Message('note_on', channel=4, note=40, velocity=48, time=120),
    Message('note_off', channel=4, note=47, velocity=64, time=408),
    Message('note_off', channel=4, note=52, velocity=64, time=0),
    Message('note_off', channel=4, note=55, velocity=64, time=0),
    Message('note_off', channel=4, note=59, velocity=64, time=0),
    Message('note_off', channel=4, note=64, velocity=64, time=0),
    Message('note_on', channel=4, note=47, velocity=51, time=52),
    Message('note_on', channel=4, note=52, velocity=61, time=8),
    Message('note_on', channel=4, note=55, velocity=61, time=12),
    Message('note_on', channel=4, note=59, velocity=61, time=8),
    Message('note_on', channel=4, note=64, velocity=61, time=12),
    Message('note_off', channel=4, note=47, velocity=64, time=432),
    Message('note_off', channel=4, note=52, velocity=64, time=8),
    Message('note_on', channel=4, note=47, velocity=51, time=0),
    Message('note_on', channel=4, note=52, velocity=61, time=8),
    Message('note_off', channel=4, note=55, velocity=64, time=4),
    Message('note_on', channel=4, note=55, velocity=61, time=8),
    Message('note_off', channel=4, note=59, velocity=64, time=4),
    Message('note_off', channel=4, note=64, velocity=64, time=0),
    Message('note_on', channel=4, note=59, velocity=61, time=4),
    Message('note_on', channel=4, note=64, velocity=61, time=12),
    Message('note_off', channel=4, note=40, velocity=64, time=372),
    Message('note_off', channel=4, note=47, velocity=64, time=56),
    Message('note_off', channel=4, note=52, velocity=64, time=0),
    Message('note_off', channel=4, note=55, velocity=64, time=0),
    Message('note_off', channel=4, note=59, velocity=64, time=0),
    Message('note_off', channel=4, note=64, velocity=64, time=0),
    Message('note_on', channel=4, note=40, velocity=48, time=28),
    Message('note_on', channel=4, note=47, velocity=51, time=464),
    Message('note_on', channel=4, note=52, velocity=61, time=8),
    Message('note_on', channel=4, note=55, velocity=61, time=12),
    Message('note_on', channel=4, note=59, velocity=61, time=8),
    Message('note_on', channel=4, note=64, velocity=61, time=12),
    Message('note_off', channel=4, note=47, velocity=64, time=432),
    Message('note_off', channel=4, note=52, velocity=64, time=8),
    Message('note_on', channel=4, note=47, velocity=51, time=0),
    Message('note_on', channel=4, note=52, velocity=61, time=8),
    Message('note_off', channel=4, note=55, velocity=64, time=4),
    Message('note_on', channel=4, note=55, velocity=61, time=8),
    Message('note_off', channel=4, note=59, velocity=64, time=4),
    Message('note_off', channel=4, note=64, velocity=64, time=0),
    Message('note_on', channel=4, note=59, velocity=61, time=4),
    Message('note_on', channel=4, note=64, velocity=61, time=12),
    Message('note_off', channel=4, note=40, velocity=64, time=340),
    Message('note_on', channel=4, note=40, velocity=48, time=120),
    Message('note_off', channel=4, note=47, velocity=64, time=408),
    Message('note_off', channel=4, note=52, velocity=64, time=0),
    Message('note_off', channel=4, note=55, velocity=64, time=0),
    Message('note_off', channel=4, note=59, velocity=64, time=0),
    Message('note_off', channel=4, note=64, velocity=64, time=0),
    Message('note_on', channel=4, note=47, velocity=51, time=52),
    Message('note_on', channel=4, note=52, velocity=61, time=8),
    Message('note_on', channel=4, note=55, velocity=61, time=12),
    Message('note_on', channel=4, note=59, velocity=61, time=8),
    Message('note_on', channel=4, note=64, velocity=61, time=12),
    Message('note_off', channel=4, note=47, velocity=64, time=432),
    Message('note_off', channel=4, note=52, velocity=64, time=8),
    Message('note_on', channel=4, note=47, velocity=51, time=0),
    Message('note_on', channel=4, note=52, velocity=61, time=8),
    Message('note_off', channel=4, note=55, velocity=64, time=4),
    Message('note_on', channel=4, note=55, velocity=61, time=8),
    Message('note_off', channel=4, note=59, velocity=64, time=4),
    Message('note_off', channel=4, note=64, velocity=64, time=0),
    Message('note_on', channel=4, note=59, velocity=61, time=4),
    Message('note_on', channel=4, note=64, velocity=61, time=12),
    Message('note_off', channel=4, note=40, velocity=64, time=372),
    Message('note_off', channel=4, note=47, velocity=64, time=56),
    Message('note_off', channel=4, note=52, velocity=64, time=0),
    Message('note_off', channel=4, note=55, velocity=64, time=0),
    Message('note_off', channel=4, note=59, velocity=64, time=0),
    Message('note_off', channel=4, note=64, velocity=64, time=0),
    Message('note_on', channel=4, note=40, velocity=48, time=28),
    Message('note_on', channel=4, note=47, velocity=51, time=464),
    Message('note_on', channel=4, note=52, velocity=61, time=8),
    Message('note_on', channel=4, note=55, velocity=61, time=12),
    Message('note_on', channel=4, note=59, velocity=61, time=8),
    Message('note_on', channel=4, note=64, velocity=61, time=12),
    Message('note_off', channel=4, note=47, velocity=64, time=432),
    Message('note_off', channel=4, note=52, velocity=64, time=8),
    Message('note_on', channel=4, note=47, velocity=51, time=0),
    Message('note_on', channel=4, note=52, velocity=61, time=8),
    Message('note_off', channel=4, note=55, velocity=64, time=4),
    Message('note_off', channel=4, note=59, velocity=64, time=8),
    Message('note_off', channel=4, note=64, velocity=64, time=0),
    Message('note_on', channel=4, note=55, velocity=61, time=0),
    Message('note_on', channel=4, note=59, velocity=61, time=8),
    Message('note_on', channel=4, note=64, velocity=61, time=12),
    Message('note_off', channel=4, note=40, velocity=64, time=84),
    Message('note_off', channel=4, note=47, velocity=64, time=332),
    Message('note_off', channel=4, note=52, velocity=64, time=0),
    Message('note_off', channel=4, note=55, velocity=64, time=0),
    Message('note_off', channel=4, note=59, velocity=64, time=0),
    Message('note_off', channel=4, note=64, velocity=64, time=0),
    Message('note_on', channel=4, note=43, velocity=48, time=40),
    Message('note_on', channel=4, note=47, velocity=51, time=464),
    Message('note_on', channel=4, note=50, velocity=61, time=8),
    Message('note_on', channel=4, note=55, velocity=61, time=12),
    Message('note_on', channel=4, note=59, velocity=61, time=8),
    Message('note_on', channel=4, note=67, velocity=61, time=12),
    Message('note_off', channel=4, note=47, velocity=64, time=432),
    Message('note_off', channel=4, note=50, velocity=64, time=8),
    Message('note_on', channel=4, note=47, velocity=51, time=0),
    Message('note_on', channel=4, note=50, velocity=61, time=8),
    Message('note_off', channel=4, note=55, velocity=64, time=4),
    Message('note_on', channel=4, note=55, velocity=61, time=8),
    Message('note_off', channel=4, note=59, velocity=64, time=4),
    Message('note_off', channel=4, note=67, velocity=64, time=0),
    Message('note_on', channel=4, note=59, velocity=61, time=4),
    Message('note_on', channel=4, note=67, velocity=61, time=12),
    Message('note_off', channel=4, note=43, velocity=64, time=340),
    Message('note_off', channel=4, note=47, velocity=64, time=76),
    Message('note_off', channel=4, note=50, velocity=64, time=0),
    Message('note_off', channel=4, note=55, velocity=64, time=0),
    Message('note_off', channel=4, note=59, velocity=64, time=0),
    Message('note_off', channel=4, note=67, velocity=64, time=0),
    Message('note_on', channel=4, note=43, velocity=48, time=40),
    Message('note_off', channel=4, note=43, velocity=64, time=444),
    Message('note_on', channel=4, note=49, velocity=51, time=12),
    Message('note_on', channel=4, note=54, velocity=61, time=8),
    Message('note_on', channel=4, note=57, velocity=61, time=12),
    Message('note_on', channel=4, note=61, velocity=61, time=8),
    Message('note_on', channel=4, note=66, velocity=61, time=12),
    Message('note_off', channel=4, note=66, velocity=64, time=432),
    Message('note_off', channel=4, note=61, velocity=64, time=0),
    Message('note_off', channel=4, note=57, velocity=64, time=0),
    Message('note_off', channel=4, note=54, velocity=64, time=0),
    Message('note_off', channel=4, note=49, velocity=64, time=0),
    Message('note_on', channel=4, note=47, velocity=51, time=8),
    Message('note_on', channel=4, note=52, velocity=61, time=8),
    Message('note_on', channel=4, note=55, velocity=61, time=12),
    Message('note_on', channel=4, note=59, velocity=61, time=8),
    Message('note_on', channel=4, note=64, velocity=61, time=12),
    Message('note_off', channel=4, note=64, velocity=64, time=428),
    Message('note_off', channel=4, note=59, velocity=64, time=0),
    Message('note_off', channel=4, note=55, velocity=64, time=0),
    Message('note_off', channel=4, note=52, velocity=64, time=0),
    Message('note_off', channel=4, note=47, velocity=64, time=0),
    Message('note_on', channel=4, note=50, velocity=61, time=36),
    Message('note_on', channel=4, note=57, velocity=61, time=464),
    Message('note_on', channel=4, note=62, velocity=61, time=16),
    Message('note_on', channel=4, note=66, velocity=61, time=16),
    Message('note_off', channel=4, note=57, velocity=64, time=440),
    Message('note_on', channel=4, note=57, velocity=61, time=8),
    Message('note_off', channel=4, note=62, velocity=64, time=8),
    Message('note_on', channel=4, note=62, velocity=61, time=8),
    Message('note_off', channel=4, note=66, velocity=64, time=8),
    Message('note_on', channel=4, note=66, velocity=61, time=8),
    Message('note_off', channel=4, note=50, velocity=64, time=348),
    Message('note_off', channel=4, note=57, velocity=64, time=76),
    Message('note_off', channel=4, note=62, velocity=64, time=0),
    Message('note_off', channel=4, note=66, velocity=64, time=0),
    Message('note_on', channel=4, note=50, velocity=65, time=40),
    Message('note_on', channel=4, note=57, velocity=65, time=464),
    Message('note_on', channel=4, note=62, velocity=65, time=16),
    Message('note_on', channel=4, note=66, velocity=65, time=16),
    Message('note_off', channel=4, note=66, velocity=64, time=208),
    Message('note_on', channel=4, note=66, velocity=40, time=8),
    Message('note_off', channel=4, note=62, velocity=64, time=4),
    Message('note_on', channel=4, note=62, velocity=46, time=8),
    Message('note_off', channel=4, note=57, velocity=64, time=8),
    Message('note_on', channel=4, note=57, velocity=46, time=4),
    Message('note_off', channel=4, note=50, velocity=64, time=4),
    Message('note_on', channel=4, note=50, velocity=40, time=8),
    Message('note_off', channel=4, note=57, velocity=64, time=180),
    Message('note_on', channel=4, note=57, velocity=56, time=8),
    Message('note_off', channel=4, note=62, velocity=64, time=8),
    Message('note_on', channel=4, note=62, velocity=56, time=8),
    Message('note_off', channel=4, note=66, velocity=64, time=8),
    Message('note_on', channel=4, note=66, velocity=56, time=8),
    Message('note_off', channel=4, note=50, velocity=64, time=4),
    Message('note_off', channel=4, note=57, velocity=64, time=408),
    Message('note_off', channel=4, note=62, velocity=64, time=0),
    Message('note_off', channel=4, note=66, velocity=64, time=0),
    Message('note_on', channel=4, note=40, velocity=52, time=60),
    Message('note_on', channel=4, note=47, velocity=55, time=464),
    Message('note_on', channel=4, note=52, velocity=65, time=8),
    Message('note_on', channel=4, note=55, velocity=65, time=12),
    Message('note_on', channel=4, note=59, velocity=65, time=8),
    Message('note_on', channel=4, note=64, velocity=65, time=12),
    Message('note_off', channel=4, note=64, velocity=64, time=200),
    Message('note_off', channel=4, note=59, velocity=64, time=8),
    Message('note_on', channel=4, note=64, velocity=40, time=0),
    Message('note_off', channel=4, note=55, velocity=64, time=8),
    Message('note_on', channel=4, note=59, velocity=46, time=0),
    Message('note_on', channel=4, note=55, velocity=46, time=8),
    Message('note_off', channel=4, note=52, velocity=64, time=4),
    Message('note_off', channel=4, note=47, velocity=64, time=0),
    Message('note_on', channel=4, note=52, velocity=40, time=4),
    Message('note_off', channel=4, note=40, velocity=64, time=8),
    Message('note_on', channel=4, note=47, velocity=29, time=0),
    Message('note_on', channel=4, note=40, velocity=5, time=8),
    Message('note_off', channel=4, note=47, velocity=64, time=176),
    Message('note_off', channel=4, note=52, velocity=64, time=8),
    Message('note_on', channel=4, note=47, velocity=47, time=0),
    Message('note_on', channel=4, note=52, velocity=56, time=8),
    Message('note_off', channel=4, note=55, velocity=64, time=4),
    Message('note_off', channel=4, note=59, velocity=64, time=8),
    Message('note_on', channel=4, note=55, velocity=56, time=0),
    Message('note_on', channel=4, note=59, velocity=56, time=8),
    Message('note_off', channel=4, note=64, velocity=64, time=8),
    Message('note_off', channel=4, note=40, velocity=64, time=0),
    Message('note_on', channel=4, note=64, velocity=56, time=4),
    Message('note_off', channel=4, note=47, velocity=64, time=404),
    Message('note_off', channel=4, note=52, velocity=64, time=0),
    Message('note_off', channel=4, note=55, velocity=64, time=0),
    Message('note_off', channel=4, note=59, velocity=64, time=0),
    Message('note_off', channel=4, note=64, velocity=64, time=0),
    Message('note_on', channel=4, note=50, velocity=61, time=60),
    Message('note_on', channel=4, note=57, velocity=61, time=464),
    Message('note_on', channel=4, note=62, velocity=61, time=16),
    Message('note_on', channel=4, note=66, velocity=61, time=16),
    Message('note_off', channel=4, note=50, velocity=64, time=396),
    Message('note_off', channel=4, note=57, velocity=64, time=12),
    Message('note_off', channel=4, note=62, velocity=64, time=0),
    Message('note_off', channel=4, note=66, velocity=64, time=0),
    Message('note_on', channel=4, note=47, velocity=51, time=32),
    Message('note_on', channel=4, note=52, velocity=61, time=8),
    Message('note_on', channel=4, note=55, velocity=61, time=12),
    Message('note_on', channel=4, note=59, velocity=61, time=8),
    Message('note_on', channel=4, note=64, velocity=61, time=12),
    Message('note_off', channel=4, note=64, velocity=64, time=428),
    Message('note_off', channel=4, note=59, velocity=64, time=0),
    Message('note_off', channel=4, note=55, velocity=64, time=0),
    Message('note_off', channel=4, note=52, velocity=64, time=0),
    Message('note_off', channel=4, note=47, velocity=64, time=0),
    Message('note_on', channel=4, note=50, velocity=61, time=36),
    Message('note_off', channel=4, note=50, velocity=64, time=444),
    Message('note_on', channel=4, note=47, velocity=51, time=12),
    Message('note_on', channel=4, note=52, velocity=61, time=8),
    Message('note_on', channel=4, note=55, velocity=61, time=12),
    Message('note_on', channel=4, note=59, velocity=61, time=8),
    Message('note_on', channel=4, note=64, velocity=61, time=12),
    Message('note_off', channel=4, note=64, velocity=64, time=432),
    Message('note_off', channel=4, note=59, velocity=64, time=0),
    Message('note_off', channel=4, note=55, velocity=64, time=0),
    Message('note_off', channel=4, note=52, velocity=64, time=0),
    Message('note_off', channel=4, note=47, velocity=64, time=0),
    Message('note_on', channel=4, note=57, velocity=61, time=8),
    Message('note_on', channel=4, note=62, velocity=61, time=16),
    Message('note_on', channel=4, note=66, velocity=61, time=16),
    Message('note_off', channel=4, note=66, velocity=64, time=436),
    Message('note_off', channel=4, note=62, velocity=64, time=0),
    Message('note_off', channel=4, note=57, velocity=64, time=0),
    Message('note_on', channel=4, note=40, velocity=48, time=36),
    Message('note_on', channel=4, note=47, velocity=51, time=464),
    Message('note_on', channel=4, note=52, velocity=61, time=8),
    Message('note_on', channel=4, note=55, velocity=61, time=12),
    Message('note_on', channel=4, note=59, velocity=61, time=8),
    Message('note_on', channel=4, note=64, velocity=61, time=12),
    Message('note_off', channel=4, note=47, velocity=64, time=432),
    Message('note_off', channel=4, note=52, velocity=64, time=8),
    Message('note_on', channel=4, note=47, velocity=51, time=0),
    Message('note_on', channel=4, note=52, velocity=61, time=8),
    Message('note_off', channel=4, note=55, velocity=64, time=4),
    Message('note_on', channel=4, note=55, velocity=61, time=8),
    Message('note_off', channel=4, note=59, velocity=64, time=4),
    Message('note_off', channel=4, note=64, velocity=64, time=0),
    Message('note_on', channel=4, note=59, velocity=61, time=4),
    Message('note_on', channel=4, note=64, velocity=61, time=12),
    Message('note_off', channel=4, note=40, velocity=64, time=340),
    Message('note_on', channel=4, note=40, velocity=48, time=120),
    Message('note_off', channel=4, note=47, velocity=64, time=408),
    Message('note_off', channel=4, note=52, velocity=64, time=0),
    Message('note_off', channel=4, note=55, velocity=64, time=0),
    Message('note_off', channel=4, note=59, velocity=64, time=0),
    Message('note_off', channel=4, note=64, velocity=64, time=0),
    Message('note_on', channel=4, note=47, velocity=51, time=52),
    Message('note_on', channel=4, note=52, velocity=61, time=8),
    Message('note_on', channel=4, note=55, velocity=61, time=12),
    Message('note_on', channel=4, note=59, velocity=61, time=8),
    Message('note_on', channel=4, note=64, velocity=61, time=12),
    Message('note_off', channel=4, note=47, velocity=64, time=432),
    Message('note_off', channel=4, note=52, velocity=64, time=8),
    Message('note_on', channel=4, note=47, velocity=51, time=0),
    Message('note_on', channel=4, note=52, velocity=61, time=8),
    Message('note_off', channel=4, note=55, velocity=64, time=4),
    Message('note_on', channel=4, note=55, velocity=61, time=8),
    Message('note_off', channel=4, note=59, velocity=64, time=4),
    Message('note_off', channel=4, note=64, velocity=64, time=0),
    Message('note_on', channel=4, note=59, velocity=61, time=4),
    Message('note_on', channel=4, note=64, velocity=61, time=12),
    Message('note_off', channel=4, note=40, velocity=64, time=372),
    Message('note_off', channel=4, note=47, velocity=64, time=56),
    Message('note_off', channel=4, note=52, velocity=64, time=0),
    Message('note_off', channel=4, note=55, velocity=64, time=0),
    Message('note_off', channel=4, note=59, velocity=64, time=0),
    Message('note_off', channel=4, note=64, velocity=64, time=0),
    Message('note_on', channel=4, note=40, velocity=48, time=28),
    Message('note_on', channel=4, note=47, velocity=51, time=464),
    Message('note_on', channel=4, note=52, velocity=61, time=8),
    Message('note_on', channel=4, note=55, velocity=61, time=12),
    Message('note_on', channel=4, note=59, velocity=61, time=8),
    Message('note_on', channel=4, note=64, velocity=61, time=12),
    Message('note_off', channel=4, note=47, velocity=64, time=432),
    Message('note_off', channel=4, note=52, velocity=64, time=8),
    Message('note_on', channel=4, note=47, velocity=51, time=0),
    Message('note_on', channel=4, note=52, velocity=61, time=8),
    Message('note_off', channel=4, note=55, velocity=64, time=4),
    Message('note_off', channel=4, note=59, velocity=64, time=8),
    Message('note_off', channel=4, note=64, velocity=64, time=0),
    Message('note_on', channel=4, note=55, velocity=61, time=0),
    Message('note_on', channel=4, note=59, velocity=61, time=8),
    Message('note_on', channel=4, note=64, velocity=61, time=12),
    Message('note_off', channel=4, note=40, velocity=64, time=84),
    Message('note_on', channel=4, note=40, velocity=48, time=372),
    Message('note_off', channel=4, note=47, velocity=64, time=4),
    Message('note_off', channel=4, note=52, velocity=64, time=0),
    Message('note_off', channel=4, note=55, velocity=64, time=0),
    Message('note_off', channel=4, note=59, velocity=64, time=0),
    Message('note_off', channel=4, note=64, velocity=64, time=0),
    Message('note_on', channel=4, note=47, velocity=51, time=460),
    Message('note_on', channel=4, note=52, velocity=61, time=8),
    Message('note_on', channel=4, note=55, velocity=61, time=12),
    Message('note_on', channel=4, note=59, velocity=61, time=8),
    Message('note_on', channel=4, note=64, velocity=61, time=12),
    Message('note_off', channel=4, note=47, velocity=64, time=432),
    Message('note_off', channel=4, note=52, velocity=64, time=8),
    Message('note_on', channel=4, note=47, velocity=51, time=0),
    Message('note_on', channel=4, note=52, velocity=61, time=8),
    Message('note_off', channel=4, note=55, velocity=64, time=4),
    Message('note_on', channel=4, note=55, velocity=61, time=8),
    Message('note_off', channel=4, note=59, velocity=64, time=4),
    Message('note_off', channel=4, note=64, velocity=64, time=0),
    Message('note_on', channel=4, note=59, velocity=61, time=4),
    Message('note_on', channel=4, note=64, velocity=61, time=12),
    Message('note_off', channel=4, note=40, velocity=64, time=196),
    Message('note_off', channel=4, note=47, velocity=64, time=232),
    Message('note_off', channel=4, note=52, velocity=64, time=0),
    Message('note_off', channel=4, note=55, velocity=64, time=0),
    Message('note_off', channel=4, note=59, velocity=64, time=0),
    Message('note_off', channel=4, note=64, velocity=64, time=0),
    Message('note_on', channel=4, note=40, velocity=46, time=28),
    Message('note_on', channel=4, note=47, velocity=49, time=464),
    Message('note_on', channel=4, note=52, velocity=58, time=8),
    Message('note_on', channel=4, note=55, velocity=58, time=12),
    Message('note_on', channel=4, note=59, velocity=58, time=8),
    Message('note_on', channel=4, note=64, velocity=58, time=12),
    Message('note_off', channel=4, note=64, velocity=64, time=200),
    Message('note_off', channel=4, note=59, velocity=64, time=8),
    Message('note_on', channel=4, note=64, velocity=35, time=0),
    Message('note_off', channel=4, note=55, velocity=64, time=8),
    Message('note_on', channel=4, note=59, velocity=40, time=0),
    Message('note_on', channel=4, note=55, velocity=40, time=8),
    Message('note_off', channel=4, note=52, velocity=64, time=4),
    Message('note_off', channel=4, note=47, velocity=64, time=0),
    Message('note_on', channel=4, note=52, velocity=35, time=4),
    Message('note_off', channel=4, note=40, velocity=64, time=8),
    Message('note_on', channel=4, note=47, velocity=25, time=0),
    Message('note_on', channel=4, note=40, velocity=5, time=8),
    Message('note_off', channel=4, note=47, velocity=64, time=176),
    Message('note_off', channel=4, note=52, velocity=64, time=8),
    Message('note_on', channel=4, note=47, velocity=41, time=0),
    Message('note_on', channel=4, note=52, velocity=49, time=8),
    Message('note_off', channel=4, note=55, velocity=64, time=4),
    Message('note_off', channel=4, note=59, velocity=64, time=8),
    Message('note_on', channel=4, note=55, velocity=49, time=0),
    Message('note_on', channel=4, note=59, velocity=49, time=8),
    Message('note_off', channel=4, note=64, velocity=64, time=8),
    Message('note_off', channel=4, note=40, velocity=64, time=0),
    Message('note_on', channel=4, note=64, velocity=49, time=4),
    Message('note_on', channel=4, note=40, velocity=47, time=464),
    Message('note_off', channel=4, note=47, velocity=64, time=100),
    Message('note_off', channel=4, note=52, velocity=64, time=0),
    Message('note_off', channel=4, note=55, velocity=64, time=0),
    Message('note_off', channel=4, note=59, velocity=64, time=0),
    Message('note_off', channel=4, note=64, velocity=64, time=0),
    Message('note_on', channel=4, note=64, velocity=27, time=128),
    Message('note_on', channel=4, note=59, velocity=31, time=8),
    Message('note_on', channel=4, note=55, velocity=31, time=8),
    Message('note_on', channel=4, note=52, velocity=27, time=8),
    Message('note_off', channel=4, note=40, velocity=64, time=8),
    Message('note_on', channel=4, note=47, velocity=19, time=0),
    Message('note_on', channel=4, note=40, velocity=3, time=8),
    Message('note_off', channel=4, note=47, velocity=64, time=176),
    Message('note_off', channel=4, note=52, velocity=64, time=8),
    Message('note_on', channel=4, note=47, velocity=41, time=0),
    Message('note_on', channel=4, note=52, velocity=49, time=8),
    Message('note_off', channel=4, note=55, velocity=64, time=4),
    Message('note_off', channel=4, note=59, velocity=64, time=8),
    Message('note_on', channel=4, note=55, velocity=49, time=0),
    Message('note_on', channel=4, note=59, velocity=49, time=8),
    Message('note_off', channel=4, note=64, velocity=64, time=4),
    Message('note_on', channel=4, note=64, velocity=49, time=8),
    Message('note_off', channel=4, note=40, velocity=64, time=4),
    Message('note_off', channel=4, note=47, velocity=64, time=220),
    Message('note_off', channel=4, note=52, velocity=64, time=0),
    Message('note_off', channel=4, note=55, velocity=64, time=0),
    Message('note_off', channel=4, note=59, velocity=64, time=0),
    Message('note_off', channel=4, note=64, velocity=64, time=0),
    Message('note_on', channel=4, note=64, velocity=37, time=8),
    Message('note_on', channel=4, note=59, velocity=43, time=8),
    Message('note_on', channel=4, note=55, velocity=43, time=8),
    Message('note_on', channel=4, note=52, velocity=37, time=8),
    Message('note_on', channel=4, note=47, velocity=27, time=8),
    Message('note_on', channel=4, note=40, velocity=5, time=8),
    Message('note_off', channel=4, note=47, velocity=64, time=160),
    Message('note_off', channel=4, note=52, velocity=64, time=8),
    Message('note_on', channel=4, note=47, velocity=37, time=0),
    Message('note_on', channel=4, note=52, velocity=44, time=8),
    Message('note_off', channel=4, note=55, velocity=64, time=4),
    Message('note_on', channel=4, note=55, velocity=44, time=8),
    Message('note_off', channel=4, note=59, velocity=64, time=4),
    Message('note_off', channel=4, note=64, velocity=64, time=0),
    Message('note_off', channel=4, note=40, velocity=64, time=0),
    Message('note_on', channel=4, note=59, velocity=44, time=4),
    Message('note_on', channel=4, note=64, velocity=44, time=12),
    Message('note_off', channel=4, note=64, velocity=64, time=208),
    Message('note_off', channel=4, note=59, velocity=64, time=8),
    Message('note_on', channel=4, note=64, velocity=30, time=0),
    Message('note_off', channel=4, note=55, velocity=64, time=8),
    Message('note_on', channel=4, note=59, velocity=34, time=0),
    Message('note_off', channel=4, note=47, velocity=64, time=8),
    Message('note_off', channel=4, note=52, velocity=64, time=0),
    Message('note_on', channel=4, note=55, velocity=34, time=0),
    Message('note_on', channel=4, note=52, velocity=30, time=8),
    Message('note_on', channel=4, note=47, velocity=21, time=8),
    Message('note_on', channel=4, note=40, velocity=4, time=8),
    Message('note_off', channel=4, note=40, velocity=64, time=184),
    Message('note_off', channel=4, note=47, velocity=64, time=0),
    Message('note_off', channel=4, note=52, velocity=64, time=0),
    Message('note_off', channel=4, note=64, velocity=64, time=0),
    Message('note_off', channel=4, note=59, velocity=64, time=0),
    Message('note_off', channel=4, note=55, velocity=64, time=0),
    Message('note_on', channel=4, note=50, velocity=58, time=28),
    Message('note_on', channel=4, note=57, velocity=58, time=464),
    Message('note_on', channel=4, note=62, velocity=58, time=16),
    Message('note_on', channel=4, note=66, velocity=58, time=16),
    Message('note_off', channel=4, note=57, velocity=64, time=440),
    Message('note_on', channel=4, note=57, velocity=58, time=8),
    Message('note_off', channel=4, note=62, velocity=64, time=8),
    Message('note_on', channel=4, note=62, velocity=58, time=8),
    Message('note_off', channel=4, note=66, velocity=64, time=4),
    Message('note_on', channel=4, note=66, velocity=58, time=12),
    Message('note_off', channel=4, note=50, velocity=64, time=92),
    Message('note_off', channel=4, note=57, velocity=64, time=332),
    Message('note_off', channel=4, note=62, velocity=64, time=0),
    Message('note_off', channel=4, note=66, velocity=64, time=0),
    Message('note_on', channel=4, note=40, velocity=46, time=40),
    Message('note_on', channel=4, note=47, velocity=49, time=464),
    Message('note_on', channel=4, note=52, velocity=58, time=8),
    Message('note_on', channel=4, note=55, velocity=58, time=12),
    Message('note_on', channel=4, note=59, velocity=58, time=8),
    Message('note_on', channel=4, note=64, velocity=58, time=12),
    Message('note_off', channel=4, note=64, velocity=64, time=200),
    Message('note_off', channel=4, note=59, velocity=64, time=8),
    Message('note_on', channel=4, note=64, velocity=35, time=0),
    Message('note_off', channel=4, note=55, velocity=64, time=8),
    Message('note_on', channel=4, note=59, velocity=40, time=0),
    Message('note_on', channel=4, note=55, velocity=40, time=8),
    Message('note_off', channel=4, note=52, velocity=64, time=4),
    Message('note_off', channel=4, note=47, velocity=64, time=0),
    Message('note_on', channel=4, note=52, velocity=35, time=4),
    Message('note_off', channel=4, note=40, velocity=64, time=8),
    Message('note_on', channel=4, note=47, velocity=25, time=0),
    Message('note_on', channel=4, note=40, velocity=5, time=8),
    Message('note_off', channel=4, note=47, velocity=64, time=176),
    Message('note_off', channel=4, note=52, velocity=64, time=8),
    Message('note_on', channel=4, note=47, velocity=41, time=0),
    Message('note_on', channel=4, note=52, velocity=49, time=8),
    Message('note_off', channel=4, note=55, velocity=64, time=4),
    Message('note_off', channel=4, note=59, velocity=64, time=8),
    Message('note_on', channel=4, note=55, velocity=49, time=0),
    Message('note_on', channel=4, note=59, velocity=49, time=8),
    Message('note_off', channel=4, note=64, velocity=64, time=8),
    Message('note_off', channel=4, note=40, velocity=64, time=0),
    Message('note_on', channel=4, note=64, velocity=49, time=4),
    Message('note_off', channel=4, note=47, velocity=64, time=404),
    Message('note_off', channel=4, note=52, velocity=64, time=0),
    Message('note_off', channel=4, note=55, velocity=64, time=0),
    Message('note_off', channel=4, note=59, velocity=64, time=0),
    Message('note_off', channel=4, note=64, velocity=64, time=0),
    Message('note_on', channel=4, note=40, velocity=46, time=60),
    Message('note_on', channel=4, note=47, velocity=49, time=464),
    Message('note_on', channel=4, note=52, velocity=58, time=8),
    Message('note_on', channel=4, note=55, velocity=58, time=12),
    Message('note_on', channel=4, note=59, velocity=58, time=8),
    Message('note_on', channel=4, note=64, velocity=58, time=12),
    Message('note_off', channel=4, note=64, velocity=64, time=200),
    Message('note_off', channel=4, note=59, velocity=64, time=8),
    Message('note_on', channel=4, note=64, velocity=35, time=0),
    Message('note_off', channel=4, note=55, velocity=64, time=8),
    Message('note_on', channel=4, note=59, velocity=40, time=0),
    Message('note_on', channel=4, note=55, velocity=40, time=8),
    Message('note_off', channel=4, note=52, velocity=64, time=4),
    Message('note_off', channel=4, note=47, velocity=64, time=0),
    Message('note_on', channel=4, note=52, velocity=35, time=4),
    Message('note_off', channel=4, note=40, velocity=64, time=8),
    Message('note_on', channel=4, note=47, velocity=25, time=0),
    Message('note_on', channel=4, note=40, velocity=5, time=8),
    Message('note_off', channel=4, note=47, velocity=64, time=176),
    Message('note_off', channel=4, note=52, velocity=64, time=8),
    Message('note_on', channel=4, note=47, velocity=41, time=0),
    Message('note_on', channel=4, note=52, velocity=49, time=8),
    Message('note_off', channel=4, note=55, velocity=64, time=4),
    Message('note_off', channel=4, note=59, velocity=64, time=8),
    Message('note_on', channel=4, note=55, velocity=49, time=0),
    Message('note_on', channel=4, note=59, velocity=49, time=8),
    Message('note_off', channel=4, note=64, velocity=64, time=8),
    Message('note_off', channel=4, note=40, velocity=64, time=0),
    Message('note_on', channel=4, note=64, velocity=49, time=4),
    Message('note_off', channel=4, note=47, velocity=64, time=404),
    Message('note_off', channel=4, note=52, velocity=64, time=0),
    Message('note_off', channel=4, note=55, velocity=64, time=0),
    Message('note_off', channel=4, note=59, velocity=64, time=0),
    Message('note_off', channel=4, note=64, velocity=64, time=0),
    Message('note_on', channel=4, note=43, velocity=44, time=60),
    Message('note_on', channel=4, note=47, velocity=46, time=464),
    Message('note_on', channel=4, note=50, velocity=55, time=8),
    Message('note_on', channel=4, note=55, velocity=55, time=12),
    Message('note_on', channel=4, note=59, velocity=55, time=8),
    Message('note_on', channel=4, note=67, velocity=55, time=12),
    Message('note_off', channel=4, note=47, velocity=64, time=432),
    Message('note_off', channel=4, note=50, velocity=64, time=8),
    Message('note_on', channel=4, note=47, velocity=46, time=0),
    Message('note_on', channel=4, note=50, velocity=55, time=8),
    Message('note_off', channel=4, note=55, velocity=64, time=4),
    Message('note_on', channel=4, note=55, velocity=55, time=8),
    Message('note_off', channel=4, note=59, velocity=64, time=4),
    Message('note_off', channel=4, note=67, velocity=64, time=0),
    Message('note_on', channel=4, note=59, velocity=55, time=4),
    Message('note_on', channel=4, note=67, velocity=55, time=12),
    Message('note_off', channel=4, note=43, velocity=64, time=340),
    Message('note_off', channel=4, note=47, velocity=64, time=76),
    Message('note_off', channel=4, note=50, velocity=64, time=0),
    Message('note_off', channel=4, note=55, velocity=64, time=0),
    Message('note_off', channel=4, note=59, velocity=64, time=0),
    Message('note_off', channel=4, note=67, velocity=64, time=0),
    Message('note_on', channel=4, note=40, velocity=46, time=40),
    Message('note_on', channel=4, note=47, velocity=49, time=464),
    Message('note_on', channel=4, note=52, velocity=58, time=8),
    Message('note_on', channel=4, note=55, velocity=58, time=12),
    Message('note_on', channel=4, note=59, velocity=58, time=8),
    Message('note_on', channel=4, note=64, velocity=58, time=12),
    Message('note_off', channel=4, note=47, velocity=64, time=432),
    Message('note_off', channel=4, note=52, velocity=64, time=8),
    Message('note_on', channel=4, note=47, velocity=49, time=0),
    Message('note_on', channel=4, note=52, velocity=58, time=8),
    Message('note_off', channel=4, note=55, velocity=64, time=4),
    Message('note_off', channel=4, note=59, velocity=64, time=8),
    Message('note_off', channel=4, note=64, velocity=64, time=0),
    Message('note_on', channel=4, note=55, velocity=58, time=0),
    Message('note_on', channel=4, note=59, velocity=58, time=8),
    Message('note_on', channel=4, note=64, velocity=58, time=12),
    Message('note_off', channel=4, note=40, velocity=64, time=84),
    Message('note_off', channel=4, note=47, velocity=64, time=332),
    Message('note_off', channel=4, note=52, velocity=64, time=0),
    Message('note_off', channel=4, note=55, velocity=64, time=0),
    Message('note_off', channel=4, note=59, velocity=64, time=0),
    Message('note_off', channel=4, note=64, velocity=64, time=0),
    Message('note_on', channel=4, note=43, velocity=44, time=40),
    Message('note_off', channel=4, note=43, velocity=64, time=444),
    Message('note_on', channel=4, note=52, velocity=58, time=12),
    Message('note_on', channel=4, note=57, velocity=58, time=12),
    Message('note_on', channel=4, note=61, velocity=58, time=12),
    Message('note_on', channel=4, note=64, velocity=58, time=12),
    Message('note_off', channel=4, note=64, velocity=64, time=436),
    Message('note_off', channel=4, note=61, velocity=64, time=0),
    Message('note_off', channel=4, note=57, velocity=64, time=0),
    Message('note_off', channel=4, note=52, velocity=64, time=0),
    Message('note_on', channel=4, note=52, velocity=58, time=8),
    Message('note_on', channel=4, note=57, velocity=58, time=12),
    Message('note_on', channel=4, note=61, velocity=58, time=12),
    Message('note_on', channel=4, note=64, velocity=58, time=12),
    Message('note_off', channel=4, note=64, velocity=64, time=432),
    Message('note_off', channel=4, note=61, velocity=64, time=0),
    Message('note_off', channel=4, note=57, velocity=64, time=0),
    Message('note_off', channel=4, note=52, velocity=64, time=0),
    Message('note_on', channel=4, note=40, velocity=46, time=36),
    Message('note_on', channel=4, note=47, velocity=49, time=464),
    Message('note_on', channel=4, note=52, velocity=58, time=8),
    Message('note_on', channel=4, note=55, velocity=58, time=12),
    Message('note_on', channel=4, note=59, velocity=58, time=8),
    Message('note_on', channel=4, note=64, velocity=58, time=12),
    Message('note_off', channel=4, note=47, velocity=64, time=432),
    Message('note_off', channel=4, note=52, velocity=64, time=8),
    Message('note_on', channel=4, note=47, velocity=49, time=0),
    Message('note_on', channel=4, note=52, velocity=58, time=8),
    Message('note_off', channel=4, note=55, velocity=64, time=4),
    Message('note_off', channel=4, note=59, velocity=64, time=8),
    Message('note_off', channel=4, note=64, velocity=64, time=0),
    Message('note_on', channel=4, note=55, velocity=58, time=0),
    Message('note_on', channel=4, note=59, velocity=58, time=8),
    Message('note_on', channel=4, note=64, velocity=58, time=12),
    Message('note_off', channel=4, note=40, velocity=64, time=84),
    Message('note_on', channel=4, note=40, velocity=46, time=372),
    Message('note_off', channel=4, note=47, velocity=64, time=4),
    Message('note_off', channel=4, note=52, velocity=64, time=0),
    Message('note_off', channel=4, note=55, velocity=64, time=0),
    Message('note_off', channel=4, note=59, velocity=64, time=0),
    Message('note_off', channel=4, note=64, velocity=64, time=0),
    Message('note_on', channel=4, note=47, velocity=49, time=460),
    Message('note_on', channel=4, note=52, velocity=58, time=8),
    Message('note_on', channel=4, note=55, velocity=58, time=12),
    Message('note_on', channel=4, note=59, velocity=58, time=8),
    Message('note_on', channel=4, note=64, velocity=58, time=12),
    Message('note_off', channel=4, note=47, velocity=64, time=432),
    Message('note_off', channel=4, note=52, velocity=64, time=8),
    Message('note_on', channel=4, note=47, velocity=49, time=0),
    Message('note_on', channel=4, note=52, velocity=58, time=8),
    Message('note_off', channel=4, note=55, velocity=64, time=4),
    Message('note_on', channel=4, note=55, velocity=58, time=8),
    Message('note_off', channel=4, note=59, velocity=64, time=4),
    Message('note_off', channel=4, note=64, velocity=64, time=0),
    Message('note_on', channel=4, note=59, velocity=58, time=4),
    Message('note_on', channel=4, note=64, velocity=58, time=12),
    Message('note_off', channel=4, note=40, velocity=64, time=196),
    Message('note_off', channel=4, note=47, velocity=64, time=232),
    Message('note_off', channel=4, note=52, velocity=64, time=0),
    Message('note_off', channel=4, note=55, velocity=64, time=0),
    Message('note_off', channel=4, note=59, velocity=64, time=0),
    Message('note_off', channel=4, note=64, velocity=64, time=0),
    Message('note_on', channel=4, note=40, velocity=46, time=28),
    Message('note_on', channel=4, note=47, velocity=49, time=464),
    Message('note_on', channel=4, note=52, velocity=58, time=8),
    Message('note_on', channel=4, note=55, velocity=58, time=12),
    Message('note_on', channel=4, note=59, velocity=58, time=8),
    Message('note_on', channel=4, note=64, velocity=58, time=12),
    Message('note_off', channel=4, note=47, velocity=64, time=432),
    Message('note_off', channel=4, note=52, velocity=64, time=8),
    Message('note_on', channel=4, note=47, velocity=49, time=0),
    Message('note_on', channel=4, note=52, velocity=58, time=8),
    Message('note_off', channel=4, note=55, velocity=64, time=4),
    Message('note_off', channel=4, note=59, velocity=64, time=8),
    Message('note_off', channel=4, note=64, velocity=64, time=0),
    Message('note_on', channel=4, note=55, velocity=58, time=0),
    Message('note_on', channel=4, note=59, velocity=58, time=8),
    Message('note_on', channel=4, note=64, velocity=58, time=12),
    Message('note_off', channel=4, note=40, velocity=64, time=84),
    Message('note_on', channel=4, note=40, velocity=46, time=372),
    Message('note_off', channel=4, note=47, velocity=64, time=4),
    Message('note_off', channel=4, note=52, velocity=64, time=0),
    Message('note_off', channel=4, note=55, velocity=64, time=0),
    Message('note_off', channel=4, note=59, velocity=64, time=0),
    Message('note_off', channel=4, note=64, velocity=64, time=0),
    Message('note_on', channel=4, note=47, velocity=49, time=460),
    Message('note_on', channel=4, note=52, velocity=58, time=8),
    Message('note_on', channel=4, note=55, velocity=58, time=12),
    Message('note_on', channel=4, note=59, velocity=58, time=8),
    Message('note_on', channel=4, note=64, velocity=58, time=12),
    Message('note_off', channel=4, note=47, velocity=64, time=432),
    Message('note_off', channel=4, note=52, velocity=64, time=8),
    Message('note_on', channel=4, note=47, velocity=49, time=0),
    Message('note_on', channel=4, note=52, velocity=58, time=8),
    Message('note_off', channel=4, note=55, velocity=64, time=4),
    Message('note_on', channel=4, note=55, velocity=58, time=8),
    Message('note_off', channel=4, note=59, velocity=64, time=4),
    Message('note_off', channel=4, note=64, velocity=64, time=0),
    Message('note_on', channel=4, note=59, velocity=58, time=4),
    Message('note_on', channel=4, note=64, velocity=58, time=12),
    Message('note_off', channel=4, note=40, velocity=64, time=196),
    Message('note_off', channel=4, note=47, velocity=64, time=232),
    Message('note_off', channel=4, note=52, velocity=64, time=0),
    Message('note_off', channel=4, note=55, velocity=64, time=0),
    Message('note_off', channel=4, note=59, velocity=64, time=0),
    Message('note_off', channel=4, note=64, velocity=64, time=0),
    Message('note_on', channel=4, note=40, velocity=44, time=28),
    Message('note_on', channel=4, note=47, velocity=46, time=464),
    Message('note_on', channel=4, note=52, velocity=55, time=8),
    Message('note_on', channel=4, note=55, velocity=55, time=12),
    Message('note_on', channel=4, note=59, velocity=55, time=8),
    Message('note_on', channel=4, note=64, velocity=55, time=12),
    Message('note_off', channel=4, note=47, velocity=64, time=432),
    Message('note_off', channel=4, note=52, velocity=64, time=8),
    Message('note_on', channel=4, note=47, velocity=46, time=0),
    Message('note_on', channel=4, note=52, velocity=55, time=8),
    Message('note_off', channel=4, note=55, velocity=64, time=4),
    Message('note_on', channel=4, note=55, velocity=55, time=8),
    Message('note_off', channel=4, note=59, velocity=64, time=4),
    Message('note_off', channel=4, note=64, velocity=64, time=0),
    Message('note_on', channel=4, note=59, velocity=55, time=4),
    Message('note_on', channel=4, note=64, velocity=55, time=12),
    Message('note_off', channel=4, note=40, velocity=64, time=340),
    Message('note_off', channel=4, note=47, velocity=64, time=76),
    Message('note_off', channel=4, note=52, velocity=64, time=0),
    Message('note_off', channel=4, note=55, velocity=64, time=0),
    Message('note_off', channel=4, note=59, velocity=64, time=0),
    Message('note_off', channel=4, note=64, velocity=64, time=0),
    Message('note_on', channel=4, note=43, velocity=46, time=40),
    Message('note_on', channel=4, note=47, velocity=49, time=464),
    Message('note_on', channel=4, note=50, velocity=58, time=8),
    Message('note_on', channel=4, note=55, velocity=58, time=12),
    Message('note_on', channel=4, note=59, velocity=58, time=8),
    Message('note_on', channel=4, note=67, velocity=58, time=12),
    Message('note_off', channel=4, note=47, velocity=64, time=432),
    Message('note_off', channel=4, note=50, velocity=64, time=8),
    Message('note_on', channel=4, note=47, velocity=49, time=0),
    Message('note_on', channel=4, note=50, velocity=58, time=8),
    Message('note_off', channel=4, note=55, velocity=64, time=4),
    Message('note_off', channel=4, note=59, velocity=64, time=8),
    Message('note_off', channel=4, note=67, velocity=64, time=0),
    Message('note_on', channel=4, note=55, velocity=58, time=0),
    Message('note_on', channel=4, note=59, velocity=58, time=8),
    Message('note_on', channel=4, note=67, velocity=58, time=12),
    Message('note_off', channel=4, note=43, velocity=64, time=84),
    Message('note_off', channel=4, note=47, velocity=64, time=332),
    Message('note_off', channel=4, note=50, velocity=64, time=0),
    Message('note_off', channel=4, note=55, velocity=64, time=0),
    Message('note_off', channel=4, note=59, velocity=64, time=0),
    Message('note_off', channel=4, note=67, velocity=64, time=0),
    Message('note_on', channel=4, note=43, velocity=44, time=40),
    Message('note_off', channel=4, note=43, velocity=64, time=444),
    Message('note_on', channel=4, note=49, velocity=49, time=12),
    Message('note_on', channel=4, note=54, velocity=58, time=8),
    Message('note_on', channel=4, note=57, velocity=58, time=12),
    Message('note_on', channel=4, note=61, velocity=58, time=8),
    Message('note_on', channel=4, note=66, velocity=58, time=12),
    Message('note_off', channel=4, note=66, velocity=64, time=432),
    Message('note_off', channel=4, note=61, velocity=64, time=0),
    Message('note_off', channel=4, note=57, velocity=64, time=0),
    Message('note_off', channel=4, note=54, velocity=64, time=0),
    Message('note_off', channel=4, note=49, velocity=64, time=0),
    Message('note_on', channel=4, note=47, velocity=49, time=8),
    Message('note_on', channel=4, note=52, velocity=58, time=8),
    Message('note_on', channel=4, note=55, velocity=58, time=12),
    Message('note_on', channel=4, note=59, velocity=58, time=8),
    Message('note_on', channel=4, note=64, velocity=58, time=12),
    Message('note_off', channel=4, note=64, velocity=64, time=428),
    Message('note_off', channel=4, note=59, velocity=64, time=0),
    Message('note_off', channel=4, note=55, velocity=64, time=0),
    Message('note_off', channel=4, note=52, velocity=64, time=0),
    Message('note_off', channel=4, note=47, velocity=64, time=0),
    Message('note_on', channel=4, note=50, velocity=55, time=36),
    Message('note_on', channel=4, note=57, velocity=55, time=464),
    Message('note_on', channel=4, note=62, velocity=55, time=16),
    Message('note_on', channel=4, note=66, velocity=55, time=16),
    Message('note_off', channel=4, note=57, velocity=64, time=440),
    Message('note_on', channel=4, note=57, velocity=55, time=8),
    Message('note_off', channel=4, note=62, velocity=64, time=8),
    Message('note_on', channel=4, note=62, velocity=55, time=8),
    Message('note_off', channel=4, note=66, velocity=64, time=8),
    Message('note_on', channel=4, note=66, velocity=55, time=8),
    Message('note_off', channel=4, note=50, velocity=64, time=348),
    Message('note_off', channel=4, note=57, velocity=64, time=76),
    Message('note_off', channel=4, note=62, velocity=64, time=0),
    Message('note_off', channel=4, note=66, velocity=64, time=0),
    Message('note_on', channel=4, note=50, velocity=55, time=40),
    Message('note_on', channel=4, note=57, velocity=55, time=464),
    Message('note_on', channel=4, note=62, velocity=55, time=16),
    Message('note_on', channel=4, note=66, velocity=55, time=16),
    Message('note_off', channel=4, note=57, velocity=64, time=440),
    Message('note_on', channel=4, note=57, velocity=55, time=8),
    Message('note_off', channel=4, note=62, velocity=64, time=8),
    Message('note_on', channel=4, note=62, velocity=55, time=8),
    Message('note_off', channel=4, note=66, velocity=64, time=8),
    Message('note_on', channel=4, note=66, velocity=55, time=8),
    Message('note_off', channel=4, note=50, velocity=64, time=348),
    Message('note_off', channel=4, note=57, velocity=64, time=76),
    Message('note_off', channel=4, note=62, velocity=64, time=0),
    Message('note_off', channel=4, note=66, velocity=64, time=0),
    Message('note_on', channel=4, note=40, velocity=44, time=40),
    Message('note_on', channel=4, note=47, velocity=46, time=464),
    Message('note_on', channel=4, note=52, velocity=55, time=8),
    Message('note_on', channel=4, note=55, velocity=55, time=12),
    Message('note_on', channel=4, note=59, velocity=55, time=8),
    Message('note_on', channel=4, note=64, velocity=55, time=12),
    Message('note_off', channel=4, note=47, velocity=64, time=432),
    Message('note_off', channel=4, note=52, velocity=64, time=8),
    Message('note_on', channel=4, note=47, velocity=46, time=0),
    Message('note_on', channel=4, note=52, velocity=55, time=8),
    Message('note_off', channel=4, note=55, velocity=64, time=4),
    Message('note_on', channel=4, note=55, velocity=55, time=8),
    Message('note_off', channel=4, note=59, velocity=64, time=4),
    Message('note_off', channel=4, note=64, velocity=64, time=0),
    Message('note_on', channel=4, note=59, velocity=55, time=4),
    Message('note_on', channel=4, note=64, velocity=55, time=12),
    Message('note_off', channel=4, note=40, velocity=64, time=340),
    Message('note_off', channel=4, note=47, velocity=64, time=76),
    Message('note_off', channel=4, note=52, velocity=64, time=0),
    Message('note_off', channel=4, note=55, velocity=64, time=0),
    Message('note_off', channel=4, note=59, velocity=64, time=0),
    Message('note_off', channel=4, note=64, velocity=64, time=0),
    Message('note_on', channel=4, note=50, velocity=55, time=40),
    Message('note_on', channel=4, note=57, velocity=55, time=464),
    Message('note_on', channel=4, note=62, velocity=55, time=16),
    Message('note_on', channel=4, note=66, velocity=55, time=16),
    Message('note_off', channel=4, note=50, velocity=64, time=388),
    Message('note_off', channel=4, note=57, velocity=64, time=36),
    Message('note_off', channel=4, note=62, velocity=64, time=0),
    Message('note_off', channel=4, note=66, velocity=64, time=0),
    Message('note_on', channel=4, note=47, velocity=49, time=16),
    Message('note_on', channel=4, note=52, velocity=58, time=8),
    Message('note_on', channel=4, note=55, velocity=58, time=12),
    Message('note_on', channel=4, note=59, velocity=58, time=8),
    Message('note_on', channel=4, note=64, velocity=58, time=12),
    Message('note_off', channel=4, note=64, velocity=64, time=428),
    Message('note_off', channel=4, note=59, velocity=64, time=0),
    Message('note_off', channel=4, note=55, velocity=64, time=0),
    Message('note_off', channel=4, note=52, velocity=64, time=0),
    Message('note_off', channel=4, note=47, velocity=64, time=0),
    Message('note_on', channel=4, note=50, velocity=55, time=36),
    Message('note_off', channel=4, note=50, velocity=64, time=444),
    Message('note_on', channel=4, note=47, velocity=49, time=12),
    Message('note_on', channel=4, note=52, velocity=58, time=8),
    Message('note_on', channel=4, note=55, velocity=58, time=12),
    Message('note_on', channel=4, note=59, velocity=58, time=8),
    Message('note_on', channel=4, note=64, velocity=58, time=12),
    Message('note_off', channel=4, note=64, velocity=64, time=432),
    Message('note_off', channel=4, note=59, velocity=64, time=0),
    Message('note_off', channel=4, note=55, velocity=64, time=0),
    Message('note_off', channel=4, note=52, velocity=64, time=0),
    Message('note_off', channel=4, note=47, velocity=64, time=0),
    Message('note_on', channel=4, note=57, velocity=58, time=8),
    Message('note_on', channel=4, note=62, velocity=58, time=16),
    Message('note_on', channel=4, note=66, velocity=58, time=16),
    Message('note_off', channel=4, note=66, velocity=64, time=436),
    Message('note_off', channel=4, note=62, velocity=64, time=0),
    Message('note_off', channel=4, note=57, velocity=64, time=0),
    Message('note_on', channel=4, note=40, velocity=44, time=36),
    Message('note_on', channel=4, note=47, velocity=46, time=464),
    Message('note_on', channel=4, note=52, velocity=55, time=8),
    Message('note_on', channel=4, note=55, velocity=55, time=12),
    Message('note_on', channel=4, note=59, velocity=55, time=8),
    Message('note_on', channel=4, note=64, velocity=55, time=12),
    Message('note_off', channel=4, note=47, velocity=64, time=432),
    Message('note_off', channel=4, note=52, velocity=64, time=8),
    Message('note_on', channel=4, note=47, velocity=46, time=0),
    Message('note_on', channel=4, note=52, velocity=55, time=8),
    Message('note_off', channel=4, note=55, velocity=64, time=4),
    Message('note_on', channel=4, note=55, velocity=55, time=8),
    Message('note_off', channel=4, note=59, velocity=64, time=4),
    Message('note_off', channel=4, note=64, velocity=64, time=0),
    Message('note_on', channel=4, note=59, velocity=55, time=4),
    Message('note_on', channel=4, note=64, velocity=55, time=12),
    Message('note_off', channel=4, note=40, velocity=64, time=340),
    Message('note_on', channel=4, note=40, velocity=44, time=120),
    Message('note_off', channel=4, note=47, velocity=64, time=408),
    Message('note_off', channel=4, note=52, velocity=64, time=0),
    Message('note_off', channel=4, note=55, velocity=64, time=0),
    Message('note_off', channel=4, note=59, velocity=64, time=0),
    Message('note_off', channel=4, note=64, velocity=64, time=0),
    Message('note_on', channel=4, note=47, velocity=46, time=52),
    Message('note_on', channel=4, note=52, velocity=55, time=8),
    Message('note_on', channel=4, note=55, velocity=55, time=12),
    Message('note_on', channel=4, note=59, velocity=55, time=8),
    Message('note_on', channel=4, note=64, velocity=55, time=12),
    Message('note_off', channel=4, note=47, velocity=64, time=432),
    Message('note_off', channel=4, note=52, velocity=64, time=8),
    Message('note_on', channel=4, note=47, velocity=46, time=0),
    Message('note_on', channel=4, note=52, velocity=55, time=8),
    Message('note_off', channel=4, note=55, velocity=64, time=4),
    Message('note_on', channel=4, note=55, velocity=55, time=8),
    Message('note_off', channel=4, note=59, velocity=64, time=4),
    Message('note_off', channel=4, note=64, velocity=64, time=0),
    Message('note_on', channel=4, note=59, velocity=55, time=4),
    Message('note_on', channel=4, note=64, velocity=55, time=12),
    Message('note_off', channel=4, note=40, velocity=64, time=372),
    Message('note_off', channel=4, note=47, velocity=64, time=56),
    Message('note_off', channel=4, note=52, velocity=64, time=0),
    Message('note_off', channel=4, note=55, velocity=64, time=0),
    Message('note_off', channel=4, note=59, velocity=64, time=0),
    Message('note_off', channel=4, note=64, velocity=64, time=0),
    Message('note_on', channel=4, note=40, velocity=44, time=28),
    Message('note_on', channel=4, note=47, velocity=46, time=464),
    Message('note_on', channel=4, note=52, velocity=55, time=8),
    Message('note_on', channel=4, note=55, velocity=55, time=12),
    Message('note_on', channel=4, note=59, velocity=55, time=8),
    Message('note_on', channel=4, note=64, velocity=55, time=12),
    Message('note_off', channel=4, note=40, velocity=64, time=380),
    Message('note_off', channel=4, note=47, velocity=64, time=36),
    Message('note_off', channel=4, note=52, velocity=64, time=0),
    Message('note_off', channel=4, note=55, velocity=64, time=0),
    Message('note_off', channel=4, note=59, velocity=64, time=0),
    Message('note_off', channel=4, note=64, velocity=64, time=0),
    Message('note_on', channel=4, note=57, velocity=58, time=16),
    Message('note_on', channel=4, note=62, velocity=58, time=16),
    Message('note_on', channel=4, note=66, velocity=58, time=16),
    Message('note_off', channel=4, note=66, velocity=64, time=436),
    Message('note_off', channel=4, note=62, velocity=64, time=0),
    Message('note_off', channel=4, note=57, velocity=64, time=0),
    Message('note_on', channel=4, note=40, velocity=44, time=36),
    Message('note_off', channel=4, note=40, velocity=64, time=444),
    Message('control_change', channel=4, control=64, value=0, time=988),
    MetaMessage('end_of_track', time=0)]),
  MidiTrack([
    MetaMessage('track_name', name='Sitar', time=0),
    MetaMessage('midi_port', port=0, time=0),
    MetaMessage('channel_prefix', channel=5, time=0),
    Message('control_change', channel=5, control=7, value=109, time=0),
    Message('control_change', channel=5, control=10, value=127, time=0),
    Message('control_change', channel=5, control=91, value=99, time=0),
    Message('program_change', channel=5, program=104, time=0),
    Message('control_change', channel=5, control=123, value=0, time=0),
    Message('control_change', channel=5, control=64, value=0, time=0),
    Message('note_on', channel=5, note=64, velocity=45, time=7216),
    Message('note_off', channel=5, note=64, velocity=64, time=1436),
    Message('note_on', channel=5, note=64, velocity=36, time=8),
    Message('note_off', channel=5, note=64, velocity=64, time=944),
    Message('note_on', channel=5, note=55, velocity=13, time=0),
    Message('note_off', channel=5, note=55, velocity=64, time=456),
    Message('note_on', channel=5, note=66, velocity=45, time=36),
    Message('note_off', channel=5, note=66, velocity=64, time=1404),
    Message('note_on', channel=5, note=64, velocity=45, time=1476),
    Message('note_off', channel=5, note=64, velocity=64, time=1404),
    Message('note_on', channel=5, note=59, velocity=25, time=1472),
    Message('note_off', channel=5, note=59, velocity=64, time=1408),
    Message('note_on', channel=5, note=64, velocity=45, time=1476),
    Message('note_off', channel=5, note=64, velocity=64, time=1436),
    Message('note_on', channel=5, note=64, velocity=36, time=8),
    Message('note_off', channel=5, note=64, velocity=64, time=944),
    Message('note_on', channel=5, note=55, velocity=13, time=0),
    Message('note_off', channel=5, note=55, velocity=64, time=456),
    Message('note_on', channel=5, note=64, velocity=45, time=36),
    Message('note_off', channel=5, note=64, velocity=64, time=1436),
    Message('note_on', channel=5, note=64, velocity=36, time=8),
    Message('note_off', channel=5, note=64, velocity=64, time=944),
    Message('note_on', channel=5, note=55, velocity=13, time=0),
    Message('note_off', channel=5, note=55, velocity=64, time=456),
    Message('note_on', channel=5, note=64, velocity=45, time=36),
    Message('note_off', channel=5, note=64, velocity=64, time=1404),
    Message('note_on', channel=5, note=66, velocity=45, time=4356),
    Message('note_off', channel=5, note=66, velocity=64, time=1404),
    Message('note_on', channel=5, note=66, velocity=45, time=1476),
    Message('note_off', channel=5, note=66, velocity=64, time=924),
    Message('note_on', channel=5, note=64, velocity=25, time=1952),
    Message('note_off', channel=5, note=64, velocity=64, time=2848),
    Message('note_on', channel=5, note=40, velocity=23, time=2900),
    Message('note_on', channel=5, note=52, velocity=39, time=68),
    Message('note_on', channel=5, note=55, velocity=33, time=64),
    Message('note_on', channel=5, note=59, velocity=36, time=120),
    Message('note_on', channel=5, note=64, velocity=40, time=84),
    Message('note_off', channel=5, note=59, velocity=64, time=2456),
    Message('note_off', channel=5, note=55, velocity=64, time=0),
    Message('note_off', channel=5, note=40, velocity=64, time=56),
    Message('note_off', channel=5, note=52, velocity=64, time=12),
    Message('note_off', channel=5, note=64, velocity=64, time=0),
    Message('note_on', channel=5, note=50, velocity=29, time=20),
    Message('note_on', channel=5, note=57, velocity=39, time=8),
    Message('note_on', channel=5, note=66, velocity=33, time=4),
    Message('note_on', channel=5, note=69, velocity=40, time=8),
    Message('note_off', channel=5, note=69, velocity=64, time=440),
    Message('note_off', channel=5, note=66, velocity=64, time=0),
    Message('note_off', channel=5, note=57, velocity=64, time=0),
    Message('note_off', channel=5, note=50, velocity=64, time=0),
    Message('note_on', channel=5, note=64, velocity=40, time=2440),
    Message('note_on', channel=5, note=59, velocity=36, time=120),
    Message('note_on', channel=5, note=55, velocity=33, time=104),
    Message('note_on', channel=5, note=52, velocity=39, time=108),
    Message('note_on', channel=5, note=40, velocity=29, time=132),
    Message('note_off', channel=5, note=55, velocity=64, time=904),
    Message('note_off', channel=5, note=59, velocity=64, time=0),
    Message('note_off', channel=5, note=52, velocity=64, time=8),
    Message('note_off', channel=5, note=64, velocity=64, time=24),
    Message('note_off', channel=5, note=40, velocity=64, time=0),
    Message('note_on', channel=5, note=64, velocity=40, time=1480),
    Message('note_on', channel=5, note=59, velocity=36, time=120),
    Message('note_on', channel=5, note=55, velocity=33, time=104),
    Message('note_on', channel=5, note=52, velocity=39, time=108),
    Message('note_on', channel=5, note=40, velocity=29, time=132),
    Message('note_off', channel=5, note=55, velocity=64, time=904),
    Message('note_off', channel=5, note=59, velocity=64, time=0),
    Message('note_off', channel=5, note=52, velocity=64, time=8),
    Message('note_off', channel=5, note=64, velocity=64, time=24),
    Message('note_off', channel=5, note=40, velocity=64, time=0),
    Message('note_on', channel=5, note=43, velocity=29, time=20),
    Message('note_on', channel=5, note=59, velocity=39, time=8),
    Message('note_on', channel=5, note=67, velocity=33, time=4),
    Message('note_on', channel=5, note=71, velocity=40, time=8),
    Message('note_off', channel=5, note=71, velocity=64, time=440),
    Message('note_off', channel=5, note=67, velocity=64, time=0),
    Message('note_off', channel=5, note=59, velocity=64, time=0),
    Message('note_off', channel=5, note=43, velocity=64, time=0),
    Message('note_on', channel=5, note=52, velocity=37, time=980),
    Message('note_on', channel=5, note=64, velocity=40, time=484),
    Message('note_on', channel=5, note=59, velocity=36, time=240),
    Message('note_on', channel=5, note=55, velocity=33, time=244),
    Message('note_off', channel=5, note=52, velocity=64, time=160),
    Message('note_on', channel=5, note=52, velocity=39, time=72),
    Message('note_off', channel=5, note=64, velocity=64, time=1060),
    Message('note_off', channel=5, note=59, velocity=64, time=316),
    Message('note_off', channel=5, note=55, velocity=64, time=60),
    Message('note_off', channel=5, note=52, velocity=64, time=212),
    Message('note_on', channel=5, note=52, velocity=37, time=32),
    Message('note_on', channel=5, note=64, velocity=40, time=484),
    Message('note_on', channel=5, note=59, velocity=36, time=240),
    Message('note_on', channel=5, note=55, velocity=33, time=244),
    Message('note_off', channel=5, note=52, velocity=64, time=160),
    Message('note_on', channel=5, note=52, velocity=39, time=72),
    Message('note_off', channel=5, note=64, velocity=64, time=1060),
    Message('note_off', channel=5, note=59, velocity=64, time=316),
    Message('note_off', channel=5, note=55, velocity=64, time=60),
    Message('note_off', channel=5, note=52, velocity=64, time=212),
    Message('note_on', channel=5, note=64, velocity=40, time=52),
    Message('note_on', channel=5, note=59, velocity=36, time=120),
    Message('note_on', channel=5, note=55, velocity=33, time=104),
    Message('note_on', channel=5, note=52, velocity=39, time=108),
    Message('note_on', channel=5, note=40, velocity=29, time=132),
    Message('note_off', channel=5, note=55, velocity=64, time=904),
    Message('note_off', channel=5, note=59, velocity=64, time=0),
    Message('note_off', channel=5, note=52, velocity=64, time=8),
    Message('note_off', channel=5, note=64, velocity=64, time=24),
    Message('note_off', channel=5, note=40, velocity=64, time=0),
    Message('note_on', channel=5, note=43, velocity=29, time=1460),
    Message('note_on', channel=5, note=59, velocity=39, time=8),
    Message('note_on', channel=5, note=67, velocity=33, time=4),
    Message('note_on', channel=5, note=71, velocity=40, time=8),
    Message('note_off', channel=5, note=71, velocity=64, time=440),
    Message('note_off', channel=5, note=67, velocity=64, time=0),
    Message('note_off', channel=5, note=59, velocity=64, time=0),
    Message('note_off', channel=5, note=43, velocity=64, time=0),
    Message('note_on', channel=5, note=50, velocity=29, time=2420),
    Message('note_off', channel=5, note=50, velocity=64, time=60),
    Message('note_on', channel=5, note=50, velocity=39, time=8),
    Message('note_on', channel=5, note=57, velocity=33, time=64),
    Message('note_on', channel=5, note=62, velocity=36, time=120),
    Message('note_on', channel=5, note=66, velocity=40, time=84),
    Message('note_off', channel=5, note=66, velocity=64, time=1084),
    Message('note_off', channel=5, note=62, velocity=64, time=0),
    Message('note_off', channel=5, note=57, velocity=64, time=0),
    Message('note_off', channel=5, note=50, velocity=64, time=0),
    Message('note_on', channel=5, note=50, velocity=37, time=1460),
    Message('note_on', channel=5, note=66, velocity=40, time=484),
    Message('note_on', channel=5, note=62, velocity=36, time=240),
    Message('note_off', channel=5, note=62, velocity=64, time=216),
    Message('note_off', channel=5, note=66, velocity=64, time=0),
    Message('note_off', channel=5, note=50, velocity=64, time=0),
    Message('note_on', channel=5, note=50, velocity=29, time=500),
    Message('note_on', channel=5, note=57, velocity=39, time=8),
    Message('note_on', channel=5, note=66, velocity=33, time=4),
    Message('note_on', channel=5, note=69, velocity=40, time=8),
    Message('note_off', channel=5, note=69, velocity=64, time=440),
    Message('note_off', channel=5, note=66, velocity=64, time=0),
    Message('note_off', channel=5, note=57, velocity=64, time=0),
    Message('note_off', channel=5, note=50, velocity=64, time=0),
    Message('note_on', channel=5, note=52, velocity=37, time=980),
    Message('note_on', channel=5, note=64, velocity=40, time=484),
    Message('note_on', channel=5, note=59, velocity=36, time=240),
    Message('note_on', channel=5, note=55, velocity=33, time=244),
    Message('note_off', channel=5, note=52, velocity=64, time=160),
    Message('note_on', channel=5, note=52, velocity=39, time=72),
    Message('note_off', channel=5, note=64, velocity=64, time=1060),
    Message('note_off', channel=5, note=59, velocity=64, time=316),
    Message('note_off', channel=5, note=55, velocity=64, time=60),
    Message('note_off', channel=5, note=52, velocity=64, time=212),
    Message('note_on', channel=5, note=40, velocity=23, time=32),
    Message('note_on', channel=5, note=52, velocity=39, time=68),
    Message('note_on', channel=5, note=55, velocity=33, time=64),
    Message('note_on', channel=5, note=59, velocity=36, time=120),
    Message('note_on', channel=5, note=64, velocity=40, time=84),
    Message('note_off', channel=5, note=59, velocity=64, time=2456),
    Message('note_off', channel=5, note=55, velocity=64, time=0),
    Message('note_off', channel=5, note=40, velocity=64, time=56),
    Message('note_off', channel=5, note=52, velocity=64, time=12),
    Message('note_off', channel=5, note=64, velocity=64, time=0),
    Message('note_on', channel=5, note=40, velocity=23, time=20),
    Message('note_on', channel=5, note=52, velocity=39, time=68),
    Message('note_on', channel=5, note=55, velocity=33, time=64),
    Message('note_on', channel=5, note=59, velocity=36, time=120),
    Message('note_on', channel=5, note=64, velocity=40, time=84),
    Message('note_off', channel=5, note=59, velocity=64, time=2456),
    Message('note_off', channel=5, note=55, velocity=64, time=0),
    Message('note_off', channel=5, note=40, velocity=64, time=56),
    Message('note_off', channel=5, note=52, velocity=64, time=12),
    Message('note_off', channel=5, note=64, velocity=64, time=0),
    Message('note_on', channel=5, note=50, velocity=29, time=20),
    Message('note_on', channel=5, note=57, velocity=39, time=8),
    Message('note_on', channel=5, note=66, velocity=33, time=4),
    Message('note_on', channel=5, note=69, velocity=40, time=8),
    Message('note_off', channel=5, note=69, velocity=64, time=440),
    Message('note_off', channel=5, note=66, velocity=64, time=0),
    Message('note_off', channel=5, note=57, velocity=64, time=0),
    Message('note_off', channel=5, note=50, velocity=64, time=0),
    Message('note_on', channel=5, note=52, velocity=37, time=2420),
    Message('note_on', channel=5, note=64, velocity=40, time=484),
    Message('note_on', channel=5, note=59, velocity=36, time=240),
    Message('note_on', channel=5, note=55, velocity=33, time=244),
    Message('note_off', channel=5, note=52, velocity=64, time=160),
    Message('note_on', channel=5, note=52, velocity=39, time=72),
    Message('note_off', channel=5, note=64, velocity=64, time=220),
    Message('note_off', channel=5, note=59, velocity=64, time=0),
    Message('note_off', channel=5, note=55, velocity=64, time=0),
    Message('note_off', channel=5, note=52, velocity=64, time=0),
    Message('note_on', channel=5, note=64, velocity=40, time=1480),
    Message('note_on', channel=5, note=59, velocity=36, time=120),
    Message('note_on', channel=5, note=55, velocity=33, time=104),
    Message('note_on', channel=5, note=52, velocity=39, time=108),
    Message('note_on', channel=5, note=40, velocity=29, time=132),
    Message('note_off', channel=5, note=55, velocity=64, time=904),
    Message('note_off', channel=5, note=59, velocity=64, time=0),
    Message('note_off', channel=5, note=52, velocity=64, time=8),
    Message('note_off', channel=5, note=64, velocity=64, time=24),
    Message('note_off', channel=5, note=40, velocity=64, time=0),
    Message('note_on', channel=5, note=43, velocity=29, time=20),
    Message('note_on', channel=5, note=59, velocity=39, time=8),
    Message('note_on', channel=5, note=67, velocity=33, time=4),
    Message('note_on', channel=5, note=71, velocity=40, time=8),
    Message('note_off', channel=5, note=71, velocity=64, time=440),
    Message('note_off', channel=5, note=67, velocity=64, time=0),
    Message('note_off', channel=5, note=59, velocity=64, time=0),
    Message('note_off', channel=5, note=43, velocity=64, time=0),
    Message('note_on', channel=5, note=40, velocity=23, time=980),
    Message('note_on', channel=5, note=52, velocity=39, time=68),
    Message('note_on', channel=5, note=55, velocity=33, time=64),
    Message('note_on', channel=5, note=59, velocity=36, time=120),
    Message('note_on', channel=5, note=64, velocity=40, time=84),
    Message('note_off', channel=5, note=59, velocity=64, time=2456),
    Message('note_off', channel=5, note=55, velocity=64, time=0),
    Message('note_off', channel=5, note=40, velocity=64, time=56),
    Message('note_off', channel=5, note=52, velocity=64, time=12),
    Message('note_off', channel=5, note=64, velocity=64, time=0),
    Message('note_on', channel=5, note=40, velocity=23, time=20),
    Message('note_on', channel=5, note=52, velocity=39, time=68),
    Message('note_on', channel=5, note=55, velocity=33, time=64),
    Message('note_on', channel=5, note=59, velocity=36, time=120),
    Message('note_on', channel=5, note=64, velocity=40, time=84),
    Message('note_off', channel=5, note=59, velocity=64, time=2456),
    Message('note_off', channel=5, note=55, velocity=64, time=0),
    Message('note_off', channel=5, note=40, velocity=64, time=56),
    Message('note_off', channel=5, note=52, velocity=64, time=12),
    Message('note_off', channel=5, note=64, velocity=64, time=0),
    Message('note_on', channel=5, note=40, velocity=23, time=20),
    Message('note_on', channel=5, note=52, velocity=39, time=68),
    Message('note_on', channel=5, note=55, velocity=33, time=64),
    Message('note_on', channel=5, note=59, velocity=36, time=120),
    Message('note_on', channel=5, note=64, velocity=40, time=84),
    Message('note_off', channel=5, note=64, velocity=64, time=1084),
    Message('note_off', channel=5, note=59, velocity=64, time=0),
    Message('note_off', channel=5, note=55, velocity=64, time=0),
    Message('note_off', channel=5, note=52, velocity=64, time=0),
    Message('note_off', channel=5, note=40, velocity=64, time=0),
    Message('note_on', channel=5, note=43, velocity=29, time=1460),
    Message('note_on', channel=5, note=59, velocity=39, time=8),
    Message('note_on', channel=5, note=67, velocity=33, time=4),
    Message('note_on', channel=5, note=71, velocity=40, time=8),
    Message('note_off', channel=5, note=71, velocity=64, time=440),
    Message('note_off', channel=5, note=67, velocity=64, time=0),
    Message('note_off', channel=5, note=59, velocity=64, time=0),
    Message('note_off', channel=5, note=43, velocity=64, time=0),
    Message('note_on', channel=5, note=66, velocity=40, time=2440),
    Message('note_on', channel=5, note=62, velocity=36, time=120),
    Message('note_on', channel=5, note=57, velocity=33, time=104),
    Message('note_on', channel=5, note=50, velocity=39, time=108),
    Message('note_off', channel=5, note=50, velocity=64, time=124),
    Message('note_on', channel=5, note=50, velocity=37, time=8),
    Message('note_off', channel=5, note=57, velocity=64, time=904),
    Message('note_off', channel=5, note=62, velocity=64, time=0),
    Message('note_off', channel=5, note=66, velocity=64, time=32),
    Message('note_off', channel=5, note=50, velocity=64, time=0),
    Message('note_on', channel=5, note=50, velocity=37, time=1460),
    Message('note_on', channel=5, note=66, velocity=40, time=484),
    Message('note_on', channel=5, note=62, velocity=36, time=240),
    Message('note_off', channel=5, note=62, velocity=64, time=216),
    Message('note_off', channel=5, note=66, velocity=64, time=0),
    Message('note_off', channel=5, note=50, velocity=64, time=0),
    Message('note_on', channel=5, note=50, velocity=29, time=500),
    Message('note_on', channel=5, note=57, velocity=39, time=8),
    Message('note_on', channel=5, note=66, velocity=33, time=4),
    Message('note_on', channel=5, note=69, velocity=40, time=8),
    Message('note_off', channel=5, note=69, velocity=64, time=440),
    Message('note_off', channel=5, note=66, velocity=64, time=0),
    Message('note_off', channel=5, note=57, velocity=64, time=0),
    Message('note_off', channel=5, note=50, velocity=64, time=0),
    Message('note_on', channel=5, note=40, velocity=23, time=980),
    Message('note_on', channel=5, note=52, velocity=39, time=68),
    Message('note_on', channel=5, note=55, velocity=33, time=64),
    Message('note_on', channel=5, note=59, velocity=36, time=120),
    Message('note_on', channel=5, note=64, velocity=40, time=84),
    Message('note_off', channel=5, note=59, velocity=64, time=2456),
    Message('note_off', channel=5, note=55, velocity=64, time=0),
    Message('note_off', channel=5, note=40, velocity=64, time=56),
    Message('note_off', channel=5, note=52, velocity=64, time=12),
    Message('note_off', channel=5, note=64, velocity=64, time=0),
    Message('note_on', channel=5, note=52, velocity=37, time=20),
    Message('note_on', channel=5, note=64, velocity=40, time=484),
    Message('note_on', channel=5, note=59, velocity=36, time=240),
    Message('note_on', channel=5, note=55, velocity=33, time=244),
    Message('note_off', channel=5, note=52, velocity=64, time=160),
    Message('note_on', channel=5, note=52, velocity=39, time=72),
    Message('note_off', channel=5, note=64, velocity=64, time=1060),
    Message('note_off', channel=5, note=59, velocity=64, time=316),
    Message('note_off', channel=5, note=55, velocity=64, time=60),
    Message('note_off', channel=5, note=52, velocity=64, time=212),
    Message('note_on', channel=5, note=40, velocity=23, time=32),
    Message('note_on', channel=5, note=52, velocity=39, time=68),
    Message('note_on', channel=5, note=55, velocity=33, time=64),
    Message('note_on', channel=5, note=59, velocity=36, time=120),
    Message('note_on', channel=5, note=64, velocity=40, time=84),
    Message('note_off', channel=5, note=59, velocity=64, time=2456),
    Message('note_off', channel=5, note=55, velocity=64, time=0),
    Message('note_off', channel=5, note=40, velocity=64, time=56),
    Message('note_off', channel=5, note=52, velocity=64, time=12),
    Message('note_off', channel=5, note=64, velocity=64, time=0),
    Message('note_on', channel=5, note=50, velocity=29, time=20),
    Message('note_on', channel=5, note=57, velocity=39, time=8),
    Message('note_on', channel=5, note=66, velocity=33, time=4),
    Message('note_on', channel=5, note=69, velocity=40, time=8),
    Message('note_off', channel=5, note=69, velocity=64, time=440),
    Message('note_off', channel=5, note=66, velocity=64, time=0),
    Message('note_off', channel=5, note=57, velocity=64, time=0),
    Message('note_off', channel=5, note=50, velocity=64, time=0),
    Message('note_on', channel=5, note=64, velocity=40, time=2440),
    Message('note_on', channel=5, note=59, velocity=36, time=120),
    Message('note_on', channel=5, note=55, velocity=33, time=104),
    Message('note_on', channel=5, note=52, velocity=39, time=108),
    Message('note_on', channel=5, note=40, velocity=29, time=132),
    Message('note_off', channel=5, note=55, velocity=64, time=904),
    Message('note_off', channel=5, note=59, velocity=64, time=0),
    Message('note_off', channel=5, note=52, velocity=64, time=8),
    Message('note_off', channel=5, note=64, velocity=64, time=24),
    Message('note_off', channel=5, note=40, velocity=64, time=0),
    Message('note_on', channel=5, note=64, velocity=40, time=1480),
    Message('note_on', channel=5, note=59, velocity=36, time=120),
    Message('note_on', channel=5, note=55, velocity=33, time=104),
    Message('note_on', channel=5, note=52, velocity=39, time=108),
    Message('note_on', channel=5, note=40, velocity=29, time=132),
    Message('note_off', channel=5, note=55, velocity=64, time=904),
    Message('note_off', channel=5, note=59, velocity=64, time=0),
    Message('note_off', channel=5, note=52, velocity=64, time=8),
    Message('note_off', channel=5, note=64, velocity=64, time=24),
    Message('note_off', channel=5, note=40, velocity=64, time=0),
    Message('note_on', channel=5, note=43, velocity=29, time=20),
    Message('note_on', channel=5, note=59, velocity=39, time=8),
    Message('note_on', channel=5, note=67, velocity=33, time=4),
    Message('note_on', channel=5, note=71, velocity=40, time=8),
    Message('note_off', channel=5, note=71, velocity=64, time=440),
    Message('note_off', channel=5, note=67, velocity=64, time=0),
    Message('note_off', channel=5, note=59, velocity=64, time=0),
    Message('note_off', channel=5, note=43, velocity=64, time=0),
    Message('note_on', channel=5, note=52, velocity=37, time=980),
    Message('note_on', channel=5, note=64, velocity=40, time=484),
    Message('note_on', channel=5, note=59, velocity=36, time=240),
    Message('note_on', channel=5, note=55, velocity=33, time=244),
    Message('note_off', channel=5, note=52, velocity=64, time=160),
    Message('note_on', channel=5, note=52, velocity=39, time=72),
    Message('note_off', channel=5, note=64, velocity=64, time=1060),
    Message('note_off', channel=5, note=59, velocity=64, time=316),
    Message('note_off', channel=5, note=55, velocity=64, time=60),
    Message('note_off', channel=5, note=52, velocity=64, time=212),
    Message('note_on', channel=5, note=52, velocity=37, time=32),
    Message('note_on', channel=5, note=64, velocity=40, time=484),
    Message('note_on', channel=5, note=59, velocity=36, time=240),
    Message('note_on', channel=5, note=55, velocity=33, time=244),
    Message('note_off', channel=5, note=52, velocity=64, time=160),
    Message('note_on', channel=5, note=52, velocity=39, time=72),
    Message('note_off', channel=5, note=64, velocity=64, time=1060),
    Message('note_off', channel=5, note=59, velocity=64, time=316),
    Message('note_off', channel=5, note=55, velocity=64, time=60),
    Message('note_off', channel=5, note=52, velocity=64, time=212),
    Message('note_on', channel=5, note=64, velocity=40, time=52),
    Message('note_on', channel=5, note=59, velocity=36, time=120),
    Message('note_on', channel=5, note=55, velocity=33, time=104),
    Message('note_on', channel=5, note=52, velocity=39, time=108),
    Message('note_on', channel=5, note=40, velocity=29, time=132),
    Message('note_off', channel=5, note=55, velocity=64, time=904),
    Message('note_off', channel=5, note=59, velocity=64, time=0),
    Message('note_off', channel=5, note=52, velocity=64, time=8),
    Message('note_off', channel=5, note=64, velocity=64, time=24),
    Message('note_off', channel=5, note=40, velocity=64, time=0),
    Message('note_on', channel=5, note=43, velocity=29, time=1460),
    Message('note_on', channel=5, note=59, velocity=39, time=8),
    Message('note_on', channel=5, note=67, velocity=33, time=4),
    Message('note_on', channel=5, note=71, velocity=40, time=8),
    Message('note_off', channel=5, note=71, velocity=64, time=440),
    Message('note_off', channel=5, note=67, velocity=64, time=0),
    Message('note_off', channel=5, note=59, velocity=64, time=0),
    Message('note_off', channel=5, note=43, velocity=64, time=0),
    Message('note_on', channel=5, note=66, velocity=40, time=2440),
    Message('note_on', channel=5, note=62, velocity=36, time=120),
    Message('note_on', channel=5, note=57, velocity=33, time=104),
    Message('note_on', channel=5, note=50, velocity=39, time=108),
    Message('note_off', channel=5, note=50, velocity=64, time=124),
    Message('note_on', channel=5, note=50, velocity=37, time=8),
    Message('note_off', channel=5, note=57, velocity=64, time=904),
    Message('note_off', channel=5, note=62, velocity=64, time=0),
    Message('note_off', channel=5, note=66, velocity=64, time=32),
    Message('note_off', channel=5, note=50, velocity=64, time=0),
    Message('note_on', channel=5, note=50, velocity=29, time=1460),
    Message('note_off', channel=5, note=50, velocity=64, time=60),
    Message('note_on', channel=5, note=50, velocity=39, time=8),
    Message('note_on', channel=5, note=57, velocity=33, time=64),
    Message('note_on', channel=5, note=62, velocity=36, time=120),
    Message('note_on', channel=5, note=66, velocity=40, time=84),
    Message('note_off', channel=5, note=66, velocity=64, time=604),
    Message('note_off', channel=5, note=62, velocity=64, time=0),
    Message('note_off', channel=5, note=57, velocity=64, time=0),
    Message('note_off', channel=5, note=50, velocity=64, time=0),
    Message('note_on', channel=5, note=50, velocity=29, time=500),
    Message('note_on', channel=5, note=57, velocity=39, time=8),
    Message('note_on', channel=5, note=66, velocity=33, time=4),
    Message('note_on', channel=5, note=69, velocity=40, time=8),
    Message('note_off', channel=5, note=69, velocity=64, time=440),
    Message('note_off', channel=5, note=66, velocity=64, time=0),
    Message('note_off', channel=5, note=57, velocity=64, time=0),
    Message('note_off', channel=5, note=50, velocity=64, time=0),
    Message('note_on', channel=5, note=52, velocity=37, time=980),
    Message('note_on', channel=5, note=64, velocity=40, time=484),
    Message('note_on', channel=5, note=59, velocity=36, time=240),
    Message('note_on', channel=5, note=55, velocity=33, time=244),
    Message('note_off', channel=5, note=52, velocity=64, time=160),
    Message('note_on', channel=5, note=52, velocity=39, time=72),
    Message('note_off', channel=5, note=64, velocity=64, time=1060),
    Message('note_off', channel=5, note=59, velocity=64, time=316),
    Message('note_off', channel=5, note=55, velocity=64, time=60),
    Message('note_off', channel=5, note=52, velocity=64, time=212),
    Message('note_on', channel=5, note=40, velocity=23, time=32),
    Message('note_on', channel=5, note=52, velocity=39, time=68),
    Message('note_on', channel=5, note=55, velocity=33, time=64),
    Message('note_on', channel=5, note=59, velocity=36, time=120),
    Message('note_on', channel=5, note=64, velocity=40, time=84),
    Message('note_off', channel=5, note=59, velocity=64, time=2456),
    Message('note_off', channel=5, note=55, velocity=64, time=0),
    Message('note_off', channel=5, note=40, velocity=64, time=56),
    Message('note_off', channel=5, note=52, velocity=64, time=12),
    Message('note_off', channel=5, note=64, velocity=64, time=0),
    Message('note_on', channel=5, note=64, velocity=45, time=36),
    Message('note_off', channel=5, note=64, velocity=64, time=1436),
    Message('note_on', channel=5, note=64, velocity=36, time=8),
    Message('note_off', channel=5, note=64, velocity=64, time=944),
    Message('note_on', channel=5, note=55, velocity=13, time=0),
    Message('note_off', channel=5, note=55, velocity=64, time=456),
    Message('note_on', channel=5, note=62, velocity=25, time=32),
    Message('note_off', channel=5, note=62, velocity=64, time=1408),
    Message('note_on', channel=5, note=59, velocity=25, time=1472),
    Message('note_off', channel=5, note=59, velocity=64, time=1408),
    Message('note_on', channel=5, note=64, velocity=45, time=1476),
    Message('note_off', channel=5, note=64, velocity=64, time=1404),
    Message('note_on', channel=5, note=64, velocity=25, time=1472),
    Message('note_off', channel=5, note=64, velocity=64, time=2848),
    Message('note_on', channel=5, note=64, velocity=25, time=32),
    Message('note_off', channel=5, note=64, velocity=64, time=2848),
    Message('note_on', channel=5, note=64, velocity=45, time=36),
    Message('note_off', channel=5, note=64, velocity=64, time=1404),
    Message('note_on', channel=5, note=62, velocity=25, time=4352),
    Message('note_off', channel=5, note=62, velocity=64, time=1408),
    Message('note_on', channel=5, note=66, velocity=45, time=1476),
    Message('note_off', channel=5, note=66, velocity=64, time=924),
    Message('note_on', channel=5, note=64, velocity=45, time=1956),
    Message('note_off', channel=5, note=64, velocity=64, time=1436),
    Message('note_on', channel=5, note=64, velocity=36, time=8),
    Message('note_off', channel=5, note=64, velocity=64, time=944),
    Message('note_on', channel=5, note=55, velocity=13, time=0),
    Message('note_off', channel=5, note=55, velocity=64, time=456),
    Message('note_on', channel=5, note=64, velocity=45, time=36),
    Message('note_off', channel=5, note=64, velocity=64, time=924),
    Message('control_change', channel=5, control=64, value=0, time=1940),
    MetaMessage('end_of_track', time=0)]),
  MidiTrack([
    MetaMessage('track_name', name='Bass    ', time=0),
    MetaMessage('midi_port', port=0, time=0),
    MetaMessage('channel_prefix', channel=6, time=0),
    Message('control_change', channel=6, control=7, value=114, time=0),
    Message('control_change', channel=6, control=10, value=0, time=0),
    Message('control_change', channel=6, control=32, value=0, time=0),
    Message('control_change', channel=6, control=91, value=99, time=0),
    Message('program_change', channel=6, program=33, time=0),
    Message('control_change', channel=6, control=123, value=0, time=0),
    Message('control_change', channel=6, control=64, value=0, time=0),
    Message('note_on', channel=6, note=40, velocity=80, time=7200),
    Message('note_off', channel=6, note=40, velocity=64, time=1200),
    Message('note_on', channel=6, note=40, velocity=80, time=0),
    Message('note_off', channel=6, note=40, velocity=64, time=244),
    Message('note_on', channel=6, note=35, velocity=80, time=0),
    Message('note_off', channel=6, note=35, velocity=64, time=1200),
    Message('note_on', channel=6, note=35, velocity=80, time=0),
    Message('note_off', channel=6, note=35, velocity=64, time=212),
    Message('note_on', channel=6, note=38, velocity=80, time=24),
    Message('note_off', channel=6, note=38, velocity=64, time=1396),
    Message('note_on', channel=6, note=40, velocity=80, time=44),
    Message('note_off', channel=6, note=40, velocity=64, time=1200),
    Message('note_on', channel=6, note=35, velocity=80, time=0),
    Message('note_off', channel=6, note=35, velocity=64, time=220),
    Message('note_on', channel=6, note=28, velocity=80, time=20),
    Message('note_off', channel=6, note=28, velocity=64, time=1200),
    Message('note_on', channel=6, note=28, velocity=80, time=0),
    Message('note_off', channel=6, note=28, velocity=64, time=220),
    Message('note_on', channel=6, note=31, velocity=80, time=20),
    Message('note_off', channel=6, note=31, velocity=64, time=1200),
    Message('note_on', channel=6, note=31, velocity=80, time=0),
    Message('note_off', channel=6, note=31, velocity=64, time=220),
    Message('note_on', channel=6, note=28, velocity=80, time=20),
    Message('note_off', channel=6, note=28, velocity=64, time=1200),
    Message('note_on', channel=6, note=28, velocity=80, time=0),
    Message('note_off', channel=6, note=28, velocity=64, time=220),
    Message('note_on', channel=6, note=31, velocity=80, time=20),
    Message('note_off', channel=6, note=31, velocity=64, time=460),
    Message('note_on', channel=6, note=33, velocity=80, time=20),
    Message('note_off', channel=6, note=33, velocity=64, time=460),
    Message('note_on', channel=6, note=33, velocity=80, time=20),
    Message('note_off', channel=6, note=33, velocity=64, time=460),
    Message('note_on', channel=6, note=40, velocity=80, time=20),
    Message('note_off', channel=6, note=40, velocity=64, time=1412),
    Message('note_on', channel=6, note=35, velocity=80, time=32),
    Message('note_off', channel=6, note=35, velocity=64, time=1200),
    Message('note_on', channel=6, note=35, velocity=80, time=0),
    Message('note_off', channel=6, note=35, velocity=64, time=212),
    Message('note_on', channel=6, note=40, velocity=80, time=24),
    Message('note_off', channel=6, note=40, velocity=64, time=1412),
    Message('note_on', channel=6, note=35, velocity=80, time=32),
    Message('note_off', channel=6, note=35, velocity=64, time=1200),
    Message('note_on', channel=6, note=35, velocity=80, time=0),
    Message('note_off', channel=6, note=35, velocity=64, time=212),
    Message('note_on', channel=6, note=28, velocity=80, time=24),
    Message('note_off', channel=6, note=28, velocity=64, time=1200),
    Message('note_on', channel=6, note=28, velocity=80, time=0),
    Message('note_off', channel=6, note=28, velocity=64, time=220),
    Message('note_on', channel=6, note=43, velocity=80, time=20),
    Message('note_off', channel=6, note=43, velocity=64, time=1200),
    Message('note_on', channel=6, note=38, velocity=80, time=0),
    Message('note_off', channel=6, note=38, velocity=64, time=220),
    Message('note_on', channel=6, note=31, velocity=80, time=20),
    Message('note_off', channel=6, note=31, velocity=64, time=460),
    Message('note_on', channel=6, note=30, velocity=80, time=20),
    Message('note_off', channel=6, note=30, velocity=64, time=460),
    Message('note_on', channel=6, note=28, velocity=80, time=20),
    Message('note_off', channel=6, note=28, velocity=64, time=460),
    Message('note_on', channel=6, note=38, velocity=80, time=20),
    Message('note_off', channel=6, note=38, velocity=64, time=1200),
    Message('note_on', channel=6, note=33, velocity=80, time=0),
    Message('note_off', channel=6, note=33, velocity=64, time=220),
    Message('note_on', channel=6, note=38, velocity=80, time=20),
    Message('note_off', channel=6, note=38, velocity=64, time=1396),
    Message('note_on', channel=6, note=28, velocity=80, time=44),
    Message('note_off', channel=6, note=28, velocity=64, time=1200),
    Message('note_on', channel=6, note=28, velocity=80, time=0),
    Message('note_off', channel=6, note=28, velocity=64, time=220),
    Message('note_on', channel=6, note=38, velocity=80, time=20),
    Message('note_off', channel=6, note=38, velocity=64, time=940),
    Message('note_on', channel=6, note=28, velocity=80, time=20),
    Message('note_off', channel=6, note=28, velocity=64, time=460),
    Message('note_on', channel=6, note=38, velocity=80, time=20),
    Message('note_off', channel=6, note=38, velocity=64, time=460),
    Message('note_on', channel=6, note=28, velocity=80, time=20),
    Message('note_off', channel=6, note=28, velocity=64, time=460),
    Message('note_on', channel=6, note=38, velocity=80, time=20),
    Message('note_off', channel=6, note=38, velocity=64, time=460),
    Message('note_on', channel=6, note=40, velocity=80, time=20),
    Message('note_off', channel=6, note=40, velocity=64, time=1412),
    Message('note_on', channel=6, note=35, velocity=80, time=32),
    Message('note_off', channel=6, note=35, velocity=64, time=1200),
    Message('note_on', channel=6, note=35, velocity=80, time=0),
    Message('note_off', channel=6, note=35, velocity=64, time=212),
    Message('note_on', channel=6, note=28, velocity=80, time=24),
    Message('note_off', channel=6, note=28, velocity=64, time=1408),
    Message('note_on', channel=6, note=35, velocity=80, time=36),
    Message('note_off', channel=6, note=35, velocity=64, time=956),
    Message('note_on', channel=6, note=35, velocity=80, time=0),
    Message('note_off', channel=6, note=35, velocity=64, time=460),
    Message('note_on', channel=6, note=40, velocity=80, time=20),
    Message('note_off', channel=6, note=40, velocity=64, time=1408),
    Message('note_on', channel=6, note=35, velocity=80, time=36),
    Message('note_off', channel=6, note=35, velocity=64, time=1200),
    Message('note_on', channel=6, note=35, velocity=80, time=0),
    Message('note_off', channel=6, note=35, velocity=64, time=212),
    Message('note_on', channel=6, note=38, velocity=80, time=24),
    Message('note_off', channel=6, note=38, velocity=64, time=460),
    Message('note_on', channel=6, note=28, velocity=80, time=20),
    Message('note_off', channel=6, note=28, velocity=64, time=460),
    Message('note_on', channel=6, note=38, velocity=80, time=20),
    Message('note_off', channel=6, note=38, velocity=64, time=460),
    Message('note_on', channel=6, note=40, velocity=80, time=20),
    Message('note_off', channel=6, note=40, velocity=64, time=1200),
    Message('note_on', channel=6, note=35, velocity=80, time=0),
    Message('note_off', channel=6, note=35, velocity=64, time=220),
    Message('note_on', channel=6, note=28, velocity=80, time=20),
    Message('note_off', channel=6, note=28, velocity=64, time=1396),
    Message('note_on', channel=6, note=43, velocity=80, time=44),
    Message('note_off', channel=6, note=43, velocity=64, time=956),
    Message('note_on', channel=6, note=38, velocity=66, time=0),
    Message('note_off', channel=6, note=38, velocity=64, time=464),
    Message('note_on', channel=6, note=28, velocity=80, time=20),
    Message('note_off', channel=6, note=28, velocity=64, time=1396),
    Message('note_on', channel=6, note=31, velocity=80, time=44),
    Message('note_off', channel=6, note=31, velocity=64, time=460),
    Message('note_on', channel=6, note=33, velocity=80, time=20),
    Message('note_off', channel=6, note=33, velocity=64, time=460),
    Message('note_on', channel=6, note=33, velocity=80, time=20),
    Message('note_off', channel=6, note=33, velocity=64, time=460),
    Message('note_on', channel=6, note=40, velocity=80, time=20),
    Message('note_off', channel=6, note=40, velocity=64, time=1412),
    Message('note_on', channel=6, note=35, velocity=80, time=32),
    Message('note_off', channel=6, note=35, velocity=64, time=1200),
    Message('note_on', channel=6, note=35, velocity=80, time=0),
    Message('note_off', channel=6, note=35, velocity=64, time=212),
    Message('note_on', channel=6, note=28, velocity=80, time=24),
    Message('note_off', channel=6, note=28, velocity=64, time=1408),
    Message('note_on', channel=6, note=35, velocity=80, time=36),
    Message('note_off', channel=6, note=35, velocity=64, time=956),
    Message('note_on', channel=6, note=35, velocity=80, time=0),
    Message('note_off', channel=6, note=35, velocity=64, time=460),
    Message('note_on', channel=6, note=28, velocity=80, time=20),
    Message('note_off', channel=6, note=28, velocity=64, time=1396),
    Message('note_on', channel=6, note=43, velocity=80, time=44),
    Message('note_off', channel=6, note=43, velocity=64, time=1200),
    Message('note_on', channel=6, note=38, velocity=80, time=0),
    Message('note_off', channel=6, note=38, velocity=64, time=220),
    Message('note_on', channel=6, note=31, velocity=80, time=20),
    Message('note_off', channel=6, note=31, velocity=64, time=460),
    Message('note_on', channel=6, note=30, velocity=80, time=20),
    Message('note_off', channel=6, note=30, velocity=64, time=460),
    Message('note_on', channel=6, note=28, velocity=80, time=20),
    Message('note_off', channel=6, note=28, velocity=64, time=460),
    Message('note_on', channel=6, note=38, velocity=80, time=20),
    Message('note_off', channel=6, note=38, velocity=64, time=1200),
    Message('note_on', channel=6, note=33, velocity=80, time=0),
    Message('note_off', channel=6, note=33, velocity=64, time=220),
    Message('note_on', channel=6, note=38, velocity=80, time=20),
    Message('note_off', channel=6, note=38, velocity=64, time=1396),
    Message('note_on', channel=6, note=28, velocity=80, time=44),
    Message('note_off', channel=6, note=28, velocity=64, time=1200),
    Message('note_on', channel=6, note=28, velocity=80, time=0),
    Message('note_off', channel=6, note=28, velocity=64, time=220),
    Message('note_on', channel=6, note=38, velocity=80, time=20),
    Message('note_off', channel=6, note=38, velocity=64, time=940),
    Message('note_on', channel=6, note=28, velocity=80, time=20),
    Message('note_off', channel=6, note=28, velocity=64, time=460),
    Message('note_on', channel=6, note=38, velocity=80, time=20),
    Message('note_off', channel=6, note=38, velocity=64, time=460),
    Message('note_on', channel=6, note=28, velocity=80, time=20),
    Message('note_off', channel=6, note=28, velocity=64, time=460),
    Message('note_on', channel=6, note=38, velocity=80, time=20),
    Message('note_off', channel=6, note=38, velocity=64, time=460),
    Message('note_on', channel=6, note=28, velocity=80, time=20),
    Message('note_off', channel=6, note=28, velocity=64, time=1408),
    Message('note_on', channel=6, note=35, velocity=80, time=36),
    Message('note_off', channel=6, note=35, velocity=64, time=956),
    Message('note_on', channel=6, note=35, velocity=80, time=0),
    Message('note_off', channel=6, note=35, velocity=64, time=460),
    Message('note_on', channel=6, note=40, velocity=80, time=20),
    Message('note_off', channel=6, note=40, velocity=64, time=1412),
    Message('note_on', channel=6, note=35, velocity=80, time=32),
    Message('note_off', channel=6, note=35, velocity=64, time=1200),
    Message('note_on', channel=6, note=35, velocity=80, time=0),
    Message('note_off', channel=6, note=35, velocity=64, time=212),
    Message('note_on', channel=6, note=40, velocity=80, time=24),
    Message('note_off', channel=6, note=40, velocity=64, time=1396),
    Message('note_on', channel=6, note=35, velocity=80, time=48),
    Message('note_off', channel=6, note=35, velocity=64, time=1200),
    Message('note_on', channel=6, note=35, velocity=80, time=0),
    Message('note_off', channel=6, note=35, velocity=64, time=212),
    Message('note_on', channel=6, note=38, velocity=80, time=24),
    Message('note_off', channel=6, note=38, velocity=64, time=460),
    Message('note_on', channel=6, note=28, velocity=80, time=20),
    Message('note_off', channel=6, note=28, velocity=64, time=460),
    Message('note_on', channel=6, note=38, velocity=80, time=20),
    Message('note_off', channel=6, note=38, velocity=64, time=460),
    Message('note_on', channel=6, note=40, velocity=80, time=20),
    Message('note_off', channel=6, note=40, velocity=64, time=1200),
    Message('note_on', channel=6, note=35, velocity=80, time=0),
    Message('note_off', channel=6, note=35, velocity=64, time=220),
    Message('note_on', channel=6, note=28, velocity=80, time=20),
    Message('note_off', channel=6, note=28, velocity=64, time=1200),
    Message('note_on', channel=6, note=28, velocity=80, time=0),
    Message('note_off', channel=6, note=28, velocity=64, time=220),
    Message('note_on', channel=6, note=31, velocity=80, time=20),
    Message('note_off', channel=6, note=31, velocity=64, time=1200),
    Message('note_on', channel=6, note=31, velocity=80, time=0),
    Message('note_off', channel=6, note=31, velocity=64, time=220),
    Message('note_on', channel=6, note=28, velocity=80, time=20),
    Message('note_off', channel=6, note=28, velocity=64, time=1396),
    Message('note_on', channel=6, note=31, velocity=80, time=44),
    Message('note_off', channel=6, note=31, velocity=64, time=460),
    Message('note_on', channel=6, note=33, velocity=80, time=20),
    Message('note_off', channel=6, note=33, velocity=64, time=460),
    Message('note_on', channel=6, note=33, velocity=80, time=20),
    Message('note_off', channel=6, note=33, velocity=64, time=460),
    Message('note_on', channel=6, note=40, velocity=80, time=20),
    Message('note_off', channel=6, note=40, velocity=64, time=1412),
    Message('note_on', channel=6, note=35, velocity=80, time=32),
    Message('note_off', channel=6, note=35, velocity=64, time=1200),
    Message('note_on', channel=6, note=35, velocity=80, time=0),
    Message('note_off', channel=6, note=35, velocity=64, time=212),
    Message('note_on', channel=6, note=40, velocity=80, time=24),
    Message('note_off', channel=6, note=40, velocity=64, time=1412),
    Message('note_on', channel=6, note=35, velocity=80, time=32),
    Message('note_off', channel=6, note=35, velocity=64, time=1200),
    Message('note_on', channel=6, note=35, velocity=80, time=0),
    Message('note_off', channel=6, note=35, velocity=64, time=212),
    Message('note_on', channel=6, note=28, velocity=80, time=24),
    Message('note_off', channel=6, note=28, velocity=64, time=1200),
    Message('note_on', channel=6, note=28, velocity=80, time=0),
    Message('note_off', channel=6, note=28, velocity=64, time=220),
    Message('note_on', channel=6, note=43, velocity=80, time=20),
    Message('note_off', channel=6, note=43, velocity=64, time=1200),
    Message('note_on', channel=6, note=38, velocity=80, time=0),
    Message('note_off', channel=6, note=38, velocity=64, time=220),
    Message('note_on', channel=6, note=31, velocity=80, time=20),
    Message('note_off', channel=6, note=31, velocity=64, time=460),
    Message('note_on', channel=6, note=30, velocity=80, time=20),
    Message('note_off', channel=6, note=30, velocity=64, time=460),
    Message('note_on', channel=6, note=28, velocity=80, time=20),
    Message('note_off', channel=6, note=28, velocity=64, time=460),
    Message('note_on', channel=6, note=38, velocity=80, time=20),
    Message('note_off', channel=6, note=38, velocity=64, time=1200),
    Message('note_on', channel=6, note=33, velocity=80, time=0),
    Message('note_off', channel=6, note=33, velocity=64, time=220),
    Message('note_on', channel=6, note=38, velocity=80, time=20),
    Message('note_off', channel=6, note=38, velocity=64, time=1200),
    Message('note_on', channel=6, note=38, velocity=80, time=0),
    Message('note_off', channel=6, note=38, velocity=64, time=220),
    Message('note_on', channel=6, note=28, velocity=80, time=20),
    Message('note_off', channel=6, note=28, velocity=64, time=1200),
    Message('note_on', channel=6, note=28, velocity=80, time=0),
    Message('note_off', channel=6, note=28, velocity=64, time=220),
    Message('note_on', channel=6, note=38, velocity=80, time=20),
    Message('note_off', channel=6, note=38, velocity=64, time=940),
    Message('note_on', channel=6, note=28, velocity=80, time=20),
    Message('note_off', channel=6, note=28, velocity=64, time=460),
    Message('note_on', channel=6, note=38, velocity=80, time=20),
    Message('note_off', channel=6, note=38, velocity=64, time=460),
    Message('note_on', channel=6, note=28, velocity=80, time=20),
    Message('note_off', channel=6, note=28, velocity=64, time=460),
    Message('note_on', channel=6, note=38, velocity=80, time=20),
    Message('note_off', channel=6, note=38, velocity=64, time=460),
    Message('note_on', channel=6, note=40, velocity=80, time=20),
    Message('note_off', channel=6, note=40, velocity=64, time=1412),
    Message('note_on', channel=6, note=35, velocity=80, time=32),
    Message('note_off', channel=6, note=35, velocity=64, time=1200),
    Message('note_on', channel=6, note=35, velocity=80, time=0),
    Message('note_off', channel=6, note=35, velocity=64, time=212),
    Message('note_on', channel=6, note=40, velocity=80, time=24),
    Message('note_off', channel=6, note=40, velocity=64, time=1412),
    Message('note_on', channel=6, note=35, velocity=80, time=32),
    Message('note_off', channel=6, note=35, velocity=64, time=1200),
    Message('note_on', channel=6, note=35, velocity=80, time=0),
    Message('note_off', channel=6, note=35, velocity=64, time=212),
    Message('note_on', channel=6, note=40, velocity=80, time=24),
    Message('note_off', channel=6, note=40, velocity=64, time=1408),
    Message('note_on', channel=6, note=35, velocity=80, time=36),
    Message('note_off', channel=6, note=35, velocity=64, time=1200),
    Message('note_on', channel=6, note=35, velocity=80, time=0),
    Message('note_off', channel=6, note=35, velocity=64, time=212),
    Message('note_on', channel=6, note=38, velocity=80, time=24),
    Message('note_off', channel=6, note=38, velocity=64, time=460),
    Message('note_on', channel=6, note=28, velocity=80, time=20),
    Message('note_off', channel=6, note=28, velocity=64, time=460),
    Message('note_on', channel=6, note=38, velocity=80, time=20),
    Message('note_off', channel=6, note=38, velocity=64, time=460),
    Message('note_on', channel=6, note=40, velocity=80, time=20),
    Message('note_off', channel=6, note=40, velocity=64, time=1200),
    Message('note_on', channel=6, note=35, velocity=80, time=0),
    Message('note_off', channel=6, note=35, velocity=64, time=220),
    Message('note_on', channel=6, note=28, velocity=80, time=20),
    Message('note_off', channel=6, note=28, velocity=64, time=1200),
    Message('note_on', channel=6, note=28, velocity=80, time=0),
    Message('note_off', channel=6, note=28, velocity=64, time=220),
    Message('note_on', channel=6, note=43, velocity=80, time=20),
    Message('note_off', channel=6, note=43, velocity=64, time=956),
    Message('note_on', channel=6, note=38, velocity=66, time=0),
    Message('note_off', channel=6, note=38, velocity=64, time=464),
    Message('note_on', channel=6, note=28, velocity=80, time=20),
    Message('note_off', channel=6, note=28, velocity=64, time=1200),
    Message('note_on', channel=6, note=28, velocity=80, time=0),
    Message('note_off', channel=6, note=28, velocity=64, time=220),
    Message('note_on', channel=6, note=31, velocity=80, time=20),
    Message('note_off', channel=6, note=31, velocity=64, time=460),
    Message('note_on', channel=6, note=33, velocity=80, time=20),
    Message('note_off', channel=6, note=33, velocity=64, time=460),
    Message('note_on', channel=6, note=33, velocity=80, time=20),
    Message('note_off', channel=6, note=33, velocity=64, time=460),
    Message('note_on', channel=6, note=28, velocity=80, time=20),
    Message('note_off', channel=6, note=28, velocity=64, time=1408),
    Message('note_on', channel=6, note=35, velocity=80, time=36),
    Message('note_off', channel=6, note=35, velocity=64, time=956),
    Message('note_on', channel=6, note=35, velocity=80, time=0),
    Message('note_off', channel=6, note=35, velocity=64, time=460),
    Message('note_on', channel=6, note=40, velocity=80, time=20),
    Message('note_off', channel=6, note=40, velocity=64, time=1412),
    Message('note_on', channel=6, note=35, velocity=80, time=32),
    Message('note_off', channel=6, note=35, velocity=64, time=1200),
    Message('note_on', channel=6, note=35, velocity=80, time=0),
    Message('note_off', channel=6, note=35, velocity=64, time=212),
    Message('note_on', channel=6, note=28, velocity=80, time=24),
    Message('note_off', channel=6, note=28, velocity=64, time=1200),
    Message('note_on', channel=6, note=28, velocity=80, time=0),
    Message('note_off', channel=6, note=28, velocity=64, time=220),
    Message('note_on', channel=6, note=43, velocity=80, time=20),
    Message('note_off', channel=6, note=43, velocity=64, time=1200),
    Message('note_on', channel=6, note=38, velocity=80, time=0),
    Message('note_off', channel=6, note=38, velocity=64, time=220),
    Message('note_on', channel=6, note=31, velocity=80, time=20),
    Message('note_off', channel=6, note=31, velocity=64, time=460),
    Message('note_on', channel=6, note=30, velocity=80, time=20),
    Message('note_off', channel=6, note=30, velocity=64, time=460),
    Message('note_on', channel=6, note=28, velocity=80, time=20),
    Message('note_off', channel=6, note=28, velocity=64, time=460),
    Message('note_on', channel=6, note=38, velocity=80, time=20),
    Message('note_off', channel=6, note=38, velocity=64, time=1200),
    Message('note_on', channel=6, note=33, velocity=80, time=0),
    Message('note_off', channel=6, note=33, velocity=64, time=220),
    Message('note_on', channel=6, note=38, velocity=80, time=20),
    Message('note_off', channel=6, note=38, velocity=64, time=1396),
    Message('note_on', channel=6, note=28, velocity=80, time=44),
    Message('note_off', channel=6, note=28, velocity=64, time=1200),
    Message('note_on', channel=6, note=28, velocity=80, time=0),
    Message('note_off', channel=6, note=28, velocity=64, time=220),
    Message('note_on', channel=6, note=38, velocity=80, time=20),
    Message('note_off', channel=6, note=38, velocity=64, time=940),
    Message('note_on', channel=6, note=28, velocity=80, time=20),
    Message('note_off', channel=6, note=28, velocity=64, time=460),
    Message('note_on', channel=6, note=38, velocity=80, time=20),
    Message('note_off', channel=6, note=38, velocity=64, time=460),
    Message('note_on', channel=6, note=28, velocity=80, time=20),
    Message('note_off', channel=6, note=28, velocity=64, time=460),
    Message('note_on', channel=6, note=38, velocity=80, time=20),
    Message('note_off', channel=6, note=38, velocity=64, time=460),
    Message('note_on', channel=6, note=40, velocity=80, time=20),
    Message('note_off', channel=6, note=40, velocity=64, time=1412),
    Message('note_on', channel=6, note=35, velocity=80, time=32),
    Message('note_off', channel=6, note=35, velocity=64, time=1200),
    Message('note_on', channel=6, note=35, velocity=80, time=0),
    Message('note_off', channel=6, note=35, velocity=64, time=212),
    Message('note_on', channel=6, note=40, velocity=80, time=24),
    Message('note_off', channel=6, note=40, velocity=64, time=1412),
    Message('note_on', channel=6, note=35, velocity=80, time=32),
    Message('note_off', channel=6, note=35, velocity=64, time=1200),
    Message('note_on', channel=6, note=35, velocity=80, time=0),
    Message('note_off', channel=6, note=35, velocity=64, time=212),
    Message('note_on', channel=6, note=28, velocity=80, time=24),
    Message('note_off', channel=6, note=28, velocity=64, time=1200),
    Message('note_on', channel=6, note=28, velocity=80, time=0),
    Message('note_off', channel=6, note=28, velocity=64, time=244),
    Message('note_on', channel=6, note=35, velocity=80, time=0),
    Message('note_off', channel=6, note=35, velocity=64, time=1200),
    Message('note_on', channel=6, note=35, velocity=80, time=0),
    Message('note_off', channel=6, note=35, velocity=64, time=212),
    Message('note_on', channel=6, note=38, velocity=80, time=24),
    Message('note_off', channel=6, note=38, velocity=64, time=1200),
    Message('note_on', channel=6, note=38, velocity=80, time=0),
    Message('note_off', channel=6, note=38, velocity=64, time=220),
    Message('note_on', channel=6, note=40, velocity=80, time=20),
    Message('note_off', channel=6, note=40, velocity=64, time=1200),
    Message('note_on', channel=6, note=35, velocity=80, time=0),
    Message('note_off', channel=6, note=35, velocity=64, time=220),
    Message('note_on', channel=6, note=28, velocity=80, time=20),
    Message('note_off', channel=6, note=28, velocity=64, time=1396),
    Message('note_on', channel=6, note=31, velocity=80, time=44),
    Message('note_off', channel=6, note=31, velocity=64, time=1200),
    Message('note_on', channel=6, note=31, velocity=80, time=0),
    Message('note_off', channel=6, note=31, velocity=64, time=220),
    Message('note_on', channel=6, note=28, velocity=80, time=20),
    Message('note_off', channel=6, note=28, velocity=64, time=1200),
    Message('note_on', channel=6, note=28, velocity=80, time=0),
    Message('note_off', channel=6, note=28, velocity=64, time=220),
    Message('note_on', channel=6, note=31, velocity=80, time=20),
    Message('note_off', channel=6, note=31, velocity=64, time=460),
    Message('note_on', channel=6, note=33, velocity=80, time=20),
    Message('note_off', channel=6, note=33, velocity=64, time=460),
    Message('note_on', channel=6, note=33, velocity=80, time=20),
    Message('note_off', channel=6, note=33, velocity=64, time=460),
    Message('note_on', channel=6, note=40, velocity=80, time=20),
    Message('note_off', channel=6, note=40, velocity=64, time=1412),
    Message('note_on', channel=6, note=35, velocity=80, time=32),
    Message('note_off', channel=6, note=35, velocity=64, time=1200),
    Message('note_on', channel=6, note=35, velocity=80, time=0),
    Message('note_off', channel=6, note=35, velocity=64, time=212),
    Message('note_on', channel=6, note=28, velocity=80, time=24),
    Message('note_off', channel=6, note=28, velocity=64, time=1408),
    Message('note_on', channel=6, note=35, velocity=80, time=36),
    Message('note_off', channel=6, note=35, velocity=64, time=956),
    Message('note_on', channel=6, note=35, velocity=80, time=0),
    Message('note_off', channel=6, note=35, velocity=64, time=460),
    Message('note_on', channel=6, note=28, velocity=80, time=20),
    Message('note_off', channel=6, note=28, velocity=64, time=1200),
    Message('note_on', channel=6, note=28, velocity=80, time=0),
    Message('note_off', channel=6, note=28, velocity=64, time=220),
    Message('note_on', channel=6, note=43, velocity=80, time=20),
    Message('note_off', channel=6, note=43, velocity=64, time=1200),
    Message('note_on', channel=6, note=38, velocity=80, time=0),
    Message('note_off', channel=6, note=38, velocity=64, time=220),
    Message('note_on', channel=6, note=31, velocity=80, time=20),
    Message('note_off', channel=6, note=31, velocity=64, time=460),
    Message('note_on', channel=6, note=30, velocity=80, time=20),
    Message('note_off', channel=6, note=30, velocity=64, time=460),
    Message('note_on', channel=6, note=28, velocity=80, time=20),
    Message('note_off', channel=6, note=28, velocity=64, time=460),
    Message('note_on', channel=6, note=38, velocity=80, time=20),
    Message('note_off', channel=6, note=38, velocity=64, time=1200),
    Message('note_on', channel=6, note=33, velocity=80, time=0),
    Message('note_off', channel=6, note=33, velocity=64, time=220),
    Message('note_on', channel=6, note=38, velocity=80, time=20),
    Message('note_off', channel=6, note=38, velocity=64, time=1200),
    Message('note_on', channel=6, note=38, velocity=80, time=0),
    Message('note_off', channel=6, note=38, velocity=64, time=220),
    Message('note_on', channel=6, note=28, velocity=80, time=20),
    Message('note_off', channel=6, note=28, velocity=64, time=1200),
    Message('note_on', channel=6, note=28, velocity=80, time=0),
    Message('note_off', channel=6, note=28, velocity=64, time=220),
    Message('note_on', channel=6, note=38, velocity=80, time=20),
    Message('note_off', channel=6, note=38, velocity=64, time=940),
    Message('note_on', channel=6, note=28, velocity=80, time=20),
    Message('note_off', channel=6, note=28, velocity=64, time=460),
    Message('note_on', channel=6, note=38, velocity=80, time=20),
    Message('note_off', channel=6, note=38, velocity=64, time=460),
    Message('note_on', channel=6, note=28, velocity=80, time=20),
    Message('note_off', channel=6, note=28, velocity=64, time=460),
    Message('note_on', channel=6, note=38, velocity=80, time=20),
    Message('note_off', channel=6, note=38, velocity=64, time=460),
    Message('note_on', channel=6, note=28, velocity=80, time=20),
    Message('note_off', channel=6, note=28, velocity=64, time=1408),
    Message('note_on', channel=6, note=35, velocity=80, time=36),
    Message('note_off', channel=6, note=35, velocity=64, time=956),
    Message('note_on', channel=6, note=35, velocity=80, time=0),
    Message('note_off', channel=6, note=35, velocity=64, time=460),
    Message('note_on', channel=6, note=28, velocity=80, time=20),
    Message('note_off', channel=6, note=28, velocity=64, time=940),
    Message('note_on', channel=6, note=38, velocity=80, time=20),
    Message('note_off', channel=6, note=38, velocity=64, time=460),
    Message('note_on', channel=6, note=28, velocity=85, time=20),
    Message('note_off', channel=6, note=28, velocity=64, time=140),
    MetaMessage('end_of_track', time=0)]),
  MidiTrack([
    MetaMessage('track_name', name='Drums   ', time=0),
    MetaMessage('midi_port', port=0, time=0),
    MetaMessage('channel_prefix', channel=9, time=0),
    Message('control_change', channel=9, control=7, value=127, time=0),
    Message('control_change', channel=9, control=10, value=64, time=0),
    Message('control_change', channel=9, control=91, value=99, time=0),
    Message('program_change', channel=9, program=32, time=0),
    Message('note_on', channel=9, note=35, velocity=20, time=7200),
    Message('note_off', channel=9, note=35, velocity=64, time=100),
    Message('note_on', channel=9, note=35, velocity=20, time=1340),
    Message('note_off', channel=9, note=35, velocity=64, time=100),
    Message('note_on', channel=9, note=81, velocity=10, time=380),
    Message('note_off', channel=9, note=81, velocity=64, time=100),
    Message('note_on', channel=9, note=35, velocity=20, time=380),
    Message('note_off', channel=9, note=35, velocity=64, time=100),
    Message('note_on', channel=9, note=35, velocity=20, time=380),
    Message('note_off', channel=9, note=35, velocity=64, time=100),
    Message('note_on', channel=9, note=35, velocity=20, time=1340),
    Message('note_off', channel=9, note=35, velocity=64, time=100),
    Message('note_on', channel=9, note=81, velocity=10, time=380),
    Message('note_off', channel=9, note=81, velocity=64, time=100),
    Message('note_on', channel=9, note=35, velocity=20, time=380),
    Message('note_off', channel=9, note=35, velocity=64, time=100),
    Message('note_on', channel=9, note=35, velocity=20, time=380),
    Message('note_off', channel=9, note=35, velocity=64, time=100),
    Message('note_on', channel=9, note=35, velocity=20, time=1340),
    Message('note_off', channel=9, note=35, velocity=64, time=100),
    Message('note_on', channel=9, note=35, velocity=20, time=860),
    Message('note_off', channel=9, note=35, velocity=64, time=100),
    Message('note_on', channel=9, note=35, velocity=20, time=380),
    Message('note_off', channel=9, note=35, velocity=64, time=100),
    Message('note_on', channel=9, note=35, velocity=20, time=1340),
    Message('note_off', channel=9, note=35, velocity=64, time=100),
    Message('note_on', channel=9, note=81, velocity=10, time=380),
    Message('note_off', channel=9, note=81, velocity=64, time=100),
    Message('note_on', channel=9, note=35, velocity=20, time=380),
    Message('note_off', channel=9, note=35, velocity=64, time=100),
    Message('note_on', channel=9, note=35, velocity=20, time=380),
    Message('note_off', channel=9, note=35, velocity=64, time=100),
    Message('note_on', channel=9, note=35, velocity=20, time=1340),
    Message('note_off', channel=9, note=35, velocity=64, time=100),
    Message('note_on', channel=9, note=81, velocity=10, time=380),
    Message('note_off', channel=9, note=81, velocity=64, time=100),
    Message('note_on', channel=9, note=35, velocity=20, time=380),
    Message('note_off', channel=9, note=35, velocity=64, time=100),
    Message('note_on', channel=9, note=35, velocity=20, time=380),
    Message('note_off', channel=9, note=35, velocity=64, time=100),
    Message('note_on', channel=9, note=35, velocity=20, time=1340),
    Message('note_off', channel=9, note=35, velocity=64, time=100),
    Message('note_on', channel=9, note=35, velocity=20, time=1340),
    Message('note_on', channel=9, note=52, velocity=50, time=0),
    Message('note_off', channel=9, note=52, velocity=64, time=100),
    Message('note_off', channel=9, note=35, velocity=64, time=0),
    Message('note_on', channel=9, note=35, velocity=20, time=1340),
    Message('note_off', channel=9, note=35, velocity=64, time=100),
    Message('note_on', channel=9, note=35, velocity=20, time=860),
    Message('note_off', channel=9, note=35, velocity=64, time=100),
    Message('note_on', channel=9, note=35, velocity=20, time=380),
    Message('note_off', channel=9, note=35, velocity=64, time=100),
    Message('note_on', channel=9, note=35, velocity=20, time=1340),
    Message('note_off', channel=9, note=35, velocity=64, time=100),
    Message('note_on', channel=9, note=35, velocity=20, time=860),
    Message('note_off', channel=9, note=35, velocity=64, time=100),
    Message('note_on', channel=9, note=35, velocity=20, time=380),
    Message('note_off', channel=9, note=35, velocity=64, time=100),
    Message('note_on', channel=9, note=35, velocity=20, time=1340),
    Message('note_off', channel=9, note=35, velocity=64, time=100),
    Message('note_on', channel=9, note=81, velocity=10, time=380),
    Message('note_off', channel=9, note=81, velocity=64, time=100),
    Message('note_on', channel=9, note=35, velocity=20, time=380),
    Message('note_off', channel=9, note=35, velocity=64, time=100),
    Message('note_on', channel=9, note=35, velocity=20, time=380),
    Message('note_off', channel=9, note=35, velocity=64, time=100),
    Message('note_on', channel=9, note=35, velocity=20, time=1340),
    Message('note_off', channel=9, note=35, velocity=64, time=100),
    Message('note_on', channel=9, note=81, velocity=10, time=380),
    Message('note_off', channel=9, note=81, velocity=64, time=100),
    Message('note_on', channel=9, note=35, velocity=20, time=380),
    Message('note_off', channel=9, note=35, velocity=64, time=100),
    Message('note_on', channel=9, note=35, velocity=20, time=380),
    Message('note_off', channel=9, note=35, velocity=64, time=100),
    Message('note_on', channel=9, note=35, velocity=20, time=1340),
    Message('note_off', channel=9, note=35, velocity=64, time=100),
    Message('note_on', channel=9, note=81, velocity=10, time=380),
    Message('note_off', channel=9, note=81, velocity=64, time=100),
    Message('note_on', channel=9, note=35, velocity=20, time=380),
    Message('note_off', channel=9, note=35, velocity=64, time=100),
    Message('note_on', channel=9, note=35, velocity=20, time=380),
    Message('note_off', channel=9, note=35, velocity=64, time=100),
    Message('note_on', channel=9, note=35, velocity=20, time=1340),
    Message('note_off', channel=9, note=35, velocity=64, time=100),
    Message('note_on', channel=9, note=35, velocity=40, time=1340),
    Message('note_on', channel=9, note=62, velocity=60, time=0),
    Message('note_on', channel=9, note=52, velocity=50, time=0),
    Message('note_off', channel=9, note=52, velocity=64, time=100),
    Message('note_off', channel=9, note=62, velocity=64, time=0),
    Message('note_off', channel=9, note=35, velocity=64, time=0),
    Message('note_on', channel=9, note=60, velocity=50, time=140),
    Message('note_off', channel=9, note=60, velocity=64, time=100),
    Message('note_on', channel=9, note=60, velocity=60, time=140),
    Message('note_off', channel=9, note=60, velocity=64, time=100),
    Message('note_on', channel=9, note=35, velocity=40, time=140),
    Message('note_on', channel=9, note=64, velocity=60, time=0),
    Message('note_off', channel=9, note=64, velocity=64, time=100),
    Message('note_off', channel=9, note=35, velocity=64, time=0),
    Message('note_on', channel=9, note=62, velocity=60, time=140),
    Message('note_off', channel=9, note=62, velocity=64, time=100),
    Message('note_on', channel=9, note=62, velocity=60, time=140),
    Message('note_off', channel=9, note=62, velocity=64, time=100),
    Message('note_on', channel=9, note=35, velocity=40, time=140),
    Message('note_on', channel=9, note=62, velocity=40, time=0),
    Message('note_on', channel=9, note=60, velocity=50, time=0),
    Message('note_off', channel=9, note=60, velocity=64, time=100),
    Message('note_off', channel=9, note=62, velocity=64, time=0),
    Message('note_off', channel=9, note=35, velocity=64, time=0),
    Message('note_on', channel=9, note=60, velocity=50, time=140),
    Message('note_off', channel=9, note=60, velocity=64, time=100),
    Message('note_on', channel=9, note=62, velocity=40, time=140),
    Message('note_on', channel=9, note=60, velocity=60, time=0),
    Message('note_off', channel=9, note=60, velocity=64, time=100),
    Message('note_off', channel=9, note=62, velocity=64, time=0),
    Message('note_on', channel=9, note=35, velocity=50, time=140),
    Message('note_on', channel=9, note=64, velocity=60, time=0),
    Message('note_on', channel=9, note=60, velocity=40, time=0),
    Message('note_off', channel=9, note=60, velocity=64, time=100),
    Message('note_off', channel=9, note=64, velocity=64, time=0),
    Message('note_off', channel=9, note=35, velocity=64, time=0),
    Message('note_on', channel=9, note=62, velocity=40, time=140),
    Message('note_on', channel=9, note=60, velocity=50, time=0),
    Message('note_off', channel=9, note=60, velocity=64, time=100),
    Message('note_off', channel=9, note=62, velocity=64, time=0),
    Message('note_on', channel=9, note=62, velocity=50, time=140),
    Message('note_off', channel=9, note=62, velocity=64, time=100),
    Message('note_on', channel=9, note=35, velocity=40, time=140),
    Message('note_on', channel=9, note=62, velocity=60, time=0),
    Message('note_off', channel=9, note=62, velocity=64, time=100),
    Message('note_off', channel=9, note=35, velocity=64, time=0),
    Message('note_on', channel=9, note=60, velocity=50, time=140),
    Message('note_off', channel=9, note=60, velocity=64, time=100),
    Message('note_on', channel=9, note=60, velocity=60, time=140),
    Message('note_off', channel=9, note=60, velocity=64, time=100),
    Message('note_on', channel=9, note=35, velocity=40, time=140),
    Message('note_on', channel=9, note=64, velocity=60, time=0),
    Message('note_off', channel=9, note=64, velocity=64, time=100),
    Message('note_off', channel=9, note=35, velocity=64, time=0),
    Message('note_on', channel=9, note=62, velocity=60, time=140),
    Message('note_off', channel=9, note=62, velocity=64, time=100),
    Message('note_on', channel=9, note=62, velocity=60, time=140),
    Message('note_off', channel=9, note=62, velocity=64, time=100),
    Message('note_on', channel=9, note=35, velocity=40, time=140),
    Message('note_on', channel=9, note=62, velocity=40, time=0),
    Message('note_on', channel=9, note=60, velocity=50, time=0),
    Message('note_off', channel=9, note=60, velocity=64, time=100),
    Message('note_off', channel=9, note=62, velocity=64, time=0),
    Message('note_off', channel=9, note=35, velocity=64, time=0),
    Message('note_on', channel=9, note=60, velocity=50, time=140),
    Message('note_off', channel=9, note=60, velocity=64, time=100),
    Message('note_on', channel=9, note=62, velocity=40, time=140),
    Message('note_on', channel=9, note=60, velocity=60, time=0),
    Message('note_off', channel=9, note=60, velocity=64, time=100),
    Message('note_off', channel=9, note=62, velocity=64, time=0),
    Message('note_on', channel=9, note=35, velocity=50, time=140),
    Message('note_on', channel=9, note=64, velocity=80, time=0),
    Message('note_on', channel=9, note=60, velocity=70, time=0),
    Message('note_off', channel=9, note=60, velocity=64, time=100),
    Message('note_off', channel=9, note=64, velocity=64, time=0),
    Message('note_off', channel=9, note=35, velocity=64, time=0),
    Message('note_on', channel=9, note=62, velocity=80, time=140),
    Message('note_on', channel=9, note=60, velocity=70, time=0),
    Message('note_off', channel=9, note=60, velocity=64, time=100),
    Message('note_off', channel=9, note=62, velocity=64, time=0),
    Message('note_on', channel=9, note=62, velocity=60, time=140),
    Message('note_off', channel=9, note=62, velocity=64, time=100),
    Message('note_on', channel=9, note=35, velocity=40, time=140),
    Message('note_on', channel=9, note=62, velocity=60, time=0),
    Message('note_off', channel=9, note=62, velocity=64, time=100),
    Message('note_off', channel=9, note=35, velocity=64, time=0),
    Message('note_on', channel=9, note=60, velocity=50, time=140),
    Message('note_off', channel=9, note=60, velocity=64, time=100),
    Message('note_on', channel=9, note=60, velocity=60, time=140),
    Message('note_off', channel=9, note=60, velocity=64, time=100),
    Message('note_on', channel=9, note=35, velocity=40, time=140),
    Message('note_on', channel=9, note=64, velocity=60, time=0),
    Message('note_off', channel=9, note=64, velocity=64, time=100),
    Message('note_off', channel=9, note=35, velocity=64, time=0),
    Message('note_on', channel=9, note=62, velocity=60, time=140),
    Message('note_off', channel=9, note=62, velocity=64, time=100),
    Message('note_on', channel=9, note=62, velocity=60, time=140),
    Message('note_off', channel=9, note=62, velocity=64, time=100),
    Message('note_on', channel=9, note=35, velocity=40, time=140),
    Message('note_on', channel=9, note=62, velocity=40, time=0),
    Message('note_on', channel=9, note=60, velocity=50, time=0),
    Message('note_off', channel=9, note=60, velocity=64, time=100),
    Message('note_off', channel=9, note=62, velocity=64, time=0),
    Message('note_off', channel=9, note=35, velocity=64, time=0),
    Message('note_on', channel=9, note=60, velocity=50, time=140),
    Message('note_off', channel=9, note=60, velocity=64, time=100),
    Message('note_on', channel=9, note=62, velocity=40, time=140),
    Message('note_on', channel=9, note=60, velocity=60, time=0),
    Message('note_off', channel=9, note=60, velocity=64, time=100),
    Message('note_off', channel=9, note=62, velocity=64, time=0),
    Message('note_on', channel=9, note=35, velocity=50, time=140),
    Message('note_on', channel=9, note=64, velocity=60, time=0),
    Message('note_on', channel=9, note=60, velocity=40, time=0),
    Message('note_off', channel=9, note=60, velocity=64, time=100),
    Message('note_off', channel=9, note=64, velocity=64, time=0),
    Message('note_off', channel=9, note=35, velocity=64, time=0),
    Message('note_on', channel=9, note=62, velocity=40, time=140),
    Message('note_on', channel=9, note=60, velocity=50, time=0),
    Message('note_off', channel=9, note=60, velocity=64, time=100),
    Message('note_off', channel=9, note=62, velocity=64, time=0),
    Message('note_on', channel=9, note=62, velocity=50, time=140),
    Message('note_off', channel=9, note=62, velocity=64, time=100),
    Message('note_on', channel=9, note=35, velocity=40, time=140),
    Message('note_on', channel=9, note=62, velocity=60, time=0),
    Message('note_off', channel=9, note=62, velocity=64, time=100),
    Message('note_off', channel=9, note=35, velocity=64, time=0),
    Message('note_on', channel=9, note=60, velocity=50, time=140),
    Message('note_off', channel=9, note=60, velocity=64, time=100),
    Message('note_on', channel=9, note=60, velocity=60, time=140),
    Message('note_off', channel=9, note=60, velocity=64, time=100),
    Message('note_on', channel=9, note=35, velocity=50, time=140),
    Message('note_on', channel=9, note=64, velocity=60, time=0),
    Message('note_off', channel=9, note=64, velocity=64, time=100),
    Message('note_off', channel=9, note=35, velocity=64, time=0),
    Message('note_on', channel=9, note=62, velocity=60, time=140),
    Message('note_off', channel=9, note=62, velocity=64, time=100),
    Message('note_on', channel=9, note=62, velocity=60, time=140),
    Message('note_off', channel=9, note=62, velocity=64, time=100),
    Message('note_on', channel=9, note=35, velocity=40, time=140),
    Message('note_on', channel=9, note=62, velocity=40, time=0),
    Message('note_on', channel=9, note=60, velocity=50, time=0),
    Message('note_off', channel=9, note=60, velocity=64, time=100),
    Message('note_off', channel=9, note=62, velocity=64, time=0),
    Message('note_off', channel=9, note=35, velocity=64, time=0),
    Message('note_on', channel=9, note=60, velocity=50, time=140),
    Message('note_off', channel=9, note=60, velocity=64, time=100),
    Message('note_on', channel=9, note=62, velocity=40, time=140),
    Message('note_on', channel=9, note=60, velocity=60, time=0),
    Message('note_off', channel=9, note=60, velocity=64, time=100),
    Message('note_off', channel=9, note=62, velocity=64, time=0),
    Message('note_on', channel=9, note=35, velocity=50, time=140),
    Message('note_on', channel=9, note=64, velocity=60, time=0),
    Message('note_on', channel=9, note=60, velocity=60, time=0),
    Message('note_off', channel=9, note=60, velocity=64, time=100),
    Message('note_off', channel=9, note=64, velocity=64, time=0),
    Message('note_off', channel=9, note=35, velocity=64, time=0),
    Message('note_on', channel=9, note=60, velocity=32, time=80),
    Message('note_on', channel=9, note=62, velocity=40, time=60),
    Message('note_on', channel=9, note=60, velocity=50, time=0),
    Message('note_off', channel=9, note=60, velocity=64, time=40),
    Message('note_off', channel=9, note=62, velocity=64, time=60),
    Message('note_off', channel=9, note=60, velocity=64, time=0),
    Message('note_on', channel=9, note=62, velocity=80, time=140),
    Message('note_on', channel=9, note=60, velocity=60, time=0),
    Message('note_off', channel=9, note=60, velocity=64, time=100),
    Message('note_off', channel=9, note=62, velocity=64, time=0),
    Message('note_on', channel=9, note=62, velocity=50, time=20),
    Message('note_off', channel=9, note=62, velocity=64, time=100),
    Message('note_on', channel=9, note=35, velocity=40, time=20),
    Message('note_on', channel=9, note=62, velocity=60, time=0),
    Message('note_on', channel=9, note=52, velocity=50, time=0),
    Message('note_off', channel=9, note=52, velocity=64, time=100),
    Message('note_off', channel=9, note=62, velocity=64, time=0),
    Message('note_off', channel=9, note=35, velocity=64, time=0),
    Message('note_on', channel=9, note=60, velocity=50, time=140),
    Message('note_off', channel=9, note=60, velocity=64, time=100),
    Message('note_on', channel=9, note=60, velocity=60, time=140),
    Message('note_off', channel=9, note=60, velocity=64, time=100),
    Message('note_on', channel=9, note=35, velocity=40, time=140),
    Message('note_on', channel=9, note=64, velocity=60, time=0),
    Message('note_off', channel=9, note=64, velocity=64, time=100),
    Message('note_off', channel=9, note=35, velocity=64, time=0),
    Message('note_on', channel=9, note=62, velocity=60, time=140),
    Message('note_off', channel=9, note=62, velocity=64, time=100),
    Message('note_on', channel=9, note=62, velocity=60, time=140),
    Message('note_off', channel=9, note=62, velocity=64, time=100),
    Message('note_on', channel=9, note=35, velocity=40, time=140),
    Message('note_on', channel=9, note=62, velocity=40, time=0),
    Message('note_on', channel=9, note=60, velocity=50, time=0),
    Message('note_off', channel=9, note=60, velocity=64, time=100),
    Message('note_off', channel=9, note=62, velocity=64, time=0),
    Message('note_off', channel=9, note=35, velocity=64, time=0),
    Message('note_on', channel=9, note=60, velocity=50, time=140),
    Message('note_off', channel=9, note=60, velocity=64, time=100),
    Message('note_on', channel=9, note=62, velocity=40, time=140),
    Message('note_on', channel=9, note=60, velocity=60, time=0),
    Message('note_off', channel=9, note=60, velocity=64, time=100),
    Message('note_off', channel=9, note=62, velocity=64, time=0),
    Message('note_on', channel=9, note=35, velocity=50, time=140),
    Message('note_on', channel=9, note=64, velocity=60, time=0),
    Message('note_on', channel=9, note=60, velocity=40, time=0),
    Message('note_off', channel=9, note=60, velocity=64, time=100),
    Message('note_off', channel=9, note=64, velocity=64, time=0),
    Message('note_off', channel=9, note=35, velocity=64, time=0),
    Message('note_on', channel=9, note=62, velocity=40, time=140),
    Message('note_on', channel=9, note=60, velocity=50, time=0),
    Message('note_off', channel=9, note=60, velocity=64, time=100),
    Message('note_off', channel=9, note=62, velocity=64, time=0),
    Message('note_on', channel=9, note=62, velocity=50, time=140),
    Message('note_off', channel=9, note=62, velocity=64, time=100),
    Message('note_on', channel=9, note=35, velocity=40, time=140),
    Message('note_on', channel=9, note=62, velocity=60, time=0),
    Message('note_off', channel=9, note=62, velocity=64, time=100),
    Message('note_off', channel=9, note=35, velocity=64, time=0),
    Message('note_on', channel=9, note=60, velocity=50, time=140),
    Message('note_off', channel=9, note=60, velocity=64, time=100),
    Message('note_on', channel=9, note=60, velocity=60, time=140),
    Message('note_off', channel=9, note=60, velocity=64, time=100),
    Message('note_on', channel=9, note=35, velocity=40, time=140),
    Message('note_on', channel=9, note=64, velocity=60, time=0),
    Message('note_off', channel=9, note=64, velocity=64, time=100),
    Message('note_off', channel=9, note=35, velocity=64, time=0),
    Message('note_on', channel=9, note=62, velocity=60, time=140),
    Message('note_off', channel=9, note=62, velocity=64, time=100),
    Message('note_on', channel=9, note=62, velocity=60, time=140),
    Message('note_off', channel=9, note=62, velocity=64, time=100),
    Message('note_on', channel=9, note=35, velocity=40, time=140),
    Message('note_on', channel=9, note=62, velocity=40, time=0),
    Message('note_on', channel=9, note=60, velocity=50, time=0),
    Message('note_off', channel=9, note=60, velocity=64, time=100),
    Message('note_off', channel=9, note=62, velocity=64, time=0),
    Message('note_off', channel=9, note=35, velocity=64, time=0),
    Message('note_on', channel=9, note=60, velocity=50, time=140),
    Message('note_off', channel=9, note=60, velocity=64, time=100),
    Message('note_on', channel=9, note=62, velocity=40, time=140),
    Message('note_on', channel=9, note=60, velocity=60, time=0),
    Message('note_off', channel=9, note=60, velocity=64, time=100),
    Message('note_off', channel=9, note=62, velocity=64, time=0),
    Message('note_on', channel=9, note=35, velocity=50, time=140),
    Message('note_on', channel=9, note=64, velocity=60, time=0),
    Message('note_on', channel=9, note=60, velocity=40, time=0),
    Message('note_off', channel=9, note=60, velocity=64, time=100),
    Message('note_off', channel=9, note=64, velocity=64, time=0),
    Message('note_off', channel=9, note=35, velocity=64, time=0),
    Message('note_on', channel=9, note=62, velocity=40, time=140),
    Message('note_on', channel=9, note=60, velocity=50, time=0),
    Message('note_off', channel=9, note=60, velocity=64, time=100),
    Message('note_off', channel=9, note=62, velocity=64, time=0),
    Message('note_on', channel=9, note=62, velocity=50, time=140),
    Message('note_off', channel=9, note=62, velocity=64, time=100),
    Message('note_on', channel=9, note=35, velocity=40, time=140),
    Message('note_on', channel=9, note=62, velocity=60, time=0),
    Message('note_off', channel=9, note=62, velocity=64, time=100),
    Message('note_off', channel=9, note=35, velocity=64, time=0),
    Message('note_on', channel=9, note=60, velocity=50, time=140),
    Message('note_off', channel=9, note=60, velocity=64, time=100),
    Message('note_on', channel=9, note=60, velocity=60, time=140),
    Message('note_off', channel=9, note=60, velocity=64, time=100),
    Message('note_on', channel=9, note=35, velocity=40, time=140),
    Message('note_on', channel=9, note=64, velocity=60, time=0),
    Message('note_off', channel=9, note=64, velocity=64, time=100),
    Message('note_off', channel=9, note=35, velocity=64, time=0),
    Message('note_on', channel=9, note=62, velocity=60, time=140),
    Message('note_off', channel=9, note=62, velocity=64, time=100),
    Message('note_on', channel=9, note=62, velocity=60, time=140),
    Message('note_off', channel=9, note=62, velocity=64, time=100),
    Message('note_on', channel=9, note=35, velocity=40, time=140),
    Message('note_on', channel=9, note=62, velocity=40, time=0),
    Message('note_on', channel=9, note=60, velocity=50, time=0),
    Message('note_off', channel=9, note=60, velocity=64, time=100),
    Message('note_off', channel=9, note=62, velocity=64, time=0),
    Message('note_off', channel=9, note=35, velocity=64, time=0),
    Message('note_on', channel=9, note=60, velocity=50, time=140),
    Message('note_off', channel=9, note=60, velocity=64, time=100),
    Message('note_on', channel=9, note=62, velocity=40, time=140),
    Message('note_on', channel=9, note=60, velocity=60, time=0),
    Message('note_off', channel=9, note=60, velocity=64, time=100),
    Message('note_off', channel=9, note=62, velocity=64, time=0),
    Message('note_on', channel=9, note=35, velocity=50, time=140),
    Message('note_on', channel=9, note=64, velocity=60, time=0),
    Message('note_on', channel=9, note=60, velocity=40, time=0),
    Message('note_off', channel=9, note=60, velocity=64, time=100),
    Message('note_off', channel=9, note=64, velocity=64, time=0),
    Message('note_off', channel=9, note=35, velocity=64, time=0),
    Message('note_on', channel=9, note=62, velocity=40, time=140),
    Message('note_on', channel=9, note=60, velocity=50, time=0),
    Message('note_off', channel=9, note=60, velocity=64, time=100),
    Message('note_off', channel=9, note=62, velocity=64, time=0),
    Message('note_on', channel=9, note=62, velocity=50, time=140),
    Message('note_off', channel=9, note=62, velocity=64, time=100),
    Message('note_on', channel=9, note=35, velocity=40, time=140),
    Message('note_on', channel=9, note=62, velocity=60, time=0),
    Message('note_on', channel=9, note=52, velocity=50, time=0),
    Message('note_off', channel=9, note=52, velocity=64, time=100),
    Message('note_off', channel=9, note=62, velocity=64, time=0),
    Message('note_off', channel=9, note=35, velocity=64, time=0),
    Message('note_on', channel=9, note=60, velocity=50, time=140),
    Message('note_off', channel=9, note=60, velocity=64, time=100),
    Message('note_on', channel=9, note=60, velocity=60, time=140),
    Message('note_off', channel=9, note=60, velocity=64, time=100),
    Message('note_on', channel=9, note=35, velocity=50, time=140),
    Message('note_on', channel=9, note=64, velocity=60, time=0),
    Message('note_off', channel=9, note=64, velocity=64, time=100),
    Message('note_off', channel=9, note=35, velocity=64, time=0),
    Message('note_on', channel=9, note=62, velocity=60, time=140),
    Message('note_off', channel=9, note=62, velocity=64, time=100),
    Message('note_on', channel=9, note=62, velocity=60, time=140),
    Message('note_off', channel=9, note=62, velocity=64, time=100),
    Message('note_on', channel=9, note=35, velocity=40, time=140),
    Message('note_on', channel=9, note=62, velocity=40, time=0),
    Message('note_on', channel=9, note=60, velocity=50, time=0),
    Message('note_off', channel=9, note=60, velocity=64, time=100),
    Message('note_off', channel=9, note=62, velocity=64, time=0),
    Message('note_off', channel=9, note=35, velocity=64, time=0),
    Message('note_on', channel=9, note=60, velocity=50, time=140),
    Message('note_off', channel=9, note=60, velocity=64, time=100),
    Message('note_on', channel=9, note=62, velocity=40, time=140),
    Message('note_on', channel=9, note=60, velocity=60, time=0),
    Message('note_off', channel=9, note=60, velocity=64, time=100),
    Message('note_off', channel=9, note=62, velocity=64, time=0),
    Message('note_on', channel=9, note=35, velocity=50, time=140),
    Message('note_on', channel=9, note=64, velocity=80, time=0),
    Message('note_on', channel=9, note=60, velocity=70, time=0),
    Message('note_off', channel=9, note=60, velocity=64, time=100),
    Message('note_off', channel=9, note=64, velocity=64, time=0),
    Message('note_off', channel=9, note=35, velocity=64, time=0),
    Message('note_on', channel=9, note=62, velocity=80, time=140),
    Message('note_on', channel=9, note=60, velocity=70, time=0),
    Message('note_off', channel=9, note=60, velocity=64, time=100),
    Message('note_off', channel=9, note=62, velocity=64, time=0),
    Message('note_on', channel=9, note=62, velocity=60, time=140),
    Message('note_off', channel=9, note=62, velocity=64, time=100),
    Message('note_on', channel=9, note=35, velocity=40, time=140),
    Message('note_on', channel=9, note=62, velocity=60, time=0),
    Message('note_off', channel=9, note=62, velocity=64, time=100),
    Message('note_off', channel=9, note=35, velocity=64, time=0),
    Message('note_on', channel=9, note=60, velocity=50, time=140),
    Message('note_off', channel=9, note=60, velocity=64, time=100),
    Message('note_on', channel=9, note=60, velocity=60, time=140),
    Message('note_off', channel=9, note=60, velocity=64, time=100),
    Message('note_on', channel=9, note=35, velocity=40, time=140),
    Message('note_on', channel=9, note=64, velocity=60, time=0),
    Message('note_off', channel=9, note=64, velocity=64, time=100),
    Message('note_off', channel=9, note=35, velocity=64, time=0),
    Message('note_on', channel=9, note=62, velocity=60, time=140),
    Message('note_off', channel=9, note=62, velocity=64, time=100),
    Message('note_on', channel=9, note=62, velocity=60, time=140),
    Message('note_off', channel=9, note=62, velocity=64, time=100),
    Message('note_on', channel=9, note=35, velocity=40, time=140),
    Message('note_on', channel=9, note=62, velocity=40, time=0),
    Message('note_on', channel=9, note=60, velocity=50, time=0),
    Message('note_off', channel=9, note=60, velocity=64, time=100),
    Message('note_off', channel=9, note=62, velocity=64, time=0),
    Message('note_off', channel=9, note=35, velocity=64, time=0),
    Message('note_on', channel=9, note=60, velocity=50, time=140),
    Message('note_off', channel=9, note=60, velocity=64, time=100),
    Message('note_on', channel=9, note=62, velocity=40, time=140),
    Message('note_on', channel=9, note=60, velocity=60, time=0),
    Message('note_off', channel=9, note=60, velocity=64, time=100),
    Message('note_off', channel=9, note=62, velocity=64, time=0),
    Message('note_on', channel=9, note=35, velocity=50, time=140),
    Message('note_on', channel=9, note=64, velocity=60, time=0),
    Message('note_on', channel=9, note=60, velocity=40, time=0),
    Message('note_off', channel=9, note=60, velocity=64, time=100),
    Message('note_off', channel=9, note=64, velocity=64, time=0),
    Message('note_off', channel=9, note=35, velocity=64, time=0),
    Message('note_on', channel=9, note=62, velocity=40, time=140),
    Message('note_on', channel=9, note=60, velocity=50, time=0),
    Message('note_off', channel=9, note=60, velocity=64, time=100),
    Message('note_off', channel=9, note=62, velocity=64, time=0),
    Message('note_on', channel=9, note=62, velocity=50, time=140),
    Message('note_off', channel=9, note=62, velocity=64, time=100),
    Message('note_on', channel=9, note=35, velocity=40, time=140),
    Message('note_on', channel=9, note=62, velocity=60, time=0),
    Message('note_off', channel=9, note=62, velocity=64, time=100),
    Message('note_off', channel=9, note=35, velocity=64, time=0),
    Message('note_on', channel=9, note=60, velocity=50, time=140),
    Message('note_off', channel=9, note=60, velocity=64, time=100),
    Message('note_on', channel=9, note=60, velocity=60, time=140),
    Message('note_off', channel=9, note=60, velocity=64, time=100),
    Message('note_on', channel=9, note=35, velocity=40, time=140),
    Message('note_on', channel=9, note=64, velocity=60, time=0),
    Message('note_off', channel=9, note=64, velocity=64, time=100),
    Message('note_off', channel=9, note=35, velocity=64, time=0),
    Message('note_on', channel=9, note=62, velocity=60, time=140),
    Message('note_off', channel=9, note=62, velocity=64, time=100),
    Message('note_on', channel=9, note=62, velocity=60, time=140),
    Message('note_off', channel=9, note=62, velocity=64, time=100),
    Message('note_on', channel=9, note=35, velocity=40, time=140),
    Message('note_on', channel=9, note=62, velocity=40, time=0),
    Message('note_on', channel=9, note=60, velocity=50, time=0),
    Message('note_off', channel=9, note=60, velocity=64, time=100),
    Message('note_off', channel=9, note=62, velocity=64, time=0),
    Message('note_off', channel=9, note=35, velocity=64, time=0),
    Message('note_on', channel=9, note=60, velocity=50, time=140),
    Message('note_off', channel=9, note=60, velocity=64, time=100),
    Message('note_on', channel=9, note=62, velocity=40, time=140),
    Message('note_on', channel=9, note=60, velocity=60, time=0),
    Message('note_off', channel=9, note=60, velocity=64, time=100),
    Message('note_off', channel=9, note=62, velocity=64, time=0),
    Message('note_on', channel=9, note=35, velocity=50, time=140),
    Message('note_on', channel=9, note=64, velocity=80, time=0),
    Message('note_on', channel=9, note=60, velocity=70, time=0),
    Message('note_off', channel=9, note=60, velocity=64, time=100),
    Message('note_off', channel=9, note=64, velocity=64, time=0),
    Message('note_off', channel=9, note=35, velocity=64, time=0),
    Message('note_on', channel=9, note=62, velocity=80, time=140),
    Message('note_on', channel=9, note=60, velocity=70, time=0),
    Message('note_off', channel=9, note=60, velocity=64, time=100),
    Message('note_off', channel=9, note=62, velocity=64, time=0),
    Message('note_on', channel=9, note=62, velocity=60, time=140),
    Message('note_off', channel=9, note=62, velocity=64, time=100),
    Message('note_on', channel=9, note=35, velocity=40, time=140),
    Message('note_on', channel=9, note=62, velocity=60, time=0),
    Message('note_on', channel=9, note=52, velocity=50, time=0),
    Message('note_off', channel=9, note=52, velocity=64, time=100),
    Message('note_off', channel=9, note=62, velocity=64, time=0),
    Message('note_off', channel=9, note=35, velocity=64, time=0),
    Message('note_on', channel=9, note=60, velocity=50, time=140),
    Message('note_off', channel=9, note=60, velocity=64, time=100),
    Message('note_on', channel=9, note=60, velocity=60, time=140),
    Message('note_off', channel=9, note=60, velocity=64, time=100),
    Message('note_on', channel=9, note=35, velocity=40, time=140),
    Message('note_on', channel=9, note=64, velocity=60, time=0),
    Message('note_off', channel=9, note=64, velocity=64, time=100),
    Message('note_off', channel=9, note=35, velocity=64, time=0),
    Message('note_on', channel=9, note=62, velocity=60, time=140),
    Message('note_off', channel=9, note=62, velocity=64, time=100),
    Message('note_on', channel=9, note=62, velocity=60, time=140),
    Message('note_off', channel=9, note=62, velocity=64, time=100),
    Message('note_on', channel=9, note=35, velocity=40, time=140),
    Message('note_on', channel=9, note=62, velocity=40, time=0),
    Message('note_on', channel=9, note=60, velocity=50, time=0),
    Message('note_off', channel=9, note=60, velocity=64, time=100),
    Message('note_off', channel=9, note=62, velocity=64, time=0),
    Message('note_off', channel=9, note=35, velocity=64, time=0),
    Message('note_on', channel=9, note=60, velocity=50, time=140),
    Message('note_off', channel=9, note=60, velocity=64, time=100),
    Message('note_on', channel=9, note=62, velocity=40, time=140),
    Message('note_on', channel=9, note=60, velocity=60, time=0),
    Message('note_off', channel=9, note=60, velocity=64, time=100),
    Message('note_off', channel=9, note=62, velocity=64, time=0),
    Message('note_on', channel=9, note=35, velocity=50, time=140),
    Message('note_on', channel=9, note=64, velocity=60, time=0),
    Message('note_on', channel=9, note=60, velocity=40, time=0),
    Message('note_off', channel=9, note=60, velocity=64, time=100),
    Message('note_off', channel=9, note=64, velocity=64, time=0),
    Message('note_off', channel=9, note=35, velocity=64, time=0),
    Message('note_on', channel=9, note=62, velocity=40, time=140),
    Message('note_on', channel=9, note=60, velocity=50, time=0),
    Message('note_off', channel=9, note=60, velocity=64, time=100),
    Message('note_off', channel=9, note=62, velocity=64, time=0),
    Message('note_on', channel=9, note=62, velocity=50, time=140),
    Message('note_off', channel=9, note=62, velocity=64, time=100),
    Message('note_on', channel=9, note=35, velocity=40, time=140),
    Message('note_on', channel=9, note=62, velocity=60, time=0),
    Message('note_on', channel=9, note=52, velocity=50, time=0),
    Message('note_off', channel=9, note=52, velocity=64, time=100),
    Message('note_off', channel=9, note=62, velocity=64, time=0),
    Message('note_off', channel=9, note=35, velocity=64, time=0),
    Message('note_on', channel=9, note=60, velocity=50, time=140),
    Message('note_off', channel=9, note=60, velocity=64, time=100),
    Message('note_on', channel=9, note=60, velocity=60, time=140),
    Message('note_off', channel=9, note=60, velocity=64, time=100),
    Message('note_on', channel=9, note=35, velocity=50, time=140),
    Message('note_on', channel=9, note=64, velocity=60, time=0),
    Message('note_off', channel=9, note=64, velocity=64, time=100),
    Message('note_off', channel=9, note=35, velocity=64, time=0),
    Message('note_on', channel=9, note=62, velocity=60, time=140),
    Message('note_off', channel=9, note=62, velocity=64, time=100),
    Message('note_on', channel=9, note=62, velocity=60, time=140),
    Message('note_off', channel=9, note=62, velocity=64, time=100),
    Message('note_on', channel=9, note=35, velocity=40, time=140),
    Message('note_on', channel=9, note=62, velocity=40, time=0),
    Message('note_on', channel=9, note=60, velocity=50, time=0),
    Message('note_off', channel=9, note=60, velocity=64, time=100),
    Message('note_off', channel=9, note=62, velocity=64, time=0),
    Message('note_off', channel=9, note=35, velocity=64, time=0),
    Message('note_on', channel=9, note=60, velocity=50, time=140),
    Message('note_off', channel=9, note=60, velocity=64, time=100),
    Message('note_on', channel=9, note=62, velocity=40, time=140),
    Message('note_on', channel=9, note=60, velocity=60, time=0),
    Message('note_off', channel=9, note=60, velocity=64, time=100),
    Message('note_off', channel=9, note=62, velocity=64, time=0),
    Message('note_on', channel=9, note=35, velocity=50, time=140),
    Message('note_on', channel=9, note=64, velocity=80, time=0),
    Message('note_on', channel=9, note=60, velocity=70, time=0),
    Message('note_off', channel=9, note=60, velocity=64, time=100),
    Message('note_off', channel=9, note=64, velocity=64, time=0),
    Message('note_off', channel=9, note=35, velocity=64, time=0),
    Message('note_on', channel=9, note=62, velocity=80, time=140),
    Message('note_on', channel=9, note=60, velocity=70, time=0),
    Message('note_off', channel=9, note=60, velocity=64, time=100),
    Message('note_off', channel=9, note=62, velocity=64, time=0),
    Message('note_on', channel=9, note=62, velocity=60, time=140),
    Message('note_off', channel=9, note=62, velocity=64, time=100),
    Message('note_on', channel=9, note=35, velocity=40, time=140),
    Message('note_on', channel=9, note=62, velocity=60, time=0),
    Message('note_on', channel=9, note=52, velocity=50, time=0),
    Message('note_off', channel=9, note=52, velocity=64, time=100),
    Message('note_off', channel=9, note=62, velocity=64, time=0),
    Message('note_off', channel=9, note=35, velocity=64, time=0),
    Message('note_on', channel=9, note=60, velocity=50, time=140),
    Message('note_off', channel=9, note=60, velocity=64, time=100),
    Message('note_on', channel=9, note=60, velocity=60, time=140),
    Message('note_off', channel=9, note=60, velocity=64, time=100),
    Message('note_on', channel=9, note=35, velocity=40, time=140),
    Message('note_on', channel=9, note=64, velocity=60, time=0),
    Message('note_off', channel=9, note=64, velocity=64, time=100),
    Message('note_off', channel=9, note=35, velocity=64, time=0),
    Message('note_on', channel=9, note=62, velocity=60, time=140),
    Message('note_off', channel=9, note=62, velocity=64, time=100),
    Message('note_on', channel=9, note=62, velocity=60, time=140),
    Message('note_off', channel=9, note=62, velocity=64, time=100),
    Message('note_on', channel=9, note=35, velocity=40, time=140),
    Message('note_on', channel=9, note=62, velocity=40, time=0),
    Message('note_on', channel=9, note=60, velocity=50, time=0),
    Message('note_off', channel=9, note=60, velocity=64, time=100),
    Message('note_off', channel=9, note=62, velocity=64, time=0),
    Message('note_off', channel=9, note=35, velocity=64, time=0),
    Message('note_on', channel=9, note=60, velocity=50, time=140),
    Message('note_off', channel=9, note=60, velocity=64, time=100),
    Message('note_on', channel=9, note=62, velocity=40, time=140),
    Message('note_on', channel=9, note=60, velocity=60, time=0),
    Message('note_off', channel=9, note=60, velocity=64, time=100),
    Message('note_off', channel=9, note=62, velocity=64, time=0),
    Message('note_on', channel=9, note=35, velocity=50, time=140),
    Message('note_on', channel=9, note=64, velocity=60, time=0),
    Message('note_on', channel=9, note=60, velocity=40, time=0),
    Message('note_off', channel=9, note=60, velocity=64, time=100),
    Message('note_off', channel=9, note=64, velocity=64, time=0),
    Message('note_off', channel=9, note=35, velocity=64, time=0),
    Message('note_on', channel=9, note=62, velocity=40, time=140),
    Message('note_on', channel=9, note=60, velocity=50, time=0),
    Message('note_off', channel=9, note=60, velocity=64, time=100),
    Message('note_off', channel=9, note=62, velocity=64, time=0),
    Message('note_on', channel=9, note=62, velocity=50, time=140),
    Message('note_off', channel=9, note=62, velocity=64, time=100),
    Message('note_on', channel=9, note=35, velocity=40, time=140),
    Message('note_on', channel=9, note=62, velocity=60, time=0),
    Message('note_off', channel=9, note=62, velocity=64, time=100),
    Message('note_off', channel=9, note=35, velocity=64, time=0),
    Message('note_on', channel=9, note=60, velocity=50, time=140),
    Message('note_off', channel=9, note=60, velocity=64, time=100),
    Message('note_on', channel=9, note=60, velocity=60, time=140),
    Message('note_off', channel=9, note=60, velocity=64, time=100),
    Message('note_on', channel=9, note=35, velocity=40, time=140),
    Message('note_on', channel=9, note=64, velocity=60, time=0),
    Message('note_off', channel=9, note=64, velocity=64, time=100),
    Message('note_off', channel=9, note=35, velocity=64, time=0),
    Message('note_on', channel=9, note=62, velocity=60, time=140),
    Message('note_off', channel=9, note=62, velocity=64, time=100),
    Message('note_on', channel=9, note=62, velocity=60, time=140),
    Message('note_off', channel=9, note=62, velocity=64, time=100),
    Message('note_on', channel=9, note=35, velocity=40, time=140),
    Message('note_on', channel=9, note=62, velocity=40, time=0),
    Message('note_on', channel=9, note=60, velocity=50, time=0),
    Message('note_off', channel=9, note=60, velocity=64, time=100),
    Message('note_off', channel=9, note=62, velocity=64, time=0),
    Message('note_off', channel=9, note=35, velocity=64, time=0),
    Message('note_on', channel=9, note=60, velocity=50, time=140),
    Message('note_off', channel=9, note=60, velocity=64, time=100),
    Message('note_on', channel=9, note=62, velocity=40, time=140),
    Message('note_on', channel=9, note=60, velocity=60, time=0),
    Message('note_off', channel=9, note=60, velocity=64, time=100),
    Message('note_off', channel=9, note=62, velocity=64, time=0),
    Message('note_on', channel=9, note=35, velocity=50, time=140),
    Message('note_on', channel=9, note=64, velocity=60, time=0),
    Message('note_on', channel=9, note=60, velocity=40, time=0),
    Message('note_off', channel=9, note=60, velocity=64, time=100),
    Message('note_off', channel=9, note=64, velocity=64, time=0),
    Message('note_off', channel=9, note=35, velocity=64, time=0),
    Message('note_on', channel=9, note=62, velocity=40, time=140),
    Message('note_on', channel=9, note=60, velocity=50, time=0),
    Message('note_off', channel=9, note=60, velocity=64, time=100),
    Message('note_off', channel=9, note=62, velocity=64, time=0),
    Message('note_on', channel=9, note=62, velocity=50, time=140),
    Message('note_off', channel=9, note=62, velocity=64, time=100),
    Message('note_on', channel=9, note=35, velocity=40, time=140),
    Message('note_on', channel=9, note=62, velocity=60, time=0),
    Message('note_on', channel=9, note=52, velocity=50, time=0),
    Message('note_off', channel=9, note=52, velocity=64, time=100),
    Message('note_off', channel=9, note=62, velocity=64, time=0),
    Message('note_off', channel=9, note=35, velocity=64, time=0),
    Message('note_on', channel=9, note=60, velocity=50, time=140),
    Message('note_off', channel=9, note=60, velocity=64, time=100),
    Message('note_on', channel=9, note=60, velocity=60, time=140),
    Message('note_off', channel=9, note=60, velocity=64, time=100),
    Message('note_on', channel=9, note=35, velocity=40, time=140),
    Message('note_on', channel=9, note=64, velocity=60, time=0),
    Message('note_off', channel=9, note=64, velocity=64, time=100),
    Message('note_off', channel=9, note=35, velocity=64, time=0),
    Message('note_on', channel=9, note=62, velocity=60, time=140),
    Message('note_off', channel=9, note=62, velocity=64, time=100),
    Message('note_on', channel=9, note=62, velocity=60, time=140),
    Message('note_off', channel=9, note=62, velocity=64, time=100),
    Message('note_on', channel=9, note=35, velocity=40, time=140),
    Message('note_on', channel=9, note=62, velocity=40, time=0),
    Message('note_on', channel=9, note=60, velocity=50, time=0),
    Message('note_off', channel=9, note=60, velocity=64, time=100),
    Message('note_off', channel=9, note=62, velocity=64, time=0),
    Message('note_off', channel=9, note=35, velocity=64, time=0),
    Message('note_on', channel=9, note=60, velocity=50, time=140),
    Message('note_off', channel=9, note=60, velocity=64, time=100),
    Message('note_on', channel=9, note=62, velocity=40, time=140),
    Message('note_on', channel=9, note=60, velocity=60, time=0),
    Message('note_off', channel=9, note=60, velocity=64, time=100),
    Message('note_off', channel=9, note=62, velocity=64, time=0),
    Message('note_on', channel=9, note=35, velocity=50, time=140),
    Message('note_on', channel=9, note=64, velocity=60, time=0),
    Message('note_on', channel=9, note=60, velocity=40, time=0),
    Message('note_off', channel=9, note=60, velocity=64, time=100),
    Message('note_off', channel=9, note=64, velocity=64, time=0),
    Message('note_off', channel=9, note=35, velocity=64, time=0),
    Message('note_on', channel=9, note=62, velocity=40, time=140),
    Message('note_on', channel=9, note=60, velocity=50, time=0),
    Message('note_off', channel=9, note=60, velocity=64, time=100),
    Message('note_off', channel=9, note=62, velocity=64, time=0),
    Message('note_on', channel=9, note=62, velocity=50, time=140),
    Message('note_off', channel=9, note=62, velocity=64, time=100),
    Message('note_on', channel=9, note=35, velocity=40, time=140),
    Message('note_on', channel=9, note=62, velocity=60, time=0),
    Message('note_on', channel=9, note=52, velocity=50, time=0),
    Message('note_off', channel=9, note=52, velocity=64, time=100),
    Message('note_off', channel=9, note=62, velocity=64, time=0),
    Message('note_off', channel=9, note=35, velocity=64, time=0),
    Message('note_on', channel=9, note=60, velocity=50, time=140),
    Message('note_off', channel=9, note=60, velocity=64, time=100),
    Message('note_on', channel=9, note=60, velocity=60, time=140),
    Message('note_off', channel=9, note=60, velocity=64, time=100),
    Message('note_on', channel=9, note=35, velocity=50, time=140),
    Message('note_on', channel=9, note=64, velocity=60, time=0),
    Message('note_off', channel=9, note=64, velocity=64, time=100),
    Message('note_off', channel=9, note=35, velocity=64, time=0),
    Message('note_on', channel=9, note=62, velocity=60, time=140),
    Message('note_off', channel=9, note=62, velocity=64, time=100),
    Message('note_on', channel=9, note=62, velocity=60, time=140),
    Message('note_off', channel=9, note=62, velocity=64, time=100),
    Message('note_on', channel=9, note=35, velocity=40, time=140),
    Message('note_on', channel=9, note=62, velocity=40, time=0),
    Message('note_on', channel=9, note=60, velocity=50, time=0),
    Message('note_off', channel=9, note=60, velocity=64, time=100),
    Message('note_off', channel=9, note=62, velocity=64, time=0),
    Message('note_off', channel=9, note=35, velocity=64, time=0),
    Message('note_on', channel=9, note=60, velocity=50, time=140),
    Message('note_off', channel=9, note=60, velocity=64, time=100),
    Message('note_on', channel=9, note=62, velocity=40, time=140),
    Message('note_on', channel=9, note=60, velocity=60, time=0),
    Message('note_off', channel=9, note=60, velocity=64, time=100),
    Message('note_off', channel=9, note=62, velocity=64, time=0),
    Message('note_on', channel=9, note=35, velocity=50, time=140),
    Message('note_on', channel=9, note=64, velocity=60, time=0),
    Message('note_on', channel=9, note=60, velocity=60, time=0),
    Message('note_off', channel=9, note=60, velocity=64, time=100),
    Message('note_off', channel=9, note=64, velocity=64, time=0),
    Message('note_off', channel=9, note=35, velocity=64, time=0),
    Message('note_on', channel=9, note=60, velocity=32, time=80),
    Message('note_on', channel=9, note=62, velocity=40, time=60),
    Message('note_on', channel=9, note=60, velocity=50, time=0),
    Message('note_off', channel=9, note=60, velocity=64, time=40),
    Message('note_off', channel=9, note=62, velocity=64, time=60),
    Message('note_off', channel=9, note=60, velocity=64, time=0),
    Message('note_on', channel=9, note=62, velocity=80, time=140),
    Message('note_on', channel=9, note=60, velocity=60, time=0),
    Message('note_off', channel=9, note=60, velocity=64, time=100),
    Message('note_off', channel=9, note=62, velocity=64, time=0),
    Message('note_on', channel=9, note=62, velocity=50, time=20),
    Message('note_off', channel=9, note=62, velocity=64, time=100),
    Message('note_on', channel=9, note=35, velocity=40, time=20),
    Message('note_on', channel=9, note=62, velocity=60, time=0),
    Message('note_on', channel=9, note=52, velocity=50, time=0),
    Message('note_off', channel=9, note=52, velocity=64, time=100),
    Message('note_off', channel=9, note=62, velocity=64, time=0),
    Message('note_off', channel=9, note=35, velocity=64, time=0),
    Message('note_on', channel=9, note=60, velocity=50, time=140),
    Message('note_off', channel=9, note=60, velocity=64, time=100),
    Message('note_on', channel=9, note=60, velocity=60, time=140),
    Message('note_off', channel=9, note=60, velocity=64, time=100),
    Message('note_on', channel=9, note=35, velocity=40, time=140),
    Message('note_on', channel=9, note=64, velocity=60, time=0),
    Message('note_off', channel=9, note=64, velocity=64, time=100),
    Message('note_off', channel=9, note=35, velocity=64, time=0),
    Message('note_on', channel=9, note=62, velocity=60, time=140),
    Message('note_off', channel=9, note=62, velocity=64, time=100),
    Message('note_on', channel=9, note=62, velocity=60, time=140),
    Message('note_off', channel=9, note=62, velocity=64, time=100),
    Message('note_on', channel=9, note=35, velocity=40, time=140),
    Message('note_on', channel=9, note=62, velocity=40, time=0),
    Message('note_on', channel=9, note=60, velocity=50, time=0),
    Message('note_off', channel=9, note=60, velocity=64, time=100),
    Message('note_off', channel=9, note=62, velocity=64, time=0),
    Message('note_off', channel=9, note=35, velocity=64, time=0),
    Message('note_on', channel=9, note=60, velocity=50, time=140),
    Message('note_off', channel=9, note=60, velocity=64, time=100),
    Message('note_on', channel=9, note=62, velocity=40, time=140),
    Message('note_on', channel=9, note=60, velocity=60, time=0),
    Message('note_off', channel=9, note=60, velocity=64, time=100),
    Message('note_off', channel=9, note=62, velocity=64, time=0),
    Message('note_on', channel=9, note=35, velocity=50, time=140),
    Message('note_on', channel=9, note=64, velocity=60, time=0),
    Message('note_on', channel=9, note=60, velocity=40, time=0),
    Message('note_off', channel=9, note=60, velocity=64, time=100),
    Message('note_off', channel=9, note=64, velocity=64, time=0),
    Message('note_off', channel=9, note=35, velocity=64, time=0),
    Message('note_on', channel=9, note=62, velocity=40, time=140),
    Message('note_on', channel=9, note=60, velocity=50, time=0),
    Message('note_off', channel=9, note=60, velocity=64, time=100),
    Message('note_off', channel=9, note=62, velocity=64, time=0),
    Message('note_on', channel=9, note=62, velocity=50, time=140),
    Message('note_off', channel=9, note=62, velocity=64, time=100),
    Message('note_on', channel=9, note=35, velocity=40, time=140),
    Message('note_on', channel=9, note=62, velocity=60, time=0),
    Message('note_off', channel=9, note=62, velocity=64, time=100),
    Message('note_off', channel=9, note=35, velocity=64, time=0),
    Message('note_on', channel=9, note=60, velocity=50, time=140),
    Message('note_off', channel=9, note=60, velocity=64, time=100),
    Message('note_on', channel=9, note=60, velocity=60, time=140),
    Message('note_off', channel=9, note=60, velocity=64, time=100),
    Message('note_on', channel=9, note=35, velocity=40, time=140),
    Message('note_on', channel=9, note=64, velocity=60, time=0),
    Message('note_off', channel=9, note=64, velocity=64, time=100),
    Message('note_off', channel=9, note=35, velocity=64, time=0),
    Message('note_on', channel=9, note=62, velocity=60, time=140),
    Message('note_off', channel=9, note=62, velocity=64, time=100),
    Message('note_on', channel=9, note=62, velocity=60, time=140),
    Message('note_off', channel=9, note=62, velocity=64, time=100),
    Message('note_on', channel=9, note=35, velocity=40, time=140),
    Message('note_on', channel=9, note=62, velocity=40, time=0),
    Message('note_on', channel=9, note=60, velocity=50, time=0),
    Message('note_off', channel=9, note=60, velocity=64, time=100),
    Message('note_off', channel=9, note=62, velocity=64, time=0),
    Message('note_off', channel=9, note=35, velocity=64, time=0),
    Message('note_on', channel=9, note=60, velocity=50, time=140),
    Message('note_off', channel=9, note=60, velocity=64, time=100),
    Message('note_on', channel=9, note=62, velocity=40, time=140),
    Message('note_on', channel=9, note=60, velocity=60, time=0),
    Message('note_off', channel=9, note=60, velocity=64, time=100),
    Message('note_off', channel=9, note=62, velocity=64, time=0),
    Message('note_on', channel=9, note=35, velocity=50, time=140),
    Message('note_on', channel=9, note=64, velocity=80, time=0),
    Message('note_on', channel=9, note=60, velocity=70, time=0),
    Message('note_off', channel=9, note=60, velocity=64, time=100),
    Message('note_off', channel=9, note=64, velocity=64, time=0),
    Message('note_off', channel=9, note=35, velocity=64, time=0),
    Message('note_on', channel=9, note=62, velocity=80, time=140),
    Message('note_on', channel=9, note=60, velocity=70, time=0),
    Message('note_off', channel=9, note=60, velocity=64, time=100),
    Message('note_off', channel=9, note=62, velocity=64, time=0),
    Message('note_on', channel=9, note=62, velocity=60, time=140),
    Message('note_off', channel=9, note=62, velocity=64, time=100),
    Message('note_on', channel=9, note=35, velocity=40, time=140),
    Message('note_on', channel=9, note=62, velocity=60, time=0),
    Message('note_off', channel=9, note=62, velocity=64, time=100),
    Message('note_off', channel=9, note=35, velocity=64, time=0),
    Message('note_on', channel=9, note=60, velocity=50, time=140),
    Message('note_off', channel=9, note=60, velocity=64, time=100),
    Message('note_on', channel=9, note=60, velocity=60, time=140),
    Message('note_off', channel=9, note=60, velocity=64, time=100),
    Message('note_on', channel=9, note=35, velocity=40, time=140),
    Message('note_on', channel=9, note=64, velocity=60, time=0),
    Message('note_off', channel=9, note=64, velocity=64, time=100),
    Message('note_off', channel=9, note=35, velocity=64, time=0),
    Message('note_on', channel=9, note=62, velocity=60, time=140),
    Message('note_off', channel=9, note=62, velocity=64, time=100),
    Message('note_on', channel=9, note=62, velocity=60, time=140),
    Message('note_off', channel=9, note=62, velocity=64, time=100),
    Message('note_on', channel=9, note=35, velocity=40, time=140),
    Message('note_on', channel=9, note=62, velocity=40, time=0),
    Message('note_on', channel=9, note=60, velocity=50, time=0),
    Message('note_off', channel=9, note=60, velocity=64, time=100),
    Message('note_off', channel=9, note=62, velocity=64, time=0),
    Message('note_off', channel=9, note=35, velocity=64, time=0),
    Message('note_on', channel=9, note=60, velocity=50, time=140),
    Message('note_off', channel=9, note=60, velocity=64, time=100),
    Message('note_on', channel=9, note=62, velocity=40, time=140),
    Message('note_on', channel=9, note=60, velocity=60, time=0),
    Message('note_off', channel=9, note=60, velocity=64, time=100),
    Message('note_off', channel=9, note=62, velocity=64, time=0),
    Message('note_on', channel=9, note=35, velocity=50, time=140),
    Message('note_on', channel=9, note=64, velocity=60, time=0),
    Message('note_on', channel=9, note=60, velocity=40, time=0),
    Message('note_off', channel=9, note=60, velocity=64, time=100),
    Message('note_off', channel=9, note=64, velocity=64, time=0),
    Message('note_off', channel=9, note=35, velocity=64, time=0),
    Message('note_on', channel=9, note=62, velocity=40, time=140),
    Message('note_on', channel=9, note=60, velocity=50, time=0),
    Message('note_off', channel=9, note=60, velocity=64, time=100),
    Message('note_off', channel=9, note=62, velocity=64, time=0),
    Message('note_on', channel=9, note=62, velocity=50, time=140),
    Message('note_off', channel=9, note=62, velocity=64, time=100),
    Message('note_on', channel=9, note=35, velocity=40, time=140),
    Message('note_on', channel=9, note=62, velocity=60, time=0),
    Message('note_on', channel=9, note=52, velocity=50, time=0),
    Message('note_off', channel=9, note=52, velocity=64, time=100),
    Message('note_off', channel=9, note=62, velocity=64, time=0),
    Message('note_off', channel=9, note=35, velocity=64, time=0),
    Message('note_on', channel=9, note=60, velocity=50, time=140),
    Message('note_off', channel=9, note=60, velocity=64, time=100),
    Message('note_on', channel=9, note=60, velocity=60, time=140),
    Message('note_off', channel=9, note=60, velocity=64, time=100),
    Message('note_on', channel=9, note=35, velocity=50, time=140),
    Message('note_on', channel=9, note=64, velocity=60, time=0),
    Message('note_off', channel=9, note=64, velocity=64, time=100),
    Message('note_off', channel=9, note=35, velocity=64, time=0),
    Message('note_on', channel=9, note=62, velocity=60, time=140),
    Message('note_off', channel=9, note=62, velocity=64, time=100),
    Message('note_on', channel=9, note=62, velocity=60, time=140),
    Message('note_off', channel=9, note=62, velocity=64, time=100),
    Message('note_on', channel=9, note=35, velocity=40, time=140),
    Message('note_on', channel=9, note=62, velocity=40, time=0),
    Message('note_on', channel=9, note=60, velocity=50, time=0),
    Message('note_off', channel=9, note=60, velocity=64, time=100),
    Message('note_off', channel=9, note=62, velocity=64, time=0),
    Message('note_off', channel=9, note=35, velocity=64, time=0),
    Message('note_on', channel=9, note=60, velocity=50, time=140),
    Message('note_off', channel=9, note=60, velocity=64, time=100),
    Message('note_on', channel=9, note=62, velocity=40, time=140),
    Message('note_on', channel=9, note=60, velocity=60, time=0),
    Message('note_off', channel=9, note=60, velocity=64, time=100),
    Message('note_off', channel=9, note=62, velocity=64, time=0),
    Message('note_on', channel=9, note=35, velocity=50, time=140),
    Message('note_on', channel=9, note=64, velocity=60, time=0),
    Message('note_on', channel=9, note=60, velocity=40, time=0),
    Message('note_off', channel=9, note=60, velocity=64, time=100),
    Message('note_off', channel=9, note=64, velocity=64, time=0),
    Message('note_off', channel=9, note=35, velocity=64, time=0),
    Message('note_on', channel=9, note=62, velocity=40, time=140),
    Message('note_on', channel=9, note=60, velocity=50, time=0),
    Message('note_off', channel=9, note=60, velocity=64, time=100),
    Message('note_off', channel=9, note=62, velocity=64, time=0),
    Message('note_on', channel=9, note=62, velocity=50, time=140),
    Message('note_off', channel=9, note=62, velocity=64, time=100),
    Message('note_on', channel=9, note=35, velocity=40, time=140),
    Message('note_on', channel=9, note=62, velocity=60, time=0),
    Message('note_off', channel=9, note=62, velocity=64, time=100),
    Message('note_off', channel=9, note=35, velocity=64, time=0),
    Message('note_on', channel=9, note=60, velocity=50, time=140),
    Message('note_off', channel=9, note=60, velocity=64, time=100),
    Message('note_on', channel=9, note=60, velocity=60, time=140),
    Message('note_off', channel=9, note=60, velocity=64, time=100),
    Message('note_on', channel=9, note=35, velocity=40, time=140),
    Message('note_on', channel=9, note=64, velocity=60, time=0),
    Message('note_off', channel=9, note=64, velocity=64, time=100),
    Message('note_off', channel=9, note=35, velocity=64, time=0),
    Message('note_on', channel=9, note=62, velocity=60, time=140),
    Message('note_off', channel=9, note=62, velocity=64, time=100),
    Message('note_on', channel=9, note=62, velocity=60, time=140),
    Message('note_off', channel=9, note=62, velocity=64, time=100),
    Message('note_on', channel=9, note=35, velocity=40, time=140),
    Message('note_on', channel=9, note=62, velocity=40, time=0),
    Message('note_on', channel=9, note=60, velocity=50, time=0),
    Message('note_off', channel=9, note=60, velocity=64, time=100),
    Message('note_off', channel=9, note=62, velocity=64, time=0),
    Message('note_off', channel=9, note=35, velocity=64, time=0),
    Message('note_on', channel=9, note=60, velocity=50, time=140),
    Message('note_off', channel=9, note=60, velocity=64, time=100),
    Message('note_on', channel=9, note=62, velocity=40, time=140),
    Message('note_on', channel=9, note=60, velocity=60, time=0),
    Message('note_off', channel=9, note=60, velocity=64, time=100),
    Message('note_off', channel=9, note=62, velocity=64, time=0),
    Message('note_on', channel=9, note=35, velocity=50, time=140),
    Message('note_on', channel=9, note=64, velocity=60, time=0),
    Message('note_on', channel=9, note=60, velocity=40, time=0),
    Message('note_off', channel=9, note=60, velocity=64, time=100),
    Message('note_off', channel=9, note=64, velocity=64, time=0),
    Message('note_off', channel=9, note=35, velocity=64, time=0),
    Message('note_on', channel=9, note=62, velocity=40, time=140),
    Message('note_on', channel=9, note=60, velocity=50, time=0),
    Message('note_off', channel=9, note=60, velocity=64, time=100),
    Message('note_off', channel=9, note=62, velocity=64, time=0),
    Message('note_on', channel=9, note=62, velocity=50, time=140),
    Message('note_off', channel=9, note=62, velocity=64, time=100),
    Message('note_on', channel=9, note=35, velocity=40, time=140),
    Message('note_on', channel=9, note=62, velocity=60, time=0),
    Message('note_off', channel=9, note=62, velocity=64, time=100),
    Message('note_off', channel=9, note=35, velocity=64, time=0),
    Message('note_on', channel=9, note=60, velocity=50, time=140),
    Message('note_off', channel=9, note=60, velocity=64, time=100),
    Message('note_on', channel=9, note=60, velocity=60, time=140),
    Message('note_off', channel=9, note=60, velocity=64, time=100),
    Message('note_on', channel=9, note=35, velocity=40, time=140),
    Message('note_on', channel=9, note=64, velocity=60, time=0),
    Message('note_off', channel=9, note=64, velocity=64, time=100),
    Message('note_off', channel=9, note=35, velocity=64, time=0),
    Message('note_on', channel=9, note=62, velocity=60, time=140),
    Message('note_off', channel=9, note=62, velocity=64, time=100),
    Message('note_on', channel=9, note=62, velocity=60, time=140),
    Message('note_off', channel=9, note=62, velocity=64, time=100),
    Message('note_on', channel=9, note=35, velocity=40, time=140),
    Message('note_on', channel=9, note=62, velocity=40, time=0),
    Message('note_on', channel=9, note=60, velocity=50, time=0),
    Message('note_off', channel=9, note=60, velocity=64, time=100),
    Message('note_off', channel=9, note=62, velocity=64, time=0),
    Message('note_off', channel=9, note=35, velocity=64, time=0),
    Message('note_on', channel=9, note=60, velocity=50, time=140),
    Message('note_off', channel=9, note=60, velocity=64, time=100),
    Message('note_on', channel=9, note=62, velocity=40, time=140),
    Message('note_on', channel=9, note=60, velocity=60, time=0),
    Message('note_off', channel=9, note=60, velocity=64, time=100),
    Message('note_off', channel=9, note=62, velocity=64, time=0),
    Message('note_on', channel=9, note=35, velocity=50, time=140),
    Message('note_on', channel=9, note=64, velocity=60, time=0),
    Message('note_on', channel=9, note=60, velocity=40, time=0),
    Message('note_off', channel=9, note=60, velocity=64, time=100),
    Message('note_off', channel=9, note=64, velocity=64, time=0),
    Message('note_off', channel=9, note=35, velocity=64, time=0),
    Message('note_on', channel=9, note=62, velocity=40, time=140),
    Message('note_on', channel=9, note=60, velocity=50, time=0),
    Message('note_off', channel=9, note=60, velocity=64, time=100),
    Message('note_off', channel=9, note=62, velocity=64, time=0),
    Message('note_on', channel=9, note=62, velocity=50, time=140),
    Message('note_off', channel=9, note=62, velocity=64, time=100),
    Message('note_on', channel=9, note=35, velocity=40, time=140),
    Message('note_on', channel=9, note=62, velocity=60, time=0),
    Message('note_on', channel=9, note=52, velocity=50, time=0),
    Message('note_off', channel=9, note=52, velocity=64, time=100),
    Message('note_off', channel=9, note=62, velocity=64, time=0),
    Message('note_off', channel=9, note=35, velocity=64, time=0),
    Message('note_on', channel=9, note=60, velocity=50, time=140),
    Message('note_off', channel=9, note=60, velocity=64, time=100),
    Message('note_on', channel=9, note=60, velocity=60, time=140),
    Message('note_off', channel=9, note=60, velocity=64, time=100),
    Message('note_on', channel=9, note=35, velocity=40, time=140),
    Message('note_on', channel=9, note=64, velocity=60, time=0),
    Message('note_off', channel=9, note=64, velocity=64, time=100),
    Message('note_off', channel=9, note=35, velocity=64, time=0),
    Message('note_on', channel=9, note=62, velocity=60, time=140),
    Message('note_off', channel=9, note=62, velocity=64, time=100),
    Message('note_on', channel=9, note=62, velocity=60, time=140),
    Message('note_off', channel=9, note=62, velocity=64, time=100),
    Message('note_on', channel=9, note=35, velocity=40, time=140),
    Message('note_on', channel=9, note=62, velocity=40, time=0),
    Message('note_on', channel=9, note=60, velocity=50, time=0),
    Message('note_off', channel=9, note=60, velocity=64, time=100),
    Message('note_off', channel=9, note=62, velocity=64, time=0),
    Message('note_off', channel=9, note=35, velocity=64, time=0),
    Message('note_on', channel=9, note=60, velocity=50, time=140),
    Message('note_off', channel=9, note=60, velocity=64, time=100),
    Message('note_on', channel=9, note=62, velocity=40, time=140),
    Message('note_on', channel=9, note=60, velocity=60, time=0),
    Message('note_off', channel=9, note=60, velocity=64, time=100),
    Message('note_off', channel=9, note=62, velocity=64, time=0),
    Message('note_on', channel=9, note=35, velocity=50, time=140),
    Message('note_on', channel=9, note=64, velocity=60, time=0),
    Message('note_on', channel=9, note=60, velocity=40, time=0),
    Message('note_off', channel=9, note=60, velocity=64, time=100),
    Message('note_off', channel=9, note=64, velocity=64, time=0),
    Message('note_off', channel=9, note=35, velocity=64, time=0),
    Message('note_on', channel=9, note=62, velocity=40, time=140),
    Message('note_on', channel=9, note=60, velocity=50, time=0),
    Message('note_off', channel=9, note=60, velocity=64, time=100),
    Message('note_off', channel=9, note=62, velocity=64, time=0),
    Message('note_on', channel=9, note=62, velocity=50, time=140),
    Message('note_off', channel=9, note=62, velocity=64, time=100),
    Message('note_on', channel=9, note=35, velocity=40, time=140),
    Message('note_on', channel=9, note=62, velocity=60, time=0),
    Message('note_off', channel=9, note=62, velocity=64, time=100),
    Message('note_off', channel=9, note=35, velocity=64, time=0),
    Message('note_on', channel=9, note=60, velocity=50, time=140),
    Message('note_off', channel=9, note=60, velocity=64, time=100),
    Message('note_on', channel=9, note=60, velocity=60, time=140),
    Message('note_off', channel=9, note=60, velocity=64, time=100),
    Message('note_on', channel=9, note=35, velocity=40, time=140),
    Message('note_on', channel=9, note=64, velocity=60, time=0),
    Message('note_off', channel=9, note=64, velocity=64, time=100),
    Message('note_off', channel=9, note=35, velocity=64, time=0),
    Message('note_on', channel=9, note=62, velocity=60, time=140),
    Message('note_off', channel=9, note=62, velocity=64, time=100),
    Message('note_on', channel=9, note=62, velocity=60, time=140),
    Message('note_off', channel=9, note=62, velocity=64, time=100),
    Message('note_on', channel=9, note=35, velocity=40, time=140),
    Message('note_on', channel=9, note=62, velocity=40, time=0),
    Message('note_on', channel=9, note=60, velocity=50, time=0),
    Message('note_off', channel=9, note=60, velocity=64, time=100),
    Message('note_off', channel=9, note=62, velocity=64, time=0),
    Message('note_off', channel=9, note=35, velocity=64, time=0),
    Message('note_on', channel=9, note=60, velocity=50, time=140),
    Message('note_off', channel=9, note=60, velocity=64, time=100),
    Message('note_on', channel=9, note=62, velocity=40, time=140),
    Message('note_on', channel=9, note=60, velocity=60, time=0),
    Message('note_off', channel=9, note=60, velocity=64, time=100),
    Message('note_off', channel=9, note=62, velocity=64, time=0),
    Message('note_on', channel=9, note=35, velocity=50, time=140),
    Message('note_on', channel=9, note=64, velocity=60, time=0),
    Message('note_on', channel=9, note=60, velocity=60, time=0),
    Message('note_off', channel=9, note=60, velocity=64, time=100),
    Message('note_off', channel=9, note=64, velocity=64, time=0),
    Message('note_off', channel=9, note=35, velocity=64, time=0),
    Message('note_on', channel=9, note=60, velocity=32, time=80),
    Message('note_on', channel=9, note=62, velocity=40, time=60),
    Message('note_on', channel=9, note=60, velocity=50, time=0),
    Message('note_off', channel=9, note=60, velocity=64, time=40),
    Message('note_off', channel=9, note=62, velocity=64, time=60),
    Message('note_off', channel=9, note=60, velocity=64, time=0),
    Message('note_on', channel=9, note=62, velocity=80, time=140),
    Message('note_on', channel=9, note=60, velocity=60, time=0),
    Message('note_off', channel=9, note=60, velocity=64, time=100),
    Message('note_off', channel=9, note=62, velocity=64, time=0),
    Message('note_on', channel=9, note=62, velocity=50, time=20),
    Message('note_off', channel=9, note=62, velocity=64, time=100),
    Message('note_on', channel=9, note=35, velocity=40, time=20),
    Message('note_on', channel=9, note=62, velocity=60, time=0),
    Message('note_on', channel=9, note=52, velocity=50, time=0),
    Message('note_off', channel=9, note=52, velocity=64, time=100),
    Message('note_off', channel=9, note=62, velocity=64, time=0),
    Message('note_off', channel=9, note=35, velocity=64, time=0),
    Message('note_on', channel=9, note=60, velocity=50, time=140),
    Message('note_off', channel=9, note=60, velocity=64, time=100),
    Message('note_on', channel=9, note=60, velocity=60, time=140),
    Message('note_off', channel=9, note=60, velocity=64, time=100),
    Message('note_on', channel=9, note=35, velocity=40, time=140),
    Message('note_on', channel=9, note=64, velocity=60, time=0),
    Message('note_off', channel=9, note=64, velocity=64, time=100),
    Message('note_off', channel=9, note=35, velocity=64, time=0),
    Message('note_on', channel=9, note=62, velocity=60, time=140),
    Message('note_off', channel=9, note=62, velocity=64, time=100),
    Message('note_on', channel=9, note=62, velocity=60, time=140),
    Message('note_off', channel=9, note=62, velocity=64, time=100),
    Message('note_on', channel=9, note=35, velocity=40, time=140),
    Message('note_on', channel=9, note=62, velocity=40, time=0),
    Message('note_on', channel=9, note=60, velocity=50, time=0),
    Message('note_off', channel=9, note=60, velocity=64, time=100),
    Message('note_off', channel=9, note=62, velocity=64, time=0),
    Message('note_off', channel=9, note=35, velocity=64, time=0),
    Message('note_on', channel=9, note=60, velocity=50, time=140),
    Message('note_off', channel=9, note=60, velocity=64, time=100),
    Message('note_on', channel=9, note=62, velocity=40, time=140),
    Message('note_on', channel=9, note=60, velocity=60, time=0),
    Message('note_off', channel=9, note=60, velocity=64, time=100),
    Message('note_off', channel=9, note=62, velocity=64, time=0),
    Message('note_on', channel=9, note=35, velocity=50, time=140),
    Message('note_on', channel=9, note=64, velocity=60, time=0),
    Message('note_on', channel=9, note=60, velocity=40, time=0),
    Message('note_off', channel=9, note=60, velocity=64, time=100),
    Message('note_off', channel=9, note=64, velocity=64, time=0),
    Message('note_off', channel=9, note=35, velocity=64, time=0),
    Message('note_on', channel=9, note=62, velocity=40, time=140),
    Message('note_on', channel=9, note=60, velocity=50, time=0),
    Message('note_off', channel=9, note=60, velocity=64, time=100),
    Message('note_off', channel=9, note=62, velocity=64, time=0),
    Message('note_on', channel=9, note=62, velocity=50, time=140),
    Message('note_off', channel=9, note=62, velocity=64, time=100),
    Message('note_on', channel=9, note=35, velocity=40, time=140),
    Message('note_on', channel=9, note=62, velocity=60, time=0),
    Message('note_off', channel=9, note=62, velocity=64, time=100),
    Message('note_off', channel=9, note=35, velocity=64, time=0),
    Message('note_on', channel=9, note=60, velocity=50, time=140),
    Message('note_off', channel=9, note=60, velocity=64, time=100),
    Message('note_on', channel=9, note=60, velocity=60, time=140),
    Message('note_off', channel=9, note=60, velocity=64, time=100),
    Message('note_on', channel=9, note=35, velocity=40, time=140),
    Message('note_on', channel=9, note=64, velocity=60, time=0),
    Message('note_off', channel=9, note=64, velocity=64, time=100),
    Message('note_off', channel=9, note=35, velocity=64, time=0),
    Message('note_on', channel=9, note=62, velocity=60, time=140),
    Message('note_off', channel=9, note=62, velocity=64, time=100),
    Message('note_on', channel=9, note=62, velocity=60, time=140),
    Message('note_off', channel=9, note=62, velocity=64, time=100),
    Message('note_on', channel=9, note=35, velocity=40, time=140),
    Message('note_on', channel=9, note=62, velocity=40, time=0),
    Message('note_on', channel=9, note=60, velocity=50, time=0),
    Message('note_off', channel=9, note=60, velocity=64, time=100),
    Message('note_off', channel=9, note=62, velocity=64, time=0),
    Message('note_off', channel=9, note=35, velocity=64, time=0),
    Message('note_on', channel=9, note=60, velocity=50, time=140),
    Message('note_off', channel=9, note=60, velocity=64, time=100),
    Message('note_on', channel=9, note=62, velocity=40, time=140),
    Message('note_on', channel=9, note=60, velocity=60, time=0),
    Message('note_off', channel=9, note=60, velocity=64, time=100),
    Message('note_off', channel=9, note=62, velocity=64, time=0),
    Message('note_on', channel=9, note=35, velocity=50, time=140),
    Message('note_on', channel=9, note=64, velocity=60, time=0),
    Message('note_on', channel=9, note=60, velocity=40, time=0),
    Message('note_off', channel=9, note=60, velocity=64, time=100),
    Message('note_off', channel=9, note=64, velocity=64, time=0),
    Message('note_off', channel=9, note=35, velocity=64, time=0),
    Message('note_on', channel=9, note=62, velocity=40, time=140),
    Message('note_on', channel=9, note=60, velocity=50, time=0),
    Message('note_off', channel=9, note=60, velocity=64, time=100),
    Message('note_off', channel=9, note=62, velocity=64, time=0),
    Message('note_on', channel=9, note=62, velocity=50, time=140),
    Message('note_off', channel=9, note=62, velocity=64, time=100),
    Message('note_on', channel=9, note=35, velocity=40, time=140),
    Message('note_on', channel=9, note=62, velocity=60, time=0),
    Message('note_on', channel=9, note=52, velocity=50, time=0),
    Message('note_off', channel=9, note=52, velocity=64, time=100),
    Message('note_off', channel=9, note=62, velocity=64, time=0),
    Message('note_off', channel=9, note=35, velocity=64, time=0),
    Message('note_on', channel=9, note=60, velocity=50, time=140),
    Message('note_off', channel=9, note=60, velocity=64, time=100),
    Message('note_on', channel=9, note=60, velocity=60, time=140),
    Message('note_off', channel=9, note=60, velocity=64, time=100),
    Message('note_on', channel=9, note=35, velocity=40, time=140),
    Message('note_on', channel=9, note=64, velocity=60, time=0),
    Message('note_off', channel=9, note=64, velocity=64, time=100),
    Message('note_off', channel=9, note=35, velocity=64, time=0),
    Message('note_on', channel=9, note=62, velocity=60, time=140),
    Message('note_off', channel=9, note=62, velocity=64, time=100),
    Message('note_on', channel=9, note=62, velocity=60, time=140),
    Message('note_off', channel=9, note=62, velocity=64, time=100),
    Message('note_on', channel=9, note=35, velocity=40, time=140),
    Message('note_on', channel=9, note=62, velocity=40, time=0),
    Message('note_on', channel=9, note=60, velocity=50, time=0),
    Message('note_off', channel=9, note=60, velocity=64, time=100),
    Message('note_off', channel=9, note=62, velocity=64, time=0),
    Message('note_off', channel=9, note=35, velocity=64, time=0),
    Message('note_on', channel=9, note=60, velocity=50, time=140),
    Message('note_off', channel=9, note=60, velocity=64, time=100),
    Message('note_on', channel=9, note=62, velocity=40, time=140),
    Message('note_on', channel=9, note=60, velocity=60, time=0),
    Message('note_off', channel=9, note=60, velocity=64, time=100),
    Message('note_off', channel=9, note=62, velocity=64, time=0),
    Message('note_on', channel=9, note=35, velocity=50, time=140),
    Message('note_on', channel=9, note=64, velocity=60, time=0),
    Message('note_on', channel=9, note=60, velocity=40, time=0),
    Message('note_off', channel=9, note=60, velocity=64, time=100),
    Message('note_off', channel=9, note=64, velocity=64, time=0),
    Message('note_off', channel=9, note=35, velocity=64, time=0),
    Message('note_on', channel=9, note=62, velocity=40, time=140),
    Message('note_on', channel=9, note=60, velocity=50, time=0),
    Message('note_off', channel=9, note=60, velocity=64, time=100),
    Message('note_off', channel=9, note=62, velocity=64, time=0),
    Message('note_on', channel=9, note=62, velocity=50, time=140),
    Message('note_off', channel=9, note=62, velocity=64, time=100),
    Message('note_on', channel=9, note=35, velocity=40, time=140),
    Message('note_on', channel=9, note=62, velocity=60, time=0),
    Message('note_on', channel=9, note=52, velocity=50, time=0),
    Message('note_off', channel=9, note=52, velocity=64, time=100),
    Message('note_off', channel=9, note=62, velocity=64, time=0),
    Message('note_off', channel=9, note=35, velocity=64, time=0),
    Message('note_on', channel=9, note=60, velocity=50, time=140),
    Message('note_off', channel=9, note=60, velocity=64, time=100),
    Message('note_on', channel=9, note=60, velocity=60, time=140),
    Message('note_off', channel=9, note=60, velocity=64, time=100),
    Message('note_on', channel=9, note=35, velocity=50, time=140),
    Message('note_on', channel=9, note=64, velocity=60, time=0),
    Message('note_off', channel=9, note=64, velocity=64, time=100),
    Message('note_off', channel=9, note=35, velocity=64, time=0),
    Message('note_on', channel=9, note=62, velocity=60, time=140),
    Message('note_off', channel=9, note=62, velocity=64, time=100),
    Message('note_on', channel=9, note=62, velocity=60, time=140),
    Message('note_off', channel=9, note=62, velocity=64, time=100),
    Message('note_on', channel=9, note=35, velocity=40, time=140),
    Message('note_on', channel=9, note=62, velocity=40, time=0),
    Message('note_on', channel=9, note=60, velocity=50, time=0),
    Message('note_off', channel=9, note=60, velocity=64, time=100),
    Message('note_off', channel=9, note=62, velocity=64, time=0),
    Message('note_off', channel=9, note=35, velocity=64, time=0),
    Message('note_on', channel=9, note=60, velocity=50, time=140),
    Message('note_off', channel=9, note=60, velocity=64, time=100),
    Message('note_on', channel=9, note=62, velocity=40, time=140),
    Message('note_on', channel=9, note=60, velocity=60, time=0),
    Message('note_off', channel=9, note=60, velocity=64, time=100),
    Message('note_off', channel=9, note=62, velocity=64, time=0),
    Message('note_on', channel=9, note=35, velocity=50, time=140),
    Message('note_on', channel=9, note=64, velocity=60, time=0),
    Message('note_on', channel=9, note=60, velocity=60, time=0),
    Message('note_off', channel=9, note=60, velocity=64, time=100),
    Message('note_off', channel=9, note=64, velocity=64, time=0),
    Message('note_off', channel=9, note=35, velocity=64, time=0),
    Message('note_on', channel=9, note=60, velocity=32, time=80),
    Message('note_on', channel=9, note=62, velocity=40, time=60),
    Message('note_on', channel=9, note=60, velocity=50, time=0),
    Message('note_off', channel=9, note=60, velocity=64, time=40),
    Message('note_off', channel=9, note=62, velocity=64, time=60),
    Message('note_off', channel=9, note=60, velocity=64, time=0),
    Message('note_on', channel=9, note=62, velocity=80, time=140),
    Message('note_on', channel=9, note=60, velocity=60, time=0),
    Message('note_off', channel=9, note=60, velocity=64, time=100),
    Message('note_off', channel=9, note=62, velocity=64, time=0),
    Message('note_on', channel=9, note=62, velocity=50, time=20),
    Message('note_off', channel=9, note=62, velocity=64, time=100),
    Message('note_on', channel=9, note=35, velocity=40, time=20),
    Message('note_on', channel=9, note=62, velocity=60, time=0),
    Message('note_on', channel=9, note=52, velocity=50, time=0),
    Message('note_off', channel=9, note=52, velocity=64, time=100),
    Message('note_off', channel=9, note=62, velocity=64, time=0),
    Message('note_off', channel=9, note=35, velocity=64, time=0),
    Message('note_on', channel=9, note=60, velocity=50, time=140),
    Message('note_off', channel=9, note=60, velocity=64, time=100),
    Message('note_on', channel=9, note=60, velocity=60, time=140),
    Message('note_off', channel=9, note=60, velocity=64, time=100),
    Message('note_on', channel=9, note=35, velocity=40, time=140),
    Message('note_on', channel=9, note=64, velocity=60, time=0),
    Message('note_off', channel=9, note=64, velocity=64, time=100),
    Message('note_off', channel=9, note=35, velocity=64, time=0),
    Message('note_on', channel=9, note=62, velocity=60, time=140),
    Message('note_off', channel=9, note=62, velocity=64, time=100),
    Message('note_on', channel=9, note=62, velocity=60, time=140),
    Message('note_off', channel=9, note=62, velocity=64, time=100),
    Message('note_on', channel=9, note=35, velocity=40, time=140),
    Message('note_on', channel=9, note=62, velocity=40, time=0),
    Message('note_on', channel=9, note=60, velocity=50, time=0),
    Message('note_off', channel=9, note=60, velocity=64, time=100),
    Message('note_off', channel=9, note=62, velocity=64, time=0),
    Message('note_off', channel=9, note=35, velocity=64, time=0),
    Message('note_on', channel=9, note=60, velocity=50, time=140),
    Message('note_off', channel=9, note=60, velocity=64, time=100),
    Message('note_on', channel=9, note=62, velocity=40, time=140),
    Message('note_on', channel=9, note=60, velocity=60, time=0),
    Message('note_off', channel=9, note=60, velocity=64, time=100),
    Message('note_off', channel=9, note=62, velocity=64, time=0),
    Message('note_on', channel=9, note=35, velocity=50, time=140),
    Message('note_on', channel=9, note=64, velocity=60, time=0),
    Message('note_on', channel=9, note=60, velocity=40, time=0),
    Message('note_off', channel=9, note=60, velocity=64, time=100),
    Message('note_off', channel=9, note=64, velocity=64, time=0),
    Message('note_off', channel=9, note=35, velocity=64, time=0),
    Message('note_on', channel=9, note=62, velocity=40, time=140),
    Message('note_on', channel=9, note=60, velocity=50, time=0),
    Message('note_off', channel=9, note=60, velocity=64, time=100),
    Message('note_off', channel=9, note=62, velocity=64, time=0),
    Message('note_on', channel=9, note=62, velocity=50, time=140),
    Message('note_off', channel=9, note=62, velocity=64, time=100),
    Message('note_on', channel=9, note=35, velocity=40, time=140),
    Message('note_on', channel=9, note=62, velocity=60, time=0),
    Message('note_on', channel=9, note=52, velocity=50, time=0),
    Message('note_off', channel=9, note=52, velocity=64, time=100),
    Message('note_off', channel=9, note=62, velocity=64, time=0),
    Message('note_off', channel=9, note=35, velocity=64, time=0),
    Message('note_on', channel=9, note=60, velocity=50, time=140),
    Message('note_off', channel=9, note=60, velocity=64, time=100),
    Message('note_on', channel=9, note=60, velocity=60, time=140),
    Message('note_off', channel=9, note=60, velocity=64, time=100),
    Message('note_on', channel=9, note=35, velocity=50, time=140),
    Message('note_on', channel=9, note=64, velocity=60, time=0),
    Message('note_off', channel=9, note=64, velocity=64, time=100),
    Message('note_off', channel=9, note=35, velocity=64, time=0),
    Message('note_on', channel=9, note=62, velocity=60, time=140),
    Message('note_off', channel=9, note=62, velocity=64, time=100),
    Message('note_on', channel=9, note=62, velocity=60, time=140),
    Message('note_off', channel=9, note=62, velocity=64, time=100),
    Message('note_on', channel=9, note=35, velocity=40, time=140),
    Message('note_on', channel=9, note=62, velocity=40, time=0),
    Message('note_on', channel=9, note=60, velocity=50, time=0),
    Message('note_off', channel=9, note=60, velocity=64, time=100),
    Message('note_off', channel=9, note=62, velocity=64, time=0),
    Message('note_off', channel=9, note=35, velocity=64, time=0),
    Message('note_on', channel=9, note=60, velocity=50, time=140),
    Message('note_off', channel=9, note=60, velocity=64, time=100),
    Message('note_on', channel=9, note=62, velocity=40, time=140),
    Message('note_on', channel=9, note=60, velocity=60, time=0),
    Message('note_off', channel=9, note=60, velocity=64, time=100),
    Message('note_off', channel=9, note=62, velocity=64, time=0),
    Message('note_on', channel=9, note=35, velocity=50, time=140),
    Message('note_on', channel=9, note=64, velocity=80, time=0),
    Message('note_on', channel=9, note=60, velocity=70, time=0),
    Message('note_off', channel=9, note=60, velocity=64, time=100),
    Message('note_off', channel=9, note=64, velocity=64, time=0),
    Message('note_off', channel=9, note=35, velocity=64, time=0),
    Message('note_on', channel=9, note=62, velocity=80, time=140),
    Message('note_on', channel=9, note=60, velocity=70, time=0),
    Message('note_off', channel=9, note=60, velocity=64, time=100),
    Message('note_off', channel=9, note=62, velocity=64, time=0),
    Message('note_on', channel=9, note=62, velocity=60, time=140),
    Message('note_off', channel=9, note=62, velocity=64, time=100),
    Message('note_on', channel=9, note=35, velocity=40, time=140),
    Message('note_on', channel=9, note=62, velocity=60, time=0),
    Message('note_off', channel=9, note=62, velocity=64, time=100),
    Message('note_off', channel=9, note=35, velocity=64, time=0),
    Message('note_on', channel=9, note=60, velocity=50, time=140),
    Message('note_off', channel=9, note=60, velocity=64, time=100),
    Message('note_on', channel=9, note=60, velocity=60, time=140),
    Message('note_off', channel=9, note=60, velocity=64, time=100),
    Message('note_on', channel=9, note=35, velocity=40, time=140),
    Message('note_on', channel=9, note=64, velocity=60, time=0),
    Message('note_off', channel=9, note=64, velocity=64, time=100),
    Message('note_off', channel=9, note=35, velocity=64, time=0),
    Message('note_on', channel=9, note=62, velocity=60, time=140),
    Message('note_off', channel=9, note=62, velocity=64, time=100),
    Message('note_on', channel=9, note=62, velocity=60, time=140),
    Message('note_off', channel=9, note=62, velocity=64, time=100),
    Message('note_on', channel=9, note=35, velocity=40, time=140),
    Message('note_on', channel=9, note=62, velocity=40, time=0),
    Message('note_on', channel=9, note=60, velocity=50, time=0),
    Message('note_off', channel=9, note=60, velocity=64, time=100),
    Message('note_off', channel=9, note=62, velocity=64, time=0),
    Message('note_off', channel=9, note=35, velocity=64, time=0),
    Message('note_on', channel=9, note=60, velocity=50, time=140),
    Message('note_off', channel=9, note=60, velocity=64, time=100),
    Message('note_on', channel=9, note=62, velocity=40, time=140),
    Message('note_on', channel=9, note=60, velocity=60, time=0),
    Message('note_off', channel=9, note=60, velocity=64, time=100),
    Message('note_off', channel=9, note=62, velocity=64, time=0),
    Message('note_on', channel=9, note=35, velocity=50, time=140),
    Message('note_on', channel=9, note=64, velocity=60, time=0),
    Message('note_on', channel=9, note=60, velocity=40, time=0),
    Message('note_off', channel=9, note=60, velocity=64, time=100),
    Message('note_off', channel=9, note=64, velocity=64, time=0),
    Message('note_off', channel=9, note=35, velocity=64, time=0),
    Message('note_on', channel=9, note=62, velocity=40, time=140),
    Message('note_on', channel=9, note=60, velocity=50, time=0),
    Message('note_off', channel=9, note=60, velocity=64, time=100),
    Message('note_off', channel=9, note=62, velocity=64, time=0),
    Message('note_on', channel=9, note=62, velocity=50, time=140),
    Message('note_off', channel=9, note=62, velocity=64, time=100),
    Message('note_on', channel=9, note=35, velocity=40, time=140),
    Message('note_on', channel=9, note=62, velocity=60, time=0),
    Message('note_off', channel=9, note=62, velocity=64, time=100),
    Message('note_off', channel=9, note=35, velocity=64, time=0),
    Message('note_on', channel=9, note=60, velocity=50, time=140),
    Message('note_off', channel=9, note=60, velocity=64, time=100),
    Message('note_on', channel=9, note=60, velocity=60, time=140),
    Message('note_off', channel=9, note=60, velocity=64, time=100),
    Message('note_on', channel=9, note=35, velocity=50, time=140),
    Message('note_on', channel=9, note=64, velocity=60, time=0),
    Message('note_off', channel=9, note=64, velocity=64, time=100),
    Message('note_off', channel=9, note=35, velocity=64, time=0),
    Message('note_on', channel=9, note=62, velocity=60, time=140),
    Message('note_off', channel=9, note=62, velocity=64, time=100),
    Message('note_on', channel=9, note=62, velocity=60, time=140),
    Message('note_off', channel=9, note=62, velocity=64, time=100),
    Message('note_on', channel=9, note=35, velocity=40, time=140),
    Message('note_on', channel=9, note=62, velocity=40, time=0),
    Message('note_on', channel=9, note=60, velocity=50, time=0),
    Message('note_off', channel=9, note=60, velocity=64, time=100),
    Message('note_off', channel=9, note=62, velocity=64, time=0),
    Message('note_off', channel=9, note=35, velocity=64, time=0),
    Message('note_on', channel=9, note=60, velocity=50, time=140),
    Message('note_off', channel=9, note=60, velocity=64, time=100),
    Message('note_on', channel=9, note=62, velocity=40, time=140),
    Message('note_on', channel=9, note=60, velocity=60, time=0),
    Message('note_off', channel=9, note=60, velocity=64, time=100),
    Message('note_off', channel=9, note=62, velocity=64, time=0),
    Message('note_on', channel=9, note=35, velocity=50, time=140),
    Message('note_on', channel=9, note=64, velocity=60, time=0),
    Message('note_on', channel=9, note=60, velocity=40, time=0),
    Message('note_off', channel=9, note=60, velocity=64, time=100),
    Message('note_off', channel=9, note=64, velocity=64, time=0),
    Message('note_off', channel=9, note=35, velocity=64, time=0),
    Message('note_on', channel=9, note=62, velocity=40, time=140),
    Message('note_on', channel=9, note=60, velocity=50, time=0),
    Message('note_off', channel=9, note=60, velocity=64, time=100),
    Message('note_off', channel=9, note=62, velocity=64, time=0),
    Message('note_on', channel=9, note=62, velocity=50, time=140),
    Message('note_off', channel=9, note=62, velocity=64, time=100),
    Message('note_on', channel=9, note=35, velocity=40, time=140),
    Message('note_on', channel=9, note=62, velocity=60, time=0),
    Message('note_off', channel=9, note=62, velocity=64, time=100),
    Message('note_off', channel=9, note=35, velocity=64, time=0),
    Message('note_on', channel=9, note=60, velocity=50, time=140),
    Message('note_off', channel=9, note=60, velocity=64, time=100),
    Message('note_on', channel=9, note=60, velocity=60, time=140),
    Message('note_off', channel=9, note=60, velocity=64, time=100),
    Message('note_on', channel=9, note=35, velocity=40, time=140),
    Message('note_on', channel=9, note=64, velocity=60, time=0),
    Message('note_off', channel=9, note=64, velocity=64, time=100),
    Message('note_off', channel=9, note=35, velocity=64, time=0),
    Message('note_on', channel=9, note=62, velocity=60, time=140),
    Message('note_off', channel=9, note=62, velocity=64, time=100),
    Message('note_on', channel=9, note=62, velocity=60, time=140),
    Message('note_off', channel=9, note=62, velocity=64, time=100),
    Message('note_on', channel=9, note=35, velocity=40, time=140),
    Message('note_on', channel=9, note=62, velocity=40, time=0),
    Message('note_on', channel=9, note=60, velocity=50, time=0),
    Message('note_off', channel=9, note=60, velocity=64, time=100),
    Message('note_off', channel=9, note=62, velocity=64, time=0),
    Message('note_off', channel=9, note=35, velocity=64, time=0),
    Message('note_on', channel=9, note=60, velocity=50, time=140),
    Message('note_off', channel=9, note=60, velocity=64, time=100),
    Message('note_on', channel=9, note=62, velocity=40, time=140),
    Message('note_on', channel=9, note=60, velocity=60, time=0),
    Message('note_off', channel=9, note=60, velocity=64, time=100),
    Message('note_off', channel=9, note=62, velocity=64, time=0),
    Message('note_on', channel=9, note=35, velocity=50, time=140),
    Message('note_on', channel=9, note=64, velocity=60, time=0),
    Message('note_on', channel=9, note=60, velocity=40, time=0),
    Message('note_off', channel=9, note=60, velocity=64, time=100),
    Message('note_off', channel=9, note=64, velocity=64, time=0),
    Message('note_off', channel=9, note=35, velocity=64, time=0),
    Message('note_on', channel=9, note=62, velocity=40, time=140),
    Message('note_on', channel=9, note=60, velocity=50, time=0),
    Message('note_off', channel=9, note=60, velocity=64, time=100),
    Message('note_off', channel=9, note=62, velocity=64, time=0),
    Message('note_on', channel=9, note=62, velocity=50, time=140),
    Message('note_off', channel=9, note=62, velocity=64, time=100),
    Message('note_on', channel=9, note=35, velocity=40, time=140),
    Message('note_on', channel=9, note=62, velocity=60, time=0),
    Message('note_on', channel=9, note=52, velocity=50, time=0),
    Message('note_off', channel=9, note=52, velocity=64, time=100),
    Message('note_off', channel=9, note=62, velocity=64, time=0),
    Message('note_off', channel=9, note=35, velocity=64, time=0),
    Message('note_on', channel=9, note=60, velocity=50, time=140),
    Message('note_off', channel=9, note=60, velocity=64, time=100),
    Message('note_on', channel=9, note=60, velocity=60, time=140),
    Message('note_off', channel=9, note=60, velocity=64, time=100),
    Message('note_on', channel=9, note=35, velocity=50, time=140),
    Message('note_on', channel=9, note=64, velocity=60, time=0),
    Message('note_off', channel=9, note=64, velocity=64, time=100),
    Message('note_off', channel=9, note=35, velocity=64, time=0),
    Message('note_on', channel=9, note=62, velocity=60, time=140),
    Message('note_off', channel=9, note=62, velocity=64, time=100),
    Message('note_on', channel=9, note=62, velocity=60, time=140),
    Message('note_off', channel=9, note=62, velocity=64, time=100),
    Message('note_on', channel=9, note=35, velocity=40, time=140),
    Message('note_on', channel=9, note=62, velocity=40, time=0),
    Message('note_on', channel=9, note=60, velocity=50, time=0),
    Message('note_off', channel=9, note=60, velocity=64, time=100),
    Message('note_off', channel=9, note=62, velocity=64, time=0),
    Message('note_off', channel=9, note=35, velocity=64, time=0),
    Message('note_on', channel=9, note=60, velocity=50, time=140),
    Message('note_off', channel=9, note=60, velocity=64, time=100),
    Message('note_on', channel=9, note=62, velocity=40, time=140),
    Message('note_on', channel=9, note=60, velocity=60, time=0),
    Message('note_off', channel=9, note=60, velocity=64, time=100),
    Message('note_off', channel=9, note=62, velocity=64, time=0),
    Message('note_on', channel=9, note=35, velocity=50, time=140),
    Message('note_on', channel=9, note=64, velocity=60, time=0),
    Message('note_on', channel=9, note=60, velocity=40, time=0),
    Message('note_off', channel=9, note=60, velocity=64, time=100),
    Message('note_off', channel=9, note=64, velocity=64, time=0),
    Message('note_off', channel=9, note=35, velocity=64, time=0),
    Message('note_on', channel=9, note=62, velocity=40, time=140),
    Message('note_on', channel=9, note=60, velocity=50, time=0),
    Message('note_off', channel=9, note=60, velocity=64, time=100),
    Message('note_off', channel=9, note=62, velocity=64, time=0),
    Message('note_on', channel=9, note=62, velocity=50, time=140),
    Message('note_off', channel=9, note=62, velocity=64, time=100),
    Message('note_on', channel=9, note=35, velocity=40, time=140),
    Message('note_on', channel=9, note=62, velocity=60, time=0),
    Message('note_off', channel=9, note=62, velocity=64, time=100),
    Message('note_off', channel=9, note=35, velocity=64, time=0),
    Message('note_on', channel=9, note=60, velocity=50, time=140),
    Message('note_off', channel=9, note=60, velocity=64, time=100),
    Message('note_on', channel=9, note=60, velocity=60, time=140),
    Message('note_off', channel=9, note=60, velocity=64, time=100),
    Message('note_on', channel=9, note=35, velocity=40, time=140),
    Message('note_on', channel=9, note=64, velocity=60, time=0),
    Message('note_off', channel=9, note=64, velocity=64, time=100),
    Message('note_off', channel=9, note=35, velocity=64, time=0),
    Message('note_on', channel=9, note=62, velocity=60, time=140),
    Message('note_off', channel=9, note=62, velocity=64, time=100),
    Message('note_on', channel=9, note=62, velocity=60, time=140),
    Message('note_off', channel=9, note=62, velocity=64, time=100),
    Message('note_on', channel=9, note=35, velocity=40, time=140),
    Message('note_on', channel=9, note=62, velocity=40, time=0),
    Message('note_on', channel=9, note=60, velocity=50, time=0),
    Message('note_off', channel=9, note=60, velocity=64, time=100),
    Message('note_off', channel=9, note=62, velocity=64, time=0),
    Message('note_off', channel=9, note=35, velocity=64, time=0),
    Message('note_on', channel=9, note=60, velocity=50, time=140),
    Message('note_off', channel=9, note=60, velocity=64, time=100),
    Message('note_on', channel=9, note=62, velocity=40, time=140),
    Message('note_on', channel=9, note=60, velocity=60, time=0),
    Message('note_off', channel=9, note=60, velocity=64, time=100),
    Message('note_off', channel=9, note=62, velocity=64, time=0),
    Message('note_on', channel=9, note=35, velocity=50, time=140),
    Message('note_on', channel=9, note=64, velocity=60, time=0),
    Message('note_on', channel=9, note=60, velocity=40, time=0),
    Message('note_off', channel=9, note=60, velocity=64, time=100),
    Message('note_off', channel=9, note=64, velocity=64, time=0),
    Message('note_off', channel=9, note=35, velocity=64, time=0),
    Message('note_on', channel=9, note=62, velocity=40, time=140),
    Message('note_on', channel=9, note=60, velocity=50, time=0),
    Message('note_off', channel=9, note=60, velocity=64, time=100),
    Message('note_off', channel=9, note=62, velocity=64, time=0),
    Message('note_on', channel=9, note=62, velocity=50, time=140),
    Message('note_off', channel=9, note=62, velocity=64, time=100),
    Message('note_on', channel=9, note=35, velocity=40, time=140),
    Message('note_on', channel=9, note=62, velocity=60, time=0),
    Message('note_off', channel=9, note=62, velocity=64, time=100),
    Message('note_off', channel=9, note=35, velocity=64, time=0),
    Message('note_on', channel=9, note=60, velocity=50, time=140),
    Message('note_off', channel=9, note=60, velocity=64, time=100),
    Message('note_on', channel=9, note=60, velocity=60, time=140),
    Message('note_off', channel=9, note=60, velocity=64, time=100),
    Message('note_on', channel=9, note=35, velocity=40, time=140),
    Message('note_on', channel=9, note=64, velocity=60, time=0),
    Message('note_off', channel=9, note=64, velocity=64, time=100),
    Message('note_off', channel=9, note=35, velocity=64, time=0),
    Message('note_on', channel=9, note=62, velocity=60, time=140),
    Message('note_off', channel=9, note=62, velocity=64, time=100),
    Message('note_on', channel=9, note=62, velocity=60, time=140),
    Message('note_off', channel=9, note=62, velocity=64, time=100),
    Message('note_on', channel=9, note=35, velocity=40, time=140),
    Message('note_on', channel=9, note=62, velocity=40, time=0),
    Message('note_on', channel=9, note=60, velocity=50, time=0),
    Message('note_off', channel=9, note=60, velocity=64, time=100),
    Message('note_off', channel=9, note=62, velocity=64, time=0),
    Message('note_off', channel=9, note=35, velocity=64, time=0),
    Message('note_on', channel=9, note=60, velocity=50, time=140),
    Message('note_off', channel=9, note=60, velocity=64, time=100),
    Message('note_on', channel=9, note=62, velocity=40, time=140),
    Message('note_on', channel=9, note=60, velocity=60, time=0),
    Message('note_off', channel=9, note=60, velocity=64, time=100),
    Message('note_off', channel=9, note=62, velocity=64, time=0),
    Message('note_on', channel=9, note=35, velocity=50, time=140),
    Message('note_on', channel=9, note=64, velocity=80, time=0),
    Message('note_on', channel=9, note=60, velocity=70, time=0),
    Message('note_off', channel=9, note=60, velocity=64, time=100),
    Message('note_off', channel=9, note=64, velocity=64, time=0),
    Message('note_off', channel=9, note=35, velocity=64, time=0),
    Message('note_on', channel=9, note=62, velocity=80, time=140),
    Message('note_on', channel=9, note=60, velocity=70, time=0),
    Message('note_off', channel=9, note=60, velocity=64, time=100),
    Message('note_off', channel=9, note=62, velocity=64, time=0),
    Message('note_on', channel=9, note=62, velocity=60, time=140),
    Message('note_off', channel=9, note=62, velocity=64, time=100),
    Message('note_on', channel=9, note=35, velocity=20, time=140),
    Message('note_on', channel=9, note=52, velocity=50, time=0),
    Message('note_off', channel=9, note=52, velocity=64, time=100),
    Message('note_off', channel=9, note=35, velocity=64, time=0),
    Message('note_on', channel=9, note=35, velocity=20, time=1340),
    Message('note_off', channel=9, note=35, velocity=64, time=100),
    Message('note_on', channel=9, note=81, velocity=10, time=380),
    Message('note_off', channel=9, note=81, velocity=64, time=100),
    Message('note_on', channel=9, note=35, velocity=20, time=380),
    Message('note_off', channel=9, note=35, velocity=64, time=100),
    Message('note_on', channel=9, note=35, velocity=20, time=380),
    Message('note_off', channel=9, note=35, velocity=64, time=100),
    Message('note_on', channel=9, note=35, velocity=20, time=1340),
    Message('note_off', channel=9, note=35, velocity=64, time=100),
    Message('note_on', channel=9, note=35, velocity=20, time=860),
    Message('note_off', channel=9, note=35, velocity=64, time=100),
    Message('note_on', channel=9, note=35, velocity=20, time=380),
    Message('note_off', channel=9, note=35, velocity=64, time=100),
    Message('note_on', channel=9, note=35, velocity=20, time=1340),
    Message('note_off', channel=9, note=35, velocity=64, time=100),
    Message('note_on', channel=9, note=81, velocity=10, time=380),
    Message('note_off', channel=9, note=81, velocity=64, time=100),
    Message('note_on', channel=9, note=35, velocity=20, time=380),
    Message('note_off', channel=9, note=35, velocity=64, time=100),
    Message('note_on', channel=9, note=35, velocity=20, time=380),
    Message('note_off', channel=9, note=35, velocity=64, time=100),
    Message('note_on', channel=9, note=35, velocity=20, time=1340),
    Message('note_off', channel=9, note=35, velocity=64, time=100),
    Message('note_on', channel=9, note=81, velocity=10, time=380),
    Message('note_off', channel=9, note=81, velocity=64, time=100),
    Message('note_on', channel=9, note=35, velocity=20, time=380),
    Message('note_off', channel=9, note=35, velocity=64, time=100),
    Message('note_on', channel=9, note=35, velocity=20, time=380),
    Message('note_off', channel=9, note=35, velocity=64, time=100),
    Message('note_on', channel=9, note=35, velocity=20, time=1340),
    Message('note_off', channel=9, note=35, velocity=64, time=100),
    Message('note_on', channel=9, note=81, velocity=10, time=380),
    Message('note_off', channel=9, note=81, velocity=64, time=100),
    Message('note_on', channel=9, note=35, velocity=20, time=380),
    Message('note_off', channel=9, note=35, velocity=64, time=100),
    Message('note_on', channel=9, note=35, velocity=20, time=380),
    Message('note_off', channel=9, note=35, velocity=64, time=100),
    Message('note_on', channel=9, note=35, velocity=20, time=1340),
    Message('note_off', channel=9, note=35, velocity=64, time=100),
    Message('note_on', channel=9, note=35, velocity=20, time=1340),
    Message('note_off', channel=9, note=35, velocity=64, time=100),
    Message('note_on', channel=9, note=35, velocity=20, time=1340),
    Message('note_off', channel=9, note=35, velocity=64, time=100),
    Message('note_on', channel=9, note=35, velocity=20, time=860),
    Message('note_off', channel=9, note=35, velocity=64, time=100),
    Message('note_on', channel=9, note=35, velocity=20, time=380),
    Message('note_off', channel=9, note=35, velocity=64, time=100),
    Message('note_on', channel=9, note=35, velocity=20, time=1340),
    Message('note_off', channel=9, note=35, velocity=64, time=100),
    Message('note_on', channel=9, note=81, velocity=10, time=380),
    Message('note_off', channel=9, note=81, velocity=64, time=100),
    Message('note_on', channel=9, note=35, velocity=20, time=380),
    Message('note_off', channel=9, note=35, velocity=64, time=100),
    Message('note_on', channel=9, note=35, velocity=20, time=380),
    Message('note_off', channel=9, note=35, velocity=64, time=100),
    Message('note_on', channel=9, note=35, velocity=20, time=1340),
    Message('note_off', channel=9, note=35, velocity=64, time=100),
    Message('note_on', channel=9, note=81, velocity=10, time=380),
    Message('note_off', channel=9, note=81, velocity=64, time=100),
    Message('note_on', channel=9, note=35, velocity=20, time=380),
    Message('note_off', channel=9, note=35, velocity=64, time=100),
    Message('note_on', channel=9, note=35, velocity=20, time=380),
    Message('note_off', channel=9, note=35, velocity=64, time=100),
    Message('note_on', channel=9, note=35, velocity=20, time=1340),
    Message('note_off', channel=9, note=35, velocity=64, time=100),
    Message('note_on', channel=9, note=35, velocity=20, time=860),
    Message('note_off', channel=9, note=35, velocity=64, time=100),
    Message('note_on', channel=9, note=35, velocity=20, time=380),
    Message('note_off', channel=9, note=35, velocity=64, time=100),
    Message('note_on', channel=9, note=35, velocity=20, time=1340),
    Message('note_off', channel=9, note=35, velocity=64, time=100),
    Message('note_on', channel=9, note=81, velocity=10, time=380),
    Message('note_off', channel=9, note=81, velocity=64, time=100),
    Message('note_on', channel=9, note=35, velocity=20, time=380),
    Message('note_off', channel=9, note=35, velocity=64, time=100),
    Message('note_on', channel=9, note=35, velocity=20, time=380),
    Message('note_off', channel=9, note=35, velocity=64, time=100),
    Message('note_on', channel=9, note=35, velocity=20, time=1340),
    Message('note_off', channel=9, note=35, velocity=64, time=100),
    MetaMessage('end_of_track', time=0)]),
  MidiTrack([
    MetaMessage('track_name', name='Scarborough Fair', time=0),
    MetaMessage('midi_port', port=0, time=0),
    MetaMessage('end_of_track', time=0)]),
  MidiTrack([
    MetaMessage('track_name', name='"Traditional"', time=0),
    MetaMessage('midi_port', port=0, time=0),
    MetaMessage('end_of_track', time=0)]),
  MidiTrack([
    MetaMessage('track_name', name='Arangement by:', time=0),
    MetaMessage('midi_port', port=0, time=0),
    MetaMessage('end_of_track', time=0)]),
  MidiTrack([
    MetaMessage('track_name', name='Paul Simon and', time=0),
    MetaMessage('midi_port', port=0, time=0),
    MetaMessage('end_of_track', time=0)]),
  MidiTrack([
    MetaMessage('track_name', name='Art Garfumkel', time=0),
    MetaMessage('midi_port', port=0, time=0),
    MetaMessage('end_of_track', time=0)]),
  MidiTrack([
    MetaMessage('track_name', name='Sequenced by:', time=0),
    MetaMessage('midi_port', port=0, time=0),
    MetaMessage('end_of_track', time=0)]),
  MidiTrack([
    MetaMessage('track_name', name='Gary Rogers', time=0),
    MetaMessage('midi_port', port=0, time=0),
    MetaMessage('end_of_track', time=0)]),
  MidiTrack([
    MetaMessage('track_name', name='7/2003', time=0),
    MetaMessage('midi_port', port=0, time=0),
    MetaMessage('end_of_track', time=0)])
])
