MidiFile(type=1, ticks_per_beat=480, tracks=[
  MidiTrack([
    MetaMessage('time_signature', numerator=4, denominator=4, clocks_per_click=24, notated_32nd_notes_per_beat=8, time=0),
    MetaMessage('key_signature', key='Eb', time=0),
    MetaMessage('set_tempo', tempo=857140, time=0),
    Message('control_change', channel=0, control=121, value=0, time=0),
    Message('program_change', channel=0, program=0, time=0),
    Message('control_change', channel=0, control=7, value=100, time=0),
    Message('control_change', channel=0, control=10, value=64, time=0),
    Message('control_change', channel=0, control=91, value=0, time=0),
    Message('control_change', channel=0, control=93, value=0, time=0),
    MetaMessage('midi_port', port=0, time=0),
    Message('note_on', channel=0, note=55, velocity=112, time=0),
    Message('note_on', channel=0, note=62, velocity=112, time=0),
    Message('note_on', channel=0, note=55, velocity=0, time=3419),
    Message('note_on', channel=0, note=62, velocity=0, time=0),
    Message('note_on', channel=0, note=74, velocity=112, time=241),
    Message('note_on', channel=0, note=74, velocity=0, time=56),
    Message('note_on', channel=0, note=72, velocity=112, time=4),
    Message('note_on', channel=0, note=72, velocity=0, time=56),
    Message('note_on', channel=0, note=67, velocity=112, time=4),
    Message('note_on', channel=0, note=67, velocity=0, time=56),
    Message('note_on', channel=0, note=63, velocity=112, time=4),
    Message('note_on', channel=0, note=72, velocity=112, time=0),
    Message('note_on', channel=0, note=63, velocity=0, time=455),
    Message('note_on', channel=0, note=72, velocity=0, time=0),
    Message('note_on', channel=0, note=63, velocity=112, time=25),
    Message('note_on', channel=0, note=72, velocity=112, time=0),
    Message('note_on', channel=0, note=63, velocity=0, time=455),
    Message('note_on', channel=0, note=72, velocity=0, time=0),
    Message('note_on', channel=0, note=63, velocity=112, time=25),
    Message('note_on', channel=0, note=72, velocity=112, time=0),
    Message('note_on', channel=0, note=63, velocity=0, time=455),
    Message('note_on', channel=0, note=72, velocity=0, time=0),
    Message('note_on', channel=0, note=63, velocity=112, time=25),
    Message('note_on', channel=0, note=72, velocity=112, time=0),
    Message('note_on', channel=0, note=63, velocity=0, time=455),
    Message('note_on', channel=0, note=72, velocity=0, time=0),
    Message('note_on', channel=0, note=63, velocity=112, time=25),
    Message('note_on', channel=0, note=72, velocity=112, time=0),
    Message('note_on', channel=0, note=63, velocity=0, time=455),
    Message('note_on', channel=0, note=72, velocity=0, time=0),
    Message('note_on', channel=0, note=63, velocity=112, time=25),
    Message('note_on', channel=0, note=72, velocity=112, time=0),
    Message('note_on', channel=0, note=63, velocity=0, time=455),
    Message('note_on', channel=0, note=72, velocity=0, time=0),
    Message('note_on', channel=0, note=63, velocity=112, time=25),
    Message('note_on', channel=0, note=72, velocity=112, time=0),
    Message('note_on', channel=0, note=63, velocity=0, time=455),
    Message('note_on', channel=0, note=72, velocity=0, time=0),
    Message('note_on', channel=0, note=63, velocity=112, time=25),
    Message('note_on', channel=0, note=72, velocity=112, time=0),
    Message('note_on', channel=0, note=63, velocity=0, time=455),
    Message('note_on', channel=0, note=72, velocity=0, time=0),
    Message('note_on', channel=0, note=63, velocity=112, time=25),
    Message('note_on', channel=0, note=72, velocity=112, time=0),
    Message('note_on', channel=0, note=63, velocity=0, time=455),
    Message('note_on', channel=0, note=72, velocity=0, time=0),
    Message('note_on', channel=0, note=63, velocity=112, time=25),
    Message('note_on', channel=0, note=72, velocity=112, time=0),
    Message('note_on', channel=0, note=63, velocity=0, time=455),
    Message('note_on', channel=0, note=72, velocity=0, time=0),
    Message('note_on', channel=0, note=63, velocity=112, time=25),
    Message('note_on', channel=0, note=72, velocity=112, time=0),
    Message('note_on', channel=0, note=63, velocity=0, time=455),
    Message('note_on', channel=0, note=72, velocity=0, time=0),
    Message('note_on', channel=0, note=63, velocity=112, time=25),
    Message('note_on', channel=0, note=72, velocity=112, time=0),
    Message('note_on', channel=0, note=63, velocity=0, time=455),
    Message('note_on', channel=0, note=72, velocity=0, time=0),
    Message('note_on', channel=0, note=63, velocity=112, time=25),
    Message('note_on', channel=0, note=72, velocity=112, time=0),
    Message('note_on', channel=0, note=63, velocity=0, time=455),
    Message('note_on', channel=0, note=72, velocity=0, time=0),
    Message('note_on', channel=0, note=63, velocity=112, time=25),
    Message('note_on', channel=0, note=72, velocity=112, time=0),
    Message('note_on', channel=0, note=63, velocity=0, time=455),
    Message('note_on', channel=0, note=72, velocity=0, time=0),
    Message('note_on', channel=0, note=63, velocity=112, time=25),
    Message('note_on', channel=0, note=72, velocity=112, time=0),
    Message('note_on', channel=0, note=63, velocity=0, time=455),
    Message('note_on', channel=0, note=72, velocity=0, time=0),
    Message('note_on', channel=0, note=63, velocity=112, time=25),
    Message('note_on', channel=0, note=72, velocity=112, time=0),
    Message('note_on', channel=0, note=63, velocity=0, time=455),
    Message('note_on', channel=0, note=72, velocity=0, time=0),
    Message('note_on', channel=0, note=63, velocity=112, time=25),
    Message('note_on', channel=0, note=72, velocity=112, time=0),
    Message('note_on', channel=0, note=63, velocity=0, time=455),
    Message('note_on', channel=0, note=72, velocity=0, time=0),
    Message('note_on', channel=0, note=63, velocity=112, time=25),
    Message('note_on', channel=0, note=72, velocity=112, time=0),
    Message('note_on', channel=0, note=63, velocity=0, time=455),
    Message('note_on', channel=0, note=72, velocity=0, time=0),
    Message('note_on', channel=0, note=63, velocity=112, time=25),
    Message('note_on', channel=0, note=72, velocity=112, time=0),
    Message('note_on', channel=0, note=63, velocity=0, time=455),
    Message('note_on', channel=0, note=72, velocity=0, time=0),
    Message('note_on', channel=0, note=63, velocity=112, time=25),
    Message('note_on', channel=0, note=72, velocity=112, time=0),
    Message('note_on', channel=0, note=63, velocity=0, time=455),
    Message('note_on', channel=0, note=72, velocity=0, time=0),
    Message('note_on', channel=0, note=63, velocity=112, time=25),
    Message('note_on', channel=0, note=72, velocity=112, time=0),
    Message('note_on', channel=0, note=63, velocity=0, time=455),
    Message('note_on', channel=0, note=72, velocity=0, time=0),
    Message('note_on', channel=0, note=63, velocity=112, time=25),
    Message('note_on', channel=0, note=72, velocity=112, time=0),
    Message('note_on', channel=0, note=63, velocity=0, time=455),
    Message('note_on', channel=0, note=72, velocity=0, time=0),
    Message('note_on', channel=0, note=63, velocity=112, time=25),
    Message('note_on', channel=0, note=72, velocity=112, time=0),
    Message('note_on', channel=0, note=63, velocity=0, time=455),
    Message('note_on', channel=0, note=72, velocity=0, time=0),
    Message('note_on', channel=0, note=63, velocity=112, time=25),
    Message('note_on', channel=0, note=72, velocity=112, time=0),
    Message('note_on', channel=0, note=63, velocity=0, time=455),
    Message('note_on', channel=0, note=72, velocity=0, time=0),
    Message('note_on', channel=0, note=63, velocity=112, time=25),
    Message('note_on', channel=0, note=67, velocity=112, time=0),
    Message('note_on', channel=0, note=72, velocity=112, time=0),
    Message('note_on', channel=0, note=63, velocity=0, time=455),
    Message('note_on', channel=0, note=67, velocity=0, time=0),
    Message('note_on', channel=0, note=72, velocity=0, time=0),
    Message('note_on', channel=0, note=63, velocity=112, time=25),
    Message('note_on', channel=0, note=67, velocity=112, time=0),
    Message('note_on', channel=0, note=72, velocity=112, time=0),
    Message('note_on', channel=0, note=63, velocity=0, time=455),
    Message('note_on', channel=0, note=67, velocity=0, time=0),
    Message('note_on', channel=0, note=72, velocity=0, time=0),
    Message('note_on', channel=0, note=63, velocity=112, time=25),
    Message('note_on', channel=0, note=67, velocity=112, time=0),
    Message('note_on', channel=0, note=72, velocity=112, time=0),
    Message('note_on', channel=0, note=63, velocity=0, time=455),
    Message('note_on', channel=0, note=67, velocity=0, time=0),
    Message('note_on', channel=0, note=72, velocity=0, time=0),
    Message('note_on', channel=0, note=63, velocity=112, time=25),
    Message('note_on', channel=0, note=67, velocity=112, time=0),
    Message('note_on', channel=0, note=72, velocity=112, time=0),
    Message('note_on', channel=0, note=63, velocity=0, time=455),
    Message('note_on', channel=0, note=67, velocity=0, time=0),
    Message('note_on', channel=0, note=72, velocity=0, time=0),
    Message('note_on', channel=0, note=62, velocity=112, time=25),
    Message('note_on', channel=0, note=67, velocity=112, time=0),
    Message('note_on', channel=0, note=72, velocity=112, time=0),
    Message('note_on', channel=0, note=62, velocity=0, time=455),
    Message('note_on', channel=0, note=67, velocity=0, time=0),
    Message('note_on', channel=0, note=72, velocity=0, time=0),
    Message('note_on', channel=0, note=62, velocity=112, time=25),
    Message('note_on', channel=0, note=67, velocity=112, time=0),
    Message('note_on', channel=0, note=72, velocity=112, time=0),
    Message('note_on', channel=0, note=62, velocity=0, time=455),
    Message('note_on', channel=0, note=67, velocity=0, time=0),
    Message('note_on', channel=0, note=72, velocity=0, time=0),
    Message('note_on', channel=0, note=62, velocity=112, time=25),
    Message('note_on', channel=0, note=67, velocity=112, time=0),
    Message('note_on', channel=0, note=71, velocity=112, time=0),
    Message('note_on', channel=0, note=62, velocity=0, time=683),
    Message('note_on', channel=0, note=67, velocity=0, time=0),
    Message('note_on', channel=0, note=71, velocity=0, time=0),
    Message('note_on', channel=0, note=75, velocity=112, time=37),
    Message('note_on', channel=0, note=75, velocity=0, time=227),
    Message('note_on', channel=0, note=74, velocity=112, time=13),
    Message('note_on', channel=0, note=74, velocity=0, time=227),
    Message('note_on', channel=0, note=72, velocity=112, time=13),
    Message('note_on', channel=0, note=72, velocity=0, time=227),
    Message('note_on', channel=0, note=72, velocity=112, time=13),
    Message('note_on', channel=0, note=72, velocity=0, time=455),
    Message('note_on', channel=0, note=63, velocity=112, time=25),
    Message('note_on', channel=0, note=72, velocity=112, time=0),
    Message('note_on', channel=0, note=63, velocity=0, time=455),
    Message('note_on', channel=0, note=72, velocity=0, time=0),
    Message('note_on', channel=0, note=63, velocity=112, time=25),
    Message('note_on', channel=0, note=72, velocity=112, time=0),
    Message('note_on', channel=0, note=63, velocity=0, time=455),
    Message('note_on', channel=0, note=72, velocity=0, time=0),
    Message('note_on', channel=0, note=63, velocity=112, time=25),
    Message('note_on', channel=0, note=72, velocity=112, time=0),
    Message('note_on', channel=0, note=63, velocity=0, time=455),
    Message('note_on', channel=0, note=72, velocity=0, time=0),
    Message('note_on', channel=0, note=63, velocity=112, time=25),
    Message('note_on', channel=0, note=72, velocity=112, time=0),
    Message('note_on', channel=0, note=63, velocity=0, time=455),
    Message('note_on', channel=0, note=72, velocity=0, time=0),
    Message('note_on', channel=0, note=74, velocity=112, time=25),
    Message('note_on', channel=0, note=74, velocity=0, time=227),
    Message('note_on', channel=0, note=72, velocity=112, time=13),
    Message('note_on', channel=0, note=72, velocity=0, time=113),
    Message('note_on', channel=0, note=74, velocity=112, time=7),
    Message('note_on', channel=0, note=74, velocity=0, time=341),
    Message('note_on', channel=0, note=72, velocity=112, time=19),
    Message('note_on', channel=0, note=72, velocity=0, time=227),
    Message('note_on', channel=0, note=74, velocity=112, time=13),
    Message('note_on', channel=0, note=74, velocity=0, time=227),
    Message('note_on', channel=0, note=72, velocity=112, time=13),
    Message('note_on', channel=0, note=72, velocity=0, time=227),
    Message('note_on', channel=0, note=72, velocity=112, time=13),
    Message('note_on', channel=0, note=72, velocity=0, time=455),
    Message('note_on', channel=0, note=63, velocity=112, time=25),
    Message('note_on', channel=0, note=72, velocity=112, time=0),
    Message('note_on', channel=0, note=63, velocity=0, time=455),
    Message('note_on', channel=0, note=72, velocity=0, time=0),
    Message('note_on', channel=0, note=63, velocity=112, time=25),
    Message('note_on', channel=0, note=72, velocity=112, time=0),
    Message('note_on', channel=0, note=63, velocity=0, time=455),
    Message('note_on', channel=0, note=72, velocity=0, time=0),
    Message('note_on', channel=0, note=63, velocity=112, time=25),
    Message('note_on', channel=0, note=72, velocity=112, time=0),
    Message('note_on', channel=0, note=63, velocity=0, time=455),
    Message('note_on', channel=0, note=72, velocity=0, time=0),
    Message('note_on', channel=0, note=63, velocity=112, time=25),
    Message('note_on', channel=0, note=72, velocity=112, time=0),
    Message('note_on', channel=0, note=63, velocity=0, time=455),
    Message('note_on', channel=0, note=72, velocity=0, time=0),
    Message('note_on', channel=0, note=74, velocity=112, time=25),
    Message('note_on', channel=0, note=74, velocity=0, time=227),
    Message('note_on', channel=0, note=72, velocity=112, time=13),
    Message('note_on', channel=0, note=72, velocity=0, time=113),
    Message('note_on', channel=0, note=74, velocity=112, time=7),
    Message('note_on', channel=0, note=74, velocity=0, time=341),
    Message('note_on', channel=0, note=72, velocity=112, time=19),
    Message('note_on', channel=0, note=72, velocity=0, time=227),
    Message('note_on', channel=0, note=74, velocity=112, time=13),
    Message('note_on', channel=0, note=74, velocity=0, time=227),
    Message('note_on', channel=0, note=72, velocity=112, time=13),
    Message('note_on', channel=0, note=72, velocity=0, time=227),
    Message('note_on', channel=0, note=75, velocity=112, time=13),
    Message('note_on', channel=0, note=75, velocity=0, time=455),
    Message('note_on', channel=0, note=63, velocity=112, time=25),
    Message('note_on', channel=0, note=72, velocity=112, time=0),
    Message('note_on', channel=0, note=63, velocity=0, time=455),
    Message('note_on', channel=0, note=72, velocity=0, time=0),
    Message('note_on', channel=0, note=63, velocity=112, time=25),
    Message('note_on', channel=0, note=72, velocity=112, time=0),
    Message('note_on', channel=0, note=63, velocity=0, time=455),
    Message('note_on', channel=0, note=72, velocity=0, time=0),
    Message('note_on', channel=0, note=63, velocity=112, time=25),
    Message('note_on', channel=0, note=72, velocity=112, time=0),
    Message('note_on', channel=0, note=63, velocity=0, time=455),
    Message('note_on', channel=0, note=72, velocity=0, time=0),
    Message('note_on', channel=0, note=63, velocity=112, time=25),
    Message('note_on', channel=0, note=72, velocity=112, time=0),
    Message('note_on', channel=0, note=63, velocity=0, time=455),
    Message('note_on', channel=0, note=72, velocity=0, time=0),
    Message('note_on', channel=0, note=74, velocity=112, time=25),
    Message('note_on', channel=0, note=74, velocity=0, time=113),
    Message('note_on', channel=0, note=72, velocity=112, time=7),
    Message('note_on', channel=0, note=72, velocity=0, time=227),
    Message('note_on', channel=0, note=74, velocity=112, time=13),
    Message('note_on', channel=0, note=74, velocity=0, time=227),
    Message('note_on', channel=0, note=72, velocity=112, time=13),
    Message('note_on', channel=0, note=72, velocity=0, time=341),
    Message('note_on', channel=0, note=74, velocity=112, time=19),
    Message('note_on', channel=0, note=74, velocity=0, time=455),
    Message('note_on', channel=0, note=65, velocity=112, time=25),
    Message('note_on', channel=0, note=69, velocity=112, time=0),
    Message('note_on', channel=0, note=65, velocity=0, time=455),
    Message('note_on', channel=0, note=69, velocity=0, time=0),
    Message('note_on', channel=0, note=65, velocity=112, time=25),
    Message('note_on', channel=0, note=69, velocity=112, time=0),
    Message('note_on', channel=0, note=65, velocity=0, time=455),
    Message('note_on', channel=0, note=69, velocity=0, time=0),
    Message('note_on', channel=0, note=72, velocity=112, time=265),
    Message('note_on', channel=0, note=72, velocity=0, time=227),
    Message('note_on', channel=0, note=67, velocity=112, time=13),
    Message('note_on', channel=0, note=79, velocity=112, time=0),
    Message('note_on', channel=0, note=67, velocity=0, time=911),
    Message('note_on', channel=0, note=79, velocity=0, time=0),
    Message('note_on', channel=0, note=55, velocity=112, time=49),
    Message('note_on', channel=0, note=59, velocity=112, time=0),
    Message('note_on', channel=0, note=55, velocity=0, time=455),
    Message('note_on', channel=0, note=59, velocity=0, time=0),
    Message('note_on', channel=0, note=72, velocity=112, time=145),
    Message('note_on', channel=0, note=72, velocity=0, time=227),
    Message('note_on', channel=0, note=75, velocity=112, time=13),
    Message('note_on', channel=0, note=75, velocity=0, time=113),
    Message('note_on', channel=0, note=74, velocity=112, time=7),
    Message('note_on', channel=0, note=74, velocity=0, time=227),
    Message('note_on', channel=0, note=72, velocity=112, time=13),
    Message('note_on', channel=0, note=72, velocity=0, time=113),
    Message('note_on', channel=0, note=72, velocity=112, time=7),
    Message('note_on', channel=0, note=72, velocity=0, time=455),
    Message('note_on', channel=0, note=60, velocity=112, time=145),
    Message('note_on', channel=0, note=63, velocity=112, time=0),
    Message('note_on', channel=0, note=68, velocity=112, time=0),
    Message('note_on', channel=0, note=60, velocity=0, time=455),
    Message('note_on', channel=0, note=63, velocity=0, time=0),
    Message('note_on', channel=0, note=68, velocity=0, time=0),
    Message('note_on', channel=0, note=60, velocity=112, time=25),
    Message('note_on', channel=0, note=63, velocity=112, time=0),
    Message('note_on', channel=0, note=68, velocity=112, time=0),
    Message('note_on', channel=0, note=60, velocity=0, time=455),
    Message('note_on', channel=0, note=63, velocity=0, time=0),
    Message('note_on', channel=0, note=68, velocity=0, time=0),
    Message('note_on', channel=0, note=60, velocity=112, time=25),
    Message('note_on', channel=0, note=63, velocity=112, time=0),
    Message('note_on', channel=0, note=69, velocity=112, time=0),
    Message('note_on', channel=0, note=60, velocity=0, time=455),
    Message('note_on', channel=0, note=63, velocity=0, time=0),
    Message('note_on', channel=0, note=69, velocity=0, time=0),
    Message('note_on', channel=0, note=60, velocity=112, time=25),
    Message('note_on', channel=0, note=63, velocity=112, time=0),
    Message('note_on', channel=0, note=69, velocity=112, time=0),
    Message('note_on', channel=0, note=60, velocity=0, time=227),
    Message('note_on', channel=0, note=63, velocity=0, time=0),
    Message('note_on', channel=0, note=69, velocity=0, time=0),
    Message('note_on', channel=0, note=72, velocity=112, time=13),
    Message('note_on', channel=0, note=72, velocity=0, time=227),
    Message('note_on', channel=0, note=72, velocity=112, time=13),
    Message('note_on', channel=0, note=72, velocity=0, time=113),
    Message('note_on', channel=0, note=74, velocity=112, time=7),
    Message('note_on', channel=0, note=74, velocity=0, time=227),
    Message('note_on', channel=0, note=75, velocity=112, time=13),
    Message('note_on', channel=0, note=75, velocity=0, time=341),
    Message('note_on', channel=0, note=74, velocity=112, time=19),
    Message('note_on', channel=0, note=74, velocity=0, time=227),
    Message('note_on', channel=0, note=72, velocity=112, time=13),
    Message('note_on', channel=0, note=72, velocity=0, time=113),
    Message('note_on', channel=0, note=74, velocity=112, time=7),
    Message('note_on', channel=0, note=74, velocity=0, time=341),
    Message('note_on', channel=0, note=72, velocity=112, time=19),
    Message('note_on', channel=0, note=72, velocity=0, time=455),
    Message('note_on', channel=0, note=60, velocity=112, time=25),
    Message('note_on', channel=0, note=63, velocity=112, time=0),
    Message('note_on', channel=0, note=68, velocity=112, time=0),
    Message('note_on', channel=0, note=60, velocity=0, time=455),
    Message('note_on', channel=0, note=63, velocity=0, time=0),
    Message('note_on', channel=0, note=68, velocity=0, time=0),
    Message('note_on', channel=0, note=60, velocity=112, time=25),
    Message('note_on', channel=0, note=63, velocity=112, time=0),
    Message('note_on', channel=0, note=68, velocity=112, time=0),
    Message('note_on', channel=0, note=60, velocity=0, time=455),
    Message('note_on', channel=0, note=63, velocity=0, time=0),
    Message('note_on', channel=0, note=68, velocity=0, time=0),
    Message('note_on', channel=0, note=60, velocity=112, time=25),
    Message('note_on', channel=0, note=63, velocity=112, time=0),
    Message('note_on', channel=0, note=69, velocity=112, time=0),
    Message('note_on', channel=0, note=60, velocity=0, time=455),
    Message('note_on', channel=0, note=63, velocity=0, time=0),
    Message('note_on', channel=0, note=69, velocity=0, time=0),
    Message('note_on', channel=0, note=60, velocity=112, time=25),
    Message('note_on', channel=0, note=63, velocity=112, time=0),
    Message('note_on', channel=0, note=69, velocity=112, time=0),
    Message('note_on', channel=0, note=60, velocity=0, time=227),
    Message('note_on', channel=0, note=63, velocity=0, time=0),
    Message('note_on', channel=0, note=69, velocity=0, time=0),
    Message('note_on', channel=0, note=72, velocity=112, time=13),
    Message('note_on', channel=0, note=72, velocity=0, time=227),
    Message('note_on', channel=0, note=74, velocity=112, time=13),
    Message('note_on', channel=0, note=74, velocity=0, time=227),
    Message('note_on', channel=0, note=72, velocity=112, time=13),
    Message('note_on', channel=0, note=72, velocity=0, time=113),
    Message('note_on', channel=0, note=74, velocity=112, time=7),
    Message('note_on', channel=0, note=74, velocity=0, time=341),
    Message('note_on', channel=0, note=72, velocity=112, time=19),
    Message('note_on', channel=0, note=72, velocity=0, time=227),
    Message('note_on', channel=0, note=74, velocity=112, time=13),
    Message('note_on', channel=0, note=74, velocity=0, time=227),
    Message('note_on', channel=0, note=72, velocity=112, time=13),
    Message('note_on', channel=0, note=72, velocity=0, time=227),
    Message('note_on', channel=0, note=75, velocity=112, time=13),
    Message('note_on', channel=0, note=75, velocity=0, time=455),
    Message('note_on', channel=0, note=60, velocity=112, time=25),
    Message('note_on', channel=0, note=63, velocity=112, time=0),
    Message('note_on', channel=0, note=68, velocity=112, time=0),
    Message('note_on', channel=0, note=60, velocity=0, time=455),
    Message('note_on', channel=0, note=63, velocity=0, time=0),
    Message('note_on', channel=0, note=68, velocity=0, time=0),
    Message('note_on', channel=0, note=60, velocity=112, time=25),
    Message('note_on', channel=0, note=63, velocity=112, time=0),
    Message('note_on', channel=0, note=68, velocity=112, time=0),
    Message('note_on', channel=0, note=60, velocity=0, time=455),
    Message('note_on', channel=0, note=63, velocity=0, time=0),
    Message('note_on', channel=0, note=68, velocity=0, time=0),
    Message('note_on', channel=0, note=60, velocity=112, time=25),
    Message('note_on', channel=0, note=63, velocity=112, time=0),
    Message('note_on', channel=0, note=69, velocity=112, time=0),
    Message('note_on', channel=0, note=60, velocity=0, time=455),
    Message('note_on', channel=0, note=63, velocity=0, time=0),
    Message('note_on', channel=0, note=69, velocity=0, time=0),
    Message('note_on', channel=0, note=60, velocity=112, time=25),
    Message('note_on', channel=0, note=63, velocity=112, time=0),
    Message('note_on', channel=0, note=69, velocity=112, time=0),
    Message('note_on', channel=0, note=60, velocity=0, time=455),
    Message('note_on', channel=0, note=63, velocity=0, time=0),
    Message('note_on', channel=0, note=69, velocity=0, time=0),
    Message('note_on', channel=0, note=74, velocity=112, time=25),
    Message('note_on', channel=0, note=74, velocity=0, time=227),
    Message('note_on', channel=0, note=72, velocity=112, time=13),
    Message('note_on', channel=0, note=72, velocity=0, time=113),
    Message('note_on', channel=0, note=74, velocity=112, time=7),
    Message('note_on', channel=0, note=74, velocity=0, time=227),
    Message('note_on', channel=0, note=72, velocity=112, time=13),
    Message('note_on', channel=0, note=72, velocity=0, time=341),
    Message('note_on', channel=0, note=65, velocity=112, time=19),
    Message('note_on', channel=0, note=69, velocity=112, time=0),
    Message('note_on', channel=0, note=74, velocity=112, time=0),
    Message('note_on', channel=0, note=65, velocity=0, time=455),
    Message('note_on', channel=0, note=69, velocity=0, time=0),
    Message('note_on', channel=0, note=74, velocity=0, time=0),
    Message('note_on', channel=0, note=57, velocity=112, time=25),
    Message('note_on', channel=0, note=60, velocity=112, time=0),
    Message('note_on', channel=0, note=65, velocity=112, time=0),
    Message('note_on', channel=0, note=57, velocity=0, time=341),
    Message('note_on', channel=0, note=60, velocity=0, time=0),
    Message('note_on', channel=0, note=65, velocity=0, time=0),
    Message('note_on', channel=0, note=57, velocity=112, time=19),
    Message('note_on', channel=0, note=57, velocity=0, time=113),
    Message('note_on', channel=0, note=60, velocity=112, time=7),
    Message('note_on', channel=0, note=60, velocity=0, time=113),
    Message('note_on', channel=0, note=57, velocity=112, time=127),
    Message('note_on', channel=0, note=60, velocity=112, time=0),
    Message('note_on', channel=0, note=65, velocity=112, time=0),
    Message('note_on', channel=0, note=57, velocity=0, time=455),
    Message('note_on', channel=0, note=60, velocity=0, time=0),
    Message('note_on', channel=0, note=65, velocity=0, time=0),
    Message('note_on', channel=0, note=72, velocity=112, time=25),
    Message('note_on', channel=0, note=72, velocity=0, time=227),
    Message('note_on', channel=0, note=67, velocity=112, time=13),
    Message('note_on', channel=0, note=79, velocity=112, time=0),
    Message('note_on', channel=0, note=67, velocity=0, time=455),
    Message('note_on', channel=0, note=79, velocity=0, time=0),
    Message('note_on', channel=0, note=59, velocity=112, time=25),
    Message('note_on', channel=0, note=62, velocity=112, time=0),
    Message('note_on', channel=0, note=59, velocity=0, time=341),
    Message('note_on', channel=0, note=62, velocity=0, time=0),
    Message('note_on', channel=0, note=59, velocity=112, time=19),
    Message('note_on', channel=0, note=59, velocity=0, time=113),
    Message('note_on', channel=0, note=62, velocity=112, time=7),
    Message('note_on', channel=0, note=62, velocity=0, time=227),
    Message('note_on', channel=0, note=60, velocity=112, time=253),
    Message('note_on', channel=0, note=72, velocity=112, time=0),
    Message('note_on', channel=0, note=60, velocity=0, time=227),
    Message('note_on', channel=0, note=72, velocity=0, time=0),
    Message('note_on', channel=0, note=60, velocity=112, time=13),
    Message('note_on', channel=0, note=72, velocity=112, time=0),
    Message('note_on', channel=0, note=60, velocity=0, time=227),
    Message('note_on', channel=0, note=72, velocity=0, time=0),
    Message('note_on', channel=0, note=60, velocity=112, time=13),
    Message('note_on', channel=0, note=72, velocity=112, time=0),
    Message('note_on', channel=0, note=60, velocity=0, time=227),
    Message('note_on', channel=0, note=72, velocity=0, time=0),
    Message('note_on', channel=0, note=67, velocity=112, time=13),
    Message('note_on', channel=0, note=79, velocity=112, time=0),
    Message('note_on', channel=0, note=67, velocity=0, time=227),
    Message('note_on', channel=0, note=79, velocity=0, time=0),
    Message('note_on', channel=0, note=63, velocity=112, time=13),
    Message('note_on', channel=0, note=63, velocity=0, time=227),
    Message('note_on', channel=0, note=55, velocity=112, time=133),
    Message('note_on', channel=0, note=55, velocity=0, time=113),
    Message('note_on', channel=0, note=60, velocity=112, time=7),
    Message('note_on', channel=0, note=60, velocity=0, time=227),
    Message('note_on', channel=0, note=63, velocity=112, time=13),
    Message('note_on', channel=0, note=63, velocity=0, time=227),
    Message('note_on', channel=0, note=60, velocity=112, time=13),
    Message('note_on', channel=0, note=63, velocity=112, time=0),
    Message('note_on', channel=0, note=72, velocity=112, time=0),
    Message('note_on', channel=0, note=60, velocity=0, time=227),
    Message('note_on', channel=0, note=63, velocity=0, time=0),
    Message('note_on', channel=0, note=72, velocity=0, time=0),
    Message('note_on', channel=0, note=60, velocity=112, time=13),
    Message('note_on', channel=0, note=63, velocity=112, time=0),
    Message('note_on', channel=0, note=72, velocity=112, time=0),
    Message('note_on', channel=0, note=60, velocity=0, time=227),
    Message('note_on', channel=0, note=63, velocity=0, time=0),
    Message('note_on', channel=0, note=72, velocity=0, time=0),
    Message('note_on', channel=0, note=60, velocity=112, time=13),
    Message('note_on', channel=0, note=63, velocity=112, time=0),
    Message('note_on', channel=0, note=72, velocity=112, time=0),
    Message('note_on', channel=0, note=60, velocity=0, time=227),
    Message('note_on', channel=0, note=63, velocity=0, time=0),
    Message('note_on', channel=0, note=72, velocity=0, time=0),
    Message('note_on', channel=0, note=68, velocity=112, time=13),
    Message('note_on', channel=0, note=80, velocity=112, time=0),
    Message('note_on', channel=0, note=68, velocity=0, time=227),
    Message('note_on', channel=0, note=80, velocity=0, time=0),
    Message('note_on', channel=0, note=63, velocity=112, time=13),
    Message('note_on', channel=0, note=63, velocity=0, time=227),
    Message('note_on', channel=0, note=60, velocity=112, time=13),
    Message('note_on', channel=0, note=60, velocity=0, time=113),
    Message('note_on', channel=0, note=60, velocity=112, time=7),
    Message('note_on', channel=0, note=60, velocity=0, time=113),
    Message('note_on', channel=0, note=60, velocity=112, time=7),
    Message('note_on', channel=0, note=60, velocity=0, time=227),
    Message('note_on', channel=0, note=63, velocity=112, time=13),
    Message('note_on', channel=0, note=63, velocity=0, time=227),
    Message('note_on', channel=0, note=60, velocity=112, time=13),
    Message('note_on', channel=0, note=63, velocity=112, time=0),
    Message('note_on', channel=0, note=72, velocity=112, time=0),
    Message('note_on', channel=0, note=60, velocity=0, time=227),
    Message('note_on', channel=0, note=63, velocity=0, time=0),
    Message('note_on', channel=0, note=72, velocity=0, time=0),
    Message('note_on', channel=0, note=60, velocity=112, time=13),
    Message('note_on', channel=0, note=63, velocity=112, time=0),
    Message('note_on', channel=0, note=72, velocity=112, time=0),
    Message('note_on', channel=0, note=60, velocity=0, time=227),
    Message('note_on', channel=0, note=63, velocity=0, time=0),
    Message('note_on', channel=0, note=72, velocity=0, time=0),
    Message('note_on', channel=0, note=60, velocity=112, time=13),
    Message('note_on', channel=0, note=63, velocity=112, time=0),
    Message('note_on', channel=0, note=72, velocity=112, time=0),
    Message('note_on', channel=0, note=60, velocity=0, time=227),
    Message('note_on', channel=0, note=63, velocity=0, time=0),
    Message('note_on', channel=0, note=72, velocity=0, time=0),
    Message('note_on', channel=0, note=72, velocity=112, time=133),
    Message('note_on', channel=0, note=84, velocity=112, time=0),
    Message('note_on', channel=0, note=72, velocity=0, time=341),
    Message('note_on', channel=0, note=84, velocity=0, time=0),
    Message('note_on', channel=0, note=69, velocity=112, time=19),
    Message('note_on', channel=0, note=72, velocity=112, time=0),
    Message('note_on', channel=0, note=79, velocity=112, time=0),
    Message('note_on', channel=0, note=69, velocity=0, time=227),
    Message('note_on', channel=0, note=72, velocity=0, time=0),
    Message('note_on', channel=0, note=79, velocity=0, time=0),
    Message('note_on', channel=0, note=69, velocity=112, time=13),
    Message('note_on', channel=0, note=72, velocity=112, time=0),
    Message('note_on', channel=0, note=77, velocity=112, time=0),
    Message('note_on', channel=0, note=69, velocity=0, time=455),
    Message('note_on', channel=0, note=72, velocity=0, time=0),
    Message('note_on', channel=0, note=77, velocity=0, time=0),
    Message('note_on', channel=0, note=69, velocity=112, time=25),
    Message('note_on', channel=0, note=72, velocity=112, time=0),
    Message('note_on', channel=0, note=77, velocity=112, time=0),
    Message('note_on', channel=0, note=69, velocity=0, time=227),
    Message('note_on', channel=0, note=72, velocity=0, time=0),
    Message('note_on', channel=0, note=77, velocity=0, time=0),
    Message('note_on', channel=0, note=69, velocity=112, time=13),
    Message('note_on', channel=0, note=72, velocity=112, time=0),
    Message('note_on', channel=0, note=75, velocity=112, time=0),
    Message('note_on', channel=0, note=69, velocity=0, time=227),
    Message('note_on', channel=0, note=72, velocity=0, time=0),
    Message('note_on', channel=0, note=75, velocity=0, time=0),
    Message('note_on', channel=0, note=69, velocity=112, time=13),
    Message('note_on', channel=0, note=72, velocity=112, time=0),
    Message('note_on', channel=0, note=77, velocity=112, time=0),
    Message('note_on', channel=0, note=69, velocity=0, time=227),
    Message('note_on', channel=0, note=72, velocity=0, time=0),
    Message('note_on', channel=0, note=77, velocity=0, time=0),
    Message('note_on', channel=0, note=75, velocity=112, time=133),
    Message('note_on', channel=0, note=75, velocity=0, time=113),
    Message('note_on', channel=0, note=74, velocity=112, time=7),
    Message('note_on', channel=0, note=74, velocity=0, time=113),
    Message('note_on', channel=0, note=75, velocity=112, time=7),
    Message('note_on', channel=0, note=75, velocity=0, time=227),
    Message('note_on', channel=0, note=65, velocity=112, time=133),
    Message('note_on', channel=0, note=71, velocity=112, time=0),
    Message('note_on', channel=0, note=74, velocity=112, time=0),
    Message('note_on', channel=0, note=65, velocity=0, time=455),
    Message('note_on', channel=0, note=71, velocity=0, time=0),
    Message('note_on', channel=0, note=74, velocity=0, time=0),
    Message('note_on', channel=0, note=65, velocity=112, time=25),
    Message('note_on', channel=0, note=71, velocity=112, time=0),
    Message('note_on', channel=0, note=74, velocity=112, time=0),
    Message('note_on', channel=0, note=65, velocity=0, time=455),
    Message('note_on', channel=0, note=71, velocity=0, time=0),
    Message('note_on', channel=0, note=74, velocity=0, time=0),
    Message('note_on', channel=0, note=60, velocity=112, time=25),
    Message('note_on', channel=0, note=72, velocity=112, time=0),
    Message('note_on', channel=0, note=60, velocity=0, time=227),
    Message('note_on', channel=0, note=72, velocity=0, time=0),
    Message('note_on', channel=0, note=67, velocity=112, time=13),
    Message('note_on', channel=0, note=79, velocity=112, time=0),
    Message('note_on', channel=0, note=67, velocity=0, time=227),
    Message('note_on', channel=0, note=79, velocity=0, time=0),
    Message('note_on', channel=0, note=63, velocity=112, time=13),
    Message('note_on', channel=0, note=63, velocity=0, time=227),
    Message('note_on', channel=0, note=55, velocity=112, time=133),
    Message('note_on', channel=0, note=55, velocity=0, time=113),
    Message('note_on', channel=0, note=60, velocity=112, time=7),
    Message('note_on', channel=0, note=60, velocity=0, time=227),
    Message('note_on', channel=0, note=63, velocity=112, time=13),
    Message('note_on', channel=0, note=63, velocity=0, time=227),
    Message('note_on', channel=0, note=60, velocity=112, time=13),
    Message('note_on', channel=0, note=63, velocity=112, time=0),
    Message('note_on', channel=0, note=72, velocity=112, time=0),
    Message('note_on', channel=0, note=60, velocity=0, time=227),
    Message('note_on', channel=0, note=63, velocity=0, time=0),
    Message('note_on', channel=0, note=72, velocity=0, time=0),
    Message('note_on', channel=0, note=60, velocity=112, time=13),
    Message('note_on', channel=0, note=63, velocity=112, time=0),
    Message('note_on', channel=0, note=72, velocity=112, time=0),
    Message('note_on', channel=0, note=60, velocity=0, time=227),
    Message('note_on', channel=0, note=63, velocity=0, time=0),
    Message('note_on', channel=0, note=72, velocity=0, time=0),
    Message('note_on', channel=0, note=60, velocity=112, time=13),
    Message('note_on', channel=0, note=63, velocity=112, time=0),
    Message('note_on', channel=0, note=72, velocity=112, time=0),
    Message('note_on', channel=0, note=60, velocity=0, time=227),
    Message('note_on', channel=0, note=63, velocity=0, time=0),
    Message('note_on', channel=0, note=72, velocity=0, time=0),
    Message('note_on', channel=0, note=68, velocity=112, time=13),
    Message('note_on', channel=0, note=80, velocity=112, time=0),
    Message('note_on', channel=0, note=68, velocity=0, time=227),
    Message('note_on', channel=0, note=80, velocity=0, time=0),
    Message('note_on', channel=0, note=63, velocity=112, time=13),
    Message('note_on', channel=0, note=63, velocity=0, time=227),
    Message('note_on', channel=0, note=60, velocity=112, time=13),
    Message('note_on', channel=0, note=60, velocity=0, time=113),
    Message('note_on', channel=0, note=60, velocity=112, time=7),
    Message('note_on', channel=0, note=60, velocity=0, time=113),
    Message('note_on', channel=0, note=60, velocity=112, time=7),
    Message('note_on', channel=0, note=60, velocity=0, time=227),
    Message('note_on', channel=0, note=63, velocity=112, time=13),
    Message('note_on', channel=0, note=63, velocity=0, time=227),
    Message('note_on', channel=0, note=60, velocity=112, time=13),
    Message('note_on', channel=0, note=63, velocity=112, time=0),
    Message('note_on', channel=0, note=72, velocity=112, time=0),
    Message('note_on', channel=0, note=60, velocity=0, time=227),
    Message('note_on', channel=0, note=63, velocity=0, time=0),
    Message('note_on', channel=0, note=72, velocity=0, time=0),
    Message('note_on', channel=0, note=60, velocity=112, time=13),
    Message('note_on', channel=0, note=63, velocity=112, time=0),
    Message('note_on', channel=0, note=72, velocity=112, time=0),
    Message('note_on', channel=0, note=60, velocity=0, time=227),
    Message('note_on', channel=0, note=63, velocity=0, time=0),
    Message('note_on', channel=0, note=72, velocity=0, time=0),
    Message('note_on', channel=0, note=60, velocity=112, time=13),
    Message('note_on', channel=0, note=63, velocity=112, time=0),
    Message('note_on', channel=0, note=72, velocity=112, time=0),
    Message('note_on', channel=0, note=60, velocity=0, time=227),
    Message('note_on', channel=0, note=63, velocity=0, time=0),
    Message('note_on', channel=0, note=72, velocity=0, time=0),
    Message('note_on', channel=0, note=72, velocity=112, time=133),
    Message('note_on', channel=0, note=84, velocity=112, time=0),
    Message('note_on', channel=0, note=72, velocity=0, time=341),
    Message('note_on', channel=0, note=84, velocity=0, time=0),
    Message('note_on', channel=0, note=69, velocity=112, time=19),
    Message('note_on', channel=0, note=72, velocity=112, time=0),
    Message('note_on', channel=0, note=79, velocity=112, time=0),
    Message('note_on', channel=0, note=69, velocity=0, time=227),
    Message('note_on', channel=0, note=72, velocity=0, time=0),
    Message('note_on', channel=0, note=79, velocity=0, time=0),
    Message('note_on', channel=0, note=69, velocity=112, time=13),
    Message('note_on', channel=0, note=72, velocity=112, time=0),
    Message('note_on', channel=0, note=77, velocity=112, time=0),
    Message('note_on', channel=0, note=69, velocity=0, time=455),
    Message('note_on', channel=0, note=72, velocity=0, time=0),
    Message('note_on', channel=0, note=77, velocity=0, time=0),
    Message('note_on', channel=0, note=69, velocity=112, time=25),
    Message('note_on', channel=0, note=72, velocity=112, time=0),
    Message('note_on', channel=0, note=77, velocity=112, time=0),
    Message('note_on', channel=0, note=69, velocity=0, time=227),
    Message('note_on', channel=0, note=72, velocity=0, time=0),
    Message('note_on', channel=0, note=77, velocity=0, time=0),
    Message('note_on', channel=0, note=69, velocity=112, time=13),
    Message('note_on', channel=0, note=72, velocity=112, time=0),
    Message('note_on', channel=0, note=75, velocity=112, time=0),
    Message('note_on', channel=0, note=69, velocity=0, time=227),
    Message('note_on', channel=0, note=72, velocity=0, time=0),
    Message('note_on', channel=0, note=75, velocity=0, time=0),
    Message('note_on', channel=0, note=69, velocity=112, time=13),
    Message('note_on', channel=0, note=72, velocity=112, time=0),
    Message('note_on', channel=0, note=77, velocity=112, time=0),
    Message('note_on', channel=0, note=69, velocity=0, time=341),
    Message('note_on', channel=0, note=72, velocity=0, time=0),
    Message('note_on', channel=0, note=77, velocity=0, time=0),
    Message('note_on', channel=0, note=75, velocity=112, time=19),
    Message('note_on', channel=0, note=75, velocity=0, time=113),
    Message('note_on', channel=0, note=74, velocity=112, time=7),
    Message('note_on', channel=0, note=74, velocity=0, time=113),
    Message('note_on', channel=0, note=75, velocity=112, time=7),
    Message('note_on', channel=0, note=75, velocity=0, time=113),
    Message('note_on', channel=0, note=65, velocity=112, time=247),
    Message('note_on', channel=0, note=71, velocity=112, time=0),
    Message('note_on', channel=0, note=74, velocity=112, time=0),
    Message('note_on', channel=0, note=65, velocity=0, time=455),
    Message('note_on', channel=0, note=71, velocity=0, time=0),
    Message('note_on', channel=0, note=74, velocity=0, time=0),
    Message('note_on', channel=0, note=65, velocity=112, time=25),
    Message('note_on', channel=0, note=71, velocity=112, time=0),
    Message('note_on', channel=0, note=74, velocity=112, time=0),
    Message('note_on', channel=0, note=65, velocity=0, time=455),
    Message('note_on', channel=0, note=71, velocity=0, time=0),
    Message('note_on', channel=0, note=74, velocity=0, time=0),
    Message('note_on', channel=0, note=60, velocity=96, time=25),
    Message('note_on', channel=0, note=63, velocity=96, time=0),
    Message('note_on', channel=0, note=67, velocity=96, time=0),
    Message('note_on', channel=0, note=72, velocity=96, time=0),
    Message('note_on', channel=0, note=60, velocity=0, time=455),
    Message('note_on', channel=0, note=63, velocity=0, time=0),
    Message('note_on', channel=0, note=67, velocity=0, time=0),
    Message('note_on', channel=0, note=72, velocity=0, time=0),
    Message('note_on', channel=0, note=63, velocity=96, time=25),
    Message('note_on', channel=0, note=67, velocity=96, time=0),
    Message('note_on', channel=0, note=63, velocity=0, time=227),
    Message('note_on', channel=0, note=67, velocity=0, time=0),
    Message('note_on', channel=0, note=60, velocity=96, time=13),
    Message('note_on', channel=0, note=60, velocity=0, time=227),
    Message('note_on', channel=0, note=63, velocity=96, time=13),
    Message('note_on', channel=0, note=68, velocity=96, time=0),
    Message('note_on', channel=0, note=63, velocity=0, time=227),
    Message('note_on', channel=0, note=68, velocity=0, time=0),
    Message('note_on', channel=0, note=60, velocity=96, time=13),
    Message('note_on', channel=0, note=60, velocity=0, time=227),
    Message('note_on', channel=0, note=63, velocity=96, time=13),
    Message('note_on', channel=0, note=68, velocity=96, time=0),
    Message('note_on', channel=0, note=63, velocity=0, time=227),
    Message('note_on', channel=0, note=68, velocity=0, time=0),
    Message('note_on', channel=0, note=60, velocity=96, time=13),
    Message('note_on', channel=0, note=60, velocity=0, time=227),
    Message('note_on', channel=0, note=63, velocity=96, time=13),
    Message('note_on', channel=0, note=69, velocity=96, time=0),
    Message('note_on', channel=0, note=63, velocity=0, time=227),
    Message('note_on', channel=0, note=69, velocity=0, time=0),
    Message('note_on', channel=0, note=60, velocity=96, time=13),
    Message('note_on', channel=0, note=60, velocity=0, time=227),
    Message('note_on', channel=0, note=63, velocity=96, time=13),
    Message('note_on', channel=0, note=69, velocity=96, time=0),
    Message('note_on', channel=0, note=63, velocity=0, time=227),
    Message('note_on', channel=0, note=69, velocity=0, time=0),
    Message('note_on', channel=0, note=60, velocity=96, time=13),
    Message('note_on', channel=0, note=60, velocity=0, time=227),
    Message('note_on', channel=0, note=74, velocity=96, time=13),
    Message('note_on', channel=0, note=74, velocity=0, time=455),
    Message('note_on', channel=0, note=74, velocity=96, time=25),
    Message('note_on', channel=0, note=74, velocity=0, time=455),
    Message('note_on', channel=0, note=63, velocity=96, time=25),
    Message('note_on', channel=0, note=72, velocity=96, time=0),
    Message('note_on', channel=0, note=63, velocity=0, time=227),
    Message('note_on', channel=0, note=72, velocity=0, time=0),
    Message('note_on', channel=0, note=60, velocity=96, time=13),
    Message('note_on', channel=0, note=60, velocity=0, time=227),
    Message('note_on', channel=0, note=63, velocity=96, time=13),
    Message('note_on', channel=0, note=67, velocity=96, time=0),
    Message('note_on', channel=0, note=63, velocity=0, time=227),
    Message('note_on', channel=0, note=67, velocity=0, time=0),
    Message('note_on', channel=0, note=60, velocity=96, time=13),
    Message('note_on', channel=0, note=60, velocity=0, time=227),
    Message('note_on', channel=0, note=60, velocity=96, time=13),
    Message('note_on', channel=0, note=63, velocity=96, time=0),
    Message('note_on', channel=0, note=68, velocity=96, time=0),
    Message('note_on', channel=0, note=60, velocity=0, time=227),
    Message('note_on', channel=0, note=63, velocity=0, time=0),
    Message('note_on', channel=0, note=68, velocity=0, time=0),
    Message('note_on', channel=0, note=56, velocity=96, time=13),
    Message('note_on', channel=0, note=56, velocity=0, time=227),
    Message('note_on', channel=0, note=60, velocity=96, time=13),
    Message('note_on', channel=0, note=63, velocity=96, time=0),
    Message('note_on', channel=0, note=68, velocity=96, time=0),
    Message('note_on', channel=0, note=60, velocity=0, time=227),
    Message('note_on', channel=0, note=63, velocity=0, time=0),
    Message('note_on', channel=0, note=68, velocity=0, time=0),
    Message('note_on', channel=0, note=56, velocity=96, time=13),
    Message('note_on', channel=0, note=56, velocity=0, time=227),
    Message('note_on', channel=0, note=60, velocity=96, time=13),
    Message('note_on', channel=0, note=65, velocity=96, time=0),
    Message('note_on', channel=0, note=69, velocity=96, time=0),
    Message('note_on', channel=0, note=60, velocity=0, time=227),
    Message('note_on', channel=0, note=65, velocity=0, time=0),
    Message('note_on', channel=0, note=69, velocity=0, time=0),
    Message('note_on', channel=0, note=57, velocity=96, time=13),
    Message('note_on', channel=0, note=57, velocity=0, time=227),
    Message('note_on', channel=0, note=60, velocity=96, time=13),
    Message('note_on', channel=0, note=65, velocity=96, time=0),
    Message('note_on', channel=0, note=69, velocity=96, time=0),
    Message('note_on', channel=0, note=60, velocity=0, time=227),
    Message('note_on', channel=0, note=65, velocity=0, time=0),
    Message('note_on', channel=0, note=69, velocity=0, time=0),
    Message('note_on', channel=0, note=57, velocity=96, time=13),
    Message('note_on', channel=0, note=57, velocity=0, time=227),
    Message('note_on', channel=0, note=60, velocity=96, time=13),
    Message('note_on', channel=0, note=65, velocity=96, time=0),
    Message('note_on', channel=0, note=68, velocity=96, time=0),
    Message('note_on', channel=0, note=60, velocity=0, time=227),
    Message('note_on', channel=0, note=65, velocity=0, time=0),
    Message('note_on', channel=0, note=68, velocity=0, time=0),
    Message('note_on', channel=0, note=72, velocity=96, time=13),
    Message('note_on', channel=0, note=72, velocity=0, time=227),
    Message('note_on', channel=0, note=72, velocity=96, time=13),
    Message('note_on', channel=0, note=72, velocity=0, time=227),
    Message('note_on', channel=0, note=75, velocity=96, time=13),
    Message('note_on', channel=0, note=75, velocity=0, time=227),
    Message('note_on', channel=0, note=74, velocity=96, time=13),
    Message('note_on', channel=0, note=74, velocity=0, time=227),
    Message('note_on', channel=0, note=72, velocity=96, time=13),
    Message('note_on', channel=0, note=72, velocity=0, time=227),
    Message('note_on', channel=0, note=72, velocity=96, time=13),
    Message('note_on', channel=0, note=72, velocity=0, time=455),
    Message('note_on', channel=0, note=63, velocity=96, time=25),
    Message('note_on', channel=0, note=68, velocity=96, time=0),
    Message('note_on', channel=0, note=63, velocity=0, time=227),
    Message('note_on', channel=0, note=68, velocity=0, time=0),
    Message('note_on', channel=0, note=60, velocity=96, time=13),
    Message('note_on', channel=0, note=60, velocity=0, time=227),
    Message('note_on', channel=0, note=63, velocity=96, time=13),
    Message('note_on', channel=0, note=68, velocity=96, time=0),
    Message('note_on', channel=0, note=63, velocity=0, time=227),
    Message('note_on', channel=0, note=68, velocity=0, time=0),
    Message('note_on', channel=0, note=60, velocity=96, time=13),
    Message('note_on', channel=0, note=60, velocity=0, time=227),
    Message('note_on', channel=0, note=65, velocity=96, time=13),
    Message('note_on', channel=0, note=69, velocity=96, time=0),
    Message('note_on', channel=0, note=65, velocity=0, time=227),
    Message('note_on', channel=0, note=69, velocity=0, time=0),
    Message('note_on', channel=0, note=60, velocity=96, time=13),
    Message('note_on', channel=0, note=60, velocity=0, time=227),
    Message('note_on', channel=0, note=65, velocity=96, time=13),
    Message('note_on', channel=0, note=69, velocity=96, time=0),
    Message('note_on', channel=0, note=65, velocity=0, time=341),
    Message('note_on', channel=0, note=69, velocity=0, time=0),
    Message('note_on', channel=0, note=72, velocity=96, time=19),
    Message('note_on', channel=0, note=72, velocity=0, time=113),
    Message('note_on', channel=0, note=74, velocity=96, time=7),
    Message('note_on', channel=0, note=74, velocity=0, time=227),
    Message('note_on', channel=0, note=72, velocity=96, time=13),
    Message('note_on', channel=0, note=72, velocity=0, time=113),
    Message('note_on', channel=0, note=74, velocity=96, time=7),
    Message('note_on', channel=0, note=74, velocity=0, time=341),
    Message('note_on', channel=0, note=72, velocity=96, time=19),
    Message('note_on', channel=0, note=72, velocity=0, time=227),
    Message('note_on', channel=0, note=74, velocity=96, time=13),
    Message('note_on', channel=0, note=74, velocity=0, time=227),
    Message('note_on', channel=0, note=72, velocity=96, time=13),
    Message('note_on', channel=0, note=72, velocity=0, time=113),
    Message('note_on', channel=0, note=72, velocity=96, time=7),
    Message('note_on', channel=0, note=72, velocity=0, time=455),
    Message('note_on', channel=0, note=63, velocity=96, time=145),
    Message('note_on', channel=0, note=68, velocity=96, time=0),
    Message('note_on', channel=0, note=63, velocity=0, time=227),
    Message('note_on', channel=0, note=68, velocity=0, time=0),
    Message('note_on', channel=0, note=60, velocity=96, time=13),
    Message('note_on', channel=0, note=60, velocity=0, time=227),
    Message('note_on', channel=0, note=63, velocity=96, time=13),
    Message('note_on', channel=0, note=68, velocity=96, time=0),
    Message('note_on', channel=0, note=63, velocity=0, time=227),
    Message('note_on', channel=0, note=68, velocity=0, time=0),
    Message('note_on', channel=0, note=60, velocity=96, time=13),
    Message('note_on', channel=0, note=60, velocity=0, time=227),
    Message('note_on', channel=0, note=65, velocity=96, time=13),
    Message('note_on', channel=0, note=69, velocity=96, time=0),
    Message('note_on', channel=0, note=65, velocity=0, time=227),
    Message('note_on', channel=0, note=69, velocity=0, time=0),
    Message('note_on', channel=0, note=60, velocity=96, time=13),
    Message('note_on', channel=0, note=60, velocity=0, time=227),
    Message('note_on', channel=0, note=65, velocity=96, time=13),
    Message('note_on', channel=0, note=69, velocity=96, time=0),
    Message('note_on', channel=0, note=65, velocity=0, time=341),
    Message('note_on', channel=0, note=69, velocity=0, time=0),
    Message('note_on', channel=0, note=72, velocity=96, time=19),
    Message('note_on', channel=0, note=72, velocity=0, time=113),
    Message('note_on', channel=0, note=74, velocity=96, time=7),
    Message('note_on', channel=0, note=74, velocity=0, time=227),
    Message('note_on', channel=0, note=72, velocity=96, time=13),
    Message('note_on', channel=0, note=72, velocity=0, time=113),
    Message('note_on', channel=0, note=74, velocity=96, time=7),
    Message('note_on', channel=0, note=74, velocity=0, time=341),
    Message('note_on', channel=0, note=72, velocity=96, time=19),
    Message('note_on', channel=0, note=72, velocity=0, time=227),
    Message('note_on', channel=0, note=74, velocity=96, time=13),
    Message('note_on', channel=0, note=74, velocity=0, time=227),
    Message('note_on', channel=0, note=72, velocity=96, time=13),
    Message('note_on', channel=0, note=72, velocity=0, time=227),
    Message('note_on', channel=0, note=72, velocity=96, time=13),
    Message('note_on', channel=0, note=72, velocity=0, time=227),
    Message('note_on', channel=0, note=60, velocity=96, time=253),
    Message('note_on', channel=0, note=63, velocity=96, time=0),
    Message('note_on', channel=0, note=68, velocity=96, time=0),
    Message('note_on', channel=0, note=60, velocity=0, time=341),
    Message('note_on', channel=0, note=63, velocity=0, time=0),
    Message('note_on', channel=0, note=68, velocity=0, time=0),
    Message('note_on', channel=0, note=72, velocity=96, time=19),
    Message('note_on', channel=0, note=72, velocity=0, time=113),
    Message('note_on', channel=0, note=72, velocity=96, time=7),
    Message('note_on', channel=0, note=72, velocity=0, time=113),
    Message('note_on', channel=0, note=74, velocity=96, time=7),
    Message('note_on', channel=0, note=74, velocity=0, time=227),
    Message('note_on', channel=0, note=75, velocity=96, time=13),
    Message('note_on', channel=0, note=75, velocity=0, time=113),
    Message('note_on', channel=0, note=65, velocity=96, time=7),
    Message('note_on', channel=0, note=69, velocity=96, time=0),
    Message('note_on', channel=0, note=77, velocity=96, time=0),
    Message('note_on', channel=0, note=65, velocity=0, time=227),
    Message('note_on', channel=0, note=69, velocity=0, time=0),
    Message('note_on', channel=0, note=77, velocity=0, time=0),
    Message('note_on', channel=0, note=79, velocity=96, time=13),
    Message('note_on', channel=0, note=79, velocity=0, time=227),
    Message('note_on', channel=0, note=72, velocity=96, time=253),
    Message('note_on', channel=0, note=72, velocity=0, time=113),
    Message('note_on', channel=0, note=75, velocity=96, time=7),
    Message('note_on', channel=0, note=75, velocity=0, time=113),
    Message('note_on', channel=0, note=77, velocity=96, time=7),
    Message('note_on', channel=0, note=77, velocity=0, time=113),
    Message('note_on', channel=0, note=79, velocity=96, time=7),
    Message('note_on', channel=0, note=79, velocity=0, time=227),
    Message('note_on', channel=0, note=72, velocity=96, time=13),
    Message('note_on', channel=0, note=72, velocity=0, time=455),
    Message('note_on', channel=0, note=69, velocity=96, time=145),
    Message('note_on', channel=0, note=72, velocity=96, time=0),
    Message('note_on', channel=0, note=79, velocity=96, time=0),
    Message('note_on', channel=0, note=69, velocity=0, time=455),
    Message('note_on', channel=0, note=72, velocity=0, time=0),
    Message('note_on', channel=0, note=79, velocity=0, time=0),
    Message('note_on', channel=0, note=72, velocity=96, time=265),
    Message('note_on', channel=0, note=72, velocity=0, time=113),
    Message('note_on', channel=0, note=72, velocity=96, time=7),
    Message('note_on', channel=0, note=72, velocity=0, time=113),
    Message('note_on', channel=0, note=79, velocity=96, time=7),
    Message('note_on', channel=0, note=79, velocity=0, time=113),
    Message('note_on', channel=0, note=77, velocity=96, time=7),
    Message('note_on', channel=0, note=77, velocity=0, time=227),
    Message('note_on', channel=0, note=75, velocity=96, time=13),
    Message('note_on', channel=0, note=75, velocity=0, time=227),
    Message('note_on', channel=0, note=72, velocity=96, time=13),
    Message('note_on', channel=0, note=72, velocity=0, time=341),
    Message('note_on', channel=0, note=67, velocity=96, time=19),
    Message('note_on', channel=0, note=71, velocity=96, time=0),
    Message('note_on', channel=0, note=74, velocity=96, time=0),
    Message('note_on', channel=0, note=79, velocity=96, time=0),
    Message('note_on', channel=0, note=67, velocity=0, time=455),
    Message('note_on', channel=0, note=71, velocity=0, time=0),
    Message('note_on', channel=0, note=74, velocity=0, time=0),
    Message('note_on', channel=0, note=79, velocity=0, time=0),
    Message('note_on', channel=0, note=59, velocity=100, time=25),
    Message('note_on', channel=0, note=62, velocity=100, time=0),
    Message('note_on', channel=0, note=67, velocity=100, time=0),
    Message('note_on', channel=0, note=59, velocity=0, time=341),
    Message('note_on', channel=0, note=62, velocity=0, time=0),
    Message('note_on', channel=0, note=67, velocity=0, time=0),
    Message('note_on', channel=0, note=59, velocity=103, time=19),
    Message('note_on', channel=0, note=59, velocity=0, time=113),
    Message('note_on', channel=0, note=62, velocity=104, time=7),
    Message('note_on', channel=0, note=62, velocity=0, time=455),
    Message('note_on', channel=0, note=60, velocity=108, time=25),
    Message('note_on', channel=0, note=72, velocity=108, time=0),
    Message('note_on', channel=0, note=60, velocity=0, time=227),
    Message('note_on', channel=0, note=72, velocity=0, time=0),
    Message('note_on', channel=0, note=60, velocity=110, time=13),
    Message('note_on', channel=0, note=72, velocity=110, time=0),
    Message('note_on', channel=0, note=60, velocity=0, time=227),
    Message('note_on', channel=0, note=72, velocity=0, time=0),
    Message('note_on', channel=0, note=60, velocity=112, time=13),
    Message('note_on', channel=0, note=72, velocity=112, time=0),
    Message('note_on', channel=0, note=60, velocity=0, time=227),
    Message('note_on', channel=0, note=72, velocity=0, time=0),
    Message('note_on', channel=0, note=67, velocity=112, time=13),
    Message('note_on', channel=0, note=79, velocity=112, time=0),
    Message('note_on', channel=0, note=67, velocity=0, time=227),
    Message('note_on', channel=0, note=79, velocity=0, time=0),
    Message('note_on', channel=0, note=63, velocity=112, time=13),
    Message('note_on', channel=0, note=63, velocity=0, time=227),
    Message('note_on', channel=0, note=55, velocity=112, time=133),
    Message('note_on', channel=0, note=55, velocity=0, time=113),
    Message('note_on', channel=0, note=60, velocity=112, time=7),
    Message('note_on', channel=0, note=60, velocity=0, time=227),
    Message('note_on', channel=0, note=63, velocity=112, time=13),
    Message('note_on', channel=0, note=63, velocity=0, time=227),
    Message('note_on', channel=0, note=60, velocity=112, time=13),
    Message('note_on', channel=0, note=63, velocity=112, time=0),
    Message('note_on', channel=0, note=72, velocity=112, time=0),
    Message('note_on', channel=0, note=60, velocity=0, time=227),
    Message('note_on', channel=0, note=63, velocity=0, time=0),
    Message('note_on', channel=0, note=72, velocity=0, time=0),
    Message('note_on', channel=0, note=60, velocity=112, time=13),
    Message('note_on', channel=0, note=63, velocity=112, time=0),
    Message('note_on', channel=0, note=72, velocity=112, time=0),
    Message('note_on', channel=0, note=60, velocity=0, time=227),
    Message('note_on', channel=0, note=63, velocity=0, time=0),
    Message('note_on', channel=0, note=72, velocity=0, time=0),
    Message('note_on', channel=0, note=60, velocity=112, time=13),
    Message('note_on', channel=0, note=63, velocity=112, time=0),
    Message('note_on', channel=0, note=72, velocity=112, time=0),
    Message('note_on', channel=0, note=60, velocity=0, time=227),
    Message('note_on', channel=0, note=63, velocity=0, time=0),
    Message('note_on', channel=0, note=72, velocity=0, time=0),
    Message('note_on', channel=0, note=68, velocity=112, time=13),
    Message('note_on', channel=0, note=80, velocity=112, time=0),
    Message('note_on', channel=0, note=68, velocity=0, time=227),
    Message('note_on', channel=0, note=80, velocity=0, time=0),
    Message('note_on', channel=0, note=63, velocity=112, time=13),
    Message('note_on', channel=0, note=63, velocity=0, time=227),
    Message('note_on', channel=0, note=60, velocity=112, time=13),
    Message('note_on', channel=0, note=60, velocity=0, time=113),
    Message('note_on', channel=0, note=60, velocity=112, time=7),
    Message('note_on', channel=0, note=60, velocity=0, time=113),
    Message('note_on', channel=0, note=60, velocity=112, time=7),
    Message('note_on', channel=0, note=60, velocity=0, time=227),
    Message('note_on', channel=0, note=63, velocity=112, time=13),
    Message('note_on', channel=0, note=63, velocity=0, time=227),
    Message('note_on', channel=0, note=60, velocity=112, time=13),
    Message('note_on', channel=0, note=63, velocity=112, time=0),
    Message('note_on', channel=0, note=72, velocity=112, time=0),
    Message('note_on', channel=0, note=60, velocity=0, time=227),
    Message('note_on', channel=0, note=63, velocity=0, time=0),
    Message('note_on', channel=0, note=72, velocity=0, time=0),
    Message('note_on', channel=0, note=60, velocity=112, time=13),
    Message('note_on', channel=0, note=63, velocity=112, time=0),
    Message('note_on', channel=0, note=72, velocity=112, time=0),
    Message('note_on', channel=0, note=60, velocity=0, time=227),
    Message('note_on', channel=0, note=63, velocity=0, time=0),
    Message('note_on', channel=0, note=72, velocity=0, time=0),
    Message('note_on', channel=0, note=60, velocity=112, time=13),
    Message('note_on', channel=0, note=63, velocity=112, time=0),
    Message('note_on', channel=0, note=72, velocity=112, time=0),
    Message('note_on', channel=0, note=60, velocity=0, time=227),
    Message('note_on', channel=0, note=63, velocity=0, time=0),
    Message('note_on', channel=0, note=72, velocity=0, time=0),
    Message('note_on', channel=0, note=72, velocity=112, time=133),
    Message('note_on', channel=0, note=84, velocity=112, time=0),
    Message('note_on', channel=0, note=72, velocity=0, time=341),
    Message('note_on', channel=0, note=84, velocity=0, time=0),
    Message('note_on', channel=0, note=69, velocity=112, time=19),
    Message('note_on', channel=0, note=72, velocity=112, time=0),
    Message('note_on', channel=0, note=79, velocity=112, time=0),
    Message('note_on', channel=0, note=69, velocity=0, time=227),
    Message('note_on', channel=0, note=72, velocity=0, time=0),
    Message('note_on', channel=0, note=79, velocity=0, time=0),
    Message('note_on', channel=0, note=69, velocity=112, time=13),
    Message('note_on', channel=0, note=72, velocity=112, time=0),
    Message('note_on', channel=0, note=77, velocity=112, time=0),
    Message('note_on', channel=0, note=69, velocity=0, time=455),
    Message('note_on', channel=0, note=72, velocity=0, time=0),
    Message('note_on', channel=0, note=77, velocity=0, time=0),
    Message('note_on', channel=0, note=69, velocity=112, time=25),
    Message('note_on', channel=0, note=72, velocity=112, time=0),
    Message('note_on', channel=0, note=77, velocity=112, time=0),
    Message('note_on', channel=0, note=69, velocity=0, time=227),
    Message('note_on', channel=0, note=72, velocity=0, time=0),
    Message('note_on', channel=0, note=77, velocity=0, time=0),
    Message('note_on', channel=0, note=69, velocity=112, time=13),
    Message('note_on', channel=0, note=72, velocity=112, time=0),
    Message('note_on', channel=0, note=75, velocity=112, time=0),
    Message('note_on', channel=0, note=69, velocity=0, time=227),
    Message('note_on', channel=0, note=72, velocity=0, time=0),
    Message('note_on', channel=0, note=75, velocity=0, time=0),
    Message('note_on', channel=0, note=69, velocity=112, time=13),
    Message('note_on', channel=0, note=72, velocity=112, time=0),
    Message('note_on', channel=0, note=77, velocity=112, time=0),
    Message('note_on', channel=0, note=69, velocity=0, time=227),
    Message('note_on', channel=0, note=72, velocity=0, time=0),
    Message('note_on', channel=0, note=77, velocity=0, time=0),
    Message('note_on', channel=0, note=75, velocity=112, time=133),
    Message('note_on', channel=0, note=75, velocity=0, time=113),
    Message('note_on', channel=0, note=74, velocity=112, time=7),
    Message('note_on', channel=0, note=74, velocity=0, time=113),
    Message('note_on', channel=0, note=75, velocity=112, time=7),
    Message('note_on', channel=0, note=75, velocity=0, time=227),
    Message('note_on', channel=0, note=65, velocity=112, time=133),
    Message('note_on', channel=0, note=71, velocity=112, time=0),
    Message('note_on', channel=0, note=74, velocity=112, time=0),
    Message('note_on', channel=0, note=65, velocity=0, time=455),
    Message('note_on', channel=0, note=71, velocity=0, time=0),
    Message('note_on', channel=0, note=74, velocity=0, time=0),
    Message('note_on', channel=0, note=65, velocity=112, time=25),
    Message('note_on', channel=0, note=71, velocity=112, time=0),
    Message('note_on', channel=0, note=74, velocity=112, time=0),
    Message('note_on', channel=0, note=65, velocity=0, time=455),
    Message('note_on', channel=0, note=71, velocity=0, time=0),
    Message('note_on', channel=0, note=74, velocity=0, time=0),
    Message('note_on', channel=0, note=60, velocity=112, time=25),
    Message('note_on', channel=0, note=72, velocity=112, time=0),
    Message('note_on', channel=0, note=60, velocity=0, time=227),
    Message('note_on', channel=0, note=72, velocity=0, time=0),
    Message('note_on', channel=0, note=67, velocity=112, time=13),
    Message('note_on', channel=0, note=79, velocity=112, time=0),
    Message('note_on', channel=0, note=67, velocity=0, time=227),
    Message('note_on', channel=0, note=79, velocity=0, time=0),
    Message('note_on', channel=0, note=63, velocity=112, time=13),
    Message('note_on', channel=0, note=63, velocity=0, time=227),
    Message('note_on', channel=0, note=55, velocity=112, time=133),
    Message('note_on', channel=0, note=55, velocity=0, time=113),
    Message('note_on', channel=0, note=60, velocity=112, time=7),
    Message('note_on', channel=0, note=60, velocity=0, time=227),
    Message('note_on', channel=0, note=63, velocity=112, time=13),
    Message('note_on', channel=0, note=63, velocity=0, time=227),
    Message('note_on', channel=0, note=60, velocity=112, time=13),
    Message('note_on', channel=0, note=63, velocity=112, time=0),
    Message('note_on', channel=0, note=72, velocity=112, time=0),
    Message('note_on', channel=0, note=60, velocity=0, time=227),
    Message('note_on', channel=0, note=63, velocity=0, time=0),
    Message('note_on', channel=0, note=72, velocity=0, time=0),
    Message('note_on', channel=0, note=60, velocity=112, time=13),
    Message('note_on', channel=0, note=63, velocity=112, time=0),
    Message('note_on', channel=0, note=72, velocity=112, time=0),
    Message('note_on', channel=0, note=60, velocity=0, time=227),
    Message('note_on', channel=0, note=63, velocity=0, time=0),
    Message('note_on', channel=0, note=72, velocity=0, time=0),
    Message('note_on', channel=0, note=60, velocity=112, time=13),
    Message('note_on', channel=0, note=63, velocity=112, time=0),
    Message('note_on', channel=0, note=72, velocity=112, time=0),
    Message('note_on', channel=0, note=60, velocity=0, time=227),
    Message('note_on', channel=0, note=63, velocity=0, time=0),
    Message('note_on', channel=0, note=72, velocity=0, time=0),
    Message('note_on', channel=0, note=68, velocity=112, time=13),
    Message('note_on', channel=0, note=80, velocity=112, time=0),
    Message('note_on', channel=0, note=68, velocity=0, time=227),
    Message('note_on', channel=0, note=80, velocity=0, time=0),
    Message('note_on', channel=0, note=63, velocity=112, time=13),
    Message('note_on', channel=0, note=63, velocity=0, time=227),
    Message('note_on', channel=0, note=60, velocity=112, time=13),
    Message('note_on', channel=0, note=60, velocity=0, time=113),
    Message('note_on', channel=0, note=60, velocity=112, time=7),
    Message('note_on', channel=0, note=60, velocity=0, time=113),
    Message('note_on', channel=0, note=60, velocity=112, time=7),
    Message('note_on', channel=0, note=60, velocity=0, time=227),
    Message('note_on', channel=0, note=63, velocity=112, time=13),
    Message('note_on', channel=0, note=63, velocity=0, time=227),
    Message('note_on', channel=0, note=60, velocity=112, time=13),
    Message('note_on', channel=0, note=63, velocity=112, time=0),
    Message('note_on', channel=0, note=72, velocity=112, time=0),
    Message('note_on', channel=0, note=60, velocity=0, time=227),
    Message('note_on', channel=0, note=63, velocity=0, time=0),
    Message('note_on', channel=0, note=72, velocity=0, time=0),
    Message('note_on', channel=0, note=60, velocity=112, time=13),
    Message('note_on', channel=0, note=63, velocity=112, time=0),
    Message('note_on', channel=0, note=72, velocity=112, time=0),
    Message('note_on', channel=0, note=60, velocity=0, time=227),
    Message('note_on', channel=0, note=63, velocity=0, time=0),
    Message('note_on', channel=0, note=72, velocity=0, time=0),
    Message('note_on', channel=0, note=60, velocity=112, time=13),
    Message('note_on', channel=0, note=63, velocity=112, time=0),
    Message('note_on', channel=0, note=72, velocity=112, time=0),
    Message('note_on', channel=0, note=60, velocity=0, time=227),
    Message('note_on', channel=0, note=63, velocity=0, time=0),
    Message('note_on', channel=0, note=72, velocity=0, time=0),
    Message('note_on', channel=0, note=72, velocity=112, time=133),
    Message('note_on', channel=0, note=84, velocity=112, time=0),
    Message('note_on', channel=0, note=72, velocity=0, time=341),
    Message('note_on', channel=0, note=84, velocity=0, time=0),
    Message('note_on', channel=0, note=69, velocity=112, time=19),
    Message('note_on', channel=0, note=72, velocity=112, time=0),
    Message('note_on', channel=0, note=79, velocity=112, time=0),
    Message('note_on', channel=0, note=69, velocity=0, time=227),
    Message('note_on', channel=0, note=72, velocity=0, time=0),
    Message('note_on', channel=0, note=79, velocity=0, time=0),
    Message('note_on', channel=0, note=69, velocity=112, time=13),
    Message('note_on', channel=0, note=72, velocity=112, time=0),
    Message('note_on', channel=0, note=77, velocity=112, time=0),
    Message('note_on', channel=0, note=69, velocity=0, time=455),
    Message('note_on', channel=0, note=72, velocity=0, time=0),
    Message('note_on', channel=0, note=77, velocity=0, time=0),
    Message('note_on', channel=0, note=69, velocity=112, time=25),
    Message('note_on', channel=0, note=72, velocity=112, time=0),
    Message('note_on', channel=0, note=77, velocity=112, time=0),
    Message('note_on', channel=0, note=69, velocity=0, time=227),
    Message('note_on', channel=0, note=72, velocity=0, time=0),
    Message('note_on', channel=0, note=77, velocity=0, time=0),
    Message('note_on', channel=0, note=69, velocity=112, time=13),
    Message('note_on', channel=0, note=72, velocity=112, time=0),
    Message('note_on', channel=0, note=75, velocity=112, time=0),
    Message('note_on', channel=0, note=69, velocity=0, time=227),
    Message('note_on', channel=0, note=72, velocity=0, time=0),
    Message('note_on', channel=0, note=75, velocity=0, time=0),
    Message('note_on', channel=0, note=69, velocity=112, time=13),
    Message('note_on', channel=0, note=72, velocity=112, time=0),
    Message('note_on', channel=0, note=77, velocity=112, time=0),
    Message('note_on', channel=0, note=69, velocity=0, time=341),
    Message('note_on', channel=0, note=72, velocity=0, time=0),
    Message('note_on', channel=0, note=77, velocity=0, time=0),
    Message('note_on', channel=0, note=75, velocity=112, time=19),
    Message('note_on', channel=0, note=75, velocity=0, time=113),
    Message('note_on', channel=0, note=74, velocity=112, time=7),
    Message('note_on', channel=0, note=74, velocity=0, time=113),
    Message('note_on', channel=0, note=75, velocity=112, time=7),
    Message('note_on', channel=0, note=75, velocity=0, time=113),
    Message('note_on', channel=0, note=65, velocity=112, time=247),
    Message('note_on', channel=0, note=71, velocity=112, time=0),
    Message('note_on', channel=0, note=74, velocity=112, time=0),
    Message('note_on', channel=0, note=65, velocity=0, time=455),
    Message('note_on', channel=0, note=71, velocity=0, time=0),
    Message('note_on', channel=0, note=74, velocity=0, time=0),
    Message('note_on', channel=0, note=65, velocity=112, time=25),
    Message('note_on', channel=0, note=71, velocity=112, time=0),
    Message('note_on', channel=0, note=74, velocity=112, time=0),
    Message('note_on', channel=0, note=65, velocity=0, time=455),
    Message('note_on', channel=0, note=71, velocity=0, time=0),
    Message('note_on', channel=0, note=74, velocity=0, time=0),
    Message('note_on', channel=0, note=60, velocity=80, time=25),
    Message('note_on', channel=0, note=63, velocity=80, time=0),
    Message('note_on', channel=0, note=72, velocity=80, time=0),
    Message('note_on', channel=0, note=60, velocity=0, time=455),
    Message('note_on', channel=0, note=63, velocity=0, time=0),
    Message('note_on', channel=0, note=72, velocity=0, time=0),
    Message('note_on', channel=0, note=60, velocity=80, time=265),
    Message('note_on', channel=0, note=60, velocity=0, time=113),
    Message('note_on', channel=0, note=60, velocity=80, time=7),
    Message('note_on', channel=0, note=60, velocity=0, time=113),
    Message('note_on', channel=0, note=60, velocity=80, time=7),
    Message('note_on', channel=0, note=60, velocity=0, time=227),
    Message('note_on', channel=0, note=63, velocity=80, time=13),
    Message('note_on', channel=0, note=63, velocity=0, time=1253),
    Message('note_on', channel=0, note=60, velocity=80, time=187),
    Message('note_on', channel=0, note=60, velocity=0, time=113),
    Message('note_on', channel=0, note=60, velocity=80, time=7),
    Message('note_on', channel=0, note=60, velocity=0, time=113),
    Message('note_on', channel=0, note=60, velocity=80, time=7),
    Message('note_on', channel=0, note=60, velocity=0, time=227),
    Message('note_on', channel=0, note=63, velocity=80, time=13),
    Message('note_on', channel=0, note=63, velocity=0, time=455),
    Message('note_on', channel=0, note=55, velocity=80, time=25),
    Message('note_on', channel=0, note=55, velocity=0, time=227),
    Message('note_on', channel=0, note=55, velocity=80, time=13),
    Message('note_on', channel=0, note=60, velocity=80, time=0),
    Message('note_on', channel=0, note=63, velocity=80, time=0),
    Message('note_on', channel=0, note=67, velocity=80, time=0),
    Message('note_on', channel=0, note=55, velocity=0, time=455),
    Message('note_on', channel=0, note=60, velocity=0, time=0),
    Message('note_on', channel=0, note=63, velocity=0, time=0),
    Message('note_on', channel=0, note=67, velocity=0, time=0),
    Message('note_on', channel=0, note=60, velocity=80, time=265),
    Message('note_on', channel=0, note=60, velocity=0, time=113),
    Message('note_on', channel=0, note=60, velocity=80, time=7),
    Message('note_on', channel=0, note=60, velocity=0, time=113),
    Message('note_on', channel=0, note=60, velocity=80, time=7),
    Message('note_on', channel=0, note=60, velocity=0, time=227),
    Message('note_on', channel=0, note=55, velocity=80, time=13),
    Message('note_on', channel=0, note=55, velocity=0, time=455),
    Message('note_on', channel=0, note=67, velocity=80, time=25),
    Message('note_on', channel=0, note=79, velocity=80, time=0),
    Message('note_on', channel=0, note=67, velocity=0, time=227),
    Message('note_on', channel=0, note=79, velocity=0, time=0),
    Message('note_on', channel=0, note=66, velocity=80, time=13),
    Message('note_on', channel=0, note=78, velocity=80, time=0),
    Message('note_on', channel=0, note=66, velocity=0, time=683),
    Message('note_on', channel=0, note=78, velocity=0, time=0),
    Message('note_on', channel=0, note=67, velocity=80, time=37),
    Message('note_on', channel=0, note=79, velocity=80, time=0),
    Message('note_on', channel=0, note=67, velocity=0, time=455),
    Message('note_on', channel=0, note=79, velocity=0, time=0),
    Message('note_on', channel=0, note=55, velocity=80, time=25),
    Message('note_on', channel=0, note=55, velocity=0, time=113),
    Message('note_on', channel=0, note=60, velocity=80, time=7),
    Message('note_on', channel=0, note=60, velocity=0, time=113),
    Message('note_on', channel=0, note=60, velocity=80, time=7),
    Message('note_on', channel=0, note=60, velocity=0, time=113),
    Message('note_on', channel=0, note=63, velocity=80, time=7),
    Message('note_on', channel=0, note=63, velocity=0, time=227),
    Message('note_on', channel=0, note=55, velocity=80, time=13),
    Message('note_on', channel=0, note=55, velocity=0, time=113),
    MetaMessage('key_signature', key='C', time=7),
    Message('note_on', channel=0, note=55, velocity=80, time=0),
    Message('note_on', channel=0, note=60, velocity=80, time=0),
    Message('note_on', channel=0, note=63, velocity=80, time=0),
    Message('note_on', channel=0, note=55, velocity=0, time=455),
    Message('note_on', channel=0, note=60, velocity=0, time=0),
    Message('note_on', channel=0, note=63, velocity=0, time=0),
    Message('note_on', channel=0, note=60, velocity=80, time=265),
    Message('note_on', channel=0, note=60, velocity=0, time=113),
    Message('note_on', channel=0, note=60, velocity=80, time=7),
    Message('note_on', channel=0, note=60, velocity=0, time=113),
    Message('note_on', channel=0, note=60, velocity=80, time=7),
    Message('note_on', channel=0, note=60, velocity=0, time=227),
    Message('note_on', channel=0, note=63, velocity=80, time=13),
    Message('note_on', channel=0, note=63, velocity=0, time=1253),
    Message('note_on', channel=0, note=60, velocity=80, time=187),
    Message('note_on', channel=0, note=60, velocity=0, time=113),
    Message('note_on', channel=0, note=60, velocity=80, time=7),
    Message('note_on', channel=0, note=60, velocity=0, time=113),
    Message('note_on', channel=0, note=60, velocity=80, time=7),
    Message('note_on', channel=0, note=60, velocity=0, time=227),
    Message('note_on', channel=0, note=63, velocity=80, time=13),
    Message('note_on', channel=0, note=63, velocity=0, time=455),
    Message('note_on', channel=0, note=55, velocity=80, time=265),
    Message('note_on', channel=0, note=60, velocity=80, time=0),
    Message('note_on', channel=0, note=63, velocity=80, time=0),
    Message('note_on', channel=0, note=67, velocity=80, time=0),
    Message('note_on', channel=0, note=55, velocity=0, time=455),
    Message('note_on', channel=0, note=60, velocity=0, time=0),
    Message('note_on', channel=0, note=63, velocity=0, time=0),
    Message('note_on', channel=0, note=67, velocity=0, time=0),
    Message('note_on', channel=0, note=60, velocity=80, time=265),
    Message('note_on', channel=0, note=60, velocity=0, time=113),
    Message('note_on', channel=0, note=60, velocity=80, time=7),
    Message('note_on', channel=0, note=60, velocity=0, time=113),
    Message('note_on', channel=0, note=60, velocity=80, time=7),
    Message('note_on', channel=0, note=60, velocity=0, time=227),
    Message('note_on', channel=0, note=55, velocity=80, time=13),
    Message('note_on', channel=0, note=55, velocity=0, time=455),
    Message('note_on', channel=0, note=70, velocity=80, time=25),
    Message('note_on', channel=0, note=82, velocity=80, time=0),
    Message('note_on', channel=0, note=70, velocity=0, time=227),
    Message('note_on', channel=0, note=82, velocity=0, time=0),
    Message('note_on', channel=0, note=69, velocity=80, time=13),
    Message('note_on', channel=0, note=81, velocity=80, time=0),
    Message('note_on', channel=0, note=69, velocity=0, time=683),
    Message('note_on', channel=0, note=81, velocity=0, time=0),
    Message('note_on', channel=0, note=60, velocity=80, time=37),
    Message('note_on', channel=0, note=60, velocity=0, time=227),
    Message('note_on', channel=0, note=60, velocity=80, time=13),
    Message('note_on', channel=0, note=63, velocity=80, time=0),
    Message('note_on', channel=0, note=60, velocity=0, time=455),
    Message('note_on', channel=0, note=63, velocity=0, time=0),
    Message('note_on', channel=0, note=75, velocity=80, time=25),
    Message('note_on', channel=0, note=75, velocity=0, time=113),
    Message('note_on', channel=0, note=74, velocity=80, time=7),
    Message('note_on', channel=0, note=74, velocity=0, time=227),
    Message('note_on', channel=0, note=72, velocity=80, time=13),
    Message('note_on', channel=0, note=72, velocity=0, time=113),
    Message('note_on', channel=0, note=68, velocity=80, time=7),
    Message('note_on', channel=0, note=74, velocity=80, time=0),
    Message('note_on', channel=0, note=68, velocity=0, time=341),
    Message('note_on', channel=0, note=74, velocity=0, time=0),
    Message('note_on', channel=0, note=68, velocity=80, time=19),
    Message('note_on', channel=0, note=72, velocity=80, time=0),
    Message('note_on', channel=0, note=68, velocity=0, time=455),
    Message('note_on', channel=0, note=72, velocity=0, time=0),
    Message('note_on', channel=0, note=56, velocity=80, time=25),
    Message('note_on', channel=0, note=60, velocity=80, time=0),
    Message('note_on', channel=0, note=63, velocity=80, time=0),
    Message('note_on', channel=0, note=56, velocity=0, time=569),
    Message('note_on', channel=0, note=60, velocity=0, time=0),
    Message('note_on', channel=0, note=63, velocity=0, time=0),
    Message('note_on', channel=0, note=75, velocity=80, time=31),
    Message('note_on', channel=0, note=75, velocity=0, time=113),
    Message('note_on', channel=0, note=74, velocity=80, time=7),
    Message('note_on', channel=0, note=74, velocity=0, time=227),
    Message('note_on', channel=0, note=74, velocity=80, time=13),
    Message('note_on', channel=0, note=74, velocity=0, time=113),
    Message('note_on', channel=0, note=74, velocity=80, time=7),
    Message('note_on', channel=0, note=74, velocity=0, time=227),
    Message('note_on', channel=0, note=72, velocity=80, time=13),
    Message('note_on', channel=0, note=72, velocity=0, time=113),
    Message('note_on', channel=0, note=74, velocity=80, time=7),
    Message('note_on', channel=0, note=74, velocity=0, time=113),
    Message('note_on', channel=0, note=75, velocity=80, time=7),
    Message('note_on', channel=0, note=75, velocity=0, time=341),
    Message('note_on', channel=0, note=60, velocity=80, time=19),
    Message('note_on', channel=0, note=63, velocity=80, time=0),
    Message('note_on', channel=0, note=68, velocity=80, time=0),
    Message('note_on', channel=0, note=60, velocity=0, time=341),
    Message('note_on', channel=0, note=63, velocity=0, time=0),
    Message('note_on', channel=0, note=68, velocity=0, time=0),
    Message('note_on', channel=0, note=79, velocity=80, time=139),
    Message('note_on', channel=0, note=79, velocity=0, time=113),
    Message('note_on', channel=0, note=77, velocity=80, time=7),
    Message('note_on', channel=0, note=77, velocity=0, time=227),
    Message('note_on', channel=0, note=77, velocity=80, time=13),
    Message('note_on', channel=0, note=77, velocity=0, time=227),
    Message('note_on', channel=0, note=67, velocity=80, time=13),
    Message('note_on', channel=0, note=77, velocity=80, time=0),
    Message('note_on', channel=0, note=77, velocity=0, time=113),
    Message('note_on', channel=0, note=75, velocity=80, time=7),
    Message('note_on', channel=0, note=75, velocity=0, time=113),
    Message('note_on', channel=0, note=72, velocity=80, time=7),
    Message('note_on', channel=0, note=67, velocity=0, time=899),
    Message('note_on', channel=0, note=72, velocity=0, time=12),
    Message('note_on', channel=0, note=72, velocity=80, time=169),
    Message('note_on', channel=0, note=72, velocity=0, time=113),
    Message('note_on', channel=0, note=67, velocity=80, time=7),
    Message('note_on', channel=0, note=72, velocity=80, time=0),
    Message('note_on', channel=0, note=72, velocity=0, time=170),
    Message('note_on', channel=0, note=72, velocity=80, time=10),
    Message('note_on', channel=0, note=67, velocity=0, time=161),
    Message('note_on', channel=0, note=72, velocity=0, time=9),
    Message('note_on', channel=0, note=75, velocity=80, time=10),
    Message('note_on', channel=0, note=75, velocity=0, time=113),
    Message('note_on', channel=0, note=67, velocity=80, time=7),
    Message('note_on', channel=0, note=74, velocity=80, time=0),
    Message('note_on', channel=0, note=74, velocity=0, time=227),
    Message('note_on', channel=0, note=72, velocity=80, time=13),
    Message('note_on', channel=0, note=72, velocity=0, time=113),
    Message('note_on', channel=0, note=72, velocity=80, time=7),
    Message('note_on', channel=0, note=67, velocity=0, time=437),
    Message('note_on', channel=0, note=72, velocity=0, time=18),
    Message('note_on', channel=0, note=63, velocity=80, time=145),
    Message('note_on', channel=0, note=67, velocity=80, time=0),
    Message('note_on', channel=0, note=63, velocity=0, time=455),
    Message('note_on', channel=0, note=67, velocity=0, time=0),
    Message('note_on', channel=0, note=67, velocity=80, time=25),
    Message('note_on', channel=0, note=72, velocity=80, time=0),
    Message('note_on', channel=0, note=67, velocity=0, time=227),
    Message('note_on', channel=0, note=72, velocity=0, time=0),
    Message('note_on', channel=0, note=67, velocity=80, time=13),
    Message('note_on', channel=0, note=79, velocity=80, time=0),
    Message('note_on', channel=0, note=67, velocity=0, time=227),
    Message('note_on', channel=0, note=79, velocity=0, time=0),
    Message('note_on', channel=0, note=67, velocity=80, time=13),
    Message('note_on', channel=0, note=77, velocity=80, time=0),
    Message('note_on', channel=0, note=67, velocity=0, time=227),
    Message('note_on', channel=0, note=77, velocity=0, time=0),
    Message('note_on', channel=0, note=67, velocity=80, time=13),
    Message('note_on', channel=0, note=79, velocity=80, time=0),
    Message('note_on', channel=0, note=67, velocity=0, time=113),
    Message('note_on', channel=0, note=79, velocity=0, time=0),
    Message('note_on', channel=0, note=67, velocity=80, time=7),
    Message('note_on', channel=0, note=72, velocity=80, time=0),
    Message('note_on', channel=0, note=75, velocity=80, time=0),
    Message('note_on', channel=0, note=67, velocity=0, time=455),
    Message('note_on', channel=0, note=72, velocity=0, time=0),
    Message('note_on', channel=0, note=75, velocity=0, time=0),
    Message('note_on', channel=0, note=60, velocity=80, time=25),
    Message('note_on', channel=0, note=63, velocity=80, time=0),
    Message('note_on', channel=0, note=60, velocity=0, time=569),
    Message('note_on', channel=0, note=63, velocity=0, time=0),
    Message('note_on', channel=0, note=72, velocity=80, time=31),
    Message('note_on', channel=0, note=84, velocity=80, time=0),
    Message('note_on', channel=0, note=72, velocity=0, time=227),
    Message('note_on', channel=0, note=84, velocity=0, time=0),
    Message('note_on', channel=0, note=67, velocity=80, time=13),
    Message('note_on', channel=0, note=79, velocity=80, time=0),
    Message('note_on', channel=0, note=67, velocity=0, time=227),
    Message('note_on', channel=0, note=79, velocity=0, time=0),
    Message('note_on', channel=0, note=65, velocity=80, time=13),
    Message('note_on', channel=0, note=77, velocity=80, time=0),
    Message('note_on', channel=0, note=65, velocity=0, time=227),
    Message('note_on', channel=0, note=77, velocity=0, time=0),
    Message('note_on', channel=0, note=67, velocity=80, time=13),
    Message('note_on', channel=0, note=79, velocity=80, time=0),
    Message('note_on', channel=0, note=67, velocity=0, time=113),
    Message('note_on', channel=0, note=79, velocity=0, time=0),
    Message('note_on', channel=0, note=63, velocity=80, time=7),
    Message('note_on', channel=0, note=75, velocity=80, time=0),
    Message('note_on', channel=0, note=63, velocity=0, time=455),
    Message('note_on', channel=0, note=75, velocity=0, time=0),
    Message('note_on', channel=0, note=56, velocity=80, time=25),
    Message('note_on', channel=0, note=60, velocity=80, time=0),
    Message('note_on', channel=0, note=56, velocity=0, time=569),
    Message('note_on', channel=0, note=60, velocity=0, time=0),
    Message('note_on', channel=0, note=67, velocity=80, time=31),
    Message('note_on', channel=0, note=79, velocity=80, time=0),
    Message('note_on', channel=0, note=67, velocity=0, time=113),
    Message('note_on', channel=0, note=79, velocity=0, time=0),
    Message('note_on', channel=0, note=67, velocity=80, time=7),
    Message('note_on', channel=0, note=79, velocity=80, time=0),
    Message('note_on', channel=0, note=67, velocity=0, time=341),
    Message('note_on', channel=0, note=79, velocity=0, time=0),
    Message('note_on', channel=0, note=68, velocity=80, time=19),
    Message('note_on', channel=0, note=72, velocity=80, time=0),
    Message('note_on', channel=0, note=79, velocity=80, time=0),
    Message('note_on', channel=0, note=68, velocity=0, time=341),
    Message('note_on', channel=0, note=72, velocity=0, time=0),
    Message('note_on', channel=0, note=79, velocity=0, time=0),
    Message('note_on', channel=0, note=68, velocity=80, time=19),
    Message('note_on', channel=0, note=72, velocity=80, time=0),
    Message('note_on', channel=0, note=79, velocity=80, time=0),
    Message('note_on', channel=0, note=68, velocity=0, time=227),
    Message('note_on', channel=0, note=72, velocity=0, time=0),
    Message('note_on', channel=0, note=79, velocity=0, time=0),
    Message('note_on', channel=0, note=68, velocity=80, time=13),
    Message('note_on', channel=0, note=72, velocity=80, time=0),
    Message('note_on', channel=0, note=79, velocity=80, time=0),
    Message('note_on', channel=0, note=68, velocity=0, time=341),
    Message('note_on', channel=0, note=72, velocity=0, time=0),
    Message('note_on', channel=0, note=79, velocity=0, time=0),
    Message('note_on', channel=0, note=68, velocity=80, time=19),
    Message('note_on', channel=0, note=72, velocity=80, time=0),
    Message('note_on', channel=0, note=79, velocity=80, time=0),
    Message('note_on', channel=0, note=68, velocity=0, time=341),
    Message('note_on', channel=0, note=72, velocity=0, time=0),
    Message('note_on', channel=0, note=79, velocity=0, time=0),
    Message('note_on', channel=0, note=68, velocity=80, time=19),
    Message('note_on', channel=0, note=72, velocity=80, time=0),
    Message('note_on', channel=0, note=79, velocity=80, time=0),
    Message('note_on', channel=0, note=68, velocity=0, time=227),
    Message('note_on', channel=0, note=72, velocity=0, time=0),
    Message('note_on', channel=0, note=79, velocity=0, time=0),
    Message('note_on', channel=0, note=72, velocity=80, time=13),
    Message('note_on', channel=0, note=84, velocity=80, time=0),
    Message('note_on', channel=0, note=72, velocity=0, time=341),
    Message('note_on', channel=0, note=84, velocity=0, time=0),
    Message('note_on', channel=0, note=72, velocity=80, time=19),
    Message('note_on', channel=0, note=83, velocity=80, time=0),
    Message('note_on', channel=0, note=72, velocity=0, time=455),
    Message('note_on', channel=0, note=83, velocity=0, time=0),
    Message('note_on', channel=0, note=67, velocity=88, time=25),
    Message('note_on', channel=0, note=79, velocity=88, time=0),
    Message('note_on', channel=0, note=67, velocity=0, time=341),
    Message('note_on', channel=0, note=79, velocity=0, time=0),
    Message('note_on', channel=0, note=62, velocity=94, time=19),
    Message('note_on', channel=0, note=62, velocity=0, time=113),
    Message('note_on', channel=0, note=55, velocity=96, time=7),
    Message('note_on', channel=0, note=55, velocity=0, time=113),
    Message('note_on', channel=0, note=59, velocity=98, time=7),
    Message('note_on', channel=0, note=59, velocity=0, time=113),
    Message('note_on', channel=0, note=67, velocity=100, time=7),
    Message('note_on', channel=0, note=67, velocity=0, time=227),
    Message('note_on', channel=0, note=60, velocity=104, time=13),
    Message('note_on', channel=0, note=72, velocity=104, time=0),
    Message('note_on', channel=0, note=60, velocity=0, time=227),
    Message('note_on', channel=0, note=72, velocity=0, time=0),
    Message('note_on', channel=0, note=60, velocity=108, time=13),
    Message('note_on', channel=0, note=72, velocity=108, time=0),
    Message('note_on', channel=0, note=60, velocity=0, time=227),
    Message('note_on', channel=0, note=72, velocity=0, time=0),
    MetaMessage('key_signature', key='Eb', time=13),
    Message('note_on', channel=0, note=60, velocity=112, time=0),
    Message('note_on', channel=0, note=72, velocity=112, time=0),
    Message('note_on', channel=0, note=60, velocity=0, time=227),
    Message('note_on', channel=0, note=72, velocity=0, time=0),
    Message('note_on', channel=0, note=67, velocity=112, time=13),
    Message('note_on', channel=0, note=79, velocity=112, time=0),
    Message('note_on', channel=0, note=67, velocity=0, time=227),
    Message('note_on', channel=0, note=79, velocity=0, time=0),
    Message('note_on', channel=0, note=63, velocity=112, time=13),
    Message('note_on', channel=0, note=63, velocity=0, time=227),
    Message('note_on', channel=0, note=55, velocity=112, time=133),
    Message('note_on', channel=0, note=55, velocity=0, time=113),
    Message('note_on', channel=0, note=60, velocity=112, time=7),
    Message('note_on', channel=0, note=60, velocity=0, time=227),
    Message('note_on', channel=0, note=63, velocity=112, time=13),
    Message('note_on', channel=0, note=63, velocity=0, time=227),
    Message('note_on', channel=0, note=60, velocity=112, time=13),
    Message('note_on', channel=0, note=63, velocity=112, time=0),
    Message('note_on', channel=0, note=72, velocity=112, time=0),
    Message('note_on', channel=0, note=60, velocity=0, time=227),
    Message('note_on', channel=0, note=63, velocity=0, time=0),
    Message('note_on', channel=0, note=72, velocity=0, time=0),
    Message('note_on', channel=0, note=60, velocity=112, time=13),
    Message('note_on', channel=0, note=63, velocity=112, time=0),
    Message('note_on', channel=0, note=72, velocity=112, time=0),
    Message('note_on', channel=0, note=60, velocity=0, time=227),
    Message('note_on', channel=0, note=63, velocity=0, time=0),
    Message('note_on', channel=0, note=72, velocity=0, time=0),
    Message('note_on', channel=0, note=60, velocity=112, time=13),
    Message('note_on', channel=0, note=63, velocity=112, time=0),
    Message('note_on', channel=0, note=72, velocity=112, time=0),
    Message('note_on', channel=0, note=60, velocity=0, time=227),
    Message('note_on', channel=0, note=63, velocity=0, time=0),
    Message('note_on', channel=0, note=72, velocity=0, time=0),
    Message('note_on', channel=0, note=68, velocity=112, time=13),
    Message('note_on', channel=0, note=80, velocity=112, time=0),
    Message('note_on', channel=0, note=68, velocity=0, time=227),
    Message('note_on', channel=0, note=80, velocity=0, time=0),
    Message('note_on', channel=0, note=63, velocity=112, time=13),
    Message('note_on', channel=0, note=63, velocity=0, time=227),
    Message('note_on', channel=0, note=60, velocity=112, time=13),
    Message('note_on', channel=0, note=60, velocity=0, time=113),
    Message('note_on', channel=0, note=60, velocity=112, time=7),
    Message('note_on', channel=0, note=60, velocity=0, time=113),
    Message('note_on', channel=0, note=60, velocity=112, time=7),
    Message('note_on', channel=0, note=60, velocity=0, time=227),
    Message('note_on', channel=0, note=63, velocity=112, time=13),
    Message('note_on', channel=0, note=63, velocity=0, time=227),
    Message('note_on', channel=0, note=60, velocity=112, time=13),
    Message('note_on', channel=0, note=63, velocity=112, time=0),
    Message('note_on', channel=0, note=72, velocity=112, time=0),
    Message('note_on', channel=0, note=60, velocity=0, time=227),
    Message('note_on', channel=0, note=63, velocity=0, time=0),
    Message('note_on', channel=0, note=72, velocity=0, time=0),
    Message('note_on', channel=0, note=60, velocity=112, time=13),
    Message('note_on', channel=0, note=63, velocity=112, time=0),
    Message('note_on', channel=0, note=72, velocity=112, time=0),
    Message('note_on', channel=0, note=60, velocity=0, time=227),
    Message('note_on', channel=0, note=63, velocity=0, time=0),
    Message('note_on', channel=0, note=72, velocity=0, time=0),
    Message('note_on', channel=0, note=60, velocity=112, time=13),
    Message('note_on', channel=0, note=63, velocity=112, time=0),
    Message('note_on', channel=0, note=72, velocity=112, time=0),
    Message('note_on', channel=0, note=60, velocity=0, time=227),
    Message('note_on', channel=0, note=63, velocity=0, time=0),
    Message('note_on', channel=0, note=72, velocity=0, time=0),
    Message('note_on', channel=0, note=72, velocity=112, time=133),
    Message('note_on', channel=0, note=84, velocity=112, time=0),
    Message('note_on', channel=0, note=72, velocity=0, time=341),
    Message('note_on', channel=0, note=84, velocity=0, time=0),
    Message('note_on', channel=0, note=69, velocity=112, time=19),
    Message('note_on', channel=0, note=72, velocity=112, time=0),
    Message('note_on', channel=0, note=79, velocity=112, time=0),
    Message('note_on', channel=0, note=69, velocity=0, time=227),
    Message('note_on', channel=0, note=72, velocity=0, time=0),
    Message('note_on', channel=0, note=79, velocity=0, time=0),
    Message('note_on', channel=0, note=69, velocity=112, time=13),
    Message('note_on', channel=0, note=72, velocity=112, time=0),
    Message('note_on', channel=0, note=77, velocity=112, time=0),
    Message('note_on', channel=0, note=69, velocity=0, time=455),
    Message('note_on', channel=0, note=72, velocity=0, time=0),
    Message('note_on', channel=0, note=77, velocity=0, time=0),
    Message('note_on', channel=0, note=69, velocity=112, time=25),
    Message('note_on', channel=0, note=72, velocity=112, time=0),
    Message('note_on', channel=0, note=77, velocity=112, time=0),
    Message('note_on', channel=0, note=69, velocity=0, time=227),
    Message('note_on', channel=0, note=72, velocity=0, time=0),
    Message('note_on', channel=0, note=77, velocity=0, time=0),
    Message('note_on', channel=0, note=69, velocity=112, time=13),
    Message('note_on', channel=0, note=72, velocity=112, time=0),
    Message('note_on', channel=0, note=75, velocity=112, time=0),
    Message('note_on', channel=0, note=69, velocity=0, time=227),
    Message('note_on', channel=0, note=72, velocity=0, time=0),
    Message('note_on', channel=0, note=75, velocity=0, time=0),
    Message('note_on', channel=0, note=69, velocity=112, time=13),
    Message('note_on', channel=0, note=72, velocity=112, time=0),
    Message('note_on', channel=0, note=77, velocity=112, time=0),
    Message('note_on', channel=0, note=69, velocity=0, time=227),
    Message('note_on', channel=0, note=72, velocity=0, time=0),
    Message('note_on', channel=0, note=77, velocity=0, time=0),
    Message('note_on', channel=0, note=75, velocity=112, time=133),
    Message('note_on', channel=0, note=75, velocity=0, time=113),
    Message('note_on', channel=0, note=74, velocity=112, time=7),
    Message('note_on', channel=0, note=74, velocity=0, time=113),
    Message('note_on', channel=0, note=75, velocity=112, time=7),
    Message('note_on', channel=0, note=75, velocity=0, time=227),
    Message('note_on', channel=0, note=65, velocity=112, time=133),
    Message('note_on', channel=0, note=71, velocity=112, time=0),
    Message('note_on', channel=0, note=74, velocity=112, time=0),
    Message('note_on', channel=0, note=65, velocity=0, time=455),
    Message('note_on', channel=0, note=71, velocity=0, time=0),
    Message('note_on', channel=0, note=74, velocity=0, time=0),
    Message('note_on', channel=0, note=65, velocity=112, time=25),
    Message('note_on', channel=0, note=71, velocity=112, time=0),
    Message('note_on', channel=0, note=74, velocity=112, time=0),
    Message('note_on', channel=0, note=65, velocity=0, time=455),
    Message('note_on', channel=0, note=71, velocity=0, time=0),
    Message('note_on', channel=0, note=74, velocity=0, time=0),
    Message('note_on', channel=0, note=60, velocity=112, time=25),
    Message('note_on', channel=0, note=72, velocity=112, time=0),
    Message('note_on', channel=0, note=60, velocity=0, time=227),
    Message('note_on', channel=0, note=72, velocity=0, time=0),
    Message('note_on', channel=0, note=67, velocity=112, time=13),
    Message('note_on', channel=0, note=79, velocity=112, time=0),
    Message('note_on', channel=0, note=67, velocity=0, time=227),
    Message('note_on', channel=0, note=79, velocity=0, time=0),
    Message('note_on', channel=0, note=63, velocity=112, time=13),
    Message('note_on', channel=0, note=63, velocity=0, time=227),
    Message('note_on', channel=0, note=55, velocity=112, time=133),
    Message('note_on', channel=0, note=55, velocity=0, time=113),
    Message('note_on', channel=0, note=60, velocity=112, time=7),
    Message('note_on', channel=0, note=60, velocity=0, time=227),
    Message('note_on', channel=0, note=63, velocity=112, time=13),
    Message('note_on', channel=0, note=63, velocity=0, time=227),
    Message('note_on', channel=0, note=60, velocity=112, time=13),
    Message('note_on', channel=0, note=63, velocity=112, time=0),
    Message('note_on', channel=0, note=72, velocity=112, time=0),
    Message('note_on', channel=0, note=60, velocity=0, time=227),
    Message('note_on', channel=0, note=63, velocity=0, time=0),
    Message('note_on', channel=0, note=72, velocity=0, time=0),
    Message('note_on', channel=0, note=60, velocity=112, time=13),
    Message('note_on', channel=0, note=63, velocity=112, time=0),
    Message('note_on', channel=0, note=72, velocity=112, time=0),
    Message('note_on', channel=0, note=60, velocity=0, time=227),
    Message('note_on', channel=0, note=63, velocity=0, time=0),
    Message('note_on', channel=0, note=72, velocity=0, time=0),
    Message('note_on', channel=0, note=60, velocity=112, time=13),
    Message('note_on', channel=0, note=63, velocity=112, time=0),
    Message('note_on', channel=0, note=72, velocity=112, time=0),
    Message('note_on', channel=0, note=60, velocity=0, time=227),
    Message('note_on', channel=0, note=63, velocity=0, time=0),
    Message('note_on', channel=0, note=72, velocity=0, time=0),
    Message('note_on', channel=0, note=68, velocity=112, time=13),
    Message('note_on', channel=0, note=80, velocity=112, time=0),
    Message('note_on', channel=0, note=68, velocity=0, time=227),
    Message('note_on', channel=0, note=80, velocity=0, time=0),
    Message('note_on', channel=0, note=63, velocity=112, time=13),
    Message('note_on', channel=0, note=63, velocity=0, time=227),
    Message('note_on', channel=0, note=60, velocity=112, time=13),
    Message('note_on', channel=0, note=60, velocity=0, time=113),
    Message('note_on', channel=0, note=60, velocity=112, time=7),
    Message('note_on', channel=0, note=60, velocity=0, time=113),
    Message('note_on', channel=0, note=60, velocity=112, time=7),
    Message('note_on', channel=0, note=60, velocity=0, time=227),
    Message('note_on', channel=0, note=63, velocity=112, time=13),
    Message('note_on', channel=0, note=63, velocity=0, time=227),
    Message('note_on', channel=0, note=60, velocity=112, time=13),
    Message('note_on', channel=0, note=63, velocity=112, time=0),
    Message('note_on', channel=0, note=72, velocity=112, time=0),
    Message('note_on', channel=0, note=60, velocity=0, time=227),
    Message('note_on', channel=0, note=63, velocity=0, time=0),
    Message('note_on', channel=0, note=72, velocity=0, time=0),
    Message('note_on', channel=0, note=60, velocity=112, time=13),
    Message('note_on', channel=0, note=63, velocity=112, time=0),
    Message('note_on', channel=0, note=72, velocity=112, time=0),
    Message('note_on', channel=0, note=60, velocity=0, time=227),
    Message('note_on', channel=0, note=63, velocity=0, time=0),
    Message('note_on', channel=0, note=72, velocity=0, time=0),
    Message('note_on', channel=0, note=60, velocity=112, time=13),
    Message('note_on', channel=0, note=63, velocity=112, time=0),
    Message('note_on', channel=0, note=72, velocity=112, time=0),
    Message('note_on', channel=0, note=60, velocity=0, time=227),
    Message('note_on', channel=0, note=63, velocity=0, time=0),
    Message('note_on', channel=0, note=72, velocity=0, time=0),
    Message('note_on', channel=0, note=72, velocity=112, time=133),
    Message('note_on', channel=0, note=84, velocity=112, time=0),
    Message('note_on', channel=0, note=72, velocity=0, time=341),
    Message('note_on', channel=0, note=84, velocity=0, time=0),
    Message('note_on', channel=0, note=69, velocity=112, time=19),
    Message('note_on', channel=0, note=72, velocity=112, time=0),
    Message('note_on', channel=0, note=79, velocity=112, time=0),
    Message('note_on', channel=0, note=69, velocity=0, time=227),
    Message('note_on', channel=0, note=72, velocity=0, time=0),
    Message('note_on', channel=0, note=79, velocity=0, time=0),
    Message('note_on', channel=0, note=69, velocity=112, time=13),
    Message('note_on', channel=0, note=72, velocity=112, time=0),
    Message('note_on', channel=0, note=77, velocity=112, time=0),
    Message('note_on', channel=0, note=69, velocity=0, time=455),
    Message('note_on', channel=0, note=72, velocity=0, time=0),
    Message('note_on', channel=0, note=77, velocity=0, time=0),
    Message('note_on', channel=0, note=69, velocity=112, time=25),
    Message('note_on', channel=0, note=72, velocity=112, time=0),
    Message('note_on', channel=0, note=77, velocity=112, time=0),
    Message('note_on', channel=0, note=69, velocity=0, time=227),
    Message('note_on', channel=0, note=72, velocity=0, time=0),
    Message('note_on', channel=0, note=77, velocity=0, time=0),
    Message('note_on', channel=0, note=69, velocity=112, time=13),
    Message('note_on', channel=0, note=72, velocity=112, time=0),
    Message('note_on', channel=0, note=75, velocity=112, time=0),
    Message('note_on', channel=0, note=69, velocity=0, time=227),
    Message('note_on', channel=0, note=72, velocity=0, time=0),
    Message('note_on', channel=0, note=75, velocity=0, time=0),
    Message('note_on', channel=0, note=69, velocity=112, time=13),
    Message('note_on', channel=0, note=72, velocity=112, time=0),
    Message('note_on', channel=0, note=77, velocity=112, time=0),
    Message('note_on', channel=0, note=69, velocity=0, time=341),
    Message('note_on', channel=0, note=72, velocity=0, time=0),
    Message('note_on', channel=0, note=77, velocity=0, time=0),
    Message('note_on', channel=0, note=75, velocity=112, time=19),
    Message('note_on', channel=0, note=75, velocity=0, time=113),
    Message('note_on', channel=0, note=74, velocity=112, time=7),
    Message('note_on', channel=0, note=74, velocity=0, time=113),
    Message('note_on', channel=0, note=75, velocity=112, time=7),
    Message('note_on', channel=0, note=75, velocity=0, time=113),
    Message('note_on', channel=0, note=65, velocity=112, time=247),
    Message('note_on', channel=0, note=71, velocity=112, time=0),
    Message('note_on', channel=0, note=74, velocity=112, time=0),
    Message('note_on', channel=0, note=65, velocity=0, time=455),
    Message('note_on', channel=0, note=71, velocity=0, time=0),
    Message('note_on', channel=0, note=74, velocity=0, time=0),
    Message('note_on', channel=0, note=65, velocity=112, time=25),
    Message('note_on', channel=0, note=71, velocity=112, time=0),
    Message('note_on', channel=0, note=74, velocity=112, time=0),
    Message('note_on', channel=0, note=65, velocity=0, time=455),
    Message('note_on', channel=0, note=71, velocity=0, time=0),
    Message('note_on', channel=0, note=74, velocity=0, time=0),
    Message('note_on', channel=0, note=60, velocity=112, time=25),
    Message('note_on', channel=0, note=63, velocity=112, time=0),
    Message('note_on', channel=0, note=72, velocity=112, time=0),
    Message('note_on', channel=0, note=60, velocity=0, time=455),
    Message('note_on', channel=0, note=63, velocity=0, time=0),
    Message('note_on', channel=0, note=72, velocity=0, time=0),
    Message('note_on', channel=0, note=63, velocity=112, time=25),
    Message('note_on', channel=0, note=63, velocity=0, time=227),
    Message('note_on', channel=0, note=72, velocity=112, time=13),
    Message('note_on', channel=0, note=84, velocity=112, time=0),
    Message('note_on', channel=0, note=72, velocity=0, time=113),
    Message('note_on', channel=0, note=84, velocity=0, time=0),
    Message('note_on', channel=0, note=70, velocity=112, time=7),
    Message('note_on', channel=0, note=82, velocity=112, time=0),
    Message('note_on', channel=0, note=70, velocity=0, time=113),
    Message('note_on', channel=0, note=82, velocity=0, time=0),
    Message('note_on', channel=0, note=72, velocity=112, time=7),
    Message('note_on', channel=0, note=84, velocity=112, time=0),
    Message('note_on', channel=0, note=72, velocity=0, time=227),
    Message('note_on', channel=0, note=84, velocity=0, time=0),
    Message('note_on', channel=0, note=72, velocity=112, time=13),
    Message('note_on', channel=0, note=75, velocity=112, time=0),
    Message('note_on', channel=0, note=84, velocity=112, time=0),
    Message('note_on', channel=0, note=72, velocity=0, time=341),
    Message('note_on', channel=0, note=75, velocity=0, time=0),
    Message('note_on', channel=0, note=84, velocity=0, time=0),
    Message('note_on', channel=0, note=63, velocity=112, time=19),
    Message('note_on', channel=0, note=67, velocity=112, time=0),
    Message('note_on', channel=0, note=63, velocity=0, time=341),
    Message('note_on', channel=0, note=67, velocity=0, time=0),
    Message('note_on', channel=0, note=60, velocity=112, time=19),
    Message('note_on', channel=0, note=63, velocity=112, time=0),
    Message('note_on', channel=0, note=60, velocity=0, time=227),
    Message('note_on', channel=0, note=63, velocity=0, time=0),
    Message('note_on', channel=0, note=56, velocity=112, time=13),
    Message('note_on', channel=0, note=56, velocity=0, time=227),
    Message('note_on', channel=0, note=60, velocity=112, time=13),
    Message('note_on', channel=0, note=63, velocity=112, time=0),
    Message('note_on', channel=0, note=60, velocity=0, time=341),
    Message('note_on', channel=0, note=63, velocity=0, time=0),
    Message('note_on', channel=0, note=56, velocity=112, time=19),
    Message('note_on', channel=0, note=56, velocity=0, time=113),
    Message('note_on', channel=0, note=60, velocity=112, time=7),
    Message('note_on', channel=0, note=60, velocity=0, time=227),
    Message('note_on', channel=0, note=60, velocity=112, time=13),
    Message('note_on', channel=0, note=63, velocity=112, time=0),
    Message('note_on', channel=0, note=60, velocity=0, time=341),
    Message('note_on', channel=0, note=63, velocity=0, time=0),
    Message('note_on', channel=0, note=60, velocity=112, time=19),
    Message('note_on', channel=0, note=63, velocity=112, time=0),
    Message('note_on', channel=0, note=56, velocity=112, time=120),
    Message('note_on', channel=0, note=60, velocity=0, time=221),
    Message('note_on', channel=0, note=63, velocity=0, time=0),
    Message('note_on', channel=0, note=56, velocity=0, time=6),
    Message('note_on', channel=0, note=57, velocity=112, time=13),
    Message('note_on', channel=0, note=60, velocity=112, time=0),
    Message('note_on', channel=0, note=63, velocity=112, time=0),
    Message('note_on', channel=0, note=57, velocity=0, time=227),
    Message('note_on', channel=0, note=60, velocity=0, time=0),
    Message('note_on', channel=0, note=63, velocity=0, time=0),
    Message('note_on', channel=0, note=57, velocity=112, time=13),
    Message('note_on', channel=0, note=57, velocity=0, time=227),
    Message('note_on', channel=0, note=60, velocity=112, time=13),
    Message('note_on', channel=0, note=63, velocity=112, time=0),
    Message('note_on', channel=0, note=60, velocity=0, time=227),
    Message('note_on', channel=0, note=63, velocity=0, time=0),
    Message('note_on', channel=0, note=72, velocity=112, time=13),
    Message('note_on', channel=0, note=84, velocity=112, time=0),
    Message('note_on', channel=0, note=72, velocity=0, time=113),
    Message('note_on', channel=0, note=84, velocity=0, time=0),
    Message('note_on', channel=0, note=70, velocity=112, time=7),
    Message('note_on', channel=0, note=82, velocity=112, time=0),
    Message('note_on', channel=0, note=70, velocity=0, time=113),
    Message('note_on', channel=0, note=82, velocity=0, time=0),
    Message('note_on', channel=0, note=72, velocity=112, time=7),
    Message('note_on', channel=0, note=84, velocity=112, time=0),
    Message('note_on', channel=0, note=72, velocity=0, time=113),
    Message('note_on', channel=0, note=84, velocity=0, time=0),
    Message('note_on', channel=0, note=70, velocity=112, time=7),
    Message('note_on', channel=0, note=82, velocity=112, time=0),
    Message('note_on', channel=0, note=70, velocity=0, time=113),
    Message('note_on', channel=0, note=82, velocity=0, time=0),
    Message('note_on', channel=0, note=72, velocity=112, time=7),
    Message('note_on', channel=0, note=84, velocity=112, time=0),
    Message('note_on', channel=0, note=72, velocity=0, time=341),
    Message('note_on', channel=0, note=84, velocity=0, time=0),
    Message('note_on', channel=0, note=70, velocity=112, time=19),
    Message('note_on', channel=0, note=82, velocity=112, time=0),
    Message('note_on', channel=0, note=70, velocity=0, time=113),
    Message('note_on', channel=0, note=82, velocity=0, time=0),
    Message('note_on', channel=0, note=72, velocity=112, time=7),
    Message('note_on', channel=0, note=84, velocity=112, time=0),
    Message('note_on', channel=0, note=72, velocity=0, time=113),
    Message('note_on', channel=0, note=84, velocity=0, time=0),
    Message('note_on', channel=0, note=70, velocity=112, time=7),
    Message('note_on', channel=0, note=82, velocity=112, time=0),
    Message('note_on', channel=0, note=70, velocity=0, time=113),
    Message('note_on', channel=0, note=82, velocity=0, time=0),
    Message('note_on', channel=0, note=72, velocity=112, time=7),
    Message('note_on', channel=0, note=84, velocity=112, time=0),
    Message('note_on', channel=0, note=72, velocity=0, time=113),
    Message('note_on', channel=0, note=84, velocity=0, time=0),
    Message('note_on', channel=0, note=70, velocity=112, time=7),
    Message('note_on', channel=0, note=82, velocity=112, time=0),
    Message('note_on', channel=0, note=70, velocity=0, time=113),
    Message('note_on', channel=0, note=82, velocity=0, time=0),
    Message('note_on', channel=0, note=67, velocity=112, time=7),
    Message('note_on', channel=0, note=79, velocity=112, time=0),
    Message('note_on', channel=0, note=67, velocity=0, time=113),
    Message('note_on', channel=0, note=79, velocity=0, time=0),
    Message('note_on', channel=0, note=67, velocity=112, time=7),
    Message('note_on', channel=0, note=79, velocity=112, time=0),
    Message('note_on', channel=0, note=67, velocity=0, time=455),
    Message('note_on', channel=0, note=79, velocity=0, time=0),
    Message('note_on', channel=0, note=67, velocity=112, time=145),
    Message('note_on', channel=0, note=71, velocity=112, time=0),
    Message('note_on', channel=0, note=79, velocity=112, time=0),
    Message('note_on', channel=0, note=67, velocity=0, time=455),
    Message('note_on', channel=0, note=71, velocity=0, time=0),
    Message('note_on', channel=0, note=79, velocity=0, time=0),
    Message('note_on', channel=0, note=67, velocity=112, time=25),
    Message('note_on', channel=0, note=71, velocity=112, time=0),
    Message('note_on', channel=0, note=79, velocity=112, time=0),
    Message('note_on', channel=0, note=67, velocity=0, time=455),
    Message('note_on', channel=0, note=71, velocity=0, time=0),
    Message('note_on', channel=0, note=79, velocity=0, time=0),
    Message('note_on', channel=0, note=67, velocity=112, time=25),
    Message('note_on', channel=0, note=72, velocity=112, time=0),
    Message('note_on', channel=0, note=79, velocity=112, time=0),
    Message('note_on', channel=0, note=67, velocity=0, time=455),
    Message('note_on', channel=0, note=72, velocity=0, time=0),
    Message('note_on', channel=0, note=79, velocity=0, time=0),
    Message('note_on', channel=0, note=55, velocity=112, time=25),
    Message('note_on', channel=0, note=60, velocity=112, time=0),
    Message('note_on', channel=0, note=63, velocity=112, time=0),
    Message('note_on', channel=0, note=67, velocity=112, time=0),
    Message('note_on', channel=0, note=55, velocity=0, time=341),
    Message('note_on', channel=0, note=60, velocity=0, time=0),
    Message('note_on', channel=0, note=63, velocity=0, time=0),
    Message('note_on', channel=0, note=67, velocity=0, time=0),
    Message('note_on', channel=0, note=55, velocity=112, time=19),
    Message('note_on', channel=0, note=55, velocity=0, time=113),
    Message('note_on', channel=0, note=60, velocity=112, time=7),
    Message('note_on', channel=0, note=60, velocity=0, time=227),
    Message('note_on', channel=0, note=55, velocity=112, time=13),
    Message('note_on', channel=0, note=60, velocity=112, time=0),
    Message('note_on', channel=0, note=63, velocity=112, time=0),
    Message('note_on', channel=0, note=55, velocity=0, time=341),
    Message('note_on', channel=0, note=60, velocity=0, time=0),
    Message('note_on', channel=0, note=63, velocity=0, time=0),
    Message('note_on', channel=0, note=65, velocity=112, time=19),
    Message('note_on', channel=0, note=77, velocity=112, time=0),
    Message('note_on', channel=0, note=65, velocity=0, time=170),
    Message('note_on', channel=0, note=77, velocity=0, time=0),
    Message('note_on', channel=0, note=67, velocity=112, time=10),
    Message('note_on', channel=0, note=79, velocity=112, time=0),
    Message('note_on', channel=0, note=67, velocity=0, time=170),
    Message('note_on', channel=0, note=79, velocity=0, time=0),
    Message('note_on', channel=0, note=68, velocity=112, time=10),
    Message('note_on', channel=0, note=75, velocity=112, time=0),
    Message('note_on', channel=0, note=80, velocity=112, time=0),
    Message('note_on', channel=0, note=68, velocity=0, time=455),
    Message('note_on', channel=0, note=75, velocity=0, time=0),
    Message('note_on', channel=0, note=80, velocity=0, time=0),
    Message('note_on', channel=0, note=56, velocity=112, time=25),
    Message('note_on', channel=0, note=60, velocity=112, time=0),
    Message('note_on', channel=0, note=63, velocity=112, time=0),
    Message('note_on', channel=0, note=56, velocity=0, time=341),
    Message('note_on', channel=0, note=60, velocity=0, time=0),
    Message('note_on', channel=0, note=63, velocity=0, time=0),
    Message('note_on', channel=0, note=56, velocity=112, time=19),
    Message('note_on', channel=0, note=56, velocity=0, time=113),
    Message('note_on', channel=0, note=60, velocity=112, time=7),
    Message('note_on', channel=0, note=60, velocity=0, time=227),
    Message('note_on', channel=0, note=56, velocity=112, time=13),
    Message('note_on', channel=0, note=60, velocity=112, time=0),
    Message('note_on', channel=0, note=63, velocity=112, time=0),
    Message('note_on', channel=0, note=56, velocity=0, time=341),
    Message('note_on', channel=0, note=60, velocity=0, time=0),
    Message('note_on', channel=0, note=63, velocity=0, time=0),
    Message('note_on', channel=0, note=67, velocity=112, time=19),
    Message('note_on', channel=0, note=79, velocity=112, time=0),
    Message('note_on', channel=0, note=67, velocity=0, time=170),
    Message('note_on', channel=0, note=79, velocity=0, time=0),
    Message('note_on', channel=0, note=68, velocity=112, time=10),
    Message('note_on', channel=0, note=80, velocity=112, time=0),
    Message('note_on', channel=0, note=68, velocity=0, time=170),
    Message('note_on', channel=0, note=80, velocity=0, time=0),
    Message('note_on', channel=0, note=70, velocity=112, time=10),
    Message('note_on', channel=0, note=82, velocity=112, time=0),
    Message('note_on', channel=0, note=70, velocity=0, time=455),
    Message('note_on', channel=0, note=82, velocity=0, time=0),
    Message('note_on', channel=0, note=56, velocity=112, time=25),
    Message('note_on', channel=0, note=60, velocity=112, time=0),
    Message('note_on', channel=0, note=65, velocity=112, time=0),
    Message('note_on', channel=0, note=56, velocity=0, time=341),
    Message('note_on', channel=0, note=60, velocity=0, time=0),
    Message('note_on', channel=0, note=65, velocity=0, time=0),
    Message('note_on', channel=0, note=56, velocity=112, time=19),
    Message('note_on', channel=0, note=56, velocity=0, time=113),
    Message('note_on', channel=0, note=60, velocity=112, time=7),
    Message('note_on', channel=0, note=60, velocity=0, time=227),
    Message('note_on', channel=0, note=56, velocity=112, time=13),
    Message('note_on', channel=0, note=60, velocity=112, time=0),
    Message('note_on', channel=0, note=65, velocity=112, time=0),
    Message('note_on', channel=0, note=56, velocity=0, time=341),
    Message('note_on', channel=0, note=60, velocity=0, time=0),
    Message('note_on', channel=0, note=65, velocity=0, time=0),
    Message('note_on', channel=0, note=72, velocity=112, time=139),
    Message('note_on', channel=0, note=84, velocity=112, time=0),
    MetaMessage('set_tempo', tempo=1000000, time=240),
    Message('note_on', channel=0, note=72, velocity=0, time=1811),
    Message('note_on', channel=0, note=84, velocity=0, time=0),
    Message('note_on', channel=0, note=84, velocity=112, time=109),
    Message('note_on', channel=0, note=84, velocity=0, time=341),
    Message('note_on', channel=0, note=84, velocity=112, time=19),
    Message('note_on', channel=0, note=84, velocity=0, time=341),
    MetaMessage('set_tempo', tempo=750002, time=19),
    Message('note_on', channel=0, note=84, velocity=112, time=0),
    Message('note_on', channel=0, note=84, velocity=0, time=56),
    Message('note_on', channel=0, note=82, velocity=112, time=4),
    Message('note_on', channel=0, note=82, velocity=0, time=56),
    Message('note_on', channel=0, note=79, velocity=112, time=4),
    Message('note_on', channel=0, note=79, velocity=0, time=56),
    Message('note_on', channel=0, note=77, velocity=112, time=4),
    Message('note_on', channel=0, note=77, velocity=0, time=56),
    Message('note_on', channel=0, note=79, velocity=112, time=4),
    Message('note_on', channel=0, note=79, velocity=0, time=911),
    Message('note_on', channel=0, note=62, velocity=112, time=49),
    Message('note_on', channel=0, note=67, velocity=112, time=0),
    Message('note_on', channel=0, note=62, velocity=0, time=3647),
    Message('note_on', channel=0, note=67, velocity=0, time=0),
    MetaMessage('end_of_track', time=1)]),
  MidiTrack([
    MetaMessage('key_signature', key='Eb', time=0),
    MetaMessage('midi_port', port=0, time=0),
    Message('note_on', channel=0, note=36, velocity=112, time=0),
    Message('note_on', channel=0, note=43, velocity=112, time=0),
    Message('note_on', channel=0, note=48, velocity=112, time=0),
    Message('control_change', channel=0, control=64, value=127, time=2),
    Message('control_change', channel=0, control=64, value=0, time=1919),
    Message('control_change', channel=0, control=64, value=127, time=1),
    Message('note_on', channel=0, note=36, velocity=0, time=1497),
    Message('note_on', channel=0, note=43, velocity=0, time=0),
    Message('note_on', channel=0, note=48, velocity=0, time=0),
    Message('note_on', channel=0, note=48, velocity=112, time=421),
    Message('control_change', channel=0, control=64, value=0, time=1),
    Message('control_change', channel=0, control=64, value=127, time=1),
    Message('note_on', channel=0, note=48, velocity=0, time=681),
    Message('note_on', channel=0, note=48, velocity=112, time=37),
    Message('note_on', channel=0, note=48, velocity=0, time=227),
    Message('note_on', channel=0, note=44, velocity=112, time=13),
    Message('note_on', channel=0, note=44, velocity=0, time=683),
    Message('note_on', channel=0, note=44, velocity=112, time=37),
    Message('note_on', channel=0, note=44, velocity=0, time=227),
    Message('note_on', channel=0, note=41, velocity=112, time=13),
    Message('control_change', channel=0, control=64, value=0, time=1),
    Message('control_change', channel=0, control=64, value=127, time=1),
    Message('note_on', channel=0, note=41, velocity=0, time=681),
    Message('note_on', channel=0, note=41, velocity=112, time=37),
    Message('note_on', channel=0, note=41, velocity=0, time=455),
    Message('note_on', channel=0, note=53, velocity=112, time=25),
    Message('note_on', channel=0, note=53, velocity=0, time=227),
    Message('note_on', channel=0, note=53, velocity=112, time=133),
    Message('note_on', channel=0, note=53, velocity=0, time=341),
    Message('note_on', channel=0, note=48, velocity=112, time=19),
    Message('control_change', channel=0, control=64, value=0, time=1),
    Message('control_change', channel=0, control=64, value=127, time=1),
    Message('note_on', channel=0, note=48, velocity=0, time=681),
    Message('note_on', channel=0, note=48, velocity=112, time=37),
    Message('note_on', channel=0, note=48, velocity=0, time=227),
    Message('note_on', channel=0, note=44, velocity=112, time=13),
    Message('note_on', channel=0, note=44, velocity=0, time=683),
    Message('note_on', channel=0, note=44, velocity=112, time=37),
    Message('note_on', channel=0, note=44, velocity=0, time=227),
    Message('note_on', channel=0, note=41, velocity=112, time=13),
    Message('control_change', channel=0, control=64, value=0, time=1),
    Message('control_change', channel=0, control=64, value=127, time=1),
    Message('note_on', channel=0, note=41, velocity=0, time=681),
    Message('note_on', channel=0, note=41, velocity=112, time=37),
    Message('note_on', channel=0, note=41, velocity=0, time=455),
    Message('note_on', channel=0, note=53, velocity=112, time=25),
    Message('note_on', channel=0, note=53, velocity=0, time=227),
    Message('note_on', channel=0, note=53, velocity=112, time=133),
    Message('note_on', channel=0, note=53, velocity=0, time=341),
    Message('note_on', channel=0, note=48, velocity=112, time=19),
    Message('control_change', channel=0, control=64, value=0, time=1),
    Message('control_change', channel=0, control=64, value=127, time=1),
    Message('note_on', channel=0, note=48, velocity=0, time=681),
    Message('note_on', channel=0, note=48, velocity=112, time=37),
    Message('note_on', channel=0, note=48, velocity=0, time=227),
    Message('note_on', channel=0, note=44, velocity=112, time=13),
    Message('note_on', channel=0, note=44, velocity=0, time=683),
    Message('note_on', channel=0, note=44, velocity=112, time=37),
    Message('note_on', channel=0, note=44, velocity=0, time=227),
    Message('note_on', channel=0, note=41, velocity=112, time=13),
    Message('control_change', channel=0, control=64, value=0, time=1),
    Message('control_change', channel=0, control=64, value=127, time=1),
    Message('note_on', channel=0, note=41, velocity=0, time=681),
    Message('note_on', channel=0, note=41, velocity=112, time=37),
    Message('note_on', channel=0, note=41, velocity=0, time=455),
    Message('note_on', channel=0, note=53, velocity=112, time=25),
    Message('note_on', channel=0, note=53, velocity=0, time=227),
    Message('note_on', channel=0, note=53, velocity=112, time=133),
    Message('note_on', channel=0, note=53, velocity=0, time=341),
    Message('note_on', channel=0, note=50, velocity=112, time=19),
    Message('control_change', channel=0, control=64, value=0, time=1),
    Message('control_change', channel=0, control=64, value=127, time=1),
    Message('note_on', channel=0, note=50, velocity=0, time=1593),
    Message('note_on', channel=0, note=50, velocity=112, time=85),
    Message('note_on', channel=0, note=50, velocity=0, time=227),
    Message('note_on', channel=0, note=43, velocity=112, time=13),
    Message('control_change', channel=0, control=64, value=0, time=1),
    Message('control_change', channel=0, control=64, value=127, time=1),
    Message('note_on', channel=0, note=43, velocity=0, time=909),
    Message('note_on', channel=0, note=43, velocity=112, time=49),
    Message('note_on', channel=0, note=43, velocity=0, time=911),
    Message('note_on', channel=0, note=48, velocity=112, time=49),
    Message('control_change', channel=0, control=64, value=0, time=1),
    Message('control_change', channel=0, control=64, value=127, time=1),
    Message('note_on', channel=0, note=48, velocity=0, time=453),
    Message('note_on', channel=0, note=60, velocity=112, time=25),
    Message('note_on', channel=0, note=60, velocity=0, time=227),
    Message('note_on', channel=0, note=48, velocity=112, time=13),
    Message('note_on', channel=0, note=48, velocity=0, time=227),
    Message('note_on', channel=0, note=44, velocity=112, time=13),
    Message('note_on', channel=0, note=44, velocity=0, time=455),
    Message('note_on', channel=0, note=56, velocity=112, time=25),
    Message('note_on', channel=0, note=56, velocity=0, time=227),
    Message('note_on', channel=0, note=44, velocity=112, time=13),
    Message('note_on', channel=0, note=44, velocity=0, time=227),
    Message('note_on', channel=0, note=41, velocity=112, time=13),
    Message('control_change', channel=0, control=64, value=0, time=1),
    Message('control_change', channel=0, control=64, value=127, time=1),
    Message('note_on', channel=0, note=41, velocity=0, time=453),
    Message('note_on', channel=0, note=53, velocity=112, time=25),
    Message('note_on', channel=0, note=53, velocity=0, time=227),
    Message('note_on', channel=0, note=41, velocity=112, time=13),
    Message('note_on', channel=0, note=41, velocity=0, time=227),
    Message('note_on', channel=0, note=41, velocity=112, time=253),
    Message('note_on', channel=0, note=41, velocity=0, time=227),
    Message('note_on', channel=0, note=53, velocity=112, time=13),
    Message('note_on', channel=0, note=53, velocity=0, time=227),
    Message('note_on', channel=0, note=41, velocity=112, time=13),
    Message('note_on', channel=0, note=41, velocity=0, time=227),
    Message('note_on', channel=0, note=48, velocity=112, time=13),
    Message('control_change', channel=0, control=64, value=0, time=1),
    Message('control_change', channel=0, control=64, value=127, time=1),
    Message('note_on', channel=0, note=48, velocity=0, time=453),
    Message('note_on', channel=0, note=60, velocity=112, time=25),
    Message('note_on', channel=0, note=60, velocity=0, time=227),
    Message('note_on', channel=0, note=48, velocity=112, time=13),
    Message('note_on', channel=0, note=48, velocity=0, time=227),
    Message('note_on', channel=0, note=44, velocity=112, time=13),
    Message('note_on', channel=0, note=44, velocity=0, time=455),
    Message('note_on', channel=0, note=56, velocity=112, time=25),
    Message('note_on', channel=0, note=56, velocity=0, time=227),
    Message('note_on', channel=0, note=44, velocity=112, time=13),
    Message('note_on', channel=0, note=44, velocity=0, time=227),
    Message('note_on', channel=0, note=41, velocity=112, time=13),
    Message('control_change', channel=0, control=64, value=0, time=1),
    Message('control_change', channel=0, control=64, value=127, time=1),
    Message('note_on', channel=0, note=41, velocity=0, time=453),
    Message('note_on', channel=0, note=53, velocity=112, time=25),
    Message('note_on', channel=0, note=53, velocity=0, time=227),
    Message('note_on', channel=0, note=41, velocity=112, time=13),
    Message('note_on', channel=0, note=41, velocity=0, time=227),
    Message('note_on', channel=0, note=41, velocity=112, time=253),
    Message('note_on', channel=0, note=41, velocity=0, time=227),
    Message('note_on', channel=0, note=53, velocity=112, time=13),
    Message('note_on', channel=0, note=53, velocity=0, time=227),
    Message('note_on', channel=0, note=41, velocity=112, time=13),
    Message('note_on', channel=0, note=41, velocity=0, time=227),
    Message('note_on', channel=0, note=48, velocity=112, time=13),
    Message('control_change', channel=0, control=64, value=0, time=1),
    Message('control_change', channel=0, control=64, value=127, time=1),
    Message('note_on', channel=0, note=48, velocity=0, time=453),
    Message('note_on', channel=0, note=60, velocity=112, time=25),
    Message('note_on', channel=0, note=60, velocity=0, time=227),
    Message('note_on', channel=0, note=48, velocity=112, time=13),
    Message('note_on', channel=0, note=48, velocity=0, time=227),
    Message('note_on', channel=0, note=44, velocity=112, time=13),
    Message('note_on', channel=0, note=44, velocity=0, time=455),
    Message('note_on', channel=0, note=56, velocity=112, time=25),
    Message('note_on', channel=0, note=56, velocity=0, time=227),
    Message('note_on', channel=0, note=44, velocity=112, time=13),
    Message('note_on', channel=0, note=44, velocity=0, time=227),
    Message('note_on', channel=0, note=41, velocity=112, time=13),
    Message('control_change', channel=0, control=64, value=0, time=1),
    Message('control_change', channel=0, control=64, value=127, time=1),
    Message('note_on', channel=0, note=41, velocity=0, time=453),
    Message('note_on', channel=0, note=53, velocity=112, time=25),
    Message('note_on', channel=0, note=53, velocity=0, time=227),
    Message('note_on', channel=0, note=41, velocity=112, time=13),
    Message('note_on', channel=0, note=41, velocity=0, time=227),
    Message('note_on', channel=0, note=41, velocity=112, time=253),
    Message('note_on', channel=0, note=41, velocity=0, time=227),
    Message('note_on', channel=0, note=53, velocity=112, time=13),
    Message('note_on', channel=0, note=53, velocity=0, time=227),
    Message('note_on', channel=0, note=41, velocity=112, time=13),
    Message('note_on', channel=0, note=41, velocity=0, time=227),
    Message('note_on', channel=0, note=50, velocity=112, time=13),
    Message('note_on', channel=0, note=57, velocity=112, time=0),
    Message('note_on', channel=0, note=60, velocity=112, time=0),
    Message('control_change', channel=0, control=64, value=0, time=1),
    Message('control_change', channel=0, control=64, value=127, time=1),
    Message('note_on', channel=0, note=50, velocity=0, time=453),
    Message('note_on', channel=0, note=57, velocity=0, time=0),
    Message('note_on', channel=0, note=60, velocity=0, time=0),
    Message('note_on', channel=0, note=57, velocity=112, time=25),
    Message('note_on', channel=0, note=60, velocity=112, time=0),
    Message('note_on', channel=0, note=57, velocity=0, time=227),
    Message('note_on', channel=0, note=60, velocity=0, time=0),
    Message('note_on', channel=0, note=50, velocity=112, time=13),
    Message('note_on', channel=0, note=50, velocity=0, time=227),
    Message('note_on', channel=0, note=50, velocity=112, time=253),
    Message('note_on', channel=0, note=50, velocity=0, time=227),
    Message('note_on', channel=0, note=57, velocity=112, time=13),
    Message('note_on', channel=0, note=60, velocity=112, time=0),
    Message('note_on', channel=0, note=57, velocity=0, time=455),
    Message('note_on', channel=0, note=60, velocity=0, time=0),
    Message('note_on', channel=0, note=43, velocity=112, time=25),
    Message('note_on', channel=0, note=47, velocity=112, time=0),
    Message('note_on', channel=0, note=50, velocity=112, time=0),
    Message('note_on', channel=0, note=55, velocity=112, time=0),
    Message('control_change', channel=0, control=64, value=0, time=1),
    Message('control_change', channel=0, control=64, value=127, time=1),
    Message('note_on', channel=0, note=43, velocity=0, time=453),
    Message('note_on', channel=0, note=47, velocity=0, time=0),
    Message('note_on', channel=0, note=50, velocity=0, time=0),
    Message('note_on', channel=0, note=55, velocity=0, time=0),
    Message('note_on', channel=0, note=50, velocity=112, time=25),
    Message('note_on', channel=0, note=55, velocity=112, time=0),
    Message('note_on', channel=0, note=50, velocity=0, time=227),
    Message('note_on', channel=0, note=55, velocity=0, time=0),
    Message('note_on', channel=0, note=43, velocity=112, time=13),
    Message('note_on', channel=0, note=47, velocity=112, time=0),
    Message('note_on', channel=0, note=43, velocity=0, time=227),
    Message('note_on', channel=0, note=47, velocity=0, time=0),
    Message('note_on', channel=0, note=43, velocity=112, time=253),
    Message('note_on', channel=0, note=47, velocity=112, time=0),
    Message('note_on', channel=0, note=43, velocity=0, time=227),
    Message('note_on', channel=0, note=47, velocity=0, time=0),
    Message('note_on', channel=0, note=50, velocity=112, time=13),
    Message('note_on', channel=0, note=55, velocity=112, time=0),
    Message('note_on', channel=0, note=50, velocity=0, time=455),
    Message('note_on', channel=0, note=55, velocity=0, time=0),
    Message('note_on', channel=0, note=36, velocity=112, time=25),
    Message('note_on', channel=0, note=48, velocity=112, time=0),
    Message('control_change', channel=0, control=64, value=0, time=1),
    Message('control_change', channel=0, control=64, value=127, time=1),
    Message('note_on', channel=0, note=36, velocity=0, time=453),
    Message('note_on', channel=0, note=48, velocity=0, time=0),
    Message('note_on', channel=0, note=55, velocity=112, time=25),
    Message('note_on', channel=0, note=55, velocity=0, time=227),
    Message('note_on', channel=0, note=48, velocity=112, time=13),
    Message('note_on', channel=0, note=48, velocity=0, time=227),
    Message('note_on', channel=0, note=44, velocity=112, time=13),
    Message('note_on', channel=0, note=51, velocity=112, time=0),
    Message('note_on', channel=0, note=56, velocity=112, time=0),
    Message('note_on', channel=0, note=44, velocity=0, time=455),
    Message('note_on', channel=0, note=51, velocity=0, time=0),
    Message('note_on', channel=0, note=56, velocity=0, time=0),
    Message('note_on', channel=0, note=51, velocity=112, time=25),
    Message('note_on', channel=0, note=56, velocity=112, time=0),
    Message('note_on', channel=0, note=51, velocity=0, time=227),
    Message('note_on', channel=0, note=56, velocity=0, time=0),
    Message('note_on', channel=0, note=44, velocity=112, time=13),
    Message('note_on', channel=0, note=44, velocity=0, time=227),
    Message('note_on', channel=0, note=41, velocity=112, time=13),
    Message('note_on', channel=0, note=48, velocity=112, time=0),
    Message('note_on', channel=0, note=53, velocity=112, time=0),
    Message('control_change', channel=0, control=64, value=0, time=1),
    Message('control_change', channel=0, control=64, value=127, time=1),
    Message('note_on', channel=0, note=41, velocity=0, time=453),
    Message('note_on', channel=0, note=48, velocity=0, time=0),
    Message('note_on', channel=0, note=53, velocity=0, time=0),
    Message('note_on', channel=0, note=48, velocity=112, time=25),
    Message('note_on', channel=0, note=53, velocity=112, time=0),
    Message('note_on', channel=0, note=48, velocity=0, time=227),
    Message('note_on', channel=0, note=53, velocity=0, time=0),
    Message('note_on', channel=0, note=41, velocity=112, time=13),
    Message('note_on', channel=0, note=41, velocity=0, time=113),
    Message('note_on', channel=0, note=48, velocity=112, time=7),
    Message('note_on', channel=0, note=53, velocity=112, time=0),
    Message('note_on', channel=0, note=48, velocity=0, time=341),
    Message('note_on', channel=0, note=53, velocity=0, time=0),
    Message('note_on', channel=0, note=41, velocity=112, time=19),
    Message('note_on', channel=0, note=41, velocity=0, time=227),
    Message('note_on', channel=0, note=48, velocity=112, time=13),
    Message('note_on', channel=0, note=53, velocity=112, time=0),
    Message('note_on', channel=0, note=48, velocity=0, time=227),
    Message('note_on', channel=0, note=53, velocity=0, time=0),
    Message('note_on', channel=0, note=41, velocity=112, time=13),
    Message('note_on', channel=0, note=41, velocity=0, time=227),
    Message('note_on', channel=0, note=36, velocity=112, time=13),
    Message('note_on', channel=0, note=48, velocity=112, time=0),
    Message('control_change', channel=0, control=64, value=0, time=1),
    Message('control_change', channel=0, control=64, value=127, time=1),
    Message('note_on', channel=0, note=36, velocity=0, time=453),
    Message('note_on', channel=0, note=48, velocity=0, time=0),
    Message('note_on', channel=0, note=55, velocity=112, time=25),
    Message('note_on', channel=0, note=55, velocity=0, time=227),
    Message('note_on', channel=0, note=48, velocity=112, time=13),
    Message('note_on', channel=0, note=48, velocity=0, time=227),
    Message('note_on', channel=0, note=44, velocity=112, time=13),
    Message('note_on', channel=0, note=51, velocity=112, time=0),
    Message('note_on', channel=0, note=56, velocity=112, time=0),
    Message('note_on', channel=0, note=44, velocity=0, time=455),
    Message('note_on', channel=0, note=51, velocity=0, time=0),
    Message('note_on', channel=0, note=56, velocity=0, time=0),
    Message('note_on', channel=0, note=51, velocity=112, time=25),
    Message('note_on', channel=0, note=56, velocity=112, time=0),
    Message('note_on', channel=0, note=51, velocity=0, time=227),
    Message('note_on', channel=0, note=56, velocity=0, time=0),
    Message('note_on', channel=0, note=44, velocity=112, time=13),
    Message('note_on', channel=0, note=44, velocity=0, time=227),
    Message('note_on', channel=0, note=41, velocity=112, time=13),
    Message('note_on', channel=0, note=48, velocity=112, time=0),
    Message('note_on', channel=0, note=53, velocity=112, time=0),
    Message('control_change', channel=0, control=64, value=0, time=1),
    Message('control_change', channel=0, control=64, value=127, time=1),
    Message('note_on', channel=0, note=41, velocity=0, time=453),
    Message('note_on', channel=0, note=48, velocity=0, time=0),
    Message('note_on', channel=0, note=53, velocity=0, time=0),
    Message('note_on', channel=0, note=48, velocity=112, time=25),
    Message('note_on', channel=0, note=53, velocity=112, time=0),
    Message('note_on', channel=0, note=48, velocity=0, time=227),
    Message('note_on', channel=0, note=53, velocity=0, time=0),
    Message('note_on', channel=0, note=41, velocity=112, time=13),
    Message('note_on', channel=0, note=41, velocity=0, time=113),
    Message('note_on', channel=0, note=48, velocity=112, time=7),
    Message('note_on', channel=0, note=53, velocity=112, time=0),
    Message('note_on', channel=0, note=48, velocity=0, time=341),
    Message('note_on', channel=0, note=53, velocity=0, time=0),
    Message('note_on', channel=0, note=41, velocity=112, time=19),
    Message('note_on', channel=0, note=41, velocity=0, time=227),
    Message('note_on', channel=0, note=48, velocity=112, time=13),
    Message('note_on', channel=0, note=53, velocity=112, time=0),
    Message('note_on', channel=0, note=48, velocity=0, time=227),
    Message('note_on', channel=0, note=53, velocity=0, time=0),
    Message('note_on', channel=0, note=41, velocity=112, time=13),
    Message('note_on', channel=0, note=41, velocity=0, time=227),
    Message('note_on', channel=0, note=36, velocity=112, time=13),
    Message('note_on', channel=0, note=48, velocity=112, time=0),
    Message('control_change', channel=0, control=64, value=0, time=1),
    Message('control_change', channel=0, control=64, value=127, time=1),
    Message('note_on', channel=0, note=36, velocity=0, time=453),
    Message('note_on', channel=0, note=48, velocity=0, time=0),
    Message('note_on', channel=0, note=55, velocity=112, time=25),
    Message('note_on', channel=0, note=55, velocity=0, time=227),
    Message('note_on', channel=0, note=48, velocity=112, time=13),
    Message('note_on', channel=0, note=48, velocity=0, time=227),
    Message('note_on', channel=0, note=44, velocity=112, time=13),
    Message('note_on', channel=0, note=51, velocity=112, time=0),
    Message('note_on', channel=0, note=56, velocity=112, time=0),
    Message('note_on', channel=0, note=44, velocity=0, time=455),
    Message('note_on', channel=0, note=51, velocity=0, time=0),
    Message('note_on', channel=0, note=56, velocity=0, time=0),
    Message('note_on', channel=0, note=51, velocity=112, time=25),
    Message('note_on', channel=0, note=56, velocity=112, time=0),
    Message('note_on', channel=0, note=51, velocity=0, time=227),
    Message('note_on', channel=0, note=56, velocity=0, time=0),
    Message('note_on', channel=0, note=44, velocity=112, time=13),
    Message('note_on', channel=0, note=44, velocity=0, time=227),
    Message('note_on', channel=0, note=41, velocity=112, time=13),
    Message('note_on', channel=0, note=48, velocity=112, time=0),
    Message('note_on', channel=0, note=53, velocity=112, time=0),
    Message('control_change', channel=0, control=64, value=0, time=1),
    Message('control_change', channel=0, control=64, value=127, time=1),
    Message('note_on', channel=0, note=41, velocity=0, time=453),
    Message('note_on', channel=0, note=48, velocity=0, time=0),
    Message('note_on', channel=0, note=53, velocity=0, time=0),
    Message('note_on', channel=0, note=48, velocity=112, time=25),
    Message('note_on', channel=0, note=53, velocity=112, time=0),
    Message('note_on', channel=0, note=48, velocity=0, time=227),
    Message('note_on', channel=0, note=53, velocity=0, time=0),
    Message('note_on', channel=0, note=41, velocity=112, time=13),
    Message('note_on', channel=0, note=41, velocity=0, time=113),
    Message('note_on', channel=0, note=48, velocity=112, time=7),
    Message('note_on', channel=0, note=53, velocity=112, time=0),
    Message('note_on', channel=0, note=48, velocity=0, time=341),
    Message('note_on', channel=0, note=53, velocity=0, time=0),
    Message('note_on', channel=0, note=41, velocity=112, time=19),
    Message('note_on', channel=0, note=41, velocity=0, time=227),
    Message('note_on', channel=0, note=48, velocity=112, time=13),
    Message('note_on', channel=0, note=53, velocity=112, time=0),
    Message('note_on', channel=0, note=48, velocity=0, time=227),
    Message('note_on', channel=0, note=53, velocity=0, time=0),
    Message('note_on', channel=0, note=41, velocity=112, time=13),
    Message('note_on', channel=0, note=41, velocity=0, time=227),
    Message('note_on', channel=0, note=38, velocity=112, time=13),
    Message('note_on', channel=0, note=45, velocity=112, time=0),
    Message('note_on', channel=0, note=50, velocity=112, time=0),
    Message('control_change', channel=0, control=64, value=0, time=1),
    Message('control_change', channel=0, control=64, value=127, time=1),
    Message('note_on', channel=0, note=38, velocity=0, time=453),
    Message('note_on', channel=0, note=45, velocity=0, time=0),
    Message('note_on', channel=0, note=50, velocity=0, time=0),
    Message('note_on', channel=0, note=50, velocity=112, time=25),
    Message('note_on', channel=0, note=50, velocity=0, time=227),
    Message('note_on', channel=0, note=38, velocity=112, time=13),
    Message('note_on', channel=0, note=38, velocity=0, time=227),
    Message('note_on', channel=0, note=50, velocity=112, time=253),
    Message('note_on', channel=0, note=50, velocity=0, time=227),
    Message('note_on', channel=0, note=57, velocity=112, time=13),
    Message('note_on', channel=0, note=57, velocity=0, time=227),
    Message('note_on', channel=0, note=53, velocity=112, time=13),
    Message('note_on', channel=0, note=53, velocity=0, time=227),
    Message('note_on', channel=0, note=43, velocity=112, time=13),
    Message('note_on', channel=0, note=47, velocity=112, time=0),
    Message('note_on', channel=0, note=50, velocity=112, time=0),
    Message('note_on', channel=0, note=55, velocity=112, time=0),
    Message('control_change', channel=0, control=64, value=0, time=1),
    Message('control_change', channel=0, control=64, value=127, time=1),
    Message('note_on', channel=0, note=43, velocity=0, time=453),
    Message('note_on', channel=0, note=47, velocity=0, time=0),
    Message('note_on', channel=0, note=50, velocity=0, time=0),
    Message('note_on', channel=0, note=55, velocity=0, time=0),
    Message('note_on', channel=0, note=55, velocity=112, time=25),
    Message('note_on', channel=0, note=55, velocity=0, time=227),
    Message('note_on', channel=0, note=43, velocity=112, time=13),
    Message('note_on', channel=0, note=43, velocity=0, time=227),
    Message('note_on', channel=0, note=43, velocity=112, time=253),
    Message('note_on', channel=0, note=43, velocity=0, time=227),
    Message('note_on', channel=0, note=55, velocity=112, time=13),
    Message('note_on', channel=0, note=55, velocity=0, time=455),
    Message('note_on', channel=0, note=36, velocity=112, time=25),
    Message('note_on', channel=0, note=43, velocity=112, time=0),
    Message('note_on', channel=0, note=48, velocity=112, time=0),
    Message('control_change', channel=0, control=64, value=0, time=1),
    Message('control_change', channel=0, control=64, value=127, time=1),
    Message('note_on', channel=0, note=36, velocity=0, time=453),
    Message('note_on', channel=0, note=43, velocity=0, time=0),
    Message('note_on', channel=0, note=48, velocity=0, time=0),
    Message('note_on', channel=0, note=55, velocity=112, time=25),
    Message('note_on', channel=0, note=55, velocity=0, time=227),
    Message('note_on', channel=0, note=48, velocity=112, time=13),
    Message('note_on', channel=0, note=48, velocity=0, time=227),
    Message('note_on', channel=0, note=48, velocity=112, time=253),
    Message('note_on', channel=0, note=48, velocity=0, time=227),
    Message('note_on', channel=0, note=55, velocity=112, time=13),
    Message('note_on', channel=0, note=60, velocity=112, time=0),
    Message('note_on', channel=0, note=55, velocity=0, time=227),
    Message('note_on', channel=0, note=60, velocity=0, time=0),
    Message('note_on', channel=0, note=46, velocity=112, time=13),
    Message('note_on', channel=0, note=58, velocity=112, time=0),
    Message('note_on', channel=0, note=46, velocity=0, time=227),
    Message('note_on', channel=0, note=58, velocity=0, time=0),
    Message('note_on', channel=0, note=44, velocity=112, time=13),
    Message('note_on', channel=0, note=51, velocity=112, time=0),
    Message('note_on', channel=0, note=56, velocity=112, time=0),
    Message('control_change', channel=0, control=64, value=0, time=1),
    Message('control_change', channel=0, control=64, value=127, time=1),
    Message('note_on', channel=0, note=44, velocity=0, time=453),
    Message('note_on', channel=0, note=51, velocity=0, time=0),
    Message('note_on', channel=0, note=56, velocity=0, time=0),
    Message('note_on', channel=0, note=44, velocity=112, time=25),
    Message('note_on', channel=0, note=44, velocity=0, time=227),
    Message('note_on', channel=0, note=51, velocity=112, time=13),
    Message('note_on', channel=0, note=56, velocity=112, time=0),
    Message('note_on', channel=0, note=51, velocity=0, time=227),
    Message('note_on', channel=0, note=56, velocity=0, time=0),
    Message('note_on', channel=0, note=44, velocity=112, time=253),
    Message('note_on', channel=0, note=44, velocity=0, time=227),
    Message('note_on', channel=0, note=51, velocity=112, time=13),
    Message('note_on', channel=0, note=56, velocity=112, time=0),
    Message('note_on', channel=0, note=51, velocity=0, time=227),
    Message('note_on', channel=0, note=56, velocity=0, time=0),
    Message('note_on', channel=0, note=43, velocity=112, time=13),
    Message('note_on', channel=0, note=55, velocity=112, time=0),
    Message('note_on', channel=0, note=43, velocity=0, time=227),
    Message('note_on', channel=0, note=55, velocity=0, time=0),
    Message('note_on', channel=0, note=41, velocity=112, time=13),
    Message('note_on', channel=0, note=48, velocity=112, time=0),
    Message('note_on', channel=0, note=53, velocity=112, time=0),
    Message('control_change', channel=0, control=64, value=0, time=1),
    Message('control_change', channel=0, control=64, value=127, time=1),
    Message('note_on', channel=0, note=41, velocity=0, time=453),
    Message('note_on', channel=0, note=48, velocity=0, time=0),
    Message('note_on', channel=0, note=53, velocity=0, time=0),
    Message('note_on', channel=0, note=41, velocity=112, time=25),
    Message('note_on', channel=0, note=41, velocity=0, time=227),
    Message('note_on', channel=0, note=48, velocity=112, time=13),
    Message('note_on', channel=0, note=53, velocity=112, time=0),
    Message('note_on', channel=0, note=48, velocity=0, time=227),
    Message('note_on', channel=0, note=53, velocity=0, time=0),
    Message('note_on', channel=0, note=41, velocity=112, time=253),
    Message('note_on', channel=0, note=41, velocity=0, time=227),
    Message('note_on', channel=0, note=48, velocity=112, time=13),
    Message('note_on', channel=0, note=53, velocity=112, time=0),
    Message('note_on', channel=0, note=48, velocity=0, time=227),
    Message('note_on', channel=0, note=53, velocity=0, time=0),
    Message('note_on', channel=0, note=39, velocity=112, time=13),
    Message('note_on', channel=0, note=51, velocity=112, time=0),
    Message('note_on', channel=0, note=39, velocity=0, time=227),
    Message('note_on', channel=0, note=51, velocity=0, time=0),
    Message('note_on', channel=0, note=38, velocity=112, time=13),
    Message('note_on', channel=0, note=50, velocity=112, time=0),
    Message('control_change', channel=0, control=64, value=0, time=1),
    Message('control_change', channel=0, control=64, value=127, time=1),
    Message('note_on', channel=0, note=38, velocity=0, time=225),
    Message('note_on', channel=0, note=50, velocity=0, time=0),
    Message('note_on', channel=0, note=38, velocity=112, time=13),
    Message('note_on', channel=0, note=38, velocity=0, time=227),
    Message('note_on', channel=0, note=50, velocity=112, time=13),
    Message('note_on', channel=0, note=50, velocity=0, time=227),
    Message('note_on', channel=0, note=38, velocity=112, time=13),
    Message('note_on', channel=0, note=38, velocity=0, time=113),
    Message('note_on', channel=0, note=50, velocity=112, time=7),
    Message('note_on', channel=0, note=50, velocity=0, time=113),
    Message('note_on', channel=0, note=43, velocity=112, time=7),
    Message('note_on', channel=0, note=43, velocity=0, time=227),
    Message('note_on', channel=0, note=50, velocity=112, time=13),
    Message('note_on', channel=0, note=50, velocity=0, time=227),
    Message('note_on', channel=0, note=43, velocity=112, time=13),
    Message('note_on', channel=0, note=43, velocity=0, time=227),
    Message('note_on', channel=0, note=50, velocity=112, time=13),
    Message('note_on', channel=0, note=50, velocity=0, time=227),
    Message('note_on', channel=0, note=36, velocity=112, time=13),
    Message('note_on', channel=0, note=43, velocity=112, time=0),
    Message('note_on', channel=0, note=48, velocity=112, time=0),
    Message('control_change', channel=0, control=64, value=0, time=1),
    Message('control_change', channel=0, control=64, value=127, time=1),
    Message('note_on', channel=0, note=36, velocity=0, time=453),
    Message('note_on', channel=0, note=43, velocity=0, time=0),
    Message('note_on', channel=0, note=48, velocity=0, time=0),
    Message('note_on', channel=0, note=55, velocity=112, time=25),
    Message('note_on', channel=0, note=55, velocity=0, time=227),
    Message('note_on', channel=0, note=48, velocity=112, time=13),
    Message('note_on', channel=0, note=48, velocity=0, time=227),
    Message('note_on', channel=0, note=48, velocity=112, time=253),
    Message('note_on', channel=0, note=48, velocity=0, time=227),
    Message('note_on', channel=0, note=60, velocity=112, time=13),
    Message('note_on', channel=0, note=60, velocity=0, time=227),
    Message('note_on', channel=0, note=46, velocity=112, time=13),
    Message('note_on', channel=0, note=58, velocity=112, time=0),
    Message('note_on', channel=0, note=46, velocity=0, time=227),
    Message('note_on', channel=0, note=58, velocity=0, time=0),
    Message('note_on', channel=0, note=44, velocity=112, time=13),
    Message('note_on', channel=0, note=51, velocity=112, time=0),
    Message('note_on', channel=0, note=56, velocity=112, time=0),
    Message('control_change', channel=0, control=64, value=0, time=1),
    Message('control_change', channel=0, control=64, value=127, time=1),
    Message('note_on', channel=0, note=44, velocity=0, time=453),
    Message('note_on', channel=0, note=51, velocity=0, time=0),
    Message('note_on', channel=0, note=56, velocity=0, time=0),
    Message('note_on', channel=0, note=44, velocity=112, time=25),
    Message('note_on', channel=0, note=44, velocity=0, time=227),
    Message('note_on', channel=0, note=51, velocity=112, time=13),
    Message('note_on', channel=0, note=56, velocity=112, time=0),
    Message('note_on', channel=0, note=51, velocity=0, time=227),
    Message('note_on', channel=0, note=56, velocity=0, time=0),
    Message('note_on', channel=0, note=44, velocity=112, time=253),
    Message('note_on', channel=0, note=44, velocity=0, time=227),
    Message('note_on', channel=0, note=51, velocity=112, time=13),
    Message('note_on', channel=0, note=56, velocity=112, time=0),
    Message('note_on', channel=0, note=51, velocity=0, time=227),
    Message('note_on', channel=0, note=56, velocity=0, time=0),
    Message('note_on', channel=0, note=43, velocity=112, time=13),
    Message('note_on', channel=0, note=55, velocity=112, time=0),
    Message('note_on', channel=0, note=43, velocity=0, time=227),
    Message('note_on', channel=0, note=55, velocity=0, time=0),
    Message('note_on', channel=0, note=41, velocity=112, time=13),
    Message('note_on', channel=0, note=48, velocity=112, time=0),
    Message('note_on', channel=0, note=53, velocity=112, time=0),
    Message('control_change', channel=0, control=64, value=0, time=1),
    Message('control_change', channel=0, control=64, value=127, time=1),
    Message('note_on', channel=0, note=41, velocity=0, time=453),
    Message('note_on', channel=0, note=48, velocity=0, time=0),
    Message('note_on', channel=0, note=53, velocity=0, time=0),
    Message('note_on', channel=0, note=41, velocity=112, time=25),
    Message('note_on', channel=0, note=41, velocity=0, time=227),
    Message('note_on', channel=0, note=48, velocity=112, time=13),
    Message('note_on', channel=0, note=53, velocity=112, time=0),
    Message('note_on', channel=0, note=48, velocity=0, time=227),
    Message('note_on', channel=0, note=53, velocity=0, time=0),
    Message('note_on', channel=0, note=41, velocity=112, time=253),
    Message('note_on', channel=0, note=41, velocity=0, time=227),
    Message('note_on', channel=0, note=48, velocity=112, time=13),
    Message('note_on', channel=0, note=53, velocity=112, time=0),
    Message('note_on', channel=0, note=48, velocity=0, time=227),
    Message('note_on', channel=0, note=53, velocity=0, time=0),
    Message('note_on', channel=0, note=39, velocity=112, time=13),
    Message('note_on', channel=0, note=51, velocity=112, time=0),
    Message('note_on', channel=0, note=39, velocity=0, time=227),
    Message('note_on', channel=0, note=51, velocity=0, time=0),
    Message('note_on', channel=0, note=38, velocity=112, time=13),
    Message('note_on', channel=0, note=50, velocity=112, time=0),
    Message('control_change', channel=0, control=64, value=0, time=1),
    Message('control_change', channel=0, control=64, value=127, time=1),
    Message('note_on', channel=0, note=38, velocity=0, time=225),
    Message('note_on', channel=0, note=50, velocity=0, time=0),
    Message('note_on', channel=0, note=38, velocity=112, time=13),
    Message('note_on', channel=0, note=38, velocity=0, time=227),
    Message('note_on', channel=0, note=50, velocity=112, time=13),
    Message('note_on', channel=0, note=50, velocity=0, time=227),
    Message('note_on', channel=0, note=38, velocity=112, time=13),
    Message('note_on', channel=0, note=38, velocity=0, time=113),
    Message('note_on', channel=0, note=50, velocity=112, time=7),
    Message('note_on', channel=0, note=50, velocity=0, time=113),
    Message('note_on', channel=0, note=43, velocity=112, time=7),
    Message('note_on', channel=0, note=43, velocity=0, time=227),
    Message('note_on', channel=0, note=50, velocity=112, time=13),
    Message('note_on', channel=0, note=50, velocity=0, time=227),
    Message('note_on', channel=0, note=43, velocity=112, time=13),
    Message('note_on', channel=0, note=43, velocity=0, time=227),
    Message('note_on', channel=0, note=50, velocity=112, time=13),
    Message('note_on', channel=0, note=50, velocity=0, time=227),
    Message('note_on', channel=0, note=36, velocity=96, time=13),
    Message('note_on', channel=0, note=48, velocity=96, time=0),
    Message('control_change', channel=0, control=64, value=0, time=1),
    Message('control_change', channel=0, control=64, value=127, time=1),
    Message('note_on', channel=0, note=36, velocity=0, time=453),
    Message('note_on', channel=0, note=48, velocity=0, time=0),
    Message('note_on', channel=0, note=55, velocity=96, time=25),
    Message('note_on', channel=0, note=55, velocity=0, time=227),
    Message('note_on', channel=0, note=48, velocity=96, time=13),
    Message('note_on', channel=0, note=48, velocity=0, time=227),
    Message('note_on', channel=0, note=44, velocity=96, time=13),
    Message('note_on', channel=0, note=51, velocity=96, time=0),
    Message('note_on', channel=0, note=56, velocity=96, time=0),
    Message('note_on', channel=0, note=44, velocity=0, time=455),
    Message('note_on', channel=0, note=51, velocity=0, time=0),
    Message('note_on', channel=0, note=56, velocity=0, time=0),
    Message('note_on', channel=0, note=51, velocity=96, time=25),
    Message('note_on', channel=0, note=56, velocity=96, time=0),
    Message('note_on', channel=0, note=51, velocity=0, time=227),
    Message('note_on', channel=0, note=56, velocity=0, time=0),
    Message('note_on', channel=0, note=44, velocity=96, time=13),
    Message('note_on', channel=0, note=44, velocity=0, time=227),
    Message('note_on', channel=0, note=41, velocity=96, time=13),
    Message('note_on', channel=0, note=48, velocity=96, time=0),
    Message('note_on', channel=0, note=53, velocity=96, time=0),
    Message('control_change', channel=0, control=64, value=0, time=1),
    Message('control_change', channel=0, control=64, value=127, time=1),
    Message('note_on', channel=0, note=41, velocity=0, time=453),
    Message('note_on', channel=0, note=48, velocity=0, time=0),
    Message('note_on', channel=0, note=53, velocity=0, time=0),
    Message('note_on', channel=0, note=48, velocity=96, time=25),
    Message('note_on', channel=0, note=53, velocity=96, time=0),
    Message('note_on', channel=0, note=48, velocity=0, time=227),
    Message('note_on', channel=0, note=53, velocity=0, time=0),
    Message('note_on', channel=0, note=41, velocity=96, time=13),
    Message('note_on', channel=0, note=41, velocity=0, time=113),
    Message('note_on', channel=0, note=48, velocity=96, time=7),
    Message('note_on', channel=0, note=53, velocity=96, time=0),
    Message('note_on', channel=0, note=48, velocity=0, time=341),
    Message('note_on', channel=0, note=53, velocity=0, time=0),
    Message('note_on', channel=0, note=41, velocity=96, time=19),
    Message('note_on', channel=0, note=41, velocity=0, time=227),
    Message('note_on', channel=0, note=48, velocity=96, time=13),
    Message('note_on', channel=0, note=53, velocity=96, time=0),
    Message('note_on', channel=0, note=48, velocity=0, time=227),
    Message('note_on', channel=0, note=53, velocity=0, time=0),
    Message('note_on', channel=0, note=41, velocity=96, time=13),
    Message('note_on', channel=0, note=41, velocity=0, time=227),
    Message('note_on', channel=0, note=36, velocity=96, time=13),
    Message('note_on', channel=0, note=48, velocity=96, time=0),
    Message('control_change', channel=0, control=64, value=0, time=1),
    Message('control_change', channel=0, control=64, value=127, time=1),
    Message('note_on', channel=0, note=36, velocity=0, time=453),
    Message('note_on', channel=0, note=48, velocity=0, time=0),
    Message('note_on', channel=0, note=55, velocity=96, time=25),
    Message('note_on', channel=0, note=55, velocity=0, time=227),
    Message('note_on', channel=0, note=48, velocity=96, time=13),
    Message('note_on', channel=0, note=48, velocity=0, time=227),
    Message('note_on', channel=0, note=44, velocity=96, time=13),
    Message('note_on', channel=0, note=51, velocity=96, time=0),
    Message('note_on', channel=0, note=56, velocity=96, time=0),
    Message('note_on', channel=0, note=44, velocity=0, time=455),
    Message('note_on', channel=0, note=51, velocity=0, time=0),
    Message('note_on', channel=0, note=56, velocity=0, time=0),
    Message('note_on', channel=0, note=51, velocity=96, time=25),
    Message('note_on', channel=0, note=56, velocity=96, time=0),
    Message('note_on', channel=0, note=51, velocity=0, time=227),
    Message('note_on', channel=0, note=56, velocity=0, time=0),
    Message('note_on', channel=0, note=44, velocity=96, time=13),
    Message('note_on', channel=0, note=44, velocity=0, time=227),
    Message('note_on', channel=0, note=41, velocity=96, time=13),
    Message('note_on', channel=0, note=48, velocity=96, time=0),
    Message('note_on', channel=0, note=53, velocity=96, time=0),
    Message('control_change', channel=0, control=64, value=0, time=1),
    Message('control_change', channel=0, control=64, value=127, time=1),
    Message('note_on', channel=0, note=41, velocity=0, time=453),
    Message('note_on', channel=0, note=48, velocity=0, time=0),
    Message('note_on', channel=0, note=53, velocity=0, time=0),
    Message('note_on', channel=0, note=48, velocity=96, time=25),
    Message('note_on', channel=0, note=53, velocity=96, time=0),
    Message('note_on', channel=0, note=48, velocity=0, time=227),
    Message('note_on', channel=0, note=53, velocity=0, time=0),
    Message('note_on', channel=0, note=41, velocity=96, time=13),
    Message('note_on', channel=0, note=41, velocity=0, time=683),
    Message('note_on', channel=0, note=48, velocity=96, time=37),
    Message('note_on', channel=0, note=53, velocity=96, time=0),
    Message('note_on', channel=0, note=48, velocity=0, time=227),
    Message('note_on', channel=0, note=53, velocity=0, time=0),
    Message('note_on', channel=0, note=41, velocity=96, time=13),
    Message('note_on', channel=0, note=41, velocity=0, time=227),
    Message('note_on', channel=0, note=36, velocity=96, time=13),
    Message('note_on', channel=0, note=48, velocity=96, time=0),
    Message('control_change', channel=0, control=64, value=0, time=1),
    Message('control_change', channel=0, control=64, value=127, time=1),
    Message('note_on', channel=0, note=36, velocity=0, time=453),
    Message('note_on', channel=0, note=48, velocity=0, time=0),
    Message('note_on', channel=0, note=55, velocity=96, time=25),
    Message('note_on', channel=0, note=55, velocity=0, time=227),
    Message('note_on', channel=0, note=48, velocity=96, time=13),
    Message('note_on', channel=0, note=48, velocity=0, time=227),
    Message('note_on', channel=0, note=44, velocity=96, time=13),
    Message('note_on', channel=0, note=51, velocity=96, time=0),
    Message('note_on', channel=0, note=56, velocity=96, time=0),
    Message('note_on', channel=0, note=44, velocity=0, time=455),
    Message('note_on', channel=0, note=51, velocity=0, time=0),
    Message('note_on', channel=0, note=56, velocity=0, time=0),
    Message('note_on', channel=0, note=51, velocity=96, time=25),
    Message('note_on', channel=0, note=56, velocity=96, time=0),
    Message('note_on', channel=0, note=51, velocity=0, time=227),
    Message('note_on', channel=0, note=56, velocity=0, time=0),
    Message('note_on', channel=0, note=44, velocity=96, time=13),
    Message('note_on', channel=0, note=44, velocity=0, time=227),
    Message('note_on', channel=0, note=41, velocity=96, time=13),
    Message('note_on', channel=0, note=48, velocity=96, time=0),
    Message('note_on', channel=0, note=53, velocity=96, time=0),
    Message('control_change', channel=0, control=64, value=0, time=1),
    Message('control_change', channel=0, control=64, value=127, time=1),
    Message('note_on', channel=0, note=41, velocity=0, time=453),
    Message('note_on', channel=0, note=48, velocity=0, time=0),
    Message('note_on', channel=0, note=53, velocity=0, time=0),
    Message('note_on', channel=0, note=48, velocity=96, time=25),
    Message('note_on', channel=0, note=53, velocity=96, time=0),
    Message('note_on', channel=0, note=48, velocity=0, time=227),
    Message('note_on', channel=0, note=53, velocity=0, time=0),
    Message('note_on', channel=0, note=41, velocity=96, time=13),
    Message('note_on', channel=0, note=41, velocity=0, time=113),
    Message('note_on', channel=0, note=48, velocity=96, time=7),
    Message('note_on', channel=0, note=53, velocity=96, time=0),
    Message('note_on', channel=0, note=48, velocity=0, time=341),
    Message('note_on', channel=0, note=53, velocity=0, time=0),
    Message('note_on', channel=0, note=41, velocity=96, time=19),
    Message('note_on', channel=0, note=41, velocity=0, time=227),
    Message('note_on', channel=0, note=48, velocity=96, time=13),
    Message('note_on', channel=0, note=53, velocity=96, time=0),
    Message('note_on', channel=0, note=48, velocity=0, time=227),
    Message('note_on', channel=0, note=53, velocity=0, time=0),
    Message('note_on', channel=0, note=41, velocity=96, time=13),
    Message('note_on', channel=0, note=41, velocity=0, time=227),
    Message('note_on', channel=0, note=36, velocity=96, time=13),
    Message('note_on', channel=0, note=48, velocity=96, time=0),
    Message('control_change', channel=0, control=64, value=0, time=1),
    Message('control_change', channel=0, control=64, value=127, time=1),
    Message('note_on', channel=0, note=36, velocity=0, time=453),
    Message('note_on', channel=0, note=48, velocity=0, time=0),
    Message('note_on', channel=0, note=55, velocity=96, time=25),
    Message('note_on', channel=0, note=55, velocity=0, time=227),
    Message('note_on', channel=0, note=48, velocity=96, time=13),
    Message('note_on', channel=0, note=48, velocity=0, time=227),
    Message('note_on', channel=0, note=44, velocity=96, time=13),
    Message('note_on', channel=0, note=51, velocity=96, time=0),
    Message('note_on', channel=0, note=56, velocity=96, time=0),
    Message('note_on', channel=0, note=44, velocity=0, time=455),
    Message('note_on', channel=0, note=51, velocity=0, time=0),
    Message('note_on', channel=0, note=56, velocity=0, time=0),
    Message('note_on', channel=0, note=51, velocity=96, time=25),
    Message('note_on', channel=0, note=56, velocity=96, time=0),
    Message('note_on', channel=0, note=51, velocity=0, time=227),
    Message('note_on', channel=0, note=56, velocity=0, time=0),
    Message('note_on', channel=0, note=44, velocity=96, time=13),
    Message('note_on', channel=0, note=44, velocity=0, time=227),
    Message('note_on', channel=0, note=41, velocity=96, time=13),
    Message('note_on', channel=0, note=48, velocity=96, time=0),
    Message('note_on', channel=0, note=53, velocity=96, time=0),
    Message('control_change', channel=0, control=64, value=0, time=1),
    Message('control_change', channel=0, control=64, value=127, time=1),
    Message('note_on', channel=0, note=41, velocity=0, time=453),
    Message('note_on', channel=0, note=48, velocity=0, time=0),
    Message('note_on', channel=0, note=53, velocity=0, time=0),
    Message('note_on', channel=0, note=48, velocity=96, time=25),
    Message('note_on', channel=0, note=53, velocity=96, time=0),
    Message('note_on', channel=0, note=48, velocity=0, time=227),
    Message('note_on', channel=0, note=53, velocity=0, time=0),
    Message('note_on', channel=0, note=41, velocity=96, time=13),
    Message('note_on', channel=0, note=41, velocity=0, time=113),
    Message('note_on', channel=0, note=48, velocity=96, time=7),
    Message('note_on', channel=0, note=53, velocity=96, time=0),
    Message('note_on', channel=0, note=48, velocity=0, time=341),
    Message('note_on', channel=0, note=53, velocity=0, time=0),
    Message('note_on', channel=0, note=41, velocity=96, time=19),
    Message('note_on', channel=0, note=41, velocity=0, time=227),
    Message('note_on', channel=0, note=48, velocity=96, time=13),
    Message('note_on', channel=0, note=53, velocity=96, time=0),
    Message('note_on', channel=0, note=48, velocity=0, time=227),
    Message('note_on', channel=0, note=53, velocity=0, time=0),
    Message('note_on', channel=0, note=41, velocity=96, time=13),
    Message('note_on', channel=0, note=41, velocity=0, time=227),
    Message('note_on', channel=0, note=36, velocity=96, time=13),
    Message('note_on', channel=0, note=48, velocity=96, time=0),
    Message('control_change', channel=0, control=64, value=0, time=1),
    Message('control_change', channel=0, control=64, value=127, time=1),
    Message('note_on', channel=0, note=36, velocity=0, time=453),
    Message('note_on', channel=0, note=48, velocity=0, time=0),
    Message('note_on', channel=0, note=55, velocity=96, time=25),
    Message('note_on', channel=0, note=55, velocity=0, time=227),
    Message('note_on', channel=0, note=48, velocity=96, time=13),
    Message('note_on', channel=0, note=48, velocity=0, time=227),
    Message('note_on', channel=0, note=44, velocity=96, time=13),
    Message('note_on', channel=0, note=51, velocity=96, time=0),
    Message('note_on', channel=0, note=56, velocity=96, time=0),
    Message('note_on', channel=0, note=44, velocity=0, time=455),
    Message('note_on', channel=0, note=51, velocity=0, time=0),
    Message('note_on', channel=0, note=56, velocity=0, time=0),
    Message('note_on', channel=0, note=51, velocity=96, time=25),
    Message('note_on', channel=0, note=56, velocity=96, time=0),
    Message('note_on', channel=0, note=51, velocity=0, time=227),
    Message('note_on', channel=0, note=56, velocity=0, time=0),
    Message('note_on', channel=0, note=44, velocity=96, time=13),
    Message('note_on', channel=0, note=44, velocity=0, time=227),
    Message('note_on', channel=0, note=41, velocity=96, time=13),
    Message('note_on', channel=0, note=48, velocity=96, time=0),
    Message('note_on', channel=0, note=53, velocity=96, time=0),
    Message('control_change', channel=0, control=64, value=0, time=1),
    Message('control_change', channel=0, control=64, value=127, time=1),
    Message('note_on', channel=0, note=41, velocity=0, time=453),
    Message('note_on', channel=0, note=48, velocity=0, time=0),
    Message('note_on', channel=0, note=53, velocity=0, time=0),
    Message('note_on', channel=0, note=48, velocity=96, time=25),
    Message('note_on', channel=0, note=53, velocity=96, time=0),
    Message('note_on', channel=0, note=48, velocity=0, time=227),
    Message('note_on', channel=0, note=53, velocity=0, time=0),
    Message('note_on', channel=0, note=41, velocity=96, time=13),
    Message('note_on', channel=0, note=41, velocity=0, time=113),
    Message('note_on', channel=0, note=48, velocity=96, time=7),
    Message('note_on', channel=0, note=53, velocity=96, time=0),
    Message('note_on', channel=0, note=48, velocity=0, time=341),
    Message('note_on', channel=0, note=53, velocity=0, time=0),
    Message('note_on', channel=0, note=41, velocity=96, time=19),
    Message('note_on', channel=0, note=41, velocity=0, time=227),
    Message('note_on', channel=0, note=48, velocity=96, time=13),
    Message('note_on', channel=0, note=53, velocity=96, time=0),
    Message('note_on', channel=0, note=48, velocity=0, time=227),
    Message('note_on', channel=0, note=53, velocity=0, time=0),
    Message('note_on', channel=0, note=41, velocity=96, time=13),
    Message('note_on', channel=0, note=41, velocity=0, time=227),
    Message('note_on', channel=0, note=38, velocity=96, time=13),
    Message('note_on', channel=0, note=50, velocity=96, time=0),
    Message('control_change', channel=0, control=64, value=0, time=1),
    Message('control_change', channel=0, control=64, value=127, time=1),
    Message('note_on', channel=0, note=38, velocity=0, time=453),
    Message('note_on', channel=0, note=50, velocity=0, time=0),
    Message('note_on', channel=0, note=50, velocity=96, time=25),
    Message('note_on', channel=0, note=50, velocity=0, time=227),
    Message('note_on', channel=0, note=38, velocity=96, time=13),
    Message('note_on', channel=0, note=38, velocity=0, time=227),
    Message('note_on', channel=0, note=38, velocity=96, time=253),
    Message('note_on', channel=0, note=38, velocity=0, time=227),
    Message('note_on', channel=0, note=50, velocity=96, time=13),
    Message('note_on', channel=0, note=50, velocity=0, time=227),
    Message('note_on', channel=0, note=38, velocity=96, time=13),
    Message('note_on', channel=0, note=38, velocity=0, time=227),
    Message('note_on', channel=0, note=43, velocity=96, time=13),
    Message('note_on', channel=0, note=55, velocity=96, time=0),
    Message('control_change', channel=0, control=64, value=0, time=1),
    Message('control_change', channel=0, control=64, value=127, time=1),
    Message('note_on', channel=0, note=43, velocity=0, time=225),
    Message('note_on', channel=0, note=55, velocity=0, time=0),
    Message('note_on', channel=0, note=43, velocity=98, time=13),
    Message('note_on', channel=0, note=55, velocity=98, time=0),
    Message('note_on', channel=0, note=43, velocity=0, time=227),
    Message('note_on', channel=0, note=55, velocity=0, time=0),
    Message('note_on', channel=0, note=43, velocity=100, time=13),
    Message('note_on', channel=0, note=55, velocity=100, time=0),
    Message('note_on', channel=0, note=43, velocity=0, time=227),
    Message('note_on', channel=0, note=55, velocity=0, time=0),
    Message('note_on', channel=0, note=43, velocity=102, time=13),
    Message('note_on', channel=0, note=55, velocity=102, time=0),
    Message('note_on', channel=0, note=43, velocity=0, time=227),
    Message('note_on', channel=0, note=55, velocity=0, time=0),
    Message('note_on', channel=0, note=43, velocity=104, time=13),
    Message('note_on', channel=0, note=55, velocity=104, time=0),
    Message('note_on', channel=0, note=43, velocity=0, time=227),
    Message('note_on', channel=0, note=55, velocity=0, time=0),
    Message('note_on', channel=0, note=43, velocity=106, time=13),
    Message('note_on', channel=0, note=55, velocity=106, time=0),
    Message('note_on', channel=0, note=43, velocity=0, time=227),
    Message('note_on', channel=0, note=55, velocity=0, time=0),
    Message('note_on', channel=0, note=43, velocity=108, time=13),
    Message('note_on', channel=0, note=55, velocity=108, time=0),
    Message('note_on', channel=0, note=43, velocity=0, time=227),
    Message('note_on', channel=0, note=55, velocity=0, time=0),
    Message('note_on', channel=0, note=43, velocity=110, time=13),
    Message('note_on', channel=0, note=55, velocity=110, time=0),
    Message('note_on', channel=0, note=43, velocity=0, time=227),
    Message('note_on', channel=0, note=55, velocity=0, time=0),
    Message('note_on', channel=0, note=36, velocity=112, time=13),
    Message('note_on', channel=0, note=43, velocity=112, time=0),
    Message('note_on', channel=0, note=48, velocity=112, time=0),
    Message('control_change', channel=0, control=64, value=0, time=1),
    Message('control_change', channel=0, control=64, value=127, time=1),
    Message('note_on', channel=0, note=36, velocity=0, time=453),
    Message('note_on', channel=0, note=43, velocity=0, time=0),
    Message('note_on', channel=0, note=48, velocity=0, time=0),
    Message('note_on', channel=0, note=55, velocity=112, time=25),
    Message('note_on', channel=0, note=55, velocity=0, time=227),
    Message('note_on', channel=0, note=48, velocity=112, time=13),
    Message('note_on', channel=0, note=48, velocity=0, time=227),
    Message('note_on', channel=0, note=48, velocity=112, time=253),
    Message('note_on', channel=0, note=48, velocity=0, time=227),
    Message('note_on', channel=0, note=55, velocity=112, time=13),
    Message('note_on', channel=0, note=60, velocity=112, time=0),
    Message('note_on', channel=0, note=55, velocity=0, time=227),
    Message('note_on', channel=0, note=60, velocity=0, time=0),
    Message('note_on', channel=0, note=46, velocity=112, time=13),
    Message('note_on', channel=0, note=58, velocity=112, time=0),
    Message('note_on', channel=0, note=46, velocity=0, time=227),
    Message('note_on', channel=0, note=58, velocity=0, time=0),
    Message('note_on', channel=0, note=44, velocity=112, time=13),
    Message('note_on', channel=0, note=51, velocity=112, time=0),
    Message('note_on', channel=0, note=56, velocity=112, time=0),
    Message('control_change', channel=0, control=64, value=0, time=1),
    Message('control_change', channel=0, control=64, value=127, time=1),
    Message('note_on', channel=0, note=44, velocity=0, time=453),
    Message('note_on', channel=0, note=51, velocity=0, time=0),
    Message('note_on', channel=0, note=56, velocity=0, time=0),
    Message('note_on', channel=0, note=44, velocity=112, time=25),
    Message('note_on', channel=0, note=44, velocity=0, time=227),
    Message('note_on', channel=0, note=51, velocity=112, time=13),
    Message('note_on', channel=0, note=56, velocity=112, time=0),
    Message('note_on', channel=0, note=51, velocity=0, time=227),
    Message('note_on', channel=0, note=56, velocity=0, time=0),
    Message('note_on', channel=0, note=44, velocity=112, time=253),
    Message('note_on', channel=0, note=44, velocity=0, time=227),
    Message('note_on', channel=0, note=51, velocity=112, time=13),
    Message('note_on', channel=0, note=56, velocity=112, time=0),
    Message('note_on', channel=0, note=51, velocity=0, time=227),
    Message('note_on', channel=0, note=56, velocity=0, time=0),
    Message('note_on', channel=0, note=43, velocity=112, time=13),
    Message('note_on', channel=0, note=55, velocity=112, time=0),
    Message('note_on', channel=0, note=43, velocity=0, time=227),
    Message('note_on', channel=0, note=55, velocity=0, time=0),
    Message('note_on', channel=0, note=41, velocity=112, time=13),
    Message('note_on', channel=0, note=48, velocity=112, time=0),
    Message('note_on', channel=0, note=53, velocity=112, time=0),
    Message('control_change', channel=0, control=64, value=0, time=1),
    Message('control_change', channel=0, control=64, value=127, time=1),
    Message('note_on', channel=0, note=41, velocity=0, time=453),
    Message('note_on', channel=0, note=48, velocity=0, time=0),
    Message('note_on', channel=0, note=53, velocity=0, time=0),
    Message('note_on', channel=0, note=41, velocity=112, time=25),
    Message('note_on', channel=0, note=41, velocity=0, time=227),
    Message('note_on', channel=0, note=48, velocity=112, time=13),
    Message('note_on', channel=0, note=53, velocity=112, time=0),
    Message('note_on', channel=0, note=48, velocity=0, time=227),
    Message('note_on', channel=0, note=53, velocity=0, time=0),
    Message('note_on', channel=0, note=41, velocity=112, time=253),
    Message('note_on', channel=0, note=41, velocity=0, time=227),
    Message('note_on', channel=0, note=48, velocity=112, time=13),
    Message('note_on', channel=0, note=53, velocity=112, time=0),
    Message('note_on', channel=0, note=48, velocity=0, time=227),
    Message('note_on', channel=0, note=53, velocity=0, time=0),
    Message('note_on', channel=0, note=39, velocity=112, time=13),
    Message('note_on', channel=0, note=51, velocity=112, time=0),
    Message('note_on', channel=0, note=39, velocity=0, time=227),
    Message('note_on', channel=0, note=51, velocity=0, time=0),
    Message('note_on', channel=0, note=38, velocity=112, time=13),
    Message('note_on', channel=0, note=50, velocity=112, time=0),
    Message('control_change', channel=0, control=64, value=0, time=1),
    Message('control_change', channel=0, control=64, value=127, time=1),
    Message('note_on', channel=0, note=38, velocity=0, time=225),
    Message('note_on', channel=0, note=50, velocity=0, time=0),
    Message('note_on', channel=0, note=38, velocity=112, time=13),
    Message('note_on', channel=0, note=38, velocity=0, time=227),
    Message('note_on', channel=0, note=50, velocity=112, time=13),
    Message('note_on', channel=0, note=50, velocity=0, time=227),
    Message('note_on', channel=0, note=38, velocity=112, time=13),
    Message('note_on', channel=0, note=38, velocity=0, time=113),
    Message('note_on', channel=0, note=50, velocity=112, time=7),
    Message('note_on', channel=0, note=50, velocity=0, time=113),
    Message('note_on', channel=0, note=43, velocity=112, time=7),
    Message('note_on', channel=0, note=43, velocity=0, time=227),
    Message('note_on', channel=0, note=50, velocity=112, time=13),
    Message('note_on', channel=0, note=50, velocity=0, time=227),
    Message('note_on', channel=0, note=43, velocity=112, time=13),
    Message('note_on', channel=0, note=43, velocity=0, time=227),
    Message('note_on', channel=0, note=50, velocity=112, time=13),
    Message('note_on', channel=0, note=50, velocity=0, time=227),
    Message('note_on', channel=0, note=36, velocity=112, time=13),
    Message('note_on', channel=0, note=43, velocity=112, time=0),
    Message('note_on', channel=0, note=48, velocity=112, time=0),
    Message('control_change', channel=0, control=64, value=0, time=1),
    Message('control_change', channel=0, control=64, value=127, time=1),
    Message('note_on', channel=0, note=36, velocity=0, time=453),
    Message('note_on', channel=0, note=43, velocity=0, time=0),
    Message('note_on', channel=0, note=48, velocity=0, time=0),
    Message('note_on', channel=0, note=55, velocity=112, time=25),
    Message('note_on', channel=0, note=55, velocity=0, time=227),
    Message('note_on', channel=0, note=48, velocity=112, time=13),
    Message('note_on', channel=0, note=48, velocity=0, time=227),
    Message('note_on', channel=0, note=48, velocity=112, time=253),
    Message('note_on', channel=0, note=48, velocity=0, time=227),
    Message('note_on', channel=0, note=60, velocity=112, time=13),
    Message('note_on', channel=0, note=60, velocity=0, time=227),
    Message('note_on', channel=0, note=46, velocity=112, time=13),
    Message('note_on', channel=0, note=58, velocity=112, time=0),
    Message('note_on', channel=0, note=46, velocity=0, time=227),
    Message('note_on', channel=0, note=58, velocity=0, time=0),
    Message('note_on', channel=0, note=44, velocity=112, time=13),
    Message('note_on', channel=0, note=51, velocity=112, time=0),
    Message('note_on', channel=0, note=56, velocity=112, time=0),
    Message('control_change', channel=0, control=64, value=0, time=1),
    Message('control_change', channel=0, control=64, value=127, time=1),
    Message('note_on', channel=0, note=44, velocity=0, time=453),
    Message('note_on', channel=0, note=51, velocity=0, time=0),
    Message('note_on', channel=0, note=56, velocity=0, time=0),
    Message('note_on', channel=0, note=44, velocity=112, time=25),
    Message('note_on', channel=0, note=44, velocity=0, time=227),
    Message('note_on', channel=0, note=51, velocity=112, time=13),
    Message('note_on', channel=0, note=56, velocity=112, time=0),
    Message('note_on', channel=0, note=51, velocity=0, time=227),
    Message('note_on', channel=0, note=56, velocity=0, time=0),
    Message('note_on', channel=0, note=44, velocity=112, time=253),
    Message('note_on', channel=0, note=44, velocity=0, time=227),
    Message('note_on', channel=0, note=51, velocity=112, time=13),
    Message('note_on', channel=0, note=56, velocity=112, time=0),
    Message('note_on', channel=0, note=51, velocity=0, time=227),
    Message('note_on', channel=0, note=56, velocity=0, time=0),
    Message('note_on', channel=0, note=43, velocity=112, time=13),
    Message('note_on', channel=0, note=55, velocity=112, time=0),
    Message('note_on', channel=0, note=43, velocity=0, time=227),
    Message('note_on', channel=0, note=55, velocity=0, time=0),
    Message('note_on', channel=0, note=41, velocity=112, time=13),
    Message('note_on', channel=0, note=48, velocity=112, time=0),
    Message('note_on', channel=0, note=53, velocity=112, time=0),
    Message('control_change', channel=0, control=64, value=0, time=1),
    Message('control_change', channel=0, control=64, value=127, time=1),
    Message('note_on', channel=0, note=41, velocity=0, time=453),
    Message('note_on', channel=0, note=48, velocity=0, time=0),
    Message('note_on', channel=0, note=53, velocity=0, time=0),
    Message('note_on', channel=0, note=41, velocity=112, time=25),
    Message('note_on', channel=0, note=41, velocity=0, time=227),
    Message('note_on', channel=0, note=48, velocity=112, time=13),
    Message('note_on', channel=0, note=53, velocity=112, time=0),
    Message('note_on', channel=0, note=48, velocity=0, time=227),
    Message('note_on', channel=0, note=53, velocity=0, time=0),
    Message('note_on', channel=0, note=41, velocity=112, time=253),
    Message('note_on', channel=0, note=41, velocity=0, time=227),
    Message('note_on', channel=0, note=48, velocity=112, time=13),
    Message('note_on', channel=0, note=53, velocity=112, time=0),
    Message('note_on', channel=0, note=48, velocity=0, time=227),
    Message('note_on', channel=0, note=53, velocity=0, time=0),
    Message('note_on', channel=0, note=39, velocity=112, time=13),
    Message('note_on', channel=0, note=51, velocity=112, time=0),
    Message('note_on', channel=0, note=39, velocity=0, time=227),
    Message('note_on', channel=0, note=51, velocity=0, time=0),
    Message('note_on', channel=0, note=38, velocity=112, time=13),
    Message('note_on', channel=0, note=50, velocity=112, time=0),
    Message('control_change', channel=0, control=64, value=0, time=1),
    Message('control_change', channel=0, control=64, value=127, time=1),
    Message('note_on', channel=0, note=38, velocity=0, time=225),
    Message('note_on', channel=0, note=50, velocity=0, time=0),
    Message('note_on', channel=0, note=38, velocity=112, time=13),
    Message('note_on', channel=0, note=38, velocity=0, time=227),
    Message('note_on', channel=0, note=50, velocity=112, time=13),
    Message('note_on', channel=0, note=50, velocity=0, time=227),
    Message('note_on', channel=0, note=38, velocity=112, time=13),
    Message('note_on', channel=0, note=38, velocity=0, time=113),
    Message('note_on', channel=0, note=50, velocity=112, time=7),
    Message('note_on', channel=0, note=50, velocity=0, time=113),
    Message('note_on', channel=0, note=43, velocity=112, time=7),
    Message('note_on', channel=0, note=43, velocity=0, time=227),
    Message('note_on', channel=0, note=50, velocity=112, time=13),
    Message('note_on', channel=0, note=50, velocity=0, time=227),
    Message('note_on', channel=0, note=43, velocity=112, time=13),
    Message('note_on', channel=0, note=43, velocity=0, time=227),
    Message('note_on', channel=0, note=50, velocity=112, time=13),
    Message('note_on', channel=0, note=50, velocity=0, time=227),
    Message('note_on', channel=0, note=36, velocity=80, time=13),
    Message('note_on', channel=0, note=48, velocity=80, time=0),
    Message('control_change', channel=0, control=64, value=0, time=1),
    Message('control_change', channel=0, control=64, value=127, time=1),
    Message('note_on', channel=0, note=36, velocity=0, time=453),
    Message('note_on', channel=0, note=48, velocity=0, time=0),
    Message('note_on', channel=0, note=48, velocity=80, time=25),
    Message('note_on', channel=0, note=55, velocity=80, time=0),
    Message('note_on', channel=0, note=48, velocity=0, time=455),
    Message('note_on', channel=0, note=55, velocity=0, time=0),
    Message('note_on', channel=0, note=48, velocity=80, time=25),
    Message('note_on', channel=0, note=55, velocity=80, time=0),
    Message('note_on', channel=0, note=48, velocity=0, time=455),
    Message('note_on', channel=0, note=55, velocity=0, time=0),
    Message('note_on', channel=0, note=48, velocity=80, time=25),
    Message('note_on', channel=0, note=55, velocity=80, time=0),
    Message('note_on', channel=0, note=48, velocity=0, time=227),
    Message('note_on', channel=0, note=55, velocity=0, time=0),
    Message('note_on', channel=0, note=48, velocity=80, time=13),
    Message('note_on', channel=0, note=55, velocity=80, time=0),
    Message('note_on', channel=0, note=48, velocity=0, time=227),
    Message('note_on', channel=0, note=55, velocity=0, time=0),
    Message('note_on', channel=0, note=48, velocity=80, time=13),
    Message('note_on', channel=0, note=55, velocity=80, time=0),
    Message('control_change', channel=0, control=64, value=0, time=1),
    Message('control_change', channel=0, control=64, value=127, time=1),
    Message('note_on', channel=0, note=48, velocity=0, time=225),
    Message('note_on', channel=0, note=55, velocity=0, time=0),
    Message('note_on', channel=0, note=48, velocity=80, time=13),
    Message('note_on', channel=0, note=55, velocity=80, time=0),
    Message('note_on', channel=0, note=48, velocity=0, time=227),
    Message('note_on', channel=0, note=55, velocity=0, time=0),
    Message('note_on', channel=0, note=48, velocity=80, time=13),
    Message('note_on', channel=0, note=55, velocity=80, time=0),
    Message('note_on', channel=0, note=48, velocity=0, time=227),
    Message('note_on', channel=0, note=55, velocity=0, time=0),
    Message('note_on', channel=0, note=48, velocity=80, time=13),
    Message('note_on', channel=0, note=55, velocity=80, time=0),
    Message('note_on', channel=0, note=48, velocity=0, time=227),
    Message('note_on', channel=0, note=55, velocity=0, time=0),
    Message('note_on', channel=0, note=48, velocity=80, time=13),
    Message('note_on', channel=0, note=55, velocity=80, time=0),
    Message('note_on', channel=0, note=48, velocity=0, time=227),
    Message('note_on', channel=0, note=55, velocity=0, time=0),
    Message('note_on', channel=0, note=48, velocity=80, time=13),
    Message('note_on', channel=0, note=55, velocity=80, time=0),
    Message('note_on', channel=0, note=48, velocity=0, time=227),
    Message('note_on', channel=0, note=55, velocity=0, time=0),
    Message('note_on', channel=0, note=48, velocity=80, time=13),
    Message('note_on', channel=0, note=55, velocity=80, time=0),
    Message('note_on', channel=0, note=48, velocity=0, time=227),
    Message('note_on', channel=0, note=55, velocity=0, time=0),
    Message('note_on', channel=0, note=36, velocity=80, time=253),
    Message('note_on', channel=0, note=48, velocity=80, time=0),
    Message('control_change', channel=0, control=64, value=0, time=1),
    Message('control_change', channel=0, control=64, value=127, time=1),
    Message('note_on', channel=0, note=36, velocity=0, time=453),
    Message('note_on', channel=0, note=48, velocity=0, time=0),
    Message('note_on', channel=0, note=48, velocity=80, time=25),
    Message('note_on', channel=0, note=55, velocity=80, time=0),
    Message('note_on', channel=0, note=48, velocity=0, time=455),
    Message('note_on', channel=0, note=55, velocity=0, time=0),
    Message('note_on', channel=0, note=48, velocity=80, time=25),
    Message('note_on', channel=0, note=55, velocity=80, time=0),
    Message('note_on', channel=0, note=48, velocity=0, time=455),
    Message('note_on', channel=0, note=55, velocity=0, time=0),
    Message('note_on', channel=0, note=48, velocity=80, time=25),
    Message('note_on', channel=0, note=55, velocity=80, time=0),
    Message('note_on', channel=0, note=48, velocity=0, time=455),
    Message('note_on', channel=0, note=55, velocity=0, time=0),
    Message('note_on', channel=0, note=48, velocity=80, time=25),
    Message('note_on', channel=0, note=55, velocity=80, time=0),
    Message('control_change', channel=0, control=64, value=0, time=1),
    Message('control_change', channel=0, control=64, value=127, time=1),
    Message('note_on', channel=0, note=48, velocity=0, time=453),
    Message('note_on', channel=0, note=55, velocity=0, time=0),
    Message('note_on', channel=0, note=48, velocity=80, time=25),
    Message('note_on', channel=0, note=55, velocity=80, time=0),
    Message('note_on', channel=0, note=48, velocity=0, time=455),
    Message('note_on', channel=0, note=55, velocity=0, time=0),
    Message('note_on', channel=0, note=48, velocity=80, time=25),
    Message('note_on', channel=0, note=55, velocity=80, time=0),
    Message('note_on', channel=0, note=48, velocity=0, time=455),
    Message('note_on', channel=0, note=55, velocity=0, time=0),
    Message('note_on', channel=0, note=48, velocity=80, time=25),
    Message('note_on', channel=0, note=48, velocity=0, time=227),
    Message('note_on', channel=0, note=36, velocity=80, time=13),
    Message('note_on', channel=0, note=36, velocity=0, time=227),
    MetaMessage('key_signature', key='C', time=13),
    Message('note_on', channel=0, note=36, velocity=80, time=0),
    Message('note_on', channel=0, note=48, velocity=80, time=0),
    Message('control_change', channel=0, control=64, value=0, time=1),
    Message('control_change', channel=0, control=64, value=127, time=1),
    Message('note_on', channel=0, note=36, velocity=0, time=453),
    Message('note_on', channel=0, note=48, velocity=0, time=0),
    Message('note_on', channel=0, note=48, velocity=80, time=25),
    Message('note_on', channel=0, note=55, velocity=80, time=0),
    Message('note_on', channel=0, note=48, velocity=0, time=455),
    Message('note_on', channel=0, note=55, velocity=0, time=0),
    Message('note_on', channel=0, note=48, velocity=80, time=25),
    Message('note_on', channel=0, note=55, velocity=80, time=0),
    Message('note_on', channel=0, note=48, velocity=0, time=455),
    Message('note_on', channel=0, note=55, velocity=0, time=0),
    Message('note_on', channel=0, note=48, velocity=80, time=25),
    Message('note_on', channel=0, note=55, velocity=80, time=0),
    Message('note_on', channel=0, note=48, velocity=0, time=227),
    Message('note_on', channel=0, note=55, velocity=0, time=0),
    Message('note_on', channel=0, note=48, velocity=80, time=13),
    Message('note_on', channel=0, note=55, velocity=80, time=0),
    Message('note_on', channel=0, note=48, velocity=0, time=227),
    Message('note_on', channel=0, note=55, velocity=0, time=0),
    Message('note_on', channel=0, note=48, velocity=80, time=13),
    Message('note_on', channel=0, note=55, velocity=80, time=0),
    Message('control_change', channel=0, control=64, value=0, time=1),
    Message('control_change', channel=0, control=64, value=127, time=1),
    Message('note_on', channel=0, note=48, velocity=0, time=453),
    Message('note_on', channel=0, note=55, velocity=0, time=0),
    Message('note_on', channel=0, note=48, velocity=80, time=25),
    Message('note_on', channel=0, note=55, velocity=80, time=0),
    Message('note_on', channel=0, note=48, velocity=0, time=455),
    Message('note_on', channel=0, note=55, velocity=0, time=0),
    Message('note_on', channel=0, note=48, velocity=80, time=25),
    Message('note_on', channel=0, note=55, velocity=80, time=0),
    Message('note_on', channel=0, note=48, velocity=0, time=455),
    Message('note_on', channel=0, note=55, velocity=0, time=0),
    Message('note_on', channel=0, note=48, velocity=80, time=25),
    Message('note_on', channel=0, note=55, velocity=80, time=0),
    Message('note_on', channel=0, note=48, velocity=0, time=455),
    Message('note_on', channel=0, note=55, velocity=0, time=0),
    Message('note_on', channel=0, note=36, velocity=80, time=25),
    Message('note_on', channel=0, note=48, velocity=80, time=0),
    Message('control_change', channel=0, control=64, value=0, time=1),
    Message('control_change', channel=0, control=64, value=127, time=1),
    Message('note_on', channel=0, note=36, velocity=0, time=453),
    Message('note_on', channel=0, note=48, velocity=0, time=0),
    Message('note_on', channel=0, note=48, velocity=80, time=25),
    Message('note_on', channel=0, note=55, velocity=80, time=0),
    Message('note_on', channel=0, note=48, velocity=0, time=455),
    Message('note_on', channel=0, note=55, velocity=0, time=0),
    Message('note_on', channel=0, note=48, velocity=80, time=25),
    Message('note_on', channel=0, note=55, velocity=80, time=0),
    Message('note_on', channel=0, note=48, velocity=0, time=455),
    Message('note_on', channel=0, note=55, velocity=0, time=0),
    Message('note_on', channel=0, note=48, velocity=80, time=25),
    Message('note_on', channel=0, note=55, velocity=80, time=0),
    Message('note_on', channel=0, note=48, velocity=0, time=455),
    Message('note_on', channel=0, note=55, velocity=0, time=0),
    Message('note_on', channel=0, note=48, velocity=80, time=25),
    Message('note_on', channel=0, note=55, velocity=80, time=0),
    Message('control_change', channel=0, control=64, value=0, time=1),
    Message('control_change', channel=0, control=64, value=127, time=1),
    Message('note_on', channel=0, note=48, velocity=0, time=453),
    Message('note_on', channel=0, note=55, velocity=0, time=0),
    Message('note_on', channel=0, note=48, velocity=80, time=25),
    Message('note_on', channel=0, note=55, velocity=80, time=0),
    Message('note_on', channel=0, note=48, velocity=0, time=455),
    Message('note_on', channel=0, note=55, velocity=0, time=0),
    Message('note_on', channel=0, note=48, velocity=80, time=25),
    Message('note_on', channel=0, note=55, velocity=80, time=0),
    Message('note_on', channel=0, note=48, velocity=0, time=455),
    Message('note_on', channel=0, note=55, velocity=0, time=0),
    Message('note_on', channel=0, note=48, velocity=80, time=25),
    Message('note_on', channel=0, note=55, velocity=80, time=0),
    Message('note_on', channel=0, note=48, velocity=0, time=455),
    Message('note_on', channel=0, note=55, velocity=0, time=0),
    Message('note_on', channel=0, note=41, velocity=80, time=25),
    Message('note_on', channel=0, note=53, velocity=80, time=0),
    Message('control_change', channel=0, control=64, value=0, time=1),
    Message('control_change', channel=0, control=64, value=127, time=1),
    Message('note_on', channel=0, note=41, velocity=0, time=453),
    Message('note_on', channel=0, note=53, velocity=0, time=0),
    Message('note_on', channel=0, note=48, velocity=80, time=25),
    Message('note_on', channel=0, note=53, velocity=80, time=0),
    Message('note_on', channel=0, note=48, velocity=0, time=227),
    Message('note_on', channel=0, note=53, velocity=0, time=0),
    Message('note_on', channel=0, note=41, velocity=80, time=13),
    Message('note_on', channel=0, note=41, velocity=0, time=113),
    Message('note_on', channel=0, note=48, velocity=80, time=7),
    Message('note_on', channel=0, note=53, velocity=80, time=0),
    Message('note_on', channel=0, note=48, velocity=0, time=341),
    Message('note_on', channel=0, note=53, velocity=0, time=0),
    Message('note_on', channel=0, note=41, velocity=80, time=19),
    Message('note_on', channel=0, note=41, velocity=0, time=227),
    Message('note_on', channel=0, note=48, velocity=80, time=13),
    Message('note_on', channel=0, note=53, velocity=80, time=0),
    Message('note_on', channel=0, note=48, velocity=0, time=227),
    Message('note_on', channel=0, note=53, velocity=0, time=0),
    Message('note_on', channel=0, note=41, velocity=80, time=13),
    Message('note_on', channel=0, note=41, velocity=0, time=227),
    Message('note_on', channel=0, note=44, velocity=80, time=13),
    Message('note_on', channel=0, note=56, velocity=80, time=0),
    Message('control_change', channel=0, control=64, value=0, time=1),
    Message('control_change', channel=0, control=64, value=127, time=1),
    Message('note_on', channel=0, note=44, velocity=0, time=453),
    Message('note_on', channel=0, note=56, velocity=0, time=0),
    Message('note_on', channel=0, note=51, velocity=80, time=25),
    Message('note_on', channel=0, note=56, velocity=80, time=0),
    Message('note_on', channel=0, note=51, velocity=0, time=227),
    Message('note_on', channel=0, note=56, velocity=0, time=0),
    Message('note_on', channel=0, note=44, velocity=80, time=13),
    Message('note_on', channel=0, note=44, velocity=0, time=113),
    Message('note_on', channel=0, note=51, velocity=80, time=7),
    Message('note_on', channel=0, note=56, velocity=80, time=0),
    Message('note_on', channel=0, note=51, velocity=0, time=341),
    Message('note_on', channel=0, note=56, velocity=0, time=0),
    Message('note_on', channel=0, note=44, velocity=80, time=19),
    Message('note_on', channel=0, note=44, velocity=0, time=227),
    Message('note_on', channel=0, note=51, velocity=80, time=13),
    Message('note_on', channel=0, note=56, velocity=80, time=0),
    Message('note_on', channel=0, note=51, velocity=0, time=227),
    Message('note_on', channel=0, note=56, velocity=0, time=0),
    Message('note_on', channel=0, note=44, velocity=80, time=13),
    Message('note_on', channel=0, note=44, velocity=0, time=227),
    Message('note_on', channel=0, note=34, velocity=80, time=13),
    Message('note_on', channel=0, note=46, velocity=80, time=0),
    Message('control_change', channel=0, control=64, value=0, time=1),
    Message('control_change', channel=0, control=64, value=127, time=1),
    Message('note_on', channel=0, note=34, velocity=0, time=453),
    Message('note_on', channel=0, note=46, velocity=0, time=0),
    Message('note_on', channel=0, note=53, velocity=80, time=25),
    Message('note_on', channel=0, note=58, velocity=80, time=0),
    Message('note_on', channel=0, note=53, velocity=0, time=227),
    Message('note_on', channel=0, note=58, velocity=0, time=0),
    Message('note_on', channel=0, note=46, velocity=80, time=13),
    Message('note_on', channel=0, note=46, velocity=0, time=227),
    Message('note_on', channel=0, note=47, velocity=80, time=13),
    Message('note_on', channel=0, note=55, velocity=80, time=0),
    Message('note_on', channel=0, note=59, velocity=80, time=0),
    Message('note_on', channel=0, note=47, velocity=0, time=455),
    Message('note_on', channel=0, note=55, velocity=0, time=0),
    Message('note_on', channel=0, note=59, velocity=0, time=0),
    Message('note_on', channel=0, note=59, velocity=80, time=25),
    Message('note_on', channel=0, note=59, velocity=0, time=227),
    Message('note_on', channel=0, note=47, velocity=80, time=13),
    Message('note_on', channel=0, note=47, velocity=0, time=227),
    Message('note_on', channel=0, note=48, velocity=80, time=13),
    Message('note_on', channel=0, note=60, velocity=80, time=0),
    Message('control_change', channel=0, control=64, value=0, time=1),
    Message('control_change', channel=0, control=64, value=127, time=1),
    Message('note_on', channel=0, note=48, velocity=0, time=453),
    Message('note_on', channel=0, note=60, velocity=0, time=0),
    Message('note_on', channel=0, note=55, velocity=80, time=25),
    Message('note_on', channel=0, note=60, velocity=80, time=0),
    Message('note_on', channel=0, note=55, velocity=0, time=227),
    Message('note_on', channel=0, note=60, velocity=0, time=0),
    Message('note_on', channel=0, note=48, velocity=80, time=13),
    Message('note_on', channel=0, note=48, velocity=0, time=227),
    Message('note_on', channel=0, note=48, velocity=80, time=253),
    Message('note_on', channel=0, note=48, velocity=0, time=227),
    Message('note_on', channel=0, note=55, velocity=80, time=13),
    Message('note_on', channel=0, note=55, velocity=0, time=227),
    Message('note_on', channel=0, note=48, velocity=80, time=13),
    Message('note_on', channel=0, note=48, velocity=0, time=227),
    Message('note_on', channel=0, note=44, velocity=80, time=13),
    Message('note_on', channel=0, note=56, velocity=80, time=0),
    Message('control_change', channel=0, control=64, value=0, time=1),
    Message('control_change', channel=0, control=64, value=127, time=1),
    Message('note_on', channel=0, note=44, velocity=0, time=453),
    Message('note_on', channel=0, note=56, velocity=0, time=0),
    Message('note_on', channel=0, note=51, velocity=80, time=25),
    Message('note_on', channel=0, note=56, velocity=80, time=0),
    Message('note_on', channel=0, note=51, velocity=0, time=227),
    Message('note_on', channel=0, note=56, velocity=0, time=0),
    Message('note_on', channel=0, note=44, velocity=80, time=13),
    Message('note_on', channel=0, note=44, velocity=0, time=113),
    Message('note_on', channel=0, note=51, velocity=80, time=7),
    Message('note_on', channel=0, note=56, velocity=80, time=0),
    Message('note_on', channel=0, note=51, velocity=0, time=341),
    Message('note_on', channel=0, note=56, velocity=0, time=0),
    Message('note_on', channel=0, note=44, velocity=80, time=19),
    Message('note_on', channel=0, note=44, velocity=0, time=227),
    Message('note_on', channel=0, note=51, velocity=80, time=13),
    Message('note_on', channel=0, note=56, velocity=80, time=0),
    Message('note_on', channel=0, note=51, velocity=0, time=227),
    Message('note_on', channel=0, note=56, velocity=0, time=0),
    Message('note_on', channel=0, note=44, velocity=80, time=13),
    Message('note_on', channel=0, note=44, velocity=0, time=227),
    Message('note_on', channel=0, note=41, velocity=80, time=13),
    Message('note_on', channel=0, note=53, velocity=80, time=0),
    Message('control_change', channel=0, control=64, value=0, time=1),
    Message('control_change', channel=0, control=64, value=127, time=1),
    Message('note_on', channel=0, note=41, velocity=0, time=453),
    Message('note_on', channel=0, note=53, velocity=0, time=0),
    Message('note_on', channel=0, note=48, velocity=80, time=25),
    Message('note_on', channel=0, note=53, velocity=80, time=0),
    Message('note_on', channel=0, note=48, velocity=0, time=227),
    Message('note_on', channel=0, note=53, velocity=0, time=0),
    Message('note_on', channel=0, note=41, velocity=80, time=13),
    Message('note_on', channel=0, note=41, velocity=0, time=113),
    Message('note_on', channel=0, note=48, velocity=80, time=7),
    Message('note_on', channel=0, note=53, velocity=80, time=0),
    Message('note_on', channel=0, note=48, velocity=0, time=341),
    Message('note_on', channel=0, note=53, velocity=0, time=0),
    Message('note_on', channel=0, note=41, velocity=80, time=19),
    Message('note_on', channel=0, note=41, velocity=0, time=227),
    Message('note_on', channel=0, note=48, velocity=80, time=13),
    Message('note_on', channel=0, note=53, velocity=80, time=0),
    Message('note_on', channel=0, note=48, velocity=0, time=227),
    Message('note_on', channel=0, note=53, velocity=0, time=0),
    Message('note_on', channel=0, note=41, velocity=80, time=13),
    Message('note_on', channel=0, note=41, velocity=0, time=227),
    Message('note_on', channel=0, note=38, velocity=80, time=13),
    Message('control_change', channel=0, control=64, value=0, time=1),
    Message('control_change', channel=0, control=64, value=127, time=1),
    Message('note_on', channel=0, note=38, velocity=0, time=453),
    Message('note_on', channel=0, note=50, velocity=80, time=25),
    Message('note_on', channel=0, note=50, velocity=0, time=227),
    Message('note_on', channel=0, note=38, velocity=80, time=13),
    Message('note_on', channel=0, note=38, velocity=0, time=455),
    Message('note_on', channel=0, note=38, velocity=80, time=25),
    Message('note_on', channel=0, note=38, velocity=0, time=227),
    Message('note_on', channel=0, note=50, velocity=80, time=13),
    Message('note_on', channel=0, note=50, velocity=0, time=227),
    Message('note_on', channel=0, note=38, velocity=80, time=13),
    Message('note_on', channel=0, note=38, velocity=0, time=227),
    Message('note_on', channel=0, note=43, velocity=80, time=13),
    Message('note_on', channel=0, note=50, velocity=80, time=0),
    Message('note_on', channel=0, note=55, velocity=80, time=0),
    Message('control_change', channel=0, control=64, value=0, time=1),
    Message('control_change', channel=0, control=64, value=127, time=1),
    Message('note_on', channel=0, note=43, velocity=0, time=225),
    Message('note_on', channel=0, note=50, velocity=0, time=0),
    Message('note_on', channel=0, note=55, velocity=0, time=0),
    Message('note_on', channel=0, note=43, velocity=84, time=13),
    Message('note_on', channel=0, note=50, velocity=84, time=0),
    Message('note_on', channel=0, note=55, velocity=84, time=0),
    Message('note_on', channel=0, note=43, velocity=0, time=227),
    Message('note_on', channel=0, note=50, velocity=0, time=0),
    Message('note_on', channel=0, note=55, velocity=0, time=0),
    Message('note_on', channel=0, note=43, velocity=88, time=13),
    Message('note_on', channel=0, note=50, velocity=88, time=0),
    Message('note_on', channel=0, note=55, velocity=88, time=0),
    Message('note_on', channel=0, note=43, velocity=0, time=227),
    Message('note_on', channel=0, note=50, velocity=0, time=0),
    Message('note_on', channel=0, note=55, velocity=0, time=0),
    Message('note_on', channel=0, note=43, velocity=92, time=13),
    Message('note_on', channel=0, note=50, velocity=92, time=0),
    Message('note_on', channel=0, note=55, velocity=92, time=0),
    Message('note_on', channel=0, note=43, velocity=0, time=455),
    Message('note_on', channel=0, note=50, velocity=0, time=0),
    Message('note_on', channel=0, note=55, velocity=0, time=0),
    Message('note_on', channel=0, note=43, velocity=100, time=25),
    Message('note_on', channel=0, note=50, velocity=100, time=0),
    Message('note_on', channel=0, note=55, velocity=100, time=0),
    Message('note_on', channel=0, note=43, velocity=0, time=227),
    Message('note_on', channel=0, note=50, velocity=0, time=0),
    Message('note_on', channel=0, note=55, velocity=0, time=0),
    Message('note_on', channel=0, note=43, velocity=104, time=13),
    Message('note_on', channel=0, note=50, velocity=104, time=0),
    Message('note_on', channel=0, note=55, velocity=104, time=0),
    Message('note_on', channel=0, note=43, velocity=0, time=227),
    Message('note_on', channel=0, note=50, velocity=0, time=0),
    Message('note_on', channel=0, note=55, velocity=0, time=0),
    Message('note_on', channel=0, note=43, velocity=108, time=13),
    Message('note_on', channel=0, note=50, velocity=108, time=0),
    Message('note_on', channel=0, note=55, velocity=108, time=0),
    Message('note_on', channel=0, note=43, velocity=0, time=227),
    Message('note_on', channel=0, note=50, velocity=0, time=0),
    Message('note_on', channel=0, note=55, velocity=0, time=0),
    MetaMessage('key_signature', key='Eb', time=13),
    Message('note_on', channel=0, note=36, velocity=112, time=0),
    Message('note_on', channel=0, note=43, velocity=112, time=0),
    Message('note_on', channel=0, note=48, velocity=112, time=0),
    Message('control_change', channel=0, control=64, value=0, time=1),
    Message('control_change', channel=0, control=64, value=127, time=1),
    Message('note_on', channel=0, note=36, velocity=0, time=453),
    Message('note_on', channel=0, note=43, velocity=0, time=0),
    Message('note_on', channel=0, note=48, velocity=0, time=0),
    Message('note_on', channel=0, note=55, velocity=112, time=25),
    Message('note_on', channel=0, note=55, velocity=0, time=227),
    Message('note_on', channel=0, note=48, velocity=112, time=13),
    Message('note_on', channel=0, note=48, velocity=0, time=227),
    Message('note_on', channel=0, note=48, velocity=112, time=253),
    Message('note_on', channel=0, note=48, velocity=0, time=227),
    Message('note_on', channel=0, note=55, velocity=112, time=13),
    Message('note_on', channel=0, note=60, velocity=112, time=0),
    Message('note_on', channel=0, note=55, velocity=0, time=227),
    Message('note_on', channel=0, note=60, velocity=0, time=0),
    Message('note_on', channel=0, note=46, velocity=112, time=13),
    Message('note_on', channel=0, note=58, velocity=112, time=0),
    Message('note_on', channel=0, note=46, velocity=0, time=227),
    Message('note_on', channel=0, note=58, velocity=0, time=0),
    Message('note_on', channel=0, note=44, velocity=112, time=13),
    Message('note_on', channel=0, note=51, velocity=112, time=0),
    Message('note_on', channel=0, note=56, velocity=112, time=0),
    Message('control_change', channel=0, control=64, value=0, time=1),
    Message('control_change', channel=0, control=64, value=127, time=1),
    Message('note_on', channel=0, note=44, velocity=0, time=453),
    Message('note_on', channel=0, note=51, velocity=0, time=0),
    Message('note_on', channel=0, note=56, velocity=0, time=0),
    Message('note_on', channel=0, note=44, velocity=112, time=25),
    Message('note_on', channel=0, note=44, velocity=0, time=227),
    Message('note_on', channel=0, note=51, velocity=112, time=13),
    Message('note_on', channel=0, note=56, velocity=112, time=0),
    Message('note_on', channel=0, note=51, velocity=0, time=227),
    Message('note_on', channel=0, note=56, velocity=0, time=0),
    Message('note_on', channel=0, note=44, velocity=112, time=253),
    Message('note_on', channel=0, note=44, velocity=0, time=227),
    Message('note_on', channel=0, note=51, velocity=112, time=13),
    Message('note_on', channel=0, note=56, velocity=112, time=0),
    Message('note_on', channel=0, note=51, velocity=0, time=227),
    Message('note_on', channel=0, note=56, velocity=0, time=0),
    Message('note_on', channel=0, note=43, velocity=112, time=13),
    Message('note_on', channel=0, note=55, velocity=112, time=0),
    Message('note_on', channel=0, note=43, velocity=0, time=227),
    Message('note_on', channel=0, note=55, velocity=0, time=0),
    Message('note_on', channel=0, note=41, velocity=112, time=13),
    Message('note_on', channel=0, note=48, velocity=112, time=0),
    Message('note_on', channel=0, note=53, velocity=112, time=0),
    Message('control_change', channel=0, control=64, value=0, time=1),
    Message('control_change', channel=0, control=64, value=127, time=1),
    Message('note_on', channel=0, note=41, velocity=0, time=453),
    Message('note_on', channel=0, note=48, velocity=0, time=0),
    Message('note_on', channel=0, note=53, velocity=0, time=0),
    Message('note_on', channel=0, note=41, velocity=112, time=25),
    Message('note_on', channel=0, note=41, velocity=0, time=227),
    Message('note_on', channel=0, note=48, velocity=112, time=13),
    Message('note_on', channel=0, note=53, velocity=112, time=0),
    Message('note_on', channel=0, note=48, velocity=0, time=227),
    Message('note_on', channel=0, note=53, velocity=0, time=0),
    Message('note_on', channel=0, note=41, velocity=112, time=253),
    Message('note_on', channel=0, note=41, velocity=0, time=227),
    Message('note_on', channel=0, note=48, velocity=112, time=13),
    Message('note_on', channel=0, note=53, velocity=112, time=0),
    Message('note_on', channel=0, note=48, velocity=0, time=227),
    Message('note_on', channel=0, note=53, velocity=0, time=0),
    Message('note_on', channel=0, note=39, velocity=112, time=13),
    Message('note_on', channel=0, note=51, velocity=112, time=0),
    Message('note_on', channel=0, note=39, velocity=0, time=227),
    Message('note_on', channel=0, note=51, velocity=0, time=0),
    Message('note_on', channel=0, note=38, velocity=112, time=13),
    Message('note_on', channel=0, note=50, velocity=112, time=0),
    Message('control_change', channel=0, control=64, value=0, time=1),
    Message('control_change', channel=0, control=64, value=127, time=1),
    Message('note_on', channel=0, note=38, velocity=0, time=225),
    Message('note_on', channel=0, note=50, velocity=0, time=0),
    Message('note_on', channel=0, note=38, velocity=112, time=13),
    Message('note_on', channel=0, note=38, velocity=0, time=227),
    Message('note_on', channel=0, note=50, velocity=112, time=13),
    Message('note_on', channel=0, note=50, velocity=0, time=227),
    Message('note_on', channel=0, note=38, velocity=112, time=13),
    Message('note_on', channel=0, note=38, velocity=0, time=113),
    Message('note_on', channel=0, note=50, velocity=112, time=7),
    Message('note_on', channel=0, note=50, velocity=0, time=113),
    Message('note_on', channel=0, note=43, velocity=112, time=7),
    Message('note_on', channel=0, note=43, velocity=0, time=227),
    Message('note_on', channel=0, note=50, velocity=112, time=13),
    Message('note_on', channel=0, note=50, velocity=0, time=227),
    Message('note_on', channel=0, note=43, velocity=112, time=13),
    Message('note_on', channel=0, note=43, velocity=0, time=227),
    Message('note_on', channel=0, note=50, velocity=112, time=13),
    Message('note_on', channel=0, note=50, velocity=0, time=227),
    Message('note_on', channel=0, note=36, velocity=112, time=13),
    Message('note_on', channel=0, note=43, velocity=112, time=0),
    Message('note_on', channel=0, note=48, velocity=112, time=0),
    Message('control_change', channel=0, control=64, value=0, time=1),
    Message('control_change', channel=0, control=64, value=127, time=1),
    Message('note_on', channel=0, note=36, velocity=0, time=453),
    Message('note_on', channel=0, note=43, velocity=0, time=0),
    Message('note_on', channel=0, note=48, velocity=0, time=0),
    Message('note_on', channel=0, note=55, velocity=112, time=25),
    Message('note_on', channel=0, note=55, velocity=0, time=227),
    Message('note_on', channel=0, note=48, velocity=112, time=13),
    Message('note_on', channel=0, note=48, velocity=0, time=227),
    Message('note_on', channel=0, note=48, velocity=112, time=253),
    Message('note_on', channel=0, note=48, velocity=0, time=227),
    Message('note_on', channel=0, note=60, velocity=112, time=13),
    Message('note_on', channel=0, note=60, velocity=0, time=227),
    Message('note_on', channel=0, note=46, velocity=112, time=13),
    Message('note_on', channel=0, note=58, velocity=112, time=0),
    Message('note_on', channel=0, note=46, velocity=0, time=227),
    Message('note_on', channel=0, note=58, velocity=0, time=0),
    Message('note_on', channel=0, note=44, velocity=112, time=13),
    Message('note_on', channel=0, note=51, velocity=112, time=0),
    Message('note_on', channel=0, note=56, velocity=112, time=0),
    Message('control_change', channel=0, control=64, value=0, time=1),
    Message('control_change', channel=0, control=64, value=127, time=1),
    Message('note_on', channel=0, note=44, velocity=0, time=453),
    Message('note_on', channel=0, note=51, velocity=0, time=0),
    Message('note_on', channel=0, note=56, velocity=0, time=0),
    Message('note_on', channel=0, note=44, velocity=112, time=25),
    Message('note_on', channel=0, note=44, velocity=0, time=227),
    Message('note_on', channel=0, note=51, velocity=112, time=13),
    Message('note_on', channel=0, note=56, velocity=112, time=0),
    Message('note_on', channel=0, note=51, velocity=0, time=227),
    Message('note_on', channel=0, note=56, velocity=0, time=0),
    Message('note_on', channel=0, note=44, velocity=112, time=253),
    Message('note_on', channel=0, note=44, velocity=0, time=227),
    Message('note_on', channel=0, note=51, velocity=112, time=13),
    Message('note_on', channel=0, note=56, velocity=112, time=0),
    Message('note_on', channel=0, note=51, velocity=0, time=227),
    Message('note_on', channel=0, note=56, velocity=0, time=0),
    Message('note_on', channel=0, note=43, velocity=112, time=13),
    Message('note_on', channel=0, note=55, velocity=112, time=0),
    Message('note_on', channel=0, note=43, velocity=0, time=227),
    Message('note_on', channel=0, note=55, velocity=0, time=0),
    Message('note_on', channel=0, note=41, velocity=112, time=13),
    Message('note_on', channel=0, note=48, velocity=112, time=0),
    Message('note_on', channel=0, note=53, velocity=112, time=0),
    Message('control_change', channel=0, control=64, value=0, time=1),
    Message('control_change', channel=0, control=64, value=127, time=1),
    Message('note_on', channel=0, note=41, velocity=0, time=453),
    Message('note_on', channel=0, note=48, velocity=0, time=0),
    Message('note_on', channel=0, note=53, velocity=0, time=0),
    Message('note_on', channel=0, note=41, velocity=112, time=25),
    Message('note_on', channel=0, note=41, velocity=0, time=227),
    Message('note_on', channel=0, note=48, velocity=112, time=13),
    Message('note_on', channel=0, note=53, velocity=112, time=0),
    Message('note_on', channel=0, note=48, velocity=0, time=227),
    Message('note_on', channel=0, note=53, velocity=0, time=0),
    Message('note_on', channel=0, note=41, velocity=112, time=253),
    Message('note_on', channel=0, note=41, velocity=0, time=227),
    Message('note_on', channel=0, note=48, velocity=112, time=13),
    Message('note_on', channel=0, note=53, velocity=112, time=0),
    Message('note_on', channel=0, note=48, velocity=0, time=227),
    Message('note_on', channel=0, note=53, velocity=0, time=0),
    Message('note_on', channel=0, note=39, velocity=112, time=13),
    Message('note_on', channel=0, note=51, velocity=112, time=0),
    Message('note_on', channel=0, note=39, velocity=0, time=227),
    Message('note_on', channel=0, note=51, velocity=0, time=0),
    Message('note_on', channel=0, note=38, velocity=112, time=13),
    Message('note_on', channel=0, note=50, velocity=112, time=0),
    Message('control_change', channel=0, control=64, value=0, time=1),
    Message('control_change', channel=0, control=64, value=127, time=1),
    Message('note_on', channel=0, note=38, velocity=0, time=225),
    Message('note_on', channel=0, note=50, velocity=0, time=0),
    Message('note_on', channel=0, note=38, velocity=112, time=13),
    Message('note_on', channel=0, note=38, velocity=0, time=227),
    Message('note_on', channel=0, note=50, velocity=112, time=13),
    Message('note_on', channel=0, note=50, velocity=0, time=227),
    Message('note_on', channel=0, note=38, velocity=112, time=13),
    Message('note_on', channel=0, note=38, velocity=0, time=113),
    Message('note_on', channel=0, note=50, velocity=112, time=7),
    Message('note_on', channel=0, note=50, velocity=0, time=113),
    Message('note_on', channel=0, note=43, velocity=112, time=7),
    Message('note_on', channel=0, note=43, velocity=0, time=227),
    Message('note_on', channel=0, note=50, velocity=112, time=13),
    Message('note_on', channel=0, note=50, velocity=0, time=227),
    Message('note_on', channel=0, note=43, velocity=112, time=13),
    Message('note_on', channel=0, note=43, velocity=0, time=227),
    Message('note_on', channel=0, note=50, velocity=112, time=13),
    Message('note_on', channel=0, note=50, velocity=0, time=227),
    Message('note_on', channel=0, note=36, velocity=112, time=13),
    Message('note_on', channel=0, note=48, velocity=112, time=0),
    Message('control_change', channel=0, control=64, value=0, time=1),
    Message('control_change', channel=0, control=64, value=127, time=1),
    Message('note_on', channel=0, note=36, velocity=0, time=453),
    Message('note_on', channel=0, note=48, velocity=0, time=0),
    Message('note_on', channel=0, note=55, velocity=112, time=25),
    Message('note_on', channel=0, note=55, velocity=0, time=227),
    Message('note_on', channel=0, note=48, velocity=112, time=13),
    Message('note_on', channel=0, note=48, velocity=0, time=455),
    Message('note_on', channel=0, note=48, velocity=112, time=25),
    Message('note_on', channel=0, note=48, velocity=0, time=227),
    Message('note_on', channel=0, note=55, velocity=112, time=13),
    Message('note_on', channel=0, note=55, velocity=0, time=227),
    Message('note_on', channel=0, note=48, velocity=112, time=13),
    Message('note_on', channel=0, note=60, velocity=112, time=0),
    Message('note_on', channel=0, note=48, velocity=0, time=227),
    Message('note_on', channel=0, note=60, velocity=0, time=0),
    Message('note_on', channel=0, note=44, velocity=112, time=13),
    Message('note_on', channel=0, note=56, velocity=112, time=0),
    Message('control_change', channel=0, control=64, value=0, time=1),
    Message('control_change', channel=0, control=64, value=127, time=1),
    Message('note_on', channel=0, note=44, velocity=0, time=453),
    Message('note_on', channel=0, note=56, velocity=0, time=0),
    Message('note_on', channel=0, note=51, velocity=112, time=25),
    Message('note_on', channel=0, note=51, velocity=0, time=227),
    Message('note_on', channel=0, note=44, velocity=112, time=13),
    Message('note_on', channel=0, note=44, velocity=0, time=455),
    Message('note_on', channel=0, note=44, velocity=112, time=25),
    Message('note_on', channel=0, note=44, velocity=0, time=227),
    Message('note_on', channel=0, note=56, velocity=112, time=13),
    Message('note_on', channel=0, note=56, velocity=0, time=227),
    Message('note_on', channel=0, note=55, velocity=112, time=13),
    Message('note_on', channel=0, note=55, velocity=0, time=113),
    Message('note_on', channel=0, note=43, velocity=112, time=7),
    Message('note_on', channel=0, note=43, velocity=0, time=113),
    Message('note_on', channel=0, note=41, velocity=112, time=7),
    Message('note_on', channel=0, note=53, velocity=112, time=0),
    Message('control_change', channel=0, control=64, value=0, time=1),
    Message('control_change', channel=0, control=64, value=127, time=1),
    Message('note_on', channel=0, note=41, velocity=0, time=453),
    Message('note_on', channel=0, note=53, velocity=0, time=0),
    Message('note_on', channel=0, note=48, velocity=112, time=25),
    Message('note_on', channel=0, note=53, velocity=112, time=0),
    Message('note_on', channel=0, note=48, velocity=0, time=227),
    Message('note_on', channel=0, note=53, velocity=0, time=0),
    Message('note_on', channel=0, note=41, velocity=112, time=13),
    Message('note_on', channel=0, note=41, velocity=0, time=455),
    Message('note_on', channel=0, note=41, velocity=112, time=25),
    Message('note_on', channel=0, note=41, velocity=0, time=227),
    Message('note_on', channel=0, note=48, velocity=112, time=13),
    Message('note_on', channel=0, note=53, velocity=112, time=0),
    Message('note_on', channel=0, note=48, velocity=0, time=227),
    Message('note_on', channel=0, note=53, velocity=0, time=0),
    Message('note_on', channel=0, note=41, velocity=112, time=13),
    Message('note_on', channel=0, note=41, velocity=0, time=227),
    Message('note_on', channel=0, note=38, velocity=112, time=13),
    Message('note_on', channel=0, note=50, velocity=112, time=0),
    Message('control_change', channel=0, control=64, value=0, time=1),
    Message('control_change', channel=0, control=64, value=127, time=1),
    Message('note_on', channel=0, note=38, velocity=0, time=453),
    Message('note_on', channel=0, note=50, velocity=0, time=0),
    Message('note_on', channel=0, note=50, velocity=112, time=25),
    Message('note_on', channel=0, note=50, velocity=0, time=227),
    Message('note_on', channel=0, note=38, velocity=112, time=13),
    Message('note_on', channel=0, note=38, velocity=0, time=113),
    Message('note_on', channel=0, note=50, velocity=112, time=7),
    Message('note_on', channel=0, note=50, velocity=0, time=113),
    Message('note_on', channel=0, note=43, velocity=112, time=7),
    Message('note_on', channel=0, note=43, velocity=0, time=227),
    Message('note_on', channel=0, note=50, velocity=112, time=13),
    Message('note_on', channel=0, note=50, velocity=0, time=227),
    Message('note_on', channel=0, note=43, velocity=112, time=13),
    Message('note_on', channel=0, note=43, velocity=0, time=227),
    Message('note_on', channel=0, note=50, velocity=112, time=13),
    Message('note_on', channel=0, note=50, velocity=0, time=227),
    Message('note_on', channel=0, note=36, velocity=112, time=13),
    Message('note_on', channel=0, note=43, velocity=112, time=0),
    Message('note_on', channel=0, note=48, velocity=112, time=0),
    Message('control_change', channel=0, control=64, value=0, time=1),
    Message('control_change', channel=0, control=64, value=127, time=1),
    Message('note_on', channel=0, note=36, velocity=0, time=453),
    Message('note_on', channel=0, note=43, velocity=0, time=0),
    Message('note_on', channel=0, note=48, velocity=0, time=0),
    Message('note_on', channel=0, note=48, velocity=112, time=25),
    Message('note_on', channel=0, note=48, velocity=0, time=227),
    Message('note_on', channel=0, note=36, velocity=112, time=13),
    Message('note_on', channel=0, note=36, velocity=0, time=455),
    Message('note_on', channel=0, note=36, velocity=112, time=25),
    Message('note_on', channel=0, note=36, velocity=0, time=227),
    Message('note_on', channel=0, note=48, velocity=112, time=13),
    Message('note_on', channel=0, note=48, velocity=0, time=227),
    Message('note_on', channel=0, note=36, velocity=112, time=13),
    Message('note_on', channel=0, note=48, velocity=112, time=0),
    Message('note_on', channel=0, note=36, velocity=0, time=227),
    Message('note_on', channel=0, note=48, velocity=0, time=0),
    Message('note_on', channel=0, note=32, velocity=112, time=13),
    Message('note_on', channel=0, note=44, velocity=112, time=0),
    Message('control_change', channel=0, control=64, value=0, time=1),
    Message('control_change', channel=0, control=64, value=127, time=1),
    Message('note_on', channel=0, note=32, velocity=0, time=453),
    Message('note_on', channel=0, note=44, velocity=0, time=0),
    Message('note_on', channel=0, note=44, velocity=112, time=25),
    Message('note_on', channel=0, note=44, velocity=0, time=227),
    Message('note_on', channel=0, note=32, velocity=112, time=13),
    Message('note_on', channel=0, note=32, velocity=0, time=455),
    Message('note_on', channel=0, note=32, velocity=112, time=25),
    Message('note_on', channel=0, note=32, velocity=0, time=227),
    Message('note_on', channel=0, note=44, velocity=112, time=13),
    Message('note_on', channel=0, note=44, velocity=0, time=227),
    Message('note_on', channel=0, note=32, velocity=112, time=13),
    Message('note_on', channel=0, note=44, velocity=112, time=0),
    Message('note_on', channel=0, note=32, velocity=0, time=227),
    Message('note_on', channel=0, note=44, velocity=0, time=0),
    Message('note_on', channel=0, note=38, velocity=112, time=13),
    Message('note_on', channel=0, note=50, velocity=112, time=0),
    Message('control_change', channel=0, control=64, value=0, time=1),
    Message('control_change', channel=0, control=64, value=127, time=1),
    Message('note_on', channel=0, note=38, velocity=0, time=453),
    Message('note_on', channel=0, note=50, velocity=0, time=0),
    Message('note_on', channel=0, note=50, velocity=112, time=25),
    Message('note_on', channel=0, note=50, velocity=0, time=227),
    Message('note_on', channel=0, note=38, velocity=112, time=13),
    Message('note_on', channel=0, note=38, velocity=0, time=455),
    Message('note_on', channel=0, note=38, velocity=112, time=25),
    Message('note_on', channel=0, note=38, velocity=0, time=227),
    Message('note_on', channel=0, note=50, velocity=112, time=13),
    Message('note_on', channel=0, note=50, velocity=0, time=455),
    Message('note_on', channel=0, note=47, velocity=112, time=25),
    Message('note_on', channel=0, note=50, velocity=112, time=0),
    Message('control_change', channel=0, control=64, value=0, time=1),
    Message('note_on', channel=0, note=47, velocity=0, time=1822),
    Message('note_on', channel=0, note=50, velocity=0, time=0),
    Message('note_on', channel=0, note=43, velocity=112, time=97),
    Message('note_on', channel=0, note=43, velocity=0, time=1823),
    Message('note_on', channel=0, note=36, velocity=112, time=97),
    Message('note_on', channel=0, note=43, velocity=112, time=0),
    Message('note_on', channel=0, note=48, velocity=112, time=0),
    Message('note_on', channel=0, note=36, velocity=0, time=3647),
    Message('note_on', channel=0, note=43, velocity=0, time=0),
    Message('note_on', channel=0, note=48, velocity=0, time=0),
    MetaMessage('end_of_track', time=1)])
])
