MidiFile(type=1, ticks_per_beat=192, tracks=[
  MidiTrack([
    MetaMessage('text', text='Creep', time=0),
    MetaMessage('text', text='By Stone Temple Pilots', time=0),
    MetaMessage('copyright', text='Copyright © 1996 Matt McNeely\rAll Rights Reserved', time=0),
    MetaMessage('text', text='Generated by NoteWorthy 1.0', time=0),
    MetaMessage('key_signature', key='G', time=0),
    MetaMessage('time_signature', numerator=4, denominator=4, clocks_per_click=24, notated_32nd_notes_per_beat=8, time=0),
    MetaMessage('set_tempo', tempo=1000000, time=0),
    MetaMessage('end_of_track', time=0)]),
  MidiTrack([
    MetaMessage('midi_port', port=0, time=0),
    MetaMessage('text', text='Dean (Acoustic)', time=0),
    MetaMessage('track_name', name='Dean (Acoustic)', time=0),
    MetaMessage('instrument_name', name='Dean (Acoustic)', time=0),
    Message('program_change', channel=0, program=25, time=0),
    Message('control_change', channel=0, control=7, value=127, time=0),
    Message('control_change', channel=0, control=10, value=64, time=0),
    Message('control_change', channel=0, control=64, value=127, time=0),
    Message('note_on', channel=0, note=48, velocity=110, time=0),
    Message('note_on', channel=0, note=52, velocity=110, time=0),
    Message('note_on', channel=0, note=55, velocity=110, time=0),
    Message('note_on', channel=0, note=60, velocity=110, time=0),
    Message('note_on', channel=0, note=64, velocity=110, time=0),
    Message('note_on', channel=0, note=48, velocity=0, time=190),
    Message('note_on', channel=0, note=52, velocity=0, time=0),
    Message('note_on', channel=0, note=55, velocity=0, time=0),
    Message('note_on', channel=0, note=60, velocity=0, time=0),
    Message('note_on', channel=0, note=64, velocity=0, time=0),
    Message('note_on', channel=0, note=48, velocity=110, time=2),
    Message('note_on', channel=0, note=52, velocity=110, time=0),
    Message('note_on', channel=0, note=55, velocity=110, time=0),
    Message('note_on', channel=0, note=60, velocity=110, time=0),
    Message('note_on', channel=0, note=64, velocity=110, time=0),
    Message('note_on', channel=0, note=48, velocity=0, time=142),
    Message('note_on', channel=0, note=52, velocity=0, time=0),
    Message('note_on', channel=0, note=55, velocity=0, time=0),
    Message('note_on', channel=0, note=60, velocity=0, time=0),
    Message('note_on', channel=0, note=64, velocity=0, time=0),
    Message('note_on', channel=0, note=48, velocity=110, time=2),
    Message('note_on', channel=0, note=52, velocity=110, time=0),
    Message('note_on', channel=0, note=55, velocity=110, time=0),
    Message('note_on', channel=0, note=60, velocity=110, time=0),
    Message('note_on', channel=0, note=64, velocity=110, time=0),
    Message('note_on', channel=0, note=48, velocity=0, time=46),
    Message('note_on', channel=0, note=52, velocity=0, time=0),
    Message('note_on', channel=0, note=55, velocity=0, time=0),
    Message('note_on', channel=0, note=60, velocity=0, time=0),
    Message('note_on', channel=0, note=64, velocity=0, time=0),
    Message('control_change', channel=0, control=64, value=0, time=2),
    Message('control_change', channel=0, control=64, value=127, time=48),
    Message('note_on', channel=0, note=47, velocity=110, time=0),
    Message('note_on', channel=0, note=51, velocity=110, time=0),
    Message('note_on', channel=0, note=57, velocity=110, time=0),
    Message('note_on', channel=0, note=59, velocity=110, time=0),
    Message('note_on', channel=0, note=66, velocity=110, time=0),
    Message('note_on', channel=0, note=47, velocity=0, time=46),
    Message('note_on', channel=0, note=51, velocity=0, time=0),
    Message('note_on', channel=0, note=57, velocity=0, time=0),
    Message('note_on', channel=0, note=59, velocity=0, time=0),
    Message('note_on', channel=0, note=66, velocity=0, time=0),
    Message('note_on', channel=0, note=47, velocity=110, time=2),
    Message('note_on', channel=0, note=51, velocity=110, time=0),
    Message('note_on', channel=0, note=57, velocity=110, time=0),
    Message('note_on', channel=0, note=59, velocity=110, time=0),
    Message('note_on', channel=0, note=66, velocity=110, time=0),
    Message('note_on', channel=0, note=47, velocity=0, time=94),
    Message('note_on', channel=0, note=51, velocity=0, time=0),
    Message('note_on', channel=0, note=57, velocity=0, time=0),
    Message('note_on', channel=0, note=59, velocity=0, time=0),
    Message('note_on', channel=0, note=66, velocity=0, time=0),
    Message('note_on', channel=0, note=47, velocity=110, time=2),
    Message('note_on', channel=0, note=51, velocity=110, time=0),
    Message('note_on', channel=0, note=57, velocity=110, time=0),
    Message('note_on', channel=0, note=59, velocity=110, time=0),
    Message('note_on', channel=0, note=66, velocity=110, time=0),
    Message('note_on', channel=0, note=47, velocity=0, time=142),
    Message('note_on', channel=0, note=51, velocity=0, time=0),
    Message('note_on', channel=0, note=57, velocity=0, time=0),
    Message('note_on', channel=0, note=59, velocity=0, time=0),
    Message('note_on', channel=0, note=66, velocity=0, time=0),
    Message('control_change', channel=0, control=64, value=0, time=2),
    Message('control_change', channel=0, control=64, value=127, time=0),
    Message('note_on', channel=0, note=64, velocity=110, time=0),
    Message('note_on', channel=0, note=64, velocity=0, time=10),
    Message('note_on', channel=0, note=59, velocity=110, time=2),
    Message('note_on', channel=0, note=59, velocity=0, time=10),
    Message('note_on', channel=0, note=55, velocity=110, time=2),
    Message('note_on', channel=0, note=55, velocity=0, time=10),
    Message('note_on', channel=0, note=52, velocity=110, time=2),
    Message('note_on', channel=0, note=52, velocity=0, time=10),
    Message('note_on', channel=0, note=40, velocity=110, time=2),
    Message('note_on', channel=0, note=47, velocity=110, time=0),
    Message('note_on', channel=0, note=40, velocity=0, time=190),
    Message('note_on', channel=0, note=47, velocity=0, time=0),
    Message('control_change', channel=0, control=64, value=0, time=2),
    Message('note_on', channel=0, note=40, velocity=110, time=0),
    Message('note_on', channel=0, note=47, velocity=110, time=0),
    Message('note_on', channel=0, note=52, velocity=110, time=0),
    Message('note_on', channel=0, note=55, velocity=110, time=0),
    Message('note_on', channel=0, note=62, velocity=110, time=0),
    Message('note_on', channel=0, note=67, velocity=110, time=0),
    Message('note_on', channel=0, note=40, velocity=0, time=142),
    Message('note_on', channel=0, note=47, velocity=0, time=0),
    Message('note_on', channel=0, note=52, velocity=0, time=0),
    Message('note_on', channel=0, note=55, velocity=0, time=0),
    Message('note_on', channel=0, note=62, velocity=0, time=0),
    Message('note_on', channel=0, note=67, velocity=0, time=0),
    Message('note_on', channel=0, note=40, velocity=110, time=2),
    Message('note_on', channel=0, note=47, velocity=110, time=0),
    Message('note_on', channel=0, note=52, velocity=110, time=0),
    Message('note_on', channel=0, note=55, velocity=110, time=0),
    Message('note_on', channel=0, note=62, velocity=110, time=0),
    Message('note_on', channel=0, note=67, velocity=110, time=0),
    Message('note_on', channel=0, note=40, velocity=0, time=46),
    Message('note_on', channel=0, note=47, velocity=0, time=0),
    Message('note_on', channel=0, note=52, velocity=0, time=0),
    Message('note_on', channel=0, note=55, velocity=0, time=0),
    Message('note_on', channel=0, note=62, velocity=0, time=0),
    Message('note_on', channel=0, note=67, velocity=0, time=0),
    Message('note_on', channel=0, note=40, velocity=110, time=50),
    Message('note_on', channel=0, note=47, velocity=110, time=0),
    Message('note_on', channel=0, note=52, velocity=110, time=0),
    Message('note_on', channel=0, note=55, velocity=110, time=0),
    Message('note_on', channel=0, note=62, velocity=110, time=0),
    Message('note_on', channel=0, note=67, velocity=110, time=0),
    Message('note_on', channel=0, note=40, velocity=0, time=46),
    Message('note_on', channel=0, note=47, velocity=0, time=0),
    Message('note_on', channel=0, note=52, velocity=0, time=0),
    Message('note_on', channel=0, note=55, velocity=0, time=0),
    Message('note_on', channel=0, note=62, velocity=0, time=0),
    Message('note_on', channel=0, note=67, velocity=0, time=0),
    Message('note_on', channel=0, note=40, velocity=110, time=2),
    Message('note_on', channel=0, note=47, velocity=110, time=0),
    Message('note_on', channel=0, note=52, velocity=110, time=0),
    Message('note_on', channel=0, note=55, velocity=110, time=0),
    Message('note_on', channel=0, note=62, velocity=110, time=0),
    Message('note_on', channel=0, note=67, velocity=110, time=0),
    Message('note_on', channel=0, note=40, velocity=0, time=142),
    Message('note_on', channel=0, note=47, velocity=0, time=0),
    Message('note_on', channel=0, note=52, velocity=0, time=0),
    Message('note_on', channel=0, note=55, velocity=0, time=0),
    Message('note_on', channel=0, note=62, velocity=0, time=0),
    Message('note_on', channel=0, note=67, velocity=0, time=0),
    Message('note_on', channel=0, note=40, velocity=110, time=2),
    Message('note_on', channel=0, note=47, velocity=110, time=0),
    Message('note_on', channel=0, note=52, velocity=110, time=0),
    Message('note_on', channel=0, note=55, velocity=110, time=0),
    Message('note_on', channel=0, note=62, velocity=110, time=0),
    Message('note_on', channel=0, note=67, velocity=110, time=0),
    Message('note_on', channel=0, note=40, velocity=0, time=46),
    Message('note_on', channel=0, note=47, velocity=0, time=0),
    Message('note_on', channel=0, note=52, velocity=0, time=0),
    Message('note_on', channel=0, note=55, velocity=0, time=0),
    Message('note_on', channel=0, note=62, velocity=0, time=0),
    Message('note_on', channel=0, note=67, velocity=0, time=0),
    Message('note_on', channel=0, note=40, velocity=110, time=2),
    Message('note_on', channel=0, note=47, velocity=110, time=0),
    Message('note_on', channel=0, note=52, velocity=110, time=0),
    Message('note_on', channel=0, note=55, velocity=110, time=0),
    Message('note_on', channel=0, note=62, velocity=110, time=0),
    Message('note_on', channel=0, note=67, velocity=110, time=0),
    Message('note_on', channel=0, note=40, velocity=0, time=46),
    Message('note_on', channel=0, note=47, velocity=0, time=0),
    Message('note_on', channel=0, note=52, velocity=0, time=0),
    Message('note_on', channel=0, note=55, velocity=0, time=0),
    Message('note_on', channel=0, note=62, velocity=0, time=0),
    Message('note_on', channel=0, note=67, velocity=0, time=0),
    Message('note_on', channel=0, note=40, velocity=110, time=2),
    Message('note_on', channel=0, note=47, velocity=110, time=0),
    Message('note_on', channel=0, note=52, velocity=110, time=0),
    Message('note_on', channel=0, note=55, velocity=110, time=0),
    Message('note_on', channel=0, note=62, velocity=110, time=0),
    Message('note_on', channel=0, note=67, velocity=110, time=0),
    Message('note_on', channel=0, note=40, velocity=0, time=46),
    Message('note_on', channel=0, note=47, velocity=0, time=0),
    Message('note_on', channel=0, note=52, velocity=0, time=0),
    Message('note_on', channel=0, note=55, velocity=0, time=0),
    Message('note_on', channel=0, note=62, velocity=0, time=0),
    Message('note_on', channel=0, note=67, velocity=0, time=0),
    Message('control_change', channel=0, control=64, value=127, time=2),
    Message('note_on', channel=0, note=40, velocity=110, time=0),
    Message('note_on', channel=0, note=47, velocity=110, time=0),
    Message('note_on', channel=0, note=52, velocity=110, time=0),
    Message('note_on', channel=0, note=55, velocity=110, time=0),
    Message('note_on', channel=0, note=62, velocity=110, time=0),
    Message('note_on', channel=0, note=67, velocity=110, time=0),
    Message('note_on', channel=0, note=40, velocity=0, time=94),
    Message('note_on', channel=0, note=47, velocity=0, time=0),
    Message('note_on', channel=0, note=52, velocity=0, time=0),
    Message('note_on', channel=0, note=55, velocity=0, time=0),
    Message('note_on', channel=0, note=62, velocity=0, time=0),
    Message('note_on', channel=0, note=67, velocity=0, time=0),
    Message('note_on', channel=0, note=40, velocity=110, time=2),
    Message('note_on', channel=0, note=47, velocity=110, time=0),
    Message('note_on', channel=0, note=40, velocity=0, time=94),
    Message('note_on', channel=0, note=47, velocity=0, time=0),
    Message('control_change', channel=0, control=64, value=0, time=2),
    Message('note_on', channel=0, note=40, velocity=110, time=0),
    Message('note_on', channel=0, note=47, velocity=110, time=0),
    Message('note_on', channel=0, note=52, velocity=110, time=0),
    Message('note_on', channel=0, note=55, velocity=110, time=0),
    Message('note_on', channel=0, note=62, velocity=110, time=0),
    Message('note_on', channel=0, note=67, velocity=110, time=0),
    Message('note_on', channel=0, note=40, velocity=0, time=142),
    Message('note_on', channel=0, note=47, velocity=0, time=0),
    Message('note_on', channel=0, note=52, velocity=0, time=0),
    Message('note_on', channel=0, note=55, velocity=0, time=0),
    Message('note_on', channel=0, note=62, velocity=0, time=0),
    Message('note_on', channel=0, note=67, velocity=0, time=0),
    Message('note_on', channel=0, note=40, velocity=110, time=2),
    Message('note_on', channel=0, note=47, velocity=110, time=0),
    Message('note_on', channel=0, note=52, velocity=110, time=0),
    Message('note_on', channel=0, note=55, velocity=110, time=0),
    Message('note_on', channel=0, note=62, velocity=110, time=0),
    Message('note_on', channel=0, note=67, velocity=110, time=0),
    Message('note_on', channel=0, note=40, velocity=0, time=46),
    Message('note_on', channel=0, note=47, velocity=0, time=0),
    Message('note_on', channel=0, note=52, velocity=0, time=0),
    Message('note_on', channel=0, note=55, velocity=0, time=0),
    Message('note_on', channel=0, note=62, velocity=0, time=0),
    Message('note_on', channel=0, note=67, velocity=0, time=0),
    Message('note_on', channel=0, note=40, velocity=110, time=50),
    Message('note_on', channel=0, note=47, velocity=110, time=0),
    Message('note_on', channel=0, note=52, velocity=110, time=0),
    Message('note_on', channel=0, note=55, velocity=110, time=0),
    Message('note_on', channel=0, note=62, velocity=110, time=0),
    Message('note_on', channel=0, note=67, velocity=110, time=0),
    Message('note_on', channel=0, note=40, velocity=0, time=46),
    Message('note_on', channel=0, note=47, velocity=0, time=0),
    Message('note_on', channel=0, note=52, velocity=0, time=0),
    Message('note_on', channel=0, note=55, velocity=0, time=0),
    Message('note_on', channel=0, note=62, velocity=0, time=0),
    Message('note_on', channel=0, note=67, velocity=0, time=0),
    Message('note_on', channel=0, note=40, velocity=110, time=2),
    Message('note_on', channel=0, note=47, velocity=110, time=0),
    Message('note_on', channel=0, note=52, velocity=110, time=0),
    Message('note_on', channel=0, note=55, velocity=110, time=0),
    Message('note_on', channel=0, note=62, velocity=110, time=0),
    Message('note_on', channel=0, note=67, velocity=110, time=0),
    Message('note_on', channel=0, note=40, velocity=0, time=142),
    Message('note_on', channel=0, note=47, velocity=0, time=0),
    Message('note_on', channel=0, note=52, velocity=0, time=0),
    Message('note_on', channel=0, note=55, velocity=0, time=0),
    Message('note_on', channel=0, note=62, velocity=0, time=0),
    Message('note_on', channel=0, note=67, velocity=0, time=0),
    Message('note_on', channel=0, note=40, velocity=110, time=2),
    Message('note_on', channel=0, note=47, velocity=110, time=0),
    Message('note_on', channel=0, note=52, velocity=110, time=0),
    Message('note_on', channel=0, note=55, velocity=110, time=0),
    Message('note_on', channel=0, note=62, velocity=110, time=0),
    Message('note_on', channel=0, note=67, velocity=110, time=0),
    Message('note_on', channel=0, note=40, velocity=0, time=46),
    Message('note_on', channel=0, note=47, velocity=0, time=0),
    Message('note_on', channel=0, note=52, velocity=0, time=0),
    Message('note_on', channel=0, note=55, velocity=0, time=0),
    Message('note_on', channel=0, note=62, velocity=0, time=0),
    Message('note_on', channel=0, note=67, velocity=0, time=0),
    Message('note_on', channel=0, note=40, velocity=110, time=2),
    Message('note_on', channel=0, note=47, velocity=110, time=0),
    Message('note_on', channel=0, note=52, velocity=110, time=0),
    Message('note_on', channel=0, note=55, velocity=110, time=0),
    Message('note_on', channel=0, note=62, velocity=110, time=0),
    Message('note_on', channel=0, note=67, velocity=110, time=0),
    Message('note_on', channel=0, note=40, velocity=0, time=46),
    Message('note_on', channel=0, note=47, velocity=0, time=0),
    Message('note_on', channel=0, note=52, velocity=0, time=0),
    Message('note_on', channel=0, note=55, velocity=0, time=0),
    Message('note_on', channel=0, note=62, velocity=0, time=0),
    Message('note_on', channel=0, note=67, velocity=0, time=0),
    Message('note_on', channel=0, note=50, velocity=110, time=2),
    Message('note_on', channel=0, note=55, velocity=110, time=0),
    Message('note_on', channel=0, note=59, velocity=110, time=0),
    Message('note_on', channel=0, note=64, velocity=110, time=0),
    Message('note_on', channel=0, note=50, velocity=0, time=46),
    Message('note_on', channel=0, note=55, velocity=0, time=0),
    Message('note_on', channel=0, note=59, velocity=0, time=0),
    Message('note_on', channel=0, note=64, velocity=0, time=0),
    Message('note_on', channel=0, note=48, velocity=110, time=2),
    Message('note_on', channel=0, note=52, velocity=110, time=0),
    Message('note_on', channel=0, note=55, velocity=110, time=0),
    Message('note_on', channel=0, note=60, velocity=110, time=0),
    Message('note_on', channel=0, note=64, velocity=110, time=0),
    Message('note_on', channel=0, note=48, velocity=0, time=190),
    Message('note_on', channel=0, note=52, velocity=0, time=0),
    Message('note_on', channel=0, note=55, velocity=0, time=0),
    Message('note_on', channel=0, note=60, velocity=0, time=0),
    Message('note_on', channel=0, note=64, velocity=0, time=0),
    Message('note_on', channel=0, note=48, velocity=110, time=2),
    Message('note_on', channel=0, note=52, velocity=110, time=0),
    Message('note_on', channel=0, note=55, velocity=110, time=0),
    Message('note_on', channel=0, note=60, velocity=110, time=0),
    Message('note_on', channel=0, note=64, velocity=110, time=0),
    Message('note_on', channel=0, note=48, velocity=0, time=142),
    Message('note_on', channel=0, note=52, velocity=0, time=0),
    Message('note_on', channel=0, note=55, velocity=0, time=0),
    Message('note_on', channel=0, note=60, velocity=0, time=0),
    Message('note_on', channel=0, note=64, velocity=0, time=0),
    Message('note_on', channel=0, note=48, velocity=110, time=2),
    Message('note_on', channel=0, note=52, velocity=110, time=0),
    Message('note_on', channel=0, note=55, velocity=110, time=0),
    Message('note_on', channel=0, note=60, velocity=110, time=0),
    Message('note_on', channel=0, note=64, velocity=110, time=0),
    Message('note_on', channel=0, note=48, velocity=0, time=46),
    Message('note_on', channel=0, note=52, velocity=0, time=0),
    Message('note_on', channel=0, note=55, velocity=0, time=0),
    Message('note_on', channel=0, note=60, velocity=0, time=0),
    Message('note_on', channel=0, note=64, velocity=0, time=0),
    Message('note_on', channel=0, note=47, velocity=110, time=50),
    Message('note_on', channel=0, note=51, velocity=110, time=0),
    Message('note_on', channel=0, note=57, velocity=110, time=0),
    Message('note_on', channel=0, note=59, velocity=110, time=0),
    Message('note_on', channel=0, note=66, velocity=110, time=0),
    Message('note_on', channel=0, note=47, velocity=0, time=46),
    Message('note_on', channel=0, note=51, velocity=0, time=0),
    Message('note_on', channel=0, note=57, velocity=0, time=0),
    Message('note_on', channel=0, note=59, velocity=0, time=0),
    Message('note_on', channel=0, note=66, velocity=0, time=0),
    Message('note_on', channel=0, note=47, velocity=110, time=2),
    Message('note_on', channel=0, note=51, velocity=110, time=0),
    Message('note_on', channel=0, note=57, velocity=110, time=0),
    Message('note_on', channel=0, note=59, velocity=110, time=0),
    Message('note_on', channel=0, note=66, velocity=110, time=0),
    Message('note_on', channel=0, note=47, velocity=0, time=94),
    Message('note_on', channel=0, note=51, velocity=0, time=0),
    Message('note_on', channel=0, note=57, velocity=0, time=0),
    Message('note_on', channel=0, note=59, velocity=0, time=0),
    Message('note_on', channel=0, note=66, velocity=0, time=0),
    Message('note_on', channel=0, note=47, velocity=110, time=2),
    Message('note_on', channel=0, note=51, velocity=110, time=0),
    Message('note_on', channel=0, note=57, velocity=110, time=0),
    Message('note_on', channel=0, note=59, velocity=110, time=0),
    Message('note_on', channel=0, note=66, velocity=110, time=0),
    Message('note_on', channel=0, note=47, velocity=0, time=142),
    Message('note_on', channel=0, note=51, velocity=0, time=0),
    Message('note_on', channel=0, note=57, velocity=0, time=0),
    Message('note_on', channel=0, note=59, velocity=0, time=0),
    Message('note_on', channel=0, note=66, velocity=0, time=0),
    Message('control_change', channel=0, control=64, value=127, time=2),
    Message('note_on', channel=0, note=67, velocity=110, time=0),
    Message('note_on', channel=0, note=67, velocity=0, time=10),
    Message('note_on', channel=0, note=63, velocity=110, time=2),
    Message('note_on', channel=0, note=63, velocity=0, time=10),
    Message('note_on', channel=0, note=55, velocity=110, time=2),
    Message('note_on', channel=0, note=55, velocity=0, time=10),
    Message('note_on', channel=0, note=52, velocity=110, time=2),
    Message('note_on', channel=0, note=52, velocity=0, time=10),
    Message('note_on', channel=0, note=40, velocity=110, time=2),
    Message('note_on', channel=0, note=47, velocity=110, time=0),
    Message('note_on', channel=0, note=40, velocity=0, time=720),
    Message('note_on', channel=0, note=47, velocity=0, time=0),
    Message('control_change', channel=0, control=64, value=0, time=48),
    Message('note_on', channel=0, note=40, velocity=110, time=0),
    Message('note_on', channel=0, note=47, velocity=110, time=0),
    Message('note_on', channel=0, note=52, velocity=110, time=0),
    Message('note_on', channel=0, note=55, velocity=110, time=0),
    Message('note_on', channel=0, note=62, velocity=110, time=0),
    Message('note_on', channel=0, note=67, velocity=110, time=0),
    Message('note_on', channel=0, note=40, velocity=0, time=190),
    Message('note_on', channel=0, note=47, velocity=0, time=0),
    Message('note_on', channel=0, note=52, velocity=0, time=0),
    Message('note_on', channel=0, note=55, velocity=0, time=0),
    Message('note_on', channel=0, note=62, velocity=0, time=0),
    Message('note_on', channel=0, note=67, velocity=0, time=0),
    Message('note_on', channel=0, note=40, velocity=110, time=2),
    Message('note_on', channel=0, note=47, velocity=110, time=0),
    Message('note_on', channel=0, note=52, velocity=110, time=0),
    Message('note_on', channel=0, note=55, velocity=110, time=0),
    Message('note_on', channel=0, note=62, velocity=110, time=0),
    Message('note_on', channel=0, note=67, velocity=110, time=0),
    Message('note_on', channel=0, note=40, velocity=0, time=142),
    Message('note_on', channel=0, note=47, velocity=0, time=0),
    Message('note_on', channel=0, note=52, velocity=0, time=0),
    Message('note_on', channel=0, note=55, velocity=0, time=0),
    Message('note_on', channel=0, note=62, velocity=0, time=0),
    Message('note_on', channel=0, note=67, velocity=0, time=0),
    Message('note_on', channel=0, note=40, velocity=110, time=2),
    Message('note_on', channel=0, note=47, velocity=110, time=0),
    Message('note_on', channel=0, note=52, velocity=110, time=0),
    Message('note_on', channel=0, note=55, velocity=110, time=0),
    Message('note_on', channel=0, note=62, velocity=110, time=0),
    Message('note_on', channel=0, note=67, velocity=110, time=0),
    Message('note_on', channel=0, note=40, velocity=0, time=46),
    Message('note_on', channel=0, note=47, velocity=0, time=0),
    Message('note_on', channel=0, note=52, velocity=0, time=0),
    Message('note_on', channel=0, note=55, velocity=0, time=0),
    Message('note_on', channel=0, note=62, velocity=0, time=0),
    Message('note_on', channel=0, note=67, velocity=0, time=0),
    Message('note_on', channel=0, note=40, velocity=110, time=50),
    Message('note_on', channel=0, note=47, velocity=110, time=0),
    Message('note_on', channel=0, note=52, velocity=110, time=0),
    Message('note_on', channel=0, note=55, velocity=110, time=0),
    Message('note_on', channel=0, note=62, velocity=110, time=0),
    Message('note_on', channel=0, note=67, velocity=110, time=0),
    Message('note_on', channel=0, note=40, velocity=0, time=46),
    Message('note_on', channel=0, note=47, velocity=0, time=0),
    Message('note_on', channel=0, note=52, velocity=0, time=0),
    Message('note_on', channel=0, note=55, velocity=0, time=0),
    Message('note_on', channel=0, note=62, velocity=0, time=0),
    Message('note_on', channel=0, note=67, velocity=0, time=0),
    Message('note_on', channel=0, note=40, velocity=110, time=2),
    Message('note_on', channel=0, note=47, velocity=110, time=0),
    Message('note_on', channel=0, note=52, velocity=110, time=0),
    Message('note_on', channel=0, note=55, velocity=110, time=0),
    Message('note_on', channel=0, note=62, velocity=110, time=0),
    Message('note_on', channel=0, note=67, velocity=110, time=0),
    Message('note_on', channel=0, note=40, velocity=0, time=142),
    Message('note_on', channel=0, note=47, velocity=0, time=0),
    Message('note_on', channel=0, note=52, velocity=0, time=0),
    Message('note_on', channel=0, note=55, velocity=0, time=0),
    Message('note_on', channel=0, note=62, velocity=0, time=0),
    Message('note_on', channel=0, note=67, velocity=0, time=0),
    Message('note_on', channel=0, note=40, velocity=110, time=2),
    Message('note_on', channel=0, note=47, velocity=110, time=0),
    Message('note_on', channel=0, note=52, velocity=110, time=0),
    Message('note_on', channel=0, note=55, velocity=110, time=0),
    Message('note_on', channel=0, note=62, velocity=110, time=0),
    Message('note_on', channel=0, note=67, velocity=110, time=0),
    Message('note_on', channel=0, note=40, velocity=0, time=46),
    Message('note_on', channel=0, note=47, velocity=0, time=0),
    Message('note_on', channel=0, note=52, velocity=0, time=0),
    Message('note_on', channel=0, note=55, velocity=0, time=0),
    Message('note_on', channel=0, note=62, velocity=0, time=0),
    Message('note_on', channel=0, note=67, velocity=0, time=0),
    Message('note_on', channel=0, note=40, velocity=110, time=2),
    Message('note_on', channel=0, note=47, velocity=110, time=0),
    Message('note_on', channel=0, note=52, velocity=110, time=0),
    Message('note_on', channel=0, note=55, velocity=110, time=0),
    Message('note_on', channel=0, note=62, velocity=110, time=0),
    Message('note_on', channel=0, note=67, velocity=110, time=0),
    Message('note_on', channel=0, note=40, velocity=0, time=46),
    Message('note_on', channel=0, note=47, velocity=0, time=0),
    Message('note_on', channel=0, note=52, velocity=0, time=0),
    Message('note_on', channel=0, note=55, velocity=0, time=0),
    Message('note_on', channel=0, note=62, velocity=0, time=0),
    Message('note_on', channel=0, note=67, velocity=0, time=0),
    Message('note_on', channel=0, note=50, velocity=110, time=2),
    Message('note_on', channel=0, note=55, velocity=110, time=0),
    Message('note_on', channel=0, note=59, velocity=110, time=0),
    Message('note_on', channel=0, note=64, velocity=110, time=0),
    Message('note_on', channel=0, note=50, velocity=0, time=46),
    Message('note_on', channel=0, note=55, velocity=0, time=0),
    Message('note_on', channel=0, note=59, velocity=0, time=0),
    Message('note_on', channel=0, note=64, velocity=0, time=0),
    Message('note_on', channel=0, note=48, velocity=110, time=2),
    Message('note_on', channel=0, note=52, velocity=110, time=0),
    Message('note_on', channel=0, note=55, velocity=110, time=0),
    Message('note_on', channel=0, note=60, velocity=110, time=0),
    Message('note_on', channel=0, note=64, velocity=110, time=0),
    Message('note_on', channel=0, note=48, velocity=0, time=190),
    Message('note_on', channel=0, note=52, velocity=0, time=0),
    Message('note_on', channel=0, note=55, velocity=0, time=0),
    Message('note_on', channel=0, note=60, velocity=0, time=0),
    Message('note_on', channel=0, note=64, velocity=0, time=0),
    Message('note_on', channel=0, note=48, velocity=110, time=2),
    Message('note_on', channel=0, note=52, velocity=110, time=0),
    Message('note_on', channel=0, note=55, velocity=110, time=0),
    Message('note_on', channel=0, note=60, velocity=110, time=0),
    Message('note_on', channel=0, note=64, velocity=110, time=0),
    Message('note_on', channel=0, note=48, velocity=0, time=142),
    Message('note_on', channel=0, note=52, velocity=0, time=0),
    Message('note_on', channel=0, note=55, velocity=0, time=0),
    Message('note_on', channel=0, note=60, velocity=0, time=0),
    Message('note_on', channel=0, note=64, velocity=0, time=0),
    Message('note_on', channel=0, note=48, velocity=110, time=2),
    Message('note_on', channel=0, note=52, velocity=110, time=0),
    Message('note_on', channel=0, note=55, velocity=110, time=0),
    Message('note_on', channel=0, note=60, velocity=110, time=0),
    Message('note_on', channel=0, note=64, velocity=110, time=0),
    Message('note_on', channel=0, note=48, velocity=0, time=46),
    Message('note_on', channel=0, note=52, velocity=0, time=0),
    Message('note_on', channel=0, note=55, velocity=0, time=0),
    Message('note_on', channel=0, note=60, velocity=0, time=0),
    Message('note_on', channel=0, note=64, velocity=0, time=0),
    Message('note_on', channel=0, note=47, velocity=110, time=50),
    Message('note_on', channel=0, note=51, velocity=110, time=0),
    Message('note_on', channel=0, note=57, velocity=110, time=0),
    Message('note_on', channel=0, note=59, velocity=110, time=0),
    Message('note_on', channel=0, note=66, velocity=110, time=0),
    Message('note_on', channel=0, note=47, velocity=0, time=46),
    Message('note_on', channel=0, note=51, velocity=0, time=0),
    Message('note_on', channel=0, note=57, velocity=0, time=0),
    Message('note_on', channel=0, note=59, velocity=0, time=0),
    Message('note_on', channel=0, note=66, velocity=0, time=0),
    Message('note_on', channel=0, note=47, velocity=110, time=2),
    Message('note_on', channel=0, note=51, velocity=110, time=0),
    Message('note_on', channel=0, note=57, velocity=110, time=0),
    Message('note_on', channel=0, note=59, velocity=110, time=0),
    Message('note_on', channel=0, note=66, velocity=110, time=0),
    Message('note_on', channel=0, note=47, velocity=0, time=94),
    Message('note_on', channel=0, note=51, velocity=0, time=0),
    Message('note_on', channel=0, note=57, velocity=0, time=0),
    Message('note_on', channel=0, note=59, velocity=0, time=0),
    Message('note_on', channel=0, note=66, velocity=0, time=0),
    Message('note_on', channel=0, note=47, velocity=110, time=2),
    Message('note_on', channel=0, note=51, velocity=110, time=0),
    Message('note_on', channel=0, note=57, velocity=110, time=0),
    Message('note_on', channel=0, note=59, velocity=110, time=0),
    Message('note_on', channel=0, note=66, velocity=110, time=0),
    Message('note_on', channel=0, note=47, velocity=0, time=190),
    Message('note_on', channel=0, note=51, velocity=0, time=0),
    Message('note_on', channel=0, note=57, velocity=0, time=0),
    Message('note_on', channel=0, note=59, velocity=0, time=0),
    Message('note_on', channel=0, note=66, velocity=0, time=0),
    Message('note_on', channel=0, note=40, velocity=110, time=2),
    Message('note_on', channel=0, note=47, velocity=110, time=0),
    Message('note_on', channel=0, note=52, velocity=110, time=0),
    Message('note_on', channel=0, note=55, velocity=110, time=0),
    Message('note_on', channel=0, note=59, velocity=110, time=0),
    Message('note_on', channel=0, note=64, velocity=110, time=0),
    Message('note_on', channel=0, note=40, velocity=0, time=190),
    Message('note_on', channel=0, note=47, velocity=0, time=0),
    Message('note_on', channel=0, note=52, velocity=0, time=0),
    Message('note_on', channel=0, note=55, velocity=0, time=0),
    Message('note_on', channel=0, note=59, velocity=0, time=0),
    Message('note_on', channel=0, note=64, velocity=0, time=0),
    Message('note_on', channel=0, note=40, velocity=110, time=2),
    Message('note_on', channel=0, note=47, velocity=110, time=0),
    Message('note_on', channel=0, note=52, velocity=110, time=0),
    Message('note_on', channel=0, note=55, velocity=110, time=0),
    Message('note_on', channel=0, note=62, velocity=110, time=0),
    Message('note_on', channel=0, note=67, velocity=110, time=0),
    Message('note_on', channel=0, note=40, velocity=0, time=142),
    Message('note_on', channel=0, note=47, velocity=0, time=0),
    Message('note_on', channel=0, note=52, velocity=0, time=0),
    Message('note_on', channel=0, note=55, velocity=0, time=0),
    Message('note_on', channel=0, note=62, velocity=0, time=0),
    Message('note_on', channel=0, note=67, velocity=0, time=0),
    Message('note_on', channel=0, note=40, velocity=110, time=2),
    Message('note_on', channel=0, note=47, velocity=110, time=0),
    Message('note_on', channel=0, note=52, velocity=110, time=0),
    Message('note_on', channel=0, note=55, velocity=110, time=0),
    Message('note_on', channel=0, note=62, velocity=110, time=0),
    Message('note_on', channel=0, note=67, velocity=110, time=0),
    Message('note_on', channel=0, note=40, velocity=0, time=46),
    Message('note_on', channel=0, note=47, velocity=0, time=0),
    Message('note_on', channel=0, note=52, velocity=0, time=0),
    Message('note_on', channel=0, note=55, velocity=0, time=0),
    Message('note_on', channel=0, note=62, velocity=0, time=0),
    Message('note_on', channel=0, note=67, velocity=0, time=0),
    Message('note_on', channel=0, note=40, velocity=110, time=50),
    Message('note_on', channel=0, note=47, velocity=110, time=0),
    Message('note_on', channel=0, note=52, velocity=110, time=0),
    Message('note_on', channel=0, note=55, velocity=110, time=0),
    Message('note_on', channel=0, note=62, velocity=110, time=0),
    Message('note_on', channel=0, note=67, velocity=110, time=0),
    Message('note_on', channel=0, note=40, velocity=0, time=46),
    Message('note_on', channel=0, note=47, velocity=0, time=0),
    Message('note_on', channel=0, note=52, velocity=0, time=0),
    Message('note_on', channel=0, note=55, velocity=0, time=0),
    Message('note_on', channel=0, note=62, velocity=0, time=0),
    Message('note_on', channel=0, note=67, velocity=0, time=0),
    Message('note_on', channel=0, note=40, velocity=110, time=2),
    Message('note_on', channel=0, note=47, velocity=110, time=0),
    Message('note_on', channel=0, note=52, velocity=110, time=0),
    Message('note_on', channel=0, note=55, velocity=110, time=0),
    Message('note_on', channel=0, note=62, velocity=110, time=0),
    Message('note_on', channel=0, note=67, velocity=110, time=0),
    Message('note_on', channel=0, note=40, velocity=0, time=142),
    Message('note_on', channel=0, note=47, velocity=0, time=0),
    Message('note_on', channel=0, note=52, velocity=0, time=0),
    Message('note_on', channel=0, note=55, velocity=0, time=0),
    Message('note_on', channel=0, note=62, velocity=0, time=0),
    Message('note_on', channel=0, note=67, velocity=0, time=0),
    Message('note_on', channel=0, note=40, velocity=110, time=2),
    Message('note_on', channel=0, note=47, velocity=110, time=0),
    Message('note_on', channel=0, note=52, velocity=110, time=0),
    Message('note_on', channel=0, note=55, velocity=110, time=0),
    Message('note_on', channel=0, note=62, velocity=110, time=0),
    Message('note_on', channel=0, note=67, velocity=110, time=0),
    Message('note_on', channel=0, note=40, velocity=0, time=46),
    Message('note_on', channel=0, note=47, velocity=0, time=0),
    Message('note_on', channel=0, note=52, velocity=0, time=0),
    Message('note_on', channel=0, note=55, velocity=0, time=0),
    Message('note_on', channel=0, note=62, velocity=0, time=0),
    Message('note_on', channel=0, note=67, velocity=0, time=0),
    Message('note_on', channel=0, note=40, velocity=110, time=2),
    Message('note_on', channel=0, note=47, velocity=110, time=0),
    Message('note_on', channel=0, note=52, velocity=110, time=0),
    Message('note_on', channel=0, note=55, velocity=110, time=0),
    Message('note_on', channel=0, note=62, velocity=110, time=0),
    Message('note_on', channel=0, note=67, velocity=110, time=0),
    Message('note_on', channel=0, note=40, velocity=0, time=46),
    Message('note_on', channel=0, note=47, velocity=0, time=0),
    Message('note_on', channel=0, note=52, velocity=0, time=0),
    Message('note_on', channel=0, note=55, velocity=0, time=0),
    Message('note_on', channel=0, note=62, velocity=0, time=0),
    Message('note_on', channel=0, note=67, velocity=0, time=0),
    Message('note_on', channel=0, note=50, velocity=110, time=2),
    Message('note_on', channel=0, note=55, velocity=110, time=0),
    Message('note_on', channel=0, note=59, velocity=110, time=0),
    Message('note_on', channel=0, note=64, velocity=110, time=0),
    Message('note_on', channel=0, note=50, velocity=0, time=46),
    Message('note_on', channel=0, note=55, velocity=0, time=0),
    Message('note_on', channel=0, note=59, velocity=0, time=0),
    Message('note_on', channel=0, note=64, velocity=0, time=0),
    Message('note_on', channel=0, note=48, velocity=110, time=2),
    Message('note_on', channel=0, note=52, velocity=110, time=0),
    Message('note_on', channel=0, note=55, velocity=110, time=0),
    Message('note_on', channel=0, note=60, velocity=110, time=0),
    Message('note_on', channel=0, note=64, velocity=110, time=0),
    Message('note_on', channel=0, note=48, velocity=0, time=190),
    Message('note_on', channel=0, note=52, velocity=0, time=0),
    Message('note_on', channel=0, note=55, velocity=0, time=0),
    Message('note_on', channel=0, note=60, velocity=0, time=0),
    Message('note_on', channel=0, note=64, velocity=0, time=0),
    Message('note_on', channel=0, note=48, velocity=110, time=2),
    Message('note_on', channel=0, note=52, velocity=110, time=0),
    Message('note_on', channel=0, note=55, velocity=110, time=0),
    Message('note_on', channel=0, note=60, velocity=110, time=0),
    Message('note_on', channel=0, note=64, velocity=110, time=0),
    Message('note_on', channel=0, note=48, velocity=0, time=142),
    Message('note_on', channel=0, note=52, velocity=0, time=0),
    Message('note_on', channel=0, note=55, velocity=0, time=0),
    Message('note_on', channel=0, note=60, velocity=0, time=0),
    Message('note_on', channel=0, note=64, velocity=0, time=0),
    Message('note_on', channel=0, note=48, velocity=110, time=2),
    Message('note_on', channel=0, note=52, velocity=110, time=0),
    Message('note_on', channel=0, note=55, velocity=110, time=0),
    Message('note_on', channel=0, note=60, velocity=110, time=0),
    Message('note_on', channel=0, note=64, velocity=110, time=0),
    Message('note_on', channel=0, note=48, velocity=0, time=46),
    Message('note_on', channel=0, note=52, velocity=0, time=0),
    Message('note_on', channel=0, note=55, velocity=0, time=0),
    Message('note_on', channel=0, note=60, velocity=0, time=0),
    Message('note_on', channel=0, note=64, velocity=0, time=0),
    Message('note_on', channel=0, note=47, velocity=110, time=50),
    Message('note_on', channel=0, note=51, velocity=110, time=0),
    Message('note_on', channel=0, note=57, velocity=110, time=0),
    Message('note_on', channel=0, note=59, velocity=110, time=0),
    Message('note_on', channel=0, note=66, velocity=110, time=0),
    Message('note_on', channel=0, note=47, velocity=0, time=46),
    Message('note_on', channel=0, note=51, velocity=0, time=0),
    Message('note_on', channel=0, note=57, velocity=0, time=0),
    Message('note_on', channel=0, note=59, velocity=0, time=0),
    Message('note_on', channel=0, note=66, velocity=0, time=0),
    Message('note_on', channel=0, note=47, velocity=110, time=2),
    Message('note_on', channel=0, note=51, velocity=110, time=0),
    Message('note_on', channel=0, note=57, velocity=110, time=0),
    Message('note_on', channel=0, note=59, velocity=110, time=0),
    Message('note_on', channel=0, note=66, velocity=110, time=0),
    Message('note_on', channel=0, note=47, velocity=0, time=94),
    Message('note_on', channel=0, note=51, velocity=0, time=0),
    Message('note_on', channel=0, note=57, velocity=0, time=0),
    Message('note_on', channel=0, note=59, velocity=0, time=0),
    Message('note_on', channel=0, note=66, velocity=0, time=0),
    Message('note_on', channel=0, note=47, velocity=110, time=2),
    Message('note_on', channel=0, note=51, velocity=110, time=0),
    Message('note_on', channel=0, note=57, velocity=110, time=0),
    Message('note_on', channel=0, note=59, velocity=110, time=0),
    Message('note_on', channel=0, note=66, velocity=110, time=0),
    Message('note_on', channel=0, note=47, velocity=0, time=190),
    Message('note_on', channel=0, note=51, velocity=0, time=0),
    Message('note_on', channel=0, note=57, velocity=0, time=0),
    Message('note_on', channel=0, note=59, velocity=0, time=0),
    Message('note_on', channel=0, note=66, velocity=0, time=0),
    Message('note_on', channel=0, note=40, velocity=110, time=2),
    Message('note_on', channel=0, note=47, velocity=110, time=0),
    Message('note_on', channel=0, note=52, velocity=110, time=0),
    Message('note_on', channel=0, note=55, velocity=110, time=0),
    Message('note_on', channel=0, note=59, velocity=110, time=0),
    Message('note_on', channel=0, note=64, velocity=110, time=0),
    Message('note_on', channel=0, note=40, velocity=0, time=190),
    Message('note_on', channel=0, note=47, velocity=0, time=0),
    Message('note_on', channel=0, note=52, velocity=0, time=0),
    Message('note_on', channel=0, note=55, velocity=0, time=0),
    Message('note_on', channel=0, note=59, velocity=0, time=0),
    Message('note_on', channel=0, note=64, velocity=0, time=0),
    Message('note_on', channel=0, note=40, velocity=110, time=2),
    Message('note_on', channel=0, note=47, velocity=110, time=0),
    Message('note_on', channel=0, note=52, velocity=110, time=0),
    Message('note_on', channel=0, note=55, velocity=110, time=0),
    Message('note_on', channel=0, note=62, velocity=110, time=0),
    Message('note_on', channel=0, note=67, velocity=110, time=0),
    Message('note_on', channel=0, note=40, velocity=0, time=142),
    Message('note_on', channel=0, note=47, velocity=0, time=0),
    Message('note_on', channel=0, note=52, velocity=0, time=0),
    Message('note_on', channel=0, note=55, velocity=0, time=0),
    Message('note_on', channel=0, note=62, velocity=0, time=0),
    Message('note_on', channel=0, note=67, velocity=0, time=0),
    Message('note_on', channel=0, note=40, velocity=110, time=2),
    Message('note_on', channel=0, note=47, velocity=110, time=0),
    Message('note_on', channel=0, note=52, velocity=110, time=0),
    Message('note_on', channel=0, note=55, velocity=110, time=0),
    Message('note_on', channel=0, note=62, velocity=110, time=0),
    Message('note_on', channel=0, note=67, velocity=110, time=0),
    Message('note_on', channel=0, note=40, velocity=0, time=46),
    Message('note_on', channel=0, note=47, velocity=0, time=0),
    Message('note_on', channel=0, note=52, velocity=0, time=0),
    Message('note_on', channel=0, note=55, velocity=0, time=0),
    Message('note_on', channel=0, note=62, velocity=0, time=0),
    Message('note_on', channel=0, note=67, velocity=0, time=0),
    Message('note_on', channel=0, note=40, velocity=110, time=50),
    Message('note_on', channel=0, note=47, velocity=110, time=0),
    Message('note_on', channel=0, note=52, velocity=110, time=0),
    Message('note_on', channel=0, note=55, velocity=110, time=0),
    Message('note_on', channel=0, note=62, velocity=110, time=0),
    Message('note_on', channel=0, note=67, velocity=110, time=0),
    Message('note_on', channel=0, note=40, velocity=0, time=46),
    Message('note_on', channel=0, note=47, velocity=0, time=0),
    Message('note_on', channel=0, note=52, velocity=0, time=0),
    Message('note_on', channel=0, note=55, velocity=0, time=0),
    Message('note_on', channel=0, note=62, velocity=0, time=0),
    Message('note_on', channel=0, note=67, velocity=0, time=0),
    Message('note_on', channel=0, note=40, velocity=110, time=2),
    Message('note_on', channel=0, note=47, velocity=110, time=0),
    Message('note_on', channel=0, note=52, velocity=110, time=0),
    Message('note_on', channel=0, note=55, velocity=110, time=0),
    Message('note_on', channel=0, note=62, velocity=110, time=0),
    Message('note_on', channel=0, note=67, velocity=110, time=0),
    Message('note_on', channel=0, note=40, velocity=0, time=142),
    Message('note_on', channel=0, note=47, velocity=0, time=0),
    Message('note_on', channel=0, note=52, velocity=0, time=0),
    Message('note_on', channel=0, note=55, velocity=0, time=0),
    Message('note_on', channel=0, note=62, velocity=0, time=0),
    Message('note_on', channel=0, note=67, velocity=0, time=0),
    Message('note_on', channel=0, note=40, velocity=110, time=2),
    Message('note_on', channel=0, note=47, velocity=110, time=0),
    Message('note_on', channel=0, note=52, velocity=110, time=0),
    Message('note_on', channel=0, note=55, velocity=110, time=0),
    Message('note_on', channel=0, note=62, velocity=110, time=0),
    Message('note_on', channel=0, note=67, velocity=110, time=0),
    Message('note_on', channel=0, note=40, velocity=0, time=46),
    Message('note_on', channel=0, note=47, velocity=0, time=0),
    Message('note_on', channel=0, note=52, velocity=0, time=0),
    Message('note_on', channel=0, note=55, velocity=0, time=0),
    Message('note_on', channel=0, note=62, velocity=0, time=0),
    Message('note_on', channel=0, note=67, velocity=0, time=0),
    Message('note_on', channel=0, note=40, velocity=110, time=2),
    Message('note_on', channel=0, note=47, velocity=110, time=0),
    Message('note_on', channel=0, note=52, velocity=110, time=0),
    Message('note_on', channel=0, note=55, velocity=110, time=0),
    Message('note_on', channel=0, note=62, velocity=110, time=0),
    Message('note_on', channel=0, note=67, velocity=110, time=0),
    Message('note_on', channel=0, note=40, velocity=0, time=46),
    Message('note_on', channel=0, note=47, velocity=0, time=0),
    Message('note_on', channel=0, note=52, velocity=0, time=0),
    Message('note_on', channel=0, note=55, velocity=0, time=0),
    Message('note_on', channel=0, note=62, velocity=0, time=0),
    Message('note_on', channel=0, note=67, velocity=0, time=0),
    Message('note_on', channel=0, note=50, velocity=110, time=2),
    Message('note_on', channel=0, note=55, velocity=110, time=0),
    Message('note_on', channel=0, note=59, velocity=110, time=0),
    Message('note_on', channel=0, note=64, velocity=110, time=0),
    Message('note_on', channel=0, note=50, velocity=0, time=46),
    Message('note_on', channel=0, note=55, velocity=0, time=0),
    Message('note_on', channel=0, note=59, velocity=0, time=0),
    Message('note_on', channel=0, note=64, velocity=0, time=0),
    Message('note_on', channel=0, note=48, velocity=110, time=2),
    Message('note_on', channel=0, note=52, velocity=110, time=0),
    Message('note_on', channel=0, note=55, velocity=110, time=0),
    Message('note_on', channel=0, note=60, velocity=110, time=0),
    Message('note_on', channel=0, note=64, velocity=110, time=0),
    Message('note_on', channel=0, note=48, velocity=0, time=190),
    Message('note_on', channel=0, note=52, velocity=0, time=0),
    Message('note_on', channel=0, note=55, velocity=0, time=0),
    Message('note_on', channel=0, note=60, velocity=0, time=0),
    Message('note_on', channel=0, note=64, velocity=0, time=0),
    Message('note_on', channel=0, note=48, velocity=110, time=2),
    Message('note_on', channel=0, note=52, velocity=110, time=0),
    Message('note_on', channel=0, note=55, velocity=110, time=0),
    Message('note_on', channel=0, note=60, velocity=110, time=0),
    Message('note_on', channel=0, note=64, velocity=110, time=0),
    Message('note_on', channel=0, note=48, velocity=0, time=142),
    Message('note_on', channel=0, note=52, velocity=0, time=0),
    Message('note_on', channel=0, note=55, velocity=0, time=0),
    Message('note_on', channel=0, note=60, velocity=0, time=0),
    Message('note_on', channel=0, note=64, velocity=0, time=0),
    Message('note_on', channel=0, note=48, velocity=110, time=2),
    Message('note_on', channel=0, note=52, velocity=110, time=0),
    Message('note_on', channel=0, note=55, velocity=110, time=0),
    Message('note_on', channel=0, note=60, velocity=110, time=0),
    Message('note_on', channel=0, note=64, velocity=110, time=0),
    Message('note_on', channel=0, note=48, velocity=0, time=46),
    Message('note_on', channel=0, note=52, velocity=0, time=0),
    Message('note_on', channel=0, note=55, velocity=0, time=0),
    Message('note_on', channel=0, note=60, velocity=0, time=0),
    Message('note_on', channel=0, note=64, velocity=0, time=0),
    Message('note_on', channel=0, note=47, velocity=110, time=50),
    Message('note_on', channel=0, note=51, velocity=110, time=0),
    Message('note_on', channel=0, note=57, velocity=110, time=0),
    Message('note_on', channel=0, note=59, velocity=110, time=0),
    Message('note_on', channel=0, note=66, velocity=110, time=0),
    Message('note_on', channel=0, note=47, velocity=0, time=46),
    Message('note_on', channel=0, note=51, velocity=0, time=0),
    Message('note_on', channel=0, note=57, velocity=0, time=0),
    Message('note_on', channel=0, note=59, velocity=0, time=0),
    Message('note_on', channel=0, note=66, velocity=0, time=0),
    Message('note_on', channel=0, note=47, velocity=110, time=2),
    Message('note_on', channel=0, note=51, velocity=110, time=0),
    Message('note_on', channel=0, note=57, velocity=110, time=0),
    Message('note_on', channel=0, note=59, velocity=110, time=0),
    Message('note_on', channel=0, note=66, velocity=110, time=0),
    Message('note_on', channel=0, note=47, velocity=0, time=94),
    Message('note_on', channel=0, note=51, velocity=0, time=0),
    Message('note_on', channel=0, note=57, velocity=0, time=0),
    Message('note_on', channel=0, note=59, velocity=0, time=0),
    Message('note_on', channel=0, note=66, velocity=0, time=0),
    Message('note_on', channel=0, note=47, velocity=110, time=2),
    Message('note_on', channel=0, note=51, velocity=110, time=0),
    Message('note_on', channel=0, note=57, velocity=110, time=0),
    Message('note_on', channel=0, note=59, velocity=110, time=0),
    Message('note_on', channel=0, note=66, velocity=110, time=0),
    Message('note_on', channel=0, note=47, velocity=0, time=190),
    Message('note_on', channel=0, note=51, velocity=0, time=0),
    Message('note_on', channel=0, note=57, velocity=0, time=0),
    Message('note_on', channel=0, note=59, velocity=0, time=0),
    Message('note_on', channel=0, note=66, velocity=0, time=0),
    Message('note_on', channel=0, note=40, velocity=110, time=2),
    Message('note_on', channel=0, note=47, velocity=110, time=0),
    Message('note_on', channel=0, note=52, velocity=110, time=0),
    Message('note_on', channel=0, note=55, velocity=110, time=0),
    Message('note_on', channel=0, note=59, velocity=110, time=0),
    Message('note_on', channel=0, note=64, velocity=110, time=0),
    Message('note_on', channel=0, note=40, velocity=0, time=190),
    Message('note_on', channel=0, note=47, velocity=0, time=0),
    Message('note_on', channel=0, note=52, velocity=0, time=0),
    Message('note_on', channel=0, note=55, velocity=0, time=0),
    Message('note_on', channel=0, note=59, velocity=0, time=0),
    Message('note_on', channel=0, note=64, velocity=0, time=0),
    Message('note_on', channel=0, note=40, velocity=110, time=2),
    Message('note_on', channel=0, note=47, velocity=110, time=0),
    Message('note_on', channel=0, note=52, velocity=110, time=0),
    Message('note_on', channel=0, note=55, velocity=110, time=0),
    Message('note_on', channel=0, note=62, velocity=110, time=0),
    Message('note_on', channel=0, note=67, velocity=110, time=0),
    Message('note_on', channel=0, note=40, velocity=0, time=142),
    Message('note_on', channel=0, note=47, velocity=0, time=0),
    Message('note_on', channel=0, note=52, velocity=0, time=0),
    Message('note_on', channel=0, note=55, velocity=0, time=0),
    Message('note_on', channel=0, note=62, velocity=0, time=0),
    Message('note_on', channel=0, note=67, velocity=0, time=0),
    Message('note_on', channel=0, note=40, velocity=110, time=2),
    Message('note_on', channel=0, note=47, velocity=110, time=0),
    Message('note_on', channel=0, note=52, velocity=110, time=0),
    Message('note_on', channel=0, note=55, velocity=110, time=0),
    Message('note_on', channel=0, note=62, velocity=110, time=0),
    Message('note_on', channel=0, note=67, velocity=110, time=0),
    Message('note_on', channel=0, note=40, velocity=0, time=46),
    Message('note_on', channel=0, note=47, velocity=0, time=0),
    Message('note_on', channel=0, note=52, velocity=0, time=0),
    Message('note_on', channel=0, note=55, velocity=0, time=0),
    Message('note_on', channel=0, note=62, velocity=0, time=0),
    Message('note_on', channel=0, note=67, velocity=0, time=0),
    Message('note_on', channel=0, note=40, velocity=110, time=50),
    Message('note_on', channel=0, note=47, velocity=110, time=0),
    Message('note_on', channel=0, note=52, velocity=110, time=0),
    Message('note_on', channel=0, note=55, velocity=110, time=0),
    Message('note_on', channel=0, note=62, velocity=110, time=0),
    Message('note_on', channel=0, note=67, velocity=110, time=0),
    Message('note_on', channel=0, note=40, velocity=0, time=46),
    Message('note_on', channel=0, note=47, velocity=0, time=0),
    Message('note_on', channel=0, note=52, velocity=0, time=0),
    Message('note_on', channel=0, note=55, velocity=0, time=0),
    Message('note_on', channel=0, note=62, velocity=0, time=0),
    Message('note_on', channel=0, note=67, velocity=0, time=0),
    Message('note_on', channel=0, note=40, velocity=110, time=2),
    Message('note_on', channel=0, note=47, velocity=110, time=0),
    Message('note_on', channel=0, note=52, velocity=110, time=0),
    Message('note_on', channel=0, note=55, velocity=110, time=0),
    Message('note_on', channel=0, note=62, velocity=110, time=0),
    Message('note_on', channel=0, note=67, velocity=110, time=0),
    Message('note_on', channel=0, note=40, velocity=0, time=142),
    Message('note_on', channel=0, note=47, velocity=0, time=0),
    Message('note_on', channel=0, note=52, velocity=0, time=0),
    Message('note_on', channel=0, note=55, velocity=0, time=0),
    Message('note_on', channel=0, note=62, velocity=0, time=0),
    Message('note_on', channel=0, note=67, velocity=0, time=0),
    Message('note_on', channel=0, note=40, velocity=110, time=2),
    Message('note_on', channel=0, note=47, velocity=110, time=0),
    Message('note_on', channel=0, note=52, velocity=110, time=0),
    Message('note_on', channel=0, note=55, velocity=110, time=0),
    Message('note_on', channel=0, note=62, velocity=110, time=0),
    Message('note_on', channel=0, note=67, velocity=110, time=0),
    Message('note_on', channel=0, note=40, velocity=0, time=46),
    Message('note_on', channel=0, note=47, velocity=0, time=0),
    Message('note_on', channel=0, note=52, velocity=0, time=0),
    Message('note_on', channel=0, note=55, velocity=0, time=0),
    Message('note_on', channel=0, note=62, velocity=0, time=0),
    Message('note_on', channel=0, note=67, velocity=0, time=0),
    Message('note_on', channel=0, note=40, velocity=110, time=2),
    Message('note_on', channel=0, note=47, velocity=110, time=0),
    Message('note_on', channel=0, note=52, velocity=110, time=0),
    Message('note_on', channel=0, note=55, velocity=110, time=0),
    Message('note_on', channel=0, note=62, velocity=110, time=0),
    Message('note_on', channel=0, note=67, velocity=110, time=0),
    Message('note_on', channel=0, note=40, velocity=0, time=46),
    Message('note_on', channel=0, note=47, velocity=0, time=0),
    Message('note_on', channel=0, note=52, velocity=0, time=0),
    Message('note_on', channel=0, note=55, velocity=0, time=0),
    Message('note_on', channel=0, note=62, velocity=0, time=0),
    Message('note_on', channel=0, note=67, velocity=0, time=0),
    Message('note_on', channel=0, note=50, velocity=110, time=2),
    Message('note_on', channel=0, note=55, velocity=110, time=0),
    Message('note_on', channel=0, note=59, velocity=110, time=0),
    Message('note_on', channel=0, note=64, velocity=110, time=0),
    Message('note_on', channel=0, note=50, velocity=0, time=46),
    Message('note_on', channel=0, note=55, velocity=0, time=0),
    Message('note_on', channel=0, note=59, velocity=0, time=0),
    Message('note_on', channel=0, note=64, velocity=0, time=0),
    Message('note_on', channel=0, note=48, velocity=110, time=2),
    Message('note_on', channel=0, note=52, velocity=110, time=0),
    Message('note_on', channel=0, note=55, velocity=110, time=0),
    Message('note_on', channel=0, note=60, velocity=110, time=0),
    Message('note_on', channel=0, note=64, velocity=110, time=0),
    Message('note_on', channel=0, note=48, velocity=0, time=190),
    Message('note_on', channel=0, note=52, velocity=0, time=0),
    Message('note_on', channel=0, note=55, velocity=0, time=0),
    Message('note_on', channel=0, note=60, velocity=0, time=0),
    Message('note_on', channel=0, note=64, velocity=0, time=0),
    Message('note_on', channel=0, note=48, velocity=110, time=2),
    Message('note_on', channel=0, note=52, velocity=110, time=0),
    Message('note_on', channel=0, note=55, velocity=110, time=0),
    Message('note_on', channel=0, note=60, velocity=110, time=0),
    Message('note_on', channel=0, note=64, velocity=110, time=0),
    Message('note_on', channel=0, note=48, velocity=0, time=142),
    Message('note_on', channel=0, note=52, velocity=0, time=0),
    Message('note_on', channel=0, note=55, velocity=0, time=0),
    Message('note_on', channel=0, note=60, velocity=0, time=0),
    Message('note_on', channel=0, note=64, velocity=0, time=0),
    Message('note_on', channel=0, note=48, velocity=110, time=2),
    Message('note_on', channel=0, note=52, velocity=110, time=0),
    Message('note_on', channel=0, note=55, velocity=110, time=0),
    Message('note_on', channel=0, note=60, velocity=110, time=0),
    Message('note_on', channel=0, note=64, velocity=110, time=0),
    Message('note_on', channel=0, note=48, velocity=0, time=46),
    Message('note_on', channel=0, note=52, velocity=0, time=0),
    Message('note_on', channel=0, note=55, velocity=0, time=0),
    Message('note_on', channel=0, note=60, velocity=0, time=0),
    Message('note_on', channel=0, note=64, velocity=0, time=0),
    Message('note_on', channel=0, note=47, velocity=110, time=50),
    Message('note_on', channel=0, note=51, velocity=110, time=0),
    Message('note_on', channel=0, note=57, velocity=110, time=0),
    Message('note_on', channel=0, note=59, velocity=110, time=0),
    Message('note_on', channel=0, note=66, velocity=110, time=0),
    Message('note_on', channel=0, note=47, velocity=0, time=46),
    Message('note_on', channel=0, note=51, velocity=0, time=0),
    Message('note_on', channel=0, note=57, velocity=0, time=0),
    Message('note_on', channel=0, note=59, velocity=0, time=0),
    Message('note_on', channel=0, note=66, velocity=0, time=0),
    Message('note_on', channel=0, note=47, velocity=110, time=2),
    Message('note_on', channel=0, note=51, velocity=110, time=0),
    Message('note_on', channel=0, note=57, velocity=110, time=0),
    Message('note_on', channel=0, note=59, velocity=110, time=0),
    Message('note_on', channel=0, note=66, velocity=110, time=0),
    Message('note_on', channel=0, note=47, velocity=0, time=94),
    Message('note_on', channel=0, note=51, velocity=0, time=0),
    Message('note_on', channel=0, note=57, velocity=0, time=0),
    Message('note_on', channel=0, note=59, velocity=0, time=0),
    Message('note_on', channel=0, note=66, velocity=0, time=0),
    Message('note_on', channel=0, note=47, velocity=110, time=2),
    Message('note_on', channel=0, note=51, velocity=110, time=0),
    Message('note_on', channel=0, note=57, velocity=110, time=0),
    Message('note_on', channel=0, note=59, velocity=110, time=0),
    Message('note_on', channel=0, note=66, velocity=110, time=0),
    Message('note_on', channel=0, note=47, velocity=0, time=190),
    Message('note_on', channel=0, note=51, velocity=0, time=0),
    Message('note_on', channel=0, note=57, velocity=0, time=0),
    Message('note_on', channel=0, note=59, velocity=0, time=0),
    Message('note_on', channel=0, note=66, velocity=0, time=0),
    Message('note_on', channel=0, note=40, velocity=110, time=2),
    Message('note_on', channel=0, note=47, velocity=110, time=0),
    Message('note_on', channel=0, note=52, velocity=110, time=0),
    Message('note_on', channel=0, note=55, velocity=110, time=0),
    Message('note_on', channel=0, note=59, velocity=110, time=0),
    Message('note_on', channel=0, note=64, velocity=110, time=0),
    Message('note_on', channel=0, note=40, velocity=0, time=94),
    Message('note_on', channel=0, note=47, velocity=0, time=0),
    Message('note_on', channel=0, note=52, velocity=0, time=0),
    Message('note_on', channel=0, note=55, velocity=0, time=0),
    Message('note_on', channel=0, note=59, velocity=0, time=0),
    Message('note_on', channel=0, note=64, velocity=0, time=0),
    Message('note_on', channel=0, note=40, velocity=110, time=2),
    Message('note_on', channel=0, note=47, velocity=110, time=0),
    Message('note_on', channel=0, note=40, velocity=0, time=46),
    Message('note_on', channel=0, note=47, velocity=0, time=0),
    Message('note_on', channel=0, note=40, velocity=110, time=2),
    Message('note_on', channel=0, note=47, velocity=110, time=0),
    Message('note_on', channel=0, note=40, velocity=0, time=46),
    Message('note_on', channel=0, note=47, velocity=0, time=0),
    Message('note_on', channel=0, note=40, velocity=110, time=2),
    Message('note_on', channel=0, note=47, velocity=110, time=0),
    Message('note_on', channel=0, note=52, velocity=110, time=0),
    Message('note_on', channel=0, note=55, velocity=110, time=0),
    Message('note_on', channel=0, note=62, velocity=110, time=0),
    Message('note_on', channel=0, note=67, velocity=110, time=0),
    Message('note_on', channel=0, note=40, velocity=0, time=142),
    Message('note_on', channel=0, note=47, velocity=0, time=0),
    Message('note_on', channel=0, note=52, velocity=0, time=0),
    Message('note_on', channel=0, note=55, velocity=0, time=0),
    Message('note_on', channel=0, note=62, velocity=0, time=0),
    Message('note_on', channel=0, note=67, velocity=0, time=0),
    Message('note_on', channel=0, note=40, velocity=110, time=2),
    Message('note_on', channel=0, note=47, velocity=110, time=0),
    Message('note_on', channel=0, note=52, velocity=110, time=0),
    Message('note_on', channel=0, note=55, velocity=110, time=0),
    Message('note_on', channel=0, note=62, velocity=110, time=0),
    Message('note_on', channel=0, note=67, velocity=110, time=0),
    Message('note_on', channel=0, note=40, velocity=0, time=46),
    Message('note_on', channel=0, note=47, velocity=0, time=0),
    Message('note_on', channel=0, note=52, velocity=0, time=0),
    Message('note_on', channel=0, note=55, velocity=0, time=0),
    Message('note_on', channel=0, note=62, velocity=0, time=0),
    Message('note_on', channel=0, note=67, velocity=0, time=0),
    Message('note_on', channel=0, note=40, velocity=110, time=50),
    Message('note_on', channel=0, note=47, velocity=110, time=0),
    Message('note_on', channel=0, note=52, velocity=110, time=0),
    Message('note_on', channel=0, note=55, velocity=110, time=0),
    Message('note_on', channel=0, note=62, velocity=110, time=0),
    Message('note_on', channel=0, note=67, velocity=110, time=0),
    Message('note_on', channel=0, note=40, velocity=0, time=46),
    Message('note_on', channel=0, note=47, velocity=0, time=0),
    Message('note_on', channel=0, note=52, velocity=0, time=0),
    Message('note_on', channel=0, note=55, velocity=0, time=0),
    Message('note_on', channel=0, note=62, velocity=0, time=0),
    Message('note_on', channel=0, note=67, velocity=0, time=0),
    Message('note_on', channel=0, note=40, velocity=110, time=2),
    Message('note_on', channel=0, note=47, velocity=110, time=0),
    Message('note_on', channel=0, note=52, velocity=110, time=0),
    Message('note_on', channel=0, note=55, velocity=110, time=0),
    Message('note_on', channel=0, note=62, velocity=110, time=0),
    Message('note_on', channel=0, note=67, velocity=110, time=0),
    Message('note_on', channel=0, note=40, velocity=0, time=142),
    Message('note_on', channel=0, note=47, velocity=0, time=0),
    Message('note_on', channel=0, note=52, velocity=0, time=0),
    Message('note_on', channel=0, note=55, velocity=0, time=0),
    Message('note_on', channel=0, note=62, velocity=0, time=0),
    Message('note_on', channel=0, note=67, velocity=0, time=0),
    Message('note_on', channel=0, note=47, velocity=110, time=2),
    Message('note_on', channel=0, note=47, velocity=0, time=46),
    Message('note_on', channel=0, note=50, velocity=110, time=2),
    Message('note_on', channel=0, note=55, velocity=110, time=0),
    Message('note_on', channel=0, note=50, velocity=0, time=46),
    Message('note_on', channel=0, note=55, velocity=0, time=0),
    Message('note_on', channel=0, note=50, velocity=110, time=2),
    Message('note_on', channel=0, note=55, velocity=110, time=0),
    Message('note_on', channel=0, note=62, velocity=110, time=0),
    Message('note_on', channel=0, note=67, velocity=110, time=0),
    Message('note_on', channel=0, note=50, velocity=0, time=46),
    Message('note_on', channel=0, note=62, velocity=0, time=0),
    Message('note_on', channel=0, note=55, velocity=0, time=0),
    Message('note_on', channel=0, note=67, velocity=0, time=0),
    Message('note_on', channel=0, note=40, velocity=110, time=2),
    Message('note_on', channel=0, note=47, velocity=110, time=0),
    Message('note_on', channel=0, note=52, velocity=110, time=0),
    Message('note_on', channel=0, note=55, velocity=110, time=0),
    Message('note_on', channel=0, note=59, velocity=110, time=0),
    Message('note_on', channel=0, note=64, velocity=110, time=0),
    Message('note_on', channel=0, note=40, velocity=0, time=190),
    Message('note_on', channel=0, note=47, velocity=0, time=0),
    Message('note_on', channel=0, note=52, velocity=0, time=0),
    Message('note_on', channel=0, note=55, velocity=0, time=0),
    Message('note_on', channel=0, note=59, velocity=0, time=0),
    Message('note_on', channel=0, note=64, velocity=0, time=0),
    Message('note_on', channel=0, note=40, velocity=110, time=2),
    Message('note_on', channel=0, note=47, velocity=110, time=0),
    Message('note_on', channel=0, note=52, velocity=110, time=0),
    Message('note_on', channel=0, note=55, velocity=110, time=0),
    Message('note_on', channel=0, note=62, velocity=110, time=0),
    Message('note_on', channel=0, note=67, velocity=110, time=0),
    Message('note_on', channel=0, note=40, velocity=0, time=142),
    Message('note_on', channel=0, note=47, velocity=0, time=0),
    Message('note_on', channel=0, note=52, velocity=0, time=0),
    Message('note_on', channel=0, note=55, velocity=0, time=0),
    Message('note_on', channel=0, note=62, velocity=0, time=0),
    Message('note_on', channel=0, note=67, velocity=0, time=0),
    Message('note_on', channel=0, note=40, velocity=110, time=2),
    Message('note_on', channel=0, note=47, velocity=110, time=0),
    Message('note_on', channel=0, note=52, velocity=110, time=0),
    Message('note_on', channel=0, note=55, velocity=110, time=0),
    Message('note_on', channel=0, note=62, velocity=110, time=0),
    Message('note_on', channel=0, note=67, velocity=110, time=0),
    Message('note_on', channel=0, note=40, velocity=0, time=46),
    Message('note_on', channel=0, note=47, velocity=0, time=0),
    Message('note_on', channel=0, note=52, velocity=0, time=0),
    Message('note_on', channel=0, note=55, velocity=0, time=0),
    Message('note_on', channel=0, note=62, velocity=0, time=0),
    Message('note_on', channel=0, note=67, velocity=0, time=0),
    Message('note_on', channel=0, note=40, velocity=110, time=50),
    Message('note_on', channel=0, note=47, velocity=110, time=0),
    Message('note_on', channel=0, note=52, velocity=110, time=0),
    Message('note_on', channel=0, note=55, velocity=110, time=0),
    Message('note_on', channel=0, note=62, velocity=110, time=0),
    Message('note_on', channel=0, note=67, velocity=110, time=0),
    Message('note_on', channel=0, note=40, velocity=0, time=46),
    Message('note_on', channel=0, note=47, velocity=0, time=0),
    Message('note_on', channel=0, note=52, velocity=0, time=0),
    Message('note_on', channel=0, note=55, velocity=0, time=0),
    Message('note_on', channel=0, note=62, velocity=0, time=0),
    Message('note_on', channel=0, note=67, velocity=0, time=0),
    Message('note_on', channel=0, note=40, velocity=110, time=2),
    Message('note_on', channel=0, note=47, velocity=110, time=0),
    Message('note_on', channel=0, note=52, velocity=110, time=0),
    Message('note_on', channel=0, note=55, velocity=110, time=0),
    Message('note_on', channel=0, note=62, velocity=110, time=0),
    Message('note_on', channel=0, note=67, velocity=110, time=0),
    Message('note_on', channel=0, note=40, velocity=0, time=142),
    Message('note_on', channel=0, note=47, velocity=0, time=0),
    Message('note_on', channel=0, note=52, velocity=0, time=0),
    Message('note_on', channel=0, note=55, velocity=0, time=0),
    Message('note_on', channel=0, note=62, velocity=0, time=0),
    Message('note_on', channel=0, note=67, velocity=0, time=0),
    Message('note_on', channel=0, note=40, velocity=110, time=2),
    Message('note_on', channel=0, note=47, velocity=110, time=0),
    Message('note_on', channel=0, note=52, velocity=110, time=0),
    Message('note_on', channel=0, note=55, velocity=110, time=0),
    Message('note_on', channel=0, note=62, velocity=110, time=0),
    Message('note_on', channel=0, note=67, velocity=110, time=0),
    Message('note_on', channel=0, note=40, velocity=0, time=46),
    Message('note_on', channel=0, note=47, velocity=0, time=0),
    Message('note_on', channel=0, note=52, velocity=0, time=0),
    Message('note_on', channel=0, note=55, velocity=0, time=0),
    Message('note_on', channel=0, note=62, velocity=0, time=0),
    Message('note_on', channel=0, note=67, velocity=0, time=0),
    Message('note_on', channel=0, note=40, velocity=110, time=2),
    Message('note_on', channel=0, note=47, velocity=110, time=0),
    Message('note_on', channel=0, note=52, velocity=110, time=0),
    Message('note_on', channel=0, note=55, velocity=110, time=0),
    Message('note_on', channel=0, note=62, velocity=110, time=0),
    Message('note_on', channel=0, note=67, velocity=110, time=0),
    Message('note_on', channel=0, note=40, velocity=0, time=46),
    Message('note_on', channel=0, note=47, velocity=0, time=0),
    Message('note_on', channel=0, note=52, velocity=0, time=0),
    Message('note_on', channel=0, note=55, velocity=0, time=0),
    Message('note_on', channel=0, note=62, velocity=0, time=0),
    Message('note_on', channel=0, note=67, velocity=0, time=0),
    Message('note_on', channel=0, note=50, velocity=110, time=2),
    Message('note_on', channel=0, note=55, velocity=110, time=0),
    Message('note_on', channel=0, note=59, velocity=110, time=0),
    Message('note_on', channel=0, note=64, velocity=110, time=0),
    Message('note_on', channel=0, note=50, velocity=0, time=46),
    Message('note_on', channel=0, note=55, velocity=0, time=0),
    Message('note_on', channel=0, note=59, velocity=0, time=0),
    Message('note_on', channel=0, note=64, velocity=0, time=0),
    Message('note_on', channel=0, note=43, velocity=110, time=2),
    Message('note_on', channel=0, note=50, velocity=110, time=0),
    Message('note_on', channel=0, note=55, velocity=110, time=0),
    Message('note_on', channel=0, note=62, velocity=110, time=0),
    Message('note_on', channel=0, note=67, velocity=110, time=0),
    Message('note_on', channel=0, note=43, velocity=0, time=94),
    Message('note_on', channel=0, note=50, velocity=0, time=0),
    Message('note_on', channel=0, note=55, velocity=0, time=0),
    Message('note_on', channel=0, note=62, velocity=0, time=0),
    Message('note_on', channel=0, note=67, velocity=0, time=0),
    Message('note_on', channel=0, note=43, velocity=110, time=2),
    Message('note_on', channel=0, note=50, velocity=110, time=0),
    Message('note_on', channel=0, note=55, velocity=110, time=0),
    Message('note_on', channel=0, note=62, velocity=110, time=0),
    Message('note_on', channel=0, note=67, velocity=110, time=0),
    Message('note_on', channel=0, note=43, velocity=0, time=94),
    Message('note_on', channel=0, note=50, velocity=0, time=0),
    Message('note_on', channel=0, note=55, velocity=0, time=0),
    Message('note_on', channel=0, note=62, velocity=0, time=0),
    Message('note_on', channel=0, note=67, velocity=0, time=0),
    Message('note_on', channel=0, note=43, velocity=110, time=2),
    Message('note_on', channel=0, note=50, velocity=110, time=0),
    Message('note_on', channel=0, note=55, velocity=110, time=0),
    Message('note_on', channel=0, note=62, velocity=110, time=0),
    Message('note_on', channel=0, note=67, velocity=110, time=0),
    Message('note_on', channel=0, note=43, velocity=0, time=94),
    Message('note_on', channel=0, note=50, velocity=0, time=0),
    Message('note_on', channel=0, note=55, velocity=0, time=0),
    Message('note_on', channel=0, note=62, velocity=0, time=0),
    Message('note_on', channel=0, note=67, velocity=0, time=0),
    Message('note_on', channel=0, note=43, velocity=110, time=2),
    Message('note_on', channel=0, note=50, velocity=110, time=0),
    Message('note_on', channel=0, note=55, velocity=110, time=0),
    Message('note_on', channel=0, note=62, velocity=110, time=0),
    Message('note_on', channel=0, note=67, velocity=110, time=0),
    Message('note_on', channel=0, note=43, velocity=0, time=46),
    Message('note_on', channel=0, note=50, velocity=0, time=0),
    Message('note_on', channel=0, note=55, velocity=0, time=0),
    Message('note_on', channel=0, note=62, velocity=0, time=0),
    Message('note_on', channel=0, note=67, velocity=0, time=0),
    Message('note_on', channel=0, note=43, velocity=110, time=2),
    Message('note_on', channel=0, note=50, velocity=110, time=0),
    Message('note_on', channel=0, note=55, velocity=110, time=0),
    Message('note_on', channel=0, note=62, velocity=110, time=0),
    Message('note_on', channel=0, note=67, velocity=110, time=0),
    Message('note_on', channel=0, note=43, velocity=0, time=46),
    Message('note_on', channel=0, note=50, velocity=0, time=0),
    Message('note_on', channel=0, note=55, velocity=0, time=0),
    Message('note_on', channel=0, note=62, velocity=0, time=0),
    Message('note_on', channel=0, note=67, velocity=0, time=0),
    Message('note_on', channel=0, note=45, velocity=110, time=50),
    Message('note_on', channel=0, note=52, velocity=110, time=0),
    Message('note_on', channel=0, note=57, velocity=110, time=0),
    Message('note_on', channel=0, note=59, velocity=110, time=0),
    Message('note_on', channel=0, note=64, velocity=110, time=0),
    Message('note_on', channel=0, note=45, velocity=0, time=46),
    Message('note_on', channel=0, note=52, velocity=0, time=0),
    Message('note_on', channel=0, note=57, velocity=0, time=0),
    Message('note_on', channel=0, note=59, velocity=0, time=0),
    Message('note_on', channel=0, note=64, velocity=0, time=0),
    Message('note_on', channel=0, note=45, velocity=110, time=2),
    Message('note_on', channel=0, note=52, velocity=110, time=0),
    Message('note_on', channel=0, note=57, velocity=110, time=0),
    Message('note_on', channel=0, note=59, velocity=110, time=0),
    Message('note_on', channel=0, note=64, velocity=110, time=0),
    Message('note_on', channel=0, note=45, velocity=0, time=94),
    Message('note_on', channel=0, note=52, velocity=0, time=0),
    Message('note_on', channel=0, note=57, velocity=0, time=0),
    Message('note_on', channel=0, note=59, velocity=0, time=0),
    Message('note_on', channel=0, note=64, velocity=0, time=0),
    Message('note_on', channel=0, note=45, velocity=110, time=2),
    Message('note_on', channel=0, note=52, velocity=110, time=0),
    Message('note_on', channel=0, note=57, velocity=110, time=0),
    Message('note_on', channel=0, note=59, velocity=110, time=0),
    Message('note_on', channel=0, note=64, velocity=110, time=0),
    Message('note_on', channel=0, note=45, velocity=0, time=160),
    Message('note_on', channel=0, note=52, velocity=0, time=0),
    Message('note_on', channel=0, note=57, velocity=0, time=0),
    Message('note_on', channel=0, note=59, velocity=0, time=0),
    Message('note_on', channel=0, note=64, velocity=0, time=0),
    Message('note_on', channel=0, note=40, velocity=110, time=32),
    Message('note_on', channel=0, note=47, velocity=110, time=0),
    Message('note_on', channel=0, note=52, velocity=110, time=0),
    Message('note_on', channel=0, note=55, velocity=110, time=0),
    Message('note_on', channel=0, note=59, velocity=110, time=0),
    Message('note_on', channel=0, note=64, velocity=110, time=0),
    Message('note_on', channel=0, note=40, velocity=0, time=142),
    Message('note_on', channel=0, note=47, velocity=0, time=0),
    Message('note_on', channel=0, note=52, velocity=0, time=0),
    Message('note_on', channel=0, note=55, velocity=0, time=0),
    Message('note_on', channel=0, note=59, velocity=0, time=0),
    Message('note_on', channel=0, note=64, velocity=0, time=0),
    Message('note_on', channel=0, note=40, velocity=110, time=2),
    Message('note_on', channel=0, note=47, velocity=110, time=0),
    Message('note_on', channel=0, note=52, velocity=110, time=0),
    Message('note_on', channel=0, note=55, velocity=110, time=0),
    Message('note_on', channel=0, note=59, velocity=110, time=0),
    Message('note_on', channel=0, note=64, velocity=110, time=0),
    Message('note_on', channel=0, note=40, velocity=0, time=46),
    Message('note_on', channel=0, note=47, velocity=0, time=0),
    Message('note_on', channel=0, note=52, velocity=0, time=0),
    Message('note_on', channel=0, note=55, velocity=0, time=0),
    Message('note_on', channel=0, note=59, velocity=0, time=0),
    Message('note_on', channel=0, note=64, velocity=0, time=0),
    Message('note_on', channel=0, note=40, velocity=110, time=2),
    Message('note_on', channel=0, note=47, velocity=110, time=0),
    Message('note_on', channel=0, note=52, velocity=110, time=0),
    Message('note_on', channel=0, note=55, velocity=110, time=0),
    Message('note_on', channel=0, note=62, velocity=110, time=0),
    Message('note_on', channel=0, note=67, velocity=110, time=0),
    Message('note_on', channel=0, note=40, velocity=0, time=142),
    Message('note_on', channel=0, note=47, velocity=0, time=0),
    Message('note_on', channel=0, note=52, velocity=0, time=0),
    Message('note_on', channel=0, note=55, velocity=0, time=0),
    Message('note_on', channel=0, note=62, velocity=0, time=0),
    Message('note_on', channel=0, note=67, velocity=0, time=0),
    Message('note_on', channel=0, note=40, velocity=110, time=2),
    Message('note_on', channel=0, note=47, velocity=110, time=0),
    Message('note_on', channel=0, note=52, velocity=110, time=0),
    Message('note_on', channel=0, note=55, velocity=110, time=0),
    Message('note_on', channel=0, note=62, velocity=110, time=0),
    Message('note_on', channel=0, note=67, velocity=110, time=0),
    Message('note_on', channel=0, note=40, velocity=0, time=46),
    Message('note_on', channel=0, note=47, velocity=0, time=0),
    Message('note_on', channel=0, note=52, velocity=0, time=0),
    Message('note_on', channel=0, note=55, velocity=0, time=0),
    Message('note_on', channel=0, note=62, velocity=0, time=0),
    Message('note_on', channel=0, note=67, velocity=0, time=0),
    Message('note_on', channel=0, note=40, velocity=110, time=50),
    Message('note_on', channel=0, note=47, velocity=110, time=0),
    Message('note_on', channel=0, note=52, velocity=110, time=0),
    Message('note_on', channel=0, note=55, velocity=110, time=0),
    Message('note_on', channel=0, note=62, velocity=110, time=0),
    Message('note_on', channel=0, note=67, velocity=110, time=0),
    Message('note_on', channel=0, note=40, velocity=0, time=46),
    Message('note_on', channel=0, note=47, velocity=0, time=0),
    Message('note_on', channel=0, note=52, velocity=0, time=0),
    Message('note_on', channel=0, note=55, velocity=0, time=0),
    Message('note_on', channel=0, note=62, velocity=0, time=0),
    Message('note_on', channel=0, note=67, velocity=0, time=0),
    Message('note_on', channel=0, note=40, velocity=110, time=2),
    Message('note_on', channel=0, note=47, velocity=110, time=0),
    Message('note_on', channel=0, note=52, velocity=110, time=0),
    Message('note_on', channel=0, note=55, velocity=110, time=0),
    Message('note_on', channel=0, note=62, velocity=110, time=0),
    Message('note_on', channel=0, note=67, velocity=110, time=0),
    Message('note_on', channel=0, note=40, velocity=0, time=142),
    Message('note_on', channel=0, note=47, velocity=0, time=0),
    Message('note_on', channel=0, note=52, velocity=0, time=0),
    Message('note_on', channel=0, note=55, velocity=0, time=0),
    Message('note_on', channel=0, note=62, velocity=0, time=0),
    Message('note_on', channel=0, note=67, velocity=0, time=0),
    Message('note_on', channel=0, note=40, velocity=110, time=2),
    Message('note_on', channel=0, note=47, velocity=110, time=0),
    Message('note_on', channel=0, note=52, velocity=110, time=0),
    Message('note_on', channel=0, note=55, velocity=110, time=0),
    Message('note_on', channel=0, note=62, velocity=110, time=0),
    Message('note_on', channel=0, note=67, velocity=110, time=0),
    Message('note_on', channel=0, note=40, velocity=0, time=46),
    Message('note_on', channel=0, note=47, velocity=0, time=0),
    Message('note_on', channel=0, note=52, velocity=0, time=0),
    Message('note_on', channel=0, note=55, velocity=0, time=0),
    Message('note_on', channel=0, note=62, velocity=0, time=0),
    Message('note_on', channel=0, note=67, velocity=0, time=0),
    Message('note_on', channel=0, note=40, velocity=110, time=2),
    Message('note_on', channel=0, note=47, velocity=110, time=0),
    Message('note_on', channel=0, note=52, velocity=110, time=0),
    Message('note_on', channel=0, note=55, velocity=110, time=0),
    Message('note_on', channel=0, note=62, velocity=110, time=0),
    Message('note_on', channel=0, note=67, velocity=110, time=0),
    Message('note_on', channel=0, note=40, velocity=0, time=46),
    Message('note_on', channel=0, note=47, velocity=0, time=0),
    Message('note_on', channel=0, note=52, velocity=0, time=0),
    Message('note_on', channel=0, note=55, velocity=0, time=0),
    Message('note_on', channel=0, note=62, velocity=0, time=0),
    Message('note_on', channel=0, note=67, velocity=0, time=0),
    Message('note_on', channel=0, note=50, velocity=110, time=2),
    Message('note_on', channel=0, note=55, velocity=110, time=0),
    Message('note_on', channel=0, note=59, velocity=110, time=0),
    Message('note_on', channel=0, note=64, velocity=110, time=0),
    Message('note_on', channel=0, note=50, velocity=0, time=46),
    Message('note_on', channel=0, note=55, velocity=0, time=0),
    Message('note_on', channel=0, note=59, velocity=0, time=0),
    Message('note_on', channel=0, note=64, velocity=0, time=0),
    Message('note_on', channel=0, note=43, velocity=110, time=2),
    Message('note_on', channel=0, note=50, velocity=110, time=0),
    Message('note_on', channel=0, note=55, velocity=110, time=0),
    Message('note_on', channel=0, note=62, velocity=110, time=0),
    Message('note_on', channel=0, note=67, velocity=110, time=0),
    Message('note_on', channel=0, note=43, velocity=0, time=94),
    Message('note_on', channel=0, note=50, velocity=0, time=0),
    Message('note_on', channel=0, note=55, velocity=0, time=0),
    Message('note_on', channel=0, note=62, velocity=0, time=0),
    Message('note_on', channel=0, note=67, velocity=0, time=0),
    Message('note_on', channel=0, note=43, velocity=110, time=2),
    Message('note_on', channel=0, note=50, velocity=110, time=0),
    Message('note_on', channel=0, note=55, velocity=110, time=0),
    Message('note_on', channel=0, note=62, velocity=110, time=0),
    Message('note_on', channel=0, note=67, velocity=110, time=0),
    Message('note_on', channel=0, note=43, velocity=0, time=94),
    Message('note_on', channel=0, note=50, velocity=0, time=0),
    Message('note_on', channel=0, note=55, velocity=0, time=0),
    Message('note_on', channel=0, note=62, velocity=0, time=0),
    Message('note_on', channel=0, note=67, velocity=0, time=0),
    Message('note_on', channel=0, note=43, velocity=110, time=2),
    Message('note_on', channel=0, note=50, velocity=110, time=0),
    Message('note_on', channel=0, note=55, velocity=110, time=0),
    Message('note_on', channel=0, note=62, velocity=110, time=0),
    Message('note_on', channel=0, note=67, velocity=110, time=0),
    Message('note_on', channel=0, note=43, velocity=0, time=94),
    Message('note_on', channel=0, note=50, velocity=0, time=0),
    Message('note_on', channel=0, note=55, velocity=0, time=0),
    Message('note_on', channel=0, note=62, velocity=0, time=0),
    Message('note_on', channel=0, note=67, velocity=0, time=0),
    Message('note_on', channel=0, note=43, velocity=110, time=2),
    Message('note_on', channel=0, note=50, velocity=110, time=0),
    Message('note_on', channel=0, note=55, velocity=110, time=0),
    Message('note_on', channel=0, note=62, velocity=110, time=0),
    Message('note_on', channel=0, note=67, velocity=110, time=0),
    Message('note_on', channel=0, note=43, velocity=0, time=46),
    Message('note_on', channel=0, note=50, velocity=0, time=0),
    Message('note_on', channel=0, note=55, velocity=0, time=0),
    Message('note_on', channel=0, note=62, velocity=0, time=0),
    Message('note_on', channel=0, note=67, velocity=0, time=0),
    Message('note_on', channel=0, note=43, velocity=110, time=2),
    Message('note_on', channel=0, note=50, velocity=110, time=0),
    Message('note_on', channel=0, note=55, velocity=110, time=0),
    Message('note_on', channel=0, note=62, velocity=110, time=0),
    Message('note_on', channel=0, note=67, velocity=110, time=0),
    Message('note_on', channel=0, note=43, velocity=0, time=46),
    Message('note_on', channel=0, note=50, velocity=0, time=0),
    Message('note_on', channel=0, note=55, velocity=0, time=0),
    Message('note_on', channel=0, note=62, velocity=0, time=0),
    Message('note_on', channel=0, note=67, velocity=0, time=0),
    Message('note_on', channel=0, note=45, velocity=110, time=50),
    Message('note_on', channel=0, note=52, velocity=110, time=0),
    Message('note_on', channel=0, note=57, velocity=110, time=0),
    Message('note_on', channel=0, note=59, velocity=110, time=0),
    Message('note_on', channel=0, note=64, velocity=110, time=0),
    Message('note_on', channel=0, note=45, velocity=0, time=46),
    Message('note_on', channel=0, note=52, velocity=0, time=0),
    Message('note_on', channel=0, note=57, velocity=0, time=0),
    Message('note_on', channel=0, note=59, velocity=0, time=0),
    Message('note_on', channel=0, note=64, velocity=0, time=0),
    Message('note_on', channel=0, note=45, velocity=110, time=2),
    Message('note_on', channel=0, note=52, velocity=110, time=0),
    Message('note_on', channel=0, note=57, velocity=110, time=0),
    Message('note_on', channel=0, note=59, velocity=110, time=0),
    Message('note_on', channel=0, note=64, velocity=110, time=0),
    Message('note_on', channel=0, note=45, velocity=0, time=94),
    Message('note_on', channel=0, note=52, velocity=0, time=0),
    Message('note_on', channel=0, note=57, velocity=0, time=0),
    Message('note_on', channel=0, note=59, velocity=0, time=0),
    Message('note_on', channel=0, note=64, velocity=0, time=0),
    Message('note_on', channel=0, note=45, velocity=110, time=2),
    Message('note_on', channel=0, note=52, velocity=110, time=0),
    Message('note_on', channel=0, note=57, velocity=110, time=0),
    Message('note_on', channel=0, note=59, velocity=110, time=0),
    Message('note_on', channel=0, note=64, velocity=110, time=0),
    Message('note_on', channel=0, note=45, velocity=0, time=160),
    Message('note_on', channel=0, note=52, velocity=0, time=0),
    Message('note_on', channel=0, note=57, velocity=0, time=0),
    Message('note_on', channel=0, note=59, velocity=0, time=0),
    Message('note_on', channel=0, note=64, velocity=0, time=0),
    Message('note_on', channel=0, note=40, velocity=110, time=32),
    Message('note_on', channel=0, note=47, velocity=110, time=0),
    Message('note_on', channel=0, note=52, velocity=110, time=0),
    Message('note_on', channel=0, note=55, velocity=110, time=0),
    Message('note_on', channel=0, note=59, velocity=110, time=0),
    Message('note_on', channel=0, note=64, velocity=110, time=0),
    Message('note_on', channel=0, note=40, velocity=0, time=142),
    Message('note_on', channel=0, note=47, velocity=0, time=0),
    Message('note_on', channel=0, note=52, velocity=0, time=0),
    Message('note_on', channel=0, note=55, velocity=0, time=0),
    Message('note_on', channel=0, note=59, velocity=0, time=0),
    Message('note_on', channel=0, note=64, velocity=0, time=0),
    Message('note_on', channel=0, note=40, velocity=110, time=2),
    Message('note_on', channel=0, note=47, velocity=110, time=0),
    Message('note_on', channel=0, note=52, velocity=110, time=0),
    Message('note_on', channel=0, note=55, velocity=110, time=0),
    Message('note_on', channel=0, note=59, velocity=110, time=0),
    Message('note_on', channel=0, note=64, velocity=110, time=0),
    Message('note_on', channel=0, note=40, velocity=0, time=46),
    Message('note_on', channel=0, note=47, velocity=0, time=0),
    Message('note_on', channel=0, note=52, velocity=0, time=0),
    Message('note_on', channel=0, note=55, velocity=0, time=0),
    Message('note_on', channel=0, note=59, velocity=0, time=0),
    Message('note_on', channel=0, note=64, velocity=0, time=0),
    Message('note_on', channel=0, note=40, velocity=110, time=2),
    Message('note_on', channel=0, note=47, velocity=110, time=0),
    Message('note_on', channel=0, note=52, velocity=110, time=0),
    Message('note_on', channel=0, note=55, velocity=110, time=0),
    Message('note_on', channel=0, note=62, velocity=110, time=0),
    Message('note_on', channel=0, note=67, velocity=110, time=0),
    Message('note_on', channel=0, note=40, velocity=0, time=142),
    Message('note_on', channel=0, note=47, velocity=0, time=0),
    Message('note_on', channel=0, note=52, velocity=0, time=0),
    Message('note_on', channel=0, note=55, velocity=0, time=0),
    Message('note_on', channel=0, note=62, velocity=0, time=0),
    Message('note_on', channel=0, note=67, velocity=0, time=0),
    Message('note_on', channel=0, note=40, velocity=110, time=2),
    Message('note_on', channel=0, note=47, velocity=110, time=0),
    Message('note_on', channel=0, note=52, velocity=110, time=0),
    Message('note_on', channel=0, note=55, velocity=110, time=0),
    Message('note_on', channel=0, note=62, velocity=110, time=0),
    Message('note_on', channel=0, note=67, velocity=110, time=0),
    Message('note_on', channel=0, note=40, velocity=0, time=46),
    Message('note_on', channel=0, note=47, velocity=0, time=0),
    Message('note_on', channel=0, note=52, velocity=0, time=0),
    Message('note_on', channel=0, note=55, velocity=0, time=0),
    Message('note_on', channel=0, note=62, velocity=0, time=0),
    Message('note_on', channel=0, note=67, velocity=0, time=0),
    Message('note_on', channel=0, note=40, velocity=110, time=50),
    Message('note_on', channel=0, note=47, velocity=110, time=0),
    Message('note_on', channel=0, note=52, velocity=110, time=0),
    Message('note_on', channel=0, note=55, velocity=110, time=0),
    Message('note_on', channel=0, note=62, velocity=110, time=0),
    Message('note_on', channel=0, note=67, velocity=110, time=0),
    Message('note_on', channel=0, note=40, velocity=0, time=46),
    Message('note_on', channel=0, note=47, velocity=0, time=0),
    Message('note_on', channel=0, note=52, velocity=0, time=0),
    Message('note_on', channel=0, note=55, velocity=0, time=0),
    Message('note_on', channel=0, note=62, velocity=0, time=0),
    Message('note_on', channel=0, note=67, velocity=0, time=0),
    Message('note_on', channel=0, note=40, velocity=110, time=2),
    Message('note_on', channel=0, note=47, velocity=110, time=0),
    Message('note_on', channel=0, note=52, velocity=110, time=0),
    Message('note_on', channel=0, note=55, velocity=110, time=0),
    Message('note_on', channel=0, note=62, velocity=110, time=0),
    Message('note_on', channel=0, note=67, velocity=110, time=0),
    Message('note_on', channel=0, note=40, velocity=0, time=142),
    Message('note_on', channel=0, note=47, velocity=0, time=0),
    Message('note_on', channel=0, note=52, velocity=0, time=0),
    Message('note_on', channel=0, note=55, velocity=0, time=0),
    Message('note_on', channel=0, note=62, velocity=0, time=0),
    Message('note_on', channel=0, note=67, velocity=0, time=0),
    Message('note_on', channel=0, note=40, velocity=110, time=2),
    Message('note_on', channel=0, note=47, velocity=110, time=0),
    Message('note_on', channel=0, note=52, velocity=110, time=0),
    Message('note_on', channel=0, note=55, velocity=110, time=0),
    Message('note_on', channel=0, note=62, velocity=110, time=0),
    Message('note_on', channel=0, note=67, velocity=110, time=0),
    Message('note_on', channel=0, note=40, velocity=0, time=46),
    Message('note_on', channel=0, note=47, velocity=0, time=0),
    Message('note_on', channel=0, note=52, velocity=0, time=0),
    Message('note_on', channel=0, note=55, velocity=0, time=0),
    Message('note_on', channel=0, note=62, velocity=0, time=0),
    Message('note_on', channel=0, note=67, velocity=0, time=0),
    Message('note_on', channel=0, note=40, velocity=110, time=2),
    Message('note_on', channel=0, note=47, velocity=110, time=0),
    Message('note_on', channel=0, note=52, velocity=110, time=0),
    Message('note_on', channel=0, note=55, velocity=110, time=0),
    Message('note_on', channel=0, note=62, velocity=110, time=0),
    Message('note_on', channel=0, note=67, velocity=110, time=0),
    Message('note_on', channel=0, note=40, velocity=0, time=46),
    Message('note_on', channel=0, note=47, velocity=0, time=0),
    Message('note_on', channel=0, note=52, velocity=0, time=0),
    Message('note_on', channel=0, note=55, velocity=0, time=0),
    Message('note_on', channel=0, note=62, velocity=0, time=0),
    Message('note_on', channel=0, note=67, velocity=0, time=0),
    Message('note_on', channel=0, note=50, velocity=110, time=2),
    Message('note_on', channel=0, note=55, velocity=110, time=0),
    Message('note_on', channel=0, note=59, velocity=110, time=0),
    Message('note_on', channel=0, note=64, velocity=110, time=0),
    Message('note_on', channel=0, note=50, velocity=0, time=46),
    Message('note_on', channel=0, note=55, velocity=0, time=0),
    Message('note_on', channel=0, note=59, velocity=0, time=0),
    Message('note_on', channel=0, note=64, velocity=0, time=0),
    Message('note_on', channel=0, note=43, velocity=110, time=2),
    Message('note_on', channel=0, note=50, velocity=110, time=0),
    Message('note_on', channel=0, note=55, velocity=110, time=0),
    Message('note_on', channel=0, note=62, velocity=110, time=0),
    Message('note_on', channel=0, note=67, velocity=110, time=0),
    Message('note_on', channel=0, note=43, velocity=0, time=94),
    Message('note_on', channel=0, note=50, velocity=0, time=0),
    Message('note_on', channel=0, note=55, velocity=0, time=0),
    Message('note_on', channel=0, note=62, velocity=0, time=0),
    Message('note_on', channel=0, note=67, velocity=0, time=0),
    Message('note_on', channel=0, note=43, velocity=110, time=2),
    Message('note_on', channel=0, note=50, velocity=110, time=0),
    Message('note_on', channel=0, note=55, velocity=110, time=0),
    Message('note_on', channel=0, note=62, velocity=110, time=0),
    Message('note_on', channel=0, note=67, velocity=110, time=0),
    Message('note_on', channel=0, note=43, velocity=0, time=94),
    Message('note_on', channel=0, note=50, velocity=0, time=0),
    Message('note_on', channel=0, note=55, velocity=0, time=0),
    Message('note_on', channel=0, note=62, velocity=0, time=0),
    Message('note_on', channel=0, note=67, velocity=0, time=0),
    Message('note_on', channel=0, note=43, velocity=110, time=2),
    Message('note_on', channel=0, note=50, velocity=110, time=0),
    Message('note_on', channel=0, note=55, velocity=110, time=0),
    Message('note_on', channel=0, note=62, velocity=110, time=0),
    Message('note_on', channel=0, note=67, velocity=110, time=0),
    Message('note_on', channel=0, note=43, velocity=0, time=94),
    Message('note_on', channel=0, note=50, velocity=0, time=0),
    Message('note_on', channel=0, note=55, velocity=0, time=0),
    Message('note_on', channel=0, note=62, velocity=0, time=0),
    Message('note_on', channel=0, note=67, velocity=0, time=0),
    Message('note_on', channel=0, note=43, velocity=110, time=2),
    Message('note_on', channel=0, note=50, velocity=110, time=0),
    Message('note_on', channel=0, note=55, velocity=110, time=0),
    Message('note_on', channel=0, note=62, velocity=110, time=0),
    Message('note_on', channel=0, note=67, velocity=110, time=0),
    Message('note_on', channel=0, note=43, velocity=0, time=46),
    Message('note_on', channel=0, note=50, velocity=0, time=0),
    Message('note_on', channel=0, note=55, velocity=0, time=0),
    Message('note_on', channel=0, note=62, velocity=0, time=0),
    Message('note_on', channel=0, note=67, velocity=0, time=0),
    Message('note_on', channel=0, note=43, velocity=110, time=2),
    Message('note_on', channel=0, note=50, velocity=110, time=0),
    Message('note_on', channel=0, note=55, velocity=110, time=0),
    Message('note_on', channel=0, note=62, velocity=110, time=0),
    Message('note_on', channel=0, note=67, velocity=110, time=0),
    Message('note_on', channel=0, note=43, velocity=0, time=46),
    Message('note_on', channel=0, note=50, velocity=0, time=0),
    Message('note_on', channel=0, note=55, velocity=0, time=0),
    Message('note_on', channel=0, note=62, velocity=0, time=0),
    Message('note_on', channel=0, note=67, velocity=0, time=0),
    Message('note_on', channel=0, note=45, velocity=110, time=50),
    Message('note_on', channel=0, note=52, velocity=110, time=0),
    Message('note_on', channel=0, note=57, velocity=110, time=0),
    Message('note_on', channel=0, note=59, velocity=110, time=0),
    Message('note_on', channel=0, note=64, velocity=110, time=0),
    Message('note_on', channel=0, note=45, velocity=0, time=46),
    Message('note_on', channel=0, note=52, velocity=0, time=0),
    Message('note_on', channel=0, note=57, velocity=0, time=0),
    Message('note_on', channel=0, note=59, velocity=0, time=0),
    Message('note_on', channel=0, note=64, velocity=0, time=0),
    Message('note_on', channel=0, note=45, velocity=110, time=2),
    Message('note_on', channel=0, note=52, velocity=110, time=0),
    Message('note_on', channel=0, note=57, velocity=110, time=0),
    Message('note_on', channel=0, note=59, velocity=110, time=0),
    Message('note_on', channel=0, note=64, velocity=110, time=0),
    Message('note_on', channel=0, note=45, velocity=0, time=94),
    Message('note_on', channel=0, note=52, velocity=0, time=0),
    Message('note_on', channel=0, note=57, velocity=0, time=0),
    Message('note_on', channel=0, note=59, velocity=0, time=0),
    Message('note_on', channel=0, note=64, velocity=0, time=0),
    Message('note_on', channel=0, note=45, velocity=110, time=2),
    Message('note_on', channel=0, note=52, velocity=110, time=0),
    Message('note_on', channel=0, note=57, velocity=110, time=0),
    Message('note_on', channel=0, note=59, velocity=110, time=0),
    Message('note_on', channel=0, note=64, velocity=110, time=0),
    Message('note_on', channel=0, note=45, velocity=0, time=160),
    Message('note_on', channel=0, note=52, velocity=0, time=0),
    Message('note_on', channel=0, note=57, velocity=0, time=0),
    Message('note_on', channel=0, note=59, velocity=0, time=0),
    Message('note_on', channel=0, note=64, velocity=0, time=0),
    Message('note_on', channel=0, note=48, velocity=110, time=32),
    Message('note_on', channel=0, note=50, velocity=110, time=0),
    Message('note_on', channel=0, note=55, velocity=110, time=0),
    Message('note_on', channel=0, note=62, velocity=110, time=0),
    Message('note_on', channel=0, note=67, velocity=110, time=0),
    Message('note_on', channel=0, note=48, velocity=0, time=190),
    Message('note_on', channel=0, note=50, velocity=0, time=0),
    Message('note_on', channel=0, note=55, velocity=0, time=0),
    Message('note_on', channel=0, note=62, velocity=0, time=0),
    Message('note_on', channel=0, note=67, velocity=0, time=0),
    Message('note_on', channel=0, note=48, velocity=110, time=2),
    Message('note_on', channel=0, note=50, velocity=110, time=0),
    Message('note_on', channel=0, note=55, velocity=110, time=0),
    Message('note_on', channel=0, note=62, velocity=110, time=0),
    Message('note_on', channel=0, note=67, velocity=110, time=0),
    Message('note_on', channel=0, note=48, velocity=0, time=142),
    Message('note_on', channel=0, note=50, velocity=0, time=0),
    Message('note_on', channel=0, note=55, velocity=0, time=0),
    Message('note_on', channel=0, note=62, velocity=0, time=0),
    Message('note_on', channel=0, note=67, velocity=0, time=0),
    Message('note_on', channel=0, note=48, velocity=110, time=2),
    Message('note_on', channel=0, note=50, velocity=110, time=0),
    Message('note_on', channel=0, note=55, velocity=110, time=0),
    Message('note_on', channel=0, note=62, velocity=110, time=0),
    Message('note_on', channel=0, note=67, velocity=110, time=0),
    Message('note_on', channel=0, note=48, velocity=0, time=46),
    Message('note_on', channel=0, note=50, velocity=0, time=0),
    Message('note_on', channel=0, note=55, velocity=0, time=0),
    Message('note_on', channel=0, note=62, velocity=0, time=0),
    Message('note_on', channel=0, note=67, velocity=0, time=0),
    Message('note_on', channel=0, note=50, velocity=110, time=50),
    Message('note_on', channel=0, note=57, velocity=110, time=0),
    Message('note_on', channel=0, note=62, velocity=110, time=0),
    Message('note_on', channel=0, note=66, velocity=110, time=0),
    Message('note_on', channel=0, note=50, velocity=0, time=46),
    Message('note_on', channel=0, note=57, velocity=0, time=0),
    Message('note_on', channel=0, note=62, velocity=0, time=0),
    Message('note_on', channel=0, note=66, velocity=0, time=0),
    Message('note_on', channel=0, note=50, velocity=110, time=2),
    Message('note_on', channel=0, note=57, velocity=110, time=0),
    Message('note_on', channel=0, note=62, velocity=110, time=0),
    Message('note_on', channel=0, note=66, velocity=110, time=0),
    Message('note_on', channel=0, note=50, velocity=0, time=94),
    Message('note_on', channel=0, note=57, velocity=0, time=0),
    Message('note_on', channel=0, note=62, velocity=0, time=0),
    Message('note_on', channel=0, note=66, velocity=0, time=0),
    Message('note_on', channel=0, note=50, velocity=110, time=2),
    Message('note_on', channel=0, note=57, velocity=110, time=0),
    Message('note_on', channel=0, note=62, velocity=110, time=0),
    Message('note_on', channel=0, note=66, velocity=110, time=0),
    Message('note_on', channel=0, note=50, velocity=0, time=190),
    Message('note_on', channel=0, note=57, velocity=0, time=0),
    Message('note_on', channel=0, note=62, velocity=0, time=0),
    Message('note_on', channel=0, note=66, velocity=0, time=0),
    Message('program_change', channel=0, program=0, time=2),
    Message('note_on', channel=0, note=52, velocity=60, time=0),
    Message('note_on', channel=0, note=52, velocity=0, time=190),
    Message('note_on', channel=0, note=54, velocity=60, time=2),
    Message('note_on', channel=0, note=54, velocity=0, time=190),
    Message('note_on', channel=0, note=55, velocity=60, time=2),
    Message('note_on', channel=0, note=55, velocity=0, time=142),
    Message('note_on', channel=0, note=55, velocity=60, time=2),
    Message('note_on', channel=0, note=55, velocity=0, time=46),
    Message('note_on', channel=0, note=57, velocity=60, time=2),
    Message('note_on', channel=0, note=57, velocity=0, time=46),
    Message('note_on', channel=0, note=59, velocity=60, time=2),
    Message('note_on', channel=0, note=59, velocity=0, time=46),
    Message('note_on', channel=0, note=62, velocity=60, time=2),
    Message('note_on', channel=0, note=62, velocity=0, time=46),
    Message('note_on', channel=0, note=64, velocity=60, time=2),
    Message('note_on', channel=0, note=64, velocity=0, time=46),
    Message('note_on', channel=0, note=52, velocity=60, time=2),
    Message('note_on', channel=0, note=52, velocity=0, time=190),
    Message('note_on', channel=0, note=54, velocity=60, time=2),
    Message('note_on', channel=0, note=54, velocity=0, time=190),
    Message('note_on', channel=0, note=55, velocity=60, time=2),
    Message('note_on', channel=0, note=55, velocity=0, time=142),
    Message('note_on', channel=0, note=55, velocity=60, time=2),
    Message('note_on', channel=0, note=55, velocity=0, time=46),
    Message('note_on', channel=0, note=57, velocity=60, time=2),
    Message('note_on', channel=0, note=57, velocity=0, time=46),
    Message('note_on', channel=0, note=58, velocity=60, time=2),
    Message('note_on', channel=0, note=58, velocity=0, time=46),
    Message('note_on', channel=0, note=59, velocity=60, time=2),
    Message('note_on', channel=0, note=59, velocity=0, time=94),
    Message('note_on', channel=0, note=52, velocity=60, time=2),
    Message('note_on', channel=0, note=52, velocity=0, time=190),
    Message('note_on', channel=0, note=54, velocity=60, time=2),
    Message('note_on', channel=0, note=54, velocity=0, time=190),
    Message('note_on', channel=0, note=55, velocity=60, time=2),
    Message('note_on', channel=0, note=55, velocity=0, time=142),
    Message('note_on', channel=0, note=55, velocity=60, time=2),
    Message('note_on', channel=0, note=55, velocity=0, time=46),
    Message('note_on', channel=0, note=57, velocity=60, time=2),
    Message('note_on', channel=0, note=57, velocity=0, time=46),
    Message('note_on', channel=0, note=59, velocity=60, time=2),
    Message('note_on', channel=0, note=59, velocity=0, time=46),
    Message('note_on', channel=0, note=62, velocity=60, time=2),
    Message('note_on', channel=0, note=62, velocity=0, time=46),
    Message('note_on', channel=0, note=64, velocity=60, time=2),
    Message('note_on', channel=0, note=64, velocity=0, time=46),
    Message('note_on', channel=0, note=52, velocity=60, time=2),
    Message('note_on', channel=0, note=52, velocity=0, time=190),
    Message('note_on', channel=0, note=54, velocity=60, time=2),
    Message('note_on', channel=0, note=54, velocity=0, time=190),
    Message('note_on', channel=0, note=55, velocity=60, time=2),
    Message('note_on', channel=0, note=55, velocity=0, time=142),
    Message('note_on', channel=0, note=55, velocity=60, time=2),
    Message('note_on', channel=0, note=55, velocity=0, time=46),
    Message('note_on', channel=0, note=57, velocity=60, time=2),
    Message('note_on', channel=0, note=57, velocity=0, time=46),
    Message('note_on', channel=0, note=58, velocity=60, time=2),
    Message('note_on', channel=0, note=58, velocity=0, time=46),
    Message('note_on', channel=0, note=59, velocity=60, time=2),
    Message('note_on', channel=0, note=59, velocity=0, time=94),
    Message('note_on', channel=0, note=52, velocity=60, time=2),
    Message('note_on', channel=0, note=52, velocity=0, time=190),
    Message('note_on', channel=0, note=54, velocity=60, time=2),
    Message('note_on', channel=0, note=54, velocity=0, time=190),
    Message('note_on', channel=0, note=55, velocity=60, time=2),
    Message('note_on', channel=0, note=55, velocity=0, time=142),
    Message('note_on', channel=0, note=55, velocity=60, time=2),
    Message('note_on', channel=0, note=55, velocity=0, time=46),
    Message('note_on', channel=0, note=57, velocity=60, time=2),
    Message('note_on', channel=0, note=57, velocity=0, time=46),
    Message('note_on', channel=0, note=59, velocity=60, time=2),
    Message('note_on', channel=0, note=59, velocity=0, time=46),
    Message('note_on', channel=0, note=62, velocity=60, time=2),
    Message('note_on', channel=0, note=62, velocity=0, time=46),
    Message('note_on', channel=0, note=64, velocity=60, time=2),
    Message('note_on', channel=0, note=64, velocity=0, time=46),
    Message('note_on', channel=0, note=52, velocity=60, time=2),
    Message('note_on', channel=0, note=52, velocity=0, time=190),
    Message('note_on', channel=0, note=54, velocity=60, time=2),
    Message('note_on', channel=0, note=54, velocity=0, time=190),
    Message('note_on', channel=0, note=55, velocity=60, time=2),
    Message('note_on', channel=0, note=55, velocity=0, time=142),
    Message('note_on', channel=0, note=55, velocity=60, time=2),
    Message('note_on', channel=0, note=55, velocity=0, time=46),
    Message('note_on', channel=0, note=57, velocity=60, time=2),
    Message('note_on', channel=0, note=57, velocity=0, time=46),
    Message('note_on', channel=0, note=58, velocity=60, time=2),
    Message('note_on', channel=0, note=58, velocity=0, time=46),
    Message('note_on', channel=0, note=59, velocity=60, time=2),
    Message('note_on', channel=0, note=59, velocity=0, time=94),
    Message('note_on', channel=0, note=52, velocity=60, time=2),
    Message('note_on', channel=0, note=52, velocity=0, time=190),
    Message('note_on', channel=0, note=54, velocity=60, time=2),
    Message('note_on', channel=0, note=54, velocity=0, time=190),
    Message('note_on', channel=0, note=55, velocity=60, time=2),
    Message('note_on', channel=0, note=55, velocity=0, time=142),
    Message('note_on', channel=0, note=55, velocity=60, time=2),
    Message('note_on', channel=0, note=55, velocity=0, time=46),
    Message('note_on', channel=0, note=57, velocity=60, time=2),
    Message('note_on', channel=0, note=57, velocity=0, time=46),
    Message('note_on', channel=0, note=59, velocity=60, time=2),
    Message('note_on', channel=0, note=59, velocity=0, time=46),
    Message('note_on', channel=0, note=62, velocity=60, time=2),
    Message('note_on', channel=0, note=62, velocity=0, time=46),
    Message('note_on', channel=0, note=64, velocity=60, time=2),
    Message('note_on', channel=0, note=64, velocity=0, time=46),
    Message('note_on', channel=0, note=52, velocity=60, time=2),
    Message('note_on', channel=0, note=52, velocity=0, time=190),
    Message('note_on', channel=0, note=54, velocity=60, time=2),
    Message('note_on', channel=0, note=54, velocity=0, time=190),
    Message('note_on', channel=0, note=55, velocity=60, time=2),
    Message('note_on', channel=0, note=55, velocity=0, time=142),
    Message('note_on', channel=0, note=55, velocity=60, time=2),
    Message('note_on', channel=0, note=55, velocity=0, time=46),
    Message('note_on', channel=0, note=57, velocity=60, time=2),
    Message('note_on', channel=0, note=57, velocity=0, time=46),
    Message('note_on', channel=0, note=58, velocity=60, time=2),
    Message('note_on', channel=0, note=58, velocity=0, time=46),
    Message('note_on', channel=0, note=59, velocity=60, time=2),
    Message('note_on', channel=0, note=59, velocity=0, time=94),
    Message('program_change', channel=0, program=25, time=2),
    Message('note_on', channel=0, note=40, velocity=92, time=0),
    Message('note_on', channel=0, note=47, velocity=92, time=0),
    Message('note_on', channel=0, note=52, velocity=92, time=0),
    Message('note_on', channel=0, note=55, velocity=92, time=0),
    Message('note_on', channel=0, note=62, velocity=92, time=0),
    Message('note_on', channel=0, note=67, velocity=92, time=0),
    Message('note_on', channel=0, note=40, velocity=0, time=190),
    Message('note_on', channel=0, note=47, velocity=0, time=0),
    Message('note_on', channel=0, note=52, velocity=0, time=0),
    Message('note_on', channel=0, note=55, velocity=0, time=0),
    Message('note_on', channel=0, note=62, velocity=0, time=0),
    Message('note_on', channel=0, note=67, velocity=0, time=0),
    Message('note_on', channel=0, note=40, velocity=92, time=2),
    Message('note_on', channel=0, note=47, velocity=92, time=0),
    Message('note_on', channel=0, note=52, velocity=92, time=0),
    Message('note_on', channel=0, note=55, velocity=92, time=0),
    Message('note_on', channel=0, note=62, velocity=92, time=0),
    Message('note_on', channel=0, note=67, velocity=92, time=0),
    Message('note_on', channel=0, note=40, velocity=0, time=142),
    Message('note_on', channel=0, note=47, velocity=0, time=0),
    Message('note_on', channel=0, note=52, velocity=0, time=0),
    Message('note_on', channel=0, note=55, velocity=0, time=0),
    Message('note_on', channel=0, note=62, velocity=0, time=0),
    Message('note_on', channel=0, note=67, velocity=0, time=0),
    Message('note_on', channel=0, note=40, velocity=92, time=2),
    Message('note_on', channel=0, note=47, velocity=92, time=0),
    Message('note_on', channel=0, note=52, velocity=92, time=0),
    Message('note_on', channel=0, note=55, velocity=92, time=0),
    Message('note_on', channel=0, note=62, velocity=92, time=0),
    Message('note_on', channel=0, note=67, velocity=92, time=0),
    Message('note_on', channel=0, note=40, velocity=0, time=46),
    Message('note_on', channel=0, note=47, velocity=0, time=0),
    Message('note_on', channel=0, note=52, velocity=0, time=0),
    Message('note_on', channel=0, note=55, velocity=0, time=0),
    Message('note_on', channel=0, note=62, velocity=0, time=0),
    Message('note_on', channel=0, note=67, velocity=0, time=0),
    Message('note_on', channel=0, note=40, velocity=92, time=50),
    Message('note_on', channel=0, note=47, velocity=92, time=0),
    Message('note_on', channel=0, note=52, velocity=92, time=0),
    Message('note_on', channel=0, note=55, velocity=92, time=0),
    Message('note_on', channel=0, note=62, velocity=92, time=0),
    Message('note_on', channel=0, note=67, velocity=92, time=0),
    Message('note_on', channel=0, note=40, velocity=0, time=46),
    Message('note_on', channel=0, note=47, velocity=0, time=0),
    Message('note_on', channel=0, note=52, velocity=0, time=0),
    Message('note_on', channel=0, note=55, velocity=0, time=0),
    Message('note_on', channel=0, note=62, velocity=0, time=0),
    Message('note_on', channel=0, note=67, velocity=0, time=0),
    Message('note_on', channel=0, note=40, velocity=92, time=2),
    Message('note_on', channel=0, note=47, velocity=92, time=0),
    Message('note_on', channel=0, note=52, velocity=92, time=0),
    Message('note_on', channel=0, note=55, velocity=92, time=0),
    Message('note_on', channel=0, note=62, velocity=92, time=0),
    Message('note_on', channel=0, note=67, velocity=92, time=0),
    Message('note_on', channel=0, note=40, velocity=0, time=142),
    Message('note_on', channel=0, note=47, velocity=0, time=0),
    Message('note_on', channel=0, note=52, velocity=0, time=0),
    Message('note_on', channel=0, note=55, velocity=0, time=0),
    Message('note_on', channel=0, note=62, velocity=0, time=0),
    Message('note_on', channel=0, note=67, velocity=0, time=0),
    Message('note_on', channel=0, note=40, velocity=92, time=2),
    Message('note_on', channel=0, note=47, velocity=92, time=0),
    Message('note_on', channel=0, note=52, velocity=92, time=0),
    Message('note_on', channel=0, note=55, velocity=92, time=0),
    Message('note_on', channel=0, note=62, velocity=92, time=0),
    Message('note_on', channel=0, note=67, velocity=92, time=0),
    Message('note_on', channel=0, note=40, velocity=0, time=46),
    Message('note_on', channel=0, note=47, velocity=0, time=0),
    Message('note_on', channel=0, note=52, velocity=0, time=0),
    Message('note_on', channel=0, note=55, velocity=0, time=0),
    Message('note_on', channel=0, note=62, velocity=0, time=0),
    Message('note_on', channel=0, note=67, velocity=0, time=0),
    Message('note_on', channel=0, note=40, velocity=92, time=2),
    Message('note_on', channel=0, note=47, velocity=92, time=0),
    Message('note_on', channel=0, note=52, velocity=92, time=0),
    Message('note_on', channel=0, note=55, velocity=92, time=0),
    Message('note_on', channel=0, note=62, velocity=92, time=0),
    Message('note_on', channel=0, note=67, velocity=92, time=0),
    Message('note_on', channel=0, note=40, velocity=0, time=46),
    Message('note_on', channel=0, note=47, velocity=0, time=0),
    Message('note_on', channel=0, note=52, velocity=0, time=0),
    Message('note_on', channel=0, note=55, velocity=0, time=0),
    Message('note_on', channel=0, note=62, velocity=0, time=0),
    Message('note_on', channel=0, note=67, velocity=0, time=0),
    Message('note_on', channel=0, note=50, velocity=92, time=2),
    Message('note_on', channel=0, note=55, velocity=92, time=0),
    Message('note_on', channel=0, note=59, velocity=92, time=0),
    Message('note_on', channel=0, note=64, velocity=92, time=0),
    Message('note_on', channel=0, note=50, velocity=0, time=46),
    Message('note_on', channel=0, note=55, velocity=0, time=0),
    Message('note_on', channel=0, note=59, velocity=0, time=0),
    Message('note_on', channel=0, note=64, velocity=0, time=0),
    Message('note_on', channel=0, note=40, velocity=92, time=2),
    Message('note_on', channel=0, note=47, velocity=92, time=0),
    Message('note_on', channel=0, note=52, velocity=92, time=0),
    Message('note_on', channel=0, note=55, velocity=92, time=0),
    Message('note_on', channel=0, note=59, velocity=92, time=0),
    Message('note_on', channel=0, note=62, velocity=92, time=0),
    Message('note_on', channel=0, note=40, velocity=0, time=190),
    Message('note_on', channel=0, note=47, velocity=0, time=0),
    Message('note_on', channel=0, note=52, velocity=0, time=0),
    Message('note_on', channel=0, note=55, velocity=0, time=0),
    Message('note_on', channel=0, note=59, velocity=0, time=0),
    Message('note_on', channel=0, note=62, velocity=0, time=0),
    Message('note_on', channel=0, note=40, velocity=92, time=2),
    Message('note_on', channel=0, note=47, velocity=92, time=0),
    Message('note_on', channel=0, note=52, velocity=92, time=0),
    Message('note_on', channel=0, note=55, velocity=92, time=0),
    Message('note_on', channel=0, note=62, velocity=92, time=0),
    Message('note_on', channel=0, note=67, velocity=92, time=0),
    Message('note_on', channel=0, note=40, velocity=0, time=46),
    Message('note_on', channel=0, note=47, velocity=0, time=0),
    Message('note_on', channel=0, note=52, velocity=0, time=0),
    Message('note_on', channel=0, note=55, velocity=0, time=0),
    Message('note_on', channel=0, note=62, velocity=0, time=0),
    Message('note_on', channel=0, note=67, velocity=0, time=0),
    Message('note_on', channel=0, note=40, velocity=92, time=2),
    Message('note_on', channel=0, note=47, velocity=92, time=0),
    Message('note_on', channel=0, note=52, velocity=92, time=0),
    Message('note_on', channel=0, note=55, velocity=92, time=0),
    Message('note_on', channel=0, note=62, velocity=92, time=0),
    Message('note_on', channel=0, note=67, velocity=92, time=0),
    Message('note_on', channel=0, note=40, velocity=0, time=46),
    Message('note_on', channel=0, note=47, velocity=0, time=0),
    Message('note_on', channel=0, note=52, velocity=0, time=0),
    Message('note_on', channel=0, note=55, velocity=0, time=0),
    Message('note_on', channel=0, note=62, velocity=0, time=0),
    Message('note_on', channel=0, note=67, velocity=0, time=0),
    Message('note_on', channel=0, note=40, velocity=92, time=2),
    Message('note_on', channel=0, note=47, velocity=92, time=0),
    Message('note_on', channel=0, note=52, velocity=92, time=0),
    Message('note_on', channel=0, note=55, velocity=92, time=0),
    Message('note_on', channel=0, note=62, velocity=92, time=0),
    Message('note_on', channel=0, note=67, velocity=92, time=0),
    Message('note_on', channel=0, note=40, velocity=0, time=46),
    Message('note_on', channel=0, note=47, velocity=0, time=0),
    Message('note_on', channel=0, note=52, velocity=0, time=0),
    Message('note_on', channel=0, note=55, velocity=0, time=0),
    Message('note_on', channel=0, note=62, velocity=0, time=0),
    Message('note_on', channel=0, note=67, velocity=0, time=0),
    Message('note_on', channel=0, note=40, velocity=92, time=2),
    Message('note_on', channel=0, note=47, velocity=92, time=0),
    Message('note_on', channel=0, note=52, velocity=92, time=0),
    Message('note_on', channel=0, note=55, velocity=92, time=0),
    Message('note_on', channel=0, note=62, velocity=92, time=0),
    Message('note_on', channel=0, note=67, velocity=92, time=0),
    Message('note_on', channel=0, note=40, velocity=0, time=384),
    Message('note_on', channel=0, note=47, velocity=0, time=0),
    Message('note_on', channel=0, note=52, velocity=0, time=0),
    Message('note_on', channel=0, note=55, velocity=0, time=0),
    Message('note_on', channel=0, note=62, velocity=0, time=0),
    Message('note_on', channel=0, note=67, velocity=0, time=0),
    Message('control_change', channel=0, control=64, value=0, time=48),
    Message('note_on', channel=0, note=40, velocity=92, time=0),
    Message('note_on', channel=0, note=47, velocity=92, time=0),
    Message('note_on', channel=0, note=52, velocity=92, time=0),
    Message('note_on', channel=0, note=55, velocity=92, time=0),
    Message('note_on', channel=0, note=62, velocity=92, time=0),
    Message('note_on', channel=0, note=67, velocity=92, time=0),
    Message('note_on', channel=0, note=40, velocity=0, time=190),
    Message('note_on', channel=0, note=47, velocity=0, time=0),
    Message('note_on', channel=0, note=52, velocity=0, time=0),
    Message('note_on', channel=0, note=55, velocity=0, time=0),
    Message('note_on', channel=0, note=62, velocity=0, time=0),
    Message('note_on', channel=0, note=67, velocity=0, time=0),
    Message('note_on', channel=0, note=40, velocity=92, time=2),
    Message('note_on', channel=0, note=47, velocity=92, time=0),
    Message('note_on', channel=0, note=52, velocity=92, time=0),
    Message('note_on', channel=0, note=55, velocity=92, time=0),
    Message('note_on', channel=0, note=62, velocity=92, time=0),
    Message('note_on', channel=0, note=67, velocity=92, time=0),
    Message('note_on', channel=0, note=40, velocity=0, time=142),
    Message('note_on', channel=0, note=47, velocity=0, time=0),
    Message('note_on', channel=0, note=52, velocity=0, time=0),
    Message('note_on', channel=0, note=55, velocity=0, time=0),
    Message('note_on', channel=0, note=62, velocity=0, time=0),
    Message('note_on', channel=0, note=67, velocity=0, time=0),
    Message('note_on', channel=0, note=40, velocity=92, time=2),
    Message('note_on', channel=0, note=47, velocity=92, time=0),
    Message('note_on', channel=0, note=52, velocity=92, time=0),
    Message('note_on', channel=0, note=55, velocity=92, time=0),
    Message('note_on', channel=0, note=62, velocity=92, time=0),
    Message('note_on', channel=0, note=67, velocity=92, time=0),
    Message('note_on', channel=0, note=40, velocity=0, time=46),
    Message('note_on', channel=0, note=47, velocity=0, time=0),
    Message('note_on', channel=0, note=52, velocity=0, time=0),
    Message('note_on', channel=0, note=55, velocity=0, time=0),
    Message('note_on', channel=0, note=62, velocity=0, time=0),
    Message('note_on', channel=0, note=67, velocity=0, time=0),
    Message('note_on', channel=0, note=40, velocity=92, time=50),
    Message('note_on', channel=0, note=47, velocity=92, time=0),
    Message('note_on', channel=0, note=52, velocity=92, time=0),
    Message('note_on', channel=0, note=55, velocity=92, time=0),
    Message('note_on', channel=0, note=62, velocity=92, time=0),
    Message('note_on', channel=0, note=67, velocity=92, time=0),
    Message('note_on', channel=0, note=40, velocity=0, time=46),
    Message('note_on', channel=0, note=47, velocity=0, time=0),
    Message('note_on', channel=0, note=52, velocity=0, time=0),
    Message('note_on', channel=0, note=55, velocity=0, time=0),
    Message('note_on', channel=0, note=62, velocity=0, time=0),
    Message('note_on', channel=0, note=67, velocity=0, time=0),
    Message('note_on', channel=0, note=40, velocity=92, time=2),
    Message('note_on', channel=0, note=47, velocity=92, time=0),
    Message('note_on', channel=0, note=52, velocity=92, time=0),
    Message('note_on', channel=0, note=55, velocity=92, time=0),
    Message('note_on', channel=0, note=62, velocity=92, time=0),
    Message('note_on', channel=0, note=67, velocity=92, time=0),
    Message('note_on', channel=0, note=40, velocity=0, time=142),
    Message('note_on', channel=0, note=47, velocity=0, time=0),
    Message('note_on', channel=0, note=52, velocity=0, time=0),
    Message('note_on', channel=0, note=55, velocity=0, time=0),
    Message('note_on', channel=0, note=62, velocity=0, time=0),
    Message('note_on', channel=0, note=67, velocity=0, time=0),
    Message('note_on', channel=0, note=40, velocity=92, time=2),
    Message('note_on', channel=0, note=47, velocity=92, time=0),
    Message('note_on', channel=0, note=52, velocity=92, time=0),
    Message('note_on', channel=0, note=55, velocity=92, time=0),
    Message('note_on', channel=0, note=62, velocity=92, time=0),
    Message('note_on', channel=0, note=67, velocity=92, time=0),
    Message('note_on', channel=0, note=40, velocity=0, time=46),
    Message('note_on', channel=0, note=47, velocity=0, time=0),
    Message('note_on', channel=0, note=52, velocity=0, time=0),
    Message('note_on', channel=0, note=55, velocity=0, time=0),
    Message('note_on', channel=0, note=62, velocity=0, time=0),
    Message('note_on', channel=0, note=67, velocity=0, time=0),
    Message('note_on', channel=0, note=40, velocity=92, time=2),
    Message('note_on', channel=0, note=47, velocity=92, time=0),
    Message('note_on', channel=0, note=52, velocity=92, time=0),
    Message('note_on', channel=0, note=55, velocity=92, time=0),
    Message('note_on', channel=0, note=62, velocity=92, time=0),
    Message('note_on', channel=0, note=67, velocity=92, time=0),
    Message('note_on', channel=0, note=40, velocity=0, time=46),
    Message('note_on', channel=0, note=47, velocity=0, time=0),
    Message('note_on', channel=0, note=52, velocity=0, time=0),
    Message('note_on', channel=0, note=55, velocity=0, time=0),
    Message('note_on', channel=0, note=62, velocity=0, time=0),
    Message('note_on', channel=0, note=67, velocity=0, time=0),
    Message('note_on', channel=0, note=50, velocity=92, time=2),
    Message('note_on', channel=0, note=55, velocity=92, time=0),
    Message('note_on', channel=0, note=59, velocity=92, time=0),
    Message('note_on', channel=0, note=64, velocity=92, time=0),
    Message('note_on', channel=0, note=50, velocity=0, time=46),
    Message('note_on', channel=0, note=55, velocity=0, time=0),
    Message('note_on', channel=0, note=59, velocity=0, time=0),
    Message('note_on', channel=0, note=64, velocity=0, time=0),
    Message('note_on', channel=0, note=48, velocity=92, time=2),
    Message('note_on', channel=0, note=52, velocity=92, time=0),
    Message('note_on', channel=0, note=55, velocity=92, time=0),
    Message('note_on', channel=0, note=60, velocity=92, time=0),
    Message('note_on', channel=0, note=64, velocity=92, time=0),
    Message('note_on', channel=0, note=48, velocity=0, time=190),
    Message('note_on', channel=0, note=52, velocity=0, time=0),
    Message('note_on', channel=0, note=55, velocity=0, time=0),
    Message('note_on', channel=0, note=60, velocity=0, time=0),
    Message('note_on', channel=0, note=64, velocity=0, time=0),
    Message('note_on', channel=0, note=48, velocity=92, time=2),
    Message('note_on', channel=0, note=52, velocity=92, time=0),
    Message('note_on', channel=0, note=55, velocity=92, time=0),
    Message('note_on', channel=0, note=60, velocity=92, time=0),
    Message('note_on', channel=0, note=64, velocity=92, time=0),
    Message('note_on', channel=0, note=48, velocity=0, time=142),
    Message('note_on', channel=0, note=52, velocity=0, time=0),
    Message('note_on', channel=0, note=55, velocity=0, time=0),
    Message('note_on', channel=0, note=60, velocity=0, time=0),
    Message('note_on', channel=0, note=64, velocity=0, time=0),
    Message('note_on', channel=0, note=48, velocity=92, time=2),
    Message('note_on', channel=0, note=52, velocity=92, time=0),
    Message('note_on', channel=0, note=55, velocity=92, time=0),
    Message('note_on', channel=0, note=60, velocity=92, time=0),
    Message('note_on', channel=0, note=64, velocity=92, time=0),
    Message('note_on', channel=0, note=48, velocity=0, time=46),
    Message('note_on', channel=0, note=52, velocity=0, time=0),
    Message('note_on', channel=0, note=55, velocity=0, time=0),
    Message('note_on', channel=0, note=60, velocity=0, time=0),
    Message('note_on', channel=0, note=64, velocity=0, time=0),
    Message('note_on', channel=0, note=47, velocity=92, time=50),
    Message('note_on', channel=0, note=51, velocity=92, time=0),
    Message('note_on', channel=0, note=57, velocity=92, time=0),
    Message('note_on', channel=0, note=59, velocity=92, time=0),
    Message('note_on', channel=0, note=66, velocity=92, time=0),
    Message('note_on', channel=0, note=47, velocity=0, time=46),
    Message('note_on', channel=0, note=51, velocity=0, time=0),
    Message('note_on', channel=0, note=57, velocity=0, time=0),
    Message('note_on', channel=0, note=59, velocity=0, time=0),
    Message('note_on', channel=0, note=66, velocity=0, time=0),
    Message('note_on', channel=0, note=47, velocity=92, time=2),
    Message('note_on', channel=0, note=51, velocity=92, time=0),
    Message('note_on', channel=0, note=57, velocity=92, time=0),
    Message('note_on', channel=0, note=59, velocity=92, time=0),
    Message('note_on', channel=0, note=66, velocity=92, time=0),
    Message('note_on', channel=0, note=47, velocity=0, time=94),
    Message('note_on', channel=0, note=51, velocity=0, time=0),
    Message('note_on', channel=0, note=57, velocity=0, time=0),
    Message('note_on', channel=0, note=59, velocity=0, time=0),
    Message('note_on', channel=0, note=66, velocity=0, time=0),
    Message('note_on', channel=0, note=47, velocity=92, time=2),
    Message('note_on', channel=0, note=51, velocity=92, time=0),
    Message('note_on', channel=0, note=57, velocity=92, time=0),
    Message('note_on', channel=0, note=59, velocity=92, time=0),
    Message('note_on', channel=0, note=66, velocity=92, time=0),
    Message('note_on', channel=0, note=47, velocity=0, time=190),
    Message('note_on', channel=0, note=51, velocity=0, time=0),
    Message('note_on', channel=0, note=57, velocity=0, time=0),
    Message('note_on', channel=0, note=59, velocity=0, time=0),
    Message('note_on', channel=0, note=66, velocity=0, time=0),
    Message('note_on', channel=0, note=40, velocity=92, time=2),
    Message('note_on', channel=0, note=47, velocity=92, time=0),
    Message('note_on', channel=0, note=52, velocity=92, time=0),
    Message('note_on', channel=0, note=55, velocity=92, time=0),
    Message('note_on', channel=0, note=59, velocity=92, time=0),
    Message('note_on', channel=0, note=64, velocity=92, time=0),
    Message('note_on', channel=0, note=40, velocity=0, time=190),
    Message('note_on', channel=0, note=47, velocity=0, time=0),
    Message('note_on', channel=0, note=52, velocity=0, time=0),
    Message('note_on', channel=0, note=55, velocity=0, time=0),
    Message('note_on', channel=0, note=59, velocity=0, time=0),
    Message('note_on', channel=0, note=64, velocity=0, time=0),
    Message('note_on', channel=0, note=40, velocity=92, time=2),
    Message('note_on', channel=0, note=47, velocity=92, time=0),
    Message('note_on', channel=0, note=52, velocity=92, time=0),
    Message('note_on', channel=0, note=55, velocity=92, time=0),
    Message('note_on', channel=0, note=62, velocity=92, time=0),
    Message('note_on', channel=0, note=67, velocity=92, time=0),
    Message('note_on', channel=0, note=40, velocity=0, time=142),
    Message('note_on', channel=0, note=47, velocity=0, time=0),
    Message('note_on', channel=0, note=52, velocity=0, time=0),
    Message('note_on', channel=0, note=55, velocity=0, time=0),
    Message('note_on', channel=0, note=62, velocity=0, time=0),
    Message('note_on', channel=0, note=67, velocity=0, time=0),
    Message('note_on', channel=0, note=40, velocity=92, time=2),
    Message('note_on', channel=0, note=47, velocity=92, time=0),
    Message('note_on', channel=0, note=52, velocity=92, time=0),
    Message('note_on', channel=0, note=55, velocity=92, time=0),
    Message('note_on', channel=0, note=62, velocity=92, time=0),
    Message('note_on', channel=0, note=67, velocity=92, time=0),
    Message('note_on', channel=0, note=40, velocity=0, time=46),
    Message('note_on', channel=0, note=47, velocity=0, time=0),
    Message('note_on', channel=0, note=52, velocity=0, time=0),
    Message('note_on', channel=0, note=55, velocity=0, time=0),
    Message('note_on', channel=0, note=62, velocity=0, time=0),
    Message('note_on', channel=0, note=67, velocity=0, time=0),
    Message('note_on', channel=0, note=40, velocity=92, time=50),
    Message('note_on', channel=0, note=47, velocity=92, time=0),
    Message('note_on', channel=0, note=52, velocity=92, time=0),
    Message('note_on', channel=0, note=55, velocity=92, time=0),
    Message('note_on', channel=0, note=62, velocity=92, time=0),
    Message('note_on', channel=0, note=67, velocity=92, time=0),
    Message('note_on', channel=0, note=40, velocity=0, time=46),
    Message('note_on', channel=0, note=47, velocity=0, time=0),
    Message('note_on', channel=0, note=52, velocity=0, time=0),
    Message('note_on', channel=0, note=55, velocity=0, time=0),
    Message('note_on', channel=0, note=62, velocity=0, time=0),
    Message('note_on', channel=0, note=67, velocity=0, time=0),
    Message('note_on', channel=0, note=40, velocity=92, time=2),
    Message('note_on', channel=0, note=47, velocity=92, time=0),
    Message('note_on', channel=0, note=52, velocity=92, time=0),
    Message('note_on', channel=0, note=55, velocity=92, time=0),
    Message('note_on', channel=0, note=62, velocity=92, time=0),
    Message('note_on', channel=0, note=67, velocity=92, time=0),
    Message('note_on', channel=0, note=40, velocity=0, time=142),
    Message('note_on', channel=0, note=47, velocity=0, time=0),
    Message('note_on', channel=0, note=52, velocity=0, time=0),
    Message('note_on', channel=0, note=55, velocity=0, time=0),
    Message('note_on', channel=0, note=62, velocity=0, time=0),
    Message('note_on', channel=0, note=67, velocity=0, time=0),
    Message('note_on', channel=0, note=40, velocity=92, time=2),
    Message('note_on', channel=0, note=47, velocity=92, time=0),
    Message('note_on', channel=0, note=52, velocity=92, time=0),
    Message('note_on', channel=0, note=55, velocity=92, time=0),
    Message('note_on', channel=0, note=62, velocity=92, time=0),
    Message('note_on', channel=0, note=67, velocity=92, time=0),
    Message('note_on', channel=0, note=40, velocity=0, time=46),
    Message('note_on', channel=0, note=47, velocity=0, time=0),
    Message('note_on', channel=0, note=52, velocity=0, time=0),
    Message('note_on', channel=0, note=55, velocity=0, time=0),
    Message('note_on', channel=0, note=62, velocity=0, time=0),
    Message('note_on', channel=0, note=67, velocity=0, time=0),
    Message('note_on', channel=0, note=40, velocity=92, time=2),
    Message('note_on', channel=0, note=47, velocity=92, time=0),
    Message('note_on', channel=0, note=52, velocity=92, time=0),
    Message('note_on', channel=0, note=55, velocity=92, time=0),
    Message('note_on', channel=0, note=62, velocity=92, time=0),
    Message('note_on', channel=0, note=67, velocity=92, time=0),
    Message('note_on', channel=0, note=40, velocity=0, time=46),
    Message('note_on', channel=0, note=47, velocity=0, time=0),
    Message('note_on', channel=0, note=52, velocity=0, time=0),
    Message('note_on', channel=0, note=55, velocity=0, time=0),
    Message('note_on', channel=0, note=62, velocity=0, time=0),
    Message('note_on', channel=0, note=67, velocity=0, time=0),
    Message('note_on', channel=0, note=50, velocity=92, time=2),
    Message('note_on', channel=0, note=55, velocity=92, time=0),
    Message('note_on', channel=0, note=59, velocity=92, time=0),
    Message('note_on', channel=0, note=64, velocity=92, time=0),
    Message('note_on', channel=0, note=50, velocity=0, time=46),
    Message('note_on', channel=0, note=55, velocity=0, time=0),
    Message('note_on', channel=0, note=59, velocity=0, time=0),
    Message('note_on', channel=0, note=64, velocity=0, time=0),
    Message('note_on', channel=0, note=48, velocity=92, time=2),
    Message('note_on', channel=0, note=52, velocity=92, time=0),
    Message('note_on', channel=0, note=55, velocity=92, time=0),
    Message('note_on', channel=0, note=60, velocity=92, time=0),
    Message('note_on', channel=0, note=64, velocity=92, time=0),
    Message('note_on', channel=0, note=48, velocity=0, time=190),
    Message('note_on', channel=0, note=52, velocity=0, time=0),
    Message('note_on', channel=0, note=55, velocity=0, time=0),
    Message('note_on', channel=0, note=60, velocity=0, time=0),
    Message('note_on', channel=0, note=64, velocity=0, time=0),
    Message('note_on', channel=0, note=48, velocity=92, time=2),
    Message('note_on', channel=0, note=52, velocity=92, time=0),
    Message('note_on', channel=0, note=55, velocity=92, time=0),
    Message('note_on', channel=0, note=60, velocity=92, time=0),
    Message('note_on', channel=0, note=64, velocity=92, time=0),
    Message('note_on', channel=0, note=48, velocity=0, time=142),
    Message('note_on', channel=0, note=52, velocity=0, time=0),
    Message('note_on', channel=0, note=55, velocity=0, time=0),
    Message('note_on', channel=0, note=60, velocity=0, time=0),
    Message('note_on', channel=0, note=64, velocity=0, time=0),
    Message('note_on', channel=0, note=48, velocity=92, time=2),
    Message('note_on', channel=0, note=52, velocity=92, time=0),
    Message('note_on', channel=0, note=55, velocity=92, time=0),
    Message('note_on', channel=0, note=60, velocity=92, time=0),
    Message('note_on', channel=0, note=64, velocity=92, time=0),
    Message('note_on', channel=0, note=48, velocity=0, time=46),
    Message('note_on', channel=0, note=52, velocity=0, time=0),
    Message('note_on', channel=0, note=55, velocity=0, time=0),
    Message('note_on', channel=0, note=60, velocity=0, time=0),
    Message('note_on', channel=0, note=64, velocity=0, time=0),
    Message('note_on', channel=0, note=47, velocity=92, time=50),
    Message('note_on', channel=0, note=51, velocity=92, time=0),
    Message('note_on', channel=0, note=57, velocity=92, time=0),
    Message('note_on', channel=0, note=59, velocity=92, time=0),
    Message('note_on', channel=0, note=66, velocity=92, time=0),
    Message('note_on', channel=0, note=47, velocity=0, time=46),
    Message('note_on', channel=0, note=51, velocity=0, time=0),
    Message('note_on', channel=0, note=57, velocity=0, time=0),
    Message('note_on', channel=0, note=59, velocity=0, time=0),
    Message('note_on', channel=0, note=66, velocity=0, time=0),
    Message('note_on', channel=0, note=47, velocity=92, time=2),
    Message('note_on', channel=0, note=51, velocity=92, time=0),
    Message('note_on', channel=0, note=57, velocity=92, time=0),
    Message('note_on', channel=0, note=59, velocity=92, time=0),
    Message('note_on', channel=0, note=66, velocity=92, time=0),
    Message('note_on', channel=0, note=47, velocity=0, time=94),
    Message('note_on', channel=0, note=51, velocity=0, time=0),
    Message('note_on', channel=0, note=57, velocity=0, time=0),
    Message('note_on', channel=0, note=59, velocity=0, time=0),
    Message('note_on', channel=0, note=66, velocity=0, time=0),
    Message('note_on', channel=0, note=47, velocity=92, time=2),
    Message('note_on', channel=0, note=51, velocity=92, time=0),
    Message('note_on', channel=0, note=57, velocity=92, time=0),
    Message('note_on', channel=0, note=59, velocity=92, time=0),
    Message('note_on', channel=0, note=66, velocity=92, time=0),
    Message('note_on', channel=0, note=47, velocity=0, time=190),
    Message('note_on', channel=0, note=51, velocity=0, time=0),
    Message('note_on', channel=0, note=57, velocity=0, time=0),
    Message('note_on', channel=0, note=59, velocity=0, time=0),
    Message('note_on', channel=0, note=66, velocity=0, time=0),
    Message('note_on', channel=0, note=40, velocity=92, time=2),
    Message('note_on', channel=0, note=47, velocity=92, time=0),
    Message('note_on', channel=0, note=52, velocity=92, time=0),
    Message('note_on', channel=0, note=55, velocity=92, time=0),
    Message('note_on', channel=0, note=59, velocity=92, time=0),
    Message('note_on', channel=0, note=64, velocity=92, time=0),
    Message('note_on', channel=0, note=40, velocity=0, time=190),
    Message('note_on', channel=0, note=47, velocity=0, time=0),
    Message('note_on', channel=0, note=52, velocity=0, time=0),
    Message('note_on', channel=0, note=55, velocity=0, time=0),
    Message('note_on', channel=0, note=59, velocity=0, time=0),
    Message('note_on', channel=0, note=64, velocity=0, time=0),
    Message('note_on', channel=0, note=40, velocity=92, time=2),
    Message('note_on', channel=0, note=47, velocity=92, time=0),
    Message('note_on', channel=0, note=52, velocity=92, time=0),
    Message('note_on', channel=0, note=55, velocity=92, time=0),
    Message('note_on', channel=0, note=62, velocity=92, time=0),
    Message('note_on', channel=0, note=67, velocity=92, time=0),
    Message('note_on', channel=0, note=40, velocity=0, time=142),
    Message('note_on', channel=0, note=47, velocity=0, time=0),
    Message('note_on', channel=0, note=52, velocity=0, time=0),
    Message('note_on', channel=0, note=55, velocity=0, time=0),
    Message('note_on', channel=0, note=62, velocity=0, time=0),
    Message('note_on', channel=0, note=67, velocity=0, time=0),
    Message('note_on', channel=0, note=40, velocity=92, time=2),
    Message('note_on', channel=0, note=47, velocity=92, time=0),
    Message('note_on', channel=0, note=52, velocity=92, time=0),
    Message('note_on', channel=0, note=55, velocity=92, time=0),
    Message('note_on', channel=0, note=62, velocity=92, time=0),
    Message('note_on', channel=0, note=67, velocity=92, time=0),
    Message('note_on', channel=0, note=40, velocity=0, time=46),
    Message('note_on', channel=0, note=47, velocity=0, time=0),
    Message('note_on', channel=0, note=52, velocity=0, time=0),
    Message('note_on', channel=0, note=55, velocity=0, time=0),
    Message('note_on', channel=0, note=62, velocity=0, time=0),
    Message('note_on', channel=0, note=67, velocity=0, time=0),
    Message('note_on', channel=0, note=40, velocity=92, time=50),
    Message('note_on', channel=0, note=47, velocity=92, time=0),
    Message('note_on', channel=0, note=52, velocity=92, time=0),
    Message('note_on', channel=0, note=55, velocity=92, time=0),
    Message('note_on', channel=0, note=62, velocity=92, time=0),
    Message('note_on', channel=0, note=67, velocity=92, time=0),
    Message('note_on', channel=0, note=40, velocity=0, time=46),
    Message('note_on', channel=0, note=47, velocity=0, time=0),
    Message('note_on', channel=0, note=52, velocity=0, time=0),
    Message('note_on', channel=0, note=55, velocity=0, time=0),
    Message('note_on', channel=0, note=62, velocity=0, time=0),
    Message('note_on', channel=0, note=67, velocity=0, time=0),
    Message('note_on', channel=0, note=40, velocity=92, time=2),
    Message('note_on', channel=0, note=47, velocity=92, time=0),
    Message('note_on', channel=0, note=52, velocity=92, time=0),
    Message('note_on', channel=0, note=55, velocity=92, time=0),
    Message('note_on', channel=0, note=62, velocity=92, time=0),
    Message('note_on', channel=0, note=67, velocity=92, time=0),
    Message('note_on', channel=0, note=40, velocity=0, time=142),
    Message('note_on', channel=0, note=47, velocity=0, time=0),
    Message('note_on', channel=0, note=52, velocity=0, time=0),
    Message('note_on', channel=0, note=55, velocity=0, time=0),
    Message('note_on', channel=0, note=62, velocity=0, time=0),
    Message('note_on', channel=0, note=67, velocity=0, time=0),
    Message('note_on', channel=0, note=40, velocity=92, time=2),
    Message('note_on', channel=0, note=47, velocity=92, time=0),
    Message('note_on', channel=0, note=52, velocity=92, time=0),
    Message('note_on', channel=0, note=55, velocity=92, time=0),
    Message('note_on', channel=0, note=62, velocity=92, time=0),
    Message('note_on', channel=0, note=67, velocity=92, time=0),
    Message('note_on', channel=0, note=40, velocity=0, time=46),
    Message('note_on', channel=0, note=47, velocity=0, time=0),
    Message('note_on', channel=0, note=52, velocity=0, time=0),
    Message('note_on', channel=0, note=55, velocity=0, time=0),
    Message('note_on', channel=0, note=62, velocity=0, time=0),
    Message('note_on', channel=0, note=67, velocity=0, time=0),
    Message('note_on', channel=0, note=40, velocity=92, time=2),
    Message('note_on', channel=0, note=47, velocity=92, time=0),
    Message('note_on', channel=0, note=52, velocity=92, time=0),
    Message('note_on', channel=0, note=55, velocity=92, time=0),
    Message('note_on', channel=0, note=62, velocity=92, time=0),
    Message('note_on', channel=0, note=67, velocity=92, time=0),
    Message('note_on', channel=0, note=40, velocity=0, time=46),
    Message('note_on', channel=0, note=47, velocity=0, time=0),
    Message('note_on', channel=0, note=52, velocity=0, time=0),
    Message('note_on', channel=0, note=55, velocity=0, time=0),
    Message('note_on', channel=0, note=62, velocity=0, time=0),
    Message('note_on', channel=0, note=67, velocity=0, time=0),
    Message('note_on', channel=0, note=50, velocity=92, time=2),
    Message('note_on', channel=0, note=55, velocity=92, time=0),
    Message('note_on', channel=0, note=59, velocity=92, time=0),
    Message('note_on', channel=0, note=64, velocity=92, time=0),
    Message('note_on', channel=0, note=50, velocity=0, time=46),
    Message('note_on', channel=0, note=55, velocity=0, time=0),
    Message('note_on', channel=0, note=59, velocity=0, time=0),
    Message('note_on', channel=0, note=64, velocity=0, time=0),
    Message('note_on', channel=0, note=48, velocity=92, time=2),
    Message('note_on', channel=0, note=52, velocity=92, time=0),
    Message('note_on', channel=0, note=55, velocity=92, time=0),
    Message('note_on', channel=0, note=60, velocity=92, time=0),
    Message('note_on', channel=0, note=64, velocity=92, time=0),
    Message('note_on', channel=0, note=48, velocity=0, time=190),
    Message('note_on', channel=0, note=52, velocity=0, time=0),
    Message('note_on', channel=0, note=55, velocity=0, time=0),
    Message('note_on', channel=0, note=60, velocity=0, time=0),
    Message('note_on', channel=0, note=64, velocity=0, time=0),
    Message('note_on', channel=0, note=48, velocity=92, time=2),
    Message('note_on', channel=0, note=52, velocity=92, time=0),
    Message('note_on', channel=0, note=55, velocity=92, time=0),
    Message('note_on', channel=0, note=60, velocity=92, time=0),
    Message('note_on', channel=0, note=64, velocity=92, time=0),
    Message('note_on', channel=0, note=48, velocity=0, time=142),
    Message('note_on', channel=0, note=52, velocity=0, time=0),
    Message('note_on', channel=0, note=55, velocity=0, time=0),
    Message('note_on', channel=0, note=60, velocity=0, time=0),
    Message('note_on', channel=0, note=64, velocity=0, time=0),
    Message('note_on', channel=0, note=48, velocity=92, time=2),
    Message('note_on', channel=0, note=52, velocity=92, time=0),
    Message('note_on', channel=0, note=55, velocity=92, time=0),
    Message('note_on', channel=0, note=60, velocity=92, time=0),
    Message('note_on', channel=0, note=64, velocity=92, time=0),
    Message('note_on', channel=0, note=48, velocity=0, time=46),
    Message('note_on', channel=0, note=52, velocity=0, time=0),
    Message('note_on', channel=0, note=55, velocity=0, time=0),
    Message('note_on', channel=0, note=60, velocity=0, time=0),
    Message('note_on', channel=0, note=64, velocity=0, time=0),
    Message('note_on', channel=0, note=47, velocity=92, time=50),
    Message('note_on', channel=0, note=51, velocity=92, time=0),
    Message('note_on', channel=0, note=57, velocity=92, time=0),
    Message('note_on', channel=0, note=59, velocity=92, time=0),
    Message('note_on', channel=0, note=66, velocity=92, time=0),
    Message('note_on', channel=0, note=47, velocity=0, time=46),
    Message('note_on', channel=0, note=51, velocity=0, time=0),
    Message('note_on', channel=0, note=57, velocity=0, time=0),
    Message('note_on', channel=0, note=59, velocity=0, time=0),
    Message('note_on', channel=0, note=66, velocity=0, time=0),
    Message('note_on', channel=0, note=47, velocity=92, time=2),
    Message('note_on', channel=0, note=51, velocity=92, time=0),
    Message('note_on', channel=0, note=57, velocity=92, time=0),
    Message('note_on', channel=0, note=59, velocity=92, time=0),
    Message('note_on', channel=0, note=66, velocity=92, time=0),
    Message('note_on', channel=0, note=47, velocity=0, time=94),
    Message('note_on', channel=0, note=51, velocity=0, time=0),
    Message('note_on', channel=0, note=57, velocity=0, time=0),
    Message('note_on', channel=0, note=59, velocity=0, time=0),
    Message('note_on', channel=0, note=66, velocity=0, time=0),
    Message('note_on', channel=0, note=47, velocity=92, time=2),
    Message('note_on', channel=0, note=51, velocity=92, time=0),
    Message('note_on', channel=0, note=57, velocity=92, time=0),
    Message('note_on', channel=0, note=59, velocity=92, time=0),
    Message('note_on', channel=0, note=66, velocity=92, time=0),
    Message('note_on', channel=0, note=47, velocity=0, time=190),
    Message('note_on', channel=0, note=51, velocity=0, time=0),
    Message('note_on', channel=0, note=57, velocity=0, time=0),
    Message('note_on', channel=0, note=59, velocity=0, time=0),
    Message('note_on', channel=0, note=66, velocity=0, time=0),
    Message('note_on', channel=0, note=40, velocity=92, time=2),
    Message('note_on', channel=0, note=47, velocity=92, time=0),
    Message('note_on', channel=0, note=52, velocity=92, time=0),
    Message('note_on', channel=0, note=55, velocity=92, time=0),
    Message('note_on', channel=0, note=59, velocity=92, time=0),
    Message('note_on', channel=0, note=64, velocity=92, time=0),
    Message('note_on', channel=0, note=40, velocity=0, time=190),
    Message('note_on', channel=0, note=47, velocity=0, time=0),
    Message('note_on', channel=0, note=52, velocity=0, time=0),
    Message('note_on', channel=0, note=55, velocity=0, time=0),
    Message('note_on', channel=0, note=59, velocity=0, time=0),
    Message('note_on', channel=0, note=64, velocity=0, time=0),
    Message('note_on', channel=0, note=40, velocity=92, time=2),
    Message('note_on', channel=0, note=47, velocity=92, time=0),
    Message('note_on', channel=0, note=52, velocity=92, time=0),
    Message('note_on', channel=0, note=55, velocity=92, time=0),
    Message('note_on', channel=0, note=62, velocity=92, time=0),
    Message('note_on', channel=0, note=67, velocity=92, time=0),
    Message('note_on', channel=0, note=40, velocity=0, time=142),
    Message('note_on', channel=0, note=47, velocity=0, time=0),
    Message('note_on', channel=0, note=52, velocity=0, time=0),
    Message('note_on', channel=0, note=55, velocity=0, time=0),
    Message('note_on', channel=0, note=62, velocity=0, time=0),
    Message('note_on', channel=0, note=67, velocity=0, time=0),
    Message('note_on', channel=0, note=40, velocity=92, time=2),
    Message('note_on', channel=0, note=47, velocity=92, time=0),
    Message('note_on', channel=0, note=52, velocity=92, time=0),
    Message('note_on', channel=0, note=55, velocity=92, time=0),
    Message('note_on', channel=0, note=62, velocity=92, time=0),
    Message('note_on', channel=0, note=67, velocity=92, time=0),
    Message('note_on', channel=0, note=40, velocity=0, time=46),
    Message('note_on', channel=0, note=47, velocity=0, time=0),
    Message('note_on', channel=0, note=52, velocity=0, time=0),
    Message('note_on', channel=0, note=55, velocity=0, time=0),
    Message('note_on', channel=0, note=62, velocity=0, time=0),
    Message('note_on', channel=0, note=67, velocity=0, time=0),
    Message('note_on', channel=0, note=40, velocity=92, time=50),
    Message('note_on', channel=0, note=47, velocity=92, time=0),
    Message('note_on', channel=0, note=52, velocity=92, time=0),
    Message('note_on', channel=0, note=55, velocity=92, time=0),
    Message('note_on', channel=0, note=62, velocity=92, time=0),
    Message('note_on', channel=0, note=67, velocity=92, time=0),
    Message('note_on', channel=0, note=40, velocity=0, time=46),
    Message('note_on', channel=0, note=47, velocity=0, time=0),
    Message('note_on', channel=0, note=52, velocity=0, time=0),
    Message('note_on', channel=0, note=55, velocity=0, time=0),
    Message('note_on', channel=0, note=62, velocity=0, time=0),
    Message('note_on', channel=0, note=67, velocity=0, time=0),
    Message('note_on', channel=0, note=40, velocity=92, time=2),
    Message('note_on', channel=0, note=47, velocity=92, time=0),
    Message('note_on', channel=0, note=52, velocity=92, time=0),
    Message('note_on', channel=0, note=55, velocity=92, time=0),
    Message('note_on', channel=0, note=62, velocity=92, time=0),
    Message('note_on', channel=0, note=67, velocity=92, time=0),
    Message('note_on', channel=0, note=40, velocity=0, time=142),
    Message('note_on', channel=0, note=47, velocity=0, time=0),
    Message('note_on', channel=0, note=52, velocity=0, time=0),
    Message('note_on', channel=0, note=55, velocity=0, time=0),
    Message('note_on', channel=0, note=62, velocity=0, time=0),
    Message('note_on', channel=0, note=67, velocity=0, time=0),
    Message('note_on', channel=0, note=40, velocity=92, time=2),
    Message('note_on', channel=0, note=47, velocity=92, time=0),
    Message('note_on', channel=0, note=52, velocity=92, time=0),
    Message('note_on', channel=0, note=55, velocity=92, time=0),
    Message('note_on', channel=0, note=62, velocity=92, time=0),
    Message('note_on', channel=0, note=67, velocity=92, time=0),
    Message('note_on', channel=0, note=40, velocity=0, time=46),
    Message('note_on', channel=0, note=47, velocity=0, time=0),
    Message('note_on', channel=0, note=52, velocity=0, time=0),
    Message('note_on', channel=0, note=55, velocity=0, time=0),
    Message('note_on', channel=0, note=62, velocity=0, time=0),
    Message('note_on', channel=0, note=67, velocity=0, time=0),
    Message('note_on', channel=0, note=40, velocity=92, time=2),
    Message('note_on', channel=0, note=47, velocity=92, time=0),
    Message('note_on', channel=0, note=52, velocity=92, time=0),
    Message('note_on', channel=0, note=55, velocity=92, time=0),
    Message('note_on', channel=0, note=62, velocity=92, time=0),
    Message('note_on', channel=0, note=67, velocity=92, time=0),
    Message('note_on', channel=0, note=40, velocity=0, time=46),
    Message('note_on', channel=0, note=47, velocity=0, time=0),
    Message('note_on', channel=0, note=52, velocity=0, time=0),
    Message('note_on', channel=0, note=55, velocity=0, time=0),
    Message('note_on', channel=0, note=62, velocity=0, time=0),
    Message('note_on', channel=0, note=67, velocity=0, time=0),
    Message('note_on', channel=0, note=50, velocity=92, time=2),
    Message('note_on', channel=0, note=55, velocity=92, time=0),
    Message('note_on', channel=0, note=59, velocity=92, time=0),
    Message('note_on', channel=0, note=64, velocity=92, time=0),
    Message('note_on', channel=0, note=50, velocity=0, time=46),
    Message('note_on', channel=0, note=55, velocity=0, time=0),
    Message('note_on', channel=0, note=59, velocity=0, time=0),
    Message('note_on', channel=0, note=64, velocity=0, time=0),
    Message('note_on', channel=0, note=48, velocity=92, time=2),
    Message('note_on', channel=0, note=52, velocity=92, time=0),
    Message('note_on', channel=0, note=55, velocity=92, time=0),
    Message('note_on', channel=0, note=60, velocity=92, time=0),
    Message('note_on', channel=0, note=64, velocity=92, time=0),
    Message('note_on', channel=0, note=48, velocity=0, time=190),
    Message('note_on', channel=0, note=52, velocity=0, time=0),
    Message('note_on', channel=0, note=55, velocity=0, time=0),
    Message('note_on', channel=0, note=60, velocity=0, time=0),
    Message('note_on', channel=0, note=64, velocity=0, time=0),
    Message('note_on', channel=0, note=48, velocity=92, time=2),
    Message('note_on', channel=0, note=52, velocity=92, time=0),
    Message('note_on', channel=0, note=55, velocity=92, time=0),
    Message('note_on', channel=0, note=60, velocity=92, time=0),
    Message('note_on', channel=0, note=64, velocity=92, time=0),
    Message('note_on', channel=0, note=48, velocity=0, time=142),
    Message('note_on', channel=0, note=52, velocity=0, time=0),
    Message('note_on', channel=0, note=55, velocity=0, time=0),
    Message('note_on', channel=0, note=60, velocity=0, time=0),
    Message('note_on', channel=0, note=64, velocity=0, time=0),
    Message('note_on', channel=0, note=48, velocity=92, time=2),
    Message('note_on', channel=0, note=52, velocity=92, time=0),
    Message('note_on', channel=0, note=55, velocity=92, time=0),
    Message('note_on', channel=0, note=60, velocity=92, time=0),
    Message('note_on', channel=0, note=64, velocity=92, time=0),
    Message('note_on', channel=0, note=48, velocity=0, time=46),
    Message('note_on', channel=0, note=52, velocity=0, time=0),
    Message('note_on', channel=0, note=55, velocity=0, time=0),
    Message('note_on', channel=0, note=60, velocity=0, time=0),
    Message('note_on', channel=0, note=64, velocity=0, time=0),
    Message('note_on', channel=0, note=47, velocity=92, time=50),
    Message('note_on', channel=0, note=51, velocity=92, time=0),
    Message('note_on', channel=0, note=57, velocity=92, time=0),
    Message('note_on', channel=0, note=59, velocity=92, time=0),
    Message('note_on', channel=0, note=66, velocity=92, time=0),
    Message('note_on', channel=0, note=47, velocity=0, time=46),
    Message('note_on', channel=0, note=51, velocity=0, time=0),
    Message('note_on', channel=0, note=57, velocity=0, time=0),
    Message('note_on', channel=0, note=59, velocity=0, time=0),
    Message('note_on', channel=0, note=66, velocity=0, time=0),
    Message('note_on', channel=0, note=47, velocity=92, time=2),
    Message('note_on', channel=0, note=51, velocity=92, time=0),
    Message('note_on', channel=0, note=57, velocity=92, time=0),
    Message('note_on', channel=0, note=59, velocity=92, time=0),
    Message('note_on', channel=0, note=66, velocity=92, time=0),
    Message('note_on', channel=0, note=47, velocity=0, time=94),
    Message('note_on', channel=0, note=51, velocity=0, time=0),
    Message('note_on', channel=0, note=57, velocity=0, time=0),
    Message('note_on', channel=0, note=59, velocity=0, time=0),
    Message('note_on', channel=0, note=66, velocity=0, time=0),
    Message('note_on', channel=0, note=47, velocity=92, time=2),
    Message('note_on', channel=0, note=51, velocity=92, time=0),
    Message('note_on', channel=0, note=57, velocity=92, time=0),
    Message('note_on', channel=0, note=59, velocity=92, time=0),
    Message('note_on', channel=0, note=66, velocity=92, time=0),
    Message('note_on', channel=0, note=47, velocity=0, time=190),
    Message('note_on', channel=0, note=51, velocity=0, time=0),
    Message('note_on', channel=0, note=57, velocity=0, time=0),
    Message('note_on', channel=0, note=59, velocity=0, time=0),
    Message('note_on', channel=0, note=66, velocity=0, time=0),
    Message('note_on', channel=0, note=40, velocity=92, time=2),
    Message('note_on', channel=0, note=47, velocity=92, time=0),
    Message('note_on', channel=0, note=52, velocity=92, time=0),
    Message('note_on', channel=0, note=55, velocity=92, time=0),
    Message('note_on', channel=0, note=59, velocity=92, time=0),
    Message('note_on', channel=0, note=64, velocity=92, time=0),
    Message('note_on', channel=0, note=40, velocity=0, time=94),
    Message('note_on', channel=0, note=47, velocity=0, time=0),
    Message('note_on', channel=0, note=52, velocity=0, time=0),
    Message('note_on', channel=0, note=55, velocity=0, time=0),
    Message('note_on', channel=0, note=59, velocity=0, time=0),
    Message('note_on', channel=0, note=64, velocity=0, time=0),
    Message('note_on', channel=0, note=40, velocity=92, time=2),
    Message('note_on', channel=0, note=47, velocity=92, time=0),
    Message('note_on', channel=0, note=40, velocity=0, time=46),
    Message('note_on', channel=0, note=47, velocity=0, time=0),
    Message('note_on', channel=0, note=40, velocity=92, time=2),
    Message('note_on', channel=0, note=47, velocity=92, time=0),
    Message('note_on', channel=0, note=40, velocity=0, time=46),
    Message('note_on', channel=0, note=47, velocity=0, time=0),
    Message('note_on', channel=0, note=40, velocity=92, time=2),
    Message('note_on', channel=0, note=47, velocity=92, time=0),
    Message('note_on', channel=0, note=52, velocity=92, time=0),
    Message('note_on', channel=0, note=55, velocity=92, time=0),
    Message('note_on', channel=0, note=62, velocity=92, time=0),
    Message('note_on', channel=0, note=67, velocity=92, time=0),
    Message('note_on', channel=0, note=40, velocity=0, time=142),
    Message('note_on', channel=0, note=47, velocity=0, time=0),
    Message('note_on', channel=0, note=52, velocity=0, time=0),
    Message('note_on', channel=0, note=55, velocity=0, time=0),
    Message('note_on', channel=0, note=62, velocity=0, time=0),
    Message('note_on', channel=0, note=67, velocity=0, time=0),
    Message('note_on', channel=0, note=40, velocity=92, time=2),
    Message('note_on', channel=0, note=47, velocity=92, time=0),
    Message('note_on', channel=0, note=52, velocity=92, time=0),
    Message('note_on', channel=0, note=55, velocity=92, time=0),
    Message('note_on', channel=0, note=62, velocity=92, time=0),
    Message('note_on', channel=0, note=67, velocity=92, time=0),
    Message('note_on', channel=0, note=40, velocity=0, time=46),
    Message('note_on', channel=0, note=47, velocity=0, time=0),
    Message('note_on', channel=0, note=52, velocity=0, time=0),
    Message('note_on', channel=0, note=55, velocity=0, time=0),
    Message('note_on', channel=0, note=62, velocity=0, time=0),
    Message('note_on', channel=0, note=67, velocity=0, time=0),
    Message('note_on', channel=0, note=40, velocity=92, time=50),
    Message('note_on', channel=0, note=47, velocity=92, time=0),
    Message('note_on', channel=0, note=52, velocity=92, time=0),
    Message('note_on', channel=0, note=55, velocity=92, time=0),
    Message('note_on', channel=0, note=62, velocity=92, time=0),
    Message('note_on', channel=0, note=67, velocity=92, time=0),
    Message('note_on', channel=0, note=40, velocity=0, time=46),
    Message('note_on', channel=0, note=47, velocity=0, time=0),
    Message('note_on', channel=0, note=52, velocity=0, time=0),
    Message('note_on', channel=0, note=55, velocity=0, time=0),
    Message('note_on', channel=0, note=62, velocity=0, time=0),
    Message('note_on', channel=0, note=67, velocity=0, time=0),
    Message('note_on', channel=0, note=40, velocity=92, time=2),
    Message('note_on', channel=0, note=47, velocity=92, time=0),
    Message('note_on', channel=0, note=52, velocity=92, time=0),
    Message('note_on', channel=0, note=55, velocity=92, time=0),
    Message('note_on', channel=0, note=62, velocity=92, time=0),
    Message('note_on', channel=0, note=67, velocity=92, time=0),
    Message('note_on', channel=0, note=40, velocity=0, time=142),
    Message('note_on', channel=0, note=47, velocity=0, time=0),
    Message('note_on', channel=0, note=52, velocity=0, time=0),
    Message('note_on', channel=0, note=55, velocity=0, time=0),
    Message('note_on', channel=0, note=62, velocity=0, time=0),
    Message('note_on', channel=0, note=67, velocity=0, time=0),
    Message('note_on', channel=0, note=47, velocity=92, time=2),
    Message('note_on', channel=0, note=47, velocity=0, time=46),
    Message('note_on', channel=0, note=50, velocity=92, time=2),
    Message('note_on', channel=0, note=55, velocity=92, time=0),
    Message('note_on', channel=0, note=50, velocity=0, time=46),
    Message('note_on', channel=0, note=55, velocity=0, time=0),
    Message('note_on', channel=0, note=50, velocity=92, time=2),
    Message('note_on', channel=0, note=55, velocity=92, time=0),
    Message('note_on', channel=0, note=62, velocity=92, time=0),
    Message('note_on', channel=0, note=67, velocity=92, time=0),
    Message('note_on', channel=0, note=50, velocity=0, time=46),
    Message('note_on', channel=0, note=55, velocity=0, time=0),
    Message('note_on', channel=0, note=62, velocity=0, time=0),
    Message('note_on', channel=0, note=67, velocity=0, time=0),
    Message('note_on', channel=0, note=40, velocity=92, time=2),
    Message('note_on', channel=0, note=47, velocity=92, time=0),
    Message('note_on', channel=0, note=52, velocity=92, time=0),
    Message('note_on', channel=0, note=55, velocity=92, time=0),
    Message('note_on', channel=0, note=59, velocity=92, time=0),
    Message('note_on', channel=0, note=64, velocity=92, time=0),
    Message('note_on', channel=0, note=40, velocity=0, time=190),
    Message('note_on', channel=0, note=47, velocity=0, time=0),
    Message('note_on', channel=0, note=52, velocity=0, time=0),
    Message('note_on', channel=0, note=55, velocity=0, time=0),
    Message('note_on', channel=0, note=59, velocity=0, time=0),
    Message('note_on', channel=0, note=64, velocity=0, time=0),
    Message('note_on', channel=0, note=40, velocity=92, time=2),
    Message('note_on', channel=0, note=47, velocity=92, time=0),
    Message('note_on', channel=0, note=52, velocity=92, time=0),
    Message('note_on', channel=0, note=55, velocity=92, time=0),
    Message('note_on', channel=0, note=62, velocity=92, time=0),
    Message('note_on', channel=0, note=67, velocity=92, time=0),
    Message('note_on', channel=0, note=40, velocity=0, time=142),
    Message('note_on', channel=0, note=47, velocity=0, time=0),
    Message('note_on', channel=0, note=52, velocity=0, time=0),
    Message('note_on', channel=0, note=55, velocity=0, time=0),
    Message('note_on', channel=0, note=62, velocity=0, time=0),
    Message('note_on', channel=0, note=67, velocity=0, time=0),
    Message('note_on', channel=0, note=40, velocity=92, time=2),
    Message('note_on', channel=0, note=47, velocity=92, time=0),
    Message('note_on', channel=0, note=52, velocity=92, time=0),
    Message('note_on', channel=0, note=55, velocity=92, time=0),
    Message('note_on', channel=0, note=62, velocity=92, time=0),
    Message('note_on', channel=0, note=67, velocity=92, time=0),
    Message('note_on', channel=0, note=40, velocity=0, time=46),
    Message('note_on', channel=0, note=47, velocity=0, time=0),
    Message('note_on', channel=0, note=52, velocity=0, time=0),
    Message('note_on', channel=0, note=55, velocity=0, time=0),
    Message('note_on', channel=0, note=62, velocity=0, time=0),
    Message('note_on', channel=0, note=67, velocity=0, time=0),
    Message('note_on', channel=0, note=40, velocity=92, time=50),
    Message('note_on', channel=0, note=47, velocity=92, time=0),
    Message('note_on', channel=0, note=52, velocity=92, time=0),
    Message('note_on', channel=0, note=55, velocity=92, time=0),
    Message('note_on', channel=0, note=62, velocity=92, time=0),
    Message('note_on', channel=0, note=67, velocity=92, time=0),
    Message('note_on', channel=0, note=40, velocity=0, time=46),
    Message('note_on', channel=0, note=47, velocity=0, time=0),
    Message('note_on', channel=0, note=52, velocity=0, time=0),
    Message('note_on', channel=0, note=55, velocity=0, time=0),
    Message('note_on', channel=0, note=62, velocity=0, time=0),
    Message('note_on', channel=0, note=67, velocity=0, time=0),
    Message('note_on', channel=0, note=40, velocity=92, time=2),
    Message('note_on', channel=0, note=47, velocity=92, time=0),
    Message('note_on', channel=0, note=52, velocity=92, time=0),
    Message('note_on', channel=0, note=55, velocity=92, time=0),
    Message('note_on', channel=0, note=62, velocity=92, time=0),
    Message('note_on', channel=0, note=67, velocity=92, time=0),
    Message('note_on', channel=0, note=40, velocity=0, time=142),
    Message('note_on', channel=0, note=47, velocity=0, time=0),
    Message('note_on', channel=0, note=52, velocity=0, time=0),
    Message('note_on', channel=0, note=55, velocity=0, time=0),
    Message('note_on', channel=0, note=62, velocity=0, time=0),
    Message('note_on', channel=0, note=67, velocity=0, time=0),
    Message('note_on', channel=0, note=40, velocity=92, time=2),
    Message('note_on', channel=0, note=47, velocity=92, time=0),
    Message('note_on', channel=0, note=52, velocity=92, time=0),
    Message('note_on', channel=0, note=55, velocity=92, time=0),
    Message('note_on', channel=0, note=62, velocity=92, time=0),
    Message('note_on', channel=0, note=67, velocity=92, time=0),
    Message('note_on', channel=0, note=40, velocity=0, time=46),
    Message('note_on', channel=0, note=47, velocity=0, time=0),
    Message('note_on', channel=0, note=52, velocity=0, time=0),
    Message('note_on', channel=0, note=55, velocity=0, time=0),
    Message('note_on', channel=0, note=62, velocity=0, time=0),
    Message('note_on', channel=0, note=67, velocity=0, time=0),
    Message('note_on', channel=0, note=40, velocity=92, time=2),
    Message('note_on', channel=0, note=47, velocity=92, time=0),
    Message('note_on', channel=0, note=52, velocity=92, time=0),
    Message('note_on', channel=0, note=55, velocity=92, time=0),
    Message('note_on', channel=0, note=62, velocity=92, time=0),
    Message('note_on', channel=0, note=67, velocity=92, time=0),
    Message('note_on', channel=0, note=40, velocity=0, time=46),
    Message('note_on', channel=0, note=47, velocity=0, time=0),
    Message('note_on', channel=0, note=52, velocity=0, time=0),
    Message('note_on', channel=0, note=55, velocity=0, time=0),
    Message('note_on', channel=0, note=62, velocity=0, time=0),
    Message('note_on', channel=0, note=67, velocity=0, time=0),
    Message('note_on', channel=0, note=50, velocity=92, time=2),
    Message('note_on', channel=0, note=55, velocity=92, time=0),
    Message('note_on', channel=0, note=59, velocity=92, time=0),
    Message('note_on', channel=0, note=64, velocity=92, time=0),
    Message('note_on', channel=0, note=50, velocity=0, time=46),
    Message('note_on', channel=0, note=55, velocity=0, time=0),
    Message('note_on', channel=0, note=59, velocity=0, time=0),
    Message('note_on', channel=0, note=64, velocity=0, time=0),
    Message('note_on', channel=0, note=43, velocity=92, time=2),
    Message('note_on', channel=0, note=50, velocity=92, time=0),
    Message('note_on', channel=0, note=55, velocity=92, time=0),
    Message('note_on', channel=0, note=62, velocity=92, time=0),
    Message('note_on', channel=0, note=67, velocity=92, time=0),
    Message('note_on', channel=0, note=43, velocity=0, time=94),
    Message('note_on', channel=0, note=50, velocity=0, time=0),
    Message('note_on', channel=0, note=55, velocity=0, time=0),
    Message('note_on', channel=0, note=62, velocity=0, time=0),
    Message('note_on', channel=0, note=67, velocity=0, time=0),
    Message('note_on', channel=0, note=43, velocity=92, time=2),
    Message('note_on', channel=0, note=50, velocity=92, time=0),
    Message('note_on', channel=0, note=55, velocity=92, time=0),
    Message('note_on', channel=0, note=62, velocity=92, time=0),
    Message('note_on', channel=0, note=67, velocity=92, time=0),
    Message('note_on', channel=0, note=43, velocity=0, time=94),
    Message('note_on', channel=0, note=50, velocity=0, time=0),
    Message('note_on', channel=0, note=55, velocity=0, time=0),
    Message('note_on', channel=0, note=62, velocity=0, time=0),
    Message('note_on', channel=0, note=67, velocity=0, time=0),
    Message('note_on', channel=0, note=43, velocity=92, time=2),
    Message('note_on', channel=0, note=50, velocity=92, time=0),
    Message('note_on', channel=0, note=55, velocity=92, time=0),
    Message('note_on', channel=0, note=62, velocity=92, time=0),
    Message('note_on', channel=0, note=67, velocity=92, time=0),
    Message('note_on', channel=0, note=43, velocity=0, time=94),
    Message('note_on', channel=0, note=50, velocity=0, time=0),
    Message('note_on', channel=0, note=55, velocity=0, time=0),
    Message('note_on', channel=0, note=62, velocity=0, time=0),
    Message('note_on', channel=0, note=67, velocity=0, time=0),
    Message('note_on', channel=0, note=43, velocity=92, time=2),
    Message('note_on', channel=0, note=50, velocity=92, time=0),
    Message('note_on', channel=0, note=55, velocity=92, time=0),
    Message('note_on', channel=0, note=62, velocity=92, time=0),
    Message('note_on', channel=0, note=67, velocity=92, time=0),
    Message('note_on', channel=0, note=43, velocity=0, time=46),
    Message('note_on', channel=0, note=50, velocity=0, time=0),
    Message('note_on', channel=0, note=55, velocity=0, time=0),
    Message('note_on', channel=0, note=62, velocity=0, time=0),
    Message('note_on', channel=0, note=67, velocity=0, time=0),
    Message('note_on', channel=0, note=43, velocity=92, time=2),
    Message('note_on', channel=0, note=50, velocity=92, time=0),
    Message('note_on', channel=0, note=55, velocity=92, time=0),
    Message('note_on', channel=0, note=62, velocity=92, time=0),
    Message('note_on', channel=0, note=67, velocity=92, time=0),
    Message('note_on', channel=0, note=43, velocity=0, time=46),
    Message('note_on', channel=0, note=50, velocity=0, time=0),
    Message('note_on', channel=0, note=55, velocity=0, time=0),
    Message('note_on', channel=0, note=62, velocity=0, time=0),
    Message('note_on', channel=0, note=67, velocity=0, time=0),
    Message('note_on', channel=0, note=45, velocity=92, time=50),
    Message('note_on', channel=0, note=52, velocity=92, time=0),
    Message('note_on', channel=0, note=57, velocity=92, time=0),
    Message('note_on', channel=0, note=59, velocity=92, time=0),
    Message('note_on', channel=0, note=64, velocity=92, time=0),
    Message('note_on', channel=0, note=45, velocity=0, time=46),
    Message('note_on', channel=0, note=52, velocity=0, time=0),
    Message('note_on', channel=0, note=57, velocity=0, time=0),
    Message('note_on', channel=0, note=59, velocity=0, time=0),
    Message('note_on', channel=0, note=64, velocity=0, time=0),
    Message('note_on', channel=0, note=45, velocity=92, time=2),
    Message('note_on', channel=0, note=52, velocity=92, time=0),
    Message('note_on', channel=0, note=57, velocity=92, time=0),
    Message('note_on', channel=0, note=59, velocity=92, time=0),
    Message('note_on', channel=0, note=64, velocity=92, time=0),
    Message('note_on', channel=0, note=45, velocity=0, time=94),
    Message('note_on', channel=0, note=52, velocity=0, time=0),
    Message('note_on', channel=0, note=57, velocity=0, time=0),
    Message('note_on', channel=0, note=59, velocity=0, time=0),
    Message('note_on', channel=0, note=64, velocity=0, time=0),
    Message('note_on', channel=0, note=45, velocity=92, time=2),
    Message('note_on', channel=0, note=52, velocity=92, time=0),
    Message('note_on', channel=0, note=57, velocity=92, time=0),
    Message('note_on', channel=0, note=59, velocity=92, time=0),
    Message('note_on', channel=0, note=64, velocity=92, time=0),
    Message('note_on', channel=0, note=45, velocity=0, time=160),
    Message('note_on', channel=0, note=52, velocity=0, time=0),
    Message('note_on', channel=0, note=57, velocity=0, time=0),
    Message('note_on', channel=0, note=59, velocity=0, time=0),
    Message('note_on', channel=0, note=64, velocity=0, time=0),
    Message('note_on', channel=0, note=40, velocity=92, time=32),
    Message('note_on', channel=0, note=47, velocity=92, time=0),
    Message('note_on', channel=0, note=52, velocity=92, time=0),
    Message('note_on', channel=0, note=55, velocity=92, time=0),
    Message('note_on', channel=0, note=59, velocity=92, time=0),
    Message('note_on', channel=0, note=64, velocity=92, time=0),
    Message('note_on', channel=0, note=40, velocity=0, time=142),
    Message('note_on', channel=0, note=47, velocity=0, time=0),
    Message('note_on', channel=0, note=52, velocity=0, time=0),
    Message('note_on', channel=0, note=55, velocity=0, time=0),
    Message('note_on', channel=0, note=59, velocity=0, time=0),
    Message('note_on', channel=0, note=64, velocity=0, time=0),
    Message('note_on', channel=0, note=40, velocity=92, time=2),
    Message('note_on', channel=0, note=47, velocity=92, time=0),
    Message('note_on', channel=0, note=52, velocity=92, time=0),
    Message('note_on', channel=0, note=55, velocity=92, time=0),
    Message('note_on', channel=0, note=59, velocity=92, time=0),
    Message('note_on', channel=0, note=64, velocity=92, time=0),
    Message('note_on', channel=0, note=40, velocity=0, time=46),
    Message('note_on', channel=0, note=47, velocity=0, time=0),
    Message('note_on', channel=0, note=52, velocity=0, time=0),
    Message('note_on', channel=0, note=55, velocity=0, time=0),
    Message('note_on', channel=0, note=59, velocity=0, time=0),
    Message('note_on', channel=0, note=64, velocity=0, time=0),
    Message('note_on', channel=0, note=40, velocity=92, time=2),
    Message('note_on', channel=0, note=47, velocity=92, time=0),
    Message('note_on', channel=0, note=52, velocity=92, time=0),
    Message('note_on', channel=0, note=55, velocity=92, time=0),
    Message('note_on', channel=0, note=62, velocity=92, time=0),
    Message('note_on', channel=0, note=67, velocity=92, time=0),
    Message('note_on', channel=0, note=40, velocity=0, time=142),
    Message('note_on', channel=0, note=47, velocity=0, time=0),
    Message('note_on', channel=0, note=52, velocity=0, time=0),
    Message('note_on', channel=0, note=55, velocity=0, time=0),
    Message('note_on', channel=0, note=62, velocity=0, time=0),
    Message('note_on', channel=0, note=67, velocity=0, time=0),
    Message('note_on', channel=0, note=40, velocity=92, time=2),
    Message('note_on', channel=0, note=47, velocity=92, time=0),
    Message('note_on', channel=0, note=52, velocity=92, time=0),
    Message('note_on', channel=0, note=55, velocity=92, time=0),
    Message('note_on', channel=0, note=62, velocity=92, time=0),
    Message('note_on', channel=0, note=67, velocity=92, time=0),
    Message('note_on', channel=0, note=40, velocity=0, time=46),
    Message('note_on', channel=0, note=47, velocity=0, time=0),
    Message('note_on', channel=0, note=52, velocity=0, time=0),
    Message('note_on', channel=0, note=55, velocity=0, time=0),
    Message('note_on', channel=0, note=62, velocity=0, time=0),
    Message('note_on', channel=0, note=67, velocity=0, time=0),
    Message('note_on', channel=0, note=40, velocity=92, time=50),
    Message('note_on', channel=0, note=47, velocity=92, time=0),
    Message('note_on', channel=0, note=52, velocity=92, time=0),
    Message('note_on', channel=0, note=55, velocity=92, time=0),
    Message('note_on', channel=0, note=62, velocity=92, time=0),
    Message('note_on', channel=0, note=67, velocity=92, time=0),
    Message('note_on', channel=0, note=40, velocity=0, time=46),
    Message('note_on', channel=0, note=47, velocity=0, time=0),
    Message('note_on', channel=0, note=52, velocity=0, time=0),
    Message('note_on', channel=0, note=55, velocity=0, time=0),
    Message('note_on', channel=0, note=62, velocity=0, time=0),
    Message('note_on', channel=0, note=67, velocity=0, time=0),
    Message('note_on', channel=0, note=40, velocity=92, time=2),
    Message('note_on', channel=0, note=47, velocity=92, time=0),
    Message('note_on', channel=0, note=52, velocity=92, time=0),
    Message('note_on', channel=0, note=55, velocity=92, time=0),
    Message('note_on', channel=0, note=62, velocity=92, time=0),
    Message('note_on', channel=0, note=67, velocity=92, time=0),
    Message('note_on', channel=0, note=40, velocity=0, time=142),
    Message('note_on', channel=0, note=47, velocity=0, time=0),
    Message('note_on', channel=0, note=52, velocity=0, time=0),
    Message('note_on', channel=0, note=55, velocity=0, time=0),
    Message('note_on', channel=0, note=62, velocity=0, time=0),
    Message('note_on', channel=0, note=67, velocity=0, time=0),
    Message('note_on', channel=0, note=40, velocity=92, time=2),
    Message('note_on', channel=0, note=47, velocity=92, time=0),
    Message('note_on', channel=0, note=52, velocity=92, time=0),
    Message('note_on', channel=0, note=55, velocity=92, time=0),
    Message('note_on', channel=0, note=62, velocity=92, time=0),
    Message('note_on', channel=0, note=67, velocity=92, time=0),
    Message('note_on', channel=0, note=40, velocity=0, time=46),
    Message('note_on', channel=0, note=47, velocity=0, time=0),
    Message('note_on', channel=0, note=52, velocity=0, time=0),
    Message('note_on', channel=0, note=55, velocity=0, time=0),
    Message('note_on', channel=0, note=62, velocity=0, time=0),
    Message('note_on', channel=0, note=67, velocity=0, time=0),
    Message('note_on', channel=0, note=40, velocity=92, time=2),
    Message('note_on', channel=0, note=47, velocity=92, time=0),
    Message('note_on', channel=0, note=52, velocity=92, time=0),
    Message('note_on', channel=0, note=55, velocity=92, time=0),
    Message('note_on', channel=0, note=62, velocity=92, time=0),
    Message('note_on', channel=0, note=67, velocity=92, time=0),
    Message('note_on', channel=0, note=40, velocity=0, time=46),
    Message('note_on', channel=0, note=47, velocity=0, time=0),
    Message('note_on', channel=0, note=52, velocity=0, time=0),
    Message('note_on', channel=0, note=55, velocity=0, time=0),
    Message('note_on', channel=0, note=62, velocity=0, time=0),
    Message('note_on', channel=0, note=67, velocity=0, time=0),
    Message('note_on', channel=0, note=50, velocity=92, time=2),
    Message('note_on', channel=0, note=55, velocity=92, time=0),
    Message('note_on', channel=0, note=59, velocity=92, time=0),
    Message('note_on', channel=0, note=64, velocity=92, time=0),
    Message('note_on', channel=0, note=50, velocity=0, time=46),
    Message('note_on', channel=0, note=55, velocity=0, time=0),
    Message('note_on', channel=0, note=59, velocity=0, time=0),
    Message('note_on', channel=0, note=64, velocity=0, time=0),
    Message('note_on', channel=0, note=43, velocity=92, time=2),
    Message('note_on', channel=0, note=50, velocity=92, time=0),
    Message('note_on', channel=0, note=55, velocity=92, time=0),
    Message('note_on', channel=0, note=62, velocity=92, time=0),
    Message('note_on', channel=0, note=67, velocity=92, time=0),
    Message('note_on', channel=0, note=43, velocity=0, time=94),
    Message('note_on', channel=0, note=50, velocity=0, time=0),
    Message('note_on', channel=0, note=55, velocity=0, time=0),
    Message('note_on', channel=0, note=62, velocity=0, time=0),
    Message('note_on', channel=0, note=67, velocity=0, time=0),
    Message('note_on', channel=0, note=43, velocity=92, time=2),
    Message('note_on', channel=0, note=50, velocity=92, time=0),
    Message('note_on', channel=0, note=55, velocity=92, time=0),
    Message('note_on', channel=0, note=62, velocity=92, time=0),
    Message('note_on', channel=0, note=67, velocity=92, time=0),
    Message('note_on', channel=0, note=43, velocity=0, time=94),
    Message('note_on', channel=0, note=50, velocity=0, time=0),
    Message('note_on', channel=0, note=55, velocity=0, time=0),
    Message('note_on', channel=0, note=62, velocity=0, time=0),
    Message('note_on', channel=0, note=67, velocity=0, time=0),
    Message('note_on', channel=0, note=43, velocity=92, time=2),
    Message('note_on', channel=0, note=50, velocity=92, time=0),
    Message('note_on', channel=0, note=55, velocity=92, time=0),
    Message('note_on', channel=0, note=62, velocity=92, time=0),
    Message('note_on', channel=0, note=67, velocity=92, time=0),
    Message('note_on', channel=0, note=43, velocity=0, time=94),
    Message('note_on', channel=0, note=50, velocity=0, time=0),
    Message('note_on', channel=0, note=55, velocity=0, time=0),
    Message('note_on', channel=0, note=62, velocity=0, time=0),
    Message('note_on', channel=0, note=67, velocity=0, time=0),
    Message('note_on', channel=0, note=43, velocity=92, time=2),
    Message('note_on', channel=0, note=50, velocity=92, time=0),
    Message('note_on', channel=0, note=55, velocity=92, time=0),
    Message('note_on', channel=0, note=62, velocity=92, time=0),
    Message('note_on', channel=0, note=67, velocity=92, time=0),
    Message('note_on', channel=0, note=43, velocity=0, time=46),
    Message('note_on', channel=0, note=50, velocity=0, time=0),
    Message('note_on', channel=0, note=55, velocity=0, time=0),
    Message('note_on', channel=0, note=62, velocity=0, time=0),
    Message('note_on', channel=0, note=67, velocity=0, time=0),
    Message('note_on', channel=0, note=43, velocity=92, time=2),
    Message('note_on', channel=0, note=50, velocity=92, time=0),
    Message('note_on', channel=0, note=55, velocity=92, time=0),
    Message('note_on', channel=0, note=62, velocity=92, time=0),
    Message('note_on', channel=0, note=67, velocity=92, time=0),
    Message('note_on', channel=0, note=43, velocity=0, time=46),
    Message('note_on', channel=0, note=50, velocity=0, time=0),
    Message('note_on', channel=0, note=55, velocity=0, time=0),
    Message('note_on', channel=0, note=62, velocity=0, time=0),
    Message('note_on', channel=0, note=67, velocity=0, time=0),
    Message('note_on', channel=0, note=45, velocity=92, time=50),
    Message('note_on', channel=0, note=52, velocity=92, time=0),
    Message('note_on', channel=0, note=57, velocity=92, time=0),
    Message('note_on', channel=0, note=59, velocity=92, time=0),
    Message('note_on', channel=0, note=64, velocity=92, time=0),
    Message('note_on', channel=0, note=45, velocity=0, time=46),
    Message('note_on', channel=0, note=52, velocity=0, time=0),
    Message('note_on', channel=0, note=57, velocity=0, time=0),
    Message('note_on', channel=0, note=59, velocity=0, time=0),
    Message('note_on', channel=0, note=64, velocity=0, time=0),
    Message('note_on', channel=0, note=45, velocity=92, time=2),
    Message('note_on', channel=0, note=52, velocity=92, time=0),
    Message('note_on', channel=0, note=57, velocity=92, time=0),
    Message('note_on', channel=0, note=59, velocity=92, time=0),
    Message('note_on', channel=0, note=64, velocity=92, time=0),
    Message('note_on', channel=0, note=45, velocity=0, time=94),
    Message('note_on', channel=0, note=52, velocity=0, time=0),
    Message('note_on', channel=0, note=57, velocity=0, time=0),
    Message('note_on', channel=0, note=59, velocity=0, time=0),
    Message('note_on', channel=0, note=64, velocity=0, time=0),
    Message('note_on', channel=0, note=45, velocity=92, time=2),
    Message('note_on', channel=0, note=52, velocity=92, time=0),
    Message('note_on', channel=0, note=57, velocity=92, time=0),
    Message('note_on', channel=0, note=59, velocity=92, time=0),
    Message('note_on', channel=0, note=64, velocity=92, time=0),
    Message('note_on', channel=0, note=45, velocity=0, time=160),
    Message('note_on', channel=0, note=52, velocity=0, time=0),
    Message('note_on', channel=0, note=57, velocity=0, time=0),
    Message('note_on', channel=0, note=59, velocity=0, time=0),
    Message('note_on', channel=0, note=64, velocity=0, time=0),
    Message('note_on', channel=0, note=40, velocity=92, time=32),
    Message('note_on', channel=0, note=47, velocity=92, time=0),
    Message('note_on', channel=0, note=52, velocity=92, time=0),
    Message('note_on', channel=0, note=55, velocity=92, time=0),
    Message('note_on', channel=0, note=59, velocity=92, time=0),
    Message('note_on', channel=0, note=64, velocity=92, time=0),
    Message('note_on', channel=0, note=40, velocity=0, time=142),
    Message('note_on', channel=0, note=47, velocity=0, time=0),
    Message('note_on', channel=0, note=52, velocity=0, time=0),
    Message('note_on', channel=0, note=55, velocity=0, time=0),
    Message('note_on', channel=0, note=59, velocity=0, time=0),
    Message('note_on', channel=0, note=64, velocity=0, time=0),
    Message('note_on', channel=0, note=40, velocity=92, time=2),
    Message('note_on', channel=0, note=47, velocity=92, time=0),
    Message('note_on', channel=0, note=52, velocity=92, time=0),
    Message('note_on', channel=0, note=55, velocity=92, time=0),
    Message('note_on', channel=0, note=59, velocity=92, time=0),
    Message('note_on', channel=0, note=64, velocity=92, time=0),
    Message('note_on', channel=0, note=40, velocity=0, time=46),
    Message('note_on', channel=0, note=47, velocity=0, time=0),
    Message('note_on', channel=0, note=52, velocity=0, time=0),
    Message('note_on', channel=0, note=55, velocity=0, time=0),
    Message('note_on', channel=0, note=59, velocity=0, time=0),
    Message('note_on', channel=0, note=64, velocity=0, time=0),
    Message('note_on', channel=0, note=40, velocity=92, time=2),
    Message('note_on', channel=0, note=47, velocity=92, time=0),
    Message('note_on', channel=0, note=52, velocity=92, time=0),
    Message('note_on', channel=0, note=55, velocity=92, time=0),
    Message('note_on', channel=0, note=62, velocity=92, time=0),
    Message('note_on', channel=0, note=67, velocity=92, time=0),
    Message('note_on', channel=0, note=40, velocity=0, time=142),
    Message('note_on', channel=0, note=47, velocity=0, time=0),
    Message('note_on', channel=0, note=52, velocity=0, time=0),
    Message('note_on', channel=0, note=55, velocity=0, time=0),
    Message('note_on', channel=0, note=62, velocity=0, time=0),
    Message('note_on', channel=0, note=67, velocity=0, time=0),
    Message('note_on', channel=0, note=40, velocity=92, time=2),
    Message('note_on', channel=0, note=47, velocity=92, time=0),
    Message('note_on', channel=0, note=52, velocity=92, time=0),
    Message('note_on', channel=0, note=55, velocity=92, time=0),
    Message('note_on', channel=0, note=62, velocity=92, time=0),
    Message('note_on', channel=0, note=67, velocity=92, time=0),
    Message('note_on', channel=0, note=40, velocity=0, time=46),
    Message('note_on', channel=0, note=47, velocity=0, time=0),
    Message('note_on', channel=0, note=52, velocity=0, time=0),
    Message('note_on', channel=0, note=55, velocity=0, time=0),
    Message('note_on', channel=0, note=62, velocity=0, time=0),
    Message('note_on', channel=0, note=67, velocity=0, time=0),
    Message('note_on', channel=0, note=40, velocity=92, time=50),
    Message('note_on', channel=0, note=47, velocity=92, time=0),
    Message('note_on', channel=0, note=52, velocity=92, time=0),
    Message('note_on', channel=0, note=55, velocity=92, time=0),
    Message('note_on', channel=0, note=62, velocity=92, time=0),
    Message('note_on', channel=0, note=67, velocity=92, time=0),
    Message('note_on', channel=0, note=40, velocity=0, time=46),
    Message('note_on', channel=0, note=47, velocity=0, time=0),
    Message('note_on', channel=0, note=52, velocity=0, time=0),
    Message('note_on', channel=0, note=55, velocity=0, time=0),
    Message('note_on', channel=0, note=62, velocity=0, time=0),
    Message('note_on', channel=0, note=67, velocity=0, time=0),
    Message('note_on', channel=0, note=40, velocity=92, time=2),
    Message('note_on', channel=0, note=47, velocity=92, time=0),
    Message('note_on', channel=0, note=52, velocity=92, time=0),
    Message('note_on', channel=0, note=55, velocity=92, time=0),
    Message('note_on', channel=0, note=62, velocity=92, time=0),
    Message('note_on', channel=0, note=67, velocity=92, time=0),
    Message('note_on', channel=0, note=40, velocity=0, time=142),
    Message('note_on', channel=0, note=47, velocity=0, time=0),
    Message('note_on', channel=0, note=52, velocity=0, time=0),
    Message('note_on', channel=0, note=55, velocity=0, time=0),
    Message('note_on', channel=0, note=62, velocity=0, time=0),
    Message('note_on', channel=0, note=67, velocity=0, time=0),
    Message('note_on', channel=0, note=40, velocity=92, time=2),
    Message('note_on', channel=0, note=47, velocity=92, time=0),
    Message('note_on', channel=0, note=52, velocity=92, time=0),
    Message('note_on', channel=0, note=55, velocity=92, time=0),
    Message('note_on', channel=0, note=62, velocity=92, time=0),
    Message('note_on', channel=0, note=67, velocity=92, time=0),
    Message('note_on', channel=0, note=40, velocity=0, time=46),
    Message('note_on', channel=0, note=47, velocity=0, time=0),
    Message('note_on', channel=0, note=52, velocity=0, time=0),
    Message('note_on', channel=0, note=55, velocity=0, time=0),
    Message('note_on', channel=0, note=62, velocity=0, time=0),
    Message('note_on', channel=0, note=67, velocity=0, time=0),
    Message('note_on', channel=0, note=40, velocity=92, time=2),
    Message('note_on', channel=0, note=47, velocity=92, time=0),
    Message('note_on', channel=0, note=52, velocity=92, time=0),
    Message('note_on', channel=0, note=55, velocity=92, time=0),
    Message('note_on', channel=0, note=62, velocity=92, time=0),
    Message('note_on', channel=0, note=67, velocity=92, time=0),
    Message('note_on', channel=0, note=40, velocity=0, time=46),
    Message('note_on', channel=0, note=47, velocity=0, time=0),
    Message('note_on', channel=0, note=52, velocity=0, time=0),
    Message('note_on', channel=0, note=55, velocity=0, time=0),
    Message('note_on', channel=0, note=62, velocity=0, time=0),
    Message('note_on', channel=0, note=67, velocity=0, time=0),
    Message('note_on', channel=0, note=50, velocity=92, time=2),
    Message('note_on', channel=0, note=55, velocity=92, time=0),
    Message('note_on', channel=0, note=59, velocity=92, time=0),
    Message('note_on', channel=0, note=64, velocity=92, time=0),
    Message('note_on', channel=0, note=50, velocity=0, time=46),
    Message('note_on', channel=0, note=55, velocity=0, time=0),
    Message('note_on', channel=0, note=59, velocity=0, time=0),
    Message('note_on', channel=0, note=64, velocity=0, time=0),
    Message('note_on', channel=0, note=43, velocity=92, time=2),
    Message('note_on', channel=0, note=50, velocity=92, time=0),
    Message('note_on', channel=0, note=55, velocity=92, time=0),
    Message('note_on', channel=0, note=62, velocity=92, time=0),
    Message('note_on', channel=0, note=67, velocity=92, time=0),
    Message('note_on', channel=0, note=43, velocity=0, time=94),
    Message('note_on', channel=0, note=50, velocity=0, time=0),
    Message('note_on', channel=0, note=55, velocity=0, time=0),
    Message('note_on', channel=0, note=62, velocity=0, time=0),
    Message('note_on', channel=0, note=67, velocity=0, time=0),
    Message('note_on', channel=0, note=43, velocity=92, time=2),
    Message('note_on', channel=0, note=50, velocity=92, time=0),
    Message('note_on', channel=0, note=55, velocity=92, time=0),
    Message('note_on', channel=0, note=62, velocity=92, time=0),
    Message('note_on', channel=0, note=67, velocity=92, time=0),
    Message('note_on', channel=0, note=43, velocity=0, time=94),
    Message('note_on', channel=0, note=50, velocity=0, time=0),
    Message('note_on', channel=0, note=55, velocity=0, time=0),
    Message('note_on', channel=0, note=62, velocity=0, time=0),
    Message('note_on', channel=0, note=67, velocity=0, time=0),
    Message('note_on', channel=0, note=43, velocity=92, time=2),
    Message('note_on', channel=0, note=50, velocity=92, time=0),
    Message('note_on', channel=0, note=55, velocity=92, time=0),
    Message('note_on', channel=0, note=62, velocity=92, time=0),
    Message('note_on', channel=0, note=67, velocity=92, time=0),
    Message('note_on', channel=0, note=43, velocity=0, time=94),
    Message('note_on', channel=0, note=55, velocity=0, time=0),
    Message('note_on', channel=0, note=62, velocity=0, time=0),
    Message('note_on', channel=0, note=50, velocity=0, time=0),
    Message('note_on', channel=0, note=67, velocity=0, time=0),
    Message('note_on', channel=0, note=43, velocity=92, time=2),
    Message('note_on', channel=0, note=50, velocity=92, time=0),
    Message('note_on', channel=0, note=55, velocity=92, time=0),
    Message('note_on', channel=0, note=62, velocity=92, time=0),
    Message('note_on', channel=0, note=67, velocity=92, time=0),
    Message('note_on', channel=0, note=43, velocity=0, time=46),
    Message('note_on', channel=0, note=50, velocity=0, time=0),
    Message('note_on', channel=0, note=55, velocity=0, time=0),
    Message('note_on', channel=0, note=62, velocity=0, time=0),
    Message('note_on', channel=0, note=67, velocity=0, time=0),
    Message('note_on', channel=0, note=43, velocity=92, time=2),
    Message('note_on', channel=0, note=50, velocity=92, time=0),
    Message('note_on', channel=0, note=55, velocity=92, time=0),
    Message('note_on', channel=0, note=62, velocity=92, time=0),
    Message('note_on', channel=0, note=67, velocity=92, time=0),
    Message('note_on', channel=0, note=43, velocity=0, time=46),
    Message('note_on', channel=0, note=50, velocity=0, time=0),
    Message('note_on', channel=0, note=55, velocity=0, time=0),
    Message('note_on', channel=0, note=62, velocity=0, time=0),
    Message('note_on', channel=0, note=67, velocity=0, time=0),
    Message('note_on', channel=0, note=45, velocity=92, time=50),
    Message('note_on', channel=0, note=52, velocity=92, time=0),
    Message('note_on', channel=0, note=57, velocity=92, time=0),
    Message('note_on', channel=0, note=59, velocity=92, time=0),
    Message('note_on', channel=0, note=64, velocity=92, time=0),
    Message('note_on', channel=0, note=45, velocity=0, time=46),
    Message('note_on', channel=0, note=52, velocity=0, time=0),
    Message('note_on', channel=0, note=57, velocity=0, time=0),
    Message('note_on', channel=0, note=59, velocity=0, time=0),
    Message('note_on', channel=0, note=64, velocity=0, time=0),
    Message('note_on', channel=0, note=45, velocity=92, time=2),
    Message('note_on', channel=0, note=52, velocity=92, time=0),
    Message('note_on', channel=0, note=57, velocity=92, time=0),
    Message('note_on', channel=0, note=59, velocity=92, time=0),
    Message('note_on', channel=0, note=64, velocity=92, time=0),
    Message('note_on', channel=0, note=45, velocity=0, time=94),
    Message('note_on', channel=0, note=52, velocity=0, time=0),
    Message('note_on', channel=0, note=57, velocity=0, time=0),
    Message('note_on', channel=0, note=59, velocity=0, time=0),
    Message('note_on', channel=0, note=64, velocity=0, time=0),
    Message('note_on', channel=0, note=45, velocity=92, time=2),
    Message('note_on', channel=0, note=52, velocity=92, time=0),
    Message('note_on', channel=0, note=57, velocity=92, time=0),
    Message('note_on', channel=0, note=59, velocity=92, time=0),
    Message('note_on', channel=0, note=64, velocity=92, time=0),
    Message('note_on', channel=0, note=45, velocity=0, time=160),
    Message('note_on', channel=0, note=52, velocity=0, time=0),
    Message('note_on', channel=0, note=57, velocity=0, time=0),
    Message('note_on', channel=0, note=59, velocity=0, time=0),
    Message('note_on', channel=0, note=64, velocity=0, time=0),
    Message('note_on', channel=0, note=48, velocity=92, time=32),
    Message('note_on', channel=0, note=50, velocity=92, time=0),
    Message('note_on', channel=0, note=55, velocity=92, time=0),
    Message('note_on', channel=0, note=62, velocity=92, time=0),
    Message('note_on', channel=0, note=67, velocity=92, time=0),
    Message('note_on', channel=0, note=48, velocity=0, time=190),
    Message('note_on', channel=0, note=50, velocity=0, time=0),
    Message('note_on', channel=0, note=55, velocity=0, time=0),
    Message('note_on', channel=0, note=62, velocity=0, time=0),
    Message('note_on', channel=0, note=67, velocity=0, time=0),
    Message('note_on', channel=0, note=48, velocity=92, time=2),
    Message('note_on', channel=0, note=50, velocity=92, time=0),
    Message('note_on', channel=0, note=55, velocity=92, time=0),
    Message('note_on', channel=0, note=62, velocity=92, time=0),
    Message('note_on', channel=0, note=67, velocity=92, time=0),
    Message('note_on', channel=0, note=48, velocity=0, time=142),
    Message('note_on', channel=0, note=50, velocity=0, time=0),
    Message('note_on', channel=0, note=55, velocity=0, time=0),
    Message('note_on', channel=0, note=62, velocity=0, time=0),
    Message('note_on', channel=0, note=67, velocity=0, time=0),
    Message('note_on', channel=0, note=48, velocity=92, time=2),
    Message('note_on', channel=0, note=50, velocity=92, time=0),
    Message('note_on', channel=0, note=55, velocity=92, time=0),
    Message('note_on', channel=0, note=62, velocity=92, time=0),
    Message('note_on', channel=0, note=67, velocity=92, time=0),
    Message('note_on', channel=0, note=48, velocity=0, time=46),
    Message('note_on', channel=0, note=50, velocity=0, time=0),
    Message('note_on', channel=0, note=55, velocity=0, time=0),
    Message('note_on', channel=0, note=62, velocity=0, time=0),
    Message('note_on', channel=0, note=67, velocity=0, time=0),
    Message('note_on', channel=0, note=50, velocity=92, time=50),
    Message('note_on', channel=0, note=57, velocity=92, time=0),
    Message('note_on', channel=0, note=62, velocity=92, time=0),
    Message('note_on', channel=0, note=66, velocity=92, time=0),
    Message('note_on', channel=0, note=50, velocity=0, time=46),
    Message('note_on', channel=0, note=57, velocity=0, time=0),
    Message('note_on', channel=0, note=62, velocity=0, time=0),
    Message('note_on', channel=0, note=66, velocity=0, time=0),
    Message('note_on', channel=0, note=50, velocity=92, time=2),
    Message('note_on', channel=0, note=57, velocity=92, time=0),
    Message('note_on', channel=0, note=62, velocity=92, time=0),
    Message('note_on', channel=0, note=66, velocity=92, time=0),
    Message('note_on', channel=0, note=50, velocity=0, time=94),
    Message('note_on', channel=0, note=57, velocity=0, time=0),
    Message('note_on', channel=0, note=62, velocity=0, time=0),
    Message('note_on', channel=0, note=66, velocity=0, time=0),
    Message('note_on', channel=0, note=50, velocity=92, time=2),
    Message('note_on', channel=0, note=57, velocity=92, time=0),
    Message('note_on', channel=0, note=62, velocity=92, time=0),
    Message('note_on', channel=0, note=66, velocity=92, time=0),
    Message('note_on', channel=0, note=50, velocity=0, time=190),
    Message('note_on', channel=0, note=57, velocity=0, time=0),
    Message('note_on', channel=0, note=62, velocity=0, time=0),
    Message('note_on', channel=0, note=66, velocity=0, time=0),
    Message('program_change', channel=0, program=0, time=2),
    Message('note_on', channel=0, note=52, velocity=60, time=0),
    Message('note_on', channel=0, note=52, velocity=0, time=190),
    Message('note_on', channel=0, note=54, velocity=60, time=2),
    Message('note_on', channel=0, note=54, velocity=0, time=190),
    Message('note_on', channel=0, note=55, velocity=60, time=2),
    Message('note_on', channel=0, note=55, velocity=0, time=142),
    Message('note_on', channel=0, note=55, velocity=60, time=2),
    Message('note_on', channel=0, note=55, velocity=0, time=46),
    Message('note_on', channel=0, note=57, velocity=60, time=2),
    Message('note_on', channel=0, note=57, velocity=0, time=46),
    Message('note_on', channel=0, note=59, velocity=60, time=2),
    Message('note_on', channel=0, note=59, velocity=0, time=46),
    Message('note_on', channel=0, note=62, velocity=60, time=2),
    Message('note_on', channel=0, note=62, velocity=0, time=46),
    Message('note_on', channel=0, note=64, velocity=60, time=2),
    Message('note_on', channel=0, note=64, velocity=0, time=46),
    Message('note_on', channel=0, note=52, velocity=60, time=2),
    Message('note_on', channel=0, note=52, velocity=0, time=190),
    Message('note_on', channel=0, note=54, velocity=60, time=2),
    Message('note_on', channel=0, note=54, velocity=0, time=190),
    Message('note_on', channel=0, note=55, velocity=60, time=2),
    Message('note_on', channel=0, note=55, velocity=0, time=142),
    Message('note_on', channel=0, note=55, velocity=60, time=2),
    Message('note_on', channel=0, note=55, velocity=0, time=46),
    Message('note_on', channel=0, note=57, velocity=60, time=2),
    Message('note_on', channel=0, note=57, velocity=0, time=46),
    Message('note_on', channel=0, note=58, velocity=60, time=2),
    Message('note_on', channel=0, note=58, velocity=0, time=46),
    Message('note_on', channel=0, note=59, velocity=60, time=2),
    Message('note_on', channel=0, note=59, velocity=0, time=94),
    Message('note_on', channel=0, note=52, velocity=60, time=2),
    Message('note_on', channel=0, note=52, velocity=0, time=190),
    Message('note_on', channel=0, note=54, velocity=60, time=2),
    Message('note_on', channel=0, note=54, velocity=0, time=190),
    Message('note_on', channel=0, note=55, velocity=60, time=2),
    Message('note_on', channel=0, note=55, velocity=0, time=142),
    Message('note_on', channel=0, note=55, velocity=60, time=2),
    Message('note_on', channel=0, note=55, velocity=0, time=46),
    Message('note_on', channel=0, note=57, velocity=60, time=2),
    Message('note_on', channel=0, note=57, velocity=0, time=46),
    Message('note_on', channel=0, note=59, velocity=60, time=2),
    Message('note_on', channel=0, note=59, velocity=0, time=46),
    Message('note_on', channel=0, note=62, velocity=60, time=2),
    Message('note_on', channel=0, note=62, velocity=0, time=46),
    Message('note_on', channel=0, note=64, velocity=60, time=2),
    Message('note_on', channel=0, note=64, velocity=0, time=46),
    Message('note_on', channel=0, note=52, velocity=60, time=2),
    Message('note_on', channel=0, note=52, velocity=0, time=190),
    Message('note_on', channel=0, note=54, velocity=60, time=2),
    Message('note_on', channel=0, note=54, velocity=0, time=190),
    Message('note_on', channel=0, note=55, velocity=60, time=2),
    Message('note_on', channel=0, note=55, velocity=0, time=142),
    Message('note_on', channel=0, note=55, velocity=60, time=2),
    Message('note_on', channel=0, note=55, velocity=0, time=46),
    Message('note_on', channel=0, note=57, velocity=60, time=2),
    Message('note_on', channel=0, note=57, velocity=0, time=46),
    Message('note_on', channel=0, note=58, velocity=60, time=2),
    Message('note_on', channel=0, note=58, velocity=0, time=46),
    Message('note_on', channel=0, note=59, velocity=60, time=2),
    Message('note_on', channel=0, note=59, velocity=0, time=94),
    Message('note_on', channel=0, note=52, velocity=60, time=2),
    Message('note_on', channel=0, note=52, velocity=0, time=190),
    Message('note_on', channel=0, note=54, velocity=60, time=2),
    Message('note_on', channel=0, note=54, velocity=0, time=190),
    Message('note_on', channel=0, note=55, velocity=60, time=2),
    Message('note_on', channel=0, note=55, velocity=0, time=142),
    Message('note_on', channel=0, note=55, velocity=60, time=2),
    Message('note_on', channel=0, note=55, velocity=0, time=46),
    Message('note_on', channel=0, note=57, velocity=60, time=2),
    Message('note_on', channel=0, note=57, velocity=0, time=46),
    Message('note_on', channel=0, note=59, velocity=60, time=2),
    Message('note_on', channel=0, note=59, velocity=0, time=46),
    Message('note_on', channel=0, note=62, velocity=60, time=2),
    Message('note_on', channel=0, note=62, velocity=0, time=46),
    Message('note_on', channel=0, note=64, velocity=60, time=2),
    Message('note_on', channel=0, note=64, velocity=0, time=46),
    Message('note_on', channel=0, note=52, velocity=60, time=2),
    Message('note_on', channel=0, note=52, velocity=0, time=190),
    Message('note_on', channel=0, note=54, velocity=60, time=2),
    Message('note_on', channel=0, note=54, velocity=0, time=190),
    Message('note_on', channel=0, note=55, velocity=60, time=2),
    Message('note_on', channel=0, note=55, velocity=0, time=142),
    Message('note_on', channel=0, note=55, velocity=60, time=2),
    Message('note_on', channel=0, note=55, velocity=0, time=46),
    Message('note_on', channel=0, note=57, velocity=60, time=2),
    Message('note_on', channel=0, note=57, velocity=0, time=46),
    Message('note_on', channel=0, note=58, velocity=60, time=2),
    Message('note_on', channel=0, note=58, velocity=0, time=46),
    Message('note_on', channel=0, note=59, velocity=60, time=2),
    Message('note_on', channel=0, note=59, velocity=0, time=94),
    Message('note_on', channel=0, note=52, velocity=60, time=2),
    Message('note_on', channel=0, note=52, velocity=0, time=190),
    Message('note_on', channel=0, note=54, velocity=60, time=2),
    Message('note_on', channel=0, note=54, velocity=0, time=190),
    Message('note_on', channel=0, note=55, velocity=60, time=2),
    Message('note_on', channel=0, note=55, velocity=0, time=142),
    Message('note_on', channel=0, note=55, velocity=60, time=2),
    Message('note_on', channel=0, note=55, velocity=0, time=46),
    Message('note_on', channel=0, note=57, velocity=60, time=2),
    Message('note_on', channel=0, note=57, velocity=0, time=46),
    Message('note_on', channel=0, note=59, velocity=60, time=2),
    Message('note_on', channel=0, note=59, velocity=0, time=46),
    Message('note_on', channel=0, note=62, velocity=60, time=2),
    Message('note_on', channel=0, note=62, velocity=0, time=46),
    Message('note_on', channel=0, note=64, velocity=60, time=2),
    Message('note_on', channel=0, note=64, velocity=0, time=46),
    Message('note_on', channel=0, note=52, velocity=60, time=2),
    Message('note_on', channel=0, note=52, velocity=0, time=190),
    Message('note_on', channel=0, note=54, velocity=60, time=2),
    Message('note_on', channel=0, note=54, velocity=0, time=190),
    Message('note_on', channel=0, note=55, velocity=60, time=2),
    Message('note_on', channel=0, note=55, velocity=0, time=142),
    Message('note_on', channel=0, note=55, velocity=60, time=2),
    Message('note_on', channel=0, note=55, velocity=0, time=46),
    Message('note_on', channel=0, note=57, velocity=60, time=2),
    Message('note_on', channel=0, note=57, velocity=0, time=46),
    Message('note_on', channel=0, note=58, velocity=60, time=2),
    Message('note_on', channel=0, note=58, velocity=0, time=46),
    Message('note_on', channel=0, note=59, velocity=60, time=2),
    Message('note_on', channel=0, note=59, velocity=0, time=94),
    Message('program_change', channel=0, program=25, time=2),
    Message('note_on', channel=0, note=40, velocity=75, time=0),
    Message('note_on', channel=0, note=47, velocity=75, time=0),
    Message('note_on', channel=0, note=52, velocity=75, time=0),
    Message('note_on', channel=0, note=55, velocity=75, time=0),
    Message('note_on', channel=0, note=62, velocity=75, time=0),
    Message('note_on', channel=0, note=64, velocity=75, time=0),
    Message('note_on', channel=0, note=40, velocity=0, time=720),
    Message('note_on', channel=0, note=47, velocity=0, time=0),
    Message('note_on', channel=0, note=52, velocity=0, time=0),
    Message('note_on', channel=0, note=55, velocity=0, time=0),
    Message('note_on', channel=0, note=62, velocity=0, time=0),
    Message('note_on', channel=0, note=64, velocity=0, time=0),
    Message('note_on', channel=0, note=40, velocity=75, time=48),
    Message('note_on', channel=0, note=47, velocity=75, time=0),
    Message('note_on', channel=0, note=52, velocity=75, time=0),
    Message('note_on', channel=0, note=55, velocity=75, time=0),
    Message('note_on', channel=0, note=62, velocity=75, time=0),
    Message('note_on', channel=0, note=64, velocity=75, time=0),
    Message('note_on', channel=0, note=40, velocity=0, time=720),
    Message('note_on', channel=0, note=47, velocity=0, time=0),
    Message('note_on', channel=0, note=52, velocity=0, time=0),
    Message('note_on', channel=0, note=55, velocity=0, time=0),
    Message('note_on', channel=0, note=62, velocity=0, time=0),
    Message('note_on', channel=0, note=64, velocity=0, time=0),
    Message('note_on', channel=0, note=40, velocity=75, time=48),
    Message('note_on', channel=0, note=47, velocity=75, time=0),
    Message('note_on', channel=0, note=52, velocity=75, time=0),
    Message('note_on', channel=0, note=55, velocity=75, time=0),
    Message('note_on', channel=0, note=62, velocity=75, time=0),
    Message('note_on', channel=0, note=64, velocity=75, time=0),
    Message('note_on', channel=0, note=40, velocity=0, time=720),
    Message('note_on', channel=0, note=47, velocity=0, time=0),
    Message('note_on', channel=0, note=52, velocity=0, time=0),
    Message('note_on', channel=0, note=55, velocity=0, time=0),
    Message('note_on', channel=0, note=62, velocity=0, time=0),
    Message('note_on', channel=0, note=64, velocity=0, time=0),
    Message('note_on', channel=0, note=40, velocity=75, time=48),
    Message('note_on', channel=0, note=47, velocity=75, time=0),
    Message('note_on', channel=0, note=52, velocity=75, time=0),
    Message('note_on', channel=0, note=55, velocity=75, time=0),
    Message('note_on', channel=0, note=62, velocity=75, time=0),
    Message('note_on', channel=0, note=64, velocity=75, time=0),
    Message('note_on', channel=0, note=40, velocity=0, time=720),
    Message('note_on', channel=0, note=47, velocity=0, time=0),
    Message('note_on', channel=0, note=52, velocity=0, time=0),
    Message('note_on', channel=0, note=55, velocity=0, time=0),
    Message('note_on', channel=0, note=62, velocity=0, time=0),
    Message('note_on', channel=0, note=64, velocity=0, time=0),
    Message('note_on', channel=0, note=43, velocity=92, time=48),
    Message('note_on', channel=0, note=50, velocity=92, time=0),
    Message('note_on', channel=0, note=55, velocity=92, time=0),
    Message('note_on', channel=0, note=62, velocity=92, time=0),
    Message('note_on', channel=0, note=67, velocity=92, time=0),
    Message('note_on', channel=0, note=43, velocity=0, time=94),
    Message('note_on', channel=0, note=50, velocity=0, time=0),
    Message('note_on', channel=0, note=55, velocity=0, time=0),
    Message('note_on', channel=0, note=62, velocity=0, time=0),
    Message('note_on', channel=0, note=67, velocity=0, time=0),
    Message('note_on', channel=0, note=43, velocity=92, time=2),
    Message('note_on', channel=0, note=50, velocity=92, time=0),
    Message('note_on', channel=0, note=55, velocity=92, time=0),
    Message('note_on', channel=0, note=62, velocity=92, time=0),
    Message('note_on', channel=0, note=67, velocity=92, time=0),
    Message('note_on', channel=0, note=43, velocity=0, time=94),
    Message('note_on', channel=0, note=50, velocity=0, time=0),
    Message('note_on', channel=0, note=55, velocity=0, time=0),
    Message('note_on', channel=0, note=62, velocity=0, time=0),
    Message('note_on', channel=0, note=67, velocity=0, time=0),
    Message('note_on', channel=0, note=43, velocity=92, time=2),
    Message('note_on', channel=0, note=50, velocity=92, time=0),
    Message('note_on', channel=0, note=55, velocity=92, time=0),
    Message('note_on', channel=0, note=62, velocity=92, time=0),
    Message('note_on', channel=0, note=67, velocity=92, time=0),
    Message('note_on', channel=0, note=43, velocity=0, time=94),
    Message('note_on', channel=0, note=50, velocity=0, time=0),
    Message('note_on', channel=0, note=55, velocity=0, time=0),
    Message('note_on', channel=0, note=62, velocity=0, time=0),
    Message('note_on', channel=0, note=67, velocity=0, time=0),
    Message('note_on', channel=0, note=43, velocity=92, time=2),
    Message('note_on', channel=0, note=50, velocity=92, time=0),
    Message('note_on', channel=0, note=55, velocity=92, time=0),
    Message('note_on', channel=0, note=62, velocity=92, time=0),
    Message('note_on', channel=0, note=67, velocity=92, time=0),
    Message('note_on', channel=0, note=43, velocity=0, time=46),
    Message('note_on', channel=0, note=50, velocity=0, time=0),
    Message('note_on', channel=0, note=55, velocity=0, time=0),
    Message('note_on', channel=0, note=62, velocity=0, time=0),
    Message('note_on', channel=0, note=67, velocity=0, time=0),
    Message('note_on', channel=0, note=43, velocity=92, time=2),
    Message('note_on', channel=0, note=50, velocity=92, time=0),
    Message('note_on', channel=0, note=55, velocity=92, time=0),
    Message('note_on', channel=0, note=62, velocity=92, time=0),
    Message('note_on', channel=0, note=67, velocity=92, time=0),
    Message('note_on', channel=0, note=43, velocity=0, time=46),
    Message('note_on', channel=0, note=50, velocity=0, time=0),
    Message('note_on', channel=0, note=55, velocity=0, time=0),
    Message('note_on', channel=0, note=62, velocity=0, time=0),
    Message('note_on', channel=0, note=67, velocity=0, time=0),
    Message('note_on', channel=0, note=45, velocity=92, time=50),
    Message('note_on', channel=0, note=52, velocity=92, time=0),
    Message('note_on', channel=0, note=57, velocity=92, time=0),
    Message('note_on', channel=0, note=59, velocity=92, time=0),
    Message('note_on', channel=0, note=64, velocity=92, time=0),
    Message('note_on', channel=0, note=45, velocity=0, time=46),
    Message('note_on', channel=0, note=52, velocity=0, time=0),
    Message('note_on', channel=0, note=57, velocity=0, time=0),
    Message('note_on', channel=0, note=59, velocity=0, time=0),
    Message('note_on', channel=0, note=64, velocity=0, time=0),
    Message('note_on', channel=0, note=45, velocity=92, time=2),
    Message('note_on', channel=0, note=52, velocity=92, time=0),
    Message('note_on', channel=0, note=57, velocity=92, time=0),
    Message('note_on', channel=0, note=59, velocity=92, time=0),
    Message('note_on', channel=0, note=64, velocity=92, time=0),
    Message('note_on', channel=0, note=45, velocity=0, time=94),
    Message('note_on', channel=0, note=52, velocity=0, time=0),
    Message('note_on', channel=0, note=57, velocity=0, time=0),
    Message('note_on', channel=0, note=59, velocity=0, time=0),
    Message('note_on', channel=0, note=64, velocity=0, time=0),
    Message('note_on', channel=0, note=45, velocity=92, time=2),
    Message('note_on', channel=0, note=52, velocity=92, time=0),
    Message('note_on', channel=0, note=57, velocity=92, time=0),
    Message('note_on', channel=0, note=59, velocity=92, time=0),
    Message('note_on', channel=0, note=64, velocity=92, time=0),
    Message('note_on', channel=0, note=45, velocity=0, time=160),
    Message('note_on', channel=0, note=52, velocity=0, time=0),
    Message('note_on', channel=0, note=57, velocity=0, time=0),
    Message('note_on', channel=0, note=59, velocity=0, time=0),
    Message('note_on', channel=0, note=64, velocity=0, time=0),
    Message('note_on', channel=0, note=40, velocity=92, time=32),
    Message('note_on', channel=0, note=47, velocity=92, time=0),
    Message('note_on', channel=0, note=52, velocity=92, time=0),
    Message('note_on', channel=0, note=55, velocity=92, time=0),
    Message('note_on', channel=0, note=59, velocity=92, time=0),
    Message('note_on', channel=0, note=64, velocity=92, time=0),
    Message('note_on', channel=0, note=40, velocity=0, time=142),
    Message('note_on', channel=0, note=47, velocity=0, time=0),
    Message('note_on', channel=0, note=52, velocity=0, time=0),
    Message('note_on', channel=0, note=55, velocity=0, time=0),
    Message('note_on', channel=0, note=59, velocity=0, time=0),
    Message('note_on', channel=0, note=64, velocity=0, time=0),
    Message('note_on', channel=0, note=40, velocity=92, time=2),
    Message('note_on', channel=0, note=47, velocity=92, time=0),
    Message('note_on', channel=0, note=52, velocity=92, time=0),
    Message('note_on', channel=0, note=55, velocity=92, time=0),
    Message('note_on', channel=0, note=59, velocity=92, time=0),
    Message('note_on', channel=0, note=64, velocity=92, time=0),
    Message('note_on', channel=0, note=40, velocity=0, time=46),
    Message('note_on', channel=0, note=47, velocity=0, time=0),
    Message('note_on', channel=0, note=52, velocity=0, time=0),
    Message('note_on', channel=0, note=55, velocity=0, time=0),
    Message('note_on', channel=0, note=59, velocity=0, time=0),
    Message('note_on', channel=0, note=64, velocity=0, time=0),
    Message('note_on', channel=0, note=40, velocity=92, time=2),
    Message('note_on', channel=0, note=47, velocity=92, time=0),
    Message('note_on', channel=0, note=52, velocity=92, time=0),
    Message('note_on', channel=0, note=55, velocity=92, time=0),
    Message('note_on', channel=0, note=62, velocity=92, time=0),
    Message('note_on', channel=0, note=67, velocity=92, time=0),
    Message('note_on', channel=0, note=40, velocity=0, time=142),
    Message('note_on', channel=0, note=47, velocity=0, time=0),
    Message('note_on', channel=0, note=52, velocity=0, time=0),
    Message('note_on', channel=0, note=55, velocity=0, time=0),
    Message('note_on', channel=0, note=62, velocity=0, time=0),
    Message('note_on', channel=0, note=67, velocity=0, time=0),
    Message('note_on', channel=0, note=40, velocity=92, time=2),
    Message('note_on', channel=0, note=47, velocity=92, time=0),
    Message('note_on', channel=0, note=52, velocity=92, time=0),
    Message('note_on', channel=0, note=55, velocity=92, time=0),
    Message('note_on', channel=0, note=62, velocity=92, time=0),
    Message('note_on', channel=0, note=67, velocity=92, time=0),
    Message('note_on', channel=0, note=40, velocity=0, time=46),
    Message('note_on', channel=0, note=47, velocity=0, time=0),
    Message('note_on', channel=0, note=52, velocity=0, time=0),
    Message('note_on', channel=0, note=55, velocity=0, time=0),
    Message('note_on', channel=0, note=62, velocity=0, time=0),
    Message('note_on', channel=0, note=67, velocity=0, time=0),
    Message('note_on', channel=0, note=40, velocity=92, time=50),
    Message('note_on', channel=0, note=47, velocity=92, time=0),
    Message('note_on', channel=0, note=52, velocity=92, time=0),
    Message('note_on', channel=0, note=55, velocity=92, time=0),
    Message('note_on', channel=0, note=62, velocity=92, time=0),
    Message('note_on', channel=0, note=67, velocity=92, time=0),
    Message('note_on', channel=0, note=40, velocity=0, time=46),
    Message('note_on', channel=0, note=47, velocity=0, time=0),
    Message('note_on', channel=0, note=52, velocity=0, time=0),
    Message('note_on', channel=0, note=55, velocity=0, time=0),
    Message('note_on', channel=0, note=62, velocity=0, time=0),
    Message('note_on', channel=0, note=67, velocity=0, time=0),
    Message('note_on', channel=0, note=40, velocity=92, time=2),
    Message('note_on', channel=0, note=47, velocity=92, time=0),
    Message('note_on', channel=0, note=52, velocity=92, time=0),
    Message('note_on', channel=0, note=55, velocity=92, time=0),
    Message('note_on', channel=0, note=62, velocity=92, time=0),
    Message('note_on', channel=0, note=67, velocity=92, time=0),
    Message('note_on', channel=0, note=40, velocity=0, time=142),
    Message('note_on', channel=0, note=47, velocity=0, time=0),
    Message('note_on', channel=0, note=52, velocity=0, time=0),
    Message('note_on', channel=0, note=55, velocity=0, time=0),
    Message('note_on', channel=0, note=62, velocity=0, time=0),
    Message('note_on', channel=0, note=67, velocity=0, time=0),
    Message('note_on', channel=0, note=40, velocity=92, time=2),
    Message('note_on', channel=0, note=47, velocity=92, time=0),
    Message('note_on', channel=0, note=52, velocity=92, time=0),
    Message('note_on', channel=0, note=55, velocity=92, time=0),
    Message('note_on', channel=0, note=62, velocity=92, time=0),
    Message('note_on', channel=0, note=67, velocity=92, time=0),
    Message('note_on', channel=0, note=40, velocity=0, time=46),
    Message('note_on', channel=0, note=47, velocity=0, time=0),
    Message('note_on', channel=0, note=52, velocity=0, time=0),
    Message('note_on', channel=0, note=55, velocity=0, time=0),
    Message('note_on', channel=0, note=62, velocity=0, time=0),
    Message('note_on', channel=0, note=67, velocity=0, time=0),
    Message('note_on', channel=0, note=40, velocity=92, time=2),
    Message('note_on', channel=0, note=47, velocity=92, time=0),
    Message('note_on', channel=0, note=52, velocity=92, time=0),
    Message('note_on', channel=0, note=55, velocity=92, time=0),
    Message('note_on', channel=0, note=62, velocity=92, time=0),
    Message('note_on', channel=0, note=67, velocity=92, time=0),
    Message('note_on', channel=0, note=40, velocity=0, time=46),
    Message('note_on', channel=0, note=47, velocity=0, time=0),
    Message('note_on', channel=0, note=52, velocity=0, time=0),
    Message('note_on', channel=0, note=55, velocity=0, time=0),
    Message('note_on', channel=0, note=62, velocity=0, time=0),
    Message('note_on', channel=0, note=67, velocity=0, time=0),
    Message('note_on', channel=0, note=50, velocity=92, time=2),
    Message('note_on', channel=0, note=55, velocity=92, time=0),
    Message('note_on', channel=0, note=59, velocity=92, time=0),
    Message('note_on', channel=0, note=64, velocity=92, time=0),
    Message('note_on', channel=0, note=50, velocity=0, time=46),
    Message('note_on', channel=0, note=55, velocity=0, time=0),
    Message('note_on', channel=0, note=59, velocity=0, time=0),
    Message('note_on', channel=0, note=64, velocity=0, time=0),
    Message('note_on', channel=0, note=43, velocity=92, time=2),
    Message('note_on', channel=0, note=50, velocity=92, time=0),
    Message('note_on', channel=0, note=55, velocity=92, time=0),
    Message('note_on', channel=0, note=62, velocity=92, time=0),
    Message('note_on', channel=0, note=67, velocity=92, time=0),
    Message('note_on', channel=0, note=43, velocity=0, time=94),
    Message('note_on', channel=0, note=50, velocity=0, time=0),
    Message('note_on', channel=0, note=55, velocity=0, time=0),
    Message('note_on', channel=0, note=62, velocity=0, time=0),
    Message('note_on', channel=0, note=67, velocity=0, time=0),
    Message('note_on', channel=0, note=43, velocity=92, time=2),
    Message('note_on', channel=0, note=50, velocity=92, time=0),
    Message('note_on', channel=0, note=55, velocity=92, time=0),
    Message('note_on', channel=0, note=62, velocity=92, time=0),
    Message('note_on', channel=0, note=67, velocity=92, time=0),
    Message('note_on', channel=0, note=43, velocity=0, time=94),
    Message('note_on', channel=0, note=50, velocity=0, time=0),
    Message('note_on', channel=0, note=55, velocity=0, time=0),
    Message('note_on', channel=0, note=62, velocity=0, time=0),
    Message('note_on', channel=0, note=67, velocity=0, time=0),
    Message('note_on', channel=0, note=43, velocity=92, time=2),
    Message('note_on', channel=0, note=50, velocity=92, time=0),
    Message('note_on', channel=0, note=55, velocity=92, time=0),
    Message('note_on', channel=0, note=62, velocity=92, time=0),
    Message('note_on', channel=0, note=67, velocity=92, time=0),
    Message('note_on', channel=0, note=43, velocity=0, time=94),
    Message('note_on', channel=0, note=50, velocity=0, time=0),
    Message('note_on', channel=0, note=55, velocity=0, time=0),
    Message('note_on', channel=0, note=62, velocity=0, time=0),
    Message('note_on', channel=0, note=67, velocity=0, time=0),
    Message('note_on', channel=0, note=43, velocity=92, time=2),
    Message('note_on', channel=0, note=50, velocity=92, time=0),
    Message('note_on', channel=0, note=55, velocity=92, time=0),
    Message('note_on', channel=0, note=62, velocity=92, time=0),
    Message('note_on', channel=0, note=67, velocity=92, time=0),
    Message('note_on', channel=0, note=43, velocity=0, time=46),
    Message('note_on', channel=0, note=50, velocity=0, time=0),
    Message('note_on', channel=0, note=55, velocity=0, time=0),
    Message('note_on', channel=0, note=62, velocity=0, time=0),
    Message('note_on', channel=0, note=67, velocity=0, time=0),
    Message('note_on', channel=0, note=43, velocity=92, time=2),
    Message('note_on', channel=0, note=50, velocity=92, time=0),
    Message('note_on', channel=0, note=55, velocity=92, time=0),
    Message('note_on', channel=0, note=62, velocity=92, time=0),
    Message('note_on', channel=0, note=67, velocity=92, time=0),
    Message('note_on', channel=0, note=43, velocity=0, time=46),
    Message('note_on', channel=0, note=50, velocity=0, time=0),
    Message('note_on', channel=0, note=55, velocity=0, time=0),
    Message('note_on', channel=0, note=62, velocity=0, time=0),
    Message('note_on', channel=0, note=67, velocity=0, time=0),
    Message('note_on', channel=0, note=45, velocity=92, time=50),
    Message('note_on', channel=0, note=52, velocity=92, time=0),
    Message('note_on', channel=0, note=57, velocity=92, time=0),
    Message('note_on', channel=0, note=59, velocity=92, time=0),
    Message('note_on', channel=0, note=64, velocity=92, time=0),
    Message('note_on', channel=0, note=45, velocity=0, time=46),
    Message('note_on', channel=0, note=52, velocity=0, time=0),
    Message('note_on', channel=0, note=57, velocity=0, time=0),
    Message('note_on', channel=0, note=59, velocity=0, time=0),
    Message('note_on', channel=0, note=64, velocity=0, time=0),
    Message('note_on', channel=0, note=45, velocity=92, time=2),
    Message('note_on', channel=0, note=52, velocity=92, time=0),
    Message('note_on', channel=0, note=57, velocity=92, time=0),
    Message('note_on', channel=0, note=59, velocity=92, time=0),
    Message('note_on', channel=0, note=64, velocity=92, time=0),
    Message('note_on', channel=0, note=45, velocity=0, time=94),
    Message('note_on', channel=0, note=52, velocity=0, time=0),
    Message('note_on', channel=0, note=57, velocity=0, time=0),
    Message('note_on', channel=0, note=59, velocity=0, time=0),
    Message('note_on', channel=0, note=64, velocity=0, time=0),
    Message('note_on', channel=0, note=45, velocity=92, time=2),
    Message('note_on', channel=0, note=52, velocity=92, time=0),
    Message('note_on', channel=0, note=57, velocity=92, time=0),
    Message('note_on', channel=0, note=59, velocity=92, time=0),
    Message('note_on', channel=0, note=64, velocity=92, time=0),
    Message('note_on', channel=0, note=45, velocity=0, time=160),
    Message('note_on', channel=0, note=52, velocity=0, time=0),
    Message('note_on', channel=0, note=57, velocity=0, time=0),
    Message('note_on', channel=0, note=59, velocity=0, time=0),
    Message('note_on', channel=0, note=64, velocity=0, time=0),
    Message('note_on', channel=0, note=40, velocity=92, time=32),
    Message('note_on', channel=0, note=47, velocity=92, time=0),
    Message('note_on', channel=0, note=52, velocity=92, time=0),
    Message('note_on', channel=0, note=55, velocity=92, time=0),
    Message('note_on', channel=0, note=59, velocity=92, time=0),
    Message('note_on', channel=0, note=64, velocity=92, time=0),
    Message('note_on', channel=0, note=40, velocity=0, time=142),
    Message('note_on', channel=0, note=47, velocity=0, time=0),
    Message('note_on', channel=0, note=52, velocity=0, time=0),
    Message('note_on', channel=0, note=55, velocity=0, time=0),
    Message('note_on', channel=0, note=59, velocity=0, time=0),
    Message('note_on', channel=0, note=64, velocity=0, time=0),
    Message('note_on', channel=0, note=40, velocity=92, time=2),
    Message('note_on', channel=0, note=47, velocity=92, time=0),
    Message('note_on', channel=0, note=52, velocity=92, time=0),
    Message('note_on', channel=0, note=55, velocity=92, time=0),
    Message('note_on', channel=0, note=59, velocity=92, time=0),
    Message('note_on', channel=0, note=64, velocity=92, time=0),
    Message('note_on', channel=0, note=40, velocity=0, time=46),
    Message('note_on', channel=0, note=47, velocity=0, time=0),
    Message('note_on', channel=0, note=52, velocity=0, time=0),
    Message('note_on', channel=0, note=55, velocity=0, time=0),
    Message('note_on', channel=0, note=59, velocity=0, time=0),
    Message('note_on', channel=0, note=64, velocity=0, time=0),
    Message('note_on', channel=0, note=40, velocity=92, time=2),
    Message('note_on', channel=0, note=47, velocity=92, time=0),
    Message('note_on', channel=0, note=52, velocity=92, time=0),
    Message('note_on', channel=0, note=55, velocity=92, time=0),
    Message('note_on', channel=0, note=62, velocity=92, time=0),
    Message('note_on', channel=0, note=67, velocity=92, time=0),
    Message('note_on', channel=0, note=40, velocity=0, time=142),
    Message('note_on', channel=0, note=47, velocity=0, time=0),
    Message('note_on', channel=0, note=52, velocity=0, time=0),
    Message('note_on', channel=0, note=55, velocity=0, time=0),
    Message('note_on', channel=0, note=62, velocity=0, time=0),
    Message('note_on', channel=0, note=67, velocity=0, time=0),
    Message('note_on', channel=0, note=40, velocity=92, time=2),
    Message('note_on', channel=0, note=47, velocity=92, time=0),
    Message('note_on', channel=0, note=52, velocity=92, time=0),
    Message('note_on', channel=0, note=55, velocity=92, time=0),
    Message('note_on', channel=0, note=62, velocity=92, time=0),
    Message('note_on', channel=0, note=67, velocity=92, time=0),
    Message('note_on', channel=0, note=40, velocity=0, time=46),
    Message('note_on', channel=0, note=47, velocity=0, time=0),
    Message('note_on', channel=0, note=52, velocity=0, time=0),
    Message('note_on', channel=0, note=55, velocity=0, time=0),
    Message('note_on', channel=0, note=62, velocity=0, time=0),
    Message('note_on', channel=0, note=67, velocity=0, time=0),
    Message('note_on', channel=0, note=40, velocity=92, time=50),
    Message('note_on', channel=0, note=47, velocity=92, time=0),
    Message('note_on', channel=0, note=52, velocity=92, time=0),
    Message('note_on', channel=0, note=55, velocity=92, time=0),
    Message('note_on', channel=0, note=62, velocity=92, time=0),
    Message('note_on', channel=0, note=67, velocity=92, time=0),
    Message('note_on', channel=0, note=40, velocity=0, time=46),
    Message('note_on', channel=0, note=47, velocity=0, time=0),
    Message('note_on', channel=0, note=52, velocity=0, time=0),
    Message('note_on', channel=0, note=55, velocity=0, time=0),
    Message('note_on', channel=0, note=62, velocity=0, time=0),
    Message('note_on', channel=0, note=67, velocity=0, time=0),
    Message('note_on', channel=0, note=40, velocity=92, time=2),
    Message('note_on', channel=0, note=47, velocity=92, time=0),
    Message('note_on', channel=0, note=52, velocity=92, time=0),
    Message('note_on', channel=0, note=55, velocity=92, time=0),
    Message('note_on', channel=0, note=62, velocity=92, time=0),
    Message('note_on', channel=0, note=67, velocity=92, time=0),
    Message('note_on', channel=0, note=40, velocity=0, time=142),
    Message('note_on', channel=0, note=47, velocity=0, time=0),
    Message('note_on', channel=0, note=52, velocity=0, time=0),
    Message('note_on', channel=0, note=55, velocity=0, time=0),
    Message('note_on', channel=0, note=62, velocity=0, time=0),
    Message('note_on', channel=0, note=67, velocity=0, time=0),
    Message('note_on', channel=0, note=40, velocity=92, time=2),
    Message('note_on', channel=0, note=47, velocity=92, time=0),
    Message('note_on', channel=0, note=52, velocity=92, time=0),
    Message('note_on', channel=0, note=55, velocity=92, time=0),
    Message('note_on', channel=0, note=62, velocity=92, time=0),
    Message('note_on', channel=0, note=67, velocity=92, time=0),
    Message('note_on', channel=0, note=40, velocity=0, time=46),
    Message('note_on', channel=0, note=47, velocity=0, time=0),
    Message('note_on', channel=0, note=52, velocity=0, time=0),
    Message('note_on', channel=0, note=55, velocity=0, time=0),
    Message('note_on', channel=0, note=62, velocity=0, time=0),
    Message('note_on', channel=0, note=67, velocity=0, time=0),
    Message('note_on', channel=0, note=40, velocity=92, time=2),
    Message('note_on', channel=0, note=47, velocity=92, time=0),
    Message('note_on', channel=0, note=52, velocity=92, time=0),
    Message('note_on', channel=0, note=55, velocity=92, time=0),
    Message('note_on', channel=0, note=62, velocity=92, time=0),
    Message('note_on', channel=0, note=67, velocity=92, time=0),
    Message('note_on', channel=0, note=40, velocity=0, time=46),
    Message('note_on', channel=0, note=47, velocity=0, time=0),
    Message('note_on', channel=0, note=52, velocity=0, time=0),
    Message('note_on', channel=0, note=55, velocity=0, time=0),
    Message('note_on', channel=0, note=62, velocity=0, time=0),
    Message('note_on', channel=0, note=67, velocity=0, time=0),
    Message('note_on', channel=0, note=50, velocity=92, time=2),
    Message('note_on', channel=0, note=55, velocity=92, time=0),
    Message('note_on', channel=0, note=59, velocity=92, time=0),
    Message('note_on', channel=0, note=64, velocity=92, time=0),
    Message('note_on', channel=0, note=50, velocity=0, time=46),
    Message('note_on', channel=0, note=55, velocity=0, time=0),
    Message('note_on', channel=0, note=59, velocity=0, time=0),
    Message('note_on', channel=0, note=64, velocity=0, time=0),
    Message('note_on', channel=0, note=43, velocity=92, time=2),
    Message('note_on', channel=0, note=50, velocity=92, time=0),
    Message('note_on', channel=0, note=55, velocity=92, time=0),
    Message('note_on', channel=0, note=62, velocity=92, time=0),
    Message('note_on', channel=0, note=67, velocity=92, time=0),
    Message('note_on', channel=0, note=43, velocity=0, time=94),
    Message('note_on', channel=0, note=50, velocity=0, time=0),
    Message('note_on', channel=0, note=55, velocity=0, time=0),
    Message('note_on', channel=0, note=62, velocity=0, time=0),
    Message('note_on', channel=0, note=67, velocity=0, time=0),
    Message('note_on', channel=0, note=43, velocity=92, time=2),
    Message('note_on', channel=0, note=50, velocity=92, time=0),
    Message('note_on', channel=0, note=55, velocity=92, time=0),
    Message('note_on', channel=0, note=62, velocity=92, time=0),
    Message('note_on', channel=0, note=67, velocity=92, time=0),
    Message('note_on', channel=0, note=43, velocity=0, time=94),
    Message('note_on', channel=0, note=50, velocity=0, time=0),
    Message('note_on', channel=0, note=55, velocity=0, time=0),
    Message('note_on', channel=0, note=62, velocity=0, time=0),
    Message('note_on', channel=0, note=67, velocity=0, time=0),
    Message('note_on', channel=0, note=43, velocity=92, time=2),
    Message('note_on', channel=0, note=50, velocity=92, time=0),
    Message('note_on', channel=0, note=55, velocity=92, time=0),
    Message('note_on', channel=0, note=62, velocity=92, time=0),
    Message('note_on', channel=0, note=67, velocity=92, time=0),
    Message('note_on', channel=0, note=43, velocity=0, time=94),
    Message('note_on', channel=0, note=50, velocity=0, time=0),
    Message('note_on', channel=0, note=55, velocity=0, time=0),
    Message('note_on', channel=0, note=62, velocity=0, time=0),
    Message('note_on', channel=0, note=67, velocity=0, time=0),
    Message('note_on', channel=0, note=43, velocity=92, time=2),
    Message('note_on', channel=0, note=50, velocity=92, time=0),
    Message('note_on', channel=0, note=55, velocity=92, time=0),
    Message('note_on', channel=0, note=62, velocity=92, time=0),
    Message('note_on', channel=0, note=67, velocity=92, time=0),
    Message('note_on', channel=0, note=43, velocity=0, time=46),
    Message('note_on', channel=0, note=50, velocity=0, time=0),
    Message('note_on', channel=0, note=55, velocity=0, time=0),
    Message('note_on', channel=0, note=62, velocity=0, time=0),
    Message('note_on', channel=0, note=67, velocity=0, time=0),
    Message('note_on', channel=0, note=43, velocity=92, time=2),
    Message('note_on', channel=0, note=50, velocity=92, time=0),
    Message('note_on', channel=0, note=55, velocity=92, time=0),
    Message('note_on', channel=0, note=62, velocity=92, time=0),
    Message('note_on', channel=0, note=67, velocity=92, time=0),
    Message('note_on', channel=0, note=43, velocity=0, time=46),
    Message('note_on', channel=0, note=50, velocity=0, time=0),
    Message('note_on', channel=0, note=55, velocity=0, time=0),
    Message('note_on', channel=0, note=62, velocity=0, time=0),
    Message('note_on', channel=0, note=67, velocity=0, time=0),
    Message('note_on', channel=0, note=45, velocity=92, time=50),
    Message('note_on', channel=0, note=52, velocity=92, time=0),
    Message('note_on', channel=0, note=57, velocity=92, time=0),
    Message('note_on', channel=0, note=59, velocity=92, time=0),
    Message('note_on', channel=0, note=64, velocity=92, time=0),
    Message('note_on', channel=0, note=45, velocity=0, time=46),
    Message('note_on', channel=0, note=52, velocity=0, time=0),
    Message('note_on', channel=0, note=57, velocity=0, time=0),
    Message('note_on', channel=0, note=59, velocity=0, time=0),
    Message('note_on', channel=0, note=64, velocity=0, time=0),
    Message('note_on', channel=0, note=45, velocity=92, time=2),
    Message('note_on', channel=0, note=52, velocity=92, time=0),
    Message('note_on', channel=0, note=57, velocity=92, time=0),
    Message('note_on', channel=0, note=59, velocity=92, time=0),
    Message('note_on', channel=0, note=64, velocity=92, time=0),
    Message('note_on', channel=0, note=45, velocity=0, time=94),
    Message('note_on', channel=0, note=52, velocity=0, time=0),
    Message('note_on', channel=0, note=57, velocity=0, time=0),
    Message('note_on', channel=0, note=59, velocity=0, time=0),
    Message('note_on', channel=0, note=64, velocity=0, time=0),
    Message('note_on', channel=0, note=45, velocity=92, time=2),
    Message('note_on', channel=0, note=52, velocity=92, time=0),
    Message('note_on', channel=0, note=57, velocity=92, time=0),
    Message('note_on', channel=0, note=59, velocity=92, time=0),
    Message('note_on', channel=0, note=64, velocity=92, time=0),
    Message('note_on', channel=0, note=45, velocity=0, time=160),
    Message('note_on', channel=0, note=52, velocity=0, time=0),
    Message('note_on', channel=0, note=57, velocity=0, time=0),
    Message('note_on', channel=0, note=59, velocity=0, time=0),
    Message('note_on', channel=0, note=64, velocity=0, time=0),
    Message('note_on', channel=0, note=48, velocity=92, time=32),
    Message('note_on', channel=0, note=50, velocity=92, time=0),
    Message('note_on', channel=0, note=55, velocity=92, time=0),
    Message('note_on', channel=0, note=62, velocity=92, time=0),
    Message('note_on', channel=0, note=67, velocity=92, time=0),
    Message('note_on', channel=0, note=48, velocity=0, time=190),
    Message('note_on', channel=0, note=50, velocity=0, time=0),
    Message('note_on', channel=0, note=55, velocity=0, time=0),
    Message('note_on', channel=0, note=62, velocity=0, time=0),
    Message('note_on', channel=0, note=67, velocity=0, time=0),
    Message('note_on', channel=0, note=48, velocity=92, time=2),
    Message('note_on', channel=0, note=50, velocity=92, time=0),
    Message('note_on', channel=0, note=55, velocity=92, time=0),
    Message('note_on', channel=0, note=62, velocity=92, time=0),
    Message('note_on', channel=0, note=67, velocity=92, time=0),
    Message('note_on', channel=0, note=48, velocity=0, time=142),
    Message('note_on', channel=0, note=50, velocity=0, time=0),
    Message('note_on', channel=0, note=55, velocity=0, time=0),
    Message('note_on', channel=0, note=62, velocity=0, time=0),
    Message('note_on', channel=0, note=67, velocity=0, time=0),
    Message('note_on', channel=0, note=48, velocity=92, time=2),
    Message('note_on', channel=0, note=50, velocity=92, time=0),
    Message('note_on', channel=0, note=55, velocity=92, time=0),
    Message('note_on', channel=0, note=62, velocity=92, time=0),
    Message('note_on', channel=0, note=67, velocity=92, time=0),
    Message('note_on', channel=0, note=48, velocity=0, time=46),
    Message('note_on', channel=0, note=50, velocity=0, time=0),
    Message('note_on', channel=0, note=55, velocity=0, time=0),
    Message('note_on', channel=0, note=62, velocity=0, time=0),
    Message('note_on', channel=0, note=67, velocity=0, time=0),
    Message('note_on', channel=0, note=50, velocity=92, time=50),
    Message('note_on', channel=0, note=57, velocity=92, time=0),
    Message('note_on', channel=0, note=62, velocity=92, time=0),
    Message('note_on', channel=0, note=66, velocity=92, time=0),
    Message('note_on', channel=0, note=50, velocity=0, time=46),
    Message('note_on', channel=0, note=57, velocity=0, time=0),
    Message('note_on', channel=0, note=62, velocity=0, time=0),
    Message('note_on', channel=0, note=66, velocity=0, time=0),
    Message('note_on', channel=0, note=50, velocity=92, time=2),
    Message('note_on', channel=0, note=57, velocity=92, time=0),
    Message('note_on', channel=0, note=62, velocity=92, time=0),
    Message('note_on', channel=0, note=66, velocity=92, time=0),
    Message('note_on', channel=0, note=50, velocity=0, time=94),
    Message('note_on', channel=0, note=57, velocity=0, time=0),
    Message('note_on', channel=0, note=62, velocity=0, time=0),
    Message('note_on', channel=0, note=66, velocity=0, time=0),
    Message('note_on', channel=0, note=50, velocity=92, time=2),
    Message('note_on', channel=0, note=57, velocity=92, time=0),
    Message('note_on', channel=0, note=62, velocity=92, time=0),
    Message('note_on', channel=0, note=66, velocity=92, time=0),
    Message('note_on', channel=0, note=50, velocity=0, time=190),
    Message('note_on', channel=0, note=57, velocity=0, time=0),
    Message('note_on', channel=0, note=62, velocity=0, time=0),
    Message('note_on', channel=0, note=66, velocity=0, time=0),
    Message('program_change', channel=0, program=0, time=2),
    Message('note_on', channel=0, note=52, velocity=60, time=0),
    Message('note_on', channel=0, note=52, velocity=0, time=190),
    Message('note_on', channel=0, note=54, velocity=60, time=2),
    Message('note_on', channel=0, note=54, velocity=0, time=190),
    Message('note_on', channel=0, note=55, velocity=60, time=2),
    Message('note_on', channel=0, note=55, velocity=0, time=142),
    Message('note_on', channel=0, note=55, velocity=60, time=2),
    Message('note_on', channel=0, note=55, velocity=0, time=46),
    Message('note_on', channel=0, note=57, velocity=60, time=2),
    Message('note_on', channel=0, note=57, velocity=0, time=46),
    Message('note_on', channel=0, note=59, velocity=60, time=2),
    Message('note_on', channel=0, note=59, velocity=0, time=46),
    Message('note_on', channel=0, note=62, velocity=60, time=2),
    Message('note_on', channel=0, note=62, velocity=0, time=46),
    Message('note_on', channel=0, note=64, velocity=60, time=2),
    Message('note_on', channel=0, note=64, velocity=0, time=46),
    Message('note_on', channel=0, note=52, velocity=60, time=2),
    Message('note_on', channel=0, note=52, velocity=0, time=190),
    Message('note_on', channel=0, note=54, velocity=60, time=2),
    Message('note_on', channel=0, note=54, velocity=0, time=190),
    Message('note_on', channel=0, note=55, velocity=60, time=2),
    Message('note_on', channel=0, note=55, velocity=0, time=142),
    Message('note_on', channel=0, note=55, velocity=60, time=2),
    Message('note_on', channel=0, note=55, velocity=0, time=46),
    Message('note_on', channel=0, note=57, velocity=60, time=2),
    Message('note_on', channel=0, note=57, velocity=0, time=46),
    Message('note_on', channel=0, note=58, velocity=60, time=2),
    Message('note_on', channel=0, note=58, velocity=0, time=46),
    Message('note_on', channel=0, note=59, velocity=60, time=2),
    Message('note_on', channel=0, note=59, velocity=0, time=94),
    Message('note_on', channel=0, note=52, velocity=60, time=2),
    Message('note_on', channel=0, note=52, velocity=0, time=190),
    Message('note_on', channel=0, note=54, velocity=60, time=2),
    Message('note_on', channel=0, note=54, velocity=0, time=190),
    Message('note_on', channel=0, note=55, velocity=60, time=2),
    Message('note_on', channel=0, note=55, velocity=0, time=142),
    Message('note_on', channel=0, note=55, velocity=60, time=2),
    Message('note_on', channel=0, note=55, velocity=0, time=46),
    Message('note_on', channel=0, note=57, velocity=60, time=2),
    Message('note_on', channel=0, note=57, velocity=0, time=46),
    Message('note_on', channel=0, note=59, velocity=60, time=2),
    Message('note_on', channel=0, note=59, velocity=0, time=46),
    Message('note_on', channel=0, note=62, velocity=60, time=2),
    Message('note_on', channel=0, note=62, velocity=0, time=46),
    Message('note_on', channel=0, note=64, velocity=60, time=2),
    Message('note_on', channel=0, note=64, velocity=0, time=46),
    Message('note_on', channel=0, note=52, velocity=60, time=2),
    Message('note_on', channel=0, note=52, velocity=0, time=190),
    Message('note_on', channel=0, note=54, velocity=60, time=2),
    Message('note_on', channel=0, note=54, velocity=0, time=190),
    Message('note_on', channel=0, note=55, velocity=60, time=2),
    Message('note_on', channel=0, note=55, velocity=0, time=142),
    Message('note_on', channel=0, note=55, velocity=60, time=2),
    Message('note_on', channel=0, note=55, velocity=0, time=46),
    Message('note_on', channel=0, note=57, velocity=60, time=2),
    Message('note_on', channel=0, note=57, velocity=0, time=46),
    Message('note_on', channel=0, note=58, velocity=60, time=2),
    Message('note_on', channel=0, note=58, velocity=0, time=46),
    Message('note_on', channel=0, note=59, velocity=60, time=2),
    Message('note_on', channel=0, note=59, velocity=0, time=94),
    Message('note_on', channel=0, note=52, velocity=60, time=2),
    Message('note_on', channel=0, note=52, velocity=0, time=190),
    Message('note_on', channel=0, note=54, velocity=60, time=2),
    Message('note_on', channel=0, note=54, velocity=0, time=190),
    Message('note_on', channel=0, note=55, velocity=60, time=2),
    Message('note_on', channel=0, note=55, velocity=0, time=142),
    Message('note_on', channel=0, note=55, velocity=60, time=2),
    Message('note_on', channel=0, note=55, velocity=0, time=46),
    Message('note_on', channel=0, note=57, velocity=60, time=2),
    Message('note_on', channel=0, note=57, velocity=0, time=46),
    Message('note_on', channel=0, note=59, velocity=60, time=2),
    Message('note_on', channel=0, note=59, velocity=0, time=46),
    Message('note_on', channel=0, note=62, velocity=60, time=2),
    Message('note_on', channel=0, note=62, velocity=0, time=46),
    Message('note_on', channel=0, note=64, velocity=60, time=2),
    Message('note_on', channel=0, note=64, velocity=0, time=46),
    Message('note_on', channel=0, note=52, velocity=60, time=2),
    Message('note_on', channel=0, note=52, velocity=0, time=190),
    Message('note_on', channel=0, note=54, velocity=60, time=2),
    Message('note_on', channel=0, note=54, velocity=0, time=190),
    Message('note_on', channel=0, note=55, velocity=60, time=2),
    Message('note_on', channel=0, note=55, velocity=0, time=142),
    Message('note_on', channel=0, note=55, velocity=60, time=2),
    Message('note_on', channel=0, note=55, velocity=0, time=46),
    Message('note_on', channel=0, note=57, velocity=60, time=2),
    Message('note_on', channel=0, note=57, velocity=0, time=46),
    Message('note_on', channel=0, note=58, velocity=60, time=2),
    Message('note_on', channel=0, note=58, velocity=0, time=46),
    Message('note_on', channel=0, note=59, velocity=60, time=2),
    Message('note_on', channel=0, note=59, velocity=0, time=94),
    Message('note_on', channel=0, note=52, velocity=60, time=2),
    Message('note_on', channel=0, note=52, velocity=0, time=190),
    Message('note_on', channel=0, note=54, velocity=60, time=2),
    Message('note_on', channel=0, note=54, velocity=0, time=190),
    Message('note_on', channel=0, note=55, velocity=60, time=2),
    Message('note_on', channel=0, note=55, velocity=0, time=142),
    Message('note_on', channel=0, note=55, velocity=60, time=2),
    Message('note_on', channel=0, note=55, velocity=0, time=46),
    Message('note_on', channel=0, note=57, velocity=60, time=2),
    Message('note_on', channel=0, note=57, velocity=0, time=46),
    Message('note_on', channel=0, note=59, velocity=60, time=2),
    Message('note_on', channel=0, note=59, velocity=0, time=46),
    Message('note_on', channel=0, note=62, velocity=60, time=2),
    Message('note_on', channel=0, note=62, velocity=0, time=46),
    Message('note_on', channel=0, note=64, velocity=60, time=2),
    Message('note_on', channel=0, note=64, velocity=0, time=46),
    Message('note_on', channel=0, note=52, velocity=60, time=2),
    Message('note_on', channel=0, note=52, velocity=0, time=190),
    Message('note_on', channel=0, note=54, velocity=60, time=2),
    Message('note_on', channel=0, note=54, velocity=0, time=190),
    Message('note_on', channel=0, note=55, velocity=60, time=2),
    Message('note_on', channel=0, note=55, velocity=0, time=142),
    Message('note_on', channel=0, note=55, velocity=60, time=2),
    Message('note_on', channel=0, note=55, velocity=0, time=46),
    Message('note_on', channel=0, note=57, velocity=60, time=2),
    Message('note_on', channel=0, note=57, velocity=0, time=46),
    Message('note_on', channel=0, note=58, velocity=60, time=2),
    Message('note_on', channel=0, note=58, velocity=0, time=46),
    Message('control_change', channel=0, control=7, value=127, time=2),
    Message('note_on', channel=0, note=59, velocity=60, time=0),
    Message('control_change', channel=0, control=7, value=126, time=6),
    Message('control_change', channel=0, control=7, value=125, time=6),
    Message('control_change', channel=0, control=7, value=124, time=6),
    Message('control_change', channel=0, control=7, value=123, time=6),
    Message('control_change', channel=0, control=7, value=122, time=6),
    Message('control_change', channel=0, control=7, value=121, time=6),
    Message('control_change', channel=0, control=7, value=120, time=6),
    Message('control_change', channel=0, control=7, value=119, time=6),
    Message('control_change', channel=0, control=7, value=118, time=6),
    Message('control_change', channel=0, control=7, value=117, time=6),
    Message('control_change', channel=0, control=7, value=116, time=6),
    Message('control_change', channel=0, control=7, value=115, time=6),
    Message('control_change', channel=0, control=7, value=114, time=6),
    Message('control_change', channel=0, control=7, value=113, time=6),
    Message('control_change', channel=0, control=7, value=112, time=6),
    Message('control_change', channel=0, control=7, value=111, time=6),
    Message('control_change', channel=0, control=7, value=110, time=6),
    Message('control_change', channel=0, control=7, value=109, time=6),
    Message('control_change', channel=0, control=7, value=108, time=6),
    Message('control_change', channel=0, control=7, value=107, time=6),
    Message('control_change', channel=0, control=7, value=106, time=6),
    Message('control_change', channel=0, control=7, value=105, time=7),
    Message('control_change', channel=0, control=7, value=104, time=6),
    Message('control_change', channel=0, control=7, value=103, time=6),
    Message('control_change', channel=0, control=7, value=102, time=6),
    Message('control_change', channel=0, control=7, value=101, time=6),
    Message('control_change', channel=0, control=7, value=100, time=6),
    Message('control_change', channel=0, control=7, value=99, time=6),
    Message('control_change', channel=0, control=7, value=98, time=6),
    Message('control_change', channel=0, control=7, value=97, time=6),
    Message('control_change', channel=0, control=7, value=96, time=6),
    Message('control_change', channel=0, control=7, value=95, time=6),
    Message('control_change', channel=0, control=7, value=94, time=6),
    Message('control_change', channel=0, control=7, value=93, time=6),
    Message('control_change', channel=0, control=7, value=92, time=6),
    Message('control_change', channel=0, control=7, value=91, time=6),
    Message('control_change', channel=0, control=7, value=90, time=6),
    Message('control_change', channel=0, control=7, value=89, time=6),
    Message('control_change', channel=0, control=7, value=88, time=6),
    Message('control_change', channel=0, control=7, value=87, time=6),
    Message('control_change', channel=0, control=7, value=86, time=6),
    Message('control_change', channel=0, control=7, value=85, time=6),
    Message('control_change', channel=0, control=7, value=84, time=7),
    Message('control_change', channel=0, control=7, value=83, time=6),
    Message('control_change', channel=0, control=7, value=82, time=6),
    Message('control_change', channel=0, control=7, value=81, time=6),
    Message('control_change', channel=0, control=7, value=80, time=6),
    Message('control_change', channel=0, control=7, value=79, time=6),
    Message('control_change', channel=0, control=7, value=78, time=6),
    Message('control_change', channel=0, control=7, value=77, time=6),
    Message('control_change', channel=0, control=7, value=76, time=6),
    Message('control_change', channel=0, control=7, value=75, time=6),
    Message('control_change', channel=0, control=7, value=74, time=6),
    Message('control_change', channel=0, control=7, value=73, time=6),
    Message('control_change', channel=0, control=7, value=72, time=6),
    Message('control_change', channel=0, control=7, value=71, time=6),
    Message('control_change', channel=0, control=7, value=70, time=6),
    Message('control_change', channel=0, control=7, value=69, time=6),
    Message('control_change', channel=0, control=7, value=68, time=6),
    Message('control_change', channel=0, control=7, value=67, time=6),
    Message('control_change', channel=0, control=7, value=66, time=6),
    Message('control_change', channel=0, control=7, value=65, time=6),
    Message('control_change', channel=0, control=7, value=64, time=6),
    Message('control_change', channel=0, control=7, value=63, time=7),
    Message('control_change', channel=0, control=7, value=62, time=6),
    Message('control_change', channel=0, control=7, value=61, time=6),
    Message('control_change', channel=0, control=7, value=60, time=6),
    Message('control_change', channel=0, control=7, value=59, time=6),
    Message('control_change', channel=0, control=7, value=58, time=6),
    Message('control_change', channel=0, control=7, value=57, time=6),
    Message('control_change', channel=0, control=7, value=56, time=6),
    Message('control_change', channel=0, control=7, value=55, time=6),
    Message('control_change', channel=0, control=7, value=54, time=6),
    Message('control_change', channel=0, control=7, value=53, time=6),
    Message('control_change', channel=0, control=7, value=52, time=6),
    Message('control_change', channel=0, control=7, value=51, time=6),
    Message('control_change', channel=0, control=7, value=50, time=6),
    Message('control_change', channel=0, control=7, value=49, time=6),
    Message('control_change', channel=0, control=7, value=48, time=6),
    Message('control_change', channel=0, control=7, value=47, time=6),
    Message('control_change', channel=0, control=7, value=46, time=6),
    Message('control_change', channel=0, control=7, value=45, time=6),
    Message('control_change', channel=0, control=7, value=44, time=6),
    Message('control_change', channel=0, control=7, value=43, time=6),
    Message('control_change', channel=0, control=7, value=42, time=7),
    Message('control_change', channel=0, control=7, value=41, time=6),
    Message('control_change', channel=0, control=7, value=40, time=6),
    Message('control_change', channel=0, control=7, value=39, time=6),
    Message('control_change', channel=0, control=7, value=38, time=6),
    Message('control_change', channel=0, control=7, value=37, time=6),
    Message('control_change', channel=0, control=7, value=36, time=6),
    Message('control_change', channel=0, control=7, value=35, time=6),
    Message('control_change', channel=0, control=7, value=34, time=6),
    Message('control_change', channel=0, control=7, value=33, time=6),
    Message('control_change', channel=0, control=7, value=32, time=6),
    Message('control_change', channel=0, control=7, value=31, time=6),
    Message('control_change', channel=0, control=7, value=30, time=6),
    Message('control_change', channel=0, control=7, value=29, time=6),
    Message('control_change', channel=0, control=7, value=28, time=6),
    Message('control_change', channel=0, control=7, value=27, time=6),
    Message('control_change', channel=0, control=7, value=26, time=6),
    Message('control_change', channel=0, control=7, value=25, time=6),
    Message('control_change', channel=0, control=7, value=24, time=6),
    Message('control_change', channel=0, control=7, value=23, time=6),
    Message('control_change', channel=0, control=7, value=22, time=6),
    Message('control_change', channel=0, control=7, value=21, time=7),
    Message('control_change', channel=0, control=7, value=20, time=6),
    Message('control_change', channel=0, control=7, value=19, time=6),
    Message('control_change', channel=0, control=7, value=18, time=6),
    Message('control_change', channel=0, control=7, value=17, time=6),
    Message('control_change', channel=0, control=7, value=16, time=6),
    Message('control_change', channel=0, control=7, value=15, time=6),
    Message('control_change', channel=0, control=7, value=14, time=6),
    Message('control_change', channel=0, control=7, value=13, time=6),
    Message('control_change', channel=0, control=7, value=12, time=6),
    Message('control_change', channel=0, control=7, value=11, time=6),
    Message('control_change', channel=0, control=7, value=10, time=6),
    Message('control_change', channel=0, control=7, value=9, time=6),
    Message('control_change', channel=0, control=7, value=8, time=6),
    Message('control_change', channel=0, control=7, value=7, time=6),
    Message('control_change', channel=0, control=7, value=6, time=6),
    Message('control_change', channel=0, control=7, value=5, time=6),
    Message('control_change', channel=0, control=7, value=4, time=6),
    Message('control_change', channel=0, control=7, value=3, time=6),
    Message('control_change', channel=0, control=7, value=2, time=6),
    Message('control_change', channel=0, control=7, value=1, time=6),
    Message('control_change', channel=0, control=7, value=0, time=7),
    Message('note_on', channel=0, note=59, velocity=0, time=48),
    MetaMessage('end_of_track', time=0)]),
  MidiTrack([
    MetaMessage('midi_port', port=0, time=0),
    MetaMessage('text', text='Dean (Electric)', time=0),
    MetaMessage('track_name', name='Dean (Electric)', time=0),
    MetaMessage('instrument_name', name='Dean (Electric)', time=0),
    Message('program_change', channel=1, program=27, time=0),
    Message('control_change', channel=1, control=7, value=127, time=0),
    Message('control_change', channel=1, control=10, value=64, time=0),
    Message('control_change', channel=1, control=64, value=127, time=0),
    Message('note_on', channel=1, note=48, velocity=110, time=0),
    Message('note_on', channel=1, note=48, velocity=0, time=94),
    Message('note_on', channel=1, note=52, velocity=110, time=2),
    Message('note_on', channel=1, note=52, velocity=0, time=94),
    Message('note_on', channel=1, note=55, velocity=110, time=2),
    Message('note_on', channel=1, note=55, velocity=0, time=94),
    Message('note_on', channel=1, note=60, velocity=110, time=2),
    Message('note_on', channel=1, note=60, velocity=0, time=94),
    Message('note_on', channel=1, note=47, velocity=110, time=2),
    Message('note_on', channel=1, note=47, velocity=0, time=46),
    Message('note_on', channel=1, note=51, velocity=110, time=2),
    Message('note_on', channel=1, note=51, velocity=0, time=46),
    Message('note_on', channel=1, note=57, velocity=110, time=2),
    Message('note_on', channel=1, note=57, velocity=0, time=46),
    Message('note_on', channel=1, note=59, velocity=110, time=2),
    Message('note_on', channel=1, note=59, velocity=0, time=46),
    Message('note_on', channel=1, note=66, velocity=110, time=2),
    Message('note_on', channel=1, note=66, velocity=0, time=142),
    Message('note_on', channel=1, note=64, velocity=110, time=2),
    Message('note_on', channel=1, note=64, velocity=0, time=10),
    Message('note_on', channel=1, note=59, velocity=110, time=2),
    Message('note_on', channel=1, note=59, velocity=0, time=10),
    Message('note_on', channel=1, note=55, velocity=110, time=2),
    Message('note_on', channel=1, note=55, velocity=0, time=10),
    Message('note_on', channel=1, note=52, velocity=110, time=2),
    Message('note_on', channel=1, note=52, velocity=0, time=10),
    Message('note_on', channel=1, note=40, velocity=110, time=2),
    Message('note_on', channel=1, note=47, velocity=110, time=0),
    Message('note_on', channel=1, note=40, velocity=0, time=718),
    Message('note_on', channel=1, note=47, velocity=0, time=0),
    Message('note_on', channel=1, note=64, velocity=110, time=2),
    Message('note_on', channel=1, note=64, velocity=0, time=10),
    Message('note_on', channel=1, note=59, velocity=110, time=2),
    Message('note_on', channel=1, note=59, velocity=0, time=10),
    Message('note_on', channel=1, note=55, velocity=110, time=2),
    Message('note_on', channel=1, note=55, velocity=0, time=10),
    Message('note_on', channel=1, note=52, velocity=110, time=2),
    Message('note_on', channel=1, note=52, velocity=0, time=10),
    Message('note_on', channel=1, note=40, velocity=110, time=2),
    Message('note_on', channel=1, note=47, velocity=110, time=0),
    Message('note_on', channel=1, note=40, velocity=0, time=720),
    Message('note_on', channel=1, note=47, velocity=0, time=0),
    Message('note_on', channel=1, note=48, velocity=110, time=48),
    Message('note_on', channel=1, note=48, velocity=0, time=94),
    Message('note_on', channel=1, note=52, velocity=110, time=2),
    Message('note_on', channel=1, note=52, velocity=0, time=94),
    Message('note_on', channel=1, note=55, velocity=110, time=2),
    Message('note_on', channel=1, note=55, velocity=0, time=94),
    Message('note_on', channel=1, note=60, velocity=110, time=2),
    Message('note_on', channel=1, note=60, velocity=0, time=94),
    Message('note_on', channel=1, note=47, velocity=110, time=2),
    Message('note_on', channel=1, note=47, velocity=0, time=46),
    Message('note_on', channel=1, note=51, velocity=110, time=2),
    Message('note_on', channel=1, note=51, velocity=0, time=46),
    Message('note_on', channel=1, note=57, velocity=110, time=2),
    Message('note_on', channel=1, note=59, velocity=110, time=0),
    Message('note_on', channel=1, note=66, velocity=110, time=0),
    Message('note_on', channel=1, note=57, velocity=0, time=46),
    Message('note_on', channel=1, note=59, velocity=0, time=0),
    Message('note_on', channel=1, note=66, velocity=0, time=0),
    Message('note_on', channel=1, note=57, velocity=110, time=2),
    Message('note_on', channel=1, note=59, velocity=110, time=0),
    Message('note_on', channel=1, note=66, velocity=110, time=0),
    Message('note_on', channel=1, note=57, velocity=0, time=46),
    Message('note_on', channel=1, note=59, velocity=0, time=0),
    Message('note_on', channel=1, note=66, velocity=0, time=0),
    Message('note_on', channel=1, note=57, velocity=110, time=2),
    Message('note_on', channel=1, note=59, velocity=110, time=0),
    Message('note_on', channel=1, note=66, velocity=110, time=0),
    Message('note_on', channel=1, note=57, velocity=0, time=142),
    Message('note_on', channel=1, note=59, velocity=0, time=0),
    Message('note_on', channel=1, note=66, velocity=0, time=0),
    Message('note_on', channel=1, note=67, velocity=110, time=2),
    Message('note_on', channel=1, note=67, velocity=0, time=10),
    Message('note_on', channel=1, note=63, velocity=110, time=2),
    Message('note_on', channel=1, note=63, velocity=0, time=10),
    Message('note_on', channel=1, note=55, velocity=110, time=2),
    Message('note_on', channel=1, note=55, velocity=0, time=10),
    Message('note_on', channel=1, note=52, velocity=110, time=2),
    Message('note_on', channel=1, note=52, velocity=0, time=10),
    Message('note_on', channel=1, note=40, velocity=110, time=2),
    Message('note_on', channel=1, note=47, velocity=110, time=0),
    Message('note_on', channel=1, note=40, velocity=0, time=720),
    Message('note_on', channel=1, note=47, velocity=0, time=0),
    Message('note_on', channel=1, note=52, velocity=110, time=48),
    Message('note_on', channel=1, note=52, velocity=0, time=94),
    Message('note_on', channel=1, note=55, velocity=110, time=2),
    Message('note_on', channel=1, note=55, velocity=0, time=94),
    Message('note_on', channel=1, note=62, velocity=110, time=2),
    Message('note_on', channel=1, note=62, velocity=0, time=94),
    Message('note_on', channel=1, note=55, velocity=110, time=2),
    Message('note_on', channel=1, note=55, velocity=0, time=94),
    Message('note_on', channel=1, note=52, velocity=110, time=2),
    Message('note_on', channel=1, note=52, velocity=0, time=94),
    Message('note_on', channel=1, note=55, velocity=110, time=2),
    Message('note_on', channel=1, note=55, velocity=0, time=94),
    Message('note_on', channel=1, note=62, velocity=110, time=2),
    Message('note_on', channel=1, note=62, velocity=0, time=94),
    Message('note_on', channel=1, note=55, velocity=110, time=2),
    Message('note_on', channel=1, note=55, velocity=0, time=94),
    Message('note_on', channel=1, note=52, velocity=110, time=2),
    Message('note_on', channel=1, note=52, velocity=0, time=94),
    Message('note_on', channel=1, note=55, velocity=110, time=2),
    Message('note_on', channel=1, note=55, velocity=0, time=94),
    Message('note_on', channel=1, note=62, velocity=110, time=2),
    Message('note_on', channel=1, note=62, velocity=0, time=94),
    Message('note_on', channel=1, note=55, velocity=110, time=2),
    Message('note_on', channel=1, note=55, velocity=0, time=94),
    Message('note_on', channel=1, note=54, velocity=110, time=2),
    Message('note_on', channel=1, note=54, velocity=0, time=94),
    Message('note_on', channel=1, note=55, velocity=110, time=2),
    Message('note_on', channel=1, note=55, velocity=0, time=94),
    Message('note_on', channel=1, note=59, velocity=110, time=2),
    Message('note_on', channel=1, note=59, velocity=0, time=94),
    Message('note_on', channel=1, note=55, velocity=110, time=2),
    Message('note_on', channel=1, note=55, velocity=0, time=94),
    Message('note_on', channel=1, note=52, velocity=110, time=2),
    Message('note_on', channel=1, note=52, velocity=0, time=94),
    Message('note_on', channel=1, note=55, velocity=110, time=2),
    Message('note_on', channel=1, note=55, velocity=0, time=94),
    Message('note_on', channel=1, note=62, velocity=110, time=2),
    Message('note_on', channel=1, note=62, velocity=0, time=94),
    Message('note_on', channel=1, note=55, velocity=110, time=2),
    Message('note_on', channel=1, note=55, velocity=0, time=94),
    Message('note_on', channel=1, note=52, velocity=110, time=2),
    Message('note_on', channel=1, note=52, velocity=0, time=94),
    Message('note_on', channel=1, note=55, velocity=110, time=2),
    Message('note_on', channel=1, note=55, velocity=0, time=94),
    Message('note_on', channel=1, note=62, velocity=110, time=2),
    Message('note_on', channel=1, note=62, velocity=0, time=94),
    Message('note_on', channel=1, note=55, velocity=110, time=2),
    Message('note_on', channel=1, note=55, velocity=0, time=94),
    Message('note_on', channel=1, note=52, velocity=110, time=2),
    Message('note_on', channel=1, note=52, velocity=0, time=94),
    Message('note_on', channel=1, note=55, velocity=110, time=2),
    Message('note_on', channel=1, note=55, velocity=0, time=94),
    Message('note_on', channel=1, note=62, velocity=110, time=2),
    Message('note_on', channel=1, note=62, velocity=0, time=94),
    Message('note_on', channel=1, note=55, velocity=110, time=2),
    Message('note_on', channel=1, note=55, velocity=0, time=94),
    Message('note_on', channel=1, note=54, velocity=110, time=2),
    Message('note_on', channel=1, note=54, velocity=0, time=94),
    Message('note_on', channel=1, note=55, velocity=110, time=2),
    Message('note_on', channel=1, note=55, velocity=0, time=94),
    Message('note_on', channel=1, note=59, velocity=110, time=2),
    Message('note_on', channel=1, note=59, velocity=0, time=94),
    Message('note_on', channel=1, note=55, velocity=110, time=2),
    Message('note_on', channel=1, note=55, velocity=0, time=94),
    Message('note_on', channel=1, note=52, velocity=110, time=2),
    Message('note_on', channel=1, note=52, velocity=0, time=94),
    Message('note_on', channel=1, note=55, velocity=110, time=2),
    Message('note_on', channel=1, note=55, velocity=0, time=94),
    Message('note_on', channel=1, note=62, velocity=110, time=2),
    Message('note_on', channel=1, note=62, velocity=0, time=94),
    Message('note_on', channel=1, note=55, velocity=110, time=2),
    Message('note_on', channel=1, note=55, velocity=0, time=94),
    Message('note_on', channel=1, note=52, velocity=110, time=2),
    Message('note_on', channel=1, note=52, velocity=0, time=94),
    Message('note_on', channel=1, note=55, velocity=110, time=2),
    Message('note_on', channel=1, note=55, velocity=0, time=94),
    Message('note_on', channel=1, note=62, velocity=110, time=2),
    Message('note_on', channel=1, note=62, velocity=0, time=94),
    Message('note_on', channel=1, note=55, velocity=110, time=2),
    Message('note_on', channel=1, note=55, velocity=0, time=94),
    Message('note_on', channel=1, note=52, velocity=110, time=2),
    Message('note_on', channel=1, note=52, velocity=0, time=94),
    Message('note_on', channel=1, note=55, velocity=110, time=2),
    Message('note_on', channel=1, note=55, velocity=0, time=94),
    Message('note_on', channel=1, note=62, velocity=110, time=2),
    Message('note_on', channel=1, note=62, velocity=0, time=94),
    Message('note_on', channel=1, note=55, velocity=110, time=2),
    Message('note_on', channel=1, note=55, velocity=0, time=94),
    Message('note_on', channel=1, note=54, velocity=110, time=2),
    Message('note_on', channel=1, note=54, velocity=0, time=94),
    Message('note_on', channel=1, note=55, velocity=110, time=2),
    Message('note_on', channel=1, note=55, velocity=0, time=94),
    Message('note_on', channel=1, note=59, velocity=110, time=2),
    Message('note_on', channel=1, note=59, velocity=0, time=94),
    Message('note_on', channel=1, note=55, velocity=110, time=2),
    Message('note_on', channel=1, note=55, velocity=0, time=94),
    Message('note_on', channel=1, note=52, velocity=110, time=2),
    Message('note_on', channel=1, note=52, velocity=0, time=94),
    Message('note_on', channel=1, note=55, velocity=110, time=2),
    Message('note_on', channel=1, note=55, velocity=0, time=94),
    Message('note_on', channel=1, note=62, velocity=110, time=2),
    Message('note_on', channel=1, note=62, velocity=0, time=94),
    Message('note_on', channel=1, note=55, velocity=110, time=2),
    Message('note_on', channel=1, note=55, velocity=0, time=94),
    Message('note_on', channel=1, note=52, velocity=110, time=2),
    Message('note_on', channel=1, note=52, velocity=0, time=94),
    Message('note_on', channel=1, note=55, velocity=110, time=2),
    Message('note_on', channel=1, note=55, velocity=0, time=94),
    Message('note_on', channel=1, note=62, velocity=110, time=2),
    Message('note_on', channel=1, note=62, velocity=0, time=94),
    Message('note_on', channel=1, note=55, velocity=110, time=2),
    Message('note_on', channel=1, note=55, velocity=0, time=94),
    Message('note_on', channel=1, note=52, velocity=110, time=2),
    Message('note_on', channel=1, note=52, velocity=0, time=94),
    Message('note_on', channel=1, note=55, velocity=110, time=2),
    Message('note_on', channel=1, note=55, velocity=0, time=94),
    Message('note_on', channel=1, note=62, velocity=110, time=2),
    Message('note_on', channel=1, note=62, velocity=0, time=94),
    Message('note_on', channel=1, note=55, velocity=110, time=2),
    Message('note_on', channel=1, note=55, velocity=0, time=94),
    Message('note_on', channel=1, note=54, velocity=110, time=2),
    Message('note_on', channel=1, note=54, velocity=0, time=94),
    Message('note_on', channel=1, note=55, velocity=110, time=2),
    Message('note_on', channel=1, note=55, velocity=0, time=94),
    Message('note_on', channel=1, note=59, velocity=110, time=2),
    Message('note_on', channel=1, note=59, velocity=0, time=94),
    Message('note_on', channel=1, note=55, velocity=110, time=2),
    Message('note_on', channel=1, note=55, velocity=0, time=94),
    Message('note_on', channel=1, note=52, velocity=110, time=2),
    Message('note_on', channel=1, note=52, velocity=0, time=94),
    Message('note_on', channel=1, note=55, velocity=110, time=2),
    Message('note_on', channel=1, note=55, velocity=0, time=94),
    Message('note_on', channel=1, note=62, velocity=110, time=2),
    Message('note_on', channel=1, note=62, velocity=0, time=94),
    Message('note_on', channel=1, note=55, velocity=110, time=2),
    Message('note_on', channel=1, note=55, velocity=0, time=94),
    Message('note_on', channel=1, note=54, velocity=110, time=2),
    Message('note_on', channel=1, note=54, velocity=0, time=46),
    Message('note_on', channel=1, note=55, velocity=110, time=2),
    Message('note_on', channel=1, note=55, velocity=0, time=46),
    Message('note_on', channel=1, note=59, velocity=110, time=2),
    Message('note_on', channel=1, note=59, velocity=0, time=46),
    Message('note_on', channel=1, note=54, velocity=110, time=2),
    Message('note_on', channel=1, note=54, velocity=0, time=46),
    Message('note_on', channel=1, note=55, velocity=110, time=2),
    Message('note_on', channel=1, note=55, velocity=0, time=46),
    Message('note_on', channel=1, note=55, velocity=110, time=2),
    Message('note_on', channel=1, note=55, velocity=0, time=46),
    Message('note_on', channel=1, note=59, velocity=110, time=2),
    Message('note_on', channel=1, note=59, velocity=0, time=46),
    Message('note_on', channel=1, note=55, velocity=110, time=2),
    Message('note_on', channel=1, note=55, velocity=0, time=46),
    Message('note_on', channel=1, note=52, velocity=110, time=2),
    Message('note_on', channel=1, note=55, velocity=110, time=0),
    Message('note_on', channel=1, note=62, velocity=110, time=0),
    Message('note_on', channel=1, note=64, velocity=110, time=0),
    Message('note_on', channel=1, note=52, velocity=0, time=720),
    Message('note_on', channel=1, note=55, velocity=0, time=0),
    Message('note_on', channel=1, note=62, velocity=0, time=0),
    Message('note_on', channel=1, note=64, velocity=0, time=0),
    Message('note_on', channel=1, note=43, velocity=75, time=48),
    Message('note_on', channel=1, note=50, velocity=75, time=0),
    Message('note_on', channel=1, note=55, velocity=75, time=0),
    Message('note_on', channel=1, note=62, velocity=75, time=0),
    Message('note_on', channel=1, note=67, velocity=75, time=0),
    Message('note_on', channel=1, note=43, velocity=0, time=334),
    Message('note_on', channel=1, note=50, velocity=0, time=0),
    Message('note_on', channel=1, note=55, velocity=0, time=0),
    Message('note_on', channel=1, note=62, velocity=0, time=0),
    Message('note_on', channel=1, note=67, velocity=0, time=0),
    Message('control_change', channel=1, control=64, value=0, time=2),
    Message('note_on', channel=1, note=43, velocity=75, time=0),
    Message('note_on', channel=1, note=50, velocity=75, time=0),
    Message('note_on', channel=1, note=55, velocity=75, time=0),
    Message('note_on', channel=1, note=62, velocity=75, time=0),
    Message('note_on', channel=1, note=67, velocity=75, time=0),
    Message('note_on', channel=1, note=43, velocity=0, time=46),
    Message('note_on', channel=1, note=50, velocity=0, time=0),
    Message('note_on', channel=1, note=55, velocity=0, time=0),
    Message('note_on', channel=1, note=62, velocity=0, time=0),
    Message('note_on', channel=1, note=67, velocity=0, time=0),
    Message('control_change', channel=1, control=64, value=127, time=50),
    Message('note_on', channel=1, note=45, velocity=75, time=0),
    Message('note_on', channel=1, note=52, velocity=75, time=0),
    Message('note_on', channel=1, note=57, velocity=75, time=0),
    Message('note_on', channel=1, note=59, velocity=75, time=0),
    Message('note_on', channel=1, note=64, velocity=75, time=0),
    Message('note_on', channel=1, note=45, velocity=0, time=46),
    Message('note_on', channel=1, note=52, velocity=0, time=0),
    Message('note_on', channel=1, note=57, velocity=0, time=0),
    Message('note_on', channel=1, note=59, velocity=0, time=0),
    Message('note_on', channel=1, note=64, velocity=0, time=0),
    Message('note_on', channel=1, note=45, velocity=75, time=2),
    Message('note_on', channel=1, note=52, velocity=75, time=0),
    Message('note_on', channel=1, note=57, velocity=75, time=0),
    Message('note_on', channel=1, note=59, velocity=75, time=0),
    Message('note_on', channel=1, note=64, velocity=75, time=0),
    Message('note_on', channel=1, note=45, velocity=0, time=94),
    Message('note_on', channel=1, note=52, velocity=0, time=0),
    Message('note_on', channel=1, note=57, velocity=0, time=0),
    Message('note_on', channel=1, note=59, velocity=0, time=0),
    Message('note_on', channel=1, note=64, velocity=0, time=0),
    Message('note_on', channel=1, note=45, velocity=75, time=2),
    Message('note_on', channel=1, note=52, velocity=75, time=0),
    Message('note_on', channel=1, note=57, velocity=75, time=0),
    Message('note_on', channel=1, note=59, velocity=75, time=0),
    Message('note_on', channel=1, note=64, velocity=75, time=0),
    Message('note_on', channel=1, note=45, velocity=0, time=142),
    Message('note_on', channel=1, note=52, velocity=0, time=0),
    Message('note_on', channel=1, note=57, velocity=0, time=0),
    Message('note_on', channel=1, note=59, velocity=0, time=0),
    Message('note_on', channel=1, note=64, velocity=0, time=0),
    Message('note_on', channel=1, note=62, velocity=75, time=2),
    Message('note_on', channel=1, note=62, velocity=0, time=10),
    Message('note_on', channel=1, note=55, velocity=75, time=2),
    Message('note_on', channel=1, note=55, velocity=0, time=10),
    Message('note_on', channel=1, note=52, velocity=75, time=2),
    Message('note_on', channel=1, note=52, velocity=0, time=10),
    Message('note_on', channel=1, note=52, velocity=75, time=2),
    Message('note_on', channel=1, note=52, velocity=0, time=10),
    Message('note_on', channel=1, note=40, velocity=75, time=2),
    Message('note_on', channel=1, note=47, velocity=75, time=0),
    Message('note_on', channel=1, note=40, velocity=0, time=720),
    Message('note_on', channel=1, note=47, velocity=0, time=0),
    Message('note_on', channel=1, note=43, velocity=75, time=48),
    Message('note_on', channel=1, note=50, velocity=75, time=0),
    Message('note_on', channel=1, note=55, velocity=75, time=0),
    Message('note_on', channel=1, note=62, velocity=75, time=0),
    Message('note_on', channel=1, note=67, velocity=75, time=0),
    Message('note_on', channel=1, note=43, velocity=0, time=334),
    Message('note_on', channel=1, note=50, velocity=0, time=0),
    Message('note_on', channel=1, note=55, velocity=0, time=0),
    Message('note_on', channel=1, note=62, velocity=0, time=0),
    Message('note_on', channel=1, note=67, velocity=0, time=0),
    Message('control_change', channel=1, control=64, value=0, time=2),
    Message('note_on', channel=1, note=43, velocity=75, time=0),
    Message('note_on', channel=1, note=50, velocity=75, time=0),
    Message('note_on', channel=1, note=55, velocity=75, time=0),
    Message('note_on', channel=1, note=62, velocity=75, time=0),
    Message('note_on', channel=1, note=67, velocity=75, time=0),
    Message('note_on', channel=1, note=43, velocity=0, time=46),
    Message('note_on', channel=1, note=50, velocity=0, time=0),
    Message('note_on', channel=1, note=55, velocity=0, time=0),
    Message('note_on', channel=1, note=62, velocity=0, time=0),
    Message('note_on', channel=1, note=67, velocity=0, time=0),
    Message('control_change', channel=1, control=64, value=127, time=50),
    Message('note_on', channel=1, note=45, velocity=75, time=0),
    Message('note_on', channel=1, note=52, velocity=75, time=0),
    Message('note_on', channel=1, note=57, velocity=75, time=0),
    Message('note_on', channel=1, note=59, velocity=75, time=0),
    Message('note_on', channel=1, note=64, velocity=75, time=0),
    Message('note_on', channel=1, note=45, velocity=0, time=46),
    Message('note_on', channel=1, note=52, velocity=0, time=0),
    Message('note_on', channel=1, note=57, velocity=0, time=0),
    Message('note_on', channel=1, note=59, velocity=0, time=0),
    Message('note_on', channel=1, note=64, velocity=0, time=0),
    Message('note_on', channel=1, note=45, velocity=75, time=2),
    Message('note_on', channel=1, note=52, velocity=75, time=0),
    Message('note_on', channel=1, note=57, velocity=75, time=0),
    Message('note_on', channel=1, note=59, velocity=75, time=0),
    Message('note_on', channel=1, note=64, velocity=75, time=0),
    Message('note_on', channel=1, note=45, velocity=0, time=94),
    Message('note_on', channel=1, note=52, velocity=0, time=0),
    Message('note_on', channel=1, note=57, velocity=0, time=0),
    Message('note_on', channel=1, note=59, velocity=0, time=0),
    Message('note_on', channel=1, note=64, velocity=0, time=0),
    Message('note_on', channel=1, note=45, velocity=75, time=2),
    Message('note_on', channel=1, note=52, velocity=75, time=0),
    Message('note_on', channel=1, note=57, velocity=75, time=0),
    Message('note_on', channel=1, note=59, velocity=75, time=0),
    Message('note_on', channel=1, note=64, velocity=75, time=0),
    Message('note_on', channel=1, note=45, velocity=0, time=142),
    Message('note_on', channel=1, note=52, velocity=0, time=0),
    Message('note_on', channel=1, note=57, velocity=0, time=0),
    Message('note_on', channel=1, note=59, velocity=0, time=0),
    Message('note_on', channel=1, note=64, velocity=0, time=0),
    Message('note_on', channel=1, note=62, velocity=75, time=2),
    Message('note_on', channel=1, note=62, velocity=0, time=10),
    Message('note_on', channel=1, note=55, velocity=75, time=2),
    Message('note_on', channel=1, note=55, velocity=0, time=10),
    Message('note_on', channel=1, note=52, velocity=75, time=2),
    Message('note_on', channel=1, note=52, velocity=0, time=10),
    Message('note_on', channel=1, note=52, velocity=75, time=2),
    Message('note_on', channel=1, note=52, velocity=0, time=10),
    Message('note_on', channel=1, note=40, velocity=75, time=2),
    Message('note_on', channel=1, note=47, velocity=75, time=0),
    Message('note_on', channel=1, note=40, velocity=0, time=720),
    Message('note_on', channel=1, note=47, velocity=0, time=0),
    Message('note_on', channel=1, note=43, velocity=75, time=48),
    Message('note_on', channel=1, note=50, velocity=75, time=0),
    Message('note_on', channel=1, note=55, velocity=75, time=0),
    Message('note_on', channel=1, note=62, velocity=75, time=0),
    Message('note_on', channel=1, note=67, velocity=75, time=0),
    Message('note_on', channel=1, note=43, velocity=0, time=94),
    Message('note_on', channel=1, note=50, velocity=0, time=0),
    Message('note_on', channel=1, note=55, velocity=0, time=0),
    Message('note_on', channel=1, note=62, velocity=0, time=0),
    Message('note_on', channel=1, note=67, velocity=0, time=0),
    Message('note_on', channel=1, note=43, velocity=75, time=2),
    Message('note_on', channel=1, note=50, velocity=75, time=0),
    Message('note_on', channel=1, note=55, velocity=75, time=0),
    Message('note_on', channel=1, note=62, velocity=75, time=0),
    Message('note_on', channel=1, note=67, velocity=75, time=0),
    Message('note_on', channel=1, note=43, velocity=0, time=94),
    Message('note_on', channel=1, note=50, velocity=0, time=0),
    Message('note_on', channel=1, note=55, velocity=0, time=0),
    Message('note_on', channel=1, note=62, velocity=0, time=0),
    Message('note_on', channel=1, note=67, velocity=0, time=0),
    Message('note_on', channel=1, note=43, velocity=75, time=2),
    Message('note_on', channel=1, note=50, velocity=75, time=0),
    Message('note_on', channel=1, note=55, velocity=75, time=0),
    Message('note_on', channel=1, note=62, velocity=75, time=0),
    Message('note_on', channel=1, note=67, velocity=75, time=0),
    Message('note_on', channel=1, note=43, velocity=0, time=94),
    Message('note_on', channel=1, note=50, velocity=0, time=0),
    Message('note_on', channel=1, note=55, velocity=0, time=0),
    Message('note_on', channel=1, note=62, velocity=0, time=0),
    Message('note_on', channel=1, note=67, velocity=0, time=0),
    Message('note_on', channel=1, note=43, velocity=75, time=2),
    Message('note_on', channel=1, note=50, velocity=75, time=0),
    Message('note_on', channel=1, note=55, velocity=75, time=0),
    Message('note_on', channel=1, note=62, velocity=75, time=0),
    Message('note_on', channel=1, note=67, velocity=75, time=0),
    Message('note_on', channel=1, note=43, velocity=0, time=46),
    Message('note_on', channel=1, note=50, velocity=0, time=0),
    Message('note_on', channel=1, note=55, velocity=0, time=0),
    Message('note_on', channel=1, note=62, velocity=0, time=0),
    Message('note_on', channel=1, note=67, velocity=0, time=0),
    Message('note_on', channel=1, note=43, velocity=75, time=2),
    Message('note_on', channel=1, note=50, velocity=75, time=0),
    Message('note_on', channel=1, note=55, velocity=75, time=0),
    Message('note_on', channel=1, note=62, velocity=75, time=0),
    Message('note_on', channel=1, note=67, velocity=75, time=0),
    Message('note_on', channel=1, note=43, velocity=0, time=46),
    Message('note_on', channel=1, note=50, velocity=0, time=0),
    Message('note_on', channel=1, note=55, velocity=0, time=0),
    Message('note_on', channel=1, note=62, velocity=0, time=0),
    Message('note_on', channel=1, note=67, velocity=0, time=0),
    Message('note_on', channel=1, note=45, velocity=75, time=50),
    Message('note_on', channel=1, note=52, velocity=75, time=0),
    Message('note_on', channel=1, note=57, velocity=75, time=0),
    Message('note_on', channel=1, note=59, velocity=75, time=0),
    Message('note_on', channel=1, note=64, velocity=75, time=0),
    Message('note_on', channel=1, note=45, velocity=0, time=46),
    Message('note_on', channel=1, note=52, velocity=0, time=0),
    Message('note_on', channel=1, note=57, velocity=0, time=0),
    Message('note_on', channel=1, note=59, velocity=0, time=0),
    Message('note_on', channel=1, note=64, velocity=0, time=0),
    Message('note_on', channel=1, note=45, velocity=75, time=2),
    Message('note_on', channel=1, note=52, velocity=75, time=0),
    Message('note_on', channel=1, note=57, velocity=75, time=0),
    Message('note_on', channel=1, note=59, velocity=75, time=0),
    Message('note_on', channel=1, note=64, velocity=75, time=0),
    Message('note_on', channel=1, note=45, velocity=0, time=94),
    Message('note_on', channel=1, note=52, velocity=0, time=0),
    Message('note_on', channel=1, note=57, velocity=0, time=0),
    Message('note_on', channel=1, note=59, velocity=0, time=0),
    Message('note_on', channel=1, note=64, velocity=0, time=0),
    Message('note_on', channel=1, note=45, velocity=75, time=2),
    Message('note_on', channel=1, note=52, velocity=75, time=0),
    Message('note_on', channel=1, note=57, velocity=75, time=0),
    Message('note_on', channel=1, note=59, velocity=75, time=0),
    Message('note_on', channel=1, note=64, velocity=75, time=0),
    Message('note_on', channel=1, note=45, velocity=0, time=160),
    Message('note_on', channel=1, note=52, velocity=0, time=0),
    Message('note_on', channel=1, note=57, velocity=0, time=0),
    Message('note_on', channel=1, note=59, velocity=0, time=0),
    Message('note_on', channel=1, note=64, velocity=0, time=0),
    Message('note_on', channel=1, note=48, velocity=75, time=32),
    Message('note_on', channel=1, note=50, velocity=75, time=0),
    Message('note_on', channel=1, note=55, velocity=75, time=0),
    Message('note_on', channel=1, note=62, velocity=75, time=0),
    Message('note_on', channel=1, note=67, velocity=75, time=0),
    Message('note_on', channel=1, note=48, velocity=0, time=190),
    Message('note_on', channel=1, note=50, velocity=0, time=0),
    Message('note_on', channel=1, note=55, velocity=0, time=0),
    Message('note_on', channel=1, note=62, velocity=0, time=0),
    Message('note_on', channel=1, note=67, velocity=0, time=0),
    Message('note_on', channel=1, note=48, velocity=75, time=2),
    Message('note_on', channel=1, note=50, velocity=75, time=0),
    Message('note_on', channel=1, note=55, velocity=75, time=0),
    Message('note_on', channel=1, note=62, velocity=75, time=0),
    Message('note_on', channel=1, note=67, velocity=75, time=0),
    Message('note_on', channel=1, note=48, velocity=0, time=142),
    Message('note_on', channel=1, note=50, velocity=0, time=0),
    Message('note_on', channel=1, note=55, velocity=0, time=0),
    Message('note_on', channel=1, note=62, velocity=0, time=0),
    Message('note_on', channel=1, note=67, velocity=0, time=0),
    Message('note_on', channel=1, note=48, velocity=75, time=2),
    Message('note_on', channel=1, note=50, velocity=75, time=0),
    Message('note_on', channel=1, note=55, velocity=75, time=0),
    Message('note_on', channel=1, note=62, velocity=75, time=0),
    Message('note_on', channel=1, note=67, velocity=75, time=0),
    Message('note_on', channel=1, note=48, velocity=0, time=46),
    Message('note_on', channel=1, note=50, velocity=0, time=0),
    Message('note_on', channel=1, note=55, velocity=0, time=0),
    Message('note_on', channel=1, note=62, velocity=0, time=0),
    Message('note_on', channel=1, note=67, velocity=0, time=0),
    Message('note_on', channel=1, note=50, velocity=75, time=50),
    Message('note_on', channel=1, note=57, velocity=75, time=0),
    Message('note_on', channel=1, note=62, velocity=75, time=0),
    Message('note_on', channel=1, note=66, velocity=75, time=0),
    Message('note_on', channel=1, note=50, velocity=0, time=46),
    Message('note_on', channel=1, note=57, velocity=0, time=0),
    Message('note_on', channel=1, note=62, velocity=0, time=0),
    Message('note_on', channel=1, note=66, velocity=0, time=0),
    Message('note_on', channel=1, note=50, velocity=75, time=2),
    Message('note_on', channel=1, note=57, velocity=75, time=0),
    Message('note_on', channel=1, note=62, velocity=75, time=0),
    Message('note_on', channel=1, note=66, velocity=75, time=0),
    Message('note_on', channel=1, note=50, velocity=0, time=94),
    Message('note_on', channel=1, note=57, velocity=0, time=0),
    Message('note_on', channel=1, note=62, velocity=0, time=0),
    Message('note_on', channel=1, note=66, velocity=0, time=0),
    Message('note_on', channel=1, note=50, velocity=75, time=2),
    Message('note_on', channel=1, note=57, velocity=75, time=0),
    Message('note_on', channel=1, note=62, velocity=75, time=0),
    Message('note_on', channel=1, note=66, velocity=75, time=0),
    Message('note_on', channel=1, note=50, velocity=0, time=190),
    Message('note_on', channel=1, note=57, velocity=0, time=0),
    Message('note_on', channel=1, note=62, velocity=0, time=0),
    Message('note_on', channel=1, note=66, velocity=0, time=0),
    Message('program_change', channel=1, program=2, time=2),
    Message('note_on', channel=1, note=52, velocity=92, time=0),
    Message('note_on', channel=1, note=52, velocity=0, time=46),
    Message('note_on', channel=1, note=59, velocity=92, time=2),
    Message('note_on', channel=1, note=59, velocity=0, time=46),
    Message('note_on', channel=1, note=62, velocity=92, time=2),
    Message('note_on', channel=1, note=62, velocity=0, time=46),
    Message('note_on', channel=1, note=52, velocity=92, time=2),
    Message('note_on', channel=1, note=52, velocity=0, time=46),
    Message('note_on', channel=1, note=54, velocity=92, time=2),
    Message('note_on', channel=1, note=54, velocity=0, time=46),
    Message('note_on', channel=1, note=57, velocity=92, time=2),
    Message('note_on', channel=1, note=57, velocity=0, time=46),
    Message('note_on', channel=1, note=62, velocity=92, time=2),
    Message('note_on', channel=1, note=62, velocity=0, time=46),
    Message('note_on', channel=1, note=54, velocity=92, time=2),
    Message('note_on', channel=1, note=54, velocity=0, time=46),
    Message('note_on', channel=1, note=55, velocity=92, time=2),
    Message('note_on', channel=1, note=55, velocity=0, time=46),
    Message('note_on', channel=1, note=59, velocity=92, time=2),
    Message('note_on', channel=1, note=59, velocity=0, time=46),
    Message('note_on', channel=1, note=62, velocity=92, time=2),
    Message('note_on', channel=1, note=62, velocity=0, time=46),
    Message('note_on', channel=1, note=55, velocity=92, time=2),
    Message('note_on', channel=1, note=55, velocity=0, time=46),
    Message('note_on', channel=1, note=57, velocity=92, time=2),
    Message('note_on', channel=1, note=57, velocity=0, time=46),
    Message('note_on', channel=1, note=59, velocity=92, time=2),
    Message('note_on', channel=1, note=59, velocity=0, time=46),
    Message('note_on', channel=1, note=62, velocity=92, time=2),
    Message('note_on', channel=1, note=62, velocity=0, time=46),
    Message('note_on', channel=1, note=64, velocity=92, time=2),
    Message('note_on', channel=1, note=64, velocity=0, time=46),
    Message('note_on', channel=1, note=52, velocity=92, time=2),
    Message('note_on', channel=1, note=52, velocity=0, time=46),
    Message('note_on', channel=1, note=59, velocity=92, time=2),
    Message('note_on', channel=1, note=59, velocity=0, time=46),
    Message('note_on', channel=1, note=62, velocity=92, time=2),
    Message('note_on', channel=1, note=62, velocity=0, time=46),
    Message('note_on', channel=1, note=52, velocity=92, time=2),
    Message('note_on', channel=1, note=52, velocity=0, time=46),
    Message('note_on', channel=1, note=54, velocity=92, time=2),
    Message('note_on', channel=1, note=54, velocity=0, time=46),
    Message('note_on', channel=1, note=57, velocity=92, time=2),
    Message('note_on', channel=1, note=57, velocity=0, time=46),
    Message('note_on', channel=1, note=62, velocity=92, time=2),
    Message('note_on', channel=1, note=62, velocity=0, time=46),
    Message('note_on', channel=1, note=54, velocity=92, time=2),
    Message('note_on', channel=1, note=54, velocity=0, time=46),
    Message('note_on', channel=1, note=55, velocity=92, time=2),
    Message('note_on', channel=1, note=55, velocity=0, time=46),
    Message('note_on', channel=1, note=59, velocity=92, time=2),
    Message('note_on', channel=1, note=59, velocity=0, time=46),
    Message('note_on', channel=1, note=62, velocity=92, time=2),
    Message('note_on', channel=1, note=62, velocity=0, time=46),
    Message('note_on', channel=1, note=55, velocity=92, time=2),
    Message('note_on', channel=1, note=55, velocity=0, time=46),
    Message('note_on', channel=1, note=57, velocity=92, time=2),
    Message('note_on', channel=1, note=57, velocity=0, time=46),
    Message('note_on', channel=1, note=58, velocity=92, time=2),
    Message('note_on', channel=1, note=58, velocity=0, time=46),
    Message('note_on', channel=1, note=59, velocity=92, time=2),
    Message('note_on', channel=1, note=59, velocity=0, time=94),
    Message('note_on', channel=1, note=52, velocity=92, time=2),
    Message('note_on', channel=1, note=52, velocity=0, time=46),
    Message('note_on', channel=1, note=59, velocity=92, time=2),
    Message('note_on', channel=1, note=59, velocity=0, time=46),
    Message('note_on', channel=1, note=62, velocity=92, time=2),
    Message('note_on', channel=1, note=62, velocity=0, time=46),
    Message('note_on', channel=1, note=52, velocity=92, time=2),
    Message('note_on', channel=1, note=52, velocity=0, time=46),
    Message('note_on', channel=1, note=54, velocity=92, time=2),
    Message('note_on', channel=1, note=54, velocity=0, time=46),
    Message('note_on', channel=1, note=57, velocity=92, time=2),
    Message('note_on', channel=1, note=57, velocity=0, time=46),
    Message('note_on', channel=1, note=62, velocity=92, time=2),
    Message('note_on', channel=1, note=62, velocity=0, time=46),
    Message('note_on', channel=1, note=54, velocity=92, time=2),
    Message('note_on', channel=1, note=54, velocity=0, time=46),
    Message('note_on', channel=1, note=55, velocity=92, time=2),
    Message('note_on', channel=1, note=55, velocity=0, time=46),
    Message('note_on', channel=1, note=59, velocity=92, time=2),
    Message('note_on', channel=1, note=59, velocity=0, time=46),
    Message('note_on', channel=1, note=62, velocity=92, time=2),
    Message('note_on', channel=1, note=62, velocity=0, time=46),
    Message('note_on', channel=1, note=55, velocity=92, time=2),
    Message('note_on', channel=1, note=55, velocity=0, time=46),
    Message('note_on', channel=1, note=57, velocity=92, time=2),
    Message('note_on', channel=1, note=57, velocity=0, time=46),
    Message('note_on', channel=1, note=59, velocity=92, time=2),
    Message('note_on', channel=1, note=59, velocity=0, time=46),
    Message('note_on', channel=1, note=62, velocity=92, time=2),
    Message('note_on', channel=1, note=62, velocity=0, time=46),
    Message('note_on', channel=1, note=64, velocity=92, time=2),
    Message('note_on', channel=1, note=64, velocity=0, time=46),
    Message('note_on', channel=1, note=52, velocity=92, time=2),
    Message('note_on', channel=1, note=52, velocity=0, time=46),
    Message('note_on', channel=1, note=59, velocity=92, time=2),
    Message('note_on', channel=1, note=59, velocity=0, time=46),
    Message('note_on', channel=1, note=62, velocity=92, time=2),
    Message('note_on', channel=1, note=62, velocity=0, time=46),
    Message('note_on', channel=1, note=52, velocity=92, time=2),
    Message('note_on', channel=1, note=52, velocity=0, time=46),
    Message('note_on', channel=1, note=54, velocity=92, time=2),
    Message('note_on', channel=1, note=54, velocity=0, time=46),
    Message('note_on', channel=1, note=57, velocity=92, time=2),
    Message('note_on', channel=1, note=57, velocity=0, time=46),
    Message('note_on', channel=1, note=62, velocity=92, time=2),
    Message('note_on', channel=1, note=62, velocity=0, time=46),
    Message('note_on', channel=1, note=54, velocity=92, time=2),
    Message('note_on', channel=1, note=54, velocity=0, time=46),
    Message('note_on', channel=1, note=55, velocity=92, time=2),
    Message('note_on', channel=1, note=55, velocity=0, time=46),
    Message('note_on', channel=1, note=59, velocity=92, time=2),
    Message('note_on', channel=1, note=59, velocity=0, time=46),
    Message('note_on', channel=1, note=62, velocity=92, time=2),
    Message('note_on', channel=1, note=62, velocity=0, time=46),
    Message('note_on', channel=1, note=55, velocity=92, time=2),
    Message('note_on', channel=1, note=55, velocity=0, time=46),
    Message('note_on', channel=1, note=57, velocity=92, time=2),
    Message('note_on', channel=1, note=57, velocity=0, time=46),
    Message('note_on', channel=1, note=58, velocity=92, time=2),
    Message('note_on', channel=1, note=58, velocity=0, time=46),
    Message('note_on', channel=1, note=59, velocity=92, time=2),
    Message('note_on', channel=1, note=59, velocity=0, time=94),
    Message('note_on', channel=1, note=52, velocity=92, time=2),
    Message('note_on', channel=1, note=52, velocity=0, time=46),
    Message('note_on', channel=1, note=59, velocity=92, time=2),
    Message('note_on', channel=1, note=59, velocity=0, time=46),
    Message('note_on', channel=1, note=62, velocity=92, time=2),
    Message('note_on', channel=1, note=62, velocity=0, time=46),
    Message('note_on', channel=1, note=52, velocity=92, time=2),
    Message('note_on', channel=1, note=52, velocity=0, time=46),
    Message('note_on', channel=1, note=54, velocity=92, time=2),
    Message('note_on', channel=1, note=54, velocity=0, time=46),
    Message('note_on', channel=1, note=57, velocity=92, time=2),
    Message('note_on', channel=1, note=57, velocity=0, time=46),
    Message('note_on', channel=1, note=62, velocity=92, time=2),
    Message('note_on', channel=1, note=62, velocity=0, time=46),
    Message('note_on', channel=1, note=54, velocity=92, time=2),
    Message('note_on', channel=1, note=54, velocity=0, time=46),
    Message('note_on', channel=1, note=55, velocity=92, time=2),
    Message('note_on', channel=1, note=55, velocity=0, time=46),
    Message('note_on', channel=1, note=59, velocity=92, time=2),
    Message('note_on', channel=1, note=59, velocity=0, time=46),
    Message('note_on', channel=1, note=62, velocity=92, time=2),
    Message('note_on', channel=1, note=62, velocity=0, time=46),
    Message('note_on', channel=1, note=55, velocity=92, time=2),
    Message('note_on', channel=1, note=55, velocity=0, time=46),
    Message('note_on', channel=1, note=57, velocity=92, time=2),
    Message('note_on', channel=1, note=57, velocity=0, time=46),
    Message('note_on', channel=1, note=59, velocity=92, time=2),
    Message('note_on', channel=1, note=59, velocity=0, time=46),
    Message('note_on', channel=1, note=62, velocity=92, time=2),
    Message('note_on', channel=1, note=62, velocity=0, time=46),
    Message('note_on', channel=1, note=64, velocity=92, time=2),
    Message('note_on', channel=1, note=64, velocity=0, time=46),
    Message('note_on', channel=1, note=52, velocity=92, time=2),
    Message('note_on', channel=1, note=52, velocity=0, time=46),
    Message('note_on', channel=1, note=59, velocity=92, time=2),
    Message('note_on', channel=1, note=59, velocity=0, time=46),
    Message('note_on', channel=1, note=62, velocity=92, time=2),
    Message('note_on', channel=1, note=62, velocity=0, time=46),
    Message('note_on', channel=1, note=52, velocity=92, time=2),
    Message('note_on', channel=1, note=52, velocity=0, time=46),
    Message('note_on', channel=1, note=54, velocity=92, time=2),
    Message('note_on', channel=1, note=54, velocity=0, time=46),
    Message('note_on', channel=1, note=57, velocity=92, time=2),
    Message('note_on', channel=1, note=57, velocity=0, time=46),
    Message('note_on', channel=1, note=62, velocity=92, time=2),
    Message('note_on', channel=1, note=62, velocity=0, time=46),
    Message('note_on', channel=1, note=54, velocity=92, time=2),
    Message('note_on', channel=1, note=54, velocity=0, time=46),
    Message('note_on', channel=1, note=55, velocity=92, time=2),
    Message('note_on', channel=1, note=55, velocity=0, time=46),
    Message('note_on', channel=1, note=59, velocity=92, time=2),
    Message('note_on', channel=1, note=59, velocity=0, time=46),
    Message('note_on', channel=1, note=62, velocity=92, time=2),
    Message('note_on', channel=1, note=62, velocity=0, time=46),
    Message('note_on', channel=1, note=55, velocity=92, time=2),
    Message('note_on', channel=1, note=55, velocity=0, time=46),
    Message('note_on', channel=1, note=57, velocity=92, time=2),
    Message('note_on', channel=1, note=57, velocity=0, time=46),
    Message('note_on', channel=1, note=58, velocity=92, time=2),
    Message('note_on', channel=1, note=58, velocity=0, time=46),
    Message('note_on', channel=1, note=59, velocity=92, time=2),
    Message('note_on', channel=1, note=59, velocity=0, time=94),
    Message('note_on', channel=1, note=52, velocity=92, time=2),
    Message('note_on', channel=1, note=52, velocity=0, time=46),
    Message('note_on', channel=1, note=59, velocity=92, time=2),
    Message('note_on', channel=1, note=59, velocity=0, time=46),
    Message('note_on', channel=1, note=62, velocity=92, time=2),
    Message('note_on', channel=1, note=62, velocity=0, time=46),
    Message('note_on', channel=1, note=52, velocity=92, time=2),
    Message('note_on', channel=1, note=52, velocity=0, time=46),
    Message('note_on', channel=1, note=54, velocity=92, time=2),
    Message('note_on', channel=1, note=54, velocity=0, time=46),
    Message('note_on', channel=1, note=57, velocity=92, time=2),
    Message('note_on', channel=1, note=57, velocity=0, time=46),
    Message('note_on', channel=1, note=62, velocity=92, time=2),
    Message('note_on', channel=1, note=62, velocity=0, time=46),
    Message('note_on', channel=1, note=54, velocity=92, time=2),
    Message('note_on', channel=1, note=54, velocity=0, time=46),
    Message('note_on', channel=1, note=55, velocity=92, time=2),
    Message('note_on', channel=1, note=55, velocity=0, time=46),
    Message('note_on', channel=1, note=59, velocity=92, time=2),
    Message('note_on', channel=1, note=59, velocity=0, time=46),
    Message('note_on', channel=1, note=62, velocity=92, time=2),
    Message('note_on', channel=1, note=62, velocity=0, time=46),
    Message('note_on', channel=1, note=55, velocity=92, time=2),
    Message('note_on', channel=1, note=55, velocity=0, time=46),
    Message('note_on', channel=1, note=57, velocity=92, time=2),
    Message('note_on', channel=1, note=57, velocity=0, time=46),
    Message('note_on', channel=1, note=59, velocity=92, time=2),
    Message('note_on', channel=1, note=59, velocity=0, time=46),
    Message('note_on', channel=1, note=62, velocity=92, time=2),
    Message('note_on', channel=1, note=62, velocity=0, time=46),
    Message('note_on', channel=1, note=64, velocity=92, time=2),
    Message('note_on', channel=1, note=64, velocity=0, time=46),
    Message('note_on', channel=1, note=52, velocity=92, time=2),
    Message('note_on', channel=1, note=52, velocity=0, time=46),
    Message('note_on', channel=1, note=59, velocity=92, time=2),
    Message('note_on', channel=1, note=59, velocity=0, time=46),
    Message('note_on', channel=1, note=62, velocity=92, time=2),
    Message('note_on', channel=1, note=62, velocity=0, time=46),
    Message('note_on', channel=1, note=52, velocity=92, time=2),
    Message('note_on', channel=1, note=52, velocity=0, time=46),
    Message('note_on', channel=1, note=54, velocity=92, time=2),
    Message('note_on', channel=1, note=54, velocity=0, time=46),
    Message('note_on', channel=1, note=57, velocity=92, time=2),
    Message('note_on', channel=1, note=57, velocity=0, time=46),
    Message('note_on', channel=1, note=62, velocity=92, time=2),
    Message('note_on', channel=1, note=62, velocity=0, time=46),
    Message('note_on', channel=1, note=54, velocity=92, time=2),
    Message('note_on', channel=1, note=54, velocity=0, time=46),
    Message('note_on', channel=1, note=55, velocity=92, time=2),
    Message('note_on', channel=1, note=55, velocity=0, time=46),
    Message('note_on', channel=1, note=59, velocity=92, time=2),
    Message('note_on', channel=1, note=59, velocity=0, time=46),
    Message('note_on', channel=1, note=62, velocity=92, time=2),
    Message('note_on', channel=1, note=62, velocity=0, time=46),
    Message('note_on', channel=1, note=55, velocity=92, time=2),
    Message('note_on', channel=1, note=55, velocity=0, time=46),
    Message('note_on', channel=1, note=57, velocity=92, time=2),
    Message('note_on', channel=1, note=57, velocity=0, time=46),
    Message('note_on', channel=1, note=58, velocity=92, time=2),
    Message('note_on', channel=1, note=58, velocity=0, time=46),
    Message('note_on', channel=1, note=59, velocity=92, time=2),
    Message('note_on', channel=1, note=59, velocity=0, time=94),
    Message('note_on', channel=1, note=64, velocity=92, time=1154),
    Message('note_on', channel=1, note=64, velocity=0, time=46),
    Message('note_on', channel=1, note=63, velocity=92, time=2),
    Message('note_on', channel=1, note=63, velocity=0, time=46),
    Message('note_on', channel=1, note=59, velocity=92, time=2),
    Message('note_on', channel=1, note=59, velocity=0, time=46),
    Message('note_on', channel=1, note=62, velocity=92, time=2),
    Message('note_on', channel=1, note=62, velocity=0, time=46),
    Message('note_on', channel=1, note=61, velocity=92, time=2),
    Message('note_on', channel=1, note=61, velocity=0, time=46),
    Message('note_on', channel=1, note=57, velocity=92, time=2),
    Message('note_on', channel=1, note=57, velocity=0, time=46),
    Message('note_on', channel=1, note=60, velocity=92, time=2),
    Message('note_on', channel=1, note=60, velocity=0, time=46),
    Message('note_on', channel=1, note=59, velocity=92, time=2),
    Message('note_on', channel=1, note=59, velocity=0, time=46),
    Message('note_on', channel=1, note=52, velocity=92, time=2),
    Message('note_on', channel=1, note=52, velocity=0, time=94),
    Message('note_on', channel=1, note=55, velocity=92, time=2),
    Message('note_on', channel=1, note=55, velocity=0, time=94),
    Message('note_on', channel=1, note=62, velocity=92, time=2),
    Message('note_on', channel=1, note=62, velocity=0, time=94),
    Message('note_on', channel=1, note=55, velocity=92, time=2),
    Message('note_on', channel=1, note=55, velocity=0, time=94),
    Message('note_on', channel=1, note=52, velocity=92, time=2),
    Message('note_on', channel=1, note=52, velocity=0, time=94),
    Message('note_on', channel=1, note=55, velocity=92, time=2),
    Message('note_on', channel=1, note=55, velocity=0, time=94),
    Message('note_on', channel=1, note=62, velocity=92, time=2),
    Message('note_on', channel=1, note=62, velocity=0, time=94),
    Message('note_on', channel=1, note=55, velocity=92, time=2),
    Message('note_on', channel=1, note=55, velocity=0, time=94),
    Message('note_on', channel=1, note=52, velocity=92, time=2),
    Message('note_on', channel=1, note=52, velocity=0, time=94),
    Message('note_on', channel=1, note=55, velocity=92, time=2),
    Message('note_on', channel=1, note=55, velocity=0, time=94),
    Message('note_on', channel=1, note=62, velocity=92, time=2),
    Message('note_on', channel=1, note=62, velocity=0, time=94),
    Message('note_on', channel=1, note=55, velocity=92, time=2),
    Message('note_on', channel=1, note=55, velocity=0, time=94),
    Message('note_on', channel=1, note=54, velocity=92, time=2),
    Message('note_on', channel=1, note=54, velocity=0, time=94),
    Message('note_on', channel=1, note=55, velocity=92, time=2),
    Message('note_on', channel=1, note=55, velocity=0, time=94),
    Message('note_on', channel=1, note=59, velocity=92, time=2),
    Message('note_on', channel=1, note=59, velocity=0, time=94),
    Message('note_on', channel=1, note=55, velocity=92, time=2),
    Message('note_on', channel=1, note=55, velocity=0, time=94),
    Message('note_on', channel=1, note=52, velocity=92, time=2),
    Message('note_on', channel=1, note=52, velocity=0, time=94),
    Message('note_on', channel=1, note=55, velocity=92, time=2),
    Message('note_on', channel=1, note=55, velocity=0, time=94),
    Message('note_on', channel=1, note=62, velocity=92, time=2),
    Message('note_on', channel=1, note=62, velocity=0, time=94),
    Message('note_on', channel=1, note=55, velocity=92, time=2),
    Message('note_on', channel=1, note=55, velocity=0, time=94),
    Message('note_on', channel=1, note=52, velocity=92, time=2),
    Message('note_on', channel=1, note=52, velocity=0, time=94),
    Message('note_on', channel=1, note=55, velocity=92, time=2),
    Message('note_on', channel=1, note=55, velocity=0, time=94),
    Message('note_on', channel=1, note=62, velocity=92, time=2),
    Message('note_on', channel=1, note=62, velocity=0, time=94),
    Message('note_on', channel=1, note=55, velocity=92, time=2),
    Message('note_on', channel=1, note=55, velocity=0, time=94),
    Message('note_on', channel=1, note=52, velocity=92, time=2),
    Message('note_on', channel=1, note=52, velocity=0, time=94),
    Message('note_on', channel=1, note=55, velocity=92, time=2),
    Message('note_on', channel=1, note=55, velocity=0, time=94),
    Message('note_on', channel=1, note=62, velocity=92, time=2),
    Message('note_on', channel=1, note=62, velocity=0, time=94),
    Message('note_on', channel=1, note=55, velocity=92, time=2),
    Message('note_on', channel=1, note=55, velocity=0, time=94),
    Message('note_on', channel=1, note=54, velocity=92, time=2),
    Message('note_on', channel=1, note=54, velocity=0, time=94),
    Message('note_on', channel=1, note=55, velocity=92, time=2),
    Message('note_on', channel=1, note=55, velocity=0, time=94),
    Message('note_on', channel=1, note=59, velocity=92, time=2),
    Message('note_on', channel=1, note=59, velocity=0, time=94),
    Message('note_on', channel=1, note=55, velocity=92, time=2),
    Message('note_on', channel=1, note=55, velocity=0, time=94),
    Message('note_on', channel=1, note=52, velocity=92, time=2),
    Message('note_on', channel=1, note=52, velocity=0, time=94),
    Message('note_on', channel=1, note=55, velocity=92, time=2),
    Message('note_on', channel=1, note=55, velocity=0, time=94),
    Message('note_on', channel=1, note=62, velocity=92, time=2),
    Message('note_on', channel=1, note=62, velocity=0, time=94),
    Message('note_on', channel=1, note=55, velocity=92, time=2),
    Message('note_on', channel=1, note=55, velocity=0, time=94),
    Message('note_on', channel=1, note=52, velocity=92, time=2),
    Message('note_on', channel=1, note=52, velocity=0, time=94),
    Message('note_on', channel=1, note=55, velocity=92, time=2),
    Message('note_on', channel=1, note=55, velocity=0, time=94),
    Message('note_on', channel=1, note=62, velocity=92, time=2),
    Message('note_on', channel=1, note=62, velocity=0, time=94),
    Message('note_on', channel=1, note=55, velocity=92, time=2),
    Message('note_on', channel=1, note=55, velocity=0, time=94),
    Message('note_on', channel=1, note=52, velocity=92, time=2),
    Message('note_on', channel=1, note=52, velocity=0, time=94),
    Message('note_on', channel=1, note=55, velocity=92, time=2),
    Message('note_on', channel=1, note=55, velocity=0, time=94),
    Message('note_on', channel=1, note=62, velocity=92, time=2),
    Message('note_on', channel=1, note=62, velocity=0, time=94),
    Message('note_on', channel=1, note=55, velocity=92, time=2),
    Message('note_on', channel=1, note=55, velocity=0, time=94),
    Message('note_on', channel=1, note=54, velocity=92, time=2),
    Message('note_on', channel=1, note=54, velocity=0, time=94),
    Message('note_on', channel=1, note=55, velocity=92, time=2),
    Message('note_on', channel=1, note=55, velocity=0, time=94),
    Message('note_on', channel=1, note=59, velocity=92, time=2),
    Message('note_on', channel=1, note=59, velocity=0, time=94),
    Message('note_on', channel=1, note=55, velocity=92, time=2),
    Message('note_on', channel=1, note=55, velocity=0, time=94),
    Message('note_on', channel=1, note=52, velocity=92, time=2),
    Message('note_on', channel=1, note=52, velocity=0, time=94),
    Message('note_on', channel=1, note=55, velocity=92, time=2),
    Message('note_on', channel=1, note=55, velocity=0, time=94),
    Message('note_on', channel=1, note=62, velocity=92, time=2),
    Message('note_on', channel=1, note=62, velocity=0, time=94),
    Message('note_on', channel=1, note=55, velocity=92, time=2),
    Message('note_on', channel=1, note=55, velocity=0, time=94),
    Message('note_on', channel=1, note=52, velocity=92, time=2),
    Message('note_on', channel=1, note=52, velocity=0, time=94),
    Message('note_on', channel=1, note=55, velocity=92, time=2),
    Message('note_on', channel=1, note=55, velocity=0, time=94),
    Message('note_on', channel=1, note=62, velocity=92, time=2),
    Message('note_on', channel=1, note=62, velocity=0, time=94),
    Message('note_on', channel=1, note=55, velocity=92, time=2),
    Message('note_on', channel=1, note=55, velocity=0, time=94),
    Message('note_on', channel=1, note=52, velocity=92, time=2),
    Message('note_on', channel=1, note=52, velocity=0, time=94),
    Message('note_on', channel=1, note=55, velocity=92, time=2),
    Message('note_on', channel=1, note=55, velocity=0, time=94),
    Message('note_on', channel=1, note=62, velocity=92, time=2),
    Message('note_on', channel=1, note=62, velocity=0, time=94),
    Message('note_on', channel=1, note=55, velocity=92, time=2),
    Message('note_on', channel=1, note=55, velocity=0, time=94),
    Message('note_on', channel=1, note=54, velocity=92, time=2),
    Message('note_on', channel=1, note=54, velocity=0, time=94),
    Message('note_on', channel=1, note=55, velocity=92, time=2),
    Message('note_on', channel=1, note=55, velocity=0, time=94),
    Message('note_on', channel=1, note=59, velocity=92, time=2),
    Message('note_on', channel=1, note=59, velocity=0, time=94),
    Message('note_on', channel=1, note=55, velocity=92, time=2),
    Message('note_on', channel=1, note=55, velocity=0, time=94),
    Message('note_on', channel=1, note=52, velocity=92, time=2),
    Message('note_on', channel=1, note=52, velocity=0, time=94),
    Message('note_on', channel=1, note=55, velocity=92, time=2),
    Message('note_on', channel=1, note=55, velocity=0, time=94),
    Message('note_on', channel=1, note=62, velocity=92, time=2),
    Message('note_on', channel=1, note=62, velocity=0, time=94),
    Message('note_on', channel=1, note=55, velocity=92, time=2),
    Message('note_on', channel=1, note=55, velocity=0, time=94),
    Message('note_on', channel=1, note=54, velocity=92, time=2),
    Message('note_on', channel=1, note=54, velocity=0, time=46),
    Message('note_on', channel=1, note=55, velocity=92, time=2),
    Message('note_on', channel=1, note=55, velocity=0, time=46),
    Message('note_on', channel=1, note=59, velocity=92, time=2),
    Message('note_on', channel=1, note=59, velocity=0, time=46),
    Message('note_on', channel=1, note=54, velocity=92, time=2),
    Message('note_on', channel=1, note=54, velocity=0, time=46),
    Message('note_on', channel=1, note=55, velocity=92, time=2),
    Message('note_on', channel=1, note=55, velocity=0, time=46),
    Message('note_on', channel=1, note=55, velocity=92, time=2),
    Message('note_on', channel=1, note=55, velocity=0, time=46),
    Message('note_on', channel=1, note=59, velocity=92, time=2),
    Message('note_on', channel=1, note=59, velocity=0, time=46),
    Message('note_on', channel=1, note=55, velocity=92, time=2),
    Message('note_on', channel=1, note=55, velocity=0, time=46),
    Message('note_on', channel=1, note=52, velocity=92, time=2),
    Message('note_on', channel=1, note=55, velocity=92, time=0),
    Message('note_on', channel=1, note=62, velocity=92, time=0),
    Message('note_on', channel=1, note=64, velocity=92, time=0),
    Message('note_on', channel=1, note=52, velocity=0, time=720),
    Message('note_on', channel=1, note=55, velocity=0, time=0),
    Message('note_on', channel=1, note=62, velocity=0, time=0),
    Message('note_on', channel=1, note=64, velocity=0, time=0),
    Message('note_on', channel=1, note=43, velocity=75, time=48),
    Message('note_on', channel=1, note=50, velocity=75, time=0),
    Message('note_on', channel=1, note=55, velocity=75, time=0),
    Message('note_on', channel=1, note=62, velocity=75, time=0),
    Message('note_on', channel=1, note=67, velocity=75, time=0),
    Message('note_on', channel=1, note=43, velocity=0, time=334),
    Message('note_on', channel=1, note=50, velocity=0, time=0),
    Message('note_on', channel=1, note=55, velocity=0, time=0),
    Message('note_on', channel=1, note=62, velocity=0, time=0),
    Message('note_on', channel=1, note=67, velocity=0, time=0),
    Message('control_change', channel=1, control=64, value=0, time=2),
    Message('note_on', channel=1, note=43, velocity=75, time=0),
    Message('note_on', channel=1, note=50, velocity=75, time=0),
    Message('note_on', channel=1, note=55, velocity=75, time=0),
    Message('note_on', channel=1, note=62, velocity=75, time=0),
    Message('note_on', channel=1, note=67, velocity=75, time=0),
    Message('note_on', channel=1, note=43, velocity=0, time=46),
    Message('note_on', channel=1, note=50, velocity=0, time=0),
    Message('note_on', channel=1, note=55, velocity=0, time=0),
    Message('note_on', channel=1, note=62, velocity=0, time=0),
    Message('note_on', channel=1, note=67, velocity=0, time=0),
    Message('control_change', channel=1, control=64, value=127, time=50),
    Message('note_on', channel=1, note=45, velocity=75, time=0),
    Message('note_on', channel=1, note=52, velocity=75, time=0),
    Message('note_on', channel=1, note=57, velocity=75, time=0),
    Message('note_on', channel=1, note=59, velocity=75, time=0),
    Message('note_on', channel=1, note=64, velocity=75, time=0),
    Message('note_on', channel=1, note=45, velocity=0, time=46),
    Message('note_on', channel=1, note=52, velocity=0, time=0),
    Message('note_on', channel=1, note=57, velocity=0, time=0),
    Message('note_on', channel=1, note=59, velocity=0, time=0),
    Message('note_on', channel=1, note=64, velocity=0, time=0),
    Message('note_on', channel=1, note=45, velocity=75, time=2),
    Message('note_on', channel=1, note=52, velocity=75, time=0),
    Message('note_on', channel=1, note=57, velocity=75, time=0),
    Message('note_on', channel=1, note=59, velocity=75, time=0),
    Message('note_on', channel=1, note=64, velocity=75, time=0),
    Message('note_on', channel=1, note=45, velocity=0, time=94),
    Message('note_on', channel=1, note=52, velocity=0, time=0),
    Message('note_on', channel=1, note=57, velocity=0, time=0),
    Message('note_on', channel=1, note=59, velocity=0, time=0),
    Message('note_on', channel=1, note=64, velocity=0, time=0),
    Message('note_on', channel=1, note=45, velocity=75, time=2),
    Message('note_on', channel=1, note=52, velocity=75, time=0),
    Message('note_on', channel=1, note=57, velocity=75, time=0),
    Message('note_on', channel=1, note=59, velocity=75, time=0),
    Message('note_on', channel=1, note=64, velocity=75, time=0),
    Message('note_on', channel=1, note=45, velocity=0, time=142),
    Message('note_on', channel=1, note=52, velocity=0, time=0),
    Message('note_on', channel=1, note=57, velocity=0, time=0),
    Message('note_on', channel=1, note=59, velocity=0, time=0),
    Message('note_on', channel=1, note=64, velocity=0, time=0),
    Message('note_on', channel=1, note=62, velocity=75, time=2),
    Message('note_on', channel=1, note=62, velocity=0, time=10),
    Message('note_on', channel=1, note=55, velocity=75, time=2),
    Message('note_on', channel=1, note=55, velocity=0, time=10),
    Message('note_on', channel=1, note=52, velocity=75, time=2),
    Message('note_on', channel=1, note=52, velocity=0, time=10),
    Message('note_on', channel=1, note=52, velocity=75, time=2),
    Message('note_on', channel=1, note=52, velocity=0, time=10),
    Message('note_on', channel=1, note=40, velocity=75, time=2),
    Message('note_on', channel=1, note=47, velocity=75, time=0),
    Message('note_on', channel=1, note=40, velocity=0, time=720),
    Message('note_on', channel=1, note=47, velocity=0, time=0),
    Message('note_on', channel=1, note=43, velocity=75, time=48),
    Message('note_on', channel=1, note=50, velocity=75, time=0),
    Message('note_on', channel=1, note=55, velocity=75, time=0),
    Message('note_on', channel=1, note=62, velocity=75, time=0),
    Message('note_on', channel=1, note=67, velocity=75, time=0),
    Message('note_on', channel=1, note=43, velocity=0, time=334),
    Message('note_on', channel=1, note=50, velocity=0, time=0),
    Message('note_on', channel=1, note=55, velocity=0, time=0),
    Message('note_on', channel=1, note=62, velocity=0, time=0),
    Message('note_on', channel=1, note=67, velocity=0, time=0),
    Message('control_change', channel=1, control=64, value=0, time=2),
    Message('note_on', channel=1, note=43, velocity=75, time=0),
    Message('note_on', channel=1, note=50, velocity=75, time=0),
    Message('note_on', channel=1, note=55, velocity=75, time=0),
    Message('note_on', channel=1, note=62, velocity=75, time=0),
    Message('note_on', channel=1, note=67, velocity=75, time=0),
    Message('note_on', channel=1, note=43, velocity=0, time=46),
    Message('note_on', channel=1, note=50, velocity=0, time=0),
    Message('note_on', channel=1, note=55, velocity=0, time=0),
    Message('note_on', channel=1, note=62, velocity=0, time=0),
    Message('note_on', channel=1, note=67, velocity=0, time=0),
    Message('control_change', channel=1, control=64, value=127, time=50),
    Message('note_on', channel=1, note=45, velocity=75, time=0),
    Message('note_on', channel=1, note=52, velocity=75, time=0),
    Message('note_on', channel=1, note=57, velocity=75, time=0),
    Message('note_on', channel=1, note=59, velocity=75, time=0),
    Message('note_on', channel=1, note=64, velocity=75, time=0),
    Message('note_on', channel=1, note=52, velocity=0, time=46),
    Message('note_on', channel=1, note=45, velocity=0, time=0),
    Message('note_on', channel=1, note=57, velocity=0, time=0),
    Message('note_on', channel=1, note=59, velocity=0, time=0),
    Message('note_on', channel=1, note=64, velocity=0, time=0),
    Message('note_on', channel=1, note=45, velocity=75, time=2),
    Message('note_on', channel=1, note=52, velocity=75, time=0),
    Message('note_on', channel=1, note=57, velocity=75, time=0),
    Message('note_on', channel=1, note=59, velocity=75, time=0),
    Message('note_on', channel=1, note=64, velocity=75, time=0),
    Message('note_on', channel=1, note=45, velocity=0, time=94),
    Message('note_on', channel=1, note=52, velocity=0, time=0),
    Message('note_on', channel=1, note=57, velocity=0, time=0),
    Message('note_on', channel=1, note=59, velocity=0, time=0),
    Message('note_on', channel=1, note=64, velocity=0, time=0),
    Message('note_on', channel=1, note=45, velocity=75, time=2),
    Message('note_on', channel=1, note=52, velocity=75, time=0),
    Message('note_on', channel=1, note=57, velocity=75, time=0),
    Message('note_on', channel=1, note=59, velocity=75, time=0),
    Message('note_on', channel=1, note=64, velocity=75, time=0),
    Message('note_on', channel=1, note=45, velocity=0, time=142),
    Message('note_on', channel=1, note=52, velocity=0, time=0),
    Message('note_on', channel=1, note=57, velocity=0, time=0),
    Message('note_on', channel=1, note=59, velocity=0, time=0),
    Message('note_on', channel=1, note=64, velocity=0, time=0),
    Message('note_on', channel=1, note=62, velocity=75, time=2),
    Message('note_on', channel=1, note=62, velocity=0, time=10),
    Message('note_on', channel=1, note=55, velocity=75, time=2),
    Message('note_on', channel=1, note=55, velocity=0, time=10),
    Message('note_on', channel=1, note=52, velocity=75, time=2),
    Message('note_on', channel=1, note=52, velocity=0, time=10),
    Message('note_on', channel=1, note=52, velocity=75, time=2),
    Message('note_on', channel=1, note=52, velocity=0, time=10),
    Message('note_on', channel=1, note=40, velocity=75, time=2),
    Message('note_on', channel=1, note=47, velocity=75, time=0),
    Message('note_on', channel=1, note=40, velocity=0, time=720),
    Message('note_on', channel=1, note=47, velocity=0, time=0),
    Message('note_on', channel=1, note=43, velocity=75, time=48),
    Message('note_on', channel=1, note=50, velocity=75, time=0),
    Message('note_on', channel=1, note=55, velocity=75, time=0),
    Message('note_on', channel=1, note=62, velocity=75, time=0),
    Message('note_on', channel=1, note=67, velocity=75, time=0),
    Message('note_on', channel=1, note=43, velocity=0, time=94),
    Message('note_on', channel=1, note=50, velocity=0, time=0),
    Message('note_on', channel=1, note=55, velocity=0, time=0),
    Message('note_on', channel=1, note=62, velocity=0, time=0),
    Message('note_on', channel=1, note=67, velocity=0, time=0),
    Message('note_on', channel=1, note=43, velocity=75, time=2),
    Message('note_on', channel=1, note=50, velocity=75, time=0),
    Message('note_on', channel=1, note=55, velocity=75, time=0),
    Message('note_on', channel=1, note=62, velocity=75, time=0),
    Message('note_on', channel=1, note=67, velocity=75, time=0),
    Message('note_on', channel=1, note=43, velocity=0, time=94),
    Message('note_on', channel=1, note=50, velocity=0, time=0),
    Message('note_on', channel=1, note=55, velocity=0, time=0),
    Message('note_on', channel=1, note=62, velocity=0, time=0),
    Message('note_on', channel=1, note=67, velocity=0, time=0),
    Message('note_on', channel=1, note=43, velocity=75, time=2),
    Message('note_on', channel=1, note=50, velocity=75, time=0),
    Message('note_on', channel=1, note=55, velocity=75, time=0),
    Message('note_on', channel=1, note=62, velocity=75, time=0),
    Message('note_on', channel=1, note=67, velocity=75, time=0),
    Message('note_on', channel=1, note=43, velocity=0, time=94),
    Message('note_on', channel=1, note=50, velocity=0, time=0),
    Message('note_on', channel=1, note=55, velocity=0, time=0),
    Message('note_on', channel=1, note=62, velocity=0, time=0),
    Message('note_on', channel=1, note=67, velocity=0, time=0),
    Message('note_on', channel=1, note=43, velocity=75, time=2),
    Message('note_on', channel=1, note=50, velocity=75, time=0),
    Message('note_on', channel=1, note=55, velocity=75, time=0),
    Message('note_on', channel=1, note=62, velocity=75, time=0),
    Message('note_on', channel=1, note=67, velocity=75, time=0),
    Message('note_on', channel=1, note=43, velocity=0, time=46),
    Message('note_on', channel=1, note=50, velocity=0, time=0),
    Message('note_on', channel=1, note=55, velocity=0, time=0),
    Message('note_on', channel=1, note=62, velocity=0, time=0),
    Message('note_on', channel=1, note=67, velocity=0, time=0),
    Message('note_on', channel=1, note=43, velocity=75, time=2),
    Message('note_on', channel=1, note=50, velocity=75, time=0),
    Message('note_on', channel=1, note=55, velocity=75, time=0),
    Message('note_on', channel=1, note=62, velocity=75, time=0),
    Message('note_on', channel=1, note=67, velocity=75, time=0),
    Message('note_on', channel=1, note=43, velocity=0, time=46),
    Message('note_on', channel=1, note=50, velocity=0, time=0),
    Message('note_on', channel=1, note=55, velocity=0, time=0),
    Message('note_on', channel=1, note=62, velocity=0, time=0),
    Message('note_on', channel=1, note=67, velocity=0, time=0),
    Message('note_on', channel=1, note=45, velocity=75, time=50),
    Message('note_on', channel=1, note=52, velocity=75, time=0),
    Message('note_on', channel=1, note=57, velocity=75, time=0),
    Message('note_on', channel=1, note=59, velocity=75, time=0),
    Message('note_on', channel=1, note=64, velocity=75, time=0),
    Message('note_on', channel=1, note=45, velocity=0, time=46),
    Message('note_on', channel=1, note=52, velocity=0, time=0),
    Message('note_on', channel=1, note=57, velocity=0, time=0),
    Message('note_on', channel=1, note=59, velocity=0, time=0),
    Message('note_on', channel=1, note=64, velocity=0, time=0),
    Message('note_on', channel=1, note=45, velocity=75, time=2),
    Message('note_on', channel=1, note=52, velocity=75, time=0),
    Message('note_on', channel=1, note=57, velocity=75, time=0),
    Message('note_on', channel=1, note=59, velocity=75, time=0),
    Message('note_on', channel=1, note=64, velocity=75, time=0),
    Message('note_on', channel=1, note=45, velocity=0, time=94),
    Message('note_on', channel=1, note=52, velocity=0, time=0),
    Message('note_on', channel=1, note=57, velocity=0, time=0),
    Message('note_on', channel=1, note=59, velocity=0, time=0),
    Message('note_on', channel=1, note=64, velocity=0, time=0),
    Message('note_on', channel=1, note=45, velocity=75, time=2),
    Message('note_on', channel=1, note=52, velocity=75, time=0),
    Message('note_on', channel=1, note=57, velocity=75, time=0),
    Message('note_on', channel=1, note=59, velocity=75, time=0),
    Message('note_on', channel=1, note=64, velocity=75, time=0),
    Message('note_on', channel=1, note=45, velocity=0, time=160),
    Message('note_on', channel=1, note=52, velocity=0, time=0),
    Message('note_on', channel=1, note=57, velocity=0, time=0),
    Message('note_on', channel=1, note=59, velocity=0, time=0),
    Message('note_on', channel=1, note=64, velocity=0, time=0),
    Message('note_on', channel=1, note=48, velocity=75, time=32),
    Message('note_on', channel=1, note=50, velocity=75, time=0),
    Message('note_on', channel=1, note=55, velocity=75, time=0),
    Message('note_on', channel=1, note=62, velocity=75, time=0),
    Message('note_on', channel=1, note=67, velocity=75, time=0),
    Message('note_on', channel=1, note=48, velocity=0, time=190),
    Message('note_on', channel=1, note=50, velocity=0, time=0),
    Message('note_on', channel=1, note=55, velocity=0, time=0),
    Message('note_on', channel=1, note=62, velocity=0, time=0),
    Message('note_on', channel=1, note=67, velocity=0, time=0),
    Message('note_on', channel=1, note=48, velocity=75, time=2),
    Message('note_on', channel=1, note=50, velocity=75, time=0),
    Message('note_on', channel=1, note=55, velocity=75, time=0),
    Message('note_on', channel=1, note=62, velocity=75, time=0),
    Message('note_on', channel=1, note=67, velocity=75, time=0),
    Message('note_on', channel=1, note=48, velocity=0, time=142),
    Message('note_on', channel=1, note=50, velocity=0, time=0),
    Message('note_on', channel=1, note=55, velocity=0, time=0),
    Message('note_on', channel=1, note=62, velocity=0, time=0),
    Message('note_on', channel=1, note=67, velocity=0, time=0),
    Message('note_on', channel=1, note=48, velocity=75, time=2),
    Message('note_on', channel=1, note=50, velocity=75, time=0),
    Message('note_on', channel=1, note=55, velocity=75, time=0),
    Message('note_on', channel=1, note=62, velocity=75, time=0),
    Message('note_on', channel=1, note=67, velocity=75, time=0),
    Message('note_on', channel=1, note=48, velocity=0, time=46),
    Message('note_on', channel=1, note=50, velocity=0, time=0),
    Message('note_on', channel=1, note=55, velocity=0, time=0),
    Message('note_on', channel=1, note=62, velocity=0, time=0),
    Message('note_on', channel=1, note=67, velocity=0, time=0),
    Message('note_on', channel=1, note=50, velocity=75, time=50),
    Message('note_on', channel=1, note=57, velocity=75, time=0),
    Message('note_on', channel=1, note=62, velocity=75, time=0),
    Message('note_on', channel=1, note=66, velocity=75, time=0),
    Message('note_on', channel=1, note=50, velocity=0, time=46),
    Message('note_on', channel=1, note=57, velocity=0, time=0),
    Message('note_on', channel=1, note=62, velocity=0, time=0),
    Message('note_on', channel=1, note=66, velocity=0, time=0),
    Message('note_on', channel=1, note=50, velocity=75, time=2),
    Message('note_on', channel=1, note=57, velocity=75, time=0),
    Message('note_on', channel=1, note=62, velocity=75, time=0),
    Message('note_on', channel=1, note=66, velocity=75, time=0),
    Message('note_on', channel=1, note=50, velocity=0, time=94),
    Message('note_on', channel=1, note=57, velocity=0, time=0),
    Message('note_on', channel=1, note=62, velocity=0, time=0),
    Message('note_on', channel=1, note=66, velocity=0, time=0),
    Message('note_on', channel=1, note=50, velocity=75, time=2),
    Message('note_on', channel=1, note=57, velocity=75, time=0),
    Message('note_on', channel=1, note=62, velocity=75, time=0),
    Message('note_on', channel=1, note=66, velocity=75, time=0),
    Message('note_on', channel=1, note=50, velocity=0, time=190),
    Message('note_on', channel=1, note=57, velocity=0, time=0),
    Message('note_on', channel=1, note=62, velocity=0, time=0),
    Message('note_on', channel=1, note=66, velocity=0, time=0),
    Message('program_change', channel=1, program=2, time=2),
    Message('note_on', channel=1, note=52, velocity=92, time=0),
    Message('note_on', channel=1, note=52, velocity=0, time=46),
    Message('note_on', channel=1, note=59, velocity=92, time=2),
    Message('note_on', channel=1, note=59, velocity=0, time=46),
    Message('note_on', channel=1, note=62, velocity=92, time=2),
    Message('note_on', channel=1, note=62, velocity=0, time=46),
    Message('note_on', channel=1, note=52, velocity=92, time=2),
    Message('note_on', channel=1, note=52, velocity=0, time=46),
    Message('note_on', channel=1, note=54, velocity=92, time=2),
    Message('note_on', channel=1, note=54, velocity=0, time=46),
    Message('note_on', channel=1, note=57, velocity=92, time=2),
    Message('note_on', channel=1, note=57, velocity=0, time=46),
    Message('note_on', channel=1, note=62, velocity=92, time=2),
    Message('note_on', channel=1, note=62, velocity=0, time=46),
    Message('note_on', channel=1, note=54, velocity=92, time=2),
    Message('note_on', channel=1, note=54, velocity=0, time=46),
    Message('note_on', channel=1, note=55, velocity=92, time=2),
    Message('note_on', channel=1, note=55, velocity=0, time=46),
    Message('note_on', channel=1, note=59, velocity=92, time=2),
    Message('note_on', channel=1, note=59, velocity=0, time=46),
    Message('note_on', channel=1, note=62, velocity=92, time=2),
    Message('note_on', channel=1, note=62, velocity=0, time=46),
    Message('note_on', channel=1, note=55, velocity=92, time=2),
    Message('note_on', channel=1, note=55, velocity=0, time=46),
    Message('note_on', channel=1, note=57, velocity=92, time=2),
    Message('note_on', channel=1, note=57, velocity=0, time=46),
    Message('note_on', channel=1, note=59, velocity=92, time=2),
    Message('note_on', channel=1, note=59, velocity=0, time=46),
    Message('note_on', channel=1, note=62, velocity=92, time=2),
    Message('note_on', channel=1, note=62, velocity=0, time=46),
    Message('note_on', channel=1, note=64, velocity=92, time=2),
    Message('note_on', channel=1, note=64, velocity=0, time=46),
    Message('note_on', channel=1, note=52, velocity=92, time=2),
    Message('note_on', channel=1, note=52, velocity=0, time=46),
    Message('note_on', channel=1, note=59, velocity=92, time=2),
    Message('note_on', channel=1, note=59, velocity=0, time=46),
    Message('note_on', channel=1, note=62, velocity=92, time=2),
    Message('note_on', channel=1, note=62, velocity=0, time=46),
    Message('note_on', channel=1, note=52, velocity=92, time=2),
    Message('note_on', channel=1, note=52, velocity=0, time=46),
    Message('note_on', channel=1, note=54, velocity=92, time=2),
    Message('note_on', channel=1, note=54, velocity=0, time=46),
    Message('note_on', channel=1, note=57, velocity=92, time=2),
    Message('note_on', channel=1, note=57, velocity=0, time=46),
    Message('note_on', channel=1, note=62, velocity=92, time=2),
    Message('note_on', channel=1, note=62, velocity=0, time=46),
    Message('note_on', channel=1, note=54, velocity=92, time=2),
    Message('note_on', channel=1, note=54, velocity=0, time=46),
    Message('note_on', channel=1, note=55, velocity=92, time=2),
    Message('note_on', channel=1, note=55, velocity=0, time=46),
    Message('note_on', channel=1, note=59, velocity=92, time=2),
    Message('note_on', channel=1, note=59, velocity=0, time=46),
    Message('note_on', channel=1, note=62, velocity=92, time=2),
    Message('note_on', channel=1, note=62, velocity=0, time=46),
    Message('note_on', channel=1, note=55, velocity=92, time=2),
    Message('note_on', channel=1, note=55, velocity=0, time=46),
    Message('note_on', channel=1, note=57, velocity=92, time=2),
    Message('note_on', channel=1, note=57, velocity=0, time=46),
    Message('note_on', channel=1, note=58, velocity=92, time=2),
    Message('note_on', channel=1, note=58, velocity=0, time=46),
    Message('note_on', channel=1, note=59, velocity=92, time=2),
    Message('note_on', channel=1, note=59, velocity=0, time=94),
    Message('note_on', channel=1, note=52, velocity=92, time=2),
    Message('note_on', channel=1, note=52, velocity=0, time=46),
    Message('note_on', channel=1, note=59, velocity=92, time=2),
    Message('note_on', channel=1, note=59, velocity=0, time=46),
    Message('note_on', channel=1, note=62, velocity=92, time=2),
    Message('note_on', channel=1, note=62, velocity=0, time=46),
    Message('note_on', channel=1, note=52, velocity=92, time=2),
    Message('note_on', channel=1, note=52, velocity=0, time=46),
    Message('note_on', channel=1, note=54, velocity=92, time=2),
    Message('note_on', channel=1, note=54, velocity=0, time=46),
    Message('note_on', channel=1, note=57, velocity=92, time=2),
    Message('note_on', channel=1, note=57, velocity=0, time=46),
    Message('note_on', channel=1, note=62, velocity=92, time=2),
    Message('note_on', channel=1, note=62, velocity=0, time=46),
    Message('note_on', channel=1, note=54, velocity=92, time=2),
    Message('note_on', channel=1, note=54, velocity=0, time=46),
    Message('note_on', channel=1, note=55, velocity=92, time=2),
    Message('note_on', channel=1, note=55, velocity=0, time=46),
    Message('note_on', channel=1, note=59, velocity=92, time=2),
    Message('note_on', channel=1, note=59, velocity=0, time=46),
    Message('note_on', channel=1, note=62, velocity=92, time=2),
    Message('note_on', channel=1, note=62, velocity=0, time=46),
    Message('note_on', channel=1, note=55, velocity=92, time=2),
    Message('note_on', channel=1, note=55, velocity=0, time=46),
    Message('note_on', channel=1, note=57, velocity=92, time=2),
    Message('note_on', channel=1, note=57, velocity=0, time=46),
    Message('note_on', channel=1, note=59, velocity=92, time=2),
    Message('note_on', channel=1, note=59, velocity=0, time=46),
    Message('note_on', channel=1, note=62, velocity=92, time=2),
    Message('note_on', channel=1, note=62, velocity=0, time=46),
    Message('note_on', channel=1, note=64, velocity=92, time=2),
    Message('note_on', channel=1, note=64, velocity=0, time=46),
    Message('note_on', channel=1, note=52, velocity=92, time=2),
    Message('note_on', channel=1, note=52, velocity=0, time=46),
    Message('note_on', channel=1, note=59, velocity=92, time=2),
    Message('note_on', channel=1, note=59, velocity=0, time=46),
    Message('note_on', channel=1, note=62, velocity=92, time=2),
    Message('note_on', channel=1, note=62, velocity=0, time=46),
    Message('note_on', channel=1, note=52, velocity=92, time=2),
    Message('note_on', channel=1, note=52, velocity=0, time=46),
    Message('note_on', channel=1, note=54, velocity=92, time=2),
    Message('note_on', channel=1, note=54, velocity=0, time=46),
    Message('note_on', channel=1, note=57, velocity=92, time=2),
    Message('note_on', channel=1, note=57, velocity=0, time=46),
    Message('note_on', channel=1, note=62, velocity=92, time=2),
    Message('note_on', channel=1, note=62, velocity=0, time=46),
    Message('note_on', channel=1, note=54, velocity=92, time=2),
    Message('note_on', channel=1, note=54, velocity=0, time=46),
    Message('note_on', channel=1, note=55, velocity=92, time=2),
    Message('note_on', channel=1, note=55, velocity=0, time=46),
    Message('note_on', channel=1, note=59, velocity=92, time=2),
    Message('note_on', channel=1, note=59, velocity=0, time=46),
    Message('note_on', channel=1, note=62, velocity=92, time=2),
    Message('note_on', channel=1, note=62, velocity=0, time=46),
    Message('note_on', channel=1, note=55, velocity=92, time=2),
    Message('note_on', channel=1, note=55, velocity=0, time=46),
    Message('note_on', channel=1, note=57, velocity=92, time=2),
    Message('note_on', channel=1, note=57, velocity=0, time=46),
    Message('note_on', channel=1, note=58, velocity=92, time=2),
    Message('note_on', channel=1, note=58, velocity=0, time=46),
    Message('note_on', channel=1, note=59, velocity=92, time=2),
    Message('note_on', channel=1, note=59, velocity=0, time=94),
    Message('note_on', channel=1, note=52, velocity=92, time=2),
    Message('note_on', channel=1, note=52, velocity=0, time=46),
    Message('note_on', channel=1, note=59, velocity=92, time=2),
    Message('note_on', channel=1, note=59, velocity=0, time=46),
    Message('note_on', channel=1, note=62, velocity=92, time=2),
    Message('note_on', channel=1, note=62, velocity=0, time=46),
    Message('note_on', channel=1, note=52, velocity=92, time=2),
    Message('note_on', channel=1, note=52, velocity=0, time=46),
    Message('note_on', channel=1, note=54, velocity=92, time=2),
    Message('note_on', channel=1, note=54, velocity=0, time=46),
    Message('note_on', channel=1, note=57, velocity=92, time=2),
    Message('note_on', channel=1, note=57, velocity=0, time=46),
    Message('note_on', channel=1, note=62, velocity=92, time=2),
    Message('note_on', channel=1, note=62, velocity=0, time=46),
    Message('note_on', channel=1, note=54, velocity=92, time=2),
    Message('note_on', channel=1, note=54, velocity=0, time=46),
    Message('note_on', channel=1, note=55, velocity=92, time=2),
    Message('note_on', channel=1, note=55, velocity=0, time=46),
    Message('note_on', channel=1, note=59, velocity=92, time=2),
    Message('note_on', channel=1, note=59, velocity=0, time=46),
    Message('note_on', channel=1, note=62, velocity=92, time=2),
    Message('note_on', channel=1, note=62, velocity=0, time=46),
    Message('note_on', channel=1, note=55, velocity=92, time=2),
    Message('note_on', channel=1, note=55, velocity=0, time=46),
    Message('note_on', channel=1, note=57, velocity=92, time=2),
    Message('note_on', channel=1, note=57, velocity=0, time=46),
    Message('note_on', channel=1, note=59, velocity=92, time=2),
    Message('note_on', channel=1, note=59, velocity=0, time=46),
    Message('note_on', channel=1, note=62, velocity=92, time=2),
    Message('note_on', channel=1, note=62, velocity=0, time=46),
    Message('note_on', channel=1, note=64, velocity=92, time=2),
    Message('note_on', channel=1, note=64, velocity=0, time=46),
    Message('note_on', channel=1, note=52, velocity=92, time=2),
    Message('note_on', channel=1, note=52, velocity=0, time=46),
    Message('note_on', channel=1, note=59, velocity=92, time=2),
    Message('note_on', channel=1, note=59, velocity=0, time=46),
    Message('note_on', channel=1, note=62, velocity=92, time=2),
    Message('note_on', channel=1, note=62, velocity=0, time=46),
    Message('note_on', channel=1, note=52, velocity=92, time=2),
    Message('note_on', channel=1, note=52, velocity=0, time=46),
    Message('note_on', channel=1, note=54, velocity=92, time=2),
    Message('note_on', channel=1, note=54, velocity=0, time=46),
    Message('note_on', channel=1, note=57, velocity=92, time=2),
    Message('note_on', channel=1, note=57, velocity=0, time=46),
    Message('note_on', channel=1, note=62, velocity=92, time=2),
    Message('note_on', channel=1, note=62, velocity=0, time=46),
    Message('note_on', channel=1, note=54, velocity=92, time=2),
    Message('note_on', channel=1, note=54, velocity=0, time=46),
    Message('note_on', channel=1, note=55, velocity=92, time=2),
    Message('note_on', channel=1, note=55, velocity=0, time=46),
    Message('note_on', channel=1, note=59, velocity=92, time=2),
    Message('note_on', channel=1, note=59, velocity=0, time=46),
    Message('note_on', channel=1, note=62, velocity=92, time=2),
    Message('note_on', channel=1, note=62, velocity=0, time=46),
    Message('note_on', channel=1, note=55, velocity=92, time=2),
    Message('note_on', channel=1, note=55, velocity=0, time=46),
    Message('note_on', channel=1, note=57, velocity=92, time=2),
    Message('note_on', channel=1, note=57, velocity=0, time=46),
    Message('note_on', channel=1, note=58, velocity=92, time=2),
    Message('note_on', channel=1, note=58, velocity=0, time=46),
    Message('note_on', channel=1, note=59, velocity=92, time=2),
    Message('note_on', channel=1, note=59, velocity=0, time=94),
    Message('note_on', channel=1, note=52, velocity=92, time=2),
    Message('note_on', channel=1, note=52, velocity=0, time=46),
    Message('note_on', channel=1, note=59, velocity=92, time=2),
    Message('note_on', channel=1, note=59, velocity=0, time=46),
    Message('note_on', channel=1, note=62, velocity=92, time=2),
    Message('note_on', channel=1, note=62, velocity=0, time=46),
    Message('note_on', channel=1, note=52, velocity=92, time=2),
    Message('note_on', channel=1, note=52, velocity=0, time=46),
    Message('note_on', channel=1, note=54, velocity=92, time=2),
    Message('note_on', channel=1, note=54, velocity=0, time=46),
    Message('note_on', channel=1, note=57, velocity=92, time=2),
    Message('note_on', channel=1, note=57, velocity=0, time=46),
    Message('note_on', channel=1, note=62, velocity=92, time=2),
    Message('note_on', channel=1, note=62, velocity=0, time=46),
    Message('note_on', channel=1, note=54, velocity=92, time=2),
    Message('note_on', channel=1, note=54, velocity=0, time=46),
    Message('note_on', channel=1, note=55, velocity=92, time=2),
    Message('note_on', channel=1, note=55, velocity=0, time=46),
    Message('note_on', channel=1, note=59, velocity=92, time=2),
    Message('note_on', channel=1, note=59, velocity=0, time=46),
    Message('note_on', channel=1, note=62, velocity=92, time=2),
    Message('note_on', channel=1, note=62, velocity=0, time=46),
    Message('note_on', channel=1, note=55, velocity=92, time=2),
    Message('note_on', channel=1, note=55, velocity=0, time=46),
    Message('note_on', channel=1, note=57, velocity=92, time=2),
    Message('note_on', channel=1, note=57, velocity=0, time=46),
    Message('note_on', channel=1, note=59, velocity=92, time=2),
    Message('note_on', channel=1, note=59, velocity=0, time=46),
    Message('note_on', channel=1, note=62, velocity=92, time=2),
    Message('note_on', channel=1, note=62, velocity=0, time=46),
    Message('note_on', channel=1, note=64, velocity=92, time=2),
    Message('note_on', channel=1, note=64, velocity=0, time=46),
    Message('note_on', channel=1, note=52, velocity=92, time=2),
    Message('note_on', channel=1, note=52, velocity=0, time=46),
    Message('note_on', channel=1, note=59, velocity=92, time=2),
    Message('note_on', channel=1, note=59, velocity=0, time=46),
    Message('note_on', channel=1, note=62, velocity=92, time=2),
    Message('note_on', channel=1, note=62, velocity=0, time=46),
    Message('note_on', channel=1, note=52, velocity=92, time=2),
    Message('note_on', channel=1, note=52, velocity=0, time=46),
    Message('note_on', channel=1, note=54, velocity=92, time=2),
    Message('note_on', channel=1, note=54, velocity=0, time=46),
    Message('note_on', channel=1, note=57, velocity=92, time=2),
    Message('note_on', channel=1, note=57, velocity=0, time=46),
    Message('note_on', channel=1, note=62, velocity=92, time=2),
    Message('note_on', channel=1, note=62, velocity=0, time=46),
    Message('note_on', channel=1, note=54, velocity=92, time=2),
    Message('note_on', channel=1, note=54, velocity=0, time=46),
    Message('note_on', channel=1, note=55, velocity=92, time=2),
    Message('note_on', channel=1, note=55, velocity=0, time=46),
    Message('note_on', channel=1, note=59, velocity=92, time=2),
    Message('note_on', channel=1, note=59, velocity=0, time=46),
    Message('note_on', channel=1, note=62, velocity=92, time=2),
    Message('note_on', channel=1, note=62, velocity=0, time=46),
    Message('note_on', channel=1, note=55, velocity=92, time=2),
    Message('note_on', channel=1, note=55, velocity=0, time=46),
    Message('note_on', channel=1, note=57, velocity=92, time=2),
    Message('note_on', channel=1, note=57, velocity=0, time=46),
    Message('note_on', channel=1, note=58, velocity=92, time=2),
    Message('note_on', channel=1, note=58, velocity=0, time=46),
    Message('note_on', channel=1, note=59, velocity=92, time=2),
    Message('note_on', channel=1, note=59, velocity=0, time=94),
    Message('note_on', channel=1, note=62, velocity=75, time=194),
    Message('note_on', channel=1, note=62, velocity=0, time=94),
    Message('note_on', channel=1, note=64, velocity=75, time=2),
    Message('note_on', channel=1, note=64, velocity=0, time=46),
    Message('note_on', channel=1, note=62, velocity=75, time=2),
    Message('note_on', channel=1, note=62, velocity=0, time=142),
    Message('note_on', channel=1, note=55, velocity=75, time=2),
    Message('note_on', channel=1, note=55, velocity=0, time=238),
    Message('note_on', channel=1, note=62, velocity=75, time=2),
    Message('note_on', channel=1, note=62, velocity=0, time=10),
    Message('note_on', channel=1, note=55, velocity=75, time=2),
    Message('note_on', channel=1, note=55, velocity=0, time=10),
    Message('note_on', channel=1, note=52, velocity=75, time=2),
    Message('note_on', channel=1, note=52, velocity=0, time=10),
    Message('note_on', channel=1, note=52, velocity=75, time=2),
    Message('note_on', channel=1, note=52, velocity=0, time=10),
    Message('note_on', channel=1, note=40, velocity=75, time=2),
    Message('note_on', channel=1, note=47, velocity=75, time=0),
    Message('note_on', channel=1, note=40, velocity=0, time=160),
    Message('note_on', channel=1, note=47, velocity=0, time=0),
    Message('note_on', channel=1, note=54, velocity=75, time=32),
    Message('note_on', channel=1, note=54, velocity=0, time=46),
    Message('note_on', channel=1, note=55, velocity=75, time=2),
    Message('note_on', channel=1, note=55, velocity=0, time=94),
    Message('note_on', channel=1, note=54, velocity=75, time=2),
    Message('note_on', channel=1, note=54, velocity=0, time=382),
    Message('note_on', channel=1, note=62, velocity=75, time=2),
    Message('note_on', channel=1, note=62, velocity=0, time=10),
    Message('note_on', channel=1, note=55, velocity=75, time=2),
    Message('note_on', channel=1, note=55, velocity=0, time=10),
    Message('note_on', channel=1, note=52, velocity=75, time=2),
    Message('note_on', channel=1, note=52, velocity=0, time=10),
    Message('note_on', channel=1, note=52, velocity=75, time=2),
    Message('note_on', channel=1, note=52, velocity=0, time=10),
    Message('note_on', channel=1, note=40, velocity=75, time=2),
    Message('note_on', channel=1, note=47, velocity=75, time=0),
    Message('note_on', channel=1, note=40, velocity=0, time=160),
    Message('note_on', channel=1, note=47, velocity=0, time=0),
    Message('note_on', channel=1, note=55, velocity=75, time=32),
    Message('note_on', channel=1, note=55, velocity=0, time=46),
    Message('note_on', channel=1, note=62, velocity=75, time=2),
    Message('note_on', channel=1, note=62, velocity=0, time=94),
    Message('note_on', channel=1, note=54, velocity=75, time=2),
    Message('note_on', channel=1, note=54, velocity=0, time=382),
    Message('note_on', channel=1, note=62, velocity=75, time=2),
    Message('note_on', channel=1, note=62, velocity=0, time=10),
    Message('note_on', channel=1, note=55, velocity=75, time=2),
    Message('note_on', channel=1, note=55, velocity=0, time=10),
    Message('note_on', channel=1, note=52, velocity=75, time=2),
    Message('note_on', channel=1, note=52, velocity=0, time=10),
    Message('note_on', channel=1, note=52, velocity=75, time=2),
    Message('note_on', channel=1, note=52, velocity=0, time=10),
    Message('note_on', channel=1, note=40, velocity=75, time=2),
    Message('note_on', channel=1, note=47, velocity=75, time=0),
    Message('note_on', channel=1, note=40, velocity=0, time=720),
    Message('note_on', channel=1, note=47, velocity=0, time=0),
    Message('note_on', channel=1, note=43, velocity=75, time=48),
    Message('note_on', channel=1, note=50, velocity=75, time=0),
    Message('note_on', channel=1, note=55, velocity=75, time=0),
    Message('note_on', channel=1, note=62, velocity=75, time=0),
    Message('note_on', channel=1, note=67, velocity=75, time=0),
    Message('note_on', channel=1, note=43, velocity=0, time=334),
    Message('note_on', channel=1, note=50, velocity=0, time=0),
    Message('note_on', channel=1, note=55, velocity=0, time=0),
    Message('note_on', channel=1, note=62, velocity=0, time=0),
    Message('note_on', channel=1, note=67, velocity=0, time=0),
    Message('control_change', channel=1, control=64, value=0, time=2),
    Message('note_on', channel=1, note=43, velocity=75, time=0),
    Message('note_on', channel=1, note=50, velocity=75, time=0),
    Message('note_on', channel=1, note=55, velocity=75, time=0),
    Message('note_on', channel=1, note=62, velocity=75, time=0),
    Message('note_on', channel=1, note=67, velocity=75, time=0),
    Message('note_on', channel=1, note=43, velocity=0, time=46),
    Message('note_on', channel=1, note=50, velocity=0, time=0),
    Message('note_on', channel=1, note=55, velocity=0, time=0),
    Message('note_on', channel=1, note=62, velocity=0, time=0),
    Message('note_on', channel=1, note=67, velocity=0, time=0),
    Message('control_change', channel=1, control=64, value=127, time=50),
    Message('note_on', channel=1, note=45, velocity=75, time=0),
    Message('note_on', channel=1, note=52, velocity=75, time=0),
    Message('note_on', channel=1, note=57, velocity=75, time=0),
    Message('note_on', channel=1, note=59, velocity=75, time=0),
    Message('note_on', channel=1, note=64, velocity=75, time=0),
    Message('note_on', channel=1, note=45, velocity=0, time=46),
    Message('note_on', channel=1, note=52, velocity=0, time=0),
    Message('note_on', channel=1, note=57, velocity=0, time=0),
    Message('note_on', channel=1, note=59, velocity=0, time=0),
    Message('note_on', channel=1, note=64, velocity=0, time=0),
    Message('note_on', channel=1, note=45, velocity=75, time=2),
    Message('note_on', channel=1, note=52, velocity=75, time=0),
    Message('note_on', channel=1, note=57, velocity=75, time=0),
    Message('note_on', channel=1, note=59, velocity=75, time=0),
    Message('note_on', channel=1, note=64, velocity=75, time=0),
    Message('note_on', channel=1, note=45, velocity=0, time=94),
    Message('note_on', channel=1, note=52, velocity=0, time=0),
    Message('note_on', channel=1, note=57, velocity=0, time=0),
    Message('note_on', channel=1, note=59, velocity=0, time=0),
    Message('note_on', channel=1, note=64, velocity=0, time=0),
    Message('note_on', channel=1, note=45, velocity=75, time=2),
    Message('note_on', channel=1, note=52, velocity=75, time=0),
    Message('note_on', channel=1, note=57, velocity=75, time=0),
    Message('note_on', channel=1, note=59, velocity=75, time=0),
    Message('note_on', channel=1, note=64, velocity=75, time=0),
    Message('note_on', channel=1, note=45, velocity=0, time=142),
    Message('note_on', channel=1, note=52, velocity=0, time=0),
    Message('note_on', channel=1, note=57, velocity=0, time=0),
    Message('note_on', channel=1, note=59, velocity=0, time=0),
    Message('note_on', channel=1, note=64, velocity=0, time=0),
    Message('note_on', channel=1, note=62, velocity=75, time=2),
    Message('note_on', channel=1, note=62, velocity=0, time=10),
    Message('note_on', channel=1, note=55, velocity=75, time=2),
    Message('note_on', channel=1, note=55, velocity=0, time=10),
    Message('note_on', channel=1, note=52, velocity=75, time=2),
    Message('note_on', channel=1, note=52, velocity=0, time=10),
    Message('note_on', channel=1, note=52, velocity=75, time=2),
    Message('note_on', channel=1, note=52, velocity=0, time=10),
    Message('note_on', channel=1, note=40, velocity=75, time=2),
    Message('note_on', channel=1, note=47, velocity=75, time=0),
    Message('note_on', channel=1, note=40, velocity=0, time=720),
    Message('note_on', channel=1, note=47, velocity=0, time=0),
    Message('note_on', channel=1, note=43, velocity=75, time=48),
    Message('note_on', channel=1, note=50, velocity=75, time=0),
    Message('note_on', channel=1, note=55, velocity=75, time=0),
    Message('note_on', channel=1, note=62, velocity=75, time=0),
    Message('note_on', channel=1, note=67, velocity=75, time=0),
    Message('note_on', channel=1, note=43, velocity=0, time=334),
    Message('note_on', channel=1, note=50, velocity=0, time=0),
    Message('note_on', channel=1, note=55, velocity=0, time=0),
    Message('note_on', channel=1, note=62, velocity=0, time=0),
    Message('note_on', channel=1, note=67, velocity=0, time=0),
    Message('control_change', channel=1, control=64, value=0, time=2),
    Message('note_on', channel=1, note=43, velocity=75, time=0),
    Message('note_on', channel=1, note=50, velocity=75, time=0),
    Message('note_on', channel=1, note=55, velocity=75, time=0),
    Message('note_on', channel=1, note=62, velocity=75, time=0),
    Message('note_on', channel=1, note=67, velocity=75, time=0),
    Message('note_on', channel=1, note=43, velocity=0, time=46),
    Message('note_on', channel=1, note=50, velocity=0, time=0),
    Message('note_on', channel=1, note=55, velocity=0, time=0),
    Message('note_on', channel=1, note=62, velocity=0, time=0),
    Message('note_on', channel=1, note=67, velocity=0, time=0),
    Message('control_change', channel=1, control=64, value=127, time=50),
    Message('note_on', channel=1, note=45, velocity=75, time=0),
    Message('note_on', channel=1, note=52, velocity=75, time=0),
    Message('note_on', channel=1, note=57, velocity=75, time=0),
    Message('note_on', channel=1, note=59, velocity=75, time=0),
    Message('note_on', channel=1, note=64, velocity=75, time=0),
    Message('note_on', channel=1, note=45, velocity=0, time=46),
    Message('note_on', channel=1, note=52, velocity=0, time=0),
    Message('note_on', channel=1, note=57, velocity=0, time=0),
    Message('note_on', channel=1, note=59, velocity=0, time=0),
    Message('note_on', channel=1, note=64, velocity=0, time=0),
    Message('note_on', channel=1, note=45, velocity=75, time=2),
    Message('note_on', channel=1, note=52, velocity=75, time=0),
    Message('note_on', channel=1, note=57, velocity=75, time=0),
    Message('note_on', channel=1, note=59, velocity=75, time=0),
    Message('note_on', channel=1, note=64, velocity=75, time=0),
    Message('note_on', channel=1, note=45, velocity=0, time=94),
    Message('note_on', channel=1, note=52, velocity=0, time=0),
    Message('note_on', channel=1, note=57, velocity=0, time=0),
    Message('note_on', channel=1, note=59, velocity=0, time=0),
    Message('note_on', channel=1, note=64, velocity=0, time=0),
    Message('note_on', channel=1, note=45, velocity=75, time=2),
    Message('note_on', channel=1, note=52, velocity=75, time=0),
    Message('note_on', channel=1, note=57, velocity=75, time=0),
    Message('note_on', channel=1, note=59, velocity=75, time=0),
    Message('note_on', channel=1, note=64, velocity=75, time=0),
    Message('note_on', channel=1, note=45, velocity=0, time=142),
    Message('note_on', channel=1, note=52, velocity=0, time=0),
    Message('note_on', channel=1, note=57, velocity=0, time=0),
    Message('note_on', channel=1, note=59, velocity=0, time=0),
    Message('note_on', channel=1, note=64, velocity=0, time=0),
    Message('note_on', channel=1, note=62, velocity=75, time=2),
    Message('note_on', channel=1, note=62, velocity=0, time=10),
    Message('note_on', channel=1, note=55, velocity=75, time=2),
    Message('note_on', channel=1, note=55, velocity=0, time=10),
    Message('note_on', channel=1, note=52, velocity=75, time=2),
    Message('note_on', channel=1, note=52, velocity=0, time=10),
    Message('note_on', channel=1, note=52, velocity=75, time=2),
    Message('note_on', channel=1, note=52, velocity=0, time=10),
    Message('note_on', channel=1, note=40, velocity=75, time=2),
    Message('note_on', channel=1, note=47, velocity=75, time=0),
    Message('note_on', channel=1, note=40, velocity=0, time=720),
    Message('note_on', channel=1, note=47, velocity=0, time=0),
    Message('note_on', channel=1, note=43, velocity=75, time=48),
    Message('note_on', channel=1, note=50, velocity=75, time=0),
    Message('note_on', channel=1, note=55, velocity=75, time=0),
    Message('note_on', channel=1, note=62, velocity=75, time=0),
    Message('note_on', channel=1, note=67, velocity=75, time=0),
    Message('note_on', channel=1, note=43, velocity=0, time=94),
    Message('note_on', channel=1, note=50, velocity=0, time=0),
    Message('note_on', channel=1, note=55, velocity=0, time=0),
    Message('note_on', channel=1, note=62, velocity=0, time=0),
    Message('note_on', channel=1, note=67, velocity=0, time=0),
    Message('note_on', channel=1, note=43, velocity=75, time=2),
    Message('note_on', channel=1, note=50, velocity=75, time=0),
    Message('note_on', channel=1, note=55, velocity=75, time=0),
    Message('note_on', channel=1, note=62, velocity=75, time=0),
    Message('note_on', channel=1, note=67, velocity=75, time=0),
    Message('note_on', channel=1, note=43, velocity=0, time=94),
    Message('note_on', channel=1, note=50, velocity=0, time=0),
    Message('note_on', channel=1, note=55, velocity=0, time=0),
    Message('note_on', channel=1, note=62, velocity=0, time=0),
    Message('note_on', channel=1, note=67, velocity=0, time=0),
    Message('note_on', channel=1, note=43, velocity=75, time=2),
    Message('note_on', channel=1, note=50, velocity=75, time=0),
    Message('note_on', channel=1, note=55, velocity=75, time=0),
    Message('note_on', channel=1, note=62, velocity=75, time=0),
    Message('note_on', channel=1, note=67, velocity=75, time=0),
    Message('note_on', channel=1, note=43, velocity=0, time=94),
    Message('note_on', channel=1, note=50, velocity=0, time=0),
    Message('note_on', channel=1, note=55, velocity=0, time=0),
    Message('note_on', channel=1, note=62, velocity=0, time=0),
    Message('note_on', channel=1, note=67, velocity=0, time=0),
    Message('note_on', channel=1, note=43, velocity=75, time=2),
    Message('note_on', channel=1, note=50, velocity=75, time=0),
    Message('note_on', channel=1, note=55, velocity=75, time=0),
    Message('note_on', channel=1, note=62, velocity=75, time=0),
    Message('note_on', channel=1, note=67, velocity=75, time=0),
    Message('note_on', channel=1, note=43, velocity=0, time=46),
    Message('note_on', channel=1, note=50, velocity=0, time=0),
    Message('note_on', channel=1, note=55, velocity=0, time=0),
    Message('note_on', channel=1, note=62, velocity=0, time=0),
    Message('note_on', channel=1, note=67, velocity=0, time=0),
    Message('note_on', channel=1, note=43, velocity=75, time=2),
    Message('note_on', channel=1, note=50, velocity=75, time=0),
    Message('note_on', channel=1, note=55, velocity=75, time=0),
    Message('note_on', channel=1, note=62, velocity=75, time=0),
    Message('note_on', channel=1, note=67, velocity=75, time=0),
    Message('note_on', channel=1, note=43, velocity=0, time=46),
    Message('note_on', channel=1, note=50, velocity=0, time=0),
    Message('note_on', channel=1, note=55, velocity=0, time=0),
    Message('note_on', channel=1, note=62, velocity=0, time=0),
    Message('note_on', channel=1, note=67, velocity=0, time=0),
    Message('note_on', channel=1, note=45, velocity=75, time=50),
    Message('note_on', channel=1, note=52, velocity=75, time=0),
    Message('note_on', channel=1, note=57, velocity=75, time=0),
    Message('note_on', channel=1, note=59, velocity=75, time=0),
    Message('note_on', channel=1, note=64, velocity=75, time=0),
    Message('note_on', channel=1, note=45, velocity=0, time=46),
    Message('note_on', channel=1, note=52, velocity=0, time=0),
    Message('note_on', channel=1, note=57, velocity=0, time=0),
    Message('note_on', channel=1, note=59, velocity=0, time=0),
    Message('note_on', channel=1, note=64, velocity=0, time=0),
    Message('note_on', channel=1, note=45, velocity=75, time=2),
    Message('note_on', channel=1, note=52, velocity=75, time=0),
    Message('note_on', channel=1, note=57, velocity=75, time=0),
    Message('note_on', channel=1, note=59, velocity=75, time=0),
    Message('note_on', channel=1, note=64, velocity=75, time=0),
    Message('note_on', channel=1, note=45, velocity=0, time=94),
    Message('note_on', channel=1, note=52, velocity=0, time=0),
    Message('note_on', channel=1, note=57, velocity=0, time=0),
    Message('note_on', channel=1, note=59, velocity=0, time=0),
    Message('note_on', channel=1, note=64, velocity=0, time=0),
    Message('note_on', channel=1, note=45, velocity=75, time=2),
    Message('note_on', channel=1, note=52, velocity=75, time=0),
    Message('note_on', channel=1, note=57, velocity=75, time=0),
    Message('note_on', channel=1, note=59, velocity=75, time=0),
    Message('note_on', channel=1, note=64, velocity=75, time=0),
    Message('note_on', channel=1, note=45, velocity=0, time=160),
    Message('note_on', channel=1, note=52, velocity=0, time=0),
    Message('note_on', channel=1, note=57, velocity=0, time=0),
    Message('note_on', channel=1, note=59, velocity=0, time=0),
    Message('note_on', channel=1, note=64, velocity=0, time=0),
    Message('note_on', channel=1, note=48, velocity=75, time=32),
    Message('note_on', channel=1, note=50, velocity=75, time=0),
    Message('note_on', channel=1, note=55, velocity=75, time=0),
    Message('note_on', channel=1, note=62, velocity=75, time=0),
    Message('note_on', channel=1, note=67, velocity=75, time=0),
    Message('note_on', channel=1, note=48, velocity=0, time=190),
    Message('note_on', channel=1, note=50, velocity=0, time=0),
    Message('note_on', channel=1, note=55, velocity=0, time=0),
    Message('note_on', channel=1, note=62, velocity=0, time=0),
    Message('note_on', channel=1, note=67, velocity=0, time=0),
    Message('note_on', channel=1, note=48, velocity=75, time=2),
    Message('note_on', channel=1, note=50, velocity=75, time=0),
    Message('note_on', channel=1, note=55, velocity=75, time=0),
    Message('note_on', channel=1, note=62, velocity=75, time=0),
    Message('note_on', channel=1, note=67, velocity=75, time=0),
    Message('note_on', channel=1, note=48, velocity=0, time=142),
    Message('note_on', channel=1, note=50, velocity=0, time=0),
    Message('note_on', channel=1, note=55, velocity=0, time=0),
    Message('note_on', channel=1, note=62, velocity=0, time=0),
    Message('note_on', channel=1, note=67, velocity=0, time=0),
    Message('note_on', channel=1, note=48, velocity=75, time=2),
    Message('note_on', channel=1, note=50, velocity=75, time=0),
    Message('note_on', channel=1, note=55, velocity=75, time=0),
    Message('note_on', channel=1, note=62, velocity=75, time=0),
    Message('note_on', channel=1, note=67, velocity=75, time=0),
    Message('note_on', channel=1, note=48, velocity=0, time=46),
    Message('note_on', channel=1, note=50, velocity=0, time=0),
    Message('note_on', channel=1, note=55, velocity=0, time=0),
    Message('note_on', channel=1, note=62, velocity=0, time=0),
    Message('note_on', channel=1, note=67, velocity=0, time=0),
    Message('note_on', channel=1, note=50, velocity=75, time=50),
    Message('note_on', channel=1, note=57, velocity=75, time=0),
    Message('note_on', channel=1, note=62, velocity=75, time=0),
    Message('note_on', channel=1, note=66, velocity=75, time=0),
    Message('note_on', channel=1, note=50, velocity=0, time=46),
    Message('note_on', channel=1, note=57, velocity=0, time=0),
    Message('note_on', channel=1, note=62, velocity=0, time=0),
    Message('note_on', channel=1, note=66, velocity=0, time=0),
    Message('note_on', channel=1, note=50, velocity=75, time=2),
    Message('note_on', channel=1, note=57, velocity=75, time=0),
    Message('note_on', channel=1, note=62, velocity=75, time=0),
    Message('note_on', channel=1, note=66, velocity=75, time=0),
    Message('note_on', channel=1, note=50, velocity=0, time=94),
    Message('note_on', channel=1, note=57, velocity=0, time=0),
    Message('note_on', channel=1, note=62, velocity=0, time=0),
    Message('note_on', channel=1, note=66, velocity=0, time=0),
    Message('note_on', channel=1, note=50, velocity=75, time=2),
    Message('note_on', channel=1, note=57, velocity=75, time=0),
    Message('note_on', channel=1, note=62, velocity=75, time=0),
    Message('note_on', channel=1, note=66, velocity=75, time=0),
    Message('note_on', channel=1, note=50, velocity=0, time=190),
    Message('note_on', channel=1, note=57, velocity=0, time=0),
    Message('note_on', channel=1, note=62, velocity=0, time=0),
    Message('note_on', channel=1, note=66, velocity=0, time=0),
    Message('program_change', channel=1, program=2, time=2),
    Message('note_on', channel=1, note=52, velocity=92, time=0),
    Message('note_on', channel=1, note=52, velocity=0, time=46),
    Message('note_on', channel=1, note=59, velocity=92, time=2),
    Message('note_on', channel=1, note=59, velocity=0, time=46),
    Message('note_on', channel=1, note=62, velocity=92, time=2),
    Message('note_on', channel=1, note=62, velocity=0, time=46),
    Message('note_on', channel=1, note=52, velocity=92, time=2),
    Message('note_on', channel=1, note=52, velocity=0, time=46),
    Message('note_on', channel=1, note=54, velocity=92, time=2),
    Message('note_on', channel=1, note=54, velocity=0, time=46),
    Message('note_on', channel=1, note=57, velocity=92, time=2),
    Message('note_on', channel=1, note=57, velocity=0, time=46),
    Message('note_on', channel=1, note=62, velocity=92, time=2),
    Message('note_on', channel=1, note=62, velocity=0, time=46),
    Message('note_on', channel=1, note=54, velocity=92, time=2),
    Message('note_on', channel=1, note=54, velocity=0, time=46),
    Message('note_on', channel=1, note=55, velocity=92, time=2),
    Message('note_on', channel=1, note=55, velocity=0, time=46),
    Message('note_on', channel=1, note=59, velocity=92, time=2),
    Message('note_on', channel=1, note=59, velocity=0, time=46),
    Message('note_on', channel=1, note=62, velocity=92, time=2),
    Message('note_on', channel=1, note=62, velocity=0, time=46),
    Message('note_on', channel=1, note=55, velocity=92, time=2),
    Message('note_on', channel=1, note=55, velocity=0, time=46),
    Message('note_on', channel=1, note=57, velocity=92, time=2),
    Message('note_on', channel=1, note=57, velocity=0, time=46),
    Message('note_on', channel=1, note=59, velocity=92, time=2),
    Message('note_on', channel=1, note=59, velocity=0, time=46),
    Message('note_on', channel=1, note=62, velocity=92, time=2),
    Message('note_on', channel=1, note=62, velocity=0, time=46),
    Message('note_on', channel=1, note=64, velocity=92, time=2),
    Message('note_on', channel=1, note=64, velocity=0, time=46),
    Message('note_on', channel=1, note=52, velocity=92, time=2),
    Message('note_on', channel=1, note=52, velocity=0, time=46),
    Message('note_on', channel=1, note=59, velocity=92, time=2),
    Message('note_on', channel=1, note=59, velocity=0, time=46),
    Message('note_on', channel=1, note=62, velocity=92, time=2),
    Message('note_on', channel=1, note=62, velocity=0, time=46),
    Message('note_on', channel=1, note=52, velocity=92, time=2),
    Message('note_on', channel=1, note=52, velocity=0, time=46),
    Message('note_on', channel=1, note=54, velocity=92, time=2),
    Message('note_on', channel=1, note=54, velocity=0, time=46),
    Message('note_on', channel=1, note=57, velocity=92, time=2),
    Message('note_on', channel=1, note=57, velocity=0, time=46),
    Message('note_on', channel=1, note=62, velocity=92, time=2),
    Message('note_on', channel=1, note=62, velocity=0, time=46),
    Message('note_on', channel=1, note=54, velocity=92, time=2),
    Message('note_on', channel=1, note=54, velocity=0, time=46),
    Message('note_on', channel=1, note=55, velocity=92, time=2),
    Message('note_on', channel=1, note=55, velocity=0, time=46),
    Message('note_on', channel=1, note=59, velocity=92, time=2),
    Message('note_on', channel=1, note=59, velocity=0, time=46),
    Message('note_on', channel=1, note=62, velocity=92, time=2),
    Message('note_on', channel=1, note=62, velocity=0, time=46),
    Message('note_on', channel=1, note=55, velocity=92, time=2),
    Message('note_on', channel=1, note=55, velocity=0, time=46),
    Message('note_on', channel=1, note=57, velocity=92, time=2),
    Message('note_on', channel=1, note=57, velocity=0, time=46),
    Message('note_on', channel=1, note=58, velocity=92, time=2),
    Message('note_on', channel=1, note=58, velocity=0, time=46),
    Message('note_on', channel=1, note=59, velocity=92, time=2),
    Message('note_on', channel=1, note=59, velocity=0, time=94),
    Message('note_on', channel=1, note=52, velocity=92, time=2),
    Message('note_on', channel=1, note=52, velocity=0, time=46),
    Message('note_on', channel=1, note=59, velocity=92, time=2),
    Message('note_on', channel=1, note=59, velocity=0, time=46),
    Message('note_on', channel=1, note=62, velocity=92, time=2),
    Message('note_on', channel=1, note=62, velocity=0, time=46),
    Message('note_on', channel=1, note=52, velocity=92, time=2),
    Message('note_on', channel=1, note=52, velocity=0, time=46),
    Message('note_on', channel=1, note=54, velocity=92, time=2),
    Message('note_on', channel=1, note=54, velocity=0, time=46),
    Message('note_on', channel=1, note=57, velocity=92, time=2),
    Message('note_on', channel=1, note=57, velocity=0, time=46),
    Message('note_on', channel=1, note=62, velocity=92, time=2),
    Message('note_on', channel=1, note=62, velocity=0, time=46),
    Message('note_on', channel=1, note=54, velocity=92, time=2),
    Message('note_on', channel=1, note=54, velocity=0, time=46),
    Message('note_on', channel=1, note=55, velocity=92, time=2),
    Message('note_on', channel=1, note=55, velocity=0, time=46),
    Message('note_on', channel=1, note=59, velocity=92, time=2),
    Message('note_on', channel=1, note=59, velocity=0, time=46),
    Message('note_on', channel=1, note=62, velocity=92, time=2),
    Message('note_on', channel=1, note=62, velocity=0, time=46),
    Message('note_on', channel=1, note=55, velocity=92, time=2),
    Message('note_on', channel=1, note=55, velocity=0, time=46),
    Message('note_on', channel=1, note=57, velocity=92, time=2),
    Message('note_on', channel=1, note=57, velocity=0, time=46),
    Message('note_on', channel=1, note=59, velocity=92, time=2),
    Message('note_on', channel=1, note=59, velocity=0, time=46),
    Message('note_on', channel=1, note=62, velocity=92, time=2),
    Message('note_on', channel=1, note=62, velocity=0, time=46),
    Message('note_on', channel=1, note=64, velocity=92, time=2),
    Message('note_on', channel=1, note=64, velocity=0, time=46),
    Message('note_on', channel=1, note=52, velocity=92, time=2),
    Message('note_on', channel=1, note=52, velocity=0, time=46),
    Message('note_on', channel=1, note=59, velocity=92, time=2),
    Message('note_on', channel=1, note=59, velocity=0, time=46),
    Message('note_on', channel=1, note=62, velocity=92, time=2),
    Message('note_on', channel=1, note=62, velocity=0, time=46),
    Message('note_on', channel=1, note=52, velocity=92, time=2),
    Message('note_on', channel=1, note=52, velocity=0, time=46),
    Message('note_on', channel=1, note=54, velocity=92, time=2),
    Message('note_on', channel=1, note=54, velocity=0, time=46),
    Message('note_on', channel=1, note=57, velocity=92, time=2),
    Message('note_on', channel=1, note=57, velocity=0, time=46),
    Message('note_on', channel=1, note=62, velocity=92, time=2),
    Message('note_on', channel=1, note=62, velocity=0, time=46),
    Message('note_on', channel=1, note=54, velocity=92, time=2),
    Message('note_on', channel=1, note=54, velocity=0, time=46),
    Message('note_on', channel=1, note=55, velocity=92, time=2),
    Message('note_on', channel=1, note=55, velocity=0, time=46),
    Message('note_on', channel=1, note=59, velocity=92, time=2),
    Message('note_on', channel=1, note=59, velocity=0, time=46),
    Message('note_on', channel=1, note=62, velocity=92, time=2),
    Message('note_on', channel=1, note=62, velocity=0, time=46),
    Message('note_on', channel=1, note=55, velocity=92, time=2),
    Message('note_on', channel=1, note=55, velocity=0, time=46),
    Message('note_on', channel=1, note=57, velocity=92, time=2),
    Message('note_on', channel=1, note=57, velocity=0, time=46),
    Message('note_on', channel=1, note=58, velocity=92, time=2),
    Message('note_on', channel=1, note=58, velocity=0, time=46),
    Message('note_on', channel=1, note=59, velocity=92, time=2),
    Message('note_on', channel=1, note=59, velocity=0, time=94),
    Message('note_on', channel=1, note=52, velocity=92, time=2),
    Message('note_on', channel=1, note=52, velocity=0, time=46),
    Message('note_on', channel=1, note=59, velocity=92, time=2),
    Message('note_on', channel=1, note=59, velocity=0, time=46),
    Message('note_on', channel=1, note=62, velocity=92, time=2),
    Message('note_on', channel=1, note=62, velocity=0, time=46),
    Message('note_on', channel=1, note=52, velocity=92, time=2),
    Message('note_on', channel=1, note=52, velocity=0, time=46),
    Message('note_on', channel=1, note=54, velocity=92, time=2),
    Message('note_on', channel=1, note=54, velocity=0, time=46),
    Message('note_on', channel=1, note=57, velocity=92, time=2),
    Message('note_on', channel=1, note=57, velocity=0, time=46),
    Message('note_on', channel=1, note=62, velocity=92, time=2),
    Message('note_on', channel=1, note=62, velocity=0, time=46),
    Message('note_on', channel=1, note=54, velocity=92, time=2),
    Message('note_on', channel=1, note=54, velocity=0, time=46),
    Message('note_on', channel=1, note=55, velocity=92, time=2),
    Message('note_on', channel=1, note=55, velocity=0, time=46),
    Message('note_on', channel=1, note=59, velocity=92, time=2),
    Message('note_on', channel=1, note=59, velocity=0, time=46),
    Message('note_on', channel=1, note=62, velocity=92, time=2),
    Message('note_on', channel=1, note=62, velocity=0, time=46),
    Message('note_on', channel=1, note=55, velocity=92, time=2),
    Message('note_on', channel=1, note=55, velocity=0, time=46),
    Message('note_on', channel=1, note=57, velocity=92, time=2),
    Message('note_on', channel=1, note=57, velocity=0, time=46),
    Message('note_on', channel=1, note=59, velocity=92, time=2),
    Message('note_on', channel=1, note=59, velocity=0, time=46),
    Message('note_on', channel=1, note=62, velocity=92, time=2),
    Message('note_on', channel=1, note=62, velocity=0, time=46),
    Message('note_on', channel=1, note=64, velocity=92, time=2),
    Message('note_on', channel=1, note=64, velocity=0, time=46),
    Message('note_on', channel=1, note=52, velocity=92, time=2),
    Message('note_on', channel=1, note=52, velocity=0, time=46),
    Message('note_on', channel=1, note=59, velocity=92, time=2),
    Message('note_on', channel=1, note=59, velocity=0, time=46),
    Message('note_on', channel=1, note=62, velocity=92, time=2),
    Message('note_on', channel=1, note=62, velocity=0, time=46),
    Message('note_on', channel=1, note=52, velocity=92, time=2),
    Message('note_on', channel=1, note=52, velocity=0, time=46),
    Message('note_on', channel=1, note=54, velocity=92, time=2),
    Message('note_on', channel=1, note=54, velocity=0, time=46),
    Message('note_on', channel=1, note=57, velocity=92, time=2),
    Message('note_on', channel=1, note=57, velocity=0, time=46),
    Message('note_on', channel=1, note=62, velocity=92, time=2),
    Message('note_on', channel=1, note=62, velocity=0, time=46),
    Message('note_on', channel=1, note=54, velocity=92, time=2),
    Message('note_on', channel=1, note=54, velocity=0, time=46),
    Message('note_on', channel=1, note=55, velocity=92, time=2),
    Message('note_on', channel=1, note=55, velocity=0, time=46),
    Message('note_on', channel=1, note=59, velocity=92, time=2),
    Message('note_on', channel=1, note=59, velocity=0, time=46),
    Message('note_on', channel=1, note=62, velocity=92, time=2),
    Message('note_on', channel=1, note=62, velocity=0, time=46),
    Message('note_on', channel=1, note=55, velocity=92, time=2),
    Message('note_on', channel=1, note=55, velocity=0, time=46),
    Message('note_on', channel=1, note=57, velocity=92, time=2),
    Message('note_on', channel=1, note=57, velocity=0, time=46),
    Message('note_on', channel=1, note=58, velocity=92, time=2),
    Message('note_on', channel=1, note=58, velocity=0, time=46),
    Message('note_on', channel=1, note=59, velocity=92, time=2),
    Message('note_on', channel=1, note=59, velocity=0, time=94),
    Message('note_on', channel=1, note=52, velocity=92, time=2),
    Message('note_on', channel=1, note=52, velocity=0, time=46),
    Message('note_on', channel=1, note=59, velocity=92, time=2),
    Message('note_on', channel=1, note=59, velocity=0, time=46),
    Message('note_on', channel=1, note=62, velocity=92, time=2),
    Message('note_on', channel=1, note=62, velocity=0, time=46),
    Message('note_on', channel=1, note=52, velocity=92, time=2),
    Message('note_on', channel=1, note=52, velocity=0, time=46),
    Message('note_on', channel=1, note=54, velocity=92, time=2),
    Message('note_on', channel=1, note=54, velocity=0, time=46),
    Message('note_on', channel=1, note=57, velocity=92, time=2),
    Message('note_on', channel=1, note=57, velocity=0, time=46),
    Message('note_on', channel=1, note=62, velocity=92, time=2),
    Message('note_on', channel=1, note=62, velocity=0, time=46),
    Message('note_on', channel=1, note=54, velocity=92, time=2),
    Message('note_on', channel=1, note=54, velocity=0, time=46),
    Message('note_on', channel=1, note=55, velocity=92, time=2),
    Message('note_on', channel=1, note=55, velocity=0, time=46),
    Message('note_on', channel=1, note=59, velocity=92, time=2),
    Message('note_on', channel=1, note=59, velocity=0, time=46),
    Message('note_on', channel=1, note=62, velocity=92, time=2),
    Message('note_on', channel=1, note=62, velocity=0, time=46),
    Message('note_on', channel=1, note=55, velocity=92, time=2),
    Message('note_on', channel=1, note=55, velocity=0, time=46),
    Message('note_on', channel=1, note=57, velocity=92, time=2),
    Message('note_on', channel=1, note=57, velocity=0, time=46),
    Message('note_on', channel=1, note=59, velocity=92, time=2),
    Message('note_on', channel=1, note=59, velocity=0, time=46),
    Message('note_on', channel=1, note=62, velocity=92, time=2),
    Message('note_on', channel=1, note=62, velocity=0, time=46),
    Message('note_on', channel=1, note=64, velocity=92, time=2),
    Message('note_on', channel=1, note=64, velocity=0, time=46),
    Message('note_on', channel=1, note=52, velocity=92, time=2),
    Message('note_on', channel=1, note=52, velocity=0, time=46),
    Message('note_on', channel=1, note=59, velocity=92, time=2),
    Message('note_on', channel=1, note=59, velocity=0, time=46),
    Message('note_on', channel=1, note=62, velocity=92, time=2),
    Message('note_on', channel=1, note=62, velocity=0, time=46),
    Message('note_on', channel=1, note=52, velocity=92, time=2),
    Message('note_on', channel=1, note=52, velocity=0, time=46),
    Message('note_on', channel=1, note=54, velocity=92, time=2),
    Message('note_on', channel=1, note=54, velocity=0, time=46),
    Message('note_on', channel=1, note=57, velocity=92, time=2),
    Message('note_on', channel=1, note=57, velocity=0, time=46),
    Message('note_on', channel=1, note=62, velocity=92, time=2),
    Message('note_on', channel=1, note=62, velocity=0, time=46),
    Message('note_on', channel=1, note=54, velocity=92, time=2),
    Message('note_on', channel=1, note=54, velocity=0, time=46),
    Message('note_on', channel=1, note=55, velocity=92, time=2),
    Message('note_on', channel=1, note=55, velocity=0, time=46),
    Message('note_on', channel=1, note=59, velocity=92, time=2),
    Message('note_on', channel=1, note=59, velocity=0, time=46),
    Message('note_on', channel=1, note=62, velocity=92, time=2),
    Message('note_on', channel=1, note=62, velocity=0, time=46),
    Message('note_on', channel=1, note=55, velocity=92, time=2),
    Message('note_on', channel=1, note=55, velocity=0, time=46),
    Message('note_on', channel=1, note=57, velocity=92, time=2),
    Message('note_on', channel=1, note=57, velocity=0, time=46),
    Message('note_on', channel=1, note=58, velocity=92, time=2),
    Message('note_on', channel=1, note=58, velocity=0, time=46),
    Message('note_on', channel=1, note=59, velocity=92, time=2),
    Message('note_on', channel=1, note=59, velocity=0, time=816),
    MetaMessage('end_of_track', time=0)]),
  MidiTrack([
    MetaMessage('midi_port', port=0, time=0),
    MetaMessage('text', text='Robert (Bass)', time=0),
    MetaMessage('track_name', name='Robert (Bass)', time=0),
    MetaMessage('instrument_name', name='Robert (Bass)', time=0),
    Message('program_change', channel=2, program=35, time=0),
    Message('control_change', channel=2, control=7, value=127, time=0),
    Message('control_change', channel=2, control=10, value=64, time=0),
    Message('note_on', channel=2, note=48, velocity=75, time=0),
    Message('note_on', channel=2, note=48, velocity=0, time=160),
    Message('note_on', channel=2, note=48, velocity=75, time=32),
    Message('note_on', channel=2, note=48, velocity=0, time=142),
    Message('note_on', channel=2, note=48, velocity=75, time=2),
    Message('note_on', channel=2, note=48, velocity=0, time=46),
    Message('note_on', channel=2, note=47, velocity=75, time=50),
    Message('note_on', channel=2, note=47, velocity=0, time=46),
    Message('note_on', channel=2, note=47, velocity=75, time=2),
    Message('note_on', channel=2, note=47, velocity=0, time=94),
    Message('note_on', channel=2, note=47, velocity=75, time=2),
    Message('note_on', channel=2, note=47, velocity=0, time=160),
    Message('note_on', channel=2, note=40, velocity=75, time=32),
    Message('note_on', channel=2, note=40, velocity=0, time=334),
    Message('note_on', channel=2, note=40, velocity=75, time=2),
    Message('note_on', channel=2, note=40, velocity=0, time=46),
    Message('note_on', channel=2, note=40, velocity=75, time=50),
    Message('note_on', channel=2, note=40, velocity=0, time=46),
    Message('note_on', channel=2, note=40, velocity=75, time=2),
    Message('note_on', channel=2, note=40, velocity=0, time=142),
    Message('note_on', channel=2, note=40, velocity=75, time=2),
    Message('note_on', channel=2, note=40, velocity=0, time=46),
    Message('note_on', channel=2, note=45, velocity=75, time=2),
    Message('note_on', channel=2, note=45, velocity=0, time=46),
    Message('note_on', channel=2, note=47, velocity=75, time=2),
    Message('note_on', channel=2, note=47, velocity=0, time=46),
    Message('note_on', channel=2, note=40, velocity=75, time=2),
    Message('note_on', channel=2, note=40, velocity=0, time=334),
    Message('note_on', channel=2, note=40, velocity=75, time=2),
    Message('note_on', channel=2, note=40, velocity=0, time=46),
    Message('note_on', channel=2, note=40, velocity=75, time=50),
    Message('note_on', channel=2, note=40, velocity=0, time=46),
    Message('note_on', channel=2, note=40, velocity=75, time=2),
    Message('note_on', channel=2, note=40, velocity=0, time=142),
    Message('note_on', channel=2, note=40, velocity=75, time=2),
    Message('note_on', channel=2, note=40, velocity=0, time=46),
    Message('note_on', channel=2, note=40, velocity=75, time=2),
    Message('note_on', channel=2, note=40, velocity=0, time=46),
    Message('note_on', channel=2, note=47, velocity=75, time=2),
    Message('note_on', channel=2, note=47, velocity=0, time=46),
    Message('note_on', channel=2, note=48, velocity=75, time=2),
    Message('note_on', channel=2, note=48, velocity=0, time=160),
    Message('note_on', channel=2, note=48, velocity=75, time=32),
    Message('note_on', channel=2, note=48, velocity=0, time=142),
    Message('note_on', channel=2, note=48, velocity=75, time=2),
    Message('note_on', channel=2, note=48, velocity=0, time=46),
    Message('note_on', channel=2, note=47, velocity=75, time=50),
    Message('note_on', channel=2, note=47, velocity=0, time=46),
    Message('note_on', channel=2, note=47, velocity=75, time=2),
    Message('note_on', channel=2, note=47, velocity=0, time=94),
    Message('note_on', channel=2, note=47, velocity=75, time=2),
    Message('note_on', channel=2, note=47, velocity=0, time=160),
    Message('note_on', channel=2, note=40, velocity=75, time=32),
    Message('note_on', channel=2, note=40, velocity=0, time=718),
    Message('note_on', channel=2, note=40, velocity=75, time=50),
    Message('note_on', channel=2, note=40, velocity=0, time=334),
    Message('note_on', channel=2, note=40, velocity=75, time=2),
    Message('note_on', channel=2, note=40, velocity=0, time=46),
    Message('note_on', channel=2, note=40, velocity=75, time=50),
    Message('note_on', channel=2, note=40, velocity=0, time=46),
    Message('note_on', channel=2, note=40, velocity=75, time=2),
    Message('note_on', channel=2, note=40, velocity=0, time=238),
    Message('note_on', channel=2, note=47, velocity=75, time=2),
    Message('note_on', channel=2, note=47, velocity=0, time=46),
    Message('note_on', channel=2, note=48, velocity=75, time=2),
    Message('note_on', channel=2, note=48, velocity=0, time=334),
    Message('note_on', channel=2, note=48, velocity=75, time=2),
    Message('note_on', channel=2, note=48, velocity=0, time=46),
    Message('note_on', channel=2, note=47, velocity=75, time=50),
    Message('note_on', channel=2, note=47, velocity=0, time=46),
    Message('note_on', channel=2, note=47, velocity=75, time=2),
    Message('note_on', channel=2, note=47, velocity=0, time=94),
    Message('note_on', channel=2, note=47, velocity=75, time=2),
    Message('note_on', channel=2, note=47, velocity=0, time=160),
    Message('note_on', channel=2, note=40, velocity=75, time=32),
    Message('note_on', channel=2, note=40, velocity=0, time=334),
    Message('note_on', channel=2, note=40, velocity=75, time=2),
    Message('note_on', channel=2, note=40, velocity=0, time=46),
    Message('note_on', channel=2, note=40, velocity=75, time=50),
    Message('note_on', channel=2, note=40, velocity=0, time=46),
    Message('note_on', channel=2, note=40, velocity=75, time=2),
    Message('note_on', channel=2, note=40, velocity=0, time=238),
    Message('note_on', channel=2, note=47, velocity=75, time=2),
    Message('note_on', channel=2, note=47, velocity=0, time=46),
    Message('note_on', channel=2, note=48, velocity=75, time=2),
    Message('note_on', channel=2, note=48, velocity=0, time=334),
    Message('note_on', channel=2, note=48, velocity=75, time=2),
    Message('note_on', channel=2, note=48, velocity=0, time=46),
    Message('note_on', channel=2, note=47, velocity=75, time=50),
    Message('note_on', channel=2, note=47, velocity=0, time=46),
    Message('note_on', channel=2, note=47, velocity=75, time=2),
    Message('note_on', channel=2, note=47, velocity=0, time=94),
    Message('note_on', channel=2, note=47, velocity=75, time=2),
    Message('note_on', channel=2, note=47, velocity=0, time=160),
    Message('note_on', channel=2, note=40, velocity=75, time=32),
    Message('note_on', channel=2, note=40, velocity=0, time=334),
    Message('note_on', channel=2, note=40, velocity=75, time=2),
    Message('note_on', channel=2, note=40, velocity=0, time=46),
    Message('note_on', channel=2, note=40, velocity=75, time=50),
    Message('note_on', channel=2, note=40, velocity=0, time=46),
    Message('note_on', channel=2, note=40, velocity=75, time=2),
    Message('note_on', channel=2, note=40, velocity=0, time=238),
    Message('note_on', channel=2, note=47, velocity=75, time=2),
    Message('note_on', channel=2, note=47, velocity=0, time=46),
    Message('note_on', channel=2, note=48, velocity=75, time=2),
    Message('note_on', channel=2, note=48, velocity=0, time=334),
    Message('note_on', channel=2, note=48, velocity=75, time=2),
    Message('note_on', channel=2, note=48, velocity=0, time=46),
    Message('note_on', channel=2, note=47, velocity=75, time=50),
    Message('note_on', channel=2, note=47, velocity=0, time=46),
    Message('note_on', channel=2, note=47, velocity=75, time=2),
    Message('note_on', channel=2, note=47, velocity=0, time=94),
    Message('note_on', channel=2, note=47, velocity=75, time=2),
    Message('note_on', channel=2, note=47, velocity=0, time=160),
    Message('note_on', channel=2, note=40, velocity=75, time=32),
    Message('note_on', channel=2, note=40, velocity=0, time=334),
    Message('note_on', channel=2, note=40, velocity=75, time=2),
    Message('note_on', channel=2, note=40, velocity=0, time=46),
    Message('note_on', channel=2, note=40, velocity=75, time=50),
    Message('note_on', channel=2, note=40, velocity=0, time=46),
    Message('note_on', channel=2, note=40, velocity=75, time=2),
    Message('note_on', channel=2, note=40, velocity=0, time=238),
    Message('note_on', channel=2, note=47, velocity=75, time=2),
    Message('note_on', channel=2, note=47, velocity=0, time=46),
    Message('note_on', channel=2, note=48, velocity=75, time=2),
    Message('note_on', channel=2, note=48, velocity=0, time=334),
    Message('note_on', channel=2, note=48, velocity=75, time=2),
    Message('note_on', channel=2, note=48, velocity=0, time=46),
    Message('note_on', channel=2, note=47, velocity=75, time=50),
    Message('note_on', channel=2, note=47, velocity=0, time=46),
    Message('note_on', channel=2, note=47, velocity=75, time=2),
    Message('note_on', channel=2, note=47, velocity=0, time=94),
    Message('note_on', channel=2, note=47, velocity=75, time=2),
    Message('note_on', channel=2, note=47, velocity=0, time=160),
    Message('note_on', channel=2, note=40, velocity=75, time=32),
    Message('note_on', channel=2, note=40, velocity=0, time=334),
    Message('note_on', channel=2, note=40, velocity=75, time=2),
    Message('note_on', channel=2, note=40, velocity=0, time=46),
    Message('note_on', channel=2, note=40, velocity=75, time=50),
    Message('note_on', channel=2, note=40, velocity=0, time=46),
    Message('note_on', channel=2, note=40, velocity=75, time=2),
    Message('note_on', channel=2, note=40, velocity=0, time=142),
    Message('note_on', channel=2, note=40, velocity=75, time=2),
    Message('note_on', channel=2, note=40, velocity=0, time=46),
    Message('note_on', channel=2, note=45, velocity=75, time=2),
    Message('note_on', channel=2, note=45, velocity=0, time=46),
    Message('note_on', channel=2, note=47, velocity=75, time=2),
    Message('note_on', channel=2, note=47, velocity=0, time=46),
    Message('note_on', channel=2, note=40, velocity=75, time=2),
    Message('note_on', channel=2, note=40, velocity=0, time=334),
    Message('note_on', channel=2, note=40, velocity=75, time=2),
    Message('note_on', channel=2, note=40, velocity=0, time=46),
    Message('note_on', channel=2, note=40, velocity=75, time=50),
    Message('note_on', channel=2, note=40, velocity=0, time=46),
    Message('note_on', channel=2, note=40, velocity=75, time=2),
    Message('note_on', channel=2, note=40, velocity=0, time=142),
    Message('note_on', channel=2, note=40, velocity=75, time=2),
    Message('note_on', channel=2, note=40, velocity=0, time=46),
    Message('note_on', channel=2, note=40, velocity=75, time=2),
    Message('note_on', channel=2, note=40, velocity=0, time=46),
    Message('note_on', channel=2, note=42, velocity=75, time=2),
    Message('note_on', channel=2, note=42, velocity=0, time=46),
    Message('note_on', channel=2, note=43, velocity=75, time=2),
    Message('note_on', channel=2, note=43, velocity=0, time=160),
    Message('note_on', channel=2, note=43, velocity=75, time=32),
    Message('note_on', channel=2, note=43, velocity=0, time=142),
    Message('note_on', channel=2, note=43, velocity=75, time=2),
    Message('note_on', channel=2, note=43, velocity=0, time=46),
    Message('note_on', channel=2, note=45, velocity=75, time=50),
    Message('note_on', channel=2, note=45, velocity=0, time=46),
    Message('note_on', channel=2, note=45, velocity=75, time=2),
    Message('note_on', channel=2, note=45, velocity=0, time=94),
    Message('note_on', channel=2, note=45, velocity=75, time=2),
    Message('note_on', channel=2, note=45, velocity=0, time=160),
    Message('note_on', channel=2, note=40, velocity=75, time=32),
    Message('note_on', channel=2, note=40, velocity=0, time=334),
    Message('note_on', channel=2, note=40, velocity=75, time=2),
    Message('note_on', channel=2, note=40, velocity=0, time=46),
    Message('note_on', channel=2, note=40, velocity=75, time=50),
    Message('note_on', channel=2, note=40, velocity=0, time=46),
    Message('note_on', channel=2, note=40, velocity=75, time=2),
    Message('note_on', channel=2, note=40, velocity=0, time=142),
    Message('note_on', channel=2, note=40, velocity=75, time=2),
    Message('note_on', channel=2, note=40, velocity=0, time=46),
    Message('note_on', channel=2, note=40, velocity=75, time=2),
    Message('note_on', channel=2, note=40, velocity=0, time=46),
    Message('note_on', channel=2, note=42, velocity=75, time=2),
    Message('note_on', channel=2, note=42, velocity=0, time=46),
    Message('note_on', channel=2, note=43, velocity=75, time=2),
    Message('note_on', channel=2, note=43, velocity=0, time=160),
    Message('note_on', channel=2, note=43, velocity=75, time=32),
    Message('note_on', channel=2, note=43, velocity=0, time=142),
    Message('note_on', channel=2, note=43, velocity=75, time=2),
    Message('note_on', channel=2, note=43, velocity=0, time=46),
    Message('note_on', channel=2, note=45, velocity=75, time=50),
    Message('note_on', channel=2, note=45, velocity=0, time=46),
    Message('note_on', channel=2, note=45, velocity=75, time=2),
    Message('note_on', channel=2, note=45, velocity=0, time=94),
    Message('note_on', channel=2, note=45, velocity=75, time=2),
    Message('note_on', channel=2, note=45, velocity=0, time=160),
    Message('note_on', channel=2, note=40, velocity=75, time=32),
    Message('note_on', channel=2, note=40, velocity=0, time=334),
    Message('note_on', channel=2, note=40, velocity=75, time=2),
    Message('note_on', channel=2, note=40, velocity=0, time=46),
    Message('note_on', channel=2, note=40, velocity=75, time=50),
    Message('note_on', channel=2, note=40, velocity=0, time=46),
    Message('note_on', channel=2, note=40, velocity=75, time=2),
    Message('note_on', channel=2, note=40, velocity=0, time=142),
    Message('note_on', channel=2, note=40, velocity=75, time=2),
    Message('note_on', channel=2, note=40, velocity=0, time=46),
    Message('note_on', channel=2, note=40, velocity=75, time=2),
    Message('note_on', channel=2, note=40, velocity=0, time=46),
    Message('note_on', channel=2, note=42, velocity=75, time=2),
    Message('note_on', channel=2, note=42, velocity=0, time=46),
    Message('note_on', channel=2, note=43, velocity=75, time=2),
    Message('note_on', channel=2, note=43, velocity=0, time=160),
    Message('note_on', channel=2, note=43, velocity=75, time=32),
    Message('note_on', channel=2, note=43, velocity=0, time=142),
    Message('note_on', channel=2, note=43, velocity=75, time=2),
    Message('note_on', channel=2, note=43, velocity=0, time=46),
    Message('note_on', channel=2, note=45, velocity=75, time=50),
    Message('note_on', channel=2, note=45, velocity=0, time=46),
    Message('note_on', channel=2, note=45, velocity=75, time=2),
    Message('note_on', channel=2, note=45, velocity=0, time=94),
    Message('note_on', channel=2, note=45, velocity=75, time=2),
    Message('note_on', channel=2, note=45, velocity=0, time=160),
    Message('note_on', channel=2, note=48, velocity=75, time=32),
    Message('note_on', channel=2, note=48, velocity=0, time=160),
    Message('note_on', channel=2, note=48, velocity=75, time=32),
    Message('note_on', channel=2, note=48, velocity=0, time=142),
    Message('note_on', channel=2, note=48, velocity=75, time=2),
    Message('note_on', channel=2, note=48, velocity=0, time=46),
    Message('note_on', channel=2, note=50, velocity=75, time=50),
    Message('note_on', channel=2, note=50, velocity=0, time=46),
    Message('note_on', channel=2, note=50, velocity=75, time=2),
    Message('note_on', channel=2, note=50, velocity=0, time=94),
    Message('note_on', channel=2, note=50, velocity=75, time=2),
    Message('note_on', channel=2, note=50, velocity=0, time=160),
    Message('note_on', channel=2, note=40, velocity=92, time=32),
    Message('note_on', channel=2, note=40, velocity=0, time=142),
    Message('note_on', channel=2, note=40, velocity=92, time=2),
    Message('note_on', channel=2, note=40, velocity=0, time=46),
    Message('note_on', channel=2, note=42, velocity=92, time=2),
    Message('note_on', channel=2, note=42, velocity=0, time=142),
    Message('note_on', channel=2, note=42, velocity=92, time=2),
    Message('note_on', channel=2, note=42, velocity=0, time=46),
    Message('note_on', channel=2, note=43, velocity=92, time=2),
    Message('note_on', channel=2, note=43, velocity=0, time=142),
    Message('note_on', channel=2, note=43, velocity=92, time=2),
    Message('note_on', channel=2, note=43, velocity=0, time=46),
    Message('note_on', channel=2, note=45, velocity=92, time=2),
    Message('note_on', channel=2, note=45, velocity=0, time=46),
    Message('note_on', channel=2, note=47, velocity=92, time=2),
    Message('note_on', channel=2, note=47, velocity=0, time=46),
    Message('note_on', channel=2, note=50, velocity=92, time=2),
    Message('note_on', channel=2, note=50, velocity=0, time=46),
    Message('note_on', channel=2, note=52, velocity=92, time=2),
    Message('note_on', channel=2, note=52, velocity=0, time=46),
    Message('note_on', channel=2, note=40, velocity=92, time=2),
    Message('note_on', channel=2, note=40, velocity=0, time=142),
    Message('note_on', channel=2, note=40, velocity=92, time=2),
    Message('note_on', channel=2, note=40, velocity=0, time=46),
    Message('note_on', channel=2, note=42, velocity=92, time=2),
    Message('note_on', channel=2, note=42, velocity=0, time=142),
    Message('note_on', channel=2, note=42, velocity=92, time=2),
    Message('note_on', channel=2, note=42, velocity=0, time=46),
    Message('note_on', channel=2, note=43, velocity=92, time=2),
    Message('note_on', channel=2, note=43, velocity=0, time=142),
    Message('note_on', channel=2, note=43, velocity=92, time=2),
    Message('note_on', channel=2, note=43, velocity=0, time=46),
    Message('note_on', channel=2, note=45, velocity=92, time=2),
    Message('note_on', channel=2, note=45, velocity=0, time=46),
    Message('note_on', channel=2, note=46, velocity=92, time=2),
    Message('note_on', channel=2, note=46, velocity=0, time=46),
    Message('note_on', channel=2, note=47, velocity=92, time=2),
    Message('note_on', channel=2, note=47, velocity=0, time=94),
    Message('note_on', channel=2, note=40, velocity=92, time=2),
    Message('note_on', channel=2, note=40, velocity=0, time=142),
    Message('note_on', channel=2, note=40, velocity=92, time=2),
    Message('note_on', channel=2, note=40, velocity=0, time=46),
    Message('note_on', channel=2, note=42, velocity=92, time=2),
    Message('note_on', channel=2, note=42, velocity=0, time=142),
    Message('note_on', channel=2, note=42, velocity=92, time=2),
    Message('note_on', channel=2, note=42, velocity=0, time=46),
    Message('note_on', channel=2, note=43, velocity=92, time=2),
    Message('note_on', channel=2, note=43, velocity=0, time=142),
    Message('note_on', channel=2, note=43, velocity=92, time=2),
    Message('note_on', channel=2, note=43, velocity=0, time=46),
    Message('note_on', channel=2, note=45, velocity=92, time=2),
    Message('note_on', channel=2, note=45, velocity=0, time=46),
    Message('note_on', channel=2, note=47, velocity=92, time=2),
    Message('note_on', channel=2, note=47, velocity=0, time=46),
    Message('note_on', channel=2, note=50, velocity=92, time=2),
    Message('note_on', channel=2, note=50, velocity=0, time=46),
    Message('note_on', channel=2, note=52, velocity=92, time=2),
    Message('note_on', channel=2, note=52, velocity=0, time=46),
    Message('note_on', channel=2, note=40, velocity=92, time=2),
    Message('note_on', channel=2, note=40, velocity=0, time=142),
    Message('note_on', channel=2, note=40, velocity=92, time=2),
    Message('note_on', channel=2, note=40, velocity=0, time=46),
    Message('note_on', channel=2, note=42, velocity=92, time=2),
    Message('note_on', channel=2, note=42, velocity=0, time=142),
    Message('note_on', channel=2, note=42, velocity=92, time=2),
    Message('note_on', channel=2, note=42, velocity=0, time=46),
    Message('note_on', channel=2, note=43, velocity=92, time=2),
    Message('note_on', channel=2, note=43, velocity=0, time=142),
    Message('note_on', channel=2, note=43, velocity=92, time=2),
    Message('note_on', channel=2, note=43, velocity=0, time=46),
    Message('note_on', channel=2, note=45, velocity=92, time=2),
    Message('note_on', channel=2, note=45, velocity=0, time=46),
    Message('note_on', channel=2, note=46, velocity=92, time=2),
    Message('note_on', channel=2, note=46, velocity=0, time=46),
    Message('note_on', channel=2, note=47, velocity=92, time=2),
    Message('note_on', channel=2, note=47, velocity=0, time=94),
    Message('note_on', channel=2, note=40, velocity=92, time=2),
    Message('note_on', channel=2, note=40, velocity=0, time=142),
    Message('note_on', channel=2, note=40, velocity=92, time=2),
    Message('note_on', channel=2, note=40, velocity=0, time=46),
    Message('note_on', channel=2, note=42, velocity=92, time=2),
    Message('note_on', channel=2, note=42, velocity=0, time=142),
    Message('note_on', channel=2, note=42, velocity=92, time=2),
    Message('note_on', channel=2, note=42, velocity=0, time=46),
    Message('note_on', channel=2, note=43, velocity=92, time=2),
    Message('note_on', channel=2, note=43, velocity=0, time=142),
    Message('note_on', channel=2, note=43, velocity=92, time=2),
    Message('note_on', channel=2, note=43, velocity=0, time=46),
    Message('note_on', channel=2, note=45, velocity=92, time=2),
    Message('note_on', channel=2, note=45, velocity=0, time=46),
    Message('note_on', channel=2, note=47, velocity=92, time=2),
    Message('note_on', channel=2, note=47, velocity=0, time=46),
    Message('note_on', channel=2, note=50, velocity=92, time=2),
    Message('note_on', channel=2, note=50, velocity=0, time=46),
    Message('note_on', channel=2, note=52, velocity=92, time=2),
    Message('note_on', channel=2, note=52, velocity=0, time=46),
    Message('note_on', channel=2, note=40, velocity=92, time=2),
    Message('note_on', channel=2, note=40, velocity=0, time=142),
    Message('note_on', channel=2, note=40, velocity=92, time=2),
    Message('note_on', channel=2, note=40, velocity=0, time=46),
    Message('note_on', channel=2, note=42, velocity=92, time=2),
    Message('note_on', channel=2, note=42, velocity=0, time=142),
    Message('note_on', channel=2, note=42, velocity=92, time=2),
    Message('note_on', channel=2, note=42, velocity=0, time=46),
    Message('note_on', channel=2, note=43, velocity=92, time=2),
    Message('note_on', channel=2, note=43, velocity=0, time=142),
    Message('note_on', channel=2, note=43, velocity=92, time=2),
    Message('note_on', channel=2, note=43, velocity=0, time=46),
    Message('note_on', channel=2, note=45, velocity=92, time=2),
    Message('note_on', channel=2, note=45, velocity=0, time=46),
    Message('note_on', channel=2, note=46, velocity=92, time=2),
    Message('note_on', channel=2, note=46, velocity=0, time=46),
    Message('note_on', channel=2, note=47, velocity=92, time=2),
    Message('note_on', channel=2, note=47, velocity=0, time=94),
    Message('note_on', channel=2, note=40, velocity=92, time=2),
    Message('note_on', channel=2, note=40, velocity=0, time=142),
    Message('note_on', channel=2, note=40, velocity=92, time=2),
    Message('note_on', channel=2, note=40, velocity=0, time=46),
    Message('note_on', channel=2, note=42, velocity=92, time=2),
    Message('note_on', channel=2, note=42, velocity=0, time=142),
    Message('note_on', channel=2, note=42, velocity=92, time=2),
    Message('note_on', channel=2, note=42, velocity=0, time=46),
    Message('note_on', channel=2, note=43, velocity=92, time=2),
    Message('note_on', channel=2, note=43, velocity=0, time=142),
    Message('note_on', channel=2, note=43, velocity=92, time=2),
    Message('note_on', channel=2, note=43, velocity=0, time=46),
    Message('note_on', channel=2, note=45, velocity=92, time=2),
    Message('note_on', channel=2, note=45, velocity=0, time=46),
    Message('note_on', channel=2, note=47, velocity=92, time=2),
    Message('note_on', channel=2, note=47, velocity=0, time=46),
    Message('note_on', channel=2, note=50, velocity=92, time=2),
    Message('note_on', channel=2, note=50, velocity=0, time=46),
    Message('note_on', channel=2, note=52, velocity=92, time=2),
    Message('note_on', channel=2, note=52, velocity=0, time=46),
    Message('note_on', channel=2, note=40, velocity=92, time=2),
    Message('note_on', channel=2, note=40, velocity=0, time=142),
    Message('note_on', channel=2, note=40, velocity=92, time=2),
    Message('note_on', channel=2, note=40, velocity=0, time=46),
    Message('note_on', channel=2, note=42, velocity=92, time=2),
    Message('note_on', channel=2, note=42, velocity=0, time=142),
    Message('note_on', channel=2, note=42, velocity=92, time=2),
    Message('note_on', channel=2, note=42, velocity=0, time=46),
    Message('note_on', channel=2, note=43, velocity=92, time=2),
    Message('note_on', channel=2, note=43, velocity=0, time=142),
    Message('note_on', channel=2, note=43, velocity=92, time=2),
    Message('note_on', channel=2, note=43, velocity=0, time=46),
    Message('note_on', channel=2, note=45, velocity=92, time=2),
    Message('note_on', channel=2, note=45, velocity=0, time=46),
    Message('note_on', channel=2, note=46, velocity=92, time=2),
    Message('note_on', channel=2, note=46, velocity=0, time=46),
    Message('note_on', channel=2, note=47, velocity=92, time=2),
    Message('note_on', channel=2, note=47, velocity=0, time=94),
    Message('note_on', channel=2, note=40, velocity=75, time=2),
    Message('note_on', channel=2, note=40, velocity=0, time=718),
    Message('note_on', channel=2, note=40, velocity=75, time=50),
    Message('note_on', channel=2, note=40, velocity=0, time=718),
    Message('note_on', channel=2, note=40, velocity=75, time=50),
    Message('note_on', channel=2, note=40, velocity=0, time=334),
    Message('note_on', channel=2, note=40, velocity=75, time=2),
    Message('note_on', channel=2, note=40, velocity=0, time=46),
    Message('note_on', channel=2, note=40, velocity=75, time=50),
    Message('note_on', channel=2, note=40, velocity=0, time=46),
    Message('note_on', channel=2, note=40, velocity=75, time=2),
    Message('note_on', channel=2, note=40, velocity=0, time=238),
    Message('note_on', channel=2, note=47, velocity=75, time=2),
    Message('note_on', channel=2, note=47, velocity=0, time=46),
    Message('note_on', channel=2, note=48, velocity=75, time=2),
    Message('note_on', channel=2, note=48, velocity=0, time=334),
    Message('note_on', channel=2, note=48, velocity=75, time=2),
    Message('note_on', channel=2, note=48, velocity=0, time=46),
    Message('note_on', channel=2, note=47, velocity=75, time=50),
    Message('note_on', channel=2, note=47, velocity=0, time=46),
    Message('note_on', channel=2, note=47, velocity=75, time=2),
    Message('note_on', channel=2, note=47, velocity=0, time=94),
    Message('note_on', channel=2, note=47, velocity=75, time=2),
    Message('note_on', channel=2, note=47, velocity=0, time=160),
    Message('note_on', channel=2, note=40, velocity=75, time=32),
    Message('note_on', channel=2, note=40, velocity=0, time=334),
    Message('note_on', channel=2, note=40, velocity=75, time=2),
    Message('note_on', channel=2, note=40, velocity=0, time=46),
    Message('note_on', channel=2, note=40, velocity=75, time=50),
    Message('note_on', channel=2, note=40, velocity=0, time=46),
    Message('note_on', channel=2, note=40, velocity=75, time=2),
    Message('note_on', channel=2, note=40, velocity=0, time=238),
    Message('note_on', channel=2, note=47, velocity=75, time=2),
    Message('note_on', channel=2, note=47, velocity=0, time=46),
    Message('note_on', channel=2, note=48, velocity=75, time=2),
    Message('note_on', channel=2, note=48, velocity=0, time=334),
    Message('note_on', channel=2, note=48, velocity=75, time=2),
    Message('note_on', channel=2, note=48, velocity=0, time=46),
    Message('note_on', channel=2, note=47, velocity=75, time=50),
    Message('note_on', channel=2, note=47, velocity=0, time=46),
    Message('note_on', channel=2, note=47, velocity=75, time=2),
    Message('note_on', channel=2, note=47, velocity=0, time=94),
    Message('note_on', channel=2, note=47, velocity=75, time=2),
    Message('note_on', channel=2, note=47, velocity=0, time=160),
    Message('note_on', channel=2, note=40, velocity=75, time=32),
    Message('note_on', channel=2, note=40, velocity=0, time=334),
    Message('note_on', channel=2, note=40, velocity=75, time=2),
    Message('note_on', channel=2, note=40, velocity=0, time=46),
    Message('note_on', channel=2, note=40, velocity=75, time=50),
    Message('note_on', channel=2, note=40, velocity=0, time=46),
    Message('note_on', channel=2, note=40, velocity=75, time=2),
    Message('note_on', channel=2, note=40, velocity=0, time=238),
    Message('note_on', channel=2, note=47, velocity=75, time=2),
    Message('note_on', channel=2, note=47, velocity=0, time=46),
    Message('note_on', channel=2, note=48, velocity=75, time=2),
    Message('note_on', channel=2, note=48, velocity=0, time=334),
    Message('note_on', channel=2, note=48, velocity=75, time=2),
    Message('note_on', channel=2, note=48, velocity=0, time=46),
    Message('note_on', channel=2, note=47, velocity=75, time=50),
    Message('note_on', channel=2, note=47, velocity=0, time=46),
    Message('note_on', channel=2, note=47, velocity=75, time=2),
    Message('note_on', channel=2, note=47, velocity=0, time=94),
    Message('note_on', channel=2, note=47, velocity=75, time=2),
    Message('note_on', channel=2, note=47, velocity=0, time=160),
    Message('note_on', channel=2, note=40, velocity=75, time=32),
    Message('note_on', channel=2, note=40, velocity=0, time=334),
    Message('note_on', channel=2, note=40, velocity=75, time=2),
    Message('note_on', channel=2, note=40, velocity=0, time=46),
    Message('note_on', channel=2, note=40, velocity=75, time=50),
    Message('note_on', channel=2, note=40, velocity=0, time=46),
    Message('note_on', channel=2, note=40, velocity=75, time=2),
    Message('note_on', channel=2, note=40, velocity=0, time=238),
    Message('note_on', channel=2, note=47, velocity=75, time=2),
    Message('note_on', channel=2, note=47, velocity=0, time=46),
    Message('note_on', channel=2, note=48, velocity=75, time=2),
    Message('note_on', channel=2, note=48, velocity=0, time=334),
    Message('note_on', channel=2, note=48, velocity=75, time=2),
    Message('note_on', channel=2, note=48, velocity=0, time=46),
    Message('note_on', channel=2, note=47, velocity=75, time=50),
    Message('note_on', channel=2, note=47, velocity=0, time=46),
    Message('note_on', channel=2, note=47, velocity=75, time=2),
    Message('note_on', channel=2, note=47, velocity=0, time=94),
    Message('note_on', channel=2, note=47, velocity=75, time=2),
    Message('note_on', channel=2, note=47, velocity=0, time=160),
    Message('note_on', channel=2, note=40, velocity=75, time=32),
    Message('note_on', channel=2, note=40, velocity=0, time=334),
    Message('note_on', channel=2, note=40, velocity=75, time=2),
    Message('note_on', channel=2, note=40, velocity=0, time=46),
    Message('note_on', channel=2, note=40, velocity=75, time=50),
    Message('note_on', channel=2, note=40, velocity=0, time=46),
    Message('note_on', channel=2, note=40, velocity=75, time=2),
    Message('note_on', channel=2, note=40, velocity=0, time=142),
    Message('note_on', channel=2, note=40, velocity=75, time=2),
    Message('note_on', channel=2, note=40, velocity=0, time=46),
    Message('note_on', channel=2, note=45, velocity=75, time=2),
    Message('note_on', channel=2, note=45, velocity=0, time=46),
    Message('note_on', channel=2, note=47, velocity=75, time=2),
    Message('note_on', channel=2, note=47, velocity=0, time=46),
    Message('note_on', channel=2, note=40, velocity=75, time=2),
    Message('note_on', channel=2, note=40, velocity=0, time=334),
    Message('note_on', channel=2, note=40, velocity=75, time=2),
    Message('note_on', channel=2, note=40, velocity=0, time=46),
    Message('note_on', channel=2, note=40, velocity=75, time=50),
    Message('note_on', channel=2, note=40, velocity=0, time=46),
    Message('note_on', channel=2, note=40, velocity=75, time=2),
    Message('note_on', channel=2, note=40, velocity=0, time=142),
    Message('note_on', channel=2, note=40, velocity=75, time=2),
    Message('note_on', channel=2, note=40, velocity=0, time=46),
    Message('note_on', channel=2, note=40, velocity=75, time=2),
    Message('note_on', channel=2, note=40, velocity=0, time=46),
    Message('note_on', channel=2, note=42, velocity=75, time=2),
    Message('note_on', channel=2, note=42, velocity=0, time=46),
    Message('note_on', channel=2, note=43, velocity=75, time=2),
    Message('note_on', channel=2, note=43, velocity=0, time=160),
    Message('note_on', channel=2, note=43, velocity=75, time=32),
    Message('note_on', channel=2, note=43, velocity=0, time=142),
    Message('note_on', channel=2, note=43, velocity=75, time=2),
    Message('note_on', channel=2, note=43, velocity=0, time=46),
    Message('note_on', channel=2, note=45, velocity=75, time=50),
    Message('note_on', channel=2, note=45, velocity=0, time=46),
    Message('note_on', channel=2, note=45, velocity=75, time=2),
    Message('note_on', channel=2, note=45, velocity=0, time=94),
    Message('note_on', channel=2, note=45, velocity=75, time=2),
    Message('note_on', channel=2, note=45, velocity=0, time=160),
    Message('note_on', channel=2, note=40, velocity=75, time=32),
    Message('note_on', channel=2, note=40, velocity=0, time=334),
    Message('note_on', channel=2, note=40, velocity=75, time=2),
    Message('note_on', channel=2, note=40, velocity=0, time=46),
    Message('note_on', channel=2, note=40, velocity=75, time=50),
    Message('note_on', channel=2, note=40, velocity=0, time=46),
    Message('note_on', channel=2, note=40, velocity=75, time=2),
    Message('note_on', channel=2, note=40, velocity=0, time=142),
    Message('note_on', channel=2, note=40, velocity=75, time=2),
    Message('note_on', channel=2, note=40, velocity=0, time=46),
    Message('note_on', channel=2, note=40, velocity=75, time=2),
    Message('note_on', channel=2, note=40, velocity=0, time=46),
    Message('note_on', channel=2, note=42, velocity=75, time=2),
    Message('note_on', channel=2, note=42, velocity=0, time=46),
    Message('note_on', channel=2, note=43, velocity=75, time=2),
    Message('note_on', channel=2, note=43, velocity=0, time=160),
    Message('note_on', channel=2, note=43, velocity=75, time=32),
    Message('note_on', channel=2, note=43, velocity=0, time=142),
    Message('note_on', channel=2, note=43, velocity=75, time=2),
    Message('note_on', channel=2, note=43, velocity=0, time=46),
    Message('note_on', channel=2, note=45, velocity=75, time=50),
    Message('note_on', channel=2, note=45, velocity=0, time=46),
    Message('note_on', channel=2, note=45, velocity=75, time=2),
    Message('note_on', channel=2, note=45, velocity=0, time=94),
    Message('note_on', channel=2, note=45, velocity=75, time=2),
    Message('note_on', channel=2, note=45, velocity=0, time=160),
    Message('note_on', channel=2, note=40, velocity=75, time=32),
    Message('note_on', channel=2, note=40, velocity=0, time=334),
    Message('note_on', channel=2, note=40, velocity=75, time=2),
    Message('note_on', channel=2, note=40, velocity=0, time=46),
    Message('note_on', channel=2, note=40, velocity=75, time=50),
    Message('note_on', channel=2, note=40, velocity=0, time=46),
    Message('note_on', channel=2, note=40, velocity=75, time=2),
    Message('note_on', channel=2, note=40, velocity=0, time=142),
    Message('note_on', channel=2, note=40, velocity=75, time=2),
    Message('note_on', channel=2, note=40, velocity=0, time=46),
    Message('note_on', channel=2, note=40, velocity=75, time=2),
    Message('note_on', channel=2, note=40, velocity=0, time=46),
    Message('note_on', channel=2, note=42, velocity=75, time=2),
    Message('note_on', channel=2, note=42, velocity=0, time=46),
    Message('note_on', channel=2, note=43, velocity=75, time=2),
    Message('note_on', channel=2, note=43, velocity=0, time=160),
    Message('note_on', channel=2, note=43, velocity=75, time=32),
    Message('note_on', channel=2, note=43, velocity=0, time=142),
    Message('note_on', channel=2, note=43, velocity=75, time=2),
    Message('note_on', channel=2, note=43, velocity=0, time=46),
    Message('note_on', channel=2, note=45, velocity=75, time=50),
    Message('note_on', channel=2, note=45, velocity=0, time=46),
    Message('note_on', channel=2, note=45, velocity=75, time=2),
    Message('note_on', channel=2, note=45, velocity=0, time=94),
    Message('note_on', channel=2, note=45, velocity=75, time=2),
    Message('note_on', channel=2, note=45, velocity=0, time=160),
    Message('note_on', channel=2, note=48, velocity=75, time=32),
    Message('note_on', channel=2, note=48, velocity=0, time=160),
    Message('note_on', channel=2, note=48, velocity=75, time=32),
    Message('note_on', channel=2, note=48, velocity=0, time=142),
    Message('note_on', channel=2, note=48, velocity=75, time=2),
    Message('note_on', channel=2, note=48, velocity=0, time=46),
    Message('note_on', channel=2, note=50, velocity=75, time=50),
    Message('note_on', channel=2, note=50, velocity=0, time=46),
    Message('note_on', channel=2, note=50, velocity=75, time=2),
    Message('note_on', channel=2, note=50, velocity=0, time=94),
    Message('note_on', channel=2, note=50, velocity=75, time=2),
    Message('note_on', channel=2, note=50, velocity=0, time=160),
    Message('note_on', channel=2, note=40, velocity=75, time=32),
    Message('note_on', channel=2, note=40, velocity=0, time=142),
    Message('note_on', channel=2, note=40, velocity=75, time=2),
    Message('note_on', channel=2, note=40, velocity=0, time=46),
    Message('note_on', channel=2, note=42, velocity=75, time=2),
    Message('note_on', channel=2, note=42, velocity=0, time=142),
    Message('note_on', channel=2, note=42, velocity=75, time=2),
    Message('note_on', channel=2, note=42, velocity=0, time=46),
    Message('note_on', channel=2, note=43, velocity=75, time=2),
    Message('note_on', channel=2, note=43, velocity=0, time=142),
    Message('note_on', channel=2, note=43, velocity=75, time=2),
    Message('note_on', channel=2, note=43, velocity=0, time=46),
    Message('note_on', channel=2, note=45, velocity=75, time=2),
    Message('note_on', channel=2, note=45, velocity=0, time=46),
    Message('note_on', channel=2, note=47, velocity=75, time=2),
    Message('note_on', channel=2, note=47, velocity=0, time=46),
    Message('note_on', channel=2, note=50, velocity=75, time=2),
    Message('note_on', channel=2, note=50, velocity=0, time=46),
    Message('note_on', channel=2, note=52, velocity=75, time=2),
    Message('note_on', channel=2, note=52, velocity=0, time=46),
    Message('note_on', channel=2, note=40, velocity=75, time=2),
    Message('note_on', channel=2, note=40, velocity=0, time=142),
    Message('note_on', channel=2, note=40, velocity=75, time=2),
    Message('note_on', channel=2, note=40, velocity=0, time=46),
    Message('note_on', channel=2, note=42, velocity=75, time=2),
    Message('note_on', channel=2, note=42, velocity=0, time=142),
    Message('note_on', channel=2, note=42, velocity=75, time=2),
    Message('note_on', channel=2, note=42, velocity=0, time=46),
    Message('note_on', channel=2, note=43, velocity=75, time=2),
    Message('note_on', channel=2, note=43, velocity=0, time=142),
    Message('note_on', channel=2, note=43, velocity=75, time=2),
    Message('note_on', channel=2, note=43, velocity=0, time=46),
    Message('note_on', channel=2, note=45, velocity=75, time=2),
    Message('note_on', channel=2, note=45, velocity=0, time=46),
    Message('note_on', channel=2, note=46, velocity=75, time=2),
    Message('note_on', channel=2, note=46, velocity=0, time=46),
    Message('note_on', channel=2, note=47, velocity=75, time=2),
    Message('note_on', channel=2, note=47, velocity=0, time=94),
    Message('note_on', channel=2, note=40, velocity=75, time=2),
    Message('note_on', channel=2, note=40, velocity=0, time=142),
    Message('note_on', channel=2, note=40, velocity=75, time=2),
    Message('note_on', channel=2, note=40, velocity=0, time=46),
    Message('note_on', channel=2, note=42, velocity=75, time=2),
    Message('note_on', channel=2, note=42, velocity=0, time=142),
    Message('note_on', channel=2, note=42, velocity=75, time=2),
    Message('note_on', channel=2, note=42, velocity=0, time=46),
    Message('note_on', channel=2, note=43, velocity=75, time=2),
    Message('note_on', channel=2, note=43, velocity=0, time=142),
    Message('note_on', channel=2, note=43, velocity=75, time=2),
    Message('note_on', channel=2, note=43, velocity=0, time=46),
    Message('note_on', channel=2, note=45, velocity=75, time=2),
    Message('note_on', channel=2, note=45, velocity=0, time=46),
    Message('note_on', channel=2, note=47, velocity=75, time=2),
    Message('note_on', channel=2, note=47, velocity=0, time=46),
    Message('note_on', channel=2, note=50, velocity=75, time=2),
    Message('note_on', channel=2, note=50, velocity=0, time=46),
    Message('note_on', channel=2, note=52, velocity=75, time=2),
    Message('note_on', channel=2, note=52, velocity=0, time=46),
    Message('note_on', channel=2, note=40, velocity=75, time=2),
    Message('note_on', channel=2, note=40, velocity=0, time=142),
    Message('note_on', channel=2, note=40, velocity=75, time=2),
    Message('note_on', channel=2, note=40, velocity=0, time=46),
    Message('note_on', channel=2, note=42, velocity=75, time=2),
    Message('note_on', channel=2, note=42, velocity=0, time=142),
    Message('note_on', channel=2, note=42, velocity=75, time=2),
    Message('note_on', channel=2, note=42, velocity=0, time=46),
    Message('note_on', channel=2, note=43, velocity=75, time=2),
    Message('note_on', channel=2, note=43, velocity=0, time=142),
    Message('note_on', channel=2, note=43, velocity=75, time=2),
    Message('note_on', channel=2, note=43, velocity=0, time=46),
    Message('note_on', channel=2, note=45, velocity=75, time=2),
    Message('note_on', channel=2, note=45, velocity=0, time=46),
    Message('note_on', channel=2, note=46, velocity=75, time=2),
    Message('note_on', channel=2, note=46, velocity=0, time=46),
    Message('note_on', channel=2, note=47, velocity=75, time=2),
    Message('note_on', channel=2, note=47, velocity=0, time=94),
    Message('note_on', channel=2, note=40, velocity=75, time=2),
    Message('note_on', channel=2, note=40, velocity=0, time=142),
    Message('note_on', channel=2, note=40, velocity=75, time=2),
    Message('note_on', channel=2, note=40, velocity=0, time=46),
    Message('note_on', channel=2, note=42, velocity=75, time=2),
    Message('note_on', channel=2, note=42, velocity=0, time=142),
    Message('note_on', channel=2, note=42, velocity=75, time=2),
    Message('note_on', channel=2, note=42, velocity=0, time=46),
    Message('note_on', channel=2, note=43, velocity=75, time=2),
    Message('note_on', channel=2, note=43, velocity=0, time=142),
    Message('note_on', channel=2, note=43, velocity=75, time=2),
    Message('note_on', channel=2, note=43, velocity=0, time=46),
    Message('note_on', channel=2, note=45, velocity=75, time=2),
    Message('note_on', channel=2, note=45, velocity=0, time=46),
    Message('note_on', channel=2, note=47, velocity=75, time=2),
    Message('note_on', channel=2, note=47, velocity=0, time=46),
    Message('note_on', channel=2, note=50, velocity=75, time=2),
    Message('note_on', channel=2, note=50, velocity=0, time=46),
    Message('note_on', channel=2, note=52, velocity=75, time=2),
    Message('note_on', channel=2, note=52, velocity=0, time=46),
    Message('note_on', channel=2, note=40, velocity=75, time=2),
    Message('note_on', channel=2, note=40, velocity=0, time=142),
    Message('note_on', channel=2, note=40, velocity=75, time=2),
    Message('note_on', channel=2, note=40, velocity=0, time=46),
    Message('note_on', channel=2, note=42, velocity=75, time=2),
    Message('note_on', channel=2, note=42, velocity=0, time=142),
    Message('note_on', channel=2, note=42, velocity=75, time=2),
    Message('note_on', channel=2, note=42, velocity=0, time=46),
    Message('note_on', channel=2, note=43, velocity=75, time=2),
    Message('note_on', channel=2, note=43, velocity=0, time=142),
    Message('note_on', channel=2, note=43, velocity=75, time=2),
    Message('note_on', channel=2, note=43, velocity=0, time=46),
    Message('note_on', channel=2, note=45, velocity=75, time=2),
    Message('note_on', channel=2, note=45, velocity=0, time=46),
    Message('note_on', channel=2, note=46, velocity=75, time=2),
    Message('note_on', channel=2, note=46, velocity=0, time=46),
    Message('note_on', channel=2, note=47, velocity=75, time=2),
    Message('note_on', channel=2, note=47, velocity=0, time=94),
    Message('note_on', channel=2, note=40, velocity=75, time=2),
    Message('note_on', channel=2, note=40, velocity=0, time=142),
    Message('note_on', channel=2, note=40, velocity=75, time=2),
    Message('note_on', channel=2, note=40, velocity=0, time=46),
    Message('note_on', channel=2, note=42, velocity=75, time=2),
    Message('note_on', channel=2, note=42, velocity=0, time=142),
    Message('note_on', channel=2, note=42, velocity=75, time=2),
    Message('note_on', channel=2, note=42, velocity=0, time=46),
    Message('note_on', channel=2, note=43, velocity=75, time=2),
    Message('note_on', channel=2, note=43, velocity=0, time=142),
    Message('note_on', channel=2, note=43, velocity=75, time=2),
    Message('note_on', channel=2, note=43, velocity=0, time=46),
    Message('note_on', channel=2, note=45, velocity=75, time=2),
    Message('note_on', channel=2, note=45, velocity=0, time=46),
    Message('note_on', channel=2, note=47, velocity=75, time=2),
    Message('note_on', channel=2, note=47, velocity=0, time=46),
    Message('note_on', channel=2, note=50, velocity=75, time=2),
    Message('note_on', channel=2, note=50, velocity=0, time=46),
    Message('note_on', channel=2, note=52, velocity=75, time=2),
    Message('note_on', channel=2, note=52, velocity=0, time=46),
    Message('note_on', channel=2, note=40, velocity=75, time=2),
    Message('note_on', channel=2, note=40, velocity=0, time=142),
    Message('note_on', channel=2, note=40, velocity=75, time=2),
    Message('note_on', channel=2, note=40, velocity=0, time=46),
    Message('note_on', channel=2, note=42, velocity=75, time=2),
    Message('note_on', channel=2, note=42, velocity=0, time=142),
    Message('note_on', channel=2, note=42, velocity=75, time=2),
    Message('note_on', channel=2, note=42, velocity=0, time=46),
    Message('note_on', channel=2, note=43, velocity=75, time=2),
    Message('note_on', channel=2, note=43, velocity=0, time=142),
    Message('note_on', channel=2, note=43, velocity=75, time=2),
    Message('note_on', channel=2, note=43, velocity=0, time=46),
    Message('note_on', channel=2, note=45, velocity=75, time=2),
    Message('note_on', channel=2, note=45, velocity=0, time=46),
    Message('note_on', channel=2, note=46, velocity=75, time=2),
    Message('note_on', channel=2, note=46, velocity=0, time=46),
    Message('note_on', channel=2, note=47, velocity=75, time=2),
    Message('note_on', channel=2, note=47, velocity=0, time=94),
    Message('note_on', channel=2, note=40, velocity=75, time=2),
    Message('note_on', channel=2, note=40, velocity=0, time=718),
    Message('note_on', channel=2, note=40, velocity=75, time=50),
    Message('note_on', channel=2, note=40, velocity=0, time=718),
    Message('note_on', channel=2, note=40, velocity=75, time=50),
    Message('note_on', channel=2, note=40, velocity=0, time=718),
    Message('note_on', channel=2, note=40, velocity=75, time=50),
    Message('note_on', channel=2, note=40, velocity=0, time=718),
    Message('note_on', channel=2, note=43, velocity=75, time=50),
    Message('note_on', channel=2, note=43, velocity=0, time=160),
    Message('note_on', channel=2, note=43, velocity=75, time=32),
    Message('note_on', channel=2, note=43, velocity=0, time=142),
    Message('note_on', channel=2, note=43, velocity=75, time=2),
    Message('note_on', channel=2, note=43, velocity=0, time=46),
    Message('note_on', channel=2, note=45, velocity=75, time=50),
    Message('note_on', channel=2, note=45, velocity=0, time=46),
    Message('note_on', channel=2, note=45, velocity=75, time=2),
    Message('note_on', channel=2, note=45, velocity=0, time=94),
    Message('note_on', channel=2, note=45, velocity=75, time=2),
    Message('note_on', channel=2, note=45, velocity=0, time=160),
    Message('note_on', channel=2, note=40, velocity=75, time=32),
    Message('note_on', channel=2, note=40, velocity=0, time=334),
    Message('note_on', channel=2, note=40, velocity=75, time=2),
    Message('note_on', channel=2, note=40, velocity=0, time=46),
    Message('note_on', channel=2, note=40, velocity=75, time=50),
    Message('note_on', channel=2, note=40, velocity=0, time=46),
    Message('note_on', channel=2, note=40, velocity=75, time=2),
    Message('note_on', channel=2, note=40, velocity=0, time=142),
    Message('note_on', channel=2, note=40, velocity=75, time=2),
    Message('note_on', channel=2, note=40, velocity=0, time=46),
    Message('note_on', channel=2, note=40, velocity=75, time=2),
    Message('note_on', channel=2, note=40, velocity=0, time=46),
    Message('note_on', channel=2, note=42, velocity=75, time=2),
    Message('note_on', channel=2, note=42, velocity=0, time=46),
    Message('note_on', channel=2, note=43, velocity=75, time=2),
    Message('note_on', channel=2, note=43, velocity=0, time=160),
    Message('note_on', channel=2, note=43, velocity=75, time=32),
    Message('note_on', channel=2, note=43, velocity=0, time=142),
    Message('note_on', channel=2, note=43, velocity=75, time=2),
    Message('note_on', channel=2, note=43, velocity=0, time=46),
    Message('note_on', channel=2, note=45, velocity=75, time=50),
    Message('note_on', channel=2, note=45, velocity=0, time=46),
    Message('note_on', channel=2, note=45, velocity=75, time=2),
    Message('note_on', channel=2, note=45, velocity=0, time=94),
    Message('note_on', channel=2, note=45, velocity=75, time=2),
    Message('note_on', channel=2, note=45, velocity=0, time=160),
    Message('note_on', channel=2, note=40, velocity=75, time=32),
    Message('note_on', channel=2, note=40, velocity=0, time=334),
    Message('note_on', channel=2, note=40, velocity=75, time=2),
    Message('note_on', channel=2, note=40, velocity=0, time=46),
    Message('note_on', channel=2, note=40, velocity=75, time=50),
    Message('note_on', channel=2, note=40, velocity=0, time=46),
    Message('note_on', channel=2, note=40, velocity=75, time=2),
    Message('note_on', channel=2, note=40, velocity=0, time=142),
    Message('note_on', channel=2, note=40, velocity=75, time=2),
    Message('note_on', channel=2, note=40, velocity=0, time=46),
    Message('note_on', channel=2, note=40, velocity=75, time=2),
    Message('note_on', channel=2, note=40, velocity=0, time=46),
    Message('note_on', channel=2, note=42, velocity=75, time=2),
    Message('note_on', channel=2, note=42, velocity=0, time=46),
    Message('note_on', channel=2, note=43, velocity=75, time=2),
    Message('note_on', channel=2, note=43, velocity=0, time=160),
    Message('note_on', channel=2, note=43, velocity=75, time=32),
    Message('note_on', channel=2, note=43, velocity=0, time=142),
    Message('note_on', channel=2, note=43, velocity=75, time=2),
    Message('note_on', channel=2, note=43, velocity=0, time=46),
    Message('note_on', channel=2, note=45, velocity=75, time=50),
    Message('note_on', channel=2, note=45, velocity=0, time=46),
    Message('note_on', channel=2, note=45, velocity=75, time=2),
    Message('note_on', channel=2, note=45, velocity=0, time=94),
    Message('note_on', channel=2, note=45, velocity=75, time=2),
    Message('note_on', channel=2, note=45, velocity=0, time=160),
    Message('note_on', channel=2, note=48, velocity=75, time=32),
    Message('note_on', channel=2, note=48, velocity=0, time=160),
    Message('note_on', channel=2, note=48, velocity=75, time=32),
    Message('note_on', channel=2, note=48, velocity=0, time=142),
    Message('note_on', channel=2, note=48, velocity=75, time=2),
    Message('note_on', channel=2, note=48, velocity=0, time=46),
    Message('note_on', channel=2, note=50, velocity=75, time=50),
    Message('note_on', channel=2, note=50, velocity=0, time=46),
    Message('note_on', channel=2, note=50, velocity=75, time=2),
    Message('note_on', channel=2, note=50, velocity=0, time=94),
    Message('note_on', channel=2, note=50, velocity=75, time=2),
    Message('note_on', channel=2, note=50, velocity=0, time=160),
    Message('note_on', channel=2, note=40, velocity=75, time=32),
    Message('note_on', channel=2, note=40, velocity=0, time=142),
    Message('note_on', channel=2, note=40, velocity=75, time=2),
    Message('note_on', channel=2, note=40, velocity=0, time=46),
    Message('note_on', channel=2, note=42, velocity=75, time=2),
    Message('note_on', channel=2, note=42, velocity=0, time=142),
    Message('note_on', channel=2, note=42, velocity=75, time=2),
    Message('note_on', channel=2, note=42, velocity=0, time=46),
    Message('note_on', channel=2, note=43, velocity=75, time=2),
    Message('note_on', channel=2, note=43, velocity=0, time=142),
    Message('note_on', channel=2, note=43, velocity=75, time=2),
    Message('note_on', channel=2, note=43, velocity=0, time=46),
    Message('note_on', channel=2, note=45, velocity=75, time=2),
    Message('note_on', channel=2, note=45, velocity=0, time=46),
    Message('note_on', channel=2, note=47, velocity=75, time=2),
    Message('note_on', channel=2, note=47, velocity=0, time=46),
    Message('note_on', channel=2, note=50, velocity=75, time=2),
    Message('note_on', channel=2, note=50, velocity=0, time=46),
    Message('note_on', channel=2, note=52, velocity=75, time=2),
    Message('note_on', channel=2, note=52, velocity=0, time=46),
    Message('note_on', channel=2, note=40, velocity=75, time=2),
    Message('note_on', channel=2, note=40, velocity=0, time=142),
    Message('note_on', channel=2, note=40, velocity=75, time=2),
    Message('note_on', channel=2, note=40, velocity=0, time=46),
    Message('note_on', channel=2, note=42, velocity=75, time=2),
    Message('note_on', channel=2, note=42, velocity=0, time=142),
    Message('note_on', channel=2, note=42, velocity=75, time=2),
    Message('note_on', channel=2, note=42, velocity=0, time=46),
    Message('note_on', channel=2, note=43, velocity=75, time=2),
    Message('note_on', channel=2, note=43, velocity=0, time=142),
    Message('note_on', channel=2, note=43, velocity=75, time=2),
    Message('note_on', channel=2, note=43, velocity=0, time=46),
    Message('note_on', channel=2, note=45, velocity=75, time=2),
    Message('note_on', channel=2, note=45, velocity=0, time=46),
    Message('note_on', channel=2, note=46, velocity=75, time=2),
    Message('note_on', channel=2, note=46, velocity=0, time=46),
    Message('note_on', channel=2, note=47, velocity=75, time=2),
    Message('note_on', channel=2, note=47, velocity=0, time=94),
    Message('note_on', channel=2, note=40, velocity=75, time=2),
    Message('note_on', channel=2, note=40, velocity=0, time=142),
    Message('note_on', channel=2, note=40, velocity=75, time=2),
    Message('note_on', channel=2, note=40, velocity=0, time=46),
    Message('note_on', channel=2, note=42, velocity=75, time=2),
    Message('note_on', channel=2, note=42, velocity=0, time=142),
    Message('note_on', channel=2, note=42, velocity=75, time=2),
    Message('note_on', channel=2, note=42, velocity=0, time=46),
    Message('note_on', channel=2, note=43, velocity=75, time=2),
    Message('note_on', channel=2, note=43, velocity=0, time=142),
    Message('note_on', channel=2, note=43, velocity=75, time=2),
    Message('note_on', channel=2, note=43, velocity=0, time=46),
    Message('note_on', channel=2, note=45, velocity=75, time=2),
    Message('note_on', channel=2, note=45, velocity=0, time=46),
    Message('note_on', channel=2, note=47, velocity=75, time=2),
    Message('note_on', channel=2, note=47, velocity=0, time=46),
    Message('note_on', channel=2, note=50, velocity=75, time=2),
    Message('note_on', channel=2, note=50, velocity=0, time=46),
    Message('note_on', channel=2, note=52, velocity=75, time=2),
    Message('note_on', channel=2, note=52, velocity=0, time=46),
    Message('note_on', channel=2, note=40, velocity=75, time=2),
    Message('note_on', channel=2, note=40, velocity=0, time=142),
    Message('note_on', channel=2, note=40, velocity=75, time=2),
    Message('note_on', channel=2, note=40, velocity=0, time=46),
    Message('note_on', channel=2, note=42, velocity=75, time=2),
    Message('note_on', channel=2, note=42, velocity=0, time=142),
    Message('note_on', channel=2, note=42, velocity=75, time=2),
    Message('note_on', channel=2, note=42, velocity=0, time=46),
    Message('note_on', channel=2, note=43, velocity=75, time=2),
    Message('note_on', channel=2, note=43, velocity=0, time=142),
    Message('note_on', channel=2, note=43, velocity=75, time=2),
    Message('note_on', channel=2, note=43, velocity=0, time=46),
    Message('note_on', channel=2, note=45, velocity=75, time=2),
    Message('note_on', channel=2, note=45, velocity=0, time=46),
    Message('note_on', channel=2, note=46, velocity=75, time=2),
    Message('note_on', channel=2, note=46, velocity=0, time=46),
    Message('note_on', channel=2, note=47, velocity=75, time=2),
    Message('note_on', channel=2, note=47, velocity=0, time=94),
    Message('note_on', channel=2, note=40, velocity=75, time=2),
    Message('note_on', channel=2, note=40, velocity=0, time=142),
    Message('note_on', channel=2, note=40, velocity=75, time=2),
    Message('note_on', channel=2, note=40, velocity=0, time=46),
    Message('note_on', channel=2, note=42, velocity=75, time=2),
    Message('note_on', channel=2, note=42, velocity=0, time=142),
    Message('note_on', channel=2, note=42, velocity=75, time=2),
    Message('note_on', channel=2, note=42, velocity=0, time=46),
    Message('note_on', channel=2, note=43, velocity=75, time=2),
    Message('note_on', channel=2, note=43, velocity=0, time=142),
    Message('note_on', channel=2, note=43, velocity=75, time=2),
    Message('note_on', channel=2, note=43, velocity=0, time=46),
    Message('note_on', channel=2, note=45, velocity=75, time=2),
    Message('note_on', channel=2, note=45, velocity=0, time=46),
    Message('note_on', channel=2, note=47, velocity=75, time=2),
    Message('note_on', channel=2, note=47, velocity=0, time=46),
    Message('note_on', channel=2, note=50, velocity=75, time=2),
    Message('note_on', channel=2, note=50, velocity=0, time=46),
    Message('note_on', channel=2, note=52, velocity=75, time=2),
    Message('note_on', channel=2, note=52, velocity=0, time=46),
    Message('note_on', channel=2, note=40, velocity=75, time=2),
    Message('note_on', channel=2, note=40, velocity=0, time=142),
    Message('note_on', channel=2, note=40, velocity=75, time=2),
    Message('note_on', channel=2, note=40, velocity=0, time=46),
    Message('note_on', channel=2, note=42, velocity=75, time=2),
    Message('note_on', channel=2, note=42, velocity=0, time=142),
    Message('note_on', channel=2, note=42, velocity=75, time=2),
    Message('note_on', channel=2, note=42, velocity=0, time=46),
    Message('note_on', channel=2, note=43, velocity=75, time=2),
    Message('note_on', channel=2, note=43, velocity=0, time=142),
    Message('note_on', channel=2, note=43, velocity=75, time=2),
    Message('note_on', channel=2, note=43, velocity=0, time=46),
    Message('note_on', channel=2, note=45, velocity=75, time=2),
    Message('note_on', channel=2, note=45, velocity=0, time=46),
    Message('note_on', channel=2, note=46, velocity=75, time=2),
    Message('note_on', channel=2, note=46, velocity=0, time=46),
    Message('note_on', channel=2, note=47, velocity=75, time=2),
    Message('note_on', channel=2, note=47, velocity=0, time=94),
    Message('note_on', channel=2, note=40, velocity=75, time=2),
    Message('note_on', channel=2, note=40, velocity=0, time=142),
    Message('note_on', channel=2, note=40, velocity=75, time=2),
    Message('note_on', channel=2, note=40, velocity=0, time=46),
    Message('note_on', channel=2, note=42, velocity=75, time=2),
    Message('note_on', channel=2, note=42, velocity=0, time=142),
    Message('note_on', channel=2, note=42, velocity=75, time=2),
    Message('note_on', channel=2, note=42, velocity=0, time=46),
    Message('note_on', channel=2, note=43, velocity=75, time=2),
    Message('note_on', channel=2, note=43, velocity=0, time=142),
    Message('note_on', channel=2, note=43, velocity=75, time=2),
    Message('note_on', channel=2, note=43, velocity=0, time=46),
    Message('note_on', channel=2, note=45, velocity=75, time=2),
    Message('note_on', channel=2, note=45, velocity=0, time=46),
    Message('note_on', channel=2, note=47, velocity=75, time=2),
    Message('note_on', channel=2, note=47, velocity=0, time=46),
    Message('note_on', channel=2, note=50, velocity=75, time=2),
    Message('note_on', channel=2, note=50, velocity=0, time=46),
    Message('note_on', channel=2, note=52, velocity=75, time=2),
    Message('note_on', channel=2, note=52, velocity=0, time=46),
    Message('note_on', channel=2, note=40, velocity=75, time=2),
    Message('note_on', channel=2, note=40, velocity=0, time=142),
    Message('note_on', channel=2, note=40, velocity=75, time=2),
    Message('note_on', channel=2, note=40, velocity=0, time=46),
    Message('note_on', channel=2, note=42, velocity=75, time=2),
    Message('note_on', channel=2, note=42, velocity=0, time=142),
    Message('note_on', channel=2, note=42, velocity=75, time=2),
    Message('note_on', channel=2, note=42, velocity=0, time=46),
    Message('note_on', channel=2, note=43, velocity=75, time=2),
    Message('note_on', channel=2, note=43, velocity=0, time=142),
    Message('note_on', channel=2, note=43, velocity=75, time=2),
    Message('note_on', channel=2, note=43, velocity=0, time=46),
    Message('note_on', channel=2, note=45, velocity=75, time=2),
    Message('note_on', channel=2, note=45, velocity=0, time=46),
    Message('note_on', channel=2, note=46, velocity=75, time=2),
    Message('note_on', channel=2, note=46, velocity=0, time=46),
    Message('note_on', channel=2, note=47, velocity=75, time=2),
    Message('note_on', channel=2, note=47, velocity=0, time=816),
    MetaMessage('end_of_track', time=0)]),
  MidiTrack([
    MetaMessage('midi_port', port=0, time=0),
    MetaMessage('text', text='Weiland (Lead Vox)', time=0),
    MetaMessage('track_name', name='Weiland (Lead Vox)', time=0),
    MetaMessage('instrument_name', name='Weiland (Lead Vox)', time=0),
    Message('program_change', channel=3, program=48, time=0),
    Message('control_change', channel=3, control=7, value=127, time=0),
    Message('control_change', channel=3, control=10, value=64, time=0),
    Message('note_on', channel=3, note=64, velocity=75, time=4176),
    Message('note_on', channel=3, note=64, velocity=0, time=142),
    Message('note_on', channel=3, note=66, velocity=75, time=2),
    Message('note_on', channel=3, note=66, velocity=0, time=94),
    Message('note_on', channel=3, note=67, velocity=75, time=2),
    Message('note_on', channel=3, note=67, velocity=0, time=94),
    Message('note_on', channel=3, note=74, velocity=75, time=2),
    Message('note_on', channel=3, note=74, velocity=0, time=46),
    Message('note_on', channel=3, note=69, velocity=75, time=2),
    Message('note_on', channel=3, note=69, velocity=0, time=46),
    Message('note_on', channel=3, note=71, velocity=75, time=2),
    Message('note_on', channel=3, note=71, velocity=0, time=160),
    Message('note_on', channel=3, note=69, velocity=75, time=176),
    Message('note_on', channel=3, note=69, velocity=0, time=46),
    Message('note_on', channel=3, note=71, velocity=75, time=2),
    Message('note_on', channel=3, note=71, velocity=0, time=94),
    Message('note_on', channel=3, note=69, velocity=75, time=2),
    Message('note_on', channel=3, note=69, velocity=0, time=46),
    Message('note_on', channel=3, note=67, velocity=75, time=2),
    Message('note_on', channel=3, note=67, velocity=0, time=142),
    Message('note_on', channel=3, note=71, velocity=75, time=2),
    Message('note_on', channel=3, note=71, velocity=0, time=46),
    Message('note_on', channel=3, note=67, velocity=75, time=2),
    Message('note_on', channel=3, note=67, velocity=0, time=46),
    Message('note_on', channel=3, note=64, velocity=75, time=2),
    Message('note_on', channel=3, note=64, velocity=0, time=160),
    Message('note_on', channel=3, note=62, velocity=75, time=176),
    Message('note_on', channel=3, note=62, velocity=0, time=46),
    Message('note_on', channel=3, note=64, velocity=75, time=2),
    Message('note_on', channel=3, note=64, velocity=0, time=94),
    Message('note_on', channel=3, note=66, velocity=75, time=2),
    Message('note_on', channel=3, note=66, velocity=0, time=94),
    Message('note_on', channel=3, note=67, velocity=75, time=2),
    Message('note_on', channel=3, note=67, velocity=0, time=94),
    Message('note_on', channel=3, note=64, velocity=75, time=2),
    Message('note_on', channel=3, note=64, velocity=0, time=46),
    Message('note_on', channel=3, note=71, velocity=75, time=2),
    Message('note_on', channel=3, note=71, velocity=0, time=46),
    Message('note_on', channel=3, note=72, velocity=75, time=2),
    Message('note_on', channel=3, note=72, velocity=0, time=160),
    Message('note_on', channel=3, note=69, velocity=75, time=176),
    Message('note_on', channel=3, note=69, velocity=0, time=46),
    Message('note_on', channel=3, note=71, velocity=75, time=2),
    Message('note_on', channel=3, note=71, velocity=0, time=94),
    Message('note_on', channel=3, note=69, velocity=75, time=2),
    Message('note_on', channel=3, note=69, velocity=0, time=46),
    Message('note_on', channel=3, note=67, velocity=75, time=2),
    Message('note_on', channel=3, note=67, velocity=0, time=142),
    Message('note_on', channel=3, note=69, velocity=75, time=2),
    Message('note_on', channel=3, note=69, velocity=0, time=46),
    Message('note_on', channel=3, note=67, velocity=75, time=2),
    Message('note_on', channel=3, note=67, velocity=0, time=46),
    Message('note_on', channel=3, note=64, velocity=75, time=2),
    Message('note_on', channel=3, note=64, velocity=0, time=160),
    Message('note_on', channel=3, note=62, velocity=75, time=176),
    Message('note_on', channel=3, note=62, velocity=0, time=46),
    Message('note_on', channel=3, note=64, velocity=75, time=2),
    Message('note_on', channel=3, note=64, velocity=0, time=94),
    Message('note_on', channel=3, note=66, velocity=75, time=2),
    Message('note_on', channel=3, note=66, velocity=0, time=94),
    Message('note_on', channel=3, note=67, velocity=75, time=2),
    Message('note_on', channel=3, note=67, velocity=0, time=94),
    Message('note_on', channel=3, note=64, velocity=75, time=2),
    Message('note_on', channel=3, note=64, velocity=0, time=46),
    Message('note_on', channel=3, note=71, velocity=75, time=2),
    Message('note_on', channel=3, note=71, velocity=0, time=46),
    Message('note_on', channel=3, note=72, velocity=75, time=2),
    Message('note_on', channel=3, note=72, velocity=0, time=94),
    Message('note_on', channel=3, note=76, velocity=75, time=98),
    Message('note_on', channel=3, note=76, velocity=0, time=94),
    Message('note_on', channel=3, note=74, velocity=75, time=2),
    Message('note_on', channel=3, note=74, velocity=0, time=46),
    Message('note_on', channel=3, note=70, velocity=75, time=2),
    Message('note_on', channel=3, note=70, velocity=0, time=46),
    Message('note_on', channel=3, note=71, velocity=75, time=2),
    Message('note_on', channel=3, note=71, velocity=0, time=94),
    Message('note_on', channel=3, note=69, velocity=75, time=2),
    Message('note_on', channel=3, note=69, velocity=0, time=46),
    Message('note_on', channel=3, note=67, velocity=75, time=2),
    Message('note_on', channel=3, note=67, velocity=0, time=142),
    Message('note_on', channel=3, note=66, velocity=75, time=2),
    Message('note_on', channel=3, note=66, velocity=0, time=46),
    Message('note_on', channel=3, note=67, velocity=75, time=2),
    Message('note_on', channel=3, note=67, velocity=0, time=46),
    Message('note_on', channel=3, note=64, velocity=75, time=2),
    Message('note_on', channel=3, note=64, velocity=0, time=160),
    Message('note_on', channel=3, note=64, velocity=75, time=224),
    Message('note_on', channel=3, note=64, velocity=0, time=94),
    Message('note_on', channel=3, note=66, velocity=75, time=2),
    Message('note_on', channel=3, note=66, velocity=0, time=94),
    Message('note_on', channel=3, note=67, velocity=75, time=2),
    Message('note_on', channel=3, note=67, velocity=0, time=94),
    Message('note_on', channel=3, note=64, velocity=75, time=2),
    Message('note_on', channel=3, note=64, velocity=0, time=46),
    Message('note_on', channel=3, note=71, velocity=75, time=2),
    Message('note_on', channel=3, note=71, velocity=0, time=46),
    Message('note_on', channel=3, note=72, velocity=75, time=2),
    Message('note_on', channel=3, note=72, velocity=0, time=94),
    Message('note_on', channel=3, note=76, velocity=75, time=98),
    Message('note_on', channel=3, note=76, velocity=0, time=94),
    Message('note_on', channel=3, note=74, velocity=75, time=2),
    Message('note_on', channel=3, note=74, velocity=0, time=46),
    Message('note_on', channel=3, note=70, velocity=75, time=2),
    Message('note_on', channel=3, note=70, velocity=0, time=46),
    Message('note_on', channel=3, note=71, velocity=75, time=2),
    Message('note_on', channel=3, note=71, velocity=0, time=94),
    Message('note_on', channel=3, note=69, velocity=75, time=2),
    Message('note_on', channel=3, note=69, velocity=0, time=46),
    Message('note_on', channel=3, note=67, velocity=75, time=2),
    Message('note_on', channel=3, note=67, velocity=0, time=142),
    Message('note_on', channel=3, note=66, velocity=75, time=2),
    Message('note_on', channel=3, note=66, velocity=0, time=46),
    Message('note_on', channel=3, note=67, velocity=75, time=2),
    Message('note_on', channel=3, note=67, velocity=0, time=46),
    Message('note_on', channel=3, note=64, velocity=75, time=2),
    Message('note_on', channel=3, note=64, velocity=0, time=160),
    Message('note_on', channel=3, note=71, velocity=75, time=1376),
    Message('note_on', channel=3, note=74, velocity=75, time=0),
    Message('note_on', channel=3, note=71, velocity=0, time=94),
    Message('note_on', channel=3, note=74, velocity=0, time=0),
    Message('note_on', channel=3, note=71, velocity=75, time=2),
    Message('note_on', channel=3, note=74, velocity=75, time=0),
    Message('note_on', channel=3, note=71, velocity=0, time=190),
    Message('note_on', channel=3, note=74, velocity=0, time=0),
    Message('note_on', channel=3, note=69, velocity=75, time=2),
    Message('note_on', channel=3, note=72, velocity=75, time=0),
    Message('note_on', channel=3, note=69, velocity=0, time=46),
    Message('note_on', channel=3, note=72, velocity=0, time=0),
    Message('note_on', channel=3, note=67, velocity=75, time=2),
    Message('note_on', channel=3, note=71, velocity=75, time=0),
    Message('note_on', channel=3, note=67, velocity=0, time=46),
    Message('note_on', channel=3, note=71, velocity=0, time=0),
    Message('note_on', channel=3, note=69, velocity=75, time=2),
    Message('note_on', channel=3, note=72, velocity=75, time=0),
    Message('note_on', channel=3, note=69, velocity=0, time=46),
    Message('note_on', channel=3, note=72, velocity=0, time=0),
    Message('note_on', channel=3, note=67, velocity=75, time=2),
    Message('note_on', channel=3, note=71, velocity=75, time=0),
    Message('note_on', channel=3, note=67, velocity=0, time=46),
    Message('note_on', channel=3, note=71, velocity=0, time=0),
    Message('note_on', channel=3, note=71, velocity=75, time=2),
    Message('note_on', channel=3, note=74, velocity=75, time=0),
    Message('note_on', channel=3, note=71, velocity=0, time=46),
    Message('note_on', channel=3, note=74, velocity=0, time=0),
    Message('note_on', channel=3, note=69, velocity=75, time=2),
    Message('note_on', channel=3, note=72, velocity=75, time=0),
    Message('note_on', channel=3, note=69, velocity=0, time=142),
    Message('note_on', channel=3, note=72, velocity=0, time=0),
    Message('note_on', channel=3, note=71, velocity=75, time=2),
    Message('note_on', channel=3, note=74, velocity=75, time=0),
    Message('note_on', channel=3, note=71, velocity=0, time=46),
    Message('note_on', channel=3, note=74, velocity=0, time=0),
    Message('note_on', channel=3, note=74, velocity=75, time=2),
    Message('note_on', channel=3, note=78, velocity=75, time=0),
    Message('note_on', channel=3, note=74, velocity=0, time=46),
    Message('note_on', channel=3, note=78, velocity=0, time=0),
    Message('note_on', channel=3, note=76, velocity=75, time=2),
    Message('note_on', channel=3, note=79, velocity=75, time=0),
    Message('note_on', channel=3, note=76, velocity=0, time=94),
    Message('note_on', channel=3, note=79, velocity=0, time=0),
    Message('note_on', channel=3, note=76, velocity=75, time=2),
    Message('note_on', channel=3, note=79, velocity=75, time=0),
    Message('note_on', channel=3, note=76, velocity=0, time=46),
    Message('note_on', channel=3, note=79, velocity=0, time=0),
    Message('note_on', channel=3, note=71, velocity=75, time=2),
    Message('note_on', channel=3, note=74, velocity=75, time=0),
    Message('note_on', channel=3, note=71, velocity=0, time=46),
    Message('note_on', channel=3, note=74, velocity=0, time=0),
    Message('note_on', channel=3, note=69, velocity=75, time=2),
    Message('note_on', channel=3, note=72, velocity=75, time=0),
    Message('note_on', channel=3, note=69, velocity=0, time=94),
    Message('note_on', channel=3, note=72, velocity=0, time=0),
    Message('note_on', channel=3, note=71, velocity=75, time=482),
    Message('note_on', channel=3, note=74, velocity=75, time=0),
    Message('note_on', channel=3, note=71, velocity=0, time=94),
    Message('note_on', channel=3, note=74, velocity=0, time=0),
    Message('note_on', channel=3, note=71, velocity=75, time=2),
    Message('note_on', channel=3, note=74, velocity=75, time=0),
    Message('note_on', channel=3, note=71, velocity=0, time=190),
    Message('note_on', channel=3, note=74, velocity=0, time=0),
    Message('note_on', channel=3, note=69, velocity=75, time=2),
    Message('note_on', channel=3, note=72, velocity=75, time=0),
    Message('note_on', channel=3, note=69, velocity=0, time=46),
    Message('note_on', channel=3, note=72, velocity=0, time=0),
    Message('note_on', channel=3, note=67, velocity=75, time=2),
    Message('note_on', channel=3, note=71, velocity=75, time=0),
    Message('note_on', channel=3, note=67, velocity=0, time=46),
    Message('note_on', channel=3, note=71, velocity=0, time=0),
    Message('note_on', channel=3, note=69, velocity=75, time=2),
    Message('note_on', channel=3, note=72, velocity=75, time=0),
    Message('note_on', channel=3, note=69, velocity=0, time=46),
    Message('note_on', channel=3, note=72, velocity=0, time=0),
    Message('note_on', channel=3, note=67, velocity=75, time=2),
    Message('note_on', channel=3, note=71, velocity=75, time=0),
    Message('note_on', channel=3, note=67, velocity=0, time=46),
    Message('note_on', channel=3, note=71, velocity=0, time=0),
    Message('note_on', channel=3, note=71, velocity=75, time=2),
    Message('note_on', channel=3, note=74, velocity=75, time=0),
    Message('note_on', channel=3, note=71, velocity=0, time=46),
    Message('note_on', channel=3, note=74, velocity=0, time=0),
    Message('note_on', channel=3, note=69, velocity=75, time=2),
    Message('note_on', channel=3, note=72, velocity=75, time=0),
    Message('note_on', channel=3, note=69, velocity=0, time=142),
    Message('note_on', channel=3, note=72, velocity=0, time=0),
    Message('note_on', channel=3, note=71, velocity=75, time=2),
    Message('note_on', channel=3, note=74, velocity=75, time=0),
    Message('note_on', channel=3, note=71, velocity=0, time=46),
    Message('note_on', channel=3, note=74, velocity=0, time=0),
    Message('note_on', channel=3, note=74, velocity=75, time=2),
    Message('note_on', channel=3, note=78, velocity=75, time=0),
    Message('note_on', channel=3, note=74, velocity=0, time=46),
    Message('note_on', channel=3, note=78, velocity=0, time=0),
    Message('note_on', channel=3, note=76, velocity=75, time=2),
    Message('note_on', channel=3, note=79, velocity=75, time=0),
    Message('note_on', channel=3, note=76, velocity=0, time=94),
    Message('note_on', channel=3, note=79, velocity=0, time=0),
    Message('note_on', channel=3, note=76, velocity=75, time=2),
    Message('note_on', channel=3, note=79, velocity=75, time=0),
    Message('note_on', channel=3, note=76, velocity=0, time=46),
    Message('note_on', channel=3, note=79, velocity=0, time=0),
    Message('note_on', channel=3, note=71, velocity=75, time=2),
    Message('note_on', channel=3, note=74, velocity=75, time=0),
    Message('note_on', channel=3, note=71, velocity=0, time=46),
    Message('note_on', channel=3, note=74, velocity=0, time=0),
    Message('note_on', channel=3, note=69, velocity=75, time=2),
    Message('note_on', channel=3, note=72, velocity=75, time=0),
    Message('note_on', channel=3, note=69, velocity=0, time=94),
    Message('note_on', channel=3, note=72, velocity=0, time=0),
    Message('note_on', channel=3, note=71, velocity=75, time=482),
    Message('note_on', channel=3, note=74, velocity=75, time=0),
    Message('note_on', channel=3, note=71, velocity=0, time=94),
    Message('note_on', channel=3, note=74, velocity=0, time=0),
    Message('note_on', channel=3, note=71, velocity=75, time=2),
    Message('note_on', channel=3, note=74, velocity=75, time=0),
    Message('note_on', channel=3, note=71, velocity=0, time=190),
    Message('note_on', channel=3, note=74, velocity=0, time=0),
    Message('note_on', channel=3, note=69, velocity=75, time=2),
    Message('note_on', channel=3, note=72, velocity=75, time=0),
    Message('note_on', channel=3, note=69, velocity=0, time=46),
    Message('note_on', channel=3, note=72, velocity=0, time=0),
    Message('note_on', channel=3, note=67, velocity=75, time=2),
    Message('note_on', channel=3, note=71, velocity=75, time=0),
    Message('note_on', channel=3, note=67, velocity=0, time=46),
    Message('note_on', channel=3, note=71, velocity=0, time=0),
    Message('note_on', channel=3, note=69, velocity=75, time=2),
    Message('note_on', channel=3, note=72, velocity=75, time=0),
    Message('note_on', channel=3, note=69, velocity=0, time=46),
    Message('note_on', channel=3, note=72, velocity=0, time=0),
    Message('note_on', channel=3, note=67, velocity=75, time=2),
    Message('note_on', channel=3, note=71, velocity=75, time=0),
    Message('note_on', channel=3, note=67, velocity=0, time=46),
    Message('note_on', channel=3, note=71, velocity=0, time=0),
    Message('note_on', channel=3, note=71, velocity=75, time=2),
    Message('note_on', channel=3, note=74, velocity=75, time=0),
    Message('note_on', channel=3, note=71, velocity=0, time=46),
    Message('note_on', channel=3, note=74, velocity=0, time=0),
    Message('note_on', channel=3, note=69, velocity=75, time=2),
    Message('note_on', channel=3, note=72, velocity=75, time=0),
    Message('note_on', channel=3, note=69, velocity=0, time=142),
    Message('note_on', channel=3, note=72, velocity=0, time=0),
    Message('note_on', channel=3, note=71, velocity=75, time=2),
    Message('note_on', channel=3, note=74, velocity=75, time=0),
    Message('note_on', channel=3, note=71, velocity=0, time=46),
    Message('note_on', channel=3, note=74, velocity=0, time=0),
    Message('note_on', channel=3, note=74, velocity=75, time=2),
    Message('note_on', channel=3, note=78, velocity=75, time=0),
    Message('note_on', channel=3, note=74, velocity=0, time=46),
    Message('note_on', channel=3, note=78, velocity=0, time=0),
    Message('note_on', channel=3, note=76, velocity=75, time=2),
    Message('note_on', channel=3, note=79, velocity=75, time=0),
    Message('note_on', channel=3, note=76, velocity=0, time=94),
    Message('note_on', channel=3, note=79, velocity=0, time=0),
    Message('note_on', channel=3, note=76, velocity=75, time=2),
    Message('note_on', channel=3, note=79, velocity=75, time=0),
    Message('note_on', channel=3, note=76, velocity=0, time=46),
    Message('note_on', channel=3, note=79, velocity=0, time=0),
    Message('note_on', channel=3, note=71, velocity=75, time=2),
    Message('note_on', channel=3, note=74, velocity=75, time=0),
    Message('note_on', channel=3, note=71, velocity=0, time=46),
    Message('note_on', channel=3, note=74, velocity=0, time=0),
    Message('note_on', channel=3, note=69, velocity=75, time=2),
    Message('note_on', channel=3, note=72, velocity=75, time=0),
    Message('note_on', channel=3, note=69, velocity=0, time=142),
    Message('note_on', channel=3, note=72, velocity=0, time=0),
    Message('note_on', channel=3, note=67, velocity=75, time=2),
    Message('note_on', channel=3, note=71, velocity=75, time=0),
    Message('note_on', channel=3, note=67, velocity=0, time=46),
    Message('note_on', channel=3, note=71, velocity=0, time=0),
    Message('note_on', channel=3, note=76, velocity=75, time=2),
    Message('note_on', channel=3, note=79, velocity=75, time=0),
    Message('note_on', channel=3, note=76, velocity=0, time=94),
    Message('note_on', channel=3, note=79, velocity=0, time=0),
    Message('note_on', channel=3, note=74, velocity=75, time=2),
    Message('note_on', channel=3, note=78, velocity=75, time=0),
    Message('note_on', channel=3, note=74, velocity=0, time=46),
    Message('note_on', channel=3, note=78, velocity=0, time=0),
    Message('note_on', channel=3, note=71, velocity=75, time=2),
    Message('note_on', channel=3, note=74, velocity=75, time=0),
    Message('note_on', channel=3, note=71, velocity=0, time=46),
    Message('note_on', channel=3, note=74, velocity=0, time=0),
    Message('note_on', channel=3, note=69, velocity=75, time=2),
    Message('note_on', channel=3, note=72, velocity=75, time=0),
    Message('note_on', channel=3, note=69, velocity=0, time=94),
    Message('note_on', channel=3, note=72, velocity=0, time=0),
    Message('note_on', channel=3, note=74, velocity=75, time=2),
    Message('note_on', channel=3, note=74, velocity=0, time=94),
    Message('note_on', channel=3, note=76, velocity=92, time=2),
    Message('note_on', channel=3, note=76, velocity=0, time=94),
    Message('note_on', channel=3, note=74, velocity=92, time=2),
    Message('note_on', channel=3, note=74, velocity=0, time=46),
    Message('note_on', channel=3, note=71, velocity=92, time=2),
    Message('note_on', channel=3, note=71, velocity=0, time=142),
    Message('note_on', channel=3, note=69, velocity=92, time=2),
    Message('note_on', channel=3, note=69, velocity=0, time=46),
    Message('note_on', channel=3, note=71, velocity=92, time=2),
    Message('note_on', channel=3, note=71, velocity=0, time=142),
    Message('note_on', channel=3, note=74, velocity=92, time=2),
    Message('note_on', channel=3, note=74, velocity=0, time=46),
    Message('note_on', channel=3, note=74, velocity=92, time=2),
    Message('note_on', channel=3, note=74, velocity=0, time=46),
    Message('note_on', channel=3, note=71, velocity=92, time=2),
    Message('note_on', channel=3, note=71, velocity=0, time=94),
    Message('note_on', channel=3, note=71, velocity=92, time=722),
    Message('note_on', channel=3, note=71, velocity=0, time=46),
    Message('note_on', channel=3, note=74, velocity=92, time=2),
    Message('note_on', channel=3, note=74, velocity=0, time=94),
    Message('note_on', channel=3, note=76, velocity=92, time=2),
    Message('note_on', channel=3, note=76, velocity=0, time=94),
    Message('note_on', channel=3, note=74, velocity=92, time=2),
    Message('note_on', channel=3, note=74, velocity=0, time=46),
    Message('note_on', channel=3, note=71, velocity=92, time=2),
    Message('note_on', channel=3, note=71, velocity=0, time=142),
    Message('note_on', channel=3, note=69, velocity=92, time=2),
    Message('note_on', channel=3, note=69, velocity=0, time=46),
    Message('note_on', channel=3, note=71, velocity=92, time=2),
    Message('note_on', channel=3, note=71, velocity=0, time=142),
    Message('note_on', channel=3, note=74, velocity=92, time=2),
    Message('note_on', channel=3, note=74, velocity=0, time=46),
    Message('note_on', channel=3, note=74, velocity=92, time=2),
    Message('note_on', channel=3, note=74, velocity=0, time=46),
    Message('note_on', channel=3, note=71, velocity=92, time=2),
    Message('note_on', channel=3, note=71, velocity=0, time=94),
    Message('note_on', channel=3, note=71, velocity=92, time=722),
    Message('note_on', channel=3, note=71, velocity=0, time=46),
    Message('note_on', channel=3, note=74, velocity=92, time=2),
    Message('note_on', channel=3, note=74, velocity=0, time=94),
    Message('note_on', channel=3, note=76, velocity=92, time=2),
    Message('note_on', channel=3, note=76, velocity=0, time=94),
    Message('note_on', channel=3, note=74, velocity=92, time=2),
    Message('note_on', channel=3, note=74, velocity=0, time=46),
    Message('note_on', channel=3, note=71, velocity=92, time=2),
    Message('note_on', channel=3, note=71, velocity=0, time=142),
    Message('note_on', channel=3, note=69, velocity=92, time=2),
    Message('note_on', channel=3, note=69, velocity=0, time=46),
    Message('note_on', channel=3, note=71, velocity=92, time=2),
    Message('note_on', channel=3, note=71, velocity=0, time=142),
    Message('note_on', channel=3, note=74, velocity=92, time=2),
    Message('note_on', channel=3, note=74, velocity=0, time=46),
    Message('note_on', channel=3, note=74, velocity=92, time=2),
    Message('note_on', channel=3, note=74, velocity=0, time=46),
    Message('note_on', channel=3, note=71, velocity=92, time=2),
    Message('note_on', channel=3, note=71, velocity=0, time=94),
    Message('note_on', channel=3, note=71, velocity=92, time=722),
    Message('note_on', channel=3, note=71, velocity=0, time=46),
    Message('note_on', channel=3, note=74, velocity=92, time=2),
    Message('note_on', channel=3, note=74, velocity=0, time=94),
    Message('note_on', channel=3, note=76, velocity=92, time=2),
    Message('note_on', channel=3, note=76, velocity=0, time=94),
    Message('note_on', channel=3, note=74, velocity=92, time=2),
    Message('note_on', channel=3, note=74, velocity=0, time=46),
    Message('note_on', channel=3, note=71, velocity=92, time=2),
    Message('note_on', channel=3, note=71, velocity=0, time=142),
    Message('note_on', channel=3, note=69, velocity=92, time=2),
    Message('note_on', channel=3, note=69, velocity=0, time=46),
    Message('note_on', channel=3, note=71, velocity=92, time=2),
    Message('note_on', channel=3, note=71, velocity=0, time=142),
    Message('note_on', channel=3, note=74, velocity=92, time=2),
    Message('note_on', channel=3, note=74, velocity=0, time=46),
    Message('note_on', channel=3, note=74, velocity=92, time=2),
    Message('note_on', channel=3, note=74, velocity=0, time=46),
    Message('note_on', channel=3, note=71, velocity=92, time=2),
    Message('note_on', channel=3, note=71, velocity=0, time=94),
    Message('note_on', channel=3, note=76, velocity=92, time=98),
    Message('note_on', channel=3, note=76, velocity=0, time=94),
    Message('note_on', channel=3, note=74, velocity=92, time=2),
    Message('note_on', channel=3, note=74, velocity=0, time=46),
    Message('note_on', channel=3, note=71, velocity=92, time=2),
    Message('note_on', channel=3, note=71, velocity=0, time=142),
    Message('note_on', channel=3, note=69, velocity=92, time=2),
    Message('note_on', channel=3, note=69, velocity=0, time=46),
    Message('note_on', channel=3, note=71, velocity=92, time=2),
    Message('note_on', channel=3, note=71, velocity=0, time=142),
    Message('note_on', channel=3, note=74, velocity=92, time=2),
    Message('note_on', channel=3, note=74, velocity=0, time=46),
    Message('note_on', channel=3, note=74, velocity=92, time=2),
    Message('note_on', channel=3, note=74, velocity=0, time=46),
    Message('note_on', channel=3, note=71, velocity=92, time=2),
    Message('note_on', channel=3, note=71, velocity=0, time=94),
    Message('note_on', channel=3, note=64, velocity=92, time=1970),
    Message('note_on', channel=3, note=64, velocity=0, time=142),
    Message('note_on', channel=3, note=66, velocity=92, time=2),
    Message('note_on', channel=3, note=66, velocity=0, time=94),
    Message('note_on', channel=3, note=67, velocity=92, time=2),
    Message('note_on', channel=3, note=67, velocity=0, time=94),
    Message('note_on', channel=3, note=74, velocity=92, time=2),
    Message('note_on', channel=3, note=74, velocity=0, time=46),
    Message('note_on', channel=3, note=69, velocity=92, time=2),
    Message('note_on', channel=3, note=69, velocity=0, time=46),
    Message('note_on', channel=3, note=71, velocity=92, time=2),
    Message('note_on', channel=3, note=71, velocity=0, time=160),
    Message('note_on', channel=3, note=69, velocity=92, time=176),
    Message('note_on', channel=3, note=69, velocity=0, time=46),
    Message('note_on', channel=3, note=71, velocity=92, time=2),
    Message('note_on', channel=3, note=71, velocity=0, time=94),
    Message('note_on', channel=3, note=69, velocity=92, time=2),
    Message('note_on', channel=3, note=69, velocity=0, time=46),
    Message('note_on', channel=3, note=67, velocity=92, time=2),
    Message('note_on', channel=3, note=67, velocity=0, time=142),
    Message('note_on', channel=3, note=71, velocity=92, time=2),
    Message('note_on', channel=3, note=71, velocity=0, time=46),
    Message('note_on', channel=3, note=67, velocity=92, time=2),
    Message('note_on', channel=3, note=67, velocity=0, time=46),
    Message('note_on', channel=3, note=64, velocity=92, time=2),
    Message('note_on', channel=3, note=64, velocity=0, time=160),
    Message('note_on', channel=3, note=62, velocity=92, time=176),
    Message('note_on', channel=3, note=62, velocity=0, time=46),
    Message('note_on', channel=3, note=64, velocity=92, time=2),
    Message('note_on', channel=3, note=64, velocity=0, time=94),
    Message('note_on', channel=3, note=66, velocity=92, time=2),
    Message('note_on', channel=3, note=66, velocity=0, time=94),
    Message('note_on', channel=3, note=67, velocity=92, time=2),
    Message('note_on', channel=3, note=67, velocity=0, time=94),
    Message('note_on', channel=3, note=64, velocity=92, time=2),
    Message('note_on', channel=3, note=64, velocity=0, time=46),
    Message('note_on', channel=3, note=71, velocity=92, time=2),
    Message('note_on', channel=3, note=71, velocity=0, time=46),
    Message('note_on', channel=3, note=72, velocity=92, time=2),
    Message('note_on', channel=3, note=72, velocity=0, time=160),
    Message('note_on', channel=3, note=69, velocity=92, time=176),
    Message('note_on', channel=3, note=69, velocity=0, time=46),
    Message('note_on', channel=3, note=71, velocity=92, time=2),
    Message('note_on', channel=3, note=71, velocity=0, time=94),
    Message('note_on', channel=3, note=69, velocity=92, time=2),
    Message('note_on', channel=3, note=69, velocity=0, time=46),
    Message('note_on', channel=3, note=67, velocity=92, time=2),
    Message('note_on', channel=3, note=67, velocity=0, time=142),
    Message('note_on', channel=3, note=69, velocity=92, time=2),
    Message('note_on', channel=3, note=69, velocity=0, time=46),
    Message('note_on', channel=3, note=67, velocity=92, time=2),
    Message('note_on', channel=3, note=67, velocity=0, time=46),
    Message('note_on', channel=3, note=64, velocity=92, time=2),
    Message('note_on', channel=3, note=64, velocity=0, time=160),
    Message('note_on', channel=3, note=62, velocity=92, time=176),
    Message('note_on', channel=3, note=62, velocity=0, time=46),
    Message('note_on', channel=3, note=64, velocity=92, time=2),
    Message('note_on', channel=3, note=64, velocity=0, time=94),
    Message('note_on', channel=3, note=66, velocity=92, time=2),
    Message('note_on', channel=3, note=66, velocity=0, time=94),
    Message('note_on', channel=3, note=67, velocity=92, time=2),
    Message('note_on', channel=3, note=67, velocity=0, time=94),
    Message('note_on', channel=3, note=64, velocity=92, time=2),
    Message('note_on', channel=3, note=64, velocity=0, time=46),
    Message('note_on', channel=3, note=71, velocity=92, time=2),
    Message('note_on', channel=3, note=71, velocity=0, time=46),
    Message('note_on', channel=3, note=72, velocity=92, time=2),
    Message('note_on', channel=3, note=72, velocity=0, time=94),
    Message('note_on', channel=3, note=76, velocity=92, time=98),
    Message('note_on', channel=3, note=76, velocity=0, time=94),
    Message('note_on', channel=3, note=74, velocity=92, time=2),
    Message('note_on', channel=3, note=74, velocity=0, time=46),
    Message('note_on', channel=3, note=70, velocity=92, time=2),
    Message('note_on', channel=3, note=70, velocity=0, time=46),
    Message('note_on', channel=3, note=71, velocity=92, time=2),
    Message('note_on', channel=3, note=71, velocity=0, time=94),
    Message('note_on', channel=3, note=69, velocity=92, time=2),
    Message('note_on', channel=3, note=69, velocity=0, time=46),
    Message('note_on', channel=3, note=67, velocity=92, time=2),
    Message('note_on', channel=3, note=67, velocity=0, time=142),
    Message('note_on', channel=3, note=66, velocity=92, time=2),
    Message('note_on', channel=3, note=66, velocity=0, time=46),
    Message('note_on', channel=3, note=67, velocity=92, time=2),
    Message('note_on', channel=3, note=67, velocity=0, time=46),
    Message('note_on', channel=3, note=64, velocity=92, time=2),
    Message('note_on', channel=3, note=64, velocity=0, time=160),
    Message('note_on', channel=3, note=64, velocity=92, time=224),
    Message('note_on', channel=3, note=64, velocity=0, time=94),
    Message('note_on', channel=3, note=66, velocity=92, time=2),
    Message('note_on', channel=3, note=66, velocity=0, time=94),
    Message('note_on', channel=3, note=67, velocity=92, time=2),
    Message('note_on', channel=3, note=67, velocity=0, time=94),
    Message('note_on', channel=3, note=64, velocity=92, time=2),
    Message('note_on', channel=3, note=64, velocity=0, time=46),
    Message('note_on', channel=3, note=71, velocity=92, time=2),
    Message('note_on', channel=3, note=71, velocity=0, time=46),
    Message('note_on', channel=3, note=72, velocity=92, time=2),
    Message('note_on', channel=3, note=72, velocity=0, time=94),
    Message('note_on', channel=3, note=76, velocity=92, time=98),
    Message('note_on', channel=3, note=76, velocity=0, time=94),
    Message('note_on', channel=3, note=74, velocity=92, time=2),
    Message('note_on', channel=3, note=74, velocity=0, time=46),
    Message('note_on', channel=3, note=70, velocity=92, time=2),
    Message('note_on', channel=3, note=70, velocity=0, time=46),
    Message('note_on', channel=3, note=71, velocity=92, time=2),
    Message('note_on', channel=3, note=71, velocity=0, time=94),
    Message('note_on', channel=3, note=69, velocity=92, time=2),
    Message('note_on', channel=3, note=69, velocity=0, time=46),
    Message('note_on', channel=3, note=67, velocity=92, time=2),
    Message('note_on', channel=3, note=67, velocity=0, time=142),
    Message('note_on', channel=3, note=66, velocity=92, time=2),
    Message('note_on', channel=3, note=66, velocity=0, time=46),
    Message('note_on', channel=3, note=67, velocity=92, time=2),
    Message('note_on', channel=3, note=67, velocity=0, time=46),
    Message('note_on', channel=3, note=64, velocity=92, time=2),
    Message('note_on', channel=3, note=64, velocity=0, time=160),
    Message('note_on', channel=3, note=71, velocity=92, time=1376),
    Message('note_on', channel=3, note=74, velocity=92, time=0),
    Message('note_on', channel=3, note=71, velocity=0, time=94),
    Message('note_on', channel=3, note=74, velocity=0, time=0),
    Message('note_on', channel=3, note=71, velocity=92, time=2),
    Message('note_on', channel=3, note=74, velocity=92, time=0),
    Message('note_on', channel=3, note=71, velocity=0, time=190),
    Message('note_on', channel=3, note=74, velocity=0, time=0),
    Message('note_on', channel=3, note=69, velocity=92, time=2),
    Message('note_on', channel=3, note=72, velocity=92, time=0),
    Message('note_on', channel=3, note=69, velocity=0, time=46),
    Message('note_on', channel=3, note=72, velocity=0, time=0),
    Message('note_on', channel=3, note=67, velocity=92, time=2),
    Message('note_on', channel=3, note=71, velocity=92, time=0),
    Message('note_on', channel=3, note=67, velocity=0, time=46),
    Message('note_on', channel=3, note=71, velocity=0, time=0),
    Message('note_on', channel=3, note=69, velocity=92, time=2),
    Message('note_on', channel=3, note=72, velocity=92, time=0),
    Message('note_on', channel=3, note=69, velocity=0, time=46),
    Message('note_on', channel=3, note=72, velocity=0, time=0),
    Message('note_on', channel=3, note=67, velocity=92, time=2),
    Message('note_on', channel=3, note=71, velocity=92, time=0),
    Message('note_on', channel=3, note=67, velocity=0, time=46),
    Message('note_on', channel=3, note=71, velocity=0, time=0),
    Message('note_on', channel=3, note=71, velocity=92, time=2),
    Message('note_on', channel=3, note=74, velocity=92, time=0),
    Message('note_on', channel=3, note=71, velocity=0, time=46),
    Message('note_on', channel=3, note=74, velocity=0, time=0),
    Message('note_on', channel=3, note=69, velocity=92, time=2),
    Message('note_on', channel=3, note=72, velocity=92, time=0),
    Message('note_on', channel=3, note=69, velocity=0, time=142),
    Message('note_on', channel=3, note=72, velocity=0, time=0),
    Message('note_on', channel=3, note=71, velocity=92, time=2),
    Message('note_on', channel=3, note=74, velocity=92, time=0),
    Message('note_on', channel=3, note=71, velocity=0, time=46),
    Message('note_on', channel=3, note=74, velocity=0, time=0),
    Message('note_on', channel=3, note=74, velocity=92, time=2),
    Message('note_on', channel=3, note=78, velocity=92, time=0),
    Message('note_on', channel=3, note=74, velocity=0, time=46),
    Message('note_on', channel=3, note=78, velocity=0, time=0),
    Message('note_on', channel=3, note=76, velocity=92, time=2),
    Message('note_on', channel=3, note=79, velocity=92, time=0),
    Message('note_on', channel=3, note=76, velocity=0, time=94),
    Message('note_on', channel=3, note=79, velocity=0, time=0),
    Message('note_on', channel=3, note=76, velocity=92, time=2),
    Message('note_on', channel=3, note=79, velocity=92, time=0),
    Message('note_on', channel=3, note=76, velocity=0, time=46),
    Message('note_on', channel=3, note=79, velocity=0, time=0),
    Message('note_on', channel=3, note=71, velocity=92, time=2),
    Message('note_on', channel=3, note=74, velocity=92, time=0),
    Message('note_on', channel=3, note=71, velocity=0, time=46),
    Message('note_on', channel=3, note=74, velocity=0, time=0),
    Message('note_on', channel=3, note=69, velocity=92, time=2),
    Message('note_on', channel=3, note=72, velocity=92, time=0),
    Message('note_on', channel=3, note=69, velocity=0, time=94),
    Message('note_on', channel=3, note=72, velocity=0, time=0),
    Message('note_on', channel=3, note=71, velocity=92, time=482),
    Message('note_on', channel=3, note=74, velocity=92, time=0),
    Message('note_on', channel=3, note=71, velocity=0, time=94),
    Message('note_on', channel=3, note=74, velocity=0, time=0),
    Message('note_on', channel=3, note=71, velocity=92, time=2),
    Message('note_on', channel=3, note=74, velocity=92, time=0),
    Message('note_on', channel=3, note=71, velocity=0, time=190),
    Message('note_on', channel=3, note=74, velocity=0, time=0),
    Message('note_on', channel=3, note=69, velocity=92, time=2),
    Message('note_on', channel=3, note=72, velocity=92, time=0),
    Message('note_on', channel=3, note=69, velocity=0, time=46),
    Message('note_on', channel=3, note=72, velocity=0, time=0),
    Message('note_on', channel=3, note=67, velocity=92, time=2),
    Message('note_on', channel=3, note=71, velocity=92, time=0),
    Message('note_on', channel=3, note=67, velocity=0, time=46),
    Message('note_on', channel=3, note=71, velocity=0, time=0),
    Message('note_on', channel=3, note=69, velocity=92, time=2),
    Message('note_on', channel=3, note=72, velocity=92, time=0),
    Message('note_on', channel=3, note=69, velocity=0, time=46),
    Message('note_on', channel=3, note=72, velocity=0, time=0),
    Message('note_on', channel=3, note=67, velocity=92, time=2),
    Message('note_on', channel=3, note=71, velocity=92, time=0),
    Message('note_on', channel=3, note=67, velocity=0, time=46),
    Message('note_on', channel=3, note=71, velocity=0, time=0),
    Message('note_on', channel=3, note=71, velocity=92, time=2),
    Message('note_on', channel=3, note=74, velocity=92, time=0),
    Message('note_on', channel=3, note=71, velocity=0, time=46),
    Message('note_on', channel=3, note=74, velocity=0, time=0),
    Message('note_on', channel=3, note=69, velocity=92, time=2),
    Message('note_on', channel=3, note=72, velocity=92, time=0),
    Message('note_on', channel=3, note=69, velocity=0, time=142),
    Message('note_on', channel=3, note=72, velocity=0, time=0),
    Message('note_on', channel=3, note=71, velocity=92, time=2),
    Message('note_on', channel=3, note=74, velocity=92, time=0),
    Message('note_on', channel=3, note=71, velocity=0, time=46),
    Message('note_on', channel=3, note=74, velocity=0, time=0),
    Message('note_on', channel=3, note=74, velocity=92, time=2),
    Message('note_on', channel=3, note=78, velocity=92, time=0),
    Message('note_on', channel=3, note=74, velocity=0, time=46),
    Message('note_on', channel=3, note=78, velocity=0, time=0),
    Message('note_on', channel=3, note=76, velocity=92, time=2),
    Message('note_on', channel=3, note=79, velocity=92, time=0),
    Message('note_on', channel=3, note=76, velocity=0, time=94),
    Message('note_on', channel=3, note=79, velocity=0, time=0),
    Message('note_on', channel=3, note=76, velocity=92, time=2),
    Message('note_on', channel=3, note=79, velocity=92, time=0),
    Message('note_on', channel=3, note=76, velocity=0, time=46),
    Message('note_on', channel=3, note=79, velocity=0, time=0),
    Message('note_on', channel=3, note=71, velocity=92, time=2),
    Message('note_on', channel=3, note=74, velocity=92, time=0),
    Message('note_on', channel=3, note=71, velocity=0, time=46),
    Message('note_on', channel=3, note=74, velocity=0, time=0),
    Message('note_on', channel=3, note=69, velocity=92, time=2),
    Message('note_on', channel=3, note=72, velocity=92, time=0),
    Message('note_on', channel=3, note=69, velocity=0, time=94),
    Message('note_on', channel=3, note=72, velocity=0, time=0),
    Message('note_on', channel=3, note=71, velocity=92, time=482),
    Message('note_on', channel=3, note=74, velocity=92, time=0),
    Message('note_on', channel=3, note=71, velocity=0, time=94),
    Message('note_on', channel=3, note=74, velocity=0, time=0),
    Message('note_on', channel=3, note=71, velocity=92, time=2),
    Message('note_on', channel=3, note=74, velocity=92, time=0),
    Message('note_on', channel=3, note=71, velocity=0, time=190),
    Message('note_on', channel=3, note=74, velocity=0, time=0),
    Message('note_on', channel=3, note=69, velocity=92, time=2),
    Message('note_on', channel=3, note=72, velocity=92, time=0),
    Message('note_on', channel=3, note=69, velocity=0, time=46),
    Message('note_on', channel=3, note=72, velocity=0, time=0),
    Message('note_on', channel=3, note=67, velocity=92, time=2),
    Message('note_on', channel=3, note=71, velocity=92, time=0),
    Message('note_on', channel=3, note=67, velocity=0, time=46),
    Message('note_on', channel=3, note=71, velocity=0, time=0),
    Message('note_on', channel=3, note=69, velocity=92, time=2),
    Message('note_on', channel=3, note=72, velocity=92, time=0),
    Message('note_on', channel=3, note=69, velocity=0, time=46),
    Message('note_on', channel=3, note=72, velocity=0, time=0),
    Message('note_on', channel=3, note=67, velocity=92, time=2),
    Message('note_on', channel=3, note=71, velocity=92, time=0),
    Message('note_on', channel=3, note=67, velocity=0, time=46),
    Message('note_on', channel=3, note=71, velocity=0, time=0),
    Message('note_on', channel=3, note=71, velocity=92, time=2),
    Message('note_on', channel=3, note=74, velocity=92, time=0),
    Message('note_on', channel=3, note=71, velocity=0, time=46),
    Message('note_on', channel=3, note=74, velocity=0, time=0),
    Message('note_on', channel=3, note=69, velocity=92, time=2),
    Message('note_on', channel=3, note=72, velocity=92, time=0),
    Message('note_on', channel=3, note=69, velocity=0, time=142),
    Message('note_on', channel=3, note=72, velocity=0, time=0),
    Message('note_on', channel=3, note=71, velocity=92, time=2),
    Message('note_on', channel=3, note=74, velocity=92, time=0),
    Message('note_on', channel=3, note=71, velocity=0, time=46),
    Message('note_on', channel=3, note=74, velocity=0, time=0),
    Message('note_on', channel=3, note=74, velocity=92, time=2),
    Message('note_on', channel=3, note=78, velocity=92, time=0),
    Message('note_on', channel=3, note=74, velocity=0, time=46),
    Message('note_on', channel=3, note=78, velocity=0, time=0),
    Message('note_on', channel=3, note=76, velocity=92, time=2),
    Message('note_on', channel=3, note=79, velocity=92, time=0),
    Message('note_on', channel=3, note=76, velocity=0, time=94),
    Message('note_on', channel=3, note=79, velocity=0, time=0),
    Message('note_on', channel=3, note=76, velocity=92, time=2),
    Message('note_on', channel=3, note=79, velocity=92, time=0),
    Message('note_on', channel=3, note=76, velocity=0, time=46),
    Message('note_on', channel=3, note=79, velocity=0, time=0),
    Message('note_on', channel=3, note=71, velocity=92, time=2),
    Message('note_on', channel=3, note=74, velocity=92, time=0),
    Message('note_on', channel=3, note=71, velocity=0, time=46),
    Message('note_on', channel=3, note=74, velocity=0, time=0),
    Message('note_on', channel=3, note=69, velocity=92, time=2),
    Message('note_on', channel=3, note=72, velocity=92, time=0),
    Message('note_on', channel=3, note=69, velocity=0, time=142),
    Message('note_on', channel=3, note=72, velocity=0, time=0),
    Message('note_on', channel=3, note=67, velocity=92, time=2),
    Message('note_on', channel=3, note=71, velocity=92, time=0),
    Message('note_on', channel=3, note=67, velocity=0, time=46),
    Message('note_on', channel=3, note=71, velocity=0, time=0),
    Message('note_on', channel=3, note=76, velocity=92, time=2),
    Message('note_on', channel=3, note=79, velocity=92, time=0),
    Message('note_on', channel=3, note=76, velocity=0, time=94),
    Message('note_on', channel=3, note=79, velocity=0, time=0),
    Message('note_on', channel=3, note=74, velocity=92, time=2),
    Message('note_on', channel=3, note=78, velocity=92, time=0),
    Message('note_on', channel=3, note=74, velocity=0, time=46),
    Message('note_on', channel=3, note=78, velocity=0, time=0),
    Message('note_on', channel=3, note=71, velocity=92, time=2),
    Message('note_on', channel=3, note=74, velocity=92, time=0),
    Message('note_on', channel=3, note=71, velocity=0, time=46),
    Message('note_on', channel=3, note=74, velocity=0, time=0),
    Message('note_on', channel=3, note=69, velocity=92, time=2),
    Message('note_on', channel=3, note=72, velocity=92, time=0),
    Message('note_on', channel=3, note=69, velocity=0, time=94),
    Message('note_on', channel=3, note=72, velocity=0, time=0),
    Message('note_on', channel=3, note=74, velocity=92, time=2),
    Message('note_on', channel=3, note=74, velocity=0, time=94),
    Message('note_on', channel=3, note=76, velocity=92, time=2),
    Message('note_on', channel=3, note=76, velocity=0, time=94),
    Message('note_on', channel=3, note=74, velocity=92, time=2),
    Message('note_on', channel=3, note=74, velocity=0, time=46),
    Message('note_on', channel=3, note=71, velocity=92, time=2),
    Message('note_on', channel=3, note=71, velocity=0, time=142),
    Message('note_on', channel=3, note=69, velocity=92, time=2),
    Message('note_on', channel=3, note=69, velocity=0, time=46),
    Message('note_on', channel=3, note=71, velocity=92, time=2),
    Message('note_on', channel=3, note=71, velocity=0, time=142),
    Message('note_on', channel=3, note=74, velocity=92, time=2),
    Message('note_on', channel=3, note=74, velocity=0, time=46),
    Message('note_on', channel=3, note=74, velocity=92, time=2),
    Message('note_on', channel=3, note=74, velocity=0, time=46),
    Message('note_on', channel=3, note=71, velocity=92, time=2),
    Message('note_on', channel=3, note=71, velocity=0, time=94),
    Message('note_on', channel=3, note=71, velocity=92, time=722),
    Message('note_on', channel=3, note=71, velocity=0, time=46),
    Message('note_on', channel=3, note=74, velocity=92, time=2),
    Message('note_on', channel=3, note=74, velocity=0, time=94),
    Message('note_on', channel=3, note=76, velocity=92, time=2),
    Message('note_on', channel=3, note=76, velocity=0, time=94),
    Message('note_on', channel=3, note=74, velocity=92, time=2),
    Message('note_on', channel=3, note=74, velocity=0, time=46),
    Message('note_on', channel=3, note=71, velocity=92, time=2),
    Message('note_on', channel=3, note=71, velocity=0, time=142),
    Message('note_on', channel=3, note=69, velocity=92, time=2),
    Message('note_on', channel=3, note=69, velocity=0, time=46),
    Message('note_on', channel=3, note=71, velocity=92, time=2),
    Message('note_on', channel=3, note=71, velocity=0, time=142),
    Message('note_on', channel=3, note=74, velocity=92, time=2),
    Message('note_on', channel=3, note=74, velocity=0, time=46),
    Message('note_on', channel=3, note=74, velocity=92, time=2),
    Message('note_on', channel=3, note=74, velocity=0, time=46),
    Message('note_on', channel=3, note=71, velocity=92, time=2),
    Message('note_on', channel=3, note=71, velocity=0, time=94),
    Message('note_on', channel=3, note=71, velocity=92, time=722),
    Message('note_on', channel=3, note=71, velocity=0, time=46),
    Message('note_on', channel=3, note=74, velocity=92, time=2),
    Message('note_on', channel=3, note=74, velocity=0, time=94),
    Message('note_on', channel=3, note=76, velocity=92, time=2),
    Message('note_on', channel=3, note=76, velocity=0, time=94),
    Message('note_on', channel=3, note=74, velocity=92, time=2),
    Message('note_on', channel=3, note=74, velocity=0, time=46),
    Message('note_on', channel=3, note=71, velocity=92, time=2),
    Message('note_on', channel=3, note=71, velocity=0, time=142),
    Message('note_on', channel=3, note=69, velocity=92, time=2),
    Message('note_on', channel=3, note=69, velocity=0, time=46),
    Message('note_on', channel=3, note=71, velocity=92, time=2),
    Message('note_on', channel=3, note=71, velocity=0, time=142),
    Message('note_on', channel=3, note=74, velocity=92, time=2),
    Message('note_on', channel=3, note=74, velocity=0, time=46),
    Message('note_on', channel=3, note=74, velocity=92, time=2),
    Message('note_on', channel=3, note=74, velocity=0, time=46),
    Message('note_on', channel=3, note=71, velocity=92, time=2),
    Message('note_on', channel=3, note=71, velocity=0, time=94),
    Message('note_on', channel=3, note=71, velocity=92, time=722),
    Message('note_on', channel=3, note=71, velocity=0, time=46),
    Message('note_on', channel=3, note=74, velocity=92, time=2),
    Message('note_on', channel=3, note=74, velocity=0, time=94),
    Message('note_on', channel=3, note=76, velocity=92, time=2),
    Message('note_on', channel=3, note=76, velocity=0, time=94),
    Message('note_on', channel=3, note=74, velocity=92, time=2),
    Message('note_on', channel=3, note=74, velocity=0, time=46),
    Message('note_on', channel=3, note=71, velocity=92, time=2),
    Message('note_on', channel=3, note=71, velocity=0, time=142),
    Message('note_on', channel=3, note=69, velocity=92, time=2),
    Message('note_on', channel=3, note=69, velocity=0, time=46),
    Message('note_on', channel=3, note=71, velocity=92, time=2),
    Message('note_on', channel=3, note=71, velocity=0, time=142),
    Message('note_on', channel=3, note=74, velocity=92, time=2),
    Message('note_on', channel=3, note=74, velocity=0, time=46),
    Message('note_on', channel=3, note=74, velocity=92, time=2),
    Message('note_on', channel=3, note=74, velocity=0, time=46),
    Message('note_on', channel=3, note=71, velocity=92, time=2),
    Message('note_on', channel=3, note=71, velocity=0, time=94),
    Message('note_on', channel=3, note=76, velocity=92, time=98),
    Message('note_on', channel=3, note=76, velocity=0, time=94),
    Message('note_on', channel=3, note=74, velocity=92, time=2),
    Message('note_on', channel=3, note=74, velocity=0, time=46),
    Message('note_on', channel=3, note=71, velocity=92, time=2),
    Message('note_on', channel=3, note=71, velocity=0, time=142),
    Message('note_on', channel=3, note=69, velocity=92, time=2),
    Message('note_on', channel=3, note=69, velocity=0, time=46),
    Message('note_on', channel=3, note=71, velocity=92, time=2),
    Message('note_on', channel=3, note=71, velocity=0, time=142),
    Message('note_on', channel=3, note=74, velocity=92, time=2),
    Message('note_on', channel=3, note=74, velocity=0, time=46),
    Message('note_on', channel=3, note=74, velocity=92, time=2),
    Message('note_on', channel=3, note=74, velocity=0, time=46),
    Message('note_on', channel=3, note=71, velocity=92, time=2),
    Message('note_on', channel=3, note=71, velocity=0, time=94),
    Message('program_change', channel=3, program=54, time=1634),
    Message('note_on', channel=3, note=64, velocity=108, time=0),
    Message('note_on', channel=3, note=64, velocity=0, time=94),
    Message('note_on', channel=3, note=62, velocity=108, time=2),
    Message('note_on', channel=3, note=62, velocity=0, time=46),
    Message('note_on', channel=3, note=64, velocity=108, time=2),
    Message('note_on', channel=3, note=64, velocity=0, time=478),
    Message('note_on', channel=3, note=62, velocity=108, time=2),
    Message('note_on', channel=3, note=62, velocity=0, time=142),
    Message('program_change', channel=3, program=48, time=2),
    Message('note_on', channel=3, note=71, velocity=75, time=768),
    Message('note_on', channel=3, note=74, velocity=75, time=0),
    Message('note_on', channel=3, note=71, velocity=0, time=94),
    Message('note_on', channel=3, note=74, velocity=0, time=0),
    Message('note_on', channel=3, note=71, velocity=75, time=2),
    Message('note_on', channel=3, note=74, velocity=75, time=0),
    Message('note_on', channel=3, note=71, velocity=0, time=190),
    Message('note_on', channel=3, note=74, velocity=0, time=0),
    Message('note_on', channel=3, note=69, velocity=75, time=2),
    Message('note_on', channel=3, note=72, velocity=75, time=0),
    Message('note_on', channel=3, note=69, velocity=0, time=46),
    Message('note_on', channel=3, note=72, velocity=0, time=0),
    Message('note_on', channel=3, note=67, velocity=75, time=2),
    Message('note_on', channel=3, note=71, velocity=75, time=0),
    Message('note_on', channel=3, note=67, velocity=0, time=46),
    Message('note_on', channel=3, note=71, velocity=0, time=0),
    Message('note_on', channel=3, note=69, velocity=75, time=2),
    Message('note_on', channel=3, note=72, velocity=75, time=0),
    Message('note_on', channel=3, note=69, velocity=0, time=46),
    Message('note_on', channel=3, note=72, velocity=0, time=0),
    Message('note_on', channel=3, note=67, velocity=75, time=2),
    Message('note_on', channel=3, note=71, velocity=75, time=0),
    Message('note_on', channel=3, note=67, velocity=0, time=46),
    Message('note_on', channel=3, note=71, velocity=0, time=0),
    Message('note_on', channel=3, note=71, velocity=75, time=2),
    Message('note_on', channel=3, note=74, velocity=75, time=0),
    Message('note_on', channel=3, note=71, velocity=0, time=46),
    Message('note_on', channel=3, note=74, velocity=0, time=0),
    Message('note_on', channel=3, note=69, velocity=75, time=2),
    Message('note_on', channel=3, note=72, velocity=75, time=0),
    Message('note_on', channel=3, note=69, velocity=0, time=142),
    Message('note_on', channel=3, note=72, velocity=0, time=0),
    Message('note_on', channel=3, note=71, velocity=75, time=2),
    Message('note_on', channel=3, note=74, velocity=75, time=0),
    Message('note_on', channel=3, note=71, velocity=0, time=46),
    Message('note_on', channel=3, note=74, velocity=0, time=0),
    Message('note_on', channel=3, note=74, velocity=75, time=2),
    Message('note_on', channel=3, note=78, velocity=75, time=0),
    Message('note_on', channel=3, note=74, velocity=0, time=46),
    Message('note_on', channel=3, note=78, velocity=0, time=0),
    Message('note_on', channel=3, note=76, velocity=75, time=2),
    Message('note_on', channel=3, note=79, velocity=75, time=0),
    Message('note_on', channel=3, note=76, velocity=0, time=94),
    Message('note_on', channel=3, note=79, velocity=0, time=0),
    Message('note_on', channel=3, note=76, velocity=75, time=2),
    Message('note_on', channel=3, note=79, velocity=75, time=0),
    Message('note_on', channel=3, note=76, velocity=0, time=46),
    Message('note_on', channel=3, note=79, velocity=0, time=0),
    Message('note_on', channel=3, note=71, velocity=75, time=2),
    Message('note_on', channel=3, note=74, velocity=75, time=0),
    Message('note_on', channel=3, note=71, velocity=0, time=46),
    Message('note_on', channel=3, note=74, velocity=0, time=0),
    Message('note_on', channel=3, note=69, velocity=75, time=2),
    Message('note_on', channel=3, note=72, velocity=75, time=0),
    Message('note_on', channel=3, note=69, velocity=0, time=94),
    Message('note_on', channel=3, note=72, velocity=0, time=0),
    Message('note_on', channel=3, note=71, velocity=75, time=482),
    Message('note_on', channel=3, note=74, velocity=75, time=0),
    Message('note_on', channel=3, note=71, velocity=0, time=94),
    Message('note_on', channel=3, note=74, velocity=0, time=0),
    Message('note_on', channel=3, note=71, velocity=75, time=2),
    Message('note_on', channel=3, note=74, velocity=75, time=0),
    Message('note_on', channel=3, note=71, velocity=0, time=190),
    Message('note_on', channel=3, note=74, velocity=0, time=0),
    Message('note_on', channel=3, note=69, velocity=75, time=2),
    Message('note_on', channel=3, note=72, velocity=75, time=0),
    Message('note_on', channel=3, note=69, velocity=0, time=46),
    Message('note_on', channel=3, note=72, velocity=0, time=0),
    Message('note_on', channel=3, note=67, velocity=75, time=2),
    Message('note_on', channel=3, note=71, velocity=75, time=0),
    Message('note_on', channel=3, note=67, velocity=0, time=46),
    Message('note_on', channel=3, note=71, velocity=0, time=0),
    Message('note_on', channel=3, note=69, velocity=75, time=2),
    Message('note_on', channel=3, note=72, velocity=75, time=0),
    Message('note_on', channel=3, note=69, velocity=0, time=46),
    Message('note_on', channel=3, note=72, velocity=0, time=0),
    Message('note_on', channel=3, note=67, velocity=75, time=2),
    Message('note_on', channel=3, note=71, velocity=75, time=0),
    Message('note_on', channel=3, note=67, velocity=0, time=46),
    Message('note_on', channel=3, note=71, velocity=0, time=0),
    Message('note_on', channel=3, note=71, velocity=75, time=2),
    Message('note_on', channel=3, note=74, velocity=75, time=0),
    Message('note_on', channel=3, note=71, velocity=0, time=46),
    Message('note_on', channel=3, note=74, velocity=0, time=0),
    Message('note_on', channel=3, note=69, velocity=75, time=2),
    Message('note_on', channel=3, note=72, velocity=75, time=0),
    Message('note_on', channel=3, note=69, velocity=0, time=142),
    Message('note_on', channel=3, note=72, velocity=0, time=0),
    Message('note_on', channel=3, note=71, velocity=75, time=2),
    Message('note_on', channel=3, note=74, velocity=75, time=0),
    Message('note_on', channel=3, note=71, velocity=0, time=46),
    Message('note_on', channel=3, note=74, velocity=0, time=0),
    Message('note_on', channel=3, note=74, velocity=75, time=2),
    Message('note_on', channel=3, note=78, velocity=75, time=0),
    Message('note_on', channel=3, note=74, velocity=0, time=46),
    Message('note_on', channel=3, note=78, velocity=0, time=0),
    Message('note_on', channel=3, note=76, velocity=75, time=2),
    Message('note_on', channel=3, note=79, velocity=75, time=0),
    Message('note_on', channel=3, note=76, velocity=0, time=94),
    Message('note_on', channel=3, note=79, velocity=0, time=0),
    Message('note_on', channel=3, note=76, velocity=75, time=2),
    Message('note_on', channel=3, note=79, velocity=75, time=0),
    Message('note_on', channel=3, note=76, velocity=0, time=46),
    Message('note_on', channel=3, note=79, velocity=0, time=0),
    Message('note_on', channel=3, note=71, velocity=75, time=2),
    Message('note_on', channel=3, note=74, velocity=75, time=0),
    Message('note_on', channel=3, note=71, velocity=0, time=46),
    Message('note_on', channel=3, note=74, velocity=0, time=0),
    Message('note_on', channel=3, note=69, velocity=75, time=2),
    Message('note_on', channel=3, note=72, velocity=75, time=0),
    Message('note_on', channel=3, note=69, velocity=0, time=94),
    Message('note_on', channel=3, note=72, velocity=0, time=0),
    Message('note_on', channel=3, note=71, velocity=75, time=482),
    Message('note_on', channel=3, note=74, velocity=75, time=0),
    Message('note_on', channel=3, note=71, velocity=0, time=94),
    Message('note_on', channel=3, note=74, velocity=0, time=0),
    Message('note_on', channel=3, note=71, velocity=75, time=2),
    Message('note_on', channel=3, note=74, velocity=75, time=0),
    Message('note_on', channel=3, note=71, velocity=0, time=190),
    Message('note_on', channel=3, note=74, velocity=0, time=0),
    Message('note_on', channel=3, note=69, velocity=75, time=2),
    Message('note_on', channel=3, note=72, velocity=75, time=0),
    Message('note_on', channel=3, note=69, velocity=0, time=46),
    Message('note_on', channel=3, note=72, velocity=0, time=0),
    Message('note_on', channel=3, note=67, velocity=75, time=2),
    Message('note_on', channel=3, note=71, velocity=75, time=0),
    Message('note_on', channel=3, note=67, velocity=0, time=46),
    Message('note_on', channel=3, note=71, velocity=0, time=0),
    Message('note_on', channel=3, note=69, velocity=75, time=2),
    Message('note_on', channel=3, note=72, velocity=75, time=0),
    Message('note_on', channel=3, note=69, velocity=0, time=46),
    Message('note_on', channel=3, note=72, velocity=0, time=0),
    Message('note_on', channel=3, note=67, velocity=75, time=2),
    Message('note_on', channel=3, note=71, velocity=75, time=0),
    Message('note_on', channel=3, note=67, velocity=0, time=46),
    Message('note_on', channel=3, note=71, velocity=0, time=0),
    Message('note_on', channel=3, note=71, velocity=75, time=2),
    Message('note_on', channel=3, note=74, velocity=75, time=0),
    Message('note_on', channel=3, note=71, velocity=0, time=46),
    Message('note_on', channel=3, note=74, velocity=0, time=0),
    Message('note_on', channel=3, note=69, velocity=75, time=2),
    Message('note_on', channel=3, note=72, velocity=75, time=0),
    Message('note_on', channel=3, note=69, velocity=0, time=142),
    Message('note_on', channel=3, note=72, velocity=0, time=0),
    Message('note_on', channel=3, note=71, velocity=75, time=2),
    Message('note_on', channel=3, note=74, velocity=75, time=0),
    Message('note_on', channel=3, note=71, velocity=0, time=46),
    Message('note_on', channel=3, note=74, velocity=0, time=0),
    Message('note_on', channel=3, note=74, velocity=75, time=2),
    Message('note_on', channel=3, note=78, velocity=75, time=0),
    Message('note_on', channel=3, note=74, velocity=0, time=46),
    Message('note_on', channel=3, note=78, velocity=0, time=0),
    Message('note_on', channel=3, note=76, velocity=75, time=2),
    Message('note_on', channel=3, note=79, velocity=75, time=0),
    Message('note_on', channel=3, note=76, velocity=0, time=94),
    Message('note_on', channel=3, note=79, velocity=0, time=0),
    Message('note_on', channel=3, note=76, velocity=75, time=2),
    Message('note_on', channel=3, note=79, velocity=75, time=0),
    Message('note_on', channel=3, note=76, velocity=0, time=46),
    Message('note_on', channel=3, note=79, velocity=0, time=0),
    Message('note_on', channel=3, note=71, velocity=75, time=2),
    Message('note_on', channel=3, note=74, velocity=75, time=0),
    Message('note_on', channel=3, note=71, velocity=0, time=46),
    Message('note_on', channel=3, note=74, velocity=0, time=0),
    Message('note_on', channel=3, note=69, velocity=75, time=2),
    Message('note_on', channel=3, note=72, velocity=75, time=0),
    Message('note_on', channel=3, note=69, velocity=0, time=142),
    Message('note_on', channel=3, note=72, velocity=0, time=0),
    Message('note_on', channel=3, note=67, velocity=75, time=2),
    Message('note_on', channel=3, note=71, velocity=75, time=0),
    Message('note_on', channel=3, note=67, velocity=0, time=46),
    Message('note_on', channel=3, note=71, velocity=0, time=0),
    Message('note_on', channel=3, note=76, velocity=75, time=2),
    Message('note_on', channel=3, note=79, velocity=75, time=0),
    Message('note_on', channel=3, note=76, velocity=0, time=94),
    Message('note_on', channel=3, note=79, velocity=0, time=0),
    Message('note_on', channel=3, note=74, velocity=75, time=2),
    Message('note_on', channel=3, note=78, velocity=75, time=0),
    Message('note_on', channel=3, note=74, velocity=0, time=46),
    Message('note_on', channel=3, note=78, velocity=0, time=0),
    Message('note_on', channel=3, note=71, velocity=75, time=2),
    Message('note_on', channel=3, note=74, velocity=75, time=0),
    Message('note_on', channel=3, note=71, velocity=0, time=46),
    Message('note_on', channel=3, note=74, velocity=0, time=0),
    Message('note_on', channel=3, note=69, velocity=75, time=2),
    Message('note_on', channel=3, note=72, velocity=75, time=0),
    Message('note_on', channel=3, note=69, velocity=0, time=94),
    Message('note_on', channel=3, note=72, velocity=0, time=0),
    Message('note_on', channel=3, note=74, velocity=75, time=2),
    Message('note_on', channel=3, note=74, velocity=0, time=94),
    Message('note_on', channel=3, note=76, velocity=92, time=2),
    Message('note_on', channel=3, note=76, velocity=0, time=94),
    Message('note_on', channel=3, note=74, velocity=92, time=2),
    Message('note_on', channel=3, note=74, velocity=0, time=46),
    Message('note_on', channel=3, note=71, velocity=92, time=2),
    Message('note_on', channel=3, note=71, velocity=0, time=142),
    Message('note_on', channel=3, note=69, velocity=92, time=2),
    Message('note_on', channel=3, note=69, velocity=0, time=46),
    Message('note_on', channel=3, note=71, velocity=92, time=2),
    Message('note_on', channel=3, note=71, velocity=0, time=142),
    Message('note_on', channel=3, note=74, velocity=92, time=2),
    Message('note_on', channel=3, note=74, velocity=0, time=46),
    Message('note_on', channel=3, note=74, velocity=92, time=2),
    Message('note_on', channel=3, note=74, velocity=0, time=46),
    Message('note_on', channel=3, note=71, velocity=92, time=2),
    Message('note_on', channel=3, note=71, velocity=0, time=94),
    Message('note_on', channel=3, note=71, velocity=92, time=722),
    Message('note_on', channel=3, note=71, velocity=0, time=46),
    Message('note_on', channel=3, note=74, velocity=92, time=2),
    Message('note_on', channel=3, note=74, velocity=0, time=94),
    Message('note_on', channel=3, note=76, velocity=92, time=2),
    Message('note_on', channel=3, note=76, velocity=0, time=94),
    Message('note_on', channel=3, note=74, velocity=92, time=2),
    Message('note_on', channel=3, note=74, velocity=0, time=46),
    Message('note_on', channel=3, note=71, velocity=92, time=2),
    Message('note_on', channel=3, note=71, velocity=0, time=142),
    Message('note_on', channel=3, note=69, velocity=92, time=2),
    Message('note_on', channel=3, note=69, velocity=0, time=46),
    Message('note_on', channel=3, note=71, velocity=92, time=2),
    Message('note_on', channel=3, note=71, velocity=0, time=142),
    Message('note_on', channel=3, note=74, velocity=92, time=2),
    Message('note_on', channel=3, note=74, velocity=0, time=46),
    Message('note_on', channel=3, note=74, velocity=92, time=2),
    Message('note_on', channel=3, note=74, velocity=0, time=46),
    Message('note_on', channel=3, note=71, velocity=92, time=2),
    Message('note_on', channel=3, note=71, velocity=0, time=94),
    Message('note_on', channel=3, note=71, velocity=92, time=722),
    Message('note_on', channel=3, note=71, velocity=0, time=46),
    Message('note_on', channel=3, note=74, velocity=92, time=2),
    Message('note_on', channel=3, note=74, velocity=0, time=94),
    Message('note_on', channel=3, note=76, velocity=92, time=2),
    Message('note_on', channel=3, note=76, velocity=0, time=94),
    Message('note_on', channel=3, note=74, velocity=92, time=2),
    Message('note_on', channel=3, note=74, velocity=0, time=46),
    Message('note_on', channel=3, note=71, velocity=92, time=2),
    Message('note_on', channel=3, note=71, velocity=0, time=142),
    Message('note_on', channel=3, note=69, velocity=92, time=2),
    Message('note_on', channel=3, note=69, velocity=0, time=46),
    Message('note_on', channel=3, note=71, velocity=92, time=2),
    Message('note_on', channel=3, note=71, velocity=0, time=142),
    Message('note_on', channel=3, note=74, velocity=92, time=2),
    Message('note_on', channel=3, note=74, velocity=0, time=46),
    Message('note_on', channel=3, note=74, velocity=92, time=2),
    Message('note_on', channel=3, note=74, velocity=0, time=46),
    Message('note_on', channel=3, note=71, velocity=92, time=2),
    Message('note_on', channel=3, note=71, velocity=0, time=94),
    Message('note_on', channel=3, note=71, velocity=92, time=722),
    Message('note_on', channel=3, note=71, velocity=0, time=46),
    Message('note_on', channel=3, note=74, velocity=92, time=2),
    Message('note_on', channel=3, note=74, velocity=0, time=94),
    Message('note_on', channel=3, note=76, velocity=92, time=2),
    Message('note_on', channel=3, note=76, velocity=0, time=94),
    Message('note_on', channel=3, note=74, velocity=92, time=2),
    Message('note_on', channel=3, note=74, velocity=0, time=46),
    Message('note_on', channel=3, note=71, velocity=92, time=2),
    Message('note_on', channel=3, note=71, velocity=0, time=142),
    Message('note_on', channel=3, note=69, velocity=92, time=2),
    Message('note_on', channel=3, note=69, velocity=0, time=46),
    Message('note_on', channel=3, note=71, velocity=92, time=2),
    Message('note_on', channel=3, note=71, velocity=0, time=142),
    Message('note_on', channel=3, note=74, velocity=92, time=2),
    Message('note_on', channel=3, note=74, velocity=0, time=46),
    Message('note_on', channel=3, note=74, velocity=92, time=2),
    Message('note_on', channel=3, note=74, velocity=0, time=46),
    Message('note_on', channel=3, note=71, velocity=92, time=2),
    Message('note_on', channel=3, note=71, velocity=0, time=94),
    Message('note_on', channel=3, note=76, velocity=92, time=98),
    Message('note_on', channel=3, note=76, velocity=0, time=94),
    Message('note_on', channel=3, note=74, velocity=92, time=2),
    Message('note_on', channel=3, note=74, velocity=0, time=46),
    Message('note_on', channel=3, note=71, velocity=92, time=2),
    Message('note_on', channel=3, note=71, velocity=0, time=142),
    Message('note_on', channel=3, note=69, velocity=92, time=2),
    Message('note_on', channel=3, note=69, velocity=0, time=46),
    Message('note_on', channel=3, note=71, velocity=92, time=2),
    Message('note_on', channel=3, note=71, velocity=0, time=142),
    Message('note_on', channel=3, note=74, velocity=92, time=2),
    Message('note_on', channel=3, note=74, velocity=0, time=46),
    Message('note_on', channel=3, note=74, velocity=92, time=2),
    Message('note_on', channel=3, note=74, velocity=0, time=46),
    Message('note_on', channel=3, note=71, velocity=92, time=2),
    Message('note_on', channel=3, note=71, velocity=0, time=94),
    Message('note_on', channel=3, note=76, velocity=92, time=98),
    Message('note_on', channel=3, note=76, velocity=0, time=94),
    Message('note_on', channel=3, note=74, velocity=92, time=2),
    Message('note_on', channel=3, note=74, velocity=0, time=46),
    Message('note_on', channel=3, note=71, velocity=92, time=2),
    Message('note_on', channel=3, note=71, velocity=0, time=142),
    Message('note_on', channel=3, note=69, velocity=92, time=2),
    Message('note_on', channel=3, note=69, velocity=0, time=46),
    Message('note_on', channel=3, note=71, velocity=92, time=2),
    Message('note_on', channel=3, note=71, velocity=0, time=142),
    Message('note_on', channel=3, note=74, velocity=92, time=2),
    Message('note_on', channel=3, note=74, velocity=0, time=46),
    Message('note_on', channel=3, note=74, velocity=92, time=2),
    Message('note_on', channel=3, note=74, velocity=0, time=46),
    Message('control_change', channel=3, control=7, value=127, time=2),
    Message('note_on', channel=3, note=71, velocity=92, time=0),
    Message('control_change', channel=3, control=7, value=126, time=3),
    Message('control_change', channel=3, control=7, value=125, time=3),
    Message('control_change', channel=3, control=7, value=124, time=3),
    Message('control_change', channel=3, control=7, value=123, time=3),
    Message('control_change', channel=3, control=7, value=122, time=3),
    Message('control_change', channel=3, control=7, value=121, time=3),
    Message('control_change', channel=3, control=7, value=120, time=3),
    Message('control_change', channel=3, control=7, value=119, time=3),
    Message('control_change', channel=3, control=7, value=118, time=3),
    Message('control_change', channel=3, control=7, value=117, time=3),
    Message('control_change', channel=3, control=7, value=116, time=3),
    Message('control_change', channel=3, control=7, value=115, time=3),
    Message('control_change', channel=3, control=7, value=114, time=3),
    Message('control_change', channel=3, control=7, value=113, time=3),
    Message('control_change', channel=3, control=7, value=112, time=3),
    Message('control_change', channel=3, control=7, value=111, time=3),
    Message('control_change', channel=3, control=7, value=110, time=3),
    Message('control_change', channel=3, control=7, value=109, time=3),
    Message('control_change', channel=3, control=7, value=108, time=3),
    Message('control_change', channel=3, control=7, value=107, time=3),
    Message('control_change', channel=3, control=7, value=106, time=3),
    Message('control_change', channel=3, control=7, value=105, time=3),
    Message('control_change', channel=3, control=7, value=104, time=3),
    Message('control_change', channel=3, control=7, value=103, time=3),
    Message('control_change', channel=3, control=7, value=102, time=3),
    Message('control_change', channel=3, control=7, value=101, time=3),
    Message('control_change', channel=3, control=7, value=100, time=3),
    Message('control_change', channel=3, control=7, value=99, time=3),
    Message('control_change', channel=3, control=7, value=98, time=3),
    Message('control_change', channel=3, control=7, value=97, time=3),
    Message('control_change', channel=3, control=7, value=96, time=3),
    Message('control_change', channel=3, control=7, value=95, time=3),
    Message('control_change', channel=3, control=7, value=94, time=3),
    Message('control_change', channel=3, control=7, value=93, time=3),
    Message('control_change', channel=3, control=7, value=92, time=3),
    Message('control_change', channel=3, control=7, value=91, time=3),
    Message('control_change', channel=3, control=7, value=90, time=3),
    Message('control_change', channel=3, control=7, value=89, time=3),
    Message('control_change', channel=3, control=7, value=88, time=3),
    Message('control_change', channel=3, control=7, value=87, time=3),
    Message('control_change', channel=3, control=7, value=86, time=3),
    Message('control_change', channel=3, control=7, value=85, time=3),
    Message('control_change', channel=3, control=7, value=84, time=4),
    Message('control_change', channel=3, control=7, value=83, time=3),
    Message('control_change', channel=3, control=7, value=82, time=3),
    Message('control_change', channel=3, control=7, value=81, time=3),
    Message('control_change', channel=3, control=7, value=80, time=3),
    Message('control_change', channel=3, control=7, value=79, time=3),
    Message('control_change', channel=3, control=7, value=78, time=3),
    Message('control_change', channel=3, control=7, value=77, time=3),
    Message('control_change', channel=3, control=7, value=76, time=3),
    Message('control_change', channel=3, control=7, value=75, time=3),
    Message('control_change', channel=3, control=7, value=74, time=3),
    Message('control_change', channel=3, control=7, value=73, time=3),
    Message('control_change', channel=3, control=7, value=72, time=3),
    Message('control_change', channel=3, control=7, value=71, time=3),
    Message('control_change', channel=3, control=7, value=70, time=3),
    Message('control_change', channel=3, control=7, value=69, time=3),
    Message('control_change', channel=3, control=7, value=68, time=3),
    Message('control_change', channel=3, control=7, value=67, time=3),
    Message('control_change', channel=3, control=7, value=66, time=3),
    Message('control_change', channel=3, control=7, value=65, time=3),
    Message('control_change', channel=3, control=7, value=64, time=3),
    Message('control_change', channel=3, control=7, value=63, time=3),
    Message('control_change', channel=3, control=7, value=62, time=3),
    Message('control_change', channel=3, control=7, value=61, time=3),
    Message('control_change', channel=3, control=7, value=60, time=3),
    Message('control_change', channel=3, control=7, value=59, time=3),
    Message('control_change', channel=3, control=7, value=58, time=3),
    Message('control_change', channel=3, control=7, value=57, time=3),
    Message('control_change', channel=3, control=7, value=56, time=3),
    Message('control_change', channel=3, control=7, value=55, time=3),
    Message('control_change', channel=3, control=7, value=54, time=3),
    Message('control_change', channel=3, control=7, value=53, time=3),
    Message('control_change', channel=3, control=7, value=52, time=3),
    Message('control_change', channel=3, control=7, value=51, time=3),
    Message('control_change', channel=3, control=7, value=50, time=3),
    Message('control_change', channel=3, control=7, value=49, time=3),
    Message('control_change', channel=3, control=7, value=48, time=3),
    Message('control_change', channel=3, control=7, value=47, time=3),
    Message('control_change', channel=3, control=7, value=46, time=3),
    Message('control_change', channel=3, control=7, value=45, time=3),
    Message('control_change', channel=3, control=7, value=44, time=3),
    Message('control_change', channel=3, control=7, value=43, time=3),
    Message('control_change', channel=3, control=7, value=42, time=4),
    Message('control_change', channel=3, control=7, value=41, time=3),
    Message('control_change', channel=3, control=7, value=40, time=3),
    Message('control_change', channel=3, control=7, value=39, time=3),
    Message('control_change', channel=3, control=7, value=38, time=3),
    Message('control_change', channel=3, control=7, value=37, time=3),
    Message('control_change', channel=3, control=7, value=36, time=3),
    Message('control_change', channel=3, control=7, value=35, time=3),
    Message('control_change', channel=3, control=7, value=34, time=3),
    Message('control_change', channel=3, control=7, value=33, time=3),
    Message('control_change', channel=3, control=7, value=32, time=3),
    Message('control_change', channel=3, control=7, value=31, time=3),
    Message('control_change', channel=3, control=7, value=30, time=3),
    Message('control_change', channel=3, control=7, value=29, time=3),
    Message('control_change', channel=3, control=7, value=28, time=3),
    Message('control_change', channel=3, control=7, value=27, time=3),
    Message('control_change', channel=3, control=7, value=26, time=3),
    Message('control_change', channel=3, control=7, value=25, time=3),
    Message('control_change', channel=3, control=7, value=24, time=3),
    Message('control_change', channel=3, control=7, value=23, time=3),
    Message('control_change', channel=3, control=7, value=22, time=3),
    Message('control_change', channel=3, control=7, value=21, time=3),
    Message('control_change', channel=3, control=7, value=20, time=3),
    Message('control_change', channel=3, control=7, value=19, time=3),
    Message('control_change', channel=3, control=7, value=18, time=3),
    Message('control_change', channel=3, control=7, value=17, time=3),
    Message('control_change', channel=3, control=7, value=16, time=3),
    Message('control_change', channel=3, control=7, value=15, time=3),
    Message('control_change', channel=3, control=7, value=14, time=3),
    Message('control_change', channel=3, control=7, value=13, time=3),
    Message('control_change', channel=3, control=7, value=12, time=3),
    Message('control_change', channel=3, control=7, value=11, time=3),
    Message('note_on', channel=3, note=71, velocity=0, time=2),
    Message('control_change', channel=3, control=7, value=10, time=1),
    Message('control_change', channel=3, control=7, value=9, time=3),
    Message('control_change', channel=3, control=7, value=8, time=3),
    Message('control_change', channel=3, control=7, value=7, time=3),
    Message('control_change', channel=3, control=7, value=6, time=3),
    Message('control_change', channel=3, control=7, value=5, time=3),
    Message('control_change', channel=3, control=7, value=4, time=3),
    Message('control_change', channel=3, control=7, value=3, time=3),
    Message('control_change', channel=3, control=7, value=2, time=3),
    Message('control_change', channel=3, control=7, value=1, time=3),
    Message('control_change', channel=3, control=7, value=0, time=4),
    MetaMessage('end_of_track', time=0)]),
  MidiTrack([
    MetaMessage('midi_port', port=0, time=0),
    MetaMessage('text', text='Weiland (Back Vox)', time=0),
    MetaMessage('track_name', name='Weiland (Back Vox)', time=0),
    MetaMessage('instrument_name', name='Weiland (Back Vox)', time=0),
    Message('program_change', channel=4, program=48, time=0),
    Message('control_change', channel=4, control=7, value=127, time=0),
    Message('control_change', channel=4, control=10, value=64, time=0),
    Message('note_on', channel=4, note=67, velocity=92, time=16656),
    Message('note_on', channel=4, note=67, velocity=0, time=46),
    Message('note_on', channel=4, note=69, velocity=92, time=2),
    Message('note_on', channel=4, note=69, velocity=0, time=46),
    Message('note_on', channel=4, note=67, velocity=92, time=2),
    Message('note_on', channel=4, note=67, velocity=0, time=142),
    Message('note_on', channel=4, note=71, velocity=92, time=2),
    Message('note_on', channel=4, note=71, velocity=0, time=190),
    Message('note_on', channel=4, note=69, velocity=92, time=2),
    Message('note_on', channel=4, note=69, velocity=0, time=94),
    Message('note_on', channel=4, note=67, velocity=92, time=2),
    Message('note_on', channel=4, note=67, velocity=0, time=46),
    Message('note_on', channel=4, note=66, velocity=92, time=2),
    Message('note_on', channel=4, note=66, velocity=0, time=142),
    Message('note_on', channel=4, note=67, velocity=92, time=2),
    Message('note_on', channel=4, note=67, velocity=0, time=46),
    Message('note_on', channel=4, note=69, velocity=92, time=2),
    Message('note_on', channel=4, note=69, velocity=0, time=46),
    Message('note_on', channel=4, note=67, velocity=92, time=2),
    Message('note_on', channel=4, note=67, velocity=0, time=94),
    Message('note_on', channel=4, note=67, velocity=92, time=2),
    Message('note_on', channel=4, note=67, velocity=0, time=46),
    Message('note_on', channel=4, note=69, velocity=92, time=2),
    Message('note_on', channel=4, note=69, velocity=0, time=46),
    Message('note_on', channel=4, note=71, velocity=92, time=2),
    Message('note_on', channel=4, note=71, velocity=0, time=94),
    Message('note_on', channel=4, note=67, velocity=92, time=434),
    Message('note_on', channel=4, note=67, velocity=0, time=46),
    Message('note_on', channel=4, note=69, velocity=92, time=2),
    Message('note_on', channel=4, note=69, velocity=0, time=46),
    Message('note_on', channel=4, note=67, velocity=92, time=2),
    Message('note_on', channel=4, note=67, velocity=0, time=142),
    Message('note_on', channel=4, note=71, velocity=92, time=2),
    Message('note_on', channel=4, note=71, velocity=0, time=190),
    Message('note_on', channel=4, note=69, velocity=92, time=2),
    Message('note_on', channel=4, note=69, velocity=0, time=94),
    Message('note_on', channel=4, note=67, velocity=92, time=2),
    Message('note_on', channel=4, note=67, velocity=0, time=46),
    Message('note_on', channel=4, note=66, velocity=92, time=2),
    Message('note_on', channel=4, note=66, velocity=0, time=142),
    Message('note_on', channel=4, note=67, velocity=92, time=2),
    Message('note_on', channel=4, note=67, velocity=0, time=46),
    Message('note_on', channel=4, note=73, velocity=92, time=2),
    Message('note_on', channel=4, note=73, velocity=0, time=46),
    Message('note_on', channel=4, note=74, velocity=92, time=2),
    Message('note_on', channel=4, note=74, velocity=0, time=94),
    Message('note_on', channel=4, note=71, velocity=92, time=2),
    Message('note_on', channel=4, note=71, velocity=0, time=46),
    Message('note_on', channel=4, note=74, velocity=92, time=2),
    Message('note_on', channel=4, note=74, velocity=0, time=46),
    Message('note_on', channel=4, note=71, velocity=92, time=2),
    Message('note_on', channel=4, note=71, velocity=0, time=94),
    Message('note_on', channel=4, note=67, velocity=92, time=434),
    Message('note_on', channel=4, note=67, velocity=0, time=46),
    Message('note_on', channel=4, note=69, velocity=92, time=2),
    Message('note_on', channel=4, note=69, velocity=0, time=46),
    Message('note_on', channel=4, note=67, velocity=92, time=2),
    Message('note_on', channel=4, note=67, velocity=0, time=142),
    Message('note_on', channel=4, note=71, velocity=92, time=2),
    Message('note_on', channel=4, note=71, velocity=0, time=190),
    Message('note_on', channel=4, note=69, velocity=92, time=2),
    Message('note_on', channel=4, note=69, velocity=0, time=94),
    Message('note_on', channel=4, note=67, velocity=92, time=2),
    Message('note_on', channel=4, note=67, velocity=0, time=46),
    Message('note_on', channel=4, note=66, velocity=92, time=2),
    Message('note_on', channel=4, note=66, velocity=0, time=142),
    Message('note_on', channel=4, note=67, velocity=92, time=2),
    Message('note_on', channel=4, note=67, velocity=0, time=46),
    Message('note_on', channel=4, note=69, velocity=92, time=2),
    Message('note_on', channel=4, note=69, velocity=0, time=46),
    Message('note_on', channel=4, note=67, velocity=92, time=2),
    Message('note_on', channel=4, note=67, velocity=0, time=94),
    Message('note_on', channel=4, note=67, velocity=92, time=2),
    Message('note_on', channel=4, note=67, velocity=0, time=46),
    Message('note_on', channel=4, note=69, velocity=92, time=2),
    Message('note_on', channel=4, note=69, velocity=0, time=46),
    Message('note_on', channel=4, note=71, velocity=92, time=2),
    Message('note_on', channel=4, note=71, velocity=0, time=94),
    Message('note_on', channel=4, note=67, velocity=92, time=15794),
    Message('note_on', channel=4, note=67, velocity=0, time=46),
    Message('note_on', channel=4, note=69, velocity=92, time=2),
    Message('note_on', channel=4, note=69, velocity=0, time=46),
    Message('note_on', channel=4, note=67, velocity=92, time=2),
    Message('note_on', channel=4, note=67, velocity=0, time=142),
    Message('note_on', channel=4, note=71, velocity=92, time=2),
    Message('note_on', channel=4, note=71, velocity=0, time=190),
    Message('note_on', channel=4, note=69, velocity=92, time=2),
    Message('note_on', channel=4, note=69, velocity=0, time=94),
    Message('note_on', channel=4, note=67, velocity=92, time=2),
    Message('note_on', channel=4, note=67, velocity=0, time=46),
    Message('note_on', channel=4, note=66, velocity=92, time=2),
    Message('note_on', channel=4, note=66, velocity=0, time=142),
    Message('note_on', channel=4, note=67, velocity=92, time=2),
    Message('note_on', channel=4, note=67, velocity=0, time=46),
    Message('note_on', channel=4, note=69, velocity=92, time=2),
    Message('note_on', channel=4, note=69, velocity=0, time=46),
    Message('note_on', channel=4, note=67, velocity=92, time=2),
    Message('note_on', channel=4, note=67, velocity=0, time=94),
    Message('note_on', channel=4, note=67, velocity=92, time=2),
    Message('note_on', channel=4, note=67, velocity=0, time=46),
    Message('note_on', channel=4, note=69, velocity=92, time=2),
    Message('note_on', channel=4, note=69, velocity=0, time=46),
    Message('note_on', channel=4, note=71, velocity=92, time=2),
    Message('note_on', channel=4, note=71, velocity=0, time=94),
    Message('note_on', channel=4, note=67, velocity=92, time=434),
    Message('note_on', channel=4, note=67, velocity=0, time=46),
    Message('note_on', channel=4, note=69, velocity=92, time=2),
    Message('note_on', channel=4, note=69, velocity=0, time=46),
    Message('note_on', channel=4, note=67, velocity=92, time=2),
    Message('note_on', channel=4, note=67, velocity=0, time=142),
    Message('note_on', channel=4, note=71, velocity=92, time=2),
    Message('note_on', channel=4, note=71, velocity=0, time=190),
    Message('note_on', channel=4, note=69, velocity=92, time=2),
    Message('note_on', channel=4, note=69, velocity=0, time=94),
    Message('note_on', channel=4, note=67, velocity=92, time=2),
    Message('note_on', channel=4, note=67, velocity=0, time=46),
    Message('note_on', channel=4, note=66, velocity=92, time=2),
    Message('note_on', channel=4, note=66, velocity=0, time=142),
    Message('note_on', channel=4, note=67, velocity=92, time=2),
    Message('note_on', channel=4, note=67, velocity=0, time=46),
    Message('note_on', channel=4, note=73, velocity=92, time=2),
    Message('note_on', channel=4, note=73, velocity=0, time=46),
    Message('note_on', channel=4, note=74, velocity=92, time=2),
    Message('note_on', channel=4, note=74, velocity=0, time=94),
    Message('note_on', channel=4, note=71, velocity=92, time=2),
    Message('note_on', channel=4, note=71, velocity=0, time=46),
    Message('note_on', channel=4, note=74, velocity=92, time=2),
    Message('note_on', channel=4, note=74, velocity=0, time=46),
    Message('note_on', channel=4, note=71, velocity=92, time=2),
    Message('note_on', channel=4, note=71, velocity=0, time=94),
    Message('note_on', channel=4, note=67, velocity=92, time=434),
    Message('note_on', channel=4, note=67, velocity=0, time=46),
    Message('note_on', channel=4, note=69, velocity=92, time=2),
    Message('note_on', channel=4, note=69, velocity=0, time=46),
    Message('note_on', channel=4, note=67, velocity=92, time=2),
    Message('note_on', channel=4, note=67, velocity=0, time=142),
    Message('note_on', channel=4, note=71, velocity=92, time=2),
    Message('note_on', channel=4, note=71, velocity=0, time=190),
    Message('note_on', channel=4, note=69, velocity=92, time=2),
    Message('note_on', channel=4, note=69, velocity=0, time=94),
    Message('note_on', channel=4, note=67, velocity=92, time=2),
    Message('note_on', channel=4, note=67, velocity=0, time=46),
    Message('note_on', channel=4, note=66, velocity=92, time=2),
    Message('note_on', channel=4, note=66, velocity=0, time=142),
    Message('note_on', channel=4, note=67, velocity=92, time=2),
    Message('note_on', channel=4, note=67, velocity=0, time=46),
    Message('note_on', channel=4, note=69, velocity=92, time=2),
    Message('note_on', channel=4, note=69, velocity=0, time=46),
    Message('note_on', channel=4, note=67, velocity=92, time=2),
    Message('note_on', channel=4, note=67, velocity=0, time=94),
    Message('note_on', channel=4, note=67, velocity=92, time=2),
    Message('note_on', channel=4, note=67, velocity=0, time=46),
    Message('note_on', channel=4, note=69, velocity=92, time=2),
    Message('note_on', channel=4, note=69, velocity=0, time=46),
    Message('note_on', channel=4, note=71, velocity=92, time=2),
    Message('note_on', channel=4, note=71, velocity=0, time=94),
    Message('note_on', channel=4, note=67, velocity=92, time=9650),
    Message('note_on', channel=4, note=67, velocity=0, time=46),
    Message('note_on', channel=4, note=69, velocity=92, time=2),
    Message('note_on', channel=4, note=69, velocity=0, time=46),
    Message('note_on', channel=4, note=67, velocity=92, time=2),
    Message('note_on', channel=4, note=67, velocity=0, time=142),
    Message('note_on', channel=4, note=71, velocity=92, time=2),
    Message('note_on', channel=4, note=71, velocity=0, time=190),
    Message('note_on', channel=4, note=69, velocity=92, time=2),
    Message('note_on', channel=4, note=69, velocity=0, time=94),
    Message('note_on', channel=4, note=67, velocity=92, time=2),
    Message('note_on', channel=4, note=67, velocity=0, time=46),
    Message('note_on', channel=4, note=66, velocity=92, time=2),
    Message('note_on', channel=4, note=66, velocity=0, time=142),
    Message('note_on', channel=4, note=67, velocity=92, time=2),
    Message('note_on', channel=4, note=67, velocity=0, time=46),
    Message('note_on', channel=4, note=69, velocity=92, time=2),
    Message('note_on', channel=4, note=69, velocity=0, time=46),
    Message('note_on', channel=4, note=67, velocity=92, time=2),
    Message('note_on', channel=4, note=67, velocity=0, time=94),
    Message('note_on', channel=4, note=67, velocity=92, time=2),
    Message('note_on', channel=4, note=67, velocity=0, time=46),
    Message('note_on', channel=4, note=69, velocity=92, time=2),
    Message('note_on', channel=4, note=69, velocity=0, time=46),
    Message('note_on', channel=4, note=71, velocity=92, time=2),
    Message('note_on', channel=4, note=71, velocity=0, time=94),
    Message('note_on', channel=4, note=67, velocity=92, time=434),
    Message('note_on', channel=4, note=67, velocity=0, time=46),
    Message('note_on', channel=4, note=69, velocity=92, time=2),
    Message('note_on', channel=4, note=69, velocity=0, time=46),
    Message('note_on', channel=4, note=67, velocity=92, time=2),
    Message('note_on', channel=4, note=67, velocity=0, time=142),
    Message('note_on', channel=4, note=71, velocity=92, time=2),
    Message('note_on', channel=4, note=71, velocity=0, time=190),
    Message('note_on', channel=4, note=69, velocity=92, time=2),
    Message('note_on', channel=4, note=69, velocity=0, time=94),
    Message('note_on', channel=4, note=67, velocity=92, time=2),
    Message('note_on', channel=4, note=67, velocity=0, time=46),
    Message('note_on', channel=4, note=66, velocity=92, time=2),
    Message('note_on', channel=4, note=66, velocity=0, time=142),
    Message('note_on', channel=4, note=67, velocity=92, time=2),
    Message('note_on', channel=4, note=67, velocity=0, time=46),
    Message('note_on', channel=4, note=73, velocity=92, time=2),
    Message('note_on', channel=4, note=73, velocity=0, time=46),
    Message('note_on', channel=4, note=74, velocity=92, time=2),
    Message('note_on', channel=4, note=74, velocity=0, time=94),
    Message('note_on', channel=4, note=71, velocity=92, time=2),
    Message('note_on', channel=4, note=71, velocity=0, time=46),
    Message('note_on', channel=4, note=74, velocity=92, time=2),
    Message('note_on', channel=4, note=74, velocity=0, time=46),
    Message('note_on', channel=4, note=71, velocity=92, time=2),
    Message('note_on', channel=4, note=71, velocity=0, time=94),
    Message('note_on', channel=4, note=67, velocity=92, time=434),
    Message('note_on', channel=4, note=67, velocity=0, time=46),
    Message('note_on', channel=4, note=69, velocity=92, time=2),
    Message('note_on', channel=4, note=69, velocity=0, time=46),
    Message('note_on', channel=4, note=67, velocity=92, time=2),
    Message('note_on', channel=4, note=67, velocity=0, time=142),
    Message('note_on', channel=4, note=71, velocity=92, time=2),
    Message('note_on', channel=4, note=71, velocity=0, time=190),
    Message('note_on', channel=4, note=69, velocity=92, time=2),
    Message('note_on', channel=4, note=69, velocity=0, time=94),
    Message('note_on', channel=4, note=67, velocity=92, time=2),
    Message('note_on', channel=4, note=67, velocity=0, time=46),
    Message('note_on', channel=4, note=66, velocity=92, time=2),
    Message('note_on', channel=4, note=66, velocity=0, time=142),
    Message('note_on', channel=4, note=67, velocity=92, time=2),
    Message('note_on', channel=4, note=67, velocity=0, time=46),
    Message('note_on', channel=4, note=69, velocity=92, time=2),
    Message('note_on', channel=4, note=69, velocity=0, time=46),
    Message('note_on', channel=4, note=67, velocity=92, time=2),
    Message('note_on', channel=4, note=67, velocity=0, time=94),
    Message('note_on', channel=4, note=67, velocity=92, time=2),
    Message('note_on', channel=4, note=67, velocity=0, time=46),
    Message('note_on', channel=4, note=69, velocity=92, time=2),
    Message('note_on', channel=4, note=69, velocity=0, time=46),
    Message('note_on', channel=4, note=71, velocity=92, time=2),
    Message('note_on', channel=4, note=71, velocity=0, time=94),
    MetaMessage('end_of_track', time=0)]),
  MidiTrack([
    MetaMessage('midi_port', port=0, time=0),
    MetaMessage('text', text='Kretz (Drums)', time=0),
    MetaMessage('track_name', name='Kretz (Drums)', time=0),
    MetaMessage('instrument_name', name='Kretz (Drums)', time=0),
    Message('control_change', channel=9, control=7, value=127, time=0),
    Message('control_change', channel=9, control=10, value=64, time=0),
    Message('note_on', channel=9, note=35, velocity=92, time=0),
    Message('note_on', channel=9, note=59, velocity=92, time=0),
    Message('note_on', channel=9, note=35, velocity=0, time=94),
    Message('note_on', channel=9, note=59, velocity=0, time=0),
    Message('note_on', channel=9, note=59, velocity=92, time=2),
    Message('note_on', channel=9, note=59, velocity=0, time=94),
    Message('note_on', channel=9, note=40, velocity=92, time=2),
    Message('note_on', channel=9, note=59, velocity=92, time=0),
    Message('note_on', channel=9, note=40, velocity=0, time=94),
    Message('note_on', channel=9, note=59, velocity=0, time=0),
    Message('note_on', channel=9, note=59, velocity=92, time=2),
    Message('note_on', channel=9, note=59, velocity=0, time=46),
    Message('note_on', channel=9, note=40, velocity=84, time=2),
    Message('note_on', channel=9, note=40, velocity=0, time=10),
    Message('note_on', channel=9, note=40, velocity=45, time=2),
    Message('note_on', channel=9, note=40, velocity=0, time=10),
    Message('note_on', channel=9, note=40, velocity=45, time=2),
    Message('note_on', channel=9, note=40, velocity=0, time=10),
    Message('note_on', channel=9, note=40, velocity=45, time=2),
    Message('note_on', channel=9, note=40, velocity=0, time=10),
    Message('note_on', channel=9, note=59, velocity=92, time=2),
    Message('note_on', channel=9, note=59, velocity=0, time=46),
    Message('note_on', channel=9, note=35, velocity=92, time=2),
    Message('note_on', channel=9, note=35, velocity=0, time=46),
    Message('note_on', channel=9, note=35, velocity=92, time=2),
    Message('note_on', channel=9, note=59, velocity=92, time=0),
    Message('note_on', channel=9, note=35, velocity=0, time=94),
    Message('note_on', channel=9, note=59, velocity=0, time=0),
    Message('note_on', channel=9, note=40, velocity=92, time=2),
    Message('note_on', channel=9, note=59, velocity=92, time=0),
    Message('note_on', channel=9, note=40, velocity=0, time=94),
    Message('note_on', channel=9, note=59, velocity=0, time=0),
    Message('note_on', channel=9, note=59, velocity=92, time=2),
    Message('note_on', channel=9, note=59, velocity=0, time=46),
    Message('note_on', channel=9, note=40, velocity=84, time=2),
    Message('note_on', channel=9, note=40, velocity=0, time=10),
    Message('note_on', channel=9, note=40, velocity=45, time=2),
    Message('note_on', channel=9, note=40, velocity=0, time=10),
    Message('note_on', channel=9, note=40, velocity=45, time=2),
    Message('note_on', channel=9, note=40, velocity=0, time=10),
    Message('note_on', channel=9, note=40, velocity=45, time=2),
    Message('note_on', channel=9, note=40, velocity=0, time=10),
    Message('note_on', channel=9, note=35, velocity=92, time=2),
    Message('note_on', channel=9, note=57, velocity=92, time=0),
    Message('note_on', channel=9, note=35, velocity=0, time=94),
    Message('note_on', channel=9, note=57, velocity=0, time=0),
    Message('note_on', channel=9, note=59, velocity=92, time=2),
    Message('note_on', channel=9, note=59, velocity=0, time=94),
    Message('note_on', channel=9, note=40, velocity=92, time=2),
    Message('note_on', channel=9, note=59, velocity=92, time=0),
    Message('note_on', channel=9, note=40, velocity=0, time=94),
    Message('note_on', channel=9, note=59, velocity=0, time=0),
    Message('note_on', channel=9, note=59, velocity=92, time=2),
    Message('note_on', channel=9, note=59, velocity=0, time=46),
    Message('note_on', channel=9, note=40, velocity=84, time=2),
    Message('note_on', channel=9, note=40, velocity=0, time=10),
    Message('note_on', channel=9, note=40, velocity=45, time=2),
    Message('note_on', channel=9, note=40, velocity=0, time=10),
    Message('note_on', channel=9, note=40, velocity=45, time=2),
    Message('note_on', channel=9, note=40, velocity=0, time=10),
    Message('note_on', channel=9, note=40, velocity=45, time=2),
    Message('note_on', channel=9, note=40, velocity=0, time=10),
    Message('note_on', channel=9, note=59, velocity=92, time=2),
    Message('note_on', channel=9, note=59, velocity=0, time=46),
    Message('note_on', channel=9, note=35, velocity=92, time=2),
    Message('note_on', channel=9, note=35, velocity=0, time=46),
    Message('note_on', channel=9, note=35, velocity=92, time=2),
    Message('note_on', channel=9, note=59, velocity=92, time=0),
    Message('note_on', channel=9, note=35, velocity=0, time=94),
    Message('note_on', channel=9, note=59, velocity=0, time=0),
    Message('note_on', channel=9, note=40, velocity=92, time=2),
    Message('note_on', channel=9, note=59, velocity=92, time=0),
    Message('note_on', channel=9, note=40, velocity=0, time=94),
    Message('note_on', channel=9, note=59, velocity=0, time=0),
    Message('note_on', channel=9, note=59, velocity=92, time=2),
    Message('note_on', channel=9, note=59, velocity=0, time=46),
    Message('note_on', channel=9, note=40, velocity=84, time=2),
    Message('note_on', channel=9, note=40, velocity=0, time=10),
    Message('note_on', channel=9, note=40, velocity=45, time=2),
    Message('note_on', channel=9, note=40, velocity=0, time=10),
    Message('note_on', channel=9, note=40, velocity=45, time=2),
    Message('note_on', channel=9, note=40, velocity=0, time=10),
    Message('note_on', channel=9, note=40, velocity=45, time=2),
    Message('note_on', channel=9, note=40, velocity=0, time=10),
    Message('note_on', channel=9, note=35, velocity=92, time=2),
    Message('note_on', channel=9, note=57, velocity=92, time=0),
    Message('note_on', channel=9, note=35, velocity=0, time=94),
    Message('note_on', channel=9, note=57, velocity=0, time=0),
    Message('note_on', channel=9, note=59, velocity=92, time=2),
    Message('note_on', channel=9, note=59, velocity=0, time=94),
    Message('note_on', channel=9, note=40, velocity=92, time=2),
    Message('note_on', channel=9, note=59, velocity=92, time=0),
    Message('note_on', channel=9, note=40, velocity=0, time=94),
    Message('note_on', channel=9, note=59, velocity=0, time=0),
    Message('note_on', channel=9, note=59, velocity=92, time=2),
    Message('note_on', channel=9, note=59, velocity=0, time=46),
    Message('note_on', channel=9, note=40, velocity=127, time=2),
    Message('note_on', channel=9, note=40, velocity=0, time=46),
    Message('note_on', channel=9, note=59, velocity=92, time=2),
    Message('note_on', channel=9, note=59, velocity=0, time=46),
    Message('note_on', channel=9, note=35, velocity=92, time=2),
    Message('note_on', channel=9, note=35, velocity=0, time=46),
    Message('note_on', channel=9, note=35, velocity=92, time=2),
    Message('note_on', channel=9, note=59, velocity=92, time=0),
    Message('note_on', channel=9, note=35, velocity=0, time=94),
    Message('note_on', channel=9, note=59, velocity=0, time=0),
    Message('note_on', channel=9, note=40, velocity=92, time=2),
    Message('note_on', channel=9, note=50, velocity=92, time=0),
    Message('note_on', channel=9, note=40, velocity=0, time=10),
    Message('note_on', channel=9, note=40, velocity=45, time=2),
    Message('note_on', channel=9, note=40, velocity=0, time=10),
    Message('note_on', channel=9, note=40, velocity=45, time=2),
    Message('note_on', channel=9, note=40, velocity=0, time=10),
    Message('note_on', channel=9, note=40, velocity=45, time=2),
    Message('note_on', channel=9, note=50, velocity=0, time=10),
    Message('note_on', channel=9, note=40, velocity=0, time=0),
    Message('note_on', channel=9, note=35, velocity=92, time=2),
    Message('note_on', channel=9, note=35, velocity=0, time=46),
    Message('note_on', channel=9, note=40, velocity=92, time=2),
    Message('note_on', channel=9, note=47, velocity=92, time=0),
    Message('note_on', channel=9, note=40, velocity=0, time=10),
    Message('note_on', channel=9, note=40, velocity=45, time=2),
    Message('note_on', channel=9, note=40, velocity=0, time=10),
    Message('note_on', channel=9, note=40, velocity=45, time=2),
    Message('note_on', channel=9, note=40, velocity=0, time=10),
    Message('note_on', channel=9, note=40, velocity=45, time=2),
    Message('note_on', channel=9, note=47, velocity=0, time=10),
    Message('note_on', channel=9, note=40, velocity=0, time=0),
    Message('note_on', channel=9, note=35, velocity=92, time=2),
    Message('note_on', channel=9, note=35, velocity=0, time=46),
    Message('note_on', channel=9, note=35, velocity=92, time=2),
    Message('note_on', channel=9, note=57, velocity=92, time=0),
    Message('note_on', channel=9, note=35, velocity=0, time=94),
    Message('note_on', channel=9, note=57, velocity=0, time=0),
    Message('note_on', channel=9, note=59, velocity=92, time=2),
    Message('note_on', channel=9, note=59, velocity=0, time=94),
    Message('note_on', channel=9, note=40, velocity=92, time=2),
    Message('note_on', channel=9, note=59, velocity=92, time=0),
    Message('note_on', channel=9, note=40, velocity=0, time=94),
    Message('note_on', channel=9, note=59, velocity=0, time=0),
    Message('note_on', channel=9, note=59, velocity=92, time=2),
    Message('note_on', channel=9, note=59, velocity=0, time=46),
    Message('note_on', channel=9, note=35, velocity=92, time=2),
    Message('note_on', channel=9, note=35, velocity=0, time=46),
    Message('note_on', channel=9, note=35, velocity=92, time=2),
    Message('note_on', channel=9, note=55, velocity=92, time=0),
    Message('note_on', channel=9, note=35, velocity=0, time=94),
    Message('note_on', channel=9, note=55, velocity=0, time=0),
    Message('control_change', channel=9, control=7, value=47, time=98),
    Message('note_on', channel=9, note=45, velocity=92, time=0),
    Message('control_change', channel=9, control=7, value=48, time=2),
    Message('control_change', channel=9, control=7, value=49, time=2),
    Message('control_change', channel=9, control=7, value=50, time=3),
    Message('control_change', channel=9, control=7, value=51, time=2),
    Message('control_change', channel=9, control=7, value=52, time=3),
    Message('control_change', channel=9, control=7, value=53, time=2),
    Message('note_on', channel=9, note=45, velocity=0, time=0),
    Message('control_change', channel=9, control=7, value=54, time=2),
    Message('note_on', channel=9, note=45, velocity=92, time=0),
    Message('control_change', channel=9, control=7, value=55, time=3),
    Message('control_change', channel=9, control=7, value=56, time=2),
    Message('control_change', channel=9, control=7, value=57, time=3),
    Message('control_change', channel=9, control=7, value=58, time=2),
    Message('control_change', channel=9, control=7, value=59, time=2),
    Message('note_on', channel=9, note=45, velocity=0, time=2),
    Message('control_change', channel=9, control=7, value=60, time=1),
    Message('note_on', channel=9, note=45, velocity=92, time=1),
    Message('control_change', channel=9, control=7, value=61, time=1),
    Message('control_change', channel=9, control=7, value=62, time=3),
    Message('control_change', channel=9, control=7, value=63, time=2),
    Message('control_change', channel=9, control=7, value=64, time=2),
    Message('control_change', channel=9, control=7, value=65, time=3),
    Message('control_change', channel=9, control=7, value=66, time=2),
    Message('note_on', channel=9, note=45, velocity=0, time=1),
    Message('control_change', channel=9, control=7, value=67, time=2),
    Message('note_on', channel=9, note=45, velocity=92, time=0),
    Message('control_change', channel=9, control=7, value=68, time=2),
    Message('control_change', channel=9, control=7, value=69, time=2),
    Message('control_change', channel=9, control=7, value=70, time=3),
    Message('control_change', channel=9, control=7, value=71, time=2),
    Message('control_change', channel=9, control=7, value=72, time=3),
    Message('control_change', channel=9, control=7, value=73, time=2),
    Message('note_on', channel=9, note=45, velocity=0, time=0),
    Message('control_change', channel=9, control=7, value=74, time=2),
    Message('note_on', channel=9, note=45, velocity=92, time=0),
    Message('control_change', channel=9, control=7, value=75, time=3),
    Message('control_change', channel=9, control=7, value=76, time=2),
    Message('control_change', channel=9, control=7, value=77, time=3),
    Message('control_change', channel=9, control=7, value=78, time=2),
    Message('control_change', channel=9, control=7, value=79, time=2),
    Message('note_on', channel=9, note=45, velocity=0, time=2),
    Message('control_change', channel=9, control=7, value=80, time=1),
    Message('note_on', channel=9, note=45, velocity=92, time=1),
    Message('control_change', channel=9, control=7, value=81, time=1),
    Message('control_change', channel=9, control=7, value=82, time=3),
    Message('control_change', channel=9, control=7, value=83, time=2),
    Message('control_change', channel=9, control=7, value=84, time=2),
    Message('control_change', channel=9, control=7, value=85, time=3),
    Message('control_change', channel=9, control=7, value=86, time=2),
    Message('note_on', channel=9, note=45, velocity=0, time=1),
    Message('control_change', channel=9, control=7, value=87, time=2),
    Message('note_on', channel=9, note=45, velocity=92, time=0),
    Message('control_change', channel=9, control=7, value=88, time=2),
    Message('control_change', channel=9, control=7, value=89, time=2),
    Message('control_change', channel=9, control=7, value=90, time=3),
    Message('control_change', channel=9, control=7, value=91, time=2),
    Message('control_change', channel=9, control=7, value=92, time=3),
    Message('control_change', channel=9, control=7, value=93, time=2),
    Message('note_on', channel=9, note=45, velocity=0, time=0),
    Message('control_change', channel=9, control=7, value=94, time=2),
    Message('note_on', channel=9, note=45, velocity=92, time=0),
    Message('control_change', channel=9, control=7, value=95, time=3),
    Message('control_change', channel=9, control=7, value=96, time=2),
    Message('control_change', channel=9, control=7, value=97, time=3),
    Message('control_change', channel=9, control=7, value=98, time=2),
    Message('control_change', channel=9, control=7, value=99, time=2),
    Message('note_on', channel=9, note=45, velocity=0, time=2),
    Message('control_change', channel=9, control=7, value=100, time=1),
    Message('note_on', channel=9, note=45, velocity=92, time=1),
    Message('control_change', channel=9, control=7, value=101, time=1),
    Message('control_change', channel=9, control=7, value=102, time=3),
    Message('control_change', channel=9, control=7, value=103, time=2),
    Message('control_change', channel=9, control=7, value=104, time=2),
    Message('control_change', channel=9, control=7, value=105, time=3),
    Message('control_change', channel=9, control=7, value=106, time=2),
    Message('note_on', channel=9, note=45, velocity=0, time=1),
    Message('control_change', channel=9, control=7, value=107, time=2),
    Message('note_on', channel=9, note=45, velocity=92, time=0),
    Message('control_change', channel=9, control=7, value=108, time=2),
    Message('control_change', channel=9, control=7, value=109, time=2),
    Message('control_change', channel=9, control=7, value=110, time=3),
    Message('control_change', channel=9, control=7, value=111, time=2),
    Message('control_change', channel=9, control=7, value=112, time=3),
    Message('control_change', channel=9, control=7, value=113, time=2),
    Message('note_on', channel=9, note=45, velocity=0, time=0),
    Message('control_change', channel=9, control=7, value=114, time=2),
    Message('note_on', channel=9, note=45, velocity=92, time=0),
    Message('control_change', channel=9, control=7, value=115, time=3),
    Message('control_change', channel=9, control=7, value=116, time=2),
    Message('control_change', channel=9, control=7, value=117, time=3),
    Message('control_change', channel=9, control=7, value=118, time=2),
    Message('control_change', channel=9, control=7, value=119, time=2),
    Message('note_on', channel=9, note=45, velocity=0, time=2),
    Message('control_change', channel=9, control=7, value=120, time=1),
    Message('note_on', channel=9, note=45, velocity=92, time=1),
    Message('control_change', channel=9, control=7, value=121, time=1),
    Message('control_change', channel=9, control=7, value=122, time=3),
    Message('control_change', channel=9, control=7, value=123, time=2),
    Message('control_change', channel=9, control=7, value=124, time=2),
    Message('control_change', channel=9, control=7, value=125, time=3),
    Message('control_change', channel=9, control=7, value=126, time=2),
    Message('note_on', channel=9, note=45, velocity=0, time=1),
    Message('control_change', channel=9, control=7, value=127, time=2),
    Message('note_on', channel=9, note=35, velocity=92, time=0),
    Message('note_on', channel=9, note=45, velocity=92, time=0),
    Message('note_on', channel=9, note=57, velocity=92, time=0),
    Message('note_on', channel=9, note=35, velocity=0, time=528),
    Message('note_on', channel=9, note=45, velocity=0, time=0),
    Message('note_on', channel=9, note=57, velocity=0, time=0),
    Message('note_on', channel=9, note=50, velocity=92, time=96),
    Message('note_on', channel=9, note=50, velocity=0, time=46),
    Message('note_on', channel=9, note=47, velocity=92, time=2),
    Message('note_on', channel=9, note=47, velocity=0, time=94),
    Message('note_on', channel=9, note=35, velocity=92, time=2),
    Message('note_on', channel=9, note=57, velocity=92, time=0),
    Message('note_on', channel=9, note=35, velocity=0, time=94),
    Message('note_on', channel=9, note=57, velocity=0, time=0),
    Message('note_on', channel=9, note=59, velocity=92, time=2),
    Message('note_on', channel=9, note=59, velocity=0, time=94),
    Message('note_on', channel=9, note=40, velocity=92, time=2),
    Message('note_on', channel=9, note=59, velocity=92, time=0),
    Message('note_on', channel=9, note=40, velocity=0, time=94),
    Message('note_on', channel=9, note=59, velocity=0, time=0),
    Message('note_on', channel=9, note=59, velocity=92, time=2),
    Message('note_on', channel=9, note=59, velocity=0, time=46),
    Message('note_on', channel=9, note=40, velocity=84, time=2),
    Message('note_on', channel=9, note=40, velocity=0, time=10),
    Message('note_on', channel=9, note=40, velocity=45, time=2),
    Message('note_on', channel=9, note=40, velocity=0, time=10),
    Message('note_on', channel=9, note=40, velocity=45, time=2),
    Message('note_on', channel=9, note=40, velocity=0, time=10),
    Message('note_on', channel=9, note=40, velocity=45, time=2),
    Message('note_on', channel=9, note=40, velocity=0, time=10),
    Message('note_on', channel=9, note=59, velocity=92, time=2),
    Message('note_on', channel=9, note=59, velocity=0, time=46),
    Message('note_on', channel=9, note=35, velocity=92, time=2),
    Message('note_on', channel=9, note=35, velocity=0, time=46),
    Message('note_on', channel=9, note=35, velocity=92, time=2),
    Message('note_on', channel=9, note=59, velocity=92, time=0),
    Message('note_on', channel=9, note=35, velocity=0, time=94),
    Message('note_on', channel=9, note=59, velocity=0, time=0),
    Message('note_on', channel=9, note=40, velocity=92, time=2),
    Message('note_on', channel=9, note=59, velocity=92, time=0),
    Message('note_on', channel=9, note=40, velocity=0, time=94),
    Message('note_on', channel=9, note=59, velocity=0, time=0),
    Message('note_on', channel=9, note=59, velocity=92, time=2),
    Message('note_on', channel=9, note=59, velocity=0, time=46),
    Message('note_on', channel=9, note=40, velocity=84, time=2),
    Message('note_on', channel=9, note=40, velocity=0, time=10),
    Message('note_on', channel=9, note=40, velocity=45, time=2),
    Message('note_on', channel=9, note=40, velocity=0, time=10),
    Message('note_on', channel=9, note=40, velocity=45, time=2),
    Message('note_on', channel=9, note=40, velocity=0, time=10),
    Message('note_on', channel=9, note=40, velocity=45, time=2),
    Message('note_on', channel=9, note=40, velocity=0, time=10),
    Message('note_on', channel=9, note=35, velocity=92, time=2),
    Message('note_on', channel=9, note=59, velocity=92, time=0),
    Message('note_on', channel=9, note=35, velocity=0, time=94),
    Message('note_on', channel=9, note=59, velocity=0, time=0),
    Message('note_on', channel=9, note=59, velocity=92, time=2),
    Message('note_on', channel=9, note=59, velocity=0, time=94),
    Message('note_on', channel=9, note=40, velocity=92, time=2),
    Message('note_on', channel=9, note=59, velocity=92, time=0),
    Message('note_on', channel=9, note=40, velocity=0, time=94),
    Message('note_on', channel=9, note=59, velocity=0, time=0),
    Message('note_on', channel=9, note=59, velocity=92, time=2),
    Message('note_on', channel=9, note=59, velocity=0, time=46),
    Message('note_on', channel=9, note=40, velocity=84, time=2),
    Message('note_on', channel=9, note=40, velocity=0, time=10),
    Message('note_on', channel=9, note=40, velocity=45, time=2),
    Message('note_on', channel=9, note=40, velocity=0, time=10),
    Message('note_on', channel=9, note=40, velocity=45, time=2),
    Message('note_on', channel=9, note=40, velocity=0, time=10),
    Message('note_on', channel=9, note=40, velocity=45, time=2),
    Message('note_on', channel=9, note=40, velocity=0, time=10),
    Message('note_on', channel=9, note=59, velocity=92, time=2),
    Message('note_on', channel=9, note=59, velocity=0, time=46),
    Message('note_on', channel=9, note=35, velocity=92, time=2),
    Message('note_on', channel=9, note=35, velocity=0, time=46),
    Message('note_on', channel=9, note=35, velocity=92, time=2),
    Message('note_on', channel=9, note=59, velocity=92, time=0),
    Message('note_on', channel=9, note=35, velocity=0, time=94),
    Message('note_on', channel=9, note=59, velocity=0, time=0),
    Message('note_on', channel=9, note=40, velocity=92, time=2),
    Message('note_on', channel=9, note=59, velocity=92, time=0),
    Message('note_on', channel=9, note=40, velocity=0, time=94),
    Message('note_on', channel=9, note=59, velocity=0, time=0),
    Message('note_on', channel=9, note=59, velocity=92, time=2),
    Message('note_on', channel=9, note=59, velocity=0, time=46),
    Message('note_on', channel=9, note=40, velocity=84, time=2),
    Message('note_on', channel=9, note=40, velocity=0, time=10),
    Message('note_on', channel=9, note=40, velocity=45, time=2),
    Message('note_on', channel=9, note=40, velocity=0, time=10),
    Message('note_on', channel=9, note=40, velocity=45, time=2),
    Message('note_on', channel=9, note=40, velocity=0, time=10),
    Message('note_on', channel=9, note=40, velocity=45, time=2),
    Message('note_on', channel=9, note=40, velocity=0, time=10),
    Message('note_on', channel=9, note=35, velocity=92, time=2),
    Message('note_on', channel=9, note=59, velocity=92, time=0),
    Message('note_on', channel=9, note=35, velocity=0, time=94),
    Message('note_on', channel=9, note=59, velocity=0, time=0),
    Message('note_on', channel=9, note=59, velocity=92, time=2),
    Message('note_on', channel=9, note=59, velocity=0, time=94),
    Message('note_on', channel=9, note=40, velocity=92, time=2),
    Message('note_on', channel=9, note=59, velocity=92, time=0),
    Message('note_on', channel=9, note=40, velocity=0, time=94),
    Message('note_on', channel=9, note=59, velocity=0, time=0),
    Message('note_on', channel=9, note=59, velocity=92, time=2),
    Message('note_on', channel=9, note=59, velocity=0, time=46),
    Message('note_on', channel=9, note=40, velocity=84, time=2),
    Message('note_on', channel=9, note=40, velocity=0, time=10),
    Message('note_on', channel=9, note=40, velocity=45, time=2),
    Message('note_on', channel=9, note=40, velocity=0, time=10),
    Message('note_on', channel=9, note=40, velocity=45, time=2),
    Message('note_on', channel=9, note=40, velocity=0, time=10),
    Message('note_on', channel=9, note=40, velocity=45, time=2),
    Message('note_on', channel=9, note=40, velocity=0, time=10),
    Message('note_on', channel=9, note=59, velocity=92, time=2),
    Message('note_on', channel=9, note=59, velocity=0, time=46),
    Message('note_on', channel=9, note=35, velocity=92, time=2),
    Message('note_on', channel=9, note=35, velocity=0, time=46),
    Message('note_on', channel=9, note=35, velocity=92, time=2),
    Message('note_on', channel=9, note=59, velocity=92, time=0),
    Message('note_on', channel=9, note=35, velocity=0, time=94),
    Message('note_on', channel=9, note=59, velocity=0, time=0),
    Message('note_on', channel=9, note=40, velocity=92, time=2),
    Message('note_on', channel=9, note=59, velocity=92, time=0),
    Message('note_on', channel=9, note=40, velocity=0, time=94),
    Message('note_on', channel=9, note=59, velocity=0, time=0),
    Message('note_on', channel=9, note=59, velocity=92, time=2),
    Message('note_on', channel=9, note=59, velocity=0, time=46),
    Message('note_on', channel=9, note=40, velocity=84, time=2),
    Message('note_on', channel=9, note=40, velocity=0, time=10),
    Message('note_on', channel=9, note=40, velocity=45, time=2),
    Message('note_on', channel=9, note=40, velocity=0, time=10),
    Message('note_on', channel=9, note=40, velocity=45, time=2),
    Message('note_on', channel=9, note=40, velocity=0, time=10),
    Message('note_on', channel=9, note=40, velocity=45, time=2),
    Message('note_on', channel=9, note=40, velocity=0, time=10),
    Message('note_on', channel=9, note=35, velocity=92, time=2),
    Message('note_on', channel=9, note=59, velocity=92, time=0),
    Message('note_on', channel=9, note=35, velocity=0, time=94),
    Message('note_on', channel=9, note=59, velocity=0, time=0),
    Message('note_on', channel=9, note=59, velocity=92, time=2),
    Message('note_on', channel=9, note=59, velocity=0, time=94),
    Message('note_on', channel=9, note=40, velocity=92, time=2),
    Message('note_on', channel=9, note=59, velocity=92, time=0),
    Message('note_on', channel=9, note=40, velocity=0, time=94),
    Message('note_on', channel=9, note=59, velocity=0, time=0),
    Message('note_on', channel=9, note=59, velocity=92, time=2),
    Message('note_on', channel=9, note=59, velocity=0, time=46),
    Message('note_on', channel=9, note=40, velocity=84, time=2),
    Message('note_on', channel=9, note=40, velocity=0, time=10),
    Message('note_on', channel=9, note=40, velocity=45, time=2),
    Message('note_on', channel=9, note=40, velocity=0, time=10),
    Message('note_on', channel=9, note=40, velocity=45, time=2),
    Message('note_on', channel=9, note=40, velocity=0, time=10),
    Message('note_on', channel=9, note=40, velocity=45, time=2),
    Message('note_on', channel=9, note=40, velocity=0, time=10),
    Message('note_on', channel=9, note=59, velocity=92, time=2),
    Message('note_on', channel=9, note=59, velocity=0, time=46),
    Message('note_on', channel=9, note=35, velocity=92, time=2),
    Message('note_on', channel=9, note=35, velocity=0, time=46),
    Message('note_on', channel=9, note=35, velocity=92, time=2),
    Message('note_on', channel=9, note=59, velocity=92, time=0),
    Message('note_on', channel=9, note=35, velocity=0, time=94),
    Message('note_on', channel=9, note=59, velocity=0, time=0),
    Message('note_on', channel=9, note=40, velocity=92, time=2),
    Message('note_on', channel=9, note=59, velocity=92, time=0),
    Message('note_on', channel=9, note=40, velocity=0, time=94),
    Message('note_on', channel=9, note=59, velocity=0, time=0),
    Message('note_on', channel=9, note=59, velocity=92, time=2),
    Message('note_on', channel=9, note=59, velocity=0, time=46),
    Message('note_on', channel=9, note=40, velocity=84, time=2),
    Message('note_on', channel=9, note=40, velocity=0, time=10),
    Message('note_on', channel=9, note=40, velocity=45, time=2),
    Message('note_on', channel=9, note=40, velocity=0, time=10),
    Message('note_on', channel=9, note=40, velocity=45, time=2),
    Message('note_on', channel=9, note=40, velocity=0, time=10),
    Message('note_on', channel=9, note=40, velocity=45, time=2),
    Message('note_on', channel=9, note=40, velocity=0, time=10),
    Message('note_on', channel=9, note=35, velocity=92, time=2),
    Message('note_on', channel=9, note=59, velocity=92, time=0),
    Message('note_on', channel=9, note=35, velocity=0, time=94),
    Message('note_on', channel=9, note=59, velocity=0, time=0),
    Message('note_on', channel=9, note=59, velocity=92, time=2),
    Message('note_on', channel=9, note=59, velocity=0, time=94),
    Message('note_on', channel=9, note=40, velocity=92, time=2),
    Message('note_on', channel=9, note=59, velocity=92, time=0),
    Message('note_on', channel=9, note=40, velocity=0, time=94),
    Message('note_on', channel=9, note=59, velocity=0, time=0),
    Message('note_on', channel=9, note=59, velocity=92, time=2),
    Message('note_on', channel=9, note=59, velocity=0, time=46),
    Message('note_on', channel=9, note=40, velocity=84, time=2),
    Message('note_on', channel=9, note=40, velocity=0, time=10),
    Message('note_on', channel=9, note=40, velocity=45, time=2),
    Message('note_on', channel=9, note=40, velocity=0, time=10),
    Message('note_on', channel=9, note=40, velocity=45, time=2),
    Message('note_on', channel=9, note=40, velocity=0, time=10),
    Message('note_on', channel=9, note=40, velocity=45, time=2),
    Message('note_on', channel=9, note=40, velocity=0, time=10),
    Message('note_on', channel=9, note=59, velocity=92, time=2),
    Message('note_on', channel=9, note=59, velocity=0, time=46),
    Message('note_on', channel=9, note=35, velocity=92, time=2),
    Message('note_on', channel=9, note=35, velocity=0, time=46),
    Message('note_on', channel=9, note=35, velocity=92, time=2),
    Message('note_on', channel=9, note=59, velocity=92, time=0),
    Message('note_on', channel=9, note=35, velocity=0, time=94),
    Message('note_on', channel=9, note=59, velocity=0, time=0),
    Message('note_on', channel=9, note=40, velocity=92, time=2),
    Message('note_on', channel=9, note=59, velocity=92, time=0),
    Message('note_on', channel=9, note=40, velocity=0, time=94),
    Message('note_on', channel=9, note=59, velocity=0, time=0),
    Message('note_on', channel=9, note=59, velocity=92, time=2),
    Message('note_on', channel=9, note=59, velocity=0, time=46),
    Message('note_on', channel=9, note=40, velocity=84, time=2),
    Message('note_on', channel=9, note=40, velocity=0, time=10),
    Message('note_on', channel=9, note=40, velocity=45, time=2),
    Message('note_on', channel=9, note=40, velocity=0, time=10),
    Message('note_on', channel=9, note=40, velocity=45, time=2),
    Message('note_on', channel=9, note=40, velocity=0, time=10),
    Message('note_on', channel=9, note=40, velocity=45, time=2),
    Message('note_on', channel=9, note=40, velocity=0, time=10),
    Message('note_on', channel=9, note=35, velocity=92, time=2),
    Message('note_on', channel=9, note=59, velocity=92, time=0),
    Message('note_on', channel=9, note=35, velocity=0, time=94),
    Message('note_on', channel=9, note=59, velocity=0, time=0),
    Message('note_on', channel=9, note=59, velocity=92, time=2),
    Message('note_on', channel=9, note=59, velocity=0, time=94),
    Message('note_on', channel=9, note=40, velocity=92, time=2),
    Message('note_on', channel=9, note=59, velocity=92, time=0),
    Message('note_on', channel=9, note=40, velocity=0, time=94),
    Message('note_on', channel=9, note=59, velocity=0, time=0),
    Message('note_on', channel=9, note=59, velocity=92, time=2),
    Message('note_on', channel=9, note=59, velocity=0, time=46),
    Message('note_on', channel=9, note=40, velocity=84, time=2),
    Message('note_on', channel=9, note=40, velocity=0, time=10),
    Message('note_on', channel=9, note=40, velocity=45, time=2),
    Message('note_on', channel=9, note=40, velocity=0, time=10),
    Message('note_on', channel=9, note=40, velocity=45, time=2),
    Message('note_on', channel=9, note=40, velocity=0, time=10),
    Message('note_on', channel=9, note=40, velocity=45, time=2),
    Message('note_on', channel=9, note=40, velocity=0, time=10),
    Message('note_on', channel=9, note=59, velocity=92, time=2),
    Message('note_on', channel=9, note=59, velocity=0, time=46),
    Message('note_on', channel=9, note=35, velocity=92, time=2),
    Message('note_on', channel=9, note=35, velocity=0, time=46),
    Message('note_on', channel=9, note=35, velocity=92, time=2),
    Message('note_on', channel=9, note=59, velocity=92, time=0),
    Message('note_on', channel=9, note=35, velocity=0, time=94),
    Message('note_on', channel=9, note=59, velocity=0, time=0),
    Message('note_on', channel=9, note=40, velocity=92, time=2),
    Message('note_on', channel=9, note=59, velocity=92, time=0),
    Message('note_on', channel=9, note=40, velocity=0, time=94),
    Message('note_on', channel=9, note=59, velocity=0, time=0),
    Message('note_on', channel=9, note=59, velocity=92, time=2),
    Message('note_on', channel=9, note=59, velocity=0, time=46),
    Message('note_on', channel=9, note=40, velocity=84, time=2),
    Message('note_on', channel=9, note=40, velocity=0, time=10),
    Message('note_on', channel=9, note=40, velocity=45, time=2),
    Message('note_on', channel=9, note=40, velocity=0, time=10),
    Message('note_on', channel=9, note=40, velocity=45, time=2),
    Message('note_on', channel=9, note=40, velocity=0, time=10),
    Message('note_on', channel=9, note=40, velocity=45, time=2),
    Message('note_on', channel=9, note=40, velocity=0, time=10),
    Message('note_on', channel=9, note=35, velocity=92, time=2),
    Message('note_on', channel=9, note=59, velocity=92, time=0),
    Message('note_on', channel=9, note=35, velocity=0, time=94),
    Message('note_on', channel=9, note=59, velocity=0, time=0),
    Message('note_on', channel=9, note=59, velocity=92, time=2),
    Message('note_on', channel=9, note=59, velocity=0, time=94),
    Message('note_on', channel=9, note=40, velocity=92, time=2),
    Message('note_on', channel=9, note=59, velocity=92, time=0),
    Message('note_on', channel=9, note=40, velocity=0, time=94),
    Message('note_on', channel=9, note=59, velocity=0, time=0),
    Message('note_on', channel=9, note=59, velocity=92, time=2),
    Message('note_on', channel=9, note=59, velocity=0, time=46),
    Message('note_on', channel=9, note=40, velocity=84, time=2),
    Message('note_on', channel=9, note=40, velocity=0, time=10),
    Message('note_on', channel=9, note=40, velocity=45, time=2),
    Message('note_on', channel=9, note=40, velocity=0, time=10),
    Message('note_on', channel=9, note=40, velocity=45, time=2),
    Message('note_on', channel=9, note=40, velocity=0, time=10),
    Message('note_on', channel=9, note=40, velocity=45, time=2),
    Message('note_on', channel=9, note=40, velocity=0, time=10),
    Message('note_on', channel=9, note=59, velocity=92, time=2),
    Message('note_on', channel=9, note=59, velocity=0, time=46),
    Message('note_on', channel=9, note=35, velocity=92, time=2),
    Message('note_on', channel=9, note=35, velocity=0, time=46),
    Message('note_on', channel=9, note=35, velocity=92, time=2),
    Message('note_on', channel=9, note=59, velocity=92, time=0),
    Message('note_on', channel=9, note=35, velocity=0, time=94),
    Message('note_on', channel=9, note=59, velocity=0, time=0),
    Message('note_on', channel=9, note=40, velocity=92, time=2),
    Message('note_on', channel=9, note=59, velocity=92, time=0),
    Message('note_on', channel=9, note=40, velocity=0, time=94),
    Message('note_on', channel=9, note=59, velocity=0, time=0),
    Message('note_on', channel=9, note=59, velocity=92, time=2),
    Message('note_on', channel=9, note=59, velocity=0, time=46),
    Message('note_on', channel=9, note=40, velocity=84, time=2),
    Message('note_on', channel=9, note=40, velocity=0, time=10),
    Message('note_on', channel=9, note=40, velocity=45, time=2),
    Message('note_on', channel=9, note=40, velocity=0, time=10),
    Message('note_on', channel=9, note=40, velocity=45, time=2),
    Message('note_on', channel=9, note=40, velocity=0, time=10),
    Message('note_on', channel=9, note=40, velocity=45, time=2),
    Message('note_on', channel=9, note=40, velocity=0, time=10),
    Message('note_on', channel=9, note=35, velocity=92, time=2),
    Message('note_on', channel=9, note=59, velocity=92, time=0),
    Message('note_on', channel=9, note=35, velocity=0, time=94),
    Message('note_on', channel=9, note=59, velocity=0, time=0),
    Message('note_on', channel=9, note=59, velocity=92, time=2),
    Message('note_on', channel=9, note=59, velocity=0, time=94),
    Message('note_on', channel=9, note=40, velocity=92, time=2),
    Message('note_on', channel=9, note=59, velocity=92, time=0),
    Message('note_on', channel=9, note=40, velocity=0, time=94),
    Message('note_on', channel=9, note=59, velocity=0, time=0),
    Message('note_on', channel=9, note=59, velocity=92, time=2),
    Message('note_on', channel=9, note=59, velocity=0, time=46),
    Message('note_on', channel=9, note=40, velocity=84, time=2),
    Message('note_on', channel=9, note=40, velocity=0, time=10),
    Message('note_on', channel=9, note=40, velocity=45, time=2),
    Message('note_on', channel=9, note=40, velocity=0, time=10),
    Message('note_on', channel=9, note=40, velocity=45, time=2),
    Message('note_on', channel=9, note=40, velocity=0, time=10),
    Message('note_on', channel=9, note=40, velocity=45, time=2),
    Message('note_on', channel=9, note=40, velocity=0, time=10),
    Message('note_on', channel=9, note=59, velocity=92, time=2),
    Message('note_on', channel=9, note=59, velocity=0, time=46),
    Message('note_on', channel=9, note=35, velocity=92, time=2),
    Message('note_on', channel=9, note=35, velocity=0, time=46),
    Message('note_on', channel=9, note=35, velocity=92, time=2),
    Message('note_on', channel=9, note=59, velocity=92, time=0),
    Message('note_on', channel=9, note=35, velocity=0, time=94),
    Message('note_on', channel=9, note=59, velocity=0, time=0),
    Message('note_on', channel=9, note=40, velocity=92, time=2),
    Message('note_on', channel=9, note=59, velocity=92, time=0),
    Message('note_on', channel=9, note=40, velocity=0, time=94),
    Message('note_on', channel=9, note=59, velocity=0, time=0),
    Message('note_on', channel=9, note=59, velocity=92, time=2),
    Message('note_on', channel=9, note=59, velocity=0, time=46),
    Message('note_on', channel=9, note=40, velocity=84, time=2),
    Message('note_on', channel=9, note=40, velocity=0, time=10),
    Message('note_on', channel=9, note=40, velocity=45, time=2),
    Message('note_on', channel=9, note=40, velocity=0, time=10),
    Message('note_on', channel=9, note=40, velocity=45, time=2),
    Message('note_on', channel=9, note=40, velocity=0, time=10),
    Message('note_on', channel=9, note=40, velocity=45, time=2),
    Message('note_on', channel=9, note=40, velocity=0, time=10),
    Message('note_on', channel=9, note=35, velocity=92, time=2),
    Message('note_on', channel=9, note=59, velocity=92, time=0),
    Message('note_on', channel=9, note=35, velocity=0, time=94),
    Message('note_on', channel=9, note=59, velocity=0, time=0),
    Message('note_on', channel=9, note=59, velocity=92, time=2),
    Message('note_on', channel=9, note=59, velocity=0, time=94),
    Message('note_on', channel=9, note=40, velocity=92, time=2),
    Message('note_on', channel=9, note=59, velocity=92, time=0),
    Message('note_on', channel=9, note=40, velocity=0, time=94),
    Message('note_on', channel=9, note=59, velocity=0, time=0),
    Message('note_on', channel=9, note=59, velocity=92, time=2),
    Message('note_on', channel=9, note=59, velocity=0, time=46),
    Message('note_on', channel=9, note=40, velocity=84, time=2),
    Message('note_on', channel=9, note=40, velocity=0, time=10),
    Message('note_on', channel=9, note=40, velocity=45, time=2),
    Message('note_on', channel=9, note=40, velocity=0, time=10),
    Message('note_on', channel=9, note=40, velocity=45, time=2),
    Message('note_on', channel=9, note=40, velocity=0, time=10),
    Message('note_on', channel=9, note=40, velocity=45, time=2),
    Message('note_on', channel=9, note=40, velocity=0, time=10),
    Message('note_on', channel=9, note=59, velocity=92, time=2),
    Message('note_on', channel=9, note=59, velocity=0, time=46),
    Message('note_on', channel=9, note=35, velocity=92, time=2),
    Message('note_on', channel=9, note=35, velocity=0, time=46),
    Message('note_on', channel=9, note=35, velocity=92, time=2),
    Message('note_on', channel=9, note=59, velocity=92, time=0),
    Message('note_on', channel=9, note=35, velocity=0, time=94),
    Message('note_on', channel=9, note=59, velocity=0, time=0),
    Message('note_on', channel=9, note=40, velocity=92, time=2),
    Message('note_on', channel=9, note=59, velocity=92, time=0),
    Message('note_on', channel=9, note=40, velocity=0, time=94),
    Message('note_on', channel=9, note=59, velocity=0, time=0),
    Message('note_on', channel=9, note=59, velocity=92, time=2),
    Message('note_on', channel=9, note=59, velocity=0, time=46),
    Message('note_on', channel=9, note=40, velocity=84, time=2),
    Message('note_on', channel=9, note=40, velocity=0, time=10),
    Message('note_on', channel=9, note=40, velocity=45, time=2),
    Message('note_on', channel=9, note=40, velocity=0, time=10),
    Message('note_on', channel=9, note=40, velocity=45, time=2),
    Message('note_on', channel=9, note=40, velocity=0, time=10),
    Message('note_on', channel=9, note=40, velocity=45, time=2),
    Message('note_on', channel=9, note=40, velocity=0, time=10),
    Message('note_on', channel=9, note=35, velocity=92, time=2),
    Message('note_on', channel=9, note=57, velocity=92, time=0),
    Message('note_on', channel=9, note=35, velocity=0, time=94),
    Message('note_on', channel=9, note=57, velocity=0, time=0),
    Message('note_on', channel=9, note=59, velocity=92, time=2),
    Message('note_on', channel=9, note=59, velocity=0, time=94),
    Message('note_on', channel=9, note=40, velocity=92, time=2),
    Message('note_on', channel=9, note=59, velocity=92, time=0),
    Message('note_on', channel=9, note=40, velocity=0, time=94),
    Message('note_on', channel=9, note=59, velocity=0, time=0),
    Message('note_on', channel=9, note=59, velocity=92, time=2),
    Message('note_on', channel=9, note=59, velocity=0, time=46),
    Message('note_on', channel=9, note=40, velocity=127, time=2),
    Message('note_on', channel=9, note=40, velocity=0, time=46),
    Message('note_on', channel=9, note=59, velocity=92, time=2),
    Message('note_on', channel=9, note=59, velocity=0, time=46),
    Message('note_on', channel=9, note=35, velocity=92, time=2),
    Message('note_on', channel=9, note=35, velocity=0, time=46),
    Message('note_on', channel=9, note=35, velocity=92, time=2),
    Message('note_on', channel=9, note=59, velocity=92, time=0),
    Message('note_on', channel=9, note=35, velocity=0, time=94),
    Message('note_on', channel=9, note=59, velocity=0, time=0),
    Message('note_on', channel=9, note=40, velocity=92, time=2),
    Message('note_on', channel=9, note=50, velocity=92, time=0),
    Message('note_on', channel=9, note=40, velocity=0, time=10),
    Message('note_on', channel=9, note=40, velocity=45, time=2),
    Message('note_on', channel=9, note=40, velocity=0, time=10),
    Message('note_on', channel=9, note=40, velocity=45, time=2),
    Message('note_on', channel=9, note=40, velocity=0, time=10),
    Message('note_on', channel=9, note=40, velocity=45, time=2),
    Message('note_on', channel=9, note=50, velocity=0, time=10),
    Message('note_on', channel=9, note=40, velocity=0, time=0),
    Message('note_on', channel=9, note=35, velocity=92, time=2),
    Message('note_on', channel=9, note=35, velocity=0, time=46),
    Message('note_on', channel=9, note=40, velocity=92, time=2),
    Message('note_on', channel=9, note=47, velocity=92, time=0),
    Message('note_on', channel=9, note=40, velocity=0, time=10),
    Message('note_on', channel=9, note=40, velocity=45, time=2),
    Message('note_on', channel=9, note=40, velocity=0, time=10),
    Message('note_on', channel=9, note=40, velocity=45, time=2),
    Message('note_on', channel=9, note=40, velocity=0, time=10),
    Message('note_on', channel=9, note=40, velocity=45, time=2),
    Message('note_on', channel=9, note=47, velocity=0, time=10),
    Message('note_on', channel=9, note=40, velocity=0, time=0),
    Message('note_on', channel=9, note=35, velocity=92, time=2),
    Message('note_on', channel=9, note=35, velocity=0, time=46),
    Message('note_on', channel=9, note=35, velocity=92, time=2),
    Message('note_on', channel=9, note=57, velocity=92, time=0),
    Message('note_on', channel=9, note=35, velocity=0, time=94),
    Message('note_on', channel=9, note=57, velocity=0, time=0),
    Message('note_on', channel=9, note=35, velocity=92, time=2),
    Message('note_on', channel=9, note=59, velocity=92, time=0),
    Message('note_on', channel=9, note=35, velocity=0, time=94),
    Message('note_on', channel=9, note=59, velocity=0, time=0),
    Message('note_on', channel=9, note=40, velocity=92, time=2),
    Message('note_on', channel=9, note=59, velocity=92, time=0),
    Message('note_on', channel=9, note=40, velocity=0, time=94),
    Message('note_on', channel=9, note=59, velocity=0, time=0),
    Message('note_on', channel=9, note=59, velocity=92, time=2),
    Message('note_on', channel=9, note=59, velocity=0, time=46),
    Message('note_on', channel=9, note=40, velocity=84, time=2),
    Message('note_on', channel=9, note=40, velocity=0, time=10),
    Message('note_on', channel=9, note=40, velocity=45, time=2),
    Message('note_on', channel=9, note=40, velocity=0, time=10),
    Message('note_on', channel=9, note=40, velocity=45, time=2),
    Message('note_on', channel=9, note=40, velocity=0, time=10),
    Message('note_on', channel=9, note=40, velocity=45, time=2),
    Message('note_on', channel=9, note=40, velocity=0, time=10),
    Message('note_on', channel=9, note=59, velocity=92, time=2),
    Message('note_on', channel=9, note=59, velocity=0, time=46),
    Message('note_on', channel=9, note=35, velocity=92, time=2),
    Message('note_on', channel=9, note=35, velocity=0, time=46),
    Message('note_on', channel=9, note=35, velocity=92, time=2),
    Message('note_on', channel=9, note=59, velocity=92, time=0),
    Message('note_on', channel=9, note=35, velocity=0, time=94),
    Message('note_on', channel=9, note=59, velocity=0, time=0),
    Message('note_on', channel=9, note=40, velocity=92, time=2),
    Message('note_on', channel=9, note=59, velocity=92, time=0),
    Message('note_on', channel=9, note=40, velocity=0, time=94),
    Message('note_on', channel=9, note=59, velocity=0, time=0),
    Message('note_on', channel=9, note=59, velocity=92, time=2),
    Message('note_on', channel=9, note=59, velocity=0, time=46),
    Message('note_on', channel=9, note=40, velocity=84, time=2),
    Message('note_on', channel=9, note=40, velocity=0, time=10),
    Message('note_on', channel=9, note=40, velocity=45, time=2),
    Message('note_on', channel=9, note=40, velocity=0, time=10),
    Message('note_on', channel=9, note=40, velocity=45, time=2),
    Message('note_on', channel=9, note=40, velocity=0, time=10),
    Message('note_on', channel=9, note=40, velocity=45, time=2),
    Message('note_on', channel=9, note=40, velocity=0, time=10),
    Message('note_on', channel=9, note=35, velocity=92, time=2),
    Message('note_on', channel=9, note=57, velocity=92, time=0),
    Message('note_on', channel=9, note=35, velocity=0, time=94),
    Message('note_on', channel=9, note=57, velocity=0, time=0),
    Message('note_on', channel=9, note=59, velocity=92, time=2),
    Message('note_on', channel=9, note=59, velocity=0, time=94),
    Message('note_on', channel=9, note=40, velocity=92, time=2),
    Message('note_on', channel=9, note=59, velocity=92, time=0),
    Message('note_on', channel=9, note=40, velocity=0, time=94),
    Message('note_on', channel=9, note=59, velocity=0, time=0),
    Message('note_on', channel=9, note=59, velocity=92, time=2),
    Message('note_on', channel=9, note=59, velocity=0, time=46),
    Message('note_on', channel=9, note=40, velocity=127, time=2),
    Message('note_on', channel=9, note=40, velocity=0, time=46),
    Message('note_on', channel=9, note=59, velocity=92, time=2),
    Message('note_on', channel=9, note=59, velocity=0, time=46),
    Message('note_on', channel=9, note=35, velocity=92, time=2),
    Message('note_on', channel=9, note=35, velocity=0, time=46),
    Message('note_on', channel=9, note=35, velocity=92, time=2),
    Message('note_on', channel=9, note=59, velocity=92, time=0),
    Message('note_on', channel=9, note=35, velocity=0, time=94),
    Message('note_on', channel=9, note=59, velocity=0, time=0),
    Message('note_on', channel=9, note=40, velocity=92, time=2),
    Message('note_on', channel=9, note=50, velocity=92, time=0),
    Message('note_on', channel=9, note=40, velocity=0, time=10),
    Message('note_on', channel=9, note=40, velocity=45, time=2),
    Message('note_on', channel=9, note=40, velocity=0, time=10),
    Message('note_on', channel=9, note=40, velocity=45, time=2),
    Message('note_on', channel=9, note=40, velocity=0, time=10),
    Message('note_on', channel=9, note=40, velocity=45, time=2),
    Message('note_on', channel=9, note=50, velocity=0, time=10),
    Message('note_on', channel=9, note=40, velocity=0, time=0),
    Message('note_on', channel=9, note=35, velocity=92, time=2),
    Message('note_on', channel=9, note=35, velocity=0, time=46),
    Message('note_on', channel=9, note=40, velocity=92, time=2),
    Message('note_on', channel=9, note=47, velocity=92, time=0),
    Message('note_on', channel=9, note=40, velocity=0, time=10),
    Message('note_on', channel=9, note=40, velocity=45, time=2),
    Message('note_on', channel=9, note=40, velocity=0, time=10),
    Message('note_on', channel=9, note=40, velocity=45, time=2),
    Message('note_on', channel=9, note=40, velocity=0, time=10),
    Message('note_on', channel=9, note=40, velocity=45, time=2),
    Message('note_on', channel=9, note=47, velocity=0, time=10),
    Message('note_on', channel=9, note=40, velocity=0, time=0),
    Message('note_on', channel=9, note=35, velocity=92, time=2),
    Message('note_on', channel=9, note=35, velocity=0, time=46),
    Message('note_on', channel=9, note=35, velocity=92, time=2),
    Message('note_on', channel=9, note=57, velocity=92, time=0),
    Message('note_on', channel=9, note=35, velocity=0, time=94),
    Message('note_on', channel=9, note=57, velocity=0, time=0),
    Message('note_on', channel=9, note=35, velocity=92, time=2),
    Message('note_on', channel=9, note=59, velocity=92, time=0),
    Message('note_on', channel=9, note=35, velocity=0, time=94),
    Message('note_on', channel=9, note=59, velocity=0, time=0),
    Message('note_on', channel=9, note=40, velocity=92, time=2),
    Message('note_on', channel=9, note=59, velocity=92, time=0),
    Message('note_on', channel=9, note=40, velocity=0, time=94),
    Message('note_on', channel=9, note=59, velocity=0, time=0),
    Message('note_on', channel=9, note=59, velocity=92, time=2),
    Message('note_on', channel=9, note=59, velocity=0, time=46),
    Message('note_on', channel=9, note=40, velocity=84, time=2),
    Message('note_on', channel=9, note=40, velocity=0, time=10),
    Message('note_on', channel=9, note=40, velocity=45, time=2),
    Message('note_on', channel=9, note=40, velocity=0, time=10),
    Message('note_on', channel=9, note=40, velocity=45, time=2),
    Message('note_on', channel=9, note=40, velocity=0, time=10),
    Message('note_on', channel=9, note=40, velocity=45, time=2),
    Message('note_on', channel=9, note=40, velocity=0, time=10),
    Message('note_on', channel=9, note=59, velocity=92, time=2),
    Message('note_on', channel=9, note=59, velocity=0, time=46),
    Message('note_on', channel=9, note=35, velocity=92, time=2),
    Message('note_on', channel=9, note=35, velocity=0, time=46),
    Message('note_on', channel=9, note=35, velocity=92, time=2),
    Message('note_on', channel=9, note=59, velocity=92, time=0),
    Message('note_on', channel=9, note=35, velocity=0, time=94),
    Message('note_on', channel=9, note=59, velocity=0, time=0),
    Message('note_on', channel=9, note=40, velocity=92, time=2),
    Message('note_on', channel=9, note=59, velocity=92, time=0),
    Message('note_on', channel=9, note=40, velocity=0, time=94),
    Message('note_on', channel=9, note=59, velocity=0, time=0),
    Message('note_on', channel=9, note=59, velocity=92, time=2),
    Message('note_on', channel=9, note=59, velocity=0, time=46),
    Message('note_on', channel=9, note=40, velocity=84, time=2),
    Message('note_on', channel=9, note=40, velocity=0, time=10),
    Message('note_on', channel=9, note=40, velocity=45, time=2),
    Message('note_on', channel=9, note=40, velocity=0, time=10),
    Message('note_on', channel=9, note=40, velocity=45, time=2),
    Message('note_on', channel=9, note=40, velocity=0, time=10),
    Message('note_on', channel=9, note=40, velocity=45, time=2),
    Message('note_on', channel=9, note=40, velocity=0, time=10),
    Message('note_on', channel=9, note=35, velocity=92, time=2),
    Message('note_on', channel=9, note=57, velocity=92, time=0),
    Message('note_on', channel=9, note=35, velocity=0, time=94),
    Message('note_on', channel=9, note=57, velocity=0, time=0),
    Message('note_on', channel=9, note=59, velocity=92, time=2),
    Message('note_on', channel=9, note=59, velocity=0, time=94),
    Message('note_on', channel=9, note=40, velocity=92, time=2),
    Message('note_on', channel=9, note=59, velocity=92, time=0),
    Message('note_on', channel=9, note=40, velocity=0, time=94),
    Message('note_on', channel=9, note=59, velocity=0, time=0),
    Message('note_on', channel=9, note=59, velocity=92, time=2),
    Message('note_on', channel=9, note=59, velocity=0, time=46),
    Message('note_on', channel=9, note=40, velocity=127, time=2),
    Message('note_on', channel=9, note=40, velocity=0, time=46),
    Message('note_on', channel=9, note=59, velocity=92, time=2),
    Message('note_on', channel=9, note=59, velocity=0, time=46),
    Message('note_on', channel=9, note=35, velocity=92, time=2),
    Message('note_on', channel=9, note=35, velocity=0, time=46),
    Message('note_on', channel=9, note=35, velocity=92, time=2),
    Message('note_on', channel=9, note=59, velocity=92, time=0),
    Message('note_on', channel=9, note=35, velocity=0, time=94),
    Message('note_on', channel=9, note=59, velocity=0, time=0),
    Message('note_on', channel=9, note=40, velocity=92, time=2),
    Message('note_on', channel=9, note=50, velocity=92, time=0),
    Message('note_on', channel=9, note=40, velocity=0, time=10),
    Message('note_on', channel=9, note=40, velocity=45, time=2),
    Message('note_on', channel=9, note=40, velocity=0, time=10),
    Message('note_on', channel=9, note=40, velocity=45, time=2),
    Message('note_on', channel=9, note=40, velocity=0, time=10),
    Message('note_on', channel=9, note=40, velocity=45, time=2),
    Message('note_on', channel=9, note=50, velocity=0, time=10),
    Message('note_on', channel=9, note=40, velocity=0, time=0),
    Message('note_on', channel=9, note=35, velocity=92, time=2),
    Message('note_on', channel=9, note=35, velocity=0, time=46),
    Message('note_on', channel=9, note=40, velocity=92, time=2),
    Message('note_on', channel=9, note=47, velocity=92, time=0),
    Message('note_on', channel=9, note=40, velocity=0, time=10),
    Message('note_on', channel=9, note=40, velocity=45, time=2),
    Message('note_on', channel=9, note=40, velocity=0, time=10),
    Message('note_on', channel=9, note=40, velocity=45, time=2),
    Message('note_on', channel=9, note=40, velocity=0, time=10),
    Message('note_on', channel=9, note=40, velocity=45, time=2),
    Message('note_on', channel=9, note=47, velocity=0, time=10),
    Message('note_on', channel=9, note=40, velocity=0, time=0),
    Message('note_on', channel=9, note=35, velocity=92, time=2),
    Message('note_on', channel=9, note=35, velocity=0, time=46),
    Message('note_on', channel=9, note=35, velocity=92, time=2),
    Message('note_on', channel=9, note=57, velocity=92, time=0),
    Message('note_on', channel=9, note=35, velocity=0, time=94),
    Message('note_on', channel=9, note=57, velocity=0, time=0),
    Message('note_on', channel=9, note=35, velocity=92, time=2),
    Message('note_on', channel=9, note=59, velocity=92, time=0),
    Message('note_on', channel=9, note=35, velocity=0, time=94),
    Message('note_on', channel=9, note=59, velocity=0, time=0),
    Message('note_on', channel=9, note=40, velocity=92, time=2),
    Message('note_on', channel=9, note=59, velocity=92, time=0),
    Message('note_on', channel=9, note=40, velocity=0, time=94),
    Message('note_on', channel=9, note=59, velocity=0, time=0),
    Message('note_on', channel=9, note=59, velocity=92, time=2),
    Message('note_on', channel=9, note=59, velocity=0, time=46),
    Message('note_on', channel=9, note=40, velocity=84, time=2),
    Message('note_on', channel=9, note=40, velocity=0, time=10),
    Message('note_on', channel=9, note=40, velocity=45, time=2),
    Message('note_on', channel=9, note=40, velocity=0, time=10),
    Message('note_on', channel=9, note=40, velocity=45, time=2),
    Message('note_on', channel=9, note=40, velocity=0, time=10),
    Message('note_on', channel=9, note=40, velocity=45, time=2),
    Message('note_on', channel=9, note=40, velocity=0, time=10),
    Message('note_on', channel=9, note=59, velocity=92, time=2),
    Message('note_on', channel=9, note=59, velocity=0, time=46),
    Message('note_on', channel=9, note=35, velocity=92, time=2),
    Message('note_on', channel=9, note=35, velocity=0, time=46),
    Message('note_on', channel=9, note=35, velocity=92, time=2),
    Message('note_on', channel=9, note=59, velocity=92, time=0),
    Message('note_on', channel=9, note=35, velocity=0, time=94),
    Message('note_on', channel=9, note=59, velocity=0, time=0),
    Message('note_on', channel=9, note=40, velocity=92, time=2),
    Message('note_on', channel=9, note=59, velocity=92, time=0),
    Message('note_on', channel=9, note=40, velocity=0, time=94),
    Message('note_on', channel=9, note=59, velocity=0, time=0),
    Message('note_on', channel=9, note=59, velocity=92, time=2),
    Message('note_on', channel=9, note=59, velocity=0, time=46),
    Message('note_on', channel=9, note=40, velocity=84, time=2),
    Message('note_on', channel=9, note=40, velocity=0, time=10),
    Message('note_on', channel=9, note=40, velocity=45, time=2),
    Message('note_on', channel=9, note=40, velocity=0, time=10),
    Message('note_on', channel=9, note=40, velocity=45, time=2),
    Message('note_on', channel=9, note=40, velocity=0, time=10),
    Message('note_on', channel=9, note=40, velocity=45, time=2),
    Message('note_on', channel=9, note=40, velocity=0, time=10),
    Message('note_on', channel=9, note=35, velocity=92, time=2),
    Message('note_on', channel=9, note=57, velocity=92, time=0),
    Message('note_on', channel=9, note=35, velocity=0, time=94),
    Message('note_on', channel=9, note=57, velocity=0, time=0),
    Message('note_on', channel=9, note=59, velocity=92, time=2),
    Message('note_on', channel=9, note=59, velocity=0, time=94),
    Message('note_on', channel=9, note=40, velocity=92, time=2),
    Message('note_on', channel=9, note=59, velocity=92, time=0),
    Message('note_on', channel=9, note=40, velocity=0, time=94),
    Message('note_on', channel=9, note=59, velocity=0, time=0),
    Message('note_on', channel=9, note=59, velocity=92, time=2),
    Message('note_on', channel=9, note=59, velocity=0, time=46),
    Message('note_on', channel=9, note=40, velocity=127, time=2),
    Message('note_on', channel=9, note=40, velocity=0, time=46),
    Message('note_on', channel=9, note=59, velocity=92, time=2),
    Message('note_on', channel=9, note=59, velocity=0, time=46),
    Message('note_on', channel=9, note=35, velocity=92, time=2),
    Message('note_on', channel=9, note=35, velocity=0, time=46),
    Message('note_on', channel=9, note=35, velocity=92, time=2),
    Message('note_on', channel=9, note=59, velocity=92, time=0),
    Message('note_on', channel=9, note=35, velocity=0, time=94),
    Message('note_on', channel=9, note=59, velocity=0, time=0),
    Message('note_on', channel=9, note=40, velocity=92, time=2),
    Message('note_on', channel=9, note=50, velocity=92, time=0),
    Message('note_on', channel=9, note=40, velocity=0, time=10),
    Message('note_on', channel=9, note=40, velocity=45, time=2),
    Message('note_on', channel=9, note=40, velocity=0, time=10),
    Message('note_on', channel=9, note=40, velocity=45, time=2),
    Message('note_on', channel=9, note=40, velocity=0, time=10),
    Message('note_on', channel=9, note=40, velocity=45, time=2),
    Message('note_on', channel=9, note=50, velocity=0, time=10),
    Message('note_on', channel=9, note=40, velocity=0, time=0),
    Message('note_on', channel=9, note=35, velocity=92, time=2),
    Message('note_on', channel=9, note=35, velocity=0, time=46),
    Message('note_on', channel=9, note=40, velocity=92, time=2),
    Message('note_on', channel=9, note=47, velocity=92, time=0),
    Message('note_on', channel=9, note=40, velocity=0, time=10),
    Message('note_on', channel=9, note=40, velocity=45, time=2),
    Message('note_on', channel=9, note=40, velocity=0, time=10),
    Message('note_on', channel=9, note=40, velocity=45, time=2),
    Message('note_on', channel=9, note=40, velocity=0, time=10),
    Message('note_on', channel=9, note=40, velocity=45, time=2),
    Message('note_on', channel=9, note=47, velocity=0, time=10),
    Message('note_on', channel=9, note=40, velocity=0, time=0),
    Message('note_on', channel=9, note=35, velocity=92, time=2),
    Message('note_on', channel=9, note=35, velocity=0, time=46),
    Message('note_on', channel=9, note=35, velocity=92, time=2),
    Message('note_on', channel=9, note=46, velocity=92, time=0),
    Message('note_on', channel=9, note=57, velocity=92, time=0),
    Message('note_on', channel=9, note=35, velocity=0, time=94),
    Message('note_on', channel=9, note=46, velocity=0, time=0),
    Message('note_on', channel=9, note=57, velocity=0, time=0),
    Message('note_on', channel=9, note=46, velocity=92, time=2),
    Message('note_on', channel=9, note=46, velocity=0, time=46),
    Message('note_on', channel=9, note=35, velocity=92, time=2),
    Message('note_on', channel=9, note=35, velocity=0, time=46),
    Message('note_on', channel=9, note=40, velocity=92, time=2),
    Message('note_on', channel=9, note=46, velocity=92, time=0),
    Message('note_on', channel=9, note=40, velocity=0, time=94),
    Message('note_on', channel=9, note=46, velocity=0, time=0),
    Message('note_on', channel=9, note=46, velocity=92, time=2),
    Message('note_on', channel=9, note=46, velocity=0, time=94),
    Message('note_on', channel=9, note=35, velocity=92, time=2),
    Message('note_on', channel=9, note=46, velocity=92, time=0),
    Message('note_on', channel=9, note=35, velocity=0, time=94),
    Message('note_on', channel=9, note=46, velocity=0, time=0),
    Message('note_on', channel=9, note=46, velocity=92, time=2),
    Message('note_on', channel=9, note=46, velocity=0, time=46),
    Message('note_on', channel=9, note=35, velocity=92, time=2),
    Message('note_on', channel=9, note=35, velocity=0, time=46),
    Message('note_on', channel=9, note=40, velocity=92, time=2),
    Message('note_on', channel=9, note=46, velocity=92, time=0),
    Message('note_on', channel=9, note=40, velocity=0, time=94),
    Message('note_on', channel=9, note=46, velocity=0, time=0),
    Message('note_on', channel=9, note=35, velocity=92, time=2),
    Message('note_on', channel=9, note=46, velocity=92, time=0),
    Message('note_on', channel=9, note=35, velocity=0, time=94),
    Message('note_on', channel=9, note=46, velocity=0, time=0),
    Message('note_on', channel=9, note=35, velocity=92, time=2),
    Message('note_on', channel=9, note=46, velocity=92, time=0),
    Message('note_on', channel=9, note=35, velocity=0, time=94),
    Message('note_on', channel=9, note=46, velocity=0, time=0),
    Message('note_on', channel=9, note=46, velocity=92, time=2),
    Message('note_on', channel=9, note=46, velocity=0, time=46),
    Message('note_on', channel=9, note=35, velocity=92, time=2),
    Message('note_on', channel=9, note=35, velocity=0, time=46),
    Message('note_on', channel=9, note=40, velocity=92, time=2),
    Message('note_on', channel=9, note=46, velocity=92, time=0),
    Message('note_on', channel=9, note=40, velocity=0, time=94),
    Message('note_on', channel=9, note=46, velocity=0, time=0),
    Message('note_on', channel=9, note=46, velocity=92, time=2),
    Message('note_on', channel=9, note=46, velocity=0, time=94),
    Message('note_on', channel=9, note=35, velocity=92, time=2),
    Message('note_on', channel=9, note=46, velocity=92, time=0),
    Message('note_on', channel=9, note=35, velocity=0, time=94),
    Message('note_on', channel=9, note=46, velocity=0, time=0),
    Message('note_on', channel=9, note=46, velocity=92, time=2),
    Message('note_on', channel=9, note=46, velocity=0, time=46),
    Message('note_on', channel=9, note=35, velocity=92, time=2),
    Message('note_on', channel=9, note=35, velocity=0, time=46),
    Message('note_on', channel=9, note=40, velocity=92, time=2),
    Message('note_on', channel=9, note=46, velocity=92, time=0),
    Message('note_on', channel=9, note=40, velocity=0, time=94),
    Message('note_on', channel=9, note=46, velocity=0, time=0),
    Message('note_on', channel=9, note=35, velocity=92, time=2),
    Message('note_on', channel=9, note=46, velocity=92, time=0),
    Message('note_on', channel=9, note=35, velocity=0, time=94),
    Message('note_on', channel=9, note=46, velocity=0, time=0),
    Message('note_on', channel=9, note=35, velocity=92, time=2),
    Message('note_on', channel=9, note=46, velocity=92, time=0),
    Message('note_on', channel=9, note=57, velocity=92, time=0),
    Message('note_on', channel=9, note=46, velocity=0, time=94),
    Message('note_on', channel=9, note=35, velocity=0, time=0),
    Message('note_on', channel=9, note=57, velocity=0, time=0),
    Message('note_on', channel=9, note=46, velocity=92, time=2),
    Message('note_on', channel=9, note=46, velocity=0, time=46),
    Message('note_on', channel=9, note=35, velocity=92, time=2),
    Message('note_on', channel=9, note=35, velocity=0, time=46),
    Message('note_on', channel=9, note=40, velocity=92, time=2),
    Message('note_on', channel=9, note=46, velocity=92, time=0),
    Message('note_on', channel=9, note=40, velocity=0, time=94),
    Message('note_on', channel=9, note=46, velocity=0, time=0),
    Message('note_on', channel=9, note=46, velocity=92, time=2),
    Message('note_on', channel=9, note=46, velocity=0, time=94),
    Message('note_on', channel=9, note=35, velocity=92, time=2),
    Message('note_on', channel=9, note=46, velocity=92, time=0),
    Message('note_on', channel=9, note=35, velocity=0, time=94),
    Message('note_on', channel=9, note=46, velocity=0, time=0),
    Message('note_on', channel=9, note=46, velocity=92, time=2),
    Message('note_on', channel=9, note=46, velocity=0, time=46),
    Message('note_on', channel=9, note=35, velocity=92, time=2),
    Message('note_on', channel=9, note=35, velocity=0, time=46),
    Message('note_on', channel=9, note=40, velocity=92, time=2),
    Message('note_on', channel=9, note=46, velocity=92, time=0),
    Message('note_on', channel=9, note=40, velocity=0, time=94),
    Message('note_on', channel=9, note=46, velocity=0, time=0),
    Message('note_on', channel=9, note=35, velocity=92, time=2),
    Message('note_on', channel=9, note=46, velocity=92, time=0),
    Message('note_on', channel=9, note=35, velocity=0, time=94),
    Message('note_on', channel=9, note=46, velocity=0, time=0),
    Message('note_on', channel=9, note=35, velocity=92, time=2),
    Message('note_on', channel=9, note=46, velocity=92, time=0),
    Message('note_on', channel=9, note=35, velocity=0, time=94),
    Message('note_on', channel=9, note=46, velocity=0, time=0),
    Message('note_on', channel=9, note=46, velocity=92, time=2),
    Message('note_on', channel=9, note=46, velocity=0, time=46),
    Message('note_on', channel=9, note=35, velocity=92, time=2),
    Message('note_on', channel=9, note=35, velocity=0, time=46),
    Message('note_on', channel=9, note=40, velocity=92, time=2),
    Message('note_on', channel=9, note=46, velocity=92, time=0),
    Message('note_on', channel=9, note=40, velocity=0, time=94),
    Message('note_on', channel=9, note=46, velocity=0, time=0),
    Message('note_on', channel=9, note=46, velocity=92, time=2),
    Message('note_on', channel=9, note=46, velocity=0, time=94),
    Message('note_on', channel=9, note=35, velocity=92, time=2),
    Message('note_on', channel=9, note=46, velocity=92, time=0),
    Message('note_on', channel=9, note=35, velocity=0, time=94),
    Message('note_on', channel=9, note=46, velocity=0, time=0),
    Message('note_on', channel=9, note=46, velocity=92, time=2),
    Message('note_on', channel=9, note=46, velocity=0, time=46),
    Message('note_on', channel=9, note=35, velocity=92, time=2),
    Message('note_on', channel=9, note=35, velocity=0, time=46),
    Message('note_on', channel=9, note=40, velocity=92, time=2),
    Message('note_on', channel=9, note=46, velocity=92, time=0),
    Message('note_on', channel=9, note=40, velocity=0, time=94),
    Message('note_on', channel=9, note=46, velocity=0, time=0),
    Message('note_on', channel=9, note=35, velocity=92, time=2),
    Message('note_on', channel=9, note=46, velocity=92, time=0),
    Message('note_on', channel=9, note=35, velocity=0, time=94),
    Message('note_on', channel=9, note=46, velocity=0, time=0),
    Message('note_on', channel=9, note=35, velocity=92, time=2),
    Message('note_on', channel=9, note=46, velocity=92, time=0),
    Message('note_on', channel=9, note=57, velocity=92, time=0),
    Message('note_on', channel=9, note=35, velocity=0, time=94),
    Message('note_on', channel=9, note=46, velocity=0, time=0),
    Message('note_on', channel=9, note=57, velocity=0, time=0),
    Message('note_on', channel=9, note=46, velocity=92, time=2),
    Message('note_on', channel=9, note=46, velocity=0, time=46),
    Message('note_on', channel=9, note=35, velocity=92, time=2),
    Message('note_on', channel=9, note=35, velocity=0, time=46),
    Message('note_on', channel=9, note=40, velocity=92, time=2),
    Message('note_on', channel=9, note=46, velocity=92, time=0),
    Message('note_on', channel=9, note=40, velocity=0, time=94),
    Message('note_on', channel=9, note=46, velocity=0, time=0),
    Message('note_on', channel=9, note=46, velocity=92, time=2),
    Message('note_on', channel=9, note=46, velocity=0, time=94),
    Message('note_on', channel=9, note=35, velocity=92, time=2),
    Message('note_on', channel=9, note=46, velocity=92, time=0),
    Message('note_on', channel=9, note=35, velocity=0, time=94),
    Message('note_on', channel=9, note=46, velocity=0, time=0),
    Message('note_on', channel=9, note=46, velocity=92, time=2),
    Message('note_on', channel=9, note=46, velocity=0, time=46),
    Message('note_on', channel=9, note=35, velocity=92, time=2),
    Message('note_on', channel=9, note=35, velocity=0, time=46),
    Message('note_on', channel=9, note=40, velocity=92, time=2),
    Message('note_on', channel=9, note=46, velocity=92, time=0),
    Message('note_on', channel=9, note=40, velocity=0, time=94),
    Message('note_on', channel=9, note=46, velocity=0, time=0),
    Message('note_on', channel=9, note=35, velocity=92, time=2),
    Message('note_on', channel=9, note=46, velocity=92, time=0),
    Message('note_on', channel=9, note=35, velocity=0, time=94),
    Message('note_on', channel=9, note=46, velocity=0, time=0),
    Message('note_on', channel=9, note=35, velocity=92, time=2),
    Message('note_on', channel=9, note=46, velocity=92, time=0),
    Message('note_on', channel=9, note=35, velocity=0, time=94),
    Message('note_on', channel=9, note=46, velocity=0, time=0),
    Message('note_on', channel=9, note=46, velocity=92, time=2),
    Message('note_on', channel=9, note=46, velocity=0, time=46),
    Message('note_on', channel=9, note=35, velocity=92, time=2),
    Message('note_on', channel=9, note=35, velocity=0, time=46),
    Message('note_on', channel=9, note=40, velocity=92, time=2),
    Message('note_on', channel=9, note=46, velocity=92, time=0),
    Message('note_on', channel=9, note=40, velocity=0, time=94),
    Message('note_on', channel=9, note=46, velocity=0, time=0),
    Message('note_on', channel=9, note=46, velocity=92, time=2),
    Message('note_on', channel=9, note=46, velocity=0, time=94),
    Message('note_on', channel=9, note=35, velocity=92, time=2),
    Message('note_on', channel=9, note=46, velocity=92, time=0),
    Message('note_on', channel=9, note=35, velocity=0, time=94),
    Message('note_on', channel=9, note=46, velocity=0, time=0),
    Message('note_on', channel=9, note=46, velocity=92, time=2),
    Message('note_on', channel=9, note=46, velocity=0, time=46),
    Message('note_on', channel=9, note=35, velocity=92, time=2),
    Message('note_on', channel=9, note=35, velocity=0, time=46),
    Message('note_on', channel=9, note=40, velocity=92, time=2),
    Message('note_on', channel=9, note=46, velocity=92, time=0),
    Message('note_on', channel=9, note=40, velocity=0, time=94),
    Message('note_on', channel=9, note=46, velocity=0, time=0),
    Message('note_on', channel=9, note=35, velocity=92, time=2),
    Message('note_on', channel=9, note=46, velocity=92, time=0),
    Message('note_on', channel=9, note=35, velocity=0, time=94),
    Message('note_on', channel=9, note=46, velocity=0, time=0),
    Message('note_on', channel=9, note=35, velocity=92, time=2),
    Message('note_on', channel=9, note=46, velocity=92, time=0),
    Message('note_on', channel=9, note=57, velocity=92, time=0),
    Message('note_on', channel=9, note=35, velocity=0, time=94),
    Message('note_on', channel=9, note=46, velocity=0, time=0),
    Message('note_on', channel=9, note=57, velocity=0, time=0),
    Message('note_on', channel=9, note=46, velocity=92, time=2),
    Message('note_on', channel=9, note=46, velocity=0, time=46),
    Message('note_on', channel=9, note=35, velocity=92, time=2),
    Message('note_on', channel=9, note=35, velocity=0, time=46),
    Message('note_on', channel=9, note=40, velocity=92, time=2),
    Message('note_on', channel=9, note=46, velocity=92, time=0),
    Message('note_on', channel=9, note=40, velocity=0, time=94),
    Message('note_on', channel=9, note=46, velocity=0, time=0),
    Message('note_on', channel=9, note=46, velocity=92, time=2),
    Message('note_on', channel=9, note=46, velocity=0, time=94),
    Message('note_on', channel=9, note=35, velocity=92, time=2),
    Message('note_on', channel=9, note=46, velocity=92, time=0),
    Message('note_on', channel=9, note=35, velocity=0, time=94),
    Message('note_on', channel=9, note=46, velocity=0, time=0),
    Message('note_on', channel=9, note=46, velocity=92, time=2),
    Message('note_on', channel=9, note=46, velocity=0, time=46),
    Message('note_on', channel=9, note=35, velocity=92, time=2),
    Message('note_on', channel=9, note=35, velocity=0, time=46),
    Message('note_on', channel=9, note=40, velocity=92, time=2),
    Message('note_on', channel=9, note=46, velocity=92, time=0),
    Message('note_on', channel=9, note=40, velocity=0, time=94),
    Message('note_on', channel=9, note=46, velocity=0, time=0),
    Message('note_on', channel=9, note=35, velocity=92, time=2),
    Message('note_on', channel=9, note=46, velocity=92, time=0),
    Message('note_on', channel=9, note=35, velocity=0, time=94),
    Message('note_on', channel=9, note=46, velocity=0, time=0),
    Message('note_on', channel=9, note=35, velocity=92, time=2),
    Message('note_on', channel=9, note=46, velocity=92, time=0),
    Message('note_on', channel=9, note=35, velocity=0, time=94),
    Message('note_on', channel=9, note=46, velocity=0, time=0),
    Message('note_on', channel=9, note=46, velocity=92, time=2),
    Message('note_on', channel=9, note=46, velocity=0, time=46),
    Message('note_on', channel=9, note=35, velocity=92, time=2),
    Message('note_on', channel=9, note=35, velocity=0, time=46),
    Message('note_on', channel=9, note=40, velocity=92, time=2),
    Message('note_on', channel=9, note=46, velocity=92, time=0),
    Message('note_on', channel=9, note=40, velocity=0, time=94),
    Message('note_on', channel=9, note=46, velocity=0, time=0),
    Message('note_on', channel=9, note=46, velocity=92, time=2),
    Message('note_on', channel=9, note=46, velocity=0, time=94),
    Message('note_on', channel=9, note=35, velocity=92, time=2),
    Message('note_on', channel=9, note=46, velocity=92, time=0),
    Message('note_on', channel=9, note=35, velocity=0, time=94),
    Message('note_on', channel=9, note=46, velocity=0, time=0),
    Message('note_on', channel=9, note=46, velocity=92, time=2),
    Message('note_on', channel=9, note=46, velocity=0, time=46),
    Message('note_on', channel=9, note=35, velocity=92, time=2),
    Message('note_on', channel=9, note=35, velocity=0, time=46),
    Message('note_on', channel=9, note=40, velocity=92, time=2),
    Message('note_on', channel=9, note=46, velocity=92, time=0),
    Message('note_on', channel=9, note=40, velocity=0, time=94),
    Message('note_on', channel=9, note=46, velocity=0, time=0),
    Message('note_on', channel=9, note=35, velocity=92, time=2),
    Message('note_on', channel=9, note=46, velocity=92, time=0),
    Message('note_on', channel=9, note=35, velocity=0, time=94),
    Message('note_on', channel=9, note=46, velocity=0, time=0),
    Message('note_on', channel=9, note=35, velocity=92, time=2),
    Message('note_on', channel=9, note=57, velocity=92, time=0),
    Message('note_on', channel=9, note=35, velocity=0, time=94),
    Message('note_on', channel=9, note=57, velocity=0, time=0),
    Message('note_on', channel=9, note=59, velocity=92, time=2),
    Message('note_on', channel=9, note=59, velocity=0, time=94),
    Message('note_on', channel=9, note=40, velocity=92, time=2),
    Message('note_on', channel=9, note=59, velocity=92, time=0),
    Message('note_on', channel=9, note=40, velocity=0, time=94),
    Message('note_on', channel=9, note=59, velocity=0, time=0),
    Message('note_on', channel=9, note=59, velocity=92, time=2),
    Message('note_on', channel=9, note=59, velocity=0, time=46),
    Message('note_on', channel=9, note=40, velocity=84, time=2),
    Message('note_on', channel=9, note=40, velocity=0, time=10),
    Message('note_on', channel=9, note=40, velocity=45, time=2),
    Message('note_on', channel=9, note=40, velocity=0, time=10),
    Message('note_on', channel=9, note=40, velocity=45, time=2),
    Message('note_on', channel=9, note=40, velocity=0, time=10),
    Message('note_on', channel=9, note=40, velocity=45, time=2),
    Message('note_on', channel=9, note=40, velocity=0, time=10),
    Message('note_on', channel=9, note=59, velocity=92, time=2),
    Message('note_on', channel=9, note=59, velocity=0, time=46),
    Message('note_on', channel=9, note=35, velocity=92, time=2),
    Message('note_on', channel=9, note=35, velocity=0, time=46),
    Message('note_on', channel=9, note=35, velocity=92, time=2),
    Message('note_on', channel=9, note=59, velocity=92, time=0),
    Message('note_on', channel=9, note=35, velocity=0, time=94),
    Message('note_on', channel=9, note=59, velocity=0, time=0),
    Message('note_on', channel=9, note=40, velocity=92, time=2),
    Message('note_on', channel=9, note=59, velocity=92, time=0),
    Message('note_on', channel=9, note=40, velocity=0, time=94),
    Message('note_on', channel=9, note=59, velocity=0, time=0),
    Message('note_on', channel=9, note=59, velocity=92, time=2),
    Message('note_on', channel=9, note=59, velocity=0, time=46),
    Message('note_on', channel=9, note=40, velocity=84, time=2),
    Message('note_on', channel=9, note=40, velocity=0, time=10),
    Message('note_on', channel=9, note=40, velocity=45, time=2),
    Message('note_on', channel=9, note=40, velocity=0, time=10),
    Message('note_on', channel=9, note=40, velocity=45, time=2),
    Message('note_on', channel=9, note=40, velocity=0, time=10),
    Message('note_on', channel=9, note=40, velocity=45, time=2),
    Message('note_on', channel=9, note=40, velocity=0, time=10),
    Message('note_on', channel=9, note=35, velocity=92, time=2),
    Message('note_on', channel=9, note=59, velocity=92, time=0),
    Message('note_on', channel=9, note=35, velocity=0, time=94),
    Message('note_on', channel=9, note=59, velocity=0, time=0),
    Message('note_on', channel=9, note=59, velocity=92, time=2),
    Message('note_on', channel=9, note=59, velocity=0, time=94),
    Message('note_on', channel=9, note=40, velocity=92, time=2),
    Message('note_on', channel=9, note=59, velocity=92, time=0),
    Message('note_on', channel=9, note=40, velocity=0, time=94),
    Message('note_on', channel=9, note=59, velocity=0, time=0),
    Message('note_on', channel=9, note=59, velocity=92, time=2),
    Message('note_on', channel=9, note=59, velocity=0, time=46),
    Message('note_on', channel=9, note=40, velocity=84, time=50),
    Message('note_on', channel=9, note=40, velocity=0, time=10),
    Message('note_on', channel=9, note=40, velocity=45, time=2),
    Message('note_on', channel=9, note=40, velocity=0, time=10),
    Message('note_on', channel=9, note=40, velocity=45, time=2),
    Message('note_on', channel=9, note=40, velocity=0, time=10),
    Message('note_on', channel=9, note=40, velocity=45, time=2),
    Message('note_on', channel=9, note=40, velocity=0, time=10),
    Message('note_on', channel=9, note=40, velocity=45, time=2),
    Message('note_on', channel=9, note=40, velocity=0, time=10),
    Message('note_on', channel=9, note=40, velocity=45, time=2),
    Message('note_on', channel=9, note=40, velocity=0, time=10),
    Message('note_on', channel=9, note=40, velocity=45, time=2),
    Message('note_on', channel=9, note=40, velocity=0, time=10),
    Message('note_on', channel=9, note=40, velocity=45, time=2),
    Message('note_on', channel=9, note=40, velocity=0, time=10),
    Message('note_on', channel=9, note=40, velocity=45, time=2),
    Message('note_on', channel=9, note=40, velocity=0, time=10),
    Message('note_on', channel=9, note=40, velocity=45, time=2),
    Message('note_on', channel=9, note=40, velocity=0, time=10),
    Message('note_on', channel=9, note=40, velocity=45, time=2),
    Message('note_on', channel=9, note=40, velocity=0, time=10),
    Message('note_on', channel=9, note=40, velocity=45, time=2),
    Message('note_on', channel=9, note=40, velocity=0, time=10),
    Message('note_on', channel=9, note=40, velocity=84, time=2),
    Message('note_on', channel=9, note=40, velocity=0, time=10),
    Message('note_on', channel=9, note=40, velocity=45, time=2),
    Message('note_on', channel=9, note=40, velocity=0, time=10),
    Message('note_on', channel=9, note=40, velocity=45, time=2),
    Message('note_on', channel=9, note=40, velocity=0, time=10),
    Message('note_on', channel=9, note=40, velocity=45, time=2),
    Message('note_on', channel=9, note=40, velocity=0, time=10),
    Message('note_on', channel=9, note=40, velocity=45, time=2),
    Message('note_on', channel=9, note=40, velocity=0, time=10),
    Message('note_on', channel=9, note=40, velocity=45, time=2),
    Message('note_on', channel=9, note=40, velocity=0, time=10),
    Message('note_on', channel=9, note=40, velocity=45, time=2),
    Message('note_on', channel=9, note=40, velocity=0, time=10),
    Message('note_on', channel=9, note=40, velocity=45, time=2),
    Message('note_on', channel=9, note=40, velocity=0, time=10),
    Message('note_on', channel=9, note=40, velocity=45, time=2),
    Message('note_on', channel=9, note=40, velocity=0, time=10),
    Message('note_on', channel=9, note=40, velocity=45, time=2),
    Message('note_on', channel=9, note=40, velocity=0, time=10),
    Message('note_on', channel=9, note=40, velocity=45, time=2),
    Message('note_on', channel=9, note=40, velocity=0, time=10),
    Message('note_on', channel=9, note=40, velocity=45, time=2),
    Message('note_on', channel=9, note=40, velocity=0, time=10),
    Message('note_on', channel=9, note=40, velocity=84, time=2),
    Message('note_on', channel=9, note=40, velocity=0, time=10),
    Message('note_on', channel=9, note=40, velocity=45, time=2),
    Message('note_on', channel=9, note=40, velocity=0, time=10),
    Message('note_on', channel=9, note=40, velocity=45, time=2),
    Message('note_on', channel=9, note=40, velocity=0, time=10),
    Message('note_on', channel=9, note=40, velocity=45, time=2),
    Message('note_on', channel=9, note=40, velocity=0, time=10),
    Message('note_on', channel=9, note=40, velocity=45, time=2),
    Message('note_on', channel=9, note=40, velocity=0, time=10),
    Message('note_on', channel=9, note=40, velocity=45, time=2),
    Message('note_on', channel=9, note=40, velocity=0, time=10),
    Message('note_on', channel=9, note=40, velocity=45, time=2),
    Message('note_on', channel=9, note=40, velocity=0, time=10),
    Message('note_on', channel=9, note=40, velocity=45, time=2),
    Message('note_on', channel=9, note=40, velocity=0, time=10),
    Message('note_on', channel=9, note=35, velocity=92, time=2),
    Message('note_on', channel=9, note=57, velocity=92, time=0),
    Message('note_on', channel=9, note=35, velocity=0, time=94),
    Message('note_on', channel=9, note=57, velocity=0, time=0),
    Message('note_on', channel=9, note=59, velocity=92, time=2),
    Message('note_on', channel=9, note=59, velocity=0, time=94),
    Message('note_on', channel=9, note=40, velocity=92, time=2),
    Message('note_on', channel=9, note=59, velocity=92, time=0),
    Message('note_on', channel=9, note=40, velocity=0, time=94),
    Message('note_on', channel=9, note=59, velocity=0, time=0),
    Message('note_on', channel=9, note=59, velocity=92, time=2),
    Message('note_on', channel=9, note=59, velocity=0, time=46),
    Message('note_on', channel=9, note=40, velocity=84, time=2),
    Message('note_on', channel=9, note=40, velocity=0, time=10),
    Message('note_on', channel=9, note=40, velocity=45, time=2),
    Message('note_on', channel=9, note=40, velocity=0, time=10),
    Message('note_on', channel=9, note=40, velocity=45, time=2),
    Message('note_on', channel=9, note=40, velocity=0, time=10),
    Message('note_on', channel=9, note=40, velocity=45, time=2),
    Message('note_on', channel=9, note=40, velocity=0, time=10),
    Message('note_on', channel=9, note=59, velocity=92, time=2),
    Message('note_on', channel=9, note=59, velocity=0, time=46),
    Message('note_on', channel=9, note=35, velocity=92, time=2),
    Message('note_on', channel=9, note=35, velocity=0, time=46),
    Message('note_on', channel=9, note=35, velocity=92, time=2),
    Message('note_on', channel=9, note=59, velocity=92, time=0),
    Message('note_on', channel=9, note=35, velocity=0, time=94),
    Message('note_on', channel=9, note=59, velocity=0, time=0),
    Message('note_on', channel=9, note=40, velocity=92, time=2),
    Message('note_on', channel=9, note=59, velocity=92, time=0),
    Message('note_on', channel=9, note=40, velocity=0, time=94),
    Message('note_on', channel=9, note=59, velocity=0, time=0),
    Message('note_on', channel=9, note=59, velocity=92, time=2),
    Message('note_on', channel=9, note=59, velocity=0, time=46),
    Message('note_on', channel=9, note=40, velocity=84, time=2),
    Message('note_on', channel=9, note=40, velocity=0, time=10),
    Message('note_on', channel=9, note=40, velocity=45, time=2),
    Message('note_on', channel=9, note=40, velocity=0, time=10),
    Message('note_on', channel=9, note=40, velocity=45, time=2),
    Message('note_on', channel=9, note=40, velocity=0, time=10),
    Message('note_on', channel=9, note=40, velocity=45, time=2),
    Message('note_on', channel=9, note=40, velocity=0, time=10),
    Message('note_on', channel=9, note=35, velocity=92, time=2),
    Message('note_on', channel=9, note=59, velocity=92, time=0),
    Message('note_on', channel=9, note=35, velocity=0, time=94),
    Message('note_on', channel=9, note=59, velocity=0, time=0),
    Message('note_on', channel=9, note=59, velocity=92, time=2),
    Message('note_on', channel=9, note=59, velocity=0, time=94),
    Message('note_on', channel=9, note=40, velocity=92, time=2),
    Message('note_on', channel=9, note=59, velocity=92, time=0),
    Message('note_on', channel=9, note=40, velocity=0, time=94),
    Message('note_on', channel=9, note=59, velocity=0, time=0),
    Message('note_on', channel=9, note=59, velocity=92, time=2),
    Message('note_on', channel=9, note=59, velocity=0, time=46),
    Message('note_on', channel=9, note=40, velocity=84, time=2),
    Message('note_on', channel=9, note=40, velocity=0, time=10),
    Message('note_on', channel=9, note=40, velocity=45, time=2),
    Message('note_on', channel=9, note=40, velocity=0, time=10),
    Message('note_on', channel=9, note=40, velocity=45, time=2),
    Message('note_on', channel=9, note=40, velocity=0, time=10),
    Message('note_on', channel=9, note=40, velocity=45, time=2),
    Message('note_on', channel=9, note=40, velocity=0, time=10),
    Message('note_on', channel=9, note=59, velocity=92, time=2),
    Message('note_on', channel=9, note=59, velocity=0, time=46),
    Message('note_on', channel=9, note=35, velocity=92, time=2),
    Message('note_on', channel=9, note=35, velocity=0, time=46),
    Message('note_on', channel=9, note=35, velocity=92, time=2),
    Message('note_on', channel=9, note=59, velocity=92, time=0),
    Message('note_on', channel=9, note=35, velocity=0, time=94),
    Message('note_on', channel=9, note=59, velocity=0, time=0),
    Message('note_on', channel=9, note=40, velocity=92, time=2),
    Message('note_on', channel=9, note=59, velocity=92, time=0),
    Message('note_on', channel=9, note=40, velocity=0, time=94),
    Message('note_on', channel=9, note=59, velocity=0, time=0),
    Message('note_on', channel=9, note=59, velocity=92, time=2),
    Message('note_on', channel=9, note=59, velocity=0, time=46),
    Message('note_on', channel=9, note=40, velocity=84, time=2),
    Message('note_on', channel=9, note=40, velocity=0, time=10),
    Message('note_on', channel=9, note=40, velocity=45, time=2),
    Message('note_on', channel=9, note=40, velocity=0, time=10),
    Message('note_on', channel=9, note=40, velocity=45, time=2),
    Message('note_on', channel=9, note=40, velocity=0, time=10),
    Message('note_on', channel=9, note=40, velocity=45, time=2),
    Message('note_on', channel=9, note=40, velocity=0, time=10),
    Message('note_on', channel=9, note=35, velocity=92, time=2),
    Message('note_on', channel=9, note=59, velocity=92, time=0),
    Message('note_on', channel=9, note=35, velocity=0, time=94),
    Message('note_on', channel=9, note=59, velocity=0, time=0),
    Message('note_on', channel=9, note=59, velocity=92, time=2),
    Message('note_on', channel=9, note=59, velocity=0, time=94),
    Message('note_on', channel=9, note=40, velocity=92, time=2),
    Message('note_on', channel=9, note=59, velocity=92, time=0),
    Message('note_on', channel=9, note=40, velocity=0, time=94),
    Message('note_on', channel=9, note=59, velocity=0, time=0),
    Message('note_on', channel=9, note=59, velocity=92, time=2),
    Message('note_on', channel=9, note=59, velocity=0, time=46),
    Message('note_on', channel=9, note=40, velocity=84, time=2),
    Message('note_on', channel=9, note=40, velocity=0, time=10),
    Message('note_on', channel=9, note=40, velocity=45, time=2),
    Message('note_on', channel=9, note=40, velocity=0, time=10),
    Message('note_on', channel=9, note=40, velocity=45, time=2),
    Message('note_on', channel=9, note=40, velocity=0, time=10),
    Message('note_on', channel=9, note=40, velocity=45, time=2),
    Message('note_on', channel=9, note=40, velocity=0, time=10),
    Message('note_on', channel=9, note=59, velocity=92, time=2),
    Message('note_on', channel=9, note=59, velocity=0, time=46),
    Message('note_on', channel=9, note=35, velocity=92, time=2),
    Message('note_on', channel=9, note=35, velocity=0, time=46),
    Message('note_on', channel=9, note=35, velocity=92, time=2),
    Message('note_on', channel=9, note=59, velocity=92, time=0),
    Message('note_on', channel=9, note=35, velocity=0, time=94),
    Message('note_on', channel=9, note=59, velocity=0, time=0),
    Message('note_on', channel=9, note=40, velocity=92, time=2),
    Message('note_on', channel=9, note=59, velocity=92, time=0),
    Message('note_on', channel=9, note=40, velocity=0, time=94),
    Message('note_on', channel=9, note=59, velocity=0, time=0),
    Message('note_on', channel=9, note=59, velocity=92, time=2),
    Message('note_on', channel=9, note=59, velocity=0, time=46),
    Message('note_on', channel=9, note=40, velocity=84, time=2),
    Message('note_on', channel=9, note=40, velocity=0, time=10),
    Message('note_on', channel=9, note=40, velocity=45, time=2),
    Message('note_on', channel=9, note=40, velocity=0, time=10),
    Message('note_on', channel=9, note=40, velocity=45, time=2),
    Message('note_on', channel=9, note=40, velocity=0, time=10),
    Message('note_on', channel=9, note=40, velocity=45, time=2),
    Message('note_on', channel=9, note=40, velocity=0, time=10),
    Message('note_on', channel=9, note=35, velocity=92, time=2),
    Message('note_on', channel=9, note=59, velocity=92, time=0),
    Message('note_on', channel=9, note=35, velocity=0, time=94),
    Message('note_on', channel=9, note=59, velocity=0, time=0),
    Message('note_on', channel=9, note=59, velocity=92, time=2),
    Message('note_on', channel=9, note=59, velocity=0, time=94),
    Message('note_on', channel=9, note=40, velocity=92, time=2),
    Message('note_on', channel=9, note=59, velocity=92, time=0),
    Message('note_on', channel=9, note=40, velocity=0, time=94),
    Message('note_on', channel=9, note=59, velocity=0, time=0),
    Message('note_on', channel=9, note=59, velocity=92, time=2),
    Message('note_on', channel=9, note=59, velocity=0, time=46),
    Message('note_on', channel=9, note=40, velocity=84, time=2),
    Message('note_on', channel=9, note=40, velocity=0, time=10),
    Message('note_on', channel=9, note=40, velocity=45, time=2),
    Message('note_on', channel=9, note=40, velocity=0, time=10),
    Message('note_on', channel=9, note=40, velocity=45, time=2),
    Message('note_on', channel=9, note=40, velocity=0, time=10),
    Message('note_on', channel=9, note=40, velocity=45, time=2),
    Message('note_on', channel=9, note=40, velocity=0, time=10),
    Message('note_on', channel=9, note=59, velocity=92, time=2),
    Message('note_on', channel=9, note=59, velocity=0, time=46),
    Message('note_on', channel=9, note=35, velocity=92, time=2),
    Message('note_on', channel=9, note=35, velocity=0, time=46),
    Message('note_on', channel=9, note=35, velocity=92, time=2),
    Message('note_on', channel=9, note=59, velocity=92, time=0),
    Message('note_on', channel=9, note=35, velocity=0, time=94),
    Message('note_on', channel=9, note=59, velocity=0, time=0),
    Message('note_on', channel=9, note=40, velocity=92, time=2),
    Message('note_on', channel=9, note=59, velocity=92, time=0),
    Message('note_on', channel=9, note=40, velocity=0, time=94),
    Message('note_on', channel=9, note=59, velocity=0, time=0),
    Message('note_on', channel=9, note=59, velocity=92, time=2),
    Message('note_on', channel=9, note=59, velocity=0, time=46),
    Message('note_on', channel=9, note=40, velocity=84, time=2),
    Message('note_on', channel=9, note=40, velocity=0, time=10),
    Message('note_on', channel=9, note=40, velocity=45, time=2),
    Message('note_on', channel=9, note=40, velocity=0, time=10),
    Message('note_on', channel=9, note=40, velocity=45, time=2),
    Message('note_on', channel=9, note=40, velocity=0, time=10),
    Message('note_on', channel=9, note=40, velocity=45, time=2),
    Message('note_on', channel=9, note=40, velocity=0, time=10),
    Message('note_on', channel=9, note=35, velocity=92, time=2),
    Message('note_on', channel=9, note=59, velocity=92, time=0),
    Message('note_on', channel=9, note=35, velocity=0, time=94),
    Message('note_on', channel=9, note=59, velocity=0, time=0),
    Message('note_on', channel=9, note=59, velocity=92, time=2),
    Message('note_on', channel=9, note=59, velocity=0, time=94),
    Message('note_on', channel=9, note=40, velocity=92, time=2),
    Message('note_on', channel=9, note=59, velocity=92, time=0),
    Message('note_on', channel=9, note=40, velocity=0, time=94),
    Message('note_on', channel=9, note=59, velocity=0, time=0),
    Message('note_on', channel=9, note=59, velocity=92, time=2),
    Message('note_on', channel=9, note=59, velocity=0, time=46),
    Message('note_on', channel=9, note=40, velocity=84, time=2),
    Message('note_on', channel=9, note=40, velocity=0, time=10),
    Message('note_on', channel=9, note=40, velocity=45, time=2),
    Message('note_on', channel=9, note=40, velocity=0, time=10),
    Message('note_on', channel=9, note=40, velocity=45, time=2),
    Message('note_on', channel=9, note=40, velocity=0, time=10),
    Message('note_on', channel=9, note=40, velocity=45, time=2),
    Message('note_on', channel=9, note=40, velocity=0, time=10),
    Message('note_on', channel=9, note=59, velocity=92, time=2),
    Message('note_on', channel=9, note=59, velocity=0, time=46),
    Message('note_on', channel=9, note=35, velocity=92, time=2),
    Message('note_on', channel=9, note=35, velocity=0, time=46),
    Message('note_on', channel=9, note=35, velocity=92, time=2),
    Message('note_on', channel=9, note=59, velocity=92, time=0),
    Message('note_on', channel=9, note=35, velocity=0, time=94),
    Message('note_on', channel=9, note=59, velocity=0, time=0),
    Message('note_on', channel=9, note=40, velocity=92, time=2),
    Message('note_on', channel=9, note=59, velocity=92, time=0),
    Message('note_on', channel=9, note=40, velocity=0, time=94),
    Message('note_on', channel=9, note=59, velocity=0, time=0),
    Message('note_on', channel=9, note=59, velocity=92, time=2),
    Message('note_on', channel=9, note=59, velocity=0, time=46),
    Message('note_on', channel=9, note=40, velocity=84, time=2),
    Message('note_on', channel=9, note=40, velocity=0, time=10),
    Message('note_on', channel=9, note=40, velocity=45, time=2),
    Message('note_on', channel=9, note=40, velocity=0, time=10),
    Message('note_on', channel=9, note=40, velocity=45, time=2),
    Message('note_on', channel=9, note=40, velocity=0, time=10),
    Message('note_on', channel=9, note=40, velocity=45, time=2),
    Message('note_on', channel=9, note=40, velocity=0, time=10),
    Message('note_on', channel=9, note=35, velocity=92, time=2),
    Message('note_on', channel=9, note=59, velocity=92, time=0),
    Message('note_on', channel=9, note=35, velocity=0, time=94),
    Message('note_on', channel=9, note=59, velocity=0, time=0),
    Message('note_on', channel=9, note=59, velocity=92, time=2),
    Message('note_on', channel=9, note=59, velocity=0, time=94),
    Message('note_on', channel=9, note=40, velocity=92, time=2),
    Message('note_on', channel=9, note=59, velocity=92, time=0),
    Message('note_on', channel=9, note=40, velocity=0, time=94),
    Message('note_on', channel=9, note=59, velocity=0, time=0),
    Message('note_on', channel=9, note=59, velocity=92, time=2),
    Message('note_on', channel=9, note=59, velocity=0, time=46),
    Message('note_on', channel=9, note=40, velocity=84, time=2),
    Message('note_on', channel=9, note=40, velocity=0, time=10),
    Message('note_on', channel=9, note=40, velocity=45, time=2),
    Message('note_on', channel=9, note=40, velocity=0, time=10),
    Message('note_on', channel=9, note=40, velocity=45, time=2),
    Message('note_on', channel=9, note=40, velocity=0, time=10),
    Message('note_on', channel=9, note=40, velocity=45, time=2),
    Message('note_on', channel=9, note=40, velocity=0, time=10),
    Message('note_on', channel=9, note=59, velocity=92, time=2),
    Message('note_on', channel=9, note=59, velocity=0, time=46),
    Message('note_on', channel=9, note=35, velocity=92, time=2),
    Message('note_on', channel=9, note=35, velocity=0, time=46),
    Message('note_on', channel=9, note=35, velocity=92, time=2),
    Message('note_on', channel=9, note=59, velocity=92, time=0),
    Message('note_on', channel=9, note=35, velocity=0, time=94),
    Message('note_on', channel=9, note=59, velocity=0, time=0),
    Message('note_on', channel=9, note=40, velocity=92, time=2),
    Message('note_on', channel=9, note=59, velocity=92, time=0),
    Message('note_on', channel=9, note=40, velocity=0, time=94),
    Message('note_on', channel=9, note=59, velocity=0, time=0),
    Message('note_on', channel=9, note=59, velocity=92, time=2),
    Message('note_on', channel=9, note=59, velocity=0, time=46),
    Message('note_on', channel=9, note=40, velocity=84, time=2),
    Message('note_on', channel=9, note=40, velocity=0, time=10),
    Message('note_on', channel=9, note=40, velocity=45, time=2),
    Message('note_on', channel=9, note=40, velocity=0, time=10),
    Message('note_on', channel=9, note=40, velocity=45, time=2),
    Message('note_on', channel=9, note=40, velocity=0, time=10),
    Message('note_on', channel=9, note=40, velocity=45, time=2),
    Message('note_on', channel=9, note=40, velocity=0, time=10),
    Message('note_on', channel=9, note=35, velocity=92, time=2),
    Message('note_on', channel=9, note=59, velocity=92, time=0),
    Message('note_on', channel=9, note=35, velocity=0, time=94),
    Message('note_on', channel=9, note=59, velocity=0, time=0),
    Message('note_on', channel=9, note=59, velocity=92, time=2),
    Message('note_on', channel=9, note=59, velocity=0, time=94),
    Message('note_on', channel=9, note=40, velocity=92, time=2),
    Message('note_on', channel=9, note=59, velocity=92, time=0),
    Message('note_on', channel=9, note=40, velocity=0, time=94),
    Message('note_on', channel=9, note=59, velocity=0, time=0),
    Message('note_on', channel=9, note=59, velocity=92, time=2),
    Message('note_on', channel=9, note=59, velocity=0, time=46),
    Message('note_on', channel=9, note=40, velocity=84, time=2),
    Message('note_on', channel=9, note=40, velocity=0, time=10),
    Message('note_on', channel=9, note=40, velocity=45, time=2),
    Message('note_on', channel=9, note=40, velocity=0, time=10),
    Message('note_on', channel=9, note=40, velocity=45, time=2),
    Message('note_on', channel=9, note=40, velocity=0, time=10),
    Message('note_on', channel=9, note=40, velocity=45, time=2),
    Message('note_on', channel=9, note=40, velocity=0, time=10),
    Message('note_on', channel=9, note=59, velocity=92, time=2),
    Message('note_on', channel=9, note=59, velocity=0, time=46),
    Message('note_on', channel=9, note=35, velocity=92, time=2),
    Message('note_on', channel=9, note=35, velocity=0, time=46),
    Message('note_on', channel=9, note=35, velocity=92, time=2),
    Message('note_on', channel=9, note=59, velocity=92, time=0),
    Message('note_on', channel=9, note=35, velocity=0, time=94),
    Message('note_on', channel=9, note=59, velocity=0, time=0),
    Message('note_on', channel=9, note=40, velocity=92, time=2),
    Message('note_on', channel=9, note=59, velocity=92, time=0),
    Message('note_on', channel=9, note=40, velocity=0, time=94),
    Message('note_on', channel=9, note=59, velocity=0, time=0),
    Message('note_on', channel=9, note=59, velocity=92, time=2),
    Message('note_on', channel=9, note=59, velocity=0, time=46),
    Message('note_on', channel=9, note=40, velocity=84, time=2),
    Message('note_on', channel=9, note=40, velocity=0, time=10),
    Message('note_on', channel=9, note=40, velocity=45, time=2),
    Message('note_on', channel=9, note=40, velocity=0, time=10),
    Message('note_on', channel=9, note=40, velocity=45, time=2),
    Message('note_on', channel=9, note=40, velocity=0, time=10),
    Message('note_on', channel=9, note=40, velocity=45, time=2),
    Message('note_on', channel=9, note=40, velocity=0, time=10),
    Message('note_on', channel=9, note=35, velocity=92, time=2),
    Message('note_on', channel=9, note=59, velocity=92, time=0),
    Message('note_on', channel=9, note=35, velocity=0, time=94),
    Message('note_on', channel=9, note=59, velocity=0, time=0),
    Message('note_on', channel=9, note=59, velocity=92, time=2),
    Message('note_on', channel=9, note=59, velocity=0, time=94),
    Message('note_on', channel=9, note=40, velocity=92, time=2),
    Message('note_on', channel=9, note=59, velocity=92, time=0),
    Message('note_on', channel=9, note=40, velocity=0, time=94),
    Message('note_on', channel=9, note=59, velocity=0, time=0),
    Message('note_on', channel=9, note=59, velocity=92, time=2),
    Message('note_on', channel=9, note=59, velocity=0, time=46),
    Message('note_on', channel=9, note=40, velocity=84, time=2),
    Message('note_on', channel=9, note=40, velocity=0, time=10),
    Message('note_on', channel=9, note=40, velocity=45, time=2),
    Message('note_on', channel=9, note=40, velocity=0, time=10),
    Message('note_on', channel=9, note=40, velocity=45, time=2),
    Message('note_on', channel=9, note=40, velocity=0, time=10),
    Message('note_on', channel=9, note=40, velocity=45, time=2),
    Message('note_on', channel=9, note=40, velocity=0, time=10),
    Message('note_on', channel=9, note=59, velocity=92, time=2),
    Message('note_on', channel=9, note=59, velocity=0, time=46),
    Message('note_on', channel=9, note=35, velocity=92, time=2),
    Message('note_on', channel=9, note=35, velocity=0, time=46),
    Message('note_on', channel=9, note=35, velocity=92, time=2),
    Message('note_on', channel=9, note=59, velocity=92, time=0),
    Message('note_on', channel=9, note=35, velocity=0, time=94),
    Message('note_on', channel=9, note=59, velocity=0, time=0),
    Message('note_on', channel=9, note=40, velocity=92, time=2),
    Message('note_on', channel=9, note=59, velocity=92, time=0),
    Message('note_on', channel=9, note=40, velocity=0, time=94),
    Message('note_on', channel=9, note=59, velocity=0, time=0),
    Message('note_on', channel=9, note=59, velocity=92, time=2),
    Message('note_on', channel=9, note=59, velocity=0, time=46),
    Message('note_on', channel=9, note=40, velocity=84, time=2),
    Message('note_on', channel=9, note=40, velocity=0, time=10),
    Message('note_on', channel=9, note=40, velocity=45, time=2),
    Message('note_on', channel=9, note=40, velocity=0, time=10),
    Message('note_on', channel=9, note=40, velocity=45, time=2),
    Message('note_on', channel=9, note=40, velocity=0, time=10),
    Message('note_on', channel=9, note=40, velocity=45, time=2),
    Message('note_on', channel=9, note=40, velocity=0, time=10),
    Message('note_on', channel=9, note=35, velocity=92, time=2),
    Message('note_on', channel=9, note=59, velocity=92, time=0),
    Message('note_on', channel=9, note=35, velocity=0, time=94),
    Message('note_on', channel=9, note=59, velocity=0, time=0),
    Message('note_on', channel=9, note=59, velocity=92, time=2),
    Message('note_on', channel=9, note=59, velocity=0, time=94),
    Message('note_on', channel=9, note=40, velocity=92, time=2),
    Message('note_on', channel=9, note=59, velocity=92, time=0),
    Message('note_on', channel=9, note=40, velocity=0, time=94),
    Message('note_on', channel=9, note=59, velocity=0, time=0),
    Message('note_on', channel=9, note=59, velocity=92, time=2),
    Message('note_on', channel=9, note=59, velocity=0, time=46),
    Message('note_on', channel=9, note=40, velocity=84, time=2),
    Message('note_on', channel=9, note=40, velocity=0, time=10),
    Message('note_on', channel=9, note=40, velocity=45, time=2),
    Message('note_on', channel=9, note=40, velocity=0, time=10),
    Message('note_on', channel=9, note=40, velocity=45, time=2),
    Message('note_on', channel=9, note=40, velocity=0, time=10),
    Message('note_on', channel=9, note=40, velocity=45, time=2),
    Message('note_on', channel=9, note=40, velocity=0, time=10),
    Message('note_on', channel=9, note=59, velocity=92, time=2),
    Message('note_on', channel=9, note=59, velocity=0, time=46),
    Message('note_on', channel=9, note=35, velocity=92, time=2),
    Message('note_on', channel=9, note=35, velocity=0, time=46),
    Message('note_on', channel=9, note=35, velocity=92, time=2),
    Message('note_on', channel=9, note=59, velocity=92, time=0),
    Message('note_on', channel=9, note=35, velocity=0, time=94),
    Message('note_on', channel=9, note=59, velocity=0, time=0),
    Message('note_on', channel=9, note=40, velocity=92, time=2),
    Message('note_on', channel=9, note=59, velocity=92, time=0),
    Message('note_on', channel=9, note=40, velocity=0, time=94),
    Message('note_on', channel=9, note=59, velocity=0, time=0),
    Message('note_on', channel=9, note=59, velocity=92, time=2),
    Message('note_on', channel=9, note=59, velocity=0, time=46),
    Message('note_on', channel=9, note=40, velocity=84, time=2),
    Message('note_on', channel=9, note=40, velocity=0, time=10),
    Message('note_on', channel=9, note=40, velocity=45, time=2),
    Message('note_on', channel=9, note=40, velocity=0, time=10),
    Message('note_on', channel=9, note=40, velocity=45, time=2),
    Message('note_on', channel=9, note=40, velocity=0, time=10),
    Message('note_on', channel=9, note=40, velocity=45, time=2),
    Message('note_on', channel=9, note=40, velocity=0, time=10),
    Message('note_on', channel=9, note=35, velocity=92, time=2),
    Message('note_on', channel=9, note=57, velocity=92, time=0),
    Message('note_on', channel=9, note=35, velocity=0, time=94),
    Message('note_on', channel=9, note=57, velocity=0, time=0),
    Message('note_on', channel=9, note=59, velocity=92, time=2),
    Message('note_on', channel=9, note=59, velocity=0, time=94),
    Message('note_on', channel=9, note=40, velocity=92, time=2),
    Message('note_on', channel=9, note=59, velocity=92, time=0),
    Message('note_on', channel=9, note=40, velocity=0, time=94),
    Message('note_on', channel=9, note=59, velocity=0, time=0),
    Message('note_on', channel=9, note=59, velocity=92, time=2),
    Message('note_on', channel=9, note=59, velocity=0, time=46),
    Message('note_on', channel=9, note=40, velocity=127, time=2),
    Message('note_on', channel=9, note=40, velocity=0, time=46),
    Message('note_on', channel=9, note=59, velocity=92, time=2),
    Message('note_on', channel=9, note=59, velocity=0, time=46),
    Message('note_on', channel=9, note=35, velocity=92, time=2),
    Message('note_on', channel=9, note=35, velocity=0, time=46),
    Message('note_on', channel=9, note=35, velocity=92, time=2),
    Message('note_on', channel=9, note=59, velocity=92, time=0),
    Message('note_on', channel=9, note=35, velocity=0, time=94),
    Message('note_on', channel=9, note=59, velocity=0, time=0),
    Message('note_on', channel=9, note=40, velocity=92, time=2),
    Message('note_on', channel=9, note=50, velocity=92, time=0),
    Message('note_on', channel=9, note=40, velocity=0, time=10),
    Message('note_on', channel=9, note=40, velocity=45, time=2),
    Message('note_on', channel=9, note=40, velocity=0, time=10),
    Message('note_on', channel=9, note=40, velocity=45, time=2),
    Message('note_on', channel=9, note=40, velocity=0, time=10),
    Message('note_on', channel=9, note=40, velocity=45, time=2),
    Message('note_on', channel=9, note=50, velocity=0, time=10),
    Message('note_on', channel=9, note=40, velocity=0, time=0),
    Message('note_on', channel=9, note=35, velocity=92, time=2),
    Message('note_on', channel=9, note=35, velocity=0, time=46),
    Message('note_on', channel=9, note=40, velocity=92, time=2),
    Message('note_on', channel=9, note=47, velocity=92, time=0),
    Message('note_on', channel=9, note=40, velocity=0, time=10),
    Message('note_on', channel=9, note=40, velocity=45, time=2),
    Message('note_on', channel=9, note=40, velocity=0, time=10),
    Message('note_on', channel=9, note=40, velocity=45, time=2),
    Message('note_on', channel=9, note=40, velocity=0, time=10),
    Message('note_on', channel=9, note=40, velocity=45, time=2),
    Message('note_on', channel=9, note=47, velocity=0, time=10),
    Message('note_on', channel=9, note=40, velocity=0, time=0),
    Message('note_on', channel=9, note=35, velocity=92, time=2),
    Message('note_on', channel=9, note=35, velocity=0, time=46),
    Message('note_on', channel=9, note=35, velocity=92, time=2),
    Message('note_on', channel=9, note=57, velocity=92, time=0),
    Message('note_on', channel=9, note=35, velocity=0, time=94),
    Message('note_on', channel=9, note=57, velocity=0, time=0),
    Message('note_on', channel=9, note=35, velocity=92, time=2),
    Message('note_on', channel=9, note=59, velocity=92, time=0),
    Message('note_on', channel=9, note=35, velocity=0, time=94),
    Message('note_on', channel=9, note=59, velocity=0, time=0),
    Message('note_on', channel=9, note=40, velocity=92, time=2),
    Message('note_on', channel=9, note=59, velocity=92, time=0),
    Message('note_on', channel=9, note=40, velocity=0, time=94),
    Message('note_on', channel=9, note=59, velocity=0, time=0),
    Message('note_on', channel=9, note=59, velocity=92, time=2),
    Message('note_on', channel=9, note=59, velocity=0, time=46),
    Message('note_on', channel=9, note=40, velocity=84, time=2),
    Message('note_on', channel=9, note=40, velocity=0, time=10),
    Message('note_on', channel=9, note=40, velocity=45, time=2),
    Message('note_on', channel=9, note=40, velocity=0, time=10),
    Message('note_on', channel=9, note=40, velocity=45, time=2),
    Message('note_on', channel=9, note=40, velocity=0, time=10),
    Message('note_on', channel=9, note=40, velocity=45, time=2),
    Message('note_on', channel=9, note=40, velocity=0, time=10),
    Message('note_on', channel=9, note=59, velocity=92, time=2),
    Message('note_on', channel=9, note=59, velocity=0, time=46),
    Message('note_on', channel=9, note=35, velocity=92, time=2),
    Message('note_on', channel=9, note=35, velocity=0, time=46),
    Message('note_on', channel=9, note=35, velocity=92, time=2),
    Message('note_on', channel=9, note=59, velocity=92, time=0),
    Message('note_on', channel=9, note=35, velocity=0, time=94),
    Message('note_on', channel=9, note=59, velocity=0, time=0),
    Message('note_on', channel=9, note=40, velocity=92, time=2),
    Message('note_on', channel=9, note=59, velocity=92, time=0),
    Message('note_on', channel=9, note=40, velocity=0, time=94),
    Message('note_on', channel=9, note=59, velocity=0, time=0),
    Message('note_on', channel=9, note=59, velocity=92, time=2),
    Message('note_on', channel=9, note=59, velocity=0, time=46),
    Message('note_on', channel=9, note=40, velocity=84, time=2),
    Message('note_on', channel=9, note=40, velocity=0, time=10),
    Message('note_on', channel=9, note=40, velocity=45, time=2),
    Message('note_on', channel=9, note=40, velocity=0, time=10),
    Message('note_on', channel=9, note=40, velocity=45, time=2),
    Message('note_on', channel=9, note=40, velocity=0, time=10),
    Message('note_on', channel=9, note=40, velocity=45, time=2),
    Message('note_on', channel=9, note=40, velocity=0, time=10),
    Message('note_on', channel=9, note=35, velocity=92, time=2),
    Message('note_on', channel=9, note=57, velocity=92, time=0),
    Message('note_on', channel=9, note=35, velocity=0, time=94),
    Message('note_on', channel=9, note=57, velocity=0, time=0),
    Message('note_on', channel=9, note=59, velocity=92, time=2),
    Message('note_on', channel=9, note=59, velocity=0, time=94),
    Message('note_on', channel=9, note=40, velocity=92, time=2),
    Message('note_on', channel=9, note=59, velocity=92, time=0),
    Message('note_on', channel=9, note=40, velocity=0, time=94),
    Message('note_on', channel=9, note=59, velocity=0, time=0),
    Message('note_on', channel=9, note=59, velocity=92, time=2),
    Message('note_on', channel=9, note=59, velocity=0, time=46),
    Message('note_on', channel=9, note=40, velocity=127, time=2),
    Message('note_on', channel=9, note=40, velocity=0, time=46),
    Message('note_on', channel=9, note=59, velocity=92, time=2),
    Message('note_on', channel=9, note=59, velocity=0, time=46),
    Message('note_on', channel=9, note=35, velocity=92, time=2),
    Message('note_on', channel=9, note=35, velocity=0, time=46),
    Message('note_on', channel=9, note=35, velocity=92, time=2),
    Message('note_on', channel=9, note=59, velocity=92, time=0),
    Message('note_on', channel=9, note=35, velocity=0, time=94),
    Message('note_on', channel=9, note=59, velocity=0, time=0),
    Message('note_on', channel=9, note=40, velocity=92, time=2),
    Message('note_on', channel=9, note=50, velocity=92, time=0),
    Message('note_on', channel=9, note=40, velocity=0, time=10),
    Message('note_on', channel=9, note=40, velocity=45, time=2),
    Message('note_on', channel=9, note=40, velocity=0, time=10),
    Message('note_on', channel=9, note=40, velocity=45, time=2),
    Message('note_on', channel=9, note=40, velocity=0, time=10),
    Message('note_on', channel=9, note=40, velocity=45, time=2),
    Message('note_on', channel=9, note=50, velocity=0, time=10),
    Message('note_on', channel=9, note=40, velocity=0, time=0),
    Message('note_on', channel=9, note=35, velocity=92, time=2),
    Message('note_on', channel=9, note=35, velocity=0, time=46),
    Message('note_on', channel=9, note=40, velocity=92, time=2),
    Message('note_on', channel=9, note=47, velocity=92, time=0),
    Message('note_on', channel=9, note=40, velocity=0, time=10),
    Message('note_on', channel=9, note=40, velocity=45, time=2),
    Message('note_on', channel=9, note=40, velocity=0, time=10),
    Message('note_on', channel=9, note=40, velocity=45, time=2),
    Message('note_on', channel=9, note=40, velocity=0, time=10),
    Message('note_on', channel=9, note=40, velocity=45, time=2),
    Message('note_on', channel=9, note=47, velocity=0, time=10),
    Message('note_on', channel=9, note=40, velocity=0, time=0),
    Message('note_on', channel=9, note=35, velocity=92, time=2),
    Message('note_on', channel=9, note=35, velocity=0, time=46),
    Message('note_on', channel=9, note=35, velocity=92, time=2),
    Message('note_on', channel=9, note=57, velocity=92, time=0),
    Message('note_on', channel=9, note=35, velocity=0, time=94),
    Message('note_on', channel=9, note=57, velocity=0, time=0),
    Message('note_on', channel=9, note=35, velocity=92, time=2),
    Message('note_on', channel=9, note=59, velocity=92, time=0),
    Message('note_on', channel=9, note=35, velocity=0, time=94),
    Message('note_on', channel=9, note=59, velocity=0, time=0),
    Message('note_on', channel=9, note=40, velocity=92, time=2),
    Message('note_on', channel=9, note=59, velocity=92, time=0),
    Message('note_on', channel=9, note=40, velocity=0, time=94),
    Message('note_on', channel=9, note=59, velocity=0, time=0),
    Message('note_on', channel=9, note=59, velocity=92, time=2),
    Message('note_on', channel=9, note=59, velocity=0, time=46),
    Message('note_on', channel=9, note=40, velocity=84, time=2),
    Message('note_on', channel=9, note=40, velocity=0, time=10),
    Message('note_on', channel=9, note=40, velocity=45, time=2),
    Message('note_on', channel=9, note=40, velocity=0, time=10),
    Message('note_on', channel=9, note=40, velocity=45, time=2),
    Message('note_on', channel=9, note=40, velocity=0, time=10),
    Message('note_on', channel=9, note=40, velocity=45, time=2),
    Message('note_on', channel=9, note=40, velocity=0, time=10),
    Message('note_on', channel=9, note=59, velocity=92, time=2),
    Message('note_on', channel=9, note=59, velocity=0, time=46),
    Message('note_on', channel=9, note=35, velocity=92, time=2),
    Message('note_on', channel=9, note=35, velocity=0, time=46),
    Message('note_on', channel=9, note=35, velocity=92, time=2),
    Message('note_on', channel=9, note=59, velocity=92, time=0),
    Message('note_on', channel=9, note=35, velocity=0, time=94),
    Message('note_on', channel=9, note=59, velocity=0, time=0),
    Message('note_on', channel=9, note=40, velocity=92, time=2),
    Message('note_on', channel=9, note=59, velocity=92, time=0),
    Message('note_on', channel=9, note=40, velocity=0, time=94),
    Message('note_on', channel=9, note=59, velocity=0, time=0),
    Message('note_on', channel=9, note=59, velocity=92, time=2),
    Message('note_on', channel=9, note=59, velocity=0, time=46),
    Message('note_on', channel=9, note=40, velocity=84, time=2),
    Message('note_on', channel=9, note=40, velocity=0, time=10),
    Message('note_on', channel=9, note=40, velocity=45, time=2),
    Message('note_on', channel=9, note=40, velocity=0, time=10),
    Message('note_on', channel=9, note=40, velocity=45, time=2),
    Message('note_on', channel=9, note=40, velocity=0, time=10),
    Message('note_on', channel=9, note=40, velocity=45, time=2),
    Message('note_on', channel=9, note=40, velocity=0, time=10),
    Message('note_on', channel=9, note=35, velocity=92, time=2),
    Message('note_on', channel=9, note=57, velocity=92, time=0),
    Message('note_on', channel=9, note=35, velocity=0, time=94),
    Message('note_on', channel=9, note=57, velocity=0, time=0),
    Message('note_on', channel=9, note=59, velocity=92, time=2),
    Message('note_on', channel=9, note=59, velocity=0, time=94),
    Message('note_on', channel=9, note=40, velocity=92, time=2),
    Message('note_on', channel=9, note=59, velocity=92, time=0),
    Message('note_on', channel=9, note=40, velocity=0, time=94),
    Message('note_on', channel=9, note=59, velocity=0, time=0),
    Message('note_on', channel=9, note=59, velocity=92, time=2),
    Message('note_on', channel=9, note=59, velocity=0, time=46),
    Message('note_on', channel=9, note=40, velocity=127, time=2),
    Message('note_on', channel=9, note=40, velocity=0, time=46),
    Message('note_on', channel=9, note=59, velocity=92, time=2),
    Message('note_on', channel=9, note=59, velocity=0, time=46),
    Message('note_on', channel=9, note=35, velocity=92, time=2),
    Message('note_on', channel=9, note=35, velocity=0, time=46),
    Message('note_on', channel=9, note=35, velocity=92, time=2),
    Message('note_on', channel=9, note=59, velocity=92, time=0),
    Message('note_on', channel=9, note=35, velocity=0, time=94),
    Message('note_on', channel=9, note=59, velocity=0, time=0),
    Message('note_on', channel=9, note=40, velocity=92, time=2),
    Message('note_on', channel=9, note=50, velocity=92, time=0),
    Message('note_on', channel=9, note=40, velocity=0, time=10),
    Message('note_on', channel=9, note=40, velocity=45, time=2),
    Message('note_on', channel=9, note=40, velocity=0, time=10),
    Message('note_on', channel=9, note=40, velocity=45, time=2),
    Message('note_on', channel=9, note=40, velocity=0, time=10),
    Message('note_on', channel=9, note=40, velocity=45, time=2),
    Message('note_on', channel=9, note=50, velocity=0, time=10),
    Message('note_on', channel=9, note=40, velocity=0, time=0),
    Message('note_on', channel=9, note=35, velocity=92, time=2),
    Message('note_on', channel=9, note=35, velocity=0, time=46),
    Message('note_on', channel=9, note=40, velocity=92, time=2),
    Message('note_on', channel=9, note=47, velocity=92, time=0),
    Message('note_on', channel=9, note=40, velocity=0, time=10),
    Message('note_on', channel=9, note=40, velocity=45, time=2),
    Message('note_on', channel=9, note=40, velocity=0, time=10),
    Message('note_on', channel=9, note=40, velocity=45, time=2),
    Message('note_on', channel=9, note=40, velocity=0, time=10),
    Message('note_on', channel=9, note=40, velocity=45, time=2),
    Message('note_on', channel=9, note=47, velocity=0, time=10),
    Message('note_on', channel=9, note=40, velocity=0, time=0),
    Message('note_on', channel=9, note=35, velocity=92, time=2),
    Message('note_on', channel=9, note=35, velocity=0, time=46),
    Message('note_on', channel=9, note=35, velocity=92, time=2),
    Message('note_on', channel=9, note=57, velocity=92, time=0),
    Message('note_on', channel=9, note=35, velocity=0, time=94),
    Message('note_on', channel=9, note=57, velocity=0, time=0),
    Message('note_on', channel=9, note=35, velocity=92, time=2),
    Message('note_on', channel=9, note=59, velocity=92, time=0),
    Message('note_on', channel=9, note=35, velocity=0, time=94),
    Message('note_on', channel=9, note=59, velocity=0, time=0),
    Message('note_on', channel=9, note=40, velocity=92, time=2),
    Message('note_on', channel=9, note=59, velocity=92, time=0),
    Message('note_on', channel=9, note=40, velocity=0, time=94),
    Message('note_on', channel=9, note=59, velocity=0, time=0),
    Message('note_on', channel=9, note=59, velocity=92, time=2),
    Message('note_on', channel=9, note=59, velocity=0, time=46),
    Message('note_on', channel=9, note=40, velocity=84, time=2),
    Message('note_on', channel=9, note=40, velocity=0, time=10),
    Message('note_on', channel=9, note=40, velocity=45, time=2),
    Message('note_on', channel=9, note=40, velocity=0, time=10),
    Message('note_on', channel=9, note=40, velocity=45, time=2),
    Message('note_on', channel=9, note=40, velocity=0, time=10),
    Message('note_on', channel=9, note=40, velocity=45, time=2),
    Message('note_on', channel=9, note=40, velocity=0, time=10),
    Message('note_on', channel=9, note=59, velocity=92, time=2),
    Message('note_on', channel=9, note=59, velocity=0, time=46),
    Message('note_on', channel=9, note=35, velocity=92, time=2),
    Message('note_on', channel=9, note=35, velocity=0, time=46),
    Message('note_on', channel=9, note=35, velocity=92, time=2),
    Message('note_on', channel=9, note=59, velocity=92, time=0),
    Message('note_on', channel=9, note=35, velocity=0, time=94),
    Message('note_on', channel=9, note=59, velocity=0, time=0),
    Message('note_on', channel=9, note=40, velocity=92, time=2),
    Message('note_on', channel=9, note=59, velocity=92, time=0),
    Message('note_on', channel=9, note=40, velocity=0, time=94),
    Message('note_on', channel=9, note=59, velocity=0, time=0),
    Message('note_on', channel=9, note=59, velocity=92, time=2),
    Message('note_on', channel=9, note=59, velocity=0, time=46),
    Message('note_on', channel=9, note=40, velocity=84, time=2),
    Message('note_on', channel=9, note=40, velocity=0, time=10),
    Message('note_on', channel=9, note=40, velocity=45, time=2),
    Message('note_on', channel=9, note=40, velocity=0, time=10),
    Message('note_on', channel=9, note=40, velocity=45, time=2),
    Message('note_on', channel=9, note=40, velocity=0, time=10),
    Message('note_on', channel=9, note=40, velocity=45, time=2),
    Message('note_on', channel=9, note=40, velocity=0, time=10),
    Message('note_on', channel=9, note=35, velocity=92, time=2),
    Message('note_on', channel=9, note=57, velocity=92, time=0),
    Message('note_on', channel=9, note=35, velocity=0, time=94),
    Message('note_on', channel=9, note=57, velocity=0, time=0),
    Message('note_on', channel=9, note=59, velocity=92, time=2),
    Message('note_on', channel=9, note=59, velocity=0, time=94),
    Message('note_on', channel=9, note=40, velocity=92, time=2),
    Message('note_on', channel=9, note=59, velocity=92, time=0),
    Message('note_on', channel=9, note=40, velocity=0, time=94),
    Message('note_on', channel=9, note=59, velocity=0, time=0),
    Message('note_on', channel=9, note=59, velocity=92, time=2),
    Message('note_on', channel=9, note=59, velocity=0, time=46),
    Message('note_on', channel=9, note=40, velocity=127, time=2),
    Message('note_on', channel=9, note=40, velocity=0, time=46),
    Message('note_on', channel=9, note=59, velocity=92, time=2),
    Message('note_on', channel=9, note=59, velocity=0, time=46),
    Message('note_on', channel=9, note=35, velocity=92, time=2),
    Message('note_on', channel=9, note=35, velocity=0, time=46),
    Message('note_on', channel=9, note=35, velocity=92, time=2),
    Message('note_on', channel=9, note=59, velocity=92, time=0),
    Message('note_on', channel=9, note=35, velocity=0, time=94),
    Message('note_on', channel=9, note=59, velocity=0, time=0),
    Message('note_on', channel=9, note=40, velocity=92, time=2),
    Message('note_on', channel=9, note=50, velocity=92, time=0),
    Message('note_on', channel=9, note=40, velocity=0, time=10),
    Message('note_on', channel=9, note=40, velocity=45, time=2),
    Message('note_on', channel=9, note=40, velocity=0, time=10),
    Message('note_on', channel=9, note=40, velocity=45, time=2),
    Message('note_on', channel=9, note=40, velocity=0, time=10),
    Message('note_on', channel=9, note=40, velocity=45, time=2),
    Message('note_on', channel=9, note=50, velocity=0, time=10),
    Message('note_on', channel=9, note=40, velocity=0, time=0),
    Message('note_on', channel=9, note=35, velocity=92, time=2),
    Message('note_on', channel=9, note=35, velocity=0, time=46),
    Message('note_on', channel=9, note=40, velocity=92, time=2),
    Message('note_on', channel=9, note=47, velocity=92, time=0),
    Message('note_on', channel=9, note=40, velocity=0, time=10),
    Message('note_on', channel=9, note=40, velocity=45, time=2),
    Message('note_on', channel=9, note=40, velocity=0, time=10),
    Message('note_on', channel=9, note=40, velocity=45, time=2),
    Message('note_on', channel=9, note=40, velocity=0, time=10),
    Message('note_on', channel=9, note=40, velocity=45, time=2),
    Message('note_on', channel=9, note=47, velocity=0, time=10),
    Message('note_on', channel=9, note=40, velocity=0, time=0),
    Message('note_on', channel=9, note=35, velocity=92, time=2),
    Message('note_on', channel=9, note=35, velocity=0, time=46),
    Message('note_on', channel=9, note=35, velocity=92, time=2),
    Message('note_on', channel=9, note=46, velocity=92, time=0),
    Message('note_on', channel=9, note=57, velocity=92, time=0),
    Message('note_on', channel=9, note=35, velocity=0, time=94),
    Message('note_on', channel=9, note=46, velocity=0, time=0),
    Message('note_on', channel=9, note=57, velocity=0, time=0),
    Message('note_on', channel=9, note=46, velocity=92, time=2),
    Message('note_on', channel=9, note=46, velocity=0, time=46),
    Message('note_on', channel=9, note=35, velocity=92, time=2),
    Message('note_on', channel=9, note=35, velocity=0, time=46),
    Message('note_on', channel=9, note=40, velocity=92, time=2),
    Message('note_on', channel=9, note=46, velocity=92, time=0),
    Message('note_on', channel=9, note=40, velocity=0, time=94),
    Message('note_on', channel=9, note=46, velocity=0, time=0),
    Message('note_on', channel=9, note=46, velocity=92, time=2),
    Message('note_on', channel=9, note=46, velocity=0, time=94),
    Message('note_on', channel=9, note=35, velocity=92, time=2),
    Message('note_on', channel=9, note=46, velocity=92, time=0),
    Message('note_on', channel=9, note=35, velocity=0, time=94),
    Message('note_on', channel=9, note=46, velocity=0, time=0),
    Message('note_on', channel=9, note=46, velocity=92, time=2),
    Message('note_on', channel=9, note=46, velocity=0, time=46),
    Message('note_on', channel=9, note=35, velocity=92, time=2),
    Message('note_on', channel=9, note=35, velocity=0, time=46),
    Message('note_on', channel=9, note=40, velocity=92, time=2),
    Message('note_on', channel=9, note=46, velocity=92, time=0),
    Message('note_on', channel=9, note=40, velocity=0, time=94),
    Message('note_on', channel=9, note=46, velocity=0, time=0),
    Message('note_on', channel=9, note=35, velocity=92, time=2),
    Message('note_on', channel=9, note=46, velocity=92, time=0),
    Message('note_on', channel=9, note=35, velocity=0, time=94),
    Message('note_on', channel=9, note=46, velocity=0, time=0),
    Message('note_on', channel=9, note=35, velocity=92, time=2),
    Message('note_on', channel=9, note=46, velocity=92, time=0),
    Message('note_on', channel=9, note=35, velocity=0, time=94),
    Message('note_on', channel=9, note=46, velocity=0, time=0),
    Message('note_on', channel=9, note=46, velocity=92, time=2),
    Message('note_on', channel=9, note=46, velocity=0, time=46),
    Message('note_on', channel=9, note=35, velocity=92, time=2),
    Message('note_on', channel=9, note=35, velocity=0, time=46),
    Message('note_on', channel=9, note=40, velocity=92, time=2),
    Message('note_on', channel=9, note=46, velocity=92, time=0),
    Message('note_on', channel=9, note=40, velocity=0, time=94),
    Message('note_on', channel=9, note=46, velocity=0, time=0),
    Message('note_on', channel=9, note=46, velocity=92, time=2),
    Message('note_on', channel=9, note=46, velocity=0, time=94),
    Message('note_on', channel=9, note=35, velocity=92, time=2),
    Message('note_on', channel=9, note=46, velocity=92, time=0),
    Message('note_on', channel=9, note=35, velocity=0, time=94),
    Message('note_on', channel=9, note=46, velocity=0, time=0),
    Message('note_on', channel=9, note=46, velocity=92, time=2),
    Message('note_on', channel=9, note=46, velocity=0, time=46),
    Message('note_on', channel=9, note=35, velocity=92, time=2),
    Message('note_on', channel=9, note=35, velocity=0, time=46),
    Message('note_on', channel=9, note=40, velocity=92, time=2),
    Message('note_on', channel=9, note=46, velocity=92, time=0),
    Message('note_on', channel=9, note=40, velocity=0, time=94),
    Message('note_on', channel=9, note=46, velocity=0, time=0),
    Message('note_on', channel=9, note=35, velocity=92, time=2),
    Message('note_on', channel=9, note=46, velocity=92, time=0),
    Message('note_on', channel=9, note=35, velocity=0, time=94),
    Message('note_on', channel=9, note=46, velocity=0, time=0),
    Message('note_on', channel=9, note=35, velocity=92, time=2),
    Message('note_on', channel=9, note=46, velocity=92, time=0),
    Message('note_on', channel=9, note=57, velocity=92, time=0),
    Message('note_on', channel=9, note=35, velocity=0, time=94),
    Message('note_on', channel=9, note=46, velocity=0, time=0),
    Message('note_on', channel=9, note=57, velocity=0, time=0),
    Message('note_on', channel=9, note=46, velocity=92, time=2),
    Message('note_on', channel=9, note=46, velocity=0, time=46),
    Message('note_on', channel=9, note=35, velocity=92, time=2),
    Message('note_on', channel=9, note=35, velocity=0, time=46),
    Message('note_on', channel=9, note=40, velocity=92, time=2),
    Message('note_on', channel=9, note=46, velocity=92, time=0),
    Message('note_on', channel=9, note=40, velocity=0, time=94),
    Message('note_on', channel=9, note=46, velocity=0, time=0),
    Message('note_on', channel=9, note=46, velocity=92, time=2),
    Message('note_on', channel=9, note=46, velocity=0, time=94),
    Message('note_on', channel=9, note=35, velocity=92, time=2),
    Message('note_on', channel=9, note=46, velocity=92, time=0),
    Message('note_on', channel=9, note=35, velocity=0, time=94),
    Message('note_on', channel=9, note=46, velocity=0, time=0),
    Message('note_on', channel=9, note=46, velocity=92, time=2),
    Message('note_on', channel=9, note=46, velocity=0, time=46),
    Message('note_on', channel=9, note=35, velocity=92, time=2),
    Message('note_on', channel=9, note=35, velocity=0, time=46),
    Message('note_on', channel=9, note=40, velocity=92, time=2),
    Message('note_on', channel=9, note=46, velocity=92, time=0),
    Message('note_on', channel=9, note=40, velocity=0, time=94),
    Message('note_on', channel=9, note=46, velocity=0, time=0),
    Message('note_on', channel=9, note=35, velocity=92, time=2),
    Message('note_on', channel=9, note=46, velocity=92, time=0),
    Message('note_on', channel=9, note=35, velocity=0, time=94),
    Message('note_on', channel=9, note=46, velocity=0, time=0),
    Message('note_on', channel=9, note=35, velocity=92, time=2),
    Message('note_on', channel=9, note=46, velocity=92, time=0),
    Message('note_on', channel=9, note=35, velocity=0, time=94),
    Message('note_on', channel=9, note=46, velocity=0, time=0),
    Message('note_on', channel=9, note=46, velocity=92, time=2),
    Message('note_on', channel=9, note=46, velocity=0, time=46),
    Message('note_on', channel=9, note=35, velocity=92, time=2),
    Message('note_on', channel=9, note=35, velocity=0, time=46),
    Message('note_on', channel=9, note=40, velocity=92, time=2),
    Message('note_on', channel=9, note=46, velocity=92, time=0),
    Message('note_on', channel=9, note=40, velocity=0, time=94),
    Message('note_on', channel=9, note=46, velocity=0, time=0),
    Message('note_on', channel=9, note=46, velocity=92, time=2),
    Message('note_on', channel=9, note=46, velocity=0, time=94),
    Message('note_on', channel=9, note=35, velocity=92, time=2),
    Message('note_on', channel=9, note=46, velocity=92, time=0),
    Message('note_on', channel=9, note=35, velocity=0, time=94),
    Message('note_on', channel=9, note=46, velocity=0, time=0),
    Message('note_on', channel=9, note=46, velocity=92, time=2),
    Message('note_on', channel=9, note=46, velocity=0, time=46),
    Message('note_on', channel=9, note=35, velocity=92, time=2),
    Message('note_on', channel=9, note=35, velocity=0, time=46),
    Message('note_on', channel=9, note=40, velocity=92, time=2),
    Message('note_on', channel=9, note=46, velocity=92, time=0),
    Message('note_on', channel=9, note=40, velocity=0, time=94),
    Message('note_on', channel=9, note=46, velocity=0, time=0),
    Message('note_on', channel=9, note=35, velocity=92, time=2),
    Message('note_on', channel=9, note=46, velocity=92, time=0),
    Message('note_on', channel=9, note=35, velocity=0, time=94),
    Message('note_on', channel=9, note=46, velocity=0, time=0),
    Message('note_on', channel=9, note=35, velocity=92, time=2),
    Message('note_on', channel=9, note=46, velocity=92, time=0),
    Message('note_on', channel=9, note=57, velocity=92, time=0),
    Message('note_on', channel=9, note=35, velocity=0, time=94),
    Message('note_on', channel=9, note=46, velocity=0, time=0),
    Message('note_on', channel=9, note=57, velocity=0, time=0),
    Message('note_on', channel=9, note=46, velocity=92, time=2),
    Message('note_on', channel=9, note=46, velocity=0, time=46),
    Message('note_on', channel=9, note=35, velocity=92, time=2),
    Message('note_on', channel=9, note=35, velocity=0, time=46),
    Message('note_on', channel=9, note=40, velocity=92, time=2),
    Message('note_on', channel=9, note=46, velocity=92, time=0),
    Message('note_on', channel=9, note=40, velocity=0, time=94),
    Message('note_on', channel=9, note=46, velocity=0, time=0),
    Message('note_on', channel=9, note=46, velocity=92, time=2),
    Message('note_on', channel=9, note=46, velocity=0, time=94),
    Message('note_on', channel=9, note=35, velocity=92, time=2),
    Message('note_on', channel=9, note=46, velocity=92, time=0),
    Message('note_on', channel=9, note=35, velocity=0, time=94),
    Message('note_on', channel=9, note=46, velocity=0, time=0),
    Message('note_on', channel=9, note=46, velocity=92, time=2),
    Message('note_on', channel=9, note=46, velocity=0, time=46),
    Message('note_on', channel=9, note=35, velocity=92, time=2),
    Message('note_on', channel=9, note=35, velocity=0, time=46),
    Message('note_on', channel=9, note=40, velocity=92, time=2),
    Message('note_on', channel=9, note=46, velocity=92, time=0),
    Message('note_on', channel=9, note=40, velocity=0, time=94),
    Message('note_on', channel=9, note=46, velocity=0, time=0),
    Message('note_on', channel=9, note=35, velocity=92, time=2),
    Message('note_on', channel=9, note=46, velocity=92, time=0),
    Message('note_on', channel=9, note=35, velocity=0, time=94),
    Message('note_on', channel=9, note=46, velocity=0, time=0),
    Message('note_on', channel=9, note=35, velocity=92, time=2),
    Message('note_on', channel=9, note=46, velocity=92, time=0),
    Message('note_on', channel=9, note=35, velocity=0, time=94),
    Message('note_on', channel=9, note=46, velocity=0, time=0),
    Message('note_on', channel=9, note=46, velocity=92, time=2),
    Message('note_on', channel=9, note=46, velocity=0, time=46),
    Message('note_on', channel=9, note=35, velocity=92, time=2),
    Message('note_on', channel=9, note=35, velocity=0, time=46),
    Message('note_on', channel=9, note=40, velocity=92, time=2),
    Message('note_on', channel=9, note=46, velocity=92, time=0),
    Message('note_on', channel=9, note=40, velocity=0, time=94),
    Message('note_on', channel=9, note=46, velocity=0, time=0),
    Message('note_on', channel=9, note=46, velocity=92, time=2),
    Message('note_on', channel=9, note=46, velocity=0, time=94),
    Message('note_on', channel=9, note=35, velocity=92, time=2),
    Message('note_on', channel=9, note=46, velocity=92, time=0),
    Message('note_on', channel=9, note=35, velocity=0, time=94),
    Message('note_on', channel=9, note=46, velocity=0, time=0),
    Message('note_on', channel=9, note=46, velocity=92, time=2),
    Message('note_on', channel=9, note=46, velocity=0, time=46),
    Message('note_on', channel=9, note=35, velocity=92, time=2),
    Message('note_on', channel=9, note=35, velocity=0, time=46),
    Message('note_on', channel=9, note=40, velocity=92, time=2),
    Message('note_on', channel=9, note=46, velocity=92, time=0),
    Message('note_on', channel=9, note=40, velocity=0, time=94),
    Message('note_on', channel=9, note=46, velocity=0, time=0),
    Message('note_on', channel=9, note=35, velocity=92, time=2),
    Message('note_on', channel=9, note=46, velocity=92, time=0),
    Message('note_on', channel=9, note=35, velocity=0, time=94),
    Message('note_on', channel=9, note=46, velocity=0, time=0),
    Message('note_on', channel=9, note=35, velocity=92, time=2),
    Message('note_on', channel=9, note=46, velocity=92, time=0),
    Message('note_on', channel=9, note=57, velocity=92, time=0),
    Message('note_on', channel=9, note=35, velocity=0, time=94),
    Message('note_on', channel=9, note=46, velocity=0, time=0),
    Message('note_on', channel=9, note=57, velocity=0, time=0),
    Message('note_on', channel=9, note=46, velocity=92, time=2),
    Message('note_on', channel=9, note=46, velocity=0, time=46),
    Message('note_on', channel=9, note=35, velocity=92, time=2),
    Message('note_on', channel=9, note=35, velocity=0, time=46),
    Message('note_on', channel=9, note=40, velocity=92, time=2),
    Message('note_on', channel=9, note=46, velocity=92, time=0),
    Message('note_on', channel=9, note=40, velocity=0, time=94),
    Message('note_on', channel=9, note=46, velocity=0, time=0),
    Message('note_on', channel=9, note=46, velocity=92, time=2),
    Message('note_on', channel=9, note=46, velocity=0, time=94),
    Message('note_on', channel=9, note=35, velocity=92, time=2),
    Message('note_on', channel=9, note=46, velocity=92, time=0),
    Message('note_on', channel=9, note=35, velocity=0, time=94),
    Message('note_on', channel=9, note=46, velocity=0, time=0),
    Message('note_on', channel=9, note=46, velocity=92, time=2),
    Message('note_on', channel=9, note=46, velocity=0, time=46),
    Message('note_on', channel=9, note=35, velocity=92, time=2),
    Message('note_on', channel=9, note=35, velocity=0, time=46),
    Message('note_on', channel=9, note=40, velocity=92, time=2),
    Message('note_on', channel=9, note=46, velocity=92, time=0),
    Message('note_on', channel=9, note=40, velocity=0, time=94),
    Message('note_on', channel=9, note=46, velocity=0, time=0),
    Message('note_on', channel=9, note=35, velocity=92, time=2),
    Message('note_on', channel=9, note=46, velocity=92, time=0),
    Message('note_on', channel=9, note=35, velocity=0, time=94),
    Message('note_on', channel=9, note=46, velocity=0, time=0),
    Message('note_on', channel=9, note=35, velocity=92, time=2),
    Message('note_on', channel=9, note=46, velocity=92, time=0),
    Message('note_on', channel=9, note=35, velocity=0, time=94),
    Message('note_on', channel=9, note=46, velocity=0, time=0),
    Message('note_on', channel=9, note=46, velocity=92, time=2),
    Message('note_on', channel=9, note=46, velocity=0, time=46),
    Message('note_on', channel=9, note=35, velocity=92, time=2),
    Message('note_on', channel=9, note=35, velocity=0, time=46),
    Message('note_on', channel=9, note=40, velocity=92, time=2),
    Message('note_on', channel=9, note=46, velocity=92, time=0),
    Message('note_on', channel=9, note=40, velocity=0, time=94),
    Message('note_on', channel=9, note=46, velocity=0, time=0),
    Message('note_on', channel=9, note=46, velocity=92, time=2),
    Message('note_on', channel=9, note=46, velocity=0, time=94),
    Message('note_on', channel=9, note=35, velocity=92, time=2),
    Message('note_on', channel=9, note=46, velocity=92, time=0),
    Message('note_on', channel=9, note=35, velocity=0, time=94),
    Message('note_on', channel=9, note=46, velocity=0, time=0),
    Message('note_on', channel=9, note=46, velocity=92, time=2),
    Message('note_on', channel=9, note=46, velocity=0, time=46),
    Message('note_on', channel=9, note=35, velocity=92, time=2),
    Message('note_on', channel=9, note=35, velocity=0, time=46),
    Message('note_on', channel=9, note=40, velocity=92, time=2),
    Message('note_on', channel=9, note=46, velocity=92, time=0),
    Message('note_on', channel=9, note=40, velocity=0, time=94),
    Message('note_on', channel=9, note=46, velocity=0, time=0),
    Message('note_on', channel=9, note=35, velocity=92, time=2),
    Message('note_on', channel=9, note=46, velocity=92, time=0),
    Message('note_on', channel=9, note=35, velocity=0, time=94),
    Message('note_on', channel=9, note=46, velocity=0, time=0),
    Message('note_on', channel=9, note=35, velocity=92, time=2),
    Message('note_on', channel=9, note=57, velocity=92, time=0),
    Message('note_on', channel=9, note=35, velocity=0, time=94),
    Message('note_on', channel=9, note=57, velocity=0, time=0),
    Message('note_on', channel=9, note=53, velocity=60, time=50),
    Message('note_on', channel=9, note=53, velocity=0, time=46),
    Message('note_on', channel=9, note=53, velocity=60, time=2),
    Message('note_on', channel=9, note=53, velocity=0, time=46),
    Message('note_on', channel=9, note=53, velocity=60, time=50),
    Message('note_on', channel=9, note=53, velocity=0, time=46),
    Message('note_on', channel=9, note=53, velocity=60, time=2),
    Message('note_on', channel=9, note=53, velocity=0, time=46),
    Message('note_on', channel=9, note=53, velocity=60, time=98),
    Message('note_on', channel=9, note=53, velocity=0, time=46),
    Message('note_on', channel=9, note=53, velocity=60, time=2),
    Message('note_on', channel=9, note=53, velocity=0, time=94),
    Message('note_on', channel=9, note=53, velocity=60, time=2),
    Message('note_on', channel=9, note=53, velocity=0, time=94),
    Message('note_on', channel=9, note=53, velocity=60, time=2),
    Message('note_on', channel=9, note=53, velocity=0, time=46),
    Message('note_on', channel=9, note=35, velocity=92, time=2),
    Message('note_on', channel=9, note=57, velocity=92, time=0),
    Message('note_on', channel=9, note=35, velocity=0, time=94),
    Message('note_on', channel=9, note=57, velocity=0, time=0),
    Message('note_on', channel=9, note=53, velocity=60, time=98),
    Message('note_on', channel=9, note=53, velocity=0, time=46),
    Message('note_on', channel=9, note=53, velocity=60, time=2),
    Message('note_on', channel=9, note=53, velocity=0, time=46),
    Message('note_on', channel=9, note=53, velocity=60, time=98),
    Message('note_on', channel=9, note=53, velocity=0, time=46),
    Message('note_on', channel=9, note=53, velocity=60, time=2),
    Message('note_on', channel=9, note=53, velocity=0, time=46),
    Message('note_on', channel=9, note=53, velocity=60, time=194),
    Message('note_on', channel=9, note=53, velocity=0, time=46),
    Message('note_on', channel=9, note=53, velocity=60, time=2),
    Message('note_on', channel=9, note=53, velocity=0, time=46),
    Message('note_on', channel=9, note=35, velocity=92, time=2),
    Message('note_on', channel=9, note=57, velocity=92, time=0),
    Message('note_on', channel=9, note=35, velocity=0, time=94),
    Message('note_on', channel=9, note=57, velocity=0, time=0),
    Message('note_on', channel=9, note=53, velocity=60, time=50),
    Message('note_on', channel=9, note=53, velocity=0, time=46),
    Message('note_on', channel=9, note=53, velocity=60, time=2),
    Message('note_on', channel=9, note=53, velocity=0, time=46),
    Message('note_on', channel=9, note=53, velocity=60, time=50),
    Message('note_on', channel=9, note=53, velocity=0, time=46),
    Message('note_on', channel=9, note=53, velocity=60, time=2),
    Message('note_on', channel=9, note=53, velocity=0, time=46),
    Message('note_on', channel=9, note=53, velocity=60, time=98),
    Message('note_on', channel=9, note=53, velocity=0, time=46),
    Message('note_on', channel=9, note=53, velocity=60, time=2),
    Message('note_on', channel=9, note=53, velocity=0, time=94),
    Message('note_on', channel=9, note=53, velocity=60, time=2),
    Message('note_on', channel=9, note=53, velocity=0, time=94),
    Message('note_on', channel=9, note=53, velocity=60, time=2),
    Message('note_on', channel=9, note=53, velocity=0, time=46),
    Message('note_on', channel=9, note=35, velocity=92, time=2),
    Message('note_on', channel=9, note=57, velocity=92, time=0),
    Message('note_on', channel=9, note=35, velocity=0, time=720),
    Message('note_on', channel=9, note=57, velocity=0, time=0),
    Message('note_on', channel=9, note=35, velocity=92, time=48),
    Message('note_on', channel=9, note=57, velocity=92, time=0),
    Message('note_on', channel=9, note=35, velocity=0, time=94),
    Message('note_on', channel=9, note=57, velocity=0, time=0),
    Message('note_on', channel=9, note=35, velocity=92, time=2),
    Message('note_on', channel=9, note=59, velocity=92, time=0),
    Message('note_on', channel=9, note=35, velocity=0, time=94),
    Message('note_on', channel=9, note=59, velocity=0, time=0),
    Message('note_on', channel=9, note=40, velocity=92, time=2),
    Message('note_on', channel=9, note=59, velocity=92, time=0),
    Message('note_on', channel=9, note=40, velocity=0, time=94),
    Message('note_on', channel=9, note=59, velocity=0, time=0),
    Message('note_on', channel=9, note=59, velocity=92, time=2),
    Message('note_on', channel=9, note=59, velocity=0, time=46),
    Message('note_on', channel=9, note=40, velocity=84, time=2),
    Message('note_on', channel=9, note=40, velocity=0, time=10),
    Message('note_on', channel=9, note=40, velocity=45, time=2),
    Message('note_on', channel=9, note=40, velocity=0, time=10),
    Message('note_on', channel=9, note=40, velocity=45, time=2),
    Message('note_on', channel=9, note=40, velocity=0, time=10),
    Message('note_on', channel=9, note=40, velocity=45, time=2),
    Message('note_on', channel=9, note=40, velocity=0, time=10),
    Message('note_on', channel=9, note=59, velocity=92, time=2),
    Message('note_on', channel=9, note=59, velocity=0, time=46),
    Message('note_on', channel=9, note=35, velocity=92, time=2),
    Message('note_on', channel=9, note=35, velocity=0, time=46),
    Message('note_on', channel=9, note=35, velocity=92, time=2),
    Message('note_on', channel=9, note=59, velocity=92, time=0),
    Message('note_on', channel=9, note=35, velocity=0, time=94),
    Message('note_on', channel=9, note=59, velocity=0, time=0),
    Message('note_on', channel=9, note=40, velocity=92, time=2),
    Message('note_on', channel=9, note=59, velocity=92, time=0),
    Message('note_on', channel=9, note=40, velocity=0, time=94),
    Message('note_on', channel=9, note=59, velocity=0, time=0),
    Message('note_on', channel=9, note=59, velocity=92, time=2),
    Message('note_on', channel=9, note=59, velocity=0, time=46),
    Message('note_on', channel=9, note=40, velocity=84, time=2),
    Message('note_on', channel=9, note=40, velocity=0, time=10),
    Message('note_on', channel=9, note=40, velocity=45, time=2),
    Message('note_on', channel=9, note=40, velocity=0, time=10),
    Message('note_on', channel=9, note=40, velocity=45, time=2),
    Message('note_on', channel=9, note=40, velocity=0, time=10),
    Message('note_on', channel=9, note=40, velocity=45, time=2),
    Message('note_on', channel=9, note=40, velocity=0, time=10),
    Message('note_on', channel=9, note=35, velocity=92, time=2),
    Message('note_on', channel=9, note=57, velocity=92, time=0),
    Message('note_on', channel=9, note=35, velocity=0, time=94),
    Message('note_on', channel=9, note=57, velocity=0, time=0),
    Message('note_on', channel=9, note=59, velocity=92, time=2),
    Message('note_on', channel=9, note=59, velocity=0, time=94),
    Message('note_on', channel=9, note=40, velocity=92, time=2),
    Message('note_on', channel=9, note=59, velocity=92, time=0),
    Message('note_on', channel=9, note=40, velocity=0, time=94),
    Message('note_on', channel=9, note=59, velocity=0, time=0),
    Message('note_on', channel=9, note=59, velocity=92, time=2),
    Message('note_on', channel=9, note=59, velocity=0, time=46),
    Message('note_on', channel=9, note=40, velocity=127, time=2),
    Message('note_on', channel=9, note=40, velocity=0, time=46),
    Message('note_on', channel=9, note=59, velocity=92, time=2),
    Message('note_on', channel=9, note=59, velocity=0, time=46),
    Message('note_on', channel=9, note=35, velocity=92, time=2),
    Message('note_on', channel=9, note=35, velocity=0, time=46),
    Message('note_on', channel=9, note=35, velocity=92, time=2),
    Message('note_on', channel=9, note=59, velocity=92, time=0),
    Message('note_on', channel=9, note=35, velocity=0, time=94),
    Message('note_on', channel=9, note=59, velocity=0, time=0),
    Message('note_on', channel=9, note=40, velocity=92, time=2),
    Message('note_on', channel=9, note=50, velocity=92, time=0),
    Message('note_on', channel=9, note=40, velocity=0, time=10),
    Message('note_on', channel=9, note=40, velocity=45, time=2),
    Message('note_on', channel=9, note=40, velocity=0, time=10),
    Message('note_on', channel=9, note=40, velocity=45, time=2),
    Message('note_on', channel=9, note=40, velocity=0, time=10),
    Message('note_on', channel=9, note=40, velocity=45, time=2),
    Message('note_on', channel=9, note=50, velocity=0, time=10),
    Message('note_on', channel=9, note=40, velocity=0, time=0),
    Message('note_on', channel=9, note=35, velocity=92, time=2),
    Message('note_on', channel=9, note=35, velocity=0, time=46),
    Message('note_on', channel=9, note=40, velocity=92, time=2),
    Message('note_on', channel=9, note=47, velocity=92, time=0),
    Message('note_on', channel=9, note=40, velocity=0, time=10),
    Message('note_on', channel=9, note=40, velocity=45, time=2),
    Message('note_on', channel=9, note=40, velocity=0, time=10),
    Message('note_on', channel=9, note=40, velocity=45, time=2),
    Message('note_on', channel=9, note=40, velocity=0, time=10),
    Message('note_on', channel=9, note=40, velocity=45, time=2),
    Message('note_on', channel=9, note=47, velocity=0, time=10),
    Message('note_on', channel=9, note=40, velocity=0, time=0),
    Message('note_on', channel=9, note=35, velocity=92, time=2),
    Message('note_on', channel=9, note=35, velocity=0, time=46),
    Message('note_on', channel=9, note=35, velocity=92, time=2),
    Message('note_on', channel=9, note=57, velocity=92, time=0),
    Message('note_on', channel=9, note=35, velocity=0, time=94),
    Message('note_on', channel=9, note=57, velocity=0, time=0),
    Message('note_on', channel=9, note=35, velocity=92, time=2),
    Message('note_on', channel=9, note=59, velocity=92, time=0),
    Message('note_on', channel=9, note=35, velocity=0, time=94),
    Message('note_on', channel=9, note=59, velocity=0, time=0),
    Message('note_on', channel=9, note=40, velocity=92, time=2),
    Message('note_on', channel=9, note=59, velocity=92, time=0),
    Message('note_on', channel=9, note=40, velocity=0, time=94),
    Message('note_on', channel=9, note=59, velocity=0, time=0),
    Message('note_on', channel=9, note=59, velocity=92, time=2),
    Message('note_on', channel=9, note=59, velocity=0, time=46),
    Message('note_on', channel=9, note=40, velocity=84, time=2),
    Message('note_on', channel=9, note=40, velocity=0, time=10),
    Message('note_on', channel=9, note=40, velocity=45, time=2),
    Message('note_on', channel=9, note=40, velocity=0, time=10),
    Message('note_on', channel=9, note=40, velocity=45, time=2),
    Message('note_on', channel=9, note=40, velocity=0, time=10),
    Message('note_on', channel=9, note=40, velocity=45, time=2),
    Message('note_on', channel=9, note=40, velocity=0, time=10),
    Message('note_on', channel=9, note=59, velocity=92, time=2),
    Message('note_on', channel=9, note=59, velocity=0, time=46),
    Message('note_on', channel=9, note=35, velocity=92, time=2),
    Message('note_on', channel=9, note=35, velocity=0, time=46),
    Message('note_on', channel=9, note=35, velocity=92, time=2),
    Message('note_on', channel=9, note=59, velocity=92, time=0),
    Message('note_on', channel=9, note=35, velocity=0, time=94),
    Message('note_on', channel=9, note=59, velocity=0, time=0),
    Message('note_on', channel=9, note=40, velocity=92, time=2),
    Message('note_on', channel=9, note=59, velocity=92, time=0),
    Message('note_on', channel=9, note=40, velocity=0, time=94),
    Message('note_on', channel=9, note=59, velocity=0, time=0),
    Message('note_on', channel=9, note=59, velocity=92, time=2),
    Message('note_on', channel=9, note=59, velocity=0, time=46),
    Message('note_on', channel=9, note=40, velocity=84, time=2),
    Message('note_on', channel=9, note=40, velocity=0, time=10),
    Message('note_on', channel=9, note=40, velocity=45, time=2),
    Message('note_on', channel=9, note=40, velocity=0, time=10),
    Message('note_on', channel=9, note=40, velocity=45, time=2),
    Message('note_on', channel=9, note=40, velocity=0, time=10),
    Message('note_on', channel=9, note=40, velocity=45, time=2),
    Message('note_on', channel=9, note=40, velocity=0, time=10),
    Message('note_on', channel=9, note=35, velocity=92, time=2),
    Message('note_on', channel=9, note=57, velocity=92, time=0),
    Message('note_on', channel=9, note=35, velocity=0, time=94),
    Message('note_on', channel=9, note=57, velocity=0, time=0),
    Message('note_on', channel=9, note=59, velocity=92, time=2),
    Message('note_on', channel=9, note=59, velocity=0, time=94),
    Message('note_on', channel=9, note=40, velocity=92, time=2),
    Message('note_on', channel=9, note=59, velocity=92, time=0),
    Message('note_on', channel=9, note=40, velocity=0, time=94),
    Message('note_on', channel=9, note=59, velocity=0, time=0),
    Message('note_on', channel=9, note=59, velocity=92, time=2),
    Message('note_on', channel=9, note=59, velocity=0, time=46),
    Message('note_on', channel=9, note=40, velocity=127, time=2),
    Message('note_on', channel=9, note=40, velocity=0, time=46),
    Message('note_on', channel=9, note=59, velocity=92, time=2),
    Message('note_on', channel=9, note=59, velocity=0, time=46),
    Message('note_on', channel=9, note=35, velocity=92, time=2),
    Message('note_on', channel=9, note=35, velocity=0, time=46),
    Message('note_on', channel=9, note=35, velocity=92, time=2),
    Message('note_on', channel=9, note=59, velocity=92, time=0),
    Message('note_on', channel=9, note=35, velocity=0, time=94),
    Message('note_on', channel=9, note=59, velocity=0, time=0),
    Message('note_on', channel=9, note=40, velocity=92, time=2),
    Message('note_on', channel=9, note=50, velocity=92, time=0),
    Message('note_on', channel=9, note=40, velocity=0, time=10),
    Message('note_on', channel=9, note=40, velocity=45, time=2),
    Message('note_on', channel=9, note=40, velocity=0, time=10),
    Message('note_on', channel=9, note=40, velocity=45, time=2),
    Message('note_on', channel=9, note=40, velocity=0, time=10),
    Message('note_on', channel=9, note=40, velocity=45, time=2),
    Message('note_on', channel=9, note=50, velocity=0, time=10),
    Message('note_on', channel=9, note=40, velocity=0, time=0),
    Message('note_on', channel=9, note=35, velocity=92, time=2),
    Message('note_on', channel=9, note=35, velocity=0, time=46),
    Message('note_on', channel=9, note=40, velocity=92, time=2),
    Message('note_on', channel=9, note=47, velocity=92, time=0),
    Message('note_on', channel=9, note=40, velocity=0, time=10),
    Message('note_on', channel=9, note=40, velocity=45, time=2),
    Message('note_on', channel=9, note=40, velocity=0, time=10),
    Message('note_on', channel=9, note=40, velocity=45, time=2),
    Message('note_on', channel=9, note=40, velocity=0, time=10),
    Message('note_on', channel=9, note=40, velocity=45, time=2),
    Message('note_on', channel=9, note=47, velocity=0, time=10),
    Message('note_on', channel=9, note=40, velocity=0, time=0),
    Message('note_on', channel=9, note=35, velocity=92, time=2),
    Message('note_on', channel=9, note=35, velocity=0, time=46),
    Message('note_on', channel=9, note=35, velocity=92, time=2),
    Message('note_on', channel=9, note=57, velocity=92, time=0),
    Message('note_on', channel=9, note=35, velocity=0, time=94),
    Message('note_on', channel=9, note=57, velocity=0, time=0),
    Message('note_on', channel=9, note=35, velocity=92, time=2),
    Message('note_on', channel=9, note=59, velocity=92, time=0),
    Message('note_on', channel=9, note=35, velocity=0, time=94),
    Message('note_on', channel=9, note=59, velocity=0, time=0),
    Message('note_on', channel=9, note=40, velocity=92, time=2),
    Message('note_on', channel=9, note=59, velocity=92, time=0),
    Message('note_on', channel=9, note=40, velocity=0, time=94),
    Message('note_on', channel=9, note=59, velocity=0, time=0),
    Message('note_on', channel=9, note=59, velocity=92, time=2),
    Message('note_on', channel=9, note=59, velocity=0, time=46),
    Message('note_on', channel=9, note=40, velocity=84, time=2),
    Message('note_on', channel=9, note=40, velocity=0, time=10),
    Message('note_on', channel=9, note=40, velocity=45, time=2),
    Message('note_on', channel=9, note=40, velocity=0, time=10),
    Message('note_on', channel=9, note=40, velocity=45, time=2),
    Message('note_on', channel=9, note=40, velocity=0, time=10),
    Message('note_on', channel=9, note=40, velocity=45, time=2),
    Message('note_on', channel=9, note=40, velocity=0, time=10),
    Message('note_on', channel=9, note=59, velocity=92, time=2),
    Message('note_on', channel=9, note=59, velocity=0, time=46),
    Message('note_on', channel=9, note=35, velocity=92, time=2),
    Message('note_on', channel=9, note=35, velocity=0, time=46),
    Message('note_on', channel=9, note=35, velocity=92, time=2),
    Message('note_on', channel=9, note=59, velocity=92, time=0),
    Message('note_on', channel=9, note=35, velocity=0, time=94),
    Message('note_on', channel=9, note=59, velocity=0, time=0),
    Message('note_on', channel=9, note=40, velocity=92, time=2),
    Message('note_on', channel=9, note=59, velocity=92, time=0),
    Message('note_on', channel=9, note=40, velocity=0, time=94),
    Message('note_on', channel=9, note=59, velocity=0, time=0),
    Message('note_on', channel=9, note=59, velocity=92, time=2),
    Message('note_on', channel=9, note=59, velocity=0, time=46),
    Message('note_on', channel=9, note=40, velocity=84, time=2),
    Message('note_on', channel=9, note=40, velocity=0, time=10),
    Message('note_on', channel=9, note=40, velocity=45, time=2),
    Message('note_on', channel=9, note=40, velocity=0, time=10),
    Message('note_on', channel=9, note=40, velocity=45, time=2),
    Message('note_on', channel=9, note=40, velocity=0, time=10),
    Message('note_on', channel=9, note=40, velocity=45, time=2),
    Message('note_on', channel=9, note=40, velocity=0, time=10),
    Message('note_on', channel=9, note=35, velocity=92, time=2),
    Message('note_on', channel=9, note=57, velocity=92, time=0),
    Message('note_on', channel=9, note=35, velocity=0, time=94),
    Message('note_on', channel=9, note=57, velocity=0, time=0),
    Message('note_on', channel=9, note=59, velocity=92, time=2),
    Message('note_on', channel=9, note=59, velocity=0, time=94),
    Message('note_on', channel=9, note=40, velocity=92, time=2),
    Message('note_on', channel=9, note=59, velocity=92, time=0),
    Message('note_on', channel=9, note=40, velocity=0, time=94),
    Message('note_on', channel=9, note=59, velocity=0, time=0),
    Message('note_on', channel=9, note=59, velocity=92, time=2),
    Message('note_on', channel=9, note=59, velocity=0, time=46),
    Message('note_on', channel=9, note=40, velocity=127, time=2),
    Message('note_on', channel=9, note=40, velocity=0, time=46),
    Message('note_on', channel=9, note=59, velocity=92, time=2),
    Message('note_on', channel=9, note=59, velocity=0, time=46),
    Message('note_on', channel=9, note=35, velocity=92, time=2),
    Message('note_on', channel=9, note=35, velocity=0, time=46),
    Message('note_on', channel=9, note=35, velocity=92, time=2),
    Message('note_on', channel=9, note=59, velocity=92, time=0),
    Message('note_on', channel=9, note=35, velocity=0, time=94),
    Message('note_on', channel=9, note=59, velocity=0, time=0),
    Message('note_on', channel=9, note=40, velocity=92, time=2),
    Message('note_on', channel=9, note=50, velocity=92, time=0),
    Message('note_on', channel=9, note=40, velocity=0, time=10),
    Message('note_on', channel=9, note=40, velocity=45, time=2),
    Message('note_on', channel=9, note=40, velocity=0, time=10),
    Message('note_on', channel=9, note=40, velocity=45, time=2),
    Message('note_on', channel=9, note=40, velocity=0, time=10),
    Message('note_on', channel=9, note=40, velocity=45, time=2),
    Message('note_on', channel=9, note=50, velocity=0, time=10),
    Message('note_on', channel=9, note=40, velocity=0, time=0),
    Message('note_on', channel=9, note=35, velocity=92, time=2),
    Message('note_on', channel=9, note=35, velocity=0, time=46),
    Message('note_on', channel=9, note=40, velocity=92, time=2),
    Message('note_on', channel=9, note=47, velocity=92, time=0),
    Message('note_on', channel=9, note=40, velocity=0, time=10),
    Message('note_on', channel=9, note=40, velocity=45, time=2),
    Message('note_on', channel=9, note=40, velocity=0, time=10),
    Message('note_on', channel=9, note=40, velocity=45, time=2),
    Message('note_on', channel=9, note=40, velocity=0, time=10),
    Message('note_on', channel=9, note=40, velocity=45, time=2),
    Message('note_on', channel=9, note=47, velocity=0, time=10),
    Message('note_on', channel=9, note=40, velocity=0, time=0),
    Message('note_on', channel=9, note=35, velocity=92, time=2),
    Message('note_on', channel=9, note=35, velocity=0, time=46),
    Message('note_on', channel=9, note=35, velocity=92, time=2),
    Message('note_on', channel=9, note=46, velocity=92, time=0),
    Message('note_on', channel=9, note=57, velocity=92, time=0),
    Message('note_on', channel=9, note=35, velocity=0, time=94),
    Message('note_on', channel=9, note=46, velocity=0, time=0),
    Message('note_on', channel=9, note=57, velocity=0, time=0),
    Message('note_on', channel=9, note=46, velocity=92, time=2),
    Message('note_on', channel=9, note=46, velocity=0, time=46),
    Message('note_on', channel=9, note=35, velocity=92, time=2),
    Message('note_on', channel=9, note=35, velocity=0, time=46),
    Message('note_on', channel=9, note=40, velocity=92, time=2),
    Message('note_on', channel=9, note=46, velocity=92, time=0),
    Message('note_on', channel=9, note=40, velocity=0, time=94),
    Message('note_on', channel=9, note=46, velocity=0, time=0),
    Message('note_on', channel=9, note=46, velocity=92, time=2),
    Message('note_on', channel=9, note=46, velocity=0, time=94),
    Message('note_on', channel=9, note=35, velocity=92, time=2),
    Message('note_on', channel=9, note=46, velocity=92, time=0),
    Message('note_on', channel=9, note=35, velocity=0, time=94),
    Message('note_on', channel=9, note=46, velocity=0, time=0),
    Message('note_on', channel=9, note=46, velocity=92, time=2),
    Message('note_on', channel=9, note=46, velocity=0, time=46),
    Message('note_on', channel=9, note=35, velocity=92, time=2),
    Message('note_on', channel=9, note=35, velocity=0, time=46),
    Message('note_on', channel=9, note=40, velocity=92, time=2),
    Message('note_on', channel=9, note=46, velocity=92, time=0),
    Message('note_on', channel=9, note=40, velocity=0, time=94),
    Message('note_on', channel=9, note=46, velocity=0, time=0),
    Message('note_on', channel=9, note=35, velocity=92, time=2),
    Message('note_on', channel=9, note=46, velocity=92, time=0),
    Message('note_on', channel=9, note=35, velocity=0, time=94),
    Message('note_on', channel=9, note=46, velocity=0, time=0),
    Message('note_on', channel=9, note=35, velocity=92, time=2),
    Message('note_on', channel=9, note=46, velocity=92, time=0),
    Message('note_on', channel=9, note=35, velocity=0, time=94),
    Message('note_on', channel=9, note=46, velocity=0, time=0),
    Message('note_on', channel=9, note=46, velocity=92, time=2),
    Message('note_on', channel=9, note=46, velocity=0, time=46),
    Message('note_on', channel=9, note=35, velocity=92, time=2),
    Message('note_on', channel=9, note=35, velocity=0, time=46),
    Message('note_on', channel=9, note=40, velocity=92, time=2),
    Message('note_on', channel=9, note=46, velocity=92, time=0),
    Message('note_on', channel=9, note=40, velocity=0, time=94),
    Message('note_on', channel=9, note=46, velocity=0, time=0),
    Message('note_on', channel=9, note=46, velocity=92, time=2),
    Message('note_on', channel=9, note=46, velocity=0, time=94),
    Message('note_on', channel=9, note=35, velocity=92, time=2),
    Message('note_on', channel=9, note=46, velocity=92, time=0),
    Message('note_on', channel=9, note=35, velocity=0, time=94),
    Message('note_on', channel=9, note=46, velocity=0, time=0),
    Message('note_on', channel=9, note=46, velocity=92, time=2),
    Message('note_on', channel=9, note=46, velocity=0, time=46),
    Message('note_on', channel=9, note=35, velocity=92, time=2),
    Message('note_on', channel=9, note=35, velocity=0, time=46),
    Message('note_on', channel=9, note=40, velocity=92, time=2),
    Message('note_on', channel=9, note=46, velocity=92, time=0),
    Message('note_on', channel=9, note=40, velocity=0, time=94),
    Message('note_on', channel=9, note=46, velocity=0, time=0),
    Message('note_on', channel=9, note=35, velocity=92, time=2),
    Message('note_on', channel=9, note=46, velocity=92, time=0),
    Message('note_on', channel=9, note=35, velocity=0, time=94),
    Message('note_on', channel=9, note=46, velocity=0, time=0),
    Message('note_on', channel=9, note=35, velocity=92, time=2),
    Message('note_on', channel=9, note=46, velocity=92, time=0),
    Message('note_on', channel=9, note=57, velocity=92, time=0),
    Message('note_on', channel=9, note=35, velocity=0, time=94),
    Message('note_on', channel=9, note=46, velocity=0, time=0),
    Message('note_on', channel=9, note=57, velocity=0, time=0),
    Message('note_on', channel=9, note=46, velocity=92, time=2),
    Message('note_on', channel=9, note=46, velocity=0, time=46),
    Message('note_on', channel=9, note=35, velocity=92, time=2),
    Message('note_on', channel=9, note=35, velocity=0, time=46),
    Message('note_on', channel=9, note=40, velocity=92, time=2),
    Message('note_on', channel=9, note=46, velocity=92, time=0),
    Message('note_on', channel=9, note=40, velocity=0, time=94),
    Message('note_on', channel=9, note=46, velocity=0, time=0),
    Message('note_on', channel=9, note=46, velocity=92, time=2),
    Message('note_on', channel=9, note=46, velocity=0, time=94),
    Message('note_on', channel=9, note=35, velocity=92, time=2),
    Message('note_on', channel=9, note=46, velocity=92, time=0),
    Message('note_on', channel=9, note=35, velocity=0, time=94),
    Message('note_on', channel=9, note=46, velocity=0, time=0),
    Message('note_on', channel=9, note=46, velocity=92, time=2),
    Message('note_on', channel=9, note=46, velocity=0, time=46),
    Message('note_on', channel=9, note=35, velocity=92, time=2),
    Message('note_on', channel=9, note=35, velocity=0, time=46),
    Message('note_on', channel=9, note=40, velocity=92, time=2),
    Message('note_on', channel=9, note=46, velocity=92, time=0),
    Message('note_on', channel=9, note=40, velocity=0, time=94),
    Message('note_on', channel=9, note=46, velocity=0, time=0),
    Message('note_on', channel=9, note=35, velocity=92, time=2),
    Message('note_on', channel=9, note=46, velocity=92, time=0),
    Message('note_on', channel=9, note=35, velocity=0, time=94),
    Message('note_on', channel=9, note=46, velocity=0, time=0),
    Message('note_on', channel=9, note=35, velocity=92, time=2),
    Message('note_on', channel=9, note=46, velocity=92, time=0),
    Message('note_on', channel=9, note=35, velocity=0, time=94),
    Message('note_on', channel=9, note=46, velocity=0, time=0),
    Message('note_on', channel=9, note=46, velocity=92, time=2),
    Message('note_on', channel=9, note=46, velocity=0, time=46),
    Message('note_on', channel=9, note=35, velocity=92, time=2),
    Message('note_on', channel=9, note=35, velocity=0, time=46),
    Message('note_on', channel=9, note=40, velocity=92, time=2),
    Message('note_on', channel=9, note=46, velocity=92, time=0),
    Message('note_on', channel=9, note=40, velocity=0, time=94),
    Message('note_on', channel=9, note=46, velocity=0, time=0),
    Message('note_on', channel=9, note=46, velocity=92, time=2),
    Message('note_on', channel=9, note=46, velocity=0, time=94),
    Message('note_on', channel=9, note=35, velocity=92, time=2),
    Message('note_on', channel=9, note=46, velocity=92, time=0),
    Message('note_on', channel=9, note=35, velocity=0, time=94),
    Message('note_on', channel=9, note=46, velocity=0, time=0),
    Message('note_on', channel=9, note=46, velocity=92, time=2),
    Message('note_on', channel=9, note=46, velocity=0, time=46),
    Message('note_on', channel=9, note=35, velocity=92, time=2),
    Message('note_on', channel=9, note=35, velocity=0, time=46),
    Message('note_on', channel=9, note=40, velocity=92, time=2),
    Message('note_on', channel=9, note=46, velocity=92, time=0),
    Message('note_on', channel=9, note=40, velocity=0, time=94),
    Message('note_on', channel=9, note=46, velocity=0, time=0),
    Message('note_on', channel=9, note=35, velocity=92, time=2),
    Message('note_on', channel=9, note=46, velocity=92, time=0),
    Message('note_on', channel=9, note=35, velocity=0, time=94),
    Message('note_on', channel=9, note=46, velocity=0, time=0),
    Message('note_on', channel=9, note=35, velocity=92, time=2),
    Message('note_on', channel=9, note=46, velocity=92, time=0),
    Message('note_on', channel=9, note=57, velocity=92, time=0),
    Message('note_on', channel=9, note=35, velocity=0, time=94),
    Message('note_on', channel=9, note=46, velocity=0, time=0),
    Message('note_on', channel=9, note=57, velocity=0, time=0),
    Message('note_on', channel=9, note=46, velocity=92, time=2),
    Message('note_on', channel=9, note=46, velocity=0, time=46),
    Message('note_on', channel=9, note=35, velocity=92, time=2),
    Message('note_on', channel=9, note=35, velocity=0, time=46),
    Message('note_on', channel=9, note=40, velocity=92, time=2),
    Message('note_on', channel=9, note=46, velocity=92, time=0),
    Message('note_on', channel=9, note=40, velocity=0, time=94),
    Message('note_on', channel=9, note=46, velocity=0, time=0),
    Message('note_on', channel=9, note=46, velocity=92, time=2),
    Message('note_on', channel=9, note=46, velocity=0, time=94),
    Message('note_on', channel=9, note=35, velocity=92, time=2),
    Message('note_on', channel=9, note=46, velocity=92, time=0),
    Message('note_on', channel=9, note=35, velocity=0, time=94),
    Message('note_on', channel=9, note=46, velocity=0, time=0),
    Message('note_on', channel=9, note=46, velocity=92, time=2),
    Message('note_on', channel=9, note=46, velocity=0, time=46),
    Message('note_on', channel=9, note=35, velocity=92, time=2),
    Message('note_on', channel=9, note=35, velocity=0, time=46),
    Message('note_on', channel=9, note=40, velocity=92, time=2),
    Message('note_on', channel=9, note=46, velocity=92, time=0),
    Message('note_on', channel=9, note=40, velocity=0, time=94),
    Message('note_on', channel=9, note=46, velocity=0, time=0),
    Message('note_on', channel=9, note=35, velocity=92, time=2),
    Message('note_on', channel=9, note=46, velocity=92, time=0),
    Message('note_on', channel=9, note=35, velocity=0, time=94),
    Message('note_on', channel=9, note=46, velocity=0, time=0),
    Message('note_on', channel=9, note=35, velocity=92, time=2),
    Message('note_on', channel=9, note=46, velocity=92, time=0),
    Message('note_on', channel=9, note=35, velocity=0, time=94),
    Message('note_on', channel=9, note=46, velocity=0, time=0),
    Message('note_on', channel=9, note=46, velocity=92, time=2),
    Message('note_on', channel=9, note=46, velocity=0, time=46),
    Message('note_on', channel=9, note=35, velocity=92, time=2),
    Message('note_on', channel=9, note=35, velocity=0, time=46),
    Message('note_on', channel=9, note=40, velocity=92, time=2),
    Message('note_on', channel=9, note=46, velocity=92, time=0),
    Message('note_on', channel=9, note=40, velocity=0, time=94),
    Message('note_on', channel=9, note=46, velocity=0, time=0),
    Message('note_on', channel=9, note=46, velocity=92, time=2),
    Message('note_on', channel=9, note=46, velocity=0, time=94),
    Message('note_on', channel=9, note=35, velocity=92, time=2),
    Message('note_on', channel=9, note=46, velocity=92, time=0),
    Message('note_on', channel=9, note=35, velocity=0, time=94),
    Message('note_on', channel=9, note=46, velocity=0, time=0),
    Message('note_on', channel=9, note=46, velocity=92, time=2),
    Message('note_on', channel=9, note=46, velocity=0, time=46),
    Message('note_on', channel=9, note=35, velocity=92, time=2),
    Message('note_on', channel=9, note=35, velocity=0, time=46),
    Message('note_on', channel=9, note=40, velocity=92, time=2),
    Message('note_on', channel=9, note=46, velocity=92, time=0),
    Message('note_on', channel=9, note=40, velocity=0, time=94),
    Message('note_on', channel=9, note=46, velocity=0, time=0),
    Message('note_on', channel=9, note=35, velocity=92, time=2),
    Message('note_on', channel=9, note=46, velocity=92, time=0),
    Message('note_on', channel=9, note=35, velocity=0, time=94),
    Message('note_on', channel=9, note=46, velocity=0, time=0),
    Message('note_on', channel=9, note=35, velocity=92, time=2),
    Message('note_on', channel=9, note=46, velocity=92, time=0),
    Message('note_on', channel=9, note=57, velocity=92, time=0),
    Message('note_on', channel=9, note=35, velocity=0, time=94),
    Message('note_on', channel=9, note=46, velocity=0, time=0),
    Message('note_on', channel=9, note=57, velocity=0, time=0),
    Message('note_on', channel=9, note=46, velocity=92, time=2),
    Message('note_on', channel=9, note=46, velocity=0, time=46),
    Message('note_on', channel=9, note=35, velocity=92, time=2),
    Message('note_on', channel=9, note=35, velocity=0, time=46),
    Message('note_on', channel=9, note=40, velocity=92, time=2),
    Message('note_on', channel=9, note=46, velocity=92, time=0),
    Message('note_on', channel=9, note=40, velocity=0, time=94),
    Message('note_on', channel=9, note=46, velocity=0, time=0),
    Message('note_on', channel=9, note=46, velocity=92, time=2),
    Message('note_on', channel=9, note=46, velocity=0, time=94),
    Message('note_on', channel=9, note=35, velocity=92, time=2),
    Message('note_on', channel=9, note=46, velocity=92, time=0),
    Message('note_on', channel=9, note=35, velocity=0, time=94),
    Message('note_on', channel=9, note=46, velocity=0, time=0),
    Message('note_on', channel=9, note=46, velocity=92, time=2),
    Message('note_on', channel=9, note=46, velocity=0, time=46),
    Message('note_on', channel=9, note=35, velocity=92, time=2),
    Message('note_on', channel=9, note=35, velocity=0, time=46),
    Message('note_on', channel=9, note=40, velocity=92, time=2),
    Message('note_on', channel=9, note=46, velocity=92, time=0),
    Message('note_on', channel=9, note=40, velocity=0, time=94),
    Message('note_on', channel=9, note=46, velocity=0, time=0),
    Message('note_on', channel=9, note=35, velocity=92, time=2),
    Message('note_on', channel=9, note=46, velocity=92, time=0),
    Message('note_on', channel=9, note=35, velocity=0, time=94),
    Message('note_on', channel=9, note=46, velocity=0, time=0),
    Message('note_on', channel=9, note=35, velocity=92, time=2),
    Message('note_on', channel=9, note=46, velocity=92, time=0),
    Message('note_on', channel=9, note=35, velocity=0, time=94),
    Message('note_on', channel=9, note=46, velocity=0, time=0),
    Message('note_on', channel=9, note=46, velocity=92, time=2),
    Message('note_on', channel=9, note=46, velocity=0, time=46),
    Message('note_on', channel=9, note=35, velocity=92, time=2),
    Message('note_on', channel=9, note=35, velocity=0, time=46),
    Message('note_on', channel=9, note=40, velocity=92, time=2),
    Message('note_on', channel=9, note=46, velocity=92, time=0),
    Message('note_on', channel=9, note=40, velocity=0, time=94),
    Message('note_on', channel=9, note=46, velocity=0, time=0),
    Message('note_on', channel=9, note=46, velocity=92, time=2),
    Message('note_on', channel=9, note=46, velocity=0, time=94),
    Message('note_on', channel=9, note=35, velocity=92, time=2),
    Message('note_on', channel=9, note=46, velocity=92, time=0),
    Message('note_on', channel=9, note=35, velocity=0, time=94),
    Message('note_on', channel=9, note=46, velocity=0, time=0),
    Message('note_on', channel=9, note=46, velocity=92, time=2),
    Message('note_on', channel=9, note=46, velocity=0, time=46),
    Message('note_on', channel=9, note=35, velocity=92, time=2),
    Message('note_on', channel=9, note=35, velocity=0, time=46),
    Message('note_on', channel=9, note=40, velocity=92, time=2),
    Message('note_on', channel=9, note=46, velocity=92, time=0),
    Message('note_on', channel=9, note=40, velocity=0, time=94),
    Message('note_on', channel=9, note=46, velocity=0, time=0),
    Message('note_on', channel=9, note=35, velocity=92, time=2),
    Message('note_on', channel=9, note=46, velocity=92, time=0),
    Message('note_on', channel=9, note=35, velocity=0, time=94),
    Message('note_on', channel=9, note=46, velocity=0, time=0),
    Message('note_on', channel=9, note=35, velocity=92, time=2),
    Message('note_on', channel=9, note=57, velocity=92, time=0),
    Message('note_on', channel=9, note=35, velocity=0, time=720),
    Message('note_on', channel=9, note=57, velocity=0, time=0),
    MetaMessage('end_of_track', time=0)])
])
