MidiFile(type=1, ticks_per_beat=960, tracks=[
  MidiTrack([
    Message('control_change', channel=0, control=101, value=0, time=0),
    Message('control_change', channel=0, control=100, value=0, time=0),
    Message('control_change', channel=0, control=6, value=12, time=0),
    Message('control_change', channel=0, control=38, value=0, time=0),
    Message('control_change', channel=1, control=101, value=0, time=0),
    Message('control_change', channel=1, control=100, value=0, time=0),
    Message('control_change', channel=1, control=6, value=12, time=0),
    Message('control_change', channel=1, control=38, value=0, time=0),
    Message('control_change', channel=2, control=101, value=0, time=0),
    Message('control_change', channel=2, control=100, value=0, time=0),
    Message('control_change', channel=2, control=6, value=12, time=0),
    Message('control_change', channel=2, control=38, value=0, time=0),
    Message('control_change', channel=3, control=101, value=0, time=0),
    Message('control_change', channel=3, control=100, value=0, time=0),
    Message('control_change', channel=3, control=6, value=12, time=0),
    Message('control_change', channel=3, control=38, value=0, time=0),
    Message('control_change', channel=4, control=101, value=0, time=0),
    Message('control_change', channel=4, control=100, value=0, time=0),
    Message('control_change', channel=4, control=6, value=12, time=0),
    Message('control_change', channel=4, control=38, value=0, time=0),
    Message('control_change', channel=5, control=101, value=0, time=0),
    Message('control_change', channel=5, control=100, value=0, time=0),
    Message('control_change', channel=5, control=6, value=12, time=0),
    Message('control_change', channel=5, control=38, value=0, time=0),
    Message('control_change', channel=6, control=101, value=0, time=0),
    Message('control_change', channel=6, control=100, value=0, time=0),
    Message('control_change', channel=6, control=6, value=12, time=0),
    Message('control_change', channel=6, control=38, value=0, time=0),
    Message('control_change', channel=7, control=101, value=0, time=0),
    Message('control_change', channel=7, control=100, value=0, time=0),
    Message('control_change', channel=7, control=6, value=12, time=0),
    Message('control_change', channel=7, control=38, value=0, time=0),
    Message('control_change', channel=8, control=101, value=0, time=0),
    Message('control_change', channel=8, control=100, value=0, time=0),
    Message('control_change', channel=8, control=6, value=12, time=0),
    Message('control_change', channel=8, control=38, value=0, time=0),
    Message('control_change', channel=9, control=101, value=0, time=0),
    Message('control_change', channel=9, control=100, value=0, time=0),
    Message('control_change', channel=9, control=6, value=12, time=0),
    Message('control_change', channel=9, control=38, value=0, time=0),
    Message('control_change', channel=10, control=101, value=0, time=0),
    Message('control_change', channel=10, control=100, value=0, time=0),
    Message('control_change', channel=10, control=6, value=12, time=0),
    Message('control_change', channel=10, control=38, value=0, time=0),
    Message('control_change', channel=11, control=101, value=0, time=0),
    Message('control_change', channel=11, control=100, value=0, time=0),
    Message('control_change', channel=11, control=6, value=12, time=0),
    Message('control_change', channel=11, control=38, value=0, time=0),
    Message('control_change', channel=12, control=101, value=0, time=0),
    Message('control_change', channel=12, control=100, value=0, time=0),
    Message('control_change', channel=12, control=6, value=12, time=0),
    Message('control_change', channel=12, control=38, value=0, time=0),
    Message('control_change', channel=13, control=101, value=0, time=0),
    Message('control_change', channel=13, control=100, value=0, time=0),
    Message('control_change', channel=13, control=6, value=12, time=0),
    Message('control_change', channel=13, control=38, value=0, time=0),
    Message('control_change', channel=14, control=101, value=0, time=0),
    Message('control_change', channel=14, control=100, value=0, time=0),
    Message('control_change', channel=14, control=6, value=12, time=0),
    Message('control_change', channel=14, control=38, value=0, time=0),
    Message('control_change', channel=15, control=101, value=0, time=0),
    Message('control_change', channel=15, control=100, value=0, time=0),
    Message('control_change', channel=15, control=6, value=12, time=0),
    Message('control_change', channel=15, control=38, value=0, time=0),
    MetaMessage('time_signature', numerator=4, denominator=4, clocks_per_click=24, notated_32nd_notes_per_beat=8, time=0),
    MetaMessage('set_tempo', tempo=789473, time=0),
    MetaMessage('time_signature', numerator=2, denominator=4, clocks_per_click=24, notated_32nd_notes_per_beat=8, time=34560),
    MetaMessage('time_signature', numerator=4, denominator=4, clocks_per_click=24, notated_32nd_notes_per_beat=8, time=1920),
    MetaMessage('time_signature', numerator=7, denominator=8, clocks_per_click=12, notated_32nd_notes_per_beat=8, time=145920),
    MetaMessage('time_signature', numerator=4, denominator=4, clocks_per_click=24, notated_32nd_notes_per_beat=8, time=3360),
    MetaMessage('time_signature', numerator=7, denominator=8, clocks_per_click=12, notated_32nd_notes_per_beat=8, time=3840),
    MetaMessage('time_signature', numerator=4, denominator=4, clocks_per_click=24, notated_32nd_notes_per_beat=8, time=3360),
    MetaMessage('time_signature', numerator=7, denominator=8, clocks_per_click=12, notated_32nd_notes_per_beat=8, time=3840),
    MetaMessage('time_signature', numerator=4, denominator=4, clocks_per_click=24, notated_32nd_notes_per_beat=8, time=3360),
    MetaMessage('set_tempo', tempo=1090909, time=199680),
    MetaMessage('set_tempo', tempo=1200000, time=7680),
    MetaMessage('end_of_track', time=0)]),
  MidiTrack([
    Message('pitchwheel', channel=0, pitch=0, time=0),
    Message('control_change', channel=0, control=7, value=127, time=0),
    Message('control_change', channel=0, control=10, value=87, time=0),
    Message('control_change', channel=0, control=93, value=23, time=0),
    Message('control_change', channel=0, control=91, value=47, time=0),
    Message('control_change', channel=0, control=95, value=0, time=0),
    Message('control_change', channel=0, control=92, value=0, time=0),
    Message('control_change', channel=0, control=11, value=127, time=0),
    Message('program_change', channel=0, program=29, time=0),
    Message('control_change', channel=1, control=7, value=127, time=0),
    Message('control_change', channel=1, control=10, value=87, time=0),
    Message('control_change', channel=1, control=93, value=23, time=0),
    Message('control_change', channel=1, control=91, value=47, time=0),
    Message('control_change', channel=1, control=95, value=0, time=0),
    Message('control_change', channel=1, control=92, value=0, time=0),
    Message('control_change', channel=1, control=11, value=127, time=0),
    Message('program_change', channel=1, program=29, time=0),
    Message('note_on', channel=1, note=60, velocity=95, time=2880),
    Message('pitchwheel', channel=1, pitch=-1664, time=120),
    Message('pitchwheel', channel=1, pitch=-3456, time=120),
    Message('pitchwheel', channel=1, pitch=-5248, time=120),
    Message('pitchwheel', channel=1, pitch=-7040, time=120),
    Message('pitchwheel', channel=1, pitch=0, time=0),
    Message('note_off', channel=1, note=60, velocity=95, time=0),
    Message('note_on', channel=0, note=50, velocity=95, time=0),
    Message('note_on', channel=0, note=55, velocity=95, time=2),
    Message('note_off', channel=0, note=55, velocity=95, time=238),
    Message('note_off', channel=0, note=50, velocity=95, time=0),
    Message('note_on', channel=0, note=55, velocity=95, time=0),
    Message('note_on', channel=0, note=50, velocity=95, time=2),
    Message('note_off', channel=0, note=55, velocity=95, time=238),
    Message('note_off', channel=0, note=50, velocity=95, time=0),
    Message('note_on', channel=0, note=45, velocity=95, time=0),
    Message('note_on', channel=0, note=52, velocity=95, time=6),
    Message('note_on', channel=0, note=57, velocity=95, time=6),
    Message('note_off', channel=0, note=57, velocity=95, time=708),
    Message('note_off', channel=0, note=52, velocity=95, time=0),
    Message('note_off', channel=0, note=45, velocity=95, time=0),
    Message('note_on', channel=1, note=48, velocity=95, time=0),
    Message('pitchwheel', channel=1, pitch=2816, time=120),
    Message('pitchwheel', channel=1, pitch=0, time=0),
    Message('note_off', channel=1, note=48, velocity=95, time=0),
    Message('note_on', channel=0, note=52, velocity=47, time=0),
    Message('note_off', channel=0, note=52, velocity=47, time=120),
    Message('note_on', channel=0, note=50, velocity=95, time=0),
    Message('note_off', channel=0, note=50, velocity=95, time=240),
    Message('note_on', channel=0, note=57, velocity=70, time=0),
    Message('note_off', channel=0, note=57, velocity=70, time=240),
    Message('note_on', channel=1, note=59, velocity=95, time=0),
    Message('pitchwheel', channel=1, pitch=0, time=160),
    Message('pitchwheel', channel=1, pitch=128, time=160),
    Message('pitchwheel', channel=1, pitch=0, time=160),
    Message('pitchwheel', channel=1, pitch=128, time=160),
    Message('pitchwheel', channel=1, pitch=0, time=160),
    Message('pitchwheel', channel=1, pitch=128, time=160),
    Message('pitchwheel', channel=1, pitch=0, time=0),
    Message('note_off', channel=1, note=59, velocity=95, time=0),
    Message('note_on', channel=1, note=57, velocity=95, time=0),
    Message('pitchwheel', channel=1, pitch=0, time=160),
    Message('pitchwheel', channel=1, pitch=128, time=160),
    Message('pitchwheel', channel=1, pitch=0, time=160),
    Message('pitchwheel', channel=1, pitch=128, time=160),
    Message('pitchwheel', channel=1, pitch=0, time=80),
    Message('pitchwheel', channel=1, pitch=128, time=0),
    Message('pitchwheel', channel=1, pitch=0, time=0),
    Message('note_off', channel=1, note=57, velocity=95, time=0),
    Message('note_on', channel=0, note=57, velocity=95, time=0),
    Message('note_on', channel=0, note=45, velocity=95, time=2),
    Message('note_off', channel=0, note=57, velocity=95, time=238),
    Message('note_off', channel=0, note=45, velocity=95, time=0),
    Message('note_on', channel=0, note=45, velocity=95, time=0),
    Message('note_on', channel=0, note=52, velocity=95, time=2),
    Message('note_on', channel=0, note=57, velocity=95, time=2),
    Message('note_off', channel=0, note=57, velocity=95, time=236),
    Message('note_off', channel=0, note=52, velocity=95, time=0),
    Message('note_off', channel=0, note=45, velocity=95, time=0),
    Message('note_on', channel=0, note=55, velocity=95, time=0),
    Message('note_on', channel=0, note=50, velocity=95, time=2),
    Message('note_on', channel=0, note=45, velocity=95, time=2),
    Message('note_off', channel=0, note=55, velocity=95, time=236),
    Message('note_off', channel=0, note=50, velocity=95, time=0),
    Message('note_off', channel=0, note=45, velocity=95, time=0),
    Message('note_on', channel=0, note=45, velocity=95, time=0),
    Message('note_on', channel=0, note=52, velocity=95, time=6),
    Message('note_on', channel=0, note=57, velocity=95, time=6),
    Message('note_off', channel=0, note=57, velocity=95, time=708),
    Message('note_off', channel=0, note=52, velocity=95, time=0),
    Message('note_off', channel=0, note=45, velocity=95, time=0),
    Message('note_on', channel=1, note=48, velocity=95, time=0),
    Message('pitchwheel', channel=1, pitch=2816, time=120),
    Message('pitchwheel', channel=1, pitch=0, time=0),
    Message('note_off', channel=1, note=48, velocity=95, time=0),
    Message('note_on', channel=0, note=52, velocity=47, time=0),
    Message('note_off', channel=0, note=52, velocity=47, time=120),
    Message('note_on', channel=0, note=50, velocity=95, time=0),
    Message('note_off', channel=0, note=50, velocity=95, time=240),
    Message('note_on', channel=0, note=57, velocity=70, time=0),
    Message('note_off', channel=0, note=57, velocity=70, time=240),
    Message('note_on', channel=1, note=59, velocity=95, time=0),
    Message('pitchwheel', channel=1, pitch=0, time=160),
    Message('pitchwheel', channel=1, pitch=128, time=160),
    Message('pitchwheel', channel=1, pitch=0, time=160),
    Message('pitchwheel', channel=1, pitch=128, time=160),
    Message('pitchwheel', channel=1, pitch=0, time=80),
    Message('pitchwheel', channel=1, pitch=128, time=0),
    Message('pitchwheel', channel=1, pitch=0, time=0),
    Message('note_off', channel=1, note=59, velocity=95, time=0),
    Message('note_on', channel=0, note=57, velocity=95, time=0),
    Message('note_off', channel=0, note=57, velocity=95, time=240),
    Message('pitchwheel', channel=1, pitch=0, time=0),
    Message('note_on', channel=1, note=59, velocity=95, time=0),
    Message('pitchwheel', channel=1, pitch=0, time=240),
    Message('pitchwheel', channel=1, pitch=128, time=0),
    Message('pitchwheel', channel=1, pitch=256, time=0),
    Message('pitchwheel', channel=1, pitch=384, time=0),
    Message('pitchwheel', channel=1, pitch=512, time=0),
    Message('pitchwheel', channel=1, pitch=640, time=0),
    Message('pitchwheel', channel=1, pitch=640, time=0),
    Message('pitchwheel', channel=1, pitch=640, time=240),
    Message('pitchwheel', channel=1, pitch=512, time=0),
    Message('pitchwheel', channel=1, pitch=384, time=0),
    Message('pitchwheel', channel=1, pitch=256, time=0),
    Message('pitchwheel', channel=1, pitch=128, time=0),
    Message('pitchwheel', channel=1, pitch=0, time=0),
    Message('pitchwheel', channel=1, pitch=0, time=0),
    Message('pitchwheel', channel=1, pitch=0, time=240),
    Message('pitchwheel', channel=1, pitch=0, time=0),
    Message('note_off', channel=1, note=59, velocity=95, time=0),
    Message('note_on', channel=0, note=50, velocity=95, time=0),
    Message('note_on', channel=0, note=57, velocity=95, time=2),
    Message('note_off', channel=0, note=57, velocity=95, time=238),
    Message('note_off', channel=0, note=50, velocity=95, time=0),
    Message('note_on', channel=0, note=50, velocity=95, time=0),
    Message('note_on', channel=0, note=55, velocity=95, time=4),
    Message('note_off', channel=0, note=55, velocity=95, time=476),
    Message('note_off', channel=0, note=50, velocity=95, time=0),
    Message('note_on', channel=0, note=45, velocity=95, time=0),
    Message('note_on', channel=0, note=52, velocity=95, time=6),
    Message('note_on', channel=0, note=57, velocity=95, time=6),
    Message('note_off', channel=0, note=57, velocity=95, time=708),
    Message('note_off', channel=0, note=52, velocity=95, time=0),
    Message('note_off', channel=0, note=45, velocity=95, time=0),
    Message('note_on', channel=1, note=48, velocity=95, time=0),
    Message('pitchwheel', channel=1, pitch=2816, time=120),
    Message('pitchwheel', channel=1, pitch=0, time=0),
    Message('note_off', channel=1, note=48, velocity=95, time=0),
    Message('note_on', channel=0, note=52, velocity=47, time=0),
    Message('note_off', channel=0, note=52, velocity=47, time=120),
    Message('note_on', channel=0, note=50, velocity=95, time=0),
    Message('note_off', channel=0, note=50, velocity=95, time=240),
    Message('note_on', channel=0, note=57, velocity=70, time=0),
    Message('note_off', channel=0, note=57, velocity=70, time=240),
    Message('note_on', channel=1, note=59, velocity=95, time=0),
    Message('pitchwheel', channel=1, pitch=0, time=160),
    Message('pitchwheel', channel=1, pitch=128, time=160),
    Message('pitchwheel', channel=1, pitch=0, time=160),
    Message('pitchwheel', channel=1, pitch=128, time=160),
    Message('pitchwheel', channel=1, pitch=0, time=160),
    Message('pitchwheel', channel=1, pitch=128, time=160),
    Message('pitchwheel', channel=1, pitch=0, time=0),
    Message('note_off', channel=1, note=59, velocity=95, time=0),
    Message('note_on', channel=1, note=57, velocity=95, time=0),
    Message('pitchwheel', channel=1, pitch=0, time=160),
    Message('pitchwheel', channel=1, pitch=128, time=160),
    Message('pitchwheel', channel=1, pitch=0, time=160),
    Message('pitchwheel', channel=1, pitch=128, time=160),
    Message('pitchwheel', channel=1, pitch=0, time=80),
    Message('pitchwheel', channel=1, pitch=128, time=0),
    Message('pitchwheel', channel=1, pitch=0, time=0),
    Message('note_off', channel=1, note=57, velocity=95, time=0),
    Message('note_on', channel=0, note=57, velocity=95, time=0),
    Message('note_on', channel=0, note=45, velocity=95, time=2),
    Message('note_off', channel=0, note=57, velocity=95, time=238),
    Message('note_off', channel=0, note=45, velocity=95, time=0),
    Message('note_on', channel=0, note=45, velocity=95, time=0),
    Message('note_on', channel=0, note=52, velocity=95, time=2),
    Message('note_on', channel=0, note=57, velocity=95, time=2),
    Message('note_off', channel=0, note=57, velocity=95, time=236),
    Message('note_off', channel=0, note=52, velocity=95, time=0),
    Message('note_off', channel=0, note=45, velocity=95, time=0),
    Message('note_on', channel=0, note=55, velocity=95, time=0),
    Message('note_on', channel=0, note=50, velocity=95, time=2),
    Message('note_on', channel=0, note=45, velocity=95, time=2),
    Message('note_off', channel=0, note=55, velocity=95, time=236),
    Message('note_off', channel=0, note=50, velocity=95, time=0),
    Message('note_off', channel=0, note=45, velocity=95, time=0),
    Message('note_on', channel=0, note=45, velocity=95, time=0),
    Message('note_on', channel=0, note=52, velocity=95, time=6),
    Message('note_on', channel=0, note=57, velocity=95, time=6),
    Message('note_off', channel=0, note=57, velocity=95, time=708),
    Message('note_off', channel=0, note=52, velocity=95, time=0),
    Message('note_off', channel=0, note=45, velocity=95, time=0),
    Message('note_on', channel=1, note=48, velocity=95, time=0),
    Message('pitchwheel', channel=1, pitch=2816, time=120),
    Message('pitchwheel', channel=1, pitch=0, time=0),
    Message('note_off', channel=1, note=48, velocity=95, time=0),
    Message('note_on', channel=0, note=52, velocity=47, time=0),
    Message('note_off', channel=0, note=52, velocity=47, time=120),
    Message('note_on', channel=0, note=50, velocity=95, time=0),
    Message('note_off', channel=0, note=50, velocity=95, time=240),
    Message('note_on', channel=0, note=57, velocity=70, time=0),
    Message('note_off', channel=0, note=57, velocity=70, time=240),
    Message('note_on', channel=1, note=59, velocity=95, time=0),
    Message('pitchwheel', channel=1, pitch=0, time=160),
    Message('pitchwheel', channel=1, pitch=128, time=160),
    Message('pitchwheel', channel=1, pitch=0, time=160),
    Message('pitchwheel', channel=1, pitch=128, time=160),
    Message('pitchwheel', channel=1, pitch=0, time=80),
    Message('pitchwheel', channel=1, pitch=128, time=0),
    Message('pitchwheel', channel=1, pitch=0, time=0),
    Message('note_off', channel=1, note=59, velocity=95, time=0),
    Message('note_on', channel=0, note=57, velocity=95, time=0),
    Message('note_off', channel=0, note=57, velocity=95, time=240),
    Message('pitchwheel', channel=1, pitch=0, time=0),
    Message('note_on', channel=1, note=59, velocity=95, time=0),
    Message('pitchwheel', channel=1, pitch=0, time=240),
    Message('pitchwheel', channel=1, pitch=128, time=0),
    Message('pitchwheel', channel=1, pitch=256, time=0),
    Message('pitchwheel', channel=1, pitch=384, time=0),
    Message('pitchwheel', channel=1, pitch=512, time=0),
    Message('pitchwheel', channel=1, pitch=640, time=0),
    Message('pitchwheel', channel=1, pitch=640, time=0),
    Message('pitchwheel', channel=1, pitch=640, time=240),
    Message('pitchwheel', channel=1, pitch=512, time=0),
    Message('pitchwheel', channel=1, pitch=384, time=0),
    Message('pitchwheel', channel=1, pitch=256, time=0),
    Message('pitchwheel', channel=1, pitch=128, time=0),
    Message('pitchwheel', channel=1, pitch=0, time=0),
    Message('pitchwheel', channel=1, pitch=0, time=0),
    Message('pitchwheel', channel=1, pitch=0, time=240),
    Message('pitchwheel', channel=1, pitch=0, time=0),
    Message('note_off', channel=1, note=59, velocity=95, time=0),
    Message('note_on', channel=0, note=50, velocity=95, time=0),
    Message('note_on', channel=0, note=57, velocity=95, time=2),
    Message('note_off', channel=0, note=57, velocity=95, time=238),
    Message('note_off', channel=0, note=50, velocity=95, time=0),
    Message('note_on', channel=0, note=50, velocity=95, time=0),
    Message('note_on', channel=0, note=55, velocity=95, time=4),
    Message('note_off', channel=0, note=55, velocity=95, time=476),
    Message('note_off', channel=0, note=50, velocity=95, time=0),
    Message('note_on', channel=0, note=45, velocity=95, time=0),
    Message('note_on', channel=0, note=52, velocity=95, time=6),
    Message('note_on', channel=0, note=57, velocity=95, time=6),
    Message('note_off', channel=0, note=57, velocity=95, time=708),
    Message('note_off', channel=0, note=52, velocity=95, time=0),
    Message('note_off', channel=0, note=45, velocity=95, time=0),
    Message('note_on', channel=1, note=48, velocity=95, time=0),
    Message('pitchwheel', channel=1, pitch=2816, time=120),
    Message('pitchwheel', channel=1, pitch=0, time=0),
    Message('note_off', channel=1, note=48, velocity=95, time=0),
    Message('note_on', channel=0, note=52, velocity=47, time=0),
    Message('note_off', channel=0, note=52, velocity=47, time=120),
    Message('note_on', channel=0, note=50, velocity=95, time=0),
    Message('note_off', channel=0, note=50, velocity=95, time=240),
    Message('note_on', channel=0, note=57, velocity=70, time=0),
    Message('note_off', channel=0, note=57, velocity=70, time=240),
    Message('note_on', channel=1, note=59, velocity=95, time=0),
    Message('pitchwheel', channel=1, pitch=0, time=160),
    Message('pitchwheel', channel=1, pitch=128, time=160),
    Message('pitchwheel', channel=1, pitch=0, time=160),
    Message('pitchwheel', channel=1, pitch=128, time=160),
    Message('pitchwheel', channel=1, pitch=0, time=160),
    Message('pitchwheel', channel=1, pitch=128, time=160),
    Message('pitchwheel', channel=1, pitch=0, time=0),
    Message('note_off', channel=1, note=59, velocity=95, time=0),
    Message('note_on', channel=1, note=57, velocity=95, time=0),
    Message('pitchwheel', channel=1, pitch=0, time=160),
    Message('pitchwheel', channel=1, pitch=128, time=160),
    Message('pitchwheel', channel=1, pitch=0, time=160),
    Message('pitchwheel', channel=1, pitch=128, time=160),
    Message('pitchwheel', channel=1, pitch=0, time=80),
    Message('pitchwheel', channel=1, pitch=128, time=0),
    Message('pitchwheel', channel=1, pitch=0, time=0),
    Message('note_off', channel=1, note=57, velocity=95, time=0),
    Message('note_on', channel=0, note=57, velocity=95, time=0),
    Message('note_on', channel=0, note=45, velocity=95, time=2),
    Message('note_off', channel=0, note=57, velocity=95, time=238),
    Message('note_off', channel=0, note=45, velocity=95, time=0),
    Message('note_on', channel=0, note=45, velocity=95, time=0),
    Message('note_on', channel=0, note=52, velocity=95, time=2),
    Message('note_on', channel=0, note=57, velocity=95, time=2),
    Message('note_off', channel=0, note=57, velocity=95, time=236),
    Message('note_off', channel=0, note=52, velocity=95, time=0),
    Message('note_off', channel=0, note=45, velocity=95, time=0),
    Message('note_on', channel=0, note=55, velocity=95, time=0),
    Message('note_on', channel=0, note=50, velocity=95, time=2),
    Message('note_on', channel=0, note=45, velocity=95, time=2),
    Message('note_off', channel=0, note=55, velocity=95, time=236),
    Message('note_off', channel=0, note=50, velocity=95, time=0),
    Message('note_off', channel=0, note=45, velocity=95, time=0),
    Message('note_on', channel=0, note=45, velocity=95, time=0),
    Message('note_on', channel=0, note=52, velocity=95, time=6),
    Message('note_on', channel=0, note=57, velocity=95, time=6),
    Message('note_off', channel=0, note=57, velocity=95, time=708),
    Message('note_off', channel=0, note=52, velocity=95, time=0),
    Message('note_off', channel=0, note=45, velocity=95, time=0),
    Message('note_on', channel=1, note=48, velocity=95, time=0),
    Message('pitchwheel', channel=1, pitch=2816, time=120),
    Message('pitchwheel', channel=1, pitch=0, time=0),
    Message('note_off', channel=1, note=48, velocity=95, time=0),
    Message('note_on', channel=0, note=52, velocity=47, time=0),
    Message('note_off', channel=0, note=52, velocity=47, time=120),
    Message('note_on', channel=0, note=50, velocity=95, time=0),
    Message('note_off', channel=0, note=50, velocity=95, time=240),
    Message('note_on', channel=0, note=57, velocity=70, time=0),
    Message('note_off', channel=0, note=57, velocity=70, time=240),
    Message('note_on', channel=1, note=59, velocity=95, time=0),
    Message('pitchwheel', channel=1, pitch=0, time=160),
    Message('pitchwheel', channel=1, pitch=128, time=160),
    Message('pitchwheel', channel=1, pitch=0, time=160),
    Message('pitchwheel', channel=1, pitch=128, time=160),
    Message('pitchwheel', channel=1, pitch=0, time=80),
    Message('pitchwheel', channel=1, pitch=128, time=0),
    Message('pitchwheel', channel=1, pitch=0, time=0),
    Message('note_off', channel=1, note=59, velocity=95, time=0),
    Message('note_on', channel=0, note=57, velocity=95, time=0),
    Message('note_off', channel=0, note=57, velocity=95, time=240),
    Message('pitchwheel', channel=1, pitch=0, time=0),
    Message('note_on', channel=1, note=59, velocity=95, time=0),
    Message('pitchwheel', channel=1, pitch=0, time=240),
    Message('pitchwheel', channel=1, pitch=128, time=0),
    Message('pitchwheel', channel=1, pitch=256, time=0),
    Message('pitchwheel', channel=1, pitch=384, time=0),
    Message('pitchwheel', channel=1, pitch=512, time=0),
    Message('pitchwheel', channel=1, pitch=640, time=0),
    Message('pitchwheel', channel=1, pitch=640, time=0),
    Message('pitchwheel', channel=1, pitch=640, time=240),
    Message('pitchwheel', channel=1, pitch=512, time=0),
    Message('pitchwheel', channel=1, pitch=384, time=0),
    Message('pitchwheel', channel=1, pitch=256, time=0),
    Message('pitchwheel', channel=1, pitch=128, time=0),
    Message('pitchwheel', channel=1, pitch=0, time=0),
    Message('pitchwheel', channel=1, pitch=0, time=0),
    Message('pitchwheel', channel=1, pitch=0, time=240),
    Message('pitchwheel', channel=1, pitch=0, time=0),
    Message('note_off', channel=1, note=59, velocity=95, time=0),
    Message('note_on', channel=0, note=50, velocity=95, time=0),
    Message('note_on', channel=0, note=57, velocity=95, time=2),
    Message('note_off', channel=0, note=57, velocity=95, time=238),
    Message('note_off', channel=0, note=50, velocity=95, time=0),
    Message('note_on', channel=0, note=50, velocity=95, time=0),
    Message('note_on', channel=0, note=55, velocity=95, time=4),
    Message('note_off', channel=0, note=55, velocity=95, time=476),
    Message('note_off', channel=0, note=50, velocity=95, time=0),
    Message('note_on', channel=0, note=45, velocity=95, time=0),
    Message('note_on', channel=0, note=52, velocity=95, time=6),
    Message('note_on', channel=0, note=57, velocity=95, time=6),
    Message('note_off', channel=0, note=57, velocity=95, time=708),
    Message('note_off', channel=0, note=52, velocity=95, time=0),
    Message('note_off', channel=0, note=45, velocity=95, time=0),
    Message('note_on', channel=1, note=48, velocity=95, time=0),
    Message('pitchwheel', channel=1, pitch=2816, time=120),
    Message('pitchwheel', channel=1, pitch=0, time=0),
    Message('note_off', channel=1, note=48, velocity=95, time=0),
    Message('note_on', channel=0, note=52, velocity=47, time=0),
    Message('note_off', channel=0, note=52, velocity=47, time=120),
    Message('note_on', channel=0, note=50, velocity=95, time=0),
    Message('note_off', channel=0, note=50, velocity=95, time=240),
    Message('note_on', channel=0, note=57, velocity=70, time=0),
    Message('note_off', channel=0, note=57, velocity=70, time=240),
    Message('note_on', channel=1, note=59, velocity=95, time=0),
    Message('pitchwheel', channel=1, pitch=0, time=160),
    Message('pitchwheel', channel=1, pitch=128, time=160),
    Message('pitchwheel', channel=1, pitch=0, time=160),
    Message('pitchwheel', channel=1, pitch=128, time=160),
    Message('pitchwheel', channel=1, pitch=0, time=160),
    Message('pitchwheel', channel=1, pitch=128, time=160),
    Message('pitchwheel', channel=1, pitch=0, time=0),
    Message('note_off', channel=1, note=59, velocity=95, time=0),
    Message('note_on', channel=1, note=57, velocity=95, time=0),
    Message('pitchwheel', channel=1, pitch=0, time=160),
    Message('pitchwheel', channel=1, pitch=128, time=160),
    Message('pitchwheel', channel=1, pitch=0, time=160),
    Message('pitchwheel', channel=1, pitch=128, time=160),
    Message('pitchwheel', channel=1, pitch=0, time=80),
    Message('pitchwheel', channel=1, pitch=128, time=0),
    Message('pitchwheel', channel=1, pitch=0, time=0),
    Message('note_off', channel=1, note=57, velocity=95, time=0),
    Message('note_on', channel=0, note=57, velocity=95, time=0),
    Message('note_on', channel=0, note=45, velocity=95, time=2),
    Message('note_off', channel=0, note=57, velocity=95, time=238),
    Message('note_off', channel=0, note=45, velocity=95, time=0),
    Message('note_on', channel=0, note=45, velocity=95, time=0),
    Message('note_on', channel=0, note=52, velocity=95, time=2),
    Message('note_on', channel=0, note=57, velocity=95, time=2),
    Message('note_off', channel=0, note=57, velocity=95, time=236),
    Message('note_off', channel=0, note=52, velocity=95, time=0),
    Message('note_off', channel=0, note=45, velocity=95, time=0),
    Message('note_on', channel=0, note=55, velocity=95, time=0),
    Message('note_on', channel=0, note=50, velocity=95, time=2),
    Message('note_on', channel=0, note=45, velocity=95, time=2),
    Message('note_off', channel=0, note=55, velocity=95, time=236),
    Message('note_off', channel=0, note=50, velocity=95, time=0),
    Message('note_off', channel=0, note=45, velocity=95, time=0),
    Message('note_on', channel=0, note=45, velocity=95, time=0),
    Message('note_on', channel=0, note=52, velocity=95, time=6),
    Message('note_on', channel=0, note=57, velocity=95, time=6),
    Message('note_off', channel=0, note=57, velocity=95, time=708),
    Message('note_off', channel=0, note=52, velocity=95, time=0),
    Message('note_off', channel=0, note=45, velocity=95, time=0),
    Message('note_on', channel=1, note=48, velocity=95, time=0),
    Message('pitchwheel', channel=1, pitch=2816, time=120),
    Message('pitchwheel', channel=1, pitch=0, time=0),
    Message('note_off', channel=1, note=48, velocity=95, time=0),
    Message('note_on', channel=0, note=52, velocity=47, time=0),
    Message('note_off', channel=0, note=52, velocity=47, time=120),
    Message('note_on', channel=0, note=50, velocity=95, time=0),
    Message('note_off', channel=0, note=50, velocity=95, time=240),
    Message('note_on', channel=0, note=57, velocity=70, time=0),
    Message('note_off', channel=0, note=57, velocity=70, time=240),
    Message('note_on', channel=1, note=59, velocity=95, time=0),
    Message('pitchwheel', channel=1, pitch=0, time=160),
    Message('pitchwheel', channel=1, pitch=128, time=160),
    Message('pitchwheel', channel=1, pitch=0, time=160),
    Message('pitchwheel', channel=1, pitch=128, time=160),
    Message('pitchwheel', channel=1, pitch=0, time=80),
    Message('pitchwheel', channel=1, pitch=128, time=0),
    Message('pitchwheel', channel=1, pitch=0, time=0),
    Message('note_off', channel=1, note=59, velocity=95, time=0),
    Message('note_on', channel=0, note=57, velocity=95, time=0),
    Message('note_off', channel=0, note=57, velocity=95, time=240),
    Message('pitchwheel', channel=1, pitch=0, time=0),
    Message('note_on', channel=1, note=59, velocity=95, time=0),
    Message('pitchwheel', channel=1, pitch=0, time=240),
    Message('pitchwheel', channel=1, pitch=128, time=0),
    Message('pitchwheel', channel=1, pitch=256, time=0),
    Message('pitchwheel', channel=1, pitch=384, time=0),
    Message('pitchwheel', channel=1, pitch=512, time=0),
    Message('pitchwheel', channel=1, pitch=640, time=0),
    Message('pitchwheel', channel=1, pitch=640, time=0),
    Message('pitchwheel', channel=1, pitch=640, time=240),
    Message('pitchwheel', channel=1, pitch=512, time=0),
    Message('pitchwheel', channel=1, pitch=384, time=0),
    Message('pitchwheel', channel=1, pitch=256, time=0),
    Message('pitchwheel', channel=1, pitch=128, time=0),
    Message('pitchwheel', channel=1, pitch=0, time=0),
    Message('pitchwheel', channel=1, pitch=0, time=0),
    Message('pitchwheel', channel=1, pitch=0, time=240),
    Message('pitchwheel', channel=1, pitch=0, time=0),
    Message('note_off', channel=1, note=59, velocity=95, time=0),
    Message('note_on', channel=0, note=50, velocity=95, time=0),
    Message('note_on', channel=0, note=57, velocity=95, time=2),
    Message('note_off', channel=0, note=57, velocity=95, time=238),
    Message('note_off', channel=0, note=50, velocity=95, time=0),
    Message('note_on', channel=0, note=50, velocity=95, time=0),
    Message('note_on', channel=0, note=55, velocity=95, time=4),
    Message('note_off', channel=0, note=55, velocity=95, time=476),
    Message('note_off', channel=0, note=50, velocity=95, time=0),
    Message('note_on', channel=0, note=60, velocity=95, time=0),
    Message('note_on', channel=0, note=65, velocity=95, time=2),
    Message('note_off', channel=0, note=65, velocity=95, time=238),
    Message('note_off', channel=0, note=60, velocity=95, time=0),
    Message('note_on', channel=0, note=65, velocity=95, time=0),
    Message('note_on', channel=0, note=60, velocity=95, time=2),
    Message('note_off', channel=0, note=65, velocity=95, time=238),
    Message('note_off', channel=0, note=60, velocity=95, time=0),
    Message('note_on', channel=0, note=60, velocity=95, time=0),
    Message('note_on', channel=0, note=65, velocity=95, time=2),
    Message('note_off', channel=0, note=65, velocity=95, time=238),
    Message('note_off', channel=0, note=60, velocity=95, time=0),
    Message('note_on', channel=0, note=65, velocity=95, time=0),
    Message('note_on', channel=0, note=60, velocity=95, time=2),
    Message('note_off', channel=0, note=65, velocity=95, time=238),
    Message('note_off', channel=0, note=60, velocity=95, time=0),
    Message('note_on', channel=0, note=67, velocity=95, time=240),
    Message('note_off', channel=0, note=67, velocity=95, time=240),
    Message('note_on', channel=0, note=60, velocity=95, time=0),
    Message('note_on', channel=0, note=64, velocity=95, time=4),
    Message('note_off', channel=0, note=64, velocity=95, time=4076),
    Message('note_off', channel=0, note=60, velocity=95, time=0),
    Message('note_on', channel=0, note=45, velocity=95, time=240),
    Message('note_on', channel=0, note=52, velocity=95, time=6),
    Message('note_on', channel=0, note=57, velocity=95, time=6),
    Message('note_off', channel=0, note=57, velocity=95, time=64),
    Message('note_off', channel=0, note=52, velocity=95, time=0),
    Message('note_off', channel=0, note=45, velocity=95, time=0),
    Message('note_on', channel=1, note=48, velocity=95, time=644),
    Message('pitchwheel', channel=1, pitch=2816, time=120),
    Message('pitchwheel', channel=1, pitch=0, time=0),
    Message('note_off', channel=1, note=48, velocity=95, time=0),
    Message('note_on', channel=0, note=52, velocity=47, time=0),
    Message('note_off', channel=0, note=52, velocity=47, time=120),
    Message('note_on', channel=0, note=50, velocity=95, time=0),
    Message('note_off', channel=0, note=50, velocity=95, time=240),
    Message('note_on', channel=0, note=57, velocity=70, time=0),
    Message('note_off', channel=0, note=57, velocity=70, time=240),
    Message('note_on', channel=1, note=59, velocity=95, time=0),
    Message('pitchwheel', channel=1, pitch=0, time=160),
    Message('pitchwheel', channel=1, pitch=128, time=160),
    Message('pitchwheel', channel=1, pitch=0, time=160),
    Message('pitchwheel', channel=1, pitch=128, time=160),
    Message('pitchwheel', channel=1, pitch=0, time=160),
    Message('pitchwheel', channel=1, pitch=128, time=160),
    Message('pitchwheel', channel=1, pitch=0, time=0),
    Message('note_off', channel=1, note=59, velocity=95, time=0),
    Message('note_on', channel=1, note=57, velocity=95, time=0),
    Message('pitchwheel', channel=1, pitch=0, time=160),
    Message('pitchwheel', channel=1, pitch=128, time=160),
    Message('pitchwheel', channel=1, pitch=0, time=160),
    Message('pitchwheel', channel=1, pitch=128, time=160),
    Message('pitchwheel', channel=1, pitch=0, time=160),
    Message('pitchwheel', channel=1, pitch=128, time=160),
    Message('pitchwheel', channel=1, pitch=0, time=0),
    Message('note_off', channel=1, note=57, velocity=95, time=0),
    Message('note_on', channel=0, note=45, velocity=95, time=0),
    Message('note_on', channel=0, note=52, velocity=95, time=2),
    Message('note_on', channel=0, note=57, velocity=95, time=2),
    Message('note_off', channel=0, note=57, velocity=95, time=72),
    Message('note_off', channel=0, note=52, velocity=95, time=0),
    Message('note_off', channel=0, note=45, velocity=95, time=0),
    Message('note_on', channel=0, note=57, velocity=95, time=164),
    Message('note_on', channel=0, note=52, velocity=95, time=2),
    Message('note_on', channel=0, note=45, velocity=95, time=2),
    Message('note_off', channel=0, note=57, velocity=95, time=72),
    Message('note_off', channel=0, note=52, velocity=95, time=0),
    Message('note_off', channel=0, note=45, velocity=95, time=0),
    Message('note_on', channel=0, note=45, velocity=95, time=164),
    Message('note_on', channel=0, note=52, velocity=95, time=6),
    Message('note_on', channel=0, note=57, velocity=95, time=6),
    Message('note_off', channel=0, note=57, velocity=95, time=64),
    Message('note_off', channel=0, note=52, velocity=95, time=0),
    Message('note_off', channel=0, note=45, velocity=95, time=0),
    Message('note_on', channel=1, note=48, velocity=95, time=644),
    Message('pitchwheel', channel=1, pitch=2816, time=120),
    Message('pitchwheel', channel=1, pitch=0, time=0),
    Message('note_off', channel=1, note=48, velocity=95, time=0),
    Message('note_on', channel=0, note=52, velocity=47, time=0),
    Message('note_off', channel=0, note=52, velocity=47, time=120),
    Message('note_on', channel=0, note=50, velocity=95, time=0),
    Message('note_off', channel=0, note=50, velocity=95, time=240),
    Message('note_on', channel=0, note=57, velocity=95, time=0),
    Message('note_off', channel=0, note=57, velocity=95, time=240),
    Message('note_on', channel=1, note=59, velocity=95, time=0),
    Message('pitchwheel', channel=1, pitch=0, time=160),
    Message('pitchwheel', channel=1, pitch=128, time=160),
    Message('pitchwheel', channel=1, pitch=0, time=160),
    Message('pitchwheel', channel=1, pitch=128, time=160),
    Message('pitchwheel', channel=1, pitch=0, time=80),
    Message('pitchwheel', channel=1, pitch=128, time=0),
    Message('pitchwheel', channel=1, pitch=0, time=0),
    Message('note_off', channel=1, note=59, velocity=95, time=0),
    Message('note_on', channel=0, note=57, velocity=95, time=0),
    Message('note_off', channel=0, note=57, velocity=95, time=240),
    Message('pitchwheel', channel=1, pitch=0, time=0),
    Message('note_on', channel=1, note=59, velocity=95, time=0),
    Message('pitchwheel', channel=1, pitch=0, time=180),
    Message('pitchwheel', channel=1, pitch=128, time=12),
    Message('pitchwheel', channel=1, pitch=256, time=12),
    Message('pitchwheel', channel=1, pitch=384, time=12),
    Message('pitchwheel', channel=1, pitch=512, time=12),
    Message('pitchwheel', channel=1, pitch=640, time=12),
    Message('pitchwheel', channel=1, pitch=640, time=0),
    Message('pitchwheel', channel=1, pitch=640, time=120),
    Message('pitchwheel', channel=1, pitch=640, time=120),
    Message('pitchwheel', channel=1, pitch=512, time=12),
    Message('pitchwheel', channel=1, pitch=384, time=12),
    Message('pitchwheel', channel=1, pitch=256, time=12),
    Message('pitchwheel', channel=1, pitch=128, time=12),
    Message('pitchwheel', channel=1, pitch=0, time=12),
    Message('pitchwheel', channel=1, pitch=0, time=0),
    Message('pitchwheel', channel=1, pitch=0, time=180),
    Message('pitchwheel', channel=1, pitch=0, time=0),
    Message('note_off', channel=1, note=59, velocity=95, time=0),
    Message('note_on', channel=0, note=50, velocity=95, time=0),
    Message('note_on', channel=0, note=57, velocity=95, time=2),
    Message('note_off', channel=0, note=57, velocity=95, time=238),
    Message('note_off', channel=0, note=50, velocity=95, time=0),
    Message('note_on', channel=0, note=50, velocity=95, time=0),
    Message('note_on', channel=0, note=55, velocity=95, time=4),
    Message('note_off', channel=0, note=55, velocity=95, time=476),
    Message('note_off', channel=0, note=50, velocity=95, time=0),
    Message('note_on', channel=0, note=45, velocity=95, time=0),
    Message('note_on', channel=0, note=52, velocity=95, time=6),
    Message('note_on', channel=0, note=57, velocity=95, time=6),
    Message('note_off', channel=0, note=57, velocity=95, time=64),
    Message('note_off', channel=0, note=52, velocity=95, time=0),
    Message('note_off', channel=0, note=45, velocity=95, time=0),
    Message('note_on', channel=1, note=48, velocity=95, time=644),
    Message('pitchwheel', channel=1, pitch=2816, time=120),
    Message('pitchwheel', channel=1, pitch=0, time=0),
    Message('note_off', channel=1, note=48, velocity=95, time=0),
    Message('note_on', channel=0, note=52, velocity=47, time=0),
    Message('note_off', channel=0, note=52, velocity=47, time=120),
    Message('note_on', channel=0, note=50, velocity=95, time=0),
    Message('note_off', channel=0, note=50, velocity=95, time=240),
    Message('note_on', channel=0, note=57, velocity=70, time=0),
    Message('note_off', channel=0, note=57, velocity=70, time=240),
    Message('note_on', channel=1, note=59, velocity=95, time=0),
    Message('pitchwheel', channel=1, pitch=0, time=160),
    Message('pitchwheel', channel=1, pitch=128, time=160),
    Message('pitchwheel', channel=1, pitch=0, time=160),
    Message('pitchwheel', channel=1, pitch=128, time=160),
    Message('pitchwheel', channel=1, pitch=0, time=160),
    Message('pitchwheel', channel=1, pitch=128, time=160),
    Message('pitchwheel', channel=1, pitch=0, time=0),
    Message('note_off', channel=1, note=59, velocity=95, time=0),
    Message('note_on', channel=1, note=57, velocity=95, time=0),
    Message('pitchwheel', channel=1, pitch=0, time=160),
    Message('pitchwheel', channel=1, pitch=128, time=160),
    Message('pitchwheel', channel=1, pitch=0, time=160),
    Message('pitchwheel', channel=1, pitch=128, time=160),
    Message('pitchwheel', channel=1, pitch=0, time=160),
    Message('pitchwheel', channel=1, pitch=128, time=160),
    Message('pitchwheel', channel=1, pitch=0, time=0),
    Message('note_off', channel=1, note=57, velocity=95, time=0),
    Message('note_on', channel=0, note=45, velocity=95, time=0),
    Message('note_on', channel=0, note=52, velocity=95, time=2),
    Message('note_on', channel=0, note=57, velocity=95, time=2),
    Message('note_off', channel=0, note=57, velocity=95, time=72),
    Message('note_off', channel=0, note=52, velocity=95, time=0),
    Message('note_off', channel=0, note=45, velocity=95, time=0),
    Message('note_on', channel=0, note=57, velocity=95, time=164),
    Message('note_on', channel=0, note=52, velocity=95, time=2),
    Message('note_on', channel=0, note=45, velocity=95, time=2),
    Message('note_off', channel=0, note=57, velocity=95, time=72),
    Message('note_off', channel=0, note=52, velocity=95, time=0),
    Message('note_off', channel=0, note=45, velocity=95, time=0),
    Message('note_on', channel=0, note=45, velocity=95, time=164),
    Message('note_on', channel=0, note=52, velocity=95, time=6),
    Message('note_on', channel=0, note=57, velocity=95, time=6),
    Message('note_off', channel=0, note=57, velocity=95, time=64),
    Message('note_off', channel=0, note=52, velocity=95, time=0),
    Message('note_off', channel=0, note=45, velocity=95, time=0),
    Message('note_on', channel=1, note=48, velocity=95, time=644),
    Message('pitchwheel', channel=1, pitch=2816, time=120),
    Message('pitchwheel', channel=1, pitch=0, time=0),
    Message('note_off', channel=1, note=48, velocity=95, time=0),
    Message('note_on', channel=0, note=52, velocity=47, time=0),
    Message('note_off', channel=0, note=52, velocity=47, time=120),
    Message('note_on', channel=0, note=50, velocity=95, time=0),
    Message('note_off', channel=0, note=50, velocity=95, time=240),
    Message('note_on', channel=0, note=57, velocity=95, time=0),
    Message('note_off', channel=0, note=57, velocity=95, time=240),
    Message('note_on', channel=1, note=59, velocity=95, time=0),
    Message('pitchwheel', channel=1, pitch=0, time=160),
    Message('pitchwheel', channel=1, pitch=128, time=160),
    Message('pitchwheel', channel=1, pitch=0, time=160),
    Message('pitchwheel', channel=1, pitch=128, time=160),
    Message('pitchwheel', channel=1, pitch=0, time=80),
    Message('pitchwheel', channel=1, pitch=128, time=0),
    Message('pitchwheel', channel=1, pitch=0, time=0),
    Message('note_off', channel=1, note=59, velocity=95, time=0),
    Message('note_on', channel=0, note=57, velocity=95, time=0),
    Message('note_off', channel=0, note=57, velocity=95, time=240),
    Message('pitchwheel', channel=1, pitch=0, time=0),
    Message('note_on', channel=1, note=59, velocity=95, time=0),
    Message('pitchwheel', channel=1, pitch=0, time=180),
    Message('pitchwheel', channel=1, pitch=128, time=12),
    Message('pitchwheel', channel=1, pitch=256, time=12),
    Message('pitchwheel', channel=1, pitch=384, time=12),
    Message('pitchwheel', channel=1, pitch=512, time=12),
    Message('pitchwheel', channel=1, pitch=640, time=12),
    Message('pitchwheel', channel=1, pitch=640, time=0),
    Message('pitchwheel', channel=1, pitch=640, time=120),
    Message('pitchwheel', channel=1, pitch=640, time=120),
    Message('pitchwheel', channel=1, pitch=512, time=12),
    Message('pitchwheel', channel=1, pitch=384, time=12),
    Message('pitchwheel', channel=1, pitch=256, time=12),
    Message('pitchwheel', channel=1, pitch=128, time=12),
    Message('pitchwheel', channel=1, pitch=0, time=12),
    Message('pitchwheel', channel=1, pitch=0, time=0),
    Message('pitchwheel', channel=1, pitch=0, time=180),
    Message('pitchwheel', channel=1, pitch=0, time=0),
    Message('note_off', channel=1, note=59, velocity=95, time=0),
    Message('note_on', channel=0, note=50, velocity=95, time=0),
    Message('note_on', channel=0, note=57, velocity=95, time=2),
    Message('note_off', channel=0, note=57, velocity=95, time=238),
    Message('note_off', channel=0, note=50, velocity=95, time=0),
    Message('note_on', channel=0, note=50, velocity=95, time=0),
    Message('note_on', channel=0, note=55, velocity=95, time=4),
    Message('note_off', channel=0, note=55, velocity=95, time=476),
    Message('note_off', channel=0, note=50, velocity=95, time=0),
    Message('note_on', channel=0, note=45, velocity=95, time=0),
    Message('note_on', channel=0, note=52, velocity=95, time=6),
    Message('note_on', channel=0, note=57, velocity=95, time=6),
    Message('note_off', channel=0, note=57, velocity=95, time=64),
    Message('note_off', channel=0, note=52, velocity=95, time=0),
    Message('note_off', channel=0, note=45, velocity=95, time=0),
    Message('note_on', channel=1, note=48, velocity=95, time=644),
    Message('pitchwheel', channel=1, pitch=2816, time=120),
    Message('pitchwheel', channel=1, pitch=0, time=0),
    Message('note_off', channel=1, note=48, velocity=95, time=0),
    Message('note_on', channel=0, note=52, velocity=47, time=0),
    Message('note_off', channel=0, note=52, velocity=47, time=120),
    Message('note_on', channel=0, note=50, velocity=95, time=0),
    Message('note_off', channel=0, note=50, velocity=95, time=240),
    Message('note_on', channel=0, note=57, velocity=70, time=0),
    Message('note_off', channel=0, note=57, velocity=70, time=240),
    Message('note_on', channel=1, note=59, velocity=95, time=0),
    Message('pitchwheel', channel=1, pitch=0, time=160),
    Message('pitchwheel', channel=1, pitch=128, time=160),
    Message('pitchwheel', channel=1, pitch=0, time=160),
    Message('pitchwheel', channel=1, pitch=128, time=160),
    Message('pitchwheel', channel=1, pitch=0, time=160),
    Message('pitchwheel', channel=1, pitch=128, time=160),
    Message('pitchwheel', channel=1, pitch=0, time=0),
    Message('note_off', channel=1, note=59, velocity=95, time=0),
    Message('note_on', channel=1, note=62, velocity=95, time=0),
    Message('pitchwheel', channel=1, pitch=0, time=160),
    Message('pitchwheel', channel=1, pitch=128, time=160),
    Message('pitchwheel', channel=1, pitch=0, time=160),
    Message('pitchwheel', channel=1, pitch=128, time=160),
    Message('pitchwheel', channel=1, pitch=0, time=160),
    Message('pitchwheel', channel=1, pitch=128, time=160),
    Message('pitchwheel', channel=1, pitch=0, time=0),
    Message('note_off', channel=1, note=62, velocity=95, time=0),
    Message('note_on', channel=0, note=45, velocity=95, time=0),
    Message('note_off', channel=0, note=45, velocity=95, time=76),
    Message('note_on', channel=0, note=45, velocity=95, time=164),
    Message('note_off', channel=0, note=45, velocity=95, time=76),
    Message('note_on', channel=0, note=45, velocity=95, time=164),
    Message('note_on', channel=0, note=52, velocity=95, time=6),
    Message('note_on', channel=0, note=57, velocity=95, time=6),
    Message('note_off', channel=0, note=57, velocity=95, time=64),
    Message('note_off', channel=0, note=52, velocity=95, time=0),
    Message('note_off', channel=0, note=45, velocity=95, time=0),
    Message('note_on', channel=1, note=48, velocity=95, time=644),
    Message('pitchwheel', channel=1, pitch=2816, time=120),
    Message('pitchwheel', channel=1, pitch=0, time=0),
    Message('note_off', channel=1, note=48, velocity=95, time=0),
    Message('note_on', channel=0, note=52, velocity=47, time=0),
    Message('note_off', channel=0, note=52, velocity=47, time=120),
    Message('note_on', channel=0, note=50, velocity=95, time=0),
    Message('note_off', channel=0, note=50, velocity=95, time=240),
    Message('note_on', channel=0, note=57, velocity=95, time=0),
    Message('note_off', channel=0, note=57, velocity=95, time=240),
    Message('note_on', channel=1, note=59, velocity=95, time=0),
    Message('pitchwheel', channel=1, pitch=0, time=160),
    Message('pitchwheel', channel=1, pitch=128, time=160),
    Message('pitchwheel', channel=1, pitch=0, time=160),
    Message('pitchwheel', channel=1, pitch=128, time=160),
    Message('pitchwheel', channel=1, pitch=0, time=80),
    Message('pitchwheel', channel=1, pitch=128, time=0),
    Message('pitchwheel', channel=1, pitch=0, time=0),
    Message('note_off', channel=1, note=59, velocity=95, time=0),
    Message('note_on', channel=0, note=57, velocity=95, time=0),
    Message('note_off', channel=0, note=57, velocity=95, time=240),
    Message('pitchwheel', channel=1, pitch=0, time=0),
    Message('note_on', channel=1, note=59, velocity=95, time=0),
    Message('pitchwheel', channel=1, pitch=0, time=180),
    Message('pitchwheel', channel=1, pitch=128, time=12),
    Message('pitchwheel', channel=1, pitch=256, time=12),
    Message('pitchwheel', channel=1, pitch=384, time=12),
    Message('pitchwheel', channel=1, pitch=512, time=12),
    Message('pitchwheel', channel=1, pitch=640, time=12),
    Message('pitchwheel', channel=1, pitch=640, time=0),
    Message('pitchwheel', channel=1, pitch=640, time=120),
    Message('pitchwheel', channel=1, pitch=640, time=120),
    Message('pitchwheel', channel=1, pitch=512, time=12),
    Message('pitchwheel', channel=1, pitch=384, time=12),
    Message('pitchwheel', channel=1, pitch=256, time=12),
    Message('pitchwheel', channel=1, pitch=128, time=12),
    Message('pitchwheel', channel=1, pitch=0, time=12),
    Message('pitchwheel', channel=1, pitch=0, time=0),
    Message('pitchwheel', channel=1, pitch=0, time=180),
    Message('pitchwheel', channel=1, pitch=0, time=0),
    Message('note_off', channel=1, note=59, velocity=95, time=0),
    Message('note_on', channel=0, note=50, velocity=95, time=0),
    Message('note_on', channel=0, note=57, velocity=95, time=2),
    Message('note_off', channel=0, note=57, velocity=95, time=238),
    Message('note_off', channel=0, note=50, velocity=95, time=0),
    Message('note_on', channel=0, note=50, velocity=95, time=0),
    Message('note_on', channel=0, note=55, velocity=95, time=4),
    Message('note_off', channel=0, note=55, velocity=95, time=476),
    Message('note_off', channel=0, note=50, velocity=95, time=0),
    Message('note_on', channel=0, note=45, velocity=95, time=0),
    Message('note_on', channel=0, note=52, velocity=95, time=6),
    Message('note_on', channel=0, note=57, velocity=95, time=6),
    Message('note_off', channel=0, note=57, velocity=95, time=708),
    Message('note_off', channel=0, note=52, velocity=95, time=0),
    Message('note_off', channel=0, note=45, velocity=95, time=0),
    Message('note_on', channel=1, note=48, velocity=95, time=0),
    Message('pitchwheel', channel=1, pitch=2816, time=120),
    Message('pitchwheel', channel=1, pitch=0, time=0),
    Message('note_off', channel=1, note=48, velocity=95, time=0),
    Message('note_on', channel=0, note=52, velocity=47, time=0),
    Message('note_off', channel=0, note=52, velocity=47, time=120),
    Message('note_on', channel=0, note=50, velocity=95, time=0),
    Message('note_off', channel=0, note=50, velocity=95, time=240),
    Message('note_on', channel=0, note=57, velocity=70, time=0),
    Message('note_off', channel=0, note=57, velocity=70, time=240),
    Message('note_on', channel=1, note=59, velocity=95, time=0),
    Message('pitchwheel', channel=1, pitch=0, time=160),
    Message('pitchwheel', channel=1, pitch=128, time=160),
    Message('pitchwheel', channel=1, pitch=0, time=160),
    Message('pitchwheel', channel=1, pitch=128, time=160),
    Message('pitchwheel', channel=1, pitch=0, time=160),
    Message('pitchwheel', channel=1, pitch=128, time=160),
    Message('pitchwheel', channel=1, pitch=0, time=0),
    Message('note_off', channel=1, note=59, velocity=95, time=0),
    Message('note_on', channel=1, note=57, velocity=95, time=0),
    Message('pitchwheel', channel=1, pitch=0, time=160),
    Message('pitchwheel', channel=1, pitch=128, time=160),
    Message('pitchwheel', channel=1, pitch=0, time=160),
    Message('pitchwheel', channel=1, pitch=128, time=160),
    Message('pitchwheel', channel=1, pitch=0, time=80),
    Message('pitchwheel', channel=1, pitch=128, time=0),
    Message('pitchwheel', channel=1, pitch=0, time=0),
    Message('note_off', channel=1, note=57, velocity=95, time=0),
    Message('note_on', channel=0, note=57, velocity=95, time=0),
    Message('note_on', channel=0, note=45, velocity=95, time=2),
    Message('note_off', channel=0, note=57, velocity=95, time=238),
    Message('note_off', channel=0, note=45, velocity=95, time=0),
    Message('note_on', channel=0, note=45, velocity=95, time=0),
    Message('note_on', channel=0, note=52, velocity=95, time=2),
    Message('note_on', channel=0, note=57, velocity=95, time=2),
    Message('note_off', channel=0, note=57, velocity=95, time=236),
    Message('note_off', channel=0, note=52, velocity=95, time=0),
    Message('note_off', channel=0, note=45, velocity=95, time=0),
    Message('note_on', channel=0, note=55, velocity=95, time=0),
    Message('note_on', channel=0, note=50, velocity=95, time=2),
    Message('note_on', channel=0, note=45, velocity=95, time=2),
    Message('note_off', channel=0, note=55, velocity=95, time=236),
    Message('note_off', channel=0, note=50, velocity=95, time=0),
    Message('note_off', channel=0, note=45, velocity=95, time=0),
    Message('note_on', channel=0, note=45, velocity=95, time=0),
    Message('note_on', channel=0, note=52, velocity=95, time=6),
    Message('note_on', channel=0, note=57, velocity=95, time=6),
    Message('note_off', channel=0, note=57, velocity=95, time=708),
    Message('note_off', channel=0, note=52, velocity=95, time=0),
    Message('note_off', channel=0, note=45, velocity=95, time=0),
    Message('note_on', channel=1, note=48, velocity=95, time=0),
    Message('pitchwheel', channel=1, pitch=2816, time=120),
    Message('pitchwheel', channel=1, pitch=0, time=0),
    Message('note_off', channel=1, note=48, velocity=95, time=0),
    Message('note_on', channel=0, note=52, velocity=47, time=0),
    Message('note_off', channel=0, note=52, velocity=47, time=120),
    Message('note_on', channel=0, note=50, velocity=95, time=0),
    Message('note_off', channel=0, note=50, velocity=95, time=240),
    Message('note_on', channel=0, note=57, velocity=95, time=0),
    Message('note_off', channel=0, note=57, velocity=95, time=240),
    Message('note_on', channel=1, note=59, velocity=95, time=0),
    Message('pitchwheel', channel=1, pitch=0, time=160),
    Message('pitchwheel', channel=1, pitch=128, time=160),
    Message('pitchwheel', channel=1, pitch=0, time=160),
    Message('pitchwheel', channel=1, pitch=128, time=160),
    Message('pitchwheel', channel=1, pitch=0, time=80),
    Message('pitchwheel', channel=1, pitch=128, time=0),
    Message('pitchwheel', channel=1, pitch=0, time=0),
    Message('note_off', channel=1, note=59, velocity=95, time=0),
    Message('note_on', channel=0, note=57, velocity=95, time=0),
    Message('note_off', channel=0, note=57, velocity=95, time=240),
    Message('pitchwheel', channel=1, pitch=0, time=0),
    Message('note_on', channel=1, note=59, velocity=95, time=0),
    Message('pitchwheel', channel=1, pitch=0, time=180),
    Message('pitchwheel', channel=1, pitch=128, time=12),
    Message('pitchwheel', channel=1, pitch=256, time=12),
    Message('pitchwheel', channel=1, pitch=384, time=12),
    Message('pitchwheel', channel=1, pitch=512, time=12),
    Message('pitchwheel', channel=1, pitch=640, time=12),
    Message('pitchwheel', channel=1, pitch=640, time=0),
    Message('pitchwheel', channel=1, pitch=640, time=120),
    Message('pitchwheel', channel=1, pitch=640, time=120),
    Message('pitchwheel', channel=1, pitch=512, time=12),
    Message('pitchwheel', channel=1, pitch=384, time=12),
    Message('pitchwheel', channel=1, pitch=256, time=12),
    Message('pitchwheel', channel=1, pitch=128, time=12),
    Message('pitchwheel', channel=1, pitch=0, time=12),
    Message('pitchwheel', channel=1, pitch=0, time=0),
    Message('pitchwheel', channel=1, pitch=0, time=180),
    Message('pitchwheel', channel=1, pitch=0, time=0),
    Message('note_off', channel=1, note=59, velocity=95, time=0),
    Message('note_on', channel=0, note=50, velocity=95, time=0),
    Message('note_on', channel=0, note=57, velocity=95, time=2),
    Message('note_off', channel=0, note=57, velocity=95, time=238),
    Message('note_off', channel=0, note=50, velocity=95, time=0),
    Message('note_on', channel=0, note=50, velocity=95, time=0),
    Message('note_on', channel=0, note=55, velocity=95, time=4),
    Message('note_off', channel=0, note=55, velocity=95, time=476),
    Message('note_off', channel=0, note=50, velocity=95, time=0),
    Message('note_on', channel=0, note=60, velocity=95, time=0),
    Message('note_on', channel=0, note=65, velocity=95, time=2),
    Message('note_off', channel=0, note=65, velocity=95, time=238),
    Message('note_off', channel=0, note=60, velocity=95, time=0),
    Message('note_on', channel=0, note=65, velocity=95, time=0),
    Message('note_on', channel=0, note=60, velocity=95, time=2),
    Message('note_off', channel=0, note=65, velocity=95, time=238),
    Message('note_off', channel=0, note=60, velocity=95, time=0),
    Message('note_on', channel=0, note=60, velocity=95, time=0),
    Message('note_on', channel=0, note=65, velocity=95, time=2),
    Message('note_off', channel=0, note=65, velocity=95, time=238),
    Message('note_off', channel=0, note=60, velocity=95, time=0),
    Message('note_on', channel=0, note=65, velocity=95, time=0),
    Message('note_on', channel=0, note=60, velocity=95, time=2),
    Message('note_off', channel=0, note=65, velocity=95, time=238),
    Message('note_off', channel=0, note=60, velocity=95, time=0),
    Message('note_on', channel=0, note=67, velocity=95, time=240),
    Message('note_off', channel=0, note=67, velocity=95, time=240),
    Message('note_on', channel=0, note=60, velocity=95, time=0),
    Message('note_on', channel=0, note=64, velocity=95, time=8),
    Message('note_off', channel=0, note=64, velocity=95, time=2392),
    Message('note_off', channel=0, note=60, velocity=95, time=0),
    Message('note_on', channel=0, note=60, velocity=95, time=0),
    Message('note_on', channel=0, note=65, velocity=95, time=2),
    Message('note_off', channel=0, note=65, velocity=95, time=238),
    Message('note_off', channel=0, note=60, velocity=95, time=0),
    Message('note_on', channel=0, note=65, velocity=95, time=0),
    Message('note_on', channel=0, note=60, velocity=95, time=2),
    Message('note_off', channel=0, note=65, velocity=95, time=238),
    Message('note_off', channel=0, note=60, velocity=95, time=0),
    Message('note_on', channel=0, note=60, velocity=95, time=0),
    Message('note_on', channel=0, note=65, velocity=95, time=2),
    Message('note_off', channel=0, note=65, velocity=95, time=238),
    Message('note_off', channel=0, note=60, velocity=95, time=0),
    Message('note_on', channel=0, note=65, velocity=95, time=0),
    Message('note_on', channel=0, note=60, velocity=95, time=2),
    Message('note_off', channel=0, note=65, velocity=95, time=238),
    Message('note_off', channel=0, note=60, velocity=95, time=0),
    Message('note_on', channel=0, note=67, velocity=95, time=240),
    Message('note_off', channel=0, note=67, velocity=95, time=240),
    Message('note_on', channel=0, note=60, velocity=95, time=0),
    Message('note_on', channel=0, note=64, velocity=95, time=6),
    Message('note_off', channel=0, note=64, velocity=95, time=714),
    Message('note_off', channel=0, note=60, velocity=95, time=0),
    Message('note_on', channel=0, note=60, velocity=95, time=0),
    Message('note_on', channel=0, note=64, velocity=95, time=4),
    Message('note_off', channel=0, note=64, velocity=95, time=476),
    Message('note_off', channel=0, note=60, velocity=95, time=0),
    Message('note_on', channel=0, note=64, velocity=95, time=0),
    Message('note_on', channel=0, note=60, velocity=95, time=2),
    Message('note_off', channel=0, note=64, velocity=95, time=238),
    Message('note_off', channel=0, note=60, velocity=95, time=0),
    Message('note_on', channel=0, note=60, velocity=95, time=0),
    Message('note_on', channel=0, note=64, velocity=95, time=2),
    Message('note_off', channel=0, note=64, velocity=95, time=238),
    Message('note_off', channel=0, note=60, velocity=95, time=0),
    Message('note_on', channel=0, note=64, velocity=95, time=0),
    Message('note_on', channel=0, note=60, velocity=95, time=2),
    Message('note_off', channel=0, note=64, velocity=95, time=238),
    Message('note_off', channel=0, note=60, velocity=95, time=0),
    Message('note_on', channel=0, note=60, velocity=95, time=0),
    Message('note_on', channel=0, note=64, velocity=95, time=2),
    Message('note_off', channel=0, note=64, velocity=95, time=238),
    Message('note_off', channel=0, note=60, velocity=95, time=0),
    Message('note_on', channel=0, note=64, velocity=95, time=0),
    Message('note_on', channel=0, note=60, velocity=95, time=2),
    Message('note_off', channel=0, note=64, velocity=95, time=36),
    Message('note_off', channel=0, note=60, velocity=95, time=0),
    Message('note_on', channel=0, note=52, velocity=95, time=202),
    Message('note_on', channel=0, note=59, velocity=95, time=4),
    Message('note_on', channel=0, note=64, velocity=95, time=4),
    Message('note_off', channel=0, note=64, velocity=95, time=472),
    Message('note_off', channel=0, note=59, velocity=95, time=0),
    Message('note_off', channel=0, note=52, velocity=95, time=0),
    Message('note_on', channel=0, note=52, velocity=95, time=0),
    Message('note_on', channel=0, note=59, velocity=95, time=2),
    Message('note_on', channel=0, note=64, velocity=95, time=2),
    Message('note_off', channel=0, note=64, velocity=95, time=236),
    Message('note_off', channel=0, note=59, velocity=95, time=0),
    Message('note_off', channel=0, note=52, velocity=95, time=0),
    Message('note_on', channel=0, note=64, velocity=95, time=0),
    Message('note_on', channel=0, note=59, velocity=95, time=2),
    Message('note_on', channel=0, note=52, velocity=95, time=2),
    Message('note_off', channel=0, note=64, velocity=95, time=236),
    Message('note_off', channel=0, note=59, velocity=95, time=0),
    Message('note_off', channel=0, note=52, velocity=95, time=0),
    Message('note_on', channel=0, note=52, velocity=95, time=0),
    Message('note_on', channel=0, note=59, velocity=95, time=2),
    Message('note_on', channel=0, note=64, velocity=95, time=2),
    Message('note_off', channel=0, note=64, velocity=95, time=236),
    Message('note_off', channel=0, note=59, velocity=95, time=0),
    Message('note_off', channel=0, note=52, velocity=95, time=0),
    Message('note_on', channel=0, note=64, velocity=95, time=0),
    Message('note_on', channel=0, note=59, velocity=95, time=2),
    Message('note_on', channel=0, note=52, velocity=95, time=2),
    Message('note_off', channel=0, note=64, velocity=95, time=236),
    Message('note_off', channel=0, note=59, velocity=95, time=0),
    Message('note_off', channel=0, note=52, velocity=95, time=0),
    Message('note_on', channel=0, note=52, velocity=95, time=0),
    Message('note_on', channel=0, note=59, velocity=95, time=2),
    Message('note_on', channel=0, note=64, velocity=95, time=2),
    Message('note_off', channel=0, note=64, velocity=95, time=236),
    Message('note_off', channel=0, note=59, velocity=95, time=0),
    Message('note_off', channel=0, note=52, velocity=95, time=0),
    Message('note_on', channel=0, note=55, velocity=95, time=0),
    Message('note_on', channel=0, note=50, velocity=95, time=2),
    Message('note_on', channel=0, note=45, velocity=95, time=2),
    Message('note_off', channel=0, note=55, velocity=95, time=34),
    Message('note_off', channel=0, note=50, velocity=95, time=0),
    Message('note_off', channel=0, note=45, velocity=95, time=0),
    Message('note_on', channel=0, note=55, velocity=95, time=202),
    Message('note_on', channel=0, note=62, velocity=95, time=4),
    Message('note_on', channel=0, note=67, velocity=95, time=4),
    Message('note_off', channel=0, note=67, velocity=95, time=472),
    Message('note_off', channel=0, note=62, velocity=95, time=0),
    Message('note_off', channel=0, note=55, velocity=95, time=0),
    Message('note_on', channel=0, note=55, velocity=95, time=0),
    Message('note_on', channel=0, note=62, velocity=95, time=2),
    Message('note_on', channel=0, note=67, velocity=95, time=2),
    Message('note_off', channel=0, note=67, velocity=95, time=236),
    Message('note_off', channel=0, note=62, velocity=95, time=0),
    Message('note_off', channel=0, note=55, velocity=95, time=0),
    Message('note_on', channel=0, note=67, velocity=95, time=0),
    Message('note_on', channel=0, note=62, velocity=95, time=2),
    Message('note_on', channel=0, note=55, velocity=95, time=2),
    Message('note_off', channel=0, note=67, velocity=95, time=236),
    Message('note_off', channel=0, note=62, velocity=95, time=0),
    Message('note_off', channel=0, note=55, velocity=95, time=0),
    Message('note_on', channel=0, note=55, velocity=95, time=0),
    Message('note_on', channel=0, note=62, velocity=95, time=2),
    Message('note_on', channel=0, note=67, velocity=95, time=2),
    Message('note_off', channel=0, note=67, velocity=95, time=236),
    Message('note_off', channel=0, note=62, velocity=95, time=0),
    Message('note_off', channel=0, note=55, velocity=95, time=0),
    Message('note_on', channel=0, note=67, velocity=95, time=0),
    Message('note_on', channel=0, note=62, velocity=95, time=2),
    Message('note_on', channel=0, note=55, velocity=95, time=2),
    Message('note_off', channel=0, note=67, velocity=95, time=236),
    Message('note_off', channel=0, note=62, velocity=95, time=0),
    Message('note_off', channel=0, note=55, velocity=95, time=0),
    Message('note_on', channel=0, note=55, velocity=95, time=0),
    Message('note_on', channel=0, note=62, velocity=95, time=2),
    Message('note_on', channel=0, note=67, velocity=95, time=2),
    Message('note_off', channel=0, note=67, velocity=95, time=236),
    Message('note_off', channel=0, note=62, velocity=95, time=0),
    Message('note_off', channel=0, note=55, velocity=95, time=0),
    Message('note_on', channel=0, note=55, velocity=95, time=0),
    Message('note_on', channel=0, note=50, velocity=95, time=2),
    Message('note_on', channel=0, note=45, velocity=95, time=2),
    Message('note_off', channel=0, note=55, velocity=95, time=34),
    Message('note_off', channel=0, note=50, velocity=95, time=0),
    Message('note_off', channel=0, note=45, velocity=95, time=0),
    Message('note_on', channel=0, note=45, velocity=95, time=202),
    Message('note_on', channel=0, note=57, velocity=95, time=6),
    Message('note_on', channel=0, note=62, velocity=95, time=6),
    Message('note_on', channel=1, note=66, velocity=95, time=6),
    Message('pitchwheel', channel=1, pitch=0, time=160),
    Message('pitchwheel', channel=1, pitch=128, time=160),
    Message('pitchwheel', channel=1, pitch=0, time=160),
    Message('pitchwheel', channel=1, pitch=128, time=160),
    Message('pitchwheel', channel=1, pitch=0, time=62),
    Message('pitchwheel', channel=1, pitch=128, time=0),
    Message('pitchwheel', channel=1, pitch=0, time=0),
    Message('note_off', channel=1, note=66, velocity=95, time=0),
    Message('note_off', channel=0, note=62, velocity=95, time=0),
    Message('note_off', channel=0, note=57, velocity=95, time=0),
    Message('note_off', channel=0, note=45, velocity=95, time=0),
    Message('note_on', channel=0, note=67, velocity=95, time=0),
    Message('note_off', channel=0, note=67, velocity=95, time=240),
    Message('note_on', channel=0, note=66, velocity=95, time=0),
    Message('note_off', channel=0, note=66, velocity=95, time=240),
    Message('note_on', channel=0, note=69, velocity=95, time=0),
    Message('note_off', channel=0, note=69, velocity=95, time=240),
    Message('note_on', channel=0, note=67, velocity=95, time=0),
    Message('note_off', channel=0, note=67, velocity=95, time=240),
    Message('note_on', channel=0, note=66, velocity=95, time=0),
    Message('note_off', channel=0, note=66, velocity=95, time=240),
    Message('note_on', channel=1, note=64, velocity=95, time=0),
    Message('pitchwheel', channel=1, pitch=0, time=160),
    Message('pitchwheel', channel=1, pitch=128, time=160),
    Message('pitchwheel', channel=1, pitch=0, time=160),
    Message('pitchwheel', channel=1, pitch=128, time=160),
    Message('pitchwheel', channel=1, pitch=0, time=80),
    Message('pitchwheel', channel=1, pitch=128, time=0),
    Message('pitchwheel', channel=1, pitch=0, time=0),
    Message('note_off', channel=1, note=64, velocity=95, time=0),
    Message('pitchwheel', channel=1, pitch=0, time=0),
    Message('note_on', channel=1, note=59, velocity=95, time=0),
    Message('pitchwheel', channel=1, pitch=128, time=8),
    Message('pitchwheel', channel=1, pitch=256, time=8),
    Message('pitchwheel', channel=1, pitch=384, time=8),
    Message('pitchwheel', channel=1, pitch=512, time=8),
    Message('pitchwheel', channel=1, pitch=640, time=8),
    Message('pitchwheel', channel=1, pitch=640, time=0),
    Message('pitchwheel', channel=1, pitch=640, time=200),
    Message('pitchwheel', channel=1, pitch=512, time=24),
    Message('pitchwheel', channel=1, pitch=384, time=24),
    Message('pitchwheel', channel=1, pitch=256, time=24),
    Message('pitchwheel', channel=1, pitch=128, time=24),
    Message('pitchwheel', channel=1, pitch=0, time=24),
    Message('pitchwheel', channel=1, pitch=0, time=0),
    Message('pitchwheel', channel=1, pitch=0, time=120),
    Message('pitchwheel', channel=1, pitch=0, time=0),
    Message('note_off', channel=1, note=59, velocity=95, time=0),
    Message('note_on', channel=0, note=57, velocity=95, time=0),
    Message('note_off', channel=0, note=57, velocity=95, time=240),
    Message('note_on', channel=0, note=57, velocity=95, time=0),
    Message('note_off', channel=0, note=57, velocity=95, time=240),
    Message('note_on', channel=0, note=59, velocity=95, time=0),
    Message('note_off', channel=0, note=59, velocity=95, time=240),
    Message('note_on', channel=0, note=52, velocity=95, time=0),
    Message('note_on', channel=0, note=59, velocity=95, time=4),
    Message('note_on', channel=0, note=64, velocity=95, time=4),
    Message('note_off', channel=0, note=64, velocity=95, time=472),
    Message('note_off', channel=0, note=59, velocity=95, time=0),
    Message('note_off', channel=0, note=52, velocity=95, time=0),
    Message('note_on', channel=0, note=52, velocity=95, time=0),
    Message('note_on', channel=0, note=59, velocity=95, time=2),
    Message('note_on', channel=0, note=64, velocity=95, time=2),
    Message('note_off', channel=0, note=64, velocity=95, time=236),
    Message('note_off', channel=0, note=59, velocity=95, time=0),
    Message('note_off', channel=0, note=52, velocity=95, time=0),
    Message('note_on', channel=0, note=64, velocity=95, time=0),
    Message('note_on', channel=0, note=59, velocity=95, time=2),
    Message('note_on', channel=0, note=52, velocity=95, time=2),
    Message('note_off', channel=0, note=64, velocity=95, time=236),
    Message('note_off', channel=0, note=59, velocity=95, time=0),
    Message('note_off', channel=0, note=52, velocity=95, time=0),
    Message('note_on', channel=0, note=52, velocity=95, time=0),
    Message('note_on', channel=0, note=59, velocity=95, time=2),
    Message('note_on', channel=0, note=64, velocity=95, time=2),
    Message('note_off', channel=0, note=64, velocity=95, time=236),
    Message('note_off', channel=0, note=59, velocity=95, time=0),
    Message('note_off', channel=0, note=52, velocity=95, time=0),
    Message('note_on', channel=0, note=64, velocity=95, time=0),
    Message('note_on', channel=0, note=59, velocity=95, time=2),
    Message('note_on', channel=0, note=52, velocity=95, time=2),
    Message('note_off', channel=0, note=64, velocity=95, time=236),
    Message('note_off', channel=0, note=59, velocity=95, time=0),
    Message('note_off', channel=0, note=52, velocity=95, time=0),
    Message('note_on', channel=0, note=52, velocity=95, time=0),
    Message('note_on', channel=0, note=59, velocity=95, time=2),
    Message('note_on', channel=0, note=64, velocity=95, time=2),
    Message('note_off', channel=0, note=64, velocity=95, time=236),
    Message('note_off', channel=0, note=59, velocity=95, time=0),
    Message('note_off', channel=0, note=52, velocity=95, time=0),
    Message('note_on', channel=0, note=55, velocity=95, time=0),
    Message('note_on', channel=0, note=50, velocity=95, time=2),
    Message('note_on', channel=0, note=45, velocity=95, time=2),
    Message('note_off', channel=0, note=55, velocity=95, time=34),
    Message('note_off', channel=0, note=50, velocity=95, time=0),
    Message('note_off', channel=0, note=45, velocity=95, time=0),
    Message('note_on', channel=0, note=55, velocity=95, time=202),
    Message('note_on', channel=0, note=62, velocity=95, time=4),
    Message('note_on', channel=0, note=67, velocity=95, time=4),
    Message('note_off', channel=0, note=67, velocity=95, time=472),
    Message('note_off', channel=0, note=62, velocity=95, time=0),
    Message('note_off', channel=0, note=55, velocity=95, time=0),
    Message('note_on', channel=0, note=55, velocity=95, time=0),
    Message('note_on', channel=0, note=62, velocity=95, time=2),
    Message('note_on', channel=0, note=67, velocity=95, time=2),
    Message('note_off', channel=0, note=67, velocity=95, time=236),
    Message('note_off', channel=0, note=62, velocity=95, time=0),
    Message('note_off', channel=0, note=55, velocity=95, time=0),
    Message('note_on', channel=0, note=67, velocity=95, time=0),
    Message('note_on', channel=0, note=62, velocity=95, time=2),
    Message('note_on', channel=0, note=55, velocity=95, time=2),
    Message('note_off', channel=0, note=67, velocity=95, time=236),
    Message('note_off', channel=0, note=62, velocity=95, time=0),
    Message('note_off', channel=0, note=55, velocity=95, time=0),
    Message('note_on', channel=0, note=55, velocity=95, time=0),
    Message('note_on', channel=0, note=62, velocity=95, time=2),
    Message('note_on', channel=0, note=67, velocity=95, time=2),
    Message('note_off', channel=0, note=67, velocity=95, time=236),
    Message('note_off', channel=0, note=62, velocity=95, time=0),
    Message('note_off', channel=0, note=55, velocity=95, time=0),
    Message('note_on', channel=0, note=67, velocity=95, time=0),
    Message('note_on', channel=0, note=62, velocity=95, time=2),
    Message('note_on', channel=0, note=55, velocity=95, time=2),
    Message('note_off', channel=0, note=67, velocity=95, time=236),
    Message('note_off', channel=0, note=62, velocity=95, time=0),
    Message('note_off', channel=0, note=55, velocity=95, time=0),
    Message('note_on', channel=0, note=55, velocity=95, time=0),
    Message('note_on', channel=0, note=62, velocity=95, time=2),
    Message('note_on', channel=0, note=67, velocity=95, time=2),
    Message('note_off', channel=0, note=67, velocity=95, time=236),
    Message('note_off', channel=0, note=62, velocity=95, time=0),
    Message('note_off', channel=0, note=55, velocity=95, time=0),
    Message('note_on', channel=0, note=55, velocity=95, time=0),
    Message('note_on', channel=0, note=50, velocity=95, time=2),
    Message('note_on', channel=0, note=45, velocity=95, time=2),
    Message('note_off', channel=0, note=55, velocity=95, time=34),
    Message('note_off', channel=0, note=50, velocity=95, time=0),
    Message('note_off', channel=0, note=45, velocity=95, time=0),
    Message('note_on', channel=0, note=45, velocity=95, time=202),
    Message('note_on', channel=0, note=57, velocity=95, time=6),
    Message('note_on', channel=0, note=62, velocity=95, time=6),
    Message('note_on', channel=1, note=66, velocity=95, time=6),
    Message('pitchwheel', channel=1, pitch=0, time=160),
    Message('pitchwheel', channel=1, pitch=128, time=160),
    Message('pitchwheel', channel=1, pitch=0, time=160),
    Message('pitchwheel', channel=1, pitch=128, time=160),
    Message('pitchwheel', channel=1, pitch=0, time=62),
    Message('pitchwheel', channel=1, pitch=128, time=0),
    Message('pitchwheel', channel=1, pitch=0, time=0),
    Message('note_off', channel=1, note=66, velocity=95, time=0),
    Message('note_off', channel=0, note=62, velocity=95, time=0),
    Message('note_off', channel=0, note=57, velocity=95, time=0),
    Message('note_off', channel=0, note=45, velocity=95, time=0),
    Message('note_on', channel=0, note=67, velocity=95, time=0),
    Message('note_off', channel=0, note=67, velocity=95, time=240),
    Message('note_on', channel=0, note=66, velocity=95, time=0),
    Message('note_off', channel=0, note=66, velocity=95, time=240),
    Message('note_on', channel=0, note=69, velocity=95, time=0),
    Message('note_off', channel=0, note=69, velocity=95, time=240),
    Message('note_on', channel=0, note=67, velocity=95, time=0),
    Message('note_off', channel=0, note=67, velocity=95, time=240),
    Message('note_on', channel=0, note=66, velocity=95, time=0),
    Message('note_off', channel=0, note=66, velocity=95, time=240),
    Message('note_on', channel=1, note=64, velocity=95, time=0),
    Message('pitchwheel', channel=1, pitch=0, time=160),
    Message('pitchwheel', channel=1, pitch=128, time=160),
    Message('pitchwheel', channel=1, pitch=0, time=160),
    Message('pitchwheel', channel=1, pitch=128, time=160),
    Message('pitchwheel', channel=1, pitch=0, time=80),
    Message('pitchwheel', channel=1, pitch=128, time=0),
    Message('pitchwheel', channel=1, pitch=0, time=0),
    Message('note_off', channel=1, note=64, velocity=95, time=0),
    Message('pitchwheel', channel=1, pitch=0, time=0),
    Message('note_on', channel=1, note=59, velocity=95, time=0),
    Message('pitchwheel', channel=1, pitch=128, time=8),
    Message('pitchwheel', channel=1, pitch=256, time=8),
    Message('pitchwheel', channel=1, pitch=384, time=8),
    Message('pitchwheel', channel=1, pitch=512, time=8),
    Message('pitchwheel', channel=1, pitch=640, time=8),
    Message('pitchwheel', channel=1, pitch=640, time=0),
    Message('pitchwheel', channel=1, pitch=640, time=200),
    Message('pitchwheel', channel=1, pitch=512, time=24),
    Message('pitchwheel', channel=1, pitch=384, time=24),
    Message('pitchwheel', channel=1, pitch=256, time=24),
    Message('pitchwheel', channel=1, pitch=128, time=24),
    Message('pitchwheel', channel=1, pitch=0, time=24),
    Message('pitchwheel', channel=1, pitch=0, time=0),
    Message('pitchwheel', channel=1, pitch=0, time=120),
    Message('pitchwheel', channel=1, pitch=0, time=0),
    Message('note_off', channel=1, note=59, velocity=95, time=0),
    Message('note_on', channel=0, note=57, velocity=95, time=0),
    Message('note_off', channel=0, note=57, velocity=95, time=240),
    Message('note_on', channel=0, note=57, velocity=95, time=0),
    Message('note_off', channel=0, note=57, velocity=95, time=240),
    Message('note_on', channel=0, note=59, velocity=95, time=0),
    Message('note_off', channel=0, note=59, velocity=95, time=240),
    Message('note_on', channel=0, note=52, velocity=95, time=0),
    Message('note_on', channel=0, note=59, velocity=95, time=4),
    Message('note_on', channel=0, note=64, velocity=95, time=4),
    Message('note_off', channel=0, note=64, velocity=95, time=472),
    Message('note_off', channel=0, note=59, velocity=95, time=0),
    Message('note_off', channel=0, note=52, velocity=95, time=0),
    Message('note_on', channel=0, note=52, velocity=95, time=0),
    Message('note_on', channel=0, note=59, velocity=95, time=2),
    Message('note_on', channel=0, note=64, velocity=95, time=2),
    Message('note_off', channel=0, note=64, velocity=95, time=236),
    Message('note_off', channel=0, note=59, velocity=95, time=0),
    Message('note_off', channel=0, note=52, velocity=95, time=0),
    Message('note_on', channel=0, note=64, velocity=95, time=0),
    Message('note_on', channel=0, note=59, velocity=95, time=2),
    Message('note_on', channel=0, note=52, velocity=95, time=2),
    Message('note_off', channel=0, note=64, velocity=95, time=236),
    Message('note_off', channel=0, note=59, velocity=95, time=0),
    Message('note_off', channel=0, note=52, velocity=95, time=0),
    Message('note_on', channel=0, note=52, velocity=95, time=0),
    Message('note_on', channel=0, note=59, velocity=95, time=2),
    Message('note_on', channel=0, note=64, velocity=95, time=2),
    Message('note_off', channel=0, note=64, velocity=95, time=236),
    Message('note_off', channel=0, note=59, velocity=95, time=0),
    Message('note_off', channel=0, note=52, velocity=95, time=0),
    Message('note_on', channel=0, note=64, velocity=95, time=0),
    Message('note_on', channel=0, note=59, velocity=95, time=2),
    Message('note_on', channel=0, note=52, velocity=95, time=2),
    Message('note_off', channel=0, note=64, velocity=95, time=236),
    Message('note_off', channel=0, note=59, velocity=95, time=0),
    Message('note_off', channel=0, note=52, velocity=95, time=0),
    Message('note_on', channel=0, note=52, velocity=95, time=0),
    Message('note_on', channel=0, note=59, velocity=95, time=2),
    Message('note_on', channel=0, note=64, velocity=95, time=2),
    Message('note_off', channel=0, note=64, velocity=95, time=236),
    Message('note_off', channel=0, note=59, velocity=95, time=0),
    Message('note_off', channel=0, note=52, velocity=95, time=0),
    Message('note_on', channel=0, note=55, velocity=95, time=0),
    Message('note_on', channel=0, note=50, velocity=95, time=2),
    Message('note_on', channel=0, note=45, velocity=95, time=2),
    Message('note_off', channel=0, note=55, velocity=95, time=34),
    Message('note_off', channel=0, note=50, velocity=95, time=0),
    Message('note_off', channel=0, note=45, velocity=95, time=0),
    Message('note_on', channel=0, note=55, velocity=95, time=202),
    Message('note_on', channel=0, note=62, velocity=95, time=4),
    Message('note_on', channel=0, note=67, velocity=95, time=4),
    Message('note_off', channel=0, note=67, velocity=95, time=472),
    Message('note_off', channel=0, note=62, velocity=95, time=0),
    Message('note_off', channel=0, note=55, velocity=95, time=0),
    Message('note_on', channel=0, note=55, velocity=95, time=0),
    Message('note_on', channel=0, note=62, velocity=95, time=2),
    Message('note_on', channel=0, note=67, velocity=95, time=2),
    Message('note_off', channel=0, note=67, velocity=95, time=236),
    Message('note_off', channel=0, note=62, velocity=95, time=0),
    Message('note_off', channel=0, note=55, velocity=95, time=0),
    Message('note_on', channel=0, note=67, velocity=95, time=0),
    Message('note_on', channel=0, note=62, velocity=95, time=2),
    Message('note_on', channel=0, note=55, velocity=95, time=2),
    Message('note_off', channel=0, note=67, velocity=95, time=236),
    Message('note_off', channel=0, note=62, velocity=95, time=0),
    Message('note_off', channel=0, note=55, velocity=95, time=0),
    Message('note_on', channel=0, note=55, velocity=95, time=0),
    Message('note_on', channel=0, note=62, velocity=95, time=2),
    Message('note_on', channel=0, note=67, velocity=95, time=2),
    Message('note_off', channel=0, note=67, velocity=95, time=236),
    Message('note_off', channel=0, note=62, velocity=95, time=0),
    Message('note_off', channel=0, note=55, velocity=95, time=0),
    Message('note_on', channel=0, note=67, velocity=95, time=0),
    Message('note_on', channel=0, note=62, velocity=95, time=2),
    Message('note_on', channel=0, note=55, velocity=95, time=2),
    Message('note_off', channel=0, note=67, velocity=95, time=236),
    Message('note_off', channel=0, note=62, velocity=95, time=0),
    Message('note_off', channel=0, note=55, velocity=95, time=0),
    Message('note_on', channel=0, note=55, velocity=95, time=0),
    Message('note_on', channel=0, note=62, velocity=95, time=2),
    Message('note_on', channel=0, note=67, velocity=95, time=2),
    Message('note_off', channel=0, note=67, velocity=95, time=236),
    Message('note_off', channel=0, note=62, velocity=95, time=0),
    Message('note_off', channel=0, note=55, velocity=95, time=0),
    Message('note_on', channel=0, note=55, velocity=95, time=0),
    Message('note_on', channel=0, note=50, velocity=95, time=2),
    Message('note_on', channel=0, note=45, velocity=95, time=2),
    Message('note_off', channel=0, note=55, velocity=95, time=34),
    Message('note_off', channel=0, note=50, velocity=95, time=0),
    Message('note_off', channel=0, note=45, velocity=95, time=0),
    Message('note_on', channel=0, note=45, velocity=95, time=202),
    Message('note_on', channel=0, note=57, velocity=95, time=6),
    Message('note_on', channel=0, note=62, velocity=95, time=6),
    Message('note_on', channel=1, note=66, velocity=95, time=6),
    Message('pitchwheel', channel=1, pitch=0, time=160),
    Message('pitchwheel', channel=1, pitch=128, time=160),
    Message('pitchwheel', channel=1, pitch=0, time=160),
    Message('pitchwheel', channel=1, pitch=128, time=160),
    Message('pitchwheel', channel=1, pitch=0, time=62),
    Message('pitchwheel', channel=1, pitch=128, time=0),
    Message('pitchwheel', channel=1, pitch=0, time=0),
    Message('note_off', channel=1, note=66, velocity=95, time=0),
    Message('note_off', channel=0, note=62, velocity=95, time=0),
    Message('note_off', channel=0, note=57, velocity=95, time=0),
    Message('note_off', channel=0, note=45, velocity=95, time=0),
    Message('note_on', channel=0, note=67, velocity=95, time=0),
    Message('note_off', channel=0, note=67, velocity=95, time=240),
    Message('note_on', channel=0, note=66, velocity=95, time=0),
    Message('note_off', channel=0, note=66, velocity=95, time=240),
    Message('note_on', channel=0, note=69, velocity=95, time=0),
    Message('note_off', channel=0, note=69, velocity=95, time=240),
    Message('note_on', channel=0, note=67, velocity=95, time=0),
    Message('note_off', channel=0, note=67, velocity=95, time=240),
    Message('note_on', channel=0, note=66, velocity=95, time=0),
    Message('note_off', channel=0, note=66, velocity=95, time=240),
    Message('note_on', channel=1, note=64, velocity=95, time=0),
    Message('pitchwheel', channel=1, pitch=0, time=160),
    Message('pitchwheel', channel=1, pitch=128, time=160),
    Message('pitchwheel', channel=1, pitch=0, time=160),
    Message('pitchwheel', channel=1, pitch=128, time=160),
    Message('pitchwheel', channel=1, pitch=0, time=80),
    Message('pitchwheel', channel=1, pitch=128, time=0),
    Message('pitchwheel', channel=1, pitch=0, time=0),
    Message('note_off', channel=1, note=64, velocity=95, time=0),
    Message('pitchwheel', channel=1, pitch=0, time=0),
    Message('note_on', channel=1, note=59, velocity=95, time=0),
    Message('pitchwheel', channel=1, pitch=128, time=12),
    Message('pitchwheel', channel=1, pitch=256, time=12),
    Message('pitchwheel', channel=1, pitch=384, time=12),
    Message('pitchwheel', channel=1, pitch=512, time=12),
    Message('pitchwheel', channel=1, pitch=640, time=12),
    Message('pitchwheel', channel=1, pitch=640, time=0),
    Message('pitchwheel', channel=1, pitch=640, time=300),
    Message('pitchwheel', channel=1, pitch=512, time=36),
    Message('pitchwheel', channel=1, pitch=384, time=36),
    Message('pitchwheel', channel=1, pitch=256, time=36),
    Message('pitchwheel', channel=1, pitch=128, time=36),
    Message('pitchwheel', channel=1, pitch=0, time=36),
    Message('pitchwheel', channel=1, pitch=0, time=0),
    Message('pitchwheel', channel=1, pitch=0, time=180),
    Message('pitchwheel', channel=1, pitch=0, time=0),
    Message('note_off', channel=1, note=59, velocity=95, time=0),
    Message('note_on', channel=0, note=57, velocity=95, time=0),
    Message('note_off', channel=0, note=57, velocity=95, time=240),
    Message('note_on', channel=0, note=59, velocity=95, time=0),
    Message('note_off', channel=0, note=59, velocity=95, time=240),
    Message('note_on', channel=0, note=54, velocity=95, time=480),
    Message('note_on', channel=0, note=59, velocity=95, time=2),
    Message('note_on', channel=0, note=66, velocity=95, time=2),
    Message('note_on', channel=0, note=71, velocity=95, time=2),
    Message('note_off', channel=0, note=71, velocity=95, time=234),
    Message('note_off', channel=0, note=66, velocity=95, time=0),
    Message('note_off', channel=0, note=59, velocity=95, time=0),
    Message('note_off', channel=0, note=54, velocity=95, time=0),
    Message('note_on', channel=0, note=71, velocity=95, time=0),
    Message('note_on', channel=0, note=66, velocity=95, time=2),
    Message('note_on', channel=0, note=59, velocity=95, time=2),
    Message('note_on', channel=0, note=54, velocity=95, time=2),
    Message('note_off', channel=0, note=71, velocity=95, time=234),
    Message('note_off', channel=0, note=66, velocity=95, time=0),
    Message('note_off', channel=0, note=59, velocity=95, time=0),
    Message('note_off', channel=0, note=54, velocity=95, time=0),
    Message('note_on', channel=0, note=54, velocity=95, time=0),
    Message('note_on', channel=0, note=59, velocity=95, time=2),
    Message('note_on', channel=0, note=66, velocity=95, time=2),
    Message('note_on', channel=0, note=71, velocity=95, time=2),
    Message('note_off', channel=0, note=71, velocity=95, time=234),
    Message('note_off', channel=0, note=66, velocity=95, time=0),
    Message('note_off', channel=0, note=59, velocity=95, time=0),
    Message('note_off', channel=0, note=54, velocity=95, time=0),
    Message('note_on', channel=0, note=71, velocity=95, time=0),
    Message('note_on', channel=0, note=66, velocity=95, time=2),
    Message('note_on', channel=0, note=59, velocity=95, time=2),
    Message('note_on', channel=0, note=54, velocity=95, time=2),
    Message('note_off', channel=0, note=71, velocity=95, time=234),
    Message('note_off', channel=0, note=66, velocity=95, time=0),
    Message('note_off', channel=0, note=59, velocity=95, time=0),
    Message('note_off', channel=0, note=54, velocity=95, time=0),
    Message('note_on', channel=0, note=45, velocity=95, time=0),
    Message('note_on', channel=0, note=50, velocity=95, time=2),
    Message('note_on', channel=0, note=55, velocity=95, time=2),
    Message('note_on', channel=0, note=59, velocity=95, time=2),
    Message('note_off', channel=0, note=59, velocity=95, time=32),
    Message('note_off', channel=0, note=55, velocity=95, time=0),
    Message('note_off', channel=0, note=50, velocity=95, time=0),
    Message('note_off', channel=0, note=45, velocity=95, time=0),
    Message('note_on', channel=0, note=59, velocity=95, time=202),
    Message('note_on', channel=0, note=55, velocity=95, time=2),
    Message('note_on', channel=0, note=50, velocity=95, time=2),
    Message('note_on', channel=0, note=45, velocity=95, time=2),
    Message('note_off', channel=0, note=59, velocity=95, time=32),
    Message('note_off', channel=0, note=55, velocity=95, time=0),
    Message('note_off', channel=0, note=50, velocity=95, time=0),
    Message('note_off', channel=0, note=45, velocity=95, time=0),
    Message('note_on', channel=0, note=51, velocity=95, time=202),
    Message('note_on', channel=0, note=54, velocity=95, time=2),
    Message('note_on', channel=0, note=59, velocity=95, time=2),
    Message('note_on', channel=0, note=66, velocity=95, time=2),
    Message('note_on', channel=0, note=71, velocity=95, time=2),
    Message('note_off', channel=0, note=71, velocity=95, time=232),
    Message('note_off', channel=0, note=66, velocity=95, time=0),
    Message('note_off', channel=0, note=59, velocity=95, time=0),
    Message('note_off', channel=0, note=54, velocity=95, time=0),
    Message('note_off', channel=0, note=51, velocity=95, time=0),
    Message('note_on', channel=0, note=71, velocity=95, time=0),
    Message('note_on', channel=0, note=66, velocity=95, time=2),
    Message('note_on', channel=0, note=59, velocity=95, time=2),
    Message('note_on', channel=0, note=54, velocity=95, time=2),
    Message('note_on', channel=0, note=51, velocity=95, time=2),
    Message('note_off', channel=0, note=71, velocity=95, time=232),
    Message('note_off', channel=0, note=66, velocity=95, time=0),
    Message('note_off', channel=0, note=59, velocity=95, time=0),
    Message('note_off', channel=0, note=54, velocity=95, time=0),
    Message('note_off', channel=0, note=51, velocity=95, time=0),
    Message('note_on', channel=0, note=51, velocity=95, time=0),
    Message('note_on', channel=0, note=54, velocity=95, time=2),
    Message('note_on', channel=0, note=59, velocity=95, time=2),
    Message('note_on', channel=0, note=66, velocity=95, time=2),
    Message('note_on', channel=0, note=71, velocity=95, time=2),
    Message('note_off', channel=0, note=71, velocity=95, time=232),
    Message('note_off', channel=0, note=66, velocity=95, time=0),
    Message('note_off', channel=0, note=59, velocity=95, time=0),
    Message('note_off', channel=0, note=54, velocity=95, time=0),
    Message('note_off', channel=0, note=51, velocity=95, time=0),
    Message('note_on', channel=0, note=71, velocity=95, time=0),
    Message('note_on', channel=0, note=66, velocity=95, time=2),
    Message('note_on', channel=0, note=59, velocity=95, time=2),
    Message('note_on', channel=0, note=54, velocity=95, time=2),
    Message('note_on', channel=0, note=51, velocity=95, time=2),
    Message('note_off', channel=0, note=71, velocity=95, time=232),
    Message('note_off', channel=0, note=66, velocity=95, time=0),
    Message('note_off', channel=0, note=59, velocity=95, time=0),
    Message('note_off', channel=0, note=54, velocity=95, time=0),
    Message('note_off', channel=0, note=51, velocity=95, time=0),
    Message('note_on', channel=0, note=71, velocity=95, time=240),
    Message('note_on', channel=0, note=66, velocity=95, time=2),
    Message('note_on', channel=0, note=59, velocity=95, time=2),
    Message('note_on', channel=0, note=54, velocity=95, time=2),
    Message('note_on', channel=0, note=51, velocity=95, time=2),
    Message('note_off', channel=0, note=71, velocity=95, time=232),
    Message('note_off', channel=0, note=66, velocity=95, time=0),
    Message('note_off', channel=0, note=59, velocity=95, time=0),
    Message('note_off', channel=0, note=54, velocity=95, time=0),
    Message('note_off', channel=0, note=51, velocity=95, time=0),
    Message('note_on', channel=0, note=51, velocity=95, time=0),
    Message('note_on', channel=0, note=54, velocity=95, time=4),
    Message('note_on', channel=0, note=59, velocity=95, time=4),
    Message('note_on', channel=0, note=66, velocity=95, time=4),
    Message('note_on', channel=0, note=71, velocity=95, time=4),
    Message('note_off', channel=0, note=71, velocity=95, time=464),
    Message('note_off', channel=0, note=66, velocity=95, time=0),
    Message('note_off', channel=0, note=59, velocity=95, time=0),
    Message('note_off', channel=0, note=54, velocity=95, time=0),
    Message('note_off', channel=0, note=51, velocity=95, time=0),
    Message('note_on', channel=0, note=45, velocity=95, time=0),
    Message('note_on', channel=0, note=52, velocity=95, time=6),
    Message('note_on', channel=0, note=57, velocity=95, time=6),
    Message('note_off', channel=0, note=57, velocity=95, time=64),
    Message('note_off', channel=0, note=52, velocity=95, time=0),
    Message('note_off', channel=0, note=45, velocity=95, time=0),
    Message('note_on', channel=1, note=48, velocity=95, time=644),
    Message('pitchwheel', channel=1, pitch=2816, time=120),
    Message('pitchwheel', channel=1, pitch=0, time=0),
    Message('note_off', channel=1, note=48, velocity=95, time=0),
    Message('note_on', channel=0, note=52, velocity=47, time=0),
    Message('note_off', channel=0, note=52, velocity=47, time=120),
    Message('note_on', channel=0, note=50, velocity=95, time=0),
    Message('note_off', channel=0, note=50, velocity=95, time=240),
    Message('note_on', channel=0, note=57, velocity=70, time=0),
    Message('note_off', channel=0, note=57, velocity=70, time=240),
    Message('note_on', channel=1, note=59, velocity=95, time=0),
    Message('pitchwheel', channel=1, pitch=0, time=160),
    Message('pitchwheel', channel=1, pitch=128, time=160),
    Message('pitchwheel', channel=1, pitch=0, time=160),
    Message('pitchwheel', channel=1, pitch=128, time=160),
    Message('pitchwheel', channel=1, pitch=0, time=160),
    Message('pitchwheel', channel=1, pitch=128, time=160),
    Message('pitchwheel', channel=1, pitch=0, time=0),
    Message('note_off', channel=1, note=59, velocity=95, time=0),
    Message('note_on', channel=1, note=57, velocity=95, time=0),
    Message('pitchwheel', channel=1, pitch=0, time=160),
    Message('pitchwheel', channel=1, pitch=128, time=160),
    Message('pitchwheel', channel=1, pitch=0, time=160),
    Message('pitchwheel', channel=1, pitch=128, time=160),
    Message('pitchwheel', channel=1, pitch=0, time=160),
    Message('pitchwheel', channel=1, pitch=128, time=160),
    Message('pitchwheel', channel=1, pitch=0, time=0),
    Message('note_off', channel=1, note=57, velocity=95, time=0),
    Message('note_on', channel=0, note=45, velocity=95, time=0),
    Message('note_on', channel=0, note=52, velocity=95, time=2),
    Message('note_on', channel=0, note=57, velocity=95, time=2),
    Message('note_off', channel=0, note=57, velocity=95, time=72),
    Message('note_off', channel=0, note=52, velocity=95, time=0),
    Message('note_off', channel=0, note=45, velocity=95, time=0),
    Message('note_on', channel=0, note=57, velocity=95, time=164),
    Message('note_on', channel=0, note=52, velocity=95, time=2),
    Message('note_on', channel=0, note=45, velocity=95, time=2),
    Message('note_off', channel=0, note=57, velocity=95, time=72),
    Message('note_off', channel=0, note=52, velocity=95, time=0),
    Message('note_off', channel=0, note=45, velocity=95, time=0),
    Message('note_on', channel=0, note=45, velocity=95, time=164),
    Message('note_on', channel=0, note=52, velocity=95, time=6),
    Message('note_on', channel=0, note=57, velocity=95, time=6),
    Message('note_off', channel=0, note=57, velocity=95, time=64),
    Message('note_off', channel=0, note=52, velocity=95, time=0),
    Message('note_off', channel=0, note=45, velocity=95, time=0),
    Message('note_on', channel=1, note=48, velocity=95, time=644),
    Message('pitchwheel', channel=1, pitch=2816, time=120),
    Message('pitchwheel', channel=1, pitch=0, time=0),
    Message('note_off', channel=1, note=48, velocity=95, time=0),
    Message('note_on', channel=0, note=52, velocity=47, time=0),
    Message('note_off', channel=0, note=52, velocity=47, time=120),
    Message('note_on', channel=0, note=50, velocity=95, time=0),
    Message('note_off', channel=0, note=50, velocity=95, time=240),
    Message('note_on', channel=0, note=57, velocity=95, time=0),
    Message('note_off', channel=0, note=57, velocity=95, time=240),
    Message('note_on', channel=1, note=59, velocity=95, time=0),
    Message('pitchwheel', channel=1, pitch=0, time=160),
    Message('pitchwheel', channel=1, pitch=128, time=160),
    Message('pitchwheel', channel=1, pitch=0, time=160),
    Message('pitchwheel', channel=1, pitch=128, time=160),
    Message('pitchwheel', channel=1, pitch=0, time=80),
    Message('pitchwheel', channel=1, pitch=128, time=0),
    Message('pitchwheel', channel=1, pitch=0, time=0),
    Message('note_off', channel=1, note=59, velocity=95, time=0),
    Message('note_on', channel=0, note=57, velocity=95, time=0),
    Message('note_off', channel=0, note=57, velocity=95, time=240),
    Message('pitchwheel', channel=1, pitch=0, time=0),
    Message('note_on', channel=1, note=59, velocity=95, time=0),
    Message('pitchwheel', channel=1, pitch=0, time=180),
    Message('pitchwheel', channel=1, pitch=128, time=12),
    Message('pitchwheel', channel=1, pitch=256, time=12),
    Message('pitchwheel', channel=1, pitch=384, time=12),
    Message('pitchwheel', channel=1, pitch=512, time=12),
    Message('pitchwheel', channel=1, pitch=640, time=12),
    Message('pitchwheel', channel=1, pitch=640, time=0),
    Message('pitchwheel', channel=1, pitch=640, time=120),
    Message('pitchwheel', channel=1, pitch=640, time=120),
    Message('pitchwheel', channel=1, pitch=512, time=12),
    Message('pitchwheel', channel=1, pitch=384, time=12),
    Message('pitchwheel', channel=1, pitch=256, time=12),
    Message('pitchwheel', channel=1, pitch=128, time=12),
    Message('pitchwheel', channel=1, pitch=0, time=12),
    Message('pitchwheel', channel=1, pitch=0, time=0),
    Message('pitchwheel', channel=1, pitch=0, time=180),
    Message('pitchwheel', channel=1, pitch=0, time=0),
    Message('note_off', channel=1, note=59, velocity=95, time=0),
    Message('note_on', channel=0, note=50, velocity=95, time=0),
    Message('note_on', channel=0, note=57, velocity=95, time=2),
    Message('note_off', channel=0, note=57, velocity=95, time=238),
    Message('note_off', channel=0, note=50, velocity=95, time=0),
    Message('note_on', channel=0, note=50, velocity=95, time=0),
    Message('note_on', channel=0, note=55, velocity=95, time=4),
    Message('note_off', channel=0, note=55, velocity=95, time=476),
    Message('note_off', channel=0, note=50, velocity=95, time=0),
    Message('note_on', channel=0, note=45, velocity=95, time=0),
    Message('note_on', channel=0, note=52, velocity=95, time=6),
    Message('note_on', channel=0, note=57, velocity=95, time=6),
    Message('note_off', channel=0, note=57, velocity=95, time=64),
    Message('note_off', channel=0, note=52, velocity=95, time=0),
    Message('note_off', channel=0, note=45, velocity=95, time=0),
    Message('note_on', channel=1, note=48, velocity=95, time=644),
    Message('pitchwheel', channel=1, pitch=2816, time=120),
    Message('pitchwheel', channel=1, pitch=0, time=0),
    Message('note_off', channel=1, note=48, velocity=95, time=0),
    Message('note_on', channel=0, note=52, velocity=47, time=0),
    Message('note_off', channel=0, note=52, velocity=47, time=120),
    Message('note_on', channel=0, note=50, velocity=95, time=0),
    Message('note_off', channel=0, note=50, velocity=95, time=240),
    Message('note_on', channel=0, note=57, velocity=70, time=0),
    Message('note_off', channel=0, note=57, velocity=70, time=240),
    Message('note_on', channel=1, note=59, velocity=95, time=0),
    Message('pitchwheel', channel=1, pitch=0, time=160),
    Message('pitchwheel', channel=1, pitch=128, time=160),
    Message('pitchwheel', channel=1, pitch=0, time=160),
    Message('pitchwheel', channel=1, pitch=128, time=160),
    Message('pitchwheel', channel=1, pitch=0, time=160),
    Message('pitchwheel', channel=1, pitch=128, time=160),
    Message('pitchwheel', channel=1, pitch=0, time=0),
    Message('note_off', channel=1, note=59, velocity=95, time=0),
    Message('note_on', channel=1, note=57, velocity=95, time=0),
    Message('pitchwheel', channel=1, pitch=0, time=160),
    Message('pitchwheel', channel=1, pitch=128, time=160),
    Message('pitchwheel', channel=1, pitch=0, time=160),
    Message('pitchwheel', channel=1, pitch=128, time=160),
    Message('pitchwheel', channel=1, pitch=0, time=160),
    Message('pitchwheel', channel=1, pitch=128, time=160),
    Message('pitchwheel', channel=1, pitch=0, time=0),
    Message('note_off', channel=1, note=57, velocity=95, time=0),
    Message('note_on', channel=0, note=45, velocity=95, time=0),
    Message('note_on', channel=0, note=52, velocity=95, time=2),
    Message('note_on', channel=0, note=57, velocity=95, time=2),
    Message('note_off', channel=0, note=57, velocity=95, time=72),
    Message('note_off', channel=0, note=52, velocity=95, time=0),
    Message('note_off', channel=0, note=45, velocity=95, time=0),
    Message('note_on', channel=0, note=57, velocity=95, time=164),
    Message('note_on', channel=0, note=52, velocity=95, time=2),
    Message('note_on', channel=0, note=45, velocity=95, time=2),
    Message('note_off', channel=0, note=57, velocity=95, time=72),
    Message('note_off', channel=0, note=52, velocity=95, time=0),
    Message('note_off', channel=0, note=45, velocity=95, time=0),
    Message('note_on', channel=0, note=45, velocity=95, time=164),
    Message('note_on', channel=0, note=52, velocity=95, time=6),
    Message('note_on', channel=0, note=57, velocity=95, time=6),
    Message('note_off', channel=0, note=57, velocity=95, time=64),
    Message('note_off', channel=0, note=52, velocity=95, time=0),
    Message('note_off', channel=0, note=45, velocity=95, time=0),
    Message('note_on', channel=1, note=48, velocity=95, time=644),
    Message('pitchwheel', channel=1, pitch=2816, time=120),
    Message('pitchwheel', channel=1, pitch=0, time=0),
    Message('note_off', channel=1, note=48, velocity=95, time=0),
    Message('note_on', channel=0, note=52, velocity=47, time=0),
    Message('note_off', channel=0, note=52, velocity=47, time=120),
    Message('note_on', channel=0, note=50, velocity=95, time=0),
    Message('note_off', channel=0, note=50, velocity=95, time=240),
    Message('note_on', channel=0, note=57, velocity=95, time=0),
    Message('note_off', channel=0, note=57, velocity=95, time=240),
    Message('note_on', channel=1, note=59, velocity=95, time=0),
    Message('pitchwheel', channel=1, pitch=0, time=160),
    Message('pitchwheel', channel=1, pitch=128, time=160),
    Message('pitchwheel', channel=1, pitch=0, time=160),
    Message('pitchwheel', channel=1, pitch=128, time=160),
    Message('pitchwheel', channel=1, pitch=0, time=80),
    Message('pitchwheel', channel=1, pitch=128, time=0),
    Message('pitchwheel', channel=1, pitch=0, time=0),
    Message('note_off', channel=1, note=59, velocity=95, time=0),
    Message('note_on', channel=0, note=57, velocity=95, time=0),
    Message('note_off', channel=0, note=57, velocity=95, time=240),
    Message('pitchwheel', channel=1, pitch=0, time=0),
    Message('note_on', channel=1, note=59, velocity=95, time=0),
    Message('pitchwheel', channel=1, pitch=0, time=180),
    Message('pitchwheel', channel=1, pitch=128, time=12),
    Message('pitchwheel', channel=1, pitch=256, time=12),
    Message('pitchwheel', channel=1, pitch=384, time=12),
    Message('pitchwheel', channel=1, pitch=512, time=12),
    Message('pitchwheel', channel=1, pitch=640, time=12),
    Message('pitchwheel', channel=1, pitch=640, time=0),
    Message('pitchwheel', channel=1, pitch=640, time=120),
    Message('pitchwheel', channel=1, pitch=640, time=120),
    Message('pitchwheel', channel=1, pitch=512, time=12),
    Message('pitchwheel', channel=1, pitch=384, time=12),
    Message('pitchwheel', channel=1, pitch=256, time=12),
    Message('pitchwheel', channel=1, pitch=128, time=12),
    Message('pitchwheel', channel=1, pitch=0, time=12),
    Message('pitchwheel', channel=1, pitch=0, time=0),
    Message('pitchwheel', channel=1, pitch=0, time=180),
    Message('pitchwheel', channel=1, pitch=0, time=0),
    Message('note_off', channel=1, note=59, velocity=95, time=0),
    Message('note_on', channel=0, note=50, velocity=95, time=0),
    Message('note_on', channel=0, note=57, velocity=95, time=2),
    Message('note_off', channel=0, note=57, velocity=95, time=238),
    Message('note_off', channel=0, note=50, velocity=95, time=0),
    Message('note_on', channel=0, note=50, velocity=95, time=0),
    Message('note_on', channel=0, note=55, velocity=95, time=4),
    Message('note_off', channel=0, note=55, velocity=95, time=476),
    Message('note_off', channel=0, note=50, velocity=95, time=0),
    Message('note_on', channel=0, note=45, velocity=95, time=0),
    Message('note_on', channel=0, note=52, velocity=95, time=6),
    Message('note_on', channel=0, note=57, velocity=95, time=6),
    Message('note_off', channel=0, note=57, velocity=95, time=64),
    Message('note_off', channel=0, note=52, velocity=95, time=0),
    Message('note_off', channel=0, note=45, velocity=95, time=0),
    Message('note_on', channel=1, note=48, velocity=95, time=644),
    Message('pitchwheel', channel=1, pitch=2816, time=120),
    Message('pitchwheel', channel=1, pitch=0, time=0),
    Message('note_off', channel=1, note=48, velocity=95, time=0),
    Message('note_on', channel=0, note=52, velocity=47, time=0),
    Message('note_off', channel=0, note=52, velocity=47, time=120),
    Message('note_on', channel=0, note=50, velocity=95, time=0),
    Message('note_off', channel=0, note=50, velocity=95, time=240),
    Message('note_on', channel=0, note=57, velocity=70, time=0),
    Message('note_off', channel=0, note=57, velocity=70, time=240),
    Message('note_on', channel=1, note=59, velocity=95, time=0),
    Message('pitchwheel', channel=1, pitch=0, time=160),
    Message('pitchwheel', channel=1, pitch=128, time=160),
    Message('pitchwheel', channel=1, pitch=0, time=160),
    Message('pitchwheel', channel=1, pitch=128, time=160),
    Message('pitchwheel', channel=1, pitch=0, time=160),
    Message('pitchwheel', channel=1, pitch=128, time=160),
    Message('pitchwheel', channel=1, pitch=0, time=0),
    Message('note_off', channel=1, note=59, velocity=95, time=0),
    Message('note_on', channel=1, note=62, velocity=95, time=0),
    Message('pitchwheel', channel=1, pitch=0, time=160),
    Message('pitchwheel', channel=1, pitch=128, time=160),
    Message('pitchwheel', channel=1, pitch=0, time=160),
    Message('pitchwheel', channel=1, pitch=128, time=160),
    Message('pitchwheel', channel=1, pitch=0, time=160),
    Message('pitchwheel', channel=1, pitch=128, time=160),
    Message('pitchwheel', channel=1, pitch=0, time=0),
    Message('note_off', channel=1, note=62, velocity=95, time=0),
    Message('note_on', channel=0, note=45, velocity=95, time=0),
    Message('note_off', channel=0, note=45, velocity=95, time=76),
    Message('note_on', channel=0, note=45, velocity=95, time=164),
    Message('note_off', channel=0, note=45, velocity=95, time=76),
    Message('note_on', channel=0, note=45, velocity=95, time=164),
    Message('note_on', channel=0, note=52, velocity=95, time=6),
    Message('note_on', channel=0, note=57, velocity=95, time=6),
    Message('note_off', channel=0, note=57, velocity=95, time=64),
    Message('note_off', channel=0, note=52, velocity=95, time=0),
    Message('note_off', channel=0, note=45, velocity=95, time=0),
    Message('note_on', channel=1, note=48, velocity=95, time=644),
    Message('pitchwheel', channel=1, pitch=2816, time=120),
    Message('pitchwheel', channel=1, pitch=0, time=0),
    Message('note_off', channel=1, note=48, velocity=95, time=0),
    Message('note_on', channel=0, note=52, velocity=47, time=0),
    Message('note_off', channel=0, note=52, velocity=47, time=120),
    Message('note_on', channel=0, note=50, velocity=95, time=0),
    Message('note_off', channel=0, note=50, velocity=95, time=240),
    Message('note_on', channel=0, note=57, velocity=95, time=0),
    Message('note_off', channel=0, note=57, velocity=95, time=240),
    Message('note_on', channel=1, note=59, velocity=95, time=0),
    Message('pitchwheel', channel=1, pitch=0, time=160),
    Message('pitchwheel', channel=1, pitch=128, time=160),
    Message('pitchwheel', channel=1, pitch=0, time=160),
    Message('pitchwheel', channel=1, pitch=128, time=160),
    Message('pitchwheel', channel=1, pitch=0, time=80),
    Message('pitchwheel', channel=1, pitch=128, time=0),
    Message('pitchwheel', channel=1, pitch=0, time=0),
    Message('note_off', channel=1, note=59, velocity=95, time=0),
    Message('note_on', channel=0, note=57, velocity=95, time=0),
    Message('note_off', channel=0, note=57, velocity=95, time=240),
    Message('pitchwheel', channel=1, pitch=0, time=0),
    Message('note_on', channel=1, note=59, velocity=95, time=0),
    Message('pitchwheel', channel=1, pitch=0, time=180),
    Message('pitchwheel', channel=1, pitch=128, time=12),
    Message('pitchwheel', channel=1, pitch=256, time=12),
    Message('pitchwheel', channel=1, pitch=384, time=12),
    Message('pitchwheel', channel=1, pitch=512, time=12),
    Message('pitchwheel', channel=1, pitch=640, time=12),
    Message('pitchwheel', channel=1, pitch=640, time=0),
    Message('pitchwheel', channel=1, pitch=640, time=120),
    Message('pitchwheel', channel=1, pitch=640, time=120),
    Message('pitchwheel', channel=1, pitch=512, time=12),
    Message('pitchwheel', channel=1, pitch=384, time=12),
    Message('pitchwheel', channel=1, pitch=256, time=12),
    Message('pitchwheel', channel=1, pitch=128, time=12),
    Message('pitchwheel', channel=1, pitch=0, time=12),
    Message('pitchwheel', channel=1, pitch=0, time=0),
    Message('pitchwheel', channel=1, pitch=0, time=180),
    Message('pitchwheel', channel=1, pitch=0, time=0),
    Message('note_off', channel=1, note=59, velocity=95, time=0),
    Message('note_on', channel=0, note=50, velocity=95, time=0),
    Message('note_on', channel=0, note=57, velocity=95, time=2),
    Message('note_off', channel=0, note=57, velocity=95, time=238),
    Message('note_off', channel=0, note=50, velocity=95, time=0),
    Message('note_on', channel=0, note=50, velocity=95, time=0),
    Message('note_on', channel=0, note=55, velocity=95, time=4),
    Message('note_off', channel=0, note=55, velocity=95, time=476),
    Message('note_off', channel=0, note=50, velocity=95, time=0),
    Message('note_on', channel=0, note=45, velocity=95, time=0),
    Message('note_on', channel=0, note=52, velocity=95, time=6),
    Message('note_on', channel=0, note=57, velocity=95, time=6),
    Message('note_off', channel=0, note=57, velocity=95, time=708),
    Message('note_off', channel=0, note=52, velocity=95, time=0),
    Message('note_off', channel=0, note=45, velocity=95, time=0),
    Message('note_on', channel=1, note=48, velocity=95, time=0),
    Message('pitchwheel', channel=1, pitch=2816, time=120),
    Message('pitchwheel', channel=1, pitch=0, time=0),
    Message('note_off', channel=1, note=48, velocity=95, time=0),
    Message('note_on', channel=0, note=52, velocity=47, time=0),
    Message('note_off', channel=0, note=52, velocity=47, time=120),
    Message('note_on', channel=0, note=50, velocity=95, time=0),
    Message('note_off', channel=0, note=50, velocity=95, time=240),
    Message('note_on', channel=0, note=57, velocity=70, time=0),
    Message('note_off', channel=0, note=57, velocity=70, time=240),
    Message('note_on', channel=1, note=59, velocity=95, time=0),
    Message('pitchwheel', channel=1, pitch=0, time=160),
    Message('pitchwheel', channel=1, pitch=128, time=160),
    Message('pitchwheel', channel=1, pitch=0, time=160),
    Message('pitchwheel', channel=1, pitch=128, time=160),
    Message('pitchwheel', channel=1, pitch=0, time=160),
    Message('pitchwheel', channel=1, pitch=128, time=160),
    Message('pitchwheel', channel=1, pitch=0, time=0),
    Message('note_off', channel=1, note=59, velocity=95, time=0),
    Message('note_on', channel=1, note=57, velocity=95, time=0),
    Message('pitchwheel', channel=1, pitch=0, time=160),
    Message('pitchwheel', channel=1, pitch=128, time=160),
    Message('pitchwheel', channel=1, pitch=0, time=160),
    Message('pitchwheel', channel=1, pitch=128, time=160),
    Message('pitchwheel', channel=1, pitch=0, time=80),
    Message('pitchwheel', channel=1, pitch=128, time=0),
    Message('pitchwheel', channel=1, pitch=0, time=0),
    Message('note_off', channel=1, note=57, velocity=95, time=0),
    Message('note_on', channel=0, note=57, velocity=95, time=0),
    Message('note_on', channel=0, note=45, velocity=95, time=2),
    Message('note_off', channel=0, note=57, velocity=95, time=238),
    Message('note_off', channel=0, note=45, velocity=95, time=0),
    Message('note_on', channel=0, note=45, velocity=95, time=0),
    Message('note_on', channel=0, note=52, velocity=95, time=2),
    Message('note_on', channel=0, note=57, velocity=95, time=2),
    Message('note_off', channel=0, note=57, velocity=95, time=236),
    Message('note_off', channel=0, note=52, velocity=95, time=0),
    Message('note_off', channel=0, note=45, velocity=95, time=0),
    Message('note_on', channel=0, note=55, velocity=95, time=0),
    Message('note_on', channel=0, note=50, velocity=95, time=2),
    Message('note_on', channel=0, note=45, velocity=95, time=2),
    Message('note_off', channel=0, note=55, velocity=95, time=236),
    Message('note_off', channel=0, note=50, velocity=95, time=0),
    Message('note_off', channel=0, note=45, velocity=95, time=0),
    Message('note_on', channel=0, note=45, velocity=95, time=0),
    Message('note_on', channel=0, note=52, velocity=95, time=6),
    Message('note_on', channel=0, note=57, velocity=95, time=6),
    Message('note_off', channel=0, note=57, velocity=95, time=708),
    Message('note_off', channel=0, note=52, velocity=95, time=0),
    Message('note_off', channel=0, note=45, velocity=95, time=0),
    Message('note_on', channel=1, note=48, velocity=95, time=0),
    Message('pitchwheel', channel=1, pitch=2816, time=120),
    Message('pitchwheel', channel=1, pitch=0, time=0),
    Message('note_off', channel=1, note=48, velocity=95, time=0),
    Message('note_on', channel=0, note=52, velocity=47, time=0),
    Message('note_off', channel=0, note=52, velocity=47, time=120),
    Message('note_on', channel=0, note=50, velocity=95, time=0),
    Message('note_off', channel=0, note=50, velocity=95, time=240),
    Message('note_on', channel=0, note=57, velocity=95, time=0),
    Message('note_off', channel=0, note=57, velocity=95, time=240),
    Message('note_on', channel=1, note=59, velocity=95, time=0),
    Message('pitchwheel', channel=1, pitch=0, time=160),
    Message('pitchwheel', channel=1, pitch=128, time=160),
    Message('pitchwheel', channel=1, pitch=0, time=160),
    Message('pitchwheel', channel=1, pitch=128, time=160),
    Message('pitchwheel', channel=1, pitch=0, time=80),
    Message('pitchwheel', channel=1, pitch=128, time=0),
    Message('pitchwheel', channel=1, pitch=0, time=0),
    Message('note_off', channel=1, note=59, velocity=95, time=0),
    Message('note_on', channel=0, note=57, velocity=95, time=0),
    Message('note_off', channel=0, note=57, velocity=95, time=240),
    Message('pitchwheel', channel=1, pitch=0, time=0),
    Message('note_on', channel=1, note=59, velocity=95, time=0),
    Message('pitchwheel', channel=1, pitch=0, time=180),
    Message('pitchwheel', channel=1, pitch=128, time=12),
    Message('pitchwheel', channel=1, pitch=256, time=12),
    Message('pitchwheel', channel=1, pitch=384, time=12),
    Message('pitchwheel', channel=1, pitch=512, time=12),
    Message('pitchwheel', channel=1, pitch=640, time=12),
    Message('pitchwheel', channel=1, pitch=640, time=0),
    Message('pitchwheel', channel=1, pitch=640, time=120),
    Message('pitchwheel', channel=1, pitch=640, time=120),
    Message('pitchwheel', channel=1, pitch=512, time=12),
    Message('pitchwheel', channel=1, pitch=384, time=12),
    Message('pitchwheel', channel=1, pitch=256, time=12),
    Message('pitchwheel', channel=1, pitch=128, time=12),
    Message('pitchwheel', channel=1, pitch=0, time=12),
    Message('pitchwheel', channel=1, pitch=0, time=0),
    Message('pitchwheel', channel=1, pitch=0, time=180),
    Message('pitchwheel', channel=1, pitch=0, time=0),
    Message('note_off', channel=1, note=59, velocity=95, time=0),
    Message('note_on', channel=0, note=50, velocity=95, time=0),
    Message('note_on', channel=0, note=57, velocity=95, time=2),
    Message('note_off', channel=0, note=57, velocity=95, time=238),
    Message('note_off', channel=0, note=50, velocity=95, time=0),
    Message('note_on', channel=0, note=50, velocity=95, time=0),
    Message('note_on', channel=0, note=55, velocity=95, time=4),
    Message('note_off', channel=0, note=55, velocity=95, time=476),
    Message('note_off', channel=0, note=50, velocity=95, time=0),
    Message('note_on', channel=0, note=60, velocity=95, time=0),
    Message('note_on', channel=0, note=65, velocity=95, time=2),
    Message('note_off', channel=0, note=65, velocity=95, time=238),
    Message('note_off', channel=0, note=60, velocity=95, time=0),
    Message('note_on', channel=0, note=65, velocity=95, time=0),
    Message('note_on', channel=0, note=60, velocity=95, time=2),
    Message('note_off', channel=0, note=65, velocity=95, time=238),
    Message('note_off', channel=0, note=60, velocity=95, time=0),
    Message('note_on', channel=0, note=60, velocity=95, time=0),
    Message('note_on', channel=0, note=65, velocity=95, time=2),
    Message('note_off', channel=0, note=65, velocity=95, time=238),
    Message('note_off', channel=0, note=60, velocity=95, time=0),
    Message('note_on', channel=0, note=65, velocity=95, time=0),
    Message('note_on', channel=0, note=60, velocity=95, time=2),
    Message('note_off', channel=0, note=65, velocity=95, time=238),
    Message('note_off', channel=0, note=60, velocity=95, time=0),
    Message('note_on', channel=0, note=67, velocity=95, time=240),
    Message('note_off', channel=0, note=67, velocity=95, time=240),
    Message('note_on', channel=0, note=60, velocity=95, time=0),
    Message('note_on', channel=0, note=64, velocity=95, time=8),
    Message('note_off', channel=0, note=64, velocity=95, time=2392),
    Message('note_off', channel=0, note=60, velocity=95, time=0),
    Message('note_on', channel=0, note=60, velocity=95, time=0),
    Message('note_on', channel=0, note=65, velocity=95, time=2),
    Message('note_off', channel=0, note=65, velocity=95, time=238),
    Message('note_off', channel=0, note=60, velocity=95, time=0),
    Message('note_on', channel=0, note=65, velocity=95, time=0),
    Message('note_on', channel=0, note=60, velocity=95, time=2),
    Message('note_off', channel=0, note=65, velocity=95, time=238),
    Message('note_off', channel=0, note=60, velocity=95, time=0),
    Message('note_on', channel=0, note=60, velocity=95, time=0),
    Message('note_on', channel=0, note=65, velocity=95, time=2),
    Message('note_off', channel=0, note=65, velocity=95, time=238),
    Message('note_off', channel=0, note=60, velocity=95, time=0),
    Message('note_on', channel=0, note=65, velocity=95, time=0),
    Message('note_on', channel=0, note=60, velocity=95, time=2),
    Message('note_off', channel=0, note=65, velocity=95, time=238),
    Message('note_off', channel=0, note=60, velocity=95, time=0),
    Message('note_on', channel=0, note=67, velocity=95, time=240),
    Message('note_off', channel=0, note=67, velocity=95, time=240),
    Message('note_on', channel=0, note=60, velocity=95, time=0),
    Message('note_on', channel=0, note=64, velocity=95, time=6),
    Message('note_off', channel=0, note=64, velocity=95, time=714),
    Message('note_off', channel=0, note=60, velocity=95, time=0),
    Message('note_on', channel=0, note=60, velocity=95, time=0),
    Message('note_on', channel=0, note=64, velocity=95, time=4),
    Message('note_off', channel=0, note=64, velocity=95, time=476),
    Message('note_off', channel=0, note=60, velocity=95, time=0),
    Message('note_on', channel=0, note=64, velocity=95, time=0),
    Message('note_on', channel=0, note=60, velocity=95, time=2),
    Message('note_off', channel=0, note=64, velocity=95, time=238),
    Message('note_off', channel=0, note=60, velocity=95, time=0),
    Message('note_on', channel=0, note=60, velocity=95, time=0),
    Message('note_on', channel=0, note=64, velocity=95, time=2),
    Message('note_off', channel=0, note=64, velocity=95, time=238),
    Message('note_off', channel=0, note=60, velocity=95, time=0),
    Message('note_on', channel=0, note=64, velocity=95, time=0),
    Message('note_on', channel=0, note=60, velocity=95, time=2),
    Message('note_off', channel=0, note=64, velocity=95, time=238),
    Message('note_off', channel=0, note=60, velocity=95, time=0),
    Message('note_on', channel=0, note=60, velocity=95, time=0),
    Message('note_on', channel=0, note=64, velocity=95, time=2),
    Message('note_off', channel=0, note=64, velocity=95, time=238),
    Message('note_off', channel=0, note=60, velocity=95, time=0),
    Message('note_on', channel=0, note=64, velocity=95, time=0),
    Message('note_on', channel=0, note=60, velocity=95, time=2),
    Message('note_off', channel=0, note=64, velocity=95, time=36),
    Message('note_off', channel=0, note=60, velocity=95, time=0),
    Message('note_on', channel=0, note=52, velocity=95, time=202),
    Message('note_on', channel=0, note=59, velocity=95, time=4),
    Message('note_on', channel=0, note=64, velocity=95, time=4),
    Message('note_off', channel=0, note=64, velocity=95, time=472),
    Message('note_off', channel=0, note=59, velocity=95, time=0),
    Message('note_off', channel=0, note=52, velocity=95, time=0),
    Message('note_on', channel=0, note=52, velocity=95, time=0),
    Message('note_on', channel=0, note=59, velocity=95, time=2),
    Message('note_on', channel=0, note=64, velocity=95, time=2),
    Message('note_off', channel=0, note=64, velocity=95, time=236),
    Message('note_off', channel=0, note=59, velocity=95, time=0),
    Message('note_off', channel=0, note=52, velocity=95, time=0),
    Message('note_on', channel=0, note=64, velocity=95, time=0),
    Message('note_on', channel=0, note=59, velocity=95, time=2),
    Message('note_on', channel=0, note=52, velocity=95, time=2),
    Message('note_off', channel=0, note=64, velocity=95, time=236),
    Message('note_off', channel=0, note=59, velocity=95, time=0),
    Message('note_off', channel=0, note=52, velocity=95, time=0),
    Message('note_on', channel=0, note=52, velocity=95, time=0),
    Message('note_on', channel=0, note=59, velocity=95, time=2),
    Message('note_on', channel=0, note=64, velocity=95, time=2),
    Message('note_off', channel=0, note=64, velocity=95, time=236),
    Message('note_off', channel=0, note=59, velocity=95, time=0),
    Message('note_off', channel=0, note=52, velocity=95, time=0),
    Message('note_on', channel=0, note=64, velocity=95, time=0),
    Message('note_on', channel=0, note=59, velocity=95, time=2),
    Message('note_on', channel=0, note=52, velocity=95, time=2),
    Message('note_off', channel=0, note=64, velocity=95, time=236),
    Message('note_off', channel=0, note=59, velocity=95, time=0),
    Message('note_off', channel=0, note=52, velocity=95, time=0),
    Message('note_on', channel=0, note=52, velocity=95, time=0),
    Message('note_on', channel=0, note=59, velocity=95, time=2),
    Message('note_on', channel=0, note=64, velocity=95, time=2),
    Message('note_off', channel=0, note=64, velocity=95, time=236),
    Message('note_off', channel=0, note=59, velocity=95, time=0),
    Message('note_off', channel=0, note=52, velocity=95, time=0),
    Message('note_on', channel=0, note=55, velocity=95, time=0),
    Message('note_on', channel=0, note=50, velocity=95, time=2),
    Message('note_on', channel=0, note=45, velocity=95, time=2),
    Message('note_off', channel=0, note=55, velocity=95, time=34),
    Message('note_off', channel=0, note=50, velocity=95, time=0),
    Message('note_off', channel=0, note=45, velocity=95, time=0),
    Message('note_on', channel=0, note=55, velocity=95, time=202),
    Message('note_on', channel=0, note=62, velocity=95, time=4),
    Message('note_on', channel=0, note=67, velocity=95, time=4),
    Message('note_off', channel=0, note=67, velocity=95, time=472),
    Message('note_off', channel=0, note=62, velocity=95, time=0),
    Message('note_off', channel=0, note=55, velocity=95, time=0),
    Message('note_on', channel=0, note=55, velocity=95, time=0),
    Message('note_on', channel=0, note=62, velocity=95, time=2),
    Message('note_on', channel=0, note=67, velocity=95, time=2),
    Message('note_off', channel=0, note=67, velocity=95, time=236),
    Message('note_off', channel=0, note=62, velocity=95, time=0),
    Message('note_off', channel=0, note=55, velocity=95, time=0),
    Message('note_on', channel=0, note=67, velocity=95, time=0),
    Message('note_on', channel=0, note=62, velocity=95, time=2),
    Message('note_on', channel=0, note=55, velocity=95, time=2),
    Message('note_off', channel=0, note=67, velocity=95, time=236),
    Message('note_off', channel=0, note=62, velocity=95, time=0),
    Message('note_off', channel=0, note=55, velocity=95, time=0),
    Message('note_on', channel=0, note=55, velocity=95, time=0),
    Message('note_on', channel=0, note=62, velocity=95, time=2),
    Message('note_on', channel=0, note=67, velocity=95, time=2),
    Message('note_off', channel=0, note=67, velocity=95, time=236),
    Message('note_off', channel=0, note=62, velocity=95, time=0),
    Message('note_off', channel=0, note=55, velocity=95, time=0),
    Message('note_on', channel=0, note=67, velocity=95, time=0),
    Message('note_on', channel=0, note=62, velocity=95, time=2),
    Message('note_on', channel=0, note=55, velocity=95, time=2),
    Message('note_off', channel=0, note=67, velocity=95, time=236),
    Message('note_off', channel=0, note=62, velocity=95, time=0),
    Message('note_off', channel=0, note=55, velocity=95, time=0),
    Message('note_on', channel=0, note=55, velocity=95, time=0),
    Message('note_on', channel=0, note=62, velocity=95, time=2),
    Message('note_on', channel=0, note=67, velocity=95, time=2),
    Message('note_off', channel=0, note=67, velocity=95, time=236),
    Message('note_off', channel=0, note=62, velocity=95, time=0),
    Message('note_off', channel=0, note=55, velocity=95, time=0),
    Message('note_on', channel=0, note=55, velocity=95, time=0),
    Message('note_on', channel=0, note=50, velocity=95, time=2),
    Message('note_on', channel=0, note=45, velocity=95, time=2),
    Message('note_off', channel=0, note=55, velocity=95, time=34),
    Message('note_off', channel=0, note=50, velocity=95, time=0),
    Message('note_off', channel=0, note=45, velocity=95, time=0),
    Message('note_on', channel=0, note=45, velocity=95, time=202),
    Message('note_on', channel=0, note=57, velocity=95, time=6),
    Message('note_on', channel=0, note=62, velocity=95, time=6),
    Message('note_on', channel=1, note=66, velocity=95, time=6),
    Message('pitchwheel', channel=1, pitch=0, time=160),
    Message('pitchwheel', channel=1, pitch=128, time=160),
    Message('pitchwheel', channel=1, pitch=0, time=160),
    Message('pitchwheel', channel=1, pitch=128, time=160),
    Message('pitchwheel', channel=1, pitch=0, time=62),
    Message('pitchwheel', channel=1, pitch=128, time=0),
    Message('pitchwheel', channel=1, pitch=0, time=0),
    Message('note_off', channel=1, note=66, velocity=95, time=0),
    Message('note_off', channel=0, note=62, velocity=95, time=0),
    Message('note_off', channel=0, note=57, velocity=95, time=0),
    Message('note_off', channel=0, note=45, velocity=95, time=0),
    Message('note_on', channel=0, note=67, velocity=95, time=0),
    Message('note_off', channel=0, note=67, velocity=95, time=240),
    Message('note_on', channel=0, note=66, velocity=95, time=0),
    Message('note_off', channel=0, note=66, velocity=95, time=240),
    Message('note_on', channel=0, note=69, velocity=95, time=0),
    Message('note_off', channel=0, note=69, velocity=95, time=240),
    Message('note_on', channel=0, note=67, velocity=95, time=0),
    Message('note_off', channel=0, note=67, velocity=95, time=240),
    Message('note_on', channel=0, note=66, velocity=95, time=0),
    Message('note_off', channel=0, note=66, velocity=95, time=240),
    Message('note_on', channel=1, note=64, velocity=95, time=0),
    Message('pitchwheel', channel=1, pitch=0, time=160),
    Message('pitchwheel', channel=1, pitch=128, time=160),
    Message('pitchwheel', channel=1, pitch=0, time=160),
    Message('pitchwheel', channel=1, pitch=128, time=160),
    Message('pitchwheel', channel=1, pitch=0, time=80),
    Message('pitchwheel', channel=1, pitch=128, time=0),
    Message('pitchwheel', channel=1, pitch=0, time=0),
    Message('note_off', channel=1, note=64, velocity=95, time=0),
    Message('pitchwheel', channel=1, pitch=0, time=0),
    Message('note_on', channel=1, note=59, velocity=95, time=0),
    Message('pitchwheel', channel=1, pitch=128, time=8),
    Message('pitchwheel', channel=1, pitch=256, time=8),
    Message('pitchwheel', channel=1, pitch=384, time=8),
    Message('pitchwheel', channel=1, pitch=512, time=8),
    Message('pitchwheel', channel=1, pitch=640, time=8),
    Message('pitchwheel', channel=1, pitch=640, time=0),
    Message('pitchwheel', channel=1, pitch=640, time=200),
    Message('pitchwheel', channel=1, pitch=512, time=24),
    Message('pitchwheel', channel=1, pitch=384, time=24),
    Message('pitchwheel', channel=1, pitch=256, time=24),
    Message('pitchwheel', channel=1, pitch=128, time=24),
    Message('pitchwheel', channel=1, pitch=0, time=24),
    Message('pitchwheel', channel=1, pitch=0, time=0),
    Message('pitchwheel', channel=1, pitch=0, time=120),
    Message('pitchwheel', channel=1, pitch=0, time=0),
    Message('note_off', channel=1, note=59, velocity=95, time=0),
    Message('note_on', channel=0, note=57, velocity=95, time=0),
    Message('note_off', channel=0, note=57, velocity=95, time=240),
    Message('note_on', channel=0, note=57, velocity=95, time=0),
    Message('note_off', channel=0, note=57, velocity=95, time=240),
    Message('note_on', channel=0, note=59, velocity=95, time=0),
    Message('note_off', channel=0, note=59, velocity=95, time=240),
    Message('note_on', channel=0, note=52, velocity=95, time=0),
    Message('note_on', channel=0, note=59, velocity=95, time=4),
    Message('note_on', channel=0, note=64, velocity=95, time=4),
    Message('note_off', channel=0, note=64, velocity=95, time=472),
    Message('note_off', channel=0, note=59, velocity=95, time=0),
    Message('note_off', channel=0, note=52, velocity=95, time=0),
    Message('note_on', channel=0, note=52, velocity=95, time=0),
    Message('note_on', channel=0, note=59, velocity=95, time=2),
    Message('note_on', channel=0, note=64, velocity=95, time=2),
    Message('note_off', channel=0, note=64, velocity=95, time=236),
    Message('note_off', channel=0, note=59, velocity=95, time=0),
    Message('note_off', channel=0, note=52, velocity=95, time=0),
    Message('note_on', channel=0, note=64, velocity=95, time=0),
    Message('note_on', channel=0, note=59, velocity=95, time=2),
    Message('note_on', channel=0, note=52, velocity=95, time=2),
    Message('note_off', channel=0, note=64, velocity=95, time=236),
    Message('note_off', channel=0, note=59, velocity=95, time=0),
    Message('note_off', channel=0, note=52, velocity=95, time=0),
    Message('note_on', channel=0, note=52, velocity=95, time=0),
    Message('note_on', channel=0, note=59, velocity=95, time=2),
    Message('note_on', channel=0, note=64, velocity=95, time=2),
    Message('note_off', channel=0, note=64, velocity=95, time=236),
    Message('note_off', channel=0, note=59, velocity=95, time=0),
    Message('note_off', channel=0, note=52, velocity=95, time=0),
    Message('note_on', channel=0, note=64, velocity=95, time=0),
    Message('note_on', channel=0, note=59, velocity=95, time=2),
    Message('note_on', channel=0, note=52, velocity=95, time=2),
    Message('note_off', channel=0, note=64, velocity=95, time=236),
    Message('note_off', channel=0, note=59, velocity=95, time=0),
    Message('note_off', channel=0, note=52, velocity=95, time=0),
    Message('note_on', channel=0, note=52, velocity=95, time=0),
    Message('note_on', channel=0, note=59, velocity=95, time=2),
    Message('note_on', channel=0, note=64, velocity=95, time=2),
    Message('note_off', channel=0, note=64, velocity=95, time=236),
    Message('note_off', channel=0, note=59, velocity=95, time=0),
    Message('note_off', channel=0, note=52, velocity=95, time=0),
    Message('note_on', channel=0, note=55, velocity=95, time=0),
    Message('note_on', channel=0, note=50, velocity=95, time=2),
    Message('note_on', channel=0, note=45, velocity=95, time=2),
    Message('note_off', channel=0, note=55, velocity=95, time=34),
    Message('note_off', channel=0, note=50, velocity=95, time=0),
    Message('note_off', channel=0, note=45, velocity=95, time=0),
    Message('note_on', channel=0, note=55, velocity=95, time=202),
    Message('note_on', channel=0, note=62, velocity=95, time=4),
    Message('note_on', channel=0, note=67, velocity=95, time=4),
    Message('note_off', channel=0, note=67, velocity=95, time=472),
    Message('note_off', channel=0, note=62, velocity=95, time=0),
    Message('note_off', channel=0, note=55, velocity=95, time=0),
    Message('note_on', channel=0, note=55, velocity=95, time=0),
    Message('note_on', channel=0, note=62, velocity=95, time=2),
    Message('note_on', channel=0, note=67, velocity=95, time=2),
    Message('note_off', channel=0, note=67, velocity=95, time=236),
    Message('note_off', channel=0, note=62, velocity=95, time=0),
    Message('note_off', channel=0, note=55, velocity=95, time=0),
    Message('note_on', channel=0, note=67, velocity=95, time=0),
    Message('note_on', channel=0, note=62, velocity=95, time=2),
    Message('note_on', channel=0, note=55, velocity=95, time=2),
    Message('note_off', channel=0, note=67, velocity=95, time=236),
    Message('note_off', channel=0, note=62, velocity=95, time=0),
    Message('note_off', channel=0, note=55, velocity=95, time=0),
    Message('note_on', channel=0, note=55, velocity=95, time=0),
    Message('note_on', channel=0, note=62, velocity=95, time=2),
    Message('note_on', channel=0, note=67, velocity=95, time=2),
    Message('note_off', channel=0, note=67, velocity=95, time=236),
    Message('note_off', channel=0, note=62, velocity=95, time=0),
    Message('note_off', channel=0, note=55, velocity=95, time=0),
    Message('note_on', channel=0, note=67, velocity=95, time=0),
    Message('note_on', channel=0, note=62, velocity=95, time=2),
    Message('note_on', channel=0, note=55, velocity=95, time=2),
    Message('note_off', channel=0, note=67, velocity=95, time=236),
    Message('note_off', channel=0, note=62, velocity=95, time=0),
    Message('note_off', channel=0, note=55, velocity=95, time=0),
    Message('note_on', channel=0, note=55, velocity=95, time=0),
    Message('note_on', channel=0, note=62, velocity=95, time=2),
    Message('note_on', channel=0, note=67, velocity=95, time=2),
    Message('note_off', channel=0, note=67, velocity=95, time=236),
    Message('note_off', channel=0, note=62, velocity=95, time=0),
    Message('note_off', channel=0, note=55, velocity=95, time=0),
    Message('note_on', channel=0, note=55, velocity=95, time=0),
    Message('note_on', channel=0, note=50, velocity=95, time=2),
    Message('note_on', channel=0, note=45, velocity=95, time=2),
    Message('note_off', channel=0, note=55, velocity=95, time=34),
    Message('note_off', channel=0, note=50, velocity=95, time=0),
    Message('note_off', channel=0, note=45, velocity=95, time=0),
    Message('note_on', channel=0, note=45, velocity=95, time=202),
    Message('note_on', channel=0, note=57, velocity=95, time=6),
    Message('note_on', channel=0, note=62, velocity=95, time=6),
    Message('note_on', channel=1, note=66, velocity=95, time=6),
    Message('pitchwheel', channel=1, pitch=0, time=160),
    Message('pitchwheel', channel=1, pitch=128, time=160),
    Message('pitchwheel', channel=1, pitch=0, time=160),
    Message('pitchwheel', channel=1, pitch=128, time=160),
    Message('pitchwheel', channel=1, pitch=0, time=62),
    Message('pitchwheel', channel=1, pitch=128, time=0),
    Message('pitchwheel', channel=1, pitch=0, time=0),
    Message('note_off', channel=1, note=66, velocity=95, time=0),
    Message('note_off', channel=0, note=62, velocity=95, time=0),
    Message('note_off', channel=0, note=57, velocity=95, time=0),
    Message('note_off', channel=0, note=45, velocity=95, time=0),
    Message('note_on', channel=0, note=67, velocity=95, time=0),
    Message('note_off', channel=0, note=67, velocity=95, time=240),
    Message('note_on', channel=0, note=66, velocity=95, time=0),
    Message('note_off', channel=0, note=66, velocity=95, time=240),
    Message('note_on', channel=0, note=69, velocity=95, time=0),
    Message('note_off', channel=0, note=69, velocity=95, time=240),
    Message('note_on', channel=0, note=67, velocity=95, time=0),
    Message('note_off', channel=0, note=67, velocity=95, time=240),
    Message('note_on', channel=0, note=66, velocity=95, time=0),
    Message('note_off', channel=0, note=66, velocity=95, time=240),
    Message('note_on', channel=1, note=64, velocity=95, time=0),
    Message('pitchwheel', channel=1, pitch=0, time=160),
    Message('pitchwheel', channel=1, pitch=128, time=160),
    Message('pitchwheel', channel=1, pitch=0, time=160),
    Message('pitchwheel', channel=1, pitch=128, time=160),
    Message('pitchwheel', channel=1, pitch=0, time=80),
    Message('pitchwheel', channel=1, pitch=128, time=0),
    Message('pitchwheel', channel=1, pitch=0, time=0),
    Message('note_off', channel=1, note=64, velocity=95, time=0),
    Message('pitchwheel', channel=1, pitch=0, time=0),
    Message('note_on', channel=1, note=59, velocity=95, time=0),
    Message('pitchwheel', channel=1, pitch=128, time=8),
    Message('pitchwheel', channel=1, pitch=256, time=8),
    Message('pitchwheel', channel=1, pitch=384, time=8),
    Message('pitchwheel', channel=1, pitch=512, time=8),
    Message('pitchwheel', channel=1, pitch=640, time=8),
    Message('pitchwheel', channel=1, pitch=640, time=0),
    Message('pitchwheel', channel=1, pitch=640, time=200),
    Message('pitchwheel', channel=1, pitch=512, time=24),
    Message('pitchwheel', channel=1, pitch=384, time=24),
    Message('pitchwheel', channel=1, pitch=256, time=24),
    Message('pitchwheel', channel=1, pitch=128, time=24),
    Message('pitchwheel', channel=1, pitch=0, time=24),
    Message('pitchwheel', channel=1, pitch=0, time=0),
    Message('pitchwheel', channel=1, pitch=0, time=120),
    Message('pitchwheel', channel=1, pitch=0, time=0),
    Message('note_off', channel=1, note=59, velocity=95, time=0),
    Message('note_on', channel=0, note=57, velocity=95, time=0),
    Message('note_off', channel=0, note=57, velocity=95, time=240),
    Message('note_on', channel=0, note=57, velocity=95, time=0),
    Message('note_off', channel=0, note=57, velocity=95, time=240),
    Message('note_on', channel=0, note=59, velocity=95, time=0),
    Message('note_off', channel=0, note=59, velocity=95, time=240),
    Message('note_on', channel=0, note=52, velocity=95, time=0),
    Message('note_on', channel=0, note=59, velocity=95, time=4),
    Message('note_on', channel=0, note=64, velocity=95, time=4),
    Message('note_off', channel=0, note=64, velocity=95, time=472),
    Message('note_off', channel=0, note=59, velocity=95, time=0),
    Message('note_off', channel=0, note=52, velocity=95, time=0),
    Message('note_on', channel=0, note=52, velocity=95, time=0),
    Message('note_on', channel=0, note=59, velocity=95, time=2),
    Message('note_on', channel=0, note=64, velocity=95, time=2),
    Message('note_off', channel=0, note=64, velocity=95, time=236),
    Message('note_off', channel=0, note=59, velocity=95, time=0),
    Message('note_off', channel=0, note=52, velocity=95, time=0),
    Message('note_on', channel=0, note=64, velocity=95, time=0),
    Message('note_on', channel=0, note=59, velocity=95, time=2),
    Message('note_on', channel=0, note=52, velocity=95, time=2),
    Message('note_off', channel=0, note=64, velocity=95, time=236),
    Message('note_off', channel=0, note=59, velocity=95, time=0),
    Message('note_off', channel=0, note=52, velocity=95, time=0),
    Message('note_on', channel=0, note=52, velocity=95, time=0),
    Message('note_on', channel=0, note=59, velocity=95, time=2),
    Message('note_on', channel=0, note=64, velocity=95, time=2),
    Message('note_off', channel=0, note=64, velocity=95, time=236),
    Message('note_off', channel=0, note=59, velocity=95, time=0),
    Message('note_off', channel=0, note=52, velocity=95, time=0),
    Message('note_on', channel=0, note=64, velocity=95, time=0),
    Message('note_on', channel=0, note=59, velocity=95, time=2),
    Message('note_on', channel=0, note=52, velocity=95, time=2),
    Message('note_off', channel=0, note=64, velocity=95, time=236),
    Message('note_off', channel=0, note=59, velocity=95, time=0),
    Message('note_off', channel=0, note=52, velocity=95, time=0),
    Message('note_on', channel=0, note=52, velocity=95, time=0),
    Message('note_on', channel=0, note=59, velocity=95, time=2),
    Message('note_on', channel=0, note=64, velocity=95, time=2),
    Message('note_off', channel=0, note=64, velocity=95, time=236),
    Message('note_off', channel=0, note=59, velocity=95, time=0),
    Message('note_off', channel=0, note=52, velocity=95, time=0),
    Message('note_on', channel=0, note=55, velocity=95, time=0),
    Message('note_on', channel=0, note=50, velocity=95, time=2),
    Message('note_on', channel=0, note=45, velocity=95, time=2),
    Message('note_off', channel=0, note=55, velocity=95, time=34),
    Message('note_off', channel=0, note=50, velocity=95, time=0),
    Message('note_off', channel=0, note=45, velocity=95, time=0),
    Message('note_on', channel=0, note=55, velocity=95, time=202),
    Message('note_on', channel=0, note=62, velocity=95, time=4),
    Message('note_on', channel=0, note=67, velocity=95, time=4),
    Message('note_off', channel=0, note=67, velocity=95, time=472),
    Message('note_off', channel=0, note=62, velocity=95, time=0),
    Message('note_off', channel=0, note=55, velocity=95, time=0),
    Message('note_on', channel=0, note=55, velocity=95, time=0),
    Message('note_on', channel=0, note=62, velocity=95, time=2),
    Message('note_on', channel=0, note=67, velocity=95, time=2),
    Message('note_off', channel=0, note=67, velocity=95, time=236),
    Message('note_off', channel=0, note=62, velocity=95, time=0),
    Message('note_off', channel=0, note=55, velocity=95, time=0),
    Message('note_on', channel=0, note=67, velocity=95, time=0),
    Message('note_on', channel=0, note=62, velocity=95, time=2),
    Message('note_on', channel=0, note=55, velocity=95, time=2),
    Message('note_off', channel=0, note=67, velocity=95, time=236),
    Message('note_off', channel=0, note=62, velocity=95, time=0),
    Message('note_off', channel=0, note=55, velocity=95, time=0),
    Message('note_on', channel=0, note=55, velocity=95, time=0),
    Message('note_on', channel=0, note=62, velocity=95, time=2),
    Message('note_on', channel=0, note=67, velocity=95, time=2),
    Message('note_off', channel=0, note=67, velocity=95, time=236),
    Message('note_off', channel=0, note=62, velocity=95, time=0),
    Message('note_off', channel=0, note=55, velocity=95, time=0),
    Message('note_on', channel=0, note=67, velocity=95, time=0),
    Message('note_on', channel=0, note=62, velocity=95, time=2),
    Message('note_on', channel=0, note=55, velocity=95, time=2),
    Message('note_off', channel=0, note=67, velocity=95, time=236),
    Message('note_off', channel=0, note=62, velocity=95, time=0),
    Message('note_off', channel=0, note=55, velocity=95, time=0),
    Message('note_on', channel=0, note=55, velocity=95, time=0),
    Message('note_on', channel=0, note=62, velocity=95, time=2),
    Message('note_on', channel=0, note=67, velocity=95, time=2),
    Message('note_off', channel=0, note=67, velocity=95, time=236),
    Message('note_off', channel=0, note=62, velocity=95, time=0),
    Message('note_off', channel=0, note=55, velocity=95, time=0),
    Message('note_on', channel=0, note=55, velocity=95, time=0),
    Message('note_on', channel=0, note=50, velocity=95, time=2),
    Message('note_on', channel=0, note=45, velocity=95, time=2),
    Message('note_off', channel=0, note=55, velocity=95, time=34),
    Message('note_off', channel=0, note=50, velocity=95, time=0),
    Message('note_off', channel=0, note=45, velocity=95, time=0),
    Message('note_on', channel=0, note=45, velocity=95, time=202),
    Message('note_on', channel=0, note=57, velocity=95, time=6),
    Message('note_on', channel=0, note=62, velocity=95, time=6),
    Message('note_on', channel=1, note=66, velocity=95, time=6),
    Message('pitchwheel', channel=1, pitch=0, time=160),
    Message('pitchwheel', channel=1, pitch=128, time=160),
    Message('pitchwheel', channel=1, pitch=0, time=160),
    Message('pitchwheel', channel=1, pitch=128, time=160),
    Message('pitchwheel', channel=1, pitch=0, time=62),
    Message('pitchwheel', channel=1, pitch=128, time=0),
    Message('pitchwheel', channel=1, pitch=0, time=0),
    Message('note_off', channel=1, note=66, velocity=95, time=0),
    Message('note_off', channel=0, note=62, velocity=95, time=0),
    Message('note_off', channel=0, note=57, velocity=95, time=0),
    Message('note_off', channel=0, note=45, velocity=95, time=0),
    Message('note_on', channel=0, note=67, velocity=95, time=0),
    Message('note_off', channel=0, note=67, velocity=95, time=240),
    Message('note_on', channel=0, note=66, velocity=95, time=0),
    Message('note_off', channel=0, note=66, velocity=95, time=240),
    Message('note_on', channel=0, note=69, velocity=95, time=0),
    Message('note_off', channel=0, note=69, velocity=95, time=240),
    Message('note_on', channel=0, note=67, velocity=95, time=0),
    Message('note_off', channel=0, note=67, velocity=95, time=240),
    Message('note_on', channel=0, note=66, velocity=95, time=0),
    Message('note_off', channel=0, note=66, velocity=95, time=240),
    Message('note_on', channel=1, note=64, velocity=95, time=0),
    Message('pitchwheel', channel=1, pitch=0, time=160),
    Message('pitchwheel', channel=1, pitch=128, time=160),
    Message('pitchwheel', channel=1, pitch=0, time=160),
    Message('pitchwheel', channel=1, pitch=128, time=160),
    Message('pitchwheel', channel=1, pitch=0, time=80),
    Message('pitchwheel', channel=1, pitch=128, time=0),
    Message('pitchwheel', channel=1, pitch=0, time=0),
    Message('note_off', channel=1, note=64, velocity=95, time=0),
    Message('pitchwheel', channel=1, pitch=0, time=0),
    Message('note_on', channel=1, note=59, velocity=95, time=0),
    Message('pitchwheel', channel=1, pitch=128, time=8),
    Message('pitchwheel', channel=1, pitch=256, time=8),
    Message('pitchwheel', channel=1, pitch=384, time=8),
    Message('pitchwheel', channel=1, pitch=512, time=8),
    Message('pitchwheel', channel=1, pitch=640, time=8),
    Message('pitchwheel', channel=1, pitch=640, time=0),
    Message('pitchwheel', channel=1, pitch=640, time=200),
    Message('pitchwheel', channel=1, pitch=512, time=24),
    Message('pitchwheel', channel=1, pitch=384, time=24),
    Message('pitchwheel', channel=1, pitch=256, time=24),
    Message('pitchwheel', channel=1, pitch=128, time=24),
    Message('pitchwheel', channel=1, pitch=0, time=24),
    Message('pitchwheel', channel=1, pitch=0, time=0),
    Message('pitchwheel', channel=1, pitch=0, time=120),
    Message('pitchwheel', channel=1, pitch=0, time=0),
    Message('note_off', channel=1, note=59, velocity=95, time=0),
    Message('note_on', channel=0, note=57, velocity=95, time=0),
    Message('note_off', channel=0, note=57, velocity=95, time=240),
    Message('note_on', channel=0, note=57, velocity=95, time=0),
    Message('note_off', channel=0, note=57, velocity=95, time=240),
    Message('note_on', channel=0, note=59, velocity=95, time=0),
    Message('note_off', channel=0, note=59, velocity=95, time=240),
    Message('note_on', channel=0, note=64, velocity=95, time=0),
    Message('note_on', channel=0, note=59, velocity=95, time=0),
    Message('note_on', channel=0, note=52, velocity=95, time=0),
    Message('note_off', channel=0, note=64, velocity=95, time=480),
    Message('note_off', channel=0, note=59, velocity=95, time=0),
    Message('note_off', channel=0, note=52, velocity=95, time=0),
    Message('note_on', channel=0, note=64, velocity=95, time=0),
    Message('note_on', channel=0, note=59, velocity=95, time=0),
    Message('note_on', channel=0, note=52, velocity=95, time=0),
    Message('note_off', channel=0, note=64, velocity=95, time=240),
    Message('note_off', channel=0, note=59, velocity=95, time=0),
    Message('note_off', channel=0, note=52, velocity=95, time=0),
    Message('note_on', channel=0, note=64, velocity=95, time=0),
    Message('note_on', channel=0, note=59, velocity=95, time=0),
    Message('note_on', channel=0, note=52, velocity=95, time=0),
    Message('note_off', channel=0, note=64, velocity=95, time=240),
    Message('note_off', channel=0, note=59, velocity=95, time=0),
    Message('note_off', channel=0, note=52, velocity=95, time=0),
    Message('note_on', channel=0, note=64, velocity=95, time=0),
    Message('note_on', channel=0, note=59, velocity=95, time=0),
    Message('note_on', channel=0, note=52, velocity=95, time=0),
    Message('note_off', channel=0, note=64, velocity=95, time=240),
    Message('note_off', channel=0, note=59, velocity=95, time=0),
    Message('note_off', channel=0, note=52, velocity=95, time=0),
    Message('note_on', channel=0, note=64, velocity=95, time=0),
    Message('note_on', channel=0, note=59, velocity=95, time=0),
    Message('note_on', channel=0, note=52, velocity=95, time=0),
    Message('note_off', channel=0, note=64, velocity=95, time=240),
    Message('note_off', channel=0, note=59, velocity=95, time=0),
    Message('note_off', channel=0, note=52, velocity=95, time=0),
    Message('note_on', channel=0, note=64, velocity=95, time=0),
    Message('note_on', channel=0, note=59, velocity=95, time=0),
    Message('note_on', channel=0, note=52, velocity=95, time=0),
    Message('note_off', channel=0, note=64, velocity=95, time=240),
    Message('note_off', channel=0, note=59, velocity=95, time=0),
    Message('note_off', channel=0, note=52, velocity=95, time=0),
    Message('note_on', channel=0, note=55, velocity=95, time=0),
    Message('note_on', channel=0, note=50, velocity=95, time=0),
    Message('note_on', channel=0, note=45, velocity=95, time=0),
    Message('note_off', channel=0, note=55, velocity=95, time=38),
    Message('note_off', channel=0, note=50, velocity=95, time=0),
    Message('note_off', channel=0, note=45, velocity=95, time=0),
    Message('note_on', channel=0, note=67, velocity=95, time=202),
    Message('note_on', channel=0, note=62, velocity=95, time=0),
    Message('note_on', channel=0, note=55, velocity=95, time=0),
    Message('note_off', channel=0, note=67, velocity=95, time=480),
    Message('note_off', channel=0, note=62, velocity=95, time=0),
    Message('note_off', channel=0, note=55, velocity=95, time=0),
    Message('note_on', channel=0, note=67, velocity=95, time=0),
    Message('note_on', channel=0, note=62, velocity=95, time=0),
    Message('note_on', channel=0, note=55, velocity=95, time=0),
    Message('note_off', channel=0, note=67, velocity=95, time=240),
    Message('note_off', channel=0, note=62, velocity=95, time=0),
    Message('note_off', channel=0, note=55, velocity=95, time=0),
    Message('note_on', channel=0, note=67, velocity=95, time=0),
    Message('note_on', channel=0, note=62, velocity=95, time=0),
    Message('note_on', channel=0, note=55, velocity=95, time=0),
    Message('note_off', channel=0, note=67, velocity=95, time=240),
    Message('note_off', channel=0, note=62, velocity=95, time=0),
    Message('note_off', channel=0, note=55, velocity=95, time=0),
    Message('note_on', channel=0, note=67, velocity=95, time=0),
    Message('note_on', channel=0, note=62, velocity=95, time=0),
    Message('note_on', channel=0, note=55, velocity=95, time=0),
    Message('note_off', channel=0, note=67, velocity=95, time=240),
    Message('note_off', channel=0, note=62, velocity=95, time=0),
    Message('note_off', channel=0, note=55, velocity=95, time=0),
    Message('note_on', channel=0, note=67, velocity=95, time=0),
    Message('note_on', channel=0, note=62, velocity=95, time=0),
    Message('note_on', channel=0, note=55, velocity=95, time=0),
    Message('note_off', channel=0, note=67, velocity=95, time=240),
    Message('note_off', channel=0, note=62, velocity=95, time=0),
    Message('note_off', channel=0, note=55, velocity=95, time=0),
    Message('note_on', channel=0, note=67, velocity=95, time=0),
    Message('note_on', channel=0, note=62, velocity=95, time=0),
    Message('note_on', channel=0, note=55, velocity=95, time=0),
    Message('note_off', channel=0, note=67, velocity=95, time=240),
    Message('note_off', channel=0, note=62, velocity=95, time=0),
    Message('note_off', channel=0, note=55, velocity=95, time=0),
    Message('note_on', channel=0, note=55, velocity=95, time=0),
    Message('note_on', channel=0, note=50, velocity=95, time=0),
    Message('note_on', channel=0, note=45, velocity=95, time=0),
    Message('note_off', channel=0, note=55, velocity=95, time=38),
    Message('note_off', channel=0, note=50, velocity=95, time=0),
    Message('note_off', channel=0, note=45, velocity=95, time=0),
    Message('note_on', channel=1, note=66, velocity=95, time=202),
    Message('note_on', channel=0, note=62, velocity=95, time=0),
    Message('note_on', channel=0, note=57, velocity=95, time=0),
    Message('note_on', channel=0, note=45, velocity=95, time=0),
    Message('pitchwheel', channel=1, pitch=0, time=160),
    Message('pitchwheel', channel=1, pitch=128, time=160),
    Message('pitchwheel', channel=1, pitch=0, time=160),
    Message('pitchwheel', channel=1, pitch=128, time=160),
    Message('pitchwheel', channel=1, pitch=0, time=80),
    Message('pitchwheel', channel=1, pitch=128, time=0),
    Message('pitchwheel', channel=1, pitch=0, time=0),
    Message('note_off', channel=1, note=66, velocity=95, time=0),
    Message('note_off', channel=0, note=62, velocity=95, time=0),
    Message('note_off', channel=0, note=57, velocity=95, time=0),
    Message('note_off', channel=0, note=45, velocity=95, time=0),
    Message('note_on', channel=0, note=67, velocity=95, time=0),
    Message('note_off', channel=0, note=67, velocity=95, time=240),
    Message('note_on', channel=0, note=66, velocity=95, time=0),
    Message('note_off', channel=0, note=66, velocity=95, time=240),
    Message('note_on', channel=0, note=69, velocity=95, time=0),
    Message('note_off', channel=0, note=69, velocity=95, time=240),
    Message('note_on', channel=0, note=67, velocity=95, time=0),
    Message('note_off', channel=0, note=67, velocity=95, time=240),
    Message('note_on', channel=0, note=66, velocity=95, time=0),
    Message('note_off', channel=0, note=66, velocity=95, time=240),
    Message('note_on', channel=1, note=64, velocity=95, time=0),
    Message('pitchwheel', channel=1, pitch=0, time=160),
    Message('pitchwheel', channel=1, pitch=128, time=160),
    Message('pitchwheel', channel=1, pitch=0, time=160),
    Message('pitchwheel', channel=1, pitch=128, time=160),
    Message('pitchwheel', channel=1, pitch=0, time=80),
    Message('pitchwheel', channel=1, pitch=128, time=0),
    Message('pitchwheel', channel=1, pitch=0, time=0),
    Message('note_off', channel=1, note=64, velocity=95, time=0),
    Message('pitchwheel', channel=1, pitch=0, time=0),
    Message('note_on', channel=1, note=59, velocity=95, time=0),
    Message('pitchwheel', channel=1, pitch=128, time=12),
    Message('pitchwheel', channel=1, pitch=256, time=12),
    Message('pitchwheel', channel=1, pitch=384, time=12),
    Message('pitchwheel', channel=1, pitch=512, time=12),
    Message('pitchwheel', channel=1, pitch=640, time=12),
    Message('pitchwheel', channel=1, pitch=640, time=0),
    Message('pitchwheel', channel=1, pitch=640, time=300),
    Message('pitchwheel', channel=1, pitch=512, time=36),
    Message('pitchwheel', channel=1, pitch=384, time=36),
    Message('pitchwheel', channel=1, pitch=256, time=36),
    Message('pitchwheel', channel=1, pitch=128, time=36),
    Message('pitchwheel', channel=1, pitch=0, time=36),
    Message('pitchwheel', channel=1, pitch=0, time=0),
    Message('pitchwheel', channel=1, pitch=0, time=180),
    Message('pitchwheel', channel=1, pitch=0, time=0),
    Message('note_off', channel=1, note=59, velocity=95, time=0),
    Message('note_on', channel=0, note=57, velocity=95, time=0),
    Message('note_off', channel=0, note=57, velocity=95, time=240),
    Message('note_on', channel=0, note=59, velocity=95, time=0),
    Message('note_off', channel=0, note=59, velocity=95, time=240),
    Message('note_on', channel=0, note=54, velocity=95, time=480),
    Message('note_on', channel=0, note=59, velocity=95, time=2),
    Message('note_on', channel=0, note=66, velocity=95, time=2),
    Message('note_on', channel=0, note=71, velocity=95, time=2),
    Message('note_off', channel=0, note=71, velocity=95, time=234),
    Message('note_off', channel=0, note=66, velocity=95, time=0),
    Message('note_off', channel=0, note=59, velocity=95, time=0),
    Message('note_off', channel=0, note=54, velocity=95, time=0),
    Message('note_on', channel=0, note=71, velocity=95, time=0),
    Message('note_on', channel=0, note=66, velocity=95, time=2),
    Message('note_on', channel=0, note=59, velocity=95, time=2),
    Message('note_on', channel=0, note=54, velocity=95, time=2),
    Message('note_off', channel=0, note=71, velocity=95, time=234),
    Message('note_off', channel=0, note=66, velocity=95, time=0),
    Message('note_off', channel=0, note=59, velocity=95, time=0),
    Message('note_off', channel=0, note=54, velocity=95, time=0),
    Message('note_on', channel=0, note=54, velocity=95, time=0),
    Message('note_on', channel=0, note=59, velocity=95, time=2),
    Message('note_on', channel=0, note=66, velocity=95, time=2),
    Message('note_on', channel=0, note=71, velocity=95, time=2),
    Message('note_off', channel=0, note=71, velocity=95, time=234),
    Message('note_off', channel=0, note=66, velocity=95, time=0),
    Message('note_off', channel=0, note=59, velocity=95, time=0),
    Message('note_off', channel=0, note=54, velocity=95, time=0),
    Message('note_on', channel=0, note=71, velocity=95, time=0),
    Message('note_on', channel=0, note=66, velocity=95, time=2),
    Message('note_on', channel=0, note=59, velocity=95, time=2),
    Message('note_on', channel=0, note=54, velocity=95, time=2),
    Message('note_off', channel=0, note=71, velocity=95, time=234),
    Message('note_off', channel=0, note=66, velocity=95, time=0),
    Message('note_off', channel=0, note=59, velocity=95, time=0),
    Message('note_off', channel=0, note=54, velocity=95, time=0),
    Message('note_on', channel=0, note=45, velocity=95, time=0),
    Message('note_on', channel=0, note=50, velocity=95, time=2),
    Message('note_on', channel=0, note=55, velocity=95, time=2),
    Message('note_on', channel=0, note=59, velocity=95, time=2),
    Message('note_off', channel=0, note=59, velocity=95, time=32),
    Message('note_off', channel=0, note=55, velocity=95, time=0),
    Message('note_off', channel=0, note=50, velocity=95, time=0),
    Message('note_off', channel=0, note=45, velocity=95, time=0),
    Message('note_on', channel=0, note=59, velocity=95, time=202),
    Message('note_on', channel=0, note=55, velocity=95, time=2),
    Message('note_on', channel=0, note=50, velocity=95, time=2),
    Message('note_on', channel=0, note=45, velocity=95, time=2),
    Message('note_off', channel=0, note=59, velocity=95, time=32),
    Message('note_off', channel=0, note=55, velocity=95, time=0),
    Message('note_off', channel=0, note=50, velocity=95, time=0),
    Message('note_off', channel=0, note=45, velocity=95, time=0),
    Message('note_on', channel=0, note=51, velocity=95, time=202),
    Message('note_on', channel=0, note=54, velocity=95, time=2),
    Message('note_on', channel=0, note=59, velocity=95, time=2),
    Message('note_on', channel=0, note=66, velocity=95, time=2),
    Message('note_on', channel=0, note=71, velocity=95, time=2),
    Message('note_off', channel=0, note=71, velocity=95, time=232),
    Message('note_off', channel=0, note=66, velocity=95, time=0),
    Message('note_off', channel=0, note=59, velocity=95, time=0),
    Message('note_off', channel=0, note=54, velocity=95, time=0),
    Message('note_off', channel=0, note=51, velocity=95, time=0),
    Message('note_on', channel=0, note=71, velocity=95, time=0),
    Message('note_on', channel=0, note=66, velocity=95, time=2),
    Message('note_on', channel=0, note=59, velocity=95, time=2),
    Message('note_on', channel=0, note=54, velocity=95, time=2),
    Message('note_on', channel=0, note=51, velocity=95, time=2),
    Message('note_off', channel=0, note=71, velocity=95, time=232),
    Message('note_off', channel=0, note=66, velocity=95, time=0),
    Message('note_off', channel=0, note=59, velocity=95, time=0),
    Message('note_off', channel=0, note=54, velocity=95, time=0),
    Message('note_off', channel=0, note=51, velocity=95, time=0),
    Message('note_on', channel=0, note=51, velocity=95, time=0),
    Message('note_on', channel=0, note=54, velocity=95, time=2),
    Message('note_on', channel=0, note=59, velocity=95, time=2),
    Message('note_on', channel=0, note=66, velocity=95, time=2),
    Message('note_on', channel=0, note=71, velocity=95, time=2),
    Message('note_off', channel=0, note=71, velocity=95, time=232),
    Message('note_off', channel=0, note=66, velocity=95, time=0),
    Message('note_off', channel=0, note=59, velocity=95, time=0),
    Message('note_off', channel=0, note=54, velocity=95, time=0),
    Message('note_off', channel=0, note=51, velocity=95, time=0),
    Message('note_on', channel=0, note=71, velocity=95, time=0),
    Message('note_on', channel=0, note=66, velocity=95, time=2),
    Message('note_on', channel=0, note=59, velocity=95, time=2),
    Message('note_on', channel=0, note=54, velocity=95, time=2),
    Message('note_on', channel=0, note=51, velocity=95, time=2),
    Message('note_off', channel=0, note=71, velocity=95, time=232),
    Message('note_off', channel=0, note=66, velocity=95, time=0),
    Message('note_off', channel=0, note=59, velocity=95, time=0),
    Message('note_off', channel=0, note=54, velocity=95, time=0),
    Message('note_off', channel=0, note=51, velocity=95, time=0),
    Message('note_on', channel=0, note=71, velocity=95, time=240),
    Message('note_on', channel=0, note=66, velocity=95, time=2),
    Message('note_on', channel=0, note=59, velocity=95, time=2),
    Message('note_on', channel=0, note=54, velocity=95, time=2),
    Message('note_on', channel=0, note=51, velocity=95, time=2),
    Message('note_off', channel=0, note=71, velocity=95, time=232),
    Message('note_off', channel=0, note=66, velocity=95, time=0),
    Message('note_off', channel=0, note=59, velocity=95, time=0),
    Message('note_off', channel=0, note=54, velocity=95, time=0),
    Message('note_off', channel=0, note=51, velocity=95, time=0),
    Message('note_on', channel=0, note=51, velocity=95, time=0),
    Message('note_on', channel=0, note=54, velocity=95, time=4),
    Message('note_on', channel=0, note=59, velocity=95, time=4),
    Message('note_on', channel=0, note=66, velocity=95, time=4),
    Message('note_on', channel=0, note=71, velocity=95, time=4),
    Message('note_off', channel=0, note=71, velocity=95, time=464),
    Message('note_off', channel=0, note=66, velocity=95, time=0),
    Message('note_off', channel=0, note=59, velocity=95, time=0),
    Message('note_off', channel=0, note=54, velocity=95, time=0),
    Message('note_off', channel=0, note=51, velocity=95, time=0),
    Message('note_on', channel=0, note=54, velocity=95, time=0),
    Message('note_on', channel=0, note=61, velocity=95, time=6),
    Message('note_on', channel=0, note=66, velocity=95, time=6),
    Message('note_on', channel=0, note=70, velocity=95, time=6),
    Message('note_off', channel=0, note=70, velocity=95, time=702),
    Message('note_off', channel=0, note=66, velocity=95, time=0),
    Message('note_off', channel=0, note=61, velocity=95, time=0),
    Message('note_off', channel=0, note=54, velocity=95, time=0),
    Message('note_on', channel=0, note=70, velocity=95, time=0),
    Message('note_on', channel=0, note=66, velocity=95, time=2),
    Message('note_on', channel=0, note=61, velocity=95, time=2),
    Message('note_on', channel=0, note=54, velocity=95, time=2),
    Message('note_off', channel=0, note=70, velocity=95, time=234),
    Message('note_off', channel=0, note=66, velocity=95, time=0),
    Message('note_off', channel=0, note=61, velocity=95, time=0),
    Message('note_off', channel=0, note=54, velocity=95, time=0),
    Message('note_on', channel=0, note=54, velocity=95, time=0),
    Message('note_on', channel=0, note=61, velocity=95, time=8),
    Message('note_on', channel=0, note=66, velocity=95, time=8),
    Message('note_on', channel=0, note=70, velocity=95, time=8),
    Message('note_off', channel=0, note=70, velocity=95, time=1416),
    Message('note_off', channel=0, note=66, velocity=95, time=0),
    Message('note_off', channel=0, note=61, velocity=95, time=0),
    Message('note_off', channel=0, note=54, velocity=95, time=0),
    Message('note_on', channel=0, note=54, velocity=95, time=1440),
    Message('note_on', channel=0, note=59, velocity=95, time=2),
    Message('note_on', channel=0, note=66, velocity=95, time=2),
    Message('note_on', channel=0, note=71, velocity=95, time=2),
    Message('note_off', channel=0, note=71, velocity=95, time=234),
    Message('note_off', channel=0, note=66, velocity=95, time=0),
    Message('note_off', channel=0, note=59, velocity=95, time=0),
    Message('note_off', channel=0, note=54, velocity=95, time=0),
    Message('note_on', channel=0, note=71, velocity=95, time=0),
    Message('note_on', channel=0, note=66, velocity=95, time=2),
    Message('note_on', channel=0, note=59, velocity=95, time=2),
    Message('note_on', channel=0, note=54, velocity=95, time=2),
    Message('note_off', channel=0, note=71, velocity=95, time=234),
    Message('note_off', channel=0, note=66, velocity=95, time=0),
    Message('note_off', channel=0, note=59, velocity=95, time=0),
    Message('note_off', channel=0, note=54, velocity=95, time=0),
    Message('note_on', channel=0, note=54, velocity=95, time=0),
    Message('note_on', channel=0, note=59, velocity=95, time=2),
    Message('note_on', channel=0, note=66, velocity=95, time=2),
    Message('note_on', channel=0, note=71, velocity=95, time=2),
    Message('note_off', channel=0, note=71, velocity=95, time=234),
    Message('note_off', channel=0, note=66, velocity=95, time=0),
    Message('note_off', channel=0, note=59, velocity=95, time=0),
    Message('note_off', channel=0, note=54, velocity=95, time=0),
    Message('note_on', channel=0, note=71, velocity=95, time=0),
    Message('note_on', channel=0, note=66, velocity=95, time=2),
    Message('note_on', channel=0, note=59, velocity=95, time=2),
    Message('note_on', channel=0, note=54, velocity=95, time=2),
    Message('note_off', channel=0, note=71, velocity=95, time=234),
    Message('note_off', channel=0, note=66, velocity=95, time=0),
    Message('note_off', channel=0, note=59, velocity=95, time=0),
    Message('note_off', channel=0, note=54, velocity=95, time=0),
    Message('note_on', channel=0, note=45, velocity=95, time=0),
    Message('note_on', channel=0, note=50, velocity=95, time=2),
    Message('note_on', channel=0, note=55, velocity=95, time=2),
    Message('note_on', channel=0, note=59, velocity=95, time=2),
    Message('note_off', channel=0, note=59, velocity=95, time=32),
    Message('note_off', channel=0, note=55, velocity=95, time=0),
    Message('note_off', channel=0, note=50, velocity=95, time=0),
    Message('note_off', channel=0, note=45, velocity=95, time=0),
    Message('note_on', channel=0, note=59, velocity=95, time=202),
    Message('note_on', channel=0, note=55, velocity=95, time=2),
    Message('note_on', channel=0, note=50, velocity=95, time=2),
    Message('note_on', channel=0, note=45, velocity=95, time=2),
    Message('note_off', channel=0, note=59, velocity=95, time=32),
    Message('note_off', channel=0, note=55, velocity=95, time=0),
    Message('note_off', channel=0, note=50, velocity=95, time=0),
    Message('note_off', channel=0, note=45, velocity=95, time=0),
    Message('note_on', channel=0, note=51, velocity=95, time=202),
    Message('note_on', channel=0, note=54, velocity=95, time=2),
    Message('note_on', channel=0, note=59, velocity=95, time=2),
    Message('note_on', channel=0, note=66, velocity=95, time=2),
    Message('note_on', channel=0, note=71, velocity=95, time=2),
    Message('note_off', channel=0, note=71, velocity=95, time=232),
    Message('note_off', channel=0, note=66, velocity=95, time=0),
    Message('note_off', channel=0, note=59, velocity=95, time=0),
    Message('note_off', channel=0, note=54, velocity=95, time=0),
    Message('note_off', channel=0, note=51, velocity=95, time=0),
    Message('note_on', channel=0, note=71, velocity=95, time=0),
    Message('note_on', channel=0, note=66, velocity=95, time=2),
    Message('note_on', channel=0, note=59, velocity=95, time=2),
    Message('note_on', channel=0, note=54, velocity=95, time=2),
    Message('note_on', channel=0, note=51, velocity=95, time=2),
    Message('note_off', channel=0, note=71, velocity=95, time=232),
    Message('note_off', channel=0, note=66, velocity=95, time=0),
    Message('note_off', channel=0, note=59, velocity=95, time=0),
    Message('note_off', channel=0, note=54, velocity=95, time=0),
    Message('note_off', channel=0, note=51, velocity=95, time=0),
    Message('note_on', channel=0, note=51, velocity=95, time=0),
    Message('note_on', channel=0, note=54, velocity=95, time=2),
    Message('note_on', channel=0, note=59, velocity=95, time=2),
    Message('note_on', channel=0, note=66, velocity=95, time=2),
    Message('note_on', channel=0, note=71, velocity=95, time=2),
    Message('note_off', channel=0, note=71, velocity=95, time=232),
    Message('note_off', channel=0, note=66, velocity=95, time=0),
    Message('note_off', channel=0, note=59, velocity=95, time=0),
    Message('note_off', channel=0, note=54, velocity=95, time=0),
    Message('note_off', channel=0, note=51, velocity=95, time=0),
    Message('note_on', channel=0, note=71, velocity=95, time=0),
    Message('note_on', channel=0, note=66, velocity=95, time=2),
    Message('note_on', channel=0, note=59, velocity=95, time=2),
    Message('note_on', channel=0, note=54, velocity=95, time=2),
    Message('note_on', channel=0, note=51, velocity=95, time=2),
    Message('note_off', channel=0, note=71, velocity=95, time=232),
    Message('note_off', channel=0, note=66, velocity=95, time=0),
    Message('note_off', channel=0, note=59, velocity=95, time=0),
    Message('note_off', channel=0, note=54, velocity=95, time=0),
    Message('note_off', channel=0, note=51, velocity=95, time=0),
    Message('note_on', channel=0, note=71, velocity=95, time=240),
    Message('note_on', channel=0, note=66, velocity=95, time=2),
    Message('note_on', channel=0, note=59, velocity=95, time=2),
    Message('note_on', channel=0, note=54, velocity=95, time=2),
    Message('note_on', channel=0, note=51, velocity=95, time=2),
    Message('note_off', channel=0, note=71, velocity=95, time=232),
    Message('note_off', channel=0, note=66, velocity=95, time=0),
    Message('note_off', channel=0, note=59, velocity=95, time=0),
    Message('note_off', channel=0, note=54, velocity=95, time=0),
    Message('note_off', channel=0, note=51, velocity=95, time=0),
    Message('note_on', channel=0, note=51, velocity=95, time=0),
    Message('note_on', channel=0, note=54, velocity=95, time=4),
    Message('note_on', channel=0, note=59, velocity=95, time=4),
    Message('note_on', channel=0, note=66, velocity=95, time=4),
    Message('note_on', channel=0, note=71, velocity=95, time=4),
    Message('note_off', channel=0, note=71, velocity=95, time=464),
    Message('note_off', channel=0, note=66, velocity=95, time=0),
    Message('note_off', channel=0, note=59, velocity=95, time=0),
    Message('note_off', channel=0, note=54, velocity=95, time=0),
    Message('note_off', channel=0, note=51, velocity=95, time=0),
    Message('note_on', channel=0, note=54, velocity=95, time=0),
    Message('note_on', channel=0, note=61, velocity=95, time=6),
    Message('note_on', channel=0, note=66, velocity=95, time=6),
    Message('note_on', channel=0, note=70, velocity=95, time=6),
    Message('note_off', channel=0, note=70, velocity=95, time=702),
    Message('note_off', channel=0, note=66, velocity=95, time=0),
    Message('note_off', channel=0, note=61, velocity=95, time=0),
    Message('note_off', channel=0, note=54, velocity=95, time=0),
    Message('note_on', channel=0, note=70, velocity=95, time=0),
    Message('note_on', channel=0, note=66, velocity=95, time=2),
    Message('note_on', channel=0, note=61, velocity=95, time=2),
    Message('note_on', channel=0, note=54, velocity=95, time=2),
    Message('note_off', channel=0, note=70, velocity=95, time=234),
    Message('note_off', channel=0, note=66, velocity=95, time=0),
    Message('note_off', channel=0, note=61, velocity=95, time=0),
    Message('note_off', channel=0, note=54, velocity=95, time=0),
    Message('note_on', channel=0, note=54, velocity=95, time=0),
    Message('note_on', channel=0, note=61, velocity=95, time=4),
    Message('note_on', channel=0, note=66, velocity=95, time=4),
    Message('note_on', channel=0, note=70, velocity=95, time=4),
    Message('note_off', channel=0, note=70, velocity=95, time=468),
    Message('note_off', channel=0, note=66, velocity=95, time=0),
    Message('note_off', channel=0, note=61, velocity=95, time=0),
    Message('note_off', channel=0, note=54, velocity=95, time=0),
    Message('note_on', channel=0, note=54, velocity=95, time=720),
    Message('note_on', channel=0, note=61, velocity=95, time=4),
    Message('note_on', channel=0, note=66, velocity=95, time=4),
    Message('note_on', channel=0, note=70, velocity=95, time=4),
    Message('note_off', channel=0, note=70, velocity=95, time=468),
    Message('note_off', channel=0, note=66, velocity=95, time=0),
    Message('note_off', channel=0, note=61, velocity=95, time=0),
    Message('note_off', channel=0, note=54, velocity=95, time=0),
    Message('note_on', channel=0, note=68, velocity=95, time=0),
    Message('note_on', channel=0, note=66, velocity=95, time=2),
    Message('note_on', channel=0, note=61, velocity=95, time=2),
    Message('note_on', channel=0, note=54, velocity=95, time=2),
    Message('note_off', channel=0, note=68, velocity=95, time=234),
    Message('note_off', channel=0, note=66, velocity=95, time=0),
    Message('note_off', channel=0, note=61, velocity=95, time=0),
    Message('note_off', channel=0, note=54, velocity=95, time=0),
    Message('note_on', channel=0, note=54, velocity=95, time=0),
    Message('note_on', channel=0, note=61, velocity=95, time=4),
    Message('note_on', channel=0, note=66, velocity=95, time=4),
    Message('note_on', channel=0, note=70, velocity=95, time=4),
    Message('note_off', channel=0, note=70, velocity=95, time=468),
    Message('note_off', channel=0, note=66, velocity=95, time=0),
    Message('note_off', channel=0, note=61, velocity=95, time=0),
    Message('note_off', channel=0, note=54, velocity=95, time=0),
    Message('note_on', channel=0, note=45, velocity=95, time=0),
    Message('note_on', channel=0, note=50, velocity=95, time=2),
    Message('note_on', channel=0, note=55, velocity=95, time=2),
    Message('note_on', channel=0, note=60, velocity=95, time=2),
    Message('note_off', channel=0, note=60, velocity=95, time=32),
    Message('note_off', channel=0, note=55, velocity=95, time=0),
    Message('note_off', channel=0, note=50, velocity=95, time=0),
    Message('note_off', channel=0, note=45, velocity=95, time=0),
    Message('note_on', channel=0, note=59, velocity=95, time=202),
    Message('note_on', channel=0, note=55, velocity=95, time=2),
    Message('note_on', channel=0, note=50, velocity=95, time=2),
    Message('note_on', channel=0, note=45, velocity=95, time=2),
    Message('note_off', channel=0, note=59, velocity=95, time=32),
    Message('note_off', channel=0, note=55, velocity=95, time=0),
    Message('note_off', channel=0, note=50, velocity=95, time=0),
    Message('note_off', channel=0, note=45, velocity=95, time=0),
    Message('note_on', channel=0, note=54, velocity=95, time=202),
    Message('note_on', channel=0, note=59, velocity=95, time=2),
    Message('note_on', channel=0, note=66, velocity=95, time=2),
    Message('note_on', channel=0, note=71, velocity=95, time=2),
    Message('note_off', channel=0, note=71, velocity=95, time=234),
    Message('note_off', channel=0, note=66, velocity=95, time=0),
    Message('note_off', channel=0, note=59, velocity=95, time=0),
    Message('note_off', channel=0, note=54, velocity=95, time=0),
    Message('note_on', channel=0, note=71, velocity=95, time=0),
    Message('note_on', channel=0, note=66, velocity=95, time=2),
    Message('note_on', channel=0, note=59, velocity=95, time=2),
    Message('note_on', channel=0, note=54, velocity=95, time=2),
    Message('note_off', channel=0, note=71, velocity=95, time=234),
    Message('note_off', channel=0, note=66, velocity=95, time=0),
    Message('note_off', channel=0, note=59, velocity=95, time=0),
    Message('note_off', channel=0, note=54, velocity=95, time=0),
    Message('note_on', channel=0, note=54, velocity=95, time=0),
    Message('note_on', channel=0, note=59, velocity=95, time=2),
    Message('note_on', channel=0, note=66, velocity=95, time=2),
    Message('note_on', channel=0, note=71, velocity=95, time=2),
    Message('note_off', channel=0, note=71, velocity=95, time=234),
    Message('note_off', channel=0, note=66, velocity=95, time=0),
    Message('note_off', channel=0, note=59, velocity=95, time=0),
    Message('note_off', channel=0, note=54, velocity=95, time=0),
    Message('note_on', channel=0, note=71, velocity=95, time=0),
    Message('note_on', channel=0, note=66, velocity=95, time=2),
    Message('note_on', channel=0, note=59, velocity=95, time=2),
    Message('note_on', channel=0, note=54, velocity=95, time=2),
    Message('note_off', channel=0, note=71, velocity=95, time=234),
    Message('note_off', channel=0, note=66, velocity=95, time=0),
    Message('note_off', channel=0, note=59, velocity=95, time=0),
    Message('note_off', channel=0, note=54, velocity=95, time=0),
    Message('note_on', channel=0, note=45, velocity=95, time=0),
    Message('note_on', channel=0, note=50, velocity=95, time=2),
    Message('note_on', channel=0, note=55, velocity=95, time=2),
    Message('note_on', channel=0, note=59, velocity=95, time=2),
    Message('note_off', channel=0, note=59, velocity=95, time=32),
    Message('note_off', channel=0, note=55, velocity=95, time=0),
    Message('note_off', channel=0, note=50, velocity=95, time=0),
    Message('note_off', channel=0, note=45, velocity=95, time=0),
    Message('note_on', channel=0, note=59, velocity=95, time=202),
    Message('note_on', channel=0, note=55, velocity=95, time=2),
    Message('note_on', channel=0, note=50, velocity=95, time=2),
    Message('note_on', channel=0, note=45, velocity=95, time=2),
    Message('note_off', channel=0, note=59, velocity=95, time=32),
    Message('note_off', channel=0, note=55, velocity=95, time=0),
    Message('note_off', channel=0, note=50, velocity=95, time=0),
    Message('note_off', channel=0, note=45, velocity=95, time=0),
    Message('note_on', channel=0, note=51, velocity=95, time=202),
    Message('note_on', channel=0, note=54, velocity=95, time=2),
    Message('note_on', channel=0, note=59, velocity=95, time=2),
    Message('note_on', channel=0, note=66, velocity=95, time=2),
    Message('note_on', channel=0, note=71, velocity=95, time=2),
    Message('note_off', channel=0, note=71, velocity=95, time=232),
    Message('note_off', channel=0, note=66, velocity=95, time=0),
    Message('note_off', channel=0, note=59, velocity=95, time=0),
    Message('note_off', channel=0, note=54, velocity=95, time=0),
    Message('note_off', channel=0, note=51, velocity=95, time=0),
    Message('note_on', channel=0, note=71, velocity=95, time=0),
    Message('note_on', channel=0, note=66, velocity=95, time=2),
    Message('note_on', channel=0, note=59, velocity=95, time=2),
    Message('note_on', channel=0, note=54, velocity=95, time=2),
    Message('note_on', channel=0, note=51, velocity=95, time=2),
    Message('note_off', channel=0, note=71, velocity=95, time=232),
    Message('note_off', channel=0, note=66, velocity=95, time=0),
    Message('note_off', channel=0, note=59, velocity=95, time=0),
    Message('note_off', channel=0, note=54, velocity=95, time=0),
    Message('note_off', channel=0, note=51, velocity=95, time=0),
    Message('note_on', channel=0, note=51, velocity=95, time=0),
    Message('note_on', channel=0, note=54, velocity=95, time=2),
    Message('note_on', channel=0, note=59, velocity=95, time=2),
    Message('note_on', channel=0, note=66, velocity=95, time=2),
    Message('note_on', channel=0, note=71, velocity=95, time=2),
    Message('note_off', channel=0, note=71, velocity=95, time=232),
    Message('note_off', channel=0, note=66, velocity=95, time=0),
    Message('note_off', channel=0, note=59, velocity=95, time=0),
    Message('note_off', channel=0, note=54, velocity=95, time=0),
    Message('note_off', channel=0, note=51, velocity=95, time=0),
    Message('note_on', channel=0, note=71, velocity=95, time=0),
    Message('note_on', channel=0, note=66, velocity=95, time=2),
    Message('note_on', channel=0, note=59, velocity=95, time=2),
    Message('note_on', channel=0, note=54, velocity=95, time=2),
    Message('note_on', channel=0, note=51, velocity=95, time=2),
    Message('note_off', channel=0, note=71, velocity=95, time=232),
    Message('note_off', channel=0, note=66, velocity=95, time=0),
    Message('note_off', channel=0, note=59, velocity=95, time=0),
    Message('note_off', channel=0, note=54, velocity=95, time=0),
    Message('note_off', channel=0, note=51, velocity=95, time=0),
    Message('note_on', channel=0, note=71, velocity=95, time=240),
    Message('note_on', channel=0, note=66, velocity=95, time=2),
    Message('note_on', channel=0, note=59, velocity=95, time=2),
    Message('note_on', channel=0, note=54, velocity=95, time=2),
    Message('note_on', channel=0, note=51, velocity=95, time=2),
    Message('note_off', channel=0, note=71, velocity=95, time=232),
    Message('note_off', channel=0, note=66, velocity=95, time=0),
    Message('note_off', channel=0, note=59, velocity=95, time=0),
    Message('note_off', channel=0, note=54, velocity=95, time=0),
    Message('note_off', channel=0, note=51, velocity=95, time=0),
    Message('note_on', channel=0, note=51, velocity=95, time=0),
    Message('note_on', channel=0, note=54, velocity=95, time=4),
    Message('note_on', channel=0, note=59, velocity=95, time=4),
    Message('note_on', channel=0, note=66, velocity=95, time=4),
    Message('note_on', channel=0, note=71, velocity=95, time=4),
    Message('note_off', channel=0, note=71, velocity=95, time=464),
    Message('note_off', channel=0, note=66, velocity=95, time=0),
    Message('note_off', channel=0, note=59, velocity=95, time=0),
    Message('note_off', channel=0, note=54, velocity=95, time=0),
    Message('note_off', channel=0, note=51, velocity=95, time=0),
    Message('note_on', channel=0, note=54, velocity=95, time=0),
    Message('note_on', channel=0, note=61, velocity=95, time=8),
    Message('note_on', channel=0, note=66, velocity=95, time=8),
    Message('note_on', channel=0, note=70, velocity=95, time=8),
    Message('note_off', channel=0, note=70, velocity=95, time=2856),
    Message('note_off', channel=0, note=66, velocity=95, time=0),
    Message('note_off', channel=0, note=61, velocity=95, time=0),
    Message('note_off', channel=0, note=54, velocity=95, time=0),
    Message('note_on', channel=0, note=45, velocity=95, time=480),
    Message('note_on', channel=0, note=50, velocity=95, time=2),
    Message('note_on', channel=0, note=55, velocity=95, time=2),
    Message('note_on', channel=0, note=59, velocity=95, time=2),
    Message('note_off', channel=0, note=59, velocity=95, time=32),
    Message('note_off', channel=0, note=55, velocity=95, time=0),
    Message('note_off', channel=0, note=50, velocity=95, time=0),
    Message('note_off', channel=0, note=45, velocity=95, time=0),
    Message('note_on', channel=0, note=59, velocity=95, time=202),
    Message('note_on', channel=0, note=55, velocity=95, time=2),
    Message('note_on', channel=0, note=50, velocity=95, time=2),
    Message('note_on', channel=0, note=45, velocity=95, time=2),
    Message('note_off', channel=0, note=59, velocity=95, time=32),
    Message('note_off', channel=0, note=55, velocity=95, time=0),
    Message('note_off', channel=0, note=50, velocity=95, time=0),
    Message('note_off', channel=0, note=45, velocity=95, time=0),
    Message('note_on', channel=0, note=54, velocity=95, time=202),
    Message('note_on', channel=0, note=59, velocity=95, time=2),
    Message('note_on', channel=0, note=66, velocity=95, time=2),
    Message('note_on', channel=0, note=71, velocity=95, time=2),
    Message('note_off', channel=0, note=71, velocity=95, time=234),
    Message('note_off', channel=0, note=66, velocity=95, time=0),
    Message('note_off', channel=0, note=59, velocity=95, time=0),
    Message('note_off', channel=0, note=54, velocity=95, time=0),
    Message('note_on', channel=0, note=71, velocity=95, time=0),
    Message('note_on', channel=0, note=66, velocity=95, time=2),
    Message('note_on', channel=0, note=59, velocity=95, time=2),
    Message('note_on', channel=0, note=54, velocity=95, time=2),
    Message('note_off', channel=0, note=71, velocity=95, time=234),
    Message('note_off', channel=0, note=66, velocity=95, time=0),
    Message('note_off', channel=0, note=59, velocity=95, time=0),
    Message('note_off', channel=0, note=54, velocity=95, time=0),
    Message('note_on', channel=0, note=54, velocity=95, time=0),
    Message('note_on', channel=0, note=59, velocity=95, time=2),
    Message('note_on', channel=0, note=66, velocity=95, time=2),
    Message('note_on', channel=0, note=71, velocity=95, time=2),
    Message('note_off', channel=0, note=71, velocity=95, time=234),
    Message('note_off', channel=0, note=66, velocity=95, time=0),
    Message('note_off', channel=0, note=59, velocity=95, time=0),
    Message('note_off', channel=0, note=54, velocity=95, time=0),
    Message('note_on', channel=0, note=71, velocity=95, time=0),
    Message('note_on', channel=0, note=66, velocity=95, time=2),
    Message('note_on', channel=0, note=59, velocity=95, time=2),
    Message('note_on', channel=0, note=54, velocity=95, time=2),
    Message('note_off', channel=0, note=71, velocity=95, time=234),
    Message('note_off', channel=0, note=66, velocity=95, time=0),
    Message('note_off', channel=0, note=59, velocity=95, time=0),
    Message('note_off', channel=0, note=54, velocity=95, time=0),
    Message('note_on', channel=0, note=45, velocity=95, time=0),
    Message('note_on', channel=0, note=50, velocity=95, time=2),
    Message('note_on', channel=0, note=55, velocity=95, time=2),
    Message('note_on', channel=0, note=59, velocity=95, time=2),
    Message('note_off', channel=0, note=59, velocity=95, time=32),
    Message('note_off', channel=0, note=55, velocity=95, time=0),
    Message('note_off', channel=0, note=50, velocity=95, time=0),
    Message('note_off', channel=0, note=45, velocity=95, time=0),
    Message('note_on', channel=0, note=59, velocity=95, time=202),
    Message('note_on', channel=0, note=55, velocity=95, time=2),
    Message('note_on', channel=0, note=50, velocity=95, time=2),
    Message('note_on', channel=0, note=45, velocity=95, time=2),
    Message('note_off', channel=0, note=59, velocity=95, time=32),
    Message('note_off', channel=0, note=55, velocity=95, time=0),
    Message('note_off', channel=0, note=50, velocity=95, time=0),
    Message('note_off', channel=0, note=45, velocity=95, time=0),
    Message('note_on', channel=0, note=51, velocity=95, time=202),
    Message('note_on', channel=0, note=54, velocity=95, time=2),
    Message('note_on', channel=0, note=59, velocity=95, time=2),
    Message('note_on', channel=0, note=66, velocity=95, time=2),
    Message('note_on', channel=0, note=71, velocity=95, time=2),
    Message('note_off', channel=0, note=71, velocity=95, time=232),
    Message('note_off', channel=0, note=66, velocity=95, time=0),
    Message('note_off', channel=0, note=59, velocity=95, time=0),
    Message('note_off', channel=0, note=54, velocity=95, time=0),
    Message('note_off', channel=0, note=51, velocity=95, time=0),
    Message('note_on', channel=0, note=71, velocity=95, time=0),
    Message('note_on', channel=0, note=66, velocity=95, time=2),
    Message('note_on', channel=0, note=59, velocity=95, time=2),
    Message('note_on', channel=0, note=54, velocity=95, time=2),
    Message('note_on', channel=0, note=51, velocity=95, time=2),
    Message('note_off', channel=0, note=71, velocity=95, time=232),
    Message('note_off', channel=0, note=66, velocity=95, time=0),
    Message('note_off', channel=0, note=59, velocity=95, time=0),
    Message('note_off', channel=0, note=54, velocity=95, time=0),
    Message('note_off', channel=0, note=51, velocity=95, time=0),
    Message('note_on', channel=0, note=51, velocity=95, time=0),
    Message('note_on', channel=0, note=54, velocity=95, time=2),
    Message('note_on', channel=0, note=59, velocity=95, time=2),
    Message('note_on', channel=0, note=66, velocity=95, time=2),
    Message('note_on', channel=0, note=71, velocity=95, time=2),
    Message('note_off', channel=0, note=71, velocity=95, time=232),
    Message('note_off', channel=0, note=66, velocity=95, time=0),
    Message('note_off', channel=0, note=59, velocity=95, time=0),
    Message('note_off', channel=0, note=54, velocity=95, time=0),
    Message('note_off', channel=0, note=51, velocity=95, time=0),
    Message('note_on', channel=0, note=71, velocity=95, time=0),
    Message('note_on', channel=0, note=66, velocity=95, time=2),
    Message('note_on', channel=0, note=59, velocity=95, time=2),
    Message('note_on', channel=0, note=54, velocity=95, time=2),
    Message('note_on', channel=0, note=51, velocity=95, time=2),
    Message('note_off', channel=0, note=71, velocity=95, time=232),
    Message('note_off', channel=0, note=66, velocity=95, time=0),
    Message('note_off', channel=0, note=59, velocity=95, time=0),
    Message('note_off', channel=0, note=54, velocity=95, time=0),
    Message('note_off', channel=0, note=51, velocity=95, time=0),
    Message('note_on', channel=0, note=71, velocity=95, time=240),
    Message('note_on', channel=0, note=66, velocity=95, time=2),
    Message('note_on', channel=0, note=59, velocity=95, time=2),
    Message('note_on', channel=0, note=54, velocity=95, time=2),
    Message('note_on', channel=0, note=51, velocity=95, time=2),
    Message('note_off', channel=0, note=71, velocity=95, time=232),
    Message('note_off', channel=0, note=66, velocity=95, time=0),
    Message('note_off', channel=0, note=59, velocity=95, time=0),
    Message('note_off', channel=0, note=54, velocity=95, time=0),
    Message('note_off', channel=0, note=51, velocity=95, time=0),
    Message('note_on', channel=0, note=51, velocity=95, time=0),
    Message('note_on', channel=0, note=54, velocity=95, time=4),
    Message('note_on', channel=0, note=59, velocity=95, time=4),
    Message('note_on', channel=0, note=66, velocity=95, time=4),
    Message('note_on', channel=0, note=71, velocity=95, time=4),
    Message('note_off', channel=0, note=71, velocity=95, time=464),
    Message('note_off', channel=0, note=66, velocity=95, time=0),
    Message('note_off', channel=0, note=59, velocity=95, time=0),
    Message('note_off', channel=0, note=54, velocity=95, time=0),
    Message('note_off', channel=0, note=51, velocity=95, time=0),
    Message('note_on', channel=0, note=70, velocity=95, time=0),
    Message('note_on', channel=0, note=66, velocity=95, time=0),
    Message('note_on', channel=0, note=61, velocity=95, time=0),
    Message('note_on', channel=0, note=54, velocity=95, time=0),
    Message('note_off', channel=0, note=70, velocity=95, time=2880),
    Message('note_off', channel=0, note=66, velocity=95, time=0),
    Message('note_off', channel=0, note=61, velocity=95, time=0),
    Message('note_off', channel=0, note=54, velocity=95, time=0),
    Message('note_on', channel=0, note=52, velocity=95, time=31680),
    Message('note_on', channel=0, note=59, velocity=95, time=4),
    Message('note_on', channel=0, note=64, velocity=95, time=4),
    Message('note_off', channel=0, note=64, velocity=95, time=472),
    Message('note_off', channel=0, note=59, velocity=95, time=0),
    Message('note_off', channel=0, note=52, velocity=95, time=0),
    Message('note_on', channel=0, note=52, velocity=95, time=0),
    Message('note_on', channel=0, note=59, velocity=95, time=2),
    Message('note_on', channel=0, note=64, velocity=95, time=2),
    Message('note_off', channel=0, note=64, velocity=95, time=236),
    Message('note_off', channel=0, note=59, velocity=95, time=0),
    Message('note_off', channel=0, note=52, velocity=95, time=0),
    Message('note_on', channel=0, note=64, velocity=95, time=0),
    Message('note_on', channel=0, note=59, velocity=95, time=2),
    Message('note_on', channel=0, note=52, velocity=95, time=2),
    Message('note_off', channel=0, note=64, velocity=95, time=236),
    Message('note_off', channel=0, note=59, velocity=95, time=0),
    Message('note_off', channel=0, note=52, velocity=95, time=0),
    Message('note_on', channel=0, note=52, velocity=95, time=0),
    Message('note_on', channel=0, note=59, velocity=95, time=2),
    Message('note_on', channel=0, note=64, velocity=95, time=2),
    Message('note_off', channel=0, note=64, velocity=95, time=236),
    Message('note_off', channel=0, note=59, velocity=95, time=0),
    Message('note_off', channel=0, note=52, velocity=95, time=0),
    Message('note_on', channel=0, note=64, velocity=95, time=0),
    Message('note_on', channel=0, note=59, velocity=95, time=2),
    Message('note_on', channel=0, note=52, velocity=95, time=2),
    Message('note_off', channel=0, note=64, velocity=95, time=236),
    Message('note_off', channel=0, note=59, velocity=95, time=0),
    Message('note_off', channel=0, note=52, velocity=95, time=0),
    Message('note_on', channel=0, note=52, velocity=95, time=0),
    Message('note_on', channel=0, note=59, velocity=95, time=2),
    Message('note_on', channel=0, note=64, velocity=95, time=2),
    Message('note_off', channel=0, note=64, velocity=95, time=236),
    Message('note_off', channel=0, note=59, velocity=95, time=0),
    Message('note_off', channel=0, note=52, velocity=95, time=0),
    Message('note_on', channel=0, note=55, velocity=95, time=0),
    Message('note_on', channel=0, note=50, velocity=95, time=2),
    Message('note_on', channel=0, note=45, velocity=95, time=2),
    Message('note_off', channel=0, note=55, velocity=95, time=34),
    Message('note_off', channel=0, note=50, velocity=95, time=0),
    Message('note_off', channel=0, note=45, velocity=95, time=0),
    Message('note_on', channel=0, note=55, velocity=95, time=202),
    Message('note_on', channel=0, note=62, velocity=95, time=4),
    Message('note_on', channel=0, note=67, velocity=95, time=4),
    Message('note_off', channel=0, note=67, velocity=95, time=472),
    Message('note_off', channel=0, note=62, velocity=95, time=0),
    Message('note_off', channel=0, note=55, velocity=95, time=0),
    Message('note_on', channel=0, note=55, velocity=95, time=0),
    Message('note_on', channel=0, note=62, velocity=95, time=2),
    Message('note_on', channel=0, note=67, velocity=95, time=2),
    Message('note_off', channel=0, note=67, velocity=95, time=236),
    Message('note_off', channel=0, note=62, velocity=95, time=0),
    Message('note_off', channel=0, note=55, velocity=95, time=0),
    Message('note_on', channel=0, note=67, velocity=95, time=0),
    Message('note_on', channel=0, note=62, velocity=95, time=2),
    Message('note_on', channel=0, note=55, velocity=95, time=2),
    Message('note_off', channel=0, note=67, velocity=95, time=236),
    Message('note_off', channel=0, note=62, velocity=95, time=0),
    Message('note_off', channel=0, note=55, velocity=95, time=0),
    Message('note_on', channel=0, note=55, velocity=95, time=0),
    Message('note_on', channel=0, note=62, velocity=95, time=2),
    Message('note_on', channel=0, note=67, velocity=95, time=2),
    Message('note_off', channel=0, note=67, velocity=95, time=236),
    Message('note_off', channel=0, note=62, velocity=95, time=0),
    Message('note_off', channel=0, note=55, velocity=95, time=0),
    Message('note_on', channel=0, note=67, velocity=95, time=0),
    Message('note_on', channel=0, note=62, velocity=95, time=2),
    Message('note_on', channel=0, note=55, velocity=95, time=2),
    Message('note_off', channel=0, note=67, velocity=95, time=236),
    Message('note_off', channel=0, note=62, velocity=95, time=0),
    Message('note_off', channel=0, note=55, velocity=95, time=0),
    Message('note_on', channel=0, note=55, velocity=95, time=0),
    Message('note_on', channel=0, note=62, velocity=95, time=2),
    Message('note_on', channel=0, note=67, velocity=95, time=2),
    Message('note_off', channel=0, note=67, velocity=95, time=236),
    Message('note_off', channel=0, note=62, velocity=95, time=0),
    Message('note_off', channel=0, note=55, velocity=95, time=0),
    Message('note_on', channel=0, note=55, velocity=95, time=0),
    Message('note_on', channel=0, note=50, velocity=95, time=2),
    Message('note_on', channel=0, note=45, velocity=95, time=2),
    Message('note_off', channel=0, note=55, velocity=95, time=34),
    Message('note_off', channel=0, note=50, velocity=95, time=0),
    Message('note_off', channel=0, note=45, velocity=95, time=0),
    Message('note_on', channel=0, note=45, velocity=95, time=202),
    Message('note_on', channel=0, note=57, velocity=95, time=4),
    Message('note_on', channel=0, note=62, velocity=95, time=4),
    Message('note_on', channel=0, note=66, velocity=95, time=4),
    Message('note_off', channel=0, note=66, velocity=95, time=468),
    Message('note_off', channel=0, note=62, velocity=95, time=0),
    Message('note_off', channel=0, note=57, velocity=95, time=0),
    Message('note_off', channel=0, note=45, velocity=95, time=0),
    Message('note_on', channel=0, note=45, velocity=95, time=0),
    Message('note_on', channel=0, note=57, velocity=95, time=2),
    Message('note_on', channel=0, note=62, velocity=95, time=2),
    Message('note_on', channel=0, note=66, velocity=95, time=2),
    Message('note_off', channel=0, note=66, velocity=95, time=234),
    Message('note_off', channel=0, note=62, velocity=95, time=0),
    Message('note_off', channel=0, note=57, velocity=95, time=0),
    Message('note_off', channel=0, note=45, velocity=95, time=0),
    Message('note_on', channel=0, note=66, velocity=95, time=0),
    Message('note_on', channel=0, note=62, velocity=95, time=2),
    Message('note_on', channel=0, note=57, velocity=95, time=2),
    Message('note_on', channel=0, note=45, velocity=95, time=2),
    Message('note_off', channel=0, note=66, velocity=95, time=234),
    Message('note_off', channel=0, note=62, velocity=95, time=0),
    Message('note_off', channel=0, note=57, velocity=95, time=0),
    Message('note_off', channel=0, note=45, velocity=95, time=0),
    Message('note_on', channel=0, note=45, velocity=95, time=0),
    Message('note_on', channel=0, note=57, velocity=95, time=2),
    Message('note_on', channel=0, note=62, velocity=95, time=2),
    Message('note_on', channel=0, note=66, velocity=95, time=2),
    Message('note_off', channel=0, note=66, velocity=95, time=234),
    Message('note_off', channel=0, note=62, velocity=95, time=0),
    Message('note_off', channel=0, note=57, velocity=95, time=0),
    Message('note_off', channel=0, note=45, velocity=95, time=0),
    Message('note_on', channel=0, note=66, velocity=95, time=0),
    Message('note_on', channel=0, note=62, velocity=95, time=2),
    Message('note_on', channel=0, note=57, velocity=95, time=2),
    Message('note_on', channel=0, note=45, velocity=95, time=2),
    Message('note_off', channel=0, note=66, velocity=95, time=234),
    Message('note_off', channel=0, note=62, velocity=95, time=0),
    Message('note_off', channel=0, note=57, velocity=95, time=0),
    Message('note_off', channel=0, note=45, velocity=95, time=0),
    Message('note_on', channel=0, note=45, velocity=95, time=0),
    Message('note_on', channel=0, note=57, velocity=95, time=2),
    Message('note_on', channel=0, note=62, velocity=95, time=2),
    Message('note_on', channel=0, note=66, velocity=95, time=2),
    Message('note_off', channel=0, note=66, velocity=95, time=234),
    Message('note_off', channel=0, note=62, velocity=95, time=0),
    Message('note_off', channel=0, note=57, velocity=95, time=0),
    Message('note_off', channel=0, note=45, velocity=95, time=0),
    Message('note_on', channel=0, note=55, velocity=95, time=0),
    Message('note_on', channel=0, note=50, velocity=95, time=2),
    Message('note_on', channel=0, note=45, velocity=95, time=2),
    Message('note_off', channel=0, note=55, velocity=95, time=34),
    Message('note_off', channel=0, note=50, velocity=95, time=0),
    Message('note_off', channel=0, note=45, velocity=95, time=0),
    Message('note_on', channel=0, note=45, velocity=95, time=202),
    Message('note_on', channel=0, note=52, velocity=95, time=4),
    Message('note_on', channel=0, note=57, velocity=95, time=4),
    Message('note_off', channel=0, note=57, velocity=95, time=472),
    Message('note_off', channel=0, note=52, velocity=95, time=0),
    Message('note_off', channel=0, note=45, velocity=95, time=0),
    Message('note_on', channel=0, note=45, velocity=95, time=0),
    Message('note_on', channel=0, note=52, velocity=95, time=2),
    Message('note_on', channel=0, note=57, velocity=95, time=2),
    Message('note_off', channel=0, note=57, velocity=95, time=236),
    Message('note_off', channel=0, note=52, velocity=95, time=0),
    Message('note_off', channel=0, note=45, velocity=95, time=0),
    Message('note_on', channel=0, note=57, velocity=95, time=0),
    Message('note_on', channel=0, note=52, velocity=95, time=2),
    Message('note_on', channel=0, note=45, velocity=95, time=2),
    Message('note_off', channel=0, note=57, velocity=95, time=236),
    Message('note_off', channel=0, note=52, velocity=95, time=0),
    Message('note_off', channel=0, note=45, velocity=95, time=0),
    Message('note_on', channel=0, note=45, velocity=95, time=0),
    Message('note_on', channel=0, note=52, velocity=95, time=2),
    Message('note_on', channel=0, note=57, velocity=95, time=2),
    Message('note_off', channel=0, note=57, velocity=95, time=236),
    Message('note_off', channel=0, note=52, velocity=95, time=0),
    Message('note_off', channel=0, note=45, velocity=95, time=0),
    Message('note_on', channel=0, note=57, velocity=95, time=0),
    Message('note_on', channel=0, note=52, velocity=95, time=2),
    Message('note_on', channel=0, note=45, velocity=95, time=2),
    Message('note_off', channel=0, note=57, velocity=95, time=236),
    Message('note_off', channel=0, note=52, velocity=95, time=0),
    Message('note_off', channel=0, note=45, velocity=95, time=0),
    Message('note_on', channel=0, note=45, velocity=95, time=0),
    Message('note_on', channel=0, note=52, velocity=95, time=2),
    Message('note_on', channel=0, note=57, velocity=95, time=2),
    Message('note_off', channel=0, note=57, velocity=95, time=236),
    Message('note_off', channel=0, note=52, velocity=95, time=0),
    Message('note_off', channel=0, note=45, velocity=95, time=0),
    Message('note_on', channel=0, note=50, velocity=95, time=0),
    Message('note_on', channel=0, note=45, velocity=95, time=2),
    Message('note_on', channel=0, note=40, velocity=95, time=2),
    Message('note_off', channel=0, note=50, velocity=95, time=34),
    Message('note_off', channel=0, note=45, velocity=95, time=0),
    Message('note_off', channel=0, note=40, velocity=95, time=0),
    Message('note_on', channel=0, note=52, velocity=95, time=202),
    Message('note_on', channel=0, note=59, velocity=95, time=4),
    Message('note_on', channel=0, note=64, velocity=95, time=4),
    Message('note_off', channel=0, note=64, velocity=95, time=472),
    Message('note_off', channel=0, note=59, velocity=95, time=0),
    Message('note_off', channel=0, note=52, velocity=95, time=0),
    Message('note_on', channel=0, note=52, velocity=95, time=0),
    Message('note_on', channel=0, note=59, velocity=95, time=2),
    Message('note_on', channel=0, note=64, velocity=95, time=2),
    Message('note_off', channel=0, note=64, velocity=95, time=236),
    Message('note_off', channel=0, note=59, velocity=95, time=0),
    Message('note_off', channel=0, note=52, velocity=95, time=0),
    Message('note_on', channel=0, note=64, velocity=95, time=0),
    Message('note_on', channel=0, note=59, velocity=95, time=2),
    Message('note_on', channel=0, note=52, velocity=95, time=2),
    Message('note_off', channel=0, note=64, velocity=95, time=236),
    Message('note_off', channel=0, note=59, velocity=95, time=0),
    Message('note_off', channel=0, note=52, velocity=95, time=0),
    Message('note_on', channel=0, note=52, velocity=95, time=0),
    Message('note_on', channel=0, note=59, velocity=95, time=2),
    Message('note_on', channel=0, note=64, velocity=95, time=2),
    Message('note_off', channel=0, note=64, velocity=95, time=236),
    Message('note_off', channel=0, note=59, velocity=95, time=0),
    Message('note_off', channel=0, note=52, velocity=95, time=0),
    Message('note_on', channel=0, note=64, velocity=95, time=0),
    Message('note_on', channel=0, note=59, velocity=95, time=2),
    Message('note_on', channel=0, note=52, velocity=95, time=2),
    Message('note_off', channel=0, note=64, velocity=95, time=236),
    Message('note_off', channel=0, note=59, velocity=95, time=0),
    Message('note_off', channel=0, note=52, velocity=95, time=0),
    Message('note_on', channel=0, note=52, velocity=95, time=0),
    Message('note_on', channel=0, note=59, velocity=95, time=2),
    Message('note_on', channel=0, note=64, velocity=95, time=2),
    Message('note_off', channel=0, note=64, velocity=95, time=236),
    Message('note_off', channel=0, note=59, velocity=95, time=0),
    Message('note_off', channel=0, note=52, velocity=95, time=0),
    Message('note_on', channel=0, note=55, velocity=95, time=0),
    Message('note_on', channel=0, note=50, velocity=95, time=2),
    Message('note_on', channel=0, note=45, velocity=95, time=2),
    Message('note_off', channel=0, note=55, velocity=95, time=34),
    Message('note_off', channel=0, note=50, velocity=95, time=0),
    Message('note_off', channel=0, note=45, velocity=95, time=0),
    Message('note_on', channel=0, note=55, velocity=95, time=202),
    Message('note_on', channel=0, note=62, velocity=95, time=4),
    Message('note_on', channel=0, note=67, velocity=95, time=4),
    Message('note_off', channel=0, note=67, velocity=95, time=472),
    Message('note_off', channel=0, note=62, velocity=95, time=0),
    Message('note_off', channel=0, note=55, velocity=95, time=0),
    Message('note_on', channel=0, note=55, velocity=95, time=0),
    Message('note_on', channel=0, note=62, velocity=95, time=2),
    Message('note_on', channel=0, note=67, velocity=95, time=2),
    Message('note_off', channel=0, note=67, velocity=95, time=236),
    Message('note_off', channel=0, note=62, velocity=95, time=0),
    Message('note_off', channel=0, note=55, velocity=95, time=0),
    Message('note_on', channel=0, note=67, velocity=95, time=0),
    Message('note_on', channel=0, note=62, velocity=95, time=2),
    Message('note_on', channel=0, note=55, velocity=95, time=2),
    Message('note_off', channel=0, note=67, velocity=95, time=236),
    Message('note_off', channel=0, note=62, velocity=95, time=0),
    Message('note_off', channel=0, note=55, velocity=95, time=0),
    Message('note_on', channel=0, note=55, velocity=95, time=0),
    Message('note_on', channel=0, note=62, velocity=95, time=2),
    Message('note_on', channel=0, note=67, velocity=95, time=2),
    Message('note_off', channel=0, note=67, velocity=95, time=236),
    Message('note_off', channel=0, note=62, velocity=95, time=0),
    Message('note_off', channel=0, note=55, velocity=95, time=0),
    Message('note_on', channel=0, note=67, velocity=95, time=0),
    Message('note_on', channel=0, note=62, velocity=95, time=2),
    Message('note_on', channel=0, note=55, velocity=95, time=2),
    Message('note_off', channel=0, note=67, velocity=95, time=236),
    Message('note_off', channel=0, note=62, velocity=95, time=0),
    Message('note_off', channel=0, note=55, velocity=95, time=0),
    Message('note_on', channel=0, note=55, velocity=95, time=0),
    Message('note_on', channel=0, note=62, velocity=95, time=2),
    Message('note_on', channel=0, note=67, velocity=95, time=2),
    Message('note_off', channel=0, note=67, velocity=95, time=236),
    Message('note_off', channel=0, note=62, velocity=95, time=0),
    Message('note_off', channel=0, note=55, velocity=95, time=0),
    Message('note_on', channel=0, note=55, velocity=95, time=0),
    Message('note_on', channel=0, note=50, velocity=95, time=2),
    Message('note_on', channel=0, note=45, velocity=95, time=2),
    Message('note_off', channel=0, note=55, velocity=95, time=34),
    Message('note_off', channel=0, note=50, velocity=95, time=0),
    Message('note_off', channel=0, note=45, velocity=95, time=0),
    Message('note_on', channel=0, note=45, velocity=95, time=202),
    Message('note_on', channel=0, note=57, velocity=95, time=4),
    Message('note_on', channel=0, note=62, velocity=95, time=4),
    Message('note_on', channel=0, note=66, velocity=95, time=4),
    Message('note_off', channel=0, note=66, velocity=95, time=468),
    Message('note_off', channel=0, note=62, velocity=95, time=0),
    Message('note_off', channel=0, note=57, velocity=95, time=0),
    Message('note_off', channel=0, note=45, velocity=95, time=0),
    Message('note_on', channel=0, note=45, velocity=95, time=0),
    Message('note_on', channel=0, note=57, velocity=95, time=2),
    Message('note_on', channel=0, note=62, velocity=95, time=2),
    Message('note_on', channel=0, note=66, velocity=95, time=2),
    Message('note_off', channel=0, note=66, velocity=95, time=234),
    Message('note_off', channel=0, note=62, velocity=95, time=0),
    Message('note_off', channel=0, note=57, velocity=95, time=0),
    Message('note_off', channel=0, note=45, velocity=95, time=0),
    Message('note_on', channel=0, note=66, velocity=95, time=0),
    Message('note_on', channel=0, note=62, velocity=95, time=2),
    Message('note_on', channel=0, note=57, velocity=95, time=2),
    Message('note_on', channel=0, note=45, velocity=95, time=2),
    Message('note_off', channel=0, note=66, velocity=95, time=234),
    Message('note_off', channel=0, note=62, velocity=95, time=0),
    Message('note_off', channel=0, note=57, velocity=95, time=0),
    Message('note_off', channel=0, note=45, velocity=95, time=0),
    Message('note_on', channel=0, note=45, velocity=95, time=0),
    Message('note_on', channel=0, note=57, velocity=95, time=2),
    Message('note_on', channel=0, note=62, velocity=95, time=2),
    Message('note_on', channel=0, note=66, velocity=95, time=2),
    Message('note_off', channel=0, note=66, velocity=95, time=234),
    Message('note_off', channel=0, note=62, velocity=95, time=0),
    Message('note_off', channel=0, note=57, velocity=95, time=0),
    Message('note_off', channel=0, note=45, velocity=95, time=0),
    Message('note_on', channel=0, note=66, velocity=95, time=0),
    Message('note_on', channel=0, note=62, velocity=95, time=2),
    Message('note_on', channel=0, note=57, velocity=95, time=2),
    Message('note_on', channel=0, note=45, velocity=95, time=2),
    Message('note_off', channel=0, note=66, velocity=95, time=234),
    Message('note_off', channel=0, note=62, velocity=95, time=0),
    Message('note_off', channel=0, note=57, velocity=95, time=0),
    Message('note_off', channel=0, note=45, velocity=95, time=0),
    Message('note_on', channel=0, note=45, velocity=95, time=0),
    Message('note_on', channel=0, note=57, velocity=95, time=2),
    Message('note_on', channel=0, note=62, velocity=95, time=2),
    Message('note_on', channel=0, note=66, velocity=95, time=2),
    Message('note_off', channel=0, note=66, velocity=95, time=234),
    Message('note_off', channel=0, note=62, velocity=95, time=0),
    Message('note_off', channel=0, note=57, velocity=95, time=0),
    Message('note_off', channel=0, note=45, velocity=95, time=0),
    Message('note_on', channel=0, note=55, velocity=95, time=0),
    Message('note_on', channel=0, note=50, velocity=95, time=2),
    Message('note_on', channel=0, note=45, velocity=95, time=2),
    Message('note_off', channel=0, note=55, velocity=95, time=34),
    Message('note_off', channel=0, note=50, velocity=95, time=0),
    Message('note_off', channel=0, note=45, velocity=95, time=0),
    Message('note_on', channel=0, note=45, velocity=95, time=202),
    Message('note_on', channel=0, note=52, velocity=95, time=4),
    Message('note_on', channel=0, note=57, velocity=95, time=4),
    Message('note_off', channel=0, note=57, velocity=95, time=472),
    Message('note_off', channel=0, note=52, velocity=95, time=0),
    Message('note_off', channel=0, note=45, velocity=95, time=0),
    Message('note_on', channel=0, note=45, velocity=95, time=0),
    Message('note_on', channel=0, note=52, velocity=95, time=2),
    Message('note_on', channel=0, note=57, velocity=95, time=2),
    Message('note_off', channel=0, note=57, velocity=95, time=236),
    Message('note_off', channel=0, note=52, velocity=95, time=0),
    Message('note_off', channel=0, note=45, velocity=95, time=0),
    Message('note_on', channel=0, note=57, velocity=95, time=0),
    Message('note_on', channel=0, note=52, velocity=95, time=2),
    Message('note_on', channel=0, note=45, velocity=95, time=2),
    Message('note_off', channel=0, note=57, velocity=95, time=236),
    Message('note_off', channel=0, note=52, velocity=95, time=0),
    Message('note_off', channel=0, note=45, velocity=95, time=0),
    Message('note_on', channel=0, note=45, velocity=95, time=0),
    Message('note_on', channel=0, note=52, velocity=95, time=2),
    Message('note_on', channel=0, note=57, velocity=95, time=2),
    Message('note_off', channel=0, note=57, velocity=95, time=236),
    Message('note_off', channel=0, note=52, velocity=95, time=0),
    Message('note_off', channel=0, note=45, velocity=95, time=0),
    Message('note_on', channel=0, note=57, velocity=95, time=0),
    Message('note_on', channel=0, note=52, velocity=95, time=2),
    Message('note_on', channel=0, note=45, velocity=95, time=2),
    Message('note_off', channel=0, note=57, velocity=95, time=236),
    Message('note_off', channel=0, note=52, velocity=95, time=0),
    Message('note_off', channel=0, note=45, velocity=95, time=0),
    Message('note_on', channel=0, note=45, velocity=95, time=0),
    Message('note_on', channel=0, note=52, velocity=95, time=2),
    Message('note_on', channel=0, note=57, velocity=95, time=2),
    Message('note_off', channel=0, note=57, velocity=95, time=236),
    Message('note_off', channel=0, note=52, velocity=95, time=0),
    Message('note_off', channel=0, note=45, velocity=95, time=0),
    Message('note_on', channel=0, note=50, velocity=95, time=0),
    Message('note_on', channel=0, note=45, velocity=95, time=2),
    Message('note_on', channel=0, note=40, velocity=95, time=2),
    Message('note_off', channel=0, note=50, velocity=95, time=34),
    Message('note_off', channel=0, note=45, velocity=95, time=0),
    Message('note_off', channel=0, note=40, velocity=95, time=0),
    Message('note_on', channel=0, note=52, velocity=95, time=202),
    Message('note_on', channel=0, note=59, velocity=95, time=4),
    Message('note_on', channel=0, note=64, velocity=95, time=4),
    Message('note_off', channel=0, note=64, velocity=95, time=472),
    Message('note_off', channel=0, note=59, velocity=95, time=0),
    Message('note_off', channel=0, note=52, velocity=95, time=0),
    Message('note_on', channel=0, note=52, velocity=95, time=0),
    Message('note_on', channel=0, note=59, velocity=95, time=2),
    Message('note_on', channel=0, note=64, velocity=95, time=2),
    Message('note_off', channel=0, note=64, velocity=95, time=236),
    Message('note_off', channel=0, note=59, velocity=95, time=0),
    Message('note_off', channel=0, note=52, velocity=95, time=0),
    Message('note_on', channel=0, note=64, velocity=95, time=0),
    Message('note_on', channel=0, note=59, velocity=95, time=2),
    Message('note_on', channel=0, note=52, velocity=95, time=2),
    Message('note_off', channel=0, note=64, velocity=95, time=236),
    Message('note_off', channel=0, note=59, velocity=95, time=0),
    Message('note_off', channel=0, note=52, velocity=95, time=0),
    Message('note_on', channel=0, note=52, velocity=95, time=0),
    Message('note_on', channel=0, note=59, velocity=95, time=2),
    Message('note_on', channel=0, note=64, velocity=95, time=2),
    Message('note_off', channel=0, note=64, velocity=95, time=236),
    Message('note_off', channel=0, note=59, velocity=95, time=0),
    Message('note_off', channel=0, note=52, velocity=95, time=0),
    Message('note_on', channel=0, note=64, velocity=95, time=0),
    Message('note_on', channel=0, note=59, velocity=95, time=2),
    Message('note_on', channel=0, note=52, velocity=95, time=2),
    Message('note_off', channel=0, note=64, velocity=95, time=236),
    Message('note_off', channel=0, note=59, velocity=95, time=0),
    Message('note_off', channel=0, note=52, velocity=95, time=0),
    Message('note_on', channel=0, note=52, velocity=95, time=0),
    Message('note_on', channel=0, note=59, velocity=95, time=2),
    Message('note_on', channel=0, note=64, velocity=95, time=2),
    Message('note_off', channel=0, note=64, velocity=95, time=236),
    Message('note_off', channel=0, note=59, velocity=95, time=0),
    Message('note_off', channel=0, note=52, velocity=95, time=0),
    Message('note_on', channel=0, note=55, velocity=95, time=0),
    Message('note_on', channel=0, note=50, velocity=95, time=2),
    Message('note_on', channel=0, note=45, velocity=95, time=2),
    Message('note_off', channel=0, note=55, velocity=95, time=34),
    Message('note_off', channel=0, note=50, velocity=95, time=0),
    Message('note_off', channel=0, note=45, velocity=95, time=0),
    Message('note_on', channel=0, note=55, velocity=95, time=202),
    Message('note_on', channel=0, note=62, velocity=95, time=4),
    Message('note_on', channel=0, note=67, velocity=95, time=4),
    Message('note_off', channel=0, note=67, velocity=95, time=472),
    Message('note_off', channel=0, note=62, velocity=95, time=0),
    Message('note_off', channel=0, note=55, velocity=95, time=0),
    Message('note_on', channel=0, note=55, velocity=95, time=0),
    Message('note_on', channel=0, note=62, velocity=95, time=2),
    Message('note_on', channel=0, note=67, velocity=95, time=2),
    Message('note_off', channel=0, note=67, velocity=95, time=236),
    Message('note_off', channel=0, note=62, velocity=95, time=0),
    Message('note_off', channel=0, note=55, velocity=95, time=0),
    Message('note_on', channel=0, note=67, velocity=95, time=0),
    Message('note_on', channel=0, note=62, velocity=95, time=2),
    Message('note_on', channel=0, note=55, velocity=95, time=2),
    Message('note_off', channel=0, note=67, velocity=95, time=236),
    Message('note_off', channel=0, note=62, velocity=95, time=0),
    Message('note_off', channel=0, note=55, velocity=95, time=0),
    Message('note_on', channel=0, note=55, velocity=95, time=0),
    Message('note_on', channel=0, note=62, velocity=95, time=2),
    Message('note_on', channel=0, note=67, velocity=95, time=2),
    Message('note_off', channel=0, note=67, velocity=95, time=236),
    Message('note_off', channel=0, note=62, velocity=95, time=0),
    Message('note_off', channel=0, note=55, velocity=95, time=0),
    Message('note_on', channel=0, note=67, velocity=95, time=0),
    Message('note_on', channel=0, note=62, velocity=95, time=2),
    Message('note_on', channel=0, note=55, velocity=95, time=2),
    Message('note_off', channel=0, note=67, velocity=95, time=236),
    Message('note_off', channel=0, note=62, velocity=95, time=0),
    Message('note_off', channel=0, note=55, velocity=95, time=0),
    Message('note_on', channel=0, note=55, velocity=95, time=0),
    Message('note_on', channel=0, note=62, velocity=95, time=2),
    Message('note_on', channel=0, note=67, velocity=95, time=2),
    Message('note_off', channel=0, note=67, velocity=95, time=236),
    Message('note_off', channel=0, note=62, velocity=95, time=0),
    Message('note_off', channel=0, note=55, velocity=95, time=0),
    Message('note_on', channel=0, note=55, velocity=95, time=0),
    Message('note_on', channel=0, note=50, velocity=95, time=2),
    Message('note_on', channel=0, note=45, velocity=95, time=2),
    Message('note_off', channel=0, note=55, velocity=95, time=34),
    Message('note_off', channel=0, note=50, velocity=95, time=0),
    Message('note_off', channel=0, note=45, velocity=95, time=0),
    Message('note_on', channel=0, note=45, velocity=95, time=202),
    Message('note_on', channel=0, note=57, velocity=95, time=4),
    Message('note_on', channel=0, note=62, velocity=95, time=4),
    Message('note_on', channel=0, note=66, velocity=95, time=4),
    Message('note_off', channel=0, note=66, velocity=95, time=468),
    Message('note_off', channel=0, note=62, velocity=95, time=0),
    Message('note_off', channel=0, note=57, velocity=95, time=0),
    Message('note_off', channel=0, note=45, velocity=95, time=0),
    Message('note_on', channel=0, note=45, velocity=95, time=0),
    Message('note_on', channel=0, note=57, velocity=95, time=2),
    Message('note_on', channel=0, note=62, velocity=95, time=2),
    Message('note_on', channel=0, note=66, velocity=95, time=2),
    Message('note_off', channel=0, note=66, velocity=95, time=234),
    Message('note_off', channel=0, note=62, velocity=95, time=0),
    Message('note_off', channel=0, note=57, velocity=95, time=0),
    Message('note_off', channel=0, note=45, velocity=95, time=0),
    Message('note_on', channel=0, note=66, velocity=95, time=0),
    Message('note_on', channel=0, note=62, velocity=95, time=2),
    Message('note_on', channel=0, note=57, velocity=95, time=2),
    Message('note_on', channel=0, note=45, velocity=95, time=2),
    Message('note_off', channel=0, note=66, velocity=95, time=234),
    Message('note_off', channel=0, note=62, velocity=95, time=0),
    Message('note_off', channel=0, note=57, velocity=95, time=0),
    Message('note_off', channel=0, note=45, velocity=95, time=0),
    Message('note_on', channel=0, note=45, velocity=95, time=0),
    Message('note_on', channel=0, note=57, velocity=95, time=2),
    Message('note_on', channel=0, note=62, velocity=95, time=2),
    Message('note_on', channel=0, note=66, velocity=95, time=2),
    Message('note_off', channel=0, note=66, velocity=95, time=234),
    Message('note_off', channel=0, note=62, velocity=95, time=0),
    Message('note_off', channel=0, note=57, velocity=95, time=0),
    Message('note_off', channel=0, note=45, velocity=95, time=0),
    Message('note_on', channel=0, note=66, velocity=95, time=0),
    Message('note_on', channel=0, note=62, velocity=95, time=2),
    Message('note_on', channel=0, note=57, velocity=95, time=2),
    Message('note_on', channel=0, note=45, velocity=95, time=2),
    Message('note_off', channel=0, note=66, velocity=95, time=234),
    Message('note_off', channel=0, note=62, velocity=95, time=0),
    Message('note_off', channel=0, note=57, velocity=95, time=0),
    Message('note_off', channel=0, note=45, velocity=95, time=0),
    Message('note_on', channel=0, note=45, velocity=95, time=0),
    Message('note_on', channel=0, note=57, velocity=95, time=2),
    Message('note_on', channel=0, note=62, velocity=95, time=2),
    Message('note_on', channel=0, note=66, velocity=95, time=2),
    Message('note_off', channel=0, note=66, velocity=95, time=234),
    Message('note_off', channel=0, note=62, velocity=95, time=0),
    Message('note_off', channel=0, note=57, velocity=95, time=0),
    Message('note_off', channel=0, note=45, velocity=95, time=0),
    Message('note_on', channel=0, note=55, velocity=95, time=0),
    Message('note_on', channel=0, note=50, velocity=95, time=2),
    Message('note_on', channel=0, note=45, velocity=95, time=2),
    Message('note_off', channel=0, note=55, velocity=95, time=34),
    Message('note_off', channel=0, note=50, velocity=95, time=0),
    Message('note_off', channel=0, note=45, velocity=95, time=0),
    Message('note_on', channel=0, note=45, velocity=95, time=202),
    Message('note_on', channel=0, note=52, velocity=95, time=4),
    Message('note_on', channel=0, note=57, velocity=95, time=4),
    Message('note_off', channel=0, note=57, velocity=95, time=472),
    Message('note_off', channel=0, note=52, velocity=95, time=0),
    Message('note_off', channel=0, note=45, velocity=95, time=0),
    Message('note_on', channel=0, note=45, velocity=95, time=0),
    Message('note_on', channel=0, note=52, velocity=95, time=2),
    Message('note_on', channel=0, note=57, velocity=95, time=2),
    Message('note_off', channel=0, note=57, velocity=95, time=236),
    Message('note_off', channel=0, note=52, velocity=95, time=0),
    Message('note_off', channel=0, note=45, velocity=95, time=0),
    Message('note_on', channel=0, note=57, velocity=95, time=0),
    Message('note_on', channel=0, note=52, velocity=95, time=2),
    Message('note_on', channel=0, note=45, velocity=95, time=2),
    Message('note_off', channel=0, note=57, velocity=95, time=236),
    Message('note_off', channel=0, note=52, velocity=95, time=0),
    Message('note_off', channel=0, note=45, velocity=95, time=0),
    Message('note_on', channel=0, note=45, velocity=95, time=0),
    Message('note_on', channel=0, note=52, velocity=95, time=2),
    Message('note_on', channel=0, note=57, velocity=95, time=2),
    Message('note_off', channel=0, note=57, velocity=95, time=236),
    Message('note_off', channel=0, note=52, velocity=95, time=0),
    Message('note_off', channel=0, note=45, velocity=95, time=0),
    Message('note_on', channel=0, note=57, velocity=95, time=0),
    Message('note_on', channel=0, note=52, velocity=95, time=2),
    Message('note_on', channel=0, note=45, velocity=95, time=2),
    Message('note_off', channel=0, note=57, velocity=95, time=236),
    Message('note_off', channel=0, note=52, velocity=95, time=0),
    Message('note_off', channel=0, note=45, velocity=95, time=0),
    Message('note_on', channel=0, note=45, velocity=95, time=0),
    Message('note_on', channel=0, note=52, velocity=95, time=2),
    Message('note_on', channel=0, note=57, velocity=95, time=2),
    Message('note_off', channel=0, note=57, velocity=95, time=236),
    Message('note_off', channel=0, note=52, velocity=95, time=0),
    Message('note_off', channel=0, note=45, velocity=95, time=0),
    Message('note_on', channel=0, note=50, velocity=95, time=0),
    Message('note_on', channel=0, note=45, velocity=95, time=2),
    Message('note_on', channel=0, note=40, velocity=95, time=2),
    Message('note_off', channel=0, note=50, velocity=95, time=34),
    Message('note_off', channel=0, note=45, velocity=95, time=0),
    Message('note_off', channel=0, note=40, velocity=95, time=0),
    Message('note_on', channel=0, note=52, velocity=95, time=202),
    Message('note_on', channel=0, note=59, velocity=95, time=4),
    Message('note_on', channel=0, note=64, velocity=95, time=4),
    Message('note_off', channel=0, note=64, velocity=95, time=472),
    Message('note_off', channel=0, note=59, velocity=95, time=0),
    Message('note_off', channel=0, note=52, velocity=95, time=0),
    Message('note_on', channel=0, note=52, velocity=95, time=0),
    Message('note_on', channel=0, note=59, velocity=95, time=2),
    Message('note_on', channel=0, note=64, velocity=95, time=2),
    Message('note_off', channel=0, note=64, velocity=95, time=236),
    Message('note_off', channel=0, note=59, velocity=95, time=0),
    Message('note_off', channel=0, note=52, velocity=95, time=0),
    Message('note_on', channel=0, note=64, velocity=95, time=0),
    Message('note_on', channel=0, note=59, velocity=95, time=2),
    Message('note_on', channel=0, note=52, velocity=95, time=2),
    Message('note_off', channel=0, note=64, velocity=95, time=236),
    Message('note_off', channel=0, note=59, velocity=95, time=0),
    Message('note_off', channel=0, note=52, velocity=95, time=0),
    Message('note_on', channel=0, note=52, velocity=95, time=0),
    Message('note_on', channel=0, note=59, velocity=95, time=2),
    Message('note_on', channel=0, note=64, velocity=95, time=2),
    Message('note_off', channel=0, note=64, velocity=95, time=236),
    Message('note_off', channel=0, note=59, velocity=95, time=0),
    Message('note_off', channel=0, note=52, velocity=95, time=0),
    Message('note_on', channel=0, note=64, velocity=95, time=0),
    Message('note_on', channel=0, note=59, velocity=95, time=2),
    Message('note_on', channel=0, note=52, velocity=95, time=2),
    Message('note_off', channel=0, note=64, velocity=95, time=236),
    Message('note_off', channel=0, note=59, velocity=95, time=0),
    Message('note_off', channel=0, note=52, velocity=95, time=0),
    Message('note_on', channel=0, note=52, velocity=95, time=0),
    Message('note_on', channel=0, note=59, velocity=95, time=2),
    Message('note_on', channel=0, note=64, velocity=95, time=2),
    Message('note_off', channel=0, note=64, velocity=95, time=236),
    Message('note_off', channel=0, note=59, velocity=95, time=0),
    Message('note_off', channel=0, note=52, velocity=95, time=0),
    Message('note_on', channel=0, note=55, velocity=95, time=0),
    Message('note_on', channel=0, note=50, velocity=95, time=2),
    Message('note_on', channel=0, note=45, velocity=95, time=2),
    Message('note_off', channel=0, note=55, velocity=95, time=34),
    Message('note_off', channel=0, note=50, velocity=95, time=0),
    Message('note_off', channel=0, note=45, velocity=95, time=0),
    Message('note_on', channel=0, note=55, velocity=95, time=202),
    Message('note_on', channel=0, note=62, velocity=95, time=4),
    Message('note_on', channel=0, note=67, velocity=95, time=4),
    Message('note_off', channel=0, note=67, velocity=95, time=472),
    Message('note_off', channel=0, note=62, velocity=95, time=0),
    Message('note_off', channel=0, note=55, velocity=95, time=0),
    Message('note_on', channel=0, note=55, velocity=95, time=0),
    Message('note_on', channel=0, note=62, velocity=95, time=2),
    Message('note_on', channel=0, note=67, velocity=95, time=2),
    Message('note_off', channel=0, note=67, velocity=95, time=236),
    Message('note_off', channel=0, note=62, velocity=95, time=0),
    Message('note_off', channel=0, note=55, velocity=95, time=0),
    Message('note_on', channel=0, note=67, velocity=95, time=0),
    Message('note_on', channel=0, note=62, velocity=95, time=2),
    Message('note_on', channel=0, note=55, velocity=95, time=2),
    Message('note_off', channel=0, note=67, velocity=95, time=236),
    Message('note_off', channel=0, note=62, velocity=95, time=0),
    Message('note_off', channel=0, note=55, velocity=95, time=0),
    Message('note_on', channel=0, note=55, velocity=95, time=0),
    Message('note_on', channel=0, note=62, velocity=95, time=2),
    Message('note_on', channel=0, note=67, velocity=95, time=2),
    Message('note_off', channel=0, note=67, velocity=95, time=236),
    Message('note_off', channel=0, note=62, velocity=95, time=0),
    Message('note_off', channel=0, note=55, velocity=95, time=0),
    Message('note_on', channel=0, note=67, velocity=95, time=0),
    Message('note_on', channel=0, note=62, velocity=95, time=2),
    Message('note_on', channel=0, note=55, velocity=95, time=2),
    Message('note_off', channel=0, note=67, velocity=95, time=236),
    Message('note_off', channel=0, note=62, velocity=95, time=0),
    Message('note_off', channel=0, note=55, velocity=95, time=0),
    Message('note_on', channel=0, note=55, velocity=95, time=0),
    Message('note_on', channel=0, note=62, velocity=95, time=2),
    Message('note_on', channel=0, note=67, velocity=95, time=2),
    Message('note_off', channel=0, note=67, velocity=95, time=236),
    Message('note_off', channel=0, note=62, velocity=95, time=0),
    Message('note_off', channel=0, note=55, velocity=95, time=0),
    Message('note_on', channel=0, note=55, velocity=95, time=0),
    Message('note_on', channel=0, note=50, velocity=95, time=2),
    Message('note_on', channel=0, note=45, velocity=95, time=2),
    Message('note_off', channel=0, note=55, velocity=95, time=34),
    Message('note_off', channel=0, note=50, velocity=95, time=0),
    Message('note_off', channel=0, note=45, velocity=95, time=0),
    Message('note_on', channel=0, note=45, velocity=95, time=202),
    Message('note_on', channel=0, note=57, velocity=95, time=4),
    Message('note_on', channel=0, note=62, velocity=95, time=4),
    Message('note_on', channel=0, note=66, velocity=95, time=4),
    Message('note_off', channel=0, note=66, velocity=95, time=468),
    Message('note_off', channel=0, note=62, velocity=95, time=0),
    Message('note_off', channel=0, note=57, velocity=95, time=0),
    Message('note_off', channel=0, note=45, velocity=95, time=0),
    Message('note_on', channel=0, note=45, velocity=95, time=0),
    Message('note_on', channel=0, note=57, velocity=95, time=2),
    Message('note_on', channel=0, note=62, velocity=95, time=2),
    Message('note_on', channel=0, note=66, velocity=95, time=2),
    Message('note_off', channel=0, note=66, velocity=95, time=234),
    Message('note_off', channel=0, note=62, velocity=95, time=0),
    Message('note_off', channel=0, note=57, velocity=95, time=0),
    Message('note_off', channel=0, note=45, velocity=95, time=0),
    Message('note_on', channel=0, note=66, velocity=95, time=0),
    Message('note_on', channel=0, note=62, velocity=95, time=2),
    Message('note_on', channel=0, note=57, velocity=95, time=2),
    Message('note_on', channel=0, note=45, velocity=95, time=2),
    Message('note_off', channel=0, note=66, velocity=95, time=234),
    Message('note_off', channel=0, note=62, velocity=95, time=0),
    Message('note_off', channel=0, note=57, velocity=95, time=0),
    Message('note_off', channel=0, note=45, velocity=95, time=0),
    Message('note_on', channel=0, note=45, velocity=95, time=0),
    Message('note_on', channel=0, note=57, velocity=95, time=2),
    Message('note_on', channel=0, note=62, velocity=95, time=2),
    Message('note_on', channel=0, note=66, velocity=95, time=2),
    Message('note_off', channel=0, note=66, velocity=95, time=234),
    Message('note_off', channel=0, note=62, velocity=95, time=0),
    Message('note_off', channel=0, note=57, velocity=95, time=0),
    Message('note_off', channel=0, note=45, velocity=95, time=0),
    Message('note_on', channel=0, note=66, velocity=95, time=0),
    Message('note_on', channel=0, note=62, velocity=95, time=2),
    Message('note_on', channel=0, note=57, velocity=95, time=2),
    Message('note_on', channel=0, note=45, velocity=95, time=2),
    Message('note_off', channel=0, note=66, velocity=95, time=234),
    Message('note_off', channel=0, note=62, velocity=95, time=0),
    Message('note_off', channel=0, note=57, velocity=95, time=0),
    Message('note_off', channel=0, note=45, velocity=95, time=0),
    Message('note_on', channel=0, note=45, velocity=95, time=0),
    Message('note_on', channel=0, note=57, velocity=95, time=2),
    Message('note_on', channel=0, note=62, velocity=95, time=2),
    Message('note_on', channel=0, note=66, velocity=95, time=2),
    Message('note_off', channel=0, note=66, velocity=95, time=234),
    Message('note_off', channel=0, note=62, velocity=95, time=0),
    Message('note_off', channel=0, note=57, velocity=95, time=0),
    Message('note_off', channel=0, note=45, velocity=95, time=0),
    Message('note_on', channel=0, note=55, velocity=95, time=0),
    Message('note_on', channel=0, note=50, velocity=95, time=2),
    Message('note_on', channel=0, note=45, velocity=95, time=2),
    Message('note_off', channel=0, note=55, velocity=95, time=34),
    Message('note_off', channel=0, note=50, velocity=95, time=0),
    Message('note_off', channel=0, note=45, velocity=95, time=0),
    Message('note_on', channel=0, note=45, velocity=95, time=202),
    Message('note_on', channel=0, note=52, velocity=95, time=4),
    Message('note_on', channel=0, note=57, velocity=95, time=4),
    Message('note_off', channel=0, note=57, velocity=95, time=472),
    Message('note_off', channel=0, note=52, velocity=95, time=0),
    Message('note_off', channel=0, note=45, velocity=95, time=0),
    Message('note_on', channel=0, note=45, velocity=95, time=0),
    Message('note_on', channel=0, note=52, velocity=95, time=2),
    Message('note_on', channel=0, note=57, velocity=95, time=2),
    Message('note_off', channel=0, note=57, velocity=95, time=236),
    Message('note_off', channel=0, note=52, velocity=95, time=0),
    Message('note_off', channel=0, note=45, velocity=95, time=0),
    Message('note_on', channel=0, note=57, velocity=95, time=0),
    Message('note_on', channel=0, note=52, velocity=95, time=2),
    Message('note_on', channel=0, note=45, velocity=95, time=2),
    Message('note_off', channel=0, note=57, velocity=95, time=236),
    Message('note_off', channel=0, note=52, velocity=95, time=0),
    Message('note_off', channel=0, note=45, velocity=95, time=0),
    Message('note_on', channel=0, note=45, velocity=95, time=0),
    Message('note_on', channel=0, note=52, velocity=95, time=2),
    Message('note_on', channel=0, note=57, velocity=95, time=2),
    Message('note_off', channel=0, note=57, velocity=95, time=236),
    Message('note_off', channel=0, note=52, velocity=95, time=0),
    Message('note_off', channel=0, note=45, velocity=95, time=0),
    Message('note_on', channel=0, note=57, velocity=95, time=0),
    Message('note_on', channel=0, note=52, velocity=95, time=2),
    Message('note_on', channel=0, note=45, velocity=95, time=2),
    Message('note_off', channel=0, note=57, velocity=95, time=236),
    Message('note_off', channel=0, note=52, velocity=95, time=0),
    Message('note_off', channel=0, note=45, velocity=95, time=0),
    Message('note_on', channel=0, note=45, velocity=95, time=0),
    Message('note_on', channel=0, note=52, velocity=95, time=2),
    Message('note_on', channel=0, note=57, velocity=95, time=2),
    Message('note_off', channel=0, note=57, velocity=95, time=236),
    Message('note_off', channel=0, note=52, velocity=95, time=0),
    Message('note_off', channel=0, note=45, velocity=95, time=0),
    Message('note_on', channel=0, note=50, velocity=95, time=0),
    Message('note_on', channel=0, note=45, velocity=95, time=2),
    Message('note_on', channel=0, note=40, velocity=95, time=2),
    Message('note_off', channel=0, note=50, velocity=95, time=34),
    Message('note_off', channel=0, note=45, velocity=95, time=0),
    Message('note_off', channel=0, note=40, velocity=95, time=0),
    Message('note_on', channel=0, note=52, velocity=95, time=202),
    Message('note_on', channel=0, note=59, velocity=95, time=4),
    Message('note_on', channel=0, note=64, velocity=95, time=4),
    Message('note_off', channel=0, note=64, velocity=95, time=472),
    Message('note_off', channel=0, note=59, velocity=95, time=0),
    Message('note_off', channel=0, note=52, velocity=95, time=0),
    Message('note_on', channel=0, note=52, velocity=95, time=0),
    Message('note_on', channel=0, note=59, velocity=95, time=2),
    Message('note_on', channel=0, note=64, velocity=95, time=2),
    Message('note_off', channel=0, note=64, velocity=95, time=236),
    Message('note_off', channel=0, note=59, velocity=95, time=0),
    Message('note_off', channel=0, note=52, velocity=95, time=0),
    Message('note_on', channel=0, note=64, velocity=95, time=0),
    Message('note_on', channel=0, note=59, velocity=95, time=2),
    Message('note_on', channel=0, note=52, velocity=95, time=2),
    Message('note_off', channel=0, note=64, velocity=95, time=236),
    Message('note_off', channel=0, note=59, velocity=95, time=0),
    Message('note_off', channel=0, note=52, velocity=95, time=0),
    Message('note_on', channel=0, note=52, velocity=95, time=0),
    Message('note_on', channel=0, note=59, velocity=95, time=2),
    Message('note_on', channel=0, note=64, velocity=95, time=2),
    Message('note_off', channel=0, note=64, velocity=95, time=236),
    Message('note_off', channel=0, note=59, velocity=95, time=0),
    Message('note_off', channel=0, note=52, velocity=95, time=0),
    Message('note_on', channel=0, note=64, velocity=95, time=0),
    Message('note_on', channel=0, note=59, velocity=95, time=2),
    Message('note_on', channel=0, note=52, velocity=95, time=2),
    Message('note_off', channel=0, note=64, velocity=95, time=236),
    Message('note_off', channel=0, note=59, velocity=95, time=0),
    Message('note_off', channel=0, note=52, velocity=95, time=0),
    Message('note_on', channel=0, note=52, velocity=95, time=0),
    Message('note_on', channel=0, note=59, velocity=95, time=2),
    Message('note_on', channel=0, note=64, velocity=95, time=2),
    Message('note_off', channel=0, note=64, velocity=95, time=236),
    Message('note_off', channel=0, note=59, velocity=95, time=0),
    Message('note_off', channel=0, note=52, velocity=95, time=0),
    Message('note_on', channel=0, note=55, velocity=95, time=0),
    Message('note_on', channel=0, note=50, velocity=95, time=2),
    Message('note_on', channel=0, note=45, velocity=95, time=2),
    Message('note_off', channel=0, note=55, velocity=95, time=34),
    Message('note_off', channel=0, note=50, velocity=95, time=0),
    Message('note_off', channel=0, note=45, velocity=95, time=0),
    Message('note_on', channel=0, note=55, velocity=95, time=202),
    Message('note_on', channel=0, note=62, velocity=95, time=4),
    Message('note_on', channel=0, note=67, velocity=95, time=4),
    Message('note_off', channel=0, note=67, velocity=95, time=472),
    Message('note_off', channel=0, note=62, velocity=95, time=0),
    Message('note_off', channel=0, note=55, velocity=95, time=0),
    Message('note_on', channel=0, note=55, velocity=95, time=0),
    Message('note_on', channel=0, note=62, velocity=95, time=2),
    Message('note_on', channel=0, note=67, velocity=95, time=2),
    Message('note_off', channel=0, note=67, velocity=95, time=236),
    Message('note_off', channel=0, note=62, velocity=95, time=0),
    Message('note_off', channel=0, note=55, velocity=95, time=0),
    Message('note_on', channel=0, note=67, velocity=95, time=0),
    Message('note_on', channel=0, note=62, velocity=95, time=2),
    Message('note_on', channel=0, note=55, velocity=95, time=2),
    Message('note_off', channel=0, note=67, velocity=95, time=236),
    Message('note_off', channel=0, note=62, velocity=95, time=0),
    Message('note_off', channel=0, note=55, velocity=95, time=0),
    Message('note_on', channel=0, note=55, velocity=95, time=0),
    Message('note_on', channel=0, note=62, velocity=95, time=2),
    Message('note_on', channel=0, note=67, velocity=95, time=2),
    Message('note_off', channel=0, note=67, velocity=95, time=236),
    Message('note_off', channel=0, note=62, velocity=95, time=0),
    Message('note_off', channel=0, note=55, velocity=95, time=0),
    Message('note_on', channel=0, note=67, velocity=95, time=0),
    Message('note_on', channel=0, note=62, velocity=95, time=2),
    Message('note_on', channel=0, note=55, velocity=95, time=2),
    Message('note_off', channel=0, note=67, velocity=95, time=236),
    Message('note_off', channel=0, note=62, velocity=95, time=0),
    Message('note_off', channel=0, note=55, velocity=95, time=0),
    Message('note_on', channel=0, note=55, velocity=95, time=0),
    Message('note_on', channel=0, note=62, velocity=95, time=2),
    Message('note_on', channel=0, note=67, velocity=95, time=2),
    Message('note_off', channel=0, note=67, velocity=95, time=236),
    Message('note_off', channel=0, note=62, velocity=95, time=0),
    Message('note_off', channel=0, note=55, velocity=95, time=0),
    Message('note_on', channel=0, note=55, velocity=95, time=0),
    Message('note_on', channel=0, note=50, velocity=95, time=2),
    Message('note_on', channel=0, note=45, velocity=95, time=2),
    Message('note_off', channel=0, note=55, velocity=95, time=34),
    Message('note_off', channel=0, note=50, velocity=95, time=0),
    Message('note_off', channel=0, note=45, velocity=95, time=0),
    Message('note_on', channel=0, note=45, velocity=95, time=202),
    Message('note_on', channel=0, note=57, velocity=95, time=4),
    Message('note_on', channel=0, note=62, velocity=95, time=4),
    Message('note_on', channel=0, note=66, velocity=95, time=4),
    Message('note_off', channel=0, note=66, velocity=95, time=468),
    Message('note_off', channel=0, note=62, velocity=95, time=0),
    Message('note_off', channel=0, note=57, velocity=95, time=0),
    Message('note_off', channel=0, note=45, velocity=95, time=0),
    Message('note_on', channel=0, note=45, velocity=95, time=0),
    Message('note_on', channel=0, note=57, velocity=95, time=2),
    Message('note_on', channel=0, note=62, velocity=95, time=2),
    Message('note_on', channel=0, note=66, velocity=95, time=2),
    Message('note_off', channel=0, note=66, velocity=95, time=234),
    Message('note_off', channel=0, note=62, velocity=95, time=0),
    Message('note_off', channel=0, note=57, velocity=95, time=0),
    Message('note_off', channel=0, note=45, velocity=95, time=0),
    Message('note_on', channel=0, note=66, velocity=95, time=0),
    Message('note_on', channel=0, note=62, velocity=95, time=2),
    Message('note_on', channel=0, note=57, velocity=95, time=2),
    Message('note_on', channel=0, note=45, velocity=95, time=2),
    Message('note_off', channel=0, note=66, velocity=95, time=234),
    Message('note_off', channel=0, note=62, velocity=95, time=0),
    Message('note_off', channel=0, note=57, velocity=95, time=0),
    Message('note_off', channel=0, note=45, velocity=95, time=0),
    Message('note_on', channel=0, note=45, velocity=95, time=0),
    Message('note_on', channel=0, note=57, velocity=95, time=2),
    Message('note_on', channel=0, note=62, velocity=95, time=2),
    Message('note_on', channel=0, note=66, velocity=95, time=2),
    Message('note_off', channel=0, note=66, velocity=95, time=234),
    Message('note_off', channel=0, note=62, velocity=95, time=0),
    Message('note_off', channel=0, note=57, velocity=95, time=0),
    Message('note_off', channel=0, note=45, velocity=95, time=0),
    Message('note_on', channel=0, note=66, velocity=95, time=0),
    Message('note_on', channel=0, note=62, velocity=95, time=2),
    Message('note_on', channel=0, note=57, velocity=95, time=2),
    Message('note_on', channel=0, note=45, velocity=95, time=2),
    Message('note_off', channel=0, note=66, velocity=95, time=234),
    Message('note_off', channel=0, note=62, velocity=95, time=0),
    Message('note_off', channel=0, note=57, velocity=95, time=0),
    Message('note_off', channel=0, note=45, velocity=95, time=0),
    Message('note_on', channel=0, note=45, velocity=95, time=0),
    Message('note_on', channel=0, note=57, velocity=95, time=2),
    Message('note_on', channel=0, note=62, velocity=95, time=2),
    Message('note_on', channel=0, note=66, velocity=95, time=2),
    Message('note_off', channel=0, note=66, velocity=95, time=234),
    Message('note_off', channel=0, note=62, velocity=95, time=0),
    Message('note_off', channel=0, note=57, velocity=95, time=0),
    Message('note_off', channel=0, note=45, velocity=95, time=0),
    Message('note_on', channel=0, note=55, velocity=95, time=0),
    Message('note_on', channel=0, note=50, velocity=95, time=2),
    Message('note_on', channel=0, note=45, velocity=95, time=2),
    Message('note_off', channel=0, note=55, velocity=95, time=34),
    Message('note_off', channel=0, note=50, velocity=95, time=0),
    Message('note_off', channel=0, note=45, velocity=95, time=0),
    Message('note_on', channel=0, note=45, velocity=95, time=202),
    Message('note_on', channel=0, note=52, velocity=95, time=4),
    Message('note_on', channel=0, note=57, velocity=95, time=4),
    Message('note_off', channel=0, note=57, velocity=95, time=472),
    Message('note_off', channel=0, note=52, velocity=95, time=0),
    Message('note_off', channel=0, note=45, velocity=95, time=0),
    Message('note_on', channel=0, note=45, velocity=95, time=0),
    Message('note_on', channel=0, note=52, velocity=95, time=2),
    Message('note_on', channel=0, note=57, velocity=95, time=2),
    Message('note_off', channel=0, note=57, velocity=95, time=236),
    Message('note_off', channel=0, note=52, velocity=95, time=0),
    Message('note_off', channel=0, note=45, velocity=95, time=0),
    Message('note_on', channel=0, note=57, velocity=95, time=0),
    Message('note_on', channel=0, note=52, velocity=95, time=2),
    Message('note_on', channel=0, note=45, velocity=95, time=2),
    Message('note_off', channel=0, note=57, velocity=95, time=236),
    Message('note_off', channel=0, note=52, velocity=95, time=0),
    Message('note_off', channel=0, note=45, velocity=95, time=0),
    Message('note_on', channel=0, note=45, velocity=95, time=0),
    Message('note_on', channel=0, note=52, velocity=95, time=2),
    Message('note_on', channel=0, note=57, velocity=95, time=2),
    Message('note_off', channel=0, note=57, velocity=95, time=236),
    Message('note_off', channel=0, note=52, velocity=95, time=0),
    Message('note_off', channel=0, note=45, velocity=95, time=0),
    Message('note_on', channel=0, note=57, velocity=95, time=0),
    Message('note_on', channel=0, note=52, velocity=95, time=2),
    Message('note_on', channel=0, note=45, velocity=95, time=2),
    Message('note_off', channel=0, note=57, velocity=95, time=236),
    Message('note_off', channel=0, note=52, velocity=95, time=0),
    Message('note_off', channel=0, note=45, velocity=95, time=0),
    Message('note_on', channel=0, note=45, velocity=95, time=0),
    Message('note_on', channel=0, note=52, velocity=95, time=2),
    Message('note_on', channel=0, note=57, velocity=95, time=2),
    Message('note_off', channel=0, note=57, velocity=95, time=236),
    Message('note_off', channel=0, note=52, velocity=95, time=0),
    Message('note_off', channel=0, note=45, velocity=95, time=0),
    Message('note_on', channel=0, note=50, velocity=95, time=0),
    Message('note_on', channel=0, note=45, velocity=95, time=2),
    Message('note_on', channel=0, note=40, velocity=95, time=2),
    Message('note_off', channel=0, note=50, velocity=95, time=34),
    Message('note_off', channel=0, note=45, velocity=95, time=0),
    Message('note_off', channel=0, note=40, velocity=95, time=0),
    Message('note_on', channel=0, note=52, velocity=95, time=202),
    Message('note_on', channel=0, note=59, velocity=95, time=4),
    Message('note_on', channel=0, note=64, velocity=95, time=4),
    Message('note_off', channel=0, note=64, velocity=95, time=472),
    Message('note_off', channel=0, note=59, velocity=95, time=0),
    Message('note_off', channel=0, note=52, velocity=95, time=0),
    Message('note_on', channel=0, note=52, velocity=95, time=0),
    Message('note_on', channel=0, note=59, velocity=95, time=2),
    Message('note_on', channel=0, note=64, velocity=95, time=2),
    Message('note_off', channel=0, note=64, velocity=95, time=236),
    Message('note_off', channel=0, note=59, velocity=95, time=0),
    Message('note_off', channel=0, note=52, velocity=95, time=0),
    Message('note_on', channel=0, note=64, velocity=95, time=0),
    Message('note_on', channel=0, note=59, velocity=95, time=2),
    Message('note_on', channel=0, note=52, velocity=95, time=2),
    Message('note_off', channel=0, note=64, velocity=95, time=236),
    Message('note_off', channel=0, note=59, velocity=95, time=0),
    Message('note_off', channel=0, note=52, velocity=95, time=0),
    Message('note_on', channel=0, note=52, velocity=95, time=0),
    Message('note_on', channel=0, note=59, velocity=95, time=2),
    Message('note_on', channel=0, note=64, velocity=95, time=2),
    Message('note_off', channel=0, note=64, velocity=95, time=236),
    Message('note_off', channel=0, note=59, velocity=95, time=0),
    Message('note_off', channel=0, note=52, velocity=95, time=0),
    Message('note_on', channel=0, note=64, velocity=95, time=0),
    Message('note_on', channel=0, note=59, velocity=95, time=2),
    Message('note_on', channel=0, note=52, velocity=95, time=2),
    Message('note_off', channel=0, note=64, velocity=95, time=236),
    Message('note_off', channel=0, note=59, velocity=95, time=0),
    Message('note_off', channel=0, note=52, velocity=95, time=0),
    Message('note_on', channel=0, note=52, velocity=95, time=0),
    Message('note_on', channel=0, note=59, velocity=95, time=2),
    Message('note_on', channel=0, note=64, velocity=95, time=2),
    Message('note_off', channel=0, note=64, velocity=95, time=236),
    Message('note_off', channel=0, note=59, velocity=95, time=0),
    Message('note_off', channel=0, note=52, velocity=95, time=0),
    Message('note_on', channel=0, note=55, velocity=95, time=0),
    Message('note_on', channel=0, note=50, velocity=95, time=2),
    Message('note_on', channel=0, note=45, velocity=95, time=2),
    Message('note_off', channel=0, note=55, velocity=95, time=34),
    Message('note_off', channel=0, note=50, velocity=95, time=0),
    Message('note_off', channel=0, note=45, velocity=95, time=0),
    Message('note_on', channel=0, note=55, velocity=95, time=202),
    Message('note_on', channel=0, note=62, velocity=95, time=4),
    Message('note_on', channel=0, note=67, velocity=95, time=4),
    Message('note_off', channel=0, note=67, velocity=95, time=472),
    Message('note_off', channel=0, note=62, velocity=95, time=0),
    Message('note_off', channel=0, note=55, velocity=95, time=0),
    Message('note_on', channel=0, note=55, velocity=95, time=0),
    Message('note_on', channel=0, note=62, velocity=95, time=2),
    Message('note_on', channel=0, note=67, velocity=95, time=2),
    Message('note_off', channel=0, note=67, velocity=95, time=236),
    Message('note_off', channel=0, note=62, velocity=95, time=0),
    Message('note_off', channel=0, note=55, velocity=95, time=0),
    Message('note_on', channel=0, note=67, velocity=95, time=0),
    Message('note_on', channel=0, note=62, velocity=95, time=2),
    Message('note_on', channel=0, note=55, velocity=95, time=2),
    Message('note_off', channel=0, note=67, velocity=95, time=236),
    Message('note_off', channel=0, note=62, velocity=95, time=0),
    Message('note_off', channel=0, note=55, velocity=95, time=0),
    Message('note_on', channel=0, note=55, velocity=95, time=0),
    Message('note_on', channel=0, note=62, velocity=95, time=2),
    Message('note_on', channel=0, note=67, velocity=95, time=2),
    Message('note_off', channel=0, note=67, velocity=95, time=236),
    Message('note_off', channel=0, note=62, velocity=95, time=0),
    Message('note_off', channel=0, note=55, velocity=95, time=0),
    Message('note_on', channel=0, note=67, velocity=95, time=0),
    Message('note_on', channel=0, note=62, velocity=95, time=2),
    Message('note_on', channel=0, note=55, velocity=95, time=2),
    Message('note_off', channel=0, note=67, velocity=95, time=236),
    Message('note_off', channel=0, note=62, velocity=95, time=0),
    Message('note_off', channel=0, note=55, velocity=95, time=0),
    Message('note_on', channel=0, note=55, velocity=95, time=0),
    Message('note_on', channel=0, note=62, velocity=95, time=2),
    Message('note_on', channel=0, note=67, velocity=95, time=2),
    Message('note_off', channel=0, note=67, velocity=95, time=236),
    Message('note_off', channel=0, note=62, velocity=95, time=0),
    Message('note_off', channel=0, note=55, velocity=95, time=0),
    Message('note_on', channel=0, note=55, velocity=95, time=0),
    Message('note_on', channel=0, note=50, velocity=95, time=2),
    Message('note_on', channel=0, note=45, velocity=95, time=2),
    Message('note_off', channel=0, note=55, velocity=95, time=34),
    Message('note_off', channel=0, note=50, velocity=95, time=0),
    Message('note_off', channel=0, note=45, velocity=95, time=0),
    Message('note_on', channel=0, note=45, velocity=95, time=202),
    Message('note_on', channel=0, note=57, velocity=95, time=4),
    Message('note_on', channel=0, note=62, velocity=95, time=4),
    Message('note_on', channel=0, note=66, velocity=95, time=4),
    Message('note_off', channel=0, note=66, velocity=95, time=468),
    Message('note_off', channel=0, note=62, velocity=95, time=0),
    Message('note_off', channel=0, note=57, velocity=95, time=0),
    Message('note_off', channel=0, note=45, velocity=95, time=0),
    Message('note_on', channel=0, note=45, velocity=95, time=0),
    Message('note_on', channel=0, note=57, velocity=95, time=2),
    Message('note_on', channel=0, note=62, velocity=95, time=2),
    Message('note_on', channel=0, note=66, velocity=95, time=2),
    Message('note_off', channel=0, note=66, velocity=95, time=234),
    Message('note_off', channel=0, note=62, velocity=95, time=0),
    Message('note_off', channel=0, note=57, velocity=95, time=0),
    Message('note_off', channel=0, note=45, velocity=95, time=0),
    Message('note_on', channel=0, note=66, velocity=95, time=0),
    Message('note_on', channel=0, note=62, velocity=95, time=2),
    Message('note_on', channel=0, note=57, velocity=95, time=2),
    Message('note_on', channel=0, note=45, velocity=95, time=2),
    Message('note_off', channel=0, note=66, velocity=95, time=234),
    Message('note_off', channel=0, note=62, velocity=95, time=0),
    Message('note_off', channel=0, note=57, velocity=95, time=0),
    Message('note_off', channel=0, note=45, velocity=95, time=0),
    Message('note_on', channel=0, note=45, velocity=95, time=0),
    Message('note_on', channel=0, note=57, velocity=95, time=2),
    Message('note_on', channel=0, note=62, velocity=95, time=2),
    Message('note_on', channel=0, note=66, velocity=95, time=2),
    Message('note_off', channel=0, note=66, velocity=95, time=234),
    Message('note_off', channel=0, note=62, velocity=95, time=0),
    Message('note_off', channel=0, note=57, velocity=95, time=0),
    Message('note_off', channel=0, note=45, velocity=95, time=0),
    Message('note_on', channel=0, note=66, velocity=95, time=0),
    Message('note_on', channel=0, note=62, velocity=95, time=2),
    Message('note_on', channel=0, note=57, velocity=95, time=2),
    Message('note_on', channel=0, note=45, velocity=95, time=2),
    Message('note_off', channel=0, note=66, velocity=95, time=234),
    Message('note_off', channel=0, note=62, velocity=95, time=0),
    Message('note_off', channel=0, note=57, velocity=95, time=0),
    Message('note_off', channel=0, note=45, velocity=95, time=0),
    Message('note_on', channel=0, note=45, velocity=95, time=0),
    Message('note_on', channel=0, note=57, velocity=95, time=2),
    Message('note_on', channel=0, note=62, velocity=95, time=2),
    Message('note_on', channel=0, note=66, velocity=95, time=2),
    Message('note_off', channel=0, note=66, velocity=95, time=234),
    Message('note_off', channel=0, note=62, velocity=95, time=0),
    Message('note_off', channel=0, note=57, velocity=95, time=0),
    Message('note_off', channel=0, note=45, velocity=95, time=0),
    Message('note_on', channel=0, note=55, velocity=95, time=0),
    Message('note_on', channel=0, note=50, velocity=95, time=2),
    Message('note_on', channel=0, note=45, velocity=95, time=2),
    Message('note_off', channel=0, note=55, velocity=95, time=34),
    Message('note_off', channel=0, note=50, velocity=95, time=0),
    Message('note_off', channel=0, note=45, velocity=95, time=0),
    Message('note_on', channel=0, note=45, velocity=95, time=202),
    Message('note_on', channel=0, note=52, velocity=95, time=4),
    Message('note_on', channel=0, note=57, velocity=95, time=4),
    Message('note_off', channel=0, note=57, velocity=95, time=472),
    Message('note_off', channel=0, note=52, velocity=95, time=0),
    Message('note_off', channel=0, note=45, velocity=95, time=0),
    Message('note_on', channel=0, note=45, velocity=95, time=0),
    Message('note_on', channel=0, note=52, velocity=95, time=2),
    Message('note_on', channel=0, note=57, velocity=95, time=2),
    Message('note_off', channel=0, note=57, velocity=95, time=236),
    Message('note_off', channel=0, note=52, velocity=95, time=0),
    Message('note_off', channel=0, note=45, velocity=95, time=0),
    Message('note_on', channel=0, note=57, velocity=95, time=0),
    Message('note_on', channel=0, note=52, velocity=95, time=2),
    Message('note_on', channel=0, note=45, velocity=95, time=2),
    Message('note_off', channel=0, note=57, velocity=95, time=236),
    Message('note_off', channel=0, note=52, velocity=95, time=0),
    Message('note_off', channel=0, note=45, velocity=95, time=0),
    Message('note_on', channel=0, note=45, velocity=95, time=0),
    Message('note_on', channel=0, note=52, velocity=95, time=2),
    Message('note_on', channel=0, note=57, velocity=95, time=2),
    Message('note_off', channel=0, note=57, velocity=95, time=236),
    Message('note_off', channel=0, note=52, velocity=95, time=0),
    Message('note_off', channel=0, note=45, velocity=95, time=0),
    Message('note_on', channel=0, note=57, velocity=95, time=0),
    Message('note_on', channel=0, note=52, velocity=95, time=2),
    Message('note_on', channel=0, note=45, velocity=95, time=2),
    Message('note_off', channel=0, note=57, velocity=95, time=236),
    Message('note_off', channel=0, note=52, velocity=95, time=0),
    Message('note_off', channel=0, note=45, velocity=95, time=0),
    Message('note_on', channel=0, note=45, velocity=95, time=0),
    Message('note_on', channel=0, note=52, velocity=95, time=2),
    Message('note_on', channel=0, note=57, velocity=95, time=2),
    Message('note_off', channel=0, note=57, velocity=95, time=236),
    Message('note_off', channel=0, note=52, velocity=95, time=0),
    Message('note_off', channel=0, note=45, velocity=95, time=0),
    Message('note_on', channel=0, note=50, velocity=95, time=0),
    Message('note_on', channel=0, note=45, velocity=95, time=2),
    Message('note_on', channel=0, note=40, velocity=95, time=2),
    Message('note_off', channel=0, note=50, velocity=95, time=34),
    Message('note_off', channel=0, note=45, velocity=95, time=0),
    Message('note_off', channel=0, note=40, velocity=95, time=0),
    Message('note_on', channel=0, note=52, velocity=95, time=202),
    Message('note_on', channel=0, note=59, velocity=95, time=4),
    Message('note_on', channel=0, note=64, velocity=95, time=4),
    Message('note_off', channel=0, note=64, velocity=95, time=472),
    Message('note_off', channel=0, note=59, velocity=95, time=0),
    Message('note_off', channel=0, note=52, velocity=95, time=0),
    Message('note_on', channel=0, note=52, velocity=95, time=0),
    Message('note_on', channel=0, note=59, velocity=95, time=2),
    Message('note_on', channel=0, note=64, velocity=95, time=2),
    Message('note_off', channel=0, note=64, velocity=95, time=236),
    Message('note_off', channel=0, note=59, velocity=95, time=0),
    Message('note_off', channel=0, note=52, velocity=95, time=0),
    Message('note_on', channel=0, note=64, velocity=95, time=0),
    Message('note_on', channel=0, note=59, velocity=95, time=2),
    Message('note_on', channel=0, note=52, velocity=95, time=2),
    Message('note_off', channel=0, note=64, velocity=95, time=236),
    Message('note_off', channel=0, note=59, velocity=95, time=0),
    Message('note_off', channel=0, note=52, velocity=95, time=0),
    Message('note_on', channel=0, note=52, velocity=95, time=0),
    Message('note_on', channel=0, note=59, velocity=95, time=2),
    Message('note_on', channel=0, note=64, velocity=95, time=2),
    Message('note_off', channel=0, note=64, velocity=95, time=236),
    Message('note_off', channel=0, note=59, velocity=95, time=0),
    Message('note_off', channel=0, note=52, velocity=95, time=0),
    Message('note_on', channel=0, note=64, velocity=95, time=0),
    Message('note_on', channel=0, note=59, velocity=95, time=2),
    Message('note_on', channel=0, note=52, velocity=95, time=2),
    Message('note_off', channel=0, note=64, velocity=95, time=236),
    Message('note_off', channel=0, note=59, velocity=95, time=0),
    Message('note_off', channel=0, note=52, velocity=95, time=0),
    Message('note_on', channel=0, note=52, velocity=95, time=0),
    Message('note_on', channel=0, note=59, velocity=95, time=2),
    Message('note_on', channel=0, note=64, velocity=95, time=2),
    Message('note_off', channel=0, note=64, velocity=95, time=236),
    Message('note_off', channel=0, note=59, velocity=95, time=0),
    Message('note_off', channel=0, note=52, velocity=95, time=0),
    Message('note_on', channel=0, note=55, velocity=95, time=0),
    Message('note_on', channel=0, note=50, velocity=95, time=2),
    Message('note_on', channel=0, note=45, velocity=95, time=2),
    Message('note_off', channel=0, note=55, velocity=95, time=34),
    Message('note_off', channel=0, note=50, velocity=95, time=0),
    Message('note_off', channel=0, note=45, velocity=95, time=0),
    Message('note_on', channel=0, note=55, velocity=95, time=202),
    Message('note_on', channel=0, note=62, velocity=95, time=4),
    Message('note_on', channel=0, note=67, velocity=95, time=4),
    Message('note_off', channel=0, note=67, velocity=95, time=472),
    Message('note_off', channel=0, note=62, velocity=95, time=0),
    Message('note_off', channel=0, note=55, velocity=95, time=0),
    Message('note_on', channel=0, note=55, velocity=95, time=0),
    Message('note_on', channel=0, note=62, velocity=95, time=2),
    Message('note_on', channel=0, note=67, velocity=95, time=2),
    Message('note_off', channel=0, note=67, velocity=95, time=236),
    Message('note_off', channel=0, note=62, velocity=95, time=0),
    Message('note_off', channel=0, note=55, velocity=95, time=0),
    Message('note_on', channel=0, note=67, velocity=95, time=0),
    Message('note_on', channel=0, note=62, velocity=95, time=2),
    Message('note_on', channel=0, note=55, velocity=95, time=2),
    Message('note_off', channel=0, note=67, velocity=95, time=236),
    Message('note_off', channel=0, note=62, velocity=95, time=0),
    Message('note_off', channel=0, note=55, velocity=95, time=0),
    Message('note_on', channel=0, note=55, velocity=95, time=0),
    Message('note_on', channel=0, note=62, velocity=95, time=2),
    Message('note_on', channel=0, note=67, velocity=95, time=2),
    Message('note_off', channel=0, note=67, velocity=95, time=236),
    Message('note_off', channel=0, note=62, velocity=95, time=0),
    Message('note_off', channel=0, note=55, velocity=95, time=0),
    Message('note_on', channel=0, note=67, velocity=95, time=0),
    Message('note_on', channel=0, note=62, velocity=95, time=2),
    Message('note_on', channel=0, note=55, velocity=95, time=2),
    Message('note_off', channel=0, note=67, velocity=95, time=236),
    Message('note_off', channel=0, note=62, velocity=95, time=0),
    Message('note_off', channel=0, note=55, velocity=95, time=0),
    Message('note_on', channel=0, note=55, velocity=95, time=0),
    Message('note_on', channel=0, note=62, velocity=95, time=2),
    Message('note_on', channel=0, note=67, velocity=95, time=2),
    Message('note_off', channel=0, note=67, velocity=95, time=236),
    Message('note_off', channel=0, note=62, velocity=95, time=0),
    Message('note_off', channel=0, note=55, velocity=95, time=0),
    Message('note_on', channel=0, note=55, velocity=95, time=0),
    Message('note_on', channel=0, note=50, velocity=95, time=2),
    Message('note_on', channel=0, note=45, velocity=95, time=2),
    Message('note_off', channel=0, note=55, velocity=95, time=34),
    Message('note_off', channel=0, note=50, velocity=95, time=0),
    Message('note_off', channel=0, note=45, velocity=95, time=0),
    Message('note_on', channel=0, note=45, velocity=95, time=202),
    Message('note_on', channel=0, note=57, velocity=95, time=4),
    Message('note_on', channel=0, note=62, velocity=95, time=4),
    Message('note_on', channel=0, note=66, velocity=95, time=4),
    Message('note_off', channel=0, note=66, velocity=95, time=468),
    Message('note_off', channel=0, note=62, velocity=95, time=0),
    Message('note_off', channel=0, note=57, velocity=95, time=0),
    Message('note_off', channel=0, note=45, velocity=95, time=0),
    Message('note_on', channel=0, note=45, velocity=95, time=0),
    Message('note_on', channel=0, note=57, velocity=95, time=2),
    Message('note_on', channel=0, note=62, velocity=95, time=2),
    Message('note_on', channel=0, note=66, velocity=95, time=2),
    Message('note_off', channel=0, note=66, velocity=95, time=234),
    Message('note_off', channel=0, note=62, velocity=95, time=0),
    Message('note_off', channel=0, note=57, velocity=95, time=0),
    Message('note_off', channel=0, note=45, velocity=95, time=0),
    Message('note_on', channel=0, note=66, velocity=95, time=0),
    Message('note_on', channel=0, note=62, velocity=95, time=2),
    Message('note_on', channel=0, note=57, velocity=95, time=2),
    Message('note_on', channel=0, note=45, velocity=95, time=2),
    Message('note_off', channel=0, note=66, velocity=95, time=234),
    Message('note_off', channel=0, note=62, velocity=95, time=0),
    Message('note_off', channel=0, note=57, velocity=95, time=0),
    Message('note_off', channel=0, note=45, velocity=95, time=0),
    Message('note_on', channel=0, note=45, velocity=95, time=0),
    Message('note_on', channel=0, note=57, velocity=95, time=2),
    Message('note_on', channel=0, note=62, velocity=95, time=2),
    Message('note_on', channel=0, note=66, velocity=95, time=2),
    Message('note_off', channel=0, note=66, velocity=95, time=234),
    Message('note_off', channel=0, note=62, velocity=95, time=0),
    Message('note_off', channel=0, note=57, velocity=95, time=0),
    Message('note_off', channel=0, note=45, velocity=95, time=0),
    Message('note_on', channel=0, note=66, velocity=95, time=0),
    Message('note_on', channel=0, note=62, velocity=95, time=2),
    Message('note_on', channel=0, note=57, velocity=95, time=2),
    Message('note_on', channel=0, note=45, velocity=95, time=2),
    Message('note_off', channel=0, note=66, velocity=95, time=234),
    Message('note_off', channel=0, note=62, velocity=95, time=0),
    Message('note_off', channel=0, note=57, velocity=95, time=0),
    Message('note_off', channel=0, note=45, velocity=95, time=0),
    Message('note_on', channel=0, note=45, velocity=95, time=0),
    Message('note_on', channel=0, note=57, velocity=95, time=2),
    Message('note_on', channel=0, note=62, velocity=95, time=2),
    Message('note_on', channel=0, note=66, velocity=95, time=2),
    Message('note_off', channel=0, note=66, velocity=95, time=234),
    Message('note_off', channel=0, note=62, velocity=95, time=0),
    Message('note_off', channel=0, note=57, velocity=95, time=0),
    Message('note_off', channel=0, note=45, velocity=95, time=0),
    Message('note_on', channel=0, note=55, velocity=95, time=0),
    Message('note_on', channel=0, note=50, velocity=95, time=2),
    Message('note_on', channel=0, note=45, velocity=95, time=2),
    Message('note_off', channel=0, note=55, velocity=95, time=34),
    Message('note_off', channel=0, note=50, velocity=95, time=0),
    Message('note_off', channel=0, note=45, velocity=95, time=0),
    Message('note_on', channel=0, note=45, velocity=95, time=202),
    Message('note_on', channel=0, note=52, velocity=95, time=4),
    Message('note_on', channel=0, note=57, velocity=95, time=4),
    Message('note_off', channel=0, note=57, velocity=95, time=472),
    Message('note_off', channel=0, note=52, velocity=95, time=0),
    Message('note_off', channel=0, note=45, velocity=95, time=0),
    Message('note_on', channel=0, note=45, velocity=95, time=0),
    Message('note_on', channel=0, note=52, velocity=95, time=2),
    Message('note_on', channel=0, note=57, velocity=95, time=2),
    Message('note_off', channel=0, note=57, velocity=95, time=236),
    Message('note_off', channel=0, note=52, velocity=95, time=0),
    Message('note_off', channel=0, note=45, velocity=95, time=0),
    Message('note_on', channel=0, note=57, velocity=95, time=0),
    Message('note_on', channel=0, note=52, velocity=95, time=2),
    Message('note_on', channel=0, note=45, velocity=95, time=2),
    Message('note_off', channel=0, note=57, velocity=95, time=236),
    Message('note_off', channel=0, note=52, velocity=95, time=0),
    Message('note_off', channel=0, note=45, velocity=95, time=0),
    Message('note_on', channel=0, note=45, velocity=95, time=0),
    Message('note_on', channel=0, note=52, velocity=95, time=2),
    Message('note_on', channel=0, note=57, velocity=95, time=2),
    Message('note_off', channel=0, note=57, velocity=95, time=236),
    Message('note_off', channel=0, note=52, velocity=95, time=0),
    Message('note_off', channel=0, note=45, velocity=95, time=0),
    Message('note_on', channel=0, note=57, velocity=95, time=0),
    Message('note_on', channel=0, note=52, velocity=95, time=2),
    Message('note_on', channel=0, note=45, velocity=95, time=2),
    Message('note_off', channel=0, note=57, velocity=95, time=236),
    Message('note_off', channel=0, note=52, velocity=95, time=0),
    Message('note_off', channel=0, note=45, velocity=95, time=0),
    Message('note_on', channel=0, note=45, velocity=95, time=0),
    Message('note_on', channel=0, note=52, velocity=95, time=2),
    Message('note_on', channel=0, note=57, velocity=95, time=2),
    Message('note_off', channel=0, note=57, velocity=95, time=236),
    Message('note_off', channel=0, note=52, velocity=95, time=0),
    Message('note_off', channel=0, note=45, velocity=95, time=0),
    Message('note_on', channel=0, note=50, velocity=95, time=0),
    Message('note_on', channel=0, note=45, velocity=95, time=2),
    Message('note_on', channel=0, note=40, velocity=95, time=2),
    Message('note_off', channel=0, note=50, velocity=95, time=34),
    Message('note_off', channel=0, note=45, velocity=95, time=0),
    Message('note_off', channel=0, note=40, velocity=95, time=0),
    Message('note_on', channel=0, note=52, velocity=95, time=202),
    Message('note_on', channel=0, note=59, velocity=95, time=4),
    Message('note_on', channel=0, note=64, velocity=95, time=4),
    Message('note_off', channel=0, note=64, velocity=95, time=472),
    Message('note_off', channel=0, note=59, velocity=95, time=0),
    Message('note_off', channel=0, note=52, velocity=95, time=0),
    Message('note_on', channel=0, note=52, velocity=95, time=0),
    Message('note_on', channel=0, note=59, velocity=95, time=2),
    Message('note_on', channel=0, note=64, velocity=95, time=2),
    Message('note_off', channel=0, note=64, velocity=95, time=236),
    Message('note_off', channel=0, note=59, velocity=95, time=0),
    Message('note_off', channel=0, note=52, velocity=95, time=0),
    Message('note_on', channel=0, note=64, velocity=95, time=0),
    Message('note_on', channel=0, note=59, velocity=95, time=2),
    Message('note_on', channel=0, note=52, velocity=95, time=2),
    Message('note_off', channel=0, note=64, velocity=95, time=236),
    Message('note_off', channel=0, note=59, velocity=95, time=0),
    Message('note_off', channel=0, note=52, velocity=95, time=0),
    Message('note_on', channel=0, note=52, velocity=95, time=0),
    Message('note_on', channel=0, note=59, velocity=95, time=2),
    Message('note_on', channel=0, note=64, velocity=95, time=2),
    Message('note_off', channel=0, note=64, velocity=95, time=236),
    Message('note_off', channel=0, note=59, velocity=95, time=0),
    Message('note_off', channel=0, note=52, velocity=95, time=0),
    Message('note_on', channel=0, note=64, velocity=95, time=0),
    Message('note_on', channel=0, note=59, velocity=95, time=2),
    Message('note_on', channel=0, note=52, velocity=95, time=2),
    Message('note_off', channel=0, note=64, velocity=95, time=236),
    Message('note_off', channel=0, note=59, velocity=95, time=0),
    Message('note_off', channel=0, note=52, velocity=95, time=0),
    Message('note_on', channel=0, note=52, velocity=95, time=0),
    Message('note_on', channel=0, note=59, velocity=95, time=2),
    Message('note_on', channel=0, note=64, velocity=95, time=2),
    Message('note_off', channel=0, note=64, velocity=95, time=236),
    Message('note_off', channel=0, note=59, velocity=95, time=0),
    Message('note_off', channel=0, note=52, velocity=95, time=0),
    Message('note_on', channel=0, note=55, velocity=95, time=0),
    Message('note_on', channel=0, note=50, velocity=95, time=2),
    Message('note_on', channel=0, note=45, velocity=95, time=2),
    Message('note_off', channel=0, note=55, velocity=95, time=34),
    Message('note_off', channel=0, note=50, velocity=95, time=0),
    Message('note_off', channel=0, note=45, velocity=95, time=0),
    Message('note_on', channel=0, note=55, velocity=95, time=202),
    Message('note_on', channel=0, note=62, velocity=95, time=4),
    Message('note_on', channel=0, note=67, velocity=95, time=4),
    Message('note_off', channel=0, note=67, velocity=95, time=472),
    Message('note_off', channel=0, note=62, velocity=95, time=0),
    Message('note_off', channel=0, note=55, velocity=95, time=0),
    Message('note_on', channel=0, note=55, velocity=95, time=0),
    Message('note_on', channel=0, note=62, velocity=95, time=2),
    Message('note_on', channel=0, note=67, velocity=95, time=2),
    Message('note_off', channel=0, note=67, velocity=95, time=236),
    Message('note_off', channel=0, note=62, velocity=95, time=0),
    Message('note_off', channel=0, note=55, velocity=95, time=0),
    Message('note_on', channel=0, note=67, velocity=95, time=0),
    Message('note_on', channel=0, note=62, velocity=95, time=2),
    Message('note_on', channel=0, note=55, velocity=95, time=2),
    Message('note_off', channel=0, note=67, velocity=95, time=236),
    Message('note_off', channel=0, note=62, velocity=95, time=0),
    Message('note_off', channel=0, note=55, velocity=95, time=0),
    Message('note_on', channel=0, note=55, velocity=95, time=0),
    Message('note_on', channel=0, note=62, velocity=95, time=2),
    Message('note_on', channel=0, note=67, velocity=95, time=2),
    Message('note_off', channel=0, note=67, velocity=95, time=236),
    Message('note_off', channel=0, note=62, velocity=95, time=0),
    Message('note_off', channel=0, note=55, velocity=95, time=0),
    Message('note_on', channel=0, note=67, velocity=95, time=0),
    Message('note_on', channel=0, note=62, velocity=95, time=2),
    Message('note_on', channel=0, note=55, velocity=95, time=2),
    Message('note_off', channel=0, note=67, velocity=95, time=236),
    Message('note_off', channel=0, note=62, velocity=95, time=0),
    Message('note_off', channel=0, note=55, velocity=95, time=0),
    Message('note_on', channel=0, note=55, velocity=95, time=0),
    Message('note_on', channel=0, note=62, velocity=95, time=2),
    Message('note_on', channel=0, note=67, velocity=95, time=2),
    Message('note_off', channel=0, note=67, velocity=95, time=236),
    Message('note_off', channel=0, note=62, velocity=95, time=0),
    Message('note_off', channel=0, note=55, velocity=95, time=0),
    Message('note_on', channel=0, note=55, velocity=95, time=0),
    Message('note_on', channel=0, note=50, velocity=95, time=2),
    Message('note_on', channel=0, note=45, velocity=95, time=2),
    Message('note_off', channel=0, note=55, velocity=95, time=34),
    Message('note_off', channel=0, note=50, velocity=95, time=0),
    Message('note_off', channel=0, note=45, velocity=95, time=0),
    Message('note_on', channel=0, note=45, velocity=95, time=202),
    Message('note_on', channel=0, note=57, velocity=95, time=4),
    Message('note_on', channel=0, note=62, velocity=95, time=4),
    Message('note_on', channel=0, note=66, velocity=95, time=4),
    Message('note_off', channel=0, note=66, velocity=95, time=468),
    Message('note_off', channel=0, note=62, velocity=95, time=0),
    Message('note_off', channel=0, note=57, velocity=95, time=0),
    Message('note_off', channel=0, note=45, velocity=95, time=0),
    Message('note_on', channel=0, note=45, velocity=95, time=0),
    Message('note_on', channel=0, note=57, velocity=95, time=2),
    Message('note_on', channel=0, note=62, velocity=95, time=2),
    Message('note_on', channel=0, note=66, velocity=95, time=2),
    Message('note_off', channel=0, note=66, velocity=95, time=234),
    Message('note_off', channel=0, note=62, velocity=95, time=0),
    Message('note_off', channel=0, note=57, velocity=95, time=0),
    Message('note_off', channel=0, note=45, velocity=95, time=0),
    Message('note_on', channel=0, note=66, velocity=95, time=0),
    Message('note_on', channel=0, note=62, velocity=95, time=2),
    Message('note_on', channel=0, note=57, velocity=95, time=2),
    Message('note_on', channel=0, note=45, velocity=95, time=2),
    Message('note_off', channel=0, note=66, velocity=95, time=234),
    Message('note_off', channel=0, note=62, velocity=95, time=0),
    Message('note_off', channel=0, note=57, velocity=95, time=0),
    Message('note_off', channel=0, note=45, velocity=95, time=0),
    Message('note_on', channel=0, note=45, velocity=95, time=0),
    Message('note_on', channel=0, note=57, velocity=95, time=2),
    Message('note_on', channel=0, note=62, velocity=95, time=2),
    Message('note_on', channel=0, note=66, velocity=95, time=2),
    Message('note_off', channel=0, note=66, velocity=95, time=234),
    Message('note_off', channel=0, note=62, velocity=95, time=0),
    Message('note_off', channel=0, note=57, velocity=95, time=0),
    Message('note_off', channel=0, note=45, velocity=95, time=0),
    Message('note_on', channel=0, note=66, velocity=95, time=0),
    Message('note_on', channel=0, note=62, velocity=95, time=2),
    Message('note_on', channel=0, note=57, velocity=95, time=2),
    Message('note_on', channel=0, note=45, velocity=95, time=2),
    Message('note_off', channel=0, note=66, velocity=95, time=234),
    Message('note_off', channel=0, note=62, velocity=95, time=0),
    Message('note_off', channel=0, note=57, velocity=95, time=0),
    Message('note_off', channel=0, note=45, velocity=95, time=0),
    Message('note_on', channel=0, note=45, velocity=95, time=0),
    Message('note_on', channel=0, note=57, velocity=95, time=2),
    Message('note_on', channel=0, note=62, velocity=95, time=2),
    Message('note_on', channel=0, note=66, velocity=95, time=2),
    Message('note_off', channel=0, note=66, velocity=95, time=234),
    Message('note_off', channel=0, note=62, velocity=95, time=0),
    Message('note_off', channel=0, note=57, velocity=95, time=0),
    Message('note_off', channel=0, note=45, velocity=95, time=0),
    Message('note_on', channel=0, note=55, velocity=95, time=0),
    Message('note_on', channel=0, note=50, velocity=95, time=2),
    Message('note_on', channel=0, note=45, velocity=95, time=2),
    Message('note_off', channel=0, note=55, velocity=95, time=34),
    Message('note_off', channel=0, note=50, velocity=95, time=0),
    Message('note_off', channel=0, note=45, velocity=95, time=0),
    Message('note_on', channel=0, note=45, velocity=95, time=202),
    Message('note_on', channel=0, note=52, velocity=95, time=4),
    Message('note_on', channel=0, note=57, velocity=95, time=4),
    Message('note_off', channel=0, note=57, velocity=95, time=472),
    Message('note_off', channel=0, note=52, velocity=95, time=0),
    Message('note_off', channel=0, note=45, velocity=95, time=0),
    Message('note_on', channel=0, note=45, velocity=95, time=0),
    Message('note_on', channel=0, note=52, velocity=95, time=2),
    Message('note_on', channel=0, note=57, velocity=95, time=2),
    Message('note_off', channel=0, note=57, velocity=95, time=236),
    Message('note_off', channel=0, note=52, velocity=95, time=0),
    Message('note_off', channel=0, note=45, velocity=95, time=0),
    Message('note_on', channel=0, note=57, velocity=95, time=0),
    Message('note_on', channel=0, note=52, velocity=95, time=2),
    Message('note_on', channel=0, note=45, velocity=95, time=2),
    Message('note_off', channel=0, note=57, velocity=95, time=236),
    Message('note_off', channel=0, note=52, velocity=95, time=0),
    Message('note_off', channel=0, note=45, velocity=95, time=0),
    Message('note_on', channel=0, note=45, velocity=95, time=0),
    Message('note_on', channel=0, note=52, velocity=95, time=2),
    Message('note_on', channel=0, note=57, velocity=95, time=2),
    Message('note_off', channel=0, note=57, velocity=95, time=236),
    Message('note_off', channel=0, note=52, velocity=95, time=0),
    Message('note_off', channel=0, note=45, velocity=95, time=0),
    Message('note_on', channel=0, note=57, velocity=95, time=0),
    Message('note_on', channel=0, note=52, velocity=95, time=2),
    Message('note_on', channel=0, note=45, velocity=95, time=2),
    Message('note_off', channel=0, note=57, velocity=95, time=236),
    Message('note_off', channel=0, note=52, velocity=95, time=0),
    Message('note_off', channel=0, note=45, velocity=95, time=0),
    Message('note_on', channel=0, note=45, velocity=95, time=0),
    Message('note_on', channel=0, note=52, velocity=95, time=2),
    Message('note_on', channel=0, note=57, velocity=95, time=2),
    Message('note_off', channel=0, note=57, velocity=95, time=236),
    Message('note_off', channel=0, note=52, velocity=95, time=0),
    Message('note_off', channel=0, note=45, velocity=95, time=0),
    Message('note_on', channel=0, note=50, velocity=95, time=0),
    Message('note_on', channel=0, note=45, velocity=95, time=2),
    Message('note_on', channel=0, note=40, velocity=95, time=2),
    Message('note_off', channel=0, note=50, velocity=95, time=34),
    Message('note_off', channel=0, note=45, velocity=95, time=0),
    Message('note_off', channel=0, note=40, velocity=95, time=0),
    Message('note_on', channel=0, note=59, velocity=95, time=202),
    Message('note_on', channel=0, note=66, velocity=95, time=2),
    Message('note_on', channel=0, note=71, velocity=95, time=2),
    Message('note_off', channel=0, note=71, velocity=95, time=236),
    Message('note_off', channel=0, note=66, velocity=95, time=0),
    Message('note_off', channel=0, note=59, velocity=95, time=0),
    Message('note_on', channel=0, note=59, velocity=95, time=0),
    Message('note_on', channel=0, note=66, velocity=95, time=2),
    Message('note_on', channel=0, note=71, velocity=95, time=2),
    Message('note_off', channel=0, note=71, velocity=95, time=236),
    Message('note_off', channel=0, note=66, velocity=95, time=0),
    Message('note_off', channel=0, note=59, velocity=95, time=0),
    Message('note_on', channel=0, note=59, velocity=95, time=0),
    Message('note_on', channel=0, note=66, velocity=95, time=2),
    Message('note_on', channel=0, note=71, velocity=95, time=2),
    Message('note_off', channel=0, note=71, velocity=95, time=236),
    Message('note_off', channel=0, note=66, velocity=95, time=0),
    Message('note_off', channel=0, note=59, velocity=95, time=0),
    Message('note_on', channel=0, note=59, velocity=95, time=0),
    Message('note_on', channel=0, note=66, velocity=95, time=2),
    Message('note_on', channel=0, note=71, velocity=95, time=2),
    Message('note_off', channel=0, note=71, velocity=95, time=236),
    Message('note_off', channel=0, note=66, velocity=95, time=0),
    Message('note_off', channel=0, note=59, velocity=95, time=0),
    Message('note_on', channel=0, note=59, velocity=95, time=0),
    Message('note_on', channel=0, note=66, velocity=95, time=2),
    Message('note_on', channel=0, note=71, velocity=95, time=2),
    Message('note_off', channel=0, note=71, velocity=95, time=236),
    Message('note_off', channel=0, note=66, velocity=95, time=0),
    Message('note_off', channel=0, note=59, velocity=95, time=0),
    Message('note_on', channel=0, note=59, velocity=95, time=0),
    Message('note_on', channel=0, note=66, velocity=95, time=2),
    Message('note_on', channel=0, note=71, velocity=95, time=2),
    Message('note_off', channel=0, note=71, velocity=95, time=236),
    Message('note_off', channel=0, note=66, velocity=95, time=0),
    Message('note_off', channel=0, note=59, velocity=95, time=0),
    Message('note_on', channel=0, note=59, velocity=95, time=0),
    Message('note_on', channel=0, note=66, velocity=95, time=2),
    Message('note_on', channel=0, note=71, velocity=95, time=2),
    Message('note_off', channel=0, note=71, velocity=95, time=236),
    Message('note_off', channel=0, note=66, velocity=95, time=0),
    Message('note_off', channel=0, note=59, velocity=95, time=0),
    Message('note_on', channel=0, note=59, velocity=95, time=0),
    Message('note_on', channel=0, note=66, velocity=95, time=2),
    Message('note_on', channel=0, note=71, velocity=95, time=2),
    Message('note_off', channel=0, note=71, velocity=95, time=236),
    Message('note_off', channel=0, note=66, velocity=95, time=0),
    Message('note_off', channel=0, note=59, velocity=95, time=0),
    Message('note_on', channel=0, note=59, velocity=95, time=0),
    Message('note_on', channel=0, note=66, velocity=95, time=2),
    Message('note_on', channel=0, note=71, velocity=95, time=2),
    Message('note_off', channel=0, note=71, velocity=95, time=236),
    Message('note_off', channel=0, note=66, velocity=95, time=0),
    Message('note_off', channel=0, note=59, velocity=95, time=0),
    Message('note_on', channel=0, note=59, velocity=95, time=0),
    Message('note_on', channel=0, note=66, velocity=95, time=2),
    Message('note_on', channel=0, note=69, velocity=95, time=2),
    Message('note_off', channel=0, note=69, velocity=95, time=236),
    Message('note_off', channel=0, note=66, velocity=95, time=0),
    Message('note_off', channel=0, note=59, velocity=95, time=0),
    Message('note_on', channel=0, note=59, velocity=95, time=0),
    Message('note_on', channel=0, note=66, velocity=95, time=2),
    Message('note_on', channel=0, note=69, velocity=95, time=2),
    Message('note_off', channel=0, note=69, velocity=95, time=236),
    Message('note_off', channel=0, note=66, velocity=95, time=0),
    Message('note_off', channel=0, note=59, velocity=95, time=0),
    Message('note_on', channel=0, note=59, velocity=95, time=0),
    Message('note_on', channel=0, note=66, velocity=95, time=2),
    Message('note_on', channel=0, note=69, velocity=95, time=2),
    Message('note_off', channel=0, note=69, velocity=95, time=236),
    Message('note_off', channel=0, note=66, velocity=95, time=0),
    Message('note_off', channel=0, note=59, velocity=95, time=0),
    Message('note_on', channel=0, note=59, velocity=95, time=0),
    Message('note_on', channel=0, note=66, velocity=95, time=2),
    Message('note_on', channel=0, note=69, velocity=95, time=2),
    Message('note_off', channel=0, note=69, velocity=95, time=236),
    Message('note_off', channel=0, note=66, velocity=95, time=0),
    Message('note_off', channel=0, note=59, velocity=95, time=0),
    Message('note_on', channel=0, note=59, velocity=95, time=0),
    Message('note_on', channel=0, note=66, velocity=95, time=2),
    Message('note_on', channel=0, note=69, velocity=95, time=2),
    Message('note_off', channel=0, note=69, velocity=95, time=236),
    Message('note_off', channel=0, note=66, velocity=95, time=0),
    Message('note_off', channel=0, note=59, velocity=95, time=0),
    Message('note_on', channel=0, note=59, velocity=95, time=0),
    Message('note_on', channel=0, note=66, velocity=95, time=2),
    Message('note_on', channel=0, note=69, velocity=95, time=2),
    Message('note_off', channel=0, note=69, velocity=95, time=236),
    Message('note_off', channel=0, note=66, velocity=95, time=0),
    Message('note_off', channel=0, note=59, velocity=95, time=0),
    Message('note_on', channel=0, note=59, velocity=95, time=0),
    Message('note_on', channel=0, note=66, velocity=95, time=2),
    Message('note_on', channel=0, note=69, velocity=95, time=2),
    Message('note_off', channel=0, note=69, velocity=95, time=236),
    Message('note_off', channel=0, note=66, velocity=95, time=0),
    Message('note_off', channel=0, note=59, velocity=95, time=0),
    Message('note_on', channel=0, note=59, velocity=95, time=0),
    Message('note_on', channel=0, note=66, velocity=95, time=2),
    Message('note_on', channel=0, note=69, velocity=95, time=2),
    Message('note_off', channel=0, note=69, velocity=95, time=236),
    Message('note_off', channel=0, note=66, velocity=95, time=0),
    Message('note_off', channel=0, note=59, velocity=95, time=0),
    Message('note_on', channel=0, note=59, velocity=95, time=0),
    Message('note_on', channel=0, note=66, velocity=95, time=2),
    Message('note_on', channel=0, note=71, velocity=95, time=2),
    Message('note_off', channel=0, note=71, velocity=95, time=236),
    Message('note_off', channel=0, note=66, velocity=95, time=0),
    Message('note_off', channel=0, note=59, velocity=95, time=0),
    Message('note_on', channel=0, note=59, velocity=95, time=0),
    Message('note_on', channel=0, note=66, velocity=95, time=2),
    Message('note_on', channel=0, note=71, velocity=95, time=2),
    Message('note_off', channel=0, note=71, velocity=95, time=236),
    Message('note_off', channel=0, note=66, velocity=95, time=0),
    Message('note_off', channel=0, note=59, velocity=95, time=0),
    Message('note_on', channel=0, note=59, velocity=95, time=0),
    Message('note_on', channel=0, note=66, velocity=95, time=2),
    Message('note_on', channel=0, note=71, velocity=95, time=2),
    Message('note_off', channel=0, note=71, velocity=95, time=236),
    Message('note_off', channel=0, note=66, velocity=95, time=0),
    Message('note_off', channel=0, note=59, velocity=95, time=0),
    Message('note_on', channel=0, note=59, velocity=95, time=0),
    Message('note_on', channel=0, note=66, velocity=95, time=2),
    Message('note_on', channel=0, note=71, velocity=95, time=2),
    Message('note_off', channel=0, note=71, velocity=95, time=236),
    Message('note_off', channel=0, note=66, velocity=95, time=0),
    Message('note_off', channel=0, note=59, velocity=95, time=0),
    Message('note_on', channel=0, note=59, velocity=95, time=0),
    Message('note_on', channel=0, note=66, velocity=95, time=2),
    Message('note_on', channel=0, note=71, velocity=95, time=2),
    Message('note_off', channel=0, note=71, velocity=95, time=236),
    Message('note_off', channel=0, note=66, velocity=95, time=0),
    Message('note_off', channel=0, note=59, velocity=95, time=0),
    Message('note_on', channel=0, note=59, velocity=95, time=0),
    Message('note_on', channel=0, note=66, velocity=95, time=2),
    Message('note_on', channel=0, note=71, velocity=95, time=2),
    Message('note_off', channel=0, note=71, velocity=95, time=236),
    Message('note_off', channel=0, note=66, velocity=95, time=0),
    Message('note_off', channel=0, note=59, velocity=95, time=0),
    Message('note_on', channel=0, note=59, velocity=95, time=0),
    Message('note_on', channel=0, note=66, velocity=95, time=2),
    Message('note_on', channel=0, note=71, velocity=95, time=2),
    Message('note_off', channel=0, note=71, velocity=95, time=236),
    Message('note_off', channel=0, note=66, velocity=95, time=0),
    Message('note_off', channel=0, note=59, velocity=95, time=0),
    Message('note_on', channel=0, note=59, velocity=95, time=0),
    Message('note_on', channel=0, note=66, velocity=95, time=2),
    Message('note_on', channel=0, note=71, velocity=95, time=2),
    Message('note_off', channel=0, note=71, velocity=95, time=236),
    Message('note_off', channel=0, note=66, velocity=95, time=0),
    Message('note_off', channel=0, note=59, velocity=95, time=0),
    Message('note_on', channel=0, note=59, velocity=95, time=0),
    Message('note_on', channel=0, note=66, velocity=95, time=2),
    Message('note_on', channel=0, note=69, velocity=95, time=2),
    Message('note_off', channel=0, note=69, velocity=95, time=236),
    Message('note_off', channel=0, note=66, velocity=95, time=0),
    Message('note_off', channel=0, note=59, velocity=95, time=0),
    Message('note_on', channel=0, note=59, velocity=95, time=0),
    Message('note_on', channel=0, note=66, velocity=95, time=2),
    Message('note_on', channel=0, note=69, velocity=95, time=2),
    Message('note_off', channel=0, note=69, velocity=95, time=236),
    Message('note_off', channel=0, note=66, velocity=95, time=0),
    Message('note_off', channel=0, note=59, velocity=95, time=0),
    Message('note_on', channel=0, note=59, velocity=95, time=0),
    Message('note_on', channel=0, note=66, velocity=95, time=2),
    Message('note_on', channel=0, note=69, velocity=95, time=2),
    Message('note_off', channel=0, note=69, velocity=95, time=236),
    Message('note_off', channel=0, note=66, velocity=95, time=0),
    Message('note_off', channel=0, note=59, velocity=95, time=0),
    Message('note_on', channel=0, note=59, velocity=95, time=0),
    Message('note_on', channel=0, note=66, velocity=95, time=2),
    Message('note_on', channel=0, note=69, velocity=95, time=2),
    Message('note_off', channel=0, note=69, velocity=95, time=236),
    Message('note_off', channel=0, note=66, velocity=95, time=0),
    Message('note_off', channel=0, note=59, velocity=95, time=0),
    Message('note_on', channel=0, note=59, velocity=95, time=0),
    Message('note_on', channel=0, note=66, velocity=95, time=2),
    Message('note_on', channel=0, note=69, velocity=95, time=2),
    Message('note_off', channel=0, note=69, velocity=95, time=236),
    Message('note_off', channel=0, note=66, velocity=95, time=0),
    Message('note_off', channel=0, note=59, velocity=95, time=0),
    Message('note_on', channel=0, note=59, velocity=95, time=0),
    Message('note_on', channel=0, note=66, velocity=95, time=2),
    Message('note_on', channel=0, note=69, velocity=95, time=2),
    Message('note_off', channel=0, note=69, velocity=95, time=236),
    Message('note_off', channel=0, note=66, velocity=95, time=0),
    Message('note_off', channel=0, note=59, velocity=95, time=0),
    Message('note_on', channel=0, note=59, velocity=95, time=0),
    Message('note_on', channel=0, note=66, velocity=95, time=2),
    Message('note_on', channel=0, note=69, velocity=95, time=2),
    Message('note_off', channel=0, note=69, velocity=95, time=236),
    Message('note_off', channel=0, note=66, velocity=95, time=0),
    Message('note_off', channel=0, note=59, velocity=95, time=0),
    Message('note_on', channel=0, note=59, velocity=95, time=0),
    Message('note_on', channel=0, note=66, velocity=95, time=2),
    Message('note_on', channel=0, note=71, velocity=95, time=2),
    Message('note_off', channel=0, note=71, velocity=95, time=236),
    Message('note_off', channel=0, note=66, velocity=95, time=0),
    Message('note_off', channel=0, note=59, velocity=95, time=0),
    Message('note_on', channel=0, note=59, velocity=95, time=0),
    Message('note_on', channel=0, note=66, velocity=95, time=2),
    Message('note_on', channel=0, note=71, velocity=95, time=2),
    Message('note_off', channel=0, note=71, velocity=95, time=236),
    Message('note_off', channel=0, note=66, velocity=95, time=0),
    Message('note_off', channel=0, note=59, velocity=95, time=0),
    Message('note_on', channel=0, note=59, velocity=95, time=0),
    Message('note_on', channel=0, note=66, velocity=95, time=2),
    Message('note_on', channel=0, note=71, velocity=95, time=2),
    Message('note_off', channel=0, note=71, velocity=95, time=236),
    Message('note_off', channel=0, note=66, velocity=95, time=0),
    Message('note_off', channel=0, note=59, velocity=95, time=0),
    Message('note_on', channel=0, note=59, velocity=95, time=0),
    Message('note_on', channel=0, note=66, velocity=95, time=2),
    Message('note_on', channel=0, note=71, velocity=95, time=2),
    Message('note_off', channel=0, note=71, velocity=95, time=236),
    Message('note_off', channel=0, note=66, velocity=95, time=0),
    Message('note_off', channel=0, note=59, velocity=95, time=0),
    Message('note_on', channel=0, note=59, velocity=95, time=0),
    Message('note_on', channel=0, note=66, velocity=95, time=2),
    Message('note_on', channel=0, note=71, velocity=95, time=2),
    Message('note_off', channel=0, note=71, velocity=95, time=236),
    Message('note_off', channel=0, note=66, velocity=95, time=0),
    Message('note_off', channel=0, note=59, velocity=95, time=0),
    Message('note_on', channel=0, note=59, velocity=95, time=0),
    Message('note_on', channel=0, note=66, velocity=95, time=2),
    Message('note_on', channel=0, note=71, velocity=95, time=2),
    Message('note_off', channel=0, note=71, velocity=95, time=236),
    Message('note_off', channel=0, note=66, velocity=95, time=0),
    Message('note_off', channel=0, note=59, velocity=95, time=0),
    Message('note_on', channel=0, note=59, velocity=95, time=0),
    Message('note_on', channel=0, note=66, velocity=95, time=2),
    Message('note_on', channel=0, note=71, velocity=95, time=2),
    Message('note_off', channel=0, note=71, velocity=95, time=236),
    Message('note_off', channel=0, note=66, velocity=95, time=0),
    Message('note_off', channel=0, note=59, velocity=95, time=0),
    Message('note_on', channel=0, note=59, velocity=95, time=0),
    Message('note_on', channel=0, note=66, velocity=95, time=2),
    Message('note_on', channel=0, note=71, velocity=95, time=2),
    Message('note_off', channel=0, note=71, velocity=95, time=236),
    Message('note_off', channel=0, note=66, velocity=95, time=0),
    Message('note_off', channel=0, note=59, velocity=95, time=0),
    Message('note_on', channel=0, note=59, velocity=95, time=0),
    Message('note_on', channel=0, note=66, velocity=95, time=2),
    Message('note_on', channel=0, note=71, velocity=95, time=2),
    Message('note_off', channel=0, note=71, velocity=95, time=236),
    Message('note_off', channel=0, note=66, velocity=95, time=0),
    Message('note_off', channel=0, note=59, velocity=95, time=0),
    Message('note_on', channel=0, note=59, velocity=95, time=0),
    Message('note_on', channel=0, note=66, velocity=95, time=2),
    Message('note_on', channel=0, note=69, velocity=95, time=2),
    Message('note_off', channel=0, note=69, velocity=95, time=236),
    Message('note_off', channel=0, note=66, velocity=95, time=0),
    Message('note_off', channel=0, note=59, velocity=95, time=0),
    Message('note_on', channel=0, note=59, velocity=95, time=0),
    Message('note_on', channel=0, note=66, velocity=95, time=2),
    Message('note_on', channel=0, note=69, velocity=95, time=2),
    Message('note_off', channel=0, note=69, velocity=95, time=236),
    Message('note_off', channel=0, note=66, velocity=95, time=0),
    Message('note_off', channel=0, note=59, velocity=95, time=0),
    Message('note_on', channel=0, note=59, velocity=95, time=0),
    Message('note_on', channel=0, note=66, velocity=95, time=2),
    Message('note_on', channel=0, note=69, velocity=95, time=2),
    Message('note_off', channel=0, note=69, velocity=95, time=236),
    Message('note_off', channel=0, note=66, velocity=95, time=0),
    Message('note_off', channel=0, note=59, velocity=95, time=0),
    Message('note_on', channel=0, note=59, velocity=95, time=0),
    Message('note_on', channel=0, note=66, velocity=95, time=2),
    Message('note_on', channel=0, note=69, velocity=95, time=2),
    Message('note_off', channel=0, note=69, velocity=95, time=236),
    Message('note_off', channel=0, note=66, velocity=95, time=0),
    Message('note_off', channel=0, note=59, velocity=95, time=0),
    Message('note_on', channel=0, note=59, velocity=95, time=0),
    Message('note_on', channel=0, note=66, velocity=95, time=2),
    Message('note_on', channel=0, note=69, velocity=95, time=2),
    Message('note_off', channel=0, note=69, velocity=95, time=236),
    Message('note_off', channel=0, note=66, velocity=95, time=0),
    Message('note_off', channel=0, note=59, velocity=95, time=0),
    Message('note_on', channel=0, note=59, velocity=95, time=0),
    Message('note_on', channel=0, note=66, velocity=95, time=2),
    Message('note_on', channel=0, note=69, velocity=95, time=2),
    Message('note_off', channel=0, note=69, velocity=95, time=236),
    Message('note_off', channel=0, note=66, velocity=95, time=0),
    Message('note_off', channel=0, note=59, velocity=95, time=0),
    Message('note_on', channel=0, note=59, velocity=95, time=0),
    Message('note_on', channel=0, note=66, velocity=95, time=2),
    Message('note_on', channel=0, note=69, velocity=95, time=2),
    Message('note_off', channel=0, note=69, velocity=95, time=236),
    Message('note_off', channel=0, note=66, velocity=95, time=0),
    Message('note_off', channel=0, note=59, velocity=95, time=0),
    Message('note_on', channel=0, note=59, velocity=95, time=0),
    Message('note_on', channel=0, note=66, velocity=95, time=2),
    Message('note_on', channel=0, note=69, velocity=95, time=2),
    Message('note_off', channel=0, note=69, velocity=95, time=236),
    Message('note_off', channel=0, note=66, velocity=95, time=0),
    Message('note_off', channel=0, note=59, velocity=95, time=0),
    Message('note_on', channel=0, note=59, velocity=95, time=0),
    Message('note_on', channel=0, note=66, velocity=95, time=2),
    Message('note_on', channel=0, note=71, velocity=95, time=2),
    Message('note_off', channel=0, note=71, velocity=95, time=236),
    Message('note_off', channel=0, note=66, velocity=95, time=0),
    Message('note_off', channel=0, note=59, velocity=95, time=0),
    Message('note_on', channel=0, note=59, velocity=95, time=0),
    Message('note_on', channel=0, note=66, velocity=95, time=2),
    Message('note_on', channel=0, note=71, velocity=95, time=2),
    Message('note_off', channel=0, note=71, velocity=95, time=236),
    Message('note_off', channel=0, note=66, velocity=95, time=0),
    Message('note_off', channel=0, note=59, velocity=95, time=0),
    Message('note_on', channel=0, note=59, velocity=95, time=0),
    Message('note_on', channel=0, note=66, velocity=95, time=2),
    Message('note_on', channel=0, note=71, velocity=95, time=2),
    Message('note_off', channel=0, note=71, velocity=95, time=236),
    Message('note_off', channel=0, note=66, velocity=95, time=0),
    Message('note_off', channel=0, note=59, velocity=95, time=0),
    Message('note_on', channel=0, note=59, velocity=95, time=0),
    Message('note_on', channel=0, note=66, velocity=95, time=2),
    Message('note_on', channel=0, note=71, velocity=95, time=2),
    Message('note_off', channel=0, note=71, velocity=95, time=236),
    Message('note_off', channel=0, note=66, velocity=95, time=0),
    Message('note_off', channel=0, note=59, velocity=95, time=0),
    Message('note_on', channel=0, note=59, velocity=95, time=0),
    Message('note_on', channel=0, note=66, velocity=95, time=2),
    Message('note_on', channel=0, note=71, velocity=95, time=2),
    Message('note_off', channel=0, note=71, velocity=95, time=236),
    Message('note_off', channel=0, note=66, velocity=95, time=0),
    Message('note_off', channel=0, note=59, velocity=95, time=0),
    Message('note_on', channel=0, note=59, velocity=95, time=0),
    Message('note_on', channel=0, note=66, velocity=95, time=2),
    Message('note_on', channel=0, note=71, velocity=95, time=2),
    Message('note_off', channel=0, note=71, velocity=95, time=236),
    Message('note_off', channel=0, note=66, velocity=95, time=0),
    Message('note_off', channel=0, note=59, velocity=95, time=0),
    Message('note_on', channel=0, note=59, velocity=95, time=0),
    Message('note_on', channel=0, note=66, velocity=95, time=2),
    Message('note_on', channel=0, note=71, velocity=95, time=2),
    Message('note_off', channel=0, note=71, velocity=95, time=236),
    Message('note_off', channel=0, note=66, velocity=95, time=0),
    Message('note_off', channel=0, note=59, velocity=95, time=0),
    Message('note_on', channel=0, note=59, velocity=95, time=0),
    Message('note_on', channel=0, note=66, velocity=95, time=2),
    Message('note_on', channel=0, note=71, velocity=95, time=2),
    Message('note_off', channel=0, note=71, velocity=95, time=236),
    Message('note_off', channel=0, note=66, velocity=95, time=0),
    Message('note_off', channel=0, note=59, velocity=95, time=0),
    Message('note_on', channel=0, note=59, velocity=95, time=0),
    Message('note_on', channel=0, note=66, velocity=95, time=2),
    Message('note_on', channel=0, note=69, velocity=95, time=2),
    Message('note_off', channel=0, note=69, velocity=95, time=236),
    Message('note_off', channel=0, note=66, velocity=95, time=0),
    Message('note_off', channel=0, note=59, velocity=95, time=0),
    Message('note_on', channel=0, note=59, velocity=95, time=0),
    Message('note_on', channel=0, note=66, velocity=95, time=2),
    Message('note_on', channel=0, note=69, velocity=95, time=2),
    Message('note_off', channel=0, note=69, velocity=95, time=236),
    Message('note_off', channel=0, note=66, velocity=95, time=0),
    Message('note_off', channel=0, note=59, velocity=95, time=0),
    Message('note_on', channel=0, note=59, velocity=95, time=0),
    Message('note_on', channel=0, note=66, velocity=95, time=2),
    Message('note_on', channel=0, note=69, velocity=95, time=2),
    Message('note_off', channel=0, note=69, velocity=95, time=236),
    Message('note_off', channel=0, note=66, velocity=95, time=0),
    Message('note_off', channel=0, note=59, velocity=95, time=0),
    Message('note_on', channel=0, note=59, velocity=95, time=0),
    Message('note_on', channel=0, note=66, velocity=95, time=2),
    Message('note_on', channel=0, note=69, velocity=95, time=2),
    Message('note_off', channel=0, note=69, velocity=95, time=236),
    Message('note_off', channel=0, note=66, velocity=95, time=0),
    Message('note_off', channel=0, note=59, velocity=95, time=0),
    Message('note_on', channel=0, note=59, velocity=95, time=0),
    Message('note_on', channel=0, note=66, velocity=95, time=2),
    Message('note_on', channel=0, note=69, velocity=95, time=2),
    Message('note_off', channel=0, note=69, velocity=95, time=236),
    Message('note_off', channel=0, note=66, velocity=95, time=0),
    Message('note_off', channel=0, note=59, velocity=95, time=0),
    Message('note_on', channel=0, note=59, velocity=95, time=0),
    Message('note_on', channel=0, note=66, velocity=95, time=2),
    Message('note_on', channel=0, note=69, velocity=95, time=2),
    Message('note_off', channel=0, note=69, velocity=95, time=236),
    Message('note_off', channel=0, note=66, velocity=95, time=0),
    Message('note_off', channel=0, note=59, velocity=95, time=0),
    Message('note_on', channel=0, note=59, velocity=95, time=0),
    Message('note_on', channel=0, note=66, velocity=95, time=2),
    Message('note_on', channel=0, note=69, velocity=95, time=2),
    Message('note_off', channel=0, note=69, velocity=95, time=236),
    Message('note_off', channel=0, note=66, velocity=95, time=0),
    Message('note_off', channel=0, note=59, velocity=95, time=0),
    Message('note_on', channel=0, note=52, velocity=95, time=0),
    Message('note_on', channel=0, note=59, velocity=95, time=4),
    Message('note_on', channel=0, note=64, velocity=95, time=4),
    Message('note_off', channel=0, note=64, velocity=95, time=472),
    Message('note_off', channel=0, note=59, velocity=95, time=0),
    Message('note_off', channel=0, note=52, velocity=95, time=0),
    Message('note_on', channel=0, note=52, velocity=95, time=0),
    Message('note_on', channel=0, note=59, velocity=95, time=2),
    Message('note_on', channel=0, note=64, velocity=95, time=2),
    Message('note_off', channel=0, note=64, velocity=95, time=236),
    Message('note_off', channel=0, note=59, velocity=95, time=0),
    Message('note_off', channel=0, note=52, velocity=95, time=0),
    Message('note_on', channel=0, note=64, velocity=95, time=0),
    Message('note_on', channel=0, note=59, velocity=95, time=2),
    Message('note_on', channel=0, note=52, velocity=95, time=2),
    Message('note_off', channel=0, note=64, velocity=95, time=236),
    Message('note_off', channel=0, note=59, velocity=95, time=0),
    Message('note_off', channel=0, note=52, velocity=95, time=0),
    Message('note_on', channel=0, note=52, velocity=95, time=0),
    Message('note_on', channel=0, note=59, velocity=95, time=2),
    Message('note_on', channel=0, note=64, velocity=95, time=2),
    Message('note_off', channel=0, note=64, velocity=95, time=236),
    Message('note_off', channel=0, note=59, velocity=95, time=0),
    Message('note_off', channel=0, note=52, velocity=95, time=0),
    Message('note_on', channel=0, note=64, velocity=95, time=0),
    Message('note_on', channel=0, note=59, velocity=95, time=2),
    Message('note_on', channel=0, note=52, velocity=95, time=2),
    Message('note_off', channel=0, note=64, velocity=95, time=236),
    Message('note_off', channel=0, note=59, velocity=95, time=0),
    Message('note_off', channel=0, note=52, velocity=95, time=0),
    Message('note_on', channel=0, note=52, velocity=95, time=0),
    Message('note_on', channel=0, note=59, velocity=95, time=2),
    Message('note_on', channel=0, note=64, velocity=95, time=2),
    Message('note_off', channel=0, note=64, velocity=95, time=236),
    Message('note_off', channel=0, note=59, velocity=95, time=0),
    Message('note_off', channel=0, note=52, velocity=95, time=0),
    Message('note_on', channel=0, note=55, velocity=95, time=0),
    Message('note_on', channel=0, note=50, velocity=95, time=2),
    Message('note_on', channel=0, note=45, velocity=95, time=2),
    Message('note_off', channel=0, note=55, velocity=95, time=34),
    Message('note_off', channel=0, note=50, velocity=95, time=0),
    Message('note_off', channel=0, note=45, velocity=95, time=0),
    Message('note_on', channel=0, note=55, velocity=95, time=202),
    Message('note_on', channel=0, note=62, velocity=95, time=4),
    Message('note_on', channel=0, note=67, velocity=95, time=4),
    Message('note_off', channel=0, note=67, velocity=95, time=472),
    Message('note_off', channel=0, note=62, velocity=95, time=0),
    Message('note_off', channel=0, note=55, velocity=95, time=0),
    Message('note_on', channel=0, note=55, velocity=95, time=0),
    Message('note_on', channel=0, note=62, velocity=95, time=2),
    Message('note_on', channel=0, note=67, velocity=95, time=2),
    Message('note_off', channel=0, note=67, velocity=95, time=236),
    Message('note_off', channel=0, note=62, velocity=95, time=0),
    Message('note_off', channel=0, note=55, velocity=95, time=0),
    Message('note_on', channel=0, note=67, velocity=95, time=0),
    Message('note_on', channel=0, note=62, velocity=95, time=2),
    Message('note_on', channel=0, note=55, velocity=95, time=2),
    Message('note_off', channel=0, note=67, velocity=95, time=236),
    Message('note_off', channel=0, note=62, velocity=95, time=0),
    Message('note_off', channel=0, note=55, velocity=95, time=0),
    Message('note_on', channel=0, note=55, velocity=95, time=0),
    Message('note_on', channel=0, note=62, velocity=95, time=2),
    Message('note_on', channel=0, note=67, velocity=95, time=2),
    Message('note_off', channel=0, note=67, velocity=95, time=236),
    Message('note_off', channel=0, note=62, velocity=95, time=0),
    Message('note_off', channel=0, note=55, velocity=95, time=0),
    Message('note_on', channel=0, note=67, velocity=95, time=0),
    Message('note_on', channel=0, note=62, velocity=95, time=2),
    Message('note_on', channel=0, note=55, velocity=95, time=2),
    Message('note_off', channel=0, note=67, velocity=95, time=236),
    Message('note_off', channel=0, note=62, velocity=95, time=0),
    Message('note_off', channel=0, note=55, velocity=95, time=0),
    Message('note_on', channel=0, note=55, velocity=95, time=0),
    Message('note_on', channel=0, note=62, velocity=95, time=2),
    Message('note_on', channel=0, note=67, velocity=95, time=2),
    Message('note_off', channel=0, note=67, velocity=95, time=236),
    Message('note_off', channel=0, note=62, velocity=95, time=0),
    Message('note_off', channel=0, note=55, velocity=95, time=0),
    Message('note_on', channel=0, note=55, velocity=95, time=0),
    Message('note_on', channel=0, note=50, velocity=95, time=2),
    Message('note_on', channel=0, note=45, velocity=95, time=2),
    Message('note_off', channel=0, note=55, velocity=95, time=34),
    Message('note_off', channel=0, note=50, velocity=95, time=0),
    Message('note_off', channel=0, note=45, velocity=95, time=0),
    Message('note_on', channel=0, note=45, velocity=95, time=202),
    Message('note_on', channel=0, note=57, velocity=95, time=4),
    Message('note_on', channel=0, note=62, velocity=95, time=4),
    Message('note_on', channel=0, note=66, velocity=95, time=4),
    Message('note_off', channel=0, note=66, velocity=95, time=468),
    Message('note_off', channel=0, note=62, velocity=95, time=0),
    Message('note_off', channel=0, note=57, velocity=95, time=0),
    Message('note_off', channel=0, note=45, velocity=95, time=0),
    Message('note_on', channel=0, note=45, velocity=95, time=0),
    Message('note_on', channel=0, note=57, velocity=95, time=2),
    Message('note_on', channel=0, note=62, velocity=95, time=2),
    Message('note_on', channel=0, note=66, velocity=95, time=2),
    Message('note_off', channel=0, note=66, velocity=95, time=234),
    Message('note_off', channel=0, note=62, velocity=95, time=0),
    Message('note_off', channel=0, note=57, velocity=95, time=0),
    Message('note_off', channel=0, note=45, velocity=95, time=0),
    Message('note_on', channel=0, note=66, velocity=95, time=0),
    Message('note_on', channel=0, note=62, velocity=95, time=2),
    Message('note_on', channel=0, note=57, velocity=95, time=2),
    Message('note_on', channel=0, note=45, velocity=95, time=2),
    Message('note_off', channel=0, note=66, velocity=95, time=234),
    Message('note_off', channel=0, note=62, velocity=95, time=0),
    Message('note_off', channel=0, note=57, velocity=95, time=0),
    Message('note_off', channel=0, note=45, velocity=95, time=0),
    Message('note_on', channel=0, note=45, velocity=95, time=0),
    Message('note_on', channel=0, note=57, velocity=95, time=2),
    Message('note_on', channel=0, note=62, velocity=95, time=2),
    Message('note_on', channel=0, note=66, velocity=95, time=2),
    Message('note_off', channel=0, note=66, velocity=95, time=234),
    Message('note_off', channel=0, note=62, velocity=95, time=0),
    Message('note_off', channel=0, note=57, velocity=95, time=0),
    Message('note_off', channel=0, note=45, velocity=95, time=0),
    Message('note_on', channel=0, note=66, velocity=95, time=0),
    Message('note_on', channel=0, note=62, velocity=95, time=2),
    Message('note_on', channel=0, note=57, velocity=95, time=2),
    Message('note_on', channel=0, note=45, velocity=95, time=2),
    Message('note_off', channel=0, note=66, velocity=95, time=234),
    Message('note_off', channel=0, note=62, velocity=95, time=0),
    Message('note_off', channel=0, note=57, velocity=95, time=0),
    Message('note_off', channel=0, note=45, velocity=95, time=0),
    Message('note_on', channel=0, note=45, velocity=95, time=0),
    Message('note_on', channel=0, note=57, velocity=95, time=2),
    Message('note_on', channel=0, note=62, velocity=95, time=2),
    Message('note_on', channel=0, note=66, velocity=95, time=2),
    Message('note_off', channel=0, note=66, velocity=95, time=234),
    Message('note_off', channel=0, note=62, velocity=95, time=0),
    Message('note_off', channel=0, note=57, velocity=95, time=0),
    Message('note_off', channel=0, note=45, velocity=95, time=0),
    Message('note_on', channel=0, note=55, velocity=95, time=0),
    Message('note_on', channel=0, note=50, velocity=95, time=2),
    Message('note_on', channel=0, note=45, velocity=95, time=2),
    Message('note_off', channel=0, note=55, velocity=95, time=34),
    Message('note_off', channel=0, note=50, velocity=95, time=0),
    Message('note_off', channel=0, note=45, velocity=95, time=0),
    Message('note_on', channel=0, note=45, velocity=95, time=202),
    Message('note_on', channel=0, note=52, velocity=95, time=4),
    Message('note_on', channel=0, note=57, velocity=95, time=4),
    Message('note_off', channel=0, note=57, velocity=95, time=472),
    Message('note_off', channel=0, note=52, velocity=95, time=0),
    Message('note_off', channel=0, note=45, velocity=95, time=0),
    Message('note_on', channel=0, note=45, velocity=95, time=0),
    Message('note_on', channel=0, note=52, velocity=95, time=2),
    Message('note_on', channel=0, note=57, velocity=95, time=2),
    Message('note_off', channel=0, note=57, velocity=95, time=236),
    Message('note_off', channel=0, note=52, velocity=95, time=0),
    Message('note_off', channel=0, note=45, velocity=95, time=0),
    Message('note_on', channel=0, note=57, velocity=95, time=0),
    Message('note_on', channel=0, note=52, velocity=95, time=2),
    Message('note_on', channel=0, note=45, velocity=95, time=2),
    Message('note_off', channel=0, note=57, velocity=95, time=236),
    Message('note_off', channel=0, note=52, velocity=95, time=0),
    Message('note_off', channel=0, note=45, velocity=95, time=0),
    Message('note_on', channel=0, note=45, velocity=95, time=0),
    Message('note_on', channel=0, note=52, velocity=95, time=2),
    Message('note_on', channel=0, note=57, velocity=95, time=2),
    Message('note_off', channel=0, note=57, velocity=95, time=236),
    Message('note_off', channel=0, note=52, velocity=95, time=0),
    Message('note_off', channel=0, note=45, velocity=95, time=0),
    Message('note_on', channel=0, note=57, velocity=95, time=0),
    Message('note_on', channel=0, note=52, velocity=95, time=2),
    Message('note_on', channel=0, note=45, velocity=95, time=2),
    Message('note_off', channel=0, note=57, velocity=95, time=236),
    Message('note_off', channel=0, note=52, velocity=95, time=0),
    Message('note_off', channel=0, note=45, velocity=95, time=0),
    Message('note_on', channel=0, note=45, velocity=95, time=0),
    Message('note_on', channel=0, note=52, velocity=95, time=2),
    Message('note_on', channel=0, note=57, velocity=95, time=2),
    Message('note_off', channel=0, note=57, velocity=95, time=236),
    Message('note_off', channel=0, note=52, velocity=95, time=0),
    Message('note_off', channel=0, note=45, velocity=95, time=0),
    Message('note_on', channel=0, note=50, velocity=95, time=0),
    Message('note_on', channel=0, note=45, velocity=95, time=2),
    Message('note_on', channel=0, note=40, velocity=95, time=2),
    Message('note_off', channel=0, note=50, velocity=95, time=34),
    Message('note_off', channel=0, note=45, velocity=95, time=0),
    Message('note_off', channel=0, note=40, velocity=95, time=0),
    Message('note_on', channel=0, note=52, velocity=95, time=202),
    Message('note_on', channel=0, note=59, velocity=95, time=4),
    Message('note_on', channel=0, note=64, velocity=95, time=4),
    Message('note_off', channel=0, note=64, velocity=95, time=472),
    Message('note_off', channel=0, note=59, velocity=95, time=0),
    Message('note_off', channel=0, note=52, velocity=95, time=0),
    Message('note_on', channel=0, note=52, velocity=95, time=0),
    Message('note_on', channel=0, note=59, velocity=95, time=2),
    Message('note_on', channel=0, note=64, velocity=95, time=2),
    Message('note_off', channel=0, note=64, velocity=95, time=236),
    Message('note_off', channel=0, note=59, velocity=95, time=0),
    Message('note_off', channel=0, note=52, velocity=95, time=0),
    Message('note_on', channel=0, note=64, velocity=95, time=0),
    Message('note_on', channel=0, note=59, velocity=95, time=2),
    Message('note_on', channel=0, note=52, velocity=95, time=2),
    Message('note_off', channel=0, note=64, velocity=95, time=236),
    Message('note_off', channel=0, note=59, velocity=95, time=0),
    Message('note_off', channel=0, note=52, velocity=95, time=0),
    Message('note_on', channel=0, note=52, velocity=95, time=0),
    Message('note_on', channel=0, note=59, velocity=95, time=2),
    Message('note_on', channel=0, note=64, velocity=95, time=2),
    Message('note_off', channel=0, note=64, velocity=95, time=236),
    Message('note_off', channel=0, note=59, velocity=95, time=0),
    Message('note_off', channel=0, note=52, velocity=95, time=0),
    Message('note_on', channel=0, note=64, velocity=95, time=0),
    Message('note_on', channel=0, note=59, velocity=95, time=2),
    Message('note_on', channel=0, note=52, velocity=95, time=2),
    Message('note_off', channel=0, note=64, velocity=95, time=236),
    Message('note_off', channel=0, note=59, velocity=95, time=0),
    Message('note_off', channel=0, note=52, velocity=95, time=0),
    Message('note_on', channel=0, note=52, velocity=95, time=0),
    Message('note_on', channel=0, note=59, velocity=95, time=2),
    Message('note_on', channel=0, note=64, velocity=95, time=2),
    Message('note_off', channel=0, note=64, velocity=95, time=236),
    Message('note_off', channel=0, note=59, velocity=95, time=0),
    Message('note_off', channel=0, note=52, velocity=95, time=0),
    Message('note_on', channel=0, note=55, velocity=95, time=0),
    Message('note_on', channel=0, note=50, velocity=95, time=2),
    Message('note_on', channel=0, note=45, velocity=95, time=2),
    Message('note_off', channel=0, note=55, velocity=95, time=34),
    Message('note_off', channel=0, note=50, velocity=95, time=0),
    Message('note_off', channel=0, note=45, velocity=95, time=0),
    Message('note_on', channel=0, note=55, velocity=95, time=202),
    Message('note_on', channel=0, note=62, velocity=95, time=4),
    Message('note_on', channel=0, note=67, velocity=95, time=4),
    Message('note_off', channel=0, note=67, velocity=95, time=472),
    Message('note_off', channel=0, note=62, velocity=95, time=0),
    Message('note_off', channel=0, note=55, velocity=95, time=0),
    Message('note_on', channel=0, note=55, velocity=95, time=0),
    Message('note_on', channel=0, note=62, velocity=95, time=2),
    Message('note_on', channel=0, note=67, velocity=95, time=2),
    Message('note_off', channel=0, note=67, velocity=95, time=236),
    Message('note_off', channel=0, note=62, velocity=95, time=0),
    Message('note_off', channel=0, note=55, velocity=95, time=0),
    Message('note_on', channel=0, note=67, velocity=95, time=0),
    Message('note_on', channel=0, note=62, velocity=95, time=2),
    Message('note_on', channel=0, note=55, velocity=95, time=2),
    Message('note_off', channel=0, note=67, velocity=95, time=236),
    Message('note_off', channel=0, note=62, velocity=95, time=0),
    Message('note_off', channel=0, note=55, velocity=95, time=0),
    Message('note_on', channel=0, note=55, velocity=95, time=0),
    Message('note_on', channel=0, note=62, velocity=95, time=2),
    Message('note_on', channel=0, note=67, velocity=95, time=2),
    Message('note_off', channel=0, note=67, velocity=95, time=236),
    Message('note_off', channel=0, note=62, velocity=95, time=0),
    Message('note_off', channel=0, note=55, velocity=95, time=0),
    Message('note_on', channel=0, note=67, velocity=95, time=0),
    Message('note_on', channel=0, note=62, velocity=95, time=2),
    Message('note_on', channel=0, note=55, velocity=95, time=2),
    Message('note_off', channel=0, note=67, velocity=95, time=236),
    Message('note_off', channel=0, note=62, velocity=95, time=0),
    Message('note_off', channel=0, note=55, velocity=95, time=0),
    Message('note_on', channel=0, note=55, velocity=95, time=0),
    Message('note_on', channel=0, note=62, velocity=95, time=2),
    Message('note_on', channel=0, note=67, velocity=95, time=2),
    Message('note_off', channel=0, note=67, velocity=95, time=236),
    Message('note_off', channel=0, note=62, velocity=95, time=0),
    Message('note_off', channel=0, note=55, velocity=95, time=0),
    Message('note_on', channel=0, note=55, velocity=95, time=0),
    Message('note_on', channel=0, note=50, velocity=95, time=2),
    Message('note_on', channel=0, note=45, velocity=95, time=2),
    Message('note_off', channel=0, note=55, velocity=95, time=34),
    Message('note_off', channel=0, note=50, velocity=95, time=0),
    Message('note_off', channel=0, note=45, velocity=95, time=0),
    Message('note_on', channel=0, note=45, velocity=95, time=202),
    Message('note_on', channel=0, note=57, velocity=95, time=4),
    Message('note_on', channel=0, note=62, velocity=95, time=4),
    Message('note_on', channel=0, note=66, velocity=95, time=4),
    Message('note_off', channel=0, note=66, velocity=95, time=468),
    Message('note_off', channel=0, note=62, velocity=95, time=0),
    Message('note_off', channel=0, note=57, velocity=95, time=0),
    Message('note_off', channel=0, note=45, velocity=95, time=0),
    Message('note_on', channel=0, note=45, velocity=95, time=0),
    Message('note_on', channel=0, note=57, velocity=95, time=2),
    Message('note_on', channel=0, note=62, velocity=95, time=2),
    Message('note_on', channel=0, note=66, velocity=95, time=2),
    Message('note_off', channel=0, note=66, velocity=95, time=234),
    Message('note_off', channel=0, note=62, velocity=95, time=0),
    Message('note_off', channel=0, note=57, velocity=95, time=0),
    Message('note_off', channel=0, note=45, velocity=95, time=0),
    Message('note_on', channel=0, note=66, velocity=95, time=0),
    Message('note_on', channel=0, note=62, velocity=95, time=2),
    Message('note_on', channel=0, note=57, velocity=95, time=2),
    Message('note_on', channel=0, note=45, velocity=95, time=2),
    Message('note_off', channel=0, note=66, velocity=95, time=234),
    Message('note_off', channel=0, note=62, velocity=95, time=0),
    Message('note_off', channel=0, note=57, velocity=95, time=0),
    Message('note_off', channel=0, note=45, velocity=95, time=0),
    Message('note_on', channel=0, note=45, velocity=95, time=0),
    Message('note_on', channel=0, note=57, velocity=95, time=2),
    Message('note_on', channel=0, note=62, velocity=95, time=2),
    Message('note_on', channel=0, note=66, velocity=95, time=2),
    Message('note_off', channel=0, note=66, velocity=95, time=234),
    Message('note_off', channel=0, note=62, velocity=95, time=0),
    Message('note_off', channel=0, note=57, velocity=95, time=0),
    Message('note_off', channel=0, note=45, velocity=95, time=0),
    Message('note_on', channel=0, note=66, velocity=95, time=0),
    Message('note_on', channel=0, note=62, velocity=95, time=2),
    Message('note_on', channel=0, note=57, velocity=95, time=2),
    Message('note_on', channel=0, note=45, velocity=95, time=2),
    Message('note_off', channel=0, note=66, velocity=95, time=234),
    Message('note_off', channel=0, note=62, velocity=95, time=0),
    Message('note_off', channel=0, note=57, velocity=95, time=0),
    Message('note_off', channel=0, note=45, velocity=95, time=0),
    Message('note_on', channel=0, note=45, velocity=95, time=0),
    Message('note_on', channel=0, note=57, velocity=95, time=2),
    Message('note_on', channel=0, note=62, velocity=95, time=2),
    Message('note_on', channel=0, note=66, velocity=95, time=2),
    Message('note_off', channel=0, note=66, velocity=95, time=234),
    Message('note_off', channel=0, note=62, velocity=95, time=0),
    Message('note_off', channel=0, note=57, velocity=95, time=0),
    Message('note_off', channel=0, note=45, velocity=95, time=0),
    Message('note_on', channel=0, note=55, velocity=95, time=0),
    Message('note_on', channel=0, note=50, velocity=95, time=2),
    Message('note_on', channel=0, note=45, velocity=95, time=2),
    Message('note_off', channel=0, note=55, velocity=95, time=34),
    Message('note_off', channel=0, note=50, velocity=95, time=0),
    Message('note_off', channel=0, note=45, velocity=95, time=0),
    Message('note_on', channel=0, note=45, velocity=95, time=202),
    Message('note_on', channel=0, note=52, velocity=95, time=4),
    Message('note_on', channel=0, note=57, velocity=95, time=4),
    Message('note_off', channel=0, note=57, velocity=95, time=472),
    Message('note_off', channel=0, note=52, velocity=95, time=0),
    Message('note_off', channel=0, note=45, velocity=95, time=0),
    Message('note_on', channel=0, note=45, velocity=95, time=0),
    Message('note_on', channel=0, note=52, velocity=95, time=2),
    Message('note_on', channel=0, note=57, velocity=95, time=2),
    Message('note_off', channel=0, note=57, velocity=95, time=236),
    Message('note_off', channel=0, note=52, velocity=95, time=0),
    Message('note_off', channel=0, note=45, velocity=95, time=0),
    Message('note_on', channel=0, note=57, velocity=95, time=0),
    Message('note_on', channel=0, note=52, velocity=95, time=2),
    Message('note_on', channel=0, note=45, velocity=95, time=2),
    Message('note_off', channel=0, note=57, velocity=95, time=236),
    Message('note_off', channel=0, note=52, velocity=95, time=0),
    Message('note_off', channel=0, note=45, velocity=95, time=0),
    Message('note_on', channel=0, note=45, velocity=95, time=0),
    Message('note_on', channel=0, note=52, velocity=95, time=2),
    Message('note_on', channel=0, note=57, velocity=95, time=2),
    Message('note_off', channel=0, note=57, velocity=95, time=236),
    Message('note_off', channel=0, note=52, velocity=95, time=0),
    Message('note_off', channel=0, note=45, velocity=95, time=0),
    Message('note_on', channel=0, note=57, velocity=95, time=0),
    Message('note_on', channel=0, note=52, velocity=95, time=2),
    Message('note_on', channel=0, note=45, velocity=95, time=2),
    Message('note_off', channel=0, note=57, velocity=95, time=236),
    Message('note_off', channel=0, note=52, velocity=95, time=0),
    Message('note_off', channel=0, note=45, velocity=95, time=0),
    Message('note_on', channel=0, note=45, velocity=95, time=0),
    Message('note_on', channel=0, note=52, velocity=95, time=2),
    Message('note_on', channel=0, note=57, velocity=95, time=2),
    Message('note_off', channel=0, note=57, velocity=95, time=236),
    Message('note_off', channel=0, note=52, velocity=95, time=0),
    Message('note_off', channel=0, note=45, velocity=95, time=0),
    Message('note_on', channel=0, note=50, velocity=95, time=0),
    Message('note_on', channel=0, note=45, velocity=95, time=2),
    Message('note_on', channel=0, note=40, velocity=95, time=2),
    Message('note_off', channel=0, note=50, velocity=95, time=34),
    Message('note_off', channel=0, note=45, velocity=95, time=0),
    Message('note_off', channel=0, note=40, velocity=95, time=0),
    Message('note_on', channel=0, note=52, velocity=95, time=202),
    Message('note_on', channel=0, note=59, velocity=95, time=4),
    Message('note_on', channel=0, note=64, velocity=95, time=4),
    Message('note_off', channel=0, note=64, velocity=95, time=472),
    Message('note_off', channel=0, note=59, velocity=95, time=0),
    Message('note_off', channel=0, note=52, velocity=95, time=0),
    Message('note_on', channel=0, note=52, velocity=95, time=0),
    Message('note_on', channel=0, note=59, velocity=95, time=2),
    Message('note_on', channel=0, note=64, velocity=95, time=2),
    Message('note_off', channel=0, note=64, velocity=95, time=236),
    Message('note_off', channel=0, note=59, velocity=95, time=0),
    Message('note_off', channel=0, note=52, velocity=95, time=0),
    Message('note_on', channel=0, note=64, velocity=95, time=0),
    Message('note_on', channel=0, note=59, velocity=95, time=2),
    Message('note_on', channel=0, note=52, velocity=95, time=2),
    Message('note_off', channel=0, note=64, velocity=95, time=236),
    Message('note_off', channel=0, note=59, velocity=95, time=0),
    Message('note_off', channel=0, note=52, velocity=95, time=0),
    Message('note_on', channel=0, note=52, velocity=95, time=0),
    Message('note_on', channel=0, note=59, velocity=95, time=2),
    Message('note_on', channel=0, note=64, velocity=95, time=2),
    Message('note_off', channel=0, note=64, velocity=95, time=236),
    Message('note_off', channel=0, note=59, velocity=95, time=0),
    Message('note_off', channel=0, note=52, velocity=95, time=0),
    Message('note_on', channel=0, note=64, velocity=95, time=0),
    Message('note_on', channel=0, note=59, velocity=95, time=2),
    Message('note_on', channel=0, note=52, velocity=95, time=2),
    Message('note_off', channel=0, note=64, velocity=95, time=236),
    Message('note_off', channel=0, note=59, velocity=95, time=0),
    Message('note_off', channel=0, note=52, velocity=95, time=0),
    Message('note_on', channel=0, note=52, velocity=95, time=0),
    Message('note_on', channel=0, note=59, velocity=95, time=2),
    Message('note_on', channel=0, note=64, velocity=95, time=2),
    Message('note_off', channel=0, note=64, velocity=95, time=236),
    Message('note_off', channel=0, note=59, velocity=95, time=0),
    Message('note_off', channel=0, note=52, velocity=95, time=0),
    Message('note_on', channel=0, note=55, velocity=95, time=0),
    Message('note_on', channel=0, note=50, velocity=95, time=2),
    Message('note_on', channel=0, note=45, velocity=95, time=2),
    Message('note_off', channel=0, note=55, velocity=95, time=34),
    Message('note_off', channel=0, note=50, velocity=95, time=0),
    Message('note_off', channel=0, note=45, velocity=95, time=0),
    Message('note_on', channel=0, note=55, velocity=95, time=202),
    Message('note_on', channel=0, note=62, velocity=95, time=4),
    Message('note_on', channel=0, note=67, velocity=95, time=4),
    Message('note_off', channel=0, note=67, velocity=95, time=472),
    Message('note_off', channel=0, note=62, velocity=95, time=0),
    Message('note_off', channel=0, note=55, velocity=95, time=0),
    Message('note_on', channel=0, note=55, velocity=95, time=0),
    Message('note_on', channel=0, note=62, velocity=95, time=2),
    Message('note_on', channel=0, note=67, velocity=95, time=2),
    Message('note_off', channel=0, note=67, velocity=95, time=236),
    Message('note_off', channel=0, note=62, velocity=95, time=0),
    Message('note_off', channel=0, note=55, velocity=95, time=0),
    Message('note_on', channel=0, note=67, velocity=95, time=0),
    Message('note_on', channel=0, note=62, velocity=95, time=2),
    Message('note_on', channel=0, note=55, velocity=95, time=2),
    Message('note_off', channel=0, note=67, velocity=95, time=236),
    Message('note_off', channel=0, note=62, velocity=95, time=0),
    Message('note_off', channel=0, note=55, velocity=95, time=0),
    Message('note_on', channel=0, note=55, velocity=95, time=0),
    Message('note_on', channel=0, note=62, velocity=95, time=2),
    Message('note_on', channel=0, note=67, velocity=95, time=2),
    Message('note_off', channel=0, note=67, velocity=95, time=236),
    Message('note_off', channel=0, note=62, velocity=95, time=0),
    Message('note_off', channel=0, note=55, velocity=95, time=0),
    Message('note_on', channel=0, note=67, velocity=95, time=0),
    Message('note_on', channel=0, note=62, velocity=95, time=2),
    Message('note_on', channel=0, note=55, velocity=95, time=2),
    Message('note_off', channel=0, note=67, velocity=95, time=236),
    Message('note_off', channel=0, note=62, velocity=95, time=0),
    Message('note_off', channel=0, note=55, velocity=95, time=0),
    Message('note_on', channel=0, note=55, velocity=95, time=0),
    Message('note_on', channel=0, note=62, velocity=95, time=2),
    Message('note_on', channel=0, note=67, velocity=95, time=2),
    Message('note_off', channel=0, note=67, velocity=95, time=236),
    Message('note_off', channel=0, note=62, velocity=95, time=0),
    Message('note_off', channel=0, note=55, velocity=95, time=0),
    Message('note_on', channel=0, note=55, velocity=95, time=0),
    Message('note_on', channel=0, note=50, velocity=95, time=2),
    Message('note_on', channel=0, note=45, velocity=95, time=2),
    Message('note_off', channel=0, note=55, velocity=95, time=34),
    Message('note_off', channel=0, note=50, velocity=95, time=0),
    Message('note_off', channel=0, note=45, velocity=95, time=0),
    Message('note_on', channel=0, note=45, velocity=95, time=202),
    Message('note_on', channel=0, note=57, velocity=95, time=4),
    Message('note_on', channel=0, note=62, velocity=95, time=4),
    Message('note_on', channel=0, note=66, velocity=95, time=4),
    Message('note_off', channel=0, note=66, velocity=95, time=468),
    Message('note_off', channel=0, note=62, velocity=95, time=0),
    Message('note_off', channel=0, note=57, velocity=95, time=0),
    Message('note_off', channel=0, note=45, velocity=95, time=0),
    Message('note_on', channel=0, note=45, velocity=95, time=0),
    Message('note_on', channel=0, note=57, velocity=95, time=2),
    Message('note_on', channel=0, note=62, velocity=95, time=2),
    Message('note_on', channel=0, note=66, velocity=95, time=2),
    Message('note_off', channel=0, note=66, velocity=95, time=234),
    Message('note_off', channel=0, note=62, velocity=95, time=0),
    Message('note_off', channel=0, note=57, velocity=95, time=0),
    Message('note_off', channel=0, note=45, velocity=95, time=0),
    Message('note_on', channel=0, note=66, velocity=95, time=0),
    Message('note_on', channel=0, note=62, velocity=95, time=2),
    Message('note_on', channel=0, note=57, velocity=95, time=2),
    Message('note_on', channel=0, note=45, velocity=95, time=2),
    Message('note_off', channel=0, note=66, velocity=95, time=234),
    Message('note_off', channel=0, note=62, velocity=95, time=0),
    Message('note_off', channel=0, note=57, velocity=95, time=0),
    Message('note_off', channel=0, note=45, velocity=95, time=0),
    Message('note_on', channel=0, note=45, velocity=95, time=0),
    Message('note_on', channel=0, note=57, velocity=95, time=2),
    Message('note_on', channel=0, note=62, velocity=95, time=2),
    Message('note_on', channel=0, note=66, velocity=95, time=2),
    Message('note_off', channel=0, note=66, velocity=95, time=234),
    Message('note_off', channel=0, note=62, velocity=95, time=0),
    Message('note_off', channel=0, note=57, velocity=95, time=0),
    Message('note_off', channel=0, note=45, velocity=95, time=0),
    Message('note_on', channel=0, note=66, velocity=95, time=0),
    Message('note_on', channel=0, note=62, velocity=95, time=2),
    Message('note_on', channel=0, note=57, velocity=95, time=2),
    Message('note_on', channel=0, note=45, velocity=95, time=2),
    Message('note_off', channel=0, note=66, velocity=95, time=234),
    Message('note_off', channel=0, note=62, velocity=95, time=0),
    Message('note_off', channel=0, note=57, velocity=95, time=0),
    Message('note_off', channel=0, note=45, velocity=95, time=0),
    Message('note_on', channel=0, note=45, velocity=95, time=0),
    Message('note_on', channel=0, note=57, velocity=95, time=2),
    Message('note_on', channel=0, note=62, velocity=95, time=2),
    Message('note_on', channel=0, note=66, velocity=95, time=2),
    Message('note_off', channel=0, note=66, velocity=95, time=234),
    Message('note_off', channel=0, note=62, velocity=95, time=0),
    Message('note_off', channel=0, note=57, velocity=95, time=0),
    Message('note_off', channel=0, note=45, velocity=95, time=0),
    Message('note_on', channel=0, note=55, velocity=95, time=0),
    Message('note_on', channel=0, note=50, velocity=95, time=2),
    Message('note_on', channel=0, note=45, velocity=95, time=2),
    Message('note_off', channel=0, note=55, velocity=95, time=34),
    Message('note_off', channel=0, note=50, velocity=95, time=0),
    Message('note_off', channel=0, note=45, velocity=95, time=0),
    Message('note_on', channel=0, note=45, velocity=95, time=202),
    Message('note_on', channel=0, note=52, velocity=95, time=4),
    Message('note_on', channel=0, note=57, velocity=95, time=4),
    Message('note_off', channel=0, note=57, velocity=95, time=472),
    Message('note_off', channel=0, note=52, velocity=95, time=0),
    Message('note_off', channel=0, note=45, velocity=95, time=0),
    Message('note_on', channel=0, note=45, velocity=95, time=0),
    Message('note_on', channel=0, note=52, velocity=95, time=2),
    Message('note_on', channel=0, note=57, velocity=95, time=2),
    Message('note_off', channel=0, note=57, velocity=95, time=236),
    Message('note_off', channel=0, note=52, velocity=95, time=0),
    Message('note_off', channel=0, note=45, velocity=95, time=0),
    Message('note_on', channel=0, note=57, velocity=95, time=0),
    Message('note_on', channel=0, note=52, velocity=95, time=2),
    Message('note_on', channel=0, note=45, velocity=95, time=2),
    Message('note_off', channel=0, note=57, velocity=95, time=236),
    Message('note_off', channel=0, note=52, velocity=95, time=0),
    Message('note_off', channel=0, note=45, velocity=95, time=0),
    Message('note_on', channel=0, note=45, velocity=95, time=0),
    Message('note_on', channel=0, note=52, velocity=95, time=2),
    Message('note_on', channel=0, note=57, velocity=95, time=2),
    Message('note_off', channel=0, note=57, velocity=95, time=236),
    Message('note_off', channel=0, note=52, velocity=95, time=0),
    Message('note_off', channel=0, note=45, velocity=95, time=0),
    Message('note_on', channel=0, note=57, velocity=95, time=0),
    Message('note_on', channel=0, note=52, velocity=95, time=2),
    Message('note_on', channel=0, note=45, velocity=95, time=2),
    Message('note_off', channel=0, note=57, velocity=95, time=236),
    Message('note_off', channel=0, note=52, velocity=95, time=0),
    Message('note_off', channel=0, note=45, velocity=95, time=0),
    Message('note_on', channel=0, note=45, velocity=95, time=0),
    Message('note_on', channel=0, note=52, velocity=95, time=2),
    Message('note_on', channel=0, note=57, velocity=95, time=2),
    Message('note_off', channel=0, note=57, velocity=95, time=236),
    Message('note_off', channel=0, note=52, velocity=95, time=0),
    Message('note_off', channel=0, note=45, velocity=95, time=0),
    Message('note_on', channel=0, note=50, velocity=95, time=0),
    Message('note_on', channel=0, note=45, velocity=95, time=2),
    Message('note_on', channel=0, note=40, velocity=95, time=2),
    Message('note_off', channel=0, note=50, velocity=95, time=34),
    Message('note_off', channel=0, note=45, velocity=95, time=0),
    Message('note_off', channel=0, note=40, velocity=95, time=0),
    Message('note_on', channel=0, note=52, velocity=95, time=202),
    Message('note_on', channel=0, note=59, velocity=95, time=4),
    Message('note_on', channel=0, note=64, velocity=95, time=4),
    Message('note_off', channel=0, note=64, velocity=95, time=472),
    Message('note_off', channel=0, note=59, velocity=95, time=0),
    Message('note_off', channel=0, note=52, velocity=95, time=0),
    Message('note_on', channel=0, note=52, velocity=95, time=0),
    Message('note_on', channel=0, note=59, velocity=95, time=2),
    Message('note_on', channel=0, note=64, velocity=95, time=2),
    Message('note_off', channel=0, note=64, velocity=95, time=236),
    Message('note_off', channel=0, note=59, velocity=95, time=0),
    Message('note_off', channel=0, note=52, velocity=95, time=0),
    Message('note_on', channel=0, note=64, velocity=95, time=0),
    Message('note_on', channel=0, note=59, velocity=95, time=2),
    Message('note_on', channel=0, note=52, velocity=95, time=2),
    Message('note_off', channel=0, note=64, velocity=95, time=236),
    Message('note_off', channel=0, note=59, velocity=95, time=0),
    Message('note_off', channel=0, note=52, velocity=95, time=0),
    Message('note_on', channel=0, note=52, velocity=95, time=0),
    Message('note_on', channel=0, note=59, velocity=95, time=2),
    Message('note_on', channel=0, note=64, velocity=95, time=2),
    Message('note_off', channel=0, note=64, velocity=95, time=236),
    Message('note_off', channel=0, note=59, velocity=95, time=0),
    Message('note_off', channel=0, note=52, velocity=95, time=0),
    Message('note_on', channel=0, note=64, velocity=95, time=0),
    Message('note_on', channel=0, note=59, velocity=95, time=2),
    Message('note_on', channel=0, note=52, velocity=95, time=2),
    Message('note_off', channel=0, note=64, velocity=95, time=236),
    Message('note_off', channel=0, note=59, velocity=95, time=0),
    Message('note_off', channel=0, note=52, velocity=95, time=0),
    Message('note_on', channel=0, note=52, velocity=95, time=0),
    Message('note_on', channel=0, note=59, velocity=95, time=2),
    Message('note_on', channel=0, note=64, velocity=95, time=2),
    Message('note_off', channel=0, note=64, velocity=95, time=236),
    Message('note_off', channel=0, note=59, velocity=95, time=0),
    Message('note_off', channel=0, note=52, velocity=95, time=0),
    Message('note_on', channel=0, note=55, velocity=95, time=0),
    Message('note_on', channel=0, note=50, velocity=95, time=2),
    Message('note_on', channel=0, note=45, velocity=95, time=2),
    Message('note_off', channel=0, note=55, velocity=95, time=34),
    Message('note_off', channel=0, note=50, velocity=95, time=0),
    Message('note_off', channel=0, note=45, velocity=95, time=0),
    Message('note_on', channel=0, note=55, velocity=95, time=202),
    Message('note_on', channel=0, note=62, velocity=95, time=4),
    Message('note_on', channel=0, note=67, velocity=95, time=4),
    Message('note_off', channel=0, note=67, velocity=95, time=472),
    Message('note_off', channel=0, note=62, velocity=95, time=0),
    Message('note_off', channel=0, note=55, velocity=95, time=0),
    Message('note_on', channel=0, note=55, velocity=95, time=0),
    Message('note_on', channel=0, note=62, velocity=95, time=2),
    Message('note_on', channel=0, note=67, velocity=95, time=2),
    Message('note_off', channel=0, note=67, velocity=95, time=236),
    Message('note_off', channel=0, note=62, velocity=95, time=0),
    Message('note_off', channel=0, note=55, velocity=95, time=0),
    Message('note_on', channel=0, note=67, velocity=95, time=0),
    Message('note_on', channel=0, note=62, velocity=95, time=2),
    Message('note_on', channel=0, note=55, velocity=95, time=2),
    Message('note_off', channel=0, note=67, velocity=95, time=236),
    Message('note_off', channel=0, note=62, velocity=95, time=0),
    Message('note_off', channel=0, note=55, velocity=95, time=0),
    Message('note_on', channel=0, note=55, velocity=95, time=0),
    Message('note_on', channel=0, note=62, velocity=95, time=2),
    Message('note_on', channel=0, note=67, velocity=95, time=2),
    Message('note_off', channel=0, note=67, velocity=95, time=236),
    Message('note_off', channel=0, note=62, velocity=95, time=0),
    Message('note_off', channel=0, note=55, velocity=95, time=0),
    Message('note_on', channel=0, note=67, velocity=95, time=0),
    Message('note_on', channel=0, note=62, velocity=95, time=2),
    Message('note_on', channel=0, note=55, velocity=95, time=2),
    Message('note_off', channel=0, note=67, velocity=95, time=236),
    Message('note_off', channel=0, note=62, velocity=95, time=0),
    Message('note_off', channel=0, note=55, velocity=95, time=0),
    Message('note_on', channel=0, note=55, velocity=95, time=0),
    Message('note_on', channel=0, note=62, velocity=95, time=2),
    Message('note_on', channel=0, note=67, velocity=95, time=2),
    Message('note_off', channel=0, note=67, velocity=95, time=236),
    Message('note_off', channel=0, note=62, velocity=95, time=0),
    Message('note_off', channel=0, note=55, velocity=95, time=0),
    Message('note_on', channel=0, note=55, velocity=95, time=0),
    Message('note_on', channel=0, note=50, velocity=95, time=2),
    Message('note_on', channel=0, note=45, velocity=95, time=2),
    Message('note_off', channel=0, note=55, velocity=95, time=34),
    Message('note_off', channel=0, note=50, velocity=95, time=0),
    Message('note_off', channel=0, note=45, velocity=95, time=0),
    Message('note_on', channel=0, note=45, velocity=95, time=202),
    Message('note_on', channel=0, note=57, velocity=95, time=4),
    Message('note_on', channel=0, note=62, velocity=95, time=4),
    Message('note_on', channel=0, note=66, velocity=95, time=4),
    Message('note_off', channel=0, note=66, velocity=95, time=468),
    Message('note_off', channel=0, note=62, velocity=95, time=0),
    Message('note_off', channel=0, note=57, velocity=95, time=0),
    Message('note_off', channel=0, note=45, velocity=95, time=0),
    Message('note_on', channel=0, note=45, velocity=95, time=0),
    Message('note_on', channel=0, note=57, velocity=95, time=2),
    Message('note_on', channel=0, note=62, velocity=95, time=2),
    Message('note_on', channel=0, note=66, velocity=95, time=2),
    Message('note_off', channel=0, note=66, velocity=95, time=234),
    Message('note_off', channel=0, note=62, velocity=95, time=0),
    Message('note_off', channel=0, note=57, velocity=95, time=0),
    Message('note_off', channel=0, note=45, velocity=95, time=0),
    Message('note_on', channel=0, note=66, velocity=95, time=0),
    Message('note_on', channel=0, note=62, velocity=95, time=2),
    Message('note_on', channel=0, note=57, velocity=95, time=2),
    Message('note_on', channel=0, note=45, velocity=95, time=2),
    Message('note_off', channel=0, note=66, velocity=95, time=234),
    Message('note_off', channel=0, note=62, velocity=95, time=0),
    Message('note_off', channel=0, note=57, velocity=95, time=0),
    Message('note_off', channel=0, note=45, velocity=95, time=0),
    Message('note_on', channel=0, note=45, velocity=95, time=0),
    Message('note_on', channel=0, note=57, velocity=95, time=2),
    Message('note_on', channel=0, note=62, velocity=95, time=2),
    Message('note_on', channel=0, note=66, velocity=95, time=2),
    Message('note_off', channel=0, note=66, velocity=95, time=234),
    Message('note_off', channel=0, note=62, velocity=95, time=0),
    Message('note_off', channel=0, note=57, velocity=95, time=0),
    Message('note_off', channel=0, note=45, velocity=95, time=0),
    Message('note_on', channel=0, note=66, velocity=95, time=0),
    Message('note_on', channel=0, note=62, velocity=95, time=2),
    Message('note_on', channel=0, note=57, velocity=95, time=2),
    Message('note_on', channel=0, note=45, velocity=95, time=2),
    Message('note_off', channel=0, note=66, velocity=95, time=234),
    Message('note_off', channel=0, note=62, velocity=95, time=0),
    Message('note_off', channel=0, note=57, velocity=95, time=0),
    Message('note_off', channel=0, note=45, velocity=95, time=0),
    Message('note_on', channel=0, note=45, velocity=95, time=0),
    Message('note_on', channel=0, note=57, velocity=95, time=2),
    Message('note_on', channel=0, note=62, velocity=95, time=2),
    Message('note_on', channel=0, note=66, velocity=95, time=2),
    Message('note_off', channel=0, note=66, velocity=95, time=234),
    Message('note_off', channel=0, note=62, velocity=95, time=0),
    Message('note_off', channel=0, note=57, velocity=95, time=0),
    Message('note_off', channel=0, note=45, velocity=95, time=0),
    Message('note_on', channel=0, note=55, velocity=95, time=0),
    Message('note_on', channel=0, note=50, velocity=95, time=2),
    Message('note_on', channel=0, note=45, velocity=95, time=2),
    Message('note_off', channel=0, note=55, velocity=95, time=34),
    Message('note_off', channel=0, note=50, velocity=95, time=0),
    Message('note_off', channel=0, note=45, velocity=95, time=0),
    Message('note_on', channel=0, note=45, velocity=95, time=202),
    Message('note_on', channel=0, note=52, velocity=95, time=4),
    Message('note_on', channel=0, note=57, velocity=95, time=4),
    Message('note_off', channel=0, note=57, velocity=95, time=472),
    Message('note_off', channel=0, note=52, velocity=95, time=0),
    Message('note_off', channel=0, note=45, velocity=95, time=0),
    Message('note_on', channel=0, note=45, velocity=95, time=0),
    Message('note_on', channel=0, note=52, velocity=95, time=2),
    Message('note_on', channel=0, note=57, velocity=95, time=2),
    Message('note_off', channel=0, note=57, velocity=95, time=236),
    Message('note_off', channel=0, note=52, velocity=95, time=0),
    Message('note_off', channel=0, note=45, velocity=95, time=0),
    Message('note_on', channel=0, note=57, velocity=95, time=0),
    Message('note_on', channel=0, note=52, velocity=95, time=2),
    Message('note_on', channel=0, note=45, velocity=95, time=2),
    Message('note_off', channel=0, note=57, velocity=95, time=236),
    Message('note_off', channel=0, note=52, velocity=95, time=0),
    Message('note_off', channel=0, note=45, velocity=95, time=0),
    Message('note_on', channel=0, note=45, velocity=95, time=0),
    Message('note_on', channel=0, note=52, velocity=95, time=2),
    Message('note_on', channel=0, note=57, velocity=95, time=2),
    Message('note_off', channel=0, note=57, velocity=95, time=236),
    Message('note_off', channel=0, note=52, velocity=95, time=0),
    Message('note_off', channel=0, note=45, velocity=95, time=0),
    Message('note_on', channel=0, note=57, velocity=95, time=0),
    Message('note_on', channel=0, note=52, velocity=95, time=2),
    Message('note_on', channel=0, note=45, velocity=95, time=2),
    Message('note_off', channel=0, note=57, velocity=95, time=236),
    Message('note_off', channel=0, note=52, velocity=95, time=0),
    Message('note_off', channel=0, note=45, velocity=95, time=0),
    Message('note_on', channel=0, note=45, velocity=95, time=0),
    Message('note_on', channel=0, note=52, velocity=95, time=2),
    Message('note_on', channel=0, note=57, velocity=95, time=2),
    Message('note_off', channel=0, note=57, velocity=95, time=236),
    Message('note_off', channel=0, note=52, velocity=95, time=0),
    Message('note_off', channel=0, note=45, velocity=95, time=0),
    Message('note_on', channel=0, note=50, velocity=95, time=0),
    Message('note_on', channel=0, note=45, velocity=95, time=2),
    Message('note_on', channel=0, note=40, velocity=95, time=2),
    Message('note_off', channel=0, note=50, velocity=95, time=34),
    Message('note_off', channel=0, note=45, velocity=95, time=0),
    Message('note_off', channel=0, note=40, velocity=95, time=0),
    Message('note_on', channel=0, note=52, velocity=95, time=202),
    Message('note_on', channel=0, note=59, velocity=95, time=4),
    Message('note_on', channel=0, note=64, velocity=95, time=4),
    Message('note_off', channel=0, note=64, velocity=95, time=472),
    Message('note_off', channel=0, note=59, velocity=95, time=0),
    Message('note_off', channel=0, note=52, velocity=95, time=0),
    Message('note_on', channel=0, note=52, velocity=95, time=0),
    Message('note_on', channel=0, note=59, velocity=95, time=2),
    Message('note_on', channel=0, note=64, velocity=95, time=2),
    Message('note_off', channel=0, note=64, velocity=95, time=236),
    Message('note_off', channel=0, note=59, velocity=95, time=0),
    Message('note_off', channel=0, note=52, velocity=95, time=0),
    Message('note_on', channel=0, note=64, velocity=95, time=0),
    Message('note_on', channel=0, note=59, velocity=95, time=2),
    Message('note_on', channel=0, note=52, velocity=95, time=2),
    Message('note_off', channel=0, note=64, velocity=95, time=236),
    Message('note_off', channel=0, note=59, velocity=95, time=0),
    Message('note_off', channel=0, note=52, velocity=95, time=0),
    Message('note_on', channel=0, note=52, velocity=95, time=0),
    Message('note_on', channel=0, note=59, velocity=95, time=2),
    Message('note_on', channel=0, note=64, velocity=95, time=2),
    Message('note_off', channel=0, note=64, velocity=95, time=236),
    Message('note_off', channel=0, note=59, velocity=95, time=0),
    Message('note_off', channel=0, note=52, velocity=95, time=0),
    Message('note_on', channel=0, note=64, velocity=95, time=0),
    Message('note_on', channel=0, note=59, velocity=95, time=2),
    Message('note_on', channel=0, note=52, velocity=95, time=2),
    Message('note_off', channel=0, note=64, velocity=95, time=236),
    Message('note_off', channel=0, note=59, velocity=95, time=0),
    Message('note_off', channel=0, note=52, velocity=95, time=0),
    Message('note_on', channel=0, note=52, velocity=95, time=0),
    Message('note_on', channel=0, note=59, velocity=95, time=2),
    Message('note_on', channel=0, note=64, velocity=95, time=2),
    Message('note_off', channel=0, note=64, velocity=95, time=236),
    Message('note_off', channel=0, note=59, velocity=95, time=0),
    Message('note_off', channel=0, note=52, velocity=95, time=0),
    Message('note_on', channel=0, note=55, velocity=95, time=0),
    Message('note_on', channel=0, note=50, velocity=95, time=2),
    Message('note_on', channel=0, note=45, velocity=95, time=2),
    Message('note_off', channel=0, note=55, velocity=95, time=34),
    Message('note_off', channel=0, note=50, velocity=95, time=0),
    Message('note_off', channel=0, note=45, velocity=95, time=0),
    Message('note_on', channel=0, note=55, velocity=95, time=202),
    Message('note_on', channel=0, note=62, velocity=95, time=4),
    Message('note_on', channel=0, note=67, velocity=95, time=4),
    Message('note_off', channel=0, note=67, velocity=95, time=472),
    Message('note_off', channel=0, note=62, velocity=95, time=0),
    Message('note_off', channel=0, note=55, velocity=95, time=0),
    Message('note_on', channel=0, note=55, velocity=95, time=0),
    Message('note_on', channel=0, note=62, velocity=95, time=2),
    Message('note_on', channel=0, note=67, velocity=95, time=2),
    Message('note_off', channel=0, note=67, velocity=95, time=236),
    Message('note_off', channel=0, note=62, velocity=95, time=0),
    Message('note_off', channel=0, note=55, velocity=95, time=0),
    Message('note_on', channel=0, note=67, velocity=95, time=0),
    Message('note_on', channel=0, note=62, velocity=95, time=2),
    Message('note_on', channel=0, note=55, velocity=95, time=2),
    Message('note_off', channel=0, note=67, velocity=95, time=236),
    Message('note_off', channel=0, note=62, velocity=95, time=0),
    Message('note_off', channel=0, note=55, velocity=95, time=0),
    Message('note_on', channel=0, note=55, velocity=95, time=0),
    Message('note_on', channel=0, note=62, velocity=95, time=2),
    Message('note_on', channel=0, note=67, velocity=95, time=2),
    Message('note_off', channel=0, note=67, velocity=95, time=236),
    Message('note_off', channel=0, note=62, velocity=95, time=0),
    Message('note_off', channel=0, note=55, velocity=95, time=0),
    Message('note_on', channel=0, note=67, velocity=95, time=0),
    Message('note_on', channel=0, note=62, velocity=95, time=2),
    Message('note_on', channel=0, note=55, velocity=95, time=2),
    Message('note_off', channel=0, note=67, velocity=95, time=236),
    Message('note_off', channel=0, note=62, velocity=95, time=0),
    Message('note_off', channel=0, note=55, velocity=95, time=0),
    Message('note_on', channel=0, note=55, velocity=95, time=0),
    Message('note_on', channel=0, note=62, velocity=95, time=2),
    Message('note_on', channel=0, note=67, velocity=95, time=2),
    Message('note_off', channel=0, note=67, velocity=95, time=236),
    Message('note_off', channel=0, note=62, velocity=95, time=0),
    Message('note_off', channel=0, note=55, velocity=95, time=0),
    Message('note_on', channel=0, note=55, velocity=95, time=0),
    Message('note_on', channel=0, note=50, velocity=95, time=2),
    Message('note_on', channel=0, note=45, velocity=95, time=2),
    Message('note_off', channel=0, note=55, velocity=95, time=34),
    Message('note_off', channel=0, note=50, velocity=95, time=0),
    Message('note_off', channel=0, note=45, velocity=95, time=0),
    Message('note_on', channel=0, note=45, velocity=95, time=202),
    Message('note_on', channel=0, note=57, velocity=95, time=4),
    Message('note_on', channel=0, note=62, velocity=95, time=4),
    Message('note_on', channel=0, note=66, velocity=95, time=4),
    Message('note_off', channel=0, note=66, velocity=95, time=468),
    Message('note_off', channel=0, note=62, velocity=95, time=0),
    Message('note_off', channel=0, note=57, velocity=95, time=0),
    Message('note_off', channel=0, note=45, velocity=95, time=0),
    Message('note_on', channel=0, note=45, velocity=95, time=0),
    Message('note_on', channel=0, note=57, velocity=95, time=2),
    Message('note_on', channel=0, note=62, velocity=95, time=2),
    Message('note_on', channel=0, note=66, velocity=95, time=2),
    Message('note_off', channel=0, note=66, velocity=95, time=234),
    Message('note_off', channel=0, note=62, velocity=95, time=0),
    Message('note_off', channel=0, note=57, velocity=95, time=0),
    Message('note_off', channel=0, note=45, velocity=95, time=0),
    Message('note_on', channel=0, note=66, velocity=95, time=0),
    Message('note_on', channel=0, note=62, velocity=95, time=2),
    Message('note_on', channel=0, note=57, velocity=95, time=2),
    Message('note_on', channel=0, note=45, velocity=95, time=2),
    Message('note_off', channel=0, note=66, velocity=95, time=234),
    Message('note_off', channel=0, note=62, velocity=95, time=0),
    Message('note_off', channel=0, note=57, velocity=95, time=0),
    Message('note_off', channel=0, note=45, velocity=95, time=0),
    Message('note_on', channel=0, note=45, velocity=95, time=0),
    Message('note_on', channel=0, note=57, velocity=95, time=2),
    Message('note_on', channel=0, note=62, velocity=95, time=2),
    Message('note_on', channel=0, note=66, velocity=95, time=2),
    Message('note_off', channel=0, note=66, velocity=95, time=234),
    Message('note_off', channel=0, note=62, velocity=95, time=0),
    Message('note_off', channel=0, note=57, velocity=95, time=0),
    Message('note_off', channel=0, note=45, velocity=95, time=0),
    Message('note_on', channel=0, note=66, velocity=95, time=0),
    Message('note_on', channel=0, note=62, velocity=95, time=2),
    Message('note_on', channel=0, note=57, velocity=95, time=2),
    Message('note_on', channel=0, note=45, velocity=95, time=2),
    Message('note_off', channel=0, note=66, velocity=95, time=234),
    Message('note_off', channel=0, note=62, velocity=95, time=0),
    Message('note_off', channel=0, note=57, velocity=95, time=0),
    Message('note_off', channel=0, note=45, velocity=95, time=0),
    Message('note_on', channel=0, note=45, velocity=95, time=0),
    Message('note_on', channel=0, note=57, velocity=95, time=2),
    Message('note_on', channel=0, note=62, velocity=95, time=2),
    Message('note_on', channel=0, note=66, velocity=95, time=2),
    Message('note_off', channel=0, note=66, velocity=95, time=234),
    Message('note_off', channel=0, note=62, velocity=95, time=0),
    Message('note_off', channel=0, note=57, velocity=95, time=0),
    Message('note_off', channel=0, note=45, velocity=95, time=0),
    Message('note_on', channel=0, note=55, velocity=95, time=0),
    Message('note_on', channel=0, note=50, velocity=95, time=2),
    Message('note_on', channel=0, note=45, velocity=95, time=2),
    Message('note_off', channel=0, note=55, velocity=95, time=34),
    Message('note_off', channel=0, note=50, velocity=95, time=0),
    Message('note_off', channel=0, note=45, velocity=95, time=0),
    Message('note_on', channel=0, note=45, velocity=95, time=202),
    Message('note_on', channel=0, note=52, velocity=95, time=4),
    Message('note_on', channel=0, note=57, velocity=95, time=4),
    Message('note_off', channel=0, note=57, velocity=95, time=472),
    Message('note_off', channel=0, note=52, velocity=95, time=0),
    Message('note_off', channel=0, note=45, velocity=95, time=0),
    Message('note_on', channel=0, note=45, velocity=95, time=0),
    Message('note_on', channel=0, note=52, velocity=95, time=2),
    Message('note_on', channel=0, note=57, velocity=95, time=2),
    Message('note_off', channel=0, note=57, velocity=95, time=236),
    Message('note_off', channel=0, note=52, velocity=95, time=0),
    Message('note_off', channel=0, note=45, velocity=95, time=0),
    Message('note_on', channel=0, note=57, velocity=95, time=0),
    Message('note_on', channel=0, note=52, velocity=95, time=2),
    Message('note_on', channel=0, note=45, velocity=95, time=2),
    Message('note_off', channel=0, note=57, velocity=95, time=236),
    Message('note_off', channel=0, note=52, velocity=95, time=0),
    Message('note_off', channel=0, note=45, velocity=95, time=0),
    Message('note_on', channel=0, note=45, velocity=95, time=0),
    Message('note_on', channel=0, note=52, velocity=95, time=2),
    Message('note_on', channel=0, note=57, velocity=95, time=2),
    Message('note_off', channel=0, note=57, velocity=95, time=236),
    Message('note_off', channel=0, note=52, velocity=95, time=0),
    Message('note_off', channel=0, note=45, velocity=95, time=0),
    Message('note_on', channel=0, note=57, velocity=95, time=0),
    Message('note_on', channel=0, note=52, velocity=95, time=2),
    Message('note_on', channel=0, note=45, velocity=95, time=2),
    Message('note_off', channel=0, note=57, velocity=95, time=236),
    Message('note_off', channel=0, note=52, velocity=95, time=0),
    Message('note_off', channel=0, note=45, velocity=95, time=0),
    Message('note_on', channel=0, note=45, velocity=95, time=0),
    Message('note_on', channel=0, note=52, velocity=95, time=2),
    Message('note_on', channel=0, note=57, velocity=95, time=2),
    Message('note_off', channel=0, note=57, velocity=95, time=236),
    Message('note_off', channel=0, note=52, velocity=95, time=0),
    Message('note_off', channel=0, note=45, velocity=95, time=0),
    Message('note_on', channel=0, note=50, velocity=95, time=0),
    Message('note_on', channel=0, note=45, velocity=95, time=2),
    Message('note_on', channel=0, note=40, velocity=95, time=2),
    Message('note_off', channel=0, note=50, velocity=95, time=34),
    Message('note_off', channel=0, note=45, velocity=95, time=0),
    Message('note_off', channel=0, note=40, velocity=95, time=0),
    Message('note_on', channel=0, note=52, velocity=95, time=202),
    Message('note_on', channel=0, note=59, velocity=95, time=4),
    Message('note_on', channel=0, note=64, velocity=95, time=4),
    Message('note_off', channel=0, note=64, velocity=95, time=472),
    Message('note_off', channel=0, note=59, velocity=95, time=0),
    Message('note_off', channel=0, note=52, velocity=95, time=0),
    Message('note_on', channel=0, note=52, velocity=95, time=0),
    Message('note_on', channel=0, note=59, velocity=95, time=2),
    Message('note_on', channel=0, note=64, velocity=95, time=2),
    Message('note_off', channel=0, note=64, velocity=95, time=236),
    Message('note_off', channel=0, note=59, velocity=95, time=0),
    Message('note_off', channel=0, note=52, velocity=95, time=0),
    Message('note_on', channel=0, note=64, velocity=95, time=0),
    Message('note_on', channel=0, note=59, velocity=95, time=2),
    Message('note_on', channel=0, note=52, velocity=95, time=2),
    Message('note_off', channel=0, note=64, velocity=95, time=236),
    Message('note_off', channel=0, note=59, velocity=95, time=0),
    Message('note_off', channel=0, note=52, velocity=95, time=0),
    Message('note_on', channel=0, note=52, velocity=95, time=0),
    Message('note_on', channel=0, note=59, velocity=95, time=2),
    Message('note_on', channel=0, note=64, velocity=95, time=2),
    Message('note_off', channel=0, note=64, velocity=95, time=236),
    Message('note_off', channel=0, note=59, velocity=95, time=0),
    Message('note_off', channel=0, note=52, velocity=95, time=0),
    Message('note_on', channel=0, note=64, velocity=95, time=0),
    Message('note_on', channel=0, note=59, velocity=95, time=2),
    Message('note_on', channel=0, note=52, velocity=95, time=2),
    Message('note_off', channel=0, note=64, velocity=95, time=236),
    Message('note_off', channel=0, note=59, velocity=95, time=0),
    Message('note_off', channel=0, note=52, velocity=95, time=0),
    Message('note_on', channel=0, note=52, velocity=95, time=0),
    Message('note_on', channel=0, note=59, velocity=95, time=2),
    Message('note_on', channel=0, note=64, velocity=95, time=2),
    Message('note_off', channel=0, note=64, velocity=95, time=236),
    Message('note_off', channel=0, note=59, velocity=95, time=0),
    Message('note_off', channel=0, note=52, velocity=95, time=0),
    Message('note_on', channel=0, note=55, velocity=95, time=0),
    Message('note_on', channel=0, note=50, velocity=95, time=2),
    Message('note_on', channel=0, note=45, velocity=95, time=2),
    Message('note_off', channel=0, note=55, velocity=95, time=34),
    Message('note_off', channel=0, note=50, velocity=95, time=0),
    Message('note_off', channel=0, note=45, velocity=95, time=0),
    Message('note_on', channel=0, note=55, velocity=95, time=202),
    Message('note_on', channel=0, note=62, velocity=95, time=4),
    Message('note_on', channel=0, note=67, velocity=95, time=4),
    Message('note_off', channel=0, note=67, velocity=95, time=472),
    Message('note_off', channel=0, note=62, velocity=95, time=0),
    Message('note_off', channel=0, note=55, velocity=95, time=0),
    Message('note_on', channel=0, note=55, velocity=95, time=0),
    Message('note_on', channel=0, note=62, velocity=95, time=2),
    Message('note_on', channel=0, note=67, velocity=95, time=2),
    Message('note_off', channel=0, note=67, velocity=95, time=236),
    Message('note_off', channel=0, note=62, velocity=95, time=0),
    Message('note_off', channel=0, note=55, velocity=95, time=0),
    Message('note_on', channel=0, note=67, velocity=95, time=0),
    Message('note_on', channel=0, note=62, velocity=95, time=2),
    Message('note_on', channel=0, note=55, velocity=95, time=2),
    Message('note_off', channel=0, note=67, velocity=95, time=236),
    Message('note_off', channel=0, note=62, velocity=95, time=0),
    Message('note_off', channel=0, note=55, velocity=95, time=0),
    Message('note_on', channel=0, note=55, velocity=95, time=0),
    Message('note_on', channel=0, note=62, velocity=95, time=2),
    Message('note_on', channel=0, note=67, velocity=95, time=2),
    Message('note_off', channel=0, note=67, velocity=95, time=236),
    Message('note_off', channel=0, note=62, velocity=95, time=0),
    Message('note_off', channel=0, note=55, velocity=95, time=0),
    Message('note_on', channel=0, note=67, velocity=95, time=0),
    Message('note_on', channel=0, note=62, velocity=95, time=2),
    Message('note_on', channel=0, note=55, velocity=95, time=2),
    Message('note_off', channel=0, note=67, velocity=95, time=236),
    Message('note_off', channel=0, note=62, velocity=95, time=0),
    Message('note_off', channel=0, note=55, velocity=95, time=0),
    Message('note_on', channel=0, note=55, velocity=95, time=0),
    Message('note_on', channel=0, note=62, velocity=95, time=2),
    Message('note_on', channel=0, note=67, velocity=95, time=2),
    Message('note_off', channel=0, note=67, velocity=95, time=236),
    Message('note_off', channel=0, note=62, velocity=95, time=0),
    Message('note_off', channel=0, note=55, velocity=95, time=0),
    Message('note_on', channel=0, note=55, velocity=95, time=0),
    Message('note_on', channel=0, note=50, velocity=95, time=2),
    Message('note_on', channel=0, note=45, velocity=95, time=2),
    Message('note_off', channel=0, note=55, velocity=95, time=34),
    Message('note_off', channel=0, note=50, velocity=95, time=0),
    Message('note_off', channel=0, note=45, velocity=95, time=0),
    Message('note_on', channel=0, note=45, velocity=95, time=202),
    Message('note_on', channel=0, note=57, velocity=95, time=4),
    Message('note_on', channel=0, note=62, velocity=95, time=4),
    Message('note_on', channel=0, note=66, velocity=95, time=4),
    Message('note_off', channel=0, note=66, velocity=95, time=468),
    Message('note_off', channel=0, note=62, velocity=95, time=0),
    Message('note_off', channel=0, note=57, velocity=95, time=0),
    Message('note_off', channel=0, note=45, velocity=95, time=0),
    Message('note_on', channel=0, note=45, velocity=95, time=0),
    Message('note_on', channel=0, note=57, velocity=95, time=2),
    Message('note_on', channel=0, note=62, velocity=95, time=2),
    Message('note_on', channel=0, note=66, velocity=95, time=2),
    Message('note_off', channel=0, note=66, velocity=95, time=234),
    Message('note_off', channel=0, note=62, velocity=95, time=0),
    Message('note_off', channel=0, note=57, velocity=95, time=0),
    Message('note_off', channel=0, note=45, velocity=95, time=0),
    Message('note_on', channel=0, note=66, velocity=95, time=0),
    Message('note_on', channel=0, note=62, velocity=95, time=2),
    Message('note_on', channel=0, note=57, velocity=95, time=2),
    Message('note_on', channel=0, note=45, velocity=95, time=2),
    Message('note_off', channel=0, note=66, velocity=95, time=234),
    Message('note_off', channel=0, note=62, velocity=95, time=0),
    Message('note_off', channel=0, note=57, velocity=95, time=0),
    Message('note_off', channel=0, note=45, velocity=95, time=0),
    Message('note_on', channel=0, note=45, velocity=95, time=0),
    Message('note_on', channel=0, note=57, velocity=95, time=2),
    Message('note_on', channel=0, note=62, velocity=95, time=2),
    Message('note_on', channel=0, note=66, velocity=95, time=2),
    Message('note_off', channel=0, note=66, velocity=95, time=234),
    Message('note_off', channel=0, note=62, velocity=95, time=0),
    Message('note_off', channel=0, note=57, velocity=95, time=0),
    Message('note_off', channel=0, note=45, velocity=95, time=0),
    Message('note_on', channel=0, note=66, velocity=95, time=0),
    Message('note_on', channel=0, note=62, velocity=95, time=2),
    Message('note_on', channel=0, note=57, velocity=95, time=2),
    Message('note_on', channel=0, note=45, velocity=95, time=2),
    Message('note_off', channel=0, note=66, velocity=95, time=234),
    Message('note_off', channel=0, note=62, velocity=95, time=0),
    Message('note_off', channel=0, note=57, velocity=95, time=0),
    Message('note_off', channel=0, note=45, velocity=95, time=0),
    Message('note_on', channel=0, note=45, velocity=95, time=0),
    Message('note_on', channel=0, note=57, velocity=95, time=2),
    Message('note_on', channel=0, note=62, velocity=95, time=2),
    Message('note_on', channel=0, note=66, velocity=95, time=2),
    Message('note_off', channel=0, note=66, velocity=95, time=234),
    Message('note_off', channel=0, note=62, velocity=95, time=0),
    Message('note_off', channel=0, note=57, velocity=95, time=0),
    Message('note_off', channel=0, note=45, velocity=95, time=0),
    Message('note_on', channel=0, note=55, velocity=95, time=0),
    Message('note_on', channel=0, note=50, velocity=95, time=2),
    Message('note_on', channel=0, note=45, velocity=95, time=2),
    Message('note_off', channel=0, note=55, velocity=95, time=34),
    Message('note_off', channel=0, note=50, velocity=95, time=0),
    Message('note_off', channel=0, note=45, velocity=95, time=0),
    Message('note_on', channel=0, note=45, velocity=95, time=202),
    Message('note_on', channel=0, note=52, velocity=95, time=4),
    Message('note_on', channel=0, note=57, velocity=95, time=4),
    Message('note_off', channel=0, note=57, velocity=95, time=472),
    Message('note_off', channel=0, note=52, velocity=95, time=0),
    Message('note_off', channel=0, note=45, velocity=95, time=0),
    Message('note_on', channel=0, note=45, velocity=95, time=0),
    Message('note_on', channel=0, note=52, velocity=95, time=2),
    Message('note_on', channel=0, note=57, velocity=95, time=2),
    Message('note_off', channel=0, note=57, velocity=95, time=236),
    Message('note_off', channel=0, note=52, velocity=95, time=0),
    Message('note_off', channel=0, note=45, velocity=95, time=0),
    Message('note_on', channel=0, note=57, velocity=95, time=0),
    Message('note_on', channel=0, note=52, velocity=95, time=2),
    Message('note_on', channel=0, note=45, velocity=95, time=2),
    Message('note_off', channel=0, note=57, velocity=95, time=236),
    Message('note_off', channel=0, note=52, velocity=95, time=0),
    Message('note_off', channel=0, note=45, velocity=95, time=0),
    Message('note_on', channel=0, note=45, velocity=95, time=0),
    Message('note_on', channel=0, note=52, velocity=95, time=2),
    Message('note_on', channel=0, note=57, velocity=95, time=2),
    Message('note_off', channel=0, note=57, velocity=95, time=236),
    Message('note_off', channel=0, note=52, velocity=95, time=0),
    Message('note_off', channel=0, note=45, velocity=95, time=0),
    Message('note_on', channel=0, note=57, velocity=95, time=0),
    Message('note_on', channel=0, note=52, velocity=95, time=2),
    Message('note_on', channel=0, note=45, velocity=95, time=2),
    Message('note_off', channel=0, note=57, velocity=95, time=236),
    Message('note_off', channel=0, note=52, velocity=95, time=0),
    Message('note_off', channel=0, note=45, velocity=95, time=0),
    Message('note_on', channel=0, note=45, velocity=95, time=0),
    Message('note_on', channel=0, note=52, velocity=95, time=2),
    Message('note_on', channel=0, note=57, velocity=95, time=2),
    Message('note_off', channel=0, note=57, velocity=95, time=236),
    Message('note_off', channel=0, note=52, velocity=95, time=0),
    Message('note_off', channel=0, note=45, velocity=95, time=0),
    Message('note_on', channel=0, note=50, velocity=95, time=0),
    Message('note_on', channel=0, note=45, velocity=95, time=2),
    Message('note_on', channel=0, note=40, velocity=95, time=2),
    Message('note_off', channel=0, note=50, velocity=95, time=34),
    Message('note_off', channel=0, note=45, velocity=95, time=0),
    Message('note_off', channel=0, note=40, velocity=95, time=0),
    Message('note_on', channel=0, note=52, velocity=95, time=202),
    Message('note_on', channel=0, note=59, velocity=95, time=4),
    Message('note_on', channel=0, note=64, velocity=95, time=4),
    Message('note_off', channel=0, note=64, velocity=95, time=472),
    Message('note_off', channel=0, note=59, velocity=95, time=0),
    Message('note_off', channel=0, note=52, velocity=95, time=0),
    Message('note_on', channel=0, note=52, velocity=95, time=0),
    Message('note_on', channel=0, note=59, velocity=95, time=2),
    Message('note_on', channel=0, note=64, velocity=95, time=2),
    Message('note_off', channel=0, note=64, velocity=95, time=236),
    Message('note_off', channel=0, note=59, velocity=95, time=0),
    Message('note_off', channel=0, note=52, velocity=95, time=0),
    Message('note_on', channel=0, note=64, velocity=95, time=0),
    Message('note_on', channel=0, note=59, velocity=95, time=2),
    Message('note_on', channel=0, note=52, velocity=95, time=2),
    Message('note_off', channel=0, note=64, velocity=95, time=236),
    Message('note_off', channel=0, note=59, velocity=95, time=0),
    Message('note_off', channel=0, note=52, velocity=95, time=0),
    Message('note_on', channel=0, note=52, velocity=95, time=0),
    Message('note_on', channel=0, note=59, velocity=95, time=2),
    Message('note_on', channel=0, note=64, velocity=95, time=2),
    Message('note_off', channel=0, note=64, velocity=95, time=236),
    Message('note_off', channel=0, note=59, velocity=95, time=0),
    Message('note_off', channel=0, note=52, velocity=95, time=0),
    Message('note_on', channel=0, note=64, velocity=95, time=0),
    Message('note_on', channel=0, note=59, velocity=95, time=2),
    Message('note_on', channel=0, note=52, velocity=95, time=2),
    Message('note_off', channel=0, note=64, velocity=95, time=236),
    Message('note_off', channel=0, note=59, velocity=95, time=0),
    Message('note_off', channel=0, note=52, velocity=95, time=0),
    Message('note_on', channel=0, note=52, velocity=95, time=0),
    Message('note_on', channel=0, note=59, velocity=95, time=2),
    Message('note_on', channel=0, note=64, velocity=95, time=2),
    Message('note_off', channel=0, note=64, velocity=95, time=236),
    Message('note_off', channel=0, note=59, velocity=95, time=0),
    Message('note_off', channel=0, note=52, velocity=95, time=0),
    Message('note_on', channel=0, note=55, velocity=95, time=0),
    Message('note_on', channel=0, note=50, velocity=95, time=2),
    Message('note_on', channel=0, note=45, velocity=95, time=2),
    Message('note_off', channel=0, note=55, velocity=95, time=34),
    Message('note_off', channel=0, note=50, velocity=95, time=0),
    Message('note_off', channel=0, note=45, velocity=95, time=0),
    Message('note_on', channel=0, note=55, velocity=95, time=202),
    Message('note_on', channel=0, note=62, velocity=95, time=4),
    Message('note_on', channel=0, note=67, velocity=95, time=4),
    Message('note_off', channel=0, note=67, velocity=95, time=472),
    Message('note_off', channel=0, note=62, velocity=95, time=0),
    Message('note_off', channel=0, note=55, velocity=95, time=0),
    Message('note_on', channel=0, note=55, velocity=95, time=0),
    Message('note_on', channel=0, note=62, velocity=95, time=2),
    Message('note_on', channel=0, note=67, velocity=95, time=2),
    Message('note_off', channel=0, note=67, velocity=95, time=236),
    Message('note_off', channel=0, note=62, velocity=95, time=0),
    Message('note_off', channel=0, note=55, velocity=95, time=0),
    Message('note_on', channel=0, note=67, velocity=95, time=0),
    Message('note_on', channel=0, note=62, velocity=95, time=2),
    Message('note_on', channel=0, note=55, velocity=95, time=2),
    Message('note_off', channel=0, note=67, velocity=95, time=236),
    Message('note_off', channel=0, note=62, velocity=95, time=0),
    Message('note_off', channel=0, note=55, velocity=95, time=0),
    Message('note_on', channel=0, note=55, velocity=95, time=0),
    Message('note_on', channel=0, note=62, velocity=95, time=2),
    Message('note_on', channel=0, note=67, velocity=95, time=2),
    Message('note_off', channel=0, note=67, velocity=95, time=236),
    Message('note_off', channel=0, note=62, velocity=95, time=0),
    Message('note_off', channel=0, note=55, velocity=95, time=0),
    Message('note_on', channel=0, note=67, velocity=95, time=0),
    Message('note_on', channel=0, note=62, velocity=95, time=2),
    Message('note_on', channel=0, note=55, velocity=95, time=2),
    Message('note_off', channel=0, note=67, velocity=95, time=236),
    Message('note_off', channel=0, note=62, velocity=95, time=0),
    Message('note_off', channel=0, note=55, velocity=95, time=0),
    Message('note_on', channel=0, note=55, velocity=95, time=0),
    Message('note_on', channel=0, note=62, velocity=95, time=2),
    Message('note_on', channel=0, note=67, velocity=95, time=2),
    Message('note_off', channel=0, note=67, velocity=95, time=236),
    Message('note_off', channel=0, note=62, velocity=95, time=0),
    Message('note_off', channel=0, note=55, velocity=95, time=0),
    Message('note_on', channel=0, note=55, velocity=95, time=0),
    Message('note_on', channel=0, note=50, velocity=95, time=2),
    Message('note_on', channel=0, note=45, velocity=95, time=2),
    Message('note_off', channel=0, note=55, velocity=95, time=34),
    Message('note_off', channel=0, note=50, velocity=95, time=0),
    Message('note_off', channel=0, note=45, velocity=95, time=0),
    Message('note_on', channel=0, note=45, velocity=95, time=202),
    Message('note_on', channel=0, note=57, velocity=95, time=4),
    Message('note_on', channel=0, note=62, velocity=95, time=4),
    Message('note_on', channel=0, note=66, velocity=95, time=4),
    Message('note_off', channel=0, note=66, velocity=95, time=468),
    Message('note_off', channel=0, note=62, velocity=95, time=0),
    Message('note_off', channel=0, note=57, velocity=95, time=0),
    Message('note_off', channel=0, note=45, velocity=95, time=0),
    Message('note_on', channel=0, note=45, velocity=95, time=0),
    Message('note_on', channel=0, note=57, velocity=95, time=2),
    Message('note_on', channel=0, note=62, velocity=95, time=2),
    Message('note_on', channel=0, note=66, velocity=95, time=2),
    Message('note_off', channel=0, note=66, velocity=95, time=234),
    Message('note_off', channel=0, note=62, velocity=95, time=0),
    Message('note_off', channel=0, note=57, velocity=95, time=0),
    Message('note_off', channel=0, note=45, velocity=95, time=0),
    Message('note_on', channel=0, note=66, velocity=95, time=0),
    Message('note_on', channel=0, note=62, velocity=95, time=2),
    Message('note_on', channel=0, note=57, velocity=95, time=2),
    Message('note_on', channel=0, note=45, velocity=95, time=2),
    Message('note_off', channel=0, note=66, velocity=95, time=234),
    Message('note_off', channel=0, note=62, velocity=95, time=0),
    Message('note_off', channel=0, note=57, velocity=95, time=0),
    Message('note_off', channel=0, note=45, velocity=95, time=0),
    Message('note_on', channel=0, note=45, velocity=95, time=0),
    Message('note_on', channel=0, note=57, velocity=95, time=2),
    Message('note_on', channel=0, note=62, velocity=95, time=2),
    Message('note_on', channel=0, note=66, velocity=95, time=2),
    Message('note_off', channel=0, note=66, velocity=95, time=234),
    Message('note_off', channel=0, note=62, velocity=95, time=0),
    Message('note_off', channel=0, note=57, velocity=95, time=0),
    Message('note_off', channel=0, note=45, velocity=95, time=0),
    Message('note_on', channel=0, note=66, velocity=95, time=0),
    Message('note_on', channel=0, note=62, velocity=95, time=2),
    Message('note_on', channel=0, note=57, velocity=95, time=2),
    Message('note_on', channel=0, note=45, velocity=95, time=2),
    Message('note_off', channel=0, note=66, velocity=95, time=234),
    Message('note_off', channel=0, note=62, velocity=95, time=0),
    Message('note_off', channel=0, note=57, velocity=95, time=0),
    Message('note_off', channel=0, note=45, velocity=95, time=0),
    Message('note_on', channel=0, note=45, velocity=95, time=0),
    Message('note_on', channel=0, note=57, velocity=95, time=2),
    Message('note_on', channel=0, note=62, velocity=95, time=2),
    Message('note_on', channel=0, note=66, velocity=95, time=2),
    Message('note_off', channel=0, note=66, velocity=95, time=234),
    Message('note_off', channel=0, note=62, velocity=95, time=0),
    Message('note_off', channel=0, note=57, velocity=95, time=0),
    Message('note_off', channel=0, note=45, velocity=95, time=0),
    Message('note_on', channel=0, note=55, velocity=95, time=0),
    Message('note_on', channel=0, note=50, velocity=95, time=2),
    Message('note_on', channel=0, note=45, velocity=95, time=2),
    Message('note_off', channel=0, note=55, velocity=95, time=34),
    Message('note_off', channel=0, note=50, velocity=95, time=0),
    Message('note_off', channel=0, note=45, velocity=95, time=0),
    Message('note_on', channel=0, note=45, velocity=95, time=202),
    Message('note_on', channel=0, note=52, velocity=95, time=4),
    Message('note_on', channel=0, note=57, velocity=95, time=4),
    Message('note_off', channel=0, note=57, velocity=95, time=472),
    Message('note_off', channel=0, note=52, velocity=95, time=0),
    Message('note_off', channel=0, note=45, velocity=95, time=0),
    Message('note_on', channel=0, note=45, velocity=95, time=0),
    Message('note_on', channel=0, note=52, velocity=95, time=2),
    Message('note_on', channel=0, note=57, velocity=95, time=2),
    Message('note_off', channel=0, note=57, velocity=95, time=236),
    Message('note_off', channel=0, note=52, velocity=95, time=0),
    Message('note_off', channel=0, note=45, velocity=95, time=0),
    Message('note_on', channel=0, note=57, velocity=95, time=0),
    Message('note_on', channel=0, note=52, velocity=95, time=2),
    Message('note_on', channel=0, note=45, velocity=95, time=2),
    Message('note_off', channel=0, note=57, velocity=95, time=236),
    Message('note_off', channel=0, note=52, velocity=95, time=0),
    Message('note_off', channel=0, note=45, velocity=95, time=0),
    Message('note_on', channel=0, note=45, velocity=95, time=0),
    Message('note_on', channel=0, note=52, velocity=95, time=2),
    Message('note_on', channel=0, note=57, velocity=95, time=2),
    Message('note_off', channel=0, note=57, velocity=95, time=236),
    Message('note_off', channel=0, note=52, velocity=95, time=0),
    Message('note_off', channel=0, note=45, velocity=95, time=0),
    Message('note_on', channel=0, note=57, velocity=95, time=0),
    Message('note_on', channel=0, note=52, velocity=95, time=2),
    Message('note_on', channel=0, note=45, velocity=95, time=2),
    Message('note_off', channel=0, note=57, velocity=95, time=236),
    Message('note_off', channel=0, note=52, velocity=95, time=0),
    Message('note_off', channel=0, note=45, velocity=95, time=0),
    Message('note_on', channel=0, note=45, velocity=95, time=0),
    Message('note_on', channel=0, note=52, velocity=95, time=2),
    Message('note_on', channel=0, note=57, velocity=95, time=2),
    Message('note_off', channel=0, note=57, velocity=95, time=236),
    Message('note_off', channel=0, note=52, velocity=95, time=0),
    Message('note_off', channel=0, note=45, velocity=95, time=0),
    Message('note_on', channel=0, note=50, velocity=95, time=0),
    Message('note_on', channel=0, note=45, velocity=95, time=2),
    Message('note_on', channel=0, note=40, velocity=95, time=2),
    Message('note_off', channel=0, note=50, velocity=95, time=34),
    Message('note_off', channel=0, note=45, velocity=95, time=0),
    Message('note_off', channel=0, note=40, velocity=95, time=0),
    Message('note_on', channel=0, note=52, velocity=95, time=202),
    Message('note_on', channel=0, note=59, velocity=95, time=4),
    Message('note_on', channel=0, note=64, velocity=95, time=4),
    Message('note_off', channel=0, note=64, velocity=95, time=472),
    Message('note_off', channel=0, note=59, velocity=95, time=0),
    Message('note_off', channel=0, note=52, velocity=95, time=0),
    Message('note_on', channel=0, note=52, velocity=95, time=0),
    Message('note_on', channel=0, note=59, velocity=95, time=2),
    Message('note_on', channel=0, note=64, velocity=95, time=2),
    Message('note_off', channel=0, note=64, velocity=95, time=236),
    Message('note_off', channel=0, note=59, velocity=95, time=0),
    Message('note_off', channel=0, note=52, velocity=95, time=0),
    Message('note_on', channel=0, note=64, velocity=95, time=0),
    Message('note_on', channel=0, note=59, velocity=95, time=2),
    Message('note_on', channel=0, note=52, velocity=95, time=2),
    Message('note_off', channel=0, note=64, velocity=95, time=236),
    Message('note_off', channel=0, note=59, velocity=95, time=0),
    Message('note_off', channel=0, note=52, velocity=95, time=0),
    Message('note_on', channel=0, note=52, velocity=95, time=0),
    Message('note_on', channel=0, note=59, velocity=95, time=2),
    Message('note_on', channel=0, note=64, velocity=95, time=2),
    Message('note_off', channel=0, note=64, velocity=95, time=236),
    Message('note_off', channel=0, note=59, velocity=95, time=0),
    Message('note_off', channel=0, note=52, velocity=95, time=0),
    Message('note_on', channel=0, note=64, velocity=95, time=0),
    Message('note_on', channel=0, note=59, velocity=95, time=2),
    Message('note_on', channel=0, note=52, velocity=95, time=2),
    Message('note_off', channel=0, note=64, velocity=95, time=236),
    Message('note_off', channel=0, note=59, velocity=95, time=0),
    Message('note_off', channel=0, note=52, velocity=95, time=0),
    Message('note_on', channel=0, note=52, velocity=95, time=0),
    Message('note_on', channel=0, note=59, velocity=95, time=2),
    Message('note_on', channel=0, note=64, velocity=95, time=2),
    Message('note_off', channel=0, note=64, velocity=95, time=236),
    Message('note_off', channel=0, note=59, velocity=95, time=0),
    Message('note_off', channel=0, note=52, velocity=95, time=0),
    Message('note_on', channel=0, note=55, velocity=95, time=0),
    Message('note_on', channel=0, note=50, velocity=95, time=2),
    Message('note_on', channel=0, note=45, velocity=95, time=2),
    Message('note_off', channel=0, note=55, velocity=95, time=34),
    Message('note_off', channel=0, note=50, velocity=95, time=0),
    Message('note_off', channel=0, note=45, velocity=95, time=0),
    Message('note_on', channel=0, note=55, velocity=95, time=202),
    Message('note_on', channel=0, note=62, velocity=95, time=4),
    Message('note_on', channel=0, note=67, velocity=95, time=4),
    Message('note_off', channel=0, note=67, velocity=95, time=472),
    Message('note_off', channel=0, note=62, velocity=95, time=0),
    Message('note_off', channel=0, note=55, velocity=95, time=0),
    Message('note_on', channel=0, note=55, velocity=95, time=0),
    Message('note_on', channel=0, note=62, velocity=95, time=2),
    Message('note_on', channel=0, note=67, velocity=95, time=2),
    Message('note_off', channel=0, note=67, velocity=95, time=236),
    Message('note_off', channel=0, note=62, velocity=95, time=0),
    Message('note_off', channel=0, note=55, velocity=95, time=0),
    Message('note_on', channel=0, note=67, velocity=95, time=0),
    Message('note_on', channel=0, note=62, velocity=95, time=2),
    Message('note_on', channel=0, note=55, velocity=95, time=2),
    Message('note_off', channel=0, note=67, velocity=95, time=236),
    Message('note_off', channel=0, note=62, velocity=95, time=0),
    Message('note_off', channel=0, note=55, velocity=95, time=0),
    Message('note_on', channel=0, note=55, velocity=95, time=0),
    Message('note_on', channel=0, note=62, velocity=95, time=2),
    Message('note_on', channel=0, note=67, velocity=95, time=2),
    Message('note_off', channel=0, note=67, velocity=95, time=236),
    Message('note_off', channel=0, note=62, velocity=95, time=0),
    Message('note_off', channel=0, note=55, velocity=95, time=0),
    Message('note_on', channel=0, note=67, velocity=95, time=0),
    Message('note_on', channel=0, note=62, velocity=95, time=2),
    Message('note_on', channel=0, note=55, velocity=95, time=2),
    Message('note_off', channel=0, note=67, velocity=95, time=236),
    Message('note_off', channel=0, note=62, velocity=95, time=0),
    Message('note_off', channel=0, note=55, velocity=95, time=0),
    Message('note_on', channel=0, note=55, velocity=95, time=0),
    Message('note_on', channel=0, note=62, velocity=95, time=2),
    Message('note_on', channel=0, note=67, velocity=95, time=2),
    Message('note_off', channel=0, note=67, velocity=95, time=236),
    Message('note_off', channel=0, note=62, velocity=95, time=0),
    Message('note_off', channel=0, note=55, velocity=95, time=0),
    Message('note_on', channel=0, note=55, velocity=95, time=0),
    Message('note_on', channel=0, note=50, velocity=95, time=2),
    Message('note_on', channel=0, note=45, velocity=95, time=2),
    Message('note_off', channel=0, note=55, velocity=95, time=34),
    Message('note_off', channel=0, note=50, velocity=95, time=0),
    Message('note_off', channel=0, note=45, velocity=95, time=0),
    Message('note_on', channel=0, note=45, velocity=95, time=202),
    Message('note_on', channel=0, note=57, velocity=95, time=4),
    Message('note_on', channel=0, note=62, velocity=95, time=4),
    Message('note_on', channel=0, note=66, velocity=95, time=4),
    Message('note_off', channel=0, note=66, velocity=95, time=468),
    Message('note_off', channel=0, note=62, velocity=95, time=0),
    Message('note_off', channel=0, note=57, velocity=95, time=0),
    Message('note_off', channel=0, note=45, velocity=95, time=0),
    Message('note_on', channel=0, note=45, velocity=95, time=0),
    Message('note_on', channel=0, note=57, velocity=95, time=2),
    Message('note_on', channel=0, note=62, velocity=95, time=2),
    Message('note_on', channel=0, note=66, velocity=95, time=2),
    Message('note_off', channel=0, note=66, velocity=95, time=234),
    Message('note_off', channel=0, note=62, velocity=95, time=0),
    Message('note_off', channel=0, note=57, velocity=95, time=0),
    Message('note_off', channel=0, note=45, velocity=95, time=0),
    Message('note_on', channel=0, note=66, velocity=95, time=0),
    Message('note_on', channel=0, note=62, velocity=95, time=2),
    Message('note_on', channel=0, note=57, velocity=95, time=2),
    Message('note_on', channel=0, note=45, velocity=95, time=2),
    Message('note_off', channel=0, note=66, velocity=95, time=234),
    Message('note_off', channel=0, note=62, velocity=95, time=0),
    Message('note_off', channel=0, note=57, velocity=95, time=0),
    Message('note_off', channel=0, note=45, velocity=95, time=0),
    Message('note_on', channel=0, note=45, velocity=95, time=0),
    Message('note_on', channel=0, note=57, velocity=95, time=2),
    Message('note_on', channel=0, note=62, velocity=95, time=2),
    Message('note_on', channel=0, note=66, velocity=95, time=2),
    Message('note_off', channel=0, note=66, velocity=95, time=234),
    Message('note_off', channel=0, note=62, velocity=95, time=0),
    Message('note_off', channel=0, note=57, velocity=95, time=0),
    Message('note_off', channel=0, note=45, velocity=95, time=0),
    Message('note_on', channel=0, note=66, velocity=95, time=0),
    Message('note_on', channel=0, note=62, velocity=95, time=2),
    Message('note_on', channel=0, note=57, velocity=95, time=2),
    Message('note_on', channel=0, note=45, velocity=95, time=2),
    Message('note_off', channel=0, note=66, velocity=95, time=234),
    Message('note_off', channel=0, note=62, velocity=95, time=0),
    Message('note_off', channel=0, note=57, velocity=95, time=0),
    Message('note_off', channel=0, note=45, velocity=95, time=0),
    Message('note_on', channel=0, note=45, velocity=95, time=0),
    Message('note_on', channel=0, note=57, velocity=95, time=2),
    Message('note_on', channel=0, note=62, velocity=95, time=2),
    Message('note_on', channel=0, note=66, velocity=95, time=2),
    Message('note_off', channel=0, note=66, velocity=95, time=234),
    Message('note_off', channel=0, note=62, velocity=95, time=0),
    Message('note_off', channel=0, note=57, velocity=95, time=0),
    Message('note_off', channel=0, note=45, velocity=95, time=0),
    Message('note_on', channel=0, note=55, velocity=95, time=0),
    Message('note_on', channel=0, note=50, velocity=95, time=2),
    Message('note_on', channel=0, note=45, velocity=95, time=2),
    Message('note_off', channel=0, note=55, velocity=95, time=34),
    Message('note_off', channel=0, note=50, velocity=95, time=0),
    Message('note_off', channel=0, note=45, velocity=95, time=0),
    Message('note_on', channel=0, note=45, velocity=95, time=202),
    Message('note_on', channel=0, note=52, velocity=95, time=4),
    Message('note_on', channel=0, note=57, velocity=95, time=4),
    Message('note_off', channel=0, note=57, velocity=95, time=472),
    Message('note_off', channel=0, note=52, velocity=95, time=0),
    Message('note_off', channel=0, note=45, velocity=95, time=0),
    Message('note_on', channel=0, note=45, velocity=95, time=0),
    Message('note_on', channel=0, note=52, velocity=95, time=2),
    Message('note_on', channel=0, note=57, velocity=95, time=2),
    Message('note_off', channel=0, note=57, velocity=95, time=236),
    Message('note_off', channel=0, note=52, velocity=95, time=0),
    Message('note_off', channel=0, note=45, velocity=95, time=0),
    Message('note_on', channel=0, note=57, velocity=95, time=0),
    Message('note_on', channel=0, note=52, velocity=95, time=2),
    Message('note_on', channel=0, note=45, velocity=95, time=2),
    Message('note_off', channel=0, note=57, velocity=95, time=236),
    Message('note_off', channel=0, note=52, velocity=95, time=0),
    Message('note_off', channel=0, note=45, velocity=95, time=0),
    Message('note_on', channel=0, note=45, velocity=95, time=0),
    Message('note_on', channel=0, note=52, velocity=95, time=2),
    Message('note_on', channel=0, note=57, velocity=95, time=2),
    Message('note_off', channel=0, note=57, velocity=95, time=236),
    Message('note_off', channel=0, note=52, velocity=95, time=0),
    Message('note_off', channel=0, note=45, velocity=95, time=0),
    Message('note_on', channel=0, note=57, velocity=95, time=0),
    Message('note_on', channel=0, note=52, velocity=95, time=2),
    Message('note_on', channel=0, note=45, velocity=95, time=2),
    Message('note_off', channel=0, note=57, velocity=95, time=236),
    Message('note_off', channel=0, note=52, velocity=95, time=0),
    Message('note_off', channel=0, note=45, velocity=95, time=0),
    Message('note_on', channel=0, note=45, velocity=95, time=0),
    Message('note_on', channel=0, note=52, velocity=95, time=2),
    Message('note_on', channel=0, note=57, velocity=95, time=2),
    Message('note_off', channel=0, note=57, velocity=95, time=236),
    Message('note_off', channel=0, note=52, velocity=95, time=0),
    Message('note_off', channel=0, note=45, velocity=95, time=0),
    Message('note_on', channel=0, note=50, velocity=95, time=0),
    Message('note_on', channel=0, note=45, velocity=95, time=2),
    Message('note_on', channel=0, note=40, velocity=95, time=2),
    Message('note_off', channel=0, note=50, velocity=95, time=34),
    Message('note_off', channel=0, note=45, velocity=95, time=0),
    Message('note_off', channel=0, note=40, velocity=95, time=0),
    Message('note_on', channel=0, note=52, velocity=95, time=202),
    Message('note_on', channel=0, note=59, velocity=95, time=4),
    Message('note_on', channel=0, note=64, velocity=95, time=4),
    Message('note_off', channel=0, note=64, velocity=95, time=472),
    Message('note_off', channel=0, note=59, velocity=95, time=0),
    Message('note_off', channel=0, note=52, velocity=95, time=0),
    Message('note_on', channel=0, note=52, velocity=95, time=0),
    Message('note_on', channel=0, note=59, velocity=95, time=2),
    Message('note_on', channel=0, note=64, velocity=95, time=2),
    Message('note_off', channel=0, note=64, velocity=95, time=236),
    Message('note_off', channel=0, note=59, velocity=95, time=0),
    Message('note_off', channel=0, note=52, velocity=95, time=0),
    Message('note_on', channel=0, note=64, velocity=95, time=0),
    Message('note_on', channel=0, note=59, velocity=95, time=2),
    Message('note_on', channel=0, note=52, velocity=95, time=2),
    Message('note_off', channel=0, note=64, velocity=95, time=236),
    Message('note_off', channel=0, note=59, velocity=95, time=0),
    Message('note_off', channel=0, note=52, velocity=95, time=0),
    Message('note_on', channel=0, note=52, velocity=95, time=0),
    Message('note_on', channel=0, note=59, velocity=95, time=2),
    Message('note_on', channel=0, note=64, velocity=95, time=2),
    Message('note_off', channel=0, note=64, velocity=95, time=236),
    Message('note_off', channel=0, note=59, velocity=95, time=0),
    Message('note_off', channel=0, note=52, velocity=95, time=0),
    Message('note_on', channel=0, note=64, velocity=95, time=0),
    Message('note_on', channel=0, note=59, velocity=95, time=2),
    Message('note_on', channel=0, note=52, velocity=95, time=2),
    Message('note_off', channel=0, note=64, velocity=95, time=236),
    Message('note_off', channel=0, note=59, velocity=95, time=0),
    Message('note_off', channel=0, note=52, velocity=95, time=0),
    Message('note_on', channel=0, note=52, velocity=95, time=0),
    Message('note_on', channel=0, note=59, velocity=95, time=2),
    Message('note_on', channel=0, note=64, velocity=95, time=2),
    Message('note_off', channel=0, note=64, velocity=95, time=236),
    Message('note_off', channel=0, note=59, velocity=95, time=0),
    Message('note_off', channel=0, note=52, velocity=95, time=0),
    Message('note_on', channel=0, note=55, velocity=95, time=0),
    Message('note_on', channel=0, note=50, velocity=95, time=2),
    Message('note_on', channel=0, note=45, velocity=95, time=2),
    Message('note_off', channel=0, note=55, velocity=95, time=34),
    Message('note_off', channel=0, note=50, velocity=95, time=0),
    Message('note_off', channel=0, note=45, velocity=95, time=0),
    Message('note_on', channel=0, note=55, velocity=95, time=202),
    Message('note_on', channel=0, note=62, velocity=95, time=4),
    Message('note_on', channel=0, note=67, velocity=95, time=4),
    Message('note_off', channel=0, note=67, velocity=95, time=472),
    Message('note_off', channel=0, note=62, velocity=95, time=0),
    Message('note_off', channel=0, note=55, velocity=95, time=0),
    Message('note_on', channel=0, note=55, velocity=95, time=0),
    Message('note_on', channel=0, note=62, velocity=95, time=2),
    Message('note_on', channel=0, note=67, velocity=95, time=2),
    Message('note_off', channel=0, note=67, velocity=95, time=236),
    Message('note_off', channel=0, note=62, velocity=95, time=0),
    Message('note_off', channel=0, note=55, velocity=95, time=0),
    Message('note_on', channel=0, note=67, velocity=95, time=0),
    Message('note_on', channel=0, note=62, velocity=95, time=2),
    Message('note_on', channel=0, note=55, velocity=95, time=2),
    Message('note_off', channel=0, note=67, velocity=95, time=236),
    Message('note_off', channel=0, note=62, velocity=95, time=0),
    Message('note_off', channel=0, note=55, velocity=95, time=0),
    Message('note_on', channel=0, note=55, velocity=95, time=0),
    Message('note_on', channel=0, note=62, velocity=95, time=2),
    Message('note_on', channel=0, note=67, velocity=95, time=2),
    Message('note_off', channel=0, note=67, velocity=95, time=236),
    Message('note_off', channel=0, note=62, velocity=95, time=0),
    Message('note_off', channel=0, note=55, velocity=95, time=0),
    Message('note_on', channel=0, note=67, velocity=95, time=0),
    Message('note_on', channel=0, note=62, velocity=95, time=2),
    Message('note_on', channel=0, note=55, velocity=95, time=2),
    Message('note_off', channel=0, note=67, velocity=95, time=236),
    Message('note_off', channel=0, note=62, velocity=95, time=0),
    Message('note_off', channel=0, note=55, velocity=95, time=0),
    Message('note_on', channel=0, note=55, velocity=95, time=0),
    Message('note_on', channel=0, note=62, velocity=95, time=2),
    Message('note_on', channel=0, note=67, velocity=95, time=2),
    Message('note_off', channel=0, note=67, velocity=95, time=236),
    Message('note_off', channel=0, note=62, velocity=95, time=0),
    Message('note_off', channel=0, note=55, velocity=95, time=0),
    Message('note_on', channel=0, note=55, velocity=95, time=0),
    Message('note_on', channel=0, note=50, velocity=95, time=2),
    Message('note_on', channel=0, note=45, velocity=95, time=2),
    Message('note_off', channel=0, note=55, velocity=95, time=34),
    Message('note_off', channel=0, note=50, velocity=95, time=0),
    Message('note_off', channel=0, note=45, velocity=95, time=0),
    Message('note_on', channel=0, note=45, velocity=95, time=202),
    Message('note_on', channel=0, note=57, velocity=95, time=4),
    Message('note_on', channel=0, note=62, velocity=95, time=4),
    Message('note_on', channel=0, note=66, velocity=95, time=4),
    Message('note_off', channel=0, note=66, velocity=95, time=468),
    Message('note_off', channel=0, note=62, velocity=95, time=0),
    Message('note_off', channel=0, note=57, velocity=95, time=0),
    Message('note_off', channel=0, note=45, velocity=95, time=0),
    Message('note_on', channel=0, note=45, velocity=95, time=0),
    Message('note_on', channel=0, note=57, velocity=95, time=2),
    Message('note_on', channel=0, note=62, velocity=95, time=2),
    Message('note_on', channel=0, note=66, velocity=95, time=2),
    Message('note_off', channel=0, note=66, velocity=95, time=234),
    Message('note_off', channel=0, note=62, velocity=95, time=0),
    Message('note_off', channel=0, note=57, velocity=95, time=0),
    Message('note_off', channel=0, note=45, velocity=95, time=0),
    Message('note_on', channel=0, note=66, velocity=95, time=0),
    Message('note_on', channel=0, note=62, velocity=95, time=2),
    Message('note_on', channel=0, note=57, velocity=95, time=2),
    Message('note_on', channel=0, note=45, velocity=95, time=2),
    Message('note_off', channel=0, note=66, velocity=95, time=234),
    Message('note_off', channel=0, note=62, velocity=95, time=0),
    Message('note_off', channel=0, note=57, velocity=95, time=0),
    Message('note_off', channel=0, note=45, velocity=95, time=0),
    Message('note_on', channel=0, note=45, velocity=95, time=0),
    Message('note_on', channel=0, note=57, velocity=95, time=2),
    Message('note_on', channel=0, note=62, velocity=95, time=2),
    Message('note_on', channel=0, note=66, velocity=95, time=2),
    Message('note_off', channel=0, note=66, velocity=95, time=234),
    Message('note_off', channel=0, note=62, velocity=95, time=0),
    Message('note_off', channel=0, note=57, velocity=95, time=0),
    Message('note_off', channel=0, note=45, velocity=95, time=0),
    Message('note_on', channel=0, note=66, velocity=95, time=0),
    Message('note_on', channel=0, note=62, velocity=95, time=2),
    Message('note_on', channel=0, note=57, velocity=95, time=2),
    Message('note_on', channel=0, note=45, velocity=95, time=2),
    Message('note_off', channel=0, note=66, velocity=95, time=234),
    Message('note_off', channel=0, note=62, velocity=95, time=0),
    Message('note_off', channel=0, note=57, velocity=95, time=0),
    Message('note_off', channel=0, note=45, velocity=95, time=0),
    Message('note_on', channel=0, note=45, velocity=95, time=0),
    Message('note_on', channel=0, note=57, velocity=95, time=2),
    Message('note_on', channel=0, note=62, velocity=95, time=2),
    Message('note_on', channel=0, note=66, velocity=95, time=2),
    Message('note_off', channel=0, note=66, velocity=95, time=234),
    Message('note_off', channel=0, note=62, velocity=95, time=0),
    Message('note_off', channel=0, note=57, velocity=95, time=0),
    Message('note_off', channel=0, note=45, velocity=95, time=0),
    Message('note_on', channel=0, note=55, velocity=95, time=0),
    Message('note_on', channel=0, note=50, velocity=95, time=2),
    Message('note_on', channel=0, note=45, velocity=95, time=2),
    Message('note_off', channel=0, note=55, velocity=95, time=34),
    Message('note_off', channel=0, note=50, velocity=95, time=0),
    Message('note_off', channel=0, note=45, velocity=95, time=0),
    Message('note_on', channel=0, note=45, velocity=95, time=202),
    Message('note_on', channel=0, note=52, velocity=95, time=4),
    Message('note_on', channel=0, note=57, velocity=95, time=4),
    Message('note_off', channel=0, note=57, velocity=95, time=472),
    Message('note_off', channel=0, note=52, velocity=95, time=0),
    Message('note_off', channel=0, note=45, velocity=95, time=0),
    Message('note_on', channel=0, note=45, velocity=95, time=0),
    Message('note_on', channel=0, note=52, velocity=95, time=2),
    Message('note_on', channel=0, note=57, velocity=95, time=2),
    Message('note_off', channel=0, note=57, velocity=95, time=236),
    Message('note_off', channel=0, note=52, velocity=95, time=0),
    Message('note_off', channel=0, note=45, velocity=95, time=0),
    Message('note_on', channel=0, note=57, velocity=95, time=0),
    Message('note_on', channel=0, note=52, velocity=95, time=2),
    Message('note_on', channel=0, note=45, velocity=95, time=2),
    Message('note_off', channel=0, note=57, velocity=95, time=236),
    Message('note_off', channel=0, note=52, velocity=95, time=0),
    Message('note_off', channel=0, note=45, velocity=95, time=0),
    Message('note_on', channel=0, note=45, velocity=95, time=0),
    Message('note_on', channel=0, note=52, velocity=95, time=2),
    Message('note_on', channel=0, note=57, velocity=95, time=2),
    Message('note_off', channel=0, note=57, velocity=95, time=236),
    Message('note_off', channel=0, note=52, velocity=95, time=0),
    Message('note_off', channel=0, note=45, velocity=95, time=0),
    Message('note_on', channel=0, note=57, velocity=95, time=0),
    Message('note_on', channel=0, note=52, velocity=95, time=2),
    Message('note_on', channel=0, note=45, velocity=95, time=2),
    Message('note_off', channel=0, note=57, velocity=95, time=236),
    Message('note_off', channel=0, note=52, velocity=95, time=0),
    Message('note_off', channel=0, note=45, velocity=95, time=0),
    Message('note_on', channel=0, note=45, velocity=95, time=0),
    Message('note_on', channel=0, note=52, velocity=95, time=2),
    Message('note_on', channel=0, note=57, velocity=95, time=2),
    Message('note_off', channel=0, note=57, velocity=95, time=236),
    Message('note_off', channel=0, note=52, velocity=95, time=0),
    Message('note_off', channel=0, note=45, velocity=95, time=0),
    Message('note_on', channel=0, note=50, velocity=95, time=0),
    Message('note_on', channel=0, note=45, velocity=95, time=2),
    Message('note_on', channel=0, note=40, velocity=95, time=2),
    Message('note_off', channel=0, note=50, velocity=95, time=34),
    Message('note_off', channel=0, note=45, velocity=95, time=0),
    Message('note_off', channel=0, note=40, velocity=95, time=0),
    Message('note_on', channel=0, note=52, velocity=95, time=202),
    Message('note_on', channel=0, note=59, velocity=95, time=4),
    Message('note_on', channel=0, note=64, velocity=95, time=4),
    Message('note_off', channel=0, note=64, velocity=95, time=472),
    Message('note_off', channel=0, note=59, velocity=95, time=0),
    Message('note_off', channel=0, note=52, velocity=95, time=0),
    Message('note_on', channel=0, note=52, velocity=95, time=0),
    Message('note_on', channel=0, note=59, velocity=95, time=2),
    Message('note_on', channel=0, note=64, velocity=95, time=2),
    Message('note_off', channel=0, note=64, velocity=95, time=236),
    Message('note_off', channel=0, note=59, velocity=95, time=0),
    Message('note_off', channel=0, note=52, velocity=95, time=0),
    Message('note_on', channel=0, note=64, velocity=95, time=0),
    Message('note_on', channel=0, note=59, velocity=95, time=2),
    Message('note_on', channel=0, note=52, velocity=95, time=2),
    Message('note_off', channel=0, note=64, velocity=95, time=236),
    Message('note_off', channel=0, note=59, velocity=95, time=0),
    Message('note_off', channel=0, note=52, velocity=95, time=0),
    Message('note_on', channel=0, note=52, velocity=95, time=0),
    Message('note_on', channel=0, note=59, velocity=95, time=2),
    Message('note_on', channel=0, note=64, velocity=95, time=2),
    Message('note_off', channel=0, note=64, velocity=95, time=236),
    Message('note_off', channel=0, note=59, velocity=95, time=0),
    Message('note_off', channel=0, note=52, velocity=95, time=0),
    Message('note_on', channel=0, note=64, velocity=95, time=0),
    Message('note_on', channel=0, note=59, velocity=95, time=2),
    Message('note_on', channel=0, note=52, velocity=95, time=2),
    Message('note_off', channel=0, note=64, velocity=95, time=236),
    Message('note_off', channel=0, note=59, velocity=95, time=0),
    Message('note_off', channel=0, note=52, velocity=95, time=0),
    Message('note_on', channel=0, note=52, velocity=95, time=0),
    Message('note_on', channel=0, note=59, velocity=95, time=2),
    Message('note_on', channel=0, note=64, velocity=95, time=2),
    Message('note_off', channel=0, note=64, velocity=95, time=236),
    Message('note_off', channel=0, note=59, velocity=95, time=0),
    Message('note_off', channel=0, note=52, velocity=95, time=0),
    Message('note_on', channel=0, note=55, velocity=95, time=0),
    Message('note_on', channel=0, note=50, velocity=95, time=2),
    Message('note_on', channel=0, note=45, velocity=95, time=2),
    Message('note_off', channel=0, note=55, velocity=95, time=34),
    Message('note_off', channel=0, note=50, velocity=95, time=0),
    Message('note_off', channel=0, note=45, velocity=95, time=0),
    Message('note_on', channel=0, note=55, velocity=95, time=202),
    Message('note_on', channel=0, note=62, velocity=95, time=4),
    Message('note_on', channel=0, note=67, velocity=95, time=4),
    Message('note_off', channel=0, note=67, velocity=95, time=472),
    Message('note_off', channel=0, note=62, velocity=95, time=0),
    Message('note_off', channel=0, note=55, velocity=95, time=0),
    Message('note_on', channel=0, note=55, velocity=95, time=0),
    Message('note_on', channel=0, note=62, velocity=95, time=2),
    Message('note_on', channel=0, note=67, velocity=95, time=2),
    Message('note_off', channel=0, note=67, velocity=95, time=236),
    Message('note_off', channel=0, note=62, velocity=95, time=0),
    Message('note_off', channel=0, note=55, velocity=95, time=0),
    Message('note_on', channel=0, note=67, velocity=95, time=0),
    Message('note_on', channel=0, note=62, velocity=95, time=2),
    Message('note_on', channel=0, note=55, velocity=95, time=2),
    Message('note_off', channel=0, note=67, velocity=95, time=236),
    Message('note_off', channel=0, note=62, velocity=95, time=0),
    Message('note_off', channel=0, note=55, velocity=95, time=0),
    Message('note_on', channel=0, note=55, velocity=95, time=0),
    Message('note_on', channel=0, note=62, velocity=95, time=2),
    Message('note_on', channel=0, note=67, velocity=95, time=2),
    Message('note_off', channel=0, note=67, velocity=95, time=236),
    Message('note_off', channel=0, note=62, velocity=95, time=0),
    Message('note_off', channel=0, note=55, velocity=95, time=0),
    Message('note_on', channel=0, note=67, velocity=95, time=0),
    Message('note_on', channel=0, note=62, velocity=95, time=2),
    Message('note_on', channel=0, note=55, velocity=95, time=2),
    Message('note_off', channel=0, note=67, velocity=95, time=236),
    Message('note_off', channel=0, note=62, velocity=95, time=0),
    Message('note_off', channel=0, note=55, velocity=95, time=0),
    Message('note_on', channel=0, note=55, velocity=95, time=0),
    Message('note_on', channel=0, note=62, velocity=95, time=2),
    Message('note_on', channel=0, note=67, velocity=95, time=2),
    Message('note_off', channel=0, note=67, velocity=95, time=236),
    Message('note_off', channel=0, note=62, velocity=95, time=0),
    Message('note_off', channel=0, note=55, velocity=95, time=0),
    Message('note_on', channel=0, note=55, velocity=95, time=0),
    Message('note_on', channel=0, note=50, velocity=95, time=2),
    Message('note_on', channel=0, note=45, velocity=95, time=2),
    Message('note_off', channel=0, note=55, velocity=95, time=34),
    Message('note_off', channel=0, note=50, velocity=95, time=0),
    Message('note_off', channel=0, note=45, velocity=95, time=0),
    Message('note_on', channel=0, note=45, velocity=95, time=202),
    Message('note_on', channel=0, note=57, velocity=95, time=4),
    Message('note_on', channel=0, note=62, velocity=95, time=4),
    Message('note_on', channel=0, note=66, velocity=95, time=4),
    Message('note_off', channel=0, note=66, velocity=95, time=468),
    Message('note_off', channel=0, note=62, velocity=95, time=0),
    Message('note_off', channel=0, note=57, velocity=95, time=0),
    Message('note_off', channel=0, note=45, velocity=95, time=0),
    Message('note_on', channel=0, note=45, velocity=95, time=0),
    Message('note_on', channel=0, note=57, velocity=95, time=2),
    Message('note_on', channel=0, note=62, velocity=95, time=2),
    Message('note_on', channel=0, note=66, velocity=95, time=2),
    Message('note_off', channel=0, note=66, velocity=95, time=234),
    Message('note_off', channel=0, note=62, velocity=95, time=0),
    Message('note_off', channel=0, note=57, velocity=95, time=0),
    Message('note_off', channel=0, note=45, velocity=95, time=0),
    Message('note_on', channel=0, note=66, velocity=95, time=0),
    Message('note_on', channel=0, note=62, velocity=95, time=2),
    Message('note_on', channel=0, note=57, velocity=95, time=2),
    Message('note_on', channel=0, note=45, velocity=95, time=2),
    Message('note_off', channel=0, note=66, velocity=95, time=234),
    Message('note_off', channel=0, note=62, velocity=95, time=0),
    Message('note_off', channel=0, note=57, velocity=95, time=0),
    Message('note_off', channel=0, note=45, velocity=95, time=0),
    Message('note_on', channel=0, note=45, velocity=95, time=0),
    Message('note_on', channel=0, note=57, velocity=95, time=2),
    Message('note_on', channel=0, note=62, velocity=95, time=2),
    Message('note_on', channel=0, note=66, velocity=95, time=2),
    Message('note_off', channel=0, note=66, velocity=95, time=234),
    Message('note_off', channel=0, note=62, velocity=95, time=0),
    Message('note_off', channel=0, note=57, velocity=95, time=0),
    Message('note_off', channel=0, note=45, velocity=95, time=0),
    Message('note_on', channel=0, note=66, velocity=95, time=0),
    Message('note_on', channel=0, note=62, velocity=95, time=2),
    Message('note_on', channel=0, note=57, velocity=95, time=2),
    Message('note_on', channel=0, note=45, velocity=95, time=2),
    Message('note_off', channel=0, note=66, velocity=95, time=234),
    Message('note_off', channel=0, note=62, velocity=95, time=0),
    Message('note_off', channel=0, note=57, velocity=95, time=0),
    Message('note_off', channel=0, note=45, velocity=95, time=0),
    Message('note_on', channel=0, note=45, velocity=95, time=0),
    Message('note_on', channel=0, note=57, velocity=95, time=2),
    Message('note_on', channel=0, note=62, velocity=95, time=2),
    Message('note_on', channel=0, note=66, velocity=95, time=2),
    Message('note_off', channel=0, note=66, velocity=95, time=234),
    Message('note_off', channel=0, note=62, velocity=95, time=0),
    Message('note_off', channel=0, note=57, velocity=95, time=0),
    Message('note_off', channel=0, note=45, velocity=95, time=0),
    Message('note_on', channel=0, note=55, velocity=95, time=0),
    Message('note_on', channel=0, note=50, velocity=95, time=2),
    Message('note_on', channel=0, note=45, velocity=95, time=2),
    Message('note_off', channel=0, note=55, velocity=95, time=34),
    Message('note_off', channel=0, note=50, velocity=95, time=0),
    Message('note_off', channel=0, note=45, velocity=95, time=0),
    Message('note_on', channel=0, note=45, velocity=95, time=202),
    Message('note_on', channel=0, note=52, velocity=95, time=4),
    Message('note_on', channel=0, note=57, velocity=95, time=4),
    Message('note_off', channel=0, note=57, velocity=95, time=472),
    Message('note_off', channel=0, note=52, velocity=95, time=0),
    Message('note_off', channel=0, note=45, velocity=95, time=0),
    Message('note_on', channel=0, note=45, velocity=95, time=0),
    Message('note_on', channel=0, note=52, velocity=95, time=2),
    Message('note_on', channel=0, note=57, velocity=95, time=2),
    Message('note_off', channel=0, note=57, velocity=95, time=236),
    Message('note_off', channel=0, note=52, velocity=95, time=0),
    Message('note_off', channel=0, note=45, velocity=95, time=0),
    Message('note_on', channel=0, note=57, velocity=95, time=0),
    Message('note_on', channel=0, note=52, velocity=95, time=2),
    Message('note_on', channel=0, note=45, velocity=95, time=2),
    Message('note_off', channel=0, note=57, velocity=95, time=236),
    Message('note_off', channel=0, note=52, velocity=95, time=0),
    Message('note_off', channel=0, note=45, velocity=95, time=0),
    Message('note_on', channel=0, note=45, velocity=95, time=0),
    Message('note_on', channel=0, note=52, velocity=95, time=2),
    Message('note_on', channel=0, note=57, velocity=95, time=2),
    Message('note_off', channel=0, note=57, velocity=95, time=236),
    Message('note_off', channel=0, note=52, velocity=95, time=0),
    Message('note_off', channel=0, note=45, velocity=95, time=0),
    Message('note_on', channel=0, note=57, velocity=95, time=0),
    Message('note_on', channel=0, note=52, velocity=95, time=2),
    Message('note_on', channel=0, note=45, velocity=95, time=2),
    Message('note_off', channel=0, note=57, velocity=95, time=236),
    Message('note_off', channel=0, note=52, velocity=95, time=0),
    Message('note_off', channel=0, note=45, velocity=95, time=0),
    Message('note_on', channel=0, note=45, velocity=95, time=0),
    Message('note_on', channel=0, note=52, velocity=95, time=2),
    Message('note_on', channel=0, note=57, velocity=95, time=2),
    Message('note_off', channel=0, note=57, velocity=95, time=236),
    Message('note_off', channel=0, note=52, velocity=95, time=0),
    Message('note_off', channel=0, note=45, velocity=95, time=0),
    Message('note_on', channel=0, note=50, velocity=95, time=0),
    Message('note_on', channel=0, note=45, velocity=95, time=2),
    Message('note_on', channel=0, note=40, velocity=95, time=2),
    Message('note_off', channel=0, note=50, velocity=95, time=34),
    Message('note_off', channel=0, note=45, velocity=95, time=0),
    Message('note_off', channel=0, note=40, velocity=95, time=0),
    Message('note_on', channel=0, note=52, velocity=95, time=202),
    Message('note_on', channel=0, note=59, velocity=95, time=4),
    Message('note_on', channel=0, note=64, velocity=95, time=4),
    Message('note_off', channel=0, note=64, velocity=95, time=472),
    Message('note_off', channel=0, note=59, velocity=95, time=0),
    Message('note_off', channel=0, note=52, velocity=95, time=0),
    Message('note_on', channel=0, note=52, velocity=95, time=0),
    Message('note_on', channel=0, note=59, velocity=95, time=2),
    Message('note_on', channel=0, note=64, velocity=95, time=2),
    Message('note_off', channel=0, note=64, velocity=95, time=236),
    Message('note_off', channel=0, note=59, velocity=95, time=0),
    Message('note_off', channel=0, note=52, velocity=95, time=0),
    Message('note_on', channel=0, note=64, velocity=95, time=0),
    Message('note_on', channel=0, note=59, velocity=95, time=2),
    Message('note_on', channel=0, note=52, velocity=95, time=2),
    Message('note_off', channel=0, note=64, velocity=95, time=236),
    Message('note_off', channel=0, note=59, velocity=95, time=0),
    Message('note_off', channel=0, note=52, velocity=95, time=0),
    Message('note_on', channel=0, note=52, velocity=95, time=0),
    Message('note_on', channel=0, note=59, velocity=95, time=2),
    Message('note_on', channel=0, note=64, velocity=95, time=2),
    Message('note_off', channel=0, note=64, velocity=95, time=236),
    Message('note_off', channel=0, note=59, velocity=95, time=0),
    Message('note_off', channel=0, note=52, velocity=95, time=0),
    Message('note_on', channel=0, note=64, velocity=95, time=0),
    Message('note_on', channel=0, note=59, velocity=95, time=2),
    Message('note_on', channel=0, note=52, velocity=95, time=2),
    Message('note_off', channel=0, note=64, velocity=95, time=236),
    Message('note_off', channel=0, note=59, velocity=95, time=0),
    Message('note_off', channel=0, note=52, velocity=95, time=0),
    Message('note_on', channel=0, note=52, velocity=95, time=0),
    Message('note_on', channel=0, note=59, velocity=95, time=2),
    Message('note_on', channel=0, note=64, velocity=95, time=2),
    Message('note_off', channel=0, note=64, velocity=95, time=236),
    Message('note_off', channel=0, note=59, velocity=95, time=0),
    Message('note_off', channel=0, note=52, velocity=95, time=0),
    Message('note_on', channel=0, note=55, velocity=95, time=0),
    Message('note_on', channel=0, note=50, velocity=95, time=2),
    Message('note_on', channel=0, note=45, velocity=95, time=2),
    Message('note_off', channel=0, note=55, velocity=95, time=34),
    Message('note_off', channel=0, note=50, velocity=95, time=0),
    Message('note_off', channel=0, note=45, velocity=95, time=0),
    Message('note_on', channel=0, note=55, velocity=95, time=202),
    Message('note_on', channel=0, note=62, velocity=95, time=4),
    Message('note_on', channel=0, note=67, velocity=95, time=4),
    Message('note_off', channel=0, note=67, velocity=95, time=472),
    Message('note_off', channel=0, note=62, velocity=95, time=0),
    Message('note_off', channel=0, note=55, velocity=95, time=0),
    Message('note_on', channel=0, note=55, velocity=95, time=0),
    Message('note_on', channel=0, note=62, velocity=95, time=2),
    Message('note_on', channel=0, note=67, velocity=95, time=2),
    Message('note_off', channel=0, note=67, velocity=95, time=236),
    Message('note_off', channel=0, note=62, velocity=95, time=0),
    Message('note_off', channel=0, note=55, velocity=95, time=0),
    Message('note_on', channel=0, note=67, velocity=95, time=0),
    Message('note_on', channel=0, note=62, velocity=95, time=2),
    Message('note_on', channel=0, note=55, velocity=95, time=2),
    Message('note_off', channel=0, note=67, velocity=95, time=236),
    Message('note_off', channel=0, note=62, velocity=95, time=0),
    Message('note_off', channel=0, note=55, velocity=95, time=0),
    Message('note_on', channel=0, note=55, velocity=95, time=0),
    Message('note_on', channel=0, note=62, velocity=95, time=2),
    Message('note_on', channel=0, note=67, velocity=95, time=2),
    Message('note_off', channel=0, note=67, velocity=95, time=236),
    Message('note_off', channel=0, note=62, velocity=95, time=0),
    Message('note_off', channel=0, note=55, velocity=95, time=0),
    Message('note_on', channel=0, note=67, velocity=95, time=0),
    Message('note_on', channel=0, note=62, velocity=95, time=2),
    Message('note_on', channel=0, note=55, velocity=95, time=2),
    Message('note_off', channel=0, note=67, velocity=95, time=236),
    Message('note_off', channel=0, note=62, velocity=95, time=0),
    Message('note_off', channel=0, note=55, velocity=95, time=0),
    Message('note_on', channel=0, note=55, velocity=95, time=0),
    Message('note_on', channel=0, note=62, velocity=95, time=2),
    Message('note_on', channel=0, note=67, velocity=95, time=2),
    Message('note_off', channel=0, note=67, velocity=95, time=236),
    Message('note_off', channel=0, note=62, velocity=95, time=0),
    Message('note_off', channel=0, note=55, velocity=95, time=0),
    Message('note_on', channel=0, note=55, velocity=95, time=0),
    Message('note_on', channel=0, note=50, velocity=95, time=2),
    Message('note_on', channel=0, note=45, velocity=95, time=2),
    Message('note_off', channel=0, note=55, velocity=95, time=34),
    Message('note_off', channel=0, note=50, velocity=95, time=0),
    Message('note_off', channel=0, note=45, velocity=95, time=0),
    Message('note_on', channel=0, note=45, velocity=95, time=202),
    Message('note_on', channel=1, note=57, velocity=95, time=4),
    Message('note_on', channel=1, note=62, velocity=95, time=4),
    Message('note_on', channel=1, note=66, velocity=95, time=4),
    Message('pitchwheel', channel=1, pitch=0, time=152),
    Message('pitchwheel', channel=1, pitch=0, time=4),
    Message('pitchwheel', channel=1, pitch=0, time=4),
    Message('pitchwheel', channel=1, pitch=128, time=152),
    Message('pitchwheel', channel=1, pitch=128, time=4),
    Message('pitchwheel', channel=1, pitch=128, time=4),
    Message('pitchwheel', channel=1, pitch=0, time=148),
    Message('pitchwheel', channel=1, pitch=128, time=0),
    Message('pitchwheel', channel=1, pitch=0, time=0),
    Message('note_off', channel=1, note=66, velocity=95, time=0),
    Message('pitchwheel', channel=1, pitch=0, time=0),
    Message('pitchwheel', channel=1, pitch=128, time=0),
    Message('pitchwheel', channel=1, pitch=0, time=0),
    Message('note_off', channel=1, note=62, velocity=95, time=0),
    Message('pitchwheel', channel=1, pitch=0, time=0),
    Message('pitchwheel', channel=1, pitch=128, time=0),
    Message('pitchwheel', channel=1, pitch=0, time=0),
    Message('note_off', channel=1, note=57, velocity=95, time=0),
    Message('note_off', channel=0, note=45, velocity=95, time=0),
    Message('note_on', channel=0, note=45, velocity=95, time=0),
    Message('note_on', channel=0, note=57, velocity=95, time=2),
    Message('note_on', channel=0, note=62, velocity=95, time=2),
    Message('note_on', channel=0, note=66, velocity=95, time=2),
    Message('note_off', channel=0, note=66, velocity=95, time=234),
    Message('note_off', channel=0, note=62, velocity=95, time=0),
    Message('note_off', channel=0, note=57, velocity=95, time=0),
    Message('note_off', channel=0, note=45, velocity=95, time=0),
    Message('note_on', channel=0, note=66, velocity=95, time=0),
    Message('note_on', channel=0, note=62, velocity=95, time=2),
    Message('note_on', channel=0, note=57, velocity=95, time=2),
    Message('note_on', channel=0, note=45, velocity=95, time=2),
    Message('note_off', channel=0, note=66, velocity=95, time=234),
    Message('note_off', channel=0, note=62, velocity=95, time=0),
    Message('note_off', channel=0, note=57, velocity=95, time=0),
    Message('note_off', channel=0, note=45, velocity=95, time=0),
    Message('note_on', channel=0, note=45, velocity=95, time=0),
    Message('note_on', channel=0, note=57, velocity=95, time=2),
    Message('note_on', channel=0, note=62, velocity=95, time=2),
    Message('note_on', channel=0, note=66, velocity=95, time=2),
    Message('note_off', channel=0, note=66, velocity=95, time=234),
    Message('note_off', channel=0, note=62, velocity=95, time=0),
    Message('note_off', channel=0, note=57, velocity=95, time=0),
    Message('note_off', channel=0, note=45, velocity=95, time=0),
    Message('note_on', channel=0, note=66, velocity=95, time=0),
    Message('note_on', channel=0, note=62, velocity=95, time=2),
    Message('note_on', channel=0, note=57, velocity=95, time=2),
    Message('note_on', channel=0, note=45, velocity=95, time=2),
    Message('note_off', channel=0, note=66, velocity=95, time=234),
    Message('note_off', channel=0, note=62, velocity=95, time=0),
    Message('note_off', channel=0, note=57, velocity=95, time=0),
    Message('note_off', channel=0, note=45, velocity=95, time=0),
    Message('note_on', channel=0, note=45, velocity=95, time=0),
    Message('note_on', channel=0, note=57, velocity=95, time=2),
    Message('note_on', channel=0, note=62, velocity=95, time=2),
    Message('note_on', channel=0, note=66, velocity=95, time=2),
    Message('note_off', channel=0, note=66, velocity=95, time=234),
    Message('note_off', channel=0, note=62, velocity=95, time=0),
    Message('note_off', channel=0, note=57, velocity=95, time=0),
    Message('note_off', channel=0, note=45, velocity=95, time=0),
    Message('note_on', channel=0, note=55, velocity=95, time=0),
    Message('note_on', channel=0, note=50, velocity=95, time=2),
    Message('note_on', channel=0, note=45, velocity=95, time=2),
    Message('note_off', channel=0, note=55, velocity=95, time=34),
    Message('note_off', channel=0, note=50, velocity=95, time=0),
    Message('note_off', channel=0, note=45, velocity=95, time=0),
    Message('note_on', channel=0, note=45, velocity=95, time=202),
    Message('note_on', channel=0, note=52, velocity=95, time=4),
    Message('note_on', channel=0, note=57, velocity=95, time=4),
    Message('note_off', channel=0, note=57, velocity=95, time=472),
    Message('note_off', channel=0, note=52, velocity=95, time=0),
    Message('note_off', channel=0, note=45, velocity=95, time=0),
    Message('note_on', channel=0, note=45, velocity=95, time=0),
    Message('note_on', channel=0, note=52, velocity=95, time=2),
    Message('note_on', channel=0, note=57, velocity=95, time=2),
    Message('note_off', channel=0, note=57, velocity=95, time=236),
    Message('note_off', channel=0, note=52, velocity=95, time=0),
    Message('note_off', channel=0, note=45, velocity=95, time=0),
    Message('note_on', channel=0, note=57, velocity=95, time=0),
    Message('note_on', channel=0, note=52, velocity=95, time=2),
    Message('note_on', channel=0, note=45, velocity=95, time=2),
    Message('note_off', channel=0, note=57, velocity=95, time=236),
    Message('note_off', channel=0, note=52, velocity=95, time=0),
    Message('note_off', channel=0, note=45, velocity=95, time=0),
    Message('note_on', channel=0, note=45, velocity=95, time=0),
    Message('note_on', channel=0, note=52, velocity=95, time=2),
    Message('note_on', channel=0, note=57, velocity=95, time=2),
    Message('note_off', channel=0, note=57, velocity=95, time=236),
    Message('note_off', channel=0, note=52, velocity=95, time=0),
    Message('note_off', channel=0, note=45, velocity=95, time=0),
    Message('note_on', channel=0, note=57, velocity=95, time=0),
    Message('note_on', channel=0, note=52, velocity=95, time=2),
    Message('note_on', channel=0, note=45, velocity=95, time=2),
    Message('note_off', channel=0, note=57, velocity=95, time=236),
    Message('note_off', channel=0, note=52, velocity=95, time=0),
    Message('note_off', channel=0, note=45, velocity=95, time=0),
    Message('note_on', channel=0, note=45, velocity=95, time=0),
    Message('note_on', channel=0, note=52, velocity=95, time=2),
    Message('note_on', channel=0, note=57, velocity=95, time=2),
    Message('note_off', channel=0, note=57, velocity=95, time=236),
    Message('note_off', channel=0, note=52, velocity=95, time=0),
    Message('note_off', channel=0, note=45, velocity=95, time=0),
    Message('note_on', channel=0, note=50, velocity=95, time=0),
    Message('note_on', channel=0, note=45, velocity=95, time=2),
    Message('note_on', channel=0, note=40, velocity=95, time=2),
    Message('note_off', channel=0, note=50, velocity=95, time=34),
    Message('note_off', channel=0, note=45, velocity=95, time=0),
    Message('note_off', channel=0, note=40, velocity=95, time=0),
    Message('note_on', channel=0, note=52, velocity=95, time=202),
    Message('note_on', channel=0, note=59, velocity=95, time=4),
    Message('note_on', channel=0, note=64, velocity=95, time=4),
    Message('note_off', channel=0, note=64, velocity=95, time=472),
    Message('note_off', channel=0, note=59, velocity=95, time=0),
    Message('note_off', channel=0, note=52, velocity=95, time=0),
    Message('note_on', channel=0, note=52, velocity=95, time=0),
    Message('note_on', channel=0, note=59, velocity=95, time=2),
    Message('note_on', channel=0, note=64, velocity=95, time=2),
    Message('note_off', channel=0, note=64, velocity=95, time=236),
    Message('note_off', channel=0, note=59, velocity=95, time=0),
    Message('note_off', channel=0, note=52, velocity=95, time=0),
    Message('note_on', channel=0, note=64, velocity=95, time=0),
    Message('note_on', channel=0, note=59, velocity=95, time=2),
    Message('note_on', channel=0, note=52, velocity=95, time=2),
    Message('note_off', channel=0, note=64, velocity=95, time=236),
    Message('note_off', channel=0, note=59, velocity=95, time=0),
    Message('note_off', channel=0, note=52, velocity=95, time=0),
    Message('note_on', channel=0, note=52, velocity=95, time=0),
    Message('note_on', channel=0, note=59, velocity=95, time=2),
    Message('note_on', channel=0, note=64, velocity=95, time=2),
    Message('note_off', channel=0, note=64, velocity=95, time=236),
    Message('note_off', channel=0, note=59, velocity=95, time=0),
    Message('note_off', channel=0, note=52, velocity=95, time=0),
    Message('note_on', channel=0, note=64, velocity=95, time=0),
    Message('note_on', channel=0, note=59, velocity=95, time=2),
    Message('note_on', channel=0, note=52, velocity=95, time=2),
    Message('note_off', channel=0, note=64, velocity=95, time=236),
    Message('note_off', channel=0, note=59, velocity=95, time=0),
    Message('note_off', channel=0, note=52, velocity=95, time=0),
    Message('note_on', channel=0, note=52, velocity=95, time=0),
    Message('note_on', channel=0, note=59, velocity=95, time=2),
    Message('note_on', channel=0, note=64, velocity=95, time=2),
    Message('note_off', channel=0, note=64, velocity=95, time=236),
    Message('note_off', channel=0, note=59, velocity=95, time=0),
    Message('note_off', channel=0, note=52, velocity=95, time=0),
    Message('note_on', channel=0, note=55, velocity=95, time=0),
    Message('note_on', channel=0, note=50, velocity=95, time=2),
    Message('note_on', channel=0, note=45, velocity=95, time=2),
    Message('note_off', channel=0, note=55, velocity=95, time=34),
    Message('note_off', channel=0, note=50, velocity=95, time=0),
    Message('note_off', channel=0, note=45, velocity=95, time=0),
    Message('note_on', channel=0, note=55, velocity=95, time=202),
    Message('note_on', channel=0, note=62, velocity=95, time=4),
    Message('note_on', channel=0, note=67, velocity=95, time=4),
    Message('note_off', channel=0, note=67, velocity=95, time=472),
    Message('note_off', channel=0, note=62, velocity=95, time=0),
    Message('note_off', channel=0, note=55, velocity=95, time=0),
    Message('note_on', channel=0, note=55, velocity=95, time=0),
    Message('note_on', channel=0, note=62, velocity=95, time=2),
    Message('note_on', channel=0, note=67, velocity=95, time=2),
    Message('note_off', channel=0, note=67, velocity=95, time=236),
    Message('note_off', channel=0, note=62, velocity=95, time=0),
    Message('note_off', channel=0, note=55, velocity=95, time=0),
    Message('note_on', channel=0, note=67, velocity=95, time=0),
    Message('note_on', channel=0, note=62, velocity=95, time=2),
    Message('note_on', channel=0, note=55, velocity=95, time=2),
    Message('note_off', channel=0, note=67, velocity=95, time=236),
    Message('note_off', channel=0, note=62, velocity=95, time=0),
    Message('note_off', channel=0, note=55, velocity=95, time=0),
    Message('note_on', channel=0, note=55, velocity=95, time=0),
    Message('note_on', channel=0, note=62, velocity=95, time=2),
    Message('note_on', channel=0, note=67, velocity=95, time=2),
    Message('note_off', channel=0, note=67, velocity=95, time=236),
    Message('note_off', channel=0, note=62, velocity=95, time=0),
    Message('note_off', channel=0, note=55, velocity=95, time=0),
    Message('note_on', channel=0, note=67, velocity=95, time=0),
    Message('note_on', channel=0, note=62, velocity=95, time=2),
    Message('note_on', channel=0, note=55, velocity=95, time=2),
    Message('note_off', channel=0, note=67, velocity=95, time=236),
    Message('note_off', channel=0, note=62, velocity=95, time=0),
    Message('note_off', channel=0, note=55, velocity=95, time=0),
    Message('note_on', channel=0, note=55, velocity=95, time=0),
    Message('note_on', channel=0, note=62, velocity=95, time=2),
    Message('note_on', channel=0, note=67, velocity=95, time=2),
    Message('note_off', channel=0, note=67, velocity=95, time=236),
    Message('note_off', channel=0, note=62, velocity=95, time=0),
    Message('note_off', channel=0, note=55, velocity=95, time=0),
    Message('note_on', channel=0, note=55, velocity=95, time=0),
    Message('note_on', channel=0, note=50, velocity=95, time=2),
    Message('note_on', channel=0, note=45, velocity=95, time=2),
    Message('note_off', channel=0, note=55, velocity=95, time=34),
    Message('note_off', channel=0, note=50, velocity=95, time=0),
    Message('note_off', channel=0, note=45, velocity=95, time=0),
    Message('note_on', channel=0, note=45, velocity=95, time=202),
    Message('note_on', channel=0, note=57, velocity=95, time=8),
    Message('note_on', channel=0, note=62, velocity=95, time=8),
    Message('note_on', channel=0, note=66, velocity=95, time=8),
    Message('note_off', channel=0, note=66, velocity=95, time=1416),
    Message('note_off', channel=0, note=62, velocity=95, time=0),
    Message('note_off', channel=0, note=57, velocity=95, time=0),
    Message('note_off', channel=0, note=45, velocity=95, time=0),
    Message('note_on', channel=0, note=45, velocity=95, time=0),
    Message('note_on', channel=0, note=57, velocity=95, time=4),
    Message('note_on', channel=0, note=62, velocity=95, time=4),
    Message('note_on', channel=0, note=66, velocity=95, time=4),
    Message('note_off', channel=0, note=66, velocity=95, time=468),
    Message('note_off', channel=0, note=62, velocity=95, time=0),
    Message('note_off', channel=0, note=57, velocity=95, time=0),
    Message('note_off', channel=0, note=45, velocity=95, time=0),
    Message('note_on', channel=0, note=45, velocity=95, time=0),
    Message('note_on', channel=0, note=52, velocity=95, time=8),
    Message('note_on', channel=0, note=57, velocity=95, time=8),
    Message('note_off', channel=0, note=57, velocity=95, time=1904),
    Message('note_off', channel=0, note=52, velocity=95, time=0),
    Message('note_off', channel=0, note=45, velocity=95, time=0),
    Message('note_on', channel=0, note=52, velocity=95, time=0),
    Message('note_on', channel=0, note=59, velocity=95, time=8),
    Message('note_on', channel=0, note=64, velocity=95, time=8),
    Message('note_off', channel=0, note=64, velocity=95, time=1424),
    Message('note_off', channel=0, note=59, velocity=95, time=0),
    Message('note_off', channel=0, note=52, velocity=95, time=0),
    Message('note_on', channel=0, note=64, velocity=95, time=2400),
    Message('note_on', channel=0, note=59, velocity=95, time=0),
    Message('note_on', channel=0, note=52, velocity=95, time=0),
    Message('note_off', channel=0, note=64, velocity=95, time=2880),
    Message('note_off', channel=0, note=59, velocity=95, time=0),
    Message('note_off', channel=0, note=52, velocity=95, time=0),
    Message('note_on', channel=0, note=64, velocity=95, time=0),
    Message('note_on', channel=0, note=59, velocity=95, time=0),
    Message('note_on', channel=0, note=52, velocity=95, time=0),
    Message('note_on', channel=1, note=64, velocity=95, time=960),
    Message('note_on', channel=1, note=59, velocity=95, time=0),
    Message('note_on', channel=1, note=52, velocity=95, time=0),
    Message('note_off', channel=0, note=64, velocity=95, time=480),
    Message('note_off', channel=0, note=59, velocity=95, time=0),
    Message('note_off', channel=0, note=52, velocity=95, time=0),
    Message('note_off', channel=1, note=64, velocity=95, time=0),
    Message('note_off', channel=1, note=59, velocity=95, time=0),
    Message('note_off', channel=1, note=52, velocity=95, time=0),
    MetaMessage('end_of_track', time=0)]),
  MidiTrack([
    Message('pitchwheel', channel=4, pitch=0, time=0),
    Message('control_change', channel=4, control=7, value=111, time=0),
    Message('control_change', channel=4, control=10, value=39, time=0),
    Message('control_change', channel=4, control=93, value=127, time=0),
    Message('control_change', channel=4, control=91, value=39, time=0),
    Message('control_change', channel=4, control=95, value=0, time=0),
    Message('control_change', channel=4, control=92, value=0, time=0),
    Message('control_change', channel=4, control=11, value=127, time=0),
    Message('program_change', channel=4, program=25, time=0),
    Message('control_change', channel=5, control=7, value=111, time=0),
    Message('control_change', channel=5, control=10, value=39, time=0),
    Message('control_change', channel=5, control=93, value=127, time=0),
    Message('control_change', channel=5, control=91, value=39, time=0),
    Message('control_change', channel=5, control=95, value=0, time=0),
    Message('control_change', channel=5, control=92, value=0, time=0),
    Message('control_change', channel=5, control=11, value=127, time=0),
    Message('program_change', channel=5, program=25, time=0),
    Message('note_on', channel=4, note=45, velocity=95, time=11520),
    Message('note_on', channel=4, note=45, velocity=95, time=15),
    Message('note_on', channel=4, note=57, velocity=95, time=15),
    Message('note_off', channel=4, note=45, velocity=95, time=8),
    Message('note_on', channel=4, note=61, velocity=95, time=7),
    Message('note_on', channel=4, note=64, velocity=95, time=15),
    Message('note_on', channel=4, note=69, velocity=95, time=15),
    Message('note_off', channel=4, note=69, velocity=95, time=1365),
    Message('note_off', channel=4, note=64, velocity=95, time=0),
    Message('note_off', channel=4, note=61, velocity=95, time=0),
    Message('note_off', channel=4, note=57, velocity=95, time=0),
    Message('note_off', channel=4, note=45, velocity=95, time=0),
    Message('note_on', channel=4, note=45, velocity=95, time=0),
    Message('note_on', channel=4, note=45, velocity=95, time=15),
    Message('note_on', channel=4, note=57, velocity=95, time=15),
    Message('note_off', channel=4, note=45, velocity=95, time=8),
    Message('note_on', channel=4, note=62, velocity=95, time=7),
    Message('note_on', channel=4, note=64, velocity=95, time=15),
    Message('note_on', channel=4, note=69, velocity=95, time=15),
    Message('note_off', channel=4, note=69, velocity=95, time=1845),
    Message('note_off', channel=4, note=64, velocity=95, time=0),
    Message('note_off', channel=4, note=62, velocity=95, time=0),
    Message('note_off', channel=4, note=57, velocity=95, time=0),
    Message('note_off', channel=4, note=45, velocity=95, time=0),
    Message('note_on', channel=4, note=45, velocity=95, time=480),
    Message('note_on', channel=4, note=45, velocity=95, time=15),
    Message('note_on', channel=4, note=57, velocity=95, time=15),
    Message('note_off', channel=4, note=45, velocity=95, time=8),
    Message('note_on', channel=4, note=61, velocity=95, time=7),
    Message('note_on', channel=4, note=64, velocity=95, time=15),
    Message('note_on', channel=4, note=69, velocity=95, time=15),
    Message('note_off', channel=4, note=69, velocity=95, time=1365),
    Message('note_off', channel=4, note=64, velocity=95, time=0),
    Message('note_off', channel=4, note=61, velocity=95, time=0),
    Message('note_off', channel=4, note=57, velocity=95, time=0),
    Message('note_off', channel=4, note=45, velocity=95, time=0),
    Message('note_on', channel=4, note=45, velocity=95, time=0),
    Message('note_on', channel=4, note=45, velocity=95, time=15),
    Message('note_on', channel=4, note=57, velocity=95, time=15),
    Message('note_off', channel=4, note=45, velocity=95, time=8),
    Message('note_on', channel=4, note=62, velocity=95, time=7),
    Message('note_on', channel=4, note=64, velocity=95, time=15),
    Message('note_on', channel=4, note=69, velocity=95, time=15),
    Message('note_off', channel=4, note=69, velocity=95, time=1845),
    Message('note_off', channel=4, note=64, velocity=95, time=0),
    Message('note_off', channel=4, note=62, velocity=95, time=0),
    Message('note_off', channel=4, note=57, velocity=95, time=0),
    Message('note_off', channel=4, note=45, velocity=95, time=0),
    Message('note_on', channel=4, note=45, velocity=95, time=480),
    Message('note_on', channel=4, note=45, velocity=95, time=6),
    Message('note_on', channel=4, note=57, velocity=95, time=6),
    Message('note_on', channel=4, note=61, velocity=95, time=6),
    Message('note_on', channel=4, note=64, velocity=95, time=6),
    Message('note_on', channel=4, note=69, velocity=95, time=6),
    Message('note_off', channel=4, note=45, velocity=95, time=8),
    Message('note_off', channel=4, note=69, velocity=95, time=682),
    Message('note_off', channel=4, note=64, velocity=95, time=0),
    Message('note_off', channel=4, note=61, velocity=95, time=0),
    Message('note_off', channel=4, note=57, velocity=95, time=0),
    Message('note_off', channel=4, note=45, velocity=95, time=0),
    Message('note_on', channel=4, note=69, velocity=95, time=0),
    Message('note_on', channel=4, note=64, velocity=95, time=2),
    Message('note_on', channel=4, note=61, velocity=95, time=2),
    Message('note_on', channel=4, note=57, velocity=95, time=2),
    Message('note_on', channel=4, note=45, velocity=95, time=2),
    Message('note_on', channel=4, note=45, velocity=95, time=2),
    Message('note_off', channel=4, note=45, velocity=95, time=28),
    Message('note_off', channel=4, note=69, velocity=95, time=202),
    Message('note_off', channel=4, note=64, velocity=95, time=0),
    Message('note_off', channel=4, note=61, velocity=95, time=0),
    Message('note_off', channel=4, note=57, velocity=95, time=0),
    Message('note_off', channel=4, note=45, velocity=95, time=0),
    Message('note_on', channel=4, note=45, velocity=95, time=0),
    Message('note_on', channel=4, note=45, velocity=95, time=4),
    Message('note_on', channel=4, note=57, velocity=95, time=4),
    Message('note_on', channel=4, note=61, velocity=95, time=4),
    Message('note_on', channel=4, note=64, velocity=95, time=4),
    Message('note_on', channel=4, note=69, velocity=95, time=4),
    Message('note_off', channel=4, note=45, velocity=95, time=18),
    Message('note_off', channel=4, note=69, velocity=95, time=442),
    Message('note_off', channel=4, note=64, velocity=95, time=0),
    Message('note_off', channel=4, note=61, velocity=95, time=0),
    Message('note_off', channel=4, note=57, velocity=95, time=0),
    Message('note_off', channel=4, note=45, velocity=95, time=0),
    Message('note_on', channel=4, note=45, velocity=95, time=0),
    Message('note_on', channel=4, note=45, velocity=95, time=6),
    Message('note_on', channel=4, note=57, velocity=95, time=6),
    Message('note_on', channel=4, note=62, velocity=95, time=6),
    Message('note_on', channel=4, note=64, velocity=95, time=6),
    Message('note_on', channel=4, note=69, velocity=95, time=6),
    Message('note_off', channel=4, note=45, velocity=95, time=8),
    Message('note_off', channel=4, note=69, velocity=95, time=682),
    Message('note_off', channel=4, note=64, velocity=95, time=0),
    Message('note_off', channel=4, note=62, velocity=95, time=0),
    Message('note_off', channel=4, note=57, velocity=95, time=0),
    Message('note_off', channel=4, note=45, velocity=95, time=0),
    Message('note_on', channel=4, note=69, velocity=95, time=0),
    Message('note_on', channel=4, note=64, velocity=95, time=2),
    Message('note_on', channel=4, note=62, velocity=95, time=2),
    Message('note_on', channel=4, note=57, velocity=95, time=2),
    Message('note_on', channel=4, note=45, velocity=95, time=2),
    Message('note_on', channel=4, note=45, velocity=95, time=2),
    Message('note_off', channel=4, note=45, velocity=95, time=28),
    Message('note_off', channel=4, note=69, velocity=95, time=202),
    Message('note_off', channel=4, note=64, velocity=95, time=0),
    Message('note_off', channel=4, note=62, velocity=95, time=0),
    Message('note_off', channel=4, note=57, velocity=95, time=0),
    Message('note_off', channel=4, note=45, velocity=95, time=0),
    Message('note_on', channel=4, note=45, velocity=95, time=0),
    Message('note_on', channel=4, note=45, velocity=95, time=4),
    Message('note_on', channel=4, note=57, velocity=95, time=4),
    Message('note_on', channel=4, note=62, velocity=95, time=4),
    Message('note_on', channel=4, note=64, velocity=95, time=4),
    Message('note_on', channel=4, note=69, velocity=95, time=4),
    Message('note_off', channel=4, note=45, velocity=95, time=18),
    Message('note_off', channel=4, note=69, velocity=95, time=442),
    Message('note_off', channel=4, note=64, velocity=95, time=0),
    Message('note_off', channel=4, note=62, velocity=95, time=0),
    Message('note_off', channel=4, note=57, velocity=95, time=0),
    Message('note_off', channel=4, note=45, velocity=95, time=0),
    Message('note_on', channel=4, note=69, velocity=95, time=0),
    Message('note_on', channel=4, note=64, velocity=95, time=2),
    Message('note_on', channel=4, note=62, velocity=95, time=2),
    Message('note_on', channel=4, note=57, velocity=95, time=2),
    Message('note_on', channel=4, note=45, velocity=95, time=2),
    Message('note_on', channel=4, note=45, velocity=95, time=2),
    Message('note_off', channel=4, note=45, velocity=95, time=28),
    Message('note_off', channel=4, note=69, velocity=95, time=202),
    Message('note_off', channel=4, note=64, velocity=95, time=0),
    Message('note_off', channel=4, note=62, velocity=95, time=0),
    Message('note_off', channel=4, note=57, velocity=95, time=0),
    Message('note_off', channel=4, note=45, velocity=95, time=0),
    Message('note_on', channel=4, note=45, velocity=95, time=0),
    Message('note_on', channel=4, note=45, velocity=95, time=2),
    Message('note_on', channel=4, note=57, velocity=95, time=2),
    Message('note_on', channel=4, note=62, velocity=95, time=2),
    Message('note_on', channel=4, note=64, velocity=95, time=2),
    Message('note_on', channel=4, note=69, velocity=95, time=2),
    Message('note_off', channel=4, note=45, velocity=95, time=28),
    Message('note_off', channel=4, note=69, velocity=95, time=202),
    Message('note_off', channel=4, note=64, velocity=95, time=0),
    Message('note_off', channel=4, note=62, velocity=95, time=0),
    Message('note_off', channel=4, note=57, velocity=95, time=0),
    Message('note_off', channel=4, note=45, velocity=95, time=0),
    Message('note_on', channel=4, note=69, velocity=95, time=0),
    Message('note_on', channel=4, note=64, velocity=95, time=4),
    Message('note_on', channel=4, note=62, velocity=95, time=4),
    Message('note_on', channel=4, note=57, velocity=95, time=4),
    Message('note_on', channel=4, note=45, velocity=95, time=4),
    Message('note_on', channel=4, note=45, velocity=95, time=4),
    Message('note_off', channel=4, note=45, velocity=95, time=18),
    Message('note_off', channel=4, note=69, velocity=95, time=442),
    Message('note_off', channel=4, note=64, velocity=95, time=0),
    Message('note_off', channel=4, note=62, velocity=95, time=0),
    Message('note_off', channel=4, note=57, velocity=95, time=0),
    Message('note_off', channel=4, note=45, velocity=95, time=0),
    Message('note_on', channel=4, note=45, velocity=95, time=0),
    Message('note_on', channel=4, note=45, velocity=95, time=6),
    Message('note_on', channel=4, note=57, velocity=95, time=6),
    Message('note_on', channel=4, note=61, velocity=95, time=6),
    Message('note_on', channel=4, note=64, velocity=95, time=6),
    Message('note_on', channel=4, note=69, velocity=95, time=6),
    Message('note_off', channel=4, note=45, velocity=95, time=8),
    Message('note_off', channel=4, note=69, velocity=95, time=682),
    Message('note_off', channel=4, note=64, velocity=95, time=0),
    Message('note_off', channel=4, note=61, velocity=95, time=0),
    Message('note_off', channel=4, note=57, velocity=95, time=0),
    Message('note_off', channel=4, note=45, velocity=95, time=0),
    Message('note_on', channel=4, note=69, velocity=95, time=0),
    Message('note_on', channel=4, note=64, velocity=95, time=2),
    Message('note_on', channel=4, note=61, velocity=95, time=2),
    Message('note_on', channel=4, note=57, velocity=95, time=2),
    Message('note_on', channel=4, note=45, velocity=95, time=2),
    Message('note_on', channel=4, note=45, velocity=95, time=2),
    Message('note_off', channel=4, note=45, velocity=95, time=28),
    Message('note_off', channel=4, note=69, velocity=95, time=202),
    Message('note_off', channel=4, note=64, velocity=95, time=0),
    Message('note_off', channel=4, note=61, velocity=95, time=0),
    Message('note_off', channel=4, note=57, velocity=95, time=0),
    Message('note_off', channel=4, note=45, velocity=95, time=0),
    Message('note_on', channel=4, note=45, velocity=95, time=0),
    Message('note_on', channel=4, note=45, velocity=95, time=4),
    Message('note_on', channel=4, note=57, velocity=95, time=4),
    Message('note_on', channel=4, note=61, velocity=95, time=4),
    Message('note_on', channel=4, note=64, velocity=95, time=4),
    Message('note_on', channel=4, note=69, velocity=95, time=4),
    Message('note_off', channel=4, note=45, velocity=95, time=18),
    Message('note_off', channel=4, note=69, velocity=95, time=442),
    Message('note_off', channel=4, note=64, velocity=95, time=0),
    Message('note_off', channel=4, note=61, velocity=95, time=0),
    Message('note_off', channel=4, note=57, velocity=95, time=0),
    Message('note_off', channel=4, note=45, velocity=95, time=0),
    Message('note_on', channel=4, note=45, velocity=95, time=0),
    Message('note_on', channel=4, note=45, velocity=95, time=6),
    Message('note_on', channel=4, note=57, velocity=95, time=6),
    Message('note_on', channel=4, note=62, velocity=95, time=6),
    Message('note_on', channel=4, note=64, velocity=95, time=6),
    Message('note_on', channel=4, note=69, velocity=95, time=6),
    Message('note_off', channel=4, note=45, velocity=95, time=8),
    Message('note_off', channel=4, note=69, velocity=95, time=682),
    Message('note_off', channel=4, note=64, velocity=95, time=0),
    Message('note_off', channel=4, note=62, velocity=95, time=0),
    Message('note_off', channel=4, note=57, velocity=95, time=0),
    Message('note_off', channel=4, note=45, velocity=95, time=0),
    Message('note_on', channel=4, note=69, velocity=95, time=0),
    Message('note_on', channel=4, note=64, velocity=95, time=2),
    Message('note_on', channel=4, note=62, velocity=95, time=2),
    Message('note_on', channel=4, note=57, velocity=95, time=2),
    Message('note_on', channel=4, note=45, velocity=95, time=2),
    Message('note_on', channel=4, note=45, velocity=95, time=2),
    Message('note_off', channel=4, note=45, velocity=95, time=28),
    Message('note_off', channel=4, note=69, velocity=95, time=202),
    Message('note_off', channel=4, note=64, velocity=95, time=0),
    Message('note_off', channel=4, note=62, velocity=95, time=0),
    Message('note_off', channel=4, note=57, velocity=95, time=0),
    Message('note_off', channel=4, note=45, velocity=95, time=0),
    Message('note_on', channel=4, note=45, velocity=95, time=0),
    Message('note_on', channel=4, note=45, velocity=95, time=4),
    Message('note_on', channel=4, note=57, velocity=95, time=4),
    Message('note_on', channel=4, note=62, velocity=95, time=4),
    Message('note_on', channel=4, note=64, velocity=95, time=4),
    Message('note_on', channel=4, note=69, velocity=95, time=4),
    Message('note_off', channel=4, note=45, velocity=95, time=18),
    Message('note_off', channel=4, note=69, velocity=95, time=442),
    Message('note_off', channel=4, note=64, velocity=95, time=0),
    Message('note_off', channel=4, note=62, velocity=95, time=0),
    Message('note_off', channel=4, note=57, velocity=95, time=0),
    Message('note_off', channel=4, note=45, velocity=95, time=0),
    Message('note_on', channel=4, note=69, velocity=95, time=0),
    Message('note_on', channel=4, note=64, velocity=95, time=2),
    Message('note_on', channel=4, note=62, velocity=95, time=2),
    Message('note_on', channel=4, note=57, velocity=95, time=2),
    Message('note_on', channel=4, note=45, velocity=95, time=2),
    Message('note_on', channel=4, note=45, velocity=95, time=2),
    Message('note_off', channel=4, note=45, velocity=95, time=28),
    Message('note_off', channel=4, note=69, velocity=95, time=202),
    Message('note_off', channel=4, note=64, velocity=95, time=0),
    Message('note_off', channel=4, note=62, velocity=95, time=0),
    Message('note_off', channel=4, note=57, velocity=95, time=0),
    Message('note_off', channel=4, note=45, velocity=95, time=0),
    Message('note_on', channel=4, note=45, velocity=95, time=0),
    Message('note_on', channel=4, note=45, velocity=95, time=2),
    Message('note_on', channel=4, note=57, velocity=95, time=2),
    Message('note_on', channel=4, note=62, velocity=95, time=2),
    Message('note_on', channel=4, note=64, velocity=95, time=2),
    Message('note_on', channel=4, note=69, velocity=95, time=2),
    Message('note_off', channel=4, note=45, velocity=95, time=28),
    Message('note_off', channel=4, note=69, velocity=95, time=202),
    Message('note_off', channel=4, note=64, velocity=95, time=0),
    Message('note_off', channel=4, note=62, velocity=95, time=0),
    Message('note_off', channel=4, note=57, velocity=95, time=0),
    Message('note_off', channel=4, note=45, velocity=95, time=0),
    Message('note_on', channel=4, note=69, velocity=95, time=0),
    Message('note_on', channel=4, note=64, velocity=95, time=4),
    Message('note_on', channel=4, note=62, velocity=95, time=4),
    Message('note_on', channel=4, note=57, velocity=95, time=4),
    Message('note_on', channel=4, note=45, velocity=95, time=4),
    Message('note_on', channel=4, note=45, velocity=95, time=4),
    Message('note_off', channel=4, note=45, velocity=95, time=18),
    Message('note_off', channel=4, note=69, velocity=95, time=442),
    Message('note_off', channel=4, note=64, velocity=95, time=0),
    Message('note_off', channel=4, note=62, velocity=95, time=0),
    Message('note_off', channel=4, note=57, velocity=95, time=0),
    Message('note_off', channel=4, note=45, velocity=95, time=0),
    Message('note_on', channel=4, note=45, velocity=95, time=0),
    Message('note_on', channel=4, note=45, velocity=95, time=6),
    Message('note_on', channel=4, note=57, velocity=95, time=6),
    Message('note_on', channel=4, note=61, velocity=95, time=6),
    Message('note_on', channel=4, note=64, velocity=95, time=6),
    Message('note_on', channel=4, note=69, velocity=95, time=6),
    Message('note_off', channel=4, note=45, velocity=95, time=8),
    Message('note_off', channel=4, note=69, velocity=95, time=682),
    Message('note_off', channel=4, note=64, velocity=95, time=0),
    Message('note_off', channel=4, note=61, velocity=95, time=0),
    Message('note_off', channel=4, note=57, velocity=95, time=0),
    Message('note_off', channel=4, note=45, velocity=95, time=0),
    Message('note_on', channel=4, note=69, velocity=95, time=0),
    Message('note_on', channel=4, note=64, velocity=95, time=2),
    Message('note_on', channel=4, note=61, velocity=95, time=2),
    Message('note_on', channel=4, note=57, velocity=95, time=2),
    Message('note_on', channel=4, note=45, velocity=95, time=2),
    Message('note_on', channel=4, note=45, velocity=95, time=2),
    Message('note_off', channel=4, note=45, velocity=95, time=28),
    Message('note_off', channel=4, note=69, velocity=95, time=202),
    Message('note_off', channel=4, note=64, velocity=95, time=0),
    Message('note_off', channel=4, note=61, velocity=95, time=0),
    Message('note_off', channel=4, note=57, velocity=95, time=0),
    Message('note_off', channel=4, note=45, velocity=95, time=0),
    Message('note_on', channel=4, note=45, velocity=95, time=0),
    Message('note_on', channel=4, note=45, velocity=95, time=4),
    Message('note_on', channel=4, note=57, velocity=95, time=4),
    Message('note_on', channel=4, note=61, velocity=95, time=4),
    Message('note_on', channel=4, note=64, velocity=95, time=4),
    Message('note_on', channel=4, note=69, velocity=95, time=4),
    Message('note_off', channel=4, note=45, velocity=95, time=18),
    Message('note_off', channel=4, note=69, velocity=95, time=442),
    Message('note_off', channel=4, note=64, velocity=95, time=0),
    Message('note_off', channel=4, note=61, velocity=95, time=0),
    Message('note_off', channel=4, note=57, velocity=95, time=0),
    Message('note_off', channel=4, note=45, velocity=95, time=0),
    Message('note_on', channel=4, note=45, velocity=95, time=0),
    Message('note_on', channel=4, note=45, velocity=95, time=6),
    Message('note_on', channel=4, note=57, velocity=95, time=6),
    Message('note_on', channel=4, note=62, velocity=95, time=6),
    Message('note_on', channel=4, note=64, velocity=95, time=6),
    Message('note_on', channel=4, note=69, velocity=95, time=6),
    Message('note_off', channel=4, note=45, velocity=95, time=8),
    Message('note_off', channel=4, note=69, velocity=95, time=682),
    Message('note_off', channel=4, note=64, velocity=95, time=0),
    Message('note_off', channel=4, note=62, velocity=95, time=0),
    Message('note_off', channel=4, note=57, velocity=95, time=0),
    Message('note_off', channel=4, note=45, velocity=95, time=0),
    Message('note_on', channel=4, note=69, velocity=95, time=0),
    Message('note_on', channel=4, note=64, velocity=95, time=2),
    Message('note_on', channel=4, note=62, velocity=95, time=2),
    Message('note_on', channel=4, note=57, velocity=95, time=2),
    Message('note_on', channel=4, note=45, velocity=95, time=2),
    Message('note_on', channel=4, note=45, velocity=95, time=2),
    Message('note_off', channel=4, note=45, velocity=95, time=28),
    Message('note_off', channel=4, note=69, velocity=95, time=202),
    Message('note_off', channel=4, note=64, velocity=95, time=0),
    Message('note_off', channel=4, note=62, velocity=95, time=0),
    Message('note_off', channel=4, note=57, velocity=95, time=0),
    Message('note_off', channel=4, note=45, velocity=95, time=0),
    Message('note_on', channel=4, note=45, velocity=95, time=0),
    Message('note_on', channel=4, note=45, velocity=95, time=4),
    Message('note_on', channel=4, note=57, velocity=95, time=4),
    Message('note_on', channel=4, note=62, velocity=95, time=4),
    Message('note_on', channel=4, note=64, velocity=95, time=4),
    Message('note_on', channel=4, note=69, velocity=95, time=4),
    Message('note_off', channel=4, note=45, velocity=95, time=18),
    Message('note_off', channel=4, note=69, velocity=95, time=442),
    Message('note_off', channel=4, note=64, velocity=95, time=0),
    Message('note_off', channel=4, note=62, velocity=95, time=0),
    Message('note_off', channel=4, note=57, velocity=95, time=0),
    Message('note_off', channel=4, note=45, velocity=95, time=0),
    Message('note_on', channel=4, note=69, velocity=95, time=0),
    Message('note_on', channel=4, note=64, velocity=95, time=2),
    Message('note_on', channel=4, note=62, velocity=95, time=2),
    Message('note_on', channel=4, note=57, velocity=95, time=2),
    Message('note_on', channel=4, note=45, velocity=95, time=2),
    Message('note_on', channel=4, note=45, velocity=95, time=2),
    Message('note_off', channel=4, note=45, velocity=95, time=28),
    Message('note_off', channel=4, note=69, velocity=95, time=202),
    Message('note_off', channel=4, note=64, velocity=95, time=0),
    Message('note_off', channel=4, note=62, velocity=95, time=0),
    Message('note_off', channel=4, note=57, velocity=95, time=0),
    Message('note_off', channel=4, note=45, velocity=95, time=0),
    Message('note_on', channel=4, note=45, velocity=95, time=0),
    Message('note_on', channel=4, note=45, velocity=95, time=2),
    Message('note_on', channel=4, note=57, velocity=95, time=2),
    Message('note_on', channel=4, note=62, velocity=95, time=2),
    Message('note_on', channel=4, note=64, velocity=95, time=2),
    Message('note_on', channel=4, note=69, velocity=95, time=2),
    Message('note_off', channel=4, note=45, velocity=95, time=28),
    Message('note_off', channel=4, note=69, velocity=95, time=202),
    Message('note_off', channel=4, note=64, velocity=95, time=0),
    Message('note_off', channel=4, note=62, velocity=95, time=0),
    Message('note_off', channel=4, note=57, velocity=95, time=0),
    Message('note_off', channel=4, note=45, velocity=95, time=0),
    Message('note_on', channel=4, note=69, velocity=95, time=0),
    Message('note_on', channel=4, note=64, velocity=95, time=4),
    Message('note_on', channel=4, note=62, velocity=95, time=4),
    Message('note_on', channel=4, note=57, velocity=95, time=4),
    Message('note_on', channel=4, note=45, velocity=95, time=4),
    Message('note_on', channel=4, note=45, velocity=95, time=4),
    Message('note_off', channel=4, note=45, velocity=95, time=18),
    Message('note_off', channel=4, note=69, velocity=95, time=442),
    Message('note_off', channel=4, note=64, velocity=95, time=0),
    Message('note_off', channel=4, note=62, velocity=95, time=0),
    Message('note_off', channel=4, note=57, velocity=95, time=0),
    Message('note_off', channel=4, note=45, velocity=95, time=0),
    Message('note_on', channel=4, note=45, velocity=95, time=0),
    Message('note_on', channel=4, note=45, velocity=95, time=6),
    Message('note_on', channel=4, note=57, velocity=95, time=6),
    Message('note_on', channel=4, note=61, velocity=95, time=6),
    Message('note_on', channel=4, note=64, velocity=95, time=6),
    Message('note_on', channel=4, note=69, velocity=95, time=6),
    Message('note_off', channel=4, note=45, velocity=95, time=8),
    Message('note_off', channel=4, note=69, velocity=95, time=682),
    Message('note_off', channel=4, note=64, velocity=95, time=0),
    Message('note_off', channel=4, note=61, velocity=95, time=0),
    Message('note_off', channel=4, note=57, velocity=95, time=0),
    Message('note_off', channel=4, note=45, velocity=95, time=0),
    Message('note_on', channel=4, note=69, velocity=95, time=0),
    Message('note_on', channel=4, note=64, velocity=95, time=2),
    Message('note_on', channel=4, note=61, velocity=95, time=2),
    Message('note_on', channel=4, note=57, velocity=95, time=2),
    Message('note_on', channel=4, note=45, velocity=95, time=2),
    Message('note_on', channel=4, note=45, velocity=95, time=2),
    Message('note_off', channel=4, note=45, velocity=95, time=28),
    Message('note_off', channel=4, note=69, velocity=95, time=202),
    Message('note_off', channel=4, note=64, velocity=95, time=0),
    Message('note_off', channel=4, note=61, velocity=95, time=0),
    Message('note_off', channel=4, note=57, velocity=95, time=0),
    Message('note_off', channel=4, note=45, velocity=95, time=0),
    Message('note_on', channel=4, note=45, velocity=95, time=0),
    Message('note_on', channel=4, note=45, velocity=95, time=4),
    Message('note_on', channel=4, note=57, velocity=95, time=4),
    Message('note_on', channel=4, note=61, velocity=95, time=4),
    Message('note_on', channel=4, note=64, velocity=95, time=4),
    Message('note_on', channel=4, note=69, velocity=95, time=4),
    Message('note_off', channel=4, note=45, velocity=95, time=18),
    Message('note_off', channel=4, note=69, velocity=95, time=442),
    Message('note_off', channel=4, note=64, velocity=95, time=0),
    Message('note_off', channel=4, note=61, velocity=95, time=0),
    Message('note_off', channel=4, note=57, velocity=95, time=0),
    Message('note_off', channel=4, note=45, velocity=95, time=0),
    Message('note_on', channel=4, note=45, velocity=95, time=0),
    Message('note_on', channel=4, note=45, velocity=95, time=6),
    Message('note_on', channel=4, note=57, velocity=95, time=6),
    Message('note_on', channel=4, note=62, velocity=95, time=6),
    Message('note_on', channel=4, note=64, velocity=95, time=6),
    Message('note_on', channel=4, note=69, velocity=95, time=6),
    Message('note_off', channel=4, note=45, velocity=95, time=8),
    Message('note_off', channel=4, note=69, velocity=95, time=682),
    Message('note_off', channel=4, note=64, velocity=95, time=0),
    Message('note_off', channel=4, note=62, velocity=95, time=0),
    Message('note_off', channel=4, note=57, velocity=95, time=0),
    Message('note_off', channel=4, note=45, velocity=95, time=0),
    Message('note_on', channel=4, note=69, velocity=95, time=0),
    Message('note_on', channel=4, note=64, velocity=95, time=2),
    Message('note_on', channel=4, note=62, velocity=95, time=2),
    Message('note_on', channel=4, note=57, velocity=95, time=2),
    Message('note_on', channel=4, note=45, velocity=95, time=2),
    Message('note_on', channel=4, note=45, velocity=95, time=2),
    Message('note_off', channel=4, note=45, velocity=95, time=28),
    Message('note_off', channel=4, note=69, velocity=95, time=202),
    Message('note_off', channel=4, note=64, velocity=95, time=0),
    Message('note_off', channel=4, note=62, velocity=95, time=0),
    Message('note_off', channel=4, note=57, velocity=95, time=0),
    Message('note_off', channel=4, note=45, velocity=95, time=0),
    Message('note_on', channel=4, note=45, velocity=95, time=0),
    Message('note_on', channel=4, note=45, velocity=95, time=4),
    Message('note_on', channel=4, note=57, velocity=95, time=4),
    Message('note_on', channel=4, note=62, velocity=95, time=4),
    Message('note_on', channel=4, note=64, velocity=95, time=4),
    Message('note_on', channel=4, note=69, velocity=95, time=4),
    Message('note_off', channel=4, note=45, velocity=95, time=18),
    Message('note_off', channel=4, note=69, velocity=95, time=442),
    Message('note_off', channel=4, note=64, velocity=95, time=0),
    Message('note_off', channel=4, note=62, velocity=95, time=0),
    Message('note_off', channel=4, note=57, velocity=95, time=0),
    Message('note_off', channel=4, note=45, velocity=95, time=0),
    Message('note_on', channel=4, note=69, velocity=95, time=0),
    Message('note_on', channel=4, note=64, velocity=95, time=2),
    Message('note_on', channel=4, note=62, velocity=95, time=2),
    Message('note_on', channel=4, note=57, velocity=95, time=2),
    Message('note_on', channel=4, note=45, velocity=95, time=2),
    Message('note_on', channel=4, note=45, velocity=95, time=2),
    Message('note_off', channel=4, note=45, velocity=95, time=28),
    Message('note_off', channel=4, note=69, velocity=95, time=202),
    Message('note_off', channel=4, note=64, velocity=95, time=0),
    Message('note_off', channel=4, note=62, velocity=95, time=0),
    Message('note_off', channel=4, note=57, velocity=95, time=0),
    Message('note_off', channel=4, note=45, velocity=95, time=0),
    Message('note_on', channel=4, note=45, velocity=95, time=0),
    Message('note_on', channel=4, note=45, velocity=95, time=2),
    Message('note_on', channel=4, note=57, velocity=95, time=2),
    Message('note_on', channel=4, note=62, velocity=95, time=2),
    Message('note_on', channel=4, note=64, velocity=95, time=2),
    Message('note_on', channel=4, note=69, velocity=95, time=2),
    Message('note_off', channel=4, note=45, velocity=95, time=28),
    Message('note_off', channel=4, note=69, velocity=95, time=202),
    Message('note_off', channel=4, note=64, velocity=95, time=0),
    Message('note_off', channel=4, note=62, velocity=95, time=0),
    Message('note_off', channel=4, note=57, velocity=95, time=0),
    Message('note_off', channel=4, note=45, velocity=95, time=0),
    Message('note_on', channel=4, note=69, velocity=95, time=0),
    Message('note_on', channel=4, note=64, velocity=95, time=4),
    Message('note_on', channel=4, note=62, velocity=95, time=4),
    Message('note_on', channel=4, note=57, velocity=95, time=4),
    Message('note_on', channel=4, note=45, velocity=95, time=4),
    Message('note_on', channel=4, note=45, velocity=95, time=4),
    Message('note_off', channel=4, note=45, velocity=95, time=18),
    Message('note_off', channel=4, note=69, velocity=95, time=442),
    Message('note_off', channel=4, note=64, velocity=95, time=0),
    Message('note_off', channel=4, note=62, velocity=95, time=0),
    Message('note_off', channel=4, note=57, velocity=95, time=0),
    Message('note_off', channel=4, note=45, velocity=95, time=0),
    Message('note_on', channel=4, note=41, velocity=95, time=0),
    Message('note_on', channel=4, note=48, velocity=95, time=2),
    Message('note_on', channel=4, note=53, velocity=95, time=2),
    Message('note_on', channel=4, note=57, velocity=95, time=2),
    Message('note_on', channel=4, note=60, velocity=95, time=2),
    Message('note_on', channel=4, note=65, velocity=95, time=2),
    Message('note_off', channel=4, note=65, velocity=95, time=230),
    Message('note_off', channel=4, note=60, velocity=95, time=0),
    Message('note_off', channel=4, note=57, velocity=95, time=0),
    Message('note_off', channel=4, note=53, velocity=95, time=0),
    Message('note_off', channel=4, note=48, velocity=95, time=0),
    Message('note_off', channel=4, note=41, velocity=95, time=0),
    Message('note_on', channel=4, note=65, velocity=95, time=0),
    Message('note_on', channel=4, note=60, velocity=95, time=2),
    Message('note_on', channel=4, note=57, velocity=95, time=2),
    Message('note_on', channel=4, note=53, velocity=95, time=2),
    Message('note_on', channel=4, note=48, velocity=95, time=2),
    Message('note_on', channel=4, note=41, velocity=95, time=2),
    Message('note_off', channel=4, note=65, velocity=95, time=230),
    Message('note_off', channel=4, note=60, velocity=95, time=0),
    Message('note_off', channel=4, note=57, velocity=95, time=0),
    Message('note_off', channel=4, note=53, velocity=95, time=0),
    Message('note_off', channel=4, note=48, velocity=95, time=0),
    Message('note_off', channel=4, note=41, velocity=95, time=0),
    Message('note_on', channel=4, note=41, velocity=95, time=0),
    Message('note_on', channel=4, note=48, velocity=95, time=2),
    Message('note_on', channel=4, note=53, velocity=95, time=2),
    Message('note_on', channel=4, note=57, velocity=95, time=2),
    Message('note_on', channel=4, note=60, velocity=95, time=2),
    Message('note_on', channel=4, note=65, velocity=95, time=2),
    Message('note_off', channel=4, note=65, velocity=95, time=230),
    Message('note_off', channel=4, note=60, velocity=95, time=0),
    Message('note_off', channel=4, note=57, velocity=95, time=0),
    Message('note_off', channel=4, note=53, velocity=95, time=0),
    Message('note_off', channel=4, note=48, velocity=95, time=0),
    Message('note_off', channel=4, note=41, velocity=95, time=0),
    Message('note_on', channel=4, note=65, velocity=95, time=0),
    Message('note_on', channel=4, note=60, velocity=95, time=2),
    Message('note_on', channel=4, note=57, velocity=95, time=2),
    Message('note_on', channel=4, note=53, velocity=95, time=2),
    Message('note_on', channel=4, note=48, velocity=95, time=2),
    Message('note_on', channel=4, note=41, velocity=95, time=2),
    Message('note_off', channel=4, note=65, velocity=95, time=230),
    Message('note_off', channel=4, note=60, velocity=95, time=0),
    Message('note_off', channel=4, note=57, velocity=95, time=0),
    Message('note_off', channel=4, note=53, velocity=95, time=0),
    Message('note_off', channel=4, note=48, velocity=95, time=0),
    Message('note_off', channel=4, note=41, velocity=95, time=0),
    Message('note_on', channel=4, note=64, velocity=95, time=240),
    Message('note_on', channel=4, note=60, velocity=95, time=2),
    Message('note_on', channel=4, note=55, velocity=95, time=2),
    Message('note_on', channel=4, note=52, velocity=95, time=2),
    Message('note_on', channel=4, note=48, velocity=95, time=2),
    Message('note_off', channel=4, note=64, velocity=95, time=232),
    Message('note_off', channel=4, note=60, velocity=95, time=0),
    Message('note_off', channel=4, note=55, velocity=95, time=0),
    Message('note_off', channel=4, note=52, velocity=95, time=0),
    Message('note_off', channel=4, note=48, velocity=95, time=0),
    Message('note_on', channel=4, note=48, velocity=95, time=0),
    Message('note_on', channel=4, note=52, velocity=95, time=4),
    Message('note_on', channel=4, note=55, velocity=95, time=4),
    Message('note_on', channel=4, note=60, velocity=95, time=4),
    Message('note_on', channel=4, note=64, velocity=95, time=4),
    Message('note_off', channel=4, note=64, velocity=95, time=1424),
    Message('note_off', channel=4, note=60, velocity=95, time=0),
    Message('note_off', channel=4, note=55, velocity=95, time=0),
    Message('note_off', channel=4, note=52, velocity=95, time=0),
    Message('note_off', channel=4, note=48, velocity=95, time=0),
    Message('note_on', channel=4, note=64, velocity=95, time=0),
    Message('note_on', channel=4, note=60, velocity=95, time=2),
    Message('note_on', channel=4, note=55, velocity=95, time=2),
    Message('note_on', channel=4, note=52, velocity=95, time=2),
    Message('note_on', channel=4, note=48, velocity=95, time=2),
    Message('note_off', channel=4, note=64, velocity=95, time=232),
    Message('note_off', channel=4, note=60, velocity=95, time=0),
    Message('note_off', channel=4, note=55, velocity=95, time=0),
    Message('note_off', channel=4, note=52, velocity=95, time=0),
    Message('note_off', channel=4, note=48, velocity=95, time=0),
    Message('note_on', channel=4, note=48, velocity=95, time=0),
    Message('note_on', channel=4, note=52, velocity=95, time=2),
    Message('note_on', channel=4, note=55, velocity=95, time=2),
    Message('note_on', channel=4, note=60, velocity=95, time=2),
    Message('note_on', channel=4, note=64, velocity=95, time=2),
    Message('note_off', channel=4, note=64, velocity=95, time=232),
    Message('note_off', channel=4, note=60, velocity=95, time=0),
    Message('note_off', channel=4, note=55, velocity=95, time=0),
    Message('note_off', channel=4, note=52, velocity=95, time=0),
    Message('note_off', channel=4, note=48, velocity=95, time=0),
    Message('note_on', channel=4, note=64, velocity=95, time=0),
    Message('note_on', channel=4, note=62, velocity=95, time=6),
    Message('note_on', channel=4, note=55, velocity=95, time=6),
    Message('note_on', channel=4, note=52, velocity=95, time=6),
    Message('note_on', channel=4, note=48, velocity=95, time=6),
    Message('note_off', channel=4, note=64, velocity=95, time=696),
    Message('note_off', channel=4, note=62, velocity=95, time=0),
    Message('note_off', channel=4, note=55, velocity=95, time=0),
    Message('note_off', channel=4, note=52, velocity=95, time=0),
    Message('note_off', channel=4, note=48, velocity=95, time=0),
    Message('note_on', channel=4, note=64, velocity=95, time=0),
    Message('note_on', channel=4, note=60, velocity=95, time=8),
    Message('note_on', channel=4, note=55, velocity=95, time=8),
    Message('note_on', channel=4, note=52, velocity=95, time=8),
    Message('note_on', channel=4, note=48, velocity=95, time=8),
    Message('note_off', channel=4, note=64, velocity=95, time=1408),
    Message('note_off', channel=4, note=60, velocity=95, time=0),
    Message('note_off', channel=4, note=55, velocity=95, time=0),
    Message('note_off', channel=4, note=52, velocity=95, time=0),
    Message('note_off', channel=4, note=48, velocity=95, time=0),
    Message('note_on', channel=4, note=45, velocity=95, time=240),
    Message('note_on', channel=4, note=45, velocity=95, time=6),
    Message('note_on', channel=4, note=57, velocity=95, time=6),
    Message('note_on', channel=4, note=61, velocity=95, time=6),
    Message('note_on', channel=4, note=64, velocity=95, time=6),
    Message('note_on', channel=4, note=69, velocity=95, time=6),
    Message('note_off', channel=4, note=45, velocity=95, time=8),
    Message('note_off', channel=4, note=69, velocity=95, time=682),
    Message('note_off', channel=4, note=64, velocity=95, time=0),
    Message('note_off', channel=4, note=61, velocity=95, time=0),
    Message('note_off', channel=4, note=57, velocity=95, time=0),
    Message('note_off', channel=4, note=45, velocity=95, time=0),
    Message('note_on', channel=4, note=69, velocity=95, time=0),
    Message('note_on', channel=4, note=64, velocity=95, time=2),
    Message('note_on', channel=4, note=61, velocity=95, time=2),
    Message('note_on', channel=4, note=57, velocity=95, time=2),
    Message('note_on', channel=4, note=45, velocity=95, time=2),
    Message('note_on', channel=4, note=45, velocity=95, time=2),
    Message('note_off', channel=4, note=45, velocity=95, time=28),
    Message('note_off', channel=4, note=69, velocity=95, time=202),
    Message('note_off', channel=4, note=64, velocity=95, time=0),
    Message('note_off', channel=4, note=61, velocity=95, time=0),
    Message('note_off', channel=4, note=57, velocity=95, time=0),
    Message('note_off', channel=4, note=45, velocity=95, time=0),
    Message('note_on', channel=4, note=45, velocity=95, time=0),
    Message('note_on', channel=4, note=45, velocity=95, time=4),
    Message('note_on', channel=4, note=57, velocity=95, time=4),
    Message('note_on', channel=4, note=61, velocity=95, time=4),
    Message('note_on', channel=4, note=64, velocity=95, time=4),
    Message('note_on', channel=4, note=69, velocity=95, time=4),
    Message('note_off', channel=4, note=45, velocity=95, time=18),
    Message('note_off', channel=4, note=69, velocity=95, time=442),
    Message('note_off', channel=4, note=64, velocity=95, time=0),
    Message('note_off', channel=4, note=61, velocity=95, time=0),
    Message('note_off', channel=4, note=57, velocity=95, time=0),
    Message('note_off', channel=4, note=45, velocity=95, time=0),
    Message('note_on', channel=4, note=45, velocity=95, time=0),
    Message('note_on', channel=4, note=45, velocity=95, time=6),
    Message('note_on', channel=4, note=57, velocity=95, time=6),
    Message('note_on', channel=4, note=62, velocity=95, time=6),
    Message('note_on', channel=4, note=64, velocity=95, time=6),
    Message('note_on', channel=4, note=69, velocity=95, time=6),
    Message('note_off', channel=4, note=45, velocity=95, time=8),
    Message('note_off', channel=4, note=69, velocity=95, time=682),
    Message('note_off', channel=4, note=64, velocity=95, time=0),
    Message('note_off', channel=4, note=62, velocity=95, time=0),
    Message('note_off', channel=4, note=57, velocity=95, time=0),
    Message('note_off', channel=4, note=45, velocity=95, time=0),
    Message('note_on', channel=4, note=69, velocity=95, time=0),
    Message('note_on', channel=4, note=64, velocity=95, time=2),
    Message('note_on', channel=4, note=62, velocity=95, time=2),
    Message('note_on', channel=4, note=57, velocity=95, time=2),
    Message('note_on', channel=4, note=45, velocity=95, time=2),
    Message('note_on', channel=4, note=45, velocity=95, time=2),
    Message('note_off', channel=4, note=45, velocity=95, time=28),
    Message('note_off', channel=4, note=69, velocity=95, time=202),
    Message('note_off', channel=4, note=64, velocity=95, time=0),
    Message('note_off', channel=4, note=62, velocity=95, time=0),
    Message('note_off', channel=4, note=57, velocity=95, time=0),
    Message('note_off', channel=4, note=45, velocity=95, time=0),
    Message('note_on', channel=4, note=45, velocity=95, time=0),
    Message('note_on', channel=4, note=45, velocity=95, time=4),
    Message('note_on', channel=4, note=57, velocity=95, time=4),
    Message('note_on', channel=4, note=62, velocity=95, time=4),
    Message('note_on', channel=4, note=64, velocity=95, time=4),
    Message('note_on', channel=4, note=69, velocity=95, time=4),
    Message('note_off', channel=4, note=45, velocity=95, time=18),
    Message('note_off', channel=4, note=69, velocity=95, time=442),
    Message('note_off', channel=4, note=64, velocity=95, time=0),
    Message('note_off', channel=4, note=62, velocity=95, time=0),
    Message('note_off', channel=4, note=57, velocity=95, time=0),
    Message('note_off', channel=4, note=45, velocity=95, time=0),
    Message('note_on', channel=4, note=69, velocity=95, time=0),
    Message('note_on', channel=4, note=64, velocity=95, time=2),
    Message('note_on', channel=4, note=62, velocity=95, time=2),
    Message('note_on', channel=4, note=57, velocity=95, time=2),
    Message('note_on', channel=4, note=45, velocity=95, time=2),
    Message('note_on', channel=4, note=45, velocity=95, time=2),
    Message('note_off', channel=4, note=45, velocity=95, time=28),
    Message('note_off', channel=4, note=69, velocity=95, time=202),
    Message('note_off', channel=4, note=64, velocity=95, time=0),
    Message('note_off', channel=4, note=62, velocity=95, time=0),
    Message('note_off', channel=4, note=57, velocity=95, time=0),
    Message('note_off', channel=4, note=45, velocity=95, time=0),
    Message('note_on', channel=4, note=45, velocity=95, time=0),
    Message('note_on', channel=4, note=45, velocity=95, time=2),
    Message('note_on', channel=4, note=57, velocity=95, time=2),
    Message('note_on', channel=4, note=62, velocity=95, time=2),
    Message('note_on', channel=4, note=64, velocity=95, time=2),
    Message('note_on', channel=4, note=69, velocity=95, time=2),
    Message('note_off', channel=4, note=45, velocity=95, time=28),
    Message('note_off', channel=4, note=69, velocity=95, time=202),
    Message('note_off', channel=4, note=64, velocity=95, time=0),
    Message('note_off', channel=4, note=62, velocity=95, time=0),
    Message('note_off', channel=4, note=57, velocity=95, time=0),
    Message('note_off', channel=4, note=45, velocity=95, time=0),
    Message('note_on', channel=4, note=69, velocity=95, time=0),
    Message('note_on', channel=4, note=64, velocity=95, time=4),
    Message('note_on', channel=4, note=62, velocity=95, time=4),
    Message('note_on', channel=4, note=57, velocity=95, time=4),
    Message('note_on', channel=4, note=45, velocity=95, time=4),
    Message('note_on', channel=4, note=45, velocity=95, time=4),
    Message('note_off', channel=4, note=45, velocity=95, time=18),
    Message('note_off', channel=4, note=69, velocity=95, time=442),
    Message('note_off', channel=4, note=64, velocity=95, time=0),
    Message('note_off', channel=4, note=62, velocity=95, time=0),
    Message('note_off', channel=4, note=57, velocity=95, time=0),
    Message('note_off', channel=4, note=45, velocity=95, time=0),
    Message('note_on', channel=4, note=45, velocity=95, time=0),
    Message('note_on', channel=4, note=45, velocity=95, time=6),
    Message('note_on', channel=4, note=57, velocity=95, time=6),
    Message('note_on', channel=4, note=61, velocity=95, time=6),
    Message('note_on', channel=4, note=64, velocity=95, time=6),
    Message('note_on', channel=4, note=69, velocity=95, time=6),
    Message('note_off', channel=4, note=45, velocity=95, time=8),
    Message('note_off', channel=4, note=69, velocity=95, time=682),
    Message('note_off', channel=4, note=64, velocity=95, time=0),
    Message('note_off', channel=4, note=61, velocity=95, time=0),
    Message('note_off', channel=4, note=57, velocity=95, time=0),
    Message('note_off', channel=4, note=45, velocity=95, time=0),
    Message('note_on', channel=4, note=69, velocity=95, time=0),
    Message('note_on', channel=4, note=64, velocity=95, time=2),
    Message('note_on', channel=4, note=61, velocity=95, time=2),
    Message('note_on', channel=4, note=57, velocity=95, time=2),
    Message('note_on', channel=4, note=45, velocity=95, time=2),
    Message('note_on', channel=4, note=45, velocity=95, time=2),
    Message('note_off', channel=4, note=45, velocity=95, time=28),
    Message('note_off', channel=4, note=69, velocity=95, time=202),
    Message('note_off', channel=4, note=64, velocity=95, time=0),
    Message('note_off', channel=4, note=61, velocity=95, time=0),
    Message('note_off', channel=4, note=57, velocity=95, time=0),
    Message('note_off', channel=4, note=45, velocity=95, time=0),
    Message('note_on', channel=4, note=45, velocity=95, time=0),
    Message('note_on', channel=4, note=45, velocity=95, time=4),
    Message('note_on', channel=4, note=57, velocity=95, time=4),
    Message('note_on', channel=4, note=61, velocity=95, time=4),
    Message('note_on', channel=4, note=64, velocity=95, time=4),
    Message('note_on', channel=4, note=69, velocity=95, time=4),
    Message('note_off', channel=4, note=45, velocity=95, time=18),
    Message('note_off', channel=4, note=69, velocity=95, time=442),
    Message('note_off', channel=4, note=64, velocity=95, time=0),
    Message('note_off', channel=4, note=61, velocity=95, time=0),
    Message('note_off', channel=4, note=57, velocity=95, time=0),
    Message('note_off', channel=4, note=45, velocity=95, time=0),
    Message('note_on', channel=4, note=45, velocity=95, time=0),
    Message('note_on', channel=4, note=45, velocity=95, time=6),
    Message('note_on', channel=4, note=57, velocity=95, time=6),
    Message('note_on', channel=4, note=62, velocity=95, time=6),
    Message('note_on', channel=4, note=64, velocity=95, time=6),
    Message('note_on', channel=4, note=69, velocity=95, time=6),
    Message('note_off', channel=4, note=45, velocity=95, time=8),
    Message('note_off', channel=4, note=69, velocity=95, time=682),
    Message('note_off', channel=4, note=64, velocity=95, time=0),
    Message('note_off', channel=4, note=62, velocity=95, time=0),
    Message('note_off', channel=4, note=57, velocity=95, time=0),
    Message('note_off', channel=4, note=45, velocity=95, time=0),
    Message('note_on', channel=4, note=69, velocity=95, time=0),
    Message('note_on', channel=4, note=64, velocity=95, time=2),
    Message('note_on', channel=4, note=62, velocity=95, time=2),
    Message('note_on', channel=4, note=57, velocity=95, time=2),
    Message('note_on', channel=4, note=45, velocity=95, time=2),
    Message('note_on', channel=4, note=45, velocity=95, time=2),
    Message('note_off', channel=4, note=45, velocity=95, time=28),
    Message('note_off', channel=4, note=69, velocity=95, time=202),
    Message('note_off', channel=4, note=64, velocity=95, time=0),
    Message('note_off', channel=4, note=62, velocity=95, time=0),
    Message('note_off', channel=4, note=57, velocity=95, time=0),
    Message('note_off', channel=4, note=45, velocity=95, time=0),
    Message('note_on', channel=4, note=45, velocity=95, time=0),
    Message('note_on', channel=4, note=45, velocity=95, time=4),
    Message('note_on', channel=4, note=57, velocity=95, time=4),
    Message('note_on', channel=4, note=62, velocity=95, time=4),
    Message('note_on', channel=4, note=64, velocity=95, time=4),
    Message('note_on', channel=4, note=69, velocity=95, time=4),
    Message('note_off', channel=4, note=45, velocity=95, time=18),
    Message('note_off', channel=4, note=69, velocity=95, time=442),
    Message('note_off', channel=4, note=64, velocity=95, time=0),
    Message('note_off', channel=4, note=62, velocity=95, time=0),
    Message('note_off', channel=4, note=57, velocity=95, time=0),
    Message('note_off', channel=4, note=45, velocity=95, time=0),
    Message('note_on', channel=4, note=69, velocity=95, time=0),
    Message('note_on', channel=4, note=64, velocity=95, time=2),
    Message('note_on', channel=4, note=62, velocity=95, time=2),
    Message('note_on', channel=4, note=57, velocity=95, time=2),
    Message('note_on', channel=4, note=45, velocity=95, time=2),
    Message('note_on', channel=4, note=45, velocity=95, time=2),
    Message('note_off', channel=4, note=45, velocity=95, time=28),
    Message('note_off', channel=4, note=69, velocity=95, time=202),
    Message('note_off', channel=4, note=64, velocity=95, time=0),
    Message('note_off', channel=4, note=62, velocity=95, time=0),
    Message('note_off', channel=4, note=57, velocity=95, time=0),
    Message('note_off', channel=4, note=45, velocity=95, time=0),
    Message('note_on', channel=4, note=45, velocity=95, time=0),
    Message('note_on', channel=4, note=45, velocity=95, time=2),
    Message('note_on', channel=4, note=57, velocity=95, time=2),
    Message('note_on', channel=4, note=62, velocity=95, time=2),
    Message('note_on', channel=4, note=64, velocity=95, time=2),
    Message('note_on', channel=4, note=69, velocity=95, time=2),
    Message('note_off', channel=4, note=45, velocity=95, time=28),
    Message('note_off', channel=4, note=69, velocity=95, time=202),
    Message('note_off', channel=4, note=64, velocity=95, time=0),
    Message('note_off', channel=4, note=62, velocity=95, time=0),
    Message('note_off', channel=4, note=57, velocity=95, time=0),
    Message('note_off', channel=4, note=45, velocity=95, time=0),
    Message('note_on', channel=4, note=69, velocity=95, time=0),
    Message('note_on', channel=4, note=64, velocity=95, time=4),
    Message('note_on', channel=4, note=62, velocity=95, time=4),
    Message('note_on', channel=4, note=57, velocity=95, time=4),
    Message('note_on', channel=4, note=45, velocity=95, time=4),
    Message('note_on', channel=4, note=45, velocity=95, time=4),
    Message('note_off', channel=4, note=45, velocity=95, time=18),
    Message('note_off', channel=4, note=69, velocity=95, time=442),
    Message('note_off', channel=4, note=64, velocity=95, time=0),
    Message('note_off', channel=4, note=62, velocity=95, time=0),
    Message('note_off', channel=4, note=57, velocity=95, time=0),
    Message('note_off', channel=4, note=45, velocity=95, time=0),
    Message('note_on', channel=4, note=45, velocity=95, time=0),
    Message('note_on', channel=4, note=45, velocity=95, time=6),
    Message('note_on', channel=4, note=57, velocity=95, time=6),
    Message('note_on', channel=4, note=61, velocity=95, time=6),
    Message('note_on', channel=4, note=64, velocity=95, time=6),
    Message('note_on', channel=4, note=69, velocity=95, time=6),
    Message('note_off', channel=4, note=45, velocity=95, time=8),
    Message('note_off', channel=4, note=69, velocity=95, time=682),
    Message('note_off', channel=4, note=64, velocity=95, time=0),
    Message('note_off', channel=4, note=61, velocity=95, time=0),
    Message('note_off', channel=4, note=57, velocity=95, time=0),
    Message('note_off', channel=4, note=45, velocity=95, time=0),
    Message('note_on', channel=4, note=69, velocity=95, time=0),
    Message('note_on', channel=4, note=64, velocity=95, time=2),
    Message('note_on', channel=4, note=61, velocity=95, time=2),
    Message('note_on', channel=4, note=57, velocity=95, time=2),
    Message('note_on', channel=4, note=45, velocity=95, time=2),
    Message('note_on', channel=4, note=45, velocity=95, time=2),
    Message('note_off', channel=4, note=45, velocity=95, time=28),
    Message('note_off', channel=4, note=69, velocity=95, time=202),
    Message('note_off', channel=4, note=64, velocity=95, time=0),
    Message('note_off', channel=4, note=61, velocity=95, time=0),
    Message('note_off', channel=4, note=57, velocity=95, time=0),
    Message('note_off', channel=4, note=45, velocity=95, time=0),
    Message('note_on', channel=4, note=45, velocity=95, time=0),
    Message('note_on', channel=4, note=45, velocity=95, time=4),
    Message('note_on', channel=4, note=57, velocity=95, time=4),
    Message('note_on', channel=4, note=61, velocity=95, time=4),
    Message('note_on', channel=4, note=64, velocity=95, time=4),
    Message('note_on', channel=4, note=69, velocity=95, time=4),
    Message('note_off', channel=4, note=45, velocity=95, time=18),
    Message('note_off', channel=4, note=69, velocity=95, time=442),
    Message('note_off', channel=4, note=64, velocity=95, time=0),
    Message('note_off', channel=4, note=61, velocity=95, time=0),
    Message('note_off', channel=4, note=57, velocity=95, time=0),
    Message('note_off', channel=4, note=45, velocity=95, time=0),
    Message('note_on', channel=4, note=45, velocity=95, time=0),
    Message('note_on', channel=4, note=45, velocity=95, time=6),
    Message('note_on', channel=4, note=57, velocity=95, time=6),
    Message('note_on', channel=4, note=62, velocity=95, time=6),
    Message('note_on', channel=4, note=64, velocity=95, time=6),
    Message('note_on', channel=4, note=69, velocity=95, time=6),
    Message('note_off', channel=4, note=45, velocity=95, time=8),
    Message('note_off', channel=4, note=69, velocity=95, time=682),
    Message('note_off', channel=4, note=64, velocity=95, time=0),
    Message('note_off', channel=4, note=62, velocity=95, time=0),
    Message('note_off', channel=4, note=57, velocity=95, time=0),
    Message('note_off', channel=4, note=45, velocity=95, time=0),
    Message('note_on', channel=4, note=69, velocity=95, time=0),
    Message('note_on', channel=4, note=64, velocity=95, time=2),
    Message('note_on', channel=4, note=62, velocity=95, time=2),
    Message('note_on', channel=4, note=57, velocity=95, time=2),
    Message('note_on', channel=4, note=45, velocity=95, time=2),
    Message('note_on', channel=4, note=45, velocity=95, time=2),
    Message('note_off', channel=4, note=45, velocity=95, time=28),
    Message('note_off', channel=4, note=69, velocity=95, time=202),
    Message('note_off', channel=4, note=64, velocity=95, time=0),
    Message('note_off', channel=4, note=62, velocity=95, time=0),
    Message('note_off', channel=4, note=57, velocity=95, time=0),
    Message('note_off', channel=4, note=45, velocity=95, time=0),
    Message('note_on', channel=4, note=45, velocity=95, time=0),
    Message('note_on', channel=4, note=45, velocity=95, time=4),
    Message('note_on', channel=4, note=57, velocity=95, time=4),
    Message('note_on', channel=4, note=62, velocity=95, time=4),
    Message('note_on', channel=4, note=64, velocity=95, time=4),
    Message('note_on', channel=4, note=69, velocity=95, time=4),
    Message('note_off', channel=4, note=45, velocity=95, time=18),
    Message('note_off', channel=4, note=69, velocity=95, time=442),
    Message('note_off', channel=4, note=64, velocity=95, time=0),
    Message('note_off', channel=4, note=62, velocity=95, time=0),
    Message('note_off', channel=4, note=57, velocity=95, time=0),
    Message('note_off', channel=4, note=45, velocity=95, time=0),
    Message('note_on', channel=4, note=69, velocity=95, time=0),
    Message('note_on', channel=4, note=64, velocity=95, time=2),
    Message('note_on', channel=4, note=62, velocity=95, time=2),
    Message('note_on', channel=4, note=57, velocity=95, time=2),
    Message('note_on', channel=4, note=45, velocity=95, time=2),
    Message('note_on', channel=4, note=45, velocity=95, time=2),
    Message('note_off', channel=4, note=45, velocity=95, time=28),
    Message('note_off', channel=4, note=69, velocity=95, time=202),
    Message('note_off', channel=4, note=64, velocity=95, time=0),
    Message('note_off', channel=4, note=62, velocity=95, time=0),
    Message('note_off', channel=4, note=57, velocity=95, time=0),
    Message('note_off', channel=4, note=45, velocity=95, time=0),
    Message('note_on', channel=4, note=45, velocity=95, time=0),
    Message('note_on', channel=4, note=45, velocity=95, time=2),
    Message('note_on', channel=4, note=57, velocity=95, time=2),
    Message('note_on', channel=4, note=62, velocity=95, time=2),
    Message('note_on', channel=4, note=64, velocity=95, time=2),
    Message('note_on', channel=4, note=69, velocity=95, time=2),
    Message('note_off', channel=4, note=45, velocity=95, time=28),
    Message('note_off', channel=4, note=69, velocity=95, time=202),
    Message('note_off', channel=4, note=64, velocity=95, time=0),
    Message('note_off', channel=4, note=62, velocity=95, time=0),
    Message('note_off', channel=4, note=57, velocity=95, time=0),
    Message('note_off', channel=4, note=45, velocity=95, time=0),
    Message('note_on', channel=4, note=69, velocity=95, time=0),
    Message('note_on', channel=4, note=64, velocity=95, time=4),
    Message('note_on', channel=4, note=62, velocity=95, time=4),
    Message('note_on', channel=4, note=57, velocity=95, time=4),
    Message('note_on', channel=4, note=45, velocity=95, time=4),
    Message('note_on', channel=4, note=45, velocity=95, time=4),
    Message('note_off', channel=4, note=45, velocity=95, time=18),
    Message('note_off', channel=4, note=69, velocity=95, time=442),
    Message('note_off', channel=4, note=64, velocity=95, time=0),
    Message('note_off', channel=4, note=62, velocity=95, time=0),
    Message('note_off', channel=4, note=57, velocity=95, time=0),
    Message('note_off', channel=4, note=45, velocity=95, time=0),
    Message('note_on', channel=4, note=45, velocity=95, time=0),
    Message('note_on', channel=4, note=45, velocity=95, time=6),
    Message('note_on', channel=4, note=57, velocity=95, time=6),
    Message('note_on', channel=4, note=61, velocity=95, time=6),
    Message('note_on', channel=4, note=64, velocity=95, time=6),
    Message('note_on', channel=4, note=69, velocity=95, time=6),
    Message('note_off', channel=4, note=45, velocity=95, time=8),
    Message('note_off', channel=4, note=69, velocity=95, time=682),
    Message('note_off', channel=4, note=64, velocity=95, time=0),
    Message('note_off', channel=4, note=61, velocity=95, time=0),
    Message('note_off', channel=4, note=57, velocity=95, time=0),
    Message('note_off', channel=4, note=45, velocity=95, time=0),
    Message('note_on', channel=4, note=69, velocity=95, time=0),
    Message('note_on', channel=4, note=64, velocity=95, time=2),
    Message('note_on', channel=4, note=61, velocity=95, time=2),
    Message('note_on', channel=4, note=57, velocity=95, time=2),
    Message('note_on', channel=4, note=45, velocity=95, time=2),
    Message('note_on', channel=4, note=45, velocity=95, time=2),
    Message('note_off', channel=4, note=45, velocity=95, time=28),
    Message('note_off', channel=4, note=69, velocity=95, time=202),
    Message('note_off', channel=4, note=64, velocity=95, time=0),
    Message('note_off', channel=4, note=61, velocity=95, time=0),
    Message('note_off', channel=4, note=57, velocity=95, time=0),
    Message('note_off', channel=4, note=45, velocity=95, time=0),
    Message('note_on', channel=4, note=45, velocity=95, time=0),
    Message('note_on', channel=4, note=45, velocity=95, time=4),
    Message('note_on', channel=4, note=57, velocity=95, time=4),
    Message('note_on', channel=4, note=61, velocity=95, time=4),
    Message('note_on', channel=4, note=64, velocity=95, time=4),
    Message('note_on', channel=4, note=69, velocity=95, time=4),
    Message('note_off', channel=4, note=45, velocity=95, time=18),
    Message('note_off', channel=4, note=69, velocity=95, time=442),
    Message('note_off', channel=4, note=64, velocity=95, time=0),
    Message('note_off', channel=4, note=61, velocity=95, time=0),
    Message('note_off', channel=4, note=57, velocity=95, time=0),
    Message('note_off', channel=4, note=45, velocity=95, time=0),
    Message('note_on', channel=4, note=45, velocity=95, time=0),
    Message('note_on', channel=4, note=45, velocity=95, time=6),
    Message('note_on', channel=4, note=57, velocity=95, time=6),
    Message('note_on', channel=4, note=62, velocity=95, time=6),
    Message('note_on', channel=4, note=64, velocity=95, time=6),
    Message('note_on', channel=4, note=69, velocity=95, time=6),
    Message('note_off', channel=4, note=45, velocity=95, time=8),
    Message('note_off', channel=4, note=69, velocity=95, time=682),
    Message('note_off', channel=4, note=64, velocity=95, time=0),
    Message('note_off', channel=4, note=62, velocity=95, time=0),
    Message('note_off', channel=4, note=57, velocity=95, time=0),
    Message('note_off', channel=4, note=45, velocity=95, time=0),
    Message('note_on', channel=4, note=69, velocity=95, time=0),
    Message('note_on', channel=4, note=64, velocity=95, time=2),
    Message('note_on', channel=4, note=62, velocity=95, time=2),
    Message('note_on', channel=4, note=57, velocity=95, time=2),
    Message('note_on', channel=4, note=45, velocity=95, time=2),
    Message('note_on', channel=4, note=45, velocity=95, time=2),
    Message('note_off', channel=4, note=45, velocity=95, time=28),
    Message('note_off', channel=4, note=69, velocity=95, time=202),
    Message('note_off', channel=4, note=64, velocity=95, time=0),
    Message('note_off', channel=4, note=62, velocity=95, time=0),
    Message('note_off', channel=4, note=57, velocity=95, time=0),
    Message('note_off', channel=4, note=45, velocity=95, time=0),
    Message('note_on', channel=4, note=45, velocity=95, time=0),
    Message('note_on', channel=4, note=45, velocity=95, time=4),
    Message('note_on', channel=4, note=57, velocity=95, time=4),
    Message('note_on', channel=4, note=62, velocity=95, time=4),
    Message('note_on', channel=4, note=64, velocity=95, time=4),
    Message('note_on', channel=4, note=69, velocity=95, time=4),
    Message('note_off', channel=4, note=45, velocity=95, time=18),
    Message('note_off', channel=4, note=69, velocity=95, time=442),
    Message('note_off', channel=4, note=64, velocity=95, time=0),
    Message('note_off', channel=4, note=62, velocity=95, time=0),
    Message('note_off', channel=4, note=57, velocity=95, time=0),
    Message('note_off', channel=4, note=45, velocity=95, time=0),
    Message('note_on', channel=4, note=69, velocity=95, time=0),
    Message('note_on', channel=4, note=64, velocity=95, time=2),
    Message('note_on', channel=4, note=62, velocity=95, time=2),
    Message('note_on', channel=4, note=57, velocity=95, time=2),
    Message('note_on', channel=4, note=45, velocity=95, time=2),
    Message('note_on', channel=4, note=45, velocity=95, time=2),
    Message('note_off', channel=4, note=45, velocity=95, time=28),
    Message('note_off', channel=4, note=69, velocity=95, time=202),
    Message('note_off', channel=4, note=64, velocity=95, time=0),
    Message('note_off', channel=4, note=62, velocity=95, time=0),
    Message('note_off', channel=4, note=57, velocity=95, time=0),
    Message('note_off', channel=4, note=45, velocity=95, time=0),
    Message('note_on', channel=4, note=45, velocity=95, time=0),
    Message('note_on', channel=4, note=45, velocity=95, time=2),
    Message('note_on', channel=4, note=57, velocity=95, time=2),
    Message('note_on', channel=4, note=62, velocity=95, time=2),
    Message('note_on', channel=4, note=64, velocity=95, time=2),
    Message('note_on', channel=4, note=69, velocity=95, time=2),
    Message('note_off', channel=4, note=45, velocity=95, time=28),
    Message('note_off', channel=4, note=69, velocity=95, time=202),
    Message('note_off', channel=4, note=64, velocity=95, time=0),
    Message('note_off', channel=4, note=62, velocity=95, time=0),
    Message('note_off', channel=4, note=57, velocity=95, time=0),
    Message('note_off', channel=4, note=45, velocity=95, time=0),
    Message('note_on', channel=4, note=69, velocity=95, time=0),
    Message('note_on', channel=4, note=64, velocity=95, time=4),
    Message('note_on', channel=4, note=62, velocity=95, time=4),
    Message('note_on', channel=4, note=57, velocity=95, time=4),
    Message('note_on', channel=4, note=45, velocity=95, time=4),
    Message('note_on', channel=4, note=45, velocity=95, time=4),
    Message('note_off', channel=4, note=45, velocity=95, time=18),
    Message('note_off', channel=4, note=69, velocity=95, time=442),
    Message('note_off', channel=4, note=64, velocity=95, time=0),
    Message('note_off', channel=4, note=62, velocity=95, time=0),
    Message('note_off', channel=4, note=57, velocity=95, time=0),
    Message('note_off', channel=4, note=45, velocity=95, time=0),
    Message('note_on', channel=4, note=45, velocity=95, time=0),
    Message('note_on', channel=4, note=45, velocity=95, time=6),
    Message('note_on', channel=4, note=57, velocity=95, time=6),
    Message('note_on', channel=4, note=61, velocity=95, time=6),
    Message('note_on', channel=4, note=64, velocity=95, time=6),
    Message('note_on', channel=4, note=69, velocity=95, time=6),
    Message('note_off', channel=4, note=45, velocity=95, time=8),
    Message('note_off', channel=4, note=69, velocity=95, time=682),
    Message('note_off', channel=4, note=64, velocity=95, time=0),
    Message('note_off', channel=4, note=61, velocity=95, time=0),
    Message('note_off', channel=4, note=57, velocity=95, time=0),
    Message('note_off', channel=4, note=45, velocity=95, time=0),
    Message('note_on', channel=4, note=69, velocity=95, time=0),
    Message('note_on', channel=4, note=64, velocity=95, time=2),
    Message('note_on', channel=4, note=61, velocity=95, time=2),
    Message('note_on', channel=4, note=57, velocity=95, time=2),
    Message('note_on', channel=4, note=45, velocity=95, time=2),
    Message('note_on', channel=4, note=45, velocity=95, time=2),
    Message('note_off', channel=4, note=45, velocity=95, time=28),
    Message('note_off', channel=4, note=69, velocity=95, time=202),
    Message('note_off', channel=4, note=64, velocity=95, time=0),
    Message('note_off', channel=4, note=61, velocity=95, time=0),
    Message('note_off', channel=4, note=57, velocity=95, time=0),
    Message('note_off', channel=4, note=45, velocity=95, time=0),
    Message('note_on', channel=4, note=45, velocity=95, time=0),
    Message('note_on', channel=4, note=45, velocity=95, time=4),
    Message('note_on', channel=4, note=57, velocity=95, time=4),
    Message('note_on', channel=4, note=61, velocity=95, time=4),
    Message('note_on', channel=4, note=64, velocity=95, time=4),
    Message('note_on', channel=4, note=69, velocity=95, time=4),
    Message('note_off', channel=4, note=45, velocity=95, time=18),
    Message('note_off', channel=4, note=69, velocity=95, time=442),
    Message('note_off', channel=4, note=64, velocity=95, time=0),
    Message('note_off', channel=4, note=61, velocity=95, time=0),
    Message('note_off', channel=4, note=57, velocity=95, time=0),
    Message('note_off', channel=4, note=45, velocity=95, time=0),
    Message('note_on', channel=4, note=45, velocity=95, time=0),
    Message('note_on', channel=4, note=45, velocity=95, time=6),
    Message('note_on', channel=4, note=57, velocity=95, time=6),
    Message('note_on', channel=4, note=62, velocity=95, time=6),
    Message('note_on', channel=4, note=64, velocity=95, time=6),
    Message('note_on', channel=4, note=69, velocity=95, time=6),
    Message('note_off', channel=4, note=45, velocity=95, time=8),
    Message('note_off', channel=4, note=69, velocity=95, time=682),
    Message('note_off', channel=4, note=64, velocity=95, time=0),
    Message('note_off', channel=4, note=62, velocity=95, time=0),
    Message('note_off', channel=4, note=57, velocity=95, time=0),
    Message('note_off', channel=4, note=45, velocity=95, time=0),
    Message('note_on', channel=4, note=69, velocity=95, time=0),
    Message('note_on', channel=4, note=64, velocity=95, time=2),
    Message('note_on', channel=4, note=62, velocity=95, time=2),
    Message('note_on', channel=4, note=57, velocity=95, time=2),
    Message('note_on', channel=4, note=45, velocity=95, time=2),
    Message('note_on', channel=4, note=45, velocity=95, time=2),
    Message('note_off', channel=4, note=45, velocity=95, time=28),
    Message('note_off', channel=4, note=69, velocity=95, time=202),
    Message('note_off', channel=4, note=64, velocity=95, time=0),
    Message('note_off', channel=4, note=62, velocity=95, time=0),
    Message('note_off', channel=4, note=57, velocity=95, time=0),
    Message('note_off', channel=4, note=45, velocity=95, time=0),
    Message('note_on', channel=4, note=45, velocity=95, time=0),
    Message('note_on', channel=4, note=45, velocity=95, time=4),
    Message('note_on', channel=4, note=57, velocity=95, time=4),
    Message('note_on', channel=4, note=62, velocity=95, time=4),
    Message('note_on', channel=4, note=64, velocity=95, time=4),
    Message('note_on', channel=4, note=69, velocity=95, time=4),
    Message('note_off', channel=4, note=45, velocity=95, time=18),
    Message('note_off', channel=4, note=69, velocity=95, time=442),
    Message('note_off', channel=4, note=64, velocity=95, time=0),
    Message('note_off', channel=4, note=62, velocity=95, time=0),
    Message('note_off', channel=4, note=57, velocity=95, time=0),
    Message('note_off', channel=4, note=45, velocity=95, time=0),
    Message('note_on', channel=4, note=69, velocity=95, time=0),
    Message('note_on', channel=4, note=64, velocity=95, time=2),
    Message('note_on', channel=4, note=62, velocity=95, time=2),
    Message('note_on', channel=4, note=57, velocity=95, time=2),
    Message('note_on', channel=4, note=45, velocity=95, time=2),
    Message('note_on', channel=4, note=45, velocity=95, time=2),
    Message('note_off', channel=4, note=45, velocity=95, time=28),
    Message('note_off', channel=4, note=69, velocity=95, time=202),
    Message('note_off', channel=4, note=64, velocity=95, time=0),
    Message('note_off', channel=4, note=62, velocity=95, time=0),
    Message('note_off', channel=4, note=57, velocity=95, time=0),
    Message('note_off', channel=4, note=45, velocity=95, time=0),
    Message('note_on', channel=4, note=45, velocity=95, time=0),
    Message('note_on', channel=4, note=45, velocity=95, time=2),
    Message('note_on', channel=4, note=57, velocity=95, time=2),
    Message('note_on', channel=4, note=62, velocity=95, time=2),
    Message('note_on', channel=4, note=64, velocity=95, time=2),
    Message('note_on', channel=4, note=69, velocity=95, time=2),
    Message('note_off', channel=4, note=45, velocity=95, time=28),
    Message('note_off', channel=4, note=69, velocity=95, time=202),
    Message('note_off', channel=4, note=64, velocity=95, time=0),
    Message('note_off', channel=4, note=62, velocity=95, time=0),
    Message('note_off', channel=4, note=57, velocity=95, time=0),
    Message('note_off', channel=4, note=45, velocity=95, time=0),
    Message('note_on', channel=4, note=69, velocity=95, time=0),
    Message('note_on', channel=4, note=64, velocity=95, time=4),
    Message('note_on', channel=4, note=62, velocity=95, time=4),
    Message('note_on', channel=4, note=57, velocity=95, time=4),
    Message('note_on', channel=4, note=45, velocity=95, time=4),
    Message('note_on', channel=4, note=45, velocity=95, time=4),
    Message('note_off', channel=4, note=45, velocity=95, time=18),
    Message('note_off', channel=4, note=69, velocity=95, time=442),
    Message('note_off', channel=4, note=64, velocity=95, time=0),
    Message('note_off', channel=4, note=62, velocity=95, time=0),
    Message('note_off', channel=4, note=57, velocity=95, time=0),
    Message('note_off', channel=4, note=45, velocity=95, time=0),
    Message('note_on', channel=4, note=45, velocity=95, time=0),
    Message('note_on', channel=4, note=45, velocity=95, time=6),
    Message('note_on', channel=4, note=57, velocity=95, time=6),
    Message('note_on', channel=4, note=61, velocity=95, time=6),
    Message('note_on', channel=4, note=64, velocity=95, time=6),
    Message('note_on', channel=4, note=69, velocity=95, time=6),
    Message('note_off', channel=4, note=45, velocity=95, time=8),
    Message('note_off', channel=4, note=69, velocity=95, time=682),
    Message('note_off', channel=4, note=64, velocity=95, time=0),
    Message('note_off', channel=4, note=61, velocity=95, time=0),
    Message('note_off', channel=4, note=57, velocity=95, time=0),
    Message('note_off', channel=4, note=45, velocity=95, time=0),
    Message('note_on', channel=4, note=69, velocity=95, time=0),
    Message('note_on', channel=4, note=64, velocity=95, time=2),
    Message('note_on', channel=4, note=61, velocity=95, time=2),
    Message('note_on', channel=4, note=57, velocity=95, time=2),
    Message('note_on', channel=4, note=45, velocity=95, time=2),
    Message('note_on', channel=4, note=45, velocity=95, time=2),
    Message('note_off', channel=4, note=45, velocity=95, time=28),
    Message('note_off', channel=4, note=69, velocity=95, time=202),
    Message('note_off', channel=4, note=64, velocity=95, time=0),
    Message('note_off', channel=4, note=61, velocity=95, time=0),
    Message('note_off', channel=4, note=57, velocity=95, time=0),
    Message('note_off', channel=4, note=45, velocity=95, time=0),
    Message('note_on', channel=4, note=45, velocity=95, time=0),
    Message('note_on', channel=4, note=45, velocity=95, time=4),
    Message('note_on', channel=4, note=57, velocity=95, time=4),
    Message('note_on', channel=4, note=61, velocity=95, time=4),
    Message('note_on', channel=4, note=64, velocity=95, time=4),
    Message('note_on', channel=4, note=69, velocity=95, time=4),
    Message('note_off', channel=4, note=45, velocity=95, time=18),
    Message('note_off', channel=4, note=69, velocity=95, time=442),
    Message('note_off', channel=4, note=64, velocity=95, time=0),
    Message('note_off', channel=4, note=61, velocity=95, time=0),
    Message('note_off', channel=4, note=57, velocity=95, time=0),
    Message('note_off', channel=4, note=45, velocity=95, time=0),
    Message('note_on', channel=4, note=45, velocity=95, time=0),
    Message('note_on', channel=4, note=45, velocity=95, time=6),
    Message('note_on', channel=4, note=57, velocity=95, time=6),
    Message('note_on', channel=4, note=62, velocity=95, time=6),
    Message('note_on', channel=4, note=64, velocity=95, time=6),
    Message('note_on', channel=4, note=69, velocity=95, time=6),
    Message('note_off', channel=4, note=45, velocity=95, time=8),
    Message('note_off', channel=4, note=69, velocity=95, time=682),
    Message('note_off', channel=4, note=64, velocity=95, time=0),
    Message('note_off', channel=4, note=62, velocity=95, time=0),
    Message('note_off', channel=4, note=57, velocity=95, time=0),
    Message('note_off', channel=4, note=45, velocity=95, time=0),
    Message('note_on', channel=4, note=69, velocity=95, time=0),
    Message('note_on', channel=4, note=64, velocity=95, time=2),
    Message('note_on', channel=4, note=62, velocity=95, time=2),
    Message('note_on', channel=4, note=57, velocity=95, time=2),
    Message('note_on', channel=4, note=45, velocity=95, time=2),
    Message('note_on', channel=4, note=45, velocity=95, time=2),
    Message('note_off', channel=4, note=45, velocity=95, time=28),
    Message('note_off', channel=4, note=69, velocity=95, time=202),
    Message('note_off', channel=4, note=64, velocity=95, time=0),
    Message('note_off', channel=4, note=62, velocity=95, time=0),
    Message('note_off', channel=4, note=57, velocity=95, time=0),
    Message('note_off', channel=4, note=45, velocity=95, time=0),
    Message('note_on', channel=4, note=45, velocity=95, time=0),
    Message('note_on', channel=4, note=45, velocity=95, time=4),
    Message('note_on', channel=4, note=57, velocity=95, time=4),
    Message('note_on', channel=4, note=62, velocity=95, time=4),
    Message('note_on', channel=4, note=64, velocity=95, time=4),
    Message('note_on', channel=4, note=69, velocity=95, time=4),
    Message('note_off', channel=4, note=45, velocity=95, time=18),
    Message('note_off', channel=4, note=69, velocity=95, time=442),
    Message('note_off', channel=4, note=64, velocity=95, time=0),
    Message('note_off', channel=4, note=62, velocity=95, time=0),
    Message('note_off', channel=4, note=57, velocity=95, time=0),
    Message('note_off', channel=4, note=45, velocity=95, time=0),
    Message('note_on', channel=4, note=69, velocity=95, time=0),
    Message('note_on', channel=4, note=64, velocity=95, time=2),
    Message('note_on', channel=4, note=62, velocity=95, time=2),
    Message('note_on', channel=4, note=57, velocity=95, time=2),
    Message('note_on', channel=4, note=45, velocity=95, time=2),
    Message('note_on', channel=4, note=45, velocity=95, time=2),
    Message('note_off', channel=4, note=45, velocity=95, time=28),
    Message('note_off', channel=4, note=69, velocity=95, time=202),
    Message('note_off', channel=4, note=64, velocity=95, time=0),
    Message('note_off', channel=4, note=62, velocity=95, time=0),
    Message('note_off', channel=4, note=57, velocity=95, time=0),
    Message('note_off', channel=4, note=45, velocity=95, time=0),
    Message('note_on', channel=4, note=45, velocity=95, time=0),
    Message('note_on', channel=4, note=45, velocity=95, time=2),
    Message('note_on', channel=4, note=57, velocity=95, time=2),
    Message('note_on', channel=4, note=62, velocity=95, time=2),
    Message('note_on', channel=4, note=64, velocity=95, time=2),
    Message('note_on', channel=4, note=69, velocity=95, time=2),
    Message('note_off', channel=4, note=45, velocity=95, time=28),
    Message('note_off', channel=4, note=69, velocity=95, time=202),
    Message('note_off', channel=4, note=64, velocity=95, time=0),
    Message('note_off', channel=4, note=62, velocity=95, time=0),
    Message('note_off', channel=4, note=57, velocity=95, time=0),
    Message('note_off', channel=4, note=45, velocity=95, time=0),
    Message('note_on', channel=4, note=69, velocity=95, time=0),
    Message('note_on', channel=4, note=64, velocity=95, time=4),
    Message('note_on', channel=4, note=62, velocity=95, time=4),
    Message('note_on', channel=4, note=57, velocity=95, time=4),
    Message('note_on', channel=4, note=45, velocity=95, time=4),
    Message('note_on', channel=4, note=45, velocity=95, time=4),
    Message('note_off', channel=4, note=45, velocity=95, time=18),
    Message('note_off', channel=4, note=69, velocity=95, time=442),
    Message('note_off', channel=4, note=64, velocity=95, time=0),
    Message('note_off', channel=4, note=62, velocity=95, time=0),
    Message('note_off', channel=4, note=57, velocity=95, time=0),
    Message('note_off', channel=4, note=45, velocity=95, time=0),
    Message('note_on', channel=4, note=45, velocity=95, time=0),
    Message('note_on', channel=4, note=45, velocity=95, time=6),
    Message('note_on', channel=4, note=57, velocity=95, time=6),
    Message('note_on', channel=4, note=61, velocity=95, time=6),
    Message('note_on', channel=4, note=64, velocity=95, time=6),
    Message('note_on', channel=4, note=69, velocity=95, time=6),
    Message('note_off', channel=4, note=45, velocity=95, time=8),
    Message('note_off', channel=4, note=69, velocity=95, time=682),
    Message('note_off', channel=4, note=64, velocity=95, time=0),
    Message('note_off', channel=4, note=61, velocity=95, time=0),
    Message('note_off', channel=4, note=57, velocity=95, time=0),
    Message('note_off', channel=4, note=45, velocity=95, time=0),
    Message('note_on', channel=4, note=69, velocity=95, time=0),
    Message('note_on', channel=4, note=64, velocity=95, time=2),
    Message('note_on', channel=4, note=61, velocity=95, time=2),
    Message('note_on', channel=4, note=57, velocity=95, time=2),
    Message('note_on', channel=4, note=45, velocity=95, time=2),
    Message('note_on', channel=4, note=45, velocity=95, time=2),
    Message('note_off', channel=4, note=45, velocity=95, time=28),
    Message('note_off', channel=4, note=69, velocity=95, time=202),
    Message('note_off', channel=4, note=64, velocity=95, time=0),
    Message('note_off', channel=4, note=61, velocity=95, time=0),
    Message('note_off', channel=4, note=57, velocity=95, time=0),
    Message('note_off', channel=4, note=45, velocity=95, time=0),
    Message('note_on', channel=4, note=45, velocity=95, time=0),
    Message('note_on', channel=4, note=45, velocity=95, time=4),
    Message('note_on', channel=4, note=57, velocity=95, time=4),
    Message('note_on', channel=4, note=61, velocity=95, time=4),
    Message('note_on', channel=4, note=64, velocity=95, time=4),
    Message('note_on', channel=4, note=69, velocity=95, time=4),
    Message('note_off', channel=4, note=45, velocity=95, time=18),
    Message('note_off', channel=4, note=69, velocity=95, time=442),
    Message('note_off', channel=4, note=64, velocity=95, time=0),
    Message('note_off', channel=4, note=61, velocity=95, time=0),
    Message('note_off', channel=4, note=57, velocity=95, time=0),
    Message('note_off', channel=4, note=45, velocity=95, time=0),
    Message('note_on', channel=4, note=45, velocity=95, time=0),
    Message('note_on', channel=4, note=45, velocity=95, time=6),
    Message('note_on', channel=4, note=57, velocity=95, time=6),
    Message('note_on', channel=4, note=62, velocity=95, time=6),
    Message('note_on', channel=4, note=64, velocity=95, time=6),
    Message('note_on', channel=4, note=69, velocity=95, time=6),
    Message('note_off', channel=4, note=45, velocity=95, time=8),
    Message('note_off', channel=4, note=69, velocity=95, time=682),
    Message('note_off', channel=4, note=64, velocity=95, time=0),
    Message('note_off', channel=4, note=62, velocity=95, time=0),
    Message('note_off', channel=4, note=57, velocity=95, time=0),
    Message('note_off', channel=4, note=45, velocity=95, time=0),
    Message('note_on', channel=4, note=69, velocity=95, time=0),
    Message('note_on', channel=4, note=64, velocity=95, time=2),
    Message('note_on', channel=4, note=62, velocity=95, time=2),
    Message('note_on', channel=4, note=57, velocity=95, time=2),
    Message('note_on', channel=4, note=45, velocity=95, time=2),
    Message('note_on', channel=4, note=45, velocity=95, time=2),
    Message('note_off', channel=4, note=45, velocity=95, time=28),
    Message('note_off', channel=4, note=69, velocity=95, time=202),
    Message('note_off', channel=4, note=64, velocity=95, time=0),
    Message('note_off', channel=4, note=62, velocity=95, time=0),
    Message('note_off', channel=4, note=57, velocity=95, time=0),
    Message('note_off', channel=4, note=45, velocity=95, time=0),
    Message('note_on', channel=4, note=45, velocity=95, time=0),
    Message('note_on', channel=4, note=45, velocity=95, time=4),
    Message('note_on', channel=4, note=57, velocity=95, time=4),
    Message('note_on', channel=4, note=62, velocity=95, time=4),
    Message('note_on', channel=4, note=64, velocity=95, time=4),
    Message('note_on', channel=4, note=69, velocity=95, time=4),
    Message('note_off', channel=4, note=45, velocity=95, time=18),
    Message('note_off', channel=4, note=69, velocity=95, time=442),
    Message('note_off', channel=4, note=64, velocity=95, time=0),
    Message('note_off', channel=4, note=62, velocity=95, time=0),
    Message('note_off', channel=4, note=57, velocity=95, time=0),
    Message('note_off', channel=4, note=45, velocity=95, time=0),
    Message('note_on', channel=4, note=69, velocity=95, time=0),
    Message('note_on', channel=4, note=64, velocity=95, time=2),
    Message('note_on', channel=4, note=62, velocity=95, time=2),
    Message('note_on', channel=4, note=57, velocity=95, time=2),
    Message('note_on', channel=4, note=45, velocity=95, time=2),
    Message('note_on', channel=4, note=45, velocity=95, time=2),
    Message('note_off', channel=4, note=45, velocity=95, time=28),
    Message('note_off', channel=4, note=69, velocity=95, time=202),
    Message('note_off', channel=4, note=64, velocity=95, time=0),
    Message('note_off', channel=4, note=62, velocity=95, time=0),
    Message('note_off', channel=4, note=57, velocity=95, time=0),
    Message('note_off', channel=4, note=45, velocity=95, time=0),
    Message('note_on', channel=4, note=45, velocity=95, time=0),
    Message('note_on', channel=4, note=45, velocity=95, time=2),
    Message('note_on', channel=4, note=57, velocity=95, time=2),
    Message('note_on', channel=4, note=62, velocity=95, time=2),
    Message('note_on', channel=4, note=64, velocity=95, time=2),
    Message('note_on', channel=4, note=69, velocity=95, time=2),
    Message('note_off', channel=4, note=45, velocity=95, time=28),
    Message('note_off', channel=4, note=69, velocity=95, time=202),
    Message('note_off', channel=4, note=64, velocity=95, time=0),
    Message('note_off', channel=4, note=62, velocity=95, time=0),
    Message('note_off', channel=4, note=57, velocity=95, time=0),
    Message('note_off', channel=4, note=45, velocity=95, time=0),
    Message('note_on', channel=4, note=69, velocity=95, time=0),
    Message('note_on', channel=4, note=64, velocity=95, time=4),
    Message('note_on', channel=4, note=62, velocity=95, time=4),
    Message('note_on', channel=4, note=57, velocity=95, time=4),
    Message('note_on', channel=4, note=45, velocity=95, time=4),
    Message('note_on', channel=4, note=45, velocity=95, time=4),
    Message('note_off', channel=4, note=45, velocity=95, time=18),
    Message('note_off', channel=4, note=69, velocity=95, time=442),
    Message('note_off', channel=4, note=64, velocity=95, time=0),
    Message('note_off', channel=4, note=62, velocity=95, time=0),
    Message('note_off', channel=4, note=57, velocity=95, time=0),
    Message('note_off', channel=4, note=45, velocity=95, time=0),
    Message('note_on', channel=4, note=45, velocity=95, time=0),
    Message('note_on', channel=4, note=45, velocity=95, time=6),
    Message('note_on', channel=4, note=57, velocity=95, time=6),
    Message('note_on', channel=4, note=61, velocity=95, time=6),
    Message('note_on', channel=4, note=64, velocity=95, time=6),
    Message('note_on', channel=4, note=69, velocity=95, time=6),
    Message('note_off', channel=4, note=45, velocity=95, time=8),
    Message('note_off', channel=4, note=69, velocity=95, time=682),
    Message('note_off', channel=4, note=64, velocity=95, time=0),
    Message('note_off', channel=4, note=61, velocity=95, time=0),
    Message('note_off', channel=4, note=57, velocity=95, time=0),
    Message('note_off', channel=4, note=45, velocity=95, time=0),
    Message('note_on', channel=4, note=69, velocity=95, time=0),
    Message('note_on', channel=4, note=64, velocity=95, time=2),
    Message('note_on', channel=4, note=61, velocity=95, time=2),
    Message('note_on', channel=4, note=57, velocity=95, time=2),
    Message('note_on', channel=4, note=45, velocity=95, time=2),
    Message('note_on', channel=4, note=45, velocity=95, time=2),
    Message('note_off', channel=4, note=45, velocity=95, time=28),
    Message('note_off', channel=4, note=69, velocity=95, time=202),
    Message('note_off', channel=4, note=64, velocity=95, time=0),
    Message('note_off', channel=4, note=61, velocity=95, time=0),
    Message('note_off', channel=4, note=57, velocity=95, time=0),
    Message('note_off', channel=4, note=45, velocity=95, time=0),
    Message('note_on', channel=4, note=45, velocity=95, time=0),
    Message('note_on', channel=4, note=45, velocity=95, time=4),
    Message('note_on', channel=4, note=57, velocity=95, time=4),
    Message('note_on', channel=4, note=61, velocity=95, time=4),
    Message('note_on', channel=4, note=64, velocity=95, time=4),
    Message('note_on', channel=4, note=69, velocity=95, time=4),
    Message('note_off', channel=4, note=45, velocity=95, time=18),
    Message('note_off', channel=4, note=69, velocity=95, time=442),
    Message('note_off', channel=4, note=64, velocity=95, time=0),
    Message('note_off', channel=4, note=61, velocity=95, time=0),
    Message('note_off', channel=4, note=57, velocity=95, time=0),
    Message('note_off', channel=4, note=45, velocity=95, time=0),
    Message('note_on', channel=4, note=45, velocity=95, time=0),
    Message('note_on', channel=4, note=45, velocity=95, time=6),
    Message('note_on', channel=4, note=57, velocity=95, time=6),
    Message('note_on', channel=4, note=62, velocity=95, time=6),
    Message('note_on', channel=4, note=64, velocity=95, time=6),
    Message('note_on', channel=4, note=69, velocity=95, time=6),
    Message('note_off', channel=4, note=45, velocity=95, time=8),
    Message('note_off', channel=4, note=69, velocity=95, time=682),
    Message('note_off', channel=4, note=64, velocity=95, time=0),
    Message('note_off', channel=4, note=62, velocity=95, time=0),
    Message('note_off', channel=4, note=57, velocity=95, time=0),
    Message('note_off', channel=4, note=45, velocity=95, time=0),
    Message('note_on', channel=4, note=69, velocity=95, time=0),
    Message('note_on', channel=4, note=64, velocity=95, time=2),
    Message('note_on', channel=4, note=62, velocity=95, time=2),
    Message('note_on', channel=4, note=57, velocity=95, time=2),
    Message('note_on', channel=4, note=45, velocity=95, time=2),
    Message('note_on', channel=4, note=45, velocity=95, time=2),
    Message('note_off', channel=4, note=45, velocity=95, time=28),
    Message('note_off', channel=4, note=69, velocity=95, time=202),
    Message('note_off', channel=4, note=64, velocity=95, time=0),
    Message('note_off', channel=4, note=62, velocity=95, time=0),
    Message('note_off', channel=4, note=57, velocity=95, time=0),
    Message('note_off', channel=4, note=45, velocity=95, time=0),
    Message('note_on', channel=4, note=45, velocity=95, time=0),
    Message('note_on', channel=4, note=45, velocity=95, time=4),
    Message('note_on', channel=4, note=57, velocity=95, time=4),
    Message('note_on', channel=4, note=62, velocity=95, time=4),
    Message('note_on', channel=4, note=64, velocity=95, time=4),
    Message('note_on', channel=4, note=69, velocity=95, time=4),
    Message('note_off', channel=4, note=45, velocity=95, time=18),
    Message('note_off', channel=4, note=69, velocity=95, time=442),
    Message('note_off', channel=4, note=64, velocity=95, time=0),
    Message('note_off', channel=4, note=62, velocity=95, time=0),
    Message('note_off', channel=4, note=57, velocity=95, time=0),
    Message('note_off', channel=4, note=45, velocity=95, time=0),
    Message('note_on', channel=4, note=69, velocity=95, time=0),
    Message('note_on', channel=4, note=64, velocity=95, time=2),
    Message('note_on', channel=4, note=62, velocity=95, time=2),
    Message('note_on', channel=4, note=57, velocity=95, time=2),
    Message('note_on', channel=4, note=45, velocity=95, time=2),
    Message('note_on', channel=4, note=45, velocity=95, time=2),
    Message('note_off', channel=4, note=45, velocity=95, time=28),
    Message('note_off', channel=4, note=69, velocity=95, time=202),
    Message('note_off', channel=4, note=64, velocity=95, time=0),
    Message('note_off', channel=4, note=62, velocity=95, time=0),
    Message('note_off', channel=4, note=57, velocity=95, time=0),
    Message('note_off', channel=4, note=45, velocity=95, time=0),
    Message('note_on', channel=4, note=45, velocity=95, time=0),
    Message('note_on', channel=4, note=45, velocity=95, time=2),
    Message('note_on', channel=4, note=57, velocity=95, time=2),
    Message('note_on', channel=4, note=62, velocity=95, time=2),
    Message('note_on', channel=4, note=64, velocity=95, time=2),
    Message('note_on', channel=4, note=69, velocity=95, time=2),
    Message('note_off', channel=4, note=45, velocity=95, time=28),
    Message('note_off', channel=4, note=69, velocity=95, time=202),
    Message('note_off', channel=4, note=64, velocity=95, time=0),
    Message('note_off', channel=4, note=62, velocity=95, time=0),
    Message('note_off', channel=4, note=57, velocity=95, time=0),
    Message('note_off', channel=4, note=45, velocity=95, time=0),
    Message('note_on', channel=4, note=69, velocity=95, time=0),
    Message('note_on', channel=4, note=64, velocity=95, time=4),
    Message('note_on', channel=4, note=62, velocity=95, time=4),
    Message('note_on', channel=4, note=57, velocity=95, time=4),
    Message('note_on', channel=4, note=45, velocity=95, time=4),
    Message('note_on', channel=4, note=45, velocity=95, time=4),
    Message('note_off', channel=4, note=45, velocity=95, time=18),
    Message('note_off', channel=4, note=69, velocity=95, time=442),
    Message('note_off', channel=4, note=64, velocity=95, time=0),
    Message('note_off', channel=4, note=62, velocity=95, time=0),
    Message('note_off', channel=4, note=57, velocity=95, time=0),
    Message('note_off', channel=4, note=45, velocity=95, time=0),
    Message('note_on', channel=4, note=41, velocity=95, time=0),
    Message('note_on', channel=4, note=48, velocity=95, time=2),
    Message('note_on', channel=4, note=53, velocity=95, time=2),
    Message('note_on', channel=4, note=57, velocity=95, time=2),
    Message('note_on', channel=4, note=60, velocity=95, time=2),
    Message('note_on', channel=4, note=65, velocity=95, time=2),
    Message('note_off', channel=4, note=65, velocity=95, time=230),
    Message('note_off', channel=4, note=60, velocity=95, time=0),
    Message('note_off', channel=4, note=57, velocity=95, time=0),
    Message('note_off', channel=4, note=53, velocity=95, time=0),
    Message('note_off', channel=4, note=48, velocity=95, time=0),
    Message('note_off', channel=4, note=41, velocity=95, time=0),
    Message('note_on', channel=4, note=65, velocity=95, time=0),
    Message('note_on', channel=4, note=60, velocity=95, time=2),
    Message('note_on', channel=4, note=57, velocity=95, time=2),
    Message('note_on', channel=4, note=53, velocity=95, time=2),
    Message('note_on', channel=4, note=48, velocity=95, time=2),
    Message('note_on', channel=4, note=41, velocity=95, time=2),
    Message('note_off', channel=4, note=65, velocity=95, time=230),
    Message('note_off', channel=4, note=60, velocity=95, time=0),
    Message('note_off', channel=4, note=57, velocity=95, time=0),
    Message('note_off', channel=4, note=53, velocity=95, time=0),
    Message('note_off', channel=4, note=48, velocity=95, time=0),
    Message('note_off', channel=4, note=41, velocity=95, time=0),
    Message('note_on', channel=4, note=41, velocity=95, time=0),
    Message('note_on', channel=4, note=48, velocity=95, time=2),
    Message('note_on', channel=4, note=53, velocity=95, time=2),
    Message('note_on', channel=4, note=57, velocity=95, time=2),
    Message('note_on', channel=4, note=60, velocity=95, time=2),
    Message('note_on', channel=4, note=65, velocity=95, time=2),
    Message('note_off', channel=4, note=65, velocity=95, time=230),
    Message('note_off', channel=4, note=60, velocity=95, time=0),
    Message('note_off', channel=4, note=57, velocity=95, time=0),
    Message('note_off', channel=4, note=53, velocity=95, time=0),
    Message('note_off', channel=4, note=48, velocity=95, time=0),
    Message('note_off', channel=4, note=41, velocity=95, time=0),
    Message('note_on', channel=4, note=65, velocity=95, time=0),
    Message('note_on', channel=4, note=60, velocity=95, time=2),
    Message('note_on', channel=4, note=57, velocity=95, time=2),
    Message('note_on', channel=4, note=53, velocity=95, time=2),
    Message('note_on', channel=4, note=48, velocity=95, time=2),
    Message('note_on', channel=4, note=41, velocity=95, time=2),
    Message('note_off', channel=4, note=65, velocity=95, time=230),
    Message('note_off', channel=4, note=60, velocity=95, time=0),
    Message('note_off', channel=4, note=57, velocity=95, time=0),
    Message('note_off', channel=4, note=53, velocity=95, time=0),
    Message('note_off', channel=4, note=48, velocity=95, time=0),
    Message('note_off', channel=4, note=41, velocity=95, time=0),
    Message('note_on', channel=4, note=64, velocity=95, time=240),
    Message('note_on', channel=4, note=60, velocity=95, time=2),
    Message('note_on', channel=4, note=55, velocity=95, time=2),
    Message('note_on', channel=4, note=52, velocity=95, time=2),
    Message('note_on', channel=4, note=48, velocity=95, time=2),
    Message('note_off', channel=4, note=64, velocity=95, time=232),
    Message('note_off', channel=4, note=60, velocity=95, time=0),
    Message('note_off', channel=4, note=55, velocity=95, time=0),
    Message('note_off', channel=4, note=52, velocity=95, time=0),
    Message('note_off', channel=4, note=48, velocity=95, time=0),
    Message('note_on', channel=4, note=48, velocity=95, time=0),
    Message('note_on', channel=4, note=52, velocity=95, time=6),
    Message('note_on', channel=4, note=55, velocity=95, time=6),
    Message('note_on', channel=4, note=60, velocity=95, time=6),
    Message('note_on', channel=4, note=64, velocity=95, time=6),
    Message('note_off', channel=4, note=64, velocity=95, time=696),
    Message('note_off', channel=4, note=60, velocity=95, time=0),
    Message('note_off', channel=4, note=55, velocity=95, time=0),
    Message('note_off', channel=4, note=52, velocity=95, time=0),
    Message('note_off', channel=4, note=48, velocity=95, time=0),
    Message('note_on', channel=4, note=64, velocity=95, time=0),
    Message('note_on', channel=4, note=60, velocity=95, time=2),
    Message('note_on', channel=4, note=55, velocity=95, time=2),
    Message('note_on', channel=4, note=52, velocity=95, time=2),
    Message('note_on', channel=4, note=48, velocity=95, time=2),
    Message('note_off', channel=4, note=64, velocity=95, time=232),
    Message('note_off', channel=4, note=60, velocity=95, time=0),
    Message('note_off', channel=4, note=55, velocity=95, time=0),
    Message('note_off', channel=4, note=52, velocity=95, time=0),
    Message('note_off', channel=4, note=48, velocity=95, time=0),
    Message('note_on', channel=4, note=48, velocity=95, time=0),
    Message('note_on', channel=4, note=52, velocity=95, time=2),
    Message('note_on', channel=4, note=55, velocity=95, time=2),
    Message('note_on', channel=4, note=60, velocity=95, time=2),
    Message('note_on', channel=4, note=64, velocity=95, time=2),
    Message('note_off', channel=4, note=64, velocity=95, time=232),
    Message('note_off', channel=4, note=60, velocity=95, time=0),
    Message('note_off', channel=4, note=55, velocity=95, time=0),
    Message('note_off', channel=4, note=52, velocity=95, time=0),
    Message('note_off', channel=4, note=48, velocity=95, time=0),
    Message('note_on', channel=4, note=64, velocity=95, time=0),
    Message('note_on', channel=4, note=62, velocity=95, time=6),
    Message('note_on', channel=4, note=55, velocity=95, time=6),
    Message('note_on', channel=4, note=52, velocity=95, time=6),
    Message('note_on', channel=4, note=48, velocity=95, time=6),
    Message('note_off', channel=4, note=64, velocity=95, time=696),
    Message('note_off', channel=4, note=62, velocity=95, time=0),
    Message('note_off', channel=4, note=55, velocity=95, time=0),
    Message('note_off', channel=4, note=52, velocity=95, time=0),
    Message('note_off', channel=4, note=48, velocity=95, time=0),
    Message('note_on', channel=4, note=48, velocity=95, time=0),
    Message('note_on', channel=4, note=52, velocity=95, time=4),
    Message('note_on', channel=4, note=55, velocity=95, time=4),
    Message('note_on', channel=4, note=60, velocity=95, time=4),
    Message('note_on', channel=4, note=64, velocity=95, time=4),
    Message('note_off', channel=4, note=64, velocity=95, time=464),
    Message('note_off', channel=4, note=60, velocity=95, time=0),
    Message('note_off', channel=4, note=55, velocity=95, time=0),
    Message('note_off', channel=4, note=52, velocity=95, time=0),
    Message('note_off', channel=4, note=48, velocity=95, time=0),
    Message('note_on', channel=4, note=41, velocity=95, time=0),
    Message('note_on', channel=4, note=48, velocity=95, time=2),
    Message('note_on', channel=4, note=53, velocity=95, time=2),
    Message('note_on', channel=4, note=57, velocity=95, time=2),
    Message('note_on', channel=4, note=60, velocity=95, time=2),
    Message('note_on', channel=4, note=65, velocity=95, time=2),
    Message('note_off', channel=4, note=65, velocity=95, time=230),
    Message('note_off', channel=4, note=60, velocity=95, time=0),
    Message('note_off', channel=4, note=57, velocity=95, time=0),
    Message('note_off', channel=4, note=53, velocity=95, time=0),
    Message('note_off', channel=4, note=48, velocity=95, time=0),
    Message('note_off', channel=4, note=41, velocity=95, time=0),
    Message('note_on', channel=4, note=65, velocity=95, time=0),
    Message('note_on', channel=4, note=60, velocity=95, time=2),
    Message('note_on', channel=4, note=57, velocity=95, time=2),
    Message('note_on', channel=4, note=53, velocity=95, time=2),
    Message('note_on', channel=4, note=48, velocity=95, time=2),
    Message('note_on', channel=4, note=41, velocity=95, time=2),
    Message('note_off', channel=4, note=65, velocity=95, time=230),
    Message('note_off', channel=4, note=60, velocity=95, time=0),
    Message('note_off', channel=4, note=57, velocity=95, time=0),
    Message('note_off', channel=4, note=53, velocity=95, time=0),
    Message('note_off', channel=4, note=48, velocity=95, time=0),
    Message('note_off', channel=4, note=41, velocity=95, time=0),
    Message('note_on', channel=4, note=41, velocity=95, time=0),
    Message('note_on', channel=4, note=48, velocity=95, time=2),
    Message('note_on', channel=4, note=53, velocity=95, time=2),
    Message('note_on', channel=4, note=57, velocity=95, time=2),
    Message('note_on', channel=4, note=60, velocity=95, time=2),
    Message('note_on', channel=4, note=65, velocity=95, time=2),
    Message('note_off', channel=4, note=65, velocity=95, time=230),
    Message('note_off', channel=4, note=60, velocity=95, time=0),
    Message('note_off', channel=4, note=57, velocity=95, time=0),
    Message('note_off', channel=4, note=53, velocity=95, time=0),
    Message('note_off', channel=4, note=48, velocity=95, time=0),
    Message('note_off', channel=4, note=41, velocity=95, time=0),
    Message('note_on', channel=4, note=65, velocity=95, time=0),
    Message('note_on', channel=4, note=60, velocity=95, time=2),
    Message('note_on', channel=4, note=57, velocity=95, time=2),
    Message('note_on', channel=4, note=53, velocity=95, time=2),
    Message('note_on', channel=4, note=48, velocity=95, time=2),
    Message('note_on', channel=4, note=41, velocity=95, time=2),
    Message('note_off', channel=4, note=65, velocity=95, time=230),
    Message('note_off', channel=4, note=60, velocity=95, time=0),
    Message('note_off', channel=4, note=57, velocity=95, time=0),
    Message('note_off', channel=4, note=53, velocity=95, time=0),
    Message('note_off', channel=4, note=48, velocity=95, time=0),
    Message('note_off', channel=4, note=41, velocity=95, time=0),
    Message('note_on', channel=4, note=64, velocity=95, time=240),
    Message('note_on', channel=4, note=60, velocity=95, time=2),
    Message('note_on', channel=4, note=55, velocity=95, time=2),
    Message('note_on', channel=4, note=52, velocity=95, time=2),
    Message('note_on', channel=4, note=48, velocity=95, time=2),
    Message('note_off', channel=4, note=64, velocity=95, time=232),
    Message('note_off', channel=4, note=60, velocity=95, time=0),
    Message('note_off', channel=4, note=55, velocity=95, time=0),
    Message('note_off', channel=4, note=52, velocity=95, time=0),
    Message('note_off', channel=4, note=48, velocity=95, time=0),
    Message('note_on', channel=4, note=48, velocity=95, time=0),
    Message('note_on', channel=4, note=52, velocity=95, time=6),
    Message('note_on', channel=4, note=55, velocity=95, time=6),
    Message('note_on', channel=4, note=60, velocity=95, time=6),
    Message('note_on', channel=4, note=64, velocity=95, time=6),
    Message('note_off', channel=4, note=64, velocity=95, time=696),
    Message('note_off', channel=4, note=60, velocity=95, time=0),
    Message('note_off', channel=4, note=55, velocity=95, time=0),
    Message('note_off', channel=4, note=52, velocity=95, time=0),
    Message('note_off', channel=4, note=48, velocity=95, time=0),
    Message('note_on', channel=4, note=48, velocity=95, time=0),
    Message('note_on', channel=4, note=52, velocity=95, time=4),
    Message('note_on', channel=4, note=55, velocity=95, time=4),
    Message('note_on', channel=4, note=60, velocity=95, time=4),
    Message('note_on', channel=4, note=64, velocity=95, time=4),
    Message('note_off', channel=4, note=64, velocity=95, time=464),
    Message('note_off', channel=4, note=60, velocity=95, time=0),
    Message('note_off', channel=4, note=55, velocity=95, time=0),
    Message('note_off', channel=4, note=52, velocity=95, time=0),
    Message('note_off', channel=4, note=48, velocity=95, time=0),
    Message('note_on', channel=4, note=64, velocity=95, time=0),
    Message('note_on', channel=4, note=60, velocity=95, time=2),
    Message('note_on', channel=4, note=55, velocity=95, time=2),
    Message('note_on', channel=4, note=52, velocity=95, time=2),
    Message('note_on', channel=4, note=48, velocity=95, time=2),
    Message('note_off', channel=4, note=64, velocity=95, time=232),
    Message('note_off', channel=4, note=60, velocity=95, time=0),
    Message('note_off', channel=4, note=55, velocity=95, time=0),
    Message('note_off', channel=4, note=52, velocity=95, time=0),
    Message('note_off', channel=4, note=48, velocity=95, time=0),
    Message('note_on', channel=4, note=48, velocity=95, time=0),
    Message('note_on', channel=4, note=52, velocity=95, time=2),
    Message('note_on', channel=4, note=55, velocity=95, time=2),
    Message('note_on', channel=4, note=60, velocity=95, time=2),
    Message('note_on', channel=4, note=64, velocity=95, time=2),
    Message('note_off', channel=4, note=64, velocity=95, time=232),
    Message('note_off', channel=4, note=60, velocity=95, time=0),
    Message('note_off', channel=4, note=55, velocity=95, time=0),
    Message('note_off', channel=4, note=52, velocity=95, time=0),
    Message('note_off', channel=4, note=48, velocity=95, time=0),
    Message('note_on', channel=4, note=64, velocity=95, time=0),
    Message('note_on', channel=4, note=60, velocity=95, time=2),
    Message('note_on', channel=4, note=55, velocity=95, time=2),
    Message('note_on', channel=4, note=52, velocity=95, time=2),
    Message('note_on', channel=4, note=48, velocity=95, time=2),
    Message('note_off', channel=4, note=64, velocity=95, time=232),
    Message('note_off', channel=4, note=60, velocity=95, time=0),
    Message('note_off', channel=4, note=55, velocity=95, time=0),
    Message('note_off', channel=4, note=52, velocity=95, time=0),
    Message('note_off', channel=4, note=48, velocity=95, time=0),
    Message('note_on', channel=4, note=48, velocity=95, time=0),
    Message('note_on', channel=4, note=52, velocity=95, time=2),
    Message('note_on', channel=4, note=55, velocity=95, time=2),
    Message('note_on', channel=4, note=60, velocity=95, time=2),
    Message('note_on', channel=4, note=64, velocity=95, time=2),
    Message('note_off', channel=4, note=64, velocity=95, time=232),
    Message('note_off', channel=4, note=60, velocity=95, time=0),
    Message('note_off', channel=4, note=55, velocity=95, time=0),
    Message('note_off', channel=4, note=52, velocity=95, time=0),
    Message('note_off', channel=4, note=48, velocity=95, time=0),
    Message('note_on', channel=4, note=64, velocity=95, time=0),
    Message('note_on', channel=4, note=60, velocity=95, time=2),
    Message('note_on', channel=4, note=55, velocity=95, time=2),
    Message('note_on', channel=4, note=52, velocity=95, time=2),
    Message('note_on', channel=4, note=48, velocity=95, time=2),
    Message('note_off', channel=4, note=64, velocity=95, time=232),
    Message('note_off', channel=4, note=60, velocity=95, time=0),
    Message('note_off', channel=4, note=55, velocity=95, time=0),
    Message('note_off', channel=4, note=52, velocity=95, time=0),
    Message('note_off', channel=4, note=48, velocity=95, time=0),
    Message('note_on', channel=4, note=40, velocity=95, time=0),
    Message('note_on', channel=4, note=47, velocity=95, time=4),
    Message('note_on', channel=4, note=52, velocity=95, time=4),
    Message('note_on', channel=4, note=56, velocity=95, time=4),
    Message('note_on', channel=4, note=59, velocity=95, time=4),
    Message('note_on', channel=4, note=64, velocity=95, time=4),
    Message('note_off', channel=4, note=64, velocity=95, time=460),
    Message('note_off', channel=4, note=59, velocity=95, time=0),
    Message('note_off', channel=4, note=56, velocity=95, time=0),
    Message('note_off', channel=4, note=52, velocity=95, time=0),
    Message('note_off', channel=4, note=47, velocity=95, time=0),
    Message('note_off', channel=4, note=40, velocity=95, time=0),
    Message('note_on', channel=4, note=40, velocity=95, time=0),
    Message('note_on', channel=4, note=47, velocity=95, time=2),
    Message('note_on', channel=4, note=52, velocity=95, time=2),
    Message('note_on', channel=4, note=56, velocity=95, time=2),
    Message('note_on', channel=4, note=59, velocity=95, time=2),
    Message('note_on', channel=4, note=64, velocity=95, time=2),
    Message('note_off', channel=4, note=64, velocity=95, time=230),
    Message('note_off', channel=4, note=59, velocity=95, time=0),
    Message('note_off', channel=4, note=56, velocity=95, time=0),
    Message('note_off', channel=4, note=52, velocity=95, time=0),
    Message('note_off', channel=4, note=47, velocity=95, time=0),
    Message('note_off', channel=4, note=40, velocity=95, time=0),
    Message('note_on', channel=4, note=64, velocity=95, time=0),
    Message('note_on', channel=4, note=59, velocity=95, time=2),
    Message('note_on', channel=4, note=56, velocity=95, time=2),
    Message('note_on', channel=4, note=52, velocity=95, time=2),
    Message('note_on', channel=4, note=47, velocity=95, time=2),
    Message('note_on', channel=4, note=40, velocity=95, time=2),
    Message('note_off', channel=4, note=64, velocity=95, time=230),
    Message('note_off', channel=4, note=59, velocity=95, time=0),
    Message('note_off', channel=4, note=56, velocity=95, time=0),
    Message('note_off', channel=4, note=52, velocity=95, time=0),
    Message('note_off', channel=4, note=47, velocity=95, time=0),
    Message('note_off', channel=4, note=40, velocity=95, time=0),
    Message('note_on', channel=4, note=40, velocity=95, time=0),
    Message('note_on', channel=4, note=47, velocity=95, time=2),
    Message('note_on', channel=4, note=52, velocity=95, time=2),
    Message('note_on', channel=4, note=56, velocity=95, time=2),
    Message('note_on', channel=4, note=59, velocity=95, time=2),
    Message('note_on', channel=4, note=64, velocity=95, time=2),
    Message('note_off', channel=4, note=64, velocity=95, time=230),
    Message('note_off', channel=4, note=59, velocity=95, time=0),
    Message('note_off', channel=4, note=56, velocity=95, time=0),
    Message('note_off', channel=4, note=52, velocity=95, time=0),
    Message('note_off', channel=4, note=47, velocity=95, time=0),
    Message('note_off', channel=4, note=40, velocity=95, time=0),
    Message('note_on', channel=4, note=64, velocity=95, time=0),
    Message('note_on', channel=4, note=59, velocity=95, time=2),
    Message('note_on', channel=4, note=56, velocity=95, time=2),
    Message('note_on', channel=4, note=52, velocity=95, time=2),
    Message('note_on', channel=4, note=47, velocity=95, time=2),
    Message('note_on', channel=4, note=40, velocity=95, time=2),
    Message('note_off', channel=4, note=64, velocity=95, time=230),
    Message('note_off', channel=4, note=59, velocity=95, time=0),
    Message('note_off', channel=4, note=56, velocity=95, time=0),
    Message('note_off', channel=4, note=52, velocity=95, time=0),
    Message('note_off', channel=4, note=47, velocity=95, time=0),
    Message('note_off', channel=4, note=40, velocity=95, time=0),
    Message('note_on', channel=4, note=40, velocity=95, time=0),
    Message('note_on', channel=4, note=47, velocity=95, time=2),
    Message('note_on', channel=4, note=52, velocity=95, time=2),
    Message('note_on', channel=4, note=56, velocity=95, time=2),
    Message('note_on', channel=4, note=59, velocity=95, time=2),
    Message('note_on', channel=4, note=64, velocity=95, time=2),
    Message('note_off', channel=4, note=64, velocity=95, time=230),
    Message('note_off', channel=4, note=59, velocity=95, time=0),
    Message('note_off', channel=4, note=56, velocity=95, time=0),
    Message('note_off', channel=4, note=52, velocity=95, time=0),
    Message('note_off', channel=4, note=47, velocity=95, time=0),
    Message('note_off', channel=4, note=40, velocity=95, time=0),
    Message('note_on', channel=4, note=64, velocity=95, time=0),
    Message('note_on', channel=4, note=59, velocity=95, time=2),
    Message('note_on', channel=4, note=56, velocity=95, time=2),
    Message('note_on', channel=4, note=52, velocity=95, time=2),
    Message('note_on', channel=4, note=47, velocity=95, time=2),
    Message('note_on', channel=4, note=40, velocity=95, time=2),
    Message('note_off', channel=4, note=64, velocity=95, time=230),
    Message('note_off', channel=4, note=59, velocity=95, time=0),
    Message('note_off', channel=4, note=56, velocity=95, time=0),
    Message('note_off', channel=4, note=52, velocity=95, time=0),
    Message('note_off', channel=4, note=47, velocity=95, time=0),
    Message('note_off', channel=4, note=40, velocity=95, time=0),
    Message('note_on', channel=4, note=43, velocity=95, time=0),
    Message('note_on', channel=4, note=47, velocity=95, time=4),
    Message('note_on', channel=4, note=50, velocity=95, time=4),
    Message('note_on', channel=4, note=55, velocity=95, time=4),
    Message('note_on', channel=4, note=62, velocity=95, time=4),
    Message('note_on', channel=4, note=67, velocity=95, time=4),
    Message('note_off', channel=4, note=67, velocity=95, time=460),
    Message('note_off', channel=4, note=62, velocity=95, time=0),
    Message('note_off', channel=4, note=55, velocity=95, time=0),
    Message('note_off', channel=4, note=50, velocity=95, time=0),
    Message('note_off', channel=4, note=47, velocity=95, time=0),
    Message('note_off', channel=4, note=43, velocity=95, time=0),
    Message('note_on', channel=4, note=43, velocity=95, time=0),
    Message('note_on', channel=4, note=47, velocity=95, time=2),
    Message('note_on', channel=4, note=50, velocity=95, time=2),
    Message('note_on', channel=4, note=55, velocity=95, time=2),
    Message('note_on', channel=4, note=62, velocity=95, time=2),
    Message('note_on', channel=4, note=67, velocity=95, time=2),
    Message('note_off', channel=4, note=67, velocity=95, time=230),
    Message('note_off', channel=4, note=62, velocity=95, time=0),
    Message('note_off', channel=4, note=55, velocity=95, time=0),
    Message('note_off', channel=4, note=50, velocity=95, time=0),
    Message('note_off', channel=4, note=47, velocity=95, time=0),
    Message('note_off', channel=4, note=43, velocity=95, time=0),
    Message('note_on', channel=4, note=67, velocity=95, time=0),
    Message('note_on', channel=4, note=62, velocity=95, time=2),
    Message('note_on', channel=4, note=55, velocity=95, time=2),
    Message('note_on', channel=4, note=50, velocity=95, time=2),
    Message('note_on', channel=4, note=47, velocity=95, time=2),
    Message('note_on', channel=4, note=43, velocity=95, time=2),
    Message('note_off', channel=4, note=67, velocity=95, time=230),
    Message('note_off', channel=4, note=62, velocity=95, time=0),
    Message('note_off', channel=4, note=55, velocity=95, time=0),
    Message('note_off', channel=4, note=50, velocity=95, time=0),
    Message('note_off', channel=4, note=47, velocity=95, time=0),
    Message('note_off', channel=4, note=43, velocity=95, time=0),
    Message('note_on', channel=4, note=43, velocity=95, time=0),
    Message('note_on', channel=4, note=47, velocity=95, time=2),
    Message('note_on', channel=4, note=50, velocity=95, time=2),
    Message('note_on', channel=4, note=55, velocity=95, time=2),
    Message('note_on', channel=4, note=62, velocity=95, time=2),
    Message('note_on', channel=4, note=67, velocity=95, time=2),
    Message('note_off', channel=4, note=67, velocity=95, time=230),
    Message('note_off', channel=4, note=62, velocity=95, time=0),
    Message('note_off', channel=4, note=55, velocity=95, time=0),
    Message('note_off', channel=4, note=50, velocity=95, time=0),
    Message('note_off', channel=4, note=47, velocity=95, time=0),
    Message('note_off', channel=4, note=43, velocity=95, time=0),
    Message('note_on', channel=4, note=67, velocity=95, time=0),
    Message('note_on', channel=4, note=62, velocity=95, time=2),
    Message('note_on', channel=4, note=55, velocity=95, time=2),
    Message('note_on', channel=4, note=50, velocity=95, time=2),
    Message('note_on', channel=4, note=47, velocity=95, time=2),
    Message('note_on', channel=4, note=43, velocity=95, time=2),
    Message('note_off', channel=4, note=67, velocity=95, time=230),
    Message('note_off', channel=4, note=62, velocity=95, time=0),
    Message('note_off', channel=4, note=55, velocity=95, time=0),
    Message('note_off', channel=4, note=50, velocity=95, time=0),
    Message('note_off', channel=4, note=47, velocity=95, time=0),
    Message('note_off', channel=4, note=43, velocity=95, time=0),
    Message('note_on', channel=4, note=43, velocity=95, time=0),
    Message('note_on', channel=4, note=47, velocity=95, time=2),
    Message('note_on', channel=4, note=50, velocity=95, time=2),
    Message('note_on', channel=4, note=55, velocity=95, time=2),
    Message('note_on', channel=4, note=62, velocity=95, time=2),
    Message('note_on', channel=4, note=67, velocity=95, time=2),
    Message('note_off', channel=4, note=67, velocity=95, time=230),
    Message('note_off', channel=4, note=62, velocity=95, time=0),
    Message('note_off', channel=4, note=55, velocity=95, time=0),
    Message('note_off', channel=4, note=50, velocity=95, time=0),
    Message('note_off', channel=4, note=47, velocity=95, time=0),
    Message('note_off', channel=4, note=43, velocity=95, time=0),
    Message('note_on', channel=4, note=67, velocity=95, time=0),
    Message('note_on', channel=4, note=62, velocity=95, time=2),
    Message('note_on', channel=4, note=55, velocity=95, time=2),
    Message('note_on', channel=4, note=50, velocity=95, time=2),
    Message('note_on', channel=4, note=47, velocity=95, time=2),
    Message('note_on', channel=4, note=43, velocity=95, time=2),
    Message('note_off', channel=4, note=67, velocity=95, time=230),
    Message('note_off', channel=4, note=62, velocity=95, time=0),
    Message('note_off', channel=4, note=55, velocity=95, time=0),
    Message('note_off', channel=4, note=50, velocity=95, time=0),
    Message('note_off', channel=4, note=47, velocity=95, time=0),
    Message('note_off', channel=4, note=43, velocity=95, time=0),
    Message('note_on', channel=4, note=50, velocity=95, time=0),
    Message('note_on', channel=4, note=57, velocity=95, time=4),
    Message('note_on', channel=4, note=62, velocity=95, time=4),
    Message('note_on', channel=4, note=66, velocity=95, time=4),
    Message('note_off', channel=4, note=66, velocity=95, time=468),
    Message('note_off', channel=4, note=62, velocity=95, time=0),
    Message('note_off', channel=4, note=57, velocity=95, time=0),
    Message('note_off', channel=4, note=50, velocity=95, time=0),
    Message('note_on', channel=4, note=50, velocity=95, time=0),
    Message('note_on', channel=4, note=57, velocity=95, time=2),
    Message('note_on', channel=4, note=62, velocity=95, time=2),
    Message('note_on', channel=4, note=66, velocity=95, time=2),
    Message('note_off', channel=4, note=66, velocity=95, time=234),
    Message('note_off', channel=4, note=62, velocity=95, time=0),
    Message('note_off', channel=4, note=57, velocity=95, time=0),
    Message('note_off', channel=4, note=50, velocity=95, time=0),
    Message('note_on', channel=4, note=66, velocity=95, time=0),
    Message('note_on', channel=4, note=62, velocity=95, time=2),
    Message('note_on', channel=4, note=57, velocity=95, time=2),
    Message('note_on', channel=4, note=50, velocity=95, time=2),
    Message('note_off', channel=4, note=66, velocity=95, time=234),
    Message('note_off', channel=4, note=62, velocity=95, time=0),
    Message('note_off', channel=4, note=57, velocity=95, time=0),
    Message('note_off', channel=4, note=50, velocity=95, time=0),
    Message('note_on', channel=4, note=50, velocity=95, time=0),
    Message('note_on', channel=4, note=57, velocity=95, time=2),
    Message('note_on', channel=4, note=62, velocity=95, time=2),
    Message('note_on', channel=4, note=66, velocity=95, time=2),
    Message('note_off', channel=4, note=66, velocity=95, time=234),
    Message('note_off', channel=4, note=62, velocity=95, time=0),
    Message('note_off', channel=4, note=57, velocity=95, time=0),
    Message('note_off', channel=4, note=50, velocity=95, time=0),
    Message('note_on', channel=4, note=66, velocity=95, time=0),
    Message('note_on', channel=4, note=62, velocity=95, time=2),
    Message('note_on', channel=4, note=57, velocity=95, time=2),
    Message('note_on', channel=4, note=50, velocity=95, time=2),
    Message('note_off', channel=4, note=66, velocity=95, time=234),
    Message('note_off', channel=4, note=62, velocity=95, time=0),
    Message('note_off', channel=4, note=57, velocity=95, time=0),
    Message('note_off', channel=4, note=50, velocity=95, time=0),
    Message('note_on', channel=4, note=50, velocity=95, time=0),
    Message('note_on', channel=4, note=57, velocity=95, time=2),
    Message('note_on', channel=4, note=62, velocity=95, time=2),
    Message('note_on', channel=4, note=66, velocity=95, time=2),
    Message('note_off', channel=4, note=66, velocity=95, time=234),
    Message('note_off', channel=4, note=62, velocity=95, time=0),
    Message('note_off', channel=4, note=57, velocity=95, time=0),
    Message('note_off', channel=4, note=50, velocity=95, time=0),
    Message('note_on', channel=4, note=66, velocity=95, time=0),
    Message('note_on', channel=4, note=62, velocity=95, time=2),
    Message('note_on', channel=4, note=57, velocity=95, time=2),
    Message('note_on', channel=4, note=50, velocity=95, time=2),
    Message('note_off', channel=4, note=66, velocity=95, time=234),
    Message('note_off', channel=4, note=62, velocity=95, time=0),
    Message('note_off', channel=4, note=57, velocity=95, time=0),
    Message('note_off', channel=4, note=50, velocity=95, time=0),
    Message('note_on', channel=4, note=45, velocity=95, time=0),
    Message('note_on', channel=4, note=52, velocity=95, time=4),
    Message('note_on', channel=4, note=57, velocity=95, time=4),
    Message('note_on', channel=4, note=61, velocity=95, time=4),
    Message('note_on', channel=4, note=64, velocity=95, time=4),
    Message('note_off', channel=4, note=64, velocity=95, time=464),
    Message('note_off', channel=4, note=61, velocity=95, time=0),
    Message('note_off', channel=4, note=57, velocity=95, time=0),
    Message('note_off', channel=4, note=52, velocity=95, time=0),
    Message('note_off', channel=4, note=45, velocity=95, time=0),
    Message('note_on', channel=4, note=45, velocity=95, time=0),
    Message('note_on', channel=4, note=52, velocity=95, time=2),
    Message('note_on', channel=4, note=57, velocity=95, time=2),
    Message('note_on', channel=4, note=61, velocity=95, time=2),
    Message('note_on', channel=4, note=64, velocity=95, time=2),
    Message('note_off', channel=4, note=64, velocity=95, time=232),
    Message('note_off', channel=4, note=61, velocity=95, time=0),
    Message('note_off', channel=4, note=57, velocity=95, time=0),
    Message('note_off', channel=4, note=52, velocity=95, time=0),
    Message('note_off', channel=4, note=45, velocity=95, time=0),
    Message('note_on', channel=4, note=64, velocity=95, time=0),
    Message('note_on', channel=4, note=61, velocity=95, time=2),
    Message('note_on', channel=4, note=57, velocity=95, time=2),
    Message('note_on', channel=4, note=52, velocity=95, time=2),
    Message('note_on', channel=4, note=45, velocity=95, time=2),
    Message('note_off', channel=4, note=64, velocity=95, time=232),
    Message('note_off', channel=4, note=61, velocity=95, time=0),
    Message('note_off', channel=4, note=57, velocity=95, time=0),
    Message('note_off', channel=4, note=52, velocity=95, time=0),
    Message('note_off', channel=4, note=45, velocity=95, time=0),
    Message('note_on', channel=4, note=45, velocity=95, time=0),
    Message('note_on', channel=4, note=52, velocity=95, time=2),
    Message('note_on', channel=4, note=57, velocity=95, time=2),
    Message('note_on', channel=4, note=61, velocity=95, time=2),
    Message('note_on', channel=4, note=64, velocity=95, time=2),
    Message('note_off', channel=4, note=64, velocity=95, time=232),
    Message('note_off', channel=4, note=61, velocity=95, time=0),
    Message('note_off', channel=4, note=57, velocity=95, time=0),
    Message('note_off', channel=4, note=52, velocity=95, time=0),
    Message('note_off', channel=4, note=45, velocity=95, time=0),
    Message('note_on', channel=4, note=64, velocity=95, time=0),
    Message('note_on', channel=4, note=61, velocity=95, time=2),
    Message('note_on', channel=4, note=57, velocity=95, time=2),
    Message('note_on', channel=4, note=52, velocity=95, time=2),
    Message('note_on', channel=4, note=45, velocity=95, time=2),
    Message('note_off', channel=4, note=64, velocity=95, time=232),
    Message('note_off', channel=4, note=61, velocity=95, time=0),
    Message('note_off', channel=4, note=57, velocity=95, time=0),
    Message('note_off', channel=4, note=52, velocity=95, time=0),
    Message('note_off', channel=4, note=45, velocity=95, time=0),
    Message('note_on', channel=4, note=45, velocity=95, time=0),
    Message('note_on', channel=4, note=52, velocity=95, time=2),
    Message('note_on', channel=4, note=57, velocity=95, time=2),
    Message('note_on', channel=4, note=61, velocity=95, time=2),
    Message('note_on', channel=4, note=64, velocity=95, time=2),
    Message('note_off', channel=4, note=64, velocity=95, time=232),
    Message('note_off', channel=4, note=61, velocity=95, time=0),
    Message('note_off', channel=4, note=57, velocity=95, time=0),
    Message('note_off', channel=4, note=52, velocity=95, time=0),
    Message('note_off', channel=4, note=45, velocity=95, time=0),
    Message('note_on', channel=4, note=64, velocity=95, time=0),
    Message('note_on', channel=4, note=61, velocity=95, time=2),
    Message('note_on', channel=4, note=57, velocity=95, time=2),
    Message('note_on', channel=4, note=52, velocity=95, time=2),
    Message('note_on', channel=4, note=45, velocity=95, time=2),
    Message('note_off', channel=4, note=64, velocity=95, time=232),
    Message('note_off', channel=4, note=61, velocity=95, time=0),
    Message('note_off', channel=4, note=57, velocity=95, time=0),
    Message('note_off', channel=4, note=52, velocity=95, time=0),
    Message('note_off', channel=4, note=45, velocity=95, time=0),
    Message('note_on', channel=4, note=40, velocity=95, time=0),
    Message('note_on', channel=4, note=47, velocity=95, time=4),
    Message('note_on', channel=4, note=52, velocity=95, time=4),
    Message('note_on', channel=4, note=56, velocity=95, time=4),
    Message('note_on', channel=4, note=59, velocity=95, time=4),
    Message('note_on', channel=4, note=64, velocity=95, time=4),
    Message('note_off', channel=4, note=64, velocity=95, time=460),
    Message('note_off', channel=4, note=59, velocity=95, time=0),
    Message('note_off', channel=4, note=56, velocity=95, time=0),
    Message('note_off', channel=4, note=52, velocity=95, time=0),
    Message('note_off', channel=4, note=47, velocity=95, time=0),
    Message('note_off', channel=4, note=40, velocity=95, time=0),
    Message('note_on', channel=4, note=40, velocity=95, time=0),
    Message('note_on', channel=4, note=47, velocity=95, time=2),
    Message('note_on', channel=4, note=52, velocity=95, time=2),
    Message('note_on', channel=4, note=56, velocity=95, time=2),
    Message('note_on', channel=4, note=59, velocity=95, time=2),
    Message('note_on', channel=4, note=64, velocity=95, time=2),
    Message('note_off', channel=4, note=64, velocity=95, time=230),
    Message('note_off', channel=4, note=59, velocity=95, time=0),
    Message('note_off', channel=4, note=56, velocity=95, time=0),
    Message('note_off', channel=4, note=52, velocity=95, time=0),
    Message('note_off', channel=4, note=47, velocity=95, time=0),
    Message('note_off', channel=4, note=40, velocity=95, time=0),
    Message('note_on', channel=4, note=64, velocity=95, time=0),
    Message('note_on', channel=4, note=59, velocity=95, time=2),
    Message('note_on', channel=4, note=56, velocity=95, time=2),
    Message('note_on', channel=4, note=52, velocity=95, time=2),
    Message('note_on', channel=4, note=47, velocity=95, time=2),
    Message('note_on', channel=4, note=40, velocity=95, time=2),
    Message('note_off', channel=4, note=64, velocity=95, time=230),
    Message('note_off', channel=4, note=59, velocity=95, time=0),
    Message('note_off', channel=4, note=56, velocity=95, time=0),
    Message('note_off', channel=4, note=52, velocity=95, time=0),
    Message('note_off', channel=4, note=47, velocity=95, time=0),
    Message('note_off', channel=4, note=40, velocity=95, time=0),
    Message('note_on', channel=4, note=40, velocity=95, time=0),
    Message('note_on', channel=4, note=47, velocity=95, time=2),
    Message('note_on', channel=4, note=52, velocity=95, time=2),
    Message('note_on', channel=4, note=56, velocity=95, time=2),
    Message('note_on', channel=4, note=59, velocity=95, time=2),
    Message('note_on', channel=4, note=64, velocity=95, time=2),
    Message('note_off', channel=4, note=64, velocity=95, time=230),
    Message('note_off', channel=4, note=59, velocity=95, time=0),
    Message('note_off', channel=4, note=56, velocity=95, time=0),
    Message('note_off', channel=4, note=52, velocity=95, time=0),
    Message('note_off', channel=4, note=47, velocity=95, time=0),
    Message('note_off', channel=4, note=40, velocity=95, time=0),
    Message('note_on', channel=4, note=64, velocity=95, time=0),
    Message('note_on', channel=4, note=59, velocity=95, time=2),
    Message('note_on', channel=4, note=56, velocity=95, time=2),
    Message('note_on', channel=4, note=52, velocity=95, time=2),
    Message('note_on', channel=4, note=47, velocity=95, time=2),
    Message('note_on', channel=4, note=40, velocity=95, time=2),
    Message('note_off', channel=4, note=64, velocity=95, time=230),
    Message('note_off', channel=4, note=59, velocity=95, time=0),
    Message('note_off', channel=4, note=56, velocity=95, time=0),
    Message('note_off', channel=4, note=52, velocity=95, time=0),
    Message('note_off', channel=4, note=47, velocity=95, time=0),
    Message('note_off', channel=4, note=40, velocity=95, time=0),
    Message('note_on', channel=4, note=40, velocity=95, time=0),
    Message('note_on', channel=4, note=47, velocity=95, time=2),
    Message('note_on', channel=4, note=52, velocity=95, time=2),
    Message('note_on', channel=4, note=56, velocity=95, time=2),
    Message('note_on', channel=4, note=59, velocity=95, time=2),
    Message('note_on', channel=4, note=64, velocity=95, time=2),
    Message('note_off', channel=4, note=64, velocity=95, time=230),
    Message('note_off', channel=4, note=59, velocity=95, time=0),
    Message('note_off', channel=4, note=56, velocity=95, time=0),
    Message('note_off', channel=4, note=52, velocity=95, time=0),
    Message('note_off', channel=4, note=47, velocity=95, time=0),
    Message('note_off', channel=4, note=40, velocity=95, time=0),
    Message('note_on', channel=4, note=64, velocity=95, time=0),
    Message('note_on', channel=4, note=59, velocity=95, time=2),
    Message('note_on', channel=4, note=56, velocity=95, time=2),
    Message('note_on', channel=4, note=52, velocity=95, time=2),
    Message('note_on', channel=4, note=47, velocity=95, time=2),
    Message('note_on', channel=4, note=40, velocity=95, time=2),
    Message('note_off', channel=4, note=64, velocity=95, time=230),
    Message('note_off', channel=4, note=59, velocity=95, time=0),
    Message('note_off', channel=4, note=56, velocity=95, time=0),
    Message('note_off', channel=4, note=52, velocity=95, time=0),
    Message('note_off', channel=4, note=47, velocity=95, time=0),
    Message('note_off', channel=4, note=40, velocity=95, time=0),
    Message('note_on', channel=4, note=43, velocity=95, time=0),
    Message('note_on', channel=4, note=47, velocity=95, time=4),
    Message('note_on', channel=4, note=50, velocity=95, time=4),
    Message('note_on', channel=4, note=55, velocity=95, time=4),
    Message('note_on', channel=4, note=62, velocity=95, time=4),
    Message('note_on', channel=4, note=67, velocity=95, time=4),
    Message('note_off', channel=4, note=67, velocity=95, time=460),
    Message('note_off', channel=4, note=62, velocity=95, time=0),
    Message('note_off', channel=4, note=55, velocity=95, time=0),
    Message('note_off', channel=4, note=50, velocity=95, time=0),
    Message('note_off', channel=4, note=47, velocity=95, time=0),
    Message('note_off', channel=4, note=43, velocity=95, time=0),
    Message('note_on', channel=4, note=43, velocity=95, time=0),
    Message('note_on', channel=4, note=47, velocity=95, time=2),
    Message('note_on', channel=4, note=50, velocity=95, time=2),
    Message('note_on', channel=4, note=55, velocity=95, time=2),
    Message('note_on', channel=4, note=62, velocity=95, time=2),
    Message('note_on', channel=4, note=67, velocity=95, time=2),
    Message('note_off', channel=4, note=67, velocity=95, time=230),
    Message('note_off', channel=4, note=62, velocity=95, time=0),
    Message('note_off', channel=4, note=55, velocity=95, time=0),
    Message('note_off', channel=4, note=50, velocity=95, time=0),
    Message('note_off', channel=4, note=47, velocity=95, time=0),
    Message('note_off', channel=4, note=43, velocity=95, time=0),
    Message('note_on', channel=4, note=67, velocity=95, time=0),
    Message('note_on', channel=4, note=62, velocity=95, time=2),
    Message('note_on', channel=4, note=55, velocity=95, time=2),
    Message('note_on', channel=4, note=50, velocity=95, time=2),
    Message('note_on', channel=4, note=47, velocity=95, time=2),
    Message('note_on', channel=4, note=43, velocity=95, time=2),
    Message('note_off', channel=4, note=67, velocity=95, time=230),
    Message('note_off', channel=4, note=62, velocity=95, time=0),
    Message('note_off', channel=4, note=55, velocity=95, time=0),
    Message('note_off', channel=4, note=50, velocity=95, time=0),
    Message('note_off', channel=4, note=47, velocity=95, time=0),
    Message('note_off', channel=4, note=43, velocity=95, time=0),
    Message('note_on', channel=4, note=43, velocity=95, time=0),
    Message('note_on', channel=4, note=47, velocity=95, time=2),
    Message('note_on', channel=4, note=50, velocity=95, time=2),
    Message('note_on', channel=4, note=55, velocity=95, time=2),
    Message('note_on', channel=4, note=62, velocity=95, time=2),
    Message('note_on', channel=4, note=67, velocity=95, time=2),
    Message('note_off', channel=4, note=67, velocity=95, time=230),
    Message('note_off', channel=4, note=62, velocity=95, time=0),
    Message('note_off', channel=4, note=55, velocity=95, time=0),
    Message('note_off', channel=4, note=50, velocity=95, time=0),
    Message('note_off', channel=4, note=47, velocity=95, time=0),
    Message('note_off', channel=4, note=43, velocity=95, time=0),
    Message('note_on', channel=4, note=67, velocity=95, time=0),
    Message('note_on', channel=4, note=62, velocity=95, time=2),
    Message('note_on', channel=4, note=55, velocity=95, time=2),
    Message('note_on', channel=4, note=50, velocity=95, time=2),
    Message('note_on', channel=4, note=47, velocity=95, time=2),
    Message('note_on', channel=4, note=43, velocity=95, time=2),
    Message('note_off', channel=4, note=67, velocity=95, time=230),
    Message('note_off', channel=4, note=62, velocity=95, time=0),
    Message('note_off', channel=4, note=55, velocity=95, time=0),
    Message('note_off', channel=4, note=50, velocity=95, time=0),
    Message('note_off', channel=4, note=47, velocity=95, time=0),
    Message('note_off', channel=4, note=43, velocity=95, time=0),
    Message('note_on', channel=4, note=43, velocity=95, time=0),
    Message('note_on', channel=4, note=47, velocity=95, time=2),
    Message('note_on', channel=4, note=50, velocity=95, time=2),
    Message('note_on', channel=4, note=55, velocity=95, time=2),
    Message('note_on', channel=4, note=62, velocity=95, time=2),
    Message('note_on', channel=4, note=67, velocity=95, time=2),
    Message('note_off', channel=4, note=67, velocity=95, time=230),
    Message('note_off', channel=4, note=62, velocity=95, time=0),
    Message('note_off', channel=4, note=55, velocity=95, time=0),
    Message('note_off', channel=4, note=50, velocity=95, time=0),
    Message('note_off', channel=4, note=47, velocity=95, time=0),
    Message('note_off', channel=4, note=43, velocity=95, time=0),
    Message('note_on', channel=4, note=67, velocity=95, time=0),
    Message('note_on', channel=4, note=62, velocity=95, time=2),
    Message('note_on', channel=4, note=55, velocity=95, time=2),
    Message('note_on', channel=4, note=50, velocity=95, time=2),
    Message('note_on', channel=4, note=47, velocity=95, time=2),
    Message('note_on', channel=4, note=43, velocity=95, time=2),
    Message('note_off', channel=4, note=67, velocity=95, time=230),
    Message('note_off', channel=4, note=62, velocity=95, time=0),
    Message('note_off', channel=4, note=55, velocity=95, time=0),
    Message('note_off', channel=4, note=50, velocity=95, time=0),
    Message('note_off', channel=4, note=47, velocity=95, time=0),
    Message('note_off', channel=4, note=43, velocity=95, time=0),
    Message('note_on', channel=4, note=50, velocity=95, time=0),
    Message('note_on', channel=4, note=57, velocity=95, time=4),
    Message('note_on', channel=4, note=62, velocity=95, time=4),
    Message('note_on', channel=4, note=66, velocity=95, time=4),
    Message('note_off', channel=4, note=66, velocity=95, time=468),
    Message('note_off', channel=4, note=62, velocity=95, time=0),
    Message('note_off', channel=4, note=57, velocity=95, time=0),
    Message('note_off', channel=4, note=50, velocity=95, time=0),
    Message('note_on', channel=4, note=50, velocity=95, time=0),
    Message('note_on', channel=4, note=57, velocity=95, time=2),
    Message('note_on', channel=4, note=62, velocity=95, time=2),
    Message('note_on', channel=4, note=66, velocity=95, time=2),
    Message('note_off', channel=4, note=66, velocity=95, time=234),
    Message('note_off', channel=4, note=62, velocity=95, time=0),
    Message('note_off', channel=4, note=57, velocity=95, time=0),
    Message('note_off', channel=4, note=50, velocity=95, time=0),
    Message('note_on', channel=4, note=66, velocity=95, time=0),
    Message('note_on', channel=4, note=62, velocity=95, time=2),
    Message('note_on', channel=4, note=57, velocity=95, time=2),
    Message('note_on', channel=4, note=50, velocity=95, time=2),
    Message('note_off', channel=4, note=66, velocity=95, time=234),
    Message('note_off', channel=4, note=62, velocity=95, time=0),
    Message('note_off', channel=4, note=57, velocity=95, time=0),
    Message('note_off', channel=4, note=50, velocity=95, time=0),
    Message('note_on', channel=4, note=50, velocity=95, time=0),
    Message('note_on', channel=4, note=57, velocity=95, time=2),
    Message('note_on', channel=4, note=62, velocity=95, time=2),
    Message('note_on', channel=4, note=66, velocity=95, time=2),
    Message('note_off', channel=4, note=66, velocity=95, time=234),
    Message('note_off', channel=4, note=62, velocity=95, time=0),
    Message('note_off', channel=4, note=57, velocity=95, time=0),
    Message('note_off', channel=4, note=50, velocity=95, time=0),
    Message('note_on', channel=4, note=66, velocity=95, time=0),
    Message('note_on', channel=4, note=62, velocity=95, time=2),
    Message('note_on', channel=4, note=57, velocity=95, time=2),
    Message('note_on', channel=4, note=50, velocity=95, time=2),
    Message('note_off', channel=4, note=66, velocity=95, time=234),
    Message('note_off', channel=4, note=62, velocity=95, time=0),
    Message('note_off', channel=4, note=57, velocity=95, time=0),
    Message('note_off', channel=4, note=50, velocity=95, time=0),
    Message('note_on', channel=4, note=50, velocity=95, time=0),
    Message('note_on', channel=4, note=57, velocity=95, time=2),
    Message('note_on', channel=4, note=62, velocity=95, time=2),
    Message('note_on', channel=4, note=66, velocity=95, time=2),
    Message('note_off', channel=4, note=66, velocity=95, time=234),
    Message('note_off', channel=4, note=62, velocity=95, time=0),
    Message('note_off', channel=4, note=57, velocity=95, time=0),
    Message('note_off', channel=4, note=50, velocity=95, time=0),
    Message('note_on', channel=4, note=66, velocity=95, time=0),
    Message('note_on', channel=4, note=62, velocity=95, time=2),
    Message('note_on', channel=4, note=57, velocity=95, time=2),
    Message('note_on', channel=4, note=50, velocity=95, time=2),
    Message('note_off', channel=4, note=66, velocity=95, time=234),
    Message('note_off', channel=4, note=62, velocity=95, time=0),
    Message('note_off', channel=4, note=57, velocity=95, time=0),
    Message('note_off', channel=4, note=50, velocity=95, time=0),
    Message('note_on', channel=4, note=45, velocity=95, time=0),
    Message('note_on', channel=4, note=52, velocity=95, time=4),
    Message('note_on', channel=4, note=57, velocity=95, time=4),
    Message('note_on', channel=4, note=61, velocity=95, time=4),
    Message('note_on', channel=4, note=64, velocity=95, time=4),
    Message('note_off', channel=4, note=64, velocity=95, time=464),
    Message('note_off', channel=4, note=61, velocity=95, time=0),
    Message('note_off', channel=4, note=57, velocity=95, time=0),
    Message('note_off', channel=4, note=52, velocity=95, time=0),
    Message('note_off', channel=4, note=45, velocity=95, time=0),
    Message('note_on', channel=4, note=45, velocity=95, time=0),
    Message('note_on', channel=4, note=52, velocity=95, time=2),
    Message('note_on', channel=4, note=57, velocity=95, time=2),
    Message('note_on', channel=4, note=61, velocity=95, time=2),
    Message('note_on', channel=4, note=64, velocity=95, time=2),
    Message('note_off', channel=4, note=64, velocity=95, time=232),
    Message('note_off', channel=4, note=61, velocity=95, time=0),
    Message('note_off', channel=4, note=57, velocity=95, time=0),
    Message('note_off', channel=4, note=52, velocity=95, time=0),
    Message('note_off', channel=4, note=45, velocity=95, time=0),
    Message('note_on', channel=4, note=64, velocity=95, time=0),
    Message('note_on', channel=4, note=61, velocity=95, time=2),
    Message('note_on', channel=4, note=57, velocity=95, time=2),
    Message('note_on', channel=4, note=52, velocity=95, time=2),
    Message('note_on', channel=4, note=45, velocity=95, time=2),
    Message('note_off', channel=4, note=64, velocity=95, time=232),
    Message('note_off', channel=4, note=61, velocity=95, time=0),
    Message('note_off', channel=4, note=57, velocity=95, time=0),
    Message('note_off', channel=4, note=52, velocity=95, time=0),
    Message('note_off', channel=4, note=45, velocity=95, time=0),
    Message('note_on', channel=4, note=45, velocity=95, time=0),
    Message('note_on', channel=4, note=52, velocity=95, time=2),
    Message('note_on', channel=4, note=57, velocity=95, time=2),
    Message('note_on', channel=4, note=61, velocity=95, time=2),
    Message('note_on', channel=4, note=64, velocity=95, time=2),
    Message('note_off', channel=4, note=64, velocity=95, time=232),
    Message('note_off', channel=4, note=61, velocity=95, time=0),
    Message('note_off', channel=4, note=57, velocity=95, time=0),
    Message('note_off', channel=4, note=52, velocity=95, time=0),
    Message('note_off', channel=4, note=45, velocity=95, time=0),
    Message('note_on', channel=4, note=64, velocity=95, time=0),
    Message('note_on', channel=4, note=61, velocity=95, time=2),
    Message('note_on', channel=4, note=57, velocity=95, time=2),
    Message('note_on', channel=4, note=52, velocity=95, time=2),
    Message('note_on', channel=4, note=45, velocity=95, time=2),
    Message('note_off', channel=4, note=64, velocity=95, time=232),
    Message('note_off', channel=4, note=61, velocity=95, time=0),
    Message('note_off', channel=4, note=57, velocity=95, time=0),
    Message('note_off', channel=4, note=52, velocity=95, time=0),
    Message('note_off', channel=4, note=45, velocity=95, time=0),
    Message('note_on', channel=4, note=45, velocity=95, time=0),
    Message('note_on', channel=4, note=52, velocity=95, time=2),
    Message('note_on', channel=4, note=57, velocity=95, time=2),
    Message('note_on', channel=4, note=61, velocity=95, time=2),
    Message('note_on', channel=4, note=64, velocity=95, time=2),
    Message('note_off', channel=4, note=64, velocity=95, time=232),
    Message('note_off', channel=4, note=61, velocity=95, time=0),
    Message('note_off', channel=4, note=57, velocity=95, time=0),
    Message('note_off', channel=4, note=52, velocity=95, time=0),
    Message('note_off', channel=4, note=45, velocity=95, time=0),
    Message('note_on', channel=4, note=64, velocity=95, time=0),
    Message('note_on', channel=4, note=61, velocity=95, time=2),
    Message('note_on', channel=4, note=57, velocity=95, time=2),
    Message('note_on', channel=4, note=52, velocity=95, time=2),
    Message('note_on', channel=4, note=45, velocity=95, time=2),
    Message('note_off', channel=4, note=64, velocity=95, time=232),
    Message('note_off', channel=4, note=61, velocity=95, time=0),
    Message('note_off', channel=4, note=57, velocity=95, time=0),
    Message('note_off', channel=4, note=52, velocity=95, time=0),
    Message('note_off', channel=4, note=45, velocity=95, time=0),
    Message('note_on', channel=4, note=40, velocity=95, time=0),
    Message('note_on', channel=4, note=47, velocity=95, time=4),
    Message('note_on', channel=4, note=52, velocity=95, time=4),
    Message('note_on', channel=4, note=56, velocity=95, time=4),
    Message('note_on', channel=4, note=59, velocity=95, time=4),
    Message('note_on', channel=4, note=64, velocity=95, time=4),
    Message('note_off', channel=4, note=64, velocity=95, time=460),
    Message('note_off', channel=4, note=59, velocity=95, time=0),
    Message('note_off', channel=4, note=56, velocity=95, time=0),
    Message('note_off', channel=4, note=52, velocity=95, time=0),
    Message('note_off', channel=4, note=47, velocity=95, time=0),
    Message('note_off', channel=4, note=40, velocity=95, time=0),
    Message('note_on', channel=4, note=40, velocity=95, time=0),
    Message('note_on', channel=4, note=47, velocity=95, time=2),
    Message('note_on', channel=4, note=52, velocity=95, time=2),
    Message('note_on', channel=4, note=56, velocity=95, time=2),
    Message('note_on', channel=4, note=59, velocity=95, time=2),
    Message('note_on', channel=4, note=64, velocity=95, time=2),
    Message('note_off', channel=4, note=64, velocity=95, time=230),
    Message('note_off', channel=4, note=59, velocity=95, time=0),
    Message('note_off', channel=4, note=56, velocity=95, time=0),
    Message('note_off', channel=4, note=52, velocity=95, time=0),
    Message('note_off', channel=4, note=47, velocity=95, time=0),
    Message('note_off', channel=4, note=40, velocity=95, time=0),
    Message('note_on', channel=4, note=64, velocity=95, time=0),
    Message('note_on', channel=4, note=59, velocity=95, time=2),
    Message('note_on', channel=4, note=56, velocity=95, time=2),
    Message('note_on', channel=4, note=52, velocity=95, time=2),
    Message('note_on', channel=4, note=47, velocity=95, time=2),
    Message('note_on', channel=4, note=40, velocity=95, time=2),
    Message('note_off', channel=4, note=64, velocity=95, time=230),
    Message('note_off', channel=4, note=59, velocity=95, time=0),
    Message('note_off', channel=4, note=56, velocity=95, time=0),
    Message('note_off', channel=4, note=52, velocity=95, time=0),
    Message('note_off', channel=4, note=47, velocity=95, time=0),
    Message('note_off', channel=4, note=40, velocity=95, time=0),
    Message('note_on', channel=4, note=40, velocity=95, time=0),
    Message('note_on', channel=4, note=47, velocity=95, time=2),
    Message('note_on', channel=4, note=52, velocity=95, time=2),
    Message('note_on', channel=4, note=56, velocity=95, time=2),
    Message('note_on', channel=4, note=59, velocity=95, time=2),
    Message('note_on', channel=4, note=64, velocity=95, time=2),
    Message('note_off', channel=4, note=64, velocity=95, time=230),
    Message('note_off', channel=4, note=59, velocity=95, time=0),
    Message('note_off', channel=4, note=56, velocity=95, time=0),
    Message('note_off', channel=4, note=52, velocity=95, time=0),
    Message('note_off', channel=4, note=47, velocity=95, time=0),
    Message('note_off', channel=4, note=40, velocity=95, time=0),
    Message('note_on', channel=4, note=64, velocity=95, time=0),
    Message('note_on', channel=4, note=59, velocity=95, time=2),
    Message('note_on', channel=4, note=56, velocity=95, time=2),
    Message('note_on', channel=4, note=52, velocity=95, time=2),
    Message('note_on', channel=4, note=47, velocity=95, time=2),
    Message('note_on', channel=4, note=40, velocity=95, time=2),
    Message('note_off', channel=4, note=64, velocity=95, time=230),
    Message('note_off', channel=4, note=59, velocity=95, time=0),
    Message('note_off', channel=4, note=56, velocity=95, time=0),
    Message('note_off', channel=4, note=52, velocity=95, time=0),
    Message('note_off', channel=4, note=47, velocity=95, time=0),
    Message('note_off', channel=4, note=40, velocity=95, time=0),
    Message('note_on', channel=4, note=40, velocity=95, time=0),
    Message('note_on', channel=4, note=47, velocity=95, time=2),
    Message('note_on', channel=4, note=52, velocity=95, time=2),
    Message('note_on', channel=4, note=56, velocity=95, time=2),
    Message('note_on', channel=4, note=59, velocity=95, time=2),
    Message('note_on', channel=4, note=64, velocity=95, time=2),
    Message('note_off', channel=4, note=64, velocity=95, time=230),
    Message('note_off', channel=4, note=59, velocity=95, time=0),
    Message('note_off', channel=4, note=56, velocity=95, time=0),
    Message('note_off', channel=4, note=52, velocity=95, time=0),
    Message('note_off', channel=4, note=47, velocity=95, time=0),
    Message('note_off', channel=4, note=40, velocity=95, time=0),
    Message('note_on', channel=4, note=64, velocity=95, time=0),
    Message('note_on', channel=4, note=59, velocity=95, time=2),
    Message('note_on', channel=4, note=56, velocity=95, time=2),
    Message('note_on', channel=4, note=52, velocity=95, time=2),
    Message('note_on', channel=4, note=47, velocity=95, time=2),
    Message('note_on', channel=4, note=40, velocity=95, time=2),
    Message('note_off', channel=4, note=64, velocity=95, time=230),
    Message('note_off', channel=4, note=59, velocity=95, time=0),
    Message('note_off', channel=4, note=56, velocity=95, time=0),
    Message('note_off', channel=4, note=52, velocity=95, time=0),
    Message('note_off', channel=4, note=47, velocity=95, time=0),
    Message('note_off', channel=4, note=40, velocity=95, time=0),
    Message('note_on', channel=4, note=43, velocity=95, time=0),
    Message('note_on', channel=4, note=47, velocity=95, time=4),
    Message('note_on', channel=4, note=50, velocity=95, time=4),
    Message('note_on', channel=4, note=55, velocity=95, time=4),
    Message('note_on', channel=4, note=62, velocity=95, time=4),
    Message('note_on', channel=4, note=67, velocity=95, time=4),
    Message('note_off', channel=4, note=67, velocity=95, time=460),
    Message('note_off', channel=4, note=62, velocity=95, time=0),
    Message('note_off', channel=4, note=55, velocity=95, time=0),
    Message('note_off', channel=4, note=50, velocity=95, time=0),
    Message('note_off', channel=4, note=47, velocity=95, time=0),
    Message('note_off', channel=4, note=43, velocity=95, time=0),
    Message('note_on', channel=4, note=43, velocity=95, time=0),
    Message('note_on', channel=4, note=47, velocity=95, time=2),
    Message('note_on', channel=4, note=50, velocity=95, time=2),
    Message('note_on', channel=4, note=55, velocity=95, time=2),
    Message('note_on', channel=4, note=62, velocity=95, time=2),
    Message('note_on', channel=4, note=67, velocity=95, time=2),
    Message('note_off', channel=4, note=67, velocity=95, time=230),
    Message('note_off', channel=4, note=62, velocity=95, time=0),
    Message('note_off', channel=4, note=55, velocity=95, time=0),
    Message('note_off', channel=4, note=50, velocity=95, time=0),
    Message('note_off', channel=4, note=47, velocity=95, time=0),
    Message('note_off', channel=4, note=43, velocity=95, time=0),
    Message('note_on', channel=4, note=67, velocity=95, time=0),
    Message('note_on', channel=4, note=62, velocity=95, time=2),
    Message('note_on', channel=4, note=55, velocity=95, time=2),
    Message('note_on', channel=4, note=50, velocity=95, time=2),
    Message('note_on', channel=4, note=47, velocity=95, time=2),
    Message('note_on', channel=4, note=43, velocity=95, time=2),
    Message('note_off', channel=4, note=67, velocity=95, time=230),
    Message('note_off', channel=4, note=62, velocity=95, time=0),
    Message('note_off', channel=4, note=55, velocity=95, time=0),
    Message('note_off', channel=4, note=50, velocity=95, time=0),
    Message('note_off', channel=4, note=47, velocity=95, time=0),
    Message('note_off', channel=4, note=43, velocity=95, time=0),
    Message('note_on', channel=4, note=43, velocity=95, time=0),
    Message('note_on', channel=4, note=47, velocity=95, time=2),
    Message('note_on', channel=4, note=50, velocity=95, time=2),
    Message('note_on', channel=4, note=55, velocity=95, time=2),
    Message('note_on', channel=4, note=62, velocity=95, time=2),
    Message('note_on', channel=4, note=67, velocity=95, time=2),
    Message('note_off', channel=4, note=67, velocity=95, time=230),
    Message('note_off', channel=4, note=62, velocity=95, time=0),
    Message('note_off', channel=4, note=55, velocity=95, time=0),
    Message('note_off', channel=4, note=50, velocity=95, time=0),
    Message('note_off', channel=4, note=47, velocity=95, time=0),
    Message('note_off', channel=4, note=43, velocity=95, time=0),
    Message('note_on', channel=4, note=67, velocity=95, time=0),
    Message('note_on', channel=4, note=62, velocity=95, time=2),
    Message('note_on', channel=4, note=55, velocity=95, time=2),
    Message('note_on', channel=4, note=50, velocity=95, time=2),
    Message('note_on', channel=4, note=47, velocity=95, time=2),
    Message('note_on', channel=4, note=43, velocity=95, time=2),
    Message('note_off', channel=4, note=67, velocity=95, time=230),
    Message('note_off', channel=4, note=62, velocity=95, time=0),
    Message('note_off', channel=4, note=55, velocity=95, time=0),
    Message('note_off', channel=4, note=50, velocity=95, time=0),
    Message('note_off', channel=4, note=47, velocity=95, time=0),
    Message('note_off', channel=4, note=43, velocity=95, time=0),
    Message('note_on', channel=4, note=43, velocity=95, time=0),
    Message('note_on', channel=4, note=47, velocity=95, time=2),
    Message('note_on', channel=4, note=50, velocity=95, time=2),
    Message('note_on', channel=4, note=55, velocity=95, time=2),
    Message('note_on', channel=4, note=62, velocity=95, time=2),
    Message('note_on', channel=4, note=67, velocity=95, time=2),
    Message('note_off', channel=4, note=67, velocity=95, time=230),
    Message('note_off', channel=4, note=62, velocity=95, time=0),
    Message('note_off', channel=4, note=55, velocity=95, time=0),
    Message('note_off', channel=4, note=50, velocity=95, time=0),
    Message('note_off', channel=4, note=47, velocity=95, time=0),
    Message('note_off', channel=4, note=43, velocity=95, time=0),
    Message('note_on', channel=4, note=67, velocity=95, time=0),
    Message('note_on', channel=4, note=62, velocity=95, time=2),
    Message('note_on', channel=4, note=55, velocity=95, time=2),
    Message('note_on', channel=4, note=50, velocity=95, time=2),
    Message('note_on', channel=4, note=47, velocity=95, time=2),
    Message('note_on', channel=4, note=43, velocity=95, time=2),
    Message('note_off', channel=4, note=67, velocity=95, time=230),
    Message('note_off', channel=4, note=62, velocity=95, time=0),
    Message('note_off', channel=4, note=55, velocity=95, time=0),
    Message('note_off', channel=4, note=50, velocity=95, time=0),
    Message('note_off', channel=4, note=47, velocity=95, time=0),
    Message('note_off', channel=4, note=43, velocity=95, time=0),
    Message('note_on', channel=4, note=50, velocity=95, time=0),
    Message('note_on', channel=4, note=57, velocity=95, time=4),
    Message('note_on', channel=4, note=62, velocity=95, time=4),
    Message('note_on', channel=4, note=66, velocity=95, time=4),
    Message('note_off', channel=4, note=66, velocity=95, time=468),
    Message('note_off', channel=4, note=62, velocity=95, time=0),
    Message('note_off', channel=4, note=57, velocity=95, time=0),
    Message('note_off', channel=4, note=50, velocity=95, time=0),
    Message('note_on', channel=4, note=50, velocity=95, time=0),
    Message('note_on', channel=4, note=57, velocity=95, time=2),
    Message('note_on', channel=4, note=62, velocity=95, time=2),
    Message('note_on', channel=4, note=66, velocity=95, time=2),
    Message('note_off', channel=4, note=66, velocity=95, time=234),
    Message('note_off', channel=4, note=62, velocity=95, time=0),
    Message('note_off', channel=4, note=57, velocity=95, time=0),
    Message('note_off', channel=4, note=50, velocity=95, time=0),
    Message('note_on', channel=4, note=66, velocity=95, time=0),
    Message('note_on', channel=4, note=62, velocity=95, time=2),
    Message('note_on', channel=4, note=57, velocity=95, time=2),
    Message('note_on', channel=4, note=50, velocity=95, time=2),
    Message('note_off', channel=4, note=66, velocity=95, time=234),
    Message('note_off', channel=4, note=62, velocity=95, time=0),
    Message('note_off', channel=4, note=57, velocity=95, time=0),
    Message('note_off', channel=4, note=50, velocity=95, time=0),
    Message('note_on', channel=4, note=50, velocity=95, time=0),
    Message('note_on', channel=4, note=57, velocity=95, time=2),
    Message('note_on', channel=4, note=62, velocity=95, time=2),
    Message('note_on', channel=4, note=66, velocity=95, time=2),
    Message('note_off', channel=4, note=66, velocity=95, time=234),
    Message('note_off', channel=4, note=62, velocity=95, time=0),
    Message('note_off', channel=4, note=57, velocity=95, time=0),
    Message('note_off', channel=4, note=50, velocity=95, time=0),
    Message('note_on', channel=4, note=66, velocity=95, time=0),
    Message('note_on', channel=4, note=62, velocity=95, time=2),
    Message('note_on', channel=4, note=57, velocity=95, time=2),
    Message('note_on', channel=4, note=50, velocity=95, time=2),
    Message('note_off', channel=4, note=66, velocity=95, time=234),
    Message('note_off', channel=4, note=62, velocity=95, time=0),
    Message('note_off', channel=4, note=57, velocity=95, time=0),
    Message('note_off', channel=4, note=50, velocity=95, time=0),
    Message('note_on', channel=4, note=50, velocity=95, time=0),
    Message('note_on', channel=4, note=57, velocity=95, time=2),
    Message('note_on', channel=4, note=62, velocity=95, time=2),
    Message('note_on', channel=4, note=66, velocity=95, time=2),
    Message('note_off', channel=4, note=66, velocity=95, time=234),
    Message('note_off', channel=4, note=62, velocity=95, time=0),
    Message('note_off', channel=4, note=57, velocity=95, time=0),
    Message('note_off', channel=4, note=50, velocity=95, time=0),
    Message('note_on', channel=4, note=66, velocity=95, time=0),
    Message('note_on', channel=4, note=62, velocity=95, time=2),
    Message('note_on', channel=4, note=57, velocity=95, time=2),
    Message('note_on', channel=4, note=50, velocity=95, time=2),
    Message('note_off', channel=4, note=66, velocity=95, time=234),
    Message('note_off', channel=4, note=62, velocity=95, time=0),
    Message('note_off', channel=4, note=57, velocity=95, time=0),
    Message('note_off', channel=4, note=50, velocity=95, time=0),
    Message('note_on', channel=4, note=45, velocity=95, time=0),
    Message('note_on', channel=4, note=52, velocity=95, time=4),
    Message('note_on', channel=4, note=57, velocity=95, time=4),
    Message('note_on', channel=4, note=61, velocity=95, time=4),
    Message('note_on', channel=4, note=64, velocity=95, time=4),
    Message('note_off', channel=4, note=64, velocity=95, time=464),
    Message('note_off', channel=4, note=61, velocity=95, time=0),
    Message('note_off', channel=4, note=57, velocity=95, time=0),
    Message('note_off', channel=4, note=52, velocity=95, time=0),
    Message('note_off', channel=4, note=45, velocity=95, time=0),
    Message('note_on', channel=4, note=45, velocity=95, time=0),
    Message('note_on', channel=4, note=52, velocity=95, time=2),
    Message('note_on', channel=4, note=57, velocity=95, time=2),
    Message('note_on', channel=4, note=61, velocity=95, time=2),
    Message('note_on', channel=4, note=64, velocity=95, time=2),
    Message('note_off', channel=4, note=64, velocity=95, time=232),
    Message('note_off', channel=4, note=61, velocity=95, time=0),
    Message('note_off', channel=4, note=57, velocity=95, time=0),
    Message('note_off', channel=4, note=52, velocity=95, time=0),
    Message('note_off', channel=4, note=45, velocity=95, time=0),
    Message('note_on', channel=4, note=64, velocity=95, time=0),
    Message('note_on', channel=4, note=61, velocity=95, time=2),
    Message('note_on', channel=4, note=57, velocity=95, time=2),
    Message('note_on', channel=4, note=52, velocity=95, time=2),
    Message('note_on', channel=4, note=45, velocity=95, time=2),
    Message('note_off', channel=4, note=64, velocity=95, time=232),
    Message('note_off', channel=4, note=61, velocity=95, time=0),
    Message('note_off', channel=4, note=57, velocity=95, time=0),
    Message('note_off', channel=4, note=52, velocity=95, time=0),
    Message('note_off', channel=4, note=45, velocity=95, time=0),
    Message('note_on', channel=4, note=45, velocity=95, time=0),
    Message('note_on', channel=4, note=52, velocity=95, time=2),
    Message('note_on', channel=4, note=57, velocity=95, time=2),
    Message('note_on', channel=4, note=61, velocity=95, time=2),
    Message('note_on', channel=4, note=64, velocity=95, time=2),
    Message('note_off', channel=4, note=64, velocity=95, time=232),
    Message('note_off', channel=4, note=61, velocity=95, time=0),
    Message('note_off', channel=4, note=57, velocity=95, time=0),
    Message('note_off', channel=4, note=52, velocity=95, time=0),
    Message('note_off', channel=4, note=45, velocity=95, time=0),
    Message('note_on', channel=4, note=64, velocity=95, time=0),
    Message('note_on', channel=4, note=61, velocity=95, time=2),
    Message('note_on', channel=4, note=57, velocity=95, time=2),
    Message('note_on', channel=4, note=52, velocity=95, time=2),
    Message('note_on', channel=4, note=45, velocity=95, time=2),
    Message('note_off', channel=4, note=64, velocity=95, time=232),
    Message('note_off', channel=4, note=61, velocity=95, time=0),
    Message('note_off', channel=4, note=57, velocity=95, time=0),
    Message('note_off', channel=4, note=52, velocity=95, time=0),
    Message('note_off', channel=4, note=45, velocity=95, time=0),
    Message('note_on', channel=4, note=45, velocity=95, time=0),
    Message('note_on', channel=4, note=52, velocity=95, time=2),
    Message('note_on', channel=4, note=57, velocity=95, time=2),
    Message('note_on', channel=4, note=61, velocity=95, time=2),
    Message('note_on', channel=4, note=64, velocity=95, time=2),
    Message('note_off', channel=4, note=64, velocity=95, time=232),
    Message('note_off', channel=4, note=61, velocity=95, time=0),
    Message('note_off', channel=4, note=57, velocity=95, time=0),
    Message('note_off', channel=4, note=52, velocity=95, time=0),
    Message('note_off', channel=4, note=45, velocity=95, time=0),
    Message('note_on', channel=4, note=64, velocity=95, time=0),
    Message('note_on', channel=4, note=61, velocity=95, time=2),
    Message('note_on', channel=4, note=57, velocity=95, time=2),
    Message('note_on', channel=4, note=52, velocity=95, time=2),
    Message('note_on', channel=4, note=45, velocity=95, time=2),
    Message('note_off', channel=4, note=64, velocity=95, time=232),
    Message('note_off', channel=4, note=61, velocity=95, time=0),
    Message('note_off', channel=4, note=57, velocity=95, time=0),
    Message('note_off', channel=4, note=52, velocity=95, time=0),
    Message('note_off', channel=4, note=45, velocity=95, time=0),
    Message('note_on', channel=4, note=47, velocity=95, time=480),
    Message('note_on', channel=4, note=54, velocity=95, time=2),
    Message('note_on', channel=4, note=59, velocity=95, time=2),
    Message('note_on', channel=4, note=63, velocity=95, time=2),
    Message('note_on', channel=4, note=66, velocity=95, time=2),
    Message('note_on', channel=4, note=71, velocity=95, time=2),
    Message('note_off', channel=4, note=71, velocity=95, time=230),
    Message('note_off', channel=4, note=66, velocity=95, time=0),
    Message('note_off', channel=4, note=63, velocity=95, time=0),
    Message('note_off', channel=4, note=59, velocity=95, time=0),
    Message('note_off', channel=4, note=54, velocity=95, time=0),
    Message('note_off', channel=4, note=47, velocity=95, time=0),
    Message('note_on', channel=4, note=71, velocity=95, time=0),
    Message('note_on', channel=4, note=66, velocity=95, time=2),
    Message('note_on', channel=4, note=63, velocity=95, time=2),
    Message('note_on', channel=4, note=59, velocity=95, time=2),
    Message('note_on', channel=4, note=54, velocity=95, time=2),
    Message('note_on', channel=4, note=47, velocity=95, time=2),
    Message('note_off', channel=4, note=71, velocity=95, time=230),
    Message('note_off', channel=4, note=66, velocity=95, time=0),
    Message('note_off', channel=4, note=63, velocity=95, time=0),
    Message('note_off', channel=4, note=59, velocity=95, time=0),
    Message('note_off', channel=4, note=54, velocity=95, time=0),
    Message('note_off', channel=4, note=47, velocity=95, time=0),
    Message('note_on', channel=4, note=71, velocity=95, time=0),
    Message('note_on', channel=4, note=66, velocity=95, time=2),
    Message('note_on', channel=4, note=63, velocity=95, time=2),
    Message('note_on', channel=4, note=59, velocity=95, time=2),
    Message('note_on', channel=4, note=54, velocity=95, time=2),
    Message('note_on', channel=4, note=47, velocity=95, time=2),
    Message('note_off', channel=4, note=71, velocity=95, time=230),
    Message('note_off', channel=4, note=66, velocity=95, time=0),
    Message('note_off', channel=4, note=63, velocity=95, time=0),
    Message('note_off', channel=4, note=59, velocity=95, time=0),
    Message('note_off', channel=4, note=54, velocity=95, time=0),
    Message('note_off', channel=4, note=47, velocity=95, time=0),
    Message('note_on', channel=4, note=71, velocity=95, time=0),
    Message('note_on', channel=4, note=66, velocity=95, time=2),
    Message('note_on', channel=4, note=63, velocity=95, time=2),
    Message('note_on', channel=4, note=59, velocity=95, time=2),
    Message('note_on', channel=4, note=54, velocity=95, time=2),
    Message('note_on', channel=4, note=47, velocity=95, time=2),
    Message('note_off', channel=4, note=71, velocity=95, time=230),
    Message('note_off', channel=4, note=66, velocity=95, time=0),
    Message('note_off', channel=4, note=63, velocity=95, time=0),
    Message('note_off', channel=4, note=59, velocity=95, time=0),
    Message('note_off', channel=4, note=54, velocity=95, time=0),
    Message('note_off', channel=4, note=47, velocity=95, time=0),
    Message('note_on', channel=4, note=47, velocity=95, time=480),
    Message('note_on', channel=4, note=54, velocity=95, time=2),
    Message('note_on', channel=4, note=59, velocity=95, time=2),
    Message('note_on', channel=4, note=63, velocity=95, time=2),
    Message('note_on', channel=4, note=66, velocity=95, time=2),
    Message('note_on', channel=4, note=71, velocity=95, time=2),
    Message('note_off', channel=4, note=71, velocity=95, time=230),
    Message('note_off', channel=4, note=66, velocity=95, time=0),
    Message('note_off', channel=4, note=63, velocity=95, time=0),
    Message('note_off', channel=4, note=59, velocity=95, time=0),
    Message('note_off', channel=4, note=54, velocity=95, time=0),
    Message('note_off', channel=4, note=47, velocity=95, time=0),
    Message('note_on', channel=4, note=71, velocity=95, time=0),
    Message('note_on', channel=4, note=66, velocity=95, time=2),
    Message('note_on', channel=4, note=63, velocity=95, time=2),
    Message('note_on', channel=4, note=59, velocity=95, time=2),
    Message('note_on', channel=4, note=54, velocity=95, time=2),
    Message('note_on', channel=4, note=47, velocity=95, time=2),
    Message('note_off', channel=4, note=71, velocity=95, time=230),
    Message('note_off', channel=4, note=66, velocity=95, time=0),
    Message('note_off', channel=4, note=63, velocity=95, time=0),
    Message('note_off', channel=4, note=59, velocity=95, time=0),
    Message('note_off', channel=4, note=54, velocity=95, time=0),
    Message('note_off', channel=4, note=47, velocity=95, time=0),
    Message('note_on', channel=4, note=47, velocity=95, time=0),
    Message('note_on', channel=4, note=54, velocity=95, time=2),
    Message('note_on', channel=4, note=59, velocity=95, time=2),
    Message('note_on', channel=4, note=63, velocity=95, time=2),
    Message('note_on', channel=4, note=66, velocity=95, time=2),
    Message('note_on', channel=4, note=71, velocity=95, time=2),
    Message('note_off', channel=4, note=71, velocity=95, time=230),
    Message('note_off', channel=4, note=66, velocity=95, time=0),
    Message('note_off', channel=4, note=63, velocity=95, time=0),
    Message('note_off', channel=4, note=59, velocity=95, time=0),
    Message('note_off', channel=4, note=54, velocity=95, time=0),
    Message('note_off', channel=4, note=47, velocity=95, time=0),
    Message('note_on', channel=4, note=71, velocity=95, time=0),
    Message('note_on', channel=4, note=66, velocity=95, time=2),
    Message('note_on', channel=4, note=63, velocity=95, time=2),
    Message('note_on', channel=4, note=59, velocity=95, time=2),
    Message('note_on', channel=4, note=54, velocity=95, time=2),
    Message('note_on', channel=4, note=47, velocity=95, time=2),
    Message('note_off', channel=4, note=71, velocity=95, time=230),
    Message('note_off', channel=4, note=66, velocity=95, time=0),
    Message('note_off', channel=4, note=63, velocity=95, time=0),
    Message('note_off', channel=4, note=59, velocity=95, time=0),
    Message('note_off', channel=4, note=54, velocity=95, time=0),
    Message('note_off', channel=4, note=47, velocity=95, time=0),
    Message('note_on', channel=4, note=71, velocity=95, time=240),
    Message('note_on', channel=4, note=66, velocity=95, time=2),
    Message('note_on', channel=4, note=63, velocity=95, time=2),
    Message('note_on', channel=4, note=59, velocity=95, time=2),
    Message('note_on', channel=4, note=54, velocity=95, time=2),
    Message('note_on', channel=4, note=47, velocity=95, time=2),
    Message('note_off', channel=4, note=71, velocity=95, time=230),
    Message('note_off', channel=4, note=66, velocity=95, time=0),
    Message('note_off', channel=4, note=63, velocity=95, time=0),
    Message('note_off', channel=4, note=59, velocity=95, time=0),
    Message('note_off', channel=4, note=54, velocity=95, time=0),
    Message('note_off', channel=4, note=47, velocity=95, time=0),
    Message('note_on', channel=4, note=47, velocity=95, time=0),
    Message('note_on', channel=4, note=54, velocity=95, time=4),
    Message('note_on', channel=4, note=59, velocity=95, time=4),
    Message('note_on', channel=4, note=63, velocity=95, time=4),
    Message('note_on', channel=4, note=66, velocity=95, time=4),
    Message('note_on', channel=4, note=71, velocity=95, time=4),
    Message('note_off', channel=4, note=71, velocity=95, time=460),
    Message('note_off', channel=4, note=66, velocity=95, time=0),
    Message('note_off', channel=4, note=63, velocity=95, time=0),
    Message('note_off', channel=4, note=59, velocity=95, time=0),
    Message('note_off', channel=4, note=54, velocity=95, time=0),
    Message('note_off', channel=4, note=47, velocity=95, time=0),
    Message('note_on', channel=4, note=45, velocity=95, time=0),
    Message('note_on', channel=4, note=45, velocity=95, time=6),
    Message('note_on', channel=4, note=57, velocity=95, time=6),
    Message('note_on', channel=4, note=61, velocity=95, time=6),
    Message('note_on', channel=4, note=64, velocity=95, time=6),
    Message('note_on', channel=4, note=69, velocity=95, time=6),
    Message('note_off', channel=4, note=45, velocity=95, time=8),
    Message('note_off', channel=4, note=69, velocity=95, time=682),
    Message('note_off', channel=4, note=64, velocity=95, time=0),
    Message('note_off', channel=4, note=61, velocity=95, time=0),
    Message('note_off', channel=4, note=57, velocity=95, time=0),
    Message('note_off', channel=4, note=45, velocity=95, time=0),
    Message('note_on', channel=4, note=69, velocity=95, time=0),
    Message('note_on', channel=4, note=64, velocity=95, time=2),
    Message('note_on', channel=4, note=61, velocity=95, time=2),
    Message('note_on', channel=4, note=57, velocity=95, time=2),
    Message('note_on', channel=4, note=45, velocity=95, time=2),
    Message('note_on', channel=4, note=45, velocity=95, time=2),
    Message('note_off', channel=4, note=45, velocity=95, time=28),
    Message('note_off', channel=4, note=69, velocity=95, time=202),
    Message('note_off', channel=4, note=64, velocity=95, time=0),
    Message('note_off', channel=4, note=61, velocity=95, time=0),
    Message('note_off', channel=4, note=57, velocity=95, time=0),
    Message('note_off', channel=4, note=45, velocity=95, time=0),
    Message('note_on', channel=4, note=45, velocity=95, time=0),
    Message('note_on', channel=4, note=45, velocity=95, time=4),
    Message('note_on', channel=4, note=57, velocity=95, time=4),
    Message('note_on', channel=4, note=61, velocity=95, time=4),
    Message('note_on', channel=4, note=64, velocity=95, time=4),
    Message('note_on', channel=4, note=69, velocity=95, time=4),
    Message('note_off', channel=4, note=45, velocity=95, time=18),
    Message('note_off', channel=4, note=69, velocity=95, time=442),
    Message('note_off', channel=4, note=64, velocity=95, time=0),
    Message('note_off', channel=4, note=61, velocity=95, time=0),
    Message('note_off', channel=4, note=57, velocity=95, time=0),
    Message('note_off', channel=4, note=45, velocity=95, time=0),
    Message('note_on', channel=4, note=45, velocity=95, time=0),
    Message('note_on', channel=4, note=45, velocity=95, time=6),
    Message('note_on', channel=4, note=57, velocity=95, time=6),
    Message('note_on', channel=4, note=62, velocity=95, time=6),
    Message('note_on', channel=4, note=64, velocity=95, time=6),
    Message('note_on', channel=4, note=69, velocity=95, time=6),
    Message('note_off', channel=4, note=45, velocity=95, time=8),
    Message('note_off', channel=4, note=69, velocity=95, time=682),
    Message('note_off', channel=4, note=64, velocity=95, time=0),
    Message('note_off', channel=4, note=62, velocity=95, time=0),
    Message('note_off', channel=4, note=57, velocity=95, time=0),
    Message('note_off', channel=4, note=45, velocity=95, time=0),
    Message('note_on', channel=4, note=69, velocity=95, time=0),
    Message('note_on', channel=4, note=64, velocity=95, time=2),
    Message('note_on', channel=4, note=62, velocity=95, time=2),
    Message('note_on', channel=4, note=57, velocity=95, time=2),
    Message('note_on', channel=4, note=45, velocity=95, time=2),
    Message('note_on', channel=4, note=45, velocity=95, time=2),
    Message('note_off', channel=4, note=45, velocity=95, time=28),
    Message('note_off', channel=4, note=69, velocity=95, time=202),
    Message('note_off', channel=4, note=64, velocity=95, time=0),
    Message('note_off', channel=4, note=62, velocity=95, time=0),
    Message('note_off', channel=4, note=57, velocity=95, time=0),
    Message('note_off', channel=4, note=45, velocity=95, time=0),
    Message('note_on', channel=4, note=45, velocity=95, time=0),
    Message('note_on', channel=4, note=45, velocity=95, time=4),
    Message('note_on', channel=4, note=57, velocity=95, time=4),
    Message('note_on', channel=4, note=62, velocity=95, time=4),
    Message('note_on', channel=4, note=64, velocity=95, time=4),
    Message('note_on', channel=4, note=69, velocity=95, time=4),
    Message('note_off', channel=4, note=45, velocity=95, time=18),
    Message('note_off', channel=4, note=69, velocity=95, time=442),
    Message('note_off', channel=4, note=64, velocity=95, time=0),
    Message('note_off', channel=4, note=62, velocity=95, time=0),
    Message('note_off', channel=4, note=57, velocity=95, time=0),
    Message('note_off', channel=4, note=45, velocity=95, time=0),
    Message('note_on', channel=4, note=69, velocity=95, time=0),
    Message('note_on', channel=4, note=64, velocity=95, time=2),
    Message('note_on', channel=4, note=62, velocity=95, time=2),
    Message('note_on', channel=4, note=57, velocity=95, time=2),
    Message('note_on', channel=4, note=45, velocity=95, time=2),
    Message('note_on', channel=4, note=45, velocity=95, time=2),
    Message('note_off', channel=4, note=45, velocity=95, time=28),
    Message('note_off', channel=4, note=69, velocity=95, time=202),
    Message('note_off', channel=4, note=64, velocity=95, time=0),
    Message('note_off', channel=4, note=62, velocity=95, time=0),
    Message('note_off', channel=4, note=57, velocity=95, time=0),
    Message('note_off', channel=4, note=45, velocity=95, time=0),
    Message('note_on', channel=4, note=45, velocity=95, time=0),
    Message('note_on', channel=4, note=45, velocity=95, time=2),
    Message('note_on', channel=4, note=57, velocity=95, time=2),
    Message('note_on', channel=4, note=62, velocity=95, time=2),
    Message('note_on', channel=4, note=64, velocity=95, time=2),
    Message('note_on', channel=4, note=69, velocity=95, time=2),
    Message('note_off', channel=4, note=45, velocity=95, time=28),
    Message('note_off', channel=4, note=69, velocity=95, time=202),
    Message('note_off', channel=4, note=64, velocity=95, time=0),
    Message('note_off', channel=4, note=62, velocity=95, time=0),
    Message('note_off', channel=4, note=57, velocity=95, time=0),
    Message('note_off', channel=4, note=45, velocity=95, time=0),
    Message('note_on', channel=4, note=69, velocity=95, time=0),
    Message('note_on', channel=4, note=64, velocity=95, time=4),
    Message('note_on', channel=4, note=62, velocity=95, time=4),
    Message('note_on', channel=4, note=57, velocity=95, time=4),
    Message('note_on', channel=4, note=45, velocity=95, time=4),
    Message('note_on', channel=4, note=45, velocity=95, time=4),
    Message('note_off', channel=4, note=45, velocity=95, time=18),
    Message('note_off', channel=4, note=69, velocity=95, time=442),
    Message('note_off', channel=4, note=64, velocity=95, time=0),
    Message('note_off', channel=4, note=62, velocity=95, time=0),
    Message('note_off', channel=4, note=57, velocity=95, time=0),
    Message('note_off', channel=4, note=45, velocity=95, time=0),
    Message('note_on', channel=4, note=45, velocity=95, time=0),
    Message('note_on', channel=4, note=45, velocity=95, time=6),
    Message('note_on', channel=4, note=57, velocity=95, time=6),
    Message('note_on', channel=4, note=61, velocity=95, time=6),
    Message('note_on', channel=4, note=64, velocity=95, time=6),
    Message('note_on', channel=4, note=69, velocity=95, time=6),
    Message('note_off', channel=4, note=45, velocity=95, time=8),
    Message('note_off', channel=4, note=69, velocity=95, time=682),
    Message('note_off', channel=4, note=64, velocity=95, time=0),
    Message('note_off', channel=4, note=61, velocity=95, time=0),
    Message('note_off', channel=4, note=57, velocity=95, time=0),
    Message('note_off', channel=4, note=45, velocity=95, time=0),
    Message('note_on', channel=4, note=69, velocity=95, time=0),
    Message('note_on', channel=4, note=64, velocity=95, time=2),
    Message('note_on', channel=4, note=61, velocity=95, time=2),
    Message('note_on', channel=4, note=57, velocity=95, time=2),
    Message('note_on', channel=4, note=45, velocity=95, time=2),
    Message('note_on', channel=4, note=45, velocity=95, time=2),
    Message('note_off', channel=4, note=45, velocity=95, time=28),
    Message('note_off', channel=4, note=69, velocity=95, time=202),
    Message('note_off', channel=4, note=64, velocity=95, time=0),
    Message('note_off', channel=4, note=61, velocity=95, time=0),
    Message('note_off', channel=4, note=57, velocity=95, time=0),
    Message('note_off', channel=4, note=45, velocity=95, time=0),
    Message('note_on', channel=4, note=45, velocity=95, time=0),
    Message('note_on', channel=4, note=45, velocity=95, time=4),
    Message('note_on', channel=4, note=57, velocity=95, time=4),
    Message('note_on', channel=4, note=61, velocity=95, time=4),
    Message('note_on', channel=4, note=64, velocity=95, time=4),
    Message('note_on', channel=4, note=69, velocity=95, time=4),
    Message('note_off', channel=4, note=45, velocity=95, time=18),
    Message('note_off', channel=4, note=69, velocity=95, time=442),
    Message('note_off', channel=4, note=64, velocity=95, time=0),
    Message('note_off', channel=4, note=61, velocity=95, time=0),
    Message('note_off', channel=4, note=57, velocity=95, time=0),
    Message('note_off', channel=4, note=45, velocity=95, time=0),
    Message('note_on', channel=4, note=45, velocity=95, time=0),
    Message('note_on', channel=4, note=45, velocity=95, time=6),
    Message('note_on', channel=4, note=57, velocity=95, time=6),
    Message('note_on', channel=4, note=62, velocity=95, time=6),
    Message('note_on', channel=4, note=64, velocity=95, time=6),
    Message('note_on', channel=4, note=69, velocity=95, time=6),
    Message('note_off', channel=4, note=45, velocity=95, time=8),
    Message('note_off', channel=4, note=69, velocity=95, time=682),
    Message('note_off', channel=4, note=64, velocity=95, time=0),
    Message('note_off', channel=4, note=62, velocity=95, time=0),
    Message('note_off', channel=4, note=57, velocity=95, time=0),
    Message('note_off', channel=4, note=45, velocity=95, time=0),
    Message('note_on', channel=4, note=69, velocity=95, time=0),
    Message('note_on', channel=4, note=64, velocity=95, time=2),
    Message('note_on', channel=4, note=62, velocity=95, time=2),
    Message('note_on', channel=4, note=57, velocity=95, time=2),
    Message('note_on', channel=4, note=45, velocity=95, time=2),
    Message('note_on', channel=4, note=45, velocity=95, time=2),
    Message('note_off', channel=4, note=45, velocity=95, time=28),
    Message('note_off', channel=4, note=69, velocity=95, time=202),
    Message('note_off', channel=4, note=64, velocity=95, time=0),
    Message('note_off', channel=4, note=62, velocity=95, time=0),
    Message('note_off', channel=4, note=57, velocity=95, time=0),
    Message('note_off', channel=4, note=45, velocity=95, time=0),
    Message('note_on', channel=4, note=45, velocity=95, time=0),
    Message('note_on', channel=4, note=45, velocity=95, time=4),
    Message('note_on', channel=4, note=57, velocity=95, time=4),
    Message('note_on', channel=4, note=62, velocity=95, time=4),
    Message('note_on', channel=4, note=64, velocity=95, time=4),
    Message('note_on', channel=4, note=69, velocity=95, time=4),
    Message('note_off', channel=4, note=45, velocity=95, time=18),
    Message('note_off', channel=4, note=69, velocity=95, time=442),
    Message('note_off', channel=4, note=64, velocity=95, time=0),
    Message('note_off', channel=4, note=62, velocity=95, time=0),
    Message('note_off', channel=4, note=57, velocity=95, time=0),
    Message('note_off', channel=4, note=45, velocity=95, time=0),
    Message('note_on', channel=4, note=69, velocity=95, time=0),
    Message('note_on', channel=4, note=64, velocity=95, time=2),
    Message('note_on', channel=4, note=62, velocity=95, time=2),
    Message('note_on', channel=4, note=57, velocity=95, time=2),
    Message('note_on', channel=4, note=45, velocity=95, time=2),
    Message('note_on', channel=4, note=45, velocity=95, time=2),
    Message('note_off', channel=4, note=45, velocity=95, time=28),
    Message('note_off', channel=4, note=69, velocity=95, time=202),
    Message('note_off', channel=4, note=64, velocity=95, time=0),
    Message('note_off', channel=4, note=62, velocity=95, time=0),
    Message('note_off', channel=4, note=57, velocity=95, time=0),
    Message('note_off', channel=4, note=45, velocity=95, time=0),
    Message('note_on', channel=4, note=45, velocity=95, time=0),
    Message('note_on', channel=4, note=45, velocity=95, time=2),
    Message('note_on', channel=4, note=57, velocity=95, time=2),
    Message('note_on', channel=4, note=62, velocity=95, time=2),
    Message('note_on', channel=4, note=64, velocity=95, time=2),
    Message('note_on', channel=4, note=69, velocity=95, time=2),
    Message('note_off', channel=4, note=45, velocity=95, time=28),
    Message('note_off', channel=4, note=69, velocity=95, time=202),
    Message('note_off', channel=4, note=64, velocity=95, time=0),
    Message('note_off', channel=4, note=62, velocity=95, time=0),
    Message('note_off', channel=4, note=57, velocity=95, time=0),
    Message('note_off', channel=4, note=45, velocity=95, time=0),
    Message('note_on', channel=4, note=69, velocity=95, time=0),
    Message('note_on', channel=4, note=64, velocity=95, time=4),
    Message('note_on', channel=4, note=62, velocity=95, time=4),
    Message('note_on', channel=4, note=57, velocity=95, time=4),
    Message('note_on', channel=4, note=45, velocity=95, time=4),
    Message('note_on', channel=4, note=45, velocity=95, time=4),
    Message('note_off', channel=4, note=45, velocity=95, time=18),
    Message('note_off', channel=4, note=69, velocity=95, time=442),
    Message('note_off', channel=4, note=64, velocity=95, time=0),
    Message('note_off', channel=4, note=62, velocity=95, time=0),
    Message('note_off', channel=4, note=57, velocity=95, time=0),
    Message('note_off', channel=4, note=45, velocity=95, time=0),
    Message('note_on', channel=4, note=45, velocity=95, time=0),
    Message('note_on', channel=4, note=45, velocity=95, time=6),
    Message('note_on', channel=4, note=57, velocity=95, time=6),
    Message('note_on', channel=4, note=61, velocity=95, time=6),
    Message('note_on', channel=4, note=64, velocity=95, time=6),
    Message('note_on', channel=4, note=69, velocity=95, time=6),
    Message('note_off', channel=4, note=45, velocity=95, time=8),
    Message('note_off', channel=4, note=69, velocity=95, time=682),
    Message('note_off', channel=4, note=64, velocity=95, time=0),
    Message('note_off', channel=4, note=61, velocity=95, time=0),
    Message('note_off', channel=4, note=57, velocity=95, time=0),
    Message('note_off', channel=4, note=45, velocity=95, time=0),
    Message('note_on', channel=4, note=69, velocity=95, time=0),
    Message('note_on', channel=4, note=64, velocity=95, time=2),
    Message('note_on', channel=4, note=61, velocity=95, time=2),
    Message('note_on', channel=4, note=57, velocity=95, time=2),
    Message('note_on', channel=4, note=45, velocity=95, time=2),
    Message('note_on', channel=4, note=45, velocity=95, time=2),
    Message('note_off', channel=4, note=45, velocity=95, time=28),
    Message('note_off', channel=4, note=69, velocity=95, time=202),
    Message('note_off', channel=4, note=64, velocity=95, time=0),
    Message('note_off', channel=4, note=61, velocity=95, time=0),
    Message('note_off', channel=4, note=57, velocity=95, time=0),
    Message('note_off', channel=4, note=45, velocity=95, time=0),
    Message('note_on', channel=4, note=45, velocity=95, time=0),
    Message('note_on', channel=4, note=45, velocity=95, time=4),
    Message('note_on', channel=4, note=57, velocity=95, time=4),
    Message('note_on', channel=4, note=61, velocity=95, time=4),
    Message('note_on', channel=4, note=64, velocity=95, time=4),
    Message('note_on', channel=4, note=69, velocity=95, time=4),
    Message('note_off', channel=4, note=45, velocity=95, time=18),
    Message('note_off', channel=4, note=69, velocity=95, time=442),
    Message('note_off', channel=4, note=64, velocity=95, time=0),
    Message('note_off', channel=4, note=61, velocity=95, time=0),
    Message('note_off', channel=4, note=57, velocity=95, time=0),
    Message('note_off', channel=4, note=45, velocity=95, time=0),
    Message('note_on', channel=4, note=45, velocity=95, time=0),
    Message('note_on', channel=4, note=45, velocity=95, time=6),
    Message('note_on', channel=4, note=57, velocity=95, time=6),
    Message('note_on', channel=4, note=62, velocity=95, time=6),
    Message('note_on', channel=4, note=64, velocity=95, time=6),
    Message('note_on', channel=4, note=69, velocity=95, time=6),
    Message('note_off', channel=4, note=45, velocity=95, time=8),
    Message('note_off', channel=4, note=69, velocity=95, time=682),
    Message('note_off', channel=4, note=64, velocity=95, time=0),
    Message('note_off', channel=4, note=62, velocity=95, time=0),
    Message('note_off', channel=4, note=57, velocity=95, time=0),
    Message('note_off', channel=4, note=45, velocity=95, time=0),
    Message('note_on', channel=4, note=69, velocity=95, time=0),
    Message('note_on', channel=4, note=64, velocity=95, time=2),
    Message('note_on', channel=4, note=62, velocity=95, time=2),
    Message('note_on', channel=4, note=57, velocity=95, time=2),
    Message('note_on', channel=4, note=45, velocity=95, time=2),
    Message('note_on', channel=4, note=45, velocity=95, time=2),
    Message('note_off', channel=4, note=45, velocity=95, time=28),
    Message('note_off', channel=4, note=69, velocity=95, time=202),
    Message('note_off', channel=4, note=64, velocity=95, time=0),
    Message('note_off', channel=4, note=62, velocity=95, time=0),
    Message('note_off', channel=4, note=57, velocity=95, time=0),
    Message('note_off', channel=4, note=45, velocity=95, time=0),
    Message('note_on', channel=4, note=45, velocity=95, time=0),
    Message('note_on', channel=4, note=45, velocity=95, time=4),
    Message('note_on', channel=4, note=57, velocity=95, time=4),
    Message('note_on', channel=4, note=62, velocity=95, time=4),
    Message('note_on', channel=4, note=64, velocity=95, time=4),
    Message('note_on', channel=4, note=69, velocity=95, time=4),
    Message('note_off', channel=4, note=45, velocity=95, time=18),
    Message('note_off', channel=4, note=69, velocity=95, time=442),
    Message('note_off', channel=4, note=64, velocity=95, time=0),
    Message('note_off', channel=4, note=62, velocity=95, time=0),
    Message('note_off', channel=4, note=57, velocity=95, time=0),
    Message('note_off', channel=4, note=45, velocity=95, time=0),
    Message('note_on', channel=4, note=69, velocity=95, time=0),
    Message('note_on', channel=4, note=64, velocity=95, time=2),
    Message('note_on', channel=4, note=62, velocity=95, time=2),
    Message('note_on', channel=4, note=57, velocity=95, time=2),
    Message('note_on', channel=4, note=45, velocity=95, time=2),
    Message('note_on', channel=4, note=45, velocity=95, time=2),
    Message('note_off', channel=4, note=45, velocity=95, time=28),
    Message('note_off', channel=4, note=69, velocity=95, time=202),
    Message('note_off', channel=4, note=64, velocity=95, time=0),
    Message('note_off', channel=4, note=62, velocity=95, time=0),
    Message('note_off', channel=4, note=57, velocity=95, time=0),
    Message('note_off', channel=4, note=45, velocity=95, time=0),
    Message('note_on', channel=4, note=45, velocity=95, time=0),
    Message('note_on', channel=4, note=45, velocity=95, time=2),
    Message('note_on', channel=4, note=57, velocity=95, time=2),
    Message('note_on', channel=4, note=62, velocity=95, time=2),
    Message('note_on', channel=4, note=64, velocity=95, time=2),
    Message('note_on', channel=4, note=69, velocity=95, time=2),
    Message('note_off', channel=4, note=45, velocity=95, time=28),
    Message('note_off', channel=4, note=69, velocity=95, time=202),
    Message('note_off', channel=4, note=64, velocity=95, time=0),
    Message('note_off', channel=4, note=62, velocity=95, time=0),
    Message('note_off', channel=4, note=57, velocity=95, time=0),
    Message('note_off', channel=4, note=45, velocity=95, time=0),
    Message('note_on', channel=4, note=69, velocity=95, time=0),
    Message('note_on', channel=4, note=64, velocity=95, time=4),
    Message('note_on', channel=4, note=62, velocity=95, time=4),
    Message('note_on', channel=4, note=57, velocity=95, time=4),
    Message('note_on', channel=4, note=45, velocity=95, time=4),
    Message('note_on', channel=4, note=45, velocity=95, time=4),
    Message('note_off', channel=4, note=45, velocity=95, time=18),
    Message('note_off', channel=4, note=69, velocity=95, time=442),
    Message('note_off', channel=4, note=64, velocity=95, time=0),
    Message('note_off', channel=4, note=62, velocity=95, time=0),
    Message('note_off', channel=4, note=57, velocity=95, time=0),
    Message('note_off', channel=4, note=45, velocity=95, time=0),
    Message('note_on', channel=4, note=45, velocity=95, time=0),
    Message('note_on', channel=4, note=45, velocity=95, time=6),
    Message('note_on', channel=4, note=57, velocity=95, time=6),
    Message('note_on', channel=4, note=61, velocity=95, time=6),
    Message('note_on', channel=4, note=64, velocity=95, time=6),
    Message('note_on', channel=4, note=69, velocity=95, time=6),
    Message('note_off', channel=4, note=45, velocity=95, time=8),
    Message('note_off', channel=4, note=69, velocity=95, time=682),
    Message('note_off', channel=4, note=64, velocity=95, time=0),
    Message('note_off', channel=4, note=61, velocity=95, time=0),
    Message('note_off', channel=4, note=57, velocity=95, time=0),
    Message('note_off', channel=4, note=45, velocity=95, time=0),
    Message('note_on', channel=4, note=69, velocity=95, time=0),
    Message('note_on', channel=4, note=64, velocity=95, time=2),
    Message('note_on', channel=4, note=61, velocity=95, time=2),
    Message('note_on', channel=4, note=57, velocity=95, time=2),
    Message('note_on', channel=4, note=45, velocity=95, time=2),
    Message('note_on', channel=4, note=45, velocity=95, time=2),
    Message('note_off', channel=4, note=45, velocity=95, time=28),
    Message('note_off', channel=4, note=69, velocity=95, time=202),
    Message('note_off', channel=4, note=64, velocity=95, time=0),
    Message('note_off', channel=4, note=61, velocity=95, time=0),
    Message('note_off', channel=4, note=57, velocity=95, time=0),
    Message('note_off', channel=4, note=45, velocity=95, time=0),
    Message('note_on', channel=4, note=45, velocity=95, time=0),
    Message('note_on', channel=4, note=45, velocity=95, time=4),
    Message('note_on', channel=4, note=57, velocity=95, time=4),
    Message('note_on', channel=4, note=61, velocity=95, time=4),
    Message('note_on', channel=4, note=64, velocity=95, time=4),
    Message('note_on', channel=4, note=69, velocity=95, time=4),
    Message('note_off', channel=4, note=45, velocity=95, time=18),
    Message('note_off', channel=4, note=69, velocity=95, time=442),
    Message('note_off', channel=4, note=64, velocity=95, time=0),
    Message('note_off', channel=4, note=61, velocity=95, time=0),
    Message('note_off', channel=4, note=57, velocity=95, time=0),
    Message('note_off', channel=4, note=45, velocity=95, time=0),
    Message('note_on', channel=4, note=45, velocity=95, time=0),
    Message('note_on', channel=4, note=45, velocity=95, time=6),
    Message('note_on', channel=4, note=57, velocity=95, time=6),
    Message('note_on', channel=4, note=62, velocity=95, time=6),
    Message('note_on', channel=4, note=64, velocity=95, time=6),
    Message('note_on', channel=4, note=69, velocity=95, time=6),
    Message('note_off', channel=4, note=45, velocity=95, time=8),
    Message('note_off', channel=4, note=69, velocity=95, time=682),
    Message('note_off', channel=4, note=64, velocity=95, time=0),
    Message('note_off', channel=4, note=62, velocity=95, time=0),
    Message('note_off', channel=4, note=57, velocity=95, time=0),
    Message('note_off', channel=4, note=45, velocity=95, time=0),
    Message('note_on', channel=4, note=69, velocity=95, time=0),
    Message('note_on', channel=4, note=64, velocity=95, time=2),
    Message('note_on', channel=4, note=62, velocity=95, time=2),
    Message('note_on', channel=4, note=57, velocity=95, time=2),
    Message('note_on', channel=4, note=45, velocity=95, time=2),
    Message('note_on', channel=4, note=45, velocity=95, time=2),
    Message('note_off', channel=4, note=45, velocity=95, time=28),
    Message('note_off', channel=4, note=69, velocity=95, time=202),
    Message('note_off', channel=4, note=64, velocity=95, time=0),
    Message('note_off', channel=4, note=62, velocity=95, time=0),
    Message('note_off', channel=4, note=57, velocity=95, time=0),
    Message('note_off', channel=4, note=45, velocity=95, time=0),
    Message('note_on', channel=4, note=45, velocity=95, time=0),
    Message('note_on', channel=4, note=45, velocity=95, time=4),
    Message('note_on', channel=4, note=57, velocity=95, time=4),
    Message('note_on', channel=4, note=62, velocity=95, time=4),
    Message('note_on', channel=4, note=64, velocity=95, time=4),
    Message('note_on', channel=4, note=69, velocity=95, time=4),
    Message('note_off', channel=4, note=45, velocity=95, time=18),
    Message('note_off', channel=4, note=69, velocity=95, time=442),
    Message('note_off', channel=4, note=64, velocity=95, time=0),
    Message('note_off', channel=4, note=62, velocity=95, time=0),
    Message('note_off', channel=4, note=57, velocity=95, time=0),
    Message('note_off', channel=4, note=45, velocity=95, time=0),
    Message('note_on', channel=4, note=69, velocity=95, time=0),
    Message('note_on', channel=4, note=64, velocity=95, time=2),
    Message('note_on', channel=4, note=62, velocity=95, time=2),
    Message('note_on', channel=4, note=57, velocity=95, time=2),
    Message('note_on', channel=4, note=45, velocity=95, time=2),
    Message('note_on', channel=4, note=45, velocity=95, time=2),
    Message('note_off', channel=4, note=45, velocity=95, time=28),
    Message('note_off', channel=4, note=69, velocity=95, time=202),
    Message('note_off', channel=4, note=64, velocity=95, time=0),
    Message('note_off', channel=4, note=62, velocity=95, time=0),
    Message('note_off', channel=4, note=57, velocity=95, time=0),
    Message('note_off', channel=4, note=45, velocity=95, time=0),
    Message('note_on', channel=4, note=45, velocity=95, time=0),
    Message('note_on', channel=4, note=45, velocity=95, time=2),
    Message('note_on', channel=4, note=57, velocity=95, time=2),
    Message('note_on', channel=4, note=62, velocity=95, time=2),
    Message('note_on', channel=4, note=64, velocity=95, time=2),
    Message('note_on', channel=4, note=69, velocity=95, time=2),
    Message('note_off', channel=4, note=45, velocity=95, time=28),
    Message('note_off', channel=4, note=69, velocity=95, time=202),
    Message('note_off', channel=4, note=64, velocity=95, time=0),
    Message('note_off', channel=4, note=62, velocity=95, time=0),
    Message('note_off', channel=4, note=57, velocity=95, time=0),
    Message('note_off', channel=4, note=45, velocity=95, time=0),
    Message('note_on', channel=4, note=69, velocity=95, time=0),
    Message('note_on', channel=4, note=64, velocity=95, time=4),
    Message('note_on', channel=4, note=62, velocity=95, time=4),
    Message('note_on', channel=4, note=57, velocity=95, time=4),
    Message('note_on', channel=4, note=45, velocity=95, time=4),
    Message('note_on', channel=4, note=45, velocity=95, time=4),
    Message('note_off', channel=4, note=45, velocity=95, time=18),
    Message('note_off', channel=4, note=69, velocity=95, time=442),
    Message('note_off', channel=4, note=64, velocity=95, time=0),
    Message('note_off', channel=4, note=62, velocity=95, time=0),
    Message('note_off', channel=4, note=57, velocity=95, time=0),
    Message('note_off', channel=4, note=45, velocity=95, time=0),
    Message('note_on', channel=4, note=45, velocity=95, time=0),
    Message('note_on', channel=4, note=45, velocity=95, time=6),
    Message('note_on', channel=4, note=57, velocity=95, time=6),
    Message('note_on', channel=4, note=61, velocity=95, time=6),
    Message('note_on', channel=4, note=64, velocity=95, time=6),
    Message('note_on', channel=4, note=69, velocity=95, time=6),
    Message('note_off', channel=4, note=45, velocity=95, time=8),
    Message('note_off', channel=4, note=69, velocity=95, time=682),
    Message('note_off', channel=4, note=64, velocity=95, time=0),
    Message('note_off', channel=4, note=61, velocity=95, time=0),
    Message('note_off', channel=4, note=57, velocity=95, time=0),
    Message('note_off', channel=4, note=45, velocity=95, time=0),
    Message('note_on', channel=4, note=69, velocity=95, time=0),
    Message('note_on', channel=4, note=64, velocity=95, time=2),
    Message('note_on', channel=4, note=61, velocity=95, time=2),
    Message('note_on', channel=4, note=57, velocity=95, time=2),
    Message('note_on', channel=4, note=45, velocity=95, time=2),
    Message('note_on', channel=4, note=45, velocity=95, time=2),
    Message('note_off', channel=4, note=45, velocity=95, time=28),
    Message('note_off', channel=4, note=69, velocity=95, time=202),
    Message('note_off', channel=4, note=64, velocity=95, time=0),
    Message('note_off', channel=4, note=61, velocity=95, time=0),
    Message('note_off', channel=4, note=57, velocity=95, time=0),
    Message('note_off', channel=4, note=45, velocity=95, time=0),
    Message('note_on', channel=4, note=45, velocity=95, time=0),
    Message('note_on', channel=4, note=45, velocity=95, time=4),
    Message('note_on', channel=4, note=57, velocity=95, time=4),
    Message('note_on', channel=4, note=61, velocity=95, time=4),
    Message('note_on', channel=4, note=64, velocity=95, time=4),
    Message('note_on', channel=4, note=69, velocity=95, time=4),
    Message('note_off', channel=4, note=45, velocity=95, time=18),
    Message('note_off', channel=4, note=69, velocity=95, time=442),
    Message('note_off', channel=4, note=64, velocity=95, time=0),
    Message('note_off', channel=4, note=61, velocity=95, time=0),
    Message('note_off', channel=4, note=57, velocity=95, time=0),
    Message('note_off', channel=4, note=45, velocity=95, time=0),
    Message('note_on', channel=4, note=45, velocity=95, time=0),
    Message('note_on', channel=4, note=45, velocity=95, time=6),
    Message('note_on', channel=4, note=57, velocity=95, time=6),
    Message('note_on', channel=4, note=62, velocity=95, time=6),
    Message('note_on', channel=4, note=64, velocity=95, time=6),
    Message('note_on', channel=4, note=69, velocity=95, time=6),
    Message('note_off', channel=4, note=45, velocity=95, time=8),
    Message('note_off', channel=4, note=69, velocity=95, time=682),
    Message('note_off', channel=4, note=64, velocity=95, time=0),
    Message('note_off', channel=4, note=62, velocity=95, time=0),
    Message('note_off', channel=4, note=57, velocity=95, time=0),
    Message('note_off', channel=4, note=45, velocity=95, time=0),
    Message('note_on', channel=4, note=69, velocity=95, time=0),
    Message('note_on', channel=4, note=64, velocity=95, time=2),
    Message('note_on', channel=4, note=62, velocity=95, time=2),
    Message('note_on', channel=4, note=57, velocity=95, time=2),
    Message('note_on', channel=4, note=45, velocity=95, time=2),
    Message('note_on', channel=4, note=45, velocity=95, time=2),
    Message('note_off', channel=4, note=45, velocity=95, time=28),
    Message('note_off', channel=4, note=69, velocity=95, time=202),
    Message('note_off', channel=4, note=64, velocity=95, time=0),
    Message('note_off', channel=4, note=62, velocity=95, time=0),
    Message('note_off', channel=4, note=57, velocity=95, time=0),
    Message('note_off', channel=4, note=45, velocity=95, time=0),
    Message('note_on', channel=4, note=45, velocity=95, time=0),
    Message('note_on', channel=4, note=45, velocity=95, time=4),
    Message('note_on', channel=4, note=57, velocity=95, time=4),
    Message('note_on', channel=4, note=62, velocity=95, time=4),
    Message('note_on', channel=4, note=64, velocity=95, time=4),
    Message('note_on', channel=4, note=69, velocity=95, time=4),
    Message('note_off', channel=4, note=45, velocity=95, time=18),
    Message('note_off', channel=4, note=69, velocity=95, time=442),
    Message('note_off', channel=4, note=64, velocity=95, time=0),
    Message('note_off', channel=4, note=62, velocity=95, time=0),
    Message('note_off', channel=4, note=57, velocity=95, time=0),
    Message('note_off', channel=4, note=45, velocity=95, time=0),
    Message('note_on', channel=4, note=69, velocity=95, time=0),
    Message('note_on', channel=4, note=64, velocity=95, time=2),
    Message('note_on', channel=4, note=62, velocity=95, time=2),
    Message('note_on', channel=4, note=57, velocity=95, time=2),
    Message('note_on', channel=4, note=45, velocity=95, time=2),
    Message('note_on', channel=4, note=45, velocity=95, time=2),
    Message('note_off', channel=4, note=45, velocity=95, time=28),
    Message('note_off', channel=4, note=69, velocity=95, time=202),
    Message('note_off', channel=4, note=64, velocity=95, time=0),
    Message('note_off', channel=4, note=62, velocity=95, time=0),
    Message('note_off', channel=4, note=57, velocity=95, time=0),
    Message('note_off', channel=4, note=45, velocity=95, time=0),
    Message('note_on', channel=4, note=45, velocity=95, time=0),
    Message('note_on', channel=4, note=45, velocity=95, time=2),
    Message('note_on', channel=4, note=57, velocity=95, time=2),
    Message('note_on', channel=4, note=62, velocity=95, time=2),
    Message('note_on', channel=4, note=64, velocity=95, time=2),
    Message('note_on', channel=4, note=69, velocity=95, time=2),
    Message('note_off', channel=4, note=45, velocity=95, time=28),
    Message('note_off', channel=4, note=69, velocity=95, time=202),
    Message('note_off', channel=4, note=64, velocity=95, time=0),
    Message('note_off', channel=4, note=62, velocity=95, time=0),
    Message('note_off', channel=4, note=57, velocity=95, time=0),
    Message('note_off', channel=4, note=45, velocity=95, time=0),
    Message('note_on', channel=4, note=69, velocity=95, time=0),
    Message('note_on', channel=4, note=64, velocity=95, time=4),
    Message('note_on', channel=4, note=62, velocity=95, time=4),
    Message('note_on', channel=4, note=57, velocity=95, time=4),
    Message('note_on', channel=4, note=45, velocity=95, time=4),
    Message('note_on', channel=4, note=45, velocity=95, time=4),
    Message('note_off', channel=4, note=45, velocity=95, time=18),
    Message('note_off', channel=4, note=69, velocity=95, time=442),
    Message('note_off', channel=4, note=64, velocity=95, time=0),
    Message('note_off', channel=4, note=62, velocity=95, time=0),
    Message('note_off', channel=4, note=57, velocity=95, time=0),
    Message('note_off', channel=4, note=45, velocity=95, time=0),
    Message('note_on', channel=4, note=45, velocity=95, time=0),
    Message('note_on', channel=4, note=45, velocity=95, time=6),
    Message('note_on', channel=4, note=57, velocity=95, time=6),
    Message('note_on', channel=4, note=61, velocity=95, time=6),
    Message('note_on', channel=4, note=64, velocity=95, time=6),
    Message('note_on', channel=4, note=69, velocity=95, time=6),
    Message('note_off', channel=4, note=45, velocity=95, time=8),
    Message('note_off', channel=4, note=69, velocity=95, time=682),
    Message('note_off', channel=4, note=64, velocity=95, time=0),
    Message('note_off', channel=4, note=61, velocity=95, time=0),
    Message('note_off', channel=4, note=57, velocity=95, time=0),
    Message('note_off', channel=4, note=45, velocity=95, time=0),
    Message('note_on', channel=4, note=69, velocity=95, time=0),
    Message('note_on', channel=4, note=64, velocity=95, time=2),
    Message('note_on', channel=4, note=61, velocity=95, time=2),
    Message('note_on', channel=4, note=57, velocity=95, time=2),
    Message('note_on', channel=4, note=45, velocity=95, time=2),
    Message('note_on', channel=4, note=45, velocity=95, time=2),
    Message('note_off', channel=4, note=45, velocity=95, time=28),
    Message('note_off', channel=4, note=69, velocity=95, time=202),
    Message('note_off', channel=4, note=64, velocity=95, time=0),
    Message('note_off', channel=4, note=61, velocity=95, time=0),
    Message('note_off', channel=4, note=57, velocity=95, time=0),
    Message('note_off', channel=4, note=45, velocity=95, time=0),
    Message('note_on', channel=4, note=45, velocity=95, time=0),
    Message('note_on', channel=4, note=45, velocity=95, time=4),
    Message('note_on', channel=4, note=57, velocity=95, time=4),
    Message('note_on', channel=4, note=61, velocity=95, time=4),
    Message('note_on', channel=4, note=64, velocity=95, time=4),
    Message('note_on', channel=4, note=69, velocity=95, time=4),
    Message('note_off', channel=4, note=45, velocity=95, time=18),
    Message('note_off', channel=4, note=69, velocity=95, time=442),
    Message('note_off', channel=4, note=64, velocity=95, time=0),
    Message('note_off', channel=4, note=61, velocity=95, time=0),
    Message('note_off', channel=4, note=57, velocity=95, time=0),
    Message('note_off', channel=4, note=45, velocity=95, time=0),
    Message('note_on', channel=4, note=45, velocity=95, time=0),
    Message('note_on', channel=4, note=45, velocity=95, time=6),
    Message('note_on', channel=4, note=57, velocity=95, time=6),
    Message('note_on', channel=4, note=62, velocity=95, time=6),
    Message('note_on', channel=4, note=64, velocity=95, time=6),
    Message('note_on', channel=4, note=69, velocity=95, time=6),
    Message('note_off', channel=4, note=45, velocity=95, time=8),
    Message('note_off', channel=4, note=69, velocity=95, time=682),
    Message('note_off', channel=4, note=64, velocity=95, time=0),
    Message('note_off', channel=4, note=62, velocity=95, time=0),
    Message('note_off', channel=4, note=57, velocity=95, time=0),
    Message('note_off', channel=4, note=45, velocity=95, time=0),
    Message('note_on', channel=4, note=69, velocity=95, time=0),
    Message('note_on', channel=4, note=64, velocity=95, time=2),
    Message('note_on', channel=4, note=62, velocity=95, time=2),
    Message('note_on', channel=4, note=57, velocity=95, time=2),
    Message('note_on', channel=4, note=45, velocity=95, time=2),
    Message('note_on', channel=4, note=45, velocity=95, time=2),
    Message('note_off', channel=4, note=45, velocity=95, time=28),
    Message('note_off', channel=4, note=69, velocity=95, time=202),
    Message('note_off', channel=4, note=64, velocity=95, time=0),
    Message('note_off', channel=4, note=62, velocity=95, time=0),
    Message('note_off', channel=4, note=57, velocity=95, time=0),
    Message('note_off', channel=4, note=45, velocity=95, time=0),
    Message('note_on', channel=4, note=45, velocity=95, time=0),
    Message('note_on', channel=4, note=45, velocity=95, time=4),
    Message('note_on', channel=4, note=57, velocity=95, time=4),
    Message('note_on', channel=4, note=62, velocity=95, time=4),
    Message('note_on', channel=4, note=64, velocity=95, time=4),
    Message('note_on', channel=4, note=69, velocity=95, time=4),
    Message('note_off', channel=4, note=45, velocity=95, time=18),
    Message('note_off', channel=4, note=69, velocity=95, time=442),
    Message('note_off', channel=4, note=64, velocity=95, time=0),
    Message('note_off', channel=4, note=62, velocity=95, time=0),
    Message('note_off', channel=4, note=57, velocity=95, time=0),
    Message('note_off', channel=4, note=45, velocity=95, time=0),
    Message('note_on', channel=4, note=69, velocity=95, time=0),
    Message('note_on', channel=4, note=64, velocity=95, time=2),
    Message('note_on', channel=4, note=62, velocity=95, time=2),
    Message('note_on', channel=4, note=57, velocity=95, time=2),
    Message('note_on', channel=4, note=45, velocity=95, time=2),
    Message('note_on', channel=4, note=45, velocity=95, time=2),
    Message('note_off', channel=4, note=45, velocity=95, time=28),
    Message('note_off', channel=4, note=69, velocity=95, time=202),
    Message('note_off', channel=4, note=64, velocity=95, time=0),
    Message('note_off', channel=4, note=62, velocity=95, time=0),
    Message('note_off', channel=4, note=57, velocity=95, time=0),
    Message('note_off', channel=4, note=45, velocity=95, time=0),
    Message('note_on', channel=4, note=45, velocity=95, time=0),
    Message('note_on', channel=4, note=45, velocity=95, time=2),
    Message('note_on', channel=4, note=57, velocity=95, time=2),
    Message('note_on', channel=4, note=62, velocity=95, time=2),
    Message('note_on', channel=4, note=64, velocity=95, time=2),
    Message('note_on', channel=4, note=69, velocity=95, time=2),
    Message('note_off', channel=4, note=45, velocity=95, time=28),
    Message('note_off', channel=4, note=69, velocity=95, time=202),
    Message('note_off', channel=4, note=64, velocity=95, time=0),
    Message('note_off', channel=4, note=62, velocity=95, time=0),
    Message('note_off', channel=4, note=57, velocity=95, time=0),
    Message('note_off', channel=4, note=45, velocity=95, time=0),
    Message('note_on', channel=4, note=69, velocity=95, time=0),
    Message('note_on', channel=4, note=64, velocity=95, time=4),
    Message('note_on', channel=4, note=62, velocity=95, time=4),
    Message('note_on', channel=4, note=57, velocity=95, time=4),
    Message('note_on', channel=4, note=45, velocity=95, time=4),
    Message('note_on', channel=4, note=45, velocity=95, time=4),
    Message('note_off', channel=4, note=45, velocity=95, time=18),
    Message('note_off', channel=4, note=69, velocity=95, time=442),
    Message('note_off', channel=4, note=64, velocity=95, time=0),
    Message('note_off', channel=4, note=62, velocity=95, time=0),
    Message('note_off', channel=4, note=57, velocity=95, time=0),
    Message('note_off', channel=4, note=45, velocity=95, time=0),
    Message('note_on', channel=4, note=45, velocity=95, time=0),
    Message('note_on', channel=4, note=45, velocity=95, time=6),
    Message('note_on', channel=4, note=57, velocity=95, time=6),
    Message('note_on', channel=4, note=61, velocity=95, time=6),
    Message('note_on', channel=4, note=64, velocity=95, time=6),
    Message('note_on', channel=4, note=69, velocity=95, time=6),
    Message('note_off', channel=4, note=45, velocity=95, time=8),
    Message('note_off', channel=4, note=69, velocity=95, time=682),
    Message('note_off', channel=4, note=64, velocity=95, time=0),
    Message('note_off', channel=4, note=61, velocity=95, time=0),
    Message('note_off', channel=4, note=57, velocity=95, time=0),
    Message('note_off', channel=4, note=45, velocity=95, time=0),
    Message('note_on', channel=4, note=69, velocity=95, time=0),
    Message('note_on', channel=4, note=64, velocity=95, time=2),
    Message('note_on', channel=4, note=61, velocity=95, time=2),
    Message('note_on', channel=4, note=57, velocity=95, time=2),
    Message('note_on', channel=4, note=45, velocity=95, time=2),
    Message('note_on', channel=4, note=45, velocity=95, time=2),
    Message('note_off', channel=4, note=45, velocity=95, time=28),
    Message('note_off', channel=4, note=69, velocity=95, time=202),
    Message('note_off', channel=4, note=64, velocity=95, time=0),
    Message('note_off', channel=4, note=61, velocity=95, time=0),
    Message('note_off', channel=4, note=57, velocity=95, time=0),
    Message('note_off', channel=4, note=45, velocity=95, time=0),
    Message('note_on', channel=4, note=45, velocity=95, time=0),
    Message('note_on', channel=4, note=45, velocity=95, time=4),
    Message('note_on', channel=4, note=57, velocity=95, time=4),
    Message('note_on', channel=4, note=61, velocity=95, time=4),
    Message('note_on', channel=4, note=64, velocity=95, time=4),
    Message('note_on', channel=4, note=69, velocity=95, time=4),
    Message('note_off', channel=4, note=45, velocity=95, time=18),
    Message('note_off', channel=4, note=69, velocity=95, time=442),
    Message('note_off', channel=4, note=64, velocity=95, time=0),
    Message('note_off', channel=4, note=61, velocity=95, time=0),
    Message('note_off', channel=4, note=57, velocity=95, time=0),
    Message('note_off', channel=4, note=45, velocity=95, time=0),
    Message('note_on', channel=4, note=45, velocity=95, time=0),
    Message('note_on', channel=4, note=45, velocity=95, time=6),
    Message('note_on', channel=4, note=57, velocity=95, time=6),
    Message('note_on', channel=4, note=62, velocity=95, time=6),
    Message('note_on', channel=4, note=64, velocity=95, time=6),
    Message('note_on', channel=4, note=69, velocity=95, time=6),
    Message('note_off', channel=4, note=45, velocity=95, time=8),
    Message('note_off', channel=4, note=69, velocity=95, time=682),
    Message('note_off', channel=4, note=64, velocity=95, time=0),
    Message('note_off', channel=4, note=62, velocity=95, time=0),
    Message('note_off', channel=4, note=57, velocity=95, time=0),
    Message('note_off', channel=4, note=45, velocity=95, time=0),
    Message('note_on', channel=4, note=69, velocity=95, time=0),
    Message('note_on', channel=4, note=64, velocity=95, time=2),
    Message('note_on', channel=4, note=62, velocity=95, time=2),
    Message('note_on', channel=4, note=57, velocity=95, time=2),
    Message('note_on', channel=4, note=45, velocity=95, time=2),
    Message('note_on', channel=4, note=45, velocity=95, time=2),
    Message('note_off', channel=4, note=45, velocity=95, time=28),
    Message('note_off', channel=4, note=69, velocity=95, time=202),
    Message('note_off', channel=4, note=64, velocity=95, time=0),
    Message('note_off', channel=4, note=62, velocity=95, time=0),
    Message('note_off', channel=4, note=57, velocity=95, time=0),
    Message('note_off', channel=4, note=45, velocity=95, time=0),
    Message('note_on', channel=4, note=45, velocity=95, time=0),
    Message('note_on', channel=4, note=45, velocity=95, time=4),
    Message('note_on', channel=4, note=57, velocity=95, time=4),
    Message('note_on', channel=4, note=62, velocity=95, time=4),
    Message('note_on', channel=4, note=64, velocity=95, time=4),
    Message('note_on', channel=4, note=69, velocity=95, time=4),
    Message('note_off', channel=4, note=45, velocity=95, time=18),
    Message('note_off', channel=4, note=69, velocity=95, time=442),
    Message('note_off', channel=4, note=64, velocity=95, time=0),
    Message('note_off', channel=4, note=62, velocity=95, time=0),
    Message('note_off', channel=4, note=57, velocity=95, time=0),
    Message('note_off', channel=4, note=45, velocity=95, time=0),
    Message('note_on', channel=4, note=69, velocity=95, time=0),
    Message('note_on', channel=4, note=64, velocity=95, time=2),
    Message('note_on', channel=4, note=62, velocity=95, time=2),
    Message('note_on', channel=4, note=57, velocity=95, time=2),
    Message('note_on', channel=4, note=45, velocity=95, time=2),
    Message('note_on', channel=4, note=45, velocity=95, time=2),
    Message('note_off', channel=4, note=45, velocity=95, time=28),
    Message('note_off', channel=4, note=69, velocity=95, time=202),
    Message('note_off', channel=4, note=64, velocity=95, time=0),
    Message('note_off', channel=4, note=62, velocity=95, time=0),
    Message('note_off', channel=4, note=57, velocity=95, time=0),
    Message('note_off', channel=4, note=45, velocity=95, time=0),
    Message('note_on', channel=4, note=45, velocity=95, time=0),
    Message('note_on', channel=4, note=45, velocity=95, time=2),
    Message('note_on', channel=4, note=57, velocity=95, time=2),
    Message('note_on', channel=4, note=62, velocity=95, time=2),
    Message('note_on', channel=4, note=64, velocity=95, time=2),
    Message('note_on', channel=4, note=69, velocity=95, time=2),
    Message('note_off', channel=4, note=45, velocity=95, time=28),
    Message('note_off', channel=4, note=69, velocity=95, time=202),
    Message('note_off', channel=4, note=64, velocity=95, time=0),
    Message('note_off', channel=4, note=62, velocity=95, time=0),
    Message('note_off', channel=4, note=57, velocity=95, time=0),
    Message('note_off', channel=4, note=45, velocity=95, time=0),
    Message('note_on', channel=4, note=69, velocity=95, time=0),
    Message('note_on', channel=4, note=64, velocity=95, time=4),
    Message('note_on', channel=4, note=62, velocity=95, time=4),
    Message('note_on', channel=4, note=57, velocity=95, time=4),
    Message('note_on', channel=4, note=45, velocity=95, time=4),
    Message('note_on', channel=4, note=45, velocity=95, time=4),
    Message('note_off', channel=4, note=45, velocity=95, time=18),
    Message('note_off', channel=4, note=69, velocity=95, time=442),
    Message('note_off', channel=4, note=64, velocity=95, time=0),
    Message('note_off', channel=4, note=62, velocity=95, time=0),
    Message('note_off', channel=4, note=57, velocity=95, time=0),
    Message('note_off', channel=4, note=45, velocity=95, time=0),
    Message('note_on', channel=4, note=45, velocity=95, time=0),
    Message('note_on', channel=4, note=45, velocity=95, time=6),
    Message('note_on', channel=4, note=57, velocity=95, time=6),
    Message('note_on', channel=4, note=61, velocity=95, time=6),
    Message('note_on', channel=4, note=64, velocity=95, time=6),
    Message('note_on', channel=4, note=69, velocity=95, time=6),
    Message('note_off', channel=4, note=45, velocity=95, time=8),
    Message('note_off', channel=4, note=69, velocity=95, time=682),
    Message('note_off', channel=4, note=64, velocity=95, time=0),
    Message('note_off', channel=4, note=61, velocity=95, time=0),
    Message('note_off', channel=4, note=57, velocity=95, time=0),
    Message('note_off', channel=4, note=45, velocity=95, time=0),
    Message('note_on', channel=4, note=69, velocity=95, time=0),
    Message('note_on', channel=4, note=64, velocity=95, time=2),
    Message('note_on', channel=4, note=61, velocity=95, time=2),
    Message('note_on', channel=4, note=57, velocity=95, time=2),
    Message('note_on', channel=4, note=45, velocity=95, time=2),
    Message('note_on', channel=4, note=45, velocity=95, time=2),
    Message('note_off', channel=4, note=45, velocity=95, time=28),
    Message('note_off', channel=4, note=69, velocity=95, time=202),
    Message('note_off', channel=4, note=64, velocity=95, time=0),
    Message('note_off', channel=4, note=61, velocity=95, time=0),
    Message('note_off', channel=4, note=57, velocity=95, time=0),
    Message('note_off', channel=4, note=45, velocity=95, time=0),
    Message('note_on', channel=4, note=45, velocity=95, time=0),
    Message('note_on', channel=4, note=45, velocity=95, time=4),
    Message('note_on', channel=4, note=57, velocity=95, time=4),
    Message('note_on', channel=4, note=61, velocity=95, time=4),
    Message('note_on', channel=4, note=64, velocity=95, time=4),
    Message('note_on', channel=4, note=69, velocity=95, time=4),
    Message('note_off', channel=4, note=45, velocity=95, time=18),
    Message('note_off', channel=4, note=69, velocity=95, time=442),
    Message('note_off', channel=4, note=64, velocity=95, time=0),
    Message('note_off', channel=4, note=61, velocity=95, time=0),
    Message('note_off', channel=4, note=57, velocity=95, time=0),
    Message('note_off', channel=4, note=45, velocity=95, time=0),
    Message('note_on', channel=4, note=45, velocity=95, time=0),
    Message('note_on', channel=4, note=45, velocity=95, time=6),
    Message('note_on', channel=4, note=57, velocity=95, time=6),
    Message('note_on', channel=4, note=62, velocity=95, time=6),
    Message('note_on', channel=4, note=64, velocity=95, time=6),
    Message('note_on', channel=4, note=69, velocity=95, time=6),
    Message('note_off', channel=4, note=45, velocity=95, time=8),
    Message('note_off', channel=4, note=69, velocity=95, time=682),
    Message('note_off', channel=4, note=64, velocity=95, time=0),
    Message('note_off', channel=4, note=62, velocity=95, time=0),
    Message('note_off', channel=4, note=57, velocity=95, time=0),
    Message('note_off', channel=4, note=45, velocity=95, time=0),
    Message('note_on', channel=4, note=69, velocity=95, time=0),
    Message('note_on', channel=4, note=64, velocity=95, time=2),
    Message('note_on', channel=4, note=62, velocity=95, time=2),
    Message('note_on', channel=4, note=57, velocity=95, time=2),
    Message('note_on', channel=4, note=45, velocity=95, time=2),
    Message('note_on', channel=4, note=45, velocity=95, time=2),
    Message('note_off', channel=4, note=45, velocity=95, time=28),
    Message('note_off', channel=4, note=69, velocity=95, time=202),
    Message('note_off', channel=4, note=64, velocity=95, time=0),
    Message('note_off', channel=4, note=62, velocity=95, time=0),
    Message('note_off', channel=4, note=57, velocity=95, time=0),
    Message('note_off', channel=4, note=45, velocity=95, time=0),
    Message('note_on', channel=4, note=45, velocity=95, time=0),
    Message('note_on', channel=4, note=45, velocity=95, time=4),
    Message('note_on', channel=4, note=57, velocity=95, time=4),
    Message('note_on', channel=4, note=62, velocity=95, time=4),
    Message('note_on', channel=4, note=64, velocity=95, time=4),
    Message('note_on', channel=4, note=69, velocity=95, time=4),
    Message('note_off', channel=4, note=45, velocity=95, time=18),
    Message('note_off', channel=4, note=69, velocity=95, time=442),
    Message('note_off', channel=4, note=64, velocity=95, time=0),
    Message('note_off', channel=4, note=62, velocity=95, time=0),
    Message('note_off', channel=4, note=57, velocity=95, time=0),
    Message('note_off', channel=4, note=45, velocity=95, time=0),
    Message('note_on', channel=4, note=69, velocity=95, time=0),
    Message('note_on', channel=4, note=64, velocity=95, time=2),
    Message('note_on', channel=4, note=62, velocity=95, time=2),
    Message('note_on', channel=4, note=57, velocity=95, time=2),
    Message('note_on', channel=4, note=45, velocity=95, time=2),
    Message('note_on', channel=4, note=45, velocity=95, time=2),
    Message('note_off', channel=4, note=45, velocity=95, time=28),
    Message('note_off', channel=4, note=69, velocity=95, time=202),
    Message('note_off', channel=4, note=64, velocity=95, time=0),
    Message('note_off', channel=4, note=62, velocity=95, time=0),
    Message('note_off', channel=4, note=57, velocity=95, time=0),
    Message('note_off', channel=4, note=45, velocity=95, time=0),
    Message('note_on', channel=4, note=45, velocity=95, time=0),
    Message('note_on', channel=4, note=45, velocity=95, time=2),
    Message('note_on', channel=4, note=57, velocity=95, time=2),
    Message('note_on', channel=4, note=62, velocity=95, time=2),
    Message('note_on', channel=4, note=64, velocity=95, time=2),
    Message('note_on', channel=4, note=69, velocity=95, time=2),
    Message('note_off', channel=4, note=45, velocity=95, time=28),
    Message('note_off', channel=4, note=69, velocity=95, time=202),
    Message('note_off', channel=4, note=64, velocity=95, time=0),
    Message('note_off', channel=4, note=62, velocity=95, time=0),
    Message('note_off', channel=4, note=57, velocity=95, time=0),
    Message('note_off', channel=4, note=45, velocity=95, time=0),
    Message('note_on', channel=4, note=69, velocity=95, time=0),
    Message('note_on', channel=4, note=64, velocity=95, time=4),
    Message('note_on', channel=4, note=62, velocity=95, time=4),
    Message('note_on', channel=4, note=57, velocity=95, time=4),
    Message('note_on', channel=4, note=45, velocity=95, time=4),
    Message('note_on', channel=4, note=45, velocity=95, time=4),
    Message('note_off', channel=4, note=45, velocity=95, time=18),
    Message('note_off', channel=4, note=69, velocity=95, time=442),
    Message('note_off', channel=4, note=64, velocity=95, time=0),
    Message('note_off', channel=4, note=62, velocity=95, time=0),
    Message('note_off', channel=4, note=57, velocity=95, time=0),
    Message('note_off', channel=4, note=45, velocity=95, time=0),
    Message('note_on', channel=4, note=41, velocity=95, time=0),
    Message('note_on', channel=4, note=48, velocity=95, time=2),
    Message('note_on', channel=4, note=53, velocity=95, time=2),
    Message('note_on', channel=4, note=57, velocity=95, time=2),
    Message('note_on', channel=4, note=60, velocity=95, time=2),
    Message('note_on', channel=4, note=65, velocity=95, time=2),
    Message('note_off', channel=4, note=65, velocity=95, time=230),
    Message('note_off', channel=4, note=60, velocity=95, time=0),
    Message('note_off', channel=4, note=57, velocity=95, time=0),
    Message('note_off', channel=4, note=53, velocity=95, time=0),
    Message('note_off', channel=4, note=48, velocity=95, time=0),
    Message('note_off', channel=4, note=41, velocity=95, time=0),
    Message('note_on', channel=4, note=65, velocity=95, time=0),
    Message('note_on', channel=4, note=60, velocity=95, time=2),
    Message('note_on', channel=4, note=57, velocity=95, time=2),
    Message('note_on', channel=4, note=53, velocity=95, time=2),
    Message('note_on', channel=4, note=48, velocity=95, time=2),
    Message('note_on', channel=4, note=41, velocity=95, time=2),
    Message('note_off', channel=4, note=65, velocity=95, time=230),
    Message('note_off', channel=4, note=60, velocity=95, time=0),
    Message('note_off', channel=4, note=57, velocity=95, time=0),
    Message('note_off', channel=4, note=53, velocity=95, time=0),
    Message('note_off', channel=4, note=48, velocity=95, time=0),
    Message('note_off', channel=4, note=41, velocity=95, time=0),
    Message('note_on', channel=4, note=41, velocity=95, time=0),
    Message('note_on', channel=4, note=48, velocity=95, time=2),
    Message('note_on', channel=4, note=53, velocity=95, time=2),
    Message('note_on', channel=4, note=57, velocity=95, time=2),
    Message('note_on', channel=4, note=60, velocity=95, time=2),
    Message('note_on', channel=4, note=65, velocity=95, time=2),
    Message('note_off', channel=4, note=65, velocity=95, time=230),
    Message('note_off', channel=4, note=60, velocity=95, time=0),
    Message('note_off', channel=4, note=57, velocity=95, time=0),
    Message('note_off', channel=4, note=53, velocity=95, time=0),
    Message('note_off', channel=4, note=48, velocity=95, time=0),
    Message('note_off', channel=4, note=41, velocity=95, time=0),
    Message('note_on', channel=4, note=65, velocity=95, time=0),
    Message('note_on', channel=4, note=60, velocity=95, time=2),
    Message('note_on', channel=4, note=57, velocity=95, time=2),
    Message('note_on', channel=4, note=53, velocity=95, time=2),
    Message('note_on', channel=4, note=48, velocity=95, time=2),
    Message('note_on', channel=4, note=41, velocity=95, time=2),
    Message('note_off', channel=4, note=65, velocity=95, time=230),
    Message('note_off', channel=4, note=60, velocity=95, time=0),
    Message('note_off', channel=4, note=57, velocity=95, time=0),
    Message('note_off', channel=4, note=53, velocity=95, time=0),
    Message('note_off', channel=4, note=48, velocity=95, time=0),
    Message('note_off', channel=4, note=41, velocity=95, time=0),
    Message('note_on', channel=4, note=64, velocity=95, time=240),
    Message('note_on', channel=4, note=60, velocity=95, time=2),
    Message('note_on', channel=4, note=55, velocity=95, time=2),
    Message('note_on', channel=4, note=52, velocity=95, time=2),
    Message('note_on', channel=4, note=48, velocity=95, time=2),
    Message('note_off', channel=4, note=64, velocity=95, time=232),
    Message('note_off', channel=4, note=60, velocity=95, time=0),
    Message('note_off', channel=4, note=55, velocity=95, time=0),
    Message('note_off', channel=4, note=52, velocity=95, time=0),
    Message('note_off', channel=4, note=48, velocity=95, time=0),
    Message('note_on', channel=4, note=48, velocity=95, time=0),
    Message('note_on', channel=4, note=52, velocity=95, time=6),
    Message('note_on', channel=4, note=55, velocity=95, time=6),
    Message('note_on', channel=4, note=60, velocity=95, time=6),
    Message('note_on', channel=4, note=64, velocity=95, time=6),
    Message('note_off', channel=4, note=64, velocity=95, time=696),
    Message('note_off', channel=4, note=60, velocity=95, time=0),
    Message('note_off', channel=4, note=55, velocity=95, time=0),
    Message('note_off', channel=4, note=52, velocity=95, time=0),
    Message('note_off', channel=4, note=48, velocity=95, time=0),
    Message('note_on', channel=4, note=64, velocity=95, time=0),
    Message('note_on', channel=4, note=60, velocity=95, time=2),
    Message('note_on', channel=4, note=55, velocity=95, time=2),
    Message('note_on', channel=4, note=52, velocity=95, time=2),
    Message('note_on', channel=4, note=48, velocity=95, time=2),
    Message('note_off', channel=4, note=64, velocity=95, time=232),
    Message('note_off', channel=4, note=60, velocity=95, time=0),
    Message('note_off', channel=4, note=55, velocity=95, time=0),
    Message('note_off', channel=4, note=52, velocity=95, time=0),
    Message('note_off', channel=4, note=48, velocity=95, time=0),
    Message('note_on', channel=4, note=48, velocity=95, time=0),
    Message('note_on', channel=4, note=52, velocity=95, time=2),
    Message('note_on', channel=4, note=55, velocity=95, time=2),
    Message('note_on', channel=4, note=60, velocity=95, time=2),
    Message('note_on', channel=4, note=64, velocity=95, time=2),
    Message('note_off', channel=4, note=64, velocity=95, time=232),
    Message('note_off', channel=4, note=60, velocity=95, time=0),
    Message('note_off', channel=4, note=55, velocity=95, time=0),
    Message('note_off', channel=4, note=52, velocity=95, time=0),
    Message('note_off', channel=4, note=48, velocity=95, time=0),
    Message('note_on', channel=4, note=64, velocity=95, time=0),
    Message('note_on', channel=4, note=62, velocity=95, time=6),
    Message('note_on', channel=4, note=55, velocity=95, time=6),
    Message('note_on', channel=4, note=52, velocity=95, time=6),
    Message('note_on', channel=4, note=48, velocity=95, time=6),
    Message('note_off', channel=4, note=64, velocity=95, time=696),
    Message('note_off', channel=4, note=62, velocity=95, time=0),
    Message('note_off', channel=4, note=55, velocity=95, time=0),
    Message('note_off', channel=4, note=52, velocity=95, time=0),
    Message('note_off', channel=4, note=48, velocity=95, time=0),
    Message('note_on', channel=4, note=48, velocity=95, time=0),
    Message('note_on', channel=4, note=52, velocity=95, time=4),
    Message('note_on', channel=4, note=55, velocity=95, time=4),
    Message('note_on', channel=4, note=60, velocity=95, time=4),
    Message('note_on', channel=4, note=64, velocity=95, time=4),
    Message('note_off', channel=4, note=64, velocity=95, time=464),
    Message('note_off', channel=4, note=60, velocity=95, time=0),
    Message('note_off', channel=4, note=55, velocity=95, time=0),
    Message('note_off', channel=4, note=52, velocity=95, time=0),
    Message('note_off', channel=4, note=48, velocity=95, time=0),
    Message('note_on', channel=4, note=41, velocity=95, time=0),
    Message('note_on', channel=4, note=48, velocity=95, time=2),
    Message('note_on', channel=4, note=53, velocity=95, time=2),
    Message('note_on', channel=4, note=57, velocity=95, time=2),
    Message('note_on', channel=4, note=60, velocity=95, time=2),
    Message('note_on', channel=4, note=65, velocity=95, time=2),
    Message('note_off', channel=4, note=65, velocity=95, time=230),
    Message('note_off', channel=4, note=60, velocity=95, time=0),
    Message('note_off', channel=4, note=57, velocity=95, time=0),
    Message('note_off', channel=4, note=53, velocity=95, time=0),
    Message('note_off', channel=4, note=48, velocity=95, time=0),
    Message('note_off', channel=4, note=41, velocity=95, time=0),
    Message('note_on', channel=4, note=65, velocity=95, time=0),
    Message('note_on', channel=4, note=60, velocity=95, time=2),
    Message('note_on', channel=4, note=57, velocity=95, time=2),
    Message('note_on', channel=4, note=53, velocity=95, time=2),
    Message('note_on', channel=4, note=48, velocity=95, time=2),
    Message('note_on', channel=4, note=41, velocity=95, time=2),
    Message('note_off', channel=4, note=65, velocity=95, time=230),
    Message('note_off', channel=4, note=60, velocity=95, time=0),
    Message('note_off', channel=4, note=57, velocity=95, time=0),
    Message('note_off', channel=4, note=53, velocity=95, time=0),
    Message('note_off', channel=4, note=48, velocity=95, time=0),
    Message('note_off', channel=4, note=41, velocity=95, time=0),
    Message('note_on', channel=4, note=41, velocity=95, time=0),
    Message('note_on', channel=4, note=48, velocity=95, time=2),
    Message('note_on', channel=4, note=53, velocity=95, time=2),
    Message('note_on', channel=4, note=57, velocity=95, time=2),
    Message('note_on', channel=4, note=60, velocity=95, time=2),
    Message('note_on', channel=4, note=65, velocity=95, time=2),
    Message('note_off', channel=4, note=65, velocity=95, time=230),
    Message('note_off', channel=4, note=60, velocity=95, time=0),
    Message('note_off', channel=4, note=57, velocity=95, time=0),
    Message('note_off', channel=4, note=53, velocity=95, time=0),
    Message('note_off', channel=4, note=48, velocity=95, time=0),
    Message('note_off', channel=4, note=41, velocity=95, time=0),
    Message('note_on', channel=4, note=65, velocity=95, time=0),
    Message('note_on', channel=4, note=60, velocity=95, time=2),
    Message('note_on', channel=4, note=57, velocity=95, time=2),
    Message('note_on', channel=4, note=53, velocity=95, time=2),
    Message('note_on', channel=4, note=48, velocity=95, time=2),
    Message('note_on', channel=4, note=41, velocity=95, time=2),
    Message('note_off', channel=4, note=65, velocity=95, time=230),
    Message('note_off', channel=4, note=60, velocity=95, time=0),
    Message('note_off', channel=4, note=57, velocity=95, time=0),
    Message('note_off', channel=4, note=53, velocity=95, time=0),
    Message('note_off', channel=4, note=48, velocity=95, time=0),
    Message('note_off', channel=4, note=41, velocity=95, time=0),
    Message('note_on', channel=4, note=64, velocity=95, time=240),
    Message('note_on', channel=4, note=60, velocity=95, time=2),
    Message('note_on', channel=4, note=55, velocity=95, time=2),
    Message('note_on', channel=4, note=52, velocity=95, time=2),
    Message('note_on', channel=4, note=48, velocity=95, time=2),
    Message('note_off', channel=4, note=64, velocity=95, time=232),
    Message('note_off', channel=4, note=60, velocity=95, time=0),
    Message('note_off', channel=4, note=55, velocity=95, time=0),
    Message('note_off', channel=4, note=52, velocity=95, time=0),
    Message('note_off', channel=4, note=48, velocity=95, time=0),
    Message('note_on', channel=4, note=48, velocity=95, time=0),
    Message('note_on', channel=4, note=52, velocity=95, time=6),
    Message('note_on', channel=4, note=55, velocity=95, time=6),
    Message('note_on', channel=4, note=60, velocity=95, time=6),
    Message('note_on', channel=4, note=64, velocity=95, time=6),
    Message('note_off', channel=4, note=64, velocity=95, time=696),
    Message('note_off', channel=4, note=60, velocity=95, time=0),
    Message('note_off', channel=4, note=55, velocity=95, time=0),
    Message('note_off', channel=4, note=52, velocity=95, time=0),
    Message('note_off', channel=4, note=48, velocity=95, time=0),
    Message('note_on', channel=4, note=48, velocity=95, time=0),
    Message('note_on', channel=4, note=52, velocity=95, time=4),
    Message('note_on', channel=4, note=55, velocity=95, time=4),
    Message('note_on', channel=4, note=60, velocity=95, time=4),
    Message('note_on', channel=4, note=64, velocity=95, time=4),
    Message('note_off', channel=4, note=64, velocity=95, time=464),
    Message('note_off', channel=4, note=60, velocity=95, time=0),
    Message('note_off', channel=4, note=55, velocity=95, time=0),
    Message('note_off', channel=4, note=52, velocity=95, time=0),
    Message('note_off', channel=4, note=48, velocity=95, time=0),
    Message('note_on', channel=4, note=64, velocity=95, time=0),
    Message('note_on', channel=4, note=60, velocity=95, time=2),
    Message('note_on', channel=4, note=55, velocity=95, time=2),
    Message('note_on', channel=4, note=52, velocity=95, time=2),
    Message('note_on', channel=4, note=48, velocity=95, time=2),
    Message('note_off', channel=4, note=64, velocity=95, time=232),
    Message('note_off', channel=4, note=60, velocity=95, time=0),
    Message('note_off', channel=4, note=55, velocity=95, time=0),
    Message('note_off', channel=4, note=52, velocity=95, time=0),
    Message('note_off', channel=4, note=48, velocity=95, time=0),
    Message('note_on', channel=4, note=48, velocity=95, time=0),
    Message('note_on', channel=4, note=52, velocity=95, time=2),
    Message('note_on', channel=4, note=55, velocity=95, time=2),
    Message('note_on', channel=4, note=60, velocity=95, time=2),
    Message('note_on', channel=4, note=64, velocity=95, time=2),
    Message('note_off', channel=4, note=64, velocity=95, time=232),
    Message('note_off', channel=4, note=60, velocity=95, time=0),
    Message('note_off', channel=4, note=55, velocity=95, time=0),
    Message('note_off', channel=4, note=52, velocity=95, time=0),
    Message('note_off', channel=4, note=48, velocity=95, time=0),
    Message('note_on', channel=4, note=64, velocity=95, time=0),
    Message('note_on', channel=4, note=60, velocity=95, time=2),
    Message('note_on', channel=4, note=55, velocity=95, time=2),
    Message('note_on', channel=4, note=52, velocity=95, time=2),
    Message('note_on', channel=4, note=48, velocity=95, time=2),
    Message('note_off', channel=4, note=64, velocity=95, time=232),
    Message('note_off', channel=4, note=60, velocity=95, time=0),
    Message('note_off', channel=4, note=55, velocity=95, time=0),
    Message('note_off', channel=4, note=52, velocity=95, time=0),
    Message('note_off', channel=4, note=48, velocity=95, time=0),
    Message('note_on', channel=4, note=48, velocity=95, time=0),
    Message('note_on', channel=4, note=52, velocity=95, time=2),
    Message('note_on', channel=4, note=55, velocity=95, time=2),
    Message('note_on', channel=4, note=60, velocity=95, time=2),
    Message('note_on', channel=4, note=64, velocity=95, time=2),
    Message('note_off', channel=4, note=64, velocity=95, time=232),
    Message('note_off', channel=4, note=60, velocity=95, time=0),
    Message('note_off', channel=4, note=55, velocity=95, time=0),
    Message('note_off', channel=4, note=52, velocity=95, time=0),
    Message('note_off', channel=4, note=48, velocity=95, time=0),
    Message('note_on', channel=4, note=64, velocity=95, time=0),
    Message('note_on', channel=4, note=60, velocity=95, time=2),
    Message('note_on', channel=4, note=55, velocity=95, time=2),
    Message('note_on', channel=4, note=52, velocity=95, time=2),
    Message('note_on', channel=4, note=48, velocity=95, time=2),
    Message('note_off', channel=4, note=64, velocity=95, time=232),
    Message('note_off', channel=4, note=60, velocity=95, time=0),
    Message('note_off', channel=4, note=55, velocity=95, time=0),
    Message('note_off', channel=4, note=52, velocity=95, time=0),
    Message('note_off', channel=4, note=48, velocity=95, time=0),
    Message('note_on', channel=4, note=40, velocity=95, time=0),
    Message('note_on', channel=4, note=47, velocity=95, time=4),
    Message('note_on', channel=4, note=52, velocity=95, time=4),
    Message('note_on', channel=4, note=56, velocity=95, time=4),
    Message('note_on', channel=4, note=59, velocity=95, time=4),
    Message('note_on', channel=4, note=64, velocity=95, time=4),
    Message('note_off', channel=4, note=64, velocity=95, time=460),
    Message('note_off', channel=4, note=59, velocity=95, time=0),
    Message('note_off', channel=4, note=56, velocity=95, time=0),
    Message('note_off', channel=4, note=52, velocity=95, time=0),
    Message('note_off', channel=4, note=47, velocity=95, time=0),
    Message('note_off', channel=4, note=40, velocity=95, time=0),
    Message('note_on', channel=4, note=40, velocity=95, time=0),
    Message('note_on', channel=4, note=47, velocity=95, time=2),
    Message('note_on', channel=4, note=52, velocity=95, time=2),
    Message('note_on', channel=4, note=56, velocity=95, time=2),
    Message('note_on', channel=4, note=59, velocity=95, time=2),
    Message('note_on', channel=4, note=64, velocity=95, time=2),
    Message('note_off', channel=4, note=64, velocity=95, time=230),
    Message('note_off', channel=4, note=59, velocity=95, time=0),
    Message('note_off', channel=4, note=56, velocity=95, time=0),
    Message('note_off', channel=4, note=52, velocity=95, time=0),
    Message('note_off', channel=4, note=47, velocity=95, time=0),
    Message('note_off', channel=4, note=40, velocity=95, time=0),
    Message('note_on', channel=4, note=64, velocity=95, time=0),
    Message('note_on', channel=4, note=59, velocity=95, time=2),
    Message('note_on', channel=4, note=56, velocity=95, time=2),
    Message('note_on', channel=4, note=52, velocity=95, time=2),
    Message('note_on', channel=4, note=47, velocity=95, time=2),
    Message('note_on', channel=4, note=40, velocity=95, time=2),
    Message('note_off', channel=4, note=64, velocity=95, time=230),
    Message('note_off', channel=4, note=59, velocity=95, time=0),
    Message('note_off', channel=4, note=56, velocity=95, time=0),
    Message('note_off', channel=4, note=52, velocity=95, time=0),
    Message('note_off', channel=4, note=47, velocity=95, time=0),
    Message('note_off', channel=4, note=40, velocity=95, time=0),
    Message('note_on', channel=4, note=40, velocity=95, time=0),
    Message('note_on', channel=4, note=47, velocity=95, time=2),
    Message('note_on', channel=4, note=52, velocity=95, time=2),
    Message('note_on', channel=4, note=56, velocity=95, time=2),
    Message('note_on', channel=4, note=59, velocity=95, time=2),
    Message('note_on', channel=4, note=64, velocity=95, time=2),
    Message('note_off', channel=4, note=64, velocity=95, time=230),
    Message('note_off', channel=4, note=59, velocity=95, time=0),
    Message('note_off', channel=4, note=56, velocity=95, time=0),
    Message('note_off', channel=4, note=52, velocity=95, time=0),
    Message('note_off', channel=4, note=47, velocity=95, time=0),
    Message('note_off', channel=4, note=40, velocity=95, time=0),
    Message('note_on', channel=4, note=64, velocity=95, time=0),
    Message('note_on', channel=4, note=59, velocity=95, time=2),
    Message('note_on', channel=4, note=56, velocity=95, time=2),
    Message('note_on', channel=4, note=52, velocity=95, time=2),
    Message('note_on', channel=4, note=47, velocity=95, time=2),
    Message('note_on', channel=4, note=40, velocity=95, time=2),
    Message('note_off', channel=4, note=64, velocity=95, time=230),
    Message('note_off', channel=4, note=59, velocity=95, time=0),
    Message('note_off', channel=4, note=56, velocity=95, time=0),
    Message('note_off', channel=4, note=52, velocity=95, time=0),
    Message('note_off', channel=4, note=47, velocity=95, time=0),
    Message('note_off', channel=4, note=40, velocity=95, time=0),
    Message('note_on', channel=4, note=40, velocity=95, time=0),
    Message('note_on', channel=4, note=47, velocity=95, time=2),
    Message('note_on', channel=4, note=52, velocity=95, time=2),
    Message('note_on', channel=4, note=56, velocity=95, time=2),
    Message('note_on', channel=4, note=59, velocity=95, time=2),
    Message('note_on', channel=4, note=64, velocity=95, time=2),
    Message('note_off', channel=4, note=64, velocity=95, time=230),
    Message('note_off', channel=4, note=59, velocity=95, time=0),
    Message('note_off', channel=4, note=56, velocity=95, time=0),
    Message('note_off', channel=4, note=52, velocity=95, time=0),
    Message('note_off', channel=4, note=47, velocity=95, time=0),
    Message('note_off', channel=4, note=40, velocity=95, time=0),
    Message('note_on', channel=4, note=64, velocity=95, time=0),
    Message('note_on', channel=4, note=59, velocity=95, time=2),
    Message('note_on', channel=4, note=56, velocity=95, time=2),
    Message('note_on', channel=4, note=52, velocity=95, time=2),
    Message('note_on', channel=4, note=47, velocity=95, time=2),
    Message('note_on', channel=4, note=40, velocity=95, time=2),
    Message('note_off', channel=4, note=64, velocity=95, time=230),
    Message('note_off', channel=4, note=59, velocity=95, time=0),
    Message('note_off', channel=4, note=56, velocity=95, time=0),
    Message('note_off', channel=4, note=52, velocity=95, time=0),
    Message('note_off', channel=4, note=47, velocity=95, time=0),
    Message('note_off', channel=4, note=40, velocity=95, time=0),
    Message('note_on', channel=4, note=43, velocity=95, time=0),
    Message('note_on', channel=4, note=47, velocity=95, time=4),
    Message('note_on', channel=4, note=50, velocity=95, time=4),
    Message('note_on', channel=4, note=55, velocity=95, time=4),
    Message('note_on', channel=4, note=62, velocity=95, time=4),
    Message('note_on', channel=4, note=67, velocity=95, time=4),
    Message('note_off', channel=4, note=67, velocity=95, time=460),
    Message('note_off', channel=4, note=62, velocity=95, time=0),
    Message('note_off', channel=4, note=55, velocity=95, time=0),
    Message('note_off', channel=4, note=50, velocity=95, time=0),
    Message('note_off', channel=4, note=47, velocity=95, time=0),
    Message('note_off', channel=4, note=43, velocity=95, time=0),
    Message('note_on', channel=4, note=43, velocity=95, time=0),
    Message('note_on', channel=4, note=47, velocity=95, time=2),
    Message('note_on', channel=4, note=50, velocity=95, time=2),
    Message('note_on', channel=4, note=55, velocity=95, time=2),
    Message('note_on', channel=4, note=62, velocity=95, time=2),
    Message('note_on', channel=4, note=67, velocity=95, time=2),
    Message('note_off', channel=4, note=67, velocity=95, time=230),
    Message('note_off', channel=4, note=62, velocity=95, time=0),
    Message('note_off', channel=4, note=55, velocity=95, time=0),
    Message('note_off', channel=4, note=50, velocity=95, time=0),
    Message('note_off', channel=4, note=47, velocity=95, time=0),
    Message('note_off', channel=4, note=43, velocity=95, time=0),
    Message('note_on', channel=4, note=67, velocity=95, time=0),
    Message('note_on', channel=4, note=62, velocity=95, time=2),
    Message('note_on', channel=4, note=55, velocity=95, time=2),
    Message('note_on', channel=4, note=50, velocity=95, time=2),
    Message('note_on', channel=4, note=47, velocity=95, time=2),
    Message('note_on', channel=4, note=43, velocity=95, time=2),
    Message('note_off', channel=4, note=67, velocity=95, time=230),
    Message('note_off', channel=4, note=62, velocity=95, time=0),
    Message('note_off', channel=4, note=55, velocity=95, time=0),
    Message('note_off', channel=4, note=50, velocity=95, time=0),
    Message('note_off', channel=4, note=47, velocity=95, time=0),
    Message('note_off', channel=4, note=43, velocity=95, time=0),
    Message('note_on', channel=4, note=43, velocity=95, time=0),
    Message('note_on', channel=4, note=47, velocity=95, time=2),
    Message('note_on', channel=4, note=50, velocity=95, time=2),
    Message('note_on', channel=4, note=55, velocity=95, time=2),
    Message('note_on', channel=4, note=62, velocity=95, time=2),
    Message('note_on', channel=4, note=67, velocity=95, time=2),
    Message('note_off', channel=4, note=67, velocity=95, time=230),
    Message('note_off', channel=4, note=62, velocity=95, time=0),
    Message('note_off', channel=4, note=55, velocity=95, time=0),
    Message('note_off', channel=4, note=50, velocity=95, time=0),
    Message('note_off', channel=4, note=47, velocity=95, time=0),
    Message('note_off', channel=4, note=43, velocity=95, time=0),
    Message('note_on', channel=4, note=67, velocity=95, time=0),
    Message('note_on', channel=4, note=62, velocity=95, time=2),
    Message('note_on', channel=4, note=55, velocity=95, time=2),
    Message('note_on', channel=4, note=50, velocity=95, time=2),
    Message('note_on', channel=4, note=47, velocity=95, time=2),
    Message('note_on', channel=4, note=43, velocity=95, time=2),
    Message('note_off', channel=4, note=67, velocity=95, time=230),
    Message('note_off', channel=4, note=62, velocity=95, time=0),
    Message('note_off', channel=4, note=55, velocity=95, time=0),
    Message('note_off', channel=4, note=50, velocity=95, time=0),
    Message('note_off', channel=4, note=47, velocity=95, time=0),
    Message('note_off', channel=4, note=43, velocity=95, time=0),
    Message('note_on', channel=4, note=43, velocity=95, time=0),
    Message('note_on', channel=4, note=47, velocity=95, time=2),
    Message('note_on', channel=4, note=50, velocity=95, time=2),
    Message('note_on', channel=4, note=55, velocity=95, time=2),
    Message('note_on', channel=4, note=62, velocity=95, time=2),
    Message('note_on', channel=4, note=67, velocity=95, time=2),
    Message('note_off', channel=4, note=67, velocity=95, time=230),
    Message('note_off', channel=4, note=62, velocity=95, time=0),
    Message('note_off', channel=4, note=55, velocity=95, time=0),
    Message('note_off', channel=4, note=50, velocity=95, time=0),
    Message('note_off', channel=4, note=47, velocity=95, time=0),
    Message('note_off', channel=4, note=43, velocity=95, time=0),
    Message('note_on', channel=4, note=67, velocity=95, time=0),
    Message('note_on', channel=4, note=62, velocity=95, time=2),
    Message('note_on', channel=4, note=55, velocity=95, time=2),
    Message('note_on', channel=4, note=50, velocity=95, time=2),
    Message('note_on', channel=4, note=47, velocity=95, time=2),
    Message('note_on', channel=4, note=43, velocity=95, time=2),
    Message('note_off', channel=4, note=67, velocity=95, time=230),
    Message('note_off', channel=4, note=62, velocity=95, time=0),
    Message('note_off', channel=4, note=55, velocity=95, time=0),
    Message('note_off', channel=4, note=50, velocity=95, time=0),
    Message('note_off', channel=4, note=47, velocity=95, time=0),
    Message('note_off', channel=4, note=43, velocity=95, time=0),
    Message('note_on', channel=4, note=50, velocity=95, time=0),
    Message('note_on', channel=4, note=57, velocity=95, time=4),
    Message('note_on', channel=4, note=62, velocity=95, time=4),
    Message('note_on', channel=4, note=66, velocity=95, time=4),
    Message('note_off', channel=4, note=66, velocity=95, time=468),
    Message('note_off', channel=4, note=62, velocity=95, time=0),
    Message('note_off', channel=4, note=57, velocity=95, time=0),
    Message('note_off', channel=4, note=50, velocity=95, time=0),
    Message('note_on', channel=4, note=50, velocity=95, time=0),
    Message('note_on', channel=4, note=57, velocity=95, time=2),
    Message('note_on', channel=4, note=62, velocity=95, time=2),
    Message('note_on', channel=4, note=66, velocity=95, time=2),
    Message('note_off', channel=4, note=66, velocity=95, time=234),
    Message('note_off', channel=4, note=62, velocity=95, time=0),
    Message('note_off', channel=4, note=57, velocity=95, time=0),
    Message('note_off', channel=4, note=50, velocity=95, time=0),
    Message('note_on', channel=4, note=66, velocity=95, time=0),
    Message('note_on', channel=4, note=62, velocity=95, time=2),
    Message('note_on', channel=4, note=57, velocity=95, time=2),
    Message('note_on', channel=4, note=50, velocity=95, time=2),
    Message('note_off', channel=4, note=66, velocity=95, time=234),
    Message('note_off', channel=4, note=62, velocity=95, time=0),
    Message('note_off', channel=4, note=57, velocity=95, time=0),
    Message('note_off', channel=4, note=50, velocity=95, time=0),
    Message('note_on', channel=4, note=50, velocity=95, time=0),
    Message('note_on', channel=4, note=57, velocity=95, time=2),
    Message('note_on', channel=4, note=62, velocity=95, time=2),
    Message('note_on', channel=4, note=66, velocity=95, time=2),
    Message('note_off', channel=4, note=66, velocity=95, time=234),
    Message('note_off', channel=4, note=62, velocity=95, time=0),
    Message('note_off', channel=4, note=57, velocity=95, time=0),
    Message('note_off', channel=4, note=50, velocity=95, time=0),
    Message('note_on', channel=4, note=66, velocity=95, time=0),
    Message('note_on', channel=4, note=62, velocity=95, time=2),
    Message('note_on', channel=4, note=57, velocity=95, time=2),
    Message('note_on', channel=4, note=50, velocity=95, time=2),
    Message('note_off', channel=4, note=66, velocity=95, time=234),
    Message('note_off', channel=4, note=62, velocity=95, time=0),
    Message('note_off', channel=4, note=57, velocity=95, time=0),
    Message('note_off', channel=4, note=50, velocity=95, time=0),
    Message('note_on', channel=4, note=50, velocity=95, time=0),
    Message('note_on', channel=4, note=57, velocity=95, time=2),
    Message('note_on', channel=4, note=62, velocity=95, time=2),
    Message('note_on', channel=4, note=66, velocity=95, time=2),
    Message('note_off', channel=4, note=66, velocity=95, time=234),
    Message('note_off', channel=4, note=62, velocity=95, time=0),
    Message('note_off', channel=4, note=57, velocity=95, time=0),
    Message('note_off', channel=4, note=50, velocity=95, time=0),
    Message('note_on', channel=4, note=66, velocity=95, time=0),
    Message('note_on', channel=4, note=62, velocity=95, time=2),
    Message('note_on', channel=4, note=57, velocity=95, time=2),
    Message('note_on', channel=4, note=50, velocity=95, time=2),
    Message('note_off', channel=4, note=66, velocity=95, time=234),
    Message('note_off', channel=4, note=62, velocity=95, time=0),
    Message('note_off', channel=4, note=57, velocity=95, time=0),
    Message('note_off', channel=4, note=50, velocity=95, time=0),
    Message('note_on', channel=4, note=45, velocity=95, time=0),
    Message('note_on', channel=4, note=52, velocity=95, time=4),
    Message('note_on', channel=4, note=57, velocity=95, time=4),
    Message('note_on', channel=4, note=61, velocity=95, time=4),
    Message('note_on', channel=4, note=64, velocity=95, time=4),
    Message('note_off', channel=4, note=64, velocity=95, time=464),
    Message('note_off', channel=4, note=61, velocity=95, time=0),
    Message('note_off', channel=4, note=57, velocity=95, time=0),
    Message('note_off', channel=4, note=52, velocity=95, time=0),
    Message('note_off', channel=4, note=45, velocity=95, time=0),
    Message('note_on', channel=4, note=45, velocity=95, time=0),
    Message('note_on', channel=4, note=52, velocity=95, time=2),
    Message('note_on', channel=4, note=57, velocity=95, time=2),
    Message('note_on', channel=4, note=61, velocity=95, time=2),
    Message('note_on', channel=4, note=64, velocity=95, time=2),
    Message('note_off', channel=4, note=64, velocity=95, time=232),
    Message('note_off', channel=4, note=61, velocity=95, time=0),
    Message('note_off', channel=4, note=57, velocity=95, time=0),
    Message('note_off', channel=4, note=52, velocity=95, time=0),
    Message('note_off', channel=4, note=45, velocity=95, time=0),
    Message('note_on', channel=4, note=64, velocity=95, time=0),
    Message('note_on', channel=4, note=61, velocity=95, time=2),
    Message('note_on', channel=4, note=57, velocity=95, time=2),
    Message('note_on', channel=4, note=52, velocity=95, time=2),
    Message('note_on', channel=4, note=45, velocity=95, time=2),
    Message('note_off', channel=4, note=64, velocity=95, time=232),
    Message('note_off', channel=4, note=61, velocity=95, time=0),
    Message('note_off', channel=4, note=57, velocity=95, time=0),
    Message('note_off', channel=4, note=52, velocity=95, time=0),
    Message('note_off', channel=4, note=45, velocity=95, time=0),
    Message('note_on', channel=4, note=45, velocity=95, time=0),
    Message('note_on', channel=4, note=52, velocity=95, time=2),
    Message('note_on', channel=4, note=57, velocity=95, time=2),
    Message('note_on', channel=4, note=61, velocity=95, time=2),
    Message('note_on', channel=4, note=64, velocity=95, time=2),
    Message('note_off', channel=4, note=64, velocity=95, time=232),
    Message('note_off', channel=4, note=61, velocity=95, time=0),
    Message('note_off', channel=4, note=57, velocity=95, time=0),
    Message('note_off', channel=4, note=52, velocity=95, time=0),
    Message('note_off', channel=4, note=45, velocity=95, time=0),
    Message('note_on', channel=4, note=64, velocity=95, time=0),
    Message('note_on', channel=4, note=61, velocity=95, time=2),
    Message('note_on', channel=4, note=57, velocity=95, time=2),
    Message('note_on', channel=4, note=52, velocity=95, time=2),
    Message('note_on', channel=4, note=45, velocity=95, time=2),
    Message('note_off', channel=4, note=64, velocity=95, time=232),
    Message('note_off', channel=4, note=61, velocity=95, time=0),
    Message('note_off', channel=4, note=57, velocity=95, time=0),
    Message('note_off', channel=4, note=52, velocity=95, time=0),
    Message('note_off', channel=4, note=45, velocity=95, time=0),
    Message('note_on', channel=4, note=45, velocity=95, time=0),
    Message('note_on', channel=4, note=52, velocity=95, time=2),
    Message('note_on', channel=4, note=57, velocity=95, time=2),
    Message('note_on', channel=4, note=61, velocity=95, time=2),
    Message('note_on', channel=4, note=64, velocity=95, time=2),
    Message('note_off', channel=4, note=64, velocity=95, time=232),
    Message('note_off', channel=4, note=61, velocity=95, time=0),
    Message('note_off', channel=4, note=57, velocity=95, time=0),
    Message('note_off', channel=4, note=52, velocity=95, time=0),
    Message('note_off', channel=4, note=45, velocity=95, time=0),
    Message('note_on', channel=4, note=64, velocity=95, time=0),
    Message('note_on', channel=4, note=61, velocity=95, time=2),
    Message('note_on', channel=4, note=57, velocity=95, time=2),
    Message('note_on', channel=4, note=52, velocity=95, time=2),
    Message('note_on', channel=4, note=45, velocity=95, time=2),
    Message('note_off', channel=4, note=64, velocity=95, time=232),
    Message('note_off', channel=4, note=61, velocity=95, time=0),
    Message('note_off', channel=4, note=57, velocity=95, time=0),
    Message('note_off', channel=4, note=52, velocity=95, time=0),
    Message('note_off', channel=4, note=45, velocity=95, time=0),
    Message('note_on', channel=4, note=40, velocity=95, time=0),
    Message('note_on', channel=4, note=47, velocity=95, time=4),
    Message('note_on', channel=4, note=52, velocity=95, time=4),
    Message('note_on', channel=4, note=56, velocity=95, time=4),
    Message('note_on', channel=4, note=59, velocity=95, time=4),
    Message('note_on', channel=4, note=64, velocity=95, time=4),
    Message('note_off', channel=4, note=64, velocity=95, time=460),
    Message('note_off', channel=4, note=59, velocity=95, time=0),
    Message('note_off', channel=4, note=56, velocity=95, time=0),
    Message('note_off', channel=4, note=52, velocity=95, time=0),
    Message('note_off', channel=4, note=47, velocity=95, time=0),
    Message('note_off', channel=4, note=40, velocity=95, time=0),
    Message('note_on', channel=4, note=40, velocity=95, time=0),
    Message('note_on', channel=4, note=47, velocity=95, time=2),
    Message('note_on', channel=4, note=52, velocity=95, time=2),
    Message('note_on', channel=4, note=56, velocity=95, time=2),
    Message('note_on', channel=4, note=59, velocity=95, time=2),
    Message('note_on', channel=4, note=64, velocity=95, time=2),
    Message('note_off', channel=4, note=64, velocity=95, time=230),
    Message('note_off', channel=4, note=59, velocity=95, time=0),
    Message('note_off', channel=4, note=56, velocity=95, time=0),
    Message('note_off', channel=4, note=52, velocity=95, time=0),
    Message('note_off', channel=4, note=47, velocity=95, time=0),
    Message('note_off', channel=4, note=40, velocity=95, time=0),
    Message('note_on', channel=4, note=64, velocity=95, time=0),
    Message('note_on', channel=4, note=59, velocity=95, time=2),
    Message('note_on', channel=4, note=56, velocity=95, time=2),
    Message('note_on', channel=4, note=52, velocity=95, time=2),
    Message('note_on', channel=4, note=47, velocity=95, time=2),
    Message('note_on', channel=4, note=40, velocity=95, time=2),
    Message('note_off', channel=4, note=64, velocity=95, time=230),
    Message('note_off', channel=4, note=59, velocity=95, time=0),
    Message('note_off', channel=4, note=56, velocity=95, time=0),
    Message('note_off', channel=4, note=52, velocity=95, time=0),
    Message('note_off', channel=4, note=47, velocity=95, time=0),
    Message('note_off', channel=4, note=40, velocity=95, time=0),
    Message('note_on', channel=4, note=40, velocity=95, time=0),
    Message('note_on', channel=4, note=47, velocity=95, time=2),
    Message('note_on', channel=4, note=52, velocity=95, time=2),
    Message('note_on', channel=4, note=56, velocity=95, time=2),
    Message('note_on', channel=4, note=59, velocity=95, time=2),
    Message('note_on', channel=4, note=64, velocity=95, time=2),
    Message('note_off', channel=4, note=64, velocity=95, time=230),
    Message('note_off', channel=4, note=59, velocity=95, time=0),
    Message('note_off', channel=4, note=56, velocity=95, time=0),
    Message('note_off', channel=4, note=52, velocity=95, time=0),
    Message('note_off', channel=4, note=47, velocity=95, time=0),
    Message('note_off', channel=4, note=40, velocity=95, time=0),
    Message('note_on', channel=4, note=64, velocity=95, time=0),
    Message('note_on', channel=4, note=59, velocity=95, time=2),
    Message('note_on', channel=4, note=56, velocity=95, time=2),
    Message('note_on', channel=4, note=52, velocity=95, time=2),
    Message('note_on', channel=4, note=47, velocity=95, time=2),
    Message('note_on', channel=4, note=40, velocity=95, time=2),
    Message('note_off', channel=4, note=64, velocity=95, time=230),
    Message('note_off', channel=4, note=59, velocity=95, time=0),
    Message('note_off', channel=4, note=56, velocity=95, time=0),
    Message('note_off', channel=4, note=52, velocity=95, time=0),
    Message('note_off', channel=4, note=47, velocity=95, time=0),
    Message('note_off', channel=4, note=40, velocity=95, time=0),
    Message('note_on', channel=4, note=40, velocity=95, time=0),
    Message('note_on', channel=4, note=47, velocity=95, time=2),
    Message('note_on', channel=4, note=52, velocity=95, time=2),
    Message('note_on', channel=4, note=56, velocity=95, time=2),
    Message('note_on', channel=4, note=59, velocity=95, time=2),
    Message('note_on', channel=4, note=64, velocity=95, time=2),
    Message('note_off', channel=4, note=64, velocity=95, time=230),
    Message('note_off', channel=4, note=59, velocity=95, time=0),
    Message('note_off', channel=4, note=56, velocity=95, time=0),
    Message('note_off', channel=4, note=52, velocity=95, time=0),
    Message('note_off', channel=4, note=47, velocity=95, time=0),
    Message('note_off', channel=4, note=40, velocity=95, time=0),
    Message('note_on', channel=4, note=64, velocity=95, time=0),
    Message('note_on', channel=4, note=59, velocity=95, time=2),
    Message('note_on', channel=4, note=56, velocity=95, time=2),
    Message('note_on', channel=4, note=52, velocity=95, time=2),
    Message('note_on', channel=4, note=47, velocity=95, time=2),
    Message('note_on', channel=4, note=40, velocity=95, time=2),
    Message('note_off', channel=4, note=64, velocity=95, time=230),
    Message('note_off', channel=4, note=59, velocity=95, time=0),
    Message('note_off', channel=4, note=56, velocity=95, time=0),
    Message('note_off', channel=4, note=52, velocity=95, time=0),
    Message('note_off', channel=4, note=47, velocity=95, time=0),
    Message('note_off', channel=4, note=40, velocity=95, time=0),
    Message('note_on', channel=4, note=43, velocity=95, time=0),
    Message('note_on', channel=4, note=47, velocity=95, time=4),
    Message('note_on', channel=4, note=50, velocity=95, time=4),
    Message('note_on', channel=4, note=55, velocity=95, time=4),
    Message('note_on', channel=4, note=62, velocity=95, time=4),
    Message('note_on', channel=4, note=67, velocity=95, time=4),
    Message('note_off', channel=4, note=67, velocity=95, time=460),
    Message('note_off', channel=4, note=62, velocity=95, time=0),
    Message('note_off', channel=4, note=55, velocity=95, time=0),
    Message('note_off', channel=4, note=50, velocity=95, time=0),
    Message('note_off', channel=4, note=47, velocity=95, time=0),
    Message('note_off', channel=4, note=43, velocity=95, time=0),
    Message('note_on', channel=4, note=43, velocity=95, time=0),
    Message('note_on', channel=4, note=47, velocity=95, time=2),
    Message('note_on', channel=4, note=50, velocity=95, time=2),
    Message('note_on', channel=4, note=55, velocity=95, time=2),
    Message('note_on', channel=4, note=62, velocity=95, time=2),
    Message('note_on', channel=4, note=67, velocity=95, time=2),
    Message('note_off', channel=4, note=67, velocity=95, time=230),
    Message('note_off', channel=4, note=62, velocity=95, time=0),
    Message('note_off', channel=4, note=55, velocity=95, time=0),
    Message('note_off', channel=4, note=50, velocity=95, time=0),
    Message('note_off', channel=4, note=47, velocity=95, time=0),
    Message('note_off', channel=4, note=43, velocity=95, time=0),
    Message('note_on', channel=4, note=67, velocity=95, time=0),
    Message('note_on', channel=4, note=62, velocity=95, time=2),
    Message('note_on', channel=4, note=55, velocity=95, time=2),
    Message('note_on', channel=4, note=50, velocity=95, time=2),
    Message('note_on', channel=4, note=47, velocity=95, time=2),
    Message('note_on', channel=4, note=43, velocity=95, time=2),
    Message('note_off', channel=4, note=67, velocity=95, time=230),
    Message('note_off', channel=4, note=62, velocity=95, time=0),
    Message('note_off', channel=4, note=55, velocity=95, time=0),
    Message('note_off', channel=4, note=50, velocity=95, time=0),
    Message('note_off', channel=4, note=47, velocity=95, time=0),
    Message('note_off', channel=4, note=43, velocity=95, time=0),
    Message('note_on', channel=4, note=43, velocity=95, time=0),
    Message('note_on', channel=4, note=47, velocity=95, time=2),
    Message('note_on', channel=4, note=50, velocity=95, time=2),
    Message('note_on', channel=4, note=55, velocity=95, time=2),
    Message('note_on', channel=4, note=62, velocity=95, time=2),
    Message('note_on', channel=4, note=67, velocity=95, time=2),
    Message('note_off', channel=4, note=67, velocity=95, time=230),
    Message('note_off', channel=4, note=62, velocity=95, time=0),
    Message('note_off', channel=4, note=55, velocity=95, time=0),
    Message('note_off', channel=4, note=50, velocity=95, time=0),
    Message('note_off', channel=4, note=47, velocity=95, time=0),
    Message('note_off', channel=4, note=43, velocity=95, time=0),
    Message('note_on', channel=4, note=67, velocity=95, time=0),
    Message('note_on', channel=4, note=62, velocity=95, time=2),
    Message('note_on', channel=4, note=55, velocity=95, time=2),
    Message('note_on', channel=4, note=50, velocity=95, time=2),
    Message('note_on', channel=4, note=47, velocity=95, time=2),
    Message('note_on', channel=4, note=43, velocity=95, time=2),
    Message('note_off', channel=4, note=67, velocity=95, time=230),
    Message('note_off', channel=4, note=62, velocity=95, time=0),
    Message('note_off', channel=4, note=55, velocity=95, time=0),
    Message('note_off', channel=4, note=50, velocity=95, time=0),
    Message('note_off', channel=4, note=47, velocity=95, time=0),
    Message('note_off', channel=4, note=43, velocity=95, time=0),
    Message('note_on', channel=4, note=43, velocity=95, time=0),
    Message('note_on', channel=4, note=47, velocity=95, time=2),
    Message('note_on', channel=4, note=50, velocity=95, time=2),
    Message('note_on', channel=4, note=55, velocity=95, time=2),
    Message('note_on', channel=4, note=62, velocity=95, time=2),
    Message('note_on', channel=4, note=67, velocity=95, time=2),
    Message('note_off', channel=4, note=67, velocity=95, time=230),
    Message('note_off', channel=4, note=62, velocity=95, time=0),
    Message('note_off', channel=4, note=55, velocity=95, time=0),
    Message('note_off', channel=4, note=50, velocity=95, time=0),
    Message('note_off', channel=4, note=47, velocity=95, time=0),
    Message('note_off', channel=4, note=43, velocity=95, time=0),
    Message('note_on', channel=4, note=67, velocity=95, time=0),
    Message('note_on', channel=4, note=62, velocity=95, time=2),
    Message('note_on', channel=4, note=55, velocity=95, time=2),
    Message('note_on', channel=4, note=50, velocity=95, time=2),
    Message('note_on', channel=4, note=47, velocity=95, time=2),
    Message('note_on', channel=4, note=43, velocity=95, time=2),
    Message('note_off', channel=4, note=67, velocity=95, time=230),
    Message('note_off', channel=4, note=62, velocity=95, time=0),
    Message('note_off', channel=4, note=55, velocity=95, time=0),
    Message('note_off', channel=4, note=50, velocity=95, time=0),
    Message('note_off', channel=4, note=47, velocity=95, time=0),
    Message('note_off', channel=4, note=43, velocity=95, time=0),
    Message('note_on', channel=4, note=50, velocity=95, time=0),
    Message('note_on', channel=4, note=57, velocity=95, time=4),
    Message('note_on', channel=4, note=62, velocity=95, time=4),
    Message('note_on', channel=4, note=66, velocity=95, time=4),
    Message('note_off', channel=4, note=66, velocity=95, time=468),
    Message('note_off', channel=4, note=62, velocity=95, time=0),
    Message('note_off', channel=4, note=57, velocity=95, time=0),
    Message('note_off', channel=4, note=50, velocity=95, time=0),
    Message('note_on', channel=4, note=50, velocity=95, time=0),
    Message('note_on', channel=4, note=57, velocity=95, time=2),
    Message('note_on', channel=4, note=62, velocity=95, time=2),
    Message('note_on', channel=4, note=66, velocity=95, time=2),
    Message('note_off', channel=4, note=66, velocity=95, time=234),
    Message('note_off', channel=4, note=62, velocity=95, time=0),
    Message('note_off', channel=4, note=57, velocity=95, time=0),
    Message('note_off', channel=4, note=50, velocity=95, time=0),
    Message('note_on', channel=4, note=66, velocity=95, time=0),
    Message('note_on', channel=4, note=62, velocity=95, time=2),
    Message('note_on', channel=4, note=57, velocity=95, time=2),
    Message('note_on', channel=4, note=50, velocity=95, time=2),
    Message('note_off', channel=4, note=66, velocity=95, time=234),
    Message('note_off', channel=4, note=62, velocity=95, time=0),
    Message('note_off', channel=4, note=57, velocity=95, time=0),
    Message('note_off', channel=4, note=50, velocity=95, time=0),
    Message('note_on', channel=4, note=50, velocity=95, time=0),
    Message('note_on', channel=4, note=57, velocity=95, time=2),
    Message('note_on', channel=4, note=62, velocity=95, time=2),
    Message('note_on', channel=4, note=66, velocity=95, time=2),
    Message('note_off', channel=4, note=66, velocity=95, time=234),
    Message('note_off', channel=4, note=62, velocity=95, time=0),
    Message('note_off', channel=4, note=57, velocity=95, time=0),
    Message('note_off', channel=4, note=50, velocity=95, time=0),
    Message('note_on', channel=4, note=66, velocity=95, time=0),
    Message('note_on', channel=4, note=62, velocity=95, time=2),
    Message('note_on', channel=4, note=57, velocity=95, time=2),
    Message('note_on', channel=4, note=50, velocity=95, time=2),
    Message('note_off', channel=4, note=66, velocity=95, time=234),
    Message('note_off', channel=4, note=62, velocity=95, time=0),
    Message('note_off', channel=4, note=57, velocity=95, time=0),
    Message('note_off', channel=4, note=50, velocity=95, time=0),
    Message('note_on', channel=4, note=50, velocity=95, time=0),
    Message('note_on', channel=4, note=57, velocity=95, time=2),
    Message('note_on', channel=4, note=62, velocity=95, time=2),
    Message('note_on', channel=4, note=66, velocity=95, time=2),
    Message('note_off', channel=4, note=66, velocity=95, time=234),
    Message('note_off', channel=4, note=62, velocity=95, time=0),
    Message('note_off', channel=4, note=57, velocity=95, time=0),
    Message('note_off', channel=4, note=50, velocity=95, time=0),
    Message('note_on', channel=4, note=66, velocity=95, time=0),
    Message('note_on', channel=4, note=62, velocity=95, time=2),
    Message('note_on', channel=4, note=57, velocity=95, time=2),
    Message('note_on', channel=4, note=50, velocity=95, time=2),
    Message('note_off', channel=4, note=66, velocity=95, time=234),
    Message('note_off', channel=4, note=62, velocity=95, time=0),
    Message('note_off', channel=4, note=57, velocity=95, time=0),
    Message('note_off', channel=4, note=50, velocity=95, time=0),
    Message('note_on', channel=4, note=45, velocity=95, time=0),
    Message('note_on', channel=4, note=52, velocity=95, time=4),
    Message('note_on', channel=4, note=57, velocity=95, time=4),
    Message('note_on', channel=4, note=61, velocity=95, time=4),
    Message('note_on', channel=4, note=64, velocity=95, time=4),
    Message('note_off', channel=4, note=64, velocity=95, time=464),
    Message('note_off', channel=4, note=61, velocity=95, time=0),
    Message('note_off', channel=4, note=57, velocity=95, time=0),
    Message('note_off', channel=4, note=52, velocity=95, time=0),
    Message('note_off', channel=4, note=45, velocity=95, time=0),
    Message('note_on', channel=4, note=45, velocity=95, time=0),
    Message('note_on', channel=4, note=52, velocity=95, time=2),
    Message('note_on', channel=4, note=57, velocity=95, time=2),
    Message('note_on', channel=4, note=61, velocity=95, time=2),
    Message('note_on', channel=4, note=64, velocity=95, time=2),
    Message('note_off', channel=4, note=64, velocity=95, time=232),
    Message('note_off', channel=4, note=61, velocity=95, time=0),
    Message('note_off', channel=4, note=57, velocity=95, time=0),
    Message('note_off', channel=4, note=52, velocity=95, time=0),
    Message('note_off', channel=4, note=45, velocity=95, time=0),
    Message('note_on', channel=4, note=64, velocity=95, time=0),
    Message('note_on', channel=4, note=61, velocity=95, time=2),
    Message('note_on', channel=4, note=57, velocity=95, time=2),
    Message('note_on', channel=4, note=52, velocity=95, time=2),
    Message('note_on', channel=4, note=45, velocity=95, time=2),
    Message('note_off', channel=4, note=64, velocity=95, time=232),
    Message('note_off', channel=4, note=61, velocity=95, time=0),
    Message('note_off', channel=4, note=57, velocity=95, time=0),
    Message('note_off', channel=4, note=52, velocity=95, time=0),
    Message('note_off', channel=4, note=45, velocity=95, time=0),
    Message('note_on', channel=4, note=45, velocity=95, time=0),
    Message('note_on', channel=4, note=52, velocity=95, time=2),
    Message('note_on', channel=4, note=57, velocity=95, time=2),
    Message('note_on', channel=4, note=61, velocity=95, time=2),
    Message('note_on', channel=4, note=64, velocity=95, time=2),
    Message('note_off', channel=4, note=64, velocity=95, time=232),
    Message('note_off', channel=4, note=61, velocity=95, time=0),
    Message('note_off', channel=4, note=57, velocity=95, time=0),
    Message('note_off', channel=4, note=52, velocity=95, time=0),
    Message('note_off', channel=4, note=45, velocity=95, time=0),
    Message('note_on', channel=4, note=64, velocity=95, time=0),
    Message('note_on', channel=4, note=61, velocity=95, time=2),
    Message('note_on', channel=4, note=57, velocity=95, time=2),
    Message('note_on', channel=4, note=52, velocity=95, time=2),
    Message('note_on', channel=4, note=45, velocity=95, time=2),
    Message('note_off', channel=4, note=64, velocity=95, time=232),
    Message('note_off', channel=4, note=61, velocity=95, time=0),
    Message('note_off', channel=4, note=57, velocity=95, time=0),
    Message('note_off', channel=4, note=52, velocity=95, time=0),
    Message('note_off', channel=4, note=45, velocity=95, time=0),
    Message('note_on', channel=4, note=45, velocity=95, time=0),
    Message('note_on', channel=4, note=52, velocity=95, time=2),
    Message('note_on', channel=4, note=57, velocity=95, time=2),
    Message('note_on', channel=4, note=61, velocity=95, time=2),
    Message('note_on', channel=4, note=64, velocity=95, time=2),
    Message('note_off', channel=4, note=64, velocity=95, time=232),
    Message('note_off', channel=4, note=61, velocity=95, time=0),
    Message('note_off', channel=4, note=57, velocity=95, time=0),
    Message('note_off', channel=4, note=52, velocity=95, time=0),
    Message('note_off', channel=4, note=45, velocity=95, time=0),
    Message('note_on', channel=4, note=64, velocity=95, time=0),
    Message('note_on', channel=4, note=61, velocity=95, time=2),
    Message('note_on', channel=4, note=57, velocity=95, time=2),
    Message('note_on', channel=4, note=52, velocity=95, time=2),
    Message('note_on', channel=4, note=45, velocity=95, time=2),
    Message('note_off', channel=4, note=64, velocity=95, time=232),
    Message('note_off', channel=4, note=61, velocity=95, time=0),
    Message('note_off', channel=4, note=57, velocity=95, time=0),
    Message('note_off', channel=4, note=52, velocity=95, time=0),
    Message('note_off', channel=4, note=45, velocity=95, time=0),
    Message('note_on', channel=4, note=40, velocity=95, time=0),
    Message('note_on', channel=4, note=47, velocity=95, time=4),
    Message('note_on', channel=4, note=52, velocity=95, time=4),
    Message('note_on', channel=4, note=56, velocity=95, time=4),
    Message('note_on', channel=4, note=59, velocity=95, time=4),
    Message('note_on', channel=4, note=64, velocity=95, time=4),
    Message('note_off', channel=4, note=64, velocity=95, time=460),
    Message('note_off', channel=4, note=59, velocity=95, time=0),
    Message('note_off', channel=4, note=56, velocity=95, time=0),
    Message('note_off', channel=4, note=52, velocity=95, time=0),
    Message('note_off', channel=4, note=47, velocity=95, time=0),
    Message('note_off', channel=4, note=40, velocity=95, time=0),
    Message('note_on', channel=4, note=40, velocity=95, time=0),
    Message('note_on', channel=4, note=47, velocity=95, time=2),
    Message('note_on', channel=4, note=52, velocity=95, time=2),
    Message('note_on', channel=4, note=56, velocity=95, time=2),
    Message('note_on', channel=4, note=59, velocity=95, time=2),
    Message('note_on', channel=4, note=64, velocity=95, time=2),
    Message('note_off', channel=4, note=64, velocity=95, time=230),
    Message('note_off', channel=4, note=59, velocity=95, time=0),
    Message('note_off', channel=4, note=56, velocity=95, time=0),
    Message('note_off', channel=4, note=52, velocity=95, time=0),
    Message('note_off', channel=4, note=47, velocity=95, time=0),
    Message('note_off', channel=4, note=40, velocity=95, time=0),
    Message('note_on', channel=4, note=64, velocity=95, time=0),
    Message('note_on', channel=4, note=59, velocity=95, time=2),
    Message('note_on', channel=4, note=56, velocity=95, time=2),
    Message('note_on', channel=4, note=52, velocity=95, time=2),
    Message('note_on', channel=4, note=47, velocity=95, time=2),
    Message('note_on', channel=4, note=40, velocity=95, time=2),
    Message('note_off', channel=4, note=64, velocity=95, time=230),
    Message('note_off', channel=4, note=59, velocity=95, time=0),
    Message('note_off', channel=4, note=56, velocity=95, time=0),
    Message('note_off', channel=4, note=52, velocity=95, time=0),
    Message('note_off', channel=4, note=47, velocity=95, time=0),
    Message('note_off', channel=4, note=40, velocity=95, time=0),
    Message('note_on', channel=4, note=40, velocity=95, time=0),
    Message('note_on', channel=4, note=47, velocity=95, time=2),
    Message('note_on', channel=4, note=52, velocity=95, time=2),
    Message('note_on', channel=4, note=56, velocity=95, time=2),
    Message('note_on', channel=4, note=59, velocity=95, time=2),
    Message('note_on', channel=4, note=64, velocity=95, time=2),
    Message('note_off', channel=4, note=64, velocity=95, time=230),
    Message('note_off', channel=4, note=59, velocity=95, time=0),
    Message('note_off', channel=4, note=56, velocity=95, time=0),
    Message('note_off', channel=4, note=52, velocity=95, time=0),
    Message('note_off', channel=4, note=47, velocity=95, time=0),
    Message('note_off', channel=4, note=40, velocity=95, time=0),
    Message('note_on', channel=4, note=64, velocity=95, time=0),
    Message('note_on', channel=4, note=59, velocity=95, time=2),
    Message('note_on', channel=4, note=56, velocity=95, time=2),
    Message('note_on', channel=4, note=52, velocity=95, time=2),
    Message('note_on', channel=4, note=47, velocity=95, time=2),
    Message('note_on', channel=4, note=40, velocity=95, time=2),
    Message('note_off', channel=4, note=64, velocity=95, time=230),
    Message('note_off', channel=4, note=59, velocity=95, time=0),
    Message('note_off', channel=4, note=56, velocity=95, time=0),
    Message('note_off', channel=4, note=52, velocity=95, time=0),
    Message('note_off', channel=4, note=47, velocity=95, time=0),
    Message('note_off', channel=4, note=40, velocity=95, time=0),
    Message('note_on', channel=4, note=40, velocity=95, time=0),
    Message('note_on', channel=4, note=47, velocity=95, time=2),
    Message('note_on', channel=4, note=52, velocity=95, time=2),
    Message('note_on', channel=4, note=56, velocity=95, time=2),
    Message('note_on', channel=4, note=59, velocity=95, time=2),
    Message('note_on', channel=4, note=64, velocity=95, time=2),
    Message('note_off', channel=4, note=64, velocity=95, time=230),
    Message('note_off', channel=4, note=59, velocity=95, time=0),
    Message('note_off', channel=4, note=56, velocity=95, time=0),
    Message('note_off', channel=4, note=52, velocity=95, time=0),
    Message('note_off', channel=4, note=47, velocity=95, time=0),
    Message('note_off', channel=4, note=40, velocity=95, time=0),
    Message('note_on', channel=4, note=64, velocity=95, time=0),
    Message('note_on', channel=4, note=59, velocity=95, time=2),
    Message('note_on', channel=4, note=56, velocity=95, time=2),
    Message('note_on', channel=4, note=52, velocity=95, time=2),
    Message('note_on', channel=4, note=47, velocity=95, time=2),
    Message('note_on', channel=4, note=40, velocity=95, time=2),
    Message('note_off', channel=4, note=64, velocity=95, time=230),
    Message('note_off', channel=4, note=59, velocity=95, time=0),
    Message('note_off', channel=4, note=56, velocity=95, time=0),
    Message('note_off', channel=4, note=52, velocity=95, time=0),
    Message('note_off', channel=4, note=47, velocity=95, time=0),
    Message('note_off', channel=4, note=40, velocity=95, time=0),
    Message('note_on', channel=4, note=43, velocity=95, time=0),
    Message('note_on', channel=4, note=47, velocity=95, time=4),
    Message('note_on', channel=4, note=50, velocity=95, time=4),
    Message('note_on', channel=4, note=55, velocity=95, time=4),
    Message('note_on', channel=4, note=62, velocity=95, time=4),
    Message('note_on', channel=4, note=67, velocity=95, time=4),
    Message('note_off', channel=4, note=67, velocity=95, time=460),
    Message('note_off', channel=4, note=62, velocity=95, time=0),
    Message('note_off', channel=4, note=55, velocity=95, time=0),
    Message('note_off', channel=4, note=50, velocity=95, time=0),
    Message('note_off', channel=4, note=47, velocity=95, time=0),
    Message('note_off', channel=4, note=43, velocity=95, time=0),
    Message('note_on', channel=4, note=43, velocity=95, time=0),
    Message('note_on', channel=4, note=47, velocity=95, time=2),
    Message('note_on', channel=4, note=50, velocity=95, time=2),
    Message('note_on', channel=4, note=55, velocity=95, time=2),
    Message('note_on', channel=4, note=62, velocity=95, time=2),
    Message('note_on', channel=4, note=67, velocity=95, time=2),
    Message('note_off', channel=4, note=67, velocity=95, time=230),
    Message('note_off', channel=4, note=62, velocity=95, time=0),
    Message('note_off', channel=4, note=55, velocity=95, time=0),
    Message('note_off', channel=4, note=50, velocity=95, time=0),
    Message('note_off', channel=4, note=47, velocity=95, time=0),
    Message('note_off', channel=4, note=43, velocity=95, time=0),
    Message('note_on', channel=4, note=67, velocity=95, time=0),
    Message('note_on', channel=4, note=62, velocity=95, time=2),
    Message('note_on', channel=4, note=55, velocity=95, time=2),
    Message('note_on', channel=4, note=50, velocity=95, time=2),
    Message('note_on', channel=4, note=47, velocity=95, time=2),
    Message('note_on', channel=4, note=43, velocity=95, time=2),
    Message('note_off', channel=4, note=67, velocity=95, time=230),
    Message('note_off', channel=4, note=62, velocity=95, time=0),
    Message('note_off', channel=4, note=55, velocity=95, time=0),
    Message('note_off', channel=4, note=50, velocity=95, time=0),
    Message('note_off', channel=4, note=47, velocity=95, time=0),
    Message('note_off', channel=4, note=43, velocity=95, time=0),
    Message('note_on', channel=4, note=43, velocity=95, time=0),
    Message('note_on', channel=4, note=47, velocity=95, time=2),
    Message('note_on', channel=4, note=50, velocity=95, time=2),
    Message('note_on', channel=4, note=55, velocity=95, time=2),
    Message('note_on', channel=4, note=62, velocity=95, time=2),
    Message('note_on', channel=4, note=67, velocity=95, time=2),
    Message('note_off', channel=4, note=67, velocity=95, time=230),
    Message('note_off', channel=4, note=62, velocity=95, time=0),
    Message('note_off', channel=4, note=55, velocity=95, time=0),
    Message('note_off', channel=4, note=50, velocity=95, time=0),
    Message('note_off', channel=4, note=47, velocity=95, time=0),
    Message('note_off', channel=4, note=43, velocity=95, time=0),
    Message('note_on', channel=4, note=67, velocity=95, time=0),
    Message('note_on', channel=4, note=62, velocity=95, time=2),
    Message('note_on', channel=4, note=55, velocity=95, time=2),
    Message('note_on', channel=4, note=50, velocity=95, time=2),
    Message('note_on', channel=4, note=47, velocity=95, time=2),
    Message('note_on', channel=4, note=43, velocity=95, time=2),
    Message('note_off', channel=4, note=67, velocity=95, time=230),
    Message('note_off', channel=4, note=62, velocity=95, time=0),
    Message('note_off', channel=4, note=55, velocity=95, time=0),
    Message('note_off', channel=4, note=50, velocity=95, time=0),
    Message('note_off', channel=4, note=47, velocity=95, time=0),
    Message('note_off', channel=4, note=43, velocity=95, time=0),
    Message('note_on', channel=4, note=43, velocity=95, time=0),
    Message('note_on', channel=4, note=47, velocity=95, time=2),
    Message('note_on', channel=4, note=50, velocity=95, time=2),
    Message('note_on', channel=4, note=55, velocity=95, time=2),
    Message('note_on', channel=4, note=62, velocity=95, time=2),
    Message('note_on', channel=4, note=67, velocity=95, time=2),
    Message('note_off', channel=4, note=67, velocity=95, time=230),
    Message('note_off', channel=4, note=62, velocity=95, time=0),
    Message('note_off', channel=4, note=55, velocity=95, time=0),
    Message('note_off', channel=4, note=50, velocity=95, time=0),
    Message('note_off', channel=4, note=47, velocity=95, time=0),
    Message('note_off', channel=4, note=43, velocity=95, time=0),
    Message('note_on', channel=4, note=67, velocity=95, time=0),
    Message('note_on', channel=4, note=62, velocity=95, time=2),
    Message('note_on', channel=4, note=55, velocity=95, time=2),
    Message('note_on', channel=4, note=50, velocity=95, time=2),
    Message('note_on', channel=4, note=47, velocity=95, time=2),
    Message('note_on', channel=4, note=43, velocity=95, time=2),
    Message('note_off', channel=4, note=67, velocity=95, time=230),
    Message('note_off', channel=4, note=62, velocity=95, time=0),
    Message('note_off', channel=4, note=55, velocity=95, time=0),
    Message('note_off', channel=4, note=50, velocity=95, time=0),
    Message('note_off', channel=4, note=47, velocity=95, time=0),
    Message('note_off', channel=4, note=43, velocity=95, time=0),
    Message('note_on', channel=4, note=50, velocity=95, time=0),
    Message('note_on', channel=4, note=57, velocity=95, time=4),
    Message('note_on', channel=4, note=62, velocity=95, time=4),
    Message('note_on', channel=4, note=66, velocity=95, time=4),
    Message('note_off', channel=4, note=66, velocity=95, time=468),
    Message('note_off', channel=4, note=62, velocity=95, time=0),
    Message('note_off', channel=4, note=57, velocity=95, time=0),
    Message('note_off', channel=4, note=50, velocity=95, time=0),
    Message('note_on', channel=4, note=50, velocity=95, time=0),
    Message('note_on', channel=4, note=57, velocity=95, time=2),
    Message('note_on', channel=4, note=62, velocity=95, time=2),
    Message('note_on', channel=4, note=66, velocity=95, time=2),
    Message('note_off', channel=4, note=66, velocity=95, time=234),
    Message('note_off', channel=4, note=62, velocity=95, time=0),
    Message('note_off', channel=4, note=57, velocity=95, time=0),
    Message('note_off', channel=4, note=50, velocity=95, time=0),
    Message('note_on', channel=4, note=66, velocity=95, time=0),
    Message('note_on', channel=4, note=62, velocity=95, time=2),
    Message('note_on', channel=4, note=57, velocity=95, time=2),
    Message('note_on', channel=4, note=50, velocity=95, time=2),
    Message('note_off', channel=4, note=66, velocity=95, time=234),
    Message('note_off', channel=4, note=62, velocity=95, time=0),
    Message('note_off', channel=4, note=57, velocity=95, time=0),
    Message('note_off', channel=4, note=50, velocity=95, time=0),
    Message('note_on', channel=4, note=50, velocity=95, time=0),
    Message('note_on', channel=4, note=57, velocity=95, time=2),
    Message('note_on', channel=4, note=62, velocity=95, time=2),
    Message('note_on', channel=4, note=66, velocity=95, time=2),
    Message('note_off', channel=4, note=66, velocity=95, time=234),
    Message('note_off', channel=4, note=62, velocity=95, time=0),
    Message('note_off', channel=4, note=57, velocity=95, time=0),
    Message('note_off', channel=4, note=50, velocity=95, time=0),
    Message('note_on', channel=4, note=66, velocity=95, time=0),
    Message('note_on', channel=4, note=62, velocity=95, time=2),
    Message('note_on', channel=4, note=57, velocity=95, time=2),
    Message('note_on', channel=4, note=50, velocity=95, time=2),
    Message('note_off', channel=4, note=66, velocity=95, time=234),
    Message('note_off', channel=4, note=62, velocity=95, time=0),
    Message('note_off', channel=4, note=57, velocity=95, time=0),
    Message('note_off', channel=4, note=50, velocity=95, time=0),
    Message('note_on', channel=4, note=50, velocity=95, time=0),
    Message('note_on', channel=4, note=57, velocity=95, time=2),
    Message('note_on', channel=4, note=62, velocity=95, time=2),
    Message('note_on', channel=4, note=66, velocity=95, time=2),
    Message('note_off', channel=4, note=66, velocity=95, time=234),
    Message('note_off', channel=4, note=62, velocity=95, time=0),
    Message('note_off', channel=4, note=57, velocity=95, time=0),
    Message('note_off', channel=4, note=50, velocity=95, time=0),
    Message('note_on', channel=4, note=66, velocity=95, time=0),
    Message('note_on', channel=4, note=62, velocity=95, time=2),
    Message('note_on', channel=4, note=57, velocity=95, time=2),
    Message('note_on', channel=4, note=50, velocity=95, time=2),
    Message('note_off', channel=4, note=66, velocity=95, time=234),
    Message('note_off', channel=4, note=62, velocity=95, time=0),
    Message('note_off', channel=4, note=57, velocity=95, time=0),
    Message('note_off', channel=4, note=50, velocity=95, time=0),
    Message('note_on', channel=4, note=45, velocity=95, time=0),
    Message('note_on', channel=4, note=52, velocity=95, time=4),
    Message('note_on', channel=4, note=57, velocity=95, time=4),
    Message('note_on', channel=4, note=61, velocity=95, time=4),
    Message('note_on', channel=4, note=64, velocity=95, time=4),
    Message('note_off', channel=4, note=64, velocity=95, time=464),
    Message('note_off', channel=4, note=61, velocity=95, time=0),
    Message('note_off', channel=4, note=57, velocity=95, time=0),
    Message('note_off', channel=4, note=52, velocity=95, time=0),
    Message('note_off', channel=4, note=45, velocity=95, time=0),
    Message('note_on', channel=4, note=45, velocity=95, time=0),
    Message('note_on', channel=4, note=52, velocity=95, time=2),
    Message('note_on', channel=4, note=57, velocity=95, time=2),
    Message('note_on', channel=4, note=61, velocity=95, time=2),
    Message('note_on', channel=4, note=64, velocity=95, time=2),
    Message('note_off', channel=4, note=64, velocity=95, time=232),
    Message('note_off', channel=4, note=61, velocity=95, time=0),
    Message('note_off', channel=4, note=57, velocity=95, time=0),
    Message('note_off', channel=4, note=52, velocity=95, time=0),
    Message('note_off', channel=4, note=45, velocity=95, time=0),
    Message('note_on', channel=4, note=64, velocity=95, time=0),
    Message('note_on', channel=4, note=61, velocity=95, time=2),
    Message('note_on', channel=4, note=57, velocity=95, time=2),
    Message('note_on', channel=4, note=52, velocity=95, time=2),
    Message('note_on', channel=4, note=45, velocity=95, time=2),
    Message('note_off', channel=4, note=64, velocity=95, time=232),
    Message('note_off', channel=4, note=61, velocity=95, time=0),
    Message('note_off', channel=4, note=57, velocity=95, time=0),
    Message('note_off', channel=4, note=52, velocity=95, time=0),
    Message('note_off', channel=4, note=45, velocity=95, time=0),
    Message('note_on', channel=4, note=45, velocity=95, time=0),
    Message('note_on', channel=4, note=52, velocity=95, time=2),
    Message('note_on', channel=4, note=57, velocity=95, time=2),
    Message('note_on', channel=4, note=61, velocity=95, time=2),
    Message('note_on', channel=4, note=64, velocity=95, time=2),
    Message('note_off', channel=4, note=64, velocity=95, time=232),
    Message('note_off', channel=4, note=61, velocity=95, time=0),
    Message('note_off', channel=4, note=57, velocity=95, time=0),
    Message('note_off', channel=4, note=52, velocity=95, time=0),
    Message('note_off', channel=4, note=45, velocity=95, time=0),
    Message('note_on', channel=4, note=64, velocity=95, time=0),
    Message('note_on', channel=4, note=61, velocity=95, time=2),
    Message('note_on', channel=4, note=57, velocity=95, time=2),
    Message('note_on', channel=4, note=52, velocity=95, time=2),
    Message('note_on', channel=4, note=45, velocity=95, time=2),
    Message('note_off', channel=4, note=64, velocity=95, time=232),
    Message('note_off', channel=4, note=61, velocity=95, time=0),
    Message('note_off', channel=4, note=57, velocity=95, time=0),
    Message('note_off', channel=4, note=52, velocity=95, time=0),
    Message('note_off', channel=4, note=45, velocity=95, time=0),
    Message('note_on', channel=4, note=45, velocity=95, time=0),
    Message('note_on', channel=4, note=52, velocity=95, time=2),
    Message('note_on', channel=4, note=57, velocity=95, time=2),
    Message('note_on', channel=4, note=61, velocity=95, time=2),
    Message('note_on', channel=4, note=64, velocity=95, time=2),
    Message('note_off', channel=4, note=64, velocity=95, time=232),
    Message('note_off', channel=4, note=61, velocity=95, time=0),
    Message('note_off', channel=4, note=57, velocity=95, time=0),
    Message('note_off', channel=4, note=52, velocity=95, time=0),
    Message('note_off', channel=4, note=45, velocity=95, time=0),
    Message('note_on', channel=4, note=64, velocity=95, time=0),
    Message('note_on', channel=4, note=61, velocity=95, time=2),
    Message('note_on', channel=4, note=57, velocity=95, time=2),
    Message('note_on', channel=4, note=52, velocity=95, time=2),
    Message('note_on', channel=4, note=45, velocity=95, time=2),
    Message('note_off', channel=4, note=64, velocity=95, time=232),
    Message('note_off', channel=4, note=61, velocity=95, time=0),
    Message('note_off', channel=4, note=57, velocity=95, time=0),
    Message('note_off', channel=4, note=52, velocity=95, time=0),
    Message('note_off', channel=4, note=45, velocity=95, time=0),
    Message('note_on', channel=4, note=40, velocity=95, time=0),
    Message('note_on', channel=4, note=47, velocity=95, time=4),
    Message('note_on', channel=4, note=52, velocity=95, time=4),
    Message('note_on', channel=4, note=56, velocity=95, time=4),
    Message('note_on', channel=4, note=59, velocity=95, time=4),
    Message('note_on', channel=4, note=64, velocity=95, time=4),
    Message('note_off', channel=4, note=64, velocity=95, time=460),
    Message('note_off', channel=4, note=59, velocity=95, time=0),
    Message('note_off', channel=4, note=56, velocity=95, time=0),
    Message('note_off', channel=4, note=52, velocity=95, time=0),
    Message('note_off', channel=4, note=47, velocity=95, time=0),
    Message('note_off', channel=4, note=40, velocity=95, time=0),
    Message('note_on', channel=4, note=40, velocity=95, time=0),
    Message('note_on', channel=4, note=47, velocity=95, time=2),
    Message('note_on', channel=4, note=52, velocity=95, time=2),
    Message('note_on', channel=4, note=56, velocity=95, time=2),
    Message('note_on', channel=4, note=59, velocity=95, time=2),
    Message('note_on', channel=4, note=64, velocity=95, time=2),
    Message('note_off', channel=4, note=64, velocity=95, time=230),
    Message('note_off', channel=4, note=59, velocity=95, time=0),
    Message('note_off', channel=4, note=56, velocity=95, time=0),
    Message('note_off', channel=4, note=52, velocity=95, time=0),
    Message('note_off', channel=4, note=47, velocity=95, time=0),
    Message('note_off', channel=4, note=40, velocity=95, time=0),
    Message('note_on', channel=4, note=64, velocity=95, time=0),
    Message('note_on', channel=4, note=59, velocity=95, time=2),
    Message('note_on', channel=4, note=56, velocity=95, time=2),
    Message('note_on', channel=4, note=52, velocity=95, time=2),
    Message('note_on', channel=4, note=47, velocity=95, time=2),
    Message('note_on', channel=4, note=40, velocity=95, time=2),
    Message('note_off', channel=4, note=64, velocity=95, time=230),
    Message('note_off', channel=4, note=59, velocity=95, time=0),
    Message('note_off', channel=4, note=56, velocity=95, time=0),
    Message('note_off', channel=4, note=52, velocity=95, time=0),
    Message('note_off', channel=4, note=47, velocity=95, time=0),
    Message('note_off', channel=4, note=40, velocity=95, time=0),
    Message('note_on', channel=4, note=40, velocity=95, time=0),
    Message('note_on', channel=4, note=47, velocity=95, time=2),
    Message('note_on', channel=4, note=52, velocity=95, time=2),
    Message('note_on', channel=4, note=56, velocity=95, time=2),
    Message('note_on', channel=4, note=59, velocity=95, time=2),
    Message('note_on', channel=4, note=64, velocity=95, time=2),
    Message('note_off', channel=4, note=64, velocity=95, time=230),
    Message('note_off', channel=4, note=59, velocity=95, time=0),
    Message('note_off', channel=4, note=56, velocity=95, time=0),
    Message('note_off', channel=4, note=52, velocity=95, time=0),
    Message('note_off', channel=4, note=47, velocity=95, time=0),
    Message('note_off', channel=4, note=40, velocity=95, time=0),
    Message('note_on', channel=4, note=64, velocity=95, time=0),
    Message('note_on', channel=4, note=59, velocity=95, time=2),
    Message('note_on', channel=4, note=56, velocity=95, time=2),
    Message('note_on', channel=4, note=52, velocity=95, time=2),
    Message('note_on', channel=4, note=47, velocity=95, time=2),
    Message('note_on', channel=4, note=40, velocity=95, time=2),
    Message('note_off', channel=4, note=64, velocity=95, time=230),
    Message('note_off', channel=4, note=59, velocity=95, time=0),
    Message('note_off', channel=4, note=56, velocity=95, time=0),
    Message('note_off', channel=4, note=52, velocity=95, time=0),
    Message('note_off', channel=4, note=47, velocity=95, time=0),
    Message('note_off', channel=4, note=40, velocity=95, time=0),
    Message('note_on', channel=4, note=40, velocity=95, time=0),
    Message('note_on', channel=4, note=47, velocity=95, time=2),
    Message('note_on', channel=4, note=52, velocity=95, time=2),
    Message('note_on', channel=4, note=56, velocity=95, time=2),
    Message('note_on', channel=4, note=59, velocity=95, time=2),
    Message('note_on', channel=4, note=64, velocity=95, time=2),
    Message('note_off', channel=4, note=64, velocity=95, time=230),
    Message('note_off', channel=4, note=59, velocity=95, time=0),
    Message('note_off', channel=4, note=56, velocity=95, time=0),
    Message('note_off', channel=4, note=52, velocity=95, time=0),
    Message('note_off', channel=4, note=47, velocity=95, time=0),
    Message('note_off', channel=4, note=40, velocity=95, time=0),
    Message('note_on', channel=4, note=64, velocity=95, time=0),
    Message('note_on', channel=4, note=59, velocity=95, time=2),
    Message('note_on', channel=4, note=56, velocity=95, time=2),
    Message('note_on', channel=4, note=52, velocity=95, time=2),
    Message('note_on', channel=4, note=47, velocity=95, time=2),
    Message('note_on', channel=4, note=40, velocity=95, time=2),
    Message('note_off', channel=4, note=64, velocity=95, time=230),
    Message('note_off', channel=4, note=59, velocity=95, time=0),
    Message('note_off', channel=4, note=56, velocity=95, time=0),
    Message('note_off', channel=4, note=52, velocity=95, time=0),
    Message('note_off', channel=4, note=47, velocity=95, time=0),
    Message('note_off', channel=4, note=40, velocity=95, time=0),
    Message('note_on', channel=4, note=43, velocity=95, time=0),
    Message('note_on', channel=4, note=47, velocity=95, time=4),
    Message('note_on', channel=4, note=50, velocity=95, time=4),
    Message('note_on', channel=4, note=55, velocity=95, time=4),
    Message('note_on', channel=4, note=62, velocity=95, time=4),
    Message('note_on', channel=4, note=67, velocity=95, time=4),
    Message('note_off', channel=4, note=67, velocity=95, time=460),
    Message('note_off', channel=4, note=62, velocity=95, time=0),
    Message('note_off', channel=4, note=55, velocity=95, time=0),
    Message('note_off', channel=4, note=50, velocity=95, time=0),
    Message('note_off', channel=4, note=47, velocity=95, time=0),
    Message('note_off', channel=4, note=43, velocity=95, time=0),
    Message('note_on', channel=4, note=43, velocity=95, time=0),
    Message('note_on', channel=4, note=47, velocity=95, time=2),
    Message('note_on', channel=4, note=50, velocity=95, time=2),
    Message('note_on', channel=4, note=55, velocity=95, time=2),
    Message('note_on', channel=4, note=62, velocity=95, time=2),
    Message('note_on', channel=4, note=67, velocity=95, time=2),
    Message('note_off', channel=4, note=67, velocity=95, time=230),
    Message('note_off', channel=4, note=62, velocity=95, time=0),
    Message('note_off', channel=4, note=55, velocity=95, time=0),
    Message('note_off', channel=4, note=50, velocity=95, time=0),
    Message('note_off', channel=4, note=47, velocity=95, time=0),
    Message('note_off', channel=4, note=43, velocity=95, time=0),
    Message('note_on', channel=4, note=67, velocity=95, time=0),
    Message('note_on', channel=4, note=62, velocity=95, time=2),
    Message('note_on', channel=4, note=55, velocity=95, time=2),
    Message('note_on', channel=4, note=50, velocity=95, time=2),
    Message('note_on', channel=4, note=47, velocity=95, time=2),
    Message('note_on', channel=4, note=43, velocity=95, time=2),
    Message('note_off', channel=4, note=67, velocity=95, time=230),
    Message('note_off', channel=4, note=62, velocity=95, time=0),
    Message('note_off', channel=4, note=55, velocity=95, time=0),
    Message('note_off', channel=4, note=50, velocity=95, time=0),
    Message('note_off', channel=4, note=47, velocity=95, time=0),
    Message('note_off', channel=4, note=43, velocity=95, time=0),
    Message('note_on', channel=4, note=43, velocity=95, time=0),
    Message('note_on', channel=4, note=47, velocity=95, time=2),
    Message('note_on', channel=4, note=50, velocity=95, time=2),
    Message('note_on', channel=4, note=55, velocity=95, time=2),
    Message('note_on', channel=4, note=62, velocity=95, time=2),
    Message('note_on', channel=4, note=67, velocity=95, time=2),
    Message('note_off', channel=4, note=67, velocity=95, time=230),
    Message('note_off', channel=4, note=62, velocity=95, time=0),
    Message('note_off', channel=4, note=55, velocity=95, time=0),
    Message('note_off', channel=4, note=50, velocity=95, time=0),
    Message('note_off', channel=4, note=47, velocity=95, time=0),
    Message('note_off', channel=4, note=43, velocity=95, time=0),
    Message('note_on', channel=4, note=67, velocity=95, time=0),
    Message('note_on', channel=4, note=62, velocity=95, time=2),
    Message('note_on', channel=4, note=55, velocity=95, time=2),
    Message('note_on', channel=4, note=50, velocity=95, time=2),
    Message('note_on', channel=4, note=47, velocity=95, time=2),
    Message('note_on', channel=4, note=43, velocity=95, time=2),
    Message('note_off', channel=4, note=67, velocity=95, time=230),
    Message('note_off', channel=4, note=62, velocity=95, time=0),
    Message('note_off', channel=4, note=55, velocity=95, time=0),
    Message('note_off', channel=4, note=50, velocity=95, time=0),
    Message('note_off', channel=4, note=47, velocity=95, time=0),
    Message('note_off', channel=4, note=43, velocity=95, time=0),
    Message('note_on', channel=4, note=43, velocity=95, time=0),
    Message('note_on', channel=4, note=47, velocity=95, time=2),
    Message('note_on', channel=4, note=50, velocity=95, time=2),
    Message('note_on', channel=4, note=55, velocity=95, time=2),
    Message('note_on', channel=4, note=62, velocity=95, time=2),
    Message('note_on', channel=4, note=67, velocity=95, time=2),
    Message('note_off', channel=4, note=67, velocity=95, time=230),
    Message('note_off', channel=4, note=62, velocity=95, time=0),
    Message('note_off', channel=4, note=55, velocity=95, time=0),
    Message('note_off', channel=4, note=50, velocity=95, time=0),
    Message('note_off', channel=4, note=47, velocity=95, time=0),
    Message('note_off', channel=4, note=43, velocity=95, time=0),
    Message('note_on', channel=4, note=67, velocity=95, time=0),
    Message('note_on', channel=4, note=62, velocity=95, time=2),
    Message('note_on', channel=4, note=55, velocity=95, time=2),
    Message('note_on', channel=4, note=50, velocity=95, time=2),
    Message('note_on', channel=4, note=47, velocity=95, time=2),
    Message('note_on', channel=4, note=43, velocity=95, time=2),
    Message('note_off', channel=4, note=67, velocity=95, time=230),
    Message('note_off', channel=4, note=62, velocity=95, time=0),
    Message('note_off', channel=4, note=55, velocity=95, time=0),
    Message('note_off', channel=4, note=50, velocity=95, time=0),
    Message('note_off', channel=4, note=47, velocity=95, time=0),
    Message('note_off', channel=4, note=43, velocity=95, time=0),
    Message('note_on', channel=4, note=50, velocity=95, time=0),
    Message('note_on', channel=4, note=57, velocity=95, time=4),
    Message('note_on', channel=4, note=62, velocity=95, time=4),
    Message('note_on', channel=4, note=66, velocity=95, time=4),
    Message('note_off', channel=4, note=66, velocity=95, time=468),
    Message('note_off', channel=4, note=62, velocity=95, time=0),
    Message('note_off', channel=4, note=57, velocity=95, time=0),
    Message('note_off', channel=4, note=50, velocity=95, time=0),
    Message('note_on', channel=4, note=50, velocity=95, time=0),
    Message('note_on', channel=4, note=57, velocity=95, time=2),
    Message('note_on', channel=4, note=62, velocity=95, time=2),
    Message('note_on', channel=4, note=66, velocity=95, time=2),
    Message('note_off', channel=4, note=66, velocity=95, time=234),
    Message('note_off', channel=4, note=62, velocity=95, time=0),
    Message('note_off', channel=4, note=57, velocity=95, time=0),
    Message('note_off', channel=4, note=50, velocity=95, time=0),
    Message('note_on', channel=4, note=66, velocity=95, time=0),
    Message('note_on', channel=4, note=62, velocity=95, time=2),
    Message('note_on', channel=4, note=57, velocity=95, time=2),
    Message('note_on', channel=4, note=50, velocity=95, time=2),
    Message('note_off', channel=4, note=66, velocity=95, time=234),
    Message('note_off', channel=4, note=62, velocity=95, time=0),
    Message('note_off', channel=4, note=57, velocity=95, time=0),
    Message('note_off', channel=4, note=50, velocity=95, time=0),
    Message('note_on', channel=4, note=50, velocity=95, time=0),
    Message('note_on', channel=4, note=57, velocity=95, time=2),
    Message('note_on', channel=4, note=62, velocity=95, time=2),
    Message('note_on', channel=4, note=66, velocity=95, time=2),
    Message('note_off', channel=4, note=66, velocity=95, time=234),
    Message('note_off', channel=4, note=62, velocity=95, time=0),
    Message('note_off', channel=4, note=57, velocity=95, time=0),
    Message('note_off', channel=4, note=50, velocity=95, time=0),
    Message('note_on', channel=4, note=66, velocity=95, time=0),
    Message('note_on', channel=4, note=62, velocity=95, time=2),
    Message('note_on', channel=4, note=57, velocity=95, time=2),
    Message('note_on', channel=4, note=50, velocity=95, time=2),
    Message('note_off', channel=4, note=66, velocity=95, time=234),
    Message('note_off', channel=4, note=62, velocity=95, time=0),
    Message('note_off', channel=4, note=57, velocity=95, time=0),
    Message('note_off', channel=4, note=50, velocity=95, time=0),
    Message('note_on', channel=4, note=50, velocity=95, time=0),
    Message('note_on', channel=4, note=57, velocity=95, time=2),
    Message('note_on', channel=4, note=62, velocity=95, time=2),
    Message('note_on', channel=4, note=66, velocity=95, time=2),
    Message('note_off', channel=4, note=66, velocity=95, time=234),
    Message('note_off', channel=4, note=62, velocity=95, time=0),
    Message('note_off', channel=4, note=57, velocity=95, time=0),
    Message('note_off', channel=4, note=50, velocity=95, time=0),
    Message('note_on', channel=4, note=66, velocity=95, time=0),
    Message('note_on', channel=4, note=62, velocity=95, time=2),
    Message('note_on', channel=4, note=57, velocity=95, time=2),
    Message('note_on', channel=4, note=50, velocity=95, time=2),
    Message('note_off', channel=4, note=66, velocity=95, time=234),
    Message('note_off', channel=4, note=62, velocity=95, time=0),
    Message('note_off', channel=4, note=57, velocity=95, time=0),
    Message('note_off', channel=4, note=50, velocity=95, time=0),
    Message('note_on', channel=4, note=45, velocity=95, time=0),
    Message('note_on', channel=4, note=52, velocity=95, time=4),
    Message('note_on', channel=4, note=57, velocity=95, time=4),
    Message('note_on', channel=4, note=61, velocity=95, time=4),
    Message('note_on', channel=4, note=64, velocity=95, time=4),
    Message('note_off', channel=4, note=64, velocity=95, time=464),
    Message('note_off', channel=4, note=61, velocity=95, time=0),
    Message('note_off', channel=4, note=57, velocity=95, time=0),
    Message('note_off', channel=4, note=52, velocity=95, time=0),
    Message('note_off', channel=4, note=45, velocity=95, time=0),
    Message('note_on', channel=4, note=45, velocity=95, time=0),
    Message('note_on', channel=4, note=52, velocity=95, time=2),
    Message('note_on', channel=4, note=57, velocity=95, time=2),
    Message('note_on', channel=4, note=61, velocity=95, time=2),
    Message('note_on', channel=4, note=64, velocity=95, time=2),
    Message('note_off', channel=4, note=64, velocity=95, time=232),
    Message('note_off', channel=4, note=61, velocity=95, time=0),
    Message('note_off', channel=4, note=57, velocity=95, time=0),
    Message('note_off', channel=4, note=52, velocity=95, time=0),
    Message('note_off', channel=4, note=45, velocity=95, time=0),
    Message('note_on', channel=4, note=64, velocity=95, time=0),
    Message('note_on', channel=4, note=61, velocity=95, time=2),
    Message('note_on', channel=4, note=57, velocity=95, time=2),
    Message('note_on', channel=4, note=52, velocity=95, time=2),
    Message('note_on', channel=4, note=45, velocity=95, time=2),
    Message('note_off', channel=4, note=64, velocity=95, time=232),
    Message('note_off', channel=4, note=61, velocity=95, time=0),
    Message('note_off', channel=4, note=57, velocity=95, time=0),
    Message('note_off', channel=4, note=52, velocity=95, time=0),
    Message('note_off', channel=4, note=45, velocity=95, time=0),
    Message('note_on', channel=4, note=45, velocity=95, time=0),
    Message('note_on', channel=4, note=52, velocity=95, time=2),
    Message('note_on', channel=4, note=57, velocity=95, time=2),
    Message('note_on', channel=4, note=61, velocity=95, time=2),
    Message('note_on', channel=4, note=64, velocity=95, time=2),
    Message('note_off', channel=4, note=64, velocity=95, time=232),
    Message('note_off', channel=4, note=61, velocity=95, time=0),
    Message('note_off', channel=4, note=57, velocity=95, time=0),
    Message('note_off', channel=4, note=52, velocity=95, time=0),
    Message('note_off', channel=4, note=45, velocity=95, time=0),
    Message('note_on', channel=4, note=64, velocity=95, time=0),
    Message('note_on', channel=4, note=61, velocity=95, time=2),
    Message('note_on', channel=4, note=57, velocity=95, time=2),
    Message('note_on', channel=4, note=52, velocity=95, time=2),
    Message('note_on', channel=4, note=45, velocity=95, time=2),
    Message('note_off', channel=4, note=64, velocity=95, time=232),
    Message('note_off', channel=4, note=61, velocity=95, time=0),
    Message('note_off', channel=4, note=57, velocity=95, time=0),
    Message('note_off', channel=4, note=52, velocity=95, time=0),
    Message('note_off', channel=4, note=45, velocity=95, time=0),
    Message('note_on', channel=4, note=45, velocity=95, time=0),
    Message('note_on', channel=4, note=52, velocity=95, time=2),
    Message('note_on', channel=4, note=57, velocity=95, time=2),
    Message('note_on', channel=4, note=61, velocity=95, time=2),
    Message('note_on', channel=4, note=64, velocity=95, time=2),
    Message('note_off', channel=4, note=64, velocity=95, time=232),
    Message('note_off', channel=4, note=61, velocity=95, time=0),
    Message('note_off', channel=4, note=57, velocity=95, time=0),
    Message('note_off', channel=4, note=52, velocity=95, time=0),
    Message('note_off', channel=4, note=45, velocity=95, time=0),
    Message('note_on', channel=4, note=64, velocity=95, time=0),
    Message('note_on', channel=4, note=61, velocity=95, time=2),
    Message('note_on', channel=4, note=57, velocity=95, time=2),
    Message('note_on', channel=4, note=52, velocity=95, time=2),
    Message('note_on', channel=4, note=45, velocity=95, time=2),
    Message('note_off', channel=4, note=64, velocity=95, time=232),
    Message('note_off', channel=4, note=61, velocity=95, time=0),
    Message('note_off', channel=4, note=57, velocity=95, time=0),
    Message('note_off', channel=4, note=52, velocity=95, time=0),
    Message('note_off', channel=4, note=45, velocity=95, time=0),
    Message('note_on', channel=4, note=47, velocity=95, time=480),
    Message('note_on', channel=4, note=54, velocity=95, time=2),
    Message('note_on', channel=4, note=59, velocity=95, time=2),
    Message('note_on', channel=4, note=63, velocity=95, time=2),
    Message('note_on', channel=4, note=66, velocity=95, time=2),
    Message('note_on', channel=4, note=71, velocity=95, time=2),
    Message('note_off', channel=4, note=71, velocity=95, time=230),
    Message('note_off', channel=4, note=66, velocity=95, time=0),
    Message('note_off', channel=4, note=63, velocity=95, time=0),
    Message('note_off', channel=4, note=59, velocity=95, time=0),
    Message('note_off', channel=4, note=54, velocity=95, time=0),
    Message('note_off', channel=4, note=47, velocity=95, time=0),
    Message('note_on', channel=4, note=71, velocity=95, time=0),
    Message('note_on', channel=4, note=66, velocity=95, time=2),
    Message('note_on', channel=4, note=63, velocity=95, time=2),
    Message('note_on', channel=4, note=59, velocity=95, time=2),
    Message('note_on', channel=4, note=54, velocity=95, time=2),
    Message('note_on', channel=4, note=47, velocity=95, time=2),
    Message('note_off', channel=4, note=71, velocity=95, time=230),
    Message('note_off', channel=4, note=66, velocity=95, time=0),
    Message('note_off', channel=4, note=63, velocity=95, time=0),
    Message('note_off', channel=4, note=59, velocity=95, time=0),
    Message('note_off', channel=4, note=54, velocity=95, time=0),
    Message('note_off', channel=4, note=47, velocity=95, time=0),
    Message('note_on', channel=4, note=71, velocity=95, time=0),
    Message('note_on', channel=4, note=66, velocity=95, time=2),
    Message('note_on', channel=4, note=63, velocity=95, time=2),
    Message('note_on', channel=4, note=59, velocity=95, time=2),
    Message('note_on', channel=4, note=54, velocity=95, time=2),
    Message('note_on', channel=4, note=47, velocity=95, time=2),
    Message('note_off', channel=4, note=71, velocity=95, time=230),
    Message('note_off', channel=4, note=66, velocity=95, time=0),
    Message('note_off', channel=4, note=63, velocity=95, time=0),
    Message('note_off', channel=4, note=59, velocity=95, time=0),
    Message('note_off', channel=4, note=54, velocity=95, time=0),
    Message('note_off', channel=4, note=47, velocity=95, time=0),
    Message('note_on', channel=4, note=71, velocity=95, time=0),
    Message('note_on', channel=4, note=66, velocity=95, time=2),
    Message('note_on', channel=4, note=63, velocity=95, time=2),
    Message('note_on', channel=4, note=59, velocity=95, time=2),
    Message('note_on', channel=4, note=54, velocity=95, time=2),
    Message('note_on', channel=4, note=47, velocity=95, time=2),
    Message('note_off', channel=4, note=71, velocity=95, time=230),
    Message('note_off', channel=4, note=66, velocity=95, time=0),
    Message('note_off', channel=4, note=63, velocity=95, time=0),
    Message('note_off', channel=4, note=59, velocity=95, time=0),
    Message('note_off', channel=4, note=54, velocity=95, time=0),
    Message('note_off', channel=4, note=47, velocity=95, time=0),
    Message('note_on', channel=4, note=47, velocity=95, time=480),
    Message('note_on', channel=4, note=54, velocity=95, time=2),
    Message('note_on', channel=4, note=59, velocity=95, time=2),
    Message('note_on', channel=4, note=63, velocity=95, time=2),
    Message('note_on', channel=4, note=66, velocity=95, time=2),
    Message('note_on', channel=4, note=71, velocity=95, time=2),
    Message('note_off', channel=4, note=71, velocity=95, time=230),
    Message('note_off', channel=4, note=66, velocity=95, time=0),
    Message('note_off', channel=4, note=63, velocity=95, time=0),
    Message('note_off', channel=4, note=59, velocity=95, time=0),
    Message('note_off', channel=4, note=54, velocity=95, time=0),
    Message('note_off', channel=4, note=47, velocity=95, time=0),
    Message('note_on', channel=4, note=71, velocity=95, time=0),
    Message('note_on', channel=4, note=66, velocity=95, time=2),
    Message('note_on', channel=4, note=63, velocity=95, time=2),
    Message('note_on', channel=4, note=59, velocity=95, time=2),
    Message('note_on', channel=4, note=54, velocity=95, time=2),
    Message('note_on', channel=4, note=47, velocity=95, time=2),
    Message('note_off', channel=4, note=71, velocity=95, time=230),
    Message('note_off', channel=4, note=66, velocity=95, time=0),
    Message('note_off', channel=4, note=63, velocity=95, time=0),
    Message('note_off', channel=4, note=59, velocity=95, time=0),
    Message('note_off', channel=4, note=54, velocity=95, time=0),
    Message('note_off', channel=4, note=47, velocity=95, time=0),
    Message('note_on', channel=4, note=47, velocity=95, time=0),
    Message('note_on', channel=4, note=54, velocity=95, time=2),
    Message('note_on', channel=4, note=59, velocity=95, time=2),
    Message('note_on', channel=4, note=63, velocity=95, time=2),
    Message('note_on', channel=4, note=66, velocity=95, time=2),
    Message('note_on', channel=4, note=71, velocity=95, time=2),
    Message('note_off', channel=4, note=71, velocity=95, time=230),
    Message('note_off', channel=4, note=66, velocity=95, time=0),
    Message('note_off', channel=4, note=63, velocity=95, time=0),
    Message('note_off', channel=4, note=59, velocity=95, time=0),
    Message('note_off', channel=4, note=54, velocity=95, time=0),
    Message('note_off', channel=4, note=47, velocity=95, time=0),
    Message('note_on', channel=4, note=71, velocity=95, time=0),
    Message('note_on', channel=4, note=66, velocity=95, time=2),
    Message('note_on', channel=4, note=63, velocity=95, time=2),
    Message('note_on', channel=4, note=59, velocity=95, time=2),
    Message('note_on', channel=4, note=54, velocity=95, time=2),
    Message('note_on', channel=4, note=47, velocity=95, time=2),
    Message('note_off', channel=4, note=71, velocity=95, time=230),
    Message('note_off', channel=4, note=66, velocity=95, time=0),
    Message('note_off', channel=4, note=63, velocity=95, time=0),
    Message('note_off', channel=4, note=59, velocity=95, time=0),
    Message('note_off', channel=4, note=54, velocity=95, time=0),
    Message('note_off', channel=4, note=47, velocity=95, time=0),
    Message('note_on', channel=4, note=71, velocity=95, time=240),
    Message('note_on', channel=4, note=66, velocity=95, time=2),
    Message('note_on', channel=4, note=63, velocity=95, time=2),
    Message('note_on', channel=4, note=59, velocity=95, time=2),
    Message('note_on', channel=4, note=54, velocity=95, time=2),
    Message('note_on', channel=4, note=47, velocity=95, time=2),
    Message('note_off', channel=4, note=71, velocity=95, time=230),
    Message('note_off', channel=4, note=66, velocity=95, time=0),
    Message('note_off', channel=4, note=63, velocity=95, time=0),
    Message('note_off', channel=4, note=59, velocity=95, time=0),
    Message('note_off', channel=4, note=54, velocity=95, time=0),
    Message('note_off', channel=4, note=47, velocity=95, time=0),
    Message('note_on', channel=4, note=47, velocity=95, time=0),
    Message('note_on', channel=4, note=54, velocity=95, time=4),
    Message('note_on', channel=4, note=59, velocity=95, time=4),
    Message('note_on', channel=4, note=63, velocity=95, time=4),
    Message('note_on', channel=4, note=66, velocity=95, time=4),
    Message('note_on', channel=4, note=71, velocity=95, time=4),
    Message('note_off', channel=4, note=71, velocity=95, time=460),
    Message('note_off', channel=4, note=66, velocity=95, time=0),
    Message('note_off', channel=4, note=63, velocity=95, time=0),
    Message('note_off', channel=4, note=59, velocity=95, time=0),
    Message('note_off', channel=4, note=54, velocity=95, time=0),
    Message('note_off', channel=4, note=47, velocity=95, time=0),
    Message('note_on', channel=4, note=42, velocity=95, time=0),
    Message('note_on', channel=4, note=49, velocity=95, time=6),
    Message('note_on', channel=4, note=54, velocity=95, time=6),
    Message('note_on', channel=4, note=58, velocity=95, time=6),
    Message('note_on', channel=4, note=61, velocity=95, time=6),
    Message('note_on', channel=4, note=66, velocity=95, time=6),
    Message('note_off', channel=4, note=66, velocity=95, time=690),
    Message('note_off', channel=4, note=61, velocity=95, time=0),
    Message('note_off', channel=4, note=58, velocity=95, time=0),
    Message('note_off', channel=4, note=54, velocity=95, time=0),
    Message('note_off', channel=4, note=49, velocity=95, time=0),
    Message('note_off', channel=4, note=42, velocity=95, time=0),
    Message('note_on', channel=4, note=66, velocity=95, time=0),
    Message('note_on', channel=4, note=61, velocity=95, time=2),
    Message('note_on', channel=4, note=58, velocity=95, time=2),
    Message('note_on', channel=4, note=54, velocity=95, time=2),
    Message('note_on', channel=4, note=49, velocity=95, time=2),
    Message('note_on', channel=4, note=42, velocity=95, time=2),
    Message('note_off', channel=4, note=66, velocity=95, time=230),
    Message('note_off', channel=4, note=61, velocity=95, time=0),
    Message('note_off', channel=4, note=58, velocity=95, time=0),
    Message('note_off', channel=4, note=54, velocity=95, time=0),
    Message('note_off', channel=4, note=49, velocity=95, time=0),
    Message('note_off', channel=4, note=42, velocity=95, time=0),
    Message('note_on', channel=4, note=42, velocity=95, time=0),
    Message('note_on', channel=4, note=49, velocity=95, time=8),
    Message('note_on', channel=4, note=54, velocity=95, time=8),
    Message('note_on', channel=4, note=58, velocity=95, time=8),
    Message('note_on', channel=4, note=61, velocity=95, time=8),
    Message('note_on', channel=4, note=66, velocity=95, time=8),
    Message('note_off', channel=4, note=66, velocity=95, time=1400),
    Message('note_off', channel=4, note=61, velocity=95, time=0),
    Message('note_off', channel=4, note=58, velocity=95, time=0),
    Message('note_off', channel=4, note=54, velocity=95, time=0),
    Message('note_off', channel=4, note=49, velocity=95, time=0),
    Message('note_off', channel=4, note=42, velocity=95, time=0),
    Message('note_on', channel=4, note=47, velocity=95, time=1440),
    Message('note_on', channel=4, note=54, velocity=95, time=2),
    Message('note_on', channel=4, note=59, velocity=95, time=2),
    Message('note_on', channel=4, note=63, velocity=95, time=2),
    Message('note_on', channel=4, note=66, velocity=95, time=2),
    Message('note_on', channel=4, note=71, velocity=95, time=2),
    Message('note_off', channel=4, note=71, velocity=95, time=230),
    Message('note_off', channel=4, note=66, velocity=95, time=0),
    Message('note_off', channel=4, note=63, velocity=95, time=0),
    Message('note_off', channel=4, note=59, velocity=95, time=0),
    Message('note_off', channel=4, note=54, velocity=95, time=0),
    Message('note_off', channel=4, note=47, velocity=95, time=0),
    Message('note_on', channel=4, note=71, velocity=95, time=0),
    Message('note_on', channel=4, note=66, velocity=95, time=2),
    Message('note_on', channel=4, note=63, velocity=95, time=2),
    Message('note_on', channel=4, note=59, velocity=95, time=2),
    Message('note_on', channel=4, note=54, velocity=95, time=2),
    Message('note_on', channel=4, note=47, velocity=95, time=2),
    Message('note_off', channel=4, note=71, velocity=95, time=230),
    Message('note_off', channel=4, note=66, velocity=95, time=0),
    Message('note_off', channel=4, note=63, velocity=95, time=0),
    Message('note_off', channel=4, note=59, velocity=95, time=0),
    Message('note_off', channel=4, note=54, velocity=95, time=0),
    Message('note_off', channel=4, note=47, velocity=95, time=0),
    Message('note_on', channel=4, note=71, velocity=95, time=0),
    Message('note_on', channel=4, note=66, velocity=95, time=2),
    Message('note_on', channel=4, note=63, velocity=95, time=2),
    Message('note_on', channel=4, note=59, velocity=95, time=2),
    Message('note_on', channel=4, note=54, velocity=95, time=2),
    Message('note_on', channel=4, note=47, velocity=95, time=2),
    Message('note_off', channel=4, note=71, velocity=95, time=230),
    Message('note_off', channel=4, note=66, velocity=95, time=0),
    Message('note_off', channel=4, note=63, velocity=95, time=0),
    Message('note_off', channel=4, note=59, velocity=95, time=0),
    Message('note_off', channel=4, note=54, velocity=95, time=0),
    Message('note_off', channel=4, note=47, velocity=95, time=0),
    Message('note_on', channel=4, note=71, velocity=95, time=0),
    Message('note_on', channel=4, note=66, velocity=95, time=2),
    Message('note_on', channel=4, note=63, velocity=95, time=2),
    Message('note_on', channel=4, note=59, velocity=95, time=2),
    Message('note_on', channel=4, note=54, velocity=95, time=2),
    Message('note_on', channel=4, note=47, velocity=95, time=2),
    Message('note_off', channel=4, note=71, velocity=95, time=230),
    Message('note_off', channel=4, note=66, velocity=95, time=0),
    Message('note_off', channel=4, note=63, velocity=95, time=0),
    Message('note_off', channel=4, note=59, velocity=95, time=0),
    Message('note_off', channel=4, note=54, velocity=95, time=0),
    Message('note_off', channel=4, note=47, velocity=95, time=0),
    Message('note_on', channel=4, note=47, velocity=95, time=480),
    Message('note_on', channel=4, note=54, velocity=95, time=2),
    Message('note_on', channel=4, note=59, velocity=95, time=2),
    Message('note_on', channel=4, note=63, velocity=95, time=2),
    Message('note_on', channel=4, note=66, velocity=95, time=2),
    Message('note_on', channel=4, note=71, velocity=95, time=2),
    Message('note_off', channel=4, note=71, velocity=95, time=230),
    Message('note_off', channel=4, note=66, velocity=95, time=0),
    Message('note_off', channel=4, note=63, velocity=95, time=0),
    Message('note_off', channel=4, note=59, velocity=95, time=0),
    Message('note_off', channel=4, note=54, velocity=95, time=0),
    Message('note_off', channel=4, note=47, velocity=95, time=0),
    Message('note_on', channel=4, note=71, velocity=95, time=0),
    Message('note_on', channel=4, note=66, velocity=95, time=2),
    Message('note_on', channel=4, note=63, velocity=95, time=2),
    Message('note_on', channel=4, note=59, velocity=95, time=2),
    Message('note_on', channel=4, note=54, velocity=95, time=2),
    Message('note_on', channel=4, note=47, velocity=95, time=2),
    Message('note_off', channel=4, note=71, velocity=95, time=230),
    Message('note_off', channel=4, note=66, velocity=95, time=0),
    Message('note_off', channel=4, note=63, velocity=95, time=0),
    Message('note_off', channel=4, note=59, velocity=95, time=0),
    Message('note_off', channel=4, note=54, velocity=95, time=0),
    Message('note_off', channel=4, note=47, velocity=95, time=0),
    Message('note_on', channel=4, note=47, velocity=95, time=0),
    Message('note_on', channel=4, note=54, velocity=95, time=2),
    Message('note_on', channel=4, note=59, velocity=95, time=2),
    Message('note_on', channel=4, note=63, velocity=95, time=2),
    Message('note_on', channel=4, note=66, velocity=95, time=2),
    Message('note_on', channel=4, note=71, velocity=95, time=2),
    Message('note_off', channel=4, note=71, velocity=95, time=230),
    Message('note_off', channel=4, note=66, velocity=95, time=0),
    Message('note_off', channel=4, note=63, velocity=95, time=0),
    Message('note_off', channel=4, note=59, velocity=95, time=0),
    Message('note_off', channel=4, note=54, velocity=95, time=0),
    Message('note_off', channel=4, note=47, velocity=95, time=0),
    Message('note_on', channel=4, note=71, velocity=95, time=0),
    Message('note_on', channel=4, note=66, velocity=95, time=2),
    Message('note_on', channel=4, note=63, velocity=95, time=2),
    Message('note_on', channel=4, note=59, velocity=95, time=2),
    Message('note_on', channel=4, note=54, velocity=95, time=2),
    Message('note_on', channel=4, note=47, velocity=95, time=2),
    Message('note_off', channel=4, note=71, velocity=95, time=230),
    Message('note_off', channel=4, note=66, velocity=95, time=0),
    Message('note_off', channel=4, note=63, velocity=95, time=0),
    Message('note_off', channel=4, note=59, velocity=95, time=0),
    Message('note_off', channel=4, note=54, velocity=95, time=0),
    Message('note_off', channel=4, note=47, velocity=95, time=0),
    Message('note_on', channel=4, note=71, velocity=95, time=240),
    Message('note_on', channel=4, note=66, velocity=95, time=2),
    Message('note_on', channel=4, note=63, velocity=95, time=2),
    Message('note_on', channel=4, note=59, velocity=95, time=2),
    Message('note_on', channel=4, note=54, velocity=95, time=2),
    Message('note_on', channel=4, note=47, velocity=95, time=2),
    Message('note_off', channel=4, note=71, velocity=95, time=230),
    Message('note_off', channel=4, note=66, velocity=95, time=0),
    Message('note_off', channel=4, note=63, velocity=95, time=0),
    Message('note_off', channel=4, note=59, velocity=95, time=0),
    Message('note_off', channel=4, note=54, velocity=95, time=0),
    Message('note_off', channel=4, note=47, velocity=95, time=0),
    Message('note_on', channel=4, note=47, velocity=95, time=0),
    Message('note_on', channel=4, note=54, velocity=95, time=4),
    Message('note_on', channel=4, note=59, velocity=95, time=4),
    Message('note_on', channel=4, note=63, velocity=95, time=4),
    Message('note_on', channel=4, note=66, velocity=95, time=4),
    Message('note_on', channel=4, note=71, velocity=95, time=4),
    Message('note_off', channel=4, note=71, velocity=95, time=460),
    Message('note_off', channel=4, note=66, velocity=95, time=0),
    Message('note_off', channel=4, note=63, velocity=95, time=0),
    Message('note_off', channel=4, note=59, velocity=95, time=0),
    Message('note_off', channel=4, note=54, velocity=95, time=0),
    Message('note_off', channel=4, note=47, velocity=95, time=0),
    Message('note_on', channel=4, note=42, velocity=95, time=0),
    Message('note_on', channel=4, note=49, velocity=95, time=6),
    Message('note_on', channel=4, note=54, velocity=95, time=6),
    Message('note_on', channel=4, note=58, velocity=95, time=6),
    Message('note_on', channel=4, note=61, velocity=95, time=6),
    Message('note_on', channel=4, note=66, velocity=95, time=6),
    Message('note_off', channel=4, note=66, velocity=95, time=690),
    Message('note_off', channel=4, note=61, velocity=95, time=0),
    Message('note_off', channel=4, note=58, velocity=95, time=0),
    Message('note_off', channel=4, note=54, velocity=95, time=0),
    Message('note_off', channel=4, note=49, velocity=95, time=0),
    Message('note_off', channel=4, note=42, velocity=95, time=0),
    Message('note_on', channel=4, note=66, velocity=95, time=0),
    Message('note_on', channel=4, note=61, velocity=95, time=2),
    Message('note_on', channel=4, note=58, velocity=95, time=2),
    Message('note_on', channel=4, note=54, velocity=95, time=2),
    Message('note_on', channel=4, note=49, velocity=95, time=2),
    Message('note_on', channel=4, note=42, velocity=95, time=2),
    Message('note_off', channel=4, note=66, velocity=95, time=230),
    Message('note_off', channel=4, note=61, velocity=95, time=0),
    Message('note_off', channel=4, note=58, velocity=95, time=0),
    Message('note_off', channel=4, note=54, velocity=95, time=0),
    Message('note_off', channel=4, note=49, velocity=95, time=0),
    Message('note_off', channel=4, note=42, velocity=95, time=0),
    Message('note_on', channel=4, note=42, velocity=95, time=0),
    Message('note_on', channel=4, note=49, velocity=95, time=8),
    Message('note_on', channel=4, note=54, velocity=95, time=8),
    Message('note_on', channel=4, note=58, velocity=95, time=8),
    Message('note_on', channel=4, note=61, velocity=95, time=8),
    Message('note_on', channel=4, note=66, velocity=95, time=8),
    Message('note_off', channel=4, note=66, velocity=95, time=1400),
    Message('note_off', channel=4, note=61, velocity=95, time=0),
    Message('note_off', channel=4, note=58, velocity=95, time=0),
    Message('note_off', channel=4, note=54, velocity=95, time=0),
    Message('note_off', channel=4, note=49, velocity=95, time=0),
    Message('note_off', channel=4, note=42, velocity=95, time=0),
    Message('note_on', channel=4, note=47, velocity=95, time=1440),
    Message('note_on', channel=4, note=54, velocity=95, time=2),
    Message('note_on', channel=4, note=59, velocity=95, time=2),
    Message('note_on', channel=4, note=63, velocity=95, time=2),
    Message('note_on', channel=4, note=66, velocity=95, time=2),
    Message('note_on', channel=4, note=71, velocity=95, time=2),
    Message('note_off', channel=4, note=71, velocity=95, time=230),
    Message('note_off', channel=4, note=66, velocity=95, time=0),
    Message('note_off', channel=4, note=63, velocity=95, time=0),
    Message('note_off', channel=4, note=59, velocity=95, time=0),
    Message('note_off', channel=4, note=54, velocity=95, time=0),
    Message('note_off', channel=4, note=47, velocity=95, time=0),
    Message('note_on', channel=4, note=71, velocity=95, time=0),
    Message('note_on', channel=4, note=66, velocity=95, time=2),
    Message('note_on', channel=4, note=63, velocity=95, time=2),
    Message('note_on', channel=4, note=59, velocity=95, time=2),
    Message('note_on', channel=4, note=54, velocity=95, time=2),
    Message('note_on', channel=4, note=47, velocity=95, time=2),
    Message('note_off', channel=4, note=71, velocity=95, time=230),
    Message('note_off', channel=4, note=66, velocity=95, time=0),
    Message('note_off', channel=4, note=63, velocity=95, time=0),
    Message('note_off', channel=4, note=59, velocity=95, time=0),
    Message('note_off', channel=4, note=54, velocity=95, time=0),
    Message('note_off', channel=4, note=47, velocity=95, time=0),
    Message('note_on', channel=4, note=71, velocity=95, time=0),
    Message('note_on', channel=4, note=66, velocity=95, time=2),
    Message('note_on', channel=4, note=63, velocity=95, time=2),
    Message('note_on', channel=4, note=59, velocity=95, time=2),
    Message('note_on', channel=4, note=54, velocity=95, time=2),
    Message('note_on', channel=4, note=47, velocity=95, time=2),
    Message('note_off', channel=4, note=71, velocity=95, time=230),
    Message('note_off', channel=4, note=66, velocity=95, time=0),
    Message('note_off', channel=4, note=63, velocity=95, time=0),
    Message('note_off', channel=4, note=59, velocity=95, time=0),
    Message('note_off', channel=4, note=54, velocity=95, time=0),
    Message('note_off', channel=4, note=47, velocity=95, time=0),
    Message('note_on', channel=4, note=71, velocity=95, time=0),
    Message('note_on', channel=4, note=66, velocity=95, time=2),
    Message('note_on', channel=4, note=63, velocity=95, time=2),
    Message('note_on', channel=4, note=59, velocity=95, time=2),
    Message('note_on', channel=4, note=54, velocity=95, time=2),
    Message('note_on', channel=4, note=47, velocity=95, time=2),
    Message('note_off', channel=4, note=71, velocity=95, time=230),
    Message('note_off', channel=4, note=66, velocity=95, time=0),
    Message('note_off', channel=4, note=63, velocity=95, time=0),
    Message('note_off', channel=4, note=59, velocity=95, time=0),
    Message('note_off', channel=4, note=54, velocity=95, time=0),
    Message('note_off', channel=4, note=47, velocity=95, time=0),
    Message('note_on', channel=4, note=47, velocity=95, time=480),
    Message('note_on', channel=4, note=54, velocity=95, time=2),
    Message('note_on', channel=4, note=59, velocity=95, time=2),
    Message('note_on', channel=4, note=63, velocity=95, time=2),
    Message('note_on', channel=4, note=66, velocity=95, time=2),
    Message('note_on', channel=4, note=71, velocity=95, time=2),
    Message('note_off', channel=4, note=71, velocity=95, time=230),
    Message('note_off', channel=4, note=66, velocity=95, time=0),
    Message('note_off', channel=4, note=63, velocity=95, time=0),
    Message('note_off', channel=4, note=59, velocity=95, time=0),
    Message('note_off', channel=4, note=54, velocity=95, time=0),
    Message('note_off', channel=4, note=47, velocity=95, time=0),
    Message('note_on', channel=4, note=71, velocity=95, time=0),
    Message('note_on', channel=4, note=66, velocity=95, time=2),
    Message('note_on', channel=4, note=63, velocity=95, time=2),
    Message('note_on', channel=4, note=59, velocity=95, time=2),
    Message('note_on', channel=4, note=54, velocity=95, time=2),
    Message('note_on', channel=4, note=47, velocity=95, time=2),
    Message('note_off', channel=4, note=71, velocity=95, time=230),
    Message('note_off', channel=4, note=66, velocity=95, time=0),
    Message('note_off', channel=4, note=63, velocity=95, time=0),
    Message('note_off', channel=4, note=59, velocity=95, time=0),
    Message('note_off', channel=4, note=54, velocity=95, time=0),
    Message('note_off', channel=4, note=47, velocity=95, time=0),
    Message('note_on', channel=4, note=47, velocity=95, time=0),
    Message('note_on', channel=4, note=54, velocity=95, time=2),
    Message('note_on', channel=4, note=59, velocity=95, time=2),
    Message('note_on', channel=4, note=63, velocity=95, time=2),
    Message('note_on', channel=4, note=66, velocity=95, time=2),
    Message('note_on', channel=4, note=71, velocity=95, time=2),
    Message('note_off', channel=4, note=71, velocity=95, time=230),
    Message('note_off', channel=4, note=66, velocity=95, time=0),
    Message('note_off', channel=4, note=63, velocity=95, time=0),
    Message('note_off', channel=4, note=59, velocity=95, time=0),
    Message('note_off', channel=4, note=54, velocity=95, time=0),
    Message('note_off', channel=4, note=47, velocity=95, time=0),
    Message('note_on', channel=4, note=71, velocity=95, time=0),
    Message('note_on', channel=4, note=66, velocity=95, time=2),
    Message('note_on', channel=4, note=63, velocity=95, time=2),
    Message('note_on', channel=4, note=59, velocity=95, time=2),
    Message('note_on', channel=4, note=54, velocity=95, time=2),
    Message('note_on', channel=4, note=47, velocity=95, time=2),
    Message('note_off', channel=4, note=71, velocity=95, time=230),
    Message('note_off', channel=4, note=66, velocity=95, time=0),
    Message('note_off', channel=4, note=63, velocity=95, time=0),
    Message('note_off', channel=4, note=59, velocity=95, time=0),
    Message('note_off', channel=4, note=54, velocity=95, time=0),
    Message('note_off', channel=4, note=47, velocity=95, time=0),
    Message('note_on', channel=4, note=71, velocity=95, time=240),
    Message('note_on', channel=4, note=66, velocity=95, time=2),
    Message('note_on', channel=4, note=63, velocity=95, time=2),
    Message('note_on', channel=4, note=59, velocity=95, time=2),
    Message('note_on', channel=4, note=54, velocity=95, time=2),
    Message('note_on', channel=4, note=47, velocity=95, time=2),
    Message('note_off', channel=4, note=71, velocity=95, time=230),
    Message('note_off', channel=4, note=66, velocity=95, time=0),
    Message('note_off', channel=4, note=63, velocity=95, time=0),
    Message('note_off', channel=4, note=59, velocity=95, time=0),
    Message('note_off', channel=4, note=54, velocity=95, time=0),
    Message('note_off', channel=4, note=47, velocity=95, time=0),
    Message('note_on', channel=4, note=47, velocity=95, time=0),
    Message('note_on', channel=4, note=54, velocity=95, time=4),
    Message('note_on', channel=4, note=59, velocity=95, time=4),
    Message('note_on', channel=4, note=63, velocity=95, time=4),
    Message('note_on', channel=4, note=66, velocity=95, time=4),
    Message('note_on', channel=4, note=71, velocity=95, time=4),
    Message('note_off', channel=4, note=71, velocity=95, time=460),
    Message('note_off', channel=4, note=66, velocity=95, time=0),
    Message('note_off', channel=4, note=63, velocity=95, time=0),
    Message('note_off', channel=4, note=59, velocity=95, time=0),
    Message('note_off', channel=4, note=54, velocity=95, time=0),
    Message('note_off', channel=4, note=47, velocity=95, time=0),
    Message('note_on', channel=4, note=42, velocity=95, time=0),
    Message('note_on', channel=4, note=49, velocity=95, time=8),
    Message('note_on', channel=4, note=54, velocity=95, time=8),
    Message('note_on', channel=4, note=58, velocity=95, time=8),
    Message('note_on', channel=4, note=61, velocity=95, time=8),
    Message('note_on', channel=4, note=66, velocity=95, time=8),
    Message('note_off', channel=4, note=66, velocity=95, time=2840),
    Message('note_off', channel=4, note=61, velocity=95, time=0),
    Message('note_off', channel=4, note=58, velocity=95, time=0),
    Message('note_off', channel=4, note=54, velocity=95, time=0),
    Message('note_off', channel=4, note=49, velocity=95, time=0),
    Message('note_off', channel=4, note=42, velocity=95, time=0),
    Message('note_on', channel=4, note=47, velocity=95, time=960),
    Message('note_on', channel=4, note=54, velocity=95, time=2),
    Message('note_on', channel=4, note=59, velocity=95, time=2),
    Message('note_on', channel=4, note=63, velocity=95, time=2),
    Message('note_on', channel=4, note=66, velocity=95, time=2),
    Message('note_on', channel=4, note=71, velocity=95, time=2),
    Message('note_off', channel=4, note=71, velocity=95, time=230),
    Message('note_off', channel=4, note=66, velocity=95, time=0),
    Message('note_off', channel=4, note=63, velocity=95, time=0),
    Message('note_off', channel=4, note=59, velocity=95, time=0),
    Message('note_off', channel=4, note=54, velocity=95, time=0),
    Message('note_off', channel=4, note=47, velocity=95, time=0),
    Message('note_on', channel=4, note=71, velocity=95, time=0),
    Message('note_on', channel=4, note=66, velocity=95, time=2),
    Message('note_on', channel=4, note=63, velocity=95, time=2),
    Message('note_on', channel=4, note=59, velocity=95, time=2),
    Message('note_on', channel=4, note=54, velocity=95, time=2),
    Message('note_on', channel=4, note=47, velocity=95, time=2),
    Message('note_off', channel=4, note=71, velocity=95, time=230),
    Message('note_off', channel=4, note=66, velocity=95, time=0),
    Message('note_off', channel=4, note=63, velocity=95, time=0),
    Message('note_off', channel=4, note=59, velocity=95, time=0),
    Message('note_off', channel=4, note=54, velocity=95, time=0),
    Message('note_off', channel=4, note=47, velocity=95, time=0),
    Message('note_on', channel=4, note=71, velocity=95, time=0),
    Message('note_on', channel=4, note=66, velocity=95, time=2),
    Message('note_on', channel=4, note=63, velocity=95, time=2),
    Message('note_on', channel=4, note=59, velocity=95, time=2),
    Message('note_on', channel=4, note=54, velocity=95, time=2),
    Message('note_on', channel=4, note=47, velocity=95, time=2),
    Message('note_off', channel=4, note=71, velocity=95, time=230),
    Message('note_off', channel=4, note=66, velocity=95, time=0),
    Message('note_off', channel=4, note=63, velocity=95, time=0),
    Message('note_off', channel=4, note=59, velocity=95, time=0),
    Message('note_off', channel=4, note=54, velocity=95, time=0),
    Message('note_off', channel=4, note=47, velocity=95, time=0),
    Message('note_on', channel=4, note=71, velocity=95, time=0),
    Message('note_on', channel=4, note=66, velocity=95, time=2),
    Message('note_on', channel=4, note=63, velocity=95, time=2),
    Message('note_on', channel=4, note=59, velocity=95, time=2),
    Message('note_on', channel=4, note=54, velocity=95, time=2),
    Message('note_on', channel=4, note=47, velocity=95, time=2),
    Message('note_off', channel=4, note=71, velocity=95, time=230),
    Message('note_off', channel=4, note=66, velocity=95, time=0),
    Message('note_off', channel=4, note=63, velocity=95, time=0),
    Message('note_off', channel=4, note=59, velocity=95, time=0),
    Message('note_off', channel=4, note=54, velocity=95, time=0),
    Message('note_off', channel=4, note=47, velocity=95, time=0),
    Message('note_on', channel=4, note=47, velocity=95, time=480),
    Message('note_on', channel=4, note=54, velocity=95, time=2),
    Message('note_on', channel=4, note=59, velocity=95, time=2),
    Message('note_on', channel=4, note=63, velocity=95, time=2),
    Message('note_on', channel=4, note=66, velocity=95, time=2),
    Message('note_on', channel=4, note=71, velocity=95, time=2),
    Message('note_off', channel=4, note=71, velocity=95, time=230),
    Message('note_off', channel=4, note=66, velocity=95, time=0),
    Message('note_off', channel=4, note=63, velocity=95, time=0),
    Message('note_off', channel=4, note=59, velocity=95, time=0),
    Message('note_off', channel=4, note=54, velocity=95, time=0),
    Message('note_off', channel=4, note=47, velocity=95, time=0),
    Message('note_on', channel=4, note=71, velocity=95, time=0),
    Message('note_on', channel=4, note=66, velocity=95, time=2),
    Message('note_on', channel=4, note=63, velocity=95, time=2),
    Message('note_on', channel=4, note=59, velocity=95, time=2),
    Message('note_on', channel=4, note=54, velocity=95, time=2),
    Message('note_on', channel=4, note=47, velocity=95, time=2),
    Message('note_off', channel=4, note=71, velocity=95, time=230),
    Message('note_off', channel=4, note=66, velocity=95, time=0),
    Message('note_off', channel=4, note=63, velocity=95, time=0),
    Message('note_off', channel=4, note=59, velocity=95, time=0),
    Message('note_off', channel=4, note=54, velocity=95, time=0),
    Message('note_off', channel=4, note=47, velocity=95, time=0),
    Message('note_on', channel=4, note=47, velocity=95, time=0),
    Message('note_on', channel=4, note=54, velocity=95, time=2),
    Message('note_on', channel=4, note=59, velocity=95, time=2),
    Message('note_on', channel=4, note=63, velocity=95, time=2),
    Message('note_on', channel=4, note=66, velocity=95, time=2),
    Message('note_on', channel=4, note=71, velocity=95, time=2),
    Message('note_off', channel=4, note=71, velocity=95, time=230),
    Message('note_off', channel=4, note=66, velocity=95, time=0),
    Message('note_off', channel=4, note=63, velocity=95, time=0),
    Message('note_off', channel=4, note=59, velocity=95, time=0),
    Message('note_off', channel=4, note=54, velocity=95, time=0),
    Message('note_off', channel=4, note=47, velocity=95, time=0),
    Message('note_on', channel=4, note=71, velocity=95, time=0),
    Message('note_on', channel=4, note=66, velocity=95, time=2),
    Message('note_on', channel=4, note=63, velocity=95, time=2),
    Message('note_on', channel=4, note=59, velocity=95, time=2),
    Message('note_on', channel=4, note=54, velocity=95, time=2),
    Message('note_on', channel=4, note=47, velocity=95, time=2),
    Message('note_off', channel=4, note=71, velocity=95, time=230),
    Message('note_off', channel=4, note=66, velocity=95, time=0),
    Message('note_off', channel=4, note=63, velocity=95, time=0),
    Message('note_off', channel=4, note=59, velocity=95, time=0),
    Message('note_off', channel=4, note=54, velocity=95, time=0),
    Message('note_off', channel=4, note=47, velocity=95, time=0),
    Message('note_on', channel=4, note=71, velocity=95, time=240),
    Message('note_on', channel=4, note=66, velocity=95, time=2),
    Message('note_on', channel=4, note=63, velocity=95, time=2),
    Message('note_on', channel=4, note=59, velocity=95, time=2),
    Message('note_on', channel=4, note=54, velocity=95, time=2),
    Message('note_on', channel=4, note=47, velocity=95, time=2),
    Message('note_off', channel=4, note=71, velocity=95, time=230),
    Message('note_off', channel=4, note=66, velocity=95, time=0),
    Message('note_off', channel=4, note=63, velocity=95, time=0),
    Message('note_off', channel=4, note=59, velocity=95, time=0),
    Message('note_off', channel=4, note=54, velocity=95, time=0),
    Message('note_off', channel=4, note=47, velocity=95, time=0),
    Message('note_on', channel=4, note=47, velocity=95, time=0),
    Message('note_on', channel=4, note=54, velocity=95, time=4),
    Message('note_on', channel=4, note=59, velocity=95, time=4),
    Message('note_on', channel=4, note=63, velocity=95, time=4),
    Message('note_on', channel=4, note=66, velocity=95, time=4),
    Message('note_on', channel=4, note=71, velocity=95, time=4),
    Message('note_off', channel=4, note=71, velocity=95, time=460),
    Message('note_off', channel=4, note=66, velocity=95, time=0),
    Message('note_off', channel=4, note=63, velocity=95, time=0),
    Message('note_off', channel=4, note=59, velocity=95, time=0),
    Message('note_off', channel=4, note=54, velocity=95, time=0),
    Message('note_off', channel=4, note=47, velocity=95, time=0),
    Message('note_on', channel=4, note=42, velocity=95, time=0),
    Message('note_on', channel=4, note=49, velocity=95, time=8),
    Message('note_on', channel=4, note=54, velocity=95, time=8),
    Message('note_on', channel=4, note=58, velocity=95, time=8),
    Message('note_on', channel=4, note=61, velocity=95, time=8),
    Message('note_on', channel=4, note=66, velocity=95, time=8),
    Message('note_off', channel=4, note=66, velocity=95, time=2840),
    Message('note_off', channel=4, note=61, velocity=95, time=0),
    Message('note_off', channel=4, note=58, velocity=95, time=0),
    Message('note_off', channel=4, note=54, velocity=95, time=0),
    Message('note_off', channel=4, note=49, velocity=95, time=0),
    Message('note_off', channel=4, note=42, velocity=95, time=0),
    Message('note_on', channel=4, note=64, velocity=95, time=240),
    Message('note_off', channel=4, note=64, velocity=95, time=480),
    Message('note_on', channel=4, note=59, velocity=95, time=0),
    Message('note_off', channel=4, note=59, velocity=95, time=240),
    Message('note_on', channel=4, note=45, velocity=95, time=480),
    Message('note_on', channel=4, note=52, velocity=95, time=6),
    Message('note_on', channel=4, note=55, velocity=95, time=6),
    Message('note_on', channel=4, note=61, velocity=95, time=6),
    Message('note_on', channel=4, note=64, velocity=95, time=6),
    Message('note_off', channel=4, note=64, velocity=95, time=696),
    Message('note_off', channel=4, note=61, velocity=95, time=0),
    Message('note_off', channel=4, note=55, velocity=95, time=0),
    Message('note_off', channel=4, note=52, velocity=95, time=0),
    Message('note_off', channel=4, note=45, velocity=95, time=0),
    Message('note_on', channel=4, note=45, velocity=95, time=0),
    Message('note_on', channel=4, note=52, velocity=95, time=2),
    Message('note_on', channel=4, note=55, velocity=95, time=2),
    Message('note_on', channel=4, note=59, velocity=95, time=2),
    Message('note_on', channel=4, note=64, velocity=95, time=2),
    Message('note_off', channel=4, note=64, velocity=95, time=232),
    Message('note_off', channel=4, note=59, velocity=95, time=0),
    Message('note_off', channel=4, note=55, velocity=95, time=0),
    Message('note_off', channel=4, note=52, velocity=95, time=0),
    Message('note_off', channel=4, note=45, velocity=95, time=0),
    Message('note_on', channel=4, note=50, velocity=95, time=480),
    Message('note_on', channel=4, note=57, velocity=95, time=8),
    Message('note_on', channel=4, note=62, velocity=95, time=8),
    Message('note_on', channel=4, note=64, velocity=95, time=8),
    Message('note_off', channel=4, note=62, velocity=95, time=936),
    Message('note_off', channel=4, note=57, velocity=95, time=0),
    Message('note_off', channel=4, note=50, velocity=95, time=0),
    Message('note_off', channel=4, note=64, velocity=95, time=240),
    Message('note_on', channel=4, note=69, velocity=95, time=0),
    Message('note_off', channel=4, note=69, velocity=95, time=480),
    Message('note_on', channel=4, note=62, velocity=95, time=0),
    Message('note_off', channel=4, note=62, velocity=95, time=240),
    Message('note_on', channel=4, note=45, velocity=95, time=480),
    Message('note_on', channel=4, note=52, velocity=95, time=6),
    Message('note_on', channel=4, note=55, velocity=95, time=6),
    Message('note_on', channel=4, note=61, velocity=95, time=6),
    Message('note_on', channel=4, note=64, velocity=95, time=6),
    Message('note_off', channel=4, note=64, velocity=95, time=696),
    Message('note_off', channel=4, note=61, velocity=95, time=0),
    Message('note_off', channel=4, note=55, velocity=95, time=0),
    Message('note_off', channel=4, note=52, velocity=95, time=0),
    Message('note_off', channel=4, note=45, velocity=95, time=0),
    Message('note_on', channel=4, note=45, velocity=95, time=0),
    Message('note_on', channel=4, note=52, velocity=95, time=2),
    Message('note_on', channel=4, note=55, velocity=95, time=2),
    Message('note_on', channel=4, note=59, velocity=95, time=2),
    Message('note_on', channel=4, note=64, velocity=95, time=2),
    Message('note_off', channel=4, note=64, velocity=95, time=232),
    Message('note_off', channel=4, note=59, velocity=95, time=0),
    Message('note_off', channel=4, note=55, velocity=95, time=0),
    Message('note_off', channel=4, note=52, velocity=95, time=0),
    Message('note_off', channel=4, note=45, velocity=95, time=0),
    Message('note_on', channel=4, note=50, velocity=95, time=480),
    Message('note_on', channel=4, note=57, velocity=95, time=4),
    Message('note_off', channel=4, note=57, velocity=95, time=476),
    Message('note_off', channel=4, note=50, velocity=95, time=0),
    Message('note_on', channel=4, note=59, velocity=95, time=0),
    Message('note_off', channel=4, note=59, velocity=95, time=240),
    Message('note_on', channel=4, note=50, velocity=95, time=0),
    Message('note_on', channel=4, note=57, velocity=95, time=4),
    Message('note_off', channel=4, note=57, velocity=95, time=476),
    Message('note_off', channel=4, note=50, velocity=95, time=0),
    Message('note_on', channel=4, note=59, velocity=95, time=0),
    Message('note_off', channel=4, note=59, velocity=95, time=240),
    Message('note_on', channel=4, note=50, velocity=95, time=0),
    Message('note_on', channel=4, note=57, velocity=95, time=4),
    Message('note_off', channel=4, note=57, velocity=95, time=476),
    Message('note_off', channel=4, note=50, velocity=95, time=0),
    Message('note_on', channel=4, note=45, velocity=95, time=480),
    Message('note_on', channel=4, note=52, velocity=95, time=6),
    Message('note_on', channel=4, note=55, velocity=95, time=6),
    Message('note_on', channel=4, note=61, velocity=95, time=6),
    Message('note_on', channel=4, note=64, velocity=95, time=6),
    Message('note_off', channel=4, note=64, velocity=95, time=696),
    Message('note_off', channel=4, note=61, velocity=95, time=0),
    Message('note_off', channel=4, note=55, velocity=95, time=0),
    Message('note_off', channel=4, note=52, velocity=95, time=0),
    Message('note_off', channel=4, note=45, velocity=95, time=0),
    Message('note_on', channel=4, note=45, velocity=95, time=0),
    Message('note_on', channel=4, note=52, velocity=95, time=2),
    Message('note_on', channel=4, note=55, velocity=95, time=2),
    Message('note_on', channel=4, note=59, velocity=95, time=2),
    Message('note_on', channel=4, note=64, velocity=95, time=2),
    Message('note_off', channel=4, note=64, velocity=95, time=232),
    Message('note_off', channel=4, note=59, velocity=95, time=0),
    Message('note_off', channel=4, note=55, velocity=95, time=0),
    Message('note_off', channel=4, note=52, velocity=95, time=0),
    Message('note_off', channel=4, note=45, velocity=95, time=0),
    Message('note_on', channel=4, note=50, velocity=95, time=480),
    Message('note_on', channel=4, note=57, velocity=95, time=8),
    Message('note_on', channel=4, note=62, velocity=95, time=8),
    Message('note_on', channel=4, note=64, velocity=95, time=8),
    Message('note_off', channel=4, note=64, velocity=95, time=1416),
    Message('note_off', channel=4, note=62, velocity=95, time=0),
    Message('note_off', channel=4, note=57, velocity=95, time=0),
    Message('note_off', channel=4, note=50, velocity=95, time=0),
    Message('note_on', channel=4, note=69, velocity=95, time=0),
    Message('note_off', channel=4, note=69, velocity=95, time=240),
    Message('note_on', channel=4, note=62, velocity=95, time=0),
    Message('note_off', channel=4, note=62, velocity=95, time=240),
    Message('note_on', channel=4, note=45, velocity=95, time=480),
    Message('note_on', channel=4, note=52, velocity=95, time=6),
    Message('note_on', channel=4, note=55, velocity=95, time=6),
    Message('note_on', channel=4, note=61, velocity=95, time=6),
    Message('note_on', channel=4, note=64, velocity=95, time=6),
    Message('note_off', channel=4, note=64, velocity=95, time=696),
    Message('note_off', channel=4, note=61, velocity=95, time=0),
    Message('note_off', channel=4, note=55, velocity=95, time=0),
    Message('note_off', channel=4, note=52, velocity=95, time=0),
    Message('note_off', channel=4, note=45, velocity=95, time=0),
    Message('note_on', channel=4, note=45, velocity=95, time=0),
    Message('note_on', channel=4, note=52, velocity=95, time=2),
    Message('note_on', channel=4, note=55, velocity=95, time=2),
    Message('note_on', channel=4, note=59, velocity=95, time=2),
    Message('note_on', channel=4, note=64, velocity=95, time=2),
    Message('note_off', channel=4, note=64, velocity=95, time=232),
    Message('note_off', channel=4, note=59, velocity=95, time=0),
    Message('note_off', channel=4, note=55, velocity=95, time=0),
    Message('note_off', channel=4, note=52, velocity=95, time=0),
    Message('note_off', channel=4, note=45, velocity=95, time=0),
    Message('note_on', channel=4, note=50, velocity=95, time=480),
    Message('note_on', channel=4, note=57, velocity=95, time=4),
    Message('note_off', channel=4, note=57, velocity=95, time=476),
    Message('note_off', channel=4, note=50, velocity=95, time=0),
    Message('note_on', channel=4, note=59, velocity=95, time=0),
    Message('note_off', channel=4, note=59, velocity=95, time=240),
    Message('note_on', channel=4, note=50, velocity=95, time=0),
    Message('note_on', channel=4, note=57, velocity=95, time=4),
    Message('note_off', channel=4, note=57, velocity=95, time=476),
    Message('note_off', channel=4, note=50, velocity=95, time=0),
    Message('note_on', channel=4, note=59, velocity=95, time=0),
    Message('note_off', channel=4, note=59, velocity=95, time=240),
    Message('note_on', channel=4, note=50, velocity=95, time=0),
    Message('note_on', channel=4, note=57, velocity=95, time=4),
    Message('note_off', channel=4, note=57, velocity=95, time=476),
    Message('note_off', channel=4, note=50, velocity=95, time=0),
    Message('note_on', channel=4, note=47, velocity=95, time=480),
    Message('note_on', channel=4, note=54, velocity=95, time=6),
    Message('note_on', channel=4, note=57, velocity=95, time=6),
    Message('note_on', channel=4, note=63, velocity=95, time=6),
    Message('note_on', channel=4, note=66, velocity=95, time=6),
    Message('note_off', channel=4, note=66, velocity=95, time=696),
    Message('note_off', channel=4, note=63, velocity=95, time=0),
    Message('note_off', channel=4, note=57, velocity=95, time=0),
    Message('note_off', channel=4, note=54, velocity=95, time=0),
    Message('note_off', channel=4, note=47, velocity=95, time=0),
    Message('note_on', channel=4, note=47, velocity=95, time=0),
    Message('note_on', channel=4, note=54, velocity=95, time=2),
    Message('note_on', channel=4, note=57, velocity=95, time=2),
    Message('note_on', channel=4, note=61, velocity=95, time=2),
    Message('note_on', channel=4, note=66, velocity=95, time=2),
    Message('note_off', channel=4, note=66, velocity=95, time=232),
    Message('note_off', channel=4, note=61, velocity=95, time=0),
    Message('note_off', channel=4, note=57, velocity=95, time=0),
    Message('note_off', channel=4, note=54, velocity=95, time=0),
    Message('note_off', channel=4, note=47, velocity=95, time=0),
    Message('note_on', channel=4, note=52, velocity=95, time=480),
    Message('note_on', channel=4, note=59, velocity=95, time=8),
    Message('note_on', channel=4, note=64, velocity=95, time=8),
    Message('note_on', channel=4, note=66, velocity=95, time=8),
    Message('note_off', channel=4, note=66, velocity=95, time=1896),
    Message('note_off', channel=4, note=64, velocity=95, time=0),
    Message('note_off', channel=4, note=59, velocity=95, time=0),
    Message('note_off', channel=4, note=52, velocity=95, time=0),
    Message('note_on', channel=4, note=47, velocity=95, time=480),
    Message('note_on', channel=4, note=54, velocity=95, time=6),
    Message('note_on', channel=4, note=57, velocity=95, time=6),
    Message('note_on', channel=4, note=63, velocity=95, time=6),
    Message('note_on', channel=4, note=66, velocity=95, time=6),
    Message('note_off', channel=4, note=66, velocity=95, time=696),
    Message('note_off', channel=4, note=63, velocity=95, time=0),
    Message('note_off', channel=4, note=57, velocity=95, time=0),
    Message('note_off', channel=4, note=54, velocity=95, time=0),
    Message('note_off', channel=4, note=47, velocity=95, time=0),
    Message('note_on', channel=4, note=47, velocity=95, time=0),
    Message('note_on', channel=4, note=54, velocity=95, time=2),
    Message('note_on', channel=4, note=57, velocity=95, time=2),
    Message('note_on', channel=4, note=61, velocity=95, time=2),
    Message('note_on', channel=4, note=66, velocity=95, time=2),
    Message('note_off', channel=4, note=66, velocity=95, time=232),
    Message('note_off', channel=4, note=61, velocity=95, time=0),
    Message('note_off', channel=4, note=57, velocity=95, time=0),
    Message('note_off', channel=4, note=54, velocity=95, time=0),
    Message('note_off', channel=4, note=47, velocity=95, time=0),
    Message('note_on', channel=4, note=52, velocity=95, time=480),
    Message('note_on', channel=4, note=59, velocity=95, time=4),
    Message('note_off', channel=4, note=59, velocity=95, time=476),
    Message('note_off', channel=4, note=52, velocity=95, time=0),
    Message('note_on', channel=4, note=61, velocity=95, time=0),
    Message('note_off', channel=4, note=61, velocity=95, time=240),
    Message('note_on', channel=4, note=52, velocity=95, time=0),
    Message('note_on', channel=4, note=59, velocity=95, time=4),
    Message('note_off', channel=4, note=59, velocity=95, time=476),
    Message('note_off', channel=4, note=52, velocity=95, time=0),
    Message('note_on', channel=4, note=61, velocity=95, time=0),
    Message('note_off', channel=4, note=61, velocity=95, time=240),
    Message('note_on', channel=4, note=52, velocity=95, time=0),
    Message('note_on', channel=4, note=59, velocity=95, time=4),
    Message('note_off', channel=4, note=59, velocity=95, time=476),
    Message('note_off', channel=4, note=52, velocity=95, time=0),
    Message('note_on', channel=4, note=47, velocity=95, time=480),
    Message('note_on', channel=4, note=54, velocity=95, time=6),
    Message('note_on', channel=4, note=57, velocity=95, time=6),
    Message('note_on', channel=4, note=63, velocity=95, time=6),
    Message('note_on', channel=4, note=66, velocity=95, time=6),
    Message('note_off', channel=4, note=66, velocity=95, time=696),
    Message('note_off', channel=4, note=63, velocity=95, time=0),
    Message('note_off', channel=4, note=57, velocity=95, time=0),
    Message('note_off', channel=4, note=54, velocity=95, time=0),
    Message('note_off', channel=4, note=47, velocity=95, time=0),
    Message('note_on', channel=4, note=47, velocity=95, time=0),
    Message('note_on', channel=4, note=54, velocity=95, time=2),
    Message('note_on', channel=4, note=57, velocity=95, time=2),
    Message('note_on', channel=4, note=61, velocity=95, time=2),
    Message('note_on', channel=4, note=66, velocity=95, time=2),
    Message('note_off', channel=4, note=66, velocity=95, time=232),
    Message('note_off', channel=4, note=61, velocity=95, time=0),
    Message('note_off', channel=4, note=57, velocity=95, time=0),
    Message('note_off', channel=4, note=54, velocity=95, time=0),
    Message('note_off', channel=4, note=47, velocity=95, time=0),
    Message('note_on', channel=4, note=52, velocity=95, time=480),
    Message('note_on', channel=4, note=59, velocity=95, time=8),
    Message('note_on', channel=4, note=64, velocity=95, time=8),
    Message('note_on', channel=4, note=66, velocity=95, time=8),
    Message('note_off', channel=4, note=66, velocity=95, time=1416),
    Message('note_off', channel=4, note=64, velocity=95, time=0),
    Message('note_off', channel=4, note=59, velocity=95, time=0),
    Message('note_off', channel=4, note=52, velocity=95, time=0),
    Message('note_on', channel=4, note=66, velocity=95, time=0),
    Message('note_on', channel=4, note=64, velocity=95, time=2),
    Message('note_on', channel=4, note=59, velocity=95, time=2),
    Message('note_on', channel=4, note=52, velocity=95, time=2),
    Message('note_off', channel=4, note=66, velocity=95, time=234),
    Message('note_off', channel=4, note=64, velocity=95, time=0),
    Message('note_off', channel=4, note=59, velocity=95, time=0),
    Message('note_off', channel=4, note=52, velocity=95, time=0),
    Message('note_on', channel=4, note=52, velocity=95, time=0),
    Message('note_on', channel=4, note=59, velocity=95, time=2),
    Message('note_on', channel=4, note=64, velocity=95, time=2),
    Message('note_on', channel=4, note=66, velocity=95, time=2),
    Message('note_off', channel=4, note=66, velocity=95, time=234),
    Message('note_off', channel=4, note=64, velocity=95, time=0),
    Message('note_off', channel=4, note=59, velocity=95, time=0),
    Message('note_off', channel=4, note=52, velocity=95, time=0),
    Message('note_on', channel=4, note=47, velocity=95, time=480),
    Message('note_on', channel=4, note=54, velocity=95, time=6),
    Message('note_on', channel=4, note=57, velocity=95, time=6),
    Message('note_on', channel=4, note=63, velocity=95, time=6),
    Message('note_on', channel=4, note=66, velocity=95, time=6),
    Message('note_off', channel=4, note=66, velocity=95, time=696),
    Message('note_off', channel=4, note=63, velocity=95, time=0),
    Message('note_off', channel=4, note=57, velocity=95, time=0),
    Message('note_off', channel=4, note=54, velocity=95, time=0),
    Message('note_off', channel=4, note=47, velocity=95, time=0),
    Message('note_on', channel=4, note=47, velocity=95, time=0),
    Message('note_on', channel=4, note=54, velocity=95, time=2),
    Message('note_on', channel=4, note=57, velocity=95, time=2),
    Message('note_on', channel=4, note=61, velocity=95, time=2),
    Message('note_on', channel=4, note=66, velocity=95, time=2),
    Message('note_off', channel=4, note=66, velocity=95, time=232),
    Message('note_off', channel=4, note=61, velocity=95, time=0),
    Message('note_off', channel=4, note=57, velocity=95, time=0),
    Message('note_off', channel=4, note=54, velocity=95, time=0),
    Message('note_off', channel=4, note=47, velocity=95, time=0),
    Message('note_on', channel=4, note=52, velocity=95, time=480),
    Message('note_on', channel=4, note=59, velocity=95, time=4),
    Message('note_off', channel=4, note=59, velocity=95, time=476),
    Message('note_off', channel=4, note=52, velocity=95, time=0),
    Message('note_on', channel=4, note=61, velocity=95, time=0),
    Message('note_off', channel=4, note=61, velocity=95, time=240),
    Message('note_on', channel=4, note=52, velocity=95, time=0),
    Message('note_on', channel=4, note=59, velocity=95, time=4),
    Message('note_off', channel=4, note=59, velocity=95, time=476),
    Message('note_off', channel=4, note=52, velocity=95, time=0),
    Message('note_on', channel=4, note=61, velocity=95, time=0),
    Message('note_off', channel=4, note=61, velocity=95, time=240),
    Message('note_on', channel=4, note=52, velocity=95, time=0),
    Message('note_on', channel=4, note=59, velocity=95, time=4),
    Message('note_off', channel=4, note=59, velocity=95, time=476),
    Message('note_off', channel=4, note=52, velocity=95, time=0),
    Message('note_on', channel=4, note=40, velocity=95, time=0),
    Message('note_on', channel=4, note=47, velocity=95, time=4),
    Message('note_on', channel=4, note=52, velocity=95, time=4),
    Message('note_on', channel=4, note=56, velocity=95, time=4),
    Message('note_on', channel=4, note=59, velocity=95, time=4),
    Message('note_on', channel=4, note=64, velocity=95, time=4),
    Message('note_off', channel=4, note=64, velocity=95, time=460),
    Message('note_off', channel=4, note=59, velocity=95, time=0),
    Message('note_off', channel=4, note=56, velocity=95, time=0),
    Message('note_off', channel=4, note=52, velocity=95, time=0),
    Message('note_off', channel=4, note=47, velocity=95, time=0),
    Message('note_off', channel=4, note=40, velocity=95, time=0),
    Message('note_on', channel=4, note=40, velocity=95, time=0),
    Message('note_on', channel=4, note=47, velocity=95, time=2),
    Message('note_on', channel=4, note=52, velocity=95, time=2),
    Message('note_on', channel=4, note=56, velocity=95, time=2),
    Message('note_on', channel=4, note=59, velocity=95, time=2),
    Message('note_on', channel=4, note=64, velocity=95, time=2),
    Message('note_off', channel=4, note=64, velocity=95, time=230),
    Message('note_off', channel=4, note=59, velocity=95, time=0),
    Message('note_off', channel=4, note=56, velocity=95, time=0),
    Message('note_off', channel=4, note=52, velocity=95, time=0),
    Message('note_off', channel=4, note=47, velocity=95, time=0),
    Message('note_off', channel=4, note=40, velocity=95, time=0),
    Message('note_on', channel=4, note=64, velocity=95, time=0),
    Message('note_on', channel=4, note=59, velocity=95, time=2),
    Message('note_on', channel=4, note=56, velocity=95, time=2),
    Message('note_on', channel=4, note=52, velocity=95, time=2),
    Message('note_on', channel=4, note=47, velocity=95, time=2),
    Message('note_on', channel=4, note=40, velocity=95, time=2),
    Message('note_off', channel=4, note=64, velocity=95, time=230),
    Message('note_off', channel=4, note=59, velocity=95, time=0),
    Message('note_off', channel=4, note=56, velocity=95, time=0),
    Message('note_off', channel=4, note=52, velocity=95, time=0),
    Message('note_off', channel=4, note=47, velocity=95, time=0),
    Message('note_off', channel=4, note=40, velocity=95, time=0),
    Message('note_on', channel=4, note=40, velocity=95, time=0),
    Message('note_on', channel=4, note=47, velocity=95, time=2),
    Message('note_on', channel=4, note=52, velocity=95, time=2),
    Message('note_on', channel=4, note=56, velocity=95, time=2),
    Message('note_on', channel=4, note=59, velocity=95, time=2),
    Message('note_on', channel=4, note=64, velocity=95, time=2),
    Message('note_off', channel=4, note=64, velocity=95, time=230),
    Message('note_off', channel=4, note=59, velocity=95, time=0),
    Message('note_off', channel=4, note=56, velocity=95, time=0),
    Message('note_off', channel=4, note=52, velocity=95, time=0),
    Message('note_off', channel=4, note=47, velocity=95, time=0),
    Message('note_off', channel=4, note=40, velocity=95, time=0),
    Message('note_on', channel=4, note=64, velocity=95, time=0),
    Message('note_on', channel=4, note=59, velocity=95, time=2),
    Message('note_on', channel=4, note=56, velocity=95, time=2),
    Message('note_on', channel=4, note=52, velocity=95, time=2),
    Message('note_on', channel=4, note=47, velocity=95, time=2),
    Message('note_on', channel=4, note=40, velocity=95, time=2),
    Message('note_off', channel=4, note=64, velocity=95, time=230),
    Message('note_off', channel=4, note=59, velocity=95, time=0),
    Message('note_off', channel=4, note=56, velocity=95, time=0),
    Message('note_off', channel=4, note=52, velocity=95, time=0),
    Message('note_off', channel=4, note=47, velocity=95, time=0),
    Message('note_off', channel=4, note=40, velocity=95, time=0),
    Message('note_on', channel=4, note=40, velocity=95, time=0),
    Message('note_on', channel=4, note=47, velocity=95, time=2),
    Message('note_on', channel=4, note=52, velocity=95, time=2),
    Message('note_on', channel=4, note=56, velocity=95, time=2),
    Message('note_on', channel=4, note=59, velocity=95, time=2),
    Message('note_on', channel=4, note=64, velocity=95, time=2),
    Message('note_off', channel=4, note=64, velocity=95, time=230),
    Message('note_off', channel=4, note=59, velocity=95, time=0),
    Message('note_off', channel=4, note=56, velocity=95, time=0),
    Message('note_off', channel=4, note=52, velocity=95, time=0),
    Message('note_off', channel=4, note=47, velocity=95, time=0),
    Message('note_off', channel=4, note=40, velocity=95, time=0),
    Message('note_on', channel=4, note=64, velocity=95, time=0),
    Message('note_on', channel=4, note=59, velocity=95, time=2),
    Message('note_on', channel=4, note=56, velocity=95, time=2),
    Message('note_on', channel=4, note=52, velocity=95, time=2),
    Message('note_on', channel=4, note=47, velocity=95, time=2),
    Message('note_on', channel=4, note=40, velocity=95, time=2),
    Message('note_off', channel=4, note=64, velocity=95, time=230),
    Message('note_off', channel=4, note=59, velocity=95, time=0),
    Message('note_off', channel=4, note=56, velocity=95, time=0),
    Message('note_off', channel=4, note=52, velocity=95, time=0),
    Message('note_off', channel=4, note=47, velocity=95, time=0),
    Message('note_off', channel=4, note=40, velocity=95, time=0),
    Message('note_on', channel=4, note=43, velocity=95, time=0),
    Message('note_on', channel=4, note=47, velocity=95, time=4),
    Message('note_on', channel=4, note=50, velocity=95, time=4),
    Message('note_on', channel=4, note=55, velocity=95, time=4),
    Message('note_on', channel=4, note=62, velocity=95, time=4),
    Message('note_on', channel=4, note=67, velocity=95, time=4),
    Message('note_off', channel=4, note=67, velocity=95, time=460),
    Message('note_off', channel=4, note=62, velocity=95, time=0),
    Message('note_off', channel=4, note=55, velocity=95, time=0),
    Message('note_off', channel=4, note=50, velocity=95, time=0),
    Message('note_off', channel=4, note=47, velocity=95, time=0),
    Message('note_off', channel=4, note=43, velocity=95, time=0),
    Message('note_on', channel=4, note=43, velocity=95, time=0),
    Message('note_on', channel=4, note=47, velocity=95, time=2),
    Message('note_on', channel=4, note=50, velocity=95, time=2),
    Message('note_on', channel=4, note=55, velocity=95, time=2),
    Message('note_on', channel=4, note=62, velocity=95, time=2),
    Message('note_on', channel=4, note=67, velocity=95, time=2),
    Message('note_off', channel=4, note=67, velocity=95, time=230),
    Message('note_off', channel=4, note=62, velocity=95, time=0),
    Message('note_off', channel=4, note=55, velocity=95, time=0),
    Message('note_off', channel=4, note=50, velocity=95, time=0),
    Message('note_off', channel=4, note=47, velocity=95, time=0),
    Message('note_off', channel=4, note=43, velocity=95, time=0),
    Message('note_on', channel=4, note=67, velocity=95, time=0),
    Message('note_on', channel=4, note=62, velocity=95, time=2),
    Message('note_on', channel=4, note=55, velocity=95, time=2),
    Message('note_on', channel=4, note=50, velocity=95, time=2),
    Message('note_on', channel=4, note=47, velocity=95, time=2),
    Message('note_on', channel=4, note=43, velocity=95, time=2),
    Message('note_off', channel=4, note=67, velocity=95, time=230),
    Message('note_off', channel=4, note=62, velocity=95, time=0),
    Message('note_off', channel=4, note=55, velocity=95, time=0),
    Message('note_off', channel=4, note=50, velocity=95, time=0),
    Message('note_off', channel=4, note=47, velocity=95, time=0),
    Message('note_off', channel=4, note=43, velocity=95, time=0),
    Message('note_on', channel=4, note=43, velocity=95, time=0),
    Message('note_on', channel=4, note=47, velocity=95, time=2),
    Message('note_on', channel=4, note=50, velocity=95, time=2),
    Message('note_on', channel=4, note=55, velocity=95, time=2),
    Message('note_on', channel=4, note=62, velocity=95, time=2),
    Message('note_on', channel=4, note=67, velocity=95, time=2),
    Message('note_off', channel=4, note=67, velocity=95, time=230),
    Message('note_off', channel=4, note=62, velocity=95, time=0),
    Message('note_off', channel=4, note=55, velocity=95, time=0),
    Message('note_off', channel=4, note=50, velocity=95, time=0),
    Message('note_off', channel=4, note=47, velocity=95, time=0),
    Message('note_off', channel=4, note=43, velocity=95, time=0),
    Message('note_on', channel=4, note=67, velocity=95, time=0),
    Message('note_on', channel=4, note=62, velocity=95, time=2),
    Message('note_on', channel=4, note=55, velocity=95, time=2),
    Message('note_on', channel=4, note=50, velocity=95, time=2),
    Message('note_on', channel=4, note=47, velocity=95, time=2),
    Message('note_on', channel=4, note=43, velocity=95, time=2),
    Message('note_off', channel=4, note=67, velocity=95, time=230),
    Message('note_off', channel=4, note=62, velocity=95, time=0),
    Message('note_off', channel=4, note=55, velocity=95, time=0),
    Message('note_off', channel=4, note=50, velocity=95, time=0),
    Message('note_off', channel=4, note=47, velocity=95, time=0),
    Message('note_off', channel=4, note=43, velocity=95, time=0),
    Message('note_on', channel=4, note=43, velocity=95, time=0),
    Message('note_on', channel=4, note=47, velocity=95, time=2),
    Message('note_on', channel=4, note=50, velocity=95, time=2),
    Message('note_on', channel=4, note=55, velocity=95, time=2),
    Message('note_on', channel=4, note=62, velocity=95, time=2),
    Message('note_on', channel=4, note=67, velocity=95, time=2),
    Message('note_off', channel=4, note=67, velocity=95, time=230),
    Message('note_off', channel=4, note=62, velocity=95, time=0),
    Message('note_off', channel=4, note=55, velocity=95, time=0),
    Message('note_off', channel=4, note=50, velocity=95, time=0),
    Message('note_off', channel=4, note=47, velocity=95, time=0),
    Message('note_off', channel=4, note=43, velocity=95, time=0),
    Message('note_on', channel=4, note=67, velocity=95, time=0),
    Message('note_on', channel=4, note=62, velocity=95, time=2),
    Message('note_on', channel=4, note=55, velocity=95, time=2),
    Message('note_on', channel=4, note=50, velocity=95, time=2),
    Message('note_on', channel=4, note=47, velocity=95, time=2),
    Message('note_on', channel=4, note=43, velocity=95, time=2),
    Message('note_off', channel=4, note=67, velocity=95, time=230),
    Message('note_off', channel=4, note=62, velocity=95, time=0),
    Message('note_off', channel=4, note=55, velocity=95, time=0),
    Message('note_off', channel=4, note=50, velocity=95, time=0),
    Message('note_off', channel=4, note=47, velocity=95, time=0),
    Message('note_off', channel=4, note=43, velocity=95, time=0),
    Message('note_on', channel=4, note=50, velocity=95, time=0),
    Message('note_on', channel=4, note=57, velocity=95, time=4),
    Message('note_on', channel=4, note=62, velocity=95, time=4),
    Message('note_on', channel=4, note=66, velocity=95, time=4),
    Message('note_off', channel=4, note=66, velocity=95, time=468),
    Message('note_off', channel=4, note=62, velocity=95, time=0),
    Message('note_off', channel=4, note=57, velocity=95, time=0),
    Message('note_off', channel=4, note=50, velocity=95, time=0),
    Message('note_on', channel=4, note=50, velocity=95, time=0),
    Message('note_on', channel=4, note=57, velocity=95, time=2),
    Message('note_on', channel=4, note=62, velocity=95, time=2),
    Message('note_on', channel=4, note=66, velocity=95, time=2),
    Message('note_off', channel=4, note=66, velocity=95, time=234),
    Message('note_off', channel=4, note=62, velocity=95, time=0),
    Message('note_off', channel=4, note=57, velocity=95, time=0),
    Message('note_off', channel=4, note=50, velocity=95, time=0),
    Message('note_on', channel=4, note=66, velocity=95, time=0),
    Message('note_on', channel=4, note=62, velocity=95, time=2),
    Message('note_on', channel=4, note=57, velocity=95, time=2),
    Message('note_on', channel=4, note=50, velocity=95, time=2),
    Message('note_off', channel=4, note=66, velocity=95, time=234),
    Message('note_off', channel=4, note=62, velocity=95, time=0),
    Message('note_off', channel=4, note=57, velocity=95, time=0),
    Message('note_off', channel=4, note=50, velocity=95, time=0),
    Message('note_on', channel=4, note=50, velocity=95, time=0),
    Message('note_on', channel=4, note=57, velocity=95, time=2),
    Message('note_on', channel=4, note=62, velocity=95, time=2),
    Message('note_on', channel=4, note=66, velocity=95, time=2),
    Message('note_off', channel=4, note=66, velocity=95, time=234),
    Message('note_off', channel=4, note=62, velocity=95, time=0),
    Message('note_off', channel=4, note=57, velocity=95, time=0),
    Message('note_off', channel=4, note=50, velocity=95, time=0),
    Message('note_on', channel=4, note=66, velocity=95, time=0),
    Message('note_on', channel=4, note=62, velocity=95, time=2),
    Message('note_on', channel=4, note=57, velocity=95, time=2),
    Message('note_on', channel=4, note=50, velocity=95, time=2),
    Message('note_off', channel=4, note=66, velocity=95, time=234),
    Message('note_off', channel=4, note=62, velocity=95, time=0),
    Message('note_off', channel=4, note=57, velocity=95, time=0),
    Message('note_off', channel=4, note=50, velocity=95, time=0),
    Message('note_on', channel=4, note=50, velocity=95, time=0),
    Message('note_on', channel=4, note=57, velocity=95, time=2),
    Message('note_on', channel=4, note=62, velocity=95, time=2),
    Message('note_on', channel=4, note=66, velocity=95, time=2),
    Message('note_off', channel=4, note=66, velocity=95, time=234),
    Message('note_off', channel=4, note=62, velocity=95, time=0),
    Message('note_off', channel=4, note=57, velocity=95, time=0),
    Message('note_off', channel=4, note=50, velocity=95, time=0),
    Message('note_on', channel=4, note=66, velocity=95, time=0),
    Message('note_on', channel=4, note=62, velocity=95, time=2),
    Message('note_on', channel=4, note=57, velocity=95, time=2),
    Message('note_on', channel=4, note=50, velocity=95, time=2),
    Message('note_off', channel=4, note=66, velocity=95, time=234),
    Message('note_off', channel=4, note=62, velocity=95, time=0),
    Message('note_off', channel=4, note=57, velocity=95, time=0),
    Message('note_off', channel=4, note=50, velocity=95, time=0),
    Message('note_on', channel=4, note=45, velocity=95, time=0),
    Message('note_on', channel=4, note=52, velocity=95, time=4),
    Message('note_on', channel=4, note=57, velocity=95, time=4),
    Message('note_on', channel=4, note=61, velocity=95, time=4),
    Message('note_on', channel=4, note=64, velocity=95, time=4),
    Message('note_off', channel=4, note=64, velocity=95, time=464),
    Message('note_off', channel=4, note=61, velocity=95, time=0),
    Message('note_off', channel=4, note=57, velocity=95, time=0),
    Message('note_off', channel=4, note=52, velocity=95, time=0),
    Message('note_off', channel=4, note=45, velocity=95, time=0),
    Message('note_on', channel=4, note=45, velocity=95, time=0),
    Message('note_on', channel=4, note=52, velocity=95, time=2),
    Message('note_on', channel=4, note=57, velocity=95, time=2),
    Message('note_on', channel=4, note=61, velocity=95, time=2),
    Message('note_on', channel=4, note=64, velocity=95, time=2),
    Message('note_off', channel=4, note=64, velocity=95, time=232),
    Message('note_off', channel=4, note=61, velocity=95, time=0),
    Message('note_off', channel=4, note=57, velocity=95, time=0),
    Message('note_off', channel=4, note=52, velocity=95, time=0),
    Message('note_off', channel=4, note=45, velocity=95, time=0),
    Message('note_on', channel=4, note=64, velocity=95, time=0),
    Message('note_on', channel=4, note=61, velocity=95, time=2),
    Message('note_on', channel=4, note=57, velocity=95, time=2),
    Message('note_on', channel=4, note=52, velocity=95, time=2),
    Message('note_on', channel=4, note=45, velocity=95, time=2),
    Message('note_off', channel=4, note=64, velocity=95, time=232),
    Message('note_off', channel=4, note=61, velocity=95, time=0),
    Message('note_off', channel=4, note=57, velocity=95, time=0),
    Message('note_off', channel=4, note=52, velocity=95, time=0),
    Message('note_off', channel=4, note=45, velocity=95, time=0),
    Message('note_on', channel=4, note=45, velocity=95, time=0),
    Message('note_on', channel=4, note=52, velocity=95, time=2),
    Message('note_on', channel=4, note=57, velocity=95, time=2),
    Message('note_on', channel=4, note=61, velocity=95, time=2),
    Message('note_on', channel=4, note=64, velocity=95, time=2),
    Message('note_off', channel=4, note=64, velocity=95, time=232),
    Message('note_off', channel=4, note=61, velocity=95, time=0),
    Message('note_off', channel=4, note=57, velocity=95, time=0),
    Message('note_off', channel=4, note=52, velocity=95, time=0),
    Message('note_off', channel=4, note=45, velocity=95, time=0),
    Message('note_on', channel=4, note=64, velocity=95, time=0),
    Message('note_on', channel=4, note=61, velocity=95, time=2),
    Message('note_on', channel=4, note=57, velocity=95, time=2),
    Message('note_on', channel=4, note=52, velocity=95, time=2),
    Message('note_on', channel=4, note=45, velocity=95, time=2),
    Message('note_off', channel=4, note=64, velocity=95, time=232),
    Message('note_off', channel=4, note=61, velocity=95, time=0),
    Message('note_off', channel=4, note=57, velocity=95, time=0),
    Message('note_off', channel=4, note=52, velocity=95, time=0),
    Message('note_off', channel=4, note=45, velocity=95, time=0),
    Message('note_on', channel=4, note=45, velocity=95, time=0),
    Message('note_on', channel=4, note=52, velocity=95, time=2),
    Message('note_on', channel=4, note=57, velocity=95, time=2),
    Message('note_on', channel=4, note=61, velocity=95, time=2),
    Message('note_on', channel=4, note=64, velocity=95, time=2),
    Message('note_off', channel=4, note=64, velocity=95, time=232),
    Message('note_off', channel=4, note=61, velocity=95, time=0),
    Message('note_off', channel=4, note=57, velocity=95, time=0),
    Message('note_off', channel=4, note=52, velocity=95, time=0),
    Message('note_off', channel=4, note=45, velocity=95, time=0),
    Message('note_on', channel=4, note=64, velocity=95, time=0),
    Message('note_on', channel=4, note=61, velocity=95, time=2),
    Message('note_on', channel=4, note=57, velocity=95, time=2),
    Message('note_on', channel=4, note=52, velocity=95, time=2),
    Message('note_on', channel=4, note=45, velocity=95, time=2),
    Message('note_off', channel=4, note=64, velocity=95, time=232),
    Message('note_off', channel=4, note=61, velocity=95, time=0),
    Message('note_off', channel=4, note=57, velocity=95, time=0),
    Message('note_off', channel=4, note=52, velocity=95, time=0),
    Message('note_off', channel=4, note=45, velocity=95, time=0),
    Message('note_on', channel=4, note=40, velocity=95, time=0),
    Message('note_on', channel=4, note=47, velocity=95, time=4),
    Message('note_on', channel=4, note=52, velocity=95, time=4),
    Message('note_on', channel=4, note=56, velocity=95, time=4),
    Message('note_on', channel=4, note=59, velocity=95, time=4),
    Message('note_on', channel=4, note=64, velocity=95, time=4),
    Message('note_off', channel=4, note=64, velocity=95, time=460),
    Message('note_off', channel=4, note=59, velocity=95, time=0),
    Message('note_off', channel=4, note=56, velocity=95, time=0),
    Message('note_off', channel=4, note=52, velocity=95, time=0),
    Message('note_off', channel=4, note=47, velocity=95, time=0),
    Message('note_off', channel=4, note=40, velocity=95, time=0),
    Message('note_on', channel=4, note=40, velocity=95, time=0),
    Message('note_on', channel=4, note=47, velocity=95, time=2),
    Message('note_on', channel=4, note=52, velocity=95, time=2),
    Message('note_on', channel=4, note=56, velocity=95, time=2),
    Message('note_on', channel=4, note=59, velocity=95, time=2),
    Message('note_on', channel=4, note=64, velocity=95, time=2),
    Message('note_off', channel=4, note=64, velocity=95, time=230),
    Message('note_off', channel=4, note=59, velocity=95, time=0),
    Message('note_off', channel=4, note=56, velocity=95, time=0),
    Message('note_off', channel=4, note=52, velocity=95, time=0),
    Message('note_off', channel=4, note=47, velocity=95, time=0),
    Message('note_off', channel=4, note=40, velocity=95, time=0),
    Message('note_on', channel=4, note=64, velocity=95, time=0),
    Message('note_on', channel=4, note=59, velocity=95, time=2),
    Message('note_on', channel=4, note=56, velocity=95, time=2),
    Message('note_on', channel=4, note=52, velocity=95, time=2),
    Message('note_on', channel=4, note=47, velocity=95, time=2),
    Message('note_on', channel=4, note=40, velocity=95, time=2),
    Message('note_off', channel=4, note=64, velocity=95, time=230),
    Message('note_off', channel=4, note=59, velocity=95, time=0),
    Message('note_off', channel=4, note=56, velocity=95, time=0),
    Message('note_off', channel=4, note=52, velocity=95, time=0),
    Message('note_off', channel=4, note=47, velocity=95, time=0),
    Message('note_off', channel=4, note=40, velocity=95, time=0),
    Message('note_on', channel=4, note=40, velocity=95, time=0),
    Message('note_on', channel=4, note=47, velocity=95, time=2),
    Message('note_on', channel=4, note=52, velocity=95, time=2),
    Message('note_on', channel=4, note=56, velocity=95, time=2),
    Message('note_on', channel=4, note=59, velocity=95, time=2),
    Message('note_on', channel=4, note=64, velocity=95, time=2),
    Message('note_off', channel=4, note=64, velocity=95, time=230),
    Message('note_off', channel=4, note=59, velocity=95, time=0),
    Message('note_off', channel=4, note=56, velocity=95, time=0),
    Message('note_off', channel=4, note=52, velocity=95, time=0),
    Message('note_off', channel=4, note=47, velocity=95, time=0),
    Message('note_off', channel=4, note=40, velocity=95, time=0),
    Message('note_on', channel=4, note=64, velocity=95, time=0),
    Message('note_on', channel=4, note=59, velocity=95, time=2),
    Message('note_on', channel=4, note=56, velocity=95, time=2),
    Message('note_on', channel=4, note=52, velocity=95, time=2),
    Message('note_on', channel=4, note=47, velocity=95, time=2),
    Message('note_on', channel=4, note=40, velocity=95, time=2),
    Message('note_off', channel=4, note=64, velocity=95, time=230),
    Message('note_off', channel=4, note=59, velocity=95, time=0),
    Message('note_off', channel=4, note=56, velocity=95, time=0),
    Message('note_off', channel=4, note=52, velocity=95, time=0),
    Message('note_off', channel=4, note=47, velocity=95, time=0),
    Message('note_off', channel=4, note=40, velocity=95, time=0),
    Message('note_on', channel=4, note=40, velocity=95, time=0),
    Message('note_on', channel=4, note=47, velocity=95, time=2),
    Message('note_on', channel=4, note=52, velocity=95, time=2),
    Message('note_on', channel=4, note=56, velocity=95, time=2),
    Message('note_on', channel=4, note=59, velocity=95, time=2),
    Message('note_on', channel=4, note=64, velocity=95, time=2),
    Message('note_off', channel=4, note=64, velocity=95, time=230),
    Message('note_off', channel=4, note=59, velocity=95, time=0),
    Message('note_off', channel=4, note=56, velocity=95, time=0),
    Message('note_off', channel=4, note=52, velocity=95, time=0),
    Message('note_off', channel=4, note=47, velocity=95, time=0),
    Message('note_off', channel=4, note=40, velocity=95, time=0),
    Message('note_on', channel=4, note=64, velocity=95, time=0),
    Message('note_on', channel=4, note=59, velocity=95, time=2),
    Message('note_on', channel=4, note=56, velocity=95, time=2),
    Message('note_on', channel=4, note=52, velocity=95, time=2),
    Message('note_on', channel=4, note=47, velocity=95, time=2),
    Message('note_on', channel=4, note=40, velocity=95, time=2),
    Message('note_off', channel=4, note=64, velocity=95, time=230),
    Message('note_off', channel=4, note=59, velocity=95, time=0),
    Message('note_off', channel=4, note=56, velocity=95, time=0),
    Message('note_off', channel=4, note=52, velocity=95, time=0),
    Message('note_off', channel=4, note=47, velocity=95, time=0),
    Message('note_off', channel=4, note=40, velocity=95, time=0),
    Message('note_on', channel=4, note=43, velocity=95, time=0),
    Message('note_on', channel=4, note=47, velocity=95, time=4),
    Message('note_on', channel=4, note=50, velocity=95, time=4),
    Message('note_on', channel=4, note=55, velocity=95, time=4),
    Message('note_on', channel=4, note=62, velocity=95, time=4),
    Message('note_on', channel=4, note=67, velocity=95, time=4),
    Message('note_off', channel=4, note=67, velocity=95, time=460),
    Message('note_off', channel=4, note=62, velocity=95, time=0),
    Message('note_off', channel=4, note=55, velocity=95, time=0),
    Message('note_off', channel=4, note=50, velocity=95, time=0),
    Message('note_off', channel=4, note=47, velocity=95, time=0),
    Message('note_off', channel=4, note=43, velocity=95, time=0),
    Message('note_on', channel=4, note=43, velocity=95, time=0),
    Message('note_on', channel=4, note=47, velocity=95, time=2),
    Message('note_on', channel=4, note=50, velocity=95, time=2),
    Message('note_on', channel=4, note=55, velocity=95, time=2),
    Message('note_on', channel=4, note=62, velocity=95, time=2),
    Message('note_on', channel=4, note=67, velocity=95, time=2),
    Message('note_off', channel=4, note=67, velocity=95, time=230),
    Message('note_off', channel=4, note=62, velocity=95, time=0),
    Message('note_off', channel=4, note=55, velocity=95, time=0),
    Message('note_off', channel=4, note=50, velocity=95, time=0),
    Message('note_off', channel=4, note=47, velocity=95, time=0),
    Message('note_off', channel=4, note=43, velocity=95, time=0),
    Message('note_on', channel=4, note=67, velocity=95, time=0),
    Message('note_on', channel=4, note=62, velocity=95, time=2),
    Message('note_on', channel=4, note=55, velocity=95, time=2),
    Message('note_on', channel=4, note=50, velocity=95, time=2),
    Message('note_on', channel=4, note=47, velocity=95, time=2),
    Message('note_on', channel=4, note=43, velocity=95, time=2),
    Message('note_off', channel=4, note=67, velocity=95, time=230),
    Message('note_off', channel=4, note=62, velocity=95, time=0),
    Message('note_off', channel=4, note=55, velocity=95, time=0),
    Message('note_off', channel=4, note=50, velocity=95, time=0),
    Message('note_off', channel=4, note=47, velocity=95, time=0),
    Message('note_off', channel=4, note=43, velocity=95, time=0),
    Message('note_on', channel=4, note=43, velocity=95, time=0),
    Message('note_on', channel=4, note=47, velocity=95, time=2),
    Message('note_on', channel=4, note=50, velocity=95, time=2),
    Message('note_on', channel=4, note=55, velocity=95, time=2),
    Message('note_on', channel=4, note=62, velocity=95, time=2),
    Message('note_on', channel=4, note=67, velocity=95, time=2),
    Message('note_off', channel=4, note=67, velocity=95, time=230),
    Message('note_off', channel=4, note=62, velocity=95, time=0),
    Message('note_off', channel=4, note=55, velocity=95, time=0),
    Message('note_off', channel=4, note=50, velocity=95, time=0),
    Message('note_off', channel=4, note=47, velocity=95, time=0),
    Message('note_off', channel=4, note=43, velocity=95, time=0),
    Message('note_on', channel=4, note=67, velocity=95, time=0),
    Message('note_on', channel=4, note=62, velocity=95, time=2),
    Message('note_on', channel=4, note=55, velocity=95, time=2),
    Message('note_on', channel=4, note=50, velocity=95, time=2),
    Message('note_on', channel=4, note=47, velocity=95, time=2),
    Message('note_on', channel=4, note=43, velocity=95, time=2),
    Message('note_off', channel=4, note=67, velocity=95, time=230),
    Message('note_off', channel=4, note=62, velocity=95, time=0),
    Message('note_off', channel=4, note=55, velocity=95, time=0),
    Message('note_off', channel=4, note=50, velocity=95, time=0),
    Message('note_off', channel=4, note=47, velocity=95, time=0),
    Message('note_off', channel=4, note=43, velocity=95, time=0),
    Message('note_on', channel=4, note=43, velocity=95, time=0),
    Message('note_on', channel=4, note=47, velocity=95, time=2),
    Message('note_on', channel=4, note=50, velocity=95, time=2),
    Message('note_on', channel=4, note=55, velocity=95, time=2),
    Message('note_on', channel=4, note=62, velocity=95, time=2),
    Message('note_on', channel=4, note=67, velocity=95, time=2),
    Message('note_off', channel=4, note=67, velocity=95, time=230),
    Message('note_off', channel=4, note=62, velocity=95, time=0),
    Message('note_off', channel=4, note=55, velocity=95, time=0),
    Message('note_off', channel=4, note=50, velocity=95, time=0),
    Message('note_off', channel=4, note=47, velocity=95, time=0),
    Message('note_off', channel=4, note=43, velocity=95, time=0),
    Message('note_on', channel=4, note=67, velocity=95, time=0),
    Message('note_on', channel=4, note=62, velocity=95, time=2),
    Message('note_on', channel=4, note=55, velocity=95, time=2),
    Message('note_on', channel=4, note=50, velocity=95, time=2),
    Message('note_on', channel=4, note=47, velocity=95, time=2),
    Message('note_on', channel=4, note=43, velocity=95, time=2),
    Message('note_off', channel=4, note=67, velocity=95, time=230),
    Message('note_off', channel=4, note=62, velocity=95, time=0),
    Message('note_off', channel=4, note=55, velocity=95, time=0),
    Message('note_off', channel=4, note=50, velocity=95, time=0),
    Message('note_off', channel=4, note=47, velocity=95, time=0),
    Message('note_off', channel=4, note=43, velocity=95, time=0),
    Message('note_on', channel=4, note=50, velocity=95, time=0),
    Message('note_on', channel=4, note=57, velocity=95, time=4),
    Message('note_on', channel=4, note=62, velocity=95, time=4),
    Message('note_on', channel=4, note=66, velocity=95, time=4),
    Message('note_off', channel=4, note=66, velocity=95, time=468),
    Message('note_off', channel=4, note=62, velocity=95, time=0),
    Message('note_off', channel=4, note=57, velocity=95, time=0),
    Message('note_off', channel=4, note=50, velocity=95, time=0),
    Message('note_on', channel=4, note=50, velocity=95, time=0),
    Message('note_on', channel=4, note=57, velocity=95, time=2),
    Message('note_on', channel=4, note=62, velocity=95, time=2),
    Message('note_on', channel=4, note=66, velocity=95, time=2),
    Message('note_off', channel=4, note=66, velocity=95, time=234),
    Message('note_off', channel=4, note=62, velocity=95, time=0),
    Message('note_off', channel=4, note=57, velocity=95, time=0),
    Message('note_off', channel=4, note=50, velocity=95, time=0),
    Message('note_on', channel=4, note=66, velocity=95, time=0),
    Message('note_on', channel=4, note=62, velocity=95, time=2),
    Message('note_on', channel=4, note=57, velocity=95, time=2),
    Message('note_on', channel=4, note=50, velocity=95, time=2),
    Message('note_off', channel=4, note=66, velocity=95, time=234),
    Message('note_off', channel=4, note=62, velocity=95, time=0),
    Message('note_off', channel=4, note=57, velocity=95, time=0),
    Message('note_off', channel=4, note=50, velocity=95, time=0),
    Message('note_on', channel=4, note=50, velocity=95, time=0),
    Message('note_on', channel=4, note=57, velocity=95, time=2),
    Message('note_on', channel=4, note=62, velocity=95, time=2),
    Message('note_on', channel=4, note=66, velocity=95, time=2),
    Message('note_off', channel=4, note=66, velocity=95, time=234),
    Message('note_off', channel=4, note=62, velocity=95, time=0),
    Message('note_off', channel=4, note=57, velocity=95, time=0),
    Message('note_off', channel=4, note=50, velocity=95, time=0),
    Message('note_on', channel=4, note=66, velocity=95, time=0),
    Message('note_on', channel=4, note=62, velocity=95, time=2),
    Message('note_on', channel=4, note=57, velocity=95, time=2),
    Message('note_on', channel=4, note=50, velocity=95, time=2),
    Message('note_off', channel=4, note=66, velocity=95, time=234),
    Message('note_off', channel=4, note=62, velocity=95, time=0),
    Message('note_off', channel=4, note=57, velocity=95, time=0),
    Message('note_off', channel=4, note=50, velocity=95, time=0),
    Message('note_on', channel=4, note=50, velocity=95, time=0),
    Message('note_on', channel=4, note=57, velocity=95, time=2),
    Message('note_on', channel=4, note=62, velocity=95, time=2),
    Message('note_on', channel=4, note=66, velocity=95, time=2),
    Message('note_off', channel=4, note=66, velocity=95, time=234),
    Message('note_off', channel=4, note=62, velocity=95, time=0),
    Message('note_off', channel=4, note=57, velocity=95, time=0),
    Message('note_off', channel=4, note=50, velocity=95, time=0),
    Message('note_on', channel=4, note=66, velocity=95, time=0),
    Message('note_on', channel=4, note=62, velocity=95, time=2),
    Message('note_on', channel=4, note=57, velocity=95, time=2),
    Message('note_on', channel=4, note=50, velocity=95, time=2),
    Message('note_off', channel=4, note=66, velocity=95, time=234),
    Message('note_off', channel=4, note=62, velocity=95, time=0),
    Message('note_off', channel=4, note=57, velocity=95, time=0),
    Message('note_off', channel=4, note=50, velocity=95, time=0),
    Message('note_on', channel=4, note=45, velocity=95, time=0),
    Message('note_on', channel=4, note=52, velocity=95, time=4),
    Message('note_on', channel=4, note=57, velocity=95, time=4),
    Message('note_on', channel=4, note=61, velocity=95, time=4),
    Message('note_on', channel=4, note=64, velocity=95, time=4),
    Message('note_off', channel=4, note=64, velocity=95, time=464),
    Message('note_off', channel=4, note=61, velocity=95, time=0),
    Message('note_off', channel=4, note=57, velocity=95, time=0),
    Message('note_off', channel=4, note=52, velocity=95, time=0),
    Message('note_off', channel=4, note=45, velocity=95, time=0),
    Message('note_on', channel=4, note=45, velocity=95, time=0),
    Message('note_on', channel=4, note=52, velocity=95, time=2),
    Message('note_on', channel=4, note=57, velocity=95, time=2),
    Message('note_on', channel=4, note=61, velocity=95, time=2),
    Message('note_on', channel=4, note=64, velocity=95, time=2),
    Message('note_off', channel=4, note=64, velocity=95, time=232),
    Message('note_off', channel=4, note=61, velocity=95, time=0),
    Message('note_off', channel=4, note=57, velocity=95, time=0),
    Message('note_off', channel=4, note=52, velocity=95, time=0),
    Message('note_off', channel=4, note=45, velocity=95, time=0),
    Message('note_on', channel=4, note=64, velocity=95, time=0),
    Message('note_on', channel=4, note=61, velocity=95, time=2),
    Message('note_on', channel=4, note=57, velocity=95, time=2),
    Message('note_on', channel=4, note=52, velocity=95, time=2),
    Message('note_on', channel=4, note=45, velocity=95, time=2),
    Message('note_off', channel=4, note=64, velocity=95, time=232),
    Message('note_off', channel=4, note=61, velocity=95, time=0),
    Message('note_off', channel=4, note=57, velocity=95, time=0),
    Message('note_off', channel=4, note=52, velocity=95, time=0),
    Message('note_off', channel=4, note=45, velocity=95, time=0),
    Message('note_on', channel=4, note=45, velocity=95, time=0),
    Message('note_on', channel=4, note=52, velocity=95, time=2),
    Message('note_on', channel=4, note=57, velocity=95, time=2),
    Message('note_on', channel=4, note=61, velocity=95, time=2),
    Message('note_on', channel=4, note=64, velocity=95, time=2),
    Message('note_off', channel=4, note=64, velocity=95, time=232),
    Message('note_off', channel=4, note=61, velocity=95, time=0),
    Message('note_off', channel=4, note=57, velocity=95, time=0),
    Message('note_off', channel=4, note=52, velocity=95, time=0),
    Message('note_off', channel=4, note=45, velocity=95, time=0),
    Message('note_on', channel=4, note=64, velocity=95, time=0),
    Message('note_on', channel=4, note=61, velocity=95, time=2),
    Message('note_on', channel=4, note=57, velocity=95, time=2),
    Message('note_on', channel=4, note=52, velocity=95, time=2),
    Message('note_on', channel=4, note=45, velocity=95, time=2),
    Message('note_off', channel=4, note=64, velocity=95, time=232),
    Message('note_off', channel=4, note=61, velocity=95, time=0),
    Message('note_off', channel=4, note=57, velocity=95, time=0),
    Message('note_off', channel=4, note=52, velocity=95, time=0),
    Message('note_off', channel=4, note=45, velocity=95, time=0),
    Message('note_on', channel=4, note=45, velocity=95, time=0),
    Message('note_on', channel=4, note=52, velocity=95, time=2),
    Message('note_on', channel=4, note=57, velocity=95, time=2),
    Message('note_on', channel=4, note=61, velocity=95, time=2),
    Message('note_on', channel=4, note=64, velocity=95, time=2),
    Message('note_off', channel=4, note=64, velocity=95, time=232),
    Message('note_off', channel=4, note=61, velocity=95, time=0),
    Message('note_off', channel=4, note=57, velocity=95, time=0),
    Message('note_off', channel=4, note=52, velocity=95, time=0),
    Message('note_off', channel=4, note=45, velocity=95, time=0),
    Message('note_on', channel=4, note=64, velocity=95, time=0),
    Message('note_on', channel=4, note=61, velocity=95, time=2),
    Message('note_on', channel=4, note=57, velocity=95, time=2),
    Message('note_on', channel=4, note=52, velocity=95, time=2),
    Message('note_on', channel=4, note=45, velocity=95, time=2),
    Message('note_off', channel=4, note=64, velocity=95, time=232),
    Message('note_off', channel=4, note=61, velocity=95, time=0),
    Message('note_off', channel=4, note=57, velocity=95, time=0),
    Message('note_off', channel=4, note=52, velocity=95, time=0),
    Message('note_off', channel=4, note=45, velocity=95, time=0),
    Message('note_on', channel=4, note=40, velocity=95, time=0),
    Message('note_on', channel=4, note=47, velocity=95, time=4),
    Message('note_on', channel=4, note=52, velocity=95, time=4),
    Message('note_on', channel=4, note=56, velocity=95, time=4),
    Message('note_on', channel=4, note=59, velocity=95, time=4),
    Message('note_on', channel=4, note=64, velocity=95, time=4),
    Message('note_off', channel=4, note=64, velocity=95, time=460),
    Message('note_off', channel=4, note=59, velocity=95, time=0),
    Message('note_off', channel=4, note=56, velocity=95, time=0),
    Message('note_off', channel=4, note=52, velocity=95, time=0),
    Message('note_off', channel=4, note=47, velocity=95, time=0),
    Message('note_off', channel=4, note=40, velocity=95, time=0),
    Message('note_on', channel=4, note=40, velocity=95, time=0),
    Message('note_on', channel=4, note=47, velocity=95, time=2),
    Message('note_on', channel=4, note=52, velocity=95, time=2),
    Message('note_on', channel=4, note=56, velocity=95, time=2),
    Message('note_on', channel=4, note=59, velocity=95, time=2),
    Message('note_on', channel=4, note=64, velocity=95, time=2),
    Message('note_off', channel=4, note=64, velocity=95, time=230),
    Message('note_off', channel=4, note=59, velocity=95, time=0),
    Message('note_off', channel=4, note=56, velocity=95, time=0),
    Message('note_off', channel=4, note=52, velocity=95, time=0),
    Message('note_off', channel=4, note=47, velocity=95, time=0),
    Message('note_off', channel=4, note=40, velocity=95, time=0),
    Message('note_on', channel=4, note=64, velocity=95, time=0),
    Message('note_on', channel=4, note=59, velocity=95, time=2),
    Message('note_on', channel=4, note=56, velocity=95, time=2),
    Message('note_on', channel=4, note=52, velocity=95, time=2),
    Message('note_on', channel=4, note=47, velocity=95, time=2),
    Message('note_on', channel=4, note=40, velocity=95, time=2),
    Message('note_off', channel=4, note=64, velocity=95, time=230),
    Message('note_off', channel=4, note=59, velocity=95, time=0),
    Message('note_off', channel=4, note=56, velocity=95, time=0),
    Message('note_off', channel=4, note=52, velocity=95, time=0),
    Message('note_off', channel=4, note=47, velocity=95, time=0),
    Message('note_off', channel=4, note=40, velocity=95, time=0),
    Message('note_on', channel=4, note=40, velocity=95, time=0),
    Message('note_on', channel=4, note=47, velocity=95, time=2),
    Message('note_on', channel=4, note=52, velocity=95, time=2),
    Message('note_on', channel=4, note=56, velocity=95, time=2),
    Message('note_on', channel=4, note=59, velocity=95, time=2),
    Message('note_on', channel=4, note=64, velocity=95, time=2),
    Message('note_off', channel=4, note=64, velocity=95, time=230),
    Message('note_off', channel=4, note=59, velocity=95, time=0),
    Message('note_off', channel=4, note=56, velocity=95, time=0),
    Message('note_off', channel=4, note=52, velocity=95, time=0),
    Message('note_off', channel=4, note=47, velocity=95, time=0),
    Message('note_off', channel=4, note=40, velocity=95, time=0),
    Message('note_on', channel=4, note=64, velocity=95, time=0),
    Message('note_on', channel=4, note=59, velocity=95, time=2),
    Message('note_on', channel=4, note=56, velocity=95, time=2),
    Message('note_on', channel=4, note=52, velocity=95, time=2),
    Message('note_on', channel=4, note=47, velocity=95, time=2),
    Message('note_on', channel=4, note=40, velocity=95, time=2),
    Message('note_off', channel=4, note=64, velocity=95, time=230),
    Message('note_off', channel=4, note=59, velocity=95, time=0),
    Message('note_off', channel=4, note=56, velocity=95, time=0),
    Message('note_off', channel=4, note=52, velocity=95, time=0),
    Message('note_off', channel=4, note=47, velocity=95, time=0),
    Message('note_off', channel=4, note=40, velocity=95, time=0),
    Message('note_on', channel=4, note=40, velocity=95, time=0),
    Message('note_on', channel=4, note=47, velocity=95, time=2),
    Message('note_on', channel=4, note=52, velocity=95, time=2),
    Message('note_on', channel=4, note=56, velocity=95, time=2),
    Message('note_on', channel=4, note=59, velocity=95, time=2),
    Message('note_on', channel=4, note=64, velocity=95, time=2),
    Message('note_off', channel=4, note=64, velocity=95, time=230),
    Message('note_off', channel=4, note=59, velocity=95, time=0),
    Message('note_off', channel=4, note=56, velocity=95, time=0),
    Message('note_off', channel=4, note=52, velocity=95, time=0),
    Message('note_off', channel=4, note=47, velocity=95, time=0),
    Message('note_off', channel=4, note=40, velocity=95, time=0),
    Message('note_on', channel=4, note=64, velocity=95, time=0),
    Message('note_on', channel=4, note=59, velocity=95, time=2),
    Message('note_on', channel=4, note=56, velocity=95, time=2),
    Message('note_on', channel=4, note=52, velocity=95, time=2),
    Message('note_on', channel=4, note=47, velocity=95, time=2),
    Message('note_on', channel=4, note=40, velocity=95, time=2),
    Message('note_off', channel=4, note=64, velocity=95, time=230),
    Message('note_off', channel=4, note=59, velocity=95, time=0),
    Message('note_off', channel=4, note=56, velocity=95, time=0),
    Message('note_off', channel=4, note=52, velocity=95, time=0),
    Message('note_off', channel=4, note=47, velocity=95, time=0),
    Message('note_off', channel=4, note=40, velocity=95, time=0),
    Message('note_on', channel=4, note=43, velocity=95, time=0),
    Message('note_on', channel=4, note=47, velocity=95, time=4),
    Message('note_on', channel=4, note=50, velocity=95, time=4),
    Message('note_on', channel=4, note=55, velocity=95, time=4),
    Message('note_on', channel=4, note=62, velocity=95, time=4),
    Message('note_on', channel=4, note=67, velocity=95, time=4),
    Message('note_off', channel=4, note=67, velocity=95, time=460),
    Message('note_off', channel=4, note=62, velocity=95, time=0),
    Message('note_off', channel=4, note=55, velocity=95, time=0),
    Message('note_off', channel=4, note=50, velocity=95, time=0),
    Message('note_off', channel=4, note=47, velocity=95, time=0),
    Message('note_off', channel=4, note=43, velocity=95, time=0),
    Message('note_on', channel=4, note=43, velocity=95, time=0),
    Message('note_on', channel=4, note=47, velocity=95, time=2),
    Message('note_on', channel=4, note=50, velocity=95, time=2),
    Message('note_on', channel=4, note=55, velocity=95, time=2),
    Message('note_on', channel=4, note=62, velocity=95, time=2),
    Message('note_on', channel=4, note=67, velocity=95, time=2),
    Message('note_off', channel=4, note=67, velocity=95, time=230),
    Message('note_off', channel=4, note=62, velocity=95, time=0),
    Message('note_off', channel=4, note=55, velocity=95, time=0),
    Message('note_off', channel=4, note=50, velocity=95, time=0),
    Message('note_off', channel=4, note=47, velocity=95, time=0),
    Message('note_off', channel=4, note=43, velocity=95, time=0),
    Message('note_on', channel=4, note=67, velocity=95, time=0),
    Message('note_on', channel=4, note=62, velocity=95, time=2),
    Message('note_on', channel=4, note=55, velocity=95, time=2),
    Message('note_on', channel=4, note=50, velocity=95, time=2),
    Message('note_on', channel=4, note=47, velocity=95, time=2),
    Message('note_on', channel=4, note=43, velocity=95, time=2),
    Message('note_off', channel=4, note=67, velocity=95, time=230),
    Message('note_off', channel=4, note=62, velocity=95, time=0),
    Message('note_off', channel=4, note=55, velocity=95, time=0),
    Message('note_off', channel=4, note=50, velocity=95, time=0),
    Message('note_off', channel=4, note=47, velocity=95, time=0),
    Message('note_off', channel=4, note=43, velocity=95, time=0),
    Message('note_on', channel=4, note=43, velocity=95, time=0),
    Message('note_on', channel=4, note=47, velocity=95, time=2),
    Message('note_on', channel=4, note=50, velocity=95, time=2),
    Message('note_on', channel=4, note=55, velocity=95, time=2),
    Message('note_on', channel=4, note=62, velocity=95, time=2),
    Message('note_on', channel=4, note=67, velocity=95, time=2),
    Message('note_off', channel=4, note=67, velocity=95, time=230),
    Message('note_off', channel=4, note=62, velocity=95, time=0),
    Message('note_off', channel=4, note=55, velocity=95, time=0),
    Message('note_off', channel=4, note=50, velocity=95, time=0),
    Message('note_off', channel=4, note=47, velocity=95, time=0),
    Message('note_off', channel=4, note=43, velocity=95, time=0),
    Message('note_on', channel=4, note=67, velocity=95, time=0),
    Message('note_on', channel=4, note=62, velocity=95, time=2),
    Message('note_on', channel=4, note=55, velocity=95, time=2),
    Message('note_on', channel=4, note=50, velocity=95, time=2),
    Message('note_on', channel=4, note=47, velocity=95, time=2),
    Message('note_on', channel=4, note=43, velocity=95, time=2),
    Message('note_off', channel=4, note=67, velocity=95, time=230),
    Message('note_off', channel=4, note=62, velocity=95, time=0),
    Message('note_off', channel=4, note=55, velocity=95, time=0),
    Message('note_off', channel=4, note=50, velocity=95, time=0),
    Message('note_off', channel=4, note=47, velocity=95, time=0),
    Message('note_off', channel=4, note=43, velocity=95, time=0),
    Message('note_on', channel=4, note=43, velocity=95, time=0),
    Message('note_on', channel=4, note=47, velocity=95, time=2),
    Message('note_on', channel=4, note=50, velocity=95, time=2),
    Message('note_on', channel=4, note=55, velocity=95, time=2),
    Message('note_on', channel=4, note=62, velocity=95, time=2),
    Message('note_on', channel=4, note=67, velocity=95, time=2),
    Message('note_off', channel=4, note=67, velocity=95, time=230),
    Message('note_off', channel=4, note=62, velocity=95, time=0),
    Message('note_off', channel=4, note=55, velocity=95, time=0),
    Message('note_off', channel=4, note=50, velocity=95, time=0),
    Message('note_off', channel=4, note=47, velocity=95, time=0),
    Message('note_off', channel=4, note=43, velocity=95, time=0),
    Message('note_on', channel=4, note=67, velocity=95, time=0),
    Message('note_on', channel=4, note=62, velocity=95, time=2),
    Message('note_on', channel=4, note=55, velocity=95, time=2),
    Message('note_on', channel=4, note=50, velocity=95, time=2),
    Message('note_on', channel=4, note=47, velocity=95, time=2),
    Message('note_on', channel=4, note=43, velocity=95, time=2),
    Message('note_off', channel=4, note=67, velocity=95, time=230),
    Message('note_off', channel=4, note=62, velocity=95, time=0),
    Message('note_off', channel=4, note=55, velocity=95, time=0),
    Message('note_off', channel=4, note=50, velocity=95, time=0),
    Message('note_off', channel=4, note=47, velocity=95, time=0),
    Message('note_off', channel=4, note=43, velocity=95, time=0),
    Message('note_on', channel=4, note=50, velocity=95, time=0),
    Message('note_on', channel=4, note=57, velocity=95, time=4),
    Message('note_on', channel=4, note=62, velocity=95, time=4),
    Message('note_on', channel=4, note=66, velocity=95, time=4),
    Message('note_off', channel=4, note=66, velocity=95, time=468),
    Message('note_off', channel=4, note=62, velocity=95, time=0),
    Message('note_off', channel=4, note=57, velocity=95, time=0),
    Message('note_off', channel=4, note=50, velocity=95, time=0),
    Message('note_on', channel=4, note=50, velocity=95, time=0),
    Message('note_on', channel=4, note=57, velocity=95, time=2),
    Message('note_on', channel=4, note=62, velocity=95, time=2),
    Message('note_on', channel=4, note=66, velocity=95, time=2),
    Message('note_off', channel=4, note=66, velocity=95, time=234),
    Message('note_off', channel=4, note=62, velocity=95, time=0),
    Message('note_off', channel=4, note=57, velocity=95, time=0),
    Message('note_off', channel=4, note=50, velocity=95, time=0),
    Message('note_on', channel=4, note=66, velocity=95, time=0),
    Message('note_on', channel=4, note=62, velocity=95, time=2),
    Message('note_on', channel=4, note=57, velocity=95, time=2),
    Message('note_on', channel=4, note=50, velocity=95, time=2),
    Message('note_off', channel=4, note=66, velocity=95, time=234),
    Message('note_off', channel=4, note=62, velocity=95, time=0),
    Message('note_off', channel=4, note=57, velocity=95, time=0),
    Message('note_off', channel=4, note=50, velocity=95, time=0),
    Message('note_on', channel=4, note=50, velocity=95, time=0),
    Message('note_on', channel=4, note=57, velocity=95, time=2),
    Message('note_on', channel=4, note=62, velocity=95, time=2),
    Message('note_on', channel=4, note=66, velocity=95, time=2),
    Message('note_off', channel=4, note=66, velocity=95, time=234),
    Message('note_off', channel=4, note=62, velocity=95, time=0),
    Message('note_off', channel=4, note=57, velocity=95, time=0),
    Message('note_off', channel=4, note=50, velocity=95, time=0),
    Message('note_on', channel=4, note=66, velocity=95, time=0),
    Message('note_on', channel=4, note=62, velocity=95, time=2),
    Message('note_on', channel=4, note=57, velocity=95, time=2),
    Message('note_on', channel=4, note=50, velocity=95, time=2),
    Message('note_off', channel=4, note=66, velocity=95, time=234),
    Message('note_off', channel=4, note=62, velocity=95, time=0),
    Message('note_off', channel=4, note=57, velocity=95, time=0),
    Message('note_off', channel=4, note=50, velocity=95, time=0),
    Message('note_on', channel=4, note=50, velocity=95, time=0),
    Message('note_on', channel=4, note=57, velocity=95, time=2),
    Message('note_on', channel=4, note=62, velocity=95, time=2),
    Message('note_on', channel=4, note=66, velocity=95, time=2),
    Message('note_off', channel=4, note=66, velocity=95, time=234),
    Message('note_off', channel=4, note=62, velocity=95, time=0),
    Message('note_off', channel=4, note=57, velocity=95, time=0),
    Message('note_off', channel=4, note=50, velocity=95, time=0),
    Message('note_on', channel=4, note=66, velocity=95, time=0),
    Message('note_on', channel=4, note=62, velocity=95, time=2),
    Message('note_on', channel=4, note=57, velocity=95, time=2),
    Message('note_on', channel=4, note=50, velocity=95, time=2),
    Message('note_off', channel=4, note=66, velocity=95, time=234),
    Message('note_off', channel=4, note=62, velocity=95, time=0),
    Message('note_off', channel=4, note=57, velocity=95, time=0),
    Message('note_off', channel=4, note=50, velocity=95, time=0),
    Message('note_on', channel=4, note=45, velocity=95, time=0),
    Message('note_on', channel=4, note=52, velocity=95, time=4),
    Message('note_on', channel=4, note=57, velocity=95, time=4),
    Message('note_on', channel=4, note=61, velocity=95, time=4),
    Message('note_on', channel=4, note=64, velocity=95, time=4),
    Message('note_off', channel=4, note=64, velocity=95, time=464),
    Message('note_off', channel=4, note=61, velocity=95, time=0),
    Message('note_off', channel=4, note=57, velocity=95, time=0),
    Message('note_off', channel=4, note=52, velocity=95, time=0),
    Message('note_off', channel=4, note=45, velocity=95, time=0),
    Message('note_on', channel=4, note=45, velocity=95, time=0),
    Message('note_on', channel=4, note=52, velocity=95, time=2),
    Message('note_on', channel=4, note=57, velocity=95, time=2),
    Message('note_on', channel=4, note=61, velocity=95, time=2),
    Message('note_on', channel=4, note=64, velocity=95, time=2),
    Message('note_off', channel=4, note=64, velocity=95, time=232),
    Message('note_off', channel=4, note=61, velocity=95, time=0),
    Message('note_off', channel=4, note=57, velocity=95, time=0),
    Message('note_off', channel=4, note=52, velocity=95, time=0),
    Message('note_off', channel=4, note=45, velocity=95, time=0),
    Message('note_on', channel=4, note=64, velocity=95, time=0),
    Message('note_on', channel=4, note=61, velocity=95, time=2),
    Message('note_on', channel=4, note=57, velocity=95, time=2),
    Message('note_on', channel=4, note=52, velocity=95, time=2),
    Message('note_on', channel=4, note=45, velocity=95, time=2),
    Message('note_off', channel=4, note=64, velocity=95, time=232),
    Message('note_off', channel=4, note=61, velocity=95, time=0),
    Message('note_off', channel=4, note=57, velocity=95, time=0),
    Message('note_off', channel=4, note=52, velocity=95, time=0),
    Message('note_off', channel=4, note=45, velocity=95, time=0),
    Message('note_on', channel=4, note=45, velocity=95, time=0),
    Message('note_on', channel=4, note=52, velocity=95, time=2),
    Message('note_on', channel=4, note=57, velocity=95, time=2),
    Message('note_on', channel=4, note=61, velocity=95, time=2),
    Message('note_on', channel=4, note=64, velocity=95, time=2),
    Message('note_off', channel=4, note=64, velocity=95, time=232),
    Message('note_off', channel=4, note=61, velocity=95, time=0),
    Message('note_off', channel=4, note=57, velocity=95, time=0),
    Message('note_off', channel=4, note=52, velocity=95, time=0),
    Message('note_off', channel=4, note=45, velocity=95, time=0),
    Message('note_on', channel=4, note=64, velocity=95, time=0),
    Message('note_on', channel=4, note=61, velocity=95, time=2),
    Message('note_on', channel=4, note=57, velocity=95, time=2),
    Message('note_on', channel=4, note=52, velocity=95, time=2),
    Message('note_on', channel=4, note=45, velocity=95, time=2),
    Message('note_off', channel=4, note=64, velocity=95, time=232),
    Message('note_off', channel=4, note=61, velocity=95, time=0),
    Message('note_off', channel=4, note=57, velocity=95, time=0),
    Message('note_off', channel=4, note=52, velocity=95, time=0),
    Message('note_off', channel=4, note=45, velocity=95, time=0),
    Message('note_on', channel=4, note=45, velocity=95, time=0),
    Message('note_on', channel=4, note=52, velocity=95, time=2),
    Message('note_on', channel=4, note=57, velocity=95, time=2),
    Message('note_on', channel=4, note=61, velocity=95, time=2),
    Message('note_on', channel=4, note=64, velocity=95, time=2),
    Message('note_off', channel=4, note=64, velocity=95, time=232),
    Message('note_off', channel=4, note=61, velocity=95, time=0),
    Message('note_off', channel=4, note=57, velocity=95, time=0),
    Message('note_off', channel=4, note=52, velocity=95, time=0),
    Message('note_off', channel=4, note=45, velocity=95, time=0),
    Message('note_on', channel=4, note=64, velocity=95, time=0),
    Message('note_on', channel=4, note=61, velocity=95, time=2),
    Message('note_on', channel=4, note=57, velocity=95, time=2),
    Message('note_on', channel=4, note=52, velocity=95, time=2),
    Message('note_on', channel=4, note=45, velocity=95, time=2),
    Message('note_off', channel=4, note=64, velocity=95, time=232),
    Message('note_off', channel=4, note=61, velocity=95, time=0),
    Message('note_off', channel=4, note=57, velocity=95, time=0),
    Message('note_off', channel=4, note=52, velocity=95, time=0),
    Message('note_off', channel=4, note=45, velocity=95, time=0),
    Message('note_on', channel=4, note=40, velocity=95, time=0),
    Message('note_on', channel=4, note=47, velocity=95, time=4),
    Message('note_on', channel=4, note=52, velocity=95, time=4),
    Message('note_on', channel=4, note=56, velocity=95, time=4),
    Message('note_on', channel=4, note=59, velocity=95, time=4),
    Message('note_on', channel=4, note=64, velocity=95, time=4),
    Message('note_off', channel=4, note=64, velocity=95, time=460),
    Message('note_off', channel=4, note=59, velocity=95, time=0),
    Message('note_off', channel=4, note=56, velocity=95, time=0),
    Message('note_off', channel=4, note=52, velocity=95, time=0),
    Message('note_off', channel=4, note=47, velocity=95, time=0),
    Message('note_off', channel=4, note=40, velocity=95, time=0),
    Message('note_on', channel=4, note=40, velocity=95, time=0),
    Message('note_on', channel=4, note=47, velocity=95, time=2),
    Message('note_on', channel=4, note=52, velocity=95, time=2),
    Message('note_on', channel=4, note=56, velocity=95, time=2),
    Message('note_on', channel=4, note=59, velocity=95, time=2),
    Message('note_on', channel=4, note=64, velocity=95, time=2),
    Message('note_off', channel=4, note=64, velocity=95, time=230),
    Message('note_off', channel=4, note=59, velocity=95, time=0),
    Message('note_off', channel=4, note=56, velocity=95, time=0),
    Message('note_off', channel=4, note=52, velocity=95, time=0),
    Message('note_off', channel=4, note=47, velocity=95, time=0),
    Message('note_off', channel=4, note=40, velocity=95, time=0),
    Message('note_on', channel=4, note=64, velocity=95, time=0),
    Message('note_on', channel=4, note=59, velocity=95, time=2),
    Message('note_on', channel=4, note=56, velocity=95, time=2),
    Message('note_on', channel=4, note=52, velocity=95, time=2),
    Message('note_on', channel=4, note=47, velocity=95, time=2),
    Message('note_on', channel=4, note=40, velocity=95, time=2),
    Message('note_off', channel=4, note=64, velocity=95, time=230),
    Message('note_off', channel=4, note=59, velocity=95, time=0),
    Message('note_off', channel=4, note=56, velocity=95, time=0),
    Message('note_off', channel=4, note=52, velocity=95, time=0),
    Message('note_off', channel=4, note=47, velocity=95, time=0),
    Message('note_off', channel=4, note=40, velocity=95, time=0),
    Message('note_on', channel=4, note=40, velocity=95, time=0),
    Message('note_on', channel=4, note=47, velocity=95, time=2),
    Message('note_on', channel=4, note=52, velocity=95, time=2),
    Message('note_on', channel=4, note=56, velocity=95, time=2),
    Message('note_on', channel=4, note=59, velocity=95, time=2),
    Message('note_on', channel=4, note=64, velocity=95, time=2),
    Message('note_off', channel=4, note=64, velocity=95, time=230),
    Message('note_off', channel=4, note=59, velocity=95, time=0),
    Message('note_off', channel=4, note=56, velocity=95, time=0),
    Message('note_off', channel=4, note=52, velocity=95, time=0),
    Message('note_off', channel=4, note=47, velocity=95, time=0),
    Message('note_off', channel=4, note=40, velocity=95, time=0),
    Message('note_on', channel=4, note=64, velocity=95, time=0),
    Message('note_on', channel=4, note=59, velocity=95, time=2),
    Message('note_on', channel=4, note=56, velocity=95, time=2),
    Message('note_on', channel=4, note=52, velocity=95, time=2),
    Message('note_on', channel=4, note=47, velocity=95, time=2),
    Message('note_on', channel=4, note=40, velocity=95, time=2),
    Message('note_off', channel=4, note=64, velocity=95, time=230),
    Message('note_off', channel=4, note=59, velocity=95, time=0),
    Message('note_off', channel=4, note=56, velocity=95, time=0),
    Message('note_off', channel=4, note=52, velocity=95, time=0),
    Message('note_off', channel=4, note=47, velocity=95, time=0),
    Message('note_off', channel=4, note=40, velocity=95, time=0),
    Message('note_on', channel=4, note=40, velocity=95, time=0),
    Message('note_on', channel=4, note=47, velocity=95, time=2),
    Message('note_on', channel=4, note=52, velocity=95, time=2),
    Message('note_on', channel=4, note=56, velocity=95, time=2),
    Message('note_on', channel=4, note=59, velocity=95, time=2),
    Message('note_on', channel=4, note=64, velocity=95, time=2),
    Message('note_off', channel=4, note=64, velocity=95, time=230),
    Message('note_off', channel=4, note=59, velocity=95, time=0),
    Message('note_off', channel=4, note=56, velocity=95, time=0),
    Message('note_off', channel=4, note=52, velocity=95, time=0),
    Message('note_off', channel=4, note=47, velocity=95, time=0),
    Message('note_off', channel=4, note=40, velocity=95, time=0),
    Message('note_on', channel=4, note=64, velocity=95, time=0),
    Message('note_on', channel=4, note=59, velocity=95, time=2),
    Message('note_on', channel=4, note=56, velocity=95, time=2),
    Message('note_on', channel=4, note=52, velocity=95, time=2),
    Message('note_on', channel=4, note=47, velocity=95, time=2),
    Message('note_on', channel=4, note=40, velocity=95, time=2),
    Message('note_off', channel=4, note=64, velocity=95, time=230),
    Message('note_off', channel=4, note=59, velocity=95, time=0),
    Message('note_off', channel=4, note=56, velocity=95, time=0),
    Message('note_off', channel=4, note=52, velocity=95, time=0),
    Message('note_off', channel=4, note=47, velocity=95, time=0),
    Message('note_off', channel=4, note=40, velocity=95, time=0),
    Message('note_on', channel=4, note=43, velocity=95, time=0),
    Message('note_on', channel=4, note=47, velocity=95, time=4),
    Message('note_on', channel=4, note=50, velocity=95, time=4),
    Message('note_on', channel=4, note=55, velocity=95, time=4),
    Message('note_on', channel=4, note=62, velocity=95, time=4),
    Message('note_on', channel=4, note=67, velocity=95, time=4),
    Message('note_off', channel=4, note=67, velocity=95, time=460),
    Message('note_off', channel=4, note=62, velocity=95, time=0),
    Message('note_off', channel=4, note=55, velocity=95, time=0),
    Message('note_off', channel=4, note=50, velocity=95, time=0),
    Message('note_off', channel=4, note=47, velocity=95, time=0),
    Message('note_off', channel=4, note=43, velocity=95, time=0),
    Message('note_on', channel=4, note=43, velocity=95, time=0),
    Message('note_on', channel=4, note=47, velocity=95, time=2),
    Message('note_on', channel=4, note=50, velocity=95, time=2),
    Message('note_on', channel=4, note=55, velocity=95, time=2),
    Message('note_on', channel=4, note=62, velocity=95, time=2),
    Message('note_on', channel=4, note=67, velocity=95, time=2),
    Message('note_off', channel=4, note=67, velocity=95, time=230),
    Message('note_off', channel=4, note=62, velocity=95, time=0),
    Message('note_off', channel=4, note=55, velocity=95, time=0),
    Message('note_off', channel=4, note=50, velocity=95, time=0),
    Message('note_off', channel=4, note=47, velocity=95, time=0),
    Message('note_off', channel=4, note=43, velocity=95, time=0),
    Message('note_on', channel=4, note=67, velocity=95, time=0),
    Message('note_on', channel=4, note=62, velocity=95, time=2),
    Message('note_on', channel=4, note=55, velocity=95, time=2),
    Message('note_on', channel=4, note=50, velocity=95, time=2),
    Message('note_on', channel=4, note=47, velocity=95, time=2),
    Message('note_on', channel=4, note=43, velocity=95, time=2),
    Message('note_off', channel=4, note=67, velocity=95, time=230),
    Message('note_off', channel=4, note=62, velocity=95, time=0),
    Message('note_off', channel=4, note=55, velocity=95, time=0),
    Message('note_off', channel=4, note=50, velocity=95, time=0),
    Message('note_off', channel=4, note=47, velocity=95, time=0),
    Message('note_off', channel=4, note=43, velocity=95, time=0),
    Message('note_on', channel=4, note=43, velocity=95, time=0),
    Message('note_on', channel=4, note=47, velocity=95, time=2),
    Message('note_on', channel=4, note=50, velocity=95, time=2),
    Message('note_on', channel=4, note=55, velocity=95, time=2),
    Message('note_on', channel=4, note=62, velocity=95, time=2),
    Message('note_on', channel=4, note=67, velocity=95, time=2),
    Message('note_off', channel=4, note=67, velocity=95, time=230),
    Message('note_off', channel=4, note=62, velocity=95, time=0),
    Message('note_off', channel=4, note=55, velocity=95, time=0),
    Message('note_off', channel=4, note=50, velocity=95, time=0),
    Message('note_off', channel=4, note=47, velocity=95, time=0),
    Message('note_off', channel=4, note=43, velocity=95, time=0),
    Message('note_on', channel=4, note=67, velocity=95, time=0),
    Message('note_on', channel=4, note=62, velocity=95, time=2),
    Message('note_on', channel=4, note=55, velocity=95, time=2),
    Message('note_on', channel=4, note=50, velocity=95, time=2),
    Message('note_on', channel=4, note=47, velocity=95, time=2),
    Message('note_on', channel=4, note=43, velocity=95, time=2),
    Message('note_off', channel=4, note=67, velocity=95, time=230),
    Message('note_off', channel=4, note=62, velocity=95, time=0),
    Message('note_off', channel=4, note=55, velocity=95, time=0),
    Message('note_off', channel=4, note=50, velocity=95, time=0),
    Message('note_off', channel=4, note=47, velocity=95, time=0),
    Message('note_off', channel=4, note=43, velocity=95, time=0),
    Message('note_on', channel=4, note=43, velocity=95, time=0),
    Message('note_on', channel=4, note=47, velocity=95, time=2),
    Message('note_on', channel=4, note=50, velocity=95, time=2),
    Message('note_on', channel=4, note=55, velocity=95, time=2),
    Message('note_on', channel=4, note=62, velocity=95, time=2),
    Message('note_on', channel=4, note=67, velocity=95, time=2),
    Message('note_off', channel=4, note=67, velocity=95, time=230),
    Message('note_off', channel=4, note=62, velocity=95, time=0),
    Message('note_off', channel=4, note=55, velocity=95, time=0),
    Message('note_off', channel=4, note=50, velocity=95, time=0),
    Message('note_off', channel=4, note=47, velocity=95, time=0),
    Message('note_off', channel=4, note=43, velocity=95, time=0),
    Message('note_on', channel=4, note=67, velocity=95, time=0),
    Message('note_on', channel=4, note=62, velocity=95, time=2),
    Message('note_on', channel=4, note=55, velocity=95, time=2),
    Message('note_on', channel=4, note=50, velocity=95, time=2),
    Message('note_on', channel=4, note=47, velocity=95, time=2),
    Message('note_on', channel=4, note=43, velocity=95, time=2),
    Message('note_off', channel=4, note=67, velocity=95, time=230),
    Message('note_off', channel=4, note=62, velocity=95, time=0),
    Message('note_off', channel=4, note=55, velocity=95, time=0),
    Message('note_off', channel=4, note=50, velocity=95, time=0),
    Message('note_off', channel=4, note=47, velocity=95, time=0),
    Message('note_off', channel=4, note=43, velocity=95, time=0),
    Message('note_on', channel=4, note=50, velocity=95, time=0),
    Message('note_on', channel=4, note=57, velocity=95, time=4),
    Message('note_on', channel=4, note=62, velocity=95, time=4),
    Message('note_on', channel=4, note=66, velocity=95, time=4),
    Message('note_off', channel=4, note=66, velocity=95, time=468),
    Message('note_off', channel=4, note=62, velocity=95, time=0),
    Message('note_off', channel=4, note=57, velocity=95, time=0),
    Message('note_off', channel=4, note=50, velocity=95, time=0),
    Message('note_on', channel=4, note=50, velocity=95, time=0),
    Message('note_on', channel=4, note=57, velocity=95, time=2),
    Message('note_on', channel=4, note=62, velocity=95, time=2),
    Message('note_on', channel=4, note=66, velocity=95, time=2),
    Message('note_off', channel=4, note=66, velocity=95, time=234),
    Message('note_off', channel=4, note=62, velocity=95, time=0),
    Message('note_off', channel=4, note=57, velocity=95, time=0),
    Message('note_off', channel=4, note=50, velocity=95, time=0),
    Message('note_on', channel=4, note=66, velocity=95, time=0),
    Message('note_on', channel=4, note=62, velocity=95, time=2),
    Message('note_on', channel=4, note=57, velocity=95, time=2),
    Message('note_on', channel=4, note=50, velocity=95, time=2),
    Message('note_off', channel=4, note=66, velocity=95, time=234),
    Message('note_off', channel=4, note=62, velocity=95, time=0),
    Message('note_off', channel=4, note=57, velocity=95, time=0),
    Message('note_off', channel=4, note=50, velocity=95, time=0),
    Message('note_on', channel=4, note=50, velocity=95, time=0),
    Message('note_on', channel=4, note=57, velocity=95, time=2),
    Message('note_on', channel=4, note=62, velocity=95, time=2),
    Message('note_on', channel=4, note=66, velocity=95, time=2),
    Message('note_off', channel=4, note=66, velocity=95, time=234),
    Message('note_off', channel=4, note=62, velocity=95, time=0),
    Message('note_off', channel=4, note=57, velocity=95, time=0),
    Message('note_off', channel=4, note=50, velocity=95, time=0),
    Message('note_on', channel=4, note=66, velocity=95, time=0),
    Message('note_on', channel=4, note=62, velocity=95, time=2),
    Message('note_on', channel=4, note=57, velocity=95, time=2),
    Message('note_on', channel=4, note=50, velocity=95, time=2),
    Message('note_off', channel=4, note=66, velocity=95, time=234),
    Message('note_off', channel=4, note=62, velocity=95, time=0),
    Message('note_off', channel=4, note=57, velocity=95, time=0),
    Message('note_off', channel=4, note=50, velocity=95, time=0),
    Message('note_on', channel=4, note=50, velocity=95, time=0),
    Message('note_on', channel=4, note=57, velocity=95, time=2),
    Message('note_on', channel=4, note=62, velocity=95, time=2),
    Message('note_on', channel=4, note=66, velocity=95, time=2),
    Message('note_off', channel=4, note=66, velocity=95, time=234),
    Message('note_off', channel=4, note=62, velocity=95, time=0),
    Message('note_off', channel=4, note=57, velocity=95, time=0),
    Message('note_off', channel=4, note=50, velocity=95, time=0),
    Message('note_on', channel=4, note=66, velocity=95, time=0),
    Message('note_on', channel=4, note=62, velocity=95, time=2),
    Message('note_on', channel=4, note=57, velocity=95, time=2),
    Message('note_on', channel=4, note=50, velocity=95, time=2),
    Message('note_off', channel=4, note=66, velocity=95, time=234),
    Message('note_off', channel=4, note=62, velocity=95, time=0),
    Message('note_off', channel=4, note=57, velocity=95, time=0),
    Message('note_off', channel=4, note=50, velocity=95, time=0),
    Message('note_on', channel=4, note=45, velocity=95, time=0),
    Message('note_on', channel=4, note=52, velocity=95, time=4),
    Message('note_on', channel=4, note=57, velocity=95, time=4),
    Message('note_on', channel=4, note=61, velocity=95, time=4),
    Message('note_on', channel=4, note=64, velocity=95, time=4),
    Message('note_off', channel=4, note=64, velocity=95, time=464),
    Message('note_off', channel=4, note=61, velocity=95, time=0),
    Message('note_off', channel=4, note=57, velocity=95, time=0),
    Message('note_off', channel=4, note=52, velocity=95, time=0),
    Message('note_off', channel=4, note=45, velocity=95, time=0),
    Message('note_on', channel=4, note=45, velocity=95, time=0),
    Message('note_on', channel=4, note=52, velocity=95, time=2),
    Message('note_on', channel=4, note=57, velocity=95, time=2),
    Message('note_on', channel=4, note=61, velocity=95, time=2),
    Message('note_on', channel=4, note=64, velocity=95, time=2),
    Message('note_off', channel=4, note=64, velocity=95, time=232),
    Message('note_off', channel=4, note=61, velocity=95, time=0),
    Message('note_off', channel=4, note=57, velocity=95, time=0),
    Message('note_off', channel=4, note=52, velocity=95, time=0),
    Message('note_off', channel=4, note=45, velocity=95, time=0),
    Message('note_on', channel=4, note=64, velocity=95, time=0),
    Message('note_on', channel=4, note=61, velocity=95, time=2),
    Message('note_on', channel=4, note=57, velocity=95, time=2),
    Message('note_on', channel=4, note=52, velocity=95, time=2),
    Message('note_on', channel=4, note=45, velocity=95, time=2),
    Message('note_off', channel=4, note=64, velocity=95, time=232),
    Message('note_off', channel=4, note=61, velocity=95, time=0),
    Message('note_off', channel=4, note=57, velocity=95, time=0),
    Message('note_off', channel=4, note=52, velocity=95, time=0),
    Message('note_off', channel=4, note=45, velocity=95, time=0),
    Message('note_on', channel=4, note=45, velocity=95, time=0),
    Message('note_on', channel=4, note=52, velocity=95, time=2),
    Message('note_on', channel=4, note=57, velocity=95, time=2),
    Message('note_on', channel=4, note=61, velocity=95, time=2),
    Message('note_on', channel=4, note=64, velocity=95, time=2),
    Message('note_off', channel=4, note=64, velocity=95, time=232),
    Message('note_off', channel=4, note=61, velocity=95, time=0),
    Message('note_off', channel=4, note=57, velocity=95, time=0),
    Message('note_off', channel=4, note=52, velocity=95, time=0),
    Message('note_off', channel=4, note=45, velocity=95, time=0),
    Message('note_on', channel=4, note=64, velocity=95, time=0),
    Message('note_on', channel=4, note=61, velocity=95, time=2),
    Message('note_on', channel=4, note=57, velocity=95, time=2),
    Message('note_on', channel=4, note=52, velocity=95, time=2),
    Message('note_on', channel=4, note=45, velocity=95, time=2),
    Message('note_off', channel=4, note=64, velocity=95, time=232),
    Message('note_off', channel=4, note=61, velocity=95, time=0),
    Message('note_off', channel=4, note=57, velocity=95, time=0),
    Message('note_off', channel=4, note=52, velocity=95, time=0),
    Message('note_off', channel=4, note=45, velocity=95, time=0),
    Message('note_on', channel=4, note=45, velocity=95, time=0),
    Message('note_on', channel=4, note=52, velocity=95, time=2),
    Message('note_on', channel=4, note=57, velocity=95, time=2),
    Message('note_on', channel=4, note=61, velocity=95, time=2),
    Message('note_on', channel=4, note=64, velocity=95, time=2),
    Message('note_off', channel=4, note=64, velocity=95, time=232),
    Message('note_off', channel=4, note=61, velocity=95, time=0),
    Message('note_off', channel=4, note=57, velocity=95, time=0),
    Message('note_off', channel=4, note=52, velocity=95, time=0),
    Message('note_off', channel=4, note=45, velocity=95, time=0),
    Message('note_on', channel=4, note=64, velocity=95, time=0),
    Message('note_on', channel=4, note=61, velocity=95, time=2),
    Message('note_on', channel=4, note=57, velocity=95, time=2),
    Message('note_on', channel=4, note=52, velocity=95, time=2),
    Message('note_on', channel=4, note=45, velocity=95, time=2),
    Message('note_off', channel=4, note=64, velocity=95, time=232),
    Message('note_off', channel=4, note=61, velocity=95, time=0),
    Message('note_off', channel=4, note=57, velocity=95, time=0),
    Message('note_off', channel=4, note=52, velocity=95, time=0),
    Message('note_off', channel=4, note=45, velocity=95, time=0),
    Message('note_on', channel=4, note=40, velocity=95, time=0),
    Message('note_on', channel=4, note=47, velocity=95, time=4),
    Message('note_on', channel=4, note=52, velocity=95, time=4),
    Message('note_on', channel=4, note=56, velocity=95, time=4),
    Message('note_on', channel=4, note=59, velocity=95, time=4),
    Message('note_on', channel=4, note=64, velocity=95, time=4),
    Message('note_off', channel=4, note=64, velocity=95, time=460),
    Message('note_off', channel=4, note=59, velocity=95, time=0),
    Message('note_off', channel=4, note=56, velocity=95, time=0),
    Message('note_off', channel=4, note=52, velocity=95, time=0),
    Message('note_off', channel=4, note=47, velocity=95, time=0),
    Message('note_off', channel=4, note=40, velocity=95, time=0),
    Message('note_on', channel=4, note=40, velocity=95, time=0),
    Message('note_on', channel=4, note=47, velocity=95, time=2),
    Message('note_on', channel=4, note=52, velocity=95, time=2),
    Message('note_on', channel=4, note=56, velocity=95, time=2),
    Message('note_on', channel=4, note=59, velocity=95, time=2),
    Message('note_on', channel=4, note=64, velocity=95, time=2),
    Message('note_off', channel=4, note=64, velocity=95, time=230),
    Message('note_off', channel=4, note=59, velocity=95, time=0),
    Message('note_off', channel=4, note=56, velocity=95, time=0),
    Message('note_off', channel=4, note=52, velocity=95, time=0),
    Message('note_off', channel=4, note=47, velocity=95, time=0),
    Message('note_off', channel=4, note=40, velocity=95, time=0),
    Message('note_on', channel=4, note=64, velocity=95, time=0),
    Message('note_on', channel=4, note=59, velocity=95, time=2),
    Message('note_on', channel=4, note=56, velocity=95, time=2),
    Message('note_on', channel=4, note=52, velocity=95, time=2),
    Message('note_on', channel=4, note=47, velocity=95, time=2),
    Message('note_on', channel=4, note=40, velocity=95, time=2),
    Message('note_off', channel=4, note=64, velocity=95, time=230),
    Message('note_off', channel=4, note=59, velocity=95, time=0),
    Message('note_off', channel=4, note=56, velocity=95, time=0),
    Message('note_off', channel=4, note=52, velocity=95, time=0),
    Message('note_off', channel=4, note=47, velocity=95, time=0),
    Message('note_off', channel=4, note=40, velocity=95, time=0),
    Message('note_on', channel=4, note=40, velocity=95, time=0),
    Message('note_on', channel=4, note=47, velocity=95, time=2),
    Message('note_on', channel=4, note=52, velocity=95, time=2),
    Message('note_on', channel=4, note=56, velocity=95, time=2),
    Message('note_on', channel=4, note=59, velocity=95, time=2),
    Message('note_on', channel=4, note=64, velocity=95, time=2),
    Message('note_off', channel=4, note=64, velocity=95, time=230),
    Message('note_off', channel=4, note=59, velocity=95, time=0),
    Message('note_off', channel=4, note=56, velocity=95, time=0),
    Message('note_off', channel=4, note=52, velocity=95, time=0),
    Message('note_off', channel=4, note=47, velocity=95, time=0),
    Message('note_off', channel=4, note=40, velocity=95, time=0),
    Message('note_on', channel=4, note=64, velocity=95, time=0),
    Message('note_on', channel=4, note=59, velocity=95, time=2),
    Message('note_on', channel=4, note=56, velocity=95, time=2),
    Message('note_on', channel=4, note=52, velocity=95, time=2),
    Message('note_on', channel=4, note=47, velocity=95, time=2),
    Message('note_on', channel=4, note=40, velocity=95, time=2),
    Message('note_off', channel=4, note=64, velocity=95, time=230),
    Message('note_off', channel=4, note=59, velocity=95, time=0),
    Message('note_off', channel=4, note=56, velocity=95, time=0),
    Message('note_off', channel=4, note=52, velocity=95, time=0),
    Message('note_off', channel=4, note=47, velocity=95, time=0),
    Message('note_off', channel=4, note=40, velocity=95, time=0),
    Message('note_on', channel=4, note=40, velocity=95, time=0),
    Message('note_on', channel=4, note=47, velocity=95, time=2),
    Message('note_on', channel=4, note=52, velocity=95, time=2),
    Message('note_on', channel=4, note=56, velocity=95, time=2),
    Message('note_on', channel=4, note=59, velocity=95, time=2),
    Message('note_on', channel=4, note=64, velocity=95, time=2),
    Message('note_off', channel=4, note=64, velocity=95, time=230),
    Message('note_off', channel=4, note=59, velocity=95, time=0),
    Message('note_off', channel=4, note=56, velocity=95, time=0),
    Message('note_off', channel=4, note=52, velocity=95, time=0),
    Message('note_off', channel=4, note=47, velocity=95, time=0),
    Message('note_off', channel=4, note=40, velocity=95, time=0),
    Message('note_on', channel=4, note=64, velocity=95, time=0),
    Message('note_on', channel=4, note=59, velocity=95, time=2),
    Message('note_on', channel=4, note=56, velocity=95, time=2),
    Message('note_on', channel=4, note=52, velocity=95, time=2),
    Message('note_on', channel=4, note=47, velocity=95, time=2),
    Message('note_on', channel=4, note=40, velocity=95, time=2),
    Message('note_off', channel=4, note=64, velocity=95, time=230),
    Message('note_off', channel=4, note=59, velocity=95, time=0),
    Message('note_off', channel=4, note=56, velocity=95, time=0),
    Message('note_off', channel=4, note=52, velocity=95, time=0),
    Message('note_off', channel=4, note=47, velocity=95, time=0),
    Message('note_off', channel=4, note=40, velocity=95, time=0),
    Message('note_on', channel=4, note=43, velocity=95, time=0),
    Message('note_on', channel=4, note=47, velocity=95, time=4),
    Message('note_on', channel=4, note=50, velocity=95, time=4),
    Message('note_on', channel=4, note=55, velocity=95, time=4),
    Message('note_on', channel=4, note=62, velocity=95, time=4),
    Message('note_on', channel=4, note=67, velocity=95, time=4),
    Message('note_off', channel=4, note=67, velocity=95, time=460),
    Message('note_off', channel=4, note=62, velocity=95, time=0),
    Message('note_off', channel=4, note=55, velocity=95, time=0),
    Message('note_off', channel=4, note=50, velocity=95, time=0),
    Message('note_off', channel=4, note=47, velocity=95, time=0),
    Message('note_off', channel=4, note=43, velocity=95, time=0),
    Message('note_on', channel=4, note=43, velocity=95, time=0),
    Message('note_on', channel=4, note=47, velocity=95, time=2),
    Message('note_on', channel=4, note=50, velocity=95, time=2),
    Message('note_on', channel=4, note=55, velocity=95, time=2),
    Message('note_on', channel=4, note=62, velocity=95, time=2),
    Message('note_on', channel=4, note=67, velocity=95, time=2),
    Message('note_off', channel=4, note=67, velocity=95, time=230),
    Message('note_off', channel=4, note=62, velocity=95, time=0),
    Message('note_off', channel=4, note=55, velocity=95, time=0),
    Message('note_off', channel=4, note=50, velocity=95, time=0),
    Message('note_off', channel=4, note=47, velocity=95, time=0),
    Message('note_off', channel=4, note=43, velocity=95, time=0),
    Message('note_on', channel=4, note=67, velocity=95, time=0),
    Message('note_on', channel=4, note=62, velocity=95, time=2),
    Message('note_on', channel=4, note=55, velocity=95, time=2),
    Message('note_on', channel=4, note=50, velocity=95, time=2),
    Message('note_on', channel=4, note=47, velocity=95, time=2),
    Message('note_on', channel=4, note=43, velocity=95, time=2),
    Message('note_off', channel=4, note=67, velocity=95, time=230),
    Message('note_off', channel=4, note=62, velocity=95, time=0),
    Message('note_off', channel=4, note=55, velocity=95, time=0),
    Message('note_off', channel=4, note=50, velocity=95, time=0),
    Message('note_off', channel=4, note=47, velocity=95, time=0),
    Message('note_off', channel=4, note=43, velocity=95, time=0),
    Message('note_on', channel=4, note=43, velocity=95, time=0),
    Message('note_on', channel=4, note=47, velocity=95, time=2),
    Message('note_on', channel=4, note=50, velocity=95, time=2),
    Message('note_on', channel=4, note=55, velocity=95, time=2),
    Message('note_on', channel=4, note=62, velocity=95, time=2),
    Message('note_on', channel=4, note=67, velocity=95, time=2),
    Message('note_off', channel=4, note=67, velocity=95, time=230),
    Message('note_off', channel=4, note=62, velocity=95, time=0),
    Message('note_off', channel=4, note=55, velocity=95, time=0),
    Message('note_off', channel=4, note=50, velocity=95, time=0),
    Message('note_off', channel=4, note=47, velocity=95, time=0),
    Message('note_off', channel=4, note=43, velocity=95, time=0),
    Message('note_on', channel=4, note=67, velocity=95, time=0),
    Message('note_on', channel=4, note=62, velocity=95, time=2),
    Message('note_on', channel=4, note=55, velocity=95, time=2),
    Message('note_on', channel=4, note=50, velocity=95, time=2),
    Message('note_on', channel=4, note=47, velocity=95, time=2),
    Message('note_on', channel=4, note=43, velocity=95, time=2),
    Message('note_off', channel=4, note=67, velocity=95, time=230),
    Message('note_off', channel=4, note=62, velocity=95, time=0),
    Message('note_off', channel=4, note=55, velocity=95, time=0),
    Message('note_off', channel=4, note=50, velocity=95, time=0),
    Message('note_off', channel=4, note=47, velocity=95, time=0),
    Message('note_off', channel=4, note=43, velocity=95, time=0),
    Message('note_on', channel=4, note=43, velocity=95, time=0),
    Message('note_on', channel=4, note=47, velocity=95, time=2),
    Message('note_on', channel=4, note=50, velocity=95, time=2),
    Message('note_on', channel=4, note=55, velocity=95, time=2),
    Message('note_on', channel=4, note=62, velocity=95, time=2),
    Message('note_on', channel=4, note=67, velocity=95, time=2),
    Message('note_off', channel=4, note=67, velocity=95, time=230),
    Message('note_off', channel=4, note=62, velocity=95, time=0),
    Message('note_off', channel=4, note=55, velocity=95, time=0),
    Message('note_off', channel=4, note=50, velocity=95, time=0),
    Message('note_off', channel=4, note=47, velocity=95, time=0),
    Message('note_off', channel=4, note=43, velocity=95, time=0),
    Message('note_on', channel=4, note=67, velocity=95, time=0),
    Message('note_on', channel=4, note=62, velocity=95, time=2),
    Message('note_on', channel=4, note=55, velocity=95, time=2),
    Message('note_on', channel=4, note=50, velocity=95, time=2),
    Message('note_on', channel=4, note=47, velocity=95, time=2),
    Message('note_on', channel=4, note=43, velocity=95, time=2),
    Message('note_off', channel=4, note=67, velocity=95, time=230),
    Message('note_off', channel=4, note=62, velocity=95, time=0),
    Message('note_off', channel=4, note=55, velocity=95, time=0),
    Message('note_off', channel=4, note=50, velocity=95, time=0),
    Message('note_off', channel=4, note=47, velocity=95, time=0),
    Message('note_off', channel=4, note=43, velocity=95, time=0),
    Message('note_on', channel=4, note=50, velocity=95, time=0),
    Message('note_on', channel=4, note=57, velocity=95, time=4),
    Message('note_on', channel=4, note=62, velocity=95, time=4),
    Message('note_on', channel=4, note=66, velocity=95, time=4),
    Message('note_off', channel=4, note=66, velocity=95, time=468),
    Message('note_off', channel=4, note=62, velocity=95, time=0),
    Message('note_off', channel=4, note=57, velocity=95, time=0),
    Message('note_off', channel=4, note=50, velocity=95, time=0),
    Message('note_on', channel=4, note=50, velocity=95, time=0),
    Message('note_on', channel=4, note=57, velocity=95, time=2),
    Message('note_on', channel=4, note=62, velocity=95, time=2),
    Message('note_on', channel=4, note=66, velocity=95, time=2),
    Message('note_off', channel=4, note=66, velocity=95, time=234),
    Message('note_off', channel=4, note=62, velocity=95, time=0),
    Message('note_off', channel=4, note=57, velocity=95, time=0),
    Message('note_off', channel=4, note=50, velocity=95, time=0),
    Message('note_on', channel=4, note=66, velocity=95, time=0),
    Message('note_on', channel=4, note=62, velocity=95, time=2),
    Message('note_on', channel=4, note=57, velocity=95, time=2),
    Message('note_on', channel=4, note=50, velocity=95, time=2),
    Message('note_off', channel=4, note=66, velocity=95, time=234),
    Message('note_off', channel=4, note=62, velocity=95, time=0),
    Message('note_off', channel=4, note=57, velocity=95, time=0),
    Message('note_off', channel=4, note=50, velocity=95, time=0),
    Message('note_on', channel=4, note=50, velocity=95, time=0),
    Message('note_on', channel=4, note=57, velocity=95, time=2),
    Message('note_on', channel=4, note=62, velocity=95, time=2),
    Message('note_on', channel=4, note=66, velocity=95, time=2),
    Message('note_off', channel=4, note=66, velocity=95, time=234),
    Message('note_off', channel=4, note=62, velocity=95, time=0),
    Message('note_off', channel=4, note=57, velocity=95, time=0),
    Message('note_off', channel=4, note=50, velocity=95, time=0),
    Message('note_on', channel=4, note=66, velocity=95, time=0),
    Message('note_on', channel=4, note=62, velocity=95, time=2),
    Message('note_on', channel=4, note=57, velocity=95, time=2),
    Message('note_on', channel=4, note=50, velocity=95, time=2),
    Message('note_off', channel=4, note=66, velocity=95, time=234),
    Message('note_off', channel=4, note=62, velocity=95, time=0),
    Message('note_off', channel=4, note=57, velocity=95, time=0),
    Message('note_off', channel=4, note=50, velocity=95, time=0),
    Message('note_on', channel=4, note=50, velocity=95, time=0),
    Message('note_on', channel=4, note=57, velocity=95, time=2),
    Message('note_on', channel=4, note=62, velocity=95, time=2),
    Message('note_on', channel=4, note=66, velocity=95, time=2),
    Message('note_off', channel=4, note=66, velocity=95, time=234),
    Message('note_off', channel=4, note=62, velocity=95, time=0),
    Message('note_off', channel=4, note=57, velocity=95, time=0),
    Message('note_off', channel=4, note=50, velocity=95, time=0),
    Message('note_on', channel=4, note=66, velocity=95, time=0),
    Message('note_on', channel=4, note=62, velocity=95, time=2),
    Message('note_on', channel=4, note=57, velocity=95, time=2),
    Message('note_on', channel=4, note=50, velocity=95, time=2),
    Message('note_off', channel=4, note=66, velocity=95, time=234),
    Message('note_off', channel=4, note=62, velocity=95, time=0),
    Message('note_off', channel=4, note=57, velocity=95, time=0),
    Message('note_off', channel=4, note=50, velocity=95, time=0),
    Message('note_on', channel=4, note=45, velocity=95, time=0),
    Message('note_on', channel=4, note=52, velocity=95, time=4),
    Message('note_on', channel=4, note=57, velocity=95, time=4),
    Message('note_on', channel=4, note=61, velocity=95, time=4),
    Message('note_on', channel=4, note=64, velocity=95, time=4),
    Message('note_off', channel=4, note=64, velocity=95, time=464),
    Message('note_off', channel=4, note=61, velocity=95, time=0),
    Message('note_off', channel=4, note=57, velocity=95, time=0),
    Message('note_off', channel=4, note=52, velocity=95, time=0),
    Message('note_off', channel=4, note=45, velocity=95, time=0),
    Message('note_on', channel=4, note=45, velocity=95, time=0),
    Message('note_on', channel=4, note=52, velocity=95, time=2),
    Message('note_on', channel=4, note=57, velocity=95, time=2),
    Message('note_on', channel=4, note=61, velocity=95, time=2),
    Message('note_on', channel=4, note=64, velocity=95, time=2),
    Message('note_off', channel=4, note=64, velocity=95, time=232),
    Message('note_off', channel=4, note=61, velocity=95, time=0),
    Message('note_off', channel=4, note=57, velocity=95, time=0),
    Message('note_off', channel=4, note=52, velocity=95, time=0),
    Message('note_off', channel=4, note=45, velocity=95, time=0),
    Message('note_on', channel=4, note=64, velocity=95, time=0),
    Message('note_on', channel=4, note=61, velocity=95, time=2),
    Message('note_on', channel=4, note=57, velocity=95, time=2),
    Message('note_on', channel=4, note=52, velocity=95, time=2),
    Message('note_on', channel=4, note=45, velocity=95, time=2),
    Message('note_off', channel=4, note=64, velocity=95, time=232),
    Message('note_off', channel=4, note=61, velocity=95, time=0),
    Message('note_off', channel=4, note=57, velocity=95, time=0),
    Message('note_off', channel=4, note=52, velocity=95, time=0),
    Message('note_off', channel=4, note=45, velocity=95, time=0),
    Message('note_on', channel=4, note=45, velocity=95, time=0),
    Message('note_on', channel=4, note=52, velocity=95, time=2),
    Message('note_on', channel=4, note=57, velocity=95, time=2),
    Message('note_on', channel=4, note=61, velocity=95, time=2),
    Message('note_on', channel=4, note=64, velocity=95, time=2),
    Message('note_off', channel=4, note=64, velocity=95, time=232),
    Message('note_off', channel=4, note=61, velocity=95, time=0),
    Message('note_off', channel=4, note=57, velocity=95, time=0),
    Message('note_off', channel=4, note=52, velocity=95, time=0),
    Message('note_off', channel=4, note=45, velocity=95, time=0),
    Message('note_on', channel=4, note=64, velocity=95, time=0),
    Message('note_on', channel=4, note=61, velocity=95, time=2),
    Message('note_on', channel=4, note=57, velocity=95, time=2),
    Message('note_on', channel=4, note=52, velocity=95, time=2),
    Message('note_on', channel=4, note=45, velocity=95, time=2),
    Message('note_off', channel=4, note=64, velocity=95, time=232),
    Message('note_off', channel=4, note=61, velocity=95, time=0),
    Message('note_off', channel=4, note=57, velocity=95, time=0),
    Message('note_off', channel=4, note=52, velocity=95, time=0),
    Message('note_off', channel=4, note=45, velocity=95, time=0),
    Message('note_on', channel=4, note=45, velocity=95, time=0),
    Message('note_on', channel=4, note=52, velocity=95, time=2),
    Message('note_on', channel=4, note=57, velocity=95, time=2),
    Message('note_on', channel=4, note=61, velocity=95, time=2),
    Message('note_on', channel=4, note=64, velocity=95, time=2),
    Message('note_off', channel=4, note=64, velocity=95, time=232),
    Message('note_off', channel=4, note=61, velocity=95, time=0),
    Message('note_off', channel=4, note=57, velocity=95, time=0),
    Message('note_off', channel=4, note=52, velocity=95, time=0),
    Message('note_off', channel=4, note=45, velocity=95, time=0),
    Message('note_on', channel=4, note=64, velocity=95, time=0),
    Message('note_on', channel=4, note=61, velocity=95, time=2),
    Message('note_on', channel=4, note=57, velocity=95, time=2),
    Message('note_on', channel=4, note=52, velocity=95, time=2),
    Message('note_on', channel=4, note=45, velocity=95, time=2),
    Message('note_off', channel=4, note=64, velocity=95, time=232),
    Message('note_off', channel=4, note=61, velocity=95, time=0),
    Message('note_off', channel=4, note=57, velocity=95, time=0),
    Message('note_off', channel=4, note=52, velocity=95, time=0),
    Message('note_off', channel=4, note=45, velocity=95, time=0),
    Message('note_on', channel=4, note=40, velocity=95, time=0),
    Message('note_on', channel=4, note=47, velocity=95, time=4),
    Message('note_on', channel=4, note=52, velocity=95, time=4),
    Message('note_on', channel=4, note=56, velocity=95, time=4),
    Message('note_on', channel=4, note=59, velocity=95, time=4),
    Message('note_on', channel=4, note=64, velocity=95, time=4),
    Message('note_off', channel=4, note=64, velocity=95, time=460),
    Message('note_off', channel=4, note=59, velocity=95, time=0),
    Message('note_off', channel=4, note=56, velocity=95, time=0),
    Message('note_off', channel=4, note=52, velocity=95, time=0),
    Message('note_off', channel=4, note=47, velocity=95, time=0),
    Message('note_off', channel=4, note=40, velocity=95, time=0),
    Message('note_on', channel=4, note=40, velocity=95, time=0),
    Message('note_on', channel=4, note=47, velocity=95, time=2),
    Message('note_on', channel=4, note=52, velocity=95, time=2),
    Message('note_on', channel=4, note=56, velocity=95, time=2),
    Message('note_on', channel=4, note=59, velocity=95, time=2),
    Message('note_on', channel=4, note=64, velocity=95, time=2),
    Message('note_off', channel=4, note=64, velocity=95, time=230),
    Message('note_off', channel=4, note=59, velocity=95, time=0),
    Message('note_off', channel=4, note=56, velocity=95, time=0),
    Message('note_off', channel=4, note=52, velocity=95, time=0),
    Message('note_off', channel=4, note=47, velocity=95, time=0),
    Message('note_off', channel=4, note=40, velocity=95, time=0),
    Message('note_on', channel=4, note=64, velocity=95, time=0),
    Message('note_on', channel=4, note=59, velocity=95, time=2),
    Message('note_on', channel=4, note=56, velocity=95, time=2),
    Message('note_on', channel=4, note=52, velocity=95, time=2),
    Message('note_on', channel=4, note=47, velocity=95, time=2),
    Message('note_on', channel=4, note=40, velocity=95, time=2),
    Message('note_off', channel=4, note=64, velocity=95, time=230),
    Message('note_off', channel=4, note=59, velocity=95, time=0),
    Message('note_off', channel=4, note=56, velocity=95, time=0),
    Message('note_off', channel=4, note=52, velocity=95, time=0),
    Message('note_off', channel=4, note=47, velocity=95, time=0),
    Message('note_off', channel=4, note=40, velocity=95, time=0),
    Message('note_on', channel=4, note=40, velocity=95, time=0),
    Message('note_on', channel=4, note=47, velocity=95, time=2),
    Message('note_on', channel=4, note=52, velocity=95, time=2),
    Message('note_on', channel=4, note=56, velocity=95, time=2),
    Message('note_on', channel=4, note=59, velocity=95, time=2),
    Message('note_on', channel=4, note=64, velocity=95, time=2),
    Message('note_off', channel=4, note=64, velocity=95, time=230),
    Message('note_off', channel=4, note=59, velocity=95, time=0),
    Message('note_off', channel=4, note=56, velocity=95, time=0),
    Message('note_off', channel=4, note=52, velocity=95, time=0),
    Message('note_off', channel=4, note=47, velocity=95, time=0),
    Message('note_off', channel=4, note=40, velocity=95, time=0),
    Message('note_on', channel=4, note=64, velocity=95, time=0),
    Message('note_on', channel=4, note=59, velocity=95, time=2),
    Message('note_on', channel=4, note=56, velocity=95, time=2),
    Message('note_on', channel=4, note=52, velocity=95, time=2),
    Message('note_on', channel=4, note=47, velocity=95, time=2),
    Message('note_on', channel=4, note=40, velocity=95, time=2),
    Message('note_off', channel=4, note=64, velocity=95, time=230),
    Message('note_off', channel=4, note=59, velocity=95, time=0),
    Message('note_off', channel=4, note=56, velocity=95, time=0),
    Message('note_off', channel=4, note=52, velocity=95, time=0),
    Message('note_off', channel=4, note=47, velocity=95, time=0),
    Message('note_off', channel=4, note=40, velocity=95, time=0),
    Message('note_on', channel=4, note=40, velocity=95, time=0),
    Message('note_on', channel=4, note=47, velocity=95, time=2),
    Message('note_on', channel=4, note=52, velocity=95, time=2),
    Message('note_on', channel=4, note=56, velocity=95, time=2),
    Message('note_on', channel=4, note=59, velocity=95, time=2),
    Message('note_on', channel=4, note=64, velocity=95, time=2),
    Message('note_off', channel=4, note=64, velocity=95, time=230),
    Message('note_off', channel=4, note=59, velocity=95, time=0),
    Message('note_off', channel=4, note=56, velocity=95, time=0),
    Message('note_off', channel=4, note=52, velocity=95, time=0),
    Message('note_off', channel=4, note=47, velocity=95, time=0),
    Message('note_off', channel=4, note=40, velocity=95, time=0),
    Message('note_on', channel=4, note=64, velocity=95, time=0),
    Message('note_on', channel=4, note=59, velocity=95, time=2),
    Message('note_on', channel=4, note=56, velocity=95, time=2),
    Message('note_on', channel=4, note=52, velocity=95, time=2),
    Message('note_on', channel=4, note=47, velocity=95, time=2),
    Message('note_on', channel=4, note=40, velocity=95, time=2),
    Message('note_off', channel=4, note=64, velocity=95, time=230),
    Message('note_off', channel=4, note=59, velocity=95, time=0),
    Message('note_off', channel=4, note=56, velocity=95, time=0),
    Message('note_off', channel=4, note=52, velocity=95, time=0),
    Message('note_off', channel=4, note=47, velocity=95, time=0),
    Message('note_off', channel=4, note=40, velocity=95, time=0),
    Message('note_on', channel=4, note=43, velocity=95, time=0),
    Message('note_on', channel=4, note=47, velocity=95, time=4),
    Message('note_on', channel=4, note=50, velocity=95, time=4),
    Message('note_on', channel=4, note=55, velocity=95, time=4),
    Message('note_on', channel=4, note=62, velocity=95, time=4),
    Message('note_on', channel=4, note=67, velocity=95, time=4),
    Message('note_off', channel=4, note=67, velocity=95, time=460),
    Message('note_off', channel=4, note=62, velocity=95, time=0),
    Message('note_off', channel=4, note=55, velocity=95, time=0),
    Message('note_off', channel=4, note=50, velocity=95, time=0),
    Message('note_off', channel=4, note=47, velocity=95, time=0),
    Message('note_off', channel=4, note=43, velocity=95, time=0),
    Message('note_on', channel=4, note=43, velocity=95, time=0),
    Message('note_on', channel=4, note=47, velocity=95, time=2),
    Message('note_on', channel=4, note=50, velocity=95, time=2),
    Message('note_on', channel=4, note=55, velocity=95, time=2),
    Message('note_on', channel=4, note=62, velocity=95, time=2),
    Message('note_on', channel=4, note=67, velocity=95, time=2),
    Message('note_off', channel=4, note=67, velocity=95, time=230),
    Message('note_off', channel=4, note=62, velocity=95, time=0),
    Message('note_off', channel=4, note=55, velocity=95, time=0),
    Message('note_off', channel=4, note=50, velocity=95, time=0),
    Message('note_off', channel=4, note=47, velocity=95, time=0),
    Message('note_off', channel=4, note=43, velocity=95, time=0),
    Message('note_on', channel=4, note=67, velocity=95, time=0),
    Message('note_on', channel=4, note=62, velocity=95, time=2),
    Message('note_on', channel=4, note=55, velocity=95, time=2),
    Message('note_on', channel=4, note=50, velocity=95, time=2),
    Message('note_on', channel=4, note=47, velocity=95, time=2),
    Message('note_on', channel=4, note=43, velocity=95, time=2),
    Message('note_off', channel=4, note=67, velocity=95, time=230),
    Message('note_off', channel=4, note=62, velocity=95, time=0),
    Message('note_off', channel=4, note=55, velocity=95, time=0),
    Message('note_off', channel=4, note=50, velocity=95, time=0),
    Message('note_off', channel=4, note=47, velocity=95, time=0),
    Message('note_off', channel=4, note=43, velocity=95, time=0),
    Message('note_on', channel=4, note=43, velocity=95, time=0),
    Message('note_on', channel=4, note=47, velocity=95, time=2),
    Message('note_on', channel=4, note=50, velocity=95, time=2),
    Message('note_on', channel=4, note=55, velocity=95, time=2),
    Message('note_on', channel=4, note=62, velocity=95, time=2),
    Message('note_on', channel=4, note=67, velocity=95, time=2),
    Message('note_off', channel=4, note=67, velocity=95, time=230),
    Message('note_off', channel=4, note=62, velocity=95, time=0),
    Message('note_off', channel=4, note=55, velocity=95, time=0),
    Message('note_off', channel=4, note=50, velocity=95, time=0),
    Message('note_off', channel=4, note=47, velocity=95, time=0),
    Message('note_off', channel=4, note=43, velocity=95, time=0),
    Message('note_on', channel=4, note=67, velocity=95, time=0),
    Message('note_on', channel=4, note=62, velocity=95, time=2),
    Message('note_on', channel=4, note=55, velocity=95, time=2),
    Message('note_on', channel=4, note=50, velocity=95, time=2),
    Message('note_on', channel=4, note=47, velocity=95, time=2),
    Message('note_on', channel=4, note=43, velocity=95, time=2),
    Message('note_off', channel=4, note=67, velocity=95, time=230),
    Message('note_off', channel=4, note=62, velocity=95, time=0),
    Message('note_off', channel=4, note=55, velocity=95, time=0),
    Message('note_off', channel=4, note=50, velocity=95, time=0),
    Message('note_off', channel=4, note=47, velocity=95, time=0),
    Message('note_off', channel=4, note=43, velocity=95, time=0),
    Message('note_on', channel=4, note=43, velocity=95, time=0),
    Message('note_on', channel=4, note=47, velocity=95, time=2),
    Message('note_on', channel=4, note=50, velocity=95, time=2),
    Message('note_on', channel=4, note=55, velocity=95, time=2),
    Message('note_on', channel=4, note=62, velocity=95, time=2),
    Message('note_on', channel=4, note=67, velocity=95, time=2),
    Message('note_off', channel=4, note=67, velocity=95, time=230),
    Message('note_off', channel=4, note=62, velocity=95, time=0),
    Message('note_off', channel=4, note=55, velocity=95, time=0),
    Message('note_off', channel=4, note=50, velocity=95, time=0),
    Message('note_off', channel=4, note=47, velocity=95, time=0),
    Message('note_off', channel=4, note=43, velocity=95, time=0),
    Message('note_on', channel=4, note=67, velocity=95, time=0),
    Message('note_on', channel=4, note=62, velocity=95, time=2),
    Message('note_on', channel=4, note=55, velocity=95, time=2),
    Message('note_on', channel=4, note=50, velocity=95, time=2),
    Message('note_on', channel=4, note=47, velocity=95, time=2),
    Message('note_on', channel=4, note=43, velocity=95, time=2),
    Message('note_off', channel=4, note=67, velocity=95, time=230),
    Message('note_off', channel=4, note=62, velocity=95, time=0),
    Message('note_off', channel=4, note=55, velocity=95, time=0),
    Message('note_off', channel=4, note=50, velocity=95, time=0),
    Message('note_off', channel=4, note=47, velocity=95, time=0),
    Message('note_off', channel=4, note=43, velocity=95, time=0),
    Message('note_on', channel=4, note=50, velocity=95, time=0),
    Message('note_on', channel=4, note=57, velocity=95, time=4),
    Message('note_on', channel=4, note=62, velocity=95, time=4),
    Message('note_on', channel=4, note=66, velocity=95, time=4),
    Message('note_off', channel=4, note=66, velocity=95, time=468),
    Message('note_off', channel=4, note=62, velocity=95, time=0),
    Message('note_off', channel=4, note=57, velocity=95, time=0),
    Message('note_off', channel=4, note=50, velocity=95, time=0),
    Message('note_on', channel=4, note=50, velocity=95, time=0),
    Message('note_on', channel=4, note=57, velocity=95, time=2),
    Message('note_on', channel=4, note=62, velocity=95, time=2),
    Message('note_on', channel=4, note=66, velocity=95, time=2),
    Message('note_off', channel=4, note=66, velocity=95, time=234),
    Message('note_off', channel=4, note=62, velocity=95, time=0),
    Message('note_off', channel=4, note=57, velocity=95, time=0),
    Message('note_off', channel=4, note=50, velocity=95, time=0),
    Message('note_on', channel=4, note=66, velocity=95, time=0),
    Message('note_on', channel=4, note=62, velocity=95, time=2),
    Message('note_on', channel=4, note=57, velocity=95, time=2),
    Message('note_on', channel=4, note=50, velocity=95, time=2),
    Message('note_off', channel=4, note=66, velocity=95, time=234),
    Message('note_off', channel=4, note=62, velocity=95, time=0),
    Message('note_off', channel=4, note=57, velocity=95, time=0),
    Message('note_off', channel=4, note=50, velocity=95, time=0),
    Message('note_on', channel=4, note=50, velocity=95, time=0),
    Message('note_on', channel=4, note=57, velocity=95, time=2),
    Message('note_on', channel=4, note=62, velocity=95, time=2),
    Message('note_on', channel=4, note=66, velocity=95, time=2),
    Message('note_off', channel=4, note=66, velocity=95, time=234),
    Message('note_off', channel=4, note=62, velocity=95, time=0),
    Message('note_off', channel=4, note=57, velocity=95, time=0),
    Message('note_off', channel=4, note=50, velocity=95, time=0),
    Message('note_on', channel=4, note=66, velocity=95, time=0),
    Message('note_on', channel=4, note=62, velocity=95, time=2),
    Message('note_on', channel=4, note=57, velocity=95, time=2),
    Message('note_on', channel=4, note=50, velocity=95, time=2),
    Message('note_off', channel=4, note=66, velocity=95, time=234),
    Message('note_off', channel=4, note=62, velocity=95, time=0),
    Message('note_off', channel=4, note=57, velocity=95, time=0),
    Message('note_off', channel=4, note=50, velocity=95, time=0),
    Message('note_on', channel=4, note=50, velocity=95, time=0),
    Message('note_on', channel=4, note=57, velocity=95, time=2),
    Message('note_on', channel=4, note=62, velocity=95, time=2),
    Message('note_on', channel=4, note=66, velocity=95, time=2),
    Message('note_off', channel=4, note=66, velocity=95, time=234),
    Message('note_off', channel=4, note=62, velocity=95, time=0),
    Message('note_off', channel=4, note=57, velocity=95, time=0),
    Message('note_off', channel=4, note=50, velocity=95, time=0),
    Message('note_on', channel=4, note=66, velocity=95, time=0),
    Message('note_on', channel=4, note=62, velocity=95, time=2),
    Message('note_on', channel=4, note=57, velocity=95, time=2),
    Message('note_on', channel=4, note=50, velocity=95, time=2),
    Message('note_off', channel=4, note=66, velocity=95, time=234),
    Message('note_off', channel=4, note=62, velocity=95, time=0),
    Message('note_off', channel=4, note=57, velocity=95, time=0),
    Message('note_off', channel=4, note=50, velocity=95, time=0),
    Message('note_on', channel=4, note=45, velocity=95, time=0),
    Message('note_on', channel=4, note=52, velocity=95, time=4),
    Message('note_on', channel=4, note=57, velocity=95, time=4),
    Message('note_on', channel=4, note=61, velocity=95, time=4),
    Message('note_on', channel=4, note=64, velocity=95, time=4),
    Message('note_off', channel=4, note=64, velocity=95, time=464),
    Message('note_off', channel=4, note=61, velocity=95, time=0),
    Message('note_off', channel=4, note=57, velocity=95, time=0),
    Message('note_off', channel=4, note=52, velocity=95, time=0),
    Message('note_off', channel=4, note=45, velocity=95, time=0),
    Message('note_on', channel=4, note=45, velocity=95, time=0),
    Message('note_on', channel=4, note=52, velocity=95, time=2),
    Message('note_on', channel=4, note=57, velocity=95, time=2),
    Message('note_on', channel=4, note=61, velocity=95, time=2),
    Message('note_on', channel=4, note=64, velocity=95, time=2),
    Message('note_off', channel=4, note=64, velocity=95, time=232),
    Message('note_off', channel=4, note=61, velocity=95, time=0),
    Message('note_off', channel=4, note=57, velocity=95, time=0),
    Message('note_off', channel=4, note=52, velocity=95, time=0),
    Message('note_off', channel=4, note=45, velocity=95, time=0),
    Message('note_on', channel=4, note=64, velocity=95, time=0),
    Message('note_on', channel=4, note=61, velocity=95, time=2),
    Message('note_on', channel=4, note=57, velocity=95, time=2),
    Message('note_on', channel=4, note=52, velocity=95, time=2),
    Message('note_on', channel=4, note=45, velocity=95, time=2),
    Message('note_off', channel=4, note=64, velocity=95, time=232),
    Message('note_off', channel=4, note=61, velocity=95, time=0),
    Message('note_off', channel=4, note=57, velocity=95, time=0),
    Message('note_off', channel=4, note=52, velocity=95, time=0),
    Message('note_off', channel=4, note=45, velocity=95, time=0),
    Message('note_on', channel=4, note=45, velocity=95, time=0),
    Message('note_on', channel=4, note=52, velocity=95, time=2),
    Message('note_on', channel=4, note=57, velocity=95, time=2),
    Message('note_on', channel=4, note=61, velocity=95, time=2),
    Message('note_on', channel=4, note=64, velocity=95, time=2),
    Message('note_off', channel=4, note=64, velocity=95, time=232),
    Message('note_off', channel=4, note=61, velocity=95, time=0),
    Message('note_off', channel=4, note=57, velocity=95, time=0),
    Message('note_off', channel=4, note=52, velocity=95, time=0),
    Message('note_off', channel=4, note=45, velocity=95, time=0),
    Message('note_on', channel=4, note=64, velocity=95, time=0),
    Message('note_on', channel=4, note=61, velocity=95, time=2),
    Message('note_on', channel=4, note=57, velocity=95, time=2),
    Message('note_on', channel=4, note=52, velocity=95, time=2),
    Message('note_on', channel=4, note=45, velocity=95, time=2),
    Message('note_off', channel=4, note=64, velocity=95, time=232),
    Message('note_off', channel=4, note=61, velocity=95, time=0),
    Message('note_off', channel=4, note=57, velocity=95, time=0),
    Message('note_off', channel=4, note=52, velocity=95, time=0),
    Message('note_off', channel=4, note=45, velocity=95, time=0),
    Message('note_on', channel=4, note=45, velocity=95, time=0),
    Message('note_on', channel=4, note=52, velocity=95, time=2),
    Message('note_on', channel=4, note=57, velocity=95, time=2),
    Message('note_on', channel=4, note=61, velocity=95, time=2),
    Message('note_on', channel=4, note=64, velocity=95, time=2),
    Message('note_off', channel=4, note=64, velocity=95, time=232),
    Message('note_off', channel=4, note=61, velocity=95, time=0),
    Message('note_off', channel=4, note=57, velocity=95, time=0),
    Message('note_off', channel=4, note=52, velocity=95, time=0),
    Message('note_off', channel=4, note=45, velocity=95, time=0),
    Message('note_on', channel=4, note=64, velocity=95, time=0),
    Message('note_on', channel=4, note=61, velocity=95, time=2),
    Message('note_on', channel=4, note=57, velocity=95, time=2),
    Message('note_on', channel=4, note=52, velocity=95, time=2),
    Message('note_on', channel=4, note=45, velocity=95, time=2),
    Message('note_off', channel=4, note=64, velocity=95, time=232),
    Message('note_off', channel=4, note=61, velocity=95, time=0),
    Message('note_off', channel=4, note=57, velocity=95, time=0),
    Message('note_off', channel=4, note=52, velocity=95, time=0),
    Message('note_off', channel=4, note=45, velocity=95, time=0),
    Message('note_on', channel=4, note=40, velocity=95, time=0),
    Message('note_on', channel=4, note=47, velocity=95, time=4),
    Message('note_on', channel=4, note=52, velocity=95, time=4),
    Message('note_on', channel=4, note=56, velocity=95, time=4),
    Message('note_on', channel=4, note=59, velocity=95, time=4),
    Message('note_on', channel=4, note=64, velocity=95, time=4),
    Message('note_off', channel=4, note=64, velocity=95, time=460),
    Message('note_off', channel=4, note=59, velocity=95, time=0),
    Message('note_off', channel=4, note=56, velocity=95, time=0),
    Message('note_off', channel=4, note=52, velocity=95, time=0),
    Message('note_off', channel=4, note=47, velocity=95, time=0),
    Message('note_off', channel=4, note=40, velocity=95, time=0),
    Message('note_on', channel=4, note=40, velocity=95, time=0),
    Message('note_on', channel=4, note=47, velocity=95, time=2),
    Message('note_on', channel=4, note=52, velocity=95, time=2),
    Message('note_on', channel=4, note=56, velocity=95, time=2),
    Message('note_on', channel=4, note=59, velocity=95, time=2),
    Message('note_on', channel=4, note=64, velocity=95, time=2),
    Message('note_off', channel=4, note=64, velocity=95, time=230),
    Message('note_off', channel=4, note=59, velocity=95, time=0),
    Message('note_off', channel=4, note=56, velocity=95, time=0),
    Message('note_off', channel=4, note=52, velocity=95, time=0),
    Message('note_off', channel=4, note=47, velocity=95, time=0),
    Message('note_off', channel=4, note=40, velocity=95, time=0),
    Message('note_on', channel=4, note=64, velocity=95, time=0),
    Message('note_on', channel=4, note=59, velocity=95, time=2),
    Message('note_on', channel=4, note=56, velocity=95, time=2),
    Message('note_on', channel=4, note=52, velocity=95, time=2),
    Message('note_on', channel=4, note=47, velocity=95, time=2),
    Message('note_on', channel=4, note=40, velocity=95, time=2),
    Message('note_off', channel=4, note=64, velocity=95, time=230),
    Message('note_off', channel=4, note=59, velocity=95, time=0),
    Message('note_off', channel=4, note=56, velocity=95, time=0),
    Message('note_off', channel=4, note=52, velocity=95, time=0),
    Message('note_off', channel=4, note=47, velocity=95, time=0),
    Message('note_off', channel=4, note=40, velocity=95, time=0),
    Message('note_on', channel=4, note=40, velocity=95, time=0),
    Message('note_on', channel=4, note=47, velocity=95, time=2),
    Message('note_on', channel=4, note=52, velocity=95, time=2),
    Message('note_on', channel=4, note=56, velocity=95, time=2),
    Message('note_on', channel=4, note=59, velocity=95, time=2),
    Message('note_on', channel=4, note=64, velocity=95, time=2),
    Message('note_off', channel=4, note=64, velocity=95, time=230),
    Message('note_off', channel=4, note=59, velocity=95, time=0),
    Message('note_off', channel=4, note=56, velocity=95, time=0),
    Message('note_off', channel=4, note=52, velocity=95, time=0),
    Message('note_off', channel=4, note=47, velocity=95, time=0),
    Message('note_off', channel=4, note=40, velocity=95, time=0),
    Message('note_on', channel=4, note=64, velocity=95, time=0),
    Message('note_on', channel=4, note=59, velocity=95, time=2),
    Message('note_on', channel=4, note=56, velocity=95, time=2),
    Message('note_on', channel=4, note=52, velocity=95, time=2),
    Message('note_on', channel=4, note=47, velocity=95, time=2),
    Message('note_on', channel=4, note=40, velocity=95, time=2),
    Message('note_off', channel=4, note=64, velocity=95, time=230),
    Message('note_off', channel=4, note=59, velocity=95, time=0),
    Message('note_off', channel=4, note=56, velocity=95, time=0),
    Message('note_off', channel=4, note=52, velocity=95, time=0),
    Message('note_off', channel=4, note=47, velocity=95, time=0),
    Message('note_off', channel=4, note=40, velocity=95, time=0),
    Message('note_on', channel=4, note=40, velocity=95, time=0),
    Message('note_on', channel=4, note=47, velocity=95, time=2),
    Message('note_on', channel=4, note=52, velocity=95, time=2),
    Message('note_on', channel=4, note=56, velocity=95, time=2),
    Message('note_on', channel=4, note=59, velocity=95, time=2),
    Message('note_on', channel=4, note=64, velocity=95, time=2),
    Message('note_off', channel=4, note=64, velocity=95, time=230),
    Message('note_off', channel=4, note=59, velocity=95, time=0),
    Message('note_off', channel=4, note=56, velocity=95, time=0),
    Message('note_off', channel=4, note=52, velocity=95, time=0),
    Message('note_off', channel=4, note=47, velocity=95, time=0),
    Message('note_off', channel=4, note=40, velocity=95, time=0),
    Message('note_on', channel=4, note=64, velocity=95, time=0),
    Message('note_on', channel=4, note=59, velocity=95, time=2),
    Message('note_on', channel=4, note=56, velocity=95, time=2),
    Message('note_on', channel=4, note=52, velocity=95, time=2),
    Message('note_on', channel=4, note=47, velocity=95, time=2),
    Message('note_on', channel=4, note=40, velocity=95, time=2),
    Message('note_off', channel=4, note=64, velocity=95, time=230),
    Message('note_off', channel=4, note=59, velocity=95, time=0),
    Message('note_off', channel=4, note=56, velocity=95, time=0),
    Message('note_off', channel=4, note=52, velocity=95, time=0),
    Message('note_off', channel=4, note=47, velocity=95, time=0),
    Message('note_off', channel=4, note=40, velocity=95, time=0),
    Message('note_on', channel=4, note=43, velocity=95, time=0),
    Message('note_on', channel=4, note=47, velocity=95, time=4),
    Message('note_on', channel=4, note=50, velocity=95, time=4),
    Message('note_on', channel=4, note=55, velocity=95, time=4),
    Message('note_on', channel=4, note=62, velocity=95, time=4),
    Message('note_on', channel=4, note=67, velocity=95, time=4),
    Message('note_off', channel=4, note=67, velocity=95, time=460),
    Message('note_off', channel=4, note=62, velocity=95, time=0),
    Message('note_off', channel=4, note=55, velocity=95, time=0),
    Message('note_off', channel=4, note=50, velocity=95, time=0),
    Message('note_off', channel=4, note=47, velocity=95, time=0),
    Message('note_off', channel=4, note=43, velocity=95, time=0),
    Message('note_on', channel=4, note=43, velocity=95, time=0),
    Message('note_on', channel=4, note=47, velocity=95, time=2),
    Message('note_on', channel=4, note=50, velocity=95, time=2),
    Message('note_on', channel=4, note=55, velocity=95, time=2),
    Message('note_on', channel=4, note=62, velocity=95, time=2),
    Message('note_on', channel=4, note=67, velocity=95, time=2),
    Message('note_off', channel=4, note=67, velocity=95, time=230),
    Message('note_off', channel=4, note=62, velocity=95, time=0),
    Message('note_off', channel=4, note=55, velocity=95, time=0),
    Message('note_off', channel=4, note=50, velocity=95, time=0),
    Message('note_off', channel=4, note=47, velocity=95, time=0),
    Message('note_off', channel=4, note=43, velocity=95, time=0),
    Message('note_on', channel=4, note=67, velocity=95, time=0),
    Message('note_on', channel=4, note=62, velocity=95, time=2),
    Message('note_on', channel=4, note=55, velocity=95, time=2),
    Message('note_on', channel=4, note=50, velocity=95, time=2),
    Message('note_on', channel=4, note=47, velocity=95, time=2),
    Message('note_on', channel=4, note=43, velocity=95, time=2),
    Message('note_off', channel=4, note=67, velocity=95, time=230),
    Message('note_off', channel=4, note=62, velocity=95, time=0),
    Message('note_off', channel=4, note=55, velocity=95, time=0),
    Message('note_off', channel=4, note=50, velocity=95, time=0),
    Message('note_off', channel=4, note=47, velocity=95, time=0),
    Message('note_off', channel=4, note=43, velocity=95, time=0),
    Message('note_on', channel=4, note=43, velocity=95, time=0),
    Message('note_on', channel=4, note=47, velocity=95, time=2),
    Message('note_on', channel=4, note=50, velocity=95, time=2),
    Message('note_on', channel=4, note=55, velocity=95, time=2),
    Message('note_on', channel=4, note=62, velocity=95, time=2),
    Message('note_on', channel=4, note=67, velocity=95, time=2),
    Message('note_off', channel=4, note=67, velocity=95, time=230),
    Message('note_off', channel=4, note=62, velocity=95, time=0),
    Message('note_off', channel=4, note=55, velocity=95, time=0),
    Message('note_off', channel=4, note=50, velocity=95, time=0),
    Message('note_off', channel=4, note=47, velocity=95, time=0),
    Message('note_off', channel=4, note=43, velocity=95, time=0),
    Message('note_on', channel=4, note=67, velocity=95, time=0),
    Message('note_on', channel=4, note=62, velocity=95, time=2),
    Message('note_on', channel=4, note=55, velocity=95, time=2),
    Message('note_on', channel=4, note=50, velocity=95, time=2),
    Message('note_on', channel=4, note=47, velocity=95, time=2),
    Message('note_on', channel=4, note=43, velocity=95, time=2),
    Message('note_off', channel=4, note=67, velocity=95, time=230),
    Message('note_off', channel=4, note=62, velocity=95, time=0),
    Message('note_off', channel=4, note=55, velocity=95, time=0),
    Message('note_off', channel=4, note=50, velocity=95, time=0),
    Message('note_off', channel=4, note=47, velocity=95, time=0),
    Message('note_off', channel=4, note=43, velocity=95, time=0),
    Message('note_on', channel=4, note=43, velocity=95, time=0),
    Message('note_on', channel=4, note=47, velocity=95, time=2),
    Message('note_on', channel=4, note=50, velocity=95, time=2),
    Message('note_on', channel=4, note=55, velocity=95, time=2),
    Message('note_on', channel=4, note=62, velocity=95, time=2),
    Message('note_on', channel=4, note=67, velocity=95, time=2),
    Message('note_off', channel=4, note=67, velocity=95, time=230),
    Message('note_off', channel=4, note=62, velocity=95, time=0),
    Message('note_off', channel=4, note=55, velocity=95, time=0),
    Message('note_off', channel=4, note=50, velocity=95, time=0),
    Message('note_off', channel=4, note=47, velocity=95, time=0),
    Message('note_off', channel=4, note=43, velocity=95, time=0),
    Message('note_on', channel=4, note=67, velocity=95, time=0),
    Message('note_on', channel=4, note=62, velocity=95, time=2),
    Message('note_on', channel=4, note=55, velocity=95, time=2),
    Message('note_on', channel=4, note=50, velocity=95, time=2),
    Message('note_on', channel=4, note=47, velocity=95, time=2),
    Message('note_on', channel=4, note=43, velocity=95, time=2),
    Message('note_off', channel=4, note=67, velocity=95, time=230),
    Message('note_off', channel=4, note=62, velocity=95, time=0),
    Message('note_off', channel=4, note=55, velocity=95, time=0),
    Message('note_off', channel=4, note=50, velocity=95, time=0),
    Message('note_off', channel=4, note=47, velocity=95, time=0),
    Message('note_off', channel=4, note=43, velocity=95, time=0),
    Message('note_on', channel=4, note=50, velocity=95, time=0),
    Message('note_on', channel=4, note=57, velocity=95, time=4),
    Message('note_on', channel=4, note=62, velocity=95, time=4),
    Message('note_on', channel=4, note=66, velocity=95, time=4),
    Message('note_off', channel=4, note=66, velocity=95, time=468),
    Message('note_off', channel=4, note=62, velocity=95, time=0),
    Message('note_off', channel=4, note=57, velocity=95, time=0),
    Message('note_off', channel=4, note=50, velocity=95, time=0),
    Message('note_on', channel=4, note=50, velocity=95, time=0),
    Message('note_on', channel=4, note=57, velocity=95, time=2),
    Message('note_on', channel=4, note=62, velocity=95, time=2),
    Message('note_on', channel=4, note=66, velocity=95, time=2),
    Message('note_off', channel=4, note=66, velocity=95, time=234),
    Message('note_off', channel=4, note=62, velocity=95, time=0),
    Message('note_off', channel=4, note=57, velocity=95, time=0),
    Message('note_off', channel=4, note=50, velocity=95, time=0),
    Message('note_on', channel=4, note=66, velocity=95, time=0),
    Message('note_on', channel=4, note=62, velocity=95, time=2),
    Message('note_on', channel=4, note=57, velocity=95, time=2),
    Message('note_on', channel=4, note=50, velocity=95, time=2),
    Message('note_off', channel=4, note=66, velocity=95, time=234),
    Message('note_off', channel=4, note=62, velocity=95, time=0),
    Message('note_off', channel=4, note=57, velocity=95, time=0),
    Message('note_off', channel=4, note=50, velocity=95, time=0),
    Message('note_on', channel=4, note=50, velocity=95, time=0),
    Message('note_on', channel=4, note=57, velocity=95, time=2),
    Message('note_on', channel=4, note=62, velocity=95, time=2),
    Message('note_on', channel=4, note=66, velocity=95, time=2),
    Message('note_off', channel=4, note=66, velocity=95, time=234),
    Message('note_off', channel=4, note=62, velocity=95, time=0),
    Message('note_off', channel=4, note=57, velocity=95, time=0),
    Message('note_off', channel=4, note=50, velocity=95, time=0),
    Message('note_on', channel=4, note=66, velocity=95, time=0),
    Message('note_on', channel=4, note=62, velocity=95, time=2),
    Message('note_on', channel=4, note=57, velocity=95, time=2),
    Message('note_on', channel=4, note=50, velocity=95, time=2),
    Message('note_off', channel=4, note=66, velocity=95, time=234),
    Message('note_off', channel=4, note=62, velocity=95, time=0),
    Message('note_off', channel=4, note=57, velocity=95, time=0),
    Message('note_off', channel=4, note=50, velocity=95, time=0),
    Message('note_on', channel=4, note=50, velocity=95, time=0),
    Message('note_on', channel=4, note=57, velocity=95, time=2),
    Message('note_on', channel=4, note=62, velocity=95, time=2),
    Message('note_on', channel=4, note=66, velocity=95, time=2),
    Message('note_off', channel=4, note=66, velocity=95, time=234),
    Message('note_off', channel=4, note=62, velocity=95, time=0),
    Message('note_off', channel=4, note=57, velocity=95, time=0),
    Message('note_off', channel=4, note=50, velocity=95, time=0),
    Message('note_on', channel=4, note=66, velocity=95, time=0),
    Message('note_on', channel=4, note=62, velocity=95, time=2),
    Message('note_on', channel=4, note=57, velocity=95, time=2),
    Message('note_on', channel=4, note=50, velocity=95, time=2),
    Message('note_off', channel=4, note=66, velocity=95, time=234),
    Message('note_off', channel=4, note=62, velocity=95, time=0),
    Message('note_off', channel=4, note=57, velocity=95, time=0),
    Message('note_off', channel=4, note=50, velocity=95, time=0),
    Message('note_on', channel=4, note=45, velocity=95, time=0),
    Message('note_on', channel=4, note=52, velocity=95, time=4),
    Message('note_on', channel=4, note=57, velocity=95, time=4),
    Message('note_on', channel=4, note=61, velocity=95, time=4),
    Message('note_on', channel=4, note=64, velocity=95, time=4),
    Message('note_off', channel=4, note=64, velocity=95, time=464),
    Message('note_off', channel=4, note=61, velocity=95, time=0),
    Message('note_off', channel=4, note=57, velocity=95, time=0),
    Message('note_off', channel=4, note=52, velocity=95, time=0),
    Message('note_off', channel=4, note=45, velocity=95, time=0),
    Message('note_on', channel=4, note=45, velocity=95, time=0),
    Message('note_on', channel=4, note=52, velocity=95, time=2),
    Message('note_on', channel=4, note=57, velocity=95, time=2),
    Message('note_on', channel=4, note=61, velocity=95, time=2),
    Message('note_on', channel=4, note=64, velocity=95, time=2),
    Message('note_off', channel=4, note=64, velocity=95, time=232),
    Message('note_off', channel=4, note=61, velocity=95, time=0),
    Message('note_off', channel=4, note=57, velocity=95, time=0),
    Message('note_off', channel=4, note=52, velocity=95, time=0),
    Message('note_off', channel=4, note=45, velocity=95, time=0),
    Message('note_on', channel=4, note=64, velocity=95, time=0),
    Message('note_on', channel=4, note=61, velocity=95, time=2),
    Message('note_on', channel=4, note=57, velocity=95, time=2),
    Message('note_on', channel=4, note=52, velocity=95, time=2),
    Message('note_on', channel=4, note=45, velocity=95, time=2),
    Message('note_off', channel=4, note=64, velocity=95, time=232),
    Message('note_off', channel=4, note=61, velocity=95, time=0),
    Message('note_off', channel=4, note=57, velocity=95, time=0),
    Message('note_off', channel=4, note=52, velocity=95, time=0),
    Message('note_off', channel=4, note=45, velocity=95, time=0),
    Message('note_on', channel=4, note=45, velocity=95, time=0),
    Message('note_on', channel=4, note=52, velocity=95, time=2),
    Message('note_on', channel=4, note=57, velocity=95, time=2),
    Message('note_on', channel=4, note=61, velocity=95, time=2),
    Message('note_on', channel=4, note=64, velocity=95, time=2),
    Message('note_off', channel=4, note=64, velocity=95, time=232),
    Message('note_off', channel=4, note=61, velocity=95, time=0),
    Message('note_off', channel=4, note=57, velocity=95, time=0),
    Message('note_off', channel=4, note=52, velocity=95, time=0),
    Message('note_off', channel=4, note=45, velocity=95, time=0),
    Message('note_on', channel=4, note=64, velocity=95, time=0),
    Message('note_on', channel=4, note=61, velocity=95, time=2),
    Message('note_on', channel=4, note=57, velocity=95, time=2),
    Message('note_on', channel=4, note=52, velocity=95, time=2),
    Message('note_on', channel=4, note=45, velocity=95, time=2),
    Message('note_off', channel=4, note=64, velocity=95, time=232),
    Message('note_off', channel=4, note=61, velocity=95, time=0),
    Message('note_off', channel=4, note=57, velocity=95, time=0),
    Message('note_off', channel=4, note=52, velocity=95, time=0),
    Message('note_off', channel=4, note=45, velocity=95, time=0),
    Message('note_on', channel=4, note=45, velocity=95, time=0),
    Message('note_on', channel=4, note=52, velocity=95, time=2),
    Message('note_on', channel=4, note=57, velocity=95, time=2),
    Message('note_on', channel=4, note=61, velocity=95, time=2),
    Message('note_on', channel=4, note=64, velocity=95, time=2),
    Message('note_off', channel=4, note=64, velocity=95, time=232),
    Message('note_off', channel=4, note=61, velocity=95, time=0),
    Message('note_off', channel=4, note=57, velocity=95, time=0),
    Message('note_off', channel=4, note=52, velocity=95, time=0),
    Message('note_off', channel=4, note=45, velocity=95, time=0),
    Message('note_on', channel=4, note=64, velocity=95, time=0),
    Message('note_on', channel=4, note=61, velocity=95, time=2),
    Message('note_on', channel=4, note=57, velocity=95, time=2),
    Message('note_on', channel=4, note=52, velocity=95, time=2),
    Message('note_on', channel=4, note=45, velocity=95, time=2),
    Message('note_off', channel=4, note=64, velocity=95, time=232),
    Message('note_off', channel=4, note=61, velocity=95, time=0),
    Message('note_off', channel=4, note=57, velocity=95, time=0),
    Message('note_off', channel=4, note=52, velocity=95, time=0),
    Message('note_off', channel=4, note=45, velocity=95, time=0),
    Message('note_on', channel=4, note=40, velocity=95, time=0),
    Message('note_on', channel=4, note=47, velocity=95, time=4),
    Message('note_on', channel=4, note=52, velocity=95, time=4),
    Message('note_on', channel=4, note=56, velocity=95, time=4),
    Message('note_on', channel=4, note=59, velocity=95, time=4),
    Message('note_on', channel=4, note=64, velocity=95, time=4),
    Message('note_off', channel=4, note=64, velocity=95, time=460),
    Message('note_off', channel=4, note=59, velocity=95, time=0),
    Message('note_off', channel=4, note=56, velocity=95, time=0),
    Message('note_off', channel=4, note=52, velocity=95, time=0),
    Message('note_off', channel=4, note=47, velocity=95, time=0),
    Message('note_off', channel=4, note=40, velocity=95, time=0),
    Message('note_on', channel=4, note=40, velocity=95, time=0),
    Message('note_on', channel=4, note=47, velocity=95, time=2),
    Message('note_on', channel=4, note=52, velocity=95, time=2),
    Message('note_on', channel=4, note=56, velocity=95, time=2),
    Message('note_on', channel=4, note=59, velocity=95, time=2),
    Message('note_on', channel=4, note=64, velocity=95, time=2),
    Message('note_off', channel=4, note=64, velocity=95, time=230),
    Message('note_off', channel=4, note=59, velocity=95, time=0),
    Message('note_off', channel=4, note=56, velocity=95, time=0),
    Message('note_off', channel=4, note=52, velocity=95, time=0),
    Message('note_off', channel=4, note=47, velocity=95, time=0),
    Message('note_off', channel=4, note=40, velocity=95, time=0),
    Message('note_on', channel=4, note=64, velocity=95, time=0),
    Message('note_on', channel=4, note=59, velocity=95, time=2),
    Message('note_on', channel=4, note=56, velocity=95, time=2),
    Message('note_on', channel=4, note=52, velocity=95, time=2),
    Message('note_on', channel=4, note=47, velocity=95, time=2),
    Message('note_on', channel=4, note=40, velocity=95, time=2),
    Message('note_off', channel=4, note=64, velocity=95, time=230),
    Message('note_off', channel=4, note=59, velocity=95, time=0),
    Message('note_off', channel=4, note=56, velocity=95, time=0),
    Message('note_off', channel=4, note=52, velocity=95, time=0),
    Message('note_off', channel=4, note=47, velocity=95, time=0),
    Message('note_off', channel=4, note=40, velocity=95, time=0),
    Message('note_on', channel=4, note=40, velocity=95, time=0),
    Message('note_on', channel=4, note=47, velocity=95, time=2),
    Message('note_on', channel=4, note=52, velocity=95, time=2),
    Message('note_on', channel=4, note=56, velocity=95, time=2),
    Message('note_on', channel=4, note=59, velocity=95, time=2),
    Message('note_on', channel=4, note=64, velocity=95, time=2),
    Message('note_off', channel=4, note=64, velocity=95, time=230),
    Message('note_off', channel=4, note=59, velocity=95, time=0),
    Message('note_off', channel=4, note=56, velocity=95, time=0),
    Message('note_off', channel=4, note=52, velocity=95, time=0),
    Message('note_off', channel=4, note=47, velocity=95, time=0),
    Message('note_off', channel=4, note=40, velocity=95, time=0),
    Message('note_on', channel=4, note=64, velocity=95, time=0),
    Message('note_on', channel=4, note=59, velocity=95, time=2),
    Message('note_on', channel=4, note=56, velocity=95, time=2),
    Message('note_on', channel=4, note=52, velocity=95, time=2),
    Message('note_on', channel=4, note=47, velocity=95, time=2),
    Message('note_on', channel=4, note=40, velocity=95, time=2),
    Message('note_off', channel=4, note=64, velocity=95, time=230),
    Message('note_off', channel=4, note=59, velocity=95, time=0),
    Message('note_off', channel=4, note=56, velocity=95, time=0),
    Message('note_off', channel=4, note=52, velocity=95, time=0),
    Message('note_off', channel=4, note=47, velocity=95, time=0),
    Message('note_off', channel=4, note=40, velocity=95, time=0),
    Message('note_on', channel=4, note=40, velocity=95, time=0),
    Message('note_on', channel=4, note=47, velocity=95, time=2),
    Message('note_on', channel=4, note=52, velocity=95, time=2),
    Message('note_on', channel=4, note=56, velocity=95, time=2),
    Message('note_on', channel=4, note=59, velocity=95, time=2),
    Message('note_on', channel=4, note=64, velocity=95, time=2),
    Message('note_off', channel=4, note=64, velocity=95, time=230),
    Message('note_off', channel=4, note=59, velocity=95, time=0),
    Message('note_off', channel=4, note=56, velocity=95, time=0),
    Message('note_off', channel=4, note=52, velocity=95, time=0),
    Message('note_off', channel=4, note=47, velocity=95, time=0),
    Message('note_off', channel=4, note=40, velocity=95, time=0),
    Message('note_on', channel=4, note=64, velocity=95, time=0),
    Message('note_on', channel=4, note=59, velocity=95, time=2),
    Message('note_on', channel=4, note=56, velocity=95, time=2),
    Message('note_on', channel=4, note=52, velocity=95, time=2),
    Message('note_on', channel=4, note=47, velocity=95, time=2),
    Message('note_on', channel=4, note=40, velocity=95, time=2),
    Message('note_off', channel=4, note=64, velocity=95, time=230),
    Message('note_off', channel=4, note=59, velocity=95, time=0),
    Message('note_off', channel=4, note=56, velocity=95, time=0),
    Message('note_off', channel=4, note=52, velocity=95, time=0),
    Message('note_off', channel=4, note=47, velocity=95, time=0),
    Message('note_off', channel=4, note=40, velocity=95, time=0),
    Message('note_on', channel=4, note=43, velocity=95, time=0),
    Message('note_on', channel=4, note=47, velocity=95, time=4),
    Message('note_on', channel=4, note=50, velocity=95, time=4),
    Message('note_on', channel=4, note=55, velocity=95, time=4),
    Message('note_on', channel=4, note=62, velocity=95, time=4),
    Message('note_on', channel=4, note=67, velocity=95, time=4),
    Message('note_off', channel=4, note=67, velocity=95, time=460),
    Message('note_off', channel=4, note=62, velocity=95, time=0),
    Message('note_off', channel=4, note=55, velocity=95, time=0),
    Message('note_off', channel=4, note=50, velocity=95, time=0),
    Message('note_off', channel=4, note=47, velocity=95, time=0),
    Message('note_off', channel=4, note=43, velocity=95, time=0),
    Message('note_on', channel=4, note=43, velocity=95, time=0),
    Message('note_on', channel=4, note=47, velocity=95, time=2),
    Message('note_on', channel=4, note=50, velocity=95, time=2),
    Message('note_on', channel=4, note=55, velocity=95, time=2),
    Message('note_on', channel=4, note=62, velocity=95, time=2),
    Message('note_on', channel=4, note=67, velocity=95, time=2),
    Message('note_off', channel=4, note=67, velocity=95, time=230),
    Message('note_off', channel=4, note=62, velocity=95, time=0),
    Message('note_off', channel=4, note=55, velocity=95, time=0),
    Message('note_off', channel=4, note=50, velocity=95, time=0),
    Message('note_off', channel=4, note=47, velocity=95, time=0),
    Message('note_off', channel=4, note=43, velocity=95, time=0),
    Message('note_on', channel=4, note=67, velocity=95, time=0),
    Message('note_on', channel=4, note=62, velocity=95, time=2),
    Message('note_on', channel=4, note=55, velocity=95, time=2),
    Message('note_on', channel=4, note=50, velocity=95, time=2),
    Message('note_on', channel=4, note=47, velocity=95, time=2),
    Message('note_on', channel=4, note=43, velocity=95, time=2),
    Message('note_off', channel=4, note=67, velocity=95, time=230),
    Message('note_off', channel=4, note=62, velocity=95, time=0),
    Message('note_off', channel=4, note=55, velocity=95, time=0),
    Message('note_off', channel=4, note=50, velocity=95, time=0),
    Message('note_off', channel=4, note=47, velocity=95, time=0),
    Message('note_off', channel=4, note=43, velocity=95, time=0),
    Message('note_on', channel=4, note=43, velocity=95, time=0),
    Message('note_on', channel=4, note=47, velocity=95, time=2),
    Message('note_on', channel=4, note=50, velocity=95, time=2),
    Message('note_on', channel=4, note=55, velocity=95, time=2),
    Message('note_on', channel=4, note=62, velocity=95, time=2),
    Message('note_on', channel=4, note=67, velocity=95, time=2),
    Message('note_off', channel=4, note=67, velocity=95, time=230),
    Message('note_off', channel=4, note=62, velocity=95, time=0),
    Message('note_off', channel=4, note=55, velocity=95, time=0),
    Message('note_off', channel=4, note=50, velocity=95, time=0),
    Message('note_off', channel=4, note=47, velocity=95, time=0),
    Message('note_off', channel=4, note=43, velocity=95, time=0),
    Message('note_on', channel=4, note=67, velocity=95, time=0),
    Message('note_on', channel=4, note=62, velocity=95, time=2),
    Message('note_on', channel=4, note=55, velocity=95, time=2),
    Message('note_on', channel=4, note=50, velocity=95, time=2),
    Message('note_on', channel=4, note=47, velocity=95, time=2),
    Message('note_on', channel=4, note=43, velocity=95, time=2),
    Message('note_off', channel=4, note=67, velocity=95, time=230),
    Message('note_off', channel=4, note=62, velocity=95, time=0),
    Message('note_off', channel=4, note=55, velocity=95, time=0),
    Message('note_off', channel=4, note=50, velocity=95, time=0),
    Message('note_off', channel=4, note=47, velocity=95, time=0),
    Message('note_off', channel=4, note=43, velocity=95, time=0),
    Message('note_on', channel=4, note=43, velocity=95, time=0),
    Message('note_on', channel=4, note=47, velocity=95, time=2),
    Message('note_on', channel=4, note=50, velocity=95, time=2),
    Message('note_on', channel=4, note=55, velocity=95, time=2),
    Message('note_on', channel=4, note=62, velocity=95, time=2),
    Message('note_on', channel=4, note=67, velocity=95, time=2),
    Message('note_off', channel=4, note=67, velocity=95, time=230),
    Message('note_off', channel=4, note=62, velocity=95, time=0),
    Message('note_off', channel=4, note=55, velocity=95, time=0),
    Message('note_off', channel=4, note=50, velocity=95, time=0),
    Message('note_off', channel=4, note=47, velocity=95, time=0),
    Message('note_off', channel=4, note=43, velocity=95, time=0),
    Message('note_on', channel=4, note=67, velocity=95, time=0),
    Message('note_on', channel=4, note=62, velocity=95, time=2),
    Message('note_on', channel=4, note=55, velocity=95, time=2),
    Message('note_on', channel=4, note=50, velocity=95, time=2),
    Message('note_on', channel=4, note=47, velocity=95, time=2),
    Message('note_on', channel=4, note=43, velocity=95, time=2),
    Message('note_off', channel=4, note=67, velocity=95, time=230),
    Message('note_off', channel=4, note=62, velocity=95, time=0),
    Message('note_off', channel=4, note=55, velocity=95, time=0),
    Message('note_off', channel=4, note=50, velocity=95, time=0),
    Message('note_off', channel=4, note=47, velocity=95, time=0),
    Message('note_off', channel=4, note=43, velocity=95, time=0),
    Message('note_on', channel=4, note=50, velocity=95, time=0),
    Message('note_on', channel=4, note=57, velocity=95, time=4),
    Message('note_on', channel=4, note=62, velocity=95, time=4),
    Message('note_on', channel=4, note=66, velocity=95, time=4),
    Message('note_off', channel=4, note=66, velocity=95, time=468),
    Message('note_off', channel=4, note=62, velocity=95, time=0),
    Message('note_off', channel=4, note=57, velocity=95, time=0),
    Message('note_off', channel=4, note=50, velocity=95, time=0),
    Message('note_on', channel=4, note=50, velocity=95, time=0),
    Message('note_on', channel=4, note=57, velocity=95, time=2),
    Message('note_on', channel=4, note=62, velocity=95, time=2),
    Message('note_on', channel=4, note=66, velocity=95, time=2),
    Message('note_off', channel=4, note=66, velocity=95, time=234),
    Message('note_off', channel=4, note=62, velocity=95, time=0),
    Message('note_off', channel=4, note=57, velocity=95, time=0),
    Message('note_off', channel=4, note=50, velocity=95, time=0),
    Message('note_on', channel=4, note=66, velocity=95, time=0),
    Message('note_on', channel=4, note=62, velocity=95, time=2),
    Message('note_on', channel=4, note=57, velocity=95, time=2),
    Message('note_on', channel=4, note=50, velocity=95, time=2),
    Message('note_off', channel=4, note=66, velocity=95, time=234),
    Message('note_off', channel=4, note=62, velocity=95, time=0),
    Message('note_off', channel=4, note=57, velocity=95, time=0),
    Message('note_off', channel=4, note=50, velocity=95, time=0),
    Message('note_on', channel=4, note=50, velocity=95, time=0),
    Message('note_on', channel=4, note=57, velocity=95, time=2),
    Message('note_on', channel=4, note=62, velocity=95, time=2),
    Message('note_on', channel=4, note=66, velocity=95, time=2),
    Message('note_off', channel=4, note=66, velocity=95, time=234),
    Message('note_off', channel=4, note=62, velocity=95, time=0),
    Message('note_off', channel=4, note=57, velocity=95, time=0),
    Message('note_off', channel=4, note=50, velocity=95, time=0),
    Message('note_on', channel=4, note=66, velocity=95, time=0),
    Message('note_on', channel=4, note=62, velocity=95, time=2),
    Message('note_on', channel=4, note=57, velocity=95, time=2),
    Message('note_on', channel=4, note=50, velocity=95, time=2),
    Message('note_off', channel=4, note=66, velocity=95, time=234),
    Message('note_off', channel=4, note=62, velocity=95, time=0),
    Message('note_off', channel=4, note=57, velocity=95, time=0),
    Message('note_off', channel=4, note=50, velocity=95, time=0),
    Message('note_on', channel=4, note=50, velocity=95, time=0),
    Message('note_on', channel=4, note=57, velocity=95, time=2),
    Message('note_on', channel=4, note=62, velocity=95, time=2),
    Message('note_on', channel=4, note=66, velocity=95, time=2),
    Message('note_off', channel=4, note=66, velocity=95, time=234),
    Message('note_off', channel=4, note=62, velocity=95, time=0),
    Message('note_off', channel=4, note=57, velocity=95, time=0),
    Message('note_off', channel=4, note=50, velocity=95, time=0),
    Message('note_on', channel=4, note=66, velocity=95, time=0),
    Message('note_on', channel=4, note=62, velocity=95, time=2),
    Message('note_on', channel=4, note=57, velocity=95, time=2),
    Message('note_on', channel=4, note=50, velocity=95, time=2),
    Message('note_off', channel=4, note=66, velocity=95, time=234),
    Message('note_off', channel=4, note=62, velocity=95, time=0),
    Message('note_off', channel=4, note=57, velocity=95, time=0),
    Message('note_off', channel=4, note=50, velocity=95, time=0),
    Message('note_on', channel=4, note=45, velocity=95, time=0),
    Message('note_on', channel=4, note=52, velocity=95, time=4),
    Message('note_on', channel=4, note=57, velocity=95, time=4),
    Message('note_on', channel=4, note=61, velocity=95, time=4),
    Message('note_on', channel=4, note=64, velocity=95, time=4),
    Message('note_off', channel=4, note=64, velocity=95, time=464),
    Message('note_off', channel=4, note=61, velocity=95, time=0),
    Message('note_off', channel=4, note=57, velocity=95, time=0),
    Message('note_off', channel=4, note=52, velocity=95, time=0),
    Message('note_off', channel=4, note=45, velocity=95, time=0),
    Message('note_on', channel=4, note=45, velocity=95, time=0),
    Message('note_on', channel=4, note=52, velocity=95, time=2),
    Message('note_on', channel=4, note=57, velocity=95, time=2),
    Message('note_on', channel=4, note=61, velocity=95, time=2),
    Message('note_on', channel=4, note=64, velocity=95, time=2),
    Message('note_off', channel=4, note=64, velocity=95, time=232),
    Message('note_off', channel=4, note=61, velocity=95, time=0),
    Message('note_off', channel=4, note=57, velocity=95, time=0),
    Message('note_off', channel=4, note=52, velocity=95, time=0),
    Message('note_off', channel=4, note=45, velocity=95, time=0),
    Message('note_on', channel=4, note=64, velocity=95, time=0),
    Message('note_on', channel=4, note=61, velocity=95, time=2),
    Message('note_on', channel=4, note=57, velocity=95, time=2),
    Message('note_on', channel=4, note=52, velocity=95, time=2),
    Message('note_on', channel=4, note=45, velocity=95, time=2),
    Message('note_off', channel=4, note=64, velocity=95, time=232),
    Message('note_off', channel=4, note=61, velocity=95, time=0),
    Message('note_off', channel=4, note=57, velocity=95, time=0),
    Message('note_off', channel=4, note=52, velocity=95, time=0),
    Message('note_off', channel=4, note=45, velocity=95, time=0),
    Message('note_on', channel=4, note=45, velocity=95, time=0),
    Message('note_on', channel=4, note=52, velocity=95, time=2),
    Message('note_on', channel=4, note=57, velocity=95, time=2),
    Message('note_on', channel=4, note=61, velocity=95, time=2),
    Message('note_on', channel=4, note=64, velocity=95, time=2),
    Message('note_off', channel=4, note=64, velocity=95, time=232),
    Message('note_off', channel=4, note=61, velocity=95, time=0),
    Message('note_off', channel=4, note=57, velocity=95, time=0),
    Message('note_off', channel=4, note=52, velocity=95, time=0),
    Message('note_off', channel=4, note=45, velocity=95, time=0),
    Message('note_on', channel=4, note=64, velocity=95, time=0),
    Message('note_on', channel=4, note=61, velocity=95, time=2),
    Message('note_on', channel=4, note=57, velocity=95, time=2),
    Message('note_on', channel=4, note=52, velocity=95, time=2),
    Message('note_on', channel=4, note=45, velocity=95, time=2),
    Message('note_off', channel=4, note=64, velocity=95, time=232),
    Message('note_off', channel=4, note=61, velocity=95, time=0),
    Message('note_off', channel=4, note=57, velocity=95, time=0),
    Message('note_off', channel=4, note=52, velocity=95, time=0),
    Message('note_off', channel=4, note=45, velocity=95, time=0),
    Message('note_on', channel=4, note=45, velocity=95, time=0),
    Message('note_on', channel=4, note=52, velocity=95, time=2),
    Message('note_on', channel=4, note=57, velocity=95, time=2),
    Message('note_on', channel=4, note=61, velocity=95, time=2),
    Message('note_on', channel=4, note=64, velocity=95, time=2),
    Message('note_off', channel=4, note=64, velocity=95, time=232),
    Message('note_off', channel=4, note=61, velocity=95, time=0),
    Message('note_off', channel=4, note=57, velocity=95, time=0),
    Message('note_off', channel=4, note=52, velocity=95, time=0),
    Message('note_off', channel=4, note=45, velocity=95, time=0),
    Message('note_on', channel=4, note=64, velocity=95, time=0),
    Message('note_on', channel=4, note=61, velocity=95, time=2),
    Message('note_on', channel=4, note=57, velocity=95, time=2),
    Message('note_on', channel=4, note=52, velocity=95, time=2),
    Message('note_on', channel=4, note=45, velocity=95, time=2),
    Message('note_off', channel=4, note=64, velocity=95, time=232),
    Message('note_off', channel=4, note=61, velocity=95, time=0),
    Message('note_off', channel=4, note=57, velocity=95, time=0),
    Message('note_off', channel=4, note=52, velocity=95, time=0),
    Message('note_off', channel=4, note=45, velocity=95, time=0),
    Message('note_on', channel=4, note=40, velocity=95, time=0),
    Message('note_on', channel=4, note=47, velocity=95, time=4),
    Message('note_on', channel=4, note=52, velocity=95, time=4),
    Message('note_on', channel=4, note=56, velocity=95, time=4),
    Message('note_on', channel=4, note=59, velocity=95, time=4),
    Message('note_on', channel=4, note=64, velocity=95, time=4),
    Message('note_off', channel=4, note=64, velocity=95, time=460),
    Message('note_off', channel=4, note=59, velocity=95, time=0),
    Message('note_off', channel=4, note=56, velocity=95, time=0),
    Message('note_off', channel=4, note=52, velocity=95, time=0),
    Message('note_off', channel=4, note=47, velocity=95, time=0),
    Message('note_off', channel=4, note=40, velocity=95, time=0),
    Message('note_on', channel=4, note=40, velocity=95, time=0),
    Message('note_on', channel=4, note=47, velocity=95, time=2),
    Message('note_on', channel=4, note=52, velocity=95, time=2),
    Message('note_on', channel=4, note=56, velocity=95, time=2),
    Message('note_on', channel=4, note=59, velocity=95, time=2),
    Message('note_on', channel=4, note=64, velocity=95, time=2),
    Message('note_off', channel=4, note=64, velocity=95, time=230),
    Message('note_off', channel=4, note=59, velocity=95, time=0),
    Message('note_off', channel=4, note=56, velocity=95, time=0),
    Message('note_off', channel=4, note=52, velocity=95, time=0),
    Message('note_off', channel=4, note=47, velocity=95, time=0),
    Message('note_off', channel=4, note=40, velocity=95, time=0),
    Message('note_on', channel=4, note=64, velocity=95, time=0),
    Message('note_on', channel=4, note=59, velocity=95, time=2),
    Message('note_on', channel=4, note=56, velocity=95, time=2),
    Message('note_on', channel=4, note=52, velocity=95, time=2),
    Message('note_on', channel=4, note=47, velocity=95, time=2),
    Message('note_on', channel=4, note=40, velocity=95, time=2),
    Message('note_off', channel=4, note=64, velocity=95, time=230),
    Message('note_off', channel=4, note=59, velocity=95, time=0),
    Message('note_off', channel=4, note=56, velocity=95, time=0),
    Message('note_off', channel=4, note=52, velocity=95, time=0),
    Message('note_off', channel=4, note=47, velocity=95, time=0),
    Message('note_off', channel=4, note=40, velocity=95, time=0),
    Message('note_on', channel=4, note=40, velocity=95, time=0),
    Message('note_on', channel=4, note=47, velocity=95, time=2),
    Message('note_on', channel=4, note=52, velocity=95, time=2),
    Message('note_on', channel=4, note=56, velocity=95, time=2),
    Message('note_on', channel=4, note=59, velocity=95, time=2),
    Message('note_on', channel=4, note=64, velocity=95, time=2),
    Message('note_off', channel=4, note=64, velocity=95, time=230),
    Message('note_off', channel=4, note=59, velocity=95, time=0),
    Message('note_off', channel=4, note=56, velocity=95, time=0),
    Message('note_off', channel=4, note=52, velocity=95, time=0),
    Message('note_off', channel=4, note=47, velocity=95, time=0),
    Message('note_off', channel=4, note=40, velocity=95, time=0),
    Message('note_on', channel=4, note=64, velocity=95, time=0),
    Message('note_on', channel=4, note=59, velocity=95, time=2),
    Message('note_on', channel=4, note=56, velocity=95, time=2),
    Message('note_on', channel=4, note=52, velocity=95, time=2),
    Message('note_on', channel=4, note=47, velocity=95, time=2),
    Message('note_on', channel=4, note=40, velocity=95, time=2),
    Message('note_off', channel=4, note=64, velocity=95, time=230),
    Message('note_off', channel=4, note=59, velocity=95, time=0),
    Message('note_off', channel=4, note=56, velocity=95, time=0),
    Message('note_off', channel=4, note=52, velocity=95, time=0),
    Message('note_off', channel=4, note=47, velocity=95, time=0),
    Message('note_off', channel=4, note=40, velocity=95, time=0),
    Message('note_on', channel=4, note=40, velocity=95, time=0),
    Message('note_on', channel=4, note=47, velocity=95, time=2),
    Message('note_on', channel=4, note=52, velocity=95, time=2),
    Message('note_on', channel=4, note=56, velocity=95, time=2),
    Message('note_on', channel=4, note=59, velocity=95, time=2),
    Message('note_on', channel=4, note=64, velocity=95, time=2),
    Message('note_off', channel=4, note=64, velocity=95, time=230),
    Message('note_off', channel=4, note=59, velocity=95, time=0),
    Message('note_off', channel=4, note=56, velocity=95, time=0),
    Message('note_off', channel=4, note=52, velocity=95, time=0),
    Message('note_off', channel=4, note=47, velocity=95, time=0),
    Message('note_off', channel=4, note=40, velocity=95, time=0),
    Message('note_on', channel=4, note=64, velocity=95, time=0),
    Message('note_on', channel=4, note=59, velocity=95, time=2),
    Message('note_on', channel=4, note=56, velocity=95, time=2),
    Message('note_on', channel=4, note=52, velocity=95, time=2),
    Message('note_on', channel=4, note=47, velocity=95, time=2),
    Message('note_on', channel=4, note=40, velocity=95, time=2),
    Message('note_off', channel=4, note=64, velocity=95, time=230),
    Message('note_off', channel=4, note=59, velocity=95, time=0),
    Message('note_off', channel=4, note=56, velocity=95, time=0),
    Message('note_off', channel=4, note=52, velocity=95, time=0),
    Message('note_off', channel=4, note=47, velocity=95, time=0),
    Message('note_off', channel=4, note=40, velocity=95, time=0),
    Message('note_on', channel=4, note=43, velocity=95, time=0),
    Message('note_on', channel=4, note=47, velocity=95, time=4),
    Message('note_on', channel=4, note=50, velocity=95, time=4),
    Message('note_on', channel=4, note=55, velocity=95, time=4),
    Message('note_on', channel=4, note=62, velocity=95, time=4),
    Message('note_on', channel=4, note=67, velocity=95, time=4),
    Message('note_off', channel=4, note=67, velocity=95, time=460),
    Message('note_off', channel=4, note=62, velocity=95, time=0),
    Message('note_off', channel=4, note=55, velocity=95, time=0),
    Message('note_off', channel=4, note=50, velocity=95, time=0),
    Message('note_off', channel=4, note=47, velocity=95, time=0),
    Message('note_off', channel=4, note=43, velocity=95, time=0),
    Message('note_on', channel=4, note=43, velocity=95, time=0),
    Message('note_on', channel=4, note=47, velocity=95, time=2),
    Message('note_on', channel=4, note=50, velocity=95, time=2),
    Message('note_on', channel=4, note=55, velocity=95, time=2),
    Message('note_on', channel=4, note=62, velocity=95, time=2),
    Message('note_on', channel=4, note=67, velocity=95, time=2),
    Message('note_off', channel=4, note=67, velocity=95, time=230),
    Message('note_off', channel=4, note=62, velocity=95, time=0),
    Message('note_off', channel=4, note=55, velocity=95, time=0),
    Message('note_off', channel=4, note=50, velocity=95, time=0),
    Message('note_off', channel=4, note=47, velocity=95, time=0),
    Message('note_off', channel=4, note=43, velocity=95, time=0),
    Message('note_on', channel=4, note=67, velocity=95, time=0),
    Message('note_on', channel=4, note=62, velocity=95, time=2),
    Message('note_on', channel=4, note=55, velocity=95, time=2),
    Message('note_on', channel=4, note=50, velocity=95, time=2),
    Message('note_on', channel=4, note=47, velocity=95, time=2),
    Message('note_on', channel=4, note=43, velocity=95, time=2),
    Message('note_off', channel=4, note=67, velocity=95, time=230),
    Message('note_off', channel=4, note=62, velocity=95, time=0),
    Message('note_off', channel=4, note=55, velocity=95, time=0),
    Message('note_off', channel=4, note=50, velocity=95, time=0),
    Message('note_off', channel=4, note=47, velocity=95, time=0),
    Message('note_off', channel=4, note=43, velocity=95, time=0),
    Message('note_on', channel=4, note=43, velocity=95, time=0),
    Message('note_on', channel=4, note=47, velocity=95, time=2),
    Message('note_on', channel=4, note=50, velocity=95, time=2),
    Message('note_on', channel=4, note=55, velocity=95, time=2),
    Message('note_on', channel=4, note=62, velocity=95, time=2),
    Message('note_on', channel=4, note=67, velocity=95, time=2),
    Message('note_off', channel=4, note=67, velocity=95, time=230),
    Message('note_off', channel=4, note=62, velocity=95, time=0),
    Message('note_off', channel=4, note=55, velocity=95, time=0),
    Message('note_off', channel=4, note=50, velocity=95, time=0),
    Message('note_off', channel=4, note=47, velocity=95, time=0),
    Message('note_off', channel=4, note=43, velocity=95, time=0),
    Message('note_on', channel=4, note=67, velocity=95, time=0),
    Message('note_on', channel=4, note=62, velocity=95, time=2),
    Message('note_on', channel=4, note=55, velocity=95, time=2),
    Message('note_on', channel=4, note=50, velocity=95, time=2),
    Message('note_on', channel=4, note=47, velocity=95, time=2),
    Message('note_on', channel=4, note=43, velocity=95, time=2),
    Message('note_off', channel=4, note=67, velocity=95, time=230),
    Message('note_off', channel=4, note=62, velocity=95, time=0),
    Message('note_off', channel=4, note=55, velocity=95, time=0),
    Message('note_off', channel=4, note=50, velocity=95, time=0),
    Message('note_off', channel=4, note=47, velocity=95, time=0),
    Message('note_off', channel=4, note=43, velocity=95, time=0),
    Message('note_on', channel=4, note=43, velocity=95, time=0),
    Message('note_on', channel=4, note=47, velocity=95, time=2),
    Message('note_on', channel=4, note=50, velocity=95, time=2),
    Message('note_on', channel=4, note=55, velocity=95, time=2),
    Message('note_on', channel=4, note=62, velocity=95, time=2),
    Message('note_on', channel=4, note=67, velocity=95, time=2),
    Message('note_off', channel=4, note=67, velocity=95, time=230),
    Message('note_off', channel=4, note=62, velocity=95, time=0),
    Message('note_off', channel=4, note=55, velocity=95, time=0),
    Message('note_off', channel=4, note=50, velocity=95, time=0),
    Message('note_off', channel=4, note=47, velocity=95, time=0),
    Message('note_off', channel=4, note=43, velocity=95, time=0),
    Message('note_on', channel=4, note=67, velocity=95, time=0),
    Message('note_on', channel=4, note=62, velocity=95, time=2),
    Message('note_on', channel=4, note=55, velocity=95, time=2),
    Message('note_on', channel=4, note=50, velocity=95, time=2),
    Message('note_on', channel=4, note=47, velocity=95, time=2),
    Message('note_on', channel=4, note=43, velocity=95, time=2),
    Message('note_off', channel=4, note=67, velocity=95, time=230),
    Message('note_off', channel=4, note=62, velocity=95, time=0),
    Message('note_off', channel=4, note=55, velocity=95, time=0),
    Message('note_off', channel=4, note=50, velocity=95, time=0),
    Message('note_off', channel=4, note=47, velocity=95, time=0),
    Message('note_off', channel=4, note=43, velocity=95, time=0),
    Message('note_on', channel=4, note=50, velocity=95, time=0),
    Message('note_on', channel=4, note=57, velocity=95, time=4),
    Message('note_on', channel=4, note=62, velocity=95, time=4),
    Message('note_on', channel=4, note=66, velocity=95, time=4),
    Message('note_off', channel=4, note=66, velocity=95, time=468),
    Message('note_off', channel=4, note=62, velocity=95, time=0),
    Message('note_off', channel=4, note=57, velocity=95, time=0),
    Message('note_off', channel=4, note=50, velocity=95, time=0),
    Message('note_on', channel=4, note=50, velocity=95, time=0),
    Message('note_on', channel=4, note=57, velocity=95, time=2),
    Message('note_on', channel=4, note=62, velocity=95, time=2),
    Message('note_on', channel=4, note=66, velocity=95, time=2),
    Message('note_off', channel=4, note=66, velocity=95, time=234),
    Message('note_off', channel=4, note=62, velocity=95, time=0),
    Message('note_off', channel=4, note=57, velocity=95, time=0),
    Message('note_off', channel=4, note=50, velocity=95, time=0),
    Message('note_on', channel=4, note=66, velocity=95, time=0),
    Message('note_on', channel=4, note=62, velocity=95, time=2),
    Message('note_on', channel=4, note=57, velocity=95, time=2),
    Message('note_on', channel=4, note=50, velocity=95, time=2),
    Message('note_off', channel=4, note=66, velocity=95, time=234),
    Message('note_off', channel=4, note=62, velocity=95, time=0),
    Message('note_off', channel=4, note=57, velocity=95, time=0),
    Message('note_off', channel=4, note=50, velocity=95, time=0),
    Message('note_on', channel=4, note=50, velocity=95, time=0),
    Message('note_on', channel=4, note=57, velocity=95, time=2),
    Message('note_on', channel=4, note=62, velocity=95, time=2),
    Message('note_on', channel=4, note=66, velocity=95, time=2),
    Message('note_off', channel=4, note=66, velocity=95, time=234),
    Message('note_off', channel=4, note=62, velocity=95, time=0),
    Message('note_off', channel=4, note=57, velocity=95, time=0),
    Message('note_off', channel=4, note=50, velocity=95, time=0),
    Message('note_on', channel=4, note=66, velocity=95, time=0),
    Message('note_on', channel=4, note=62, velocity=95, time=2),
    Message('note_on', channel=4, note=57, velocity=95, time=2),
    Message('note_on', channel=4, note=50, velocity=95, time=2),
    Message('note_off', channel=4, note=66, velocity=95, time=234),
    Message('note_off', channel=4, note=62, velocity=95, time=0),
    Message('note_off', channel=4, note=57, velocity=95, time=0),
    Message('note_off', channel=4, note=50, velocity=95, time=0),
    Message('note_on', channel=4, note=50, velocity=95, time=0),
    Message('note_on', channel=4, note=57, velocity=95, time=2),
    Message('note_on', channel=4, note=62, velocity=95, time=2),
    Message('note_on', channel=4, note=66, velocity=95, time=2),
    Message('note_off', channel=4, note=66, velocity=95, time=234),
    Message('note_off', channel=4, note=62, velocity=95, time=0),
    Message('note_off', channel=4, note=57, velocity=95, time=0),
    Message('note_off', channel=4, note=50, velocity=95, time=0),
    Message('note_on', channel=4, note=66, velocity=95, time=0),
    Message('note_on', channel=4, note=62, velocity=95, time=2),
    Message('note_on', channel=4, note=57, velocity=95, time=2),
    Message('note_on', channel=4, note=50, velocity=95, time=2),
    Message('note_off', channel=4, note=66, velocity=95, time=234),
    Message('note_off', channel=4, note=62, velocity=95, time=0),
    Message('note_off', channel=4, note=57, velocity=95, time=0),
    Message('note_off', channel=4, note=50, velocity=95, time=0),
    Message('note_on', channel=4, note=45, velocity=95, time=0),
    Message('note_on', channel=4, note=52, velocity=95, time=4),
    Message('note_on', channel=4, note=57, velocity=95, time=4),
    Message('note_on', channel=4, note=61, velocity=95, time=4),
    Message('note_on', channel=4, note=64, velocity=95, time=4),
    Message('note_off', channel=4, note=64, velocity=95, time=464),
    Message('note_off', channel=4, note=61, velocity=95, time=0),
    Message('note_off', channel=4, note=57, velocity=95, time=0),
    Message('note_off', channel=4, note=52, velocity=95, time=0),
    Message('note_off', channel=4, note=45, velocity=95, time=0),
    Message('note_on', channel=4, note=45, velocity=95, time=0),
    Message('note_on', channel=4, note=52, velocity=95, time=2),
    Message('note_on', channel=4, note=57, velocity=95, time=2),
    Message('note_on', channel=4, note=61, velocity=95, time=2),
    Message('note_on', channel=4, note=64, velocity=95, time=2),
    Message('note_off', channel=4, note=64, velocity=95, time=232),
    Message('note_off', channel=4, note=61, velocity=95, time=0),
    Message('note_off', channel=4, note=57, velocity=95, time=0),
    Message('note_off', channel=4, note=52, velocity=95, time=0),
    Message('note_off', channel=4, note=45, velocity=95, time=0),
    Message('note_on', channel=4, note=64, velocity=95, time=0),
    Message('note_on', channel=4, note=61, velocity=95, time=2),
    Message('note_on', channel=4, note=57, velocity=95, time=2),
    Message('note_on', channel=4, note=52, velocity=95, time=2),
    Message('note_on', channel=4, note=45, velocity=95, time=2),
    Message('note_off', channel=4, note=64, velocity=95, time=232),
    Message('note_off', channel=4, note=61, velocity=95, time=0),
    Message('note_off', channel=4, note=57, velocity=95, time=0),
    Message('note_off', channel=4, note=52, velocity=95, time=0),
    Message('note_off', channel=4, note=45, velocity=95, time=0),
    Message('note_on', channel=4, note=45, velocity=95, time=0),
    Message('note_on', channel=4, note=52, velocity=95, time=2),
    Message('note_on', channel=4, note=57, velocity=95, time=2),
    Message('note_on', channel=4, note=61, velocity=95, time=2),
    Message('note_on', channel=4, note=64, velocity=95, time=2),
    Message('note_off', channel=4, note=64, velocity=95, time=232),
    Message('note_off', channel=4, note=61, velocity=95, time=0),
    Message('note_off', channel=4, note=57, velocity=95, time=0),
    Message('note_off', channel=4, note=52, velocity=95, time=0),
    Message('note_off', channel=4, note=45, velocity=95, time=0),
    Message('note_on', channel=4, note=64, velocity=95, time=0),
    Message('note_on', channel=4, note=61, velocity=95, time=2),
    Message('note_on', channel=4, note=57, velocity=95, time=2),
    Message('note_on', channel=4, note=52, velocity=95, time=2),
    Message('note_on', channel=4, note=45, velocity=95, time=2),
    Message('note_off', channel=4, note=64, velocity=95, time=232),
    Message('note_off', channel=4, note=61, velocity=95, time=0),
    Message('note_off', channel=4, note=57, velocity=95, time=0),
    Message('note_off', channel=4, note=52, velocity=95, time=0),
    Message('note_off', channel=4, note=45, velocity=95, time=0),
    Message('note_on', channel=4, note=45, velocity=95, time=0),
    Message('note_on', channel=4, note=52, velocity=95, time=2),
    Message('note_on', channel=4, note=57, velocity=95, time=2),
    Message('note_on', channel=4, note=61, velocity=95, time=2),
    Message('note_on', channel=4, note=64, velocity=95, time=2),
    Message('note_off', channel=4, note=64, velocity=95, time=232),
    Message('note_off', channel=4, note=61, velocity=95, time=0),
    Message('note_off', channel=4, note=57, velocity=95, time=0),
    Message('note_off', channel=4, note=52, velocity=95, time=0),
    Message('note_off', channel=4, note=45, velocity=95, time=0),
    Message('note_on', channel=4, note=64, velocity=95, time=0),
    Message('note_on', channel=4, note=61, velocity=95, time=2),
    Message('note_on', channel=4, note=57, velocity=95, time=2),
    Message('note_on', channel=4, note=52, velocity=95, time=2),
    Message('note_on', channel=4, note=45, velocity=95, time=2),
    Message('note_off', channel=4, note=64, velocity=95, time=232),
    Message('note_off', channel=4, note=61, velocity=95, time=0),
    Message('note_off', channel=4, note=57, velocity=95, time=0),
    Message('note_off', channel=4, note=52, velocity=95, time=0),
    Message('note_off', channel=4, note=45, velocity=95, time=0),
    Message('note_on', channel=4, note=40, velocity=95, time=0),
    Message('note_on', channel=4, note=47, velocity=95, time=4),
    Message('note_on', channel=4, note=52, velocity=95, time=4),
    Message('note_on', channel=4, note=56, velocity=95, time=4),
    Message('note_on', channel=4, note=59, velocity=95, time=4),
    Message('note_on', channel=4, note=64, velocity=95, time=4),
    Message('note_off', channel=4, note=64, velocity=95, time=460),
    Message('note_off', channel=4, note=59, velocity=95, time=0),
    Message('note_off', channel=4, note=56, velocity=95, time=0),
    Message('note_off', channel=4, note=52, velocity=95, time=0),
    Message('note_off', channel=4, note=47, velocity=95, time=0),
    Message('note_off', channel=4, note=40, velocity=95, time=0),
    Message('note_on', channel=4, note=40, velocity=95, time=0),
    Message('note_on', channel=4, note=47, velocity=95, time=2),
    Message('note_on', channel=4, note=52, velocity=95, time=2),
    Message('note_on', channel=4, note=56, velocity=95, time=2),
    Message('note_on', channel=4, note=59, velocity=95, time=2),
    Message('note_on', channel=4, note=64, velocity=95, time=2),
    Message('note_off', channel=4, note=64, velocity=95, time=230),
    Message('note_off', channel=4, note=59, velocity=95, time=0),
    Message('note_off', channel=4, note=56, velocity=95, time=0),
    Message('note_off', channel=4, note=52, velocity=95, time=0),
    Message('note_off', channel=4, note=47, velocity=95, time=0),
    Message('note_off', channel=4, note=40, velocity=95, time=0),
    Message('note_on', channel=4, note=64, velocity=95, time=0),
    Message('note_on', channel=4, note=59, velocity=95, time=2),
    Message('note_on', channel=4, note=56, velocity=95, time=2),
    Message('note_on', channel=4, note=52, velocity=95, time=2),
    Message('note_on', channel=4, note=47, velocity=95, time=2),
    Message('note_on', channel=4, note=40, velocity=95, time=2),
    Message('note_off', channel=4, note=64, velocity=95, time=230),
    Message('note_off', channel=4, note=59, velocity=95, time=0),
    Message('note_off', channel=4, note=56, velocity=95, time=0),
    Message('note_off', channel=4, note=52, velocity=95, time=0),
    Message('note_off', channel=4, note=47, velocity=95, time=0),
    Message('note_off', channel=4, note=40, velocity=95, time=0),
    Message('note_on', channel=4, note=40, velocity=95, time=0),
    Message('note_on', channel=4, note=47, velocity=95, time=2),
    Message('note_on', channel=4, note=52, velocity=95, time=2),
    Message('note_on', channel=4, note=56, velocity=95, time=2),
    Message('note_on', channel=4, note=59, velocity=95, time=2),
    Message('note_on', channel=4, note=64, velocity=95, time=2),
    Message('note_off', channel=4, note=64, velocity=95, time=230),
    Message('note_off', channel=4, note=59, velocity=95, time=0),
    Message('note_off', channel=4, note=56, velocity=95, time=0),
    Message('note_off', channel=4, note=52, velocity=95, time=0),
    Message('note_off', channel=4, note=47, velocity=95, time=0),
    Message('note_off', channel=4, note=40, velocity=95, time=0),
    Message('note_on', channel=4, note=64, velocity=95, time=0),
    Message('note_on', channel=4, note=59, velocity=95, time=2),
    Message('note_on', channel=4, note=56, velocity=95, time=2),
    Message('note_on', channel=4, note=52, velocity=95, time=2),
    Message('note_on', channel=4, note=47, velocity=95, time=2),
    Message('note_on', channel=4, note=40, velocity=95, time=2),
    Message('note_off', channel=4, note=64, velocity=95, time=230),
    Message('note_off', channel=4, note=59, velocity=95, time=0),
    Message('note_off', channel=4, note=56, velocity=95, time=0),
    Message('note_off', channel=4, note=52, velocity=95, time=0),
    Message('note_off', channel=4, note=47, velocity=95, time=0),
    Message('note_off', channel=4, note=40, velocity=95, time=0),
    Message('note_on', channel=4, note=40, velocity=95, time=0),
    Message('note_on', channel=4, note=47, velocity=95, time=2),
    Message('note_on', channel=4, note=52, velocity=95, time=2),
    Message('note_on', channel=4, note=56, velocity=95, time=2),
    Message('note_on', channel=4, note=59, velocity=95, time=2),
    Message('note_on', channel=4, note=64, velocity=95, time=2),
    Message('note_off', channel=4, note=64, velocity=95, time=230),
    Message('note_off', channel=4, note=59, velocity=95, time=0),
    Message('note_off', channel=4, note=56, velocity=95, time=0),
    Message('note_off', channel=4, note=52, velocity=95, time=0),
    Message('note_off', channel=4, note=47, velocity=95, time=0),
    Message('note_off', channel=4, note=40, velocity=95, time=0),
    Message('note_on', channel=4, note=64, velocity=95, time=0),
    Message('note_on', channel=4, note=59, velocity=95, time=2),
    Message('note_on', channel=4, note=56, velocity=95, time=2),
    Message('note_on', channel=4, note=52, velocity=95, time=2),
    Message('note_on', channel=4, note=47, velocity=95, time=2),
    Message('note_on', channel=4, note=40, velocity=95, time=2),
    Message('note_off', channel=4, note=64, velocity=95, time=230),
    Message('note_off', channel=4, note=59, velocity=95, time=0),
    Message('note_off', channel=4, note=56, velocity=95, time=0),
    Message('note_off', channel=4, note=52, velocity=95, time=0),
    Message('note_off', channel=4, note=47, velocity=95, time=0),
    Message('note_off', channel=4, note=40, velocity=95, time=0),
    Message('note_on', channel=4, note=43, velocity=95, time=0),
    Message('note_on', channel=4, note=47, velocity=95, time=4),
    Message('note_on', channel=4, note=50, velocity=95, time=4),
    Message('note_on', channel=4, note=55, velocity=95, time=4),
    Message('note_on', channel=4, note=62, velocity=95, time=4),
    Message('note_on', channel=4, note=67, velocity=95, time=4),
    Message('note_off', channel=4, note=67, velocity=95, time=460),
    Message('note_off', channel=4, note=62, velocity=95, time=0),
    Message('note_off', channel=4, note=55, velocity=95, time=0),
    Message('note_off', channel=4, note=50, velocity=95, time=0),
    Message('note_off', channel=4, note=47, velocity=95, time=0),
    Message('note_off', channel=4, note=43, velocity=95, time=0),
    Message('note_on', channel=4, note=43, velocity=95, time=0),
    Message('note_on', channel=4, note=47, velocity=95, time=2),
    Message('note_on', channel=4, note=50, velocity=95, time=2),
    Message('note_on', channel=4, note=55, velocity=95, time=2),
    Message('note_on', channel=4, note=62, velocity=95, time=2),
    Message('note_on', channel=4, note=67, velocity=95, time=2),
    Message('note_off', channel=4, note=67, velocity=95, time=230),
    Message('note_off', channel=4, note=62, velocity=95, time=0),
    Message('note_off', channel=4, note=55, velocity=95, time=0),
    Message('note_off', channel=4, note=50, velocity=95, time=0),
    Message('note_off', channel=4, note=47, velocity=95, time=0),
    Message('note_off', channel=4, note=43, velocity=95, time=0),
    Message('note_on', channel=4, note=67, velocity=95, time=0),
    Message('note_on', channel=4, note=62, velocity=95, time=2),
    Message('note_on', channel=4, note=55, velocity=95, time=2),
    Message('note_on', channel=4, note=50, velocity=95, time=2),
    Message('note_on', channel=4, note=47, velocity=95, time=2),
    Message('note_on', channel=4, note=43, velocity=95, time=2),
    Message('note_off', channel=4, note=67, velocity=95, time=230),
    Message('note_off', channel=4, note=62, velocity=95, time=0),
    Message('note_off', channel=4, note=55, velocity=95, time=0),
    Message('note_off', channel=4, note=50, velocity=95, time=0),
    Message('note_off', channel=4, note=47, velocity=95, time=0),
    Message('note_off', channel=4, note=43, velocity=95, time=0),
    Message('note_on', channel=4, note=43, velocity=95, time=0),
    Message('note_on', channel=4, note=47, velocity=95, time=2),
    Message('note_on', channel=4, note=50, velocity=95, time=2),
    Message('note_on', channel=4, note=55, velocity=95, time=2),
    Message('note_on', channel=4, note=62, velocity=95, time=2),
    Message('note_on', channel=4, note=67, velocity=95, time=2),
    Message('note_off', channel=4, note=67, velocity=95, time=230),
    Message('note_off', channel=4, note=62, velocity=95, time=0),
    Message('note_off', channel=4, note=55, velocity=95, time=0),
    Message('note_off', channel=4, note=50, velocity=95, time=0),
    Message('note_off', channel=4, note=47, velocity=95, time=0),
    Message('note_off', channel=4, note=43, velocity=95, time=0),
    Message('note_on', channel=4, note=67, velocity=95, time=0),
    Message('note_on', channel=4, note=62, velocity=95, time=2),
    Message('note_on', channel=4, note=55, velocity=95, time=2),
    Message('note_on', channel=4, note=50, velocity=95, time=2),
    Message('note_on', channel=4, note=47, velocity=95, time=2),
    Message('note_on', channel=4, note=43, velocity=95, time=2),
    Message('note_off', channel=4, note=67, velocity=95, time=230),
    Message('note_off', channel=4, note=62, velocity=95, time=0),
    Message('note_off', channel=4, note=55, velocity=95, time=0),
    Message('note_off', channel=4, note=50, velocity=95, time=0),
    Message('note_off', channel=4, note=47, velocity=95, time=0),
    Message('note_off', channel=4, note=43, velocity=95, time=0),
    Message('note_on', channel=4, note=43, velocity=95, time=0),
    Message('note_on', channel=4, note=47, velocity=95, time=2),
    Message('note_on', channel=4, note=50, velocity=95, time=2),
    Message('note_on', channel=4, note=55, velocity=95, time=2),
    Message('note_on', channel=4, note=62, velocity=95, time=2),
    Message('note_on', channel=4, note=67, velocity=95, time=2),
    Message('note_off', channel=4, note=67, velocity=95, time=230),
    Message('note_off', channel=4, note=62, velocity=95, time=0),
    Message('note_off', channel=4, note=55, velocity=95, time=0),
    Message('note_off', channel=4, note=50, velocity=95, time=0),
    Message('note_off', channel=4, note=47, velocity=95, time=0),
    Message('note_off', channel=4, note=43, velocity=95, time=0),
    Message('note_on', channel=4, note=67, velocity=95, time=0),
    Message('note_on', channel=4, note=62, velocity=95, time=2),
    Message('note_on', channel=4, note=55, velocity=95, time=2),
    Message('note_on', channel=4, note=50, velocity=95, time=2),
    Message('note_on', channel=4, note=47, velocity=95, time=2),
    Message('note_on', channel=4, note=43, velocity=95, time=2),
    Message('note_off', channel=4, note=67, velocity=95, time=230),
    Message('note_off', channel=4, note=62, velocity=95, time=0),
    Message('note_off', channel=4, note=55, velocity=95, time=0),
    Message('note_off', channel=4, note=50, velocity=95, time=0),
    Message('note_off', channel=4, note=47, velocity=95, time=0),
    Message('note_off', channel=4, note=43, velocity=95, time=0),
    Message('note_on', channel=4, note=50, velocity=95, time=0),
    Message('note_on', channel=4, note=57, velocity=95, time=4),
    Message('note_on', channel=4, note=62, velocity=95, time=4),
    Message('note_on', channel=4, note=66, velocity=95, time=4),
    Message('note_off', channel=4, note=66, velocity=95, time=468),
    Message('note_off', channel=4, note=62, velocity=95, time=0),
    Message('note_off', channel=4, note=57, velocity=95, time=0),
    Message('note_off', channel=4, note=50, velocity=95, time=0),
    Message('note_on', channel=4, note=50, velocity=95, time=0),
    Message('note_on', channel=4, note=57, velocity=95, time=2),
    Message('note_on', channel=4, note=62, velocity=95, time=2),
    Message('note_on', channel=4, note=66, velocity=95, time=2),
    Message('note_off', channel=4, note=66, velocity=95, time=234),
    Message('note_off', channel=4, note=62, velocity=95, time=0),
    Message('note_off', channel=4, note=57, velocity=95, time=0),
    Message('note_off', channel=4, note=50, velocity=95, time=0),
    Message('note_on', channel=4, note=66, velocity=95, time=0),
    Message('note_on', channel=4, note=62, velocity=95, time=2),
    Message('note_on', channel=4, note=57, velocity=95, time=2),
    Message('note_on', channel=4, note=50, velocity=95, time=2),
    Message('note_off', channel=4, note=66, velocity=95, time=234),
    Message('note_off', channel=4, note=62, velocity=95, time=0),
    Message('note_off', channel=4, note=57, velocity=95, time=0),
    Message('note_off', channel=4, note=50, velocity=95, time=0),
    Message('note_on', channel=4, note=50, velocity=95, time=0),
    Message('note_on', channel=4, note=57, velocity=95, time=2),
    Message('note_on', channel=4, note=62, velocity=95, time=2),
    Message('note_on', channel=4, note=66, velocity=95, time=2),
    Message('note_off', channel=4, note=66, velocity=95, time=234),
    Message('note_off', channel=4, note=62, velocity=95, time=0),
    Message('note_off', channel=4, note=57, velocity=95, time=0),
    Message('note_off', channel=4, note=50, velocity=95, time=0),
    Message('note_on', channel=4, note=66, velocity=95, time=0),
    Message('note_on', channel=4, note=62, velocity=95, time=2),
    Message('note_on', channel=4, note=57, velocity=95, time=2),
    Message('note_on', channel=4, note=50, velocity=95, time=2),
    Message('note_off', channel=4, note=66, velocity=95, time=234),
    Message('note_off', channel=4, note=62, velocity=95, time=0),
    Message('note_off', channel=4, note=57, velocity=95, time=0),
    Message('note_off', channel=4, note=50, velocity=95, time=0),
    Message('note_on', channel=4, note=50, velocity=95, time=0),
    Message('note_on', channel=4, note=57, velocity=95, time=2),
    Message('note_on', channel=4, note=62, velocity=95, time=2),
    Message('note_on', channel=4, note=66, velocity=95, time=2),
    Message('note_off', channel=4, note=66, velocity=95, time=234),
    Message('note_off', channel=4, note=62, velocity=95, time=0),
    Message('note_off', channel=4, note=57, velocity=95, time=0),
    Message('note_off', channel=4, note=50, velocity=95, time=0),
    Message('note_on', channel=4, note=66, velocity=95, time=0),
    Message('note_on', channel=4, note=62, velocity=95, time=2),
    Message('note_on', channel=4, note=57, velocity=95, time=2),
    Message('note_on', channel=4, note=50, velocity=95, time=2),
    Message('note_off', channel=4, note=66, velocity=95, time=234),
    Message('note_off', channel=4, note=62, velocity=95, time=0),
    Message('note_off', channel=4, note=57, velocity=95, time=0),
    Message('note_off', channel=4, note=50, velocity=95, time=0),
    Message('note_on', channel=4, note=45, velocity=95, time=0),
    Message('note_on', channel=4, note=52, velocity=95, time=4),
    Message('note_on', channel=4, note=57, velocity=95, time=4),
    Message('note_on', channel=4, note=61, velocity=95, time=4),
    Message('note_on', channel=4, note=64, velocity=95, time=4),
    Message('note_off', channel=4, note=64, velocity=95, time=464),
    Message('note_off', channel=4, note=61, velocity=95, time=0),
    Message('note_off', channel=4, note=57, velocity=95, time=0),
    Message('note_off', channel=4, note=52, velocity=95, time=0),
    Message('note_off', channel=4, note=45, velocity=95, time=0),
    Message('note_on', channel=4, note=45, velocity=95, time=0),
    Message('note_on', channel=4, note=52, velocity=95, time=2),
    Message('note_on', channel=4, note=57, velocity=95, time=2),
    Message('note_on', channel=4, note=61, velocity=95, time=2),
    Message('note_on', channel=4, note=64, velocity=95, time=2),
    Message('note_off', channel=4, note=64, velocity=95, time=232),
    Message('note_off', channel=4, note=61, velocity=95, time=0),
    Message('note_off', channel=4, note=57, velocity=95, time=0),
    Message('note_off', channel=4, note=52, velocity=95, time=0),
    Message('note_off', channel=4, note=45, velocity=95, time=0),
    Message('note_on', channel=4, note=64, velocity=95, time=0),
    Message('note_on', channel=4, note=61, velocity=95, time=2),
    Message('note_on', channel=4, note=57, velocity=95, time=2),
    Message('note_on', channel=4, note=52, velocity=95, time=2),
    Message('note_on', channel=4, note=45, velocity=95, time=2),
    Message('note_off', channel=4, note=64, velocity=95, time=232),
    Message('note_off', channel=4, note=61, velocity=95, time=0),
    Message('note_off', channel=4, note=57, velocity=95, time=0),
    Message('note_off', channel=4, note=52, velocity=95, time=0),
    Message('note_off', channel=4, note=45, velocity=95, time=0),
    Message('note_on', channel=4, note=45, velocity=95, time=0),
    Message('note_on', channel=4, note=52, velocity=95, time=2),
    Message('note_on', channel=4, note=57, velocity=95, time=2),
    Message('note_on', channel=4, note=61, velocity=95, time=2),
    Message('note_on', channel=4, note=64, velocity=95, time=2),
    Message('note_off', channel=4, note=64, velocity=95, time=232),
    Message('note_off', channel=4, note=61, velocity=95, time=0),
    Message('note_off', channel=4, note=57, velocity=95, time=0),
    Message('note_off', channel=4, note=52, velocity=95, time=0),
    Message('note_off', channel=4, note=45, velocity=95, time=0),
    Message('note_on', channel=4, note=64, velocity=95, time=0),
    Message('note_on', channel=4, note=61, velocity=95, time=2),
    Message('note_on', channel=4, note=57, velocity=95, time=2),
    Message('note_on', channel=4, note=52, velocity=95, time=2),
    Message('note_on', channel=4, note=45, velocity=95, time=2),
    Message('note_off', channel=4, note=64, velocity=95, time=232),
    Message('note_off', channel=4, note=61, velocity=95, time=0),
    Message('note_off', channel=4, note=57, velocity=95, time=0),
    Message('note_off', channel=4, note=52, velocity=95, time=0),
    Message('note_off', channel=4, note=45, velocity=95, time=0),
    Message('note_on', channel=4, note=45, velocity=95, time=0),
    Message('note_on', channel=4, note=52, velocity=95, time=2),
    Message('note_on', channel=4, note=57, velocity=95, time=2),
    Message('note_on', channel=4, note=61, velocity=95, time=2),
    Message('note_on', channel=4, note=64, velocity=95, time=2),
    Message('note_off', channel=4, note=64, velocity=95, time=232),
    Message('note_off', channel=4, note=61, velocity=95, time=0),
    Message('note_off', channel=4, note=57, velocity=95, time=0),
    Message('note_off', channel=4, note=52, velocity=95, time=0),
    Message('note_off', channel=4, note=45, velocity=95, time=0),
    Message('note_on', channel=4, note=64, velocity=95, time=0),
    Message('note_on', channel=4, note=61, velocity=95, time=2),
    Message('note_on', channel=4, note=57, velocity=95, time=2),
    Message('note_on', channel=4, note=52, velocity=95, time=2),
    Message('note_on', channel=4, note=45, velocity=95, time=2),
    Message('note_off', channel=4, note=64, velocity=95, time=232),
    Message('note_off', channel=4, note=61, velocity=95, time=0),
    Message('note_off', channel=4, note=57, velocity=95, time=0),
    Message('note_off', channel=4, note=52, velocity=95, time=0),
    Message('note_off', channel=4, note=45, velocity=95, time=0),
    Message('note_on', channel=4, note=40, velocity=95, time=0),
    Message('note_on', channel=4, note=47, velocity=95, time=4),
    Message('note_on', channel=4, note=52, velocity=95, time=4),
    Message('note_on', channel=4, note=56, velocity=95, time=4),
    Message('note_on', channel=4, note=59, velocity=95, time=4),
    Message('note_on', channel=4, note=64, velocity=95, time=4),
    Message('note_off', channel=4, note=64, velocity=95, time=460),
    Message('note_off', channel=4, note=59, velocity=95, time=0),
    Message('note_off', channel=4, note=56, velocity=95, time=0),
    Message('note_off', channel=4, note=52, velocity=95, time=0),
    Message('note_off', channel=4, note=47, velocity=95, time=0),
    Message('note_off', channel=4, note=40, velocity=95, time=0),
    Message('note_on', channel=4, note=40, velocity=95, time=0),
    Message('note_on', channel=4, note=47, velocity=95, time=2),
    Message('note_on', channel=4, note=52, velocity=95, time=2),
    Message('note_on', channel=4, note=56, velocity=95, time=2),
    Message('note_on', channel=4, note=59, velocity=95, time=2),
    Message('note_on', channel=4, note=64, velocity=95, time=2),
    Message('note_off', channel=4, note=64, velocity=95, time=230),
    Message('note_off', channel=4, note=59, velocity=95, time=0),
    Message('note_off', channel=4, note=56, velocity=95, time=0),
    Message('note_off', channel=4, note=52, velocity=95, time=0),
    Message('note_off', channel=4, note=47, velocity=95, time=0),
    Message('note_off', channel=4, note=40, velocity=95, time=0),
    Message('note_on', channel=4, note=64, velocity=95, time=0),
    Message('note_on', channel=4, note=59, velocity=95, time=2),
    Message('note_on', channel=4, note=56, velocity=95, time=2),
    Message('note_on', channel=4, note=52, velocity=95, time=2),
    Message('note_on', channel=4, note=47, velocity=95, time=2),
    Message('note_on', channel=4, note=40, velocity=95, time=2),
    Message('note_off', channel=4, note=64, velocity=95, time=230),
    Message('note_off', channel=4, note=59, velocity=95, time=0),
    Message('note_off', channel=4, note=56, velocity=95, time=0),
    Message('note_off', channel=4, note=52, velocity=95, time=0),
    Message('note_off', channel=4, note=47, velocity=95, time=0),
    Message('note_off', channel=4, note=40, velocity=95, time=0),
    Message('note_on', channel=4, note=40, velocity=95, time=0),
    Message('note_on', channel=4, note=47, velocity=95, time=2),
    Message('note_on', channel=4, note=52, velocity=95, time=2),
    Message('note_on', channel=4, note=56, velocity=95, time=2),
    Message('note_on', channel=4, note=59, velocity=95, time=2),
    Message('note_on', channel=4, note=64, velocity=95, time=2),
    Message('note_off', channel=4, note=64, velocity=95, time=230),
    Message('note_off', channel=4, note=59, velocity=95, time=0),
    Message('note_off', channel=4, note=56, velocity=95, time=0),
    Message('note_off', channel=4, note=52, velocity=95, time=0),
    Message('note_off', channel=4, note=47, velocity=95, time=0),
    Message('note_off', channel=4, note=40, velocity=95, time=0),
    Message('note_on', channel=4, note=64, velocity=95, time=0),
    Message('note_on', channel=4, note=59, velocity=95, time=2),
    Message('note_on', channel=4, note=56, velocity=95, time=2),
    Message('note_on', channel=4, note=52, velocity=95, time=2),
    Message('note_on', channel=4, note=47, velocity=95, time=2),
    Message('note_on', channel=4, note=40, velocity=95, time=2),
    Message('note_off', channel=4, note=64, velocity=95, time=230),
    Message('note_off', channel=4, note=59, velocity=95, time=0),
    Message('note_off', channel=4, note=56, velocity=95, time=0),
    Message('note_off', channel=4, note=52, velocity=95, time=0),
    Message('note_off', channel=4, note=47, velocity=95, time=0),
    Message('note_off', channel=4, note=40, velocity=95, time=0),
    Message('note_on', channel=4, note=40, velocity=95, time=0),
    Message('note_on', channel=4, note=47, velocity=95, time=2),
    Message('note_on', channel=4, note=52, velocity=95, time=2),
    Message('note_on', channel=4, note=56, velocity=95, time=2),
    Message('note_on', channel=4, note=59, velocity=95, time=2),
    Message('note_on', channel=4, note=64, velocity=95, time=2),
    Message('note_off', channel=4, note=64, velocity=95, time=230),
    Message('note_off', channel=4, note=59, velocity=95, time=0),
    Message('note_off', channel=4, note=56, velocity=95, time=0),
    Message('note_off', channel=4, note=52, velocity=95, time=0),
    Message('note_off', channel=4, note=47, velocity=95, time=0),
    Message('note_off', channel=4, note=40, velocity=95, time=0),
    Message('note_on', channel=4, note=64, velocity=95, time=0),
    Message('note_on', channel=4, note=59, velocity=95, time=2),
    Message('note_on', channel=4, note=56, velocity=95, time=2),
    Message('note_on', channel=4, note=52, velocity=95, time=2),
    Message('note_on', channel=4, note=47, velocity=95, time=2),
    Message('note_on', channel=4, note=40, velocity=95, time=2),
    Message('note_off', channel=4, note=64, velocity=95, time=230),
    Message('note_off', channel=4, note=59, velocity=95, time=0),
    Message('note_off', channel=4, note=56, velocity=95, time=0),
    Message('note_off', channel=4, note=52, velocity=95, time=0),
    Message('note_off', channel=4, note=47, velocity=95, time=0),
    Message('note_off', channel=4, note=40, velocity=95, time=0),
    Message('note_on', channel=4, note=43, velocity=95, time=0),
    Message('note_on', channel=4, note=47, velocity=95, time=4),
    Message('note_on', channel=4, note=50, velocity=95, time=4),
    Message('note_on', channel=4, note=55, velocity=95, time=4),
    Message('note_on', channel=4, note=62, velocity=95, time=4),
    Message('note_on', channel=4, note=67, velocity=95, time=4),
    Message('note_off', channel=4, note=67, velocity=95, time=460),
    Message('note_off', channel=4, note=62, velocity=95, time=0),
    Message('note_off', channel=4, note=55, velocity=95, time=0),
    Message('note_off', channel=4, note=50, velocity=95, time=0),
    Message('note_off', channel=4, note=47, velocity=95, time=0),
    Message('note_off', channel=4, note=43, velocity=95, time=0),
    Message('note_on', channel=4, note=43, velocity=95, time=0),
    Message('note_on', channel=4, note=47, velocity=95, time=2),
    Message('note_on', channel=4, note=50, velocity=95, time=2),
    Message('note_on', channel=4, note=55, velocity=95, time=2),
    Message('note_on', channel=4, note=62, velocity=95, time=2),
    Message('note_on', channel=4, note=67, velocity=95, time=2),
    Message('note_off', channel=4, note=67, velocity=95, time=230),
    Message('note_off', channel=4, note=62, velocity=95, time=0),
    Message('note_off', channel=4, note=55, velocity=95, time=0),
    Message('note_off', channel=4, note=50, velocity=95, time=0),
    Message('note_off', channel=4, note=47, velocity=95, time=0),
    Message('note_off', channel=4, note=43, velocity=95, time=0),
    Message('note_on', channel=4, note=67, velocity=95, time=0),
    Message('note_on', channel=4, note=62, velocity=95, time=2),
    Message('note_on', channel=4, note=55, velocity=95, time=2),
    Message('note_on', channel=4, note=50, velocity=95, time=2),
    Message('note_on', channel=4, note=47, velocity=95, time=2),
    Message('note_on', channel=4, note=43, velocity=95, time=2),
    Message('note_off', channel=4, note=67, velocity=95, time=230),
    Message('note_off', channel=4, note=62, velocity=95, time=0),
    Message('note_off', channel=4, note=55, velocity=95, time=0),
    Message('note_off', channel=4, note=50, velocity=95, time=0),
    Message('note_off', channel=4, note=47, velocity=95, time=0),
    Message('note_off', channel=4, note=43, velocity=95, time=0),
    Message('note_on', channel=4, note=43, velocity=95, time=0),
    Message('note_on', channel=4, note=47, velocity=95, time=2),
    Message('note_on', channel=4, note=50, velocity=95, time=2),
    Message('note_on', channel=4, note=55, velocity=95, time=2),
    Message('note_on', channel=4, note=62, velocity=95, time=2),
    Message('note_on', channel=4, note=67, velocity=95, time=2),
    Message('note_off', channel=4, note=67, velocity=95, time=230),
    Message('note_off', channel=4, note=62, velocity=95, time=0),
    Message('note_off', channel=4, note=55, velocity=95, time=0),
    Message('note_off', channel=4, note=50, velocity=95, time=0),
    Message('note_off', channel=4, note=47, velocity=95, time=0),
    Message('note_off', channel=4, note=43, velocity=95, time=0),
    Message('note_on', channel=4, note=67, velocity=95, time=0),
    Message('note_on', channel=4, note=62, velocity=95, time=2),
    Message('note_on', channel=4, note=55, velocity=95, time=2),
    Message('note_on', channel=4, note=50, velocity=95, time=2),
    Message('note_on', channel=4, note=47, velocity=95, time=2),
    Message('note_on', channel=4, note=43, velocity=95, time=2),
    Message('note_off', channel=4, note=67, velocity=95, time=230),
    Message('note_off', channel=4, note=62, velocity=95, time=0),
    Message('note_off', channel=4, note=55, velocity=95, time=0),
    Message('note_off', channel=4, note=50, velocity=95, time=0),
    Message('note_off', channel=4, note=47, velocity=95, time=0),
    Message('note_off', channel=4, note=43, velocity=95, time=0),
    Message('note_on', channel=4, note=43, velocity=95, time=0),
    Message('note_on', channel=4, note=47, velocity=95, time=2),
    Message('note_on', channel=4, note=50, velocity=95, time=2),
    Message('note_on', channel=4, note=55, velocity=95, time=2),
    Message('note_on', channel=4, note=62, velocity=95, time=2),
    Message('note_on', channel=4, note=67, velocity=95, time=2),
    Message('note_off', channel=4, note=67, velocity=95, time=230),
    Message('note_off', channel=4, note=62, velocity=95, time=0),
    Message('note_off', channel=4, note=55, velocity=95, time=0),
    Message('note_off', channel=4, note=50, velocity=95, time=0),
    Message('note_off', channel=4, note=47, velocity=95, time=0),
    Message('note_off', channel=4, note=43, velocity=95, time=0),
    Message('note_on', channel=4, note=67, velocity=95, time=0),
    Message('note_on', channel=4, note=62, velocity=95, time=2),
    Message('note_on', channel=4, note=55, velocity=95, time=2),
    Message('note_on', channel=4, note=50, velocity=95, time=2),
    Message('note_on', channel=4, note=47, velocity=95, time=2),
    Message('note_on', channel=4, note=43, velocity=95, time=2),
    Message('note_off', channel=4, note=67, velocity=95, time=230),
    Message('note_off', channel=4, note=62, velocity=95, time=0),
    Message('note_off', channel=4, note=55, velocity=95, time=0),
    Message('note_off', channel=4, note=50, velocity=95, time=0),
    Message('note_off', channel=4, note=47, velocity=95, time=0),
    Message('note_off', channel=4, note=43, velocity=95, time=0),
    Message('note_on', channel=4, note=50, velocity=95, time=0),
    Message('note_on', channel=4, note=57, velocity=95, time=4),
    Message('note_on', channel=4, note=62, velocity=95, time=4),
    Message('note_on', channel=4, note=66, velocity=95, time=4),
    Message('note_off', channel=4, note=66, velocity=95, time=468),
    Message('note_off', channel=4, note=62, velocity=95, time=0),
    Message('note_off', channel=4, note=57, velocity=95, time=0),
    Message('note_off', channel=4, note=50, velocity=95, time=0),
    Message('note_on', channel=4, note=50, velocity=95, time=0),
    Message('note_on', channel=4, note=57, velocity=95, time=2),
    Message('note_on', channel=4, note=62, velocity=95, time=2),
    Message('note_on', channel=4, note=66, velocity=95, time=2),
    Message('note_off', channel=4, note=66, velocity=95, time=234),
    Message('note_off', channel=4, note=62, velocity=95, time=0),
    Message('note_off', channel=4, note=57, velocity=95, time=0),
    Message('note_off', channel=4, note=50, velocity=95, time=0),
    Message('note_on', channel=4, note=66, velocity=95, time=0),
    Message('note_on', channel=4, note=62, velocity=95, time=2),
    Message('note_on', channel=4, note=57, velocity=95, time=2),
    Message('note_on', channel=4, note=50, velocity=95, time=2),
    Message('note_off', channel=4, note=66, velocity=95, time=234),
    Message('note_off', channel=4, note=62, velocity=95, time=0),
    Message('note_off', channel=4, note=57, velocity=95, time=0),
    Message('note_off', channel=4, note=50, velocity=95, time=0),
    Message('note_on', channel=4, note=50, velocity=95, time=0),
    Message('note_on', channel=4, note=57, velocity=95, time=2),
    Message('note_on', channel=4, note=62, velocity=95, time=2),
    Message('note_on', channel=4, note=66, velocity=95, time=2),
    Message('note_off', channel=4, note=66, velocity=95, time=234),
    Message('note_off', channel=4, note=62, velocity=95, time=0),
    Message('note_off', channel=4, note=57, velocity=95, time=0),
    Message('note_off', channel=4, note=50, velocity=95, time=0),
    Message('note_on', channel=4, note=66, velocity=95, time=0),
    Message('note_on', channel=4, note=62, velocity=95, time=2),
    Message('note_on', channel=4, note=57, velocity=95, time=2),
    Message('note_on', channel=4, note=50, velocity=95, time=2),
    Message('note_off', channel=4, note=66, velocity=95, time=234),
    Message('note_off', channel=4, note=62, velocity=95, time=0),
    Message('note_off', channel=4, note=57, velocity=95, time=0),
    Message('note_off', channel=4, note=50, velocity=95, time=0),
    Message('note_on', channel=4, note=50, velocity=95, time=0),
    Message('note_on', channel=4, note=57, velocity=95, time=2),
    Message('note_on', channel=4, note=62, velocity=95, time=2),
    Message('note_on', channel=4, note=66, velocity=95, time=2),
    Message('note_off', channel=4, note=66, velocity=95, time=234),
    Message('note_off', channel=4, note=62, velocity=95, time=0),
    Message('note_off', channel=4, note=57, velocity=95, time=0),
    Message('note_off', channel=4, note=50, velocity=95, time=0),
    Message('note_on', channel=4, note=66, velocity=95, time=0),
    Message('note_on', channel=4, note=62, velocity=95, time=2),
    Message('note_on', channel=4, note=57, velocity=95, time=2),
    Message('note_on', channel=4, note=50, velocity=95, time=2),
    Message('note_off', channel=4, note=66, velocity=95, time=234),
    Message('note_off', channel=4, note=62, velocity=95, time=0),
    Message('note_off', channel=4, note=57, velocity=95, time=0),
    Message('note_off', channel=4, note=50, velocity=95, time=0),
    Message('note_on', channel=4, note=45, velocity=95, time=0),
    Message('note_on', channel=4, note=52, velocity=95, time=4),
    Message('note_on', channel=4, note=57, velocity=95, time=4),
    Message('note_on', channel=4, note=61, velocity=95, time=4),
    Message('note_on', channel=4, note=64, velocity=95, time=4),
    Message('note_off', channel=4, note=64, velocity=95, time=464),
    Message('note_off', channel=4, note=61, velocity=95, time=0),
    Message('note_off', channel=4, note=57, velocity=95, time=0),
    Message('note_off', channel=4, note=52, velocity=95, time=0),
    Message('note_off', channel=4, note=45, velocity=95, time=0),
    Message('note_on', channel=4, note=45, velocity=95, time=0),
    Message('note_on', channel=4, note=52, velocity=95, time=2),
    Message('note_on', channel=4, note=57, velocity=95, time=2),
    Message('note_on', channel=4, note=61, velocity=95, time=2),
    Message('note_on', channel=4, note=64, velocity=95, time=2),
    Message('note_off', channel=4, note=64, velocity=95, time=232),
    Message('note_off', channel=4, note=61, velocity=95, time=0),
    Message('note_off', channel=4, note=57, velocity=95, time=0),
    Message('note_off', channel=4, note=52, velocity=95, time=0),
    Message('note_off', channel=4, note=45, velocity=95, time=0),
    Message('note_on', channel=4, note=64, velocity=95, time=0),
    Message('note_on', channel=4, note=61, velocity=95, time=2),
    Message('note_on', channel=4, note=57, velocity=95, time=2),
    Message('note_on', channel=4, note=52, velocity=95, time=2),
    Message('note_on', channel=4, note=45, velocity=95, time=2),
    Message('note_off', channel=4, note=64, velocity=95, time=232),
    Message('note_off', channel=4, note=61, velocity=95, time=0),
    Message('note_off', channel=4, note=57, velocity=95, time=0),
    Message('note_off', channel=4, note=52, velocity=95, time=0),
    Message('note_off', channel=4, note=45, velocity=95, time=0),
    Message('note_on', channel=4, note=45, velocity=95, time=0),
    Message('note_on', channel=4, note=52, velocity=95, time=2),
    Message('note_on', channel=4, note=57, velocity=95, time=2),
    Message('note_on', channel=4, note=61, velocity=95, time=2),
    Message('note_on', channel=4, note=64, velocity=95, time=2),
    Message('note_off', channel=4, note=64, velocity=95, time=232),
    Message('note_off', channel=4, note=61, velocity=95, time=0),
    Message('note_off', channel=4, note=57, velocity=95, time=0),
    Message('note_off', channel=4, note=52, velocity=95, time=0),
    Message('note_off', channel=4, note=45, velocity=95, time=0),
    Message('note_on', channel=4, note=64, velocity=95, time=0),
    Message('note_on', channel=4, note=61, velocity=95, time=2),
    Message('note_on', channel=4, note=57, velocity=95, time=2),
    Message('note_on', channel=4, note=52, velocity=95, time=2),
    Message('note_on', channel=4, note=45, velocity=95, time=2),
    Message('note_off', channel=4, note=64, velocity=95, time=232),
    Message('note_off', channel=4, note=61, velocity=95, time=0),
    Message('note_off', channel=4, note=57, velocity=95, time=0),
    Message('note_off', channel=4, note=52, velocity=95, time=0),
    Message('note_off', channel=4, note=45, velocity=95, time=0),
    Message('note_on', channel=4, note=45, velocity=95, time=0),
    Message('note_on', channel=4, note=52, velocity=95, time=2),
    Message('note_on', channel=4, note=57, velocity=95, time=2),
    Message('note_on', channel=4, note=61, velocity=95, time=2),
    Message('note_on', channel=4, note=64, velocity=95, time=2),
    Message('note_off', channel=4, note=64, velocity=95, time=232),
    Message('note_off', channel=4, note=61, velocity=95, time=0),
    Message('note_off', channel=4, note=57, velocity=95, time=0),
    Message('note_off', channel=4, note=52, velocity=95, time=0),
    Message('note_off', channel=4, note=45, velocity=95, time=0),
    Message('note_on', channel=4, note=64, velocity=95, time=0),
    Message('note_on', channel=4, note=61, velocity=95, time=2),
    Message('note_on', channel=4, note=57, velocity=95, time=2),
    Message('note_on', channel=4, note=52, velocity=95, time=2),
    Message('note_on', channel=4, note=45, velocity=95, time=2),
    Message('note_off', channel=4, note=64, velocity=95, time=232),
    Message('note_off', channel=4, note=61, velocity=95, time=0),
    Message('note_off', channel=4, note=57, velocity=95, time=0),
    Message('note_off', channel=4, note=52, velocity=95, time=0),
    Message('note_off', channel=4, note=45, velocity=95, time=0),
    Message('note_on', channel=4, note=40, velocity=95, time=0),
    Message('note_on', channel=4, note=47, velocity=95, time=4),
    Message('note_on', channel=4, note=52, velocity=95, time=4),
    Message('note_on', channel=4, note=56, velocity=95, time=4),
    Message('note_on', channel=4, note=59, velocity=95, time=4),
    Message('note_on', channel=4, note=64, velocity=95, time=4),
    Message('note_off', channel=4, note=64, velocity=95, time=460),
    Message('note_off', channel=4, note=59, velocity=95, time=0),
    Message('note_off', channel=4, note=56, velocity=95, time=0),
    Message('note_off', channel=4, note=52, velocity=95, time=0),
    Message('note_off', channel=4, note=47, velocity=95, time=0),
    Message('note_off', channel=4, note=40, velocity=95, time=0),
    Message('note_on', channel=4, note=40, velocity=95, time=0),
    Message('note_on', channel=4, note=47, velocity=95, time=2),
    Message('note_on', channel=4, note=52, velocity=95, time=2),
    Message('note_on', channel=4, note=56, velocity=95, time=2),
    Message('note_on', channel=4, note=59, velocity=95, time=2),
    Message('note_on', channel=4, note=64, velocity=95, time=2),
    Message('note_off', channel=4, note=64, velocity=95, time=230),
    Message('note_off', channel=4, note=59, velocity=95, time=0),
    Message('note_off', channel=4, note=56, velocity=95, time=0),
    Message('note_off', channel=4, note=52, velocity=95, time=0),
    Message('note_off', channel=4, note=47, velocity=95, time=0),
    Message('note_off', channel=4, note=40, velocity=95, time=0),
    Message('note_on', channel=4, note=64, velocity=95, time=0),
    Message('note_on', channel=4, note=59, velocity=95, time=2),
    Message('note_on', channel=4, note=56, velocity=95, time=2),
    Message('note_on', channel=4, note=52, velocity=95, time=2),
    Message('note_on', channel=4, note=47, velocity=95, time=2),
    Message('note_on', channel=4, note=40, velocity=95, time=2),
    Message('note_off', channel=4, note=64, velocity=95, time=230),
    Message('note_off', channel=4, note=59, velocity=95, time=0),
    Message('note_off', channel=4, note=56, velocity=95, time=0),
    Message('note_off', channel=4, note=52, velocity=95, time=0),
    Message('note_off', channel=4, note=47, velocity=95, time=0),
    Message('note_off', channel=4, note=40, velocity=95, time=0),
    Message('note_on', channel=4, note=40, velocity=95, time=0),
    Message('note_on', channel=4, note=47, velocity=95, time=2),
    Message('note_on', channel=4, note=52, velocity=95, time=2),
    Message('note_on', channel=4, note=56, velocity=95, time=2),
    Message('note_on', channel=4, note=59, velocity=95, time=2),
    Message('note_on', channel=4, note=64, velocity=95, time=2),
    Message('note_off', channel=4, note=64, velocity=95, time=230),
    Message('note_off', channel=4, note=59, velocity=95, time=0),
    Message('note_off', channel=4, note=56, velocity=95, time=0),
    Message('note_off', channel=4, note=52, velocity=95, time=0),
    Message('note_off', channel=4, note=47, velocity=95, time=0),
    Message('note_off', channel=4, note=40, velocity=95, time=0),
    Message('note_on', channel=4, note=64, velocity=95, time=0),
    Message('note_on', channel=4, note=59, velocity=95, time=2),
    Message('note_on', channel=4, note=56, velocity=95, time=2),
    Message('note_on', channel=4, note=52, velocity=95, time=2),
    Message('note_on', channel=4, note=47, velocity=95, time=2),
    Message('note_on', channel=4, note=40, velocity=95, time=2),
    Message('note_off', channel=4, note=64, velocity=95, time=230),
    Message('note_off', channel=4, note=59, velocity=95, time=0),
    Message('note_off', channel=4, note=56, velocity=95, time=0),
    Message('note_off', channel=4, note=52, velocity=95, time=0),
    Message('note_off', channel=4, note=47, velocity=95, time=0),
    Message('note_off', channel=4, note=40, velocity=95, time=0),
    Message('note_on', channel=4, note=40, velocity=95, time=0),
    Message('note_on', channel=4, note=47, velocity=95, time=2),
    Message('note_on', channel=4, note=52, velocity=95, time=2),
    Message('note_on', channel=4, note=56, velocity=95, time=2),
    Message('note_on', channel=4, note=59, velocity=95, time=2),
    Message('note_on', channel=4, note=64, velocity=95, time=2),
    Message('note_off', channel=4, note=64, velocity=95, time=230),
    Message('note_off', channel=4, note=59, velocity=95, time=0),
    Message('note_off', channel=4, note=56, velocity=95, time=0),
    Message('note_off', channel=4, note=52, velocity=95, time=0),
    Message('note_off', channel=4, note=47, velocity=95, time=0),
    Message('note_off', channel=4, note=40, velocity=95, time=0),
    Message('note_on', channel=4, note=64, velocity=95, time=0),
    Message('note_on', channel=4, note=59, velocity=95, time=2),
    Message('note_on', channel=4, note=56, velocity=95, time=2),
    Message('note_on', channel=4, note=52, velocity=95, time=2),
    Message('note_on', channel=4, note=47, velocity=95, time=2),
    Message('note_on', channel=4, note=40, velocity=95, time=2),
    Message('note_off', channel=4, note=64, velocity=95, time=230),
    Message('note_off', channel=4, note=59, velocity=95, time=0),
    Message('note_off', channel=4, note=56, velocity=95, time=0),
    Message('note_off', channel=4, note=52, velocity=95, time=0),
    Message('note_off', channel=4, note=47, velocity=95, time=0),
    Message('note_off', channel=4, note=40, velocity=95, time=0),
    Message('note_on', channel=4, note=43, velocity=95, time=0),
    Message('note_on', channel=4, note=47, velocity=95, time=4),
    Message('note_on', channel=4, note=50, velocity=95, time=4),
    Message('note_on', channel=4, note=55, velocity=95, time=4),
    Message('note_on', channel=4, note=62, velocity=95, time=4),
    Message('note_on', channel=4, note=67, velocity=95, time=4),
    Message('note_off', channel=4, note=67, velocity=95, time=460),
    Message('note_off', channel=4, note=62, velocity=95, time=0),
    Message('note_off', channel=4, note=55, velocity=95, time=0),
    Message('note_off', channel=4, note=50, velocity=95, time=0),
    Message('note_off', channel=4, note=47, velocity=95, time=0),
    Message('note_off', channel=4, note=43, velocity=95, time=0),
    Message('note_on', channel=4, note=43, velocity=95, time=0),
    Message('note_on', channel=4, note=47, velocity=95, time=2),
    Message('note_on', channel=4, note=50, velocity=95, time=2),
    Message('note_on', channel=4, note=55, velocity=95, time=2),
    Message('note_on', channel=4, note=62, velocity=95, time=2),
    Message('note_on', channel=4, note=67, velocity=95, time=2),
    Message('note_off', channel=4, note=67, velocity=95, time=230),
    Message('note_off', channel=4, note=62, velocity=95, time=0),
    Message('note_off', channel=4, note=55, velocity=95, time=0),
    Message('note_off', channel=4, note=50, velocity=95, time=0),
    Message('note_off', channel=4, note=47, velocity=95, time=0),
    Message('note_off', channel=4, note=43, velocity=95, time=0),
    Message('note_on', channel=4, note=67, velocity=95, time=0),
    Message('note_on', channel=4, note=62, velocity=95, time=2),
    Message('note_on', channel=4, note=55, velocity=95, time=2),
    Message('note_on', channel=4, note=50, velocity=95, time=2),
    Message('note_on', channel=4, note=47, velocity=95, time=2),
    Message('note_on', channel=4, note=43, velocity=95, time=2),
    Message('note_off', channel=4, note=67, velocity=95, time=230),
    Message('note_off', channel=4, note=62, velocity=95, time=0),
    Message('note_off', channel=4, note=55, velocity=95, time=0),
    Message('note_off', channel=4, note=50, velocity=95, time=0),
    Message('note_off', channel=4, note=47, velocity=95, time=0),
    Message('note_off', channel=4, note=43, velocity=95, time=0),
    Message('note_on', channel=4, note=43, velocity=95, time=0),
    Message('note_on', channel=4, note=47, velocity=95, time=2),
    Message('note_on', channel=4, note=50, velocity=95, time=2),
    Message('note_on', channel=4, note=55, velocity=95, time=2),
    Message('note_on', channel=4, note=62, velocity=95, time=2),
    Message('note_on', channel=4, note=67, velocity=95, time=2),
    Message('note_off', channel=4, note=67, velocity=95, time=230),
    Message('note_off', channel=4, note=62, velocity=95, time=0),
    Message('note_off', channel=4, note=55, velocity=95, time=0),
    Message('note_off', channel=4, note=50, velocity=95, time=0),
    Message('note_off', channel=4, note=47, velocity=95, time=0),
    Message('note_off', channel=4, note=43, velocity=95, time=0),
    Message('note_on', channel=4, note=67, velocity=95, time=0),
    Message('note_on', channel=4, note=62, velocity=95, time=2),
    Message('note_on', channel=4, note=55, velocity=95, time=2),
    Message('note_on', channel=4, note=50, velocity=95, time=2),
    Message('note_on', channel=4, note=47, velocity=95, time=2),
    Message('note_on', channel=4, note=43, velocity=95, time=2),
    Message('note_off', channel=4, note=67, velocity=95, time=230),
    Message('note_off', channel=4, note=62, velocity=95, time=0),
    Message('note_off', channel=4, note=55, velocity=95, time=0),
    Message('note_off', channel=4, note=50, velocity=95, time=0),
    Message('note_off', channel=4, note=47, velocity=95, time=0),
    Message('note_off', channel=4, note=43, velocity=95, time=0),
    Message('note_on', channel=4, note=43, velocity=95, time=0),
    Message('note_on', channel=4, note=47, velocity=95, time=2),
    Message('note_on', channel=4, note=50, velocity=95, time=2),
    Message('note_on', channel=4, note=55, velocity=95, time=2),
    Message('note_on', channel=4, note=62, velocity=95, time=2),
    Message('note_on', channel=4, note=67, velocity=95, time=2),
    Message('note_off', channel=4, note=67, velocity=95, time=230),
    Message('note_off', channel=4, note=62, velocity=95, time=0),
    Message('note_off', channel=4, note=55, velocity=95, time=0),
    Message('note_off', channel=4, note=50, velocity=95, time=0),
    Message('note_off', channel=4, note=47, velocity=95, time=0),
    Message('note_off', channel=4, note=43, velocity=95, time=0),
    Message('note_on', channel=4, note=67, velocity=95, time=0),
    Message('note_on', channel=4, note=62, velocity=95, time=2),
    Message('note_on', channel=4, note=55, velocity=95, time=2),
    Message('note_on', channel=4, note=50, velocity=95, time=2),
    Message('note_on', channel=4, note=47, velocity=95, time=2),
    Message('note_on', channel=4, note=43, velocity=95, time=2),
    Message('note_off', channel=4, note=67, velocity=95, time=230),
    Message('note_off', channel=4, note=62, velocity=95, time=0),
    Message('note_off', channel=4, note=55, velocity=95, time=0),
    Message('note_off', channel=4, note=50, velocity=95, time=0),
    Message('note_off', channel=4, note=47, velocity=95, time=0),
    Message('note_off', channel=4, note=43, velocity=95, time=0),
    Message('note_on', channel=4, note=50, velocity=95, time=0),
    Message('note_on', channel=4, note=57, velocity=95, time=4),
    Message('note_on', channel=4, note=62, velocity=95, time=4),
    Message('note_on', channel=4, note=66, velocity=95, time=4),
    Message('note_off', channel=4, note=66, velocity=95, time=468),
    Message('note_off', channel=4, note=62, velocity=95, time=0),
    Message('note_off', channel=4, note=57, velocity=95, time=0),
    Message('note_off', channel=4, note=50, velocity=95, time=0),
    Message('note_on', channel=4, note=50, velocity=95, time=0),
    Message('note_on', channel=4, note=57, velocity=95, time=2),
    Message('note_on', channel=4, note=62, velocity=95, time=2),
    Message('note_on', channel=4, note=66, velocity=95, time=2),
    Message('note_off', channel=4, note=66, velocity=95, time=234),
    Message('note_off', channel=4, note=62, velocity=95, time=0),
    Message('note_off', channel=4, note=57, velocity=95, time=0),
    Message('note_off', channel=4, note=50, velocity=95, time=0),
    Message('note_on', channel=4, note=66, velocity=95, time=0),
    Message('note_on', channel=4, note=62, velocity=95, time=2),
    Message('note_on', channel=4, note=57, velocity=95, time=2),
    Message('note_on', channel=4, note=50, velocity=95, time=2),
    Message('note_off', channel=4, note=66, velocity=95, time=234),
    Message('note_off', channel=4, note=62, velocity=95, time=0),
    Message('note_off', channel=4, note=57, velocity=95, time=0),
    Message('note_off', channel=4, note=50, velocity=95, time=0),
    Message('note_on', channel=4, note=50, velocity=95, time=0),
    Message('note_on', channel=4, note=57, velocity=95, time=2),
    Message('note_on', channel=4, note=62, velocity=95, time=2),
    Message('note_on', channel=4, note=66, velocity=95, time=2),
    Message('note_off', channel=4, note=66, velocity=95, time=234),
    Message('note_off', channel=4, note=62, velocity=95, time=0),
    Message('note_off', channel=4, note=57, velocity=95, time=0),
    Message('note_off', channel=4, note=50, velocity=95, time=0),
    Message('note_on', channel=4, note=66, velocity=95, time=0),
    Message('note_on', channel=4, note=62, velocity=95, time=2),
    Message('note_on', channel=4, note=57, velocity=95, time=2),
    Message('note_on', channel=4, note=50, velocity=95, time=2),
    Message('note_off', channel=4, note=66, velocity=95, time=234),
    Message('note_off', channel=4, note=62, velocity=95, time=0),
    Message('note_off', channel=4, note=57, velocity=95, time=0),
    Message('note_off', channel=4, note=50, velocity=95, time=0),
    Message('note_on', channel=4, note=50, velocity=95, time=0),
    Message('note_on', channel=4, note=57, velocity=95, time=2),
    Message('note_on', channel=4, note=62, velocity=95, time=2),
    Message('note_on', channel=4, note=66, velocity=95, time=2),
    Message('note_off', channel=4, note=66, velocity=95, time=234),
    Message('note_off', channel=4, note=62, velocity=95, time=0),
    Message('note_off', channel=4, note=57, velocity=95, time=0),
    Message('note_off', channel=4, note=50, velocity=95, time=0),
    Message('note_on', channel=4, note=66, velocity=95, time=0),
    Message('note_on', channel=4, note=62, velocity=95, time=2),
    Message('note_on', channel=4, note=57, velocity=95, time=2),
    Message('note_on', channel=4, note=50, velocity=95, time=2),
    Message('note_off', channel=4, note=66, velocity=95, time=234),
    Message('note_off', channel=4, note=62, velocity=95, time=0),
    Message('note_off', channel=4, note=57, velocity=95, time=0),
    Message('note_off', channel=4, note=50, velocity=95, time=0),
    Message('note_on', channel=4, note=45, velocity=95, time=0),
    Message('note_on', channel=4, note=52, velocity=95, time=4),
    Message('note_on', channel=4, note=57, velocity=95, time=4),
    Message('note_on', channel=4, note=61, velocity=95, time=4),
    Message('note_on', channel=4, note=64, velocity=95, time=4),
    Message('note_off', channel=4, note=64, velocity=95, time=464),
    Message('note_off', channel=4, note=61, velocity=95, time=0),
    Message('note_off', channel=4, note=57, velocity=95, time=0),
    Message('note_off', channel=4, note=52, velocity=95, time=0),
    Message('note_off', channel=4, note=45, velocity=95, time=0),
    Message('note_on', channel=4, note=45, velocity=95, time=0),
    Message('note_on', channel=4, note=52, velocity=95, time=2),
    Message('note_on', channel=4, note=57, velocity=95, time=2),
    Message('note_on', channel=4, note=61, velocity=95, time=2),
    Message('note_on', channel=4, note=64, velocity=95, time=2),
    Message('note_off', channel=4, note=64, velocity=95, time=232),
    Message('note_off', channel=4, note=61, velocity=95, time=0),
    Message('note_off', channel=4, note=57, velocity=95, time=0),
    Message('note_off', channel=4, note=52, velocity=95, time=0),
    Message('note_off', channel=4, note=45, velocity=95, time=0),
    Message('note_on', channel=4, note=64, velocity=95, time=0),
    Message('note_on', channel=4, note=61, velocity=95, time=2),
    Message('note_on', channel=4, note=57, velocity=95, time=2),
    Message('note_on', channel=4, note=52, velocity=95, time=2),
    Message('note_on', channel=4, note=45, velocity=95, time=2),
    Message('note_off', channel=4, note=64, velocity=95, time=232),
    Message('note_off', channel=4, note=61, velocity=95, time=0),
    Message('note_off', channel=4, note=57, velocity=95, time=0),
    Message('note_off', channel=4, note=52, velocity=95, time=0),
    Message('note_off', channel=4, note=45, velocity=95, time=0),
    Message('note_on', channel=4, note=45, velocity=95, time=0),
    Message('note_on', channel=4, note=52, velocity=95, time=2),
    Message('note_on', channel=4, note=57, velocity=95, time=2),
    Message('note_on', channel=4, note=61, velocity=95, time=2),
    Message('note_on', channel=4, note=64, velocity=95, time=2),
    Message('note_off', channel=4, note=64, velocity=95, time=232),
    Message('note_off', channel=4, note=61, velocity=95, time=0),
    Message('note_off', channel=4, note=57, velocity=95, time=0),
    Message('note_off', channel=4, note=52, velocity=95, time=0),
    Message('note_off', channel=4, note=45, velocity=95, time=0),
    Message('note_on', channel=4, note=64, velocity=95, time=0),
    Message('note_on', channel=4, note=61, velocity=95, time=2),
    Message('note_on', channel=4, note=57, velocity=95, time=2),
    Message('note_on', channel=4, note=52, velocity=95, time=2),
    Message('note_on', channel=4, note=45, velocity=95, time=2),
    Message('note_off', channel=4, note=64, velocity=95, time=232),
    Message('note_off', channel=4, note=61, velocity=95, time=0),
    Message('note_off', channel=4, note=57, velocity=95, time=0),
    Message('note_off', channel=4, note=52, velocity=95, time=0),
    Message('note_off', channel=4, note=45, velocity=95, time=0),
    Message('note_on', channel=4, note=45, velocity=95, time=0),
    Message('note_on', channel=4, note=52, velocity=95, time=2),
    Message('note_on', channel=4, note=57, velocity=95, time=2),
    Message('note_on', channel=4, note=61, velocity=95, time=2),
    Message('note_on', channel=4, note=64, velocity=95, time=2),
    Message('note_off', channel=4, note=64, velocity=95, time=232),
    Message('note_off', channel=4, note=61, velocity=95, time=0),
    Message('note_off', channel=4, note=57, velocity=95, time=0),
    Message('note_off', channel=4, note=52, velocity=95, time=0),
    Message('note_off', channel=4, note=45, velocity=95, time=0),
    Message('note_on', channel=4, note=64, velocity=95, time=0),
    Message('note_on', channel=4, note=61, velocity=95, time=2),
    Message('note_on', channel=4, note=57, velocity=95, time=2),
    Message('note_on', channel=4, note=52, velocity=95, time=2),
    Message('note_on', channel=4, note=45, velocity=95, time=2),
    Message('note_off', channel=4, note=64, velocity=95, time=232),
    Message('note_off', channel=4, note=61, velocity=95, time=0),
    Message('note_off', channel=4, note=57, velocity=95, time=0),
    Message('note_off', channel=4, note=52, velocity=95, time=0),
    Message('note_off', channel=4, note=45, velocity=95, time=0),
    Message('note_on', channel=4, note=40, velocity=95, time=0),
    Message('note_on', channel=4, note=47, velocity=95, time=4),
    Message('note_on', channel=4, note=52, velocity=95, time=4),
    Message('note_on', channel=4, note=56, velocity=95, time=4),
    Message('note_on', channel=4, note=59, velocity=95, time=4),
    Message('note_on', channel=4, note=64, velocity=95, time=4),
    Message('note_off', channel=4, note=64, velocity=95, time=460),
    Message('note_off', channel=4, note=59, velocity=95, time=0),
    Message('note_off', channel=4, note=56, velocity=95, time=0),
    Message('note_off', channel=4, note=52, velocity=95, time=0),
    Message('note_off', channel=4, note=47, velocity=95, time=0),
    Message('note_off', channel=4, note=40, velocity=95, time=0),
    Message('note_on', channel=4, note=40, velocity=95, time=0),
    Message('note_on', channel=4, note=47, velocity=95, time=2),
    Message('note_on', channel=4, note=52, velocity=95, time=2),
    Message('note_on', channel=4, note=56, velocity=95, time=2),
    Message('note_on', channel=4, note=59, velocity=95, time=2),
    Message('note_on', channel=4, note=64, velocity=95, time=2),
    Message('note_off', channel=4, note=64, velocity=95, time=230),
    Message('note_off', channel=4, note=59, velocity=95, time=0),
    Message('note_off', channel=4, note=56, velocity=95, time=0),
    Message('note_off', channel=4, note=52, velocity=95, time=0),
    Message('note_off', channel=4, note=47, velocity=95, time=0),
    Message('note_off', channel=4, note=40, velocity=95, time=0),
    Message('note_on', channel=4, note=64, velocity=95, time=0),
    Message('note_on', channel=4, note=59, velocity=95, time=2),
    Message('note_on', channel=4, note=56, velocity=95, time=2),
    Message('note_on', channel=4, note=52, velocity=95, time=2),
    Message('note_on', channel=4, note=47, velocity=95, time=2),
    Message('note_on', channel=4, note=40, velocity=95, time=2),
    Message('note_off', channel=4, note=64, velocity=95, time=230),
    Message('note_off', channel=4, note=59, velocity=95, time=0),
    Message('note_off', channel=4, note=56, velocity=95, time=0),
    Message('note_off', channel=4, note=52, velocity=95, time=0),
    Message('note_off', channel=4, note=47, velocity=95, time=0),
    Message('note_off', channel=4, note=40, velocity=95, time=0),
    Message('note_on', channel=4, note=40, velocity=95, time=0),
    Message('note_on', channel=4, note=47, velocity=95, time=2),
    Message('note_on', channel=4, note=52, velocity=95, time=2),
    Message('note_on', channel=4, note=56, velocity=95, time=2),
    Message('note_on', channel=4, note=59, velocity=95, time=2),
    Message('note_on', channel=4, note=64, velocity=95, time=2),
    Message('note_off', channel=4, note=64, velocity=95, time=230),
    Message('note_off', channel=4, note=59, velocity=95, time=0),
    Message('note_off', channel=4, note=56, velocity=95, time=0),
    Message('note_off', channel=4, note=52, velocity=95, time=0),
    Message('note_off', channel=4, note=47, velocity=95, time=0),
    Message('note_off', channel=4, note=40, velocity=95, time=0),
    Message('note_on', channel=4, note=64, velocity=95, time=0),
    Message('note_on', channel=4, note=59, velocity=95, time=2),
    Message('note_on', channel=4, note=56, velocity=95, time=2),
    Message('note_on', channel=4, note=52, velocity=95, time=2),
    Message('note_on', channel=4, note=47, velocity=95, time=2),
    Message('note_on', channel=4, note=40, velocity=95, time=2),
    Message('note_off', channel=4, note=64, velocity=95, time=230),
    Message('note_off', channel=4, note=59, velocity=95, time=0),
    Message('note_off', channel=4, note=56, velocity=95, time=0),
    Message('note_off', channel=4, note=52, velocity=95, time=0),
    Message('note_off', channel=4, note=47, velocity=95, time=0),
    Message('note_off', channel=4, note=40, velocity=95, time=0),
    Message('note_on', channel=4, note=40, velocity=95, time=0),
    Message('note_on', channel=4, note=47, velocity=95, time=2),
    Message('note_on', channel=4, note=52, velocity=95, time=2),
    Message('note_on', channel=4, note=56, velocity=95, time=2),
    Message('note_on', channel=4, note=59, velocity=95, time=2),
    Message('note_on', channel=4, note=64, velocity=95, time=2),
    Message('note_off', channel=4, note=64, velocity=95, time=230),
    Message('note_off', channel=4, note=59, velocity=95, time=0),
    Message('note_off', channel=4, note=56, velocity=95, time=0),
    Message('note_off', channel=4, note=52, velocity=95, time=0),
    Message('note_off', channel=4, note=47, velocity=95, time=0),
    Message('note_off', channel=4, note=40, velocity=95, time=0),
    Message('note_on', channel=4, note=64, velocity=95, time=0),
    Message('note_on', channel=4, note=59, velocity=95, time=2),
    Message('note_on', channel=4, note=56, velocity=95, time=2),
    Message('note_on', channel=4, note=52, velocity=95, time=2),
    Message('note_on', channel=4, note=47, velocity=95, time=2),
    Message('note_on', channel=4, note=40, velocity=95, time=2),
    Message('note_off', channel=4, note=64, velocity=95, time=230),
    Message('note_off', channel=4, note=59, velocity=95, time=0),
    Message('note_off', channel=4, note=56, velocity=95, time=0),
    Message('note_off', channel=4, note=52, velocity=95, time=0),
    Message('note_off', channel=4, note=47, velocity=95, time=0),
    Message('note_off', channel=4, note=40, velocity=95, time=0),
    Message('note_on', channel=4, note=43, velocity=95, time=0),
    Message('note_on', channel=4, note=47, velocity=95, time=4),
    Message('note_on', channel=4, note=50, velocity=95, time=4),
    Message('note_on', channel=4, note=55, velocity=95, time=4),
    Message('note_on', channel=4, note=62, velocity=95, time=4),
    Message('note_on', channel=4, note=67, velocity=95, time=4),
    Message('note_off', channel=4, note=67, velocity=95, time=460),
    Message('note_off', channel=4, note=62, velocity=95, time=0),
    Message('note_off', channel=4, note=55, velocity=95, time=0),
    Message('note_off', channel=4, note=50, velocity=95, time=0),
    Message('note_off', channel=4, note=47, velocity=95, time=0),
    Message('note_off', channel=4, note=43, velocity=95, time=0),
    Message('note_on', channel=4, note=43, velocity=95, time=0),
    Message('note_on', channel=4, note=47, velocity=95, time=2),
    Message('note_on', channel=4, note=50, velocity=95, time=2),
    Message('note_on', channel=4, note=55, velocity=95, time=2),
    Message('note_on', channel=4, note=62, velocity=95, time=2),
    Message('note_on', channel=4, note=67, velocity=95, time=2),
    Message('note_off', channel=4, note=67, velocity=95, time=230),
    Message('note_off', channel=4, note=62, velocity=95, time=0),
    Message('note_off', channel=4, note=55, velocity=95, time=0),
    Message('note_off', channel=4, note=50, velocity=95, time=0),
    Message('note_off', channel=4, note=47, velocity=95, time=0),
    Message('note_off', channel=4, note=43, velocity=95, time=0),
    Message('note_on', channel=4, note=67, velocity=95, time=0),
    Message('note_on', channel=4, note=62, velocity=95, time=2),
    Message('note_on', channel=4, note=55, velocity=95, time=2),
    Message('note_on', channel=4, note=50, velocity=95, time=2),
    Message('note_on', channel=4, note=47, velocity=95, time=2),
    Message('note_on', channel=4, note=43, velocity=95, time=2),
    Message('note_off', channel=4, note=67, velocity=95, time=230),
    Message('note_off', channel=4, note=62, velocity=95, time=0),
    Message('note_off', channel=4, note=55, velocity=95, time=0),
    Message('note_off', channel=4, note=50, velocity=95, time=0),
    Message('note_off', channel=4, note=47, velocity=95, time=0),
    Message('note_off', channel=4, note=43, velocity=95, time=0),
    Message('note_on', channel=4, note=43, velocity=95, time=0),
    Message('note_on', channel=4, note=47, velocity=95, time=2),
    Message('note_on', channel=4, note=50, velocity=95, time=2),
    Message('note_on', channel=4, note=55, velocity=95, time=2),
    Message('note_on', channel=4, note=62, velocity=95, time=2),
    Message('note_on', channel=4, note=67, velocity=95, time=2),
    Message('note_off', channel=4, note=67, velocity=95, time=230),
    Message('note_off', channel=4, note=62, velocity=95, time=0),
    Message('note_off', channel=4, note=55, velocity=95, time=0),
    Message('note_off', channel=4, note=50, velocity=95, time=0),
    Message('note_off', channel=4, note=47, velocity=95, time=0),
    Message('note_off', channel=4, note=43, velocity=95, time=0),
    Message('note_on', channel=4, note=67, velocity=95, time=0),
    Message('note_on', channel=4, note=62, velocity=95, time=2),
    Message('note_on', channel=4, note=55, velocity=95, time=2),
    Message('note_on', channel=4, note=50, velocity=95, time=2),
    Message('note_on', channel=4, note=47, velocity=95, time=2),
    Message('note_on', channel=4, note=43, velocity=95, time=2),
    Message('note_off', channel=4, note=67, velocity=95, time=230),
    Message('note_off', channel=4, note=62, velocity=95, time=0),
    Message('note_off', channel=4, note=55, velocity=95, time=0),
    Message('note_off', channel=4, note=50, velocity=95, time=0),
    Message('note_off', channel=4, note=47, velocity=95, time=0),
    Message('note_off', channel=4, note=43, velocity=95, time=0),
    Message('note_on', channel=4, note=43, velocity=95, time=0),
    Message('note_on', channel=4, note=47, velocity=95, time=2),
    Message('note_on', channel=4, note=50, velocity=95, time=2),
    Message('note_on', channel=4, note=55, velocity=95, time=2),
    Message('note_on', channel=4, note=62, velocity=95, time=2),
    Message('note_on', channel=4, note=67, velocity=95, time=2),
    Message('note_off', channel=4, note=67, velocity=95, time=230),
    Message('note_off', channel=4, note=62, velocity=95, time=0),
    Message('note_off', channel=4, note=55, velocity=95, time=0),
    Message('note_off', channel=4, note=50, velocity=95, time=0),
    Message('note_off', channel=4, note=47, velocity=95, time=0),
    Message('note_off', channel=4, note=43, velocity=95, time=0),
    Message('note_on', channel=4, note=67, velocity=95, time=0),
    Message('note_on', channel=4, note=62, velocity=95, time=2),
    Message('note_on', channel=4, note=55, velocity=95, time=2),
    Message('note_on', channel=4, note=50, velocity=95, time=2),
    Message('note_on', channel=4, note=47, velocity=95, time=2),
    Message('note_on', channel=4, note=43, velocity=95, time=2),
    Message('note_off', channel=4, note=67, velocity=95, time=230),
    Message('note_off', channel=4, note=62, velocity=95, time=0),
    Message('note_off', channel=4, note=55, velocity=95, time=0),
    Message('note_off', channel=4, note=50, velocity=95, time=0),
    Message('note_off', channel=4, note=47, velocity=95, time=0),
    Message('note_off', channel=4, note=43, velocity=95, time=0),
    Message('note_on', channel=4, note=50, velocity=95, time=0),
    Message('note_on', channel=4, note=57, velocity=95, time=4),
    Message('note_on', channel=4, note=62, velocity=95, time=4),
    Message('note_on', channel=4, note=66, velocity=95, time=4),
    Message('note_off', channel=4, note=66, velocity=95, time=468),
    Message('note_off', channel=4, note=62, velocity=95, time=0),
    Message('note_off', channel=4, note=57, velocity=95, time=0),
    Message('note_off', channel=4, note=50, velocity=95, time=0),
    Message('note_on', channel=4, note=50, velocity=95, time=0),
    Message('note_on', channel=4, note=57, velocity=95, time=2),
    Message('note_on', channel=4, note=62, velocity=95, time=2),
    Message('note_on', channel=4, note=66, velocity=95, time=2),
    Message('note_off', channel=4, note=66, velocity=95, time=234),
    Message('note_off', channel=4, note=62, velocity=95, time=0),
    Message('note_off', channel=4, note=57, velocity=95, time=0),
    Message('note_off', channel=4, note=50, velocity=95, time=0),
    Message('note_on', channel=4, note=66, velocity=95, time=0),
    Message('note_on', channel=4, note=62, velocity=95, time=2),
    Message('note_on', channel=4, note=57, velocity=95, time=2),
    Message('note_on', channel=4, note=50, velocity=95, time=2),
    Message('note_off', channel=4, note=66, velocity=95, time=234),
    Message('note_off', channel=4, note=62, velocity=95, time=0),
    Message('note_off', channel=4, note=57, velocity=95, time=0),
    Message('note_off', channel=4, note=50, velocity=95, time=0),
    Message('note_on', channel=4, note=50, velocity=95, time=0),
    Message('note_on', channel=4, note=57, velocity=95, time=2),
    Message('note_on', channel=4, note=62, velocity=95, time=2),
    Message('note_on', channel=4, note=66, velocity=95, time=2),
    Message('note_off', channel=4, note=66, velocity=95, time=234),
    Message('note_off', channel=4, note=62, velocity=95, time=0),
    Message('note_off', channel=4, note=57, velocity=95, time=0),
    Message('note_off', channel=4, note=50, velocity=95, time=0),
    Message('note_on', channel=4, note=66, velocity=95, time=0),
    Message('note_on', channel=4, note=62, velocity=95, time=2),
    Message('note_on', channel=4, note=57, velocity=95, time=2),
    Message('note_on', channel=4, note=50, velocity=95, time=2),
    Message('note_off', channel=4, note=66, velocity=95, time=234),
    Message('note_off', channel=4, note=62, velocity=95, time=0),
    Message('note_off', channel=4, note=57, velocity=95, time=0),
    Message('note_off', channel=4, note=50, velocity=95, time=0),
    Message('note_on', channel=4, note=50, velocity=95, time=0),
    Message('note_on', channel=4, note=57, velocity=95, time=2),
    Message('note_on', channel=4, note=62, velocity=95, time=2),
    Message('note_on', channel=4, note=66, velocity=95, time=2),
    Message('note_off', channel=4, note=66, velocity=95, time=234),
    Message('note_off', channel=4, note=62, velocity=95, time=0),
    Message('note_off', channel=4, note=57, velocity=95, time=0),
    Message('note_off', channel=4, note=50, velocity=95, time=0),
    Message('note_on', channel=4, note=66, velocity=95, time=0),
    Message('note_on', channel=4, note=62, velocity=95, time=2),
    Message('note_on', channel=4, note=57, velocity=95, time=2),
    Message('note_on', channel=4, note=50, velocity=95, time=2),
    Message('note_off', channel=4, note=66, velocity=95, time=234),
    Message('note_off', channel=4, note=62, velocity=95, time=0),
    Message('note_off', channel=4, note=57, velocity=95, time=0),
    Message('note_off', channel=4, note=50, velocity=95, time=0),
    Message('note_on', channel=4, note=45, velocity=95, time=0),
    Message('note_on', channel=4, note=52, velocity=95, time=4),
    Message('note_on', channel=4, note=57, velocity=95, time=4),
    Message('note_on', channel=4, note=61, velocity=95, time=4),
    Message('note_on', channel=4, note=64, velocity=95, time=4),
    Message('note_off', channel=4, note=64, velocity=95, time=464),
    Message('note_off', channel=4, note=61, velocity=95, time=0),
    Message('note_off', channel=4, note=57, velocity=95, time=0),
    Message('note_off', channel=4, note=52, velocity=95, time=0),
    Message('note_off', channel=4, note=45, velocity=95, time=0),
    Message('note_on', channel=4, note=45, velocity=95, time=0),
    Message('note_on', channel=4, note=52, velocity=95, time=2),
    Message('note_on', channel=4, note=57, velocity=95, time=2),
    Message('note_on', channel=4, note=61, velocity=95, time=2),
    Message('note_on', channel=4, note=64, velocity=95, time=2),
    Message('note_off', channel=4, note=64, velocity=95, time=232),
    Message('note_off', channel=4, note=61, velocity=95, time=0),
    Message('note_off', channel=4, note=57, velocity=95, time=0),
    Message('note_off', channel=4, note=52, velocity=95, time=0),
    Message('note_off', channel=4, note=45, velocity=95, time=0),
    Message('note_on', channel=4, note=64, velocity=95, time=0),
    Message('note_on', channel=4, note=61, velocity=95, time=2),
    Message('note_on', channel=4, note=57, velocity=95, time=2),
    Message('note_on', channel=4, note=52, velocity=95, time=2),
    Message('note_on', channel=4, note=45, velocity=95, time=2),
    Message('note_off', channel=4, note=64, velocity=95, time=232),
    Message('note_off', channel=4, note=61, velocity=95, time=0),
    Message('note_off', channel=4, note=57, velocity=95, time=0),
    Message('note_off', channel=4, note=52, velocity=95, time=0),
    Message('note_off', channel=4, note=45, velocity=95, time=0),
    Message('note_on', channel=4, note=45, velocity=95, time=0),
    Message('note_on', channel=4, note=52, velocity=95, time=2),
    Message('note_on', channel=4, note=57, velocity=95, time=2),
    Message('note_on', channel=4, note=61, velocity=95, time=2),
    Message('note_on', channel=4, note=64, velocity=95, time=2),
    Message('note_off', channel=4, note=64, velocity=95, time=232),
    Message('note_off', channel=4, note=61, velocity=95, time=0),
    Message('note_off', channel=4, note=57, velocity=95, time=0),
    Message('note_off', channel=4, note=52, velocity=95, time=0),
    Message('note_off', channel=4, note=45, velocity=95, time=0),
    Message('note_on', channel=4, note=64, velocity=95, time=0),
    Message('note_on', channel=4, note=61, velocity=95, time=2),
    Message('note_on', channel=4, note=57, velocity=95, time=2),
    Message('note_on', channel=4, note=52, velocity=95, time=2),
    Message('note_on', channel=4, note=45, velocity=95, time=2),
    Message('note_off', channel=4, note=64, velocity=95, time=232),
    Message('note_off', channel=4, note=61, velocity=95, time=0),
    Message('note_off', channel=4, note=57, velocity=95, time=0),
    Message('note_off', channel=4, note=52, velocity=95, time=0),
    Message('note_off', channel=4, note=45, velocity=95, time=0),
    Message('note_on', channel=4, note=45, velocity=95, time=0),
    Message('note_on', channel=4, note=52, velocity=95, time=2),
    Message('note_on', channel=4, note=57, velocity=95, time=2),
    Message('note_on', channel=4, note=61, velocity=95, time=2),
    Message('note_on', channel=4, note=64, velocity=95, time=2),
    Message('note_off', channel=4, note=64, velocity=95, time=232),
    Message('note_off', channel=4, note=61, velocity=95, time=0),
    Message('note_off', channel=4, note=57, velocity=95, time=0),
    Message('note_off', channel=4, note=52, velocity=95, time=0),
    Message('note_off', channel=4, note=45, velocity=95, time=0),
    Message('note_on', channel=4, note=64, velocity=95, time=0),
    Message('note_on', channel=4, note=61, velocity=95, time=2),
    Message('note_on', channel=4, note=57, velocity=95, time=2),
    Message('note_on', channel=4, note=52, velocity=95, time=2),
    Message('note_on', channel=4, note=45, velocity=95, time=2),
    Message('note_off', channel=4, note=64, velocity=95, time=232),
    Message('note_off', channel=4, note=61, velocity=95, time=0),
    Message('note_off', channel=4, note=57, velocity=95, time=0),
    Message('note_off', channel=4, note=52, velocity=95, time=0),
    Message('note_off', channel=4, note=45, velocity=95, time=0),
    Message('note_on', channel=4, note=40, velocity=95, time=0),
    Message('note_on', channel=4, note=47, velocity=95, time=4),
    Message('note_on', channel=4, note=52, velocity=95, time=4),
    Message('note_on', channel=4, note=56, velocity=95, time=4),
    Message('note_on', channel=4, note=59, velocity=95, time=4),
    Message('note_on', channel=4, note=64, velocity=95, time=4),
    Message('note_off', channel=4, note=64, velocity=95, time=460),
    Message('note_off', channel=4, note=59, velocity=95, time=0),
    Message('note_off', channel=4, note=56, velocity=95, time=0),
    Message('note_off', channel=4, note=52, velocity=95, time=0),
    Message('note_off', channel=4, note=47, velocity=95, time=0),
    Message('note_off', channel=4, note=40, velocity=95, time=0),
    Message('note_on', channel=4, note=40, velocity=95, time=0),
    Message('note_on', channel=4, note=47, velocity=95, time=2),
    Message('note_on', channel=4, note=52, velocity=95, time=2),
    Message('note_on', channel=4, note=56, velocity=95, time=2),
    Message('note_on', channel=4, note=59, velocity=95, time=2),
    Message('note_on', channel=4, note=64, velocity=95, time=2),
    Message('note_off', channel=4, note=64, velocity=95, time=230),
    Message('note_off', channel=4, note=59, velocity=95, time=0),
    Message('note_off', channel=4, note=56, velocity=95, time=0),
    Message('note_off', channel=4, note=52, velocity=95, time=0),
    Message('note_off', channel=4, note=47, velocity=95, time=0),
    Message('note_off', channel=4, note=40, velocity=95, time=0),
    Message('note_on', channel=4, note=64, velocity=95, time=0),
    Message('note_on', channel=4, note=59, velocity=95, time=2),
    Message('note_on', channel=4, note=56, velocity=95, time=2),
    Message('note_on', channel=4, note=52, velocity=95, time=2),
    Message('note_on', channel=4, note=47, velocity=95, time=2),
    Message('note_on', channel=4, note=40, velocity=95, time=2),
    Message('note_off', channel=4, note=64, velocity=95, time=230),
    Message('note_off', channel=4, note=59, velocity=95, time=0),
    Message('note_off', channel=4, note=56, velocity=95, time=0),
    Message('note_off', channel=4, note=52, velocity=95, time=0),
    Message('note_off', channel=4, note=47, velocity=95, time=0),
    Message('note_off', channel=4, note=40, velocity=95, time=0),
    Message('note_on', channel=4, note=40, velocity=95, time=0),
    Message('note_on', channel=4, note=47, velocity=95, time=2),
    Message('note_on', channel=4, note=52, velocity=95, time=2),
    Message('note_on', channel=4, note=56, velocity=95, time=2),
    Message('note_on', channel=4, note=59, velocity=95, time=2),
    Message('note_on', channel=4, note=64, velocity=95, time=2),
    Message('note_off', channel=4, note=64, velocity=95, time=230),
    Message('note_off', channel=4, note=59, velocity=95, time=0),
    Message('note_off', channel=4, note=56, velocity=95, time=0),
    Message('note_off', channel=4, note=52, velocity=95, time=0),
    Message('note_off', channel=4, note=47, velocity=95, time=0),
    Message('note_off', channel=4, note=40, velocity=95, time=0),
    Message('note_on', channel=4, note=64, velocity=95, time=0),
    Message('note_on', channel=4, note=59, velocity=95, time=2),
    Message('note_on', channel=4, note=56, velocity=95, time=2),
    Message('note_on', channel=4, note=52, velocity=95, time=2),
    Message('note_on', channel=4, note=47, velocity=95, time=2),
    Message('note_on', channel=4, note=40, velocity=95, time=2),
    Message('note_off', channel=4, note=64, velocity=95, time=230),
    Message('note_off', channel=4, note=59, velocity=95, time=0),
    Message('note_off', channel=4, note=56, velocity=95, time=0),
    Message('note_off', channel=4, note=52, velocity=95, time=0),
    Message('note_off', channel=4, note=47, velocity=95, time=0),
    Message('note_off', channel=4, note=40, velocity=95, time=0),
    Message('note_on', channel=4, note=40, velocity=95, time=0),
    Message('note_on', channel=4, note=47, velocity=95, time=2),
    Message('note_on', channel=4, note=52, velocity=95, time=2),
    Message('note_on', channel=4, note=56, velocity=95, time=2),
    Message('note_on', channel=4, note=59, velocity=95, time=2),
    Message('note_on', channel=4, note=64, velocity=95, time=2),
    Message('note_off', channel=4, note=64, velocity=95, time=230),
    Message('note_off', channel=4, note=59, velocity=95, time=0),
    Message('note_off', channel=4, note=56, velocity=95, time=0),
    Message('note_off', channel=4, note=52, velocity=95, time=0),
    Message('note_off', channel=4, note=47, velocity=95, time=0),
    Message('note_off', channel=4, note=40, velocity=95, time=0),
    Message('note_on', channel=4, note=64, velocity=95, time=0),
    Message('note_on', channel=4, note=59, velocity=95, time=2),
    Message('note_on', channel=4, note=56, velocity=95, time=2),
    Message('note_on', channel=4, note=52, velocity=95, time=2),
    Message('note_on', channel=4, note=47, velocity=95, time=2),
    Message('note_on', channel=4, note=40, velocity=95, time=2),
    Message('note_off', channel=4, note=64, velocity=95, time=230),
    Message('note_off', channel=4, note=59, velocity=95, time=0),
    Message('note_off', channel=4, note=56, velocity=95, time=0),
    Message('note_off', channel=4, note=52, velocity=95, time=0),
    Message('note_off', channel=4, note=47, velocity=95, time=0),
    Message('note_off', channel=4, note=40, velocity=95, time=0),
    Message('note_on', channel=4, note=43, velocity=95, time=0),
    Message('note_on', channel=4, note=47, velocity=95, time=4),
    Message('note_on', channel=4, note=50, velocity=95, time=4),
    Message('note_on', channel=4, note=55, velocity=95, time=4),
    Message('note_on', channel=4, note=62, velocity=95, time=4),
    Message('note_on', channel=4, note=67, velocity=95, time=4),
    Message('note_off', channel=4, note=67, velocity=95, time=460),
    Message('note_off', channel=4, note=62, velocity=95, time=0),
    Message('note_off', channel=4, note=55, velocity=95, time=0),
    Message('note_off', channel=4, note=50, velocity=95, time=0),
    Message('note_off', channel=4, note=47, velocity=95, time=0),
    Message('note_off', channel=4, note=43, velocity=95, time=0),
    Message('note_on', channel=4, note=43, velocity=95, time=0),
    Message('note_on', channel=4, note=47, velocity=95, time=2),
    Message('note_on', channel=4, note=50, velocity=95, time=2),
    Message('note_on', channel=4, note=55, velocity=95, time=2),
    Message('note_on', channel=4, note=62, velocity=95, time=2),
    Message('note_on', channel=4, note=67, velocity=95, time=2),
    Message('note_off', channel=4, note=67, velocity=95, time=230),
    Message('note_off', channel=4, note=62, velocity=95, time=0),
    Message('note_off', channel=4, note=55, velocity=95, time=0),
    Message('note_off', channel=4, note=50, velocity=95, time=0),
    Message('note_off', channel=4, note=47, velocity=95, time=0),
    Message('note_off', channel=4, note=43, velocity=95, time=0),
    Message('note_on', channel=4, note=67, velocity=95, time=0),
    Message('note_on', channel=4, note=62, velocity=95, time=2),
    Message('note_on', channel=4, note=55, velocity=95, time=2),
    Message('note_on', channel=4, note=50, velocity=95, time=2),
    Message('note_on', channel=4, note=47, velocity=95, time=2),
    Message('note_on', channel=4, note=43, velocity=95, time=2),
    Message('note_off', channel=4, note=67, velocity=95, time=230),
    Message('note_off', channel=4, note=62, velocity=95, time=0),
    Message('note_off', channel=4, note=55, velocity=95, time=0),
    Message('note_off', channel=4, note=50, velocity=95, time=0),
    Message('note_off', channel=4, note=47, velocity=95, time=0),
    Message('note_off', channel=4, note=43, velocity=95, time=0),
    Message('note_on', channel=4, note=43, velocity=95, time=0),
    Message('note_on', channel=4, note=47, velocity=95, time=2),
    Message('note_on', channel=4, note=50, velocity=95, time=2),
    Message('note_on', channel=4, note=55, velocity=95, time=2),
    Message('note_on', channel=4, note=62, velocity=95, time=2),
    Message('note_on', channel=4, note=67, velocity=95, time=2),
    Message('note_off', channel=4, note=67, velocity=95, time=230),
    Message('note_off', channel=4, note=62, velocity=95, time=0),
    Message('note_off', channel=4, note=55, velocity=95, time=0),
    Message('note_off', channel=4, note=50, velocity=95, time=0),
    Message('note_off', channel=4, note=47, velocity=95, time=0),
    Message('note_off', channel=4, note=43, velocity=95, time=0),
    Message('note_on', channel=4, note=67, velocity=95, time=0),
    Message('note_on', channel=4, note=62, velocity=95, time=2),
    Message('note_on', channel=4, note=55, velocity=95, time=2),
    Message('note_on', channel=4, note=50, velocity=95, time=2),
    Message('note_on', channel=4, note=47, velocity=95, time=2),
    Message('note_on', channel=4, note=43, velocity=95, time=2),
    Message('note_off', channel=4, note=67, velocity=95, time=230),
    Message('note_off', channel=4, note=62, velocity=95, time=0),
    Message('note_off', channel=4, note=55, velocity=95, time=0),
    Message('note_off', channel=4, note=50, velocity=95, time=0),
    Message('note_off', channel=4, note=47, velocity=95, time=0),
    Message('note_off', channel=4, note=43, velocity=95, time=0),
    Message('note_on', channel=4, note=43, velocity=95, time=0),
    Message('note_on', channel=4, note=47, velocity=95, time=2),
    Message('note_on', channel=4, note=50, velocity=95, time=2),
    Message('note_on', channel=4, note=55, velocity=95, time=2),
    Message('note_on', channel=4, note=62, velocity=95, time=2),
    Message('note_on', channel=4, note=67, velocity=95, time=2),
    Message('note_off', channel=4, note=67, velocity=95, time=230),
    Message('note_off', channel=4, note=62, velocity=95, time=0),
    Message('note_off', channel=4, note=55, velocity=95, time=0),
    Message('note_off', channel=4, note=50, velocity=95, time=0),
    Message('note_off', channel=4, note=47, velocity=95, time=0),
    Message('note_off', channel=4, note=43, velocity=95, time=0),
    Message('note_on', channel=4, note=67, velocity=95, time=0),
    Message('note_on', channel=4, note=62, velocity=95, time=2),
    Message('note_on', channel=4, note=55, velocity=95, time=2),
    Message('note_on', channel=4, note=50, velocity=95, time=2),
    Message('note_on', channel=4, note=47, velocity=95, time=2),
    Message('note_on', channel=4, note=43, velocity=95, time=2),
    Message('note_off', channel=4, note=67, velocity=95, time=230),
    Message('note_off', channel=4, note=62, velocity=95, time=0),
    Message('note_off', channel=4, note=55, velocity=95, time=0),
    Message('note_off', channel=4, note=50, velocity=95, time=0),
    Message('note_off', channel=4, note=47, velocity=95, time=0),
    Message('note_off', channel=4, note=43, velocity=95, time=0),
    Message('note_on', channel=4, note=50, velocity=95, time=0),
    Message('note_on', channel=4, note=57, velocity=95, time=4),
    Message('note_on', channel=4, note=62, velocity=95, time=4),
    Message('note_on', channel=4, note=66, velocity=95, time=4),
    Message('note_off', channel=4, note=66, velocity=95, time=468),
    Message('note_off', channel=4, note=62, velocity=95, time=0),
    Message('note_off', channel=4, note=57, velocity=95, time=0),
    Message('note_off', channel=4, note=50, velocity=95, time=0),
    Message('note_on', channel=4, note=50, velocity=95, time=0),
    Message('note_on', channel=4, note=57, velocity=95, time=2),
    Message('note_on', channel=4, note=62, velocity=95, time=2),
    Message('note_on', channel=4, note=66, velocity=95, time=2),
    Message('note_off', channel=4, note=66, velocity=95, time=234),
    Message('note_off', channel=4, note=62, velocity=95, time=0),
    Message('note_off', channel=4, note=57, velocity=95, time=0),
    Message('note_off', channel=4, note=50, velocity=95, time=0),
    Message('note_on', channel=4, note=66, velocity=95, time=0),
    Message('note_on', channel=4, note=62, velocity=95, time=2),
    Message('note_on', channel=4, note=57, velocity=95, time=2),
    Message('note_on', channel=4, note=50, velocity=95, time=2),
    Message('note_off', channel=4, note=66, velocity=95, time=234),
    Message('note_off', channel=4, note=62, velocity=95, time=0),
    Message('note_off', channel=4, note=57, velocity=95, time=0),
    Message('note_off', channel=4, note=50, velocity=95, time=0),
    Message('note_on', channel=4, note=50, velocity=95, time=0),
    Message('note_on', channel=4, note=57, velocity=95, time=2),
    Message('note_on', channel=4, note=62, velocity=95, time=2),
    Message('note_on', channel=4, note=66, velocity=95, time=2),
    Message('note_off', channel=4, note=66, velocity=95, time=234),
    Message('note_off', channel=4, note=62, velocity=95, time=0),
    Message('note_off', channel=4, note=57, velocity=95, time=0),
    Message('note_off', channel=4, note=50, velocity=95, time=0),
    Message('note_on', channel=4, note=66, velocity=95, time=0),
    Message('note_on', channel=4, note=62, velocity=95, time=2),
    Message('note_on', channel=4, note=57, velocity=95, time=2),
    Message('note_on', channel=4, note=50, velocity=95, time=2),
    Message('note_off', channel=4, note=66, velocity=95, time=234),
    Message('note_off', channel=4, note=62, velocity=95, time=0),
    Message('note_off', channel=4, note=57, velocity=95, time=0),
    Message('note_off', channel=4, note=50, velocity=95, time=0),
    Message('note_on', channel=4, note=50, velocity=95, time=0),
    Message('note_on', channel=4, note=57, velocity=95, time=2),
    Message('note_on', channel=4, note=62, velocity=95, time=2),
    Message('note_on', channel=4, note=66, velocity=95, time=2),
    Message('note_off', channel=4, note=66, velocity=95, time=234),
    Message('note_off', channel=4, note=62, velocity=95, time=0),
    Message('note_off', channel=4, note=57, velocity=95, time=0),
    Message('note_off', channel=4, note=50, velocity=95, time=0),
    Message('note_on', channel=4, note=66, velocity=95, time=0),
    Message('note_on', channel=4, note=62, velocity=95, time=2),
    Message('note_on', channel=4, note=57, velocity=95, time=2),
    Message('note_on', channel=4, note=50, velocity=95, time=2),
    Message('note_off', channel=4, note=66, velocity=95, time=234),
    Message('note_off', channel=4, note=62, velocity=95, time=0),
    Message('note_off', channel=4, note=57, velocity=95, time=0),
    Message('note_off', channel=4, note=50, velocity=95, time=0),
    Message('note_on', channel=4, note=45, velocity=95, time=0),
    Message('note_on', channel=4, note=52, velocity=95, time=4),
    Message('note_on', channel=4, note=57, velocity=95, time=4),
    Message('note_on', channel=4, note=61, velocity=95, time=4),
    Message('note_on', channel=4, note=64, velocity=95, time=4),
    Message('note_off', channel=4, note=64, velocity=95, time=464),
    Message('note_off', channel=4, note=61, velocity=95, time=0),
    Message('note_off', channel=4, note=57, velocity=95, time=0),
    Message('note_off', channel=4, note=52, velocity=95, time=0),
    Message('note_off', channel=4, note=45, velocity=95, time=0),
    Message('note_on', channel=4, note=45, velocity=95, time=0),
    Message('note_on', channel=4, note=52, velocity=95, time=2),
    Message('note_on', channel=4, note=57, velocity=95, time=2),
    Message('note_on', channel=4, note=61, velocity=95, time=2),
    Message('note_on', channel=4, note=64, velocity=95, time=2),
    Message('note_off', channel=4, note=64, velocity=95, time=232),
    Message('note_off', channel=4, note=61, velocity=95, time=0),
    Message('note_off', channel=4, note=57, velocity=95, time=0),
    Message('note_off', channel=4, note=52, velocity=95, time=0),
    Message('note_off', channel=4, note=45, velocity=95, time=0),
    Message('note_on', channel=4, note=64, velocity=95, time=0),
    Message('note_on', channel=4, note=61, velocity=95, time=2),
    Message('note_on', channel=4, note=57, velocity=95, time=2),
    Message('note_on', channel=4, note=52, velocity=95, time=2),
    Message('note_on', channel=4, note=45, velocity=95, time=2),
    Message('note_off', channel=4, note=64, velocity=95, time=232),
    Message('note_off', channel=4, note=61, velocity=95, time=0),
    Message('note_off', channel=4, note=57, velocity=95, time=0),
    Message('note_off', channel=4, note=52, velocity=95, time=0),
    Message('note_off', channel=4, note=45, velocity=95, time=0),
    Message('note_on', channel=4, note=45, velocity=95, time=0),
    Message('note_on', channel=4, note=52, velocity=95, time=2),
    Message('note_on', channel=4, note=57, velocity=95, time=2),
    Message('note_on', channel=4, note=61, velocity=95, time=2),
    Message('note_on', channel=4, note=64, velocity=95, time=2),
    Message('note_off', channel=4, note=64, velocity=95, time=232),
    Message('note_off', channel=4, note=61, velocity=95, time=0),
    Message('note_off', channel=4, note=57, velocity=95, time=0),
    Message('note_off', channel=4, note=52, velocity=95, time=0),
    Message('note_off', channel=4, note=45, velocity=95, time=0),
    Message('note_on', channel=4, note=64, velocity=95, time=0),
    Message('note_on', channel=4, note=61, velocity=95, time=2),
    Message('note_on', channel=4, note=57, velocity=95, time=2),
    Message('note_on', channel=4, note=52, velocity=95, time=2),
    Message('note_on', channel=4, note=45, velocity=95, time=2),
    Message('note_off', channel=4, note=64, velocity=95, time=232),
    Message('note_off', channel=4, note=61, velocity=95, time=0),
    Message('note_off', channel=4, note=57, velocity=95, time=0),
    Message('note_off', channel=4, note=52, velocity=95, time=0),
    Message('note_off', channel=4, note=45, velocity=95, time=0),
    Message('note_on', channel=4, note=45, velocity=95, time=0),
    Message('note_on', channel=4, note=52, velocity=95, time=2),
    Message('note_on', channel=4, note=57, velocity=95, time=2),
    Message('note_on', channel=4, note=61, velocity=95, time=2),
    Message('note_on', channel=4, note=64, velocity=95, time=2),
    Message('note_off', channel=4, note=64, velocity=95, time=232),
    Message('note_off', channel=4, note=61, velocity=95, time=0),
    Message('note_off', channel=4, note=57, velocity=95, time=0),
    Message('note_off', channel=4, note=52, velocity=95, time=0),
    Message('note_off', channel=4, note=45, velocity=95, time=0),
    Message('note_on', channel=4, note=64, velocity=95, time=0),
    Message('note_on', channel=4, note=61, velocity=95, time=2),
    Message('note_on', channel=4, note=57, velocity=95, time=2),
    Message('note_on', channel=4, note=52, velocity=95, time=2),
    Message('note_on', channel=4, note=45, velocity=95, time=2),
    Message('note_off', channel=4, note=64, velocity=95, time=232),
    Message('note_off', channel=4, note=61, velocity=95, time=0),
    Message('note_off', channel=4, note=57, velocity=95, time=0),
    Message('note_off', channel=4, note=52, velocity=95, time=0),
    Message('note_off', channel=4, note=45, velocity=95, time=0),
    Message('note_on', channel=4, note=40, velocity=95, time=0),
    Message('note_on', channel=4, note=47, velocity=95, time=4),
    Message('note_on', channel=4, note=52, velocity=95, time=4),
    Message('note_on', channel=4, note=56, velocity=95, time=4),
    Message('note_on', channel=4, note=59, velocity=95, time=4),
    Message('note_on', channel=4, note=64, velocity=95, time=4),
    Message('note_off', channel=4, note=64, velocity=95, time=460),
    Message('note_off', channel=4, note=59, velocity=95, time=0),
    Message('note_off', channel=4, note=56, velocity=95, time=0),
    Message('note_off', channel=4, note=52, velocity=95, time=0),
    Message('note_off', channel=4, note=47, velocity=95, time=0),
    Message('note_off', channel=4, note=40, velocity=95, time=0),
    Message('note_on', channel=4, note=40, velocity=95, time=0),
    Message('note_on', channel=4, note=47, velocity=95, time=2),
    Message('note_on', channel=4, note=52, velocity=95, time=2),
    Message('note_on', channel=4, note=56, velocity=95, time=2),
    Message('note_on', channel=4, note=59, velocity=95, time=2),
    Message('note_on', channel=4, note=64, velocity=95, time=2),
    Message('note_off', channel=4, note=64, velocity=95, time=230),
    Message('note_off', channel=4, note=59, velocity=95, time=0),
    Message('note_off', channel=4, note=56, velocity=95, time=0),
    Message('note_off', channel=4, note=52, velocity=95, time=0),
    Message('note_off', channel=4, note=47, velocity=95, time=0),
    Message('note_off', channel=4, note=40, velocity=95, time=0),
    Message('note_on', channel=4, note=64, velocity=95, time=0),
    Message('note_on', channel=4, note=59, velocity=95, time=2),
    Message('note_on', channel=4, note=56, velocity=95, time=2),
    Message('note_on', channel=4, note=52, velocity=95, time=2),
    Message('note_on', channel=4, note=47, velocity=95, time=2),
    Message('note_on', channel=4, note=40, velocity=95, time=2),
    Message('note_off', channel=4, note=64, velocity=95, time=230),
    Message('note_off', channel=4, note=59, velocity=95, time=0),
    Message('note_off', channel=4, note=56, velocity=95, time=0),
    Message('note_off', channel=4, note=52, velocity=95, time=0),
    Message('note_off', channel=4, note=47, velocity=95, time=0),
    Message('note_off', channel=4, note=40, velocity=95, time=0),
    Message('note_on', channel=4, note=40, velocity=95, time=0),
    Message('note_on', channel=4, note=47, velocity=95, time=2),
    Message('note_on', channel=4, note=52, velocity=95, time=2),
    Message('note_on', channel=4, note=56, velocity=95, time=2),
    Message('note_on', channel=4, note=59, velocity=95, time=2),
    Message('note_on', channel=4, note=64, velocity=95, time=2),
    Message('note_off', channel=4, note=64, velocity=95, time=230),
    Message('note_off', channel=4, note=59, velocity=95, time=0),
    Message('note_off', channel=4, note=56, velocity=95, time=0),
    Message('note_off', channel=4, note=52, velocity=95, time=0),
    Message('note_off', channel=4, note=47, velocity=95, time=0),
    Message('note_off', channel=4, note=40, velocity=95, time=0),
    Message('note_on', channel=4, note=64, velocity=95, time=0),
    Message('note_on', channel=4, note=59, velocity=95, time=2),
    Message('note_on', channel=4, note=56, velocity=95, time=2),
    Message('note_on', channel=4, note=52, velocity=95, time=2),
    Message('note_on', channel=4, note=47, velocity=95, time=2),
    Message('note_on', channel=4, note=40, velocity=95, time=2),
    Message('note_off', channel=4, note=64, velocity=95, time=230),
    Message('note_off', channel=4, note=59, velocity=95, time=0),
    Message('note_off', channel=4, note=56, velocity=95, time=0),
    Message('note_off', channel=4, note=52, velocity=95, time=0),
    Message('note_off', channel=4, note=47, velocity=95, time=0),
    Message('note_off', channel=4, note=40, velocity=95, time=0),
    Message('note_on', channel=4, note=40, velocity=95, time=0),
    Message('note_on', channel=4, note=47, velocity=95, time=2),
    Message('note_on', channel=4, note=52, velocity=95, time=2),
    Message('note_on', channel=4, note=56, velocity=95, time=2),
    Message('note_on', channel=4, note=59, velocity=95, time=2),
    Message('note_on', channel=4, note=64, velocity=95, time=2),
    Message('note_off', channel=4, note=64, velocity=95, time=230),
    Message('note_off', channel=4, note=59, velocity=95, time=0),
    Message('note_off', channel=4, note=56, velocity=95, time=0),
    Message('note_off', channel=4, note=52, velocity=95, time=0),
    Message('note_off', channel=4, note=47, velocity=95, time=0),
    Message('note_off', channel=4, note=40, velocity=95, time=0),
    Message('note_on', channel=4, note=64, velocity=95, time=0),
    Message('note_on', channel=4, note=59, velocity=95, time=2),
    Message('note_on', channel=4, note=56, velocity=95, time=2),
    Message('note_on', channel=4, note=52, velocity=95, time=2),
    Message('note_on', channel=4, note=47, velocity=95, time=2),
    Message('note_on', channel=4, note=40, velocity=95, time=2),
    Message('note_off', channel=4, note=64, velocity=95, time=230),
    Message('note_off', channel=4, note=59, velocity=95, time=0),
    Message('note_off', channel=4, note=56, velocity=95, time=0),
    Message('note_off', channel=4, note=52, velocity=95, time=0),
    Message('note_off', channel=4, note=47, velocity=95, time=0),
    Message('note_off', channel=4, note=40, velocity=95, time=0),
    Message('note_on', channel=4, note=43, velocity=95, time=0),
    Message('note_on', channel=4, note=47, velocity=95, time=4),
    Message('note_on', channel=4, note=50, velocity=95, time=4),
    Message('note_on', channel=4, note=55, velocity=95, time=4),
    Message('note_on', channel=4, note=62, velocity=95, time=4),
    Message('note_on', channel=4, note=67, velocity=95, time=4),
    Message('note_off', channel=4, note=67, velocity=95, time=460),
    Message('note_off', channel=4, note=62, velocity=95, time=0),
    Message('note_off', channel=4, note=55, velocity=95, time=0),
    Message('note_off', channel=4, note=50, velocity=95, time=0),
    Message('note_off', channel=4, note=47, velocity=95, time=0),
    Message('note_off', channel=4, note=43, velocity=95, time=0),
    Message('note_on', channel=4, note=43, velocity=95, time=0),
    Message('note_on', channel=4, note=47, velocity=95, time=2),
    Message('note_on', channel=4, note=50, velocity=95, time=2),
    Message('note_on', channel=4, note=55, velocity=95, time=2),
    Message('note_on', channel=4, note=62, velocity=95, time=2),
    Message('note_on', channel=4, note=67, velocity=95, time=2),
    Message('note_off', channel=4, note=67, velocity=95, time=230),
    Message('note_off', channel=4, note=62, velocity=95, time=0),
    Message('note_off', channel=4, note=55, velocity=95, time=0),
    Message('note_off', channel=4, note=50, velocity=95, time=0),
    Message('note_off', channel=4, note=47, velocity=95, time=0),
    Message('note_off', channel=4, note=43, velocity=95, time=0),
    Message('note_on', channel=4, note=67, velocity=95, time=0),
    Message('note_on', channel=4, note=62, velocity=95, time=2),
    Message('note_on', channel=4, note=55, velocity=95, time=2),
    Message('note_on', channel=4, note=50, velocity=95, time=2),
    Message('note_on', channel=4, note=47, velocity=95, time=2),
    Message('note_on', channel=4, note=43, velocity=95, time=2),
    Message('note_off', channel=4, note=67, velocity=95, time=230),
    Message('note_off', channel=4, note=62, velocity=95, time=0),
    Message('note_off', channel=4, note=55, velocity=95, time=0),
    Message('note_off', channel=4, note=50, velocity=95, time=0),
    Message('note_off', channel=4, note=47, velocity=95, time=0),
    Message('note_off', channel=4, note=43, velocity=95, time=0),
    Message('note_on', channel=4, note=43, velocity=95, time=0),
    Message('note_on', channel=4, note=47, velocity=95, time=2),
    Message('note_on', channel=4, note=50, velocity=95, time=2),
    Message('note_on', channel=4, note=55, velocity=95, time=2),
    Message('note_on', channel=4, note=62, velocity=95, time=2),
    Message('note_on', channel=4, note=67, velocity=95, time=2),
    Message('note_off', channel=4, note=67, velocity=95, time=230),
    Message('note_off', channel=4, note=62, velocity=95, time=0),
    Message('note_off', channel=4, note=55, velocity=95, time=0),
    Message('note_off', channel=4, note=50, velocity=95, time=0),
    Message('note_off', channel=4, note=47, velocity=95, time=0),
    Message('note_off', channel=4, note=43, velocity=95, time=0),
    Message('note_on', channel=4, note=67, velocity=95, time=0),
    Message('note_on', channel=4, note=62, velocity=95, time=2),
    Message('note_on', channel=4, note=55, velocity=95, time=2),
    Message('note_on', channel=4, note=50, velocity=95, time=2),
    Message('note_on', channel=4, note=47, velocity=95, time=2),
    Message('note_on', channel=4, note=43, velocity=95, time=2),
    Message('note_off', channel=4, note=67, velocity=95, time=230),
    Message('note_off', channel=4, note=62, velocity=95, time=0),
    Message('note_off', channel=4, note=55, velocity=95, time=0),
    Message('note_off', channel=4, note=50, velocity=95, time=0),
    Message('note_off', channel=4, note=47, velocity=95, time=0),
    Message('note_off', channel=4, note=43, velocity=95, time=0),
    Message('note_on', channel=4, note=43, velocity=95, time=0),
    Message('note_on', channel=4, note=47, velocity=95, time=2),
    Message('note_on', channel=4, note=50, velocity=95, time=2),
    Message('note_on', channel=4, note=55, velocity=95, time=2),
    Message('note_on', channel=4, note=62, velocity=95, time=2),
    Message('note_on', channel=4, note=67, velocity=95, time=2),
    Message('note_off', channel=4, note=67, velocity=95, time=230),
    Message('note_off', channel=4, note=62, velocity=95, time=0),
    Message('note_off', channel=4, note=55, velocity=95, time=0),
    Message('note_off', channel=4, note=50, velocity=95, time=0),
    Message('note_off', channel=4, note=47, velocity=95, time=0),
    Message('note_off', channel=4, note=43, velocity=95, time=0),
    Message('note_on', channel=4, note=67, velocity=95, time=0),
    Message('note_on', channel=4, note=62, velocity=95, time=2),
    Message('note_on', channel=4, note=55, velocity=95, time=2),
    Message('note_on', channel=4, note=50, velocity=95, time=2),
    Message('note_on', channel=4, note=47, velocity=95, time=2),
    Message('note_on', channel=4, note=43, velocity=95, time=2),
    Message('note_off', channel=4, note=67, velocity=95, time=230),
    Message('note_off', channel=4, note=62, velocity=95, time=0),
    Message('note_off', channel=4, note=55, velocity=95, time=0),
    Message('note_off', channel=4, note=50, velocity=95, time=0),
    Message('note_off', channel=4, note=47, velocity=95, time=0),
    Message('note_off', channel=4, note=43, velocity=95, time=0),
    Message('note_on', channel=4, note=50, velocity=95, time=0),
    Message('note_on', channel=4, note=57, velocity=95, time=4),
    Message('note_on', channel=4, note=62, velocity=95, time=4),
    Message('note_on', channel=4, note=66, velocity=95, time=4),
    Message('note_off', channel=4, note=66, velocity=95, time=468),
    Message('note_off', channel=4, note=62, velocity=95, time=0),
    Message('note_off', channel=4, note=57, velocity=95, time=0),
    Message('note_off', channel=4, note=50, velocity=95, time=0),
    Message('note_on', channel=4, note=50, velocity=95, time=0),
    Message('note_on', channel=4, note=57, velocity=95, time=2),
    Message('note_on', channel=4, note=62, velocity=95, time=2),
    Message('note_on', channel=4, note=66, velocity=95, time=2),
    Message('note_off', channel=4, note=66, velocity=95, time=234),
    Message('note_off', channel=4, note=62, velocity=95, time=0),
    Message('note_off', channel=4, note=57, velocity=95, time=0),
    Message('note_off', channel=4, note=50, velocity=95, time=0),
    Message('note_on', channel=4, note=66, velocity=95, time=0),
    Message('note_on', channel=4, note=62, velocity=95, time=2),
    Message('note_on', channel=4, note=57, velocity=95, time=2),
    Message('note_on', channel=4, note=50, velocity=95, time=2),
    Message('note_off', channel=4, note=66, velocity=95, time=234),
    Message('note_off', channel=4, note=62, velocity=95, time=0),
    Message('note_off', channel=4, note=57, velocity=95, time=0),
    Message('note_off', channel=4, note=50, velocity=95, time=0),
    Message('note_on', channel=4, note=50, velocity=95, time=0),
    Message('note_on', channel=4, note=57, velocity=95, time=2),
    Message('note_on', channel=4, note=62, velocity=95, time=2),
    Message('note_on', channel=4, note=66, velocity=95, time=2),
    Message('note_off', channel=4, note=66, velocity=95, time=234),
    Message('note_off', channel=4, note=62, velocity=95, time=0),
    Message('note_off', channel=4, note=57, velocity=95, time=0),
    Message('note_off', channel=4, note=50, velocity=95, time=0),
    Message('note_on', channel=4, note=66, velocity=95, time=0),
    Message('note_on', channel=4, note=62, velocity=95, time=2),
    Message('note_on', channel=4, note=57, velocity=95, time=2),
    Message('note_on', channel=4, note=50, velocity=95, time=2),
    Message('note_off', channel=4, note=66, velocity=95, time=234),
    Message('note_off', channel=4, note=62, velocity=95, time=0),
    Message('note_off', channel=4, note=57, velocity=95, time=0),
    Message('note_off', channel=4, note=50, velocity=95, time=0),
    Message('note_on', channel=4, note=50, velocity=95, time=0),
    Message('note_on', channel=4, note=57, velocity=95, time=2),
    Message('note_on', channel=4, note=62, velocity=95, time=2),
    Message('note_on', channel=4, note=66, velocity=95, time=2),
    Message('note_off', channel=4, note=66, velocity=95, time=234),
    Message('note_off', channel=4, note=62, velocity=95, time=0),
    Message('note_off', channel=4, note=57, velocity=95, time=0),
    Message('note_off', channel=4, note=50, velocity=95, time=0),
    Message('note_on', channel=4, note=66, velocity=95, time=0),
    Message('note_on', channel=4, note=62, velocity=95, time=2),
    Message('note_on', channel=4, note=57, velocity=95, time=2),
    Message('note_on', channel=4, note=50, velocity=95, time=2),
    Message('note_off', channel=4, note=66, velocity=95, time=234),
    Message('note_off', channel=4, note=62, velocity=95, time=0),
    Message('note_off', channel=4, note=57, velocity=95, time=0),
    Message('note_off', channel=4, note=50, velocity=95, time=0),
    Message('note_on', channel=4, note=45, velocity=95, time=0),
    Message('note_on', channel=4, note=52, velocity=95, time=4),
    Message('note_on', channel=4, note=57, velocity=95, time=4),
    Message('note_on', channel=4, note=61, velocity=95, time=4),
    Message('note_on', channel=4, note=64, velocity=95, time=4),
    Message('note_off', channel=4, note=64, velocity=95, time=464),
    Message('note_off', channel=4, note=61, velocity=95, time=0),
    Message('note_off', channel=4, note=57, velocity=95, time=0),
    Message('note_off', channel=4, note=52, velocity=95, time=0),
    Message('note_off', channel=4, note=45, velocity=95, time=0),
    Message('note_on', channel=4, note=45, velocity=95, time=0),
    Message('note_on', channel=4, note=52, velocity=95, time=2),
    Message('note_on', channel=4, note=57, velocity=95, time=2),
    Message('note_on', channel=4, note=61, velocity=95, time=2),
    Message('note_on', channel=4, note=64, velocity=95, time=2),
    Message('note_off', channel=4, note=64, velocity=95, time=232),
    Message('note_off', channel=4, note=61, velocity=95, time=0),
    Message('note_off', channel=4, note=57, velocity=95, time=0),
    Message('note_off', channel=4, note=52, velocity=95, time=0),
    Message('note_off', channel=4, note=45, velocity=95, time=0),
    Message('note_on', channel=4, note=64, velocity=95, time=0),
    Message('note_on', channel=4, note=61, velocity=95, time=2),
    Message('note_on', channel=4, note=57, velocity=95, time=2),
    Message('note_on', channel=4, note=52, velocity=95, time=2),
    Message('note_on', channel=4, note=45, velocity=95, time=2),
    Message('note_off', channel=4, note=64, velocity=95, time=232),
    Message('note_off', channel=4, note=61, velocity=95, time=0),
    Message('note_off', channel=4, note=57, velocity=95, time=0),
    Message('note_off', channel=4, note=52, velocity=95, time=0),
    Message('note_off', channel=4, note=45, velocity=95, time=0),
    Message('note_on', channel=4, note=45, velocity=95, time=0),
    Message('note_on', channel=4, note=52, velocity=95, time=2),
    Message('note_on', channel=4, note=57, velocity=95, time=2),
    Message('note_on', channel=4, note=61, velocity=95, time=2),
    Message('note_on', channel=4, note=64, velocity=95, time=2),
    Message('note_off', channel=4, note=64, velocity=95, time=232),
    Message('note_off', channel=4, note=61, velocity=95, time=0),
    Message('note_off', channel=4, note=57, velocity=95, time=0),
    Message('note_off', channel=4, note=52, velocity=95, time=0),
    Message('note_off', channel=4, note=45, velocity=95, time=0),
    Message('note_on', channel=4, note=64, velocity=95, time=0),
    Message('note_on', channel=4, note=61, velocity=95, time=2),
    Message('note_on', channel=4, note=57, velocity=95, time=2),
    Message('note_on', channel=4, note=52, velocity=95, time=2),
    Message('note_on', channel=4, note=45, velocity=95, time=2),
    Message('note_off', channel=4, note=64, velocity=95, time=232),
    Message('note_off', channel=4, note=61, velocity=95, time=0),
    Message('note_off', channel=4, note=57, velocity=95, time=0),
    Message('note_off', channel=4, note=52, velocity=95, time=0),
    Message('note_off', channel=4, note=45, velocity=95, time=0),
    Message('note_on', channel=4, note=45, velocity=95, time=0),
    Message('note_on', channel=4, note=52, velocity=95, time=2),
    Message('note_on', channel=4, note=57, velocity=95, time=2),
    Message('note_on', channel=4, note=61, velocity=95, time=2),
    Message('note_on', channel=4, note=64, velocity=95, time=2),
    Message('note_off', channel=4, note=64, velocity=95, time=232),
    Message('note_off', channel=4, note=61, velocity=95, time=0),
    Message('note_off', channel=4, note=57, velocity=95, time=0),
    Message('note_off', channel=4, note=52, velocity=95, time=0),
    Message('note_off', channel=4, note=45, velocity=95, time=0),
    Message('note_on', channel=4, note=64, velocity=95, time=0),
    Message('note_on', channel=4, note=61, velocity=95, time=2),
    Message('note_on', channel=4, note=57, velocity=95, time=2),
    Message('note_on', channel=4, note=52, velocity=95, time=2),
    Message('note_on', channel=4, note=45, velocity=95, time=2),
    Message('note_off', channel=4, note=64, velocity=95, time=232),
    Message('note_off', channel=4, note=61, velocity=95, time=0),
    Message('note_off', channel=4, note=57, velocity=95, time=0),
    Message('note_off', channel=4, note=52, velocity=95, time=0),
    Message('note_off', channel=4, note=45, velocity=95, time=0),
    Message('note_on', channel=4, note=40, velocity=95, time=0),
    Message('note_on', channel=4, note=47, velocity=95, time=4),
    Message('note_on', channel=4, note=52, velocity=95, time=4),
    Message('note_on', channel=4, note=56, velocity=95, time=4),
    Message('note_on', channel=4, note=59, velocity=95, time=4),
    Message('note_on', channel=4, note=64, velocity=95, time=4),
    Message('note_off', channel=4, note=64, velocity=95, time=460),
    Message('note_off', channel=4, note=59, velocity=95, time=0),
    Message('note_off', channel=4, note=56, velocity=95, time=0),
    Message('note_off', channel=4, note=52, velocity=95, time=0),
    Message('note_off', channel=4, note=47, velocity=95, time=0),
    Message('note_off', channel=4, note=40, velocity=95, time=0),
    Message('note_on', channel=4, note=40, velocity=95, time=0),
    Message('note_on', channel=4, note=47, velocity=95, time=2),
    Message('note_on', channel=4, note=52, velocity=95, time=2),
    Message('note_on', channel=4, note=56, velocity=95, time=2),
    Message('note_on', channel=4, note=59, velocity=95, time=2),
    Message('note_on', channel=4, note=64, velocity=95, time=2),
    Message('note_off', channel=4, note=64, velocity=95, time=230),
    Message('note_off', channel=4, note=59, velocity=95, time=0),
    Message('note_off', channel=4, note=56, velocity=95, time=0),
    Message('note_off', channel=4, note=52, velocity=95, time=0),
    Message('note_off', channel=4, note=47, velocity=95, time=0),
    Message('note_off', channel=4, note=40, velocity=95, time=0),
    Message('note_on', channel=4, note=64, velocity=95, time=0),
    Message('note_on', channel=4, note=59, velocity=95, time=2),
    Message('note_on', channel=4, note=56, velocity=95, time=2),
    Message('note_on', channel=4, note=52, velocity=95, time=2),
    Message('note_on', channel=4, note=47, velocity=95, time=2),
    Message('note_on', channel=4, note=40, velocity=95, time=2),
    Message('note_off', channel=4, note=64, velocity=95, time=230),
    Message('note_off', channel=4, note=59, velocity=95, time=0),
    Message('note_off', channel=4, note=56, velocity=95, time=0),
    Message('note_off', channel=4, note=52, velocity=95, time=0),
    Message('note_off', channel=4, note=47, velocity=95, time=0),
    Message('note_off', channel=4, note=40, velocity=95, time=0),
    Message('note_on', channel=4, note=40, velocity=95, time=0),
    Message('note_on', channel=4, note=47, velocity=95, time=2),
    Message('note_on', channel=4, note=52, velocity=95, time=2),
    Message('note_on', channel=4, note=56, velocity=95, time=2),
    Message('note_on', channel=4, note=59, velocity=95, time=2),
    Message('note_on', channel=4, note=64, velocity=95, time=2),
    Message('note_off', channel=4, note=64, velocity=95, time=230),
    Message('note_off', channel=4, note=59, velocity=95, time=0),
    Message('note_off', channel=4, note=56, velocity=95, time=0),
    Message('note_off', channel=4, note=52, velocity=95, time=0),
    Message('note_off', channel=4, note=47, velocity=95, time=0),
    Message('note_off', channel=4, note=40, velocity=95, time=0),
    Message('note_on', channel=4, note=64, velocity=95, time=0),
    Message('note_on', channel=4, note=59, velocity=95, time=2),
    Message('note_on', channel=4, note=56, velocity=95, time=2),
    Message('note_on', channel=4, note=52, velocity=95, time=2),
    Message('note_on', channel=4, note=47, velocity=95, time=2),
    Message('note_on', channel=4, note=40, velocity=95, time=2),
    Message('note_off', channel=4, note=64, velocity=95, time=230),
    Message('note_off', channel=4, note=59, velocity=95, time=0),
    Message('note_off', channel=4, note=56, velocity=95, time=0),
    Message('note_off', channel=4, note=52, velocity=95, time=0),
    Message('note_off', channel=4, note=47, velocity=95, time=0),
    Message('note_off', channel=4, note=40, velocity=95, time=0),
    Message('note_on', channel=4, note=40, velocity=95, time=0),
    Message('note_on', channel=4, note=47, velocity=95, time=2),
    Message('note_on', channel=4, note=52, velocity=95, time=2),
    Message('note_on', channel=4, note=56, velocity=95, time=2),
    Message('note_on', channel=4, note=59, velocity=95, time=2),
    Message('note_on', channel=4, note=64, velocity=95, time=2),
    Message('note_off', channel=4, note=64, velocity=95, time=230),
    Message('note_off', channel=4, note=59, velocity=95, time=0),
    Message('note_off', channel=4, note=56, velocity=95, time=0),
    Message('note_off', channel=4, note=52, velocity=95, time=0),
    Message('note_off', channel=4, note=47, velocity=95, time=0),
    Message('note_off', channel=4, note=40, velocity=95, time=0),
    Message('note_on', channel=4, note=64, velocity=95, time=0),
    Message('note_on', channel=4, note=59, velocity=95, time=2),
    Message('note_on', channel=4, note=56, velocity=95, time=2),
    Message('note_on', channel=4, note=52, velocity=95, time=2),
    Message('note_on', channel=4, note=47, velocity=95, time=2),
    Message('note_on', channel=4, note=40, velocity=95, time=2),
    Message('note_off', channel=4, note=64, velocity=95, time=230),
    Message('note_off', channel=4, note=59, velocity=95, time=0),
    Message('note_off', channel=4, note=56, velocity=95, time=0),
    Message('note_off', channel=4, note=52, velocity=95, time=0),
    Message('note_off', channel=4, note=47, velocity=95, time=0),
    Message('note_off', channel=4, note=40, velocity=95, time=0),
    Message('note_on', channel=4, note=43, velocity=95, time=0),
    Message('note_on', channel=4, note=47, velocity=95, time=4),
    Message('note_on', channel=4, note=50, velocity=95, time=4),
    Message('note_on', channel=4, note=55, velocity=95, time=4),
    Message('note_on', channel=4, note=62, velocity=95, time=4),
    Message('note_on', channel=4, note=67, velocity=95, time=4),
    Message('note_off', channel=4, note=67, velocity=95, time=460),
    Message('note_off', channel=4, note=62, velocity=95, time=0),
    Message('note_off', channel=4, note=55, velocity=95, time=0),
    Message('note_off', channel=4, note=50, velocity=95, time=0),
    Message('note_off', channel=4, note=47, velocity=95, time=0),
    Message('note_off', channel=4, note=43, velocity=95, time=0),
    Message('note_on', channel=4, note=43, velocity=95, time=0),
    Message('note_on', channel=4, note=47, velocity=95, time=2),
    Message('note_on', channel=4, note=50, velocity=95, time=2),
    Message('note_on', channel=4, note=55, velocity=95, time=2),
    Message('note_on', channel=4, note=62, velocity=95, time=2),
    Message('note_on', channel=4, note=67, velocity=95, time=2),
    Message('note_off', channel=4, note=67, velocity=95, time=230),
    Message('note_off', channel=4, note=62, velocity=95, time=0),
    Message('note_off', channel=4, note=55, velocity=95, time=0),
    Message('note_off', channel=4, note=50, velocity=95, time=0),
    Message('note_off', channel=4, note=47, velocity=95, time=0),
    Message('note_off', channel=4, note=43, velocity=95, time=0),
    Message('note_on', channel=4, note=67, velocity=95, time=0),
    Message('note_on', channel=4, note=62, velocity=95, time=2),
    Message('note_on', channel=4, note=55, velocity=95, time=2),
    Message('note_on', channel=4, note=50, velocity=95, time=2),
    Message('note_on', channel=4, note=47, velocity=95, time=2),
    Message('note_on', channel=4, note=43, velocity=95, time=2),
    Message('note_off', channel=4, note=67, velocity=95, time=230),
    Message('note_off', channel=4, note=62, velocity=95, time=0),
    Message('note_off', channel=4, note=55, velocity=95, time=0),
    Message('note_off', channel=4, note=50, velocity=95, time=0),
    Message('note_off', channel=4, note=47, velocity=95, time=0),
    Message('note_off', channel=4, note=43, velocity=95, time=0),
    Message('note_on', channel=4, note=43, velocity=95, time=0),
    Message('note_on', channel=4, note=47, velocity=95, time=2),
    Message('note_on', channel=4, note=50, velocity=95, time=2),
    Message('note_on', channel=4, note=55, velocity=95, time=2),
    Message('note_on', channel=4, note=62, velocity=95, time=2),
    Message('note_on', channel=4, note=67, velocity=95, time=2),
    Message('note_off', channel=4, note=67, velocity=95, time=230),
    Message('note_off', channel=4, note=62, velocity=95, time=0),
    Message('note_off', channel=4, note=55, velocity=95, time=0),
    Message('note_off', channel=4, note=50, velocity=95, time=0),
    Message('note_off', channel=4, note=47, velocity=95, time=0),
    Message('note_off', channel=4, note=43, velocity=95, time=0),
    Message('note_on', channel=4, note=67, velocity=95, time=0),
    Message('note_on', channel=4, note=62, velocity=95, time=2),
    Message('note_on', channel=4, note=55, velocity=95, time=2),
    Message('note_on', channel=4, note=50, velocity=95, time=2),
    Message('note_on', channel=4, note=47, velocity=95, time=2),
    Message('note_on', channel=4, note=43, velocity=95, time=2),
    Message('note_off', channel=4, note=67, velocity=95, time=230),
    Message('note_off', channel=4, note=62, velocity=95, time=0),
    Message('note_off', channel=4, note=55, velocity=95, time=0),
    Message('note_off', channel=4, note=50, velocity=95, time=0),
    Message('note_off', channel=4, note=47, velocity=95, time=0),
    Message('note_off', channel=4, note=43, velocity=95, time=0),
    Message('note_on', channel=4, note=43, velocity=95, time=0),
    Message('note_on', channel=4, note=47, velocity=95, time=2),
    Message('note_on', channel=4, note=50, velocity=95, time=2),
    Message('note_on', channel=4, note=55, velocity=95, time=2),
    Message('note_on', channel=4, note=62, velocity=95, time=2),
    Message('note_on', channel=4, note=67, velocity=95, time=2),
    Message('note_off', channel=4, note=67, velocity=95, time=230),
    Message('note_off', channel=4, note=62, velocity=95, time=0),
    Message('note_off', channel=4, note=55, velocity=95, time=0),
    Message('note_off', channel=4, note=50, velocity=95, time=0),
    Message('note_off', channel=4, note=47, velocity=95, time=0),
    Message('note_off', channel=4, note=43, velocity=95, time=0),
    Message('note_on', channel=4, note=67, velocity=95, time=0),
    Message('note_on', channel=4, note=62, velocity=95, time=2),
    Message('note_on', channel=4, note=55, velocity=95, time=2),
    Message('note_on', channel=4, note=50, velocity=95, time=2),
    Message('note_on', channel=4, note=47, velocity=95, time=2),
    Message('note_on', channel=4, note=43, velocity=95, time=2),
    Message('note_off', channel=4, note=67, velocity=95, time=230),
    Message('note_off', channel=4, note=62, velocity=95, time=0),
    Message('note_off', channel=4, note=55, velocity=95, time=0),
    Message('note_off', channel=4, note=50, velocity=95, time=0),
    Message('note_off', channel=4, note=47, velocity=95, time=0),
    Message('note_off', channel=4, note=43, velocity=95, time=0),
    Message('note_on', channel=4, note=50, velocity=95, time=0),
    Message('note_on', channel=4, note=57, velocity=95, time=4),
    Message('note_on', channel=4, note=62, velocity=95, time=4),
    Message('note_on', channel=4, note=66, velocity=95, time=4),
    Message('note_off', channel=4, note=66, velocity=95, time=468),
    Message('note_off', channel=4, note=62, velocity=95, time=0),
    Message('note_off', channel=4, note=57, velocity=95, time=0),
    Message('note_off', channel=4, note=50, velocity=95, time=0),
    Message('note_on', channel=4, note=50, velocity=95, time=0),
    Message('note_on', channel=4, note=57, velocity=95, time=2),
    Message('note_on', channel=4, note=62, velocity=95, time=2),
    Message('note_on', channel=4, note=66, velocity=95, time=2),
    Message('note_off', channel=4, note=66, velocity=95, time=234),
    Message('note_off', channel=4, note=62, velocity=95, time=0),
    Message('note_off', channel=4, note=57, velocity=95, time=0),
    Message('note_off', channel=4, note=50, velocity=95, time=0),
    Message('note_on', channel=4, note=66, velocity=95, time=0),
    Message('note_on', channel=4, note=62, velocity=95, time=2),
    Message('note_on', channel=4, note=57, velocity=95, time=2),
    Message('note_on', channel=4, note=50, velocity=95, time=2),
    Message('note_off', channel=4, note=66, velocity=95, time=234),
    Message('note_off', channel=4, note=62, velocity=95, time=0),
    Message('note_off', channel=4, note=57, velocity=95, time=0),
    Message('note_off', channel=4, note=50, velocity=95, time=0),
    Message('note_on', channel=4, note=50, velocity=95, time=0),
    Message('note_on', channel=4, note=57, velocity=95, time=2),
    Message('note_on', channel=4, note=62, velocity=95, time=2),
    Message('note_on', channel=4, note=66, velocity=95, time=2),
    Message('note_off', channel=4, note=66, velocity=95, time=234),
    Message('note_off', channel=4, note=62, velocity=95, time=0),
    Message('note_off', channel=4, note=57, velocity=95, time=0),
    Message('note_off', channel=4, note=50, velocity=95, time=0),
    Message('note_on', channel=4, note=66, velocity=95, time=0),
    Message('note_on', channel=4, note=62, velocity=95, time=2),
    Message('note_on', channel=4, note=57, velocity=95, time=2),
    Message('note_on', channel=4, note=50, velocity=95, time=2),
    Message('note_off', channel=4, note=66, velocity=95, time=234),
    Message('note_off', channel=4, note=62, velocity=95, time=0),
    Message('note_off', channel=4, note=57, velocity=95, time=0),
    Message('note_off', channel=4, note=50, velocity=95, time=0),
    Message('note_on', channel=4, note=50, velocity=95, time=0),
    Message('note_on', channel=4, note=57, velocity=95, time=2),
    Message('note_on', channel=4, note=62, velocity=95, time=2),
    Message('note_on', channel=4, note=66, velocity=95, time=2),
    Message('note_off', channel=4, note=66, velocity=95, time=234),
    Message('note_off', channel=4, note=62, velocity=95, time=0),
    Message('note_off', channel=4, note=57, velocity=95, time=0),
    Message('note_off', channel=4, note=50, velocity=95, time=0),
    Message('note_on', channel=4, note=66, velocity=95, time=0),
    Message('note_on', channel=4, note=62, velocity=95, time=2),
    Message('note_on', channel=4, note=57, velocity=95, time=2),
    Message('note_on', channel=4, note=50, velocity=95, time=2),
    Message('note_off', channel=4, note=66, velocity=95, time=234),
    Message('note_off', channel=4, note=62, velocity=95, time=0),
    Message('note_off', channel=4, note=57, velocity=95, time=0),
    Message('note_off', channel=4, note=50, velocity=95, time=0),
    Message('note_on', channel=4, note=45, velocity=95, time=0),
    Message('note_on', channel=4, note=52, velocity=95, time=4),
    Message('note_on', channel=4, note=57, velocity=95, time=4),
    Message('note_on', channel=4, note=61, velocity=95, time=4),
    Message('note_on', channel=4, note=64, velocity=95, time=4),
    Message('note_off', channel=4, note=64, velocity=95, time=464),
    Message('note_off', channel=4, note=61, velocity=95, time=0),
    Message('note_off', channel=4, note=57, velocity=95, time=0),
    Message('note_off', channel=4, note=52, velocity=95, time=0),
    Message('note_off', channel=4, note=45, velocity=95, time=0),
    Message('note_on', channel=4, note=45, velocity=95, time=0),
    Message('note_on', channel=4, note=52, velocity=95, time=2),
    Message('note_on', channel=4, note=57, velocity=95, time=2),
    Message('note_on', channel=4, note=61, velocity=95, time=2),
    Message('note_on', channel=4, note=64, velocity=95, time=2),
    Message('note_off', channel=4, note=64, velocity=95, time=232),
    Message('note_off', channel=4, note=61, velocity=95, time=0),
    Message('note_off', channel=4, note=57, velocity=95, time=0),
    Message('note_off', channel=4, note=52, velocity=95, time=0),
    Message('note_off', channel=4, note=45, velocity=95, time=0),
    Message('note_on', channel=4, note=64, velocity=95, time=0),
    Message('note_on', channel=4, note=61, velocity=95, time=2),
    Message('note_on', channel=4, note=57, velocity=95, time=2),
    Message('note_on', channel=4, note=52, velocity=95, time=2),
    Message('note_on', channel=4, note=45, velocity=95, time=2),
    Message('note_off', channel=4, note=64, velocity=95, time=232),
    Message('note_off', channel=4, note=61, velocity=95, time=0),
    Message('note_off', channel=4, note=57, velocity=95, time=0),
    Message('note_off', channel=4, note=52, velocity=95, time=0),
    Message('note_off', channel=4, note=45, velocity=95, time=0),
    Message('note_on', channel=4, note=45, velocity=95, time=0),
    Message('note_on', channel=4, note=52, velocity=95, time=2),
    Message('note_on', channel=4, note=57, velocity=95, time=2),
    Message('note_on', channel=4, note=61, velocity=95, time=2),
    Message('note_on', channel=4, note=64, velocity=95, time=2),
    Message('note_off', channel=4, note=64, velocity=95, time=232),
    Message('note_off', channel=4, note=61, velocity=95, time=0),
    Message('note_off', channel=4, note=57, velocity=95, time=0),
    Message('note_off', channel=4, note=52, velocity=95, time=0),
    Message('note_off', channel=4, note=45, velocity=95, time=0),
    Message('note_on', channel=4, note=64, velocity=95, time=0),
    Message('note_on', channel=4, note=61, velocity=95, time=2),
    Message('note_on', channel=4, note=57, velocity=95, time=2),
    Message('note_on', channel=4, note=52, velocity=95, time=2),
    Message('note_on', channel=4, note=45, velocity=95, time=2),
    Message('note_off', channel=4, note=64, velocity=95, time=232),
    Message('note_off', channel=4, note=61, velocity=95, time=0),
    Message('note_off', channel=4, note=57, velocity=95, time=0),
    Message('note_off', channel=4, note=52, velocity=95, time=0),
    Message('note_off', channel=4, note=45, velocity=95, time=0),
    Message('note_on', channel=4, note=45, velocity=95, time=0),
    Message('note_on', channel=4, note=52, velocity=95, time=2),
    Message('note_on', channel=4, note=57, velocity=95, time=2),
    Message('note_on', channel=4, note=61, velocity=95, time=2),
    Message('note_on', channel=4, note=64, velocity=95, time=2),
    Message('note_off', channel=4, note=64, velocity=95, time=232),
    Message('note_off', channel=4, note=61, velocity=95, time=0),
    Message('note_off', channel=4, note=57, velocity=95, time=0),
    Message('note_off', channel=4, note=52, velocity=95, time=0),
    Message('note_off', channel=4, note=45, velocity=95, time=0),
    Message('note_on', channel=4, note=64, velocity=95, time=0),
    Message('note_on', channel=4, note=61, velocity=95, time=2),
    Message('note_on', channel=4, note=57, velocity=95, time=2),
    Message('note_on', channel=4, note=52, velocity=95, time=2),
    Message('note_on', channel=4, note=45, velocity=95, time=2),
    Message('note_off', channel=4, note=64, velocity=95, time=232),
    Message('note_off', channel=4, note=61, velocity=95, time=0),
    Message('note_off', channel=4, note=57, velocity=95, time=0),
    Message('note_off', channel=4, note=52, velocity=95, time=0),
    Message('note_off', channel=4, note=45, velocity=95, time=0),
    Message('note_on', channel=4, note=40, velocity=95, time=0),
    Message('note_on', channel=4, note=47, velocity=95, time=4),
    Message('note_on', channel=4, note=52, velocity=95, time=4),
    Message('note_on', channel=4, note=56, velocity=95, time=4),
    Message('note_on', channel=4, note=59, velocity=95, time=4),
    Message('note_on', channel=4, note=64, velocity=95, time=4),
    Message('note_off', channel=4, note=64, velocity=95, time=460),
    Message('note_off', channel=4, note=59, velocity=95, time=0),
    Message('note_off', channel=4, note=56, velocity=95, time=0),
    Message('note_off', channel=4, note=52, velocity=95, time=0),
    Message('note_off', channel=4, note=47, velocity=95, time=0),
    Message('note_off', channel=4, note=40, velocity=95, time=0),
    Message('note_on', channel=4, note=40, velocity=95, time=0),
    Message('note_on', channel=4, note=47, velocity=95, time=2),
    Message('note_on', channel=4, note=52, velocity=95, time=2),
    Message('note_on', channel=4, note=56, velocity=95, time=2),
    Message('note_on', channel=4, note=59, velocity=95, time=2),
    Message('note_on', channel=4, note=64, velocity=95, time=2),
    Message('note_off', channel=4, note=64, velocity=95, time=230),
    Message('note_off', channel=4, note=59, velocity=95, time=0),
    Message('note_off', channel=4, note=56, velocity=95, time=0),
    Message('note_off', channel=4, note=52, velocity=95, time=0),
    Message('note_off', channel=4, note=47, velocity=95, time=0),
    Message('note_off', channel=4, note=40, velocity=95, time=0),
    Message('note_on', channel=4, note=64, velocity=95, time=0),
    Message('note_on', channel=4, note=59, velocity=95, time=2),
    Message('note_on', channel=4, note=56, velocity=95, time=2),
    Message('note_on', channel=4, note=52, velocity=95, time=2),
    Message('note_on', channel=4, note=47, velocity=95, time=2),
    Message('note_on', channel=4, note=40, velocity=95, time=2),
    Message('note_off', channel=4, note=64, velocity=95, time=230),
    Message('note_off', channel=4, note=59, velocity=95, time=0),
    Message('note_off', channel=4, note=56, velocity=95, time=0),
    Message('note_off', channel=4, note=52, velocity=95, time=0),
    Message('note_off', channel=4, note=47, velocity=95, time=0),
    Message('note_off', channel=4, note=40, velocity=95, time=0),
    Message('note_on', channel=4, note=40, velocity=95, time=0),
    Message('note_on', channel=4, note=47, velocity=95, time=2),
    Message('note_on', channel=4, note=52, velocity=95, time=2),
    Message('note_on', channel=4, note=56, velocity=95, time=2),
    Message('note_on', channel=4, note=59, velocity=95, time=2),
    Message('note_on', channel=4, note=64, velocity=95, time=2),
    Message('note_off', channel=4, note=64, velocity=95, time=230),
    Message('note_off', channel=4, note=59, velocity=95, time=0),
    Message('note_off', channel=4, note=56, velocity=95, time=0),
    Message('note_off', channel=4, note=52, velocity=95, time=0),
    Message('note_off', channel=4, note=47, velocity=95, time=0),
    Message('note_off', channel=4, note=40, velocity=95, time=0),
    Message('note_on', channel=4, note=64, velocity=95, time=0),
    Message('note_on', channel=4, note=59, velocity=95, time=2),
    Message('note_on', channel=4, note=56, velocity=95, time=2),
    Message('note_on', channel=4, note=52, velocity=95, time=2),
    Message('note_on', channel=4, note=47, velocity=95, time=2),
    Message('note_on', channel=4, note=40, velocity=95, time=2),
    Message('note_off', channel=4, note=64, velocity=95, time=230),
    Message('note_off', channel=4, note=59, velocity=95, time=0),
    Message('note_off', channel=4, note=56, velocity=95, time=0),
    Message('note_off', channel=4, note=52, velocity=95, time=0),
    Message('note_off', channel=4, note=47, velocity=95, time=0),
    Message('note_off', channel=4, note=40, velocity=95, time=0),
    Message('note_on', channel=4, note=40, velocity=95, time=0),
    Message('note_on', channel=4, note=47, velocity=95, time=2),
    Message('note_on', channel=4, note=52, velocity=95, time=2),
    Message('note_on', channel=4, note=56, velocity=95, time=2),
    Message('note_on', channel=4, note=59, velocity=95, time=2),
    Message('note_on', channel=4, note=64, velocity=95, time=2),
    Message('note_off', channel=4, note=64, velocity=95, time=230),
    Message('note_off', channel=4, note=59, velocity=95, time=0),
    Message('note_off', channel=4, note=56, velocity=95, time=0),
    Message('note_off', channel=4, note=52, velocity=95, time=0),
    Message('note_off', channel=4, note=47, velocity=95, time=0),
    Message('note_off', channel=4, note=40, velocity=95, time=0),
    Message('note_on', channel=4, note=64, velocity=95, time=0),
    Message('note_on', channel=4, note=59, velocity=95, time=2),
    Message('note_on', channel=4, note=56, velocity=95, time=2),
    Message('note_on', channel=4, note=52, velocity=95, time=2),
    Message('note_on', channel=4, note=47, velocity=95, time=2),
    Message('note_on', channel=4, note=40, velocity=95, time=2),
    Message('note_off', channel=4, note=64, velocity=95, time=230),
    Message('note_off', channel=4, note=59, velocity=95, time=0),
    Message('note_off', channel=4, note=56, velocity=95, time=0),
    Message('note_off', channel=4, note=52, velocity=95, time=0),
    Message('note_off', channel=4, note=47, velocity=95, time=0),
    Message('note_off', channel=4, note=40, velocity=95, time=0),
    Message('note_on', channel=4, note=43, velocity=95, time=0),
    Message('note_on', channel=4, note=47, velocity=95, time=4),
    Message('note_on', channel=4, note=50, velocity=95, time=4),
    Message('note_on', channel=4, note=55, velocity=95, time=4),
    Message('note_on', channel=4, note=62, velocity=95, time=4),
    Message('note_on', channel=4, note=67, velocity=95, time=4),
    Message('note_off', channel=4, note=67, velocity=95, time=460),
    Message('note_off', channel=4, note=62, velocity=95, time=0),
    Message('note_off', channel=4, note=55, velocity=95, time=0),
    Message('note_off', channel=4, note=50, velocity=95, time=0),
    Message('note_off', channel=4, note=47, velocity=95, time=0),
    Message('note_off', channel=4, note=43, velocity=95, time=0),
    Message('note_on', channel=4, note=43, velocity=95, time=0),
    Message('note_on', channel=4, note=47, velocity=95, time=2),
    Message('note_on', channel=4, note=50, velocity=95, time=2),
    Message('note_on', channel=4, note=55, velocity=95, time=2),
    Message('note_on', channel=4, note=62, velocity=95, time=2),
    Message('note_on', channel=4, note=67, velocity=95, time=2),
    Message('note_off', channel=4, note=67, velocity=95, time=230),
    Message('note_off', channel=4, note=62, velocity=95, time=0),
    Message('note_off', channel=4, note=55, velocity=95, time=0),
    Message('note_off', channel=4, note=50, velocity=95, time=0),
    Message('note_off', channel=4, note=47, velocity=95, time=0),
    Message('note_off', channel=4, note=43, velocity=95, time=0),
    Message('note_on', channel=4, note=67, velocity=95, time=0),
    Message('note_on', channel=4, note=62, velocity=95, time=2),
    Message('note_on', channel=4, note=55, velocity=95, time=2),
    Message('note_on', channel=4, note=50, velocity=95, time=2),
    Message('note_on', channel=4, note=47, velocity=95, time=2),
    Message('note_on', channel=4, note=43, velocity=95, time=2),
    Message('note_off', channel=4, note=67, velocity=95, time=230),
    Message('note_off', channel=4, note=62, velocity=95, time=0),
    Message('note_off', channel=4, note=55, velocity=95, time=0),
    Message('note_off', channel=4, note=50, velocity=95, time=0),
    Message('note_off', channel=4, note=47, velocity=95, time=0),
    Message('note_off', channel=4, note=43, velocity=95, time=0),
    Message('note_on', channel=4, note=43, velocity=95, time=0),
    Message('note_on', channel=4, note=47, velocity=95, time=2),
    Message('note_on', channel=4, note=50, velocity=95, time=2),
    Message('note_on', channel=4, note=55, velocity=95, time=2),
    Message('note_on', channel=4, note=62, velocity=95, time=2),
    Message('note_on', channel=4, note=67, velocity=95, time=2),
    Message('note_off', channel=4, note=67, velocity=95, time=230),
    Message('note_off', channel=4, note=62, velocity=95, time=0),
    Message('note_off', channel=4, note=55, velocity=95, time=0),
    Message('note_off', channel=4, note=50, velocity=95, time=0),
    Message('note_off', channel=4, note=47, velocity=95, time=0),
    Message('note_off', channel=4, note=43, velocity=95, time=0),
    Message('note_on', channel=4, note=67, velocity=95, time=0),
    Message('note_on', channel=4, note=62, velocity=95, time=2),
    Message('note_on', channel=4, note=55, velocity=95, time=2),
    Message('note_on', channel=4, note=50, velocity=95, time=2),
    Message('note_on', channel=4, note=47, velocity=95, time=2),
    Message('note_on', channel=4, note=43, velocity=95, time=2),
    Message('note_off', channel=4, note=67, velocity=95, time=230),
    Message('note_off', channel=4, note=62, velocity=95, time=0),
    Message('note_off', channel=4, note=55, velocity=95, time=0),
    Message('note_off', channel=4, note=50, velocity=95, time=0),
    Message('note_off', channel=4, note=47, velocity=95, time=0),
    Message('note_off', channel=4, note=43, velocity=95, time=0),
    Message('note_on', channel=4, note=43, velocity=95, time=0),
    Message('note_on', channel=4, note=47, velocity=95, time=2),
    Message('note_on', channel=4, note=50, velocity=95, time=2),
    Message('note_on', channel=4, note=55, velocity=95, time=2),
    Message('note_on', channel=4, note=62, velocity=95, time=2),
    Message('note_on', channel=4, note=67, velocity=95, time=2),
    Message('note_off', channel=4, note=67, velocity=95, time=230),
    Message('note_off', channel=4, note=62, velocity=95, time=0),
    Message('note_off', channel=4, note=55, velocity=95, time=0),
    Message('note_off', channel=4, note=50, velocity=95, time=0),
    Message('note_off', channel=4, note=47, velocity=95, time=0),
    Message('note_off', channel=4, note=43, velocity=95, time=0),
    Message('note_on', channel=4, note=67, velocity=95, time=0),
    Message('note_on', channel=4, note=62, velocity=95, time=2),
    Message('note_on', channel=4, note=55, velocity=95, time=2),
    Message('note_on', channel=4, note=50, velocity=95, time=2),
    Message('note_on', channel=4, note=47, velocity=95, time=2),
    Message('note_on', channel=4, note=43, velocity=95, time=2),
    Message('note_off', channel=4, note=67, velocity=95, time=230),
    Message('note_off', channel=4, note=62, velocity=95, time=0),
    Message('note_off', channel=4, note=55, velocity=95, time=0),
    Message('note_off', channel=4, note=50, velocity=95, time=0),
    Message('note_off', channel=4, note=47, velocity=95, time=0),
    Message('note_off', channel=4, note=43, velocity=95, time=0),
    Message('note_on', channel=4, note=50, velocity=95, time=0),
    Message('note_on', channel=4, note=57, velocity=95, time=4),
    Message('note_on', channel=4, note=62, velocity=95, time=4),
    Message('note_on', channel=4, note=66, velocity=95, time=4),
    Message('note_off', channel=4, note=66, velocity=95, time=468),
    Message('note_off', channel=4, note=62, velocity=95, time=0),
    Message('note_off', channel=4, note=57, velocity=95, time=0),
    Message('note_off', channel=4, note=50, velocity=95, time=0),
    Message('note_on', channel=4, note=50, velocity=95, time=0),
    Message('note_on', channel=4, note=57, velocity=95, time=2),
    Message('note_on', channel=4, note=62, velocity=95, time=2),
    Message('note_on', channel=4, note=66, velocity=95, time=2),
    Message('note_off', channel=4, note=66, velocity=95, time=234),
    Message('note_off', channel=4, note=62, velocity=95, time=0),
    Message('note_off', channel=4, note=57, velocity=95, time=0),
    Message('note_off', channel=4, note=50, velocity=95, time=0),
    Message('note_on', channel=4, note=66, velocity=95, time=0),
    Message('note_on', channel=4, note=62, velocity=95, time=2),
    Message('note_on', channel=4, note=57, velocity=95, time=2),
    Message('note_on', channel=4, note=50, velocity=95, time=2),
    Message('note_off', channel=4, note=66, velocity=95, time=234),
    Message('note_off', channel=4, note=62, velocity=95, time=0),
    Message('note_off', channel=4, note=57, velocity=95, time=0),
    Message('note_off', channel=4, note=50, velocity=95, time=0),
    Message('note_on', channel=4, note=50, velocity=95, time=0),
    Message('note_on', channel=4, note=57, velocity=95, time=2),
    Message('note_on', channel=4, note=62, velocity=95, time=2),
    Message('note_on', channel=4, note=66, velocity=95, time=2),
    Message('note_off', channel=4, note=66, velocity=95, time=234),
    Message('note_off', channel=4, note=62, velocity=95, time=0),
    Message('note_off', channel=4, note=57, velocity=95, time=0),
    Message('note_off', channel=4, note=50, velocity=95, time=0),
    Message('note_on', channel=4, note=66, velocity=95, time=0),
    Message('note_on', channel=4, note=62, velocity=95, time=2),
    Message('note_on', channel=4, note=57, velocity=95, time=2),
    Message('note_on', channel=4, note=50, velocity=95, time=2),
    Message('note_off', channel=4, note=66, velocity=95, time=234),
    Message('note_off', channel=4, note=62, velocity=95, time=0),
    Message('note_off', channel=4, note=57, velocity=95, time=0),
    Message('note_off', channel=4, note=50, velocity=95, time=0),
    Message('note_on', channel=4, note=50, velocity=95, time=0),
    Message('note_on', channel=4, note=57, velocity=95, time=2),
    Message('note_on', channel=4, note=62, velocity=95, time=2),
    Message('note_on', channel=4, note=66, velocity=95, time=2),
    Message('note_off', channel=4, note=66, velocity=95, time=234),
    Message('note_off', channel=4, note=62, velocity=95, time=0),
    Message('note_off', channel=4, note=57, velocity=95, time=0),
    Message('note_off', channel=4, note=50, velocity=95, time=0),
    Message('note_on', channel=4, note=66, velocity=95, time=0),
    Message('note_on', channel=4, note=62, velocity=95, time=2),
    Message('note_on', channel=4, note=57, velocity=95, time=2),
    Message('note_on', channel=4, note=50, velocity=95, time=2),
    Message('note_off', channel=4, note=66, velocity=95, time=234),
    Message('note_off', channel=4, note=62, velocity=95, time=0),
    Message('note_off', channel=4, note=57, velocity=95, time=0),
    Message('note_off', channel=4, note=50, velocity=95, time=0),
    Message('note_on', channel=4, note=45, velocity=95, time=0),
    Message('note_on', channel=4, note=52, velocity=95, time=4),
    Message('note_on', channel=4, note=57, velocity=95, time=4),
    Message('note_on', channel=4, note=61, velocity=95, time=4),
    Message('note_on', channel=4, note=64, velocity=95, time=4),
    Message('note_off', channel=4, note=64, velocity=95, time=464),
    Message('note_off', channel=4, note=61, velocity=95, time=0),
    Message('note_off', channel=4, note=57, velocity=95, time=0),
    Message('note_off', channel=4, note=52, velocity=95, time=0),
    Message('note_off', channel=4, note=45, velocity=95, time=0),
    Message('note_on', channel=4, note=45, velocity=95, time=0),
    Message('note_on', channel=4, note=52, velocity=95, time=2),
    Message('note_on', channel=4, note=57, velocity=95, time=2),
    Message('note_on', channel=4, note=61, velocity=95, time=2),
    Message('note_on', channel=4, note=64, velocity=95, time=2),
    Message('note_off', channel=4, note=64, velocity=95, time=232),
    Message('note_off', channel=4, note=61, velocity=95, time=0),
    Message('note_off', channel=4, note=57, velocity=95, time=0),
    Message('note_off', channel=4, note=52, velocity=95, time=0),
    Message('note_off', channel=4, note=45, velocity=95, time=0),
    Message('note_on', channel=4, note=64, velocity=95, time=0),
    Message('note_on', channel=4, note=61, velocity=95, time=2),
    Message('note_on', channel=4, note=57, velocity=95, time=2),
    Message('note_on', channel=4, note=52, velocity=95, time=2),
    Message('note_on', channel=4, note=45, velocity=95, time=2),
    Message('note_off', channel=4, note=64, velocity=95, time=232),
    Message('note_off', channel=4, note=61, velocity=95, time=0),
    Message('note_off', channel=4, note=57, velocity=95, time=0),
    Message('note_off', channel=4, note=52, velocity=95, time=0),
    Message('note_off', channel=4, note=45, velocity=95, time=0),
    Message('note_on', channel=4, note=45, velocity=95, time=0),
    Message('note_on', channel=4, note=52, velocity=95, time=2),
    Message('note_on', channel=4, note=57, velocity=95, time=2),
    Message('note_on', channel=4, note=61, velocity=95, time=2),
    Message('note_on', channel=4, note=64, velocity=95, time=2),
    Message('note_off', channel=4, note=64, velocity=95, time=232),
    Message('note_off', channel=4, note=61, velocity=95, time=0),
    Message('note_off', channel=4, note=57, velocity=95, time=0),
    Message('note_off', channel=4, note=52, velocity=95, time=0),
    Message('note_off', channel=4, note=45, velocity=95, time=0),
    Message('note_on', channel=4, note=64, velocity=95, time=0),
    Message('note_on', channel=4, note=61, velocity=95, time=2),
    Message('note_on', channel=4, note=57, velocity=95, time=2),
    Message('note_on', channel=4, note=52, velocity=95, time=2),
    Message('note_on', channel=4, note=45, velocity=95, time=2),
    Message('note_off', channel=4, note=64, velocity=95, time=232),
    Message('note_off', channel=4, note=61, velocity=95, time=0),
    Message('note_off', channel=4, note=57, velocity=95, time=0),
    Message('note_off', channel=4, note=52, velocity=95, time=0),
    Message('note_off', channel=4, note=45, velocity=95, time=0),
    Message('note_on', channel=4, note=45, velocity=95, time=0),
    Message('note_on', channel=4, note=52, velocity=95, time=2),
    Message('note_on', channel=4, note=57, velocity=95, time=2),
    Message('note_on', channel=4, note=61, velocity=95, time=2),
    Message('note_on', channel=4, note=64, velocity=95, time=2),
    Message('note_off', channel=4, note=64, velocity=95, time=232),
    Message('note_off', channel=4, note=61, velocity=95, time=0),
    Message('note_off', channel=4, note=57, velocity=95, time=0),
    Message('note_off', channel=4, note=52, velocity=95, time=0),
    Message('note_off', channel=4, note=45, velocity=95, time=0),
    Message('note_on', channel=4, note=64, velocity=95, time=0),
    Message('note_on', channel=4, note=61, velocity=95, time=2),
    Message('note_on', channel=4, note=57, velocity=95, time=2),
    Message('note_on', channel=4, note=52, velocity=95, time=2),
    Message('note_on', channel=4, note=45, velocity=95, time=2),
    Message('note_off', channel=4, note=64, velocity=95, time=232),
    Message('note_off', channel=4, note=61, velocity=95, time=0),
    Message('note_off', channel=4, note=57, velocity=95, time=0),
    Message('note_off', channel=4, note=52, velocity=95, time=0),
    Message('note_off', channel=4, note=45, velocity=95, time=0),
    Message('note_on', channel=4, note=40, velocity=95, time=0),
    Message('note_on', channel=4, note=47, velocity=95, time=4),
    Message('note_on', channel=4, note=52, velocity=95, time=4),
    Message('note_on', channel=4, note=56, velocity=95, time=4),
    Message('note_on', channel=4, note=59, velocity=95, time=4),
    Message('note_on', channel=4, note=64, velocity=95, time=4),
    Message('note_off', channel=4, note=64, velocity=95, time=460),
    Message('note_off', channel=4, note=59, velocity=95, time=0),
    Message('note_off', channel=4, note=56, velocity=95, time=0),
    Message('note_off', channel=4, note=52, velocity=95, time=0),
    Message('note_off', channel=4, note=47, velocity=95, time=0),
    Message('note_off', channel=4, note=40, velocity=95, time=0),
    Message('note_on', channel=4, note=40, velocity=95, time=0),
    Message('note_on', channel=4, note=47, velocity=95, time=2),
    Message('note_on', channel=4, note=52, velocity=95, time=2),
    Message('note_on', channel=4, note=56, velocity=95, time=2),
    Message('note_on', channel=4, note=59, velocity=95, time=2),
    Message('note_on', channel=4, note=64, velocity=95, time=2),
    Message('note_off', channel=4, note=64, velocity=95, time=230),
    Message('note_off', channel=4, note=59, velocity=95, time=0),
    Message('note_off', channel=4, note=56, velocity=95, time=0),
    Message('note_off', channel=4, note=52, velocity=95, time=0),
    Message('note_off', channel=4, note=47, velocity=95, time=0),
    Message('note_off', channel=4, note=40, velocity=95, time=0),
    Message('note_on', channel=4, note=64, velocity=95, time=0),
    Message('note_on', channel=4, note=59, velocity=95, time=2),
    Message('note_on', channel=4, note=56, velocity=95, time=2),
    Message('note_on', channel=4, note=52, velocity=95, time=2),
    Message('note_on', channel=4, note=47, velocity=95, time=2),
    Message('note_on', channel=4, note=40, velocity=95, time=2),
    Message('note_off', channel=4, note=64, velocity=95, time=230),
    Message('note_off', channel=4, note=59, velocity=95, time=0),
    Message('note_off', channel=4, note=56, velocity=95, time=0),
    Message('note_off', channel=4, note=52, velocity=95, time=0),
    Message('note_off', channel=4, note=47, velocity=95, time=0),
    Message('note_off', channel=4, note=40, velocity=95, time=0),
    Message('note_on', channel=4, note=40, velocity=95, time=0),
    Message('note_on', channel=4, note=47, velocity=95, time=2),
    Message('note_on', channel=4, note=52, velocity=95, time=2),
    Message('note_on', channel=4, note=56, velocity=95, time=2),
    Message('note_on', channel=4, note=59, velocity=95, time=2),
    Message('note_on', channel=4, note=64, velocity=95, time=2),
    Message('note_off', channel=4, note=64, velocity=95, time=230),
    Message('note_off', channel=4, note=59, velocity=95, time=0),
    Message('note_off', channel=4, note=56, velocity=95, time=0),
    Message('note_off', channel=4, note=52, velocity=95, time=0),
    Message('note_off', channel=4, note=47, velocity=95, time=0),
    Message('note_off', channel=4, note=40, velocity=95, time=0),
    Message('note_on', channel=4, note=64, velocity=95, time=0),
    Message('note_on', channel=4, note=59, velocity=95, time=2),
    Message('note_on', channel=4, note=56, velocity=95, time=2),
    Message('note_on', channel=4, note=52, velocity=95, time=2),
    Message('note_on', channel=4, note=47, velocity=95, time=2),
    Message('note_on', channel=4, note=40, velocity=95, time=2),
    Message('note_off', channel=4, note=64, velocity=95, time=230),
    Message('note_off', channel=4, note=59, velocity=95, time=0),
    Message('note_off', channel=4, note=56, velocity=95, time=0),
    Message('note_off', channel=4, note=52, velocity=95, time=0),
    Message('note_off', channel=4, note=47, velocity=95, time=0),
    Message('note_off', channel=4, note=40, velocity=95, time=0),
    Message('note_on', channel=4, note=40, velocity=95, time=0),
    Message('note_on', channel=4, note=47, velocity=95, time=2),
    Message('note_on', channel=4, note=52, velocity=95, time=2),
    Message('note_on', channel=4, note=56, velocity=95, time=2),
    Message('note_on', channel=4, note=59, velocity=95, time=2),
    Message('note_on', channel=4, note=64, velocity=95, time=2),
    Message('note_off', channel=4, note=64, velocity=95, time=230),
    Message('note_off', channel=4, note=59, velocity=95, time=0),
    Message('note_off', channel=4, note=56, velocity=95, time=0),
    Message('note_off', channel=4, note=52, velocity=95, time=0),
    Message('note_off', channel=4, note=47, velocity=95, time=0),
    Message('note_off', channel=4, note=40, velocity=95, time=0),
    Message('note_on', channel=4, note=64, velocity=95, time=0),
    Message('note_on', channel=4, note=59, velocity=95, time=2),
    Message('note_on', channel=4, note=56, velocity=95, time=2),
    Message('note_on', channel=4, note=52, velocity=95, time=2),
    Message('note_on', channel=4, note=47, velocity=95, time=2),
    Message('note_on', channel=4, note=40, velocity=95, time=2),
    Message('note_off', channel=4, note=64, velocity=95, time=230),
    Message('note_off', channel=4, note=59, velocity=95, time=0),
    Message('note_off', channel=4, note=56, velocity=95, time=0),
    Message('note_off', channel=4, note=52, velocity=95, time=0),
    Message('note_off', channel=4, note=47, velocity=95, time=0),
    Message('note_off', channel=4, note=40, velocity=95, time=0),
    Message('note_on', channel=4, note=43, velocity=95, time=0),
    Message('note_on', channel=4, note=47, velocity=95, time=4),
    Message('note_on', channel=4, note=50, velocity=95, time=4),
    Message('note_on', channel=4, note=55, velocity=95, time=4),
    Message('note_on', channel=4, note=62, velocity=95, time=4),
    Message('note_on', channel=4, note=67, velocity=95, time=4),
    Message('note_off', channel=4, note=67, velocity=95, time=460),
    Message('note_off', channel=4, note=62, velocity=95, time=0),
    Message('note_off', channel=4, note=55, velocity=95, time=0),
    Message('note_off', channel=4, note=50, velocity=95, time=0),
    Message('note_off', channel=4, note=47, velocity=95, time=0),
    Message('note_off', channel=4, note=43, velocity=95, time=0),
    Message('note_on', channel=4, note=43, velocity=95, time=0),
    Message('note_on', channel=4, note=47, velocity=95, time=2),
    Message('note_on', channel=4, note=50, velocity=95, time=2),
    Message('note_on', channel=4, note=55, velocity=95, time=2),
    Message('note_on', channel=4, note=62, velocity=95, time=2),
    Message('note_on', channel=4, note=67, velocity=95, time=2),
    Message('note_off', channel=4, note=67, velocity=95, time=230),
    Message('note_off', channel=4, note=62, velocity=95, time=0),
    Message('note_off', channel=4, note=55, velocity=95, time=0),
    Message('note_off', channel=4, note=50, velocity=95, time=0),
    Message('note_off', channel=4, note=47, velocity=95, time=0),
    Message('note_off', channel=4, note=43, velocity=95, time=0),
    Message('note_on', channel=4, note=67, velocity=95, time=0),
    Message('note_on', channel=4, note=62, velocity=95, time=2),
    Message('note_on', channel=4, note=55, velocity=95, time=2),
    Message('note_on', channel=4, note=50, velocity=95, time=2),
    Message('note_on', channel=4, note=47, velocity=95, time=2),
    Message('note_on', channel=4, note=43, velocity=95, time=2),
    Message('note_off', channel=4, note=67, velocity=95, time=230),
    Message('note_off', channel=4, note=62, velocity=95, time=0),
    Message('note_off', channel=4, note=55, velocity=95, time=0),
    Message('note_off', channel=4, note=50, velocity=95, time=0),
    Message('note_off', channel=4, note=47, velocity=95, time=0),
    Message('note_off', channel=4, note=43, velocity=95, time=0),
    Message('note_on', channel=4, note=43, velocity=95, time=0),
    Message('note_on', channel=4, note=47, velocity=95, time=2),
    Message('note_on', channel=4, note=50, velocity=95, time=2),
    Message('note_on', channel=4, note=55, velocity=95, time=2),
    Message('note_on', channel=4, note=62, velocity=95, time=2),
    Message('note_on', channel=4, note=67, velocity=95, time=2),
    Message('note_off', channel=4, note=67, velocity=95, time=230),
    Message('note_off', channel=4, note=62, velocity=95, time=0),
    Message('note_off', channel=4, note=55, velocity=95, time=0),
    Message('note_off', channel=4, note=50, velocity=95, time=0),
    Message('note_off', channel=4, note=47, velocity=95, time=0),
    Message('note_off', channel=4, note=43, velocity=95, time=0),
    Message('note_on', channel=4, note=67, velocity=95, time=0),
    Message('note_on', channel=4, note=62, velocity=95, time=2),
    Message('note_on', channel=4, note=55, velocity=95, time=2),
    Message('note_on', channel=4, note=50, velocity=95, time=2),
    Message('note_on', channel=4, note=47, velocity=95, time=2),
    Message('note_on', channel=4, note=43, velocity=95, time=2),
    Message('note_off', channel=4, note=67, velocity=95, time=230),
    Message('note_off', channel=4, note=62, velocity=95, time=0),
    Message('note_off', channel=4, note=55, velocity=95, time=0),
    Message('note_off', channel=4, note=50, velocity=95, time=0),
    Message('note_off', channel=4, note=47, velocity=95, time=0),
    Message('note_off', channel=4, note=43, velocity=95, time=0),
    Message('note_on', channel=4, note=43, velocity=95, time=0),
    Message('note_on', channel=4, note=47, velocity=95, time=2),
    Message('note_on', channel=4, note=50, velocity=95, time=2),
    Message('note_on', channel=4, note=55, velocity=95, time=2),
    Message('note_on', channel=4, note=62, velocity=95, time=2),
    Message('note_on', channel=4, note=67, velocity=95, time=2),
    Message('note_off', channel=4, note=67, velocity=95, time=230),
    Message('note_off', channel=4, note=62, velocity=95, time=0),
    Message('note_off', channel=4, note=55, velocity=95, time=0),
    Message('note_off', channel=4, note=50, velocity=95, time=0),
    Message('note_off', channel=4, note=47, velocity=95, time=0),
    Message('note_off', channel=4, note=43, velocity=95, time=0),
    Message('note_on', channel=4, note=67, velocity=95, time=0),
    Message('note_on', channel=4, note=62, velocity=95, time=2),
    Message('note_on', channel=4, note=55, velocity=95, time=2),
    Message('note_on', channel=4, note=50, velocity=95, time=2),
    Message('note_on', channel=4, note=47, velocity=95, time=2),
    Message('note_on', channel=4, note=43, velocity=95, time=2),
    Message('note_off', channel=4, note=67, velocity=95, time=230),
    Message('note_off', channel=4, note=62, velocity=95, time=0),
    Message('note_off', channel=4, note=55, velocity=95, time=0),
    Message('note_off', channel=4, note=50, velocity=95, time=0),
    Message('note_off', channel=4, note=47, velocity=95, time=0),
    Message('note_off', channel=4, note=43, velocity=95, time=0),
    Message('note_on', channel=4, note=50, velocity=95, time=0),
    Message('note_on', channel=4, note=57, velocity=95, time=4),
    Message('note_on', channel=4, note=62, velocity=95, time=4),
    Message('note_on', channel=4, note=66, velocity=95, time=4),
    Message('note_off', channel=4, note=66, velocity=95, time=468),
    Message('note_off', channel=4, note=62, velocity=95, time=0),
    Message('note_off', channel=4, note=57, velocity=95, time=0),
    Message('note_off', channel=4, note=50, velocity=95, time=0),
    Message('note_on', channel=4, note=50, velocity=95, time=0),
    Message('note_on', channel=4, note=57, velocity=95, time=2),
    Message('note_on', channel=4, note=62, velocity=95, time=2),
    Message('note_on', channel=4, note=66, velocity=95, time=2),
    Message('note_off', channel=4, note=66, velocity=95, time=234),
    Message('note_off', channel=4, note=62, velocity=95, time=0),
    Message('note_off', channel=4, note=57, velocity=95, time=0),
    Message('note_off', channel=4, note=50, velocity=95, time=0),
    Message('note_on', channel=4, note=66, velocity=95, time=0),
    Message('note_on', channel=4, note=62, velocity=95, time=2),
    Message('note_on', channel=4, note=57, velocity=95, time=2),
    Message('note_on', channel=4, note=50, velocity=95, time=2),
    Message('note_off', channel=4, note=66, velocity=95, time=234),
    Message('note_off', channel=4, note=62, velocity=95, time=0),
    Message('note_off', channel=4, note=57, velocity=95, time=0),
    Message('note_off', channel=4, note=50, velocity=95, time=0),
    Message('note_on', channel=4, note=50, velocity=95, time=0),
    Message('note_on', channel=4, note=57, velocity=95, time=2),
    Message('note_on', channel=4, note=62, velocity=95, time=2),
    Message('note_on', channel=4, note=66, velocity=95, time=2),
    Message('note_off', channel=4, note=66, velocity=95, time=234),
    Message('note_off', channel=4, note=62, velocity=95, time=0),
    Message('note_off', channel=4, note=57, velocity=95, time=0),
    Message('note_off', channel=4, note=50, velocity=95, time=0),
    Message('note_on', channel=4, note=66, velocity=95, time=0),
    Message('note_on', channel=4, note=62, velocity=95, time=2),
    Message('note_on', channel=4, note=57, velocity=95, time=2),
    Message('note_on', channel=4, note=50, velocity=95, time=2),
    Message('note_off', channel=4, note=66, velocity=95, time=234),
    Message('note_off', channel=4, note=62, velocity=95, time=0),
    Message('note_off', channel=4, note=57, velocity=95, time=0),
    Message('note_off', channel=4, note=50, velocity=95, time=0),
    Message('note_on', channel=4, note=50, velocity=95, time=0),
    Message('note_on', channel=4, note=57, velocity=95, time=2),
    Message('note_on', channel=4, note=62, velocity=95, time=2),
    Message('note_on', channel=4, note=66, velocity=95, time=2),
    Message('note_off', channel=4, note=66, velocity=95, time=234),
    Message('note_off', channel=4, note=62, velocity=95, time=0),
    Message('note_off', channel=4, note=57, velocity=95, time=0),
    Message('note_off', channel=4, note=50, velocity=95, time=0),
    Message('note_on', channel=4, note=66, velocity=95, time=0),
    Message('note_on', channel=4, note=62, velocity=95, time=2),
    Message('note_on', channel=4, note=57, velocity=95, time=2),
    Message('note_on', channel=4, note=50, velocity=95, time=2),
    Message('note_off', channel=4, note=66, velocity=95, time=234),
    Message('note_off', channel=4, note=62, velocity=95, time=0),
    Message('note_off', channel=4, note=57, velocity=95, time=0),
    Message('note_off', channel=4, note=50, velocity=95, time=0),
    Message('note_on', channel=4, note=45, velocity=95, time=0),
    Message('note_on', channel=4, note=52, velocity=95, time=4),
    Message('note_on', channel=4, note=57, velocity=95, time=4),
    Message('note_on', channel=4, note=61, velocity=95, time=4),
    Message('note_on', channel=4, note=64, velocity=95, time=4),
    Message('note_off', channel=4, note=64, velocity=95, time=464),
    Message('note_off', channel=4, note=61, velocity=95, time=0),
    Message('note_off', channel=4, note=57, velocity=95, time=0),
    Message('note_off', channel=4, note=52, velocity=95, time=0),
    Message('note_off', channel=4, note=45, velocity=95, time=0),
    Message('note_on', channel=4, note=45, velocity=95, time=0),
    Message('note_on', channel=4, note=52, velocity=95, time=2),
    Message('note_on', channel=4, note=57, velocity=95, time=2),
    Message('note_on', channel=4, note=61, velocity=95, time=2),
    Message('note_on', channel=4, note=64, velocity=95, time=2),
    Message('note_off', channel=4, note=64, velocity=95, time=232),
    Message('note_off', channel=4, note=61, velocity=95, time=0),
    Message('note_off', channel=4, note=57, velocity=95, time=0),
    Message('note_off', channel=4, note=52, velocity=95, time=0),
    Message('note_off', channel=4, note=45, velocity=95, time=0),
    Message('note_on', channel=4, note=64, velocity=95, time=0),
    Message('note_on', channel=4, note=61, velocity=95, time=2),
    Message('note_on', channel=4, note=57, velocity=95, time=2),
    Message('note_on', channel=4, note=52, velocity=95, time=2),
    Message('note_on', channel=4, note=45, velocity=95, time=2),
    Message('note_off', channel=4, note=64, velocity=95, time=232),
    Message('note_off', channel=4, note=61, velocity=95, time=0),
    Message('note_off', channel=4, note=57, velocity=95, time=0),
    Message('note_off', channel=4, note=52, velocity=95, time=0),
    Message('note_off', channel=4, note=45, velocity=95, time=0),
    Message('note_on', channel=4, note=45, velocity=95, time=0),
    Message('note_on', channel=4, note=52, velocity=95, time=2),
    Message('note_on', channel=4, note=57, velocity=95, time=2),
    Message('note_on', channel=4, note=61, velocity=95, time=2),
    Message('note_on', channel=4, note=64, velocity=95, time=2),
    Message('note_off', channel=4, note=64, velocity=95, time=232),
    Message('note_off', channel=4, note=61, velocity=95, time=0),
    Message('note_off', channel=4, note=57, velocity=95, time=0),
    Message('note_off', channel=4, note=52, velocity=95, time=0),
    Message('note_off', channel=4, note=45, velocity=95, time=0),
    Message('note_on', channel=4, note=64, velocity=95, time=0),
    Message('note_on', channel=4, note=61, velocity=95, time=2),
    Message('note_on', channel=4, note=57, velocity=95, time=2),
    Message('note_on', channel=4, note=52, velocity=95, time=2),
    Message('note_on', channel=4, note=45, velocity=95, time=2),
    Message('note_off', channel=4, note=64, velocity=95, time=232),
    Message('note_off', channel=4, note=61, velocity=95, time=0),
    Message('note_off', channel=4, note=57, velocity=95, time=0),
    Message('note_off', channel=4, note=52, velocity=95, time=0),
    Message('note_off', channel=4, note=45, velocity=95, time=0),
    Message('note_on', channel=4, note=45, velocity=95, time=0),
    Message('note_on', channel=4, note=52, velocity=95, time=2),
    Message('note_on', channel=4, note=57, velocity=95, time=2),
    Message('note_on', channel=4, note=61, velocity=95, time=2),
    Message('note_on', channel=4, note=64, velocity=95, time=2),
    Message('note_off', channel=4, note=64, velocity=95, time=232),
    Message('note_off', channel=4, note=61, velocity=95, time=0),
    Message('note_off', channel=4, note=57, velocity=95, time=0),
    Message('note_off', channel=4, note=52, velocity=95, time=0),
    Message('note_off', channel=4, note=45, velocity=95, time=0),
    Message('note_on', channel=4, note=64, velocity=95, time=0),
    Message('note_on', channel=4, note=61, velocity=95, time=2),
    Message('note_on', channel=4, note=57, velocity=95, time=2),
    Message('note_on', channel=4, note=52, velocity=95, time=2),
    Message('note_on', channel=4, note=45, velocity=95, time=2),
    Message('note_off', channel=4, note=64, velocity=95, time=232),
    Message('note_off', channel=4, note=61, velocity=95, time=0),
    Message('note_off', channel=4, note=57, velocity=95, time=0),
    Message('note_off', channel=4, note=52, velocity=95, time=0),
    Message('note_off', channel=4, note=45, velocity=95, time=0),
    Message('note_on', channel=4, note=40, velocity=95, time=0),
    Message('note_on', channel=4, note=47, velocity=95, time=4),
    Message('note_on', channel=4, note=52, velocity=95, time=4),
    Message('note_on', channel=4, note=56, velocity=95, time=4),
    Message('note_on', channel=4, note=59, velocity=95, time=4),
    Message('note_on', channel=4, note=64, velocity=95, time=4),
    Message('note_off', channel=4, note=64, velocity=95, time=460),
    Message('note_off', channel=4, note=59, velocity=95, time=0),
    Message('note_off', channel=4, note=56, velocity=95, time=0),
    Message('note_off', channel=4, note=52, velocity=95, time=0),
    Message('note_off', channel=4, note=47, velocity=95, time=0),
    Message('note_off', channel=4, note=40, velocity=95, time=0),
    Message('note_on', channel=4, note=40, velocity=95, time=0),
    Message('note_on', channel=4, note=47, velocity=95, time=2),
    Message('note_on', channel=4, note=52, velocity=95, time=2),
    Message('note_on', channel=4, note=56, velocity=95, time=2),
    Message('note_on', channel=4, note=59, velocity=95, time=2),
    Message('note_on', channel=4, note=64, velocity=95, time=2),
    Message('note_off', channel=4, note=64, velocity=95, time=230),
    Message('note_off', channel=4, note=59, velocity=95, time=0),
    Message('note_off', channel=4, note=56, velocity=95, time=0),
    Message('note_off', channel=4, note=52, velocity=95, time=0),
    Message('note_off', channel=4, note=47, velocity=95, time=0),
    Message('note_off', channel=4, note=40, velocity=95, time=0),
    Message('note_on', channel=4, note=64, velocity=95, time=0),
    Message('note_on', channel=4, note=59, velocity=95, time=2),
    Message('note_on', channel=4, note=56, velocity=95, time=2),
    Message('note_on', channel=4, note=52, velocity=95, time=2),
    Message('note_on', channel=4, note=47, velocity=95, time=2),
    Message('note_on', channel=4, note=40, velocity=95, time=2),
    Message('note_off', channel=4, note=64, velocity=95, time=230),
    Message('note_off', channel=4, note=59, velocity=95, time=0),
    Message('note_off', channel=4, note=56, velocity=95, time=0),
    Message('note_off', channel=4, note=52, velocity=95, time=0),
    Message('note_off', channel=4, note=47, velocity=95, time=0),
    Message('note_off', channel=4, note=40, velocity=95, time=0),
    Message('note_on', channel=4, note=40, velocity=95, time=0),
    Message('note_on', channel=4, note=47, velocity=95, time=2),
    Message('note_on', channel=4, note=52, velocity=95, time=2),
    Message('note_on', channel=4, note=56, velocity=95, time=2),
    Message('note_on', channel=4, note=59, velocity=95, time=2),
    Message('note_on', channel=4, note=64, velocity=95, time=2),
    Message('note_off', channel=4, note=64, velocity=95, time=230),
    Message('note_off', channel=4, note=59, velocity=95, time=0),
    Message('note_off', channel=4, note=56, velocity=95, time=0),
    Message('note_off', channel=4, note=52, velocity=95, time=0),
    Message('note_off', channel=4, note=47, velocity=95, time=0),
    Message('note_off', channel=4, note=40, velocity=95, time=0),
    Message('note_on', channel=4, note=64, velocity=95, time=0),
    Message('note_on', channel=4, note=59, velocity=95, time=2),
    Message('note_on', channel=4, note=56, velocity=95, time=2),
    Message('note_on', channel=4, note=52, velocity=95, time=2),
    Message('note_on', channel=4, note=47, velocity=95, time=2),
    Message('note_on', channel=4, note=40, velocity=95, time=2),
    Message('note_off', channel=4, note=64, velocity=95, time=230),
    Message('note_off', channel=4, note=59, velocity=95, time=0),
    Message('note_off', channel=4, note=56, velocity=95, time=0),
    Message('note_off', channel=4, note=52, velocity=95, time=0),
    Message('note_off', channel=4, note=47, velocity=95, time=0),
    Message('note_off', channel=4, note=40, velocity=95, time=0),
    Message('note_on', channel=4, note=40, velocity=95, time=0),
    Message('note_on', channel=4, note=47, velocity=95, time=2),
    Message('note_on', channel=4, note=52, velocity=95, time=2),
    Message('note_on', channel=4, note=56, velocity=95, time=2),
    Message('note_on', channel=4, note=59, velocity=95, time=2),
    Message('note_on', channel=4, note=64, velocity=95, time=2),
    Message('note_off', channel=4, note=64, velocity=95, time=230),
    Message('note_off', channel=4, note=59, velocity=95, time=0),
    Message('note_off', channel=4, note=56, velocity=95, time=0),
    Message('note_off', channel=4, note=52, velocity=95, time=0),
    Message('note_off', channel=4, note=47, velocity=95, time=0),
    Message('note_off', channel=4, note=40, velocity=95, time=0),
    Message('note_on', channel=4, note=64, velocity=95, time=0),
    Message('note_on', channel=4, note=59, velocity=95, time=2),
    Message('note_on', channel=4, note=56, velocity=95, time=2),
    Message('note_on', channel=4, note=52, velocity=95, time=2),
    Message('note_on', channel=4, note=47, velocity=95, time=2),
    Message('note_on', channel=4, note=40, velocity=95, time=2),
    Message('note_off', channel=4, note=64, velocity=95, time=230),
    Message('note_off', channel=4, note=59, velocity=95, time=0),
    Message('note_off', channel=4, note=56, velocity=95, time=0),
    Message('note_off', channel=4, note=52, velocity=95, time=0),
    Message('note_off', channel=4, note=47, velocity=95, time=0),
    Message('note_off', channel=4, note=40, velocity=95, time=0),
    Message('note_on', channel=4, note=43, velocity=95, time=0),
    Message('note_on', channel=4, note=47, velocity=95, time=4),
    Message('note_on', channel=4, note=50, velocity=95, time=4),
    Message('note_on', channel=4, note=55, velocity=95, time=4),
    Message('note_on', channel=4, note=62, velocity=95, time=4),
    Message('note_on', channel=4, note=67, velocity=95, time=4),
    Message('note_off', channel=4, note=67, velocity=95, time=460),
    Message('note_off', channel=4, note=62, velocity=95, time=0),
    Message('note_off', channel=4, note=55, velocity=95, time=0),
    Message('note_off', channel=4, note=50, velocity=95, time=0),
    Message('note_off', channel=4, note=47, velocity=95, time=0),
    Message('note_off', channel=4, note=43, velocity=95, time=0),
    Message('note_on', channel=4, note=43, velocity=95, time=0),
    Message('note_on', channel=4, note=47, velocity=95, time=2),
    Message('note_on', channel=4, note=50, velocity=95, time=2),
    Message('note_on', channel=4, note=55, velocity=95, time=2),
    Message('note_on', channel=4, note=62, velocity=95, time=2),
    Message('note_on', channel=4, note=67, velocity=95, time=2),
    Message('note_off', channel=4, note=67, velocity=95, time=230),
    Message('note_off', channel=4, note=62, velocity=95, time=0),
    Message('note_off', channel=4, note=55, velocity=95, time=0),
    Message('note_off', channel=4, note=50, velocity=95, time=0),
    Message('note_off', channel=4, note=47, velocity=95, time=0),
    Message('note_off', channel=4, note=43, velocity=95, time=0),
    Message('note_on', channel=4, note=67, velocity=95, time=0),
    Message('note_on', channel=4, note=62, velocity=95, time=2),
    Message('note_on', channel=4, note=55, velocity=95, time=2),
    Message('note_on', channel=4, note=50, velocity=95, time=2),
    Message('note_on', channel=4, note=47, velocity=95, time=2),
    Message('note_on', channel=4, note=43, velocity=95, time=2),
    Message('note_off', channel=4, note=67, velocity=95, time=230),
    Message('note_off', channel=4, note=62, velocity=95, time=0),
    Message('note_off', channel=4, note=55, velocity=95, time=0),
    Message('note_off', channel=4, note=50, velocity=95, time=0),
    Message('note_off', channel=4, note=47, velocity=95, time=0),
    Message('note_off', channel=4, note=43, velocity=95, time=0),
    Message('note_on', channel=4, note=43, velocity=95, time=0),
    Message('note_on', channel=4, note=47, velocity=95, time=2),
    Message('note_on', channel=4, note=50, velocity=95, time=2),
    Message('note_on', channel=4, note=55, velocity=95, time=2),
    Message('note_on', channel=4, note=62, velocity=95, time=2),
    Message('note_on', channel=4, note=67, velocity=95, time=2),
    Message('note_off', channel=4, note=67, velocity=95, time=230),
    Message('note_off', channel=4, note=62, velocity=95, time=0),
    Message('note_off', channel=4, note=55, velocity=95, time=0),
    Message('note_off', channel=4, note=50, velocity=95, time=0),
    Message('note_off', channel=4, note=47, velocity=95, time=0),
    Message('note_off', channel=4, note=43, velocity=95, time=0),
    Message('note_on', channel=4, note=67, velocity=95, time=0),
    Message('note_on', channel=4, note=62, velocity=95, time=2),
    Message('note_on', channel=4, note=55, velocity=95, time=2),
    Message('note_on', channel=4, note=50, velocity=95, time=2),
    Message('note_on', channel=4, note=47, velocity=95, time=2),
    Message('note_on', channel=4, note=43, velocity=95, time=2),
    Message('note_off', channel=4, note=67, velocity=95, time=230),
    Message('note_off', channel=4, note=62, velocity=95, time=0),
    Message('note_off', channel=4, note=55, velocity=95, time=0),
    Message('note_off', channel=4, note=50, velocity=95, time=0),
    Message('note_off', channel=4, note=47, velocity=95, time=0),
    Message('note_off', channel=4, note=43, velocity=95, time=0),
    Message('note_on', channel=4, note=43, velocity=95, time=0),
    Message('note_on', channel=4, note=47, velocity=95, time=2),
    Message('note_on', channel=4, note=50, velocity=95, time=2),
    Message('note_on', channel=4, note=55, velocity=95, time=2),
    Message('note_on', channel=4, note=62, velocity=95, time=2),
    Message('note_on', channel=4, note=67, velocity=95, time=2),
    Message('note_off', channel=4, note=67, velocity=95, time=230),
    Message('note_off', channel=4, note=62, velocity=95, time=0),
    Message('note_off', channel=4, note=55, velocity=95, time=0),
    Message('note_off', channel=4, note=50, velocity=95, time=0),
    Message('note_off', channel=4, note=47, velocity=95, time=0),
    Message('note_off', channel=4, note=43, velocity=95, time=0),
    Message('note_on', channel=4, note=67, velocity=95, time=0),
    Message('note_on', channel=4, note=62, velocity=95, time=2),
    Message('note_on', channel=4, note=55, velocity=95, time=2),
    Message('note_on', channel=4, note=50, velocity=95, time=2),
    Message('note_on', channel=4, note=47, velocity=95, time=2),
    Message('note_on', channel=4, note=43, velocity=95, time=2),
    Message('note_off', channel=4, note=67, velocity=95, time=230),
    Message('note_off', channel=4, note=62, velocity=95, time=0),
    Message('note_off', channel=4, note=55, velocity=95, time=0),
    Message('note_off', channel=4, note=50, velocity=95, time=0),
    Message('note_off', channel=4, note=47, velocity=95, time=0),
    Message('note_off', channel=4, note=43, velocity=95, time=0),
    Message('note_on', channel=4, note=50, velocity=95, time=0),
    Message('note_on', channel=4, note=57, velocity=95, time=4),
    Message('note_on', channel=4, note=62, velocity=95, time=4),
    Message('note_on', channel=4, note=66, velocity=95, time=4),
    Message('note_off', channel=4, note=66, velocity=95, time=468),
    Message('note_off', channel=4, note=62, velocity=95, time=0),
    Message('note_off', channel=4, note=57, velocity=95, time=0),
    Message('note_off', channel=4, note=50, velocity=95, time=0),
    Message('note_on', channel=4, note=50, velocity=95, time=0),
    Message('note_on', channel=4, note=57, velocity=95, time=2),
    Message('note_on', channel=4, note=62, velocity=95, time=2),
    Message('note_on', channel=4, note=66, velocity=95, time=2),
    Message('note_off', channel=4, note=66, velocity=95, time=234),
    Message('note_off', channel=4, note=62, velocity=95, time=0),
    Message('note_off', channel=4, note=57, velocity=95, time=0),
    Message('note_off', channel=4, note=50, velocity=95, time=0),
    Message('note_on', channel=4, note=66, velocity=95, time=0),
    Message('note_on', channel=4, note=62, velocity=95, time=2),
    Message('note_on', channel=4, note=57, velocity=95, time=2),
    Message('note_on', channel=4, note=50, velocity=95, time=2),
    Message('note_off', channel=4, note=66, velocity=95, time=234),
    Message('note_off', channel=4, note=62, velocity=95, time=0),
    Message('note_off', channel=4, note=57, velocity=95, time=0),
    Message('note_off', channel=4, note=50, velocity=95, time=0),
    Message('note_on', channel=4, note=50, velocity=95, time=0),
    Message('note_on', channel=4, note=57, velocity=95, time=2),
    Message('note_on', channel=4, note=62, velocity=95, time=2),
    Message('note_on', channel=4, note=66, velocity=95, time=2),
    Message('note_off', channel=4, note=66, velocity=95, time=234),
    Message('note_off', channel=4, note=62, velocity=95, time=0),
    Message('note_off', channel=4, note=57, velocity=95, time=0),
    Message('note_off', channel=4, note=50, velocity=95, time=0),
    Message('note_on', channel=4, note=66, velocity=95, time=0),
    Message('note_on', channel=4, note=62, velocity=95, time=2),
    Message('note_on', channel=4, note=57, velocity=95, time=2),
    Message('note_on', channel=4, note=50, velocity=95, time=2),
    Message('note_off', channel=4, note=66, velocity=95, time=234),
    Message('note_off', channel=4, note=62, velocity=95, time=0),
    Message('note_off', channel=4, note=57, velocity=95, time=0),
    Message('note_off', channel=4, note=50, velocity=95, time=0),
    Message('note_on', channel=4, note=50, velocity=95, time=0),
    Message('note_on', channel=4, note=57, velocity=95, time=2),
    Message('note_on', channel=4, note=62, velocity=95, time=2),
    Message('note_on', channel=4, note=66, velocity=95, time=2),
    Message('note_off', channel=4, note=66, velocity=95, time=234),
    Message('note_off', channel=4, note=62, velocity=95, time=0),
    Message('note_off', channel=4, note=57, velocity=95, time=0),
    Message('note_off', channel=4, note=50, velocity=95, time=0),
    Message('note_on', channel=4, note=66, velocity=95, time=0),
    Message('note_on', channel=4, note=62, velocity=95, time=2),
    Message('note_on', channel=4, note=57, velocity=95, time=2),
    Message('note_on', channel=4, note=50, velocity=95, time=2),
    Message('note_off', channel=4, note=66, velocity=95, time=234),
    Message('note_off', channel=4, note=62, velocity=95, time=0),
    Message('note_off', channel=4, note=57, velocity=95, time=0),
    Message('note_off', channel=4, note=50, velocity=95, time=0),
    Message('note_on', channel=4, note=45, velocity=95, time=0),
    Message('note_on', channel=4, note=52, velocity=95, time=4),
    Message('note_on', channel=4, note=57, velocity=95, time=4),
    Message('note_on', channel=4, note=61, velocity=95, time=4),
    Message('note_on', channel=4, note=64, velocity=95, time=4),
    Message('note_off', channel=4, note=64, velocity=95, time=464),
    Message('note_off', channel=4, note=61, velocity=95, time=0),
    Message('note_off', channel=4, note=57, velocity=95, time=0),
    Message('note_off', channel=4, note=52, velocity=95, time=0),
    Message('note_off', channel=4, note=45, velocity=95, time=0),
    Message('note_on', channel=4, note=45, velocity=95, time=0),
    Message('note_on', channel=4, note=52, velocity=95, time=2),
    Message('note_on', channel=4, note=57, velocity=95, time=2),
    Message('note_on', channel=4, note=61, velocity=95, time=2),
    Message('note_on', channel=4, note=64, velocity=95, time=2),
    Message('note_off', channel=4, note=64, velocity=95, time=232),
    Message('note_off', channel=4, note=61, velocity=95, time=0),
    Message('note_off', channel=4, note=57, velocity=95, time=0),
    Message('note_off', channel=4, note=52, velocity=95, time=0),
    Message('note_off', channel=4, note=45, velocity=95, time=0),
    Message('note_on', channel=4, note=64, velocity=95, time=0),
    Message('note_on', channel=4, note=61, velocity=95, time=2),
    Message('note_on', channel=4, note=57, velocity=95, time=2),
    Message('note_on', channel=4, note=52, velocity=95, time=2),
    Message('note_on', channel=4, note=45, velocity=95, time=2),
    Message('note_off', channel=4, note=64, velocity=95, time=232),
    Message('note_off', channel=4, note=61, velocity=95, time=0),
    Message('note_off', channel=4, note=57, velocity=95, time=0),
    Message('note_off', channel=4, note=52, velocity=95, time=0),
    Message('note_off', channel=4, note=45, velocity=95, time=0),
    Message('note_on', channel=4, note=45, velocity=95, time=0),
    Message('note_on', channel=4, note=52, velocity=95, time=2),
    Message('note_on', channel=4, note=57, velocity=95, time=2),
    Message('note_on', channel=4, note=61, velocity=95, time=2),
    Message('note_on', channel=4, note=64, velocity=95, time=2),
    Message('note_off', channel=4, note=64, velocity=95, time=232),
    Message('note_off', channel=4, note=61, velocity=95, time=0),
    Message('note_off', channel=4, note=57, velocity=95, time=0),
    Message('note_off', channel=4, note=52, velocity=95, time=0),
    Message('note_off', channel=4, note=45, velocity=95, time=0),
    Message('note_on', channel=4, note=64, velocity=95, time=0),
    Message('note_on', channel=4, note=61, velocity=95, time=2),
    Message('note_on', channel=4, note=57, velocity=95, time=2),
    Message('note_on', channel=4, note=52, velocity=95, time=2),
    Message('note_on', channel=4, note=45, velocity=95, time=2),
    Message('note_off', channel=4, note=64, velocity=95, time=232),
    Message('note_off', channel=4, note=61, velocity=95, time=0),
    Message('note_off', channel=4, note=57, velocity=95, time=0),
    Message('note_off', channel=4, note=52, velocity=95, time=0),
    Message('note_off', channel=4, note=45, velocity=95, time=0),
    Message('note_on', channel=4, note=45, velocity=95, time=0),
    Message('note_on', channel=4, note=52, velocity=95, time=2),
    Message('note_on', channel=4, note=57, velocity=95, time=2),
    Message('note_on', channel=4, note=61, velocity=95, time=2),
    Message('note_on', channel=4, note=64, velocity=95, time=2),
    Message('note_off', channel=4, note=64, velocity=95, time=232),
    Message('note_off', channel=4, note=61, velocity=95, time=0),
    Message('note_off', channel=4, note=57, velocity=95, time=0),
    Message('note_off', channel=4, note=52, velocity=95, time=0),
    Message('note_off', channel=4, note=45, velocity=95, time=0),
    Message('note_on', channel=4, note=64, velocity=95, time=0),
    Message('note_on', channel=4, note=61, velocity=95, time=2),
    Message('note_on', channel=4, note=57, velocity=95, time=2),
    Message('note_on', channel=4, note=52, velocity=95, time=2),
    Message('note_on', channel=4, note=45, velocity=95, time=2),
    Message('note_off', channel=4, note=64, velocity=95, time=232),
    Message('note_off', channel=4, note=61, velocity=95, time=0),
    Message('note_off', channel=4, note=57, velocity=95, time=0),
    Message('note_off', channel=4, note=52, velocity=95, time=0),
    Message('note_off', channel=4, note=45, velocity=95, time=0),
    Message('note_on', channel=4, note=40, velocity=95, time=0),
    Message('note_on', channel=4, note=47, velocity=95, time=4),
    Message('note_on', channel=4, note=52, velocity=95, time=4),
    Message('note_on', channel=4, note=56, velocity=95, time=4),
    Message('note_on', channel=4, note=59, velocity=95, time=4),
    Message('note_on', channel=4, note=64, velocity=95, time=4),
    Message('note_off', channel=4, note=64, velocity=95, time=460),
    Message('note_off', channel=4, note=59, velocity=95, time=0),
    Message('note_off', channel=4, note=56, velocity=95, time=0),
    Message('note_off', channel=4, note=52, velocity=95, time=0),
    Message('note_off', channel=4, note=47, velocity=95, time=0),
    Message('note_off', channel=4, note=40, velocity=95, time=0),
    Message('note_on', channel=4, note=40, velocity=95, time=0),
    Message('note_on', channel=4, note=47, velocity=95, time=2),
    Message('note_on', channel=4, note=52, velocity=95, time=2),
    Message('note_on', channel=4, note=56, velocity=95, time=2),
    Message('note_on', channel=4, note=59, velocity=95, time=2),
    Message('note_on', channel=4, note=64, velocity=95, time=2),
    Message('note_off', channel=4, note=64, velocity=95, time=230),
    Message('note_off', channel=4, note=59, velocity=95, time=0),
    Message('note_off', channel=4, note=56, velocity=95, time=0),
    Message('note_off', channel=4, note=52, velocity=95, time=0),
    Message('note_off', channel=4, note=47, velocity=95, time=0),
    Message('note_off', channel=4, note=40, velocity=95, time=0),
    Message('note_on', channel=4, note=64, velocity=95, time=0),
    Message('note_on', channel=4, note=59, velocity=95, time=2),
    Message('note_on', channel=4, note=56, velocity=95, time=2),
    Message('note_on', channel=4, note=52, velocity=95, time=2),
    Message('note_on', channel=4, note=47, velocity=95, time=2),
    Message('note_on', channel=4, note=40, velocity=95, time=2),
    Message('note_off', channel=4, note=64, velocity=95, time=230),
    Message('note_off', channel=4, note=59, velocity=95, time=0),
    Message('note_off', channel=4, note=56, velocity=95, time=0),
    Message('note_off', channel=4, note=52, velocity=95, time=0),
    Message('note_off', channel=4, note=47, velocity=95, time=0),
    Message('note_off', channel=4, note=40, velocity=95, time=0),
    Message('note_on', channel=4, note=40, velocity=95, time=0),
    Message('note_on', channel=4, note=47, velocity=95, time=2),
    Message('note_on', channel=4, note=52, velocity=95, time=2),
    Message('note_on', channel=4, note=56, velocity=95, time=2),
    Message('note_on', channel=4, note=59, velocity=95, time=2),
    Message('note_on', channel=4, note=64, velocity=95, time=2),
    Message('note_off', channel=4, note=64, velocity=95, time=230),
    Message('note_off', channel=4, note=59, velocity=95, time=0),
    Message('note_off', channel=4, note=56, velocity=95, time=0),
    Message('note_off', channel=4, note=52, velocity=95, time=0),
    Message('note_off', channel=4, note=47, velocity=95, time=0),
    Message('note_off', channel=4, note=40, velocity=95, time=0),
    Message('note_on', channel=4, note=64, velocity=95, time=0),
    Message('note_on', channel=4, note=59, velocity=95, time=2),
    Message('note_on', channel=4, note=56, velocity=95, time=2),
    Message('note_on', channel=4, note=52, velocity=95, time=2),
    Message('note_on', channel=4, note=47, velocity=95, time=2),
    Message('note_on', channel=4, note=40, velocity=95, time=2),
    Message('note_off', channel=4, note=64, velocity=95, time=230),
    Message('note_off', channel=4, note=59, velocity=95, time=0),
    Message('note_off', channel=4, note=56, velocity=95, time=0),
    Message('note_off', channel=4, note=52, velocity=95, time=0),
    Message('note_off', channel=4, note=47, velocity=95, time=0),
    Message('note_off', channel=4, note=40, velocity=95, time=0),
    Message('note_on', channel=4, note=40, velocity=95, time=0),
    Message('note_on', channel=4, note=47, velocity=95, time=2),
    Message('note_on', channel=4, note=52, velocity=95, time=2),
    Message('note_on', channel=4, note=56, velocity=95, time=2),
    Message('note_on', channel=4, note=59, velocity=95, time=2),
    Message('note_on', channel=4, note=64, velocity=95, time=2),
    Message('note_off', channel=4, note=64, velocity=95, time=230),
    Message('note_off', channel=4, note=59, velocity=95, time=0),
    Message('note_off', channel=4, note=56, velocity=95, time=0),
    Message('note_off', channel=4, note=52, velocity=95, time=0),
    Message('note_off', channel=4, note=47, velocity=95, time=0),
    Message('note_off', channel=4, note=40, velocity=95, time=0),
    Message('note_on', channel=4, note=64, velocity=95, time=0),
    Message('note_on', channel=4, note=59, velocity=95, time=2),
    Message('note_on', channel=4, note=56, velocity=95, time=2),
    Message('note_on', channel=4, note=52, velocity=95, time=2),
    Message('note_on', channel=4, note=47, velocity=95, time=2),
    Message('note_on', channel=4, note=40, velocity=95, time=2),
    Message('note_off', channel=4, note=64, velocity=95, time=230),
    Message('note_off', channel=4, note=59, velocity=95, time=0),
    Message('note_off', channel=4, note=56, velocity=95, time=0),
    Message('note_off', channel=4, note=52, velocity=95, time=0),
    Message('note_off', channel=4, note=47, velocity=95, time=0),
    Message('note_off', channel=4, note=40, velocity=95, time=0),
    Message('note_on', channel=4, note=43, velocity=95, time=0),
    Message('note_on', channel=4, note=47, velocity=95, time=4),
    Message('note_on', channel=4, note=50, velocity=95, time=4),
    Message('note_on', channel=4, note=55, velocity=95, time=4),
    Message('note_on', channel=4, note=62, velocity=95, time=4),
    Message('note_on', channel=4, note=67, velocity=95, time=4),
    Message('note_off', channel=4, note=67, velocity=95, time=460),
    Message('note_off', channel=4, note=62, velocity=95, time=0),
    Message('note_off', channel=4, note=55, velocity=95, time=0),
    Message('note_off', channel=4, note=50, velocity=95, time=0),
    Message('note_off', channel=4, note=47, velocity=95, time=0),
    Message('note_off', channel=4, note=43, velocity=95, time=0),
    Message('note_on', channel=4, note=43, velocity=95, time=0),
    Message('note_on', channel=4, note=47, velocity=95, time=2),
    Message('note_on', channel=4, note=50, velocity=95, time=2),
    Message('note_on', channel=4, note=55, velocity=95, time=2),
    Message('note_on', channel=4, note=62, velocity=95, time=2),
    Message('note_on', channel=4, note=67, velocity=95, time=2),
    Message('note_off', channel=4, note=67, velocity=95, time=230),
    Message('note_off', channel=4, note=62, velocity=95, time=0),
    Message('note_off', channel=4, note=55, velocity=95, time=0),
    Message('note_off', channel=4, note=50, velocity=95, time=0),
    Message('note_off', channel=4, note=47, velocity=95, time=0),
    Message('note_off', channel=4, note=43, velocity=95, time=0),
    Message('note_on', channel=4, note=67, velocity=95, time=0),
    Message('note_on', channel=4, note=62, velocity=95, time=2),
    Message('note_on', channel=4, note=55, velocity=95, time=2),
    Message('note_on', channel=4, note=50, velocity=95, time=2),
    Message('note_on', channel=4, note=47, velocity=95, time=2),
    Message('note_on', channel=4, note=43, velocity=95, time=2),
    Message('note_off', channel=4, note=67, velocity=95, time=230),
    Message('note_off', channel=4, note=62, velocity=95, time=0),
    Message('note_off', channel=4, note=55, velocity=95, time=0),
    Message('note_off', channel=4, note=50, velocity=95, time=0),
    Message('note_off', channel=4, note=47, velocity=95, time=0),
    Message('note_off', channel=4, note=43, velocity=95, time=0),
    Message('note_on', channel=4, note=43, velocity=95, time=0),
    Message('note_on', channel=4, note=47, velocity=95, time=2),
    Message('note_on', channel=4, note=50, velocity=95, time=2),
    Message('note_on', channel=4, note=55, velocity=95, time=2),
    Message('note_on', channel=4, note=62, velocity=95, time=2),
    Message('note_on', channel=4, note=67, velocity=95, time=2),
    Message('note_off', channel=4, note=67, velocity=95, time=230),
    Message('note_off', channel=4, note=62, velocity=95, time=0),
    Message('note_off', channel=4, note=55, velocity=95, time=0),
    Message('note_off', channel=4, note=50, velocity=95, time=0),
    Message('note_off', channel=4, note=47, velocity=95, time=0),
    Message('note_off', channel=4, note=43, velocity=95, time=0),
    Message('note_on', channel=4, note=67, velocity=95, time=0),
    Message('note_on', channel=4, note=62, velocity=95, time=2),
    Message('note_on', channel=4, note=55, velocity=95, time=2),
    Message('note_on', channel=4, note=50, velocity=95, time=2),
    Message('note_on', channel=4, note=47, velocity=95, time=2),
    Message('note_on', channel=4, note=43, velocity=95, time=2),
    Message('note_off', channel=4, note=67, velocity=95, time=230),
    Message('note_off', channel=4, note=62, velocity=95, time=0),
    Message('note_off', channel=4, note=55, velocity=95, time=0),
    Message('note_off', channel=4, note=50, velocity=95, time=0),
    Message('note_off', channel=4, note=47, velocity=95, time=0),
    Message('note_off', channel=4, note=43, velocity=95, time=0),
    Message('note_on', channel=4, note=43, velocity=95, time=0),
    Message('note_on', channel=4, note=47, velocity=95, time=2),
    Message('note_on', channel=4, note=50, velocity=95, time=2),
    Message('note_on', channel=4, note=55, velocity=95, time=2),
    Message('note_on', channel=4, note=62, velocity=95, time=2),
    Message('note_on', channel=4, note=67, velocity=95, time=2),
    Message('note_off', channel=4, note=67, velocity=95, time=230),
    Message('note_off', channel=4, note=62, velocity=95, time=0),
    Message('note_off', channel=4, note=55, velocity=95, time=0),
    Message('note_off', channel=4, note=50, velocity=95, time=0),
    Message('note_off', channel=4, note=47, velocity=95, time=0),
    Message('note_off', channel=4, note=43, velocity=95, time=0),
    Message('note_on', channel=4, note=67, velocity=95, time=0),
    Message('note_on', channel=4, note=62, velocity=95, time=2),
    Message('note_on', channel=4, note=55, velocity=95, time=2),
    Message('note_on', channel=4, note=50, velocity=95, time=2),
    Message('note_on', channel=4, note=47, velocity=95, time=2),
    Message('note_on', channel=4, note=43, velocity=95, time=2),
    Message('note_off', channel=4, note=67, velocity=95, time=230),
    Message('note_off', channel=4, note=62, velocity=95, time=0),
    Message('note_off', channel=4, note=55, velocity=95, time=0),
    Message('note_off', channel=4, note=50, velocity=95, time=0),
    Message('note_off', channel=4, note=47, velocity=95, time=0),
    Message('note_off', channel=4, note=43, velocity=95, time=0),
    Message('note_on', channel=4, note=50, velocity=95, time=0),
    Message('note_on', channel=4, note=57, velocity=95, time=4),
    Message('note_on', channel=4, note=62, velocity=95, time=4),
    Message('note_on', channel=4, note=66, velocity=95, time=4),
    Message('note_off', channel=4, note=66, velocity=95, time=468),
    Message('note_off', channel=4, note=62, velocity=95, time=0),
    Message('note_off', channel=4, note=57, velocity=95, time=0),
    Message('note_off', channel=4, note=50, velocity=95, time=0),
    Message('note_on', channel=4, note=50, velocity=95, time=0),
    Message('note_on', channel=4, note=57, velocity=95, time=2),
    Message('note_on', channel=4, note=62, velocity=95, time=2),
    Message('note_on', channel=4, note=66, velocity=95, time=2),
    Message('note_off', channel=4, note=66, velocity=95, time=234),
    Message('note_off', channel=4, note=62, velocity=95, time=0),
    Message('note_off', channel=4, note=57, velocity=95, time=0),
    Message('note_off', channel=4, note=50, velocity=95, time=0),
    Message('note_on', channel=4, note=66, velocity=95, time=0),
    Message('note_on', channel=4, note=62, velocity=95, time=2),
    Message('note_on', channel=4, note=57, velocity=95, time=2),
    Message('note_on', channel=4, note=50, velocity=95, time=2),
    Message('note_off', channel=4, note=66, velocity=95, time=234),
    Message('note_off', channel=4, note=62, velocity=95, time=0),
    Message('note_off', channel=4, note=57, velocity=95, time=0),
    Message('note_off', channel=4, note=50, velocity=95, time=0),
    Message('note_on', channel=4, note=50, velocity=95, time=0),
    Message('note_on', channel=4, note=57, velocity=95, time=2),
    Message('note_on', channel=4, note=62, velocity=95, time=2),
    Message('note_on', channel=4, note=66, velocity=95, time=2),
    Message('note_off', channel=4, note=66, velocity=95, time=234),
    Message('note_off', channel=4, note=62, velocity=95, time=0),
    Message('note_off', channel=4, note=57, velocity=95, time=0),
    Message('note_off', channel=4, note=50, velocity=95, time=0),
    Message('note_on', channel=4, note=66, velocity=95, time=0),
    Message('note_on', channel=4, note=62, velocity=95, time=2),
    Message('note_on', channel=4, note=57, velocity=95, time=2),
    Message('note_on', channel=4, note=50, velocity=95, time=2),
    Message('note_off', channel=4, note=66, velocity=95, time=234),
    Message('note_off', channel=4, note=62, velocity=95, time=0),
    Message('note_off', channel=4, note=57, velocity=95, time=0),
    Message('note_off', channel=4, note=50, velocity=95, time=0),
    Message('note_on', channel=4, note=50, velocity=95, time=0),
    Message('note_on', channel=4, note=57, velocity=95, time=2),
    Message('note_on', channel=4, note=62, velocity=95, time=2),
    Message('note_on', channel=4, note=66, velocity=95, time=2),
    Message('note_off', channel=4, note=66, velocity=95, time=234),
    Message('note_off', channel=4, note=62, velocity=95, time=0),
    Message('note_off', channel=4, note=57, velocity=95, time=0),
    Message('note_off', channel=4, note=50, velocity=95, time=0),
    Message('note_on', channel=4, note=66, velocity=95, time=0),
    Message('note_on', channel=4, note=62, velocity=95, time=2),
    Message('note_on', channel=4, note=57, velocity=95, time=2),
    Message('note_on', channel=4, note=50, velocity=95, time=2),
    Message('note_off', channel=4, note=66, velocity=95, time=234),
    Message('note_off', channel=4, note=62, velocity=95, time=0),
    Message('note_off', channel=4, note=57, velocity=95, time=0),
    Message('note_off', channel=4, note=50, velocity=95, time=0),
    Message('note_on', channel=4, note=45, velocity=95, time=0),
    Message('note_on', channel=4, note=52, velocity=95, time=4),
    Message('note_on', channel=4, note=57, velocity=95, time=4),
    Message('note_on', channel=4, note=61, velocity=95, time=4),
    Message('note_on', channel=4, note=64, velocity=95, time=4),
    Message('note_off', channel=4, note=64, velocity=95, time=464),
    Message('note_off', channel=4, note=61, velocity=95, time=0),
    Message('note_off', channel=4, note=57, velocity=95, time=0),
    Message('note_off', channel=4, note=52, velocity=95, time=0),
    Message('note_off', channel=4, note=45, velocity=95, time=0),
    Message('note_on', channel=4, note=45, velocity=95, time=0),
    Message('note_on', channel=4, note=52, velocity=95, time=2),
    Message('note_on', channel=4, note=57, velocity=95, time=2),
    Message('note_on', channel=4, note=61, velocity=95, time=2),
    Message('note_on', channel=4, note=64, velocity=95, time=2),
    Message('note_off', channel=4, note=64, velocity=95, time=232),
    Message('note_off', channel=4, note=61, velocity=95, time=0),
    Message('note_off', channel=4, note=57, velocity=95, time=0),
    Message('note_off', channel=4, note=52, velocity=95, time=0),
    Message('note_off', channel=4, note=45, velocity=95, time=0),
    Message('note_on', channel=4, note=64, velocity=95, time=0),
    Message('note_on', channel=4, note=61, velocity=95, time=2),
    Message('note_on', channel=4, note=57, velocity=95, time=2),
    Message('note_on', channel=4, note=52, velocity=95, time=2),
    Message('note_on', channel=4, note=45, velocity=95, time=2),
    Message('note_off', channel=4, note=64, velocity=95, time=232),
    Message('note_off', channel=4, note=61, velocity=95, time=0),
    Message('note_off', channel=4, note=57, velocity=95, time=0),
    Message('note_off', channel=4, note=52, velocity=95, time=0),
    Message('note_off', channel=4, note=45, velocity=95, time=0),
    Message('note_on', channel=4, note=45, velocity=95, time=0),
    Message('note_on', channel=4, note=52, velocity=95, time=2),
    Message('note_on', channel=4, note=57, velocity=95, time=2),
    Message('note_on', channel=4, note=61, velocity=95, time=2),
    Message('note_on', channel=4, note=64, velocity=95, time=2),
    Message('note_off', channel=4, note=64, velocity=95, time=232),
    Message('note_off', channel=4, note=61, velocity=95, time=0),
    Message('note_off', channel=4, note=57, velocity=95, time=0),
    Message('note_off', channel=4, note=52, velocity=95, time=0),
    Message('note_off', channel=4, note=45, velocity=95, time=0),
    Message('note_on', channel=4, note=64, velocity=95, time=0),
    Message('note_on', channel=4, note=61, velocity=95, time=2),
    Message('note_on', channel=4, note=57, velocity=95, time=2),
    Message('note_on', channel=4, note=52, velocity=95, time=2),
    Message('note_on', channel=4, note=45, velocity=95, time=2),
    Message('note_off', channel=4, note=64, velocity=95, time=232),
    Message('note_off', channel=4, note=61, velocity=95, time=0),
    Message('note_off', channel=4, note=57, velocity=95, time=0),
    Message('note_off', channel=4, note=52, velocity=95, time=0),
    Message('note_off', channel=4, note=45, velocity=95, time=0),
    Message('note_on', channel=4, note=45, velocity=95, time=0),
    Message('note_on', channel=4, note=52, velocity=95, time=2),
    Message('note_on', channel=4, note=57, velocity=95, time=2),
    Message('note_on', channel=4, note=61, velocity=95, time=2),
    Message('note_on', channel=4, note=64, velocity=95, time=2),
    Message('note_off', channel=4, note=64, velocity=95, time=232),
    Message('note_off', channel=4, note=61, velocity=95, time=0),
    Message('note_off', channel=4, note=57, velocity=95, time=0),
    Message('note_off', channel=4, note=52, velocity=95, time=0),
    Message('note_off', channel=4, note=45, velocity=95, time=0),
    Message('note_on', channel=4, note=64, velocity=95, time=0),
    Message('note_on', channel=4, note=61, velocity=95, time=2),
    Message('note_on', channel=4, note=57, velocity=95, time=2),
    Message('note_on', channel=4, note=52, velocity=95, time=2),
    Message('note_on', channel=4, note=45, velocity=95, time=2),
    Message('note_off', channel=4, note=64, velocity=95, time=232),
    Message('note_off', channel=4, note=61, velocity=95, time=0),
    Message('note_off', channel=4, note=57, velocity=95, time=0),
    Message('note_off', channel=4, note=52, velocity=95, time=0),
    Message('note_off', channel=4, note=45, velocity=95, time=0),
    Message('note_on', channel=4, note=40, velocity=95, time=0),
    Message('note_on', channel=4, note=47, velocity=95, time=4),
    Message('note_on', channel=4, note=52, velocity=95, time=4),
    Message('note_on', channel=4, note=56, velocity=95, time=4),
    Message('note_on', channel=4, note=59, velocity=95, time=4),
    Message('note_on', channel=4, note=64, velocity=95, time=4),
    Message('note_off', channel=4, note=64, velocity=95, time=460),
    Message('note_off', channel=4, note=59, velocity=95, time=0),
    Message('note_off', channel=4, note=56, velocity=95, time=0),
    Message('note_off', channel=4, note=52, velocity=95, time=0),
    Message('note_off', channel=4, note=47, velocity=95, time=0),
    Message('note_off', channel=4, note=40, velocity=95, time=0),
    Message('note_on', channel=4, note=40, velocity=95, time=0),
    Message('note_on', channel=4, note=47, velocity=95, time=2),
    Message('note_on', channel=4, note=52, velocity=95, time=2),
    Message('note_on', channel=4, note=56, velocity=95, time=2),
    Message('note_on', channel=4, note=59, velocity=95, time=2),
    Message('note_on', channel=4, note=64, velocity=95, time=2),
    Message('note_off', channel=4, note=64, velocity=95, time=230),
    Message('note_off', channel=4, note=59, velocity=95, time=0),
    Message('note_off', channel=4, note=56, velocity=95, time=0),
    Message('note_off', channel=4, note=52, velocity=95, time=0),
    Message('note_off', channel=4, note=47, velocity=95, time=0),
    Message('note_off', channel=4, note=40, velocity=95, time=0),
    Message('note_on', channel=4, note=64, velocity=95, time=0),
    Message('note_on', channel=4, note=59, velocity=95, time=2),
    Message('note_on', channel=4, note=56, velocity=95, time=2),
    Message('note_on', channel=4, note=52, velocity=95, time=2),
    Message('note_on', channel=4, note=47, velocity=95, time=2),
    Message('note_on', channel=4, note=40, velocity=95, time=2),
    Message('note_off', channel=4, note=64, velocity=95, time=230),
    Message('note_off', channel=4, note=59, velocity=95, time=0),
    Message('note_off', channel=4, note=56, velocity=95, time=0),
    Message('note_off', channel=4, note=52, velocity=95, time=0),
    Message('note_off', channel=4, note=47, velocity=95, time=0),
    Message('note_off', channel=4, note=40, velocity=95, time=0),
    Message('note_on', channel=4, note=40, velocity=95, time=0),
    Message('note_on', channel=4, note=47, velocity=95, time=2),
    Message('note_on', channel=4, note=52, velocity=95, time=2),
    Message('note_on', channel=4, note=56, velocity=95, time=2),
    Message('note_on', channel=4, note=59, velocity=95, time=2),
    Message('note_on', channel=4, note=64, velocity=95, time=2),
    Message('note_off', channel=4, note=64, velocity=95, time=230),
    Message('note_off', channel=4, note=59, velocity=95, time=0),
    Message('note_off', channel=4, note=56, velocity=95, time=0),
    Message('note_off', channel=4, note=52, velocity=95, time=0),
    Message('note_off', channel=4, note=47, velocity=95, time=0),
    Message('note_off', channel=4, note=40, velocity=95, time=0),
    Message('note_on', channel=4, note=64, velocity=95, time=0),
    Message('note_on', channel=4, note=59, velocity=95, time=2),
    Message('note_on', channel=4, note=56, velocity=95, time=2),
    Message('note_on', channel=4, note=52, velocity=95, time=2),
    Message('note_on', channel=4, note=47, velocity=95, time=2),
    Message('note_on', channel=4, note=40, velocity=95, time=2),
    Message('note_off', channel=4, note=64, velocity=95, time=230),
    Message('note_off', channel=4, note=59, velocity=95, time=0),
    Message('note_off', channel=4, note=56, velocity=95, time=0),
    Message('note_off', channel=4, note=52, velocity=95, time=0),
    Message('note_off', channel=4, note=47, velocity=95, time=0),
    Message('note_off', channel=4, note=40, velocity=95, time=0),
    Message('note_on', channel=4, note=40, velocity=95, time=0),
    Message('note_on', channel=4, note=47, velocity=95, time=2),
    Message('note_on', channel=4, note=52, velocity=95, time=2),
    Message('note_on', channel=4, note=56, velocity=95, time=2),
    Message('note_on', channel=4, note=59, velocity=95, time=2),
    Message('note_on', channel=4, note=64, velocity=95, time=2),
    Message('note_off', channel=4, note=64, velocity=95, time=230),
    Message('note_off', channel=4, note=59, velocity=95, time=0),
    Message('note_off', channel=4, note=56, velocity=95, time=0),
    Message('note_off', channel=4, note=52, velocity=95, time=0),
    Message('note_off', channel=4, note=47, velocity=95, time=0),
    Message('note_off', channel=4, note=40, velocity=95, time=0),
    Message('note_on', channel=4, note=64, velocity=95, time=0),
    Message('note_on', channel=4, note=59, velocity=95, time=2),
    Message('note_on', channel=4, note=56, velocity=95, time=2),
    Message('note_on', channel=4, note=52, velocity=95, time=2),
    Message('note_on', channel=4, note=47, velocity=95, time=2),
    Message('note_on', channel=4, note=40, velocity=95, time=2),
    Message('note_off', channel=4, note=64, velocity=95, time=230),
    Message('note_off', channel=4, note=59, velocity=95, time=0),
    Message('note_off', channel=4, note=56, velocity=95, time=0),
    Message('note_off', channel=4, note=52, velocity=95, time=0),
    Message('note_off', channel=4, note=47, velocity=95, time=0),
    Message('note_off', channel=4, note=40, velocity=95, time=0),
    Message('note_on', channel=4, note=43, velocity=95, time=0),
    Message('note_on', channel=4, note=47, velocity=95, time=4),
    Message('note_on', channel=4, note=50, velocity=95, time=4),
    Message('note_on', channel=4, note=55, velocity=95, time=4),
    Message('note_on', channel=4, note=62, velocity=95, time=4),
    Message('note_on', channel=4, note=67, velocity=95, time=4),
    Message('note_off', channel=4, note=67, velocity=95, time=460),
    Message('note_off', channel=4, note=62, velocity=95, time=0),
    Message('note_off', channel=4, note=55, velocity=95, time=0),
    Message('note_off', channel=4, note=50, velocity=95, time=0),
    Message('note_off', channel=4, note=47, velocity=95, time=0),
    Message('note_off', channel=4, note=43, velocity=95, time=0),
    Message('note_on', channel=4, note=43, velocity=95, time=0),
    Message('note_on', channel=4, note=47, velocity=95, time=2),
    Message('note_on', channel=4, note=50, velocity=95, time=2),
    Message('note_on', channel=4, note=55, velocity=95, time=2),
    Message('note_on', channel=4, note=62, velocity=95, time=2),
    Message('note_on', channel=4, note=67, velocity=95, time=2),
    Message('note_off', channel=4, note=67, velocity=95, time=230),
    Message('note_off', channel=4, note=62, velocity=95, time=0),
    Message('note_off', channel=4, note=55, velocity=95, time=0),
    Message('note_off', channel=4, note=50, velocity=95, time=0),
    Message('note_off', channel=4, note=47, velocity=95, time=0),
    Message('note_off', channel=4, note=43, velocity=95, time=0),
    Message('note_on', channel=4, note=67, velocity=95, time=0),
    Message('note_on', channel=4, note=62, velocity=95, time=2),
    Message('note_on', channel=4, note=55, velocity=95, time=2),
    Message('note_on', channel=4, note=50, velocity=95, time=2),
    Message('note_on', channel=4, note=47, velocity=95, time=2),
    Message('note_on', channel=4, note=43, velocity=95, time=2),
    Message('note_off', channel=4, note=67, velocity=95, time=230),
    Message('note_off', channel=4, note=62, velocity=95, time=0),
    Message('note_off', channel=4, note=55, velocity=95, time=0),
    Message('note_off', channel=4, note=50, velocity=95, time=0),
    Message('note_off', channel=4, note=47, velocity=95, time=0),
    Message('note_off', channel=4, note=43, velocity=95, time=0),
    Message('note_on', channel=4, note=43, velocity=95, time=0),
    Message('note_on', channel=4, note=47, velocity=95, time=2),
    Message('note_on', channel=4, note=50, velocity=95, time=2),
    Message('note_on', channel=4, note=55, velocity=95, time=2),
    Message('note_on', channel=4, note=62, velocity=95, time=2),
    Message('note_on', channel=4, note=67, velocity=95, time=2),
    Message('note_off', channel=4, note=67, velocity=95, time=230),
    Message('note_off', channel=4, note=62, velocity=95, time=0),
    Message('note_off', channel=4, note=55, velocity=95, time=0),
    Message('note_off', channel=4, note=50, velocity=95, time=0),
    Message('note_off', channel=4, note=47, velocity=95, time=0),
    Message('note_off', channel=4, note=43, velocity=95, time=0),
    Message('note_on', channel=4, note=67, velocity=95, time=0),
    Message('note_on', channel=4, note=62, velocity=95, time=2),
    Message('note_on', channel=4, note=55, velocity=95, time=2),
    Message('note_on', channel=4, note=50, velocity=95, time=2),
    Message('note_on', channel=4, note=47, velocity=95, time=2),
    Message('note_on', channel=4, note=43, velocity=95, time=2),
    Message('note_off', channel=4, note=67, velocity=95, time=230),
    Message('note_off', channel=4, note=62, velocity=95, time=0),
    Message('note_off', channel=4, note=55, velocity=95, time=0),
    Message('note_off', channel=4, note=50, velocity=95, time=0),
    Message('note_off', channel=4, note=47, velocity=95, time=0),
    Message('note_off', channel=4, note=43, velocity=95, time=0),
    Message('note_on', channel=4, note=43, velocity=95, time=0),
    Message('note_on', channel=4, note=47, velocity=95, time=2),
    Message('note_on', channel=4, note=50, velocity=95, time=2),
    Message('note_on', channel=4, note=55, velocity=95, time=2),
    Message('note_on', channel=4, note=62, velocity=95, time=2),
    Message('note_on', channel=4, note=67, velocity=95, time=2),
    Message('note_off', channel=4, note=67, velocity=95, time=230),
    Message('note_off', channel=4, note=62, velocity=95, time=0),
    Message('note_off', channel=4, note=55, velocity=95, time=0),
    Message('note_off', channel=4, note=50, velocity=95, time=0),
    Message('note_off', channel=4, note=47, velocity=95, time=0),
    Message('note_off', channel=4, note=43, velocity=95, time=0),
    Message('note_on', channel=4, note=67, velocity=95, time=0),
    Message('note_on', channel=4, note=62, velocity=95, time=2),
    Message('note_on', channel=4, note=55, velocity=95, time=2),
    Message('note_on', channel=4, note=50, velocity=95, time=2),
    Message('note_on', channel=4, note=47, velocity=95, time=2),
    Message('note_on', channel=4, note=43, velocity=95, time=2),
    Message('note_off', channel=4, note=67, velocity=95, time=230),
    Message('note_off', channel=4, note=62, velocity=95, time=0),
    Message('note_off', channel=4, note=55, velocity=95, time=0),
    Message('note_off', channel=4, note=50, velocity=95, time=0),
    Message('note_off', channel=4, note=47, velocity=95, time=0),
    Message('note_off', channel=4, note=43, velocity=95, time=0),
    Message('note_on', channel=4, note=50, velocity=95, time=0),
    Message('note_on', channel=4, note=57, velocity=95, time=4),
    Message('note_on', channel=4, note=62, velocity=95, time=4),
    Message('note_on', channel=4, note=66, velocity=95, time=4),
    Message('note_off', channel=4, note=66, velocity=95, time=468),
    Message('note_off', channel=4, note=62, velocity=95, time=0),
    Message('note_off', channel=4, note=57, velocity=95, time=0),
    Message('note_off', channel=4, note=50, velocity=95, time=0),
    Message('note_on', channel=4, note=50, velocity=95, time=0),
    Message('note_on', channel=4, note=57, velocity=95, time=2),
    Message('note_on', channel=4, note=62, velocity=95, time=2),
    Message('note_on', channel=4, note=66, velocity=95, time=2),
    Message('note_off', channel=4, note=66, velocity=95, time=234),
    Message('note_off', channel=4, note=62, velocity=95, time=0),
    Message('note_off', channel=4, note=57, velocity=95, time=0),
    Message('note_off', channel=4, note=50, velocity=95, time=0),
    Message('note_on', channel=4, note=66, velocity=95, time=0),
    Message('note_on', channel=4, note=62, velocity=95, time=2),
    Message('note_on', channel=4, note=57, velocity=95, time=2),
    Message('note_on', channel=4, note=50, velocity=95, time=2),
    Message('note_off', channel=4, note=66, velocity=95, time=234),
    Message('note_off', channel=4, note=62, velocity=95, time=0),
    Message('note_off', channel=4, note=57, velocity=95, time=0),
    Message('note_off', channel=4, note=50, velocity=95, time=0),
    Message('note_on', channel=4, note=50, velocity=95, time=0),
    Message('note_on', channel=4, note=57, velocity=95, time=2),
    Message('note_on', channel=4, note=62, velocity=95, time=2),
    Message('note_on', channel=4, note=66, velocity=95, time=2),
    Message('note_off', channel=4, note=66, velocity=95, time=234),
    Message('note_off', channel=4, note=62, velocity=95, time=0),
    Message('note_off', channel=4, note=57, velocity=95, time=0),
    Message('note_off', channel=4, note=50, velocity=95, time=0),
    Message('note_on', channel=4, note=66, velocity=95, time=0),
    Message('note_on', channel=4, note=62, velocity=95, time=2),
    Message('note_on', channel=4, note=57, velocity=95, time=2),
    Message('note_on', channel=4, note=50, velocity=95, time=2),
    Message('note_off', channel=4, note=66, velocity=95, time=234),
    Message('note_off', channel=4, note=62, velocity=95, time=0),
    Message('note_off', channel=4, note=57, velocity=95, time=0),
    Message('note_off', channel=4, note=50, velocity=95, time=0),
    Message('note_on', channel=4, note=50, velocity=95, time=0),
    Message('note_on', channel=4, note=57, velocity=95, time=2),
    Message('note_on', channel=4, note=62, velocity=95, time=2),
    Message('note_on', channel=4, note=66, velocity=95, time=2),
    Message('note_off', channel=4, note=66, velocity=95, time=234),
    Message('note_off', channel=4, note=62, velocity=95, time=0),
    Message('note_off', channel=4, note=57, velocity=95, time=0),
    Message('note_off', channel=4, note=50, velocity=95, time=0),
    Message('note_on', channel=4, note=66, velocity=95, time=0),
    Message('note_on', channel=4, note=62, velocity=95, time=2),
    Message('note_on', channel=4, note=57, velocity=95, time=2),
    Message('note_on', channel=4, note=50, velocity=95, time=2),
    Message('note_off', channel=4, note=66, velocity=95, time=234),
    Message('note_off', channel=4, note=62, velocity=95, time=0),
    Message('note_off', channel=4, note=57, velocity=95, time=0),
    Message('note_off', channel=4, note=50, velocity=95, time=0),
    Message('note_on', channel=4, note=45, velocity=95, time=0),
    Message('note_on', channel=4, note=52, velocity=95, time=4),
    Message('note_on', channel=4, note=57, velocity=95, time=4),
    Message('note_on', channel=4, note=61, velocity=95, time=4),
    Message('note_on', channel=4, note=64, velocity=95, time=4),
    Message('note_off', channel=4, note=64, velocity=95, time=464),
    Message('note_off', channel=4, note=61, velocity=95, time=0),
    Message('note_off', channel=4, note=57, velocity=95, time=0),
    Message('note_off', channel=4, note=52, velocity=95, time=0),
    Message('note_off', channel=4, note=45, velocity=95, time=0),
    Message('note_on', channel=4, note=45, velocity=95, time=0),
    Message('note_on', channel=4, note=52, velocity=95, time=2),
    Message('note_on', channel=4, note=57, velocity=95, time=2),
    Message('note_on', channel=4, note=61, velocity=95, time=2),
    Message('note_on', channel=4, note=64, velocity=95, time=2),
    Message('note_off', channel=4, note=64, velocity=95, time=232),
    Message('note_off', channel=4, note=61, velocity=95, time=0),
    Message('note_off', channel=4, note=57, velocity=95, time=0),
    Message('note_off', channel=4, note=52, velocity=95, time=0),
    Message('note_off', channel=4, note=45, velocity=95, time=0),
    Message('note_on', channel=4, note=64, velocity=95, time=0),
    Message('note_on', channel=4, note=61, velocity=95, time=2),
    Message('note_on', channel=4, note=57, velocity=95, time=2),
    Message('note_on', channel=4, note=52, velocity=95, time=2),
    Message('note_on', channel=4, note=45, velocity=95, time=2),
    Message('note_off', channel=4, note=64, velocity=95, time=232),
    Message('note_off', channel=4, note=61, velocity=95, time=0),
    Message('note_off', channel=4, note=57, velocity=95, time=0),
    Message('note_off', channel=4, note=52, velocity=95, time=0),
    Message('note_off', channel=4, note=45, velocity=95, time=0),
    Message('note_on', channel=4, note=45, velocity=95, time=0),
    Message('note_on', channel=4, note=52, velocity=95, time=2),
    Message('note_on', channel=4, note=57, velocity=95, time=2),
    Message('note_on', channel=4, note=61, velocity=95, time=2),
    Message('note_on', channel=4, note=64, velocity=95, time=2),
    Message('note_off', channel=4, note=64, velocity=95, time=232),
    Message('note_off', channel=4, note=61, velocity=95, time=0),
    Message('note_off', channel=4, note=57, velocity=95, time=0),
    Message('note_off', channel=4, note=52, velocity=95, time=0),
    Message('note_off', channel=4, note=45, velocity=95, time=0),
    Message('note_on', channel=4, note=64, velocity=95, time=0),
    Message('note_on', channel=4, note=61, velocity=95, time=2),
    Message('note_on', channel=4, note=57, velocity=95, time=2),
    Message('note_on', channel=4, note=52, velocity=95, time=2),
    Message('note_on', channel=4, note=45, velocity=95, time=2),
    Message('note_off', channel=4, note=64, velocity=95, time=232),
    Message('note_off', channel=4, note=61, velocity=95, time=0),
    Message('note_off', channel=4, note=57, velocity=95, time=0),
    Message('note_off', channel=4, note=52, velocity=95, time=0),
    Message('note_off', channel=4, note=45, velocity=95, time=0),
    Message('note_on', channel=4, note=45, velocity=95, time=0),
    Message('note_on', channel=4, note=52, velocity=95, time=2),
    Message('note_on', channel=4, note=57, velocity=95, time=2),
    Message('note_on', channel=4, note=61, velocity=95, time=2),
    Message('note_on', channel=4, note=64, velocity=95, time=2),
    Message('note_off', channel=4, note=64, velocity=95, time=232),
    Message('note_off', channel=4, note=61, velocity=95, time=0),
    Message('note_off', channel=4, note=57, velocity=95, time=0),
    Message('note_off', channel=4, note=52, velocity=95, time=0),
    Message('note_off', channel=4, note=45, velocity=95, time=0),
    Message('note_on', channel=4, note=64, velocity=95, time=0),
    Message('note_on', channel=4, note=61, velocity=95, time=2),
    Message('note_on', channel=4, note=57, velocity=95, time=2),
    Message('note_on', channel=4, note=52, velocity=95, time=2),
    Message('note_on', channel=4, note=45, velocity=95, time=2),
    Message('note_off', channel=4, note=64, velocity=95, time=232),
    Message('note_off', channel=4, note=61, velocity=95, time=0),
    Message('note_off', channel=4, note=57, velocity=95, time=0),
    Message('note_off', channel=4, note=52, velocity=95, time=0),
    Message('note_off', channel=4, note=45, velocity=95, time=0),
    Message('note_on', channel=4, note=40, velocity=95, time=0),
    Message('note_on', channel=4, note=47, velocity=95, time=4),
    Message('note_on', channel=4, note=52, velocity=95, time=4),
    Message('note_on', channel=4, note=56, velocity=95, time=4),
    Message('note_on', channel=4, note=59, velocity=95, time=4),
    Message('note_on', channel=4, note=64, velocity=95, time=4),
    Message('note_off', channel=4, note=64, velocity=95, time=460),
    Message('note_off', channel=4, note=59, velocity=95, time=0),
    Message('note_off', channel=4, note=56, velocity=95, time=0),
    Message('note_off', channel=4, note=52, velocity=95, time=0),
    Message('note_off', channel=4, note=47, velocity=95, time=0),
    Message('note_off', channel=4, note=40, velocity=95, time=0),
    Message('note_on', channel=4, note=40, velocity=95, time=0),
    Message('note_on', channel=4, note=47, velocity=95, time=2),
    Message('note_on', channel=4, note=52, velocity=95, time=2),
    Message('note_on', channel=4, note=56, velocity=95, time=2),
    Message('note_on', channel=4, note=59, velocity=95, time=2),
    Message('note_on', channel=4, note=64, velocity=95, time=2),
    Message('note_off', channel=4, note=64, velocity=95, time=230),
    Message('note_off', channel=4, note=59, velocity=95, time=0),
    Message('note_off', channel=4, note=56, velocity=95, time=0),
    Message('note_off', channel=4, note=52, velocity=95, time=0),
    Message('note_off', channel=4, note=47, velocity=95, time=0),
    Message('note_off', channel=4, note=40, velocity=95, time=0),
    Message('note_on', channel=4, note=64, velocity=95, time=0),
    Message('note_on', channel=4, note=59, velocity=95, time=2),
    Message('note_on', channel=4, note=56, velocity=95, time=2),
    Message('note_on', channel=4, note=52, velocity=95, time=2),
    Message('note_on', channel=4, note=47, velocity=95, time=2),
    Message('note_on', channel=4, note=40, velocity=95, time=2),
    Message('note_off', channel=4, note=64, velocity=95, time=230),
    Message('note_off', channel=4, note=59, velocity=95, time=0),
    Message('note_off', channel=4, note=56, velocity=95, time=0),
    Message('note_off', channel=4, note=52, velocity=95, time=0),
    Message('note_off', channel=4, note=47, velocity=95, time=0),
    Message('note_off', channel=4, note=40, velocity=95, time=0),
    Message('note_on', channel=4, note=40, velocity=95, time=0),
    Message('note_on', channel=4, note=47, velocity=95, time=2),
    Message('note_on', channel=4, note=52, velocity=95, time=2),
    Message('note_on', channel=4, note=56, velocity=95, time=2),
    Message('note_on', channel=4, note=59, velocity=95, time=2),
    Message('note_on', channel=4, note=64, velocity=95, time=2),
    Message('note_off', channel=4, note=64, velocity=95, time=230),
    Message('note_off', channel=4, note=59, velocity=95, time=0),
    Message('note_off', channel=4, note=56, velocity=95, time=0),
    Message('note_off', channel=4, note=52, velocity=95, time=0),
    Message('note_off', channel=4, note=47, velocity=95, time=0),
    Message('note_off', channel=4, note=40, velocity=95, time=0),
    Message('note_on', channel=4, note=64, velocity=95, time=0),
    Message('note_on', channel=4, note=59, velocity=95, time=2),
    Message('note_on', channel=4, note=56, velocity=95, time=2),
    Message('note_on', channel=4, note=52, velocity=95, time=2),
    Message('note_on', channel=4, note=47, velocity=95, time=2),
    Message('note_on', channel=4, note=40, velocity=95, time=2),
    Message('note_off', channel=4, note=64, velocity=95, time=230),
    Message('note_off', channel=4, note=59, velocity=95, time=0),
    Message('note_off', channel=4, note=56, velocity=95, time=0),
    Message('note_off', channel=4, note=52, velocity=95, time=0),
    Message('note_off', channel=4, note=47, velocity=95, time=0),
    Message('note_off', channel=4, note=40, velocity=95, time=0),
    Message('note_on', channel=4, note=40, velocity=95, time=0),
    Message('note_on', channel=4, note=47, velocity=95, time=2),
    Message('note_on', channel=4, note=52, velocity=95, time=2),
    Message('note_on', channel=4, note=56, velocity=95, time=2),
    Message('note_on', channel=4, note=59, velocity=95, time=2),
    Message('note_on', channel=4, note=64, velocity=95, time=2),
    Message('note_off', channel=4, note=64, velocity=95, time=230),
    Message('note_off', channel=4, note=59, velocity=95, time=0),
    Message('note_off', channel=4, note=56, velocity=95, time=0),
    Message('note_off', channel=4, note=52, velocity=95, time=0),
    Message('note_off', channel=4, note=47, velocity=95, time=0),
    Message('note_off', channel=4, note=40, velocity=95, time=0),
    Message('note_on', channel=4, note=64, velocity=95, time=0),
    Message('note_on', channel=4, note=59, velocity=95, time=2),
    Message('note_on', channel=4, note=56, velocity=95, time=2),
    Message('note_on', channel=4, note=52, velocity=95, time=2),
    Message('note_on', channel=4, note=47, velocity=95, time=2),
    Message('note_on', channel=4, note=40, velocity=95, time=2),
    Message('note_off', channel=4, note=64, velocity=95, time=230),
    Message('note_off', channel=4, note=59, velocity=95, time=0),
    Message('note_off', channel=4, note=56, velocity=95, time=0),
    Message('note_off', channel=4, note=52, velocity=95, time=0),
    Message('note_off', channel=4, note=47, velocity=95, time=0),
    Message('note_off', channel=4, note=40, velocity=95, time=0),
    Message('note_on', channel=4, note=43, velocity=95, time=0),
    Message('note_on', channel=4, note=47, velocity=95, time=4),
    Message('note_on', channel=4, note=50, velocity=95, time=4),
    Message('note_on', channel=4, note=55, velocity=95, time=4),
    Message('note_on', channel=4, note=62, velocity=95, time=4),
    Message('note_on', channel=4, note=67, velocity=95, time=4),
    Message('note_off', channel=4, note=67, velocity=95, time=460),
    Message('note_off', channel=4, note=62, velocity=95, time=0),
    Message('note_off', channel=4, note=55, velocity=95, time=0),
    Message('note_off', channel=4, note=50, velocity=95, time=0),
    Message('note_off', channel=4, note=47, velocity=95, time=0),
    Message('note_off', channel=4, note=43, velocity=95, time=0),
    Message('note_on', channel=4, note=43, velocity=95, time=0),
    Message('note_on', channel=4, note=47, velocity=95, time=2),
    Message('note_on', channel=4, note=50, velocity=95, time=2),
    Message('note_on', channel=4, note=55, velocity=95, time=2),
    Message('note_on', channel=4, note=62, velocity=95, time=2),
    Message('note_on', channel=4, note=67, velocity=95, time=2),
    Message('note_off', channel=4, note=67, velocity=95, time=230),
    Message('note_off', channel=4, note=62, velocity=95, time=0),
    Message('note_off', channel=4, note=55, velocity=95, time=0),
    Message('note_off', channel=4, note=50, velocity=95, time=0),
    Message('note_off', channel=4, note=47, velocity=95, time=0),
    Message('note_off', channel=4, note=43, velocity=95, time=0),
    Message('note_on', channel=4, note=67, velocity=95, time=0),
    Message('note_on', channel=4, note=62, velocity=95, time=2),
    Message('note_on', channel=4, note=55, velocity=95, time=2),
    Message('note_on', channel=4, note=50, velocity=95, time=2),
    Message('note_on', channel=4, note=47, velocity=95, time=2),
    Message('note_on', channel=4, note=43, velocity=95, time=2),
    Message('note_off', channel=4, note=67, velocity=95, time=230),
    Message('note_off', channel=4, note=62, velocity=95, time=0),
    Message('note_off', channel=4, note=55, velocity=95, time=0),
    Message('note_off', channel=4, note=50, velocity=95, time=0),
    Message('note_off', channel=4, note=47, velocity=95, time=0),
    Message('note_off', channel=4, note=43, velocity=95, time=0),
    Message('note_on', channel=4, note=43, velocity=95, time=0),
    Message('note_on', channel=4, note=47, velocity=95, time=2),
    Message('note_on', channel=4, note=50, velocity=95, time=2),
    Message('note_on', channel=4, note=55, velocity=95, time=2),
    Message('note_on', channel=4, note=62, velocity=95, time=2),
    Message('note_on', channel=4, note=67, velocity=95, time=2),
    Message('note_off', channel=4, note=67, velocity=95, time=230),
    Message('note_off', channel=4, note=62, velocity=95, time=0),
    Message('note_off', channel=4, note=55, velocity=95, time=0),
    Message('note_off', channel=4, note=50, velocity=95, time=0),
    Message('note_off', channel=4, note=47, velocity=95, time=0),
    Message('note_off', channel=4, note=43, velocity=95, time=0),
    Message('note_on', channel=4, note=67, velocity=95, time=0),
    Message('note_on', channel=4, note=62, velocity=95, time=2),
    Message('note_on', channel=4, note=55, velocity=95, time=2),
    Message('note_on', channel=4, note=50, velocity=95, time=2),
    Message('note_on', channel=4, note=47, velocity=95, time=2),
    Message('note_on', channel=4, note=43, velocity=95, time=2),
    Message('note_off', channel=4, note=67, velocity=95, time=230),
    Message('note_off', channel=4, note=62, velocity=95, time=0),
    Message('note_off', channel=4, note=55, velocity=95, time=0),
    Message('note_off', channel=4, note=50, velocity=95, time=0),
    Message('note_off', channel=4, note=47, velocity=95, time=0),
    Message('note_off', channel=4, note=43, velocity=95, time=0),
    Message('note_on', channel=4, note=43, velocity=95, time=0),
    Message('note_on', channel=4, note=47, velocity=95, time=2),
    Message('note_on', channel=4, note=50, velocity=95, time=2),
    Message('note_on', channel=4, note=55, velocity=95, time=2),
    Message('note_on', channel=4, note=62, velocity=95, time=2),
    Message('note_on', channel=4, note=67, velocity=95, time=2),
    Message('note_off', channel=4, note=67, velocity=95, time=230),
    Message('note_off', channel=4, note=62, velocity=95, time=0),
    Message('note_off', channel=4, note=55, velocity=95, time=0),
    Message('note_off', channel=4, note=50, velocity=95, time=0),
    Message('note_off', channel=4, note=47, velocity=95, time=0),
    Message('note_off', channel=4, note=43, velocity=95, time=0),
    Message('note_on', channel=4, note=67, velocity=95, time=0),
    Message('note_on', channel=4, note=62, velocity=95, time=2),
    Message('note_on', channel=4, note=55, velocity=95, time=2),
    Message('note_on', channel=4, note=50, velocity=95, time=2),
    Message('note_on', channel=4, note=47, velocity=95, time=2),
    Message('note_on', channel=4, note=43, velocity=95, time=2),
    Message('note_off', channel=4, note=67, velocity=95, time=230),
    Message('note_off', channel=4, note=62, velocity=95, time=0),
    Message('note_off', channel=4, note=55, velocity=95, time=0),
    Message('note_off', channel=4, note=50, velocity=95, time=0),
    Message('note_off', channel=4, note=47, velocity=95, time=0),
    Message('note_off', channel=4, note=43, velocity=95, time=0),
    Message('note_on', channel=4, note=40, velocity=95, time=0),
    Message('note_on', channel=4, note=47, velocity=95, time=15),
    Message('note_on', channel=4, note=52, velocity=95, time=15),
    Message('note_on', channel=4, note=56, velocity=95, time=15),
    Message('note_on', channel=4, note=59, velocity=95, time=15),
    Message('note_on', channel=4, note=64, velocity=95, time=15),
    Message('note_off', channel=4, note=64, velocity=95, time=3765),
    Message('note_off', channel=4, note=59, velocity=95, time=0),
    Message('note_off', channel=4, note=56, velocity=95, time=0),
    Message('note_off', channel=4, note=52, velocity=95, time=0),
    Message('note_off', channel=4, note=47, velocity=95, time=0),
    Message('note_off', channel=4, note=40, velocity=95, time=0),
    Message('note_on', channel=4, note=40, velocity=95, time=0),
    Message('note_on', channel=4, note=47, velocity=95, time=15),
    Message('note_on', channel=4, note=52, velocity=95, time=15),
    Message('note_on', channel=4, note=56, velocity=95, time=15),
    Message('note_on', channel=4, note=59, velocity=95, time=15),
    Message('note_on', channel=4, note=64, velocity=95, time=15),
    Message('note_off', channel=4, note=64, velocity=95, time=3765),
    Message('note_off', channel=4, note=59, velocity=95, time=0),
    Message('note_off', channel=4, note=56, velocity=95, time=0),
    Message('note_off', channel=4, note=52, velocity=95, time=0),
    Message('note_off', channel=4, note=47, velocity=95, time=0),
    Message('note_off', channel=4, note=40, velocity=95, time=0),
    Message('note_on', channel=4, note=40, velocity=95, time=0),
    Message('note_on', channel=4, note=47, velocity=95, time=15),
    Message('note_on', channel=4, note=52, velocity=95, time=15),
    Message('note_on', channel=4, note=56, velocity=95, time=15),
    Message('note_on', channel=4, note=59, velocity=95, time=15),
    Message('note_on', channel=4, note=64, velocity=95, time=15),
    Message('note_off', channel=4, note=64, velocity=95, time=2805),
    Message('note_off', channel=4, note=59, velocity=95, time=0),
    Message('note_off', channel=4, note=56, velocity=95, time=0),
    Message('note_off', channel=4, note=52, velocity=95, time=0),
    Message('note_off', channel=4, note=47, velocity=95, time=0),
    Message('note_off', channel=4, note=40, velocity=95, time=0),
    Message('note_on', channel=4, note=40, velocity=95, time=0),
    Message('note_on', channel=4, note=47, velocity=95, time=15),
    Message('note_on', channel=4, note=52, velocity=95, time=15),
    Message('note_on', channel=4, note=56, velocity=95, time=15),
    Message('note_on', channel=4, note=59, velocity=95, time=15),
    Message('note_on', channel=4, note=64, velocity=95, time=15),
    Message('note_off', channel=4, note=64, velocity=95, time=885),
    Message('note_off', channel=4, note=59, velocity=95, time=0),
    Message('note_off', channel=4, note=56, velocity=95, time=0),
    Message('note_off', channel=4, note=52, velocity=95, time=0),
    Message('note_off', channel=4, note=47, velocity=95, time=0),
    Message('note_off', channel=4, note=40, velocity=95, time=0),
    Message('note_on', channel=4, note=40, velocity=95, time=0),
    Message('note_on', channel=4, note=47, velocity=95, time=8),
    Message('note_on', channel=4, note=52, velocity=95, time=8),
    Message('note_on', channel=4, note=56, velocity=95, time=8),
    Message('note_on', channel=4, note=59, velocity=95, time=8),
    Message('note_on', channel=4, note=64, velocity=95, time=8),
    Message('note_off', channel=4, note=64, velocity=95, time=440),
    Message('note_off', channel=4, note=59, velocity=95, time=0),
    Message('note_off', channel=4, note=56, velocity=95, time=0),
    Message('note_off', channel=4, note=52, velocity=95, time=0),
    Message('note_off', channel=4, note=47, velocity=95, time=0),
    Message('note_off', channel=4, note=40, velocity=95, time=0),
    MetaMessage('end_of_track', time=0)]),
  MidiTrack([
    Message('pitchwheel', channel=2, pitch=0, time=0),
    Message('control_change', channel=2, control=7, value=127, time=0),
    Message('control_change', channel=2, control=10, value=63, time=0),
    Message('control_change', channel=2, control=93, value=0, time=0),
    Message('control_change', channel=2, control=91, value=55, time=0),
    Message('control_change', channel=2, control=95, value=0, time=0),
    Message('control_change', channel=2, control=92, value=0, time=0),
    Message('control_change', channel=2, control=11, value=127, time=0),
    Message('program_change', channel=2, program=27, time=0),
    Message('control_change', channel=3, control=7, value=127, time=0),
    Message('control_change', channel=3, control=10, value=63, time=0),
    Message('control_change', channel=3, control=93, value=0, time=0),
    Message('control_change', channel=3, control=91, value=55, time=0),
    Message('control_change', channel=3, control=95, value=0, time=0),
    Message('control_change', channel=3, control=92, value=0, time=0),
    Message('control_change', channel=3, control=11, value=127, time=0),
    Message('program_change', channel=3, program=27, time=0),
    Message('note_on', channel=2, note=47, velocity=95, time=175200),
    Message('note_on', channel=2, note=54, velocity=95, time=2),
    Message('note_on', channel=2, note=59, velocity=95, time=2),
    Message('note_on', channel=2, note=63, velocity=95, time=2),
    Message('note_on', channel=2, note=66, velocity=95, time=2),
    Message('note_on', channel=2, note=71, velocity=95, time=2),
    Message('note_off', channel=2, note=71, velocity=95, time=230),
    Message('note_off', channel=2, note=66, velocity=95, time=0),
    Message('note_off', channel=2, note=63, velocity=95, time=0),
    Message('note_off', channel=2, note=59, velocity=95, time=0),
    Message('note_off', channel=2, note=54, velocity=95, time=0),
    Message('note_off', channel=2, note=47, velocity=95, time=0),
    Message('note_on', channel=2, note=71, velocity=95, time=0),
    Message('note_on', channel=2, note=66, velocity=95, time=2),
    Message('note_on', channel=2, note=63, velocity=95, time=2),
    Message('note_on', channel=2, note=59, velocity=95, time=2),
    Message('note_on', channel=2, note=54, velocity=95, time=2),
    Message('note_on', channel=2, note=47, velocity=95, time=2),
    Message('note_off', channel=2, note=71, velocity=95, time=230),
    Message('note_off', channel=2, note=66, velocity=95, time=0),
    Message('note_off', channel=2, note=63, velocity=95, time=0),
    Message('note_off', channel=2, note=59, velocity=95, time=0),
    Message('note_off', channel=2, note=54, velocity=95, time=0),
    Message('note_off', channel=2, note=47, velocity=95, time=0),
    Message('note_on', channel=2, note=71, velocity=95, time=0),
    Message('note_on', channel=2, note=66, velocity=95, time=2),
    Message('note_on', channel=2, note=63, velocity=95, time=2),
    Message('note_on', channel=2, note=59, velocity=95, time=2),
    Message('note_on', channel=2, note=54, velocity=95, time=2),
    Message('note_on', channel=2, note=47, velocity=95, time=2),
    Message('note_off', channel=2, note=71, velocity=95, time=230),
    Message('note_off', channel=2, note=66, velocity=95, time=0),
    Message('note_off', channel=2, note=63, velocity=95, time=0),
    Message('note_off', channel=2, note=59, velocity=95, time=0),
    Message('note_off', channel=2, note=54, velocity=95, time=0),
    Message('note_off', channel=2, note=47, velocity=95, time=0),
    Message('note_on', channel=2, note=71, velocity=95, time=0),
    Message('note_on', channel=2, note=66, velocity=95, time=2),
    Message('note_on', channel=2, note=63, velocity=95, time=2),
    Message('note_on', channel=2, note=59, velocity=95, time=2),
    Message('note_on', channel=2, note=54, velocity=95, time=2),
    Message('note_on', channel=2, note=47, velocity=95, time=2),
    Message('note_off', channel=2, note=71, velocity=95, time=230),
    Message('note_off', channel=2, note=66, velocity=95, time=0),
    Message('note_off', channel=2, note=63, velocity=95, time=0),
    Message('note_off', channel=2, note=59, velocity=95, time=0),
    Message('note_off', channel=2, note=54, velocity=95, time=0),
    Message('note_off', channel=2, note=47, velocity=95, time=0),
    Message('note_on', channel=2, note=47, velocity=95, time=480),
    Message('note_on', channel=2, note=54, velocity=95, time=2),
    Message('note_on', channel=2, note=59, velocity=95, time=2),
    Message('note_on', channel=2, note=63, velocity=95, time=2),
    Message('note_on', channel=2, note=66, velocity=95, time=2),
    Message('note_on', channel=2, note=71, velocity=95, time=2),
    Message('note_off', channel=2, note=71, velocity=95, time=230),
    Message('note_off', channel=2, note=66, velocity=95, time=0),
    Message('note_off', channel=2, note=63, velocity=95, time=0),
    Message('note_off', channel=2, note=59, velocity=95, time=0),
    Message('note_off', channel=2, note=54, velocity=95, time=0),
    Message('note_off', channel=2, note=47, velocity=95, time=0),
    Message('note_on', channel=2, note=71, velocity=95, time=0),
    Message('note_on', channel=2, note=66, velocity=95, time=2),
    Message('note_on', channel=2, note=63, velocity=95, time=2),
    Message('note_on', channel=2, note=59, velocity=95, time=2),
    Message('note_on', channel=2, note=54, velocity=95, time=2),
    Message('note_on', channel=2, note=47, velocity=95, time=2),
    Message('note_off', channel=2, note=71, velocity=95, time=230),
    Message('note_off', channel=2, note=66, velocity=95, time=0),
    Message('note_off', channel=2, note=63, velocity=95, time=0),
    Message('note_off', channel=2, note=59, velocity=95, time=0),
    Message('note_off', channel=2, note=54, velocity=95, time=0),
    Message('note_off', channel=2, note=47, velocity=95, time=0),
    Message('note_on', channel=2, note=47, velocity=95, time=0),
    Message('note_on', channel=2, note=54, velocity=95, time=2),
    Message('note_on', channel=2, note=59, velocity=95, time=2),
    Message('note_on', channel=2, note=63, velocity=95, time=2),
    Message('note_on', channel=2, note=66, velocity=95, time=2),
    Message('note_on', channel=2, note=71, velocity=95, time=2),
    Message('note_off', channel=2, note=71, velocity=95, time=230),
    Message('note_off', channel=2, note=66, velocity=95, time=0),
    Message('note_off', channel=2, note=63, velocity=95, time=0),
    Message('note_off', channel=2, note=59, velocity=95, time=0),
    Message('note_off', channel=2, note=54, velocity=95, time=0),
    Message('note_off', channel=2, note=47, velocity=95, time=0),
    Message('note_on', channel=2, note=71, velocity=95, time=0),
    Message('note_on', channel=2, note=66, velocity=95, time=2),
    Message('note_on', channel=2, note=63, velocity=95, time=2),
    Message('note_on', channel=2, note=59, velocity=95, time=2),
    Message('note_on', channel=2, note=54, velocity=95, time=2),
    Message('note_on', channel=2, note=47, velocity=95, time=2),
    Message('note_off', channel=2, note=71, velocity=95, time=230),
    Message('note_off', channel=2, note=66, velocity=95, time=0),
    Message('note_off', channel=2, note=63, velocity=95, time=0),
    Message('note_off', channel=2, note=59, velocity=95, time=0),
    Message('note_off', channel=2, note=54, velocity=95, time=0),
    Message('note_off', channel=2, note=47, velocity=95, time=0),
    Message('note_on', channel=2, note=71, velocity=95, time=240),
    Message('note_on', channel=2, note=66, velocity=95, time=2),
    Message('note_on', channel=2, note=63, velocity=95, time=2),
    Message('note_on', channel=2, note=59, velocity=95, time=2),
    Message('note_on', channel=2, note=54, velocity=95, time=2),
    Message('note_on', channel=2, note=47, velocity=95, time=2),
    Message('note_off', channel=2, note=71, velocity=95, time=230),
    Message('note_off', channel=2, note=66, velocity=95, time=0),
    Message('note_off', channel=2, note=63, velocity=95, time=0),
    Message('note_off', channel=2, note=59, velocity=95, time=0),
    Message('note_off', channel=2, note=54, velocity=95, time=0),
    Message('note_off', channel=2, note=47, velocity=95, time=0),
    Message('note_on', channel=2, note=47, velocity=95, time=0),
    Message('note_on', channel=2, note=54, velocity=95, time=4),
    Message('note_on', channel=2, note=59, velocity=95, time=4),
    Message('note_on', channel=2, note=63, velocity=95, time=4),
    Message('note_on', channel=2, note=66, velocity=95, time=4),
    Message('note_on', channel=2, note=71, velocity=95, time=4),
    Message('note_off', channel=2, note=71, velocity=95, time=460),
    Message('note_off', channel=2, note=66, velocity=95, time=0),
    Message('note_off', channel=2, note=63, velocity=95, time=0),
    Message('note_off', channel=2, note=59, velocity=95, time=0),
    Message('note_off', channel=2, note=54, velocity=95, time=0),
    Message('note_off', channel=2, note=47, velocity=95, time=0),
    Message('note_on', channel=2, note=42, velocity=95, time=0),
    Message('note_on', channel=2, note=49, velocity=95, time=6),
    Message('note_on', channel=2, note=54, velocity=95, time=6),
    Message('note_on', channel=2, note=58, velocity=95, time=6),
    Message('note_on', channel=2, note=61, velocity=95, time=6),
    Message('note_on', channel=2, note=66, velocity=95, time=6),
    Message('note_off', channel=2, note=66, velocity=95, time=690),
    Message('note_off', channel=2, note=61, velocity=95, time=0),
    Message('note_off', channel=2, note=58, velocity=95, time=0),
    Message('note_off', channel=2, note=54, velocity=95, time=0),
    Message('note_off', channel=2, note=49, velocity=95, time=0),
    Message('note_off', channel=2, note=42, velocity=95, time=0),
    Message('note_on', channel=2, note=66, velocity=95, time=0),
    Message('note_on', channel=2, note=61, velocity=95, time=2),
    Message('note_on', channel=2, note=58, velocity=95, time=2),
    Message('note_on', channel=2, note=54, velocity=95, time=2),
    Message('note_on', channel=2, note=49, velocity=95, time=2),
    Message('note_on', channel=2, note=42, velocity=95, time=2),
    Message('note_off', channel=2, note=66, velocity=95, time=230),
    Message('note_off', channel=2, note=61, velocity=95, time=0),
    Message('note_off', channel=2, note=58, velocity=95, time=0),
    Message('note_off', channel=2, note=54, velocity=95, time=0),
    Message('note_off', channel=2, note=49, velocity=95, time=0),
    Message('note_off', channel=2, note=42, velocity=95, time=0),
    Message('note_on', channel=2, note=42, velocity=95, time=0),
    Message('note_on', channel=2, note=49, velocity=95, time=4),
    Message('note_on', channel=2, note=54, velocity=95, time=4),
    Message('note_on', channel=2, note=58, velocity=95, time=4),
    Message('note_on', channel=2, note=61, velocity=95, time=4),
    Message('note_on', channel=2, note=66, velocity=95, time=4),
    Message('note_off', channel=2, note=66, velocity=95, time=460),
    Message('note_off', channel=2, note=61, velocity=95, time=0),
    Message('note_off', channel=2, note=58, velocity=95, time=0),
    Message('note_off', channel=2, note=54, velocity=95, time=0),
    Message('note_off', channel=2, note=49, velocity=95, time=0),
    Message('note_off', channel=2, note=42, velocity=95, time=0),
    Message('note_on', channel=2, note=70, velocity=95, time=240),
    Message('note_on', channel=2, note=66, velocity=95, time=2),
    Message('note_on', channel=2, note=61, velocity=95, time=2),
    Message('note_on', channel=2, note=54, velocity=95, time=2),
    Message('note_off', channel=2, note=70, velocity=95, time=234),
    Message('note_off', channel=2, note=66, velocity=95, time=0),
    Message('note_off', channel=2, note=61, velocity=95, time=0),
    Message('note_off', channel=2, note=54, velocity=95, time=0),
    Message('note_on', channel=2, note=54, velocity=95, time=0),
    Message('note_on', channel=2, note=61, velocity=95, time=2),
    Message('note_on', channel=2, note=66, velocity=95, time=2),
    Message('note_on', channel=2, note=70, velocity=95, time=2),
    Message('note_off', channel=2, note=70, velocity=95, time=234),
    Message('note_off', channel=2, note=66, velocity=95, time=0),
    Message('note_off', channel=2, note=61, velocity=95, time=0),
    Message('note_off', channel=2, note=54, velocity=95, time=0),
    Message('note_on', channel=2, note=71, velocity=95, time=0),
    Message('note_on', channel=2, note=66, velocity=95, time=4),
    Message('note_on', channel=2, note=61, velocity=95, time=4),
    Message('note_on', channel=2, note=54, velocity=95, time=4),
    Message('note_off', channel=2, note=71, velocity=95, time=468),
    Message('note_off', channel=2, note=66, velocity=95, time=0),
    Message('note_off', channel=2, note=61, velocity=95, time=0),
    Message('note_off', channel=2, note=54, velocity=95, time=0),
    Message('note_on', channel=2, note=70, velocity=95, time=0),
    Message('note_on', channel=2, note=66, velocity=95, time=4),
    Message('note_on', channel=2, note=61, velocity=95, time=4),
    Message('note_on', channel=2, note=54, velocity=95, time=4),
    Message('note_off', channel=2, note=70, velocity=95, time=468),
    Message('note_off', channel=2, note=66, velocity=95, time=0),
    Message('note_off', channel=2, note=61, velocity=95, time=0),
    Message('note_off', channel=2, note=54, velocity=95, time=0),
    Message('note_on', channel=2, note=68, velocity=95, time=0),
    Message('note_on', channel=2, note=66, velocity=95, time=4),
    Message('note_on', channel=2, note=61, velocity=95, time=4),
    Message('note_on', channel=2, note=54, velocity=95, time=4),
    Message('note_off', channel=2, note=68, velocity=95, time=468),
    Message('note_off', channel=2, note=66, velocity=95, time=0),
    Message('note_off', channel=2, note=61, velocity=95, time=0),
    Message('note_off', channel=2, note=54, velocity=95, time=0),
    Message('note_on', channel=2, note=47, velocity=95, time=240),
    Message('note_on', channel=2, note=54, velocity=95, time=2),
    Message('note_on', channel=2, note=59, velocity=95, time=2),
    Message('note_on', channel=2, note=63, velocity=95, time=2),
    Message('note_on', channel=2, note=66, velocity=95, time=2),
    Message('note_on', channel=2, note=71, velocity=95, time=2),
    Message('note_off', channel=2, note=71, velocity=95, time=230),
    Message('note_off', channel=2, note=66, velocity=95, time=0),
    Message('note_off', channel=2, note=63, velocity=95, time=0),
    Message('note_off', channel=2, note=59, velocity=95, time=0),
    Message('note_off', channel=2, note=54, velocity=95, time=0),
    Message('note_off', channel=2, note=47, velocity=95, time=0),
    Message('note_on', channel=2, note=71, velocity=95, time=0),
    Message('note_on', channel=2, note=66, velocity=95, time=2),
    Message('note_on', channel=2, note=63, velocity=95, time=2),
    Message('note_on', channel=2, note=59, velocity=95, time=2),
    Message('note_on', channel=2, note=54, velocity=95, time=2),
    Message('note_on', channel=2, note=47, velocity=95, time=2),
    Message('note_off', channel=2, note=71, velocity=95, time=230),
    Message('note_off', channel=2, note=66, velocity=95, time=0),
    Message('note_off', channel=2, note=63, velocity=95, time=0),
    Message('note_off', channel=2, note=59, velocity=95, time=0),
    Message('note_off', channel=2, note=54, velocity=95, time=0),
    Message('note_off', channel=2, note=47, velocity=95, time=0),
    Message('note_on', channel=2, note=71, velocity=95, time=0),
    Message('note_on', channel=2, note=66, velocity=95, time=2),
    Message('note_on', channel=2, note=63, velocity=95, time=2),
    Message('note_on', channel=2, note=59, velocity=95, time=2),
    Message('note_on', channel=2, note=54, velocity=95, time=2),
    Message('note_on', channel=2, note=47, velocity=95, time=2),
    Message('note_off', channel=2, note=71, velocity=95, time=230),
    Message('note_off', channel=2, note=66, velocity=95, time=0),
    Message('note_off', channel=2, note=63, velocity=95, time=0),
    Message('note_off', channel=2, note=59, velocity=95, time=0),
    Message('note_off', channel=2, note=54, velocity=95, time=0),
    Message('note_off', channel=2, note=47, velocity=95, time=0),
    Message('note_on', channel=2, note=71, velocity=95, time=0),
    Message('note_on', channel=2, note=66, velocity=95, time=2),
    Message('note_on', channel=2, note=63, velocity=95, time=2),
    Message('note_on', channel=2, note=59, velocity=95, time=2),
    Message('note_on', channel=2, note=54, velocity=95, time=2),
    Message('note_on', channel=2, note=47, velocity=95, time=2),
    Message('note_off', channel=2, note=71, velocity=95, time=230),
    Message('note_off', channel=2, note=66, velocity=95, time=0),
    Message('note_off', channel=2, note=63, velocity=95, time=0),
    Message('note_off', channel=2, note=59, velocity=95, time=0),
    Message('note_off', channel=2, note=54, velocity=95, time=0),
    Message('note_off', channel=2, note=47, velocity=95, time=0),
    Message('note_on', channel=2, note=47, velocity=95, time=480),
    Message('note_on', channel=2, note=54, velocity=95, time=2),
    Message('note_on', channel=2, note=59, velocity=95, time=2),
    Message('note_on', channel=2, note=63, velocity=95, time=2),
    Message('note_on', channel=2, note=66, velocity=95, time=2),
    Message('note_on', channel=2, note=71, velocity=95, time=2),
    Message('note_off', channel=2, note=71, velocity=95, time=230),
    Message('note_off', channel=2, note=66, velocity=95, time=0),
    Message('note_off', channel=2, note=63, velocity=95, time=0),
    Message('note_off', channel=2, note=59, velocity=95, time=0),
    Message('note_off', channel=2, note=54, velocity=95, time=0),
    Message('note_off', channel=2, note=47, velocity=95, time=0),
    Message('note_on', channel=2, note=71, velocity=95, time=0),
    Message('note_on', channel=2, note=66, velocity=95, time=2),
    Message('note_on', channel=2, note=63, velocity=95, time=2),
    Message('note_on', channel=2, note=59, velocity=95, time=2),
    Message('note_on', channel=2, note=54, velocity=95, time=2),
    Message('note_on', channel=2, note=47, velocity=95, time=2),
    Message('note_off', channel=2, note=71, velocity=95, time=230),
    Message('note_off', channel=2, note=66, velocity=95, time=0),
    Message('note_off', channel=2, note=63, velocity=95, time=0),
    Message('note_off', channel=2, note=59, velocity=95, time=0),
    Message('note_off', channel=2, note=54, velocity=95, time=0),
    Message('note_off', channel=2, note=47, velocity=95, time=0),
    Message('note_on', channel=2, note=47, velocity=95, time=0),
    Message('note_on', channel=2, note=54, velocity=95, time=2),
    Message('note_on', channel=2, note=59, velocity=95, time=2),
    Message('note_on', channel=2, note=63, velocity=95, time=2),
    Message('note_on', channel=2, note=66, velocity=95, time=2),
    Message('note_on', channel=2, note=71, velocity=95, time=2),
    Message('note_off', channel=2, note=71, velocity=95, time=230),
    Message('note_off', channel=2, note=66, velocity=95, time=0),
    Message('note_off', channel=2, note=63, velocity=95, time=0),
    Message('note_off', channel=2, note=59, velocity=95, time=0),
    Message('note_off', channel=2, note=54, velocity=95, time=0),
    Message('note_off', channel=2, note=47, velocity=95, time=0),
    Message('note_on', channel=2, note=71, velocity=95, time=0),
    Message('note_on', channel=2, note=66, velocity=95, time=2),
    Message('note_on', channel=2, note=63, velocity=95, time=2),
    Message('note_on', channel=2, note=59, velocity=95, time=2),
    Message('note_on', channel=2, note=54, velocity=95, time=2),
    Message('note_on', channel=2, note=47, velocity=95, time=2),
    Message('note_off', channel=2, note=71, velocity=95, time=230),
    Message('note_off', channel=2, note=66, velocity=95, time=0),
    Message('note_off', channel=2, note=63, velocity=95, time=0),
    Message('note_off', channel=2, note=59, velocity=95, time=0),
    Message('note_off', channel=2, note=54, velocity=95, time=0),
    Message('note_off', channel=2, note=47, velocity=95, time=0),
    Message('note_on', channel=2, note=71, velocity=95, time=240),
    Message('note_on', channel=2, note=66, velocity=95, time=2),
    Message('note_on', channel=2, note=63, velocity=95, time=2),
    Message('note_on', channel=2, note=59, velocity=95, time=2),
    Message('note_on', channel=2, note=54, velocity=95, time=2),
    Message('note_on', channel=2, note=47, velocity=95, time=2),
    Message('note_off', channel=2, note=71, velocity=95, time=230),
    Message('note_off', channel=2, note=66, velocity=95, time=0),
    Message('note_off', channel=2, note=63, velocity=95, time=0),
    Message('note_off', channel=2, note=59, velocity=95, time=0),
    Message('note_off', channel=2, note=54, velocity=95, time=0),
    Message('note_off', channel=2, note=47, velocity=95, time=0),
    Message('note_on', channel=2, note=47, velocity=95, time=0),
    Message('note_on', channel=2, note=54, velocity=95, time=4),
    Message('note_on', channel=2, note=59, velocity=95, time=4),
    Message('note_on', channel=2, note=63, velocity=95, time=4),
    Message('note_on', channel=2, note=66, velocity=95, time=4),
    Message('note_on', channel=2, note=71, velocity=95, time=4),
    Message('note_off', channel=2, note=71, velocity=95, time=460),
    Message('note_off', channel=2, note=66, velocity=95, time=0),
    Message('note_off', channel=2, note=63, velocity=95, time=0),
    Message('note_off', channel=2, note=59, velocity=95, time=0),
    Message('note_off', channel=2, note=54, velocity=95, time=0),
    Message('note_off', channel=2, note=47, velocity=95, time=0),
    Message('note_on', channel=2, note=54, velocity=95, time=0),
    Message('note_on', channel=2, note=61, velocity=95, time=6),
    Message('note_on', channel=2, note=66, velocity=95, time=6),
    Message('note_on', channel=2, note=70, velocity=95, time=6),
    Message('note_off', channel=2, note=70, velocity=95, time=702),
    Message('note_off', channel=2, note=66, velocity=95, time=0),
    Message('note_off', channel=2, note=61, velocity=95, time=0),
    Message('note_off', channel=2, note=54, velocity=95, time=0),
    Message('note_on', channel=2, note=70, velocity=95, time=0),
    Message('note_on', channel=2, note=66, velocity=95, time=2),
    Message('note_on', channel=2, note=61, velocity=95, time=2),
    Message('note_on', channel=2, note=54, velocity=95, time=2),
    Message('note_off', channel=2, note=70, velocity=95, time=234),
    Message('note_off', channel=2, note=66, velocity=95, time=0),
    Message('note_off', channel=2, note=61, velocity=95, time=0),
    Message('note_off', channel=2, note=54, velocity=95, time=0),
    Message('note_on', channel=2, note=54, velocity=95, time=0),
    Message('note_on', channel=2, note=61, velocity=95, time=4),
    Message('note_on', channel=2, note=66, velocity=95, time=4),
    Message('note_on', channel=2, note=70, velocity=95, time=4),
    Message('note_off', channel=2, note=70, velocity=95, time=468),
    Message('note_off', channel=2, note=66, velocity=95, time=0),
    Message('note_off', channel=2, note=61, velocity=95, time=0),
    Message('note_off', channel=2, note=54, velocity=95, time=0),
    Message('note_on', channel=2, note=54, velocity=95, time=720),
    Message('note_on', channel=2, note=61, velocity=95, time=4),
    Message('note_on', channel=2, note=66, velocity=95, time=4),
    Message('note_on', channel=2, note=70, velocity=95, time=4),
    Message('note_off', channel=2, note=70, velocity=95, time=468),
    Message('note_off', channel=2, note=66, velocity=95, time=0),
    Message('note_off', channel=2, note=61, velocity=95, time=0),
    Message('note_off', channel=2, note=54, velocity=95, time=0),
    Message('note_on', channel=2, note=68, velocity=95, time=0),
    Message('note_on', channel=2, note=66, velocity=95, time=2),
    Message('note_on', channel=2, note=61, velocity=95, time=2),
    Message('note_on', channel=2, note=54, velocity=95, time=2),
    Message('note_off', channel=2, note=68, velocity=95, time=234),
    Message('note_off', channel=2, note=66, velocity=95, time=0),
    Message('note_off', channel=2, note=61, velocity=95, time=0),
    Message('note_off', channel=2, note=54, velocity=95, time=0),
    Message('note_on', channel=2, note=54, velocity=95, time=0),
    Message('note_on', channel=2, note=61, velocity=95, time=4),
    Message('note_on', channel=2, note=66, velocity=95, time=4),
    Message('note_on', channel=2, note=70, velocity=95, time=4),
    Message('note_off', channel=2, note=70, velocity=95, time=468),
    Message('note_off', channel=2, note=66, velocity=95, time=0),
    Message('note_off', channel=2, note=61, velocity=95, time=0),
    Message('note_off', channel=2, note=54, velocity=95, time=0),
    Message('note_on', channel=2, note=47, velocity=95, time=480),
    Message('note_on', channel=2, note=54, velocity=95, time=2),
    Message('note_on', channel=2, note=59, velocity=95, time=2),
    Message('note_on', channel=2, note=63, velocity=95, time=2),
    Message('note_on', channel=2, note=66, velocity=95, time=2),
    Message('note_on', channel=2, note=71, velocity=95, time=2),
    Message('note_off', channel=2, note=71, velocity=95, time=230),
    Message('note_off', channel=2, note=66, velocity=95, time=0),
    Message('note_off', channel=2, note=63, velocity=95, time=0),
    Message('note_off', channel=2, note=59, velocity=95, time=0),
    Message('note_off', channel=2, note=54, velocity=95, time=0),
    Message('note_off', channel=2, note=47, velocity=95, time=0),
    Message('note_on', channel=2, note=71, velocity=95, time=0),
    Message('note_on', channel=2, note=66, velocity=95, time=2),
    Message('note_on', channel=2, note=63, velocity=95, time=2),
    Message('note_on', channel=2, note=59, velocity=95, time=2),
    Message('note_on', channel=2, note=54, velocity=95, time=2),
    Message('note_on', channel=2, note=47, velocity=95, time=2),
    Message('note_off', channel=2, note=71, velocity=95, time=230),
    Message('note_off', channel=2, note=66, velocity=95, time=0),
    Message('note_off', channel=2, note=63, velocity=95, time=0),
    Message('note_off', channel=2, note=59, velocity=95, time=0),
    Message('note_off', channel=2, note=54, velocity=95, time=0),
    Message('note_off', channel=2, note=47, velocity=95, time=0),
    Message('note_on', channel=2, note=71, velocity=95, time=0),
    Message('note_on', channel=2, note=66, velocity=95, time=2),
    Message('note_on', channel=2, note=63, velocity=95, time=2),
    Message('note_on', channel=2, note=59, velocity=95, time=2),
    Message('note_on', channel=2, note=54, velocity=95, time=2),
    Message('note_on', channel=2, note=47, velocity=95, time=2),
    Message('note_off', channel=2, note=71, velocity=95, time=230),
    Message('note_off', channel=2, note=66, velocity=95, time=0),
    Message('note_off', channel=2, note=63, velocity=95, time=0),
    Message('note_off', channel=2, note=59, velocity=95, time=0),
    Message('note_off', channel=2, note=54, velocity=95, time=0),
    Message('note_off', channel=2, note=47, velocity=95, time=0),
    Message('note_on', channel=2, note=71, velocity=95, time=0),
    Message('note_on', channel=2, note=66, velocity=95, time=2),
    Message('note_on', channel=2, note=63, velocity=95, time=2),
    Message('note_on', channel=2, note=59, velocity=95, time=2),
    Message('note_on', channel=2, note=54, velocity=95, time=2),
    Message('note_on', channel=2, note=47, velocity=95, time=2),
    Message('note_off', channel=2, note=71, velocity=95, time=230),
    Message('note_off', channel=2, note=66, velocity=95, time=0),
    Message('note_off', channel=2, note=63, velocity=95, time=0),
    Message('note_off', channel=2, note=59, velocity=95, time=0),
    Message('note_off', channel=2, note=54, velocity=95, time=0),
    Message('note_off', channel=2, note=47, velocity=95, time=0),
    Message('note_on', channel=2, note=47, velocity=95, time=480),
    Message('note_on', channel=2, note=54, velocity=95, time=2),
    Message('note_on', channel=2, note=59, velocity=95, time=2),
    Message('note_on', channel=2, note=63, velocity=95, time=2),
    Message('note_on', channel=2, note=66, velocity=95, time=2),
    Message('note_on', channel=2, note=71, velocity=95, time=2),
    Message('note_off', channel=2, note=71, velocity=95, time=230),
    Message('note_off', channel=2, note=66, velocity=95, time=0),
    Message('note_off', channel=2, note=63, velocity=95, time=0),
    Message('note_off', channel=2, note=59, velocity=95, time=0),
    Message('note_off', channel=2, note=54, velocity=95, time=0),
    Message('note_off', channel=2, note=47, velocity=95, time=0),
    Message('note_on', channel=2, note=71, velocity=95, time=0),
    Message('note_on', channel=2, note=66, velocity=95, time=2),
    Message('note_on', channel=2, note=63, velocity=95, time=2),
    Message('note_on', channel=2, note=59, velocity=95, time=2),
    Message('note_on', channel=2, note=54, velocity=95, time=2),
    Message('note_on', channel=2, note=47, velocity=95, time=2),
    Message('note_off', channel=2, note=71, velocity=95, time=230),
    Message('note_off', channel=2, note=66, velocity=95, time=0),
    Message('note_off', channel=2, note=63, velocity=95, time=0),
    Message('note_off', channel=2, note=59, velocity=95, time=0),
    Message('note_off', channel=2, note=54, velocity=95, time=0),
    Message('note_off', channel=2, note=47, velocity=95, time=0),
    Message('note_on', channel=2, note=47, velocity=95, time=0),
    Message('note_on', channel=2, note=54, velocity=95, time=2),
    Message('note_on', channel=2, note=59, velocity=95, time=2),
    Message('note_on', channel=2, note=63, velocity=95, time=2),
    Message('note_on', channel=2, note=66, velocity=95, time=2),
    Message('note_on', channel=2, note=71, velocity=95, time=2),
    Message('note_off', channel=2, note=71, velocity=95, time=230),
    Message('note_off', channel=2, note=66, velocity=95, time=0),
    Message('note_off', channel=2, note=63, velocity=95, time=0),
    Message('note_off', channel=2, note=59, velocity=95, time=0),
    Message('note_off', channel=2, note=54, velocity=95, time=0),
    Message('note_off', channel=2, note=47, velocity=95, time=0),
    Message('note_on', channel=2, note=71, velocity=95, time=0),
    Message('note_on', channel=2, note=66, velocity=95, time=2),
    Message('note_on', channel=2, note=63, velocity=95, time=2),
    Message('note_on', channel=2, note=59, velocity=95, time=2),
    Message('note_on', channel=2, note=54, velocity=95, time=2),
    Message('note_on', channel=2, note=47, velocity=95, time=2),
    Message('note_off', channel=2, note=71, velocity=95, time=230),
    Message('note_off', channel=2, note=66, velocity=95, time=0),
    Message('note_off', channel=2, note=63, velocity=95, time=0),
    Message('note_off', channel=2, note=59, velocity=95, time=0),
    Message('note_off', channel=2, note=54, velocity=95, time=0),
    Message('note_off', channel=2, note=47, velocity=95, time=0),
    Message('note_on', channel=2, note=71, velocity=95, time=240),
    Message('note_on', channel=2, note=66, velocity=95, time=2),
    Message('note_on', channel=2, note=63, velocity=95, time=2),
    Message('note_on', channel=2, note=59, velocity=95, time=2),
    Message('note_on', channel=2, note=54, velocity=95, time=2),
    Message('note_on', channel=2, note=47, velocity=95, time=2),
    Message('note_off', channel=2, note=71, velocity=95, time=230),
    Message('note_off', channel=2, note=66, velocity=95, time=0),
    Message('note_off', channel=2, note=63, velocity=95, time=0),
    Message('note_off', channel=2, note=59, velocity=95, time=0),
    Message('note_off', channel=2, note=54, velocity=95, time=0),
    Message('note_off', channel=2, note=47, velocity=95, time=0),
    Message('note_on', channel=2, note=47, velocity=95, time=0),
    Message('note_on', channel=2, note=54, velocity=95, time=4),
    Message('note_on', channel=2, note=59, velocity=95, time=4),
    Message('note_on', channel=2, note=63, velocity=95, time=4),
    Message('note_on', channel=2, note=66, velocity=95, time=4),
    Message('note_on', channel=2, note=71, velocity=95, time=4),
    Message('note_off', channel=2, note=71, velocity=95, time=460),
    Message('note_off', channel=2, note=66, velocity=95, time=0),
    Message('note_off', channel=2, note=63, velocity=95, time=0),
    Message('note_off', channel=2, note=59, velocity=95, time=0),
    Message('note_off', channel=2, note=54, velocity=95, time=0),
    Message('note_off', channel=2, note=47, velocity=95, time=0),
    Message('note_on', channel=2, note=42, velocity=95, time=0),
    Message('note_on', channel=2, note=49, velocity=95, time=8),
    Message('note_on', channel=2, note=54, velocity=95, time=8),
    Message('note_on', channel=2, note=58, velocity=95, time=8),
    Message('note_on', channel=2, note=61, velocity=95, time=8),
    Message('note_on', channel=2, note=66, velocity=95, time=8),
    Message('note_off', channel=2, note=66, velocity=95, time=2840),
    Message('note_off', channel=2, note=61, velocity=95, time=0),
    Message('note_off', channel=2, note=58, velocity=95, time=0),
    Message('note_off', channel=2, note=54, velocity=95, time=0),
    Message('note_off', channel=2, note=49, velocity=95, time=0),
    Message('note_off', channel=2, note=42, velocity=95, time=0),
    Message('note_on', channel=2, note=47, velocity=95, time=960),
    Message('note_on', channel=2, note=54, velocity=95, time=2),
    Message('note_on', channel=2, note=59, velocity=95, time=2),
    Message('note_on', channel=2, note=63, velocity=95, time=2),
    Message('note_on', channel=2, note=66, velocity=95, time=2),
    Message('note_on', channel=2, note=71, velocity=95, time=2),
    Message('note_off', channel=2, note=71, velocity=95, time=230),
    Message('note_off', channel=2, note=66, velocity=95, time=0),
    Message('note_off', channel=2, note=63, velocity=95, time=0),
    Message('note_off', channel=2, note=59, velocity=95, time=0),
    Message('note_off', channel=2, note=54, velocity=95, time=0),
    Message('note_off', channel=2, note=47, velocity=95, time=0),
    Message('note_on', channel=2, note=71, velocity=95, time=0),
    Message('note_on', channel=2, note=66, velocity=95, time=2),
    Message('note_on', channel=2, note=63, velocity=95, time=2),
    Message('note_on', channel=2, note=59, velocity=95, time=2),
    Message('note_on', channel=2, note=54, velocity=95, time=2),
    Message('note_on', channel=2, note=47, velocity=95, time=2),
    Message('note_off', channel=2, note=71, velocity=95, time=230),
    Message('note_off', channel=2, note=66, velocity=95, time=0),
    Message('note_off', channel=2, note=63, velocity=95, time=0),
    Message('note_off', channel=2, note=59, velocity=95, time=0),
    Message('note_off', channel=2, note=54, velocity=95, time=0),
    Message('note_off', channel=2, note=47, velocity=95, time=0),
    Message('note_on', channel=2, note=71, velocity=95, time=0),
    Message('note_on', channel=2, note=66, velocity=95, time=2),
    Message('note_on', channel=2, note=63, velocity=95, time=2),
    Message('note_on', channel=2, note=59, velocity=95, time=2),
    Message('note_on', channel=2, note=54, velocity=95, time=2),
    Message('note_on', channel=2, note=47, velocity=95, time=2),
    Message('note_off', channel=2, note=71, velocity=95, time=230),
    Message('note_off', channel=2, note=66, velocity=95, time=0),
    Message('note_off', channel=2, note=63, velocity=95, time=0),
    Message('note_off', channel=2, note=59, velocity=95, time=0),
    Message('note_off', channel=2, note=54, velocity=95, time=0),
    Message('note_off', channel=2, note=47, velocity=95, time=0),
    Message('note_on', channel=2, note=71, velocity=95, time=0),
    Message('note_on', channel=2, note=66, velocity=95, time=2),
    Message('note_on', channel=2, note=63, velocity=95, time=2),
    Message('note_on', channel=2, note=59, velocity=95, time=2),
    Message('note_on', channel=2, note=54, velocity=95, time=2),
    Message('note_on', channel=2, note=47, velocity=95, time=2),
    Message('note_off', channel=2, note=71, velocity=95, time=230),
    Message('note_off', channel=2, note=66, velocity=95, time=0),
    Message('note_off', channel=2, note=63, velocity=95, time=0),
    Message('note_off', channel=2, note=59, velocity=95, time=0),
    Message('note_off', channel=2, note=54, velocity=95, time=0),
    Message('note_off', channel=2, note=47, velocity=95, time=0),
    Message('note_on', channel=2, note=47, velocity=95, time=480),
    Message('note_on', channel=2, note=54, velocity=95, time=2),
    Message('note_on', channel=2, note=59, velocity=95, time=2),
    Message('note_on', channel=2, note=63, velocity=95, time=2),
    Message('note_on', channel=2, note=66, velocity=95, time=2),
    Message('note_on', channel=2, note=71, velocity=95, time=2),
    Message('note_off', channel=2, note=71, velocity=95, time=230),
    Message('note_off', channel=2, note=66, velocity=95, time=0),
    Message('note_off', channel=2, note=63, velocity=95, time=0),
    Message('note_off', channel=2, note=59, velocity=95, time=0),
    Message('note_off', channel=2, note=54, velocity=95, time=0),
    Message('note_off', channel=2, note=47, velocity=95, time=0),
    Message('note_on', channel=2, note=71, velocity=95, time=0),
    Message('note_on', channel=2, note=66, velocity=95, time=2),
    Message('note_on', channel=2, note=63, velocity=95, time=2),
    Message('note_on', channel=2, note=59, velocity=95, time=2),
    Message('note_on', channel=2, note=54, velocity=95, time=2),
    Message('note_on', channel=2, note=47, velocity=95, time=2),
    Message('note_off', channel=2, note=71, velocity=95, time=230),
    Message('note_off', channel=2, note=66, velocity=95, time=0),
    Message('note_off', channel=2, note=63, velocity=95, time=0),
    Message('note_off', channel=2, note=59, velocity=95, time=0),
    Message('note_off', channel=2, note=54, velocity=95, time=0),
    Message('note_off', channel=2, note=47, velocity=95, time=0),
    Message('note_on', channel=2, note=47, velocity=95, time=0),
    Message('note_on', channel=2, note=54, velocity=95, time=2),
    Message('note_on', channel=2, note=59, velocity=95, time=2),
    Message('note_on', channel=2, note=63, velocity=95, time=2),
    Message('note_on', channel=2, note=66, velocity=95, time=2),
    Message('note_on', channel=2, note=71, velocity=95, time=2),
    Message('note_off', channel=2, note=71, velocity=95, time=230),
    Message('note_off', channel=2, note=66, velocity=95, time=0),
    Message('note_off', channel=2, note=63, velocity=95, time=0),
    Message('note_off', channel=2, note=59, velocity=95, time=0),
    Message('note_off', channel=2, note=54, velocity=95, time=0),
    Message('note_off', channel=2, note=47, velocity=95, time=0),
    Message('note_on', channel=2, note=71, velocity=95, time=0),
    Message('note_on', channel=2, note=66, velocity=95, time=2),
    Message('note_on', channel=2, note=63, velocity=95, time=2),
    Message('note_on', channel=2, note=59, velocity=95, time=2),
    Message('note_on', channel=2, note=54, velocity=95, time=2),
    Message('note_on', channel=2, note=47, velocity=95, time=2),
    Message('note_off', channel=2, note=71, velocity=95, time=230),
    Message('note_off', channel=2, note=66, velocity=95, time=0),
    Message('note_off', channel=2, note=63, velocity=95, time=0),
    Message('note_off', channel=2, note=59, velocity=95, time=0),
    Message('note_off', channel=2, note=54, velocity=95, time=0),
    Message('note_off', channel=2, note=47, velocity=95, time=0),
    Message('note_on', channel=2, note=71, velocity=95, time=240),
    Message('note_on', channel=2, note=66, velocity=95, time=2),
    Message('note_on', channel=2, note=63, velocity=95, time=2),
    Message('note_on', channel=2, note=59, velocity=95, time=2),
    Message('note_on', channel=2, note=54, velocity=95, time=2),
    Message('note_on', channel=2, note=47, velocity=95, time=2),
    Message('note_off', channel=2, note=71, velocity=95, time=230),
    Message('note_off', channel=2, note=66, velocity=95, time=0),
    Message('note_off', channel=2, note=63, velocity=95, time=0),
    Message('note_off', channel=2, note=59, velocity=95, time=0),
    Message('note_off', channel=2, note=54, velocity=95, time=0),
    Message('note_off', channel=2, note=47, velocity=95, time=0),
    Message('note_on', channel=2, note=47, velocity=95, time=0),
    Message('note_on', channel=2, note=54, velocity=95, time=4),
    Message('note_on', channel=2, note=59, velocity=95, time=4),
    Message('note_on', channel=2, note=63, velocity=95, time=4),
    Message('note_on', channel=2, note=66, velocity=95, time=4),
    Message('note_on', channel=2, note=71, velocity=95, time=4),
    Message('note_off', channel=2, note=71, velocity=95, time=460),
    Message('note_off', channel=2, note=66, velocity=95, time=0),
    Message('note_off', channel=2, note=63, velocity=95, time=0),
    Message('note_off', channel=2, note=59, velocity=95, time=0),
    Message('note_off', channel=2, note=54, velocity=95, time=0),
    Message('note_off', channel=2, note=47, velocity=95, time=0),
    Message('note_on', channel=2, note=42, velocity=95, time=0),
    Message('note_on', channel=2, note=49, velocity=95, time=8),
    Message('note_on', channel=2, note=54, velocity=95, time=8),
    Message('note_on', channel=2, note=58, velocity=95, time=8),
    Message('note_on', channel=2, note=61, velocity=95, time=8),
    Message('note_on', channel=2, note=66, velocity=95, time=8),
    Message('note_off', channel=2, note=66, velocity=95, time=2840),
    Message('note_off', channel=2, note=61, velocity=95, time=0),
    Message('note_off', channel=2, note=58, velocity=95, time=0),
    Message('note_off', channel=2, note=54, velocity=95, time=0),
    Message('note_off', channel=2, note=49, velocity=95, time=0),
    Message('note_off', channel=2, note=42, velocity=95, time=0),
    Message('note_on', channel=2, note=64, velocity=95, time=240),
    Message('note_off', channel=2, note=64, velocity=95, time=480),
    Message('note_on', channel=2, note=59, velocity=95, time=0),
    Message('note_off', channel=2, note=59, velocity=95, time=240),
    Message('note_on', channel=2, note=45, velocity=95, time=480),
    Message('note_on', channel=2, note=52, velocity=95, time=6),
    Message('note_on', channel=2, note=55, velocity=95, time=6),
    Message('note_on', channel=2, note=61, velocity=95, time=6),
    Message('note_on', channel=2, note=64, velocity=95, time=6),
    Message('note_off', channel=2, note=64, velocity=95, time=696),
    Message('note_off', channel=2, note=61, velocity=95, time=0),
    Message('note_off', channel=2, note=55, velocity=95, time=0),
    Message('note_off', channel=2, note=52, velocity=95, time=0),
    Message('note_off', channel=2, note=45, velocity=95, time=0),
    Message('note_on', channel=2, note=45, velocity=95, time=0),
    Message('note_on', channel=2, note=52, velocity=95, time=2),
    Message('note_on', channel=2, note=55, velocity=95, time=2),
    Message('note_on', channel=2, note=59, velocity=95, time=2),
    Message('note_on', channel=2, note=64, velocity=95, time=2),
    Message('note_off', channel=2, note=64, velocity=95, time=232),
    Message('note_off', channel=2, note=59, velocity=95, time=0),
    Message('note_off', channel=2, note=55, velocity=95, time=0),
    Message('note_off', channel=2, note=52, velocity=95, time=0),
    Message('note_off', channel=2, note=45, velocity=95, time=0),
    Message('note_on', channel=2, note=50, velocity=95, time=480),
    Message('note_on', channel=2, note=57, velocity=95, time=8),
    Message('note_on', channel=2, note=62, velocity=95, time=8),
    Message('note_on', channel=2, note=64, velocity=95, time=8),
    Message('note_off', channel=2, note=62, velocity=95, time=936),
    Message('note_off', channel=2, note=57, velocity=95, time=0),
    Message('note_off', channel=2, note=50, velocity=95, time=0),
    Message('note_off', channel=2, note=64, velocity=95, time=240),
    Message('note_on', channel=2, note=69, velocity=95, time=0),
    Message('note_off', channel=2, note=69, velocity=95, time=480),
    Message('note_on', channel=2, note=62, velocity=95, time=0),
    Message('note_off', channel=2, note=62, velocity=95, time=240),
    Message('note_on', channel=2, note=45, velocity=95, time=480),
    Message('note_on', channel=2, note=52, velocity=95, time=6),
    Message('note_on', channel=2, note=55, velocity=95, time=6),
    Message('note_on', channel=2, note=61, velocity=95, time=6),
    Message('note_on', channel=2, note=64, velocity=95, time=6),
    Message('note_off', channel=2, note=64, velocity=95, time=696),
    Message('note_off', channel=2, note=61, velocity=95, time=0),
    Message('note_off', channel=2, note=55, velocity=95, time=0),
    Message('note_off', channel=2, note=52, velocity=95, time=0),
    Message('note_off', channel=2, note=45, velocity=95, time=0),
    Message('note_on', channel=2, note=45, velocity=95, time=0),
    Message('note_on', channel=2, note=52, velocity=95, time=2),
    Message('note_on', channel=2, note=55, velocity=95, time=2),
    Message('note_on', channel=2, note=59, velocity=95, time=2),
    Message('note_on', channel=2, note=64, velocity=95, time=2),
    Message('note_off', channel=2, note=64, velocity=95, time=232),
    Message('note_off', channel=2, note=59, velocity=95, time=0),
    Message('note_off', channel=2, note=55, velocity=95, time=0),
    Message('note_off', channel=2, note=52, velocity=95, time=0),
    Message('note_off', channel=2, note=45, velocity=95, time=0),
    Message('note_on', channel=2, note=50, velocity=95, time=480),
    Message('note_on', channel=2, note=57, velocity=95, time=4),
    Message('note_off', channel=2, note=57, velocity=95, time=476),
    Message('note_off', channel=2, note=50, velocity=95, time=0),
    Message('note_on', channel=2, note=59, velocity=95, time=0),
    Message('note_off', channel=2, note=59, velocity=95, time=240),
    Message('note_on', channel=2, note=50, velocity=95, time=0),
    Message('note_on', channel=2, note=57, velocity=95, time=4),
    Message('note_off', channel=2, note=57, velocity=95, time=476),
    Message('note_off', channel=2, note=50, velocity=95, time=0),
    Message('note_on', channel=2, note=59, velocity=95, time=0),
    Message('note_off', channel=2, note=59, velocity=95, time=240),
    Message('note_on', channel=2, note=50, velocity=95, time=0),
    Message('note_on', channel=2, note=57, velocity=95, time=4),
    Message('note_off', channel=2, note=57, velocity=95, time=476),
    Message('note_off', channel=2, note=50, velocity=95, time=0),
    Message('note_on', channel=2, note=45, velocity=95, time=480),
    Message('note_on', channel=2, note=52, velocity=95, time=6),
    Message('note_on', channel=2, note=55, velocity=95, time=6),
    Message('note_on', channel=2, note=61, velocity=95, time=6),
    Message('note_on', channel=2, note=64, velocity=95, time=6),
    Message('note_off', channel=2, note=64, velocity=95, time=696),
    Message('note_off', channel=2, note=61, velocity=95, time=0),
    Message('note_off', channel=2, note=55, velocity=95, time=0),
    Message('note_off', channel=2, note=52, velocity=95, time=0),
    Message('note_off', channel=2, note=45, velocity=95, time=0),
    Message('note_on', channel=2, note=45, velocity=95, time=0),
    Message('note_on', channel=2, note=52, velocity=95, time=2),
    Message('note_on', channel=2, note=55, velocity=95, time=2),
    Message('note_on', channel=2, note=59, velocity=95, time=2),
    Message('note_on', channel=2, note=64, velocity=95, time=2),
    Message('note_off', channel=2, note=64, velocity=95, time=232),
    Message('note_off', channel=2, note=59, velocity=95, time=0),
    Message('note_off', channel=2, note=55, velocity=95, time=0),
    Message('note_off', channel=2, note=52, velocity=95, time=0),
    Message('note_off', channel=2, note=45, velocity=95, time=0),
    Message('note_on', channel=2, note=50, velocity=95, time=480),
    Message('note_on', channel=2, note=57, velocity=95, time=8),
    Message('note_on', channel=2, note=62, velocity=95, time=8),
    Message('note_on', channel=2, note=64, velocity=95, time=8),
    Message('note_off', channel=2, note=64, velocity=95, time=1416),
    Message('note_off', channel=2, note=62, velocity=95, time=0),
    Message('note_off', channel=2, note=57, velocity=95, time=0),
    Message('note_off', channel=2, note=50, velocity=95, time=0),
    Message('note_on', channel=2, note=69, velocity=95, time=0),
    Message('note_off', channel=2, note=69, velocity=95, time=240),
    Message('note_on', channel=2, note=62, velocity=95, time=0),
    Message('note_off', channel=2, note=62, velocity=95, time=240),
    Message('note_on', channel=2, note=45, velocity=95, time=480),
    Message('note_on', channel=2, note=52, velocity=95, time=6),
    Message('note_on', channel=2, note=55, velocity=95, time=6),
    Message('note_on', channel=2, note=61, velocity=95, time=6),
    Message('note_on', channel=2, note=64, velocity=95, time=6),
    Message('note_off', channel=2, note=64, velocity=95, time=696),
    Message('note_off', channel=2, note=61, velocity=95, time=0),
    Message('note_off', channel=2, note=55, velocity=95, time=0),
    Message('note_off', channel=2, note=52, velocity=95, time=0),
    Message('note_off', channel=2, note=45, velocity=95, time=0),
    Message('note_on', channel=2, note=45, velocity=95, time=0),
    Message('note_on', channel=2, note=52, velocity=95, time=2),
    Message('note_on', channel=2, note=55, velocity=95, time=2),
    Message('note_on', channel=2, note=59, velocity=95, time=2),
    Message('note_on', channel=2, note=64, velocity=95, time=2),
    Message('note_off', channel=2, note=64, velocity=95, time=232),
    Message('note_off', channel=2, note=59, velocity=95, time=0),
    Message('note_off', channel=2, note=55, velocity=95, time=0),
    Message('note_off', channel=2, note=52, velocity=95, time=0),
    Message('note_off', channel=2, note=45, velocity=95, time=0),
    Message('note_on', channel=2, note=50, velocity=95, time=480),
    Message('note_on', channel=2, note=57, velocity=95, time=4),
    Message('note_off', channel=2, note=57, velocity=95, time=476),
    Message('note_off', channel=2, note=50, velocity=95, time=0),
    Message('note_on', channel=2, note=59, velocity=95, time=0),
    Message('note_off', channel=2, note=59, velocity=95, time=240),
    Message('note_on', channel=2, note=50, velocity=95, time=0),
    Message('note_on', channel=2, note=57, velocity=95, time=4),
    Message('note_off', channel=2, note=57, velocity=95, time=476),
    Message('note_off', channel=2, note=50, velocity=95, time=0),
    Message('note_on', channel=2, note=59, velocity=95, time=0),
    Message('note_off', channel=2, note=59, velocity=95, time=240),
    Message('note_on', channel=2, note=50, velocity=95, time=0),
    Message('note_on', channel=2, note=57, velocity=95, time=4),
    Message('note_off', channel=2, note=57, velocity=95, time=476),
    Message('note_off', channel=2, note=50, velocity=95, time=0),
    Message('note_on', channel=2, note=47, velocity=95, time=480),
    Message('note_on', channel=2, note=54, velocity=95, time=6),
    Message('note_on', channel=2, note=57, velocity=95, time=6),
    Message('note_on', channel=2, note=63, velocity=95, time=6),
    Message('note_on', channel=2, note=66, velocity=95, time=6),
    Message('note_off', channel=2, note=66, velocity=95, time=696),
    Message('note_off', channel=2, note=63, velocity=95, time=0),
    Message('note_off', channel=2, note=57, velocity=95, time=0),
    Message('note_off', channel=2, note=54, velocity=95, time=0),
    Message('note_off', channel=2, note=47, velocity=95, time=0),
    Message('note_on', channel=2, note=47, velocity=95, time=0),
    Message('note_on', channel=2, note=54, velocity=95, time=2),
    Message('note_on', channel=2, note=57, velocity=95, time=2),
    Message('note_on', channel=2, note=61, velocity=95, time=2),
    Message('note_on', channel=2, note=66, velocity=95, time=2),
    Message('note_off', channel=2, note=66, velocity=95, time=232),
    Message('note_off', channel=2, note=61, velocity=95, time=0),
    Message('note_off', channel=2, note=57, velocity=95, time=0),
    Message('note_off', channel=2, note=54, velocity=95, time=0),
    Message('note_off', channel=2, note=47, velocity=95, time=0),
    Message('note_on', channel=2, note=52, velocity=95, time=480),
    Message('note_on', channel=2, note=59, velocity=95, time=8),
    Message('note_on', channel=2, note=64, velocity=95, time=8),
    Message('note_on', channel=2, note=66, velocity=95, time=8),
    Message('note_off', channel=2, note=66, velocity=95, time=1896),
    Message('note_off', channel=2, note=64, velocity=95, time=0),
    Message('note_off', channel=2, note=59, velocity=95, time=0),
    Message('note_off', channel=2, note=52, velocity=95, time=0),
    Message('note_on', channel=2, note=47, velocity=95, time=480),
    Message('note_on', channel=2, note=54, velocity=95, time=6),
    Message('note_on', channel=2, note=57, velocity=95, time=6),
    Message('note_on', channel=2, note=63, velocity=95, time=6),
    Message('note_on', channel=2, note=66, velocity=95, time=6),
    Message('note_off', channel=2, note=66, velocity=95, time=696),
    Message('note_off', channel=2, note=63, velocity=95, time=0),
    Message('note_off', channel=2, note=57, velocity=95, time=0),
    Message('note_off', channel=2, note=54, velocity=95, time=0),
    Message('note_off', channel=2, note=47, velocity=95, time=0),
    Message('note_on', channel=2, note=47, velocity=95, time=0),
    Message('note_on', channel=2, note=54, velocity=95, time=2),
    Message('note_on', channel=2, note=57, velocity=95, time=2),
    Message('note_on', channel=2, note=61, velocity=95, time=2),
    Message('note_on', channel=2, note=66, velocity=95, time=2),
    Message('note_off', channel=2, note=66, velocity=95, time=232),
    Message('note_off', channel=2, note=61, velocity=95, time=0),
    Message('note_off', channel=2, note=57, velocity=95, time=0),
    Message('note_off', channel=2, note=54, velocity=95, time=0),
    Message('note_off', channel=2, note=47, velocity=95, time=0),
    Message('note_on', channel=2, note=52, velocity=95, time=480),
    Message('note_on', channel=2, note=59, velocity=95, time=4),
    Message('note_off', channel=2, note=59, velocity=95, time=476),
    Message('note_off', channel=2, note=52, velocity=95, time=0),
    Message('note_on', channel=2, note=61, velocity=95, time=0),
    Message('note_off', channel=2, note=61, velocity=95, time=240),
    Message('note_on', channel=2, note=52, velocity=95, time=0),
    Message('note_on', channel=2, note=59, velocity=95, time=4),
    Message('note_off', channel=2, note=59, velocity=95, time=476),
    Message('note_off', channel=2, note=52, velocity=95, time=0),
    Message('note_on', channel=2, note=61, velocity=95, time=0),
    Message('note_off', channel=2, note=61, velocity=95, time=240),
    Message('note_on', channel=2, note=52, velocity=95, time=0),
    Message('note_on', channel=2, note=59, velocity=95, time=4),
    Message('note_off', channel=2, note=59, velocity=95, time=476),
    Message('note_off', channel=2, note=52, velocity=95, time=0),
    Message('note_on', channel=2, note=47, velocity=95, time=480),
    Message('note_on', channel=2, note=54, velocity=95, time=6),
    Message('note_on', channel=2, note=57, velocity=95, time=6),
    Message('note_on', channel=2, note=63, velocity=95, time=6),
    Message('note_on', channel=2, note=66, velocity=95, time=6),
    Message('note_off', channel=2, note=66, velocity=95, time=696),
    Message('note_off', channel=2, note=63, velocity=95, time=0),
    Message('note_off', channel=2, note=57, velocity=95, time=0),
    Message('note_off', channel=2, note=54, velocity=95, time=0),
    Message('note_off', channel=2, note=47, velocity=95, time=0),
    Message('note_on', channel=2, note=47, velocity=95, time=0),
    Message('note_on', channel=2, note=54, velocity=95, time=2),
    Message('note_on', channel=2, note=57, velocity=95, time=2),
    Message('note_on', channel=2, note=61, velocity=95, time=2),
    Message('note_on', channel=2, note=66, velocity=95, time=2),
    Message('note_off', channel=2, note=66, velocity=95, time=232),
    Message('note_off', channel=2, note=61, velocity=95, time=0),
    Message('note_off', channel=2, note=57, velocity=95, time=0),
    Message('note_off', channel=2, note=54, velocity=95, time=0),
    Message('note_off', channel=2, note=47, velocity=95, time=0),
    Message('note_on', channel=2, note=52, velocity=95, time=480),
    Message('note_on', channel=2, note=59, velocity=95, time=8),
    Message('note_on', channel=2, note=64, velocity=95, time=8),
    Message('note_on', channel=2, note=66, velocity=95, time=8),
    Message('note_off', channel=2, note=66, velocity=95, time=1416),
    Message('note_off', channel=2, note=64, velocity=95, time=0),
    Message('note_off', channel=2, note=59, velocity=95, time=0),
    Message('note_off', channel=2, note=52, velocity=95, time=0),
    Message('note_on', channel=2, note=66, velocity=95, time=0),
    Message('note_on', channel=2, note=64, velocity=95, time=2),
    Message('note_on', channel=2, note=59, velocity=95, time=2),
    Message('note_on', channel=2, note=52, velocity=95, time=2),
    Message('note_off', channel=2, note=66, velocity=95, time=234),
    Message('note_off', channel=2, note=64, velocity=95, time=0),
    Message('note_off', channel=2, note=59, velocity=95, time=0),
    Message('note_off', channel=2, note=52, velocity=95, time=0),
    Message('note_on', channel=2, note=52, velocity=95, time=0),
    Message('note_on', channel=2, note=59, velocity=95, time=2),
    Message('note_on', channel=2, note=64, velocity=95, time=2),
    Message('note_on', channel=2, note=66, velocity=95, time=2),
    Message('note_off', channel=2, note=66, velocity=95, time=234),
    Message('note_off', channel=2, note=64, velocity=95, time=0),
    Message('note_off', channel=2, note=59, velocity=95, time=0),
    Message('note_off', channel=2, note=52, velocity=95, time=0),
    Message('note_on', channel=2, note=47, velocity=95, time=480),
    Message('note_on', channel=2, note=54, velocity=95, time=6),
    Message('note_on', channel=2, note=57, velocity=95, time=6),
    Message('note_on', channel=2, note=63, velocity=95, time=6),
    Message('note_on', channel=2, note=66, velocity=95, time=6),
    Message('note_off', channel=2, note=66, velocity=95, time=696),
    Message('note_off', channel=2, note=63, velocity=95, time=0),
    Message('note_off', channel=2, note=57, velocity=95, time=0),
    Message('note_off', channel=2, note=54, velocity=95, time=0),
    Message('note_off', channel=2, note=47, velocity=95, time=0),
    Message('note_on', channel=2, note=47, velocity=95, time=0),
    Message('note_on', channel=2, note=54, velocity=95, time=2),
    Message('note_on', channel=2, note=57, velocity=95, time=2),
    Message('note_on', channel=2, note=61, velocity=95, time=2),
    Message('note_on', channel=2, note=66, velocity=95, time=2),
    Message('note_off', channel=2, note=66, velocity=95, time=232),
    Message('note_off', channel=2, note=61, velocity=95, time=0),
    Message('note_off', channel=2, note=57, velocity=95, time=0),
    Message('note_off', channel=2, note=54, velocity=95, time=0),
    Message('note_off', channel=2, note=47, velocity=95, time=0),
    Message('note_on', channel=2, note=52, velocity=95, time=480),
    Message('note_on', channel=2, note=59, velocity=95, time=4),
    Message('note_off', channel=2, note=59, velocity=95, time=476),
    Message('note_off', channel=2, note=52, velocity=95, time=0),
    Message('note_on', channel=2, note=61, velocity=95, time=0),
    Message('note_off', channel=2, note=61, velocity=95, time=240),
    Message('note_on', channel=2, note=52, velocity=95, time=0),
    Message('note_on', channel=2, note=59, velocity=95, time=4),
    Message('note_off', channel=2, note=59, velocity=95, time=476),
    Message('note_off', channel=2, note=52, velocity=95, time=0),
    Message('note_on', channel=2, note=61, velocity=95, time=0),
    Message('note_off', channel=2, note=61, velocity=95, time=240),
    Message('note_on', channel=2, note=52, velocity=95, time=0),
    Message('note_on', channel=2, note=59, velocity=95, time=4),
    Message('note_off', channel=2, note=59, velocity=95, time=476),
    Message('note_off', channel=2, note=52, velocity=95, time=0),
    MetaMessage('end_of_track', time=0)]),
  MidiTrack([
    Message('pitchwheel', channel=8, pitch=0, time=0),
    Message('control_change', channel=8, control=7, value=111, time=0),
    Message('control_change', channel=8, control=10, value=63, time=0),
    Message('control_change', channel=8, control=93, value=0, time=0),
    Message('control_change', channel=8, control=91, value=0, time=0),
    Message('control_change', channel=8, control=95, value=0, time=0),
    Message('control_change', channel=8, control=92, value=0, time=0),
    Message('control_change', channel=8, control=11, value=127, time=0),
    Message('program_change', channel=8, program=33, time=0),
    Message('control_change', channel=10, control=7, value=111, time=0),
    Message('control_change', channel=10, control=10, value=63, time=0),
    Message('control_change', channel=10, control=93, value=0, time=0),
    Message('control_change', channel=10, control=91, value=0, time=0),
    Message('control_change', channel=10, control=95, value=0, time=0),
    Message('control_change', channel=10, control=92, value=0, time=0),
    Message('control_change', channel=10, control=11, value=127, time=0),
    Message('program_change', channel=10, program=33, time=0),
    Message('note_on', channel=8, note=33, velocity=127, time=11520),
    Message('note_off', channel=8, note=33, velocity=127, time=3840),
    Message('note_on', channel=8, note=45, velocity=95, time=1440),
    Message('note_off', channel=8, note=45, velocity=95, time=720),
    Message('note_on', channel=8, note=45, velocity=95, time=0),
    Message('note_off', channel=8, note=45, velocity=95, time=240),
    Message('note_on', channel=8, note=45, velocity=95, time=0),
    Message('note_off', channel=8, note=45, velocity=95, time=480),
    Message('note_on', channel=8, note=45, velocity=95, time=0),
    Message('note_off', channel=8, note=45, velocity=95, time=480),
    Message('note_on', channel=8, note=43, velocity=95, time=0),
    Message('note_off', channel=8, note=43, velocity=95, time=240),
    Message('note_on', channel=8, note=40, velocity=95, time=0),
    Message('note_off', channel=8, note=40, velocity=95, time=240),
    Message('note_on', channel=8, note=33, velocity=95, time=0),
    Message('note_off', channel=8, note=33, velocity=95, time=960),
    Message('note_on', channel=8, note=38, velocity=95, time=0),
    Message('note_off', channel=8, note=38, velocity=95, time=240),
    Message('note_on', channel=8, note=40, velocity=95, time=0),
    Message('note_off', channel=8, note=40, velocity=95, time=240),
    Message('pitchwheel', channel=10, pitch=0, time=0),
    Message('note_on', channel=10, note=43, velocity=95, time=0),
    Message('pitchwheel', channel=10, pitch=0, time=1800),
    Message('pitchwheel', channel=10, pitch=128, time=120),
    Message('pitchwheel', channel=10, pitch=256, time=120),
    Message('pitchwheel', channel=10, pitch=384, time=120),
    Message('pitchwheel', channel=10, pitch=512, time=120),
    Message('pitchwheel', channel=10, pitch=640, time=120),
    Message('pitchwheel', channel=10, pitch=640, time=0),
    Message('pitchwheel', channel=10, pitch=0, time=0),
    Message('note_off', channel=10, note=43, velocity=95, time=0),
    Message('note_on', channel=8, note=33, velocity=95, time=0),
    Message('note_off', channel=8, note=33, velocity=95, time=480),
    Message('note_on', channel=8, note=38, velocity=95, time=0),
    Message('note_off', channel=8, note=38, velocity=95, time=240),
    Message('note_on', channel=8, note=40, velocity=95, time=0),
    Message('note_off', channel=8, note=40, velocity=95, time=240),
    Message('note_on', channel=8, note=43, velocity=95, time=0),
    Message('note_off', channel=8, note=43, velocity=95, time=480),
    Message('note_on', channel=10, note=45, velocity=95, time=0),
    Message('note_off', channel=10, note=45, velocity=95, time=1920),
    Message('note_on', channel=8, note=33, velocity=95, time=480),
    Message('note_off', channel=8, note=33, velocity=95, time=960),
    Message('note_on', channel=8, note=38, velocity=95, time=0),
    Message('note_off', channel=8, note=38, velocity=95, time=240),
    Message('note_on', channel=8, note=40, velocity=95, time=0),
    Message('note_off', channel=8, note=40, velocity=95, time=240),
    Message('pitchwheel', channel=10, pitch=0, time=0),
    Message('note_on', channel=10, note=43, velocity=95, time=0),
    Message('pitchwheel', channel=10, pitch=0, time=1800),
    Message('pitchwheel', channel=10, pitch=128, time=120),
    Message('pitchwheel', channel=10, pitch=256, time=120),
    Message('pitchwheel', channel=10, pitch=384, time=120),
    Message('pitchwheel', channel=10, pitch=512, time=120),
    Message('pitchwheel', channel=10, pitch=640, time=120),
    Message('pitchwheel', channel=10, pitch=640, time=0),
    Message('pitchwheel', channel=10, pitch=0, time=0),
    Message('note_off', channel=10, note=43, velocity=95, time=0),
    Message('note_on', channel=8, note=33, velocity=95, time=0),
    Message('note_off', channel=8, note=33, velocity=95, time=480),
    Message('note_on', channel=8, note=38, velocity=95, time=0),
    Message('note_off', channel=8, note=38, velocity=95, time=240),
    Message('note_on', channel=8, note=40, velocity=95, time=0),
    Message('note_off', channel=8, note=40, velocity=95, time=240),
    Message('note_on', channel=8, note=43, velocity=95, time=0),
    Message('note_off', channel=8, note=43, velocity=95, time=480),
    Message('note_on', channel=10, note=45, velocity=95, time=0),
    Message('note_off', channel=10, note=45, velocity=95, time=1920),
    Message('note_on', channel=8, note=41, velocity=95, time=480),
    Message('note_off', channel=8, note=41, velocity=95, time=240),
    Message('note_on', channel=8, note=41, velocity=95, time=0),
    Message('note_off', channel=8, note=41, velocity=95, time=240),
    Message('note_on', channel=8, note=41, velocity=95, time=0),
    Message('note_off', channel=8, note=41, velocity=95, time=240),
    Message('note_on', channel=8, note=41, velocity=95, time=0),
    Message('note_off', channel=8, note=41, velocity=95, time=240),
    Message('note_on', channel=8, note=43, velocity=95, time=240),
    Message('note_off', channel=8, note=43, velocity=95, time=240),
    Message('note_on', channel=8, note=36, velocity=95, time=0),
    Message('note_off', channel=8, note=36, velocity=95, time=4320),
    Message('note_on', channel=8, note=33, velocity=95, time=0),
    Message('note_off', channel=8, note=33, velocity=95, time=960),
    Message('note_on', channel=8, note=38, velocity=95, time=0),
    Message('note_off', channel=8, note=38, velocity=95, time=240),
    Message('note_on', channel=8, note=40, velocity=95, time=0),
    Message('note_off', channel=8, note=40, velocity=95, time=240),
    Message('pitchwheel', channel=10, pitch=0, time=0),
    Message('note_on', channel=10, note=43, velocity=95, time=0),
    Message('pitchwheel', channel=10, pitch=0, time=1800),
    Message('pitchwheel', channel=10, pitch=128, time=120),
    Message('pitchwheel', channel=10, pitch=256, time=120),
    Message('pitchwheel', channel=10, pitch=384, time=120),
    Message('pitchwheel', channel=10, pitch=512, time=120),
    Message('pitchwheel', channel=10, pitch=640, time=120),
    Message('pitchwheel', channel=10, pitch=640, time=0),
    Message('pitchwheel', channel=10, pitch=0, time=0),
    Message('note_off', channel=10, note=43, velocity=95, time=0),
    Message('note_on', channel=8, note=33, velocity=95, time=0),
    Message('note_off', channel=8, note=33, velocity=95, time=480),
    Message('note_on', channel=8, note=38, velocity=95, time=0),
    Message('note_off', channel=8, note=38, velocity=95, time=240),
    Message('note_on', channel=8, note=40, velocity=95, time=0),
    Message('note_off', channel=8, note=40, velocity=95, time=240),
    Message('note_on', channel=8, note=43, velocity=95, time=0),
    Message('note_off', channel=8, note=43, velocity=95, time=480),
    Message('note_on', channel=10, note=45, velocity=95, time=0),
    Message('note_off', channel=10, note=45, velocity=95, time=1920),
    Message('note_on', channel=8, note=33, velocity=95, time=480),
    Message('note_off', channel=8, note=33, velocity=95, time=960),
    Message('note_on', channel=8, note=38, velocity=95, time=0),
    Message('note_off', channel=8, note=38, velocity=95, time=240),
    Message('note_on', channel=8, note=40, velocity=95, time=0),
    Message('note_off', channel=8, note=40, velocity=95, time=240),
    Message('pitchwheel', channel=10, pitch=0, time=0),
    Message('note_on', channel=10, note=43, velocity=95, time=0),
    Message('pitchwheel', channel=10, pitch=0, time=1800),
    Message('pitchwheel', channel=10, pitch=128, time=120),
    Message('pitchwheel', channel=10, pitch=256, time=120),
    Message('pitchwheel', channel=10, pitch=384, time=120),
    Message('pitchwheel', channel=10, pitch=512, time=120),
    Message('pitchwheel', channel=10, pitch=640, time=120),
    Message('pitchwheel', channel=10, pitch=640, time=0),
    Message('pitchwheel', channel=10, pitch=0, time=0),
    Message('note_off', channel=10, note=43, velocity=95, time=0),
    Message('note_on', channel=8, note=33, velocity=95, time=0),
    Message('note_off', channel=8, note=33, velocity=95, time=480),
    Message('note_on', channel=8, note=38, velocity=95, time=0),
    Message('note_off', channel=8, note=38, velocity=95, time=240),
    Message('note_on', channel=8, note=40, velocity=95, time=0),
    Message('note_off', channel=8, note=40, velocity=95, time=240),
    Message('note_on', channel=8, note=43, velocity=95, time=0),
    Message('note_off', channel=8, note=43, velocity=95, time=480),
    Message('note_on', channel=8, note=45, velocity=95, time=0),
    Message('note_off', channel=8, note=45, velocity=95, time=720),
    Message('note_on', channel=8, note=45, velocity=95, time=0),
    Message('note_off', channel=8, note=45, velocity=95, time=240),
    Message('note_on', channel=8, note=45, velocity=95, time=0),
    Message('note_off', channel=8, note=45, velocity=95, time=480),
    Message('note_on', channel=8, note=45, velocity=95, time=0),
    Message('note_off', channel=8, note=45, velocity=95, time=480),
    Message('note_on', channel=8, note=43, velocity=95, time=0),
    Message('note_off', channel=8, note=43, velocity=95, time=240),
    Message('note_on', channel=8, note=40, velocity=95, time=0),
    Message('note_off', channel=8, note=40, velocity=95, time=240),
    Message('note_on', channel=8, note=33, velocity=95, time=0),
    Message('note_off', channel=8, note=33, velocity=95, time=960),
    Message('note_on', channel=8, note=38, velocity=95, time=0),
    Message('note_off', channel=8, note=38, velocity=95, time=240),
    Message('note_on', channel=8, note=40, velocity=95, time=0),
    Message('note_off', channel=8, note=40, velocity=95, time=240),
    Message('pitchwheel', channel=10, pitch=0, time=0),
    Message('note_on', channel=10, note=43, velocity=95, time=0),
    Message('pitchwheel', channel=10, pitch=0, time=1800),
    Message('pitchwheel', channel=10, pitch=128, time=120),
    Message('pitchwheel', channel=10, pitch=256, time=120),
    Message('pitchwheel', channel=10, pitch=384, time=120),
    Message('pitchwheel', channel=10, pitch=512, time=120),
    Message('pitchwheel', channel=10, pitch=640, time=120),
    Message('pitchwheel', channel=10, pitch=640, time=0),
    Message('pitchwheel', channel=10, pitch=0, time=0),
    Message('note_off', channel=10, note=43, velocity=95, time=0),
    Message('note_on', channel=8, note=33, velocity=95, time=0),
    Message('note_off', channel=8, note=33, velocity=95, time=480),
    Message('note_on', channel=8, note=38, velocity=95, time=0),
    Message('note_off', channel=8, note=38, velocity=95, time=240),
    Message('note_on', channel=8, note=40, velocity=95, time=0),
    Message('note_off', channel=8, note=40, velocity=95, time=240),
    Message('note_on', channel=8, note=43, velocity=95, time=0),
    Message('note_off', channel=8, note=43, velocity=95, time=480),
    Message('note_on', channel=10, note=45, velocity=95, time=0),
    Message('note_off', channel=10, note=45, velocity=95, time=1920),
    Message('note_on', channel=8, note=33, velocity=95, time=480),
    Message('note_off', channel=8, note=33, velocity=95, time=960),
    Message('note_on', channel=8, note=38, velocity=95, time=0),
    Message('note_off', channel=8, note=38, velocity=95, time=240),
    Message('note_on', channel=8, note=40, velocity=95, time=0),
    Message('note_off', channel=8, note=40, velocity=95, time=240),
    Message('pitchwheel', channel=10, pitch=0, time=0),
    Message('note_on', channel=10, note=43, velocity=95, time=0),
    Message('pitchwheel', channel=10, pitch=0, time=1800),
    Message('pitchwheel', channel=10, pitch=128, time=120),
    Message('pitchwheel', channel=10, pitch=256, time=120),
    Message('pitchwheel', channel=10, pitch=384, time=120),
    Message('pitchwheel', channel=10, pitch=512, time=120),
    Message('pitchwheel', channel=10, pitch=640, time=120),
    Message('pitchwheel', channel=10, pitch=640, time=0),
    Message('pitchwheel', channel=10, pitch=0, time=0),
    Message('note_off', channel=10, note=43, velocity=95, time=0),
    Message('note_on', channel=8, note=33, velocity=95, time=0),
    Message('note_off', channel=8, note=33, velocity=95, time=480),
    Message('note_on', channel=8, note=38, velocity=95, time=0),
    Message('note_off', channel=8, note=38, velocity=95, time=240),
    Message('note_on', channel=8, note=40, velocity=95, time=0),
    Message('note_off', channel=8, note=40, velocity=95, time=240),
    Message('note_on', channel=8, note=43, velocity=95, time=0),
    Message('note_off', channel=8, note=43, velocity=95, time=480),
    Message('note_on', channel=8, note=45, velocity=95, time=0),
    Message('note_off', channel=8, note=45, velocity=95, time=720),
    Message('note_on', channel=8, note=45, velocity=95, time=0),
    Message('note_off', channel=8, note=45, velocity=95, time=240),
    Message('note_on', channel=8, note=45, velocity=95, time=0),
    Message('note_off', channel=8, note=45, velocity=95, time=480),
    Message('note_on', channel=10, note=45, velocity=95, time=0),
    Message('pitchwheel', channel=10, pitch=-256, time=120),
    Message('pitchwheel', channel=10, pitch=-640, time=120),
    Message('pitchwheel', channel=10, pitch=-1024, time=120),
    Message('pitchwheel', channel=10, pitch=-1408, time=120),
    Message('pitchwheel', channel=10, pitch=-1664, time=120),
    Message('pitchwheel', channel=10, pitch=-2048, time=120),
    Message('pitchwheel', channel=10, pitch=-2432, time=120),
    Message('pitchwheel', channel=10, pitch=-2816, time=120),
    Message('pitchwheel', channel=10, pitch=0, time=0),
    Message('note_off', channel=10, note=45, velocity=95, time=0),
    Message('note_on', channel=8, note=41, velocity=111, time=0),
    Message('note_off', channel=8, note=41, velocity=111, time=240),
    Message('note_on', channel=8, note=41, velocity=111, time=0),
    Message('note_off', channel=8, note=41, velocity=111, time=240),
    Message('note_on', channel=8, note=41, velocity=111, time=0),
    Message('note_off', channel=8, note=41, velocity=111, time=240),
    Message('note_on', channel=8, note=43, velocity=111, time=240),
    Message('note_off', channel=8, note=43, velocity=111, time=240),
    Message('note_on', channel=8, note=36, velocity=111, time=0),
    Message('note_off', channel=8, note=36, velocity=111, time=2400),
    Message('note_on', channel=8, note=41, velocity=111, time=240),
    Message('note_off', channel=8, note=41, velocity=111, time=240),
    Message('note_on', channel=8, note=41, velocity=111, time=0),
    Message('note_off', channel=8, note=41, velocity=111, time=240),
    Message('note_on', channel=8, note=41, velocity=111, time=0),
    Message('note_off', channel=8, note=41, velocity=111, time=240),
    Message('note_on', channel=8, note=41, velocity=111, time=0),
    Message('note_off', channel=8, note=41, velocity=111, time=240),
    Message('note_on', channel=8, note=43, velocity=111, time=240),
    Message('note_off', channel=8, note=43, velocity=111, time=240),
    Message('note_on', channel=8, note=36, velocity=111, time=0),
    Message('note_off', channel=8, note=36, velocity=111, time=720),
    Message('note_on', channel=8, note=36, velocity=111, time=0),
    Message('note_off', channel=8, note=36, velocity=111, time=720),
    Message('note_on', channel=10, note=36, velocity=111, time=0),
    Message('pitchwheel', channel=10, pitch=256, time=120),
    Message('pitchwheel', channel=10, pitch=640, time=120),
    Message('pitchwheel', channel=10, pitch=1024, time=120),
    Message('pitchwheel', channel=10, pitch=1408, time=120),
    Message('pitchwheel', channel=10, pitch=1664, time=120),
    Message('pitchwheel', channel=10, pitch=2048, time=120),
    Message('pitchwheel', channel=10, pitch=2432, time=120),
    Message('pitchwheel', channel=10, pitch=2816, time=120),
    Message('pitchwheel', channel=10, pitch=0, time=0),
    Message('note_off', channel=10, note=36, velocity=111, time=0),
    Message('note_on', channel=10, note=40, velocity=95, time=0),
    Message('pitchwheel', channel=10, pitch=0, time=120),
    Message('pitchwheel', channel=10, pitch=0, time=120),
    Message('pitchwheel', channel=10, pitch=0, time=120),
    Message('pitchwheel', channel=10, pitch=0, time=120),
    Message('pitchwheel', channel=10, pitch=0, time=120),
    Message('pitchwheel', channel=10, pitch=0, time=120),
    Message('pitchwheel', channel=10, pitch=0, time=120),
    Message('pitchwheel', channel=10, pitch=0, time=120),
    Message('pitchwheel', channel=10, pitch=0, time=0),
    Message('note_on', channel=8, note=28, velocity=95, time=0),
    Message('note_off', channel=10, note=40, velocity=95, time=960),
    Message('note_off', channel=8, note=28, velocity=95, time=0),
    Message('note_on', channel=8, note=31, velocity=95, time=0),
    Message('note_off', channel=8, note=31, velocity=95, time=480),
    Message('note_on', channel=8, note=31, velocity=95, time=0),
    Message('note_off', channel=8, note=31, velocity=95, time=240),
    Message('note_on', channel=8, note=31, velocity=95, time=0),
    Message('note_off', channel=8, note=31, velocity=95, time=240),
    Message('note_on', channel=8, note=31, velocity=95, time=0),
    Message('note_off', channel=8, note=31, velocity=95, time=240),
    Message('note_on', channel=8, note=31, velocity=95, time=0),
    Message('note_off', channel=8, note=31, velocity=95, time=240),
    Message('note_on', channel=8, note=31, velocity=95, time=0),
    Message('note_off', channel=8, note=31, velocity=95, time=240),
    Message('note_on', channel=8, note=31, velocity=95, time=0),
    Message('note_off', channel=8, note=31, velocity=95, time=240),
    Message('note_on', channel=8, note=38, velocity=95, time=0),
    Message('note_off', channel=8, note=38, velocity=95, time=480),
    Message('note_on', channel=8, note=38, velocity=95, time=0),
    Message('note_off', channel=8, note=38, velocity=95, time=240),
    Message('note_on', channel=8, note=38, velocity=95, time=0),
    Message('note_off', channel=8, note=38, velocity=95, time=240),
    Message('note_on', channel=8, note=38, velocity=95, time=0),
    Message('note_off', channel=8, note=38, velocity=95, time=240),
    Message('note_on', channel=8, note=38, velocity=95, time=0),
    Message('note_off', channel=8, note=38, velocity=95, time=240),
    Message('note_on', channel=8, note=38, velocity=95, time=0),
    Message('note_off', channel=8, note=38, velocity=95, time=240),
    Message('note_on', channel=8, note=38, velocity=95, time=0),
    Message('note_off', channel=8, note=38, velocity=95, time=240),
    Message('note_on', channel=8, note=33, velocity=95, time=0),
    Message('note_off', channel=8, note=33, velocity=95, time=480),
    Message('note_on', channel=8, note=33, velocity=95, time=0),
    Message('note_off', channel=8, note=33, velocity=95, time=240),
    Message('note_on', channel=8, note=33, velocity=95, time=0),
    Message('note_off', channel=8, note=33, velocity=95, time=240),
    Message('note_on', channel=8, note=33, velocity=95, time=0),
    Message('note_off', channel=8, note=33, velocity=95, time=960),
    Message('note_on', channel=10, note=40, velocity=95, time=0),
    Message('pitchwheel', channel=10, pitch=0, time=120),
    Message('pitchwheel', channel=10, pitch=0, time=120),
    Message('pitchwheel', channel=10, pitch=0, time=120),
    Message('pitchwheel', channel=10, pitch=0, time=120),
    Message('pitchwheel', channel=10, pitch=0, time=120),
    Message('pitchwheel', channel=10, pitch=0, time=120),
    Message('pitchwheel', channel=10, pitch=0, time=120),
    Message('pitchwheel', channel=10, pitch=0, time=120),
    Message('pitchwheel', channel=10, pitch=0, time=0),
    Message('note_on', channel=8, note=28, velocity=95, time=0),
    Message('note_off', channel=10, note=40, velocity=95, time=960),
    Message('note_off', channel=8, note=28, velocity=95, time=0),
    Message('note_on', channel=8, note=31, velocity=95, time=0),
    Message('note_off', channel=8, note=31, velocity=95, time=480),
    Message('note_on', channel=8, note=31, velocity=95, time=0),
    Message('note_off', channel=8, note=31, velocity=95, time=240),
    Message('note_on', channel=8, note=31, velocity=95, time=0),
    Message('note_off', channel=8, note=31, velocity=95, time=240),
    Message('note_on', channel=8, note=31, velocity=95, time=0),
    Message('note_off', channel=8, note=31, velocity=95, time=240),
    Message('note_on', channel=8, note=31, velocity=95, time=0),
    Message('note_off', channel=8, note=31, velocity=95, time=240),
    Message('note_on', channel=8, note=31, velocity=95, time=0),
    Message('note_off', channel=8, note=31, velocity=95, time=240),
    Message('note_on', channel=8, note=31, velocity=95, time=0),
    Message('note_off', channel=8, note=31, velocity=95, time=240),
    Message('note_on', channel=8, note=38, velocity=95, time=0),
    Message('note_off', channel=8, note=38, velocity=95, time=480),
    Message('note_on', channel=8, note=38, velocity=95, time=0),
    Message('note_off', channel=8, note=38, velocity=95, time=240),
    Message('note_on', channel=8, note=38, velocity=95, time=0),
    Message('note_off', channel=8, note=38, velocity=95, time=240),
    Message('note_on', channel=8, note=38, velocity=95, time=0),
    Message('note_off', channel=8, note=38, velocity=95, time=240),
    Message('note_on', channel=8, note=38, velocity=95, time=0),
    Message('note_off', channel=8, note=38, velocity=95, time=240),
    Message('note_on', channel=8, note=38, velocity=95, time=0),
    Message('note_off', channel=8, note=38, velocity=95, time=240),
    Message('note_on', channel=8, note=38, velocity=95, time=0),
    Message('note_off', channel=8, note=38, velocity=95, time=240),
    Message('note_on', channel=8, note=33, velocity=95, time=0),
    Message('note_off', channel=8, note=33, velocity=95, time=480),
    Message('note_on', channel=8, note=33, velocity=95, time=0),
    Message('note_off', channel=8, note=33, velocity=95, time=240),
    Message('note_on', channel=8, note=33, velocity=95, time=0),
    Message('note_off', channel=8, note=33, velocity=95, time=240),
    Message('note_on', channel=8, note=33, velocity=95, time=0),
    Message('note_off', channel=8, note=33, velocity=95, time=960),
    Message('note_on', channel=10, note=40, velocity=95, time=0),
    Message('pitchwheel', channel=10, pitch=0, time=120),
    Message('pitchwheel', channel=10, pitch=0, time=120),
    Message('pitchwheel', channel=10, pitch=0, time=120),
    Message('pitchwheel', channel=10, pitch=0, time=120),
    Message('pitchwheel', channel=10, pitch=0, time=120),
    Message('pitchwheel', channel=10, pitch=0, time=120),
    Message('pitchwheel', channel=10, pitch=0, time=120),
    Message('pitchwheel', channel=10, pitch=0, time=120),
    Message('pitchwheel', channel=10, pitch=0, time=0),
    Message('note_on', channel=8, note=28, velocity=95, time=0),
    Message('note_off', channel=10, note=40, velocity=95, time=960),
    Message('note_off', channel=8, note=28, velocity=95, time=0),
    Message('note_on', channel=8, note=31, velocity=95, time=0),
    Message('note_off', channel=8, note=31, velocity=95, time=480),
    Message('note_on', channel=8, note=31, velocity=95, time=0),
    Message('note_off', channel=8, note=31, velocity=95, time=240),
    Message('note_on', channel=8, note=31, velocity=95, time=0),
    Message('note_off', channel=8, note=31, velocity=95, time=240),
    Message('note_on', channel=8, note=31, velocity=95, time=0),
    Message('note_off', channel=8, note=31, velocity=95, time=240),
    Message('note_on', channel=8, note=31, velocity=95, time=0),
    Message('note_off', channel=8, note=31, velocity=95, time=240),
    Message('note_on', channel=8, note=31, velocity=95, time=0),
    Message('note_off', channel=8, note=31, velocity=95, time=240),
    Message('note_on', channel=8, note=31, velocity=95, time=0),
    Message('note_off', channel=8, note=31, velocity=95, time=240),
    Message('note_on', channel=8, note=38, velocity=95, time=0),
    Message('note_off', channel=8, note=38, velocity=95, time=480),
    Message('note_on', channel=8, note=38, velocity=95, time=0),
    Message('note_off', channel=8, note=38, velocity=95, time=240),
    Message('note_on', channel=8, note=38, velocity=95, time=0),
    Message('note_off', channel=8, note=38, velocity=95, time=240),
    Message('note_on', channel=8, note=38, velocity=95, time=0),
    Message('note_off', channel=8, note=38, velocity=95, time=240),
    Message('note_on', channel=8, note=38, velocity=95, time=0),
    Message('note_off', channel=8, note=38, velocity=95, time=240),
    Message('note_on', channel=8, note=38, velocity=95, time=0),
    Message('note_off', channel=8, note=38, velocity=95, time=240),
    Message('note_on', channel=8, note=38, velocity=95, time=0),
    Message('note_off', channel=8, note=38, velocity=95, time=240),
    Message('note_on', channel=8, note=33, velocity=95, time=0),
    Message('note_off', channel=8, note=33, velocity=95, time=480),
    Message('note_on', channel=8, note=33, velocity=95, time=0),
    Message('note_off', channel=8, note=33, velocity=95, time=240),
    Message('note_on', channel=8, note=33, velocity=95, time=0),
    Message('note_off', channel=8, note=33, velocity=95, time=240),
    Message('note_on', channel=8, note=33, velocity=95, time=0),
    Message('note_off', channel=8, note=33, velocity=95, time=960),
    Message('note_on', channel=8, note=35, velocity=95, time=480),
    Message('note_off', channel=8, note=35, velocity=95, time=240),
    Message('note_on', channel=8, note=35, velocity=95, time=0),
    Message('note_off', channel=8, note=35, velocity=95, time=240),
    Message('note_on', channel=8, note=35, velocity=95, time=0),
    Message('note_off', channel=8, note=35, velocity=95, time=240),
    Message('note_on', channel=8, note=35, velocity=95, time=0),
    Message('note_off', channel=8, note=35, velocity=95, time=240),
    Message('note_on', channel=8, note=39, velocity=95, time=480),
    Message('note_off', channel=8, note=39, velocity=95, time=240),
    Message('note_on', channel=8, note=39, velocity=95, time=0),
    Message('note_off', channel=8, note=39, velocity=95, time=240),
    Message('note_on', channel=8, note=39, velocity=95, time=0),
    Message('note_off', channel=8, note=39, velocity=95, time=240),
    Message('note_on', channel=8, note=39, velocity=95, time=0),
    Message('note_off', channel=8, note=39, velocity=95, time=240),
    Message('note_on', channel=8, note=40, velocity=95, time=0),
    Message('note_off', channel=8, note=40, velocity=95, time=240),
    Message('note_on', channel=8, note=42, velocity=95, time=0),
    Message('note_off', channel=8, note=42, velocity=95, time=240),
    Message('note_on', channel=10, note=42, velocity=95, time=0),
    Message('pitchwheel', channel=10, pitch=-1536, time=120),
    Message('pitchwheel', channel=10, pitch=-3072, time=120),
    Message('pitchwheel', channel=10, pitch=-4736, time=120),
    Message('pitchwheel', channel=10, pitch=-6272, time=120),
    Message('pitchwheel', channel=10, pitch=0, time=0),
    Message('note_off', channel=10, note=42, velocity=95, time=0),
    Message('note_on', channel=8, note=33, velocity=95, time=0),
    Message('note_off', channel=8, note=33, velocity=95, time=960),
    Message('note_on', channel=8, note=38, velocity=95, time=0),
    Message('note_off', channel=8, note=38, velocity=95, time=240),
    Message('note_on', channel=8, note=40, velocity=95, time=0),
    Message('note_off', channel=8, note=40, velocity=95, time=240),
    Message('pitchwheel', channel=10, pitch=0, time=0),
    Message('note_on', channel=10, note=43, velocity=95, time=0),
    Message('pitchwheel', channel=10, pitch=0, time=1800),
    Message('pitchwheel', channel=10, pitch=128, time=120),
    Message('pitchwheel', channel=10, pitch=256, time=120),
    Message('pitchwheel', channel=10, pitch=384, time=120),
    Message('pitchwheel', channel=10, pitch=512, time=120),
    Message('pitchwheel', channel=10, pitch=640, time=120),
    Message('pitchwheel', channel=10, pitch=640, time=0),
    Message('pitchwheel', channel=10, pitch=0, time=0),
    Message('note_off', channel=10, note=43, velocity=95, time=0),
    Message('note_on', channel=8, note=33, velocity=111, time=0),
    Message('note_off', channel=8, note=33, velocity=111, time=480),
    Message('note_on', channel=8, note=38, velocity=95, time=0),
    Message('note_off', channel=8, note=38, velocity=95, time=240),
    Message('note_on', channel=8, note=40, velocity=95, time=0),
    Message('note_off', channel=8, note=40, velocity=95, time=240),
    Message('note_on', channel=8, note=43, velocity=95, time=0),
    Message('note_off', channel=8, note=43, velocity=95, time=480),
    Message('note_on', channel=10, note=45, velocity=95, time=0),
    Message('note_off', channel=10, note=45, velocity=95, time=1920),
    Message('note_on', channel=8, note=33, velocity=95, time=480),
    Message('note_off', channel=8, note=33, velocity=95, time=960),
    Message('note_on', channel=8, note=38, velocity=95, time=0),
    Message('note_off', channel=8, note=38, velocity=95, time=240),
    Message('note_on', channel=8, note=40, velocity=95, time=0),
    Message('note_off', channel=8, note=40, velocity=95, time=240),
    Message('pitchwheel', channel=10, pitch=0, time=0),
    Message('note_on', channel=10, note=43, velocity=95, time=0),
    Message('pitchwheel', channel=10, pitch=0, time=1800),
    Message('pitchwheel', channel=10, pitch=128, time=120),
    Message('pitchwheel', channel=10, pitch=256, time=120),
    Message('pitchwheel', channel=10, pitch=384, time=120),
    Message('pitchwheel', channel=10, pitch=512, time=120),
    Message('pitchwheel', channel=10, pitch=640, time=120),
    Message('pitchwheel', channel=10, pitch=640, time=0),
    Message('pitchwheel', channel=10, pitch=0, time=0),
    Message('note_off', channel=10, note=43, velocity=95, time=0),
    Message('note_on', channel=8, note=33, velocity=95, time=0),
    Message('note_off', channel=8, note=33, velocity=95, time=480),
    Message('note_on', channel=8, note=38, velocity=95, time=0),
    Message('note_off', channel=8, note=38, velocity=95, time=240),
    Message('note_on', channel=8, note=40, velocity=95, time=0),
    Message('note_off', channel=8, note=40, velocity=95, time=240),
    Message('note_on', channel=8, note=43, velocity=95, time=0),
    Message('note_off', channel=8, note=43, velocity=95, time=480),
    Message('note_on', channel=8, note=45, velocity=95, time=0),
    Message('note_off', channel=8, note=45, velocity=95, time=720),
    Message('note_on', channel=8, note=45, velocity=95, time=0),
    Message('note_off', channel=8, note=45, velocity=95, time=240),
    Message('note_on', channel=8, note=45, velocity=95, time=0),
    Message('note_off', channel=8, note=45, velocity=95, time=480),
    Message('note_on', channel=8, note=45, velocity=95, time=0),
    Message('note_off', channel=8, note=45, velocity=95, time=480),
    Message('note_on', channel=8, note=43, velocity=95, time=0),
    Message('note_off', channel=8, note=43, velocity=95, time=240),
    Message('note_on', channel=8, note=40, velocity=95, time=0),
    Message('note_off', channel=8, note=40, velocity=95, time=240),
    Message('note_on', channel=8, note=33, velocity=95, time=0),
    Message('note_off', channel=8, note=33, velocity=95, time=960),
    Message('note_on', channel=8, note=38, velocity=95, time=0),
    Message('note_off', channel=8, note=38, velocity=95, time=240),
    Message('note_on', channel=8, note=40, velocity=95, time=0),
    Message('note_off', channel=8, note=40, velocity=95, time=240),
    Message('pitchwheel', channel=10, pitch=0, time=0),
    Message('note_on', channel=10, note=43, velocity=95, time=0),
    Message('pitchwheel', channel=10, pitch=0, time=1800),
    Message('pitchwheel', channel=10, pitch=128, time=120),
    Message('pitchwheel', channel=10, pitch=256, time=120),
    Message('pitchwheel', channel=10, pitch=384, time=120),
    Message('pitchwheel', channel=10, pitch=512, time=120),
    Message('pitchwheel', channel=10, pitch=640, time=120),
    Message('pitchwheel', channel=10, pitch=640, time=0),
    Message('pitchwheel', channel=10, pitch=0, time=0),
    Message('note_off', channel=10, note=43, velocity=95, time=0),
    Message('note_on', channel=8, note=33, velocity=111, time=0),
    Message('note_off', channel=8, note=33, velocity=111, time=480),
    Message('note_on', channel=8, note=38, velocity=95, time=0),
    Message('note_off', channel=8, note=38, velocity=95, time=240),
    Message('note_on', channel=8, note=40, velocity=95, time=0),
    Message('note_off', channel=8, note=40, velocity=95, time=240),
    Message('note_on', channel=8, note=43, velocity=95, time=0),
    Message('note_off', channel=8, note=43, velocity=95, time=480),
    Message('note_on', channel=10, note=45, velocity=95, time=0),
    Message('note_off', channel=10, note=45, velocity=95, time=1920),
    Message('note_on', channel=8, note=33, velocity=95, time=480),
    Message('note_off', channel=8, note=33, velocity=95, time=960),
    Message('note_on', channel=8, note=38, velocity=95, time=0),
    Message('note_off', channel=8, note=38, velocity=95, time=240),
    Message('note_on', channel=8, note=40, velocity=95, time=0),
    Message('note_off', channel=8, note=40, velocity=95, time=240),
    Message('pitchwheel', channel=10, pitch=0, time=0),
    Message('note_on', channel=10, note=43, velocity=95, time=0),
    Message('pitchwheel', channel=10, pitch=0, time=1800),
    Message('pitchwheel', channel=10, pitch=128, time=120),
    Message('pitchwheel', channel=10, pitch=256, time=120),
    Message('pitchwheel', channel=10, pitch=384, time=120),
    Message('pitchwheel', channel=10, pitch=512, time=120),
    Message('pitchwheel', channel=10, pitch=640, time=120),
    Message('pitchwheel', channel=10, pitch=640, time=0),
    Message('pitchwheel', channel=10, pitch=0, time=0),
    Message('note_off', channel=10, note=43, velocity=95, time=0),
    Message('note_on', channel=8, note=33, velocity=95, time=0),
    Message('note_off', channel=8, note=33, velocity=95, time=480),
    Message('note_on', channel=8, note=38, velocity=95, time=0),
    Message('note_off', channel=8, note=38, velocity=95, time=240),
    Message('note_on', channel=8, note=40, velocity=95, time=0),
    Message('note_off', channel=8, note=40, velocity=95, time=240),
    Message('note_on', channel=8, note=43, velocity=95, time=0),
    Message('note_off', channel=8, note=43, velocity=95, time=480),
    Message('note_on', channel=8, note=45, velocity=95, time=0),
    Message('note_off', channel=8, note=45, velocity=95, time=720),
    Message('note_on', channel=8, note=45, velocity=95, time=0),
    Message('note_off', channel=8, note=45, velocity=95, time=240),
    Message('note_on', channel=8, note=45, velocity=95, time=0),
    Message('note_off', channel=8, note=45, velocity=95, time=480),
    Message('note_on', channel=10, note=45, velocity=95, time=0),
    Message('pitchwheel', channel=10, pitch=-256, time=120),
    Message('pitchwheel', channel=10, pitch=-640, time=120),
    Message('pitchwheel', channel=10, pitch=-1024, time=120),
    Message('pitchwheel', channel=10, pitch=-1408, time=120),
    Message('pitchwheel', channel=10, pitch=-1664, time=120),
    Message('pitchwheel', channel=10, pitch=-2048, time=120),
    Message('pitchwheel', channel=10, pitch=-2432, time=120),
    Message('pitchwheel', channel=10, pitch=-2816, time=120),
    Message('pitchwheel', channel=10, pitch=0, time=0),
    Message('note_off', channel=10, note=45, velocity=95, time=0),
    Message('note_on', channel=8, note=41, velocity=111, time=0),
    Message('note_off', channel=8, note=41, velocity=111, time=240),
    Message('note_on', channel=8, note=41, velocity=111, time=0),
    Message('note_off', channel=8, note=41, velocity=111, time=240),
    Message('note_on', channel=8, note=41, velocity=111, time=0),
    Message('note_off', channel=8, note=41, velocity=111, time=240),
    Message('note_on', channel=8, note=41, velocity=111, time=0),
    Message('note_off', channel=8, note=41, velocity=111, time=240),
    Message('note_on', channel=8, note=43, velocity=111, time=240),
    Message('note_off', channel=8, note=43, velocity=111, time=240),
    Message('note_on', channel=8, note=36, velocity=111, time=0),
    Message('note_off', channel=8, note=36, velocity=111, time=2400),
    Message('note_on', channel=8, note=41, velocity=111, time=0),
    Message('note_off', channel=8, note=41, velocity=111, time=240),
    Message('note_on', channel=8, note=41, velocity=111, time=0),
    Message('note_off', channel=8, note=41, velocity=111, time=240),
    Message('note_on', channel=8, note=41, velocity=111, time=0),
    Message('note_off', channel=8, note=41, velocity=111, time=240),
    Message('note_on', channel=8, note=41, velocity=111, time=0),
    Message('note_off', channel=8, note=41, velocity=111, time=240),
    Message('note_on', channel=8, note=43, velocity=111, time=240),
    Message('note_off', channel=8, note=43, velocity=111, time=240),
    Message('note_on', channel=8, note=36, velocity=111, time=0),
    Message('note_off', channel=8, note=36, velocity=111, time=720),
    Message('note_on', channel=8, note=36, velocity=111, time=0),
    Message('note_off', channel=8, note=36, velocity=111, time=720),
    Message('note_on', channel=10, note=36, velocity=111, time=0),
    Message('pitchwheel', channel=10, pitch=256, time=120),
    Message('pitchwheel', channel=10, pitch=640, time=120),
    Message('pitchwheel', channel=10, pitch=1024, time=120),
    Message('pitchwheel', channel=10, pitch=1408, time=120),
    Message('pitchwheel', channel=10, pitch=1664, time=120),
    Message('pitchwheel', channel=10, pitch=2048, time=120),
    Message('pitchwheel', channel=10, pitch=2432, time=120),
    Message('pitchwheel', channel=10, pitch=2816, time=120),
    Message('pitchwheel', channel=10, pitch=0, time=0),
    Message('note_off', channel=10, note=36, velocity=111, time=0),
    Message('note_on', channel=10, note=40, velocity=95, time=0),
    Message('pitchwheel', channel=10, pitch=0, time=120),
    Message('pitchwheel', channel=10, pitch=0, time=120),
    Message('pitchwheel', channel=10, pitch=0, time=120),
    Message('pitchwheel', channel=10, pitch=0, time=120),
    Message('pitchwheel', channel=10, pitch=0, time=120),
    Message('pitchwheel', channel=10, pitch=0, time=120),
    Message('pitchwheel', channel=10, pitch=0, time=120),
    Message('pitchwheel', channel=10, pitch=0, time=120),
    Message('pitchwheel', channel=10, pitch=0, time=0),
    Message('note_on', channel=8, note=28, velocity=95, time=0),
    Message('note_off', channel=10, note=40, velocity=95, time=960),
    Message('note_off', channel=8, note=28, velocity=95, time=0),
    Message('note_on', channel=8, note=31, velocity=95, time=0),
    Message('note_off', channel=8, note=31, velocity=95, time=480),
    Message('note_on', channel=8, note=31, velocity=95, time=0),
    Message('note_off', channel=8, note=31, velocity=95, time=240),
    Message('note_on', channel=8, note=31, velocity=95, time=0),
    Message('note_off', channel=8, note=31, velocity=95, time=240),
    Message('note_on', channel=8, note=31, velocity=95, time=0),
    Message('note_off', channel=8, note=31, velocity=95, time=240),
    Message('note_on', channel=8, note=31, velocity=95, time=0),
    Message('note_off', channel=8, note=31, velocity=95, time=240),
    Message('note_on', channel=8, note=31, velocity=95, time=0),
    Message('note_off', channel=8, note=31, velocity=95, time=240),
    Message('note_on', channel=8, note=31, velocity=95, time=0),
    Message('note_off', channel=8, note=31, velocity=95, time=240),
    Message('note_on', channel=8, note=38, velocity=95, time=0),
    Message('note_off', channel=8, note=38, velocity=95, time=480),
    Message('note_on', channel=8, note=38, velocity=95, time=0),
    Message('note_off', channel=8, note=38, velocity=95, time=240),
    Message('note_on', channel=8, note=38, velocity=95, time=0),
    Message('note_off', channel=8, note=38, velocity=95, time=240),
    Message('note_on', channel=8, note=38, velocity=95, time=0),
    Message('note_off', channel=8, note=38, velocity=95, time=240),
    Message('note_on', channel=8, note=38, velocity=95, time=0),
    Message('note_off', channel=8, note=38, velocity=95, time=240),
    Message('note_on', channel=8, note=38, velocity=95, time=0),
    Message('note_off', channel=8, note=38, velocity=95, time=240),
    Message('note_on', channel=8, note=38, velocity=95, time=0),
    Message('note_off', channel=8, note=38, velocity=95, time=240),
    Message('note_on', channel=8, note=33, velocity=95, time=0),
    Message('note_off', channel=8, note=33, velocity=95, time=480),
    Message('note_on', channel=8, note=33, velocity=95, time=0),
    Message('note_off', channel=8, note=33, velocity=95, time=240),
    Message('note_on', channel=8, note=33, velocity=95, time=0),
    Message('note_off', channel=8, note=33, velocity=95, time=240),
    Message('note_on', channel=8, note=33, velocity=95, time=0),
    Message('note_off', channel=8, note=33, velocity=95, time=960),
    Message('note_on', channel=10, note=40, velocity=95, time=0),
    Message('pitchwheel', channel=10, pitch=0, time=120),
    Message('pitchwheel', channel=10, pitch=0, time=120),
    Message('pitchwheel', channel=10, pitch=0, time=120),
    Message('pitchwheel', channel=10, pitch=0, time=120),
    Message('pitchwheel', channel=10, pitch=0, time=120),
    Message('pitchwheel', channel=10, pitch=0, time=120),
    Message('pitchwheel', channel=10, pitch=0, time=120),
    Message('pitchwheel', channel=10, pitch=0, time=120),
    Message('pitchwheel', channel=10, pitch=0, time=0),
    Message('note_on', channel=8, note=28, velocity=95, time=0),
    Message('note_off', channel=10, note=40, velocity=95, time=960),
    Message('note_off', channel=8, note=28, velocity=95, time=0),
    Message('note_on', channel=8, note=31, velocity=95, time=0),
    Message('note_off', channel=8, note=31, velocity=95, time=480),
    Message('note_on', channel=8, note=31, velocity=95, time=0),
    Message('note_off', channel=8, note=31, velocity=95, time=240),
    Message('note_on', channel=8, note=31, velocity=95, time=0),
    Message('note_off', channel=8, note=31, velocity=95, time=240),
    Message('note_on', channel=8, note=31, velocity=95, time=0),
    Message('note_off', channel=8, note=31, velocity=95, time=240),
    Message('note_on', channel=8, note=31, velocity=95, time=0),
    Message('note_off', channel=8, note=31, velocity=95, time=240),
    Message('note_on', channel=8, note=31, velocity=95, time=0),
    Message('note_off', channel=8, note=31, velocity=95, time=240),
    Message('note_on', channel=8, note=31, velocity=95, time=0),
    Message('note_off', channel=8, note=31, velocity=95, time=240),
    Message('note_on', channel=8, note=38, velocity=95, time=0),
    Message('note_off', channel=8, note=38, velocity=95, time=480),
    Message('note_on', channel=8, note=38, velocity=95, time=0),
    Message('note_off', channel=8, note=38, velocity=95, time=240),
    Message('note_on', channel=8, note=38, velocity=95, time=0),
    Message('note_off', channel=8, note=38, velocity=95, time=240),
    Message('note_on', channel=8, note=38, velocity=95, time=0),
    Message('note_off', channel=8, note=38, velocity=95, time=240),
    Message('note_on', channel=8, note=38, velocity=95, time=0),
    Message('note_off', channel=8, note=38, velocity=95, time=240),
    Message('note_on', channel=8, note=38, velocity=95, time=0),
    Message('note_off', channel=8, note=38, velocity=95, time=240),
    Message('note_on', channel=8, note=38, velocity=95, time=0),
    Message('note_off', channel=8, note=38, velocity=95, time=240),
    Message('note_on', channel=8, note=33, velocity=95, time=0),
    Message('note_off', channel=8, note=33, velocity=95, time=480),
    Message('note_on', channel=8, note=33, velocity=95, time=0),
    Message('note_off', channel=8, note=33, velocity=95, time=240),
    Message('note_on', channel=8, note=33, velocity=95, time=0),
    Message('note_off', channel=8, note=33, velocity=95, time=240),
    Message('note_on', channel=8, note=33, velocity=95, time=0),
    Message('note_off', channel=8, note=33, velocity=95, time=960),
    Message('note_on', channel=10, note=40, velocity=95, time=0),
    Message('pitchwheel', channel=10, pitch=0, time=120),
    Message('pitchwheel', channel=10, pitch=0, time=120),
    Message('pitchwheel', channel=10, pitch=0, time=120),
    Message('pitchwheel', channel=10, pitch=0, time=120),
    Message('pitchwheel', channel=10, pitch=0, time=120),
    Message('pitchwheel', channel=10, pitch=0, time=120),
    Message('pitchwheel', channel=10, pitch=0, time=120),
    Message('pitchwheel', channel=10, pitch=0, time=120),
    Message('pitchwheel', channel=10, pitch=0, time=0),
    Message('note_on', channel=8, note=28, velocity=95, time=0),
    Message('note_off', channel=10, note=40, velocity=95, time=960),
    Message('note_off', channel=8, note=28, velocity=95, time=0),
    Message('note_on', channel=8, note=31, velocity=95, time=0),
    Message('note_off', channel=8, note=31, velocity=95, time=480),
    Message('note_on', channel=8, note=31, velocity=95, time=0),
    Message('note_off', channel=8, note=31, velocity=95, time=240),
    Message('note_on', channel=8, note=31, velocity=95, time=0),
    Message('note_off', channel=8, note=31, velocity=95, time=240),
    Message('note_on', channel=8, note=31, velocity=95, time=0),
    Message('note_off', channel=8, note=31, velocity=95, time=240),
    Message('note_on', channel=8, note=31, velocity=95, time=0),
    Message('note_off', channel=8, note=31, velocity=95, time=240),
    Message('note_on', channel=8, note=31, velocity=95, time=0),
    Message('note_off', channel=8, note=31, velocity=95, time=240),
    Message('note_on', channel=8, note=31, velocity=95, time=0),
    Message('note_off', channel=8, note=31, velocity=95, time=240),
    Message('note_on', channel=8, note=38, velocity=95, time=0),
    Message('note_off', channel=8, note=38, velocity=95, time=480),
    Message('note_on', channel=8, note=38, velocity=95, time=0),
    Message('note_off', channel=8, note=38, velocity=95, time=240),
    Message('note_on', channel=8, note=38, velocity=95, time=0),
    Message('note_off', channel=8, note=38, velocity=95, time=240),
    Message('note_on', channel=8, note=38, velocity=95, time=0),
    Message('note_off', channel=8, note=38, velocity=95, time=240),
    Message('note_on', channel=8, note=38, velocity=95, time=0),
    Message('note_off', channel=8, note=38, velocity=95, time=240),
    Message('note_on', channel=8, note=38, velocity=95, time=0),
    Message('note_off', channel=8, note=38, velocity=95, time=240),
    Message('note_on', channel=8, note=38, velocity=95, time=0),
    Message('note_off', channel=8, note=38, velocity=95, time=240),
    Message('note_on', channel=8, note=33, velocity=95, time=0),
    Message('note_off', channel=8, note=33, velocity=95, time=480),
    Message('note_on', channel=8, note=33, velocity=95, time=0),
    Message('note_off', channel=8, note=33, velocity=95, time=240),
    Message('note_on', channel=8, note=33, velocity=95, time=0),
    Message('note_off', channel=8, note=33, velocity=95, time=240),
    Message('note_on', channel=8, note=33, velocity=95, time=0),
    Message('note_off', channel=8, note=33, velocity=95, time=960),
    Message('note_on', channel=10, note=40, velocity=95, time=0),
    Message('pitchwheel', channel=10, pitch=0, time=120),
    Message('pitchwheel', channel=10, pitch=0, time=120),
    Message('pitchwheel', channel=10, pitch=0, time=120),
    Message('pitchwheel', channel=10, pitch=0, time=120),
    Message('pitchwheel', channel=10, pitch=0, time=120),
    Message('pitchwheel', channel=10, pitch=0, time=120),
    Message('pitchwheel', channel=10, pitch=0, time=120),
    Message('pitchwheel', channel=10, pitch=0, time=120),
    Message('pitchwheel', channel=10, pitch=0, time=0),
    Message('note_on', channel=8, note=28, velocity=95, time=0),
    Message('note_off', channel=10, note=40, velocity=95, time=960),
    Message('note_off', channel=8, note=28, velocity=95, time=0),
    Message('note_on', channel=8, note=31, velocity=95, time=0),
    Message('note_off', channel=8, note=31, velocity=95, time=480),
    Message('note_on', channel=8, note=31, velocity=95, time=0),
    Message('note_off', channel=8, note=31, velocity=95, time=240),
    Message('note_on', channel=8, note=31, velocity=95, time=0),
    Message('note_off', channel=8, note=31, velocity=95, time=240),
    Message('note_on', channel=8, note=31, velocity=95, time=0),
    Message('note_off', channel=8, note=31, velocity=95, time=240),
    Message('note_on', channel=8, note=31, velocity=95, time=0),
    Message('note_off', channel=8, note=31, velocity=95, time=240),
    Message('note_on', channel=8, note=31, velocity=95, time=0),
    Message('note_off', channel=8, note=31, velocity=95, time=240),
    Message('note_on', channel=8, note=31, velocity=95, time=0),
    Message('note_off', channel=8, note=31, velocity=95, time=240),
    Message('note_on', channel=8, note=38, velocity=95, time=0),
    Message('note_off', channel=8, note=38, velocity=95, time=480),
    Message('note_on', channel=8, note=38, velocity=95, time=0),
    Message('note_off', channel=8, note=38, velocity=95, time=240),
    Message('note_on', channel=8, note=38, velocity=95, time=0),
    Message('note_off', channel=8, note=38, velocity=95, time=240),
    Message('note_on', channel=8, note=38, velocity=95, time=0),
    Message('note_off', channel=8, note=38, velocity=95, time=240),
    Message('note_on', channel=8, note=38, velocity=95, time=0),
    Message('note_off', channel=8, note=38, velocity=95, time=240),
    Message('note_on', channel=8, note=38, velocity=95, time=0),
    Message('note_off', channel=8, note=38, velocity=95, time=240),
    Message('note_on', channel=8, note=38, velocity=95, time=0),
    Message('note_off', channel=8, note=38, velocity=95, time=240),
    Message('note_on', channel=8, note=33, velocity=95, time=0),
    Message('note_off', channel=8, note=33, velocity=95, time=480),
    Message('note_on', channel=8, note=33, velocity=95, time=0),
    Message('note_off', channel=8, note=33, velocity=95, time=240),
    Message('note_on', channel=8, note=33, velocity=95, time=0),
    Message('note_off', channel=8, note=33, velocity=95, time=240),
    Message('note_on', channel=8, note=33, velocity=95, time=0),
    Message('note_off', channel=8, note=33, velocity=95, time=960),
    Message('note_on', channel=8, note=35, velocity=95, time=480),
    Message('note_off', channel=8, note=35, velocity=95, time=240),
    Message('note_on', channel=8, note=35, velocity=95, time=0),
    Message('note_off', channel=8, note=35, velocity=95, time=240),
    Message('note_on', channel=8, note=35, velocity=95, time=0),
    Message('note_off', channel=8, note=35, velocity=95, time=240),
    Message('note_on', channel=8, note=35, velocity=95, time=0),
    Message('note_off', channel=8, note=35, velocity=95, time=240),
    Message('note_on', channel=8, note=39, velocity=95, time=480),
    Message('note_off', channel=8, note=39, velocity=95, time=240),
    Message('note_on', channel=8, note=39, velocity=95, time=0),
    Message('note_off', channel=8, note=39, velocity=95, time=240),
    Message('note_on', channel=8, note=39, velocity=95, time=0),
    Message('note_off', channel=8, note=39, velocity=95, time=240),
    Message('note_on', channel=8, note=39, velocity=95, time=0),
    Message('note_off', channel=8, note=39, velocity=95, time=240),
    Message('note_on', channel=8, note=40, velocity=95, time=0),
    Message('note_off', channel=8, note=40, velocity=95, time=240),
    Message('note_on', channel=8, note=42, velocity=95, time=0),
    Message('note_off', channel=8, note=42, velocity=95, time=240),
    Message('note_on', channel=10, note=42, velocity=95, time=0),
    Message('note_off', channel=10, note=42, velocity=95, time=480),
    Message('note_on', channel=8, note=30, velocity=95, time=0),
    Message('note_off', channel=8, note=30, velocity=95, time=720),
    Message('note_on', channel=8, note=30, velocity=95, time=0),
    Message('note_off', channel=8, note=30, velocity=95, time=240),
    Message('note_on', channel=8, note=30, velocity=95, time=0),
    Message('note_off', channel=8, note=30, velocity=95, time=2880),
    Message('note_on', channel=8, note=35, velocity=95, time=0),
    Message('note_off', channel=8, note=35, velocity=95, time=240),
    Message('note_on', channel=8, note=35, velocity=95, time=0),
    Message('note_off', channel=8, note=35, velocity=95, time=240),
    Message('note_on', channel=8, note=35, velocity=95, time=0),
    Message('note_off', channel=8, note=35, velocity=95, time=240),
    Message('note_on', channel=8, note=35, velocity=95, time=0),
    Message('note_off', channel=8, note=35, velocity=95, time=240),
    Message('note_on', channel=8, note=39, velocity=95, time=480),
    Message('note_off', channel=8, note=39, velocity=95, time=240),
    Message('note_on', channel=8, note=39, velocity=95, time=0),
    Message('note_off', channel=8, note=39, velocity=95, time=240),
    Message('note_on', channel=8, note=39, velocity=95, time=0),
    Message('note_off', channel=8, note=39, velocity=95, time=240),
    Message('note_on', channel=8, note=39, velocity=95, time=0),
    Message('note_off', channel=8, note=39, velocity=95, time=240),
    Message('note_on', channel=8, note=42, velocity=95, time=240),
    Message('note_off', channel=8, note=42, velocity=95, time=240),
    Message('note_on', channel=10, note=42, velocity=95, time=0),
    Message('note_off', channel=10, note=42, velocity=95, time=480),
    Message('note_on', channel=8, note=30, velocity=95, time=0),
    Message('note_off', channel=8, note=30, velocity=95, time=720),
    Message('note_on', channel=8, note=30, velocity=95, time=0),
    Message('note_off', channel=8, note=30, velocity=95, time=240),
    Message('note_on', channel=8, note=30, velocity=95, time=0),
    Message('note_off', channel=8, note=30, velocity=95, time=2880),
    Message('note_on', channel=8, note=35, velocity=95, time=0),
    Message('note_off', channel=8, note=35, velocity=95, time=240),
    Message('note_on', channel=8, note=35, velocity=95, time=0),
    Message('note_off', channel=8, note=35, velocity=95, time=240),
    Message('note_on', channel=8, note=35, velocity=95, time=0),
    Message('note_off', channel=8, note=35, velocity=95, time=240),
    Message('note_on', channel=8, note=35, velocity=95, time=0),
    Message('note_off', channel=8, note=35, velocity=95, time=240),
    Message('note_on', channel=8, note=39, velocity=95, time=480),
    Message('note_off', channel=8, note=39, velocity=95, time=240),
    Message('note_on', channel=8, note=39, velocity=95, time=0),
    Message('note_off', channel=8, note=39, velocity=95, time=240),
    Message('note_on', channel=8, note=39, velocity=95, time=0),
    Message('note_off', channel=8, note=39, velocity=95, time=240),
    Message('note_on', channel=8, note=39, velocity=95, time=0),
    Message('note_off', channel=8, note=39, velocity=95, time=240),
    Message('note_on', channel=8, note=42, velocity=95, time=240),
    Message('note_off', channel=8, note=42, velocity=95, time=240),
    Message('note_on', channel=10, note=42, velocity=95, time=0),
    Message('note_off', channel=10, note=42, velocity=95, time=480),
    Message('note_on', channel=8, note=30, velocity=95, time=0),
    Message('note_off', channel=8, note=30, velocity=95, time=2880),
    Message('note_on', channel=8, note=35, velocity=95, time=960),
    Message('note_off', channel=8, note=35, velocity=95, time=240),
    Message('note_on', channel=8, note=35, velocity=95, time=0),
    Message('note_off', channel=8, note=35, velocity=95, time=240),
    Message('note_on', channel=8, note=35, velocity=95, time=0),
    Message('note_off', channel=8, note=35, velocity=95, time=240),
    Message('note_on', channel=8, note=35, velocity=95, time=0),
    Message('note_off', channel=8, note=35, velocity=95, time=240),
    Message('note_on', channel=8, note=39, velocity=95, time=480),
    Message('note_off', channel=8, note=39, velocity=95, time=240),
    Message('note_on', channel=8, note=39, velocity=95, time=0),
    Message('note_off', channel=8, note=39, velocity=95, time=240),
    Message('note_on', channel=8, note=39, velocity=95, time=0),
    Message('note_off', channel=8, note=39, velocity=95, time=240),
    Message('note_on', channel=8, note=39, velocity=95, time=0),
    Message('note_off', channel=8, note=39, velocity=95, time=240),
    Message('note_on', channel=8, note=42, velocity=95, time=240),
    Message('note_off', channel=8, note=42, velocity=95, time=240),
    Message('note_on', channel=10, note=42, velocity=95, time=0),
    Message('note_off', channel=10, note=42, velocity=95, time=480),
    Message('note_on', channel=8, note=30, velocity=95, time=0),
    Message('note_off', channel=8, note=30, velocity=95, time=2880),
    Message('note_on', channel=8, note=37, velocity=95, time=1440),
    Message('note_off', channel=8, note=37, velocity=95, time=720),
    Message('note_on', channel=8, note=35, velocity=95, time=0),
    Message('note_off', channel=8, note=35, velocity=95, time=960),
    Message('note_on', channel=10, note=38, velocity=95, time=0),
    Message('note_off', channel=10, note=38, velocity=95, time=1440),
    Message('note_on', channel=8, note=37, velocity=95, time=720),
    Message('note_off', channel=8, note=37, velocity=95, time=960),
    Message('note_on', channel=10, note=40, velocity=95, time=0),
    Message('pitchwheel', channel=10, pitch=-128, time=120),
    Message('pitchwheel', channel=10, pitch=-384, time=120),
    Message('pitchwheel', channel=10, pitch=-640, time=120),
    Message('pitchwheel', channel=10, pitch=-896, time=120),
    Message('pitchwheel', channel=10, pitch=-1152, time=120),
    Message('pitchwheel', channel=10, pitch=-1408, time=120),
    Message('pitchwheel', channel=10, pitch=0, time=0),
    Message('note_off', channel=10, note=40, velocity=95, time=0),
    Message('note_on', channel=8, note=38, velocity=95, time=0),
    Message('note_off', channel=8, note=38, velocity=95, time=1440),
    Message('note_on', channel=8, note=37, velocity=95, time=720),
    Message('note_off', channel=8, note=37, velocity=95, time=720),
    Message('note_on', channel=8, note=35, velocity=95, time=0),
    Message('note_off', channel=8, note=35, velocity=95, time=960),
    Message('note_on', channel=10, note=38, velocity=95, time=0),
    Message('note_off', channel=10, note=38, velocity=95, time=1440),
    Message('note_on', channel=8, note=37, velocity=95, time=720),
    Message('note_off', channel=8, note=37, velocity=95, time=960),
    Message('note_on', channel=10, note=40, velocity=95, time=0),
    Message('pitchwheel', channel=10, pitch=-128, time=120),
    Message('pitchwheel', channel=10, pitch=-384, time=120),
    Message('pitchwheel', channel=10, pitch=-640, time=120),
    Message('pitchwheel', channel=10, pitch=-896, time=120),
    Message('pitchwheel', channel=10, pitch=-1152, time=120),
    Message('pitchwheel', channel=10, pitch=-1408, time=120),
    Message('pitchwheel', channel=10, pitch=0, time=0),
    Message('note_off', channel=10, note=40, velocity=95, time=0),
    Message('note_on', channel=8, note=38, velocity=95, time=0),
    Message('note_off', channel=8, note=38, velocity=95, time=1440),
    Message('note_on', channel=8, note=39, velocity=95, time=720),
    Message('note_off', channel=8, note=39, velocity=95, time=720),
    Message('note_on', channel=8, note=37, velocity=95, time=0),
    Message('note_off', channel=8, note=37, velocity=95, time=960),
    Message('note_on', channel=10, note=40, velocity=95, time=0),
    Message('note_off', channel=10, note=40, velocity=95, time=1440),
    Message('note_on', channel=8, note=39, velocity=95, time=720),
    Message('note_off', channel=8, note=39, velocity=95, time=960),
    Message('note_on', channel=10, note=42, velocity=95, time=0),
    Message('pitchwheel', channel=10, pitch=-128, time=120),
    Message('pitchwheel', channel=10, pitch=-384, time=120),
    Message('pitchwheel', channel=10, pitch=-640, time=120),
    Message('pitchwheel', channel=10, pitch=-896, time=120),
    Message('pitchwheel', channel=10, pitch=-1152, time=120),
    Message('pitchwheel', channel=10, pitch=-1408, time=120),
    Message('pitchwheel', channel=10, pitch=0, time=0),
    Message('note_off', channel=10, note=42, velocity=95, time=0),
    Message('note_on', channel=8, note=40, velocity=95, time=0),
    Message('note_off', channel=8, note=40, velocity=95, time=1440),
    Message('note_on', channel=8, note=39, velocity=95, time=720),
    Message('note_off', channel=8, note=39, velocity=95, time=720),
    Message('note_on', channel=8, note=37, velocity=95, time=0),
    Message('note_off', channel=8, note=37, velocity=95, time=960),
    Message('note_on', channel=10, note=40, velocity=95, time=0),
    Message('note_off', channel=10, note=40, velocity=95, time=1440),
    Message('note_on', channel=8, note=39, velocity=95, time=720),
    Message('note_off', channel=8, note=39, velocity=95, time=960),
    Message('note_on', channel=10, note=42, velocity=95, time=0),
    Message('pitchwheel', channel=10, pitch=-128, time=120),
    Message('pitchwheel', channel=10, pitch=-384, time=120),
    Message('pitchwheel', channel=10, pitch=-640, time=120),
    Message('pitchwheel', channel=10, pitch=-896, time=120),
    Message('pitchwheel', channel=10, pitch=-1152, time=120),
    Message('pitchwheel', channel=10, pitch=-1408, time=120),
    Message('pitchwheel', channel=10, pitch=0, time=0),
    Message('note_off', channel=10, note=42, velocity=95, time=0),
    Message('note_on', channel=8, note=40, velocity=95, time=0),
    Message('note_off', channel=8, note=40, velocity=95, time=1440),
    Message('note_on', channel=10, note=40, velocity=95, time=240),
    Message('pitchwheel', channel=10, pitch=0, time=120),
    Message('pitchwheel', channel=10, pitch=0, time=120),
    Message('pitchwheel', channel=10, pitch=0, time=120),
    Message('pitchwheel', channel=10, pitch=0, time=120),
    Message('pitchwheel', channel=10, pitch=0, time=120),
    Message('pitchwheel', channel=10, pitch=0, time=120),
    Message('pitchwheel', channel=10, pitch=0, time=120),
    Message('pitchwheel', channel=10, pitch=0, time=120),
    Message('pitchwheel', channel=10, pitch=0, time=0),
    Message('note_on', channel=8, note=28, velocity=95, time=0),
    Message('note_off', channel=10, note=40, velocity=95, time=960),
    Message('note_off', channel=8, note=28, velocity=95, time=0),
    Message('note_on', channel=8, note=31, velocity=95, time=0),
    Message('note_off', channel=8, note=31, velocity=95, time=480),
    Message('note_on', channel=8, note=31, velocity=95, time=0),
    Message('note_off', channel=8, note=31, velocity=95, time=240),
    Message('note_on', channel=8, note=31, velocity=95, time=0),
    Message('note_off', channel=8, note=31, velocity=95, time=240),
    Message('note_on', channel=8, note=31, velocity=95, time=0),
    Message('note_off', channel=8, note=31, velocity=95, time=240),
    Message('note_on', channel=8, note=31, velocity=95, time=0),
    Message('note_off', channel=8, note=31, velocity=95, time=240),
    Message('note_on', channel=8, note=31, velocity=95, time=0),
    Message('note_off', channel=8, note=31, velocity=95, time=240),
    Message('note_on', channel=8, note=31, velocity=95, time=0),
    Message('note_off', channel=8, note=31, velocity=95, time=240),
    Message('note_on', channel=8, note=38, velocity=95, time=0),
    Message('note_off', channel=8, note=38, velocity=95, time=480),
    Message('note_on', channel=8, note=38, velocity=95, time=0),
    Message('note_off', channel=8, note=38, velocity=95, time=240),
    Message('note_on', channel=8, note=38, velocity=95, time=0),
    Message('note_off', channel=8, note=38, velocity=95, time=240),
    Message('note_on', channel=8, note=38, velocity=95, time=0),
    Message('note_off', channel=8, note=38, velocity=95, time=240),
    Message('note_on', channel=8, note=38, velocity=95, time=0),
    Message('note_off', channel=8, note=38, velocity=95, time=240),
    Message('note_on', channel=8, note=38, velocity=95, time=0),
    Message('note_off', channel=8, note=38, velocity=95, time=240),
    Message('note_on', channel=8, note=38, velocity=95, time=0),
    Message('note_off', channel=8, note=38, velocity=95, time=240),
    Message('note_on', channel=8, note=33, velocity=95, time=0),
    Message('note_off', channel=8, note=33, velocity=95, time=720),
    Message('note_on', channel=8, note=33, velocity=95, time=0),
    Message('note_off', channel=8, note=33, velocity=95, time=240),
    Message('note_on', channel=8, note=33, velocity=95, time=0),
    Message('note_off', channel=8, note=33, velocity=95, time=960),
    Message('note_on', channel=10, note=40, velocity=95, time=0),
    Message('pitchwheel', channel=10, pitch=0, time=120),
    Message('pitchwheel', channel=10, pitch=0, time=120),
    Message('pitchwheel', channel=10, pitch=0, time=120),
    Message('pitchwheel', channel=10, pitch=0, time=120),
    Message('pitchwheel', channel=10, pitch=0, time=120),
    Message('pitchwheel', channel=10, pitch=0, time=120),
    Message('pitchwheel', channel=10, pitch=0, time=120),
    Message('pitchwheel', channel=10, pitch=0, time=120),
    Message('pitchwheel', channel=10, pitch=0, time=0),
    Message('note_on', channel=8, note=28, velocity=95, time=0),
    Message('note_off', channel=10, note=40, velocity=95, time=960),
    Message('note_off', channel=8, note=28, velocity=95, time=0),
    Message('note_on', channel=8, note=31, velocity=95, time=0),
    Message('note_off', channel=8, note=31, velocity=95, time=480),
    Message('note_on', channel=8, note=31, velocity=95, time=0),
    Message('note_off', channel=8, note=31, velocity=95, time=240),
    Message('note_on', channel=8, note=31, velocity=95, time=0),
    Message('note_off', channel=8, note=31, velocity=95, time=240),
    Message('note_on', channel=8, note=31, velocity=95, time=0),
    Message('note_off', channel=8, note=31, velocity=95, time=240),
    Message('note_on', channel=8, note=31, velocity=95, time=0),
    Message('note_off', channel=8, note=31, velocity=95, time=240),
    Message('note_on', channel=8, note=31, velocity=95, time=0),
    Message('note_off', channel=8, note=31, velocity=95, time=240),
    Message('note_on', channel=8, note=31, velocity=95, time=0),
    Message('note_off', channel=8, note=31, velocity=95, time=240),
    Message('note_on', channel=8, note=38, velocity=95, time=0),
    Message('note_off', channel=8, note=38, velocity=95, time=480),
    Message('note_on', channel=8, note=38, velocity=95, time=0),
    Message('note_off', channel=8, note=38, velocity=95, time=240),
    Message('note_on', channel=8, note=38, velocity=95, time=0),
    Message('note_off', channel=8, note=38, velocity=95, time=240),
    Message('note_on', channel=8, note=38, velocity=95, time=0),
    Message('note_off', channel=8, note=38, velocity=95, time=240),
    Message('note_on', channel=8, note=38, velocity=95, time=0),
    Message('note_off', channel=8, note=38, velocity=95, time=240),
    Message('note_on', channel=8, note=38, velocity=95, time=0),
    Message('note_off', channel=8, note=38, velocity=95, time=240),
    Message('note_on', channel=8, note=38, velocity=95, time=0),
    Message('note_off', channel=8, note=38, velocity=95, time=240),
    Message('note_on', channel=8, note=33, velocity=95, time=0),
    Message('note_off', channel=8, note=33, velocity=95, time=720),
    Message('note_on', channel=8, note=33, velocity=95, time=0),
    Message('note_off', channel=8, note=33, velocity=95, time=240),
    Message('note_on', channel=8, note=33, velocity=95, time=0),
    Message('note_off', channel=8, note=33, velocity=95, time=960),
    Message('note_on', channel=10, note=40, velocity=95, time=0),
    Message('pitchwheel', channel=10, pitch=0, time=120),
    Message('pitchwheel', channel=10, pitch=0, time=120),
    Message('pitchwheel', channel=10, pitch=0, time=120),
    Message('pitchwheel', channel=10, pitch=0, time=120),
    Message('pitchwheel', channel=10, pitch=0, time=120),
    Message('pitchwheel', channel=10, pitch=0, time=120),
    Message('pitchwheel', channel=10, pitch=0, time=120),
    Message('pitchwheel', channel=10, pitch=0, time=120),
    Message('pitchwheel', channel=10, pitch=0, time=0),
    Message('note_on', channel=8, note=28, velocity=95, time=0),
    Message('note_off', channel=10, note=40, velocity=95, time=960),
    Message('note_off', channel=8, note=28, velocity=95, time=0),
    Message('note_on', channel=8, note=31, velocity=95, time=0),
    Message('note_off', channel=8, note=31, velocity=95, time=480),
    Message('note_on', channel=8, note=31, velocity=95, time=0),
    Message('note_off', channel=8, note=31, velocity=95, time=240),
    Message('note_on', channel=8, note=31, velocity=95, time=0),
    Message('note_off', channel=8, note=31, velocity=95, time=240),
    Message('note_on', channel=8, note=31, velocity=95, time=0),
    Message('note_off', channel=8, note=31, velocity=95, time=240),
    Message('note_on', channel=8, note=31, velocity=95, time=0),
    Message('note_off', channel=8, note=31, velocity=95, time=240),
    Message('note_on', channel=8, note=31, velocity=95, time=0),
    Message('note_off', channel=8, note=31, velocity=95, time=240),
    Message('note_on', channel=8, note=31, velocity=95, time=0),
    Message('note_off', channel=8, note=31, velocity=95, time=240),
    Message('note_on', channel=8, note=38, velocity=95, time=0),
    Message('note_off', channel=8, note=38, velocity=95, time=480),
    Message('note_on', channel=8, note=38, velocity=95, time=0),
    Message('note_off', channel=8, note=38, velocity=95, time=240),
    Message('note_on', channel=8, note=38, velocity=95, time=0),
    Message('note_off', channel=8, note=38, velocity=95, time=240),
    Message('note_on', channel=8, note=38, velocity=95, time=0),
    Message('note_off', channel=8, note=38, velocity=95, time=240),
    Message('note_on', channel=8, note=38, velocity=95, time=0),
    Message('note_off', channel=8, note=38, velocity=95, time=240),
    Message('note_on', channel=8, note=38, velocity=95, time=0),
    Message('note_off', channel=8, note=38, velocity=95, time=240),
    Message('note_on', channel=8, note=38, velocity=95, time=0),
    Message('note_off', channel=8, note=38, velocity=95, time=240),
    Message('note_on', channel=8, note=33, velocity=95, time=0),
    Message('note_off', channel=8, note=33, velocity=95, time=720),
    Message('note_on', channel=8, note=33, velocity=95, time=0),
    Message('note_off', channel=8, note=33, velocity=95, time=240),
    Message('note_on', channel=8, note=33, velocity=95, time=0),
    Message('note_off', channel=8, note=33, velocity=95, time=960),
    Message('note_on', channel=10, note=40, velocity=95, time=0),
    Message('pitchwheel', channel=10, pitch=0, time=120),
    Message('pitchwheel', channel=10, pitch=0, time=120),
    Message('pitchwheel', channel=10, pitch=0, time=120),
    Message('pitchwheel', channel=10, pitch=0, time=120),
    Message('pitchwheel', channel=10, pitch=0, time=120),
    Message('pitchwheel', channel=10, pitch=0, time=120),
    Message('pitchwheel', channel=10, pitch=0, time=120),
    Message('pitchwheel', channel=10, pitch=0, time=120),
    Message('pitchwheel', channel=10, pitch=0, time=0),
    Message('note_on', channel=8, note=28, velocity=95, time=0),
    Message('note_off', channel=10, note=40, velocity=95, time=960),
    Message('note_off', channel=8, note=28, velocity=95, time=0),
    Message('note_on', channel=8, note=31, velocity=95, time=0),
    Message('note_off', channel=8, note=31, velocity=95, time=480),
    Message('note_on', channel=8, note=31, velocity=95, time=0),
    Message('note_off', channel=8, note=31, velocity=95, time=240),
    Message('note_on', channel=8, note=31, velocity=95, time=0),
    Message('note_off', channel=8, note=31, velocity=95, time=240),
    Message('note_on', channel=8, note=31, velocity=95, time=0),
    Message('note_off', channel=8, note=31, velocity=95, time=240),
    Message('note_on', channel=8, note=31, velocity=95, time=0),
    Message('note_off', channel=8, note=31, velocity=95, time=240),
    Message('note_on', channel=8, note=31, velocity=95, time=0),
    Message('note_off', channel=8, note=31, velocity=95, time=240),
    Message('note_on', channel=8, note=31, velocity=95, time=0),
    Message('note_off', channel=8, note=31, velocity=95, time=240),
    Message('note_on', channel=8, note=38, velocity=95, time=0),
    Message('note_off', channel=8, note=38, velocity=95, time=480),
    Message('note_on', channel=8, note=38, velocity=95, time=0),
    Message('note_off', channel=8, note=38, velocity=95, time=240),
    Message('note_on', channel=8, note=38, velocity=95, time=0),
    Message('note_off', channel=8, note=38, velocity=95, time=240),
    Message('note_on', channel=8, note=38, velocity=95, time=0),
    Message('note_off', channel=8, note=38, velocity=95, time=240),
    Message('note_on', channel=8, note=38, velocity=95, time=0),
    Message('note_off', channel=8, note=38, velocity=95, time=240),
    Message('note_on', channel=8, note=38, velocity=95, time=0),
    Message('note_off', channel=8, note=38, velocity=95, time=240),
    Message('note_on', channel=8, note=38, velocity=95, time=0),
    Message('note_off', channel=8, note=38, velocity=95, time=240),
    Message('note_on', channel=8, note=33, velocity=95, time=0),
    Message('note_off', channel=8, note=33, velocity=95, time=720),
    Message('note_on', channel=8, note=33, velocity=95, time=0),
    Message('note_off', channel=8, note=33, velocity=95, time=240),
    Message('note_on', channel=8, note=33, velocity=95, time=0),
    Message('note_off', channel=8, note=33, velocity=95, time=960),
    Message('note_on', channel=10, note=40, velocity=95, time=0),
    Message('pitchwheel', channel=10, pitch=0, time=120),
    Message('pitchwheel', channel=10, pitch=0, time=120),
    Message('pitchwheel', channel=10, pitch=0, time=120),
    Message('pitchwheel', channel=10, pitch=0, time=120),
    Message('pitchwheel', channel=10, pitch=0, time=120),
    Message('pitchwheel', channel=10, pitch=0, time=120),
    Message('pitchwheel', channel=10, pitch=0, time=120),
    Message('pitchwheel', channel=10, pitch=0, time=120),
    Message('pitchwheel', channel=10, pitch=0, time=0),
    Message('note_on', channel=8, note=28, velocity=95, time=0),
    Message('note_off', channel=10, note=40, velocity=95, time=960),
    Message('note_off', channel=8, note=28, velocity=95, time=0),
    Message('note_on', channel=8, note=31, velocity=95, time=0),
    Message('note_off', channel=8, note=31, velocity=95, time=480),
    Message('note_on', channel=8, note=31, velocity=95, time=0),
    Message('note_off', channel=8, note=31, velocity=95, time=240),
    Message('note_on', channel=8, note=31, velocity=95, time=0),
    Message('note_off', channel=8, note=31, velocity=95, time=240),
    Message('note_on', channel=8, note=31, velocity=95, time=0),
    Message('note_off', channel=8, note=31, velocity=95, time=240),
    Message('note_on', channel=8, note=31, velocity=95, time=0),
    Message('note_off', channel=8, note=31, velocity=95, time=240),
    Message('note_on', channel=8, note=31, velocity=95, time=0),
    Message('note_off', channel=8, note=31, velocity=95, time=240),
    Message('note_on', channel=8, note=31, velocity=95, time=0),
    Message('note_off', channel=8, note=31, velocity=95, time=240),
    Message('note_on', channel=8, note=38, velocity=95, time=0),
    Message('note_off', channel=8, note=38, velocity=95, time=480),
    Message('note_on', channel=8, note=38, velocity=95, time=0),
    Message('note_off', channel=8, note=38, velocity=95, time=240),
    Message('note_on', channel=8, note=38, velocity=95, time=0),
    Message('note_off', channel=8, note=38, velocity=95, time=240),
    Message('note_on', channel=8, note=38, velocity=95, time=0),
    Message('note_off', channel=8, note=38, velocity=95, time=240),
    Message('note_on', channel=8, note=38, velocity=95, time=0),
    Message('note_off', channel=8, note=38, velocity=95, time=240),
    Message('note_on', channel=8, note=38, velocity=95, time=0),
    Message('note_off', channel=8, note=38, velocity=95, time=240),
    Message('note_on', channel=8, note=38, velocity=95, time=0),
    Message('note_off', channel=8, note=38, velocity=95, time=240),
    Message('note_on', channel=8, note=33, velocity=95, time=0),
    Message('note_off', channel=8, note=33, velocity=95, time=720),
    Message('note_on', channel=8, note=33, velocity=95, time=0),
    Message('note_off', channel=8, note=33, velocity=95, time=240),
    Message('note_on', channel=8, note=33, velocity=95, time=0),
    Message('note_off', channel=8, note=33, velocity=95, time=960),
    Message('note_on', channel=10, note=40, velocity=95, time=0),
    Message('pitchwheel', channel=10, pitch=0, time=120),
    Message('pitchwheel', channel=10, pitch=0, time=120),
    Message('pitchwheel', channel=10, pitch=0, time=120),
    Message('pitchwheel', channel=10, pitch=0, time=120),
    Message('pitchwheel', channel=10, pitch=0, time=120),
    Message('pitchwheel', channel=10, pitch=0, time=120),
    Message('pitchwheel', channel=10, pitch=0, time=120),
    Message('pitchwheel', channel=10, pitch=0, time=120),
    Message('pitchwheel', channel=10, pitch=0, time=0),
    Message('note_on', channel=8, note=28, velocity=95, time=0),
    Message('note_off', channel=10, note=40, velocity=95, time=960),
    Message('note_off', channel=8, note=28, velocity=95, time=0),
    Message('note_on', channel=8, note=31, velocity=95, time=0),
    Message('note_off', channel=8, note=31, velocity=95, time=480),
    Message('note_on', channel=8, note=31, velocity=95, time=0),
    Message('note_off', channel=8, note=31, velocity=95, time=240),
    Message('note_on', channel=8, note=31, velocity=95, time=0),
    Message('note_off', channel=8, note=31, velocity=95, time=240),
    Message('note_on', channel=8, note=31, velocity=95, time=0),
    Message('note_off', channel=8, note=31, velocity=95, time=240),
    Message('note_on', channel=8, note=31, velocity=95, time=0),
    Message('note_off', channel=8, note=31, velocity=95, time=240),
    Message('note_on', channel=8, note=31, velocity=95, time=0),
    Message('note_off', channel=8, note=31, velocity=95, time=240),
    Message('note_on', channel=8, note=31, velocity=95, time=0),
    Message('note_off', channel=8, note=31, velocity=95, time=240),
    Message('note_on', channel=8, note=38, velocity=95, time=0),
    Message('note_off', channel=8, note=38, velocity=95, time=480),
    Message('note_on', channel=8, note=38, velocity=95, time=0),
    Message('note_off', channel=8, note=38, velocity=95, time=240),
    Message('note_on', channel=8, note=38, velocity=95, time=0),
    Message('note_off', channel=8, note=38, velocity=95, time=240),
    Message('note_on', channel=8, note=38, velocity=95, time=0),
    Message('note_off', channel=8, note=38, velocity=95, time=240),
    Message('note_on', channel=8, note=38, velocity=95, time=0),
    Message('note_off', channel=8, note=38, velocity=95, time=240),
    Message('note_on', channel=8, note=38, velocity=95, time=0),
    Message('note_off', channel=8, note=38, velocity=95, time=240),
    Message('note_on', channel=8, note=38, velocity=95, time=0),
    Message('note_off', channel=8, note=38, velocity=95, time=240),
    Message('note_on', channel=8, note=33, velocity=95, time=0),
    Message('note_off', channel=8, note=33, velocity=95, time=720),
    Message('note_on', channel=8, note=33, velocity=95, time=0),
    Message('note_off', channel=8, note=33, velocity=95, time=240),
    Message('note_on', channel=8, note=33, velocity=95, time=0),
    Message('note_off', channel=8, note=33, velocity=95, time=960),
    Message('note_on', channel=10, note=40, velocity=95, time=0),
    Message('pitchwheel', channel=10, pitch=0, time=120),
    Message('pitchwheel', channel=10, pitch=0, time=120),
    Message('pitchwheel', channel=10, pitch=0, time=120),
    Message('pitchwheel', channel=10, pitch=0, time=120),
    Message('pitchwheel', channel=10, pitch=0, time=120),
    Message('pitchwheel', channel=10, pitch=0, time=120),
    Message('pitchwheel', channel=10, pitch=0, time=120),
    Message('pitchwheel', channel=10, pitch=0, time=120),
    Message('pitchwheel', channel=10, pitch=0, time=0),
    Message('note_on', channel=8, note=28, velocity=95, time=0),
    Message('note_off', channel=10, note=40, velocity=95, time=960),
    Message('note_off', channel=8, note=28, velocity=95, time=0),
    Message('note_on', channel=8, note=31, velocity=95, time=0),
    Message('note_off', channel=8, note=31, velocity=95, time=480),
    Message('note_on', channel=8, note=31, velocity=95, time=0),
    Message('note_off', channel=8, note=31, velocity=95, time=240),
    Message('note_on', channel=8, note=31, velocity=95, time=0),
    Message('note_off', channel=8, note=31, velocity=95, time=240),
    Message('note_on', channel=8, note=31, velocity=95, time=0),
    Message('note_off', channel=8, note=31, velocity=95, time=240),
    Message('note_on', channel=8, note=31, velocity=95, time=0),
    Message('note_off', channel=8, note=31, velocity=95, time=240),
    Message('note_on', channel=8, note=31, velocity=95, time=0),
    Message('note_off', channel=8, note=31, velocity=95, time=240),
    Message('note_on', channel=8, note=31, velocity=95, time=0),
    Message('note_off', channel=8, note=31, velocity=95, time=240),
    Message('note_on', channel=8, note=38, velocity=95, time=0),
    Message('note_off', channel=8, note=38, velocity=95, time=480),
    Message('note_on', channel=8, note=38, velocity=95, time=0),
    Message('note_off', channel=8, note=38, velocity=95, time=240),
    Message('note_on', channel=8, note=38, velocity=95, time=0),
    Message('note_off', channel=8, note=38, velocity=95, time=240),
    Message('note_on', channel=8, note=38, velocity=95, time=0),
    Message('note_off', channel=8, note=38, velocity=95, time=240),
    Message('note_on', channel=8, note=38, velocity=95, time=0),
    Message('note_off', channel=8, note=38, velocity=95, time=240),
    Message('note_on', channel=8, note=38, velocity=95, time=0),
    Message('note_off', channel=8, note=38, velocity=95, time=240),
    Message('note_on', channel=8, note=38, velocity=95, time=0),
    Message('note_off', channel=8, note=38, velocity=95, time=240),
    Message('note_on', channel=8, note=33, velocity=95, time=0),
    Message('note_off', channel=8, note=33, velocity=95, time=720),
    Message('note_on', channel=8, note=33, velocity=95, time=0),
    Message('note_off', channel=8, note=33, velocity=95, time=240),
    Message('note_on', channel=8, note=33, velocity=95, time=0),
    Message('note_off', channel=8, note=33, velocity=95, time=960),
    Message('note_on', channel=10, note=40, velocity=95, time=0),
    Message('pitchwheel', channel=10, pitch=0, time=120),
    Message('pitchwheel', channel=10, pitch=0, time=120),
    Message('pitchwheel', channel=10, pitch=0, time=120),
    Message('pitchwheel', channel=10, pitch=0, time=120),
    Message('pitchwheel', channel=10, pitch=0, time=120),
    Message('pitchwheel', channel=10, pitch=0, time=120),
    Message('pitchwheel', channel=10, pitch=0, time=120),
    Message('pitchwheel', channel=10, pitch=0, time=120),
    Message('pitchwheel', channel=10, pitch=0, time=0),
    Message('note_on', channel=8, note=28, velocity=95, time=0),
    Message('note_off', channel=10, note=40, velocity=95, time=960),
    Message('note_off', channel=8, note=28, velocity=95, time=0),
    Message('note_on', channel=8, note=31, velocity=95, time=0),
    Message('note_off', channel=8, note=31, velocity=95, time=480),
    Message('note_on', channel=8, note=31, velocity=95, time=0),
    Message('note_off', channel=8, note=31, velocity=95, time=240),
    Message('note_on', channel=8, note=31, velocity=95, time=0),
    Message('note_off', channel=8, note=31, velocity=95, time=240),
    Message('note_on', channel=8, note=31, velocity=95, time=0),
    Message('note_off', channel=8, note=31, velocity=95, time=240),
    Message('note_on', channel=8, note=31, velocity=95, time=0),
    Message('note_off', channel=8, note=31, velocity=95, time=240),
    Message('note_on', channel=8, note=31, velocity=95, time=0),
    Message('note_off', channel=8, note=31, velocity=95, time=240),
    Message('note_on', channel=8, note=31, velocity=95, time=0),
    Message('note_off', channel=8, note=31, velocity=95, time=240),
    Message('note_on', channel=8, note=38, velocity=95, time=0),
    Message('note_off', channel=8, note=38, velocity=95, time=480),
    Message('note_on', channel=8, note=38, velocity=95, time=0),
    Message('note_off', channel=8, note=38, velocity=95, time=240),
    Message('note_on', channel=8, note=38, velocity=95, time=0),
    Message('note_off', channel=8, note=38, velocity=95, time=240),
    Message('note_on', channel=8, note=38, velocity=95, time=0),
    Message('note_off', channel=8, note=38, velocity=95, time=240),
    Message('note_on', channel=8, note=38, velocity=95, time=0),
    Message('note_off', channel=8, note=38, velocity=95, time=240),
    Message('note_on', channel=8, note=38, velocity=95, time=0),
    Message('note_off', channel=8, note=38, velocity=95, time=240),
    Message('note_on', channel=8, note=38, velocity=95, time=0),
    Message('note_off', channel=8, note=38, velocity=95, time=240),
    Message('note_on', channel=8, note=33, velocity=95, time=0),
    Message('note_off', channel=8, note=33, velocity=95, time=720),
    Message('note_on', channel=8, note=33, velocity=95, time=0),
    Message('note_off', channel=8, note=33, velocity=95, time=240),
    Message('note_on', channel=8, note=33, velocity=95, time=0),
    Message('note_off', channel=8, note=33, velocity=95, time=960),
    Message('note_on', channel=10, note=40, velocity=95, time=0),
    Message('pitchwheel', channel=10, pitch=0, time=120),
    Message('pitchwheel', channel=10, pitch=0, time=120),
    Message('pitchwheel', channel=10, pitch=0, time=120),
    Message('pitchwheel', channel=10, pitch=0, time=120),
    Message('pitchwheel', channel=10, pitch=0, time=120),
    Message('pitchwheel', channel=10, pitch=0, time=120),
    Message('pitchwheel', channel=10, pitch=0, time=120),
    Message('pitchwheel', channel=10, pitch=0, time=120),
    Message('pitchwheel', channel=10, pitch=0, time=0),
    Message('note_on', channel=8, note=28, velocity=95, time=0),
    Message('note_off', channel=10, note=40, velocity=95, time=960),
    Message('note_off', channel=8, note=28, velocity=95, time=0),
    Message('note_on', channel=8, note=31, velocity=95, time=0),
    Message('note_off', channel=8, note=31, velocity=95, time=480),
    Message('note_on', channel=8, note=31, velocity=95, time=0),
    Message('note_off', channel=8, note=31, velocity=95, time=240),
    Message('note_on', channel=8, note=31, velocity=95, time=0),
    Message('note_off', channel=8, note=31, velocity=95, time=240),
    Message('note_on', channel=8, note=31, velocity=95, time=0),
    Message('note_off', channel=8, note=31, velocity=95, time=240),
    Message('note_on', channel=8, note=31, velocity=95, time=0),
    Message('note_off', channel=8, note=31, velocity=95, time=240),
    Message('note_on', channel=8, note=31, velocity=95, time=0),
    Message('note_off', channel=8, note=31, velocity=95, time=240),
    Message('note_on', channel=8, note=31, velocity=95, time=0),
    Message('note_off', channel=8, note=31, velocity=95, time=240),
    Message('note_on', channel=8, note=38, velocity=95, time=0),
    Message('note_off', channel=8, note=38, velocity=95, time=480),
    Message('note_on', channel=8, note=38, velocity=95, time=0),
    Message('note_off', channel=8, note=38, velocity=95, time=240),
    Message('note_on', channel=8, note=38, velocity=95, time=0),
    Message('note_off', channel=8, note=38, velocity=95, time=240),
    Message('note_on', channel=8, note=38, velocity=95, time=0),
    Message('note_off', channel=8, note=38, velocity=95, time=240),
    Message('note_on', channel=8, note=38, velocity=95, time=0),
    Message('note_off', channel=8, note=38, velocity=95, time=240),
    Message('note_on', channel=8, note=38, velocity=95, time=0),
    Message('note_off', channel=8, note=38, velocity=95, time=240),
    Message('note_on', channel=8, note=38, velocity=95, time=0),
    Message('note_off', channel=8, note=38, velocity=95, time=240),
    Message('note_on', channel=8, note=33, velocity=95, time=0),
    Message('note_off', channel=8, note=33, velocity=95, time=720),
    Message('note_on', channel=8, note=33, velocity=95, time=0),
    Message('note_off', channel=8, note=33, velocity=95, time=240),
    Message('note_on', channel=8, note=33, velocity=95, time=0),
    Message('note_off', channel=8, note=33, velocity=95, time=960),
    Message('note_on', channel=10, note=40, velocity=95, time=0),
    Message('pitchwheel', channel=10, pitch=0, time=120),
    Message('pitchwheel', channel=10, pitch=0, time=120),
    Message('pitchwheel', channel=10, pitch=0, time=120),
    Message('pitchwheel', channel=10, pitch=0, time=120),
    Message('pitchwheel', channel=10, pitch=0, time=120),
    Message('pitchwheel', channel=10, pitch=0, time=120),
    Message('pitchwheel', channel=10, pitch=0, time=120),
    Message('pitchwheel', channel=10, pitch=0, time=120),
    Message('pitchwheel', channel=10, pitch=0, time=0),
    Message('note_on', channel=8, note=28, velocity=95, time=0),
    Message('note_off', channel=10, note=40, velocity=95, time=960),
    Message('note_off', channel=8, note=28, velocity=95, time=0),
    Message('note_on', channel=8, note=31, velocity=95, time=0),
    Message('note_off', channel=8, note=31, velocity=95, time=480),
    Message('note_on', channel=8, note=31, velocity=95, time=0),
    Message('note_off', channel=8, note=31, velocity=95, time=240),
    Message('note_on', channel=8, note=31, velocity=95, time=0),
    Message('note_off', channel=8, note=31, velocity=95, time=240),
    Message('note_on', channel=8, note=31, velocity=95, time=0),
    Message('note_off', channel=8, note=31, velocity=95, time=240),
    Message('note_on', channel=8, note=31, velocity=95, time=0),
    Message('note_off', channel=8, note=31, velocity=95, time=240),
    Message('note_on', channel=8, note=31, velocity=95, time=0),
    Message('note_off', channel=8, note=31, velocity=95, time=240),
    Message('note_on', channel=8, note=31, velocity=95, time=0),
    Message('note_off', channel=8, note=31, velocity=95, time=240),
    Message('note_on', channel=8, note=38, velocity=95, time=0),
    Message('note_off', channel=8, note=38, velocity=95, time=480),
    Message('note_on', channel=8, note=38, velocity=95, time=0),
    Message('note_off', channel=8, note=38, velocity=95, time=240),
    Message('note_on', channel=8, note=38, velocity=95, time=0),
    Message('note_off', channel=8, note=38, velocity=95, time=240),
    Message('note_on', channel=8, note=38, velocity=95, time=0),
    Message('note_off', channel=8, note=38, velocity=95, time=240),
    Message('note_on', channel=8, note=38, velocity=95, time=0),
    Message('note_off', channel=8, note=38, velocity=95, time=240),
    Message('note_on', channel=8, note=38, velocity=95, time=0),
    Message('note_off', channel=8, note=38, velocity=95, time=240),
    Message('note_on', channel=8, note=38, velocity=95, time=0),
    Message('note_off', channel=8, note=38, velocity=95, time=240),
    Message('note_on', channel=8, note=33, velocity=95, time=0),
    Message('note_off', channel=8, note=33, velocity=95, time=720),
    Message('note_on', channel=8, note=33, velocity=95, time=0),
    Message('note_off', channel=8, note=33, velocity=95, time=240),
    Message('note_on', channel=8, note=33, velocity=95, time=0),
    Message('note_off', channel=8, note=33, velocity=95, time=960),
    Message('note_on', channel=8, note=40, velocity=95, time=0),
    Message('note_off', channel=8, note=40, velocity=95, time=480),
    Message('note_on', channel=8, note=40, velocity=95, time=0),
    Message('note_off', channel=8, note=40, velocity=95, time=240),
    Message('note_on', channel=8, note=40, velocity=95, time=0),
    Message('note_off', channel=8, note=40, velocity=95, time=240),
    Message('note_on', channel=8, note=40, velocity=95, time=0),
    Message('note_off', channel=8, note=40, velocity=95, time=240),
    Message('note_on', channel=8, note=40, velocity=95, time=0),
    Message('note_off', channel=8, note=40, velocity=95, time=240),
    Message('note_on', channel=8, note=40, velocity=95, time=0),
    Message('note_off', channel=8, note=40, velocity=95, time=240),
    Message('note_on', channel=8, note=40, velocity=95, time=0),
    Message('note_off', channel=8, note=40, velocity=95, time=240),
    Message('note_on', channel=8, note=31, velocity=95, time=0),
    Message('note_off', channel=8, note=31, velocity=95, time=480),
    Message('note_on', channel=8, note=31, velocity=95, time=0),
    Message('note_off', channel=8, note=31, velocity=95, time=240),
    Message('note_on', channel=8, note=31, velocity=95, time=0),
    Message('note_off', channel=8, note=31, velocity=95, time=240),
    Message('note_on', channel=8, note=31, velocity=95, time=0),
    Message('note_off', channel=8, note=31, velocity=95, time=240),
    Message('note_on', channel=8, note=31, velocity=95, time=0),
    Message('note_off', channel=8, note=31, velocity=95, time=240),
    Message('note_on', channel=8, note=31, velocity=95, time=0),
    Message('note_off', channel=8, note=31, velocity=95, time=240),
    Message('note_on', channel=8, note=31, velocity=95, time=0),
    Message('note_off', channel=8, note=31, velocity=95, time=240),
    Message('note_on', channel=8, note=38, velocity=95, time=0),
    Message('note_off', channel=8, note=38, velocity=95, time=480),
    Message('note_on', channel=8, note=38, velocity=95, time=0),
    Message('note_off', channel=8, note=38, velocity=95, time=240),
    Message('note_on', channel=8, note=38, velocity=95, time=0),
    Message('note_off', channel=8, note=38, velocity=95, time=240),
    Message('note_on', channel=8, note=38, velocity=95, time=0),
    Message('note_off', channel=8, note=38, velocity=95, time=240),
    Message('note_on', channel=8, note=38, velocity=95, time=0),
    Message('note_off', channel=8, note=38, velocity=95, time=240),
    Message('note_on', channel=8, note=38, velocity=95, time=0),
    Message('note_off', channel=8, note=38, velocity=95, time=240),
    Message('note_on', channel=8, note=38, velocity=95, time=0),
    Message('note_off', channel=8, note=38, velocity=95, time=240),
    Message('note_on', channel=8, note=33, velocity=95, time=0),
    Message('note_off', channel=8, note=33, velocity=95, time=480),
    Message('note_on', channel=8, note=33, velocity=95, time=0),
    Message('note_off', channel=8, note=33, velocity=95, time=240),
    Message('note_on', channel=8, note=33, velocity=95, time=0),
    Message('note_off', channel=8, note=33, velocity=95, time=240),
    Message('note_on', channel=8, note=33, velocity=95, time=0),
    Message('note_off', channel=8, note=33, velocity=95, time=240),
    Message('note_on', channel=8, note=33, velocity=95, time=0),
    Message('note_off', channel=8, note=33, velocity=95, time=240),
    Message('note_on', channel=8, note=33, velocity=95, time=0),
    Message('note_off', channel=8, note=33, velocity=95, time=240),
    Message('note_on', channel=8, note=33, velocity=95, time=0),
    Message('note_off', channel=8, note=33, velocity=95, time=240),
    Message('note_on', channel=8, note=40, velocity=95, time=0),
    Message('note_off', channel=8, note=40, velocity=95, time=480),
    Message('note_on', channel=8, note=40, velocity=95, time=0),
    Message('note_off', channel=8, note=40, velocity=95, time=240),
    Message('note_on', channel=8, note=40, velocity=95, time=0),
    Message('note_off', channel=8, note=40, velocity=95, time=240),
    Message('note_on', channel=8, note=40, velocity=95, time=0),
    Message('note_off', channel=8, note=40, velocity=95, time=240),
    Message('note_on', channel=8, note=40, velocity=95, time=0),
    Message('note_off', channel=8, note=40, velocity=95, time=240),
    Message('note_on', channel=8, note=40, velocity=95, time=0),
    Message('note_off', channel=8, note=40, velocity=95, time=240),
    Message('note_on', channel=8, note=40, velocity=95, time=0),
    Message('note_off', channel=8, note=40, velocity=95, time=240),
    Message('note_on', channel=8, note=31, velocity=95, time=0),
    Message('note_off', channel=8, note=31, velocity=95, time=480),
    Message('note_on', channel=8, note=31, velocity=95, time=0),
    Message('note_off', channel=8, note=31, velocity=95, time=240),
    Message('note_on', channel=8, note=31, velocity=95, time=0),
    Message('note_off', channel=8, note=31, velocity=95, time=240),
    Message('note_on', channel=8, note=31, velocity=95, time=0),
    Message('note_off', channel=8, note=31, velocity=95, time=240),
    Message('note_on', channel=8, note=31, velocity=95, time=0),
    Message('note_off', channel=8, note=31, velocity=95, time=240),
    Message('note_on', channel=8, note=31, velocity=95, time=0),
    Message('note_off', channel=8, note=31, velocity=95, time=240),
    Message('note_on', channel=8, note=31, velocity=95, time=0),
    Message('note_off', channel=8, note=31, velocity=95, time=240),
    Message('note_on', channel=8, note=38, velocity=95, time=0),
    Message('note_off', channel=8, note=38, velocity=95, time=480),
    Message('note_on', channel=8, note=38, velocity=95, time=0),
    Message('note_off', channel=8, note=38, velocity=95, time=240),
    Message('note_on', channel=8, note=38, velocity=95, time=0),
    Message('note_off', channel=8, note=38, velocity=95, time=240),
    Message('note_on', channel=8, note=38, velocity=95, time=0),
    Message('note_off', channel=8, note=38, velocity=95, time=240),
    Message('note_on', channel=8, note=38, velocity=95, time=0),
    Message('note_off', channel=8, note=38, velocity=95, time=240),
    Message('note_on', channel=8, note=38, velocity=95, time=0),
    Message('note_off', channel=8, note=38, velocity=95, time=240),
    Message('note_on', channel=8, note=38, velocity=95, time=0),
    Message('note_off', channel=8, note=38, velocity=95, time=240),
    Message('note_on', channel=8, note=33, velocity=95, time=0),
    Message('note_off', channel=8, note=33, velocity=95, time=480),
    Message('note_on', channel=8, note=33, velocity=95, time=0),
    Message('note_off', channel=8, note=33, velocity=95, time=240),
    Message('note_on', channel=8, note=33, velocity=95, time=0),
    Message('note_off', channel=8, note=33, velocity=95, time=240),
    Message('note_on', channel=8, note=33, velocity=95, time=0),
    Message('note_off', channel=8, note=33, velocity=95, time=240),
    Message('note_on', channel=8, note=33, velocity=95, time=0),
    Message('note_off', channel=8, note=33, velocity=95, time=240),
    Message('note_on', channel=8, note=33, velocity=95, time=0),
    Message('note_off', channel=8, note=33, velocity=95, time=240),
    Message('note_on', channel=8, note=33, velocity=95, time=0),
    Message('note_off', channel=8, note=33, velocity=95, time=240),
    Message('note_on', channel=8, note=40, velocity=95, time=0),
    Message('note_off', channel=8, note=40, velocity=95, time=480),
    Message('note_on', channel=8, note=40, velocity=95, time=0),
    Message('note_off', channel=8, note=40, velocity=95, time=240),
    Message('note_on', channel=8, note=40, velocity=95, time=0),
    Message('note_off', channel=8, note=40, velocity=95, time=240),
    Message('note_on', channel=8, note=40, velocity=95, time=0),
    Message('note_off', channel=8, note=40, velocity=95, time=240),
    Message('note_on', channel=8, note=40, velocity=95, time=0),
    Message('note_off', channel=8, note=40, velocity=95, time=240),
    Message('note_on', channel=8, note=40, velocity=95, time=0),
    Message('note_off', channel=8, note=40, velocity=95, time=240),
    Message('note_on', channel=8, note=40, velocity=95, time=0),
    Message('note_off', channel=8, note=40, velocity=95, time=240),
    Message('note_on', channel=8, note=31, velocity=95, time=0),
    Message('note_off', channel=8, note=31, velocity=95, time=480),
    Message('note_on', channel=8, note=31, velocity=95, time=0),
    Message('note_off', channel=8, note=31, velocity=95, time=240),
    Message('note_on', channel=8, note=31, velocity=95, time=0),
    Message('note_off', channel=8, note=31, velocity=95, time=240),
    Message('note_on', channel=8, note=31, velocity=95, time=0),
    Message('note_off', channel=8, note=31, velocity=95, time=240),
    Message('note_on', channel=8, note=31, velocity=95, time=0),
    Message('note_off', channel=8, note=31, velocity=95, time=240),
    Message('note_on', channel=8, note=31, velocity=95, time=0),
    Message('note_off', channel=8, note=31, velocity=95, time=240),
    Message('note_on', channel=8, note=31, velocity=95, time=0),
    Message('note_off', channel=8, note=31, velocity=95, time=240),
    Message('note_on', channel=8, note=38, velocity=95, time=0),
    Message('note_off', channel=8, note=38, velocity=95, time=480),
    Message('note_on', channel=8, note=38, velocity=95, time=0),
    Message('note_off', channel=8, note=38, velocity=95, time=240),
    Message('note_on', channel=8, note=38, velocity=95, time=0),
    Message('note_off', channel=8, note=38, velocity=95, time=240),
    Message('note_on', channel=8, note=38, velocity=95, time=0),
    Message('note_off', channel=8, note=38, velocity=95, time=240),
    Message('note_on', channel=8, note=38, velocity=95, time=0),
    Message('note_off', channel=8, note=38, velocity=95, time=240),
    Message('note_on', channel=8, note=38, velocity=95, time=0),
    Message('note_off', channel=8, note=38, velocity=95, time=240),
    Message('note_on', channel=8, note=38, velocity=95, time=0),
    Message('note_off', channel=8, note=38, velocity=95, time=240),
    Message('note_on', channel=8, note=33, velocity=95, time=0),
    Message('note_off', channel=8, note=33, velocity=95, time=480),
    Message('note_on', channel=8, note=33, velocity=95, time=0),
    Message('note_off', channel=8, note=33, velocity=95, time=240),
    Message('note_on', channel=8, note=33, velocity=95, time=0),
    Message('note_off', channel=8, note=33, velocity=95, time=240),
    Message('note_on', channel=8, note=33, velocity=95, time=0),
    Message('note_off', channel=8, note=33, velocity=95, time=240),
    Message('note_on', channel=8, note=33, velocity=95, time=0),
    Message('note_off', channel=8, note=33, velocity=95, time=240),
    Message('note_on', channel=8, note=33, velocity=95, time=0),
    Message('note_off', channel=8, note=33, velocity=95, time=240),
    Message('note_on', channel=8, note=33, velocity=95, time=0),
    Message('note_off', channel=8, note=33, velocity=95, time=240),
    Message('note_on', channel=8, note=40, velocity=95, time=0),
    Message('note_off', channel=8, note=40, velocity=95, time=480),
    Message('note_on', channel=8, note=40, velocity=95, time=0),
    Message('note_off', channel=8, note=40, velocity=95, time=240),
    Message('note_on', channel=8, note=40, velocity=95, time=0),
    Message('note_off', channel=8, note=40, velocity=95, time=240),
    Message('note_on', channel=8, note=40, velocity=95, time=0),
    Message('note_off', channel=8, note=40, velocity=95, time=240),
    Message('note_on', channel=8, note=40, velocity=95, time=0),
    Message('note_off', channel=8, note=40, velocity=95, time=240),
    Message('note_on', channel=8, note=40, velocity=95, time=0),
    Message('note_off', channel=8, note=40, velocity=95, time=240),
    Message('note_on', channel=8, note=40, velocity=95, time=0),
    Message('note_off', channel=8, note=40, velocity=95, time=240),
    Message('note_on', channel=8, note=31, velocity=95, time=0),
    Message('note_off', channel=8, note=31, velocity=95, time=480),
    Message('note_on', channel=8, note=31, velocity=95, time=0),
    Message('note_off', channel=8, note=31, velocity=95, time=240),
    Message('note_on', channel=8, note=31, velocity=95, time=0),
    Message('note_off', channel=8, note=31, velocity=95, time=240),
    Message('note_on', channel=8, note=31, velocity=95, time=0),
    Message('note_off', channel=8, note=31, velocity=95, time=240),
    Message('note_on', channel=8, note=31, velocity=95, time=0),
    Message('note_off', channel=8, note=31, velocity=95, time=240),
    Message('note_on', channel=8, note=31, velocity=95, time=0),
    Message('note_off', channel=8, note=31, velocity=95, time=240),
    Message('note_on', channel=8, note=31, velocity=95, time=0),
    Message('note_off', channel=8, note=31, velocity=95, time=240),
    Message('note_on', channel=8, note=38, velocity=95, time=0),
    Message('note_off', channel=8, note=38, velocity=95, time=480),
    Message('note_on', channel=8, note=38, velocity=95, time=0),
    Message('note_off', channel=8, note=38, velocity=95, time=240),
    Message('note_on', channel=8, note=38, velocity=95, time=0),
    Message('note_off', channel=8, note=38, velocity=95, time=240),
    Message('note_on', channel=8, note=38, velocity=95, time=0),
    Message('note_off', channel=8, note=38, velocity=95, time=240),
    Message('note_on', channel=8, note=38, velocity=95, time=0),
    Message('note_off', channel=8, note=38, velocity=95, time=240),
    Message('note_on', channel=8, note=38, velocity=95, time=0),
    Message('note_off', channel=8, note=38, velocity=95, time=240),
    Message('note_on', channel=8, note=38, velocity=95, time=0),
    Message('note_off', channel=8, note=38, velocity=95, time=240),
    Message('note_on', channel=8, note=33, velocity=95, time=0),
    Message('note_off', channel=8, note=33, velocity=95, time=480),
    Message('note_on', channel=8, note=33, velocity=95, time=0),
    Message('note_off', channel=8, note=33, velocity=95, time=240),
    Message('note_on', channel=8, note=33, velocity=95, time=0),
    Message('note_off', channel=8, note=33, velocity=95, time=240),
    Message('note_on', channel=8, note=33, velocity=95, time=0),
    Message('note_off', channel=8, note=33, velocity=95, time=240),
    Message('note_on', channel=8, note=33, velocity=95, time=0),
    Message('note_off', channel=8, note=33, velocity=95, time=240),
    Message('note_on', channel=8, note=33, velocity=95, time=0),
    Message('note_off', channel=8, note=33, velocity=95, time=240),
    Message('note_on', channel=8, note=33, velocity=95, time=0),
    Message('note_off', channel=8, note=33, velocity=95, time=240),
    Message('note_on', channel=8, note=40, velocity=95, time=0),
    Message('note_off', channel=8, note=40, velocity=95, time=480),
    Message('note_on', channel=8, note=40, velocity=95, time=0),
    Message('note_off', channel=8, note=40, velocity=95, time=240),
    Message('note_on', channel=8, note=40, velocity=95, time=0),
    Message('note_off', channel=8, note=40, velocity=95, time=240),
    Message('note_on', channel=8, note=40, velocity=95, time=0),
    Message('note_off', channel=8, note=40, velocity=95, time=240),
    Message('note_on', channel=8, note=40, velocity=95, time=0),
    Message('note_off', channel=8, note=40, velocity=95, time=240),
    Message('note_on', channel=8, note=40, velocity=95, time=0),
    Message('note_off', channel=8, note=40, velocity=95, time=240),
    Message('note_on', channel=8, note=40, velocity=95, time=0),
    Message('note_off', channel=8, note=40, velocity=95, time=240),
    Message('note_on', channel=8, note=43, velocity=95, time=0),
    Message('note_off', channel=8, note=43, velocity=95, time=480),
    Message('note_on', channel=8, note=43, velocity=95, time=0),
    Message('note_off', channel=8, note=43, velocity=95, time=240),
    Message('note_on', channel=8, note=43, velocity=95, time=0),
    Message('note_off', channel=8, note=43, velocity=95, time=240),
    Message('note_on', channel=8, note=43, velocity=95, time=0),
    Message('note_off', channel=8, note=43, velocity=95, time=240),
    Message('note_on', channel=8, note=43, velocity=95, time=0),
    Message('note_off', channel=8, note=43, velocity=95, time=240),
    Message('note_on', channel=8, note=43, velocity=95, time=0),
    Message('note_off', channel=8, note=43, velocity=95, time=240),
    Message('note_on', channel=8, note=43, velocity=95, time=0),
    Message('note_off', channel=8, note=43, velocity=95, time=240),
    Message('note_on', channel=8, note=38, velocity=95, time=0),
    Message('note_off', channel=8, note=38, velocity=95, time=480),
    Message('note_on', channel=8, note=38, velocity=95, time=0),
    Message('note_off', channel=8, note=38, velocity=95, time=240),
    Message('note_on', channel=8, note=38, velocity=95, time=0),
    Message('note_off', channel=8, note=38, velocity=95, time=240),
    Message('note_on', channel=8, note=38, velocity=95, time=0),
    Message('note_off', channel=8, note=38, velocity=95, time=240),
    Message('note_on', channel=8, note=38, velocity=95, time=0),
    Message('note_off', channel=8, note=38, velocity=95, time=240),
    Message('note_on', channel=8, note=38, velocity=95, time=0),
    Message('note_off', channel=8, note=38, velocity=95, time=240),
    Message('note_on', channel=8, note=38, velocity=95, time=0),
    Message('note_off', channel=8, note=38, velocity=95, time=240),
    Message('note_on', channel=8, note=45, velocity=95, time=0),
    Message('note_off', channel=8, note=45, velocity=95, time=480),
    Message('note_on', channel=8, note=45, velocity=95, time=0),
    Message('note_off', channel=8, note=45, velocity=95, time=240),
    Message('note_on', channel=8, note=45, velocity=95, time=0),
    Message('note_off', channel=8, note=45, velocity=95, time=240),
    Message('note_on', channel=8, note=45, velocity=95, time=0),
    Message('note_off', channel=8, note=45, velocity=95, time=240),
    Message('note_on', channel=8, note=45, velocity=95, time=0),
    Message('note_off', channel=8, note=45, velocity=95, time=240),
    Message('note_on', channel=8, note=45, velocity=95, time=0),
    Message('note_off', channel=8, note=45, velocity=95, time=240),
    Message('note_on', channel=8, note=45, velocity=95, time=0),
    Message('note_off', channel=8, note=45, velocity=95, time=240),
    Message('note_on', channel=8, note=40, velocity=95, time=0),
    Message('note_off', channel=8, note=40, velocity=95, time=480),
    Message('note_on', channel=8, note=40, velocity=95, time=0),
    Message('note_off', channel=8, note=40, velocity=95, time=240),
    Message('note_on', channel=8, note=40, velocity=95, time=0),
    Message('note_off', channel=8, note=40, velocity=95, time=240),
    Message('note_on', channel=8, note=40, velocity=95, time=0),
    Message('note_off', channel=8, note=40, velocity=95, time=240),
    Message('note_on', channel=8, note=40, velocity=95, time=0),
    Message('note_off', channel=8, note=40, velocity=95, time=240),
    Message('note_on', channel=8, note=40, velocity=95, time=0),
    Message('note_off', channel=8, note=40, velocity=95, time=240),
    Message('note_on', channel=8, note=40, velocity=95, time=0),
    Message('note_off', channel=8, note=40, velocity=95, time=240),
    Message('note_on', channel=8, note=43, velocity=95, time=0),
    Message('note_off', channel=8, note=43, velocity=95, time=480),
    Message('note_on', channel=8, note=43, velocity=95, time=0),
    Message('note_off', channel=8, note=43, velocity=95, time=240),
    Message('note_on', channel=8, note=43, velocity=95, time=0),
    Message('note_off', channel=8, note=43, velocity=95, time=240),
    Message('note_on', channel=8, note=43, velocity=95, time=0),
    Message('note_off', channel=8, note=43, velocity=95, time=240),
    Message('note_on', channel=8, note=43, velocity=95, time=0),
    Message('note_off', channel=8, note=43, velocity=95, time=240),
    Message('note_on', channel=8, note=43, velocity=95, time=0),
    Message('note_off', channel=8, note=43, velocity=95, time=240),
    Message('note_on', channel=8, note=43, velocity=95, time=0),
    Message('note_off', channel=8, note=43, velocity=95, time=240),
    Message('note_on', channel=8, note=38, velocity=95, time=0),
    Message('note_off', channel=8, note=38, velocity=95, time=480),
    Message('note_on', channel=8, note=38, velocity=95, time=0),
    Message('note_off', channel=8, note=38, velocity=95, time=240),
    Message('note_on', channel=8, note=38, velocity=95, time=0),
    Message('note_off', channel=8, note=38, velocity=95, time=240),
    Message('note_on', channel=8, note=38, velocity=95, time=0),
    Message('note_off', channel=8, note=38, velocity=95, time=240),
    Message('note_on', channel=8, note=38, velocity=95, time=0),
    Message('note_off', channel=8, note=38, velocity=95, time=240),
    Message('note_on', channel=8, note=38, velocity=95, time=0),
    Message('note_off', channel=8, note=38, velocity=95, time=240),
    Message('note_on', channel=8, note=38, velocity=95, time=0),
    Message('note_off', channel=8, note=38, velocity=95, time=240),
    Message('note_on', channel=8, note=45, velocity=95, time=0),
    Message('note_off', channel=8, note=45, velocity=95, time=480),
    Message('note_on', channel=8, note=45, velocity=95, time=0),
    Message('note_off', channel=8, note=45, velocity=95, time=240),
    Message('note_on', channel=8, note=45, velocity=95, time=0),
    Message('note_off', channel=8, note=45, velocity=95, time=240),
    Message('note_on', channel=8, note=45, velocity=95, time=0),
    Message('note_off', channel=8, note=45, velocity=95, time=240),
    Message('note_on', channel=8, note=45, velocity=95, time=0),
    Message('note_off', channel=8, note=45, velocity=95, time=240),
    Message('note_on', channel=8, note=45, velocity=95, time=0),
    Message('note_off', channel=8, note=45, velocity=95, time=240),
    Message('note_on', channel=8, note=45, velocity=95, time=0),
    Message('note_off', channel=8, note=45, velocity=95, time=240),
    Message('note_on', channel=8, note=40, velocity=95, time=0),
    Message('note_off', channel=8, note=40, velocity=95, time=480),
    Message('note_on', channel=8, note=40, velocity=95, time=0),
    Message('note_off', channel=8, note=40, velocity=95, time=240),
    Message('note_on', channel=8, note=40, velocity=95, time=0),
    Message('note_off', channel=8, note=40, velocity=95, time=240),
    Message('note_on', channel=8, note=40, velocity=95, time=0),
    Message('note_off', channel=8, note=40, velocity=95, time=240),
    Message('note_on', channel=8, note=40, velocity=95, time=0),
    Message('note_off', channel=8, note=40, velocity=95, time=240),
    Message('note_on', channel=8, note=40, velocity=95, time=0),
    Message('note_off', channel=8, note=40, velocity=95, time=240),
    Message('note_on', channel=8, note=40, velocity=95, time=0),
    Message('note_off', channel=8, note=40, velocity=95, time=240),
    Message('note_on', channel=8, note=43, velocity=95, time=0),
    Message('note_off', channel=8, note=43, velocity=95, time=480),
    Message('note_on', channel=8, note=43, velocity=95, time=0),
    Message('note_off', channel=8, note=43, velocity=95, time=240),
    Message('note_on', channel=8, note=43, velocity=95, time=0),
    Message('note_off', channel=8, note=43, velocity=95, time=240),
    Message('note_on', channel=8, note=43, velocity=95, time=0),
    Message('note_off', channel=8, note=43, velocity=95, time=240),
    Message('note_on', channel=8, note=43, velocity=95, time=0),
    Message('note_off', channel=8, note=43, velocity=95, time=240),
    Message('note_on', channel=8, note=43, velocity=95, time=0),
    Message('note_off', channel=8, note=43, velocity=95, time=240),
    Message('note_on', channel=8, note=43, velocity=95, time=0),
    Message('note_off', channel=8, note=43, velocity=95, time=240),
    Message('note_on', channel=8, note=38, velocity=95, time=0),
    Message('note_off', channel=8, note=38, velocity=95, time=480),
    Message('note_on', channel=8, note=38, velocity=95, time=0),
    Message('note_off', channel=8, note=38, velocity=95, time=240),
    Message('note_on', channel=8, note=38, velocity=95, time=0),
    Message('note_off', channel=8, note=38, velocity=95, time=240),
    Message('note_on', channel=8, note=38, velocity=95, time=0),
    Message('note_off', channel=8, note=38, velocity=95, time=240),
    Message('note_on', channel=8, note=38, velocity=95, time=0),
    Message('note_off', channel=8, note=38, velocity=95, time=240),
    Message('note_on', channel=8, note=38, velocity=95, time=0),
    Message('note_off', channel=8, note=38, velocity=95, time=240),
    Message('note_on', channel=8, note=38, velocity=95, time=0),
    Message('note_off', channel=8, note=38, velocity=95, time=240),
    Message('note_on', channel=8, note=45, velocity=95, time=0),
    Message('note_off', channel=8, note=45, velocity=95, time=480),
    Message('note_on', channel=8, note=45, velocity=95, time=0),
    Message('note_off', channel=8, note=45, velocity=95, time=240),
    Message('note_on', channel=8, note=45, velocity=95, time=0),
    Message('note_off', channel=8, note=45, velocity=95, time=240),
    Message('note_on', channel=8, note=45, velocity=95, time=0),
    Message('note_off', channel=8, note=45, velocity=95, time=240),
    Message('note_on', channel=8, note=45, velocity=95, time=0),
    Message('note_off', channel=8, note=45, velocity=95, time=240),
    Message('note_on', channel=8, note=45, velocity=95, time=0),
    Message('note_off', channel=8, note=45, velocity=95, time=240),
    Message('note_on', channel=8, note=45, velocity=95, time=0),
    Message('note_off', channel=8, note=45, velocity=95, time=240),
    Message('note_on', channel=8, note=40, velocity=95, time=0),
    Message('note_off', channel=8, note=40, velocity=95, time=480),
    Message('note_on', channel=8, note=40, velocity=95, time=0),
    Message('note_off', channel=8, note=40, velocity=95, time=240),
    Message('note_on', channel=8, note=40, velocity=95, time=0),
    Message('note_off', channel=8, note=40, velocity=95, time=240),
    Message('note_on', channel=8, note=40, velocity=95, time=0),
    Message('note_off', channel=8, note=40, velocity=95, time=240),
    Message('note_on', channel=8, note=40, velocity=95, time=0),
    Message('note_off', channel=8, note=40, velocity=95, time=240),
    Message('note_on', channel=8, note=40, velocity=95, time=0),
    Message('note_off', channel=8, note=40, velocity=95, time=240),
    Message('note_on', channel=8, note=40, velocity=95, time=0),
    Message('note_off', channel=8, note=40, velocity=95, time=240),
    Message('note_on', channel=8, note=43, velocity=95, time=0),
    Message('note_off', channel=8, note=43, velocity=95, time=480),
    Message('note_on', channel=8, note=43, velocity=95, time=0),
    Message('note_off', channel=8, note=43, velocity=95, time=240),
    Message('note_on', channel=8, note=43, velocity=95, time=0),
    Message('note_off', channel=8, note=43, velocity=95, time=240),
    Message('note_on', channel=8, note=43, velocity=95, time=0),
    Message('note_off', channel=8, note=43, velocity=95, time=240),
    Message('note_on', channel=8, note=43, velocity=95, time=0),
    Message('note_off', channel=8, note=43, velocity=95, time=240),
    Message('note_on', channel=8, note=43, velocity=95, time=0),
    Message('note_off', channel=8, note=43, velocity=95, time=240),
    Message('note_on', channel=8, note=43, velocity=95, time=0),
    Message('note_off', channel=8, note=43, velocity=95, time=240),
    Message('note_on', channel=8, note=38, velocity=95, time=0),
    Message('note_off', channel=8, note=38, velocity=95, time=480),
    Message('note_on', channel=8, note=38, velocity=95, time=0),
    Message('note_off', channel=8, note=38, velocity=95, time=240),
    Message('note_on', channel=8, note=38, velocity=95, time=0),
    Message('note_off', channel=8, note=38, velocity=95, time=240),
    Message('note_on', channel=8, note=38, velocity=95, time=0),
    Message('note_off', channel=8, note=38, velocity=95, time=240),
    Message('note_on', channel=8, note=38, velocity=95, time=0),
    Message('note_off', channel=8, note=38, velocity=95, time=240),
    Message('note_on', channel=8, note=38, velocity=95, time=0),
    Message('note_off', channel=8, note=38, velocity=95, time=240),
    Message('note_on', channel=8, note=38, velocity=95, time=0),
    Message('note_off', channel=8, note=38, velocity=95, time=240),
    Message('note_on', channel=8, note=45, velocity=95, time=0),
    Message('note_off', channel=8, note=45, velocity=95, time=480),
    Message('note_on', channel=8, note=45, velocity=95, time=0),
    Message('note_off', channel=8, note=45, velocity=95, time=240),
    Message('note_on', channel=8, note=45, velocity=95, time=0),
    Message('note_off', channel=8, note=45, velocity=95, time=240),
    Message('note_on', channel=8, note=45, velocity=95, time=0),
    Message('note_off', channel=8, note=45, velocity=95, time=240),
    Message('note_on', channel=8, note=45, velocity=95, time=0),
    Message('note_off', channel=8, note=45, velocity=95, time=240),
    Message('note_on', channel=8, note=45, velocity=95, time=0),
    Message('note_off', channel=8, note=45, velocity=95, time=240),
    Message('note_on', channel=8, note=45, velocity=95, time=0),
    Message('note_off', channel=8, note=45, velocity=95, time=240),
    Message('note_on', channel=10, note=40, velocity=95, time=0),
    Message('pitchwheel', channel=10, pitch=0, time=120),
    Message('pitchwheel', channel=10, pitch=0, time=120),
    Message('pitchwheel', channel=10, pitch=0, time=120),
    Message('pitchwheel', channel=10, pitch=0, time=120),
    Message('pitchwheel', channel=10, pitch=0, time=120),
    Message('pitchwheel', channel=10, pitch=0, time=120),
    Message('pitchwheel', channel=10, pitch=0, time=120),
    Message('pitchwheel', channel=10, pitch=0, time=120),
    Message('pitchwheel', channel=10, pitch=0, time=0),
    Message('note_on', channel=8, note=28, velocity=95, time=0),
    Message('note_off', channel=10, note=40, velocity=95, time=960),
    Message('note_off', channel=8, note=28, velocity=95, time=0),
    Message('note_on', channel=8, note=31, velocity=95, time=0),
    Message('note_off', channel=8, note=31, velocity=95, time=480),
    Message('note_on', channel=8, note=31, velocity=95, time=0),
    Message('note_off', channel=8, note=31, velocity=95, time=240),
    Message('note_on', channel=8, note=31, velocity=95, time=0),
    Message('note_off', channel=8, note=31, velocity=95, time=240),
    Message('note_on', channel=8, note=31, velocity=95, time=0),
    Message('note_off', channel=8, note=31, velocity=95, time=240),
    Message('note_on', channel=8, note=31, velocity=95, time=0),
    Message('note_off', channel=8, note=31, velocity=95, time=240),
    Message('note_on', channel=8, note=31, velocity=95, time=0),
    Message('note_off', channel=8, note=31, velocity=95, time=240),
    Message('note_on', channel=8, note=31, velocity=95, time=0),
    Message('note_off', channel=8, note=31, velocity=95, time=240),
    Message('note_on', channel=8, note=38, velocity=95, time=0),
    Message('note_off', channel=8, note=38, velocity=95, time=480),
    Message('note_on', channel=8, note=38, velocity=95, time=0),
    Message('note_off', channel=8, note=38, velocity=95, time=240),
    Message('note_on', channel=8, note=38, velocity=95, time=0),
    Message('note_off', channel=8, note=38, velocity=95, time=240),
    Message('note_on', channel=8, note=38, velocity=95, time=0),
    Message('note_off', channel=8, note=38, velocity=95, time=240),
    Message('note_on', channel=8, note=38, velocity=95, time=0),
    Message('note_off', channel=8, note=38, velocity=95, time=240),
    Message('note_on', channel=8, note=38, velocity=95, time=0),
    Message('note_off', channel=8, note=38, velocity=95, time=240),
    Message('note_on', channel=8, note=38, velocity=95, time=0),
    Message('note_off', channel=8, note=38, velocity=95, time=240),
    Message('note_on', channel=8, note=33, velocity=95, time=0),
    Message('note_off', channel=8, note=33, velocity=95, time=720),
    Message('note_on', channel=8, note=33, velocity=95, time=0),
    Message('note_off', channel=8, note=33, velocity=95, time=240),
    Message('note_on', channel=8, note=33, velocity=95, time=0),
    Message('note_off', channel=8, note=33, velocity=95, time=960),
    Message('note_on', channel=10, note=40, velocity=95, time=0),
    Message('pitchwheel', channel=10, pitch=0, time=120),
    Message('pitchwheel', channel=10, pitch=0, time=120),
    Message('pitchwheel', channel=10, pitch=0, time=120),
    Message('pitchwheel', channel=10, pitch=0, time=120),
    Message('pitchwheel', channel=10, pitch=0, time=120),
    Message('pitchwheel', channel=10, pitch=0, time=120),
    Message('pitchwheel', channel=10, pitch=0, time=120),
    Message('pitchwheel', channel=10, pitch=0, time=120),
    Message('pitchwheel', channel=10, pitch=0, time=0),
    Message('note_on', channel=8, note=28, velocity=95, time=0),
    Message('note_off', channel=10, note=40, velocity=95, time=960),
    Message('note_off', channel=8, note=28, velocity=95, time=0),
    Message('note_on', channel=8, note=31, velocity=95, time=0),
    Message('note_off', channel=8, note=31, velocity=95, time=480),
    Message('note_on', channel=8, note=31, velocity=95, time=0),
    Message('note_off', channel=8, note=31, velocity=95, time=240),
    Message('note_on', channel=8, note=31, velocity=95, time=0),
    Message('note_off', channel=8, note=31, velocity=95, time=240),
    Message('note_on', channel=8, note=31, velocity=95, time=0),
    Message('note_off', channel=8, note=31, velocity=95, time=240),
    Message('note_on', channel=8, note=31, velocity=95, time=0),
    Message('note_off', channel=8, note=31, velocity=95, time=240),
    Message('note_on', channel=8, note=31, velocity=95, time=0),
    Message('note_off', channel=8, note=31, velocity=95, time=240),
    Message('note_on', channel=8, note=31, velocity=95, time=0),
    Message('note_off', channel=8, note=31, velocity=95, time=240),
    Message('note_on', channel=8, note=38, velocity=95, time=0),
    Message('note_off', channel=8, note=38, velocity=95, time=480),
    Message('note_on', channel=8, note=38, velocity=95, time=0),
    Message('note_off', channel=8, note=38, velocity=95, time=240),
    Message('note_on', channel=8, note=38, velocity=95, time=0),
    Message('note_off', channel=8, note=38, velocity=95, time=240),
    Message('note_on', channel=8, note=38, velocity=95, time=0),
    Message('note_off', channel=8, note=38, velocity=95, time=240),
    Message('note_on', channel=8, note=38, velocity=95, time=0),
    Message('note_off', channel=8, note=38, velocity=95, time=240),
    Message('note_on', channel=8, note=38, velocity=95, time=0),
    Message('note_off', channel=8, note=38, velocity=95, time=240),
    Message('note_on', channel=8, note=38, velocity=95, time=0),
    Message('note_off', channel=8, note=38, velocity=95, time=240),
    Message('note_on', channel=8, note=33, velocity=95, time=0),
    Message('note_off', channel=8, note=33, velocity=95, time=720),
    Message('note_on', channel=8, note=33, velocity=95, time=0),
    Message('note_off', channel=8, note=33, velocity=95, time=240),
    Message('note_on', channel=8, note=33, velocity=95, time=0),
    Message('note_off', channel=8, note=33, velocity=95, time=960),
    Message('note_on', channel=8, note=40, velocity=95, time=0),
    Message('note_off', channel=8, note=40, velocity=95, time=480),
    Message('note_on', channel=8, note=40, velocity=95, time=0),
    Message('note_off', channel=8, note=40, velocity=95, time=240),
    Message('note_on', channel=8, note=40, velocity=95, time=0),
    Message('note_off', channel=8, note=40, velocity=95, time=240),
    Message('note_on', channel=8, note=40, velocity=95, time=0),
    Message('note_off', channel=8, note=40, velocity=95, time=240),
    Message('note_on', channel=8, note=40, velocity=95, time=0),
    Message('note_off', channel=8, note=40, velocity=95, time=240),
    Message('note_on', channel=8, note=40, velocity=95, time=0),
    Message('note_off', channel=8, note=40, velocity=95, time=240),
    Message('note_on', channel=8, note=40, velocity=95, time=0),
    Message('note_off', channel=8, note=40, velocity=95, time=240),
    Message('note_on', channel=8, note=43, velocity=95, time=0),
    Message('note_off', channel=8, note=43, velocity=95, time=480),
    Message('note_on', channel=8, note=43, velocity=95, time=0),
    Message('note_off', channel=8, note=43, velocity=95, time=240),
    Message('note_on', channel=8, note=43, velocity=95, time=0),
    Message('note_off', channel=8, note=43, velocity=95, time=240),
    Message('note_on', channel=8, note=43, velocity=95, time=0),
    Message('note_off', channel=8, note=43, velocity=95, time=240),
    Message('note_on', channel=8, note=43, velocity=95, time=0),
    Message('note_off', channel=8, note=43, velocity=95, time=240),
    Message('note_on', channel=8, note=43, velocity=95, time=0),
    Message('note_off', channel=8, note=43, velocity=95, time=240),
    Message('note_on', channel=8, note=43, velocity=95, time=0),
    Message('note_off', channel=8, note=43, velocity=95, time=240),
    Message('note_on', channel=8, note=38, velocity=95, time=0),
    Message('note_off', channel=8, note=38, velocity=95, time=480),
    Message('note_on', channel=8, note=38, velocity=95, time=0),
    Message('note_off', channel=8, note=38, velocity=95, time=240),
    Message('note_on', channel=8, note=38, velocity=95, time=0),
    Message('note_off', channel=8, note=38, velocity=95, time=240),
    Message('note_on', channel=8, note=38, velocity=95, time=0),
    Message('note_off', channel=8, note=38, velocity=95, time=240),
    Message('note_on', channel=8, note=38, velocity=95, time=0),
    Message('note_off', channel=8, note=38, velocity=95, time=240),
    Message('note_on', channel=8, note=38, velocity=95, time=0),
    Message('note_off', channel=8, note=38, velocity=95, time=240),
    Message('note_on', channel=8, note=38, velocity=95, time=0),
    Message('note_off', channel=8, note=38, velocity=95, time=240),
    Message('note_on', channel=8, note=45, velocity=95, time=0),
    Message('note_off', channel=8, note=45, velocity=95, time=480),
    Message('note_on', channel=8, note=45, velocity=95, time=0),
    Message('note_off', channel=8, note=45, velocity=95, time=240),
    Message('note_on', channel=8, note=45, velocity=95, time=0),
    Message('note_off', channel=8, note=45, velocity=95, time=240),
    Message('note_on', channel=8, note=45, velocity=95, time=0),
    Message('note_off', channel=8, note=45, velocity=95, time=240),
    Message('note_on', channel=8, note=45, velocity=95, time=0),
    Message('note_off', channel=8, note=45, velocity=95, time=240),
    Message('note_on', channel=8, note=45, velocity=95, time=0),
    Message('note_off', channel=8, note=45, velocity=95, time=240),
    Message('note_on', channel=8, note=45, velocity=95, time=0),
    Message('note_off', channel=8, note=45, velocity=95, time=240),
    Message('note_on', channel=8, note=40, velocity=95, time=0),
    Message('note_off', channel=8, note=40, velocity=95, time=480),
    Message('note_on', channel=8, note=40, velocity=95, time=0),
    Message('note_off', channel=8, note=40, velocity=95, time=240),
    Message('note_on', channel=8, note=40, velocity=95, time=0),
    Message('note_off', channel=8, note=40, velocity=95, time=240),
    Message('note_on', channel=8, note=40, velocity=95, time=0),
    Message('note_off', channel=8, note=40, velocity=95, time=240),
    Message('note_on', channel=8, note=40, velocity=95, time=0),
    Message('note_off', channel=8, note=40, velocity=95, time=240),
    Message('note_on', channel=8, note=40, velocity=95, time=0),
    Message('note_off', channel=8, note=40, velocity=95, time=240),
    Message('note_on', channel=8, note=40, velocity=95, time=0),
    Message('note_off', channel=8, note=40, velocity=95, time=240),
    Message('note_on', channel=8, note=43, velocity=95, time=0),
    Message('note_off', channel=8, note=43, velocity=95, time=480),
    Message('note_on', channel=8, note=43, velocity=95, time=0),
    Message('note_off', channel=8, note=43, velocity=95, time=240),
    Message('note_on', channel=8, note=43, velocity=95, time=0),
    Message('note_off', channel=8, note=43, velocity=95, time=240),
    Message('note_on', channel=8, note=43, velocity=95, time=0),
    Message('note_off', channel=8, note=43, velocity=95, time=240),
    Message('note_on', channel=8, note=43, velocity=95, time=0),
    Message('note_off', channel=8, note=43, velocity=95, time=240),
    Message('note_on', channel=8, note=43, velocity=95, time=0),
    Message('note_off', channel=8, note=43, velocity=95, time=240),
    Message('note_on', channel=8, note=43, velocity=95, time=0),
    Message('note_off', channel=8, note=43, velocity=95, time=240),
    Message('note_on', channel=8, note=38, velocity=95, time=0),
    Message('note_off', channel=8, note=38, velocity=95, time=480),
    Message('note_on', channel=8, note=38, velocity=95, time=0),
    Message('note_off', channel=8, note=38, velocity=95, time=240),
    Message('note_on', channel=8, note=38, velocity=95, time=0),
    Message('note_off', channel=8, note=38, velocity=95, time=240),
    Message('note_on', channel=8, note=38, velocity=95, time=0),
    Message('note_off', channel=8, note=38, velocity=95, time=240),
    Message('note_on', channel=8, note=38, velocity=95, time=0),
    Message('note_off', channel=8, note=38, velocity=95, time=240),
    Message('note_on', channel=8, note=38, velocity=95, time=0),
    Message('note_off', channel=8, note=38, velocity=95, time=240),
    Message('note_on', channel=8, note=38, velocity=95, time=0),
    Message('note_off', channel=8, note=38, velocity=95, time=240),
    Message('note_on', channel=8, note=45, velocity=95, time=0),
    Message('note_off', channel=8, note=45, velocity=95, time=480),
    Message('note_on', channel=8, note=45, velocity=95, time=0),
    Message('note_off', channel=8, note=45, velocity=95, time=240),
    Message('note_on', channel=8, note=45, velocity=95, time=0),
    Message('note_off', channel=8, note=45, velocity=95, time=240),
    Message('note_on', channel=8, note=45, velocity=95, time=0),
    Message('note_off', channel=8, note=45, velocity=95, time=240),
    Message('note_on', channel=8, note=45, velocity=95, time=0),
    Message('note_off', channel=8, note=45, velocity=95, time=240),
    Message('note_on', channel=8, note=45, velocity=95, time=0),
    Message('note_off', channel=8, note=45, velocity=95, time=240),
    Message('note_on', channel=8, note=45, velocity=95, time=0),
    Message('note_off', channel=8, note=45, velocity=95, time=240),
    Message('note_on', channel=8, note=28, velocity=95, time=0),
    Message('note_off', channel=8, note=28, velocity=95, time=2400),
    Message('note_on', channel=10, note=41, velocity=95, time=0),
    Message('pitchwheel', channel=10, pitch=1408, time=120),
    Message('pitchwheel', channel=10, pitch=0, time=0),
    Message('note_off', channel=10, note=41, velocity=95, time=0),
    Message('note_on', channel=8, note=43, velocity=47, time=0),
    Message('note_off', channel=8, note=43, velocity=47, time=120),
    Message('note_on', channel=8, note=40, velocity=95, time=0),
    Message('note_off', channel=8, note=40, velocity=95, time=240),
    Message('note_on', channel=8, note=43, velocity=95, time=0),
    Message('note_off', channel=8, note=43, velocity=95, time=240),
    Message('note_on', channel=8, note=40, velocity=95, time=0),
    Message('note_off', channel=8, note=40, velocity=95, time=240),
    Message('note_on', channel=8, note=43, velocity=95, time=0),
    Message('note_off', channel=8, note=43, velocity=95, time=240),
    Message('note_on', channel=8, note=45, velocity=95, time=0),
    Message('note_off', channel=8, note=45, velocity=95, time=240),
    Message('pitchwheel', channel=10, pitch=0, time=0),
    Message('note_on', channel=10, note=45, velocity=95, time=0),
    Message('pitchwheel', channel=10, pitch=128, time=96),
    Message('pitchwheel', channel=10, pitch=256, time=96),
    Message('pitchwheel', channel=10, pitch=384, time=96),
    Message('pitchwheel', channel=10, pitch=512, time=96),
    Message('pitchwheel', channel=10, pitch=640, time=96),
    Message('pitchwheel', channel=10, pitch=640, time=0),
    Message('pitchwheel', channel=10, pitch=640, time=480),
    Message('pitchwheel', channel=10, pitch=0, time=0),
    Message('note_off', channel=10, note=45, velocity=95, time=0),
    Message('note_on', channel=8, note=50, velocity=95, time=0),
    Message('note_off', channel=8, note=50, velocity=95, time=240),
    Message('pitchwheel', channel=10, pitch=0, time=0),
    Message('note_on', channel=10, note=45, velocity=95, time=0),
    Message('pitchwheel', channel=10, pitch=128, time=168),
    Message('pitchwheel', channel=10, pitch=256, time=168),
    Message('pitchwheel', channel=10, pitch=384, time=168),
    Message('pitchwheel', channel=10, pitch=512, time=168),
    Message('pitchwheel', channel=10, pitch=640, time=168),
    Message('pitchwheel', channel=10, pitch=640, time=0),
    Message('pitchwheel', channel=10, pitch=640, time=840),
    Message('pitchwheel', channel=10, pitch=0, time=0),
    Message('note_off', channel=10, note=45, velocity=95, time=0),
    Message('note_on', channel=8, note=50, velocity=95, time=0),
    Message('note_off', channel=8, note=50, velocity=95, time=240),
    Message('pitchwheel', channel=10, pitch=640, time=0),
    Message('note_on', channel=10, note=45, velocity=95, time=0),
    Message('pitchwheel', channel=10, pitch=640, time=240),
    Message('pitchwheel', channel=10, pitch=512, time=48),
    Message('pitchwheel', channel=10, pitch=384, time=48),
    Message('pitchwheel', channel=10, pitch=256, time=48),
    Message('pitchwheel', channel=10, pitch=128, time=48),
    Message('pitchwheel', channel=10, pitch=0, time=48),
    Message('pitchwheel', channel=10, pitch=0, time=0),
    Message('pitchwheel', channel=10, pitch=0, time=240),
    Message('pitchwheel', channel=10, pitch=0, time=0),
    Message('note_off', channel=10, note=45, velocity=95, time=0),
    Message('note_on', channel=10, note=40, velocity=95, time=0),
    Message('note_off', channel=10, note=40, velocity=95, time=480),
    MetaMessage('end_of_track', time=0)]),
  MidiTrack([
    Message('pitchwheel', channel=6, pitch=0, time=0),
    Message('control_change', channel=6, control=7, value=127, time=0),
    Message('control_change', channel=6, control=10, value=63, time=0),
    Message('control_change', channel=6, control=93, value=0, time=0),
    Message('control_change', channel=6, control=91, value=71, time=0),
    Message('control_change', channel=6, control=95, value=0, time=0),
    Message('control_change', channel=6, control=92, value=0, time=0),
    Message('control_change', channel=6, control=11, value=127, time=0),
    Message('program_change', channel=6, program=30, time=0),
    Message('control_change', channel=7, control=7, value=127, time=0),
    Message('control_change', channel=7, control=10, value=63, time=0),
    Message('control_change', channel=7, control=93, value=0, time=0),
    Message('control_change', channel=7, control=91, value=71, time=0),
    Message('control_change', channel=7, control=95, value=0, time=0),
    Message('control_change', channel=7, control=92, value=0, time=0),
    Message('control_change', channel=7, control=11, value=127, time=0),
    Message('program_change', channel=7, program=30, time=0),
    Message('note_on', channel=6, note=76, velocity=95, time=265440),
    Message('note_off', channel=6, note=76, velocity=95, time=240),
    Message('note_on', channel=6, note=74, velocity=95, time=0),
    Message('note_off', channel=6, note=74, velocity=95, time=240),
    Message('note_on', channel=6, note=71, velocity=95, time=0),
    Message('note_off', channel=6, note=71, velocity=95, time=240),
    Message('pitchwheel', channel=7, pitch=0, time=0),
    Message('note_on', channel=7, note=69, velocity=95, time=0),
    Message('pitchwheel', channel=7, pitch=128, time=10),
    Message('pitchwheel', channel=7, pitch=256, time=10),
    Message('pitchwheel', channel=7, pitch=384, time=10),
    Message('pitchwheel', channel=7, pitch=512, time=10),
    Message('pitchwheel', channel=7, pitch=640, time=10),
    Message('pitchwheel', channel=7, pitch=768, time=10),
    Message('pitchwheel', channel=7, pitch=896, time=10),
    Message('pitchwheel', channel=7, pitch=1024, time=10),
    Message('pitchwheel', channel=7, pitch=1152, time=10),
    Message('pitchwheel', channel=7, pitch=1280, time=10),
    Message('pitchwheel', channel=7, pitch=1408, time=10),
    Message('pitchwheel', channel=7, pitch=1408, time=10),
    Message('pitchwheel', channel=7, pitch=1408, time=120),
    Message('pitchwheel', channel=7, pitch=1280, time=10),
    Message('pitchwheel', channel=7, pitch=1152, time=10),
    Message('pitchwheel', channel=7, pitch=1024, time=10),
    Message('pitchwheel', channel=7, pitch=896, time=10),
    Message('pitchwheel', channel=7, pitch=768, time=10),
    Message('pitchwheel', channel=7, pitch=640, time=10),
    Message('pitchwheel', channel=7, pitch=512, time=10),
    Message('pitchwheel', channel=7, pitch=384, time=10),
    Message('pitchwheel', channel=7, pitch=256, time=10),
    Message('pitchwheel', channel=7, pitch=128, time=10),
    Message('pitchwheel', channel=7, pitch=0, time=10),
    Message('pitchwheel', channel=7, pitch=0, time=10),
    Message('pitchwheel', channel=7, pitch=0, time=120),
    Message('pitchwheel', channel=7, pitch=0, time=0),
    Message('note_off', channel=7, note=69, velocity=95, time=0),
    Message('note_on', channel=6, note=67, velocity=95, time=0),
    Message('note_off', channel=6, note=67, velocity=95, time=240),
    Message('note_on', channel=6, note=64, velocity=95, time=0),
    Message('note_off', channel=6, note=64, velocity=95, time=480),
    Message('note_on', channel=6, note=67, velocity=95, time=0),
    Message('note_off', channel=6, note=67, velocity=95, time=240),
    Message('note_on', channel=6, note=64, velocity=95, time=0),
    Message('note_off', channel=6, note=64, velocity=95, time=240),
    Message('note_on', channel=6, note=67, velocity=95, time=0),
    Message('note_off', channel=6, note=67, velocity=95, time=240),
    Message('note_on', channel=6, note=67, velocity=95, time=0),
    Message('note_off', channel=6, note=67, velocity=95, time=240),
    Message('note_on', channel=6, note=69, velocity=95, time=0),
    Message('note_off', channel=6, note=69, velocity=95, time=240),
    Message('note_on', channel=6, note=67, velocity=70, time=0),
    Message('note_off', channel=6, note=67, velocity=70, time=240),
    Message('note_on', channel=6, note=64, velocity=95, time=0),
    Message('note_off', channel=6, note=64, velocity=95, time=240),
    Message('note_on', channel=6, note=67, velocity=95, time=0),
    Message('note_off', channel=6, note=67, velocity=95, time=240),
    Message('pitchwheel', channel=7, pitch=0, time=0),
    Message('note_on', channel=7, note=70, velocity=95, time=0),
    Message('pitchwheel', channel=7, pitch=128, time=36),
    Message('pitchwheel', channel=7, pitch=256, time=36),
    Message('pitchwheel', channel=7, pitch=384, time=36),
    Message('pitchwheel', channel=7, pitch=512, time=36),
    Message('pitchwheel', channel=7, pitch=640, time=36),
    Message('pitchwheel', channel=7, pitch=640, time=0),
    Message('pitchwheel', channel=7, pitch=640, time=180),
    Message('pitchwheel', channel=7, pitch=0, time=0),
    Message('note_off', channel=7, note=70, velocity=95, time=0),
    Message('pitchwheel', channel=7, pitch=0, time=120),
    Message('note_on', channel=7, note=70, velocity=95, time=0),
    Message('pitchwheel', channel=7, pitch=128, time=36),
    Message('pitchwheel', channel=7, pitch=256, time=36),
    Message('pitchwheel', channel=7, pitch=384, time=36),
    Message('pitchwheel', channel=7, pitch=512, time=36),
    Message('pitchwheel', channel=7, pitch=640, time=36),
    Message('pitchwheel', channel=7, pitch=640, time=0),
    Message('pitchwheel', channel=7, pitch=640, time=180),
    Message('pitchwheel', channel=7, pitch=0, time=0),
    Message('note_off', channel=7, note=70, velocity=95, time=0),
    Message('pitchwheel', channel=7, pitch=0, time=120),
    Message('note_on', channel=7, note=69, velocity=95, time=0),
    Message('pitchwheel', channel=7, pitch=128, time=15),
    Message('pitchwheel', channel=7, pitch=256, time=15),
    Message('pitchwheel', channel=7, pitch=384, time=15),
    Message('pitchwheel', channel=7, pitch=512, time=15),
    Message('pitchwheel', channel=7, pitch=640, time=15),
    Message('pitchwheel', channel=7, pitch=768, time=15),
    Message('pitchwheel', channel=7, pitch=896, time=15),
    Message('pitchwheel', channel=7, pitch=1024, time=15),
    Message('pitchwheel', channel=7, pitch=1024, time=0),
    Message('pitchwheel', channel=7, pitch=1024, time=120),
    Message('pitchwheel', channel=7, pitch=896, time=15),
    Message('pitchwheel', channel=7, pitch=768, time=15),
    Message('pitchwheel', channel=7, pitch=640, time=15),
    Message('pitchwheel', channel=7, pitch=512, time=15),
    Message('pitchwheel', channel=7, pitch=384, time=15),
    Message('pitchwheel', channel=7, pitch=256, time=15),
    Message('pitchwheel', channel=7, pitch=128, time=15),
    Message('pitchwheel', channel=7, pitch=0, time=15),
    Message('pitchwheel', channel=7, pitch=0, time=0),
    Message('pitchwheel', channel=7, pitch=0, time=120),
    Message('pitchwheel', channel=7, pitch=0, time=0),
    Message('note_off', channel=7, note=69, velocity=95, time=0),
    Message('note_on', channel=6, note=67, velocity=95, time=0),
    Message('note_off', channel=6, note=67, velocity=95, time=240),
    Message('note_on', channel=6, note=69, velocity=95, time=0),
    Message('note_off', channel=6, note=69, velocity=95, time=240),
    Message('note_on', channel=7, note=67, velocity=95, time=0),
    Message('pitchwheel', channel=7, pitch=0, time=160),
    Message('pitchwheel', channel=7, pitch=128, time=160),
    Message('pitchwheel', channel=7, pitch=0, time=160),
    Message('pitchwheel', channel=7, pitch=128, time=160),
    Message('pitchwheel', channel=7, pitch=0, time=160),
    Message('pitchwheel', channel=7, pitch=128, time=160),
    Message('pitchwheel', channel=7, pitch=0, time=160),
    Message('pitchwheel', channel=7, pitch=128, time=160),
    Message('pitchwheel', channel=7, pitch=0, time=160),
    Message('pitchwheel', channel=7, pitch=128, time=0),
    Message('pitchwheel', channel=7, pitch=0, time=0),
    Message('note_off', channel=7, note=67, velocity=95, time=0),
    Message('pitchwheel', channel=7, pitch=0, time=0),
    Message('note_on', channel=7, note=69, velocity=95, time=0),
    Message('pitchwheel', channel=7, pitch=128, time=10),
    Message('pitchwheel', channel=7, pitch=256, time=10),
    Message('pitchwheel', channel=7, pitch=384, time=10),
    Message('pitchwheel', channel=7, pitch=512, time=10),
    Message('pitchwheel', channel=7, pitch=640, time=10),
    Message('pitchwheel', channel=7, pitch=768, time=10),
    Message('pitchwheel', channel=7, pitch=896, time=10),
    Message('pitchwheel', channel=7, pitch=1024, time=10),
    Message('pitchwheel', channel=7, pitch=1152, time=10),
    Message('pitchwheel', channel=7, pitch=1280, time=10),
    Message('pitchwheel', channel=7, pitch=1408, time=10),
    Message('pitchwheel', channel=7, pitch=1408, time=10),
    Message('pitchwheel', channel=7, pitch=1408, time=120),
    Message('pitchwheel', channel=7, pitch=0, time=0),
    Message('note_off', channel=7, note=69, velocity=95, time=0),
    Message('note_on', channel=6, note=71, velocity=95, time=0),
    Message('note_off', channel=6, note=71, velocity=95, time=240),
    Message('pitchwheel', channel=7, pitch=0, time=0),
    Message('note_on', channel=7, note=69, velocity=95, time=0),
    Message('pitchwheel', channel=7, pitch=128, time=10),
    Message('pitchwheel', channel=7, pitch=256, time=10),
    Message('pitchwheel', channel=7, pitch=384, time=10),
    Message('pitchwheel', channel=7, pitch=512, time=10),
    Message('pitchwheel', channel=7, pitch=640, time=10),
    Message('pitchwheel', channel=7, pitch=768, time=10),
    Message('pitchwheel', channel=7, pitch=896, time=10),
    Message('pitchwheel', channel=7, pitch=1024, time=10),
    Message('pitchwheel', channel=7, pitch=1152, time=10),
    Message('pitchwheel', channel=7, pitch=1280, time=10),
    Message('pitchwheel', channel=7, pitch=1408, time=10),
    Message('pitchwheel', channel=7, pitch=1408, time=10),
    Message('pitchwheel', channel=7, pitch=1408, time=120),
    Message('pitchwheel', channel=7, pitch=0, time=0),
    Message('note_off', channel=7, note=69, velocity=95, time=0),
    Message('note_on', channel=6, note=71, velocity=95, time=0),
    Message('note_off', channel=6, note=71, velocity=95, time=240),
    Message('note_on', channel=6, note=76, velocity=95, time=0),
    Message('note_off', channel=6, note=76, velocity=95, time=240),
    Message('note_on', channel=6, note=71, velocity=95, time=0),
    Message('note_off', channel=6, note=71, velocity=95, time=240),
    Message('pitchwheel', channel=7, pitch=0, time=0),
    Message('note_on', channel=7, note=74, velocity=95, time=0),
    Message('pitchwheel', channel=7, pitch=128, time=10),
    Message('pitchwheel', channel=7, pitch=256, time=10),
    Message('pitchwheel', channel=7, pitch=384, time=10),
    Message('pitchwheel', channel=7, pitch=512, time=10),
    Message('pitchwheel', channel=7, pitch=640, time=10),
    Message('pitchwheel', channel=7, pitch=768, time=10),
    Message('pitchwheel', channel=7, pitch=896, time=10),
    Message('pitchwheel', channel=7, pitch=1024, time=10),
    Message('pitchwheel', channel=7, pitch=1152, time=10),
    Message('pitchwheel', channel=7, pitch=1280, time=10),
    Message('pitchwheel', channel=7, pitch=1408, time=10),
    Message('pitchwheel', channel=7, pitch=1408, time=10),
    Message('pitchwheel', channel=7, pitch=1408, time=120),
    Message('pitchwheel', channel=7, pitch=0, time=0),
    Message('note_off', channel=7, note=74, velocity=95, time=0),
    Message('note_on', channel=6, note=76, velocity=95, time=0),
    Message('note_off', channel=6, note=76, velocity=95, time=240),
    Message('note_on', channel=6, note=74, velocity=95, time=0),
    Message('note_off', channel=6, note=74, velocity=95, time=120),
    Message('note_on', channel=6, note=71, velocity=54, time=0),
    Message('note_off', channel=6, note=71, velocity=54, time=120),
    Message('note_on', channel=6, note=69, velocity=95, time=0),
    Message('note_off', channel=6, note=69, velocity=95, time=120),
    Message('note_on', channel=6, note=71, velocity=70, time=0),
    Message('note_off', channel=6, note=71, velocity=70, time=120),
    Message('pitchwheel', channel=7, pitch=0, time=0),
    Message('note_on', channel=7, note=69, velocity=95, time=0),
    Message('pitchwheel', channel=7, pitch=128, time=8),
    Message('pitchwheel', channel=7, pitch=256, time=8),
    Message('pitchwheel', channel=7, pitch=384, time=8),
    Message('pitchwheel', channel=7, pitch=512, time=8),
    Message('pitchwheel', channel=7, pitch=640, time=8),
    Message('pitchwheel', channel=7, pitch=768, time=8),
    Message('pitchwheel', channel=7, pitch=896, time=8),
    Message('pitchwheel', channel=7, pitch=1024, time=8),
    Message('pitchwheel', channel=7, pitch=1152, time=8),
    Message('pitchwheel', channel=7, pitch=1280, time=8),
    Message('pitchwheel', channel=7, pitch=1408, time=8),
    Message('pitchwheel', channel=7, pitch=1408, time=2),
    Message('pitchwheel', channel=7, pitch=1408, time=90),
    Message('pitchwheel', channel=7, pitch=1280, time=8),
    Message('pitchwheel', channel=7, pitch=1152, time=8),
    Message('pitchwheel', channel=7, pitch=1024, time=8),
    Message('pitchwheel', channel=7, pitch=896, time=8),
    Message('pitchwheel', channel=7, pitch=768, time=8),
    Message('pitchwheel', channel=7, pitch=640, time=8),
    Message('pitchwheel', channel=7, pitch=512, time=8),
    Message('pitchwheel', channel=7, pitch=384, time=8),
    Message('pitchwheel', channel=7, pitch=256, time=8),
    Message('pitchwheel', channel=7, pitch=128, time=8),
    Message('pitchwheel', channel=7, pitch=0, time=8),
    Message('pitchwheel', channel=7, pitch=0, time=2),
    Message('pitchwheel', channel=7, pitch=0, time=90),
    Message('pitchwheel', channel=7, pitch=0, time=0),
    Message('note_off', channel=7, note=69, velocity=95, time=0),
    Message('note_on', channel=6, note=67, velocity=95, time=0),
    Message('note_off', channel=6, note=67, velocity=95, time=120),
    Message('note_on', channel=6, note=69, velocity=95, time=0),
    Message('note_off', channel=6, note=69, velocity=95, time=240),
    Message('note_on', channel=6, note=69, velocity=95, time=0),
    Message('note_off', channel=6, note=69, velocity=95, time=240),
    Message('note_on', channel=6, note=71, velocity=95, time=0),
    Message('note_off', channel=6, note=71, velocity=95, time=240),
    Message('note_on', channel=6, note=69, velocity=95, time=0),
    Message('note_off', channel=6, note=69, velocity=95, time=240),
    Message('note_on', channel=7, note=67, velocity=95, time=0),
    Message('pitchwheel', channel=7, pitch=0, time=160),
    Message('pitchwheel', channel=7, pitch=128, time=160),
    Message('pitchwheel', channel=7, pitch=0, time=160),
    Message('pitchwheel', channel=7, pitch=128, time=0),
    Message('pitchwheel', channel=7, pitch=0, time=0),
    Message('note_off', channel=7, note=67, velocity=95, time=0),
    Message('note_on', channel=6, note=64, velocity=95, time=0),
    Message('note_off', channel=6, note=64, velocity=95, time=240),
    Message('note_on', channel=6, note=62, velocity=95, time=0),
    Message('note_off', channel=6, note=62, velocity=95, time=240),
    Message('note_on', channel=6, note=59, velocity=95, time=0),
    Message('note_off', channel=6, note=59, velocity=95, time=240),
    Message('note_on', channel=6, note=58, velocity=95, time=0),
    Message('note_off', channel=6, note=58, velocity=95, time=240),
    Message('note_on', channel=6, note=57, velocity=95, time=0),
    Message('note_off', channel=6, note=57, velocity=95, time=240),
    Message('note_on', channel=6, note=55, velocity=95, time=0),
    Message('note_off', channel=6, note=55, velocity=95, time=240),
    Message('note_on', channel=6, note=57, velocity=95, time=0),
    Message('note_off', channel=6, note=57, velocity=95, time=240),
    Message('note_on', channel=6, note=55, velocity=95, time=0),
    Message('note_off', channel=6, note=55, velocity=95, time=240),
    Message('pitchwheel', channel=7, pitch=0, time=0),
    Message('note_on', channel=7, note=58, velocity=95, time=0),
    Message('pitchwheel', channel=7, pitch=128, time=72),
    Message('pitchwheel', channel=7, pitch=256, time=72),
    Message('pitchwheel', channel=7, pitch=384, time=72),
    Message('pitchwheel', channel=7, pitch=512, time=72),
    Message('pitchwheel', channel=7, pitch=640, time=72),
    Message('pitchwheel', channel=7, pitch=640, time=0),
    Message('pitchwheel', channel=7, pitch=640, time=360),
    Message('pitchwheel', channel=7, pitch=0, time=0),
    Message('note_off', channel=7, note=58, velocity=95, time=0),
    Message('pitchwheel', channel=7, pitch=640, time=0),
    Message('note_on', channel=7, note=58, velocity=95, time=0),
    Message('pitchwheel', channel=7, pitch=640, time=240),
    Message('pitchwheel', channel=7, pitch=0, time=0),
    Message('note_off', channel=7, note=58, velocity=95, time=0),
    Message('pitchwheel', channel=7, pitch=256, time=0),
    Message('note_on', channel=7, note=58, velocity=95, time=0),
    Message('pitchwheel', channel=7, pitch=256, time=80),
    Message('pitchwheel', channel=7, pitch=128, time=40),
    Message('pitchwheel', channel=7, pitch=0, time=40),
    Message('pitchwheel', channel=7, pitch=0, time=0),
    Message('pitchwheel', channel=7, pitch=0, time=80),
    Message('pitchwheel', channel=7, pitch=0, time=0),
    Message('note_off', channel=7, note=58, velocity=95, time=0),
    Message('note_on', channel=6, note=59, velocity=95, time=0),
    Message('note_on', channel=6, note=55, velocity=95, time=0),
    Message('note_off', channel=6, note=59, velocity=95, time=240),
    Message('note_off', channel=6, note=55, velocity=95, time=0),
    Message('note_on', channel=6, note=59, velocity=95, time=0),
    Message('note_on', channel=6, note=55, velocity=95, time=0),
    Message('note_off', channel=6, note=59, velocity=95, time=480),
    Message('note_off', channel=6, note=55, velocity=95, time=0),
    Message('pitchwheel', channel=7, pitch=0, time=0),
    Message('note_on', channel=7, note=77, velocity=95, time=0),
    Message('pitchwheel', channel=7, pitch=128, time=32),
    Message('pitchwheel', channel=7, pitch=256, time=32),
    Message('pitchwheel', channel=7, pitch=384, time=32),
    Message('pitchwheel', channel=7, pitch=512, time=32),
    Message('pitchwheel', channel=7, pitch=640, time=32),
    Message('pitchwheel', channel=7, pitch=768, time=32),
    Message('pitchwheel', channel=7, pitch=896, time=32),
    Message('pitchwheel', channel=7, pitch=1024, time=32),
    Message('pitchwheel', channel=7, pitch=1152, time=32),
    Message('pitchwheel', channel=7, pitch=1280, time=32),
    Message('pitchwheel', channel=7, pitch=1408, time=32),
    Message('pitchwheel', channel=7, pitch=1408, time=8),
    Message('pitchwheel', channel=7, pitch=1408, time=360),
    Message('pitchwheel', channel=7, pitch=0, time=0),
    Message('note_off', channel=7, note=77, velocity=95, time=0),
    Message('pitchwheel', channel=7, pitch=0, time=240),
    Message('note_on', channel=7, note=82, velocity=95, time=0),
    Message('pitchwheel', channel=7, pitch=128, time=48),
    Message('pitchwheel', channel=7, pitch=256, time=48),
    Message('pitchwheel', channel=7, pitch=384, time=48),
    Message('pitchwheel', channel=7, pitch=512, time=48),
    Message('pitchwheel', channel=7, pitch=640, time=48),
    Message('pitchwheel', channel=7, pitch=640, time=0),
    Message('pitchwheel', channel=7, pitch=640, time=240),
    Message('pitchwheel', channel=7, pitch=0, time=0),
    Message('note_off', channel=7, note=82, velocity=95, time=0),
    Message('pitchwheel', channel=7, pitch=0, time=480),
    Message('note_on', channel=7, note=81, velocity=95, time=0),
    Message('pitchwheel', channel=7, pitch=128, time=15),
    Message('pitchwheel', channel=7, pitch=256, time=15),
    Message('pitchwheel', channel=7, pitch=384, time=15),
    Message('pitchwheel', channel=7, pitch=512, time=15),
    Message('pitchwheel', channel=7, pitch=640, time=15),
    Message('pitchwheel', channel=7, pitch=768, time=15),
    Message('pitchwheel', channel=7, pitch=896, time=15),
    Message('pitchwheel', channel=7, pitch=1024, time=15),
    Message('pitchwheel', channel=7, pitch=1024, time=0),
    Message('pitchwheel', channel=7, pitch=1024, time=120),
    Message('pitchwheel', channel=7, pitch=896, time=15),
    Message('pitchwheel', channel=7, pitch=768, time=15),
    Message('pitchwheel', channel=7, pitch=640, time=15),
    Message('pitchwheel', channel=7, pitch=512, time=15),
    Message('pitchwheel', channel=7, pitch=384, time=15),
    Message('pitchwheel', channel=7, pitch=256, time=15),
    Message('pitchwheel', channel=7, pitch=128, time=15),
    Message('pitchwheel', channel=7, pitch=0, time=15),
    Message('pitchwheel', channel=7, pitch=0, time=0),
    Message('pitchwheel', channel=7, pitch=0, time=120),
    Message('pitchwheel', channel=7, pitch=0, time=0),
    Message('note_off', channel=7, note=81, velocity=95, time=0),
    Message('note_on', channel=6, note=79, velocity=47, time=0),
    Message('note_off', channel=6, note=79, velocity=47, time=240),
    Message('note_on', channel=7, note=76, velocity=95, time=0),
    Message('pitchwheel', channel=7, pitch=0, time=160),
    Message('pitchwheel', channel=7, pitch=128, time=160),
    Message('pitchwheel', channel=7, pitch=0, time=160),
    Message('pitchwheel', channel=7, pitch=128, time=160),
    Message('pitchwheel', channel=7, pitch=0, time=80),
    Message('pitchwheel', channel=7, pitch=128, time=0),
    Message('pitchwheel', channel=7, pitch=0, time=0),
    Message('note_off', channel=7, note=76, velocity=95, time=0),
    Message('note_on', channel=7, note=69, velocity=95, time=0),
    Message('pitchwheel', channel=7, pitch=640, time=120),
    Message('pitchwheel', channel=7, pitch=1408, time=120),
    Message('pitchwheel', channel=7, pitch=0, time=0),
    Message('note_off', channel=7, note=69, velocity=95, time=0),
    Message('note_on', channel=6, note=71, velocity=79, time=0),
    Message('note_off', channel=6, note=71, velocity=79, time=240),
    Message('note_on', channel=6, note=74, velocity=95, time=0),
    Message('note_off', channel=6, note=74, velocity=95, time=240),
    Message('note_on', channel=6, note=76, velocity=95, time=0),
    Message('note_off', channel=6, note=76, velocity=95, time=240),
    Message('pitchwheel', channel=7, pitch=0, time=0),
    Message('note_on', channel=7, note=72, velocity=95, time=0),
    Message('pitchwheel', channel=7, pitch=128, time=30),
    Message('pitchwheel', channel=7, pitch=256, time=30),
    Message('pitchwheel', channel=7, pitch=384, time=30),
    Message('pitchwheel', channel=7, pitch=512, time=30),
    Message('pitchwheel', channel=7, pitch=640, time=30),
    Message('pitchwheel', channel=7, pitch=768, time=30),
    Message('pitchwheel', channel=7, pitch=896, time=30),
    Message('pitchwheel', channel=7, pitch=1024, time=30),
    Message('pitchwheel', channel=7, pitch=1024, time=0),
    Message('pitchwheel', channel=7, pitch=1024, time=240),
    Message('pitchwheel', channel=7, pitch=0, time=0),
    Message('note_off', channel=7, note=72, velocity=95, time=0),
    Message('note_on', channel=6, note=79, velocity=95, time=0),
    Message('note_off', channel=6, note=79, velocity=95, time=240),
    Message('note_on', channel=6, note=76, velocity=95, time=0),
    Message('note_off', channel=6, note=76, velocity=95, time=240),
    Message('note_on', channel=7, note=71, velocity=95, time=0),
    Message('pitchwheel', channel=7, pitch=-1408, time=160),
    Message('pitchwheel', channel=7, pitch=0, time=0),
    Message('note_off', channel=7, note=71, velocity=95, time=0),
    Message('note_on', channel=6, note=69, velocity=47, time=0),
    Message('note_off', channel=6, note=69, velocity=47, time=160),
    Message('note_on', channel=6, note=67, velocity=79, time=0),
    Message('note_off', channel=6, note=67, velocity=79, time=160),
    Message('note_on', channel=6, note=69, velocity=95, time=0),
    Message('note_off', channel=6, note=69, velocity=95, time=240),
    Message('note_on', channel=7, note=67, velocity=95, time=0),
    Message('pitchwheel', channel=7, pitch=-1024, time=120),
    Message('pitchwheel', channel=7, pitch=-2048, time=120),
    Message('pitchwheel', channel=7, pitch=-3072, time=120),
    Message('pitchwheel', channel=7, pitch=-4224, time=120),
    Message('pitchwheel', channel=7, pitch=-5248, time=120),
    Message('pitchwheel', channel=7, pitch=-6272, time=120),
    Message('pitchwheel', channel=7, pitch=-7296, time=120),
    Message('pitchwheel', channel=7, pitch=-8192, time=120),
    Message('pitchwheel', channel=7, pitch=0, time=0),
    Message('note_off', channel=7, note=67, velocity=95, time=0),
    Message('note_on', channel=6, note=59, velocity=95, time=0),
    Message('note_on', channel=6, note=55, velocity=95, time=0),
    Message('note_off', channel=6, note=59, velocity=95, time=240),
    Message('note_off', channel=6, note=55, velocity=95, time=0),
    Message('pitchwheel', channel=7, pitch=0, time=0),
    Message('note_on', channel=7, note=58, velocity=95, time=0),
    Message('pitchwheel', channel=7, pitch=128, time=120),
    Message('pitchwheel', channel=7, pitch=256, time=120),
    Message('pitchwheel', channel=7, pitch=384, time=120),
    Message('pitchwheel', channel=7, pitch=512, time=120),
    Message('pitchwheel', channel=7, pitch=640, time=120),
    Message('pitchwheel', channel=7, pitch=640, time=0),
    Message('pitchwheel', channel=7, pitch=640, time=600),
    Message('pitchwheel', channel=7, pitch=0, time=0),
    Message('note_off', channel=7, note=58, velocity=95, time=0),
    Message('pitchwheel', channel=7, pitch=640, time=0),
    Message('note_on', channel=7, note=58, velocity=95, time=0),
    Message('pitchwheel', channel=7, pitch=640, time=240),
    Message('pitchwheel', channel=7, pitch=0, time=0),
    Message('note_off', channel=7, note=58, velocity=95, time=0),
    Message('pitchwheel', channel=7, pitch=640, time=0),
    Message('note_on', channel=7, note=58, velocity=95, time=0),
    Message('pitchwheel', channel=7, pitch=640, time=240),
    Message('pitchwheel', channel=7, pitch=0, time=0),
    Message('note_off', channel=7, note=58, velocity=95, time=0),
    Message('pitchwheel', channel=7, pitch=640, time=0),
    Message('note_on', channel=7, note=58, velocity=95, time=0),
    Message('pitchwheel', channel=7, pitch=640, time=240),
    Message('pitchwheel', channel=7, pitch=0, time=0),
    Message('note_off', channel=7, note=58, velocity=95, time=0),
    Message('pitchwheel', channel=7, pitch=640, time=0),
    Message('note_on', channel=7, note=58, velocity=95, time=0),
    Message('pitchwheel', channel=7, pitch=640, time=240),
    Message('pitchwheel', channel=7, pitch=0, time=0),
    Message('note_off', channel=7, note=58, velocity=95, time=0),
    Message('pitchwheel', channel=7, pitch=640, time=0),
    Message('note_on', channel=7, note=58, velocity=95, time=0),
    Message('pitchwheel', channel=7, pitch=640, time=240),
    Message('pitchwheel', channel=7, pitch=0, time=0),
    Message('note_off', channel=7, note=58, velocity=95, time=0),
    Message('pitchwheel', channel=7, pitch=256, time=0),
    Message('note_on', channel=7, note=58, velocity=95, time=0),
    Message('pitchwheel', channel=7, pitch=256, time=240),
    Message('pitchwheel', channel=7, pitch=0, time=0),
    Message('note_off', channel=7, note=58, velocity=95, time=0),
    Message('pitchwheel', channel=7, pitch=0, time=0),
    Message('note_on', channel=7, note=58, velocity=95, time=0),
    Message('pitchwheel', channel=7, pitch=128, time=60),
    Message('pitchwheel', channel=7, pitch=256, time=60),
    Message('pitchwheel', channel=7, pitch=256, time=0),
    Message('pitchwheel', channel=7, pitch=256, time=120),
    Message('pitchwheel', channel=7, pitch=0, time=0),
    Message('note_off', channel=7, note=58, velocity=95, time=0),
    Message('pitchwheel', channel=7, pitch=0, time=0),
    Message('note_on', channel=7, note=57, velocity=95, time=0),
    Message('pitchwheel', channel=7, pitch=128, time=48),
    Message('pitchwheel', channel=7, pitch=256, time=48),
    Message('pitchwheel', channel=7, pitch=384, time=48),
    Message('pitchwheel', channel=7, pitch=512, time=48),
    Message('pitchwheel', channel=7, pitch=640, time=48),
    Message('pitchwheel', channel=7, pitch=640, time=0),
    Message('pitchwheel', channel=7, pitch=640, time=240),
    Message('pitchwheel', channel=7, pitch=512, time=48),
    Message('pitchwheel', channel=7, pitch=384, time=48),
    Message('pitchwheel', channel=7, pitch=256, time=48),
    Message('pitchwheel', channel=7, pitch=128, time=48),
    Message('pitchwheel', channel=7, pitch=0, time=48),
    Message('pitchwheel', channel=7, pitch=0, time=0),
    Message('pitchwheel', channel=7, pitch=0, time=240),
    Message('pitchwheel', channel=7, pitch=0, time=0),
    Message('note_off', channel=7, note=57, velocity=95, time=0),
    Message('note_on', channel=6, note=55, velocity=95, time=0),
    Message('note_off', channel=6, note=55, velocity=95, time=480),
    Message('pitchwheel', channel=7, pitch=0, time=0),
    Message('note_on', channel=7, note=57, velocity=95, time=0),
    Message('pitchwheel', channel=7, pitch=128, time=15),
    Message('pitchwheel', channel=7, pitch=256, time=15),
    Message('pitchwheel', channel=7, pitch=384, time=15),
    Message('pitchwheel', channel=7, pitch=512, time=15),
    Message('pitchwheel', channel=7, pitch=640, time=15),
    Message('pitchwheel', channel=7, pitch=768, time=15),
    Message('pitchwheel', channel=7, pitch=896, time=15),
    Message('pitchwheel', channel=7, pitch=1024, time=15),
    Message('pitchwheel', channel=7, pitch=1024, time=0),
    Message('pitchwheel', channel=7, pitch=1024, time=120),
    Message('pitchwheel', channel=7, pitch=0, time=0),
    Message('note_off', channel=7, note=57, velocity=95, time=0),
    Message('note_on', channel=6, note=59, velocity=95, time=0),
    Message('note_off', channel=6, note=59, velocity=95, time=240),
    Message('note_on', channel=6, note=62, velocity=95, time=0),
    Message('note_off', channel=6, note=62, velocity=95, time=240),
    Message('note_on', channel=6, note=59, velocity=95, time=0),
    Message('note_off', channel=6, note=59, velocity=95, time=240),
    Message('note_on', channel=6, note=62, velocity=95, time=0),
    Message('note_off', channel=6, note=62, velocity=95, time=240),
    Message('note_on', channel=6, note=64, velocity=95, time=0),
    Message('note_off', channel=6, note=64, velocity=95, time=240),
    Message('note_on', channel=6, note=67, velocity=95, time=0),
    Message('note_off', channel=6, note=67, velocity=95, time=240),
    Message('note_on', channel=6, note=64, velocity=95, time=0),
    Message('note_off', channel=6, note=64, velocity=95, time=240),
    Message('note_on', channel=6, note=67, velocity=95, time=0),
    Message('note_off', channel=6, note=67, velocity=95, time=240),
    Message('pitchwheel', channel=7, pitch=0, time=0),
    Message('note_on', channel=7, note=69, velocity=95, time=0),
    Message('pitchwheel', channel=7, pitch=128, time=60),
    Message('pitchwheel', channel=7, pitch=256, time=60),
    Message('pitchwheel', channel=7, pitch=384, time=60),
    Message('pitchwheel', channel=7, pitch=512, time=60),
    Message('pitchwheel', channel=7, pitch=640, time=60),
    Message('pitchwheel', channel=7, pitch=768, time=60),
    Message('pitchwheel', channel=7, pitch=896, time=60),
    Message('pitchwheel', channel=7, pitch=1024, time=60),
    Message('pitchwheel', channel=7, pitch=1024, time=0),
    Message('pitchwheel', channel=7, pitch=1024, time=480),
    Message('pitchwheel', channel=7, pitch=0, time=0),
    Message('note_off', channel=7, note=69, velocity=95, time=0),
    Message('note_on', channel=6, note=76, velocity=95, time=0),
    Message('note_off', channel=6, note=76, velocity=95, time=240),
    Message('note_on', channel=6, note=74, velocity=95, time=0),
    Message('note_off', channel=6, note=74, velocity=95, time=240),
    Message('note_on', channel=6, note=71, velocity=95, time=0),
    Message('note_off', channel=6, note=71, velocity=95, time=240),
    Message('pitchwheel', channel=7, pitch=0, time=0),
    Message('note_on', channel=7, note=58, velocity=95, time=0),
    Message('pitchwheel', channel=7, pitch=128, time=120),
    Message('pitchwheel', channel=7, pitch=256, time=120),
    Message('pitchwheel', channel=7, pitch=384, time=120),
    Message('pitchwheel', channel=7, pitch=512, time=120),
    Message('pitchwheel', channel=7, pitch=640, time=120),
    Message('pitchwheel', channel=7, pitch=640, time=0),
    Message('pitchwheel', channel=7, pitch=640, time=120),
    Message('pitchwheel', channel=7, pitch=640, time=720),
    Message('pitchwheel', channel=7, pitch=0, time=0),
    Message('note_off', channel=7, note=58, velocity=95, time=0),
    Message('note_on', channel=6, note=57, velocity=95, time=0),
    Message('note_off', channel=6, note=57, velocity=95, time=240),
    Message('note_on', channel=6, note=55, velocity=95, time=0),
    Message('note_off', channel=6, note=55, velocity=95, time=240),
    Message('note_on', channel=6, note=59, velocity=95, time=0),
    Message('note_off', channel=6, note=59, velocity=95, time=240),
    Message('note_on', channel=6, note=62, velocity=95, time=0),
    Message('note_off', channel=6, note=62, velocity=95, time=240),
    Message('note_on', channel=6, note=62, velocity=95, time=0),
    Message('note_off', channel=6, note=62, velocity=95, time=240),
    Message('note_on', channel=6, note=59, velocity=95, time=0),
    Message('note_off', channel=6, note=59, velocity=95, time=240),
    Message('note_on', channel=6, note=64, velocity=95, time=0),
    Message('note_off', channel=6, note=64, velocity=95, time=240),
    Message('note_on', channel=6, note=62, velocity=95, time=0),
    Message('note_off', channel=6, note=62, velocity=95, time=240),
    Message('note_on', channel=6, note=59, velocity=95, time=0),
    Message('note_off', channel=6, note=59, velocity=95, time=240),
    Message('note_on', channel=6, note=62, velocity=95, time=0),
    Message('note_off', channel=6, note=62, velocity=95, time=240),
    Message('note_on', channel=7, note=64, velocity=95, time=0),
    Message('pitchwheel', channel=7, pitch=0, time=160),
    Message('pitchwheel', channel=7, pitch=128, time=160),
    Message('pitchwheel', channel=7, pitch=0, time=160),
    Message('pitchwheel', channel=7, pitch=128, time=160),
    Message('pitchwheel', channel=7, pitch=0, time=160),
    Message('pitchwheel', channel=7, pitch=128, time=160),
    Message('pitchwheel', channel=7, pitch=0, time=0),
    Message('note_off', channel=7, note=64, velocity=95, time=0),
    Message('note_on', channel=6, note=64, velocity=95, time=0),
    Message('note_off', channel=6, note=64, velocity=95, time=240),
    Message('note_on', channel=6, note=69, velocity=95, time=0),
    Message('note_off', channel=6, note=69, velocity=95, time=240),
    Message('note_on', channel=6, note=71, velocity=95, time=0),
    Message('note_off', channel=6, note=71, velocity=95, time=240),
    Message('pitchwheel', channel=7, pitch=0, time=0),
    Message('note_on', channel=7, note=69, velocity=95, time=0),
    Message('pitchwheel', channel=7, pitch=128, time=13),
    Message('pitchwheel', channel=7, pitch=256, time=13),
    Message('pitchwheel', channel=7, pitch=384, time=13),
    Message('pitchwheel', channel=7, pitch=512, time=13),
    Message('pitchwheel', channel=7, pitch=640, time=13),
    Message('pitchwheel', channel=7, pitch=768, time=13),
    Message('pitchwheel', channel=7, pitch=896, time=13),
    Message('pitchwheel', channel=7, pitch=1024, time=13),
    Message('pitchwheel', channel=7, pitch=1152, time=13),
    Message('pitchwheel', channel=7, pitch=1280, time=13),
    Message('pitchwheel', channel=7, pitch=1408, time=13),
    Message('pitchwheel', channel=7, pitch=1408, time=7),
    Message('pitchwheel', channel=7, pitch=1408, time=150),
    Message('pitchwheel', channel=7, pitch=1280, time=13),
    Message('pitchwheel', channel=7, pitch=1152, time=13),
    Message('pitchwheel', channel=7, pitch=1024, time=13),
    Message('pitchwheel', channel=7, pitch=896, time=13),
    Message('pitchwheel', channel=7, pitch=768, time=13),
    Message('pitchwheel', channel=7, pitch=640, time=13),
    Message('pitchwheel', channel=7, pitch=512, time=13),
    Message('pitchwheel', channel=7, pitch=384, time=13),
    Message('pitchwheel', channel=7, pitch=256, time=13),
    Message('pitchwheel', channel=7, pitch=128, time=13),
    Message('pitchwheel', channel=7, pitch=0, time=13),
    Message('pitchwheel', channel=7, pitch=0, time=7),
    Message('pitchwheel', channel=7, pitch=0, time=150),
    Message('pitchwheel', channel=7, pitch=0, time=0),
    Message('note_off', channel=7, note=69, velocity=95, time=0),
    Message('note_on', channel=6, note=67, velocity=95, time=0),
    Message('note_off', channel=6, note=67, velocity=95, time=120),
    Message('note_on', channel=6, note=69, velocity=95, time=0),
    Message('note_off', channel=6, note=69, velocity=95, time=240),
    Message('note_on', channel=6, note=67, velocity=95, time=0),
    Message('note_off', channel=6, note=67, velocity=95, time=240),
    Message('note_on', channel=6, note=64, velocity=95, time=0),
    Message('note_off', channel=6, note=64, velocity=95, time=240),
    Message('note_on', channel=6, note=67, velocity=95, time=0),
    Message('note_off', channel=6, note=67, velocity=95, time=240),
    Message('note_on', channel=7, note=64, velocity=95, time=0),
    Message('note_off', channel=7, note=64, velocity=95, time=480),
    Message('pitchwheel', channel=7, pitch=0, time=0),
    Message('note_on', channel=7, note=70, velocity=95, time=0),
    Message('pitchwheel', channel=7, pitch=128, time=48),
    Message('pitchwheel', channel=7, pitch=256, time=48),
    Message('pitchwheel', channel=7, pitch=384, time=48),
    Message('pitchwheel', channel=7, pitch=512, time=48),
    Message('pitchwheel', channel=7, pitch=640, time=48),
    Message('pitchwheel', channel=7, pitch=640, time=0),
    Message('pitchwheel', channel=7, pitch=640, time=240),
    Message('pitchwheel', channel=7, pitch=0, time=0),
    Message('note_off', channel=7, note=70, velocity=95, time=0),
    Message('note_on', channel=6, note=71, velocity=95, time=0),
    Message('note_off', channel=6, note=71, velocity=95, time=480),
    Message('note_on', channel=6, note=69, velocity=95, time=0),
    Message('note_off', channel=6, note=69, velocity=95, time=240),
    Message('note_on', channel=6, note=67, velocity=95, time=0),
    Message('note_off', channel=6, note=67, velocity=95, time=240),
    Message('note_on', channel=7, note=64, velocity=95, time=0),
    Message('pitchwheel', channel=7, pitch=0, time=160),
    Message('pitchwheel', channel=7, pitch=128, time=160),
    Message('pitchwheel', channel=7, pitch=0, time=160),
    Message('pitchwheel', channel=7, pitch=128, time=0),
    Message('pitchwheel', channel=7, pitch=0, time=0),
    Message('note_off', channel=7, note=64, velocity=95, time=0),
    Message('note_on', channel=6, note=64, velocity=95, time=0),
    Message('note_off', channel=6, note=64, velocity=95, time=240),
    Message('note_on', channel=6, note=67, velocity=95, time=0),
    Message('note_off', channel=6, note=67, velocity=95, time=240),
    Message('note_on', channel=6, note=67, velocity=95, time=0),
    Message('note_off', channel=6, note=67, velocity=95, time=240),
    Message('note_on', channel=6, note=69, velocity=95, time=0),
    Message('note_off', channel=6, note=69, velocity=95, time=240),
    Message('note_on', channel=6, note=69, velocity=95, time=0),
    Message('note_off', channel=6, note=69, velocity=95, time=240),
    Message('note_on', channel=6, note=67, velocity=95, time=0),
    Message('note_off', channel=6, note=67, velocity=95, time=240),
    Message('note_on', channel=7, note=64, velocity=95, time=0),
    Message('pitchwheel', channel=7, pitch=0, time=160),
    Message('pitchwheel', channel=7, pitch=128, time=160),
    Message('pitchwheel', channel=7, pitch=0, time=160),
    Message('pitchwheel', channel=7, pitch=128, time=0),
    Message('pitchwheel', channel=7, pitch=0, time=0),
    Message('note_off', channel=7, note=64, velocity=95, time=0),
    Message('note_on', channel=6, note=64, velocity=95, time=0),
    Message('note_off', channel=6, note=64, velocity=95, time=240),
    Message('note_on', channel=6, note=67, velocity=95, time=0),
    Message('note_off', channel=6, note=67, velocity=95, time=240),
    Message('note_on', channel=6, note=67, velocity=95, time=0),
    Message('note_off', channel=6, note=67, velocity=95, time=240),
    Message('note_on', channel=6, note=69, velocity=95, time=0),
    Message('note_off', channel=6, note=69, velocity=95, time=240),
    Message('note_on', channel=6, note=69, velocity=95, time=0),
    Message('note_off', channel=6, note=69, velocity=95, time=240),
    Message('note_on', channel=6, note=67, velocity=95, time=0),
    Message('note_off', channel=6, note=67, velocity=95, time=240),
    Message('note_on', channel=6, note=64, velocity=95, time=0),
    Message('note_off', channel=6, note=64, velocity=95, time=240),
    Message('note_on', channel=6, note=67, velocity=95, time=0),
    Message('note_off', channel=6, note=67, velocity=95, time=240),
    Message('pitchwheel', channel=7, pitch=0, time=0),
    Message('note_on', channel=7, note=70, velocity=95, time=0),
    Message('pitchwheel', channel=7, pitch=128, time=36),
    Message('pitchwheel', channel=7, pitch=256, time=36),
    Message('pitchwheel', channel=7, pitch=384, time=36),
    Message('pitchwheel', channel=7, pitch=512, time=36),
    Message('pitchwheel', channel=7, pitch=640, time=36),
    Message('pitchwheel', channel=7, pitch=640, time=0),
    Message('pitchwheel', channel=7, pitch=640, time=180),
    Message('pitchwheel', channel=7, pitch=0, time=0),
    Message('note_off', channel=7, note=70, velocity=95, time=0),
    Message('note_on', channel=6, note=71, velocity=95, time=0),
    Message('note_off', channel=6, note=71, velocity=95, time=360),
    Message('note_on', channel=6, note=71, velocity=95, time=0),
    Message('note_off', channel=6, note=71, velocity=95, time=240),
    Message('pitchwheel', channel=7, pitch=0, time=0),
    Message('note_on', channel=7, note=69, velocity=95, time=0),
    Message('pitchwheel', channel=7, pitch=128, time=32),
    Message('pitchwheel', channel=7, pitch=256, time=32),
    Message('pitchwheel', channel=7, pitch=384, time=32),
    Message('pitchwheel', channel=7, pitch=512, time=32),
    Message('pitchwheel', channel=7, pitch=640, time=32),
    Message('pitchwheel', channel=7, pitch=768, time=32),
    Message('pitchwheel', channel=7, pitch=896, time=32),
    Message('pitchwheel', channel=7, pitch=1024, time=32),
    Message('pitchwheel', channel=7, pitch=1152, time=32),
    Message('pitchwheel', channel=7, pitch=1280, time=32),
    Message('pitchwheel', channel=7, pitch=1408, time=32),
    Message('pitchwheel', channel=7, pitch=1408, time=8),
    Message('pitchwheel', channel=7, pitch=1408, time=360),
    Message('pitchwheel', channel=7, pitch=0, time=0),
    Message('note_off', channel=7, note=69, velocity=95, time=0),
    Message('pitchwheel', channel=7, pitch=0, time=240),
    Message('note_on', channel=7, note=74, velocity=95, time=0),
    Message('pitchwheel', channel=7, pitch=128, time=10),
    Message('pitchwheel', channel=7, pitch=256, time=10),
    Message('pitchwheel', channel=7, pitch=384, time=10),
    Message('pitchwheel', channel=7, pitch=512, time=10),
    Message('pitchwheel', channel=7, pitch=640, time=10),
    Message('pitchwheel', channel=7, pitch=768, time=10),
    Message('pitchwheel', channel=7, pitch=896, time=10),
    Message('pitchwheel', channel=7, pitch=1024, time=10),
    Message('pitchwheel', channel=7, pitch=1152, time=10),
    Message('pitchwheel', channel=7, pitch=1280, time=10),
    Message('pitchwheel', channel=7, pitch=1408, time=10),
    Message('pitchwheel', channel=7, pitch=1408, time=10),
    Message('pitchwheel', channel=7, pitch=1408, time=120),
    Message('pitchwheel', channel=7, pitch=0, time=0),
    Message('note_off', channel=7, note=74, velocity=95, time=0),
    Message('note_on', channel=6, note=76, velocity=95, time=0),
    Message('note_off', channel=6, note=76, velocity=95, time=240),
    Message('note_on', channel=6, note=76, velocity=95, time=0),
    Message('note_off', channel=6, note=76, velocity=95, time=240),
    Message('note_on', channel=6, note=76, velocity=95, time=0),
    Message('note_off', channel=6, note=76, velocity=95, time=240),
    Message('pitchwheel', channel=7, pitch=0, time=0),
    Message('note_on', channel=7, note=74, velocity=95, time=0),
    Message('pitchwheel', channel=7, pitch=128, time=10),
    Message('pitchwheel', channel=7, pitch=256, time=10),
    Message('pitchwheel', channel=7, pitch=384, time=10),
    Message('pitchwheel', channel=7, pitch=512, time=10),
    Message('pitchwheel', channel=7, pitch=640, time=10),
    Message('pitchwheel', channel=7, pitch=768, time=10),
    Message('pitchwheel', channel=7, pitch=896, time=10),
    Message('pitchwheel', channel=7, pitch=1024, time=10),
    Message('pitchwheel', channel=7, pitch=1152, time=10),
    Message('pitchwheel', channel=7, pitch=1280, time=10),
    Message('pitchwheel', channel=7, pitch=1408, time=10),
    Message('pitchwheel', channel=7, pitch=1408, time=10),
    Message('pitchwheel', channel=7, pitch=1408, time=120),
    Message('pitchwheel', channel=7, pitch=0, time=0),
    Message('note_off', channel=7, note=74, velocity=95, time=0),
    Message('note_on', channel=6, note=76, velocity=95, time=0),
    Message('note_off', channel=6, note=76, velocity=95, time=240),
    Message('note_on', channel=6, note=76, velocity=95, time=0),
    Message('note_off', channel=6, note=76, velocity=95, time=480),
    Message('pitchwheel', channel=7, pitch=0, time=240),
    Message('note_on', channel=7, note=77, velocity=95, time=0),
    Message('pitchwheel', channel=7, pitch=128, time=10),
    Message('pitchwheel', channel=7, pitch=256, time=10),
    Message('pitchwheel', channel=7, pitch=384, time=10),
    Message('pitchwheel', channel=7, pitch=512, time=10),
    Message('pitchwheel', channel=7, pitch=640, time=10),
    Message('pitchwheel', channel=7, pitch=768, time=10),
    Message('pitchwheel', channel=7, pitch=896, time=10),
    Message('pitchwheel', channel=7, pitch=1024, time=10),
    Message('pitchwheel', channel=7, pitch=1152, time=10),
    Message('pitchwheel', channel=7, pitch=1280, time=10),
    Message('pitchwheel', channel=7, pitch=1408, time=10),
    Message('pitchwheel', channel=7, pitch=1408, time=10),
    Message('pitchwheel', channel=7, pitch=1408, time=120),
    Message('pitchwheel', channel=7, pitch=0, time=0),
    Message('note_off', channel=7, note=77, velocity=95, time=0),
    Message('note_on', channel=6, note=79, velocity=95, time=0),
    Message('note_off', channel=6, note=79, velocity=95, time=240),
    Message('note_on', channel=6, note=79, velocity=95, time=0),
    Message('note_off', channel=6, note=79, velocity=95, time=240),
    Message('pitchwheel', channel=7, pitch=0, time=0),
    Message('note_on', channel=7, note=77, velocity=95, time=0),
    Message('pitchwheel', channel=7, pitch=128, time=10),
    Message('pitchwheel', channel=7, pitch=256, time=10),
    Message('pitchwheel', channel=7, pitch=384, time=10),
    Message('pitchwheel', channel=7, pitch=512, time=10),
    Message('pitchwheel', channel=7, pitch=640, time=10),
    Message('pitchwheel', channel=7, pitch=768, time=10),
    Message('pitchwheel', channel=7, pitch=896, time=10),
    Message('pitchwheel', channel=7, pitch=1024, time=10),
    Message('pitchwheel', channel=7, pitch=1152, time=10),
    Message('pitchwheel', channel=7, pitch=1280, time=10),
    Message('pitchwheel', channel=7, pitch=1408, time=10),
    Message('pitchwheel', channel=7, pitch=1408, time=10),
    Message('pitchwheel', channel=7, pitch=1408, time=120),
    Message('pitchwheel', channel=7, pitch=0, time=0),
    Message('note_off', channel=7, note=77, velocity=95, time=0),
    Message('note_on', channel=6, note=79, velocity=95, time=0),
    Message('note_off', channel=6, note=79, velocity=95, time=240),
    Message('note_on', channel=6, note=79, velocity=95, time=0),
    Message('note_off', channel=6, note=79, velocity=95, time=240),
    Message('note_on', channel=6, note=79, velocity=95, time=0),
    Message('note_off', channel=6, note=79, velocity=95, time=240),
    Message('note_on', channel=6, note=78, velocity=95, time=0),
    Message('note_off', channel=6, note=78, velocity=95, time=240),
    Message('pitchwheel', channel=7, pitch=0, time=0),
    Message('note_on', channel=7, note=76, velocity=95, time=0),
    Message('pitchwheel', channel=7, pitch=128, time=10),
    Message('pitchwheel', channel=7, pitch=256, time=10),
    Message('pitchwheel', channel=7, pitch=384, time=10),
    Message('pitchwheel', channel=7, pitch=512, time=10),
    Message('pitchwheel', channel=7, pitch=640, time=10),
    Message('pitchwheel', channel=7, pitch=768, time=10),
    Message('pitchwheel', channel=7, pitch=896, time=10),
    Message('pitchwheel', channel=7, pitch=1024, time=10),
    Message('pitchwheel', channel=7, pitch=1152, time=10),
    Message('pitchwheel', channel=7, pitch=1280, time=10),
    Message('pitchwheel', channel=7, pitch=1408, time=10),
    Message('pitchwheel', channel=7, pitch=1408, time=10),
    Message('pitchwheel', channel=7, pitch=1408, time=120),
    Message('pitchwheel', channel=7, pitch=0, time=0),
    Message('note_off', channel=7, note=76, velocity=95, time=0),
    Message('note_on', channel=6, note=78, velocity=95, time=0),
    Message('note_off', channel=6, note=78, velocity=95, time=240),
    Message('note_on', channel=6, note=78, velocity=95, time=0),
    Message('note_off', channel=6, note=78, velocity=95, time=240),
    Message('pitchwheel', channel=7, pitch=0, time=0),
    Message('note_on', channel=7, note=76, velocity=95, time=0),
    Message('pitchwheel', channel=7, pitch=128, time=10),
    Message('pitchwheel', channel=7, pitch=256, time=10),
    Message('pitchwheel', channel=7, pitch=384, time=10),
    Message('pitchwheel', channel=7, pitch=512, time=10),
    Message('pitchwheel', channel=7, pitch=640, time=10),
    Message('pitchwheel', channel=7, pitch=768, time=10),
    Message('pitchwheel', channel=7, pitch=896, time=10),
    Message('pitchwheel', channel=7, pitch=1024, time=10),
    Message('pitchwheel', channel=7, pitch=1152, time=10),
    Message('pitchwheel', channel=7, pitch=1280, time=10),
    Message('pitchwheel', channel=7, pitch=1408, time=10),
    Message('pitchwheel', channel=7, pitch=1408, time=10),
    Message('pitchwheel', channel=7, pitch=1408, time=120),
    Message('pitchwheel', channel=7, pitch=0, time=0),
    Message('note_off', channel=7, note=76, velocity=95, time=0),
    Message('note_on', channel=6, note=78, velocity=95, time=0),
    Message('note_off', channel=6, note=78, velocity=95, time=240),
    Message('note_on', channel=6, note=78, velocity=95, time=0),
    Message('note_off', channel=6, note=78, velocity=95, time=240),
    Message('note_on', channel=6, note=78, velocity=95, time=0),
    Message('note_off', channel=6, note=78, velocity=95, time=240),
    Message('note_on', channel=6, note=76, velocity=95, time=0),
    Message('note_off', channel=6, note=76, velocity=95, time=240),
    Message('pitchwheel', channel=7, pitch=0, time=0),
    Message('note_on', channel=7, note=74, velocity=95, time=0),
    Message('pitchwheel', channel=7, pitch=128, time=10),
    Message('pitchwheel', channel=7, pitch=256, time=10),
    Message('pitchwheel', channel=7, pitch=384, time=10),
    Message('pitchwheel', channel=7, pitch=512, time=10),
    Message('pitchwheel', channel=7, pitch=640, time=10),
    Message('pitchwheel', channel=7, pitch=768, time=10),
    Message('pitchwheel', channel=7, pitch=896, time=10),
    Message('pitchwheel', channel=7, pitch=1024, time=10),
    Message('pitchwheel', channel=7, pitch=1152, time=10),
    Message('pitchwheel', channel=7, pitch=1280, time=10),
    Message('pitchwheel', channel=7, pitch=1408, time=10),
    Message('pitchwheel', channel=7, pitch=1408, time=10),
    Message('pitchwheel', channel=7, pitch=1408, time=120),
    Message('pitchwheel', channel=7, pitch=0, time=0),
    Message('note_off', channel=7, note=74, velocity=95, time=0),
    Message('note_on', channel=6, note=76, velocity=95, time=0),
    Message('note_off', channel=6, note=76, velocity=95, time=240),
    Message('note_on', channel=6, note=76, velocity=95, time=0),
    Message('note_off', channel=6, note=76, velocity=95, time=240),
    Message('pitchwheel', channel=7, pitch=0, time=0),
    Message('note_on', channel=7, note=74, velocity=95, time=0),
    Message('pitchwheel', channel=7, pitch=128, time=10),
    Message('pitchwheel', channel=7, pitch=256, time=10),
    Message('pitchwheel', channel=7, pitch=384, time=10),
    Message('pitchwheel', channel=7, pitch=512, time=10),
    Message('pitchwheel', channel=7, pitch=640, time=10),
    Message('pitchwheel', channel=7, pitch=768, time=10),
    Message('pitchwheel', channel=7, pitch=896, time=10),
    Message('pitchwheel', channel=7, pitch=1024, time=10),
    Message('pitchwheel', channel=7, pitch=1152, time=10),
    Message('pitchwheel', channel=7, pitch=1280, time=10),
    Message('pitchwheel', channel=7, pitch=1408, time=10),
    Message('pitchwheel', channel=7, pitch=1408, time=10),
    Message('pitchwheel', channel=7, pitch=1408, time=120),
    Message('pitchwheel', channel=7, pitch=0, time=0),
    Message('note_off', channel=7, note=74, velocity=95, time=0),
    Message('note_on', channel=6, note=76, velocity=95, time=0),
    Message('note_off', channel=6, note=76, velocity=95, time=240),
    Message('note_on', channel=6, note=76, velocity=95, time=0),
    Message('note_off', channel=6, note=76, velocity=95, time=240),
    Message('note_on', channel=6, note=76, velocity=95, time=0),
    Message('note_off', channel=6, note=76, velocity=95, time=240),
    Message('note_on', channel=6, note=74, velocity=95, time=0),
    Message('note_off', channel=6, note=74, velocity=95, time=120),
    Message('note_on', channel=6, note=71, velocity=70, time=0),
    Message('note_off', channel=6, note=71, velocity=70, time=120),
    Message('pitchwheel', channel=7, pitch=0, time=0),
    Message('note_on', channel=7, note=74, velocity=95, time=0),
    Message('pitchwheel', channel=7, pitch=128, time=10),
    Message('pitchwheel', channel=7, pitch=256, time=10),
    Message('pitchwheel', channel=7, pitch=384, time=10),
    Message('pitchwheel', channel=7, pitch=512, time=10),
    Message('pitchwheel', channel=7, pitch=640, time=10),
    Message('pitchwheel', channel=7, pitch=768, time=10),
    Message('pitchwheel', channel=7, pitch=896, time=10),
    Message('pitchwheel', channel=7, pitch=1024, time=10),
    Message('pitchwheel', channel=7, pitch=1152, time=10),
    Message('pitchwheel', channel=7, pitch=1280, time=10),
    Message('pitchwheel', channel=7, pitch=1408, time=10),
    Message('pitchwheel', channel=7, pitch=1408, time=10),
    Message('pitchwheel', channel=7, pitch=1408, time=120),
    Message('pitchwheel', channel=7, pitch=0, time=0),
    Message('note_off', channel=7, note=74, velocity=95, time=0),
    Message('note_on', channel=6, note=76, velocity=95, time=0),
    Message('note_off', channel=6, note=76, velocity=95, time=240),
    Message('note_on', channel=6, note=76, velocity=95, time=0),
    Message('note_off', channel=6, note=76, velocity=95, time=240),
    Message('pitchwheel', channel=7, pitch=0, time=0),
    Message('note_on', channel=7, note=74, velocity=95, time=0),
    Message('pitchwheel', channel=7, pitch=128, time=10),
    Message('pitchwheel', channel=7, pitch=256, time=10),
    Message('pitchwheel', channel=7, pitch=384, time=10),
    Message('pitchwheel', channel=7, pitch=512, time=10),
    Message('pitchwheel', channel=7, pitch=640, time=10),
    Message('pitchwheel', channel=7, pitch=768, time=10),
    Message('pitchwheel', channel=7, pitch=896, time=10),
    Message('pitchwheel', channel=7, pitch=1024, time=10),
    Message('pitchwheel', channel=7, pitch=1152, time=10),
    Message('pitchwheel', channel=7, pitch=1280, time=10),
    Message('pitchwheel', channel=7, pitch=1408, time=10),
    Message('pitchwheel', channel=7, pitch=1408, time=10),
    Message('pitchwheel', channel=7, pitch=1408, time=120),
    Message('pitchwheel', channel=7, pitch=0, time=0),
    Message('note_off', channel=7, note=74, velocity=95, time=0),
    Message('note_on', channel=6, note=76, velocity=95, time=0),
    Message('note_off', channel=6, note=76, velocity=95, time=240),
    Message('note_on', channel=6, note=76, velocity=95, time=0),
    Message('note_off', channel=6, note=76, velocity=95, time=240),
    Message('note_on', channel=6, note=76, velocity=95, time=0),
    Message('note_off', channel=6, note=76, velocity=95, time=38),
    Message('pitchwheel', channel=7, pitch=0, time=442),
    Message('note_on', channel=7, note=77, velocity=95, time=0),
    Message('pitchwheel', channel=7, pitch=128, time=10),
    Message('pitchwheel', channel=7, pitch=256, time=10),
    Message('pitchwheel', channel=7, pitch=384, time=10),
    Message('pitchwheel', channel=7, pitch=512, time=10),
    Message('pitchwheel', channel=7, pitch=640, time=10),
    Message('pitchwheel', channel=7, pitch=768, time=10),
    Message('pitchwheel', channel=7, pitch=896, time=10),
    Message('pitchwheel', channel=7, pitch=1024, time=10),
    Message('pitchwheel', channel=7, pitch=1152, time=10),
    Message('pitchwheel', channel=7, pitch=1280, time=10),
    Message('pitchwheel', channel=7, pitch=1408, time=10),
    Message('pitchwheel', channel=7, pitch=1408, time=10),
    Message('pitchwheel', channel=7, pitch=1408, time=120),
    Message('pitchwheel', channel=7, pitch=0, time=0),
    Message('note_off', channel=7, note=77, velocity=95, time=0),
    Message('note_on', channel=6, note=79, velocity=95, time=0),
    Message('note_off', channel=6, note=79, velocity=95, time=240),
    Message('note_on', channel=6, note=79, velocity=95, time=0),
    Message('note_off', channel=6, note=79, velocity=95, time=240),
    Message('pitchwheel', channel=7, pitch=0, time=0),
    Message('note_on', channel=7, note=77, velocity=95, time=0),
    Message('pitchwheel', channel=7, pitch=128, time=10),
    Message('pitchwheel', channel=7, pitch=256, time=10),
    Message('pitchwheel', channel=7, pitch=384, time=10),
    Message('pitchwheel', channel=7, pitch=512, time=10),
    Message('pitchwheel', channel=7, pitch=640, time=10),
    Message('pitchwheel', channel=7, pitch=768, time=10),
    Message('pitchwheel', channel=7, pitch=896, time=10),
    Message('pitchwheel', channel=7, pitch=1024, time=10),
    Message('pitchwheel', channel=7, pitch=1152, time=10),
    Message('pitchwheel', channel=7, pitch=1280, time=10),
    Message('pitchwheel', channel=7, pitch=1408, time=10),
    Message('pitchwheel', channel=7, pitch=1408, time=10),
    Message('pitchwheel', channel=7, pitch=1408, time=120),
    Message('pitchwheel', channel=7, pitch=0, time=0),
    Message('note_off', channel=7, note=77, velocity=95, time=0),
    Message('note_on', channel=6, note=79, velocity=95, time=0),
    Message('note_off', channel=6, note=79, velocity=95, time=240),
    Message('note_on', channel=6, note=79, velocity=95, time=0),
    Message('note_off', channel=6, note=79, velocity=95, time=480),
    Message('note_on', channel=6, note=76, velocity=95, time=0),
    Message('note_off', channel=6, note=76, velocity=95, time=240),
    Message('note_on', channel=6, note=79, velocity=95, time=0),
    Message('note_off', channel=6, note=79, velocity=95, time=240),
    Message('note_on', channel=6, note=76, velocity=79, time=0),
    Message('note_off', channel=6, note=76, velocity=79, time=240),
    Message('note_on', channel=6, note=74, velocity=95, time=0),
    Message('note_off', channel=6, note=74, velocity=95, time=240),
    Message('note_on', channel=6, note=76, velocity=95, time=0),
    Message('note_off', channel=6, note=76, velocity=95, time=240),
    Message('note_on', channel=6, note=79, velocity=95, time=0),
    Message('note_off', channel=6, note=79, velocity=95, time=240),
    Message('note_on', channel=6, note=76, velocity=95, time=0),
    Message('note_off', channel=6, note=76, velocity=95, time=240),
    Message('pitchwheel', channel=7, pitch=0, time=0),
    Message('note_on', channel=7, note=79, velocity=95, time=0),
    Message('pitchwheel', channel=7, pitch=128, time=21),
    Message('pitchwheel', channel=7, pitch=256, time=21),
    Message('pitchwheel', channel=7, pitch=384, time=21),
    Message('pitchwheel', channel=7, pitch=512, time=21),
    Message('pitchwheel', channel=7, pitch=640, time=21),
    Message('pitchwheel', channel=7, pitch=768, time=21),
    Message('pitchwheel', channel=7, pitch=896, time=21),
    Message('pitchwheel', channel=7, pitch=1024, time=21),
    Message('pitchwheel', channel=7, pitch=1152, time=21),
    Message('pitchwheel', channel=7, pitch=1280, time=21),
    Message('pitchwheel', channel=7, pitch=1408, time=21),
    Message('pitchwheel', channel=7, pitch=1408, time=9),
    Message('pitchwheel', channel=7, pitch=1408, time=240),
    Message('pitchwheel', channel=7, pitch=0, time=0),
    Message('note_off', channel=7, note=79, velocity=95, time=0),
    Message('note_on', channel=6, note=79, velocity=95, time=0),
    Message('note_off', channel=6, note=79, velocity=95, time=720),
    Message('pitchwheel', channel=7, pitch=0, time=0),
    Message('note_on', channel=7, note=55, velocity=95, time=0),
    Message('pitchwheel', channel=7, pitch=0, time=180),
    Message('pitchwheel', channel=7, pitch=-128, time=36),
    Message('pitchwheel', channel=7, pitch=-256, time=36),
    Message('pitchwheel', channel=7, pitch=-384, time=36),
    Message('pitchwheel', channel=7, pitch=-512, time=36),
    Message('pitchwheel', channel=7, pitch=-640, time=36),
    Message('pitchwheel', channel=7, pitch=-640, time=0),
    Message('pitchwheel', channel=7, pitch=-512, time=36),
    Message('pitchwheel', channel=7, pitch=-384, time=36),
    Message('pitchwheel', channel=7, pitch=-256, time=36),
    Message('pitchwheel', channel=7, pitch=-128, time=36),
    Message('pitchwheel', channel=7, pitch=0, time=36),
    Message('pitchwheel', channel=7, pitch=0, time=0),
    Message('pitchwheel', channel=7, pitch=0, time=180),
    Message('pitchwheel', channel=7, pitch=0, time=0),
    Message('note_off', channel=7, note=55, velocity=95, time=0),
    Message('pitchwheel', channel=7, pitch=0, time=240),
    Message('note_on', channel=7, note=79, velocity=95, time=0),
    Message('pitchwheel', channel=7, pitch=128, time=21),
    Message('pitchwheel', channel=7, pitch=256, time=21),
    Message('pitchwheel', channel=7, pitch=384, time=21),
    Message('pitchwheel', channel=7, pitch=512, time=21),
    Message('pitchwheel', channel=7, pitch=640, time=21),
    Message('pitchwheel', channel=7, pitch=768, time=21),
    Message('pitchwheel', channel=7, pitch=896, time=21),
    Message('pitchwheel', channel=7, pitch=1024, time=21),
    Message('pitchwheel', channel=7, pitch=1152, time=21),
    Message('pitchwheel', channel=7, pitch=1280, time=21),
    Message('pitchwheel', channel=7, pitch=1408, time=21),
    Message('pitchwheel', channel=7, pitch=1408, time=9),
    Message('pitchwheel', channel=7, pitch=1408, time=240),
    Message('pitchwheel', channel=7, pitch=0, time=0),
    Message('note_off', channel=7, note=79, velocity=95, time=0),
    Message('note_on', channel=6, note=79, velocity=95, time=0),
    Message('note_off', channel=6, note=79, velocity=95, time=480),
    Message('note_on', channel=6, note=76, velocity=95, time=0),
    Message('note_off', channel=6, note=76, velocity=95, time=240),
    Message('note_on', channel=6, note=79, velocity=95, time=0),
    Message('note_off', channel=6, note=79, velocity=95, time=240),
    Message('note_on', channel=6, note=76, velocity=95, time=0),
    Message('note_off', channel=6, note=76, velocity=95, time=240),
    Message('note_on', channel=6, note=76, velocity=95, time=0),
    Message('note_off', channel=6, note=76, velocity=95, time=240),
    Message('pitchwheel', channel=7, pitch=0, time=0),
    Message('note_on', channel=7, note=74, velocity=95, time=0),
    Message('pitchwheel', channel=7, pitch=128, time=10),
    Message('pitchwheel', channel=7, pitch=256, time=10),
    Message('pitchwheel', channel=7, pitch=384, time=10),
    Message('pitchwheel', channel=7, pitch=512, time=10),
    Message('pitchwheel', channel=7, pitch=640, time=10),
    Message('pitchwheel', channel=7, pitch=768, time=10),
    Message('pitchwheel', channel=7, pitch=896, time=10),
    Message('pitchwheel', channel=7, pitch=1024, time=10),
    Message('pitchwheel', channel=7, pitch=1152, time=10),
    Message('pitchwheel', channel=7, pitch=1280, time=10),
    Message('pitchwheel', channel=7, pitch=1408, time=10),
    Message('pitchwheel', channel=7, pitch=1408, time=10),
    Message('pitchwheel', channel=7, pitch=1408, time=120),
    Message('pitchwheel', channel=7, pitch=0, time=0),
    Message('note_off', channel=7, note=74, velocity=95, time=0),
    Message('note_on', channel=6, note=76, velocity=95, time=0),
    Message('note_off', channel=6, note=76, velocity=95, time=240),
    Message('note_on', channel=6, note=74, velocity=95, time=0),
    Message('note_off', channel=6, note=74, velocity=95, time=120),
    Message('note_on', channel=6, note=71, velocity=70, time=0),
    Message('note_off', channel=6, note=71, velocity=70, time=120),
    Message('note_on', channel=6, note=69, velocity=95, time=0),
    Message('note_off', channel=6, note=69, velocity=95, time=120),
    Message('note_on', channel=6, note=71, velocity=70, time=0),
    Message('note_off', channel=6, note=71, velocity=70, time=120),
    Message('pitchwheel', channel=7, pitch=0, time=0),
    Message('note_on', channel=7, note=69, velocity=95, time=0),
    Message('pitchwheel', channel=7, pitch=128, time=43),
    Message('pitchwheel', channel=7, pitch=256, time=43),
    Message('pitchwheel', channel=7, pitch=384, time=43),
    Message('pitchwheel', channel=7, pitch=512, time=43),
    Message('pitchwheel', channel=7, pitch=640, time=43),
    Message('pitchwheel', channel=7, pitch=768, time=43),
    Message('pitchwheel', channel=7, pitch=896, time=43),
    Message('pitchwheel', channel=7, pitch=1024, time=43),
    Message('pitchwheel', channel=7, pitch=1152, time=43),
    Message('pitchwheel', channel=7, pitch=1280, time=43),
    Message('pitchwheel', channel=7, pitch=1408, time=43),
    Message('pitchwheel', channel=7, pitch=1408, time=7),
    Message('pitchwheel', channel=7, pitch=1408, time=480),
    Message('pitchwheel', channel=7, pitch=0, time=0),
    Message('note_off', channel=7, note=69, velocity=95, time=0),
    Message('pitchwheel', channel=7, pitch=0, time=0),
    Message('note_on', channel=7, note=69, velocity=95, time=0),
    Message('pitchwheel', channel=7, pitch=128, time=10),
    Message('pitchwheel', channel=7, pitch=256, time=10),
    Message('pitchwheel', channel=7, pitch=384, time=10),
    Message('pitchwheel', channel=7, pitch=512, time=10),
    Message('pitchwheel', channel=7, pitch=640, time=10),
    Message('pitchwheel', channel=7, pitch=768, time=10),
    Message('pitchwheel', channel=7, pitch=896, time=10),
    Message('pitchwheel', channel=7, pitch=1024, time=10),
    Message('pitchwheel', channel=7, pitch=1152, time=10),
    Message('pitchwheel', channel=7, pitch=1280, time=10),
    Message('pitchwheel', channel=7, pitch=1408, time=10),
    Message('pitchwheel', channel=7, pitch=1408, time=10),
    Message('pitchwheel', channel=7, pitch=1408, time=120),
    Message('pitchwheel', channel=7, pitch=1280, time=10),
    Message('pitchwheel', channel=7, pitch=1152, time=10),
    Message('pitchwheel', channel=7, pitch=1024, time=10),
    Message('pitchwheel', channel=7, pitch=896, time=10),
    Message('pitchwheel', channel=7, pitch=768, time=10),
    Message('pitchwheel', channel=7, pitch=640, time=10),
    Message('pitchwheel', channel=7, pitch=512, time=10),
    Message('pitchwheel', channel=7, pitch=384, time=10),
    Message('pitchwheel', channel=7, pitch=256, time=10),
    Message('pitchwheel', channel=7, pitch=128, time=10),
    Message('pitchwheel', channel=7, pitch=0, time=10),
    Message('pitchwheel', channel=7, pitch=0, time=10),
    Message('pitchwheel', channel=7, pitch=0, time=120),
    Message('pitchwheel', channel=7, pitch=0, time=0),
    Message('note_off', channel=7, note=69, velocity=95, time=0),
    Message('note_on', channel=6, note=67, velocity=95, time=0),
    Message('note_off', channel=6, note=67, velocity=95, time=240),
    Message('note_on', channel=6, note=64, velocity=95, time=0),
    Message('note_off', channel=6, note=64, velocity=95, time=240),
    Message('note_on', channel=6, note=67, velocity=95, time=0),
    Message('note_off', channel=6, note=67, velocity=95, time=240),
    Message('note_on', channel=6, note=69, velocity=95, time=0),
    Message('note_off', channel=6, note=69, velocity=95, time=240),
    Message('note_on', channel=6, note=67, velocity=95, time=0),
    Message('note_off', channel=6, note=67, velocity=95, time=240),
    Message('note_on', channel=6, note=64, velocity=95, time=0),
    Message('note_off', channel=6, note=64, velocity=95, time=240),
    Message('note_on', channel=6, note=73, velocity=95, time=0),
    Message('note_on', channel=6, note=69, velocity=95, time=0),
    Message('note_off', channel=6, note=73, velocity=95, time=240),
    Message('note_off', channel=6, note=69, velocity=95, time=0),
    Message('note_on', channel=7, note=71, velocity=95, time=0),
    Message('note_on', channel=7, note=67, velocity=95, time=0),
    Message('pitchwheel', channel=7, pitch=0, time=160),
    Message('pitchwheel', channel=7, pitch=0, time=0),
    Message('pitchwheel', channel=7, pitch=128, time=160),
    Message('pitchwheel', channel=7, pitch=128, time=0),
    Message('pitchwheel', channel=7, pitch=0, time=160),
    Message('pitchwheel', channel=7, pitch=0, time=0),
    Message('pitchwheel', channel=7, pitch=128, time=160),
    Message('pitchwheel', channel=7, pitch=128, time=0),
    Message('pitchwheel', channel=7, pitch=0, time=80),
    Message('pitchwheel', channel=7, pitch=128, time=0),
    Message('pitchwheel', channel=7, pitch=0, time=0),
    Message('note_off', channel=7, note=71, velocity=95, time=0),
    Message('pitchwheel', channel=7, pitch=0, time=0),
    Message('pitchwheel', channel=7, pitch=128, time=0),
    Message('pitchwheel', channel=7, pitch=0, time=0),
    Message('note_off', channel=7, note=67, velocity=95, time=0),
    Message('note_on', channel=6, note=71, velocity=95, time=0),
    Message('note_on', channel=6, note=67, velocity=95, time=0),
    Message('note_off', channel=6, note=71, velocity=95, time=480),
    Message('note_off', channel=6, note=67, velocity=95, time=0),
    Message('note_on', channel=6, note=71, velocity=95, time=0),
    Message('note_on', channel=6, note=67, velocity=95, time=0),
    Message('note_off', channel=6, note=71, velocity=95, time=480),
    Message('note_off', channel=6, note=67, velocity=95, time=0),
    Message('pitchwheel', channel=7, pitch=0, time=0),
    Message('note_on', channel=7, note=70, velocity=95, time=0),
    Message('pitchwheel', channel=7, pitch=128, time=24),
    Message('pitchwheel', channel=7, pitch=256, time=24),
    Message('pitchwheel', channel=7, pitch=384, time=24),
    Message('pitchwheel', channel=7, pitch=512, time=24),
    Message('pitchwheel', channel=7, pitch=640, time=24),
    Message('pitchwheel', channel=7, pitch=640, time=0),
    Message('pitchwheel', channel=7, pitch=640, time=120),
    Message('pitchwheel', channel=7, pitch=0, time=0),
    Message('note_off', channel=7, note=70, velocity=95, time=0),
    Message('note_on', channel=6, note=76, velocity=95, time=0),
    Message('note_off', channel=6, note=76, velocity=95, time=240),
    Message('note_on', channel=6, note=74, velocity=95, time=0),
    Message('note_off', channel=6, note=74, velocity=95, time=120),
    Message('note_on', channel=6, note=71, velocity=54, time=0),
    Message('note_off', channel=6, note=71, velocity=54, time=120),
    Message('pitchwheel', channel=7, pitch=0, time=0),
    Message('note_on', channel=7, note=70, velocity=95, time=0),
    Message('pitchwheel', channel=7, pitch=128, time=24),
    Message('pitchwheel', channel=7, pitch=256, time=24),
    Message('pitchwheel', channel=7, pitch=384, time=24),
    Message('pitchwheel', channel=7, pitch=512, time=24),
    Message('pitchwheel', channel=7, pitch=640, time=24),
    Message('pitchwheel', channel=7, pitch=640, time=0),
    Message('pitchwheel', channel=7, pitch=640, time=120),
    Message('pitchwheel', channel=7, pitch=0, time=0),
    Message('note_off', channel=7, note=70, velocity=95, time=0),
    Message('note_on', channel=6, note=76, velocity=95, time=0),
    Message('note_off', channel=6, note=76, velocity=95, time=240),
    Message('note_on', channel=6, note=74, velocity=95, time=0),
    Message('note_off', channel=6, note=74, velocity=95, time=120),
    Message('note_on', channel=6, note=71, velocity=54, time=0),
    Message('note_off', channel=6, note=71, velocity=54, time=120),
    Message('pitchwheel', channel=7, pitch=0, time=0),
    Message('note_on', channel=7, note=70, velocity=95, time=0),
    Message('pitchwheel', channel=7, pitch=128, time=24),
    Message('pitchwheel', channel=7, pitch=256, time=24),
    Message('pitchwheel', channel=7, pitch=384, time=24),
    Message('pitchwheel', channel=7, pitch=512, time=24),
    Message('pitchwheel', channel=7, pitch=640, time=24),
    Message('pitchwheel', channel=7, pitch=640, time=0),
    Message('pitchwheel', channel=7, pitch=640, time=120),
    Message('pitchwheel', channel=7, pitch=0, time=0),
    Message('note_off', channel=7, note=70, velocity=95, time=0),
    Message('note_on', channel=6, note=76, velocity=95, time=0),
    Message('note_off', channel=6, note=76, velocity=95, time=240),
    Message('note_on', channel=6, note=74, velocity=95, time=0),
    Message('note_off', channel=6, note=74, velocity=95, time=120),
    Message('note_on', channel=6, note=71, velocity=54, time=0),
    Message('note_off', channel=6, note=71, velocity=54, time=120),
    Message('pitchwheel', channel=7, pitch=0, time=0),
    Message('note_on', channel=7, note=70, velocity=95, time=0),
    Message('pitchwheel', channel=7, pitch=128, time=24),
    Message('pitchwheel', channel=7, pitch=256, time=24),
    Message('pitchwheel', channel=7, pitch=384, time=24),
    Message('pitchwheel', channel=7, pitch=512, time=24),
    Message('pitchwheel', channel=7, pitch=640, time=24),
    Message('pitchwheel', channel=7, pitch=640, time=0),
    Message('pitchwheel', channel=7, pitch=640, time=120),
    Message('pitchwheel', channel=7, pitch=0, time=0),
    Message('note_off', channel=7, note=70, velocity=95, time=0),
    Message('note_on', channel=6, note=76, velocity=95, time=0),
    Message('note_off', channel=6, note=76, velocity=95, time=240),
    Message('note_on', channel=6, note=74, velocity=95, time=0),
    Message('note_off', channel=6, note=74, velocity=95, time=120),
    Message('note_on', channel=6, note=71, velocity=54, time=0),
    Message('note_off', channel=6, note=71, velocity=54, time=120),
    Message('pitchwheel', channel=7, pitch=0, time=0),
    Message('note_on', channel=7, note=70, velocity=95, time=0),
    Message('pitchwheel', channel=7, pitch=128, time=24),
    Message('pitchwheel', channel=7, pitch=256, time=24),
    Message('pitchwheel', channel=7, pitch=384, time=24),
    Message('pitchwheel', channel=7, pitch=512, time=24),
    Message('pitchwheel', channel=7, pitch=640, time=24),
    Message('pitchwheel', channel=7, pitch=640, time=0),
    Message('pitchwheel', channel=7, pitch=640, time=120),
    Message('pitchwheel', channel=7, pitch=0, time=0),
    Message('note_off', channel=7, note=70, velocity=95, time=0),
    Message('note_on', channel=6, note=76, velocity=95, time=0),
    Message('note_off', channel=6, note=76, velocity=95, time=240),
    Message('note_on', channel=6, note=74, velocity=95, time=0),
    Message('note_off', channel=6, note=74, velocity=95, time=120),
    Message('note_on', channel=6, note=71, velocity=54, time=0),
    Message('note_off', channel=6, note=71, velocity=54, time=120),
    Message('pitchwheel', channel=7, pitch=0, time=0),
    Message('note_on', channel=7, note=70, velocity=95, time=0),
    Message('pitchwheel', channel=7, pitch=128, time=24),
    Message('pitchwheel', channel=7, pitch=256, time=24),
    Message('pitchwheel', channel=7, pitch=384, time=24),
    Message('pitchwheel', channel=7, pitch=512, time=24),
    Message('pitchwheel', channel=7, pitch=640, time=24),
    Message('pitchwheel', channel=7, pitch=640, time=0),
    Message('pitchwheel', channel=7, pitch=640, time=120),
    Message('pitchwheel', channel=7, pitch=0, time=0),
    Message('note_off', channel=7, note=70, velocity=95, time=0),
    Message('note_on', channel=6, note=76, velocity=95, time=0),
    Message('note_off', channel=6, note=76, velocity=95, time=240),
    Message('note_on', channel=6, note=74, velocity=95, time=0),
    Message('note_off', channel=6, note=74, velocity=95, time=120),
    Message('note_on', channel=6, note=71, velocity=54, time=0),
    Message('note_off', channel=6, note=71, velocity=54, time=120),
    Message('pitchwheel', channel=7, pitch=0, time=0),
    Message('note_on', channel=7, note=70, velocity=95, time=0),
    Message('pitchwheel', channel=7, pitch=128, time=24),
    Message('pitchwheel', channel=7, pitch=256, time=24),
    Message('pitchwheel', channel=7, pitch=384, time=24),
    Message('pitchwheel', channel=7, pitch=512, time=24),
    Message('pitchwheel', channel=7, pitch=640, time=24),
    Message('pitchwheel', channel=7, pitch=640, time=0),
    Message('pitchwheel', channel=7, pitch=640, time=120),
    Message('pitchwheel', channel=7, pitch=0, time=0),
    Message('note_off', channel=7, note=70, velocity=95, time=0),
    Message('note_on', channel=6, note=76, velocity=95, time=0),
    Message('note_off', channel=6, note=76, velocity=95, time=240),
    Message('note_on', channel=6, note=74, velocity=95, time=0),
    Message('note_off', channel=6, note=74, velocity=95, time=120),
    Message('note_on', channel=6, note=71, velocity=54, time=0),
    Message('note_off', channel=6, note=71, velocity=54, time=120),
    Message('pitchwheel', channel=7, pitch=0, time=0),
    Message('note_on', channel=7, note=70, velocity=95, time=0),
    Message('pitchwheel', channel=7, pitch=128, time=24),
    Message('pitchwheel', channel=7, pitch=256, time=24),
    Message('pitchwheel', channel=7, pitch=384, time=24),
    Message('pitchwheel', channel=7, pitch=512, time=24),
    Message('pitchwheel', channel=7, pitch=640, time=24),
    Message('pitchwheel', channel=7, pitch=640, time=0),
    Message('pitchwheel', channel=7, pitch=640, time=120),
    Message('pitchwheel', channel=7, pitch=0, time=0),
    Message('note_off', channel=7, note=70, velocity=95, time=0),
    Message('note_on', channel=6, note=76, velocity=95, time=0),
    Message('note_off', channel=6, note=76, velocity=95, time=240),
    Message('note_on', channel=6, note=74, velocity=95, time=0),
    Message('note_off', channel=6, note=74, velocity=95, time=120),
    Message('note_on', channel=6, note=71, velocity=54, time=0),
    Message('note_off', channel=6, note=71, velocity=54, time=120),
    Message('note_on', channel=7, note=49, velocity=95, time=0),
    Message('pitchwheel', channel=7, pitch=-1024, time=120),
    Message('pitchwheel', channel=7, pitch=-2048, time=120),
    Message('pitchwheel', channel=7, pitch=-3072, time=120),
    Message('pitchwheel', channel=7, pitch=-4224, time=120),
    Message('pitchwheel', channel=7, pitch=-5248, time=120),
    Message('pitchwheel', channel=7, pitch=-6272, time=120),
    Message('pitchwheel', channel=7, pitch=0, time=0),
    Message('note_off', channel=7, note=49, velocity=95, time=0),
    Message('note_on', channel=7, note=40, velocity=47, time=0),
    Message('note_off', channel=7, note=40, velocity=47, time=720),
    Message('note_on', channel=6, note=59, velocity=95, time=0),
    Message('note_on', channel=6, note=55, velocity=95, time=0),
    Message('note_off', channel=6, note=59, velocity=95, time=240),
    Message('note_off', channel=6, note=55, velocity=95, time=0),
    Message('note_on', channel=6, note=64, velocity=95, time=0),
    Message('note_off', channel=6, note=64, velocity=95, time=240),
    Message('note_on', channel=6, note=73, velocity=95, time=0),
    Message('note_on', channel=6, note=69, velocity=95, time=0),
    Message('note_off', channel=6, note=73, velocity=95, time=240),
    Message('note_off', channel=6, note=69, velocity=95, time=0),
    Message('note_on', channel=7, note=71, velocity=95, time=0),
    Message('note_on', channel=7, note=67, velocity=95, time=0),
    Message('pitchwheel', channel=7, pitch=0, time=160),
    Message('pitchwheel', channel=7, pitch=0, time=0),
    Message('pitchwheel', channel=7, pitch=128, time=160),
    Message('pitchwheel', channel=7, pitch=128, time=0),
    Message('pitchwheel', channel=7, pitch=0, time=160),
    Message('pitchwheel', channel=7, pitch=0, time=0),
    Message('pitchwheel', channel=7, pitch=128, time=160),
    Message('pitchwheel', channel=7, pitch=128, time=0),
    Message('pitchwheel', channel=7, pitch=0, time=80),
    Message('pitchwheel', channel=7, pitch=128, time=0),
    Message('pitchwheel', channel=7, pitch=0, time=0),
    Message('note_off', channel=7, note=71, velocity=95, time=0),
    Message('pitchwheel', channel=7, pitch=0, time=0),
    Message('pitchwheel', channel=7, pitch=128, time=0),
    Message('pitchwheel', channel=7, pitch=0, time=0),
    Message('note_off', channel=7, note=67, velocity=95, time=0),
    Message('note_on', channel=6, note=64, velocity=95, time=0),
    Message('note_off', channel=6, note=64, velocity=95, time=240),
    Message('note_on', channel=6, note=62, velocity=95, time=0),
    Message('note_off', channel=6, note=62, velocity=95, time=240),
    Message('note_on', channel=7, note=59, velocity=95, time=0),
    Message('pitchwheel', channel=7, pitch=0, time=160),
    Message('pitchwheel', channel=7, pitch=128, time=160),
    Message('pitchwheel', channel=7, pitch=0, time=160),
    Message('pitchwheel', channel=7, pitch=128, time=0),
    Message('pitchwheel', channel=7, pitch=0, time=0),
    Message('note_off', channel=7, note=59, velocity=95, time=0),
    Message('note_on', channel=6, note=73, velocity=95, time=0),
    Message('note_on', channel=6, note=69, velocity=95, time=0),
    Message('note_off', channel=6, note=73, velocity=95, time=240),
    Message('note_off', channel=6, note=69, velocity=95, time=0),
    Message('note_on', channel=7, note=71, velocity=95, time=0),
    Message('note_on', channel=7, note=67, velocity=95, time=0),
    Message('pitchwheel', channel=7, pitch=0, time=160),
    Message('pitchwheel', channel=7, pitch=0, time=0),
    Message('pitchwheel', channel=7, pitch=128, time=160),
    Message('pitchwheel', channel=7, pitch=128, time=0),
    Message('pitchwheel', channel=7, pitch=0, time=160),
    Message('pitchwheel', channel=7, pitch=0, time=0),
    Message('pitchwheel', channel=7, pitch=128, time=160),
    Message('pitchwheel', channel=7, pitch=128, time=0),
    Message('pitchwheel', channel=7, pitch=0, time=80),
    Message('pitchwheel', channel=7, pitch=128, time=0),
    Message('pitchwheel', channel=7, pitch=0, time=0),
    Message('note_off', channel=7, note=71, velocity=95, time=0),
    Message('pitchwheel', channel=7, pitch=0, time=0),
    Message('pitchwheel', channel=7, pitch=128, time=0),
    Message('pitchwheel', channel=7, pitch=0, time=0),
    Message('note_off', channel=7, note=67, velocity=95, time=0),
    Message('note_on', channel=6, note=64, velocity=95, time=0),
    Message('note_off', channel=6, note=64, velocity=95, time=240),
    Message('note_on', channel=6, note=62, velocity=95, time=0),
    Message('note_off', channel=6, note=62, velocity=95, time=240),
    Message('note_on', channel=7, note=59, velocity=95, time=0),
    Message('pitchwheel', channel=7, pitch=0, time=160),
    Message('pitchwheel', channel=7, pitch=128, time=160),
    Message('pitchwheel', channel=7, pitch=0, time=160),
    Message('pitchwheel', channel=7, pitch=128, time=0),
    Message('pitchwheel', channel=7, pitch=0, time=0),
    Message('note_off', channel=7, note=59, velocity=95, time=0),
    Message('note_on', channel=7, note=69, velocity=95, time=0),
    Message('pitchwheel', channel=7, pitch=0, time=160),
    Message('pitchwheel', channel=7, pitch=128, time=160),
    Message('pitchwheel', channel=7, pitch=0, time=160),
    Message('pitchwheel', channel=7, pitch=128, time=0),
    Message('pitchwheel', channel=7, pitch=0, time=0),
    Message('note_off', channel=7, note=69, velocity=95, time=0),
    Message('note_on', channel=6, note=71, velocity=95, time=0),
    Message('note_on', channel=6, note=67, velocity=95, time=0),
    Message('note_off', channel=6, note=71, velocity=95, time=240),
    Message('note_off', channel=6, note=67, velocity=95, time=0),
    Message('note_on', channel=6, note=64, velocity=95, time=0),
    Message('note_off', channel=6, note=64, velocity=95, time=240),
    Message('note_on', channel=6, note=71, velocity=95, time=0),
    Message('note_on', channel=6, note=67, velocity=95, time=0),
    Message('note_off', channel=6, note=71, velocity=95, time=240),
    Message('note_off', channel=6, note=67, velocity=95, time=0),
    Message('note_on', channel=6, note=69, velocity=95, time=0),
    Message('note_off', channel=6, note=69, velocity=95, time=240),
    Message('note_on', channel=6, note=71, velocity=95, time=0),
    Message('note_off', channel=6, note=71, velocity=95, time=240),
    Message('note_on', channel=6, note=71, velocity=95, time=0),
    Message('note_off', channel=6, note=71, velocity=95, time=240),
    Message('note_on', channel=6, note=76, velocity=95, time=0),
    Message('note_on', channel=6, note=71, velocity=95, time=0),
    Message('note_off', channel=6, note=76, velocity=95, time=240),
    Message('note_off', channel=6, note=71, velocity=95, time=0),
    Message('pitchwheel', channel=7, pitch=0, time=0),
    Message('note_on', channel=7, note=70, velocity=95, time=0),
    Message('pitchwheel', channel=7, pitch=128, time=24),
    Message('pitchwheel', channel=7, pitch=256, time=24),
    Message('pitchwheel', channel=7, pitch=384, time=24),
    Message('pitchwheel', channel=7, pitch=512, time=24),
    Message('pitchwheel', channel=7, pitch=640, time=24),
    Message('pitchwheel', channel=7, pitch=640, time=0),
    Message('pitchwheel', channel=7, pitch=640, time=120),
    Message('pitchwheel', channel=7, pitch=0, time=0),
    Message('note_off', channel=7, note=70, velocity=95, time=0),
    Message('note_on', channel=6, note=76, velocity=95, time=0),
    Message('note_on', channel=6, note=71, velocity=95, time=0),
    Message('note_off', channel=6, note=76, velocity=95, time=240),
    Message('note_off', channel=6, note=71, velocity=95, time=0),
    Message('pitchwheel', channel=7, pitch=0, time=0),
    Message('note_on', channel=7, note=70, velocity=95, time=0),
    Message('pitchwheel', channel=7, pitch=128, time=24),
    Message('pitchwheel', channel=7, pitch=256, time=24),
    Message('pitchwheel', channel=7, pitch=384, time=24),
    Message('pitchwheel', channel=7, pitch=512, time=24),
    Message('pitchwheel', channel=7, pitch=640, time=24),
    Message('pitchwheel', channel=7, pitch=640, time=0),
    Message('pitchwheel', channel=7, pitch=640, time=120),
    Message('pitchwheel', channel=7, pitch=0, time=0),
    Message('note_off', channel=7, note=70, velocity=95, time=0),
    Message('note_on', channel=6, note=76, velocity=95, time=0),
    Message('note_on', channel=6, note=71, velocity=95, time=0),
    Message('note_off', channel=6, note=76, velocity=95, time=240),
    Message('note_off', channel=6, note=71, velocity=95, time=0),
    Message('note_on', channel=7, note=76, velocity=95, time=0),
    Message('note_on', channel=7, note=71, velocity=95, time=0),
    Message('pitchwheel', channel=7, pitch=0, time=160),
    Message('pitchwheel', channel=7, pitch=0, time=0),
    Message('pitchwheel', channel=7, pitch=128, time=160),
    Message('pitchwheel', channel=7, pitch=128, time=0),
    Message('pitchwheel', channel=7, pitch=0, time=160),
    Message('pitchwheel', channel=7, pitch=128, time=0),
    Message('pitchwheel', channel=7, pitch=0, time=0),
    Message('note_off', channel=7, note=76, velocity=95, time=0),
    Message('pitchwheel', channel=7, pitch=0, time=0),
    Message('pitchwheel', channel=7, pitch=128, time=0),
    Message('pitchwheel', channel=7, pitch=0, time=0),
    Message('note_off', channel=7, note=71, velocity=95, time=0),
    Message('note_on', channel=6, note=79, velocity=95, time=0),
    Message('note_on', channel=6, note=74, velocity=95, time=0),
    Message('note_off', channel=6, note=79, velocity=95, time=240),
    Message('note_off', channel=6, note=74, velocity=95, time=0),
    Message('note_on', channel=6, note=74, velocity=95, time=0),
    Message('pitchwheel', channel=7, pitch=0, time=0),
    Message('note_on', channel=7, note=69, velocity=95, time=0),
    Message('pitchwheel', channel=7, pitch=128, time=30),
    Message('pitchwheel', channel=7, pitch=256, time=30),
    Message('pitchwheel', channel=7, pitch=384, time=30),
    Message('pitchwheel', channel=7, pitch=512, time=30),
    Message('pitchwheel', channel=7, pitch=640, time=30),
    Message('pitchwheel', channel=7, pitch=768, time=30),
    Message('pitchwheel', channel=7, pitch=896, time=30),
    Message('pitchwheel', channel=7, pitch=1024, time=30),
    Message('pitchwheel', channel=7, pitch=1024, time=0),
    Message('note_off', channel=6, note=74, velocity=95, time=240),
    Message('pitchwheel', channel=7, pitch=1024, time=0),
    Message('pitchwheel', channel=7, pitch=0, time=0),
    Message('note_off', channel=7, note=69, velocity=95, time=0),
    Message('note_on', channel=6, note=79, velocity=95, time=0),
    Message('note_on', channel=6, note=74, velocity=95, time=0),
    Message('note_off', channel=6, note=79, velocity=95, time=240),
    Message('note_off', channel=6, note=74, velocity=95, time=0),
    Message('note_on', channel=6, note=74, velocity=95, time=0),
    Message('pitchwheel', channel=7, pitch=0, time=0),
    Message('note_on', channel=7, note=69, velocity=95, time=0),
    Message('pitchwheel', channel=7, pitch=128, time=30),
    Message('pitchwheel', channel=7, pitch=256, time=30),
    Message('pitchwheel', channel=7, pitch=384, time=30),
    Message('pitchwheel', channel=7, pitch=512, time=30),
    Message('pitchwheel', channel=7, pitch=640, time=30),
    Message('pitchwheel', channel=7, pitch=768, time=30),
    Message('pitchwheel', channel=7, pitch=896, time=30),
    Message('pitchwheel', channel=7, pitch=1024, time=30),
    Message('pitchwheel', channel=7, pitch=1024, time=0),
    Message('note_off', channel=6, note=74, velocity=95, time=240),
    Message('pitchwheel', channel=7, pitch=1024, time=0),
    Message('pitchwheel', channel=7, pitch=0, time=0),
    Message('note_off', channel=7, note=69, velocity=95, time=0),
    Message('note_on', channel=6, note=79, velocity=95, time=0),
    Message('note_on', channel=6, note=74, velocity=95, time=0),
    Message('note_off', channel=6, note=79, velocity=95, time=240),
    Message('note_off', channel=6, note=74, velocity=95, time=0),
    Message('note_on', channel=6, note=74, velocity=95, time=0),
    Message('pitchwheel', channel=7, pitch=0, time=0),
    Message('note_on', channel=7, note=69, velocity=95, time=0),
    Message('pitchwheel', channel=7, pitch=128, time=30),
    Message('pitchwheel', channel=7, pitch=256, time=30),
    Message('pitchwheel', channel=7, pitch=384, time=30),
    Message('pitchwheel', channel=7, pitch=512, time=30),
    Message('pitchwheel', channel=7, pitch=640, time=30),
    Message('pitchwheel', channel=7, pitch=768, time=30),
    Message('pitchwheel', channel=7, pitch=896, time=30),
    Message('pitchwheel', channel=7, pitch=1024, time=30),
    Message('pitchwheel', channel=7, pitch=1024, time=0),
    Message('note_off', channel=6, note=74, velocity=95, time=240),
    Message('pitchwheel', channel=7, pitch=1024, time=0),
    Message('pitchwheel', channel=7, pitch=0, time=0),
    Message('note_off', channel=7, note=69, velocity=95, time=0),
    Message('note_on', channel=6, note=79, velocity=95, time=0),
    Message('note_on', channel=6, note=74, velocity=95, time=0),
    Message('note_off', channel=6, note=79, velocity=95, time=240),
    Message('note_off', channel=6, note=74, velocity=95, time=0),
    Message('note_on', channel=6, note=74, velocity=95, time=0),
    Message('pitchwheel', channel=7, pitch=0, time=0),
    Message('note_on', channel=7, note=69, velocity=95, time=0),
    Message('pitchwheel', channel=7, pitch=128, time=30),
    Message('pitchwheel', channel=7, pitch=256, time=30),
    Message('pitchwheel', channel=7, pitch=384, time=30),
    Message('pitchwheel', channel=7, pitch=512, time=30),
    Message('pitchwheel', channel=7, pitch=640, time=30),
    Message('pitchwheel', channel=7, pitch=768, time=30),
    Message('pitchwheel', channel=7, pitch=896, time=30),
    Message('pitchwheel', channel=7, pitch=1024, time=30),
    Message('pitchwheel', channel=7, pitch=1024, time=0),
    Message('note_off', channel=6, note=74, velocity=95, time=240),
    Message('pitchwheel', channel=7, pitch=1024, time=0),
    Message('pitchwheel', channel=7, pitch=0, time=0),
    Message('note_off', channel=7, note=69, velocity=95, time=0),
    Message('note_on', channel=6, note=79, velocity=95, time=0),
    Message('note_on', channel=6, note=74, velocity=95, time=0),
    Message('note_off', channel=6, note=79, velocity=95, time=240),
    Message('note_off', channel=6, note=74, velocity=95, time=0),
    Message('note_on', channel=6, note=74, velocity=95, time=0),
    Message('pitchwheel', channel=7, pitch=0, time=0),
    Message('note_on', channel=7, note=69, velocity=95, time=0),
    Message('pitchwheel', channel=7, pitch=128, time=30),
    Message('pitchwheel', channel=7, pitch=256, time=30),
    Message('pitchwheel', channel=7, pitch=384, time=30),
    Message('pitchwheel', channel=7, pitch=512, time=30),
    Message('pitchwheel', channel=7, pitch=640, time=30),
    Message('pitchwheel', channel=7, pitch=768, time=30),
    Message('pitchwheel', channel=7, pitch=896, time=30),
    Message('pitchwheel', channel=7, pitch=1024, time=30),
    Message('pitchwheel', channel=7, pitch=1024, time=0),
    Message('note_off', channel=6, note=74, velocity=95, time=240),
    Message('pitchwheel', channel=7, pitch=1024, time=0),
    Message('pitchwheel', channel=7, pitch=0, time=0),
    Message('note_off', channel=7, note=69, velocity=95, time=0),
    Message('note_on', channel=6, note=74, velocity=95, time=0),
    Message('pitchwheel', channel=7, pitch=1024, time=0),
    Message('note_on', channel=7, note=69, velocity=95, time=0),
    Message('note_off', channel=6, note=74, velocity=95, time=240),
    Message('pitchwheel', channel=7, pitch=1024, time=0),
    Message('pitchwheel', channel=7, pitch=0, time=0),
    Message('note_off', channel=7, note=69, velocity=95, time=0),
    Message('note_on', channel=6, note=74, velocity=95, time=0),
    Message('pitchwheel', channel=7, pitch=1024, time=0),
    Message('note_on', channel=7, note=69, velocity=95, time=0),
    Message('note_off', channel=6, note=74, velocity=95, time=240),
    Message('pitchwheel', channel=7, pitch=1024, time=0),
    Message('pitchwheel', channel=7, pitch=0, time=0),
    Message('note_off', channel=7, note=69, velocity=95, time=0),
    Message('note_on', channel=6, note=74, velocity=95, time=0),
    Message('pitchwheel', channel=7, pitch=1024, time=0),
    Message('note_on', channel=7, note=69, velocity=95, time=0),
    Message('pitchwheel', channel=7, pitch=1024, time=160),
    Message('pitchwheel', channel=7, pitch=896, time=20),
    Message('pitchwheel', channel=7, pitch=768, time=20),
    Message('pitchwheel', channel=7, pitch=640, time=20),
    Message('pitchwheel', channel=7, pitch=512, time=20),
    Message('pitchwheel', channel=7, pitch=384, time=20),
    Message('pitchwheel', channel=7, pitch=256, time=20),
    Message('pitchwheel', channel=7, pitch=128, time=20),
    Message('pitchwheel', channel=7, pitch=0, time=20),
    Message('pitchwheel', channel=7, pitch=0, time=0),
    Message('note_off', channel=6, note=74, velocity=95, time=160),
    Message('pitchwheel', channel=7, pitch=0, time=0),
    Message('pitchwheel', channel=7, pitch=0, time=0),
    Message('note_off', channel=7, note=69, velocity=95, time=0),
    Message('note_on', channel=6, note=67, velocity=95, time=0),
    Message('note_off', channel=6, note=67, velocity=95, time=240),
    Message('note_on', channel=6, note=64, velocity=95, time=0),
    Message('note_off', channel=6, note=64, velocity=95, time=240),
    Message('note_on', channel=6, note=67, velocity=95, time=0),
    Message('note_off', channel=6, note=67, velocity=95, time=240),
    Message('note_on', channel=6, note=69, velocity=95, time=0),
    Message('note_off', channel=6, note=69, velocity=95, time=240),
    Message('note_on', channel=6, note=69, velocity=95, time=0),
    Message('note_off', channel=6, note=69, velocity=95, time=240),
    Message('note_on', channel=7, note=69, velocity=95, time=0),
    Message('pitchwheel', channel=7, pitch=0, time=160),
    Message('pitchwheel', channel=7, pitch=128, time=160),
    Message('pitchwheel', channel=7, pitch=0, time=160),
    Message('pitchwheel', channel=7, pitch=128, time=0),
    Message('pitchwheel', channel=7, pitch=0, time=0),
    Message('note_off', channel=7, note=69, velocity=95, time=0),
    Message('note_on', channel=6, note=69, velocity=95, time=0),
    Message('note_off', channel=6, note=69, velocity=95, time=240),
    Message('note_on', channel=6, note=69, velocity=95, time=0),
    Message('note_off', channel=6, note=69, velocity=95, time=240),
    Message('note_on', channel=7, note=69, velocity=95, time=0),
    Message('pitchwheel', channel=7, pitch=0, time=160),
    Message('pitchwheel', channel=7, pitch=128, time=160),
    Message('pitchwheel', channel=7, pitch=0, time=160),
    Message('pitchwheel', channel=7, pitch=128, time=0),
    Message('pitchwheel', channel=7, pitch=0, time=0),
    Message('note_off', channel=7, note=69, velocity=95, time=0),
    Message('note_on', channel=6, note=64, velocity=95, time=0),
    Message('note_on', channel=6, note=64, velocity=95, time=0),
    Message('note_off', channel=6, note=64, velocity=95, time=240),
    Message('note_off', channel=6, note=64, velocity=95, time=0),
    Message('note_on', channel=6, note=64, velocity=95, time=0),
    Message('note_on', channel=6, note=64, velocity=95, time=0),
    Message('note_off', channel=6, note=64, velocity=95, time=240),
    Message('note_off', channel=6, note=64, velocity=95, time=0),
    Message('note_on', channel=6, note=64, velocity=95, time=0),
    Message('note_on', channel=6, note=64, velocity=95, time=0),
    Message('note_off', channel=6, note=64, velocity=95, time=240),
    Message('note_off', channel=6, note=64, velocity=95, time=0),
    Message('note_on', channel=6, note=64, velocity=95, time=0),
    Message('note_on', channel=7, note=62, velocity=95, time=0),
    Message('pitchwheel', channel=7, pitch=1408, time=120),
    Message('pitchwheel', channel=7, pitch=0, time=0),
    Message('note_off', channel=7, note=62, velocity=95, time=0),
    Message('note_on', channel=6, note=64, velocity=47, time=0),
    Message('note_off', channel=6, note=64, velocity=95, time=120),
    Message('note_off', channel=6, note=64, velocity=47, time=0),
    Message('note_on', channel=6, note=64, velocity=95, time=0),
    Message('note_on', channel=6, note=64, velocity=95, time=0),
    Message('note_off', channel=6, note=64, velocity=95, time=240),
    Message('note_off', channel=6, note=64, velocity=95, time=0),
    Message('note_on', channel=6, note=64, velocity=95, time=0),
    Message('note_on', channel=6, note=64, velocity=95, time=0),
    Message('note_off', channel=6, note=64, velocity=95, time=240),
    Message('note_off', channel=6, note=64, velocity=95, time=0),
    Message('note_on', channel=6, note=64, velocity=95, time=0),
    Message('note_on', channel=6, note=64, velocity=95, time=0),
    Message('note_off', channel=6, note=64, velocity=95, time=240),
    Message('note_off', channel=6, note=64, velocity=95, time=0),
    Message('note_on', channel=6, note=67, velocity=95, time=0),
    Message('note_on', channel=6, note=64, velocity=95, time=0),
    Message('note_off', channel=6, note=67, velocity=95, time=240),
    Message('note_off', channel=6, note=64, velocity=95, time=0),
    Message('note_on', channel=6, note=64, velocity=95, time=0),
    Message('note_on', channel=6, note=64, velocity=95, time=0),
    Message('note_off', channel=6, note=64, velocity=95, time=240),
    Message('note_off', channel=6, note=64, velocity=95, time=0),
    Message('note_on', channel=6, note=64, velocity=95, time=0),
    Message('note_on', channel=6, note=64, velocity=95, time=0),
    Message('note_off', channel=6, note=64, velocity=95, time=240),
    Message('note_off', channel=6, note=64, velocity=95, time=0),
    Message('note_on', channel=6, note=64, velocity=95, time=0),
    Message('note_on', channel=6, note=64, velocity=95, time=0),
    Message('note_off', channel=6, note=64, velocity=95, time=240),
    Message('note_off', channel=6, note=64, velocity=95, time=0),
    Message('note_on', channel=6, note=69, velocity=95, time=0),
    Message('note_on', channel=6, note=64, velocity=95, time=0),
    Message('note_off', channel=6, note=69, velocity=95, time=240),
    Message('note_off', channel=6, note=64, velocity=95, time=0),
    Message('note_on', channel=6, note=64, velocity=95, time=0),
    Message('note_on', channel=6, note=64, velocity=95, time=0),
    Message('note_off', channel=6, note=64, velocity=95, time=240),
    Message('note_off', channel=6, note=64, velocity=95, time=0),
    Message('note_on', channel=6, note=64, velocity=95, time=0),
    Message('note_on', channel=6, note=64, velocity=95, time=0),
    Message('note_off', channel=6, note=64, velocity=95, time=240),
    Message('note_off', channel=6, note=64, velocity=95, time=0),
    Message('note_on', channel=6, note=64, velocity=95, time=0),
    Message('note_on', channel=6, note=64, velocity=95, time=0),
    Message('note_off', channel=6, note=64, velocity=95, time=240),
    Message('note_off', channel=6, note=64, velocity=95, time=0),
    Message('note_on', channel=6, note=67, velocity=95, time=0),
    Message('note_on', channel=6, note=64, velocity=95, time=0),
    Message('note_off', channel=6, note=67, velocity=95, time=240),
    Message('note_off', channel=6, note=64, velocity=95, time=0),
    Message('note_on', channel=6, note=64, velocity=95, time=0),
    Message('note_on', channel=6, note=64, velocity=95, time=0),
    Message('note_off', channel=6, note=64, velocity=95, time=240),
    Message('note_off', channel=6, note=64, velocity=95, time=0),
    Message('note_on', channel=6, note=64, velocity=95, time=0),
    Message('note_on', channel=6, note=64, velocity=95, time=0),
    Message('note_off', channel=6, note=64, velocity=95, time=240),
    Message('note_off', channel=6, note=64, velocity=95, time=0),
    Message('note_on', channel=6, note=64, velocity=95, time=0),
    Message('note_on', channel=6, note=64, velocity=95, time=0),
    Message('note_off', channel=6, note=64, velocity=95, time=240),
    Message('note_off', channel=6, note=64, velocity=95, time=0),
    Message('note_on', channel=6, note=64, velocity=95, time=0),
    Message('note_on', channel=7, note=62, velocity=95, time=0),
    Message('pitchwheel', channel=7, pitch=1408, time=120),
    Message('pitchwheel', channel=7, pitch=0, time=0),
    Message('note_off', channel=7, note=62, velocity=95, time=0),
    Message('note_on', channel=6, note=64, velocity=47, time=0),
    Message('note_off', channel=6, note=64, velocity=95, time=120),
    Message('note_off', channel=6, note=64, velocity=47, time=0),
    Message('note_on', channel=6, note=64, velocity=95, time=0),
    Message('note_on', channel=6, note=64, velocity=95, time=0),
    Message('note_off', channel=6, note=64, velocity=95, time=240),
    Message('note_off', channel=6, note=64, velocity=95, time=0),
    Message('note_on', channel=6, note=64, velocity=95, time=0),
    Message('note_on', channel=6, note=64, velocity=95, time=0),
    Message('note_off', channel=6, note=64, velocity=95, time=240),
    Message('note_off', channel=6, note=64, velocity=95, time=0),
    Message('note_on', channel=6, note=64, velocity=95, time=0),
    Message('note_on', channel=6, note=64, velocity=95, time=0),
    Message('note_off', channel=6, note=64, velocity=95, time=240),
    Message('note_off', channel=6, note=64, velocity=95, time=0),
    Message('note_on', channel=6, note=67, velocity=95, time=0),
    Message('note_on', channel=6, note=64, velocity=95, time=0),
    Message('note_off', channel=6, note=67, velocity=95, time=240),
    Message('note_off', channel=6, note=64, velocity=95, time=0),
    Message('note_on', channel=6, note=64, velocity=95, time=0),
    Message('note_on', channel=6, note=64, velocity=95, time=0),
    Message('note_off', channel=6, note=64, velocity=95, time=240),
    Message('note_off', channel=6, note=64, velocity=95, time=0),
    Message('note_on', channel=6, note=64, velocity=95, time=0),
    Message('note_on', channel=6, note=64, velocity=95, time=0),
    Message('note_off', channel=6, note=64, velocity=95, time=240),
    Message('note_off', channel=6, note=64, velocity=95, time=0),
    Message('note_on', channel=6, note=64, velocity=95, time=0),
    Message('note_on', channel=6, note=64, velocity=95, time=0),
    Message('note_off', channel=6, note=64, velocity=95, time=240),
    Message('note_off', channel=6, note=64, velocity=95, time=0),
    Message('pitchwheel', channel=7, pitch=0, time=0),
    Message('note_on', channel=7, note=79, velocity=95, time=0),
    Message('pitchwheel', channel=7, pitch=128, time=5),
    Message('pitchwheel', channel=7, pitch=256, time=5),
    Message('pitchwheel', channel=7, pitch=384, time=5),
    Message('pitchwheel', channel=7, pitch=512, time=5),
    Message('pitchwheel', channel=7, pitch=640, time=5),
    Message('pitchwheel', channel=7, pitch=768, time=5),
    Message('pitchwheel', channel=7, pitch=896, time=5),
    Message('pitchwheel', channel=7, pitch=1024, time=5),
    Message('pitchwheel', channel=7, pitch=1152, time=5),
    Message('pitchwheel', channel=7, pitch=1280, time=5),
    Message('pitchwheel', channel=7, pitch=1408, time=5),
    Message('pitchwheel', channel=7, pitch=1408, time=5),
    Message('pitchwheel', channel=7, pitch=1408, time=60),
    Message('pitchwheel', channel=7, pitch=1280, time=5),
    Message('pitchwheel', channel=7, pitch=1152, time=5),
    Message('pitchwheel', channel=7, pitch=1024, time=5),
    Message('pitchwheel', channel=7, pitch=896, time=5),
    Message('pitchwheel', channel=7, pitch=768, time=5),
    Message('pitchwheel', channel=7, pitch=640, time=5),
    Message('pitchwheel', channel=7, pitch=512, time=5),
    Message('pitchwheel', channel=7, pitch=384, time=5),
    Message('pitchwheel', channel=7, pitch=256, time=5),
    Message('pitchwheel', channel=7, pitch=128, time=5),
    Message('pitchwheel', channel=7, pitch=0, time=5),
    Message('pitchwheel', channel=7, pitch=0, time=5),
    Message('pitchwheel', channel=7, pitch=0, time=60),
    Message('pitchwheel', channel=7, pitch=0, time=0),
    Message('note_off', channel=7, note=79, velocity=95, time=0),
    Message('note_on', channel=6, note=76, velocity=95, time=0),
    Message('note_off', channel=6, note=76, velocity=95, time=240),
    Message('note_on', channel=6, note=76, velocity=95, time=0),
    Message('note_off', channel=6, note=76, velocity=95, time=240),
    Message('pitchwheel', channel=7, pitch=0, time=0),
    Message('note_on', channel=7, note=74, velocity=95, time=0),
    Message('pitchwheel', channel=7, pitch=128, time=10),
    Message('pitchwheel', channel=7, pitch=256, time=10),
    Message('pitchwheel', channel=7, pitch=384, time=10),
    Message('pitchwheel', channel=7, pitch=512, time=10),
    Message('pitchwheel', channel=7, pitch=640, time=10),
    Message('pitchwheel', channel=7, pitch=768, time=10),
    Message('pitchwheel', channel=7, pitch=896, time=10),
    Message('pitchwheel', channel=7, pitch=1024, time=10),
    Message('pitchwheel', channel=7, pitch=1152, time=10),
    Message('pitchwheel', channel=7, pitch=1280, time=10),
    Message('pitchwheel', channel=7, pitch=1408, time=10),
    Message('pitchwheel', channel=7, pitch=1408, time=10),
    Message('pitchwheel', channel=7, pitch=1408, time=120),
    Message('pitchwheel', channel=7, pitch=0, time=0),
    Message('note_off', channel=7, note=74, velocity=95, time=0),
    Message('note_on', channel=6, note=76, velocity=95, time=0),
    Message('note_off', channel=6, note=76, velocity=95, time=240),
    Message('pitchwheel', channel=7, pitch=0, time=0),
    Message('note_on', channel=7, note=74, velocity=95, time=0),
    Message('pitchwheel', channel=7, pitch=128, time=10),
    Message('pitchwheel', channel=7, pitch=256, time=10),
    Message('pitchwheel', channel=7, pitch=384, time=10),
    Message('pitchwheel', channel=7, pitch=512, time=10),
    Message('pitchwheel', channel=7, pitch=640, time=10),
    Message('pitchwheel', channel=7, pitch=768, time=10),
    Message('pitchwheel', channel=7, pitch=896, time=10),
    Message('pitchwheel', channel=7, pitch=1024, time=10),
    Message('pitchwheel', channel=7, pitch=1152, time=10),
    Message('pitchwheel', channel=7, pitch=1280, time=10),
    Message('pitchwheel', channel=7, pitch=1408, time=10),
    Message('pitchwheel', channel=7, pitch=1408, time=10),
    Message('pitchwheel', channel=7, pitch=1408, time=120),
    Message('pitchwheel', channel=7, pitch=0, time=0),
    Message('note_off', channel=7, note=74, velocity=95, time=0),
    Message('note_on', channel=6, note=76, velocity=95, time=0),
    Message('note_off', channel=6, note=76, velocity=95, time=240),
    Message('note_on', channel=6, note=76, velocity=95, time=0),
    Message('note_off', channel=6, note=76, velocity=95, time=240),
    Message('pitchwheel', channel=7, pitch=0, time=0),
    Message('note_on', channel=7, note=79, velocity=95, time=0),
    Message('pitchwheel', channel=7, pitch=128, time=5),
    Message('pitchwheel', channel=7, pitch=256, time=5),
    Message('pitchwheel', channel=7, pitch=384, time=5),
    Message('pitchwheel', channel=7, pitch=512, time=5),
    Message('pitchwheel', channel=7, pitch=640, time=5),
    Message('pitchwheel', channel=7, pitch=768, time=5),
    Message('pitchwheel', channel=7, pitch=896, time=5),
    Message('pitchwheel', channel=7, pitch=1024, time=5),
    Message('pitchwheel', channel=7, pitch=1152, time=5),
    Message('pitchwheel', channel=7, pitch=1280, time=5),
    Message('pitchwheel', channel=7, pitch=1408, time=5),
    Message('pitchwheel', channel=7, pitch=1408, time=5),
    Message('pitchwheel', channel=7, pitch=1408, time=60),
    Message('pitchwheel', channel=7, pitch=1280, time=5),
    Message('pitchwheel', channel=7, pitch=1152, time=5),
    Message('pitchwheel', channel=7, pitch=1024, time=5),
    Message('pitchwheel', channel=7, pitch=896, time=5),
    Message('pitchwheel', channel=7, pitch=768, time=5),
    Message('pitchwheel', channel=7, pitch=640, time=5),
    Message('pitchwheel', channel=7, pitch=512, time=5),
    Message('pitchwheel', channel=7, pitch=384, time=5),
    Message('pitchwheel', channel=7, pitch=256, time=5),
    Message('pitchwheel', channel=7, pitch=128, time=5),
    Message('pitchwheel', channel=7, pitch=0, time=5),
    Message('pitchwheel', channel=7, pitch=0, time=5),
    Message('pitchwheel', channel=7, pitch=0, time=60),
    Message('pitchwheel', channel=7, pitch=0, time=0),
    Message('note_off', channel=7, note=79, velocity=95, time=0),
    Message('note_on', channel=6, note=76, velocity=95, time=0),
    Message('note_off', channel=6, note=76, velocity=95, time=240),
    Message('note_on', channel=6, note=76, velocity=95, time=0),
    Message('note_off', channel=6, note=76, velocity=95, time=240),
    Message('pitchwheel', channel=7, pitch=0, time=0),
    Message('note_on', channel=7, note=74, velocity=95, time=0),
    Message('pitchwheel', channel=7, pitch=128, time=10),
    Message('pitchwheel', channel=7, pitch=256, time=10),
    Message('pitchwheel', channel=7, pitch=384, time=10),
    Message('pitchwheel', channel=7, pitch=512, time=10),
    Message('pitchwheel', channel=7, pitch=640, time=10),
    Message('pitchwheel', channel=7, pitch=768, time=10),
    Message('pitchwheel', channel=7, pitch=896, time=10),
    Message('pitchwheel', channel=7, pitch=1024, time=10),
    Message('pitchwheel', channel=7, pitch=1152, time=10),
    Message('pitchwheel', channel=7, pitch=1280, time=10),
    Message('pitchwheel', channel=7, pitch=1408, time=10),
    Message('pitchwheel', channel=7, pitch=1408, time=10),
    Message('pitchwheel', channel=7, pitch=1408, time=120),
    Message('pitchwheel', channel=7, pitch=0, time=0),
    Message('note_off', channel=7, note=74, velocity=95, time=0),
    Message('note_on', channel=6, note=76, velocity=95, time=0),
    Message('note_off', channel=6, note=76, velocity=95, time=240),
    Message('pitchwheel', channel=7, pitch=0, time=0),
    Message('note_on', channel=7, note=74, velocity=95, time=0),
    Message('pitchwheel', channel=7, pitch=128, time=10),
    Message('pitchwheel', channel=7, pitch=256, time=10),
    Message('pitchwheel', channel=7, pitch=384, time=10),
    Message('pitchwheel', channel=7, pitch=512, time=10),
    Message('pitchwheel', channel=7, pitch=640, time=10),
    Message('pitchwheel', channel=7, pitch=768, time=10),
    Message('pitchwheel', channel=7, pitch=896, time=10),
    Message('pitchwheel', channel=7, pitch=1024, time=10),
    Message('pitchwheel', channel=7, pitch=1152, time=10),
    Message('pitchwheel', channel=7, pitch=1280, time=10),
    Message('pitchwheel', channel=7, pitch=1408, time=10),
    Message('pitchwheel', channel=7, pitch=1408, time=10),
    Message('pitchwheel', channel=7, pitch=1408, time=120),
    Message('pitchwheel', channel=7, pitch=0, time=0),
    Message('note_off', channel=7, note=74, velocity=95, time=0),
    Message('note_on', channel=6, note=76, velocity=95, time=0),
    Message('note_off', channel=6, note=76, velocity=95, time=240),
    Message('note_on', channel=6, note=76, velocity=95, time=0),
    Message('note_off', channel=6, note=76, velocity=95, time=240),
    Message('pitchwheel', channel=7, pitch=0, time=0),
    Message('note_on', channel=7, note=74, velocity=95, time=0),
    Message('pitchwheel', channel=7, pitch=128, time=10),
    Message('pitchwheel', channel=7, pitch=256, time=10),
    Message('pitchwheel', channel=7, pitch=384, time=10),
    Message('pitchwheel', channel=7, pitch=512, time=10),
    Message('pitchwheel', channel=7, pitch=640, time=10),
    Message('pitchwheel', channel=7, pitch=768, time=10),
    Message('pitchwheel', channel=7, pitch=896, time=10),
    Message('pitchwheel', channel=7, pitch=1024, time=10),
    Message('pitchwheel', channel=7, pitch=1152, time=10),
    Message('pitchwheel', channel=7, pitch=1280, time=10),
    Message('pitchwheel', channel=7, pitch=1408, time=10),
    Message('pitchwheel', channel=7, pitch=1408, time=10),
    Message('pitchwheel', channel=7, pitch=1408, time=120),
    Message('pitchwheel', channel=7, pitch=0, time=0),
    Message('note_off', channel=7, note=74, velocity=95, time=0),
    Message('note_on', channel=6, note=76, velocity=95, time=0),
    Message('note_off', channel=6, note=76, velocity=95, time=240),
    Message('note_on', channel=6, note=76, velocity=95, time=0),
    Message('note_off', channel=6, note=76, velocity=95, time=240),
    Message('note_on', channel=6, note=76, velocity=95, time=0),
    Message('note_off', channel=6, note=76, velocity=95, time=240),
    Message('note_on', channel=6, note=79, velocity=95, time=0),
    Message('note_off', channel=6, note=79, velocity=95, time=240),
    Message('note_on', channel=6, note=76, velocity=54, time=0),
    Message('note_off', channel=6, note=76, velocity=54, time=240),
    Message('note_on', channel=6, note=79, velocity=95, time=0),
    Message('note_off', channel=6, note=79, velocity=95, time=240),
    Message('note_on', channel=6, note=79, velocity=95, time=0),
    Message('note_off', channel=6, note=79, velocity=95, time=240),
    Message('pitchwheel', channel=7, pitch=0, time=0),
    Message('note_on', channel=7, note=82, velocity=95, time=0),
    Message('pitchwheel', channel=7, pitch=128, time=48),
    Message('pitchwheel', channel=7, pitch=256, time=48),
    Message('pitchwheel', channel=7, pitch=384, time=48),
    Message('pitchwheel', channel=7, pitch=512, time=48),
    Message('pitchwheel', channel=7, pitch=640, time=48),
    Message('pitchwheel', channel=7, pitch=640, time=0),
    Message('pitchwheel', channel=7, pitch=640, time=240),
    Message('pitchwheel', channel=7, pitch=0, time=0),
    Message('note_off', channel=7, note=82, velocity=95, time=0),
    Message('note_on', channel=7, note=81, velocity=95, time=0),
    Message('pitchwheel', channel=7, pitch=0, time=160),
    Message('pitchwheel', channel=7, pitch=128, time=160),
    Message('pitchwheel', channel=7, pitch=0, time=160),
    Message('pitchwheel', channel=7, pitch=128, time=0),
    Message('pitchwheel', channel=7, pitch=0, time=0),
    Message('note_off', channel=7, note=81, velocity=95, time=0),
    Message('note_on', channel=6, note=79, velocity=95, time=0),
    Message('note_off', channel=6, note=79, velocity=95, time=240),
    Message('note_on', channel=6, note=81, velocity=95, time=0),
    Message('note_off', channel=6, note=81, velocity=95, time=240),
    Message('pitchwheel', channel=7, pitch=0, time=0),
    Message('note_on', channel=7, note=79, velocity=95, time=0),
    Message('pitchwheel', channel=7, pitch=128, time=240),
    Message('pitchwheel', channel=7, pitch=256, time=240),
    Message('pitchwheel', channel=7, pitch=256, time=0),
    Message('pitchwheel', channel=7, pitch=256, time=480),
    Message('pitchwheel', channel=7, pitch=0, time=0),
    Message('note_off', channel=7, note=79, velocity=95, time=0),
    Message('note_on', channel=6, note=76, velocity=95, time=0),
    Message('note_off', channel=6, note=76, velocity=95, time=240),
    Message('note_on', channel=6, note=74, velocity=95, time=0),
    Message('note_off', channel=6, note=74, velocity=95, time=240),
    Message('note_on', channel=6, note=71, velocity=95, time=0),
    Message('note_off', channel=6, note=71, velocity=95, time=240),
    Message('note_on', channel=6, note=74, velocity=95, time=0),
    Message('note_off', channel=6, note=74, velocity=95, time=240),
    Message('note_on', channel=6, note=76, velocity=95, time=0),
    Message('note_off', channel=6, note=76, velocity=95, time=120),
    Message('note_on', channel=6, note=74, velocity=54, time=0),
    Message('note_off', channel=6, note=74, velocity=54, time=360),
    Message('pitchwheel', channel=7, pitch=0, time=0),
    Message('note_on', channel=7, note=82, velocity=95, time=0),
    Message('pitchwheel', channel=7, pitch=128, time=48),
    Message('pitchwheel', channel=7, pitch=256, time=48),
    Message('pitchwheel', channel=7, pitch=384, time=48),
    Message('pitchwheel', channel=7, pitch=512, time=48),
    Message('pitchwheel', channel=7, pitch=640, time=48),
    Message('pitchwheel', channel=7, pitch=640, time=0),
    Message('pitchwheel', channel=7, pitch=640, time=240),
    Message('pitchwheel', channel=7, pitch=0, time=0),
    Message('note_off', channel=7, note=82, velocity=95, time=0),
    Message('note_on', channel=6, note=81, velocity=95, time=0),
    Message('note_off', channel=6, note=81, velocity=95, time=480),
    Message('note_on', channel=6, note=79, velocity=95, time=0),
    Message('note_off', channel=6, note=79, velocity=95, time=240),
    Message('note_on', channel=6, note=81, velocity=95, time=0),
    Message('note_off', channel=6, note=81, velocity=95, time=240),
    Message('pitchwheel', channel=7, pitch=0, time=0),
    Message('note_on', channel=7, note=79, velocity=95, time=0),
    Message('pitchwheel', channel=7, pitch=128, time=240),
    Message('pitchwheel', channel=7, pitch=256, time=240),
    Message('pitchwheel', channel=7, pitch=256, time=0),
    Message('pitchwheel', channel=7, pitch=256, time=480),
    Message('pitchwheel', channel=7, pitch=0, time=0),
    Message('note_off', channel=7, note=79, velocity=95, time=0),
    Message('note_on', channel=6, note=76, velocity=95, time=0),
    Message('note_off', channel=6, note=76, velocity=95, time=240),
    Message('note_on', channel=6, note=74, velocity=95, time=0),
    Message('note_off', channel=6, note=74, velocity=95, time=240),
    Message('note_on', channel=6, note=71, velocity=95, time=0),
    Message('note_off', channel=6, note=71, velocity=95, time=240),
    Message('note_on', channel=6, note=74, velocity=95, time=0),
    Message('note_off', channel=6, note=74, velocity=95, time=240),
    Message('note_on', channel=7, note=71, velocity=95, time=0),
    Message('pitchwheel', channel=7, pitch=-640, time=120),
    Message('pitchwheel', channel=7, pitch=-1408, time=120),
    Message('pitchwheel', channel=7, pitch=0, time=0),
    Message('note_off', channel=7, note=71, velocity=95, time=0),
    Message('note_on', channel=6, note=69, velocity=47, time=0),
    Message('note_off', channel=6, note=69, velocity=47, time=240),
    Message('note_on', channel=6, note=69, velocity=95, time=0),
    Message('note_off', channel=6, note=69, velocity=95, time=240),
    Message('note_on', channel=6, note=67, velocity=95, time=0),
    Message('note_off', channel=6, note=67, velocity=95, time=240),
    Message('note_on', channel=6, note=64, velocity=95, time=0),
    Message('note_off', channel=6, note=64, velocity=95, time=240),
    Message('note_on', channel=6, note=67, velocity=95, time=0),
    Message('note_off', channel=6, note=67, velocity=95, time=240),
    Message('pitchwheel', channel=7, pitch=0, time=0),
    Message('note_on', channel=7, note=69, velocity=95, time=0),
    Message('pitchwheel', channel=7, pitch=128, time=10),
    Message('pitchwheel', channel=7, pitch=256, time=10),
    Message('pitchwheel', channel=7, pitch=384, time=10),
    Message('pitchwheel', channel=7, pitch=512, time=10),
    Message('pitchwheel', channel=7, pitch=640, time=10),
    Message('pitchwheel', channel=7, pitch=768, time=10),
    Message('pitchwheel', channel=7, pitch=896, time=10),
    Message('pitchwheel', channel=7, pitch=1024, time=10),
    Message('pitchwheel', channel=7, pitch=1152, time=10),
    Message('pitchwheel', channel=7, pitch=1280, time=10),
    Message('pitchwheel', channel=7, pitch=1408, time=10),
    Message('pitchwheel', channel=7, pitch=1408, time=10),
    Message('pitchwheel', channel=7, pitch=1408, time=120),
    Message('pitchwheel', channel=7, pitch=0, time=0),
    Message('note_off', channel=7, note=69, velocity=95, time=0),
    Message('note_on', channel=6, note=71, velocity=95, time=0),
    Message('note_off', channel=6, note=71, velocity=95, time=240),
    Message('note_on', channel=6, note=76, velocity=95, time=0),
    Message('note_off', channel=6, note=76, velocity=95, time=240),
    Message('note_on', channel=6, note=71, velocity=95, time=0),
    Message('note_off', channel=6, note=71, velocity=95, time=240),
    Message('pitchwheel', channel=7, pitch=0, time=0),
    Message('note_on', channel=7, note=74, velocity=95, time=0),
    Message('pitchwheel', channel=7, pitch=128, time=43),
    Message('pitchwheel', channel=7, pitch=256, time=43),
    Message('pitchwheel', channel=7, pitch=384, time=43),
    Message('pitchwheel', channel=7, pitch=512, time=43),
    Message('pitchwheel', channel=7, pitch=640, time=43),
    Message('pitchwheel', channel=7, pitch=768, time=43),
    Message('pitchwheel', channel=7, pitch=896, time=43),
    Message('pitchwheel', channel=7, pitch=1024, time=43),
    Message('pitchwheel', channel=7, pitch=1152, time=43),
    Message('pitchwheel', channel=7, pitch=1280, time=43),
    Message('pitchwheel', channel=7, pitch=1408, time=43),
    Message('pitchwheel', channel=7, pitch=1408, time=7),
    Message('pitchwheel', channel=7, pitch=1408, time=480),
    Message('pitchwheel', channel=7, pitch=0, time=0),
    Message('note_off', channel=7, note=74, velocity=95, time=0),
    Message('pitchwheel', channel=7, pitch=0, time=0),
    Message('note_on', channel=7, note=74, velocity=95, time=0),
    Message('pitchwheel', channel=7, pitch=128, time=16),
    Message('pitchwheel', channel=7, pitch=256, time=16),
    Message('pitchwheel', channel=7, pitch=384, time=16),
    Message('pitchwheel', channel=7, pitch=512, time=16),
    Message('pitchwheel', channel=7, pitch=640, time=16),
    Message('pitchwheel', channel=7, pitch=768, time=16),
    Message('pitchwheel', channel=7, pitch=896, time=16),
    Message('pitchwheel', channel=7, pitch=1024, time=16),
    Message('pitchwheel', channel=7, pitch=1152, time=16),
    Message('pitchwheel', channel=7, pitch=1280, time=16),
    Message('pitchwheel', channel=7, pitch=1408, time=16),
    Message('pitchwheel', channel=7, pitch=1408, time=4),
    Message('pitchwheel', channel=7, pitch=1408, time=180),
    Message('pitchwheel', channel=7, pitch=1280, time=16),
    Message('pitchwheel', channel=7, pitch=1152, time=16),
    Message('pitchwheel', channel=7, pitch=1024, time=16),
    Message('pitchwheel', channel=7, pitch=896, time=16),
    Message('pitchwheel', channel=7, pitch=768, time=16),
    Message('pitchwheel', channel=7, pitch=640, time=16),
    Message('pitchwheel', channel=7, pitch=512, time=16),
    Message('pitchwheel', channel=7, pitch=384, time=16),
    Message('pitchwheel', channel=7, pitch=256, time=16),
    Message('pitchwheel', channel=7, pitch=128, time=16),
    Message('pitchwheel', channel=7, pitch=0, time=16),
    Message('pitchwheel', channel=7, pitch=0, time=4),
    Message('pitchwheel', channel=7, pitch=0, time=180),
    Message('pitchwheel', channel=7, pitch=0, time=0),
    Message('note_off', channel=7, note=74, velocity=95, time=0),
    Message('note_on', channel=6, note=71, velocity=95, time=0),
    Message('note_off', channel=6, note=71, velocity=95, time=240),
    Message('pitchwheel', channel=7, pitch=0, time=0),
    Message('note_on', channel=7, note=70, velocity=95, time=0),
    Message('pitchwheel', channel=7, pitch=128, time=24),
    Message('pitchwheel', channel=7, pitch=256, time=24),
    Message('pitchwheel', channel=7, pitch=384, time=24),
    Message('pitchwheel', channel=7, pitch=512, time=24),
    Message('pitchwheel', channel=7, pitch=640, time=24),
    Message('pitchwheel', channel=7, pitch=640, time=0),
    Message('pitchwheel', channel=7, pitch=640, time=120),
    Message('pitchwheel', channel=7, pitch=0, time=0),
    Message('note_off', channel=7, note=70, velocity=95, time=0),
    Message('note_on', channel=6, note=76, velocity=95, time=0),
    Message('note_off', channel=6, note=76, velocity=95, time=240),
    Message('note_on', channel=6, note=74, velocity=95, time=0),
    Message('note_off', channel=6, note=74, velocity=95, time=120),
    Message('note_on', channel=6, note=71, velocity=54, time=0),
    Message('note_off', channel=6, note=71, velocity=54, time=120),
    Message('pitchwheel', channel=7, pitch=0, time=0),
    Message('note_on', channel=7, note=70, velocity=95, time=0),
    Message('pitchwheel', channel=7, pitch=128, time=24),
    Message('pitchwheel', channel=7, pitch=256, time=24),
    Message('pitchwheel', channel=7, pitch=384, time=24),
    Message('pitchwheel', channel=7, pitch=512, time=24),
    Message('pitchwheel', channel=7, pitch=640, time=24),
    Message('pitchwheel', channel=7, pitch=640, time=0),
    Message('pitchwheel', channel=7, pitch=640, time=120),
    Message('pitchwheel', channel=7, pitch=0, time=0),
    Message('note_off', channel=7, note=70, velocity=95, time=0),
    Message('note_on', channel=6, note=76, velocity=95, time=0),
    Message('note_off', channel=6, note=76, velocity=95, time=240),
    Message('note_on', channel=6, note=74, velocity=95, time=0),
    Message('note_off', channel=6, note=74, velocity=95, time=120),
    Message('note_on', channel=6, note=71, velocity=54, time=0),
    Message('note_off', channel=6, note=71, velocity=54, time=120),
    Message('pitchwheel', channel=7, pitch=0, time=0),
    Message('note_on', channel=7, note=70, velocity=95, time=0),
    Message('pitchwheel', channel=7, pitch=128, time=24),
    Message('pitchwheel', channel=7, pitch=256, time=24),
    Message('pitchwheel', channel=7, pitch=384, time=24),
    Message('pitchwheel', channel=7, pitch=512, time=24),
    Message('pitchwheel', channel=7, pitch=640, time=24),
    Message('pitchwheel', channel=7, pitch=640, time=0),
    Message('pitchwheel', channel=7, pitch=640, time=120),
    Message('pitchwheel', channel=7, pitch=0, time=0),
    Message('note_off', channel=7, note=70, velocity=95, time=0),
    Message('note_on', channel=6, note=76, velocity=95, time=0),
    Message('note_off', channel=6, note=76, velocity=95, time=240),
    Message('note_on', channel=6, note=74, velocity=95, time=0),
    Message('note_off', channel=6, note=74, velocity=95, time=120),
    Message('note_on', channel=6, note=71, velocity=54, time=0),
    Message('note_off', channel=6, note=71, velocity=54, time=120),
    Message('pitchwheel', channel=7, pitch=0, time=0),
    Message('note_on', channel=7, note=70, velocity=95, time=0),
    Message('pitchwheel', channel=7, pitch=128, time=24),
    Message('pitchwheel', channel=7, pitch=256, time=24),
    Message('pitchwheel', channel=7, pitch=384, time=24),
    Message('pitchwheel', channel=7, pitch=512, time=24),
    Message('pitchwheel', channel=7, pitch=640, time=24),
    Message('pitchwheel', channel=7, pitch=640, time=0),
    Message('pitchwheel', channel=7, pitch=640, time=120),
    Message('pitchwheel', channel=7, pitch=0, time=0),
    Message('note_off', channel=7, note=70, velocity=95, time=0),
    Message('note_on', channel=6, note=76, velocity=95, time=0),
    Message('note_off', channel=6, note=76, velocity=95, time=240),
    Message('note_on', channel=6, note=74, velocity=95, time=0),
    Message('note_off', channel=6, note=74, velocity=95, time=120),
    Message('note_on', channel=6, note=71, velocity=54, time=0),
    Message('note_off', channel=6, note=71, velocity=54, time=120),
    Message('pitchwheel', channel=7, pitch=0, time=0),
    Message('note_on', channel=7, note=70, velocity=95, time=0),
    Message('pitchwheel', channel=7, pitch=128, time=24),
    Message('pitchwheel', channel=7, pitch=256, time=24),
    Message('pitchwheel', channel=7, pitch=384, time=24),
    Message('pitchwheel', channel=7, pitch=512, time=24),
    Message('pitchwheel', channel=7, pitch=640, time=24),
    Message('pitchwheel', channel=7, pitch=640, time=0),
    Message('pitchwheel', channel=7, pitch=640, time=120),
    Message('pitchwheel', channel=7, pitch=0, time=0),
    Message('note_off', channel=7, note=70, velocity=95, time=0),
    Message('note_on', channel=6, note=76, velocity=95, time=0),
    Message('note_off', channel=6, note=76, velocity=95, time=240),
    Message('note_on', channel=6, note=74, velocity=95, time=0),
    Message('note_off', channel=6, note=74, velocity=95, time=120),
    Message('note_on', channel=6, note=71, velocity=54, time=0),
    Message('note_off', channel=6, note=71, velocity=54, time=120),
    Message('pitchwheel', channel=7, pitch=0, time=0),
    Message('note_on', channel=7, note=70, velocity=95, time=0),
    Message('pitchwheel', channel=7, pitch=128, time=24),
    Message('pitchwheel', channel=7, pitch=256, time=24),
    Message('pitchwheel', channel=7, pitch=384, time=24),
    Message('pitchwheel', channel=7, pitch=512, time=24),
    Message('pitchwheel', channel=7, pitch=640, time=24),
    Message('pitchwheel', channel=7, pitch=640, time=0),
    Message('pitchwheel', channel=7, pitch=640, time=120),
    Message('pitchwheel', channel=7, pitch=0, time=0),
    Message('note_off', channel=7, note=70, velocity=95, time=0),
    Message('pitchwheel', channel=7, pitch=0, time=0),
    Message('note_on', channel=7, note=70, velocity=95, time=0),
    Message('pitchwheel', channel=7, pitch=128, time=24),
    Message('pitchwheel', channel=7, pitch=256, time=24),
    Message('pitchwheel', channel=7, pitch=384, time=24),
    Message('pitchwheel', channel=7, pitch=512, time=24),
    Message('pitchwheel', channel=7, pitch=640, time=24),
    Message('pitchwheel', channel=7, pitch=640, time=0),
    Message('pitchwheel', channel=7, pitch=640, time=120),
    Message('pitchwheel', channel=7, pitch=0, time=0),
    Message('note_off', channel=7, note=70, velocity=95, time=0),
    Message('note_on', channel=6, note=71, velocity=95, time=0),
    Message('note_off', channel=6, note=71, velocity=95, time=240),
    Message('note_on', channel=6, note=71, velocity=95, time=0),
    Message('note_off', channel=6, note=71, velocity=95, time=240),
    Message('note_on', channel=6, note=71, velocity=95, time=0),
    Message('note_off', channel=6, note=71, velocity=95, time=240),
    Message('pitchwheel', channel=7, pitch=0, time=0),
    Message('note_on', channel=7, note=70, velocity=95, time=0),
    Message('pitchwheel', channel=7, pitch=128, time=24),
    Message('pitchwheel', channel=7, pitch=256, time=24),
    Message('pitchwheel', channel=7, pitch=384, time=24),
    Message('pitchwheel', channel=7, pitch=512, time=24),
    Message('pitchwheel', channel=7, pitch=640, time=24),
    Message('pitchwheel', channel=7, pitch=640, time=0),
    Message('pitchwheel', channel=7, pitch=640, time=120),
    Message('pitchwheel', channel=7, pitch=0, time=0),
    Message('note_off', channel=7, note=70, velocity=95, time=0),
    Message('note_on', channel=6, note=71, velocity=95, time=0),
    Message('note_off', channel=6, note=71, velocity=95, time=240),
    Message('note_on', channel=6, note=69, velocity=95, time=0),
    Message('note_off', channel=6, note=69, velocity=95, time=240),
    Message('note_on', channel=6, note=67, velocity=95, time=0),
    Message('note_off', channel=6, note=67, velocity=95, time=240),
    Message('note_on', channel=6, note=67, velocity=95, time=0),
    Message('note_off', channel=6, note=67, velocity=95, time=120),
    Message('note_on', channel=6, note=64, velocity=95, time=0),
    Message('note_off', channel=6, note=64, velocity=95, time=120),
    Message('note_on', channel=7, note=67, velocity=95, time=0),
    Message('pitchwheel', channel=7, pitch=0, time=160),
    Message('pitchwheel', channel=7, pitch=128, time=160),
    Message('pitchwheel', channel=7, pitch=0, time=160),
    Message('pitchwheel', channel=7, pitch=128, time=160),
    Message('pitchwheel', channel=7, pitch=0, time=160),
    Message('pitchwheel', channel=7, pitch=128, time=160),
    Message('pitchwheel', channel=7, pitch=0, time=160),
    Message('pitchwheel', channel=7, pitch=128, time=160),
    Message('pitchwheel', channel=7, pitch=0, time=160),
    Message('pitchwheel', channel=7, pitch=128, time=0),
    Message('pitchwheel', channel=7, pitch=0, time=0),
    Message('note_off', channel=7, note=67, velocity=95, time=0),
    Message('note_on', channel=6, note=71, velocity=95, time=240),
    Message('pitchwheel', channel=7, pitch=0, time=0),
    Message('note_on', channel=7, note=69, velocity=95, time=0),
    Message('pitchwheel', channel=7, pitch=128, time=7),
    Message('pitchwheel', channel=7, pitch=256, time=7),
    Message('pitchwheel', channel=7, pitch=384, time=7),
    Message('pitchwheel', channel=7, pitch=512, time=7),
    Message('pitchwheel', channel=7, pitch=640, time=7),
    Message('pitchwheel', channel=7, pitch=768, time=7),
    Message('pitchwheel', channel=7, pitch=896, time=7),
    Message('pitchwheel', channel=7, pitch=1024, time=7),
    Message('pitchwheel', channel=7, pitch=1152, time=7),
    Message('pitchwheel', channel=7, pitch=1280, time=7),
    Message('pitchwheel', channel=7, pitch=1408, time=7),
    Message('pitchwheel', channel=7, pitch=1408, time=3),
    Message('pitchwheel', channel=7, pitch=1408, time=40),
    Message('note_off', channel=6, note=71, velocity=95, time=120),
    Message('pitchwheel', channel=7, pitch=1408, time=0),
    Message('pitchwheel', channel=7, pitch=0, time=0),
    Message('note_off', channel=7, note=69, velocity=95, time=0),
    Message('note_on', channel=6, note=71, velocity=95, time=0),
    Message('pitchwheel', channel=7, pitch=0, time=0),
    Message('note_on', channel=7, note=69, velocity=95, time=0),
    Message('pitchwheel', channel=7, pitch=128, time=27),
    Message('pitchwheel', channel=7, pitch=256, time=27),
    Message('pitchwheel', channel=7, pitch=384, time=27),
    Message('pitchwheel', channel=7, pitch=512, time=27),
    Message('pitchwheel', channel=7, pitch=640, time=27),
    Message('pitchwheel', channel=7, pitch=768, time=27),
    Message('pitchwheel', channel=7, pitch=896, time=27),
    Message('pitchwheel', channel=7, pitch=1024, time=27),
    Message('pitchwheel', channel=7, pitch=1152, time=27),
    Message('pitchwheel', channel=7, pitch=1280, time=27),
    Message('pitchwheel', channel=7, pitch=1408, time=27),
    Message('pitchwheel', channel=7, pitch=1408, time=3),
    Message('pitchwheel', channel=7, pitch=1408, time=300),
    Message('note_off', channel=6, note=71, velocity=95, time=600),
    Message('pitchwheel', channel=7, pitch=1408, time=0),
    Message('pitchwheel', channel=7, pitch=0, time=0),
    Message('note_off', channel=7, note=69, velocity=95, time=0),
    Message('note_on', channel=6, note=73, velocity=95, time=0),
    Message('pitchwheel', channel=7, pitch=0, time=0),
    Message('note_on', channel=7, note=71, velocity=95, time=0),
    Message('pitchwheel', channel=7, pitch=128, time=14),
    Message('pitchwheel', channel=7, pitch=256, time=14),
    Message('pitchwheel', channel=7, pitch=384, time=14),
    Message('pitchwheel', channel=7, pitch=512, time=14),
    Message('pitchwheel', channel=7, pitch=640, time=14),
    Message('pitchwheel', channel=7, pitch=768, time=14),
    Message('pitchwheel', channel=7, pitch=896, time=14),
    Message('pitchwheel', channel=7, pitch=1024, time=14),
    Message('pitchwheel', channel=7, pitch=1152, time=14),
    Message('pitchwheel', channel=7, pitch=1280, time=14),
    Message('pitchwheel', channel=7, pitch=1408, time=14),
    Message('pitchwheel', channel=7, pitch=1408, time=6),
    Message('pitchwheel', channel=7, pitch=1408, time=80),
    Message('note_off', channel=6, note=73, velocity=95, time=240),
    Message('pitchwheel', channel=7, pitch=1408, time=0),
    Message('pitchwheel', channel=7, pitch=0, time=0),
    Message('note_off', channel=7, note=71, velocity=95, time=0),
    Message('note_on', channel=6, note=74, velocity=95, time=0),
    Message('pitchwheel', channel=7, pitch=0, time=0),
    Message('note_on', channel=7, note=72, velocity=95, time=0),
    Message('pitchwheel', channel=7, pitch=128, time=29),
    Message('pitchwheel', channel=7, pitch=256, time=29),
    Message('pitchwheel', channel=7, pitch=384, time=29),
    Message('pitchwheel', channel=7, pitch=512, time=29),
    Message('pitchwheel', channel=7, pitch=640, time=29),
    Message('pitchwheel', channel=7, pitch=768, time=29),
    Message('pitchwheel', channel=7, pitch=896, time=29),
    Message('pitchwheel', channel=7, pitch=1024, time=29),
    Message('pitchwheel', channel=7, pitch=1152, time=29),
    Message('pitchwheel', channel=7, pitch=1280, time=29),
    Message('pitchwheel', channel=7, pitch=1408, time=29),
    Message('pitchwheel', channel=7, pitch=1408, time=1),
    Message('pitchwheel', channel=7, pitch=1408, time=640),
    Message('note_off', channel=6, note=74, velocity=95, time=960),
    Message('pitchwheel', channel=7, pitch=1408, time=0),
    Message('pitchwheel', channel=7, pitch=0, time=0),
    Message('note_off', channel=7, note=72, velocity=95, time=0),
    Message('note_on', channel=6, note=76, velocity=95, time=0),
    Message('pitchwheel', channel=7, pitch=0, time=0),
    Message('note_on', channel=7, note=74, velocity=95, time=0),
    Message('pitchwheel', channel=7, pitch=128, time=32),
    Message('pitchwheel', channel=7, pitch=256, time=32),
    Message('pitchwheel', channel=7, pitch=384, time=32),
    Message('pitchwheel', channel=7, pitch=512, time=32),
    Message('pitchwheel', channel=7, pitch=640, time=32),
    Message('pitchwheel', channel=7, pitch=768, time=32),
    Message('pitchwheel', channel=7, pitch=896, time=32),
    Message('pitchwheel', channel=7, pitch=1024, time=32),
    Message('pitchwheel', channel=7, pitch=1152, time=32),
    Message('pitchwheel', channel=7, pitch=1280, time=32),
    Message('pitchwheel', channel=7, pitch=1408, time=32),
    Message('pitchwheel', channel=7, pitch=1408, time=8),
    Message('note_off', channel=6, note=76, velocity=95, time=1080),
    Message('pitchwheel', channel=7, pitch=1408, time=0),
    Message('pitchwheel', channel=7, pitch=0, time=0),
    Message('note_off', channel=7, note=74, velocity=95, time=0),
    Message('note_on', channel=6, note=76, velocity=95, time=0),
    Message('pitchwheel', channel=7, pitch=0, time=0),
    Message('note_on', channel=7, note=74, velocity=95, time=0),
    Message('pitchwheel', channel=7, pitch=128, time=10),
    Message('pitchwheel', channel=7, pitch=256, time=10),
    Message('pitchwheel', channel=7, pitch=384, time=10),
    Message('pitchwheel', channel=7, pitch=512, time=10),
    Message('pitchwheel', channel=7, pitch=640, time=10),
    Message('pitchwheel', channel=7, pitch=768, time=10),
    Message('pitchwheel', channel=7, pitch=896, time=10),
    Message('pitchwheel', channel=7, pitch=1024, time=10),
    Message('pitchwheel', channel=7, pitch=1152, time=10),
    Message('pitchwheel', channel=7, pitch=1280, time=10),
    Message('pitchwheel', channel=7, pitch=1408, time=10),
    Message('pitchwheel', channel=7, pitch=1408, time=10),
    Message('pitchwheel', channel=7, pitch=1408, time=120),
    Message('note_off', channel=6, note=76, velocity=95, time=240),
    Message('pitchwheel', channel=7, pitch=1408, time=0),
    Message('pitchwheel', channel=7, pitch=0, time=0),
    Message('note_off', channel=7, note=74, velocity=95, time=0),
    Message('note_on', channel=6, note=76, velocity=95, time=0),
    Message('pitchwheel', channel=7, pitch=0, time=0),
    Message('note_on', channel=7, note=74, velocity=95, time=0),
    Message('pitchwheel', channel=7, pitch=128, time=14),
    Message('pitchwheel', channel=7, pitch=256, time=14),
    Message('pitchwheel', channel=7, pitch=384, time=14),
    Message('pitchwheel', channel=7, pitch=512, time=14),
    Message('pitchwheel', channel=7, pitch=640, time=14),
    Message('pitchwheel', channel=7, pitch=768, time=14),
    Message('pitchwheel', channel=7, pitch=896, time=14),
    Message('pitchwheel', channel=7, pitch=1024, time=14),
    Message('pitchwheel', channel=7, pitch=1152, time=14),
    Message('pitchwheel', channel=7, pitch=1280, time=14),
    Message('pitchwheel', channel=7, pitch=1408, time=14),
    Message('pitchwheel', channel=7, pitch=1408, time=6),
    Message('pitchwheel', channel=7, pitch=1408, time=320),
    Message('note_off', channel=6, note=76, velocity=95, time=480),
    Message('pitchwheel', channel=7, pitch=1408, time=0),
    Message('pitchwheel', channel=7, pitch=0, time=0),
    Message('note_off', channel=7, note=74, velocity=95, time=0),
    Message('note_on', channel=6, note=64, velocity=95, time=240),
    Message('note_off', channel=6, note=64, velocity=95, time=240),
    Message('note_on', channel=6, note=64, velocity=95, time=0),
    Message('note_off', channel=6, note=64, velocity=95, time=240),
    Message('note_on', channel=6, note=76, velocity=95, time=240),
    Message('pitchwheel', channel=7, pitch=0, time=0),
    Message('note_on', channel=7, note=74, velocity=95, time=0),
    Message('pitchwheel', channel=7, pitch=128, time=21),
    Message('pitchwheel', channel=7, pitch=256, time=21),
    Message('pitchwheel', channel=7, pitch=384, time=21),
    Message('pitchwheel', channel=7, pitch=512, time=21),
    Message('pitchwheel', channel=7, pitch=640, time=21),
    Message('pitchwheel', channel=7, pitch=768, time=21),
    Message('pitchwheel', channel=7, pitch=896, time=21),
    Message('pitchwheel', channel=7, pitch=1024, time=21),
    Message('pitchwheel', channel=7, pitch=1152, time=21),
    Message('pitchwheel', channel=7, pitch=1280, time=21),
    Message('pitchwheel', channel=7, pitch=1408, time=21),
    Message('pitchwheel', channel=7, pitch=1408, time=9),
    Message('pitchwheel', channel=7, pitch=1408, time=480),
    Message('note_off', channel=6, note=76, velocity=95, time=720),
    Message('pitchwheel', channel=7, pitch=1408, time=0),
    Message('pitchwheel', channel=7, pitch=0, time=0),
    Message('note_off', channel=7, note=74, velocity=95, time=0),
    Message('note_on', channel=6, note=78, velocity=95, time=0),
    Message('pitchwheel', channel=7, pitch=0, time=0),
    Message('note_on', channel=7, note=76, velocity=95, time=0),
    Message('pitchwheel', channel=7, pitch=128, time=21),
    Message('pitchwheel', channel=7, pitch=256, time=21),
    Message('pitchwheel', channel=7, pitch=384, time=21),
    Message('pitchwheel', channel=7, pitch=512, time=21),
    Message('pitchwheel', channel=7, pitch=640, time=21),
    Message('pitchwheel', channel=7, pitch=768, time=21),
    Message('pitchwheel', channel=7, pitch=896, time=21),
    Message('pitchwheel', channel=7, pitch=1024, time=21),
    Message('pitchwheel', channel=7, pitch=1152, time=21),
    Message('pitchwheel', channel=7, pitch=1280, time=21),
    Message('pitchwheel', channel=7, pitch=1408, time=21),
    Message('pitchwheel', channel=7, pitch=1408, time=9),
    Message('note_off', channel=6, note=78, velocity=95, time=240),
    Message('pitchwheel', channel=7, pitch=1408, time=0),
    Message('pitchwheel', channel=7, pitch=0, time=0),
    Message('note_off', channel=7, note=76, velocity=95, time=0),
    Message('note_on', channel=6, note=79, velocity=95, time=0),
    Message('pitchwheel', channel=7, pitch=0, time=0),
    Message('note_on', channel=7, note=77, velocity=95, time=0),
    Message('pitchwheel', channel=7, pitch=128, time=21),
    Message('pitchwheel', channel=7, pitch=256, time=21),
    Message('pitchwheel', channel=7, pitch=384, time=21),
    Message('pitchwheel', channel=7, pitch=512, time=21),
    Message('pitchwheel', channel=7, pitch=640, time=21),
    Message('pitchwheel', channel=7, pitch=768, time=21),
    Message('pitchwheel', channel=7, pitch=896, time=21),
    Message('pitchwheel', channel=7, pitch=1024, time=21),
    Message('pitchwheel', channel=7, pitch=1152, time=21),
    Message('pitchwheel', channel=7, pitch=1280, time=21),
    Message('pitchwheel', channel=7, pitch=1408, time=21),
    Message('pitchwheel', channel=7, pitch=1408, time=9),
    Message('pitchwheel', channel=7, pitch=1408, time=240),
    Message('note_off', channel=6, note=79, velocity=95, time=480),
    Message('pitchwheel', channel=7, pitch=1408, time=0),
    Message('pitchwheel', channel=7, pitch=0, time=0),
    Message('note_off', channel=7, note=77, velocity=95, time=0),
    Message('note_on', channel=6, note=79, velocity=95, time=0),
    Message('pitchwheel', channel=7, pitch=0, time=0),
    Message('note_on', channel=7, note=77, velocity=95, time=0),
    Message('pitchwheel', channel=7, pitch=128, time=21),
    Message('pitchwheel', channel=7, pitch=256, time=21),
    Message('pitchwheel', channel=7, pitch=384, time=21),
    Message('pitchwheel', channel=7, pitch=512, time=21),
    Message('pitchwheel', channel=7, pitch=640, time=21),
    Message('pitchwheel', channel=7, pitch=768, time=21),
    Message('pitchwheel', channel=7, pitch=896, time=21),
    Message('pitchwheel', channel=7, pitch=1024, time=21),
    Message('pitchwheel', channel=7, pitch=1152, time=21),
    Message('pitchwheel', channel=7, pitch=1280, time=21),
    Message('pitchwheel', channel=7, pitch=1408, time=21),
    Message('pitchwheel', channel=7, pitch=1408, time=9),
    Message('pitchwheel', channel=7, pitch=1408, time=240),
    Message('note_off', channel=6, note=79, velocity=95, time=480),
    Message('pitchwheel', channel=7, pitch=1408, time=0),
    Message('pitchwheel', channel=7, pitch=0, time=0),
    Message('note_off', channel=7, note=77, velocity=95, time=0),
    Message('note_on', channel=6, note=81, velocity=95, time=0),
    Message('pitchwheel', channel=7, pitch=0, time=0),
    Message('note_on', channel=7, note=79, velocity=95, time=0),
    Message('pitchwheel', channel=7, pitch=128, time=65),
    Message('pitchwheel', channel=7, pitch=256, time=65),
    Message('pitchwheel', channel=7, pitch=384, time=65),
    Message('pitchwheel', channel=7, pitch=512, time=65),
    Message('pitchwheel', channel=7, pitch=640, time=65),
    Message('pitchwheel', channel=7, pitch=768, time=65),
    Message('pitchwheel', channel=7, pitch=896, time=65),
    Message('pitchwheel', channel=7, pitch=1024, time=65),
    Message('pitchwheel', channel=7, pitch=1152, time=65),
    Message('pitchwheel', channel=7, pitch=1280, time=65),
    Message('pitchwheel', channel=7, pitch=1408, time=65),
    Message('pitchwheel', channel=7, pitch=1408, time=5),
    Message('note_off', channel=6, note=81, velocity=95, time=720),
    Message('pitchwheel', channel=7, pitch=1408, time=0),
    Message('pitchwheel', channel=7, pitch=0, time=0),
    Message('note_off', channel=7, note=79, velocity=95, time=0),
    Message('pitchwheel', channel=7, pitch=0, time=0),
    Message('note_on', channel=7, note=80, velocity=95, time=0),
    Message('pitchwheel', channel=7, pitch=128, time=21),
    Message('pitchwheel', channel=7, pitch=256, time=21),
    Message('pitchwheel', channel=7, pitch=384, time=21),
    Message('pitchwheel', channel=7, pitch=512, time=21),
    Message('pitchwheel', channel=7, pitch=640, time=21),
    Message('pitchwheel', channel=7, pitch=768, time=21),
    Message('pitchwheel', channel=7, pitch=896, time=21),
    Message('pitchwheel', channel=7, pitch=1024, time=21),
    Message('pitchwheel', channel=7, pitch=1152, time=21),
    Message('pitchwheel', channel=7, pitch=1280, time=21),
    Message('pitchwheel', channel=7, pitch=1408, time=21),
    Message('pitchwheel', channel=7, pitch=1408, time=9),
    Message('pitchwheel', channel=7, pitch=1408, time=240),
    Message('pitchwheel', channel=7, pitch=0, time=0),
    Message('note_off', channel=7, note=80, velocity=95, time=0),
    Message('pitchwheel', channel=7, pitch=0, time=0),
    Message('note_on', channel=7, note=81, velocity=95, time=0),
    Message('pitchwheel', channel=7, pitch=128, time=32),
    Message('pitchwheel', channel=7, pitch=256, time=32),
    Message('pitchwheel', channel=7, pitch=384, time=32),
    Message('pitchwheel', channel=7, pitch=512, time=32),
    Message('pitchwheel', channel=7, pitch=640, time=32),
    Message('pitchwheel', channel=7, pitch=768, time=32),
    Message('pitchwheel', channel=7, pitch=896, time=32),
    Message('pitchwheel', channel=7, pitch=1024, time=32),
    Message('pitchwheel', channel=7, pitch=1152, time=32),
    Message('pitchwheel', channel=7, pitch=1280, time=32),
    Message('pitchwheel', channel=7, pitch=1408, time=32),
    Message('pitchwheel', channel=7, pitch=1408, time=8),
    Message('pitchwheel', channel=7, pitch=1408, time=360),
    Message('pitchwheel', channel=7, pitch=0, time=0),
    Message('note_off', channel=7, note=81, velocity=95, time=0),
    Message('pitchwheel', channel=7, pitch=0, time=0),
    Message('note_on', channel=7, note=79, velocity=95, time=0),
    Message('pitchwheel', channel=7, pitch=128, time=21),
    Message('pitchwheel', channel=7, pitch=256, time=21),
    Message('pitchwheel', channel=7, pitch=384, time=21),
    Message('pitchwheel', channel=7, pitch=512, time=21),
    Message('pitchwheel', channel=7, pitch=640, time=21),
    Message('pitchwheel', channel=7, pitch=768, time=21),
    Message('pitchwheel', channel=7, pitch=896, time=21),
    Message('pitchwheel', channel=7, pitch=1024, time=21),
    Message('pitchwheel', channel=7, pitch=1152, time=21),
    Message('pitchwheel', channel=7, pitch=1280, time=21),
    Message('pitchwheel', channel=7, pitch=1408, time=21),
    Message('pitchwheel', channel=7, pitch=1408, time=9),
    Message('pitchwheel', channel=7, pitch=1408, time=240),
    Message('pitchwheel', channel=7, pitch=1408, time=480),
    Message('pitchwheel', channel=7, pitch=0, time=0),
    Message('note_off', channel=7, note=79, velocity=95, time=0),
    Message('note_on', channel=6, note=76, velocity=95, time=0),
    Message('note_off', channel=6, note=76, velocity=95, time=120),
    Message('note_on', channel=6, note=79, velocity=70, time=0),
    Message('note_off', channel=6, note=79, velocity=70, time=120),
    Message('note_on', channel=6, note=76, velocity=95, time=0),
    Message('note_off', channel=6, note=76, velocity=95, time=1680),
    Message('note_on', channel=7, note=76, velocity=95, time=0),
    Message('note_off', channel=7, note=76, velocity=95, time=480),
    Message('note_on', channel=6, note=62, velocity=95, time=4560),
    Message('note_off', channel=6, note=62, velocity=95, time=240),
    Message('note_on', channel=6, note=64, velocity=70, time=0),
    Message('note_off', channel=6, note=64, velocity=70, time=720),
    Message('note_on', channel=7, note=64, velocity=95, time=0),
    Message('note_on', channel=7, note=59, velocity=95, time=0),
    Message('note_on', channel=7, note=52, velocity=95, time=0),
    Message('note_off', channel=7, note=64, velocity=95, time=480),
    Message('note_off', channel=7, note=59, velocity=95, time=0),
    Message('note_off', channel=7, note=52, velocity=95, time=0),
    MetaMessage('end_of_track', time=0)])
])
