MidiFile(type=1, ticks_per_beat=120, tracks=[
  MidiTrack([
    MetaMessage('time_signature', numerator=4, denominator=4, clocks_per_click=24, notated_32nd_notes_per_beat=8, time=0),
    MetaMessage('key_signature', key='C', time=0),
    MetaMessage('set_tempo', tempo=483871, time=0),
    MetaMessage('set_tempo', tempo=483871, time=57122),
    MetaMessage('set_tempo', tempo=504202, time=10),
    MetaMessage('set_tempo', tempo=526316, time=10),
    MetaMessage('set_tempo', tempo=555556, time=10),
    MetaMessage('set_tempo', tempo=582524, time=10),
    MetaMessage('set_tempo', tempo=618557, time=10),
    MetaMessage('set_tempo', tempo=652174, time=10),
    MetaMessage('set_tempo', tempo=689655, time=10),
    MetaMessage('set_tempo', tempo=740741, time=10),
    MetaMessage('set_tempo', tempo=789474, time=10),
    MetaMessage('set_tempo', tempo=845070, time=10),
    MetaMessage('end_of_track', time=0)]),
  MidiTrack([
    MetaMessage('midi_port', port=0, time=0),
    MetaMessage('track_name', name='"Better Man"', time=0),
    Message('program_change', channel=0, program=27, time=0),
    Message('control_change', channel=0, control=7, value=80, time=0),
    Message('control_change', channel=0, control=10, value=64, time=0),
    Message('note_on', channel=0, note=42, velocity=127, time=0),
    Message('note_on', channel=0, note=62, velocity=127, time=180),
    Message('note_on', channel=0, note=57, velocity=127, time=0),
    Message('note_on', channel=0, note=42, velocity=0, time=59),
    Message('note_on', channel=0, note=62, velocity=0, time=60),
    Message('note_on', channel=0, note=62, velocity=127, time=1),
    Message('note_on', channel=0, note=62, velocity=0, time=59),
    Message('note_on', channel=0, note=57, velocity=0, time=0),
    Message('note_on', channel=0, note=57, velocity=127, time=1),
    Message('note_on', channel=0, note=57, velocity=0, time=59),
    Message('note_on', channel=0, note=40, velocity=127, time=1),
    Message('note_on', channel=0, note=40, velocity=0, time=59),
    Message('note_on', channel=0, note=42, velocity=127, time=1),
    Message('note_on', channel=0, note=62, velocity=127, time=180),
    Message('note_on', channel=0, note=57, velocity=127, time=0),
    Message('note_on', channel=0, note=42, velocity=0, time=59),
    Message('note_on', channel=0, note=62, velocity=0, time=60),
    Message('note_on', channel=0, note=62, velocity=127, time=1),
    Message('note_on', channel=0, note=62, velocity=0, time=59),
    Message('note_on', channel=0, note=57, velocity=0, time=0),
    Message('note_on', channel=0, note=57, velocity=127, time=1),
    Message('note_on', channel=0, note=57, velocity=0, time=59),
    Message('note_on', channel=0, note=40, velocity=127, time=1),
    Message('note_on', channel=0, note=40, velocity=0, time=59),
    Message('note_on', channel=0, note=44, velocity=127, time=1),
    Message('note_on', channel=0, note=64, velocity=127, time=180),
    Message('note_on', channel=0, note=59, velocity=127, time=0),
    Message('note_on', channel=0, note=44, velocity=0, time=59),
    Message('note_on', channel=0, note=64, velocity=0, time=60),
    Message('note_on', channel=0, note=64, velocity=127, time=1),
    Message('note_on', channel=0, note=64, velocity=0, time=59),
    Message('note_on', channel=0, note=59, velocity=0, time=0),
    Message('note_on', channel=0, note=59, velocity=127, time=1),
    Message('note_on', channel=0, note=59, velocity=0, time=59),
    Message('note_on', channel=0, note=40, velocity=127, time=1),
    Message('note_on', channel=0, note=40, velocity=0, time=59),
    Message('note_on', channel=0, note=44, velocity=127, time=1),
    Message('note_on', channel=0, note=59, velocity=100, time=60),
    Message('note_on', channel=0, note=59, velocity=0, time=59),
    Message('note_on', channel=0, note=64, velocity=100, time=1),
    Message('note_on', channel=0, note=64, velocity=0, time=59),
    Message('note_on', channel=0, note=59, velocity=100, time=1),
    Message('note_on', channel=0, note=59, velocity=0, time=59),
    Message('note_on', channel=0, note=44, velocity=0, time=0),
    Message('note_on', channel=0, note=64, velocity=100, time=1),
    Message('note_on', channel=0, note=64, velocity=0, time=59),
    Message('note_on', channel=0, note=59, velocity=100, time=1),
    Message('note_on', channel=0, note=59, velocity=0, time=59),
    Message('note_on', channel=0, note=64, velocity=100, time=1),
    Message('note_on', channel=0, note=64, velocity=0, time=59),
    Message('note_on', channel=0, note=59, velocity=100, time=1),
    Message('note_on', channel=0, note=59, velocity=0, time=59),
    Message('note_on', channel=0, note=42, velocity=127, time=1),
    Message('note_on', channel=0, note=62, velocity=127, time=180),
    Message('note_on', channel=0, note=57, velocity=127, time=0),
    Message('note_on', channel=0, note=42, velocity=0, time=59),
    Message('note_on', channel=0, note=62, velocity=0, time=60),
    Message('note_on', channel=0, note=62, velocity=127, time=1),
    Message('note_on', channel=0, note=62, velocity=0, time=59),
    Message('note_on', channel=0, note=57, velocity=0, time=0),
    Message('note_on', channel=0, note=57, velocity=127, time=1),
    Message('note_on', channel=0, note=57, velocity=0, time=59),
    Message('note_on', channel=0, note=40, velocity=127, time=1),
    Message('note_on', channel=0, note=40, velocity=0, time=59),
    Message('note_on', channel=0, note=42, velocity=127, time=1),
    Message('note_on', channel=0, note=62, velocity=127, time=180),
    Message('note_on', channel=0, note=57, velocity=127, time=0),
    Message('note_on', channel=0, note=42, velocity=0, time=59),
    Message('note_on', channel=0, note=62, velocity=0, time=60),
    Message('note_on', channel=0, note=62, velocity=127, time=1),
    Message('note_on', channel=0, note=62, velocity=0, time=59),
    Message('note_on', channel=0, note=57, velocity=0, time=0),
    Message('note_on', channel=0, note=57, velocity=127, time=1),
    Message('note_on', channel=0, note=57, velocity=0, time=59),
    Message('note_on', channel=0, note=40, velocity=127, time=1),
    Message('note_on', channel=0, note=40, velocity=0, time=59),
    Message('note_on', channel=0, note=44, velocity=127, time=1),
    Message('note_on', channel=0, note=64, velocity=127, time=180),
    Message('note_on', channel=0, note=59, velocity=127, time=0),
    Message('note_on', channel=0, note=44, velocity=0, time=59),
    Message('note_on', channel=0, note=64, velocity=0, time=60),
    Message('note_on', channel=0, note=64, velocity=127, time=1),
    Message('note_on', channel=0, note=64, velocity=0, time=59),
    Message('note_on', channel=0, note=59, velocity=0, time=0),
    Message('note_on', channel=0, note=59, velocity=127, time=1),
    Message('note_on', channel=0, note=59, velocity=0, time=59),
    Message('note_on', channel=0, note=40, velocity=127, time=1),
    Message('note_on', channel=0, note=40, velocity=0, time=59),
    Message('note_on', channel=0, note=44, velocity=127, time=1),
    Message('note_on', channel=0, note=59, velocity=100, time=60),
    Message('note_on', channel=0, note=59, velocity=0, time=59),
    Message('note_on', channel=0, note=64, velocity=100, time=1),
    Message('note_on', channel=0, note=64, velocity=0, time=59),
    Message('note_on', channel=0, note=59, velocity=100, time=1),
    Message('note_on', channel=0, note=59, velocity=0, time=59),
    Message('note_on', channel=0, note=44, velocity=0, time=0),
    Message('note_on', channel=0, note=64, velocity=100, time=1),
    Message('note_on', channel=0, note=64, velocity=0, time=59),
    Message('note_on', channel=0, note=59, velocity=100, time=1),
    Message('note_on', channel=0, note=59, velocity=0, time=59),
    Message('note_on', channel=0, note=64, velocity=100, time=1),
    Message('note_on', channel=0, note=64, velocity=0, time=59),
    Message('note_on', channel=0, note=59, velocity=100, time=1),
    Message('note_on', channel=0, note=59, velocity=0, time=59),
    Message('note_on', channel=0, note=42, velocity=127, time=1),
    Message('note_on', channel=0, note=42, velocity=0, time=179),
    Message('note_on', channel=0, note=42, velocity=127, time=1),
    Message('note_on', channel=0, note=62, velocity=127, time=0),
    Message('note_on', channel=0, note=57, velocity=127, time=0),
    Message('note_on', channel=0, note=62, velocity=0, time=119),
    Message('note_on', channel=0, note=62, velocity=127, time=1),
    Message('note_on', channel=0, note=62, velocity=0, time=59),
    Message('note_on', channel=0, note=57, velocity=0, time=0),
    Message('note_on', channel=0, note=57, velocity=127, time=1),
    Message('note_on', channel=0, note=57, velocity=0, time=59),
    Message('note_on', channel=0, note=42, velocity=0, time=0),
    Message('note_on', channel=0, note=40, velocity=127, time=1),
    Message('note_on', channel=0, note=40, velocity=0, time=59),
    Message('note_on', channel=0, note=42, velocity=127, time=1),
    Message('note_on', channel=0, note=42, velocity=0, time=179),
    Message('note_on', channel=0, note=42, velocity=127, time=1),
    Message('note_on', channel=0, note=62, velocity=127, time=0),
    Message('note_on', channel=0, note=57, velocity=127, time=0),
    Message('note_on', channel=0, note=62, velocity=0, time=119),
    Message('note_on', channel=0, note=62, velocity=127, time=1),
    Message('note_on', channel=0, note=62, velocity=0, time=59),
    Message('note_on', channel=0, note=57, velocity=0, time=0),
    Message('note_on', channel=0, note=57, velocity=127, time=1),
    Message('note_on', channel=0, note=57, velocity=0, time=59),
    Message('note_on', channel=0, note=42, velocity=0, time=0),
    Message('note_on', channel=0, note=40, velocity=127, time=1),
    Message('note_on', channel=0, note=40, velocity=0, time=59),
    Message('note_on', channel=0, note=44, velocity=127, time=1),
    Message('note_on', channel=0, note=44, velocity=0, time=179),
    Message('note_on', channel=0, note=44, velocity=127, time=1),
    Message('note_on', channel=0, note=64, velocity=127, time=0),
    Message('note_on', channel=0, note=59, velocity=127, time=0),
    Message('note_on', channel=0, note=64, velocity=0, time=119),
    Message('note_on', channel=0, note=64, velocity=127, time=1),
    Message('note_on', channel=0, note=64, velocity=0, time=59),
    Message('note_on', channel=0, note=59, velocity=0, time=0),
    Message('note_on', channel=0, note=44, velocity=0, time=0),
    Message('note_on', channel=0, note=59, velocity=127, time=1),
    Message('note_on', channel=0, note=59, velocity=0, time=59),
    Message('note_on', channel=0, note=40, velocity=127, time=1),
    Message('note_on', channel=0, note=40, velocity=0, time=59),
    Message('note_on', channel=0, note=44, velocity=127, time=1),
    Message('note_on', channel=0, note=59, velocity=100, time=60),
    Message('note_on', channel=0, note=59, velocity=0, time=59),
    Message('note_on', channel=0, note=64, velocity=100, time=1),
    Message('note_on', channel=0, note=64, velocity=0, time=59),
    Message('note_on', channel=0, note=44, velocity=0, time=0),
    Message('note_on', channel=0, note=44, velocity=127, time=1),
    Message('note_on', channel=0, note=59, velocity=100, time=0),
    Message('note_on', channel=0, note=59, velocity=0, time=59),
    Message('note_on', channel=0, note=64, velocity=100, time=1),
    Message('note_on', channel=0, note=64, velocity=0, time=59),
    Message('note_on', channel=0, note=59, velocity=100, time=1),
    Message('note_on', channel=0, note=59, velocity=0, time=59),
    Message('note_on', channel=0, note=64, velocity=100, time=1),
    Message('note_on', channel=0, note=64, velocity=0, time=59),
    Message('note_on', channel=0, note=59, velocity=100, time=1),
    Message('note_on', channel=0, note=59, velocity=0, time=59),
    Message('note_on', channel=0, note=44, velocity=0, time=0),
    Message('note_on', channel=0, note=42, velocity=127, time=1),
    Message('note_on', channel=0, note=42, velocity=0, time=179),
    Message('note_on', channel=0, note=42, velocity=127, time=1),
    Message('note_on', channel=0, note=62, velocity=127, time=0),
    Message('note_on', channel=0, note=57, velocity=127, time=0),
    Message('note_on', channel=0, note=62, velocity=0, time=119),
    Message('note_on', channel=0, note=62, velocity=127, time=1),
    Message('note_on', channel=0, note=62, velocity=0, time=59),
    Message('note_on', channel=0, note=57, velocity=0, time=0),
    Message('note_on', channel=0, note=57, velocity=127, time=1),
    Message('note_on', channel=0, note=57, velocity=0, time=59),
    Message('note_on', channel=0, note=42, velocity=0, time=0),
    Message('note_on', channel=0, note=40, velocity=127, time=1),
    Message('note_on', channel=0, note=40, velocity=0, time=59),
    Message('note_on', channel=0, note=42, velocity=127, time=1),
    Message('note_on', channel=0, note=42, velocity=0, time=179),
    Message('note_on', channel=0, note=42, velocity=127, time=1),
    Message('note_on', channel=0, note=62, velocity=127, time=0),
    Message('note_on', channel=0, note=57, velocity=127, time=0),
    Message('note_on', channel=0, note=62, velocity=0, time=119),
    Message('note_on', channel=0, note=62, velocity=127, time=1),
    Message('note_on', channel=0, note=62, velocity=0, time=59),
    Message('note_on', channel=0, note=57, velocity=0, time=0),
    Message('note_on', channel=0, note=57, velocity=127, time=1),
    Message('note_on', channel=0, note=57, velocity=0, time=59),
    Message('note_on', channel=0, note=42, velocity=0, time=0),
    Message('note_on', channel=0, note=40, velocity=127, time=1),
    Message('note_on', channel=0, note=40, velocity=0, time=59),
    Message('note_on', channel=0, note=44, velocity=127, time=1),
    Message('note_on', channel=0, note=44, velocity=0, time=179),
    Message('note_on', channel=0, note=44, velocity=127, time=1),
    Message('note_on', channel=0, note=64, velocity=127, time=0),
    Message('note_on', channel=0, note=59, velocity=127, time=0),
    Message('note_on', channel=0, note=64, velocity=0, time=119),
    Message('note_on', channel=0, note=64, velocity=127, time=1),
    Message('note_on', channel=0, note=64, velocity=0, time=59),
    Message('note_on', channel=0, note=59, velocity=0, time=0),
    Message('note_on', channel=0, note=44, velocity=0, time=0),
    Message('note_on', channel=0, note=59, velocity=127, time=1),
    Message('note_on', channel=0, note=59, velocity=0, time=59),
    Message('note_on', channel=0, note=40, velocity=127, time=1),
    Message('note_on', channel=0, note=40, velocity=0, time=59),
    Message('note_on', channel=0, note=44, velocity=127, time=1),
    Message('note_on', channel=0, note=59, velocity=100, time=60),
    Message('note_on', channel=0, note=59, velocity=0, time=59),
    Message('note_on', channel=0, note=64, velocity=100, time=1),
    Message('note_on', channel=0, note=64, velocity=0, time=59),
    Message('note_on', channel=0, note=44, velocity=0, time=0),
    Message('note_on', channel=0, note=44, velocity=127, time=1),
    Message('note_on', channel=0, note=59, velocity=100, time=0),
    Message('note_on', channel=0, note=59, velocity=0, time=59),
    Message('note_on', channel=0, note=64, velocity=100, time=1),
    Message('note_on', channel=0, note=64, velocity=0, time=59),
    Message('note_on', channel=0, note=59, velocity=100, time=1),
    Message('note_on', channel=0, note=59, velocity=0, time=59),
    Message('note_on', channel=0, note=64, velocity=100, time=1),
    Message('note_on', channel=0, note=64, velocity=0, time=59),
    Message('note_on', channel=0, note=59, velocity=100, time=1),
    Message('note_on', channel=0, note=59, velocity=0, time=59),
    Message('note_on', channel=0, note=44, velocity=0, time=0),
    Message('note_on', channel=0, note=45, velocity=127, time=1),
    Message('note_on', channel=0, note=45, velocity=0, time=179),
    Message('note_on', channel=0, note=65, velocity=127, time=1),
    Message('note_on', channel=0, note=60, velocity=127, time=0),
    Message('note_on', channel=0, note=45, velocity=127, time=0),
    Message('note_on', channel=0, note=65, velocity=0, time=119),
    Message('note_on', channel=0, note=65, velocity=127, time=1),
    Message('note_on', channel=0, note=65, velocity=0, time=59),
    Message('note_on', channel=0, note=45, velocity=0, time=0),
    Message('note_on', channel=0, note=60, velocity=0, time=0),
    Message('note_on', channel=0, note=60, velocity=127, time=1),
    Message('note_on', channel=0, note=60, velocity=0, time=59),
    Message('note_on', channel=0, note=65, velocity=127, time=1),
    Message('note_on', channel=0, note=45, velocity=127, time=0),
    Message('note_on', channel=0, note=45, velocity=0, time=59),
    Message('note_on', channel=0, note=65, velocity=0, time=0),
    Message('note_on', channel=0, note=62, velocity=127, time=1),
    Message('note_on', channel=0, note=47, velocity=127, time=0),
    Message('note_on', channel=0, note=62, velocity=0, time=59),
    Message('note_on', channel=0, note=67, velocity=127, time=1),
    Message('note_on', channel=0, note=67, velocity=0, time=59),
    Message('note_on', channel=0, note=62, velocity=127, time=1),
    Message('note_on', channel=0, note=62, velocity=0, time=59),
    Message('note_on', channel=0, note=47, velocity=0, time=0),
    Message('note_on', channel=0, note=67, velocity=127, time=1),
    Message('note_on', channel=0, note=62, velocity=127, time=0),
    Message('note_on', channel=0, note=47, velocity=127, time=0),
    Message('note_on', channel=0, note=67, velocity=0, time=119),
    Message('note_on', channel=0, note=67, velocity=127, time=1),
    Message('note_on', channel=0, note=67, velocity=0, time=59),
    Message('note_on', channel=0, note=47, velocity=0, time=0),
    Message('note_on', channel=0, note=62, velocity=0, time=0),
    Message('note_on', channel=0, note=62, velocity=127, time=1),
    Message('note_on', channel=0, note=62, velocity=0, time=59),
    Message('note_on', channel=0, note=67, velocity=127, time=1),
    Message('note_on', channel=0, note=47, velocity=127, time=0),
    Message('note_on', channel=0, note=47, velocity=0, time=59),
    Message('note_on', channel=0, note=67, velocity=0, time=0),
    Message('note_on', channel=0, note=60, velocity=127, time=1),
    Message('note_on', channel=0, note=45, velocity=127, time=0),
    Message('note_on', channel=0, note=60, velocity=0, time=59),
    Message('note_on', channel=0, note=65, velocity=127, time=1),
    Message('note_on', channel=0, note=65, velocity=0, time=59),
    Message('note_on', channel=0, note=60, velocity=127, time=1),
    Message('note_on', channel=0, note=60, velocity=0, time=59),
    Message('note_on', channel=0, note=45, velocity=0, time=0),
    Message('note_on', channel=0, note=65, velocity=127, time=1),
    Message('note_on', channel=0, note=60, velocity=127, time=0),
    Message('note_on', channel=0, note=45, velocity=127, time=0),
    Message('note_on', channel=0, note=65, velocity=0, time=119),
    Message('note_on', channel=0, note=65, velocity=127, time=1),
    Message('note_on', channel=0, note=65, velocity=0, time=59),
    Message('note_on', channel=0, note=45, velocity=0, time=0),
    Message('note_on', channel=0, note=60, velocity=0, time=0),
    Message('note_on', channel=0, note=60, velocity=127, time=1),
    Message('note_on', channel=0, note=60, velocity=0, time=59),
    Message('note_on', channel=0, note=65, velocity=127, time=1),
    Message('note_on', channel=0, note=45, velocity=127, time=0),
    Message('note_on', channel=0, note=45, velocity=0, time=59),
    Message('note_on', channel=0, note=65, velocity=0, time=0),
    Message('note_on', channel=0, note=62, velocity=127, time=1),
    Message('note_on', channel=0, note=47, velocity=127, time=0),
    Message('note_on', channel=0, note=62, velocity=0, time=59),
    Message('note_on', channel=0, note=67, velocity=127, time=1),
    Message('note_on', channel=0, note=67, velocity=0, time=59),
    Message('note_on', channel=0, note=62, velocity=127, time=1),
    Message('note_on', channel=0, note=62, velocity=0, time=59),
    Message('note_on', channel=0, note=47, velocity=0, time=0),
    Message('note_on', channel=0, note=67, velocity=127, time=1),
    Message('note_on', channel=0, note=62, velocity=127, time=0),
    Message('note_on', channel=0, note=47, velocity=127, time=0),
    Message('note_on', channel=0, note=47, velocity=0, time=779),
    Message('note_on', channel=0, note=62, velocity=0, time=0),
    Message('note_on', channel=0, note=67, velocity=0, time=0),
    Message('note_on', channel=0, note=57, velocity=127, time=1),
    Message('note_on', channel=0, note=50, velocity=127, time=0),
    Message('control_change', channel=0, control=7, value=59, time=0),
    Message('note_on', channel=0, note=62, velocity=127, time=60),
    Message('note_on', channel=0, note=62, velocity=0, time=119),
    Message('note_on', channel=0, note=50, velocity=0, time=0),
    Message('note_on', channel=0, note=57, velocity=0, time=0),
    Message('note_on', channel=0, note=50, velocity=127, time=1),
    Message('note_on', channel=0, note=50, velocity=0, time=59),
    Message('note_on', channel=0, note=62, velocity=127, time=1),
    Message('note_on', channel=0, note=57, velocity=127, time=60),
    Message('note_on', channel=0, note=62, velocity=0, time=59),
    Message('note_on', channel=0, note=50, velocity=127, time=1),
    Message('note_on', channel=0, note=57, velocity=0, time=59),
    Message('note_on', channel=0, note=62, velocity=127, time=1),
    Message('note_on', channel=0, note=62, velocity=0, time=59),
    Message('note_on', channel=0, note=50, velocity=0, time=0),
    Message('note_on', channel=0, note=45, velocity=127, time=1),
    Message('note_on', channel=0, note=57, velocity=127, time=60),
    Message('note_on', channel=0, note=45, velocity=0, time=59),
    Message('note_on', channel=0, note=52, velocity=127, time=1),
    Message('note_on', channel=0, note=57, velocity=0, time=59),
    Message('note_on', channel=0, note=45, velocity=127, time=1),
    Message('note_on', channel=0, note=45, velocity=0, time=59),
    Message('note_on', channel=0, note=52, velocity=0, time=0),
    Message('note_on', channel=0, note=43, velocity=127, time=1),
    Message('note_on', channel=0, note=55, velocity=127, time=60),
    Message('note_on', channel=0, note=43, velocity=0, time=59),
    Message('note_on', channel=0, note=50, velocity=127, time=1),
    Message('note_on', channel=0, note=55, velocity=0, time=59),
    Message('note_on', channel=0, note=43, velocity=127, time=1),
    Message('note_on', channel=0, note=43, velocity=0, time=59),
    Message('note_on', channel=0, note=50, velocity=0, time=0),
    Message('note_on', channel=0, note=57, velocity=127, time=1),
    Message('note_on', channel=0, note=50, velocity=127, time=0),
    Message('note_on', channel=0, note=62, velocity=127, time=60),
    Message('note_on', channel=0, note=62, velocity=0, time=119),
    Message('note_on', channel=0, note=50, velocity=0, time=0),
    Message('note_on', channel=0, note=57, velocity=0, time=0),
    Message('note_on', channel=0, note=50, velocity=127, time=1),
    Message('note_on', channel=0, note=50, velocity=0, time=59),
    Message('note_on', channel=0, note=62, velocity=127, time=1),
    Message('note_on', channel=0, note=57, velocity=127, time=60),
    Message('note_on', channel=0, note=62, velocity=0, time=59),
    Message('note_on', channel=0, note=50, velocity=127, time=1),
    Message('note_on', channel=0, note=57, velocity=0, time=59),
    Message('note_on', channel=0, note=62, velocity=127, time=1),
    Message('note_on', channel=0, note=62, velocity=0, time=59),
    Message('note_on', channel=0, note=50, velocity=0, time=0),
    Message('note_on', channel=0, note=45, velocity=127, time=1),
    Message('note_on', channel=0, note=57, velocity=127, time=60),
    Message('note_on', channel=0, note=45, velocity=0, time=59),
    Message('note_on', channel=0, note=52, velocity=127, time=1),
    Message('note_on', channel=0, note=57, velocity=0, time=59),
    Message('note_on', channel=0, note=45, velocity=127, time=1),
    Message('note_on', channel=0, note=45, velocity=0, time=59),
    Message('note_on', channel=0, note=52, velocity=0, time=0),
    Message('note_on', channel=0, note=43, velocity=127, time=1),
    Message('note_on', channel=0, note=55, velocity=127, time=60),
    Message('note_on', channel=0, note=43, velocity=0, time=59),
    Message('note_on', channel=0, note=50, velocity=127, time=1),
    Message('note_on', channel=0, note=55, velocity=0, time=59),
    Message('note_on', channel=0, note=43, velocity=127, time=1),
    Message('note_on', channel=0, note=43, velocity=0, time=59),
    Message('note_on', channel=0, note=50, velocity=0, time=0),
    Message('note_on', channel=0, note=57, velocity=127, time=1),
    Message('note_on', channel=0, note=50, velocity=127, time=0),
    Message('note_on', channel=0, note=62, velocity=127, time=60),
    Message('note_on', channel=0, note=62, velocity=0, time=119),
    Message('note_on', channel=0, note=50, velocity=0, time=0),
    Message('note_on', channel=0, note=57, velocity=0, time=0),
    Message('note_on', channel=0, note=50, velocity=127, time=1),
    Message('note_on', channel=0, note=50, velocity=0, time=59),
    Message('note_on', channel=0, note=62, velocity=127, time=1),
    Message('note_on', channel=0, note=57, velocity=127, time=60),
    Message('note_on', channel=0, note=62, velocity=0, time=59),
    Message('note_on', channel=0, note=50, velocity=127, time=1),
    Message('note_on', channel=0, note=57, velocity=0, time=59),
    Message('note_on', channel=0, note=62, velocity=127, time=1),
    Message('note_on', channel=0, note=62, velocity=0, time=59),
    Message('note_on', channel=0, note=50, velocity=0, time=0),
    Message('note_on', channel=0, note=45, velocity=127, time=1),
    Message('note_on', channel=0, note=57, velocity=127, time=60),
    Message('note_on', channel=0, note=45, velocity=0, time=59),
    Message('note_on', channel=0, note=52, velocity=127, time=1),
    Message('note_on', channel=0, note=57, velocity=0, time=59),
    Message('note_on', channel=0, note=45, velocity=127, time=1),
    Message('note_on', channel=0, note=45, velocity=0, time=59),
    Message('note_on', channel=0, note=52, velocity=0, time=0),
    Message('note_on', channel=0, note=43, velocity=127, time=1),
    Message('note_on', channel=0, note=55, velocity=127, time=60),
    Message('note_on', channel=0, note=43, velocity=0, time=59),
    Message('note_on', channel=0, note=50, velocity=127, time=1),
    Message('note_on', channel=0, note=55, velocity=0, time=59),
    Message('note_on', channel=0, note=43, velocity=127, time=1),
    Message('note_on', channel=0, note=43, velocity=0, time=59),
    Message('note_on', channel=0, note=50, velocity=0, time=0),
    Message('note_on', channel=0, note=57, velocity=127, time=1),
    Message('note_on', channel=0, note=50, velocity=127, time=0),
    Message('note_on', channel=0, note=62, velocity=127, time=60),
    Message('note_on', channel=0, note=62, velocity=0, time=119),
    Message('note_on', channel=0, note=50, velocity=0, time=0),
    Message('note_on', channel=0, note=57, velocity=0, time=0),
    Message('note_on', channel=0, note=50, velocity=127, time=1),
    Message('note_on', channel=0, note=50, velocity=0, time=59),
    Message('note_on', channel=0, note=62, velocity=127, time=1),
    Message('note_on', channel=0, note=57, velocity=127, time=60),
    Message('note_on', channel=0, note=62, velocity=0, time=59),
    Message('note_on', channel=0, note=50, velocity=127, time=1),
    Message('note_on', channel=0, note=57, velocity=0, time=59),
    Message('note_on', channel=0, note=62, velocity=127, time=1),
    Message('note_on', channel=0, note=62, velocity=0, time=59),
    Message('note_on', channel=0, note=50, velocity=0, time=0),
    Message('note_on', channel=0, note=61, velocity=127, time=1),
    Message('note_on', channel=0, note=52, velocity=127, time=0),
    Message('note_on', channel=0, note=57, velocity=127, time=0),
    Message('note_on', channel=0, note=45, velocity=127, time=0),
    Message('note_on', channel=0, note=45, velocity=0, time=179),
    Message('note_on', channel=0, note=61, velocity=0, time=0),
    Message('note_on', channel=0, note=52, velocity=0, time=0),
    Message('note_on', channel=0, note=57, velocity=0, time=0),
    Message('note_on', channel=0, note=61, velocity=127, time=1),
    Message('note_on', channel=0, note=52, velocity=127, time=0),
    Message('note_on', channel=0, note=57, velocity=127, time=0),
    Message('note_on', channel=0, note=45, velocity=127, time=0),
    Message('note_on', channel=0, note=45, velocity=0, time=299),
    Message('note_on', channel=0, note=61, velocity=0, time=0),
    Message('note_on', channel=0, note=52, velocity=0, time=0),
    Message('note_on', channel=0, note=57, velocity=0, time=0),
    Message('note_on', channel=0, note=61, velocity=127, time=1),
    Message('note_on', channel=0, note=57, velocity=127, time=0),
    Message('note_on', channel=0, note=52, velocity=127, time=0),
    Message('note_on', channel=0, note=45, velocity=127, time=0),
    Message('note_on', channel=0, note=45, velocity=0, time=179),
    Message('note_on', channel=0, note=61, velocity=0, time=0),
    Message('note_on', channel=0, note=57, velocity=0, time=0),
    Message('note_on', channel=0, note=52, velocity=0, time=0),
    Message('note_on', channel=0, note=61, velocity=127, time=1),
    Message('note_on', channel=0, note=45, velocity=127, time=0),
    Message('note_on', channel=0, note=52, velocity=127, time=0),
    Message('note_on', channel=0, note=57, velocity=127, time=0),
    Message('note_on', channel=0, note=57, velocity=0, time=299),
    Message('note_on', channel=0, note=61, velocity=0, time=0),
    Message('note_on', channel=0, note=45, velocity=0, time=0),
    Message('note_on', channel=0, note=52, velocity=0, time=0),
    Message('note_on', channel=0, note=62, velocity=127, time=1),
    Message('note_on', channel=0, note=57, velocity=127, time=0),
    Message('note_on', channel=0, note=50, velocity=127, time=0),
    Message('note_on', channel=0, note=50, velocity=0, time=179),
    Message('note_on', channel=0, note=57, velocity=0, time=0),
    Message('note_on', channel=0, note=62, velocity=0, time=0),
    Message('note_on', channel=0, note=62, velocity=127, time=1),
    Message('note_on', channel=0, note=57, velocity=127, time=0),
    Message('note_on', channel=0, note=50, velocity=127, time=0),
    Message('note_on', channel=0, note=62, velocity=0, time=119),
    Message('note_on', channel=0, note=62, velocity=127, time=1),
    Message('note_on', channel=0, note=50, velocity=0, time=59),
    Message('note_on', channel=0, note=57, velocity=0, time=0),
    Message('note_on', channel=0, note=57, velocity=127, time=1),
    Message('note_on', channel=0, note=62, velocity=0, time=59),
    Message('note_on', channel=0, note=50, velocity=127, time=1),
    Message('note_on', channel=0, note=50, velocity=0, time=59),
    Message('note_on', channel=0, note=57, velocity=0, time=0),
    Message('note_on', channel=0, note=50, velocity=127, time=1),
    Message('note_on', channel=0, note=57, velocity=127, time=0),
    Message('note_on', channel=0, note=62, velocity=127, time=0),
    Message('note_on', channel=0, note=62, velocity=0, time=179),
    Message('note_on', channel=0, note=57, velocity=0, time=0),
    Message('note_on', channel=0, note=50, velocity=0, time=0),
    Message('note_on', channel=0, note=50, velocity=127, time=1),
    Message('note_on', channel=0, note=57, velocity=127, time=0),
    Message('note_on', channel=0, note=62, velocity=127, time=0),
    Message('note_on', channel=0, note=62, velocity=0, time=119),
    Message('note_on', channel=0, note=62, velocity=127, time=1),
    Message('note_on', channel=0, note=57, velocity=0, time=59),
    Message('note_on', channel=0, note=50, velocity=0, time=0),
    Message('note_on', channel=0, note=57, velocity=127, time=1),
    Message('note_on', channel=0, note=62, velocity=0, time=59),
    Message('note_on', channel=0, note=50, velocity=127, time=1),
    Message('note_on', channel=0, note=50, velocity=0, time=59),
    Message('note_on', channel=0, note=57, velocity=0, time=0),
    Message('note_on', channel=0, note=61, velocity=127, time=1),
    Message('note_on', channel=0, note=57, velocity=127, time=0),
    Message('note_on', channel=0, note=52, velocity=127, time=0),
    Message('note_on', channel=0, note=45, velocity=127, time=0),
    Message('note_on', channel=0, note=45, velocity=0, time=179),
    Message('note_on', channel=0, note=61, velocity=0, time=0),
    Message('note_on', channel=0, note=57, velocity=0, time=0),
    Message('note_on', channel=0, note=52, velocity=0, time=0),
    Message('note_on', channel=0, note=61, velocity=127, time=1),
    Message('note_on', channel=0, note=57, velocity=127, time=0),
    Message('note_on', channel=0, note=52, velocity=127, time=0),
    Message('note_on', channel=0, note=45, velocity=127, time=0),
    Message('note_on', channel=0, note=61, velocity=0, time=119),
    Message('note_on', channel=0, note=61, velocity=127, time=1),
    Message('note_on', channel=0, note=61, velocity=0, time=59),
    Message('note_on', channel=0, note=45, velocity=0, time=0),
    Message('note_on', channel=0, note=57, velocity=0, time=0),
    Message('note_on', channel=0, note=45, velocity=127, time=1),
    Message('note_on', channel=0, note=57, velocity=127, time=0),
    Message('note_on', channel=0, note=57, velocity=0, time=59),
    Message('note_on', channel=0, note=52, velocity=0, time=0),
    Message('note_on', channel=0, note=52, velocity=127, time=1),
    Message('note_on', channel=0, note=52, velocity=0, time=59),
    Message('note_on', channel=0, note=45, velocity=0, time=0),
    Message('note_on', channel=0, note=61, velocity=127, time=1),
    Message('note_on', channel=0, note=57, velocity=127, time=0),
    Message('note_on', channel=0, note=52, velocity=127, time=0),
    Message('note_on', channel=0, note=45, velocity=127, time=0),
    Message('note_on', channel=0, note=45, velocity=0, time=179),
    Message('note_on', channel=0, note=61, velocity=0, time=0),
    Message('note_on', channel=0, note=57, velocity=0, time=0),
    Message('note_on', channel=0, note=52, velocity=0, time=0),
    Message('note_on', channel=0, note=61, velocity=127, time=1),
    Message('note_on', channel=0, note=57, velocity=127, time=0),
    Message('note_on', channel=0, note=52, velocity=127, time=0),
    Message('note_on', channel=0, note=45, velocity=127, time=0),
    Message('note_on', channel=0, note=61, velocity=0, time=119),
    Message('note_on', channel=0, note=61, velocity=127, time=1),
    Message('note_on', channel=0, note=61, velocity=0, time=59),
    Message('note_on', channel=0, note=45, velocity=0, time=0),
    Message('note_on', channel=0, note=57, velocity=0, time=0),
    Message('note_on', channel=0, note=45, velocity=127, time=1),
    Message('note_on', channel=0, note=57, velocity=127, time=0),
    Message('note_on', channel=0, note=57, velocity=0, time=59),
    Message('note_on', channel=0, note=52, velocity=0, time=0),
    Message('note_on', channel=0, note=52, velocity=127, time=1),
    Message('note_on', channel=0, note=52, velocity=0, time=59),
    Message('note_on', channel=0, note=45, velocity=0, time=0),
    Message('note_on', channel=0, note=43, velocity=127, time=1),
    Message('note_on', channel=0, note=67, velocity=127, time=0),
    Message('note_on', channel=0, note=59, velocity=127, time=0),
    Message('note_on', channel=0, note=55, velocity=127, time=0),
    Message('note_on', channel=0, note=50, velocity=127, time=0),
    Message('note_on', channel=0, note=47, velocity=127, time=0),
    Message('note_on', channel=0, note=47, velocity=0, time=179),
    Message('note_on', channel=0, note=67, velocity=0, time=0),
    Message('note_on', channel=0, note=59, velocity=0, time=0),
    Message('note_on', channel=0, note=43, velocity=0, time=0),
    Message('note_on', channel=0, note=50, velocity=0, time=0),
    Message('note_on', channel=0, note=55, velocity=0, time=0),
    Message('note_on', channel=0, note=67, velocity=127, time=1),
    Message('note_on', channel=0, note=59, velocity=127, time=0),
    Message('note_on', channel=0, note=55, velocity=127, time=0),
    Message('note_on', channel=0, note=50, velocity=127, time=0),
    Message('note_on', channel=0, note=47, velocity=127, time=0),
    Message('note_on', channel=0, note=43, velocity=127, time=0),
    Message('note_on', channel=0, note=43, velocity=0, time=299),
    Message('note_on', channel=0, note=59, velocity=0, time=0),
    Message('note_on', channel=0, note=55, velocity=0, time=0),
    Message('note_on', channel=0, note=67, velocity=0, time=0),
    Message('note_on', channel=0, note=47, velocity=0, time=0),
    Message('note_on', channel=0, note=50, velocity=0, time=0),
    Message('note_on', channel=0, note=67, velocity=127, time=1),
    Message('note_on', channel=0, note=59, velocity=127, time=0),
    Message('note_on', channel=0, note=55, velocity=127, time=0),
    Message('note_on', channel=0, note=50, velocity=127, time=0),
    Message('note_on', channel=0, note=47, velocity=127, time=0),
    Message('note_on', channel=0, note=43, velocity=127, time=0),
    Message('note_on', channel=0, note=43, velocity=0, time=179),
    Message('note_on', channel=0, note=59, velocity=0, time=0),
    Message('note_on', channel=0, note=55, velocity=0, time=0),
    Message('note_on', channel=0, note=67, velocity=0, time=0),
    Message('note_on', channel=0, note=47, velocity=0, time=0),
    Message('note_on', channel=0, note=50, velocity=0, time=0),
    Message('note_on', channel=0, note=43, velocity=127, time=1),
    Message('note_on', channel=0, note=47, velocity=127, time=0),
    Message('note_on', channel=0, note=50, velocity=127, time=0),
    Message('note_on', channel=0, note=55, velocity=127, time=0),
    Message('note_on', channel=0, note=59, velocity=127, time=0),
    Message('note_on', channel=0, note=67, velocity=127, time=0),
    Message('note_on', channel=0, note=67, velocity=0, time=299),
    Message('note_on', channel=0, note=47, velocity=0, time=0),
    Message('note_on', channel=0, note=50, velocity=0, time=0),
    Message('note_on', channel=0, note=43, velocity=0, time=0),
    Message('note_on', channel=0, note=59, velocity=0, time=0),
    Message('note_on', channel=0, note=55, velocity=0, time=0),
    Message('note_on', channel=0, note=42, velocity=127, time=1),
    Message('note_on', channel=0, note=62, velocity=127, time=180),
    Message('note_on', channel=0, note=57, velocity=127, time=0),
    Message('note_on', channel=0, note=42, velocity=0, time=59),
    Message('note_on', channel=0, note=62, velocity=0, time=60),
    Message('note_on', channel=0, note=62, velocity=127, time=1),
    Message('note_on', channel=0, note=62, velocity=0, time=59),
    Message('note_on', channel=0, note=57, velocity=0, time=0),
    Message('note_on', channel=0, note=57, velocity=127, time=1),
    Message('note_on', channel=0, note=57, velocity=0, time=59),
    Message('note_on', channel=0, note=40, velocity=127, time=1),
    Message('note_on', channel=0, note=40, velocity=0, time=59),
    Message('note_on', channel=0, note=42, velocity=127, time=1),
    Message('note_on', channel=0, note=62, velocity=127, time=180),
    Message('note_on', channel=0, note=57, velocity=127, time=0),
    Message('note_on', channel=0, note=42, velocity=0, time=59),
    Message('note_on', channel=0, note=62, velocity=0, time=60),
    Message('note_on', channel=0, note=62, velocity=127, time=1),
    Message('note_on', channel=0, note=62, velocity=0, time=59),
    Message('note_on', channel=0, note=57, velocity=0, time=0),
    Message('note_on', channel=0, note=57, velocity=127, time=1),
    Message('note_on', channel=0, note=57, velocity=0, time=59),
    Message('note_on', channel=0, note=40, velocity=127, time=1),
    Message('note_on', channel=0, note=40, velocity=0, time=59),
    Message('note_on', channel=0, note=44, velocity=127, time=1),
    Message('note_on', channel=0, note=64, velocity=127, time=180),
    Message('note_on', channel=0, note=59, velocity=127, time=0),
    Message('note_on', channel=0, note=44, velocity=0, time=59),
    Message('note_on', channel=0, note=64, velocity=0, time=60),
    Message('note_on', channel=0, note=64, velocity=127, time=1),
    Message('note_on', channel=0, note=64, velocity=0, time=59),
    Message('note_on', channel=0, note=59, velocity=0, time=0),
    Message('note_on', channel=0, note=59, velocity=127, time=1),
    Message('note_on', channel=0, note=59, velocity=0, time=59),
    Message('note_on', channel=0, note=40, velocity=127, time=1),
    Message('note_on', channel=0, note=40, velocity=0, time=59),
    Message('note_on', channel=0, note=44, velocity=127, time=1),
    Message('note_on', channel=0, note=59, velocity=100, time=60),
    Message('note_on', channel=0, note=59, velocity=0, time=59),
    Message('note_on', channel=0, note=64, velocity=100, time=1),
    Message('note_on', channel=0, note=64, velocity=0, time=59),
    Message('note_on', channel=0, note=59, velocity=100, time=1),
    Message('note_on', channel=0, note=59, velocity=0, time=59),
    Message('note_on', channel=0, note=44, velocity=0, time=0),
    Message('note_on', channel=0, note=64, velocity=100, time=1),
    Message('note_on', channel=0, note=64, velocity=0, time=59),
    Message('note_on', channel=0, note=59, velocity=100, time=1),
    Message('note_on', channel=0, note=59, velocity=0, time=59),
    Message('note_on', channel=0, note=64, velocity=100, time=1),
    Message('note_on', channel=0, note=64, velocity=0, time=59),
    Message('note_on', channel=0, note=59, velocity=100, time=1),
    Message('note_on', channel=0, note=59, velocity=0, time=59),
    Message('note_on', channel=0, note=42, velocity=127, time=1),
    Message('note_on', channel=0, note=62, velocity=127, time=180),
    Message('note_on', channel=0, note=57, velocity=127, time=0),
    Message('note_on', channel=0, note=42, velocity=0, time=59),
    Message('note_on', channel=0, note=62, velocity=0, time=60),
    Message('note_on', channel=0, note=62, velocity=127, time=1),
    Message('note_on', channel=0, note=62, velocity=0, time=59),
    Message('note_on', channel=0, note=57, velocity=0, time=0),
    Message('note_on', channel=0, note=57, velocity=127, time=1),
    Message('note_on', channel=0, note=57, velocity=0, time=59),
    Message('note_on', channel=0, note=40, velocity=127, time=1),
    Message('note_on', channel=0, note=40, velocity=0, time=59),
    Message('note_on', channel=0, note=42, velocity=127, time=1),
    Message('note_on', channel=0, note=62, velocity=127, time=180),
    Message('note_on', channel=0, note=57, velocity=127, time=0),
    Message('note_on', channel=0, note=42, velocity=0, time=59),
    Message('note_on', channel=0, note=62, velocity=0, time=60),
    Message('note_on', channel=0, note=62, velocity=127, time=1),
    Message('note_on', channel=0, note=62, velocity=0, time=59),
    Message('note_on', channel=0, note=57, velocity=0, time=0),
    Message('note_on', channel=0, note=57, velocity=127, time=1),
    Message('note_on', channel=0, note=57, velocity=0, time=59),
    Message('note_on', channel=0, note=40, velocity=127, time=1),
    Message('note_on', channel=0, note=40, velocity=0, time=59),
    Message('note_on', channel=0, note=44, velocity=127, time=1),
    Message('note_on', channel=0, note=64, velocity=127, time=180),
    Message('note_on', channel=0, note=59, velocity=127, time=0),
    Message('note_on', channel=0, note=44, velocity=0, time=59),
    Message('note_on', channel=0, note=64, velocity=0, time=60),
    Message('note_on', channel=0, note=64, velocity=127, time=1),
    Message('note_on', channel=0, note=64, velocity=0, time=59),
    Message('note_on', channel=0, note=59, velocity=0, time=0),
    Message('note_on', channel=0, note=59, velocity=127, time=1),
    Message('note_on', channel=0, note=59, velocity=0, time=59),
    Message('note_on', channel=0, note=40, velocity=127, time=1),
    Message('note_on', channel=0, note=40, velocity=0, time=59),
    Message('note_on', channel=0, note=44, velocity=127, time=1),
    Message('note_on', channel=0, note=59, velocity=100, time=60),
    Message('note_on', channel=0, note=59, velocity=0, time=59),
    Message('note_on', channel=0, note=64, velocity=100, time=1),
    Message('note_on', channel=0, note=64, velocity=0, time=59),
    Message('note_on', channel=0, note=59, velocity=100, time=1),
    Message('note_on', channel=0, note=59, velocity=0, time=59),
    Message('note_on', channel=0, note=44, velocity=0, time=0),
    Message('note_on', channel=0, note=64, velocity=100, time=1),
    Message('note_on', channel=0, note=64, velocity=0, time=59),
    Message('note_on', channel=0, note=59, velocity=100, time=1),
    Message('note_on', channel=0, note=59, velocity=0, time=59),
    Message('note_on', channel=0, note=64, velocity=100, time=1),
    Message('note_on', channel=0, note=64, velocity=0, time=59),
    Message('note_on', channel=0, note=59, velocity=100, time=1),
    Message('note_on', channel=0, note=59, velocity=0, time=59),
    Message('note_on', channel=0, note=42, velocity=127, time=1),
    Message('note_on', channel=0, note=62, velocity=127, time=180),
    Message('note_on', channel=0, note=57, velocity=127, time=0),
    Message('note_on', channel=0, note=42, velocity=0, time=59),
    Message('note_on', channel=0, note=62, velocity=0, time=60),
    Message('note_on', channel=0, note=62, velocity=127, time=1),
    Message('note_on', channel=0, note=62, velocity=0, time=59),
    Message('note_on', channel=0, note=57, velocity=0, time=0),
    Message('note_on', channel=0, note=57, velocity=127, time=1),
    Message('note_on', channel=0, note=57, velocity=0, time=59),
    Message('note_on', channel=0, note=40, velocity=127, time=1),
    Message('note_on', channel=0, note=40, velocity=0, time=59),
    Message('note_on', channel=0, note=42, velocity=127, time=1),
    Message('note_on', channel=0, note=62, velocity=127, time=180),
    Message('note_on', channel=0, note=57, velocity=127, time=0),
    Message('note_on', channel=0, note=42, velocity=0, time=59),
    Message('note_on', channel=0, note=62, velocity=0, time=60),
    Message('note_on', channel=0, note=62, velocity=127, time=1),
    Message('note_on', channel=0, note=62, velocity=0, time=59),
    Message('note_on', channel=0, note=57, velocity=0, time=0),
    Message('note_on', channel=0, note=57, velocity=127, time=1),
    Message('note_on', channel=0, note=57, velocity=0, time=59),
    Message('note_on', channel=0, note=40, velocity=127, time=1),
    Message('note_on', channel=0, note=40, velocity=0, time=59),
    Message('note_on', channel=0, note=44, velocity=127, time=1),
    Message('note_on', channel=0, note=64, velocity=127, time=180),
    Message('note_on', channel=0, note=59, velocity=127, time=0),
    Message('note_on', channel=0, note=44, velocity=0, time=59),
    Message('note_on', channel=0, note=64, velocity=0, time=60),
    Message('note_on', channel=0, note=64, velocity=127, time=1),
    Message('note_on', channel=0, note=64, velocity=0, time=59),
    Message('note_on', channel=0, note=59, velocity=0, time=0),
    Message('note_on', channel=0, note=59, velocity=127, time=1),
    Message('note_on', channel=0, note=59, velocity=0, time=59),
    Message('note_on', channel=0, note=40, velocity=127, time=1),
    Message('note_on', channel=0, note=40, velocity=0, time=59),
    Message('note_on', channel=0, note=44, velocity=127, time=1),
    Message('note_on', channel=0, note=59, velocity=100, time=60),
    Message('note_on', channel=0, note=59, velocity=0, time=59),
    Message('note_on', channel=0, note=64, velocity=100, time=1),
    Message('note_on', channel=0, note=64, velocity=0, time=59),
    Message('note_on', channel=0, note=59, velocity=100, time=1),
    Message('note_on', channel=0, note=59, velocity=0, time=59),
    Message('note_on', channel=0, note=44, velocity=0, time=0),
    Message('note_on', channel=0, note=64, velocity=100, time=1),
    Message('note_on', channel=0, note=64, velocity=0, time=59),
    Message('note_on', channel=0, note=59, velocity=100, time=1),
    Message('note_on', channel=0, note=59, velocity=0, time=59),
    Message('note_on', channel=0, note=64, velocity=100, time=1),
    Message('note_on', channel=0, note=64, velocity=0, time=59),
    Message('note_on', channel=0, note=59, velocity=100, time=1),
    Message('note_on', channel=0, note=59, velocity=0, time=59),
    MetaMessage('end_of_track', time=0)]),
  MidiTrack([
    MetaMessage('midi_port', port=0, time=0),
    MetaMessage('track_name', name='by Pearl Jam', time=0),
    Message('program_change', channel=7, program=19, time=0),
    Message('control_change', channel=7, control=7, value=70, time=0),
    Message('note_on', channel=7, note=75, velocity=100, time=960),
    Message('note_on', channel=7, note=80, velocity=100, time=0),
    Message('note_on', channel=7, note=68, velocity=100, time=0),
    Message('control_change', channel=7, control=7, value=0, time=0),
    Message('control_change', channel=7, control=7, value=0, time=8),
    Message('control_change', channel=7, control=7, value=0, time=8),
    Message('control_change', channel=7, control=7, value=1, time=9),
    Message('control_change', channel=7, control=7, value=2, time=6),
    Message('control_change', channel=7, control=7, value=3, time=9),
    Message('control_change', channel=7, control=7, value=4, time=8),
    Message('control_change', channel=7, control=7, value=5, time=7),
    Message('control_change', channel=7, control=7, value=6, time=8),
    Message('control_change', channel=7, control=7, value=7, time=8),
    Message('control_change', channel=7, control=7, value=8, time=9),
    Message('control_change', channel=7, control=7, value=9, time=6),
    Message('control_change', channel=7, control=7, value=10, time=9),
    Message('control_change', channel=7, control=7, value=11, time=8),
    Message('control_change', channel=7, control=7, value=12, time=7),
    Message('control_change', channel=7, control=7, value=13, time=8),
    Message('control_change', channel=7, control=7, value=14, time=8),
    Message('control_change', channel=7, control=7, value=15, time=7),
    Message('control_change', channel=7, control=7, value=16, time=8),
    Message('control_change', channel=7, control=7, value=17, time=9),
    Message('control_change', channel=7, control=7, value=18, time=8),
    Message('control_change', channel=7, control=7, value=19, time=7),
    Message('control_change', channel=7, control=7, value=20, time=8),
    Message('control_change', channel=7, control=7, value=21, time=8),
    Message('control_change', channel=7, control=7, value=22, time=7),
    Message('control_change', channel=7, control=7, value=23, time=8),
    Message('control_change', channel=7, control=7, value=24, time=9),
    Message('control_change', channel=7, control=7, value=25, time=8),
    Message('control_change', channel=7, control=7, value=26, time=7),
    Message('control_change', channel=7, control=7, value=27, time=8),
    Message('control_change', channel=7, control=7, value=28, time=8),
    Message('control_change', channel=7, control=7, value=29, time=7),
    Message('control_change', channel=7, control=7, value=30, time=8),
    Message('control_change', channel=7, control=7, value=31, time=9),
    Message('control_change', channel=7, control=7, value=32, time=6),
    Message('control_change', channel=7, control=7, value=33, time=9),
    Message('control_change', channel=7, control=7, value=34, time=8),
    Message('control_change', channel=7, control=7, value=35, time=8),
    Message('control_change', channel=7, control=7, value=36, time=7),
    Message('control_change', channel=7, control=7, value=37, time=8),
    Message('control_change', channel=7, control=7, value=38, time=9),
    Message('control_change', channel=7, control=7, value=39, time=6),
    Message('control_change', channel=7, control=7, value=40, time=9),
    Message('control_change', channel=7, control=7, value=41, time=8),
    Message('control_change', channel=7, control=7, value=42, time=8),
    Message('control_change', channel=7, control=7, value=43, time=7),
    Message('control_change', channel=7, control=7, value=44, time=8),
    Message('control_change', channel=7, control=7, value=45, time=9),
    Message('control_change', channel=7, control=7, value=46, time=6),
    Message('control_change', channel=7, control=7, value=47, time=9),
    Message('control_change', channel=7, control=7, value=48, time=8),
    Message('control_change', channel=7, control=7, value=49, time=7),
    Message('control_change', channel=7, control=7, value=50, time=8),
    Message('control_change', channel=7, control=7, value=51, time=8),
    Message('control_change', channel=7, control=7, value=52, time=9),
    Message('control_change', channel=7, control=7, value=53, time=6),
    Message('control_change', channel=7, control=7, value=54, time=9),
    Message('control_change', channel=7, control=7, value=55, time=8),
    Message('control_change', channel=7, control=7, value=56, time=7),
    Message('control_change', channel=7, control=7, value=57, time=8),
    Message('control_change', channel=7, control=7, value=58, time=8),
    Message('control_change', channel=7, control=7, value=59, time=7),
    Message('note_on', channel=7, note=68, velocity=0, time=481),
    Message('note_on', channel=7, note=80, velocity=0, time=0),
    Message('note_on', channel=7, note=75, velocity=0, time=0),
    Message('note_on', channel=7, note=76, velocity=100, time=1),
    Message('note_on', channel=7, note=69, velocity=100, time=0),
    Message('note_on', channel=7, note=81, velocity=100, time=0),
    Message('note_on', channel=7, note=81, velocity=0, time=959),
    Message('note_on', channel=7, note=69, velocity=0, time=0),
    Message('note_on', channel=7, note=76, velocity=0, time=0),
    Message('note_on', channel=7, note=80, velocity=100, time=1),
    Message('note_on', channel=7, note=75, velocity=100, time=0),
    Message('note_on', channel=7, note=68, velocity=100, time=0),
    Message('note_on', channel=7, note=68, velocity=0, time=959),
    Message('note_on', channel=7, note=75, velocity=0, time=0),
    Message('note_on', channel=7, note=80, velocity=0, time=0),
    Message('note_on', channel=7, note=81, velocity=100, time=1),
    Message('note_on', channel=7, note=76, velocity=100, time=0),
    Message('note_on', channel=7, note=69, velocity=100, time=0),
    Message('control_change', channel=7, control=7, value=59, time=0),
    Message('control_change', channel=7, control=7, value=58, time=33),
    Message('control_change', channel=7, control=7, value=57, time=32),
    Message('control_change', channel=7, control=7, value=56, time=31),
    Message('control_change', channel=7, control=7, value=55, time=32),
    Message('control_change', channel=7, control=7, value=54, time=32),
    Message('control_change', channel=7, control=7, value=53, time=31),
    Message('control_change', channel=7, control=7, value=52, time=32),
    Message('control_change', channel=7, control=7, value=51, time=33),
    Message('control_change', channel=7, control=7, value=50, time=32),
    Message('control_change', channel=7, control=7, value=49, time=32),
    Message('control_change', channel=7, control=7, value=48, time=31),
    Message('control_change', channel=7, control=7, value=47, time=32),
    Message('control_change', channel=7, control=7, value=46, time=32),
    Message('control_change', channel=7, control=7, value=45, time=31),
    Message('control_change', channel=7, control=7, value=44, time=32),
    Message('note_on', channel=7, note=69, velocity=0, time=481),
    Message('note_on', channel=7, note=76, velocity=0, time=0),
    Message('note_on', channel=7, note=81, velocity=0, time=0),
    Message('note_on', channel=7, note=68, velocity=100, time=1),
    Message('note_on', channel=7, note=75, velocity=100, time=0),
    Message('note_on', channel=7, note=80, velocity=100, time=0),
    Message('note_on', channel=7, note=80, velocity=0, time=959),
    Message('note_on', channel=7, note=75, velocity=0, time=0),
    Message('note_on', channel=7, note=68, velocity=0, time=0),
    Message('note_on', channel=7, note=69, velocity=100, time=1),
    Message('note_on', channel=7, note=76, velocity=100, time=0),
    Message('note_on', channel=7, note=81, velocity=100, time=0),
    Message('note_on', channel=7, note=81, velocity=0, time=959),
    Message('note_on', channel=7, note=76, velocity=0, time=0),
    Message('note_on', channel=7, note=69, velocity=0, time=0),
    Message('note_on', channel=7, note=80, velocity=100, time=1),
    Message('note_on', channel=7, note=75, velocity=100, time=0),
    Message('note_on', channel=7, note=68, velocity=100, time=0),
    Message('note_on', channel=7, note=68, velocity=0, time=959),
    Message('note_on', channel=7, note=75, velocity=0, time=0),
    Message('note_on', channel=7, note=80, velocity=0, time=0),
    Message('note_on', channel=7, note=81, velocity=100, time=1),
    Message('note_on', channel=7, note=76, velocity=100, time=0),
    Message('note_on', channel=7, note=69, velocity=100, time=0),
    Message('note_on', channel=7, note=69, velocity=0, time=479),
    Message('note_on', channel=7, note=76, velocity=0, time=0),
    Message('note_on', channel=7, note=81, velocity=0, time=0),
    Message('note_on', channel=7, note=79, velocity=100, time=1),
    Message('note_on', channel=7, note=74, velocity=100, time=0),
    Message('note_on', channel=7, note=67, velocity=100, time=0),
    Message('note_on', channel=7, note=67, velocity=0, time=479),
    Message('note_on', channel=7, note=74, velocity=0, time=0),
    Message('note_on', channel=7, note=79, velocity=0, time=0),
    Message('note_on', channel=7, note=69, velocity=100, time=1),
    Message('note_on', channel=7, note=76, velocity=100, time=0),
    Message('note_on', channel=7, note=81, velocity=100, time=0),
    Message('note_on', channel=7, note=81, velocity=0, time=479),
    Message('note_on', channel=7, note=76, velocity=0, time=0),
    Message('note_on', channel=7, note=69, velocity=0, time=0),
    Message('note_on', channel=7, note=79, velocity=100, time=1),
    Message('note_on', channel=7, note=74, velocity=100, time=0),
    Message('note_on', channel=7, note=67, velocity=100, time=0),
    Message('control_change', channel=7, control=7, value=39, time=780),
    Message('control_change', channel=7, control=7, value=40, time=5),
    Message('control_change', channel=7, control=7, value=41, time=5),
    Message('control_change', channel=7, control=7, value=42, time=5),
    Message('control_change', channel=7, control=7, value=43, time=3),
    Message('control_change', channel=7, control=7, value=44, time=5),
    Message('control_change', channel=7, control=7, value=45, time=5),
    Message('control_change', channel=7, control=7, value=46, time=3),
    Message('control_change', channel=7, control=7, value=47, time=5),
    Message('control_change', channel=7, control=7, value=48, time=5),
    Message('control_change', channel=7, control=7, value=49, time=4),
    Message('control_change', channel=7, control=7, value=50, time=5),
    Message('control_change', channel=7, control=7, value=51, time=5),
    Message('control_change', channel=7, control=7, value=52, time=3),
    Message('control_change', channel=7, control=7, value=53, time=5),
    Message('control_change', channel=7, control=7, value=54, time=5),
    Message('control_change', channel=7, control=7, value=55, time=3),
    Message('control_change', channel=7, control=7, value=56, time=5),
    Message('control_change', channel=7, control=7, value=57, time=5),
    Message('control_change', channel=7, control=7, value=58, time=4),
    Message('control_change', channel=7, control=7, value=59, time=5),
    Message('control_change', channel=7, control=7, value=60, time=5),
    Message('control_change', channel=7, control=7, value=61, time=3),
    Message('control_change', channel=7, control=7, value=62, time=5),
    Message('control_change', channel=7, control=7, value=63, time=5),
    Message('control_change', channel=7, control=7, value=64, time=3),
    Message('control_change', channel=7, control=7, value=65, time=5),
    Message('control_change', channel=7, control=7, value=66, time=5),
    Message('control_change', channel=7, control=7, value=67, time=4),
    Message('control_change', channel=7, control=7, value=68, time=5),
    Message('control_change', channel=7, control=7, value=69, time=5),
    Message('control_change', channel=7, control=7, value=70, time=3),
    Message('control_change', channel=7, control=7, value=71, time=5),
    Message('control_change', channel=7, control=7, value=72, time=5),
    Message('control_change', channel=7, control=7, value=73, time=3),
    Message('control_change', channel=7, control=7, value=74, time=5),
    Message('control_change', channel=7, control=7, value=75, time=5),
    Message('control_change', channel=7, control=7, value=76, time=4),
    Message('control_change', channel=7, control=7, value=77, time=5),
    Message('control_change', channel=7, control=7, value=78, time=5),
    Message('control_change', channel=7, control=7, value=79, time=3),
    Message('note_on', channel=7, note=67, velocity=0, time=1),
    Message('note_on', channel=7, note=74, velocity=0, time=0),
    Message('note_on', channel=7, note=79, velocity=0, time=0),
    Message('note_on', channel=7, note=69, velocity=100, time=1),
    Message('note_on', channel=7, note=62, velocity=100, time=0),
    Message('note_on', channel=7, note=74, velocity=100, time=0),
    Message('note_on', channel=7, note=74, velocity=0, time=479),
    Message('note_on', channel=7, note=62, velocity=0, time=0),
    Message('note_on', channel=7, note=69, velocity=0, time=0),
    Message('note_on', channel=7, note=69, velocity=100, time=1),
    Message('note_on', channel=7, note=64, velocity=100, time=0),
    Message('note_on', channel=7, note=57, velocity=100, time=0),
    Message('note_on', channel=7, note=57, velocity=0, time=239),
    Message('note_on', channel=7, note=64, velocity=0, time=0),
    Message('note_on', channel=7, note=69, velocity=0, time=0),
    Message('note_on', channel=7, note=67, velocity=100, time=1),
    Message('note_on', channel=7, note=62, velocity=100, time=0),
    Message('note_on', channel=7, note=55, velocity=100, time=0),
    Message('note_on', channel=7, note=55, velocity=0, time=239),
    Message('note_on', channel=7, note=62, velocity=0, time=0),
    Message('note_on', channel=7, note=67, velocity=0, time=0),
    Message('note_on', channel=7, note=74, velocity=100, time=1),
    Message('note_on', channel=7, note=69, velocity=100, time=0),
    Message('note_on', channel=7, note=62, velocity=100, time=0),
    Message('note_on', channel=7, note=62, velocity=0, time=479),
    Message('note_on', channel=7, note=69, velocity=0, time=0),
    Message('note_on', channel=7, note=74, velocity=0, time=0),
    Message('note_on', channel=7, note=69, velocity=100, time=1),
    Message('note_on', channel=7, note=64, velocity=100, time=0),
    Message('note_on', channel=7, note=57, velocity=100, time=0),
    Message('note_on', channel=7, note=57, velocity=0, time=239),
    Message('note_on', channel=7, note=64, velocity=0, time=0),
    Message('note_on', channel=7, note=69, velocity=0, time=0),
    Message('note_on', channel=7, note=67, velocity=100, time=1),
    Message('note_on', channel=7, note=62, velocity=100, time=0),
    Message('note_on', channel=7, note=55, velocity=100, time=0),
    Message('note_on', channel=7, note=55, velocity=0, time=239),
    Message('note_on', channel=7, note=62, velocity=0, time=0),
    Message('note_on', channel=7, note=67, velocity=0, time=0),
    Message('note_on', channel=7, note=69, velocity=100, time=1),
    Message('note_on', channel=7, note=74, velocity=100, time=0),
    Message('note_on', channel=7, note=62, velocity=100, time=0),
    Message('note_on', channel=7, note=62, velocity=0, time=479),
    Message('note_on', channel=7, note=74, velocity=0, time=0),
    Message('note_on', channel=7, note=69, velocity=0, time=0),
    Message('note_on', channel=7, note=69, velocity=100, time=1),
    Message('note_on', channel=7, note=64, velocity=100, time=0),
    Message('note_on', channel=7, note=57, velocity=100, time=0),
    Message('note_on', channel=7, note=57, velocity=0, time=239),
    Message('note_on', channel=7, note=64, velocity=0, time=0),
    Message('note_on', channel=7, note=69, velocity=0, time=0),
    Message('note_on', channel=7, note=67, velocity=100, time=1),
    Message('note_on', channel=7, note=62, velocity=100, time=0),
    Message('note_on', channel=7, note=55, velocity=100, time=0),
    Message('note_on', channel=7, note=55, velocity=0, time=239),
    Message('note_on', channel=7, note=62, velocity=0, time=0),
    Message('note_on', channel=7, note=67, velocity=0, time=0),
    Message('note_on', channel=7, note=62, velocity=100, time=1),
    Message('note_on', channel=7, note=69, velocity=100, time=0),
    Message('note_on', channel=7, note=74, velocity=100, time=0),
    Message('note_on', channel=7, note=74, velocity=0, time=479),
    Message('note_on', channel=7, note=69, velocity=0, time=0),
    Message('note_on', channel=7, note=62, velocity=0, time=0),
    Message('note_on', channel=7, note=64, velocity=100, time=1),
    Message('note_on', channel=7, note=57, velocity=100, time=0),
    Message('note_on', channel=7, note=69, velocity=100, time=0),
    Message('note_on', channel=7, note=69, velocity=0, time=959),
    Message('note_on', channel=7, note=57, velocity=0, time=0),
    Message('note_on', channel=7, note=64, velocity=0, time=0),
    Message('note_on', channel=7, note=74, velocity=100, time=1),
    Message('note_on', channel=7, note=69, velocity=100, time=0),
    Message('note_on', channel=7, note=62, velocity=100, time=0),
    Message('note_on', channel=7, note=62, velocity=0, time=959),
    Message('note_on', channel=7, note=69, velocity=0, time=0),
    Message('note_on', channel=7, note=74, velocity=0, time=0),
    Message('note_on', channel=7, note=57, velocity=100, time=1),
    Message('note_on', channel=7, note=64, velocity=100, time=0),
    Message('note_on', channel=7, note=69, velocity=100, time=0),
    Message('note_on', channel=7, note=69, velocity=0, time=959),
    Message('note_on', channel=7, note=64, velocity=0, time=0),
    Message('note_on', channel=7, note=57, velocity=0, time=0),
    Message('note_on', channel=7, note=55, velocity=100, time=1),
    Message('note_on', channel=7, note=62, velocity=100, time=0),
    Message('note_on', channel=7, note=67, velocity=100, time=0),
    Message('note_on', channel=7, note=67, velocity=0, time=959),
    Message('note_on', channel=7, note=62, velocity=0, time=0),
    Message('note_on', channel=7, note=55, velocity=0, time=0),
    Message('note_on', channel=7, note=76, velocity=100, time=1),
    Message('note_on', channel=7, note=69, velocity=100, time=0),
    Message('note_on', channel=7, note=81, velocity=100, time=0),
    Message('control_change', channel=7, control=7, value=9, time=0),
    Message('control_change', channel=7, control=7, value=10, time=33),
    Message('control_change', channel=7, control=7, value=11, time=33),
    Message('control_change', channel=7, control=7, value=12, time=30),
    Message('control_change', channel=7, control=7, value=13, time=34),
    Message('control_change', channel=7, control=7, value=14, time=30),
    Message('control_change', channel=7, control=7, value=15, time=33),
    Message('control_change', channel=7, control=7, value=16, time=33),
    Message('control_change', channel=7, control=7, value=17, time=30),
    Message('control_change', channel=7, control=7, value=18, time=34),
    Message('control_change', channel=7, control=7, value=19, time=30),
    Message('control_change', channel=7, control=7, value=20, time=33),
    Message('control_change', channel=7, control=7, value=21, time=30),
    Message('control_change', channel=7, control=7, value=22, time=33),
    Message('control_change', channel=7, control=7, value=23, time=34),
    Message('control_change', channel=7, control=7, value=24, time=30),
    Message('control_change', channel=7, control=7, value=25, time=33),
    Message('control_change', channel=7, control=7, value=26, time=30),
    Message('control_change', channel=7, control=7, value=27, time=33),
    Message('control_change', channel=7, control=7, value=28, time=34),
    Message('control_change', channel=7, control=7, value=29, time=30),
    Message('control_change', channel=7, control=7, value=30, time=33),
    Message('control_change', channel=7, control=7, value=31, time=30),
    Message('control_change', channel=7, control=7, value=32, time=33),
    Message('control_change', channel=7, control=7, value=33, time=30),
    Message('control_change', channel=7, control=7, value=34, time=34),
    Message('control_change', channel=7, control=7, value=35, time=33),
    Message('control_change', channel=7, control=7, value=36, time=30),
    Message('control_change', channel=7, control=7, value=37, time=33),
    Message('control_change', channel=7, control=7, value=38, time=30),
    Message('note_on', channel=7, note=81, velocity=0, time=33),
    Message('note_on', channel=7, note=69, velocity=0, time=0),
    Message('note_on', channel=7, note=76, velocity=0, time=0),
    Message('note_on', channel=7, note=80, velocity=100, time=1),
    Message('note_on', channel=7, note=75, velocity=100, time=0),
    Message('note_on', channel=7, note=68, velocity=100, time=0),
    Message('control_change', channel=7, control=7, value=39, time=0),
    Message('control_change', channel=7, control=7, value=40, time=33),
    Message('control_change', channel=7, control=7, value=41, time=30),
    Message('control_change', channel=7, control=7, value=42, time=33),
    Message('control_change', channel=7, control=7, value=43, time=30),
    Message('control_change', channel=7, control=7, value=44, time=34),
    Message('control_change', channel=7, control=7, value=45, time=30),
    Message('control_change', channel=7, control=7, value=46, time=33),
    Message('control_change', channel=7, control=7, value=47, time=33),
    Message('control_change', channel=7, control=7, value=48, time=30),
    Message('control_change', channel=7, control=7, value=49, time=34),
    Message('control_change', channel=7, control=7, value=50, time=30),
    Message('control_change', channel=7, control=7, value=51, time=33),
    Message('control_change', channel=7, control=7, value=52, time=33),
    Message('control_change', channel=7, control=7, value=53, time=30),
    Message('control_change', channel=7, control=7, value=54, time=34),
    Message('control_change', channel=7, control=7, value=55, time=30),
    Message('control_change', channel=7, control=7, value=56, time=33),
    Message('control_change', channel=7, control=7, value=57, time=30),
    Message('control_change', channel=7, control=7, value=58, time=33),
    Message('control_change', channel=7, control=7, value=59, time=34),
    Message('control_change', channel=7, control=7, value=60, time=30),
    Message('control_change', channel=7, control=7, value=61, time=33),
    Message('control_change', channel=7, control=7, value=62, time=30),
    Message('control_change', channel=7, control=7, value=63, time=33),
    Message('control_change', channel=7, control=7, value=64, time=34),
    Message('control_change', channel=7, control=7, value=65, time=30),
    Message('control_change', channel=7, control=7, value=66, time=33),
    Message('control_change', channel=7, control=7, value=67, time=30),
    Message('control_change', channel=7, control=7, value=68, time=33),
    Message('control_change', channel=7, control=7, value=69, time=30),
    Message('note_on', channel=7, note=68, velocity=0, time=3),
    Message('note_on', channel=7, note=75, velocity=0, time=0),
    Message('note_on', channel=7, note=80, velocity=0, time=0),
    Message('note_on', channel=7, note=76, velocity=100, time=1),
    Message('note_on', channel=7, note=69, velocity=100, time=0),
    Message('note_on', channel=7, note=81, velocity=100, time=0),
    Message('note_on', channel=7, note=81, velocity=0, time=959),
    Message('note_on', channel=7, note=69, velocity=0, time=0),
    Message('note_on', channel=7, note=76, velocity=0, time=0),
    Message('note_on', channel=7, note=80, velocity=100, time=1),
    Message('note_on', channel=7, note=75, velocity=100, time=0),
    Message('note_on', channel=7, note=68, velocity=100, time=0),
    Message('note_on', channel=7, note=68, velocity=0, time=959),
    Message('note_on', channel=7, note=75, velocity=0, time=0),
    Message('note_on', channel=7, note=80, velocity=0, time=0),
    Message('note_on', channel=7, note=76, velocity=100, time=1),
    Message('note_on', channel=7, note=69, velocity=100, time=0),
    Message('note_on', channel=7, note=81, velocity=100, time=0),
    Message('note_on', channel=7, note=81, velocity=0, time=959),
    Message('note_on', channel=7, note=69, velocity=0, time=0),
    Message('note_on', channel=7, note=76, velocity=0, time=0),
    Message('note_on', channel=7, note=80, velocity=100, time=1),
    Message('note_on', channel=7, note=75, velocity=100, time=0),
    Message('note_on', channel=7, note=68, velocity=100, time=0),
    Message('note_on', channel=7, note=68, velocity=0, time=959),
    Message('note_on', channel=7, note=75, velocity=0, time=0),
    Message('note_on', channel=7, note=80, velocity=0, time=0),
    Message('note_on', channel=7, note=76, velocity=100, time=1),
    Message('note_on', channel=7, note=69, velocity=100, time=0),
    Message('note_on', channel=7, note=81, velocity=100, time=0),
    Message('note_on', channel=7, note=81, velocity=0, time=959),
    Message('note_on', channel=7, note=69, velocity=0, time=0),
    Message('note_on', channel=7, note=76, velocity=0, time=0),
    Message('note_on', channel=7, note=80, velocity=100, time=1),
    Message('note_on', channel=7, note=75, velocity=100, time=0),
    Message('note_on', channel=7, note=68, velocity=100, time=0),
    Message('note_on', channel=7, note=68, velocity=0, time=959),
    Message('note_on', channel=7, note=75, velocity=0, time=0),
    Message('note_on', channel=7, note=80, velocity=0, time=0),
    Message('note_on', channel=7, note=81, velocity=100, time=1),
    Message('note_on', channel=7, note=76, velocity=100, time=0),
    Message('note_on', channel=7, note=69, velocity=100, time=0),
    Message('note_on', channel=7, note=69, velocity=0, time=479),
    Message('note_on', channel=7, note=76, velocity=0, time=0),
    Message('note_on', channel=7, note=81, velocity=0, time=0),
    Message('note_on', channel=7, note=79, velocity=100, time=1),
    Message('note_on', channel=7, note=74, velocity=100, time=0),
    Message('note_on', channel=7, note=67, velocity=100, time=0),
    Message('note_on', channel=7, note=67, velocity=0, time=479),
    Message('note_on', channel=7, note=74, velocity=0, time=0),
    Message('note_on', channel=7, note=79, velocity=0, time=0),
    Message('note_on', channel=7, note=69, velocity=100, time=1),
    Message('note_on', channel=7, note=76, velocity=100, time=0),
    Message('note_on', channel=7, note=81, velocity=100, time=0),
    Message('note_on', channel=7, note=81, velocity=0, time=479),
    Message('note_on', channel=7, note=76, velocity=0, time=0),
    Message('note_on', channel=7, note=69, velocity=0, time=0),
    Message('note_on', channel=7, note=79, velocity=100, time=1),
    Message('note_on', channel=7, note=74, velocity=100, time=0),
    Message('note_on', channel=7, note=67, velocity=100, time=0),
    Message('control_change', channel=7, control=7, value=39, time=780),
    Message('control_change', channel=7, control=7, value=40, time=5),
    Message('control_change', channel=7, control=7, value=41, time=5),
    Message('control_change', channel=7, control=7, value=42, time=5),
    Message('control_change', channel=7, control=7, value=43, time=3),
    Message('control_change', channel=7, control=7, value=44, time=5),
    Message('control_change', channel=7, control=7, value=45, time=5),
    Message('control_change', channel=7, control=7, value=46, time=3),
    Message('control_change', channel=7, control=7, value=47, time=5),
    Message('control_change', channel=7, control=7, value=48, time=5),
    Message('control_change', channel=7, control=7, value=49, time=4),
    Message('control_change', channel=7, control=7, value=50, time=5),
    Message('control_change', channel=7, control=7, value=51, time=5),
    Message('control_change', channel=7, control=7, value=52, time=3),
    Message('control_change', channel=7, control=7, value=53, time=5),
    Message('control_change', channel=7, control=7, value=54, time=5),
    Message('control_change', channel=7, control=7, value=55, time=3),
    Message('control_change', channel=7, control=7, value=56, time=5),
    Message('control_change', channel=7, control=7, value=57, time=5),
    Message('control_change', channel=7, control=7, value=58, time=4),
    Message('control_change', channel=7, control=7, value=59, time=5),
    Message('control_change', channel=7, control=7, value=60, time=5),
    Message('control_change', channel=7, control=7, value=61, time=3),
    Message('control_change', channel=7, control=7, value=62, time=5),
    Message('control_change', channel=7, control=7, value=63, time=5),
    Message('control_change', channel=7, control=7, value=64, time=3),
    Message('control_change', channel=7, control=7, value=65, time=5),
    Message('control_change', channel=7, control=7, value=66, time=5),
    Message('control_change', channel=7, control=7, value=67, time=4),
    Message('control_change', channel=7, control=7, value=68, time=5),
    Message('control_change', channel=7, control=7, value=69, time=5),
    Message('control_change', channel=7, control=7, value=70, time=3),
    Message('control_change', channel=7, control=7, value=71, time=5),
    Message('control_change', channel=7, control=7, value=72, time=5),
    Message('control_change', channel=7, control=7, value=73, time=3),
    Message('control_change', channel=7, control=7, value=74, time=5),
    Message('control_change', channel=7, control=7, value=75, time=5),
    Message('control_change', channel=7, control=7, value=76, time=4),
    Message('control_change', channel=7, control=7, value=77, time=5),
    Message('control_change', channel=7, control=7, value=78, time=5),
    Message('control_change', channel=7, control=7, value=79, time=3),
    Message('note_on', channel=7, note=67, velocity=0, time=1),
    Message('note_on', channel=7, note=74, velocity=0, time=0),
    Message('note_on', channel=7, note=79, velocity=0, time=0),
    Message('note_on', channel=7, note=69, velocity=100, time=1),
    Message('note_on', channel=7, note=62, velocity=100, time=0),
    Message('note_on', channel=7, note=74, velocity=100, time=0),
    Message('note_on', channel=7, note=74, velocity=0, time=479),
    Message('note_on', channel=7, note=62, velocity=0, time=0),
    Message('note_on', channel=7, note=69, velocity=0, time=0),
    Message('note_on', channel=7, note=69, velocity=100, time=1),
    Message('note_on', channel=7, note=64, velocity=100, time=0),
    Message('note_on', channel=7, note=57, velocity=100, time=0),
    Message('note_on', channel=7, note=57, velocity=0, time=239),
    Message('note_on', channel=7, note=64, velocity=0, time=0),
    Message('note_on', channel=7, note=69, velocity=0, time=0),
    Message('note_on', channel=7, note=67, velocity=100, time=1),
    Message('note_on', channel=7, note=62, velocity=100, time=0),
    Message('note_on', channel=7, note=55, velocity=100, time=0),
    Message('note_on', channel=7, note=55, velocity=0, time=239),
    Message('note_on', channel=7, note=62, velocity=0, time=0),
    Message('note_on', channel=7, note=67, velocity=0, time=0),
    Message('note_on', channel=7, note=74, velocity=100, time=1),
    Message('note_on', channel=7, note=69, velocity=100, time=0),
    Message('note_on', channel=7, note=62, velocity=100, time=0),
    Message('note_on', channel=7, note=62, velocity=0, time=479),
    Message('note_on', channel=7, note=69, velocity=0, time=0),
    Message('note_on', channel=7, note=74, velocity=0, time=0),
    Message('note_on', channel=7, note=69, velocity=100, time=1),
    Message('note_on', channel=7, note=64, velocity=100, time=0),
    Message('note_on', channel=7, note=57, velocity=100, time=0),
    Message('note_on', channel=7, note=57, velocity=0, time=239),
    Message('note_on', channel=7, note=64, velocity=0, time=0),
    Message('note_on', channel=7, note=69, velocity=0, time=0),
    Message('note_on', channel=7, note=67, velocity=100, time=1),
    Message('note_on', channel=7, note=62, velocity=100, time=0),
    Message('note_on', channel=7, note=55, velocity=100, time=0),
    Message('note_on', channel=7, note=55, velocity=0, time=239),
    Message('note_on', channel=7, note=62, velocity=0, time=0),
    Message('note_on', channel=7, note=67, velocity=0, time=0),
    Message('note_on', channel=7, note=69, velocity=100, time=1),
    Message('note_on', channel=7, note=74, velocity=100, time=0),
    Message('note_on', channel=7, note=62, velocity=100, time=0),
    Message('note_on', channel=7, note=62, velocity=0, time=479),
    Message('note_on', channel=7, note=74, velocity=0, time=0),
    Message('note_on', channel=7, note=69, velocity=0, time=0),
    Message('note_on', channel=7, note=69, velocity=100, time=1),
    Message('note_on', channel=7, note=64, velocity=100, time=0),
    Message('note_on', channel=7, note=57, velocity=100, time=0),
    Message('note_on', channel=7, note=57, velocity=0, time=239),
    Message('note_on', channel=7, note=64, velocity=0, time=0),
    Message('note_on', channel=7, note=69, velocity=0, time=0),
    Message('note_on', channel=7, note=67, velocity=100, time=1),
    Message('note_on', channel=7, note=62, velocity=100, time=0),
    Message('note_on', channel=7, note=55, velocity=100, time=0),
    Message('note_on', channel=7, note=55, velocity=0, time=239),
    Message('note_on', channel=7, note=62, velocity=0, time=0),
    Message('note_on', channel=7, note=67, velocity=0, time=0),
    Message('note_on', channel=7, note=62, velocity=100, time=1),
    Message('note_on', channel=7, note=69, velocity=100, time=0),
    Message('note_on', channel=7, note=74, velocity=100, time=0),
    Message('note_on', channel=7, note=74, velocity=0, time=479),
    Message('note_on', channel=7, note=69, velocity=0, time=0),
    Message('note_on', channel=7, note=62, velocity=0, time=0),
    Message('note_on', channel=7, note=69, velocity=100, time=1),
    Message('note_on', channel=7, note=64, velocity=100, time=0),
    Message('note_on', channel=7, note=57, velocity=100, time=0),
    Message('note_on', channel=7, note=57, velocity=0, time=239),
    Message('note_on', channel=7, note=64, velocity=0, time=0),
    Message('note_on', channel=7, note=69, velocity=0, time=0),
    Message('note_on', channel=7, note=67, velocity=100, time=1),
    Message('note_on', channel=7, note=62, velocity=100, time=0),
    Message('note_on', channel=7, note=55, velocity=100, time=0),
    Message('note_on', channel=7, note=55, velocity=0, time=239),
    Message('note_on', channel=7, note=62, velocity=0, time=0),
    Message('note_on', channel=7, note=67, velocity=0, time=0),
    Message('note_on', channel=7, note=69, velocity=100, time=1),
    Message('note_on', channel=7, note=62, velocity=100, time=0),
    Message('note_on', channel=7, note=74, velocity=100, time=0),
    Message('note_on', channel=7, note=74, velocity=0, time=479),
    Message('note_on', channel=7, note=62, velocity=0, time=0),
    Message('note_on', channel=7, note=69, velocity=0, time=0),
    Message('note_on', channel=7, note=69, velocity=100, time=1),
    Message('note_on', channel=7, note=64, velocity=100, time=0),
    Message('note_on', channel=7, note=57, velocity=100, time=0),
    Message('note_on', channel=7, note=57, velocity=0, time=239),
    Message('note_on', channel=7, note=64, velocity=0, time=0),
    Message('note_on', channel=7, note=69, velocity=0, time=0),
    Message('note_on', channel=7, note=67, velocity=100, time=1),
    Message('note_on', channel=7, note=62, velocity=100, time=0),
    Message('note_on', channel=7, note=55, velocity=100, time=0),
    Message('note_on', channel=7, note=55, velocity=0, time=239),
    Message('note_on', channel=7, note=62, velocity=0, time=0),
    Message('note_on', channel=7, note=67, velocity=0, time=0),
    Message('note_on', channel=7, note=74, velocity=100, time=1),
    Message('note_on', channel=7, note=69, velocity=100, time=0),
    Message('note_on', channel=7, note=62, velocity=100, time=0),
    Message('note_on', channel=7, note=62, velocity=0, time=479),
    Message('note_on', channel=7, note=69, velocity=0, time=0),
    Message('note_on', channel=7, note=74, velocity=0, time=0),
    Message('note_on', channel=7, note=69, velocity=100, time=1),
    Message('note_on', channel=7, note=64, velocity=100, time=0),
    Message('note_on', channel=7, note=57, velocity=100, time=0),
    Message('note_on', channel=7, note=57, velocity=0, time=239),
    Message('note_on', channel=7, note=64, velocity=0, time=0),
    Message('note_on', channel=7, note=69, velocity=0, time=0),
    Message('note_on', channel=7, note=67, velocity=100, time=1),
    Message('note_on', channel=7, note=62, velocity=100, time=0),
    Message('note_on', channel=7, note=55, velocity=100, time=0),
    Message('note_on', channel=7, note=55, velocity=0, time=239),
    Message('note_on', channel=7, note=62, velocity=0, time=0),
    Message('note_on', channel=7, note=67, velocity=0, time=0),
    Message('note_on', channel=7, note=69, velocity=100, time=1),
    Message('note_on', channel=7, note=74, velocity=100, time=0),
    Message('note_on', channel=7, note=62, velocity=100, time=0),
    Message('note_on', channel=7, note=62, velocity=0, time=479),
    Message('note_on', channel=7, note=74, velocity=0, time=0),
    Message('note_on', channel=7, note=69, velocity=0, time=0),
    Message('note_on', channel=7, note=69, velocity=100, time=1),
    Message('note_on', channel=7, note=64, velocity=100, time=0),
    Message('note_on', channel=7, note=57, velocity=100, time=0),
    Message('note_on', channel=7, note=57, velocity=0, time=239),
    Message('note_on', channel=7, note=64, velocity=0, time=0),
    Message('note_on', channel=7, note=69, velocity=0, time=0),
    Message('note_on', channel=7, note=67, velocity=100, time=1),
    Message('note_on', channel=7, note=62, velocity=100, time=0),
    Message('note_on', channel=7, note=55, velocity=100, time=0),
    Message('note_on', channel=7, note=55, velocity=0, time=239),
    Message('note_on', channel=7, note=62, velocity=0, time=0),
    Message('note_on', channel=7, note=67, velocity=0, time=0),
    Message('note_on', channel=7, note=62, velocity=100, time=1),
    Message('note_on', channel=7, note=69, velocity=100, time=0),
    Message('note_on', channel=7, note=74, velocity=100, time=0),
    Message('note_on', channel=7, note=74, velocity=0, time=479),
    Message('note_on', channel=7, note=69, velocity=0, time=0),
    Message('note_on', channel=7, note=62, velocity=0, time=0),
    Message('note_on', channel=7, note=69, velocity=100, time=1),
    Message('note_on', channel=7, note=64, velocity=100, time=0),
    Message('note_on', channel=7, note=57, velocity=100, time=0),
    Message('note_on', channel=7, note=57, velocity=0, time=479),
    Message('note_on', channel=7, note=64, velocity=0, time=0),
    Message('note_on', channel=7, note=69, velocity=0, time=0),
    Message('note_on', channel=7, note=69, velocity=100, time=1),
    Message('note_on', channel=7, note=64, velocity=100, time=0),
    Message('note_on', channel=7, note=57, velocity=100, time=0),
    Message('note_on', channel=7, note=57, velocity=0, time=479),
    Message('note_on', channel=7, note=64, velocity=0, time=0),
    Message('note_on', channel=7, note=69, velocity=0, time=0),
    Message('note_on', channel=7, note=74, velocity=100, time=1),
    Message('note_on', channel=7, note=69, velocity=100, time=0),
    Message('note_on', channel=7, note=62, velocity=100, time=0),
    Message('note_on', channel=7, note=62, velocity=0, time=479),
    Message('note_on', channel=7, note=69, velocity=0, time=0),
    Message('note_on', channel=7, note=74, velocity=0, time=0),
    Message('note_on', channel=7, note=74, velocity=100, time=1),
    Message('note_on', channel=7, note=69, velocity=100, time=0),
    Message('note_on', channel=7, note=62, velocity=100, time=0),
    Message('note_on', channel=7, note=62, velocity=0, time=479),
    Message('note_on', channel=7, note=69, velocity=0, time=0),
    Message('note_on', channel=7, note=74, velocity=0, time=0),
    Message('note_on', channel=7, note=69, velocity=100, time=1),
    Message('note_on', channel=7, note=64, velocity=100, time=0),
    Message('note_on', channel=7, note=57, velocity=100, time=0),
    Message('note_on', channel=7, note=57, velocity=0, time=479),
    Message('note_on', channel=7, note=64, velocity=0, time=0),
    Message('note_on', channel=7, note=69, velocity=0, time=0),
    Message('note_on', channel=7, note=57, velocity=100, time=1),
    Message('note_on', channel=7, note=64, velocity=100, time=0),
    Message('note_on', channel=7, note=69, velocity=100, time=0),
    Message('note_on', channel=7, note=69, velocity=0, time=479),
    Message('note_on', channel=7, note=64, velocity=0, time=0),
    Message('note_on', channel=7, note=57, velocity=0, time=0),
    Message('note_on', channel=7, note=62, velocity=100, time=1),
    Message('note_on', channel=7, note=67, velocity=100, time=0),
    Message('note_on', channel=7, note=55, velocity=100, time=0),
    Message('note_on', channel=7, note=55, velocity=0, time=419),
    Message('note_on', channel=7, note=67, velocity=0, time=0),
    Message('note_on', channel=7, note=62, velocity=0, time=0),
    Message('note_on', channel=7, note=55, velocity=100, time=61),
    Message('note_on', channel=7, note=62, velocity=100, time=0),
    Message('note_on', channel=7, note=67, velocity=100, time=0),
    Message('note_on', channel=7, note=67, velocity=0, time=479),
    Message('note_on', channel=7, note=62, velocity=0, time=0),
    Message('note_on', channel=7, note=55, velocity=0, time=0),
    Message('note_on', channel=7, note=55, velocity=100, time=1),
    Message('note_on', channel=7, note=62, velocity=100, time=0),
    Message('note_on', channel=7, note=67, velocity=100, time=0),
    Message('note_on', channel=7, note=67, velocity=0, time=479),
    Message('note_on', channel=7, note=62, velocity=0, time=0),
    Message('note_on', channel=7, note=55, velocity=0, time=0),
    Message('note_on', channel=7, note=55, velocity=100, time=1),
    Message('note_on', channel=7, note=62, velocity=100, time=0),
    Message('note_on', channel=7, note=67, velocity=100, time=0),
    Message('note_on', channel=7, note=67, velocity=0, time=479),
    Message('note_on', channel=7, note=62, velocity=0, time=0),
    Message('note_on', channel=7, note=55, velocity=0, time=0),
    Message('note_on', channel=7, note=69, velocity=100, time=1),
    Message('note_on', channel=7, note=62, velocity=100, time=0),
    Message('note_on', channel=7, note=74, velocity=100, time=0),
    Message('note_on', channel=7, note=74, velocity=0, time=479),
    Message('note_on', channel=7, note=62, velocity=0, time=0),
    Message('note_on', channel=7, note=69, velocity=0, time=0),
    Message('note_on', channel=7, note=69, velocity=100, time=1),
    Message('note_on', channel=7, note=64, velocity=100, time=0),
    Message('note_on', channel=7, note=57, velocity=100, time=0),
    Message('note_on', channel=7, note=57, velocity=0, time=239),
    Message('note_on', channel=7, note=64, velocity=0, time=0),
    Message('note_on', channel=7, note=69, velocity=0, time=0),
    Message('note_on', channel=7, note=67, velocity=100, time=1),
    Message('note_on', channel=7, note=62, velocity=100, time=0),
    Message('note_on', channel=7, note=55, velocity=100, time=0),
    Message('note_on', channel=7, note=55, velocity=0, time=239),
    Message('note_on', channel=7, note=62, velocity=0, time=0),
    Message('note_on', channel=7, note=67, velocity=0, time=0),
    Message('note_on', channel=7, note=74, velocity=100, time=1),
    Message('note_on', channel=7, note=69, velocity=100, time=0),
    Message('note_on', channel=7, note=62, velocity=100, time=0),
    Message('note_on', channel=7, note=62, velocity=0, time=479),
    Message('note_on', channel=7, note=69, velocity=0, time=0),
    Message('note_on', channel=7, note=74, velocity=0, time=0),
    Message('note_on', channel=7, note=69, velocity=100, time=1),
    Message('note_on', channel=7, note=64, velocity=100, time=0),
    Message('note_on', channel=7, note=57, velocity=100, time=0),
    Message('note_on', channel=7, note=57, velocity=0, time=239),
    Message('note_on', channel=7, note=64, velocity=0, time=0),
    Message('note_on', channel=7, note=69, velocity=0, time=0),
    Message('note_on', channel=7, note=67, velocity=100, time=1),
    Message('note_on', channel=7, note=62, velocity=100, time=0),
    Message('note_on', channel=7, note=55, velocity=100, time=0),
    Message('note_on', channel=7, note=55, velocity=0, time=239),
    Message('note_on', channel=7, note=62, velocity=0, time=0),
    Message('note_on', channel=7, note=67, velocity=0, time=0),
    Message('note_on', channel=7, note=69, velocity=100, time=1),
    Message('note_on', channel=7, note=62, velocity=100, time=0),
    Message('note_on', channel=7, note=74, velocity=100, time=0),
    Message('note_on', channel=7, note=74, velocity=0, time=479),
    Message('note_on', channel=7, note=62, velocity=0, time=0),
    Message('note_on', channel=7, note=69, velocity=0, time=0),
    Message('note_on', channel=7, note=69, velocity=100, time=1),
    Message('note_on', channel=7, note=64, velocity=100, time=0),
    Message('note_on', channel=7, note=57, velocity=100, time=0),
    Message('note_on', channel=7, note=57, velocity=0, time=239),
    Message('note_on', channel=7, note=64, velocity=0, time=0),
    Message('note_on', channel=7, note=69, velocity=0, time=0),
    Message('note_on', channel=7, note=67, velocity=100, time=1),
    Message('note_on', channel=7, note=62, velocity=100, time=0),
    Message('note_on', channel=7, note=55, velocity=100, time=0),
    Message('note_on', channel=7, note=55, velocity=0, time=239),
    Message('note_on', channel=7, note=62, velocity=0, time=0),
    Message('note_on', channel=7, note=67, velocity=0, time=0),
    Message('note_on', channel=7, note=74, velocity=100, time=1),
    Message('note_on', channel=7, note=69, velocity=100, time=0),
    Message('note_on', channel=7, note=62, velocity=100, time=0),
    Message('note_on', channel=7, note=62, velocity=0, time=479),
    Message('note_on', channel=7, note=69, velocity=0, time=0),
    Message('note_on', channel=7, note=74, velocity=0, time=0),
    Message('note_on', channel=7, note=69, velocity=100, time=1),
    Message('note_on', channel=7, note=64, velocity=100, time=0),
    Message('note_on', channel=7, note=57, velocity=100, time=0),
    Message('note_on', channel=7, note=57, velocity=0, time=239),
    Message('note_on', channel=7, note=64, velocity=0, time=0),
    Message('note_on', channel=7, note=69, velocity=0, time=0),
    Message('note_on', channel=7, note=67, velocity=100, time=1),
    Message('note_on', channel=7, note=62, velocity=100, time=0),
    Message('note_on', channel=7, note=55, velocity=100, time=0),
    Message('note_on', channel=7, note=55, velocity=0, time=239),
    Message('note_on', channel=7, note=62, velocity=0, time=0),
    Message('note_on', channel=7, note=67, velocity=0, time=0),
    Message('note_on', channel=7, note=69, velocity=100, time=1),
    Message('note_on', channel=7, note=62, velocity=100, time=0),
    Message('note_on', channel=7, note=74, velocity=100, time=0),
    Message('note_on', channel=7, note=74, velocity=0, time=479),
    Message('note_on', channel=7, note=62, velocity=0, time=0),
    Message('note_on', channel=7, note=69, velocity=0, time=0),
    Message('note_on', channel=7, note=69, velocity=100, time=1),
    Message('note_on', channel=7, note=64, velocity=100, time=0),
    Message('note_on', channel=7, note=57, velocity=100, time=0),
    Message('note_on', channel=7, note=57, velocity=0, time=239),
    Message('note_on', channel=7, note=64, velocity=0, time=0),
    Message('note_on', channel=7, note=69, velocity=0, time=0),
    Message('note_on', channel=7, note=67, velocity=100, time=1),
    Message('note_on', channel=7, note=62, velocity=100, time=0),
    Message('note_on', channel=7, note=55, velocity=100, time=0),
    Message('note_on', channel=7, note=55, velocity=0, time=239),
    Message('note_on', channel=7, note=62, velocity=0, time=0),
    Message('note_on', channel=7, note=67, velocity=0, time=0),
    Message('note_on', channel=7, note=74, velocity=100, time=1),
    Message('note_on', channel=7, note=69, velocity=100, time=0),
    Message('note_on', channel=7, note=62, velocity=100, time=0),
    Message('note_on', channel=7, note=62, velocity=0, time=479),
    Message('note_on', channel=7, note=69, velocity=0, time=0),
    Message('note_on', channel=7, note=74, velocity=0, time=0),
    Message('note_on', channel=7, note=69, velocity=100, time=1),
    Message('note_on', channel=7, note=64, velocity=100, time=0),
    Message('note_on', channel=7, note=57, velocity=100, time=0),
    Message('note_on', channel=7, note=57, velocity=0, time=239),
    Message('note_on', channel=7, note=64, velocity=0, time=0),
    Message('note_on', channel=7, note=69, velocity=0, time=0),
    Message('note_on', channel=7, note=67, velocity=100, time=1),
    Message('note_on', channel=7, note=62, velocity=100, time=0),
    Message('note_on', channel=7, note=55, velocity=100, time=0),
    Message('note_on', channel=7, note=55, velocity=0, time=239),
    Message('note_on', channel=7, note=62, velocity=0, time=0),
    Message('note_on', channel=7, note=67, velocity=0, time=0),
    Message('note_on', channel=7, note=74, velocity=100, time=1),
    Message('note_on', channel=7, note=69, velocity=100, time=0),
    Message('note_on', channel=7, note=62, velocity=100, time=0),
    Message('note_on', channel=7, note=62, velocity=0, time=479),
    Message('note_on', channel=7, note=69, velocity=0, time=0),
    Message('note_on', channel=7, note=74, velocity=0, time=0),
    Message('note_on', channel=7, note=69, velocity=100, time=1),
    Message('note_on', channel=7, note=64, velocity=100, time=0),
    Message('note_on', channel=7, note=57, velocity=100, time=0),
    Message('note_on', channel=7, note=57, velocity=0, time=239),
    Message('note_on', channel=7, note=64, velocity=0, time=0),
    Message('note_on', channel=7, note=69, velocity=0, time=0),
    Message('note_on', channel=7, note=67, velocity=100, time=1),
    Message('note_on', channel=7, note=62, velocity=100, time=0),
    Message('note_on', channel=7, note=55, velocity=100, time=0),
    Message('note_on', channel=7, note=55, velocity=0, time=239),
    Message('note_on', channel=7, note=62, velocity=0, time=0),
    Message('note_on', channel=7, note=67, velocity=0, time=0),
    Message('note_on', channel=7, note=74, velocity=100, time=1),
    Message('note_on', channel=7, note=69, velocity=100, time=0),
    Message('note_on', channel=7, note=62, velocity=100, time=0),
    Message('note_on', channel=7, note=62, velocity=0, time=479),
    Message('note_on', channel=7, note=69, velocity=0, time=0),
    Message('note_on', channel=7, note=74, velocity=0, time=0),
    Message('note_on', channel=7, note=69, velocity=100, time=1),
    Message('note_on', channel=7, note=64, velocity=100, time=0),
    Message('note_on', channel=7, note=57, velocity=100, time=0),
    Message('note_on', channel=7, note=57, velocity=0, time=239),
    Message('note_on', channel=7, note=64, velocity=0, time=0),
    Message('note_on', channel=7, note=69, velocity=0, time=0),
    Message('note_on', channel=7, note=67, velocity=100, time=1),
    Message('note_on', channel=7, note=62, velocity=100, time=0),
    Message('note_on', channel=7, note=55, velocity=100, time=0),
    Message('note_on', channel=7, note=55, velocity=0, time=239),
    Message('note_on', channel=7, note=62, velocity=0, time=0),
    Message('note_on', channel=7, note=67, velocity=0, time=0),
    Message('note_on', channel=7, note=74, velocity=100, time=1),
    Message('note_on', channel=7, note=69, velocity=100, time=0),
    Message('note_on', channel=7, note=62, velocity=100, time=0),
    Message('note_on', channel=7, note=62, velocity=0, time=479),
    Message('note_on', channel=7, note=69, velocity=0, time=0),
    Message('note_on', channel=7, note=74, velocity=0, time=0),
    Message('note_on', channel=7, note=69, velocity=100, time=1),
    Message('note_on', channel=7, note=64, velocity=100, time=0),
    Message('note_on', channel=7, note=57, velocity=100, time=0),
    Message('note_on', channel=7, note=57, velocity=0, time=239),
    Message('note_on', channel=7, note=64, velocity=0, time=0),
    Message('note_on', channel=7, note=69, velocity=0, time=0),
    Message('note_on', channel=7, note=67, velocity=100, time=1),
    Message('note_on', channel=7, note=62, velocity=100, time=0),
    Message('note_on', channel=7, note=55, velocity=100, time=0),
    Message('note_on', channel=7, note=55, velocity=0, time=239),
    Message('note_on', channel=7, note=62, velocity=0, time=0),
    Message('note_on', channel=7, note=67, velocity=0, time=0),
    Message('note_on', channel=7, note=74, velocity=100, time=1),
    Message('note_on', channel=7, note=69, velocity=100, time=0),
    Message('note_on', channel=7, note=62, velocity=100, time=0),
    Message('note_on', channel=7, note=62, velocity=0, time=479),
    Message('note_on', channel=7, note=69, velocity=0, time=0),
    Message('note_on', channel=7, note=74, velocity=0, time=0),
    Message('note_on', channel=7, note=69, velocity=100, time=1),
    Message('note_on', channel=7, note=64, velocity=100, time=0),
    Message('note_on', channel=7, note=57, velocity=100, time=0),
    Message('note_on', channel=7, note=57, velocity=0, time=239),
    Message('note_on', channel=7, note=64, velocity=0, time=0),
    Message('note_on', channel=7, note=69, velocity=0, time=0),
    Message('note_on', channel=7, note=67, velocity=100, time=1),
    Message('note_on', channel=7, note=62, velocity=100, time=0),
    Message('note_on', channel=7, note=55, velocity=100, time=0),
    Message('note_on', channel=7, note=55, velocity=0, time=239),
    Message('note_on', channel=7, note=62, velocity=0, time=0),
    Message('note_on', channel=7, note=67, velocity=0, time=0),
    Message('note_on', channel=7, note=74, velocity=100, time=1),
    Message('note_on', channel=7, note=69, velocity=100, time=0),
    Message('note_on', channel=7, note=62, velocity=100, time=0),
    Message('note_on', channel=7, note=62, velocity=0, time=479),
    Message('note_on', channel=7, note=69, velocity=0, time=0),
    Message('note_on', channel=7, note=74, velocity=0, time=0),
    Message('note_on', channel=7, note=69, velocity=100, time=1),
    Message('note_on', channel=7, note=64, velocity=100, time=0),
    Message('note_on', channel=7, note=57, velocity=100, time=0),
    Message('note_on', channel=7, note=57, velocity=0, time=239),
    Message('note_on', channel=7, note=64, velocity=0, time=0),
    Message('note_on', channel=7, note=69, velocity=0, time=0),
    Message('note_on', channel=7, note=67, velocity=100, time=1),
    Message('note_on', channel=7, note=62, velocity=100, time=0),
    Message('note_on', channel=7, note=55, velocity=100, time=0),
    Message('note_on', channel=7, note=55, velocity=0, time=239),
    Message('note_on', channel=7, note=62, velocity=0, time=0),
    Message('note_on', channel=7, note=67, velocity=0, time=0),
    Message('note_on', channel=7, note=74, velocity=100, time=1),
    Message('note_on', channel=7, note=69, velocity=100, time=0),
    Message('note_on', channel=7, note=62, velocity=100, time=0),
    Message('note_on', channel=7, note=62, velocity=0, time=479),
    Message('note_on', channel=7, note=69, velocity=0, time=0),
    Message('note_on', channel=7, note=74, velocity=0, time=0),
    Message('note_on', channel=7, note=69, velocity=100, time=1),
    Message('note_on', channel=7, note=64, velocity=100, time=0),
    Message('note_on', channel=7, note=57, velocity=100, time=0),
    Message('note_on', channel=7, note=57, velocity=0, time=239),
    Message('note_on', channel=7, note=64, velocity=0, time=0),
    Message('note_on', channel=7, note=69, velocity=0, time=0),
    Message('note_on', channel=7, note=67, velocity=100, time=1),
    Message('note_on', channel=7, note=62, velocity=100, time=0),
    Message('note_on', channel=7, note=55, velocity=100, time=0),
    Message('note_on', channel=7, note=55, velocity=0, time=239),
    Message('note_on', channel=7, note=62, velocity=0, time=0),
    Message('note_on', channel=7, note=67, velocity=0, time=0),
    Message('note_on', channel=7, note=74, velocity=100, time=1),
    Message('note_on', channel=7, note=69, velocity=100, time=0),
    Message('note_on', channel=7, note=62, velocity=100, time=0),
    Message('note_on', channel=7, note=62, velocity=0, time=479),
    Message('note_on', channel=7, note=69, velocity=0, time=0),
    Message('note_on', channel=7, note=74, velocity=0, time=0),
    Message('note_on', channel=7, note=69, velocity=100, time=1),
    Message('note_on', channel=7, note=64, velocity=100, time=0),
    Message('note_on', channel=7, note=57, velocity=100, time=0),
    Message('note_on', channel=7, note=57, velocity=0, time=239),
    Message('note_on', channel=7, note=64, velocity=0, time=0),
    Message('note_on', channel=7, note=69, velocity=0, time=0),
    Message('note_on', channel=7, note=67, velocity=100, time=1),
    Message('note_on', channel=7, note=62, velocity=100, time=0),
    Message('note_on', channel=7, note=55, velocity=100, time=0),
    Message('note_on', channel=7, note=55, velocity=0, time=239),
    Message('note_on', channel=7, note=62, velocity=0, time=0),
    Message('note_on', channel=7, note=67, velocity=0, time=0),
    Message('note_on', channel=7, note=74, velocity=100, time=1),
    Message('note_on', channel=7, note=69, velocity=100, time=0),
    Message('note_on', channel=7, note=62, velocity=100, time=0),
    Message('note_on', channel=7, note=62, velocity=0, time=479),
    Message('note_on', channel=7, note=69, velocity=0, time=0),
    Message('note_on', channel=7, note=74, velocity=0, time=0),
    Message('note_on', channel=7, note=69, velocity=100, time=1),
    Message('note_on', channel=7, note=64, velocity=100, time=0),
    Message('note_on', channel=7, note=57, velocity=100, time=0),
    Message('note_on', channel=7, note=57, velocity=0, time=239),
    Message('note_on', channel=7, note=64, velocity=0, time=0),
    Message('note_on', channel=7, note=69, velocity=0, time=0),
    Message('note_on', channel=7, note=67, velocity=100, time=1),
    Message('note_on', channel=7, note=62, velocity=100, time=0),
    Message('note_on', channel=7, note=55, velocity=100, time=0),
    Message('note_on', channel=7, note=55, velocity=0, time=239),
    Message('note_on', channel=7, note=62, velocity=0, time=0),
    Message('note_on', channel=7, note=67, velocity=0, time=0),
    Message('note_on', channel=7, note=74, velocity=100, time=1),
    Message('note_on', channel=7, note=69, velocity=100, time=0),
    Message('note_on', channel=7, note=62, velocity=100, time=0),
    Message('note_on', channel=7, note=62, velocity=0, time=479),
    Message('note_on', channel=7, note=69, velocity=0, time=0),
    Message('note_on', channel=7, note=74, velocity=0, time=0),
    Message('note_on', channel=7, note=69, velocity=100, time=1),
    Message('note_on', channel=7, note=64, velocity=100, time=0),
    Message('note_on', channel=7, note=57, velocity=100, time=0),
    Message('note_on', channel=7, note=57, velocity=0, time=239),
    Message('note_on', channel=7, note=64, velocity=0, time=0),
    Message('note_on', channel=7, note=69, velocity=0, time=0),
    Message('note_on', channel=7, note=67, velocity=100, time=1),
    Message('note_on', channel=7, note=62, velocity=100, time=0),
    Message('note_on', channel=7, note=55, velocity=100, time=0),
    Message('note_on', channel=7, note=55, velocity=0, time=239),
    Message('note_on', channel=7, note=62, velocity=0, time=0),
    Message('note_on', channel=7, note=67, velocity=0, time=0),
    Message('note_on', channel=7, note=74, velocity=100, time=1),
    Message('note_on', channel=7, note=69, velocity=100, time=0),
    Message('note_on', channel=7, note=62, velocity=100, time=0),
    Message('note_on', channel=7, note=62, velocity=0, time=479),
    Message('note_on', channel=7, note=69, velocity=0, time=0),
    Message('note_on', channel=7, note=74, velocity=0, time=0),
    Message('note_on', channel=7, note=69, velocity=100, time=1),
    Message('note_on', channel=7, note=64, velocity=100, time=0),
    Message('note_on', channel=7, note=57, velocity=100, time=0),
    Message('note_on', channel=7, note=57, velocity=0, time=239),
    Message('note_on', channel=7, note=64, velocity=0, time=0),
    Message('note_on', channel=7, note=69, velocity=0, time=0),
    Message('note_on', channel=7, note=67, velocity=100, time=1),
    Message('note_on', channel=7, note=62, velocity=100, time=0),
    Message('note_on', channel=7, note=55, velocity=100, time=0),
    Message('note_on', channel=7, note=55, velocity=0, time=239),
    Message('note_on', channel=7, note=62, velocity=0, time=0),
    Message('note_on', channel=7, note=67, velocity=0, time=0),
    Message('note_on', channel=7, note=74, velocity=100, time=1),
    Message('note_on', channel=7, note=69, velocity=100, time=0),
    Message('note_on', channel=7, note=62, velocity=100, time=0),
    Message('note_on', channel=7, note=62, velocity=0, time=479),
    Message('note_on', channel=7, note=69, velocity=0, time=0),
    Message('note_on', channel=7, note=74, velocity=0, time=0),
    Message('note_on', channel=7, note=69, velocity=100, time=1),
    Message('note_on', channel=7, note=64, velocity=100, time=0),
    Message('note_on', channel=7, note=57, velocity=100, time=0),
    Message('note_on', channel=7, note=57, velocity=0, time=239),
    Message('note_on', channel=7, note=64, velocity=0, time=0),
    Message('note_on', channel=7, note=69, velocity=0, time=0),
    Message('note_on', channel=7, note=67, velocity=100, time=1),
    Message('note_on', channel=7, note=62, velocity=100, time=0),
    Message('note_on', channel=7, note=55, velocity=100, time=0),
    Message('note_on', channel=7, note=55, velocity=0, time=239),
    Message('note_on', channel=7, note=62, velocity=0, time=0),
    Message('note_on', channel=7, note=67, velocity=0, time=0),
    Message('note_on', channel=7, note=74, velocity=100, time=1),
    Message('note_on', channel=7, note=69, velocity=100, time=0),
    Message('note_on', channel=7, note=62, velocity=100, time=0),
    Message('note_on', channel=7, note=62, velocity=0, time=479),
    Message('note_on', channel=7, note=69, velocity=0, time=0),
    Message('note_on', channel=7, note=74, velocity=0, time=0),
    Message('note_on', channel=7, note=69, velocity=100, time=1),
    Message('note_on', channel=7, note=64, velocity=100, time=0),
    Message('note_on', channel=7, note=57, velocity=100, time=0),
    Message('note_on', channel=7, note=57, velocity=0, time=239),
    Message('note_on', channel=7, note=64, velocity=0, time=0),
    Message('note_on', channel=7, note=69, velocity=0, time=0),
    Message('note_on', channel=7, note=67, velocity=100, time=1),
    Message('note_on', channel=7, note=62, velocity=100, time=0),
    Message('note_on', channel=7, note=55, velocity=100, time=0),
    Message('note_on', channel=7, note=55, velocity=0, time=239),
    Message('note_on', channel=7, note=62, velocity=0, time=0),
    Message('note_on', channel=7, note=67, velocity=0, time=0),
    Message('note_on', channel=7, note=74, velocity=100, time=1),
    Message('note_on', channel=7, note=69, velocity=100, time=0),
    Message('note_on', channel=7, note=62, velocity=100, time=0),
    Message('note_on', channel=7, note=62, velocity=0, time=479),
    Message('note_on', channel=7, note=69, velocity=0, time=0),
    Message('note_on', channel=7, note=74, velocity=0, time=0),
    Message('note_on', channel=7, note=69, velocity=100, time=1),
    Message('note_on', channel=7, note=64, velocity=100, time=0),
    Message('note_on', channel=7, note=57, velocity=100, time=0),
    Message('note_on', channel=7, note=57, velocity=0, time=239),
    Message('note_on', channel=7, note=64, velocity=0, time=0),
    Message('note_on', channel=7, note=69, velocity=0, time=0),
    Message('note_on', channel=7, note=67, velocity=100, time=1),
    Message('note_on', channel=7, note=62, velocity=100, time=0),
    Message('note_on', channel=7, note=55, velocity=100, time=0),
    Message('note_on', channel=7, note=55, velocity=0, time=239),
    Message('note_on', channel=7, note=62, velocity=0, time=0),
    Message('note_on', channel=7, note=67, velocity=0, time=0),
    Message('note_on', channel=7, note=74, velocity=110, time=1),
    Message('note_on', channel=7, note=69, velocity=110, time=0),
    Message('note_on', channel=7, note=62, velocity=110, time=0),
    Message('note_on', channel=7, note=62, velocity=0, time=599),
    Message('note_on', channel=7, note=69, velocity=0, time=0),
    Message('note_on', channel=7, note=74, velocity=0, time=0),
    MetaMessage('end_of_track', time=0)]),
  MidiTrack([
    MetaMessage('midi_port', port=0, time=0),
    MetaMessage('track_name', name='from "Vitalogy" album', time=0),
    Message('program_change', channel=6, program=87, time=0),
    Message('control_change', channel=6, control=7, value=95, time=0),
    Message('note_on', channel=6, note=62, velocity=100, time=4020),
    Message('note_on', channel=6, note=62, velocity=0, time=119),
    Message('note_on', channel=6, note=59, velocity=100, time=1),
    Message('note_on', channel=6, note=59, velocity=0, time=359),
    Message('note_on', channel=6, note=62, velocity=100, time=1),
    Message('note_on', channel=6, note=62, velocity=0, time=119),
    Message('note_on', channel=6, note=62, velocity=100, time=1),
    Message('note_on', channel=6, note=62, velocity=0, time=59),
    Message('note_on', channel=6, note=59, velocity=100, time=1),
    Message('note_on', channel=6, note=59, velocity=0, time=59),
    Message('note_on', channel=6, note=57, velocity=100, time=1),
    Message('note_on', channel=6, note=57, velocity=0, time=119),
    Message('note_on', channel=6, note=59, velocity=100, time=1),
    Message('note_on', channel=6, note=59, velocity=0, time=119),
    Message('note_on', channel=6, note=64, velocity=100, time=1),
    Message('note_on', channel=6, note=64, velocity=0, time=179),
    Message('note_on', channel=6, note=59, velocity=100, time=1),
    Message('note_on', channel=6, note=59, velocity=0, time=59),
    Message('note_on', channel=6, note=57, velocity=100, time=1),
    Message('note_on', channel=6, note=57, velocity=0, time=119),
    Message('note_on', channel=6, note=59, velocity=100, time=1),
    Message('note_on', channel=6, note=59, velocity=0, time=119),
    Message('note_on', channel=6, note=64, velocity=100, time=1),
    Message('note_on', channel=6, note=64, velocity=0, time=119),
    Message('note_on', channel=6, note=59, velocity=100, time=1),
    Message('note_on', channel=6, note=59, velocity=0, time=119),
    Message('note_on', channel=6, note=57, velocity=100, time=1),
    Message('note_on', channel=6, note=57, velocity=0, time=119),
    Message('note_on', channel=6, note=59, velocity=100, time=1),
    Message('note_on', channel=6, note=59, velocity=0, time=119),
    Message('note_on', channel=6, note=62, velocity=100, time=1),
    Message('note_on', channel=6, note=62, velocity=0, time=119),
    Message('note_on', channel=6, note=59, velocity=100, time=1),
    Message('note_on', channel=6, note=59, velocity=0, time=239),
    Message('note_on', channel=6, note=62, velocity=100, time=121),
    Message('note_on', channel=6, note=62, velocity=0, time=119),
    Message('note_on', channel=6, note=59, velocity=100, time=1),
    Message('note_on', channel=6, note=59, velocity=0, time=119),
    Message('note_on', channel=6, note=57, velocity=100, time=1),
    Message('note_on', channel=6, note=57, velocity=0, time=119),
    Message('note_on', channel=6, note=59, velocity=100, time=1),
    Message('note_on', channel=6, note=59, velocity=0, time=119),
    Message('note_on', channel=6, note=64, velocity=100, time=1),
    Message('note_on', channel=6, note=64, velocity=0, time=179),
    Message('note_on', channel=6, note=59, velocity=100, time=1),
    Message('note_on', channel=6, note=59, velocity=0, time=59),
    Message('note_on', channel=6, note=57, velocity=100, time=1),
    Message('note_on', channel=6, note=57, velocity=0, time=119),
    Message('note_on', channel=6, note=59, velocity=100, time=1),
    Message('note_on', channel=6, note=59, velocity=0, time=119),
    Message('note_on', channel=6, note=64, velocity=100, time=1),
    Message('note_on', channel=6, note=64, velocity=0, time=119),
    Message('note_on', channel=6, note=59, velocity=100, time=1),
    Message('note_on', channel=6, note=59, velocity=0, time=119),
    Message('note_on', channel=6, note=59, velocity=100, time=1),
    Message('note_on', channel=6, note=59, velocity=0, time=59),
    Message('note_on', channel=6, note=60, velocity=100, time=1),
    Message('note_on', channel=6, note=60, velocity=0, time=59),
    Message('note_on', channel=6, note=60, velocity=100, time=1),
    Message('note_on', channel=6, note=60, velocity=0, time=119),
    Message('note_on', channel=6, note=59, velocity=100, time=1),
    Message('note_on', channel=6, note=59, velocity=0, time=59),
    Message('note_on', channel=6, note=57, velocity=100, time=1),
    Message('note_on', channel=6, note=57, velocity=0, time=239),
    Message('note_on', channel=6, note=59, velocity=100, time=1),
    Message('note_on', channel=6, note=59, velocity=0, time=59),
    Message('note_on', channel=6, note=59, velocity=100, time=1),
    Message('note_on', channel=6, note=59, velocity=0, time=119),
    Message('note_on', channel=6, note=57, velocity=100, time=1),
    Message('note_on', channel=6, note=57, velocity=0, time=119),
    Message('note_on', channel=6, note=55, velocity=100, time=1),
    Message('note_on', channel=6, note=55, velocity=0, time=119),
    Message('note_on', channel=6, note=55, velocity=100, time=1),
    Message('note_on', channel=6, note=55, velocity=0, time=59),
    Message('note_on', channel=6, note=60, velocity=100, time=1),
    Message('note_on', channel=6, note=60, velocity=0, time=59),
    Message('note_on', channel=6, note=60, velocity=100, time=1),
    Message('note_on', channel=6, note=60, velocity=0, time=119),
    Message('note_on', channel=6, note=59, velocity=100, time=1),
    Message('note_on', channel=6, note=59, velocity=0, time=59),
    Message('note_on', channel=6, note=57, velocity=100, time=1),
    Message('note_on', channel=6, note=57, velocity=0, time=119),
    Message('note_on', channel=6, note=57, velocity=100, time=1),
    Message('note_on', channel=6, note=57, velocity=0, time=59),
    Message('note_on', channel=6, note=57, velocity=100, time=1),
    Message('note_on', channel=6, note=57, velocity=0, time=59),
    Message('note_on', channel=6, note=59, velocity=100, time=1),
    Message('note_on', channel=6, note=59, velocity=0, time=59),
    Message('note_on', channel=6, note=59, velocity=100, time=1),
    Message('note_on', channel=6, note=59, velocity=0, time=119),
    Message('note_on', channel=6, note=57, velocity=100, time=1),
    Message('note_on', channel=6, note=57, velocity=0, time=119),
    Message('note_on', channel=6, note=55, velocity=100, time=1),
    Message('note_on', channel=6, note=55, velocity=0, time=599),
    Message('note_on', channel=6, note=62, velocity=100, time=181),
    Message('note_on', channel=6, note=62, velocity=0, time=59),
    Message('note_on', channel=6, note=62, velocity=100, time=1),
    Message('note_on', channel=6, note=62, velocity=0, time=119),
    Message('note_on', channel=6, note=62, velocity=100, time=1),
    Message('note_on', channel=6, note=62, velocity=0, time=119),
    Message('note_on', channel=6, note=61, velocity=100, time=1),
    Message('note_on', channel=6, note=61, velocity=0, time=119),
    Message('note_on', channel=6, note=62, velocity=100, time=1),
    Message('note_on', channel=6, note=62, velocity=0, time=59),
    Message('note_on', channel=6, note=61, velocity=100, time=1),
    Message('note_on', channel=6, note=61, velocity=0, time=59),
    Message('note_on', channel=6, note=59, velocity=100, time=1),
    Message('note_on', channel=6, note=59, velocity=0, time=59),
    Message('note_on', channel=6, note=59, velocity=100, time=1),
    Message('note_on', channel=6, note=59, velocity=0, time=119),
    Message('note_on', channel=6, note=57, velocity=100, time=1),
    Message('note_on', channel=6, note=57, velocity=0, time=119),
    Message('note_on', channel=6, note=57, velocity=100, time=1),
    Message('note_on', channel=6, note=57, velocity=0, time=119),
    Message('note_on', channel=6, note=61, velocity=100, time=61),
    Message('note_on', channel=6, note=61, velocity=0, time=119),
    Message('note_on', channel=6, note=62, velocity=100, time=1),
    Message('note_on', channel=6, note=62, velocity=0, time=119),
    Message('note_on', channel=6, note=57, velocity=100, time=1),
    Message('note_on', channel=6, note=57, velocity=0, time=59),
    Message('note_on', channel=6, note=61, velocity=100, time=1),
    Message('note_on', channel=6, note=61, velocity=0, time=29),
    Message('note_on', channel=6, note=62, velocity=100, time=1),
    Message('note_on', channel=6, note=62, velocity=0, time=29),
    Message('note_on', channel=6, note=62, velocity=100, time=1),
    Message('note_on', channel=6, note=62, velocity=0, time=179),
    Message('note_on', channel=6, note=62, velocity=100, time=361),
    Message('note_on', channel=6, note=62, velocity=0, time=59),
    Message('note_on', channel=6, note=62, velocity=100, time=1),
    Message('note_on', channel=6, note=62, velocity=0, time=119),
    Message('note_on', channel=6, note=62, velocity=100, time=1),
    Message('note_on', channel=6, note=62, velocity=0, time=119),
    Message('note_on', channel=6, note=61, velocity=100, time=1),
    Message('note_on', channel=6, note=61, velocity=0, time=59),
    Message('note_on', channel=6, note=61, velocity=100, time=1),
    Message('note_on', channel=6, note=61, velocity=0, time=59),
    Message('note_on', channel=6, note=61, velocity=100, time=1),
    Message('note_on', channel=6, note=61, velocity=0, time=119),
    Message('note_on', channel=6, note=59, velocity=100, time=1),
    Message('note_on', channel=6, note=59, velocity=0, time=179),
    Message('note_on', channel=6, note=57, velocity=100, time=1),
    Message('note_on', channel=6, note=57, velocity=0, time=59),
    Message('note_on', channel=6, note=57, velocity=100, time=1),
    Message('note_on', channel=6, note=57, velocity=0, time=179),
    Message('note_on', channel=6, note=61, velocity=100, time=61),
    Message('note_on', channel=6, note=61, velocity=0, time=119),
    Message('note_on', channel=6, note=62, velocity=100, time=1),
    Message('note_on', channel=6, note=62, velocity=0, time=119),
    Message('note_on', channel=6, note=57, velocity=100, time=1),
    Message('note_on', channel=6, note=57, velocity=0, time=59),
    Message('note_on', channel=6, note=61, velocity=100, time=1),
    Message('note_on', channel=6, note=61, velocity=0, time=29),
    Message('note_on', channel=6, note=62, velocity=100, time=1),
    Message('note_on', channel=6, note=62, velocity=0, time=29),
    Message('note_on', channel=6, note=62, velocity=100, time=1),
    Message('note_on', channel=6, note=62, velocity=0, time=299),
    Message('note_on', channel=6, note=61, velocity=100, time=301),
    Message('note_on', channel=6, note=61, velocity=0, time=119),
    Message('note_on', channel=6, note=62, velocity=100, time=1),
    Message('note_on', channel=6, note=62, velocity=0, time=119),
    Message('note_on', channel=6, note=57, velocity=100, time=1),
    Message('note_on', channel=6, note=57, velocity=0, time=59),
    Message('note_on', channel=6, note=61, velocity=100, time=1),
    Message('note_on', channel=6, note=61, velocity=0, time=29),
    Message('note_on', channel=6, note=62, velocity=100, time=1),
    Message('note_on', channel=6, note=62, velocity=0, time=29),
    Message('note_on', channel=6, note=62, velocity=100, time=1),
    Message('note_on', channel=6, note=62, velocity=0, time=419),
    Message('note_on', channel=6, note=57, velocity=100, time=1),
    Message('note_on', channel=6, note=57, velocity=0, time=179),
    Message('note_on', channel=6, note=61, velocity=100, time=1),
    Message('note_on', channel=6, note=61, velocity=0, time=119),
    Message('note_on', channel=6, note=62, velocity=100, time=1),
    Message('note_on', channel=6, note=62, velocity=0, time=119),
    Message('note_on', channel=6, note=57, velocity=100, time=1),
    Message('note_on', channel=6, note=57, velocity=0, time=59),
    Message('note_on', channel=6, note=61, velocity=100, time=1),
    Message('note_on', channel=6, note=61, velocity=0, time=29),
    Message('note_on', channel=6, note=62, velocity=100, time=1),
    Message('note_on', channel=6, note=62, velocity=0, time=29),
    Message('note_on', channel=6, note=62, velocity=100, time=1),
    Message('note_on', channel=6, note=62, velocity=0, time=419),
    Message('note_on', channel=6, note=57, velocity=100, time=1),
    Message('note_on', channel=6, note=57, velocity=0, time=419),
    Message('note_on', channel=6, note=61, velocity=100, time=781),
    Message('note_on', channel=6, note=59, velocity=100, time=60),
    Message('note_on', channel=6, note=61, velocity=0, time=59),
    Message('note_on', channel=6, note=57, velocity=100, time=1),
    Message('note_on', channel=6, note=59, velocity=0, time=59),
    Message('note_on', channel=6, note=57, velocity=0, time=60),
    Message('note_on', channel=6, note=62, velocity=100, time=2101),
    Message('note_on', channel=6, note=62, velocity=0, time=119),
    Message('note_on', channel=6, note=59, velocity=100, time=1),
    Message('note_on', channel=6, note=59, velocity=0, time=359),
    Message('note_on', channel=6, note=62, velocity=100, time=1),
    Message('note_on', channel=6, note=62, velocity=0, time=119),
    Message('note_on', channel=6, note=59, velocity=100, time=61),
    Message('note_on', channel=6, note=59, velocity=0, time=59),
    Message('note_on', channel=6, note=57, velocity=100, time=1),
    Message('note_on', channel=6, note=57, velocity=0, time=119),
    Message('note_on', channel=6, note=59, velocity=100, time=1),
    Message('note_on', channel=6, note=59, velocity=0, time=119),
    Message('note_on', channel=6, note=64, velocity=100, time=1),
    Message('note_on', channel=6, note=64, velocity=0, time=179),
    Message('note_on', channel=6, note=59, velocity=100, time=1),
    Message('note_on', channel=6, note=59, velocity=0, time=59),
    Message('note_on', channel=6, note=57, velocity=100, time=1),
    Message('note_on', channel=6, note=57, velocity=0, time=119),
    Message('note_on', channel=6, note=59, velocity=100, time=1),
    Message('note_on', channel=6, note=59, velocity=0, time=119),
    Message('note_on', channel=6, note=64, velocity=100, time=1),
    Message('note_on', channel=6, note=64, velocity=0, time=119),
    Message('note_on', channel=6, note=59, velocity=100, time=1),
    Message('note_on', channel=6, note=59, velocity=0, time=119),
    Message('note_on', channel=6, note=57, velocity=100, time=1),
    Message('note_on', channel=6, note=57, velocity=0, time=119),
    Message('note_on', channel=6, note=59, velocity=100, time=1),
    Message('note_on', channel=6, note=59, velocity=0, time=119),
    Message('note_on', channel=6, note=62, velocity=100, time=1),
    Message('note_on', channel=6, note=62, velocity=0, time=179),
    Message('note_on', channel=6, note=59, velocity=100, time=1),
    Message('note_on', channel=6, note=59, velocity=0, time=59),
    Message('note_on', channel=6, note=57, velocity=100, time=1),
    Message('note_on', channel=6, note=57, velocity=0, time=119),
    Message('note_on', channel=6, note=59, velocity=100, time=1),
    Message('note_on', channel=6, note=59, velocity=0, time=419),
    Message('note_on', channel=6, note=56, velocity=100, time=1),
    Message('note_on', channel=6, note=56, velocity=0, time=299),
    MetaMessage('end_of_track', time=0)]),
  MidiTrack([
    MetaMessage('midi_port', port=0, time=0),
    MetaMessage('track_name', name='sequenced by:', time=0),
    Message('program_change', channel=1, program=35, time=0),
    Message('control_change', channel=1, control=7, value=55, time=0),
    Message('note_on', channel=1, note=26, velocity=127, time=10080),
    Message('note_on', channel=1, note=26, velocity=0, time=479),
    Message('note_on', channel=1, note=33, velocity=127, time=1),
    Message('note_on', channel=1, note=33, velocity=0, time=239),
    Message('note_on', channel=1, note=31, velocity=127, time=1),
    Message('note_on', channel=1, note=31, velocity=0, time=239),
    Message('note_on', channel=1, note=26, velocity=127, time=1),
    Message('note_on', channel=1, note=26, velocity=0, time=479),
    Message('note_on', channel=1, note=33, velocity=127, time=1),
    Message('note_on', channel=1, note=33, velocity=0, time=239),
    Message('note_on', channel=1, note=31, velocity=127, time=1),
    Message('note_on', channel=1, note=31, velocity=0, time=239),
    Message('note_on', channel=1, note=26, velocity=127, time=1),
    Message('note_on', channel=1, note=26, velocity=0, time=479),
    Message('note_on', channel=1, note=33, velocity=127, time=1),
    Message('note_on', channel=1, note=33, velocity=0, time=239),
    Message('note_on', channel=1, note=31, velocity=127, time=1),
    Message('note_on', channel=1, note=31, velocity=0, time=239),
    Message('note_on', channel=1, note=26, velocity=127, time=1),
    Message('note_on', channel=1, note=26, velocity=0, time=479),
    Message('note_on', channel=1, note=33, velocity=127, time=1),
    Message('note_on', channel=1, note=33, velocity=0, time=179),
    Message('note_on', channel=1, note=33, velocity=127, time=1),
    Message('note_on', channel=1, note=33, velocity=0, time=299),
    Message('note_on', channel=1, note=33, velocity=127, time=1),
    Message('note_on', channel=1, note=33, velocity=0, time=179),
    Message('note_on', channel=1, note=33, velocity=127, time=1),
    Message('note_on', channel=1, note=33, velocity=0, time=299),
    Message('note_on', channel=1, note=26, velocity=127, time=1),
    Message('note_on', channel=1, note=26, velocity=0, time=179),
    Message('note_on', channel=1, note=26, velocity=127, time=1),
    Message('note_on', channel=1, note=26, velocity=0, time=299),
    Message('note_on', channel=1, note=26, velocity=127, time=1),
    Message('note_on', channel=1, note=26, velocity=0, time=179),
    Message('note_on', channel=1, note=26, velocity=127, time=1),
    Message('note_on', channel=1, note=26, velocity=0, time=299),
    Message('note_on', channel=1, note=33, velocity=127, time=1),
    Message('note_on', channel=1, note=33, velocity=0, time=179),
    Message('note_on', channel=1, note=33, velocity=127, time=1),
    Message('note_on', channel=1, note=33, velocity=0, time=299),
    Message('note_on', channel=1, note=33, velocity=127, time=1),
    Message('note_on', channel=1, note=33, velocity=0, time=179),
    Message('note_on', channel=1, note=33, velocity=127, time=1),
    Message('note_on', channel=1, note=33, velocity=0, time=299),
    Message('note_on', channel=1, note=31, velocity=127, time=1),
    Message('note_on', channel=1, note=31, velocity=0, time=179),
    Message('note_on', channel=1, note=31, velocity=127, time=1),
    Message('note_on', channel=1, note=31, velocity=0, time=299),
    Message('note_on', channel=1, note=31, velocity=127, time=1),
    Message('note_on', channel=1, note=31, velocity=0, time=179),
    Message('note_on', channel=1, note=31, velocity=127, time=1),
    Message('note_on', channel=1, note=31, velocity=0, time=299),
    MetaMessage('end_of_track', time=0)]),
  MidiTrack([
    MetaMessage('midi_port', port=0, time=0),
    MetaMessage('track_name', name='Jim Marshall', time=0),
    Message('program_change', channel=2, program=25, time=0),
    Message('control_change', channel=2, control=7, value=120, time=0),
    Message('note_on', channel=2, note=64, velocity=127, time=22560),
    Message('note_on', channel=2, note=59, velocity=127, time=0),
    Message('note_on', channel=2, note=50, velocity=127, time=0),
    Message('note_on', channel=2, note=44, velocity=127, time=0),
    Message('control_change', channel=2, control=7, value=0, time=0),
    Message('control_change', channel=2, control=7, value=0, time=3),
    Message('control_change', channel=2, control=7, value=1, time=2),
    Message('control_change', channel=2, control=7, value=2, time=2),
    Message('control_change', channel=2, control=7, value=3, time=3),
    Message('control_change', channel=2, control=7, value=4, time=2),
    Message('control_change', channel=2, control=7, value=5, time=1),
    Message('control_change', channel=2, control=7, value=6, time=2),
    Message('control_change', channel=2, control=7, value=7, time=3),
    Message('control_change', channel=2, control=7, value=8, time=2),
    Message('control_change', channel=2, control=7, value=9, time=2),
    Message('control_change', channel=2, control=7, value=10, time=3),
    Message('control_change', channel=2, control=7, value=11, time=2),
    Message('control_change', channel=2, control=7, value=12, time=1),
    Message('control_change', channel=2, control=7, value=13, time=2),
    Message('control_change', channel=2, control=7, value=14, time=3),
    Message('control_change', channel=2, control=7, value=15, time=2),
    Message('control_change', channel=2, control=7, value=16, time=2),
    Message('control_change', channel=2, control=7, value=17, time=1),
    Message('control_change', channel=2, control=7, value=18, time=4),
    Message('control_change', channel=2, control=7, value=19, time=1),
    Message('control_change', channel=2, control=7, value=20, time=2),
    Message('control_change', channel=2, control=7, value=21, time=3),
    Message('control_change', channel=2, control=7, value=22, time=2),
    Message('control_change', channel=2, control=7, value=23, time=2),
    Message('control_change', channel=2, control=7, value=24, time=1),
    Message('control_change', channel=2, control=7, value=25, time=4),
    Message('control_change', channel=2, control=7, value=26, time=1),
    Message('note_on', channel=2, note=44, velocity=0, time=1),
    Message('note_on', channel=2, note=64, velocity=0, time=0),
    Message('note_on', channel=2, note=59, velocity=0, time=0),
    Message('note_on', channel=2, note=50, velocity=0, time=0),
    Message('note_on', channel=2, note=44, velocity=127, time=1),
    Message('note_on', channel=2, note=50, velocity=127, time=0),
    Message('note_on', channel=2, note=59, velocity=127, time=0),
    Message('note_on', channel=2, note=64, velocity=127, time=0),
    Message('control_change', channel=2, control=7, value=27, time=0),
    Message('control_change', channel=2, control=7, value=28, time=2),
    Message('control_change', channel=2, control=7, value=29, time=3),
    Message('control_change', channel=2, control=7, value=30, time=2),
    Message('control_change', channel=2, control=7, value=31, time=1),
    Message('control_change', channel=2, control=7, value=32, time=4),
    Message('control_change', channel=2, control=7, value=33, time=1),
    Message('control_change', channel=2, control=7, value=34, time=2),
    Message('control_change', channel=2, control=7, value=35, time=2),
    Message('control_change', channel=2, control=7, value=36, time=3),
    Message('control_change', channel=2, control=7, value=37, time=2),
    Message('control_change', channel=2, control=7, value=38, time=1),
    Message('control_change', channel=2, control=7, value=39, time=2),
    Message('control_change', channel=2, control=7, value=40, time=3),
    Message('control_change', channel=2, control=7, value=41, time=2),
    Message('control_change', channel=2, control=7, value=42, time=2),
    Message('control_change', channel=2, control=7, value=43, time=3),
    Message('control_change', channel=2, control=7, value=44, time=2),
    Message('control_change', channel=2, control=7, value=45, time=1),
    Message('control_change', channel=2, control=7, value=46, time=2),
    Message('control_change', channel=2, control=7, value=47, time=3),
    Message('control_change', channel=2, control=7, value=48, time=2),
    Message('control_change', channel=2, control=7, value=49, time=2),
    Message('control_change', channel=2, control=7, value=50, time=1),
    Message('control_change', channel=2, control=7, value=51, time=4),
    Message('control_change', channel=2, control=7, value=52, time=1),
    Message('control_change', channel=2, control=7, value=53, time=2),
    Message('control_change', channel=2, control=7, value=54, time=3),
    Message('note_on', channel=2, note=64, velocity=0, time=1),
    Message('note_on', channel=2, note=44, velocity=0, time=0),
    Message('note_on', channel=2, note=50, velocity=0, time=0),
    Message('note_on', channel=2, note=59, velocity=0, time=0),
    Message('note_on', channel=2, note=64, velocity=127, time=1),
    Message('note_on', channel=2, note=59, velocity=127, time=0),
    Message('note_on', channel=2, note=50, velocity=127, time=0),
    Message('note_on', channel=2, note=44, velocity=127, time=0),
    Message('control_change', channel=2, control=7, value=55, time=0),
    Message('control_change', channel=2, control=7, value=56, time=2),
    Message('control_change', channel=2, control=7, value=57, time=1),
    Message('control_change', channel=2, control=7, value=58, time=4),
    Message('control_change', channel=2, control=7, value=59, time=1),
    Message('control_change', channel=2, control=7, value=60, time=2),
    Message('control_change', channel=2, control=7, value=61, time=2),
    Message('control_change', channel=2, control=7, value=62, time=3),
    Message('control_change', channel=2, control=7, value=63, time=2),
    Message('control_change', channel=2, control=7, value=64, time=1),
    Message('control_change', channel=2, control=7, value=65, time=4),
    Message('control_change', channel=2, control=7, value=66, time=1),
    Message('control_change', channel=2, control=7, value=67, time=2),
    Message('control_change', channel=2, control=7, value=68, time=2),
    Message('control_change', channel=2, control=7, value=69, time=3),
    Message('control_change', channel=2, control=7, value=70, time=2),
    Message('control_change', channel=2, control=7, value=71, time=1),
    Message('control_change', channel=2, control=7, value=72, time=2),
    Message('control_change', channel=2, control=7, value=73, time=3),
    Message('control_change', channel=2, control=7, value=74, time=2),
    Message('control_change', channel=2, control=7, value=75, time=2),
    Message('control_change', channel=2, control=7, value=76, time=3),
    Message('control_change', channel=2, control=7, value=77, time=2),
    Message('control_change', channel=2, control=7, value=78, time=1),
    Message('control_change', channel=2, control=7, value=79, time=2),
    Message('control_change', channel=2, control=7, value=80, time=3),
    Message('control_change', channel=2, control=7, value=81, time=2),
    Message('control_change', channel=2, control=7, value=82, time=2),
    Message('control_change', channel=2, control=7, value=83, time=1),
    Message('note_on', channel=2, note=44, velocity=0, time=1),
    Message('note_on', channel=2, note=64, velocity=0, time=0),
    Message('note_on', channel=2, note=59, velocity=0, time=0),
    Message('note_on', channel=2, note=50, velocity=0, time=0),
    Message('note_on', channel=2, note=64, velocity=127, time=1),
    Message('note_on', channel=2, note=59, velocity=127, time=0),
    Message('note_on', channel=2, note=50, velocity=127, time=0),
    Message('note_on', channel=2, note=44, velocity=127, time=0),
    Message('control_change', channel=2, control=7, value=84, time=2),
    Message('control_change', channel=2, control=7, value=85, time=1),
    Message('control_change', channel=2, control=7, value=86, time=2),
    Message('control_change', channel=2, control=7, value=87, time=3),
    Message('control_change', channel=2, control=7, value=88, time=2),
    Message('control_change', channel=2, control=7, value=89, time=2),
    Message('control_change', channel=2, control=7, value=90, time=1),
    Message('control_change', channel=2, control=7, value=91, time=4),
    Message('control_change', channel=2, control=7, value=92, time=1),
    Message('control_change', channel=2, control=7, value=93, time=2),
    Message('control_change', channel=2, control=7, value=94, time=2),
    Message('control_change', channel=2, control=7, value=95, time=3),
    Message('control_change', channel=2, control=7, value=96, time=2),
    Message('control_change', channel=2, control=7, value=97, time=1),
    Message('control_change', channel=2, control=7, value=98, time=4),
    Message('control_change', channel=2, control=7, value=99, time=1),
    Message('control_change', channel=2, control=7, value=100, time=2),
    Message('control_change', channel=2, control=7, value=101, time=2),
    Message('control_change', channel=2, control=7, value=102, time=3),
    Message('control_change', channel=2, control=7, value=103, time=2),
    Message('control_change', channel=2, control=7, value=104, time=1),
    Message('control_change', channel=2, control=7, value=105, time=2),
    Message('control_change', channel=2, control=7, value=106, time=3),
    Message('control_change', channel=2, control=7, value=107, time=2),
    Message('control_change', channel=2, control=7, value=108, time=2),
    Message('control_change', channel=2, control=7, value=109, time=3),
    Message('control_change', channel=2, control=7, value=110, time=2),
    Message('control_change', channel=2, control=7, value=111, time=1),
    Message('note_on', channel=2, note=44, velocity=0, time=1),
    Message('note_on', channel=2, note=64, velocity=0, time=0),
    Message('note_on', channel=2, note=59, velocity=0, time=0),
    Message('note_on', channel=2, note=50, velocity=0, time=0),
    Message('note_on', channel=2, note=64, velocity=127, time=1),
    Message('note_on', channel=2, note=59, velocity=127, time=0),
    Message('note_on', channel=2, note=50, velocity=127, time=0),
    Message('note_on', channel=2, note=44, velocity=127, time=0),
    Message('control_change', channel=2, control=7, value=112, time=0),
    Message('control_change', channel=2, control=7, value=113, time=3),
    Message('control_change', channel=2, control=7, value=114, time=2),
    Message('control_change', channel=2, control=7, value=115, time=2),
    Message('control_change', channel=2, control=7, value=116, time=1),
    Message('control_change', channel=2, control=7, value=117, time=4),
    Message('control_change', channel=2, control=7, value=118, time=1),
    Message('control_change', channel=2, control=7, value=119, time=2),
    Message('control_change', channel=2, control=7, value=120, time=3),
    Message('control_change', channel=2, control=7, value=121, time=2),
    Message('control_change', channel=2, control=7, value=122, time=2),
    Message('control_change', channel=2, control=7, value=123, time=1),
    Message('control_change', channel=2, control=7, value=124, time=4),
    Message('control_change', channel=2, control=7, value=125, time=1),
    Message('control_change', channel=2, control=7, value=126, time=2),
    Message('control_change', channel=2, control=7, value=127, time=2),
    Message('note_on', channel=2, note=44, velocity=0, time=27),
    Message('note_on', channel=2, note=64, velocity=0, time=0),
    Message('note_on', channel=2, note=59, velocity=0, time=0),
    Message('note_on', channel=2, note=50, velocity=0, time=0),
    Message('note_on', channel=2, note=64, velocity=127, time=1),
    Message('note_on', channel=2, note=59, velocity=127, time=0),
    Message('note_on', channel=2, note=50, velocity=127, time=0),
    Message('note_on', channel=2, note=44, velocity=127, time=0),
    Message('note_on', channel=2, note=44, velocity=0, time=59),
    Message('note_on', channel=2, note=64, velocity=0, time=0),
    Message('note_on', channel=2, note=59, velocity=0, time=0),
    Message('note_on', channel=2, note=50, velocity=0, time=0),
    Message('note_on', channel=2, note=64, velocity=127, time=1),
    Message('note_on', channel=2, note=59, velocity=127, time=0),
    Message('note_on', channel=2, note=50, velocity=127, time=0),
    Message('note_on', channel=2, note=44, velocity=127, time=0),
    Message('note_on', channel=2, note=44, velocity=0, time=59),
    Message('note_on', channel=2, note=64, velocity=0, time=0),
    Message('note_on', channel=2, note=59, velocity=0, time=0),
    Message('note_on', channel=2, note=50, velocity=0, time=0),
    Message('note_on', channel=2, note=64, velocity=127, time=1),
    Message('note_on', channel=2, note=59, velocity=127, time=0),
    Message('note_on', channel=2, note=50, velocity=127, time=0),
    Message('note_on', channel=2, note=44, velocity=127, time=0),
    Message('note_on', channel=2, note=44, velocity=0, time=59),
    Message('note_on', channel=2, note=64, velocity=0, time=0),
    Message('note_on', channel=2, note=59, velocity=0, time=0),
    Message('note_on', channel=2, note=50, velocity=0, time=0),
    Message('note_on', channel=2, note=62, velocity=127, time=1),
    Message('note_on', channel=2, note=57, velocity=127, time=0),
    Message('note_on', channel=2, note=42, velocity=127, time=0),
    Message('note_on', channel=2, note=50, velocity=127, time=0),
    Message('note_on', channel=2, note=50, velocity=0, time=179),
    Message('note_on', channel=2, note=62, velocity=0, time=0),
    Message('note_on', channel=2, note=57, velocity=0, time=0),
    Message('note_on', channel=2, note=42, velocity=0, time=0),
    Message('note_on', channel=2, note=62, velocity=127, time=1),
    Message('note_on', channel=2, note=42, velocity=127, time=0),
    Message('note_on', channel=2, note=50, velocity=127, time=0),
    Message('note_on', channel=2, note=57, velocity=127, time=0),
    Message('note_on', channel=2, note=57, velocity=0, time=119),
    Message('note_on', channel=2, note=62, velocity=0, time=0),
    Message('note_on', channel=2, note=42, velocity=0, time=0),
    Message('note_on', channel=2, note=50, velocity=0, time=0),
    Message('note_on', channel=2, note=57, velocity=127, time=1),
    Message('note_on', channel=2, note=62, velocity=127, time=0),
    Message('note_on', channel=2, note=50, velocity=127, time=0),
    Message('note_on', channel=2, note=42, velocity=127, time=0),
    Message('note_on', channel=2, note=42, velocity=0, time=59),
    Message('note_on', channel=2, note=57, velocity=0, time=0),
    Message('note_on', channel=2, note=62, velocity=0, time=0),
    Message('note_on', channel=2, note=50, velocity=0, time=0),
    Message('note_on', channel=2, note=62, velocity=127, time=1),
    Message('note_on', channel=2, note=57, velocity=127, time=0),
    Message('note_on', channel=2, note=50, velocity=127, time=0),
    Message('note_on', channel=2, note=42, velocity=127, time=0),
    Message('note_on', channel=2, note=42, velocity=0, time=119),
    Message('note_on', channel=2, note=62, velocity=0, time=0),
    Message('note_on', channel=2, note=57, velocity=0, time=0),
    Message('note_on', channel=2, note=50, velocity=0, time=0),
    Message('note_on', channel=2, note=62, velocity=127, time=1),
    Message('note_on', channel=2, note=57, velocity=127, time=0),
    Message('note_on', channel=2, note=42, velocity=127, time=0),
    Message('note_on', channel=2, note=50, velocity=127, time=0),
    Message('note_on', channel=2, note=50, velocity=0, time=179),
    Message('note_on', channel=2, note=62, velocity=0, time=0),
    Message('note_on', channel=2, note=57, velocity=0, time=0),
    Message('note_on', channel=2, note=42, velocity=0, time=0),
    Message('note_on', channel=2, note=42, velocity=127, time=1),
    Message('note_on', channel=2, note=50, velocity=127, time=0),
    Message('note_on', channel=2, note=57, velocity=127, time=0),
    Message('note_on', channel=2, note=62, velocity=127, time=0),
    Message('note_on', channel=2, note=62, velocity=0, time=119),
    Message('note_on', channel=2, note=42, velocity=0, time=0),
    Message('note_on', channel=2, note=50, velocity=0, time=0),
    Message('note_on', channel=2, note=57, velocity=0, time=0),
    Message('note_on', channel=2, note=62, velocity=127, time=1),
    Message('note_on', channel=2, note=57, velocity=127, time=0),
    Message('note_on', channel=2, note=50, velocity=127, time=0),
    Message('note_on', channel=2, note=42, velocity=127, time=0),
    Message('note_on', channel=2, note=42, velocity=0, time=59),
    Message('note_on', channel=2, note=62, velocity=0, time=0),
    Message('note_on', channel=2, note=57, velocity=0, time=0),
    Message('note_on', channel=2, note=50, velocity=0, time=0),
    Message('note_on', channel=2, note=62, velocity=127, time=1),
    Message('note_on', channel=2, note=57, velocity=127, time=0),
    Message('note_on', channel=2, note=50, velocity=127, time=0),
    Message('note_on', channel=2, note=42, velocity=127, time=0),
    Message('note_on', channel=2, note=42, velocity=0, time=119),
    Message('note_on', channel=2, note=62, velocity=0, time=0),
    Message('note_on', channel=2, note=57, velocity=0, time=0),
    Message('note_on', channel=2, note=50, velocity=0, time=0),
    Message('note_on', channel=2, note=44, velocity=127, time=1),
    Message('note_on', channel=2, note=64, velocity=127, time=0),
    Message('note_on', channel=2, note=59, velocity=127, time=0),
    Message('note_on', channel=2, note=50, velocity=127, time=0),
    Message('note_on', channel=2, note=50, velocity=0, time=179),
    Message('note_on', channel=2, note=44, velocity=0, time=0),
    Message('note_on', channel=2, note=64, velocity=0, time=0),
    Message('note_on', channel=2, note=59, velocity=0, time=0),
    Message('note_on', channel=2, note=64, velocity=127, time=1),
    Message('note_on', channel=2, note=44, velocity=127, time=0),
    Message('note_on', channel=2, note=50, velocity=127, time=0),
    Message('note_on', channel=2, note=59, velocity=127, time=0),
    Message('note_on', channel=2, note=59, velocity=0, time=119),
    Message('note_on', channel=2, note=64, velocity=0, time=0),
    Message('note_on', channel=2, note=44, velocity=0, time=0),
    Message('note_on', channel=2, note=50, velocity=0, time=0),
    Message('note_on', channel=2, note=44, velocity=127, time=1),
    Message('note_on', channel=2, note=50, velocity=127, time=0),
    Message('note_on', channel=2, note=59, velocity=127, time=0),
    Message('note_on', channel=2, note=64, velocity=127, time=0),
    Message('note_on', channel=2, note=64, velocity=0, time=59),
    Message('note_on', channel=2, note=44, velocity=0, time=0),
    Message('note_on', channel=2, note=50, velocity=0, time=0),
    Message('note_on', channel=2, note=59, velocity=0, time=0),
    Message('note_on', channel=2, note=64, velocity=127, time=1),
    Message('note_on', channel=2, note=59, velocity=127, time=0),
    Message('note_on', channel=2, note=50, velocity=127, time=0),
    Message('note_on', channel=2, note=44, velocity=127, time=0),
    Message('note_on', channel=2, note=44, velocity=0, time=119),
    Message('note_on', channel=2, note=64, velocity=0, time=0),
    Message('note_on', channel=2, note=59, velocity=0, time=0),
    Message('note_on', channel=2, note=50, velocity=0, time=0),
    Message('note_on', channel=2, note=64, velocity=127, time=1),
    Message('note_on', channel=2, note=59, velocity=127, time=0),
    Message('note_on', channel=2, note=50, velocity=127, time=0),
    Message('note_on', channel=2, note=44, velocity=127, time=0),
    Message('note_on', channel=2, note=44, velocity=0, time=179),
    Message('note_on', channel=2, note=64, velocity=0, time=0),
    Message('note_on', channel=2, note=59, velocity=0, time=0),
    Message('note_on', channel=2, note=50, velocity=0, time=0),
    Message('note_on', channel=2, note=44, velocity=127, time=1),
    Message('note_on', channel=2, note=50, velocity=127, time=0),
    Message('note_on', channel=2, note=59, velocity=127, time=0),
    Message('note_on', channel=2, note=64, velocity=127, time=0),
    Message('note_on', channel=2, note=64, velocity=0, time=119),
    Message('note_on', channel=2, note=44, velocity=0, time=0),
    Message('note_on', channel=2, note=50, velocity=0, time=0),
    Message('note_on', channel=2, note=59, velocity=0, time=0),
    Message('note_on', channel=2, note=59, velocity=127, time=1),
    Message('note_on', channel=2, note=64, velocity=127, time=0),
    Message('note_on', channel=2, note=50, velocity=127, time=0),
    Message('note_on', channel=2, note=44, velocity=127, time=0),
    Message('note_on', channel=2, note=44, velocity=0, time=59),
    Message('note_on', channel=2, note=59, velocity=0, time=0),
    Message('note_on', channel=2, note=64, velocity=0, time=0),
    Message('note_on', channel=2, note=50, velocity=0, time=0),
    Message('note_on', channel=2, note=44, velocity=127, time=1),
    Message('note_on', channel=2, note=50, velocity=127, time=0),
    Message('note_on', channel=2, note=59, velocity=127, time=0),
    Message('note_on', channel=2, note=64, velocity=127, time=0),
    Message('note_on', channel=2, note=64, velocity=0, time=119),
    Message('note_on', channel=2, note=44, velocity=0, time=0),
    Message('note_on', channel=2, note=50, velocity=0, time=0),
    Message('note_on', channel=2, note=59, velocity=0, time=0),
    Message('note_on', channel=2, note=65, velocity=127, time=1),
    Message('note_on', channel=2, note=60, velocity=127, time=0),
    Message('note_on', channel=2, note=50, velocity=127, time=0),
    Message('note_on', channel=2, note=45, velocity=127, time=0),
    Message('note_on', channel=2, note=45, velocity=0, time=179),
    Message('note_on', channel=2, note=65, velocity=0, time=0),
    Message('note_on', channel=2, note=60, velocity=0, time=0),
    Message('note_on', channel=2, note=50, velocity=0, time=0),
    Message('note_on', channel=2, note=65, velocity=127, time=1),
    Message('note_on', channel=2, note=60, velocity=127, time=0),
    Message('note_on', channel=2, note=50, velocity=127, time=0),
    Message('note_on', channel=2, note=45, velocity=127, time=0),
    Message('note_on', channel=2, note=45, velocity=0, time=119),
    Message('note_on', channel=2, note=65, velocity=0, time=0),
    Message('note_on', channel=2, note=60, velocity=0, time=0),
    Message('note_on', channel=2, note=50, velocity=0, time=0),
    Message('note_on', channel=2, note=45, velocity=127, time=1),
    Message('note_on', channel=2, note=50, velocity=127, time=0),
    Message('note_on', channel=2, note=60, velocity=127, time=0),
    Message('note_on', channel=2, note=65, velocity=127, time=0),
    Message('note_on', channel=2, note=65, velocity=0, time=59),
    Message('note_on', channel=2, note=45, velocity=0, time=0),
    Message('note_on', channel=2, note=50, velocity=0, time=0),
    Message('note_on', channel=2, note=60, velocity=0, time=0),
    Message('note_on', channel=2, note=65, velocity=127, time=1),
    Message('note_on', channel=2, note=60, velocity=127, time=0),
    Message('note_on', channel=2, note=50, velocity=127, time=0),
    Message('note_on', channel=2, note=45, velocity=127, time=0),
    Message('note_on', channel=2, note=45, velocity=0, time=59),
    Message('note_on', channel=2, note=65, velocity=0, time=0),
    Message('note_on', channel=2, note=60, velocity=0, time=0),
    Message('note_on', channel=2, note=50, velocity=0, time=0),
    Message('note_on', channel=2, note=45, velocity=127, time=1),
    Message('note_on', channel=2, note=50, velocity=127, time=0),
    Message('note_on', channel=2, note=65, velocity=127, time=0),
    Message('note_on', channel=2, note=60, velocity=127, time=0),
    Message('note_on', channel=2, note=60, velocity=0, time=59),
    Message('note_on', channel=2, note=45, velocity=0, time=0),
    Message('note_on', channel=2, note=50, velocity=0, time=0),
    Message('note_on', channel=2, note=65, velocity=0, time=0),
    Message('note_on', channel=2, note=47, velocity=127, time=1),
    Message('note_on', channel=2, note=62, velocity=127, time=0),
    Message('note_on', channel=2, note=67, velocity=127, time=0),
    Message('note_on', channel=2, note=50, velocity=127, time=0),
    Message('note_on', channel=2, note=50, velocity=0, time=59),
    Message('note_on', channel=2, note=47, velocity=0, time=0),
    Message('note_on', channel=2, note=62, velocity=0, time=0),
    Message('note_on', channel=2, note=67, velocity=0, time=0),
    Message('note_on', channel=2, note=47, velocity=127, time=1),
    Message('note_on', channel=2, note=50, velocity=127, time=0),
    Message('note_on', channel=2, note=62, velocity=127, time=0),
    Message('note_on', channel=2, note=67, velocity=127, time=0),
    Message('note_on', channel=2, note=67, velocity=0, time=59),
    Message('note_on', channel=2, note=47, velocity=0, time=0),
    Message('note_on', channel=2, note=50, velocity=0, time=0),
    Message('note_on', channel=2, note=62, velocity=0, time=0),
    Message('note_on', channel=2, note=67, velocity=127, time=1),
    Message('note_on', channel=2, note=62, velocity=127, time=0),
    Message('note_on', channel=2, note=50, velocity=127, time=0),
    Message('note_on', channel=2, note=47, velocity=127, time=0),
    Message('note_on', channel=2, note=47, velocity=0, time=59),
    Message('note_on', channel=2, note=67, velocity=0, time=0),
    Message('note_on', channel=2, note=62, velocity=0, time=0),
    Message('note_on', channel=2, note=50, velocity=0, time=0),
    Message('note_on', channel=2, note=47, velocity=127, time=1),
    Message('note_on', channel=2, note=50, velocity=127, time=0),
    Message('note_on', channel=2, note=62, velocity=127, time=0),
    Message('note_on', channel=2, note=67, velocity=127, time=0),
    Message('note_on', channel=2, note=67, velocity=0, time=119),
    Message('note_on', channel=2, note=47, velocity=0, time=0),
    Message('note_on', channel=2, note=50, velocity=0, time=0),
    Message('note_on', channel=2, note=62, velocity=0, time=0),
    Message('note_on', channel=2, note=47, velocity=127, time=1),
    Message('note_on', channel=2, note=50, velocity=127, time=0),
    Message('note_on', channel=2, note=62, velocity=127, time=0),
    Message('note_on', channel=2, note=67, velocity=127, time=0),
    Message('note_on', channel=2, note=67, velocity=0, time=59),
    Message('note_on', channel=2, note=47, velocity=0, time=0),
    Message('note_on', channel=2, note=50, velocity=0, time=0),
    Message('note_on', channel=2, note=62, velocity=0, time=0),
    Message('note_on', channel=2, note=47, velocity=127, time=1),
    Message('note_on', channel=2, note=50, velocity=127, time=0),
    Message('note_on', channel=2, note=62, velocity=127, time=0),
    Message('note_on', channel=2, note=67, velocity=127, time=0),
    Message('note_on', channel=2, note=67, velocity=0, time=59),
    Message('note_on', channel=2, note=47, velocity=0, time=0),
    Message('note_on', channel=2, note=50, velocity=0, time=0),
    Message('note_on', channel=2, note=62, velocity=0, time=0),
    Message('note_on', channel=2, note=47, velocity=127, time=1),
    Message('note_on', channel=2, note=50, velocity=127, time=0),
    Message('note_on', channel=2, note=62, velocity=127, time=0),
    Message('note_on', channel=2, note=67, velocity=127, time=0),
    Message('note_on', channel=2, note=67, velocity=0, time=59),
    Message('note_on', channel=2, note=47, velocity=0, time=0),
    Message('note_on', channel=2, note=50, velocity=0, time=0),
    Message('note_on', channel=2, note=62, velocity=0, time=0),
    Message('note_on', channel=2, note=65, velocity=127, time=1),
    Message('note_on', channel=2, note=60, velocity=127, time=0),
    Message('note_on', channel=2, note=50, velocity=127, time=0),
    Message('note_on', channel=2, note=45, velocity=127, time=0),
    Message('note_on', channel=2, note=45, velocity=0, time=179),
    Message('note_on', channel=2, note=65, velocity=0, time=0),
    Message('note_on', channel=2, note=60, velocity=0, time=0),
    Message('note_on', channel=2, note=50, velocity=0, time=0),
    Message('note_on', channel=2, note=65, velocity=127, time=1),
    Message('note_on', channel=2, note=60, velocity=127, time=0),
    Message('note_on', channel=2, note=50, velocity=127, time=0),
    Message('note_on', channel=2, note=45, velocity=127, time=0),
    Message('note_on', channel=2, note=45, velocity=0, time=119),
    Message('note_on', channel=2, note=65, velocity=0, time=0),
    Message('note_on', channel=2, note=60, velocity=0, time=0),
    Message('note_on', channel=2, note=50, velocity=0, time=0),
    Message('note_on', channel=2, note=45, velocity=127, time=1),
    Message('note_on', channel=2, note=50, velocity=127, time=0),
    Message('note_on', channel=2, note=60, velocity=127, time=0),
    Message('note_on', channel=2, note=65, velocity=127, time=0),
    Message('note_on', channel=2, note=65, velocity=0, time=119),
    Message('note_on', channel=2, note=45, velocity=0, time=0),
    Message('note_on', channel=2, note=50, velocity=0, time=0),
    Message('note_on', channel=2, note=60, velocity=0, time=0),
    Message('note_on', channel=2, note=45, velocity=127, time=1),
    Message('note_on', channel=2, note=50, velocity=127, time=0),
    Message('note_on', channel=2, note=65, velocity=127, time=0),
    Message('note_on', channel=2, note=60, velocity=127, time=0),
    Message('note_on', channel=2, note=60, velocity=0, time=59),
    Message('note_on', channel=2, note=45, velocity=0, time=0),
    Message('note_on', channel=2, note=50, velocity=0, time=0),
    Message('note_on', channel=2, note=65, velocity=0, time=0),
    Message('note_on', channel=2, note=47, velocity=127, time=1),
    Message('note_on', channel=2, note=62, velocity=127, time=0),
    Message('note_on', channel=2, note=67, velocity=127, time=0),
    Message('note_on', channel=2, note=50, velocity=127, time=0),
    Message('note_on', channel=2, note=50, velocity=0, time=179),
    Message('note_on', channel=2, note=47, velocity=0, time=0),
    Message('note_on', channel=2, note=62, velocity=0, time=0),
    Message('note_on', channel=2, note=67, velocity=0, time=0),
    Message('note_on', channel=2, note=47, velocity=127, time=1),
    Message('note_on', channel=2, note=50, velocity=127, time=0),
    Message('note_on', channel=2, note=62, velocity=127, time=0),
    Message('note_on', channel=2, note=67, velocity=127, time=0),
    Message('note_on', channel=2, note=67, velocity=0, time=119),
    Message('note_on', channel=2, note=47, velocity=0, time=0),
    Message('note_on', channel=2, note=50, velocity=0, time=0),
    Message('note_on', channel=2, note=62, velocity=0, time=0),
    Message('note_on', channel=2, note=47, velocity=127, time=1),
    Message('note_on', channel=2, note=50, velocity=127, time=0),
    Message('note_on', channel=2, note=62, velocity=127, time=0),
    Message('note_on', channel=2, note=67, velocity=127, time=0),
    Message('note_on', channel=2, note=67, velocity=0, time=59),
    Message('note_on', channel=2, note=47, velocity=0, time=0),
    Message('note_on', channel=2, note=50, velocity=0, time=0),
    Message('note_on', channel=2, note=62, velocity=0, time=0),
    Message('note_on', channel=2, note=47, velocity=127, time=1),
    Message('note_on', channel=2, note=50, velocity=127, time=0),
    Message('note_on', channel=2, note=62, velocity=127, time=0),
    Message('note_on', channel=2, note=67, velocity=127, time=0),
    Message('note_on', channel=2, note=67, velocity=0, time=59),
    Message('note_on', channel=2, note=47, velocity=0, time=0),
    Message('note_on', channel=2, note=50, velocity=0, time=0),
    Message('note_on', channel=2, note=62, velocity=0, time=0),
    Message('note_on', channel=2, note=47, velocity=127, time=1),
    Message('note_on', channel=2, note=50, velocity=127, time=0),
    Message('note_on', channel=2, note=62, velocity=127, time=0),
    Message('note_on', channel=2, note=67, velocity=127, time=0),
    Message('note_on', channel=2, note=67, velocity=0, time=59),
    Message('note_on', channel=2, note=47, velocity=0, time=0),
    Message('note_on', channel=2, note=50, velocity=0, time=0),
    Message('note_on', channel=2, note=62, velocity=0, time=0),
    Message('note_on', channel=2, note=62, velocity=127, time=1),
    Message('note_on', channel=2, note=50, velocity=127, time=0),
    Message('note_on', channel=2, note=47, velocity=127, time=0),
    Message('note_on', channel=2, note=67, velocity=127, time=0),
    Message('note_on', channel=2, note=67, velocity=0, time=59),
    Message('note_on', channel=2, note=62, velocity=0, time=0),
    Message('note_on', channel=2, note=50, velocity=0, time=0),
    Message('note_on', channel=2, note=47, velocity=0, time=0),
    Message('note_on', channel=2, note=62, velocity=127, time=1),
    Message('note_on', channel=2, note=50, velocity=127, time=0),
    Message('note_on', channel=2, note=47, velocity=127, time=0),
    Message('note_on', channel=2, note=67, velocity=127, time=0),
    Message('note_on', channel=2, note=67, velocity=0, time=59),
    Message('note_on', channel=2, note=62, velocity=0, time=0),
    Message('note_on', channel=2, note=50, velocity=0, time=0),
    Message('note_on', channel=2, note=47, velocity=0, time=0),
    Message('note_on', channel=2, note=62, velocity=127, time=1),
    Message('note_on', channel=2, note=50, velocity=127, time=0),
    Message('note_on', channel=2, note=47, velocity=127, time=0),
    Message('note_on', channel=2, note=67, velocity=127, time=0),
    Message('note_on', channel=2, note=67, velocity=0, time=59),
    Message('note_on', channel=2, note=62, velocity=0, time=0),
    Message('note_on', channel=2, note=50, velocity=0, time=0),
    Message('note_on', channel=2, note=47, velocity=0, time=0),
    Message('note_on', channel=2, note=47, velocity=127, time=1),
    Message('note_on', channel=2, note=50, velocity=127, time=0),
    Message('note_on', channel=2, note=62, velocity=127, time=0),
    Message('note_on', channel=2, note=67, velocity=127, time=0),
    Message('note_on', channel=2, note=67, velocity=0, time=119),
    Message('note_on', channel=2, note=47, velocity=0, time=0),
    Message('note_on', channel=2, note=50, velocity=0, time=0),
    Message('note_on', channel=2, note=62, velocity=0, time=0),
    Message('note_on', channel=2, note=47, velocity=127, time=1),
    Message('note_on', channel=2, note=50, velocity=127, time=0),
    Message('note_on', channel=2, note=62, velocity=127, time=0),
    Message('note_on', channel=2, note=67, velocity=127, time=0),
    Message('note_on', channel=2, note=67, velocity=0, time=59),
    Message('note_on', channel=2, note=47, velocity=0, time=0),
    Message('note_on', channel=2, note=50, velocity=0, time=0),
    Message('note_on', channel=2, note=62, velocity=0, time=0),
    Message('note_on', channel=2, note=47, velocity=127, time=1),
    Message('note_on', channel=2, note=50, velocity=127, time=0),
    Message('note_on', channel=2, note=62, velocity=127, time=0),
    Message('note_on', channel=2, note=67, velocity=127, time=0),
    Message('note_on', channel=2, note=67, velocity=0, time=59),
    Message('note_on', channel=2, note=47, velocity=0, time=0),
    Message('note_on', channel=2, note=50, velocity=0, time=0),
    Message('note_on', channel=2, note=62, velocity=0, time=0),
    Message('note_on', channel=2, note=47, velocity=127, time=1),
    Message('note_on', channel=2, note=50, velocity=127, time=0),
    Message('note_on', channel=2, note=62, velocity=127, time=0),
    Message('note_on', channel=2, note=67, velocity=127, time=0),
    Message('note_on', channel=2, note=67, velocity=0, time=59),
    Message('note_on', channel=2, note=47, velocity=0, time=0),
    Message('note_on', channel=2, note=50, velocity=0, time=0),
    Message('note_on', channel=2, note=62, velocity=0, time=0),
    Message('note_on', channel=2, note=50, velocity=127, time=1),
    Message('note_on', channel=2, note=66, velocity=127, time=0),
    Message('note_on', channel=2, note=62, velocity=127, time=0),
    Message('note_on', channel=2, note=57, velocity=127, time=0),
    Message('note_on', channel=2, note=57, velocity=0, time=179),
    Message('note_on', channel=2, note=50, velocity=0, time=0),
    Message('note_on', channel=2, note=66, velocity=0, time=0),
    Message('note_on', channel=2, note=62, velocity=0, time=0),
    Message('note_on', channel=2, note=50, velocity=127, time=1),
    Message('note_on', channel=2, note=66, velocity=127, time=0),
    Message('note_on', channel=2, note=57, velocity=127, time=0),
    Message('note_on', channel=2, note=62, velocity=127, time=0),
    Message('note_on', channel=2, note=62, velocity=0, time=119),
    Message('note_on', channel=2, note=50, velocity=0, time=0),
    Message('note_on', channel=2, note=66, velocity=0, time=0),
    Message('note_on', channel=2, note=57, velocity=0, time=0),
    Message('note_on', channel=2, note=57, velocity=127, time=1),
    Message('note_on', channel=2, note=62, velocity=127, time=0),
    Message('note_on', channel=2, note=64, velocity=127, time=0),
    Message('note_on', channel=2, note=50, velocity=127, time=0),
    Message('note_on', channel=2, note=45, velocity=127, time=120),
    Message('note_on', channel=2, note=45, velocity=0, time=59),
    Message('note_on', channel=2, note=64, velocity=0, time=0),
    Message('note_on', channel=2, note=57, velocity=0, time=0),
    Message('note_on', channel=2, note=62, velocity=0, time=0),
    Message('note_on', channel=2, note=50, velocity=0, time=0),
    Message('note_on', channel=2, note=61, velocity=127, time=1),
    Message('note_on', channel=2, note=57, velocity=127, time=0),
    Message('note_on', channel=2, note=52, velocity=127, time=0),
    Message('note_on', channel=2, note=45, velocity=127, time=0),
    Message('note_on', channel=2, note=45, velocity=0, time=119),
    Message('note_on', channel=2, note=61, velocity=0, time=0),
    Message('note_on', channel=2, note=57, velocity=0, time=0),
    Message('note_on', channel=2, note=52, velocity=0, time=0),
    Message('note_on', channel=2, note=61, velocity=127, time=1),
    Message('note_on', channel=2, note=57, velocity=127, time=0),
    Message('note_on', channel=2, note=52, velocity=127, time=0),
    Message('note_on', channel=2, note=45, velocity=127, time=0),
    Message('note_on', channel=2, note=45, velocity=0, time=59),
    Message('note_on', channel=2, note=61, velocity=0, time=0),
    Message('note_on', channel=2, note=57, velocity=0, time=0),
    Message('note_on', channel=2, note=52, velocity=0, time=0),
    Message('note_on', channel=2, note=45, velocity=127, time=1),
    Message('note_on', channel=2, note=52, velocity=127, time=0),
    Message('note_on', channel=2, note=61, velocity=127, time=0),
    Message('note_on', channel=2, note=57, velocity=127, time=0),
    Message('note_on', channel=2, note=57, velocity=0, time=59),
    Message('note_on', channel=2, note=45, velocity=0, time=0),
    Message('note_on', channel=2, note=52, velocity=0, time=0),
    Message('note_on', channel=2, note=61, velocity=0, time=0),
    Message('note_on', channel=2, note=43, velocity=127, time=1),
    Message('note_on', channel=2, note=67, velocity=127, time=0),
    Message('note_on', channel=2, note=62, velocity=127, time=0),
    Message('note_on', channel=2, note=55, velocity=127, time=0),
    Message('note_on', channel=2, note=50, velocity=127, time=0),
    Message('note_on', channel=2, note=47, velocity=127, time=0),
    Message('note_on', channel=2, note=47, velocity=0, time=119),
    Message('note_on', channel=2, note=67, velocity=0, time=0),
    Message('note_on', channel=2, note=62, velocity=0, time=0),
    Message('note_on', channel=2, note=43, velocity=0, time=0),
    Message('note_on', channel=2, note=50, velocity=0, time=0),
    Message('note_on', channel=2, note=55, velocity=0, time=0),
    Message('note_on', channel=2, note=67, velocity=127, time=1),
    Message('note_on', channel=2, note=62, velocity=127, time=0),
    Message('note_on', channel=2, note=55, velocity=127, time=0),
    Message('note_on', channel=2, note=50, velocity=127, time=0),
    Message('note_on', channel=2, note=47, velocity=127, time=0),
    Message('note_on', channel=2, note=43, velocity=127, time=0),
    Message('note_on', channel=2, note=43, velocity=0, time=59),
    Message('note_on', channel=2, note=62, velocity=0, time=0),
    Message('note_on', channel=2, note=55, velocity=0, time=0),
    Message('note_on', channel=2, note=67, velocity=0, time=0),
    Message('note_on', channel=2, note=47, velocity=0, time=0),
    Message('note_on', channel=2, note=50, velocity=0, time=0),
    Message('note_on', channel=2, note=67, velocity=127, time=1),
    Message('note_on', channel=2, note=62, velocity=127, time=0),
    Message('note_on', channel=2, note=55, velocity=127, time=0),
    Message('note_on', channel=2, note=50, velocity=127, time=0),
    Message('note_on', channel=2, note=47, velocity=127, time=0),
    Message('note_on', channel=2, note=43, velocity=127, time=0),
    Message('note_on', channel=2, note=43, velocity=0, time=59),
    Message('note_on', channel=2, note=62, velocity=0, time=0),
    Message('note_on', channel=2, note=55, velocity=0, time=0),
    Message('note_on', channel=2, note=67, velocity=0, time=0),
    Message('note_on', channel=2, note=47, velocity=0, time=0),
    Message('note_on', channel=2, note=50, velocity=0, time=0),
    Message('note_on', channel=2, note=50, velocity=127, time=1),
    Message('note_on', channel=2, note=66, velocity=127, time=0),
    Message('note_on', channel=2, note=62, velocity=127, time=0),
    Message('note_on', channel=2, note=57, velocity=127, time=0),
    Message('note_on', channel=2, note=57, velocity=0, time=179),
    Message('note_on', channel=2, note=50, velocity=0, time=0),
    Message('note_on', channel=2, note=66, velocity=0, time=0),
    Message('note_on', channel=2, note=62, velocity=0, time=0),
    Message('note_on', channel=2, note=50, velocity=127, time=1),
    Message('note_on', channel=2, note=66, velocity=127, time=0),
    Message('note_on', channel=2, note=57, velocity=127, time=0),
    Message('note_on', channel=2, note=62, velocity=127, time=0),
    Message('note_on', channel=2, note=62, velocity=0, time=119),
    Message('note_on', channel=2, note=50, velocity=0, time=0),
    Message('note_on', channel=2, note=66, velocity=0, time=0),
    Message('note_on', channel=2, note=57, velocity=0, time=0),
    Message('note_on', channel=2, note=57, velocity=127, time=1),
    Message('note_on', channel=2, note=62, velocity=127, time=0),
    Message('note_on', channel=2, note=64, velocity=127, time=0),
    Message('note_on', channel=2, note=50, velocity=127, time=0),
    Message('note_on', channel=2, note=45, velocity=127, time=120),
    Message('note_on', channel=2, note=45, velocity=0, time=59),
    Message('note_on', channel=2, note=64, velocity=0, time=0),
    Message('note_on', channel=2, note=57, velocity=0, time=0),
    Message('note_on', channel=2, note=62, velocity=0, time=0),
    Message('note_on', channel=2, note=50, velocity=0, time=0),
    Message('note_on', channel=2, note=61, velocity=127, time=1),
    Message('note_on', channel=2, note=57, velocity=127, time=0),
    Message('note_on', channel=2, note=52, velocity=127, time=0),
    Message('note_on', channel=2, note=45, velocity=127, time=0),
    Message('note_on', channel=2, note=45, velocity=0, time=119),
    Message('note_on', channel=2, note=61, velocity=0, time=0),
    Message('note_on', channel=2, note=57, velocity=0, time=0),
    Message('note_on', channel=2, note=52, velocity=0, time=0),
    Message('note_on', channel=2, note=61, velocity=127, time=1),
    Message('note_on', channel=2, note=57, velocity=127, time=0),
    Message('note_on', channel=2, note=52, velocity=127, time=0),
    Message('note_on', channel=2, note=45, velocity=127, time=0),
    Message('note_on', channel=2, note=45, velocity=0, time=59),
    Message('note_on', channel=2, note=61, velocity=0, time=0),
    Message('note_on', channel=2, note=57, velocity=0, time=0),
    Message('note_on', channel=2, note=52, velocity=0, time=0),
    Message('note_on', channel=2, note=45, velocity=127, time=1),
    Message('note_on', channel=2, note=52, velocity=127, time=0),
    Message('note_on', channel=2, note=61, velocity=127, time=0),
    Message('note_on', channel=2, note=57, velocity=127, time=0),
    Message('note_on', channel=2, note=57, velocity=0, time=59),
    Message('note_on', channel=2, note=45, velocity=0, time=0),
    Message('note_on', channel=2, note=52, velocity=0, time=0),
    Message('note_on', channel=2, note=61, velocity=0, time=0),
    Message('note_on', channel=2, note=43, velocity=127, time=1),
    Message('note_on', channel=2, note=67, velocity=127, time=0),
    Message('note_on', channel=2, note=62, velocity=127, time=0),
    Message('note_on', channel=2, note=55, velocity=127, time=0),
    Message('note_on', channel=2, note=50, velocity=127, time=0),
    Message('note_on', channel=2, note=47, velocity=127, time=0),
    Message('note_on', channel=2, note=47, velocity=0, time=119),
    Message('note_on', channel=2, note=67, velocity=0, time=0),
    Message('note_on', channel=2, note=62, velocity=0, time=0),
    Message('note_on', channel=2, note=43, velocity=0, time=0),
    Message('note_on', channel=2, note=50, velocity=0, time=0),
    Message('note_on', channel=2, note=55, velocity=0, time=0),
    Message('note_on', channel=2, note=67, velocity=127, time=1),
    Message('note_on', channel=2, note=62, velocity=127, time=0),
    Message('note_on', channel=2, note=55, velocity=127, time=0),
    Message('note_on', channel=2, note=50, velocity=127, time=0),
    Message('note_on', channel=2, note=47, velocity=127, time=0),
    Message('note_on', channel=2, note=43, velocity=127, time=0),
    Message('note_on', channel=2, note=43, velocity=0, time=59),
    Message('note_on', channel=2, note=62, velocity=0, time=0),
    Message('note_on', channel=2, note=55, velocity=0, time=0),
    Message('note_on', channel=2, note=67, velocity=0, time=0),
    Message('note_on', channel=2, note=47, velocity=0, time=0),
    Message('note_on', channel=2, note=50, velocity=0, time=0),
    Message('note_on', channel=2, note=67, velocity=127, time=1),
    Message('note_on', channel=2, note=62, velocity=127, time=0),
    Message('note_on', channel=2, note=55, velocity=127, time=0),
    Message('note_on', channel=2, note=50, velocity=127, time=0),
    Message('note_on', channel=2, note=47, velocity=127, time=0),
    Message('note_on', channel=2, note=43, velocity=127, time=0),
    Message('note_on', channel=2, note=43, velocity=0, time=59),
    Message('note_on', channel=2, note=62, velocity=0, time=0),
    Message('note_on', channel=2, note=55, velocity=0, time=0),
    Message('note_on', channel=2, note=67, velocity=0, time=0),
    Message('note_on', channel=2, note=47, velocity=0, time=0),
    Message('note_on', channel=2, note=50, velocity=0, time=0),
    Message('note_on', channel=2, note=50, velocity=127, time=1),
    Message('note_on', channel=2, note=66, velocity=127, time=0),
    Message('note_on', channel=2, note=62, velocity=127, time=0),
    Message('note_on', channel=2, note=57, velocity=127, time=0),
    Message('note_on', channel=2, note=57, velocity=0, time=179),
    Message('note_on', channel=2, note=50, velocity=0, time=0),
    Message('note_on', channel=2, note=66, velocity=0, time=0),
    Message('note_on', channel=2, note=62, velocity=0, time=0),
    Message('note_on', channel=2, note=50, velocity=127, time=1),
    Message('note_on', channel=2, note=66, velocity=127, time=0),
    Message('note_on', channel=2, note=57, velocity=127, time=0),
    Message('note_on', channel=2, note=62, velocity=127, time=0),
    Message('note_on', channel=2, note=62, velocity=0, time=119),
    Message('note_on', channel=2, note=50, velocity=0, time=0),
    Message('note_on', channel=2, note=66, velocity=0, time=0),
    Message('note_on', channel=2, note=57, velocity=0, time=0),
    Message('note_on', channel=2, note=57, velocity=127, time=1),
    Message('note_on', channel=2, note=62, velocity=127, time=0),
    Message('note_on', channel=2, note=64, velocity=127, time=0),
    Message('note_on', channel=2, note=50, velocity=127, time=0),
    Message('note_on', channel=2, note=45, velocity=127, time=120),
    Message('note_on', channel=2, note=45, velocity=0, time=59),
    Message('note_on', channel=2, note=64, velocity=0, time=0),
    Message('note_on', channel=2, note=57, velocity=0, time=0),
    Message('note_on', channel=2, note=62, velocity=0, time=0),
    Message('note_on', channel=2, note=50, velocity=0, time=0),
    Message('note_on', channel=2, note=61, velocity=127, time=1),
    Message('note_on', channel=2, note=57, velocity=127, time=0),
    Message('note_on', channel=2, note=52, velocity=127, time=0),
    Message('note_on', channel=2, note=45, velocity=127, time=0),
    Message('note_on', channel=2, note=45, velocity=0, time=119),
    Message('note_on', channel=2, note=61, velocity=0, time=0),
    Message('note_on', channel=2, note=57, velocity=0, time=0),
    Message('note_on', channel=2, note=52, velocity=0, time=0),
    Message('note_on', channel=2, note=61, velocity=127, time=1),
    Message('note_on', channel=2, note=57, velocity=127, time=0),
    Message('note_on', channel=2, note=52, velocity=127, time=0),
    Message('note_on', channel=2, note=45, velocity=127, time=0),
    Message('note_on', channel=2, note=45, velocity=0, time=59),
    Message('note_on', channel=2, note=61, velocity=0, time=0),
    Message('note_on', channel=2, note=57, velocity=0, time=0),
    Message('note_on', channel=2, note=52, velocity=0, time=0),
    Message('note_on', channel=2, note=45, velocity=127, time=1),
    Message('note_on', channel=2, note=52, velocity=127, time=0),
    Message('note_on', channel=2, note=61, velocity=127, time=0),
    Message('note_on', channel=2, note=57, velocity=127, time=0),
    Message('note_on', channel=2, note=57, velocity=0, time=59),
    Message('note_on', channel=2, note=45, velocity=0, time=0),
    Message('note_on', channel=2, note=52, velocity=0, time=0),
    Message('note_on', channel=2, note=61, velocity=0, time=0),
    Message('note_on', channel=2, note=43, velocity=127, time=1),
    Message('note_on', channel=2, note=67, velocity=127, time=0),
    Message('note_on', channel=2, note=62, velocity=127, time=0),
    Message('note_on', channel=2, note=55, velocity=127, time=0),
    Message('note_on', channel=2, note=50, velocity=127, time=0),
    Message('note_on', channel=2, note=47, velocity=127, time=0),
    Message('note_on', channel=2, note=47, velocity=0, time=119),
    Message('note_on', channel=2, note=67, velocity=0, time=0),
    Message('note_on', channel=2, note=62, velocity=0, time=0),
    Message('note_on', channel=2, note=43, velocity=0, time=0),
    Message('note_on', channel=2, note=50, velocity=0, time=0),
    Message('note_on', channel=2, note=55, velocity=0, time=0),
    Message('note_on', channel=2, note=67, velocity=127, time=1),
    Message('note_on', channel=2, note=62, velocity=127, time=0),
    Message('note_on', channel=2, note=55, velocity=127, time=0),
    Message('note_on', channel=2, note=50, velocity=127, time=0),
    Message('note_on', channel=2, note=47, velocity=127, time=0),
    Message('note_on', channel=2, note=43, velocity=127, time=0),
    Message('note_on', channel=2, note=43, velocity=0, time=59),
    Message('note_on', channel=2, note=62, velocity=0, time=0),
    Message('note_on', channel=2, note=55, velocity=0, time=0),
    Message('note_on', channel=2, note=67, velocity=0, time=0),
    Message('note_on', channel=2, note=47, velocity=0, time=0),
    Message('note_on', channel=2, note=50, velocity=0, time=0),
    Message('note_on', channel=2, note=67, velocity=127, time=1),
    Message('note_on', channel=2, note=62, velocity=127, time=0),
    Message('note_on', channel=2, note=55, velocity=127, time=0),
    Message('note_on', channel=2, note=50, velocity=127, time=0),
    Message('note_on', channel=2, note=47, velocity=127, time=0),
    Message('note_on', channel=2, note=43, velocity=127, time=0),
    Message('note_on', channel=2, note=43, velocity=0, time=59),
    Message('note_on', channel=2, note=62, velocity=0, time=0),
    Message('note_on', channel=2, note=55, velocity=0, time=0),
    Message('note_on', channel=2, note=67, velocity=0, time=0),
    Message('note_on', channel=2, note=47, velocity=0, time=0),
    Message('note_on', channel=2, note=50, velocity=0, time=0),
    Message('note_on', channel=2, note=50, velocity=127, time=1),
    Message('note_on', channel=2, note=66, velocity=127, time=0),
    Message('note_on', channel=2, note=62, velocity=127, time=0),
    Message('note_on', channel=2, note=57, velocity=127, time=0),
    Message('note_on', channel=2, note=57, velocity=0, time=179),
    Message('note_on', channel=2, note=50, velocity=0, time=0),
    Message('note_on', channel=2, note=66, velocity=0, time=0),
    Message('note_on', channel=2, note=62, velocity=0, time=0),
    Message('note_on', channel=2, note=50, velocity=127, time=1),
    Message('note_on', channel=2, note=66, velocity=127, time=0),
    Message('note_on', channel=2, note=57, velocity=127, time=0),
    Message('note_on', channel=2, note=62, velocity=127, time=0),
    Message('note_on', channel=2, note=62, velocity=0, time=119),
    Message('note_on', channel=2, note=50, velocity=0, time=0),
    Message('note_on', channel=2, note=66, velocity=0, time=0),
    Message('note_on', channel=2, note=57, velocity=0, time=0),
    Message('note_on', channel=2, note=57, velocity=127, time=1),
    Message('note_on', channel=2, note=62, velocity=127, time=0),
    Message('note_on', channel=2, note=64, velocity=127, time=0),
    Message('note_on', channel=2, note=50, velocity=127, time=0),
    Message('note_on', channel=2, note=45, velocity=127, time=120),
    Message('note_on', channel=2, note=45, velocity=0, time=59),
    Message('note_on', channel=2, note=64, velocity=0, time=0),
    Message('note_on', channel=2, note=57, velocity=0, time=0),
    Message('note_on', channel=2, note=62, velocity=0, time=0),
    Message('note_on', channel=2, note=50, velocity=0, time=0),
    Message('note_on', channel=2, note=61, velocity=127, time=1),
    Message('note_on', channel=2, note=57, velocity=127, time=0),
    Message('note_on', channel=2, note=52, velocity=127, time=0),
    Message('note_on', channel=2, note=45, velocity=127, time=0),
    Message('note_on', channel=2, note=45, velocity=0, time=119),
    Message('note_on', channel=2, note=61, velocity=0, time=0),
    Message('note_on', channel=2, note=57, velocity=0, time=0),
    Message('note_on', channel=2, note=52, velocity=0, time=0),
    Message('note_on', channel=2, note=61, velocity=127, time=1),
    Message('note_on', channel=2, note=57, velocity=127, time=0),
    Message('note_on', channel=2, note=52, velocity=127, time=0),
    Message('note_on', channel=2, note=45, velocity=127, time=0),
    Message('note_on', channel=2, note=45, velocity=0, time=59),
    Message('note_on', channel=2, note=61, velocity=0, time=0),
    Message('note_on', channel=2, note=57, velocity=0, time=0),
    Message('note_on', channel=2, note=52, velocity=0, time=0),
    Message('note_on', channel=2, note=45, velocity=127, time=1),
    Message('note_on', channel=2, note=52, velocity=127, time=0),
    Message('note_on', channel=2, note=61, velocity=127, time=0),
    Message('note_on', channel=2, note=57, velocity=127, time=0),
    Message('note_on', channel=2, note=57, velocity=0, time=59),
    Message('note_on', channel=2, note=45, velocity=0, time=0),
    Message('note_on', channel=2, note=52, velocity=0, time=0),
    Message('note_on', channel=2, note=61, velocity=0, time=0),
    Message('note_on', channel=2, note=43, velocity=127, time=1),
    Message('note_on', channel=2, note=67, velocity=127, time=0),
    Message('note_on', channel=2, note=62, velocity=127, time=0),
    Message('note_on', channel=2, note=55, velocity=127, time=0),
    Message('note_on', channel=2, note=50, velocity=127, time=0),
    Message('note_on', channel=2, note=47, velocity=127, time=0),
    Message('note_on', channel=2, note=47, velocity=0, time=119),
    Message('note_on', channel=2, note=67, velocity=0, time=0),
    Message('note_on', channel=2, note=62, velocity=0, time=0),
    Message('note_on', channel=2, note=43, velocity=0, time=0),
    Message('note_on', channel=2, note=50, velocity=0, time=0),
    Message('note_on', channel=2, note=55, velocity=0, time=0),
    Message('note_on', channel=2, note=67, velocity=127, time=1),
    Message('note_on', channel=2, note=62, velocity=127, time=0),
    Message('note_on', channel=2, note=55, velocity=127, time=0),
    Message('note_on', channel=2, note=50, velocity=127, time=0),
    Message('note_on', channel=2, note=47, velocity=127, time=0),
    Message('note_on', channel=2, note=43, velocity=127, time=0),
    Message('note_on', channel=2, note=43, velocity=0, time=59),
    Message('note_on', channel=2, note=62, velocity=0, time=0),
    Message('note_on', channel=2, note=55, velocity=0, time=0),
    Message('note_on', channel=2, note=67, velocity=0, time=0),
    Message('note_on', channel=2, note=47, velocity=0, time=0),
    Message('note_on', channel=2, note=50, velocity=0, time=0),
    Message('note_on', channel=2, note=67, velocity=127, time=1),
    Message('note_on', channel=2, note=62, velocity=127, time=0),
    Message('note_on', channel=2, note=55, velocity=127, time=0),
    Message('note_on', channel=2, note=50, velocity=127, time=0),
    Message('note_on', channel=2, note=47, velocity=127, time=0),
    Message('note_on', channel=2, note=43, velocity=127, time=0),
    Message('note_on', channel=2, note=43, velocity=0, time=59),
    Message('note_on', channel=2, note=62, velocity=0, time=0),
    Message('note_on', channel=2, note=55, velocity=0, time=0),
    Message('note_on', channel=2, note=67, velocity=0, time=0),
    Message('note_on', channel=2, note=47, velocity=0, time=0),
    Message('note_on', channel=2, note=50, velocity=0, time=0),
    Message('note_on', channel=2, note=50, velocity=127, time=1),
    Message('note_on', channel=2, note=66, velocity=127, time=0),
    Message('note_on', channel=2, note=62, velocity=127, time=0),
    Message('note_on', channel=2, note=57, velocity=127, time=0),
    Message('note_on', channel=2, note=57, velocity=0, time=179),
    Message('note_on', channel=2, note=50, velocity=0, time=0),
    Message('note_on', channel=2, note=66, velocity=0, time=0),
    Message('note_on', channel=2, note=62, velocity=0, time=0),
    Message('note_on', channel=2, note=50, velocity=127, time=1),
    Message('note_on', channel=2, note=66, velocity=127, time=0),
    Message('note_on', channel=2, note=57, velocity=127, time=0),
    Message('note_on', channel=2, note=62, velocity=127, time=0),
    Message('note_on', channel=2, note=62, velocity=0, time=119),
    Message('note_on', channel=2, note=50, velocity=0, time=0),
    Message('note_on', channel=2, note=66, velocity=0, time=0),
    Message('note_on', channel=2, note=57, velocity=0, time=0),
    Message('note_on', channel=2, note=57, velocity=127, time=1),
    Message('note_on', channel=2, note=62, velocity=127, time=0),
    Message('note_on', channel=2, note=64, velocity=127, time=0),
    Message('note_on', channel=2, note=50, velocity=127, time=0),
    Message('note_on', channel=2, note=45, velocity=127, time=120),
    Message('note_on', channel=2, note=45, velocity=0, time=59),
    Message('note_on', channel=2, note=64, velocity=0, time=0),
    Message('note_on', channel=2, note=57, velocity=0, time=0),
    Message('note_on', channel=2, note=62, velocity=0, time=0),
    Message('note_on', channel=2, note=50, velocity=0, time=0),
    Message('note_on', channel=2, note=61, velocity=127, time=1),
    Message('note_on', channel=2, note=57, velocity=127, time=0),
    Message('note_on', channel=2, note=52, velocity=127, time=0),
    Message('note_on', channel=2, note=45, velocity=127, time=0),
    Message('note_on', channel=2, note=45, velocity=0, time=119),
    Message('note_on', channel=2, note=61, velocity=0, time=0),
    Message('note_on', channel=2, note=57, velocity=0, time=0),
    Message('note_on', channel=2, note=52, velocity=0, time=0),
    Message('note_on', channel=2, note=61, velocity=127, time=1),
    Message('note_on', channel=2, note=57, velocity=127, time=0),
    Message('note_on', channel=2, note=52, velocity=127, time=0),
    Message('note_on', channel=2, note=45, velocity=127, time=0),
    Message('note_on', channel=2, note=45, velocity=0, time=59),
    Message('note_on', channel=2, note=61, velocity=0, time=0),
    Message('note_on', channel=2, note=57, velocity=0, time=0),
    Message('note_on', channel=2, note=52, velocity=0, time=0),
    Message('note_on', channel=2, note=45, velocity=127, time=1),
    Message('note_on', channel=2, note=52, velocity=127, time=0),
    Message('note_on', channel=2, note=61, velocity=127, time=0),
    Message('note_on', channel=2, note=57, velocity=127, time=0),
    Message('note_on', channel=2, note=57, velocity=0, time=59),
    Message('note_on', channel=2, note=45, velocity=0, time=0),
    Message('note_on', channel=2, note=52, velocity=0, time=0),
    Message('note_on', channel=2, note=61, velocity=0, time=0),
    Message('note_on', channel=2, note=43, velocity=127, time=1),
    Message('note_on', channel=2, note=67, velocity=127, time=0),
    Message('note_on', channel=2, note=62, velocity=127, time=0),
    Message('note_on', channel=2, note=55, velocity=127, time=0),
    Message('note_on', channel=2, note=50, velocity=127, time=0),
    Message('note_on', channel=2, note=47, velocity=127, time=0),
    Message('note_on', channel=2, note=47, velocity=0, time=119),
    Message('note_on', channel=2, note=67, velocity=0, time=0),
    Message('note_on', channel=2, note=62, velocity=0, time=0),
    Message('note_on', channel=2, note=43, velocity=0, time=0),
    Message('note_on', channel=2, note=50, velocity=0, time=0),
    Message('note_on', channel=2, note=55, velocity=0, time=0),
    Message('note_on', channel=2, note=67, velocity=127, time=1),
    Message('note_on', channel=2, note=62, velocity=127, time=0),
    Message('note_on', channel=2, note=55, velocity=127, time=0),
    Message('note_on', channel=2, note=50, velocity=127, time=0),
    Message('note_on', channel=2, note=47, velocity=127, time=0),
    Message('note_on', channel=2, note=43, velocity=127, time=0),
    Message('note_on', channel=2, note=43, velocity=0, time=59),
    Message('note_on', channel=2, note=62, velocity=0, time=0),
    Message('note_on', channel=2, note=55, velocity=0, time=0),
    Message('note_on', channel=2, note=67, velocity=0, time=0),
    Message('note_on', channel=2, note=47, velocity=0, time=0),
    Message('note_on', channel=2, note=50, velocity=0, time=0),
    Message('note_on', channel=2, note=67, velocity=127, time=1),
    Message('note_on', channel=2, note=62, velocity=127, time=0),
    Message('note_on', channel=2, note=55, velocity=127, time=0),
    Message('note_on', channel=2, note=50, velocity=127, time=0),
    Message('note_on', channel=2, note=47, velocity=127, time=0),
    Message('note_on', channel=2, note=43, velocity=127, time=0),
    Message('note_on', channel=2, note=43, velocity=0, time=59),
    Message('note_on', channel=2, note=62, velocity=0, time=0),
    Message('note_on', channel=2, note=55, velocity=0, time=0),
    Message('note_on', channel=2, note=67, velocity=0, time=0),
    Message('note_on', channel=2, note=47, velocity=0, time=0),
    Message('note_on', channel=2, note=50, velocity=0, time=0),
    Message('note_on', channel=2, note=50, velocity=127, time=1),
    Message('note_on', channel=2, note=66, velocity=127, time=0),
    Message('note_on', channel=2, note=62, velocity=127, time=0),
    Message('note_on', channel=2, note=57, velocity=127, time=0),
    Message('note_on', channel=2, note=57, velocity=0, time=179),
    Message('note_on', channel=2, note=50, velocity=0, time=0),
    Message('note_on', channel=2, note=66, velocity=0, time=0),
    Message('note_on', channel=2, note=62, velocity=0, time=0),
    Message('note_on', channel=2, note=50, velocity=127, time=1),
    Message('note_on', channel=2, note=66, velocity=127, time=0),
    Message('note_on', channel=2, note=57, velocity=127, time=0),
    Message('note_on', channel=2, note=62, velocity=127, time=0),
    Message('note_on', channel=2, note=62, velocity=0, time=119),
    Message('note_on', channel=2, note=50, velocity=0, time=0),
    Message('note_on', channel=2, note=66, velocity=0, time=0),
    Message('note_on', channel=2, note=57, velocity=0, time=0),
    Message('note_on', channel=2, note=57, velocity=127, time=1),
    Message('note_on', channel=2, note=62, velocity=127, time=0),
    Message('note_on', channel=2, note=64, velocity=127, time=0),
    Message('note_on', channel=2, note=50, velocity=127, time=0),
    Message('note_on', channel=2, note=45, velocity=127, time=120),
    Message('note_on', channel=2, note=45, velocity=0, time=59),
    Message('note_on', channel=2, note=64, velocity=0, time=0),
    Message('note_on', channel=2, note=57, velocity=0, time=0),
    Message('note_on', channel=2, note=62, velocity=0, time=0),
    Message('note_on', channel=2, note=50, velocity=0, time=0),
    Message('note_on', channel=2, note=61, velocity=127, time=1),
    Message('note_on', channel=2, note=57, velocity=127, time=0),
    Message('note_on', channel=2, note=52, velocity=127, time=0),
    Message('note_on', channel=2, note=45, velocity=127, time=0),
    Message('note_on', channel=2, note=45, velocity=0, time=119),
    Message('note_on', channel=2, note=61, velocity=0, time=0),
    Message('note_on', channel=2, note=57, velocity=0, time=0),
    Message('note_on', channel=2, note=52, velocity=0, time=0),
    Message('note_on', channel=2, note=61, velocity=127, time=1),
    Message('note_on', channel=2, note=57, velocity=127, time=0),
    Message('note_on', channel=2, note=52, velocity=127, time=0),
    Message('note_on', channel=2, note=45, velocity=127, time=0),
    Message('note_on', channel=2, note=45, velocity=0, time=59),
    Message('note_on', channel=2, note=61, velocity=0, time=0),
    Message('note_on', channel=2, note=57, velocity=0, time=0),
    Message('note_on', channel=2, note=52, velocity=0, time=0),
    Message('note_on', channel=2, note=45, velocity=127, time=1),
    Message('note_on', channel=2, note=52, velocity=127, time=0),
    Message('note_on', channel=2, note=61, velocity=127, time=0),
    Message('note_on', channel=2, note=57, velocity=127, time=0),
    Message('note_on', channel=2, note=57, velocity=0, time=59),
    Message('note_on', channel=2, note=45, velocity=0, time=0),
    Message('note_on', channel=2, note=52, velocity=0, time=0),
    Message('note_on', channel=2, note=61, velocity=0, time=0),
    Message('note_on', channel=2, note=43, velocity=127, time=1),
    Message('note_on', channel=2, note=67, velocity=127, time=0),
    Message('note_on', channel=2, note=62, velocity=127, time=0),
    Message('note_on', channel=2, note=55, velocity=127, time=0),
    Message('note_on', channel=2, note=50, velocity=127, time=0),
    Message('note_on', channel=2, note=47, velocity=127, time=0),
    Message('note_on', channel=2, note=47, velocity=0, time=119),
    Message('note_on', channel=2, note=67, velocity=0, time=0),
    Message('note_on', channel=2, note=62, velocity=0, time=0),
    Message('note_on', channel=2, note=43, velocity=0, time=0),
    Message('note_on', channel=2, note=50, velocity=0, time=0),
    Message('note_on', channel=2, note=55, velocity=0, time=0),
    Message('note_on', channel=2, note=67, velocity=127, time=1),
    Message('note_on', channel=2, note=62, velocity=127, time=0),
    Message('note_on', channel=2, note=55, velocity=127, time=0),
    Message('note_on', channel=2, note=50, velocity=127, time=0),
    Message('note_on', channel=2, note=47, velocity=127, time=0),
    Message('note_on', channel=2, note=43, velocity=127, time=0),
    Message('note_on', channel=2, note=43, velocity=0, time=59),
    Message('note_on', channel=2, note=62, velocity=0, time=0),
    Message('note_on', channel=2, note=55, velocity=0, time=0),
    Message('note_on', channel=2, note=67, velocity=0, time=0),
    Message('note_on', channel=2, note=47, velocity=0, time=0),
    Message('note_on', channel=2, note=50, velocity=0, time=0),
    Message('note_on', channel=2, note=67, velocity=127, time=1),
    Message('note_on', channel=2, note=62, velocity=127, time=0),
    Message('note_on', channel=2, note=55, velocity=127, time=0),
    Message('note_on', channel=2, note=50, velocity=127, time=0),
    Message('note_on', channel=2, note=47, velocity=127, time=0),
    Message('note_on', channel=2, note=43, velocity=127, time=0),
    Message('note_on', channel=2, note=43, velocity=0, time=59),
    Message('note_on', channel=2, note=62, velocity=0, time=0),
    Message('note_on', channel=2, note=55, velocity=0, time=0),
    Message('note_on', channel=2, note=67, velocity=0, time=0),
    Message('note_on', channel=2, note=47, velocity=0, time=0),
    Message('note_on', channel=2, note=50, velocity=0, time=0),
    Message('note_on', channel=2, note=50, velocity=127, time=1),
    Message('note_on', channel=2, note=66, velocity=127, time=0),
    Message('note_on', channel=2, note=62, velocity=127, time=0),
    Message('note_on', channel=2, note=57, velocity=127, time=0),
    Message('note_on', channel=2, note=57, velocity=0, time=179),
    Message('note_on', channel=2, note=50, velocity=0, time=0),
    Message('note_on', channel=2, note=66, velocity=0, time=0),
    Message('note_on', channel=2, note=62, velocity=0, time=0),
    Message('note_on', channel=2, note=50, velocity=127, time=1),
    Message('note_on', channel=2, note=66, velocity=127, time=0),
    Message('note_on', channel=2, note=57, velocity=127, time=0),
    Message('note_on', channel=2, note=62, velocity=127, time=0),
    Message('note_on', channel=2, note=62, velocity=0, time=119),
    Message('note_on', channel=2, note=50, velocity=0, time=0),
    Message('note_on', channel=2, note=66, velocity=0, time=0),
    Message('note_on', channel=2, note=57, velocity=0, time=0),
    Message('note_on', channel=2, note=57, velocity=127, time=1),
    Message('note_on', channel=2, note=62, velocity=127, time=0),
    Message('note_on', channel=2, note=64, velocity=127, time=0),
    Message('note_on', channel=2, note=50, velocity=127, time=0),
    Message('note_on', channel=2, note=45, velocity=127, time=120),
    Message('note_on', channel=2, note=45, velocity=0, time=59),
    Message('note_on', channel=2, note=64, velocity=0, time=0),
    Message('note_on', channel=2, note=57, velocity=0, time=0),
    Message('note_on', channel=2, note=62, velocity=0, time=0),
    Message('note_on', channel=2, note=50, velocity=0, time=0),
    Message('note_on', channel=2, note=61, velocity=127, time=1),
    Message('note_on', channel=2, note=57, velocity=127, time=0),
    Message('note_on', channel=2, note=52, velocity=127, time=0),
    Message('note_on', channel=2, note=45, velocity=127, time=0),
    Message('note_on', channel=2, note=45, velocity=0, time=119),
    Message('note_on', channel=2, note=61, velocity=0, time=0),
    Message('note_on', channel=2, note=57, velocity=0, time=0),
    Message('note_on', channel=2, note=52, velocity=0, time=0),
    Message('note_on', channel=2, note=61, velocity=127, time=1),
    Message('note_on', channel=2, note=57, velocity=127, time=0),
    Message('note_on', channel=2, note=52, velocity=127, time=0),
    Message('note_on', channel=2, note=45, velocity=127, time=0),
    Message('note_on', channel=2, note=45, velocity=0, time=59),
    Message('note_on', channel=2, note=61, velocity=0, time=0),
    Message('note_on', channel=2, note=57, velocity=0, time=0),
    Message('note_on', channel=2, note=52, velocity=0, time=0),
    Message('note_on', channel=2, note=45, velocity=127, time=1),
    Message('note_on', channel=2, note=52, velocity=127, time=0),
    Message('note_on', channel=2, note=61, velocity=127, time=0),
    Message('note_on', channel=2, note=57, velocity=127, time=0),
    Message('note_on', channel=2, note=57, velocity=0, time=59),
    Message('note_on', channel=2, note=45, velocity=0, time=0),
    Message('note_on', channel=2, note=52, velocity=0, time=0),
    Message('note_on', channel=2, note=61, velocity=0, time=0),
    Message('note_on', channel=2, note=43, velocity=127, time=1),
    Message('note_on', channel=2, note=67, velocity=127, time=0),
    Message('note_on', channel=2, note=62, velocity=127, time=0),
    Message('note_on', channel=2, note=55, velocity=127, time=0),
    Message('note_on', channel=2, note=50, velocity=127, time=0),
    Message('note_on', channel=2, note=47, velocity=127, time=0),
    Message('note_on', channel=2, note=47, velocity=0, time=119),
    Message('note_on', channel=2, note=67, velocity=0, time=0),
    Message('note_on', channel=2, note=62, velocity=0, time=0),
    Message('note_on', channel=2, note=43, velocity=0, time=0),
    Message('note_on', channel=2, note=50, velocity=0, time=0),
    Message('note_on', channel=2, note=55, velocity=0, time=0),
    Message('note_on', channel=2, note=67, velocity=127, time=1),
    Message('note_on', channel=2, note=62, velocity=127, time=0),
    Message('note_on', channel=2, note=55, velocity=127, time=0),
    Message('note_on', channel=2, note=50, velocity=127, time=0),
    Message('note_on', channel=2, note=47, velocity=127, time=0),
    Message('note_on', channel=2, note=43, velocity=127, time=0),
    Message('note_on', channel=2, note=43, velocity=0, time=59),
    Message('note_on', channel=2, note=62, velocity=0, time=0),
    Message('note_on', channel=2, note=55, velocity=0, time=0),
    Message('note_on', channel=2, note=67, velocity=0, time=0),
    Message('note_on', channel=2, note=47, velocity=0, time=0),
    Message('note_on', channel=2, note=50, velocity=0, time=0),
    Message('note_on', channel=2, note=67, velocity=127, time=1),
    Message('note_on', channel=2, note=62, velocity=127, time=0),
    Message('note_on', channel=2, note=55, velocity=127, time=0),
    Message('note_on', channel=2, note=50, velocity=127, time=0),
    Message('note_on', channel=2, note=47, velocity=127, time=0),
    Message('note_on', channel=2, note=43, velocity=127, time=0),
    Message('note_on', channel=2, note=43, velocity=0, time=59),
    Message('note_on', channel=2, note=62, velocity=0, time=0),
    Message('note_on', channel=2, note=55, velocity=0, time=0),
    Message('note_on', channel=2, note=67, velocity=0, time=0),
    Message('note_on', channel=2, note=47, velocity=0, time=0),
    Message('note_on', channel=2, note=50, velocity=0, time=0),
    Message('note_on', channel=2, note=50, velocity=127, time=1),
    Message('note_on', channel=2, note=66, velocity=127, time=0),
    Message('note_on', channel=2, note=62, velocity=127, time=0),
    Message('note_on', channel=2, note=57, velocity=127, time=0),
    Message('note_on', channel=2, note=57, velocity=0, time=179),
    Message('note_on', channel=2, note=50, velocity=0, time=0),
    Message('note_on', channel=2, note=66, velocity=0, time=0),
    Message('note_on', channel=2, note=62, velocity=0, time=0),
    Message('note_on', channel=2, note=50, velocity=127, time=1),
    Message('note_on', channel=2, note=66, velocity=127, time=0),
    Message('note_on', channel=2, note=57, velocity=127, time=0),
    Message('note_on', channel=2, note=62, velocity=127, time=0),
    Message('note_on', channel=2, note=62, velocity=0, time=119),
    Message('note_on', channel=2, note=50, velocity=0, time=0),
    Message('note_on', channel=2, note=66, velocity=0, time=0),
    Message('note_on', channel=2, note=57, velocity=0, time=0),
    Message('note_on', channel=2, note=57, velocity=127, time=1),
    Message('note_on', channel=2, note=62, velocity=127, time=0),
    Message('note_on', channel=2, note=64, velocity=127, time=0),
    Message('note_on', channel=2, note=50, velocity=127, time=0),
    Message('note_on', channel=2, note=45, velocity=127, time=120),
    Message('note_on', channel=2, note=45, velocity=0, time=59),
    Message('note_on', channel=2, note=64, velocity=0, time=0),
    Message('note_on', channel=2, note=57, velocity=0, time=0),
    Message('note_on', channel=2, note=62, velocity=0, time=0),
    Message('note_on', channel=2, note=50, velocity=0, time=0),
    Message('note_on', channel=2, note=61, velocity=127, time=1),
    Message('note_on', channel=2, note=57, velocity=127, time=0),
    Message('note_on', channel=2, note=52, velocity=127, time=0),
    Message('note_on', channel=2, note=45, velocity=127, time=0),
    Message('note_on', channel=2, note=45, velocity=0, time=119),
    Message('note_on', channel=2, note=61, velocity=0, time=0),
    Message('note_on', channel=2, note=57, velocity=0, time=0),
    Message('note_on', channel=2, note=52, velocity=0, time=0),
    Message('note_on', channel=2, note=57, velocity=127, time=1),
    Message('note_on', channel=2, note=52, velocity=127, time=0),
    Message('note_on', channel=2, note=45, velocity=127, time=0),
    Message('note_on', channel=2, note=61, velocity=127, time=0),
    Message('note_on', channel=2, note=61, velocity=0, time=59),
    Message('note_on', channel=2, note=57, velocity=0, time=0),
    Message('note_on', channel=2, note=52, velocity=0, time=0),
    Message('note_on', channel=2, note=45, velocity=0, time=0),
    Message('note_on', channel=2, note=61, velocity=127, time=1),
    Message('note_on', channel=2, note=45, velocity=127, time=0),
    Message('note_on', channel=2, note=52, velocity=127, time=0),
    Message('note_on', channel=2, note=57, velocity=127, time=0),
    Message('note_on', channel=2, note=57, velocity=0, time=119),
    Message('note_on', channel=2, note=61, velocity=0, time=0),
    Message('note_on', channel=2, note=45, velocity=0, time=0),
    Message('note_on', channel=2, note=52, velocity=0, time=0),
    Message('note_on', channel=2, note=45, velocity=127, time=1),
    Message('note_on', channel=2, note=52, velocity=127, time=0),
    Message('note_on', channel=2, note=57, velocity=127, time=0),
    Message('note_on', channel=2, note=61, velocity=127, time=0),
    Message('note_on', channel=2, note=61, velocity=0, time=119),
    Message('note_on', channel=2, note=45, velocity=0, time=0),
    Message('note_on', channel=2, note=52, velocity=0, time=0),
    Message('note_on', channel=2, note=57, velocity=0, time=0),
    Message('note_on', channel=2, note=45, velocity=127, time=1),
    Message('note_on', channel=2, note=61, velocity=127, time=0),
    Message('note_on', channel=2, note=57, velocity=127, time=0),
    Message('note_on', channel=2, note=52, velocity=127, time=0),
    Message('note_on', channel=2, note=52, velocity=0, time=59),
    Message('note_on', channel=2, note=45, velocity=0, time=0),
    Message('note_on', channel=2, note=61, velocity=0, time=0),
    Message('note_on', channel=2, note=57, velocity=0, time=0),
    Message('note_on', channel=2, note=61, velocity=127, time=1),
    Message('note_on', channel=2, note=57, velocity=127, time=0),
    Message('note_on', channel=2, note=52, velocity=127, time=0),
    Message('note_on', channel=2, note=45, velocity=127, time=0),
    Message('note_on', channel=2, note=45, velocity=0, time=119),
    Message('note_on', channel=2, note=61, velocity=0, time=0),
    Message('note_on', channel=2, note=57, velocity=0, time=0),
    Message('note_on', channel=2, note=52, velocity=0, time=0),
    Message('note_on', channel=2, note=57, velocity=127, time=1),
    Message('note_on', channel=2, note=52, velocity=127, time=0),
    Message('note_on', channel=2, note=45, velocity=127, time=0),
    Message('note_on', channel=2, note=61, velocity=127, time=0),
    Message('note_on', channel=2, note=61, velocity=0, time=59),
    Message('note_on', channel=2, note=57, velocity=0, time=0),
    Message('note_on', channel=2, note=52, velocity=0, time=0),
    Message('note_on', channel=2, note=45, velocity=0, time=0),
    Message('note_on', channel=2, note=61, velocity=127, time=1),
    Message('note_on', channel=2, note=45, velocity=127, time=0),
    Message('note_on', channel=2, note=52, velocity=127, time=0),
    Message('note_on', channel=2, note=57, velocity=127, time=0),
    Message('note_on', channel=2, note=57, velocity=0, time=119),
    Message('note_on', channel=2, note=61, velocity=0, time=0),
    Message('note_on', channel=2, note=45, velocity=0, time=0),
    Message('note_on', channel=2, note=52, velocity=0, time=0),
    Message('note_on', channel=2, note=61, velocity=127, time=1),
    Message('note_on', channel=2, note=57, velocity=127, time=0),
    Message('note_on', channel=2, note=52, velocity=127, time=0),
    Message('note_on', channel=2, note=45, velocity=127, time=0),
    Message('note_on', channel=2, note=45, velocity=0, time=119),
    Message('note_on', channel=2, note=61, velocity=0, time=0),
    Message('note_on', channel=2, note=57, velocity=0, time=0),
    Message('note_on', channel=2, note=52, velocity=0, time=0),
    Message('note_on', channel=2, note=45, velocity=127, time=1),
    Message('note_on', channel=2, note=61, velocity=127, time=0),
    Message('note_on', channel=2, note=57, velocity=127, time=0),
    Message('note_on', channel=2, note=52, velocity=127, time=0),
    Message('note_on', channel=2, note=52, velocity=0, time=59),
    Message('note_on', channel=2, note=45, velocity=0, time=0),
    Message('note_on', channel=2, note=61, velocity=0, time=0),
    Message('note_on', channel=2, note=57, velocity=0, time=0),
    Message('note_on', channel=2, note=66, velocity=127, time=1),
    Message('note_on', channel=2, note=62, velocity=127, time=0),
    Message('note_on', channel=2, note=57, velocity=127, time=0),
    Message('note_on', channel=2, note=50, velocity=127, time=0),
    Message('note_on', channel=2, note=50, velocity=0, time=119),
    Message('note_on', channel=2, note=66, velocity=0, time=0),
    Message('note_on', channel=2, note=62, velocity=0, time=0),
    Message('note_on', channel=2, note=57, velocity=0, time=0),
    Message('note_on', channel=2, note=50, velocity=127, time=1),
    Message('note_on', channel=2, note=66, velocity=127, time=0),
    Message('note_on', channel=2, note=62, velocity=127, time=0),
    Message('note_on', channel=2, note=57, velocity=127, time=0),
    Message('note_on', channel=2, note=57, velocity=0, time=59),
    Message('note_on', channel=2, note=50, velocity=0, time=0),
    Message('note_on', channel=2, note=66, velocity=0, time=0),
    Message('note_on', channel=2, note=62, velocity=0, time=0),
    Message('note_on', channel=2, note=66, velocity=127, time=1),
    Message('note_on', channel=2, note=62, velocity=127, time=0),
    Message('note_on', channel=2, note=57, velocity=127, time=0),
    Message('note_on', channel=2, note=50, velocity=127, time=0),
    Message('note_on', channel=2, note=50, velocity=0, time=119),
    Message('note_on', channel=2, note=66, velocity=0, time=0),
    Message('note_on', channel=2, note=62, velocity=0, time=0),
    Message('note_on', channel=2, note=57, velocity=0, time=0),
    Message('note_on', channel=2, note=50, velocity=127, time=1),
    Message('note_on', channel=2, note=57, velocity=127, time=0),
    Message('note_on', channel=2, note=62, velocity=127, time=0),
    Message('note_on', channel=2, note=66, velocity=127, time=0),
    Message('note_on', channel=2, note=66, velocity=0, time=119),
    Message('note_on', channel=2, note=50, velocity=0, time=0),
    Message('note_on', channel=2, note=57, velocity=0, time=0),
    Message('note_on', channel=2, note=62, velocity=0, time=0),
    Message('note_on', channel=2, note=66, velocity=127, time=1),
    Message('note_on', channel=2, note=62, velocity=127, time=0),
    Message('note_on', channel=2, note=57, velocity=127, time=0),
    Message('note_on', channel=2, note=50, velocity=127, time=0),
    Message('note_on', channel=2, note=50, velocity=0, time=59),
    Message('note_on', channel=2, note=66, velocity=0, time=0),
    Message('note_on', channel=2, note=62, velocity=0, time=0),
    Message('note_on', channel=2, note=57, velocity=0, time=0),
    Message('note_on', channel=2, note=66, velocity=127, time=1),
    Message('note_on', channel=2, note=62, velocity=127, time=0),
    Message('note_on', channel=2, note=57, velocity=127, time=0),
    Message('note_on', channel=2, note=50, velocity=127, time=0),
    Message('note_on', channel=2, note=50, velocity=0, time=119),
    Message('note_on', channel=2, note=66, velocity=0, time=0),
    Message('note_on', channel=2, note=62, velocity=0, time=0),
    Message('note_on', channel=2, note=57, velocity=0, time=0),
    Message('note_on', channel=2, note=62, velocity=127, time=1),
    Message('note_on', channel=2, note=50, velocity=127, time=0),
    Message('note_on', channel=2, note=66, velocity=127, time=0),
    Message('note_on', channel=2, note=57, velocity=127, time=0),
    Message('note_on', channel=2, note=57, velocity=0, time=59),
    Message('note_on', channel=2, note=62, velocity=0, time=0),
    Message('note_on', channel=2, note=50, velocity=0, time=0),
    Message('note_on', channel=2, note=66, velocity=0, time=0),
    Message('note_on', channel=2, note=66, velocity=127, time=1),
    Message('note_on', channel=2, note=62, velocity=127, time=0),
    Message('note_on', channel=2, note=57, velocity=127, time=0),
    Message('note_on', channel=2, note=50, velocity=127, time=0),
    Message('note_on', channel=2, note=50, velocity=0, time=119),
    Message('note_on', channel=2, note=66, velocity=0, time=0),
    Message('note_on', channel=2, note=62, velocity=0, time=0),
    Message('note_on', channel=2, note=57, velocity=0, time=0),
    Message('note_on', channel=2, note=66, velocity=127, time=1),
    Message('note_on', channel=2, note=50, velocity=127, time=0),
    Message('note_on', channel=2, note=57, velocity=127, time=0),
    Message('note_on', channel=2, note=62, velocity=127, time=0),
    Message('note_on', channel=2, note=62, velocity=0, time=119),
    Message('note_on', channel=2, note=66, velocity=0, time=0),
    Message('note_on', channel=2, note=50, velocity=0, time=0),
    Message('note_on', channel=2, note=57, velocity=0, time=0),
    Message('note_on', channel=2, note=66, velocity=127, time=1),
    Message('note_on', channel=2, note=62, velocity=127, time=0),
    Message('note_on', channel=2, note=57, velocity=127, time=0),
    Message('note_on', channel=2, note=50, velocity=127, time=0),
    Message('note_on', channel=2, note=50, velocity=0, time=59),
    Message('note_on', channel=2, note=66, velocity=0, time=0),
    Message('note_on', channel=2, note=62, velocity=0, time=0),
    Message('note_on', channel=2, note=57, velocity=0, time=0),
    Message('note_on', channel=2, note=45, velocity=127, time=1),
    Message('note_on', channel=2, note=52, velocity=127, time=0),
    Message('note_on', channel=2, note=57, velocity=127, time=0),
    Message('note_on', channel=2, note=61, velocity=127, time=0),
    Message('note_on', channel=2, note=61, velocity=0, time=119),
    Message('note_on', channel=2, note=45, velocity=0, time=0),
    Message('note_on', channel=2, note=52, velocity=0, time=0),
    Message('note_on', channel=2, note=57, velocity=0, time=0),
    Message('note_on', channel=2, note=45, velocity=127, time=1),
    Message('note_on', channel=2, note=52, velocity=127, time=0),
    Message('note_on', channel=2, note=57, velocity=127, time=0),
    Message('note_on', channel=2, note=61, velocity=127, time=0),
    Message('note_on', channel=2, note=61, velocity=0, time=59),
    Message('note_on', channel=2, note=45, velocity=0, time=0),
    Message('note_on', channel=2, note=52, velocity=0, time=0),
    Message('note_on', channel=2, note=57, velocity=0, time=0),
    Message('note_on', channel=2, note=45, velocity=127, time=1),
    Message('note_on', channel=2, note=52, velocity=127, time=0),
    Message('note_on', channel=2, note=57, velocity=127, time=0),
    Message('note_on', channel=2, note=61, velocity=127, time=0),
    Message('note_on', channel=2, note=61, velocity=0, time=119),
    Message('note_on', channel=2, note=45, velocity=0, time=0),
    Message('note_on', channel=2, note=52, velocity=0, time=0),
    Message('note_on', channel=2, note=57, velocity=0, time=0),
    Message('note_on', channel=2, note=45, velocity=127, time=1),
    Message('note_on', channel=2, note=52, velocity=127, time=0),
    Message('note_on', channel=2, note=57, velocity=127, time=0),
    Message('note_on', channel=2, note=61, velocity=127, time=0),
    Message('note_on', channel=2, note=61, velocity=0, time=119),
    Message('note_on', channel=2, note=45, velocity=0, time=0),
    Message('note_on', channel=2, note=52, velocity=0, time=0),
    Message('note_on', channel=2, note=57, velocity=0, time=0),
    Message('note_on', channel=2, note=45, velocity=127, time=1),
    Message('note_on', channel=2, note=52, velocity=127, time=0),
    Message('note_on', channel=2, note=57, velocity=127, time=0),
    Message('note_on', channel=2, note=61, velocity=127, time=0),
    Message('note_on', channel=2, note=61, velocity=0, time=59),
    Message('note_on', channel=2, note=45, velocity=0, time=0),
    Message('note_on', channel=2, note=52, velocity=0, time=0),
    Message('note_on', channel=2, note=57, velocity=0, time=0),
    Message('note_on', channel=2, note=45, velocity=127, time=1),
    Message('note_on', channel=2, note=52, velocity=127, time=0),
    Message('note_on', channel=2, note=57, velocity=127, time=0),
    Message('note_on', channel=2, note=61, velocity=127, time=0),
    Message('note_on', channel=2, note=61, velocity=0, time=119),
    Message('note_on', channel=2, note=45, velocity=0, time=0),
    Message('note_on', channel=2, note=52, velocity=0, time=0),
    Message('note_on', channel=2, note=57, velocity=0, time=0),
    Message('note_on', channel=2, note=45, velocity=127, time=1),
    Message('note_on', channel=2, note=52, velocity=127, time=0),
    Message('note_on', channel=2, note=57, velocity=127, time=0),
    Message('note_on', channel=2, note=61, velocity=127, time=0),
    Message('note_on', channel=2, note=61, velocity=0, time=59),
    Message('note_on', channel=2, note=45, velocity=0, time=0),
    Message('note_on', channel=2, note=52, velocity=0, time=0),
    Message('note_on', channel=2, note=57, velocity=0, time=0),
    Message('note_on', channel=2, note=45, velocity=127, time=1),
    Message('note_on', channel=2, note=52, velocity=127, time=0),
    Message('note_on', channel=2, note=57, velocity=127, time=0),
    Message('note_on', channel=2, note=61, velocity=127, time=0),
    Message('note_on', channel=2, note=61, velocity=0, time=119),
    Message('note_on', channel=2, note=45, velocity=0, time=0),
    Message('note_on', channel=2, note=52, velocity=0, time=0),
    Message('note_on', channel=2, note=57, velocity=0, time=0),
    Message('note_on', channel=2, note=45, velocity=127, time=1),
    Message('note_on', channel=2, note=52, velocity=127, time=0),
    Message('note_on', channel=2, note=57, velocity=127, time=0),
    Message('note_on', channel=2, note=61, velocity=127, time=0),
    Message('note_on', channel=2, note=61, velocity=0, time=119),
    Message('note_on', channel=2, note=45, velocity=0, time=0),
    Message('note_on', channel=2, note=52, velocity=0, time=0),
    Message('note_on', channel=2, note=57, velocity=0, time=0),
    Message('note_on', channel=2, note=45, velocity=127, time=1),
    Message('note_on', channel=2, note=52, velocity=127, time=0),
    Message('note_on', channel=2, note=57, velocity=127, time=0),
    Message('note_on', channel=2, note=61, velocity=127, time=0),
    Message('note_on', channel=2, note=61, velocity=0, time=59),
    Message('note_on', channel=2, note=45, velocity=0, time=0),
    Message('note_on', channel=2, note=52, velocity=0, time=0),
    Message('note_on', channel=2, note=57, velocity=0, time=0),
    Message('note_on', channel=2, note=43, velocity=127, time=1),
    Message('note_on', channel=2, note=67, velocity=127, time=0),
    Message('note_on', channel=2, note=62, velocity=127, time=0),
    Message('note_on', channel=2, note=55, velocity=127, time=0),
    Message('note_on', channel=2, note=50, velocity=127, time=0),
    Message('note_on', channel=2, note=47, velocity=127, time=0),
    Message('note_on', channel=2, note=47, velocity=0, time=179),
    Message('note_on', channel=2, note=67, velocity=0, time=0),
    Message('note_on', channel=2, note=62, velocity=0, time=0),
    Message('note_on', channel=2, note=43, velocity=0, time=0),
    Message('note_on', channel=2, note=50, velocity=0, time=0),
    Message('note_on', channel=2, note=55, velocity=0, time=0),
    Message('note_on', channel=2, note=67, velocity=127, time=1),
    Message('note_on', channel=2, note=62, velocity=127, time=0),
    Message('note_on', channel=2, note=55, velocity=127, time=0),
    Message('note_on', channel=2, note=50, velocity=127, time=0),
    Message('note_on', channel=2, note=47, velocity=127, time=0),
    Message('note_on', channel=2, note=43, velocity=127, time=0),
    Message('note_on', channel=2, note=43, velocity=0, time=179),
    Message('note_on', channel=2, note=62, velocity=0, time=0),
    Message('note_on', channel=2, note=55, velocity=0, time=0),
    Message('note_on', channel=2, note=67, velocity=0, time=0),
    Message('note_on', channel=2, note=47, velocity=0, time=0),
    Message('note_on', channel=2, note=50, velocity=0, time=0),
    Message('note_on', channel=2, note=67, velocity=127, time=1),
    Message('note_on', channel=2, note=62, velocity=127, time=0),
    Message('note_on', channel=2, note=55, velocity=127, time=0),
    Message('note_on', channel=2, note=43, velocity=127, time=0),
    Message('note_on', channel=2, note=47, velocity=127, time=0),
    Message('note_on', channel=2, note=50, velocity=127, time=0),
    Message('note_on', channel=2, note=50, velocity=0, time=59),
    Message('note_on', channel=2, note=62, velocity=0, time=0),
    Message('note_on', channel=2, note=55, velocity=0, time=0),
    Message('note_on', channel=2, note=67, velocity=0, time=0),
    Message('note_on', channel=2, note=47, velocity=0, time=0),
    Message('note_on', channel=2, note=43, velocity=0, time=0),
    Message('note_on', channel=2, note=43, velocity=127, time=61),
    Message('note_on', channel=2, note=67, velocity=127, time=0),
    Message('note_on', channel=2, note=62, velocity=127, time=0),
    Message('note_on', channel=2, note=55, velocity=127, time=0),
    Message('note_on', channel=2, note=50, velocity=127, time=0),
    Message('note_on', channel=2, note=47, velocity=127, time=0),
    Message('note_on', channel=2, note=47, velocity=0, time=179),
    Message('note_on', channel=2, note=67, velocity=0, time=0),
    Message('note_on', channel=2, note=62, velocity=0, time=0),
    Message('note_on', channel=2, note=43, velocity=0, time=0),
    Message('note_on', channel=2, note=50, velocity=0, time=0),
    Message('note_on', channel=2, note=55, velocity=0, time=0),
    Message('note_on', channel=2, note=67, velocity=127, time=1),
    Message('note_on', channel=2, note=62, velocity=127, time=0),
    Message('note_on', channel=2, note=55, velocity=127, time=0),
    Message('note_on', channel=2, note=50, velocity=127, time=0),
    Message('note_on', channel=2, note=47, velocity=127, time=0),
    Message('note_on', channel=2, note=43, velocity=127, time=0),
    Message('note_on', channel=2, note=43, velocity=0, time=179),
    Message('note_on', channel=2, note=62, velocity=0, time=0),
    Message('note_on', channel=2, note=55, velocity=0, time=0),
    Message('note_on', channel=2, note=67, velocity=0, time=0),
    Message('note_on', channel=2, note=47, velocity=0, time=0),
    Message('note_on', channel=2, note=50, velocity=0, time=0),
    Message('note_on', channel=2, note=67, velocity=127, time=1),
    Message('note_on', channel=2, note=62, velocity=127, time=0),
    Message('note_on', channel=2, note=55, velocity=127, time=0),
    Message('note_on', channel=2, note=43, velocity=127, time=0),
    Message('note_on', channel=2, note=47, velocity=127, time=0),
    Message('note_on', channel=2, note=50, velocity=127, time=0),
    Message('note_on', channel=2, note=50, velocity=0, time=119),
    Message('note_on', channel=2, note=62, velocity=0, time=0),
    Message('note_on', channel=2, note=55, velocity=0, time=0),
    Message('note_on', channel=2, note=67, velocity=0, time=0),
    Message('note_on', channel=2, note=47, velocity=0, time=0),
    Message('note_on', channel=2, note=43, velocity=0, time=0),
    Message('note_on', channel=2, note=43, velocity=127, time=1),
    Message('note_on', channel=2, note=67, velocity=127, time=0),
    Message('note_on', channel=2, note=62, velocity=127, time=0),
    Message('note_on', channel=2, note=55, velocity=127, time=0),
    Message('note_on', channel=2, note=50, velocity=127, time=0),
    Message('note_on', channel=2, note=47, velocity=127, time=0),
    Message('note_on', channel=2, note=47, velocity=0, time=179),
    Message('note_on', channel=2, note=67, velocity=0, time=0),
    Message('note_on', channel=2, note=62, velocity=0, time=0),
    Message('note_on', channel=2, note=43, velocity=0, time=0),
    Message('note_on', channel=2, note=50, velocity=0, time=0),
    Message('note_on', channel=2, note=55, velocity=0, time=0),
    Message('note_on', channel=2, note=67, velocity=127, time=1),
    Message('note_on', channel=2, note=62, velocity=127, time=0),
    Message('note_on', channel=2, note=55, velocity=127, time=0),
    Message('note_on', channel=2, note=50, velocity=127, time=0),
    Message('note_on', channel=2, note=47, velocity=127, time=0),
    Message('note_on', channel=2, note=43, velocity=127, time=0),
    Message('note_on', channel=2, note=43, velocity=0, time=179),
    Message('note_on', channel=2, note=62, velocity=0, time=0),
    Message('note_on', channel=2, note=55, velocity=0, time=0),
    Message('note_on', channel=2, note=67, velocity=0, time=0),
    Message('note_on', channel=2, note=47, velocity=0, time=0),
    Message('note_on', channel=2, note=50, velocity=0, time=0),
    Message('note_on', channel=2, note=67, velocity=127, time=1),
    Message('note_on', channel=2, note=62, velocity=127, time=0),
    Message('note_on', channel=2, note=55, velocity=127, time=0),
    Message('note_on', channel=2, note=43, velocity=127, time=0),
    Message('note_on', channel=2, note=47, velocity=127, time=0),
    Message('note_on', channel=2, note=50, velocity=127, time=0),
    Message('note_on', channel=2, note=50, velocity=0, time=59),
    Message('note_on', channel=2, note=62, velocity=0, time=0),
    Message('note_on', channel=2, note=55, velocity=0, time=0),
    Message('note_on', channel=2, note=67, velocity=0, time=0),
    Message('note_on', channel=2, note=47, velocity=0, time=0),
    Message('note_on', channel=2, note=43, velocity=0, time=0),
    Message('note_on', channel=2, note=67, velocity=127, time=1),
    Message('note_on', channel=2, note=62, velocity=127, time=0),
    Message('note_on', channel=2, note=55, velocity=127, time=0),
    Message('note_on', channel=2, note=50, velocity=127, time=0),
    Message('note_on', channel=2, note=47, velocity=127, time=0),
    Message('note_on', channel=2, note=43, velocity=127, time=0),
    Message('note_on', channel=2, note=43, velocity=0, time=59),
    Message('note_on', channel=2, note=62, velocity=0, time=0),
    Message('note_on', channel=2, note=55, velocity=0, time=0),
    Message('note_on', channel=2, note=67, velocity=0, time=0),
    Message('note_on', channel=2, note=47, velocity=0, time=0),
    Message('note_on', channel=2, note=50, velocity=0, time=0),
    Message('note_on', channel=2, note=43, velocity=127, time=1),
    Message('note_on', channel=2, note=47, velocity=127, time=0),
    Message('note_on', channel=2, note=50, velocity=127, time=0),
    Message('note_on', channel=2, note=55, velocity=127, time=0),
    Message('note_on', channel=2, note=62, velocity=127, time=0),
    Message('note_on', channel=2, note=67, velocity=127, time=0),
    Message('note_on', channel=2, note=67, velocity=0, time=119),
    Message('note_on', channel=2, note=47, velocity=0, time=0),
    Message('note_on', channel=2, note=50, velocity=0, time=0),
    Message('note_on', channel=2, note=43, velocity=0, time=0),
    Message('note_on', channel=2, note=62, velocity=0, time=0),
    Message('note_on', channel=2, note=55, velocity=0, time=0),
    Message('note_on', channel=2, note=43, velocity=127, time=1),
    Message('note_on', channel=2, note=47, velocity=127, time=0),
    Message('note_on', channel=2, note=50, velocity=127, time=0),
    Message('note_on', channel=2, note=55, velocity=127, time=0),
    Message('note_on', channel=2, note=62, velocity=127, time=0),
    Message('note_on', channel=2, note=67, velocity=127, time=0),
    Message('note_on', channel=2, note=67, velocity=0, time=59),
    Message('note_on', channel=2, note=47, velocity=0, time=0),
    Message('note_on', channel=2, note=50, velocity=0, time=0),
    Message('note_on', channel=2, note=43, velocity=0, time=0),
    Message('note_on', channel=2, note=62, velocity=0, time=0),
    Message('note_on', channel=2, note=55, velocity=0, time=0),
    Message('note_on', channel=2, note=67, velocity=127, time=1),
    Message('note_on', channel=2, note=62, velocity=127, time=0),
    Message('note_on', channel=2, note=55, velocity=127, time=0),
    Message('note_on', channel=2, note=50, velocity=127, time=0),
    Message('note_on', channel=2, note=47, velocity=127, time=0),
    Message('note_on', channel=2, note=43, velocity=127, time=0),
    Message('note_on', channel=2, note=43, velocity=0, time=119),
    Message('note_on', channel=2, note=62, velocity=0, time=0),
    Message('note_on', channel=2, note=55, velocity=0, time=0),
    Message('note_on', channel=2, note=67, velocity=0, time=0),
    Message('note_on', channel=2, note=47, velocity=0, time=0),
    Message('note_on', channel=2, note=50, velocity=0, time=0),
    Message('note_on', channel=2, note=43, velocity=127, time=1),
    Message('note_on', channel=2, note=67, velocity=127, time=0),
    Message('note_on', channel=2, note=62, velocity=127, time=0),
    Message('note_on', channel=2, note=55, velocity=127, time=0),
    Message('note_on', channel=2, note=50, velocity=127, time=0),
    Message('note_on', channel=2, note=47, velocity=127, time=0),
    Message('note_on', channel=2, note=47, velocity=0, time=59),
    Message('note_on', channel=2, note=67, velocity=0, time=0),
    Message('note_on', channel=2, note=62, velocity=0, time=0),
    Message('note_on', channel=2, note=43, velocity=0, time=0),
    Message('note_on', channel=2, note=50, velocity=0, time=0),
    Message('note_on', channel=2, note=55, velocity=0, time=0),
    Message('note_on', channel=2, note=67, velocity=127, time=1),
    Message('note_on', channel=2, note=62, velocity=127, time=0),
    Message('note_on', channel=2, note=55, velocity=127, time=0),
    Message('note_on', channel=2, note=50, velocity=127, time=0),
    Message('note_on', channel=2, note=47, velocity=127, time=0),
    Message('note_on', channel=2, note=43, velocity=127, time=0),
    Message('note_on', channel=2, note=43, velocity=0, time=59),
    Message('note_on', channel=2, note=62, velocity=0, time=0),
    Message('note_on', channel=2, note=55, velocity=0, time=0),
    Message('note_on', channel=2, note=67, velocity=0, time=0),
    Message('note_on', channel=2, note=47, velocity=0, time=0),
    Message('note_on', channel=2, note=50, velocity=0, time=0),
    Message('note_on', channel=2, note=67, velocity=127, time=1),
    Message('note_on', channel=2, note=62, velocity=127, time=0),
    Message('note_on', channel=2, note=55, velocity=127, time=0),
    Message('note_on', channel=2, note=50, velocity=127, time=0),
    Message('note_on', channel=2, note=47, velocity=127, time=0),
    Message('note_on', channel=2, note=43, velocity=127, time=0),
    Message('note_on', channel=2, note=43, velocity=0, time=59),
    Message('note_on', channel=2, note=62, velocity=0, time=0),
    Message('note_on', channel=2, note=55, velocity=0, time=0),
    Message('note_on', channel=2, note=67, velocity=0, time=0),
    Message('note_on', channel=2, note=47, velocity=0, time=0),
    Message('note_on', channel=2, note=50, velocity=0, time=0),
    Message('note_on', channel=2, note=50, velocity=127, time=1),
    Message('note_on', channel=2, note=66, velocity=127, time=0),
    Message('note_on', channel=2, note=62, velocity=127, time=0),
    Message('note_on', channel=2, note=57, velocity=127, time=0),
    Message('note_on', channel=2, note=57, velocity=0, time=179),
    Message('note_on', channel=2, note=50, velocity=0, time=0),
    Message('note_on', channel=2, note=66, velocity=0, time=0),
    Message('note_on', channel=2, note=62, velocity=0, time=0),
    Message('note_on', channel=2, note=50, velocity=127, time=1),
    Message('note_on', channel=2, note=66, velocity=127, time=0),
    Message('note_on', channel=2, note=57, velocity=127, time=0),
    Message('note_on', channel=2, note=62, velocity=127, time=0),
    Message('note_on', channel=2, note=62, velocity=0, time=119),
    Message('note_on', channel=2, note=50, velocity=0, time=0),
    Message('note_on', channel=2, note=66, velocity=0, time=0),
    Message('note_on', channel=2, note=57, velocity=0, time=0),
    Message('note_on', channel=2, note=57, velocity=127, time=1),
    Message('note_on', channel=2, note=62, velocity=127, time=0),
    Message('note_on', channel=2, note=64, velocity=127, time=0),
    Message('note_on', channel=2, note=50, velocity=127, time=0),
    Message('note_on', channel=2, note=45, velocity=127, time=120),
    Message('note_on', channel=2, note=45, velocity=0, time=59),
    Message('note_on', channel=2, note=64, velocity=0, time=0),
    Message('note_on', channel=2, note=57, velocity=0, time=0),
    Message('note_on', channel=2, note=62, velocity=0, time=0),
    Message('note_on', channel=2, note=50, velocity=0, time=0),
    Message('note_on', channel=2, note=61, velocity=127, time=1),
    Message('note_on', channel=2, note=57, velocity=127, time=0),
    Message('note_on', channel=2, note=52, velocity=127, time=0),
    Message('note_on', channel=2, note=45, velocity=127, time=0),
    Message('note_on', channel=2, note=45, velocity=0, time=119),
    Message('note_on', channel=2, note=61, velocity=0, time=0),
    Message('note_on', channel=2, note=57, velocity=0, time=0),
    Message('note_on', channel=2, note=52, velocity=0, time=0),
    Message('note_on', channel=2, note=61, velocity=127, time=1),
    Message('note_on', channel=2, note=57, velocity=127, time=0),
    Message('note_on', channel=2, note=52, velocity=127, time=0),
    Message('note_on', channel=2, note=45, velocity=127, time=0),
    Message('note_on', channel=2, note=45, velocity=0, time=59),
    Message('note_on', channel=2, note=61, velocity=0, time=0),
    Message('note_on', channel=2, note=57, velocity=0, time=0),
    Message('note_on', channel=2, note=52, velocity=0, time=0),
    Message('note_on', channel=2, note=45, velocity=127, time=1),
    Message('note_on', channel=2, note=52, velocity=127, time=0),
    Message('note_on', channel=2, note=61, velocity=127, time=0),
    Message('note_on', channel=2, note=57, velocity=127, time=0),
    Message('note_on', channel=2, note=57, velocity=0, time=59),
    Message('note_on', channel=2, note=45, velocity=0, time=0),
    Message('note_on', channel=2, note=52, velocity=0, time=0),
    Message('note_on', channel=2, note=61, velocity=0, time=0),
    Message('note_on', channel=2, note=43, velocity=127, time=1),
    Message('note_on', channel=2, note=67, velocity=127, time=0),
    Message('note_on', channel=2, note=62, velocity=127, time=0),
    Message('note_on', channel=2, note=55, velocity=127, time=0),
    Message('note_on', channel=2, note=50, velocity=127, time=0),
    Message('note_on', channel=2, note=47, velocity=127, time=0),
    Message('note_on', channel=2, note=47, velocity=0, time=119),
    Message('note_on', channel=2, note=67, velocity=0, time=0),
    Message('note_on', channel=2, note=62, velocity=0, time=0),
    Message('note_on', channel=2, note=43, velocity=0, time=0),
    Message('note_on', channel=2, note=50, velocity=0, time=0),
    Message('note_on', channel=2, note=55, velocity=0, time=0),
    Message('note_on', channel=2, note=67, velocity=127, time=1),
    Message('note_on', channel=2, note=62, velocity=127, time=0),
    Message('note_on', channel=2, note=55, velocity=127, time=0),
    Message('note_on', channel=2, note=50, velocity=127, time=0),
    Message('note_on', channel=2, note=47, velocity=127, time=0),
    Message('note_on', channel=2, note=43, velocity=127, time=0),
    Message('note_on', channel=2, note=43, velocity=0, time=59),
    Message('note_on', channel=2, note=62, velocity=0, time=0),
    Message('note_on', channel=2, note=55, velocity=0, time=0),
    Message('note_on', channel=2, note=67, velocity=0, time=0),
    Message('note_on', channel=2, note=47, velocity=0, time=0),
    Message('note_on', channel=2, note=50, velocity=0, time=0),
    Message('note_on', channel=2, note=67, velocity=127, time=1),
    Message('note_on', channel=2, note=62, velocity=127, time=0),
    Message('note_on', channel=2, note=55, velocity=127, time=0),
    Message('note_on', channel=2, note=50, velocity=127, time=0),
    Message('note_on', channel=2, note=47, velocity=127, time=0),
    Message('note_on', channel=2, note=43, velocity=127, time=0),
    Message('note_on', channel=2, note=43, velocity=0, time=59),
    Message('note_on', channel=2, note=62, velocity=0, time=0),
    Message('note_on', channel=2, note=55, velocity=0, time=0),
    Message('note_on', channel=2, note=67, velocity=0, time=0),
    Message('note_on', channel=2, note=47, velocity=0, time=0),
    Message('note_on', channel=2, note=50, velocity=0, time=0),
    Message('note_on', channel=2, note=50, velocity=127, time=1),
    Message('note_on', channel=2, note=66, velocity=127, time=0),
    Message('note_on', channel=2, note=62, velocity=127, time=0),
    Message('note_on', channel=2, note=57, velocity=127, time=0),
    Message('note_on', channel=2, note=57, velocity=0, time=179),
    Message('note_on', channel=2, note=50, velocity=0, time=0),
    Message('note_on', channel=2, note=66, velocity=0, time=0),
    Message('note_on', channel=2, note=62, velocity=0, time=0),
    Message('note_on', channel=2, note=50, velocity=127, time=1),
    Message('note_on', channel=2, note=66, velocity=127, time=0),
    Message('note_on', channel=2, note=57, velocity=127, time=0),
    Message('note_on', channel=2, note=62, velocity=127, time=0),
    Message('note_on', channel=2, note=62, velocity=0, time=119),
    Message('note_on', channel=2, note=50, velocity=0, time=0),
    Message('note_on', channel=2, note=66, velocity=0, time=0),
    Message('note_on', channel=2, note=57, velocity=0, time=0),
    Message('note_on', channel=2, note=57, velocity=127, time=1),
    Message('note_on', channel=2, note=62, velocity=127, time=0),
    Message('note_on', channel=2, note=64, velocity=127, time=0),
    Message('note_on', channel=2, note=50, velocity=127, time=0),
    Message('note_on', channel=2, note=45, velocity=127, time=120),
    Message('note_on', channel=2, note=45, velocity=0, time=59),
    Message('note_on', channel=2, note=64, velocity=0, time=0),
    Message('note_on', channel=2, note=57, velocity=0, time=0),
    Message('note_on', channel=2, note=62, velocity=0, time=0),
    Message('note_on', channel=2, note=50, velocity=0, time=0),
    Message('note_on', channel=2, note=61, velocity=127, time=1),
    Message('note_on', channel=2, note=57, velocity=127, time=0),
    Message('note_on', channel=2, note=52, velocity=127, time=0),
    Message('note_on', channel=2, note=45, velocity=127, time=0),
    Message('note_on', channel=2, note=45, velocity=0, time=119),
    Message('note_on', channel=2, note=61, velocity=0, time=0),
    Message('note_on', channel=2, note=57, velocity=0, time=0),
    Message('note_on', channel=2, note=52, velocity=0, time=0),
    Message('note_on', channel=2, note=61, velocity=127, time=1),
    Message('note_on', channel=2, note=57, velocity=127, time=0),
    Message('note_on', channel=2, note=52, velocity=127, time=0),
    Message('note_on', channel=2, note=45, velocity=127, time=0),
    Message('note_on', channel=2, note=45, velocity=0, time=59),
    Message('note_on', channel=2, note=61, velocity=0, time=0),
    Message('note_on', channel=2, note=57, velocity=0, time=0),
    Message('note_on', channel=2, note=52, velocity=0, time=0),
    Message('note_on', channel=2, note=45, velocity=127, time=1),
    Message('note_on', channel=2, note=52, velocity=127, time=0),
    Message('note_on', channel=2, note=61, velocity=127, time=0),
    Message('note_on', channel=2, note=57, velocity=127, time=0),
    Message('note_on', channel=2, note=57, velocity=0, time=59),
    Message('note_on', channel=2, note=45, velocity=0, time=0),
    Message('note_on', channel=2, note=52, velocity=0, time=0),
    Message('note_on', channel=2, note=61, velocity=0, time=0),
    Message('note_on', channel=2, note=43, velocity=127, time=1),
    Message('note_on', channel=2, note=67, velocity=127, time=0),
    Message('note_on', channel=2, note=62, velocity=127, time=0),
    Message('note_on', channel=2, note=55, velocity=127, time=0),
    Message('note_on', channel=2, note=50, velocity=127, time=0),
    Message('note_on', channel=2, note=47, velocity=127, time=0),
    Message('note_on', channel=2, note=47, velocity=0, time=119),
    Message('note_on', channel=2, note=67, velocity=0, time=0),
    Message('note_on', channel=2, note=62, velocity=0, time=0),
    Message('note_on', channel=2, note=43, velocity=0, time=0),
    Message('note_on', channel=2, note=50, velocity=0, time=0),
    Message('note_on', channel=2, note=55, velocity=0, time=0),
    Message('note_on', channel=2, note=67, velocity=127, time=1),
    Message('note_on', channel=2, note=62, velocity=127, time=0),
    Message('note_on', channel=2, note=55, velocity=127, time=0),
    Message('note_on', channel=2, note=50, velocity=127, time=0),
    Message('note_on', channel=2, note=47, velocity=127, time=0),
    Message('note_on', channel=2, note=43, velocity=127, time=0),
    Message('note_on', channel=2, note=43, velocity=0, time=59),
    Message('note_on', channel=2, note=62, velocity=0, time=0),
    Message('note_on', channel=2, note=55, velocity=0, time=0),
    Message('note_on', channel=2, note=67, velocity=0, time=0),
    Message('note_on', channel=2, note=47, velocity=0, time=0),
    Message('note_on', channel=2, note=50, velocity=0, time=0),
    Message('note_on', channel=2, note=67, velocity=127, time=1),
    Message('note_on', channel=2, note=62, velocity=127, time=0),
    Message('note_on', channel=2, note=55, velocity=127, time=0),
    Message('note_on', channel=2, note=50, velocity=127, time=0),
    Message('note_on', channel=2, note=47, velocity=127, time=0),
    Message('note_on', channel=2, note=43, velocity=127, time=0),
    Message('note_on', channel=2, note=43, velocity=0, time=59),
    Message('note_on', channel=2, note=62, velocity=0, time=0),
    Message('note_on', channel=2, note=55, velocity=0, time=0),
    Message('note_on', channel=2, note=67, velocity=0, time=0),
    Message('note_on', channel=2, note=47, velocity=0, time=0),
    Message('note_on', channel=2, note=50, velocity=0, time=0),
    Message('note_on', channel=2, note=50, velocity=127, time=1),
    Message('note_on', channel=2, note=66, velocity=127, time=0),
    Message('note_on', channel=2, note=62, velocity=127, time=0),
    Message('note_on', channel=2, note=57, velocity=127, time=0),
    Message('note_on', channel=2, note=57, velocity=0, time=179),
    Message('note_on', channel=2, note=50, velocity=0, time=0),
    Message('note_on', channel=2, note=66, velocity=0, time=0),
    Message('note_on', channel=2, note=62, velocity=0, time=0),
    Message('note_on', channel=2, note=50, velocity=127, time=1),
    Message('note_on', channel=2, note=66, velocity=127, time=0),
    Message('note_on', channel=2, note=57, velocity=127, time=0),
    Message('note_on', channel=2, note=62, velocity=127, time=0),
    Message('note_on', channel=2, note=62, velocity=0, time=119),
    Message('note_on', channel=2, note=50, velocity=0, time=0),
    Message('note_on', channel=2, note=66, velocity=0, time=0),
    Message('note_on', channel=2, note=57, velocity=0, time=0),
    Message('note_on', channel=2, note=57, velocity=127, time=1),
    Message('note_on', channel=2, note=62, velocity=127, time=0),
    Message('note_on', channel=2, note=64, velocity=127, time=0),
    Message('note_on', channel=2, note=50, velocity=127, time=0),
    Message('note_on', channel=2, note=45, velocity=127, time=120),
    Message('note_on', channel=2, note=45, velocity=0, time=59),
    Message('note_on', channel=2, note=64, velocity=0, time=0),
    Message('note_on', channel=2, note=57, velocity=0, time=0),
    Message('note_on', channel=2, note=62, velocity=0, time=0),
    Message('note_on', channel=2, note=50, velocity=0, time=0),
    Message('note_on', channel=2, note=61, velocity=127, time=1),
    Message('note_on', channel=2, note=57, velocity=127, time=0),
    Message('note_on', channel=2, note=52, velocity=127, time=0),
    Message('note_on', channel=2, note=45, velocity=127, time=0),
    Message('note_on', channel=2, note=45, velocity=0, time=119),
    Message('note_on', channel=2, note=61, velocity=0, time=0),
    Message('note_on', channel=2, note=57, velocity=0, time=0),
    Message('note_on', channel=2, note=52, velocity=0, time=0),
    Message('note_on', channel=2, note=61, velocity=127, time=1),
    Message('note_on', channel=2, note=57, velocity=127, time=0),
    Message('note_on', channel=2, note=52, velocity=127, time=0),
    Message('note_on', channel=2, note=45, velocity=127, time=0),
    Message('note_on', channel=2, note=45, velocity=0, time=59),
    Message('note_on', channel=2, note=61, velocity=0, time=0),
    Message('note_on', channel=2, note=57, velocity=0, time=0),
    Message('note_on', channel=2, note=52, velocity=0, time=0),
    Message('note_on', channel=2, note=45, velocity=127, time=1),
    Message('note_on', channel=2, note=52, velocity=127, time=0),
    Message('note_on', channel=2, note=61, velocity=127, time=0),
    Message('note_on', channel=2, note=57, velocity=127, time=0),
    Message('note_on', channel=2, note=57, velocity=0, time=59),
    Message('note_on', channel=2, note=45, velocity=0, time=0),
    Message('note_on', channel=2, note=52, velocity=0, time=0),
    Message('note_on', channel=2, note=61, velocity=0, time=0),
    Message('note_on', channel=2, note=43, velocity=127, time=1),
    Message('note_on', channel=2, note=67, velocity=127, time=0),
    Message('note_on', channel=2, note=62, velocity=127, time=0),
    Message('note_on', channel=2, note=55, velocity=127, time=0),
    Message('note_on', channel=2, note=50, velocity=127, time=0),
    Message('note_on', channel=2, note=47, velocity=127, time=0),
    Message('note_on', channel=2, note=47, velocity=0, time=119),
    Message('note_on', channel=2, note=67, velocity=0, time=0),
    Message('note_on', channel=2, note=62, velocity=0, time=0),
    Message('note_on', channel=2, note=43, velocity=0, time=0),
    Message('note_on', channel=2, note=50, velocity=0, time=0),
    Message('note_on', channel=2, note=55, velocity=0, time=0),
    Message('note_on', channel=2, note=67, velocity=127, time=1),
    Message('note_on', channel=2, note=62, velocity=127, time=0),
    Message('note_on', channel=2, note=55, velocity=127, time=0),
    Message('note_on', channel=2, note=50, velocity=127, time=0),
    Message('note_on', channel=2, note=47, velocity=127, time=0),
    Message('note_on', channel=2, note=43, velocity=127, time=0),
    Message('note_on', channel=2, note=43, velocity=0, time=59),
    Message('note_on', channel=2, note=62, velocity=0, time=0),
    Message('note_on', channel=2, note=55, velocity=0, time=0),
    Message('note_on', channel=2, note=67, velocity=0, time=0),
    Message('note_on', channel=2, note=47, velocity=0, time=0),
    Message('note_on', channel=2, note=50, velocity=0, time=0),
    Message('note_on', channel=2, note=67, velocity=127, time=1),
    Message('note_on', channel=2, note=62, velocity=127, time=0),
    Message('note_on', channel=2, note=55, velocity=127, time=0),
    Message('note_on', channel=2, note=50, velocity=127, time=0),
    Message('note_on', channel=2, note=47, velocity=127, time=0),
    Message('note_on', channel=2, note=43, velocity=127, time=0),
    Message('note_on', channel=2, note=43, velocity=0, time=59),
    Message('note_on', channel=2, note=62, velocity=0, time=0),
    Message('note_on', channel=2, note=55, velocity=0, time=0),
    Message('note_on', channel=2, note=67, velocity=0, time=0),
    Message('note_on', channel=2, note=47, velocity=0, time=0),
    Message('note_on', channel=2, note=50, velocity=0, time=0),
    Message('note_on', channel=2, note=50, velocity=127, time=1),
    Message('note_on', channel=2, note=66, velocity=127, time=0),
    Message('note_on', channel=2, note=62, velocity=127, time=0),
    Message('note_on', channel=2, note=57, velocity=127, time=0),
    Message('note_on', channel=2, note=57, velocity=0, time=179),
    Message('note_on', channel=2, note=50, velocity=0, time=0),
    Message('note_on', channel=2, note=66, velocity=0, time=0),
    Message('note_on', channel=2, note=62, velocity=0, time=0),
    Message('note_on', channel=2, note=50, velocity=127, time=1),
    Message('note_on', channel=2, note=66, velocity=127, time=0),
    Message('note_on', channel=2, note=57, velocity=127, time=0),
    Message('note_on', channel=2, note=62, velocity=127, time=0),
    Message('note_on', channel=2, note=62, velocity=0, time=119),
    Message('note_on', channel=2, note=50, velocity=0, time=0),
    Message('note_on', channel=2, note=66, velocity=0, time=0),
    Message('note_on', channel=2, note=57, velocity=0, time=0),
    Message('note_on', channel=2, note=57, velocity=127, time=1),
    Message('note_on', channel=2, note=62, velocity=127, time=0),
    Message('note_on', channel=2, note=64, velocity=127, time=0),
    Message('note_on', channel=2, note=50, velocity=127, time=0),
    Message('note_on', channel=2, note=45, velocity=127, time=120),
    Message('note_on', channel=2, note=45, velocity=0, time=59),
    Message('note_on', channel=2, note=64, velocity=0, time=0),
    Message('note_on', channel=2, note=57, velocity=0, time=0),
    Message('note_on', channel=2, note=62, velocity=0, time=0),
    Message('note_on', channel=2, note=50, velocity=0, time=0),
    Message('note_on', channel=2, note=61, velocity=127, time=1),
    Message('note_on', channel=2, note=57, velocity=127, time=0),
    Message('note_on', channel=2, note=52, velocity=127, time=0),
    Message('note_on', channel=2, note=45, velocity=127, time=0),
    Message('note_on', channel=2, note=45, velocity=0, time=119),
    Message('note_on', channel=2, note=61, velocity=0, time=0),
    Message('note_on', channel=2, note=57, velocity=0, time=0),
    Message('note_on', channel=2, note=52, velocity=0, time=0),
    Message('note_on', channel=2, note=61, velocity=127, time=1),
    Message('note_on', channel=2, note=57, velocity=127, time=0),
    Message('note_on', channel=2, note=52, velocity=127, time=0),
    Message('note_on', channel=2, note=45, velocity=127, time=0),
    Message('note_on', channel=2, note=45, velocity=0, time=59),
    Message('note_on', channel=2, note=61, velocity=0, time=0),
    Message('note_on', channel=2, note=57, velocity=0, time=0),
    Message('note_on', channel=2, note=52, velocity=0, time=0),
    Message('note_on', channel=2, note=45, velocity=127, time=1),
    Message('note_on', channel=2, note=52, velocity=127, time=0),
    Message('note_on', channel=2, note=61, velocity=127, time=0),
    Message('note_on', channel=2, note=57, velocity=127, time=0),
    Message('note_on', channel=2, note=57, velocity=0, time=59),
    Message('note_on', channel=2, note=45, velocity=0, time=0),
    Message('note_on', channel=2, note=52, velocity=0, time=0),
    Message('note_on', channel=2, note=61, velocity=0, time=0),
    Message('note_on', channel=2, note=43, velocity=127, time=1),
    Message('note_on', channel=2, note=67, velocity=127, time=0),
    Message('note_on', channel=2, note=62, velocity=127, time=0),
    Message('note_on', channel=2, note=55, velocity=127, time=0),
    Message('note_on', channel=2, note=50, velocity=127, time=0),
    Message('note_on', channel=2, note=47, velocity=127, time=0),
    Message('note_on', channel=2, note=47, velocity=0, time=119),
    Message('note_on', channel=2, note=67, velocity=0, time=0),
    Message('note_on', channel=2, note=62, velocity=0, time=0),
    Message('note_on', channel=2, note=43, velocity=0, time=0),
    Message('note_on', channel=2, note=50, velocity=0, time=0),
    Message('note_on', channel=2, note=55, velocity=0, time=0),
    Message('note_on', channel=2, note=67, velocity=127, time=1),
    Message('note_on', channel=2, note=62, velocity=127, time=0),
    Message('note_on', channel=2, note=55, velocity=127, time=0),
    Message('note_on', channel=2, note=50, velocity=127, time=0),
    Message('note_on', channel=2, note=47, velocity=127, time=0),
    Message('note_on', channel=2, note=43, velocity=127, time=0),
    Message('note_on', channel=2, note=43, velocity=0, time=59),
    Message('note_on', channel=2, note=62, velocity=0, time=0),
    Message('note_on', channel=2, note=55, velocity=0, time=0),
    Message('note_on', channel=2, note=67, velocity=0, time=0),
    Message('note_on', channel=2, note=47, velocity=0, time=0),
    Message('note_on', channel=2, note=50, velocity=0, time=0),
    Message('note_on', channel=2, note=67, velocity=127, time=1),
    Message('note_on', channel=2, note=62, velocity=127, time=0),
    Message('note_on', channel=2, note=55, velocity=127, time=0),
    Message('note_on', channel=2, note=50, velocity=127, time=0),
    Message('note_on', channel=2, note=47, velocity=127, time=0),
    Message('note_on', channel=2, note=43, velocity=127, time=0),
    Message('note_on', channel=2, note=43, velocity=0, time=59),
    Message('note_on', channel=2, note=62, velocity=0, time=0),
    Message('note_on', channel=2, note=55, velocity=0, time=0),
    Message('note_on', channel=2, note=67, velocity=0, time=0),
    Message('note_on', channel=2, note=47, velocity=0, time=0),
    Message('note_on', channel=2, note=50, velocity=0, time=0),
    Message('note_on', channel=2, note=50, velocity=127, time=1),
    Message('note_on', channel=2, note=66, velocity=127, time=0),
    Message('note_on', channel=2, note=62, velocity=127, time=0),
    Message('note_on', channel=2, note=57, velocity=127, time=0),
    Message('note_on', channel=2, note=57, velocity=0, time=179),
    Message('note_on', channel=2, note=50, velocity=0, time=0),
    Message('note_on', channel=2, note=66, velocity=0, time=0),
    Message('note_on', channel=2, note=62, velocity=0, time=0),
    Message('note_on', channel=2, note=50, velocity=127, time=1),
    Message('note_on', channel=2, note=66, velocity=127, time=0),
    Message('note_on', channel=2, note=57, velocity=127, time=0),
    Message('note_on', channel=2, note=62, velocity=127, time=0),
    Message('note_on', channel=2, note=62, velocity=0, time=119),
    Message('note_on', channel=2, note=50, velocity=0, time=0),
    Message('note_on', channel=2, note=66, velocity=0, time=0),
    Message('note_on', channel=2, note=57, velocity=0, time=0),
    Message('note_on', channel=2, note=57, velocity=127, time=1),
    Message('note_on', channel=2, note=62, velocity=127, time=0),
    Message('note_on', channel=2, note=64, velocity=127, time=0),
    Message('note_on', channel=2, note=50, velocity=127, time=0),
    Message('note_on', channel=2, note=45, velocity=127, time=120),
    Message('note_on', channel=2, note=45, velocity=0, time=59),
    Message('note_on', channel=2, note=64, velocity=0, time=0),
    Message('note_on', channel=2, note=57, velocity=0, time=0),
    Message('note_on', channel=2, note=62, velocity=0, time=0),
    Message('note_on', channel=2, note=50, velocity=0, time=0),
    Message('note_on', channel=2, note=61, velocity=127, time=1),
    Message('note_on', channel=2, note=57, velocity=127, time=0),
    Message('note_on', channel=2, note=52, velocity=127, time=0),
    Message('note_on', channel=2, note=45, velocity=127, time=0),
    Message('note_on', channel=2, note=45, velocity=0, time=119),
    Message('note_on', channel=2, note=61, velocity=0, time=0),
    Message('note_on', channel=2, note=57, velocity=0, time=0),
    Message('note_on', channel=2, note=52, velocity=0, time=0),
    Message('note_on', channel=2, note=61, velocity=127, time=1),
    Message('note_on', channel=2, note=57, velocity=127, time=0),
    Message('note_on', channel=2, note=52, velocity=127, time=0),
    Message('note_on', channel=2, note=45, velocity=127, time=0),
    Message('note_on', channel=2, note=45, velocity=0, time=59),
    Message('note_on', channel=2, note=61, velocity=0, time=0),
    Message('note_on', channel=2, note=57, velocity=0, time=0),
    Message('note_on', channel=2, note=52, velocity=0, time=0),
    Message('note_on', channel=2, note=45, velocity=127, time=1),
    Message('note_on', channel=2, note=52, velocity=127, time=0),
    Message('note_on', channel=2, note=61, velocity=127, time=0),
    Message('note_on', channel=2, note=57, velocity=127, time=0),
    Message('note_on', channel=2, note=57, velocity=0, time=59),
    Message('note_on', channel=2, note=45, velocity=0, time=0),
    Message('note_on', channel=2, note=52, velocity=0, time=0),
    Message('note_on', channel=2, note=61, velocity=0, time=0),
    Message('note_on', channel=2, note=43, velocity=127, time=1),
    Message('note_on', channel=2, note=67, velocity=127, time=0),
    Message('note_on', channel=2, note=62, velocity=127, time=0),
    Message('note_on', channel=2, note=55, velocity=127, time=0),
    Message('note_on', channel=2, note=50, velocity=127, time=0),
    Message('note_on', channel=2, note=47, velocity=127, time=0),
    Message('note_on', channel=2, note=47, velocity=0, time=119),
    Message('note_on', channel=2, note=67, velocity=0, time=0),
    Message('note_on', channel=2, note=62, velocity=0, time=0),
    Message('note_on', channel=2, note=43, velocity=0, time=0),
    Message('note_on', channel=2, note=50, velocity=0, time=0),
    Message('note_on', channel=2, note=55, velocity=0, time=0),
    Message('note_on', channel=2, note=67, velocity=127, time=1),
    Message('note_on', channel=2, note=62, velocity=127, time=0),
    Message('note_on', channel=2, note=55, velocity=127, time=0),
    Message('note_on', channel=2, note=50, velocity=127, time=0),
    Message('note_on', channel=2, note=47, velocity=127, time=0),
    Message('note_on', channel=2, note=43, velocity=127, time=0),
    Message('note_on', channel=2, note=43, velocity=0, time=59),
    Message('note_on', channel=2, note=62, velocity=0, time=0),
    Message('note_on', channel=2, note=55, velocity=0, time=0),
    Message('note_on', channel=2, note=67, velocity=0, time=0),
    Message('note_on', channel=2, note=47, velocity=0, time=0),
    Message('note_on', channel=2, note=50, velocity=0, time=0),
    Message('note_on', channel=2, note=67, velocity=127, time=1),
    Message('note_on', channel=2, note=62, velocity=127, time=0),
    Message('note_on', channel=2, note=55, velocity=127, time=0),
    Message('note_on', channel=2, note=50, velocity=127, time=0),
    Message('note_on', channel=2, note=47, velocity=127, time=0),
    Message('note_on', channel=2, note=43, velocity=127, time=0),
    Message('note_on', channel=2, note=43, velocity=0, time=59),
    Message('note_on', channel=2, note=62, velocity=0, time=0),
    Message('note_on', channel=2, note=55, velocity=0, time=0),
    Message('note_on', channel=2, note=67, velocity=0, time=0),
    Message('note_on', channel=2, note=47, velocity=0, time=0),
    Message('note_on', channel=2, note=50, velocity=0, time=0),
    Message('note_on', channel=2, note=50, velocity=127, time=1),
    Message('note_on', channel=2, note=66, velocity=127, time=0),
    Message('note_on', channel=2, note=62, velocity=127, time=0),
    Message('note_on', channel=2, note=57, velocity=127, time=0),
    Message('note_on', channel=2, note=57, velocity=0, time=179),
    Message('note_on', channel=2, note=50, velocity=0, time=0),
    Message('note_on', channel=2, note=66, velocity=0, time=0),
    Message('note_on', channel=2, note=62, velocity=0, time=0),
    Message('note_on', channel=2, note=50, velocity=127, time=1),
    Message('note_on', channel=2, note=66, velocity=127, time=0),
    Message('note_on', channel=2, note=57, velocity=127, time=0),
    Message('note_on', channel=2, note=62, velocity=127, time=0),
    Message('note_on', channel=2, note=62, velocity=0, time=119),
    Message('note_on', channel=2, note=50, velocity=0, time=0),
    Message('note_on', channel=2, note=66, velocity=0, time=0),
    Message('note_on', channel=2, note=57, velocity=0, time=0),
    Message('note_on', channel=2, note=57, velocity=127, time=1),
    Message('note_on', channel=2, note=62, velocity=127, time=0),
    Message('note_on', channel=2, note=64, velocity=127, time=0),
    Message('note_on', channel=2, note=50, velocity=127, time=0),
    Message('note_on', channel=2, note=45, velocity=127, time=120),
    Message('note_on', channel=2, note=45, velocity=0, time=59),
    Message('note_on', channel=2, note=64, velocity=0, time=0),
    Message('note_on', channel=2, note=57, velocity=0, time=0),
    Message('note_on', channel=2, note=62, velocity=0, time=0),
    Message('note_on', channel=2, note=50, velocity=0, time=0),
    Message('note_on', channel=2, note=61, velocity=127, time=1),
    Message('note_on', channel=2, note=57, velocity=127, time=0),
    Message('note_on', channel=2, note=52, velocity=127, time=0),
    Message('note_on', channel=2, note=45, velocity=127, time=0),
    Message('note_on', channel=2, note=45, velocity=0, time=119),
    Message('note_on', channel=2, note=61, velocity=0, time=0),
    Message('note_on', channel=2, note=57, velocity=0, time=0),
    Message('note_on', channel=2, note=52, velocity=0, time=0),
    Message('note_on', channel=2, note=61, velocity=127, time=1),
    Message('note_on', channel=2, note=57, velocity=127, time=0),
    Message('note_on', channel=2, note=52, velocity=127, time=0),
    Message('note_on', channel=2, note=45, velocity=127, time=0),
    Message('note_on', channel=2, note=45, velocity=0, time=59),
    Message('note_on', channel=2, note=61, velocity=0, time=0),
    Message('note_on', channel=2, note=57, velocity=0, time=0),
    Message('note_on', channel=2, note=52, velocity=0, time=0),
    Message('note_on', channel=2, note=45, velocity=127, time=1),
    Message('note_on', channel=2, note=52, velocity=127, time=0),
    Message('note_on', channel=2, note=61, velocity=127, time=0),
    Message('note_on', channel=2, note=57, velocity=127, time=0),
    Message('note_on', channel=2, note=57, velocity=0, time=59),
    Message('note_on', channel=2, note=45, velocity=0, time=0),
    Message('note_on', channel=2, note=52, velocity=0, time=0),
    Message('note_on', channel=2, note=61, velocity=0, time=0),
    Message('note_on', channel=2, note=43, velocity=127, time=1),
    Message('note_on', channel=2, note=67, velocity=127, time=0),
    Message('note_on', channel=2, note=62, velocity=127, time=0),
    Message('note_on', channel=2, note=55, velocity=127, time=0),
    Message('note_on', channel=2, note=50, velocity=127, time=0),
    Message('note_on', channel=2, note=47, velocity=127, time=0),
    Message('note_on', channel=2, note=47, velocity=0, time=119),
    Message('note_on', channel=2, note=67, velocity=0, time=0),
    Message('note_on', channel=2, note=62, velocity=0, time=0),
    Message('note_on', channel=2, note=43, velocity=0, time=0),
    Message('note_on', channel=2, note=50, velocity=0, time=0),
    Message('note_on', channel=2, note=55, velocity=0, time=0),
    Message('note_on', channel=2, note=67, velocity=127, time=1),
    Message('note_on', channel=2, note=62, velocity=127, time=0),
    Message('note_on', channel=2, note=55, velocity=127, time=0),
    Message('note_on', channel=2, note=50, velocity=127, time=0),
    Message('note_on', channel=2, note=47, velocity=127, time=0),
    Message('note_on', channel=2, note=43, velocity=127, time=0),
    Message('note_on', channel=2, note=43, velocity=0, time=59),
    Message('note_on', channel=2, note=62, velocity=0, time=0),
    Message('note_on', channel=2, note=55, velocity=0, time=0),
    Message('note_on', channel=2, note=67, velocity=0, time=0),
    Message('note_on', channel=2, note=47, velocity=0, time=0),
    Message('note_on', channel=2, note=50, velocity=0, time=0),
    Message('note_on', channel=2, note=67, velocity=127, time=1),
    Message('note_on', channel=2, note=62, velocity=127, time=0),
    Message('note_on', channel=2, note=55, velocity=127, time=0),
    Message('note_on', channel=2, note=50, velocity=127, time=0),
    Message('note_on', channel=2, note=47, velocity=127, time=0),
    Message('note_on', channel=2, note=43, velocity=127, time=0),
    Message('note_on', channel=2, note=43, velocity=0, time=59),
    Message('note_on', channel=2, note=62, velocity=0, time=0),
    Message('note_on', channel=2, note=55, velocity=0, time=0),
    Message('note_on', channel=2, note=67, velocity=0, time=0),
    Message('note_on', channel=2, note=47, velocity=0, time=0),
    Message('note_on', channel=2, note=50, velocity=0, time=0),
    Message('note_on', channel=2, note=50, velocity=127, time=1),
    Message('note_on', channel=2, note=66, velocity=127, time=0),
    Message('note_on', channel=2, note=62, velocity=127, time=0),
    Message('note_on', channel=2, note=57, velocity=127, time=0),
    Message('note_on', channel=2, note=57, velocity=0, time=179),
    Message('note_on', channel=2, note=50, velocity=0, time=0),
    Message('note_on', channel=2, note=66, velocity=0, time=0),
    Message('note_on', channel=2, note=62, velocity=0, time=0),
    Message('note_on', channel=2, note=50, velocity=127, time=1),
    Message('note_on', channel=2, note=66, velocity=127, time=0),
    Message('note_on', channel=2, note=57, velocity=127, time=0),
    Message('note_on', channel=2, note=62, velocity=127, time=0),
    Message('note_on', channel=2, note=62, velocity=0, time=119),
    Message('note_on', channel=2, note=50, velocity=0, time=0),
    Message('note_on', channel=2, note=66, velocity=0, time=0),
    Message('note_on', channel=2, note=57, velocity=0, time=0),
    Message('note_on', channel=2, note=57, velocity=127, time=1),
    Message('note_on', channel=2, note=62, velocity=127, time=0),
    Message('note_on', channel=2, note=64, velocity=127, time=0),
    Message('note_on', channel=2, note=50, velocity=127, time=0),
    Message('note_on', channel=2, note=45, velocity=127, time=120),
    Message('note_on', channel=2, note=45, velocity=0, time=59),
    Message('note_on', channel=2, note=64, velocity=0, time=0),
    Message('note_on', channel=2, note=57, velocity=0, time=0),
    Message('note_on', channel=2, note=62, velocity=0, time=0),
    Message('note_on', channel=2, note=50, velocity=0, time=0),
    Message('note_on', channel=2, note=61, velocity=127, time=1),
    Message('note_on', channel=2, note=57, velocity=127, time=0),
    Message('note_on', channel=2, note=52, velocity=127, time=0),
    Message('note_on', channel=2, note=45, velocity=127, time=0),
    Message('note_on', channel=2, note=45, velocity=0, time=119),
    Message('note_on', channel=2, note=61, velocity=0, time=0),
    Message('note_on', channel=2, note=57, velocity=0, time=0),
    Message('note_on', channel=2, note=52, velocity=0, time=0),
    Message('note_on', channel=2, note=61, velocity=127, time=1),
    Message('note_on', channel=2, note=57, velocity=127, time=0),
    Message('note_on', channel=2, note=52, velocity=127, time=0),
    Message('note_on', channel=2, note=45, velocity=127, time=0),
    Message('note_on', channel=2, note=45, velocity=0, time=59),
    Message('note_on', channel=2, note=61, velocity=0, time=0),
    Message('note_on', channel=2, note=57, velocity=0, time=0),
    Message('note_on', channel=2, note=52, velocity=0, time=0),
    Message('note_on', channel=2, note=45, velocity=127, time=1),
    Message('note_on', channel=2, note=52, velocity=127, time=0),
    Message('note_on', channel=2, note=61, velocity=127, time=0),
    Message('note_on', channel=2, note=57, velocity=127, time=0),
    Message('note_on', channel=2, note=57, velocity=0, time=59),
    Message('note_on', channel=2, note=45, velocity=0, time=0),
    Message('note_on', channel=2, note=52, velocity=0, time=0),
    Message('note_on', channel=2, note=61, velocity=0, time=0),
    Message('note_on', channel=2, note=43, velocity=127, time=1),
    Message('note_on', channel=2, note=67, velocity=127, time=0),
    Message('note_on', channel=2, note=62, velocity=127, time=0),
    Message('note_on', channel=2, note=55, velocity=127, time=0),
    Message('note_on', channel=2, note=50, velocity=127, time=0),
    Message('note_on', channel=2, note=47, velocity=127, time=0),
    Message('note_on', channel=2, note=47, velocity=0, time=119),
    Message('note_on', channel=2, note=67, velocity=0, time=0),
    Message('note_on', channel=2, note=62, velocity=0, time=0),
    Message('note_on', channel=2, note=43, velocity=0, time=0),
    Message('note_on', channel=2, note=50, velocity=0, time=0),
    Message('note_on', channel=2, note=55, velocity=0, time=0),
    Message('note_on', channel=2, note=67, velocity=127, time=1),
    Message('note_on', channel=2, note=62, velocity=127, time=0),
    Message('note_on', channel=2, note=55, velocity=127, time=0),
    Message('note_on', channel=2, note=50, velocity=127, time=0),
    Message('note_on', channel=2, note=47, velocity=127, time=0),
    Message('note_on', channel=2, note=43, velocity=127, time=0),
    Message('note_on', channel=2, note=43, velocity=0, time=59),
    Message('note_on', channel=2, note=62, velocity=0, time=0),
    Message('note_on', channel=2, note=55, velocity=0, time=0),
    Message('note_on', channel=2, note=67, velocity=0, time=0),
    Message('note_on', channel=2, note=47, velocity=0, time=0),
    Message('note_on', channel=2, note=50, velocity=0, time=0),
    Message('note_on', channel=2, note=67, velocity=127, time=1),
    Message('note_on', channel=2, note=62, velocity=127, time=0),
    Message('note_on', channel=2, note=55, velocity=127, time=0),
    Message('note_on', channel=2, note=50, velocity=127, time=0),
    Message('note_on', channel=2, note=47, velocity=127, time=0),
    Message('note_on', channel=2, note=43, velocity=127, time=0),
    Message('note_on', channel=2, note=43, velocity=0, time=59),
    Message('note_on', channel=2, note=62, velocity=0, time=0),
    Message('note_on', channel=2, note=55, velocity=0, time=0),
    Message('note_on', channel=2, note=67, velocity=0, time=0),
    Message('note_on', channel=2, note=47, velocity=0, time=0),
    Message('note_on', channel=2, note=50, velocity=0, time=0),
    Message('note_on', channel=2, note=50, velocity=127, time=1),
    Message('note_on', channel=2, note=66, velocity=127, time=0),
    Message('note_on', channel=2, note=62, velocity=127, time=0),
    Message('note_on', channel=2, note=57, velocity=127, time=0),
    Message('note_on', channel=2, note=57, velocity=0, time=179),
    Message('note_on', channel=2, note=50, velocity=0, time=0),
    Message('note_on', channel=2, note=66, velocity=0, time=0),
    Message('note_on', channel=2, note=62, velocity=0, time=0),
    Message('note_on', channel=2, note=50, velocity=127, time=1),
    Message('note_on', channel=2, note=66, velocity=127, time=0),
    Message('note_on', channel=2, note=57, velocity=127, time=0),
    Message('note_on', channel=2, note=62, velocity=127, time=0),
    Message('note_on', channel=2, note=62, velocity=0, time=119),
    Message('note_on', channel=2, note=50, velocity=0, time=0),
    Message('note_on', channel=2, note=66, velocity=0, time=0),
    Message('note_on', channel=2, note=57, velocity=0, time=0),
    Message('note_on', channel=2, note=57, velocity=127, time=1),
    Message('note_on', channel=2, note=62, velocity=127, time=0),
    Message('note_on', channel=2, note=64, velocity=127, time=0),
    Message('note_on', channel=2, note=50, velocity=127, time=0),
    Message('note_on', channel=2, note=45, velocity=127, time=120),
    Message('note_on', channel=2, note=45, velocity=0, time=59),
    Message('note_on', channel=2, note=64, velocity=0, time=0),
    Message('note_on', channel=2, note=57, velocity=0, time=0),
    Message('note_on', channel=2, note=62, velocity=0, time=0),
    Message('note_on', channel=2, note=50, velocity=0, time=0),
    Message('note_on', channel=2, note=61, velocity=127, time=1),
    Message('note_on', channel=2, note=57, velocity=127, time=0),
    Message('note_on', channel=2, note=52, velocity=127, time=0),
    Message('note_on', channel=2, note=45, velocity=127, time=0),
    Message('note_on', channel=2, note=45, velocity=0, time=119),
    Message('note_on', channel=2, note=61, velocity=0, time=0),
    Message('note_on', channel=2, note=57, velocity=0, time=0),
    Message('note_on', channel=2, note=52, velocity=0, time=0),
    Message('note_on', channel=2, note=61, velocity=127, time=1),
    Message('note_on', channel=2, note=57, velocity=127, time=0),
    Message('note_on', channel=2, note=52, velocity=127, time=0),
    Message('note_on', channel=2, note=45, velocity=127, time=0),
    Message('note_on', channel=2, note=45, velocity=0, time=59),
    Message('note_on', channel=2, note=61, velocity=0, time=0),
    Message('note_on', channel=2, note=57, velocity=0, time=0),
    Message('note_on', channel=2, note=52, velocity=0, time=0),
    Message('note_on', channel=2, note=45, velocity=127, time=1),
    Message('note_on', channel=2, note=52, velocity=127, time=0),
    Message('note_on', channel=2, note=61, velocity=127, time=0),
    Message('note_on', channel=2, note=57, velocity=127, time=0),
    Message('note_on', channel=2, note=57, velocity=0, time=59),
    Message('note_on', channel=2, note=45, velocity=0, time=0),
    Message('note_on', channel=2, note=52, velocity=0, time=0),
    Message('note_on', channel=2, note=61, velocity=0, time=0),
    Message('note_on', channel=2, note=43, velocity=127, time=1),
    Message('note_on', channel=2, note=67, velocity=127, time=0),
    Message('note_on', channel=2, note=62, velocity=127, time=0),
    Message('note_on', channel=2, note=55, velocity=127, time=0),
    Message('note_on', channel=2, note=50, velocity=127, time=0),
    Message('note_on', channel=2, note=47, velocity=127, time=0),
    Message('note_on', channel=2, note=47, velocity=0, time=119),
    Message('note_on', channel=2, note=67, velocity=0, time=0),
    Message('note_on', channel=2, note=62, velocity=0, time=0),
    Message('note_on', channel=2, note=43, velocity=0, time=0),
    Message('note_on', channel=2, note=50, velocity=0, time=0),
    Message('note_on', channel=2, note=55, velocity=0, time=0),
    Message('note_on', channel=2, note=67, velocity=127, time=1),
    Message('note_on', channel=2, note=62, velocity=127, time=0),
    Message('note_on', channel=2, note=55, velocity=127, time=0),
    Message('note_on', channel=2, note=50, velocity=127, time=0),
    Message('note_on', channel=2, note=47, velocity=127, time=0),
    Message('note_on', channel=2, note=43, velocity=127, time=0),
    Message('note_on', channel=2, note=43, velocity=0, time=59),
    Message('note_on', channel=2, note=62, velocity=0, time=0),
    Message('note_on', channel=2, note=55, velocity=0, time=0),
    Message('note_on', channel=2, note=67, velocity=0, time=0),
    Message('note_on', channel=2, note=47, velocity=0, time=0),
    Message('note_on', channel=2, note=50, velocity=0, time=0),
    Message('note_on', channel=2, note=67, velocity=127, time=1),
    Message('note_on', channel=2, note=62, velocity=127, time=0),
    Message('note_on', channel=2, note=55, velocity=127, time=0),
    Message('note_on', channel=2, note=50, velocity=127, time=0),
    Message('note_on', channel=2, note=47, velocity=127, time=0),
    Message('note_on', channel=2, note=43, velocity=127, time=0),
    Message('note_on', channel=2, note=43, velocity=0, time=59),
    Message('note_on', channel=2, note=62, velocity=0, time=0),
    Message('note_on', channel=2, note=55, velocity=0, time=0),
    Message('note_on', channel=2, note=67, velocity=0, time=0),
    Message('note_on', channel=2, note=47, velocity=0, time=0),
    Message('note_on', channel=2, note=50, velocity=0, time=0),
    Message('note_on', channel=2, note=50, velocity=127, time=1),
    Message('note_on', channel=2, note=66, velocity=127, time=0),
    Message('note_on', channel=2, note=62, velocity=127, time=0),
    Message('note_on', channel=2, note=57, velocity=127, time=0),
    Message('note_on', channel=2, note=57, velocity=0, time=179),
    Message('note_on', channel=2, note=50, velocity=0, time=0),
    Message('note_on', channel=2, note=66, velocity=0, time=0),
    Message('note_on', channel=2, note=62, velocity=0, time=0),
    Message('note_on', channel=2, note=50, velocity=127, time=1),
    Message('note_on', channel=2, note=66, velocity=127, time=0),
    Message('note_on', channel=2, note=57, velocity=127, time=0),
    Message('note_on', channel=2, note=62, velocity=127, time=0),
    Message('note_on', channel=2, note=62, velocity=0, time=119),
    Message('note_on', channel=2, note=50, velocity=0, time=0),
    Message('note_on', channel=2, note=66, velocity=0, time=0),
    Message('note_on', channel=2, note=57, velocity=0, time=0),
    Message('note_on', channel=2, note=57, velocity=127, time=1),
    Message('note_on', channel=2, note=62, velocity=127, time=0),
    Message('note_on', channel=2, note=64, velocity=127, time=0),
    Message('note_on', channel=2, note=50, velocity=127, time=0),
    Message('note_on', channel=2, note=45, velocity=127, time=120),
    Message('note_on', channel=2, note=45, velocity=0, time=59),
    Message('note_on', channel=2, note=64, velocity=0, time=0),
    Message('note_on', channel=2, note=57, velocity=0, time=0),
    Message('note_on', channel=2, note=62, velocity=0, time=0),
    Message('note_on', channel=2, note=50, velocity=0, time=0),
    Message('note_on', channel=2, note=61, velocity=127, time=1),
    Message('note_on', channel=2, note=57, velocity=127, time=0),
    Message('note_on', channel=2, note=52, velocity=127, time=0),
    Message('note_on', channel=2, note=45, velocity=127, time=0),
    Message('note_on', channel=2, note=45, velocity=0, time=119),
    Message('note_on', channel=2, note=61, velocity=0, time=0),
    Message('note_on', channel=2, note=57, velocity=0, time=0),
    Message('note_on', channel=2, note=52, velocity=0, time=0),
    Message('note_on', channel=2, note=61, velocity=127, time=1),
    Message('note_on', channel=2, note=57, velocity=127, time=0),
    Message('note_on', channel=2, note=52, velocity=127, time=0),
    Message('note_on', channel=2, note=45, velocity=127, time=0),
    Message('note_on', channel=2, note=45, velocity=0, time=59),
    Message('note_on', channel=2, note=61, velocity=0, time=0),
    Message('note_on', channel=2, note=57, velocity=0, time=0),
    Message('note_on', channel=2, note=52, velocity=0, time=0),
    Message('note_on', channel=2, note=45, velocity=127, time=1),
    Message('note_on', channel=2, note=52, velocity=127, time=0),
    Message('note_on', channel=2, note=61, velocity=127, time=0),
    Message('note_on', channel=2, note=57, velocity=127, time=0),
    Message('note_on', channel=2, note=57, velocity=0, time=59),
    Message('note_on', channel=2, note=45, velocity=0, time=0),
    Message('note_on', channel=2, note=52, velocity=0, time=0),
    Message('note_on', channel=2, note=61, velocity=0, time=0),
    Message('note_on', channel=2, note=43, velocity=127, time=1),
    Message('note_on', channel=2, note=67, velocity=127, time=0),
    Message('note_on', channel=2, note=62, velocity=127, time=0),
    Message('note_on', channel=2, note=55, velocity=127, time=0),
    Message('note_on', channel=2, note=50, velocity=127, time=0),
    Message('note_on', channel=2, note=47, velocity=127, time=0),
    Message('note_on', channel=2, note=47, velocity=0, time=119),
    Message('note_on', channel=2, note=67, velocity=0, time=0),
    Message('note_on', channel=2, note=62, velocity=0, time=0),
    Message('note_on', channel=2, note=43, velocity=0, time=0),
    Message('note_on', channel=2, note=50, velocity=0, time=0),
    Message('note_on', channel=2, note=55, velocity=0, time=0),
    Message('note_on', channel=2, note=67, velocity=127, time=1),
    Message('note_on', channel=2, note=62, velocity=127, time=0),
    Message('note_on', channel=2, note=55, velocity=127, time=0),
    Message('note_on', channel=2, note=50, velocity=127, time=0),
    Message('note_on', channel=2, note=47, velocity=127, time=0),
    Message('note_on', channel=2, note=43, velocity=127, time=0),
    Message('note_on', channel=2, note=43, velocity=0, time=59),
    Message('note_on', channel=2, note=62, velocity=0, time=0),
    Message('note_on', channel=2, note=55, velocity=0, time=0),
    Message('note_on', channel=2, note=67, velocity=0, time=0),
    Message('note_on', channel=2, note=47, velocity=0, time=0),
    Message('note_on', channel=2, note=50, velocity=0, time=0),
    Message('note_on', channel=2, note=67, velocity=127, time=1),
    Message('note_on', channel=2, note=62, velocity=127, time=0),
    Message('note_on', channel=2, note=55, velocity=127, time=0),
    Message('note_on', channel=2, note=50, velocity=127, time=0),
    Message('note_on', channel=2, note=47, velocity=127, time=0),
    Message('note_on', channel=2, note=43, velocity=127, time=0),
    Message('note_on', channel=2, note=43, velocity=0, time=59),
    Message('note_on', channel=2, note=62, velocity=0, time=0),
    Message('note_on', channel=2, note=55, velocity=0, time=0),
    Message('note_on', channel=2, note=67, velocity=0, time=0),
    Message('note_on', channel=2, note=47, velocity=0, time=0),
    Message('note_on', channel=2, note=50, velocity=0, time=0),
    Message('note_on', channel=2, note=50, velocity=127, time=1),
    Message('note_on', channel=2, note=66, velocity=127, time=0),
    Message('note_on', channel=2, note=62, velocity=127, time=0),
    Message('note_on', channel=2, note=57, velocity=127, time=0),
    Message('note_on', channel=2, note=57, velocity=0, time=179),
    Message('note_on', channel=2, note=50, velocity=0, time=0),
    Message('note_on', channel=2, note=66, velocity=0, time=0),
    Message('note_on', channel=2, note=62, velocity=0, time=0),
    Message('note_on', channel=2, note=50, velocity=127, time=1),
    Message('note_on', channel=2, note=66, velocity=127, time=0),
    Message('note_on', channel=2, note=57, velocity=127, time=0),
    Message('note_on', channel=2, note=62, velocity=127, time=0),
    Message('note_on', channel=2, note=62, velocity=0, time=119),
    Message('note_on', channel=2, note=50, velocity=0, time=0),
    Message('note_on', channel=2, note=66, velocity=0, time=0),
    Message('note_on', channel=2, note=57, velocity=0, time=0),
    Message('note_on', channel=2, note=57, velocity=127, time=1),
    Message('note_on', channel=2, note=62, velocity=127, time=0),
    Message('note_on', channel=2, note=64, velocity=127, time=0),
    Message('note_on', channel=2, note=50, velocity=127, time=0),
    Message('note_on', channel=2, note=45, velocity=127, time=120),
    Message('note_on', channel=2, note=45, velocity=0, time=59),
    Message('note_on', channel=2, note=64, velocity=0, time=0),
    Message('note_on', channel=2, note=57, velocity=0, time=0),
    Message('note_on', channel=2, note=62, velocity=0, time=0),
    Message('note_on', channel=2, note=50, velocity=0, time=0),
    Message('note_on', channel=2, note=61, velocity=127, time=1),
    Message('note_on', channel=2, note=57, velocity=127, time=0),
    Message('note_on', channel=2, note=52, velocity=127, time=0),
    Message('note_on', channel=2, note=45, velocity=127, time=0),
    Message('note_on', channel=2, note=45, velocity=0, time=119),
    Message('note_on', channel=2, note=61, velocity=0, time=0),
    Message('note_on', channel=2, note=57, velocity=0, time=0),
    Message('note_on', channel=2, note=52, velocity=0, time=0),
    Message('note_on', channel=2, note=61, velocity=127, time=1),
    Message('note_on', channel=2, note=57, velocity=127, time=0),
    Message('note_on', channel=2, note=52, velocity=127, time=0),
    Message('note_on', channel=2, note=45, velocity=127, time=0),
    Message('note_on', channel=2, note=45, velocity=0, time=59),
    Message('note_on', channel=2, note=61, velocity=0, time=0),
    Message('note_on', channel=2, note=57, velocity=0, time=0),
    Message('note_on', channel=2, note=52, velocity=0, time=0),
    Message('note_on', channel=2, note=45, velocity=127, time=1),
    Message('note_on', channel=2, note=52, velocity=127, time=0),
    Message('note_on', channel=2, note=61, velocity=127, time=0),
    Message('note_on', channel=2, note=57, velocity=127, time=0),
    Message('note_on', channel=2, note=57, velocity=0, time=59),
    Message('note_on', channel=2, note=45, velocity=0, time=0),
    Message('note_on', channel=2, note=52, velocity=0, time=0),
    Message('note_on', channel=2, note=61, velocity=0, time=0),
    Message('note_on', channel=2, note=43, velocity=127, time=1),
    Message('note_on', channel=2, note=67, velocity=127, time=0),
    Message('note_on', channel=2, note=62, velocity=127, time=0),
    Message('note_on', channel=2, note=55, velocity=127, time=0),
    Message('note_on', channel=2, note=50, velocity=127, time=0),
    Message('note_on', channel=2, note=47, velocity=127, time=0),
    Message('note_on', channel=2, note=47, velocity=0, time=119),
    Message('note_on', channel=2, note=67, velocity=0, time=0),
    Message('note_on', channel=2, note=62, velocity=0, time=0),
    Message('note_on', channel=2, note=43, velocity=0, time=0),
    Message('note_on', channel=2, note=50, velocity=0, time=0),
    Message('note_on', channel=2, note=55, velocity=0, time=0),
    Message('note_on', channel=2, note=67, velocity=127, time=1),
    Message('note_on', channel=2, note=62, velocity=127, time=0),
    Message('note_on', channel=2, note=55, velocity=127, time=0),
    Message('note_on', channel=2, note=50, velocity=127, time=0),
    Message('note_on', channel=2, note=47, velocity=127, time=0),
    Message('note_on', channel=2, note=43, velocity=127, time=0),
    Message('note_on', channel=2, note=43, velocity=0, time=59),
    Message('note_on', channel=2, note=62, velocity=0, time=0),
    Message('note_on', channel=2, note=55, velocity=0, time=0),
    Message('note_on', channel=2, note=67, velocity=0, time=0),
    Message('note_on', channel=2, note=47, velocity=0, time=0),
    Message('note_on', channel=2, note=50, velocity=0, time=0),
    Message('note_on', channel=2, note=67, velocity=127, time=1),
    Message('note_on', channel=2, note=62, velocity=127, time=0),
    Message('note_on', channel=2, note=55, velocity=127, time=0),
    Message('note_on', channel=2, note=50, velocity=127, time=0),
    Message('note_on', channel=2, note=47, velocity=127, time=0),
    Message('note_on', channel=2, note=43, velocity=127, time=0),
    Message('note_on', channel=2, note=43, velocity=0, time=59),
    Message('note_on', channel=2, note=62, velocity=0, time=0),
    Message('note_on', channel=2, note=55, velocity=0, time=0),
    Message('note_on', channel=2, note=67, velocity=0, time=0),
    Message('note_on', channel=2, note=47, velocity=0, time=0),
    Message('note_on', channel=2, note=50, velocity=0, time=0),
    Message('note_on', channel=2, note=50, velocity=127, time=1),
    Message('note_on', channel=2, note=66, velocity=127, time=0),
    Message('note_on', channel=2, note=62, velocity=127, time=0),
    Message('note_on', channel=2, note=57, velocity=127, time=0),
    Message('note_on', channel=2, note=57, velocity=0, time=179),
    Message('note_on', channel=2, note=50, velocity=0, time=0),
    Message('note_on', channel=2, note=66, velocity=0, time=0),
    Message('note_on', channel=2, note=62, velocity=0, time=0),
    Message('note_on', channel=2, note=50, velocity=127, time=1),
    Message('note_on', channel=2, note=66, velocity=127, time=0),
    Message('note_on', channel=2, note=57, velocity=127, time=0),
    Message('note_on', channel=2, note=62, velocity=127, time=0),
    Message('note_on', channel=2, note=62, velocity=0, time=119),
    Message('note_on', channel=2, note=50, velocity=0, time=0),
    Message('note_on', channel=2, note=66, velocity=0, time=0),
    Message('note_on', channel=2, note=57, velocity=0, time=0),
    Message('note_on', channel=2, note=57, velocity=127, time=1),
    Message('note_on', channel=2, note=62, velocity=127, time=0),
    Message('note_on', channel=2, note=64, velocity=127, time=0),
    Message('note_on', channel=2, note=50, velocity=127, time=0),
    Message('note_on', channel=2, note=45, velocity=127, time=120),
    Message('note_on', channel=2, note=45, velocity=0, time=59),
    Message('note_on', channel=2, note=64, velocity=0, time=0),
    Message('note_on', channel=2, note=57, velocity=0, time=0),
    Message('note_on', channel=2, note=62, velocity=0, time=0),
    Message('note_on', channel=2, note=50, velocity=0, time=0),
    Message('note_on', channel=2, note=61, velocity=127, time=1),
    Message('note_on', channel=2, note=57, velocity=127, time=0),
    Message('note_on', channel=2, note=52, velocity=127, time=0),
    Message('note_on', channel=2, note=45, velocity=127, time=0),
    Message('note_on', channel=2, note=45, velocity=0, time=119),
    Message('note_on', channel=2, note=61, velocity=0, time=0),
    Message('note_on', channel=2, note=57, velocity=0, time=0),
    Message('note_on', channel=2, note=52, velocity=0, time=0),
    Message('note_on', channel=2, note=61, velocity=127, time=1),
    Message('note_on', channel=2, note=57, velocity=127, time=0),
    Message('note_on', channel=2, note=52, velocity=127, time=0),
    Message('note_on', channel=2, note=45, velocity=127, time=0),
    Message('note_on', channel=2, note=45, velocity=0, time=59),
    Message('note_on', channel=2, note=61, velocity=0, time=0),
    Message('note_on', channel=2, note=57, velocity=0, time=0),
    Message('note_on', channel=2, note=52, velocity=0, time=0),
    Message('note_on', channel=2, note=45, velocity=127, time=1),
    Message('note_on', channel=2, note=52, velocity=127, time=0),
    Message('note_on', channel=2, note=61, velocity=127, time=0),
    Message('note_on', channel=2, note=57, velocity=127, time=0),
    Message('note_on', channel=2, note=57, velocity=0, time=59),
    Message('note_on', channel=2, note=45, velocity=0, time=0),
    Message('note_on', channel=2, note=52, velocity=0, time=0),
    Message('note_on', channel=2, note=61, velocity=0, time=0),
    Message('note_on', channel=2, note=43, velocity=127, time=1),
    Message('note_on', channel=2, note=67, velocity=127, time=0),
    Message('note_on', channel=2, note=62, velocity=127, time=0),
    Message('note_on', channel=2, note=55, velocity=127, time=0),
    Message('note_on', channel=2, note=50, velocity=127, time=0),
    Message('note_on', channel=2, note=47, velocity=127, time=0),
    Message('note_on', channel=2, note=47, velocity=0, time=119),
    Message('note_on', channel=2, note=67, velocity=0, time=0),
    Message('note_on', channel=2, note=62, velocity=0, time=0),
    Message('note_on', channel=2, note=43, velocity=0, time=0),
    Message('note_on', channel=2, note=50, velocity=0, time=0),
    Message('note_on', channel=2, note=55, velocity=0, time=0),
    Message('note_on', channel=2, note=67, velocity=127, time=1),
    Message('note_on', channel=2, note=62, velocity=127, time=0),
    Message('note_on', channel=2, note=55, velocity=127, time=0),
    Message('note_on', channel=2, note=50, velocity=127, time=0),
    Message('note_on', channel=2, note=47, velocity=127, time=0),
    Message('note_on', channel=2, note=43, velocity=127, time=0),
    Message('note_on', channel=2, note=43, velocity=0, time=59),
    Message('note_on', channel=2, note=62, velocity=0, time=0),
    Message('note_on', channel=2, note=55, velocity=0, time=0),
    Message('note_on', channel=2, note=67, velocity=0, time=0),
    Message('note_on', channel=2, note=47, velocity=0, time=0),
    Message('note_on', channel=2, note=50, velocity=0, time=0),
    Message('note_on', channel=2, note=67, velocity=127, time=1),
    Message('note_on', channel=2, note=62, velocity=127, time=0),
    Message('note_on', channel=2, note=55, velocity=127, time=0),
    Message('note_on', channel=2, note=50, velocity=127, time=0),
    Message('note_on', channel=2, note=47, velocity=127, time=0),
    Message('note_on', channel=2, note=43, velocity=127, time=0),
    Message('note_on', channel=2, note=43, velocity=0, time=59),
    Message('note_on', channel=2, note=62, velocity=0, time=0),
    Message('note_on', channel=2, note=55, velocity=0, time=0),
    Message('note_on', channel=2, note=67, velocity=0, time=0),
    Message('note_on', channel=2, note=47, velocity=0, time=0),
    Message('note_on', channel=2, note=50, velocity=0, time=0),
    Message('note_on', channel=2, note=50, velocity=127, time=1),
    Message('note_on', channel=2, note=66, velocity=127, time=0),
    Message('note_on', channel=2, note=62, velocity=127, time=0),
    Message('note_on', channel=2, note=57, velocity=127, time=0),
    Message('note_on', channel=2, note=57, velocity=0, time=179),
    Message('note_on', channel=2, note=50, velocity=0, time=0),
    Message('note_on', channel=2, note=66, velocity=0, time=0),
    Message('note_on', channel=2, note=62, velocity=0, time=0),
    Message('note_on', channel=2, note=50, velocity=127, time=1),
    Message('note_on', channel=2, note=66, velocity=127, time=0),
    Message('note_on', channel=2, note=57, velocity=127, time=0),
    Message('note_on', channel=2, note=62, velocity=127, time=0),
    Message('note_on', channel=2, note=62, velocity=0, time=119),
    Message('note_on', channel=2, note=50, velocity=0, time=0),
    Message('note_on', channel=2, note=66, velocity=0, time=0),
    Message('note_on', channel=2, note=57, velocity=0, time=0),
    Message('note_on', channel=2, note=57, velocity=127, time=1),
    Message('note_on', channel=2, note=62, velocity=127, time=0),
    Message('note_on', channel=2, note=64, velocity=127, time=0),
    Message('note_on', channel=2, note=50, velocity=127, time=0),
    Message('note_on', channel=2, note=45, velocity=127, time=120),
    Message('note_on', channel=2, note=45, velocity=0, time=59),
    Message('note_on', channel=2, note=64, velocity=0, time=0),
    Message('note_on', channel=2, note=57, velocity=0, time=0),
    Message('note_on', channel=2, note=62, velocity=0, time=0),
    Message('note_on', channel=2, note=50, velocity=0, time=0),
    Message('note_on', channel=2, note=61, velocity=127, time=1),
    Message('note_on', channel=2, note=57, velocity=127, time=0),
    Message('note_on', channel=2, note=52, velocity=127, time=0),
    Message('note_on', channel=2, note=45, velocity=127, time=0),
    Message('note_on', channel=2, note=45, velocity=0, time=119),
    Message('note_on', channel=2, note=61, velocity=0, time=0),
    Message('note_on', channel=2, note=57, velocity=0, time=0),
    Message('note_on', channel=2, note=52, velocity=0, time=0),
    Message('note_on', channel=2, note=61, velocity=127, time=1),
    Message('note_on', channel=2, note=57, velocity=127, time=0),
    Message('note_on', channel=2, note=52, velocity=127, time=0),
    Message('note_on', channel=2, note=45, velocity=127, time=0),
    Message('note_on', channel=2, note=45, velocity=0, time=59),
    Message('note_on', channel=2, note=61, velocity=0, time=0),
    Message('note_on', channel=2, note=57, velocity=0, time=0),
    Message('note_on', channel=2, note=52, velocity=0, time=0),
    Message('note_on', channel=2, note=45, velocity=127, time=1),
    Message('note_on', channel=2, note=52, velocity=127, time=0),
    Message('note_on', channel=2, note=61, velocity=127, time=0),
    Message('note_on', channel=2, note=57, velocity=127, time=0),
    Message('note_on', channel=2, note=57, velocity=0, time=59),
    Message('note_on', channel=2, note=45, velocity=0, time=0),
    Message('note_on', channel=2, note=52, velocity=0, time=0),
    Message('note_on', channel=2, note=61, velocity=0, time=0),
    Message('note_on', channel=2, note=43, velocity=127, time=1),
    Message('note_on', channel=2, note=67, velocity=127, time=0),
    Message('note_on', channel=2, note=62, velocity=127, time=0),
    Message('note_on', channel=2, note=55, velocity=127, time=0),
    Message('note_on', channel=2, note=50, velocity=127, time=0),
    Message('note_on', channel=2, note=47, velocity=127, time=0),
    Message('note_on', channel=2, note=47, velocity=0, time=119),
    Message('note_on', channel=2, note=67, velocity=0, time=0),
    Message('note_on', channel=2, note=62, velocity=0, time=0),
    Message('note_on', channel=2, note=43, velocity=0, time=0),
    Message('note_on', channel=2, note=50, velocity=0, time=0),
    Message('note_on', channel=2, note=55, velocity=0, time=0),
    Message('note_on', channel=2, note=67, velocity=127, time=1),
    Message('note_on', channel=2, note=62, velocity=127, time=0),
    Message('note_on', channel=2, note=55, velocity=127, time=0),
    Message('note_on', channel=2, note=50, velocity=127, time=0),
    Message('note_on', channel=2, note=47, velocity=127, time=0),
    Message('note_on', channel=2, note=43, velocity=127, time=0),
    Message('note_on', channel=2, note=43, velocity=0, time=59),
    Message('note_on', channel=2, note=62, velocity=0, time=0),
    Message('note_on', channel=2, note=55, velocity=0, time=0),
    Message('note_on', channel=2, note=67, velocity=0, time=0),
    Message('note_on', channel=2, note=47, velocity=0, time=0),
    Message('note_on', channel=2, note=50, velocity=0, time=0),
    Message('note_on', channel=2, note=67, velocity=127, time=1),
    Message('note_on', channel=2, note=62, velocity=127, time=0),
    Message('note_on', channel=2, note=55, velocity=127, time=0),
    Message('note_on', channel=2, note=50, velocity=127, time=0),
    Message('note_on', channel=2, note=47, velocity=127, time=0),
    Message('note_on', channel=2, note=43, velocity=127, time=0),
    Message('note_on', channel=2, note=43, velocity=0, time=59),
    Message('note_on', channel=2, note=62, velocity=0, time=0),
    Message('note_on', channel=2, note=55, velocity=0, time=0),
    Message('note_on', channel=2, note=67, velocity=0, time=0),
    Message('note_on', channel=2, note=47, velocity=0, time=0),
    Message('note_on', channel=2, note=50, velocity=0, time=0),
    Message('note_on', channel=2, note=50, velocity=127, time=1),
    Message('note_on', channel=2, note=66, velocity=127, time=0),
    Message('note_on', channel=2, note=62, velocity=127, time=0),
    Message('note_on', channel=2, note=57, velocity=127, time=0),
    Message('note_on', channel=2, note=57, velocity=0, time=179),
    Message('note_on', channel=2, note=50, velocity=0, time=0),
    Message('note_on', channel=2, note=66, velocity=0, time=0),
    Message('note_on', channel=2, note=62, velocity=0, time=0),
    Message('note_on', channel=2, note=50, velocity=127, time=1),
    Message('note_on', channel=2, note=66, velocity=127, time=0),
    Message('note_on', channel=2, note=57, velocity=127, time=0),
    Message('note_on', channel=2, note=62, velocity=127, time=0),
    Message('note_on', channel=2, note=62, velocity=0, time=119),
    Message('note_on', channel=2, note=50, velocity=0, time=0),
    Message('note_on', channel=2, note=66, velocity=0, time=0),
    Message('note_on', channel=2, note=57, velocity=0, time=0),
    Message('note_on', channel=2, note=57, velocity=127, time=1),
    Message('note_on', channel=2, note=62, velocity=127, time=0),
    Message('note_on', channel=2, note=64, velocity=127, time=0),
    Message('note_on', channel=2, note=50, velocity=127, time=0),
    Message('note_on', channel=2, note=45, velocity=127, time=120),
    Message('note_on', channel=2, note=45, velocity=0, time=59),
    Message('note_on', channel=2, note=64, velocity=0, time=0),
    Message('note_on', channel=2, note=57, velocity=0, time=0),
    Message('note_on', channel=2, note=62, velocity=0, time=0),
    Message('note_on', channel=2, note=50, velocity=0, time=0),
    Message('note_on', channel=2, note=61, velocity=127, time=1),
    Message('note_on', channel=2, note=57, velocity=127, time=0),
    Message('note_on', channel=2, note=52, velocity=127, time=0),
    Message('note_on', channel=2, note=45, velocity=127, time=0),
    Message('note_on', channel=2, note=45, velocity=0, time=119),
    Message('note_on', channel=2, note=61, velocity=0, time=0),
    Message('note_on', channel=2, note=57, velocity=0, time=0),
    Message('note_on', channel=2, note=52, velocity=0, time=0),
    Message('note_on', channel=2, note=61, velocity=127, time=1),
    Message('note_on', channel=2, note=57, velocity=127, time=0),
    Message('note_on', channel=2, note=52, velocity=127, time=0),
    Message('note_on', channel=2, note=45, velocity=127, time=0),
    Message('note_on', channel=2, note=45, velocity=0, time=59),
    Message('note_on', channel=2, note=61, velocity=0, time=0),
    Message('note_on', channel=2, note=57, velocity=0, time=0),
    Message('note_on', channel=2, note=52, velocity=0, time=0),
    Message('note_on', channel=2, note=45, velocity=127, time=1),
    Message('note_on', channel=2, note=52, velocity=127, time=0),
    Message('note_on', channel=2, note=61, velocity=127, time=0),
    Message('note_on', channel=2, note=57, velocity=127, time=0),
    Message('note_on', channel=2, note=57, velocity=0, time=59),
    Message('note_on', channel=2, note=45, velocity=0, time=0),
    Message('note_on', channel=2, note=52, velocity=0, time=0),
    Message('note_on', channel=2, note=61, velocity=0, time=0),
    Message('note_on', channel=2, note=43, velocity=127, time=1),
    Message('note_on', channel=2, note=67, velocity=127, time=0),
    Message('note_on', channel=2, note=62, velocity=127, time=0),
    Message('note_on', channel=2, note=55, velocity=127, time=0),
    Message('note_on', channel=2, note=50, velocity=127, time=0),
    Message('note_on', channel=2, note=47, velocity=127, time=0),
    Message('note_on', channel=2, note=47, velocity=0, time=119),
    Message('note_on', channel=2, note=67, velocity=0, time=0),
    Message('note_on', channel=2, note=62, velocity=0, time=0),
    Message('note_on', channel=2, note=43, velocity=0, time=0),
    Message('note_on', channel=2, note=50, velocity=0, time=0),
    Message('note_on', channel=2, note=55, velocity=0, time=0),
    Message('note_on', channel=2, note=67, velocity=127, time=1),
    Message('note_on', channel=2, note=62, velocity=127, time=0),
    Message('note_on', channel=2, note=55, velocity=127, time=0),
    Message('note_on', channel=2, note=50, velocity=127, time=0),
    Message('note_on', channel=2, note=47, velocity=127, time=0),
    Message('note_on', channel=2, note=43, velocity=127, time=0),
    Message('note_on', channel=2, note=43, velocity=0, time=59),
    Message('note_on', channel=2, note=62, velocity=0, time=0),
    Message('note_on', channel=2, note=55, velocity=0, time=0),
    Message('note_on', channel=2, note=67, velocity=0, time=0),
    Message('note_on', channel=2, note=47, velocity=0, time=0),
    Message('note_on', channel=2, note=50, velocity=0, time=0),
    Message('note_on', channel=2, note=67, velocity=127, time=1),
    Message('note_on', channel=2, note=62, velocity=127, time=0),
    Message('note_on', channel=2, note=55, velocity=127, time=0),
    Message('note_on', channel=2, note=50, velocity=127, time=0),
    Message('note_on', channel=2, note=47, velocity=127, time=0),
    Message('note_on', channel=2, note=43, velocity=127, time=0),
    Message('note_on', channel=2, note=43, velocity=0, time=59),
    Message('note_on', channel=2, note=62, velocity=0, time=0),
    Message('note_on', channel=2, note=55, velocity=0, time=0),
    Message('note_on', channel=2, note=67, velocity=0, time=0),
    Message('note_on', channel=2, note=47, velocity=0, time=0),
    Message('note_on', channel=2, note=50, velocity=0, time=0),
    Message('note_on', channel=2, note=50, velocity=127, time=1),
    Message('note_on', channel=2, note=66, velocity=127, time=0),
    Message('note_on', channel=2, note=62, velocity=127, time=0),
    Message('note_on', channel=2, note=57, velocity=127, time=0),
    Message('note_on', channel=2, note=57, velocity=0, time=179),
    Message('note_on', channel=2, note=50, velocity=0, time=0),
    Message('note_on', channel=2, note=66, velocity=0, time=0),
    Message('note_on', channel=2, note=62, velocity=0, time=0),
    Message('note_on', channel=2, note=50, velocity=127, time=1),
    Message('note_on', channel=2, note=66, velocity=127, time=0),
    Message('note_on', channel=2, note=57, velocity=127, time=0),
    Message('note_on', channel=2, note=62, velocity=127, time=0),
    Message('note_on', channel=2, note=62, velocity=0, time=119),
    Message('note_on', channel=2, note=50, velocity=0, time=0),
    Message('note_on', channel=2, note=66, velocity=0, time=0),
    Message('note_on', channel=2, note=57, velocity=0, time=0),
    Message('note_on', channel=2, note=57, velocity=127, time=1),
    Message('note_on', channel=2, note=62, velocity=127, time=0),
    Message('note_on', channel=2, note=64, velocity=127, time=0),
    Message('note_on', channel=2, note=50, velocity=127, time=0),
    Message('note_on', channel=2, note=45, velocity=127, time=120),
    Message('note_on', channel=2, note=45, velocity=0, time=59),
    Message('note_on', channel=2, note=64, velocity=0, time=0),
    Message('note_on', channel=2, note=57, velocity=0, time=0),
    Message('note_on', channel=2, note=62, velocity=0, time=0),
    Message('note_on', channel=2, note=50, velocity=0, time=0),
    Message('note_on', channel=2, note=61, velocity=127, time=1),
    Message('note_on', channel=2, note=57, velocity=127, time=0),
    Message('note_on', channel=2, note=52, velocity=127, time=0),
    Message('note_on', channel=2, note=45, velocity=127, time=0),
    Message('note_on', channel=2, note=45, velocity=0, time=119),
    Message('note_on', channel=2, note=61, velocity=0, time=0),
    Message('note_on', channel=2, note=57, velocity=0, time=0),
    Message('note_on', channel=2, note=52, velocity=0, time=0),
    Message('note_on', channel=2, note=61, velocity=127, time=1),
    Message('note_on', channel=2, note=57, velocity=127, time=0),
    Message('note_on', channel=2, note=52, velocity=127, time=0),
    Message('note_on', channel=2, note=45, velocity=127, time=0),
    Message('note_on', channel=2, note=45, velocity=0, time=59),
    Message('note_on', channel=2, note=61, velocity=0, time=0),
    Message('note_on', channel=2, note=57, velocity=0, time=0),
    Message('note_on', channel=2, note=52, velocity=0, time=0),
    Message('note_on', channel=2, note=45, velocity=127, time=1),
    Message('note_on', channel=2, note=52, velocity=127, time=0),
    Message('note_on', channel=2, note=61, velocity=127, time=0),
    Message('note_on', channel=2, note=57, velocity=127, time=0),
    Message('note_on', channel=2, note=57, velocity=0, time=59),
    Message('note_on', channel=2, note=45, velocity=0, time=0),
    Message('note_on', channel=2, note=52, velocity=0, time=0),
    Message('note_on', channel=2, note=61, velocity=0, time=0),
    Message('note_on', channel=2, note=43, velocity=127, time=1),
    Message('note_on', channel=2, note=67, velocity=127, time=0),
    Message('note_on', channel=2, note=62, velocity=127, time=0),
    Message('note_on', channel=2, note=55, velocity=127, time=0),
    Message('note_on', channel=2, note=50, velocity=127, time=0),
    Message('note_on', channel=2, note=47, velocity=127, time=0),
    Message('note_on', channel=2, note=47, velocity=0, time=119),
    Message('note_on', channel=2, note=67, velocity=0, time=0),
    Message('note_on', channel=2, note=62, velocity=0, time=0),
    Message('note_on', channel=2, note=43, velocity=0, time=0),
    Message('note_on', channel=2, note=50, velocity=0, time=0),
    Message('note_on', channel=2, note=55, velocity=0, time=0),
    Message('note_on', channel=2, note=67, velocity=127, time=1),
    Message('note_on', channel=2, note=62, velocity=127, time=0),
    Message('note_on', channel=2, note=55, velocity=127, time=0),
    Message('note_on', channel=2, note=50, velocity=127, time=0),
    Message('note_on', channel=2, note=47, velocity=127, time=0),
    Message('note_on', channel=2, note=43, velocity=127, time=0),
    Message('note_on', channel=2, note=43, velocity=0, time=59),
    Message('note_on', channel=2, note=62, velocity=0, time=0),
    Message('note_on', channel=2, note=55, velocity=0, time=0),
    Message('note_on', channel=2, note=67, velocity=0, time=0),
    Message('note_on', channel=2, note=47, velocity=0, time=0),
    Message('note_on', channel=2, note=50, velocity=0, time=0),
    Message('note_on', channel=2, note=67, velocity=127, time=1),
    Message('note_on', channel=2, note=62, velocity=127, time=0),
    Message('note_on', channel=2, note=55, velocity=127, time=0),
    Message('note_on', channel=2, note=50, velocity=127, time=0),
    Message('note_on', channel=2, note=47, velocity=127, time=0),
    Message('note_on', channel=2, note=43, velocity=127, time=0),
    Message('note_on', channel=2, note=43, velocity=0, time=59),
    Message('note_on', channel=2, note=62, velocity=0, time=0),
    Message('note_on', channel=2, note=55, velocity=0, time=0),
    Message('note_on', channel=2, note=67, velocity=0, time=0),
    Message('note_on', channel=2, note=47, velocity=0, time=0),
    Message('note_on', channel=2, note=50, velocity=0, time=0),
    Message('note_on', channel=2, note=50, velocity=127, time=1),
    Message('note_on', channel=2, note=66, velocity=127, time=0),
    Message('note_on', channel=2, note=62, velocity=127, time=0),
    Message('note_on', channel=2, note=57, velocity=127, time=0),
    Message('note_on', channel=2, note=57, velocity=0, time=179),
    Message('note_on', channel=2, note=50, velocity=0, time=0),
    Message('note_on', channel=2, note=66, velocity=0, time=0),
    Message('note_on', channel=2, note=62, velocity=0, time=0),
    Message('note_on', channel=2, note=50, velocity=127, time=1),
    Message('note_on', channel=2, note=66, velocity=127, time=0),
    Message('note_on', channel=2, note=57, velocity=127, time=0),
    Message('note_on', channel=2, note=62, velocity=127, time=0),
    Message('note_on', channel=2, note=62, velocity=0, time=119),
    Message('note_on', channel=2, note=50, velocity=0, time=0),
    Message('note_on', channel=2, note=66, velocity=0, time=0),
    Message('note_on', channel=2, note=57, velocity=0, time=0),
    Message('note_on', channel=2, note=57, velocity=127, time=1),
    Message('note_on', channel=2, note=62, velocity=127, time=0),
    Message('note_on', channel=2, note=64, velocity=127, time=0),
    Message('note_on', channel=2, note=50, velocity=127, time=0),
    Message('note_on', channel=2, note=45, velocity=127, time=120),
    Message('note_on', channel=2, note=45, velocity=0, time=59),
    Message('note_on', channel=2, note=64, velocity=0, time=0),
    Message('note_on', channel=2, note=57, velocity=0, time=0),
    Message('note_on', channel=2, note=62, velocity=0, time=0),
    Message('note_on', channel=2, note=50, velocity=0, time=0),
    Message('note_on', channel=2, note=61, velocity=127, time=1),
    Message('note_on', channel=2, note=57, velocity=127, time=0),
    Message('note_on', channel=2, note=52, velocity=127, time=0),
    Message('note_on', channel=2, note=45, velocity=127, time=0),
    Message('note_on', channel=2, note=45, velocity=0, time=119),
    Message('note_on', channel=2, note=61, velocity=0, time=0),
    Message('note_on', channel=2, note=57, velocity=0, time=0),
    Message('note_on', channel=2, note=52, velocity=0, time=0),
    Message('note_on', channel=2, note=61, velocity=127, time=1),
    Message('note_on', channel=2, note=57, velocity=127, time=0),
    Message('note_on', channel=2, note=52, velocity=127, time=0),
    Message('note_on', channel=2, note=45, velocity=127, time=0),
    Message('note_on', channel=2, note=45, velocity=0, time=59),
    Message('note_on', channel=2, note=61, velocity=0, time=0),
    Message('note_on', channel=2, note=57, velocity=0, time=0),
    Message('note_on', channel=2, note=52, velocity=0, time=0),
    Message('note_on', channel=2, note=45, velocity=127, time=1),
    Message('note_on', channel=2, note=52, velocity=127, time=0),
    Message('note_on', channel=2, note=61, velocity=127, time=0),
    Message('note_on', channel=2, note=57, velocity=127, time=0),
    Message('note_on', channel=2, note=57, velocity=0, time=59),
    Message('note_on', channel=2, note=45, velocity=0, time=0),
    Message('note_on', channel=2, note=52, velocity=0, time=0),
    Message('note_on', channel=2, note=61, velocity=0, time=0),
    Message('note_on', channel=2, note=43, velocity=127, time=1),
    Message('note_on', channel=2, note=67, velocity=127, time=0),
    Message('note_on', channel=2, note=62, velocity=127, time=0),
    Message('note_on', channel=2, note=55, velocity=127, time=0),
    Message('note_on', channel=2, note=50, velocity=127, time=0),
    Message('note_on', channel=2, note=47, velocity=127, time=0),
    Message('note_on', channel=2, note=47, velocity=0, time=119),
    Message('note_on', channel=2, note=67, velocity=0, time=0),
    Message('note_on', channel=2, note=62, velocity=0, time=0),
    Message('note_on', channel=2, note=43, velocity=0, time=0),
    Message('note_on', channel=2, note=50, velocity=0, time=0),
    Message('note_on', channel=2, note=55, velocity=0, time=0),
    Message('note_on', channel=2, note=67, velocity=127, time=1),
    Message('note_on', channel=2, note=62, velocity=127, time=0),
    Message('note_on', channel=2, note=55, velocity=127, time=0),
    Message('note_on', channel=2, note=50, velocity=127, time=0),
    Message('note_on', channel=2, note=47, velocity=127, time=0),
    Message('note_on', channel=2, note=43, velocity=127, time=0),
    Message('note_on', channel=2, note=43, velocity=0, time=59),
    Message('note_on', channel=2, note=62, velocity=0, time=0),
    Message('note_on', channel=2, note=55, velocity=0, time=0),
    Message('note_on', channel=2, note=67, velocity=0, time=0),
    Message('note_on', channel=2, note=47, velocity=0, time=0),
    Message('note_on', channel=2, note=50, velocity=0, time=0),
    Message('note_on', channel=2, note=67, velocity=127, time=1),
    Message('note_on', channel=2, note=62, velocity=127, time=0),
    Message('note_on', channel=2, note=55, velocity=127, time=0),
    Message('note_on', channel=2, note=50, velocity=127, time=0),
    Message('note_on', channel=2, note=47, velocity=127, time=0),
    Message('note_on', channel=2, note=43, velocity=127, time=0),
    Message('note_on', channel=2, note=43, velocity=0, time=59),
    Message('note_on', channel=2, note=62, velocity=0, time=0),
    Message('note_on', channel=2, note=55, velocity=0, time=0),
    Message('note_on', channel=2, note=67, velocity=0, time=0),
    Message('note_on', channel=2, note=47, velocity=0, time=0),
    Message('note_on', channel=2, note=50, velocity=0, time=0),
    Message('note_on', channel=2, note=50, velocity=127, time=1),
    Message('note_on', channel=2, note=66, velocity=127, time=0),
    Message('note_on', channel=2, note=62, velocity=127, time=0),
    Message('note_on', channel=2, note=57, velocity=127, time=0),
    Message('note_on', channel=2, note=57, velocity=0, time=179),
    Message('note_on', channel=2, note=50, velocity=0, time=0),
    Message('note_on', channel=2, note=66, velocity=0, time=0),
    Message('note_on', channel=2, note=62, velocity=0, time=0),
    Message('note_on', channel=2, note=50, velocity=127, time=1),
    Message('note_on', channel=2, note=66, velocity=127, time=0),
    Message('note_on', channel=2, note=57, velocity=127, time=0),
    Message('note_on', channel=2, note=62, velocity=127, time=0),
    Message('note_on', channel=2, note=62, velocity=0, time=119),
    Message('note_on', channel=2, note=50, velocity=0, time=0),
    Message('note_on', channel=2, note=66, velocity=0, time=0),
    Message('note_on', channel=2, note=57, velocity=0, time=0),
    Message('note_on', channel=2, note=57, velocity=127, time=1),
    Message('note_on', channel=2, note=62, velocity=127, time=0),
    Message('note_on', channel=2, note=64, velocity=127, time=0),
    Message('note_on', channel=2, note=50, velocity=127, time=0),
    Message('note_on', channel=2, note=45, velocity=127, time=120),
    Message('note_on', channel=2, note=45, velocity=0, time=59),
    Message('note_on', channel=2, note=64, velocity=0, time=0),
    Message('note_on', channel=2, note=57, velocity=0, time=0),
    Message('note_on', channel=2, note=62, velocity=0, time=0),
    Message('note_on', channel=2, note=50, velocity=0, time=0),
    Message('note_on', channel=2, note=61, velocity=127, time=1),
    Message('note_on', channel=2, note=57, velocity=127, time=0),
    Message('note_on', channel=2, note=52, velocity=127, time=0),
    Message('note_on', channel=2, note=45, velocity=127, time=0),
    Message('note_on', channel=2, note=45, velocity=0, time=119),
    Message('note_on', channel=2, note=61, velocity=0, time=0),
    Message('note_on', channel=2, note=57, velocity=0, time=0),
    Message('note_on', channel=2, note=52, velocity=0, time=0),
    Message('note_on', channel=2, note=61, velocity=127, time=1),
    Message('note_on', channel=2, note=57, velocity=127, time=0),
    Message('note_on', channel=2, note=52, velocity=127, time=0),
    Message('note_on', channel=2, note=45, velocity=127, time=0),
    Message('note_on', channel=2, note=45, velocity=0, time=59),
    Message('note_on', channel=2, note=61, velocity=0, time=0),
    Message('note_on', channel=2, note=57, velocity=0, time=0),
    Message('note_on', channel=2, note=52, velocity=0, time=0),
    Message('note_on', channel=2, note=45, velocity=127, time=1),
    Message('note_on', channel=2, note=52, velocity=127, time=0),
    Message('note_on', channel=2, note=61, velocity=127, time=0),
    Message('note_on', channel=2, note=57, velocity=127, time=0),
    Message('note_on', channel=2, note=57, velocity=0, time=59),
    Message('note_on', channel=2, note=45, velocity=0, time=0),
    Message('note_on', channel=2, note=52, velocity=0, time=0),
    Message('note_on', channel=2, note=61, velocity=0, time=0),
    Message('note_on', channel=2, note=43, velocity=127, time=1),
    Message('note_on', channel=2, note=67, velocity=127, time=0),
    Message('note_on', channel=2, note=62, velocity=127, time=0),
    Message('note_on', channel=2, note=55, velocity=127, time=0),
    Message('note_on', channel=2, note=50, velocity=127, time=0),
    Message('note_on', channel=2, note=47, velocity=127, time=0),
    Message('note_on', channel=2, note=47, velocity=0, time=119),
    Message('note_on', channel=2, note=67, velocity=0, time=0),
    Message('note_on', channel=2, note=62, velocity=0, time=0),
    Message('note_on', channel=2, note=43, velocity=0, time=0),
    Message('note_on', channel=2, note=50, velocity=0, time=0),
    Message('note_on', channel=2, note=55, velocity=0, time=0),
    Message('note_on', channel=2, note=67, velocity=127, time=1),
    Message('note_on', channel=2, note=62, velocity=127, time=0),
    Message('note_on', channel=2, note=55, velocity=127, time=0),
    Message('note_on', channel=2, note=50, velocity=127, time=0),
    Message('note_on', channel=2, note=47, velocity=127, time=0),
    Message('note_on', channel=2, note=43, velocity=127, time=0),
    Message('note_on', channel=2, note=43, velocity=0, time=59),
    Message('note_on', channel=2, note=62, velocity=0, time=0),
    Message('note_on', channel=2, note=55, velocity=0, time=0),
    Message('note_on', channel=2, note=67, velocity=0, time=0),
    Message('note_on', channel=2, note=47, velocity=0, time=0),
    Message('note_on', channel=2, note=50, velocity=0, time=0),
    Message('note_on', channel=2, note=67, velocity=127, time=1),
    Message('note_on', channel=2, note=62, velocity=127, time=0),
    Message('note_on', channel=2, note=55, velocity=127, time=0),
    Message('note_on', channel=2, note=50, velocity=127, time=0),
    Message('note_on', channel=2, note=47, velocity=127, time=0),
    Message('note_on', channel=2, note=43, velocity=127, time=0),
    Message('note_on', channel=2, note=43, velocity=0, time=59),
    Message('note_on', channel=2, note=62, velocity=0, time=0),
    Message('note_on', channel=2, note=55, velocity=0, time=0),
    Message('note_on', channel=2, note=67, velocity=0, time=0),
    Message('note_on', channel=2, note=47, velocity=0, time=0),
    Message('note_on', channel=2, note=50, velocity=0, time=0),
    Message('note_on', channel=2, note=50, velocity=127, time=1),
    Message('note_on', channel=2, note=66, velocity=127, time=0),
    Message('note_on', channel=2, note=62, velocity=127, time=0),
    Message('note_on', channel=2, note=57, velocity=127, time=0),
    Message('note_on', channel=2, note=57, velocity=0, time=179),
    Message('note_on', channel=2, note=50, velocity=0, time=0),
    Message('note_on', channel=2, note=66, velocity=0, time=0),
    Message('note_on', channel=2, note=62, velocity=0, time=0),
    Message('note_on', channel=2, note=50, velocity=127, time=1),
    Message('note_on', channel=2, note=66, velocity=127, time=0),
    Message('note_on', channel=2, note=57, velocity=127, time=0),
    Message('note_on', channel=2, note=62, velocity=127, time=0),
    Message('note_on', channel=2, note=62, velocity=0, time=119),
    Message('note_on', channel=2, note=50, velocity=0, time=0),
    Message('note_on', channel=2, note=66, velocity=0, time=0),
    Message('note_on', channel=2, note=57, velocity=0, time=0),
    Message('note_on', channel=2, note=57, velocity=127, time=1),
    Message('note_on', channel=2, note=62, velocity=127, time=0),
    Message('note_on', channel=2, note=64, velocity=127, time=0),
    Message('note_on', channel=2, note=50, velocity=127, time=0),
    Message('note_on', channel=2, note=45, velocity=127, time=120),
    Message('note_on', channel=2, note=45, velocity=0, time=59),
    Message('note_on', channel=2, note=64, velocity=0, time=0),
    Message('note_on', channel=2, note=57, velocity=0, time=0),
    Message('note_on', channel=2, note=62, velocity=0, time=0),
    Message('note_on', channel=2, note=50, velocity=0, time=0),
    Message('note_on', channel=2, note=61, velocity=127, time=1),
    Message('note_on', channel=2, note=57, velocity=127, time=0),
    Message('note_on', channel=2, note=52, velocity=127, time=0),
    Message('note_on', channel=2, note=45, velocity=127, time=0),
    Message('note_on', channel=2, note=45, velocity=0, time=119),
    Message('note_on', channel=2, note=61, velocity=0, time=0),
    Message('note_on', channel=2, note=57, velocity=0, time=0),
    Message('note_on', channel=2, note=52, velocity=0, time=0),
    Message('note_on', channel=2, note=61, velocity=127, time=1),
    Message('note_on', channel=2, note=57, velocity=127, time=0),
    Message('note_on', channel=2, note=52, velocity=127, time=0),
    Message('note_on', channel=2, note=45, velocity=127, time=0),
    Message('note_on', channel=2, note=45, velocity=0, time=59),
    Message('note_on', channel=2, note=61, velocity=0, time=0),
    Message('note_on', channel=2, note=57, velocity=0, time=0),
    Message('note_on', channel=2, note=52, velocity=0, time=0),
    Message('note_on', channel=2, note=45, velocity=127, time=1),
    Message('note_on', channel=2, note=52, velocity=127, time=0),
    Message('note_on', channel=2, note=61, velocity=127, time=0),
    Message('note_on', channel=2, note=57, velocity=127, time=0),
    Message('note_on', channel=2, note=57, velocity=0, time=59),
    Message('note_on', channel=2, note=45, velocity=0, time=0),
    Message('note_on', channel=2, note=52, velocity=0, time=0),
    Message('note_on', channel=2, note=61, velocity=0, time=0),
    Message('note_on', channel=2, note=43, velocity=127, time=1),
    Message('note_on', channel=2, note=67, velocity=127, time=0),
    Message('note_on', channel=2, note=62, velocity=127, time=0),
    Message('note_on', channel=2, note=55, velocity=127, time=0),
    Message('note_on', channel=2, note=50, velocity=127, time=0),
    Message('note_on', channel=2, note=47, velocity=127, time=0),
    Message('note_on', channel=2, note=47, velocity=0, time=119),
    Message('note_on', channel=2, note=67, velocity=0, time=0),
    Message('note_on', channel=2, note=62, velocity=0, time=0),
    Message('note_on', channel=2, note=43, velocity=0, time=0),
    Message('note_on', channel=2, note=50, velocity=0, time=0),
    Message('note_on', channel=2, note=55, velocity=0, time=0),
    Message('note_on', channel=2, note=67, velocity=127, time=1),
    Message('note_on', channel=2, note=62, velocity=127, time=0),
    Message('note_on', channel=2, note=55, velocity=127, time=0),
    Message('note_on', channel=2, note=50, velocity=127, time=0),
    Message('note_on', channel=2, note=47, velocity=127, time=0),
    Message('note_on', channel=2, note=43, velocity=127, time=0),
    Message('note_on', channel=2, note=43, velocity=0, time=59),
    Message('note_on', channel=2, note=62, velocity=0, time=0),
    Message('note_on', channel=2, note=55, velocity=0, time=0),
    Message('note_on', channel=2, note=67, velocity=0, time=0),
    Message('note_on', channel=2, note=47, velocity=0, time=0),
    Message('note_on', channel=2, note=50, velocity=0, time=0),
    Message('note_on', channel=2, note=67, velocity=127, time=1),
    Message('note_on', channel=2, note=62, velocity=127, time=0),
    Message('note_on', channel=2, note=55, velocity=127, time=0),
    Message('note_on', channel=2, note=50, velocity=127, time=0),
    Message('note_on', channel=2, note=47, velocity=127, time=0),
    Message('note_on', channel=2, note=43, velocity=127, time=0),
    Message('note_on', channel=2, note=43, velocity=0, time=59),
    Message('note_on', channel=2, note=62, velocity=0, time=0),
    Message('note_on', channel=2, note=55, velocity=0, time=0),
    Message('note_on', channel=2, note=67, velocity=0, time=0),
    Message('note_on', channel=2, note=47, velocity=0, time=0),
    Message('note_on', channel=2, note=50, velocity=0, time=0),
    Message('note_on', channel=2, note=50, velocity=127, time=1),
    Message('note_on', channel=2, note=66, velocity=127, time=0),
    Message('note_on', channel=2, note=62, velocity=127, time=0),
    Message('note_on', channel=2, note=57, velocity=127, time=0),
    Message('note_on', channel=2, note=57, velocity=0, time=179),
    Message('note_on', channel=2, note=50, velocity=0, time=0),
    Message('note_on', channel=2, note=66, velocity=0, time=0),
    Message('note_on', channel=2, note=62, velocity=0, time=0),
    Message('note_on', channel=2, note=50, velocity=127, time=1),
    Message('note_on', channel=2, note=66, velocity=127, time=0),
    Message('note_on', channel=2, note=57, velocity=127, time=0),
    Message('note_on', channel=2, note=62, velocity=127, time=0),
    Message('note_on', channel=2, note=62, velocity=0, time=119),
    Message('note_on', channel=2, note=50, velocity=0, time=0),
    Message('note_on', channel=2, note=66, velocity=0, time=0),
    Message('note_on', channel=2, note=57, velocity=0, time=0),
    Message('note_on', channel=2, note=57, velocity=127, time=1),
    Message('note_on', channel=2, note=62, velocity=127, time=0),
    Message('note_on', channel=2, note=64, velocity=127, time=0),
    Message('note_on', channel=2, note=50, velocity=127, time=0),
    Message('note_on', channel=2, note=45, velocity=127, time=120),
    Message('note_on', channel=2, note=45, velocity=0, time=59),
    Message('note_on', channel=2, note=64, velocity=0, time=0),
    Message('note_on', channel=2, note=57, velocity=0, time=0),
    Message('note_on', channel=2, note=62, velocity=0, time=0),
    Message('note_on', channel=2, note=50, velocity=0, time=0),
    Message('note_on', channel=2, note=61, velocity=127, time=1),
    Message('note_on', channel=2, note=57, velocity=127, time=0),
    Message('note_on', channel=2, note=52, velocity=127, time=0),
    Message('note_on', channel=2, note=45, velocity=127, time=0),
    Message('note_on', channel=2, note=45, velocity=0, time=119),
    Message('note_on', channel=2, note=61, velocity=0, time=0),
    Message('note_on', channel=2, note=57, velocity=0, time=0),
    Message('note_on', channel=2, note=52, velocity=0, time=0),
    Message('note_on', channel=2, note=61, velocity=127, time=1),
    Message('note_on', channel=2, note=57, velocity=127, time=0),
    Message('note_on', channel=2, note=52, velocity=127, time=0),
    Message('note_on', channel=2, note=45, velocity=127, time=0),
    Message('note_on', channel=2, note=45, velocity=0, time=59),
    Message('note_on', channel=2, note=61, velocity=0, time=0),
    Message('note_on', channel=2, note=57, velocity=0, time=0),
    Message('note_on', channel=2, note=52, velocity=0, time=0),
    Message('note_on', channel=2, note=45, velocity=127, time=1),
    Message('note_on', channel=2, note=52, velocity=127, time=0),
    Message('note_on', channel=2, note=61, velocity=127, time=0),
    Message('note_on', channel=2, note=57, velocity=127, time=0),
    Message('note_on', channel=2, note=57, velocity=0, time=59),
    Message('note_on', channel=2, note=45, velocity=0, time=0),
    Message('note_on', channel=2, note=52, velocity=0, time=0),
    Message('note_on', channel=2, note=61, velocity=0, time=0),
    Message('note_on', channel=2, note=43, velocity=127, time=1),
    Message('note_on', channel=2, note=67, velocity=127, time=0),
    Message('note_on', channel=2, note=62, velocity=127, time=0),
    Message('note_on', channel=2, note=55, velocity=127, time=0),
    Message('note_on', channel=2, note=50, velocity=127, time=0),
    Message('note_on', channel=2, note=47, velocity=127, time=0),
    Message('note_on', channel=2, note=47, velocity=0, time=119),
    Message('note_on', channel=2, note=67, velocity=0, time=0),
    Message('note_on', channel=2, note=62, velocity=0, time=0),
    Message('note_on', channel=2, note=43, velocity=0, time=0),
    Message('note_on', channel=2, note=50, velocity=0, time=0),
    Message('note_on', channel=2, note=55, velocity=0, time=0),
    Message('note_on', channel=2, note=67, velocity=127, time=1),
    Message('note_on', channel=2, note=62, velocity=127, time=0),
    Message('note_on', channel=2, note=55, velocity=127, time=0),
    Message('note_on', channel=2, note=50, velocity=127, time=0),
    Message('note_on', channel=2, note=47, velocity=127, time=0),
    Message('note_on', channel=2, note=43, velocity=127, time=0),
    Message('note_on', channel=2, note=43, velocity=0, time=59),
    Message('note_on', channel=2, note=62, velocity=0, time=0),
    Message('note_on', channel=2, note=55, velocity=0, time=0),
    Message('note_on', channel=2, note=67, velocity=0, time=0),
    Message('note_on', channel=2, note=47, velocity=0, time=0),
    Message('note_on', channel=2, note=50, velocity=0, time=0),
    Message('note_on', channel=2, note=67, velocity=127, time=1),
    Message('note_on', channel=2, note=62, velocity=127, time=0),
    Message('note_on', channel=2, note=55, velocity=127, time=0),
    Message('note_on', channel=2, note=50, velocity=127, time=0),
    Message('note_on', channel=2, note=47, velocity=127, time=0),
    Message('note_on', channel=2, note=43, velocity=127, time=0),
    Message('note_on', channel=2, note=43, velocity=0, time=59),
    Message('note_on', channel=2, note=62, velocity=0, time=0),
    Message('note_on', channel=2, note=55, velocity=0, time=0),
    Message('note_on', channel=2, note=67, velocity=0, time=0),
    Message('note_on', channel=2, note=47, velocity=0, time=0),
    Message('note_on', channel=2, note=50, velocity=0, time=0),
    Message('note_on', channel=2, note=50, velocity=127, time=1),
    Message('note_on', channel=2, note=66, velocity=127, time=0),
    Message('note_on', channel=2, note=62, velocity=127, time=0),
    Message('note_on', channel=2, note=57, velocity=127, time=0),
    Message('note_on', channel=2, note=57, velocity=0, time=179),
    Message('note_on', channel=2, note=50, velocity=0, time=0),
    Message('note_on', channel=2, note=66, velocity=0, time=0),
    Message('note_on', channel=2, note=62, velocity=0, time=0),
    Message('note_on', channel=2, note=50, velocity=127, time=1),
    Message('note_on', channel=2, note=66, velocity=127, time=0),
    Message('note_on', channel=2, note=57, velocity=127, time=0),
    Message('note_on', channel=2, note=62, velocity=127, time=0),
    Message('note_on', channel=2, note=62, velocity=0, time=119),
    Message('note_on', channel=2, note=50, velocity=0, time=0),
    Message('note_on', channel=2, note=66, velocity=0, time=0),
    Message('note_on', channel=2, note=57, velocity=0, time=0),
    Message('note_on', channel=2, note=57, velocity=127, time=1),
    Message('note_on', channel=2, note=62, velocity=127, time=0),
    Message('note_on', channel=2, note=64, velocity=127, time=0),
    Message('note_on', channel=2, note=50, velocity=127, time=0),
    Message('note_on', channel=2, note=45, velocity=127, time=120),
    Message('note_on', channel=2, note=45, velocity=0, time=59),
    Message('note_on', channel=2, note=64, velocity=0, time=0),
    Message('note_on', channel=2, note=57, velocity=0, time=0),
    Message('note_on', channel=2, note=62, velocity=0, time=0),
    Message('note_on', channel=2, note=50, velocity=0, time=0),
    Message('note_on', channel=2, note=61, velocity=127, time=1),
    Message('note_on', channel=2, note=57, velocity=127, time=0),
    Message('note_on', channel=2, note=52, velocity=127, time=0),
    Message('note_on', channel=2, note=45, velocity=127, time=0),
    Message('note_on', channel=2, note=45, velocity=0, time=119),
    Message('note_on', channel=2, note=61, velocity=0, time=0),
    Message('note_on', channel=2, note=57, velocity=0, time=0),
    Message('note_on', channel=2, note=52, velocity=0, time=0),
    Message('note_on', channel=2, note=61, velocity=127, time=1),
    Message('note_on', channel=2, note=57, velocity=127, time=0),
    Message('note_on', channel=2, note=52, velocity=127, time=0),
    Message('note_on', channel=2, note=45, velocity=127, time=0),
    Message('note_on', channel=2, note=45, velocity=0, time=59),
    Message('note_on', channel=2, note=61, velocity=0, time=0),
    Message('note_on', channel=2, note=57, velocity=0, time=0),
    Message('note_on', channel=2, note=52, velocity=0, time=0),
    Message('note_on', channel=2, note=45, velocity=127, time=1),
    Message('note_on', channel=2, note=52, velocity=127, time=0),
    Message('note_on', channel=2, note=61, velocity=127, time=0),
    Message('note_on', channel=2, note=57, velocity=127, time=0),
    Message('note_on', channel=2, note=57, velocity=0, time=59),
    Message('note_on', channel=2, note=45, velocity=0, time=0),
    Message('note_on', channel=2, note=52, velocity=0, time=0),
    Message('note_on', channel=2, note=61, velocity=0, time=0),
    Message('note_on', channel=2, note=43, velocity=127, time=1),
    Message('note_on', channel=2, note=67, velocity=127, time=0),
    Message('note_on', channel=2, note=62, velocity=127, time=0),
    Message('note_on', channel=2, note=55, velocity=127, time=0),
    Message('note_on', channel=2, note=50, velocity=127, time=0),
    Message('note_on', channel=2, note=47, velocity=127, time=0),
    Message('note_on', channel=2, note=47, velocity=0, time=119),
    Message('note_on', channel=2, note=67, velocity=0, time=0),
    Message('note_on', channel=2, note=62, velocity=0, time=0),
    Message('note_on', channel=2, note=43, velocity=0, time=0),
    Message('note_on', channel=2, note=50, velocity=0, time=0),
    Message('note_on', channel=2, note=55, velocity=0, time=0),
    Message('note_on', channel=2, note=67, velocity=127, time=1),
    Message('note_on', channel=2, note=62, velocity=127, time=0),
    Message('note_on', channel=2, note=55, velocity=127, time=0),
    Message('note_on', channel=2, note=50, velocity=127, time=0),
    Message('note_on', channel=2, note=47, velocity=127, time=0),
    Message('note_on', channel=2, note=43, velocity=127, time=0),
    Message('note_on', channel=2, note=43, velocity=0, time=59),
    Message('note_on', channel=2, note=62, velocity=0, time=0),
    Message('note_on', channel=2, note=55, velocity=0, time=0),
    Message('note_on', channel=2, note=67, velocity=0, time=0),
    Message('note_on', channel=2, note=47, velocity=0, time=0),
    Message('note_on', channel=2, note=50, velocity=0, time=0),
    Message('note_on', channel=2, note=67, velocity=127, time=1),
    Message('note_on', channel=2, note=62, velocity=127, time=0),
    Message('note_on', channel=2, note=55, velocity=127, time=0),
    Message('note_on', channel=2, note=50, velocity=127, time=0),
    Message('note_on', channel=2, note=47, velocity=127, time=0),
    Message('note_on', channel=2, note=43, velocity=127, time=0),
    Message('note_on', channel=2, note=43, velocity=0, time=59),
    Message('note_on', channel=2, note=62, velocity=0, time=0),
    Message('note_on', channel=2, note=55, velocity=0, time=0),
    Message('note_on', channel=2, note=67, velocity=0, time=0),
    Message('note_on', channel=2, note=47, velocity=0, time=0),
    Message('note_on', channel=2, note=50, velocity=0, time=0),
    Message('note_on', channel=2, note=66, velocity=127, time=1),
    Message('note_on', channel=2, note=62, velocity=127, time=0),
    Message('note_on', channel=2, note=57, velocity=127, time=0),
    Message('note_on', channel=2, note=50, velocity=127, time=0),
    Message('note_on', channel=2, note=50, velocity=0, time=479),
    Message('note_on', channel=2, note=66, velocity=0, time=0),
    Message('note_on', channel=2, note=62, velocity=0, time=0),
    Message('note_on', channel=2, note=57, velocity=0, time=0),
    MetaMessage('end_of_track', time=0)]),
  MidiTrack([
    MetaMessage('midi_port', port=0, time=0),
    MetaMessage('track_name', name="Sept '98", time=0),
    Message('program_change', channel=9, program=16, time=0),
    Message('control_change', channel=9, control=7, value=127, time=0),
    Message('note_on', channel=9, note=35, velocity=127, time=22560),
    Message('control_change', channel=9, control=7, value=63, time=0),
    Message('control_change', channel=9, control=7, value=64, time=6),
    Message('control_change', channel=9, control=7, value=65, time=4),
    Message('control_change', channel=9, control=7, value=66, time=3),
    Message('note_on', channel=9, note=35, velocity=0, time=1),
    Message('control_change', channel=9, control=7, value=67, time=2),
    Message('control_change', channel=9, control=7, value=68, time=4),
    Message('control_change', channel=9, control=7, value=69, time=3),
    Message('control_change', channel=9, control=7, value=70, time=3),
    Message('control_change', channel=9, control=7, value=71, time=7),
    Message('control_change', channel=9, control=7, value=72, time=3),
    Message('control_change', channel=9, control=7, value=73, time=4),
    Message('control_change', channel=9, control=7, value=74, time=3),
    Message('control_change', channel=9, control=7, value=75, time=3),
    Message('control_change', channel=9, control=7, value=76, time=4),
    Message('control_change', channel=9, control=7, value=77, time=3),
    Message('note_on', channel=9, note=41, velocity=127, time=7),
    Message('note_on', channel=9, note=35, velocity=127, time=0),
    Message('control_change', channel=9, control=7, value=78, time=0),
    Message('control_change', channel=9, control=7, value=79, time=3),
    Message('control_change', channel=9, control=7, value=80, time=3),
    Message('control_change', channel=9, control=7, value=81, time=4),
    Message('control_change', channel=9, control=7, value=82, time=3),
    Message('note_on', channel=9, note=35, velocity=0, time=1),
    Message('note_on', channel=9, note=41, velocity=0, time=0),
    Message('control_change', channel=9, control=7, value=83, time=2),
    Message('control_change', channel=9, control=7, value=84, time=4),
    Message('control_change', channel=9, control=7, value=85, time=6),
    Message('control_change', channel=9, control=7, value=86, time=4),
    Message('control_change', channel=9, control=7, value=87, time=3),
    Message('control_change', channel=9, control=7, value=88, time=3),
    Message('control_change', channel=9, control=7, value=89, time=4),
    Message('control_change', channel=9, control=7, value=90, time=3),
    Message('control_change', channel=9, control=7, value=91, time=3),
    Message('control_change', channel=9, control=7, value=92, time=7),
    Message('control_change', channel=9, control=7, value=93, time=3),
    Message('note_on', channel=9, note=41, velocity=127, time=4),
    Message('note_on', channel=9, note=35, velocity=127, time=0),
    Message('control_change', channel=9, control=7, value=94, time=0),
    Message('control_change', channel=9, control=7, value=95, time=3),
    Message('control_change', channel=9, control=7, value=96, time=3),
    Message('control_change', channel=9, control=7, value=97, time=4),
    Message('control_change', channel=9, control=7, value=98, time=3),
    Message('note_on', channel=9, note=35, velocity=0, time=1),
    Message('note_on', channel=9, note=41, velocity=0, time=0),
    Message('control_change', channel=9, control=7, value=99, time=6),
    Message('control_change', channel=9, control=7, value=100, time=3),
    Message('control_change', channel=9, control=7, value=101, time=3),
    Message('control_change', channel=9, control=7, value=102, time=4),
    Message('control_change', channel=9, control=7, value=103, time=3),
    Message('control_change', channel=9, control=7, value=104, time=3),
    Message('control_change', channel=9, control=7, value=105, time=4),
    Message('control_change', channel=9, control=7, value=106, time=6),
    Message('control_change', channel=9, control=7, value=107, time=4),
    Message('control_change', channel=9, control=7, value=108, time=3),
    Message('control_change', channel=9, control=7, value=109, time=3),
    Message('note_on', channel=9, note=41, velocity=127, time=4),
    Message('note_on', channel=9, note=35, velocity=127, time=0),
    Message('control_change', channel=9, control=7, value=110, time=0),
    Message('control_change', channel=9, control=7, value=111, time=3),
    Message('control_change', channel=9, control=7, value=112, time=3),
    Message('control_change', channel=9, control=7, value=113, time=7),
    Message('note_on', channel=9, note=35, velocity=0, time=1),
    Message('note_on', channel=9, note=41, velocity=0, time=0),
    Message('control_change', channel=9, control=7, value=114, time=2),
    Message('control_change', channel=9, control=7, value=115, time=4),
    Message('control_change', channel=9, control=7, value=116, time=3),
    Message('control_change', channel=9, control=7, value=117, time=3),
    Message('control_change', channel=9, control=7, value=118, time=4),
    Message('control_change', channel=9, control=7, value=119, time=3),
    Message('control_change', channel=9, control=7, value=120, time=7),
    Message('control_change', channel=9, control=7, value=121, time=3),
    Message('control_change', channel=9, control=7, value=122, time=3),
    Message('control_change', channel=9, control=7, value=123, time=4),
    Message('control_change', channel=9, control=7, value=124, time=3),
    Message('control_change', channel=9, control=7, value=125, time=3),
    Message('note_on', channel=9, note=41, velocity=127, time=4),
    Message('note_on', channel=9, note=35, velocity=127, time=0),
    Message('control_change', channel=9, control=7, value=126, time=0),
    Message('note_on', channel=9, note=35, velocity=0, time=14),
    Message('note_on', channel=9, note=41, velocity=0, time=0),
    Message('note_on', channel=9, note=41, velocity=127, time=46),
    Message('note_on', channel=9, note=35, velocity=127, time=0),
    Message('note_on', channel=9, note=35, velocity=0, time=14),
    Message('note_on', channel=9, note=41, velocity=0, time=0),
    Message('note_on', channel=9, note=35, velocity=127, time=46),
    Message('note_on', channel=9, note=38, velocity=127, time=0),
    Message('note_on', channel=9, note=38, velocity=127, time=10),
    Message('note_on', channel=9, note=38, velocity=0, time=4),
    Message('note_on', channel=9, note=35, velocity=0, time=0),
    Message('note_on', channel=9, note=38, velocity=0, time=10),
    Message('note_on', channel=9, note=35, velocity=127, time=36),
    Message('note_on', channel=9, note=35, velocity=0, time=14),
    Message('note_on', channel=9, note=46, velocity=127, time=46),
    Message('note_on', channel=9, note=49, velocity=127, time=0),
    Message('note_on', channel=9, note=35, velocity=127, time=0),
    Message('note_on', channel=9, note=35, velocity=0, time=14),
    Message('note_on', channel=9, note=49, velocity=0, time=0),
    Message('note_on', channel=9, note=46, velocity=0, time=0),
    Message('note_on', channel=9, note=46, velocity=127, time=46),
    Message('note_on', channel=9, note=46, velocity=0, time=14),
    Message('note_on', channel=9, note=46, velocity=127, time=46),
    Message('note_on', channel=9, note=38, velocity=127, time=0),
    Message('note_on', channel=9, note=38, velocity=0, time=14),
    Message('note_on', channel=9, note=46, velocity=0, time=0),
    Message('note_on', channel=9, note=46, velocity=127, time=46),
    Message('note_on', channel=9, note=35, velocity=127, time=0),
    Message('note_on', channel=9, note=35, velocity=0, time=14),
    Message('note_on', channel=9, note=46, velocity=0, time=0),
    Message('note_on', channel=9, note=46, velocity=127, time=46),
    Message('note_on', channel=9, note=46, velocity=0, time=14),
    Message('note_on', channel=9, note=46, velocity=127, time=46),
    Message('note_on', channel=9, note=35, velocity=127, time=0),
    Message('note_on', channel=9, note=35, velocity=0, time=14),
    Message('note_on', channel=9, note=46, velocity=0, time=0),
    Message('note_on', channel=9, note=46, velocity=127, time=46),
    Message('note_on', channel=9, note=38, velocity=127, time=0),
    Message('note_on', channel=9, note=38, velocity=0, time=14),
    Message('note_on', channel=9, note=46, velocity=0, time=0),
    Message('note_on', channel=9, note=35, velocity=127, time=46),
    Message('note_on', channel=9, note=46, velocity=127, time=0),
    Message('note_on', channel=9, note=46, velocity=0, time=14),
    Message('note_on', channel=9, note=35, velocity=0, time=0),
    Message('note_on', channel=9, note=35, velocity=127, time=46),
    Message('note_on', channel=9, note=46, velocity=127, time=0),
    Message('note_on', channel=9, note=46, velocity=0, time=14),
    Message('note_on', channel=9, note=35, velocity=0, time=0),
    Message('note_on', channel=9, note=46, velocity=127, time=46),
    Message('note_on', channel=9, note=46, velocity=0, time=14),
    Message('note_on', channel=9, note=38, velocity=127, time=46),
    Message('note_on', channel=9, note=46, velocity=127, time=0),
    Message('note_on', channel=9, note=46, velocity=0, time=14),
    Message('note_on', channel=9, note=38, velocity=0, time=0),
    Message('note_on', channel=9, note=35, velocity=127, time=46),
    Message('note_on', channel=9, note=46, velocity=127, time=0),
    Message('note_on', channel=9, note=46, velocity=0, time=14),
    Message('note_on', channel=9, note=35, velocity=0, time=0),
    Message('note_on', channel=9, note=46, velocity=127, time=46),
    Message('note_on', channel=9, note=46, velocity=0, time=14),
    Message('note_on', channel=9, note=35, velocity=127, time=46),
    Message('note_on', channel=9, note=46, velocity=127, time=0),
    Message('note_on', channel=9, note=46, velocity=0, time=14),
    Message('note_on', channel=9, note=35, velocity=0, time=0),
    Message('note_on', channel=9, note=38, velocity=127, time=46),
    Message('note_on', channel=9, note=46, velocity=127, time=0),
    Message('note_on', channel=9, note=46, velocity=0, time=14),
    Message('note_on', channel=9, note=38, velocity=0, time=0),
    Message('note_on', channel=9, note=35, velocity=127, time=46),
    Message('note_on', channel=9, note=46, velocity=127, time=0),
    Message('note_on', channel=9, note=46, velocity=0, time=14),
    Message('note_on', channel=9, note=35, velocity=0, time=0),
    Message('note_on', channel=9, note=38, velocity=127, time=16),
    Message('note_on', channel=9, note=38, velocity=0, time=14),
    Message('note_on', channel=9, note=35, velocity=127, time=16),
    Message('note_on', channel=9, note=46, velocity=127, time=0),
    Message('note_on', channel=9, note=55, velocity=127, time=0),
    Message('note_on', channel=9, note=55, velocity=0, time=14),
    Message('note_on', channel=9, note=46, velocity=0, time=0),
    Message('note_on', channel=9, note=35, velocity=0, time=0),
    Message('note_on', channel=9, note=46, velocity=127, time=46),
    Message('note_on', channel=9, note=46, velocity=0, time=14),
    Message('note_on', channel=9, note=38, velocity=127, time=46),
    Message('note_on', channel=9, note=46, velocity=127, time=0),
    Message('note_on', channel=9, note=46, velocity=0, time=14),
    Message('note_on', channel=9, note=38, velocity=0, time=0),
    Message('note_on', channel=9, note=46, velocity=127, time=46),
    Message('note_on', channel=9, note=35, velocity=127, time=0),
    Message('note_on', channel=9, note=35, velocity=0, time=14),
    Message('note_on', channel=9, note=46, velocity=0, time=0),
    Message('note_on', channel=9, note=46, velocity=127, time=46),
    Message('note_on', channel=9, note=46, velocity=0, time=14),
    Message('note_on', channel=9, note=46, velocity=127, time=46),
    Message('note_on', channel=9, note=35, velocity=127, time=0),
    Message('note_on', channel=9, note=35, velocity=0, time=14),
    Message('note_on', channel=9, note=46, velocity=0, time=0),
    Message('note_on', channel=9, note=46, velocity=127, time=46),
    Message('note_on', channel=9, note=38, velocity=127, time=0),
    Message('note_on', channel=9, note=38, velocity=0, time=14),
    Message('note_on', channel=9, note=46, velocity=0, time=0),
    Message('note_on', channel=9, note=35, velocity=127, time=46),
    Message('note_on', channel=9, note=46, velocity=127, time=0),
    Message('note_on', channel=9, note=46, velocity=0, time=14),
    Message('note_on', channel=9, note=35, velocity=0, time=0),
    Message('note_on', channel=9, note=46, velocity=127, time=46),
    Message('note_on', channel=9, note=35, velocity=127, time=0),
    Message('note_on', channel=9, note=35, velocity=0, time=14),
    Message('note_on', channel=9, note=46, velocity=0, time=0),
    Message('note_on', channel=9, note=46, velocity=127, time=46),
    Message('note_on', channel=9, note=46, velocity=0, time=14),
    Message('note_on', channel=9, note=38, velocity=127, time=46),
    Message('note_on', channel=9, note=46, velocity=127, time=0),
    Message('note_on', channel=9, note=46, velocity=0, time=14),
    Message('note_on', channel=9, note=38, velocity=0, time=0),
    Message('note_on', channel=9, note=35, velocity=127, time=46),
    Message('note_on', channel=9, note=46, velocity=127, time=0),
    Message('note_on', channel=9, note=46, velocity=0, time=14),
    Message('note_on', channel=9, note=35, velocity=0, time=0),
    Message('note_on', channel=9, note=46, velocity=127, time=46),
    Message('note_on', channel=9, note=46, velocity=0, time=14),
    Message('note_on', channel=9, note=35, velocity=127, time=46),
    Message('note_on', channel=9, note=46, velocity=127, time=0),
    Message('note_on', channel=9, note=46, velocity=0, time=14),
    Message('note_on', channel=9, note=35, velocity=0, time=0),
    Message('note_on', channel=9, note=38, velocity=127, time=46),
    Message('note_on', channel=9, note=46, velocity=127, time=0),
    Message('note_on', channel=9, note=46, velocity=0, time=14),
    Message('note_on', channel=9, note=38, velocity=0, time=0),
    Message('note_on', channel=9, note=35, velocity=127, time=46),
    Message('note_on', channel=9, note=46, velocity=127, time=0),
    Message('note_on', channel=9, note=46, velocity=0, time=14),
    Message('note_on', channel=9, note=35, velocity=0, time=0),
    Message('note_on', channel=9, note=55, velocity=127, time=46),
    Message('note_on', channel=9, note=46, velocity=127, time=0),
    Message('note_on', channel=9, note=35, velocity=127, time=0),
    Message('note_on', channel=9, note=35, velocity=0, time=14),
    Message('note_on', channel=9, note=46, velocity=0, time=0),
    Message('note_on', channel=9, note=55, velocity=0, time=0),
    Message('note_on', channel=9, note=46, velocity=127, time=46),
    Message('note_on', channel=9, note=46, velocity=0, time=14),
    Message('note_on', channel=9, note=46, velocity=127, time=46),
    Message('note_on', channel=9, note=46, velocity=0, time=14),
    Message('note_on', channel=9, note=35, velocity=127, time=46),
    Message('note_on', channel=9, note=46, velocity=127, time=0),
    Message('note_on', channel=9, note=55, velocity=127, time=0),
    Message('note_on', channel=9, note=55, velocity=0, time=14),
    Message('note_on', channel=9, note=46, velocity=0, time=0),
    Message('note_on', channel=9, note=35, velocity=0, time=0),
    Message('note_on', channel=9, note=46, velocity=127, time=46),
    Message('note_on', channel=9, note=46, velocity=0, time=14),
    Message('note_on', channel=9, note=46, velocity=127, time=46),
    Message('note_on', channel=9, note=46, velocity=0, time=14),
    Message('note_on', channel=9, note=46, velocity=127, time=46),
    Message('note_on', channel=9, note=46, velocity=0, time=14),
    Message('note_on', channel=9, note=35, velocity=127, time=46),
    Message('note_on', channel=9, note=46, velocity=127, time=0),
    Message('note_on', channel=9, note=46, velocity=0, time=14),
    Message('note_on', channel=9, note=35, velocity=0, time=0),
    Message('note_on', channel=9, note=35, velocity=127, time=46),
    Message('note_on', channel=9, note=55, velocity=127, time=0),
    Message('note_on', channel=9, note=46, velocity=127, time=0),
    Message('note_on', channel=9, note=46, velocity=0, time=14),
    Message('note_on', channel=9, note=55, velocity=0, time=0),
    Message('note_on', channel=9, note=35, velocity=0, time=0),
    Message('note_on', channel=9, note=46, velocity=127, time=46),
    Message('note_on', channel=9, note=46, velocity=0, time=14),
    Message('note_on', channel=9, note=46, velocity=127, time=46),
    Message('note_on', channel=9, note=46, velocity=0, time=14),
    Message('note_on', channel=9, note=35, velocity=127, time=46),
    Message('note_on', channel=9, note=46, velocity=127, time=0),
    Message('note_on', channel=9, note=55, velocity=127, time=0),
    Message('note_on', channel=9, note=55, velocity=0, time=14),
    Message('note_on', channel=9, note=46, velocity=0, time=0),
    Message('note_on', channel=9, note=35, velocity=0, time=0),
    Message('note_on', channel=9, note=46, velocity=127, time=46),
    Message('note_on', channel=9, note=46, velocity=0, time=14),
    Message('note_on', channel=9, note=46, velocity=127, time=46),
    Message('note_on', channel=9, note=35, velocity=127, time=0),
    Message('note_on', channel=9, note=35, velocity=0, time=14),
    Message('note_on', channel=9, note=46, velocity=0, time=0),
    Message('note_on', channel=9, note=46, velocity=127, time=46),
    Message('note_on', channel=9, note=46, velocity=0, time=14),
    Message('note_on', channel=9, note=35, velocity=127, time=46),
    Message('note_on', channel=9, note=46, velocity=127, time=0),
    Message('note_on', channel=9, note=46, velocity=0, time=14),
    Message('note_on', channel=9, note=35, velocity=0, time=0),
    Message('note_on', channel=9, note=46, velocity=127, time=46),
    Message('note_on', channel=9, note=35, velocity=127, time=0),
    Message('note_on', channel=9, note=55, velocity=127, time=0),
    Message('note_on', channel=9, note=55, velocity=0, time=14),
    Message('note_on', channel=9, note=35, velocity=0, time=0),
    Message('note_on', channel=9, note=46, velocity=0, time=0),
    Message('note_on', channel=9, note=46, velocity=127, time=46),
    Message('note_on', channel=9, note=46, velocity=0, time=14),
    Message('note_on', channel=9, note=46, velocity=127, time=46),
    Message('note_on', channel=9, note=46, velocity=0, time=14),
    Message('note_on', channel=9, note=35, velocity=127, time=46),
    Message('note_on', channel=9, note=46, velocity=127, time=0),
    Message('note_on', channel=9, note=55, velocity=127, time=0),
    Message('note_on', channel=9, note=55, velocity=0, time=14),
    Message('note_on', channel=9, note=46, velocity=0, time=0),
    Message('note_on', channel=9, note=35, velocity=0, time=0),
    Message('note_on', channel=9, note=46, velocity=127, time=46),
    Message('note_on', channel=9, note=46, velocity=0, time=14),
    Message('note_on', channel=9, note=35, velocity=127, time=46),
    Message('note_on', channel=9, note=46, velocity=127, time=0),
    Message('note_on', channel=9, note=46, velocity=0, time=14),
    Message('note_on', channel=9, note=35, velocity=0, time=0),
    Message('note_on', channel=9, note=38, velocity=127, time=46),
    Message('note_on', channel=9, note=46, velocity=127, time=0),
    Message('note_on', channel=9, note=46, velocity=0, time=14),
    Message('note_on', channel=9, note=38, velocity=0, time=0),
    Message('note_on', channel=9, note=46, velocity=127, time=46),
    Message('note_on', channel=9, note=35, velocity=127, time=0),
    Message('note_on', channel=9, note=35, velocity=0, time=14),
    Message('note_on', channel=9, note=46, velocity=0, time=0),
    Message('note_on', channel=9, note=38, velocity=127, time=46),
    Message('note_on', channel=9, note=46, velocity=127, time=0),
    Message('note_on', channel=9, note=46, velocity=0, time=14),
    Message('note_on', channel=9, note=38, velocity=0, time=0),
    Message('note_on', channel=9, note=46, velocity=127, time=46),
    Message('note_on', channel=9, note=35, velocity=127, time=0),
    Message('note_on', channel=9, note=35, velocity=0, time=14),
    Message('note_on', channel=9, note=46, velocity=0, time=0),
    Message('note_on', channel=9, note=46, velocity=127, time=46),
    Message('note_on', channel=9, note=35, velocity=127, time=0),
    Message('note_on', channel=9, note=35, velocity=0, time=14),
    Message('note_on', channel=9, note=46, velocity=0, time=0),
    Message('note_on', channel=9, note=46, velocity=127, time=46),
    Message('note_on', channel=9, note=38, velocity=127, time=0),
    Message('note_on', channel=9, note=38, velocity=0, time=14),
    Message('note_on', channel=9, note=46, velocity=0, time=0),
    Message('note_on', channel=9, note=46, velocity=127, time=46),
    Message('note_on', channel=9, note=46, velocity=0, time=14),
    Message('note_on', channel=9, note=35, velocity=127, time=46),
    Message('note_on', channel=9, note=46, velocity=127, time=0),
    Message('note_on', channel=9, note=46, velocity=0, time=14),
    Message('note_on', channel=9, note=35, velocity=0, time=0),
    Message('note_on', channel=9, note=46, velocity=127, time=46),
    Message('note_on', channel=9, note=38, velocity=127, time=0),
    Message('note_on', channel=9, note=38, velocity=0, time=14),
    Message('note_on', channel=9, note=46, velocity=0, time=0),
    Message('note_on', channel=9, note=35, velocity=127, time=46),
    Message('note_on', channel=9, note=46, velocity=127, time=0),
    Message('note_on', channel=9, note=46, velocity=0, time=14),
    Message('note_on', channel=9, note=35, velocity=0, time=0),
    Message('note_on', channel=9, note=46, velocity=127, time=46),
    Message('note_on', channel=9, note=35, velocity=127, time=0),
    Message('note_on', channel=9, note=35, velocity=0, time=14),
    Message('note_on', channel=9, note=46, velocity=0, time=0),
    Message('note_on', channel=9, note=46, velocity=127, time=46),
    Message('note_on', channel=9, note=38, velocity=127, time=0),
    Message('note_on', channel=9, note=38, velocity=0, time=14),
    Message('note_on', channel=9, note=46, velocity=0, time=0),
    Message('note_on', channel=9, note=46, velocity=127, time=46),
    Message('note_on', channel=9, note=35, velocity=127, time=0),
    Message('note_on', channel=9, note=35, velocity=0, time=14),
    Message('note_on', channel=9, note=46, velocity=0, time=0),
    Message('note_on', channel=9, note=46, velocity=127, time=46),
    Message('note_on', channel=9, note=35, velocity=127, time=0),
    Message('note_on', channel=9, note=35, velocity=0, time=14),
    Message('note_on', channel=9, note=46, velocity=0, time=0),
    Message('note_on', channel=9, note=46, velocity=127, time=46),
    Message('note_on', channel=9, note=38, velocity=127, time=0),
    Message('note_on', channel=9, note=38, velocity=0, time=14),
    Message('note_on', channel=9, note=46, velocity=0, time=0),
    Message('note_on', channel=9, note=46, velocity=127, time=46),
    Message('note_on', channel=9, note=35, velocity=127, time=0),
    Message('note_on', channel=9, note=35, velocity=0, time=14),
    Message('note_on', channel=9, note=46, velocity=0, time=0),
    Message('note_on', channel=9, note=38, velocity=127, time=16),
    Message('note_on', channel=9, note=38, velocity=0, time=14),
    Message('note_on', channel=9, note=46, velocity=127, time=16),
    Message('note_on', channel=9, note=38, velocity=127, time=0),
    Message('note_on', channel=9, note=38, velocity=0, time=14),
    Message('note_on', channel=9, note=46, velocity=0, time=0),
    Message('note_on', channel=9, note=38, velocity=127, time=16),
    Message('note_on', channel=9, note=38, velocity=0, time=14),
    Message('note_on', channel=9, note=46, velocity=127, time=16),
    Message('note_on', channel=9, note=35, velocity=127, time=0),
    Message('note_on', channel=9, note=41, velocity=127, time=0),
    Message('note_on', channel=9, note=41, velocity=0, time=14),
    Message('note_on', channel=9, note=35, velocity=0, time=0),
    Message('note_on', channel=9, note=46, velocity=0, time=0),
    Message('note_on', channel=9, note=46, velocity=127, time=46),
    Message('note_on', channel=9, note=55, velocity=127, time=0),
    Message('note_on', channel=9, note=35, velocity=127, time=0),
    Message('note_on', channel=9, note=35, velocity=0, time=14),
    Message('note_on', channel=9, note=55, velocity=0, time=0),
    Message('note_on', channel=9, note=46, velocity=0, time=0),
    Message('note_on', channel=9, note=46, velocity=127, time=46),
    Message('note_on', channel=9, note=46, velocity=0, time=14),
    Message('note_on', channel=9, note=46, velocity=127, time=46),
    Message('note_on', channel=9, note=38, velocity=127, time=0),
    Message('note_on', channel=9, note=38, velocity=0, time=14),
    Message('note_on', channel=9, note=46, velocity=0, time=0),
    Message('note_on', channel=9, note=46, velocity=127, time=46),
    Message('note_on', channel=9, note=35, velocity=127, time=0),
    Message('note_on', channel=9, note=35, velocity=0, time=14),
    Message('note_on', channel=9, note=46, velocity=0, time=0),
    Message('note_on', channel=9, note=46, velocity=127, time=46),
    Message('note_on', channel=9, note=46, velocity=0, time=14),
    Message('note_on', channel=9, note=46, velocity=127, time=46),
    Message('note_on', channel=9, note=35, velocity=127, time=0),
    Message('note_on', channel=9, note=35, velocity=0, time=14),
    Message('note_on', channel=9, note=46, velocity=0, time=0),
    Message('note_on', channel=9, note=46, velocity=127, time=46),
    Message('note_on', channel=9, note=38, velocity=127, time=0),
    Message('note_on', channel=9, note=38, velocity=0, time=14),
    Message('note_on', channel=9, note=46, velocity=0, time=0),
    Message('note_on', channel=9, note=46, velocity=127, time=46),
    Message('note_on', channel=9, note=35, velocity=127, time=0),
    Message('note_on', channel=9, note=35, velocity=0, time=14),
    Message('note_on', channel=9, note=46, velocity=0, time=0),
    Message('note_on', channel=9, note=46, velocity=127, time=46),
    Message('note_on', channel=9, note=35, velocity=127, time=0),
    Message('note_on', channel=9, note=35, velocity=0, time=14),
    Message('note_on', channel=9, note=46, velocity=0, time=0),
    Message('note_on', channel=9, note=46, velocity=127, time=46),
    Message('note_on', channel=9, note=46, velocity=0, time=14),
    Message('note_on', channel=9, note=46, velocity=127, time=46),
    Message('note_on', channel=9, note=38, velocity=127, time=0),
    Message('note_on', channel=9, note=38, velocity=0, time=14),
    Message('note_on', channel=9, note=46, velocity=0, time=0),
    Message('note_on', channel=9, note=46, velocity=127, time=46),
    Message('note_on', channel=9, note=35, velocity=127, time=0),
    Message('note_on', channel=9, note=35, velocity=0, time=14),
    Message('note_on', channel=9, note=46, velocity=0, time=0),
    Message('note_on', channel=9, note=46, velocity=127, time=46),
    Message('note_on', channel=9, note=46, velocity=0, time=14),
    Message('note_on', channel=9, note=46, velocity=127, time=46),
    Message('note_on', channel=9, note=35, velocity=127, time=0),
    Message('note_on', channel=9, note=35, velocity=0, time=14),
    Message('note_on', channel=9, note=46, velocity=0, time=0),
    Message('note_on', channel=9, note=46, velocity=127, time=46),
    Message('note_on', channel=9, note=38, velocity=127, time=0),
    Message('note_on', channel=9, note=38, velocity=0, time=14),
    Message('note_on', channel=9, note=46, velocity=0, time=0),
    Message('note_on', channel=9, note=35, velocity=127, time=46),
    Message('note_on', channel=9, note=46, velocity=127, time=0),
    Message('note_on', channel=9, note=46, velocity=0, time=14),
    Message('note_on', channel=9, note=35, velocity=0, time=0),
    Message('note_on', channel=9, note=46, velocity=127, time=46),
    Message('note_on', channel=9, note=55, velocity=127, time=0),
    Message('note_on', channel=9, note=35, velocity=127, time=0),
    Message('note_on', channel=9, note=35, velocity=0, time=14),
    Message('note_on', channel=9, note=55, velocity=0, time=0),
    Message('note_on', channel=9, note=46, velocity=0, time=0),
    Message('note_on', channel=9, note=46, velocity=127, time=46),
    Message('note_on', channel=9, note=46, velocity=0, time=14),
    Message('note_on', channel=9, note=46, velocity=127, time=46),
    Message('note_on', channel=9, note=38, velocity=127, time=0),
    Message('note_on', channel=9, note=38, velocity=0, time=14),
    Message('note_on', channel=9, note=46, velocity=0, time=0),
    Message('note_on', channel=9, note=46, velocity=127, time=46),
    Message('note_on', channel=9, note=35, velocity=127, time=0),
    Message('note_on', channel=9, note=35, velocity=0, time=14),
    Message('note_on', channel=9, note=46, velocity=0, time=0),
    Message('note_on', channel=9, note=46, velocity=127, time=46),
    Message('note_on', channel=9, note=46, velocity=0, time=14),
    Message('note_on', channel=9, note=46, velocity=127, time=46),
    Message('note_on', channel=9, note=35, velocity=127, time=0),
    Message('note_on', channel=9, note=35, velocity=0, time=14),
    Message('note_on', channel=9, note=46, velocity=0, time=0),
    Message('note_on', channel=9, note=46, velocity=127, time=46),
    Message('note_on', channel=9, note=38, velocity=127, time=0),
    Message('note_on', channel=9, note=38, velocity=0, time=14),
    Message('note_on', channel=9, note=46, velocity=0, time=0),
    Message('note_on', channel=9, note=46, velocity=127, time=46),
    Message('note_on', channel=9, note=35, velocity=127, time=0),
    Message('note_on', channel=9, note=35, velocity=0, time=14),
    Message('note_on', channel=9, note=46, velocity=0, time=0),
    Message('note_on', channel=9, note=46, velocity=127, time=46),
    Message('note_on', channel=9, note=35, velocity=127, time=0),
    Message('note_on', channel=9, note=35, velocity=0, time=14),
    Message('note_on', channel=9, note=46, velocity=0, time=0),
    Message('note_on', channel=9, note=46, velocity=127, time=46),
    Message('note_on', channel=9, note=46, velocity=0, time=14),
    Message('note_on', channel=9, note=46, velocity=127, time=46),
    Message('note_on', channel=9, note=38, velocity=127, time=0),
    Message('note_on', channel=9, note=38, velocity=0, time=14),
    Message('note_on', channel=9, note=46, velocity=0, time=0),
    Message('note_on', channel=9, note=46, velocity=127, time=46),
    Message('note_on', channel=9, note=35, velocity=127, time=0),
    Message('note_on', channel=9, note=35, velocity=0, time=14),
    Message('note_on', channel=9, note=46, velocity=0, time=0),
    Message('note_on', channel=9, note=46, velocity=127, time=46),
    Message('note_on', channel=9, note=46, velocity=0, time=14),
    Message('note_on', channel=9, note=46, velocity=127, time=46),
    Message('note_on', channel=9, note=35, velocity=127, time=0),
    Message('note_on', channel=9, note=35, velocity=0, time=14),
    Message('note_on', channel=9, note=46, velocity=0, time=0),
    Message('note_on', channel=9, note=46, velocity=127, time=46),
    Message('note_on', channel=9, note=38, velocity=127, time=0),
    Message('note_on', channel=9, note=38, velocity=0, time=14),
    Message('note_on', channel=9, note=46, velocity=0, time=0),
    Message('note_on', channel=9, note=35, velocity=127, time=46),
    Message('note_on', channel=9, note=46, velocity=127, time=0),
    Message('note_on', channel=9, note=46, velocity=0, time=14),
    Message('note_on', channel=9, note=35, velocity=0, time=0),
    Message('note_on', channel=9, note=46, velocity=127, time=46),
    Message('note_on', channel=9, note=55, velocity=127, time=0),
    Message('note_on', channel=9, note=35, velocity=127, time=0),
    Message('note_on', channel=9, note=35, velocity=0, time=14),
    Message('note_on', channel=9, note=55, velocity=0, time=0),
    Message('note_on', channel=9, note=46, velocity=0, time=0),
    Message('note_on', channel=9, note=46, velocity=127, time=46),
    Message('note_on', channel=9, note=46, velocity=0, time=14),
    Message('note_on', channel=9, note=46, velocity=127, time=46),
    Message('note_on', channel=9, note=38, velocity=127, time=0),
    Message('note_on', channel=9, note=38, velocity=0, time=14),
    Message('note_on', channel=9, note=46, velocity=0, time=0),
    Message('note_on', channel=9, note=46, velocity=127, time=46),
    Message('note_on', channel=9, note=35, velocity=127, time=0),
    Message('note_on', channel=9, note=35, velocity=0, time=14),
    Message('note_on', channel=9, note=46, velocity=0, time=0),
    Message('note_on', channel=9, note=46, velocity=127, time=46),
    Message('note_on', channel=9, note=46, velocity=0, time=14),
    Message('note_on', channel=9, note=46, velocity=127, time=46),
    Message('note_on', channel=9, note=35, velocity=127, time=0),
    Message('note_on', channel=9, note=35, velocity=0, time=14),
    Message('note_on', channel=9, note=46, velocity=0, time=0),
    Message('note_on', channel=9, note=46, velocity=127, time=46),
    Message('note_on', channel=9, note=38, velocity=127, time=0),
    Message('note_on', channel=9, note=38, velocity=0, time=14),
    Message('note_on', channel=9, note=46, velocity=0, time=0),
    Message('note_on', channel=9, note=46, velocity=127, time=46),
    Message('note_on', channel=9, note=35, velocity=127, time=0),
    Message('note_on', channel=9, note=35, velocity=0, time=14),
    Message('note_on', channel=9, note=46, velocity=0, time=0),
    Message('note_on', channel=9, note=46, velocity=127, time=46),
    Message('note_on', channel=9, note=35, velocity=127, time=0),
    Message('note_on', channel=9, note=35, velocity=0, time=14),
    Message('note_on', channel=9, note=46, velocity=0, time=0),
    Message('note_on', channel=9, note=46, velocity=127, time=46),
    Message('note_on', channel=9, note=46, velocity=0, time=14),
    Message('note_on', channel=9, note=46, velocity=127, time=46),
    Message('note_on', channel=9, note=38, velocity=127, time=0),
    Message('note_on', channel=9, note=38, velocity=0, time=14),
    Message('note_on', channel=9, note=46, velocity=0, time=0),
    Message('note_on', channel=9, note=46, velocity=127, time=46),
    Message('note_on', channel=9, note=35, velocity=127, time=0),
    Message('note_on', channel=9, note=35, velocity=0, time=14),
    Message('note_on', channel=9, note=46, velocity=0, time=0),
    Message('note_on', channel=9, note=46, velocity=127, time=46),
    Message('note_on', channel=9, note=46, velocity=0, time=14),
    Message('note_on', channel=9, note=46, velocity=127, time=46),
    Message('note_on', channel=9, note=35, velocity=127, time=0),
    Message('note_on', channel=9, note=35, velocity=0, time=14),
    Message('note_on', channel=9, note=46, velocity=0, time=0),
    Message('note_on', channel=9, note=46, velocity=127, time=46),
    Message('note_on', channel=9, note=38, velocity=127, time=0),
    Message('note_on', channel=9, note=38, velocity=0, time=14),
    Message('note_on', channel=9, note=46, velocity=0, time=0),
    Message('note_on', channel=9, note=35, velocity=127, time=46),
    Message('note_on', channel=9, note=46, velocity=127, time=0),
    Message('note_on', channel=9, note=46, velocity=0, time=14),
    Message('note_on', channel=9, note=35, velocity=0, time=0),
    Message('note_on', channel=9, note=46, velocity=127, time=46),
    Message('note_on', channel=9, note=55, velocity=127, time=0),
    Message('note_on', channel=9, note=35, velocity=127, time=0),
    Message('note_on', channel=9, note=35, velocity=0, time=14),
    Message('note_on', channel=9, note=55, velocity=0, time=0),
    Message('note_on', channel=9, note=46, velocity=0, time=0),
    Message('note_on', channel=9, note=46, velocity=127, time=46),
    Message('note_on', channel=9, note=46, velocity=0, time=14),
    Message('note_on', channel=9, note=46, velocity=127, time=46),
    Message('note_on', channel=9, note=38, velocity=127, time=0),
    Message('note_on', channel=9, note=38, velocity=0, time=14),
    Message('note_on', channel=9, note=46, velocity=0, time=0),
    Message('note_on', channel=9, note=46, velocity=127, time=46),
    Message('note_on', channel=9, note=35, velocity=127, time=0),
    Message('note_on', channel=9, note=35, velocity=0, time=14),
    Message('note_on', channel=9, note=46, velocity=0, time=0),
    Message('note_on', channel=9, note=46, velocity=127, time=46),
    Message('note_on', channel=9, note=46, velocity=0, time=14),
    Message('note_on', channel=9, note=46, velocity=127, time=46),
    Message('note_on', channel=9, note=35, velocity=127, time=0),
    Message('note_on', channel=9, note=35, velocity=0, time=14),
    Message('note_on', channel=9, note=46, velocity=0, time=0),
    Message('note_on', channel=9, note=46, velocity=127, time=46),
    Message('note_on', channel=9, note=38, velocity=127, time=0),
    Message('note_on', channel=9, note=38, velocity=0, time=14),
    Message('note_on', channel=9, note=46, velocity=0, time=0),
    Message('note_on', channel=9, note=46, velocity=127, time=46),
    Message('note_on', channel=9, note=35, velocity=127, time=0),
    Message('note_on', channel=9, note=35, velocity=0, time=14),
    Message('note_on', channel=9, note=46, velocity=0, time=0),
    Message('note_on', channel=9, note=46, velocity=127, time=46),
    Message('note_on', channel=9, note=35, velocity=127, time=0),
    Message('note_on', channel=9, note=35, velocity=0, time=14),
    Message('note_on', channel=9, note=46, velocity=0, time=0),
    Message('note_on', channel=9, note=46, velocity=127, time=46),
    Message('note_on', channel=9, note=46, velocity=0, time=14),
    Message('note_on', channel=9, note=46, velocity=127, time=46),
    Message('note_on', channel=9, note=38, velocity=127, time=0),
    Message('note_on', channel=9, note=38, velocity=0, time=14),
    Message('note_on', channel=9, note=46, velocity=0, time=0),
    Message('note_on', channel=9, note=46, velocity=127, time=46),
    Message('note_on', channel=9, note=35, velocity=127, time=0),
    Message('note_on', channel=9, note=35, velocity=0, time=14),
    Message('note_on', channel=9, note=46, velocity=0, time=0),
    Message('note_on', channel=9, note=46, velocity=127, time=46),
    Message('note_on', channel=9, note=46, velocity=0, time=14),
    Message('note_on', channel=9, note=46, velocity=127, time=46),
    Message('note_on', channel=9, note=35, velocity=127, time=0),
    Message('note_on', channel=9, note=35, velocity=0, time=14),
    Message('note_on', channel=9, note=46, velocity=0, time=0),
    Message('note_on', channel=9, note=46, velocity=127, time=46),
    Message('note_on', channel=9, note=38, velocity=127, time=0),
    Message('note_on', channel=9, note=38, velocity=0, time=14),
    Message('note_on', channel=9, note=46, velocity=0, time=0),
    Message('note_on', channel=9, note=35, velocity=127, time=46),
    Message('note_on', channel=9, note=46, velocity=127, time=0),
    Message('note_on', channel=9, note=46, velocity=0, time=14),
    Message('note_on', channel=9, note=35, velocity=0, time=0),
    Message('note_on', channel=9, note=46, velocity=127, time=46),
    Message('note_on', channel=9, note=55, velocity=127, time=0),
    Message('note_on', channel=9, note=35, velocity=127, time=0),
    Message('note_on', channel=9, note=35, velocity=0, time=14),
    Message('note_on', channel=9, note=55, velocity=0, time=0),
    Message('note_on', channel=9, note=46, velocity=0, time=0),
    Message('note_on', channel=9, note=46, velocity=127, time=46),
    Message('note_on', channel=9, note=46, velocity=0, time=14),
    Message('note_on', channel=9, note=46, velocity=127, time=46),
    Message('note_on', channel=9, note=38, velocity=127, time=0),
    Message('note_on', channel=9, note=38, velocity=0, time=14),
    Message('note_on', channel=9, note=46, velocity=0, time=0),
    Message('note_on', channel=9, note=46, velocity=127, time=46),
    Message('note_on', channel=9, note=35, velocity=127, time=0),
    Message('note_on', channel=9, note=35, velocity=0, time=14),
    Message('note_on', channel=9, note=46, velocity=0, time=0),
    Message('note_on', channel=9, note=46, velocity=127, time=46),
    Message('note_on', channel=9, note=46, velocity=0, time=14),
    Message('note_on', channel=9, note=46, velocity=127, time=46),
    Message('note_on', channel=9, note=35, velocity=127, time=0),
    Message('note_on', channel=9, note=35, velocity=0, time=14),
    Message('note_on', channel=9, note=46, velocity=0, time=0),
    Message('note_on', channel=9, note=46, velocity=127, time=46),
    Message('note_on', channel=9, note=38, velocity=127, time=0),
    Message('note_on', channel=9, note=38, velocity=0, time=14),
    Message('note_on', channel=9, note=46, velocity=0, time=0),
    Message('note_on', channel=9, note=46, velocity=127, time=46),
    Message('note_on', channel=9, note=35, velocity=127, time=0),
    Message('note_on', channel=9, note=35, velocity=0, time=14),
    Message('note_on', channel=9, note=46, velocity=0, time=0),
    Message('note_on', channel=9, note=46, velocity=127, time=46),
    Message('note_on', channel=9, note=35, velocity=127, time=0),
    Message('note_on', channel=9, note=35, velocity=0, time=14),
    Message('note_on', channel=9, note=46, velocity=0, time=0),
    Message('note_on', channel=9, note=46, velocity=127, time=46),
    Message('note_on', channel=9, note=46, velocity=0, time=14),
    Message('note_on', channel=9, note=46, velocity=127, time=46),
    Message('note_on', channel=9, note=38, velocity=127, time=0),
    Message('note_on', channel=9, note=38, velocity=0, time=14),
    Message('note_on', channel=9, note=46, velocity=0, time=0),
    Message('note_on', channel=9, note=46, velocity=127, time=46),
    Message('note_on', channel=9, note=35, velocity=127, time=0),
    Message('note_on', channel=9, note=35, velocity=0, time=14),
    Message('note_on', channel=9, note=46, velocity=0, time=0),
    Message('note_on', channel=9, note=46, velocity=127, time=46),
    Message('note_on', channel=9, note=46, velocity=0, time=14),
    Message('note_on', channel=9, note=46, velocity=127, time=46),
    Message('note_on', channel=9, note=35, velocity=127, time=0),
    Message('note_on', channel=9, note=35, velocity=0, time=14),
    Message('note_on', channel=9, note=46, velocity=0, time=0),
    Message('note_on', channel=9, note=46, velocity=127, time=46),
    Message('note_on', channel=9, note=38, velocity=127, time=0),
    Message('note_on', channel=9, note=38, velocity=0, time=14),
    Message('note_on', channel=9, note=46, velocity=0, time=0),
    Message('note_on', channel=9, note=35, velocity=127, time=46),
    Message('note_on', channel=9, note=46, velocity=127, time=0),
    Message('note_on', channel=9, note=46, velocity=0, time=14),
    Message('note_on', channel=9, note=35, velocity=0, time=0),
    Message('note_on', channel=9, note=46, velocity=127, time=46),
    Message('note_on', channel=9, note=55, velocity=127, time=0),
    Message('note_on', channel=9, note=35, velocity=127, time=0),
    Message('note_on', channel=9, note=35, velocity=0, time=14),
    Message('note_on', channel=9, note=55, velocity=0, time=0),
    Message('note_on', channel=9, note=46, velocity=0, time=0),
    Message('note_on', channel=9, note=46, velocity=127, time=46),
    Message('note_on', channel=9, note=46, velocity=0, time=14),
    Message('note_on', channel=9, note=46, velocity=127, time=46),
    Message('note_on', channel=9, note=38, velocity=127, time=0),
    Message('note_on', channel=9, note=38, velocity=0, time=14),
    Message('note_on', channel=9, note=46, velocity=0, time=0),
    Message('note_on', channel=9, note=46, velocity=127, time=46),
    Message('note_on', channel=9, note=35, velocity=127, time=0),
    Message('note_on', channel=9, note=35, velocity=0, time=14),
    Message('note_on', channel=9, note=46, velocity=0, time=0),
    Message('note_on', channel=9, note=46, velocity=127, time=46),
    Message('note_on', channel=9, note=46, velocity=0, time=14),
    Message('note_on', channel=9, note=46, velocity=127, time=46),
    Message('note_on', channel=9, note=35, velocity=127, time=0),
    Message('note_on', channel=9, note=35, velocity=0, time=14),
    Message('note_on', channel=9, note=46, velocity=0, time=0),
    Message('note_on', channel=9, note=46, velocity=127, time=46),
    Message('note_on', channel=9, note=38, velocity=127, time=0),
    Message('note_on', channel=9, note=38, velocity=0, time=14),
    Message('note_on', channel=9, note=46, velocity=0, time=0),
    Message('note_on', channel=9, note=46, velocity=127, time=46),
    Message('note_on', channel=9, note=35, velocity=127, time=0),
    Message('note_on', channel=9, note=35, velocity=0, time=14),
    Message('note_on', channel=9, note=46, velocity=0, time=0),
    Message('note_on', channel=9, note=46, velocity=127, time=46),
    Message('note_on', channel=9, note=35, velocity=127, time=0),
    Message('note_on', channel=9, note=35, velocity=0, time=14),
    Message('note_on', channel=9, note=46, velocity=0, time=0),
    Message('note_on', channel=9, note=46, velocity=127, time=46),
    Message('note_on', channel=9, note=46, velocity=0, time=14),
    Message('note_on', channel=9, note=46, velocity=127, time=46),
    Message('note_on', channel=9, note=38, velocity=127, time=0),
    Message('note_on', channel=9, note=38, velocity=0, time=14),
    Message('note_on', channel=9, note=46, velocity=0, time=0),
    Message('note_on', channel=9, note=46, velocity=127, time=46),
    Message('note_on', channel=9, note=35, velocity=127, time=0),
    Message('note_on', channel=9, note=35, velocity=0, time=14),
    Message('note_on', channel=9, note=46, velocity=0, time=0),
    Message('note_on', channel=9, note=46, velocity=127, time=46),
    Message('note_on', channel=9, note=46, velocity=0, time=14),
    Message('note_on', channel=9, note=46, velocity=127, time=46),
    Message('note_on', channel=9, note=35, velocity=127, time=0),
    Message('note_on', channel=9, note=35, velocity=0, time=14),
    Message('note_on', channel=9, note=46, velocity=0, time=0),
    Message('note_on', channel=9, note=46, velocity=127, time=46),
    Message('note_on', channel=9, note=38, velocity=127, time=0),
    Message('note_on', channel=9, note=38, velocity=0, time=14),
    Message('note_on', channel=9, note=46, velocity=0, time=0),
    Message('note_on', channel=9, note=35, velocity=127, time=46),
    Message('note_on', channel=9, note=46, velocity=127, time=0),
    Message('note_on', channel=9, note=46, velocity=0, time=14),
    Message('note_on', channel=9, note=35, velocity=0, time=0),
    Message('note_on', channel=9, note=46, velocity=127, time=46),
    Message('note_on', channel=9, note=55, velocity=127, time=0),
    Message('note_on', channel=9, note=35, velocity=127, time=0),
    Message('note_on', channel=9, note=35, velocity=0, time=14),
    Message('note_on', channel=9, note=55, velocity=0, time=0),
    Message('note_on', channel=9, note=46, velocity=0, time=0),
    Message('note_on', channel=9, note=46, velocity=127, time=46),
    Message('note_on', channel=9, note=46, velocity=0, time=14),
    Message('note_on', channel=9, note=46, velocity=127, time=46),
    Message('note_on', channel=9, note=38, velocity=127, time=0),
    Message('note_on', channel=9, note=38, velocity=0, time=14),
    Message('note_on', channel=9, note=46, velocity=0, time=0),
    Message('note_on', channel=9, note=46, velocity=127, time=46),
    Message('note_on', channel=9, note=35, velocity=127, time=0),
    Message('note_on', channel=9, note=35, velocity=0, time=14),
    Message('note_on', channel=9, note=46, velocity=0, time=0),
    Message('note_on', channel=9, note=46, velocity=127, time=46),
    Message('note_on', channel=9, note=46, velocity=0, time=14),
    Message('note_on', channel=9, note=46, velocity=127, time=46),
    Message('note_on', channel=9, note=35, velocity=127, time=0),
    Message('note_on', channel=9, note=35, velocity=0, time=14),
    Message('note_on', channel=9, note=46, velocity=0, time=0),
    Message('note_on', channel=9, note=46, velocity=127, time=46),
    Message('note_on', channel=9, note=38, velocity=127, time=0),
    Message('note_on', channel=9, note=38, velocity=0, time=14),
    Message('note_on', channel=9, note=46, velocity=0, time=0),
    Message('note_on', channel=9, note=46, velocity=127, time=46),
    Message('note_on', channel=9, note=35, velocity=127, time=0),
    Message('note_on', channel=9, note=35, velocity=0, time=14),
    Message('note_on', channel=9, note=46, velocity=0, time=0),
    Message('note_on', channel=9, note=46, velocity=127, time=46),
    Message('note_on', channel=9, note=35, velocity=127, time=0),
    Message('note_on', channel=9, note=35, velocity=0, time=14),
    Message('note_on', channel=9, note=46, velocity=0, time=0),
    Message('note_on', channel=9, note=46, velocity=127, time=46),
    Message('note_on', channel=9, note=46, velocity=0, time=14),
    Message('note_on', channel=9, note=46, velocity=127, time=46),
    Message('note_on', channel=9, note=38, velocity=127, time=0),
    Message('note_on', channel=9, note=38, velocity=0, time=14),
    Message('note_on', channel=9, note=46, velocity=0, time=0),
    Message('note_on', channel=9, note=46, velocity=127, time=46),
    Message('note_on', channel=9, note=35, velocity=127, time=0),
    Message('note_on', channel=9, note=35, velocity=0, time=14),
    Message('note_on', channel=9, note=46, velocity=0, time=0),
    Message('note_on', channel=9, note=46, velocity=127, time=46),
    Message('note_on', channel=9, note=46, velocity=0, time=14),
    Message('note_on', channel=9, note=46, velocity=127, time=46),
    Message('note_on', channel=9, note=35, velocity=127, time=0),
    Message('note_on', channel=9, note=35, velocity=0, time=14),
    Message('note_on', channel=9, note=46, velocity=0, time=0),
    Message('note_on', channel=9, note=46, velocity=127, time=46),
    Message('note_on', channel=9, note=38, velocity=127, time=0),
    Message('note_on', channel=9, note=38, velocity=0, time=14),
    Message('note_on', channel=9, note=46, velocity=0, time=0),
    Message('note_on', channel=9, note=35, velocity=127, time=46),
    Message('note_on', channel=9, note=46, velocity=127, time=0),
    Message('note_on', channel=9, note=46, velocity=0, time=14),
    Message('note_on', channel=9, note=35, velocity=0, time=0),
    Message('note_on', channel=9, note=46, velocity=127, time=46),
    Message('note_on', channel=9, note=55, velocity=127, time=0),
    Message('note_on', channel=9, note=35, velocity=127, time=0),
    Message('note_on', channel=9, note=35, velocity=0, time=14),
    Message('note_on', channel=9, note=55, velocity=0, time=0),
    Message('note_on', channel=9, note=46, velocity=0, time=0),
    Message('note_on', channel=9, note=46, velocity=127, time=46),
    Message('note_on', channel=9, note=46, velocity=0, time=14),
    Message('note_on', channel=9, note=46, velocity=127, time=46),
    Message('note_on', channel=9, note=38, velocity=127, time=0),
    Message('note_on', channel=9, note=38, velocity=0, time=14),
    Message('note_on', channel=9, note=46, velocity=0, time=0),
    Message('note_on', channel=9, note=46, velocity=127, time=46),
    Message('note_on', channel=9, note=35, velocity=127, time=0),
    Message('note_on', channel=9, note=35, velocity=0, time=14),
    Message('note_on', channel=9, note=46, velocity=0, time=0),
    Message('note_on', channel=9, note=46, velocity=127, time=46),
    Message('note_on', channel=9, note=46, velocity=0, time=14),
    Message('note_on', channel=9, note=46, velocity=127, time=46),
    Message('note_on', channel=9, note=35, velocity=127, time=0),
    Message('note_on', channel=9, note=35, velocity=0, time=14),
    Message('note_on', channel=9, note=46, velocity=0, time=0),
    Message('note_on', channel=9, note=46, velocity=127, time=46),
    Message('note_on', channel=9, note=38, velocity=127, time=0),
    Message('note_on', channel=9, note=38, velocity=0, time=14),
    Message('note_on', channel=9, note=46, velocity=0, time=0),
    Message('note_on', channel=9, note=46, velocity=127, time=46),
    Message('note_on', channel=9, note=35, velocity=127, time=0),
    Message('note_on', channel=9, note=35, velocity=0, time=14),
    Message('note_on', channel=9, note=46, velocity=0, time=0),
    Message('note_on', channel=9, note=46, velocity=127, time=46),
    Message('note_on', channel=9, note=55, velocity=127, time=0),
    Message('note_on', channel=9, note=35, velocity=127, time=0),
    Message('note_on', channel=9, note=35, velocity=0, time=14),
    Message('note_on', channel=9, note=55, velocity=0, time=0),
    Message('note_on', channel=9, note=46, velocity=0, time=0),
    Message('note_on', channel=9, note=46, velocity=127, time=46),
    Message('note_on', channel=9, note=46, velocity=0, time=14),
    Message('note_on', channel=9, note=46, velocity=127, time=46),
    Message('note_on', channel=9, note=35, velocity=127, time=0),
    Message('note_on', channel=9, note=35, velocity=0, time=14),
    Message('note_on', channel=9, note=46, velocity=0, time=0),
    Message('note_on', channel=9, note=46, velocity=127, time=46),
    Message('note_on', channel=9, note=55, velocity=127, time=0),
    Message('note_on', channel=9, note=35, velocity=127, time=0),
    Message('note_on', channel=9, note=35, velocity=0, time=14),
    Message('note_on', channel=9, note=55, velocity=0, time=0),
    Message('note_on', channel=9, note=46, velocity=0, time=0),
    Message('note_on', channel=9, note=46, velocity=127, time=46),
    Message('note_on', channel=9, note=46, velocity=0, time=14),
    Message('note_on', channel=9, note=46, velocity=127, time=46),
    Message('note_on', channel=9, note=35, velocity=127, time=0),
    Message('note_on', channel=9, note=35, velocity=0, time=14),
    Message('note_on', channel=9, note=46, velocity=0, time=0),
    Message('note_on', channel=9, note=46, velocity=127, time=46),
    Message('note_on', channel=9, note=38, velocity=127, time=0),
    Message('note_on', channel=9, note=38, velocity=0, time=14),
    Message('note_on', channel=9, note=46, velocity=0, time=0),
    Message('note_on', channel=9, note=35, velocity=127, time=46),
    Message('note_on', channel=9, note=46, velocity=127, time=0),
    Message('note_on', channel=9, note=46, velocity=0, time=14),
    Message('note_on', channel=9, note=35, velocity=0, time=0),
    Message('note_on', channel=9, note=55, velocity=127, time=46),
    Message('note_on', channel=9, note=35, velocity=127, time=0),
    Message('note_on', channel=9, note=46, velocity=127, time=0),
    Message('note_on', channel=9, note=46, velocity=0, time=14),
    Message('note_on', channel=9, note=35, velocity=0, time=0),
    Message('note_on', channel=9, note=55, velocity=0, time=0),
    Message('note_on', channel=9, note=38, velocity=127, time=46),
    Message('note_on', channel=9, note=46, velocity=127, time=0),
    Message('note_on', channel=9, note=46, velocity=0, time=14),
    Message('note_on', channel=9, note=38, velocity=0, time=0),
    Message('note_on', channel=9, note=35, velocity=127, time=46),
    Message('note_on', channel=9, note=46, velocity=127, time=0),
    Message('note_on', channel=9, note=46, velocity=0, time=14),
    Message('note_on', channel=9, note=35, velocity=0, time=0),
    Message('note_on', channel=9, note=35, velocity=127, time=46),
    Message('note_on', channel=9, note=46, velocity=127, time=0),
    Message('note_on', channel=9, note=46, velocity=0, time=14),
    Message('note_on', channel=9, note=35, velocity=0, time=0),
    Message('note_on', channel=9, note=38, velocity=127, time=46),
    Message('note_on', channel=9, note=46, velocity=127, time=0),
    Message('note_on', channel=9, note=46, velocity=0, time=14),
    Message('note_on', channel=9, note=38, velocity=0, time=0),
    Message('note_on', channel=9, note=35, velocity=127, time=46),
    Message('note_on', channel=9, note=46, velocity=127, time=0),
    Message('note_on', channel=9, note=46, velocity=0, time=14),
    Message('note_on', channel=9, note=35, velocity=0, time=0),
    Message('note_on', channel=9, note=46, velocity=127, time=46),
    Message('note_on', channel=9, note=55, velocity=127, time=0),
    Message('note_on', channel=9, note=38, velocity=127, time=0),
    Message('note_on', channel=9, note=38, velocity=0, time=14),
    Message('note_on', channel=9, note=55, velocity=0, time=0),
    Message('note_on', channel=9, note=46, velocity=0, time=0),
    Message('note_on', channel=9, note=46, velocity=127, time=46),
    Message('note_on', channel=9, note=46, velocity=0, time=14),
    Message('note_on', channel=9, note=46, velocity=127, time=46),
    Message('note_on', channel=9, note=55, velocity=127, time=0),
    Message('note_on', channel=9, note=35, velocity=127, time=0),
    Message('note_on', channel=9, note=35, velocity=0, time=14),
    Message('note_on', channel=9, note=55, velocity=0, time=0),
    Message('note_on', channel=9, note=46, velocity=0, time=0),
    Message('note_on', channel=9, note=46, velocity=127, time=46),
    Message('note_on', channel=9, note=46, velocity=0, time=14),
    Message('note_on', channel=9, note=46, velocity=127, time=46),
    Message('note_on', channel=9, note=38, velocity=127, time=0),
    Message('note_on', channel=9, note=38, velocity=0, time=14),
    Message('note_on', channel=9, note=46, velocity=0, time=0),
    Message('note_on', channel=9, note=46, velocity=127, time=46),
    Message('note_on', channel=9, note=35, velocity=127, time=0),
    Message('note_on', channel=9, note=35, velocity=0, time=14),
    Message('note_on', channel=9, note=46, velocity=0, time=0),
    Message('note_on', channel=9, note=46, velocity=127, time=46),
    Message('note_on', channel=9, note=46, velocity=0, time=14),
    Message('note_on', channel=9, note=46, velocity=127, time=46),
    Message('note_on', channel=9, note=35, velocity=127, time=0),
    Message('note_on', channel=9, note=35, velocity=0, time=14),
    Message('note_on', channel=9, note=46, velocity=0, time=0),
    Message('note_on', channel=9, note=46, velocity=127, time=46),
    Message('note_on', channel=9, note=38, velocity=127, time=0),
    Message('note_on', channel=9, note=38, velocity=0, time=14),
    Message('note_on', channel=9, note=46, velocity=0, time=0),
    Message('note_on', channel=9, note=46, velocity=127, time=46),
    Message('note_on', channel=9, note=35, velocity=127, time=0),
    Message('note_on', channel=9, note=35, velocity=0, time=14),
    Message('note_on', channel=9, note=46, velocity=0, time=0),
    Message('note_on', channel=9, note=46, velocity=127, time=46),
    Message('note_on', channel=9, note=35, velocity=127, time=0),
    Message('note_on', channel=9, note=35, velocity=0, time=14),
    Message('note_on', channel=9, note=46, velocity=0, time=0),
    Message('note_on', channel=9, note=46, velocity=127, time=46),
    Message('note_on', channel=9, note=46, velocity=0, time=14),
    Message('note_on', channel=9, note=46, velocity=127, time=46),
    Message('note_on', channel=9, note=38, velocity=127, time=0),
    Message('note_on', channel=9, note=38, velocity=0, time=14),
    Message('note_on', channel=9, note=46, velocity=0, time=0),
    Message('note_on', channel=9, note=46, velocity=127, time=46),
    Message('note_on', channel=9, note=35, velocity=127, time=0),
    Message('note_on', channel=9, note=35, velocity=0, time=14),
    Message('note_on', channel=9, note=46, velocity=0, time=0),
    Message('note_on', channel=9, note=46, velocity=127, time=46),
    Message('note_on', channel=9, note=46, velocity=0, time=14),
    Message('note_on', channel=9, note=46, velocity=127, time=46),
    Message('note_on', channel=9, note=35, velocity=127, time=0),
    Message('note_on', channel=9, note=35, velocity=0, time=14),
    Message('note_on', channel=9, note=46, velocity=0, time=0),
    Message('note_on', channel=9, note=46, velocity=127, time=46),
    Message('note_on', channel=9, note=38, velocity=127, time=0),
    Message('note_on', channel=9, note=38, velocity=0, time=14),
    Message('note_on', channel=9, note=46, velocity=0, time=0),
    Message('note_on', channel=9, note=35, velocity=127, time=46),
    Message('note_on', channel=9, note=46, velocity=127, time=0),
    Message('note_on', channel=9, note=46, velocity=0, time=14),
    Message('note_on', channel=9, note=35, velocity=0, time=0),
    Message('note_on', channel=9, note=46, velocity=127, time=46),
    Message('note_on', channel=9, note=55, velocity=127, time=0),
    Message('note_on', channel=9, note=35, velocity=127, time=0),
    Message('note_on', channel=9, note=35, velocity=0, time=14),
    Message('note_on', channel=9, note=55, velocity=0, time=0),
    Message('note_on', channel=9, note=46, velocity=0, time=0),
    Message('note_on', channel=9, note=46, velocity=127, time=46),
    Message('note_on', channel=9, note=46, velocity=0, time=14),
    Message('note_on', channel=9, note=46, velocity=127, time=46),
    Message('note_on', channel=9, note=38, velocity=127, time=0),
    Message('note_on', channel=9, note=38, velocity=0, time=14),
    Message('note_on', channel=9, note=46, velocity=0, time=0),
    Message('note_on', channel=9, note=46, velocity=127, time=46),
    Message('note_on', channel=9, note=35, velocity=127, time=0),
    Message('note_on', channel=9, note=35, velocity=0, time=14),
    Message('note_on', channel=9, note=46, velocity=0, time=0),
    Message('note_on', channel=9, note=46, velocity=127, time=46),
    Message('note_on', channel=9, note=46, velocity=0, time=14),
    Message('note_on', channel=9, note=46, velocity=127, time=46),
    Message('note_on', channel=9, note=35, velocity=127, time=0),
    Message('note_on', channel=9, note=35, velocity=0, time=14),
    Message('note_on', channel=9, note=46, velocity=0, time=0),
    Message('note_on', channel=9, note=46, velocity=127, time=46),
    Message('note_on', channel=9, note=38, velocity=127, time=0),
    Message('note_on', channel=9, note=38, velocity=0, time=14),
    Message('note_on', channel=9, note=46, velocity=0, time=0),
    Message('note_on', channel=9, note=46, velocity=127, time=46),
    Message('note_on', channel=9, note=35, velocity=127, time=0),
    Message('note_on', channel=9, note=35, velocity=0, time=14),
    Message('note_on', channel=9, note=46, velocity=0, time=0),
    Message('note_on', channel=9, note=46, velocity=127, time=46),
    Message('note_on', channel=9, note=35, velocity=127, time=0),
    Message('note_on', channel=9, note=35, velocity=0, time=14),
    Message('note_on', channel=9, note=46, velocity=0, time=0),
    Message('note_on', channel=9, note=46, velocity=127, time=46),
    Message('note_on', channel=9, note=46, velocity=0, time=14),
    Message('note_on', channel=9, note=46, velocity=127, time=46),
    Message('note_on', channel=9, note=38, velocity=127, time=0),
    Message('note_on', channel=9, note=38, velocity=0, time=14),
    Message('note_on', channel=9, note=46, velocity=0, time=0),
    Message('note_on', channel=9, note=46, velocity=127, time=46),
    Message('note_on', channel=9, note=35, velocity=127, time=0),
    Message('note_on', channel=9, note=35, velocity=0, time=14),
    Message('note_on', channel=9, note=46, velocity=0, time=0),
    Message('note_on', channel=9, note=46, velocity=127, time=46),
    Message('note_on', channel=9, note=46, velocity=0, time=14),
    Message('note_on', channel=9, note=46, velocity=127, time=46),
    Message('note_on', channel=9, note=35, velocity=127, time=0),
    Message('note_on', channel=9, note=35, velocity=0, time=14),
    Message('note_on', channel=9, note=46, velocity=0, time=0),
    Message('note_on', channel=9, note=46, velocity=127, time=46),
    Message('note_on', channel=9, note=38, velocity=127, time=0),
    Message('note_on', channel=9, note=38, velocity=0, time=14),
    Message('note_on', channel=9, note=46, velocity=0, time=0),
    Message('note_on', channel=9, note=35, velocity=127, time=46),
    Message('note_on', channel=9, note=46, velocity=127, time=0),
    Message('note_on', channel=9, note=46, velocity=0, time=14),
    Message('note_on', channel=9, note=35, velocity=0, time=0),
    Message('note_on', channel=9, note=46, velocity=127, time=46),
    Message('note_on', channel=9, note=35, velocity=127, time=0),
    Message('note_on', channel=9, note=55, velocity=127, time=0),
    Message('note_on', channel=9, note=55, velocity=0, time=14),
    Message('note_on', channel=9, note=35, velocity=0, time=0),
    Message('note_on', channel=9, note=46, velocity=0, time=0),
    Message('note_on', channel=9, note=46, velocity=127, time=46),
    Message('note_on', channel=9, note=46, velocity=0, time=14),
    Message('note_on', channel=9, note=46, velocity=127, time=46),
    Message('note_on', channel=9, note=35, velocity=127, time=0),
    Message('note_on', channel=9, note=35, velocity=0, time=14),
    Message('note_on', channel=9, note=46, velocity=0, time=0),
    Message('note_on', channel=9, note=46, velocity=127, time=46),
    Message('note_on', channel=9, note=55, velocity=127, time=0),
    Message('note_on', channel=9, note=35, velocity=127, time=0),
    Message('note_on', channel=9, note=35, velocity=0, time=14),
    Message('note_on', channel=9, note=55, velocity=0, time=0),
    Message('note_on', channel=9, note=46, velocity=0, time=0),
    Message('note_on', channel=9, note=35, velocity=127, time=106),
    Message('note_on', channel=9, note=35, velocity=0, time=14),
    Message('note_on', channel=9, note=35, velocity=127, time=46),
    Message('note_on', channel=9, note=40, velocity=127, time=0),
    Message('note_on', channel=9, note=38, velocity=127, time=0),
    Message('note_on', channel=9, note=38, velocity=0, time=14),
    Message('note_on', channel=9, note=40, velocity=0, time=0),
    Message('note_on', channel=9, note=35, velocity=0, time=0),
    Message('note_on', channel=9, note=35, velocity=127, time=106),
    Message('note_on', channel=9, note=55, velocity=127, time=0),
    Message('note_on', channel=9, note=55, velocity=0, time=14),
    Message('note_on', channel=9, note=35, velocity=0, time=0),
    Message('note_on', channel=9, note=35, velocity=127, time=106),
    Message('note_on', channel=9, note=35, velocity=0, time=14),
    Message('note_on', channel=9, note=55, velocity=127, time=46),
    Message('note_on', channel=9, note=35, velocity=127, time=0),
    Message('note_on', channel=9, note=35, velocity=0, time=14),
    Message('note_on', channel=9, note=55, velocity=0, time=0),
    Message('note_on', channel=9, note=35, velocity=127, time=106),
    Message('note_on', channel=9, note=35, velocity=0, time=14),
    Message('note_on', channel=9, note=43, velocity=127, time=46),
    Message('note_on', channel=9, note=35, velocity=127, time=0),
    Message('note_on', channel=9, note=41, velocity=127, time=0),
    Message('note_on', channel=9, note=41, velocity=0, time=14),
    Message('note_on', channel=9, note=35, velocity=0, time=0),
    Message('note_on', channel=9, note=43, velocity=0, time=0),
    Message('note_on', channel=9, note=35, velocity=127, time=106),
    Message('note_on', channel=9, note=55, velocity=127, time=0),
    Message('note_on', channel=9, note=55, velocity=0, time=14),
    Message('note_on', channel=9, note=35, velocity=0, time=0),
    Message('note_on', channel=9, note=35, velocity=127, time=106),
    Message('note_on', channel=9, note=35, velocity=0, time=14),
    Message('note_on', channel=9, note=38, velocity=127, time=46),
    Message('note_on', channel=9, note=35, velocity=127, time=0),
    Message('note_on', channel=9, note=55, velocity=127, time=0),
    Message('note_on', channel=9, note=55, velocity=0, time=14),
    Message('note_on', channel=9, note=35, velocity=0, time=0),
    Message('note_on', channel=9, note=38, velocity=0, time=0),
    Message('note_on', channel=9, note=46, velocity=127, time=106),
    Message('note_on', channel=9, note=35, velocity=127, time=0),
    Message('note_on', channel=9, note=35, velocity=0, time=14),
    Message('note_on', channel=9, note=46, velocity=0, time=0),
    Message('note_on', channel=9, note=46, velocity=127, time=46),
    Message('note_on', channel=9, note=55, velocity=127, time=0),
    Message('note_on', channel=9, note=38, velocity=127, time=0),
    Message('note_on', channel=9, note=38, velocity=0, time=14),
    Message('note_on', channel=9, note=55, velocity=0, time=0),
    Message('note_on', channel=9, note=46, velocity=0, time=0),
    Message('note_on', channel=9, note=46, velocity=127, time=46),
    Message('note_on', channel=9, note=35, velocity=127, time=0),
    Message('note_on', channel=9, note=35, velocity=0, time=14),
    Message('note_on', channel=9, note=46, velocity=0, time=0),
    Message('note_on', channel=9, note=46, velocity=127, time=46),
    Message('note_on', channel=9, note=35, velocity=127, time=0),
    Message('note_on', channel=9, note=35, velocity=0, time=14),
    Message('note_on', channel=9, note=46, velocity=0, time=0),
    Message('note_on', channel=9, note=46, velocity=127, time=46),
    Message('note_on', channel=9, note=55, velocity=127, time=0),
    Message('note_on', channel=9, note=38, velocity=127, time=0),
    Message('note_on', channel=9, note=38, velocity=0, time=14),
    Message('note_on', channel=9, note=55, velocity=0, time=0),
    Message('note_on', channel=9, note=46, velocity=0, time=0),
    Message('note_on', channel=9, note=46, velocity=127, time=46),
    Message('note_on', channel=9, note=35, velocity=127, time=0),
    Message('note_on', channel=9, note=35, velocity=0, time=14),
    Message('note_on', channel=9, note=46, velocity=0, time=0),
    Message('note_on', channel=9, note=46, velocity=127, time=46),
    Message('note_on', channel=9, note=35, velocity=127, time=0),
    Message('note_on', channel=9, note=35, velocity=0, time=14),
    Message('note_on', channel=9, note=46, velocity=0, time=0),
    Message('note_on', channel=9, note=46, velocity=127, time=46),
    Message('note_on', channel=9, note=55, velocity=127, time=0),
    Message('note_on', channel=9, note=38, velocity=127, time=0),
    Message('note_on', channel=9, note=38, velocity=0, time=14),
    Message('note_on', channel=9, note=55, velocity=0, time=0),
    Message('note_on', channel=9, note=46, velocity=0, time=0),
    Message('note_on', channel=9, note=46, velocity=127, time=46),
    Message('note_on', channel=9, note=35, velocity=127, time=0),
    Message('note_on', channel=9, note=35, velocity=0, time=14),
    Message('note_on', channel=9, note=46, velocity=0, time=0),
    Message('note_on', channel=9, note=46, velocity=127, time=46),
    Message('note_on', channel=9, note=38, velocity=127, time=0),
    Message('note_on', channel=9, note=38, velocity=0, time=14),
    Message('note_on', channel=9, note=46, velocity=0, time=0),
    Message('note_on', channel=9, note=38, velocity=127, time=16),
    Message('note_on', channel=9, note=38, velocity=0, time=14),
    Message('note_on', channel=9, note=46, velocity=127, time=16),
    Message('note_on', channel=9, note=35, velocity=127, time=0),
    Message('note_on', channel=9, note=35, velocity=0, time=14),
    Message('note_on', channel=9, note=46, velocity=0, time=0),
    Message('note_on', channel=9, note=35, velocity=127, time=16),
    Message('note_on', channel=9, note=35, velocity=0, time=14),
    Message('note_on', channel=9, note=46, velocity=127, time=16),
    Message('note_on', channel=9, note=55, velocity=127, time=0),
    Message('note_on', channel=9, note=35, velocity=127, time=0),
    Message('note_on', channel=9, note=35, velocity=0, time=14),
    Message('note_on', channel=9, note=55, velocity=0, time=0),
    Message('note_on', channel=9, note=46, velocity=0, time=0),
    Message('note_on', channel=9, note=46, velocity=127, time=46),
    Message('note_on', channel=9, note=46, velocity=0, time=14),
    Message('note_on', channel=9, note=46, velocity=127, time=46),
    Message('note_on', channel=9, note=38, velocity=127, time=0),
    Message('note_on', channel=9, note=38, velocity=0, time=14),
    Message('note_on', channel=9, note=46, velocity=0, time=0),
    Message('note_on', channel=9, note=46, velocity=127, time=46),
    Message('note_on', channel=9, note=35, velocity=127, time=0),
    Message('note_on', channel=9, note=35, velocity=0, time=14),
    Message('note_on', channel=9, note=46, velocity=0, time=0),
    Message('note_on', channel=9, note=46, velocity=127, time=46),
    Message('note_on', channel=9, note=46, velocity=0, time=14),
    Message('note_on', channel=9, note=46, velocity=127, time=46),
    Message('note_on', channel=9, note=35, velocity=127, time=0),
    Message('note_on', channel=9, note=35, velocity=0, time=14),
    Message('note_on', channel=9, note=46, velocity=0, time=0),
    Message('note_on', channel=9, note=46, velocity=127, time=46),
    Message('note_on', channel=9, note=38, velocity=127, time=0),
    Message('note_on', channel=9, note=38, velocity=0, time=14),
    Message('note_on', channel=9, note=46, velocity=0, time=0),
    Message('note_on', channel=9, note=46, velocity=127, time=46),
    Message('note_on', channel=9, note=35, velocity=127, time=0),
    Message('note_on', channel=9, note=35, velocity=0, time=14),
    Message('note_on', channel=9, note=46, velocity=0, time=0),
    Message('note_on', channel=9, note=46, velocity=127, time=46),
    Message('note_on', channel=9, note=35, velocity=127, time=0),
    Message('note_on', channel=9, note=35, velocity=0, time=14),
    Message('note_on', channel=9, note=46, velocity=0, time=0),
    Message('note_on', channel=9, note=46, velocity=127, time=46),
    Message('note_on', channel=9, note=46, velocity=0, time=14),
    Message('note_on', channel=9, note=46, velocity=127, time=46),
    Message('note_on', channel=9, note=38, velocity=127, time=0),
    Message('note_on', channel=9, note=38, velocity=0, time=14),
    Message('note_on', channel=9, note=46, velocity=0, time=0),
    Message('note_on', channel=9, note=46, velocity=127, time=46),
    Message('note_on', channel=9, note=35, velocity=127, time=0),
    Message('note_on', channel=9, note=35, velocity=0, time=14),
    Message('note_on', channel=9, note=46, velocity=0, time=0),
    Message('note_on', channel=9, note=46, velocity=127, time=46),
    Message('note_on', channel=9, note=46, velocity=0, time=14),
    Message('note_on', channel=9, note=46, velocity=127, time=46),
    Message('note_on', channel=9, note=35, velocity=127, time=0),
    Message('note_on', channel=9, note=35, velocity=0, time=14),
    Message('note_on', channel=9, note=46, velocity=0, time=0),
    Message('note_on', channel=9, note=46, velocity=127, time=46),
    Message('note_on', channel=9, note=38, velocity=127, time=0),
    Message('note_on', channel=9, note=38, velocity=0, time=14),
    Message('note_on', channel=9, note=46, velocity=0, time=0),
    Message('note_on', channel=9, note=35, velocity=127, time=46),
    Message('note_on', channel=9, note=46, velocity=127, time=0),
    Message('note_on', channel=9, note=46, velocity=0, time=14),
    Message('note_on', channel=9, note=35, velocity=0, time=0),
    Message('note_on', channel=9, note=46, velocity=127, time=46),
    Message('note_on', channel=9, note=55, velocity=127, time=0),
    Message('note_on', channel=9, note=35, velocity=127, time=0),
    Message('note_on', channel=9, note=35, velocity=0, time=14),
    Message('note_on', channel=9, note=55, velocity=0, time=0),
    Message('note_on', channel=9, note=46, velocity=0, time=0),
    Message('note_on', channel=9, note=46, velocity=127, time=46),
    Message('note_on', channel=9, note=46, velocity=0, time=14),
    Message('note_on', channel=9, note=46, velocity=127, time=46),
    Message('note_on', channel=9, note=38, velocity=127, time=0),
    Message('note_on', channel=9, note=38, velocity=0, time=14),
    Message('note_on', channel=9, note=46, velocity=0, time=0),
    Message('note_on', channel=9, note=46, velocity=127, time=46),
    Message('note_on', channel=9, note=35, velocity=127, time=0),
    Message('note_on', channel=9, note=35, velocity=0, time=14),
    Message('note_on', channel=9, note=46, velocity=0, time=0),
    Message('note_on', channel=9, note=46, velocity=127, time=46),
    Message('note_on', channel=9, note=46, velocity=0, time=14),
    Message('note_on', channel=9, note=46, velocity=127, time=46),
    Message('note_on', channel=9, note=35, velocity=127, time=0),
    Message('note_on', channel=9, note=35, velocity=0, time=14),
    Message('note_on', channel=9, note=46, velocity=0, time=0),
    Message('note_on', channel=9, note=46, velocity=127, time=46),
    Message('note_on', channel=9, note=38, velocity=127, time=0),
    Message('note_on', channel=9, note=38, velocity=0, time=14),
    Message('note_on', channel=9, note=46, velocity=0, time=0),
    Message('note_on', channel=9, note=46, velocity=127, time=46),
    Message('note_on', channel=9, note=35, velocity=127, time=0),
    Message('note_on', channel=9, note=35, velocity=0, time=14),
    Message('note_on', channel=9, note=46, velocity=0, time=0),
    Message('note_on', channel=9, note=46, velocity=127, time=46),
    Message('note_on', channel=9, note=35, velocity=127, time=0),
    Message('note_on', channel=9, note=35, velocity=0, time=14),
    Message('note_on', channel=9, note=46, velocity=0, time=0),
    Message('note_on', channel=9, note=46, velocity=127, time=46),
    Message('note_on', channel=9, note=46, velocity=0, time=14),
    Message('note_on', channel=9, note=46, velocity=127, time=46),
    Message('note_on', channel=9, note=38, velocity=127, time=0),
    Message('note_on', channel=9, note=38, velocity=0, time=14),
    Message('note_on', channel=9, note=46, velocity=0, time=0),
    Message('note_on', channel=9, note=46, velocity=127, time=46),
    Message('note_on', channel=9, note=35, velocity=127, time=0),
    Message('note_on', channel=9, note=35, velocity=0, time=14),
    Message('note_on', channel=9, note=46, velocity=0, time=0),
    Message('note_on', channel=9, note=46, velocity=127, time=46),
    Message('note_on', channel=9, note=46, velocity=0, time=14),
    Message('note_on', channel=9, note=46, velocity=127, time=46),
    Message('note_on', channel=9, note=35, velocity=127, time=0),
    Message('note_on', channel=9, note=35, velocity=0, time=14),
    Message('note_on', channel=9, note=46, velocity=0, time=0),
    Message('note_on', channel=9, note=46, velocity=127, time=46),
    Message('note_on', channel=9, note=38, velocity=127, time=0),
    Message('note_on', channel=9, note=38, velocity=0, time=14),
    Message('note_on', channel=9, note=46, velocity=0, time=0),
    Message('note_on', channel=9, note=35, velocity=127, time=46),
    Message('note_on', channel=9, note=46, velocity=127, time=0),
    Message('note_on', channel=9, note=46, velocity=0, time=14),
    Message('note_on', channel=9, note=35, velocity=0, time=0),
    Message('note_on', channel=9, note=46, velocity=127, time=46),
    Message('note_on', channel=9, note=55, velocity=127, time=0),
    Message('note_on', channel=9, note=35, velocity=127, time=0),
    Message('note_on', channel=9, note=35, velocity=0, time=14),
    Message('note_on', channel=9, note=55, velocity=0, time=0),
    Message('note_on', channel=9, note=46, velocity=0, time=0),
    Message('note_on', channel=9, note=46, velocity=127, time=46),
    Message('note_on', channel=9, note=46, velocity=0, time=14),
    Message('note_on', channel=9, note=46, velocity=127, time=46),
    Message('note_on', channel=9, note=38, velocity=127, time=0),
    Message('note_on', channel=9, note=38, velocity=0, time=14),
    Message('note_on', channel=9, note=46, velocity=0, time=0),
    Message('note_on', channel=9, note=46, velocity=127, time=46),
    Message('note_on', channel=9, note=35, velocity=127, time=0),
    Message('note_on', channel=9, note=35, velocity=0, time=14),
    Message('note_on', channel=9, note=46, velocity=0, time=0),
    Message('note_on', channel=9, note=46, velocity=127, time=46),
    Message('note_on', channel=9, note=46, velocity=0, time=14),
    Message('note_on', channel=9, note=46, velocity=127, time=46),
    Message('note_on', channel=9, note=35, velocity=127, time=0),
    Message('note_on', channel=9, note=35, velocity=0, time=14),
    Message('note_on', channel=9, note=46, velocity=0, time=0),
    Message('note_on', channel=9, note=46, velocity=127, time=46),
    Message('note_on', channel=9, note=38, velocity=127, time=0),
    Message('note_on', channel=9, note=38, velocity=0, time=14),
    Message('note_on', channel=9, note=46, velocity=0, time=0),
    Message('note_on', channel=9, note=46, velocity=127, time=46),
    Message('note_on', channel=9, note=35, velocity=127, time=0),
    Message('note_on', channel=9, note=35, velocity=0, time=14),
    Message('note_on', channel=9, note=46, velocity=0, time=0),
    Message('note_on', channel=9, note=46, velocity=127, time=46),
    Message('note_on', channel=9, note=35, velocity=127, time=0),
    Message('note_on', channel=9, note=35, velocity=0, time=14),
    Message('note_on', channel=9, note=46, velocity=0, time=0),
    Message('note_on', channel=9, note=46, velocity=127, time=46),
    Message('note_on', channel=9, note=46, velocity=0, time=14),
    Message('note_on', channel=9, note=46, velocity=127, time=46),
    Message('note_on', channel=9, note=38, velocity=127, time=0),
    Message('note_on', channel=9, note=38, velocity=0, time=14),
    Message('note_on', channel=9, note=46, velocity=0, time=0),
    Message('note_on', channel=9, note=46, velocity=127, time=46),
    Message('note_on', channel=9, note=35, velocity=127, time=0),
    Message('note_on', channel=9, note=35, velocity=0, time=14),
    Message('note_on', channel=9, note=46, velocity=0, time=0),
    Message('note_on', channel=9, note=46, velocity=127, time=46),
    Message('note_on', channel=9, note=46, velocity=0, time=14),
    Message('note_on', channel=9, note=46, velocity=127, time=46),
    Message('note_on', channel=9, note=35, velocity=127, time=0),
    Message('note_on', channel=9, note=35, velocity=0, time=14),
    Message('note_on', channel=9, note=46, velocity=0, time=0),
    Message('note_on', channel=9, note=46, velocity=127, time=46),
    Message('note_on', channel=9, note=38, velocity=127, time=0),
    Message('note_on', channel=9, note=38, velocity=0, time=14),
    Message('note_on', channel=9, note=46, velocity=0, time=0),
    Message('note_on', channel=9, note=35, velocity=127, time=46),
    Message('note_on', channel=9, note=46, velocity=127, time=0),
    Message('note_on', channel=9, note=46, velocity=0, time=14),
    Message('note_on', channel=9, note=35, velocity=0, time=0),
    Message('note_on', channel=9, note=46, velocity=127, time=46),
    Message('note_on', channel=9, note=55, velocity=127, time=0),
    Message('note_on', channel=9, note=35, velocity=127, time=0),
    Message('note_on', channel=9, note=35, velocity=0, time=14),
    Message('note_on', channel=9, note=55, velocity=0, time=0),
    Message('note_on', channel=9, note=46, velocity=0, time=0),
    Message('note_on', channel=9, note=46, velocity=127, time=46),
    Message('note_on', channel=9, note=46, velocity=0, time=14),
    Message('note_on', channel=9, note=46, velocity=127, time=46),
    Message('note_on', channel=9, note=38, velocity=127, time=0),
    Message('note_on', channel=9, note=38, velocity=0, time=14),
    Message('note_on', channel=9, note=46, velocity=0, time=0),
    Message('note_on', channel=9, note=46, velocity=127, time=46),
    Message('note_on', channel=9, note=35, velocity=127, time=0),
    Message('note_on', channel=9, note=35, velocity=0, time=14),
    Message('note_on', channel=9, note=46, velocity=0, time=0),
    Message('note_on', channel=9, note=46, velocity=127, time=46),
    Message('note_on', channel=9, note=46, velocity=0, time=14),
    Message('note_on', channel=9, note=46, velocity=127, time=46),
    Message('note_on', channel=9, note=35, velocity=127, time=0),
    Message('note_on', channel=9, note=35, velocity=0, time=14),
    Message('note_on', channel=9, note=46, velocity=0, time=0),
    Message('note_on', channel=9, note=46, velocity=127, time=46),
    Message('note_on', channel=9, note=38, velocity=127, time=0),
    Message('note_on', channel=9, note=38, velocity=0, time=14),
    Message('note_on', channel=9, note=46, velocity=0, time=0),
    Message('note_on', channel=9, note=46, velocity=127, time=46),
    Message('note_on', channel=9, note=35, velocity=127, time=0),
    Message('note_on', channel=9, note=35, velocity=0, time=14),
    Message('note_on', channel=9, note=46, velocity=0, time=0),
    Message('note_on', channel=9, note=46, velocity=127, time=46),
    Message('note_on', channel=9, note=35, velocity=127, time=0),
    Message('note_on', channel=9, note=35, velocity=0, time=14),
    Message('note_on', channel=9, note=46, velocity=0, time=0),
    Message('note_on', channel=9, note=38, velocity=127, time=46),
    Message('note_on', channel=9, note=46, velocity=127, time=0),
    Message('note_on', channel=9, note=46, velocity=0, time=14),
    Message('note_on', channel=9, note=38, velocity=0, time=0),
    Message('note_on', channel=9, note=35, velocity=127, time=46),
    Message('note_on', channel=9, note=46, velocity=127, time=0),
    Message('note_on', channel=9, note=46, velocity=0, time=14),
    Message('note_on', channel=9, note=35, velocity=0, time=0),
    Message('note_on', channel=9, note=46, velocity=127, time=46),
    Message('note_on', channel=9, note=35, velocity=127, time=0),
    Message('note_on', channel=9, note=35, velocity=0, time=14),
    Message('note_on', channel=9, note=46, velocity=0, time=0),
    Message('note_on', channel=9, note=38, velocity=127, time=46),
    Message('note_on', channel=9, note=46, velocity=127, time=0),
    Message('note_on', channel=9, note=46, velocity=0, time=14),
    Message('note_on', channel=9, note=38, velocity=0, time=0),
    Message('note_on', channel=9, note=46, velocity=127, time=46),
    Message('note_on', channel=9, note=46, velocity=0, time=14),
    Message('note_on', channel=9, note=35, velocity=127, time=16),
    Message('note_on', channel=9, note=35, velocity=0, time=14),
    Message('note_on', channel=9, note=38, velocity=127, time=16),
    Message('note_on', channel=9, note=46, velocity=127, time=0),
    Message('note_on', channel=9, note=46, velocity=0, time=14),
    Message('note_on', channel=9, note=38, velocity=0, time=0),
    Message('note_on', channel=9, note=38, velocity=127, time=16),
    Message('note_on', channel=9, note=38, velocity=0, time=14),
    Message('note_on', channel=9, note=35, velocity=127, time=16),
    Message('note_on', channel=9, note=46, velocity=127, time=0),
    Message('note_on', channel=9, note=46, velocity=0, time=14),
    Message('note_on', channel=9, note=35, velocity=0, time=0),
    Message('note_on', channel=9, note=35, velocity=127, time=16),
    Message('note_on', channel=9, note=35, velocity=0, time=14),
    Message('note_on', channel=9, note=46, velocity=127, time=16),
    Message('note_on', channel=9, note=55, velocity=127, time=0),
    Message('note_on', channel=9, note=35, velocity=127, time=0),
    Message('note_on', channel=9, note=35, velocity=0, time=14),
    Message('note_on', channel=9, note=55, velocity=0, time=0),
    Message('note_on', channel=9, note=46, velocity=0, time=0),
    Message('note_on', channel=9, note=46, velocity=127, time=46),
    Message('note_on', channel=9, note=46, velocity=0, time=14),
    Message('note_on', channel=9, note=46, velocity=127, time=46),
    Message('note_on', channel=9, note=38, velocity=127, time=0),
    Message('note_on', channel=9, note=38, velocity=0, time=14),
    Message('note_on', channel=9, note=46, velocity=0, time=0),
    Message('note_on', channel=9, note=46, velocity=127, time=46),
    Message('note_on', channel=9, note=35, velocity=127, time=0),
    Message('note_on', channel=9, note=35, velocity=0, time=14),
    Message('note_on', channel=9, note=46, velocity=0, time=0),
    Message('note_on', channel=9, note=46, velocity=127, time=46),
    Message('note_on', channel=9, note=46, velocity=0, time=14),
    Message('note_on', channel=9, note=46, velocity=127, time=46),
    Message('note_on', channel=9, note=35, velocity=127, time=0),
    Message('note_on', channel=9, note=35, velocity=0, time=14),
    Message('note_on', channel=9, note=46, velocity=0, time=0),
    Message('note_on', channel=9, note=46, velocity=127, time=46),
    Message('note_on', channel=9, note=38, velocity=127, time=0),
    Message('note_on', channel=9, note=38, velocity=0, time=14),
    Message('note_on', channel=9, note=46, velocity=0, time=0),
    Message('note_on', channel=9, note=46, velocity=127, time=46),
    Message('note_on', channel=9, note=35, velocity=127, time=0),
    Message('note_on', channel=9, note=35, velocity=0, time=14),
    Message('note_on', channel=9, note=46, velocity=0, time=0),
    Message('note_on', channel=9, note=46, velocity=127, time=46),
    Message('note_on', channel=9, note=35, velocity=127, time=0),
    Message('note_on', channel=9, note=35, velocity=0, time=14),
    Message('note_on', channel=9, note=46, velocity=0, time=0),
    Message('note_on', channel=9, note=46, velocity=127, time=46),
    Message('note_on', channel=9, note=46, velocity=0, time=14),
    Message('note_on', channel=9, note=46, velocity=127, time=46),
    Message('note_on', channel=9, note=38, velocity=127, time=0),
    Message('note_on', channel=9, note=38, velocity=0, time=14),
    Message('note_on', channel=9, note=46, velocity=0, time=0),
    Message('note_on', channel=9, note=46, velocity=127, time=46),
    Message('note_on', channel=9, note=35, velocity=127, time=0),
    Message('note_on', channel=9, note=35, velocity=0, time=14),
    Message('note_on', channel=9, note=46, velocity=0, time=0),
    Message('note_on', channel=9, note=46, velocity=127, time=46),
    Message('note_on', channel=9, note=46, velocity=0, time=14),
    Message('note_on', channel=9, note=46, velocity=127, time=46),
    Message('note_on', channel=9, note=35, velocity=127, time=0),
    Message('note_on', channel=9, note=35, velocity=0, time=14),
    Message('note_on', channel=9, note=46, velocity=0, time=0),
    Message('note_on', channel=9, note=46, velocity=127, time=46),
    Message('note_on', channel=9, note=38, velocity=127, time=0),
    Message('note_on', channel=9, note=38, velocity=0, time=14),
    Message('note_on', channel=9, note=46, velocity=0, time=0),
    Message('note_on', channel=9, note=35, velocity=127, time=46),
    Message('note_on', channel=9, note=46, velocity=127, time=0),
    Message('note_on', channel=9, note=46, velocity=0, time=14),
    Message('note_on', channel=9, note=35, velocity=0, time=0),
    Message('note_on', channel=9, note=46, velocity=127, time=46),
    Message('note_on', channel=9, note=55, velocity=127, time=0),
    Message('note_on', channel=9, note=35, velocity=127, time=0),
    Message('note_on', channel=9, note=35, velocity=0, time=14),
    Message('note_on', channel=9, note=55, velocity=0, time=0),
    Message('note_on', channel=9, note=46, velocity=0, time=0),
    Message('note_on', channel=9, note=46, velocity=127, time=46),
    Message('note_on', channel=9, note=46, velocity=0, time=14),
    Message('note_on', channel=9, note=46, velocity=127, time=46),
    Message('note_on', channel=9, note=38, velocity=127, time=0),
    Message('note_on', channel=9, note=38, velocity=0, time=14),
    Message('note_on', channel=9, note=46, velocity=0, time=0),
    Message('note_on', channel=9, note=46, velocity=127, time=46),
    Message('note_on', channel=9, note=35, velocity=127, time=0),
    Message('note_on', channel=9, note=35, velocity=0, time=14),
    Message('note_on', channel=9, note=46, velocity=0, time=0),
    Message('note_on', channel=9, note=46, velocity=127, time=46),
    Message('note_on', channel=9, note=46, velocity=0, time=14),
    Message('note_on', channel=9, note=46, velocity=127, time=46),
    Message('note_on', channel=9, note=35, velocity=127, time=0),
    Message('note_on', channel=9, note=35, velocity=0, time=14),
    Message('note_on', channel=9, note=46, velocity=0, time=0),
    Message('note_on', channel=9, note=46, velocity=127, time=46),
    Message('note_on', channel=9, note=38, velocity=127, time=0),
    Message('note_on', channel=9, note=38, velocity=0, time=14),
    Message('note_on', channel=9, note=46, velocity=0, time=0),
    Message('note_on', channel=9, note=46, velocity=127, time=46),
    Message('note_on', channel=9, note=35, velocity=127, time=0),
    Message('note_on', channel=9, note=35, velocity=0, time=14),
    Message('note_on', channel=9, note=46, velocity=0, time=0),
    Message('note_on', channel=9, note=46, velocity=127, time=46),
    Message('note_on', channel=9, note=35, velocity=127, time=0),
    Message('note_on', channel=9, note=35, velocity=0, time=14),
    Message('note_on', channel=9, note=46, velocity=0, time=0),
    Message('note_on', channel=9, note=46, velocity=127, time=46),
    Message('note_on', channel=9, note=46, velocity=0, time=14),
    Message('note_on', channel=9, note=38, velocity=127, time=46),
    Message('note_on', channel=9, note=46, velocity=127, time=0),
    Message('note_on', channel=9, note=46, velocity=0, time=14),
    Message('note_on', channel=9, note=38, velocity=0, time=0),
    Message('note_on', channel=9, note=35, velocity=127, time=46),
    Message('note_on', channel=9, note=46, velocity=127, time=0),
    Message('note_on', channel=9, note=46, velocity=0, time=14),
    Message('note_on', channel=9, note=35, velocity=0, time=0),
    Message('note_on', channel=9, note=46, velocity=127, time=46),
    Message('note_on', channel=9, note=46, velocity=0, time=14),
    Message('note_on', channel=9, note=35, velocity=127, time=46),
    Message('note_on', channel=9, note=46, velocity=127, time=0),
    Message('note_on', channel=9, note=46, velocity=0, time=14),
    Message('note_on', channel=9, note=35, velocity=0, time=0),
    Message('note_on', channel=9, note=46, velocity=127, time=46),
    Message('note_on', channel=9, note=38, velocity=127, time=0),
    Message('note_on', channel=9, note=38, velocity=0, time=14),
    Message('note_on', channel=9, note=46, velocity=0, time=0),
    Message('note_on', channel=9, note=35, velocity=127, time=46),
    Message('note_on', channel=9, note=46, velocity=127, time=0),
    Message('note_on', channel=9, note=46, velocity=0, time=14),
    Message('note_on', channel=9, note=35, velocity=0, time=0),
    Message('note_on', channel=9, note=46, velocity=127, time=46),
    Message('note_on', channel=9, note=55, velocity=127, time=0),
    Message('note_on', channel=9, note=35, velocity=127, time=0),
    Message('note_on', channel=9, note=35, velocity=0, time=14),
    Message('note_on', channel=9, note=55, velocity=0, time=0),
    Message('note_on', channel=9, note=46, velocity=0, time=0),
    Message('note_on', channel=9, note=46, velocity=127, time=46),
    Message('note_on', channel=9, note=46, velocity=0, time=14),
    Message('note_on', channel=9, note=46, velocity=127, time=46),
    Message('note_on', channel=9, note=38, velocity=127, time=0),
    Message('note_on', channel=9, note=38, velocity=0, time=14),
    Message('note_on', channel=9, note=46, velocity=0, time=0),
    Message('note_on', channel=9, note=46, velocity=127, time=46),
    Message('note_on', channel=9, note=35, velocity=127, time=0),
    Message('note_on', channel=9, note=35, velocity=0, time=14),
    Message('note_on', channel=9, note=46, velocity=0, time=0),
    Message('note_on', channel=9, note=46, velocity=127, time=46),
    Message('note_on', channel=9, note=46, velocity=0, time=14),
    Message('note_on', channel=9, note=46, velocity=127, time=46),
    Message('note_on', channel=9, note=35, velocity=127, time=0),
    Message('note_on', channel=9, note=35, velocity=0, time=14),
    Message('note_on', channel=9, note=46, velocity=0, time=0),
    Message('note_on', channel=9, note=46, velocity=127, time=46),
    Message('note_on', channel=9, note=38, velocity=127, time=0),
    Message('note_on', channel=9, note=38, velocity=0, time=14),
    Message('note_on', channel=9, note=46, velocity=0, time=0),
    Message('note_on', channel=9, note=46, velocity=127, time=46),
    Message('note_on', channel=9, note=35, velocity=127, time=0),
    Message('note_on', channel=9, note=35, velocity=0, time=14),
    Message('note_on', channel=9, note=46, velocity=0, time=0),
    Message('note_on', channel=9, note=46, velocity=127, time=46),
    Message('note_on', channel=9, note=35, velocity=127, time=0),
    Message('note_on', channel=9, note=35, velocity=0, time=14),
    Message('note_on', channel=9, note=46, velocity=0, time=0),
    Message('note_on', channel=9, note=46, velocity=127, time=46),
    Message('note_on', channel=9, note=46, velocity=0, time=14),
    Message('note_on', channel=9, note=38, velocity=127, time=46),
    Message('note_on', channel=9, note=46, velocity=127, time=0),
    Message('note_on', channel=9, note=46, velocity=0, time=14),
    Message('note_on', channel=9, note=38, velocity=0, time=0),
    Message('note_on', channel=9, note=35, velocity=127, time=46),
    Message('note_on', channel=9, note=46, velocity=127, time=0),
    Message('note_on', channel=9, note=46, velocity=0, time=14),
    Message('note_on', channel=9, note=35, velocity=0, time=0),
    Message('note_on', channel=9, note=46, velocity=127, time=46),
    Message('note_on', channel=9, note=46, velocity=0, time=14),
    Message('note_on', channel=9, note=35, velocity=127, time=46),
    Message('note_on', channel=9, note=46, velocity=127, time=0),
    Message('note_on', channel=9, note=46, velocity=0, time=14),
    Message('note_on', channel=9, note=35, velocity=0, time=0),
    Message('note_on', channel=9, note=46, velocity=127, time=46),
    Message('note_on', channel=9, note=38, velocity=127, time=0),
    Message('note_on', channel=9, note=38, velocity=0, time=14),
    Message('note_on', channel=9, note=46, velocity=0, time=0),
    Message('note_on', channel=9, note=35, velocity=127, time=46),
    Message('note_on', channel=9, note=46, velocity=127, time=0),
    Message('note_on', channel=9, note=46, velocity=0, time=14),
    Message('note_on', channel=9, note=35, velocity=0, time=0),
    Message('note_on', channel=9, note=46, velocity=127, time=46),
    Message('note_on', channel=9, note=55, velocity=127, time=0),
    Message('note_on', channel=9, note=35, velocity=127, time=0),
    Message('note_on', channel=9, note=35, velocity=0, time=14),
    Message('note_on', channel=9, note=55, velocity=0, time=0),
    Message('note_on', channel=9, note=46, velocity=0, time=0),
    Message('note_on', channel=9, note=46, velocity=127, time=46),
    Message('note_on', channel=9, note=46, velocity=0, time=14),
    Message('note_on', channel=9, note=46, velocity=127, time=46),
    Message('note_on', channel=9, note=38, velocity=127, time=0),
    Message('note_on', channel=9, note=38, velocity=0, time=14),
    Message('note_on', channel=9, note=46, velocity=0, time=0),
    Message('note_on', channel=9, note=46, velocity=127, time=46),
    Message('note_on', channel=9, note=35, velocity=127, time=0),
    Message('note_on', channel=9, note=35, velocity=0, time=14),
    Message('note_on', channel=9, note=46, velocity=0, time=0),
    Message('note_on', channel=9, note=46, velocity=127, time=46),
    Message('note_on', channel=9, note=46, velocity=0, time=14),
    Message('note_on', channel=9, note=46, velocity=127, time=46),
    Message('note_on', channel=9, note=35, velocity=127, time=0),
    Message('note_on', channel=9, note=35, velocity=0, time=14),
    Message('note_on', channel=9, note=46, velocity=0, time=0),
    Message('note_on', channel=9, note=46, velocity=127, time=46),
    Message('note_on', channel=9, note=38, velocity=127, time=0),
    Message('note_on', channel=9, note=38, velocity=0, time=14),
    Message('note_on', channel=9, note=46, velocity=0, time=0),
    Message('note_on', channel=9, note=46, velocity=127, time=46),
    Message('note_on', channel=9, note=35, velocity=127, time=0),
    Message('note_on', channel=9, note=35, velocity=0, time=14),
    Message('note_on', channel=9, note=46, velocity=0, time=0),
    Message('note_on', channel=9, note=38, velocity=127, time=46),
    Message('note_on', channel=9, note=46, velocity=127, time=0),
    Message('note_on', channel=9, note=46, velocity=0, time=14),
    Message('note_on', channel=9, note=38, velocity=0, time=0),
    Message('note_on', channel=9, note=35, velocity=127, time=46),
    Message('note_on', channel=9, note=46, velocity=127, time=0),
    Message('note_on', channel=9, note=46, velocity=0, time=14),
    Message('note_on', channel=9, note=35, velocity=0, time=0),
    Message('note_on', channel=9, note=46, velocity=127, time=46),
    Message('note_on', channel=9, note=46, velocity=0, time=14),
    Message('note_on', channel=9, note=38, velocity=127, time=46),
    Message('note_on', channel=9, note=46, velocity=127, time=0),
    Message('note_on', channel=9, note=46, velocity=0, time=14),
    Message('note_on', channel=9, note=38, velocity=0, time=0),
    Message('note_on', channel=9, note=38, velocity=127, time=16),
    Message('note_on', channel=9, note=38, velocity=0, time=14),
    Message('note_on', channel=9, note=35, velocity=127, time=16),
    Message('note_on', channel=9, note=46, velocity=127, time=0),
    Message('note_on', channel=9, note=46, velocity=0, time=14),
    Message('note_on', channel=9, note=35, velocity=0, time=0),
    Message('note_on', channel=9, note=35, velocity=127, time=46),
    Message('note_on', channel=9, note=46, velocity=127, time=0),
    Message('note_on', channel=9, note=46, velocity=0, time=14),
    Message('note_on', channel=9, note=35, velocity=0, time=0),
    Message('note_on', channel=9, note=46, velocity=127, time=46),
    Message('note_on', channel=9, note=38, velocity=127, time=0),
    Message('note_on', channel=9, note=38, velocity=0, time=14),
    Message('note_on', channel=9, note=46, velocity=0, time=0),
    Message('note_on', channel=9, note=38, velocity=127, time=16),
    Message('note_on', channel=9, note=38, velocity=0, time=14),
    Message('note_on', channel=9, note=35, velocity=127, time=16),
    Message('note_on', channel=9, note=46, velocity=127, time=0),
    Message('note_on', channel=9, note=46, velocity=0, time=14),
    Message('note_on', channel=9, note=35, velocity=0, time=0),
    Message('note_on', channel=9, note=46, velocity=127, time=46),
    Message('note_on', channel=9, note=55, velocity=127, time=0),
    Message('note_on', channel=9, note=35, velocity=127, time=0),
    Message('note_on', channel=9, note=35, velocity=0, time=14),
    Message('note_on', channel=9, note=55, velocity=0, time=0),
    Message('note_on', channel=9, note=46, velocity=0, time=0),
    Message('note_on', channel=9, note=46, velocity=127, time=46),
    Message('note_on', channel=9, note=46, velocity=0, time=14),
    Message('note_on', channel=9, note=46, velocity=127, time=46),
    Message('note_on', channel=9, note=38, velocity=127, time=0),
    Message('note_on', channel=9, note=38, velocity=0, time=14),
    Message('note_on', channel=9, note=46, velocity=0, time=0),
    Message('note_on', channel=9, note=46, velocity=127, time=46),
    Message('note_on', channel=9, note=35, velocity=127, time=0),
    Message('note_on', channel=9, note=35, velocity=0, time=14),
    Message('note_on', channel=9, note=46, velocity=0, time=0),
    Message('note_on', channel=9, note=46, velocity=127, time=46),
    Message('note_on', channel=9, note=46, velocity=0, time=14),
    Message('note_on', channel=9, note=46, velocity=127, time=46),
    Message('note_on', channel=9, note=35, velocity=127, time=0),
    Message('note_on', channel=9, note=35, velocity=0, time=14),
    Message('note_on', channel=9, note=46, velocity=0, time=0),
    Message('note_on', channel=9, note=46, velocity=127, time=46),
    Message('note_on', channel=9, note=38, velocity=127, time=0),
    Message('note_on', channel=9, note=38, velocity=0, time=14),
    Message('note_on', channel=9, note=46, velocity=0, time=0),
    Message('note_on', channel=9, note=46, velocity=127, time=46),
    Message('note_on', channel=9, note=35, velocity=127, time=0),
    Message('note_on', channel=9, note=35, velocity=0, time=14),
    Message('note_on', channel=9, note=46, velocity=0, time=0),
    Message('note_on', channel=9, note=46, velocity=127, time=46),
    Message('note_on', channel=9, note=35, velocity=127, time=0),
    Message('note_on', channel=9, note=35, velocity=0, time=14),
    Message('note_on', channel=9, note=46, velocity=0, time=0),
    Message('note_on', channel=9, note=46, velocity=127, time=46),
    Message('note_on', channel=9, note=46, velocity=0, time=14),
    Message('note_on', channel=9, note=38, velocity=127, time=46),
    Message('note_on', channel=9, note=46, velocity=127, time=0),
    Message('note_on', channel=9, note=46, velocity=0, time=14),
    Message('note_on', channel=9, note=38, velocity=0, time=0),
    Message('note_on', channel=9, note=35, velocity=127, time=46),
    Message('note_on', channel=9, note=46, velocity=127, time=0),
    Message('note_on', channel=9, note=46, velocity=0, time=14),
    Message('note_on', channel=9, note=35, velocity=0, time=0),
    Message('note_on', channel=9, note=46, velocity=127, time=46),
    Message('note_on', channel=9, note=46, velocity=0, time=14),
    Message('note_on', channel=9, note=35, velocity=127, time=46),
    Message('note_on', channel=9, note=46, velocity=127, time=0),
    Message('note_on', channel=9, note=46, velocity=0, time=14),
    Message('note_on', channel=9, note=35, velocity=0, time=0),
    Message('note_on', channel=9, note=46, velocity=127, time=46),
    Message('note_on', channel=9, note=38, velocity=127, time=0),
    Message('note_on', channel=9, note=38, velocity=0, time=14),
    Message('note_on', channel=9, note=46, velocity=0, time=0),
    Message('note_on', channel=9, note=35, velocity=127, time=46),
    Message('note_on', channel=9, note=46, velocity=127, time=0),
    Message('note_on', channel=9, note=46, velocity=0, time=14),
    Message('note_on', channel=9, note=35, velocity=0, time=0),
    Message('note_on', channel=9, note=46, velocity=127, time=46),
    Message('note_on', channel=9, note=55, velocity=127, time=0),
    Message('note_on', channel=9, note=35, velocity=127, time=0),
    Message('note_on', channel=9, note=35, velocity=0, time=14),
    Message('note_on', channel=9, note=55, velocity=0, time=0),
    Message('note_on', channel=9, note=46, velocity=0, time=0),
    Message('note_on', channel=9, note=46, velocity=127, time=46),
    Message('note_on', channel=9, note=46, velocity=0, time=14),
    Message('note_on', channel=9, note=46, velocity=127, time=46),
    Message('note_on', channel=9, note=38, velocity=127, time=0),
    Message('note_on', channel=9, note=38, velocity=0, time=14),
    Message('note_on', channel=9, note=46, velocity=0, time=0),
    Message('note_on', channel=9, note=46, velocity=127, time=46),
    Message('note_on', channel=9, note=35, velocity=127, time=0),
    Message('note_on', channel=9, note=35, velocity=0, time=14),
    Message('note_on', channel=9, note=46, velocity=0, time=0),
    Message('note_on', channel=9, note=46, velocity=127, time=46),
    Message('note_on', channel=9, note=46, velocity=0, time=14),
    Message('note_on', channel=9, note=46, velocity=127, time=46),
    Message('note_on', channel=9, note=35, velocity=127, time=0),
    Message('note_on', channel=9, note=35, velocity=0, time=14),
    Message('note_on', channel=9, note=46, velocity=0, time=0),
    Message('note_on', channel=9, note=46, velocity=127, time=46),
    Message('note_on', channel=9, note=38, velocity=127, time=0),
    Message('note_on', channel=9, note=38, velocity=0, time=14),
    Message('note_on', channel=9, note=46, velocity=0, time=0),
    Message('note_on', channel=9, note=46, velocity=127, time=46),
    Message('note_on', channel=9, note=35, velocity=127, time=0),
    Message('note_on', channel=9, note=35, velocity=0, time=14),
    Message('note_on', channel=9, note=46, velocity=0, time=0),
    Message('note_on', channel=9, note=46, velocity=127, time=46),
    Message('note_on', channel=9, note=35, velocity=127, time=0),
    Message('note_on', channel=9, note=35, velocity=0, time=14),
    Message('note_on', channel=9, note=46, velocity=0, time=0),
    Message('note_on', channel=9, note=46, velocity=127, time=46),
    Message('note_on', channel=9, note=46, velocity=0, time=14),
    Message('note_on', channel=9, note=38, velocity=127, time=46),
    Message('note_on', channel=9, note=46, velocity=127, time=0),
    Message('note_on', channel=9, note=46, velocity=0, time=14),
    Message('note_on', channel=9, note=38, velocity=0, time=0),
    Message('note_on', channel=9, note=35, velocity=127, time=46),
    Message('note_on', channel=9, note=46, velocity=127, time=0),
    Message('note_on', channel=9, note=46, velocity=0, time=14),
    Message('note_on', channel=9, note=35, velocity=0, time=0),
    Message('note_on', channel=9, note=46, velocity=127, time=46),
    Message('note_on', channel=9, note=46, velocity=0, time=14),
    Message('note_on', channel=9, note=35, velocity=127, time=46),
    Message('note_on', channel=9, note=46, velocity=127, time=0),
    Message('note_on', channel=9, note=46, velocity=0, time=14),
    Message('note_on', channel=9, note=35, velocity=0, time=0),
    Message('note_on', channel=9, note=46, velocity=127, time=46),
    Message('note_on', channel=9, note=38, velocity=127, time=0),
    Message('note_on', channel=9, note=38, velocity=0, time=14),
    Message('note_on', channel=9, note=46, velocity=0, time=0),
    Message('note_on', channel=9, note=35, velocity=127, time=46),
    Message('note_on', channel=9, note=46, velocity=127, time=0),
    Message('note_on', channel=9, note=46, velocity=0, time=14),
    Message('note_on', channel=9, note=35, velocity=0, time=0),
    Message('note_on', channel=9, note=46, velocity=127, time=46),
    Message('note_on', channel=9, note=55, velocity=127, time=0),
    Message('note_on', channel=9, note=35, velocity=127, time=0),
    Message('note_on', channel=9, note=35, velocity=0, time=14),
    Message('note_on', channel=9, note=55, velocity=0, time=0),
    Message('note_on', channel=9, note=46, velocity=0, time=0),
    Message('note_on', channel=9, note=46, velocity=127, time=46),
    Message('note_on', channel=9, note=46, velocity=0, time=14),
    Message('note_on', channel=9, note=46, velocity=127, time=46),
    Message('note_on', channel=9, note=38, velocity=127, time=0),
    Message('note_on', channel=9, note=38, velocity=0, time=14),
    Message('note_on', channel=9, note=46, velocity=0, time=0),
    Message('note_on', channel=9, note=46, velocity=127, time=46),
    Message('note_on', channel=9, note=35, velocity=127, time=0),
    Message('note_on', channel=9, note=35, velocity=0, time=14),
    Message('note_on', channel=9, note=46, velocity=0, time=0),
    Message('note_on', channel=9, note=46, velocity=127, time=46),
    Message('note_on', channel=9, note=46, velocity=0, time=14),
    Message('note_on', channel=9, note=46, velocity=127, time=46),
    Message('note_on', channel=9, note=35, velocity=127, time=0),
    Message('note_on', channel=9, note=35, velocity=0, time=14),
    Message('note_on', channel=9, note=46, velocity=0, time=0),
    Message('note_on', channel=9, note=46, velocity=127, time=46),
    Message('note_on', channel=9, note=38, velocity=127, time=0),
    Message('note_on', channel=9, note=38, velocity=0, time=14),
    Message('note_on', channel=9, note=46, velocity=0, time=0),
    Message('note_on', channel=9, note=46, velocity=127, time=46),
    Message('note_on', channel=9, note=35, velocity=127, time=0),
    Message('note_on', channel=9, note=35, velocity=0, time=14),
    Message('note_on', channel=9, note=46, velocity=0, time=0),
    Message('note_on', channel=9, note=46, velocity=127, time=46),
    Message('note_on', channel=9, note=35, velocity=127, time=0),
    Message('note_on', channel=9, note=35, velocity=0, time=14),
    Message('note_on', channel=9, note=46, velocity=0, time=0),
    Message('note_on', channel=9, note=46, velocity=127, time=46),
    Message('note_on', channel=9, note=46, velocity=0, time=14),
    Message('note_on', channel=9, note=38, velocity=127, time=46),
    Message('note_on', channel=9, note=46, velocity=127, time=0),
    Message('note_on', channel=9, note=46, velocity=0, time=14),
    Message('note_on', channel=9, note=38, velocity=0, time=0),
    Message('note_on', channel=9, note=35, velocity=127, time=46),
    Message('note_on', channel=9, note=46, velocity=127, time=0),
    Message('note_on', channel=9, note=46, velocity=0, time=14),
    Message('note_on', channel=9, note=35, velocity=0, time=0),
    Message('note_on', channel=9, note=46, velocity=127, time=46),
    Message('note_on', channel=9, note=46, velocity=0, time=14),
    Message('note_on', channel=9, note=35, velocity=127, time=46),
    Message('note_on', channel=9, note=46, velocity=127, time=0),
    Message('note_on', channel=9, note=46, velocity=0, time=14),
    Message('note_on', channel=9, note=35, velocity=0, time=0),
    Message('note_on', channel=9, note=46, velocity=127, time=46),
    Message('note_on', channel=9, note=38, velocity=127, time=0),
    Message('note_on', channel=9, note=38, velocity=0, time=14),
    Message('note_on', channel=9, note=46, velocity=0, time=0),
    Message('note_on', channel=9, note=35, velocity=127, time=46),
    Message('note_on', channel=9, note=46, velocity=127, time=0),
    Message('note_on', channel=9, note=46, velocity=0, time=14),
    Message('note_on', channel=9, note=35, velocity=0, time=0),
    Message('note_on', channel=9, note=46, velocity=127, time=46),
    Message('note_on', channel=9, note=55, velocity=127, time=0),
    Message('note_on', channel=9, note=35, velocity=127, time=0),
    Message('note_on', channel=9, note=35, velocity=0, time=14),
    Message('note_on', channel=9, note=55, velocity=0, time=0),
    Message('note_on', channel=9, note=46, velocity=0, time=0),
    Message('note_on', channel=9, note=46, velocity=127, time=46),
    Message('note_on', channel=9, note=46, velocity=0, time=14),
    Message('note_on', channel=9, note=46, velocity=127, time=46),
    Message('note_on', channel=9, note=38, velocity=127, time=0),
    Message('note_on', channel=9, note=38, velocity=0, time=14),
    Message('note_on', channel=9, note=46, velocity=0, time=0),
    Message('note_on', channel=9, note=46, velocity=127, time=46),
    Message('note_on', channel=9, note=35, velocity=127, time=0),
    Message('note_on', channel=9, note=35, velocity=0, time=14),
    Message('note_on', channel=9, note=46, velocity=0, time=0),
    Message('note_on', channel=9, note=46, velocity=127, time=46),
    Message('note_on', channel=9, note=46, velocity=0, time=14),
    Message('note_on', channel=9, note=46, velocity=127, time=46),
    Message('note_on', channel=9, note=35, velocity=127, time=0),
    Message('note_on', channel=9, note=35, velocity=0, time=14),
    Message('note_on', channel=9, note=46, velocity=0, time=0),
    Message('note_on', channel=9, note=46, velocity=127, time=46),
    Message('note_on', channel=9, note=38, velocity=127, time=0),
    Message('note_on', channel=9, note=38, velocity=0, time=14),
    Message('note_on', channel=9, note=46, velocity=0, time=0),
    Message('note_on', channel=9, note=46, velocity=127, time=46),
    Message('note_on', channel=9, note=35, velocity=127, time=0),
    Message('note_on', channel=9, note=35, velocity=0, time=14),
    Message('note_on', channel=9, note=46, velocity=0, time=0),
    Message('note_on', channel=9, note=46, velocity=127, time=46),
    Message('note_on', channel=9, note=35, velocity=127, time=0),
    Message('note_on', channel=9, note=35, velocity=0, time=14),
    Message('note_on', channel=9, note=46, velocity=0, time=0),
    Message('note_on', channel=9, note=38, velocity=127, time=46),
    Message('note_on', channel=9, note=46, velocity=127, time=0),
    Message('note_on', channel=9, note=46, velocity=0, time=14),
    Message('note_on', channel=9, note=38, velocity=0, time=0),
    Message('note_on', channel=9, note=38, velocity=127, time=46),
    Message('note_on', channel=9, note=46, velocity=127, time=0),
    Message('note_on', channel=9, note=46, velocity=0, time=14),
    Message('note_on', channel=9, note=38, velocity=0, time=0),
    Message('note_on', channel=9, note=35, velocity=127, time=46),
    Message('note_on', channel=9, note=46, velocity=127, time=0),
    Message('note_on', channel=9, note=46, velocity=0, time=14),
    Message('note_on', channel=9, note=35, velocity=0, time=0),
    Message('note_on', channel=9, note=38, velocity=127, time=46),
    Message('note_on', channel=9, note=46, velocity=127, time=0),
    Message('note_on', channel=9, note=46, velocity=0, time=14),
    Message('note_on', channel=9, note=38, velocity=0, time=0),
    Message('note_on', channel=9, note=35, velocity=127, time=46),
    Message('note_on', channel=9, note=46, velocity=127, time=0),
    Message('note_on', channel=9, note=46, velocity=0, time=14),
    Message('note_on', channel=9, note=35, velocity=0, time=0),
    Message('note_on', channel=9, note=38, velocity=127, time=16),
    Message('note_on', channel=9, note=38, velocity=0, time=14),
    Message('note_on', channel=9, note=38, velocity=127, time=16),
    Message('note_on', channel=9, note=46, velocity=127, time=0),
    Message('note_on', channel=9, note=46, velocity=0, time=14),
    Message('note_on', channel=9, note=38, velocity=0, time=0),
    Message('note_on', channel=9, note=35, velocity=127, time=46),
    Message('note_on', channel=9, note=46, velocity=127, time=0),
    Message('note_on', channel=9, note=46, velocity=0, time=14),
    Message('note_on', channel=9, note=35, velocity=0, time=0),
    Message('note_on', channel=9, note=46, velocity=127, time=46),
    Message('note_on', channel=9, note=55, velocity=127, time=0),
    Message('note_on', channel=9, note=35, velocity=127, time=0),
    Message('note_on', channel=9, note=35, velocity=0, time=14),
    Message('note_on', channel=9, note=55, velocity=0, time=0),
    Message('note_on', channel=9, note=46, velocity=0, time=0),
    Message('note_on', channel=9, note=46, velocity=127, time=46),
    Message('note_on', channel=9, note=46, velocity=0, time=14),
    Message('note_on', channel=9, note=46, velocity=127, time=46),
    Message('note_on', channel=9, note=38, velocity=127, time=0),
    Message('note_on', channel=9, note=38, velocity=0, time=14),
    Message('note_on', channel=9, note=46, velocity=0, time=0),
    Message('note_on', channel=9, note=46, velocity=127, time=46),
    Message('note_on', channel=9, note=35, velocity=127, time=0),
    Message('note_on', channel=9, note=35, velocity=0, time=14),
    Message('note_on', channel=9, note=46, velocity=0, time=0),
    Message('note_on', channel=9, note=46, velocity=127, time=46),
    Message('note_on', channel=9, note=46, velocity=0, time=14),
    Message('note_on', channel=9, note=46, velocity=127, time=46),
    Message('note_on', channel=9, note=35, velocity=127, time=0),
    Message('note_on', channel=9, note=35, velocity=0, time=14),
    Message('note_on', channel=9, note=46, velocity=0, time=0),
    Message('note_on', channel=9, note=46, velocity=127, time=46),
    Message('note_on', channel=9, note=38, velocity=127, time=0),
    Message('note_on', channel=9, note=38, velocity=0, time=14),
    Message('note_on', channel=9, note=46, velocity=0, time=0),
    Message('note_on', channel=9, note=46, velocity=127, time=46),
    Message('note_on', channel=9, note=35, velocity=127, time=0),
    Message('note_on', channel=9, note=35, velocity=0, time=14),
    Message('note_on', channel=9, note=46, velocity=0, time=0),
    Message('note_on', channel=9, note=46, velocity=127, time=46),
    Message('note_on', channel=9, note=35, velocity=127, time=0),
    Message('note_on', channel=9, note=35, velocity=0, time=14),
    Message('note_on', channel=9, note=46, velocity=0, time=0),
    Message('note_on', channel=9, note=46, velocity=127, time=46),
    Message('note_on', channel=9, note=46, velocity=0, time=14),
    Message('note_on', channel=9, note=38, velocity=127, time=46),
    Message('note_on', channel=9, note=46, velocity=127, time=0),
    Message('note_on', channel=9, note=46, velocity=0, time=14),
    Message('note_on', channel=9, note=38, velocity=0, time=0),
    Message('note_on', channel=9, note=35, velocity=127, time=46),
    Message('note_on', channel=9, note=46, velocity=127, time=0),
    Message('note_on', channel=9, note=46, velocity=0, time=14),
    Message('note_on', channel=9, note=35, velocity=0, time=0),
    Message('note_on', channel=9, note=46, velocity=127, time=46),
    Message('note_on', channel=9, note=46, velocity=0, time=14),
    Message('note_on', channel=9, note=35, velocity=127, time=46),
    Message('note_on', channel=9, note=46, velocity=127, time=0),
    Message('note_on', channel=9, note=46, velocity=0, time=14),
    Message('note_on', channel=9, note=35, velocity=0, time=0),
    Message('note_on', channel=9, note=46, velocity=127, time=46),
    Message('note_on', channel=9, note=38, velocity=127, time=0),
    Message('note_on', channel=9, note=38, velocity=0, time=14),
    Message('note_on', channel=9, note=46, velocity=0, time=0),
    Message('note_on', channel=9, note=35, velocity=127, time=46),
    Message('note_on', channel=9, note=46, velocity=127, time=0),
    Message('note_on', channel=9, note=46, velocity=0, time=14),
    Message('note_on', channel=9, note=35, velocity=0, time=0),
    Message('note_on', channel=9, note=46, velocity=127, time=46),
    Message('note_on', channel=9, note=55, velocity=127, time=0),
    Message('note_on', channel=9, note=35, velocity=127, time=0),
    Message('note_on', channel=9, note=35, velocity=0, time=14),
    Message('note_on', channel=9, note=55, velocity=0, time=0),
    Message('note_on', channel=9, note=46, velocity=0, time=0),
    Message('note_on', channel=9, note=46, velocity=127, time=46),
    Message('note_on', channel=9, note=46, velocity=0, time=14),
    Message('note_on', channel=9, note=46, velocity=127, time=46),
    Message('note_on', channel=9, note=38, velocity=127, time=0),
    Message('note_on', channel=9, note=38, velocity=0, time=14),
    Message('note_on', channel=9, note=46, velocity=0, time=0),
    Message('note_on', channel=9, note=46, velocity=127, time=46),
    Message('note_on', channel=9, note=35, velocity=127, time=0),
    Message('note_on', channel=9, note=35, velocity=0, time=14),
    Message('note_on', channel=9, note=46, velocity=0, time=0),
    Message('note_on', channel=9, note=46, velocity=127, time=46),
    Message('note_on', channel=9, note=46, velocity=0, time=14),
    Message('note_on', channel=9, note=46, velocity=127, time=46),
    Message('note_on', channel=9, note=35, velocity=127, time=0),
    Message('note_on', channel=9, note=35, velocity=0, time=14),
    Message('note_on', channel=9, note=46, velocity=0, time=0),
    Message('note_on', channel=9, note=46, velocity=127, time=46),
    Message('note_on', channel=9, note=38, velocity=127, time=0),
    Message('note_on', channel=9, note=38, velocity=0, time=14),
    Message('note_on', channel=9, note=46, velocity=0, time=0),
    Message('note_on', channel=9, note=46, velocity=127, time=46),
    Message('note_on', channel=9, note=35, velocity=127, time=0),
    Message('note_on', channel=9, note=35, velocity=0, time=14),
    Message('note_on', channel=9, note=46, velocity=0, time=0),
    Message('note_on', channel=9, note=46, velocity=127, time=46),
    Message('note_on', channel=9, note=35, velocity=127, time=0),
    Message('note_on', channel=9, note=35, velocity=0, time=14),
    Message('note_on', channel=9, note=46, velocity=0, time=0),
    Message('note_on', channel=9, note=46, velocity=127, time=46),
    Message('note_on', channel=9, note=46, velocity=0, time=14),
    Message('note_on', channel=9, note=38, velocity=127, time=46),
    Message('note_on', channel=9, note=46, velocity=127, time=0),
    Message('note_on', channel=9, note=46, velocity=0, time=14),
    Message('note_on', channel=9, note=38, velocity=0, time=0),
    Message('note_on', channel=9, note=35, velocity=127, time=46),
    Message('note_on', channel=9, note=46, velocity=127, time=0),
    Message('note_on', channel=9, note=46, velocity=0, time=14),
    Message('note_on', channel=9, note=35, velocity=0, time=0),
    Message('note_on', channel=9, note=46, velocity=127, time=46),
    Message('note_on', channel=9, note=46, velocity=0, time=14),
    Message('note_on', channel=9, note=35, velocity=127, time=46),
    Message('note_on', channel=9, note=46, velocity=127, time=0),
    Message('note_on', channel=9, note=46, velocity=0, time=14),
    Message('note_on', channel=9, note=35, velocity=0, time=0),
    Message('note_on', channel=9, note=46, velocity=127, time=46),
    Message('note_on', channel=9, note=38, velocity=127, time=0),
    Message('note_on', channel=9, note=38, velocity=0, time=14),
    Message('note_on', channel=9, note=46, velocity=0, time=0),
    Message('note_on', channel=9, note=35, velocity=127, time=46),
    Message('note_on', channel=9, note=46, velocity=127, time=0),
    Message('note_on', channel=9, note=46, velocity=0, time=14),
    Message('note_on', channel=9, note=35, velocity=0, time=0),
    Message('note_on', channel=9, note=46, velocity=127, time=46),
    Message('note_on', channel=9, note=55, velocity=127, time=0),
    Message('note_on', channel=9, note=35, velocity=127, time=0),
    Message('note_on', channel=9, note=35, velocity=0, time=14),
    Message('note_on', channel=9, note=55, velocity=0, time=0),
    Message('note_on', channel=9, note=46, velocity=0, time=0),
    Message('note_on', channel=9, note=46, velocity=127, time=46),
    Message('note_on', channel=9, note=46, velocity=0, time=14),
    Message('note_on', channel=9, note=46, velocity=127, time=46),
    Message('note_on', channel=9, note=38, velocity=127, time=0),
    Message('note_on', channel=9, note=38, velocity=0, time=14),
    Message('note_on', channel=9, note=46, velocity=0, time=0),
    Message('note_on', channel=9, note=46, velocity=127, time=46),
    Message('note_on', channel=9, note=35, velocity=127, time=0),
    Message('note_on', channel=9, note=35, velocity=0, time=14),
    Message('note_on', channel=9, note=46, velocity=0, time=0),
    Message('note_on', channel=9, note=46, velocity=127, time=46),
    Message('note_on', channel=9, note=46, velocity=0, time=14),
    Message('note_on', channel=9, note=46, velocity=127, time=46),
    Message('note_on', channel=9, note=35, velocity=127, time=0),
    Message('note_on', channel=9, note=35, velocity=0, time=14),
    Message('note_on', channel=9, note=46, velocity=0, time=0),
    Message('note_on', channel=9, note=46, velocity=127, time=46),
    Message('note_on', channel=9, note=38, velocity=127, time=0),
    Message('note_on', channel=9, note=38, velocity=0, time=14),
    Message('note_on', channel=9, note=46, velocity=0, time=0),
    Message('note_on', channel=9, note=46, velocity=127, time=46),
    Message('note_on', channel=9, note=35, velocity=127, time=0),
    Message('note_on', channel=9, note=35, velocity=0, time=14),
    Message('note_on', channel=9, note=46, velocity=0, time=0),
    Message('note_on', channel=9, note=46, velocity=127, time=46),
    Message('note_on', channel=9, note=35, velocity=127, time=0),
    Message('note_on', channel=9, note=35, velocity=0, time=14),
    Message('note_on', channel=9, note=46, velocity=0, time=0),
    Message('note_on', channel=9, note=46, velocity=127, time=46),
    Message('note_on', channel=9, note=46, velocity=0, time=14),
    Message('note_on', channel=9, note=38, velocity=127, time=46),
    Message('note_on', channel=9, note=46, velocity=127, time=0),
    Message('note_on', channel=9, note=46, velocity=0, time=14),
    Message('note_on', channel=9, note=38, velocity=0, time=0),
    Message('note_on', channel=9, note=35, velocity=127, time=46),
    Message('note_on', channel=9, note=46, velocity=127, time=0),
    Message('note_on', channel=9, note=46, velocity=0, time=14),
    Message('note_on', channel=9, note=35, velocity=0, time=0),
    Message('note_on', channel=9, note=46, velocity=127, time=46),
    Message('note_on', channel=9, note=46, velocity=0, time=14),
    Message('note_on', channel=9, note=35, velocity=127, time=46),
    Message('note_on', channel=9, note=46, velocity=127, time=0),
    Message('note_on', channel=9, note=46, velocity=0, time=14),
    Message('note_on', channel=9, note=35, velocity=0, time=0),
    Message('note_on', channel=9, note=46, velocity=127, time=46),
    Message('note_on', channel=9, note=38, velocity=127, time=0),
    Message('note_on', channel=9, note=38, velocity=0, time=14),
    Message('note_on', channel=9, note=46, velocity=0, time=0),
    Message('note_on', channel=9, note=35, velocity=127, time=46),
    Message('note_on', channel=9, note=46, velocity=127, time=0),
    Message('note_on', channel=9, note=46, velocity=0, time=14),
    Message('note_on', channel=9, note=35, velocity=0, time=0),
    Message('note_on', channel=9, note=46, velocity=127, time=46),
    Message('note_on', channel=9, note=55, velocity=127, time=0),
    Message('note_on', channel=9, note=35, velocity=127, time=0),
    Message('note_on', channel=9, note=35, velocity=0, time=14),
    Message('note_on', channel=9, note=55, velocity=0, time=0),
    Message('note_on', channel=9, note=46, velocity=0, time=0),
    Message('note_on', channel=9, note=46, velocity=127, time=46),
    Message('note_on', channel=9, note=46, velocity=0, time=14),
    Message('note_on', channel=9, note=46, velocity=127, time=46),
    Message('note_on', channel=9, note=38, velocity=127, time=0),
    Message('note_on', channel=9, note=38, velocity=0, time=14),
    Message('note_on', channel=9, note=46, velocity=0, time=0),
    Message('note_on', channel=9, note=46, velocity=127, time=46),
    Message('note_on', channel=9, note=35, velocity=127, time=0),
    Message('note_on', channel=9, note=35, velocity=0, time=14),
    Message('note_on', channel=9, note=46, velocity=0, time=0),
    Message('note_on', channel=9, note=46, velocity=127, time=46),
    Message('note_on', channel=9, note=46, velocity=0, time=14),
    Message('note_on', channel=9, note=46, velocity=127, time=46),
    Message('note_on', channel=9, note=35, velocity=127, time=0),
    Message('note_on', channel=9, note=35, velocity=0, time=14),
    Message('note_on', channel=9, note=46, velocity=0, time=0),
    Message('note_on', channel=9, note=46, velocity=127, time=46),
    Message('note_on', channel=9, note=38, velocity=127, time=0),
    Message('note_on', channel=9, note=38, velocity=0, time=14),
    Message('note_on', channel=9, note=46, velocity=0, time=0),
    Message('note_on', channel=9, note=46, velocity=127, time=46),
    Message('note_on', channel=9, note=35, velocity=127, time=0),
    Message('note_on', channel=9, note=35, velocity=0, time=14),
    Message('note_on', channel=9, note=46, velocity=0, time=0),
    Message('note_on', channel=9, note=46, velocity=127, time=46),
    Message('note_on', channel=9, note=35, velocity=127, time=0),
    Message('note_on', channel=9, note=35, velocity=0, time=14),
    Message('note_on', channel=9, note=46, velocity=0, time=0),
    Message('note_on', channel=9, note=46, velocity=127, time=46),
    Message('note_on', channel=9, note=46, velocity=0, time=14),
    Message('note_on', channel=9, note=38, velocity=127, time=46),
    Message('note_on', channel=9, note=46, velocity=127, time=0),
    Message('note_on', channel=9, note=46, velocity=0, time=14),
    Message('note_on', channel=9, note=38, velocity=0, time=0),
    Message('note_on', channel=9, note=35, velocity=127, time=46),
    Message('note_on', channel=9, note=46, velocity=127, time=0),
    Message('note_on', channel=9, note=46, velocity=0, time=14),
    Message('note_on', channel=9, note=35, velocity=0, time=0),
    Message('note_on', channel=9, note=46, velocity=127, time=46),
    Message('note_on', channel=9, note=46, velocity=0, time=14),
    Message('note_on', channel=9, note=35, velocity=127, time=46),
    Message('note_on', channel=9, note=46, velocity=127, time=0),
    Message('note_on', channel=9, note=46, velocity=0, time=14),
    Message('note_on', channel=9, note=35, velocity=0, time=0),
    Message('note_on', channel=9, note=46, velocity=127, time=46),
    Message('note_on', channel=9, note=38, velocity=127, time=0),
    Message('note_on', channel=9, note=38, velocity=0, time=14),
    Message('note_on', channel=9, note=46, velocity=0, time=0),
    Message('note_on', channel=9, note=35, velocity=127, time=46),
    Message('note_on', channel=9, note=46, velocity=127, time=0),
    Message('note_on', channel=9, note=46, velocity=0, time=14),
    Message('note_on', channel=9, note=35, velocity=0, time=0),
    Message('note_on', channel=9, note=46, velocity=127, time=46),
    Message('note_on', channel=9, note=55, velocity=127, time=0),
    Message('note_on', channel=9, note=35, velocity=127, time=0),
    Message('note_on', channel=9, note=35, velocity=0, time=14),
    Message('note_on', channel=9, note=55, velocity=0, time=0),
    Message('note_on', channel=9, note=46, velocity=0, time=0),
    Message('note_on', channel=9, note=46, velocity=127, time=46),
    Message('note_on', channel=9, note=46, velocity=0, time=14),
    Message('note_on', channel=9, note=46, velocity=127, time=46),
    Message('note_on', channel=9, note=38, velocity=127, time=0),
    Message('note_on', channel=9, note=38, velocity=0, time=14),
    Message('note_on', channel=9, note=46, velocity=0, time=0),
    Message('note_on', channel=9, note=46, velocity=127, time=46),
    Message('note_on', channel=9, note=35, velocity=127, time=0),
    Message('note_on', channel=9, note=35, velocity=0, time=14),
    Message('note_on', channel=9, note=46, velocity=0, time=0),
    Message('note_on', channel=9, note=46, velocity=127, time=46),
    Message('note_on', channel=9, note=46, velocity=0, time=14),
    Message('note_on', channel=9, note=46, velocity=127, time=46),
    Message('note_on', channel=9, note=35, velocity=127, time=0),
    Message('note_on', channel=9, note=35, velocity=0, time=14),
    Message('note_on', channel=9, note=46, velocity=0, time=0),
    Message('note_on', channel=9, note=46, velocity=127, time=46),
    Message('note_on', channel=9, note=38, velocity=127, time=0),
    Message('note_on', channel=9, note=38, velocity=0, time=14),
    Message('note_on', channel=9, note=46, velocity=0, time=0),
    Message('note_on', channel=9, note=46, velocity=127, time=46),
    Message('note_on', channel=9, note=35, velocity=127, time=0),
    Message('note_on', channel=9, note=35, velocity=0, time=14),
    Message('note_on', channel=9, note=46, velocity=0, time=0),
    Message('note_on', channel=9, note=46, velocity=127, time=46),
    Message('note_on', channel=9, note=35, velocity=127, time=0),
    Message('note_on', channel=9, note=35, velocity=0, time=14),
    Message('note_on', channel=9, note=46, velocity=0, time=0),
    Message('note_on', channel=9, note=46, velocity=127, time=46),
    Message('note_on', channel=9, note=46, velocity=0, time=14),
    Message('note_on', channel=9, note=38, velocity=127, time=46),
    Message('note_on', channel=9, note=46, velocity=127, time=0),
    Message('note_on', channel=9, note=46, velocity=0, time=14),
    Message('note_on', channel=9, note=38, velocity=0, time=0),
    Message('note_on', channel=9, note=35, velocity=127, time=46),
    Message('note_on', channel=9, note=46, velocity=127, time=0),
    Message('note_on', channel=9, note=46, velocity=0, time=14),
    Message('note_on', channel=9, note=35, velocity=0, time=0),
    Message('note_on', channel=9, note=46, velocity=127, time=46),
    Message('note_on', channel=9, note=46, velocity=0, time=14),
    Message('note_on', channel=9, note=35, velocity=127, time=46),
    Message('note_on', channel=9, note=46, velocity=127, time=0),
    Message('note_on', channel=9, note=46, velocity=0, time=14),
    Message('note_on', channel=9, note=35, velocity=0, time=0),
    Message('note_on', channel=9, note=46, velocity=127, time=46),
    Message('note_on', channel=9, note=38, velocity=127, time=0),
    Message('note_on', channel=9, note=38, velocity=0, time=14),
    Message('note_on', channel=9, note=46, velocity=0, time=0),
    Message('note_on', channel=9, note=35, velocity=127, time=46),
    Message('note_on', channel=9, note=46, velocity=127, time=0),
    Message('note_on', channel=9, note=46, velocity=0, time=14),
    Message('note_on', channel=9, note=35, velocity=0, time=0),
    Message('note_on', channel=9, note=46, velocity=127, time=46),
    Message('note_on', channel=9, note=55, velocity=127, time=0),
    Message('note_on', channel=9, note=35, velocity=127, time=0),
    Message('note_on', channel=9, note=35, velocity=0, time=14),
    Message('note_on', channel=9, note=55, velocity=0, time=0),
    Message('note_on', channel=9, note=46, velocity=0, time=0),
    Message('note_on', channel=9, note=46, velocity=127, time=46),
    Message('note_on', channel=9, note=46, velocity=0, time=14),
    Message('note_on', channel=9, note=46, velocity=127, time=46),
    Message('note_on', channel=9, note=38, velocity=127, time=0),
    Message('note_on', channel=9, note=38, velocity=0, time=14),
    Message('note_on', channel=9, note=46, velocity=0, time=0),
    Message('note_on', channel=9, note=46, velocity=127, time=46),
    Message('note_on', channel=9, note=35, velocity=127, time=0),
    Message('note_on', channel=9, note=35, velocity=0, time=14),
    Message('note_on', channel=9, note=46, velocity=0, time=0),
    Message('note_on', channel=9, note=46, velocity=127, time=46),
    Message('note_on', channel=9, note=46, velocity=0, time=14),
    Message('note_on', channel=9, note=46, velocity=127, time=46),
    Message('note_on', channel=9, note=35, velocity=127, time=0),
    Message('note_on', channel=9, note=35, velocity=0, time=14),
    Message('note_on', channel=9, note=46, velocity=0, time=0),
    Message('note_on', channel=9, note=46, velocity=127, time=46),
    Message('note_on', channel=9, note=38, velocity=127, time=0),
    Message('note_on', channel=9, note=38, velocity=0, time=14),
    Message('note_on', channel=9, note=46, velocity=0, time=0),
    Message('note_on', channel=9, note=46, velocity=127, time=46),
    Message('note_on', channel=9, note=35, velocity=127, time=0),
    Message('note_on', channel=9, note=35, velocity=0, time=14),
    Message('note_on', channel=9, note=46, velocity=0, time=0),
    Message('note_on', channel=9, note=46, velocity=127, time=46),
    Message('note_on', channel=9, note=35, velocity=127, time=0),
    Message('note_on', channel=9, note=35, velocity=0, time=14),
    Message('note_on', channel=9, note=46, velocity=0, time=0),
    Message('note_on', channel=9, note=46, velocity=127, time=46),
    Message('note_on', channel=9, note=46, velocity=0, time=14),
    Message('note_on', channel=9, note=38, velocity=127, time=46),
    Message('note_on', channel=9, note=46, velocity=127, time=0),
    Message('note_on', channel=9, note=46, velocity=0, time=14),
    Message('note_on', channel=9, note=38, velocity=0, time=0),
    Message('note_on', channel=9, note=35, velocity=127, time=46),
    Message('note_on', channel=9, note=46, velocity=127, time=0),
    Message('note_on', channel=9, note=46, velocity=0, time=14),
    Message('note_on', channel=9, note=35, velocity=0, time=0),
    Message('note_on', channel=9, note=46, velocity=127, time=46),
    Message('note_on', channel=9, note=46, velocity=0, time=14),
    Message('note_on', channel=9, note=35, velocity=127, time=46),
    Message('note_on', channel=9, note=46, velocity=127, time=0),
    Message('note_on', channel=9, note=46, velocity=0, time=14),
    Message('note_on', channel=9, note=35, velocity=0, time=0),
    Message('note_on', channel=9, note=46, velocity=127, time=46),
    Message('note_on', channel=9, note=38, velocity=127, time=0),
    Message('note_on', channel=9, note=38, velocity=0, time=14),
    Message('note_on', channel=9, note=46, velocity=0, time=0),
    Message('note_on', channel=9, note=35, velocity=127, time=46),
    Message('note_on', channel=9, note=46, velocity=127, time=0),
    Message('note_on', channel=9, note=46, velocity=0, time=14),
    Message('note_on', channel=9, note=35, velocity=0, time=0),
    Message('note_on', channel=9, note=46, velocity=127, time=46),
    Message('note_on', channel=9, note=55, velocity=127, time=0),
    Message('note_on', channel=9, note=35, velocity=127, time=0),
    Message('note_on', channel=9, note=35, velocity=0, time=14),
    Message('note_on', channel=9, note=55, velocity=0, time=0),
    Message('note_on', channel=9, note=46, velocity=0, time=0),
    Message('note_on', channel=9, note=46, velocity=127, time=46),
    Message('note_on', channel=9, note=46, velocity=0, time=14),
    Message('note_on', channel=9, note=46, velocity=127, time=46),
    Message('note_on', channel=9, note=38, velocity=127, time=0),
    Message('note_on', channel=9, note=38, velocity=0, time=14),
    Message('note_on', channel=9, note=46, velocity=0, time=0),
    Message('note_on', channel=9, note=46, velocity=127, time=46),
    Message('note_on', channel=9, note=35, velocity=127, time=0),
    Message('note_on', channel=9, note=35, velocity=0, time=14),
    Message('note_on', channel=9, note=46, velocity=0, time=0),
    Message('note_on', channel=9, note=46, velocity=127, time=46),
    Message('note_on', channel=9, note=46, velocity=0, time=14),
    Message('note_on', channel=9, note=46, velocity=127, time=46),
    Message('note_on', channel=9, note=35, velocity=127, time=0),
    Message('note_on', channel=9, note=35, velocity=0, time=14),
    Message('note_on', channel=9, note=46, velocity=0, time=0),
    Message('note_on', channel=9, note=55, velocity=127, time=46),
    Message('note_on', channel=9, note=46, velocity=127, time=0),
    Message('note_on', channel=9, note=38, velocity=127, time=0),
    Message('note_on', channel=9, note=38, velocity=0, time=14),
    Message('note_on', channel=9, note=46, velocity=0, time=0),
    Message('note_on', channel=9, note=55, velocity=0, time=0),
    Message('note_on', channel=9, note=46, velocity=127, time=46),
    Message('note_on', channel=9, note=35, velocity=127, time=0),
    Message('note_on', channel=9, note=35, velocity=0, time=14),
    Message('note_on', channel=9, note=46, velocity=0, time=0),
    Message('note_on', channel=9, note=57, velocity=127, time=46),
    Message('note_on', channel=9, note=35, velocity=127, time=0),
    Message('note_on', channel=9, note=35, velocity=0, time=14),
    Message('note_on', channel=9, note=57, velocity=0, time=0),
    Message('note_on', channel=9, note=35, velocity=127, time=46),
    Message('note_on', channel=9, note=35, velocity=0, time=14),
    Message('note_on', channel=9, note=55, velocity=127, time=46),
    Message('note_on', channel=9, note=35, velocity=127, time=0),
    Message('note_on', channel=9, note=35, velocity=0, time=14),
    Message('note_on', channel=9, note=55, velocity=0, time=0),
    Message('note_on', channel=9, note=35, velocity=127, time=46),
    Message('note_on', channel=9, note=35, velocity=0, time=14),
    Message('note_on', channel=9, note=57, velocity=127, time=46),
    Message('note_on', channel=9, note=38, velocity=127, time=0),
    Message('note_on', channel=9, note=38, velocity=0, time=14),
    Message('note_on', channel=9, note=57, velocity=0, time=0),
    Message('note_on', channel=9, note=35, velocity=127, time=46),
    Message('note_on', channel=9, note=35, velocity=0, time=14),
    Message('note_on', channel=9, note=35, velocity=127, time=46),
    Message('note_on', channel=9, note=38, velocity=127, time=0),
    Message('note_on', channel=9, note=38, velocity=0, time=14),
    Message('note_on', channel=9, note=35, velocity=0, time=0),
    Message('note_on', channel=9, note=35, velocity=127, time=16),
    Message('note_on', channel=9, note=38, velocity=127, time=0),
    Message('note_on', channel=9, note=38, velocity=0, time=14),
    Message('note_on', channel=9, note=35, velocity=0, time=0),
    Message('note_on', channel=9, note=35, velocity=127, time=16),
    Message('note_on', channel=9, note=35, velocity=0, time=14),
    Message('note_on', channel=9, note=35, velocity=127, time=46),
    Message('note_on', channel=9, note=57, velocity=127, time=0),
    Message('note_on', channel=9, note=57, velocity=0, time=14),
    Message('note_on', channel=9, note=35, velocity=0, time=0),
    MetaMessage('end_of_track', time=0)]),
  MidiTrack([
    MetaMessage('midi_port', port=0, time=0),
    Message('program_change', channel=3, program=33, time=0),
    Message('control_change', channel=3, control=7, value=125, time=0),
    Message('note_on', channel=3, note=32, velocity=127, time=22560),
    Message('control_change', channel=3, control=7, value=39, time=0),
    Message('control_change', channel=3, control=7, value=40, time=6),
    Message('control_change', channel=3, control=7, value=41, time=7),
    Message('control_change', channel=3, control=7, value=42, time=3),
    Message('control_change', channel=3, control=7, value=43, time=7),
    Message('control_change', channel=3, control=7, value=44, time=7),
    Message('control_change', channel=3, control=7, value=45, time=3),
    Message('control_change', channel=3, control=7, value=46, time=7),
    Message('control_change', channel=3, control=7, value=47, time=3),
    Message('control_change', channel=3, control=7, value=48, time=7),
    Message('control_change', channel=3, control=7, value=49, time=6),
    Message('note_on', channel=3, note=32, velocity=0, time=3),
    Message('note_on', channel=3, note=32, velocity=127, time=1),
    Message('control_change', channel=3, control=7, value=50, time=0),
    Message('control_change', channel=3, control=7, value=51, time=6),
    Message('control_change', channel=3, control=7, value=52, time=7),
    Message('control_change', channel=3, control=7, value=53, time=3),
    Message('control_change', channel=3, control=7, value=54, time=7),
    Message('control_change', channel=3, control=7, value=55, time=3),
    Message('control_change', channel=3, control=7, value=56, time=7),
    Message('control_change', channel=3, control=7, value=57, time=7),
    Message('control_change', channel=3, control=7, value=58, time=3),
    Message('control_change', channel=3, control=7, value=59, time=7),
    Message('control_change', channel=3, control=7, value=60, time=6),
    Message('note_on', channel=3, note=32, velocity=0, time=3),
    Message('note_on', channel=3, note=32, velocity=127, time=1),
    Message('control_change', channel=3, control=7, value=61, time=0),
    Message('control_change', channel=3, control=7, value=62, time=6),
    Message('control_change', channel=3, control=7, value=63, time=4),
    Message('control_change', channel=3, control=7, value=64, time=6),
    Message('control_change', channel=3, control=7, value=65, time=7),
    Message('control_change', channel=3, control=7, value=66, time=3),
    Message('control_change', channel=3, control=7, value=67, time=7),
    Message('control_change', channel=3, control=7, value=68, time=7),
    Message('control_change', channel=3, control=7, value=69, time=3),
    Message('control_change', channel=3, control=7, value=70, time=7),
    Message('control_change', channel=3, control=7, value=71, time=3),
    Message('note_on', channel=3, note=32, velocity=0, time=6),
    Message('note_on', channel=3, note=32, velocity=127, time=1),
    Message('control_change', channel=3, control=7, value=72, time=0),
    Message('control_change', channel=3, control=7, value=73, time=6),
    Message('control_change', channel=3, control=7, value=74, time=4),
    Message('control_change', channel=3, control=7, value=75, time=6),
    Message('control_change', channel=3, control=7, value=76, time=7),
    Message('control_change', channel=3, control=7, value=77, time=3),
    Message('control_change', channel=3, control=7, value=78, time=7),
    Message('control_change', channel=3, control=7, value=79, time=3),
    Message('control_change', channel=3, control=7, value=80, time=7),
    Message('control_change', channel=3, control=7, value=81, time=7),
    Message('control_change', channel=3, control=7, value=82, time=3),
    Message('note_on', channel=3, note=32, velocity=0, time=6),
    Message('note_on', channel=3, note=32, velocity=127, time=1),
    Message('control_change', channel=3, control=7, value=83, time=0),
    Message('control_change', channel=3, control=7, value=84, time=6),
    Message('control_change', channel=3, control=7, value=85, time=4),
    Message('control_change', channel=3, control=7, value=86, time=6),
    Message('control_change', channel=3, control=7, value=87, time=4),
    Message('control_change', channel=3, control=7, value=88, time=6),
    Message('control_change', channel=3, control=7, value=89, time=7),
    Message('control_change', channel=3, control=7, value=90, time=3),
    Message('control_change', channel=3, control=7, value=91, time=7),
    Message('control_change', channel=3, control=7, value=92, time=7),
    Message('control_change', channel=3, control=7, value=93, time=3),
    Message('note_on', channel=3, note=32, velocity=0, time=6),
    Message('note_on', channel=3, note=32, velocity=127, time=1),
    Message('control_change', channel=3, control=7, value=94, time=0),
    Message('control_change', channel=3, control=7, value=95, time=3),
    Message('control_change', channel=3, control=7, value=96, time=7),
    Message('control_change', channel=3, control=7, value=97, time=6),
    Message('control_change', channel=3, control=7, value=98, time=4),
    Message('control_change', channel=3, control=7, value=99, time=6),
    Message('control_change', channel=3, control=7, value=100, time=7),
    Message('control_change', channel=3, control=7, value=101, time=3),
    Message('control_change', channel=3, control=7, value=102, time=7),
    Message('control_change', channel=3, control=7, value=103, time=3),
    Message('control_change', channel=3, control=7, value=104, time=7),
    Message('note_on', channel=3, note=32, velocity=0, time=6),
    Message('note_on', channel=3, note=32, velocity=127, time=1),
    Message('control_change', channel=3, control=7, value=105, time=0),
    Message('control_change', channel=3, control=7, value=106, time=3),
    Message('control_change', channel=3, control=7, value=107, time=7),
    Message('control_change', channel=3, control=7, value=108, time=6),
    Message('control_change', channel=3, control=7, value=109, time=4),
    Message('control_change', channel=3, control=7, value=110, time=6),
    Message('control_change', channel=3, control=7, value=111, time=4),
    Message('control_change', channel=3, control=7, value=112, time=6),
    Message('control_change', channel=3, control=7, value=113, time=7),
    Message('control_change', channel=3, control=7, value=114, time=3),
    Message('control_change', channel=3, control=7, value=115, time=7),
    Message('note_on', channel=3, note=32, velocity=0, time=6),
    Message('note_on', channel=3, note=32, velocity=127, time=1),
    Message('control_change', channel=3, control=7, value=116, time=0),
    Message('control_change', channel=3, control=7, value=117, time=3),
    Message('control_change', channel=3, control=7, value=118, time=7),
    Message('control_change', channel=3, control=7, value=119, time=3),
    Message('control_change', channel=3, control=7, value=120, time=7),
    Message('control_change', channel=3, control=7, value=121, time=6),
    Message('control_change', channel=3, control=7, value=122, time=4),
    Message('control_change', channel=3, control=7, value=123, time=6),
    Message('control_change', channel=3, control=7, value=124, time=7),
    Message('control_change', channel=3, control=7, value=125, time=3),
    Message('control_change', channel=3, control=7, value=126, time=7),
    Message('control_change', channel=3, control=7, value=127, time=3),
    Message('note_on', channel=3, note=32, velocity=0, time=3),
    Message('note_on', channel=3, note=30, velocity=127, time=1),
    Message('note_on', channel=3, note=30, velocity=0, time=179),
    Message('note_on', channel=3, note=30, velocity=127, time=1),
    Message('note_on', channel=3, note=30, velocity=0, time=119),
    Message('note_on', channel=3, note=30, velocity=127, time=1),
    Message('note_on', channel=3, note=30, velocity=0, time=59),
    Message('note_on', channel=3, note=30, velocity=127, time=1),
    Message('note_on', channel=3, note=30, velocity=0, time=119),
    Message('note_on', channel=3, note=30, velocity=127, time=1),
    Message('note_on', channel=3, note=30, velocity=0, time=179),
    Message('note_on', channel=3, note=30, velocity=127, time=1),
    Message('note_on', channel=3, note=30, velocity=0, time=119),
    Message('note_on', channel=3, note=30, velocity=127, time=1),
    Message('note_on', channel=3, note=30, velocity=0, time=59),
    Message('note_on', channel=3, note=30, velocity=127, time=1),
    Message('note_on', channel=3, note=30, velocity=0, time=119),
    Message('note_on', channel=3, note=32, velocity=127, time=1),
    Message('note_on', channel=3, note=32, velocity=0, time=179),
    Message('note_on', channel=3, note=32, velocity=127, time=1),
    Message('note_on', channel=3, note=32, velocity=0, time=119),
    Message('note_on', channel=3, note=32, velocity=127, time=1),
    Message('note_on', channel=3, note=32, velocity=0, time=59),
    Message('note_on', channel=3, note=32, velocity=127, time=1),
    Message('note_on', channel=3, note=32, velocity=0, time=119),
    Message('note_on', channel=3, note=32, velocity=127, time=1),
    Message('note_on', channel=3, note=32, velocity=0, time=179),
    Message('note_on', channel=3, note=32, velocity=127, time=1),
    Message('note_on', channel=3, note=32, velocity=0, time=119),
    Message('note_on', channel=3, note=32, velocity=127, time=1),
    Message('note_on', channel=3, note=32, velocity=0, time=59),
    Message('note_on', channel=3, note=32, velocity=127, time=1),
    Message('note_on', channel=3, note=32, velocity=0, time=119),
    Message('note_on', channel=3, note=33, velocity=127, time=1),
    Message('note_on', channel=3, note=33, velocity=0, time=179),
    Message('note_on', channel=3, note=33, velocity=127, time=1),
    Message('note_on', channel=3, note=33, velocity=0, time=119),
    Message('note_on', channel=3, note=33, velocity=127, time=1),
    Message('note_on', channel=3, note=33, velocity=0, time=59),
    Message('note_on', channel=3, note=33, velocity=127, time=1),
    Message('note_on', channel=3, note=33, velocity=0, time=59),
    Message('note_on', channel=3, note=33, velocity=127, time=1),
    Message('note_on', channel=3, note=33, velocity=0, time=59),
    Message('note_on', channel=3, note=35, velocity=127, time=1),
    Message('note_on', channel=3, note=35, velocity=0, time=59),
    Message('note_on', channel=3, note=35, velocity=127, time=1),
    Message('note_on', channel=3, note=35, velocity=0, time=59),
    Message('note_on', channel=3, note=35, velocity=127, time=1),
    Message('note_on', channel=3, note=35, velocity=0, time=59),
    Message('note_on', channel=3, note=35, velocity=127, time=1),
    Message('note_on', channel=3, note=35, velocity=0, time=119),
    Message('note_on', channel=3, note=35, velocity=127, time=1),
    Message('note_on', channel=3, note=35, velocity=0, time=59),
    Message('note_on', channel=3, note=35, velocity=127, time=1),
    Message('note_on', channel=3, note=35, velocity=0, time=59),
    Message('note_on', channel=3, note=35, velocity=127, time=1),
    Message('note_on', channel=3, note=35, velocity=0, time=59),
    Message('note_on', channel=3, note=33, velocity=127, time=1),
    Message('note_on', channel=3, note=33, velocity=0, time=179),
    Message('note_on', channel=3, note=33, velocity=127, time=1),
    Message('note_on', channel=3, note=33, velocity=0, time=119),
    Message('note_on', channel=3, note=33, velocity=127, time=1),
    Message('note_on', channel=3, note=33, velocity=0, time=119),
    Message('note_on', channel=3, note=33, velocity=127, time=1),
    Message('note_on', channel=3, note=33, velocity=0, time=59),
    Message('note_on', channel=3, note=35, velocity=127, time=1),
    Message('note_on', channel=3, note=35, velocity=0, time=179),
    Message('note_on', channel=3, note=35, velocity=127, time=1),
    Message('note_on', channel=3, note=35, velocity=0, time=119),
    Message('note_on', channel=3, note=35, velocity=127, time=1),
    Message('note_on', channel=3, note=35, velocity=0, time=59),
    Message('note_on', channel=3, note=35, velocity=127, time=1),
    Message('note_on', channel=3, note=35, velocity=0, time=59),
    Message('note_on', channel=3, note=35, velocity=127, time=1),
    Message('note_on', channel=3, note=35, velocity=0, time=59),
    Message('note_on', channel=3, note=35, velocity=127, time=1),
    Message('note_on', channel=3, note=35, velocity=0, time=59),
    Message('note_on', channel=3, note=35, velocity=127, time=1),
    Message('note_on', channel=3, note=35, velocity=0, time=59),
    Message('note_on', channel=3, note=35, velocity=127, time=1),
    Message('note_on', channel=3, note=35, velocity=0, time=59),
    Message('note_on', channel=3, note=35, velocity=127, time=1),
    Message('note_on', channel=3, note=35, velocity=0, time=119),
    Message('note_on', channel=3, note=35, velocity=127, time=1),
    Message('note_on', channel=3, note=35, velocity=0, time=59),
    Message('note_on', channel=3, note=35, velocity=127, time=1),
    Message('note_on', channel=3, note=35, velocity=0, time=59),
    Message('note_on', channel=3, note=35, velocity=127, time=1),
    Message('note_on', channel=3, note=35, velocity=0, time=59),
    Message('note_on', channel=3, note=26, velocity=127, time=1),
    Message('note_on', channel=3, note=26, velocity=0, time=179),
    Message('note_on', channel=3, note=38, velocity=127, time=1),
    Message('note_on', channel=3, note=38, velocity=0, time=119),
    Message('note_on', channel=3, note=26, velocity=127, time=1),
    Message('note_on', channel=3, note=26, velocity=0, time=119),
    Message('note_on', channel=3, note=38, velocity=127, time=1),
    Message('note_on', channel=3, note=38, velocity=0, time=59),
    Message('note_on', channel=3, note=33, velocity=127, time=1),
    Message('note_on', channel=3, note=33, velocity=0, time=119),
    Message('note_on', channel=3, note=33, velocity=127, time=1),
    Message('note_on', channel=3, note=33, velocity=0, time=119),
    Message('note_on', channel=3, note=31, velocity=127, time=1),
    Message('note_on', channel=3, note=31, velocity=0, time=119),
    Message('note_on', channel=3, note=31, velocity=127, time=1),
    Message('note_on', channel=3, note=31, velocity=0, time=119),
    Message('note_on', channel=3, note=26, velocity=127, time=1),
    Message('note_on', channel=3, note=26, velocity=0, time=179),
    Message('note_on', channel=3, note=38, velocity=127, time=1),
    Message('note_on', channel=3, note=38, velocity=0, time=119),
    Message('note_on', channel=3, note=26, velocity=127, time=1),
    Message('note_on', channel=3, note=26, velocity=0, time=119),
    Message('note_on', channel=3, note=38, velocity=127, time=1),
    Message('note_on', channel=3, note=38, velocity=0, time=59),
    Message('note_on', channel=3, note=33, velocity=127, time=1),
    Message('note_on', channel=3, note=33, velocity=0, time=119),
    Message('note_on', channel=3, note=33, velocity=127, time=1),
    Message('note_on', channel=3, note=33, velocity=0, time=119),
    Message('note_on', channel=3, note=31, velocity=127, time=1),
    Message('note_on', channel=3, note=31, velocity=0, time=119),
    Message('note_on', channel=3, note=31, velocity=127, time=1),
    Message('note_on', channel=3, note=31, velocity=0, time=119),
    Message('note_on', channel=3, note=26, velocity=127, time=1),
    Message('note_on', channel=3, note=26, velocity=0, time=179),
    Message('note_on', channel=3, note=38, velocity=127, time=1),
    Message('note_on', channel=3, note=38, velocity=0, time=119),
    Message('note_on', channel=3, note=26, velocity=127, time=1),
    Message('note_on', channel=3, note=26, velocity=0, time=119),
    Message('note_on', channel=3, note=38, velocity=127, time=1),
    Message('note_on', channel=3, note=38, velocity=0, time=59),
    Message('note_on', channel=3, note=33, velocity=127, time=1),
    Message('note_on', channel=3, note=33, velocity=0, time=119),
    Message('note_on', channel=3, note=33, velocity=127, time=1),
    Message('note_on', channel=3, note=33, velocity=0, time=119),
    Message('note_on', channel=3, note=31, velocity=127, time=1),
    Message('note_on', channel=3, note=31, velocity=0, time=119),
    Message('note_on', channel=3, note=31, velocity=127, time=1),
    Message('note_on', channel=3, note=31, velocity=0, time=119),
    Message('note_on', channel=3, note=26, velocity=127, time=1),
    Message('note_on', channel=3, note=26, velocity=0, time=179),
    Message('note_on', channel=3, note=38, velocity=127, time=1),
    Message('note_on', channel=3, note=38, velocity=0, time=119),
    Message('note_on', channel=3, note=26, velocity=127, time=1),
    Message('note_on', channel=3, note=26, velocity=0, time=119),
    Message('note_on', channel=3, note=38, velocity=127, time=1),
    Message('note_on', channel=3, note=38, velocity=0, time=59),
    Message('note_on', channel=3, note=33, velocity=127, time=1),
    Message('note_on', channel=3, note=33, velocity=0, time=119),
    Message('note_on', channel=3, note=33, velocity=127, time=1),
    Message('note_on', channel=3, note=33, velocity=0, time=119),
    Message('note_on', channel=3, note=31, velocity=127, time=1),
    Message('note_on', channel=3, note=31, velocity=0, time=119),
    Message('note_on', channel=3, note=31, velocity=127, time=1),
    Message('note_on', channel=3, note=31, velocity=0, time=119),
    Message('note_on', channel=3, note=26, velocity=127, time=1),
    Message('note_on', channel=3, note=26, velocity=0, time=179),
    Message('note_on', channel=3, note=38, velocity=127, time=1),
    Message('note_on', channel=3, note=38, velocity=0, time=119),
    Message('note_on', channel=3, note=26, velocity=127, time=1),
    Message('note_on', channel=3, note=26, velocity=0, time=119),
    Message('note_on', channel=3, note=38, velocity=127, time=1),
    Message('note_on', channel=3, note=38, velocity=0, time=59),
    Message('note_on', channel=3, note=33, velocity=127, time=1),
    Message('note_on', channel=3, note=33, velocity=0, time=119),
    Message('note_on', channel=3, note=33, velocity=127, time=1),
    Message('note_on', channel=3, note=33, velocity=0, time=119),
    Message('note_on', channel=3, note=31, velocity=127, time=1),
    Message('note_on', channel=3, note=31, velocity=0, time=119),
    Message('note_on', channel=3, note=31, velocity=127, time=1),
    Message('note_on', channel=3, note=31, velocity=0, time=119),
    Message('note_on', channel=3, note=26, velocity=127, time=1),
    Message('note_on', channel=3, note=26, velocity=0, time=179),
    Message('note_on', channel=3, note=38, velocity=127, time=1),
    Message('note_on', channel=3, note=38, velocity=0, time=119),
    Message('note_on', channel=3, note=26, velocity=127, time=1),
    Message('note_on', channel=3, note=26, velocity=0, time=119),
    Message('note_on', channel=3, note=38, velocity=127, time=1),
    Message('note_on', channel=3, note=38, velocity=0, time=59),
    Message('note_on', channel=3, note=33, velocity=127, time=1),
    Message('note_on', channel=3, note=33, velocity=0, time=119),
    Message('note_on', channel=3, note=33, velocity=127, time=1),
    Message('note_on', channel=3, note=33, velocity=0, time=119),
    Message('note_on', channel=3, note=31, velocity=127, time=1),
    Message('note_on', channel=3, note=31, velocity=0, time=119),
    Message('note_on', channel=3, note=31, velocity=127, time=1),
    Message('note_on', channel=3, note=31, velocity=0, time=119),
    Message('note_on', channel=3, note=26, velocity=127, time=1),
    Message('note_on', channel=3, note=26, velocity=0, time=179),
    Message('note_on', channel=3, note=38, velocity=127, time=1),
    Message('note_on', channel=3, note=38, velocity=0, time=119),
    Message('note_on', channel=3, note=26, velocity=127, time=1),
    Message('note_on', channel=3, note=26, velocity=0, time=119),
    Message('note_on', channel=3, note=38, velocity=127, time=1),
    Message('note_on', channel=3, note=38, velocity=0, time=59),
    Message('note_on', channel=3, note=33, velocity=127, time=1),
    Message('note_on', channel=3, note=33, velocity=0, time=119),
    Message('note_on', channel=3, note=33, velocity=127, time=1),
    Message('note_on', channel=3, note=33, velocity=0, time=119),
    Message('note_on', channel=3, note=31, velocity=127, time=1),
    Message('note_on', channel=3, note=31, velocity=0, time=119),
    Message('note_on', channel=3, note=31, velocity=127, time=1),
    Message('note_on', channel=3, note=31, velocity=0, time=119),
    Message('note_on', channel=3, note=26, velocity=127, time=1),
    Message('note_on', channel=3, note=26, velocity=0, time=179),
    Message('note_on', channel=3, note=38, velocity=127, time=1),
    Message('note_on', channel=3, note=38, velocity=0, time=119),
    Message('note_on', channel=3, note=26, velocity=127, time=1),
    Message('note_on', channel=3, note=26, velocity=0, time=119),
    Message('note_on', channel=3, note=38, velocity=127, time=1),
    Message('note_on', channel=3, note=38, velocity=0, time=59),
    Message('note_on', channel=3, note=33, velocity=127, time=1),
    Message('note_on', channel=3, note=33, velocity=0, time=179),
    Message('note_on', channel=3, note=33, velocity=127, time=1),
    Message('note_on', channel=3, note=33, velocity=0, time=119),
    Message('note_on', channel=3, note=33, velocity=127, time=1),
    Message('note_on', channel=3, note=33, velocity=0, time=119),
    Message('note_on', channel=3, note=33, velocity=127, time=1),
    Message('note_on', channel=3, note=33, velocity=0, time=59),
    Message('note_on', channel=3, note=33, velocity=127, time=1),
    Message('note_on', channel=3, note=33, velocity=0, time=119),
    Message('note_on', channel=3, note=33, velocity=127, time=1),
    Message('note_on', channel=3, note=33, velocity=0, time=59),
    Message('note_on', channel=3, note=33, velocity=127, time=1),
    Message('note_on', channel=3, note=33, velocity=0, time=119),
    Message('note_on', channel=3, note=33, velocity=127, time=1),
    Message('note_on', channel=3, note=33, velocity=0, time=119),
    Message('note_on', channel=3, note=33, velocity=127, time=1),
    Message('note_on', channel=3, note=33, velocity=0, time=59),
    Message('note_on', channel=3, note=26, velocity=127, time=1),
    Message('note_on', channel=3, note=26, velocity=0, time=119),
    Message('note_on', channel=3, note=26, velocity=127, time=1),
    Message('note_on', channel=3, note=26, velocity=0, time=59),
    Message('note_on', channel=3, note=26, velocity=127, time=1),
    Message('note_on', channel=3, note=26, velocity=0, time=119),
    Message('note_on', channel=3, note=26, velocity=127, time=1),
    Message('note_on', channel=3, note=26, velocity=0, time=119),
    Message('note_on', channel=3, note=26, velocity=127, time=1),
    Message('note_on', channel=3, note=26, velocity=0, time=59),
    Message('note_on', channel=3, note=26, velocity=127, time=1),
    Message('note_on', channel=3, note=26, velocity=0, time=119),
    Message('note_on', channel=3, note=26, velocity=127, time=1),
    Message('note_on', channel=3, note=26, velocity=0, time=59),
    Message('note_on', channel=3, note=26, velocity=127, time=1),
    Message('note_on', channel=3, note=26, velocity=0, time=119),
    Message('note_on', channel=3, note=26, velocity=127, time=1),
    Message('note_on', channel=3, note=26, velocity=0, time=119),
    Message('note_on', channel=3, note=26, velocity=127, time=1),
    Message('note_on', channel=3, note=26, velocity=0, time=59),
    Message('note_on', channel=3, note=33, velocity=127, time=1),
    Message('note_on', channel=3, note=33, velocity=0, time=179),
    Message('note_on', channel=3, note=33, velocity=127, time=1),
    Message('note_on', channel=3, note=33, velocity=0, time=119),
    Message('note_on', channel=3, note=33, velocity=127, time=1),
    Message('note_on', channel=3, note=33, velocity=0, time=119),
    Message('note_on', channel=3, note=33, velocity=127, time=1),
    Message('note_on', channel=3, note=33, velocity=0, time=59),
    Message('note_on', channel=3, note=33, velocity=127, time=1),
    Message('note_on', channel=3, note=33, velocity=0, time=119),
    Message('note_on', channel=3, note=33, velocity=127, time=1),
    Message('note_on', channel=3, note=33, velocity=0, time=59),
    Message('note_on', channel=3, note=33, velocity=127, time=1),
    Message('note_on', channel=3, note=33, velocity=0, time=119),
    Message('note_on', channel=3, note=33, velocity=127, time=1),
    Message('note_on', channel=3, note=33, velocity=0, time=119),
    Message('note_on', channel=3, note=33, velocity=127, time=1),
    Message('note_on', channel=3, note=33, velocity=0, time=59),
    Message('note_on', channel=3, note=31, velocity=127, time=1),
    Message('note_on', channel=3, note=31, velocity=0, time=179),
    Message('note_on', channel=3, note=31, velocity=127, time=1),
    Message('note_on', channel=3, note=31, velocity=0, time=179),
    Message('note_on', channel=3, note=31, velocity=127, time=1),
    Message('note_on', channel=3, note=31, velocity=0, time=59),
    Message('note_on', channel=3, note=31, velocity=127, time=61),
    Message('note_on', channel=3, note=31, velocity=0, time=179),
    Message('note_on', channel=3, note=31, velocity=127, time=1),
    Message('note_on', channel=3, note=31, velocity=0, time=179),
    Message('note_on', channel=3, note=31, velocity=127, time=1),
    Message('note_on', channel=3, note=31, velocity=0, time=119),
    Message('note_on', channel=3, note=31, velocity=127, time=1),
    Message('note_on', channel=3, note=31, velocity=0, time=179),
    Message('note_on', channel=3, note=31, velocity=127, time=1),
    Message('note_on', channel=3, note=31, velocity=0, time=179),
    Message('note_on', channel=3, note=31, velocity=127, time=1),
    Message('note_on', channel=3, note=31, velocity=0, time=59),
    Message('note_on', channel=3, note=31, velocity=127, time=1),
    Message('note_on', channel=3, note=31, velocity=0, time=59),
    Message('note_on', channel=3, note=31, velocity=127, time=1),
    Message('note_on', channel=3, note=31, velocity=0, time=119),
    Message('note_on', channel=3, note=31, velocity=127, time=1),
    Message('note_on', channel=3, note=31, velocity=0, time=59),
    Message('note_on', channel=3, note=31, velocity=127, time=1),
    Message('note_on', channel=3, note=31, velocity=0, time=119),
    Message('note_on', channel=3, note=31, velocity=127, time=1),
    Message('note_on', channel=3, note=31, velocity=0, time=59),
    Message('note_on', channel=3, note=31, velocity=127, time=1),
    Message('note_on', channel=3, note=31, velocity=0, time=59),
    Message('note_on', channel=3, note=31, velocity=127, time=1),
    Message('note_on', channel=3, note=31, velocity=0, time=59),
    Message('note_on', channel=3, note=26, velocity=127, time=1),
    Message('note_on', channel=3, note=26, velocity=0, time=179),
    Message('note_on', channel=3, note=38, velocity=127, time=1),
    Message('note_on', channel=3, note=38, velocity=0, time=119),
    Message('note_on', channel=3, note=26, velocity=127, time=1),
    Message('note_on', channel=3, note=26, velocity=0, time=119),
    Message('note_on', channel=3, note=38, velocity=127, time=1),
    Message('note_on', channel=3, note=38, velocity=0, time=59),
    Message('note_on', channel=3, note=33, velocity=127, time=1),
    Message('note_on', channel=3, note=33, velocity=0, time=119),
    Message('note_on', channel=3, note=33, velocity=127, time=1),
    Message('note_on', channel=3, note=33, velocity=0, time=119),
    Message('note_on', channel=3, note=31, velocity=127, time=1),
    Message('note_on', channel=3, note=31, velocity=0, time=119),
    Message('note_on', channel=3, note=31, velocity=127, time=1),
    Message('note_on', channel=3, note=31, velocity=0, time=119),
    Message('note_on', channel=3, note=26, velocity=127, time=1),
    Message('note_on', channel=3, note=26, velocity=0, time=179),
    Message('note_on', channel=3, note=38, velocity=127, time=1),
    Message('note_on', channel=3, note=38, velocity=0, time=119),
    Message('note_on', channel=3, note=26, velocity=127, time=1),
    Message('note_on', channel=3, note=26, velocity=0, time=119),
    Message('note_on', channel=3, note=38, velocity=127, time=1),
    Message('note_on', channel=3, note=38, velocity=0, time=59),
    Message('note_on', channel=3, note=33, velocity=127, time=1),
    Message('note_on', channel=3, note=33, velocity=0, time=119),
    Message('note_on', channel=3, note=33, velocity=127, time=1),
    Message('note_on', channel=3, note=33, velocity=0, time=119),
    Message('note_on', channel=3, note=31, velocity=127, time=1),
    Message('note_on', channel=3, note=31, velocity=0, time=119),
    Message('note_on', channel=3, note=31, velocity=127, time=1),
    Message('note_on', channel=3, note=31, velocity=0, time=119),
    Message('note_on', channel=3, note=26, velocity=127, time=1),
    Message('note_on', channel=3, note=26, velocity=0, time=179),
    Message('note_on', channel=3, note=38, velocity=127, time=1),
    Message('note_on', channel=3, note=38, velocity=0, time=119),
    Message('note_on', channel=3, note=26, velocity=127, time=1),
    Message('note_on', channel=3, note=26, velocity=0, time=119),
    Message('note_on', channel=3, note=38, velocity=127, time=1),
    Message('note_on', channel=3, note=38, velocity=0, time=59),
    Message('note_on', channel=3, note=33, velocity=127, time=1),
    Message('note_on', channel=3, note=33, velocity=0, time=119),
    Message('note_on', channel=3, note=33, velocity=127, time=1),
    Message('note_on', channel=3, note=33, velocity=0, time=119),
    Message('note_on', channel=3, note=31, velocity=127, time=1),
    Message('note_on', channel=3, note=31, velocity=0, time=119),
    Message('note_on', channel=3, note=31, velocity=127, time=1),
    Message('note_on', channel=3, note=31, velocity=0, time=119),
    Message('note_on', channel=3, note=26, velocity=127, time=1),
    Message('note_on', channel=3, note=26, velocity=0, time=179),
    Message('note_on', channel=3, note=38, velocity=127, time=1),
    Message('note_on', channel=3, note=38, velocity=0, time=119),
    Message('note_on', channel=3, note=26, velocity=127, time=1),
    Message('note_on', channel=3, note=26, velocity=0, time=119),
    Message('note_on', channel=3, note=38, velocity=127, time=1),
    Message('note_on', channel=3, note=38, velocity=0, time=59),
    Message('note_on', channel=3, note=33, velocity=127, time=1),
    Message('note_on', channel=3, note=33, velocity=0, time=119),
    Message('note_on', channel=3, note=33, velocity=127, time=1),
    Message('note_on', channel=3, note=33, velocity=0, time=119),
    Message('note_on', channel=3, note=31, velocity=127, time=1),
    Message('note_on', channel=3, note=31, velocity=0, time=119),
    Message('note_on', channel=3, note=31, velocity=127, time=1),
    Message('note_on', channel=3, note=31, velocity=0, time=119),
    Message('note_on', channel=3, note=26, velocity=127, time=1),
    Message('note_on', channel=3, note=26, velocity=0, time=179),
    Message('note_on', channel=3, note=38, velocity=127, time=1),
    Message('note_on', channel=3, note=38, velocity=0, time=119),
    Message('note_on', channel=3, note=26, velocity=127, time=1),
    Message('note_on', channel=3, note=26, velocity=0, time=119),
    Message('note_on', channel=3, note=38, velocity=127, time=1),
    Message('note_on', channel=3, note=38, velocity=0, time=59),
    Message('note_on', channel=3, note=33, velocity=127, time=1),
    Message('note_on', channel=3, note=33, velocity=0, time=119),
    Message('note_on', channel=3, note=33, velocity=127, time=1),
    Message('note_on', channel=3, note=33, velocity=0, time=119),
    Message('note_on', channel=3, note=31, velocity=127, time=1),
    Message('note_on', channel=3, note=31, velocity=0, time=119),
    Message('note_on', channel=3, note=31, velocity=127, time=1),
    Message('note_on', channel=3, note=31, velocity=0, time=119),
    Message('note_on', channel=3, note=26, velocity=127, time=1),
    Message('note_on', channel=3, note=26, velocity=0, time=179),
    Message('note_on', channel=3, note=38, velocity=127, time=1),
    Message('note_on', channel=3, note=38, velocity=0, time=119),
    Message('note_on', channel=3, note=26, velocity=127, time=1),
    Message('note_on', channel=3, note=26, velocity=0, time=119),
    Message('note_on', channel=3, note=38, velocity=127, time=1),
    Message('note_on', channel=3, note=38, velocity=0, time=59),
    Message('note_on', channel=3, note=33, velocity=127, time=1),
    Message('note_on', channel=3, note=33, velocity=0, time=119),
    Message('note_on', channel=3, note=33, velocity=127, time=1),
    Message('note_on', channel=3, note=33, velocity=0, time=119),
    Message('note_on', channel=3, note=31, velocity=127, time=1),
    Message('note_on', channel=3, note=31, velocity=0, time=119),
    Message('note_on', channel=3, note=31, velocity=127, time=1),
    Message('note_on', channel=3, note=31, velocity=0, time=119),
    Message('note_on', channel=3, note=26, velocity=127, time=1),
    Message('note_on', channel=3, note=26, velocity=0, time=179),
    Message('note_on', channel=3, note=38, velocity=127, time=1),
    Message('note_on', channel=3, note=38, velocity=0, time=119),
    Message('note_on', channel=3, note=26, velocity=127, time=1),
    Message('note_on', channel=3, note=26, velocity=0, time=119),
    Message('note_on', channel=3, note=38, velocity=127, time=1),
    Message('note_on', channel=3, note=38, velocity=0, time=59),
    Message('note_on', channel=3, note=33, velocity=127, time=1),
    Message('note_on', channel=3, note=33, velocity=0, time=119),
    Message('note_on', channel=3, note=33, velocity=127, time=1),
    Message('note_on', channel=3, note=33, velocity=0, time=119),
    Message('note_on', channel=3, note=31, velocity=127, time=1),
    Message('note_on', channel=3, note=31, velocity=0, time=119),
    Message('note_on', channel=3, note=31, velocity=127, time=1),
    Message('note_on', channel=3, note=31, velocity=0, time=119),
    Message('note_on', channel=3, note=26, velocity=127, time=1),
    Message('note_on', channel=3, note=26, velocity=0, time=179),
    Message('note_on', channel=3, note=38, velocity=127, time=1),
    Message('note_on', channel=3, note=38, velocity=0, time=119),
    Message('note_on', channel=3, note=26, velocity=127, time=1),
    Message('note_on', channel=3, note=26, velocity=0, time=119),
    Message('note_on', channel=3, note=38, velocity=127, time=1),
    Message('note_on', channel=3, note=38, velocity=0, time=59),
    Message('note_on', channel=3, note=33, velocity=127, time=1),
    Message('note_on', channel=3, note=33, velocity=0, time=119),
    Message('note_on', channel=3, note=33, velocity=127, time=1),
    Message('note_on', channel=3, note=33, velocity=0, time=119),
    Message('note_on', channel=3, note=31, velocity=127, time=1),
    Message('note_on', channel=3, note=31, velocity=0, time=119),
    Message('note_on', channel=3, note=31, velocity=127, time=1),
    Message('note_on', channel=3, note=31, velocity=0, time=119),
    Message('note_on', channel=3, note=26, velocity=127, time=1),
    Message('note_on', channel=3, note=26, velocity=0, time=179),
    Message('note_on', channel=3, note=38, velocity=127, time=1),
    Message('note_on', channel=3, note=38, velocity=0, time=119),
    Message('note_on', channel=3, note=26, velocity=127, time=1),
    Message('note_on', channel=3, note=26, velocity=0, time=119),
    Message('note_on', channel=3, note=38, velocity=127, time=1),
    Message('note_on', channel=3, note=38, velocity=0, time=59),
    Message('note_on', channel=3, note=33, velocity=127, time=1),
    Message('note_on', channel=3, note=33, velocity=0, time=119),
    Message('note_on', channel=3, note=33, velocity=127, time=1),
    Message('note_on', channel=3, note=33, velocity=0, time=119),
    Message('note_on', channel=3, note=31, velocity=127, time=1),
    Message('note_on', channel=3, note=31, velocity=0, time=119),
    Message('note_on', channel=3, note=31, velocity=127, time=1),
    Message('note_on', channel=3, note=31, velocity=0, time=119),
    Message('note_on', channel=3, note=26, velocity=127, time=1),
    Message('note_on', channel=3, note=26, velocity=0, time=179),
    Message('note_on', channel=3, note=38, velocity=127, time=1),
    Message('note_on', channel=3, note=38, velocity=0, time=119),
    Message('note_on', channel=3, note=26, velocity=127, time=1),
    Message('note_on', channel=3, note=26, velocity=0, time=119),
    Message('note_on', channel=3, note=38, velocity=127, time=1),
    Message('note_on', channel=3, note=38, velocity=0, time=59),
    Message('note_on', channel=3, note=33, velocity=127, time=1),
    Message('note_on', channel=3, note=33, velocity=0, time=119),
    Message('note_on', channel=3, note=33, velocity=127, time=1),
    Message('note_on', channel=3, note=33, velocity=0, time=119),
    Message('note_on', channel=3, note=31, velocity=127, time=1),
    Message('note_on', channel=3, note=31, velocity=0, time=119),
    Message('note_on', channel=3, note=31, velocity=127, time=1),
    Message('note_on', channel=3, note=31, velocity=0, time=119),
    Message('note_on', channel=3, note=26, velocity=127, time=1),
    Message('note_on', channel=3, note=26, velocity=0, time=179),
    Message('note_on', channel=3, note=38, velocity=127, time=1),
    Message('note_on', channel=3, note=38, velocity=0, time=119),
    Message('note_on', channel=3, note=26, velocity=127, time=1),
    Message('note_on', channel=3, note=26, velocity=0, time=119),
    Message('note_on', channel=3, note=38, velocity=127, time=1),
    Message('note_on', channel=3, note=38, velocity=0, time=59),
    Message('note_on', channel=3, note=33, velocity=127, time=1),
    Message('note_on', channel=3, note=33, velocity=0, time=119),
    Message('note_on', channel=3, note=33, velocity=127, time=1),
    Message('note_on', channel=3, note=33, velocity=0, time=119),
    Message('note_on', channel=3, note=31, velocity=127, time=1),
    Message('note_on', channel=3, note=31, velocity=0, time=119),
    Message('note_on', channel=3, note=31, velocity=127, time=1),
    Message('note_on', channel=3, note=31, velocity=0, time=119),
    Message('note_on', channel=3, note=26, velocity=127, time=1),
    Message('note_on', channel=3, note=26, velocity=0, time=179),
    Message('note_on', channel=3, note=38, velocity=127, time=1),
    Message('note_on', channel=3, note=38, velocity=0, time=119),
    Message('note_on', channel=3, note=26, velocity=127, time=1),
    Message('note_on', channel=3, note=26, velocity=0, time=119),
    Message('note_on', channel=3, note=38, velocity=127, time=1),
    Message('note_on', channel=3, note=38, velocity=0, time=59),
    Message('note_on', channel=3, note=33, velocity=127, time=1),
    Message('note_on', channel=3, note=33, velocity=0, time=119),
    Message('note_on', channel=3, note=33, velocity=127, time=1),
    Message('note_on', channel=3, note=33, velocity=0, time=119),
    Message('note_on', channel=3, note=31, velocity=127, time=1),
    Message('note_on', channel=3, note=31, velocity=0, time=119),
    Message('note_on', channel=3, note=31, velocity=127, time=1),
    Message('note_on', channel=3, note=31, velocity=0, time=119),
    Message('note_on', channel=3, note=26, velocity=127, time=1),
    Message('note_on', channel=3, note=26, velocity=0, time=179),
    Message('note_on', channel=3, note=38, velocity=127, time=1),
    Message('note_on', channel=3, note=38, velocity=0, time=119),
    Message('note_on', channel=3, note=26, velocity=127, time=1),
    Message('note_on', channel=3, note=26, velocity=0, time=119),
    Message('note_on', channel=3, note=38, velocity=127, time=1),
    Message('note_on', channel=3, note=38, velocity=0, time=59),
    Message('note_on', channel=3, note=33, velocity=127, time=1),
    Message('note_on', channel=3, note=33, velocity=0, time=119),
    Message('note_on', channel=3, note=33, velocity=127, time=1),
    Message('note_on', channel=3, note=33, velocity=0, time=119),
    Message('note_on', channel=3, note=31, velocity=127, time=1),
    Message('note_on', channel=3, note=31, velocity=0, time=119),
    Message('note_on', channel=3, note=31, velocity=127, time=1),
    Message('note_on', channel=3, note=31, velocity=0, time=119),
    Message('note_on', channel=3, note=26, velocity=127, time=1),
    Message('note_on', channel=3, note=26, velocity=0, time=179),
    Message('note_on', channel=3, note=38, velocity=127, time=1),
    Message('note_on', channel=3, note=38, velocity=0, time=119),
    Message('note_on', channel=3, note=26, velocity=127, time=1),
    Message('note_on', channel=3, note=26, velocity=0, time=119),
    Message('note_on', channel=3, note=38, velocity=127, time=1),
    Message('note_on', channel=3, note=38, velocity=0, time=59),
    Message('note_on', channel=3, note=33, velocity=127, time=1),
    Message('note_on', channel=3, note=33, velocity=0, time=119),
    Message('note_on', channel=3, note=33, velocity=127, time=1),
    Message('note_on', channel=3, note=33, velocity=0, time=119),
    Message('note_on', channel=3, note=31, velocity=127, time=1),
    Message('note_on', channel=3, note=31, velocity=0, time=119),
    Message('note_on', channel=3, note=31, velocity=127, time=1),
    Message('note_on', channel=3, note=31, velocity=0, time=119),
    Message('note_on', channel=3, note=26, velocity=127, time=1),
    Message('note_on', channel=3, note=26, velocity=0, time=179),
    Message('note_on', channel=3, note=38, velocity=127, time=1),
    Message('note_on', channel=3, note=38, velocity=0, time=119),
    Message('note_on', channel=3, note=26, velocity=127, time=1),
    Message('note_on', channel=3, note=26, velocity=0, time=119),
    Message('note_on', channel=3, note=38, velocity=127, time=1),
    Message('note_on', channel=3, note=38, velocity=0, time=59),
    Message('note_on', channel=3, note=33, velocity=127, time=1),
    Message('note_on', channel=3, note=33, velocity=0, time=119),
    Message('note_on', channel=3, note=33, velocity=127, time=1),
    Message('note_on', channel=3, note=33, velocity=0, time=119),
    Message('note_on', channel=3, note=31, velocity=127, time=1),
    Message('note_on', channel=3, note=31, velocity=0, time=119),
    Message('note_on', channel=3, note=31, velocity=127, time=1),
    Message('note_on', channel=3, note=31, velocity=0, time=119),
    Message('note_on', channel=3, note=26, velocity=127, time=1),
    Message('note_on', channel=3, note=26, velocity=0, time=179),
    Message('note_on', channel=3, note=38, velocity=127, time=1),
    Message('note_on', channel=3, note=38, velocity=0, time=119),
    Message('note_on', channel=3, note=26, velocity=127, time=1),
    Message('note_on', channel=3, note=26, velocity=0, time=119),
    Message('note_on', channel=3, note=38, velocity=127, time=1),
    Message('note_on', channel=3, note=38, velocity=0, time=59),
    Message('note_on', channel=3, note=33, velocity=127, time=1),
    Message('note_on', channel=3, note=33, velocity=0, time=119),
    Message('note_on', channel=3, note=33, velocity=127, time=1),
    Message('note_on', channel=3, note=33, velocity=0, time=119),
    Message('note_on', channel=3, note=31, velocity=127, time=1),
    Message('note_on', channel=3, note=31, velocity=0, time=119),
    Message('note_on', channel=3, note=31, velocity=127, time=1),
    Message('note_on', channel=3, note=31, velocity=0, time=119),
    Message('note_on', channel=3, note=26, velocity=127, time=1),
    Message('note_on', channel=3, note=26, velocity=0, time=179),
    Message('note_on', channel=3, note=38, velocity=127, time=1),
    Message('note_on', channel=3, note=38, velocity=0, time=119),
    Message('note_on', channel=3, note=26, velocity=127, time=1),
    Message('note_on', channel=3, note=26, velocity=0, time=119),
    Message('note_on', channel=3, note=38, velocity=127, time=1),
    Message('note_on', channel=3, note=38, velocity=0, time=59),
    Message('note_on', channel=3, note=33, velocity=127, time=1),
    Message('note_on', channel=3, note=33, velocity=0, time=119),
    Message('note_on', channel=3, note=33, velocity=127, time=1),
    Message('note_on', channel=3, note=33, velocity=0, time=119),
    Message('note_on', channel=3, note=31, velocity=127, time=1),
    Message('note_on', channel=3, note=31, velocity=0, time=119),
    Message('note_on', channel=3, note=31, velocity=127, time=1),
    Message('note_on', channel=3, note=31, velocity=0, time=119),
    Message('note_on', channel=3, note=26, velocity=127, time=1),
    Message('note_on', channel=3, note=26, velocity=0, time=179),
    Message('note_on', channel=3, note=38, velocity=127, time=1),
    Message('note_on', channel=3, note=38, velocity=0, time=119),
    Message('note_on', channel=3, note=26, velocity=127, time=1),
    Message('note_on', channel=3, note=26, velocity=0, time=119),
    Message('note_on', channel=3, note=38, velocity=127, time=1),
    Message('note_on', channel=3, note=38, velocity=0, time=59),
    Message('note_on', channel=3, note=33, velocity=127, time=1),
    Message('note_on', channel=3, note=33, velocity=0, time=119),
    Message('note_on', channel=3, note=33, velocity=127, time=1),
    Message('note_on', channel=3, note=33, velocity=0, time=119),
    Message('note_on', channel=3, note=31, velocity=127, time=1),
    Message('note_on', channel=3, note=31, velocity=0, time=119),
    Message('note_on', channel=3, note=31, velocity=127, time=1),
    Message('note_on', channel=3, note=31, velocity=0, time=119),
    Message('note_on', channel=3, note=26, velocity=127, time=1),
    Message('note_on', channel=3, note=26, velocity=0, time=179),
    Message('note_on', channel=3, note=38, velocity=127, time=1),
    Message('note_on', channel=3, note=38, velocity=0, time=119),
    Message('note_on', channel=3, note=26, velocity=127, time=1),
    Message('note_on', channel=3, note=26, velocity=0, time=119),
    Message('note_on', channel=3, note=38, velocity=127, time=1),
    Message('note_on', channel=3, note=38, velocity=0, time=59),
    Message('note_on', channel=3, note=33, velocity=127, time=1),
    Message('note_on', channel=3, note=33, velocity=0, time=119),
    Message('note_on', channel=3, note=33, velocity=127, time=1),
    Message('note_on', channel=3, note=33, velocity=0, time=119),
    Message('note_on', channel=3, note=31, velocity=127, time=1),
    Message('note_on', channel=3, note=31, velocity=0, time=119),
    Message('note_on', channel=3, note=31, velocity=127, time=1),
    Message('note_on', channel=3, note=31, velocity=0, time=119),
    Message('note_on', channel=3, note=26, velocity=127, time=1),
    Message('note_on', channel=3, note=26, velocity=0, time=119),
    Message('note_on', channel=3, note=30, velocity=127, time=1),
    Message('note_on', channel=3, note=30, velocity=0, time=119),
    Message('note_on', channel=3, note=33, velocity=127, time=1),
    Message('note_on', channel=3, note=33, velocity=0, time=119),
    Message('note_on', channel=3, note=38, velocity=127, time=1),
    Message('note_on', channel=3, note=38, velocity=0, time=359),
    MetaMessage('end_of_track', time=0)]),
  MidiTrack([
    MetaMessage('midi_port', port=0, time=0),
    MetaMessage('track_name', name='Email: marsh@mail.netconnect.com.au', time=0),
    Message('program_change', channel=4, program=25, time=0),
    Message('control_change', channel=4, control=7, value=110, time=0),
    Message('note_on', channel=4, note=64, velocity=127, time=22560),
    Message('note_on', channel=4, note=59, velocity=127, time=0),
    Message('note_on', channel=4, note=50, velocity=127, time=0),
    Message('note_on', channel=4, note=44, velocity=127, time=0),
    Message('control_change', channel=4, control=7, value=0, time=0),
    Message('control_change', channel=4, control=7, value=0, time=3),
    Message('control_change', channel=4, control=7, value=1, time=2),
    Message('control_change', channel=4, control=7, value=2, time=2),
    Message('control_change', channel=4, control=7, value=3, time=3),
    Message('control_change', channel=4, control=7, value=4, time=2),
    Message('control_change', channel=4, control=7, value=5, time=1),
    Message('control_change', channel=4, control=7, value=6, time=2),
    Message('control_change', channel=4, control=7, value=7, time=3),
    Message('control_change', channel=4, control=7, value=8, time=2),
    Message('control_change', channel=4, control=7, value=9, time=2),
    Message('control_change', channel=4, control=7, value=10, time=3),
    Message('control_change', channel=4, control=7, value=11, time=2),
    Message('control_change', channel=4, control=7, value=12, time=1),
    Message('control_change', channel=4, control=7, value=13, time=2),
    Message('control_change', channel=4, control=7, value=14, time=3),
    Message('control_change', channel=4, control=7, value=15, time=2),
    Message('control_change', channel=4, control=7, value=16, time=2),
    Message('control_change', channel=4, control=7, value=17, time=1),
    Message('control_change', channel=4, control=7, value=18, time=4),
    Message('control_change', channel=4, control=7, value=19, time=1),
    Message('control_change', channel=4, control=7, value=20, time=2),
    Message('control_change', channel=4, control=7, value=21, time=3),
    Message('control_change', channel=4, control=7, value=22, time=2),
    Message('control_change', channel=4, control=7, value=23, time=2),
    Message('control_change', channel=4, control=7, value=24, time=1),
    Message('control_change', channel=4, control=7, value=25, time=4),
    Message('control_change', channel=4, control=7, value=26, time=1),
    Message('note_on', channel=4, note=44, velocity=0, time=1),
    Message('note_on', channel=4, note=64, velocity=0, time=0),
    Message('note_on', channel=4, note=59, velocity=0, time=0),
    Message('note_on', channel=4, note=50, velocity=0, time=0),
    Message('note_on', channel=4, note=44, velocity=127, time=1),
    Message('note_on', channel=4, note=50, velocity=127, time=0),
    Message('note_on', channel=4, note=59, velocity=127, time=0),
    Message('note_on', channel=4, note=64, velocity=127, time=0),
    Message('control_change', channel=4, control=7, value=27, time=0),
    Message('control_change', channel=4, control=7, value=28, time=2),
    Message('control_change', channel=4, control=7, value=29, time=3),
    Message('control_change', channel=4, control=7, value=30, time=2),
    Message('control_change', channel=4, control=7, value=31, time=1),
    Message('control_change', channel=4, control=7, value=32, time=4),
    Message('control_change', channel=4, control=7, value=33, time=1),
    Message('control_change', channel=4, control=7, value=34, time=2),
    Message('control_change', channel=4, control=7, value=35, time=2),
    Message('control_change', channel=4, control=7, value=36, time=3),
    Message('control_change', channel=4, control=7, value=37, time=2),
    Message('control_change', channel=4, control=7, value=38, time=1),
    Message('control_change', channel=4, control=7, value=39, time=2),
    Message('control_change', channel=4, control=7, value=40, time=3),
    Message('control_change', channel=4, control=7, value=41, time=2),
    Message('control_change', channel=4, control=7, value=42, time=2),
    Message('control_change', channel=4, control=7, value=43, time=3),
    Message('control_change', channel=4, control=7, value=44, time=2),
    Message('control_change', channel=4, control=7, value=45, time=1),
    Message('control_change', channel=4, control=7, value=46, time=2),
    Message('control_change', channel=4, control=7, value=47, time=3),
    Message('control_change', channel=4, control=7, value=48, time=2),
    Message('control_change', channel=4, control=7, value=49, time=2),
    Message('control_change', channel=4, control=7, value=50, time=1),
    Message('control_change', channel=4, control=7, value=51, time=4),
    Message('control_change', channel=4, control=7, value=52, time=1),
    Message('control_change', channel=4, control=7, value=53, time=2),
    Message('control_change', channel=4, control=7, value=54, time=3),
    Message('note_on', channel=4, note=64, velocity=0, time=1),
    Message('note_on', channel=4, note=44, velocity=0, time=0),
    Message('note_on', channel=4, note=50, velocity=0, time=0),
    Message('note_on', channel=4, note=59, velocity=0, time=0),
    Message('note_on', channel=4, note=64, velocity=127, time=1),
    Message('note_on', channel=4, note=59, velocity=127, time=0),
    Message('note_on', channel=4, note=50, velocity=127, time=0),
    Message('note_on', channel=4, note=44, velocity=127, time=0),
    Message('control_change', channel=4, control=7, value=55, time=0),
    Message('control_change', channel=4, control=7, value=56, time=2),
    Message('control_change', channel=4, control=7, value=57, time=1),
    Message('control_change', channel=4, control=7, value=58, time=4),
    Message('control_change', channel=4, control=7, value=59, time=1),
    Message('control_change', channel=4, control=7, value=60, time=2),
    Message('control_change', channel=4, control=7, value=61, time=2),
    Message('control_change', channel=4, control=7, value=62, time=3),
    Message('control_change', channel=4, control=7, value=63, time=2),
    Message('control_change', channel=4, control=7, value=64, time=1),
    Message('control_change', channel=4, control=7, value=65, time=4),
    Message('control_change', channel=4, control=7, value=66, time=1),
    Message('control_change', channel=4, control=7, value=67, time=2),
    Message('control_change', channel=4, control=7, value=68, time=2),
    Message('control_change', channel=4, control=7, value=69, time=3),
    Message('control_change', channel=4, control=7, value=70, time=2),
    Message('control_change', channel=4, control=7, value=71, time=1),
    Message('control_change', channel=4, control=7, value=72, time=2),
    Message('control_change', channel=4, control=7, value=73, time=3),
    Message('control_change', channel=4, control=7, value=74, time=2),
    Message('control_change', channel=4, control=7, value=75, time=2),
    Message('control_change', channel=4, control=7, value=76, time=3),
    Message('control_change', channel=4, control=7, value=77, time=2),
    Message('control_change', channel=4, control=7, value=78, time=1),
    Message('control_change', channel=4, control=7, value=79, time=2),
    Message('control_change', channel=4, control=7, value=80, time=3),
    Message('control_change', channel=4, control=7, value=81, time=2),
    Message('control_change', channel=4, control=7, value=82, time=2),
    Message('control_change', channel=4, control=7, value=83, time=1),
    Message('note_on', channel=4, note=44, velocity=0, time=1),
    Message('note_on', channel=4, note=64, velocity=0, time=0),
    Message('note_on', channel=4, note=59, velocity=0, time=0),
    Message('note_on', channel=4, note=50, velocity=0, time=0),
    Message('note_on', channel=4, note=64, velocity=127, time=1),
    Message('note_on', channel=4, note=59, velocity=127, time=0),
    Message('note_on', channel=4, note=50, velocity=127, time=0),
    Message('note_on', channel=4, note=44, velocity=127, time=0),
    Message('control_change', channel=4, control=7, value=84, time=2),
    Message('control_change', channel=4, control=7, value=85, time=1),
    Message('control_change', channel=4, control=7, value=86, time=2),
    Message('control_change', channel=4, control=7, value=87, time=3),
    Message('control_change', channel=4, control=7, value=88, time=2),
    Message('control_change', channel=4, control=7, value=89, time=2),
    Message('control_change', channel=4, control=7, value=90, time=1),
    Message('control_change', channel=4, control=7, value=91, time=4),
    Message('control_change', channel=4, control=7, value=92, time=1),
    Message('control_change', channel=4, control=7, value=93, time=2),
    Message('control_change', channel=4, control=7, value=94, time=2),
    Message('control_change', channel=4, control=7, value=95, time=3),
    Message('control_change', channel=4, control=7, value=96, time=2),
    Message('control_change', channel=4, control=7, value=97, time=1),
    Message('control_change', channel=4, control=7, value=98, time=4),
    Message('control_change', channel=4, control=7, value=99, time=1),
    Message('control_change', channel=4, control=7, value=100, time=2),
    Message('control_change', channel=4, control=7, value=101, time=2),
    Message('control_change', channel=4, control=7, value=102, time=3),
    Message('control_change', channel=4, control=7, value=103, time=2),
    Message('control_change', channel=4, control=7, value=104, time=1),
    Message('control_change', channel=4, control=7, value=105, time=2),
    Message('control_change', channel=4, control=7, value=106, time=3),
    Message('control_change', channel=4, control=7, value=107, time=2),
    Message('control_change', channel=4, control=7, value=108, time=2),
    Message('control_change', channel=4, control=7, value=109, time=3),
    Message('control_change', channel=4, control=7, value=110, time=2),
    Message('control_change', channel=4, control=7, value=111, time=1),
    Message('note_on', channel=4, note=44, velocity=0, time=1),
    Message('note_on', channel=4, note=64, velocity=0, time=0),
    Message('note_on', channel=4, note=59, velocity=0, time=0),
    Message('note_on', channel=4, note=50, velocity=0, time=0),
    Message('note_on', channel=4, note=64, velocity=127, time=1),
    Message('note_on', channel=4, note=59, velocity=127, time=0),
    Message('note_on', channel=4, note=50, velocity=127, time=0),
    Message('note_on', channel=4, note=44, velocity=127, time=0),
    Message('control_change', channel=4, control=7, value=112, time=0),
    Message('control_change', channel=4, control=7, value=113, time=3),
    Message('control_change', channel=4, control=7, value=114, time=2),
    Message('control_change', channel=4, control=7, value=115, time=2),
    Message('control_change', channel=4, control=7, value=116, time=1),
    Message('control_change', channel=4, control=7, value=117, time=4),
    Message('control_change', channel=4, control=7, value=118, time=1),
    Message('control_change', channel=4, control=7, value=119, time=2),
    Message('control_change', channel=4, control=7, value=120, time=3),
    Message('control_change', channel=4, control=7, value=121, time=2),
    Message('control_change', channel=4, control=7, value=122, time=2),
    Message('control_change', channel=4, control=7, value=123, time=1),
    Message('control_change', channel=4, control=7, value=124, time=4),
    Message('control_change', channel=4, control=7, value=125, time=1),
    Message('control_change', channel=4, control=7, value=126, time=2),
    Message('control_change', channel=4, control=7, value=127, time=2),
    Message('note_on', channel=4, note=44, velocity=0, time=27),
    Message('note_on', channel=4, note=64, velocity=0, time=0),
    Message('note_on', channel=4, note=59, velocity=0, time=0),
    Message('note_on', channel=4, note=50, velocity=0, time=0),
    Message('note_on', channel=4, note=64, velocity=127, time=1),
    Message('note_on', channel=4, note=59, velocity=127, time=0),
    Message('note_on', channel=4, note=50, velocity=127, time=0),
    Message('note_on', channel=4, note=44, velocity=127, time=0),
    Message('note_on', channel=4, note=44, velocity=0, time=59),
    Message('note_on', channel=4, note=64, velocity=0, time=0),
    Message('note_on', channel=4, note=59, velocity=0, time=0),
    Message('note_on', channel=4, note=50, velocity=0, time=0),
    Message('note_on', channel=4, note=64, velocity=127, time=1),
    Message('note_on', channel=4, note=59, velocity=127, time=0),
    Message('note_on', channel=4, note=50, velocity=127, time=0),
    Message('note_on', channel=4, note=44, velocity=127, time=0),
    Message('note_on', channel=4, note=44, velocity=0, time=59),
    Message('note_on', channel=4, note=64, velocity=0, time=0),
    Message('note_on', channel=4, note=59, velocity=0, time=0),
    Message('note_on', channel=4, note=50, velocity=0, time=0),
    Message('note_on', channel=4, note=64, velocity=127, time=1),
    Message('note_on', channel=4, note=59, velocity=127, time=0),
    Message('note_on', channel=4, note=50, velocity=127, time=0),
    Message('note_on', channel=4, note=44, velocity=127, time=0),
    Message('note_on', channel=4, note=44, velocity=0, time=59),
    Message('note_on', channel=4, note=64, velocity=0, time=0),
    Message('note_on', channel=4, note=59, velocity=0, time=0),
    Message('note_on', channel=4, note=50, velocity=0, time=0),
    Message('note_on', channel=4, note=62, velocity=127, time=1),
    Message('note_on', channel=4, note=57, velocity=127, time=0),
    Message('note_on', channel=4, note=42, velocity=127, time=0),
    Message('note_on', channel=4, note=50, velocity=127, time=0),
    Message('note_on', channel=4, note=50, velocity=0, time=179),
    Message('note_on', channel=4, note=62, velocity=0, time=0),
    Message('note_on', channel=4, note=57, velocity=0, time=0),
    Message('note_on', channel=4, note=42, velocity=0, time=0),
    Message('note_on', channel=4, note=62, velocity=127, time=1),
    Message('note_on', channel=4, note=42, velocity=127, time=0),
    Message('note_on', channel=4, note=50, velocity=127, time=0),
    Message('note_on', channel=4, note=57, velocity=127, time=0),
    Message('note_on', channel=4, note=57, velocity=0, time=119),
    Message('note_on', channel=4, note=62, velocity=0, time=0),
    Message('note_on', channel=4, note=42, velocity=0, time=0),
    Message('note_on', channel=4, note=50, velocity=0, time=0),
    Message('note_on', channel=4, note=57, velocity=127, time=1),
    Message('note_on', channel=4, note=62, velocity=127, time=0),
    Message('note_on', channel=4, note=50, velocity=127, time=0),
    Message('note_on', channel=4, note=42, velocity=127, time=0),
    Message('note_on', channel=4, note=42, velocity=0, time=59),
    Message('note_on', channel=4, note=57, velocity=0, time=0),
    Message('note_on', channel=4, note=62, velocity=0, time=0),
    Message('note_on', channel=4, note=50, velocity=0, time=0),
    Message('note_on', channel=4, note=62, velocity=127, time=1),
    Message('note_on', channel=4, note=57, velocity=127, time=0),
    Message('note_on', channel=4, note=50, velocity=127, time=0),
    Message('note_on', channel=4, note=42, velocity=127, time=0),
    Message('note_on', channel=4, note=42, velocity=0, time=119),
    Message('note_on', channel=4, note=62, velocity=0, time=0),
    Message('note_on', channel=4, note=57, velocity=0, time=0),
    Message('note_on', channel=4, note=50, velocity=0, time=0),
    Message('note_on', channel=4, note=62, velocity=127, time=1),
    Message('note_on', channel=4, note=57, velocity=127, time=0),
    Message('note_on', channel=4, note=42, velocity=127, time=0),
    Message('note_on', channel=4, note=50, velocity=127, time=0),
    Message('note_on', channel=4, note=50, velocity=0, time=179),
    Message('note_on', channel=4, note=62, velocity=0, time=0),
    Message('note_on', channel=4, note=57, velocity=0, time=0),
    Message('note_on', channel=4, note=42, velocity=0, time=0),
    Message('note_on', channel=4, note=42, velocity=127, time=1),
    Message('note_on', channel=4, note=50, velocity=127, time=0),
    Message('note_on', channel=4, note=57, velocity=127, time=0),
    Message('note_on', channel=4, note=62, velocity=127, time=0),
    Message('note_on', channel=4, note=62, velocity=0, time=119),
    Message('note_on', channel=4, note=42, velocity=0, time=0),
    Message('note_on', channel=4, note=50, velocity=0, time=0),
    Message('note_on', channel=4, note=57, velocity=0, time=0),
    Message('note_on', channel=4, note=62, velocity=127, time=1),
    Message('note_on', channel=4, note=57, velocity=127, time=0),
    Message('note_on', channel=4, note=50, velocity=127, time=0),
    Message('note_on', channel=4, note=42, velocity=127, time=0),
    Message('note_on', channel=4, note=42, velocity=0, time=59),
    Message('note_on', channel=4, note=62, velocity=0, time=0),
    Message('note_on', channel=4, note=57, velocity=0, time=0),
    Message('note_on', channel=4, note=50, velocity=0, time=0),
    Message('note_on', channel=4, note=62, velocity=127, time=1),
    Message('note_on', channel=4, note=57, velocity=127, time=0),
    Message('note_on', channel=4, note=50, velocity=127, time=0),
    Message('note_on', channel=4, note=42, velocity=127, time=0),
    Message('note_on', channel=4, note=42, velocity=0, time=119),
    Message('note_on', channel=4, note=62, velocity=0, time=0),
    Message('note_on', channel=4, note=57, velocity=0, time=0),
    Message('note_on', channel=4, note=50, velocity=0, time=0),
    Message('note_on', channel=4, note=44, velocity=127, time=1),
    Message('note_on', channel=4, note=64, velocity=127, time=0),
    Message('note_on', channel=4, note=59, velocity=127, time=0),
    Message('note_on', channel=4, note=50, velocity=127, time=0),
    Message('note_on', channel=4, note=50, velocity=0, time=179),
    Message('note_on', channel=4, note=44, velocity=0, time=0),
    Message('note_on', channel=4, note=64, velocity=0, time=0),
    Message('note_on', channel=4, note=59, velocity=0, time=0),
    Message('note_on', channel=4, note=64, velocity=127, time=1),
    Message('note_on', channel=4, note=44, velocity=127, time=0),
    Message('note_on', channel=4, note=50, velocity=127, time=0),
    Message('note_on', channel=4, note=59, velocity=127, time=0),
    Message('note_on', channel=4, note=59, velocity=0, time=119),
    Message('note_on', channel=4, note=64, velocity=0, time=0),
    Message('note_on', channel=4, note=44, velocity=0, time=0),
    Message('note_on', channel=4, note=50, velocity=0, time=0),
    Message('note_on', channel=4, note=44, velocity=127, time=1),
    Message('note_on', channel=4, note=50, velocity=127, time=0),
    Message('note_on', channel=4, note=59, velocity=127, time=0),
    Message('note_on', channel=4, note=64, velocity=127, time=0),
    Message('note_on', channel=4, note=64, velocity=0, time=59),
    Message('note_on', channel=4, note=44, velocity=0, time=0),
    Message('note_on', channel=4, note=50, velocity=0, time=0),
    Message('note_on', channel=4, note=59, velocity=0, time=0),
    Message('note_on', channel=4, note=64, velocity=127, time=1),
    Message('note_on', channel=4, note=59, velocity=127, time=0),
    Message('note_on', channel=4, note=50, velocity=127, time=0),
    Message('note_on', channel=4, note=44, velocity=127, time=0),
    Message('note_on', channel=4, note=44, velocity=0, time=119),
    Message('note_on', channel=4, note=64, velocity=0, time=0),
    Message('note_on', channel=4, note=59, velocity=0, time=0),
    Message('note_on', channel=4, note=50, velocity=0, time=0),
    Message('note_on', channel=4, note=64, velocity=127, time=1),
    Message('note_on', channel=4, note=59, velocity=127, time=0),
    Message('note_on', channel=4, note=50, velocity=127, time=0),
    Message('note_on', channel=4, note=44, velocity=127, time=0),
    Message('note_on', channel=4, note=44, velocity=0, time=179),
    Message('note_on', channel=4, note=64, velocity=0, time=0),
    Message('note_on', channel=4, note=59, velocity=0, time=0),
    Message('note_on', channel=4, note=50, velocity=0, time=0),
    Message('note_on', channel=4, note=44, velocity=127, time=1),
    Message('note_on', channel=4, note=50, velocity=127, time=0),
    Message('note_on', channel=4, note=59, velocity=127, time=0),
    Message('note_on', channel=4, note=64, velocity=127, time=0),
    Message('note_on', channel=4, note=64, velocity=0, time=119),
    Message('note_on', channel=4, note=44, velocity=0, time=0),
    Message('note_on', channel=4, note=50, velocity=0, time=0),
    Message('note_on', channel=4, note=59, velocity=0, time=0),
    Message('note_on', channel=4, note=59, velocity=127, time=1),
    Message('note_on', channel=4, note=64, velocity=127, time=0),
    Message('note_on', channel=4, note=50, velocity=127, time=0),
    Message('note_on', channel=4, note=44, velocity=127, time=0),
    Message('note_on', channel=4, note=44, velocity=0, time=59),
    Message('note_on', channel=4, note=59, velocity=0, time=0),
    Message('note_on', channel=4, note=64, velocity=0, time=0),
    Message('note_on', channel=4, note=50, velocity=0, time=0),
    Message('note_on', channel=4, note=44, velocity=127, time=1),
    Message('note_on', channel=4, note=50, velocity=127, time=0),
    Message('note_on', channel=4, note=59, velocity=127, time=0),
    Message('note_on', channel=4, note=64, velocity=127, time=0),
    Message('note_on', channel=4, note=64, velocity=0, time=119),
    Message('note_on', channel=4, note=44, velocity=0, time=0),
    Message('note_on', channel=4, note=50, velocity=0, time=0),
    Message('note_on', channel=4, note=59, velocity=0, time=0),
    Message('note_on', channel=4, note=65, velocity=127, time=1),
    Message('note_on', channel=4, note=60, velocity=127, time=0),
    Message('note_on', channel=4, note=50, velocity=127, time=0),
    Message('note_on', channel=4, note=45, velocity=127, time=0),
    Message('note_on', channel=4, note=45, velocity=0, time=179),
    Message('note_on', channel=4, note=65, velocity=0, time=0),
    Message('note_on', channel=4, note=60, velocity=0, time=0),
    Message('note_on', channel=4, note=50, velocity=0, time=0),
    Message('note_on', channel=4, note=65, velocity=127, time=1),
    Message('note_on', channel=4, note=60, velocity=127, time=0),
    Message('note_on', channel=4, note=50, velocity=127, time=0),
    Message('note_on', channel=4, note=45, velocity=127, time=0),
    Message('note_on', channel=4, note=45, velocity=0, time=119),
    Message('note_on', channel=4, note=65, velocity=0, time=0),
    Message('note_on', channel=4, note=60, velocity=0, time=0),
    Message('note_on', channel=4, note=50, velocity=0, time=0),
    Message('note_on', channel=4, note=45, velocity=127, time=1),
    Message('note_on', channel=4, note=50, velocity=127, time=0),
    Message('note_on', channel=4, note=60, velocity=127, time=0),
    Message('note_on', channel=4, note=65, velocity=127, time=0),
    Message('note_on', channel=4, note=65, velocity=0, time=59),
    Message('note_on', channel=4, note=45, velocity=0, time=0),
    Message('note_on', channel=4, note=50, velocity=0, time=0),
    Message('note_on', channel=4, note=60, velocity=0, time=0),
    Message('note_on', channel=4, note=65, velocity=127, time=1),
    Message('note_on', channel=4, note=60, velocity=127, time=0),
    Message('note_on', channel=4, note=50, velocity=127, time=0),
    Message('note_on', channel=4, note=45, velocity=127, time=0),
    Message('note_on', channel=4, note=45, velocity=0, time=59),
    Message('note_on', channel=4, note=65, velocity=0, time=0),
    Message('note_on', channel=4, note=60, velocity=0, time=0),
    Message('note_on', channel=4, note=50, velocity=0, time=0),
    Message('note_on', channel=4, note=45, velocity=127, time=1),
    Message('note_on', channel=4, note=50, velocity=127, time=0),
    Message('note_on', channel=4, note=65, velocity=127, time=0),
    Message('note_on', channel=4, note=60, velocity=127, time=0),
    Message('note_on', channel=4, note=60, velocity=0, time=59),
    Message('note_on', channel=4, note=45, velocity=0, time=0),
    Message('note_on', channel=4, note=50, velocity=0, time=0),
    Message('note_on', channel=4, note=65, velocity=0, time=0),
    Message('note_on', channel=4, note=47, velocity=127, time=1),
    Message('note_on', channel=4, note=62, velocity=127, time=0),
    Message('note_on', channel=4, note=67, velocity=127, time=0),
    Message('note_on', channel=4, note=50, velocity=127, time=0),
    Message('note_on', channel=4, note=50, velocity=0, time=59),
    Message('note_on', channel=4, note=47, velocity=0, time=0),
    Message('note_on', channel=4, note=62, velocity=0, time=0),
    Message('note_on', channel=4, note=67, velocity=0, time=0),
    Message('note_on', channel=4, note=47, velocity=127, time=1),
    Message('note_on', channel=4, note=50, velocity=127, time=0),
    Message('note_on', channel=4, note=62, velocity=127, time=0),
    Message('note_on', channel=4, note=67, velocity=127, time=0),
    Message('note_on', channel=4, note=67, velocity=0, time=59),
    Message('note_on', channel=4, note=47, velocity=0, time=0),
    Message('note_on', channel=4, note=50, velocity=0, time=0),
    Message('note_on', channel=4, note=62, velocity=0, time=0),
    Message('note_on', channel=4, note=67, velocity=127, time=1),
    Message('note_on', channel=4, note=62, velocity=127, time=0),
    Message('note_on', channel=4, note=50, velocity=127, time=0),
    Message('note_on', channel=4, note=47, velocity=127, time=0),
    Message('note_on', channel=4, note=47, velocity=0, time=59),
    Message('note_on', channel=4, note=67, velocity=0, time=0),
    Message('note_on', channel=4, note=62, velocity=0, time=0),
    Message('note_on', channel=4, note=50, velocity=0, time=0),
    Message('note_on', channel=4, note=47, velocity=127, time=1),
    Message('note_on', channel=4, note=50, velocity=127, time=0),
    Message('note_on', channel=4, note=62, velocity=127, time=0),
    Message('note_on', channel=4, note=67, velocity=127, time=0),
    Message('note_on', channel=4, note=67, velocity=0, time=119),
    Message('note_on', channel=4, note=47, velocity=0, time=0),
    Message('note_on', channel=4, note=50, velocity=0, time=0),
    Message('note_on', channel=4, note=62, velocity=0, time=0),
    Message('note_on', channel=4, note=47, velocity=127, time=1),
    Message('note_on', channel=4, note=50, velocity=127, time=0),
    Message('note_on', channel=4, note=62, velocity=127, time=0),
    Message('note_on', channel=4, note=67, velocity=127, time=0),
    Message('note_on', channel=4, note=67, velocity=0, time=59),
    Message('note_on', channel=4, note=47, velocity=0, time=0),
    Message('note_on', channel=4, note=50, velocity=0, time=0),
    Message('note_on', channel=4, note=62, velocity=0, time=0),
    Message('note_on', channel=4, note=47, velocity=127, time=1),
    Message('note_on', channel=4, note=50, velocity=127, time=0),
    Message('note_on', channel=4, note=62, velocity=127, time=0),
    Message('note_on', channel=4, note=67, velocity=127, time=0),
    Message('note_on', channel=4, note=67, velocity=0, time=59),
    Message('note_on', channel=4, note=47, velocity=0, time=0),
    Message('note_on', channel=4, note=50, velocity=0, time=0),
    Message('note_on', channel=4, note=62, velocity=0, time=0),
    Message('note_on', channel=4, note=47, velocity=127, time=1),
    Message('note_on', channel=4, note=50, velocity=127, time=0),
    Message('note_on', channel=4, note=62, velocity=127, time=0),
    Message('note_on', channel=4, note=67, velocity=127, time=0),
    Message('note_on', channel=4, note=67, velocity=0, time=59),
    Message('note_on', channel=4, note=47, velocity=0, time=0),
    Message('note_on', channel=4, note=50, velocity=0, time=0),
    Message('note_on', channel=4, note=62, velocity=0, time=0),
    Message('note_on', channel=4, note=65, velocity=127, time=1),
    Message('note_on', channel=4, note=60, velocity=127, time=0),
    Message('note_on', channel=4, note=50, velocity=127, time=0),
    Message('note_on', channel=4, note=45, velocity=127, time=0),
    Message('note_on', channel=4, note=45, velocity=0, time=179),
    Message('note_on', channel=4, note=65, velocity=0, time=0),
    Message('note_on', channel=4, note=60, velocity=0, time=0),
    Message('note_on', channel=4, note=50, velocity=0, time=0),
    Message('note_on', channel=4, note=65, velocity=127, time=1),
    Message('note_on', channel=4, note=60, velocity=127, time=0),
    Message('note_on', channel=4, note=50, velocity=127, time=0),
    Message('note_on', channel=4, note=45, velocity=127, time=0),
    Message('note_on', channel=4, note=45, velocity=0, time=119),
    Message('note_on', channel=4, note=65, velocity=0, time=0),
    Message('note_on', channel=4, note=60, velocity=0, time=0),
    Message('note_on', channel=4, note=50, velocity=0, time=0),
    Message('note_on', channel=4, note=45, velocity=127, time=1),
    Message('note_on', channel=4, note=50, velocity=127, time=0),
    Message('note_on', channel=4, note=60, velocity=127, time=0),
    Message('note_on', channel=4, note=65, velocity=127, time=0),
    Message('note_on', channel=4, note=65, velocity=0, time=119),
    Message('note_on', channel=4, note=45, velocity=0, time=0),
    Message('note_on', channel=4, note=50, velocity=0, time=0),
    Message('note_on', channel=4, note=60, velocity=0, time=0),
    Message('note_on', channel=4, note=45, velocity=127, time=1),
    Message('note_on', channel=4, note=50, velocity=127, time=0),
    Message('note_on', channel=4, note=65, velocity=127, time=0),
    Message('note_on', channel=4, note=60, velocity=127, time=0),
    Message('note_on', channel=4, note=60, velocity=0, time=59),
    Message('note_on', channel=4, note=45, velocity=0, time=0),
    Message('note_on', channel=4, note=50, velocity=0, time=0),
    Message('note_on', channel=4, note=65, velocity=0, time=0),
    Message('note_on', channel=4, note=47, velocity=127, time=1),
    Message('note_on', channel=4, note=62, velocity=127, time=0),
    Message('note_on', channel=4, note=67, velocity=127, time=0),
    Message('note_on', channel=4, note=50, velocity=127, time=0),
    Message('note_on', channel=4, note=50, velocity=0, time=179),
    Message('note_on', channel=4, note=47, velocity=0, time=0),
    Message('note_on', channel=4, note=62, velocity=0, time=0),
    Message('note_on', channel=4, note=67, velocity=0, time=0),
    Message('note_on', channel=4, note=47, velocity=127, time=1),
    Message('note_on', channel=4, note=50, velocity=127, time=0),
    Message('note_on', channel=4, note=62, velocity=127, time=0),
    Message('note_on', channel=4, note=67, velocity=127, time=0),
    Message('note_on', channel=4, note=67, velocity=0, time=119),
    Message('note_on', channel=4, note=47, velocity=0, time=0),
    Message('note_on', channel=4, note=50, velocity=0, time=0),
    Message('note_on', channel=4, note=62, velocity=0, time=0),
    Message('note_on', channel=4, note=47, velocity=127, time=1),
    Message('note_on', channel=4, note=50, velocity=127, time=0),
    Message('note_on', channel=4, note=62, velocity=127, time=0),
    Message('note_on', channel=4, note=67, velocity=127, time=0),
    Message('note_on', channel=4, note=67, velocity=0, time=59),
    Message('note_on', channel=4, note=47, velocity=0, time=0),
    Message('note_on', channel=4, note=50, velocity=0, time=0),
    Message('note_on', channel=4, note=62, velocity=0, time=0),
    Message('note_on', channel=4, note=47, velocity=127, time=1),
    Message('note_on', channel=4, note=50, velocity=127, time=0),
    Message('note_on', channel=4, note=62, velocity=127, time=0),
    Message('note_on', channel=4, note=67, velocity=127, time=0),
    Message('note_on', channel=4, note=67, velocity=0, time=59),
    Message('note_on', channel=4, note=47, velocity=0, time=0),
    Message('note_on', channel=4, note=50, velocity=0, time=0),
    Message('note_on', channel=4, note=62, velocity=0, time=0),
    Message('note_on', channel=4, note=47, velocity=127, time=1),
    Message('note_on', channel=4, note=50, velocity=127, time=0),
    Message('note_on', channel=4, note=62, velocity=127, time=0),
    Message('note_on', channel=4, note=67, velocity=127, time=0),
    Message('note_on', channel=4, note=67, velocity=0, time=59),
    Message('note_on', channel=4, note=47, velocity=0, time=0),
    Message('note_on', channel=4, note=50, velocity=0, time=0),
    Message('note_on', channel=4, note=62, velocity=0, time=0),
    Message('note_on', channel=4, note=62, velocity=127, time=1),
    Message('note_on', channel=4, note=50, velocity=127, time=0),
    Message('note_on', channel=4, note=47, velocity=127, time=0),
    Message('note_on', channel=4, note=67, velocity=127, time=0),
    Message('note_on', channel=4, note=67, velocity=0, time=59),
    Message('note_on', channel=4, note=62, velocity=0, time=0),
    Message('note_on', channel=4, note=50, velocity=0, time=0),
    Message('note_on', channel=4, note=47, velocity=0, time=0),
    Message('note_on', channel=4, note=62, velocity=127, time=1),
    Message('note_on', channel=4, note=50, velocity=127, time=0),
    Message('note_on', channel=4, note=47, velocity=127, time=0),
    Message('note_on', channel=4, note=67, velocity=127, time=0),
    Message('note_on', channel=4, note=67, velocity=0, time=59),
    Message('note_on', channel=4, note=62, velocity=0, time=0),
    Message('note_on', channel=4, note=50, velocity=0, time=0),
    Message('note_on', channel=4, note=47, velocity=0, time=0),
    Message('note_on', channel=4, note=62, velocity=127, time=1),
    Message('note_on', channel=4, note=50, velocity=127, time=0),
    Message('note_on', channel=4, note=47, velocity=127, time=0),
    Message('note_on', channel=4, note=67, velocity=127, time=0),
    Message('note_on', channel=4, note=67, velocity=0, time=59),
    Message('note_on', channel=4, note=62, velocity=0, time=0),
    Message('note_on', channel=4, note=50, velocity=0, time=0),
    Message('note_on', channel=4, note=47, velocity=0, time=0),
    Message('note_on', channel=4, note=47, velocity=127, time=1),
    Message('note_on', channel=4, note=50, velocity=127, time=0),
    Message('note_on', channel=4, note=62, velocity=127, time=0),
    Message('note_on', channel=4, note=67, velocity=127, time=0),
    Message('note_on', channel=4, note=67, velocity=0, time=119),
    Message('note_on', channel=4, note=47, velocity=0, time=0),
    Message('note_on', channel=4, note=50, velocity=0, time=0),
    Message('note_on', channel=4, note=62, velocity=0, time=0),
    Message('note_on', channel=4, note=47, velocity=127, time=1),
    Message('note_on', channel=4, note=50, velocity=127, time=0),
    Message('note_on', channel=4, note=62, velocity=127, time=0),
    Message('note_on', channel=4, note=67, velocity=127, time=0),
    Message('note_on', channel=4, note=67, velocity=0, time=59),
    Message('note_on', channel=4, note=47, velocity=0, time=0),
    Message('note_on', channel=4, note=50, velocity=0, time=0),
    Message('note_on', channel=4, note=62, velocity=0, time=0),
    Message('note_on', channel=4, note=47, velocity=127, time=1),
    Message('note_on', channel=4, note=50, velocity=127, time=0),
    Message('note_on', channel=4, note=62, velocity=127, time=0),
    Message('note_on', channel=4, note=67, velocity=127, time=0),
    Message('note_on', channel=4, note=67, velocity=0, time=59),
    Message('note_on', channel=4, note=47, velocity=0, time=0),
    Message('note_on', channel=4, note=50, velocity=0, time=0),
    Message('note_on', channel=4, note=62, velocity=0, time=0),
    Message('note_on', channel=4, note=47, velocity=127, time=1),
    Message('note_on', channel=4, note=50, velocity=127, time=0),
    Message('note_on', channel=4, note=62, velocity=127, time=0),
    Message('note_on', channel=4, note=67, velocity=127, time=0),
    Message('note_on', channel=4, note=67, velocity=0, time=59),
    Message('note_on', channel=4, note=47, velocity=0, time=0),
    Message('note_on', channel=4, note=50, velocity=0, time=0),
    Message('note_on', channel=4, note=62, velocity=0, time=0),
    Message('note_on', channel=4, note=50, velocity=127, time=1),
    Message('note_on', channel=4, note=66, velocity=127, time=0),
    Message('note_on', channel=4, note=62, velocity=127, time=0),
    Message('note_on', channel=4, note=57, velocity=127, time=0),
    Message('note_on', channel=4, note=57, velocity=0, time=179),
    Message('note_on', channel=4, note=50, velocity=0, time=0),
    Message('note_on', channel=4, note=66, velocity=0, time=0),
    Message('note_on', channel=4, note=62, velocity=0, time=0),
    Message('note_on', channel=4, note=50, velocity=127, time=1),
    Message('note_on', channel=4, note=66, velocity=127, time=0),
    Message('note_on', channel=4, note=57, velocity=127, time=0),
    Message('note_on', channel=4, note=62, velocity=127, time=0),
    Message('note_on', channel=4, note=62, velocity=0, time=119),
    Message('note_on', channel=4, note=50, velocity=0, time=0),
    Message('note_on', channel=4, note=66, velocity=0, time=0),
    Message('note_on', channel=4, note=57, velocity=0, time=0),
    Message('note_on', channel=4, note=57, velocity=127, time=1),
    Message('note_on', channel=4, note=62, velocity=127, time=0),
    Message('note_on', channel=4, note=64, velocity=127, time=0),
    Message('note_on', channel=4, note=50, velocity=127, time=0),
    Message('note_on', channel=4, note=45, velocity=127, time=120),
    Message('note_on', channel=4, note=45, velocity=0, time=59),
    Message('note_on', channel=4, note=64, velocity=0, time=0),
    Message('note_on', channel=4, note=57, velocity=0, time=0),
    Message('note_on', channel=4, note=62, velocity=0, time=0),
    Message('note_on', channel=4, note=50, velocity=0, time=0),
    Message('note_on', channel=4, note=61, velocity=127, time=1),
    Message('note_on', channel=4, note=57, velocity=127, time=0),
    Message('note_on', channel=4, note=52, velocity=127, time=0),
    Message('note_on', channel=4, note=45, velocity=127, time=0),
    Message('note_on', channel=4, note=45, velocity=0, time=119),
    Message('note_on', channel=4, note=61, velocity=0, time=0),
    Message('note_on', channel=4, note=57, velocity=0, time=0),
    Message('note_on', channel=4, note=52, velocity=0, time=0),
    Message('note_on', channel=4, note=61, velocity=127, time=1),
    Message('note_on', channel=4, note=57, velocity=127, time=0),
    Message('note_on', channel=4, note=52, velocity=127, time=0),
    Message('note_on', channel=4, note=45, velocity=127, time=0),
    Message('note_on', channel=4, note=45, velocity=0, time=59),
    Message('note_on', channel=4, note=61, velocity=0, time=0),
    Message('note_on', channel=4, note=57, velocity=0, time=0),
    Message('note_on', channel=4, note=52, velocity=0, time=0),
    Message('note_on', channel=4, note=45, velocity=127, time=1),
    Message('note_on', channel=4, note=52, velocity=127, time=0),
    Message('note_on', channel=4, note=61, velocity=127, time=0),
    Message('note_on', channel=4, note=57, velocity=127, time=0),
    Message('note_on', channel=4, note=57, velocity=0, time=59),
    Message('note_on', channel=4, note=45, velocity=0, time=0),
    Message('note_on', channel=4, note=52, velocity=0, time=0),
    Message('note_on', channel=4, note=61, velocity=0, time=0),
    Message('note_on', channel=4, note=43, velocity=127, time=1),
    Message('note_on', channel=4, note=67, velocity=127, time=0),
    Message('note_on', channel=4, note=62, velocity=127, time=0),
    Message('note_on', channel=4, note=55, velocity=127, time=0),
    Message('note_on', channel=4, note=50, velocity=127, time=0),
    Message('note_on', channel=4, note=47, velocity=127, time=0),
    Message('note_on', channel=4, note=47, velocity=0, time=119),
    Message('note_on', channel=4, note=67, velocity=0, time=0),
    Message('note_on', channel=4, note=62, velocity=0, time=0),
    Message('note_on', channel=4, note=43, velocity=0, time=0),
    Message('note_on', channel=4, note=50, velocity=0, time=0),
    Message('note_on', channel=4, note=55, velocity=0, time=0),
    Message('note_on', channel=4, note=67, velocity=127, time=1),
    Message('note_on', channel=4, note=62, velocity=127, time=0),
    Message('note_on', channel=4, note=55, velocity=127, time=0),
    Message('note_on', channel=4, note=50, velocity=127, time=0),
    Message('note_on', channel=4, note=47, velocity=127, time=0),
    Message('note_on', channel=4, note=43, velocity=127, time=0),
    Message('note_on', channel=4, note=43, velocity=0, time=59),
    Message('note_on', channel=4, note=62, velocity=0, time=0),
    Message('note_on', channel=4, note=55, velocity=0, time=0),
    Message('note_on', channel=4, note=67, velocity=0, time=0),
    Message('note_on', channel=4, note=47, velocity=0, time=0),
    Message('note_on', channel=4, note=50, velocity=0, time=0),
    Message('note_on', channel=4, note=67, velocity=127, time=1),
    Message('note_on', channel=4, note=62, velocity=127, time=0),
    Message('note_on', channel=4, note=55, velocity=127, time=0),
    Message('note_on', channel=4, note=50, velocity=127, time=0),
    Message('note_on', channel=4, note=47, velocity=127, time=0),
    Message('note_on', channel=4, note=43, velocity=127, time=0),
    Message('note_on', channel=4, note=43, velocity=0, time=59),
    Message('note_on', channel=4, note=62, velocity=0, time=0),
    Message('note_on', channel=4, note=55, velocity=0, time=0),
    Message('note_on', channel=4, note=67, velocity=0, time=0),
    Message('note_on', channel=4, note=47, velocity=0, time=0),
    Message('note_on', channel=4, note=50, velocity=0, time=0),
    Message('note_on', channel=4, note=50, velocity=127, time=1),
    Message('note_on', channel=4, note=66, velocity=127, time=0),
    Message('note_on', channel=4, note=62, velocity=127, time=0),
    Message('note_on', channel=4, note=57, velocity=127, time=0),
    Message('note_on', channel=4, note=57, velocity=0, time=179),
    Message('note_on', channel=4, note=50, velocity=0, time=0),
    Message('note_on', channel=4, note=66, velocity=0, time=0),
    Message('note_on', channel=4, note=62, velocity=0, time=0),
    Message('note_on', channel=4, note=50, velocity=127, time=1),
    Message('note_on', channel=4, note=66, velocity=127, time=0),
    Message('note_on', channel=4, note=57, velocity=127, time=0),
    Message('note_on', channel=4, note=62, velocity=127, time=0),
    Message('note_on', channel=4, note=62, velocity=0, time=119),
    Message('note_on', channel=4, note=50, velocity=0, time=0),
    Message('note_on', channel=4, note=66, velocity=0, time=0),
    Message('note_on', channel=4, note=57, velocity=0, time=0),
    Message('note_on', channel=4, note=57, velocity=127, time=1),
    Message('note_on', channel=4, note=62, velocity=127, time=0),
    Message('note_on', channel=4, note=64, velocity=127, time=0),
    Message('note_on', channel=4, note=50, velocity=127, time=0),
    Message('note_on', channel=4, note=45, velocity=127, time=120),
    Message('note_on', channel=4, note=45, velocity=0, time=59),
    Message('note_on', channel=4, note=64, velocity=0, time=0),
    Message('note_on', channel=4, note=57, velocity=0, time=0),
    Message('note_on', channel=4, note=62, velocity=0, time=0),
    Message('note_on', channel=4, note=50, velocity=0, time=0),
    Message('note_on', channel=4, note=61, velocity=127, time=1),
    Message('note_on', channel=4, note=57, velocity=127, time=0),
    Message('note_on', channel=4, note=52, velocity=127, time=0),
    Message('note_on', channel=4, note=45, velocity=127, time=0),
    Message('note_on', channel=4, note=45, velocity=0, time=119),
    Message('note_on', channel=4, note=61, velocity=0, time=0),
    Message('note_on', channel=4, note=57, velocity=0, time=0),
    Message('note_on', channel=4, note=52, velocity=0, time=0),
    Message('note_on', channel=4, note=61, velocity=127, time=1),
    Message('note_on', channel=4, note=57, velocity=127, time=0),
    Message('note_on', channel=4, note=52, velocity=127, time=0),
    Message('note_on', channel=4, note=45, velocity=127, time=0),
    Message('note_on', channel=4, note=45, velocity=0, time=59),
    Message('note_on', channel=4, note=61, velocity=0, time=0),
    Message('note_on', channel=4, note=57, velocity=0, time=0),
    Message('note_on', channel=4, note=52, velocity=0, time=0),
    Message('note_on', channel=4, note=45, velocity=127, time=1),
    Message('note_on', channel=4, note=52, velocity=127, time=0),
    Message('note_on', channel=4, note=61, velocity=127, time=0),
    Message('note_on', channel=4, note=57, velocity=127, time=0),
    Message('note_on', channel=4, note=57, velocity=0, time=59),
    Message('note_on', channel=4, note=45, velocity=0, time=0),
    Message('note_on', channel=4, note=52, velocity=0, time=0),
    Message('note_on', channel=4, note=61, velocity=0, time=0),
    Message('note_on', channel=4, note=43, velocity=127, time=1),
    Message('note_on', channel=4, note=67, velocity=127, time=0),
    Message('note_on', channel=4, note=62, velocity=127, time=0),
    Message('note_on', channel=4, note=55, velocity=127, time=0),
    Message('note_on', channel=4, note=50, velocity=127, time=0),
    Message('note_on', channel=4, note=47, velocity=127, time=0),
    Message('note_on', channel=4, note=47, velocity=0, time=119),
    Message('note_on', channel=4, note=67, velocity=0, time=0),
    Message('note_on', channel=4, note=62, velocity=0, time=0),
    Message('note_on', channel=4, note=43, velocity=0, time=0),
    Message('note_on', channel=4, note=50, velocity=0, time=0),
    Message('note_on', channel=4, note=55, velocity=0, time=0),
    Message('note_on', channel=4, note=67, velocity=127, time=1),
    Message('note_on', channel=4, note=62, velocity=127, time=0),
    Message('note_on', channel=4, note=55, velocity=127, time=0),
    Message('note_on', channel=4, note=50, velocity=127, time=0),
    Message('note_on', channel=4, note=47, velocity=127, time=0),
    Message('note_on', channel=4, note=43, velocity=127, time=0),
    Message('note_on', channel=4, note=43, velocity=0, time=59),
    Message('note_on', channel=4, note=62, velocity=0, time=0),
    Message('note_on', channel=4, note=55, velocity=0, time=0),
    Message('note_on', channel=4, note=67, velocity=0, time=0),
    Message('note_on', channel=4, note=47, velocity=0, time=0),
    Message('note_on', channel=4, note=50, velocity=0, time=0),
    Message('note_on', channel=4, note=67, velocity=127, time=1),
    Message('note_on', channel=4, note=62, velocity=127, time=0),
    Message('note_on', channel=4, note=55, velocity=127, time=0),
    Message('note_on', channel=4, note=50, velocity=127, time=0),
    Message('note_on', channel=4, note=47, velocity=127, time=0),
    Message('note_on', channel=4, note=43, velocity=127, time=0),
    Message('note_on', channel=4, note=43, velocity=0, time=59),
    Message('note_on', channel=4, note=62, velocity=0, time=0),
    Message('note_on', channel=4, note=55, velocity=0, time=0),
    Message('note_on', channel=4, note=67, velocity=0, time=0),
    Message('note_on', channel=4, note=47, velocity=0, time=0),
    Message('note_on', channel=4, note=50, velocity=0, time=0),
    Message('note_on', channel=4, note=50, velocity=127, time=1),
    Message('note_on', channel=4, note=66, velocity=127, time=0),
    Message('note_on', channel=4, note=62, velocity=127, time=0),
    Message('note_on', channel=4, note=57, velocity=127, time=0),
    Message('note_on', channel=4, note=57, velocity=0, time=179),
    Message('note_on', channel=4, note=50, velocity=0, time=0),
    Message('note_on', channel=4, note=66, velocity=0, time=0),
    Message('note_on', channel=4, note=62, velocity=0, time=0),
    Message('note_on', channel=4, note=50, velocity=127, time=1),
    Message('note_on', channel=4, note=66, velocity=127, time=0),
    Message('note_on', channel=4, note=57, velocity=127, time=0),
    Message('note_on', channel=4, note=62, velocity=127, time=0),
    Message('note_on', channel=4, note=62, velocity=0, time=119),
    Message('note_on', channel=4, note=50, velocity=0, time=0),
    Message('note_on', channel=4, note=66, velocity=0, time=0),
    Message('note_on', channel=4, note=57, velocity=0, time=0),
    Message('note_on', channel=4, note=57, velocity=127, time=1),
    Message('note_on', channel=4, note=62, velocity=127, time=0),
    Message('note_on', channel=4, note=64, velocity=127, time=0),
    Message('note_on', channel=4, note=50, velocity=127, time=0),
    Message('note_on', channel=4, note=45, velocity=127, time=120),
    Message('note_on', channel=4, note=45, velocity=0, time=59),
    Message('note_on', channel=4, note=64, velocity=0, time=0),
    Message('note_on', channel=4, note=57, velocity=0, time=0),
    Message('note_on', channel=4, note=62, velocity=0, time=0),
    Message('note_on', channel=4, note=50, velocity=0, time=0),
    Message('note_on', channel=4, note=61, velocity=127, time=1),
    Message('note_on', channel=4, note=57, velocity=127, time=0),
    Message('note_on', channel=4, note=52, velocity=127, time=0),
    Message('note_on', channel=4, note=45, velocity=127, time=0),
    Message('note_on', channel=4, note=45, velocity=0, time=119),
    Message('note_on', channel=4, note=61, velocity=0, time=0),
    Message('note_on', channel=4, note=57, velocity=0, time=0),
    Message('note_on', channel=4, note=52, velocity=0, time=0),
    Message('note_on', channel=4, note=61, velocity=127, time=1),
    Message('note_on', channel=4, note=57, velocity=127, time=0),
    Message('note_on', channel=4, note=52, velocity=127, time=0),
    Message('note_on', channel=4, note=45, velocity=127, time=0),
    Message('note_on', channel=4, note=45, velocity=0, time=59),
    Message('note_on', channel=4, note=61, velocity=0, time=0),
    Message('note_on', channel=4, note=57, velocity=0, time=0),
    Message('note_on', channel=4, note=52, velocity=0, time=0),
    Message('note_on', channel=4, note=45, velocity=127, time=1),
    Message('note_on', channel=4, note=52, velocity=127, time=0),
    Message('note_on', channel=4, note=61, velocity=127, time=0),
    Message('note_on', channel=4, note=57, velocity=127, time=0),
    Message('note_on', channel=4, note=57, velocity=0, time=59),
    Message('note_on', channel=4, note=45, velocity=0, time=0),
    Message('note_on', channel=4, note=52, velocity=0, time=0),
    Message('note_on', channel=4, note=61, velocity=0, time=0),
    Message('note_on', channel=4, note=43, velocity=127, time=1),
    Message('note_on', channel=4, note=67, velocity=127, time=0),
    Message('note_on', channel=4, note=62, velocity=127, time=0),
    Message('note_on', channel=4, note=55, velocity=127, time=0),
    Message('note_on', channel=4, note=50, velocity=127, time=0),
    Message('note_on', channel=4, note=47, velocity=127, time=0),
    Message('note_on', channel=4, note=47, velocity=0, time=119),
    Message('note_on', channel=4, note=67, velocity=0, time=0),
    Message('note_on', channel=4, note=62, velocity=0, time=0),
    Message('note_on', channel=4, note=43, velocity=0, time=0),
    Message('note_on', channel=4, note=50, velocity=0, time=0),
    Message('note_on', channel=4, note=55, velocity=0, time=0),
    Message('note_on', channel=4, note=67, velocity=127, time=1),
    Message('note_on', channel=4, note=62, velocity=127, time=0),
    Message('note_on', channel=4, note=55, velocity=127, time=0),
    Message('note_on', channel=4, note=50, velocity=127, time=0),
    Message('note_on', channel=4, note=47, velocity=127, time=0),
    Message('note_on', channel=4, note=43, velocity=127, time=0),
    Message('note_on', channel=4, note=43, velocity=0, time=59),
    Message('note_on', channel=4, note=62, velocity=0, time=0),
    Message('note_on', channel=4, note=55, velocity=0, time=0),
    Message('note_on', channel=4, note=67, velocity=0, time=0),
    Message('note_on', channel=4, note=47, velocity=0, time=0),
    Message('note_on', channel=4, note=50, velocity=0, time=0),
    Message('note_on', channel=4, note=67, velocity=127, time=1),
    Message('note_on', channel=4, note=62, velocity=127, time=0),
    Message('note_on', channel=4, note=55, velocity=127, time=0),
    Message('note_on', channel=4, note=50, velocity=127, time=0),
    Message('note_on', channel=4, note=47, velocity=127, time=0),
    Message('note_on', channel=4, note=43, velocity=127, time=0),
    Message('note_on', channel=4, note=43, velocity=0, time=59),
    Message('note_on', channel=4, note=62, velocity=0, time=0),
    Message('note_on', channel=4, note=55, velocity=0, time=0),
    Message('note_on', channel=4, note=67, velocity=0, time=0),
    Message('note_on', channel=4, note=47, velocity=0, time=0),
    Message('note_on', channel=4, note=50, velocity=0, time=0),
    Message('note_on', channel=4, note=50, velocity=127, time=1),
    Message('note_on', channel=4, note=66, velocity=127, time=0),
    Message('note_on', channel=4, note=62, velocity=127, time=0),
    Message('note_on', channel=4, note=57, velocity=127, time=0),
    Message('note_on', channel=4, note=57, velocity=0, time=179),
    Message('note_on', channel=4, note=50, velocity=0, time=0),
    Message('note_on', channel=4, note=66, velocity=0, time=0),
    Message('note_on', channel=4, note=62, velocity=0, time=0),
    Message('note_on', channel=4, note=50, velocity=127, time=1),
    Message('note_on', channel=4, note=66, velocity=127, time=0),
    Message('note_on', channel=4, note=57, velocity=127, time=0),
    Message('note_on', channel=4, note=62, velocity=127, time=0),
    Message('note_on', channel=4, note=62, velocity=0, time=119),
    Message('note_on', channel=4, note=50, velocity=0, time=0),
    Message('note_on', channel=4, note=66, velocity=0, time=0),
    Message('note_on', channel=4, note=57, velocity=0, time=0),
    Message('note_on', channel=4, note=57, velocity=127, time=1),
    Message('note_on', channel=4, note=62, velocity=127, time=0),
    Message('note_on', channel=4, note=64, velocity=127, time=0),
    Message('note_on', channel=4, note=50, velocity=127, time=0),
    Message('note_on', channel=4, note=45, velocity=127, time=120),
    Message('note_on', channel=4, note=45, velocity=0, time=59),
    Message('note_on', channel=4, note=64, velocity=0, time=0),
    Message('note_on', channel=4, note=57, velocity=0, time=0),
    Message('note_on', channel=4, note=62, velocity=0, time=0),
    Message('note_on', channel=4, note=50, velocity=0, time=0),
    Message('note_on', channel=4, note=61, velocity=127, time=1),
    Message('note_on', channel=4, note=57, velocity=127, time=0),
    Message('note_on', channel=4, note=52, velocity=127, time=0),
    Message('note_on', channel=4, note=45, velocity=127, time=0),
    Message('note_on', channel=4, note=45, velocity=0, time=119),
    Message('note_on', channel=4, note=61, velocity=0, time=0),
    Message('note_on', channel=4, note=57, velocity=0, time=0),
    Message('note_on', channel=4, note=52, velocity=0, time=0),
    Message('note_on', channel=4, note=61, velocity=127, time=1),
    Message('note_on', channel=4, note=57, velocity=127, time=0),
    Message('note_on', channel=4, note=52, velocity=127, time=0),
    Message('note_on', channel=4, note=45, velocity=127, time=0),
    Message('note_on', channel=4, note=45, velocity=0, time=59),
    Message('note_on', channel=4, note=61, velocity=0, time=0),
    Message('note_on', channel=4, note=57, velocity=0, time=0),
    Message('note_on', channel=4, note=52, velocity=0, time=0),
    Message('note_on', channel=4, note=45, velocity=127, time=1),
    Message('note_on', channel=4, note=52, velocity=127, time=0),
    Message('note_on', channel=4, note=61, velocity=127, time=0),
    Message('note_on', channel=4, note=57, velocity=127, time=0),
    Message('note_on', channel=4, note=57, velocity=0, time=59),
    Message('note_on', channel=4, note=45, velocity=0, time=0),
    Message('note_on', channel=4, note=52, velocity=0, time=0),
    Message('note_on', channel=4, note=61, velocity=0, time=0),
    Message('note_on', channel=4, note=43, velocity=127, time=1),
    Message('note_on', channel=4, note=67, velocity=127, time=0),
    Message('note_on', channel=4, note=62, velocity=127, time=0),
    Message('note_on', channel=4, note=55, velocity=127, time=0),
    Message('note_on', channel=4, note=50, velocity=127, time=0),
    Message('note_on', channel=4, note=47, velocity=127, time=0),
    Message('note_on', channel=4, note=47, velocity=0, time=119),
    Message('note_on', channel=4, note=67, velocity=0, time=0),
    Message('note_on', channel=4, note=62, velocity=0, time=0),
    Message('note_on', channel=4, note=43, velocity=0, time=0),
    Message('note_on', channel=4, note=50, velocity=0, time=0),
    Message('note_on', channel=4, note=55, velocity=0, time=0),
    Message('note_on', channel=4, note=67, velocity=127, time=1),
    Message('note_on', channel=4, note=62, velocity=127, time=0),
    Message('note_on', channel=4, note=55, velocity=127, time=0),
    Message('note_on', channel=4, note=50, velocity=127, time=0),
    Message('note_on', channel=4, note=47, velocity=127, time=0),
    Message('note_on', channel=4, note=43, velocity=127, time=0),
    Message('note_on', channel=4, note=43, velocity=0, time=59),
    Message('note_on', channel=4, note=62, velocity=0, time=0),
    Message('note_on', channel=4, note=55, velocity=0, time=0),
    Message('note_on', channel=4, note=67, velocity=0, time=0),
    Message('note_on', channel=4, note=47, velocity=0, time=0),
    Message('note_on', channel=4, note=50, velocity=0, time=0),
    Message('note_on', channel=4, note=67, velocity=127, time=1),
    Message('note_on', channel=4, note=62, velocity=127, time=0),
    Message('note_on', channel=4, note=55, velocity=127, time=0),
    Message('note_on', channel=4, note=50, velocity=127, time=0),
    Message('note_on', channel=4, note=47, velocity=127, time=0),
    Message('note_on', channel=4, note=43, velocity=127, time=0),
    Message('note_on', channel=4, note=43, velocity=0, time=59),
    Message('note_on', channel=4, note=62, velocity=0, time=0),
    Message('note_on', channel=4, note=55, velocity=0, time=0),
    Message('note_on', channel=4, note=67, velocity=0, time=0),
    Message('note_on', channel=4, note=47, velocity=0, time=0),
    Message('note_on', channel=4, note=50, velocity=0, time=0),
    Message('note_on', channel=4, note=50, velocity=127, time=1),
    Message('note_on', channel=4, note=66, velocity=127, time=0),
    Message('note_on', channel=4, note=62, velocity=127, time=0),
    Message('note_on', channel=4, note=57, velocity=127, time=0),
    Message('note_on', channel=4, note=57, velocity=0, time=179),
    Message('note_on', channel=4, note=50, velocity=0, time=0),
    Message('note_on', channel=4, note=66, velocity=0, time=0),
    Message('note_on', channel=4, note=62, velocity=0, time=0),
    Message('note_on', channel=4, note=50, velocity=127, time=1),
    Message('note_on', channel=4, note=66, velocity=127, time=0),
    Message('note_on', channel=4, note=57, velocity=127, time=0),
    Message('note_on', channel=4, note=62, velocity=127, time=0),
    Message('note_on', channel=4, note=62, velocity=0, time=119),
    Message('note_on', channel=4, note=50, velocity=0, time=0),
    Message('note_on', channel=4, note=66, velocity=0, time=0),
    Message('note_on', channel=4, note=57, velocity=0, time=0),
    Message('note_on', channel=4, note=57, velocity=127, time=1),
    Message('note_on', channel=4, note=62, velocity=127, time=0),
    Message('note_on', channel=4, note=64, velocity=127, time=0),
    Message('note_on', channel=4, note=50, velocity=127, time=0),
    Message('note_on', channel=4, note=45, velocity=127, time=120),
    Message('note_on', channel=4, note=45, velocity=0, time=59),
    Message('note_on', channel=4, note=64, velocity=0, time=0),
    Message('note_on', channel=4, note=57, velocity=0, time=0),
    Message('note_on', channel=4, note=62, velocity=0, time=0),
    Message('note_on', channel=4, note=50, velocity=0, time=0),
    Message('note_on', channel=4, note=61, velocity=127, time=1),
    Message('note_on', channel=4, note=57, velocity=127, time=0),
    Message('note_on', channel=4, note=52, velocity=127, time=0),
    Message('note_on', channel=4, note=45, velocity=127, time=0),
    Message('note_on', channel=4, note=45, velocity=0, time=119),
    Message('note_on', channel=4, note=61, velocity=0, time=0),
    Message('note_on', channel=4, note=57, velocity=0, time=0),
    Message('note_on', channel=4, note=52, velocity=0, time=0),
    Message('note_on', channel=4, note=61, velocity=127, time=1),
    Message('note_on', channel=4, note=57, velocity=127, time=0),
    Message('note_on', channel=4, note=52, velocity=127, time=0),
    Message('note_on', channel=4, note=45, velocity=127, time=0),
    Message('note_on', channel=4, note=45, velocity=0, time=59),
    Message('note_on', channel=4, note=61, velocity=0, time=0),
    Message('note_on', channel=4, note=57, velocity=0, time=0),
    Message('note_on', channel=4, note=52, velocity=0, time=0),
    Message('note_on', channel=4, note=45, velocity=127, time=1),
    Message('note_on', channel=4, note=52, velocity=127, time=0),
    Message('note_on', channel=4, note=61, velocity=127, time=0),
    Message('note_on', channel=4, note=57, velocity=127, time=0),
    Message('note_on', channel=4, note=57, velocity=0, time=59),
    Message('note_on', channel=4, note=45, velocity=0, time=0),
    Message('note_on', channel=4, note=52, velocity=0, time=0),
    Message('note_on', channel=4, note=61, velocity=0, time=0),
    Message('note_on', channel=4, note=43, velocity=127, time=1),
    Message('note_on', channel=4, note=67, velocity=127, time=0),
    Message('note_on', channel=4, note=62, velocity=127, time=0),
    Message('note_on', channel=4, note=55, velocity=127, time=0),
    Message('note_on', channel=4, note=50, velocity=127, time=0),
    Message('note_on', channel=4, note=47, velocity=127, time=0),
    Message('note_on', channel=4, note=47, velocity=0, time=119),
    Message('note_on', channel=4, note=67, velocity=0, time=0),
    Message('note_on', channel=4, note=62, velocity=0, time=0),
    Message('note_on', channel=4, note=43, velocity=0, time=0),
    Message('note_on', channel=4, note=50, velocity=0, time=0),
    Message('note_on', channel=4, note=55, velocity=0, time=0),
    Message('note_on', channel=4, note=67, velocity=127, time=1),
    Message('note_on', channel=4, note=62, velocity=127, time=0),
    Message('note_on', channel=4, note=55, velocity=127, time=0),
    Message('note_on', channel=4, note=50, velocity=127, time=0),
    Message('note_on', channel=4, note=47, velocity=127, time=0),
    Message('note_on', channel=4, note=43, velocity=127, time=0),
    Message('note_on', channel=4, note=43, velocity=0, time=59),
    Message('note_on', channel=4, note=62, velocity=0, time=0),
    Message('note_on', channel=4, note=55, velocity=0, time=0),
    Message('note_on', channel=4, note=67, velocity=0, time=0),
    Message('note_on', channel=4, note=47, velocity=0, time=0),
    Message('note_on', channel=4, note=50, velocity=0, time=0),
    Message('note_on', channel=4, note=67, velocity=127, time=1),
    Message('note_on', channel=4, note=62, velocity=127, time=0),
    Message('note_on', channel=4, note=55, velocity=127, time=0),
    Message('note_on', channel=4, note=50, velocity=127, time=0),
    Message('note_on', channel=4, note=47, velocity=127, time=0),
    Message('note_on', channel=4, note=43, velocity=127, time=0),
    Message('note_on', channel=4, note=43, velocity=0, time=59),
    Message('note_on', channel=4, note=62, velocity=0, time=0),
    Message('note_on', channel=4, note=55, velocity=0, time=0),
    Message('note_on', channel=4, note=67, velocity=0, time=0),
    Message('note_on', channel=4, note=47, velocity=0, time=0),
    Message('note_on', channel=4, note=50, velocity=0, time=0),
    Message('note_on', channel=4, note=50, velocity=127, time=1),
    Message('note_on', channel=4, note=66, velocity=127, time=0),
    Message('note_on', channel=4, note=62, velocity=127, time=0),
    Message('note_on', channel=4, note=57, velocity=127, time=0),
    Message('note_on', channel=4, note=57, velocity=0, time=179),
    Message('note_on', channel=4, note=50, velocity=0, time=0),
    Message('note_on', channel=4, note=66, velocity=0, time=0),
    Message('note_on', channel=4, note=62, velocity=0, time=0),
    Message('note_on', channel=4, note=50, velocity=127, time=1),
    Message('note_on', channel=4, note=66, velocity=127, time=0),
    Message('note_on', channel=4, note=57, velocity=127, time=0),
    Message('note_on', channel=4, note=62, velocity=127, time=0),
    Message('note_on', channel=4, note=62, velocity=0, time=119),
    Message('note_on', channel=4, note=50, velocity=0, time=0),
    Message('note_on', channel=4, note=66, velocity=0, time=0),
    Message('note_on', channel=4, note=57, velocity=0, time=0),
    Message('note_on', channel=4, note=57, velocity=127, time=1),
    Message('note_on', channel=4, note=62, velocity=127, time=0),
    Message('note_on', channel=4, note=64, velocity=127, time=0),
    Message('note_on', channel=4, note=50, velocity=127, time=0),
    Message('note_on', channel=4, note=45, velocity=127, time=120),
    Message('note_on', channel=4, note=45, velocity=0, time=59),
    Message('note_on', channel=4, note=64, velocity=0, time=0),
    Message('note_on', channel=4, note=57, velocity=0, time=0),
    Message('note_on', channel=4, note=62, velocity=0, time=0),
    Message('note_on', channel=4, note=50, velocity=0, time=0),
    Message('note_on', channel=4, note=61, velocity=127, time=1),
    Message('note_on', channel=4, note=57, velocity=127, time=0),
    Message('note_on', channel=4, note=52, velocity=127, time=0),
    Message('note_on', channel=4, note=45, velocity=127, time=0),
    Message('note_on', channel=4, note=45, velocity=0, time=119),
    Message('note_on', channel=4, note=61, velocity=0, time=0),
    Message('note_on', channel=4, note=57, velocity=0, time=0),
    Message('note_on', channel=4, note=52, velocity=0, time=0),
    Message('note_on', channel=4, note=61, velocity=127, time=1),
    Message('note_on', channel=4, note=57, velocity=127, time=0),
    Message('note_on', channel=4, note=52, velocity=127, time=0),
    Message('note_on', channel=4, note=45, velocity=127, time=0),
    Message('note_on', channel=4, note=45, velocity=0, time=59),
    Message('note_on', channel=4, note=61, velocity=0, time=0),
    Message('note_on', channel=4, note=57, velocity=0, time=0),
    Message('note_on', channel=4, note=52, velocity=0, time=0),
    Message('note_on', channel=4, note=45, velocity=127, time=1),
    Message('note_on', channel=4, note=52, velocity=127, time=0),
    Message('note_on', channel=4, note=61, velocity=127, time=0),
    Message('note_on', channel=4, note=57, velocity=127, time=0),
    Message('note_on', channel=4, note=57, velocity=0, time=59),
    Message('note_on', channel=4, note=45, velocity=0, time=0),
    Message('note_on', channel=4, note=52, velocity=0, time=0),
    Message('note_on', channel=4, note=61, velocity=0, time=0),
    Message('note_on', channel=4, note=43, velocity=127, time=1),
    Message('note_on', channel=4, note=67, velocity=127, time=0),
    Message('note_on', channel=4, note=62, velocity=127, time=0),
    Message('note_on', channel=4, note=55, velocity=127, time=0),
    Message('note_on', channel=4, note=50, velocity=127, time=0),
    Message('note_on', channel=4, note=47, velocity=127, time=0),
    Message('note_on', channel=4, note=47, velocity=0, time=119),
    Message('note_on', channel=4, note=67, velocity=0, time=0),
    Message('note_on', channel=4, note=62, velocity=0, time=0),
    Message('note_on', channel=4, note=43, velocity=0, time=0),
    Message('note_on', channel=4, note=50, velocity=0, time=0),
    Message('note_on', channel=4, note=55, velocity=0, time=0),
    Message('note_on', channel=4, note=67, velocity=127, time=1),
    Message('note_on', channel=4, note=62, velocity=127, time=0),
    Message('note_on', channel=4, note=55, velocity=127, time=0),
    Message('note_on', channel=4, note=50, velocity=127, time=0),
    Message('note_on', channel=4, note=47, velocity=127, time=0),
    Message('note_on', channel=4, note=43, velocity=127, time=0),
    Message('note_on', channel=4, note=43, velocity=0, time=59),
    Message('note_on', channel=4, note=62, velocity=0, time=0),
    Message('note_on', channel=4, note=55, velocity=0, time=0),
    Message('note_on', channel=4, note=67, velocity=0, time=0),
    Message('note_on', channel=4, note=47, velocity=0, time=0),
    Message('note_on', channel=4, note=50, velocity=0, time=0),
    Message('note_on', channel=4, note=67, velocity=127, time=1),
    Message('note_on', channel=4, note=62, velocity=127, time=0),
    Message('note_on', channel=4, note=55, velocity=127, time=0),
    Message('note_on', channel=4, note=50, velocity=127, time=0),
    Message('note_on', channel=4, note=47, velocity=127, time=0),
    Message('note_on', channel=4, note=43, velocity=127, time=0),
    Message('note_on', channel=4, note=43, velocity=0, time=59),
    Message('note_on', channel=4, note=62, velocity=0, time=0),
    Message('note_on', channel=4, note=55, velocity=0, time=0),
    Message('note_on', channel=4, note=67, velocity=0, time=0),
    Message('note_on', channel=4, note=47, velocity=0, time=0),
    Message('note_on', channel=4, note=50, velocity=0, time=0),
    Message('note_on', channel=4, note=50, velocity=127, time=1),
    Message('note_on', channel=4, note=66, velocity=127, time=0),
    Message('note_on', channel=4, note=62, velocity=127, time=0),
    Message('note_on', channel=4, note=57, velocity=127, time=0),
    Message('note_on', channel=4, note=57, velocity=0, time=179),
    Message('note_on', channel=4, note=50, velocity=0, time=0),
    Message('note_on', channel=4, note=66, velocity=0, time=0),
    Message('note_on', channel=4, note=62, velocity=0, time=0),
    Message('note_on', channel=4, note=50, velocity=127, time=1),
    Message('note_on', channel=4, note=66, velocity=127, time=0),
    Message('note_on', channel=4, note=57, velocity=127, time=0),
    Message('note_on', channel=4, note=62, velocity=127, time=0),
    Message('note_on', channel=4, note=62, velocity=0, time=119),
    Message('note_on', channel=4, note=50, velocity=0, time=0),
    Message('note_on', channel=4, note=66, velocity=0, time=0),
    Message('note_on', channel=4, note=57, velocity=0, time=0),
    Message('note_on', channel=4, note=57, velocity=127, time=1),
    Message('note_on', channel=4, note=62, velocity=127, time=0),
    Message('note_on', channel=4, note=64, velocity=127, time=0),
    Message('note_on', channel=4, note=50, velocity=127, time=0),
    Message('note_on', channel=4, note=45, velocity=127, time=120),
    Message('note_on', channel=4, note=45, velocity=0, time=59),
    Message('note_on', channel=4, note=64, velocity=0, time=0),
    Message('note_on', channel=4, note=57, velocity=0, time=0),
    Message('note_on', channel=4, note=62, velocity=0, time=0),
    Message('note_on', channel=4, note=50, velocity=0, time=0),
    Message('note_on', channel=4, note=61, velocity=127, time=1),
    Message('note_on', channel=4, note=57, velocity=127, time=0),
    Message('note_on', channel=4, note=52, velocity=127, time=0),
    Message('note_on', channel=4, note=45, velocity=127, time=0),
    Message('note_on', channel=4, note=45, velocity=0, time=119),
    Message('note_on', channel=4, note=61, velocity=0, time=0),
    Message('note_on', channel=4, note=57, velocity=0, time=0),
    Message('note_on', channel=4, note=52, velocity=0, time=0),
    Message('note_on', channel=4, note=61, velocity=127, time=1),
    Message('note_on', channel=4, note=57, velocity=127, time=0),
    Message('note_on', channel=4, note=52, velocity=127, time=0),
    Message('note_on', channel=4, note=45, velocity=127, time=0),
    Message('note_on', channel=4, note=45, velocity=0, time=59),
    Message('note_on', channel=4, note=61, velocity=0, time=0),
    Message('note_on', channel=4, note=57, velocity=0, time=0),
    Message('note_on', channel=4, note=52, velocity=0, time=0),
    Message('note_on', channel=4, note=45, velocity=127, time=1),
    Message('note_on', channel=4, note=52, velocity=127, time=0),
    Message('note_on', channel=4, note=61, velocity=127, time=0),
    Message('note_on', channel=4, note=57, velocity=127, time=0),
    Message('note_on', channel=4, note=57, velocity=0, time=59),
    Message('note_on', channel=4, note=45, velocity=0, time=0),
    Message('note_on', channel=4, note=52, velocity=0, time=0),
    Message('note_on', channel=4, note=61, velocity=0, time=0),
    Message('note_on', channel=4, note=43, velocity=127, time=1),
    Message('note_on', channel=4, note=67, velocity=127, time=0),
    Message('note_on', channel=4, note=62, velocity=127, time=0),
    Message('note_on', channel=4, note=55, velocity=127, time=0),
    Message('note_on', channel=4, note=50, velocity=127, time=0),
    Message('note_on', channel=4, note=47, velocity=127, time=0),
    Message('note_on', channel=4, note=47, velocity=0, time=119),
    Message('note_on', channel=4, note=67, velocity=0, time=0),
    Message('note_on', channel=4, note=62, velocity=0, time=0),
    Message('note_on', channel=4, note=43, velocity=0, time=0),
    Message('note_on', channel=4, note=50, velocity=0, time=0),
    Message('note_on', channel=4, note=55, velocity=0, time=0),
    Message('note_on', channel=4, note=67, velocity=127, time=1),
    Message('note_on', channel=4, note=62, velocity=127, time=0),
    Message('note_on', channel=4, note=55, velocity=127, time=0),
    Message('note_on', channel=4, note=50, velocity=127, time=0),
    Message('note_on', channel=4, note=47, velocity=127, time=0),
    Message('note_on', channel=4, note=43, velocity=127, time=0),
    Message('note_on', channel=4, note=43, velocity=0, time=59),
    Message('note_on', channel=4, note=62, velocity=0, time=0),
    Message('note_on', channel=4, note=55, velocity=0, time=0),
    Message('note_on', channel=4, note=67, velocity=0, time=0),
    Message('note_on', channel=4, note=47, velocity=0, time=0),
    Message('note_on', channel=4, note=50, velocity=0, time=0),
    Message('note_on', channel=4, note=67, velocity=127, time=1),
    Message('note_on', channel=4, note=62, velocity=127, time=0),
    Message('note_on', channel=4, note=55, velocity=127, time=0),
    Message('note_on', channel=4, note=50, velocity=127, time=0),
    Message('note_on', channel=4, note=47, velocity=127, time=0),
    Message('note_on', channel=4, note=43, velocity=127, time=0),
    Message('note_on', channel=4, note=43, velocity=0, time=59),
    Message('note_on', channel=4, note=62, velocity=0, time=0),
    Message('note_on', channel=4, note=55, velocity=0, time=0),
    Message('note_on', channel=4, note=67, velocity=0, time=0),
    Message('note_on', channel=4, note=47, velocity=0, time=0),
    Message('note_on', channel=4, note=50, velocity=0, time=0),
    Message('note_on', channel=4, note=66, velocity=127, time=1),
    Message('note_on', channel=4, note=50, velocity=127, time=0),
    Message('note_on', channel=4, note=62, velocity=127, time=0),
    Message('note_on', channel=4, note=57, velocity=127, time=0),
    Message('note_on', channel=4, note=57, velocity=0, time=179),
    Message('note_on', channel=4, note=66, velocity=0, time=0),
    Message('note_on', channel=4, note=50, velocity=0, time=0),
    Message('note_on', channel=4, note=62, velocity=0, time=0),
    Message('note_on', channel=4, note=50, velocity=127, time=1),
    Message('note_on', channel=4, note=66, velocity=127, time=0),
    Message('note_on', channel=4, note=57, velocity=127, time=0),
    Message('note_on', channel=4, note=62, velocity=127, time=0),
    Message('note_on', channel=4, note=62, velocity=0, time=119),
    Message('note_on', channel=4, note=50, velocity=0, time=0),
    Message('note_on', channel=4, note=66, velocity=0, time=0),
    Message('note_on', channel=4, note=57, velocity=0, time=0),
    Message('note_on', channel=4, note=57, velocity=127, time=1),
    Message('note_on', channel=4, note=62, velocity=127, time=0),
    Message('note_on', channel=4, note=64, velocity=127, time=0),
    Message('note_on', channel=4, note=50, velocity=127, time=0),
    Message('note_on', channel=4, note=45, velocity=127, time=120),
    Message('note_on', channel=4, note=45, velocity=0, time=59),
    Message('note_on', channel=4, note=64, velocity=0, time=0),
    Message('note_on', channel=4, note=57, velocity=0, time=0),
    Message('note_on', channel=4, note=62, velocity=0, time=0),
    Message('note_on', channel=4, note=50, velocity=0, time=0),
    Message('note_on', channel=4, note=61, velocity=127, time=1),
    Message('note_on', channel=4, note=57, velocity=127, time=0),
    Message('note_on', channel=4, note=52, velocity=127, time=0),
    Message('note_on', channel=4, note=45, velocity=127, time=0),
    Message('note_on', channel=4, note=45, velocity=0, time=119),
    Message('note_on', channel=4, note=61, velocity=0, time=0),
    Message('note_on', channel=4, note=57, velocity=0, time=0),
    Message('note_on', channel=4, note=52, velocity=0, time=0),
    Message('note_on', channel=4, note=57, velocity=127, time=1),
    Message('note_on', channel=4, note=52, velocity=127, time=0),
    Message('note_on', channel=4, note=45, velocity=127, time=0),
    Message('note_on', channel=4, note=61, velocity=127, time=0),
    Message('note_on', channel=4, note=61, velocity=0, time=59),
    Message('note_on', channel=4, note=57, velocity=0, time=0),
    Message('note_on', channel=4, note=52, velocity=0, time=0),
    Message('note_on', channel=4, note=45, velocity=0, time=0),
    Message('note_on', channel=4, note=61, velocity=127, time=1),
    Message('note_on', channel=4, note=45, velocity=127, time=0),
    Message('note_on', channel=4, note=52, velocity=127, time=0),
    Message('note_on', channel=4, note=57, velocity=127, time=0),
    Message('note_on', channel=4, note=57, velocity=0, time=119),
    Message('note_on', channel=4, note=61, velocity=0, time=0),
    Message('note_on', channel=4, note=45, velocity=0, time=0),
    Message('note_on', channel=4, note=52, velocity=0, time=0),
    Message('note_on', channel=4, note=45, velocity=127, time=1),
    Message('note_on', channel=4, note=52, velocity=127, time=0),
    Message('note_on', channel=4, note=57, velocity=127, time=0),
    Message('note_on', channel=4, note=61, velocity=127, time=0),
    Message('note_on', channel=4, note=61, velocity=0, time=119),
    Message('note_on', channel=4, note=45, velocity=0, time=0),
    Message('note_on', channel=4, note=52, velocity=0, time=0),
    Message('note_on', channel=4, note=57, velocity=0, time=0),
    Message('note_on', channel=4, note=45, velocity=127, time=1),
    Message('note_on', channel=4, note=61, velocity=127, time=0),
    Message('note_on', channel=4, note=57, velocity=127, time=0),
    Message('note_on', channel=4, note=52, velocity=127, time=0),
    Message('note_on', channel=4, note=52, velocity=0, time=59),
    Message('note_on', channel=4, note=45, velocity=0, time=0),
    Message('note_on', channel=4, note=61, velocity=0, time=0),
    Message('note_on', channel=4, note=57, velocity=0, time=0),
    Message('note_on', channel=4, note=61, velocity=127, time=1),
    Message('note_on', channel=4, note=57, velocity=127, time=0),
    Message('note_on', channel=4, note=52, velocity=127, time=0),
    Message('note_on', channel=4, note=45, velocity=127, time=0),
    Message('note_on', channel=4, note=45, velocity=0, time=119),
    Message('note_on', channel=4, note=61, velocity=0, time=0),
    Message('note_on', channel=4, note=57, velocity=0, time=0),
    Message('note_on', channel=4, note=52, velocity=0, time=0),
    Message('note_on', channel=4, note=57, velocity=127, time=1),
    Message('note_on', channel=4, note=52, velocity=127, time=0),
    Message('note_on', channel=4, note=45, velocity=127, time=0),
    Message('note_on', channel=4, note=61, velocity=127, time=0),
    Message('note_on', channel=4, note=61, velocity=0, time=59),
    Message('note_on', channel=4, note=57, velocity=0, time=0),
    Message('note_on', channel=4, note=52, velocity=0, time=0),
    Message('note_on', channel=4, note=45, velocity=0, time=0),
    Message('note_on', channel=4, note=61, velocity=127, time=1),
    Message('note_on', channel=4, note=45, velocity=127, time=0),
    Message('note_on', channel=4, note=52, velocity=127, time=0),
    Message('note_on', channel=4, note=57, velocity=127, time=0),
    Message('note_on', channel=4, note=57, velocity=0, time=119),
    Message('note_on', channel=4, note=61, velocity=0, time=0),
    Message('note_on', channel=4, note=45, velocity=0, time=0),
    Message('note_on', channel=4, note=52, velocity=0, time=0),
    Message('note_on', channel=4, note=61, velocity=127, time=1),
    Message('note_on', channel=4, note=57, velocity=127, time=0),
    Message('note_on', channel=4, note=52, velocity=127, time=0),
    Message('note_on', channel=4, note=45, velocity=127, time=0),
    Message('note_on', channel=4, note=45, velocity=0, time=119),
    Message('note_on', channel=4, note=61, velocity=0, time=0),
    Message('note_on', channel=4, note=57, velocity=0, time=0),
    Message('note_on', channel=4, note=52, velocity=0, time=0),
    Message('note_on', channel=4, note=45, velocity=127, time=1),
    Message('note_on', channel=4, note=61, velocity=127, time=0),
    Message('note_on', channel=4, note=57, velocity=127, time=0),
    Message('note_on', channel=4, note=52, velocity=127, time=0),
    Message('note_on', channel=4, note=52, velocity=0, time=59),
    Message('note_on', channel=4, note=45, velocity=0, time=0),
    Message('note_on', channel=4, note=61, velocity=0, time=0),
    Message('note_on', channel=4, note=57, velocity=0, time=0),
    Message('note_on', channel=4, note=66, velocity=127, time=1),
    Message('note_on', channel=4, note=62, velocity=127, time=0),
    Message('note_on', channel=4, note=57, velocity=127, time=0),
    Message('note_on', channel=4, note=50, velocity=127, time=0),
    Message('note_on', channel=4, note=50, velocity=0, time=119),
    Message('note_on', channel=4, note=66, velocity=0, time=0),
    Message('note_on', channel=4, note=62, velocity=0, time=0),
    Message('note_on', channel=4, note=57, velocity=0, time=0),
    Message('note_on', channel=4, note=50, velocity=127, time=1),
    Message('note_on', channel=4, note=66, velocity=127, time=0),
    Message('note_on', channel=4, note=62, velocity=127, time=0),
    Message('note_on', channel=4, note=57, velocity=127, time=0),
    Message('note_on', channel=4, note=57, velocity=0, time=59),
    Message('note_on', channel=4, note=50, velocity=0, time=0),
    Message('note_on', channel=4, note=66, velocity=0, time=0),
    Message('note_on', channel=4, note=62, velocity=0, time=0),
    Message('note_on', channel=4, note=66, velocity=127, time=1),
    Message('note_on', channel=4, note=62, velocity=127, time=0),
    Message('note_on', channel=4, note=57, velocity=127, time=0),
    Message('note_on', channel=4, note=50, velocity=127, time=0),
    Message('note_on', channel=4, note=50, velocity=0, time=119),
    Message('note_on', channel=4, note=66, velocity=0, time=0),
    Message('note_on', channel=4, note=62, velocity=0, time=0),
    Message('note_on', channel=4, note=57, velocity=0, time=0),
    Message('note_on', channel=4, note=50, velocity=127, time=1),
    Message('note_on', channel=4, note=57, velocity=127, time=0),
    Message('note_on', channel=4, note=62, velocity=127, time=0),
    Message('note_on', channel=4, note=66, velocity=127, time=0),
    Message('note_on', channel=4, note=66, velocity=0, time=119),
    Message('note_on', channel=4, note=50, velocity=0, time=0),
    Message('note_on', channel=4, note=57, velocity=0, time=0),
    Message('note_on', channel=4, note=62, velocity=0, time=0),
    Message('note_on', channel=4, note=66, velocity=127, time=1),
    Message('note_on', channel=4, note=62, velocity=127, time=0),
    Message('note_on', channel=4, note=57, velocity=127, time=0),
    Message('note_on', channel=4, note=50, velocity=127, time=0),
    Message('note_on', channel=4, note=50, velocity=0, time=59),
    Message('note_on', channel=4, note=66, velocity=0, time=0),
    Message('note_on', channel=4, note=62, velocity=0, time=0),
    Message('note_on', channel=4, note=57, velocity=0, time=0),
    Message('note_on', channel=4, note=66, velocity=127, time=1),
    Message('note_on', channel=4, note=62, velocity=127, time=0),
    Message('note_on', channel=4, note=57, velocity=127, time=0),
    Message('note_on', channel=4, note=50, velocity=127, time=0),
    Message('note_on', channel=4, note=50, velocity=0, time=119),
    Message('note_on', channel=4, note=66, velocity=0, time=0),
    Message('note_on', channel=4, note=62, velocity=0, time=0),
    Message('note_on', channel=4, note=57, velocity=0, time=0),
    Message('note_on', channel=4, note=62, velocity=127, time=1),
    Message('note_on', channel=4, note=50, velocity=127, time=0),
    Message('note_on', channel=4, note=66, velocity=127, time=0),
    Message('note_on', channel=4, note=57, velocity=127, time=0),
    Message('note_on', channel=4, note=57, velocity=0, time=59),
    Message('note_on', channel=4, note=62, velocity=0, time=0),
    Message('note_on', channel=4, note=50, velocity=0, time=0),
    Message('note_on', channel=4, note=66, velocity=0, time=0),
    Message('note_on', channel=4, note=66, velocity=127, time=1),
    Message('note_on', channel=4, note=62, velocity=127, time=0),
    Message('note_on', channel=4, note=57, velocity=127, time=0),
    Message('note_on', channel=4, note=50, velocity=127, time=0),
    Message('note_on', channel=4, note=50, velocity=0, time=119),
    Message('note_on', channel=4, note=66, velocity=0, time=0),
    Message('note_on', channel=4, note=62, velocity=0, time=0),
    Message('note_on', channel=4, note=57, velocity=0, time=0),
    Message('note_on', channel=4, note=66, velocity=127, time=1),
    Message('note_on', channel=4, note=50, velocity=127, time=0),
    Message('note_on', channel=4, note=57, velocity=127, time=0),
    Message('note_on', channel=4, note=62, velocity=127, time=0),
    Message('note_on', channel=4, note=62, velocity=0, time=119),
    Message('note_on', channel=4, note=66, velocity=0, time=0),
    Message('note_on', channel=4, note=50, velocity=0, time=0),
    Message('note_on', channel=4, note=57, velocity=0, time=0),
    Message('note_on', channel=4, note=66, velocity=127, time=1),
    Message('note_on', channel=4, note=62, velocity=127, time=0),
    Message('note_on', channel=4, note=57, velocity=127, time=0),
    Message('note_on', channel=4, note=50, velocity=127, time=0),
    Message('note_on', channel=4, note=50, velocity=0, time=59),
    Message('note_on', channel=4, note=66, velocity=0, time=0),
    Message('note_on', channel=4, note=62, velocity=0, time=0),
    Message('note_on', channel=4, note=57, velocity=0, time=0),
    Message('note_on', channel=4, note=45, velocity=127, time=1),
    Message('note_on', channel=4, note=52, velocity=127, time=0),
    Message('note_on', channel=4, note=57, velocity=127, time=0),
    Message('note_on', channel=4, note=61, velocity=127, time=0),
    Message('note_on', channel=4, note=61, velocity=0, time=119),
    Message('note_on', channel=4, note=45, velocity=0, time=0),
    Message('note_on', channel=4, note=52, velocity=0, time=0),
    Message('note_on', channel=4, note=57, velocity=0, time=0),
    Message('note_on', channel=4, note=45, velocity=127, time=1),
    Message('note_on', channel=4, note=52, velocity=127, time=0),
    Message('note_on', channel=4, note=57, velocity=127, time=0),
    Message('note_on', channel=4, note=61, velocity=127, time=0),
    Message('note_on', channel=4, note=61, velocity=0, time=59),
    Message('note_on', channel=4, note=45, velocity=0, time=0),
    Message('note_on', channel=4, note=52, velocity=0, time=0),
    Message('note_on', channel=4, note=57, velocity=0, time=0),
    Message('note_on', channel=4, note=45, velocity=127, time=1),
    Message('note_on', channel=4, note=52, velocity=127, time=0),
    Message('note_on', channel=4, note=57, velocity=127, time=0),
    Message('note_on', channel=4, note=61, velocity=127, time=0),
    Message('note_on', channel=4, note=61, velocity=0, time=119),
    Message('note_on', channel=4, note=45, velocity=0, time=0),
    Message('note_on', channel=4, note=52, velocity=0, time=0),
    Message('note_on', channel=4, note=57, velocity=0, time=0),
    Message('note_on', channel=4, note=45, velocity=127, time=1),
    Message('note_on', channel=4, note=52, velocity=127, time=0),
    Message('note_on', channel=4, note=57, velocity=127, time=0),
    Message('note_on', channel=4, note=61, velocity=127, time=0),
    Message('note_on', channel=4, note=61, velocity=0, time=119),
    Message('note_on', channel=4, note=45, velocity=0, time=0),
    Message('note_on', channel=4, note=52, velocity=0, time=0),
    Message('note_on', channel=4, note=57, velocity=0, time=0),
    Message('note_on', channel=4, note=45, velocity=127, time=1),
    Message('note_on', channel=4, note=52, velocity=127, time=0),
    Message('note_on', channel=4, note=57, velocity=127, time=0),
    Message('note_on', channel=4, note=61, velocity=127, time=0),
    Message('note_on', channel=4, note=61, velocity=0, time=59),
    Message('note_on', channel=4, note=45, velocity=0, time=0),
    Message('note_on', channel=4, note=52, velocity=0, time=0),
    Message('note_on', channel=4, note=57, velocity=0, time=0),
    Message('note_on', channel=4, note=45, velocity=127, time=1),
    Message('note_on', channel=4, note=52, velocity=127, time=0),
    Message('note_on', channel=4, note=57, velocity=127, time=0),
    Message('note_on', channel=4, note=61, velocity=127, time=0),
    Message('note_on', channel=4, note=61, velocity=0, time=119),
    Message('note_on', channel=4, note=45, velocity=0, time=0),
    Message('note_on', channel=4, note=52, velocity=0, time=0),
    Message('note_on', channel=4, note=57, velocity=0, time=0),
    Message('note_on', channel=4, note=45, velocity=127, time=1),
    Message('note_on', channel=4, note=52, velocity=127, time=0),
    Message('note_on', channel=4, note=57, velocity=127, time=0),
    Message('note_on', channel=4, note=61, velocity=127, time=0),
    Message('note_on', channel=4, note=61, velocity=0, time=59),
    Message('note_on', channel=4, note=45, velocity=0, time=0),
    Message('note_on', channel=4, note=52, velocity=0, time=0),
    Message('note_on', channel=4, note=57, velocity=0, time=0),
    Message('note_on', channel=4, note=45, velocity=127, time=1),
    Message('note_on', channel=4, note=52, velocity=127, time=0),
    Message('note_on', channel=4, note=57, velocity=127, time=0),
    Message('note_on', channel=4, note=61, velocity=127, time=0),
    Message('note_on', channel=4, note=61, velocity=0, time=119),
    Message('note_on', channel=4, note=45, velocity=0, time=0),
    Message('note_on', channel=4, note=52, velocity=0, time=0),
    Message('note_on', channel=4, note=57, velocity=0, time=0),
    Message('note_on', channel=4, note=45, velocity=127, time=1),
    Message('note_on', channel=4, note=52, velocity=127, time=0),
    Message('note_on', channel=4, note=57, velocity=127, time=0),
    Message('note_on', channel=4, note=61, velocity=127, time=0),
    Message('note_on', channel=4, note=61, velocity=0, time=119),
    Message('note_on', channel=4, note=45, velocity=0, time=0),
    Message('note_on', channel=4, note=52, velocity=0, time=0),
    Message('note_on', channel=4, note=57, velocity=0, time=0),
    Message('note_on', channel=4, note=45, velocity=127, time=1),
    Message('note_on', channel=4, note=52, velocity=127, time=0),
    Message('note_on', channel=4, note=57, velocity=127, time=0),
    Message('note_on', channel=4, note=61, velocity=127, time=0),
    Message('note_on', channel=4, note=61, velocity=0, time=59),
    Message('note_on', channel=4, note=45, velocity=0, time=0),
    Message('note_on', channel=4, note=52, velocity=0, time=0),
    Message('note_on', channel=4, note=57, velocity=0, time=0),
    Message('note_on', channel=4, note=43, velocity=127, time=1),
    Message('note_on', channel=4, note=67, velocity=127, time=0),
    Message('note_on', channel=4, note=62, velocity=127, time=0),
    Message('note_on', channel=4, note=55, velocity=127, time=0),
    Message('note_on', channel=4, note=50, velocity=127, time=0),
    Message('note_on', channel=4, note=47, velocity=127, time=0),
    Message('note_on', channel=4, note=47, velocity=0, time=179),
    Message('note_on', channel=4, note=67, velocity=0, time=0),
    Message('note_on', channel=4, note=62, velocity=0, time=0),
    Message('note_on', channel=4, note=43, velocity=0, time=0),
    Message('note_on', channel=4, note=50, velocity=0, time=0),
    Message('note_on', channel=4, note=55, velocity=0, time=0),
    Message('note_on', channel=4, note=67, velocity=127, time=1),
    Message('note_on', channel=4, note=62, velocity=127, time=0),
    Message('note_on', channel=4, note=55, velocity=127, time=0),
    Message('note_on', channel=4, note=50, velocity=127, time=0),
    Message('note_on', channel=4, note=47, velocity=127, time=0),
    Message('note_on', channel=4, note=43, velocity=127, time=0),
    Message('note_on', channel=4, note=43, velocity=0, time=179),
    Message('note_on', channel=4, note=62, velocity=0, time=0),
    Message('note_on', channel=4, note=55, velocity=0, time=0),
    Message('note_on', channel=4, note=67, velocity=0, time=0),
    Message('note_on', channel=4, note=47, velocity=0, time=0),
    Message('note_on', channel=4, note=50, velocity=0, time=0),
    Message('note_on', channel=4, note=67, velocity=127, time=1),
    Message('note_on', channel=4, note=62, velocity=127, time=0),
    Message('note_on', channel=4, note=55, velocity=127, time=0),
    Message('note_on', channel=4, note=43, velocity=127, time=0),
    Message('note_on', channel=4, note=47, velocity=127, time=0),
    Message('note_on', channel=4, note=50, velocity=127, time=0),
    Message('note_on', channel=4, note=50, velocity=0, time=59),
    Message('note_on', channel=4, note=62, velocity=0, time=0),
    Message('note_on', channel=4, note=55, velocity=0, time=0),
    Message('note_on', channel=4, note=67, velocity=0, time=0),
    Message('note_on', channel=4, note=47, velocity=0, time=0),
    Message('note_on', channel=4, note=43, velocity=0, time=0),
    Message('note_on', channel=4, note=43, velocity=127, time=61),
    Message('note_on', channel=4, note=67, velocity=127, time=0),
    Message('note_on', channel=4, note=62, velocity=127, time=0),
    Message('note_on', channel=4, note=55, velocity=127, time=0),
    Message('note_on', channel=4, note=50, velocity=127, time=0),
    Message('note_on', channel=4, note=47, velocity=127, time=0),
    Message('note_on', channel=4, note=47, velocity=0, time=179),
    Message('note_on', channel=4, note=67, velocity=0, time=0),
    Message('note_on', channel=4, note=62, velocity=0, time=0),
    Message('note_on', channel=4, note=43, velocity=0, time=0),
    Message('note_on', channel=4, note=50, velocity=0, time=0),
    Message('note_on', channel=4, note=55, velocity=0, time=0),
    Message('note_on', channel=4, note=67, velocity=127, time=1),
    Message('note_on', channel=4, note=62, velocity=127, time=0),
    Message('note_on', channel=4, note=55, velocity=127, time=0),
    Message('note_on', channel=4, note=50, velocity=127, time=0),
    Message('note_on', channel=4, note=47, velocity=127, time=0),
    Message('note_on', channel=4, note=43, velocity=127, time=0),
    Message('note_on', channel=4, note=43, velocity=0, time=179),
    Message('note_on', channel=4, note=62, velocity=0, time=0),
    Message('note_on', channel=4, note=55, velocity=0, time=0),
    Message('note_on', channel=4, note=67, velocity=0, time=0),
    Message('note_on', channel=4, note=47, velocity=0, time=0),
    Message('note_on', channel=4, note=50, velocity=0, time=0),
    Message('note_on', channel=4, note=67, velocity=127, time=1),
    Message('note_on', channel=4, note=62, velocity=127, time=0),
    Message('note_on', channel=4, note=55, velocity=127, time=0),
    Message('note_on', channel=4, note=43, velocity=127, time=0),
    Message('note_on', channel=4, note=47, velocity=127, time=0),
    Message('note_on', channel=4, note=50, velocity=127, time=0),
    Message('note_on', channel=4, note=50, velocity=0, time=119),
    Message('note_on', channel=4, note=62, velocity=0, time=0),
    Message('note_on', channel=4, note=55, velocity=0, time=0),
    Message('note_on', channel=4, note=67, velocity=0, time=0),
    Message('note_on', channel=4, note=47, velocity=0, time=0),
    Message('note_on', channel=4, note=43, velocity=0, time=0),
    Message('note_on', channel=4, note=43, velocity=127, time=1),
    Message('note_on', channel=4, note=67, velocity=127, time=0),
    Message('note_on', channel=4, note=62, velocity=127, time=0),
    Message('note_on', channel=4, note=55, velocity=127, time=0),
    Message('note_on', channel=4, note=50, velocity=127, time=0),
    Message('note_on', channel=4, note=47, velocity=127, time=0),
    Message('note_on', channel=4, note=47, velocity=0, time=179),
    Message('note_on', channel=4, note=67, velocity=0, time=0),
    Message('note_on', channel=4, note=62, velocity=0, time=0),
    Message('note_on', channel=4, note=43, velocity=0, time=0),
    Message('note_on', channel=4, note=50, velocity=0, time=0),
    Message('note_on', channel=4, note=55, velocity=0, time=0),
    Message('note_on', channel=4, note=67, velocity=127, time=1),
    Message('note_on', channel=4, note=62, velocity=127, time=0),
    Message('note_on', channel=4, note=55, velocity=127, time=0),
    Message('note_on', channel=4, note=50, velocity=127, time=0),
    Message('note_on', channel=4, note=47, velocity=127, time=0),
    Message('note_on', channel=4, note=43, velocity=127, time=0),
    Message('note_on', channel=4, note=43, velocity=0, time=179),
    Message('note_on', channel=4, note=62, velocity=0, time=0),
    Message('note_on', channel=4, note=55, velocity=0, time=0),
    Message('note_on', channel=4, note=67, velocity=0, time=0),
    Message('note_on', channel=4, note=47, velocity=0, time=0),
    Message('note_on', channel=4, note=50, velocity=0, time=0),
    Message('note_on', channel=4, note=67, velocity=127, time=1),
    Message('note_on', channel=4, note=62, velocity=127, time=0),
    Message('note_on', channel=4, note=55, velocity=127, time=0),
    Message('note_on', channel=4, note=43, velocity=127, time=0),
    Message('note_on', channel=4, note=47, velocity=127, time=0),
    Message('note_on', channel=4, note=50, velocity=127, time=0),
    Message('note_on', channel=4, note=50, velocity=0, time=59),
    Message('note_on', channel=4, note=62, velocity=0, time=0),
    Message('note_on', channel=4, note=55, velocity=0, time=0),
    Message('note_on', channel=4, note=67, velocity=0, time=0),
    Message('note_on', channel=4, note=47, velocity=0, time=0),
    Message('note_on', channel=4, note=43, velocity=0, time=0),
    Message('note_on', channel=4, note=67, velocity=127, time=1),
    Message('note_on', channel=4, note=62, velocity=127, time=0),
    Message('note_on', channel=4, note=55, velocity=127, time=0),
    Message('note_on', channel=4, note=50, velocity=127, time=0),
    Message('note_on', channel=4, note=47, velocity=127, time=0),
    Message('note_on', channel=4, note=43, velocity=127, time=0),
    Message('note_on', channel=4, note=43, velocity=0, time=59),
    Message('note_on', channel=4, note=62, velocity=0, time=0),
    Message('note_on', channel=4, note=55, velocity=0, time=0),
    Message('note_on', channel=4, note=67, velocity=0, time=0),
    Message('note_on', channel=4, note=47, velocity=0, time=0),
    Message('note_on', channel=4, note=50, velocity=0, time=0),
    Message('note_on', channel=4, note=43, velocity=127, time=1),
    Message('note_on', channel=4, note=47, velocity=127, time=0),
    Message('note_on', channel=4, note=50, velocity=127, time=0),
    Message('note_on', channel=4, note=55, velocity=127, time=0),
    Message('note_on', channel=4, note=62, velocity=127, time=0),
    Message('note_on', channel=4, note=67, velocity=127, time=0),
    Message('note_on', channel=4, note=67, velocity=0, time=119),
    Message('note_on', channel=4, note=47, velocity=0, time=0),
    Message('note_on', channel=4, note=50, velocity=0, time=0),
    Message('note_on', channel=4, note=43, velocity=0, time=0),
    Message('note_on', channel=4, note=62, velocity=0, time=0),
    Message('note_on', channel=4, note=55, velocity=0, time=0),
    Message('note_on', channel=4, note=43, velocity=127, time=1),
    Message('note_on', channel=4, note=47, velocity=127, time=0),
    Message('note_on', channel=4, note=50, velocity=127, time=0),
    Message('note_on', channel=4, note=55, velocity=127, time=0),
    Message('note_on', channel=4, note=62, velocity=127, time=0),
    Message('note_on', channel=4, note=67, velocity=127, time=0),
    Message('note_on', channel=4, note=67, velocity=0, time=59),
    Message('note_on', channel=4, note=47, velocity=0, time=0),
    Message('note_on', channel=4, note=50, velocity=0, time=0),
    Message('note_on', channel=4, note=43, velocity=0, time=0),
    Message('note_on', channel=4, note=62, velocity=0, time=0),
    Message('note_on', channel=4, note=55, velocity=0, time=0),
    Message('note_on', channel=4, note=67, velocity=127, time=1),
    Message('note_on', channel=4, note=62, velocity=127, time=0),
    Message('note_on', channel=4, note=55, velocity=127, time=0),
    Message('note_on', channel=4, note=50, velocity=127, time=0),
    Message('note_on', channel=4, note=47, velocity=127, time=0),
    Message('note_on', channel=4, note=43, velocity=127, time=0),
    Message('note_on', channel=4, note=43, velocity=0, time=119),
    Message('note_on', channel=4, note=62, velocity=0, time=0),
    Message('note_on', channel=4, note=55, velocity=0, time=0),
    Message('note_on', channel=4, note=67, velocity=0, time=0),
    Message('note_on', channel=4, note=47, velocity=0, time=0),
    Message('note_on', channel=4, note=50, velocity=0, time=0),
    Message('note_on', channel=4, note=43, velocity=127, time=1),
    Message('note_on', channel=4, note=67, velocity=127, time=0),
    Message('note_on', channel=4, note=62, velocity=127, time=0),
    Message('note_on', channel=4, note=55, velocity=127, time=0),
    Message('note_on', channel=4, note=50, velocity=127, time=0),
    Message('note_on', channel=4, note=47, velocity=127, time=0),
    Message('note_on', channel=4, note=47, velocity=0, time=59),
    Message('note_on', channel=4, note=67, velocity=0, time=0),
    Message('note_on', channel=4, note=62, velocity=0, time=0),
    Message('note_on', channel=4, note=43, velocity=0, time=0),
    Message('note_on', channel=4, note=50, velocity=0, time=0),
    Message('note_on', channel=4, note=55, velocity=0, time=0),
    Message('note_on', channel=4, note=67, velocity=127, time=1),
    Message('note_on', channel=4, note=62, velocity=127, time=0),
    Message('note_on', channel=4, note=55, velocity=127, time=0),
    Message('note_on', channel=4, note=50, velocity=127, time=0),
    Message('note_on', channel=4, note=47, velocity=127, time=0),
    Message('note_on', channel=4, note=43, velocity=127, time=0),
    Message('note_on', channel=4, note=43, velocity=0, time=59),
    Message('note_on', channel=4, note=62, velocity=0, time=0),
    Message('note_on', channel=4, note=55, velocity=0, time=0),
    Message('note_on', channel=4, note=67, velocity=0, time=0),
    Message('note_on', channel=4, note=47, velocity=0, time=0),
    Message('note_on', channel=4, note=50, velocity=0, time=0),
    Message('note_on', channel=4, note=67, velocity=127, time=1),
    Message('note_on', channel=4, note=62, velocity=127, time=0),
    Message('note_on', channel=4, note=55, velocity=127, time=0),
    Message('note_on', channel=4, note=50, velocity=127, time=0),
    Message('note_on', channel=4, note=47, velocity=127, time=0),
    Message('note_on', channel=4, note=43, velocity=127, time=0),
    Message('note_on', channel=4, note=43, velocity=0, time=59),
    Message('note_on', channel=4, note=62, velocity=0, time=0),
    Message('note_on', channel=4, note=55, velocity=0, time=0),
    Message('note_on', channel=4, note=67, velocity=0, time=0),
    Message('note_on', channel=4, note=47, velocity=0, time=0),
    Message('note_on', channel=4, note=50, velocity=0, time=0),
    Message('note_on', channel=4, note=50, velocity=127, time=1),
    Message('note_on', channel=4, note=66, velocity=127, time=0),
    Message('note_on', channel=4, note=62, velocity=127, time=0),
    Message('note_on', channel=4, note=57, velocity=127, time=0),
    Message('note_on', channel=4, note=57, velocity=0, time=179),
    Message('note_on', channel=4, note=50, velocity=0, time=0),
    Message('note_on', channel=4, note=66, velocity=0, time=0),
    Message('note_on', channel=4, note=62, velocity=0, time=0),
    Message('note_on', channel=4, note=50, velocity=127, time=1),
    Message('note_on', channel=4, note=66, velocity=127, time=0),
    Message('note_on', channel=4, note=57, velocity=127, time=0),
    Message('note_on', channel=4, note=62, velocity=127, time=0),
    Message('note_on', channel=4, note=62, velocity=0, time=119),
    Message('note_on', channel=4, note=50, velocity=0, time=0),
    Message('note_on', channel=4, note=66, velocity=0, time=0),
    Message('note_on', channel=4, note=57, velocity=0, time=0),
    Message('note_on', channel=4, note=57, velocity=127, time=1),
    Message('note_on', channel=4, note=62, velocity=127, time=0),
    Message('note_on', channel=4, note=64, velocity=127, time=0),
    Message('note_on', channel=4, note=50, velocity=127, time=0),
    Message('note_on', channel=4, note=45, velocity=127, time=120),
    Message('note_on', channel=4, note=45, velocity=0, time=59),
    Message('note_on', channel=4, note=64, velocity=0, time=0),
    Message('note_on', channel=4, note=57, velocity=0, time=0),
    Message('note_on', channel=4, note=62, velocity=0, time=0),
    Message('note_on', channel=4, note=50, velocity=0, time=0),
    Message('note_on', channel=4, note=61, velocity=127, time=1),
    Message('note_on', channel=4, note=57, velocity=127, time=0),
    Message('note_on', channel=4, note=52, velocity=127, time=0),
    Message('note_on', channel=4, note=45, velocity=127, time=0),
    Message('note_on', channel=4, note=45, velocity=0, time=119),
    Message('note_on', channel=4, note=61, velocity=0, time=0),
    Message('note_on', channel=4, note=57, velocity=0, time=0),
    Message('note_on', channel=4, note=52, velocity=0, time=0),
    Message('note_on', channel=4, note=61, velocity=127, time=1),
    Message('note_on', channel=4, note=57, velocity=127, time=0),
    Message('note_on', channel=4, note=52, velocity=127, time=0),
    Message('note_on', channel=4, note=45, velocity=127, time=0),
    Message('note_on', channel=4, note=45, velocity=0, time=59),
    Message('note_on', channel=4, note=61, velocity=0, time=0),
    Message('note_on', channel=4, note=57, velocity=0, time=0),
    Message('note_on', channel=4, note=52, velocity=0, time=0),
    Message('note_on', channel=4, note=45, velocity=127, time=1),
    Message('note_on', channel=4, note=52, velocity=127, time=0),
    Message('note_on', channel=4, note=61, velocity=127, time=0),
    Message('note_on', channel=4, note=57, velocity=127, time=0),
    Message('note_on', channel=4, note=57, velocity=0, time=59),
    Message('note_on', channel=4, note=45, velocity=0, time=0),
    Message('note_on', channel=4, note=52, velocity=0, time=0),
    Message('note_on', channel=4, note=61, velocity=0, time=0),
    Message('note_on', channel=4, note=43, velocity=127, time=1),
    Message('note_on', channel=4, note=67, velocity=127, time=0),
    Message('note_on', channel=4, note=62, velocity=127, time=0),
    Message('note_on', channel=4, note=55, velocity=127, time=0),
    Message('note_on', channel=4, note=50, velocity=127, time=0),
    Message('note_on', channel=4, note=47, velocity=127, time=0),
    Message('note_on', channel=4, note=47, velocity=0, time=119),
    Message('note_on', channel=4, note=67, velocity=0, time=0),
    Message('note_on', channel=4, note=62, velocity=0, time=0),
    Message('note_on', channel=4, note=43, velocity=0, time=0),
    Message('note_on', channel=4, note=50, velocity=0, time=0),
    Message('note_on', channel=4, note=55, velocity=0, time=0),
    Message('note_on', channel=4, note=67, velocity=127, time=1),
    Message('note_on', channel=4, note=62, velocity=127, time=0),
    Message('note_on', channel=4, note=55, velocity=127, time=0),
    Message('note_on', channel=4, note=50, velocity=127, time=0),
    Message('note_on', channel=4, note=47, velocity=127, time=0),
    Message('note_on', channel=4, note=43, velocity=127, time=0),
    Message('note_on', channel=4, note=43, velocity=0, time=59),
    Message('note_on', channel=4, note=62, velocity=0, time=0),
    Message('note_on', channel=4, note=55, velocity=0, time=0),
    Message('note_on', channel=4, note=67, velocity=0, time=0),
    Message('note_on', channel=4, note=47, velocity=0, time=0),
    Message('note_on', channel=4, note=50, velocity=0, time=0),
    Message('note_on', channel=4, note=67, velocity=127, time=1),
    Message('note_on', channel=4, note=62, velocity=127, time=0),
    Message('note_on', channel=4, note=55, velocity=127, time=0),
    Message('note_on', channel=4, note=50, velocity=127, time=0),
    Message('note_on', channel=4, note=47, velocity=127, time=0),
    Message('note_on', channel=4, note=43, velocity=127, time=0),
    Message('note_on', channel=4, note=43, velocity=0, time=59),
    Message('note_on', channel=4, note=62, velocity=0, time=0),
    Message('note_on', channel=4, note=55, velocity=0, time=0),
    Message('note_on', channel=4, note=67, velocity=0, time=0),
    Message('note_on', channel=4, note=47, velocity=0, time=0),
    Message('note_on', channel=4, note=50, velocity=0, time=0),
    Message('note_on', channel=4, note=50, velocity=127, time=1),
    Message('note_on', channel=4, note=66, velocity=127, time=0),
    Message('note_on', channel=4, note=62, velocity=127, time=0),
    Message('note_on', channel=4, note=57, velocity=127, time=0),
    Message('note_on', channel=4, note=57, velocity=0, time=179),
    Message('note_on', channel=4, note=50, velocity=0, time=0),
    Message('note_on', channel=4, note=66, velocity=0, time=0),
    Message('note_on', channel=4, note=62, velocity=0, time=0),
    Message('note_on', channel=4, note=50, velocity=127, time=1),
    Message('note_on', channel=4, note=66, velocity=127, time=0),
    Message('note_on', channel=4, note=57, velocity=127, time=0),
    Message('note_on', channel=4, note=62, velocity=127, time=0),
    Message('note_on', channel=4, note=62, velocity=0, time=119),
    Message('note_on', channel=4, note=50, velocity=0, time=0),
    Message('note_on', channel=4, note=66, velocity=0, time=0),
    Message('note_on', channel=4, note=57, velocity=0, time=0),
    Message('note_on', channel=4, note=57, velocity=127, time=1),
    Message('note_on', channel=4, note=62, velocity=127, time=0),
    Message('note_on', channel=4, note=64, velocity=127, time=0),
    Message('note_on', channel=4, note=50, velocity=127, time=0),
    Message('note_on', channel=4, note=45, velocity=127, time=120),
    Message('note_on', channel=4, note=45, velocity=0, time=59),
    Message('note_on', channel=4, note=64, velocity=0, time=0),
    Message('note_on', channel=4, note=57, velocity=0, time=0),
    Message('note_on', channel=4, note=62, velocity=0, time=0),
    Message('note_on', channel=4, note=50, velocity=0, time=0),
    Message('note_on', channel=4, note=61, velocity=127, time=1),
    Message('note_on', channel=4, note=57, velocity=127, time=0),
    Message('note_on', channel=4, note=52, velocity=127, time=0),
    Message('note_on', channel=4, note=45, velocity=127, time=0),
    Message('note_on', channel=4, note=45, velocity=0, time=119),
    Message('note_on', channel=4, note=61, velocity=0, time=0),
    Message('note_on', channel=4, note=57, velocity=0, time=0),
    Message('note_on', channel=4, note=52, velocity=0, time=0),
    Message('note_on', channel=4, note=61, velocity=127, time=1),
    Message('note_on', channel=4, note=57, velocity=127, time=0),
    Message('note_on', channel=4, note=52, velocity=127, time=0),
    Message('note_on', channel=4, note=45, velocity=127, time=0),
    Message('note_on', channel=4, note=45, velocity=0, time=59),
    Message('note_on', channel=4, note=61, velocity=0, time=0),
    Message('note_on', channel=4, note=57, velocity=0, time=0),
    Message('note_on', channel=4, note=52, velocity=0, time=0),
    Message('note_on', channel=4, note=45, velocity=127, time=1),
    Message('note_on', channel=4, note=52, velocity=127, time=0),
    Message('note_on', channel=4, note=61, velocity=127, time=0),
    Message('note_on', channel=4, note=57, velocity=127, time=0),
    Message('note_on', channel=4, note=57, velocity=0, time=59),
    Message('note_on', channel=4, note=45, velocity=0, time=0),
    Message('note_on', channel=4, note=52, velocity=0, time=0),
    Message('note_on', channel=4, note=61, velocity=0, time=0),
    Message('note_on', channel=4, note=43, velocity=127, time=1),
    Message('note_on', channel=4, note=67, velocity=127, time=0),
    Message('note_on', channel=4, note=62, velocity=127, time=0),
    Message('note_on', channel=4, note=55, velocity=127, time=0),
    Message('note_on', channel=4, note=50, velocity=127, time=0),
    Message('note_on', channel=4, note=47, velocity=127, time=0),
    Message('note_on', channel=4, note=47, velocity=0, time=119),
    Message('note_on', channel=4, note=67, velocity=0, time=0),
    Message('note_on', channel=4, note=62, velocity=0, time=0),
    Message('note_on', channel=4, note=43, velocity=0, time=0),
    Message('note_on', channel=4, note=50, velocity=0, time=0),
    Message('note_on', channel=4, note=55, velocity=0, time=0),
    Message('note_on', channel=4, note=67, velocity=127, time=1),
    Message('note_on', channel=4, note=62, velocity=127, time=0),
    Message('note_on', channel=4, note=55, velocity=127, time=0),
    Message('note_on', channel=4, note=50, velocity=127, time=0),
    Message('note_on', channel=4, note=47, velocity=127, time=0),
    Message('note_on', channel=4, note=43, velocity=127, time=0),
    Message('note_on', channel=4, note=43, velocity=0, time=59),
    Message('note_on', channel=4, note=62, velocity=0, time=0),
    Message('note_on', channel=4, note=55, velocity=0, time=0),
    Message('note_on', channel=4, note=67, velocity=0, time=0),
    Message('note_on', channel=4, note=47, velocity=0, time=0),
    Message('note_on', channel=4, note=50, velocity=0, time=0),
    Message('note_on', channel=4, note=67, velocity=127, time=1),
    Message('note_on', channel=4, note=62, velocity=127, time=0),
    Message('note_on', channel=4, note=55, velocity=127, time=0),
    Message('note_on', channel=4, note=50, velocity=127, time=0),
    Message('note_on', channel=4, note=47, velocity=127, time=0),
    Message('note_on', channel=4, note=43, velocity=127, time=0),
    Message('note_on', channel=4, note=43, velocity=0, time=59),
    Message('note_on', channel=4, note=62, velocity=0, time=0),
    Message('note_on', channel=4, note=55, velocity=0, time=0),
    Message('note_on', channel=4, note=67, velocity=0, time=0),
    Message('note_on', channel=4, note=47, velocity=0, time=0),
    Message('note_on', channel=4, note=50, velocity=0, time=0),
    Message('note_on', channel=4, note=50, velocity=127, time=1),
    Message('note_on', channel=4, note=66, velocity=127, time=0),
    Message('note_on', channel=4, note=62, velocity=127, time=0),
    Message('note_on', channel=4, note=57, velocity=127, time=0),
    Message('note_on', channel=4, note=57, velocity=0, time=179),
    Message('note_on', channel=4, note=50, velocity=0, time=0),
    Message('note_on', channel=4, note=66, velocity=0, time=0),
    Message('note_on', channel=4, note=62, velocity=0, time=0),
    Message('note_on', channel=4, note=50, velocity=127, time=1),
    Message('note_on', channel=4, note=66, velocity=127, time=0),
    Message('note_on', channel=4, note=57, velocity=127, time=0),
    Message('note_on', channel=4, note=62, velocity=127, time=0),
    Message('note_on', channel=4, note=62, velocity=0, time=119),
    Message('note_on', channel=4, note=50, velocity=0, time=0),
    Message('note_on', channel=4, note=66, velocity=0, time=0),
    Message('note_on', channel=4, note=57, velocity=0, time=0),
    Message('note_on', channel=4, note=57, velocity=127, time=1),
    Message('note_on', channel=4, note=62, velocity=127, time=0),
    Message('note_on', channel=4, note=64, velocity=127, time=0),
    Message('note_on', channel=4, note=50, velocity=127, time=0),
    Message('note_on', channel=4, note=45, velocity=127, time=120),
    Message('note_on', channel=4, note=45, velocity=0, time=59),
    Message('note_on', channel=4, note=64, velocity=0, time=0),
    Message('note_on', channel=4, note=57, velocity=0, time=0),
    Message('note_on', channel=4, note=62, velocity=0, time=0),
    Message('note_on', channel=4, note=50, velocity=0, time=0),
    Message('note_on', channel=4, note=61, velocity=127, time=1),
    Message('note_on', channel=4, note=57, velocity=127, time=0),
    Message('note_on', channel=4, note=52, velocity=127, time=0),
    Message('note_on', channel=4, note=45, velocity=127, time=0),
    Message('note_on', channel=4, note=45, velocity=0, time=119),
    Message('note_on', channel=4, note=61, velocity=0, time=0),
    Message('note_on', channel=4, note=57, velocity=0, time=0),
    Message('note_on', channel=4, note=52, velocity=0, time=0),
    Message('note_on', channel=4, note=61, velocity=127, time=1),
    Message('note_on', channel=4, note=57, velocity=127, time=0),
    Message('note_on', channel=4, note=52, velocity=127, time=0),
    Message('note_on', channel=4, note=45, velocity=127, time=0),
    Message('note_on', channel=4, note=45, velocity=0, time=59),
    Message('note_on', channel=4, note=61, velocity=0, time=0),
    Message('note_on', channel=4, note=57, velocity=0, time=0),
    Message('note_on', channel=4, note=52, velocity=0, time=0),
    Message('note_on', channel=4, note=45, velocity=127, time=1),
    Message('note_on', channel=4, note=52, velocity=127, time=0),
    Message('note_on', channel=4, note=61, velocity=127, time=0),
    Message('note_on', channel=4, note=57, velocity=127, time=0),
    Message('note_on', channel=4, note=57, velocity=0, time=59),
    Message('note_on', channel=4, note=45, velocity=0, time=0),
    Message('note_on', channel=4, note=52, velocity=0, time=0),
    Message('note_on', channel=4, note=61, velocity=0, time=0),
    Message('note_on', channel=4, note=43, velocity=127, time=1),
    Message('note_on', channel=4, note=67, velocity=127, time=0),
    Message('note_on', channel=4, note=62, velocity=127, time=0),
    Message('note_on', channel=4, note=55, velocity=127, time=0),
    Message('note_on', channel=4, note=50, velocity=127, time=0),
    Message('note_on', channel=4, note=47, velocity=127, time=0),
    Message('note_on', channel=4, note=47, velocity=0, time=119),
    Message('note_on', channel=4, note=67, velocity=0, time=0),
    Message('note_on', channel=4, note=62, velocity=0, time=0),
    Message('note_on', channel=4, note=43, velocity=0, time=0),
    Message('note_on', channel=4, note=50, velocity=0, time=0),
    Message('note_on', channel=4, note=55, velocity=0, time=0),
    Message('note_on', channel=4, note=67, velocity=127, time=1),
    Message('note_on', channel=4, note=62, velocity=127, time=0),
    Message('note_on', channel=4, note=55, velocity=127, time=0),
    Message('note_on', channel=4, note=50, velocity=127, time=0),
    Message('note_on', channel=4, note=47, velocity=127, time=0),
    Message('note_on', channel=4, note=43, velocity=127, time=0),
    Message('note_on', channel=4, note=43, velocity=0, time=59),
    Message('note_on', channel=4, note=62, velocity=0, time=0),
    Message('note_on', channel=4, note=55, velocity=0, time=0),
    Message('note_on', channel=4, note=67, velocity=0, time=0),
    Message('note_on', channel=4, note=47, velocity=0, time=0),
    Message('note_on', channel=4, note=50, velocity=0, time=0),
    Message('note_on', channel=4, note=67, velocity=127, time=1),
    Message('note_on', channel=4, note=62, velocity=127, time=0),
    Message('note_on', channel=4, note=55, velocity=127, time=0),
    Message('note_on', channel=4, note=50, velocity=127, time=0),
    Message('note_on', channel=4, note=47, velocity=127, time=0),
    Message('note_on', channel=4, note=43, velocity=127, time=0),
    Message('note_on', channel=4, note=43, velocity=0, time=59),
    Message('note_on', channel=4, note=62, velocity=0, time=0),
    Message('note_on', channel=4, note=55, velocity=0, time=0),
    Message('note_on', channel=4, note=67, velocity=0, time=0),
    Message('note_on', channel=4, note=47, velocity=0, time=0),
    Message('note_on', channel=4, note=50, velocity=0, time=0),
    Message('note_on', channel=4, note=50, velocity=127, time=1),
    Message('note_on', channel=4, note=66, velocity=127, time=0),
    Message('note_on', channel=4, note=62, velocity=127, time=0),
    Message('note_on', channel=4, note=57, velocity=127, time=0),
    Message('note_on', channel=4, note=57, velocity=0, time=179),
    Message('note_on', channel=4, note=50, velocity=0, time=0),
    Message('note_on', channel=4, note=66, velocity=0, time=0),
    Message('note_on', channel=4, note=62, velocity=0, time=0),
    Message('note_on', channel=4, note=50, velocity=127, time=1),
    Message('note_on', channel=4, note=66, velocity=127, time=0),
    Message('note_on', channel=4, note=57, velocity=127, time=0),
    Message('note_on', channel=4, note=62, velocity=127, time=0),
    Message('note_on', channel=4, note=62, velocity=0, time=119),
    Message('note_on', channel=4, note=50, velocity=0, time=0),
    Message('note_on', channel=4, note=66, velocity=0, time=0),
    Message('note_on', channel=4, note=57, velocity=0, time=0),
    Message('note_on', channel=4, note=57, velocity=127, time=1),
    Message('note_on', channel=4, note=62, velocity=127, time=0),
    Message('note_on', channel=4, note=64, velocity=127, time=0),
    Message('note_on', channel=4, note=50, velocity=127, time=0),
    Message('note_on', channel=4, note=45, velocity=127, time=120),
    Message('note_on', channel=4, note=45, velocity=0, time=59),
    Message('note_on', channel=4, note=64, velocity=0, time=0),
    Message('note_on', channel=4, note=57, velocity=0, time=0),
    Message('note_on', channel=4, note=62, velocity=0, time=0),
    Message('note_on', channel=4, note=50, velocity=0, time=0),
    Message('note_on', channel=4, note=61, velocity=127, time=1),
    Message('note_on', channel=4, note=57, velocity=127, time=0),
    Message('note_on', channel=4, note=52, velocity=127, time=0),
    Message('note_on', channel=4, note=45, velocity=127, time=0),
    Message('note_on', channel=4, note=45, velocity=0, time=119),
    Message('note_on', channel=4, note=61, velocity=0, time=0),
    Message('note_on', channel=4, note=57, velocity=0, time=0),
    Message('note_on', channel=4, note=52, velocity=0, time=0),
    Message('note_on', channel=4, note=61, velocity=127, time=1),
    Message('note_on', channel=4, note=57, velocity=127, time=0),
    Message('note_on', channel=4, note=52, velocity=127, time=0),
    Message('note_on', channel=4, note=45, velocity=127, time=0),
    Message('note_on', channel=4, note=45, velocity=0, time=59),
    Message('note_on', channel=4, note=61, velocity=0, time=0),
    Message('note_on', channel=4, note=57, velocity=0, time=0),
    Message('note_on', channel=4, note=52, velocity=0, time=0),
    Message('note_on', channel=4, note=45, velocity=127, time=1),
    Message('note_on', channel=4, note=52, velocity=127, time=0),
    Message('note_on', channel=4, note=61, velocity=127, time=0),
    Message('note_on', channel=4, note=57, velocity=127, time=0),
    Message('note_on', channel=4, note=57, velocity=0, time=59),
    Message('note_on', channel=4, note=45, velocity=0, time=0),
    Message('note_on', channel=4, note=52, velocity=0, time=0),
    Message('note_on', channel=4, note=61, velocity=0, time=0),
    Message('note_on', channel=4, note=43, velocity=127, time=1),
    Message('note_on', channel=4, note=67, velocity=127, time=0),
    Message('note_on', channel=4, note=62, velocity=127, time=0),
    Message('note_on', channel=4, note=55, velocity=127, time=0),
    Message('note_on', channel=4, note=50, velocity=127, time=0),
    Message('note_on', channel=4, note=47, velocity=127, time=0),
    Message('note_on', channel=4, note=47, velocity=0, time=119),
    Message('note_on', channel=4, note=67, velocity=0, time=0),
    Message('note_on', channel=4, note=62, velocity=0, time=0),
    Message('note_on', channel=4, note=43, velocity=0, time=0),
    Message('note_on', channel=4, note=50, velocity=0, time=0),
    Message('note_on', channel=4, note=55, velocity=0, time=0),
    Message('note_on', channel=4, note=67, velocity=127, time=1),
    Message('note_on', channel=4, note=62, velocity=127, time=0),
    Message('note_on', channel=4, note=55, velocity=127, time=0),
    Message('note_on', channel=4, note=50, velocity=127, time=0),
    Message('note_on', channel=4, note=47, velocity=127, time=0),
    Message('note_on', channel=4, note=43, velocity=127, time=0),
    Message('note_on', channel=4, note=43, velocity=0, time=59),
    Message('note_on', channel=4, note=62, velocity=0, time=0),
    Message('note_on', channel=4, note=55, velocity=0, time=0),
    Message('note_on', channel=4, note=67, velocity=0, time=0),
    Message('note_on', channel=4, note=47, velocity=0, time=0),
    Message('note_on', channel=4, note=50, velocity=0, time=0),
    Message('note_on', channel=4, note=67, velocity=127, time=1),
    Message('note_on', channel=4, note=62, velocity=127, time=0),
    Message('note_on', channel=4, note=55, velocity=127, time=0),
    Message('note_on', channel=4, note=50, velocity=127, time=0),
    Message('note_on', channel=4, note=47, velocity=127, time=0),
    Message('note_on', channel=4, note=43, velocity=127, time=0),
    Message('note_on', channel=4, note=43, velocity=0, time=59),
    Message('note_on', channel=4, note=62, velocity=0, time=0),
    Message('note_on', channel=4, note=55, velocity=0, time=0),
    Message('note_on', channel=4, note=67, velocity=0, time=0),
    Message('note_on', channel=4, note=47, velocity=0, time=0),
    Message('note_on', channel=4, note=50, velocity=0, time=0),
    Message('note_on', channel=4, note=50, velocity=127, time=1),
    Message('note_on', channel=4, note=66, velocity=127, time=0),
    Message('note_on', channel=4, note=62, velocity=127, time=0),
    Message('note_on', channel=4, note=57, velocity=127, time=0),
    Message('note_on', channel=4, note=57, velocity=0, time=179),
    Message('note_on', channel=4, note=50, velocity=0, time=0),
    Message('note_on', channel=4, note=66, velocity=0, time=0),
    Message('note_on', channel=4, note=62, velocity=0, time=0),
    Message('note_on', channel=4, note=50, velocity=127, time=1),
    Message('note_on', channel=4, note=66, velocity=127, time=0),
    Message('note_on', channel=4, note=57, velocity=127, time=0),
    Message('note_on', channel=4, note=62, velocity=127, time=0),
    Message('note_on', channel=4, note=62, velocity=0, time=119),
    Message('note_on', channel=4, note=50, velocity=0, time=0),
    Message('note_on', channel=4, note=66, velocity=0, time=0),
    Message('note_on', channel=4, note=57, velocity=0, time=0),
    Message('note_on', channel=4, note=57, velocity=127, time=1),
    Message('note_on', channel=4, note=62, velocity=127, time=0),
    Message('note_on', channel=4, note=64, velocity=127, time=0),
    Message('note_on', channel=4, note=50, velocity=127, time=0),
    Message('note_on', channel=4, note=45, velocity=127, time=120),
    Message('note_on', channel=4, note=45, velocity=0, time=59),
    Message('note_on', channel=4, note=64, velocity=0, time=0),
    Message('note_on', channel=4, note=57, velocity=0, time=0),
    Message('note_on', channel=4, note=62, velocity=0, time=0),
    Message('note_on', channel=4, note=50, velocity=0, time=0),
    Message('note_on', channel=4, note=61, velocity=127, time=1),
    Message('note_on', channel=4, note=57, velocity=127, time=0),
    Message('note_on', channel=4, note=52, velocity=127, time=0),
    Message('note_on', channel=4, note=45, velocity=127, time=0),
    Message('note_on', channel=4, note=45, velocity=0, time=119),
    Message('note_on', channel=4, note=61, velocity=0, time=0),
    Message('note_on', channel=4, note=57, velocity=0, time=0),
    Message('note_on', channel=4, note=52, velocity=0, time=0),
    Message('note_on', channel=4, note=61, velocity=127, time=1),
    Message('note_on', channel=4, note=57, velocity=127, time=0),
    Message('note_on', channel=4, note=52, velocity=127, time=0),
    Message('note_on', channel=4, note=45, velocity=127, time=0),
    Message('note_on', channel=4, note=45, velocity=0, time=59),
    Message('note_on', channel=4, note=61, velocity=0, time=0),
    Message('note_on', channel=4, note=57, velocity=0, time=0),
    Message('note_on', channel=4, note=52, velocity=0, time=0),
    Message('note_on', channel=4, note=45, velocity=127, time=1),
    Message('note_on', channel=4, note=52, velocity=127, time=0),
    Message('note_on', channel=4, note=61, velocity=127, time=0),
    Message('note_on', channel=4, note=57, velocity=127, time=0),
    Message('note_on', channel=4, note=57, velocity=0, time=59),
    Message('note_on', channel=4, note=45, velocity=0, time=0),
    Message('note_on', channel=4, note=52, velocity=0, time=0),
    Message('note_on', channel=4, note=61, velocity=0, time=0),
    Message('note_on', channel=4, note=43, velocity=127, time=1),
    Message('note_on', channel=4, note=67, velocity=127, time=0),
    Message('note_on', channel=4, note=62, velocity=127, time=0),
    Message('note_on', channel=4, note=55, velocity=127, time=0),
    Message('note_on', channel=4, note=50, velocity=127, time=0),
    Message('note_on', channel=4, note=47, velocity=127, time=0),
    Message('note_on', channel=4, note=47, velocity=0, time=119),
    Message('note_on', channel=4, note=67, velocity=0, time=0),
    Message('note_on', channel=4, note=62, velocity=0, time=0),
    Message('note_on', channel=4, note=43, velocity=0, time=0),
    Message('note_on', channel=4, note=50, velocity=0, time=0),
    Message('note_on', channel=4, note=55, velocity=0, time=0),
    Message('note_on', channel=4, note=67, velocity=127, time=1),
    Message('note_on', channel=4, note=62, velocity=127, time=0),
    Message('note_on', channel=4, note=55, velocity=127, time=0),
    Message('note_on', channel=4, note=50, velocity=127, time=0),
    Message('note_on', channel=4, note=47, velocity=127, time=0),
    Message('note_on', channel=4, note=43, velocity=127, time=0),
    Message('note_on', channel=4, note=43, velocity=0, time=59),
    Message('note_on', channel=4, note=62, velocity=0, time=0),
    Message('note_on', channel=4, note=55, velocity=0, time=0),
    Message('note_on', channel=4, note=67, velocity=0, time=0),
    Message('note_on', channel=4, note=47, velocity=0, time=0),
    Message('note_on', channel=4, note=50, velocity=0, time=0),
    Message('note_on', channel=4, note=67, velocity=127, time=1),
    Message('note_on', channel=4, note=62, velocity=127, time=0),
    Message('note_on', channel=4, note=55, velocity=127, time=0),
    Message('note_on', channel=4, note=50, velocity=127, time=0),
    Message('note_on', channel=4, note=47, velocity=127, time=0),
    Message('note_on', channel=4, note=43, velocity=127, time=0),
    Message('note_on', channel=4, note=43, velocity=0, time=59),
    Message('note_on', channel=4, note=62, velocity=0, time=0),
    Message('note_on', channel=4, note=55, velocity=0, time=0),
    Message('note_on', channel=4, note=67, velocity=0, time=0),
    Message('note_on', channel=4, note=47, velocity=0, time=0),
    Message('note_on', channel=4, note=50, velocity=0, time=0),
    Message('note_on', channel=4, note=50, velocity=127, time=1),
    Message('note_on', channel=4, note=66, velocity=127, time=0),
    Message('note_on', channel=4, note=62, velocity=127, time=0),
    Message('note_on', channel=4, note=57, velocity=127, time=0),
    Message('note_on', channel=4, note=57, velocity=0, time=179),
    Message('note_on', channel=4, note=50, velocity=0, time=0),
    Message('note_on', channel=4, note=66, velocity=0, time=0),
    Message('note_on', channel=4, note=62, velocity=0, time=0),
    Message('note_on', channel=4, note=50, velocity=127, time=1),
    Message('note_on', channel=4, note=66, velocity=127, time=0),
    Message('note_on', channel=4, note=57, velocity=127, time=0),
    Message('note_on', channel=4, note=62, velocity=127, time=0),
    Message('note_on', channel=4, note=62, velocity=0, time=119),
    Message('note_on', channel=4, note=50, velocity=0, time=0),
    Message('note_on', channel=4, note=66, velocity=0, time=0),
    Message('note_on', channel=4, note=57, velocity=0, time=0),
    Message('note_on', channel=4, note=57, velocity=127, time=1),
    Message('note_on', channel=4, note=62, velocity=127, time=0),
    Message('note_on', channel=4, note=64, velocity=127, time=0),
    Message('note_on', channel=4, note=50, velocity=127, time=0),
    Message('note_on', channel=4, note=45, velocity=127, time=120),
    Message('note_on', channel=4, note=45, velocity=0, time=59),
    Message('note_on', channel=4, note=64, velocity=0, time=0),
    Message('note_on', channel=4, note=57, velocity=0, time=0),
    Message('note_on', channel=4, note=62, velocity=0, time=0),
    Message('note_on', channel=4, note=50, velocity=0, time=0),
    Message('note_on', channel=4, note=61, velocity=127, time=1),
    Message('note_on', channel=4, note=57, velocity=127, time=0),
    Message('note_on', channel=4, note=52, velocity=127, time=0),
    Message('note_on', channel=4, note=45, velocity=127, time=0),
    Message('note_on', channel=4, note=45, velocity=0, time=119),
    Message('note_on', channel=4, note=61, velocity=0, time=0),
    Message('note_on', channel=4, note=57, velocity=0, time=0),
    Message('note_on', channel=4, note=52, velocity=0, time=0),
    Message('note_on', channel=4, note=61, velocity=127, time=1),
    Message('note_on', channel=4, note=57, velocity=127, time=0),
    Message('note_on', channel=4, note=52, velocity=127, time=0),
    Message('note_on', channel=4, note=45, velocity=127, time=0),
    Message('note_on', channel=4, note=45, velocity=0, time=59),
    Message('note_on', channel=4, note=61, velocity=0, time=0),
    Message('note_on', channel=4, note=57, velocity=0, time=0),
    Message('note_on', channel=4, note=52, velocity=0, time=0),
    Message('note_on', channel=4, note=45, velocity=127, time=1),
    Message('note_on', channel=4, note=52, velocity=127, time=0),
    Message('note_on', channel=4, note=61, velocity=127, time=0),
    Message('note_on', channel=4, note=57, velocity=127, time=0),
    Message('note_on', channel=4, note=57, velocity=0, time=59),
    Message('note_on', channel=4, note=45, velocity=0, time=0),
    Message('note_on', channel=4, note=52, velocity=0, time=0),
    Message('note_on', channel=4, note=61, velocity=0, time=0),
    Message('note_on', channel=4, note=43, velocity=127, time=1),
    Message('note_on', channel=4, note=67, velocity=127, time=0),
    Message('note_on', channel=4, note=62, velocity=127, time=0),
    Message('note_on', channel=4, note=55, velocity=127, time=0),
    Message('note_on', channel=4, note=50, velocity=127, time=0),
    Message('note_on', channel=4, note=47, velocity=127, time=0),
    Message('note_on', channel=4, note=47, velocity=0, time=119),
    Message('note_on', channel=4, note=67, velocity=0, time=0),
    Message('note_on', channel=4, note=62, velocity=0, time=0),
    Message('note_on', channel=4, note=43, velocity=0, time=0),
    Message('note_on', channel=4, note=50, velocity=0, time=0),
    Message('note_on', channel=4, note=55, velocity=0, time=0),
    Message('note_on', channel=4, note=67, velocity=127, time=1),
    Message('note_on', channel=4, note=62, velocity=127, time=0),
    Message('note_on', channel=4, note=55, velocity=127, time=0),
    Message('note_on', channel=4, note=50, velocity=127, time=0),
    Message('note_on', channel=4, note=47, velocity=127, time=0),
    Message('note_on', channel=4, note=43, velocity=127, time=0),
    Message('note_on', channel=4, note=43, velocity=0, time=59),
    Message('note_on', channel=4, note=62, velocity=0, time=0),
    Message('note_on', channel=4, note=55, velocity=0, time=0),
    Message('note_on', channel=4, note=67, velocity=0, time=0),
    Message('note_on', channel=4, note=47, velocity=0, time=0),
    Message('note_on', channel=4, note=50, velocity=0, time=0),
    Message('note_on', channel=4, note=67, velocity=127, time=1),
    Message('note_on', channel=4, note=62, velocity=127, time=0),
    Message('note_on', channel=4, note=55, velocity=127, time=0),
    Message('note_on', channel=4, note=50, velocity=127, time=0),
    Message('note_on', channel=4, note=47, velocity=127, time=0),
    Message('note_on', channel=4, note=43, velocity=127, time=0),
    Message('note_on', channel=4, note=43, velocity=0, time=59),
    Message('note_on', channel=4, note=62, velocity=0, time=0),
    Message('note_on', channel=4, note=55, velocity=0, time=0),
    Message('note_on', channel=4, note=67, velocity=0, time=0),
    Message('note_on', channel=4, note=47, velocity=0, time=0),
    Message('note_on', channel=4, note=50, velocity=0, time=0),
    Message('note_on', channel=4, note=50, velocity=127, time=1),
    Message('note_on', channel=4, note=66, velocity=127, time=0),
    Message('note_on', channel=4, note=62, velocity=127, time=0),
    Message('note_on', channel=4, note=57, velocity=127, time=0),
    Message('note_on', channel=4, note=57, velocity=0, time=179),
    Message('note_on', channel=4, note=50, velocity=0, time=0),
    Message('note_on', channel=4, note=66, velocity=0, time=0),
    Message('note_on', channel=4, note=62, velocity=0, time=0),
    Message('note_on', channel=4, note=50, velocity=127, time=1),
    Message('note_on', channel=4, note=66, velocity=127, time=0),
    Message('note_on', channel=4, note=57, velocity=127, time=0),
    Message('note_on', channel=4, note=62, velocity=127, time=0),
    Message('note_on', channel=4, note=62, velocity=0, time=119),
    Message('note_on', channel=4, note=50, velocity=0, time=0),
    Message('note_on', channel=4, note=66, velocity=0, time=0),
    Message('note_on', channel=4, note=57, velocity=0, time=0),
    Message('note_on', channel=4, note=57, velocity=127, time=1),
    Message('note_on', channel=4, note=62, velocity=127, time=0),
    Message('note_on', channel=4, note=64, velocity=127, time=0),
    Message('note_on', channel=4, note=50, velocity=127, time=0),
    Message('note_on', channel=4, note=45, velocity=127, time=120),
    Message('note_on', channel=4, note=45, velocity=0, time=59),
    Message('note_on', channel=4, note=64, velocity=0, time=0),
    Message('note_on', channel=4, note=57, velocity=0, time=0),
    Message('note_on', channel=4, note=62, velocity=0, time=0),
    Message('note_on', channel=4, note=50, velocity=0, time=0),
    Message('note_on', channel=4, note=61, velocity=127, time=1),
    Message('note_on', channel=4, note=57, velocity=127, time=0),
    Message('note_on', channel=4, note=52, velocity=127, time=0),
    Message('note_on', channel=4, note=45, velocity=127, time=0),
    Message('note_on', channel=4, note=45, velocity=0, time=119),
    Message('note_on', channel=4, note=61, velocity=0, time=0),
    Message('note_on', channel=4, note=57, velocity=0, time=0),
    Message('note_on', channel=4, note=52, velocity=0, time=0),
    Message('note_on', channel=4, note=61, velocity=127, time=1),
    Message('note_on', channel=4, note=57, velocity=127, time=0),
    Message('note_on', channel=4, note=52, velocity=127, time=0),
    Message('note_on', channel=4, note=45, velocity=127, time=0),
    Message('note_on', channel=4, note=45, velocity=0, time=59),
    Message('note_on', channel=4, note=61, velocity=0, time=0),
    Message('note_on', channel=4, note=57, velocity=0, time=0),
    Message('note_on', channel=4, note=52, velocity=0, time=0),
    Message('note_on', channel=4, note=45, velocity=127, time=1),
    Message('note_on', channel=4, note=52, velocity=127, time=0),
    Message('note_on', channel=4, note=61, velocity=127, time=0),
    Message('note_on', channel=4, note=57, velocity=127, time=0),
    Message('note_on', channel=4, note=57, velocity=0, time=59),
    Message('note_on', channel=4, note=45, velocity=0, time=0),
    Message('note_on', channel=4, note=52, velocity=0, time=0),
    Message('note_on', channel=4, note=61, velocity=0, time=0),
    Message('note_on', channel=4, note=43, velocity=127, time=1),
    Message('note_on', channel=4, note=67, velocity=127, time=0),
    Message('note_on', channel=4, note=62, velocity=127, time=0),
    Message('note_on', channel=4, note=55, velocity=127, time=0),
    Message('note_on', channel=4, note=50, velocity=127, time=0),
    Message('note_on', channel=4, note=47, velocity=127, time=0),
    Message('note_on', channel=4, note=47, velocity=0, time=119),
    Message('note_on', channel=4, note=67, velocity=0, time=0),
    Message('note_on', channel=4, note=62, velocity=0, time=0),
    Message('note_on', channel=4, note=43, velocity=0, time=0),
    Message('note_on', channel=4, note=50, velocity=0, time=0),
    Message('note_on', channel=4, note=55, velocity=0, time=0),
    Message('note_on', channel=4, note=67, velocity=127, time=1),
    Message('note_on', channel=4, note=62, velocity=127, time=0),
    Message('note_on', channel=4, note=55, velocity=127, time=0),
    Message('note_on', channel=4, note=50, velocity=127, time=0),
    Message('note_on', channel=4, note=47, velocity=127, time=0),
    Message('note_on', channel=4, note=43, velocity=127, time=0),
    Message('note_on', channel=4, note=43, velocity=0, time=59),
    Message('note_on', channel=4, note=62, velocity=0, time=0),
    Message('note_on', channel=4, note=55, velocity=0, time=0),
    Message('note_on', channel=4, note=67, velocity=0, time=0),
    Message('note_on', channel=4, note=47, velocity=0, time=0),
    Message('note_on', channel=4, note=50, velocity=0, time=0),
    Message('note_on', channel=4, note=67, velocity=127, time=1),
    Message('note_on', channel=4, note=62, velocity=127, time=0),
    Message('note_on', channel=4, note=55, velocity=127, time=0),
    Message('note_on', channel=4, note=50, velocity=127, time=0),
    Message('note_on', channel=4, note=47, velocity=127, time=0),
    Message('note_on', channel=4, note=43, velocity=127, time=0),
    Message('note_on', channel=4, note=43, velocity=0, time=59),
    Message('note_on', channel=4, note=62, velocity=0, time=0),
    Message('note_on', channel=4, note=55, velocity=0, time=0),
    Message('note_on', channel=4, note=67, velocity=0, time=0),
    Message('note_on', channel=4, note=47, velocity=0, time=0),
    Message('note_on', channel=4, note=50, velocity=0, time=0),
    Message('note_on', channel=4, note=50, velocity=127, time=1),
    Message('note_on', channel=4, note=66, velocity=127, time=0),
    Message('note_on', channel=4, note=62, velocity=127, time=0),
    Message('note_on', channel=4, note=57, velocity=127, time=0),
    Message('note_on', channel=4, note=57, velocity=0, time=179),
    Message('note_on', channel=4, note=50, velocity=0, time=0),
    Message('note_on', channel=4, note=66, velocity=0, time=0),
    Message('note_on', channel=4, note=62, velocity=0, time=0),
    Message('note_on', channel=4, note=50, velocity=127, time=1),
    Message('note_on', channel=4, note=66, velocity=127, time=0),
    Message('note_on', channel=4, note=57, velocity=127, time=0),
    Message('note_on', channel=4, note=62, velocity=127, time=0),
    Message('note_on', channel=4, note=62, velocity=0, time=119),
    Message('note_on', channel=4, note=50, velocity=0, time=0),
    Message('note_on', channel=4, note=66, velocity=0, time=0),
    Message('note_on', channel=4, note=57, velocity=0, time=0),
    Message('note_on', channel=4, note=57, velocity=127, time=1),
    Message('note_on', channel=4, note=62, velocity=127, time=0),
    Message('note_on', channel=4, note=64, velocity=127, time=0),
    Message('note_on', channel=4, note=50, velocity=127, time=0),
    Message('note_on', channel=4, note=45, velocity=127, time=120),
    Message('note_on', channel=4, note=45, velocity=0, time=59),
    Message('note_on', channel=4, note=64, velocity=0, time=0),
    Message('note_on', channel=4, note=57, velocity=0, time=0),
    Message('note_on', channel=4, note=62, velocity=0, time=0),
    Message('note_on', channel=4, note=50, velocity=0, time=0),
    Message('note_on', channel=4, note=61, velocity=127, time=1),
    Message('note_on', channel=4, note=57, velocity=127, time=0),
    Message('note_on', channel=4, note=52, velocity=127, time=0),
    Message('note_on', channel=4, note=45, velocity=127, time=0),
    Message('note_on', channel=4, note=45, velocity=0, time=119),
    Message('note_on', channel=4, note=61, velocity=0, time=0),
    Message('note_on', channel=4, note=57, velocity=0, time=0),
    Message('note_on', channel=4, note=52, velocity=0, time=0),
    Message('note_on', channel=4, note=61, velocity=127, time=1),
    Message('note_on', channel=4, note=57, velocity=127, time=0),
    Message('note_on', channel=4, note=52, velocity=127, time=0),
    Message('note_on', channel=4, note=45, velocity=127, time=0),
    Message('note_on', channel=4, note=45, velocity=0, time=59),
    Message('note_on', channel=4, note=61, velocity=0, time=0),
    Message('note_on', channel=4, note=57, velocity=0, time=0),
    Message('note_on', channel=4, note=52, velocity=0, time=0),
    Message('note_on', channel=4, note=45, velocity=127, time=1),
    Message('note_on', channel=4, note=52, velocity=127, time=0),
    Message('note_on', channel=4, note=61, velocity=127, time=0),
    Message('note_on', channel=4, note=57, velocity=127, time=0),
    Message('note_on', channel=4, note=57, velocity=0, time=59),
    Message('note_on', channel=4, note=45, velocity=0, time=0),
    Message('note_on', channel=4, note=52, velocity=0, time=0),
    Message('note_on', channel=4, note=61, velocity=0, time=0),
    Message('note_on', channel=4, note=43, velocity=127, time=1),
    Message('note_on', channel=4, note=67, velocity=127, time=0),
    Message('note_on', channel=4, note=62, velocity=127, time=0),
    Message('note_on', channel=4, note=55, velocity=127, time=0),
    Message('note_on', channel=4, note=50, velocity=127, time=0),
    Message('note_on', channel=4, note=47, velocity=127, time=0),
    Message('note_on', channel=4, note=47, velocity=0, time=119),
    Message('note_on', channel=4, note=67, velocity=0, time=0),
    Message('note_on', channel=4, note=62, velocity=0, time=0),
    Message('note_on', channel=4, note=43, velocity=0, time=0),
    Message('note_on', channel=4, note=50, velocity=0, time=0),
    Message('note_on', channel=4, note=55, velocity=0, time=0),
    Message('note_on', channel=4, note=67, velocity=127, time=1),
    Message('note_on', channel=4, note=62, velocity=127, time=0),
    Message('note_on', channel=4, note=55, velocity=127, time=0),
    Message('note_on', channel=4, note=50, velocity=127, time=0),
    Message('note_on', channel=4, note=47, velocity=127, time=0),
    Message('note_on', channel=4, note=43, velocity=127, time=0),
    Message('note_on', channel=4, note=43, velocity=0, time=59),
    Message('note_on', channel=4, note=62, velocity=0, time=0),
    Message('note_on', channel=4, note=55, velocity=0, time=0),
    Message('note_on', channel=4, note=67, velocity=0, time=0),
    Message('note_on', channel=4, note=47, velocity=0, time=0),
    Message('note_on', channel=4, note=50, velocity=0, time=0),
    Message('note_on', channel=4, note=67, velocity=127, time=1),
    Message('note_on', channel=4, note=62, velocity=127, time=0),
    Message('note_on', channel=4, note=55, velocity=127, time=0),
    Message('note_on', channel=4, note=50, velocity=127, time=0),
    Message('note_on', channel=4, note=47, velocity=127, time=0),
    Message('note_on', channel=4, note=43, velocity=127, time=0),
    Message('note_on', channel=4, note=43, velocity=0, time=59),
    Message('note_on', channel=4, note=62, velocity=0, time=0),
    Message('note_on', channel=4, note=55, velocity=0, time=0),
    Message('note_on', channel=4, note=67, velocity=0, time=0),
    Message('note_on', channel=4, note=47, velocity=0, time=0),
    Message('note_on', channel=4, note=50, velocity=0, time=0),
    Message('note_on', channel=4, note=50, velocity=127, time=1),
    Message('note_on', channel=4, note=66, velocity=127, time=0),
    Message('note_on', channel=4, note=62, velocity=127, time=0),
    Message('note_on', channel=4, note=57, velocity=127, time=0),
    Message('note_on', channel=4, note=57, velocity=0, time=179),
    Message('note_on', channel=4, note=50, velocity=0, time=0),
    Message('note_on', channel=4, note=66, velocity=0, time=0),
    Message('note_on', channel=4, note=62, velocity=0, time=0),
    Message('note_on', channel=4, note=50, velocity=127, time=1),
    Message('note_on', channel=4, note=66, velocity=127, time=0),
    Message('note_on', channel=4, note=57, velocity=127, time=0),
    Message('note_on', channel=4, note=62, velocity=127, time=0),
    Message('note_on', channel=4, note=62, velocity=0, time=119),
    Message('note_on', channel=4, note=50, velocity=0, time=0),
    Message('note_on', channel=4, note=66, velocity=0, time=0),
    Message('note_on', channel=4, note=57, velocity=0, time=0),
    Message('note_on', channel=4, note=57, velocity=127, time=1),
    Message('note_on', channel=4, note=62, velocity=127, time=0),
    Message('note_on', channel=4, note=64, velocity=127, time=0),
    Message('note_on', channel=4, note=50, velocity=127, time=0),
    Message('note_on', channel=4, note=45, velocity=127, time=120),
    Message('note_on', channel=4, note=45, velocity=0, time=59),
    Message('note_on', channel=4, note=64, velocity=0, time=0),
    Message('note_on', channel=4, note=57, velocity=0, time=0),
    Message('note_on', channel=4, note=62, velocity=0, time=0),
    Message('note_on', channel=4, note=50, velocity=0, time=0),
    Message('note_on', channel=4, note=61, velocity=127, time=1),
    Message('note_on', channel=4, note=57, velocity=127, time=0),
    Message('note_on', channel=4, note=52, velocity=127, time=0),
    Message('note_on', channel=4, note=45, velocity=127, time=0),
    Message('note_on', channel=4, note=45, velocity=0, time=119),
    Message('note_on', channel=4, note=61, velocity=0, time=0),
    Message('note_on', channel=4, note=57, velocity=0, time=0),
    Message('note_on', channel=4, note=52, velocity=0, time=0),
    Message('note_on', channel=4, note=61, velocity=127, time=1),
    Message('note_on', channel=4, note=57, velocity=127, time=0),
    Message('note_on', channel=4, note=52, velocity=127, time=0),
    Message('note_on', channel=4, note=45, velocity=127, time=0),
    Message('note_on', channel=4, note=45, velocity=0, time=59),
    Message('note_on', channel=4, note=61, velocity=0, time=0),
    Message('note_on', channel=4, note=57, velocity=0, time=0),
    Message('note_on', channel=4, note=52, velocity=0, time=0),
    Message('note_on', channel=4, note=45, velocity=127, time=1),
    Message('note_on', channel=4, note=52, velocity=127, time=0),
    Message('note_on', channel=4, note=61, velocity=127, time=0),
    Message('note_on', channel=4, note=57, velocity=127, time=0),
    Message('note_on', channel=4, note=57, velocity=0, time=59),
    Message('note_on', channel=4, note=45, velocity=0, time=0),
    Message('note_on', channel=4, note=52, velocity=0, time=0),
    Message('note_on', channel=4, note=61, velocity=0, time=0),
    Message('note_on', channel=4, note=43, velocity=127, time=1),
    Message('note_on', channel=4, note=67, velocity=127, time=0),
    Message('note_on', channel=4, note=62, velocity=127, time=0),
    Message('note_on', channel=4, note=55, velocity=127, time=0),
    Message('note_on', channel=4, note=50, velocity=127, time=0),
    Message('note_on', channel=4, note=47, velocity=127, time=0),
    Message('note_on', channel=4, note=47, velocity=0, time=119),
    Message('note_on', channel=4, note=67, velocity=0, time=0),
    Message('note_on', channel=4, note=62, velocity=0, time=0),
    Message('note_on', channel=4, note=43, velocity=0, time=0),
    Message('note_on', channel=4, note=50, velocity=0, time=0),
    Message('note_on', channel=4, note=55, velocity=0, time=0),
    Message('note_on', channel=4, note=67, velocity=127, time=1),
    Message('note_on', channel=4, note=62, velocity=127, time=0),
    Message('note_on', channel=4, note=55, velocity=127, time=0),
    Message('note_on', channel=4, note=50, velocity=127, time=0),
    Message('note_on', channel=4, note=47, velocity=127, time=0),
    Message('note_on', channel=4, note=43, velocity=127, time=0),
    Message('note_on', channel=4, note=43, velocity=0, time=59),
    Message('note_on', channel=4, note=62, velocity=0, time=0),
    Message('note_on', channel=4, note=55, velocity=0, time=0),
    Message('note_on', channel=4, note=67, velocity=0, time=0),
    Message('note_on', channel=4, note=47, velocity=0, time=0),
    Message('note_on', channel=4, note=50, velocity=0, time=0),
    Message('note_on', channel=4, note=67, velocity=127, time=1),
    Message('note_on', channel=4, note=62, velocity=127, time=0),
    Message('note_on', channel=4, note=55, velocity=127, time=0),
    Message('note_on', channel=4, note=50, velocity=127, time=0),
    Message('note_on', channel=4, note=47, velocity=127, time=0),
    Message('note_on', channel=4, note=43, velocity=127, time=0),
    Message('note_on', channel=4, note=43, velocity=0, time=59),
    Message('note_on', channel=4, note=62, velocity=0, time=0),
    Message('note_on', channel=4, note=55, velocity=0, time=0),
    Message('note_on', channel=4, note=67, velocity=0, time=0),
    Message('note_on', channel=4, note=47, velocity=0, time=0),
    Message('note_on', channel=4, note=50, velocity=0, time=0),
    Message('note_on', channel=4, note=50, velocity=127, time=1),
    Message('note_on', channel=4, note=66, velocity=127, time=0),
    Message('note_on', channel=4, note=62, velocity=127, time=0),
    Message('note_on', channel=4, note=57, velocity=127, time=0),
    Message('note_on', channel=4, note=57, velocity=0, time=179),
    Message('note_on', channel=4, note=50, velocity=0, time=0),
    Message('note_on', channel=4, note=66, velocity=0, time=0),
    Message('note_on', channel=4, note=62, velocity=0, time=0),
    Message('note_on', channel=4, note=50, velocity=127, time=1),
    Message('note_on', channel=4, note=66, velocity=127, time=0),
    Message('note_on', channel=4, note=57, velocity=127, time=0),
    Message('note_on', channel=4, note=62, velocity=127, time=0),
    Message('note_on', channel=4, note=62, velocity=0, time=119),
    Message('note_on', channel=4, note=50, velocity=0, time=0),
    Message('note_on', channel=4, note=66, velocity=0, time=0),
    Message('note_on', channel=4, note=57, velocity=0, time=0),
    Message('note_on', channel=4, note=57, velocity=127, time=1),
    Message('note_on', channel=4, note=62, velocity=127, time=0),
    Message('note_on', channel=4, note=64, velocity=127, time=0),
    Message('note_on', channel=4, note=50, velocity=127, time=0),
    Message('note_on', channel=4, note=45, velocity=127, time=120),
    Message('note_on', channel=4, note=45, velocity=0, time=59),
    Message('note_on', channel=4, note=64, velocity=0, time=0),
    Message('note_on', channel=4, note=57, velocity=0, time=0),
    Message('note_on', channel=4, note=62, velocity=0, time=0),
    Message('note_on', channel=4, note=50, velocity=0, time=0),
    Message('note_on', channel=4, note=61, velocity=127, time=1),
    Message('note_on', channel=4, note=57, velocity=127, time=0),
    Message('note_on', channel=4, note=52, velocity=127, time=0),
    Message('note_on', channel=4, note=45, velocity=127, time=0),
    Message('note_on', channel=4, note=45, velocity=0, time=119),
    Message('note_on', channel=4, note=61, velocity=0, time=0),
    Message('note_on', channel=4, note=57, velocity=0, time=0),
    Message('note_on', channel=4, note=52, velocity=0, time=0),
    Message('note_on', channel=4, note=61, velocity=127, time=1),
    Message('note_on', channel=4, note=57, velocity=127, time=0),
    Message('note_on', channel=4, note=52, velocity=127, time=0),
    Message('note_on', channel=4, note=45, velocity=127, time=0),
    Message('note_on', channel=4, note=45, velocity=0, time=59),
    Message('note_on', channel=4, note=61, velocity=0, time=0),
    Message('note_on', channel=4, note=57, velocity=0, time=0),
    Message('note_on', channel=4, note=52, velocity=0, time=0),
    Message('note_on', channel=4, note=45, velocity=127, time=1),
    Message('note_on', channel=4, note=52, velocity=127, time=0),
    Message('note_on', channel=4, note=61, velocity=127, time=0),
    Message('note_on', channel=4, note=57, velocity=127, time=0),
    Message('note_on', channel=4, note=57, velocity=0, time=59),
    Message('note_on', channel=4, note=45, velocity=0, time=0),
    Message('note_on', channel=4, note=52, velocity=0, time=0),
    Message('note_on', channel=4, note=61, velocity=0, time=0),
    Message('note_on', channel=4, note=43, velocity=127, time=1),
    Message('note_on', channel=4, note=67, velocity=127, time=0),
    Message('note_on', channel=4, note=62, velocity=127, time=0),
    Message('note_on', channel=4, note=55, velocity=127, time=0),
    Message('note_on', channel=4, note=50, velocity=127, time=0),
    Message('note_on', channel=4, note=47, velocity=127, time=0),
    Message('note_on', channel=4, note=47, velocity=0, time=119),
    Message('note_on', channel=4, note=67, velocity=0, time=0),
    Message('note_on', channel=4, note=62, velocity=0, time=0),
    Message('note_on', channel=4, note=43, velocity=0, time=0),
    Message('note_on', channel=4, note=50, velocity=0, time=0),
    Message('note_on', channel=4, note=55, velocity=0, time=0),
    Message('note_on', channel=4, note=67, velocity=127, time=1),
    Message('note_on', channel=4, note=62, velocity=127, time=0),
    Message('note_on', channel=4, note=55, velocity=127, time=0),
    Message('note_on', channel=4, note=50, velocity=127, time=0),
    Message('note_on', channel=4, note=47, velocity=127, time=0),
    Message('note_on', channel=4, note=43, velocity=127, time=0),
    Message('note_on', channel=4, note=43, velocity=0, time=59),
    Message('note_on', channel=4, note=62, velocity=0, time=0),
    Message('note_on', channel=4, note=55, velocity=0, time=0),
    Message('note_on', channel=4, note=67, velocity=0, time=0),
    Message('note_on', channel=4, note=47, velocity=0, time=0),
    Message('note_on', channel=4, note=50, velocity=0, time=0),
    Message('note_on', channel=4, note=67, velocity=127, time=1),
    Message('note_on', channel=4, note=62, velocity=127, time=0),
    Message('note_on', channel=4, note=55, velocity=127, time=0),
    Message('note_on', channel=4, note=50, velocity=127, time=0),
    Message('note_on', channel=4, note=47, velocity=127, time=0),
    Message('note_on', channel=4, note=43, velocity=127, time=0),
    Message('note_on', channel=4, note=43, velocity=0, time=59),
    Message('note_on', channel=4, note=62, velocity=0, time=0),
    Message('note_on', channel=4, note=55, velocity=0, time=0),
    Message('note_on', channel=4, note=67, velocity=0, time=0),
    Message('note_on', channel=4, note=47, velocity=0, time=0),
    Message('note_on', channel=4, note=50, velocity=0, time=0),
    Message('note_on', channel=4, note=50, velocity=127, time=1),
    Message('note_on', channel=4, note=66, velocity=127, time=0),
    Message('note_on', channel=4, note=62, velocity=127, time=0),
    Message('note_on', channel=4, note=57, velocity=127, time=0),
    Message('note_on', channel=4, note=57, velocity=0, time=179),
    Message('note_on', channel=4, note=50, velocity=0, time=0),
    Message('note_on', channel=4, note=66, velocity=0, time=0),
    Message('note_on', channel=4, note=62, velocity=0, time=0),
    Message('note_on', channel=4, note=50, velocity=127, time=1),
    Message('note_on', channel=4, note=66, velocity=127, time=0),
    Message('note_on', channel=4, note=57, velocity=127, time=0),
    Message('note_on', channel=4, note=62, velocity=127, time=0),
    Message('note_on', channel=4, note=62, velocity=0, time=119),
    Message('note_on', channel=4, note=50, velocity=0, time=0),
    Message('note_on', channel=4, note=66, velocity=0, time=0),
    Message('note_on', channel=4, note=57, velocity=0, time=0),
    Message('note_on', channel=4, note=57, velocity=127, time=1),
    Message('note_on', channel=4, note=62, velocity=127, time=0),
    Message('note_on', channel=4, note=64, velocity=127, time=0),
    Message('note_on', channel=4, note=50, velocity=127, time=0),
    Message('note_on', channel=4, note=45, velocity=127, time=120),
    Message('note_on', channel=4, note=45, velocity=0, time=59),
    Message('note_on', channel=4, note=64, velocity=0, time=0),
    Message('note_on', channel=4, note=57, velocity=0, time=0),
    Message('note_on', channel=4, note=62, velocity=0, time=0),
    Message('note_on', channel=4, note=50, velocity=0, time=0),
    Message('note_on', channel=4, note=61, velocity=127, time=1),
    Message('note_on', channel=4, note=57, velocity=127, time=0),
    Message('note_on', channel=4, note=52, velocity=127, time=0),
    Message('note_on', channel=4, note=45, velocity=127, time=0),
    Message('note_on', channel=4, note=45, velocity=0, time=119),
    Message('note_on', channel=4, note=61, velocity=0, time=0),
    Message('note_on', channel=4, note=57, velocity=0, time=0),
    Message('note_on', channel=4, note=52, velocity=0, time=0),
    Message('note_on', channel=4, note=61, velocity=127, time=1),
    Message('note_on', channel=4, note=57, velocity=127, time=0),
    Message('note_on', channel=4, note=52, velocity=127, time=0),
    Message('note_on', channel=4, note=45, velocity=127, time=0),
    Message('note_on', channel=4, note=45, velocity=0, time=59),
    Message('note_on', channel=4, note=61, velocity=0, time=0),
    Message('note_on', channel=4, note=57, velocity=0, time=0),
    Message('note_on', channel=4, note=52, velocity=0, time=0),
    Message('note_on', channel=4, note=45, velocity=127, time=1),
    Message('note_on', channel=4, note=52, velocity=127, time=0),
    Message('note_on', channel=4, note=61, velocity=127, time=0),
    Message('note_on', channel=4, note=57, velocity=127, time=0),
    Message('note_on', channel=4, note=57, velocity=0, time=59),
    Message('note_on', channel=4, note=45, velocity=0, time=0),
    Message('note_on', channel=4, note=52, velocity=0, time=0),
    Message('note_on', channel=4, note=61, velocity=0, time=0),
    Message('note_on', channel=4, note=43, velocity=127, time=1),
    Message('note_on', channel=4, note=67, velocity=127, time=0),
    Message('note_on', channel=4, note=62, velocity=127, time=0),
    Message('note_on', channel=4, note=55, velocity=127, time=0),
    Message('note_on', channel=4, note=50, velocity=127, time=0),
    Message('note_on', channel=4, note=47, velocity=127, time=0),
    Message('note_on', channel=4, note=47, velocity=0, time=119),
    Message('note_on', channel=4, note=67, velocity=0, time=0),
    Message('note_on', channel=4, note=62, velocity=0, time=0),
    Message('note_on', channel=4, note=43, velocity=0, time=0),
    Message('note_on', channel=4, note=50, velocity=0, time=0),
    Message('note_on', channel=4, note=55, velocity=0, time=0),
    Message('note_on', channel=4, note=67, velocity=127, time=1),
    Message('note_on', channel=4, note=62, velocity=127, time=0),
    Message('note_on', channel=4, note=55, velocity=127, time=0),
    Message('note_on', channel=4, note=50, velocity=127, time=0),
    Message('note_on', channel=4, note=47, velocity=127, time=0),
    Message('note_on', channel=4, note=43, velocity=127, time=0),
    Message('note_on', channel=4, note=43, velocity=0, time=59),
    Message('note_on', channel=4, note=62, velocity=0, time=0),
    Message('note_on', channel=4, note=55, velocity=0, time=0),
    Message('note_on', channel=4, note=67, velocity=0, time=0),
    Message('note_on', channel=4, note=47, velocity=0, time=0),
    Message('note_on', channel=4, note=50, velocity=0, time=0),
    Message('note_on', channel=4, note=67, velocity=127, time=1),
    Message('note_on', channel=4, note=62, velocity=127, time=0),
    Message('note_on', channel=4, note=55, velocity=127, time=0),
    Message('note_on', channel=4, note=50, velocity=127, time=0),
    Message('note_on', channel=4, note=47, velocity=127, time=0),
    Message('note_on', channel=4, note=43, velocity=127, time=0),
    Message('note_on', channel=4, note=43, velocity=0, time=59),
    Message('note_on', channel=4, note=62, velocity=0, time=0),
    Message('note_on', channel=4, note=55, velocity=0, time=0),
    Message('note_on', channel=4, note=67, velocity=0, time=0),
    Message('note_on', channel=4, note=47, velocity=0, time=0),
    Message('note_on', channel=4, note=50, velocity=0, time=0),
    Message('note_on', channel=4, note=50, velocity=127, time=1),
    Message('note_on', channel=4, note=66, velocity=127, time=0),
    Message('note_on', channel=4, note=62, velocity=127, time=0),
    Message('note_on', channel=4, note=57, velocity=127, time=0),
    Message('note_on', channel=4, note=57, velocity=0, time=179),
    Message('note_on', channel=4, note=50, velocity=0, time=0),
    Message('note_on', channel=4, note=66, velocity=0, time=0),
    Message('note_on', channel=4, note=62, velocity=0, time=0),
    Message('note_on', channel=4, note=50, velocity=127, time=1),
    Message('note_on', channel=4, note=66, velocity=127, time=0),
    Message('note_on', channel=4, note=57, velocity=127, time=0),
    Message('note_on', channel=4, note=62, velocity=127, time=0),
    Message('note_on', channel=4, note=62, velocity=0, time=119),
    Message('note_on', channel=4, note=50, velocity=0, time=0),
    Message('note_on', channel=4, note=66, velocity=0, time=0),
    Message('note_on', channel=4, note=57, velocity=0, time=0),
    Message('note_on', channel=4, note=57, velocity=127, time=1),
    Message('note_on', channel=4, note=62, velocity=127, time=0),
    Message('note_on', channel=4, note=64, velocity=127, time=0),
    Message('note_on', channel=4, note=50, velocity=127, time=0),
    Message('note_on', channel=4, note=45, velocity=127, time=120),
    Message('note_on', channel=4, note=45, velocity=0, time=59),
    Message('note_on', channel=4, note=64, velocity=0, time=0),
    Message('note_on', channel=4, note=57, velocity=0, time=0),
    Message('note_on', channel=4, note=62, velocity=0, time=0),
    Message('note_on', channel=4, note=50, velocity=0, time=0),
    Message('note_on', channel=4, note=61, velocity=127, time=1),
    Message('note_on', channel=4, note=57, velocity=127, time=0),
    Message('note_on', channel=4, note=52, velocity=127, time=0),
    Message('note_on', channel=4, note=45, velocity=127, time=0),
    Message('note_on', channel=4, note=45, velocity=0, time=119),
    Message('note_on', channel=4, note=61, velocity=0, time=0),
    Message('note_on', channel=4, note=57, velocity=0, time=0),
    Message('note_on', channel=4, note=52, velocity=0, time=0),
    Message('note_on', channel=4, note=61, velocity=127, time=1),
    Message('note_on', channel=4, note=57, velocity=127, time=0),
    Message('note_on', channel=4, note=52, velocity=127, time=0),
    Message('note_on', channel=4, note=45, velocity=127, time=0),
    Message('note_on', channel=4, note=45, velocity=0, time=59),
    Message('note_on', channel=4, note=61, velocity=0, time=0),
    Message('note_on', channel=4, note=57, velocity=0, time=0),
    Message('note_on', channel=4, note=52, velocity=0, time=0),
    Message('note_on', channel=4, note=45, velocity=127, time=1),
    Message('note_on', channel=4, note=52, velocity=127, time=0),
    Message('note_on', channel=4, note=61, velocity=127, time=0),
    Message('note_on', channel=4, note=57, velocity=127, time=0),
    Message('note_on', channel=4, note=57, velocity=0, time=59),
    Message('note_on', channel=4, note=45, velocity=0, time=0),
    Message('note_on', channel=4, note=52, velocity=0, time=0),
    Message('note_on', channel=4, note=61, velocity=0, time=0),
    Message('note_on', channel=4, note=43, velocity=127, time=1),
    Message('note_on', channel=4, note=67, velocity=127, time=0),
    Message('note_on', channel=4, note=62, velocity=127, time=0),
    Message('note_on', channel=4, note=55, velocity=127, time=0),
    Message('note_on', channel=4, note=50, velocity=127, time=0),
    Message('note_on', channel=4, note=47, velocity=127, time=0),
    Message('note_on', channel=4, note=47, velocity=0, time=119),
    Message('note_on', channel=4, note=67, velocity=0, time=0),
    Message('note_on', channel=4, note=62, velocity=0, time=0),
    Message('note_on', channel=4, note=43, velocity=0, time=0),
    Message('note_on', channel=4, note=50, velocity=0, time=0),
    Message('note_on', channel=4, note=55, velocity=0, time=0),
    Message('note_on', channel=4, note=67, velocity=127, time=1),
    Message('note_on', channel=4, note=62, velocity=127, time=0),
    Message('note_on', channel=4, note=55, velocity=127, time=0),
    Message('note_on', channel=4, note=50, velocity=127, time=0),
    Message('note_on', channel=4, note=47, velocity=127, time=0),
    Message('note_on', channel=4, note=43, velocity=127, time=0),
    Message('note_on', channel=4, note=43, velocity=0, time=59),
    Message('note_on', channel=4, note=62, velocity=0, time=0),
    Message('note_on', channel=4, note=55, velocity=0, time=0),
    Message('note_on', channel=4, note=67, velocity=0, time=0),
    Message('note_on', channel=4, note=47, velocity=0, time=0),
    Message('note_on', channel=4, note=50, velocity=0, time=0),
    Message('note_on', channel=4, note=67, velocity=127, time=1),
    Message('note_on', channel=4, note=62, velocity=127, time=0),
    Message('note_on', channel=4, note=55, velocity=127, time=0),
    Message('note_on', channel=4, note=50, velocity=127, time=0),
    Message('note_on', channel=4, note=47, velocity=127, time=0),
    Message('note_on', channel=4, note=43, velocity=127, time=0),
    Message('note_on', channel=4, note=43, velocity=0, time=59),
    Message('note_on', channel=4, note=62, velocity=0, time=0),
    Message('note_on', channel=4, note=55, velocity=0, time=0),
    Message('note_on', channel=4, note=67, velocity=0, time=0),
    Message('note_on', channel=4, note=47, velocity=0, time=0),
    Message('note_on', channel=4, note=50, velocity=0, time=0),
    Message('note_on', channel=4, note=50, velocity=127, time=1),
    Message('note_on', channel=4, note=66, velocity=127, time=0),
    Message('note_on', channel=4, note=62, velocity=127, time=0),
    Message('note_on', channel=4, note=57, velocity=127, time=0),
    Message('note_on', channel=4, note=57, velocity=0, time=179),
    Message('note_on', channel=4, note=50, velocity=0, time=0),
    Message('note_on', channel=4, note=66, velocity=0, time=0),
    Message('note_on', channel=4, note=62, velocity=0, time=0),
    Message('note_on', channel=4, note=50, velocity=127, time=1),
    Message('note_on', channel=4, note=66, velocity=127, time=0),
    Message('note_on', channel=4, note=57, velocity=127, time=0),
    Message('note_on', channel=4, note=62, velocity=127, time=0),
    Message('note_on', channel=4, note=62, velocity=0, time=119),
    Message('note_on', channel=4, note=50, velocity=0, time=0),
    Message('note_on', channel=4, note=66, velocity=0, time=0),
    Message('note_on', channel=4, note=57, velocity=0, time=0),
    Message('note_on', channel=4, note=57, velocity=127, time=1),
    Message('note_on', channel=4, note=62, velocity=127, time=0),
    Message('note_on', channel=4, note=64, velocity=127, time=0),
    Message('note_on', channel=4, note=50, velocity=127, time=0),
    Message('note_on', channel=4, note=45, velocity=127, time=120),
    Message('note_on', channel=4, note=45, velocity=0, time=59),
    Message('note_on', channel=4, note=64, velocity=0, time=0),
    Message('note_on', channel=4, note=57, velocity=0, time=0),
    Message('note_on', channel=4, note=62, velocity=0, time=0),
    Message('note_on', channel=4, note=50, velocity=0, time=0),
    Message('note_on', channel=4, note=61, velocity=127, time=1),
    Message('note_on', channel=4, note=57, velocity=127, time=0),
    Message('note_on', channel=4, note=52, velocity=127, time=0),
    Message('note_on', channel=4, note=45, velocity=127, time=0),
    Message('note_on', channel=4, note=45, velocity=0, time=119),
    Message('note_on', channel=4, note=61, velocity=0, time=0),
    Message('note_on', channel=4, note=57, velocity=0, time=0),
    Message('note_on', channel=4, note=52, velocity=0, time=0),
    Message('note_on', channel=4, note=61, velocity=127, time=1),
    Message('note_on', channel=4, note=57, velocity=127, time=0),
    Message('note_on', channel=4, note=52, velocity=127, time=0),
    Message('note_on', channel=4, note=45, velocity=127, time=0),
    Message('note_on', channel=4, note=45, velocity=0, time=59),
    Message('note_on', channel=4, note=61, velocity=0, time=0),
    Message('note_on', channel=4, note=57, velocity=0, time=0),
    Message('note_on', channel=4, note=52, velocity=0, time=0),
    Message('note_on', channel=4, note=45, velocity=127, time=1),
    Message('note_on', channel=4, note=52, velocity=127, time=0),
    Message('note_on', channel=4, note=61, velocity=127, time=0),
    Message('note_on', channel=4, note=57, velocity=127, time=0),
    Message('note_on', channel=4, note=57, velocity=0, time=59),
    Message('note_on', channel=4, note=45, velocity=0, time=0),
    Message('note_on', channel=4, note=52, velocity=0, time=0),
    Message('note_on', channel=4, note=61, velocity=0, time=0),
    Message('note_on', channel=4, note=43, velocity=127, time=1),
    Message('note_on', channel=4, note=67, velocity=127, time=0),
    Message('note_on', channel=4, note=62, velocity=127, time=0),
    Message('note_on', channel=4, note=55, velocity=127, time=0),
    Message('note_on', channel=4, note=50, velocity=127, time=0),
    Message('note_on', channel=4, note=47, velocity=127, time=0),
    Message('note_on', channel=4, note=47, velocity=0, time=119),
    Message('note_on', channel=4, note=67, velocity=0, time=0),
    Message('note_on', channel=4, note=62, velocity=0, time=0),
    Message('note_on', channel=4, note=43, velocity=0, time=0),
    Message('note_on', channel=4, note=50, velocity=0, time=0),
    Message('note_on', channel=4, note=55, velocity=0, time=0),
    Message('note_on', channel=4, note=67, velocity=127, time=1),
    Message('note_on', channel=4, note=62, velocity=127, time=0),
    Message('note_on', channel=4, note=55, velocity=127, time=0),
    Message('note_on', channel=4, note=50, velocity=127, time=0),
    Message('note_on', channel=4, note=47, velocity=127, time=0),
    Message('note_on', channel=4, note=43, velocity=127, time=0),
    Message('note_on', channel=4, note=43, velocity=0, time=59),
    Message('note_on', channel=4, note=62, velocity=0, time=0),
    Message('note_on', channel=4, note=55, velocity=0, time=0),
    Message('note_on', channel=4, note=67, velocity=0, time=0),
    Message('note_on', channel=4, note=47, velocity=0, time=0),
    Message('note_on', channel=4, note=50, velocity=0, time=0),
    Message('note_on', channel=4, note=67, velocity=127, time=1),
    Message('note_on', channel=4, note=62, velocity=127, time=0),
    Message('note_on', channel=4, note=55, velocity=127, time=0),
    Message('note_on', channel=4, note=50, velocity=127, time=0),
    Message('note_on', channel=4, note=47, velocity=127, time=0),
    Message('note_on', channel=4, note=43, velocity=127, time=0),
    Message('note_on', channel=4, note=43, velocity=0, time=59),
    Message('note_on', channel=4, note=62, velocity=0, time=0),
    Message('note_on', channel=4, note=55, velocity=0, time=0),
    Message('note_on', channel=4, note=67, velocity=0, time=0),
    Message('note_on', channel=4, note=47, velocity=0, time=0),
    Message('note_on', channel=4, note=50, velocity=0, time=0),
    Message('note_on', channel=4, note=50, velocity=127, time=1),
    Message('note_on', channel=4, note=66, velocity=127, time=0),
    Message('note_on', channel=4, note=62, velocity=127, time=0),
    Message('note_on', channel=4, note=57, velocity=127, time=0),
    Message('note_on', channel=4, note=57, velocity=0, time=179),
    Message('note_on', channel=4, note=50, velocity=0, time=0),
    Message('note_on', channel=4, note=66, velocity=0, time=0),
    Message('note_on', channel=4, note=62, velocity=0, time=0),
    Message('note_on', channel=4, note=50, velocity=127, time=1),
    Message('note_on', channel=4, note=66, velocity=127, time=0),
    Message('note_on', channel=4, note=57, velocity=127, time=0),
    Message('note_on', channel=4, note=62, velocity=127, time=0),
    Message('note_on', channel=4, note=62, velocity=0, time=119),
    Message('note_on', channel=4, note=50, velocity=0, time=0),
    Message('note_on', channel=4, note=66, velocity=0, time=0),
    Message('note_on', channel=4, note=57, velocity=0, time=0),
    Message('note_on', channel=4, note=57, velocity=127, time=1),
    Message('note_on', channel=4, note=62, velocity=127, time=0),
    Message('note_on', channel=4, note=64, velocity=127, time=0),
    Message('note_on', channel=4, note=50, velocity=127, time=0),
    Message('note_on', channel=4, note=45, velocity=127, time=120),
    Message('note_on', channel=4, note=45, velocity=0, time=59),
    Message('note_on', channel=4, note=64, velocity=0, time=0),
    Message('note_on', channel=4, note=57, velocity=0, time=0),
    Message('note_on', channel=4, note=62, velocity=0, time=0),
    Message('note_on', channel=4, note=50, velocity=0, time=0),
    Message('note_on', channel=4, note=61, velocity=127, time=1),
    Message('note_on', channel=4, note=57, velocity=127, time=0),
    Message('note_on', channel=4, note=52, velocity=127, time=0),
    Message('note_on', channel=4, note=45, velocity=127, time=0),
    Message('note_on', channel=4, note=45, velocity=0, time=119),
    Message('note_on', channel=4, note=61, velocity=0, time=0),
    Message('note_on', channel=4, note=57, velocity=0, time=0),
    Message('note_on', channel=4, note=52, velocity=0, time=0),
    Message('note_on', channel=4, note=61, velocity=127, time=1),
    Message('note_on', channel=4, note=57, velocity=127, time=0),
    Message('note_on', channel=4, note=52, velocity=127, time=0),
    Message('note_on', channel=4, note=45, velocity=127, time=0),
    Message('note_on', channel=4, note=45, velocity=0, time=59),
    Message('note_on', channel=4, note=61, velocity=0, time=0),
    Message('note_on', channel=4, note=57, velocity=0, time=0),
    Message('note_on', channel=4, note=52, velocity=0, time=0),
    Message('note_on', channel=4, note=45, velocity=127, time=1),
    Message('note_on', channel=4, note=52, velocity=127, time=0),
    Message('note_on', channel=4, note=61, velocity=127, time=0),
    Message('note_on', channel=4, note=57, velocity=127, time=0),
    Message('note_on', channel=4, note=57, velocity=0, time=59),
    Message('note_on', channel=4, note=45, velocity=0, time=0),
    Message('note_on', channel=4, note=52, velocity=0, time=0),
    Message('note_on', channel=4, note=61, velocity=0, time=0),
    Message('note_on', channel=4, note=43, velocity=127, time=1),
    Message('note_on', channel=4, note=67, velocity=127, time=0),
    Message('note_on', channel=4, note=62, velocity=127, time=0),
    Message('note_on', channel=4, note=55, velocity=127, time=0),
    Message('note_on', channel=4, note=50, velocity=127, time=0),
    Message('note_on', channel=4, note=47, velocity=127, time=0),
    Message('note_on', channel=4, note=47, velocity=0, time=119),
    Message('note_on', channel=4, note=67, velocity=0, time=0),
    Message('note_on', channel=4, note=62, velocity=0, time=0),
    Message('note_on', channel=4, note=43, velocity=0, time=0),
    Message('note_on', channel=4, note=50, velocity=0, time=0),
    Message('note_on', channel=4, note=55, velocity=0, time=0),
    Message('note_on', channel=4, note=67, velocity=127, time=1),
    Message('note_on', channel=4, note=62, velocity=127, time=0),
    Message('note_on', channel=4, note=55, velocity=127, time=0),
    Message('note_on', channel=4, note=50, velocity=127, time=0),
    Message('note_on', channel=4, note=47, velocity=127, time=0),
    Message('note_on', channel=4, note=43, velocity=127, time=0),
    Message('note_on', channel=4, note=43, velocity=0, time=59),
    Message('note_on', channel=4, note=62, velocity=0, time=0),
    Message('note_on', channel=4, note=55, velocity=0, time=0),
    Message('note_on', channel=4, note=67, velocity=0, time=0),
    Message('note_on', channel=4, note=47, velocity=0, time=0),
    Message('note_on', channel=4, note=50, velocity=0, time=0),
    Message('note_on', channel=4, note=67, velocity=127, time=1),
    Message('note_on', channel=4, note=62, velocity=127, time=0),
    Message('note_on', channel=4, note=55, velocity=127, time=0),
    Message('note_on', channel=4, note=50, velocity=127, time=0),
    Message('note_on', channel=4, note=47, velocity=127, time=0),
    Message('note_on', channel=4, note=43, velocity=127, time=0),
    Message('note_on', channel=4, note=43, velocity=0, time=59),
    Message('note_on', channel=4, note=62, velocity=0, time=0),
    Message('note_on', channel=4, note=55, velocity=0, time=0),
    Message('note_on', channel=4, note=67, velocity=0, time=0),
    Message('note_on', channel=4, note=47, velocity=0, time=0),
    Message('note_on', channel=4, note=50, velocity=0, time=0),
    Message('note_on', channel=4, note=50, velocity=127, time=1),
    Message('note_on', channel=4, note=66, velocity=127, time=0),
    Message('note_on', channel=4, note=62, velocity=127, time=0),
    Message('note_on', channel=4, note=57, velocity=127, time=0),
    Message('note_on', channel=4, note=57, velocity=0, time=179),
    Message('note_on', channel=4, note=50, velocity=0, time=0),
    Message('note_on', channel=4, note=66, velocity=0, time=0),
    Message('note_on', channel=4, note=62, velocity=0, time=0),
    Message('note_on', channel=4, note=50, velocity=127, time=1),
    Message('note_on', channel=4, note=66, velocity=127, time=0),
    Message('note_on', channel=4, note=57, velocity=127, time=0),
    Message('note_on', channel=4, note=62, velocity=127, time=0),
    Message('note_on', channel=4, note=62, velocity=0, time=119),
    Message('note_on', channel=4, note=50, velocity=0, time=0),
    Message('note_on', channel=4, note=66, velocity=0, time=0),
    Message('note_on', channel=4, note=57, velocity=0, time=0),
    Message('note_on', channel=4, note=57, velocity=127, time=1),
    Message('note_on', channel=4, note=62, velocity=127, time=0),
    Message('note_on', channel=4, note=64, velocity=127, time=0),
    Message('note_on', channel=4, note=50, velocity=127, time=0),
    Message('note_on', channel=4, note=45, velocity=127, time=120),
    Message('note_on', channel=4, note=45, velocity=0, time=59),
    Message('note_on', channel=4, note=64, velocity=0, time=0),
    Message('note_on', channel=4, note=57, velocity=0, time=0),
    Message('note_on', channel=4, note=62, velocity=0, time=0),
    Message('note_on', channel=4, note=50, velocity=0, time=0),
    Message('note_on', channel=4, note=61, velocity=127, time=1),
    Message('note_on', channel=4, note=57, velocity=127, time=0),
    Message('note_on', channel=4, note=52, velocity=127, time=0),
    Message('note_on', channel=4, note=45, velocity=127, time=0),
    Message('note_on', channel=4, note=45, velocity=0, time=119),
    Message('note_on', channel=4, note=61, velocity=0, time=0),
    Message('note_on', channel=4, note=57, velocity=0, time=0),
    Message('note_on', channel=4, note=52, velocity=0, time=0),
    Message('note_on', channel=4, note=61, velocity=127, time=1),
    Message('note_on', channel=4, note=57, velocity=127, time=0),
    Message('note_on', channel=4, note=52, velocity=127, time=0),
    Message('note_on', channel=4, note=45, velocity=127, time=0),
    Message('note_on', channel=4, note=45, velocity=0, time=59),
    Message('note_on', channel=4, note=61, velocity=0, time=0),
    Message('note_on', channel=4, note=57, velocity=0, time=0),
    Message('note_on', channel=4, note=52, velocity=0, time=0),
    Message('note_on', channel=4, note=45, velocity=127, time=1),
    Message('note_on', channel=4, note=52, velocity=127, time=0),
    Message('note_on', channel=4, note=61, velocity=127, time=0),
    Message('note_on', channel=4, note=57, velocity=127, time=0),
    Message('note_on', channel=4, note=57, velocity=0, time=59),
    Message('note_on', channel=4, note=45, velocity=0, time=0),
    Message('note_on', channel=4, note=52, velocity=0, time=0),
    Message('note_on', channel=4, note=61, velocity=0, time=0),
    Message('note_on', channel=4, note=43, velocity=127, time=1),
    Message('note_on', channel=4, note=67, velocity=127, time=0),
    Message('note_on', channel=4, note=62, velocity=127, time=0),
    Message('note_on', channel=4, note=55, velocity=127, time=0),
    Message('note_on', channel=4, note=50, velocity=127, time=0),
    Message('note_on', channel=4, note=47, velocity=127, time=0),
    Message('note_on', channel=4, note=47, velocity=0, time=119),
    Message('note_on', channel=4, note=67, velocity=0, time=0),
    Message('note_on', channel=4, note=62, velocity=0, time=0),
    Message('note_on', channel=4, note=43, velocity=0, time=0),
    Message('note_on', channel=4, note=50, velocity=0, time=0),
    Message('note_on', channel=4, note=55, velocity=0, time=0),
    Message('note_on', channel=4, note=67, velocity=127, time=1),
    Message('note_on', channel=4, note=62, velocity=127, time=0),
    Message('note_on', channel=4, note=55, velocity=127, time=0),
    Message('note_on', channel=4, note=50, velocity=127, time=0),
    Message('note_on', channel=4, note=47, velocity=127, time=0),
    Message('note_on', channel=4, note=43, velocity=127, time=0),
    Message('note_on', channel=4, note=43, velocity=0, time=59),
    Message('note_on', channel=4, note=62, velocity=0, time=0),
    Message('note_on', channel=4, note=55, velocity=0, time=0),
    Message('note_on', channel=4, note=67, velocity=0, time=0),
    Message('note_on', channel=4, note=47, velocity=0, time=0),
    Message('note_on', channel=4, note=50, velocity=0, time=0),
    Message('note_on', channel=4, note=67, velocity=127, time=1),
    Message('note_on', channel=4, note=62, velocity=127, time=0),
    Message('note_on', channel=4, note=55, velocity=127, time=0),
    Message('note_on', channel=4, note=50, velocity=127, time=0),
    Message('note_on', channel=4, note=47, velocity=127, time=0),
    Message('note_on', channel=4, note=43, velocity=127, time=0),
    Message('note_on', channel=4, note=43, velocity=0, time=59),
    Message('note_on', channel=4, note=62, velocity=0, time=0),
    Message('note_on', channel=4, note=55, velocity=0, time=0),
    Message('note_on', channel=4, note=67, velocity=0, time=0),
    Message('note_on', channel=4, note=47, velocity=0, time=0),
    Message('note_on', channel=4, note=50, velocity=0, time=0),
    Message('note_on', channel=4, note=50, velocity=127, time=1),
    Message('note_on', channel=4, note=66, velocity=127, time=0),
    Message('note_on', channel=4, note=62, velocity=127, time=0),
    Message('note_on', channel=4, note=57, velocity=127, time=0),
    Message('note_on', channel=4, note=57, velocity=0, time=179),
    Message('note_on', channel=4, note=50, velocity=0, time=0),
    Message('note_on', channel=4, note=66, velocity=0, time=0),
    Message('note_on', channel=4, note=62, velocity=0, time=0),
    Message('note_on', channel=4, note=50, velocity=127, time=1),
    Message('note_on', channel=4, note=66, velocity=127, time=0),
    Message('note_on', channel=4, note=57, velocity=127, time=0),
    Message('note_on', channel=4, note=62, velocity=127, time=0),
    Message('note_on', channel=4, note=62, velocity=0, time=119),
    Message('note_on', channel=4, note=50, velocity=0, time=0),
    Message('note_on', channel=4, note=66, velocity=0, time=0),
    Message('note_on', channel=4, note=57, velocity=0, time=0),
    Message('note_on', channel=4, note=57, velocity=127, time=1),
    Message('note_on', channel=4, note=62, velocity=127, time=0),
    Message('note_on', channel=4, note=64, velocity=127, time=0),
    Message('note_on', channel=4, note=50, velocity=127, time=0),
    Message('note_on', channel=4, note=45, velocity=127, time=120),
    Message('note_on', channel=4, note=45, velocity=0, time=59),
    Message('note_on', channel=4, note=64, velocity=0, time=0),
    Message('note_on', channel=4, note=57, velocity=0, time=0),
    Message('note_on', channel=4, note=62, velocity=0, time=0),
    Message('note_on', channel=4, note=50, velocity=0, time=0),
    Message('note_on', channel=4, note=61, velocity=127, time=1),
    Message('note_on', channel=4, note=57, velocity=127, time=0),
    Message('note_on', channel=4, note=52, velocity=127, time=0),
    Message('note_on', channel=4, note=45, velocity=127, time=0),
    Message('note_on', channel=4, note=45, velocity=0, time=119),
    Message('note_on', channel=4, note=61, velocity=0, time=0),
    Message('note_on', channel=4, note=57, velocity=0, time=0),
    Message('note_on', channel=4, note=52, velocity=0, time=0),
    Message('note_on', channel=4, note=61, velocity=127, time=1),
    Message('note_on', channel=4, note=57, velocity=127, time=0),
    Message('note_on', channel=4, note=52, velocity=127, time=0),
    Message('note_on', channel=4, note=45, velocity=127, time=0),
    Message('note_on', channel=4, note=45, velocity=0, time=59),
    Message('note_on', channel=4, note=61, velocity=0, time=0),
    Message('note_on', channel=4, note=57, velocity=0, time=0),
    Message('note_on', channel=4, note=52, velocity=0, time=0),
    Message('note_on', channel=4, note=45, velocity=127, time=1),
    Message('note_on', channel=4, note=52, velocity=127, time=0),
    Message('note_on', channel=4, note=61, velocity=127, time=0),
    Message('note_on', channel=4, note=57, velocity=127, time=0),
    Message('note_on', channel=4, note=57, velocity=0, time=59),
    Message('note_on', channel=4, note=45, velocity=0, time=0),
    Message('note_on', channel=4, note=52, velocity=0, time=0),
    Message('note_on', channel=4, note=61, velocity=0, time=0),
    Message('note_on', channel=4, note=43, velocity=127, time=1),
    Message('note_on', channel=4, note=67, velocity=127, time=0),
    Message('note_on', channel=4, note=62, velocity=127, time=0),
    Message('note_on', channel=4, note=55, velocity=127, time=0),
    Message('note_on', channel=4, note=50, velocity=127, time=0),
    Message('note_on', channel=4, note=47, velocity=127, time=0),
    Message('note_on', channel=4, note=47, velocity=0, time=119),
    Message('note_on', channel=4, note=67, velocity=0, time=0),
    Message('note_on', channel=4, note=62, velocity=0, time=0),
    Message('note_on', channel=4, note=43, velocity=0, time=0),
    Message('note_on', channel=4, note=50, velocity=0, time=0),
    Message('note_on', channel=4, note=55, velocity=0, time=0),
    Message('note_on', channel=4, note=67, velocity=127, time=1),
    Message('note_on', channel=4, note=62, velocity=127, time=0),
    Message('note_on', channel=4, note=55, velocity=127, time=0),
    Message('note_on', channel=4, note=50, velocity=127, time=0),
    Message('note_on', channel=4, note=47, velocity=127, time=0),
    Message('note_on', channel=4, note=43, velocity=127, time=0),
    Message('note_on', channel=4, note=43, velocity=0, time=59),
    Message('note_on', channel=4, note=62, velocity=0, time=0),
    Message('note_on', channel=4, note=55, velocity=0, time=0),
    Message('note_on', channel=4, note=67, velocity=0, time=0),
    Message('note_on', channel=4, note=47, velocity=0, time=0),
    Message('note_on', channel=4, note=50, velocity=0, time=0),
    Message('note_on', channel=4, note=67, velocity=127, time=1),
    Message('note_on', channel=4, note=62, velocity=127, time=0),
    Message('note_on', channel=4, note=55, velocity=127, time=0),
    Message('note_on', channel=4, note=50, velocity=127, time=0),
    Message('note_on', channel=4, note=47, velocity=127, time=0),
    Message('note_on', channel=4, note=43, velocity=127, time=0),
    Message('note_on', channel=4, note=43, velocity=0, time=59),
    Message('note_on', channel=4, note=62, velocity=0, time=0),
    Message('note_on', channel=4, note=55, velocity=0, time=0),
    Message('note_on', channel=4, note=67, velocity=0, time=0),
    Message('note_on', channel=4, note=47, velocity=0, time=0),
    Message('note_on', channel=4, note=50, velocity=0, time=0),
    Message('note_on', channel=4, note=50, velocity=127, time=1),
    Message('note_on', channel=4, note=66, velocity=127, time=0),
    Message('note_on', channel=4, note=62, velocity=127, time=0),
    Message('note_on', channel=4, note=57, velocity=127, time=0),
    Message('note_on', channel=4, note=57, velocity=0, time=179),
    Message('note_on', channel=4, note=50, velocity=0, time=0),
    Message('note_on', channel=4, note=66, velocity=0, time=0),
    Message('note_on', channel=4, note=62, velocity=0, time=0),
    Message('note_on', channel=4, note=50, velocity=127, time=1),
    Message('note_on', channel=4, note=66, velocity=127, time=0),
    Message('note_on', channel=4, note=57, velocity=127, time=0),
    Message('note_on', channel=4, note=62, velocity=127, time=0),
    Message('note_on', channel=4, note=62, velocity=0, time=119),
    Message('note_on', channel=4, note=50, velocity=0, time=0),
    Message('note_on', channel=4, note=66, velocity=0, time=0),
    Message('note_on', channel=4, note=57, velocity=0, time=0),
    Message('note_on', channel=4, note=57, velocity=127, time=1),
    Message('note_on', channel=4, note=62, velocity=127, time=0),
    Message('note_on', channel=4, note=64, velocity=127, time=0),
    Message('note_on', channel=4, note=50, velocity=127, time=0),
    Message('note_on', channel=4, note=45, velocity=127, time=120),
    Message('note_on', channel=4, note=45, velocity=0, time=59),
    Message('note_on', channel=4, note=64, velocity=0, time=0),
    Message('note_on', channel=4, note=57, velocity=0, time=0),
    Message('note_on', channel=4, note=62, velocity=0, time=0),
    Message('note_on', channel=4, note=50, velocity=0, time=0),
    Message('note_on', channel=4, note=61, velocity=127, time=1),
    Message('note_on', channel=4, note=57, velocity=127, time=0),
    Message('note_on', channel=4, note=52, velocity=127, time=0),
    Message('note_on', channel=4, note=45, velocity=127, time=0),
    Message('note_on', channel=4, note=45, velocity=0, time=119),
    Message('note_on', channel=4, note=61, velocity=0, time=0),
    Message('note_on', channel=4, note=57, velocity=0, time=0),
    Message('note_on', channel=4, note=52, velocity=0, time=0),
    Message('note_on', channel=4, note=61, velocity=127, time=1),
    Message('note_on', channel=4, note=57, velocity=127, time=0),
    Message('note_on', channel=4, note=52, velocity=127, time=0),
    Message('note_on', channel=4, note=45, velocity=127, time=0),
    Message('note_on', channel=4, note=45, velocity=0, time=59),
    Message('note_on', channel=4, note=61, velocity=0, time=0),
    Message('note_on', channel=4, note=57, velocity=0, time=0),
    Message('note_on', channel=4, note=52, velocity=0, time=0),
    Message('note_on', channel=4, note=45, velocity=127, time=1),
    Message('note_on', channel=4, note=52, velocity=127, time=0),
    Message('note_on', channel=4, note=61, velocity=127, time=0),
    Message('note_on', channel=4, note=57, velocity=127, time=0),
    Message('note_on', channel=4, note=57, velocity=0, time=59),
    Message('note_on', channel=4, note=45, velocity=0, time=0),
    Message('note_on', channel=4, note=52, velocity=0, time=0),
    Message('note_on', channel=4, note=61, velocity=0, time=0),
    Message('note_on', channel=4, note=43, velocity=127, time=1),
    Message('note_on', channel=4, note=67, velocity=127, time=0),
    Message('note_on', channel=4, note=62, velocity=127, time=0),
    Message('note_on', channel=4, note=55, velocity=127, time=0),
    Message('note_on', channel=4, note=50, velocity=127, time=0),
    Message('note_on', channel=4, note=47, velocity=127, time=0),
    Message('note_on', channel=4, note=47, velocity=0, time=119),
    Message('note_on', channel=4, note=67, velocity=0, time=0),
    Message('note_on', channel=4, note=62, velocity=0, time=0),
    Message('note_on', channel=4, note=43, velocity=0, time=0),
    Message('note_on', channel=4, note=50, velocity=0, time=0),
    Message('note_on', channel=4, note=55, velocity=0, time=0),
    Message('note_on', channel=4, note=67, velocity=127, time=1),
    Message('note_on', channel=4, note=62, velocity=127, time=0),
    Message('note_on', channel=4, note=55, velocity=127, time=0),
    Message('note_on', channel=4, note=50, velocity=127, time=0),
    Message('note_on', channel=4, note=47, velocity=127, time=0),
    Message('note_on', channel=4, note=43, velocity=127, time=0),
    Message('note_on', channel=4, note=43, velocity=0, time=59),
    Message('note_on', channel=4, note=62, velocity=0, time=0),
    Message('note_on', channel=4, note=55, velocity=0, time=0),
    Message('note_on', channel=4, note=67, velocity=0, time=0),
    Message('note_on', channel=4, note=47, velocity=0, time=0),
    Message('note_on', channel=4, note=50, velocity=0, time=0),
    Message('note_on', channel=4, note=67, velocity=127, time=1),
    Message('note_on', channel=4, note=62, velocity=127, time=0),
    Message('note_on', channel=4, note=55, velocity=127, time=0),
    Message('note_on', channel=4, note=50, velocity=127, time=0),
    Message('note_on', channel=4, note=47, velocity=127, time=0),
    Message('note_on', channel=4, note=43, velocity=127, time=0),
    Message('note_on', channel=4, note=43, velocity=0, time=59),
    Message('note_on', channel=4, note=62, velocity=0, time=0),
    Message('note_on', channel=4, note=55, velocity=0, time=0),
    Message('note_on', channel=4, note=67, velocity=0, time=0),
    Message('note_on', channel=4, note=47, velocity=0, time=0),
    Message('note_on', channel=4, note=50, velocity=0, time=0),
    Message('note_on', channel=4, note=50, velocity=127, time=1),
    Message('note_on', channel=4, note=66, velocity=127, time=0),
    Message('note_on', channel=4, note=62, velocity=127, time=0),
    Message('note_on', channel=4, note=57, velocity=127, time=0),
    Message('note_on', channel=4, note=57, velocity=0, time=179),
    Message('note_on', channel=4, note=50, velocity=0, time=0),
    Message('note_on', channel=4, note=66, velocity=0, time=0),
    Message('note_on', channel=4, note=62, velocity=0, time=0),
    Message('note_on', channel=4, note=50, velocity=127, time=1),
    Message('note_on', channel=4, note=66, velocity=127, time=0),
    Message('note_on', channel=4, note=57, velocity=127, time=0),
    Message('note_on', channel=4, note=62, velocity=127, time=0),
    Message('note_on', channel=4, note=62, velocity=0, time=119),
    Message('note_on', channel=4, note=50, velocity=0, time=0),
    Message('note_on', channel=4, note=66, velocity=0, time=0),
    Message('note_on', channel=4, note=57, velocity=0, time=0),
    Message('note_on', channel=4, note=57, velocity=127, time=1),
    Message('note_on', channel=4, note=62, velocity=127, time=0),
    Message('note_on', channel=4, note=64, velocity=127, time=0),
    Message('note_on', channel=4, note=50, velocity=127, time=0),
    Message('note_on', channel=4, note=45, velocity=127, time=120),
    Message('note_on', channel=4, note=45, velocity=0, time=59),
    Message('note_on', channel=4, note=64, velocity=0, time=0),
    Message('note_on', channel=4, note=57, velocity=0, time=0),
    Message('note_on', channel=4, note=62, velocity=0, time=0),
    Message('note_on', channel=4, note=50, velocity=0, time=0),
    Message('note_on', channel=4, note=61, velocity=127, time=1),
    Message('note_on', channel=4, note=57, velocity=127, time=0),
    Message('note_on', channel=4, note=52, velocity=127, time=0),
    Message('note_on', channel=4, note=45, velocity=127, time=0),
    Message('note_on', channel=4, note=45, velocity=0, time=119),
    Message('note_on', channel=4, note=61, velocity=0, time=0),
    Message('note_on', channel=4, note=57, velocity=0, time=0),
    Message('note_on', channel=4, note=52, velocity=0, time=0),
    Message('note_on', channel=4, note=61, velocity=127, time=1),
    Message('note_on', channel=4, note=57, velocity=127, time=0),
    Message('note_on', channel=4, note=52, velocity=127, time=0),
    Message('note_on', channel=4, note=45, velocity=127, time=0),
    Message('note_on', channel=4, note=45, velocity=0, time=59),
    Message('note_on', channel=4, note=61, velocity=0, time=0),
    Message('note_on', channel=4, note=57, velocity=0, time=0),
    Message('note_on', channel=4, note=52, velocity=0, time=0),
    Message('note_on', channel=4, note=45, velocity=127, time=1),
    Message('note_on', channel=4, note=52, velocity=127, time=0),
    Message('note_on', channel=4, note=61, velocity=127, time=0),
    Message('note_on', channel=4, note=57, velocity=127, time=0),
    Message('note_on', channel=4, note=57, velocity=0, time=59),
    Message('note_on', channel=4, note=45, velocity=0, time=0),
    Message('note_on', channel=4, note=52, velocity=0, time=0),
    Message('note_on', channel=4, note=61, velocity=0, time=0),
    Message('note_on', channel=4, note=43, velocity=127, time=1),
    Message('note_on', channel=4, note=67, velocity=127, time=0),
    Message('note_on', channel=4, note=62, velocity=127, time=0),
    Message('note_on', channel=4, note=55, velocity=127, time=0),
    Message('note_on', channel=4, note=50, velocity=127, time=0),
    Message('note_on', channel=4, note=47, velocity=127, time=0),
    Message('note_on', channel=4, note=47, velocity=0, time=119),
    Message('note_on', channel=4, note=67, velocity=0, time=0),
    Message('note_on', channel=4, note=62, velocity=0, time=0),
    Message('note_on', channel=4, note=43, velocity=0, time=0),
    Message('note_on', channel=4, note=50, velocity=0, time=0),
    Message('note_on', channel=4, note=55, velocity=0, time=0),
    Message('note_on', channel=4, note=67, velocity=127, time=1),
    Message('note_on', channel=4, note=62, velocity=127, time=0),
    Message('note_on', channel=4, note=55, velocity=127, time=0),
    Message('note_on', channel=4, note=50, velocity=127, time=0),
    Message('note_on', channel=4, note=47, velocity=127, time=0),
    Message('note_on', channel=4, note=43, velocity=127, time=0),
    Message('note_on', channel=4, note=43, velocity=0, time=59),
    Message('note_on', channel=4, note=62, velocity=0, time=0),
    Message('note_on', channel=4, note=55, velocity=0, time=0),
    Message('note_on', channel=4, note=67, velocity=0, time=0),
    Message('note_on', channel=4, note=47, velocity=0, time=0),
    Message('note_on', channel=4, note=50, velocity=0, time=0),
    Message('note_on', channel=4, note=67, velocity=127, time=1),
    Message('note_on', channel=4, note=62, velocity=127, time=0),
    Message('note_on', channel=4, note=55, velocity=127, time=0),
    Message('note_on', channel=4, note=50, velocity=127, time=0),
    Message('note_on', channel=4, note=47, velocity=127, time=0),
    Message('note_on', channel=4, note=43, velocity=127, time=0),
    Message('note_on', channel=4, note=43, velocity=0, time=59),
    Message('note_on', channel=4, note=62, velocity=0, time=0),
    Message('note_on', channel=4, note=55, velocity=0, time=0),
    Message('note_on', channel=4, note=67, velocity=0, time=0),
    Message('note_on', channel=4, note=47, velocity=0, time=0),
    Message('note_on', channel=4, note=50, velocity=0, time=0),
    Message('note_on', channel=4, note=50, velocity=127, time=1),
    Message('note_on', channel=4, note=66, velocity=127, time=0),
    Message('note_on', channel=4, note=62, velocity=127, time=0),
    Message('note_on', channel=4, note=57, velocity=127, time=0),
    Message('note_on', channel=4, note=57, velocity=0, time=179),
    Message('note_on', channel=4, note=50, velocity=0, time=0),
    Message('note_on', channel=4, note=66, velocity=0, time=0),
    Message('note_on', channel=4, note=62, velocity=0, time=0),
    Message('note_on', channel=4, note=50, velocity=127, time=1),
    Message('note_on', channel=4, note=66, velocity=127, time=0),
    Message('note_on', channel=4, note=57, velocity=127, time=0),
    Message('note_on', channel=4, note=62, velocity=127, time=0),
    Message('note_on', channel=4, note=62, velocity=0, time=119),
    Message('note_on', channel=4, note=50, velocity=0, time=0),
    Message('note_on', channel=4, note=66, velocity=0, time=0),
    Message('note_on', channel=4, note=57, velocity=0, time=0),
    Message('note_on', channel=4, note=57, velocity=127, time=1),
    Message('note_on', channel=4, note=62, velocity=127, time=0),
    Message('note_on', channel=4, note=64, velocity=127, time=0),
    Message('note_on', channel=4, note=50, velocity=127, time=0),
    Message('note_on', channel=4, note=45, velocity=127, time=120),
    Message('note_on', channel=4, note=45, velocity=0, time=59),
    Message('note_on', channel=4, note=64, velocity=0, time=0),
    Message('note_on', channel=4, note=57, velocity=0, time=0),
    Message('note_on', channel=4, note=62, velocity=0, time=0),
    Message('note_on', channel=4, note=50, velocity=0, time=0),
    Message('note_on', channel=4, note=61, velocity=127, time=1),
    Message('note_on', channel=4, note=57, velocity=127, time=0),
    Message('note_on', channel=4, note=52, velocity=127, time=0),
    Message('note_on', channel=4, note=45, velocity=127, time=0),
    Message('note_on', channel=4, note=45, velocity=0, time=119),
    Message('note_on', channel=4, note=61, velocity=0, time=0),
    Message('note_on', channel=4, note=57, velocity=0, time=0),
    Message('note_on', channel=4, note=52, velocity=0, time=0),
    Message('note_on', channel=4, note=61, velocity=127, time=1),
    Message('note_on', channel=4, note=57, velocity=127, time=0),
    Message('note_on', channel=4, note=52, velocity=127, time=0),
    Message('note_on', channel=4, note=45, velocity=127, time=0),
    Message('note_on', channel=4, note=45, velocity=0, time=59),
    Message('note_on', channel=4, note=61, velocity=0, time=0),
    Message('note_on', channel=4, note=57, velocity=0, time=0),
    Message('note_on', channel=4, note=52, velocity=0, time=0),
    Message('note_on', channel=4, note=45, velocity=127, time=1),
    Message('note_on', channel=4, note=52, velocity=127, time=0),
    Message('note_on', channel=4, note=61, velocity=127, time=0),
    Message('note_on', channel=4, note=57, velocity=127, time=0),
    Message('note_on', channel=4, note=57, velocity=0, time=59),
    Message('note_on', channel=4, note=45, velocity=0, time=0),
    Message('note_on', channel=4, note=52, velocity=0, time=0),
    Message('note_on', channel=4, note=61, velocity=0, time=0),
    Message('note_on', channel=4, note=43, velocity=127, time=1),
    Message('note_on', channel=4, note=67, velocity=127, time=0),
    Message('note_on', channel=4, note=62, velocity=127, time=0),
    Message('note_on', channel=4, note=55, velocity=127, time=0),
    Message('note_on', channel=4, note=50, velocity=127, time=0),
    Message('note_on', channel=4, note=47, velocity=127, time=0),
    Message('note_on', channel=4, note=47, velocity=0, time=119),
    Message('note_on', channel=4, note=67, velocity=0, time=0),
    Message('note_on', channel=4, note=62, velocity=0, time=0),
    Message('note_on', channel=4, note=43, velocity=0, time=0),
    Message('note_on', channel=4, note=50, velocity=0, time=0),
    Message('note_on', channel=4, note=55, velocity=0, time=0),
    Message('note_on', channel=4, note=67, velocity=127, time=1),
    Message('note_on', channel=4, note=62, velocity=127, time=0),
    Message('note_on', channel=4, note=55, velocity=127, time=0),
    Message('note_on', channel=4, note=50, velocity=127, time=0),
    Message('note_on', channel=4, note=47, velocity=127, time=0),
    Message('note_on', channel=4, note=43, velocity=127, time=0),
    Message('note_on', channel=4, note=43, velocity=0, time=59),
    Message('note_on', channel=4, note=62, velocity=0, time=0),
    Message('note_on', channel=4, note=55, velocity=0, time=0),
    Message('note_on', channel=4, note=67, velocity=0, time=0),
    Message('note_on', channel=4, note=47, velocity=0, time=0),
    Message('note_on', channel=4, note=50, velocity=0, time=0),
    Message('note_on', channel=4, note=67, velocity=127, time=1),
    Message('note_on', channel=4, note=62, velocity=127, time=0),
    Message('note_on', channel=4, note=55, velocity=127, time=0),
    Message('note_on', channel=4, note=50, velocity=127, time=0),
    Message('note_on', channel=4, note=47, velocity=127, time=0),
    Message('note_on', channel=4, note=43, velocity=127, time=0),
    Message('note_on', channel=4, note=43, velocity=0, time=59),
    Message('note_on', channel=4, note=62, velocity=0, time=0),
    Message('note_on', channel=4, note=55, velocity=0, time=0),
    Message('note_on', channel=4, note=67, velocity=0, time=0),
    Message('note_on', channel=4, note=47, velocity=0, time=0),
    Message('note_on', channel=4, note=50, velocity=0, time=0),
    Message('note_on', channel=4, note=66, velocity=127, time=1),
    Message('note_on', channel=4, note=62, velocity=127, time=0),
    Message('note_on', channel=4, note=57, velocity=127, time=0),
    Message('note_on', channel=4, note=50, velocity=127, time=0),
    Message('note_on', channel=4, note=50, velocity=0, time=479),
    Message('note_on', channel=4, note=66, velocity=0, time=0),
    Message('note_on', channel=4, note=62, velocity=0, time=0),
    Message('note_on', channel=4, note=57, velocity=0, time=0),
    MetaMessage('end_of_track', time=0)]),
  MidiTrack([
    MetaMessage('midi_port', port=0, time=0),
    Message('program_change', channel=5, program=30, time=0),
    Message('control_change', channel=5, control=7, value=95, time=0),
    Message('note_on', channel=5, note=62, velocity=127, time=27360),
    Message('note_on', channel=5, note=57, velocity=127, time=0),
    Message('note_on', channel=5, note=50, velocity=127, time=0),
    Message('note_on', channel=5, note=50, velocity=0, time=179),
    Message('note_on', channel=5, note=57, velocity=0, time=0),
    Message('note_on', channel=5, note=62, velocity=0, time=0),
    Message('note_on', channel=5, note=62, velocity=127, time=1),
    Message('note_on', channel=5, note=57, velocity=127, time=0),
    Message('note_on', channel=5, note=50, velocity=127, time=0),
    Message('note_on', channel=5, note=66, velocity=127, time=0),
    Message('note_on', channel=5, note=66, velocity=0, time=119),
    Message('note_on', channel=5, note=64, velocity=127, time=1),
    Message('note_on', channel=5, note=45, velocity=127, time=120),
    Message('note_on', channel=5, note=45, velocity=0, time=59),
    Message('note_on', channel=5, note=62, velocity=0, time=0),
    Message('note_on', channel=5, note=50, velocity=0, time=0),
    Message('note_on', channel=5, note=57, velocity=0, time=0),
    Message('note_on', channel=5, note=64, velocity=0, time=0),
    Message('note_on', channel=5, note=57, velocity=127, time=1),
    Message('note_on', channel=5, note=52, velocity=127, time=0),
    Message('note_on', channel=5, note=45, velocity=127, time=0),
    Message('note_on', channel=5, note=45, velocity=0, time=119),
    Message('note_on', channel=5, note=52, velocity=0, time=0),
    Message('note_on', channel=5, note=57, velocity=0, time=0),
    Message('note_on', channel=5, note=57, velocity=127, time=1),
    Message('note_on', channel=5, note=52, velocity=127, time=0),
    Message('note_on', channel=5, note=45, velocity=127, time=0),
    Message('note_on', channel=5, note=45, velocity=0, time=59),
    Message('note_on', channel=5, note=52, velocity=0, time=0),
    Message('note_on', channel=5, note=57, velocity=0, time=0),
    Message('note_on', channel=5, note=45, velocity=127, time=1),
    Message('note_on', channel=5, note=52, velocity=127, time=0),
    Message('note_on', channel=5, note=57, velocity=127, time=0),
    Message('note_on', channel=5, note=57, velocity=0, time=59),
    Message('note_on', channel=5, note=52, velocity=0, time=0),
    Message('note_on', channel=5, note=45, velocity=0, time=0),
    Message('note_on', channel=5, note=43, velocity=127, time=1),
    Message('note_on', channel=5, note=55, velocity=127, time=0),
    Message('note_on', channel=5, note=50, velocity=127, time=0),
    Message('note_on', channel=5, note=47, velocity=127, time=0),
    Message('note_on', channel=5, note=47, velocity=0, time=119),
    Message('note_on', channel=5, note=43, velocity=0, time=0),
    Message('note_on', channel=5, note=55, velocity=0, time=0),
    Message('note_on', channel=5, note=50, velocity=0, time=0),
    Message('note_on', channel=5, note=55, velocity=127, time=1),
    Message('note_on', channel=5, note=50, velocity=127, time=0),
    Message('note_on', channel=5, note=47, velocity=127, time=0),
    Message('note_on', channel=5, note=43, velocity=127, time=0),
    Message('note_on', channel=5, note=43, velocity=0, time=59),
    Message('note_on', channel=5, note=55, velocity=0, time=0),
    Message('note_on', channel=5, note=50, velocity=0, time=0),
    Message('note_on', channel=5, note=47, velocity=0, time=0),
    Message('note_on', channel=5, note=55, velocity=127, time=1),
    Message('note_on', channel=5, note=50, velocity=127, time=0),
    Message('note_on', channel=5, note=47, velocity=127, time=0),
    Message('note_on', channel=5, note=43, velocity=127, time=0),
    Message('note_on', channel=5, note=43, velocity=0, time=59),
    Message('note_on', channel=5, note=55, velocity=0, time=0),
    Message('note_on', channel=5, note=50, velocity=0, time=0),
    Message('note_on', channel=5, note=47, velocity=0, time=0),
    Message('note_on', channel=5, note=62, velocity=127, time=1),
    Message('note_on', channel=5, note=57, velocity=127, time=0),
    Message('note_on', channel=5, note=50, velocity=127, time=0),
    Message('note_on', channel=5, note=50, velocity=0, time=179),
    Message('note_on', channel=5, note=57, velocity=0, time=0),
    Message('note_on', channel=5, note=62, velocity=0, time=0),
    Message('note_on', channel=5, note=62, velocity=127, time=1),
    Message('note_on', channel=5, note=57, velocity=127, time=0),
    Message('note_on', channel=5, note=50, velocity=127, time=0),
    Message('note_on', channel=5, note=66, velocity=127, time=0),
    Message('note_on', channel=5, note=66, velocity=0, time=119),
    Message('note_on', channel=5, note=64, velocity=127, time=1),
    Message('note_on', channel=5, note=45, velocity=127, time=120),
    Message('note_on', channel=5, note=45, velocity=0, time=59),
    Message('note_on', channel=5, note=62, velocity=0, time=0),
    Message('note_on', channel=5, note=50, velocity=0, time=0),
    Message('note_on', channel=5, note=57, velocity=0, time=0),
    Message('note_on', channel=5, note=64, velocity=0, time=0),
    Message('note_on', channel=5, note=57, velocity=127, time=1),
    Message('note_on', channel=5, note=52, velocity=127, time=0),
    Message('note_on', channel=5, note=45, velocity=127, time=0),
    Message('note_on', channel=5, note=45, velocity=0, time=119),
    Message('note_on', channel=5, note=52, velocity=0, time=0),
    Message('note_on', channel=5, note=57, velocity=0, time=0),
    Message('note_on', channel=5, note=57, velocity=127, time=1),
    Message('note_on', channel=5, note=52, velocity=127, time=0),
    Message('note_on', channel=5, note=45, velocity=127, time=0),
    Message('note_on', channel=5, note=45, velocity=0, time=59),
    Message('note_on', channel=5, note=52, velocity=0, time=0),
    Message('note_on', channel=5, note=57, velocity=0, time=0),
    Message('note_on', channel=5, note=45, velocity=127, time=1),
    Message('note_on', channel=5, note=52, velocity=127, time=0),
    Message('note_on', channel=5, note=57, velocity=127, time=0),
    Message('note_on', channel=5, note=57, velocity=0, time=59),
    Message('note_on', channel=5, note=52, velocity=0, time=0),
    Message('note_on', channel=5, note=45, velocity=0, time=0),
    Message('note_on', channel=5, note=43, velocity=127, time=1),
    Message('note_on', channel=5, note=55, velocity=127, time=0),
    Message('note_on', channel=5, note=50, velocity=127, time=0),
    Message('note_on', channel=5, note=47, velocity=127, time=0),
    Message('note_on', channel=5, note=47, velocity=0, time=119),
    Message('note_on', channel=5, note=43, velocity=0, time=0),
    Message('note_on', channel=5, note=55, velocity=0, time=0),
    Message('note_on', channel=5, note=50, velocity=0, time=0),
    Message('note_on', channel=5, note=55, velocity=127, time=1),
    Message('note_on', channel=5, note=50, velocity=127, time=0),
    Message('note_on', channel=5, note=47, velocity=127, time=0),
    Message('note_on', channel=5, note=43, velocity=127, time=0),
    Message('note_on', channel=5, note=43, velocity=0, time=59),
    Message('note_on', channel=5, note=55, velocity=0, time=0),
    Message('note_on', channel=5, note=50, velocity=0, time=0),
    Message('note_on', channel=5, note=47, velocity=0, time=0),
    Message('note_on', channel=5, note=55, velocity=127, time=1),
    Message('note_on', channel=5, note=50, velocity=127, time=0),
    Message('note_on', channel=5, note=47, velocity=127, time=0),
    Message('note_on', channel=5, note=43, velocity=127, time=0),
    Message('note_on', channel=5, note=43, velocity=0, time=59),
    Message('note_on', channel=5, note=55, velocity=0, time=0),
    Message('note_on', channel=5, note=50, velocity=0, time=0),
    Message('note_on', channel=5, note=47, velocity=0, time=0),
    Message('note_on', channel=5, note=62, velocity=127, time=1),
    Message('note_on', channel=5, note=57, velocity=127, time=0),
    Message('note_on', channel=5, note=50, velocity=127, time=0),
    Message('note_on', channel=5, note=50, velocity=0, time=179),
    Message('note_on', channel=5, note=57, velocity=0, time=0),
    Message('note_on', channel=5, note=62, velocity=0, time=0),
    Message('note_on', channel=5, note=62, velocity=127, time=1),
    Message('note_on', channel=5, note=57, velocity=127, time=0),
    Message('note_on', channel=5, note=50, velocity=127, time=0),
    Message('note_on', channel=5, note=66, velocity=127, time=0),
    Message('note_on', channel=5, note=66, velocity=0, time=119),
    Message('note_on', channel=5, note=64, velocity=127, time=1),
    Message('note_on', channel=5, note=45, velocity=127, time=120),
    Message('note_on', channel=5, note=45, velocity=0, time=59),
    Message('note_on', channel=5, note=62, velocity=0, time=0),
    Message('note_on', channel=5, note=50, velocity=0, time=0),
    Message('note_on', channel=5, note=57, velocity=0, time=0),
    Message('note_on', channel=5, note=64, velocity=0, time=0),
    Message('note_on', channel=5, note=57, velocity=127, time=1),
    Message('note_on', channel=5, note=52, velocity=127, time=0),
    Message('note_on', channel=5, note=45, velocity=127, time=0),
    Message('note_on', channel=5, note=45, velocity=0, time=119),
    Message('note_on', channel=5, note=52, velocity=0, time=0),
    Message('note_on', channel=5, note=57, velocity=0, time=0),
    Message('note_on', channel=5, note=57, velocity=127, time=1),
    Message('note_on', channel=5, note=52, velocity=127, time=0),
    Message('note_on', channel=5, note=45, velocity=127, time=0),
    Message('note_on', channel=5, note=45, velocity=0, time=59),
    Message('note_on', channel=5, note=52, velocity=0, time=0),
    Message('note_on', channel=5, note=57, velocity=0, time=0),
    Message('note_on', channel=5, note=45, velocity=127, time=1),
    Message('note_on', channel=5, note=52, velocity=127, time=0),
    Message('note_on', channel=5, note=57, velocity=127, time=0),
    Message('note_on', channel=5, note=57, velocity=0, time=59),
    Message('note_on', channel=5, note=52, velocity=0, time=0),
    Message('note_on', channel=5, note=45, velocity=0, time=0),
    Message('note_on', channel=5, note=43, velocity=127, time=1),
    Message('note_on', channel=5, note=55, velocity=127, time=0),
    Message('note_on', channel=5, note=50, velocity=127, time=0),
    Message('note_on', channel=5, note=47, velocity=127, time=0),
    Message('note_on', channel=5, note=47, velocity=0, time=119),
    Message('note_on', channel=5, note=43, velocity=0, time=0),
    Message('note_on', channel=5, note=55, velocity=0, time=0),
    Message('note_on', channel=5, note=50, velocity=0, time=0),
    Message('note_on', channel=5, note=55, velocity=127, time=1),
    Message('note_on', channel=5, note=50, velocity=127, time=0),
    Message('note_on', channel=5, note=47, velocity=127, time=0),
    Message('note_on', channel=5, note=43, velocity=127, time=0),
    Message('note_on', channel=5, note=43, velocity=0, time=59),
    Message('note_on', channel=5, note=55, velocity=0, time=0),
    Message('note_on', channel=5, note=50, velocity=0, time=0),
    Message('note_on', channel=5, note=47, velocity=0, time=0),
    Message('note_on', channel=5, note=55, velocity=127, time=1),
    Message('note_on', channel=5, note=50, velocity=127, time=0),
    Message('note_on', channel=5, note=47, velocity=127, time=0),
    Message('note_on', channel=5, note=43, velocity=127, time=0),
    Message('note_on', channel=5, note=43, velocity=0, time=59),
    Message('note_on', channel=5, note=55, velocity=0, time=0),
    Message('note_on', channel=5, note=50, velocity=0, time=0),
    Message('note_on', channel=5, note=47, velocity=0, time=0),
    Message('note_on', channel=5, note=62, velocity=127, time=1),
    Message('note_on', channel=5, note=57, velocity=127, time=0),
    Message('note_on', channel=5, note=50, velocity=127, time=0),
    Message('note_on', channel=5, note=50, velocity=0, time=179),
    Message('note_on', channel=5, note=57, velocity=0, time=0),
    Message('note_on', channel=5, note=62, velocity=0, time=0),
    Message('note_on', channel=5, note=62, velocity=127, time=1),
    Message('note_on', channel=5, note=57, velocity=127, time=0),
    Message('note_on', channel=5, note=50, velocity=127, time=0),
    Message('note_on', channel=5, note=66, velocity=127, time=0),
    Message('note_on', channel=5, note=66, velocity=0, time=119),
    Message('note_on', channel=5, note=64, velocity=127, time=1),
    Message('note_on', channel=5, note=45, velocity=127, time=120),
    Message('note_on', channel=5, note=45, velocity=0, time=59),
    Message('note_on', channel=5, note=62, velocity=0, time=0),
    Message('note_on', channel=5, note=50, velocity=0, time=0),
    Message('note_on', channel=5, note=57, velocity=0, time=0),
    Message('note_on', channel=5, note=64, velocity=0, time=0),
    Message('note_on', channel=5, note=57, velocity=127, time=1),
    Message('note_on', channel=5, note=52, velocity=127, time=0),
    Message('note_on', channel=5, note=45, velocity=127, time=0),
    Message('note_on', channel=5, note=45, velocity=0, time=119),
    Message('note_on', channel=5, note=52, velocity=0, time=0),
    Message('note_on', channel=5, note=57, velocity=0, time=0),
    Message('note_on', channel=5, note=57, velocity=127, time=1),
    Message('note_on', channel=5, note=52, velocity=127, time=0),
    Message('note_on', channel=5, note=45, velocity=127, time=0),
    Message('note_on', channel=5, note=45, velocity=0, time=59),
    Message('note_on', channel=5, note=52, velocity=0, time=0),
    Message('note_on', channel=5, note=57, velocity=0, time=0),
    Message('note_on', channel=5, note=45, velocity=127, time=1),
    Message('note_on', channel=5, note=52, velocity=127, time=0),
    Message('note_on', channel=5, note=57, velocity=127, time=0),
    Message('note_on', channel=5, note=57, velocity=0, time=59),
    Message('note_on', channel=5, note=52, velocity=0, time=0),
    Message('note_on', channel=5, note=45, velocity=0, time=0),
    Message('note_on', channel=5, note=43, velocity=127, time=1),
    Message('note_on', channel=5, note=55, velocity=127, time=0),
    Message('note_on', channel=5, note=50, velocity=127, time=0),
    Message('note_on', channel=5, note=47, velocity=127, time=0),
    Message('note_on', channel=5, note=47, velocity=0, time=119),
    Message('note_on', channel=5, note=43, velocity=0, time=0),
    Message('note_on', channel=5, note=55, velocity=0, time=0),
    Message('note_on', channel=5, note=50, velocity=0, time=0),
    Message('note_on', channel=5, note=55, velocity=127, time=1),
    Message('note_on', channel=5, note=50, velocity=127, time=0),
    Message('note_on', channel=5, note=47, velocity=127, time=0),
    Message('note_on', channel=5, note=43, velocity=127, time=0),
    Message('note_on', channel=5, note=43, velocity=0, time=59),
    Message('note_on', channel=5, note=55, velocity=0, time=0),
    Message('note_on', channel=5, note=50, velocity=0, time=0),
    Message('note_on', channel=5, note=47, velocity=0, time=0),
    Message('note_on', channel=5, note=55, velocity=127, time=1),
    Message('note_on', channel=5, note=50, velocity=127, time=0),
    Message('note_on', channel=5, note=47, velocity=127, time=0),
    Message('note_on', channel=5, note=43, velocity=127, time=0),
    Message('note_on', channel=5, note=43, velocity=0, time=59),
    Message('note_on', channel=5, note=55, velocity=0, time=0),
    Message('note_on', channel=5, note=50, velocity=0, time=0),
    Message('note_on', channel=5, note=47, velocity=0, time=0),
    Message('note_on', channel=5, note=62, velocity=127, time=1),
    Message('note_on', channel=5, note=57, velocity=127, time=0),
    Message('note_on', channel=5, note=50, velocity=127, time=0),
    Message('note_on', channel=5, note=50, velocity=0, time=179),
    Message('note_on', channel=5, note=57, velocity=0, time=0),
    Message('note_on', channel=5, note=62, velocity=0, time=0),
    Message('note_on', channel=5, note=62, velocity=127, time=1),
    Message('note_on', channel=5, note=57, velocity=127, time=0),
    Message('note_on', channel=5, note=50, velocity=127, time=0),
    Message('note_on', channel=5, note=66, velocity=127, time=0),
    Message('note_on', channel=5, note=66, velocity=0, time=119),
    Message('note_on', channel=5, note=64, velocity=127, time=1),
    Message('note_on', channel=5, note=45, velocity=127, time=120),
    Message('note_on', channel=5, note=45, velocity=0, time=59),
    Message('note_on', channel=5, note=62, velocity=0, time=0),
    Message('note_on', channel=5, note=50, velocity=0, time=0),
    Message('note_on', channel=5, note=57, velocity=0, time=0),
    Message('note_on', channel=5, note=64, velocity=0, time=0),
    Message('note_on', channel=5, note=57, velocity=127, time=1),
    Message('note_on', channel=5, note=52, velocity=127, time=0),
    Message('note_on', channel=5, note=45, velocity=127, time=0),
    Message('note_on', channel=5, note=45, velocity=0, time=119),
    Message('note_on', channel=5, note=52, velocity=0, time=0),
    Message('note_on', channel=5, note=57, velocity=0, time=0),
    Message('note_on', channel=5, note=57, velocity=127, time=1),
    Message('note_on', channel=5, note=52, velocity=127, time=0),
    Message('note_on', channel=5, note=45, velocity=127, time=0),
    Message('note_on', channel=5, note=45, velocity=0, time=59),
    Message('note_on', channel=5, note=52, velocity=0, time=0),
    Message('note_on', channel=5, note=57, velocity=0, time=0),
    Message('note_on', channel=5, note=45, velocity=127, time=1),
    Message('note_on', channel=5, note=52, velocity=127, time=0),
    Message('note_on', channel=5, note=57, velocity=127, time=0),
    Message('note_on', channel=5, note=57, velocity=0, time=59),
    Message('note_on', channel=5, note=52, velocity=0, time=0),
    Message('note_on', channel=5, note=45, velocity=0, time=0),
    Message('note_on', channel=5, note=43, velocity=127, time=1),
    Message('note_on', channel=5, note=55, velocity=127, time=0),
    Message('note_on', channel=5, note=50, velocity=127, time=0),
    Message('note_on', channel=5, note=47, velocity=127, time=0),
    Message('note_on', channel=5, note=47, velocity=0, time=119),
    Message('note_on', channel=5, note=43, velocity=0, time=0),
    Message('note_on', channel=5, note=55, velocity=0, time=0),
    Message('note_on', channel=5, note=50, velocity=0, time=0),
    Message('note_on', channel=5, note=55, velocity=127, time=1),
    Message('note_on', channel=5, note=50, velocity=127, time=0),
    Message('note_on', channel=5, note=47, velocity=127, time=0),
    Message('note_on', channel=5, note=43, velocity=127, time=0),
    Message('note_on', channel=5, note=43, velocity=0, time=59),
    Message('note_on', channel=5, note=55, velocity=0, time=0),
    Message('note_on', channel=5, note=50, velocity=0, time=0),
    Message('note_on', channel=5, note=47, velocity=0, time=0),
    Message('note_on', channel=5, note=55, velocity=127, time=1),
    Message('note_on', channel=5, note=50, velocity=127, time=0),
    Message('note_on', channel=5, note=47, velocity=127, time=0),
    Message('note_on', channel=5, note=43, velocity=127, time=0),
    Message('note_on', channel=5, note=43, velocity=0, time=59),
    Message('note_on', channel=5, note=55, velocity=0, time=0),
    Message('note_on', channel=5, note=50, velocity=0, time=0),
    Message('note_on', channel=5, note=47, velocity=0, time=0),
    Message('note_on', channel=5, note=62, velocity=127, time=1),
    Message('note_on', channel=5, note=57, velocity=127, time=0),
    Message('note_on', channel=5, note=50, velocity=127, time=0),
    Message('note_on', channel=5, note=50, velocity=0, time=179),
    Message('note_on', channel=5, note=57, velocity=0, time=0),
    Message('note_on', channel=5, note=62, velocity=0, time=0),
    Message('note_on', channel=5, note=62, velocity=127, time=1),
    Message('note_on', channel=5, note=57, velocity=127, time=0),
    Message('note_on', channel=5, note=50, velocity=127, time=0),
    Message('note_on', channel=5, note=66, velocity=127, time=0),
    Message('note_on', channel=5, note=66, velocity=0, time=119),
    Message('note_on', channel=5, note=64, velocity=127, time=1),
    Message('note_on', channel=5, note=45, velocity=127, time=120),
    Message('note_on', channel=5, note=45, velocity=0, time=59),
    Message('note_on', channel=5, note=62, velocity=0, time=0),
    Message('note_on', channel=5, note=50, velocity=0, time=0),
    Message('note_on', channel=5, note=57, velocity=0, time=0),
    Message('note_on', channel=5, note=64, velocity=0, time=0),
    Message('note_on', channel=5, note=57, velocity=127, time=1),
    Message('note_on', channel=5, note=52, velocity=127, time=0),
    Message('note_on', channel=5, note=45, velocity=127, time=0),
    Message('note_on', channel=5, note=45, velocity=0, time=119),
    Message('note_on', channel=5, note=52, velocity=0, time=0),
    Message('note_on', channel=5, note=57, velocity=0, time=0),
    Message('note_on', channel=5, note=57, velocity=127, time=1),
    Message('note_on', channel=5, note=52, velocity=127, time=0),
    Message('note_on', channel=5, note=45, velocity=127, time=0),
    Message('note_on', channel=5, note=45, velocity=0, time=59),
    Message('note_on', channel=5, note=52, velocity=0, time=0),
    Message('note_on', channel=5, note=57, velocity=0, time=0),
    Message('note_on', channel=5, note=45, velocity=127, time=1),
    Message('note_on', channel=5, note=52, velocity=127, time=0),
    Message('note_on', channel=5, note=57, velocity=127, time=0),
    Message('note_on', channel=5, note=57, velocity=0, time=59),
    Message('note_on', channel=5, note=52, velocity=0, time=0),
    Message('note_on', channel=5, note=45, velocity=0, time=0),
    Message('note_on', channel=5, note=43, velocity=127, time=1),
    Message('note_on', channel=5, note=55, velocity=127, time=0),
    Message('note_on', channel=5, note=50, velocity=127, time=0),
    Message('note_on', channel=5, note=47, velocity=127, time=0),
    Message('note_on', channel=5, note=47, velocity=0, time=119),
    Message('note_on', channel=5, note=43, velocity=0, time=0),
    Message('note_on', channel=5, note=55, velocity=0, time=0),
    Message('note_on', channel=5, note=50, velocity=0, time=0),
    Message('note_on', channel=5, note=55, velocity=127, time=1),
    Message('note_on', channel=5, note=50, velocity=127, time=0),
    Message('note_on', channel=5, note=47, velocity=127, time=0),
    Message('note_on', channel=5, note=43, velocity=127, time=0),
    Message('note_on', channel=5, note=43, velocity=0, time=59),
    Message('note_on', channel=5, note=55, velocity=0, time=0),
    Message('note_on', channel=5, note=50, velocity=0, time=0),
    Message('note_on', channel=5, note=47, velocity=0, time=0),
    Message('note_on', channel=5, note=55, velocity=127, time=1),
    Message('note_on', channel=5, note=50, velocity=127, time=0),
    Message('note_on', channel=5, note=47, velocity=127, time=0),
    Message('note_on', channel=5, note=43, velocity=127, time=0),
    Message('note_on', channel=5, note=43, velocity=0, time=59),
    Message('note_on', channel=5, note=55, velocity=0, time=0),
    Message('note_on', channel=5, note=50, velocity=0, time=0),
    Message('note_on', channel=5, note=47, velocity=0, time=0),
    Message('note_on', channel=5, note=62, velocity=127, time=1),
    Message('note_on', channel=5, note=57, velocity=127, time=0),
    Message('note_on', channel=5, note=50, velocity=127, time=0),
    Message('note_on', channel=5, note=50, velocity=0, time=179),
    Message('note_on', channel=5, note=57, velocity=0, time=0),
    Message('note_on', channel=5, note=62, velocity=0, time=0),
    Message('note_on', channel=5, note=62, velocity=127, time=1),
    Message('note_on', channel=5, note=57, velocity=127, time=0),
    Message('note_on', channel=5, note=50, velocity=127, time=0),
    Message('note_on', channel=5, note=66, velocity=127, time=0),
    Message('note_on', channel=5, note=66, velocity=0, time=119),
    Message('note_on', channel=5, note=64, velocity=127, time=1),
    Message('note_on', channel=5, note=45, velocity=127, time=120),
    Message('note_on', channel=5, note=45, velocity=0, time=59),
    Message('note_on', channel=5, note=62, velocity=0, time=0),
    Message('note_on', channel=5, note=50, velocity=0, time=0),
    Message('note_on', channel=5, note=57, velocity=0, time=0),
    Message('note_on', channel=5, note=64, velocity=0, time=0),
    Message('note_on', channel=5, note=57, velocity=127, time=1),
    Message('note_on', channel=5, note=52, velocity=127, time=0),
    Message('note_on', channel=5, note=45, velocity=127, time=0),
    Message('note_on', channel=5, note=45, velocity=0, time=119),
    Message('note_on', channel=5, note=52, velocity=0, time=0),
    Message('note_on', channel=5, note=57, velocity=0, time=0),
    Message('note_on', channel=5, note=57, velocity=127, time=1),
    Message('note_on', channel=5, note=52, velocity=127, time=0),
    Message('note_on', channel=5, note=45, velocity=127, time=0),
    Message('note_on', channel=5, note=45, velocity=0, time=59),
    Message('note_on', channel=5, note=52, velocity=0, time=0),
    Message('note_on', channel=5, note=57, velocity=0, time=0),
    Message('note_on', channel=5, note=45, velocity=127, time=1),
    Message('note_on', channel=5, note=52, velocity=127, time=0),
    Message('note_on', channel=5, note=57, velocity=127, time=0),
    Message('note_on', channel=5, note=57, velocity=0, time=59),
    Message('note_on', channel=5, note=52, velocity=0, time=0),
    Message('note_on', channel=5, note=45, velocity=0, time=0),
    Message('note_on', channel=5, note=43, velocity=127, time=1),
    Message('note_on', channel=5, note=55, velocity=127, time=0),
    Message('note_on', channel=5, note=50, velocity=127, time=0),
    Message('note_on', channel=5, note=47, velocity=127, time=0),
    Message('note_on', channel=5, note=47, velocity=0, time=119),
    Message('note_on', channel=5, note=43, velocity=0, time=0),
    Message('note_on', channel=5, note=55, velocity=0, time=0),
    Message('note_on', channel=5, note=50, velocity=0, time=0),
    Message('note_on', channel=5, note=55, velocity=127, time=1),
    Message('note_on', channel=5, note=50, velocity=127, time=0),
    Message('note_on', channel=5, note=47, velocity=127, time=0),
    Message('note_on', channel=5, note=43, velocity=127, time=0),
    Message('note_on', channel=5, note=43, velocity=0, time=59),
    Message('note_on', channel=5, note=55, velocity=0, time=0),
    Message('note_on', channel=5, note=50, velocity=0, time=0),
    Message('note_on', channel=5, note=47, velocity=0, time=0),
    Message('note_on', channel=5, note=55, velocity=127, time=1),
    Message('note_on', channel=5, note=50, velocity=127, time=0),
    Message('note_on', channel=5, note=47, velocity=127, time=0),
    Message('note_on', channel=5, note=43, velocity=127, time=0),
    Message('note_on', channel=5, note=43, velocity=0, time=59),
    Message('note_on', channel=5, note=55, velocity=0, time=0),
    Message('note_on', channel=5, note=50, velocity=0, time=0),
    Message('note_on', channel=5, note=47, velocity=0, time=0),
    Message('note_on', channel=5, note=62, velocity=127, time=1),
    Message('note_on', channel=5, note=57, velocity=127, time=0),
    Message('note_on', channel=5, note=50, velocity=127, time=0),
    Message('note_on', channel=5, note=50, velocity=0, time=179),
    Message('note_on', channel=5, note=57, velocity=0, time=0),
    Message('note_on', channel=5, note=62, velocity=0, time=0),
    Message('note_on', channel=5, note=62, velocity=127, time=1),
    Message('note_on', channel=5, note=57, velocity=127, time=0),
    Message('note_on', channel=5, note=50, velocity=127, time=0),
    Message('note_on', channel=5, note=66, velocity=127, time=0),
    Message('note_on', channel=5, note=66, velocity=0, time=119),
    Message('note_on', channel=5, note=64, velocity=127, time=1),
    Message('note_on', channel=5, note=45, velocity=127, time=120),
    Message('note_on', channel=5, note=45, velocity=0, time=59),
    Message('note_on', channel=5, note=62, velocity=0, time=0),
    Message('note_on', channel=5, note=50, velocity=0, time=0),
    Message('note_on', channel=5, note=57, velocity=0, time=0),
    Message('note_on', channel=5, note=64, velocity=0, time=0),
    Message('note_on', channel=5, note=57, velocity=127, time=1),
    Message('note_on', channel=5, note=52, velocity=127, time=0),
    Message('note_on', channel=5, note=45, velocity=127, time=0),
    Message('note_on', channel=5, note=45, velocity=0, time=119),
    Message('note_on', channel=5, note=52, velocity=0, time=0),
    Message('note_on', channel=5, note=57, velocity=0, time=0),
    Message('note_on', channel=5, note=57, velocity=127, time=1),
    Message('note_on', channel=5, note=52, velocity=127, time=0),
    Message('note_on', channel=5, note=45, velocity=127, time=0),
    Message('note_on', channel=5, note=45, velocity=0, time=59),
    Message('note_on', channel=5, note=52, velocity=0, time=0),
    Message('note_on', channel=5, note=57, velocity=0, time=0),
    Message('note_on', channel=5, note=45, velocity=127, time=1),
    Message('note_on', channel=5, note=52, velocity=127, time=0),
    Message('note_on', channel=5, note=57, velocity=127, time=0),
    Message('note_on', channel=5, note=57, velocity=0, time=119),
    Message('note_on', channel=5, note=52, velocity=0, time=0),
    Message('note_on', channel=5, note=45, velocity=0, time=0),
    Message('note_on', channel=5, note=45, velocity=127, time=1),
    Message('note_on', channel=5, note=52, velocity=127, time=0),
    Message('note_on', channel=5, note=57, velocity=127, time=0),
    Message('note_on', channel=5, note=57, velocity=0, time=119),
    Message('note_on', channel=5, note=52, velocity=0, time=0),
    Message('note_on', channel=5, note=45, velocity=0, time=0),
    Message('note_on', channel=5, note=57, velocity=127, time=1),
    Message('note_on', channel=5, note=52, velocity=127, time=0),
    Message('note_on', channel=5, note=45, velocity=127, time=0),
    Message('note_on', channel=5, note=45, velocity=0, time=59),
    Message('note_on', channel=5, note=52, velocity=0, time=0),
    Message('note_on', channel=5, note=57, velocity=0, time=0),
    Message('note_on', channel=5, note=57, velocity=127, time=1),
    Message('note_on', channel=5, note=52, velocity=127, time=0),
    Message('note_on', channel=5, note=45, velocity=127, time=0),
    Message('note_on', channel=5, note=45, velocity=0, time=119),
    Message('note_on', channel=5, note=52, velocity=0, time=0),
    Message('note_on', channel=5, note=57, velocity=0, time=0),
    Message('note_on', channel=5, note=57, velocity=127, time=1),
    Message('note_on', channel=5, note=52, velocity=127, time=0),
    Message('note_on', channel=5, note=45, velocity=127, time=0),
    Message('note_on', channel=5, note=45, velocity=0, time=59),
    Message('note_on', channel=5, note=52, velocity=0, time=0),
    Message('note_on', channel=5, note=57, velocity=0, time=0),
    Message('note_on', channel=5, note=45, velocity=127, time=1),
    Message('note_on', channel=5, note=52, velocity=127, time=0),
    Message('note_on', channel=5, note=57, velocity=127, time=0),
    Message('note_on', channel=5, note=57, velocity=0, time=119),
    Message('note_on', channel=5, note=52, velocity=0, time=0),
    Message('note_on', channel=5, note=45, velocity=0, time=0),
    Message('note_on', channel=5, note=45, velocity=127, time=1),
    Message('note_on', channel=5, note=52, velocity=127, time=0),
    Message('note_on', channel=5, note=57, velocity=127, time=0),
    Message('note_on', channel=5, note=57, velocity=0, time=119),
    Message('note_on', channel=5, note=52, velocity=0, time=0),
    Message('note_on', channel=5, note=45, velocity=0, time=0),
    Message('note_on', channel=5, note=57, velocity=127, time=1),
    Message('note_on', channel=5, note=52, velocity=127, time=0),
    Message('note_on', channel=5, note=45, velocity=127, time=0),
    Message('note_on', channel=5, note=45, velocity=0, time=59),
    Message('note_on', channel=5, note=52, velocity=0, time=0),
    Message('note_on', channel=5, note=57, velocity=0, time=0),
    Message('note_on', channel=5, note=50, velocity=127, time=1),
    Message('note_on', channel=5, note=62, velocity=127, time=0),
    Message('note_on', channel=5, note=57, velocity=127, time=0),
    Message('note_on', channel=5, note=57, velocity=0, time=119),
    Message('note_on', channel=5, note=62, velocity=0, time=0),
    Message('note_on', channel=5, note=50, velocity=0, time=0),
    Message('note_on', channel=5, note=50, velocity=127, time=1),
    Message('note_on', channel=5, note=57, velocity=127, time=0),
    Message('note_on', channel=5, note=62, velocity=127, time=0),
    Message('note_on', channel=5, note=62, velocity=0, time=59),
    Message('note_on', channel=5, note=57, velocity=0, time=0),
    Message('note_on', channel=5, note=50, velocity=0, time=0),
    Message('note_on', channel=5, note=62, velocity=127, time=1),
    Message('note_on', channel=5, note=57, velocity=127, time=0),
    Message('note_on', channel=5, note=50, velocity=127, time=0),
    Message('note_on', channel=5, note=50, velocity=0, time=119),
    Message('note_on', channel=5, note=57, velocity=0, time=0),
    Message('note_on', channel=5, note=62, velocity=0, time=0),
    Message('note_on', channel=5, note=50, velocity=127, time=1),
    Message('note_on', channel=5, note=57, velocity=127, time=0),
    Message('note_on', channel=5, note=62, velocity=127, time=0),
    Message('note_on', channel=5, note=62, velocity=0, time=119),
    Message('note_on', channel=5, note=57, velocity=0, time=0),
    Message('note_on', channel=5, note=50, velocity=0, time=0),
    Message('note_on', channel=5, note=62, velocity=127, time=1),
    Message('note_on', channel=5, note=57, velocity=127, time=0),
    Message('note_on', channel=5, note=50, velocity=127, time=0),
    Message('note_on', channel=5, note=50, velocity=0, time=59),
    Message('note_on', channel=5, note=57, velocity=0, time=0),
    Message('note_on', channel=5, note=62, velocity=0, time=0),
    Message('note_on', channel=5, note=50, velocity=127, time=1),
    Message('note_on', channel=5, note=62, velocity=127, time=0),
    Message('note_on', channel=5, note=57, velocity=127, time=0),
    Message('note_on', channel=5, note=57, velocity=0, time=119),
    Message('note_on', channel=5, note=62, velocity=0, time=0),
    Message('note_on', channel=5, note=50, velocity=0, time=0),
    Message('note_on', channel=5, note=50, velocity=127, time=1),
    Message('note_on', channel=5, note=57, velocity=127, time=0),
    Message('note_on', channel=5, note=62, velocity=127, time=0),
    Message('note_on', channel=5, note=62, velocity=0, time=59),
    Message('note_on', channel=5, note=57, velocity=0, time=0),
    Message('note_on', channel=5, note=50, velocity=0, time=0),
    Message('note_on', channel=5, note=62, velocity=127, time=1),
    Message('note_on', channel=5, note=57, velocity=127, time=0),
    Message('note_on', channel=5, note=50, velocity=127, time=0),
    Message('note_on', channel=5, note=50, velocity=0, time=119),
    Message('note_on', channel=5, note=57, velocity=0, time=0),
    Message('note_on', channel=5, note=62, velocity=0, time=0),
    Message('note_on', channel=5, note=50, velocity=127, time=1),
    Message('note_on', channel=5, note=57, velocity=127, time=0),
    Message('note_on', channel=5, note=62, velocity=127, time=0),
    Message('note_on', channel=5, note=62, velocity=0, time=119),
    Message('note_on', channel=5, note=57, velocity=0, time=0),
    Message('note_on', channel=5, note=50, velocity=0, time=0),
    Message('note_on', channel=5, note=62, velocity=127, time=1),
    Message('note_on', channel=5, note=57, velocity=127, time=0),
    Message('note_on', channel=5, note=50, velocity=127, time=0),
    Message('note_on', channel=5, note=50, velocity=0, time=59),
    Message('note_on', channel=5, note=57, velocity=0, time=0),
    Message('note_on', channel=5, note=62, velocity=0, time=0),
    Message('note_on', channel=5, note=57, velocity=127, time=1),
    Message('note_on', channel=5, note=52, velocity=127, time=0),
    Message('note_on', channel=5, note=45, velocity=127, time=0),
    Message('note_on', channel=5, note=45, velocity=0, time=119),
    Message('note_on', channel=5, note=52, velocity=0, time=0),
    Message('note_on', channel=5, note=57, velocity=0, time=0),
    Message('note_on', channel=5, note=57, velocity=127, time=1),
    Message('note_on', channel=5, note=52, velocity=127, time=0),
    Message('note_on', channel=5, note=45, velocity=127, time=0),
    Message('note_on', channel=5, note=45, velocity=0, time=59),
    Message('note_on', channel=5, note=52, velocity=0, time=0),
    Message('note_on', channel=5, note=57, velocity=0, time=0),
    Message('note_on', channel=5, note=45, velocity=127, time=1),
    Message('note_on', channel=5, note=52, velocity=127, time=0),
    Message('note_on', channel=5, note=57, velocity=127, time=0),
    Message('note_on', channel=5, note=57, velocity=0, time=119),
    Message('note_on', channel=5, note=52, velocity=0, time=0),
    Message('note_on', channel=5, note=45, velocity=0, time=0),
    Message('note_on', channel=5, note=45, velocity=127, time=1),
    Message('note_on', channel=5, note=52, velocity=127, time=0),
    Message('note_on', channel=5, note=57, velocity=127, time=0),
    Message('note_on', channel=5, note=57, velocity=0, time=119),
    Message('note_on', channel=5, note=52, velocity=0, time=0),
    Message('note_on', channel=5, note=45, velocity=0, time=0),
    Message('note_on', channel=5, note=57, velocity=127, time=1),
    Message('note_on', channel=5, note=52, velocity=127, time=0),
    Message('note_on', channel=5, note=45, velocity=127, time=0),
    Message('note_on', channel=5, note=45, velocity=0, time=59),
    Message('note_on', channel=5, note=52, velocity=0, time=0),
    Message('note_on', channel=5, note=57, velocity=0, time=0),
    Message('note_on', channel=5, note=57, velocity=127, time=1),
    Message('note_on', channel=5, note=52, velocity=127, time=0),
    Message('note_on', channel=5, note=45, velocity=127, time=0),
    Message('note_on', channel=5, note=45, velocity=0, time=119),
    Message('note_on', channel=5, note=52, velocity=0, time=0),
    Message('note_on', channel=5, note=57, velocity=0, time=0),
    Message('note_on', channel=5, note=57, velocity=127, time=1),
    Message('note_on', channel=5, note=52, velocity=127, time=0),
    Message('note_on', channel=5, note=45, velocity=127, time=0),
    Message('note_on', channel=5, note=45, velocity=0, time=59),
    Message('note_on', channel=5, note=52, velocity=0, time=0),
    Message('note_on', channel=5, note=57, velocity=0, time=0),
    Message('note_on', channel=5, note=45, velocity=127, time=1),
    Message('note_on', channel=5, note=52, velocity=127, time=0),
    Message('note_on', channel=5, note=57, velocity=127, time=0),
    Message('note_on', channel=5, note=57, velocity=0, time=119),
    Message('note_on', channel=5, note=52, velocity=0, time=0),
    Message('note_on', channel=5, note=45, velocity=0, time=0),
    Message('note_on', channel=5, note=45, velocity=127, time=1),
    Message('note_on', channel=5, note=52, velocity=127, time=0),
    Message('note_on', channel=5, note=57, velocity=127, time=0),
    Message('note_on', channel=5, note=57, velocity=0, time=119),
    Message('note_on', channel=5, note=52, velocity=0, time=0),
    Message('note_on', channel=5, note=45, velocity=0, time=0),
    Message('note_on', channel=5, note=57, velocity=127, time=1),
    Message('note_on', channel=5, note=52, velocity=127, time=0),
    Message('note_on', channel=5, note=45, velocity=127, time=0),
    Message('note_on', channel=5, note=45, velocity=0, time=59),
    Message('note_on', channel=5, note=52, velocity=0, time=0),
    Message('note_on', channel=5, note=57, velocity=0, time=0),
    Message('note_on', channel=5, note=43, velocity=127, time=1),
    Message('note_on', channel=5, note=55, velocity=127, time=0),
    Message('note_on', channel=5, note=50, velocity=127, time=0),
    Message('note_on', channel=5, note=47, velocity=127, time=0),
    Message('note_on', channel=5, note=47, velocity=0, time=179),
    Message('note_on', channel=5, note=43, velocity=0, time=0),
    Message('note_on', channel=5, note=55, velocity=0, time=0),
    Message('note_on', channel=5, note=50, velocity=0, time=0),
    Message('note_on', channel=5, note=55, velocity=127, time=1),
    Message('note_on', channel=5, note=50, velocity=127, time=0),
    Message('note_on', channel=5, note=47, velocity=127, time=0),
    Message('note_on', channel=5, note=43, velocity=127, time=0),
    Message('note_on', channel=5, note=43, velocity=0, time=179),
    Message('note_on', channel=5, note=55, velocity=0, time=0),
    Message('note_on', channel=5, note=50, velocity=0, time=0),
    Message('note_on', channel=5, note=47, velocity=0, time=0),
    Message('note_on', channel=5, note=43, velocity=127, time=1),
    Message('note_on', channel=5, note=47, velocity=127, time=0),
    Message('note_on', channel=5, note=50, velocity=127, time=0),
    Message('note_on', channel=5, note=55, velocity=127, time=0),
    Message('note_on', channel=5, note=55, velocity=0, time=59),
    Message('note_on', channel=5, note=43, velocity=0, time=0),
    Message('note_on', channel=5, note=47, velocity=0, time=0),
    Message('note_on', channel=5, note=50, velocity=0, time=0),
    Message('note_on', channel=5, note=43, velocity=127, time=61),
    Message('note_on', channel=5, note=47, velocity=127, time=0),
    Message('note_on', channel=5, note=50, velocity=127, time=0),
    Message('note_on', channel=5, note=55, velocity=127, time=0),
    Message('note_on', channel=5, note=55, velocity=0, time=179),
    Message('note_on', channel=5, note=43, velocity=0, time=0),
    Message('note_on', channel=5, note=47, velocity=0, time=0),
    Message('note_on', channel=5, note=50, velocity=0, time=0),
    Message('note_on', channel=5, note=43, velocity=127, time=1),
    Message('note_on', channel=5, note=47, velocity=127, time=0),
    Message('note_on', channel=5, note=50, velocity=127, time=0),
    Message('note_on', channel=5, note=55, velocity=127, time=0),
    Message('note_on', channel=5, note=55, velocity=0, time=179),
    Message('note_on', channel=5, note=43, velocity=0, time=0),
    Message('note_on', channel=5, note=47, velocity=0, time=0),
    Message('note_on', channel=5, note=50, velocity=0, time=0),
    Message('note_on', channel=5, note=50, velocity=127, time=1),
    Message('note_on', channel=5, note=43, velocity=127, time=0),
    Message('note_on', channel=5, note=47, velocity=127, time=0),
    Message('note_on', channel=5, note=55, velocity=127, time=0),
    Message('note_on', channel=5, note=55, velocity=0, time=119),
    Message('note_on', channel=5, note=50, velocity=0, time=0),
    Message('note_on', channel=5, note=43, velocity=0, time=0),
    Message('note_on', channel=5, note=47, velocity=0, time=0),
    Message('note_on', channel=5, note=43, velocity=127, time=1),
    Message('note_on', channel=5, note=47, velocity=127, time=0),
    Message('note_on', channel=5, note=50, velocity=127, time=0),
    Message('note_on', channel=5, note=55, velocity=127, time=0),
    Message('note_on', channel=5, note=55, velocity=0, time=179),
    Message('note_on', channel=5, note=43, velocity=0, time=0),
    Message('note_on', channel=5, note=47, velocity=0, time=0),
    Message('note_on', channel=5, note=50, velocity=0, time=0),
    Message('note_on', channel=5, note=43, velocity=127, time=1),
    Message('note_on', channel=5, note=47, velocity=127, time=0),
    Message('note_on', channel=5, note=50, velocity=127, time=0),
    Message('note_on', channel=5, note=55, velocity=127, time=0),
    Message('note_on', channel=5, note=55, velocity=0, time=179),
    Message('note_on', channel=5, note=43, velocity=0, time=0),
    Message('note_on', channel=5, note=47, velocity=0, time=0),
    Message('note_on', channel=5, note=50, velocity=0, time=0),
    Message('note_on', channel=5, note=50, velocity=127, time=1),
    Message('note_on', channel=5, note=43, velocity=127, time=0),
    Message('note_on', channel=5, note=47, velocity=127, time=0),
    Message('note_on', channel=5, note=55, velocity=127, time=0),
    Message('note_on', channel=5, note=55, velocity=0, time=59),
    Message('note_on', channel=5, note=50, velocity=0, time=0),
    Message('note_on', channel=5, note=43, velocity=0, time=0),
    Message('note_on', channel=5, note=47, velocity=0, time=0),
    Message('note_on', channel=5, note=43, velocity=127, time=1),
    Message('note_on', channel=5, note=47, velocity=127, time=0),
    Message('note_on', channel=5, note=50, velocity=127, time=0),
    Message('note_on', channel=5, note=55, velocity=127, time=0),
    Message('note_on', channel=5, note=55, velocity=0, time=59),
    Message('note_on', channel=5, note=43, velocity=0, time=0),
    Message('note_on', channel=5, note=47, velocity=0, time=0),
    Message('note_on', channel=5, note=50, velocity=0, time=0),
    Message('note_on', channel=5, note=43, velocity=127, time=1),
    Message('note_on', channel=5, note=47, velocity=127, time=0),
    Message('note_on', channel=5, note=50, velocity=127, time=0),
    Message('note_on', channel=5, note=55, velocity=127, time=0),
    Message('note_on', channel=5, note=55, velocity=0, time=119),
    Message('note_on', channel=5, note=43, velocity=0, time=0),
    Message('note_on', channel=5, note=47, velocity=0, time=0),
    Message('note_on', channel=5, note=50, velocity=0, time=0),
    Message('note_on', channel=5, note=55, velocity=127, time=1),
    Message('note_on', channel=5, note=43, velocity=127, time=0),
    Message('note_on', channel=5, note=47, velocity=127, time=0),
    Message('note_on', channel=5, note=50, velocity=127, time=0),
    Message('note_on', channel=5, note=50, velocity=0, time=59),
    Message('note_on', channel=5, note=55, velocity=0, time=0),
    Message('note_on', channel=5, note=43, velocity=0, time=0),
    Message('note_on', channel=5, note=47, velocity=0, time=0),
    Message('note_on', channel=5, note=55, velocity=127, time=1),
    Message('note_on', channel=5, note=50, velocity=127, time=0),
    Message('note_on', channel=5, note=47, velocity=127, time=0),
    Message('note_on', channel=5, note=43, velocity=127, time=0),
    Message('note_on', channel=5, note=43, velocity=0, time=119),
    Message('note_on', channel=5, note=55, velocity=0, time=0),
    Message('note_on', channel=5, note=50, velocity=0, time=0),
    Message('note_on', channel=5, note=47, velocity=0, time=0),
    Message('note_on', channel=5, note=43, velocity=127, time=1),
    Message('note_on', channel=5, note=47, velocity=127, time=0),
    Message('note_on', channel=5, note=50, velocity=127, time=0),
    Message('note_on', channel=5, note=55, velocity=127, time=0),
    Message('note_on', channel=5, note=55, velocity=0, time=59),
    Message('note_on', channel=5, note=43, velocity=0, time=0),
    Message('note_on', channel=5, note=47, velocity=0, time=0),
    Message('note_on', channel=5, note=50, velocity=0, time=0),
    Message('note_on', channel=5, note=43, velocity=127, time=1),
    Message('note_on', channel=5, note=47, velocity=127, time=0),
    Message('note_on', channel=5, note=50, velocity=127, time=0),
    Message('note_on', channel=5, note=55, velocity=127, time=0),
    Message('note_on', channel=5, note=55, velocity=0, time=59),
    Message('note_on', channel=5, note=43, velocity=0, time=0),
    Message('note_on', channel=5, note=47, velocity=0, time=0),
    Message('note_on', channel=5, note=50, velocity=0, time=0),
    Message('note_on', channel=5, note=43, velocity=127, time=1),
    Message('note_on', channel=5, note=47, velocity=127, time=0),
    Message('note_on', channel=5, note=50, velocity=127, time=0),
    Message('note_on', channel=5, note=55, velocity=127, time=0),
    Message('note_on', channel=5, note=55, velocity=0, time=59),
    Message('note_on', channel=5, note=43, velocity=0, time=0),
    Message('note_on', channel=5, note=47, velocity=0, time=0),
    Message('note_on', channel=5, note=50, velocity=0, time=0),
    Message('note_on', channel=5, note=62, velocity=127, time=1),
    Message('note_on', channel=5, note=57, velocity=127, time=0),
    Message('note_on', channel=5, note=50, velocity=127, time=0),
    Message('note_on', channel=5, note=50, velocity=0, time=179),
    Message('note_on', channel=5, note=57, velocity=0, time=0),
    Message('note_on', channel=5, note=62, velocity=0, time=0),
    Message('note_on', channel=5, note=62, velocity=127, time=1),
    Message('note_on', channel=5, note=57, velocity=127, time=0),
    Message('note_on', channel=5, note=50, velocity=127, time=0),
    Message('note_on', channel=5, note=66, velocity=127, time=0),
    Message('note_on', channel=5, note=66, velocity=0, time=119),
    Message('note_on', channel=5, note=64, velocity=127, time=1),
    Message('note_on', channel=5, note=45, velocity=127, time=120),
    Message('note_on', channel=5, note=45, velocity=0, time=59),
    Message('note_on', channel=5, note=62, velocity=0, time=0),
    Message('note_on', channel=5, note=50, velocity=0, time=0),
    Message('note_on', channel=5, note=57, velocity=0, time=0),
    Message('note_on', channel=5, note=64, velocity=0, time=0),
    Message('note_on', channel=5, note=57, velocity=127, time=1),
    Message('note_on', channel=5, note=52, velocity=127, time=0),
    Message('note_on', channel=5, note=45, velocity=127, time=0),
    Message('note_on', channel=5, note=45, velocity=0, time=119),
    Message('note_on', channel=5, note=52, velocity=0, time=0),
    Message('note_on', channel=5, note=57, velocity=0, time=0),
    Message('note_on', channel=5, note=57, velocity=127, time=1),
    Message('note_on', channel=5, note=52, velocity=127, time=0),
    Message('note_on', channel=5, note=45, velocity=127, time=0),
    Message('note_on', channel=5, note=45, velocity=0, time=59),
    Message('note_on', channel=5, note=52, velocity=0, time=0),
    Message('note_on', channel=5, note=57, velocity=0, time=0),
    Message('note_on', channel=5, note=45, velocity=127, time=1),
    Message('note_on', channel=5, note=52, velocity=127, time=0),
    Message('note_on', channel=5, note=57, velocity=127, time=0),
    Message('note_on', channel=5, note=57, velocity=0, time=59),
    Message('note_on', channel=5, note=52, velocity=0, time=0),
    Message('note_on', channel=5, note=45, velocity=0, time=0),
    Message('note_on', channel=5, note=43, velocity=127, time=1),
    Message('note_on', channel=5, note=55, velocity=127, time=0),
    Message('note_on', channel=5, note=50, velocity=127, time=0),
    Message('note_on', channel=5, note=47, velocity=127, time=0),
    Message('note_on', channel=5, note=47, velocity=0, time=119),
    Message('note_on', channel=5, note=43, velocity=0, time=0),
    Message('note_on', channel=5, note=55, velocity=0, time=0),
    Message('note_on', channel=5, note=50, velocity=0, time=0),
    Message('note_on', channel=5, note=55, velocity=127, time=1),
    Message('note_on', channel=5, note=50, velocity=127, time=0),
    Message('note_on', channel=5, note=47, velocity=127, time=0),
    Message('note_on', channel=5, note=43, velocity=127, time=0),
    Message('note_on', channel=5, note=43, velocity=0, time=59),
    Message('note_on', channel=5, note=55, velocity=0, time=0),
    Message('note_on', channel=5, note=50, velocity=0, time=0),
    Message('note_on', channel=5, note=47, velocity=0, time=0),
    Message('note_on', channel=5, note=55, velocity=127, time=1),
    Message('note_on', channel=5, note=50, velocity=127, time=0),
    Message('note_on', channel=5, note=47, velocity=127, time=0),
    Message('note_on', channel=5, note=43, velocity=127, time=0),
    Message('note_on', channel=5, note=43, velocity=0, time=59),
    Message('note_on', channel=5, note=55, velocity=0, time=0),
    Message('note_on', channel=5, note=50, velocity=0, time=0),
    Message('note_on', channel=5, note=47, velocity=0, time=0),
    Message('note_on', channel=5, note=62, velocity=127, time=1),
    Message('note_on', channel=5, note=57, velocity=127, time=0),
    Message('note_on', channel=5, note=50, velocity=127, time=0),
    Message('note_on', channel=5, note=50, velocity=0, time=179),
    Message('note_on', channel=5, note=57, velocity=0, time=0),
    Message('note_on', channel=5, note=62, velocity=0, time=0),
    Message('note_on', channel=5, note=62, velocity=127, time=1),
    Message('note_on', channel=5, note=57, velocity=127, time=0),
    Message('note_on', channel=5, note=50, velocity=127, time=0),
    Message('note_on', channel=5, note=66, velocity=127, time=0),
    Message('note_on', channel=5, note=66, velocity=0, time=119),
    Message('note_on', channel=5, note=64, velocity=127, time=1),
    Message('note_on', channel=5, note=45, velocity=127, time=120),
    Message('note_on', channel=5, note=45, velocity=0, time=59),
    Message('note_on', channel=5, note=62, velocity=0, time=0),
    Message('note_on', channel=5, note=50, velocity=0, time=0),
    Message('note_on', channel=5, note=57, velocity=0, time=0),
    Message('note_on', channel=5, note=64, velocity=0, time=0),
    Message('note_on', channel=5, note=57, velocity=127, time=1),
    Message('note_on', channel=5, note=52, velocity=127, time=0),
    Message('note_on', channel=5, note=45, velocity=127, time=0),
    Message('note_on', channel=5, note=45, velocity=0, time=119),
    Message('note_on', channel=5, note=52, velocity=0, time=0),
    Message('note_on', channel=5, note=57, velocity=0, time=0),
    Message('note_on', channel=5, note=57, velocity=127, time=1),
    Message('note_on', channel=5, note=52, velocity=127, time=0),
    Message('note_on', channel=5, note=45, velocity=127, time=0),
    Message('note_on', channel=5, note=45, velocity=0, time=59),
    Message('note_on', channel=5, note=52, velocity=0, time=0),
    Message('note_on', channel=5, note=57, velocity=0, time=0),
    Message('note_on', channel=5, note=45, velocity=127, time=1),
    Message('note_on', channel=5, note=52, velocity=127, time=0),
    Message('note_on', channel=5, note=57, velocity=127, time=0),
    Message('note_on', channel=5, note=57, velocity=0, time=59),
    Message('note_on', channel=5, note=52, velocity=0, time=0),
    Message('note_on', channel=5, note=45, velocity=0, time=0),
    Message('note_on', channel=5, note=43, velocity=127, time=1),
    Message('note_on', channel=5, note=55, velocity=127, time=0),
    Message('note_on', channel=5, note=50, velocity=127, time=0),
    Message('note_on', channel=5, note=47, velocity=127, time=0),
    Message('note_on', channel=5, note=47, velocity=0, time=119),
    Message('note_on', channel=5, note=43, velocity=0, time=0),
    Message('note_on', channel=5, note=55, velocity=0, time=0),
    Message('note_on', channel=5, note=50, velocity=0, time=0),
    Message('note_on', channel=5, note=55, velocity=127, time=1),
    Message('note_on', channel=5, note=50, velocity=127, time=0),
    Message('note_on', channel=5, note=47, velocity=127, time=0),
    Message('note_on', channel=5, note=43, velocity=127, time=0),
    Message('note_on', channel=5, note=43, velocity=0, time=59),
    Message('note_on', channel=5, note=55, velocity=0, time=0),
    Message('note_on', channel=5, note=50, velocity=0, time=0),
    Message('note_on', channel=5, note=47, velocity=0, time=0),
    Message('note_on', channel=5, note=55, velocity=127, time=1),
    Message('note_on', channel=5, note=50, velocity=127, time=0),
    Message('note_on', channel=5, note=47, velocity=127, time=0),
    Message('note_on', channel=5, note=43, velocity=127, time=0),
    Message('note_on', channel=5, note=43, velocity=0, time=59),
    Message('note_on', channel=5, note=55, velocity=0, time=0),
    Message('note_on', channel=5, note=50, velocity=0, time=0),
    Message('note_on', channel=5, note=47, velocity=0, time=0),
    Message('note_on', channel=5, note=62, velocity=127, time=1),
    Message('note_on', channel=5, note=57, velocity=127, time=0),
    Message('note_on', channel=5, note=50, velocity=127, time=0),
    Message('note_on', channel=5, note=50, velocity=0, time=179),
    Message('note_on', channel=5, note=57, velocity=0, time=0),
    Message('note_on', channel=5, note=62, velocity=0, time=0),
    Message('note_on', channel=5, note=62, velocity=127, time=1),
    Message('note_on', channel=5, note=57, velocity=127, time=0),
    Message('note_on', channel=5, note=50, velocity=127, time=0),
    Message('note_on', channel=5, note=66, velocity=127, time=0),
    Message('note_on', channel=5, note=66, velocity=0, time=119),
    Message('note_on', channel=5, note=64, velocity=127, time=1),
    Message('note_on', channel=5, note=45, velocity=127, time=120),
    Message('note_on', channel=5, note=45, velocity=0, time=59),
    Message('note_on', channel=5, note=62, velocity=0, time=0),
    Message('note_on', channel=5, note=50, velocity=0, time=0),
    Message('note_on', channel=5, note=57, velocity=0, time=0),
    Message('note_on', channel=5, note=64, velocity=0, time=0),
    Message('note_on', channel=5, note=57, velocity=127, time=1),
    Message('note_on', channel=5, note=52, velocity=127, time=0),
    Message('note_on', channel=5, note=45, velocity=127, time=0),
    Message('note_on', channel=5, note=45, velocity=0, time=119),
    Message('note_on', channel=5, note=52, velocity=0, time=0),
    Message('note_on', channel=5, note=57, velocity=0, time=0),
    Message('note_on', channel=5, note=57, velocity=127, time=1),
    Message('note_on', channel=5, note=52, velocity=127, time=0),
    Message('note_on', channel=5, note=45, velocity=127, time=0),
    Message('note_on', channel=5, note=45, velocity=0, time=59),
    Message('note_on', channel=5, note=52, velocity=0, time=0),
    Message('note_on', channel=5, note=57, velocity=0, time=0),
    Message('note_on', channel=5, note=45, velocity=127, time=1),
    Message('note_on', channel=5, note=52, velocity=127, time=0),
    Message('note_on', channel=5, note=57, velocity=127, time=0),
    Message('note_on', channel=5, note=57, velocity=0, time=59),
    Message('note_on', channel=5, note=52, velocity=0, time=0),
    Message('note_on', channel=5, note=45, velocity=0, time=0),
    Message('note_on', channel=5, note=43, velocity=127, time=1),
    Message('note_on', channel=5, note=55, velocity=127, time=0),
    Message('note_on', channel=5, note=50, velocity=127, time=0),
    Message('note_on', channel=5, note=47, velocity=127, time=0),
    Message('note_on', channel=5, note=47, velocity=0, time=119),
    Message('note_on', channel=5, note=43, velocity=0, time=0),
    Message('note_on', channel=5, note=55, velocity=0, time=0),
    Message('note_on', channel=5, note=50, velocity=0, time=0),
    Message('note_on', channel=5, note=55, velocity=127, time=1),
    Message('note_on', channel=5, note=50, velocity=127, time=0),
    Message('note_on', channel=5, note=47, velocity=127, time=0),
    Message('note_on', channel=5, note=43, velocity=127, time=0),
    Message('note_on', channel=5, note=43, velocity=0, time=59),
    Message('note_on', channel=5, note=55, velocity=0, time=0),
    Message('note_on', channel=5, note=50, velocity=0, time=0),
    Message('note_on', channel=5, note=47, velocity=0, time=0),
    Message('note_on', channel=5, note=55, velocity=127, time=1),
    Message('note_on', channel=5, note=50, velocity=127, time=0),
    Message('note_on', channel=5, note=47, velocity=127, time=0),
    Message('note_on', channel=5, note=43, velocity=127, time=0),
    Message('note_on', channel=5, note=43, velocity=0, time=59),
    Message('note_on', channel=5, note=55, velocity=0, time=0),
    Message('note_on', channel=5, note=50, velocity=0, time=0),
    Message('note_on', channel=5, note=47, velocity=0, time=0),
    Message('note_on', channel=5, note=62, velocity=127, time=1),
    Message('note_on', channel=5, note=57, velocity=127, time=0),
    Message('note_on', channel=5, note=50, velocity=127, time=0),
    Message('note_on', channel=5, note=50, velocity=0, time=179),
    Message('note_on', channel=5, note=57, velocity=0, time=0),
    Message('note_on', channel=5, note=62, velocity=0, time=0),
    Message('note_on', channel=5, note=62, velocity=127, time=1),
    Message('note_on', channel=5, note=57, velocity=127, time=0),
    Message('note_on', channel=5, note=50, velocity=127, time=0),
    Message('note_on', channel=5, note=66, velocity=127, time=0),
    Message('note_on', channel=5, note=66, velocity=0, time=119),
    Message('note_on', channel=5, note=64, velocity=127, time=1),
    Message('note_on', channel=5, note=45, velocity=127, time=120),
    Message('note_on', channel=5, note=45, velocity=0, time=59),
    Message('note_on', channel=5, note=62, velocity=0, time=0),
    Message('note_on', channel=5, note=50, velocity=0, time=0),
    Message('note_on', channel=5, note=57, velocity=0, time=0),
    Message('note_on', channel=5, note=64, velocity=0, time=0),
    Message('note_on', channel=5, note=57, velocity=127, time=1),
    Message('note_on', channel=5, note=52, velocity=127, time=0),
    Message('note_on', channel=5, note=45, velocity=127, time=0),
    Message('note_on', channel=5, note=45, velocity=0, time=119),
    Message('note_on', channel=5, note=52, velocity=0, time=0),
    Message('note_on', channel=5, note=57, velocity=0, time=0),
    Message('note_on', channel=5, note=57, velocity=127, time=1),
    Message('note_on', channel=5, note=52, velocity=127, time=0),
    Message('note_on', channel=5, note=45, velocity=127, time=0),
    Message('note_on', channel=5, note=45, velocity=0, time=59),
    Message('note_on', channel=5, note=52, velocity=0, time=0),
    Message('note_on', channel=5, note=57, velocity=0, time=0),
    Message('note_on', channel=5, note=45, velocity=127, time=1),
    Message('note_on', channel=5, note=52, velocity=127, time=0),
    Message('note_on', channel=5, note=57, velocity=127, time=0),
    Message('note_on', channel=5, note=57, velocity=0, time=59),
    Message('note_on', channel=5, note=52, velocity=0, time=0),
    Message('note_on', channel=5, note=45, velocity=0, time=0),
    Message('note_on', channel=5, note=43, velocity=127, time=1),
    Message('note_on', channel=5, note=55, velocity=127, time=0),
    Message('note_on', channel=5, note=50, velocity=127, time=0),
    Message('note_on', channel=5, note=47, velocity=127, time=0),
    Message('note_on', channel=5, note=47, velocity=0, time=119),
    Message('note_on', channel=5, note=43, velocity=0, time=0),
    Message('note_on', channel=5, note=55, velocity=0, time=0),
    Message('note_on', channel=5, note=50, velocity=0, time=0),
    Message('note_on', channel=5, note=55, velocity=127, time=1),
    Message('note_on', channel=5, note=50, velocity=127, time=0),
    Message('note_on', channel=5, note=47, velocity=127, time=0),
    Message('note_on', channel=5, note=43, velocity=127, time=0),
    Message('note_on', channel=5, note=43, velocity=0, time=59),
    Message('note_on', channel=5, note=55, velocity=0, time=0),
    Message('note_on', channel=5, note=50, velocity=0, time=0),
    Message('note_on', channel=5, note=47, velocity=0, time=0),
    Message('note_on', channel=5, note=55, velocity=127, time=1),
    Message('note_on', channel=5, note=50, velocity=127, time=0),
    Message('note_on', channel=5, note=47, velocity=127, time=0),
    Message('note_on', channel=5, note=43, velocity=127, time=0),
    Message('note_on', channel=5, note=43, velocity=0, time=59),
    Message('note_on', channel=5, note=55, velocity=0, time=0),
    Message('note_on', channel=5, note=50, velocity=0, time=0),
    Message('note_on', channel=5, note=47, velocity=0, time=0),
    Message('note_on', channel=5, note=62, velocity=127, time=1),
    Message('note_on', channel=5, note=57, velocity=127, time=0),
    Message('note_on', channel=5, note=50, velocity=127, time=0),
    Message('note_on', channel=5, note=50, velocity=0, time=179),
    Message('note_on', channel=5, note=57, velocity=0, time=0),
    Message('note_on', channel=5, note=62, velocity=0, time=0),
    Message('note_on', channel=5, note=62, velocity=127, time=1),
    Message('note_on', channel=5, note=57, velocity=127, time=0),
    Message('note_on', channel=5, note=50, velocity=127, time=0),
    Message('note_on', channel=5, note=66, velocity=127, time=0),
    Message('note_on', channel=5, note=66, velocity=0, time=119),
    Message('note_on', channel=5, note=64, velocity=127, time=1),
    Message('note_on', channel=5, note=45, velocity=127, time=120),
    Message('note_on', channel=5, note=45, velocity=0, time=59),
    Message('note_on', channel=5, note=62, velocity=0, time=0),
    Message('note_on', channel=5, note=50, velocity=0, time=0),
    Message('note_on', channel=5, note=57, velocity=0, time=0),
    Message('note_on', channel=5, note=64, velocity=0, time=0),
    Message('note_on', channel=5, note=57, velocity=127, time=1),
    Message('note_on', channel=5, note=52, velocity=127, time=0),
    Message('note_on', channel=5, note=45, velocity=127, time=0),
    Message('note_on', channel=5, note=45, velocity=0, time=119),
    Message('note_on', channel=5, note=52, velocity=0, time=0),
    Message('note_on', channel=5, note=57, velocity=0, time=0),
    Message('note_on', channel=5, note=57, velocity=127, time=1),
    Message('note_on', channel=5, note=52, velocity=127, time=0),
    Message('note_on', channel=5, note=45, velocity=127, time=0),
    Message('note_on', channel=5, note=45, velocity=0, time=59),
    Message('note_on', channel=5, note=52, velocity=0, time=0),
    Message('note_on', channel=5, note=57, velocity=0, time=0),
    Message('note_on', channel=5, note=45, velocity=127, time=1),
    Message('note_on', channel=5, note=52, velocity=127, time=0),
    Message('note_on', channel=5, note=57, velocity=127, time=0),
    Message('note_on', channel=5, note=57, velocity=0, time=59),
    Message('note_on', channel=5, note=52, velocity=0, time=0),
    Message('note_on', channel=5, note=45, velocity=0, time=0),
    Message('note_on', channel=5, note=43, velocity=127, time=1),
    Message('note_on', channel=5, note=55, velocity=127, time=0),
    Message('note_on', channel=5, note=50, velocity=127, time=0),
    Message('note_on', channel=5, note=47, velocity=127, time=0),
    Message('note_on', channel=5, note=47, velocity=0, time=119),
    Message('note_on', channel=5, note=43, velocity=0, time=0),
    Message('note_on', channel=5, note=55, velocity=0, time=0),
    Message('note_on', channel=5, note=50, velocity=0, time=0),
    Message('note_on', channel=5, note=55, velocity=127, time=1),
    Message('note_on', channel=5, note=50, velocity=127, time=0),
    Message('note_on', channel=5, note=47, velocity=127, time=0),
    Message('note_on', channel=5, note=43, velocity=127, time=0),
    Message('note_on', channel=5, note=43, velocity=0, time=59),
    Message('note_on', channel=5, note=55, velocity=0, time=0),
    Message('note_on', channel=5, note=50, velocity=0, time=0),
    Message('note_on', channel=5, note=47, velocity=0, time=0),
    Message('note_on', channel=5, note=55, velocity=127, time=1),
    Message('note_on', channel=5, note=50, velocity=127, time=0),
    Message('note_on', channel=5, note=47, velocity=127, time=0),
    Message('note_on', channel=5, note=43, velocity=127, time=0),
    Message('note_on', channel=5, note=43, velocity=0, time=59),
    Message('note_on', channel=5, note=55, velocity=0, time=0),
    Message('note_on', channel=5, note=50, velocity=0, time=0),
    Message('note_on', channel=5, note=47, velocity=0, time=0),
    Message('note_on', channel=5, note=62, velocity=127, time=1),
    Message('note_on', channel=5, note=57, velocity=127, time=0),
    Message('note_on', channel=5, note=50, velocity=127, time=0),
    Message('note_on', channel=5, note=50, velocity=0, time=179),
    Message('note_on', channel=5, note=57, velocity=0, time=0),
    Message('note_on', channel=5, note=62, velocity=0, time=0),
    Message('note_on', channel=5, note=62, velocity=127, time=1),
    Message('note_on', channel=5, note=57, velocity=127, time=0),
    Message('note_on', channel=5, note=50, velocity=127, time=0),
    Message('note_on', channel=5, note=66, velocity=127, time=0),
    Message('note_on', channel=5, note=66, velocity=0, time=119),
    Message('note_on', channel=5, note=64, velocity=127, time=1),
    Message('note_on', channel=5, note=45, velocity=127, time=120),
    Message('note_on', channel=5, note=45, velocity=0, time=59),
    Message('note_on', channel=5, note=62, velocity=0, time=0),
    Message('note_on', channel=5, note=50, velocity=0, time=0),
    Message('note_on', channel=5, note=57, velocity=0, time=0),
    Message('note_on', channel=5, note=64, velocity=0, time=0),
    Message('note_on', channel=5, note=57, velocity=127, time=1),
    Message('note_on', channel=5, note=52, velocity=127, time=0),
    Message('note_on', channel=5, note=45, velocity=127, time=0),
    Message('note_on', channel=5, note=45, velocity=0, time=119),
    Message('note_on', channel=5, note=52, velocity=0, time=0),
    Message('note_on', channel=5, note=57, velocity=0, time=0),
    Message('note_on', channel=5, note=57, velocity=127, time=1),
    Message('note_on', channel=5, note=52, velocity=127, time=0),
    Message('note_on', channel=5, note=45, velocity=127, time=0),
    Message('note_on', channel=5, note=45, velocity=0, time=59),
    Message('note_on', channel=5, note=52, velocity=0, time=0),
    Message('note_on', channel=5, note=57, velocity=0, time=0),
    Message('note_on', channel=5, note=45, velocity=127, time=1),
    Message('note_on', channel=5, note=52, velocity=127, time=0),
    Message('note_on', channel=5, note=57, velocity=127, time=0),
    Message('note_on', channel=5, note=57, velocity=0, time=59),
    Message('note_on', channel=5, note=52, velocity=0, time=0),
    Message('note_on', channel=5, note=45, velocity=0, time=0),
    Message('note_on', channel=5, note=43, velocity=127, time=1),
    Message('note_on', channel=5, note=55, velocity=127, time=0),
    Message('note_on', channel=5, note=50, velocity=127, time=0),
    Message('note_on', channel=5, note=47, velocity=127, time=0),
    Message('note_on', channel=5, note=47, velocity=0, time=119),
    Message('note_on', channel=5, note=43, velocity=0, time=0),
    Message('note_on', channel=5, note=55, velocity=0, time=0),
    Message('note_on', channel=5, note=50, velocity=0, time=0),
    Message('note_on', channel=5, note=55, velocity=127, time=1),
    Message('note_on', channel=5, note=50, velocity=127, time=0),
    Message('note_on', channel=5, note=47, velocity=127, time=0),
    Message('note_on', channel=5, note=43, velocity=127, time=0),
    Message('note_on', channel=5, note=43, velocity=0, time=59),
    Message('note_on', channel=5, note=55, velocity=0, time=0),
    Message('note_on', channel=5, note=50, velocity=0, time=0),
    Message('note_on', channel=5, note=47, velocity=0, time=0),
    Message('note_on', channel=5, note=55, velocity=127, time=1),
    Message('note_on', channel=5, note=50, velocity=127, time=0),
    Message('note_on', channel=5, note=47, velocity=127, time=0),
    Message('note_on', channel=5, note=43, velocity=127, time=0),
    Message('note_on', channel=5, note=43, velocity=0, time=59),
    Message('note_on', channel=5, note=55, velocity=0, time=0),
    Message('note_on', channel=5, note=50, velocity=0, time=0),
    Message('note_on', channel=5, note=47, velocity=0, time=0),
    Message('note_on', channel=5, note=62, velocity=127, time=1),
    Message('note_on', channel=5, note=57, velocity=127, time=0),
    Message('note_on', channel=5, note=50, velocity=127, time=0),
    Message('note_on', channel=5, note=50, velocity=0, time=179),
    Message('note_on', channel=5, note=57, velocity=0, time=0),
    Message('note_on', channel=5, note=62, velocity=0, time=0),
    Message('note_on', channel=5, note=62, velocity=127, time=1),
    Message('note_on', channel=5, note=57, velocity=127, time=0),
    Message('note_on', channel=5, note=50, velocity=127, time=0),
    Message('note_on', channel=5, note=66, velocity=127, time=0),
    Message('note_on', channel=5, note=66, velocity=0, time=119),
    Message('note_on', channel=5, note=64, velocity=127, time=1),
    Message('note_on', channel=5, note=45, velocity=127, time=120),
    Message('note_on', channel=5, note=45, velocity=0, time=59),
    Message('note_on', channel=5, note=62, velocity=0, time=0),
    Message('note_on', channel=5, note=50, velocity=0, time=0),
    Message('note_on', channel=5, note=57, velocity=0, time=0),
    Message('note_on', channel=5, note=64, velocity=0, time=0),
    Message('note_on', channel=5, note=57, velocity=127, time=1),
    Message('note_on', channel=5, note=52, velocity=127, time=0),
    Message('note_on', channel=5, note=45, velocity=127, time=0),
    Message('note_on', channel=5, note=45, velocity=0, time=119),
    Message('note_on', channel=5, note=52, velocity=0, time=0),
    Message('note_on', channel=5, note=57, velocity=0, time=0),
    Message('note_on', channel=5, note=57, velocity=127, time=1),
    Message('note_on', channel=5, note=52, velocity=127, time=0),
    Message('note_on', channel=5, note=45, velocity=127, time=0),
    Message('note_on', channel=5, note=45, velocity=0, time=59),
    Message('note_on', channel=5, note=52, velocity=0, time=0),
    Message('note_on', channel=5, note=57, velocity=0, time=0),
    Message('note_on', channel=5, note=45, velocity=127, time=1),
    Message('note_on', channel=5, note=52, velocity=127, time=0),
    Message('note_on', channel=5, note=57, velocity=127, time=0),
    Message('note_on', channel=5, note=57, velocity=0, time=59),
    Message('note_on', channel=5, note=52, velocity=0, time=0),
    Message('note_on', channel=5, note=45, velocity=0, time=0),
    Message('note_on', channel=5, note=43, velocity=127, time=1),
    Message('note_on', channel=5, note=55, velocity=127, time=0),
    Message('note_on', channel=5, note=50, velocity=127, time=0),
    Message('note_on', channel=5, note=47, velocity=127, time=0),
    Message('note_on', channel=5, note=47, velocity=0, time=119),
    Message('note_on', channel=5, note=43, velocity=0, time=0),
    Message('note_on', channel=5, note=55, velocity=0, time=0),
    Message('note_on', channel=5, note=50, velocity=0, time=0),
    Message('note_on', channel=5, note=55, velocity=127, time=1),
    Message('note_on', channel=5, note=50, velocity=127, time=0),
    Message('note_on', channel=5, note=47, velocity=127, time=0),
    Message('note_on', channel=5, note=43, velocity=127, time=0),
    Message('note_on', channel=5, note=43, velocity=0, time=59),
    Message('note_on', channel=5, note=55, velocity=0, time=0),
    Message('note_on', channel=5, note=50, velocity=0, time=0),
    Message('note_on', channel=5, note=47, velocity=0, time=0),
    Message('note_on', channel=5, note=55, velocity=127, time=1),
    Message('note_on', channel=5, note=50, velocity=127, time=0),
    Message('note_on', channel=5, note=47, velocity=127, time=0),
    Message('note_on', channel=5, note=43, velocity=127, time=0),
    Message('note_on', channel=5, note=43, velocity=0, time=59),
    Message('note_on', channel=5, note=55, velocity=0, time=0),
    Message('note_on', channel=5, note=50, velocity=0, time=0),
    Message('note_on', channel=5, note=47, velocity=0, time=0),
    Message('note_on', channel=5, note=62, velocity=127, time=1),
    Message('note_on', channel=5, note=57, velocity=127, time=0),
    Message('note_on', channel=5, note=50, velocity=127, time=0),
    Message('note_on', channel=5, note=50, velocity=0, time=179),
    Message('note_on', channel=5, note=57, velocity=0, time=0),
    Message('note_on', channel=5, note=62, velocity=0, time=0),
    Message('note_on', channel=5, note=62, velocity=127, time=1),
    Message('note_on', channel=5, note=57, velocity=127, time=0),
    Message('note_on', channel=5, note=50, velocity=127, time=0),
    Message('note_on', channel=5, note=66, velocity=127, time=0),
    Message('note_on', channel=5, note=66, velocity=0, time=119),
    Message('note_on', channel=5, note=64, velocity=127, time=1),
    Message('note_on', channel=5, note=45, velocity=127, time=120),
    Message('note_on', channel=5, note=45, velocity=0, time=59),
    Message('note_on', channel=5, note=62, velocity=0, time=0),
    Message('note_on', channel=5, note=50, velocity=0, time=0),
    Message('note_on', channel=5, note=57, velocity=0, time=0),
    Message('note_on', channel=5, note=64, velocity=0, time=0),
    Message('note_on', channel=5, note=57, velocity=127, time=1),
    Message('note_on', channel=5, note=52, velocity=127, time=0),
    Message('note_on', channel=5, note=45, velocity=127, time=0),
    Message('note_on', channel=5, note=45, velocity=0, time=119),
    Message('note_on', channel=5, note=52, velocity=0, time=0),
    Message('note_on', channel=5, note=57, velocity=0, time=0),
    Message('note_on', channel=5, note=57, velocity=127, time=1),
    Message('note_on', channel=5, note=52, velocity=127, time=0),
    Message('note_on', channel=5, note=45, velocity=127, time=0),
    Message('note_on', channel=5, note=45, velocity=0, time=59),
    Message('note_on', channel=5, note=52, velocity=0, time=0),
    Message('note_on', channel=5, note=57, velocity=0, time=0),
    Message('note_on', channel=5, note=45, velocity=127, time=1),
    Message('note_on', channel=5, note=52, velocity=127, time=0),
    Message('note_on', channel=5, note=57, velocity=127, time=0),
    Message('note_on', channel=5, note=57, velocity=0, time=59),
    Message('note_on', channel=5, note=52, velocity=0, time=0),
    Message('note_on', channel=5, note=45, velocity=0, time=0),
    Message('note_on', channel=5, note=43, velocity=127, time=1),
    Message('note_on', channel=5, note=55, velocity=127, time=0),
    Message('note_on', channel=5, note=50, velocity=127, time=0),
    Message('note_on', channel=5, note=47, velocity=127, time=0),
    Message('note_on', channel=5, note=47, velocity=0, time=119),
    Message('note_on', channel=5, note=43, velocity=0, time=0),
    Message('note_on', channel=5, note=55, velocity=0, time=0),
    Message('note_on', channel=5, note=50, velocity=0, time=0),
    Message('note_on', channel=5, note=55, velocity=127, time=1),
    Message('note_on', channel=5, note=50, velocity=127, time=0),
    Message('note_on', channel=5, note=47, velocity=127, time=0),
    Message('note_on', channel=5, note=43, velocity=127, time=0),
    Message('note_on', channel=5, note=43, velocity=0, time=59),
    Message('note_on', channel=5, note=55, velocity=0, time=0),
    Message('note_on', channel=5, note=50, velocity=0, time=0),
    Message('note_on', channel=5, note=47, velocity=0, time=0),
    Message('note_on', channel=5, note=55, velocity=127, time=1),
    Message('note_on', channel=5, note=50, velocity=127, time=0),
    Message('note_on', channel=5, note=47, velocity=127, time=0),
    Message('note_on', channel=5, note=43, velocity=127, time=0),
    Message('note_on', channel=5, note=43, velocity=0, time=59),
    Message('note_on', channel=5, note=55, velocity=0, time=0),
    Message('note_on', channel=5, note=50, velocity=0, time=0),
    Message('note_on', channel=5, note=47, velocity=0, time=0),
    Message('note_on', channel=5, note=62, velocity=127, time=1),
    Message('note_on', channel=5, note=57, velocity=127, time=0),
    Message('note_on', channel=5, note=50, velocity=127, time=0),
    Message('note_on', channel=5, note=50, velocity=0, time=179),
    Message('note_on', channel=5, note=57, velocity=0, time=0),
    Message('note_on', channel=5, note=62, velocity=0, time=0),
    Message('note_on', channel=5, note=62, velocity=127, time=1),
    Message('note_on', channel=5, note=57, velocity=127, time=0),
    Message('note_on', channel=5, note=50, velocity=127, time=0),
    Message('note_on', channel=5, note=66, velocity=127, time=0),
    Message('note_on', channel=5, note=66, velocity=0, time=119),
    Message('note_on', channel=5, note=64, velocity=127, time=1),
    Message('note_on', channel=5, note=45, velocity=127, time=120),
    Message('note_on', channel=5, note=45, velocity=0, time=59),
    Message('note_on', channel=5, note=62, velocity=0, time=0),
    Message('note_on', channel=5, note=50, velocity=0, time=0),
    Message('note_on', channel=5, note=57, velocity=0, time=0),
    Message('note_on', channel=5, note=64, velocity=0, time=0),
    Message('note_on', channel=5, note=57, velocity=127, time=1),
    Message('note_on', channel=5, note=52, velocity=127, time=0),
    Message('note_on', channel=5, note=45, velocity=127, time=0),
    Message('note_on', channel=5, note=45, velocity=0, time=119),
    Message('note_on', channel=5, note=52, velocity=0, time=0),
    Message('note_on', channel=5, note=57, velocity=0, time=0),
    Message('note_on', channel=5, note=57, velocity=127, time=1),
    Message('note_on', channel=5, note=52, velocity=127, time=0),
    Message('note_on', channel=5, note=45, velocity=127, time=0),
    Message('note_on', channel=5, note=45, velocity=0, time=59),
    Message('note_on', channel=5, note=52, velocity=0, time=0),
    Message('note_on', channel=5, note=57, velocity=0, time=0),
    Message('note_on', channel=5, note=45, velocity=127, time=1),
    Message('note_on', channel=5, note=52, velocity=127, time=0),
    Message('note_on', channel=5, note=57, velocity=127, time=0),
    Message('note_on', channel=5, note=57, velocity=0, time=59),
    Message('note_on', channel=5, note=52, velocity=0, time=0),
    Message('note_on', channel=5, note=45, velocity=0, time=0),
    Message('note_on', channel=5, note=43, velocity=127, time=1),
    Message('note_on', channel=5, note=55, velocity=127, time=0),
    Message('note_on', channel=5, note=50, velocity=127, time=0),
    Message('note_on', channel=5, note=47, velocity=127, time=0),
    Message('note_on', channel=5, note=47, velocity=0, time=119),
    Message('note_on', channel=5, note=43, velocity=0, time=0),
    Message('note_on', channel=5, note=55, velocity=0, time=0),
    Message('note_on', channel=5, note=50, velocity=0, time=0),
    Message('note_on', channel=5, note=55, velocity=127, time=1),
    Message('note_on', channel=5, note=50, velocity=127, time=0),
    Message('note_on', channel=5, note=47, velocity=127, time=0),
    Message('note_on', channel=5, note=43, velocity=127, time=0),
    Message('note_on', channel=5, note=43, velocity=0, time=59),
    Message('note_on', channel=5, note=55, velocity=0, time=0),
    Message('note_on', channel=5, note=50, velocity=0, time=0),
    Message('note_on', channel=5, note=47, velocity=0, time=0),
    Message('note_on', channel=5, note=55, velocity=127, time=1),
    Message('note_on', channel=5, note=50, velocity=127, time=0),
    Message('note_on', channel=5, note=47, velocity=127, time=0),
    Message('note_on', channel=5, note=43, velocity=127, time=0),
    Message('note_on', channel=5, note=43, velocity=0, time=59),
    Message('note_on', channel=5, note=55, velocity=0, time=0),
    Message('note_on', channel=5, note=50, velocity=0, time=0),
    Message('note_on', channel=5, note=47, velocity=0, time=0),
    Message('note_on', channel=5, note=62, velocity=127, time=1),
    Message('note_on', channel=5, note=57, velocity=127, time=0),
    Message('note_on', channel=5, note=50, velocity=127, time=0),
    Message('note_on', channel=5, note=50, velocity=0, time=179),
    Message('note_on', channel=5, note=57, velocity=0, time=0),
    Message('note_on', channel=5, note=62, velocity=0, time=0),
    Message('note_on', channel=5, note=62, velocity=127, time=1),
    Message('note_on', channel=5, note=57, velocity=127, time=0),
    Message('note_on', channel=5, note=50, velocity=127, time=0),
    Message('note_on', channel=5, note=66, velocity=127, time=0),
    Message('note_on', channel=5, note=66, velocity=0, time=119),
    Message('note_on', channel=5, note=64, velocity=127, time=1),
    Message('note_on', channel=5, note=45, velocity=127, time=120),
    Message('note_on', channel=5, note=45, velocity=0, time=59),
    Message('note_on', channel=5, note=62, velocity=0, time=0),
    Message('note_on', channel=5, note=50, velocity=0, time=0),
    Message('note_on', channel=5, note=57, velocity=0, time=0),
    Message('note_on', channel=5, note=64, velocity=0, time=0),
    Message('note_on', channel=5, note=57, velocity=127, time=1),
    Message('note_on', channel=5, note=52, velocity=127, time=0),
    Message('note_on', channel=5, note=45, velocity=127, time=0),
    Message('note_on', channel=5, note=45, velocity=0, time=119),
    Message('note_on', channel=5, note=52, velocity=0, time=0),
    Message('note_on', channel=5, note=57, velocity=0, time=0),
    Message('note_on', channel=5, note=57, velocity=127, time=1),
    Message('note_on', channel=5, note=52, velocity=127, time=0),
    Message('note_on', channel=5, note=45, velocity=127, time=0),
    Message('note_on', channel=5, note=45, velocity=0, time=59),
    Message('note_on', channel=5, note=52, velocity=0, time=0),
    Message('note_on', channel=5, note=57, velocity=0, time=0),
    Message('note_on', channel=5, note=45, velocity=127, time=1),
    Message('note_on', channel=5, note=52, velocity=127, time=0),
    Message('note_on', channel=5, note=57, velocity=127, time=0),
    Message('note_on', channel=5, note=57, velocity=0, time=59),
    Message('note_on', channel=5, note=52, velocity=0, time=0),
    Message('note_on', channel=5, note=45, velocity=0, time=0),
    Message('note_on', channel=5, note=43, velocity=127, time=1),
    Message('note_on', channel=5, note=55, velocity=127, time=0),
    Message('note_on', channel=5, note=50, velocity=127, time=0),
    Message('note_on', channel=5, note=47, velocity=127, time=0),
    Message('note_on', channel=5, note=47, velocity=0, time=119),
    Message('note_on', channel=5, note=43, velocity=0, time=0),
    Message('note_on', channel=5, note=55, velocity=0, time=0),
    Message('note_on', channel=5, note=50, velocity=0, time=0),
    Message('note_on', channel=5, note=55, velocity=127, time=1),
    Message('note_on', channel=5, note=50, velocity=127, time=0),
    Message('note_on', channel=5, note=47, velocity=127, time=0),
    Message('note_on', channel=5, note=43, velocity=127, time=0),
    Message('note_on', channel=5, note=43, velocity=0, time=59),
    Message('note_on', channel=5, note=55, velocity=0, time=0),
    Message('note_on', channel=5, note=50, velocity=0, time=0),
    Message('note_on', channel=5, note=47, velocity=0, time=0),
    Message('note_on', channel=5, note=55, velocity=127, time=1),
    Message('note_on', channel=5, note=50, velocity=127, time=0),
    Message('note_on', channel=5, note=47, velocity=127, time=0),
    Message('note_on', channel=5, note=43, velocity=127, time=0),
    Message('note_on', channel=5, note=43, velocity=0, time=59),
    Message('note_on', channel=5, note=55, velocity=0, time=0),
    Message('note_on', channel=5, note=50, velocity=0, time=0),
    Message('note_on', channel=5, note=47, velocity=0, time=0),
    Message('note_on', channel=5, note=62, velocity=127, time=1),
    Message('note_on', channel=5, note=57, velocity=127, time=0),
    Message('note_on', channel=5, note=50, velocity=127, time=0),
    Message('note_on', channel=5, note=50, velocity=0, time=179),
    Message('note_on', channel=5, note=57, velocity=0, time=0),
    Message('note_on', channel=5, note=62, velocity=0, time=0),
    Message('note_on', channel=5, note=62, velocity=127, time=1),
    Message('note_on', channel=5, note=57, velocity=127, time=0),
    Message('note_on', channel=5, note=50, velocity=127, time=0),
    Message('note_on', channel=5, note=66, velocity=127, time=0),
    Message('note_on', channel=5, note=66, velocity=0, time=119),
    Message('note_on', channel=5, note=64, velocity=127, time=1),
    Message('note_on', channel=5, note=45, velocity=127, time=120),
    Message('note_on', channel=5, note=45, velocity=0, time=59),
    Message('note_on', channel=5, note=62, velocity=0, time=0),
    Message('note_on', channel=5, note=50, velocity=0, time=0),
    Message('note_on', channel=5, note=57, velocity=0, time=0),
    Message('note_on', channel=5, note=64, velocity=0, time=0),
    Message('note_on', channel=5, note=57, velocity=127, time=1),
    Message('note_on', channel=5, note=52, velocity=127, time=0),
    Message('note_on', channel=5, note=45, velocity=127, time=0),
    Message('note_on', channel=5, note=45, velocity=0, time=119),
    Message('note_on', channel=5, note=52, velocity=0, time=0),
    Message('note_on', channel=5, note=57, velocity=0, time=0),
    Message('note_on', channel=5, note=57, velocity=127, time=1),
    Message('note_on', channel=5, note=52, velocity=127, time=0),
    Message('note_on', channel=5, note=45, velocity=127, time=0),
    Message('note_on', channel=5, note=45, velocity=0, time=59),
    Message('note_on', channel=5, note=52, velocity=0, time=0),
    Message('note_on', channel=5, note=57, velocity=0, time=0),
    Message('note_on', channel=5, note=45, velocity=127, time=1),
    Message('note_on', channel=5, note=52, velocity=127, time=0),
    Message('note_on', channel=5, note=57, velocity=127, time=0),
    Message('note_on', channel=5, note=57, velocity=0, time=59),
    Message('note_on', channel=5, note=52, velocity=0, time=0),
    Message('note_on', channel=5, note=45, velocity=0, time=0),
    Message('note_on', channel=5, note=43, velocity=127, time=1),
    Message('note_on', channel=5, note=55, velocity=127, time=0),
    Message('note_on', channel=5, note=50, velocity=127, time=0),
    Message('note_on', channel=5, note=47, velocity=127, time=0),
    Message('note_on', channel=5, note=47, velocity=0, time=119),
    Message('note_on', channel=5, note=43, velocity=0, time=0),
    Message('note_on', channel=5, note=55, velocity=0, time=0),
    Message('note_on', channel=5, note=50, velocity=0, time=0),
    Message('note_on', channel=5, note=55, velocity=127, time=1),
    Message('note_on', channel=5, note=50, velocity=127, time=0),
    Message('note_on', channel=5, note=47, velocity=127, time=0),
    Message('note_on', channel=5, note=43, velocity=127, time=0),
    Message('note_on', channel=5, note=43, velocity=0, time=59),
    Message('note_on', channel=5, note=55, velocity=0, time=0),
    Message('note_on', channel=5, note=50, velocity=0, time=0),
    Message('note_on', channel=5, note=47, velocity=0, time=0),
    Message('note_on', channel=5, note=55, velocity=127, time=1),
    Message('note_on', channel=5, note=50, velocity=127, time=0),
    Message('note_on', channel=5, note=47, velocity=127, time=0),
    Message('note_on', channel=5, note=43, velocity=127, time=0),
    Message('note_on', channel=5, note=43, velocity=0, time=59),
    Message('note_on', channel=5, note=55, velocity=0, time=0),
    Message('note_on', channel=5, note=50, velocity=0, time=0),
    Message('note_on', channel=5, note=47, velocity=0, time=0),
    Message('note_on', channel=5, note=62, velocity=127, time=1),
    Message('note_on', channel=5, note=57, velocity=127, time=0),
    Message('note_on', channel=5, note=50, velocity=127, time=0),
    Message('note_on', channel=5, note=50, velocity=0, time=179),
    Message('note_on', channel=5, note=57, velocity=0, time=0),
    Message('note_on', channel=5, note=62, velocity=0, time=0),
    Message('note_on', channel=5, note=62, velocity=127, time=1),
    Message('note_on', channel=5, note=57, velocity=127, time=0),
    Message('note_on', channel=5, note=50, velocity=127, time=0),
    Message('note_on', channel=5, note=66, velocity=127, time=0),
    Message('note_on', channel=5, note=66, velocity=0, time=119),
    Message('note_on', channel=5, note=64, velocity=127, time=1),
    Message('note_on', channel=5, note=45, velocity=127, time=120),
    Message('note_on', channel=5, note=45, velocity=0, time=59),
    Message('note_on', channel=5, note=62, velocity=0, time=0),
    Message('note_on', channel=5, note=50, velocity=0, time=0),
    Message('note_on', channel=5, note=57, velocity=0, time=0),
    Message('note_on', channel=5, note=64, velocity=0, time=0),
    Message('note_on', channel=5, note=57, velocity=127, time=1),
    Message('note_on', channel=5, note=52, velocity=127, time=0),
    Message('note_on', channel=5, note=45, velocity=127, time=0),
    Message('note_on', channel=5, note=45, velocity=0, time=119),
    Message('note_on', channel=5, note=52, velocity=0, time=0),
    Message('note_on', channel=5, note=57, velocity=0, time=0),
    Message('note_on', channel=5, note=57, velocity=127, time=1),
    Message('note_on', channel=5, note=52, velocity=127, time=0),
    Message('note_on', channel=5, note=45, velocity=127, time=0),
    Message('note_on', channel=5, note=45, velocity=0, time=59),
    Message('note_on', channel=5, note=52, velocity=0, time=0),
    Message('note_on', channel=5, note=57, velocity=0, time=0),
    Message('note_on', channel=5, note=45, velocity=127, time=1),
    Message('note_on', channel=5, note=52, velocity=127, time=0),
    Message('note_on', channel=5, note=57, velocity=127, time=0),
    Message('note_on', channel=5, note=57, velocity=0, time=59),
    Message('note_on', channel=5, note=52, velocity=0, time=0),
    Message('note_on', channel=5, note=45, velocity=0, time=0),
    Message('note_on', channel=5, note=43, velocity=127, time=1),
    Message('note_on', channel=5, note=55, velocity=127, time=0),
    Message('note_on', channel=5, note=50, velocity=127, time=0),
    Message('note_on', channel=5, note=47, velocity=127, time=0),
    Message('note_on', channel=5, note=47, velocity=0, time=119),
    Message('note_on', channel=5, note=43, velocity=0, time=0),
    Message('note_on', channel=5, note=55, velocity=0, time=0),
    Message('note_on', channel=5, note=50, velocity=0, time=0),
    Message('note_on', channel=5, note=55, velocity=127, time=1),
    Message('note_on', channel=5, note=50, velocity=127, time=0),
    Message('note_on', channel=5, note=47, velocity=127, time=0),
    Message('note_on', channel=5, note=43, velocity=127, time=0),
    Message('note_on', channel=5, note=43, velocity=0, time=59),
    Message('note_on', channel=5, note=55, velocity=0, time=0),
    Message('note_on', channel=5, note=50, velocity=0, time=0),
    Message('note_on', channel=5, note=47, velocity=0, time=0),
    Message('note_on', channel=5, note=55, velocity=127, time=1),
    Message('note_on', channel=5, note=50, velocity=127, time=0),
    Message('note_on', channel=5, note=47, velocity=127, time=0),
    Message('note_on', channel=5, note=43, velocity=127, time=0),
    Message('note_on', channel=5, note=43, velocity=0, time=59),
    Message('note_on', channel=5, note=55, velocity=0, time=0),
    Message('note_on', channel=5, note=50, velocity=0, time=0),
    Message('note_on', channel=5, note=47, velocity=0, time=0),
    Message('note_on', channel=5, note=62, velocity=127, time=1),
    Message('note_on', channel=5, note=57, velocity=127, time=0),
    Message('note_on', channel=5, note=50, velocity=127, time=0),
    Message('note_on', channel=5, note=50, velocity=0, time=179),
    Message('note_on', channel=5, note=57, velocity=0, time=0),
    Message('note_on', channel=5, note=62, velocity=0, time=0),
    Message('note_on', channel=5, note=62, velocity=127, time=1),
    Message('note_on', channel=5, note=57, velocity=127, time=0),
    Message('note_on', channel=5, note=50, velocity=127, time=0),
    Message('note_on', channel=5, note=66, velocity=127, time=0),
    Message('note_on', channel=5, note=66, velocity=0, time=119),
    Message('note_on', channel=5, note=64, velocity=127, time=1),
    Message('note_on', channel=5, note=45, velocity=127, time=120),
    Message('note_on', channel=5, note=45, velocity=0, time=59),
    Message('note_on', channel=5, note=62, velocity=0, time=0),
    Message('note_on', channel=5, note=50, velocity=0, time=0),
    Message('note_on', channel=5, note=57, velocity=0, time=0),
    Message('note_on', channel=5, note=64, velocity=0, time=0),
    Message('note_on', channel=5, note=57, velocity=127, time=1),
    Message('note_on', channel=5, note=52, velocity=127, time=0),
    Message('note_on', channel=5, note=45, velocity=127, time=0),
    Message('note_on', channel=5, note=45, velocity=0, time=119),
    Message('note_on', channel=5, note=52, velocity=0, time=0),
    Message('note_on', channel=5, note=57, velocity=0, time=0),
    Message('note_on', channel=5, note=57, velocity=127, time=1),
    Message('note_on', channel=5, note=52, velocity=127, time=0),
    Message('note_on', channel=5, note=45, velocity=127, time=0),
    Message('note_on', channel=5, note=45, velocity=0, time=59),
    Message('note_on', channel=5, note=52, velocity=0, time=0),
    Message('note_on', channel=5, note=57, velocity=0, time=0),
    Message('note_on', channel=5, note=45, velocity=127, time=1),
    Message('note_on', channel=5, note=52, velocity=127, time=0),
    Message('note_on', channel=5, note=57, velocity=127, time=0),
    Message('note_on', channel=5, note=57, velocity=0, time=59),
    Message('note_on', channel=5, note=52, velocity=0, time=0),
    Message('note_on', channel=5, note=45, velocity=0, time=0),
    Message('note_on', channel=5, note=43, velocity=127, time=1),
    Message('note_on', channel=5, note=55, velocity=127, time=0),
    Message('note_on', channel=5, note=50, velocity=127, time=0),
    Message('note_on', channel=5, note=47, velocity=127, time=0),
    Message('note_on', channel=5, note=47, velocity=0, time=119),
    Message('note_on', channel=5, note=43, velocity=0, time=0),
    Message('note_on', channel=5, note=55, velocity=0, time=0),
    Message('note_on', channel=5, note=50, velocity=0, time=0),
    Message('note_on', channel=5, note=55, velocity=127, time=1),
    Message('note_on', channel=5, note=50, velocity=127, time=0),
    Message('note_on', channel=5, note=47, velocity=127, time=0),
    Message('note_on', channel=5, note=43, velocity=127, time=0),
    Message('note_on', channel=5, note=43, velocity=0, time=59),
    Message('note_on', channel=5, note=55, velocity=0, time=0),
    Message('note_on', channel=5, note=50, velocity=0, time=0),
    Message('note_on', channel=5, note=47, velocity=0, time=0),
    Message('note_on', channel=5, note=55, velocity=127, time=1),
    Message('note_on', channel=5, note=50, velocity=127, time=0),
    Message('note_on', channel=5, note=47, velocity=127, time=0),
    Message('note_on', channel=5, note=43, velocity=127, time=0),
    Message('note_on', channel=5, note=43, velocity=0, time=59),
    Message('note_on', channel=5, note=55, velocity=0, time=0),
    Message('note_on', channel=5, note=50, velocity=0, time=0),
    Message('note_on', channel=5, note=47, velocity=0, time=0),
    Message('note_on', channel=5, note=62, velocity=127, time=1),
    Message('note_on', channel=5, note=57, velocity=127, time=0),
    Message('note_on', channel=5, note=50, velocity=127, time=0),
    Message('note_on', channel=5, note=50, velocity=0, time=179),
    Message('note_on', channel=5, note=57, velocity=0, time=0),
    Message('note_on', channel=5, note=62, velocity=0, time=0),
    Message('note_on', channel=5, note=62, velocity=127, time=1),
    Message('note_on', channel=5, note=57, velocity=127, time=0),
    Message('note_on', channel=5, note=50, velocity=127, time=0),
    Message('note_on', channel=5, note=66, velocity=127, time=0),
    Message('note_on', channel=5, note=66, velocity=0, time=119),
    Message('note_on', channel=5, note=64, velocity=127, time=1),
    Message('note_on', channel=5, note=45, velocity=127, time=120),
    Message('note_on', channel=5, note=45, velocity=0, time=59),
    Message('note_on', channel=5, note=62, velocity=0, time=0),
    Message('note_on', channel=5, note=50, velocity=0, time=0),
    Message('note_on', channel=5, note=57, velocity=0, time=0),
    Message('note_on', channel=5, note=64, velocity=0, time=0),
    Message('note_on', channel=5, note=57, velocity=127, time=1),
    Message('note_on', channel=5, note=52, velocity=127, time=0),
    Message('note_on', channel=5, note=45, velocity=127, time=0),
    Message('note_on', channel=5, note=45, velocity=0, time=119),
    Message('note_on', channel=5, note=52, velocity=0, time=0),
    Message('note_on', channel=5, note=57, velocity=0, time=0),
    Message('note_on', channel=5, note=57, velocity=127, time=1),
    Message('note_on', channel=5, note=52, velocity=127, time=0),
    Message('note_on', channel=5, note=45, velocity=127, time=0),
    Message('note_on', channel=5, note=45, velocity=0, time=59),
    Message('note_on', channel=5, note=52, velocity=0, time=0),
    Message('note_on', channel=5, note=57, velocity=0, time=0),
    Message('note_on', channel=5, note=45, velocity=127, time=1),
    Message('note_on', channel=5, note=52, velocity=127, time=0),
    Message('note_on', channel=5, note=57, velocity=127, time=0),
    Message('note_on', channel=5, note=57, velocity=0, time=59),
    Message('note_on', channel=5, note=52, velocity=0, time=0),
    Message('note_on', channel=5, note=45, velocity=0, time=0),
    Message('note_on', channel=5, note=43, velocity=127, time=1),
    Message('note_on', channel=5, note=55, velocity=127, time=0),
    Message('note_on', channel=5, note=50, velocity=127, time=0),
    Message('note_on', channel=5, note=47, velocity=127, time=0),
    Message('note_on', channel=5, note=47, velocity=0, time=119),
    Message('note_on', channel=5, note=43, velocity=0, time=0),
    Message('note_on', channel=5, note=55, velocity=0, time=0),
    Message('note_on', channel=5, note=50, velocity=0, time=0),
    Message('note_on', channel=5, note=55, velocity=127, time=1),
    Message('note_on', channel=5, note=50, velocity=127, time=0),
    Message('note_on', channel=5, note=47, velocity=127, time=0),
    Message('note_on', channel=5, note=43, velocity=127, time=0),
    Message('note_on', channel=5, note=43, velocity=0, time=59),
    Message('note_on', channel=5, note=55, velocity=0, time=0),
    Message('note_on', channel=5, note=50, velocity=0, time=0),
    Message('note_on', channel=5, note=47, velocity=0, time=0),
    Message('note_on', channel=5, note=55, velocity=127, time=1),
    Message('note_on', channel=5, note=50, velocity=127, time=0),
    Message('note_on', channel=5, note=47, velocity=127, time=0),
    Message('note_on', channel=5, note=43, velocity=127, time=0),
    Message('note_on', channel=5, note=43, velocity=0, time=59),
    Message('note_on', channel=5, note=55, velocity=0, time=0),
    Message('note_on', channel=5, note=50, velocity=0, time=0),
    Message('note_on', channel=5, note=47, velocity=0, time=0),
    Message('note_on', channel=5, note=62, velocity=127, time=1),
    Message('note_on', channel=5, note=57, velocity=127, time=0),
    Message('note_on', channel=5, note=50, velocity=127, time=0),
    Message('note_on', channel=5, note=50, velocity=0, time=179),
    Message('note_on', channel=5, note=57, velocity=0, time=0),
    Message('note_on', channel=5, note=62, velocity=0, time=0),
    Message('note_on', channel=5, note=62, velocity=127, time=1),
    Message('note_on', channel=5, note=57, velocity=127, time=0),
    Message('note_on', channel=5, note=50, velocity=127, time=0),
    Message('note_on', channel=5, note=66, velocity=127, time=0),
    Message('note_on', channel=5, note=66, velocity=0, time=119),
    Message('note_on', channel=5, note=64, velocity=127, time=1),
    Message('note_on', channel=5, note=45, velocity=127, time=120),
    Message('note_on', channel=5, note=45, velocity=0, time=59),
    Message('note_on', channel=5, note=62, velocity=0, time=0),
    Message('note_on', channel=5, note=50, velocity=0, time=0),
    Message('note_on', channel=5, note=57, velocity=0, time=0),
    Message('note_on', channel=5, note=64, velocity=0, time=0),
    Message('note_on', channel=5, note=57, velocity=127, time=1),
    Message('note_on', channel=5, note=52, velocity=127, time=0),
    Message('note_on', channel=5, note=45, velocity=127, time=0),
    Message('note_on', channel=5, note=45, velocity=0, time=119),
    Message('note_on', channel=5, note=52, velocity=0, time=0),
    Message('note_on', channel=5, note=57, velocity=0, time=0),
    Message('note_on', channel=5, note=57, velocity=127, time=1),
    Message('note_on', channel=5, note=52, velocity=127, time=0),
    Message('note_on', channel=5, note=45, velocity=127, time=0),
    Message('note_on', channel=5, note=45, velocity=0, time=59),
    Message('note_on', channel=5, note=52, velocity=0, time=0),
    Message('note_on', channel=5, note=57, velocity=0, time=0),
    Message('note_on', channel=5, note=45, velocity=127, time=1),
    Message('note_on', channel=5, note=52, velocity=127, time=0),
    Message('note_on', channel=5, note=57, velocity=127, time=0),
    Message('note_on', channel=5, note=57, velocity=0, time=59),
    Message('note_on', channel=5, note=52, velocity=0, time=0),
    Message('note_on', channel=5, note=45, velocity=0, time=0),
    Message('note_on', channel=5, note=43, velocity=127, time=1),
    Message('note_on', channel=5, note=55, velocity=127, time=0),
    Message('note_on', channel=5, note=50, velocity=127, time=0),
    Message('note_on', channel=5, note=47, velocity=127, time=0),
    Message('note_on', channel=5, note=47, velocity=0, time=119),
    Message('note_on', channel=5, note=43, velocity=0, time=0),
    Message('note_on', channel=5, note=55, velocity=0, time=0),
    Message('note_on', channel=5, note=50, velocity=0, time=0),
    Message('note_on', channel=5, note=55, velocity=127, time=1),
    Message('note_on', channel=5, note=50, velocity=127, time=0),
    Message('note_on', channel=5, note=47, velocity=127, time=0),
    Message('note_on', channel=5, note=43, velocity=127, time=0),
    Message('note_on', channel=5, note=43, velocity=0, time=59),
    Message('note_on', channel=5, note=55, velocity=0, time=0),
    Message('note_on', channel=5, note=50, velocity=0, time=0),
    Message('note_on', channel=5, note=47, velocity=0, time=0),
    Message('note_on', channel=5, note=55, velocity=127, time=1),
    Message('note_on', channel=5, note=50, velocity=127, time=0),
    Message('note_on', channel=5, note=47, velocity=127, time=0),
    Message('note_on', channel=5, note=43, velocity=127, time=0),
    Message('note_on', channel=5, note=43, velocity=0, time=59),
    Message('note_on', channel=5, note=55, velocity=0, time=0),
    Message('note_on', channel=5, note=50, velocity=0, time=0),
    Message('note_on', channel=5, note=47, velocity=0, time=0),
    Message('note_on', channel=5, note=62, velocity=127, time=1),
    Message('note_on', channel=5, note=57, velocity=127, time=0),
    Message('note_on', channel=5, note=50, velocity=127, time=0),
    Message('note_on', channel=5, note=50, velocity=0, time=179),
    Message('note_on', channel=5, note=57, velocity=0, time=0),
    Message('note_on', channel=5, note=62, velocity=0, time=0),
    Message('note_on', channel=5, note=62, velocity=127, time=1),
    Message('note_on', channel=5, note=57, velocity=127, time=0),
    Message('note_on', channel=5, note=50, velocity=127, time=0),
    Message('note_on', channel=5, note=66, velocity=127, time=0),
    Message('note_on', channel=5, note=66, velocity=0, time=119),
    Message('note_on', channel=5, note=64, velocity=127, time=1),
    Message('note_on', channel=5, note=45, velocity=127, time=120),
    Message('note_on', channel=5, note=45, velocity=0, time=59),
    Message('note_on', channel=5, note=62, velocity=0, time=0),
    Message('note_on', channel=5, note=50, velocity=0, time=0),
    Message('note_on', channel=5, note=57, velocity=0, time=0),
    Message('note_on', channel=5, note=64, velocity=0, time=0),
    Message('note_on', channel=5, note=57, velocity=127, time=1),
    Message('note_on', channel=5, note=52, velocity=127, time=0),
    Message('note_on', channel=5, note=45, velocity=127, time=0),
    Message('note_on', channel=5, note=45, velocity=0, time=119),
    Message('note_on', channel=5, note=52, velocity=0, time=0),
    Message('note_on', channel=5, note=57, velocity=0, time=0),
    Message('note_on', channel=5, note=57, velocity=127, time=1),
    Message('note_on', channel=5, note=52, velocity=127, time=0),
    Message('note_on', channel=5, note=45, velocity=127, time=0),
    Message('note_on', channel=5, note=45, velocity=0, time=59),
    Message('note_on', channel=5, note=52, velocity=0, time=0),
    Message('note_on', channel=5, note=57, velocity=0, time=0),
    Message('note_on', channel=5, note=45, velocity=127, time=1),
    Message('note_on', channel=5, note=52, velocity=127, time=0),
    Message('note_on', channel=5, note=57, velocity=127, time=0),
    Message('note_on', channel=5, note=57, velocity=0, time=59),
    Message('note_on', channel=5, note=52, velocity=0, time=0),
    Message('note_on', channel=5, note=45, velocity=0, time=0),
    Message('note_on', channel=5, note=43, velocity=127, time=1),
    Message('note_on', channel=5, note=55, velocity=127, time=0),
    Message('note_on', channel=5, note=50, velocity=127, time=0),
    Message('note_on', channel=5, note=47, velocity=127, time=0),
    Message('note_on', channel=5, note=47, velocity=0, time=119),
    Message('note_on', channel=5, note=43, velocity=0, time=0),
    Message('note_on', channel=5, note=55, velocity=0, time=0),
    Message('note_on', channel=5, note=50, velocity=0, time=0),
    Message('note_on', channel=5, note=55, velocity=127, time=1),
    Message('note_on', channel=5, note=50, velocity=127, time=0),
    Message('note_on', channel=5, note=47, velocity=127, time=0),
    Message('note_on', channel=5, note=43, velocity=127, time=0),
    Message('note_on', channel=5, note=43, velocity=0, time=59),
    Message('note_on', channel=5, note=55, velocity=0, time=0),
    Message('note_on', channel=5, note=50, velocity=0, time=0),
    Message('note_on', channel=5, note=47, velocity=0, time=0),
    Message('note_on', channel=5, note=55, velocity=127, time=1),
    Message('note_on', channel=5, note=50, velocity=127, time=0),
    Message('note_on', channel=5, note=47, velocity=127, time=0),
    Message('note_on', channel=5, note=43, velocity=127, time=0),
    Message('note_on', channel=5, note=43, velocity=0, time=59),
    Message('note_on', channel=5, note=55, velocity=0, time=0),
    Message('note_on', channel=5, note=50, velocity=0, time=0),
    Message('note_on', channel=5, note=47, velocity=0, time=0),
    Message('note_on', channel=5, note=62, velocity=127, time=1),
    Message('note_on', channel=5, note=57, velocity=127, time=0),
    Message('note_on', channel=5, note=50, velocity=127, time=0),
    Message('note_on', channel=5, note=50, velocity=0, time=179),
    Message('note_on', channel=5, note=57, velocity=0, time=0),
    Message('note_on', channel=5, note=62, velocity=0, time=0),
    Message('note_on', channel=5, note=62, velocity=127, time=1),
    Message('note_on', channel=5, note=57, velocity=127, time=0),
    Message('note_on', channel=5, note=50, velocity=127, time=0),
    Message('note_on', channel=5, note=66, velocity=127, time=0),
    Message('note_on', channel=5, note=66, velocity=0, time=119),
    Message('note_on', channel=5, note=64, velocity=127, time=1),
    Message('note_on', channel=5, note=45, velocity=127, time=120),
    Message('note_on', channel=5, note=45, velocity=0, time=59),
    Message('note_on', channel=5, note=62, velocity=0, time=0),
    Message('note_on', channel=5, note=50, velocity=0, time=0),
    Message('note_on', channel=5, note=57, velocity=0, time=0),
    Message('note_on', channel=5, note=64, velocity=0, time=0),
    Message('note_on', channel=5, note=57, velocity=127, time=1),
    Message('note_on', channel=5, note=52, velocity=127, time=0),
    Message('note_on', channel=5, note=45, velocity=127, time=0),
    Message('note_on', channel=5, note=45, velocity=0, time=119),
    Message('note_on', channel=5, note=52, velocity=0, time=0),
    Message('note_on', channel=5, note=57, velocity=0, time=0),
    Message('note_on', channel=5, note=57, velocity=127, time=1),
    Message('note_on', channel=5, note=52, velocity=127, time=0),
    Message('note_on', channel=5, note=45, velocity=127, time=0),
    Message('note_on', channel=5, note=45, velocity=0, time=59),
    Message('note_on', channel=5, note=52, velocity=0, time=0),
    Message('note_on', channel=5, note=57, velocity=0, time=0),
    Message('note_on', channel=5, note=45, velocity=127, time=1),
    Message('note_on', channel=5, note=52, velocity=127, time=0),
    Message('note_on', channel=5, note=57, velocity=127, time=0),
    Message('note_on', channel=5, note=57, velocity=0, time=59),
    Message('note_on', channel=5, note=52, velocity=0, time=0),
    Message('note_on', channel=5, note=45, velocity=0, time=0),
    Message('note_on', channel=5, note=43, velocity=127, time=1),
    Message('note_on', channel=5, note=55, velocity=127, time=0),
    Message('note_on', channel=5, note=50, velocity=127, time=0),
    Message('note_on', channel=5, note=47, velocity=127, time=0),
    Message('note_on', channel=5, note=47, velocity=0, time=119),
    Message('note_on', channel=5, note=43, velocity=0, time=0),
    Message('note_on', channel=5, note=55, velocity=0, time=0),
    Message('note_on', channel=5, note=50, velocity=0, time=0),
    Message('note_on', channel=5, note=55, velocity=127, time=1),
    Message('note_on', channel=5, note=50, velocity=127, time=0),
    Message('note_on', channel=5, note=47, velocity=127, time=0),
    Message('note_on', channel=5, note=43, velocity=127, time=0),
    Message('note_on', channel=5, note=43, velocity=0, time=59),
    Message('note_on', channel=5, note=55, velocity=0, time=0),
    Message('note_on', channel=5, note=50, velocity=0, time=0),
    Message('note_on', channel=5, note=47, velocity=0, time=0),
    Message('note_on', channel=5, note=55, velocity=127, time=1),
    Message('note_on', channel=5, note=50, velocity=127, time=0),
    Message('note_on', channel=5, note=47, velocity=127, time=0),
    Message('note_on', channel=5, note=43, velocity=127, time=0),
    Message('note_on', channel=5, note=43, velocity=0, time=59),
    Message('note_on', channel=5, note=55, velocity=0, time=0),
    Message('note_on', channel=5, note=50, velocity=0, time=0),
    Message('note_on', channel=5, note=47, velocity=0, time=0),
    Message('note_on', channel=5, note=62, velocity=127, time=1),
    Message('note_on', channel=5, note=57, velocity=127, time=0),
    Message('note_on', channel=5, note=50, velocity=127, time=0),
    Message('note_on', channel=5, note=50, velocity=0, time=179),
    Message('note_on', channel=5, note=57, velocity=0, time=0),
    Message('note_on', channel=5, note=62, velocity=0, time=0),
    Message('note_on', channel=5, note=62, velocity=127, time=1),
    Message('note_on', channel=5, note=57, velocity=127, time=0),
    Message('note_on', channel=5, note=50, velocity=127, time=0),
    Message('note_on', channel=5, note=66, velocity=127, time=0),
    Message('note_on', channel=5, note=66, velocity=0, time=119),
    Message('note_on', channel=5, note=64, velocity=127, time=1),
    Message('note_on', channel=5, note=45, velocity=127, time=120),
    Message('note_on', channel=5, note=45, velocity=0, time=59),
    Message('note_on', channel=5, note=62, velocity=0, time=0),
    Message('note_on', channel=5, note=50, velocity=0, time=0),
    Message('note_on', channel=5, note=57, velocity=0, time=0),
    Message('note_on', channel=5, note=64, velocity=0, time=0),
    Message('note_on', channel=5, note=57, velocity=127, time=1),
    Message('note_on', channel=5, note=52, velocity=127, time=0),
    Message('note_on', channel=5, note=45, velocity=127, time=0),
    Message('note_on', channel=5, note=45, velocity=0, time=119),
    Message('note_on', channel=5, note=52, velocity=0, time=0),
    Message('note_on', channel=5, note=57, velocity=0, time=0),
    Message('note_on', channel=5, note=57, velocity=127, time=1),
    Message('note_on', channel=5, note=52, velocity=127, time=0),
    Message('note_on', channel=5, note=45, velocity=127, time=0),
    Message('note_on', channel=5, note=45, velocity=0, time=59),
    Message('note_on', channel=5, note=52, velocity=0, time=0),
    Message('note_on', channel=5, note=57, velocity=0, time=0),
    Message('note_on', channel=5, note=45, velocity=127, time=1),
    Message('note_on', channel=5, note=52, velocity=127, time=0),
    Message('note_on', channel=5, note=57, velocity=127, time=0),
    Message('note_on', channel=5, note=57, velocity=0, time=59),
    Message('note_on', channel=5, note=52, velocity=0, time=0),
    Message('note_on', channel=5, note=45, velocity=0, time=0),
    Message('note_on', channel=5, note=43, velocity=127, time=1),
    Message('note_on', channel=5, note=55, velocity=127, time=0),
    Message('note_on', channel=5, note=50, velocity=127, time=0),
    Message('note_on', channel=5, note=47, velocity=127, time=0),
    Message('note_on', channel=5, note=47, velocity=0, time=119),
    Message('note_on', channel=5, note=43, velocity=0, time=0),
    Message('note_on', channel=5, note=55, velocity=0, time=0),
    Message('note_on', channel=5, note=50, velocity=0, time=0),
    Message('note_on', channel=5, note=55, velocity=127, time=1),
    Message('note_on', channel=5, note=50, velocity=127, time=0),
    Message('note_on', channel=5, note=47, velocity=127, time=0),
    Message('note_on', channel=5, note=43, velocity=127, time=0),
    Message('note_on', channel=5, note=43, velocity=0, time=59),
    Message('note_on', channel=5, note=55, velocity=0, time=0),
    Message('note_on', channel=5, note=50, velocity=0, time=0),
    Message('note_on', channel=5, note=47, velocity=0, time=0),
    Message('note_on', channel=5, note=55, velocity=127, time=1),
    Message('note_on', channel=5, note=50, velocity=127, time=0),
    Message('note_on', channel=5, note=47, velocity=127, time=0),
    Message('note_on', channel=5, note=43, velocity=127, time=0),
    Message('note_on', channel=5, note=43, velocity=0, time=59),
    Message('note_on', channel=5, note=55, velocity=0, time=0),
    Message('note_on', channel=5, note=50, velocity=0, time=0),
    Message('note_on', channel=5, note=47, velocity=0, time=0),
    Message('note_on', channel=5, note=62, velocity=127, time=1),
    Message('note_on', channel=5, note=57, velocity=127, time=0),
    Message('note_on', channel=5, note=50, velocity=127, time=0),
    Message('note_on', channel=5, note=50, velocity=0, time=179),
    Message('note_on', channel=5, note=57, velocity=0, time=0),
    Message('note_on', channel=5, note=62, velocity=0, time=0),
    Message('note_on', channel=5, note=62, velocity=127, time=1),
    Message('note_on', channel=5, note=57, velocity=127, time=0),
    Message('note_on', channel=5, note=50, velocity=127, time=0),
    Message('note_on', channel=5, note=66, velocity=127, time=0),
    Message('note_on', channel=5, note=66, velocity=0, time=119),
    Message('note_on', channel=5, note=64, velocity=127, time=1),
    Message('note_on', channel=5, note=45, velocity=127, time=120),
    Message('note_on', channel=5, note=45, velocity=0, time=59),
    Message('note_on', channel=5, note=62, velocity=0, time=0),
    Message('note_on', channel=5, note=50, velocity=0, time=0),
    Message('note_on', channel=5, note=57, velocity=0, time=0),
    Message('note_on', channel=5, note=64, velocity=0, time=0),
    Message('note_on', channel=5, note=57, velocity=127, time=1),
    Message('note_on', channel=5, note=52, velocity=127, time=0),
    Message('note_on', channel=5, note=45, velocity=127, time=0),
    Message('note_on', channel=5, note=45, velocity=0, time=119),
    Message('note_on', channel=5, note=52, velocity=0, time=0),
    Message('note_on', channel=5, note=57, velocity=0, time=0),
    Message('note_on', channel=5, note=57, velocity=127, time=1),
    Message('note_on', channel=5, note=52, velocity=127, time=0),
    Message('note_on', channel=5, note=45, velocity=127, time=0),
    Message('note_on', channel=5, note=45, velocity=0, time=59),
    Message('note_on', channel=5, note=52, velocity=0, time=0),
    Message('note_on', channel=5, note=57, velocity=0, time=0),
    Message('note_on', channel=5, note=45, velocity=127, time=1),
    Message('note_on', channel=5, note=52, velocity=127, time=0),
    Message('note_on', channel=5, note=57, velocity=127, time=0),
    Message('note_on', channel=5, note=57, velocity=0, time=59),
    Message('note_on', channel=5, note=52, velocity=0, time=0),
    Message('note_on', channel=5, note=45, velocity=0, time=0),
    Message('note_on', channel=5, note=43, velocity=127, time=1),
    Message('note_on', channel=5, note=55, velocity=127, time=0),
    Message('note_on', channel=5, note=50, velocity=127, time=0),
    Message('note_on', channel=5, note=47, velocity=127, time=0),
    Message('note_on', channel=5, note=47, velocity=0, time=119),
    Message('note_on', channel=5, note=43, velocity=0, time=0),
    Message('note_on', channel=5, note=55, velocity=0, time=0),
    Message('note_on', channel=5, note=50, velocity=0, time=0),
    Message('note_on', channel=5, note=55, velocity=127, time=1),
    Message('note_on', channel=5, note=50, velocity=127, time=0),
    Message('note_on', channel=5, note=47, velocity=127, time=0),
    Message('note_on', channel=5, note=43, velocity=127, time=0),
    Message('note_on', channel=5, note=43, velocity=0, time=59),
    Message('note_on', channel=5, note=55, velocity=0, time=0),
    Message('note_on', channel=5, note=50, velocity=0, time=0),
    Message('note_on', channel=5, note=47, velocity=0, time=0),
    Message('note_on', channel=5, note=55, velocity=127, time=1),
    Message('note_on', channel=5, note=50, velocity=127, time=0),
    Message('note_on', channel=5, note=47, velocity=127, time=0),
    Message('note_on', channel=5, note=43, velocity=127, time=0),
    Message('note_on', channel=5, note=43, velocity=0, time=59),
    Message('note_on', channel=5, note=55, velocity=0, time=0),
    Message('note_on', channel=5, note=50, velocity=0, time=0),
    Message('note_on', channel=5, note=47, velocity=0, time=0),
    Message('note_on', channel=5, note=66, velocity=127, time=1),
    Message('note_on', channel=5, note=62, velocity=127, time=0),
    Message('note_on', channel=5, note=57, velocity=127, time=0),
    Message('note_on', channel=5, note=50, velocity=127, time=0),
    Message('note_on', channel=5, note=50, velocity=0, time=479),
    Message('note_on', channel=5, note=66, velocity=0, time=0),
    Message('note_on', channel=5, note=62, velocity=0, time=0),
    Message('note_on', channel=5, note=57, velocity=0, time=0),
    MetaMessage('end_of_track', time=0)]),
  MidiTrack([
    MetaMessage('midi_port', port=0, time=0),
    MetaMessage('track_name', name='Nirvana Down Under', time=0),
    Message('program_change', channel=8, program=87, time=0),
    Message('control_change', channel=8, control=7, value=127, time=0),
    Message('note_on', channel=8, note=62, velocity=100, time=23220),
    Message('note_on', channel=8, note=62, velocity=0, time=119),
    Message('note_on', channel=8, note=59, velocity=100, time=1),
    Message('note_on', channel=8, note=59, velocity=0, time=119),
    Message('note_on', channel=8, note=57, velocity=100, time=1),
    Message('note_on', channel=8, note=57, velocity=0, time=119),
    Message('note_on', channel=8, note=59, velocity=100, time=1),
    Message('note_on', channel=8, note=59, velocity=0, time=119),
    Message('note_on', channel=8, note=62, velocity=100, time=1),
    Message('note_on', channel=8, note=62, velocity=0, time=179),
    Message('note_on', channel=8, note=59, velocity=100, time=1),
    Message('note_on', channel=8, note=59, velocity=0, time=59),
    Message('note_on', channel=8, note=56, velocity=100, time=1),
    Message('note_on', channel=8, note=56, velocity=0, time=119),
    Message('note_on', channel=8, note=59, velocity=100, time=1),
    Message('note_on', channel=8, note=59, velocity=0, time=119),
    Message('note_on', channel=8, note=64, velocity=100, time=1),
    Message('note_on', channel=8, note=64, velocity=0, time=179),
    Message('note_on', channel=8, note=59, velocity=100, time=1),
    Message('note_on', channel=8, note=59, velocity=0, time=59),
    Message('note_on', channel=8, note=56, velocity=100, time=1),
    Message('note_on', channel=8, note=56, velocity=0, time=119),
    Message('note_on', channel=8, note=59, velocity=100, time=1),
    Message('note_on', channel=8, note=59, velocity=0, time=119),
    Message('note_on', channel=8, note=64, velocity=100, time=1),
    Message('note_on', channel=8, note=64, velocity=0, time=119),
    Message('note_on', channel=8, note=59, velocity=100, time=1),
    Message('note_on', channel=8, note=59, velocity=0, time=179),
    Message('note_on', channel=8, note=60, velocity=100, time=1),
    Message('note_on', channel=8, note=60, velocity=0, time=179),
    Message('note_on', channel=8, note=59, velocity=100, time=1),
    Message('note_on', channel=8, note=59, velocity=0, time=179),
    Message('note_on', channel=8, note=57, velocity=100, time=1),
    Message('note_on', channel=8, note=57, velocity=0, time=119),
    Message('note_on', channel=8, note=59, velocity=100, time=1),
    Message('note_on', channel=8, note=59, velocity=0, time=59),
    Message('note_on', channel=8, note=59, velocity=100, time=1),
    Message('note_on', channel=8, note=59, velocity=0, time=119),
    Message('note_on', channel=8, note=57, velocity=100, time=1),
    Message('note_on', channel=8, note=57, velocity=0, time=119),
    Message('note_on', channel=8, note=55, velocity=100, time=1),
    Message('note_on', channel=8, note=55, velocity=0, time=119),
    Message('note_on', channel=8, note=55, velocity=100, time=1),
    Message('note_on', channel=8, note=55, velocity=0, time=59),
    Message('note_on', channel=8, note=60, velocity=100, time=1),
    Message('note_on', channel=8, note=60, velocity=0, time=59),
    Message('note_on', channel=8, note=60, velocity=100, time=1),
    Message('note_on', channel=8, note=60, velocity=0, time=119),
    Message('note_on', channel=8, note=59, velocity=100, time=1),
    Message('note_on', channel=8, note=59, velocity=0, time=119),
    Message('note_on', channel=8, note=57, velocity=100, time=1),
    Message('note_on', channel=8, note=57, velocity=0, time=119),
    Message('note_on', channel=8, note=57, velocity=100, time=1),
    Message('note_on', channel=8, note=57, velocity=0, time=59),
    Message('note_on', channel=8, note=59, velocity=100, time=1),
    Message('note_on', channel=8, note=59, velocity=0, time=59),
    Message('note_on', channel=8, note=59, velocity=100, time=1),
    Message('note_on', channel=8, note=59, velocity=0, time=119),
    Message('note_on', channel=8, note=57, velocity=100, time=1),
    Message('note_on', channel=8, note=57, velocity=0, time=119),
    Message('note_on', channel=8, note=55, velocity=100, time=1),
    Message('note_on', channel=8, note=55, velocity=0, time=479),
    Message('note_on', channel=8, note=57, velocity=100, time=1),
    Message('note_on', channel=8, note=57, velocity=0, time=179),
    Message('note_on', channel=8, note=62, velocity=127, time=121),
    Message('note_on', channel=8, note=62, velocity=0, time=119),
    Message('note_on', channel=8, note=62, velocity=127, time=1),
    Message('note_on', channel=8, note=62, velocity=0, time=179),
    Message('note_on', channel=8, note=61, velocity=127, time=1),
    Message('note_on', channel=8, note=61, velocity=0, time=119),
    Message('note_on', channel=8, note=62, velocity=127, time=1),
    Message('note_on', channel=8, note=62, velocity=0, time=59),
    Message('note_on', channel=8, note=61, velocity=127, time=1),
    Message('note_on', channel=8, note=61, velocity=0, time=59),
    Message('note_on', channel=8, note=59, velocity=127, time=1),
    Message('note_on', channel=8, note=59, velocity=0, time=59),
    Message('note_on', channel=8, note=59, velocity=127, time=1),
    Message('note_on', channel=8, note=59, velocity=0, time=119),
    Message('note_on', channel=8, note=57, velocity=127, time=1),
    Message('note_on', channel=8, note=57, velocity=0, time=119),
    Message('note_on', channel=8, note=57, velocity=127, time=1),
    Message('note_on', channel=8, note=57, velocity=0, time=179),
    Message('note_on', channel=8, note=61, velocity=127, time=1),
    Message('note_on', channel=8, note=61, velocity=0, time=119),
    Message('note_on', channel=8, note=62, velocity=127, time=1),
    Message('note_on', channel=8, note=62, velocity=0, time=119),
    Message('note_on', channel=8, note=57, velocity=127, time=1),
    Message('note_on', channel=8, note=57, velocity=0, time=59),
    Message('note_on', channel=8, note=61, velocity=127, time=1),
    Message('note_on', channel=8, note=61, velocity=0, time=29),
    Message('note_on', channel=8, note=62, velocity=127, time=1),
    Message('note_on', channel=8, note=62, velocity=0, time=29),
    Message('note_on', channel=8, note=62, velocity=127, time=1),
    Message('note_on', channel=8, note=62, velocity=0, time=299),
    Message('note_on', channel=8, note=62, velocity=127, time=241),
    Message('note_on', channel=8, note=62, velocity=0, time=119),
    Message('note_on', channel=8, note=62, velocity=127, time=1),
    Message('note_on', channel=8, note=62, velocity=0, time=59),
    Message('note_on', channel=8, note=62, velocity=127, time=1),
    Message('note_on', channel=8, note=62, velocity=0, time=119),
    Message('note_on', channel=8, note=61, velocity=127, time=1),
    Message('note_on', channel=8, note=61, velocity=0, time=59),
    Message('note_on', channel=8, note=61, velocity=127, time=1),
    Message('note_on', channel=8, note=61, velocity=0, time=59),
    Message('note_on', channel=8, note=62, velocity=127, time=1),
    Message('note_on', channel=8, note=62, velocity=0, time=59),
    Message('note_on', channel=8, note=61, velocity=127, time=1),
    Message('note_on', channel=8, note=61, velocity=0, time=59),
    Message('note_on', channel=8, note=59, velocity=127, time=1),
    Message('note_on', channel=8, note=59, velocity=0, time=59),
    Message('note_on', channel=8, note=59, velocity=127, time=1),
    Message('note_on', channel=8, note=59, velocity=0, time=119),
    Message('note_on', channel=8, note=57, velocity=127, time=1),
    Message('note_on', channel=8, note=57, velocity=0, time=119),
    Message('note_on', channel=8, note=57, velocity=127, time=1),
    Message('note_on', channel=8, note=57, velocity=0, time=179),
    Message('note_on', channel=8, note=61, velocity=127, time=1),
    Message('note_on', channel=8, note=61, velocity=0, time=119),
    Message('note_on', channel=8, note=62, velocity=127, time=1),
    Message('note_on', channel=8, note=62, velocity=0, time=119),
    Message('note_on', channel=8, note=57, velocity=127, time=1),
    Message('note_on', channel=8, note=57, velocity=0, time=59),
    Message('note_on', channel=8, note=61, velocity=127, time=1),
    Message('note_on', channel=8, note=61, velocity=0, time=29),
    Message('note_on', channel=8, note=62, velocity=127, time=1),
    Message('note_on', channel=8, note=62, velocity=0, time=29),
    Message('note_on', channel=8, note=62, velocity=127, time=1),
    Message('note_on', channel=8, note=62, velocity=0, time=179),
    Message('note_on', channel=8, note=62, velocity=127, time=361),
    Message('note_on', channel=8, note=62, velocity=0, time=119),
    Message('note_on', channel=8, note=62, velocity=127, time=1),
    Message('note_on', channel=8, note=62, velocity=0, time=179),
    Message('note_on', channel=8, note=61, velocity=127, time=1),
    Message('note_on', channel=8, note=61, velocity=0, time=119),
    Message('note_on', channel=8, note=62, velocity=127, time=1),
    Message('note_on', channel=8, note=62, velocity=0, time=59),
    Message('note_on', channel=8, note=61, velocity=127, time=1),
    Message('note_on', channel=8, note=61, velocity=0, time=59),
    Message('note_on', channel=8, note=59, velocity=127, time=1),
    Message('note_on', channel=8, note=59, velocity=0, time=59),
    Message('note_on', channel=8, note=59, velocity=127, time=1),
    Message('note_on', channel=8, note=59, velocity=0, time=119),
    Message('note_on', channel=8, note=61, velocity=127, time=1),
    Message('note_on', channel=8, note=61, velocity=0, time=119),
    Message('note_on', channel=8, note=62, velocity=127, time=1),
    Message('note_on', channel=8, note=62, velocity=0, time=179),
    Message('note_on', channel=8, note=61, velocity=127, time=1),
    Message('note_on', channel=8, note=61, velocity=0, time=119),
    Message('note_on', channel=8, note=62, velocity=127, time=1),
    Message('note_on', channel=8, note=62, velocity=0, time=119),
    Message('note_on', channel=8, note=57, velocity=127, time=1),
    Message('note_on', channel=8, note=57, velocity=0, time=59),
    Message('note_on', channel=8, note=61, velocity=127, time=1),
    Message('note_on', channel=8, note=61, velocity=0, time=29),
    Message('note_on', channel=8, note=62, velocity=127, time=1),
    Message('note_on', channel=8, note=62, velocity=0, time=29),
    Message('note_on', channel=8, note=62, velocity=127, time=1),
    Message('note_on', channel=8, note=62, velocity=0, time=299),
    Message('note_on', channel=8, note=62, velocity=127, time=241),
    Message('note_on', channel=8, note=62, velocity=0, time=119),
    Message('note_on', channel=8, note=62, velocity=127, time=1),
    Message('note_on', channel=8, note=62, velocity=0, time=59),
    Message('note_on', channel=8, note=62, velocity=127, time=1),
    Message('note_on', channel=8, note=62, velocity=0, time=119),
    Message('note_on', channel=8, note=61, velocity=127, time=1),
    Message('note_on', channel=8, note=61, velocity=0, time=59),
    Message('note_on', channel=8, note=61, velocity=127, time=1),
    Message('note_on', channel=8, note=61, velocity=0, time=59),
    Message('note_on', channel=8, note=62, velocity=127, time=1),
    Message('note_on', channel=8, note=62, velocity=0, time=59),
    Message('note_on', channel=8, note=61, velocity=127, time=1),
    Message('note_on', channel=8, note=61, velocity=0, time=59),
    Message('note_on', channel=8, note=59, velocity=127, time=1),
    Message('note_on', channel=8, note=59, velocity=0, time=59),
    Message('note_on', channel=8, note=59, velocity=127, time=1),
    Message('note_on', channel=8, note=59, velocity=0, time=119),
    Message('note_on', channel=8, note=57, velocity=127, time=1),
    Message('note_on', channel=8, note=57, velocity=0, time=119),
    Message('note_on', channel=8, note=57, velocity=127, time=1),
    Message('note_on', channel=8, note=57, velocity=0, time=179),
    Message('note_on', channel=8, note=61, velocity=127, time=1),
    Message('note_on', channel=8, note=61, velocity=0, time=119),
    Message('note_on', channel=8, note=62, velocity=127, time=1),
    Message('note_on', channel=8, note=62, velocity=0, time=119),
    Message('note_on', channel=8, note=57, velocity=127, time=1),
    Message('note_on', channel=8, note=57, velocity=0, time=59),
    Message('note_on', channel=8, note=61, velocity=127, time=1),
    Message('note_on', channel=8, note=61, velocity=0, time=29),
    Message('note_on', channel=8, note=62, velocity=127, time=1),
    Message('note_on', channel=8, note=62, velocity=0, time=29),
    Message('note_on', channel=8, note=62, velocity=127, time=1),
    Message('note_on', channel=8, note=62, velocity=0, time=239),
    Message('note_on', channel=8, note=57, velocity=127, time=1),
    Message('note_on', channel=8, note=57, velocity=0, time=299),
    Message('note_on', channel=8, note=61, velocity=127, time=61),
    Message('note_on', channel=8, note=61, velocity=0, time=119),
    Message('note_on', channel=8, note=62, velocity=127, time=1),
    Message('note_on', channel=8, note=62, velocity=0, time=119),
    Message('note_on', channel=8, note=57, velocity=127, time=1),
    Message('note_on', channel=8, note=57, velocity=0, time=59),
    Message('note_on', channel=8, note=61, velocity=127, time=1),
    Message('note_on', channel=8, note=61, velocity=0, time=29),
    Message('note_on', channel=8, note=62, velocity=127, time=1),
    Message('note_on', channel=8, note=62, velocity=0, time=29),
    Message('note_on', channel=8, note=62, velocity=127, time=1),
    Message('note_on', channel=8, note=62, velocity=0, time=419),
    Message('note_on', channel=8, note=57, velocity=127, time=1),
    Message('note_on', channel=8, note=57, velocity=0, time=179),
    Message('note_on', channel=8, note=61, velocity=127, time=1),
    Message('note_on', channel=8, note=61, velocity=0, time=119),
    Message('note_on', channel=8, note=62, velocity=127, time=1),
    Message('note_on', channel=8, note=62, velocity=0, time=119),
    Message('note_on', channel=8, note=57, velocity=127, time=1),
    Message('note_on', channel=8, note=57, velocity=0, time=59),
    Message('note_on', channel=8, note=61, velocity=127, time=1),
    Message('note_on', channel=8, note=61, velocity=0, time=29),
    Message('note_on', channel=8, note=62, velocity=127, time=1),
    Message('note_on', channel=8, note=62, velocity=0, time=29),
    Message('note_on', channel=8, note=62, velocity=127, time=1),
    Message('note_on', channel=8, note=62, velocity=0, time=419),
    Message('note_on', channel=8, note=57, velocity=127, time=1),
    Message('note_on', channel=8, note=57, velocity=0, time=359),
    Message('note_on', channel=8, note=66, velocity=127, time=2161),
    Message('note_on', channel=8, note=66, velocity=0, time=59),
    Message('note_on', channel=8, note=66, velocity=127, time=1),
    Message('note_on', channel=8, note=66, velocity=0, time=119),
    Message('note_on', channel=8, note=62, velocity=127, time=1),
    Message('note_on', channel=8, note=62, velocity=0, time=119),
    Message('note_on', channel=8, note=57, velocity=127, time=1),
    Message('note_on', channel=8, note=57, velocity=0, time=239),
    Message('note_on', channel=8, note=62, velocity=127, time=121),
    Message('note_on', channel=8, note=62, velocity=0, time=179),
    Message('note_on', channel=8, note=66, velocity=127, time=121),
    Message('note_on', channel=8, note=66, velocity=0, time=59),
    Message('note_on', channel=8, note=66, velocity=127, time=1),
    Message('note_on', channel=8, note=66, velocity=0, time=119),
    Message('note_on', channel=8, note=64, velocity=127, time=1),
    Message('note_on', channel=8, note=64, velocity=0, time=119),
    Message('note_on', channel=8, note=62, velocity=127, time=1),
    Message('note_on', channel=8, note=62, velocity=0, time=119),
    Message('note_on', channel=8, note=61, velocity=127, time=1),
    Message('note_on', channel=8, note=61, velocity=0, time=119),
    Message('note_on', channel=8, note=62, velocity=127, time=1),
    Message('note_on', channel=8, note=62, velocity=0, time=119),
    Message('note_on', channel=8, note=64, velocity=127, time=1),
    Message('note_on', channel=8, note=64, velocity=0, time=59),
    Message('note_on', channel=8, note=66, velocity=127, time=1),
    Message('note_on', channel=8, note=66, velocity=0, time=59),
    Message('note_on', channel=8, note=64, velocity=127, time=1),
    Message('note_on', channel=8, note=64, velocity=0, time=119),
    Message('note_on', channel=8, note=66, velocity=127, time=61),
    Message('note_on', channel=8, note=66, velocity=0, time=59),
    Message('note_on', channel=8, note=66, velocity=127, time=1),
    Message('note_on', channel=8, note=66, velocity=0, time=119),
    Message('note_on', channel=8, note=62, velocity=127, time=1),
    Message('note_on', channel=8, note=62, velocity=0, time=119),
    Message('note_on', channel=8, note=57, velocity=127, time=1),
    Message('note_on', channel=8, note=57, velocity=0, time=239),
    Message('note_on', channel=8, note=62, velocity=127, time=121),
    Message('note_on', channel=8, note=62, velocity=0, time=179),
    Message('note_on', channel=8, note=66, velocity=127, time=121),
    Message('note_on', channel=8, note=66, velocity=0, time=59),
    Message('note_on', channel=8, note=66, velocity=127, time=1),
    Message('note_on', channel=8, note=66, velocity=0, time=119),
    Message('note_on', channel=8, note=64, velocity=127, time=1),
    Message('note_on', channel=8, note=64, velocity=0, time=119),
    Message('note_on', channel=8, note=62, velocity=127, time=1),
    Message('note_on', channel=8, note=62, velocity=0, time=59),
    Message('note_on', channel=8, note=64, velocity=127, time=1),
    Message('note_on', channel=8, note=64, velocity=0, time=59),
    Message('note_on', channel=8, note=62, velocity=127, time=1),
    Message('note_on', channel=8, note=62, velocity=0, time=59),
    Message('note_on', channel=8, note=61, velocity=127, time=1),
    Message('note_on', channel=8, note=61, velocity=0, time=179),
    Message('note_on', channel=8, note=62, velocity=127, time=1),
    Message('note_on', channel=8, note=62, velocity=0, time=179),
    Message('note_on', channel=8, note=66, velocity=127, time=181),
    Message('note_on', channel=8, note=66, velocity=0, time=119),
    Message('note_on', channel=8, note=64, velocity=127, time=1),
    Message('note_on', channel=8, note=64, velocity=0, time=119),
    Message('note_on', channel=8, note=62, velocity=127, time=1),
    Message('note_on', channel=8, note=62, velocity=0, time=59),
    Message('note_on', channel=8, note=64, velocity=127, time=1),
    Message('note_on', channel=8, note=64, velocity=0, time=59),
    Message('note_on', channel=8, note=62, velocity=127, time=1),
    Message('note_on', channel=8, note=62, velocity=0, time=59),
    Message('note_on', channel=8, note=61, velocity=127, time=1),
    Message('note_on', channel=8, note=61, velocity=0, time=179),
    Message('note_on', channel=8, note=62, velocity=127, time=1),
    Message('note_on', channel=8, note=62, velocity=0, time=179),
    Message('note_on', channel=8, note=66, velocity=127, time=181),
    Message('note_on', channel=8, note=66, velocity=0, time=119),
    Message('note_on', channel=8, note=64, velocity=127, time=1),
    Message('note_on', channel=8, note=64, velocity=0, time=119),
    Message('note_on', channel=8, note=62, velocity=127, time=1),
    Message('note_on', channel=8, note=62, velocity=0, time=59),
    Message('note_on', channel=8, note=64, velocity=127, time=1),
    Message('note_on', channel=8, note=64, velocity=0, time=59),
    Message('note_on', channel=8, note=62, velocity=127, time=1),
    Message('note_on', channel=8, note=62, velocity=0, time=59),
    Message('note_on', channel=8, note=61, velocity=127, time=1),
    Message('note_on', channel=8, note=61, velocity=0, time=179),
    Message('note_on', channel=8, note=62, velocity=127, time=1),
    Message('note_on', channel=8, note=62, velocity=0, time=179),
    Message('note_on', channel=8, note=66, velocity=127, time=181),
    Message('note_on', channel=8, note=66, velocity=0, time=119),
    Message('note_on', channel=8, note=64, velocity=127, time=1),
    Message('note_on', channel=8, note=64, velocity=0, time=119),
    Message('note_on', channel=8, note=62, velocity=127, time=1),
    Message('note_on', channel=8, note=62, velocity=0, time=59),
    Message('note_on', channel=8, note=64, velocity=127, time=1),
    Message('note_on', channel=8, note=64, velocity=0, time=59),
    Message('note_on', channel=8, note=62, velocity=127, time=1),
    Message('note_on', channel=8, note=62, velocity=0, time=59),
    Message('note_on', channel=8, note=61, velocity=127, time=1),
    Message('note_on', channel=8, note=61, velocity=0, time=179),
    Message('note_on', channel=8, note=62, velocity=127, time=1),
    Message('note_on', channel=8, note=62, velocity=0, time=179),
    Message('note_on', channel=8, note=66, velocity=127, time=181),
    Message('note_on', channel=8, note=66, velocity=0, time=119),
    Message('note_on', channel=8, note=64, velocity=127, time=1),
    Message('note_on', channel=8, note=64, velocity=0, time=119),
    Message('note_on', channel=8, note=62, velocity=127, time=1),
    Message('note_on', channel=8, note=62, velocity=0, time=59),
    Message('note_on', channel=8, note=64, velocity=127, time=1),
    Message('note_on', channel=8, note=64, velocity=0, time=59),
    Message('note_on', channel=8, note=62, velocity=127, time=1),
    Message('note_on', channel=8, note=62, velocity=0, time=119),
    Message('note_on', channel=8, note=61, velocity=127, time=301),
    Message('note_on', channel=8, note=61, velocity=0, time=179),
    Message('note_on', channel=8, note=62, velocity=127, time=1),
    Message('note_on', channel=8, note=62, velocity=0, time=1919),
    Message('note_on', channel=8, note=57, velocity=127, time=1),
    Message('note_on', channel=8, note=57, velocity=0, time=239),
    Message('note_on', channel=8, note=67, velocity=110, time=1381),
    Message('note_on', channel=8, note=67, velocity=0, time=119),
    Message('note_on', channel=8, note=66, velocity=110, time=1),
    Message('note_on', channel=8, note=66, velocity=0, time=59),
    Message('note_on', channel=8, note=64, velocity=110, time=1),
    Message('note_on', channel=8, note=64, velocity=0, time=59),
    Message('note_on', channel=8, note=62, velocity=110, time=1),
    Message('note_on', channel=8, note=62, velocity=0, time=59),
    Message('note_on', channel=8, note=64, velocity=110, time=1),
    Message('note_on', channel=8, note=64, velocity=0, time=119),
    Message('note_on', channel=8, note=62, velocity=110, time=1),
    Message('note_on', channel=8, note=62, velocity=0, time=119),
    Message('note_on', channel=8, note=64, velocity=110, time=1),
    Message('note_on', channel=8, note=64, velocity=0, time=119),
    Message('note_on', channel=8, note=62, velocity=110, time=1),
    Message('note_on', channel=8, note=62, velocity=0, time=179),
    Message('note_on', channel=8, note=67, velocity=110, time=121),
    Message('note_on', channel=8, note=67, velocity=0, time=119),
    Message('note_on', channel=8, note=66, velocity=110, time=1),
    Message('note_on', channel=8, note=66, velocity=0, time=59),
    Message('note_on', channel=8, note=64, velocity=110, time=1),
    Message('note_on', channel=8, note=64, velocity=0, time=59),
    Message('note_on', channel=8, note=62, velocity=110, time=1),
    Message('note_on', channel=8, note=62, velocity=0, time=59),
    Message('note_on', channel=8, note=64, velocity=110, time=1),
    Message('note_on', channel=8, note=64, velocity=0, time=119),
    Message('note_on', channel=8, note=62, velocity=110, time=1),
    Message('note_on', channel=8, note=62, velocity=0, time=119),
    Message('note_on', channel=8, note=64, velocity=127, time=1),
    Message('note_on', channel=8, note=64, velocity=0, time=119),
    Message('note_on', channel=8, note=62, velocity=110, time=1),
    Message('note_on', channel=8, note=62, velocity=0, time=119),
    Message('note_on', channel=8, note=61, velocity=110, time=1),
    Message('note_on', channel=8, note=61, velocity=0, time=119),
    Message('note_on', channel=8, note=59, velocity=110, time=1),
    Message('note_on', channel=8, note=59, velocity=0, time=119),
    Message('note_on', channel=8, note=57, velocity=110, time=1),
    Message('note_on', channel=8, note=57, velocity=0, time=119),
    Message('note_on', channel=8, note=62, velocity=110, time=1),
    Message('note_on', channel=8, note=62, velocity=0, time=119),
    Message('note_on', channel=8, note=61, velocity=110, time=1),
    Message('note_on', channel=8, note=61, velocity=0, time=119),
    Message('note_on', channel=8, note=59, velocity=110, time=1),
    Message('note_on', channel=8, note=59, velocity=0, time=119),
    Message('note_on', channel=8, note=59, velocity=110, time=1),
    Message('note_on', channel=8, note=59, velocity=0, time=539),
    Message('note_on', channel=8, note=57, velocity=110, time=1),
    Message('note_on', channel=8, note=57, velocity=0, time=179),
    Message('note_on', channel=8, note=55, velocity=110, time=1),
    Message('note_on', channel=8, note=55, velocity=0, time=119),
    Message('note_on', channel=8, note=57, velocity=110, time=1),
    Message('note_on', channel=8, note=57, velocity=0, time=179),
    Message('note_on', channel=8, note=55, velocity=110, time=181),
    Message('note_on', channel=8, note=55, velocity=0, time=119),
    Message('note_on', channel=8, note=57, velocity=110, time=1),
    Message('note_on', channel=8, note=57, velocity=0, time=179),
    Message('note_on', channel=8, note=55, velocity=110, time=181),
    Message('note_on', channel=8, note=55, velocity=0, time=119),
    Message('note_on', channel=8, note=57, velocity=110, time=1),
    Message('note_on', channel=8, note=57, velocity=0, time=179),
    Message('note_on', channel=8, note=55, velocity=110, time=181),
    Message('note_on', channel=8, note=55, velocity=0, time=119),
    Message('note_on', channel=8, note=57, velocity=110, time=1),
    Message('note_on', channel=8, note=57, velocity=0, time=179),
    Message('note_on', channel=8, note=61, velocity=110, time=181),
    Message('note_on', channel=8, note=61, velocity=0, time=119),
    Message('note_on', channel=8, note=62, velocity=110, time=1),
    Message('note_on', channel=8, note=62, velocity=0, time=179),
    Message('note_on', channel=8, note=66, velocity=110, time=181),
    Message('note_on', channel=8, note=66, velocity=0, time=119),
    Message('note_on', channel=8, note=62, velocity=110, time=1),
    Message('note_on', channel=8, note=62, velocity=0, time=179),
    MetaMessage('end_of_track', time=0)]),
  MidiTrack([
    MetaMessage('midi_port', port=0, time=0),
    MetaMessage('track_name', name='http://users.netconnect.com.au/~marsh', time=0),
    Message('program_change', channel=10, program=85, time=0),
    Message('control_change', channel=10, control=7, value=115, time=0),
    Message('note_on', channel=10, note=66, velocity=127, time=43860),
    Message('note_on', channel=10, note=66, velocity=0, time=119),
    Message('note_on', channel=10, note=62, velocity=127, time=1),
    Message('note_on', channel=10, note=62, velocity=0, time=119),
    Message('note_on', channel=10, note=62, velocity=127, time=1),
    Message('note_on', channel=10, note=62, velocity=0, time=59),
    Message('note_on', channel=10, note=61, velocity=127, time=1),
    Message('note_on', channel=10, note=61, velocity=0, time=29),
    Message('note_on', channel=10, note=62, velocity=127, time=1),
    Message('note_on', channel=10, note=62, velocity=0, time=29),
    Message('note_on', channel=10, note=62, velocity=127, time=1),
    Message('note_on', channel=10, note=62, velocity=0, time=419),
    Message('note_on', channel=10, note=66, velocity=127, time=181),
    Message('note_on', channel=10, note=66, velocity=0, time=119),
    Message('note_on', channel=10, note=62, velocity=127, time=1),
    Message('note_on', channel=10, note=62, velocity=0, time=119),
    Message('note_on', channel=10, note=62, velocity=127, time=1),
    Message('note_on', channel=10, note=62, velocity=0, time=59),
    Message('note_on', channel=10, note=61, velocity=127, time=1),
    Message('note_on', channel=10, note=61, velocity=0, time=29),
    Message('note_on', channel=10, note=62, velocity=127, time=1),
    Message('note_on', channel=10, note=62, velocity=0, time=29),
    Message('note_on', channel=10, note=62, velocity=127, time=1),
    Message('note_on', channel=10, note=62, velocity=0, time=419),
    Message('note_on', channel=10, note=66, velocity=127, time=181),
    Message('note_on', channel=10, note=66, velocity=0, time=119),
    Message('note_on', channel=10, note=62, velocity=127, time=1),
    Message('note_on', channel=10, note=62, velocity=0, time=119),
    Message('note_on', channel=10, note=62, velocity=127, time=1),
    Message('note_on', channel=10, note=62, velocity=0, time=59),
    Message('note_on', channel=10, note=61, velocity=127, time=1),
    Message('note_on', channel=10, note=61, velocity=0, time=29),
    Message('note_on', channel=10, note=62, velocity=127, time=1),
    Message('note_on', channel=10, note=62, velocity=0, time=29),
    Message('note_on', channel=10, note=62, velocity=127, time=1),
    Message('note_on', channel=10, note=62, velocity=0, time=419),
    MetaMessage('end_of_track', time=0)]),
  MidiTrack([
    MetaMessage('midi_port', port=0, time=0),
    Message('program_change', channel=11, program=29, time=0),
    Message('control_change', channel=11, control=7, value=95, time=0),
    Message('note_on', channel=11, note=62, velocity=127, time=49080),
    Message('note_on', channel=11, note=74, velocity=127, time=0),
    Message('note_on', channel=11, note=74, velocity=0, time=59),
    Message('note_on', channel=11, note=62, velocity=0, time=0),
    Message('note_on', channel=11, note=66, velocity=127, time=1),
    Message('note_on', channel=11, note=78, velocity=127, time=0),
    Message('note_on', channel=11, note=78, velocity=0, time=119),
    Message('note_on', channel=11, note=66, velocity=0, time=0),
    Message('note_on', channel=11, note=66, velocity=127, time=1),
    Message('note_on', channel=11, note=78, velocity=127, time=0),
    Message('note_on', channel=11, note=78, velocity=0, time=119),
    Message('note_on', channel=11, note=66, velocity=0, time=0),
    Message('note_on', channel=11, note=66, velocity=127, time=1),
    Message('note_on', channel=11, note=78, velocity=127, time=0),
    Message('note_on', channel=11, note=78, velocity=0, time=59),
    Message('note_on', channel=11, note=66, velocity=0, time=0),
    Message('note_on', channel=11, note=66, velocity=127, time=1),
    Message('note_on', channel=11, note=78, velocity=127, time=0),
    Message('note_on', channel=11, note=78, velocity=0, time=119),
    Message('note_on', channel=11, note=66, velocity=0, time=0),
    Message('note_on', channel=11, note=66, velocity=127, time=1),
    Message('note_on', channel=11, note=78, velocity=127, time=0),
    Message('note_on', channel=11, note=78, velocity=0, time=59),
    Message('note_on', channel=11, note=66, velocity=0, time=0),
    Message('note_on', channel=11, note=66, velocity=127, time=1),
    Message('note_on', channel=11, note=78, velocity=127, time=0),
    Message('note_on', channel=11, note=78, velocity=0, time=59),
    Message('note_on', channel=11, note=66, velocity=0, time=0),
    Message('note_on', channel=11, note=64, velocity=127, time=1),
    Message('note_on', channel=11, note=76, velocity=127, time=0),
    Message('note_on', channel=11, note=76, velocity=0, time=119),
    Message('note_on', channel=11, note=64, velocity=0, time=0),
    Message('note_on', channel=11, note=64, velocity=127, time=1),
    Message('note_on', channel=11, note=76, velocity=127, time=0),
    Message('note_on', channel=11, note=76, velocity=0, time=59),
    Message('note_on', channel=11, note=64, velocity=0, time=0),
    Message('note_on', channel=11, note=64, velocity=127, time=1),
    Message('note_on', channel=11, note=76, velocity=127, time=0),
    Message('note_on', channel=11, note=76, velocity=0, time=59),
    Message('note_on', channel=11, note=64, velocity=0, time=0),
    Message('note_on', channel=11, note=62, velocity=127, time=1),
    Message('note_on', channel=11, note=74, velocity=127, time=0),
    Message('note_on', channel=11, note=74, velocity=0, time=179),
    Message('note_on', channel=11, note=62, velocity=0, time=0),
    Message('note_on', channel=11, note=62, velocity=127, time=1),
    Message('note_on', channel=11, note=74, velocity=127, time=0),
    Message('note_on', channel=11, note=74, velocity=0, time=119),
    Message('note_on', channel=11, note=62, velocity=0, time=0),
    Message('note_on', channel=11, note=62, velocity=127, time=1),
    Message('note_on', channel=11, note=74, velocity=127, time=0),
    Message('note_on', channel=11, note=74, velocity=0, time=59),
    Message('note_on', channel=11, note=62, velocity=0, time=0),
    Message('note_on', channel=11, note=62, velocity=127, time=1),
    Message('note_on', channel=11, note=74, velocity=127, time=0),
    Message('note_on', channel=11, note=74, velocity=0, time=59),
    Message('note_on', channel=11, note=62, velocity=0, time=0),
    Message('note_on', channel=11, note=74, velocity=127, time=1),
    Message('note_on', channel=11, note=62, velocity=127, time=0),
    Message('note_on', channel=11, note=62, velocity=0, time=119),
    Message('note_on', channel=11, note=74, velocity=0, time=0),
    Message('note_on', channel=11, note=62, velocity=127, time=1),
    Message('note_on', channel=11, note=74, velocity=127, time=0),
    Message('note_on', channel=11, note=74, velocity=0, time=59),
    Message('note_on', channel=11, note=62, velocity=0, time=0),
    Message('note_on', channel=11, note=62, velocity=127, time=1),
    Message('note_on', channel=11, note=74, velocity=127, time=0),
    Message('note_on', channel=11, note=74, velocity=0, time=59),
    Message('note_on', channel=11, note=62, velocity=0, time=0),
    Message('note_on', channel=11, note=57, velocity=127, time=1),
    Message('note_on', channel=11, note=69, velocity=127, time=0),
    Message('note_on', channel=11, note=69, velocity=0, time=299),
    Message('note_on', channel=11, note=57, velocity=0, time=0),
    Message('note_on', channel=11, note=50, velocity=127, time=6841),
    Message('note_on', channel=11, note=50, velocity=0, time=119),
    Message('note_on', channel=11, note=74, velocity=127, time=1),
    Message('note_on', channel=11, note=74, velocity=0, time=359),
    MetaMessage('end_of_track', time=0)]),
  MidiTrack([
    MetaMessage('midi_port', port=0, time=0),
    Message('program_change', channel=12, program=119, time=0),
    Message('control_change', channel=12, control=7, value=127, time=0),
    Message('note_on', channel=12, note=66, velocity=127, time=57720),
    Message('note_on', channel=12, note=66, velocity=0, time=479),
    MetaMessage('end_of_track', time=0)])
])
