MidiFile(type=1, ticks_per_beat=960, tracks=[
  MidiTrack([
    Message('control_change', channel=0, control=101, value=0, time=0),
    Message('control_change', channel=0, control=100, value=0, time=0),
    Message('control_change', channel=0, control=6, value=12, time=0),
    Message('control_change', channel=0, control=38, value=0, time=0),
    Message('control_change', channel=1, control=101, value=0, time=0),
    Message('control_change', channel=1, control=100, value=0, time=0),
    Message('control_change', channel=1, control=6, value=12, time=0),
    Message('control_change', channel=1, control=38, value=0, time=0),
    Message('control_change', channel=2, control=101, value=0, time=0),
    Message('control_change', channel=2, control=100, value=0, time=0),
    Message('control_change', channel=2, control=6, value=12, time=0),
    Message('control_change', channel=2, control=38, value=0, time=0),
    Message('control_change', channel=3, control=101, value=0, time=0),
    Message('control_change', channel=3, control=100, value=0, time=0),
    Message('control_change', channel=3, control=6, value=12, time=0),
    Message('control_change', channel=3, control=38, value=0, time=0),
    Message('control_change', channel=4, control=101, value=0, time=0),
    Message('control_change', channel=4, control=100, value=0, time=0),
    Message('control_change', channel=4, control=6, value=12, time=0),
    Message('control_change', channel=4, control=38, value=0, time=0),
    Message('control_change', channel=5, control=101, value=0, time=0),
    Message('control_change', channel=5, control=100, value=0, time=0),
    Message('control_change', channel=5, control=6, value=12, time=0),
    Message('control_change', channel=5, control=38, value=0, time=0),
    Message('control_change', channel=6, control=101, value=0, time=0),
    Message('control_change', channel=6, control=100, value=0, time=0),
    Message('control_change', channel=6, control=6, value=12, time=0),
    Message('control_change', channel=6, control=38, value=0, time=0),
    Message('control_change', channel=7, control=101, value=0, time=0),
    Message('control_change', channel=7, control=100, value=0, time=0),
    Message('control_change', channel=7, control=6, value=12, time=0),
    Message('control_change', channel=7, control=38, value=0, time=0),
    Message('control_change', channel=8, control=101, value=0, time=0),
    Message('control_change', channel=8, control=100, value=0, time=0),
    Message('control_change', channel=8, control=6, value=12, time=0),
    Message('control_change', channel=8, control=38, value=0, time=0),
    Message('control_change', channel=9, control=101, value=0, time=0),
    Message('control_change', channel=9, control=100, value=0, time=0),
    Message('control_change', channel=9, control=6, value=12, time=0),
    Message('control_change', channel=9, control=38, value=0, time=0),
    Message('control_change', channel=10, control=101, value=0, time=0),
    Message('control_change', channel=10, control=100, value=0, time=0),
    Message('control_change', channel=10, control=6, value=12, time=0),
    Message('control_change', channel=10, control=38, value=0, time=0),
    Message('control_change', channel=11, control=101, value=0, time=0),
    Message('control_change', channel=11, control=100, value=0, time=0),
    Message('control_change', channel=11, control=6, value=12, time=0),
    Message('control_change', channel=11, control=38, value=0, time=0),
    Message('control_change', channel=12, control=101, value=0, time=0),
    Message('control_change', channel=12, control=100, value=0, time=0),
    Message('control_change', channel=12, control=6, value=12, time=0),
    Message('control_change', channel=12, control=38, value=0, time=0),
    Message('control_change', channel=13, control=101, value=0, time=0),
    Message('control_change', channel=13, control=100, value=0, time=0),
    Message('control_change', channel=13, control=6, value=12, time=0),
    Message('control_change', channel=13, control=38, value=0, time=0),
    Message('control_change', channel=14, control=101, value=0, time=0),
    Message('control_change', channel=14, control=100, value=0, time=0),
    Message('control_change', channel=14, control=6, value=12, time=0),
    Message('control_change', channel=14, control=38, value=0, time=0),
    Message('control_change', channel=15, control=101, value=0, time=0),
    Message('control_change', channel=15, control=100, value=0, time=0),
    Message('control_change', channel=15, control=6, value=12, time=0),
    Message('control_change', channel=15, control=38, value=0, time=0),
    MetaMessage('time_signature', numerator=4, denominator=4, clocks_per_click=24, notated_32nd_notes_per_beat=8, time=0),
    MetaMessage('set_tempo', tempo=576923, time=0),
    MetaMessage('end_of_track', time=0)]),
  MidiTrack([
    Message('pitchwheel', channel=0, pitch=0, time=0),
    Message('control_change', channel=0, control=7, value=71, time=0),
    Message('control_change', channel=0, control=10, value=15, time=0),
    Message('control_change', channel=0, control=93, value=0, time=0),
    Message('control_change', channel=0, control=91, value=0, time=0),
    Message('control_change', channel=0, control=95, value=0, time=0),
    Message('control_change', channel=0, control=92, value=0, time=0),
    Message('control_change', channel=0, control=11, value=127, time=0),
    Message('program_change', channel=0, program=27, time=0),
    Message('control_change', channel=1, control=7, value=71, time=0),
    Message('control_change', channel=1, control=10, value=15, time=0),
    Message('control_change', channel=1, control=93, value=0, time=0),
    Message('control_change', channel=1, control=91, value=0, time=0),
    Message('control_change', channel=1, control=95, value=0, time=0),
    Message('control_change', channel=1, control=92, value=0, time=0),
    Message('control_change', channel=1, control=11, value=127, time=0),
    Message('program_change', channel=1, program=27, time=0),
    Message('note_on', channel=0, note=45, velocity=95, time=6240),
    Message('note_off', channel=0, note=45, velocity=95, time=480),
    Message('note_on', channel=0, note=50, velocity=95, time=0),
    Message('note_off', channel=0, note=50, velocity=95, time=240),
    Message('note_on', channel=0, note=52, velocity=70, time=0),
    Message('note_off', channel=0, note=52, velocity=70, time=240),
    Message('note_on', channel=0, note=45, velocity=95, time=0),
    Message('note_off', channel=0, note=45, velocity=95, time=480),
    Message('note_on', channel=0, note=57, velocity=95, time=0),
    Message('note_off', channel=0, note=57, velocity=95, time=960),
    Message('note_on', channel=0, note=45, velocity=95, time=0),
    Message('note_off', channel=0, note=45, velocity=95, time=480),
    Message('note_on', channel=0, note=55, velocity=95, time=0),
    Message('note_off', channel=0, note=55, velocity=95, time=4800),
    Message('note_on', channel=0, note=45, velocity=95, time=0),
    Message('note_off', channel=0, note=45, velocity=95, time=480),
    Message('note_on', channel=0, note=50, velocity=95, time=0),
    Message('note_off', channel=0, note=50, velocity=95, time=240),
    Message('note_on', channel=0, note=52, velocity=70, time=0),
    Message('note_off', channel=0, note=52, velocity=70, time=240),
    Message('note_on', channel=0, note=45, velocity=95, time=0),
    Message('note_off', channel=0, note=45, velocity=95, time=480),
    Message('note_on', channel=0, note=57, velocity=95, time=0),
    Message('note_off', channel=0, note=57, velocity=95, time=960),
    Message('note_on', channel=0, note=45, velocity=95, time=0),
    Message('note_off', channel=0, note=45, velocity=95, time=480),
    Message('note_on', channel=0, note=55, velocity=95, time=0),
    Message('note_off', channel=0, note=55, velocity=95, time=4800),
    Message('note_on', channel=0, note=45, velocity=95, time=0),
    Message('note_off', channel=0, note=45, velocity=95, time=480),
    Message('note_on', channel=0, note=50, velocity=95, time=0),
    Message('note_off', channel=0, note=50, velocity=95, time=240),
    Message('note_on', channel=0, note=52, velocity=70, time=0),
    Message('note_off', channel=0, note=52, velocity=70, time=240),
    Message('note_on', channel=0, note=45, velocity=95, time=0),
    Message('note_off', channel=0, note=45, velocity=95, time=480),
    Message('note_on', channel=0, note=57, velocity=95, time=0),
    Message('note_off', channel=0, note=57, velocity=95, time=960),
    Message('note_on', channel=0, note=45, velocity=95, time=0),
    Message('note_off', channel=0, note=45, velocity=95, time=480),
    Message('note_on', channel=0, note=55, velocity=95, time=0),
    Message('note_off', channel=0, note=55, velocity=95, time=4800),
    Message('note_on', channel=0, note=45, velocity=95, time=0),
    Message('note_off', channel=0, note=45, velocity=95, time=480),
    Message('note_on', channel=0, note=50, velocity=95, time=0),
    Message('note_off', channel=0, note=50, velocity=95, time=240),
    Message('note_on', channel=0, note=52, velocity=70, time=0),
    Message('note_off', channel=0, note=52, velocity=70, time=240),
    Message('note_on', channel=0, note=45, velocity=95, time=0),
    Message('note_off', channel=0, note=45, velocity=95, time=480),
    Message('note_on', channel=0, note=57, velocity=95, time=0),
    Message('note_off', channel=0, note=57, velocity=95, time=960),
    Message('note_on', channel=0, note=45, velocity=95, time=0),
    Message('note_off', channel=0, note=45, velocity=95, time=480),
    Message('note_on', channel=0, note=55, velocity=95, time=0),
    Message('note_off', channel=0, note=55, velocity=95, time=1440),
    Message('note_on', channel=0, note=55, velocity=95, time=0),
    Message('note_off', channel=0, note=55, velocity=95, time=480),
    Message('note_on', channel=0, note=55, velocity=95, time=0),
    Message('note_off', channel=0, note=55, velocity=95, time=480),
    Message('note_on', channel=0, note=55, velocity=95, time=0),
    Message('note_off', channel=0, note=55, velocity=95, time=480),
    Message('note_on', channel=0, note=55, velocity=95, time=0),
    Message('note_off', channel=0, note=55, velocity=95, time=480),
    Message('note_on', channel=0, note=55, velocity=95, time=0),
    Message('note_off', channel=0, note=55, velocity=95, time=480),
    Message('note_on', channel=0, note=55, velocity=95, time=0),
    Message('note_off', channel=0, note=55, velocity=95, time=480),
    Message('note_on', channel=0, note=55, velocity=95, time=0),
    Message('note_off', channel=0, note=55, velocity=95, time=480),
    Message('note_on', channel=0, note=45, velocity=95, time=0),
    Message('note_off', channel=0, note=45, velocity=95, time=480),
    Message('note_on', channel=0, note=50, velocity=95, time=0),
    Message('note_off', channel=0, note=50, velocity=95, time=240),
    Message('note_on', channel=0, note=52, velocity=70, time=0),
    Message('note_off', channel=0, note=52, velocity=70, time=240),
    Message('note_on', channel=0, note=45, velocity=95, time=0),
    Message('note_off', channel=0, note=45, velocity=95, time=480),
    Message('note_on', channel=0, note=57, velocity=95, time=0),
    Message('note_off', channel=0, note=57, velocity=95, time=960),
    Message('note_on', channel=0, note=45, velocity=95, time=0),
    Message('note_off', channel=0, note=45, velocity=95, time=480),
    Message('note_on', channel=0, note=55, velocity=95, time=0),
    Message('note_off', channel=0, note=55, velocity=95, time=4800),
    Message('note_on', channel=0, note=45, velocity=95, time=0),
    Message('note_off', channel=0, note=45, velocity=95, time=480),
    Message('note_on', channel=0, note=50, velocity=95, time=0),
    Message('note_off', channel=0, note=50, velocity=95, time=240),
    Message('note_on', channel=0, note=52, velocity=70, time=0),
    Message('note_off', channel=0, note=52, velocity=70, time=240),
    Message('note_on', channel=0, note=45, velocity=95, time=0),
    Message('note_off', channel=0, note=45, velocity=95, time=480),
    Message('note_on', channel=0, note=57, velocity=95, time=0),
    Message('note_off', channel=0, note=57, velocity=95, time=960),
    Message('note_on', channel=0, note=45, velocity=95, time=0),
    Message('note_off', channel=0, note=45, velocity=95, time=480),
    Message('note_on', channel=0, note=49, velocity=95, time=0),
    Message('note_off', channel=0, note=49, velocity=95, time=4800),
    Message('note_on', channel=0, note=45, velocity=95, time=0),
    Message('note_off', channel=0, note=45, velocity=95, time=480),
    Message('note_on', channel=0, note=50, velocity=95, time=0),
    Message('note_off', channel=0, note=50, velocity=95, time=240),
    Message('note_on', channel=0, note=52, velocity=70, time=0),
    Message('note_off', channel=0, note=52, velocity=70, time=240),
    Message('note_on', channel=0, note=45, velocity=95, time=0),
    Message('note_off', channel=0, note=45, velocity=95, time=480),
    Message('note_on', channel=0, note=57, velocity=95, time=0),
    Message('note_off', channel=0, note=57, velocity=95, time=720),
    Message('note_on', channel=0, note=57, velocity=95, time=0),
    Message('note_off', channel=0, note=57, velocity=95, time=240),
    Message('note_on', channel=0, note=45, velocity=95, time=0),
    Message('note_off', channel=0, note=45, velocity=95, time=480),
    Message('note_on', channel=0, note=55, velocity=95, time=0),
    Message('note_off', channel=0, note=55, velocity=95, time=2400),
    Message('note_on', channel=0, note=45, velocity=95, time=0),
    Message('note_on', channel=0, note=55, velocity=95, time=15),
    Message('note_on', channel=0, note=62, velocity=95, time=15),
    Message('note_off', channel=0, note=62, velocity=95, time=210),
    Message('note_off', channel=0, note=55, velocity=95, time=0),
    Message('note_off', channel=0, note=45, velocity=95, time=0),
    Message('note_on', channel=0, note=69, velocity=95, time=0),
    Message('note_on', channel=0, note=67, velocity=95, time=0),
    Message('note_off', channel=0, note=69, velocity=95, time=2160),
    Message('note_off', channel=0, note=67, velocity=95, time=0),
    Message('note_on', channel=0, note=45, velocity=95, time=0),
    Message('note_off', channel=0, note=45, velocity=95, time=480),
    Message('note_on', channel=0, note=50, velocity=95, time=0),
    Message('note_off', channel=0, note=50, velocity=95, time=240),
    Message('note_on', channel=0, note=52, velocity=70, time=0),
    Message('note_off', channel=0, note=52, velocity=70, time=240),
    Message('note_on', channel=0, note=55, velocity=95, time=0),
    Message('note_off', channel=0, note=55, velocity=95, time=480),
    Message('note_on', channel=0, note=57, velocity=95, time=0),
    Message('note_off', channel=0, note=57, velocity=95, time=480),
    Message('note_on', channel=0, note=64, velocity=95, time=0),
    Message('note_on', channel=0, note=62, velocity=95, time=0),
    Message('note_on', channel=0, note=57, velocity=95, time=0),
    Message('note_off', channel=0, note=64, velocity=95, time=960),
    Message('note_off', channel=0, note=62, velocity=95, time=0),
    Message('note_off', channel=0, note=57, velocity=95, time=0),
    Message('note_on', channel=0, note=69, velocity=95, time=0),
    Message('note_on', channel=0, note=64, velocity=95, time=0),
    Message('note_on', channel=0, note=62, velocity=95, time=0),
    Message('note_on', channel=0, note=57, velocity=95, time=0),
    Message('note_off', channel=0, note=69, velocity=95, time=2400),
    Message('note_off', channel=0, note=64, velocity=95, time=0),
    Message('note_off', channel=0, note=62, velocity=95, time=0),
    Message('note_off', channel=0, note=57, velocity=95, time=0),
    Message('note_on', channel=0, note=69, velocity=95, time=0),
    Message('note_on', channel=0, note=64, velocity=95, time=0),
    Message('note_on', channel=0, note=62, velocity=95, time=0),
    Message('note_on', channel=0, note=57, velocity=95, time=0),
    Message('note_off', channel=0, note=69, velocity=95, time=240),
    Message('note_off', channel=0, note=64, velocity=95, time=0),
    Message('note_off', channel=0, note=62, velocity=95, time=0),
    Message('note_off', channel=0, note=57, velocity=95, time=0),
    Message('note_on', channel=0, note=69, velocity=95, time=0),
    Message('note_on', channel=0, note=64, velocity=95, time=0),
    Message('note_on', channel=0, note=62, velocity=95, time=0),
    Message('note_on', channel=0, note=57, velocity=95, time=0),
    Message('note_off', channel=0, note=69, velocity=95, time=240),
    Message('note_off', channel=0, note=64, velocity=95, time=0),
    Message('note_off', channel=0, note=62, velocity=95, time=0),
    Message('note_off', channel=0, note=57, velocity=95, time=0),
    Message('note_on', channel=0, note=69, velocity=95, time=0),
    Message('note_on', channel=0, note=64, velocity=95, time=0),
    Message('note_on', channel=0, note=62, velocity=95, time=0),
    Message('note_on', channel=0, note=57, velocity=95, time=0),
    Message('note_off', channel=0, note=69, velocity=95, time=240),
    Message('note_off', channel=0, note=64, velocity=95, time=0),
    Message('note_off', channel=0, note=62, velocity=95, time=0),
    Message('note_off', channel=0, note=57, velocity=95, time=0),
    Message('note_on', channel=0, note=69, velocity=95, time=0),
    Message('note_on', channel=0, note=64, velocity=95, time=0),
    Message('note_on', channel=0, note=62, velocity=95, time=0),
    Message('note_on', channel=0, note=57, velocity=95, time=0),
    Message('note_off', channel=0, note=69, velocity=95, time=480),
    Message('note_off', channel=0, note=64, velocity=95, time=0),
    Message('note_off', channel=0, note=62, velocity=95, time=0),
    Message('note_off', channel=0, note=57, velocity=95, time=0),
    Message('note_on', channel=0, note=69, velocity=95, time=0),
    Message('note_on', channel=0, note=64, velocity=95, time=0),
    Message('note_on', channel=0, note=62, velocity=95, time=0),
    Message('note_on', channel=0, note=57, velocity=95, time=0),
    Message('note_off', channel=0, note=69, velocity=95, time=240),
    Message('note_off', channel=0, note=64, velocity=95, time=0),
    Message('note_off', channel=0, note=62, velocity=95, time=0),
    Message('note_off', channel=0, note=57, velocity=95, time=0),
    Message('note_on', channel=0, note=69, velocity=95, time=0),
    Message('note_on', channel=0, note=64, velocity=95, time=0),
    Message('note_on', channel=0, note=61, velocity=95, time=0),
    Message('note_on', channel=0, note=57, velocity=95, time=0),
    Message('note_off', channel=0, note=69, velocity=95, time=960),
    Message('note_off', channel=0, note=64, velocity=95, time=0),
    Message('note_off', channel=0, note=61, velocity=95, time=0),
    Message('note_off', channel=0, note=57, velocity=95, time=0),
    Message('note_on', channel=0, note=45, velocity=95, time=0),
    Message('note_off', channel=0, note=45, velocity=95, time=480),
    Message('note_on', channel=0, note=50, velocity=95, time=0),
    Message('note_off', channel=0, note=50, velocity=95, time=240),
    Message('note_on', channel=0, note=52, velocity=70, time=0),
    Message('note_off', channel=0, note=52, velocity=70, time=240),
    Message('note_on', channel=0, note=55, velocity=95, time=0),
    Message('note_off', channel=0, note=55, velocity=95, time=480),
    Message('note_on', channel=0, note=57, velocity=95, time=61440),
    Message('note_off', channel=0, note=57, velocity=95, time=960),
    Message('note_on', channel=0, note=45, velocity=95, time=0),
    Message('note_off', channel=0, note=45, velocity=95, time=480),
    Message('note_on', channel=0, note=55, velocity=95, time=0),
    Message('note_off', channel=0, note=55, velocity=95, time=4800),
    Message('note_on', channel=0, note=45, velocity=95, time=0),
    Message('note_off', channel=0, note=45, velocity=95, time=480),
    Message('note_on', channel=0, note=50, velocity=95, time=0),
    Message('note_off', channel=0, note=50, velocity=95, time=240),
    Message('note_on', channel=0, note=52, velocity=70, time=0),
    Message('note_off', channel=0, note=52, velocity=70, time=240),
    Message('note_on', channel=0, note=45, velocity=95, time=0),
    Message('note_off', channel=0, note=45, velocity=95, time=480),
    Message('note_on', channel=0, note=57, velocity=95, time=0),
    Message('note_off', channel=0, note=57, velocity=95, time=960),
    Message('note_on', channel=0, note=45, velocity=95, time=0),
    Message('note_off', channel=0, note=45, velocity=95, time=480),
    Message('note_on', channel=0, note=49, velocity=95, time=0),
    Message('note_off', channel=0, note=49, velocity=95, time=4800),
    Message('note_on', channel=0, note=45, velocity=95, time=0),
    Message('note_off', channel=0, note=45, velocity=95, time=480),
    Message('note_on', channel=0, note=50, velocity=95, time=0),
    Message('note_off', channel=0, note=50, velocity=95, time=240),
    Message('note_on', channel=0, note=52, velocity=70, time=0),
    Message('note_off', channel=0, note=52, velocity=70, time=240),
    Message('note_on', channel=0, note=45, velocity=95, time=0),
    Message('note_off', channel=0, note=45, velocity=95, time=480),
    Message('note_on', channel=0, note=57, velocity=95, time=0),
    Message('note_off', channel=0, note=57, velocity=95, time=960),
    Message('note_on', channel=0, note=45, velocity=95, time=0),
    Message('note_off', channel=0, note=45, velocity=95, time=480),
    Message('note_on', channel=0, note=55, velocity=95, time=0),
    Message('note_off', channel=0, note=55, velocity=95, time=4800),
    Message('note_on', channel=0, note=45, velocity=95, time=0),
    Message('note_off', channel=0, note=45, velocity=95, time=480),
    Message('note_on', channel=0, note=50, velocity=95, time=0),
    Message('note_off', channel=0, note=50, velocity=95, time=240),
    Message('note_on', channel=0, note=52, velocity=70, time=0),
    Message('note_off', channel=0, note=52, velocity=70, time=240),
    Message('note_on', channel=0, note=45, velocity=95, time=0),
    Message('note_off', channel=0, note=45, velocity=95, time=480),
    Message('note_on', channel=0, note=57, velocity=95, time=0),
    Message('note_off', channel=0, note=57, velocity=95, time=960),
    Message('note_on', channel=0, note=45, velocity=95, time=0),
    Message('note_off', channel=0, note=45, velocity=95, time=480),
    Message('note_on', channel=0, note=49, velocity=95, time=0),
    Message('note_off', channel=0, note=49, velocity=95, time=4800),
    Message('note_on', channel=0, note=45, velocity=95, time=0),
    Message('note_off', channel=0, note=45, velocity=95, time=480),
    Message('note_on', channel=0, note=50, velocity=95, time=0),
    Message('note_off', channel=0, note=50, velocity=95, time=240),
    Message('note_on', channel=0, note=52, velocity=70, time=0),
    Message('note_off', channel=0, note=52, velocity=70, time=240),
    Message('note_on', channel=0, note=45, velocity=95, time=0),
    Message('note_off', channel=0, note=45, velocity=95, time=480),
    Message('note_on', channel=0, note=57, velocity=95, time=0),
    Message('note_off', channel=0, note=57, velocity=95, time=960),
    Message('note_on', channel=0, note=45, velocity=95, time=0),
    Message('note_off', channel=0, note=45, velocity=95, time=480),
    Message('note_on', channel=0, note=55, velocity=95, time=0),
    Message('note_off', channel=0, note=55, velocity=95, time=4800),
    Message('note_on', channel=0, note=45, velocity=95, time=0),
    Message('note_off', channel=0, note=45, velocity=95, time=480),
    Message('note_on', channel=0, note=50, velocity=95, time=0),
    Message('note_off', channel=0, note=50, velocity=95, time=240),
    Message('note_on', channel=0, note=52, velocity=70, time=0),
    Message('note_off', channel=0, note=52, velocity=70, time=240),
    Message('note_on', channel=0, note=45, velocity=95, time=0),
    Message('note_off', channel=0, note=45, velocity=95, time=480),
    Message('note_on', channel=0, note=57, velocity=95, time=0),
    Message('note_off', channel=0, note=57, velocity=95, time=960),
    Message('note_on', channel=0, note=45, velocity=95, time=0),
    Message('note_off', channel=0, note=45, velocity=95, time=480),
    Message('note_on', channel=0, note=49, velocity=95, time=0),
    Message('note_off', channel=0, note=49, velocity=95, time=4800),
    Message('note_on', channel=0, note=45, velocity=95, time=0),
    Message('note_off', channel=0, note=45, velocity=95, time=480),
    Message('note_on', channel=0, note=50, velocity=95, time=0),
    Message('note_off', channel=0, note=50, velocity=95, time=240),
    Message('note_on', channel=0, note=52, velocity=70, time=0),
    Message('note_off', channel=0, note=52, velocity=70, time=240),
    Message('note_on', channel=0, note=45, velocity=95, time=0),
    Message('note_off', channel=0, note=45, velocity=95, time=480),
    Message('note_on', channel=0, note=57, velocity=95, time=0),
    Message('note_off', channel=0, note=57, velocity=95, time=720),
    Message('note_on', channel=0, note=57, velocity=95, time=0),
    Message('note_off', channel=0, note=57, velocity=95, time=240),
    Message('note_on', channel=0, note=45, velocity=95, time=0),
    Message('note_off', channel=0, note=45, velocity=95, time=480),
    Message('note_on', channel=0, note=55, velocity=95, time=0),
    Message('note_off', channel=0, note=55, velocity=95, time=2400),
    Message('note_on', channel=0, note=45, velocity=95, time=0),
    Message('note_on', channel=0, note=55, velocity=95, time=15),
    Message('note_on', channel=0, note=62, velocity=95, time=15),
    Message('note_off', channel=0, note=62, velocity=95, time=210),
    Message('note_off', channel=0, note=55, velocity=95, time=0),
    Message('note_off', channel=0, note=45, velocity=95, time=0),
    Message('note_on', channel=0, note=69, velocity=95, time=0),
    Message('note_on', channel=0, note=67, velocity=95, time=0),
    Message('note_off', channel=0, note=69, velocity=95, time=2160),
    Message('note_off', channel=0, note=67, velocity=95, time=0),
    Message('note_on', channel=0, note=45, velocity=95, time=0),
    Message('note_off', channel=0, note=45, velocity=95, time=480),
    Message('note_on', channel=0, note=50, velocity=95, time=0),
    Message('note_off', channel=0, note=50, velocity=95, time=240),
    Message('note_on', channel=0, note=52, velocity=70, time=0),
    Message('note_off', channel=0, note=52, velocity=70, time=240),
    Message('note_on', channel=0, note=55, velocity=95, time=0),
    Message('note_off', channel=0, note=55, velocity=95, time=480),
    Message('note_on', channel=0, note=57, velocity=95, time=0),
    Message('note_off', channel=0, note=57, velocity=95, time=480),
    Message('note_on', channel=0, note=64, velocity=95, time=0),
    Message('note_on', channel=0, note=62, velocity=95, time=0),
    Message('note_on', channel=0, note=57, velocity=95, time=0),
    Message('note_off', channel=0, note=64, velocity=95, time=960),
    Message('note_off', channel=0, note=62, velocity=95, time=0),
    Message('note_off', channel=0, note=57, velocity=95, time=0),
    Message('note_on', channel=0, note=69, velocity=95, time=0),
    Message('note_on', channel=0, note=64, velocity=95, time=0),
    Message('note_on', channel=0, note=62, velocity=95, time=0),
    Message('note_on', channel=0, note=57, velocity=95, time=0),
    Message('note_off', channel=0, note=69, velocity=95, time=2400),
    Message('note_off', channel=0, note=64, velocity=95, time=0),
    Message('note_off', channel=0, note=62, velocity=95, time=0),
    Message('note_off', channel=0, note=57, velocity=95, time=0),
    Message('note_on', channel=0, note=69, velocity=95, time=0),
    Message('note_on', channel=0, note=64, velocity=95, time=0),
    Message('note_on', channel=0, note=62, velocity=95, time=0),
    Message('note_on', channel=0, note=57, velocity=95, time=0),
    Message('note_off', channel=0, note=69, velocity=95, time=240),
    Message('note_off', channel=0, note=64, velocity=95, time=0),
    Message('note_off', channel=0, note=62, velocity=95, time=0),
    Message('note_off', channel=0, note=57, velocity=95, time=0),
    Message('note_on', channel=0, note=69, velocity=95, time=0),
    Message('note_on', channel=0, note=64, velocity=95, time=0),
    Message('note_on', channel=0, note=62, velocity=95, time=0),
    Message('note_on', channel=0, note=57, velocity=95, time=0),
    Message('note_off', channel=0, note=69, velocity=95, time=240),
    Message('note_off', channel=0, note=64, velocity=95, time=0),
    Message('note_off', channel=0, note=62, velocity=95, time=0),
    Message('note_off', channel=0, note=57, velocity=95, time=0),
    Message('note_on', channel=0, note=69, velocity=95, time=0),
    Message('note_on', channel=0, note=64, velocity=95, time=0),
    Message('note_on', channel=0, note=62, velocity=95, time=0),
    Message('note_on', channel=0, note=57, velocity=95, time=0),
    Message('note_off', channel=0, note=69, velocity=95, time=240),
    Message('note_off', channel=0, note=64, velocity=95, time=0),
    Message('note_off', channel=0, note=62, velocity=95, time=0),
    Message('note_off', channel=0, note=57, velocity=95, time=0),
    Message('note_on', channel=0, note=69, velocity=95, time=0),
    Message('note_on', channel=0, note=64, velocity=95, time=0),
    Message('note_on', channel=0, note=62, velocity=95, time=0),
    Message('note_on', channel=0, note=57, velocity=95, time=0),
    Message('note_off', channel=0, note=69, velocity=95, time=480),
    Message('note_off', channel=0, note=64, velocity=95, time=0),
    Message('note_off', channel=0, note=62, velocity=95, time=0),
    Message('note_off', channel=0, note=57, velocity=95, time=0),
    Message('note_on', channel=0, note=69, velocity=95, time=0),
    Message('note_on', channel=0, note=64, velocity=95, time=0),
    Message('note_on', channel=0, note=62, velocity=95, time=0),
    Message('note_on', channel=0, note=57, velocity=95, time=0),
    Message('note_off', channel=0, note=69, velocity=95, time=240),
    Message('note_off', channel=0, note=64, velocity=95, time=0),
    Message('note_off', channel=0, note=62, velocity=95, time=0),
    Message('note_off', channel=0, note=57, velocity=95, time=0),
    Message('note_on', channel=0, note=69, velocity=95, time=0),
    Message('note_on', channel=0, note=64, velocity=95, time=0),
    Message('note_on', channel=0, note=61, velocity=95, time=0),
    Message('note_on', channel=0, note=57, velocity=95, time=0),
    Message('note_off', channel=0, note=69, velocity=95, time=960),
    Message('note_off', channel=0, note=64, velocity=95, time=0),
    Message('note_off', channel=0, note=61, velocity=95, time=0),
    Message('note_off', channel=0, note=57, velocity=95, time=0),
    Message('note_on', channel=0, note=45, velocity=95, time=0),
    Message('note_off', channel=0, note=45, velocity=95, time=480),
    Message('note_on', channel=0, note=50, velocity=95, time=0),
    Message('note_off', channel=0, note=50, velocity=95, time=240),
    Message('note_on', channel=0, note=52, velocity=70, time=0),
    Message('note_off', channel=0, note=52, velocity=70, time=240),
    Message('note_on', channel=0, note=55, velocity=95, time=0),
    Message('note_off', channel=0, note=55, velocity=95, time=480),
    MetaMessage('end_of_track', time=0)]),
  MidiTrack([
    Message('pitchwheel', channel=2, pitch=0, time=0),
    Message('control_change', channel=2, control=7, value=63, time=0),
    Message('control_change', channel=2, control=10, value=103, time=0),
    Message('control_change', channel=2, control=93, value=0, time=0),
    Message('control_change', channel=2, control=91, value=0, time=0),
    Message('control_change', channel=2, control=95, value=0, time=0),
    Message('control_change', channel=2, control=92, value=0, time=0),
    Message('control_change', channel=2, control=11, value=127, time=0),
    Message('program_change', channel=2, program=30, time=0),
    Message('control_change', channel=3, control=7, value=63, time=0),
    Message('control_change', channel=3, control=10, value=103, time=0),
    Message('control_change', channel=3, control=93, value=0, time=0),
    Message('control_change', channel=3, control=91, value=0, time=0),
    Message('control_change', channel=3, control=95, value=0, time=0),
    Message('control_change', channel=3, control=92, value=0, time=0),
    Message('control_change', channel=3, control=11, value=127, time=0),
    Message('program_change', channel=3, program=30, time=0),
    Message('note_on', channel=2, note=62, velocity=31, time=11520),
    Message('note_on', channel=2, note=74, velocity=95, time=0),
    Message('note_off', channel=2, note=62, velocity=31, time=1440),
    Message('note_off', channel=2, note=74, velocity=95, time=0),
    Message('note_on', channel=2, note=67, velocity=31, time=0),
    Message('note_on', channel=2, note=79, velocity=95, time=0),
    Message('note_off', channel=2, note=67, velocity=31, time=6240),
    Message('note_off', channel=2, note=79, velocity=95, time=0),
    Message('note_on', channel=2, note=62, velocity=31, time=0),
    Message('note_on', channel=2, note=74, velocity=95, time=0),
    Message('note_off', channel=2, note=62, velocity=31, time=1440),
    Message('note_off', channel=2, note=74, velocity=95, time=0),
    Message('note_on', channel=2, note=57, velocity=31, time=0),
    Message('note_on', channel=2, note=69, velocity=95, time=0),
    Message('note_off', channel=2, note=57, velocity=31, time=6240),
    Message('note_off', channel=2, note=69, velocity=95, time=0),
    Message('note_on', channel=2, note=62, velocity=31, time=0),
    Message('note_on', channel=2, note=74, velocity=95, time=0),
    Message('note_off', channel=2, note=62, velocity=31, time=1440),
    Message('note_off', channel=2, note=74, velocity=95, time=0),
    Message('note_on', channel=2, note=55, velocity=31, time=0),
    Message('note_on', channel=2, note=67, velocity=95, time=0),
    Message('note_off', channel=2, note=55, velocity=31, time=1440),
    Message('note_off', channel=2, note=67, velocity=95, time=0),
    Message('note_on', channel=2, note=57, velocity=31, time=0),
    Message('note_on', channel=2, note=69, velocity=95, time=0),
    Message('note_off', channel=2, note=57, velocity=31, time=6720),
    Message('note_off', channel=2, note=69, velocity=95, time=0),
    MetaMessage('end_of_track', time=0)]),
  MidiTrack([
    Message('pitchwheel', channel=4, pitch=0, time=0),
    Message('control_change', channel=4, control=7, value=71, time=0),
    Message('control_change', channel=4, control=10, value=111, time=0),
    Message('control_change', channel=4, control=93, value=0, time=0),
    Message('control_change', channel=4, control=91, value=0, time=0),
    Message('control_change', channel=4, control=95, value=0, time=0),
    Message('control_change', channel=4, control=92, value=0, time=0),
    Message('control_change', channel=4, control=11, value=127, time=0),
    Message('program_change', channel=4, program=30, time=0),
    Message('control_change', channel=5, control=7, value=71, time=0),
    Message('control_change', channel=5, control=10, value=111, time=0),
    Message('control_change', channel=5, control=93, value=0, time=0),
    Message('control_change', channel=5, control=91, value=0, time=0),
    Message('control_change', channel=5, control=95, value=0, time=0),
    Message('control_change', channel=5, control=92, value=0, time=0),
    Message('control_change', channel=5, control=11, value=127, time=0),
    Message('program_change', channel=5, program=30, time=0),
    Message('note_on', channel=4, note=45, velocity=95, time=67680),
    Message('note_off', channel=4, note=45, velocity=95, time=480),
    Message('note_on', channel=4, note=50, velocity=95, time=0),
    Message('note_off', channel=4, note=50, velocity=95, time=240),
    Message('note_on', channel=4, note=52, velocity=95, time=0),
    Message('note_off', channel=4, note=52, velocity=95, time=240),
    Message('note_on', channel=4, note=45, velocity=95, time=0),
    Message('note_off', channel=4, note=45, velocity=95, time=480),
    Message('note_on', channel=4, note=64, velocity=95, time=0),
    Message('note_on', channel=4, note=57, velocity=95, time=0),
    Message('note_off', channel=4, note=64, velocity=95, time=960),
    Message('note_off', channel=4, note=57, velocity=95, time=0),
    Message('note_on', channel=4, note=45, velocity=95, time=0),
    Message('note_off', channel=4, note=45, velocity=95, time=480),
    Message('note_on', channel=4, note=62, velocity=95, time=0),
    Message('note_on', channel=4, note=55, velocity=95, time=0),
    Message('note_off', channel=4, note=62, velocity=95, time=1920),
    Message('note_off', channel=4, note=55, velocity=95, time=0),
    Message('note_on', channel=4, note=45, velocity=95, time=0),
    Message('note_off', channel=4, note=45, velocity=95, time=480),
    Message('note_on', channel=4, note=62, velocity=95, time=0),
    Message('note_on', channel=4, note=54, velocity=95, time=0),
    Message('note_off', channel=4, note=62, velocity=95, time=2400),
    Message('note_off', channel=4, note=54, velocity=95, time=0),
    Message('note_on', channel=4, note=45, velocity=95, time=0),
    Message('note_off', channel=4, note=45, velocity=95, time=480),
    Message('note_on', channel=4, note=50, velocity=95, time=0),
    Message('note_off', channel=4, note=50, velocity=95, time=240),
    Message('note_on', channel=4, note=52, velocity=70, time=0),
    Message('note_off', channel=4, note=52, velocity=70, time=240),
    Message('note_on', channel=4, note=45, velocity=95, time=0),
    Message('note_off', channel=4, note=45, velocity=95, time=480),
    Message('note_on', channel=4, note=62, velocity=95, time=0),
    Message('note_on', channel=4, note=55, velocity=95, time=0),
    Message('note_off', channel=4, note=62, velocity=95, time=960),
    Message('note_off', channel=4, note=55, velocity=95, time=0),
    Message('note_on', channel=4, note=45, velocity=95, time=0),
    Message('note_off', channel=4, note=45, velocity=95, time=480),
    Message('note_on', channel=4, note=64, velocity=95, time=0),
    Message('note_on', channel=4, note=57, velocity=95, time=0),
    Message('note_off', channel=4, note=64, velocity=95, time=4800),
    Message('note_off', channel=4, note=57, velocity=95, time=0),
    Message('note_on', channel=4, note=45, velocity=95, time=0),
    Message('note_off', channel=4, note=45, velocity=95, time=480),
    Message('note_on', channel=4, note=50, velocity=95, time=0),
    Message('note_off', channel=4, note=50, velocity=95, time=240),
    Message('note_on', channel=4, note=52, velocity=70, time=0),
    Message('note_off', channel=4, note=52, velocity=70, time=240),
    Message('note_on', channel=4, note=45, velocity=95, time=0),
    Message('note_off', channel=4, note=45, velocity=95, time=480),
    Message('note_on', channel=4, note=64, velocity=95, time=0),
    Message('note_on', channel=4, note=57, velocity=95, time=0),
    Message('note_off', channel=4, note=64, velocity=95, time=960),
    Message('note_off', channel=4, note=57, velocity=95, time=0),
    Message('note_on', channel=4, note=45, velocity=95, time=0),
    Message('note_off', channel=4, note=45, velocity=95, time=480),
    Message('note_on', channel=4, note=62, velocity=95, time=0),
    Message('note_on', channel=4, note=55, velocity=95, time=0),
    Message('note_off', channel=4, note=62, velocity=95, time=1920),
    Message('note_off', channel=4, note=55, velocity=95, time=0),
    Message('note_on', channel=4, note=45, velocity=95, time=0),
    Message('note_off', channel=4, note=45, velocity=95, time=480),
    Message('note_on', channel=4, note=62, velocity=95, time=0),
    Message('note_on', channel=4, note=54, velocity=95, time=0),
    Message('note_off', channel=4, note=62, velocity=95, time=2400),
    Message('note_off', channel=4, note=54, velocity=95, time=0),
    Message('note_on', channel=4, note=45, velocity=95, time=0),
    Message('note_off', channel=4, note=45, velocity=95, time=480),
    Message('note_on', channel=4, note=50, velocity=95, time=0),
    Message('note_off', channel=4, note=50, velocity=95, time=240),
    Message('note_on', channel=4, note=52, velocity=70, time=0),
    Message('note_off', channel=4, note=52, velocity=70, time=240),
    Message('note_on', channel=4, note=45, velocity=95, time=0),
    Message('note_off', channel=4, note=45, velocity=95, time=480),
    Message('note_on', channel=4, note=62, velocity=95, time=0),
    Message('note_on', channel=4, note=55, velocity=95, time=0),
    Message('note_off', channel=4, note=62, velocity=95, time=960),
    Message('note_off', channel=4, note=55, velocity=95, time=0),
    Message('note_on', channel=4, note=45, velocity=95, time=0),
    Message('note_off', channel=4, note=45, velocity=95, time=480),
    Message('note_on', channel=4, note=64, velocity=95, time=0),
    Message('note_on', channel=4, note=57, velocity=95, time=0),
    Message('note_off', channel=4, note=64, velocity=95, time=4800),
    Message('note_off', channel=4, note=57, velocity=95, time=0),
    Message('note_on', channel=4, note=45, velocity=95, time=0),
    Message('note_off', channel=4, note=45, velocity=95, time=480),
    Message('note_on', channel=4, note=50, velocity=95, time=0),
    Message('note_off', channel=4, note=50, velocity=95, time=240),
    Message('note_on', channel=4, note=52, velocity=70, time=0),
    Message('note_off', channel=4, note=52, velocity=70, time=240),
    Message('note_on', channel=4, note=45, velocity=95, time=0),
    Message('note_off', channel=4, note=45, velocity=95, time=480),
    Message('note_on', channel=4, note=65, velocity=95, time=0),
    Message('note_on', channel=4, note=60, velocity=95, time=0),
    Message('note_on', channel=4, note=53, velocity=95, time=0),
    Message('note_off', channel=4, note=65, velocity=95, time=480),
    Message('note_off', channel=4, note=60, velocity=95, time=0),
    Message('note_off', channel=4, note=53, velocity=95, time=0),
    Message('note_on', channel=4, note=65, velocity=95, time=0),
    Message('note_on', channel=4, note=60, velocity=95, time=0),
    Message('note_on', channel=4, note=53, velocity=95, time=0),
    Message('note_off', channel=4, note=65, velocity=95, time=480),
    Message('note_off', channel=4, note=60, velocity=95, time=0),
    Message('note_off', channel=4, note=53, velocity=95, time=0),
    Message('note_on', channel=4, note=65, velocity=95, time=0),
    Message('note_on', channel=4, note=60, velocity=95, time=0),
    Message('note_on', channel=4, note=53, velocity=95, time=0),
    Message('note_off', channel=4, note=65, velocity=95, time=2880),
    Message('note_off', channel=4, note=60, velocity=95, time=0),
    Message('note_off', channel=4, note=53, velocity=95, time=0),
    Message('note_on', channel=4, note=62, velocity=95, time=0),
    Message('note_on', channel=4, note=57, velocity=95, time=0),
    Message('note_on', channel=4, note=50, velocity=95, time=0),
    Message('note_off', channel=4, note=62, velocity=95, time=1440),
    Message('note_off', channel=4, note=57, velocity=95, time=0),
    Message('note_off', channel=4, note=50, velocity=95, time=0),
    Message('note_on', channel=4, note=64, velocity=95, time=0),
    Message('note_on', channel=4, note=59, velocity=95, time=0),
    Message('note_on', channel=4, note=52, velocity=95, time=0),
    Message('note_off', channel=4, note=64, velocity=95, time=1440),
    Message('note_off', channel=4, note=59, velocity=95, time=0),
    Message('note_off', channel=4, note=52, velocity=95, time=0),
    Message('note_on', channel=4, note=65, velocity=95, time=0),
    Message('note_on', channel=4, note=60, velocity=95, time=0),
    Message('note_on', channel=4, note=53, velocity=95, time=0),
    Message('note_off', channel=4, note=65, velocity=95, time=960),
    Message('note_off', channel=4, note=60, velocity=95, time=0),
    Message('note_off', channel=4, note=53, velocity=95, time=0),
    Message('note_on', channel=4, note=57, velocity=95, time=0),
    Message('note_on', channel=4, note=52, velocity=95, time=0),
    Message('note_on', channel=4, note=45, velocity=95, time=0),
    Message('note_off', channel=4, note=57, velocity=95, time=3840),
    Message('note_off', channel=4, note=52, velocity=95, time=0),
    Message('note_off', channel=4, note=45, velocity=95, time=0),
    Message('note_on', channel=4, note=57, velocity=95, time=0),
    Message('note_on', channel=4, note=52, velocity=95, time=0),
    Message('note_on', channel=4, note=45, velocity=95, time=0),
    Message('note_off', channel=4, note=57, velocity=95, time=2400),
    Message('note_off', channel=4, note=52, velocity=95, time=0),
    Message('note_off', channel=4, note=45, velocity=95, time=0),
    Message('note_on', channel=4, note=45, velocity=95, time=0),
    Message('note_off', channel=4, note=45, velocity=95, time=480),
    Message('note_on', channel=4, note=50, velocity=95, time=0),
    Message('note_off', channel=4, note=50, velocity=95, time=240),
    Message('note_on', channel=4, note=52, velocity=70, time=0),
    Message('note_off', channel=4, note=52, velocity=70, time=240),
    Message('note_on', channel=4, note=45, velocity=95, time=0),
    Message('note_off', channel=4, note=45, velocity=95, time=480),
    Message('note_on', channel=4, note=65, velocity=95, time=0),
    Message('note_on', channel=4, note=60, velocity=95, time=0),
    Message('note_on', channel=4, note=53, velocity=95, time=0),
    Message('note_off', channel=4, note=65, velocity=95, time=480),
    Message('note_off', channel=4, note=60, velocity=95, time=0),
    Message('note_off', channel=4, note=53, velocity=95, time=0),
    Message('note_on', channel=4, note=65, velocity=95, time=0),
    Message('note_on', channel=4, note=60, velocity=95, time=0),
    Message('note_on', channel=4, note=53, velocity=95, time=0),
    Message('note_off', channel=4, note=65, velocity=95, time=480),
    Message('note_off', channel=4, note=60, velocity=95, time=0),
    Message('note_off', channel=4, note=53, velocity=95, time=0),
    Message('note_on', channel=4, note=65, velocity=95, time=0),
    Message('note_on', channel=4, note=60, velocity=95, time=0),
    Message('note_on', channel=4, note=53, velocity=95, time=0),
    Message('note_off', channel=4, note=65, velocity=95, time=1920),
    Message('note_off', channel=4, note=60, velocity=95, time=0),
    Message('note_off', channel=4, note=53, velocity=95, time=0),
    Message('note_on', channel=4, note=65, velocity=95, time=0),
    Message('note_on', channel=4, note=60, velocity=95, time=0),
    Message('note_on', channel=4, note=53, velocity=95, time=0),
    Message('note_off', channel=4, note=65, velocity=95, time=960),
    Message('note_off', channel=4, note=60, velocity=95, time=0),
    Message('note_off', channel=4, note=53, velocity=95, time=0),
    Message('note_on', channel=4, note=62, velocity=95, time=0),
    Message('note_on', channel=4, note=57, velocity=95, time=0),
    Message('note_on', channel=4, note=50, velocity=95, time=0),
    Message('note_off', channel=4, note=62, velocity=95, time=1440),
    Message('note_off', channel=4, note=57, velocity=95, time=0),
    Message('note_off', channel=4, note=50, velocity=95, time=0),
    Message('note_on', channel=4, note=64, velocity=95, time=0),
    Message('note_on', channel=4, note=59, velocity=95, time=0),
    Message('note_on', channel=4, note=52, velocity=95, time=0),
    Message('note_off', channel=4, note=64, velocity=95, time=1440),
    Message('note_off', channel=4, note=59, velocity=95, time=0),
    Message('note_off', channel=4, note=52, velocity=95, time=0),
    Message('note_on', channel=4, note=65, velocity=95, time=0),
    Message('note_on', channel=4, note=60, velocity=95, time=0),
    Message('note_on', channel=4, note=53, velocity=95, time=0),
    Message('note_off', channel=4, note=65, velocity=95, time=960),
    Message('note_off', channel=4, note=60, velocity=95, time=0),
    Message('note_off', channel=4, note=53, velocity=95, time=0),
    Message('note_on', channel=4, note=57, velocity=95, time=0),
    Message('note_on', channel=4, note=52, velocity=95, time=0),
    Message('note_on', channel=4, note=45, velocity=95, time=0),
    Message('note_off', channel=4, note=57, velocity=95, time=4320),
    Message('note_off', channel=4, note=52, velocity=95, time=0),
    Message('note_off', channel=4, note=45, velocity=95, time=0),
    Message('note_on', channel=4, note=69, velocity=95, time=0),
    Message('note_off', channel=4, note=69, velocity=95, time=480),
    Message('note_on', channel=4, note=69, velocity=95, time=480),
    Message('note_on', channel=4, note=64, velocity=95, time=0),
    Message('note_off', channel=4, note=69, velocity=95, time=1440),
    Message('note_off', channel=4, note=64, velocity=95, time=0),
    Message('note_on', channel=4, note=45, velocity=95, time=60960),
    Message('note_off', channel=4, note=45, velocity=95, time=480),
    Message('note_on', channel=4, note=50, velocity=95, time=0),
    Message('note_off', channel=4, note=50, velocity=95, time=240),
    Message('note_on', channel=4, note=52, velocity=95, time=0),
    Message('note_off', channel=4, note=52, velocity=95, time=240),
    Message('note_on', channel=4, note=45, velocity=95, time=0),
    Message('note_off', channel=4, note=45, velocity=95, time=480),
    Message('note_on', channel=4, note=64, velocity=95, time=0),
    Message('note_on', channel=4, note=57, velocity=95, time=0),
    Message('note_off', channel=4, note=64, velocity=95, time=960),
    Message('note_off', channel=4, note=57, velocity=95, time=0),
    Message('note_on', channel=4, note=45, velocity=95, time=0),
    Message('note_off', channel=4, note=45, velocity=95, time=480),
    Message('note_on', channel=4, note=62, velocity=95, time=0),
    Message('note_on', channel=4, note=55, velocity=95, time=0),
    Message('note_off', channel=4, note=62, velocity=95, time=1920),
    Message('note_off', channel=4, note=55, velocity=95, time=0),
    Message('note_on', channel=4, note=45, velocity=95, time=0),
    Message('note_off', channel=4, note=45, velocity=95, time=480),
    Message('note_on', channel=4, note=62, velocity=95, time=0),
    Message('note_on', channel=4, note=54, velocity=95, time=0),
    Message('note_off', channel=4, note=62, velocity=95, time=2400),
    Message('note_off', channel=4, note=54, velocity=95, time=0),
    Message('note_on', channel=4, note=45, velocity=95, time=0),
    Message('note_off', channel=4, note=45, velocity=95, time=480),
    Message('note_on', channel=4, note=50, velocity=95, time=0),
    Message('note_off', channel=4, note=50, velocity=95, time=240),
    Message('note_on', channel=4, note=52, velocity=70, time=0),
    Message('note_off', channel=4, note=52, velocity=70, time=240),
    Message('note_on', channel=4, note=45, velocity=95, time=0),
    Message('note_off', channel=4, note=45, velocity=95, time=480),
    Message('note_on', channel=4, note=62, velocity=95, time=0),
    Message('note_on', channel=4, note=55, velocity=95, time=0),
    Message('note_off', channel=4, note=62, velocity=95, time=960),
    Message('note_off', channel=4, note=55, velocity=95, time=0),
    Message('note_on', channel=4, note=45, velocity=95, time=0),
    Message('note_off', channel=4, note=45, velocity=95, time=480),
    Message('note_on', channel=4, note=64, velocity=95, time=0),
    Message('note_on', channel=4, note=57, velocity=95, time=0),
    Message('note_off', channel=4, note=64, velocity=95, time=4800),
    Message('note_off', channel=4, note=57, velocity=95, time=0),
    Message('note_on', channel=4, note=45, velocity=95, time=0),
    Message('note_off', channel=4, note=45, velocity=95, time=480),
    Message('note_on', channel=4, note=50, velocity=95, time=0),
    Message('note_off', channel=4, note=50, velocity=95, time=240),
    Message('note_on', channel=4, note=52, velocity=70, time=0),
    Message('note_off', channel=4, note=52, velocity=70, time=240),
    Message('note_on', channel=4, note=45, velocity=95, time=0),
    Message('note_off', channel=4, note=45, velocity=95, time=480),
    Message('note_on', channel=4, note=64, velocity=95, time=0),
    Message('note_on', channel=4, note=57, velocity=95, time=0),
    Message('note_off', channel=4, note=64, velocity=95, time=960),
    Message('note_off', channel=4, note=57, velocity=95, time=0),
    Message('note_on', channel=4, note=45, velocity=95, time=0),
    Message('note_off', channel=4, note=45, velocity=95, time=480),
    Message('note_on', channel=4, note=62, velocity=95, time=0),
    Message('note_on', channel=4, note=55, velocity=95, time=0),
    Message('note_off', channel=4, note=62, velocity=95, time=1920),
    Message('note_off', channel=4, note=55, velocity=95, time=0),
    Message('note_on', channel=4, note=45, velocity=95, time=0),
    Message('note_off', channel=4, note=45, velocity=95, time=480),
    Message('note_on', channel=4, note=62, velocity=95, time=0),
    Message('note_on', channel=4, note=54, velocity=95, time=0),
    Message('note_off', channel=4, note=62, velocity=95, time=2400),
    Message('note_off', channel=4, note=54, velocity=95, time=0),
    Message('note_on', channel=4, note=45, velocity=95, time=0),
    Message('note_off', channel=4, note=45, velocity=95, time=480),
    Message('note_on', channel=4, note=50, velocity=95, time=0),
    Message('note_off', channel=4, note=50, velocity=95, time=240),
    Message('note_on', channel=4, note=52, velocity=70, time=0),
    Message('note_off', channel=4, note=52, velocity=70, time=240),
    Message('note_on', channel=4, note=45, velocity=95, time=0),
    Message('note_off', channel=4, note=45, velocity=95, time=480),
    Message('note_on', channel=4, note=62, velocity=95, time=0),
    Message('note_on', channel=4, note=55, velocity=95, time=0),
    Message('note_off', channel=4, note=62, velocity=95, time=960),
    Message('note_off', channel=4, note=55, velocity=95, time=0),
    Message('note_on', channel=4, note=45, velocity=95, time=0),
    Message('note_off', channel=4, note=45, velocity=95, time=480),
    Message('note_on', channel=4, note=64, velocity=95, time=0),
    Message('note_on', channel=4, note=57, velocity=95, time=0),
    Message('note_off', channel=4, note=64, velocity=95, time=4800),
    Message('note_off', channel=4, note=57, velocity=95, time=0),
    Message('note_on', channel=4, note=45, velocity=95, time=0),
    Message('note_off', channel=4, note=45, velocity=95, time=480),
    Message('note_on', channel=4, note=50, velocity=95, time=0),
    Message('note_off', channel=4, note=50, velocity=95, time=240),
    Message('note_on', channel=4, note=52, velocity=70, time=0),
    Message('note_off', channel=4, note=52, velocity=70, time=240),
    Message('note_on', channel=4, note=45, velocity=95, time=0),
    Message('note_off', channel=4, note=45, velocity=95, time=480),
    Message('note_on', channel=4, note=65, velocity=95, time=0),
    Message('note_on', channel=4, note=60, velocity=95, time=0),
    Message('note_on', channel=4, note=53, velocity=95, time=0),
    Message('note_off', channel=4, note=65, velocity=95, time=480),
    Message('note_off', channel=4, note=60, velocity=95, time=0),
    Message('note_off', channel=4, note=53, velocity=95, time=0),
    Message('note_on', channel=4, note=65, velocity=95, time=0),
    Message('note_on', channel=4, note=60, velocity=95, time=0),
    Message('note_on', channel=4, note=53, velocity=95, time=0),
    Message('note_off', channel=4, note=65, velocity=95, time=480),
    Message('note_off', channel=4, note=60, velocity=95, time=0),
    Message('note_off', channel=4, note=53, velocity=95, time=0),
    Message('note_on', channel=4, note=65, velocity=95, time=0),
    Message('note_on', channel=4, note=60, velocity=95, time=0),
    Message('note_on', channel=4, note=53, velocity=95, time=0),
    Message('note_off', channel=4, note=65, velocity=95, time=2880),
    Message('note_off', channel=4, note=60, velocity=95, time=0),
    Message('note_off', channel=4, note=53, velocity=95, time=0),
    Message('note_on', channel=4, note=62, velocity=95, time=0),
    Message('note_on', channel=4, note=57, velocity=95, time=0),
    Message('note_on', channel=4, note=50, velocity=95, time=0),
    Message('note_off', channel=4, note=62, velocity=95, time=1440),
    Message('note_off', channel=4, note=57, velocity=95, time=0),
    Message('note_off', channel=4, note=50, velocity=95, time=0),
    Message('note_on', channel=4, note=64, velocity=95, time=0),
    Message('note_on', channel=4, note=59, velocity=95, time=0),
    Message('note_on', channel=4, note=52, velocity=95, time=0),
    Message('note_off', channel=4, note=64, velocity=95, time=1440),
    Message('note_off', channel=4, note=59, velocity=95, time=0),
    Message('note_off', channel=4, note=52, velocity=95, time=0),
    Message('note_on', channel=4, note=65, velocity=95, time=0),
    Message('note_on', channel=4, note=60, velocity=95, time=0),
    Message('note_on', channel=4, note=53, velocity=95, time=0),
    Message('note_off', channel=4, note=65, velocity=95, time=960),
    Message('note_off', channel=4, note=60, velocity=95, time=0),
    Message('note_off', channel=4, note=53, velocity=95, time=0),
    Message('note_on', channel=4, note=57, velocity=95, time=0),
    Message('note_on', channel=4, note=52, velocity=95, time=0),
    Message('note_on', channel=4, note=45, velocity=95, time=0),
    Message('note_off', channel=4, note=57, velocity=95, time=3840),
    Message('note_off', channel=4, note=52, velocity=95, time=0),
    Message('note_off', channel=4, note=45, velocity=95, time=0),
    Message('note_on', channel=4, note=57, velocity=95, time=0),
    Message('note_on', channel=4, note=52, velocity=95, time=0),
    Message('note_on', channel=4, note=45, velocity=95, time=0),
    Message('note_off', channel=4, note=57, velocity=95, time=2400),
    Message('note_off', channel=4, note=52, velocity=95, time=0),
    Message('note_off', channel=4, note=45, velocity=95, time=0),
    Message('note_on', channel=4, note=45, velocity=95, time=0),
    Message('note_off', channel=4, note=45, velocity=95, time=480),
    Message('note_on', channel=4, note=50, velocity=95, time=0),
    Message('note_off', channel=4, note=50, velocity=95, time=240),
    Message('note_on', channel=4, note=52, velocity=70, time=0),
    Message('note_off', channel=4, note=52, velocity=70, time=240),
    Message('note_on', channel=4, note=45, velocity=95, time=0),
    Message('note_off', channel=4, note=45, velocity=95, time=480),
    Message('note_on', channel=4, note=65, velocity=95, time=0),
    Message('note_on', channel=4, note=60, velocity=95, time=0),
    Message('note_on', channel=4, note=53, velocity=95, time=0),
    Message('note_off', channel=4, note=65, velocity=95, time=480),
    Message('note_off', channel=4, note=60, velocity=95, time=0),
    Message('note_off', channel=4, note=53, velocity=95, time=0),
    Message('note_on', channel=4, note=65, velocity=95, time=0),
    Message('note_on', channel=4, note=60, velocity=95, time=0),
    Message('note_on', channel=4, note=53, velocity=95, time=0),
    Message('note_off', channel=4, note=65, velocity=95, time=480),
    Message('note_off', channel=4, note=60, velocity=95, time=0),
    Message('note_off', channel=4, note=53, velocity=95, time=0),
    Message('note_on', channel=4, note=65, velocity=95, time=0),
    Message('note_on', channel=4, note=60, velocity=95, time=0),
    Message('note_on', channel=4, note=53, velocity=95, time=0),
    Message('note_off', channel=4, note=65, velocity=95, time=1920),
    Message('note_off', channel=4, note=60, velocity=95, time=0),
    Message('note_off', channel=4, note=53, velocity=95, time=0),
    Message('note_on', channel=4, note=65, velocity=95, time=0),
    Message('note_on', channel=4, note=60, velocity=95, time=0),
    Message('note_on', channel=4, note=53, velocity=95, time=0),
    Message('note_off', channel=4, note=65, velocity=95, time=960),
    Message('note_off', channel=4, note=60, velocity=95, time=0),
    Message('note_off', channel=4, note=53, velocity=95, time=0),
    Message('note_on', channel=4, note=62, velocity=95, time=0),
    Message('note_on', channel=4, note=57, velocity=95, time=0),
    Message('note_on', channel=4, note=50, velocity=95, time=0),
    Message('note_off', channel=4, note=62, velocity=95, time=1440),
    Message('note_off', channel=4, note=57, velocity=95, time=0),
    Message('note_off', channel=4, note=50, velocity=95, time=0),
    Message('note_on', channel=4, note=64, velocity=95, time=0),
    Message('note_on', channel=4, note=59, velocity=95, time=0),
    Message('note_on', channel=4, note=52, velocity=95, time=0),
    Message('note_off', channel=4, note=64, velocity=95, time=1440),
    Message('note_off', channel=4, note=59, velocity=95, time=0),
    Message('note_off', channel=4, note=52, velocity=95, time=0),
    Message('note_on', channel=4, note=65, velocity=95, time=0),
    Message('note_on', channel=4, note=60, velocity=95, time=0),
    Message('note_on', channel=4, note=53, velocity=95, time=0),
    Message('note_off', channel=4, note=65, velocity=95, time=960),
    Message('note_off', channel=4, note=60, velocity=95, time=0),
    Message('note_off', channel=4, note=53, velocity=95, time=0),
    Message('note_on', channel=4, note=57, velocity=95, time=0),
    Message('note_on', channel=4, note=52, velocity=95, time=0),
    Message('note_on', channel=4, note=45, velocity=95, time=0),
    Message('note_off', channel=4, note=57, velocity=95, time=4320),
    Message('note_off', channel=4, note=52, velocity=95, time=0),
    Message('note_off', channel=4, note=45, velocity=95, time=0),
    Message('note_on', channel=4, note=69, velocity=95, time=0),
    Message('note_off', channel=4, note=69, velocity=95, time=480),
    Message('note_on', channel=4, note=69, velocity=95, time=480),
    Message('note_on', channel=4, note=64, velocity=95, time=0),
    Message('note_off', channel=4, note=69, velocity=95, time=1440),
    Message('note_off', channel=4, note=64, velocity=95, time=0),
    Message('note_on', channel=4, note=65, velocity=95, time=960),
    Message('note_on', channel=4, note=60, velocity=95, time=0),
    Message('note_on', channel=4, note=53, velocity=95, time=0),
    Message('note_off', channel=4, note=65, velocity=95, time=480),
    Message('note_off', channel=4, note=60, velocity=95, time=0),
    Message('note_off', channel=4, note=53, velocity=95, time=0),
    Message('note_on', channel=4, note=65, velocity=95, time=0),
    Message('note_on', channel=4, note=60, velocity=95, time=0),
    Message('note_on', channel=4, note=53, velocity=95, time=0),
    Message('note_off', channel=4, note=65, velocity=95, time=480),
    Message('note_off', channel=4, note=60, velocity=95, time=0),
    Message('note_off', channel=4, note=53, velocity=95, time=0),
    Message('note_on', channel=4, note=65, velocity=95, time=0),
    Message('note_on', channel=4, note=60, velocity=95, time=0),
    Message('note_on', channel=4, note=53, velocity=95, time=0),
    Message('note_off', channel=4, note=65, velocity=95, time=2880),
    Message('note_off', channel=4, note=60, velocity=95, time=0),
    Message('note_off', channel=4, note=53, velocity=95, time=0),
    Message('note_on', channel=4, note=62, velocity=95, time=0),
    Message('note_on', channel=4, note=57, velocity=95, time=0),
    Message('note_on', channel=4, note=50, velocity=95, time=0),
    Message('note_off', channel=4, note=62, velocity=95, time=1440),
    Message('note_off', channel=4, note=57, velocity=95, time=0),
    Message('note_off', channel=4, note=50, velocity=95, time=0),
    Message('note_on', channel=4, note=64, velocity=95, time=0),
    Message('note_on', channel=4, note=59, velocity=95, time=0),
    Message('note_on', channel=4, note=52, velocity=95, time=0),
    Message('note_off', channel=4, note=64, velocity=95, time=1440),
    Message('note_off', channel=4, note=59, velocity=95, time=0),
    Message('note_off', channel=4, note=52, velocity=95, time=0),
    Message('note_on', channel=4, note=60, velocity=95, time=0),
    Message('note_on', channel=4, note=55, velocity=95, time=0),
    Message('note_on', channel=4, note=48, velocity=95, time=0),
    Message('note_off', channel=4, note=60, velocity=95, time=960),
    Message('note_off', channel=4, note=55, velocity=95, time=0),
    Message('note_off', channel=4, note=48, velocity=95, time=0),
    Message('note_on', channel=4, note=57, velocity=95, time=0),
    Message('note_on', channel=4, note=52, velocity=95, time=0),
    Message('note_on', channel=4, note=45, velocity=95, time=0),
    Message('note_off', channel=4, note=57, velocity=95, time=3840),
    Message('note_off', channel=4, note=52, velocity=95, time=0),
    Message('note_off', channel=4, note=45, velocity=95, time=0),
    Message('note_on', channel=4, note=57, velocity=95, time=0),
    Message('note_on', channel=4, note=52, velocity=95, time=0),
    Message('note_on', channel=4, note=45, velocity=95, time=0),
    Message('note_off', channel=4, note=57, velocity=95, time=2400),
    Message('note_off', channel=4, note=52, velocity=95, time=0),
    Message('note_off', channel=4, note=45, velocity=95, time=0),
    Message('note_on', channel=4, note=45, velocity=95, time=0),
    Message('note_off', channel=4, note=45, velocity=95, time=480),
    Message('note_on', channel=4, note=50, velocity=95, time=0),
    Message('note_off', channel=4, note=50, velocity=95, time=240),
    Message('note_on', channel=4, note=52, velocity=70, time=0),
    Message('note_off', channel=4, note=52, velocity=70, time=240),
    Message('note_on', channel=4, note=45, velocity=95, time=0),
    Message('note_off', channel=4, note=45, velocity=95, time=480),
    Message('note_on', channel=4, note=57, velocity=95, time=0),
    Message('note_off', channel=4, note=57, velocity=95, time=720),
    Message('note_on', channel=4, note=45, velocity=95, time=0),
    Message('note_off', channel=4, note=45, velocity=95, time=240),
    Message('note_on', channel=4, note=45, velocity=95, time=0),
    Message('note_off', channel=4, note=45, velocity=95, time=480),
    Message('note_on', channel=4, note=55, velocity=95, time=0),
    Message('note_off', channel=4, note=55, velocity=95, time=960),
    Message('note_on', channel=4, note=45, velocity=95, time=0),
    Message('note_off', channel=4, note=45, velocity=95, time=480),
    Message('note_on', channel=4, note=50, velocity=95, time=0),
    Message('note_off', channel=4, note=50, velocity=95, time=240),
    Message('note_on', channel=4, note=52, velocity=70, time=0),
    Message('note_off', channel=4, note=52, velocity=70, time=240),
    Message('note_on', channel=4, note=45, velocity=95, time=0),
    Message('note_off', channel=4, note=45, velocity=95, time=480),
    Message('note_on', channel=4, note=57, velocity=95, time=0),
    Message('note_off', channel=4, note=57, velocity=95, time=480),
    Message('note_on', channel=4, note=45, velocity=95, time=0),
    Message('note_off', channel=4, note=45, velocity=95, time=480),
    Message('note_on', channel=4, note=50, velocity=95, time=0),
    Message('note_off', channel=4, note=50, velocity=95, time=240),
    Message('note_on', channel=4, note=52, velocity=70, time=0),
    Message('note_off', channel=4, note=52, velocity=70, time=240),
    Message('note_on', channel=4, note=55, velocity=95, time=0),
    Message('note_off', channel=4, note=55, velocity=95, time=960),
    Message('note_on', channel=4, note=45, velocity=95, time=0),
    Message('note_off', channel=4, note=45, velocity=95, time=480),
    Message('note_on', channel=4, note=50, velocity=95, time=0),
    Message('note_off', channel=4, note=50, velocity=95, time=240),
    Message('note_on', channel=4, note=52, velocity=70, time=0),
    Message('note_off', channel=4, note=52, velocity=70, time=240),
    Message('note_on', channel=4, note=45, velocity=95, time=0),
    Message('note_off', channel=4, note=45, velocity=95, time=480),
    Message('note_on', channel=4, note=57, velocity=95, time=0),
    Message('note_off', channel=4, note=57, velocity=95, time=720),
    Message('note_on', channel=4, note=45, velocity=95, time=0),
    Message('note_off', channel=4, note=45, velocity=95, time=240),
    Message('note_on', channel=4, note=45, velocity=95, time=0),
    Message('note_off', channel=4, note=45, velocity=95, time=480),
    Message('note_on', channel=4, note=55, velocity=95, time=0),
    Message('note_off', channel=4, note=55, velocity=95, time=960),
    Message('note_on', channel=4, note=45, velocity=95, time=0),
    Message('note_off', channel=4, note=45, velocity=95, time=480),
    Message('note_on', channel=4, note=50, velocity=95, time=0),
    Message('note_off', channel=4, note=50, velocity=95, time=240),
    Message('note_on', channel=4, note=52, velocity=70, time=0),
    Message('note_off', channel=4, note=52, velocity=70, time=240),
    Message('note_on', channel=4, note=45, velocity=95, time=0),
    Message('note_off', channel=4, note=45, velocity=95, time=480),
    Message('note_on', channel=4, note=57, velocity=95, time=0),
    Message('note_off', channel=4, note=57, velocity=95, time=480),
    Message('note_on', channel=4, note=45, velocity=95, time=0),
    Message('note_off', channel=4, note=45, velocity=95, time=240),
    Message('note_on', channel=5, note=49, velocity=95, time=0),
    Message('pitchwheel', channel=5, pitch=256, time=120),
    Message('pitchwheel', channel=5, pitch=640, time=120),
    Message('pitchwheel', channel=5, pitch=0, time=0),
    Message('note_off', channel=5, note=49, velocity=95, time=0),
    Message('note_on', channel=4, note=50, velocity=95, time=0),
    Message('note_off', channel=4, note=50, velocity=95, time=240),
    Message('note_on', channel=4, note=52, velocity=70, time=0),
    Message('note_off', channel=4, note=52, velocity=70, time=240),
    Message('note_on', channel=4, note=55, velocity=95, time=0),
    Message('note_off', channel=4, note=55, velocity=95, time=960),
    Message('note_on', channel=4, note=45, velocity=95, time=0),
    Message('note_off', channel=4, note=45, velocity=95, time=480),
    Message('note_on', channel=4, note=50, velocity=95, time=0),
    Message('note_off', channel=4, note=50, velocity=95, time=240),
    Message('note_on', channel=4, note=52, velocity=70, time=0),
    Message('note_off', channel=4, note=52, velocity=70, time=240),
    Message('note_on', channel=4, note=45, velocity=95, time=0),
    Message('note_off', channel=4, note=45, velocity=95, time=480),
    Message('note_on', channel=4, note=57, velocity=95, time=0),
    Message('note_off', channel=4, note=57, velocity=95, time=720),
    Message('note_on', channel=4, note=45, velocity=95, time=0),
    Message('note_off', channel=4, note=45, velocity=95, time=240),
    Message('note_on', channel=4, note=45, velocity=95, time=0),
    Message('note_off', channel=4, note=45, velocity=95, time=480),
    Message('note_on', channel=4, note=55, velocity=95, time=0),
    Message('note_off', channel=4, note=55, velocity=95, time=960),
    Message('note_on', channel=4, note=45, velocity=95, time=0),
    Message('note_off', channel=4, note=45, velocity=95, time=480),
    Message('note_on', channel=4, note=50, velocity=95, time=0),
    Message('note_off', channel=4, note=50, velocity=95, time=240),
    Message('note_on', channel=4, note=52, velocity=70, time=0),
    Message('note_off', channel=4, note=52, velocity=70, time=240),
    Message('note_on', channel=4, note=45, velocity=95, time=0),
    Message('note_off', channel=4, note=45, velocity=95, time=480),
    Message('note_on', channel=4, note=57, velocity=95, time=0),
    Message('note_off', channel=4, note=57, velocity=95, time=480),
    Message('note_on', channel=4, note=45, velocity=95, time=0),
    Message('note_off', channel=4, note=45, velocity=95, time=480),
    Message('note_on', channel=4, note=50, velocity=95, time=0),
    Message('note_off', channel=4, note=50, velocity=95, time=240),
    Message('note_on', channel=4, note=52, velocity=70, time=0),
    Message('note_off', channel=4, note=52, velocity=70, time=240),
    Message('note_on', channel=4, note=55, velocity=95, time=0),
    Message('note_off', channel=4, note=55, velocity=95, time=960),
    Message('note_on', channel=4, note=45, velocity=95, time=0),
    Message('note_off', channel=4, note=45, velocity=95, time=480),
    Message('note_on', channel=4, note=50, velocity=95, time=0),
    Message('note_off', channel=4, note=50, velocity=95, time=240),
    Message('note_on', channel=4, note=52, velocity=70, time=0),
    Message('note_off', channel=4, note=52, velocity=70, time=240),
    Message('note_on', channel=4, note=45, velocity=95, time=0),
    Message('note_off', channel=4, note=45, velocity=95, time=480),
    Message('note_on', channel=4, note=57, velocity=95, time=0),
    Message('note_off', channel=4, note=57, velocity=95, time=480),
    Message('note_on', channel=4, note=45, velocity=95, time=0),
    Message('note_off', channel=4, note=45, velocity=95, time=240),
    Message('note_on', channel=5, note=49, velocity=95, time=0),
    Message('pitchwheel', channel=5, pitch=256, time=120),
    Message('pitchwheel', channel=5, pitch=640, time=120),
    Message('pitchwheel', channel=5, pitch=0, time=0),
    Message('note_off', channel=5, note=49, velocity=95, time=0),
    Message('note_on', channel=4, note=50, velocity=95, time=0),
    Message('note_off', channel=4, note=50, velocity=95, time=240),
    Message('note_on', channel=4, note=52, velocity=70, time=0),
    Message('note_off', channel=4, note=52, velocity=70, time=240),
    Message('note_on', channel=4, note=55, velocity=95, time=0),
    Message('note_off', channel=4, note=55, velocity=95, time=960),
    Message('note_on', channel=4, note=45, velocity=95, time=0),
    Message('note_off', channel=4, note=45, velocity=95, time=480),
    Message('note_on', channel=4, note=50, velocity=95, time=0),
    Message('note_off', channel=4, note=50, velocity=95, time=240),
    Message('note_on', channel=4, note=52, velocity=70, time=0),
    Message('note_off', channel=4, note=52, velocity=70, time=240),
    Message('note_on', channel=4, note=45, velocity=95, time=0),
    Message('note_off', channel=4, note=45, velocity=95, time=480),
    Message('note_on', channel=4, note=45, velocity=95, time=0),
    Message('note_off', channel=4, note=45, velocity=95, time=480),
    Message('note_on', channel=4, note=45, velocity=95, time=0),
    Message('note_off', channel=4, note=45, velocity=95, time=480),
    Message('note_on', channel=4, note=45, velocity=95, time=0),
    Message('note_off', channel=4, note=45, velocity=95, time=480),
    Message('note_on', channel=4, note=45, velocity=95, time=0),
    Message('note_off', channel=4, note=45, velocity=95, time=480),
    Message('note_on', channel=4, note=45, velocity=95, time=0),
    Message('note_off', channel=4, note=45, velocity=95, time=480),
    Message('note_on', channel=4, note=45, velocity=95, time=0),
    Message('note_off', channel=4, note=45, velocity=95, time=480),
    Message('note_on', channel=4, note=50, velocity=95, time=0),
    Message('note_off', channel=4, note=50, velocity=95, time=240),
    Message('note_on', channel=4, note=52, velocity=70, time=0),
    Message('note_off', channel=4, note=52, velocity=70, time=240),
    Message('note_on', channel=4, note=55, velocity=95, time=0),
    Message('note_off', channel=4, note=55, velocity=95, time=480),
    Message('note_on', channel=4, note=65, velocity=95, time=0),
    Message('note_on', channel=4, note=60, velocity=95, time=0),
    Message('note_on', channel=4, note=53, velocity=95, time=0),
    Message('note_off', channel=4, note=65, velocity=95, time=480),
    Message('note_off', channel=4, note=60, velocity=95, time=0),
    Message('note_off', channel=4, note=53, velocity=95, time=0),
    Message('note_on', channel=4, note=65, velocity=95, time=0),
    Message('note_on', channel=4, note=60, velocity=95, time=0),
    Message('note_on', channel=4, note=53, velocity=95, time=0),
    Message('note_off', channel=4, note=65, velocity=95, time=480),
    Message('note_off', channel=4, note=60, velocity=95, time=0),
    Message('note_off', channel=4, note=53, velocity=95, time=0),
    Message('note_on', channel=4, note=65, velocity=95, time=0),
    Message('note_on', channel=4, note=60, velocity=95, time=0),
    Message('note_on', channel=4, note=53, velocity=95, time=0),
    Message('note_off', channel=4, note=65, velocity=95, time=2880),
    Message('note_off', channel=4, note=60, velocity=95, time=0),
    Message('note_off', channel=4, note=53, velocity=95, time=0),
    Message('note_on', channel=4, note=62, velocity=95, time=0),
    Message('note_on', channel=4, note=57, velocity=95, time=0),
    Message('note_on', channel=4, note=50, velocity=95, time=0),
    Message('note_off', channel=4, note=62, velocity=95, time=1440),
    Message('note_off', channel=4, note=57, velocity=95, time=0),
    Message('note_off', channel=4, note=50, velocity=95, time=0),
    Message('note_on', channel=4, note=64, velocity=95, time=0),
    Message('note_on', channel=4, note=59, velocity=95, time=0),
    Message('note_on', channel=4, note=52, velocity=95, time=0),
    Message('note_off', channel=4, note=64, velocity=95, time=1440),
    Message('note_off', channel=4, note=59, velocity=95, time=0),
    Message('note_off', channel=4, note=52, velocity=95, time=0),
    Message('note_on', channel=4, note=65, velocity=95, time=0),
    Message('note_on', channel=4, note=60, velocity=95, time=0),
    Message('note_on', channel=4, note=53, velocity=95, time=0),
    Message('note_off', channel=4, note=65, velocity=95, time=960),
    Message('note_off', channel=4, note=60, velocity=95, time=0),
    Message('note_off', channel=4, note=53, velocity=95, time=0),
    Message('note_on', channel=4, note=57, velocity=95, time=0),
    Message('note_on', channel=4, note=52, velocity=95, time=0),
    Message('note_on', channel=4, note=45, velocity=95, time=0),
    Message('note_off', channel=4, note=57, velocity=95, time=3840),
    Message('note_off', channel=4, note=52, velocity=95, time=0),
    Message('note_off', channel=4, note=45, velocity=95, time=0),
    Message('note_on', channel=4, note=57, velocity=95, time=0),
    Message('note_on', channel=4, note=52, velocity=95, time=0),
    Message('note_on', channel=4, note=45, velocity=95, time=0),
    Message('note_off', channel=4, note=57, velocity=95, time=2400),
    Message('note_off', channel=4, note=52, velocity=95, time=0),
    Message('note_off', channel=4, note=45, velocity=95, time=0),
    Message('note_on', channel=4, note=45, velocity=95, time=0),
    Message('note_off', channel=4, note=45, velocity=95, time=480),
    Message('note_on', channel=4, note=50, velocity=95, time=0),
    Message('note_off', channel=4, note=50, velocity=95, time=240),
    Message('note_on', channel=4, note=52, velocity=70, time=0),
    Message('note_off', channel=4, note=52, velocity=70, time=240),
    Message('note_on', channel=4, note=45, velocity=95, time=0),
    Message('note_off', channel=4, note=45, velocity=95, time=480),
    Message('note_on', channel=4, note=65, velocity=95, time=0),
    Message('note_on', channel=4, note=60, velocity=95, time=0),
    Message('note_on', channel=4, note=53, velocity=95, time=0),
    Message('note_off', channel=4, note=65, velocity=95, time=480),
    Message('note_off', channel=4, note=60, velocity=95, time=0),
    Message('note_off', channel=4, note=53, velocity=95, time=0),
    Message('note_on', channel=4, note=65, velocity=95, time=0),
    Message('note_on', channel=4, note=60, velocity=95, time=0),
    Message('note_on', channel=4, note=53, velocity=95, time=0),
    Message('note_off', channel=4, note=65, velocity=95, time=480),
    Message('note_off', channel=4, note=60, velocity=95, time=0),
    Message('note_off', channel=4, note=53, velocity=95, time=0),
    Message('note_on', channel=4, note=65, velocity=95, time=0),
    Message('note_on', channel=4, note=60, velocity=95, time=0),
    Message('note_on', channel=4, note=53, velocity=95, time=0),
    Message('note_off', channel=4, note=65, velocity=95, time=1920),
    Message('note_off', channel=4, note=60, velocity=95, time=0),
    Message('note_off', channel=4, note=53, velocity=95, time=0),
    Message('note_on', channel=4, note=65, velocity=95, time=0),
    Message('note_on', channel=4, note=60, velocity=95, time=0),
    Message('note_on', channel=4, note=53, velocity=95, time=0),
    Message('note_off', channel=4, note=65, velocity=95, time=960),
    Message('note_off', channel=4, note=60, velocity=95, time=0),
    Message('note_off', channel=4, note=53, velocity=95, time=0),
    Message('note_on', channel=4, note=62, velocity=95, time=0),
    Message('note_on', channel=4, note=57, velocity=95, time=0),
    Message('note_on', channel=4, note=50, velocity=95, time=0),
    Message('note_off', channel=4, note=62, velocity=95, time=1440),
    Message('note_off', channel=4, note=57, velocity=95, time=0),
    Message('note_off', channel=4, note=50, velocity=95, time=0),
    Message('note_on', channel=4, note=64, velocity=95, time=0),
    Message('note_on', channel=4, note=59, velocity=95, time=0),
    Message('note_on', channel=4, note=52, velocity=95, time=0),
    Message('note_off', channel=4, note=64, velocity=95, time=1440),
    Message('note_off', channel=4, note=59, velocity=95, time=0),
    Message('note_off', channel=4, note=52, velocity=95, time=0),
    Message('note_on', channel=4, note=65, velocity=95, time=0),
    Message('note_on', channel=4, note=60, velocity=95, time=0),
    Message('note_on', channel=4, note=53, velocity=95, time=0),
    Message('note_off', channel=4, note=65, velocity=95, time=960),
    Message('note_off', channel=4, note=60, velocity=95, time=0),
    Message('note_off', channel=4, note=53, velocity=95, time=0),
    Message('note_on', channel=4, note=57, velocity=95, time=0),
    Message('note_on', channel=4, note=52, velocity=95, time=0),
    Message('note_on', channel=4, note=45, velocity=95, time=0),
    Message('note_off', channel=4, note=57, velocity=95, time=4320),
    Message('note_off', channel=4, note=52, velocity=95, time=0),
    Message('note_off', channel=4, note=45, velocity=95, time=0),
    Message('note_on', channel=4, note=69, velocity=95, time=0),
    Message('note_off', channel=4, note=69, velocity=95, time=480),
    Message('note_on', channel=4, note=69, velocity=95, time=480),
    Message('note_on', channel=4, note=64, velocity=95, time=0),
    Message('note_off', channel=4, note=69, velocity=95, time=1440),
    Message('note_off', channel=4, note=64, velocity=95, time=0),
    Message('note_on', channel=4, note=65, velocity=95, time=960),
    Message('note_on', channel=4, note=60, velocity=95, time=0),
    Message('note_on', channel=4, note=53, velocity=95, time=0),
    Message('note_off', channel=4, note=65, velocity=95, time=480),
    Message('note_off', channel=4, note=60, velocity=95, time=0),
    Message('note_off', channel=4, note=53, velocity=95, time=0),
    Message('note_on', channel=4, note=65, velocity=95, time=0),
    Message('note_on', channel=4, note=60, velocity=95, time=0),
    Message('note_on', channel=4, note=53, velocity=95, time=0),
    Message('note_off', channel=4, note=65, velocity=95, time=480),
    Message('note_off', channel=4, note=60, velocity=95, time=0),
    Message('note_off', channel=4, note=53, velocity=95, time=0),
    Message('note_on', channel=4, note=65, velocity=95, time=0),
    Message('note_on', channel=4, note=60, velocity=95, time=0),
    Message('note_on', channel=4, note=53, velocity=95, time=0),
    Message('note_off', channel=4, note=65, velocity=95, time=2880),
    Message('note_off', channel=4, note=60, velocity=95, time=0),
    Message('note_off', channel=4, note=53, velocity=95, time=0),
    Message('note_on', channel=4, note=62, velocity=95, time=0),
    Message('note_on', channel=4, note=57, velocity=95, time=0),
    Message('note_on', channel=4, note=50, velocity=95, time=0),
    Message('note_off', channel=4, note=62, velocity=95, time=1440),
    Message('note_off', channel=4, note=57, velocity=95, time=0),
    Message('note_off', channel=4, note=50, velocity=95, time=0),
    Message('note_on', channel=4, note=64, velocity=95, time=0),
    Message('note_on', channel=4, note=59, velocity=95, time=0),
    Message('note_on', channel=4, note=52, velocity=95, time=0),
    Message('note_off', channel=4, note=64, velocity=95, time=1440),
    Message('note_off', channel=4, note=59, velocity=95, time=0),
    Message('note_off', channel=4, note=52, velocity=95, time=0),
    Message('note_on', channel=4, note=65, velocity=95, time=0),
    Message('note_on', channel=4, note=60, velocity=95, time=0),
    Message('note_on', channel=4, note=53, velocity=95, time=0),
    Message('note_off', channel=4, note=65, velocity=95, time=960),
    Message('note_off', channel=4, note=60, velocity=95, time=0),
    Message('note_off', channel=4, note=53, velocity=95, time=0),
    Message('note_on', channel=4, note=57, velocity=95, time=0),
    Message('note_on', channel=4, note=52, velocity=95, time=0),
    Message('note_on', channel=4, note=45, velocity=95, time=0),
    Message('note_off', channel=4, note=57, velocity=95, time=3840),
    Message('note_off', channel=4, note=52, velocity=95, time=0),
    Message('note_off', channel=4, note=45, velocity=95, time=0),
    Message('note_on', channel=4, note=57, velocity=95, time=0),
    Message('note_on', channel=4, note=52, velocity=95, time=0),
    Message('note_on', channel=4, note=45, velocity=95, time=0),
    Message('note_off', channel=4, note=57, velocity=95, time=2400),
    Message('note_off', channel=4, note=52, velocity=95, time=0),
    Message('note_off', channel=4, note=45, velocity=95, time=0),
    Message('note_on', channel=4, note=45, velocity=95, time=0),
    Message('note_off', channel=4, note=45, velocity=95, time=480),
    Message('note_on', channel=4, note=50, velocity=95, time=0),
    Message('note_off', channel=4, note=50, velocity=95, time=240),
    Message('note_on', channel=4, note=52, velocity=70, time=0),
    Message('note_off', channel=4, note=52, velocity=70, time=240),
    Message('note_on', channel=4, note=45, velocity=95, time=0),
    Message('note_off', channel=4, note=45, velocity=95, time=480),
    Message('note_on', channel=4, note=65, velocity=95, time=0),
    Message('note_on', channel=4, note=60, velocity=95, time=0),
    Message('note_on', channel=4, note=53, velocity=95, time=0),
    Message('note_off', channel=4, note=65, velocity=95, time=480),
    Message('note_off', channel=4, note=60, velocity=95, time=0),
    Message('note_off', channel=4, note=53, velocity=95, time=0),
    Message('note_on', channel=4, note=65, velocity=95, time=0),
    Message('note_on', channel=4, note=60, velocity=95, time=0),
    Message('note_on', channel=4, note=53, velocity=95, time=0),
    Message('note_off', channel=4, note=65, velocity=95, time=480),
    Message('note_off', channel=4, note=60, velocity=95, time=0),
    Message('note_off', channel=4, note=53, velocity=95, time=0),
    Message('note_on', channel=4, note=65, velocity=95, time=0),
    Message('note_on', channel=4, note=60, velocity=95, time=0),
    Message('note_on', channel=4, note=53, velocity=95, time=0),
    Message('note_off', channel=4, note=65, velocity=95, time=2880),
    Message('note_off', channel=4, note=60, velocity=95, time=0),
    Message('note_off', channel=4, note=53, velocity=95, time=0),
    Message('note_on', channel=4, note=62, velocity=95, time=0),
    Message('note_on', channel=4, note=57, velocity=95, time=0),
    Message('note_on', channel=4, note=50, velocity=95, time=0),
    Message('note_off', channel=4, note=62, velocity=95, time=1440),
    Message('note_off', channel=4, note=57, velocity=95, time=0),
    Message('note_off', channel=4, note=50, velocity=95, time=0),
    Message('note_on', channel=4, note=64, velocity=95, time=0),
    Message('note_on', channel=4, note=59, velocity=95, time=0),
    Message('note_on', channel=4, note=52, velocity=95, time=0),
    Message('note_off', channel=4, note=64, velocity=95, time=1440),
    Message('note_off', channel=4, note=59, velocity=95, time=0),
    Message('note_off', channel=4, note=52, velocity=95, time=0),
    Message('note_on', channel=4, note=65, velocity=95, time=0),
    Message('note_on', channel=4, note=60, velocity=95, time=0),
    Message('note_on', channel=4, note=53, velocity=95, time=0),
    Message('note_off', channel=4, note=65, velocity=95, time=960),
    Message('note_off', channel=4, note=60, velocity=95, time=0),
    Message('note_off', channel=4, note=53, velocity=95, time=0),
    Message('note_on', channel=4, note=57, velocity=95, time=0),
    Message('note_on', channel=4, note=52, velocity=95, time=0),
    Message('note_on', channel=4, note=45, velocity=95, time=0),
    Message('note_off', channel=4, note=57, velocity=95, time=3840),
    Message('note_off', channel=4, note=52, velocity=95, time=0),
    Message('note_off', channel=4, note=45, velocity=95, time=0),
    Message('note_on', channel=4, note=57, velocity=95, time=0),
    Message('note_on', channel=4, note=52, velocity=95, time=0),
    Message('note_on', channel=4, note=45, velocity=95, time=0),
    Message('note_off', channel=4, note=57, velocity=95, time=2400),
    Message('note_off', channel=4, note=52, velocity=95, time=0),
    Message('note_off', channel=4, note=45, velocity=95, time=0),
    Message('note_on', channel=4, note=45, velocity=95, time=0),
    Message('note_off', channel=4, note=45, velocity=95, time=480),
    Message('note_on', channel=4, note=50, velocity=95, time=0),
    Message('note_off', channel=4, note=50, velocity=95, time=240),
    Message('note_on', channel=4, note=52, velocity=70, time=0),
    Message('note_off', channel=4, note=52, velocity=70, time=240),
    Message('note_on', channel=4, note=45, velocity=95, time=0),
    Message('note_off', channel=4, note=45, velocity=95, time=480),
    Message('note_on', channel=4, note=53, velocity=95, time=0),
    Message('note_on', channel=4, note=48, velocity=95, time=0),
    Message('note_on', channel=4, note=41, velocity=95, time=0),
    Message('note_off', channel=4, note=53, velocity=95, time=480),
    Message('note_off', channel=4, note=48, velocity=95, time=0),
    Message('note_off', channel=4, note=41, velocity=95, time=0),
    Message('note_on', channel=4, note=53, velocity=95, time=0),
    Message('note_on', channel=4, note=48, velocity=95, time=0),
    Message('note_on', channel=4, note=41, velocity=95, time=0),
    Message('note_off', channel=4, note=53, velocity=95, time=480),
    Message('note_off', channel=4, note=48, velocity=95, time=0),
    Message('note_off', channel=4, note=41, velocity=95, time=0),
    Message('note_on', channel=4, note=53, velocity=95, time=0),
    Message('note_on', channel=4, note=48, velocity=95, time=0),
    Message('note_on', channel=4, note=41, velocity=95, time=0),
    Message('note_off', channel=4, note=53, velocity=95, time=480),
    Message('note_off', channel=4, note=48, velocity=95, time=0),
    Message('note_off', channel=4, note=41, velocity=95, time=0),
    Message('note_on', channel=4, note=53, velocity=95, time=0),
    Message('note_on', channel=4, note=48, velocity=95, time=0),
    Message('note_on', channel=4, note=41, velocity=95, time=0),
    Message('note_off', channel=4, note=53, velocity=95, time=480),
    Message('note_off', channel=4, note=48, velocity=95, time=0),
    Message('note_off', channel=4, note=41, velocity=95, time=0),
    Message('note_on', channel=4, note=53, velocity=95, time=0),
    Message('note_on', channel=4, note=48, velocity=95, time=0),
    Message('note_on', channel=4, note=41, velocity=95, time=0),
    Message('note_off', channel=4, note=53, velocity=95, time=480),
    Message('note_off', channel=4, note=48, velocity=95, time=0),
    Message('note_off', channel=4, note=41, velocity=95, time=0),
    Message('note_on', channel=4, note=53, velocity=95, time=0),
    Message('note_on', channel=4, note=48, velocity=95, time=0),
    Message('note_on', channel=4, note=41, velocity=95, time=0),
    Message('note_off', channel=4, note=53, velocity=95, time=480),
    Message('note_off', channel=4, note=48, velocity=95, time=0),
    Message('note_off', channel=4, note=41, velocity=95, time=0),
    Message('note_on', channel=4, note=53, velocity=95, time=0),
    Message('note_on', channel=4, note=48, velocity=95, time=0),
    Message('note_on', channel=4, note=41, velocity=95, time=0),
    Message('note_off', channel=4, note=53, velocity=95, time=480),
    Message('note_off', channel=4, note=48, velocity=95, time=0),
    Message('note_off', channel=4, note=41, velocity=95, time=0),
    Message('note_on', channel=4, note=53, velocity=95, time=0),
    Message('note_on', channel=4, note=48, velocity=95, time=0),
    Message('note_on', channel=4, note=41, velocity=95, time=0),
    Message('note_off', channel=4, note=53, velocity=95, time=480),
    Message('note_off', channel=4, note=48, velocity=95, time=0),
    Message('note_off', channel=4, note=41, velocity=95, time=0),
    Message('note_on', channel=4, note=55, velocity=95, time=0),
    Message('note_on', channel=4, note=50, velocity=95, time=0),
    Message('note_on', channel=4, note=43, velocity=95, time=0),
    Message('note_off', channel=4, note=55, velocity=95, time=480),
    Message('note_off', channel=4, note=50, velocity=95, time=0),
    Message('note_off', channel=4, note=43, velocity=95, time=0),
    Message('note_on', channel=4, note=55, velocity=95, time=0),
    Message('note_on', channel=4, note=50, velocity=95, time=0),
    Message('note_on', channel=4, note=43, velocity=95, time=0),
    Message('note_off', channel=4, note=55, velocity=95, time=480),
    Message('note_off', channel=4, note=50, velocity=95, time=0),
    Message('note_off', channel=4, note=43, velocity=95, time=0),
    Message('note_on', channel=4, note=55, velocity=95, time=0),
    Message('note_on', channel=4, note=50, velocity=95, time=0),
    Message('note_on', channel=4, note=43, velocity=95, time=0),
    Message('note_off', channel=4, note=55, velocity=95, time=480),
    Message('note_off', channel=4, note=50, velocity=95, time=0),
    Message('note_off', channel=4, note=43, velocity=95, time=0),
    Message('note_on', channel=4, note=55, velocity=95, time=0),
    Message('note_on', channel=4, note=50, velocity=95, time=0),
    Message('note_on', channel=4, note=43, velocity=95, time=0),
    Message('note_off', channel=4, note=55, velocity=95, time=480),
    Message('note_off', channel=4, note=50, velocity=95, time=0),
    Message('note_off', channel=4, note=43, velocity=95, time=0),
    Message('note_on', channel=4, note=55, velocity=95, time=0),
    Message('note_on', channel=4, note=50, velocity=95, time=0),
    Message('note_on', channel=4, note=43, velocity=95, time=0),
    Message('note_off', channel=4, note=55, velocity=95, time=480),
    Message('note_off', channel=4, note=50, velocity=95, time=0),
    Message('note_off', channel=4, note=43, velocity=95, time=0),
    Message('note_on', channel=4, note=55, velocity=95, time=0),
    Message('note_on', channel=4, note=50, velocity=95, time=0),
    Message('note_on', channel=4, note=43, velocity=95, time=0),
    Message('note_off', channel=4, note=55, velocity=95, time=480),
    Message('note_off', channel=4, note=50, velocity=95, time=0),
    Message('note_off', channel=4, note=43, velocity=95, time=0),
    Message('note_on', channel=4, note=55, velocity=95, time=0),
    Message('note_on', channel=4, note=50, velocity=95, time=0),
    Message('note_on', channel=4, note=43, velocity=95, time=0),
    Message('note_off', channel=4, note=55, velocity=95, time=480),
    Message('note_off', channel=4, note=50, velocity=95, time=0),
    Message('note_off', channel=4, note=43, velocity=95, time=0),
    Message('note_on', channel=4, note=55, velocity=95, time=0),
    Message('note_on', channel=4, note=50, velocity=95, time=0),
    Message('note_on', channel=4, note=43, velocity=95, time=0),
    Message('note_off', channel=4, note=55, velocity=95, time=480),
    Message('note_off', channel=4, note=50, velocity=95, time=0),
    Message('note_off', channel=4, note=43, velocity=95, time=0),
    Message('note_on', channel=4, note=57, velocity=95, time=0),
    Message('note_on', channel=4, note=52, velocity=95, time=0),
    Message('note_on', channel=4, note=45, velocity=95, time=0),
    Message('note_off', channel=4, note=57, velocity=95, time=480),
    Message('note_off', channel=4, note=52, velocity=95, time=0),
    Message('note_off', channel=4, note=45, velocity=95, time=0),
    Message('note_on', channel=4, note=57, velocity=95, time=0),
    Message('note_on', channel=4, note=52, velocity=95, time=0),
    Message('note_on', channel=4, note=45, velocity=95, time=0),
    Message('note_off', channel=4, note=57, velocity=95, time=480),
    Message('note_off', channel=4, note=52, velocity=95, time=0),
    Message('note_off', channel=4, note=45, velocity=95, time=0),
    Message('note_on', channel=4, note=57, velocity=95, time=0),
    Message('note_on', channel=4, note=52, velocity=95, time=0),
    Message('note_on', channel=4, note=45, velocity=95, time=0),
    Message('note_off', channel=4, note=57, velocity=95, time=480),
    Message('note_off', channel=4, note=52, velocity=95, time=0),
    Message('note_off', channel=4, note=45, velocity=95, time=0),
    Message('note_on', channel=4, note=57, velocity=95, time=0),
    Message('note_on', channel=4, note=52, velocity=95, time=0),
    Message('note_on', channel=4, note=45, velocity=95, time=0),
    Message('note_off', channel=4, note=57, velocity=95, time=480),
    Message('note_off', channel=4, note=52, velocity=95, time=0),
    Message('note_off', channel=4, note=45, velocity=95, time=0),
    Message('note_on', channel=4, note=57, velocity=95, time=0),
    Message('note_on', channel=4, note=52, velocity=95, time=0),
    Message('note_on', channel=4, note=45, velocity=95, time=0),
    Message('note_off', channel=4, note=57, velocity=95, time=480),
    Message('note_off', channel=4, note=52, velocity=95, time=0),
    Message('note_off', channel=4, note=45, velocity=95, time=0),
    Message('note_on', channel=4, note=57, velocity=95, time=0),
    Message('note_on', channel=4, note=52, velocity=95, time=0),
    Message('note_on', channel=4, note=45, velocity=95, time=0),
    Message('note_off', channel=4, note=57, velocity=95, time=480),
    Message('note_off', channel=4, note=52, velocity=95, time=0),
    Message('note_off', channel=4, note=45, velocity=95, time=0),
    Message('note_on', channel=4, note=57, velocity=95, time=0),
    Message('note_on', channel=4, note=52, velocity=95, time=0),
    Message('note_on', channel=4, note=45, velocity=95, time=0),
    Message('note_off', channel=4, note=57, velocity=95, time=480),
    Message('note_off', channel=4, note=52, velocity=95, time=0),
    Message('note_off', channel=4, note=45, velocity=95, time=0),
    Message('note_on', channel=4, note=57, velocity=95, time=0),
    Message('note_on', channel=4, note=52, velocity=95, time=0),
    Message('note_on', channel=4, note=45, velocity=95, time=0),
    Message('note_off', channel=4, note=57, velocity=95, time=480),
    Message('note_off', channel=4, note=52, velocity=95, time=0),
    Message('note_off', channel=4, note=45, velocity=95, time=0),
    Message('note_on', channel=4, note=57, velocity=95, time=0),
    Message('note_on', channel=4, note=52, velocity=95, time=0),
    Message('note_on', channel=4, note=45, velocity=95, time=0),
    Message('note_off', channel=4, note=57, velocity=95, time=480),
    Message('note_off', channel=4, note=52, velocity=95, time=0),
    Message('note_off', channel=4, note=45, velocity=95, time=0),
    Message('note_on', channel=4, note=57, velocity=95, time=0),
    Message('note_on', channel=4, note=52, velocity=95, time=0),
    Message('note_on', channel=4, note=45, velocity=95, time=0),
    Message('note_off', channel=4, note=57, velocity=95, time=480),
    Message('note_off', channel=4, note=52, velocity=95, time=0),
    Message('note_off', channel=4, note=45, velocity=95, time=0),
    Message('note_on', channel=4, note=57, velocity=95, time=0),
    Message('note_on', channel=4, note=52, velocity=95, time=0),
    Message('note_on', channel=4, note=45, velocity=95, time=0),
    Message('note_off', channel=4, note=57, velocity=95, time=480),
    Message('note_off', channel=4, note=52, velocity=95, time=0),
    Message('note_off', channel=4, note=45, velocity=95, time=0),
    Message('note_on', channel=4, note=57, velocity=95, time=0),
    Message('note_on', channel=4, note=52, velocity=95, time=0),
    Message('note_on', channel=4, note=45, velocity=95, time=0),
    Message('note_off', channel=4, note=57, velocity=95, time=480),
    Message('note_off', channel=4, note=52, velocity=95, time=0),
    Message('note_off', channel=4, note=45, velocity=95, time=0),
    Message('note_on', channel=4, note=57, velocity=95, time=0),
    Message('note_on', channel=4, note=52, velocity=95, time=0),
    Message('note_on', channel=4, note=45, velocity=95, time=0),
    Message('note_off', channel=4, note=57, velocity=95, time=480),
    Message('note_off', channel=4, note=52, velocity=95, time=0),
    Message('note_off', channel=4, note=45, velocity=95, time=0),
    Message('note_on', channel=4, note=57, velocity=95, time=0),
    Message('note_on', channel=4, note=52, velocity=95, time=0),
    Message('note_on', channel=4, note=45, velocity=95, time=0),
    Message('note_off', channel=4, note=57, velocity=95, time=480),
    Message('note_off', channel=4, note=52, velocity=95, time=0),
    Message('note_off', channel=4, note=45, velocity=95, time=0),
    Message('note_on', channel=4, note=57, velocity=95, time=0),
    Message('note_on', channel=4, note=52, velocity=95, time=0),
    Message('note_on', channel=4, note=45, velocity=95, time=0),
    Message('note_off', channel=4, note=57, velocity=95, time=480),
    Message('note_off', channel=4, note=52, velocity=95, time=0),
    Message('note_off', channel=4, note=45, velocity=95, time=0),
    Message('note_on', channel=4, note=57, velocity=95, time=0),
    Message('note_on', channel=4, note=52, velocity=95, time=0),
    Message('note_on', channel=4, note=45, velocity=95, time=0),
    Message('note_off', channel=4, note=57, velocity=95, time=480),
    Message('note_off', channel=4, note=52, velocity=95, time=0),
    Message('note_off', channel=4, note=45, velocity=95, time=0),
    Message('note_on', channel=4, note=53, velocity=95, time=0),
    Message('note_on', channel=4, note=48, velocity=95, time=0),
    Message('note_on', channel=4, note=41, velocity=95, time=0),
    Message('note_off', channel=4, note=53, velocity=95, time=480),
    Message('note_off', channel=4, note=48, velocity=95, time=0),
    Message('note_off', channel=4, note=41, velocity=95, time=0),
    Message('note_on', channel=4, note=53, velocity=95, time=0),
    Message('note_on', channel=4, note=48, velocity=95, time=0),
    Message('note_on', channel=4, note=41, velocity=95, time=0),
    Message('note_off', channel=4, note=53, velocity=95, time=480),
    Message('note_off', channel=4, note=48, velocity=95, time=0),
    Message('note_off', channel=4, note=41, velocity=95, time=0),
    Message('note_on', channel=4, note=53, velocity=95, time=0),
    Message('note_on', channel=4, note=48, velocity=95, time=0),
    Message('note_on', channel=4, note=41, velocity=95, time=0),
    Message('note_off', channel=4, note=53, velocity=95, time=480),
    Message('note_off', channel=4, note=48, velocity=95, time=0),
    Message('note_off', channel=4, note=41, velocity=95, time=0),
    Message('note_on', channel=4, note=53, velocity=95, time=0),
    Message('note_on', channel=4, note=48, velocity=95, time=0),
    Message('note_on', channel=4, note=41, velocity=95, time=0),
    Message('note_off', channel=4, note=53, velocity=95, time=480),
    Message('note_off', channel=4, note=48, velocity=95, time=0),
    Message('note_off', channel=4, note=41, velocity=95, time=0),
    Message('note_on', channel=4, note=53, velocity=95, time=0),
    Message('note_on', channel=4, note=48, velocity=95, time=0),
    Message('note_on', channel=4, note=41, velocity=95, time=0),
    Message('note_off', channel=4, note=53, velocity=95, time=480),
    Message('note_off', channel=4, note=48, velocity=95, time=0),
    Message('note_off', channel=4, note=41, velocity=95, time=0),
    Message('note_on', channel=4, note=53, velocity=95, time=0),
    Message('note_on', channel=4, note=48, velocity=95, time=0),
    Message('note_on', channel=4, note=41, velocity=95, time=0),
    Message('note_off', channel=4, note=53, velocity=95, time=480),
    Message('note_off', channel=4, note=48, velocity=95, time=0),
    Message('note_off', channel=4, note=41, velocity=95, time=0),
    Message('note_on', channel=4, note=53, velocity=95, time=0),
    Message('note_on', channel=4, note=48, velocity=95, time=0),
    Message('note_on', channel=4, note=41, velocity=95, time=0),
    Message('note_off', channel=4, note=53, velocity=95, time=480),
    Message('note_off', channel=4, note=48, velocity=95, time=0),
    Message('note_off', channel=4, note=41, velocity=95, time=0),
    Message('note_on', channel=4, note=53, velocity=95, time=0),
    Message('note_on', channel=4, note=48, velocity=95, time=0),
    Message('note_on', channel=4, note=41, velocity=95, time=0),
    Message('note_off', channel=4, note=53, velocity=95, time=480),
    Message('note_off', channel=4, note=48, velocity=95, time=0),
    Message('note_off', channel=4, note=41, velocity=95, time=0),
    Message('note_on', channel=4, note=55, velocity=95, time=0),
    Message('note_on', channel=4, note=50, velocity=95, time=0),
    Message('note_on', channel=4, note=43, velocity=95, time=0),
    Message('note_off', channel=4, note=55, velocity=95, time=480),
    Message('note_off', channel=4, note=50, velocity=95, time=0),
    Message('note_off', channel=4, note=43, velocity=95, time=0),
    Message('note_on', channel=4, note=55, velocity=95, time=0),
    Message('note_on', channel=4, note=50, velocity=95, time=0),
    Message('note_on', channel=4, note=43, velocity=95, time=0),
    Message('note_off', channel=4, note=55, velocity=95, time=480),
    Message('note_off', channel=4, note=50, velocity=95, time=0),
    Message('note_off', channel=4, note=43, velocity=95, time=0),
    Message('note_on', channel=4, note=55, velocity=95, time=0),
    Message('note_on', channel=4, note=50, velocity=95, time=0),
    Message('note_on', channel=4, note=43, velocity=95, time=0),
    Message('note_off', channel=4, note=55, velocity=95, time=480),
    Message('note_off', channel=4, note=50, velocity=95, time=0),
    Message('note_off', channel=4, note=43, velocity=95, time=0),
    Message('note_on', channel=4, note=55, velocity=95, time=0),
    Message('note_on', channel=4, note=50, velocity=95, time=0),
    Message('note_on', channel=4, note=43, velocity=95, time=0),
    Message('note_off', channel=4, note=55, velocity=95, time=480),
    Message('note_off', channel=4, note=50, velocity=95, time=0),
    Message('note_off', channel=4, note=43, velocity=95, time=0),
    Message('note_on', channel=4, note=55, velocity=95, time=0),
    Message('note_on', channel=4, note=50, velocity=95, time=0),
    Message('note_on', channel=4, note=43, velocity=95, time=0),
    Message('note_off', channel=4, note=55, velocity=95, time=480),
    Message('note_off', channel=4, note=50, velocity=95, time=0),
    Message('note_off', channel=4, note=43, velocity=95, time=0),
    Message('note_on', channel=4, note=55, velocity=95, time=0),
    Message('note_on', channel=4, note=50, velocity=95, time=0),
    Message('note_on', channel=4, note=43, velocity=95, time=0),
    Message('note_off', channel=4, note=55, velocity=95, time=480),
    Message('note_off', channel=4, note=50, velocity=95, time=0),
    Message('note_off', channel=4, note=43, velocity=95, time=0),
    Message('note_on', channel=4, note=55, velocity=95, time=0),
    Message('note_on', channel=4, note=50, velocity=95, time=0),
    Message('note_on', channel=4, note=43, velocity=95, time=0),
    Message('note_off', channel=4, note=55, velocity=95, time=480),
    Message('note_off', channel=4, note=50, velocity=95, time=0),
    Message('note_off', channel=4, note=43, velocity=95, time=0),
    Message('note_on', channel=4, note=55, velocity=95, time=0),
    Message('note_on', channel=4, note=50, velocity=95, time=0),
    Message('note_on', channel=4, note=43, velocity=95, time=0),
    Message('note_off', channel=4, note=55, velocity=95, time=480),
    Message('note_off', channel=4, note=50, velocity=95, time=0),
    Message('note_off', channel=4, note=43, velocity=95, time=0),
    Message('note_on', channel=4, note=57, velocity=95, time=0),
    Message('note_on', channel=4, note=52, velocity=95, time=0),
    Message('note_on', channel=4, note=45, velocity=95, time=0),
    Message('note_off', channel=4, note=57, velocity=95, time=480),
    Message('note_off', channel=4, note=52, velocity=95, time=0),
    Message('note_off', channel=4, note=45, velocity=95, time=0),
    Message('note_on', channel=4, note=57, velocity=95, time=0),
    Message('note_on', channel=4, note=52, velocity=95, time=0),
    Message('note_on', channel=4, note=45, velocity=95, time=0),
    Message('note_off', channel=4, note=57, velocity=95, time=480),
    Message('note_off', channel=4, note=52, velocity=95, time=0),
    Message('note_off', channel=4, note=45, velocity=95, time=0),
    Message('note_on', channel=4, note=57, velocity=95, time=0),
    Message('note_on', channel=4, note=52, velocity=95, time=0),
    Message('note_on', channel=4, note=45, velocity=95, time=0),
    Message('note_off', channel=4, note=57, velocity=95, time=480),
    Message('note_off', channel=4, note=52, velocity=95, time=0),
    Message('note_off', channel=4, note=45, velocity=95, time=0),
    Message('note_on', channel=4, note=57, velocity=95, time=0),
    Message('note_on', channel=4, note=52, velocity=95, time=0),
    Message('note_on', channel=4, note=45, velocity=95, time=0),
    Message('note_off', channel=4, note=57, velocity=95, time=480),
    Message('note_off', channel=4, note=52, velocity=95, time=0),
    Message('note_off', channel=4, note=45, velocity=95, time=0),
    Message('note_on', channel=4, note=57, velocity=95, time=0),
    Message('note_on', channel=4, note=52, velocity=95, time=0),
    Message('note_on', channel=4, note=45, velocity=95, time=0),
    Message('note_off', channel=4, note=57, velocity=95, time=480),
    Message('note_off', channel=4, note=52, velocity=95, time=0),
    Message('note_off', channel=4, note=45, velocity=95, time=0),
    Message('note_on', channel=4, note=57, velocity=95, time=0),
    Message('note_on', channel=4, note=52, velocity=95, time=0),
    Message('note_on', channel=4, note=45, velocity=95, time=0),
    Message('note_off', channel=4, note=57, velocity=95, time=480),
    Message('note_off', channel=4, note=52, velocity=95, time=0),
    Message('note_off', channel=4, note=45, velocity=95, time=0),
    Message('note_on', channel=4, note=57, velocity=95, time=0),
    Message('note_on', channel=4, note=52, velocity=95, time=0),
    Message('note_on', channel=4, note=45, velocity=95, time=0),
    Message('note_off', channel=4, note=57, velocity=95, time=480),
    Message('note_off', channel=4, note=52, velocity=95, time=0),
    Message('note_off', channel=4, note=45, velocity=95, time=0),
    Message('note_on', channel=4, note=57, velocity=95, time=0),
    Message('note_on', channel=4, note=52, velocity=95, time=0),
    Message('note_on', channel=4, note=45, velocity=95, time=0),
    Message('note_off', channel=4, note=57, velocity=95, time=480),
    Message('note_off', channel=4, note=52, velocity=95, time=0),
    Message('note_off', channel=4, note=45, velocity=95, time=0),
    Message('note_on', channel=4, note=57, velocity=95, time=0),
    Message('note_on', channel=4, note=52, velocity=95, time=0),
    Message('note_on', channel=4, note=45, velocity=95, time=0),
    Message('note_off', channel=4, note=57, velocity=95, time=480),
    Message('note_off', channel=4, note=52, velocity=95, time=0),
    Message('note_off', channel=4, note=45, velocity=95, time=0),
    Message('note_on', channel=4, note=57, velocity=95, time=0),
    Message('note_on', channel=4, note=52, velocity=95, time=0),
    Message('note_on', channel=4, note=45, velocity=95, time=0),
    Message('note_off', channel=4, note=57, velocity=95, time=480),
    Message('note_off', channel=4, note=52, velocity=95, time=0),
    Message('note_off', channel=4, note=45, velocity=95, time=0),
    Message('note_on', channel=4, note=57, velocity=95, time=0),
    Message('note_on', channel=4, note=52, velocity=95, time=0),
    Message('note_on', channel=4, note=45, velocity=95, time=0),
    Message('note_off', channel=4, note=57, velocity=95, time=480),
    Message('note_off', channel=4, note=52, velocity=95, time=0),
    Message('note_off', channel=4, note=45, velocity=95, time=0),
    Message('note_on', channel=4, note=57, velocity=95, time=0),
    Message('note_on', channel=4, note=52, velocity=95, time=0),
    Message('note_on', channel=4, note=45, velocity=95, time=0),
    Message('note_off', channel=4, note=57, velocity=95, time=480),
    Message('note_off', channel=4, note=52, velocity=95, time=0),
    Message('note_off', channel=4, note=45, velocity=95, time=0),
    Message('note_on', channel=4, note=57, velocity=95, time=0),
    Message('note_on', channel=4, note=52, velocity=95, time=0),
    Message('note_on', channel=4, note=45, velocity=95, time=0),
    Message('note_off', channel=4, note=57, velocity=95, time=480),
    Message('note_off', channel=4, note=52, velocity=95, time=0),
    Message('note_off', channel=4, note=45, velocity=95, time=0),
    Message('note_on', channel=4, note=57, velocity=95, time=0),
    Message('note_on', channel=4, note=52, velocity=95, time=0),
    Message('note_on', channel=4, note=45, velocity=95, time=0),
    Message('note_off', channel=4, note=57, velocity=95, time=480),
    Message('note_off', channel=4, note=52, velocity=95, time=0),
    Message('note_off', channel=4, note=45, velocity=95, time=0),
    Message('note_on', channel=4, note=57, velocity=95, time=0),
    Message('note_on', channel=4, note=52, velocity=95, time=0),
    Message('note_on', channel=4, note=45, velocity=95, time=0),
    Message('note_off', channel=4, note=57, velocity=95, time=480),
    Message('note_off', channel=4, note=52, velocity=95, time=0),
    Message('note_off', channel=4, note=45, velocity=95, time=0),
    Message('note_on', channel=4, note=57, velocity=95, time=0),
    Message('note_on', channel=4, note=52, velocity=95, time=0),
    Message('note_on', channel=4, note=45, velocity=95, time=0),
    Message('note_off', channel=4, note=57, velocity=95, time=480),
    Message('note_off', channel=4, note=52, velocity=95, time=0),
    Message('note_off', channel=4, note=45, velocity=95, time=0),
    Message('note_on', channel=4, note=53, velocity=95, time=0),
    Message('note_on', channel=4, note=48, velocity=95, time=0),
    Message('note_on', channel=4, note=41, velocity=95, time=0),
    Message('note_off', channel=4, note=53, velocity=95, time=480),
    Message('note_off', channel=4, note=48, velocity=95, time=0),
    Message('note_off', channel=4, note=41, velocity=95, time=0),
    Message('note_on', channel=4, note=53, velocity=95, time=0),
    Message('note_on', channel=4, note=48, velocity=95, time=0),
    Message('note_on', channel=4, note=41, velocity=95, time=0),
    Message('note_off', channel=4, note=53, velocity=95, time=480),
    Message('note_off', channel=4, note=48, velocity=95, time=0),
    Message('note_off', channel=4, note=41, velocity=95, time=0),
    Message('note_on', channel=4, note=53, velocity=95, time=0),
    Message('note_on', channel=4, note=48, velocity=95, time=0),
    Message('note_on', channel=4, note=41, velocity=95, time=0),
    Message('note_off', channel=4, note=53, velocity=95, time=480),
    Message('note_off', channel=4, note=48, velocity=95, time=0),
    Message('note_off', channel=4, note=41, velocity=95, time=0),
    Message('note_on', channel=4, note=53, velocity=95, time=0),
    Message('note_on', channel=4, note=48, velocity=95, time=0),
    Message('note_on', channel=4, note=41, velocity=95, time=0),
    Message('note_off', channel=4, note=53, velocity=95, time=480),
    Message('note_off', channel=4, note=48, velocity=95, time=0),
    Message('note_off', channel=4, note=41, velocity=95, time=0),
    Message('note_on', channel=4, note=53, velocity=95, time=0),
    Message('note_on', channel=4, note=48, velocity=95, time=0),
    Message('note_on', channel=4, note=41, velocity=95, time=0),
    Message('note_off', channel=4, note=53, velocity=95, time=480),
    Message('note_off', channel=4, note=48, velocity=95, time=0),
    Message('note_off', channel=4, note=41, velocity=95, time=0),
    Message('note_on', channel=4, note=53, velocity=95, time=0),
    Message('note_on', channel=4, note=48, velocity=95, time=0),
    Message('note_on', channel=4, note=41, velocity=95, time=0),
    Message('note_off', channel=4, note=53, velocity=95, time=480),
    Message('note_off', channel=4, note=48, velocity=95, time=0),
    Message('note_off', channel=4, note=41, velocity=95, time=0),
    Message('note_on', channel=4, note=53, velocity=95, time=0),
    Message('note_on', channel=4, note=48, velocity=95, time=0),
    Message('note_on', channel=4, note=41, velocity=95, time=0),
    Message('note_off', channel=4, note=53, velocity=95, time=480),
    Message('note_off', channel=4, note=48, velocity=95, time=0),
    Message('note_off', channel=4, note=41, velocity=95, time=0),
    Message('note_on', channel=4, note=53, velocity=95, time=0),
    Message('note_on', channel=4, note=48, velocity=95, time=0),
    Message('note_on', channel=4, note=41, velocity=95, time=0),
    Message('note_off', channel=4, note=53, velocity=95, time=480),
    Message('note_off', channel=4, note=48, velocity=95, time=0),
    Message('note_off', channel=4, note=41, velocity=95, time=0),
    Message('note_on', channel=4, note=55, velocity=95, time=0),
    Message('note_on', channel=4, note=50, velocity=95, time=0),
    Message('note_on', channel=4, note=43, velocity=95, time=0),
    Message('note_off', channel=4, note=55, velocity=95, time=480),
    Message('note_off', channel=4, note=50, velocity=95, time=0),
    Message('note_off', channel=4, note=43, velocity=95, time=0),
    Message('note_on', channel=4, note=55, velocity=95, time=0),
    Message('note_on', channel=4, note=50, velocity=95, time=0),
    Message('note_on', channel=4, note=43, velocity=95, time=0),
    Message('note_off', channel=4, note=55, velocity=95, time=480),
    Message('note_off', channel=4, note=50, velocity=95, time=0),
    Message('note_off', channel=4, note=43, velocity=95, time=0),
    Message('note_on', channel=4, note=55, velocity=95, time=0),
    Message('note_on', channel=4, note=50, velocity=95, time=0),
    Message('note_on', channel=4, note=43, velocity=95, time=0),
    Message('note_off', channel=4, note=55, velocity=95, time=480),
    Message('note_off', channel=4, note=50, velocity=95, time=0),
    Message('note_off', channel=4, note=43, velocity=95, time=0),
    Message('note_on', channel=4, note=55, velocity=95, time=0),
    Message('note_on', channel=4, note=50, velocity=95, time=0),
    Message('note_on', channel=4, note=43, velocity=95, time=0),
    Message('note_off', channel=4, note=55, velocity=95, time=480),
    Message('note_off', channel=4, note=50, velocity=95, time=0),
    Message('note_off', channel=4, note=43, velocity=95, time=0),
    Message('note_on', channel=4, note=55, velocity=95, time=0),
    Message('note_on', channel=4, note=50, velocity=95, time=0),
    Message('note_on', channel=4, note=43, velocity=95, time=0),
    Message('note_off', channel=4, note=55, velocity=95, time=480),
    Message('note_off', channel=4, note=50, velocity=95, time=0),
    Message('note_off', channel=4, note=43, velocity=95, time=0),
    Message('note_on', channel=4, note=55, velocity=95, time=0),
    Message('note_on', channel=4, note=50, velocity=95, time=0),
    Message('note_on', channel=4, note=43, velocity=95, time=0),
    Message('note_off', channel=4, note=55, velocity=95, time=480),
    Message('note_off', channel=4, note=50, velocity=95, time=0),
    Message('note_off', channel=4, note=43, velocity=95, time=0),
    Message('note_on', channel=4, note=55, velocity=95, time=0),
    Message('note_on', channel=4, note=50, velocity=95, time=0),
    Message('note_on', channel=4, note=43, velocity=95, time=0),
    Message('note_off', channel=4, note=55, velocity=95, time=480),
    Message('note_off', channel=4, note=50, velocity=95, time=0),
    Message('note_off', channel=4, note=43, velocity=95, time=0),
    Message('note_on', channel=4, note=55, velocity=95, time=0),
    Message('note_on', channel=4, note=50, velocity=95, time=0),
    Message('note_on', channel=4, note=43, velocity=95, time=0),
    Message('note_off', channel=4, note=55, velocity=95, time=480),
    Message('note_off', channel=4, note=50, velocity=95, time=0),
    Message('note_off', channel=4, note=43, velocity=95, time=0),
    Message('note_on', channel=4, note=57, velocity=95, time=0),
    Message('note_on', channel=4, note=52, velocity=95, time=0),
    Message('note_on', channel=4, note=45, velocity=95, time=0),
    Message('note_off', channel=4, note=57, velocity=95, time=480),
    Message('note_off', channel=4, note=52, velocity=95, time=0),
    Message('note_off', channel=4, note=45, velocity=95, time=0),
    Message('note_on', channel=4, note=57, velocity=95, time=0),
    Message('note_on', channel=4, note=52, velocity=95, time=0),
    Message('note_on', channel=4, note=45, velocity=95, time=0),
    Message('note_off', channel=4, note=57, velocity=95, time=480),
    Message('note_off', channel=4, note=52, velocity=95, time=0),
    Message('note_off', channel=4, note=45, velocity=95, time=0),
    Message('note_on', channel=4, note=57, velocity=95, time=0),
    Message('note_on', channel=4, note=52, velocity=95, time=0),
    Message('note_on', channel=4, note=45, velocity=95, time=0),
    Message('note_off', channel=4, note=57, velocity=95, time=480),
    Message('note_off', channel=4, note=52, velocity=95, time=0),
    Message('note_off', channel=4, note=45, velocity=95, time=0),
    Message('note_on', channel=4, note=57, velocity=95, time=0),
    Message('note_on', channel=4, note=52, velocity=95, time=0),
    Message('note_on', channel=4, note=45, velocity=95, time=0),
    Message('note_off', channel=4, note=57, velocity=95, time=480),
    Message('note_off', channel=4, note=52, velocity=95, time=0),
    Message('note_off', channel=4, note=45, velocity=95, time=0),
    Message('note_on', channel=4, note=57, velocity=95, time=0),
    Message('note_on', channel=4, note=52, velocity=95, time=0),
    Message('note_on', channel=4, note=45, velocity=95, time=0),
    Message('note_off', channel=4, note=57, velocity=95, time=480),
    Message('note_off', channel=4, note=52, velocity=95, time=0),
    Message('note_off', channel=4, note=45, velocity=95, time=0),
    Message('note_on', channel=4, note=57, velocity=95, time=0),
    Message('note_on', channel=4, note=52, velocity=95, time=0),
    Message('note_on', channel=4, note=45, velocity=95, time=0),
    Message('note_off', channel=4, note=57, velocity=95, time=480),
    Message('note_off', channel=4, note=52, velocity=95, time=0),
    Message('note_off', channel=4, note=45, velocity=95, time=0),
    Message('note_on', channel=4, note=57, velocity=95, time=0),
    Message('note_on', channel=4, note=52, velocity=95, time=0),
    Message('note_on', channel=4, note=45, velocity=95, time=0),
    Message('note_off', channel=4, note=57, velocity=95, time=480),
    Message('note_off', channel=4, note=52, velocity=95, time=0),
    Message('note_off', channel=4, note=45, velocity=95, time=0),
    Message('note_on', channel=4, note=57, velocity=95, time=0),
    Message('note_on', channel=4, note=52, velocity=95, time=0),
    Message('note_on', channel=4, note=45, velocity=95, time=0),
    Message('note_off', channel=4, note=57, velocity=95, time=480),
    Message('note_off', channel=4, note=52, velocity=95, time=0),
    Message('note_off', channel=4, note=45, velocity=95, time=0),
    Message('note_on', channel=4, note=57, velocity=95, time=0),
    Message('note_on', channel=4, note=52, velocity=95, time=0),
    Message('note_on', channel=4, note=45, velocity=95, time=0),
    Message('note_off', channel=4, note=57, velocity=95, time=480),
    Message('note_off', channel=4, note=52, velocity=95, time=0),
    Message('note_off', channel=4, note=45, velocity=95, time=0),
    Message('note_on', channel=4, note=57, velocity=95, time=0),
    Message('note_on', channel=4, note=52, velocity=95, time=0),
    Message('note_on', channel=4, note=45, velocity=95, time=0),
    Message('note_off', channel=4, note=57, velocity=95, time=480),
    Message('note_off', channel=4, note=52, velocity=95, time=0),
    Message('note_off', channel=4, note=45, velocity=95, time=0),
    Message('note_on', channel=4, note=57, velocity=95, time=0),
    Message('note_on', channel=4, note=52, velocity=95, time=0),
    Message('note_on', channel=4, note=45, velocity=95, time=0),
    Message('note_off', channel=4, note=57, velocity=95, time=480),
    Message('note_off', channel=4, note=52, velocity=95, time=0),
    Message('note_off', channel=4, note=45, velocity=95, time=0),
    Message('note_on', channel=4, note=57, velocity=95, time=0),
    Message('note_on', channel=4, note=52, velocity=95, time=0),
    Message('note_on', channel=4, note=45, velocity=95, time=0),
    Message('note_off', channel=4, note=57, velocity=95, time=480),
    Message('note_off', channel=4, note=52, velocity=95, time=0),
    Message('note_off', channel=4, note=45, velocity=95, time=0),
    Message('note_on', channel=4, note=57, velocity=95, time=0),
    Message('note_on', channel=4, note=52, velocity=95, time=0),
    Message('note_on', channel=4, note=45, velocity=95, time=0),
    Message('note_off', channel=4, note=57, velocity=95, time=480),
    Message('note_off', channel=4, note=52, velocity=95, time=0),
    Message('note_off', channel=4, note=45, velocity=95, time=0),
    Message('note_on', channel=4, note=57, velocity=95, time=0),
    Message('note_on', channel=4, note=52, velocity=95, time=0),
    Message('note_on', channel=4, note=45, velocity=95, time=0),
    Message('note_off', channel=4, note=57, velocity=95, time=480),
    Message('note_off', channel=4, note=52, velocity=95, time=0),
    Message('note_off', channel=4, note=45, velocity=95, time=0),
    Message('note_on', channel=4, note=57, velocity=95, time=0),
    Message('note_on', channel=4, note=52, velocity=95, time=0),
    Message('note_on', channel=4, note=45, velocity=95, time=0),
    Message('note_off', channel=4, note=57, velocity=95, time=480),
    Message('note_off', channel=4, note=52, velocity=95, time=0),
    Message('note_off', channel=4, note=45, velocity=95, time=0),
    Message('note_on', channel=4, note=57, velocity=95, time=0),
    Message('note_on', channel=4, note=52, velocity=95, time=0),
    Message('note_on', channel=4, note=45, velocity=95, time=0),
    Message('note_off', channel=4, note=57, velocity=95, time=480),
    Message('note_off', channel=4, note=52, velocity=95, time=0),
    Message('note_off', channel=4, note=45, velocity=95, time=0),
    Message('note_on', channel=4, note=53, velocity=95, time=0),
    Message('note_on', channel=4, note=48, velocity=95, time=0),
    Message('note_on', channel=4, note=41, velocity=95, time=0),
    Message('note_off', channel=4, note=53, velocity=95, time=480),
    Message('note_off', channel=4, note=48, velocity=95, time=0),
    Message('note_off', channel=4, note=41, velocity=95, time=0),
    Message('note_on', channel=4, note=53, velocity=95, time=0),
    Message('note_on', channel=4, note=48, velocity=95, time=0),
    Message('note_on', channel=4, note=41, velocity=95, time=0),
    Message('note_off', channel=4, note=53, velocity=95, time=480),
    Message('note_off', channel=4, note=48, velocity=95, time=0),
    Message('note_off', channel=4, note=41, velocity=95, time=0),
    Message('note_on', channel=4, note=53, velocity=95, time=0),
    Message('note_on', channel=4, note=48, velocity=95, time=0),
    Message('note_on', channel=4, note=41, velocity=95, time=0),
    Message('note_off', channel=4, note=53, velocity=95, time=480),
    Message('note_off', channel=4, note=48, velocity=95, time=0),
    Message('note_off', channel=4, note=41, velocity=95, time=0),
    Message('note_on', channel=4, note=53, velocity=95, time=0),
    Message('note_on', channel=4, note=48, velocity=95, time=0),
    Message('note_on', channel=4, note=41, velocity=95, time=0),
    Message('note_off', channel=4, note=53, velocity=95, time=480),
    Message('note_off', channel=4, note=48, velocity=95, time=0),
    Message('note_off', channel=4, note=41, velocity=95, time=0),
    Message('note_on', channel=4, note=53, velocity=95, time=0),
    Message('note_on', channel=4, note=48, velocity=95, time=0),
    Message('note_on', channel=4, note=41, velocity=95, time=0),
    Message('note_off', channel=4, note=53, velocity=95, time=480),
    Message('note_off', channel=4, note=48, velocity=95, time=0),
    Message('note_off', channel=4, note=41, velocity=95, time=0),
    Message('note_on', channel=4, note=53, velocity=95, time=0),
    Message('note_on', channel=4, note=48, velocity=95, time=0),
    Message('note_on', channel=4, note=41, velocity=95, time=0),
    Message('note_off', channel=4, note=53, velocity=95, time=480),
    Message('note_off', channel=4, note=48, velocity=95, time=0),
    Message('note_off', channel=4, note=41, velocity=95, time=0),
    Message('note_on', channel=4, note=53, velocity=95, time=0),
    Message('note_on', channel=4, note=48, velocity=95, time=0),
    Message('note_on', channel=4, note=41, velocity=95, time=0),
    Message('note_off', channel=4, note=53, velocity=95, time=480),
    Message('note_off', channel=4, note=48, velocity=95, time=0),
    Message('note_off', channel=4, note=41, velocity=95, time=0),
    Message('note_on', channel=4, note=53, velocity=95, time=0),
    Message('note_on', channel=4, note=48, velocity=95, time=0),
    Message('note_on', channel=4, note=41, velocity=95, time=0),
    Message('note_off', channel=4, note=53, velocity=95, time=480),
    Message('note_off', channel=4, note=48, velocity=95, time=0),
    Message('note_off', channel=4, note=41, velocity=95, time=0),
    Message('note_on', channel=4, note=55, velocity=95, time=0),
    Message('note_on', channel=4, note=50, velocity=95, time=0),
    Message('note_on', channel=4, note=43, velocity=95, time=0),
    Message('note_off', channel=4, note=55, velocity=95, time=480),
    Message('note_off', channel=4, note=50, velocity=95, time=0),
    Message('note_off', channel=4, note=43, velocity=95, time=0),
    Message('note_on', channel=4, note=55, velocity=95, time=0),
    Message('note_on', channel=4, note=50, velocity=95, time=0),
    Message('note_on', channel=4, note=43, velocity=95, time=0),
    Message('note_off', channel=4, note=55, velocity=95, time=480),
    Message('note_off', channel=4, note=50, velocity=95, time=0),
    Message('note_off', channel=4, note=43, velocity=95, time=0),
    Message('note_on', channel=4, note=55, velocity=95, time=0),
    Message('note_on', channel=4, note=50, velocity=95, time=0),
    Message('note_on', channel=4, note=43, velocity=95, time=0),
    Message('note_off', channel=4, note=55, velocity=95, time=480),
    Message('note_off', channel=4, note=50, velocity=95, time=0),
    Message('note_off', channel=4, note=43, velocity=95, time=0),
    Message('note_on', channel=4, note=55, velocity=95, time=0),
    Message('note_on', channel=4, note=50, velocity=95, time=0),
    Message('note_on', channel=4, note=43, velocity=95, time=0),
    Message('note_off', channel=4, note=55, velocity=95, time=480),
    Message('note_off', channel=4, note=50, velocity=95, time=0),
    Message('note_off', channel=4, note=43, velocity=95, time=0),
    Message('note_on', channel=4, note=55, velocity=95, time=0),
    Message('note_on', channel=4, note=50, velocity=95, time=0),
    Message('note_on', channel=4, note=43, velocity=95, time=0),
    Message('note_off', channel=4, note=55, velocity=95, time=480),
    Message('note_off', channel=4, note=50, velocity=95, time=0),
    Message('note_off', channel=4, note=43, velocity=95, time=0),
    Message('note_on', channel=4, note=55, velocity=95, time=0),
    Message('note_on', channel=4, note=50, velocity=95, time=0),
    Message('note_on', channel=4, note=43, velocity=95, time=0),
    Message('note_off', channel=4, note=55, velocity=95, time=480),
    Message('note_off', channel=4, note=50, velocity=95, time=0),
    Message('note_off', channel=4, note=43, velocity=95, time=0),
    Message('note_on', channel=4, note=55, velocity=95, time=0),
    Message('note_on', channel=4, note=50, velocity=95, time=0),
    Message('note_on', channel=4, note=43, velocity=95, time=0),
    Message('note_off', channel=4, note=55, velocity=95, time=480),
    Message('note_off', channel=4, note=50, velocity=95, time=0),
    Message('note_off', channel=4, note=43, velocity=95, time=0),
    Message('note_on', channel=4, note=55, velocity=95, time=0),
    Message('note_on', channel=4, note=50, velocity=95, time=0),
    Message('note_on', channel=4, note=43, velocity=95, time=0),
    Message('note_off', channel=4, note=55, velocity=95, time=480),
    Message('note_off', channel=4, note=50, velocity=95, time=0),
    Message('note_off', channel=4, note=43, velocity=95, time=0),
    Message('note_on', channel=4, note=57, velocity=95, time=0),
    Message('note_on', channel=4, note=52, velocity=95, time=0),
    Message('note_on', channel=4, note=45, velocity=95, time=0),
    Message('note_off', channel=4, note=57, velocity=95, time=480),
    Message('note_off', channel=4, note=52, velocity=95, time=0),
    Message('note_off', channel=4, note=45, velocity=95, time=0),
    Message('note_on', channel=4, note=57, velocity=95, time=0),
    Message('note_on', channel=4, note=52, velocity=95, time=0),
    Message('note_on', channel=4, note=45, velocity=95, time=0),
    Message('note_off', channel=4, note=57, velocity=95, time=480),
    Message('note_off', channel=4, note=52, velocity=95, time=0),
    Message('note_off', channel=4, note=45, velocity=95, time=0),
    Message('note_on', channel=4, note=57, velocity=95, time=0),
    Message('note_on', channel=4, note=52, velocity=95, time=0),
    Message('note_on', channel=4, note=45, velocity=95, time=0),
    Message('note_off', channel=4, note=57, velocity=95, time=480),
    Message('note_off', channel=4, note=52, velocity=95, time=0),
    Message('note_off', channel=4, note=45, velocity=95, time=0),
    Message('note_on', channel=4, note=57, velocity=95, time=0),
    Message('note_on', channel=4, note=52, velocity=95, time=0),
    Message('note_on', channel=4, note=45, velocity=95, time=0),
    Message('note_off', channel=4, note=57, velocity=95, time=480),
    Message('note_off', channel=4, note=52, velocity=95, time=0),
    Message('note_off', channel=4, note=45, velocity=95, time=0),
    Message('note_on', channel=4, note=57, velocity=95, time=0),
    Message('note_on', channel=4, note=52, velocity=95, time=0),
    Message('note_on', channel=4, note=45, velocity=95, time=0),
    Message('note_off', channel=4, note=57, velocity=95, time=480),
    Message('note_off', channel=4, note=52, velocity=95, time=0),
    Message('note_off', channel=4, note=45, velocity=95, time=0),
    Message('note_on', channel=4, note=57, velocity=95, time=0),
    Message('note_on', channel=4, note=52, velocity=95, time=0),
    Message('note_on', channel=4, note=45, velocity=95, time=0),
    Message('note_off', channel=4, note=57, velocity=95, time=480),
    Message('note_off', channel=4, note=52, velocity=95, time=0),
    Message('note_off', channel=4, note=45, velocity=95, time=0),
    Message('note_on', channel=4, note=57, velocity=95, time=0),
    Message('note_on', channel=4, note=52, velocity=95, time=0),
    Message('note_on', channel=4, note=45, velocity=95, time=0),
    Message('note_off', channel=4, note=57, velocity=95, time=480),
    Message('note_off', channel=4, note=52, velocity=95, time=0),
    Message('note_off', channel=4, note=45, velocity=95, time=0),
    Message('note_on', channel=4, note=57, velocity=95, time=0),
    Message('note_on', channel=4, note=52, velocity=95, time=0),
    Message('note_on', channel=4, note=45, velocity=95, time=0),
    Message('note_off', channel=4, note=57, velocity=95, time=480),
    Message('note_off', channel=4, note=52, velocity=95, time=0),
    Message('note_off', channel=4, note=45, velocity=95, time=0),
    Message('note_on', channel=4, note=57, velocity=95, time=0),
    Message('note_on', channel=4, note=52, velocity=95, time=0),
    Message('note_on', channel=4, note=45, velocity=95, time=0),
    Message('note_off', channel=4, note=57, velocity=95, time=480),
    Message('note_off', channel=4, note=52, velocity=95, time=0),
    Message('note_off', channel=4, note=45, velocity=95, time=0),
    Message('note_on', channel=4, note=57, velocity=95, time=0),
    Message('note_on', channel=4, note=52, velocity=95, time=0),
    Message('note_on', channel=4, note=45, velocity=95, time=0),
    Message('note_off', channel=4, note=57, velocity=95, time=480),
    Message('note_off', channel=4, note=52, velocity=95, time=0),
    Message('note_off', channel=4, note=45, velocity=95, time=0),
    Message('note_on', channel=4, note=57, velocity=95, time=0),
    Message('note_on', channel=4, note=52, velocity=95, time=0),
    Message('note_on', channel=4, note=45, velocity=95, time=0),
    Message('note_off', channel=4, note=57, velocity=95, time=480),
    Message('note_off', channel=4, note=52, velocity=95, time=0),
    Message('note_off', channel=4, note=45, velocity=95, time=0),
    Message('note_on', channel=4, note=57, velocity=95, time=0),
    Message('note_on', channel=4, note=52, velocity=95, time=0),
    Message('note_on', channel=4, note=45, velocity=95, time=0),
    Message('note_off', channel=4, note=57, velocity=95, time=480),
    Message('note_off', channel=4, note=52, velocity=95, time=0),
    Message('note_off', channel=4, note=45, velocity=95, time=0),
    Message('note_on', channel=4, note=57, velocity=95, time=0),
    Message('note_on', channel=4, note=52, velocity=95, time=0),
    Message('note_on', channel=4, note=45, velocity=95, time=0),
    Message('note_off', channel=4, note=57, velocity=95, time=480),
    Message('note_off', channel=4, note=52, velocity=95, time=0),
    Message('note_off', channel=4, note=45, velocity=95, time=0),
    Message('note_on', channel=4, note=57, velocity=95, time=0),
    Message('note_on', channel=4, note=52, velocity=95, time=0),
    Message('note_on', channel=4, note=45, velocity=95, time=0),
    Message('note_off', channel=4, note=57, velocity=95, time=480),
    Message('note_off', channel=4, note=52, velocity=95, time=0),
    Message('note_off', channel=4, note=45, velocity=95, time=0),
    Message('note_on', channel=4, note=57, velocity=95, time=0),
    Message('note_on', channel=4, note=52, velocity=95, time=0),
    Message('note_on', channel=4, note=45, velocity=95, time=0),
    Message('note_off', channel=4, note=57, velocity=95, time=480),
    Message('note_off', channel=4, note=52, velocity=95, time=0),
    Message('note_off', channel=4, note=45, velocity=95, time=0),
    Message('note_on', channel=4, note=57, velocity=95, time=0),
    Message('note_on', channel=4, note=52, velocity=95, time=0),
    Message('note_on', channel=4, note=45, velocity=95, time=0),
    Message('note_off', channel=4, note=57, velocity=95, time=480),
    Message('note_off', channel=4, note=52, velocity=95, time=0),
    Message('note_off', channel=4, note=45, velocity=95, time=0),
    Message('note_on', channel=4, note=53, velocity=95, time=0),
    Message('note_on', channel=4, note=48, velocity=95, time=0),
    Message('note_on', channel=4, note=41, velocity=95, time=0),
    Message('note_off', channel=4, note=53, velocity=95, time=480),
    Message('note_off', channel=4, note=48, velocity=95, time=0),
    Message('note_off', channel=4, note=41, velocity=95, time=0),
    Message('note_on', channel=4, note=53, velocity=95, time=0),
    Message('note_on', channel=4, note=48, velocity=95, time=0),
    Message('note_on', channel=4, note=41, velocity=95, time=0),
    Message('note_off', channel=4, note=53, velocity=95, time=480),
    Message('note_off', channel=4, note=48, velocity=95, time=0),
    Message('note_off', channel=4, note=41, velocity=95, time=0),
    Message('note_on', channel=4, note=53, velocity=95, time=0),
    Message('note_on', channel=4, note=48, velocity=95, time=0),
    Message('note_on', channel=4, note=41, velocity=95, time=0),
    Message('note_off', channel=4, note=53, velocity=95, time=480),
    Message('note_off', channel=4, note=48, velocity=95, time=0),
    Message('note_off', channel=4, note=41, velocity=95, time=0),
    Message('note_on', channel=4, note=53, velocity=95, time=0),
    Message('note_on', channel=4, note=48, velocity=95, time=0),
    Message('note_on', channel=4, note=41, velocity=95, time=0),
    Message('note_off', channel=4, note=53, velocity=95, time=480),
    Message('note_off', channel=4, note=48, velocity=95, time=0),
    Message('note_off', channel=4, note=41, velocity=95, time=0),
    Message('note_on', channel=4, note=53, velocity=95, time=0),
    Message('note_on', channel=4, note=48, velocity=95, time=0),
    Message('note_on', channel=4, note=41, velocity=95, time=0),
    Message('note_off', channel=4, note=53, velocity=95, time=480),
    Message('note_off', channel=4, note=48, velocity=95, time=0),
    Message('note_off', channel=4, note=41, velocity=95, time=0),
    Message('note_on', channel=4, note=53, velocity=95, time=0),
    Message('note_on', channel=4, note=48, velocity=95, time=0),
    Message('note_on', channel=4, note=41, velocity=95, time=0),
    Message('note_off', channel=4, note=53, velocity=95, time=480),
    Message('note_off', channel=4, note=48, velocity=95, time=0),
    Message('note_off', channel=4, note=41, velocity=95, time=0),
    Message('note_on', channel=4, note=53, velocity=95, time=0),
    Message('note_on', channel=4, note=48, velocity=95, time=0),
    Message('note_on', channel=4, note=41, velocity=95, time=0),
    Message('note_off', channel=4, note=53, velocity=95, time=480),
    Message('note_off', channel=4, note=48, velocity=95, time=0),
    Message('note_off', channel=4, note=41, velocity=95, time=0),
    Message('note_on', channel=4, note=53, velocity=95, time=0),
    Message('note_on', channel=4, note=48, velocity=95, time=0),
    Message('note_on', channel=4, note=41, velocity=95, time=0),
    Message('note_off', channel=4, note=53, velocity=95, time=480),
    Message('note_off', channel=4, note=48, velocity=95, time=0),
    Message('note_off', channel=4, note=41, velocity=95, time=0),
    Message('note_on', channel=4, note=55, velocity=95, time=0),
    Message('note_on', channel=4, note=50, velocity=95, time=0),
    Message('note_on', channel=4, note=43, velocity=95, time=0),
    Message('note_off', channel=4, note=55, velocity=95, time=480),
    Message('note_off', channel=4, note=50, velocity=95, time=0),
    Message('note_off', channel=4, note=43, velocity=95, time=0),
    Message('note_on', channel=4, note=55, velocity=95, time=0),
    Message('note_on', channel=4, note=50, velocity=95, time=0),
    Message('note_on', channel=4, note=43, velocity=95, time=0),
    Message('note_off', channel=4, note=55, velocity=95, time=480),
    Message('note_off', channel=4, note=50, velocity=95, time=0),
    Message('note_off', channel=4, note=43, velocity=95, time=0),
    Message('note_on', channel=4, note=55, velocity=95, time=0),
    Message('note_on', channel=4, note=50, velocity=95, time=0),
    Message('note_on', channel=4, note=43, velocity=95, time=0),
    Message('note_off', channel=4, note=55, velocity=95, time=480),
    Message('note_off', channel=4, note=50, velocity=95, time=0),
    Message('note_off', channel=4, note=43, velocity=95, time=0),
    Message('note_on', channel=4, note=55, velocity=95, time=0),
    Message('note_on', channel=4, note=50, velocity=95, time=0),
    Message('note_on', channel=4, note=43, velocity=95, time=0),
    Message('note_off', channel=4, note=55, velocity=95, time=480),
    Message('note_off', channel=4, note=50, velocity=95, time=0),
    Message('note_off', channel=4, note=43, velocity=95, time=0),
    Message('note_on', channel=4, note=55, velocity=95, time=0),
    Message('note_on', channel=4, note=50, velocity=95, time=0),
    Message('note_on', channel=4, note=43, velocity=95, time=0),
    Message('note_off', channel=4, note=55, velocity=95, time=480),
    Message('note_off', channel=4, note=50, velocity=95, time=0),
    Message('note_off', channel=4, note=43, velocity=95, time=0),
    Message('note_on', channel=4, note=55, velocity=95, time=0),
    Message('note_on', channel=4, note=50, velocity=95, time=0),
    Message('note_on', channel=4, note=43, velocity=95, time=0),
    Message('note_off', channel=4, note=55, velocity=95, time=480),
    Message('note_off', channel=4, note=50, velocity=95, time=0),
    Message('note_off', channel=4, note=43, velocity=95, time=0),
    Message('note_on', channel=4, note=55, velocity=95, time=0),
    Message('note_on', channel=4, note=50, velocity=95, time=0),
    Message('note_on', channel=4, note=43, velocity=95, time=0),
    Message('note_off', channel=4, note=55, velocity=95, time=480),
    Message('note_off', channel=4, note=50, velocity=95, time=0),
    Message('note_off', channel=4, note=43, velocity=95, time=0),
    Message('note_on', channel=4, note=55, velocity=95, time=0),
    Message('note_on', channel=4, note=50, velocity=95, time=0),
    Message('note_on', channel=4, note=43, velocity=95, time=0),
    Message('note_off', channel=4, note=55, velocity=95, time=480),
    Message('note_off', channel=4, note=50, velocity=95, time=0),
    Message('note_off', channel=4, note=43, velocity=95, time=0),
    Message('note_on', channel=4, note=57, velocity=95, time=0),
    Message('note_on', channel=4, note=52, velocity=95, time=0),
    Message('note_on', channel=4, note=45, velocity=95, time=0),
    Message('note_off', channel=4, note=57, velocity=95, time=480),
    Message('note_off', channel=4, note=52, velocity=95, time=0),
    Message('note_off', channel=4, note=45, velocity=95, time=0),
    Message('note_on', channel=4, note=57, velocity=95, time=0),
    Message('note_on', channel=4, note=52, velocity=95, time=0),
    Message('note_on', channel=4, note=45, velocity=95, time=0),
    Message('note_off', channel=4, note=57, velocity=95, time=480),
    Message('note_off', channel=4, note=52, velocity=95, time=0),
    Message('note_off', channel=4, note=45, velocity=95, time=0),
    Message('note_on', channel=4, note=57, velocity=95, time=0),
    Message('note_on', channel=4, note=52, velocity=95, time=0),
    Message('note_on', channel=4, note=45, velocity=95, time=0),
    Message('note_off', channel=4, note=57, velocity=95, time=480),
    Message('note_off', channel=4, note=52, velocity=95, time=0),
    Message('note_off', channel=4, note=45, velocity=95, time=0),
    Message('note_on', channel=4, note=57, velocity=95, time=0),
    Message('note_on', channel=4, note=52, velocity=95, time=0),
    Message('note_on', channel=4, note=45, velocity=95, time=0),
    Message('note_off', channel=4, note=57, velocity=95, time=480),
    Message('note_off', channel=4, note=52, velocity=95, time=0),
    Message('note_off', channel=4, note=45, velocity=95, time=0),
    Message('note_on', channel=4, note=57, velocity=95, time=0),
    Message('note_on', channel=4, note=52, velocity=95, time=0),
    Message('note_on', channel=4, note=45, velocity=95, time=0),
    Message('note_off', channel=4, note=57, velocity=95, time=480),
    Message('note_off', channel=4, note=52, velocity=95, time=0),
    Message('note_off', channel=4, note=45, velocity=95, time=0),
    Message('note_on', channel=4, note=57, velocity=95, time=0),
    Message('note_on', channel=4, note=52, velocity=95, time=0),
    Message('note_on', channel=4, note=45, velocity=95, time=0),
    Message('note_off', channel=4, note=57, velocity=95, time=480),
    Message('note_off', channel=4, note=52, velocity=95, time=0),
    Message('note_off', channel=4, note=45, velocity=95, time=0),
    Message('note_on', channel=4, note=57, velocity=95, time=0),
    Message('note_on', channel=4, note=52, velocity=95, time=0),
    Message('note_on', channel=4, note=45, velocity=95, time=0),
    Message('note_off', channel=4, note=57, velocity=95, time=480),
    Message('note_off', channel=4, note=52, velocity=95, time=0),
    Message('note_off', channel=4, note=45, velocity=95, time=0),
    Message('note_on', channel=4, note=57, velocity=95, time=0),
    Message('note_on', channel=4, note=52, velocity=95, time=0),
    Message('note_on', channel=4, note=45, velocity=95, time=0),
    Message('note_off', channel=4, note=57, velocity=95, time=480),
    Message('note_off', channel=4, note=52, velocity=95, time=0),
    Message('note_off', channel=4, note=45, velocity=95, time=0),
    Message('note_on', channel=4, note=57, velocity=95, time=0),
    Message('note_on', channel=4, note=52, velocity=95, time=0),
    Message('note_on', channel=4, note=45, velocity=95, time=0),
    Message('note_off', channel=4, note=57, velocity=95, time=480),
    Message('note_off', channel=4, note=52, velocity=95, time=0),
    Message('note_off', channel=4, note=45, velocity=95, time=0),
    Message('note_on', channel=4, note=57, velocity=95, time=0),
    Message('note_on', channel=4, note=52, velocity=95, time=0),
    Message('note_on', channel=4, note=45, velocity=95, time=0),
    Message('note_off', channel=4, note=57, velocity=95, time=480),
    Message('note_off', channel=4, note=52, velocity=95, time=0),
    Message('note_off', channel=4, note=45, velocity=95, time=0),
    Message('note_on', channel=4, note=57, velocity=95, time=0),
    Message('note_on', channel=4, note=52, velocity=95, time=0),
    Message('note_on', channel=4, note=45, velocity=95, time=0),
    Message('note_off', channel=4, note=57, velocity=95, time=480),
    Message('note_off', channel=4, note=52, velocity=95, time=0),
    Message('note_off', channel=4, note=45, velocity=95, time=0),
    Message('note_on', channel=4, note=57, velocity=95, time=0),
    Message('note_on', channel=4, note=52, velocity=95, time=0),
    Message('note_on', channel=4, note=45, velocity=95, time=0),
    Message('note_off', channel=4, note=57, velocity=95, time=480),
    Message('note_off', channel=4, note=52, velocity=95, time=0),
    Message('note_off', channel=4, note=45, velocity=95, time=0),
    Message('note_on', channel=4, note=57, velocity=95, time=0),
    Message('note_on', channel=4, note=52, velocity=95, time=0),
    Message('note_on', channel=4, note=45, velocity=95, time=0),
    Message('note_off', channel=4, note=57, velocity=95, time=480),
    Message('note_off', channel=4, note=52, velocity=95, time=0),
    Message('note_off', channel=4, note=45, velocity=95, time=0),
    Message('note_on', channel=4, note=57, velocity=95, time=0),
    Message('note_on', channel=4, note=52, velocity=95, time=0),
    Message('note_on', channel=4, note=45, velocity=95, time=0),
    Message('note_off', channel=4, note=57, velocity=95, time=480),
    Message('note_off', channel=4, note=52, velocity=95, time=0),
    Message('note_off', channel=4, note=45, velocity=95, time=0),
    Message('note_on', channel=4, note=57, velocity=95, time=0),
    Message('note_on', channel=4, note=52, velocity=95, time=0),
    Message('note_on', channel=4, note=45, velocity=95, time=0),
    Message('note_off', channel=4, note=57, velocity=95, time=480),
    Message('note_off', channel=4, note=52, velocity=95, time=0),
    Message('note_off', channel=4, note=45, velocity=95, time=0),
    Message('note_on', channel=4, note=57, velocity=95, time=0),
    Message('note_on', channel=4, note=52, velocity=95, time=0),
    Message('note_on', channel=4, note=45, velocity=95, time=0),
    Message('note_off', channel=4, note=57, velocity=95, time=480),
    Message('note_off', channel=4, note=52, velocity=95, time=0),
    Message('note_off', channel=4, note=45, velocity=95, time=0),
    Message('note_on', channel=4, note=53, velocity=95, time=0),
    Message('note_on', channel=4, note=48, velocity=95, time=0),
    Message('note_on', channel=4, note=41, velocity=95, time=0),
    Message('note_off', channel=4, note=53, velocity=95, time=480),
    Message('note_off', channel=4, note=48, velocity=95, time=0),
    Message('note_off', channel=4, note=41, velocity=95, time=0),
    Message('note_on', channel=4, note=53, velocity=95, time=0),
    Message('note_on', channel=4, note=48, velocity=95, time=0),
    Message('note_on', channel=4, note=41, velocity=95, time=0),
    Message('note_off', channel=4, note=53, velocity=95, time=480),
    Message('note_off', channel=4, note=48, velocity=95, time=0),
    Message('note_off', channel=4, note=41, velocity=95, time=0),
    Message('note_on', channel=4, note=53, velocity=95, time=0),
    Message('note_on', channel=4, note=48, velocity=95, time=0),
    Message('note_on', channel=4, note=41, velocity=95, time=0),
    Message('note_off', channel=4, note=53, velocity=95, time=480),
    Message('note_off', channel=4, note=48, velocity=95, time=0),
    Message('note_off', channel=4, note=41, velocity=95, time=0),
    Message('note_on', channel=4, note=53, velocity=95, time=0),
    Message('note_on', channel=4, note=48, velocity=95, time=0),
    Message('note_on', channel=4, note=41, velocity=95, time=0),
    Message('note_off', channel=4, note=53, velocity=95, time=480),
    Message('note_off', channel=4, note=48, velocity=95, time=0),
    Message('note_off', channel=4, note=41, velocity=95, time=0),
    Message('note_on', channel=4, note=53, velocity=95, time=0),
    Message('note_on', channel=4, note=48, velocity=95, time=0),
    Message('note_on', channel=4, note=41, velocity=95, time=0),
    Message('note_off', channel=4, note=53, velocity=95, time=480),
    Message('note_off', channel=4, note=48, velocity=95, time=0),
    Message('note_off', channel=4, note=41, velocity=95, time=0),
    Message('note_on', channel=4, note=53, velocity=95, time=0),
    Message('note_on', channel=4, note=48, velocity=95, time=0),
    Message('note_on', channel=4, note=41, velocity=95, time=0),
    Message('note_off', channel=4, note=53, velocity=95, time=480),
    Message('note_off', channel=4, note=48, velocity=95, time=0),
    Message('note_off', channel=4, note=41, velocity=95, time=0),
    Message('note_on', channel=4, note=53, velocity=95, time=0),
    Message('note_on', channel=4, note=48, velocity=95, time=0),
    Message('note_on', channel=4, note=41, velocity=95, time=0),
    Message('note_off', channel=4, note=53, velocity=95, time=480),
    Message('note_off', channel=4, note=48, velocity=95, time=0),
    Message('note_off', channel=4, note=41, velocity=95, time=0),
    Message('note_on', channel=4, note=53, velocity=95, time=0),
    Message('note_on', channel=4, note=48, velocity=95, time=0),
    Message('note_on', channel=4, note=41, velocity=95, time=0),
    Message('note_off', channel=4, note=53, velocity=95, time=480),
    Message('note_off', channel=4, note=48, velocity=95, time=0),
    Message('note_off', channel=4, note=41, velocity=95, time=0),
    Message('note_on', channel=4, note=55, velocity=95, time=0),
    Message('note_on', channel=4, note=50, velocity=95, time=0),
    Message('note_on', channel=4, note=43, velocity=95, time=0),
    Message('note_off', channel=4, note=55, velocity=95, time=480),
    Message('note_off', channel=4, note=50, velocity=95, time=0),
    Message('note_off', channel=4, note=43, velocity=95, time=0),
    Message('note_on', channel=4, note=55, velocity=95, time=0),
    Message('note_on', channel=4, note=50, velocity=95, time=0),
    Message('note_on', channel=4, note=43, velocity=95, time=0),
    Message('note_off', channel=4, note=55, velocity=95, time=480),
    Message('note_off', channel=4, note=50, velocity=95, time=0),
    Message('note_off', channel=4, note=43, velocity=95, time=0),
    Message('note_on', channel=4, note=55, velocity=95, time=0),
    Message('note_on', channel=4, note=50, velocity=95, time=0),
    Message('note_on', channel=4, note=43, velocity=95, time=0),
    Message('note_off', channel=4, note=55, velocity=95, time=480),
    Message('note_off', channel=4, note=50, velocity=95, time=0),
    Message('note_off', channel=4, note=43, velocity=95, time=0),
    Message('note_on', channel=4, note=55, velocity=95, time=0),
    Message('note_on', channel=4, note=50, velocity=95, time=0),
    Message('note_on', channel=4, note=43, velocity=95, time=0),
    Message('note_off', channel=4, note=55, velocity=95, time=480),
    Message('note_off', channel=4, note=50, velocity=95, time=0),
    Message('note_off', channel=4, note=43, velocity=95, time=0),
    Message('note_on', channel=4, note=55, velocity=95, time=0),
    Message('note_on', channel=4, note=50, velocity=95, time=0),
    Message('note_on', channel=4, note=43, velocity=95, time=0),
    Message('note_off', channel=4, note=55, velocity=95, time=480),
    Message('note_off', channel=4, note=50, velocity=95, time=0),
    Message('note_off', channel=4, note=43, velocity=95, time=0),
    Message('note_on', channel=4, note=55, velocity=95, time=0),
    Message('note_on', channel=4, note=50, velocity=95, time=0),
    Message('note_on', channel=4, note=43, velocity=95, time=0),
    Message('note_off', channel=4, note=55, velocity=95, time=480),
    Message('note_off', channel=4, note=50, velocity=95, time=0),
    Message('note_off', channel=4, note=43, velocity=95, time=0),
    Message('note_on', channel=4, note=55, velocity=95, time=0),
    Message('note_on', channel=4, note=50, velocity=95, time=0),
    Message('note_on', channel=4, note=43, velocity=95, time=0),
    Message('note_off', channel=4, note=55, velocity=95, time=480),
    Message('note_off', channel=4, note=50, velocity=95, time=0),
    Message('note_off', channel=4, note=43, velocity=95, time=0),
    Message('note_on', channel=4, note=55, velocity=95, time=0),
    Message('note_on', channel=4, note=50, velocity=95, time=0),
    Message('note_on', channel=4, note=43, velocity=95, time=0),
    Message('note_off', channel=4, note=55, velocity=95, time=480),
    Message('note_off', channel=4, note=50, velocity=95, time=0),
    Message('note_off', channel=4, note=43, velocity=95, time=0),
    Message('note_on', channel=4, note=57, velocity=95, time=0),
    Message('note_on', channel=4, note=52, velocity=95, time=0),
    Message('note_on', channel=4, note=45, velocity=95, time=0),
    Message('note_off', channel=4, note=57, velocity=95, time=480),
    Message('note_off', channel=4, note=52, velocity=95, time=0),
    Message('note_off', channel=4, note=45, velocity=95, time=0),
    Message('note_on', channel=4, note=57, velocity=95, time=0),
    Message('note_on', channel=4, note=52, velocity=95, time=0),
    Message('note_on', channel=4, note=45, velocity=95, time=0),
    Message('note_off', channel=4, note=57, velocity=95, time=480),
    Message('note_off', channel=4, note=52, velocity=95, time=0),
    Message('note_off', channel=4, note=45, velocity=95, time=0),
    Message('note_on', channel=4, note=57, velocity=95, time=0),
    Message('note_on', channel=4, note=52, velocity=95, time=0),
    Message('note_on', channel=4, note=45, velocity=95, time=0),
    Message('note_off', channel=4, note=57, velocity=95, time=480),
    Message('note_off', channel=4, note=52, velocity=95, time=0),
    Message('note_off', channel=4, note=45, velocity=95, time=0),
    Message('note_on', channel=4, note=57, velocity=95, time=0),
    Message('note_on', channel=4, note=52, velocity=95, time=0),
    Message('note_on', channel=4, note=45, velocity=95, time=0),
    Message('note_off', channel=4, note=57, velocity=95, time=480),
    Message('note_off', channel=4, note=52, velocity=95, time=0),
    Message('note_off', channel=4, note=45, velocity=95, time=0),
    Message('note_on', channel=4, note=57, velocity=95, time=0),
    Message('note_on', channel=4, note=52, velocity=95, time=0),
    Message('note_on', channel=4, note=45, velocity=95, time=0),
    Message('note_off', channel=4, note=57, velocity=95, time=480),
    Message('note_off', channel=4, note=52, velocity=95, time=0),
    Message('note_off', channel=4, note=45, velocity=95, time=0),
    Message('note_on', channel=4, note=57, velocity=95, time=0),
    Message('note_on', channel=4, note=52, velocity=95, time=0),
    Message('note_on', channel=4, note=45, velocity=95, time=0),
    Message('note_off', channel=4, note=57, velocity=95, time=480),
    Message('note_off', channel=4, note=52, velocity=95, time=0),
    Message('note_off', channel=4, note=45, velocity=95, time=0),
    Message('note_on', channel=4, note=57, velocity=95, time=0),
    Message('note_on', channel=4, note=52, velocity=95, time=0),
    Message('note_on', channel=4, note=45, velocity=95, time=0),
    Message('note_off', channel=4, note=57, velocity=95, time=480),
    Message('note_off', channel=4, note=52, velocity=95, time=0),
    Message('note_off', channel=4, note=45, velocity=95, time=0),
    Message('note_on', channel=4, note=57, velocity=95, time=0),
    Message('note_on', channel=4, note=52, velocity=95, time=0),
    Message('note_on', channel=4, note=45, velocity=95, time=0),
    Message('note_off', channel=4, note=57, velocity=95, time=480),
    Message('note_off', channel=4, note=52, velocity=95, time=0),
    Message('note_off', channel=4, note=45, velocity=95, time=0),
    Message('note_on', channel=4, note=57, velocity=95, time=0),
    Message('note_on', channel=4, note=52, velocity=95, time=0),
    Message('note_on', channel=4, note=45, velocity=95, time=0),
    Message('note_off', channel=4, note=57, velocity=95, time=480),
    Message('note_off', channel=4, note=52, velocity=95, time=0),
    Message('note_off', channel=4, note=45, velocity=95, time=0),
    Message('note_on', channel=4, note=57, velocity=95, time=0),
    Message('note_on', channel=4, note=52, velocity=95, time=0),
    Message('note_on', channel=4, note=45, velocity=95, time=0),
    Message('note_off', channel=4, note=57, velocity=95, time=480),
    Message('note_off', channel=4, note=52, velocity=95, time=0),
    Message('note_off', channel=4, note=45, velocity=95, time=0),
    Message('note_on', channel=4, note=57, velocity=95, time=0),
    Message('note_on', channel=4, note=52, velocity=95, time=0),
    Message('note_on', channel=4, note=45, velocity=95, time=0),
    Message('note_off', channel=4, note=57, velocity=95, time=480),
    Message('note_off', channel=4, note=52, velocity=95, time=0),
    Message('note_off', channel=4, note=45, velocity=95, time=0),
    Message('note_on', channel=4, note=57, velocity=95, time=0),
    Message('note_on', channel=4, note=52, velocity=95, time=0),
    Message('note_on', channel=4, note=45, velocity=95, time=0),
    Message('note_off', channel=4, note=57, velocity=95, time=480),
    Message('note_off', channel=4, note=52, velocity=95, time=0),
    Message('note_off', channel=4, note=45, velocity=95, time=0),
    Message('note_on', channel=4, note=57, velocity=95, time=0),
    Message('note_on', channel=4, note=52, velocity=95, time=0),
    Message('note_on', channel=4, note=45, velocity=95, time=0),
    Message('note_off', channel=4, note=57, velocity=95, time=480),
    Message('note_off', channel=4, note=52, velocity=95, time=0),
    Message('note_off', channel=4, note=45, velocity=95, time=0),
    Message('note_on', channel=4, note=57, velocity=95, time=0),
    Message('note_on', channel=4, note=52, velocity=95, time=0),
    Message('note_on', channel=4, note=45, velocity=95, time=0),
    Message('note_off', channel=4, note=57, velocity=95, time=480),
    Message('note_off', channel=4, note=52, velocity=95, time=0),
    Message('note_off', channel=4, note=45, velocity=95, time=0),
    Message('note_on', channel=4, note=57, velocity=95, time=0),
    Message('note_on', channel=4, note=52, velocity=95, time=0),
    Message('note_on', channel=4, note=45, velocity=95, time=0),
    Message('note_off', channel=4, note=57, velocity=95, time=480),
    Message('note_off', channel=4, note=52, velocity=95, time=0),
    Message('note_off', channel=4, note=45, velocity=95, time=0),
    Message('note_on', channel=4, note=57, velocity=95, time=0),
    Message('note_on', channel=4, note=52, velocity=95, time=0),
    Message('note_on', channel=4, note=45, velocity=95, time=0),
    Message('note_off', channel=4, note=57, velocity=95, time=480),
    Message('note_off', channel=4, note=52, velocity=95, time=0),
    Message('note_off', channel=4, note=45, velocity=95, time=0),
    Message('note_on', channel=4, note=53, velocity=95, time=0),
    Message('note_on', channel=4, note=48, velocity=95, time=0),
    Message('note_on', channel=4, note=41, velocity=95, time=0),
    Message('note_off', channel=4, note=53, velocity=95, time=480),
    Message('note_off', channel=4, note=48, velocity=95, time=0),
    Message('note_off', channel=4, note=41, velocity=95, time=0),
    Message('note_on', channel=4, note=53, velocity=95, time=0),
    Message('note_on', channel=4, note=48, velocity=95, time=0),
    Message('note_on', channel=4, note=41, velocity=95, time=0),
    Message('note_off', channel=4, note=53, velocity=95, time=480),
    Message('note_off', channel=4, note=48, velocity=95, time=0),
    Message('note_off', channel=4, note=41, velocity=95, time=0),
    Message('note_on', channel=4, note=53, velocity=95, time=0),
    Message('note_on', channel=4, note=48, velocity=95, time=0),
    Message('note_on', channel=4, note=41, velocity=95, time=0),
    Message('note_off', channel=4, note=53, velocity=95, time=480),
    Message('note_off', channel=4, note=48, velocity=95, time=0),
    Message('note_off', channel=4, note=41, velocity=95, time=0),
    Message('note_on', channel=4, note=53, velocity=95, time=0),
    Message('note_on', channel=4, note=48, velocity=95, time=0),
    Message('note_on', channel=4, note=41, velocity=95, time=0),
    Message('note_off', channel=4, note=53, velocity=95, time=480),
    Message('note_off', channel=4, note=48, velocity=95, time=0),
    Message('note_off', channel=4, note=41, velocity=95, time=0),
    Message('note_on', channel=4, note=53, velocity=95, time=0),
    Message('note_on', channel=4, note=48, velocity=95, time=0),
    Message('note_on', channel=4, note=41, velocity=95, time=0),
    Message('note_off', channel=4, note=53, velocity=95, time=480),
    Message('note_off', channel=4, note=48, velocity=95, time=0),
    Message('note_off', channel=4, note=41, velocity=95, time=0),
    Message('note_on', channel=4, note=53, velocity=95, time=0),
    Message('note_on', channel=4, note=48, velocity=95, time=0),
    Message('note_on', channel=4, note=41, velocity=95, time=0),
    Message('note_off', channel=4, note=53, velocity=95, time=480),
    Message('note_off', channel=4, note=48, velocity=95, time=0),
    Message('note_off', channel=4, note=41, velocity=95, time=0),
    Message('note_on', channel=4, note=53, velocity=95, time=0),
    Message('note_on', channel=4, note=48, velocity=95, time=0),
    Message('note_on', channel=4, note=41, velocity=95, time=0),
    Message('note_off', channel=4, note=53, velocity=95, time=480),
    Message('note_off', channel=4, note=48, velocity=95, time=0),
    Message('note_off', channel=4, note=41, velocity=95, time=0),
    Message('note_on', channel=4, note=53, velocity=95, time=0),
    Message('note_on', channel=4, note=48, velocity=95, time=0),
    Message('note_on', channel=4, note=41, velocity=95, time=0),
    Message('note_off', channel=4, note=53, velocity=95, time=480),
    Message('note_off', channel=4, note=48, velocity=95, time=0),
    Message('note_off', channel=4, note=41, velocity=95, time=0),
    Message('note_on', channel=4, note=55, velocity=95, time=0),
    Message('note_on', channel=4, note=50, velocity=95, time=0),
    Message('note_on', channel=4, note=43, velocity=95, time=0),
    Message('note_off', channel=4, note=55, velocity=95, time=480),
    Message('note_off', channel=4, note=50, velocity=95, time=0),
    Message('note_off', channel=4, note=43, velocity=95, time=0),
    Message('note_on', channel=4, note=55, velocity=95, time=0),
    Message('note_on', channel=4, note=50, velocity=95, time=0),
    Message('note_on', channel=4, note=43, velocity=95, time=0),
    Message('note_off', channel=4, note=55, velocity=95, time=480),
    Message('note_off', channel=4, note=50, velocity=95, time=0),
    Message('note_off', channel=4, note=43, velocity=95, time=0),
    Message('note_on', channel=4, note=55, velocity=95, time=0),
    Message('note_on', channel=4, note=50, velocity=95, time=0),
    Message('note_on', channel=4, note=43, velocity=95, time=0),
    Message('note_off', channel=4, note=55, velocity=95, time=480),
    Message('note_off', channel=4, note=50, velocity=95, time=0),
    Message('note_off', channel=4, note=43, velocity=95, time=0),
    Message('note_on', channel=4, note=55, velocity=95, time=0),
    Message('note_on', channel=4, note=50, velocity=95, time=0),
    Message('note_on', channel=4, note=43, velocity=95, time=0),
    Message('note_off', channel=4, note=55, velocity=95, time=480),
    Message('note_off', channel=4, note=50, velocity=95, time=0),
    Message('note_off', channel=4, note=43, velocity=95, time=0),
    Message('note_on', channel=4, note=55, velocity=95, time=0),
    Message('note_on', channel=4, note=50, velocity=95, time=0),
    Message('note_on', channel=4, note=43, velocity=95, time=0),
    Message('note_off', channel=4, note=55, velocity=95, time=480),
    Message('note_off', channel=4, note=50, velocity=95, time=0),
    Message('note_off', channel=4, note=43, velocity=95, time=0),
    Message('note_on', channel=4, note=55, velocity=95, time=0),
    Message('note_on', channel=4, note=50, velocity=95, time=0),
    Message('note_on', channel=4, note=43, velocity=95, time=0),
    Message('note_off', channel=4, note=55, velocity=95, time=480),
    Message('note_off', channel=4, note=50, velocity=95, time=0),
    Message('note_off', channel=4, note=43, velocity=95, time=0),
    Message('note_on', channel=4, note=55, velocity=95, time=0),
    Message('note_on', channel=4, note=50, velocity=95, time=0),
    Message('note_on', channel=4, note=43, velocity=95, time=0),
    Message('note_off', channel=4, note=55, velocity=95, time=480),
    Message('note_off', channel=4, note=50, velocity=95, time=0),
    Message('note_off', channel=4, note=43, velocity=95, time=0),
    Message('note_on', channel=4, note=55, velocity=95, time=0),
    Message('note_on', channel=4, note=50, velocity=95, time=0),
    Message('note_on', channel=4, note=43, velocity=95, time=0),
    Message('note_off', channel=4, note=55, velocity=95, time=480),
    Message('note_off', channel=4, note=50, velocity=95, time=0),
    Message('note_off', channel=4, note=43, velocity=95, time=0),
    Message('note_on', channel=4, note=57, velocity=95, time=0),
    Message('note_on', channel=4, note=52, velocity=95, time=0),
    Message('note_on', channel=4, note=45, velocity=95, time=0),
    Message('note_off', channel=4, note=57, velocity=95, time=480),
    Message('note_off', channel=4, note=52, velocity=95, time=0),
    Message('note_off', channel=4, note=45, velocity=95, time=0),
    Message('note_on', channel=4, note=57, velocity=95, time=0),
    Message('note_on', channel=4, note=52, velocity=95, time=0),
    Message('note_on', channel=4, note=45, velocity=95, time=0),
    Message('note_off', channel=4, note=57, velocity=95, time=480),
    Message('note_off', channel=4, note=52, velocity=95, time=0),
    Message('note_off', channel=4, note=45, velocity=95, time=0),
    Message('note_on', channel=4, note=57, velocity=95, time=0),
    Message('note_on', channel=4, note=52, velocity=95, time=0),
    Message('note_on', channel=4, note=45, velocity=95, time=0),
    Message('note_off', channel=4, note=57, velocity=95, time=480),
    Message('note_off', channel=4, note=52, velocity=95, time=0),
    Message('note_off', channel=4, note=45, velocity=95, time=0),
    Message('note_on', channel=4, note=57, velocity=95, time=0),
    Message('note_on', channel=4, note=52, velocity=95, time=0),
    Message('note_on', channel=4, note=45, velocity=95, time=0),
    Message('note_off', channel=4, note=57, velocity=95, time=480),
    Message('note_off', channel=4, note=52, velocity=95, time=0),
    Message('note_off', channel=4, note=45, velocity=95, time=0),
    Message('note_on', channel=4, note=57, velocity=95, time=0),
    Message('note_on', channel=4, note=52, velocity=95, time=0),
    Message('note_on', channel=4, note=45, velocity=95, time=0),
    Message('note_off', channel=4, note=57, velocity=95, time=480),
    Message('note_off', channel=4, note=52, velocity=95, time=0),
    Message('note_off', channel=4, note=45, velocity=95, time=0),
    Message('note_on', channel=4, note=57, velocity=95, time=0),
    Message('note_on', channel=4, note=52, velocity=95, time=0),
    Message('note_on', channel=4, note=45, velocity=95, time=0),
    Message('note_off', channel=4, note=57, velocity=95, time=480),
    Message('note_off', channel=4, note=52, velocity=95, time=0),
    Message('note_off', channel=4, note=45, velocity=95, time=0),
    Message('note_on', channel=4, note=57, velocity=95, time=0),
    Message('note_on', channel=4, note=52, velocity=95, time=0),
    Message('note_on', channel=4, note=45, velocity=95, time=0),
    Message('note_off', channel=4, note=57, velocity=95, time=480),
    Message('note_off', channel=4, note=52, velocity=95, time=0),
    Message('note_off', channel=4, note=45, velocity=95, time=0),
    Message('note_on', channel=4, note=57, velocity=95, time=0),
    Message('note_on', channel=4, note=52, velocity=95, time=0),
    Message('note_on', channel=4, note=45, velocity=95, time=0),
    Message('note_off', channel=4, note=57, velocity=95, time=480),
    Message('note_off', channel=4, note=52, velocity=95, time=0),
    Message('note_off', channel=4, note=45, velocity=95, time=0),
    Message('note_on', channel=4, note=57, velocity=95, time=0),
    Message('note_on', channel=4, note=52, velocity=95, time=0),
    Message('note_on', channel=4, note=45, velocity=95, time=0),
    Message('note_off', channel=4, note=57, velocity=95, time=480),
    Message('note_off', channel=4, note=52, velocity=95, time=0),
    Message('note_off', channel=4, note=45, velocity=95, time=0),
    Message('note_on', channel=4, note=57, velocity=95, time=0),
    Message('note_on', channel=4, note=52, velocity=95, time=0),
    Message('note_on', channel=4, note=45, velocity=95, time=0),
    Message('note_off', channel=4, note=57, velocity=95, time=480),
    Message('note_off', channel=4, note=52, velocity=95, time=0),
    Message('note_off', channel=4, note=45, velocity=95, time=0),
    Message('note_on', channel=4, note=57, velocity=95, time=0),
    Message('note_on', channel=4, note=52, velocity=95, time=0),
    Message('note_on', channel=4, note=45, velocity=95, time=0),
    Message('note_off', channel=4, note=57, velocity=95, time=480),
    Message('note_off', channel=4, note=52, velocity=95, time=0),
    Message('note_off', channel=4, note=45, velocity=95, time=0),
    Message('note_on', channel=4, note=57, velocity=95, time=0),
    Message('note_on', channel=4, note=52, velocity=95, time=0),
    Message('note_on', channel=4, note=45, velocity=95, time=0),
    Message('note_off', channel=4, note=57, velocity=95, time=480),
    Message('note_off', channel=4, note=52, velocity=95, time=0),
    Message('note_off', channel=4, note=45, velocity=95, time=0),
    Message('note_on', channel=4, note=57, velocity=95, time=0),
    Message('note_on', channel=4, note=52, velocity=95, time=0),
    Message('note_on', channel=4, note=45, velocity=95, time=0),
    Message('note_off', channel=4, note=57, velocity=95, time=480),
    Message('note_off', channel=4, note=52, velocity=95, time=0),
    Message('note_off', channel=4, note=45, velocity=95, time=0),
    Message('note_on', channel=4, note=57, velocity=95, time=0),
    Message('note_on', channel=4, note=52, velocity=95, time=0),
    Message('note_on', channel=4, note=45, velocity=95, time=0),
    Message('note_off', channel=4, note=57, velocity=95, time=480),
    Message('note_off', channel=4, note=52, velocity=95, time=0),
    Message('note_off', channel=4, note=45, velocity=95, time=0),
    Message('note_on', channel=4, note=57, velocity=95, time=0),
    Message('note_on', channel=4, note=52, velocity=95, time=0),
    Message('note_on', channel=4, note=45, velocity=95, time=0),
    Message('note_off', channel=4, note=57, velocity=95, time=480),
    Message('note_off', channel=4, note=52, velocity=95, time=0),
    Message('note_off', channel=4, note=45, velocity=95, time=0),
    Message('note_on', channel=4, note=57, velocity=95, time=0),
    Message('note_on', channel=4, note=52, velocity=95, time=0),
    Message('note_on', channel=4, note=45, velocity=95, time=0),
    Message('note_off', channel=4, note=57, velocity=95, time=480),
    Message('note_off', channel=4, note=52, velocity=95, time=0),
    Message('note_off', channel=4, note=45, velocity=95, time=0),
    Message('note_on', channel=4, note=53, velocity=95, time=0),
    Message('note_on', channel=4, note=48, velocity=95, time=0),
    Message('note_on', channel=4, note=41, velocity=95, time=0),
    Message('note_off', channel=4, note=53, velocity=95, time=480),
    Message('note_off', channel=4, note=48, velocity=95, time=0),
    Message('note_off', channel=4, note=41, velocity=95, time=0),
    Message('note_on', channel=4, note=53, velocity=95, time=0),
    Message('note_on', channel=4, note=48, velocity=95, time=0),
    Message('note_on', channel=4, note=41, velocity=95, time=0),
    Message('note_off', channel=4, note=53, velocity=95, time=480),
    Message('note_off', channel=4, note=48, velocity=95, time=0),
    Message('note_off', channel=4, note=41, velocity=95, time=0),
    Message('note_on', channel=4, note=53, velocity=95, time=0),
    Message('note_on', channel=4, note=48, velocity=95, time=0),
    Message('note_on', channel=4, note=41, velocity=95, time=0),
    Message('note_off', channel=4, note=53, velocity=95, time=480),
    Message('note_off', channel=4, note=48, velocity=95, time=0),
    Message('note_off', channel=4, note=41, velocity=95, time=0),
    Message('note_on', channel=4, note=53, velocity=95, time=0),
    Message('note_on', channel=4, note=48, velocity=95, time=0),
    Message('note_on', channel=4, note=41, velocity=95, time=0),
    Message('note_off', channel=4, note=53, velocity=95, time=480),
    Message('note_off', channel=4, note=48, velocity=95, time=0),
    Message('note_off', channel=4, note=41, velocity=95, time=0),
    Message('note_on', channel=4, note=53, velocity=95, time=0),
    Message('note_on', channel=4, note=48, velocity=95, time=0),
    Message('note_on', channel=4, note=41, velocity=95, time=0),
    Message('note_off', channel=4, note=53, velocity=95, time=480),
    Message('note_off', channel=4, note=48, velocity=95, time=0),
    Message('note_off', channel=4, note=41, velocity=95, time=0),
    Message('note_on', channel=4, note=53, velocity=95, time=0),
    Message('note_on', channel=4, note=48, velocity=95, time=0),
    Message('note_on', channel=4, note=41, velocity=95, time=0),
    Message('note_off', channel=4, note=53, velocity=95, time=480),
    Message('note_off', channel=4, note=48, velocity=95, time=0),
    Message('note_off', channel=4, note=41, velocity=95, time=0),
    Message('note_on', channel=4, note=53, velocity=95, time=0),
    Message('note_on', channel=4, note=48, velocity=95, time=0),
    Message('note_on', channel=4, note=41, velocity=95, time=0),
    Message('note_off', channel=4, note=53, velocity=95, time=480),
    Message('note_off', channel=4, note=48, velocity=95, time=0),
    Message('note_off', channel=4, note=41, velocity=95, time=0),
    Message('note_on', channel=4, note=53, velocity=95, time=0),
    Message('note_on', channel=4, note=48, velocity=95, time=0),
    Message('note_on', channel=4, note=41, velocity=95, time=0),
    Message('note_off', channel=4, note=53, velocity=95, time=480),
    Message('note_off', channel=4, note=48, velocity=95, time=0),
    Message('note_off', channel=4, note=41, velocity=95, time=0),
    Message('note_on', channel=4, note=55, velocity=95, time=0),
    Message('note_on', channel=4, note=50, velocity=95, time=0),
    Message('note_on', channel=4, note=43, velocity=95, time=0),
    Message('note_off', channel=4, note=55, velocity=95, time=480),
    Message('note_off', channel=4, note=50, velocity=95, time=0),
    Message('note_off', channel=4, note=43, velocity=95, time=0),
    Message('note_on', channel=4, note=55, velocity=95, time=0),
    Message('note_on', channel=4, note=50, velocity=95, time=0),
    Message('note_on', channel=4, note=43, velocity=95, time=0),
    Message('note_off', channel=4, note=55, velocity=95, time=480),
    Message('note_off', channel=4, note=50, velocity=95, time=0),
    Message('note_off', channel=4, note=43, velocity=95, time=0),
    Message('note_on', channel=4, note=55, velocity=95, time=0),
    Message('note_on', channel=4, note=50, velocity=95, time=0),
    Message('note_on', channel=4, note=43, velocity=95, time=0),
    Message('note_off', channel=4, note=55, velocity=95, time=480),
    Message('note_off', channel=4, note=50, velocity=95, time=0),
    Message('note_off', channel=4, note=43, velocity=95, time=0),
    Message('note_on', channel=4, note=55, velocity=95, time=0),
    Message('note_on', channel=4, note=50, velocity=95, time=0),
    Message('note_on', channel=4, note=43, velocity=95, time=0),
    Message('note_off', channel=4, note=55, velocity=95, time=480),
    Message('note_off', channel=4, note=50, velocity=95, time=0),
    Message('note_off', channel=4, note=43, velocity=95, time=0),
    Message('note_on', channel=4, note=55, velocity=95, time=0),
    Message('note_on', channel=4, note=50, velocity=95, time=0),
    Message('note_on', channel=4, note=43, velocity=95, time=0),
    Message('note_off', channel=4, note=55, velocity=95, time=480),
    Message('note_off', channel=4, note=50, velocity=95, time=0),
    Message('note_off', channel=4, note=43, velocity=95, time=0),
    Message('note_on', channel=4, note=55, velocity=95, time=0),
    Message('note_on', channel=4, note=50, velocity=95, time=0),
    Message('note_on', channel=4, note=43, velocity=95, time=0),
    Message('note_off', channel=4, note=55, velocity=95, time=480),
    Message('note_off', channel=4, note=50, velocity=95, time=0),
    Message('note_off', channel=4, note=43, velocity=95, time=0),
    Message('note_on', channel=4, note=55, velocity=95, time=0),
    Message('note_on', channel=4, note=50, velocity=95, time=0),
    Message('note_on', channel=4, note=43, velocity=95, time=0),
    Message('note_off', channel=4, note=55, velocity=95, time=480),
    Message('note_off', channel=4, note=50, velocity=95, time=0),
    Message('note_off', channel=4, note=43, velocity=95, time=0),
    Message('note_on', channel=4, note=55, velocity=95, time=0),
    Message('note_on', channel=4, note=50, velocity=95, time=0),
    Message('note_on', channel=4, note=43, velocity=95, time=0),
    Message('note_off', channel=4, note=55, velocity=95, time=480),
    Message('note_off', channel=4, note=50, velocity=95, time=0),
    Message('note_off', channel=4, note=43, velocity=95, time=0),
    Message('note_on', channel=4, note=57, velocity=95, time=0),
    Message('note_on', channel=4, note=52, velocity=95, time=0),
    Message('note_on', channel=4, note=45, velocity=95, time=0),
    Message('note_off', channel=4, note=57, velocity=95, time=480),
    Message('note_off', channel=4, note=52, velocity=95, time=0),
    Message('note_off', channel=4, note=45, velocity=95, time=0),
    Message('note_on', channel=4, note=57, velocity=95, time=0),
    Message('note_on', channel=4, note=52, velocity=95, time=0),
    Message('note_on', channel=4, note=45, velocity=95, time=0),
    Message('note_off', channel=4, note=57, velocity=95, time=480),
    Message('note_off', channel=4, note=52, velocity=95, time=0),
    Message('note_off', channel=4, note=45, velocity=95, time=0),
    Message('note_on', channel=4, note=57, velocity=95, time=0),
    Message('note_on', channel=4, note=52, velocity=95, time=0),
    Message('note_on', channel=4, note=45, velocity=95, time=0),
    Message('note_off', channel=4, note=57, velocity=95, time=480),
    Message('note_off', channel=4, note=52, velocity=95, time=0),
    Message('note_off', channel=4, note=45, velocity=95, time=0),
    Message('note_on', channel=4, note=57, velocity=95, time=0),
    Message('note_on', channel=4, note=52, velocity=95, time=0),
    Message('note_on', channel=4, note=45, velocity=95, time=0),
    Message('note_off', channel=4, note=57, velocity=95, time=480),
    Message('note_off', channel=4, note=52, velocity=95, time=0),
    Message('note_off', channel=4, note=45, velocity=95, time=0),
    Message('note_on', channel=4, note=57, velocity=95, time=0),
    Message('note_on', channel=4, note=52, velocity=95, time=0),
    Message('note_on', channel=4, note=45, velocity=95, time=0),
    Message('note_off', channel=4, note=57, velocity=95, time=480),
    Message('note_off', channel=4, note=52, velocity=95, time=0),
    Message('note_off', channel=4, note=45, velocity=95, time=0),
    Message('note_on', channel=4, note=57, velocity=95, time=0),
    Message('note_on', channel=4, note=52, velocity=95, time=0),
    Message('note_on', channel=4, note=45, velocity=95, time=0),
    Message('note_off', channel=4, note=57, velocity=95, time=480),
    Message('note_off', channel=4, note=52, velocity=95, time=0),
    Message('note_off', channel=4, note=45, velocity=95, time=0),
    Message('note_on', channel=4, note=57, velocity=95, time=0),
    Message('note_on', channel=4, note=52, velocity=95, time=0),
    Message('note_on', channel=4, note=45, velocity=95, time=0),
    Message('note_off', channel=4, note=57, velocity=95, time=480),
    Message('note_off', channel=4, note=52, velocity=95, time=0),
    Message('note_off', channel=4, note=45, velocity=95, time=0),
    Message('note_on', channel=4, note=57, velocity=95, time=0),
    Message('note_on', channel=4, note=52, velocity=95, time=0),
    Message('note_on', channel=4, note=45, velocity=95, time=0),
    Message('note_off', channel=4, note=57, velocity=95, time=480),
    Message('note_off', channel=4, note=52, velocity=95, time=0),
    Message('note_off', channel=4, note=45, velocity=95, time=0),
    Message('note_on', channel=4, note=57, velocity=95, time=0),
    Message('note_on', channel=4, note=52, velocity=95, time=0),
    Message('note_on', channel=4, note=45, velocity=95, time=0),
    Message('note_off', channel=4, note=57, velocity=95, time=480),
    Message('note_off', channel=4, note=52, velocity=95, time=0),
    Message('note_off', channel=4, note=45, velocity=95, time=0),
    Message('note_on', channel=4, note=57, velocity=95, time=0),
    Message('note_on', channel=4, note=52, velocity=95, time=0),
    Message('note_on', channel=4, note=45, velocity=95, time=0),
    Message('note_off', channel=4, note=57, velocity=95, time=480),
    Message('note_off', channel=4, note=52, velocity=95, time=0),
    Message('note_off', channel=4, note=45, velocity=95, time=0),
    Message('note_on', channel=4, note=57, velocity=95, time=0),
    Message('note_on', channel=4, note=52, velocity=95, time=0),
    Message('note_on', channel=4, note=45, velocity=95, time=0),
    Message('note_off', channel=4, note=57, velocity=95, time=480),
    Message('note_off', channel=4, note=52, velocity=95, time=0),
    Message('note_off', channel=4, note=45, velocity=95, time=0),
    Message('note_on', channel=4, note=57, velocity=95, time=0),
    Message('note_on', channel=4, note=52, velocity=95, time=0),
    Message('note_on', channel=4, note=45, velocity=95, time=0),
    Message('note_off', channel=4, note=57, velocity=95, time=480),
    Message('note_off', channel=4, note=52, velocity=95, time=0),
    Message('note_off', channel=4, note=45, velocity=95, time=0),
    Message('note_on', channel=4, note=57, velocity=95, time=0),
    Message('note_on', channel=4, note=52, velocity=95, time=0),
    Message('note_on', channel=4, note=45, velocity=95, time=0),
    Message('note_off', channel=4, note=57, velocity=95, time=480),
    Message('note_off', channel=4, note=52, velocity=95, time=0),
    Message('note_off', channel=4, note=45, velocity=95, time=0),
    Message('note_on', channel=4, note=57, velocity=95, time=0),
    Message('note_on', channel=4, note=52, velocity=95, time=0),
    Message('note_on', channel=4, note=45, velocity=95, time=0),
    Message('note_off', channel=4, note=57, velocity=95, time=480),
    Message('note_off', channel=4, note=52, velocity=95, time=0),
    Message('note_off', channel=4, note=45, velocity=95, time=0),
    Message('note_on', channel=4, note=57, velocity=95, time=0),
    Message('note_on', channel=4, note=52, velocity=95, time=0),
    Message('note_on', channel=4, note=45, velocity=95, time=0),
    Message('note_off', channel=4, note=57, velocity=95, time=480),
    Message('note_off', channel=4, note=52, velocity=95, time=0),
    Message('note_off', channel=4, note=45, velocity=95, time=0),
    Message('note_on', channel=4, note=57, velocity=95, time=0),
    Message('note_on', channel=4, note=52, velocity=95, time=0),
    Message('note_on', channel=4, note=45, velocity=95, time=0),
    Message('note_off', channel=4, note=57, velocity=95, time=480),
    Message('note_off', channel=4, note=52, velocity=95, time=0),
    Message('note_off', channel=4, note=45, velocity=95, time=0),
    Message('note_on', channel=4, note=53, velocity=95, time=0),
    Message('note_on', channel=4, note=48, velocity=95, time=0),
    Message('note_on', channel=4, note=41, velocity=95, time=0),
    Message('note_off', channel=4, note=53, velocity=95, time=480),
    Message('note_off', channel=4, note=48, velocity=95, time=0),
    Message('note_off', channel=4, note=41, velocity=95, time=0),
    Message('note_on', channel=4, note=53, velocity=95, time=0),
    Message('note_on', channel=4, note=48, velocity=95, time=0),
    Message('note_on', channel=4, note=41, velocity=95, time=0),
    Message('note_off', channel=4, note=53, velocity=95, time=480),
    Message('note_off', channel=4, note=48, velocity=95, time=0),
    Message('note_off', channel=4, note=41, velocity=95, time=0),
    Message('note_on', channel=4, note=53, velocity=95, time=0),
    Message('note_on', channel=4, note=48, velocity=95, time=0),
    Message('note_on', channel=4, note=41, velocity=95, time=0),
    Message('note_off', channel=4, note=53, velocity=95, time=480),
    Message('note_off', channel=4, note=48, velocity=95, time=0),
    Message('note_off', channel=4, note=41, velocity=95, time=0),
    Message('note_on', channel=4, note=53, velocity=95, time=0),
    Message('note_on', channel=4, note=48, velocity=95, time=0),
    Message('note_on', channel=4, note=41, velocity=95, time=0),
    Message('note_off', channel=4, note=53, velocity=95, time=480),
    Message('note_off', channel=4, note=48, velocity=95, time=0),
    Message('note_off', channel=4, note=41, velocity=95, time=0),
    Message('note_on', channel=4, note=53, velocity=95, time=0),
    Message('note_on', channel=4, note=48, velocity=95, time=0),
    Message('note_on', channel=4, note=41, velocity=95, time=0),
    Message('note_off', channel=4, note=53, velocity=95, time=480),
    Message('note_off', channel=4, note=48, velocity=95, time=0),
    Message('note_off', channel=4, note=41, velocity=95, time=0),
    Message('note_on', channel=4, note=53, velocity=95, time=0),
    Message('note_on', channel=4, note=48, velocity=95, time=0),
    Message('note_on', channel=4, note=41, velocity=95, time=0),
    Message('note_off', channel=4, note=53, velocity=95, time=480),
    Message('note_off', channel=4, note=48, velocity=95, time=0),
    Message('note_off', channel=4, note=41, velocity=95, time=0),
    Message('note_on', channel=4, note=53, velocity=95, time=0),
    Message('note_on', channel=4, note=48, velocity=95, time=0),
    Message('note_on', channel=4, note=41, velocity=95, time=0),
    Message('note_off', channel=4, note=53, velocity=95, time=480),
    Message('note_off', channel=4, note=48, velocity=95, time=0),
    Message('note_off', channel=4, note=41, velocity=95, time=0),
    Message('note_on', channel=4, note=53, velocity=95, time=0),
    Message('note_on', channel=4, note=48, velocity=95, time=0),
    Message('note_on', channel=4, note=41, velocity=95, time=0),
    Message('note_off', channel=4, note=53, velocity=95, time=480),
    Message('note_off', channel=4, note=48, velocity=95, time=0),
    Message('note_off', channel=4, note=41, velocity=95, time=0),
    Message('note_on', channel=4, note=55, velocity=95, time=0),
    Message('note_on', channel=4, note=50, velocity=95, time=0),
    Message('note_on', channel=4, note=43, velocity=95, time=0),
    Message('note_off', channel=4, note=55, velocity=95, time=480),
    Message('note_off', channel=4, note=50, velocity=95, time=0),
    Message('note_off', channel=4, note=43, velocity=95, time=0),
    Message('note_on', channel=4, note=55, velocity=95, time=0),
    Message('note_on', channel=4, note=50, velocity=95, time=0),
    Message('note_on', channel=4, note=43, velocity=95, time=0),
    Message('note_off', channel=4, note=55, velocity=95, time=480),
    Message('note_off', channel=4, note=50, velocity=95, time=0),
    Message('note_off', channel=4, note=43, velocity=95, time=0),
    Message('note_on', channel=4, note=55, velocity=95, time=0),
    Message('note_on', channel=4, note=50, velocity=95, time=0),
    Message('note_on', channel=4, note=43, velocity=95, time=0),
    Message('note_off', channel=4, note=55, velocity=95, time=480),
    Message('note_off', channel=4, note=50, velocity=95, time=0),
    Message('note_off', channel=4, note=43, velocity=95, time=0),
    Message('note_on', channel=4, note=55, velocity=95, time=0),
    Message('note_on', channel=4, note=50, velocity=95, time=0),
    Message('note_on', channel=4, note=43, velocity=95, time=0),
    Message('note_off', channel=4, note=55, velocity=95, time=480),
    Message('note_off', channel=4, note=50, velocity=95, time=0),
    Message('note_off', channel=4, note=43, velocity=95, time=0),
    Message('note_on', channel=4, note=55, velocity=95, time=0),
    Message('note_on', channel=4, note=50, velocity=95, time=0),
    Message('note_on', channel=4, note=43, velocity=95, time=0),
    Message('note_off', channel=4, note=55, velocity=95, time=480),
    Message('note_off', channel=4, note=50, velocity=95, time=0),
    Message('note_off', channel=4, note=43, velocity=95, time=0),
    Message('note_on', channel=4, note=55, velocity=95, time=0),
    Message('note_on', channel=4, note=50, velocity=95, time=0),
    Message('note_on', channel=4, note=43, velocity=95, time=0),
    Message('note_off', channel=4, note=55, velocity=95, time=480),
    Message('note_off', channel=4, note=50, velocity=95, time=0),
    Message('note_off', channel=4, note=43, velocity=95, time=0),
    Message('note_on', channel=4, note=55, velocity=95, time=0),
    Message('note_on', channel=4, note=50, velocity=95, time=0),
    Message('note_on', channel=4, note=43, velocity=95, time=0),
    Message('note_off', channel=4, note=55, velocity=95, time=480),
    Message('note_off', channel=4, note=50, velocity=95, time=0),
    Message('note_off', channel=4, note=43, velocity=95, time=0),
    Message('note_on', channel=4, note=55, velocity=95, time=0),
    Message('note_on', channel=4, note=50, velocity=95, time=0),
    Message('note_on', channel=4, note=43, velocity=95, time=0),
    Message('note_off', channel=4, note=55, velocity=95, time=480),
    Message('note_off', channel=4, note=50, velocity=95, time=0),
    Message('note_off', channel=4, note=43, velocity=95, time=0),
    Message('note_on', channel=4, note=57, velocity=95, time=0),
    Message('note_on', channel=4, note=52, velocity=95, time=0),
    Message('note_on', channel=4, note=45, velocity=95, time=0),
    Message('note_off', channel=4, note=57, velocity=95, time=480),
    Message('note_off', channel=4, note=52, velocity=95, time=0),
    Message('note_off', channel=4, note=45, velocity=95, time=0),
    Message('note_on', channel=4, note=57, velocity=95, time=0),
    Message('note_on', channel=4, note=52, velocity=95, time=0),
    Message('note_on', channel=4, note=45, velocity=95, time=0),
    Message('note_off', channel=4, note=57, velocity=95, time=480),
    Message('note_off', channel=4, note=52, velocity=95, time=0),
    Message('note_off', channel=4, note=45, velocity=95, time=0),
    Message('note_on', channel=4, note=57, velocity=95, time=0),
    Message('note_on', channel=4, note=52, velocity=95, time=0),
    Message('note_on', channel=4, note=45, velocity=95, time=0),
    Message('note_off', channel=4, note=57, velocity=95, time=480),
    Message('note_off', channel=4, note=52, velocity=95, time=0),
    Message('note_off', channel=4, note=45, velocity=95, time=0),
    Message('note_on', channel=4, note=57, velocity=95, time=0),
    Message('note_on', channel=4, note=52, velocity=95, time=0),
    Message('note_on', channel=4, note=45, velocity=95, time=0),
    Message('note_off', channel=4, note=57, velocity=95, time=480),
    Message('note_off', channel=4, note=52, velocity=95, time=0),
    Message('note_off', channel=4, note=45, velocity=95, time=0),
    Message('note_on', channel=4, note=57, velocity=95, time=0),
    Message('note_on', channel=4, note=52, velocity=95, time=0),
    Message('note_on', channel=4, note=45, velocity=95, time=0),
    Message('note_off', channel=4, note=57, velocity=95, time=480),
    Message('note_off', channel=4, note=52, velocity=95, time=0),
    Message('note_off', channel=4, note=45, velocity=95, time=0),
    Message('note_on', channel=4, note=57, velocity=95, time=0),
    Message('note_on', channel=4, note=52, velocity=95, time=0),
    Message('note_on', channel=4, note=45, velocity=95, time=0),
    Message('note_off', channel=4, note=57, velocity=95, time=480),
    Message('note_off', channel=4, note=52, velocity=95, time=0),
    Message('note_off', channel=4, note=45, velocity=95, time=0),
    Message('note_on', channel=4, note=57, velocity=95, time=0),
    Message('note_on', channel=4, note=52, velocity=95, time=0),
    Message('note_on', channel=4, note=45, velocity=95, time=0),
    Message('note_off', channel=4, note=57, velocity=95, time=480),
    Message('note_off', channel=4, note=52, velocity=95, time=0),
    Message('note_off', channel=4, note=45, velocity=95, time=0),
    Message('note_on', channel=4, note=57, velocity=95, time=0),
    Message('note_on', channel=4, note=52, velocity=95, time=0),
    Message('note_on', channel=4, note=45, velocity=95, time=0),
    Message('note_off', channel=4, note=57, velocity=95, time=480),
    Message('note_off', channel=4, note=52, velocity=95, time=0),
    Message('note_off', channel=4, note=45, velocity=95, time=0),
    Message('note_on', channel=4, note=57, velocity=95, time=0),
    Message('note_on', channel=4, note=52, velocity=95, time=0),
    Message('note_on', channel=4, note=45, velocity=95, time=0),
    Message('note_off', channel=4, note=57, velocity=95, time=480),
    Message('note_off', channel=4, note=52, velocity=95, time=0),
    Message('note_off', channel=4, note=45, velocity=95, time=0),
    Message('note_on', channel=4, note=57, velocity=95, time=0),
    Message('note_on', channel=4, note=52, velocity=95, time=0),
    Message('note_on', channel=4, note=45, velocity=95, time=0),
    Message('note_off', channel=4, note=57, velocity=95, time=480),
    Message('note_off', channel=4, note=52, velocity=95, time=0),
    Message('note_off', channel=4, note=45, velocity=95, time=0),
    Message('note_on', channel=4, note=57, velocity=95, time=0),
    Message('note_on', channel=4, note=52, velocity=95, time=0),
    Message('note_on', channel=4, note=45, velocity=95, time=0),
    Message('note_off', channel=4, note=57, velocity=95, time=480),
    Message('note_off', channel=4, note=52, velocity=95, time=0),
    Message('note_off', channel=4, note=45, velocity=95, time=0),
    Message('note_on', channel=4, note=57, velocity=95, time=0),
    Message('note_on', channel=4, note=52, velocity=95, time=0),
    Message('note_on', channel=4, note=45, velocity=95, time=0),
    Message('note_off', channel=4, note=57, velocity=95, time=480),
    Message('note_off', channel=4, note=52, velocity=95, time=0),
    Message('note_off', channel=4, note=45, velocity=95, time=0),
    Message('note_on', channel=4, note=57, velocity=95, time=0),
    Message('note_on', channel=4, note=52, velocity=95, time=0),
    Message('note_on', channel=4, note=45, velocity=95, time=0),
    Message('note_off', channel=4, note=57, velocity=95, time=480),
    Message('note_off', channel=4, note=52, velocity=95, time=0),
    Message('note_off', channel=4, note=45, velocity=95, time=0),
    Message('note_on', channel=4, note=57, velocity=95, time=0),
    Message('note_on', channel=4, note=52, velocity=95, time=0),
    Message('note_on', channel=4, note=45, velocity=95, time=0),
    Message('note_off', channel=4, note=57, velocity=95, time=480),
    Message('note_off', channel=4, note=52, velocity=95, time=0),
    Message('note_off', channel=4, note=45, velocity=95, time=0),
    Message('note_on', channel=4, note=57, velocity=95, time=0),
    Message('note_on', channel=4, note=52, velocity=95, time=0),
    Message('note_on', channel=4, note=45, velocity=95, time=0),
    Message('note_off', channel=4, note=57, velocity=95, time=480),
    Message('note_off', channel=4, note=52, velocity=95, time=0),
    Message('note_off', channel=4, note=45, velocity=95, time=0),
    Message('note_on', channel=4, note=57, velocity=95, time=0),
    Message('note_on', channel=4, note=52, velocity=95, time=0),
    Message('note_on', channel=4, note=45, velocity=95, time=0),
    Message('note_off', channel=4, note=57, velocity=95, time=480),
    Message('note_off', channel=4, note=52, velocity=95, time=0),
    Message('note_off', channel=4, note=45, velocity=95, time=0),
    Message('note_on', channel=4, note=53, velocity=95, time=0),
    Message('note_on', channel=4, note=48, velocity=95, time=0),
    Message('note_on', channel=4, note=41, velocity=95, time=0),
    Message('note_off', channel=4, note=53, velocity=95, time=480),
    Message('note_off', channel=4, note=48, velocity=95, time=0),
    Message('note_off', channel=4, note=41, velocity=95, time=0),
    Message('note_on', channel=4, note=53, velocity=95, time=0),
    Message('note_on', channel=4, note=48, velocity=95, time=0),
    Message('note_on', channel=4, note=41, velocity=95, time=0),
    Message('note_off', channel=4, note=53, velocity=95, time=480),
    Message('note_off', channel=4, note=48, velocity=95, time=0),
    Message('note_off', channel=4, note=41, velocity=95, time=0),
    Message('note_on', channel=4, note=53, velocity=95, time=0),
    Message('note_on', channel=4, note=48, velocity=95, time=0),
    Message('note_on', channel=4, note=41, velocity=95, time=0),
    Message('note_off', channel=4, note=53, velocity=95, time=480),
    Message('note_off', channel=4, note=48, velocity=95, time=0),
    Message('note_off', channel=4, note=41, velocity=95, time=0),
    Message('note_on', channel=4, note=53, velocity=95, time=0),
    Message('note_on', channel=4, note=48, velocity=95, time=0),
    Message('note_on', channel=4, note=41, velocity=95, time=0),
    Message('note_off', channel=4, note=53, velocity=95, time=480),
    Message('note_off', channel=4, note=48, velocity=95, time=0),
    Message('note_off', channel=4, note=41, velocity=95, time=0),
    Message('note_on', channel=4, note=53, velocity=95, time=0),
    Message('note_on', channel=4, note=48, velocity=95, time=0),
    Message('note_on', channel=4, note=41, velocity=95, time=0),
    Message('note_off', channel=4, note=53, velocity=95, time=480),
    Message('note_off', channel=4, note=48, velocity=95, time=0),
    Message('note_off', channel=4, note=41, velocity=95, time=0),
    Message('note_on', channel=4, note=53, velocity=95, time=0),
    Message('note_on', channel=4, note=48, velocity=95, time=0),
    Message('note_on', channel=4, note=41, velocity=95, time=0),
    Message('note_off', channel=4, note=53, velocity=95, time=480),
    Message('note_off', channel=4, note=48, velocity=95, time=0),
    Message('note_off', channel=4, note=41, velocity=95, time=0),
    Message('note_on', channel=4, note=53, velocity=95, time=0),
    Message('note_on', channel=4, note=48, velocity=95, time=0),
    Message('note_on', channel=4, note=41, velocity=95, time=0),
    Message('note_off', channel=4, note=53, velocity=95, time=480),
    Message('note_off', channel=4, note=48, velocity=95, time=0),
    Message('note_off', channel=4, note=41, velocity=95, time=0),
    Message('note_on', channel=4, note=53, velocity=95, time=0),
    Message('note_on', channel=4, note=48, velocity=95, time=0),
    Message('note_on', channel=4, note=41, velocity=95, time=0),
    Message('note_off', channel=4, note=53, velocity=95, time=480),
    Message('note_off', channel=4, note=48, velocity=95, time=0),
    Message('note_off', channel=4, note=41, velocity=95, time=0),
    Message('note_on', channel=4, note=55, velocity=95, time=0),
    Message('note_on', channel=4, note=50, velocity=95, time=0),
    Message('note_on', channel=4, note=43, velocity=95, time=0),
    Message('note_off', channel=4, note=55, velocity=95, time=480),
    Message('note_off', channel=4, note=50, velocity=95, time=0),
    Message('note_off', channel=4, note=43, velocity=95, time=0),
    Message('note_on', channel=4, note=55, velocity=95, time=0),
    Message('note_on', channel=4, note=50, velocity=95, time=0),
    Message('note_on', channel=4, note=43, velocity=95, time=0),
    Message('note_off', channel=4, note=55, velocity=95, time=480),
    Message('note_off', channel=4, note=50, velocity=95, time=0),
    Message('note_off', channel=4, note=43, velocity=95, time=0),
    Message('note_on', channel=4, note=55, velocity=95, time=0),
    Message('note_on', channel=4, note=50, velocity=95, time=0),
    Message('note_on', channel=4, note=43, velocity=95, time=0),
    Message('note_off', channel=4, note=55, velocity=95, time=480),
    Message('note_off', channel=4, note=50, velocity=95, time=0),
    Message('note_off', channel=4, note=43, velocity=95, time=0),
    Message('note_on', channel=4, note=55, velocity=95, time=0),
    Message('note_on', channel=4, note=50, velocity=95, time=0),
    Message('note_on', channel=4, note=43, velocity=95, time=0),
    Message('note_off', channel=4, note=55, velocity=95, time=480),
    Message('note_off', channel=4, note=50, velocity=95, time=0),
    Message('note_off', channel=4, note=43, velocity=95, time=0),
    Message('note_on', channel=4, note=55, velocity=95, time=0),
    Message('note_on', channel=4, note=50, velocity=95, time=0),
    Message('note_on', channel=4, note=43, velocity=95, time=0),
    Message('note_off', channel=4, note=55, velocity=95, time=480),
    Message('note_off', channel=4, note=50, velocity=95, time=0),
    Message('note_off', channel=4, note=43, velocity=95, time=0),
    Message('note_on', channel=4, note=55, velocity=95, time=0),
    Message('note_on', channel=4, note=50, velocity=95, time=0),
    Message('note_on', channel=4, note=43, velocity=95, time=0),
    Message('note_off', channel=4, note=55, velocity=95, time=480),
    Message('note_off', channel=4, note=50, velocity=95, time=0),
    Message('note_off', channel=4, note=43, velocity=95, time=0),
    Message('note_on', channel=4, note=55, velocity=95, time=0),
    Message('note_on', channel=4, note=50, velocity=95, time=0),
    Message('note_on', channel=4, note=43, velocity=95, time=0),
    Message('note_off', channel=4, note=55, velocity=95, time=480),
    Message('note_off', channel=4, note=50, velocity=95, time=0),
    Message('note_off', channel=4, note=43, velocity=95, time=0),
    Message('note_on', channel=4, note=55, velocity=95, time=0),
    Message('note_on', channel=4, note=50, velocity=95, time=0),
    Message('note_on', channel=4, note=43, velocity=95, time=0),
    Message('note_off', channel=4, note=55, velocity=95, time=480),
    Message('note_off', channel=4, note=50, velocity=95, time=0),
    Message('note_off', channel=4, note=43, velocity=95, time=0),
    Message('note_on', channel=4, note=57, velocity=95, time=0),
    Message('note_on', channel=4, note=52, velocity=95, time=0),
    Message('note_on', channel=4, note=45, velocity=95, time=0),
    Message('note_off', channel=4, note=57, velocity=95, time=480),
    Message('note_off', channel=4, note=52, velocity=95, time=0),
    Message('note_off', channel=4, note=45, velocity=95, time=0),
    Message('note_on', channel=4, note=57, velocity=95, time=0),
    Message('note_on', channel=4, note=52, velocity=95, time=0),
    Message('note_on', channel=4, note=45, velocity=95, time=0),
    Message('note_off', channel=4, note=57, velocity=95, time=480),
    Message('note_off', channel=4, note=52, velocity=95, time=0),
    Message('note_off', channel=4, note=45, velocity=95, time=0),
    Message('note_on', channel=4, note=57, velocity=95, time=0),
    Message('note_on', channel=4, note=52, velocity=95, time=0),
    Message('note_on', channel=4, note=45, velocity=95, time=0),
    Message('note_off', channel=4, note=57, velocity=95, time=480),
    Message('note_off', channel=4, note=52, velocity=95, time=0),
    Message('note_off', channel=4, note=45, velocity=95, time=0),
    Message('note_on', channel=4, note=57, velocity=95, time=0),
    Message('note_on', channel=4, note=52, velocity=95, time=0),
    Message('note_on', channel=4, note=45, velocity=95, time=0),
    Message('note_off', channel=4, note=57, velocity=95, time=480),
    Message('note_off', channel=4, note=52, velocity=95, time=0),
    Message('note_off', channel=4, note=45, velocity=95, time=0),
    Message('note_on', channel=4, note=57, velocity=95, time=0),
    Message('note_on', channel=4, note=52, velocity=95, time=0),
    Message('note_on', channel=4, note=45, velocity=95, time=0),
    Message('note_off', channel=4, note=57, velocity=95, time=480),
    Message('note_off', channel=4, note=52, velocity=95, time=0),
    Message('note_off', channel=4, note=45, velocity=95, time=0),
    Message('note_on', channel=4, note=57, velocity=95, time=0),
    Message('note_on', channel=4, note=52, velocity=95, time=0),
    Message('note_on', channel=4, note=45, velocity=95, time=0),
    Message('note_off', channel=4, note=57, velocity=95, time=480),
    Message('note_off', channel=4, note=52, velocity=95, time=0),
    Message('note_off', channel=4, note=45, velocity=95, time=0),
    Message('note_on', channel=4, note=57, velocity=95, time=0),
    Message('note_on', channel=4, note=52, velocity=95, time=0),
    Message('note_on', channel=4, note=45, velocity=95, time=0),
    Message('note_off', channel=4, note=57, velocity=95, time=480),
    Message('note_off', channel=4, note=52, velocity=95, time=0),
    Message('note_off', channel=4, note=45, velocity=95, time=0),
    Message('note_on', channel=4, note=57, velocity=95, time=0),
    Message('note_on', channel=4, note=52, velocity=95, time=0),
    Message('note_on', channel=4, note=45, velocity=95, time=0),
    Message('note_off', channel=4, note=57, velocity=95, time=480),
    Message('note_off', channel=4, note=52, velocity=95, time=0),
    Message('note_off', channel=4, note=45, velocity=95, time=0),
    Message('note_on', channel=4, note=57, velocity=95, time=0),
    Message('note_on', channel=4, note=52, velocity=95, time=0),
    Message('note_on', channel=4, note=45, velocity=95, time=0),
    Message('note_off', channel=4, note=57, velocity=95, time=480),
    Message('note_off', channel=4, note=52, velocity=95, time=0),
    Message('note_off', channel=4, note=45, velocity=95, time=0),
    Message('note_on', channel=4, note=57, velocity=95, time=0),
    Message('note_on', channel=4, note=52, velocity=95, time=0),
    Message('note_on', channel=4, note=45, velocity=95, time=0),
    Message('note_off', channel=4, note=57, velocity=95, time=480),
    Message('note_off', channel=4, note=52, velocity=95, time=0),
    Message('note_off', channel=4, note=45, velocity=95, time=0),
    Message('note_on', channel=4, note=57, velocity=95, time=0),
    Message('note_on', channel=4, note=52, velocity=95, time=0),
    Message('note_on', channel=4, note=45, velocity=95, time=0),
    Message('note_off', channel=4, note=57, velocity=95, time=480),
    Message('note_off', channel=4, note=52, velocity=95, time=0),
    Message('note_off', channel=4, note=45, velocity=95, time=0),
    Message('note_on', channel=4, note=57, velocity=95, time=0),
    Message('note_on', channel=4, note=52, velocity=95, time=0),
    Message('note_on', channel=4, note=45, velocity=95, time=0),
    Message('note_off', channel=4, note=57, velocity=95, time=480),
    Message('note_off', channel=4, note=52, velocity=95, time=0),
    Message('note_off', channel=4, note=45, velocity=95, time=0),
    Message('note_on', channel=4, note=57, velocity=95, time=0),
    Message('note_on', channel=4, note=52, velocity=95, time=0),
    Message('note_on', channel=4, note=45, velocity=95, time=0),
    Message('note_off', channel=4, note=57, velocity=95, time=480),
    Message('note_off', channel=4, note=52, velocity=95, time=0),
    Message('note_off', channel=4, note=45, velocity=95, time=0),
    Message('note_on', channel=4, note=57, velocity=95, time=0),
    Message('note_on', channel=4, note=52, velocity=95, time=0),
    Message('note_on', channel=4, note=45, velocity=95, time=0),
    Message('note_off', channel=4, note=57, velocity=95, time=480),
    Message('note_off', channel=4, note=52, velocity=95, time=0),
    Message('note_off', channel=4, note=45, velocity=95, time=0),
    Message('note_on', channel=4, note=57, velocity=95, time=0),
    Message('note_on', channel=4, note=52, velocity=95, time=0),
    Message('note_on', channel=4, note=45, velocity=95, time=0),
    Message('note_off', channel=4, note=57, velocity=95, time=480),
    Message('note_off', channel=4, note=52, velocity=95, time=0),
    Message('note_off', channel=4, note=45, velocity=95, time=0),
    Message('note_on', channel=4, note=57, velocity=95, time=0),
    Message('note_on', channel=4, note=52, velocity=95, time=0),
    Message('note_on', channel=4, note=45, velocity=95, time=0),
    Message('note_off', channel=4, note=57, velocity=95, time=480),
    Message('note_off', channel=4, note=52, velocity=95, time=0),
    Message('note_off', channel=4, note=45, velocity=95, time=0),
    Message('pitchwheel', channel=5, pitch=0, time=0),
    Message('note_on', channel=5, note=62, velocity=95, time=0),
    Message('pitchwheel', channel=5, pitch=-128, time=48),
    Message('pitchwheel', channel=5, pitch=-256, time=48),
    Message('pitchwheel', channel=5, pitch=-384, time=48),
    Message('pitchwheel', channel=5, pitch=-512, time=48),
    Message('pitchwheel', channel=5, pitch=-640, time=48),
    Message('pitchwheel', channel=5, pitch=-640, time=0),
    Message('pitchwheel', channel=5, pitch=-512, time=48),
    Message('pitchwheel', channel=5, pitch=-384, time=48),
    Message('pitchwheel', channel=5, pitch=-256, time=48),
    Message('pitchwheel', channel=5, pitch=-128, time=48),
    Message('pitchwheel', channel=5, pitch=0, time=48),
    Message('pitchwheel', channel=5, pitch=0, time=0),
    Message('pitchwheel', channel=5, pitch=0, time=0),
    Message('note_off', channel=5, note=62, velocity=95, time=0),
    Message('pitchwheel', channel=5, pitch=0, time=0),
    Message('note_on', channel=5, note=62, velocity=47, time=0),
    Message('pitchwheel', channel=5, pitch=-128, time=48),
    Message('pitchwheel', channel=5, pitch=-256, time=48),
    Message('pitchwheel', channel=5, pitch=-384, time=48),
    Message('pitchwheel', channel=5, pitch=-512, time=48),
    Message('pitchwheel', channel=5, pitch=-640, time=48),
    Message('pitchwheel', channel=5, pitch=-640, time=0),
    Message('pitchwheel', channel=5, pitch=-512, time=48),
    Message('pitchwheel', channel=5, pitch=-384, time=48),
    Message('pitchwheel', channel=5, pitch=-256, time=48),
    Message('pitchwheel', channel=5, pitch=-128, time=48),
    Message('pitchwheel', channel=5, pitch=0, time=48),
    Message('pitchwheel', channel=5, pitch=0, time=0),
    Message('pitchwheel', channel=5, pitch=0, time=0),
    Message('note_off', channel=5, note=62, velocity=47, time=0),
    Message('pitchwheel', channel=5, pitch=0, time=0),
    Message('note_on', channel=5, note=62, velocity=47, time=0),
    Message('pitchwheel', channel=5, pitch=-128, time=48),
    Message('pitchwheel', channel=5, pitch=-256, time=48),
    Message('pitchwheel', channel=5, pitch=-384, time=48),
    Message('pitchwheel', channel=5, pitch=-512, time=48),
    Message('pitchwheel', channel=5, pitch=-640, time=48),
    Message('pitchwheel', channel=5, pitch=-640, time=0),
    Message('pitchwheel', channel=5, pitch=-512, time=48),
    Message('pitchwheel', channel=5, pitch=-384, time=48),
    Message('pitchwheel', channel=5, pitch=-256, time=48),
    Message('pitchwheel', channel=5, pitch=-128, time=48),
    Message('pitchwheel', channel=5, pitch=0, time=48),
    Message('pitchwheel', channel=5, pitch=0, time=0),
    Message('pitchwheel', channel=5, pitch=0, time=0),
    Message('note_off', channel=5, note=62, velocity=47, time=0),
    Message('pitchwheel', channel=5, pitch=0, time=0),
    Message('note_on', channel=5, note=62, velocity=47, time=0),
    Message('pitchwheel', channel=5, pitch=-128, time=48),
    Message('pitchwheel', channel=5, pitch=-256, time=48),
    Message('pitchwheel', channel=5, pitch=-384, time=48),
    Message('pitchwheel', channel=5, pitch=-512, time=48),
    Message('pitchwheel', channel=5, pitch=-640, time=48),
    Message('pitchwheel', channel=5, pitch=-640, time=0),
    Message('pitchwheel', channel=5, pitch=-512, time=48),
    Message('pitchwheel', channel=5, pitch=-384, time=48),
    Message('pitchwheel', channel=5, pitch=-256, time=48),
    Message('pitchwheel', channel=5, pitch=-128, time=48),
    Message('pitchwheel', channel=5, pitch=0, time=48),
    Message('pitchwheel', channel=5, pitch=0, time=0),
    Message('pitchwheel', channel=5, pitch=0, time=0),
    Message('note_off', channel=5, note=62, velocity=47, time=0),
    Message('pitchwheel', channel=5, pitch=0, time=0),
    Message('note_on', channel=5, note=62, velocity=47, time=0),
    Message('pitchwheel', channel=5, pitch=-128, time=48),
    Message('pitchwheel', channel=5, pitch=-256, time=48),
    Message('pitchwheel', channel=5, pitch=-384, time=48),
    Message('pitchwheel', channel=5, pitch=-512, time=48),
    Message('pitchwheel', channel=5, pitch=-640, time=48),
    Message('pitchwheel', channel=5, pitch=-640, time=0),
    Message('pitchwheel', channel=5, pitch=-512, time=48),
    Message('pitchwheel', channel=5, pitch=-384, time=48),
    Message('pitchwheel', channel=5, pitch=-256, time=48),
    Message('pitchwheel', channel=5, pitch=-128, time=48),
    Message('pitchwheel', channel=5, pitch=0, time=48),
    Message('pitchwheel', channel=5, pitch=0, time=0),
    Message('pitchwheel', channel=5, pitch=0, time=0),
    Message('note_off', channel=5, note=62, velocity=47, time=0),
    Message('pitchwheel', channel=5, pitch=0, time=0),
    Message('note_on', channel=5, note=62, velocity=47, time=0),
    Message('pitchwheel', channel=5, pitch=-128, time=48),
    Message('pitchwheel', channel=5, pitch=-256, time=48),
    Message('pitchwheel', channel=5, pitch=-384, time=48),
    Message('pitchwheel', channel=5, pitch=-512, time=48),
    Message('pitchwheel', channel=5, pitch=-640, time=48),
    Message('pitchwheel', channel=5, pitch=-640, time=0),
    Message('pitchwheel', channel=5, pitch=-512, time=48),
    Message('pitchwheel', channel=5, pitch=-384, time=48),
    Message('pitchwheel', channel=5, pitch=-256, time=48),
    Message('pitchwheel', channel=5, pitch=-128, time=48),
    Message('pitchwheel', channel=5, pitch=0, time=48),
    Message('pitchwheel', channel=5, pitch=0, time=0),
    Message('pitchwheel', channel=5, pitch=0, time=0),
    Message('note_off', channel=5, note=62, velocity=47, time=0),
    Message('pitchwheel', channel=5, pitch=0, time=0),
    Message('note_on', channel=5, note=62, velocity=47, time=0),
    Message('pitchwheel', channel=5, pitch=-128, time=48),
    Message('pitchwheel', channel=5, pitch=-256, time=48),
    Message('pitchwheel', channel=5, pitch=-384, time=48),
    Message('pitchwheel', channel=5, pitch=-512, time=48),
    Message('pitchwheel', channel=5, pitch=-640, time=48),
    Message('pitchwheel', channel=5, pitch=-640, time=0),
    Message('pitchwheel', channel=5, pitch=-512, time=48),
    Message('pitchwheel', channel=5, pitch=-384, time=48),
    Message('pitchwheel', channel=5, pitch=-256, time=48),
    Message('pitchwheel', channel=5, pitch=-128, time=48),
    Message('pitchwheel', channel=5, pitch=0, time=48),
    Message('pitchwheel', channel=5, pitch=0, time=0),
    Message('pitchwheel', channel=5, pitch=0, time=0),
    Message('note_off', channel=5, note=62, velocity=47, time=0),
    Message('pitchwheel', channel=5, pitch=0, time=0),
    Message('note_on', channel=5, note=62, velocity=47, time=0),
    Message('pitchwheel', channel=5, pitch=-128, time=48),
    Message('pitchwheel', channel=5, pitch=-256, time=48),
    Message('pitchwheel', channel=5, pitch=-384, time=48),
    Message('pitchwheel', channel=5, pitch=-512, time=48),
    Message('pitchwheel', channel=5, pitch=-640, time=48),
    Message('pitchwheel', channel=5, pitch=-640, time=0),
    Message('pitchwheel', channel=5, pitch=-512, time=48),
    Message('pitchwheel', channel=5, pitch=-384, time=48),
    Message('pitchwheel', channel=5, pitch=-256, time=48),
    Message('pitchwheel', channel=5, pitch=-128, time=48),
    Message('pitchwheel', channel=5, pitch=0, time=48),
    Message('pitchwheel', channel=5, pitch=0, time=0),
    Message('pitchwheel', channel=5, pitch=0, time=0),
    Message('note_off', channel=5, note=62, velocity=47, time=0),
    Message('pitchwheel', channel=5, pitch=0, time=0),
    Message('note_on', channel=5, note=62, velocity=47, time=0),
    Message('pitchwheel', channel=5, pitch=-128, time=48),
    Message('pitchwheel', channel=5, pitch=-256, time=48),
    Message('pitchwheel', channel=5, pitch=-384, time=48),
    Message('pitchwheel', channel=5, pitch=-512, time=48),
    Message('pitchwheel', channel=5, pitch=-640, time=48),
    Message('pitchwheel', channel=5, pitch=-640, time=0),
    Message('pitchwheel', channel=5, pitch=-512, time=48),
    Message('pitchwheel', channel=5, pitch=-384, time=48),
    Message('pitchwheel', channel=5, pitch=-256, time=48),
    Message('pitchwheel', channel=5, pitch=-128, time=48),
    Message('pitchwheel', channel=5, pitch=0, time=48),
    Message('pitchwheel', channel=5, pitch=0, time=0),
    Message('pitchwheel', channel=5, pitch=0, time=0),
    Message('note_off', channel=5, note=62, velocity=47, time=0),
    Message('pitchwheel', channel=5, pitch=0, time=0),
    Message('note_on', channel=5, note=62, velocity=47, time=0),
    Message('pitchwheel', channel=5, pitch=-128, time=48),
    Message('pitchwheel', channel=5, pitch=-256, time=48),
    Message('pitchwheel', channel=5, pitch=-384, time=48),
    Message('pitchwheel', channel=5, pitch=-512, time=48),
    Message('pitchwheel', channel=5, pitch=-640, time=48),
    Message('pitchwheel', channel=5, pitch=-640, time=0),
    Message('pitchwheel', channel=5, pitch=-512, time=48),
    Message('pitchwheel', channel=5, pitch=-384, time=48),
    Message('pitchwheel', channel=5, pitch=-256, time=48),
    Message('pitchwheel', channel=5, pitch=-128, time=48),
    Message('pitchwheel', channel=5, pitch=0, time=48),
    Message('pitchwheel', channel=5, pitch=0, time=0),
    Message('pitchwheel', channel=5, pitch=0, time=0),
    Message('note_off', channel=5, note=62, velocity=47, time=0),
    Message('pitchwheel', channel=5, pitch=0, time=0),
    Message('note_on', channel=5, note=62, velocity=47, time=0),
    Message('pitchwheel', channel=5, pitch=-128, time=48),
    Message('pitchwheel', channel=5, pitch=-256, time=48),
    Message('pitchwheel', channel=5, pitch=-384, time=48),
    Message('pitchwheel', channel=5, pitch=-512, time=48),
    Message('pitchwheel', channel=5, pitch=-640, time=48),
    Message('pitchwheel', channel=5, pitch=-640, time=0),
    Message('pitchwheel', channel=5, pitch=-512, time=48),
    Message('pitchwheel', channel=5, pitch=-384, time=48),
    Message('pitchwheel', channel=5, pitch=-256, time=48),
    Message('pitchwheel', channel=5, pitch=-128, time=48),
    Message('pitchwheel', channel=5, pitch=0, time=48),
    Message('pitchwheel', channel=5, pitch=0, time=0),
    Message('pitchwheel', channel=5, pitch=0, time=0),
    Message('note_off', channel=5, note=62, velocity=47, time=0),
    Message('pitchwheel', channel=5, pitch=0, time=0),
    Message('note_on', channel=5, note=62, velocity=47, time=0),
    Message('pitchwheel', channel=5, pitch=-128, time=48),
    Message('pitchwheel', channel=5, pitch=-256, time=48),
    Message('pitchwheel', channel=5, pitch=-384, time=48),
    Message('pitchwheel', channel=5, pitch=-512, time=48),
    Message('pitchwheel', channel=5, pitch=-640, time=48),
    Message('pitchwheel', channel=5, pitch=-640, time=0),
    Message('pitchwheel', channel=5, pitch=-512, time=48),
    Message('pitchwheel', channel=5, pitch=-384, time=48),
    Message('pitchwheel', channel=5, pitch=-256, time=48),
    Message('pitchwheel', channel=5, pitch=-128, time=48),
    Message('pitchwheel', channel=5, pitch=0, time=48),
    Message('pitchwheel', channel=5, pitch=0, time=0),
    Message('pitchwheel', channel=5, pitch=0, time=0),
    Message('note_off', channel=5, note=62, velocity=47, time=0),
    Message('pitchwheel', channel=5, pitch=0, time=0),
    Message('note_on', channel=5, note=62, velocity=47, time=0),
    Message('pitchwheel', channel=5, pitch=-128, time=48),
    Message('pitchwheel', channel=5, pitch=-256, time=48),
    Message('pitchwheel', channel=5, pitch=-384, time=48),
    Message('pitchwheel', channel=5, pitch=-512, time=48),
    Message('pitchwheel', channel=5, pitch=-640, time=48),
    Message('pitchwheel', channel=5, pitch=-640, time=0),
    Message('pitchwheel', channel=5, pitch=-512, time=48),
    Message('pitchwheel', channel=5, pitch=-384, time=48),
    Message('pitchwheel', channel=5, pitch=-256, time=48),
    Message('pitchwheel', channel=5, pitch=-128, time=48),
    Message('pitchwheel', channel=5, pitch=0, time=48),
    Message('pitchwheel', channel=5, pitch=0, time=0),
    Message('pitchwheel', channel=5, pitch=0, time=0),
    Message('note_off', channel=5, note=62, velocity=47, time=0),
    Message('pitchwheel', channel=5, pitch=0, time=0),
    Message('note_on', channel=5, note=62, velocity=47, time=0),
    Message('pitchwheel', channel=5, pitch=-128, time=48),
    Message('pitchwheel', channel=5, pitch=-256, time=48),
    Message('pitchwheel', channel=5, pitch=-384, time=48),
    Message('pitchwheel', channel=5, pitch=-512, time=48),
    Message('pitchwheel', channel=5, pitch=-640, time=48),
    Message('pitchwheel', channel=5, pitch=-640, time=0),
    Message('pitchwheel', channel=5, pitch=-512, time=48),
    Message('pitchwheel', channel=5, pitch=-384, time=48),
    Message('pitchwheel', channel=5, pitch=-256, time=48),
    Message('pitchwheel', channel=5, pitch=-128, time=48),
    Message('pitchwheel', channel=5, pitch=0, time=48),
    Message('pitchwheel', channel=5, pitch=0, time=0),
    Message('pitchwheel', channel=5, pitch=0, time=0),
    Message('note_off', channel=5, note=62, velocity=47, time=0),
    Message('pitchwheel', channel=5, pitch=0, time=0),
    Message('note_on', channel=5, note=62, velocity=47, time=0),
    Message('pitchwheel', channel=5, pitch=-128, time=48),
    Message('pitchwheel', channel=5, pitch=-256, time=48),
    Message('pitchwheel', channel=5, pitch=-384, time=48),
    Message('pitchwheel', channel=5, pitch=-512, time=48),
    Message('pitchwheel', channel=5, pitch=-640, time=48),
    Message('pitchwheel', channel=5, pitch=-640, time=0),
    Message('pitchwheel', channel=5, pitch=-512, time=48),
    Message('pitchwheel', channel=5, pitch=-384, time=48),
    Message('pitchwheel', channel=5, pitch=-256, time=48),
    Message('pitchwheel', channel=5, pitch=-128, time=48),
    Message('pitchwheel', channel=5, pitch=0, time=48),
    Message('pitchwheel', channel=5, pitch=0, time=0),
    Message('pitchwheel', channel=5, pitch=0, time=0),
    Message('note_off', channel=5, note=62, velocity=47, time=0),
    Message('pitchwheel', channel=5, pitch=0, time=0),
    Message('note_on', channel=5, note=62, velocity=47, time=0),
    Message('pitchwheel', channel=5, pitch=-128, time=48),
    Message('pitchwheel', channel=5, pitch=-256, time=48),
    Message('pitchwheel', channel=5, pitch=-384, time=48),
    Message('pitchwheel', channel=5, pitch=-512, time=48),
    Message('pitchwheel', channel=5, pitch=-640, time=48),
    Message('pitchwheel', channel=5, pitch=-640, time=0),
    Message('pitchwheel', channel=5, pitch=-512, time=48),
    Message('pitchwheel', channel=5, pitch=-384, time=48),
    Message('pitchwheel', channel=5, pitch=-256, time=48),
    Message('pitchwheel', channel=5, pitch=-128, time=48),
    Message('pitchwheel', channel=5, pitch=0, time=48),
    Message('pitchwheel', channel=5, pitch=0, time=0),
    Message('pitchwheel', channel=5, pitch=0, time=0),
    Message('note_off', channel=5, note=62, velocity=47, time=0),
    Message('pitchwheel', channel=5, pitch=0, time=0),
    Message('note_on', channel=5, note=62, velocity=47, time=0),
    Message('pitchwheel', channel=5, pitch=-128, time=48),
    Message('pitchwheel', channel=5, pitch=-256, time=48),
    Message('pitchwheel', channel=5, pitch=-384, time=48),
    Message('pitchwheel', channel=5, pitch=-512, time=48),
    Message('pitchwheel', channel=5, pitch=-640, time=48),
    Message('pitchwheel', channel=5, pitch=-640, time=0),
    Message('pitchwheel', channel=5, pitch=-512, time=48),
    Message('pitchwheel', channel=5, pitch=-384, time=48),
    Message('pitchwheel', channel=5, pitch=-256, time=48),
    Message('pitchwheel', channel=5, pitch=-128, time=48),
    Message('pitchwheel', channel=5, pitch=0, time=48),
    Message('pitchwheel', channel=5, pitch=0, time=0),
    Message('pitchwheel', channel=5, pitch=0, time=0),
    Message('note_off', channel=5, note=62, velocity=47, time=0),
    Message('pitchwheel', channel=5, pitch=0, time=0),
    Message('note_on', channel=5, note=62, velocity=47, time=0),
    Message('pitchwheel', channel=5, pitch=-128, time=48),
    Message('pitchwheel', channel=5, pitch=-256, time=48),
    Message('pitchwheel', channel=5, pitch=-384, time=48),
    Message('pitchwheel', channel=5, pitch=-512, time=48),
    Message('pitchwheel', channel=5, pitch=-640, time=48),
    Message('pitchwheel', channel=5, pitch=-640, time=0),
    Message('pitchwheel', channel=5, pitch=-512, time=48),
    Message('pitchwheel', channel=5, pitch=-384, time=48),
    Message('pitchwheel', channel=5, pitch=-256, time=48),
    Message('pitchwheel', channel=5, pitch=-128, time=48),
    Message('pitchwheel', channel=5, pitch=0, time=48),
    Message('pitchwheel', channel=5, pitch=0, time=0),
    Message('pitchwheel', channel=5, pitch=0, time=0),
    Message('note_off', channel=5, note=62, velocity=47, time=0),
    Message('pitchwheel', channel=5, pitch=0, time=0),
    Message('note_on', channel=5, note=62, velocity=47, time=0),
    Message('pitchwheel', channel=5, pitch=-128, time=48),
    Message('pitchwheel', channel=5, pitch=-256, time=48),
    Message('pitchwheel', channel=5, pitch=-384, time=48),
    Message('pitchwheel', channel=5, pitch=-512, time=48),
    Message('pitchwheel', channel=5, pitch=-640, time=48),
    Message('pitchwheel', channel=5, pitch=-640, time=0),
    Message('pitchwheel', channel=5, pitch=-512, time=48),
    Message('pitchwheel', channel=5, pitch=-384, time=48),
    Message('pitchwheel', channel=5, pitch=-256, time=48),
    Message('pitchwheel', channel=5, pitch=-128, time=48),
    Message('pitchwheel', channel=5, pitch=0, time=48),
    Message('pitchwheel', channel=5, pitch=0, time=0),
    Message('pitchwheel', channel=5, pitch=0, time=0),
    Message('note_off', channel=5, note=62, velocity=47, time=0),
    Message('pitchwheel', channel=5, pitch=0, time=0),
    Message('note_on', channel=5, note=62, velocity=47, time=0),
    Message('pitchwheel', channel=5, pitch=-128, time=48),
    Message('pitchwheel', channel=5, pitch=-256, time=48),
    Message('pitchwheel', channel=5, pitch=-384, time=48),
    Message('pitchwheel', channel=5, pitch=-512, time=48),
    Message('pitchwheel', channel=5, pitch=-640, time=48),
    Message('pitchwheel', channel=5, pitch=-640, time=0),
    Message('pitchwheel', channel=5, pitch=-512, time=48),
    Message('pitchwheel', channel=5, pitch=-384, time=48),
    Message('pitchwheel', channel=5, pitch=-256, time=48),
    Message('pitchwheel', channel=5, pitch=-128, time=48),
    Message('pitchwheel', channel=5, pitch=0, time=48),
    Message('pitchwheel', channel=5, pitch=0, time=0),
    Message('pitchwheel', channel=5, pitch=0, time=0),
    Message('note_off', channel=5, note=62, velocity=47, time=0),
    Message('pitchwheel', channel=5, pitch=0, time=0),
    Message('note_on', channel=5, note=62, velocity=47, time=0),
    Message('pitchwheel', channel=5, pitch=-128, time=48),
    Message('pitchwheel', channel=5, pitch=-256, time=48),
    Message('pitchwheel', channel=5, pitch=-384, time=48),
    Message('pitchwheel', channel=5, pitch=-512, time=48),
    Message('pitchwheel', channel=5, pitch=-640, time=48),
    Message('pitchwheel', channel=5, pitch=-640, time=0),
    Message('pitchwheel', channel=5, pitch=-512, time=48),
    Message('pitchwheel', channel=5, pitch=-384, time=48),
    Message('pitchwheel', channel=5, pitch=-256, time=48),
    Message('pitchwheel', channel=5, pitch=-128, time=48),
    Message('pitchwheel', channel=5, pitch=0, time=48),
    Message('pitchwheel', channel=5, pitch=0, time=0),
    Message('pitchwheel', channel=5, pitch=0, time=0),
    Message('note_off', channel=5, note=62, velocity=47, time=0),
    Message('pitchwheel', channel=5, pitch=0, time=0),
    Message('note_on', channel=5, note=62, velocity=47, time=0),
    Message('pitchwheel', channel=5, pitch=-128, time=48),
    Message('pitchwheel', channel=5, pitch=-256, time=48),
    Message('pitchwheel', channel=5, pitch=-384, time=48),
    Message('pitchwheel', channel=5, pitch=-512, time=48),
    Message('pitchwheel', channel=5, pitch=-640, time=48),
    Message('pitchwheel', channel=5, pitch=-640, time=0),
    Message('pitchwheel', channel=5, pitch=-512, time=48),
    Message('pitchwheel', channel=5, pitch=-384, time=48),
    Message('pitchwheel', channel=5, pitch=-256, time=48),
    Message('pitchwheel', channel=5, pitch=-128, time=48),
    Message('pitchwheel', channel=5, pitch=0, time=48),
    Message('pitchwheel', channel=5, pitch=0, time=0),
    Message('pitchwheel', channel=5, pitch=0, time=0),
    Message('note_off', channel=5, note=62, velocity=47, time=0),
    Message('pitchwheel', channel=5, pitch=0, time=0),
    Message('note_on', channel=5, note=62, velocity=47, time=0),
    Message('pitchwheel', channel=5, pitch=-128, time=48),
    Message('pitchwheel', channel=5, pitch=-256, time=48),
    Message('pitchwheel', channel=5, pitch=-384, time=48),
    Message('pitchwheel', channel=5, pitch=-512, time=48),
    Message('pitchwheel', channel=5, pitch=-640, time=48),
    Message('pitchwheel', channel=5, pitch=-640, time=0),
    Message('pitchwheel', channel=5, pitch=-512, time=48),
    Message('pitchwheel', channel=5, pitch=-384, time=48),
    Message('pitchwheel', channel=5, pitch=-256, time=48),
    Message('pitchwheel', channel=5, pitch=-128, time=48),
    Message('pitchwheel', channel=5, pitch=0, time=48),
    Message('pitchwheel', channel=5, pitch=0, time=0),
    Message('pitchwheel', channel=5, pitch=0, time=0),
    Message('note_off', channel=5, note=62, velocity=47, time=0),
    Message('pitchwheel', channel=5, pitch=0, time=0),
    Message('note_on', channel=5, note=62, velocity=47, time=0),
    Message('pitchwheel', channel=5, pitch=-128, time=48),
    Message('pitchwheel', channel=5, pitch=-256, time=48),
    Message('pitchwheel', channel=5, pitch=-384, time=48),
    Message('pitchwheel', channel=5, pitch=-512, time=48),
    Message('pitchwheel', channel=5, pitch=-640, time=48),
    Message('pitchwheel', channel=5, pitch=-640, time=0),
    Message('pitchwheel', channel=5, pitch=-512, time=48),
    Message('pitchwheel', channel=5, pitch=-384, time=48),
    Message('pitchwheel', channel=5, pitch=-256, time=48),
    Message('pitchwheel', channel=5, pitch=-128, time=48),
    Message('pitchwheel', channel=5, pitch=0, time=48),
    Message('pitchwheel', channel=5, pitch=0, time=0),
    Message('pitchwheel', channel=5, pitch=0, time=0),
    Message('note_off', channel=5, note=62, velocity=47, time=0),
    Message('note_on', channel=4, note=45, velocity=31, time=0),
    Message('note_on', channel=4, note=57, velocity=95, time=0),
    Message('note_off', channel=4, note=45, velocity=31, time=480),
    Message('note_off', channel=4, note=57, velocity=95, time=0),
    Message('pitchwheel', channel=5, pitch=0, time=0),
    Message('note_on', channel=5, note=57, velocity=47, time=0),
    Message('pitchwheel', channel=5, pitch=-128, time=48),
    Message('pitchwheel', channel=5, pitch=-256, time=48),
    Message('pitchwheel', channel=5, pitch=-384, time=48),
    Message('pitchwheel', channel=5, pitch=-512, time=48),
    Message('pitchwheel', channel=5, pitch=-640, time=48),
    Message('pitchwheel', channel=5, pitch=-640, time=0),
    Message('pitchwheel', channel=5, pitch=-512, time=48),
    Message('pitchwheel', channel=5, pitch=-384, time=48),
    Message('pitchwheel', channel=5, pitch=-256, time=48),
    Message('pitchwheel', channel=5, pitch=-128, time=48),
    Message('pitchwheel', channel=5, pitch=0, time=48),
    Message('pitchwheel', channel=5, pitch=0, time=0),
    Message('pitchwheel', channel=5, pitch=0, time=0),
    Message('note_off', channel=5, note=57, velocity=47, time=0),
    Message('pitchwheel', channel=5, pitch=0, time=0),
    Message('note_on', channel=5, note=57, velocity=47, time=0),
    Message('pitchwheel', channel=5, pitch=-128, time=48),
    Message('pitchwheel', channel=5, pitch=-256, time=48),
    Message('pitchwheel', channel=5, pitch=-384, time=48),
    Message('pitchwheel', channel=5, pitch=-512, time=48),
    Message('pitchwheel', channel=5, pitch=-640, time=48),
    Message('pitchwheel', channel=5, pitch=-640, time=0),
    Message('pitchwheel', channel=5, pitch=-512, time=48),
    Message('pitchwheel', channel=5, pitch=-384, time=48),
    Message('pitchwheel', channel=5, pitch=-256, time=48),
    Message('pitchwheel', channel=5, pitch=-128, time=48),
    Message('pitchwheel', channel=5, pitch=0, time=48),
    Message('pitchwheel', channel=5, pitch=0, time=0),
    Message('pitchwheel', channel=5, pitch=0, time=0),
    Message('note_off', channel=5, note=57, velocity=47, time=0),
    Message('pitchwheel', channel=5, pitch=0, time=0),
    Message('note_on', channel=5, note=57, velocity=47, time=0),
    Message('pitchwheel', channel=5, pitch=-128, time=48),
    Message('pitchwheel', channel=5, pitch=-256, time=48),
    Message('pitchwheel', channel=5, pitch=-384, time=48),
    Message('pitchwheel', channel=5, pitch=-512, time=48),
    Message('pitchwheel', channel=5, pitch=-640, time=48),
    Message('pitchwheel', channel=5, pitch=-640, time=0),
    Message('pitchwheel', channel=5, pitch=-512, time=48),
    Message('pitchwheel', channel=5, pitch=-384, time=48),
    Message('pitchwheel', channel=5, pitch=-256, time=48),
    Message('pitchwheel', channel=5, pitch=-128, time=48),
    Message('pitchwheel', channel=5, pitch=0, time=48),
    Message('pitchwheel', channel=5, pitch=0, time=0),
    Message('pitchwheel', channel=5, pitch=0, time=0),
    Message('note_off', channel=5, note=57, velocity=47, time=0),
    Message('pitchwheel', channel=5, pitch=0, time=0),
    Message('note_on', channel=5, note=57, velocity=47, time=0),
    Message('pitchwheel', channel=5, pitch=-128, time=48),
    Message('pitchwheel', channel=5, pitch=-256, time=48),
    Message('pitchwheel', channel=5, pitch=-384, time=48),
    Message('pitchwheel', channel=5, pitch=-512, time=48),
    Message('pitchwheel', channel=5, pitch=-640, time=48),
    Message('pitchwheel', channel=5, pitch=-640, time=0),
    Message('pitchwheel', channel=5, pitch=-512, time=48),
    Message('pitchwheel', channel=5, pitch=-384, time=48),
    Message('pitchwheel', channel=5, pitch=-256, time=48),
    Message('pitchwheel', channel=5, pitch=-128, time=48),
    Message('pitchwheel', channel=5, pitch=0, time=48),
    Message('pitchwheel', channel=5, pitch=0, time=0),
    Message('pitchwheel', channel=5, pitch=0, time=0),
    Message('note_off', channel=5, note=57, velocity=47, time=0),
    Message('pitchwheel', channel=5, pitch=0, time=0),
    Message('note_on', channel=5, note=57, velocity=47, time=0),
    Message('pitchwheel', channel=5, pitch=-128, time=48),
    Message('pitchwheel', channel=5, pitch=-256, time=48),
    Message('pitchwheel', channel=5, pitch=-384, time=48),
    Message('pitchwheel', channel=5, pitch=-512, time=48),
    Message('pitchwheel', channel=5, pitch=-640, time=48),
    Message('pitchwheel', channel=5, pitch=-640, time=0),
    Message('pitchwheel', channel=5, pitch=-512, time=48),
    Message('pitchwheel', channel=5, pitch=-384, time=48),
    Message('pitchwheel', channel=5, pitch=-256, time=48),
    Message('pitchwheel', channel=5, pitch=-128, time=48),
    Message('pitchwheel', channel=5, pitch=0, time=48),
    Message('pitchwheel', channel=5, pitch=0, time=0),
    Message('pitchwheel', channel=5, pitch=0, time=0),
    Message('note_off', channel=5, note=57, velocity=47, time=0),
    Message('pitchwheel', channel=5, pitch=0, time=0),
    Message('note_on', channel=5, note=57, velocity=47, time=0),
    Message('pitchwheel', channel=5, pitch=-128, time=48),
    Message('pitchwheel', channel=5, pitch=-256, time=48),
    Message('pitchwheel', channel=5, pitch=-384, time=48),
    Message('pitchwheel', channel=5, pitch=-512, time=48),
    Message('pitchwheel', channel=5, pitch=-640, time=48),
    Message('pitchwheel', channel=5, pitch=-640, time=0),
    Message('pitchwheel', channel=5, pitch=-512, time=48),
    Message('pitchwheel', channel=5, pitch=-384, time=48),
    Message('pitchwheel', channel=5, pitch=-256, time=48),
    Message('pitchwheel', channel=5, pitch=-128, time=48),
    Message('pitchwheel', channel=5, pitch=0, time=48),
    Message('pitchwheel', channel=5, pitch=0, time=0),
    Message('pitchwheel', channel=5, pitch=0, time=0),
    Message('note_off', channel=5, note=57, velocity=47, time=0),
    Message('pitchwheel', channel=5, pitch=0, time=0),
    Message('note_on', channel=5, note=57, velocity=47, time=0),
    Message('pitchwheel', channel=5, pitch=-128, time=48),
    Message('pitchwheel', channel=5, pitch=-256, time=48),
    Message('pitchwheel', channel=5, pitch=-384, time=48),
    Message('pitchwheel', channel=5, pitch=-512, time=48),
    Message('pitchwheel', channel=5, pitch=-640, time=48),
    Message('pitchwheel', channel=5, pitch=-640, time=0),
    Message('pitchwheel', channel=5, pitch=-512, time=48),
    Message('pitchwheel', channel=5, pitch=-384, time=48),
    Message('pitchwheel', channel=5, pitch=-256, time=48),
    Message('pitchwheel', channel=5, pitch=-128, time=48),
    Message('pitchwheel', channel=5, pitch=0, time=48),
    Message('pitchwheel', channel=5, pitch=0, time=0),
    Message('pitchwheel', channel=5, pitch=0, time=0),
    Message('note_off', channel=5, note=57, velocity=47, time=0),
    MetaMessage('end_of_track', time=0)]),
  MidiTrack([
    Message('pitchwheel', channel=6, pitch=0, time=0),
    Message('control_change', channel=6, control=7, value=71, time=0),
    Message('control_change', channel=6, control=10, value=0, time=0),
    Message('control_change', channel=6, control=93, value=0, time=0),
    Message('control_change', channel=6, control=91, value=0, time=0),
    Message('control_change', channel=6, control=95, value=0, time=0),
    Message('control_change', channel=6, control=92, value=0, time=0),
    Message('control_change', channel=6, control=11, value=127, time=0),
    Message('program_change', channel=6, program=30, time=0),
    Message('control_change', channel=7, control=7, value=71, time=0),
    Message('control_change', channel=7, control=10, value=0, time=0),
    Message('control_change', channel=7, control=93, value=0, time=0),
    Message('control_change', channel=7, control=91, value=0, time=0),
    Message('control_change', channel=7, control=95, value=0, time=0),
    Message('control_change', channel=7, control=92, value=0, time=0),
    Message('control_change', channel=7, control=11, value=127, time=0),
    Message('program_change', channel=7, program=30, time=0),
    Message('note_on', channel=6, note=71, velocity=95, time=80640),
    Message('note_off', channel=6, note=71, velocity=95, time=480),
    Message('note_on', channel=6, note=69, velocity=95, time=0),
    Message('note_off', channel=6, note=69, velocity=95, time=480),
    Message('note_on', channel=6, note=64, velocity=95, time=0),
    Message('note_off', channel=6, note=64, velocity=95, time=480),
    Message('note_on', channel=6, note=71, velocity=95, time=0),
    Message('note_off', channel=6, note=71, velocity=95, time=960),
    Message('note_on', channel=6, note=69, velocity=95, time=0),
    Message('note_off', channel=6, note=69, velocity=95, time=1440),
    Message('note_on', channel=6, note=71, velocity=95, time=11520),
    Message('note_off', channel=6, note=71, velocity=95, time=480),
    Message('note_on', channel=6, note=69, velocity=95, time=0),
    Message('note_off', channel=6, note=69, velocity=95, time=480),
    Message('note_on', channel=6, note=64, velocity=95, time=0),
    Message('note_off', channel=6, note=64, velocity=95, time=480),
    Message('note_on', channel=6, note=71, velocity=95, time=0),
    Message('note_off', channel=6, note=71, velocity=95, time=960),
    Message('note_on', channel=6, note=69, velocity=95, time=0),
    Message('note_off', channel=6, note=69, velocity=95, time=1440),
    Message('note_on', channel=6, note=64, velocity=95, time=0),
    Message('note_off', channel=6, note=64, velocity=95, time=480),
    Message('note_on', channel=6, note=69, velocity=95, time=0),
    Message('note_off', channel=6, note=69, velocity=95, time=480),
    Message('note_on', channel=6, note=72, velocity=95, time=0),
    Message('note_off', channel=6, note=72, velocity=95, time=480),
    Message('note_on', channel=6, note=76, velocity=95, time=0),
    Message('note_off', channel=6, note=76, velocity=95, time=960),
    Message('note_on', channel=6, note=72, velocity=95, time=0),
    Message('note_off', channel=6, note=72, velocity=95, time=480),
    Message('note_on', channel=6, note=69, velocity=95, time=0),
    Message('note_off', channel=6, note=69, velocity=95, time=960),
    Message('note_on', channel=6, note=69, velocity=95, time=0),
    Message('note_off', channel=6, note=69, velocity=95, time=480),
    Message('note_on', channel=6, note=64, velocity=95, time=0),
    Message('note_off', channel=6, note=64, velocity=95, time=960),
    Message('note_on', channel=6, note=69, velocity=95, time=0),
    Message('note_off', channel=6, note=69, velocity=95, time=1440),
    Message('note_on', channel=6, note=69, velocity=95, time=0),
    Message('note_off', channel=6, note=69, velocity=95, time=480),
    Message('note_on', channel=6, note=71, velocity=95, time=0),
    Message('note_off', channel=6, note=71, velocity=95, time=480),
    Message('note_on', channel=6, note=71, velocity=95, time=0),
    Message('note_off', channel=6, note=71, velocity=95, time=160),
    Message('note_on', channel=6, note=73, velocity=70, time=0),
    Message('note_off', channel=6, note=73, velocity=70, time=160),
    Message('note_on', channel=6, note=71, velocity=70, time=0),
    Message('note_off', channel=6, note=71, velocity=70, time=160),
    Message('note_on', channel=6, note=69, velocity=70, time=0),
    Message('note_off', channel=6, note=69, velocity=70, time=960),
    Message('note_on', channel=6, note=71, velocity=95, time=0),
    Message('note_off', channel=6, note=71, velocity=95, time=960),
    Message('note_on', channel=6, note=69, velocity=95, time=0),
    Message('note_off', channel=6, note=69, velocity=95, time=960),
    Message('note_on', channel=6, note=69, velocity=95, time=0),
    Message('note_off', channel=6, note=69, velocity=95, time=480),
    Message('note_on', channel=6, note=71, velocity=95, time=0),
    Message('note_off', channel=6, note=71, velocity=95, time=160),
    Message('note_on', channel=6, note=73, velocity=70, time=0),
    Message('note_off', channel=6, note=73, velocity=70, time=160),
    Message('note_on', channel=6, note=71, velocity=70, time=0),
    Message('note_off', channel=6, note=71, velocity=70, time=160),
    Message('note_on', channel=6, note=69, velocity=70, time=0),
    Message('note_off', channel=6, note=69, velocity=70, time=960),
    Message('note_on', channel=6, note=71, velocity=95, time=0),
    Message('note_off', channel=6, note=71, velocity=95, time=960),
    Message('note_on', channel=6, note=69, velocity=95, time=0),
    Message('note_off', channel=6, note=69, velocity=95, time=960),
    Message('note_on', channel=6, note=69, velocity=95, time=0),
    Message('note_off', channel=6, note=69, velocity=95, time=480),
    Message('note_on', channel=6, note=64, velocity=95, time=0),
    Message('note_off', channel=6, note=64, velocity=95, time=480),
    Message('note_on', channel=6, note=69, velocity=95, time=0),
    Message('note_off', channel=6, note=69, velocity=95, time=480),
    Message('note_on', channel=6, note=72, velocity=95, time=0),
    Message('note_off', channel=6, note=72, velocity=95, time=480),
    Message('note_on', channel=6, note=76, velocity=95, time=0),
    Message('note_off', channel=6, note=76, velocity=95, time=960),
    Message('note_on', channel=6, note=72, velocity=95, time=0),
    Message('note_off', channel=6, note=72, velocity=95, time=480),
    Message('note_on', channel=6, note=69, velocity=95, time=0),
    Message('note_off', channel=6, note=69, velocity=95, time=960),
    Message('note_on', channel=6, note=69, velocity=95, time=0),
    Message('note_off', channel=6, note=69, velocity=95, time=480),
    Message('note_on', channel=6, note=64, velocity=95, time=0),
    Message('note_on', channel=6, note=69, velocity=95, time=960),
    Message('note_off', channel=6, note=64, velocity=95, time=1440),
    Message('note_off', channel=6, note=69, velocity=95, time=0),
    Message('note_on', channel=6, note=69, velocity=95, time=0),
    Message('note_off', channel=6, note=69, velocity=95, time=480),
    Message('note_on', channel=6, note=71, velocity=95, time=0),
    Message('note_off', channel=6, note=71, velocity=95, time=480),
    Message('note_on', channel=6, note=71, velocity=95, time=0),
    Message('note_off', channel=6, note=71, velocity=95, time=160),
    Message('note_on', channel=6, note=73, velocity=70, time=0),
    Message('note_off', channel=6, note=73, velocity=70, time=160),
    Message('note_on', channel=6, note=71, velocity=70, time=0),
    Message('note_off', channel=6, note=71, velocity=70, time=160),
    Message('note_on', channel=6, note=69, velocity=70, time=0),
    Message('note_off', channel=6, note=69, velocity=70, time=480),
    Message('note_on', channel=6, note=76, velocity=95, time=0),
    Message('note_off', channel=6, note=76, velocity=95, time=480),
    Message('note_on', channel=6, note=71, velocity=95, time=0),
    Message('note_off', channel=6, note=71, velocity=95, time=960),
    Message('note_on', channel=6, note=69, velocity=95, time=0),
    Message('note_off', channel=6, note=69, velocity=95, time=960),
    Message('note_on', channel=6, note=69, velocity=95, time=0),
    Message('note_off', channel=6, note=69, velocity=95, time=480),
    Message('note_on', channel=6, note=71, velocity=95, time=0),
    Message('note_off', channel=6, note=71, velocity=95, time=160),
    Message('note_on', channel=6, note=73, velocity=70, time=0),
    Message('note_off', channel=6, note=73, velocity=70, time=160),
    Message('note_on', channel=6, note=71, velocity=70, time=0),
    Message('note_off', channel=6, note=71, velocity=70, time=160),
    Message('note_on', channel=6, note=69, velocity=70, time=0),
    Message('note_off', channel=6, note=69, velocity=70, time=480),
    Message('note_on', channel=6, note=76, velocity=95, time=0),
    Message('note_off', channel=6, note=76, velocity=95, time=480),
    Message('note_on', channel=6, note=71, velocity=95, time=0),
    Message('note_off', channel=6, note=71, velocity=95, time=960),
    Message('note_on', channel=6, note=69, velocity=95, time=0),
    Message('note_off', channel=6, note=69, velocity=95, time=960),
    Message('note_on', channel=6, note=69, velocity=95, time=0),
    Message('note_off', channel=6, note=69, velocity=95, time=480),
    Message('note_on', channel=6, note=71, velocity=95, time=72960),
    Message('note_off', channel=6, note=71, velocity=95, time=480),
    Message('note_on', channel=6, note=69, velocity=95, time=0),
    Message('note_off', channel=6, note=69, velocity=95, time=480),
    Message('note_on', channel=6, note=64, velocity=95, time=0),
    Message('note_off', channel=6, note=64, velocity=95, time=480),
    Message('note_on', channel=6, note=71, velocity=95, time=0),
    Message('note_off', channel=6, note=71, velocity=95, time=960),
    Message('note_on', channel=6, note=69, velocity=95, time=0),
    Message('note_off', channel=6, note=69, velocity=95, time=1440),
    Message('note_on', channel=6, note=71, velocity=95, time=11520),
    Message('note_off', channel=6, note=71, velocity=95, time=480),
    Message('note_on', channel=6, note=69, velocity=95, time=0),
    Message('note_off', channel=6, note=69, velocity=95, time=480),
    Message('note_on', channel=6, note=64, velocity=95, time=0),
    Message('note_off', channel=6, note=64, velocity=95, time=480),
    Message('note_on', channel=6, note=71, velocity=95, time=0),
    Message('note_off', channel=6, note=71, velocity=95, time=960),
    Message('note_on', channel=6, note=69, velocity=95, time=0),
    Message('note_off', channel=6, note=69, velocity=95, time=1440),
    Message('note_on', channel=6, note=64, velocity=95, time=0),
    Message('note_off', channel=6, note=64, velocity=95, time=480),
    Message('note_on', channel=6, note=69, velocity=95, time=0),
    Message('note_off', channel=6, note=69, velocity=95, time=480),
    Message('note_on', channel=6, note=72, velocity=95, time=0),
    Message('note_off', channel=6, note=72, velocity=95, time=480),
    Message('note_on', channel=6, note=76, velocity=95, time=0),
    Message('note_off', channel=6, note=76, velocity=95, time=960),
    Message('note_on', channel=6, note=72, velocity=95, time=0),
    Message('note_off', channel=6, note=72, velocity=95, time=480),
    Message('note_on', channel=6, note=69, velocity=95, time=0),
    Message('note_off', channel=6, note=69, velocity=95, time=960),
    Message('note_on', channel=6, note=69, velocity=95, time=0),
    Message('note_off', channel=6, note=69, velocity=95, time=480),
    Message('note_on', channel=6, note=64, velocity=95, time=0),
    Message('note_off', channel=6, note=64, velocity=95, time=960),
    Message('note_on', channel=6, note=69, velocity=95, time=0),
    Message('note_off', channel=6, note=69, velocity=95, time=1440),
    Message('note_on', channel=6, note=69, velocity=95, time=0),
    Message('note_off', channel=6, note=69, velocity=95, time=480),
    Message('note_on', channel=6, note=71, velocity=95, time=0),
    Message('note_off', channel=6, note=71, velocity=95, time=480),
    Message('note_on', channel=6, note=71, velocity=95, time=0),
    Message('note_off', channel=6, note=71, velocity=95, time=160),
    Message('note_on', channel=6, note=73, velocity=70, time=0),
    Message('note_off', channel=6, note=73, velocity=70, time=160),
    Message('note_on', channel=6, note=71, velocity=70, time=0),
    Message('note_off', channel=6, note=71, velocity=70, time=160),
    Message('note_on', channel=6, note=69, velocity=70, time=0),
    Message('note_off', channel=6, note=69, velocity=70, time=960),
    Message('note_on', channel=6, note=71, velocity=95, time=0),
    Message('note_off', channel=6, note=71, velocity=95, time=960),
    Message('note_on', channel=6, note=69, velocity=95, time=0),
    Message('note_off', channel=6, note=69, velocity=95, time=960),
    Message('note_on', channel=6, note=69, velocity=95, time=0),
    Message('note_off', channel=6, note=69, velocity=95, time=480),
    Message('note_on', channel=6, note=71, velocity=95, time=0),
    Message('note_off', channel=6, note=71, velocity=95, time=160),
    Message('note_on', channel=6, note=73, velocity=70, time=0),
    Message('note_off', channel=6, note=73, velocity=70, time=160),
    Message('note_on', channel=6, note=71, velocity=70, time=0),
    Message('note_off', channel=6, note=71, velocity=70, time=160),
    Message('note_on', channel=6, note=69, velocity=70, time=0),
    Message('note_off', channel=6, note=69, velocity=70, time=960),
    Message('note_on', channel=6, note=71, velocity=95, time=0),
    Message('note_off', channel=6, note=71, velocity=95, time=960),
    Message('note_on', channel=6, note=69, velocity=95, time=0),
    Message('note_off', channel=6, note=69, velocity=95, time=960),
    Message('note_on', channel=6, note=69, velocity=95, time=0),
    Message('note_off', channel=6, note=69, velocity=95, time=480),
    Message('note_on', channel=6, note=64, velocity=95, time=0),
    Message('note_off', channel=6, note=64, velocity=95, time=480),
    Message('note_on', channel=6, note=69, velocity=95, time=0),
    Message('note_off', channel=6, note=69, velocity=95, time=480),
    Message('note_on', channel=6, note=72, velocity=95, time=0),
    Message('note_off', channel=6, note=72, velocity=95, time=480),
    Message('note_on', channel=6, note=76, velocity=95, time=0),
    Message('note_off', channel=6, note=76, velocity=95, time=960),
    Message('note_on', channel=6, note=72, velocity=95, time=0),
    Message('note_off', channel=6, note=72, velocity=95, time=480),
    Message('note_on', channel=6, note=69, velocity=95, time=0),
    Message('note_off', channel=6, note=69, velocity=95, time=960),
    Message('note_on', channel=6, note=69, velocity=95, time=0),
    Message('note_off', channel=6, note=69, velocity=95, time=480),
    Message('note_on', channel=6, note=64, velocity=95, time=0),
    Message('note_on', channel=6, note=69, velocity=95, time=960),
    Message('note_off', channel=6, note=64, velocity=95, time=1440),
    Message('note_off', channel=6, note=69, velocity=95, time=0),
    Message('note_on', channel=6, note=69, velocity=95, time=0),
    Message('note_off', channel=6, note=69, velocity=95, time=480),
    Message('note_on', channel=6, note=71, velocity=95, time=0),
    Message('note_off', channel=6, note=71, velocity=95, time=480),
    Message('note_on', channel=6, note=71, velocity=95, time=0),
    Message('note_off', channel=6, note=71, velocity=95, time=160),
    Message('note_on', channel=6, note=73, velocity=70, time=0),
    Message('note_off', channel=6, note=73, velocity=70, time=160),
    Message('note_on', channel=6, note=71, velocity=70, time=0),
    Message('note_off', channel=6, note=71, velocity=70, time=160),
    Message('note_on', channel=6, note=69, velocity=70, time=0),
    Message('note_off', channel=6, note=69, velocity=70, time=480),
    Message('note_on', channel=6, note=76, velocity=95, time=0),
    Message('note_off', channel=6, note=76, velocity=95, time=480),
    Message('note_on', channel=6, note=71, velocity=95, time=0),
    Message('note_off', channel=6, note=71, velocity=95, time=960),
    Message('note_on', channel=6, note=69, velocity=95, time=0),
    Message('note_off', channel=6, note=69, velocity=95, time=960),
    Message('note_on', channel=6, note=69, velocity=95, time=0),
    Message('note_off', channel=6, note=69, velocity=95, time=480),
    Message('note_on', channel=6, note=71, velocity=95, time=0),
    Message('note_off', channel=6, note=71, velocity=95, time=160),
    Message('note_on', channel=6, note=73, velocity=70, time=0),
    Message('note_off', channel=6, note=73, velocity=70, time=160),
    Message('note_on', channel=6, note=71, velocity=70, time=0),
    Message('note_off', channel=6, note=71, velocity=70, time=160),
    Message('note_on', channel=6, note=69, velocity=70, time=0),
    Message('note_off', channel=6, note=69, velocity=70, time=480),
    Message('note_on', channel=6, note=76, velocity=95, time=0),
    Message('note_off', channel=6, note=76, velocity=95, time=480),
    Message('note_on', channel=6, note=71, velocity=95, time=0),
    Message('note_off', channel=6, note=71, velocity=95, time=960),
    Message('note_on', channel=6, note=69, velocity=95, time=0),
    Message('note_off', channel=6, note=69, velocity=95, time=960),
    Message('note_on', channel=6, note=69, velocity=95, time=0),
    Message('note_off', channel=6, note=69, velocity=95, time=480),
    Message('note_on', channel=6, note=64, velocity=95, time=0),
    Message('note_off', channel=6, note=64, velocity=95, time=480),
    Message('note_on', channel=6, note=69, velocity=95, time=0),
    Message('note_off', channel=6, note=69, velocity=95, time=480),
    Message('note_on', channel=6, note=72, velocity=95, time=0),
    Message('note_off', channel=6, note=72, velocity=95, time=480),
    Message('note_on', channel=6, note=76, velocity=95, time=0),
    Message('note_off', channel=6, note=76, velocity=95, time=960),
    Message('note_on', channel=6, note=72, velocity=95, time=0),
    Message('note_off', channel=6, note=72, velocity=95, time=480),
    Message('note_on', channel=6, note=69, velocity=95, time=0),
    Message('note_off', channel=6, note=69, velocity=95, time=960),
    Message('note_on', channel=6, note=69, velocity=95, time=0),
    Message('note_off', channel=6, note=69, velocity=95, time=480),
    Message('note_on', channel=6, note=64, velocity=95, time=0),
    Message('note_on', channel=6, note=69, velocity=95, time=960),
    Message('note_off', channel=6, note=64, velocity=95, time=1440),
    Message('note_off', channel=6, note=69, velocity=95, time=0),
    Message('note_on', channel=6, note=69, velocity=95, time=0),
    Message('note_off', channel=6, note=69, velocity=95, time=480),
    Message('note_on', channel=6, note=71, velocity=95, time=0),
    Message('note_off', channel=6, note=71, velocity=95, time=480),
    Message('note_on', channel=6, note=71, velocity=95, time=0),
    Message('note_off', channel=6, note=71, velocity=95, time=160),
    Message('note_on', channel=6, note=73, velocity=70, time=0),
    Message('note_off', channel=6, note=73, velocity=70, time=160),
    Message('note_on', channel=6, note=71, velocity=70, time=0),
    Message('note_off', channel=6, note=71, velocity=70, time=160),
    Message('note_on', channel=6, note=69, velocity=70, time=0),
    Message('note_off', channel=6, note=69, velocity=70, time=960),
    Message('note_on', channel=6, note=71, velocity=95, time=0),
    Message('note_off', channel=6, note=71, velocity=95, time=960),
    Message('note_on', channel=6, note=69, velocity=95, time=0),
    Message('note_off', channel=6, note=69, velocity=95, time=960),
    Message('note_on', channel=6, note=69, velocity=95, time=0),
    Message('note_off', channel=6, note=69, velocity=95, time=480),
    Message('note_on', channel=6, note=71, velocity=95, time=0),
    Message('note_off', channel=6, note=71, velocity=95, time=160),
    Message('note_on', channel=6, note=73, velocity=70, time=0),
    Message('note_off', channel=6, note=73, velocity=70, time=160),
    Message('note_on', channel=6, note=71, velocity=70, time=0),
    Message('note_off', channel=6, note=71, velocity=70, time=160),
    Message('note_on', channel=6, note=69, velocity=70, time=0),
    Message('note_off', channel=6, note=69, velocity=70, time=960),
    Message('note_on', channel=6, note=71, velocity=95, time=0),
    Message('note_off', channel=6, note=71, velocity=95, time=960),
    Message('note_on', channel=6, note=69, velocity=95, time=0),
    Message('note_off', channel=6, note=69, velocity=95, time=960),
    Message('note_on', channel=6, note=69, velocity=95, time=0),
    Message('note_off', channel=6, note=69, velocity=95, time=480),
    Message('note_on', channel=6, note=57, velocity=95, time=0),
    Message('note_off', channel=6, note=57, velocity=95, time=720),
    Message('note_on', channel=6, note=45, velocity=95, time=0),
    Message('note_off', channel=6, note=45, velocity=95, time=240),
    Message('note_on', channel=6, note=45, velocity=95, time=0),
    Message('note_off', channel=6, note=45, velocity=95, time=480),
    Message('note_on', channel=6, note=55, velocity=95, time=0),
    Message('note_off', channel=6, note=55, velocity=95, time=960),
    Message('note_on', channel=6, note=45, velocity=95, time=0),
    Message('note_off', channel=6, note=45, velocity=95, time=480),
    Message('note_on', channel=6, note=50, velocity=95, time=0),
    Message('note_off', channel=6, note=50, velocity=95, time=240),
    Message('note_on', channel=6, note=52, velocity=70, time=0),
    Message('note_off', channel=6, note=52, velocity=70, time=240),
    Message('note_on', channel=6, note=45, velocity=95, time=0),
    Message('note_off', channel=6, note=45, velocity=95, time=480),
    Message('note_on', channel=6, note=57, velocity=95, time=0),
    Message('note_off', channel=6, note=57, velocity=95, time=480),
    Message('note_on', channel=6, note=45, velocity=95, time=0),
    Message('note_off', channel=6, note=45, velocity=95, time=480),
    Message('note_on', channel=6, note=50, velocity=95, time=0),
    Message('note_off', channel=6, note=50, velocity=95, time=240),
    Message('note_on', channel=6, note=52, velocity=70, time=0),
    Message('note_off', channel=6, note=52, velocity=70, time=240),
    Message('note_on', channel=6, note=55, velocity=95, time=0),
    Message('note_off', channel=6, note=55, velocity=95, time=960),
    Message('note_on', channel=6, note=45, velocity=95, time=0),
    Message('note_off', channel=6, note=45, velocity=95, time=480),
    Message('note_on', channel=6, note=50, velocity=95, time=0),
    Message('note_off', channel=6, note=50, velocity=95, time=240),
    Message('note_on', channel=6, note=52, velocity=70, time=0),
    Message('note_off', channel=6, note=52, velocity=70, time=240),
    Message('note_on', channel=6, note=45, velocity=95, time=0),
    Message('note_off', channel=6, note=45, velocity=95, time=480),
    Message('note_on', channel=6, note=57, velocity=95, time=0),
    Message('note_off', channel=6, note=57, velocity=95, time=720),
    Message('note_on', channel=6, note=45, velocity=95, time=0),
    Message('note_off', channel=6, note=45, velocity=95, time=240),
    Message('note_on', channel=6, note=45, velocity=95, time=0),
    Message('note_off', channel=6, note=45, velocity=95, time=480),
    Message('note_on', channel=6, note=55, velocity=95, time=0),
    Message('note_off', channel=6, note=55, velocity=95, time=960),
    Message('note_on', channel=6, note=45, velocity=95, time=0),
    Message('note_off', channel=6, note=45, velocity=95, time=480),
    Message('note_on', channel=6, note=50, velocity=95, time=0),
    Message('note_off', channel=6, note=50, velocity=95, time=240),
    Message('note_on', channel=6, note=52, velocity=70, time=0),
    Message('note_off', channel=6, note=52, velocity=70, time=240),
    Message('note_on', channel=6, note=45, velocity=95, time=0),
    Message('note_off', channel=6, note=45, velocity=95, time=480),
    Message('note_on', channel=6, note=57, velocity=95, time=0),
    Message('note_off', channel=6, note=57, velocity=95, time=480),
    Message('note_on', channel=6, note=45, velocity=95, time=0),
    Message('note_off', channel=6, note=45, velocity=95, time=240),
    Message('note_on', channel=7, note=49, velocity=95, time=0),
    Message('pitchwheel', channel=7, pitch=256, time=120),
    Message('pitchwheel', channel=7, pitch=640, time=120),
    Message('pitchwheel', channel=7, pitch=0, time=0),
    Message('note_off', channel=7, note=49, velocity=95, time=0),
    Message('note_on', channel=6, note=50, velocity=95, time=0),
    Message('note_off', channel=6, note=50, velocity=95, time=240),
    Message('note_on', channel=6, note=52, velocity=70, time=0),
    Message('note_off', channel=6, note=52, velocity=70, time=240),
    Message('note_on', channel=6, note=55, velocity=95, time=0),
    Message('note_off', channel=6, note=55, velocity=95, time=960),
    Message('note_on', channel=6, note=45, velocity=95, time=0),
    Message('note_off', channel=6, note=45, velocity=95, time=480),
    Message('note_on', channel=6, note=50, velocity=95, time=0),
    Message('note_off', channel=6, note=50, velocity=95, time=240),
    Message('note_on', channel=6, note=52, velocity=70, time=0),
    Message('note_off', channel=6, note=52, velocity=70, time=240),
    Message('note_on', channel=6, note=45, velocity=95, time=0),
    Message('note_off', channel=6, note=45, velocity=95, time=480),
    Message('note_on', channel=6, note=57, velocity=95, time=0),
    Message('note_off', channel=6, note=57, velocity=95, time=720),
    Message('note_on', channel=6, note=45, velocity=95, time=0),
    Message('note_off', channel=6, note=45, velocity=95, time=240),
    Message('note_on', channel=6, note=45, velocity=95, time=0),
    Message('note_off', channel=6, note=45, velocity=95, time=480),
    Message('note_on', channel=6, note=55, velocity=95, time=0),
    Message('note_off', channel=6, note=55, velocity=95, time=960),
    Message('note_on', channel=6, note=45, velocity=95, time=0),
    Message('note_off', channel=6, note=45, velocity=95, time=480),
    Message('note_on', channel=6, note=50, velocity=95, time=0),
    Message('note_off', channel=6, note=50, velocity=95, time=240),
    Message('note_on', channel=6, note=52, velocity=70, time=0),
    Message('note_off', channel=6, note=52, velocity=70, time=240),
    Message('note_on', channel=6, note=45, velocity=95, time=0),
    Message('note_off', channel=6, note=45, velocity=95, time=480),
    Message('note_on', channel=6, note=57, velocity=95, time=0),
    Message('note_off', channel=6, note=57, velocity=95, time=480),
    Message('note_on', channel=6, note=45, velocity=95, time=0),
    Message('note_off', channel=6, note=45, velocity=95, time=480),
    Message('note_on', channel=6, note=50, velocity=95, time=0),
    Message('note_off', channel=6, note=50, velocity=95, time=240),
    Message('note_on', channel=6, note=52, velocity=70, time=0),
    Message('note_off', channel=6, note=52, velocity=70, time=240),
    Message('note_on', channel=6, note=55, velocity=95, time=0),
    Message('note_off', channel=6, note=55, velocity=95, time=960),
    Message('note_on', channel=6, note=45, velocity=95, time=0),
    Message('note_off', channel=6, note=45, velocity=95, time=480),
    Message('note_on', channel=6, note=50, velocity=95, time=0),
    Message('note_off', channel=6, note=50, velocity=95, time=240),
    Message('note_on', channel=6, note=52, velocity=70, time=0),
    Message('note_off', channel=6, note=52, velocity=70, time=240),
    Message('note_on', channel=6, note=45, velocity=95, time=0),
    Message('note_off', channel=6, note=45, velocity=95, time=480),
    Message('note_on', channel=6, note=57, velocity=95, time=0),
    Message('note_off', channel=6, note=57, velocity=95, time=480),
    Message('note_on', channel=6, note=45, velocity=95, time=0),
    Message('note_off', channel=6, note=45, velocity=95, time=240),
    Message('note_on', channel=7, note=49, velocity=95, time=0),
    Message('pitchwheel', channel=7, pitch=256, time=120),
    Message('pitchwheel', channel=7, pitch=640, time=120),
    Message('pitchwheel', channel=7, pitch=0, time=0),
    Message('note_off', channel=7, note=49, velocity=95, time=0),
    Message('note_on', channel=6, note=50, velocity=95, time=0),
    Message('note_off', channel=6, note=50, velocity=95, time=240),
    Message('note_on', channel=6, note=52, velocity=70, time=0),
    Message('note_off', channel=6, note=52, velocity=70, time=240),
    Message('note_on', channel=6, note=55, velocity=95, time=0),
    Message('note_off', channel=6, note=55, velocity=95, time=960),
    Message('note_on', channel=6, note=45, velocity=95, time=0),
    Message('note_off', channel=6, note=45, velocity=95, time=480),
    Message('note_on', channel=6, note=50, velocity=95, time=0),
    Message('note_off', channel=6, note=50, velocity=95, time=240),
    Message('note_on', channel=6, note=52, velocity=70, time=0),
    Message('note_off', channel=6, note=52, velocity=70, time=240),
    Message('note_on', channel=6, note=45, velocity=95, time=0),
    Message('note_off', channel=6, note=45, velocity=95, time=480),
    Message('note_on', channel=6, note=45, velocity=95, time=0),
    Message('note_off', channel=6, note=45, velocity=95, time=480),
    Message('note_on', channel=6, note=45, velocity=95, time=0),
    Message('note_off', channel=6, note=45, velocity=95, time=480),
    Message('note_on', channel=6, note=45, velocity=95, time=0),
    Message('note_off', channel=6, note=45, velocity=95, time=480),
    Message('note_on', channel=6, note=45, velocity=95, time=0),
    Message('note_off', channel=6, note=45, velocity=95, time=480),
    Message('note_on', channel=6, note=45, velocity=95, time=0),
    Message('note_off', channel=6, note=45, velocity=95, time=480),
    Message('note_on', channel=6, note=45, velocity=95, time=0),
    Message('note_off', channel=6, note=45, velocity=95, time=480),
    Message('note_on', channel=6, note=50, velocity=95, time=0),
    Message('note_off', channel=6, note=50, velocity=95, time=240),
    Message('note_on', channel=6, note=52, velocity=70, time=0),
    Message('note_off', channel=6, note=52, velocity=70, time=240),
    Message('note_on', channel=6, note=55, velocity=95, time=0),
    Message('note_off', channel=6, note=55, velocity=95, time=480),
    Message('note_on', channel=6, note=64, velocity=95, time=0),
    Message('note_off', channel=6, note=64, velocity=95, time=480),
    Message('note_on', channel=6, note=69, velocity=95, time=0),
    Message('note_off', channel=6, note=69, velocity=95, time=480),
    Message('note_on', channel=6, note=72, velocity=95, time=0),
    Message('note_off', channel=6, note=72, velocity=95, time=480),
    Message('note_on', channel=6, note=76, velocity=95, time=0),
    Message('note_off', channel=6, note=76, velocity=95, time=960),
    Message('note_on', channel=6, note=72, velocity=95, time=0),
    Message('note_off', channel=6, note=72, velocity=95, time=480),
    Message('note_on', channel=6, note=69, velocity=95, time=0),
    Message('note_off', channel=6, note=69, velocity=95, time=960),
    Message('note_on', channel=6, note=69, velocity=95, time=0),
    Message('note_off', channel=6, note=69, velocity=95, time=480),
    Message('note_on', channel=6, note=64, velocity=95, time=0),
    Message('note_off', channel=6, note=64, velocity=95, time=960),
    Message('note_on', channel=6, note=69, velocity=95, time=0),
    Message('note_off', channel=6, note=69, velocity=95, time=1440),
    Message('note_on', channel=6, note=69, velocity=95, time=0),
    Message('note_off', channel=6, note=69, velocity=95, time=480),
    Message('note_on', channel=6, note=71, velocity=95, time=0),
    Message('note_off', channel=6, note=71, velocity=95, time=480),
    Message('note_on', channel=6, note=71, velocity=95, time=0),
    Message('note_off', channel=6, note=71, velocity=95, time=160),
    Message('note_on', channel=6, note=73, velocity=70, time=0),
    Message('note_off', channel=6, note=73, velocity=70, time=160),
    Message('note_on', channel=6, note=71, velocity=70, time=0),
    Message('note_off', channel=6, note=71, velocity=70, time=160),
    Message('note_on', channel=6, note=69, velocity=70, time=0),
    Message('note_off', channel=6, note=69, velocity=70, time=960),
    Message('note_on', channel=6, note=71, velocity=95, time=0),
    Message('note_off', channel=6, note=71, velocity=95, time=960),
    Message('note_on', channel=6, note=69, velocity=95, time=0),
    Message('note_off', channel=6, note=69, velocity=95, time=960),
    Message('note_on', channel=6, note=69, velocity=95, time=0),
    Message('note_off', channel=6, note=69, velocity=95, time=480),
    Message('note_on', channel=6, note=71, velocity=95, time=0),
    Message('note_off', channel=6, note=71, velocity=95, time=160),
    Message('note_on', channel=6, note=73, velocity=70, time=0),
    Message('note_off', channel=6, note=73, velocity=70, time=160),
    Message('note_on', channel=6, note=71, velocity=70, time=0),
    Message('note_off', channel=6, note=71, velocity=70, time=160),
    Message('note_on', channel=6, note=69, velocity=70, time=0),
    Message('note_off', channel=6, note=69, velocity=70, time=960),
    Message('note_on', channel=6, note=71, velocity=95, time=0),
    Message('note_off', channel=6, note=71, velocity=95, time=960),
    Message('note_on', channel=6, note=69, velocity=95, time=0),
    Message('note_off', channel=6, note=69, velocity=95, time=960),
    Message('note_on', channel=6, note=69, velocity=95, time=0),
    Message('note_off', channel=6, note=69, velocity=95, time=480),
    Message('note_on', channel=6, note=64, velocity=95, time=0),
    Message('note_off', channel=6, note=64, velocity=95, time=480),
    Message('note_on', channel=6, note=69, velocity=95, time=0),
    Message('note_off', channel=6, note=69, velocity=95, time=480),
    Message('note_on', channel=6, note=72, velocity=95, time=0),
    Message('note_off', channel=6, note=72, velocity=95, time=480),
    Message('note_on', channel=6, note=76, velocity=95, time=0),
    Message('note_off', channel=6, note=76, velocity=95, time=960),
    Message('note_on', channel=6, note=72, velocity=95, time=0),
    Message('note_off', channel=6, note=72, velocity=95, time=480),
    Message('note_on', channel=6, note=69, velocity=95, time=0),
    Message('note_off', channel=6, note=69, velocity=95, time=960),
    Message('note_on', channel=6, note=69, velocity=95, time=0),
    Message('note_off', channel=6, note=69, velocity=95, time=480),
    Message('note_on', channel=6, note=64, velocity=95, time=0),
    Message('note_on', channel=6, note=69, velocity=95, time=960),
    Message('note_off', channel=6, note=64, velocity=95, time=1440),
    Message('note_off', channel=6, note=69, velocity=95, time=0),
    Message('note_on', channel=6, note=69, velocity=95, time=0),
    Message('note_off', channel=6, note=69, velocity=95, time=480),
    Message('note_on', channel=6, note=71, velocity=95, time=0),
    Message('note_off', channel=6, note=71, velocity=95, time=480),
    Message('note_on', channel=6, note=71, velocity=95, time=0),
    Message('note_off', channel=6, note=71, velocity=95, time=160),
    Message('note_on', channel=6, note=73, velocity=70, time=0),
    Message('note_off', channel=6, note=73, velocity=70, time=160),
    Message('note_on', channel=6, note=71, velocity=70, time=0),
    Message('note_off', channel=6, note=71, velocity=70, time=160),
    Message('note_on', channel=6, note=69, velocity=70, time=0),
    Message('note_off', channel=6, note=69, velocity=70, time=480),
    Message('note_on', channel=6, note=76, velocity=95, time=0),
    Message('note_off', channel=6, note=76, velocity=95, time=480),
    Message('note_on', channel=6, note=71, velocity=95, time=0),
    Message('note_off', channel=6, note=71, velocity=95, time=960),
    Message('note_on', channel=6, note=69, velocity=95, time=0),
    Message('note_off', channel=6, note=69, velocity=95, time=960),
    Message('note_on', channel=6, note=69, velocity=95, time=0),
    Message('note_off', channel=6, note=69, velocity=95, time=480),
    Message('note_on', channel=6, note=71, velocity=95, time=0),
    Message('note_off', channel=6, note=71, velocity=95, time=160),
    Message('note_on', channel=6, note=73, velocity=70, time=0),
    Message('note_off', channel=6, note=73, velocity=70, time=160),
    Message('note_on', channel=6, note=71, velocity=70, time=0),
    Message('note_off', channel=6, note=71, velocity=70, time=160),
    Message('note_on', channel=6, note=69, velocity=70, time=0),
    Message('note_off', channel=6, note=69, velocity=70, time=480),
    Message('note_on', channel=6, note=76, velocity=95, time=0),
    Message('note_off', channel=6, note=76, velocity=95, time=480),
    Message('note_on', channel=6, note=71, velocity=95, time=0),
    Message('note_off', channel=6, note=71, velocity=95, time=960),
    Message('note_on', channel=6, note=69, velocity=95, time=0),
    Message('note_off', channel=6, note=69, velocity=95, time=960),
    Message('note_on', channel=6, note=69, velocity=95, time=0),
    Message('note_off', channel=6, note=69, velocity=95, time=480),
    Message('note_on', channel=6, note=64, velocity=95, time=0),
    Message('note_off', channel=6, note=64, velocity=95, time=480),
    Message('note_on', channel=6, note=69, velocity=95, time=0),
    Message('note_off', channel=6, note=69, velocity=95, time=480),
    Message('note_on', channel=6, note=72, velocity=95, time=0),
    Message('note_off', channel=6, note=72, velocity=95, time=480),
    Message('note_on', channel=6, note=76, velocity=95, time=0),
    Message('note_off', channel=6, note=76, velocity=95, time=960),
    Message('note_on', channel=6, note=72, velocity=95, time=0),
    Message('note_off', channel=6, note=72, velocity=95, time=480),
    Message('note_on', channel=6, note=69, velocity=95, time=0),
    Message('note_off', channel=6, note=69, velocity=95, time=960),
    Message('note_on', channel=6, note=69, velocity=95, time=0),
    Message('note_off', channel=6, note=69, velocity=95, time=480),
    Message('note_on', channel=6, note=64, velocity=95, time=0),
    Message('note_off', channel=6, note=64, velocity=95, time=960),
    Message('note_on', channel=6, note=69, velocity=95, time=0),
    Message('note_off', channel=6, note=69, velocity=95, time=1440),
    Message('note_on', channel=6, note=69, velocity=95, time=0),
    Message('note_off', channel=6, note=69, velocity=95, time=480),
    Message('note_on', channel=6, note=71, velocity=95, time=0),
    Message('note_off', channel=6, note=71, velocity=95, time=480),
    Message('note_on', channel=6, note=71, velocity=95, time=0),
    Message('note_off', channel=6, note=71, velocity=95, time=160),
    Message('note_on', channel=6, note=73, velocity=70, time=0),
    Message('note_off', channel=6, note=73, velocity=70, time=160),
    Message('note_on', channel=6, note=71, velocity=70, time=0),
    Message('note_off', channel=6, note=71, velocity=70, time=160),
    Message('note_on', channel=6, note=69, velocity=70, time=0),
    Message('note_off', channel=6, note=69, velocity=70, time=480),
    Message('note_on', channel=6, note=76, velocity=95, time=0),
    Message('note_on', channel=6, note=71, velocity=95, time=480),
    Message('note_off', channel=6, note=76, velocity=95, time=480),
    Message('note_off', channel=6, note=71, velocity=95, time=480),
    Message('note_on', channel=6, note=69, velocity=95, time=0),
    Message('note_off', channel=6, note=69, velocity=95, time=960),
    Message('note_on', channel=6, note=69, velocity=95, time=0),
    Message('note_off', channel=6, note=69, velocity=95, time=480),
    Message('note_on', channel=6, note=71, velocity=95, time=0),
    Message('note_off', channel=6, note=71, velocity=95, time=160),
    Message('note_on', channel=6, note=73, velocity=70, time=0),
    Message('note_off', channel=6, note=73, velocity=70, time=160),
    Message('note_on', channel=6, note=71, velocity=70, time=0),
    Message('note_off', channel=6, note=71, velocity=70, time=160),
    Message('note_on', channel=6, note=69, velocity=70, time=0),
    Message('note_off', channel=6, note=69, velocity=70, time=480),
    Message('note_on', channel=6, note=76, velocity=95, time=0),
    Message('note_on', channel=6, note=71, velocity=95, time=480),
    Message('note_off', channel=6, note=76, velocity=95, time=480),
    Message('note_off', channel=6, note=71, velocity=95, time=480),
    Message('note_on', channel=6, note=69, velocity=95, time=0),
    Message('note_off', channel=6, note=69, velocity=95, time=960),
    Message('note_on', channel=6, note=69, velocity=95, time=0),
    Message('note_off', channel=6, note=69, velocity=95, time=480),
    Message('note_on', channel=6, note=64, velocity=95, time=0),
    Message('note_off', channel=6, note=64, velocity=95, time=480),
    Message('note_on', channel=6, note=69, velocity=95, time=0),
    Message('note_off', channel=6, note=69, velocity=95, time=480),
    Message('note_on', channel=6, note=72, velocity=95, time=0),
    Message('note_off', channel=6, note=72, velocity=95, time=480),
    Message('note_on', channel=6, note=76, velocity=95, time=0),
    Message('note_off', channel=6, note=76, velocity=95, time=960),
    Message('note_on', channel=6, note=72, velocity=95, time=0),
    Message('note_off', channel=6, note=72, velocity=95, time=480),
    Message('note_on', channel=6, note=69, velocity=95, time=0),
    Message('note_off', channel=6, note=69, velocity=95, time=960),
    Message('note_on', channel=6, note=69, velocity=95, time=0),
    Message('note_off', channel=6, note=69, velocity=95, time=480),
    Message('note_on', channel=6, note=64, velocity=95, time=0),
    Message('note_off', channel=6, note=64, velocity=95, time=960),
    Message('note_on', channel=6, note=69, velocity=95, time=0),
    Message('note_off', channel=6, note=69, velocity=95, time=1440),
    Message('note_on', channel=6, note=69, velocity=95, time=0),
    Message('note_off', channel=6, note=69, velocity=95, time=480),
    Message('note_on', channel=6, note=71, velocity=95, time=0),
    Message('note_off', channel=6, note=71, velocity=95, time=480),
    Message('note_on', channel=6, note=71, velocity=95, time=0),
    Message('note_off', channel=6, note=71, velocity=95, time=160),
    Message('note_on', channel=6, note=73, velocity=70, time=0),
    Message('note_off', channel=6, note=73, velocity=70, time=160),
    Message('note_on', channel=6, note=71, velocity=70, time=0),
    Message('note_off', channel=6, note=71, velocity=70, time=160),
    Message('note_on', channel=6, note=69, velocity=70, time=0),
    Message('note_off', channel=6, note=69, velocity=70, time=960),
    Message('note_on', channel=6, note=71, velocity=95, time=0),
    Message('note_off', channel=6, note=71, velocity=95, time=960),
    Message('note_on', channel=6, note=69, velocity=95, time=0),
    Message('note_off', channel=6, note=69, velocity=95, time=960),
    Message('note_on', channel=6, note=69, velocity=95, time=0),
    Message('note_off', channel=6, note=69, velocity=95, time=480),
    Message('note_on', channel=6, note=71, velocity=95, time=0),
    Message('note_off', channel=6, note=71, velocity=95, time=160),
    Message('note_on', channel=6, note=73, velocity=70, time=0),
    Message('note_off', channel=6, note=73, velocity=70, time=160),
    Message('note_on', channel=6, note=71, velocity=70, time=0),
    Message('note_off', channel=6, note=71, velocity=70, time=160),
    Message('note_on', channel=6, note=69, velocity=70, time=0),
    Message('note_off', channel=6, note=69, velocity=70, time=960),
    Message('note_on', channel=6, note=71, velocity=95, time=0),
    Message('note_off', channel=6, note=71, velocity=95, time=960),
    Message('note_on', channel=6, note=69, velocity=95, time=0),
    Message('note_off', channel=6, note=69, velocity=95, time=960),
    Message('note_on', channel=6, note=69, velocity=95, time=0),
    Message('note_off', channel=6, note=69, velocity=95, time=480),
    Message('note_on', channel=6, note=57, velocity=95, time=0),
    Message('note_off', channel=6, note=57, velocity=95, time=1440),
    Message('note_on', channel=6, note=59, velocity=95, time=0),
    Message('note_off', channel=6, note=59, velocity=95, time=1440),
    Message('note_on', channel=6, note=64, velocity=95, time=0),
    Message('note_off', channel=6, note=64, velocity=95, time=960),
    Message('note_on', channel=6, note=57, velocity=95, time=0),
    Message('note_off', channel=6, note=57, velocity=95, time=1440),
    Message('note_on', channel=6, note=59, velocity=95, time=0),
    Message('note_off', channel=6, note=59, velocity=95, time=1440),
    Message('note_on', channel=6, note=60, velocity=95, time=0),
    Message('note_off', channel=6, note=60, velocity=95, time=960),
    Message('note_on', channel=6, note=69, velocity=95, time=480),
    Message('note_off', channel=6, note=69, velocity=95, time=480),
    Message('note_on', channel=6, note=76, velocity=95, time=0),
    Message('note_off', channel=6, note=76, velocity=95, time=480),
    Message('note_on', channel=6, note=69, velocity=95, time=0),
    Message('note_off', channel=6, note=69, velocity=95, time=960),
    Message('note_on', channel=6, note=69, velocity=95, time=0),
    Message('note_off', channel=6, note=69, velocity=95, time=480),
    Message('note_on', channel=6, note=73, velocity=95, time=0),
    Message('note_off', channel=6, note=73, velocity=95, time=480),
    Message('note_on', channel=6, note=69, velocity=95, time=0),
    Message('note_off', channel=6, note=69, velocity=95, time=960),
    Message('note_on', channel=6, note=69, velocity=95, time=0),
    Message('note_off', channel=6, note=69, velocity=95, time=480),
    Message('note_on', channel=6, note=73, velocity=95, time=0),
    Message('note_off', channel=6, note=73, velocity=95, time=480),
    Message('note_on', channel=6, note=69, velocity=95, time=0),
    Message('note_off', channel=6, note=69, velocity=95, time=960),
    Message('note_on', channel=6, note=69, velocity=95, time=0),
    Message('note_off', channel=6, note=69, velocity=95, time=480),
    Message('note_on', channel=6, note=73, velocity=95, time=0),
    Message('note_off', channel=6, note=73, velocity=95, time=480),
    Message('note_on', channel=6, note=69, velocity=95, time=0),
    Message('note_off', channel=6, note=69, velocity=95, time=480),
    Message('note_on', channel=6, note=57, velocity=95, time=0),
    Message('note_off', channel=6, note=57, velocity=95, time=1440),
    Message('note_on', channel=6, note=59, velocity=95, time=0),
    Message('note_off', channel=6, note=59, velocity=95, time=1440),
    Message('note_on', channel=6, note=64, velocity=95, time=0),
    Message('note_off', channel=6, note=64, velocity=95, time=960),
    Message('note_on', channel=6, note=57, velocity=95, time=0),
    Message('note_off', channel=6, note=57, velocity=95, time=1440),
    Message('note_on', channel=6, note=59, velocity=95, time=0),
    Message('note_off', channel=6, note=59, velocity=95, time=1440),
    Message('note_on', channel=6, note=60, velocity=95, time=0),
    Message('note_off', channel=6, note=60, velocity=95, time=960),
    Message('note_on', channel=6, note=69, velocity=95, time=480),
    Message('note_off', channel=6, note=69, velocity=95, time=480),
    Message('note_on', channel=6, note=76, velocity=95, time=0),
    Message('note_off', channel=6, note=76, velocity=95, time=480),
    Message('note_on', channel=6, note=69, velocity=95, time=0),
    Message('note_off', channel=6, note=69, velocity=95, time=960),
    Message('note_on', channel=6, note=69, velocity=95, time=0),
    Message('note_off', channel=6, note=69, velocity=95, time=480),
    Message('note_on', channel=6, note=73, velocity=95, time=0),
    Message('note_off', channel=6, note=73, velocity=95, time=480),
    Message('note_on', channel=6, note=69, velocity=95, time=0),
    Message('note_off', channel=6, note=69, velocity=95, time=960),
    Message('note_on', channel=6, note=69, velocity=95, time=0),
    Message('note_off', channel=6, note=69, velocity=95, time=480),
    Message('note_on', channel=6, note=73, velocity=95, time=0),
    Message('note_off', channel=6, note=73, velocity=95, time=480),
    Message('note_on', channel=6, note=69, velocity=95, time=0),
    Message('note_off', channel=6, note=69, velocity=95, time=960),
    Message('note_on', channel=6, note=69, velocity=95, time=0),
    Message('note_off', channel=6, note=69, velocity=95, time=480),
    Message('note_on', channel=6, note=73, velocity=95, time=0),
    Message('note_off', channel=6, note=73, velocity=95, time=480),
    Message('note_on', channel=6, note=69, velocity=95, time=0),
    Message('note_off', channel=6, note=69, velocity=95, time=480),
    Message('note_on', channel=6, note=57, velocity=95, time=0),
    Message('note_off', channel=6, note=57, velocity=95, time=1440),
    Message('note_on', channel=6, note=59, velocity=95, time=0),
    Message('note_off', channel=6, note=59, velocity=95, time=1440),
    Message('note_on', channel=6, note=64, velocity=95, time=0),
    Message('note_off', channel=6, note=64, velocity=95, time=960),
    Message('note_on', channel=6, note=57, velocity=95, time=0),
    Message('note_off', channel=6, note=57, velocity=95, time=1440),
    Message('note_on', channel=6, note=59, velocity=95, time=0),
    Message('note_off', channel=6, note=59, velocity=95, time=1440),
    Message('note_on', channel=6, note=60, velocity=95, time=0),
    Message('note_off', channel=6, note=60, velocity=95, time=960),
    Message('note_on', channel=6, note=69, velocity=95, time=480),
    Message('note_off', channel=6, note=69, velocity=95, time=480),
    Message('note_on', channel=6, note=76, velocity=95, time=0),
    Message('note_off', channel=6, note=76, velocity=95, time=480),
    Message('note_on', channel=6, note=69, velocity=95, time=0),
    Message('note_off', channel=6, note=69, velocity=95, time=960),
    Message('note_on', channel=6, note=69, velocity=95, time=0),
    Message('note_off', channel=6, note=69, velocity=95, time=480),
    Message('note_on', channel=6, note=73, velocity=95, time=0),
    Message('note_off', channel=6, note=73, velocity=95, time=480),
    Message('note_on', channel=6, note=69, velocity=95, time=0),
    Message('note_off', channel=6, note=69, velocity=95, time=960),
    Message('note_on', channel=6, note=69, velocity=95, time=0),
    Message('note_off', channel=6, note=69, velocity=95, time=480),
    Message('note_on', channel=6, note=73, velocity=95, time=0),
    Message('note_off', channel=6, note=73, velocity=95, time=480),
    Message('note_on', channel=6, note=69, velocity=95, time=0),
    Message('note_off', channel=6, note=69, velocity=95, time=960),
    Message('note_on', channel=6, note=69, velocity=95, time=0),
    Message('note_off', channel=6, note=69, velocity=95, time=480),
    Message('note_on', channel=6, note=73, velocity=95, time=0),
    Message('note_off', channel=6, note=73, velocity=95, time=480),
    Message('note_on', channel=6, note=69, velocity=95, time=0),
    Message('note_off', channel=6, note=69, velocity=95, time=480),
    Message('note_on', channel=6, note=57, velocity=95, time=0),
    Message('note_off', channel=6, note=57, velocity=95, time=1440),
    Message('note_on', channel=6, note=59, velocity=95, time=0),
    Message('note_off', channel=6, note=59, velocity=95, time=1440),
    Message('note_on', channel=6, note=64, velocity=95, time=0),
    Message('note_off', channel=6, note=64, velocity=95, time=960),
    Message('note_on', channel=6, note=57, velocity=95, time=0),
    Message('note_off', channel=6, note=57, velocity=95, time=1440),
    Message('note_on', channel=6, note=59, velocity=95, time=0),
    Message('note_off', channel=6, note=59, velocity=95, time=1440),
    Message('note_on', channel=6, note=60, velocity=95, time=0),
    Message('note_off', channel=6, note=60, velocity=95, time=960),
    Message('note_on', channel=6, note=69, velocity=95, time=480),
    Message('note_off', channel=6, note=69, velocity=95, time=480),
    Message('note_on', channel=6, note=76, velocity=95, time=0),
    Message('note_off', channel=6, note=76, velocity=95, time=480),
    Message('note_on', channel=6, note=69, velocity=95, time=0),
    Message('note_off', channel=6, note=69, velocity=95, time=960),
    Message('note_on', channel=6, note=69, velocity=95, time=0),
    Message('note_off', channel=6, note=69, velocity=95, time=480),
    Message('note_on', channel=6, note=73, velocity=95, time=0),
    Message('note_off', channel=6, note=73, velocity=95, time=480),
    Message('note_on', channel=6, note=69, velocity=95, time=0),
    Message('note_off', channel=6, note=69, velocity=95, time=960),
    Message('note_on', channel=6, note=69, velocity=95, time=0),
    Message('note_off', channel=6, note=69, velocity=95, time=480),
    Message('note_on', channel=6, note=73, velocity=95, time=0),
    Message('note_off', channel=6, note=73, velocity=95, time=480),
    Message('note_on', channel=6, note=69, velocity=95, time=0),
    Message('note_off', channel=6, note=69, velocity=95, time=960),
    Message('note_on', channel=6, note=69, velocity=95, time=0),
    Message('note_off', channel=6, note=69, velocity=95, time=480),
    Message('note_on', channel=6, note=73, velocity=95, time=0),
    Message('note_off', channel=6, note=73, velocity=95, time=480),
    Message('note_on', channel=6, note=69, velocity=95, time=0),
    Message('note_off', channel=6, note=69, velocity=95, time=480),
    Message('note_on', channel=6, note=57, velocity=95, time=0),
    Message('note_off', channel=6, note=57, velocity=95, time=1440),
    Message('note_on', channel=6, note=59, velocity=95, time=0),
    Message('note_off', channel=6, note=59, velocity=95, time=1440),
    Message('note_on', channel=6, note=64, velocity=95, time=0),
    Message('note_off', channel=6, note=64, velocity=95, time=960),
    Message('note_on', channel=6, note=57, velocity=95, time=0),
    Message('note_off', channel=6, note=57, velocity=95, time=1440),
    Message('note_on', channel=6, note=59, velocity=95, time=0),
    Message('note_off', channel=6, note=59, velocity=95, time=1440),
    Message('note_on', channel=6, note=60, velocity=95, time=0),
    Message('note_off', channel=6, note=60, velocity=95, time=960),
    Message('note_on', channel=6, note=69, velocity=95, time=480),
    Message('note_off', channel=6, note=69, velocity=95, time=480),
    Message('note_on', channel=6, note=76, velocity=95, time=0),
    Message('note_off', channel=6, note=76, velocity=95, time=480),
    Message('note_on', channel=6, note=69, velocity=95, time=0),
    Message('note_off', channel=6, note=69, velocity=95, time=960),
    Message('note_on', channel=6, note=69, velocity=95, time=0),
    Message('note_off', channel=6, note=69, velocity=95, time=480),
    Message('note_on', channel=6, note=73, velocity=95, time=0),
    Message('note_off', channel=6, note=73, velocity=95, time=480),
    Message('note_on', channel=6, note=69, velocity=95, time=0),
    Message('note_off', channel=6, note=69, velocity=95, time=960),
    Message('note_on', channel=6, note=69, velocity=95, time=0),
    Message('note_off', channel=6, note=69, velocity=95, time=480),
    Message('note_on', channel=6, note=73, velocity=95, time=0),
    Message('note_off', channel=6, note=73, velocity=95, time=480),
    Message('note_on', channel=6, note=69, velocity=95, time=0),
    Message('note_off', channel=6, note=69, velocity=95, time=960),
    Message('note_on', channel=6, note=69, velocity=95, time=0),
    Message('note_off', channel=6, note=69, velocity=95, time=480),
    Message('note_on', channel=6, note=73, velocity=95, time=0),
    Message('note_off', channel=6, note=73, velocity=95, time=480),
    Message('note_on', channel=6, note=69, velocity=95, time=0),
    Message('note_off', channel=6, note=69, velocity=95, time=480),
    Message('note_on', channel=6, note=57, velocity=95, time=0),
    Message('note_off', channel=6, note=57, velocity=95, time=1440),
    Message('note_on', channel=6, note=59, velocity=95, time=0),
    Message('note_off', channel=6, note=59, velocity=95, time=1440),
    Message('note_on', channel=6, note=64, velocity=95, time=0),
    Message('note_off', channel=6, note=64, velocity=95, time=960),
    Message('note_on', channel=6, note=57, velocity=95, time=0),
    Message('note_off', channel=6, note=57, velocity=95, time=1440),
    Message('note_on', channel=6, note=59, velocity=95, time=0),
    Message('note_off', channel=6, note=59, velocity=95, time=1440),
    Message('note_on', channel=6, note=60, velocity=95, time=0),
    Message('note_off', channel=6, note=60, velocity=95, time=960),
    Message('note_on', channel=6, note=69, velocity=95, time=480),
    Message('note_off', channel=6, note=69, velocity=95, time=480),
    Message('note_on', channel=6, note=76, velocity=95, time=0),
    Message('note_off', channel=6, note=76, velocity=95, time=480),
    Message('note_on', channel=6, note=69, velocity=95, time=0),
    Message('note_off', channel=6, note=69, velocity=95, time=960),
    Message('note_on', channel=6, note=69, velocity=95, time=0),
    Message('note_off', channel=6, note=69, velocity=95, time=480),
    Message('note_on', channel=6, note=73, velocity=95, time=0),
    Message('note_off', channel=6, note=73, velocity=95, time=480),
    Message('note_on', channel=6, note=69, velocity=95, time=0),
    Message('note_off', channel=6, note=69, velocity=95, time=960),
    Message('note_on', channel=6, note=69, velocity=95, time=0),
    Message('note_off', channel=6, note=69, velocity=95, time=480),
    Message('note_on', channel=6, note=73, velocity=95, time=0),
    Message('note_off', channel=6, note=73, velocity=95, time=480),
    Message('note_on', channel=6, note=69, velocity=95, time=0),
    Message('note_off', channel=6, note=69, velocity=95, time=960),
    Message('note_on', channel=6, note=69, velocity=95, time=0),
    Message('note_off', channel=6, note=69, velocity=95, time=480),
    Message('note_on', channel=6, note=73, velocity=95, time=0),
    Message('note_off', channel=6, note=73, velocity=95, time=480),
    Message('note_on', channel=6, note=69, velocity=95, time=0),
    Message('note_off', channel=6, note=69, velocity=95, time=480),
    Message('note_on', channel=6, note=57, velocity=95, time=0),
    Message('note_off', channel=6, note=57, velocity=95, time=1440),
    Message('note_on', channel=6, note=59, velocity=95, time=0),
    Message('note_off', channel=6, note=59, velocity=95, time=1440),
    Message('note_on', channel=6, note=64, velocity=95, time=0),
    Message('note_off', channel=6, note=64, velocity=95, time=960),
    Message('note_on', channel=6, note=57, velocity=95, time=0),
    Message('note_off', channel=6, note=57, velocity=95, time=1440),
    Message('note_on', channel=6, note=59, velocity=95, time=0),
    Message('note_off', channel=6, note=59, velocity=95, time=1440),
    Message('note_on', channel=6, note=60, velocity=95, time=0),
    Message('note_off', channel=6, note=60, velocity=95, time=960),
    Message('note_on', channel=6, note=69, velocity=95, time=480),
    Message('note_off', channel=6, note=69, velocity=95, time=480),
    Message('note_on', channel=6, note=76, velocity=95, time=0),
    Message('note_off', channel=6, note=76, velocity=95, time=480),
    Message('note_on', channel=6, note=69, velocity=95, time=0),
    Message('note_off', channel=6, note=69, velocity=95, time=960),
    Message('note_on', channel=6, note=69, velocity=95, time=0),
    Message('note_off', channel=6, note=69, velocity=95, time=480),
    Message('note_on', channel=6, note=73, velocity=95, time=0),
    Message('note_off', channel=6, note=73, velocity=95, time=480),
    Message('note_on', channel=6, note=69, velocity=95, time=0),
    Message('note_off', channel=6, note=69, velocity=95, time=960),
    Message('note_on', channel=6, note=69, velocity=95, time=0),
    Message('note_off', channel=6, note=69, velocity=95, time=480),
    Message('note_on', channel=6, note=73, velocity=95, time=0),
    Message('note_off', channel=6, note=73, velocity=95, time=480),
    Message('note_on', channel=6, note=69, velocity=95, time=0),
    Message('note_off', channel=6, note=69, velocity=95, time=960),
    Message('note_on', channel=6, note=69, velocity=95, time=0),
    Message('note_off', channel=6, note=69, velocity=95, time=480),
    Message('note_on', channel=6, note=73, velocity=95, time=0),
    Message('note_off', channel=6, note=73, velocity=95, time=480),
    Message('note_on', channel=6, note=69, velocity=95, time=0),
    Message('note_off', channel=6, note=69, velocity=95, time=480),
    Message('note_on', channel=6, note=57, velocity=95, time=0),
    Message('note_off', channel=6, note=57, velocity=95, time=1440),
    Message('note_on', channel=6, note=59, velocity=95, time=0),
    Message('note_off', channel=6, note=59, velocity=95, time=1440),
    Message('note_on', channel=6, note=64, velocity=95, time=0),
    Message('note_off', channel=6, note=64, velocity=95, time=960),
    Message('note_on', channel=6, note=57, velocity=95, time=0),
    Message('note_off', channel=6, note=57, velocity=95, time=1440),
    Message('note_on', channel=6, note=59, velocity=95, time=0),
    Message('note_off', channel=6, note=59, velocity=95, time=1440),
    Message('note_on', channel=6, note=60, velocity=95, time=0),
    Message('note_off', channel=6, note=60, velocity=95, time=960),
    Message('note_on', channel=6, note=69, velocity=95, time=480),
    Message('note_off', channel=6, note=69, velocity=95, time=480),
    Message('note_on', channel=6, note=76, velocity=95, time=0),
    Message('note_off', channel=6, note=76, velocity=95, time=480),
    Message('note_on', channel=6, note=69, velocity=95, time=0),
    Message('note_off', channel=6, note=69, velocity=95, time=960),
    Message('note_on', channel=6, note=69, velocity=95, time=0),
    Message('note_off', channel=6, note=69, velocity=95, time=480),
    Message('note_on', channel=6, note=73, velocity=95, time=0),
    Message('note_off', channel=6, note=73, velocity=95, time=480),
    Message('note_on', channel=6, note=69, velocity=95, time=0),
    Message('note_off', channel=6, note=69, velocity=95, time=960),
    Message('note_on', channel=6, note=69, velocity=95, time=0),
    Message('note_off', channel=6, note=69, velocity=95, time=480),
    Message('note_on', channel=6, note=73, velocity=95, time=0),
    Message('note_off', channel=6, note=73, velocity=95, time=480),
    Message('note_on', channel=6, note=69, velocity=95, time=0),
    Message('note_off', channel=6, note=69, velocity=95, time=960),
    Message('note_on', channel=6, note=69, velocity=95, time=0),
    Message('note_off', channel=6, note=69, velocity=95, time=480),
    Message('note_on', channel=6, note=73, velocity=95, time=0),
    Message('note_off', channel=6, note=73, velocity=95, time=480),
    Message('note_on', channel=6, note=69, velocity=95, time=0),
    Message('note_off', channel=6, note=69, velocity=95, time=480),
    Message('note_on', channel=6, note=57, velocity=95, time=0),
    Message('note_off', channel=6, note=57, velocity=95, time=1440),
    Message('note_on', channel=6, note=59, velocity=95, time=0),
    Message('note_off', channel=6, note=59, velocity=95, time=1440),
    Message('note_on', channel=6, note=64, velocity=95, time=0),
    Message('note_off', channel=6, note=64, velocity=95, time=960),
    Message('note_on', channel=6, note=57, velocity=95, time=0),
    Message('note_off', channel=6, note=57, velocity=95, time=1440),
    Message('note_on', channel=6, note=59, velocity=95, time=0),
    Message('note_off', channel=6, note=59, velocity=95, time=1440),
    Message('note_on', channel=6, note=60, velocity=95, time=0),
    Message('note_off', channel=6, note=60, velocity=95, time=960),
    Message('note_on', channel=6, note=69, velocity=95, time=480),
    Message('note_off', channel=6, note=69, velocity=95, time=480),
    Message('note_on', channel=6, note=76, velocity=95, time=0),
    Message('note_off', channel=6, note=76, velocity=95, time=480),
    Message('note_on', channel=6, note=69, velocity=95, time=0),
    Message('note_off', channel=6, note=69, velocity=95, time=960),
    Message('note_on', channel=6, note=69, velocity=95, time=0),
    Message('note_off', channel=6, note=69, velocity=95, time=480),
    Message('note_on', channel=6, note=73, velocity=95, time=0),
    Message('note_off', channel=6, note=73, velocity=95, time=480),
    Message('note_on', channel=6, note=69, velocity=95, time=0),
    Message('note_off', channel=6, note=69, velocity=95, time=960),
    Message('note_on', channel=6, note=69, velocity=95, time=0),
    Message('note_off', channel=6, note=69, velocity=95, time=480),
    Message('note_on', channel=6, note=73, velocity=95, time=0),
    Message('note_off', channel=6, note=73, velocity=95, time=480),
    Message('note_on', channel=6, note=69, velocity=95, time=0),
    Message('note_off', channel=6, note=69, velocity=95, time=960),
    Message('note_on', channel=6, note=69, velocity=95, time=0),
    Message('note_off', channel=6, note=69, velocity=95, time=480),
    Message('note_on', channel=6, note=73, velocity=95, time=0),
    Message('note_off', channel=6, note=73, velocity=95, time=480),
    Message('note_on', channel=6, note=69, velocity=95, time=0),
    Message('note_off', channel=6, note=69, velocity=95, time=480),
    Message('note_on', channel=6, note=57, velocity=95, time=0),
    Message('note_off', channel=6, note=57, velocity=95, time=1440),
    Message('note_on', channel=6, note=59, velocity=95, time=0),
    Message('note_off', channel=6, note=59, velocity=95, time=1440),
    Message('note_on', channel=6, note=64, velocity=95, time=0),
    Message('note_off', channel=6, note=64, velocity=95, time=960),
    Message('note_on', channel=6, note=57, velocity=95, time=0),
    Message('note_off', channel=6, note=57, velocity=95, time=1440),
    Message('note_on', channel=6, note=59, velocity=95, time=0),
    Message('note_off', channel=6, note=59, velocity=95, time=1440),
    Message('note_on', channel=6, note=60, velocity=95, time=0),
    Message('note_off', channel=6, note=60, velocity=95, time=960),
    Message('note_on', channel=6, note=69, velocity=95, time=480),
    Message('note_off', channel=6, note=69, velocity=95, time=480),
    Message('note_on', channel=6, note=76, velocity=95, time=0),
    Message('note_off', channel=6, note=76, velocity=95, time=480),
    Message('note_on', channel=6, note=69, velocity=95, time=0),
    Message('note_off', channel=6, note=69, velocity=95, time=960),
    Message('note_on', channel=6, note=69, velocity=95, time=0),
    Message('note_off', channel=6, note=69, velocity=95, time=480),
    Message('note_on', channel=6, note=73, velocity=95, time=0),
    Message('note_off', channel=6, note=73, velocity=95, time=480),
    Message('note_on', channel=6, note=69, velocity=95, time=0),
    Message('note_off', channel=6, note=69, velocity=95, time=960),
    Message('note_on', channel=6, note=69, velocity=95, time=0),
    Message('note_off', channel=6, note=69, velocity=95, time=480),
    Message('note_on', channel=6, note=73, velocity=95, time=0),
    Message('note_off', channel=6, note=73, velocity=95, time=480),
    Message('note_on', channel=6, note=69, velocity=95, time=0),
    Message('note_off', channel=6, note=69, velocity=95, time=960),
    Message('note_on', channel=6, note=69, velocity=95, time=0),
    Message('note_off', channel=6, note=69, velocity=95, time=480),
    Message('note_on', channel=6, note=73, velocity=95, time=0),
    Message('note_off', channel=6, note=73, velocity=95, time=480),
    Message('note_on', channel=6, note=69, velocity=95, time=0),
    Message('note_off', channel=6, note=69, velocity=95, time=480),
    MetaMessage('end_of_track', time=0)]),
  MidiTrack([
    Message('pitchwheel', channel=8, pitch=0, time=0),
    Message('control_change', channel=8, control=7, value=55, time=0),
    Message('control_change', channel=8, control=10, value=111, time=0),
    Message('control_change', channel=8, control=93, value=0, time=0),
    Message('control_change', channel=8, control=91, value=0, time=0),
    Message('control_change', channel=8, control=95, value=0, time=0),
    Message('control_change', channel=8, control=92, value=0, time=0),
    Message('control_change', channel=8, control=11, value=127, time=0),
    Message('program_change', channel=8, program=25, time=0),
    Message('control_change', channel=10, control=7, value=55, time=0),
    Message('control_change', channel=10, control=10, value=111, time=0),
    Message('control_change', channel=10, control=93, value=0, time=0),
    Message('control_change', channel=10, control=91, value=0, time=0),
    Message('control_change', channel=10, control=95, value=0, time=0),
    Message('control_change', channel=10, control=92, value=0, time=0),
    Message('control_change', channel=10, control=11, value=127, time=0),
    Message('program_change', channel=10, program=25, time=0),
    Message('note_on', channel=8, note=65, velocity=95, time=99840),
    Message('note_on', channel=8, note=60, velocity=95, time=0),
    Message('note_on', channel=8, note=57, velocity=95, time=0),
    Message('note_on', channel=8, note=53, velocity=95, time=0),
    Message('note_on', channel=8, note=48, velocity=95, time=0),
    Message('note_on', channel=8, note=41, velocity=95, time=0),
    Message('note_off', channel=8, note=65, velocity=95, time=480),
    Message('note_off', channel=8, note=60, velocity=95, time=0),
    Message('note_off', channel=8, note=57, velocity=95, time=0),
    Message('note_off', channel=8, note=53, velocity=95, time=0),
    Message('note_off', channel=8, note=48, velocity=95, time=0),
    Message('note_off', channel=8, note=41, velocity=95, time=0),
    Message('note_on', channel=8, note=65, velocity=95, time=0),
    Message('note_on', channel=8, note=60, velocity=95, time=0),
    Message('note_on', channel=8, note=57, velocity=95, time=0),
    Message('note_on', channel=8, note=53, velocity=95, time=0),
    Message('note_on', channel=8, note=48, velocity=95, time=0),
    Message('note_on', channel=8, note=41, velocity=95, time=0),
    Message('note_off', channel=8, note=65, velocity=95, time=480),
    Message('note_off', channel=8, note=60, velocity=95, time=0),
    Message('note_off', channel=8, note=57, velocity=95, time=0),
    Message('note_off', channel=8, note=53, velocity=95, time=0),
    Message('note_off', channel=8, note=48, velocity=95, time=0),
    Message('note_off', channel=8, note=41, velocity=95, time=0),
    Message('note_on', channel=8, note=65, velocity=95, time=0),
    Message('note_on', channel=8, note=60, velocity=95, time=0),
    Message('note_on', channel=8, note=57, velocity=95, time=0),
    Message('note_on', channel=8, note=53, velocity=95, time=0),
    Message('note_on', channel=8, note=48, velocity=95, time=0),
    Message('note_on', channel=8, note=41, velocity=95, time=0),
    Message('note_off', channel=8, note=65, velocity=95, time=2880),
    Message('note_off', channel=8, note=60, velocity=95, time=0),
    Message('note_off', channel=8, note=57, velocity=95, time=0),
    Message('note_off', channel=8, note=53, velocity=95, time=0),
    Message('note_off', channel=8, note=48, velocity=95, time=0),
    Message('note_off', channel=8, note=41, velocity=95, time=0),
    Message('note_on', channel=8, note=69, velocity=95, time=0),
    Message('note_on', channel=8, note=65, velocity=95, time=0),
    Message('note_on', channel=8, note=62, velocity=95, time=0),
    Message('note_on', channel=8, note=57, velocity=95, time=0),
    Message('note_on', channel=8, note=50, velocity=95, time=0),
    Message('note_off', channel=8, note=69, velocity=95, time=1440),
    Message('note_off', channel=8, note=65, velocity=95, time=0),
    Message('note_off', channel=8, note=62, velocity=95, time=0),
    Message('note_off', channel=8, note=57, velocity=95, time=0),
    Message('note_off', channel=8, note=50, velocity=95, time=0),
    Message('note_on', channel=8, note=69, velocity=95, time=0),
    Message('note_on', channel=8, note=64, velocity=95, time=0),
    Message('note_on', channel=8, note=62, velocity=95, time=0),
    Message('note_on', channel=8, note=57, velocity=95, time=0),
    Message('note_on', channel=8, note=50, velocity=95, time=0),
    Message('note_off', channel=8, note=69, velocity=95, time=1440),
    Message('note_off', channel=8, note=64, velocity=95, time=0),
    Message('note_off', channel=8, note=62, velocity=95, time=0),
    Message('note_off', channel=8, note=57, velocity=95, time=0),
    Message('note_off', channel=8, note=50, velocity=95, time=0),
    Message('note_on', channel=8, note=69, velocity=95, time=0),
    Message('note_on', channel=8, note=65, velocity=95, time=0),
    Message('note_on', channel=8, note=62, velocity=95, time=0),
    Message('note_on', channel=8, note=57, velocity=95, time=0),
    Message('note_on', channel=8, note=50, velocity=95, time=0),
    Message('note_off', channel=8, note=69, velocity=95, time=960),
    Message('note_off', channel=8, note=65, velocity=95, time=0),
    Message('note_off', channel=8, note=62, velocity=95, time=0),
    Message('note_off', channel=8, note=57, velocity=95, time=0),
    Message('note_off', channel=8, note=50, velocity=95, time=0),
    Message('note_on', channel=8, note=64, velocity=95, time=0),
    Message('note_on', channel=8, note=61, velocity=95, time=0),
    Message('note_on', channel=8, note=57, velocity=95, time=0),
    Message('note_on', channel=8, note=52, velocity=95, time=0),
    Message('note_on', channel=8, note=45, velocity=95, time=0),
    Message('note_off', channel=8, note=64, velocity=95, time=3840),
    Message('note_off', channel=8, note=61, velocity=95, time=0),
    Message('note_off', channel=8, note=57, velocity=95, time=0),
    Message('note_off', channel=8, note=52, velocity=95, time=0),
    Message('note_off', channel=8, note=45, velocity=95, time=0),
    Message('note_on', channel=8, note=64, velocity=95, time=0),
    Message('note_on', channel=8, note=61, velocity=95, time=0),
    Message('note_on', channel=8, note=57, velocity=95, time=0),
    Message('note_on', channel=8, note=52, velocity=95, time=0),
    Message('note_on', channel=8, note=45, velocity=95, time=0),
    Message('note_off', channel=8, note=64, velocity=95, time=3840),
    Message('note_off', channel=8, note=61, velocity=95, time=0),
    Message('note_off', channel=8, note=57, velocity=95, time=0),
    Message('note_off', channel=8, note=52, velocity=95, time=0),
    Message('note_off', channel=8, note=45, velocity=95, time=0),
    Message('note_on', channel=8, note=65, velocity=95, time=0),
    Message('note_on', channel=8, note=60, velocity=95, time=0),
    Message('note_on', channel=8, note=57, velocity=95, time=0),
    Message('note_on', channel=8, note=53, velocity=95, time=0),
    Message('note_on', channel=8, note=48, velocity=95, time=0),
    Message('note_on', channel=8, note=41, velocity=95, time=0),
    Message('note_off', channel=8, note=65, velocity=95, time=480),
    Message('note_off', channel=8, note=60, velocity=95, time=0),
    Message('note_off', channel=8, note=57, velocity=95, time=0),
    Message('note_off', channel=8, note=53, velocity=95, time=0),
    Message('note_off', channel=8, note=48, velocity=95, time=0),
    Message('note_off', channel=8, note=41, velocity=95, time=0),
    Message('note_on', channel=8, note=65, velocity=95, time=0),
    Message('note_on', channel=8, note=60, velocity=95, time=0),
    Message('note_on', channel=8, note=57, velocity=95, time=0),
    Message('note_on', channel=8, note=53, velocity=95, time=0),
    Message('note_on', channel=8, note=48, velocity=95, time=0),
    Message('note_on', channel=8, note=41, velocity=95, time=0),
    Message('note_off', channel=8, note=65, velocity=95, time=480),
    Message('note_off', channel=8, note=60, velocity=95, time=0),
    Message('note_off', channel=8, note=57, velocity=95, time=0),
    Message('note_off', channel=8, note=53, velocity=95, time=0),
    Message('note_off', channel=8, note=48, velocity=95, time=0),
    Message('note_off', channel=8, note=41, velocity=95, time=0),
    Message('note_on', channel=8, note=65, velocity=95, time=0),
    Message('note_on', channel=8, note=60, velocity=95, time=0),
    Message('note_on', channel=8, note=57, velocity=95, time=0),
    Message('note_on', channel=8, note=53, velocity=95, time=0),
    Message('note_on', channel=8, note=48, velocity=95, time=0),
    Message('note_on', channel=8, note=41, velocity=95, time=0),
    Message('note_off', channel=8, note=65, velocity=95, time=2880),
    Message('note_off', channel=8, note=60, velocity=95, time=0),
    Message('note_off', channel=8, note=57, velocity=95, time=0),
    Message('note_off', channel=8, note=53, velocity=95, time=0),
    Message('note_off', channel=8, note=48, velocity=95, time=0),
    Message('note_off', channel=8, note=41, velocity=95, time=0),
    Message('note_on', channel=8, note=69, velocity=95, time=0),
    Message('note_on', channel=8, note=65, velocity=95, time=0),
    Message('note_on', channel=8, note=62, velocity=95, time=0),
    Message('note_on', channel=8, note=57, velocity=95, time=0),
    Message('note_on', channel=8, note=50, velocity=95, time=0),
    Message('note_off', channel=8, note=69, velocity=95, time=1440),
    Message('note_off', channel=8, note=65, velocity=95, time=0),
    Message('note_off', channel=8, note=62, velocity=95, time=0),
    Message('note_off', channel=8, note=57, velocity=95, time=0),
    Message('note_off', channel=8, note=50, velocity=95, time=0),
    Message('note_on', channel=8, note=69, velocity=95, time=0),
    Message('note_on', channel=8, note=64, velocity=95, time=0),
    Message('note_on', channel=8, note=62, velocity=95, time=0),
    Message('note_on', channel=8, note=57, velocity=95, time=0),
    Message('note_on', channel=8, note=50, velocity=95, time=0),
    Message('note_off', channel=8, note=69, velocity=95, time=1440),
    Message('note_off', channel=8, note=64, velocity=95, time=0),
    Message('note_off', channel=8, note=62, velocity=95, time=0),
    Message('note_off', channel=8, note=57, velocity=95, time=0),
    Message('note_off', channel=8, note=50, velocity=95, time=0),
    Message('note_on', channel=8, note=69, velocity=95, time=0),
    Message('note_on', channel=8, note=65, velocity=95, time=0),
    Message('note_on', channel=8, note=62, velocity=95, time=0),
    Message('note_on', channel=8, note=57, velocity=95, time=0),
    Message('note_on', channel=8, note=50, velocity=95, time=0),
    Message('note_off', channel=8, note=69, velocity=95, time=960),
    Message('note_off', channel=8, note=65, velocity=95, time=0),
    Message('note_off', channel=8, note=62, velocity=95, time=0),
    Message('note_off', channel=8, note=57, velocity=95, time=0),
    Message('note_off', channel=8, note=50, velocity=95, time=0),
    Message('note_on', channel=8, note=64, velocity=95, time=0),
    Message('note_on', channel=8, note=61, velocity=95, time=0),
    Message('note_on', channel=8, note=57, velocity=95, time=0),
    Message('note_on', channel=8, note=52, velocity=95, time=0),
    Message('note_on', channel=8, note=45, velocity=95, time=0),
    Message('note_off', channel=8, note=64, velocity=95, time=3840),
    Message('note_off', channel=8, note=61, velocity=95, time=0),
    Message('note_off', channel=8, note=57, velocity=95, time=0),
    Message('note_off', channel=8, note=52, velocity=95, time=0),
    Message('note_off', channel=8, note=45, velocity=95, time=0),
    Message('note_on', channel=8, note=65, velocity=95, time=96000),
    Message('note_on', channel=8, note=60, velocity=95, time=0),
    Message('note_on', channel=8, note=57, velocity=95, time=0),
    Message('note_on', channel=8, note=53, velocity=95, time=0),
    Message('note_on', channel=8, note=48, velocity=95, time=0),
    Message('note_on', channel=8, note=41, velocity=95, time=0),
    Message('note_off', channel=8, note=65, velocity=95, time=480),
    Message('note_off', channel=8, note=60, velocity=95, time=0),
    Message('note_off', channel=8, note=57, velocity=95, time=0),
    Message('note_off', channel=8, note=53, velocity=95, time=0),
    Message('note_off', channel=8, note=48, velocity=95, time=0),
    Message('note_off', channel=8, note=41, velocity=95, time=0),
    Message('note_on', channel=8, note=65, velocity=95, time=0),
    Message('note_on', channel=8, note=60, velocity=95, time=0),
    Message('note_on', channel=8, note=57, velocity=95, time=0),
    Message('note_on', channel=8, note=53, velocity=95, time=0),
    Message('note_on', channel=8, note=48, velocity=95, time=0),
    Message('note_on', channel=8, note=41, velocity=95, time=0),
    Message('note_off', channel=8, note=65, velocity=95, time=480),
    Message('note_off', channel=8, note=60, velocity=95, time=0),
    Message('note_off', channel=8, note=57, velocity=95, time=0),
    Message('note_off', channel=8, note=53, velocity=95, time=0),
    Message('note_off', channel=8, note=48, velocity=95, time=0),
    Message('note_off', channel=8, note=41, velocity=95, time=0),
    Message('note_on', channel=8, note=65, velocity=95, time=0),
    Message('note_on', channel=8, note=60, velocity=95, time=0),
    Message('note_on', channel=8, note=57, velocity=95, time=0),
    Message('note_on', channel=8, note=53, velocity=95, time=0),
    Message('note_on', channel=8, note=48, velocity=95, time=0),
    Message('note_on', channel=8, note=41, velocity=95, time=0),
    Message('note_off', channel=8, note=65, velocity=95, time=2880),
    Message('note_off', channel=8, note=60, velocity=95, time=0),
    Message('note_off', channel=8, note=57, velocity=95, time=0),
    Message('note_off', channel=8, note=53, velocity=95, time=0),
    Message('note_off', channel=8, note=48, velocity=95, time=0),
    Message('note_off', channel=8, note=41, velocity=95, time=0),
    Message('note_on', channel=8, note=69, velocity=95, time=0),
    Message('note_on', channel=8, note=65, velocity=95, time=0),
    Message('note_on', channel=8, note=62, velocity=95, time=0),
    Message('note_on', channel=8, note=57, velocity=95, time=0),
    Message('note_on', channel=8, note=50, velocity=95, time=0),
    Message('note_off', channel=8, note=69, velocity=95, time=1440),
    Message('note_off', channel=8, note=65, velocity=95, time=0),
    Message('note_off', channel=8, note=62, velocity=95, time=0),
    Message('note_off', channel=8, note=57, velocity=95, time=0),
    Message('note_off', channel=8, note=50, velocity=95, time=0),
    Message('note_on', channel=8, note=69, velocity=95, time=0),
    Message('note_on', channel=8, note=64, velocity=95, time=0),
    Message('note_on', channel=8, note=62, velocity=95, time=0),
    Message('note_on', channel=8, note=57, velocity=95, time=0),
    Message('note_on', channel=8, note=50, velocity=95, time=0),
    Message('note_off', channel=8, note=69, velocity=95, time=1440),
    Message('note_off', channel=8, note=64, velocity=95, time=0),
    Message('note_off', channel=8, note=62, velocity=95, time=0),
    Message('note_off', channel=8, note=57, velocity=95, time=0),
    Message('note_off', channel=8, note=50, velocity=95, time=0),
    Message('note_on', channel=8, note=69, velocity=95, time=0),
    Message('note_on', channel=8, note=65, velocity=95, time=0),
    Message('note_on', channel=8, note=62, velocity=95, time=0),
    Message('note_on', channel=8, note=57, velocity=95, time=0),
    Message('note_on', channel=8, note=50, velocity=95, time=0),
    Message('note_off', channel=8, note=69, velocity=95, time=960),
    Message('note_off', channel=8, note=65, velocity=95, time=0),
    Message('note_off', channel=8, note=62, velocity=95, time=0),
    Message('note_off', channel=8, note=57, velocity=95, time=0),
    Message('note_off', channel=8, note=50, velocity=95, time=0),
    Message('note_on', channel=8, note=64, velocity=95, time=0),
    Message('note_on', channel=8, note=61, velocity=95, time=0),
    Message('note_on', channel=8, note=57, velocity=95, time=0),
    Message('note_on', channel=8, note=52, velocity=95, time=0),
    Message('note_on', channel=8, note=45, velocity=95, time=0),
    Message('note_off', channel=8, note=64, velocity=95, time=3840),
    Message('note_off', channel=8, note=61, velocity=95, time=0),
    Message('note_off', channel=8, note=57, velocity=95, time=0),
    Message('note_off', channel=8, note=52, velocity=95, time=0),
    Message('note_off', channel=8, note=45, velocity=95, time=0),
    Message('note_on', channel=8, note=64, velocity=95, time=0),
    Message('note_on', channel=8, note=61, velocity=95, time=0),
    Message('note_on', channel=8, note=57, velocity=95, time=0),
    Message('note_on', channel=8, note=52, velocity=95, time=0),
    Message('note_on', channel=8, note=45, velocity=95, time=0),
    Message('note_off', channel=8, note=64, velocity=95, time=3840),
    Message('note_off', channel=8, note=61, velocity=95, time=0),
    Message('note_off', channel=8, note=57, velocity=95, time=0),
    Message('note_off', channel=8, note=52, velocity=95, time=0),
    Message('note_off', channel=8, note=45, velocity=95, time=0),
    Message('note_on', channel=8, note=65, velocity=95, time=0),
    Message('note_on', channel=8, note=60, velocity=95, time=0),
    Message('note_on', channel=8, note=57, velocity=95, time=0),
    Message('note_on', channel=8, note=53, velocity=95, time=0),
    Message('note_on', channel=8, note=48, velocity=95, time=0),
    Message('note_on', channel=8, note=41, velocity=95, time=0),
    Message('note_off', channel=8, note=65, velocity=95, time=480),
    Message('note_off', channel=8, note=60, velocity=95, time=0),
    Message('note_off', channel=8, note=57, velocity=95, time=0),
    Message('note_off', channel=8, note=53, velocity=95, time=0),
    Message('note_off', channel=8, note=48, velocity=95, time=0),
    Message('note_off', channel=8, note=41, velocity=95, time=0),
    Message('note_on', channel=8, note=65, velocity=95, time=0),
    Message('note_on', channel=8, note=60, velocity=95, time=0),
    Message('note_on', channel=8, note=57, velocity=95, time=0),
    Message('note_on', channel=8, note=53, velocity=95, time=0),
    Message('note_on', channel=8, note=48, velocity=95, time=0),
    Message('note_on', channel=8, note=41, velocity=95, time=0),
    Message('note_off', channel=8, note=65, velocity=95, time=480),
    Message('note_off', channel=8, note=60, velocity=95, time=0),
    Message('note_off', channel=8, note=57, velocity=95, time=0),
    Message('note_off', channel=8, note=53, velocity=95, time=0),
    Message('note_off', channel=8, note=48, velocity=95, time=0),
    Message('note_off', channel=8, note=41, velocity=95, time=0),
    Message('note_on', channel=8, note=65, velocity=95, time=0),
    Message('note_on', channel=8, note=60, velocity=95, time=0),
    Message('note_on', channel=8, note=57, velocity=95, time=0),
    Message('note_on', channel=8, note=53, velocity=95, time=0),
    Message('note_on', channel=8, note=48, velocity=95, time=0),
    Message('note_on', channel=8, note=41, velocity=95, time=0),
    Message('note_off', channel=8, note=65, velocity=95, time=2880),
    Message('note_off', channel=8, note=60, velocity=95, time=0),
    Message('note_off', channel=8, note=57, velocity=95, time=0),
    Message('note_off', channel=8, note=53, velocity=95, time=0),
    Message('note_off', channel=8, note=48, velocity=95, time=0),
    Message('note_off', channel=8, note=41, velocity=95, time=0),
    Message('note_on', channel=8, note=69, velocity=95, time=0),
    Message('note_on', channel=8, note=65, velocity=95, time=0),
    Message('note_on', channel=8, note=62, velocity=95, time=0),
    Message('note_on', channel=8, note=57, velocity=95, time=0),
    Message('note_on', channel=8, note=50, velocity=95, time=0),
    Message('note_off', channel=8, note=69, velocity=95, time=1440),
    Message('note_off', channel=8, note=65, velocity=95, time=0),
    Message('note_off', channel=8, note=62, velocity=95, time=0),
    Message('note_off', channel=8, note=57, velocity=95, time=0),
    Message('note_off', channel=8, note=50, velocity=95, time=0),
    Message('note_on', channel=8, note=69, velocity=95, time=0),
    Message('note_on', channel=8, note=64, velocity=95, time=0),
    Message('note_on', channel=8, note=62, velocity=95, time=0),
    Message('note_on', channel=8, note=57, velocity=95, time=0),
    Message('note_on', channel=8, note=50, velocity=95, time=0),
    Message('note_off', channel=8, note=69, velocity=95, time=1440),
    Message('note_off', channel=8, note=64, velocity=95, time=0),
    Message('note_off', channel=8, note=62, velocity=95, time=0),
    Message('note_off', channel=8, note=57, velocity=95, time=0),
    Message('note_off', channel=8, note=50, velocity=95, time=0),
    Message('note_on', channel=8, note=69, velocity=95, time=0),
    Message('note_on', channel=8, note=65, velocity=95, time=0),
    Message('note_on', channel=8, note=62, velocity=95, time=0),
    Message('note_on', channel=8, note=57, velocity=95, time=0),
    Message('note_on', channel=8, note=50, velocity=95, time=0),
    Message('note_off', channel=8, note=69, velocity=95, time=960),
    Message('note_off', channel=8, note=65, velocity=95, time=0),
    Message('note_off', channel=8, note=62, velocity=95, time=0),
    Message('note_off', channel=8, note=57, velocity=95, time=0),
    Message('note_off', channel=8, note=50, velocity=95, time=0),
    Message('note_on', channel=8, note=64, velocity=95, time=0),
    Message('note_on', channel=8, note=61, velocity=95, time=0),
    Message('note_on', channel=8, note=57, velocity=95, time=0),
    Message('note_on', channel=8, note=52, velocity=95, time=0),
    Message('note_on', channel=8, note=45, velocity=95, time=0),
    Message('note_off', channel=8, note=64, velocity=95, time=3840),
    Message('note_off', channel=8, note=61, velocity=95, time=0),
    Message('note_off', channel=8, note=57, velocity=95, time=0),
    Message('note_off', channel=8, note=52, velocity=95, time=0),
    Message('note_off', channel=8, note=45, velocity=95, time=0),
    Message('note_on', channel=8, note=65, velocity=95, time=3840),
    Message('note_on', channel=8, note=60, velocity=95, time=0),
    Message('note_on', channel=8, note=57, velocity=95, time=0),
    Message('note_on', channel=8, note=53, velocity=95, time=0),
    Message('note_on', channel=8, note=48, velocity=95, time=0),
    Message('note_on', channel=8, note=41, velocity=95, time=0),
    Message('note_off', channel=8, note=65, velocity=95, time=480),
    Message('note_off', channel=8, note=60, velocity=95, time=0),
    Message('note_off', channel=8, note=57, velocity=95, time=0),
    Message('note_off', channel=8, note=53, velocity=95, time=0),
    Message('note_off', channel=8, note=48, velocity=95, time=0),
    Message('note_off', channel=8, note=41, velocity=95, time=0),
    Message('note_on', channel=8, note=65, velocity=95, time=0),
    Message('note_on', channel=8, note=60, velocity=95, time=0),
    Message('note_on', channel=8, note=57, velocity=95, time=0),
    Message('note_on', channel=8, note=53, velocity=95, time=0),
    Message('note_on', channel=8, note=48, velocity=95, time=0),
    Message('note_on', channel=8, note=41, velocity=95, time=0),
    Message('note_off', channel=8, note=65, velocity=95, time=480),
    Message('note_off', channel=8, note=60, velocity=95, time=0),
    Message('note_off', channel=8, note=57, velocity=95, time=0),
    Message('note_off', channel=8, note=53, velocity=95, time=0),
    Message('note_off', channel=8, note=48, velocity=95, time=0),
    Message('note_off', channel=8, note=41, velocity=95, time=0),
    Message('note_on', channel=8, note=65, velocity=95, time=0),
    Message('note_on', channel=8, note=60, velocity=95, time=0),
    Message('note_on', channel=8, note=57, velocity=95, time=0),
    Message('note_on', channel=8, note=53, velocity=95, time=0),
    Message('note_on', channel=8, note=48, velocity=95, time=0),
    Message('note_on', channel=8, note=41, velocity=95, time=0),
    Message('note_off', channel=8, note=65, velocity=95, time=2880),
    Message('note_off', channel=8, note=60, velocity=95, time=0),
    Message('note_off', channel=8, note=57, velocity=95, time=0),
    Message('note_off', channel=8, note=53, velocity=95, time=0),
    Message('note_off', channel=8, note=48, velocity=95, time=0),
    Message('note_off', channel=8, note=41, velocity=95, time=0),
    Message('note_on', channel=8, note=69, velocity=95, time=0),
    Message('note_on', channel=8, note=65, velocity=95, time=0),
    Message('note_on', channel=8, note=62, velocity=95, time=0),
    Message('note_on', channel=8, note=57, velocity=95, time=0),
    Message('note_on', channel=8, note=50, velocity=95, time=0),
    Message('note_off', channel=8, note=69, velocity=95, time=1440),
    Message('note_off', channel=8, note=65, velocity=95, time=0),
    Message('note_off', channel=8, note=62, velocity=95, time=0),
    Message('note_off', channel=8, note=57, velocity=95, time=0),
    Message('note_off', channel=8, note=50, velocity=95, time=0),
    Message('note_on', channel=8, note=69, velocity=95, time=0),
    Message('note_on', channel=8, note=64, velocity=95, time=0),
    Message('note_on', channel=8, note=62, velocity=95, time=0),
    Message('note_on', channel=8, note=57, velocity=95, time=0),
    Message('note_on', channel=8, note=50, velocity=95, time=0),
    Message('note_off', channel=8, note=69, velocity=95, time=1440),
    Message('note_off', channel=8, note=64, velocity=95, time=0),
    Message('note_off', channel=8, note=62, velocity=95, time=0),
    Message('note_off', channel=8, note=57, velocity=95, time=0),
    Message('note_off', channel=8, note=50, velocity=95, time=0),
    Message('note_on', channel=8, note=64, velocity=95, time=0),
    Message('note_on', channel=8, note=60, velocity=95, time=0),
    Message('note_on', channel=8, note=55, velocity=95, time=0),
    Message('note_on', channel=8, note=48, velocity=95, time=0),
    Message('note_off', channel=8, note=64, velocity=95, time=960),
    Message('note_off', channel=8, note=60, velocity=95, time=0),
    Message('note_off', channel=8, note=55, velocity=95, time=0),
    Message('note_off', channel=8, note=48, velocity=95, time=0),
    Message('note_on', channel=8, note=64, velocity=95, time=0),
    Message('note_on', channel=8, note=61, velocity=95, time=0),
    Message('note_on', channel=8, note=57, velocity=95, time=0),
    Message('note_on', channel=8, note=52, velocity=95, time=0),
    Message('note_on', channel=8, note=45, velocity=95, time=0),
    Message('note_off', channel=8, note=64, velocity=95, time=3840),
    Message('note_off', channel=8, note=61, velocity=95, time=0),
    Message('note_off', channel=8, note=57, velocity=95, time=0),
    Message('note_off', channel=8, note=52, velocity=95, time=0),
    Message('note_off', channel=8, note=45, velocity=95, time=0),
    Message('note_on', channel=8, note=64, velocity=95, time=0),
    Message('note_on', channel=8, note=61, velocity=95, time=0),
    Message('note_on', channel=8, note=57, velocity=95, time=0),
    Message('note_on', channel=8, note=52, velocity=95, time=0),
    Message('note_on', channel=8, note=45, velocity=95, time=0),
    Message('note_off', channel=8, note=64, velocity=95, time=3840),
    Message('note_off', channel=8, note=61, velocity=95, time=0),
    Message('note_off', channel=8, note=57, velocity=95, time=0),
    Message('note_off', channel=8, note=52, velocity=95, time=0),
    Message('note_off', channel=8, note=45, velocity=95, time=0),
    Message('note_on', channel=8, note=65, velocity=95, time=30720),
    Message('note_on', channel=8, note=60, velocity=95, time=0),
    Message('note_on', channel=8, note=57, velocity=95, time=0),
    Message('note_on', channel=8, note=53, velocity=95, time=0),
    Message('note_on', channel=8, note=48, velocity=95, time=0),
    Message('note_on', channel=8, note=41, velocity=95, time=0),
    Message('note_off', channel=8, note=65, velocity=95, time=480),
    Message('note_off', channel=8, note=60, velocity=95, time=0),
    Message('note_off', channel=8, note=57, velocity=95, time=0),
    Message('note_off', channel=8, note=53, velocity=95, time=0),
    Message('note_off', channel=8, note=48, velocity=95, time=0),
    Message('note_off', channel=8, note=41, velocity=95, time=0),
    Message('note_on', channel=8, note=65, velocity=95, time=0),
    Message('note_on', channel=8, note=60, velocity=95, time=0),
    Message('note_on', channel=8, note=57, velocity=95, time=0),
    Message('note_on', channel=8, note=53, velocity=95, time=0),
    Message('note_on', channel=8, note=48, velocity=95, time=0),
    Message('note_on', channel=8, note=41, velocity=95, time=0),
    Message('note_off', channel=8, note=65, velocity=95, time=480),
    Message('note_off', channel=8, note=60, velocity=95, time=0),
    Message('note_off', channel=8, note=57, velocity=95, time=0),
    Message('note_off', channel=8, note=53, velocity=95, time=0),
    Message('note_off', channel=8, note=48, velocity=95, time=0),
    Message('note_off', channel=8, note=41, velocity=95, time=0),
    Message('note_on', channel=8, note=65, velocity=95, time=0),
    Message('note_on', channel=8, note=60, velocity=95, time=0),
    Message('note_on', channel=8, note=57, velocity=95, time=0),
    Message('note_on', channel=8, note=53, velocity=95, time=0),
    Message('note_on', channel=8, note=48, velocity=95, time=0),
    Message('note_on', channel=8, note=41, velocity=95, time=0),
    Message('note_off', channel=8, note=65, velocity=95, time=2880),
    Message('note_off', channel=8, note=60, velocity=95, time=0),
    Message('note_off', channel=8, note=57, velocity=95, time=0),
    Message('note_off', channel=8, note=53, velocity=95, time=0),
    Message('note_off', channel=8, note=48, velocity=95, time=0),
    Message('note_off', channel=8, note=41, velocity=95, time=0),
    Message('note_on', channel=8, note=69, velocity=95, time=0),
    Message('note_on', channel=8, note=65, velocity=95, time=0),
    Message('note_on', channel=8, note=62, velocity=95, time=0),
    Message('note_on', channel=8, note=57, velocity=95, time=0),
    Message('note_on', channel=8, note=50, velocity=95, time=0),
    Message('note_off', channel=8, note=69, velocity=95, time=1440),
    Message('note_off', channel=8, note=65, velocity=95, time=0),
    Message('note_off', channel=8, note=62, velocity=95, time=0),
    Message('note_off', channel=8, note=57, velocity=95, time=0),
    Message('note_off', channel=8, note=50, velocity=95, time=0),
    Message('note_on', channel=8, note=69, velocity=95, time=0),
    Message('note_on', channel=8, note=64, velocity=95, time=0),
    Message('note_on', channel=8, note=62, velocity=95, time=0),
    Message('note_on', channel=8, note=57, velocity=95, time=0),
    Message('note_on', channel=8, note=50, velocity=95, time=0),
    Message('note_off', channel=8, note=69, velocity=95, time=1440),
    Message('note_off', channel=8, note=64, velocity=95, time=0),
    Message('note_off', channel=8, note=62, velocity=95, time=0),
    Message('note_off', channel=8, note=57, velocity=95, time=0),
    Message('note_off', channel=8, note=50, velocity=95, time=0),
    Message('note_on', channel=8, note=69, velocity=95, time=0),
    Message('note_on', channel=8, note=65, velocity=95, time=0),
    Message('note_on', channel=8, note=62, velocity=95, time=0),
    Message('note_on', channel=8, note=57, velocity=95, time=0),
    Message('note_on', channel=8, note=50, velocity=95, time=0),
    Message('note_off', channel=8, note=69, velocity=95, time=960),
    Message('note_off', channel=8, note=65, velocity=95, time=0),
    Message('note_off', channel=8, note=62, velocity=95, time=0),
    Message('note_off', channel=8, note=57, velocity=95, time=0),
    Message('note_off', channel=8, note=50, velocity=95, time=0),
    Message('note_on', channel=8, note=64, velocity=95, time=0),
    Message('note_on', channel=8, note=61, velocity=95, time=0),
    Message('note_on', channel=8, note=57, velocity=95, time=0),
    Message('note_on', channel=8, note=52, velocity=95, time=0),
    Message('note_on', channel=8, note=45, velocity=95, time=0),
    Message('note_off', channel=8, note=64, velocity=95, time=960),
    Message('note_off', channel=8, note=61, velocity=95, time=0),
    Message('note_off', channel=8, note=57, velocity=95, time=0),
    Message('note_off', channel=8, note=52, velocity=95, time=0),
    Message('note_off', channel=8, note=45, velocity=95, time=480),
    Message('note_on', channel=8, note=47, velocity=95, time=0),
    Message('note_off', channel=8, note=47, velocity=95, time=2400),
    Message('note_on', channel=8, note=55, velocity=95, time=0),
    Message('note_on', channel=8, note=48, velocity=95, time=0),
    Message('note_off', channel=8, note=55, velocity=95, time=1440),
    Message('note_off', channel=8, note=48, velocity=95, time=0),
    Message('note_on', channel=8, note=57, velocity=95, time=0),
    Message('note_on', channel=8, note=50, velocity=95, time=0),
    Message('note_off', channel=8, note=57, velocity=95, time=2400),
    Message('note_off', channel=8, note=50, velocity=95, time=0),
    Message('note_on', channel=8, note=65, velocity=95, time=0),
    Message('note_on', channel=8, note=60, velocity=95, time=0),
    Message('note_on', channel=8, note=57, velocity=95, time=0),
    Message('note_on', channel=8, note=53, velocity=95, time=0),
    Message('note_on', channel=8, note=48, velocity=95, time=0),
    Message('note_on', channel=8, note=41, velocity=95, time=0),
    Message('note_off', channel=8, note=65, velocity=95, time=480),
    Message('note_off', channel=8, note=60, velocity=95, time=0),
    Message('note_off', channel=8, note=57, velocity=95, time=0),
    Message('note_off', channel=8, note=53, velocity=95, time=0),
    Message('note_off', channel=8, note=48, velocity=95, time=0),
    Message('note_off', channel=8, note=41, velocity=95, time=0),
    Message('note_on', channel=8, note=65, velocity=95, time=0),
    Message('note_on', channel=8, note=60, velocity=95, time=0),
    Message('note_on', channel=8, note=57, velocity=95, time=0),
    Message('note_on', channel=8, note=53, velocity=95, time=0),
    Message('note_on', channel=8, note=48, velocity=95, time=0),
    Message('note_on', channel=8, note=41, velocity=95, time=0),
    Message('note_off', channel=8, note=65, velocity=95, time=480),
    Message('note_off', channel=8, note=60, velocity=95, time=0),
    Message('note_off', channel=8, note=57, velocity=95, time=0),
    Message('note_off', channel=8, note=53, velocity=95, time=0),
    Message('note_off', channel=8, note=48, velocity=95, time=0),
    Message('note_off', channel=8, note=41, velocity=95, time=0),
    Message('note_on', channel=8, note=65, velocity=95, time=0),
    Message('note_on', channel=8, note=60, velocity=95, time=0),
    Message('note_on', channel=8, note=57, velocity=95, time=0),
    Message('note_on', channel=8, note=53, velocity=95, time=0),
    Message('note_on', channel=8, note=48, velocity=95, time=0),
    Message('note_on', channel=8, note=41, velocity=95, time=0),
    Message('note_off', channel=8, note=65, velocity=95, time=2880),
    Message('note_off', channel=8, note=60, velocity=95, time=0),
    Message('note_off', channel=8, note=57, velocity=95, time=0),
    Message('note_off', channel=8, note=53, velocity=95, time=0),
    Message('note_off', channel=8, note=48, velocity=95, time=0),
    Message('note_off', channel=8, note=41, velocity=95, time=0),
    Message('note_on', channel=8, note=69, velocity=95, time=0),
    Message('note_on', channel=8, note=65, velocity=95, time=0),
    Message('note_on', channel=8, note=62, velocity=95, time=0),
    Message('note_on', channel=8, note=57, velocity=95, time=0),
    Message('note_on', channel=8, note=50, velocity=95, time=0),
    Message('note_off', channel=8, note=69, velocity=95, time=1440),
    Message('note_off', channel=8, note=65, velocity=95, time=0),
    Message('note_off', channel=8, note=62, velocity=95, time=0),
    Message('note_off', channel=8, note=57, velocity=95, time=0),
    Message('note_off', channel=8, note=50, velocity=95, time=0),
    Message('note_on', channel=8, note=69, velocity=95, time=0),
    Message('note_on', channel=8, note=64, velocity=95, time=0),
    Message('note_on', channel=8, note=62, velocity=95, time=0),
    Message('note_on', channel=8, note=57, velocity=95, time=0),
    Message('note_on', channel=8, note=50, velocity=95, time=0),
    Message('note_off', channel=8, note=69, velocity=95, time=1440),
    Message('note_off', channel=8, note=64, velocity=95, time=0),
    Message('note_off', channel=8, note=62, velocity=95, time=0),
    Message('note_off', channel=8, note=57, velocity=95, time=0),
    Message('note_off', channel=8, note=50, velocity=95, time=0),
    Message('note_on', channel=8, note=69, velocity=95, time=0),
    Message('note_on', channel=8, note=65, velocity=95, time=0),
    Message('note_on', channel=8, note=62, velocity=95, time=0),
    Message('note_on', channel=8, note=57, velocity=95, time=0),
    Message('note_on', channel=8, note=50, velocity=95, time=0),
    Message('note_off', channel=8, note=69, velocity=95, time=960),
    Message('note_off', channel=8, note=65, velocity=95, time=0),
    Message('note_off', channel=8, note=62, velocity=95, time=0),
    Message('note_off', channel=8, note=57, velocity=95, time=0),
    Message('note_off', channel=8, note=50, velocity=95, time=0),
    Message('note_on', channel=8, note=64, velocity=95, time=0),
    Message('note_on', channel=8, note=61, velocity=95, time=0),
    Message('note_on', channel=8, note=57, velocity=95, time=0),
    Message('note_on', channel=8, note=52, velocity=95, time=0),
    Message('note_on', channel=8, note=45, velocity=95, time=0),
    Message('note_off', channel=8, note=64, velocity=95, time=3840),
    Message('note_off', channel=8, note=61, velocity=95, time=0),
    Message('note_off', channel=8, note=57, velocity=95, time=0),
    Message('note_off', channel=8, note=52, velocity=95, time=0),
    Message('note_off', channel=8, note=45, velocity=95, time=0),
    Message('note_on', channel=8, note=65, velocity=95, time=3840),
    Message('note_on', channel=8, note=60, velocity=95, time=0),
    Message('note_on', channel=8, note=57, velocity=95, time=0),
    Message('note_on', channel=8, note=53, velocity=95, time=0),
    Message('note_on', channel=8, note=48, velocity=95, time=0),
    Message('note_on', channel=8, note=41, velocity=95, time=0),
    Message('note_off', channel=8, note=65, velocity=95, time=480),
    Message('note_off', channel=8, note=60, velocity=95, time=0),
    Message('note_off', channel=8, note=57, velocity=95, time=0),
    Message('note_off', channel=8, note=53, velocity=95, time=0),
    Message('note_off', channel=8, note=48, velocity=95, time=0),
    Message('note_off', channel=8, note=41, velocity=95, time=0),
    Message('note_on', channel=8, note=65, velocity=95, time=0),
    Message('note_on', channel=8, note=60, velocity=95, time=0),
    Message('note_on', channel=8, note=57, velocity=95, time=0),
    Message('note_on', channel=8, note=53, velocity=95, time=0),
    Message('note_on', channel=8, note=48, velocity=95, time=0),
    Message('note_on', channel=8, note=41, velocity=95, time=0),
    Message('note_off', channel=8, note=65, velocity=95, time=480),
    Message('note_off', channel=8, note=60, velocity=95, time=0),
    Message('note_off', channel=8, note=57, velocity=95, time=0),
    Message('note_off', channel=8, note=53, velocity=95, time=0),
    Message('note_off', channel=8, note=48, velocity=95, time=0),
    Message('note_off', channel=8, note=41, velocity=95, time=0),
    Message('note_on', channel=8, note=65, velocity=95, time=0),
    Message('note_on', channel=8, note=60, velocity=95, time=0),
    Message('note_on', channel=8, note=57, velocity=95, time=0),
    Message('note_on', channel=8, note=53, velocity=95, time=0),
    Message('note_on', channel=8, note=48, velocity=95, time=0),
    Message('note_on', channel=8, note=41, velocity=95, time=0),
    Message('note_off', channel=8, note=65, velocity=95, time=2880),
    Message('note_off', channel=8, note=60, velocity=95, time=0),
    Message('note_off', channel=8, note=57, velocity=95, time=0),
    Message('note_off', channel=8, note=53, velocity=95, time=0),
    Message('note_off', channel=8, note=48, velocity=95, time=0),
    Message('note_off', channel=8, note=41, velocity=95, time=0),
    Message('note_on', channel=8, note=69, velocity=95, time=0),
    Message('note_on', channel=8, note=65, velocity=95, time=0),
    Message('note_on', channel=8, note=62, velocity=95, time=0),
    Message('note_on', channel=8, note=57, velocity=95, time=0),
    Message('note_on', channel=8, note=50, velocity=95, time=0),
    Message('note_off', channel=8, note=69, velocity=95, time=1440),
    Message('note_off', channel=8, note=65, velocity=95, time=0),
    Message('note_off', channel=8, note=62, velocity=95, time=0),
    Message('note_off', channel=8, note=57, velocity=95, time=0),
    Message('note_off', channel=8, note=50, velocity=95, time=0),
    Message('note_on', channel=8, note=69, velocity=95, time=0),
    Message('note_on', channel=8, note=64, velocity=95, time=0),
    Message('note_on', channel=8, note=62, velocity=95, time=0),
    Message('note_on', channel=8, note=57, velocity=95, time=0),
    Message('note_on', channel=8, note=50, velocity=95, time=0),
    Message('note_off', channel=8, note=69, velocity=95, time=1440),
    Message('note_off', channel=8, note=64, velocity=95, time=0),
    Message('note_off', channel=8, note=62, velocity=95, time=0),
    Message('note_off', channel=8, note=57, velocity=95, time=0),
    Message('note_off', channel=8, note=50, velocity=95, time=0),
    Message('note_on', channel=8, note=69, velocity=95, time=0),
    Message('note_on', channel=8, note=65, velocity=95, time=0),
    Message('note_on', channel=8, note=62, velocity=95, time=0),
    Message('note_on', channel=8, note=57, velocity=95, time=0),
    Message('note_on', channel=8, note=50, velocity=95, time=0),
    Message('note_off', channel=8, note=69, velocity=95, time=960),
    Message('note_off', channel=8, note=65, velocity=95, time=0),
    Message('note_off', channel=8, note=62, velocity=95, time=0),
    Message('note_off', channel=8, note=57, velocity=95, time=0),
    Message('note_off', channel=8, note=50, velocity=95, time=0),
    Message('note_on', channel=8, note=64, velocity=95, time=0),
    Message('note_on', channel=8, note=61, velocity=95, time=0),
    Message('note_on', channel=8, note=57, velocity=95, time=0),
    Message('note_on', channel=8, note=52, velocity=95, time=0),
    Message('note_on', channel=8, note=45, velocity=95, time=0),
    Message('note_off', channel=8, note=64, velocity=95, time=3840),
    Message('note_off', channel=8, note=61, velocity=95, time=0),
    Message('note_off', channel=8, note=57, velocity=95, time=0),
    Message('note_off', channel=8, note=52, velocity=95, time=0),
    Message('note_off', channel=8, note=45, velocity=95, time=0),
    Message('note_on', channel=8, note=64, velocity=95, time=0),
    Message('note_on', channel=8, note=61, velocity=95, time=0),
    Message('note_on', channel=8, note=57, velocity=95, time=0),
    Message('note_on', channel=8, note=52, velocity=95, time=0),
    Message('note_on', channel=8, note=45, velocity=95, time=0),
    Message('note_off', channel=8, note=64, velocity=95, time=3840),
    Message('note_off', channel=8, note=61, velocity=95, time=0),
    Message('note_off', channel=8, note=57, velocity=95, time=0),
    Message('note_off', channel=8, note=52, velocity=95, time=0),
    Message('note_off', channel=8, note=45, velocity=95, time=0),
    Message('note_on', channel=8, note=65, velocity=95, time=0),
    Message('note_on', channel=8, note=60, velocity=95, time=0),
    Message('note_on', channel=8, note=57, velocity=95, time=0),
    Message('note_on', channel=8, note=53, velocity=95, time=0),
    Message('note_on', channel=8, note=48, velocity=95, time=0),
    Message('note_on', channel=8, note=41, velocity=95, time=0),
    Message('note_off', channel=8, note=65, velocity=95, time=480),
    Message('note_off', channel=8, note=60, velocity=95, time=0),
    Message('note_off', channel=8, note=57, velocity=95, time=0),
    Message('note_off', channel=8, note=53, velocity=95, time=0),
    Message('note_off', channel=8, note=48, velocity=95, time=0),
    Message('note_off', channel=8, note=41, velocity=95, time=0),
    Message('note_on', channel=8, note=65, velocity=95, time=0),
    Message('note_on', channel=8, note=60, velocity=95, time=0),
    Message('note_on', channel=8, note=57, velocity=95, time=0),
    Message('note_on', channel=8, note=53, velocity=95, time=0),
    Message('note_on', channel=8, note=48, velocity=95, time=0),
    Message('note_on', channel=8, note=41, velocity=95, time=0),
    Message('note_off', channel=8, note=65, velocity=95, time=480),
    Message('note_off', channel=8, note=60, velocity=95, time=0),
    Message('note_off', channel=8, note=57, velocity=95, time=0),
    Message('note_off', channel=8, note=53, velocity=95, time=0),
    Message('note_off', channel=8, note=48, velocity=95, time=0),
    Message('note_off', channel=8, note=41, velocity=95, time=0),
    Message('note_on', channel=8, note=65, velocity=95, time=0),
    Message('note_on', channel=8, note=60, velocity=95, time=0),
    Message('note_on', channel=8, note=57, velocity=95, time=0),
    Message('note_on', channel=8, note=53, velocity=95, time=0),
    Message('note_on', channel=8, note=48, velocity=95, time=0),
    Message('note_on', channel=8, note=41, velocity=95, time=0),
    Message('note_off', channel=8, note=65, velocity=95, time=2880),
    Message('note_off', channel=8, note=60, velocity=95, time=0),
    Message('note_off', channel=8, note=57, velocity=95, time=0),
    Message('note_off', channel=8, note=53, velocity=95, time=0),
    Message('note_off', channel=8, note=48, velocity=95, time=0),
    Message('note_off', channel=8, note=41, velocity=95, time=0),
    Message('note_on', channel=8, note=69, velocity=95, time=0),
    Message('note_on', channel=8, note=65, velocity=95, time=0),
    Message('note_on', channel=8, note=62, velocity=95, time=0),
    Message('note_on', channel=8, note=57, velocity=95, time=0),
    Message('note_on', channel=8, note=50, velocity=95, time=0),
    Message('note_off', channel=8, note=69, velocity=95, time=1440),
    Message('note_off', channel=8, note=65, velocity=95, time=0),
    Message('note_off', channel=8, note=62, velocity=95, time=0),
    Message('note_off', channel=8, note=57, velocity=95, time=0),
    Message('note_off', channel=8, note=50, velocity=95, time=0),
    Message('note_on', channel=8, note=69, velocity=95, time=0),
    Message('note_on', channel=8, note=64, velocity=95, time=0),
    Message('note_on', channel=8, note=62, velocity=95, time=0),
    Message('note_on', channel=8, note=57, velocity=95, time=0),
    Message('note_on', channel=8, note=50, velocity=95, time=0),
    Message('note_off', channel=8, note=69, velocity=95, time=1440),
    Message('note_off', channel=8, note=64, velocity=95, time=0),
    Message('note_off', channel=8, note=62, velocity=95, time=0),
    Message('note_off', channel=8, note=57, velocity=95, time=0),
    Message('note_off', channel=8, note=50, velocity=95, time=0),
    Message('note_on', channel=8, note=64, velocity=95, time=0),
    Message('note_on', channel=8, note=60, velocity=95, time=0),
    Message('note_on', channel=8, note=55, velocity=95, time=0),
    Message('note_on', channel=8, note=52, velocity=95, time=0),
    Message('note_on', channel=8, note=48, velocity=95, time=0),
    Message('note_off', channel=8, note=64, velocity=95, time=960),
    Message('note_off', channel=8, note=60, velocity=95, time=0),
    Message('note_off', channel=8, note=55, velocity=95, time=0),
    Message('note_off', channel=8, note=52, velocity=95, time=0),
    Message('note_off', channel=8, note=48, velocity=95, time=0),
    Message('note_on', channel=8, note=64, velocity=95, time=0),
    Message('note_on', channel=8, note=61, velocity=95, time=0),
    Message('note_on', channel=8, note=57, velocity=95, time=0),
    Message('note_on', channel=8, note=52, velocity=95, time=0),
    Message('note_on', channel=8, note=45, velocity=95, time=0),
    Message('note_off', channel=8, note=64, velocity=95, time=3840),
    Message('note_off', channel=8, note=61, velocity=95, time=0),
    Message('note_off', channel=8, note=57, velocity=95, time=0),
    Message('note_off', channel=8, note=52, velocity=95, time=0),
    Message('note_off', channel=8, note=45, velocity=95, time=0),
    Message('note_on', channel=8, note=64, velocity=95, time=0),
    Message('note_on', channel=8, note=61, velocity=95, time=0),
    Message('note_on', channel=8, note=57, velocity=95, time=0),
    Message('note_on', channel=8, note=52, velocity=95, time=0),
    Message('note_on', channel=8, note=45, velocity=95, time=0),
    Message('note_off', channel=8, note=64, velocity=95, time=3840),
    Message('note_off', channel=8, note=61, velocity=95, time=0),
    Message('note_off', channel=8, note=57, velocity=95, time=0),
    Message('note_off', channel=8, note=52, velocity=95, time=0),
    Message('note_off', channel=8, note=45, velocity=95, time=0),
    Message('note_on', channel=8, note=65, velocity=95, time=0),
    Message('note_on', channel=8, note=60, velocity=95, time=0),
    Message('note_on', channel=8, note=57, velocity=95, time=0),
    Message('note_on', channel=8, note=53, velocity=95, time=0),
    Message('note_on', channel=8, note=48, velocity=95, time=0),
    Message('note_on', channel=8, note=41, velocity=95, time=0),
    Message('note_off', channel=8, note=65, velocity=95, time=480),
    Message('note_off', channel=8, note=60, velocity=95, time=0),
    Message('note_off', channel=8, note=57, velocity=95, time=0),
    Message('note_off', channel=8, note=53, velocity=95, time=0),
    Message('note_off', channel=8, note=48, velocity=95, time=0),
    Message('note_off', channel=8, note=41, velocity=95, time=0),
    Message('note_on', channel=8, note=65, velocity=95, time=0),
    Message('note_on', channel=8, note=60, velocity=95, time=0),
    Message('note_on', channel=8, note=57, velocity=95, time=0),
    Message('note_on', channel=8, note=53, velocity=95, time=0),
    Message('note_on', channel=8, note=48, velocity=95, time=0),
    Message('note_on', channel=8, note=41, velocity=95, time=0),
    Message('note_off', channel=8, note=65, velocity=95, time=480),
    Message('note_off', channel=8, note=60, velocity=95, time=0),
    Message('note_off', channel=8, note=57, velocity=95, time=0),
    Message('note_off', channel=8, note=53, velocity=95, time=0),
    Message('note_off', channel=8, note=48, velocity=95, time=0),
    Message('note_off', channel=8, note=41, velocity=95, time=0),
    Message('note_on', channel=8, note=65, velocity=95, time=0),
    Message('note_on', channel=8, note=60, velocity=95, time=0),
    Message('note_on', channel=8, note=57, velocity=95, time=0),
    Message('note_on', channel=8, note=53, velocity=95, time=0),
    Message('note_on', channel=8, note=48, velocity=95, time=0),
    Message('note_on', channel=8, note=41, velocity=95, time=0),
    Message('note_off', channel=8, note=65, velocity=95, time=480),
    Message('note_off', channel=8, note=60, velocity=95, time=0),
    Message('note_off', channel=8, note=57, velocity=95, time=0),
    Message('note_off', channel=8, note=53, velocity=95, time=0),
    Message('note_off', channel=8, note=48, velocity=95, time=0),
    Message('note_off', channel=8, note=41, velocity=95, time=0),
    Message('note_on', channel=8, note=65, velocity=95, time=0),
    Message('note_on', channel=8, note=60, velocity=95, time=0),
    Message('note_on', channel=8, note=57, velocity=95, time=0),
    Message('note_on', channel=8, note=53, velocity=95, time=0),
    Message('note_on', channel=8, note=48, velocity=95, time=0),
    Message('note_on', channel=8, note=41, velocity=95, time=0),
    Message('note_off', channel=8, note=65, velocity=95, time=480),
    Message('note_off', channel=8, note=60, velocity=95, time=0),
    Message('note_off', channel=8, note=57, velocity=95, time=0),
    Message('note_off', channel=8, note=53, velocity=95, time=0),
    Message('note_off', channel=8, note=48, velocity=95, time=0),
    Message('note_off', channel=8, note=41, velocity=95, time=0),
    Message('note_on', channel=8, note=65, velocity=95, time=0),
    Message('note_on', channel=8, note=60, velocity=95, time=0),
    Message('note_on', channel=8, note=57, velocity=95, time=0),
    Message('note_on', channel=8, note=53, velocity=95, time=0),
    Message('note_on', channel=8, note=48, velocity=95, time=0),
    Message('note_on', channel=8, note=41, velocity=95, time=0),
    Message('note_off', channel=8, note=65, velocity=95, time=480),
    Message('note_off', channel=8, note=60, velocity=95, time=0),
    Message('note_off', channel=8, note=57, velocity=95, time=0),
    Message('note_off', channel=8, note=53, velocity=95, time=0),
    Message('note_off', channel=8, note=48, velocity=95, time=0),
    Message('note_off', channel=8, note=41, velocity=95, time=0),
    Message('note_on', channel=8, note=65, velocity=95, time=0),
    Message('note_on', channel=8, note=60, velocity=95, time=0),
    Message('note_on', channel=8, note=57, velocity=95, time=0),
    Message('note_on', channel=8, note=53, velocity=95, time=0),
    Message('note_on', channel=8, note=48, velocity=95, time=0),
    Message('note_on', channel=8, note=41, velocity=95, time=0),
    Message('note_off', channel=8, note=65, velocity=95, time=480),
    Message('note_off', channel=8, note=60, velocity=95, time=0),
    Message('note_off', channel=8, note=57, velocity=95, time=0),
    Message('note_off', channel=8, note=53, velocity=95, time=0),
    Message('note_off', channel=8, note=48, velocity=95, time=0),
    Message('note_off', channel=8, note=41, velocity=95, time=0),
    Message('note_on', channel=8, note=65, velocity=95, time=0),
    Message('note_on', channel=8, note=60, velocity=95, time=0),
    Message('note_on', channel=8, note=57, velocity=95, time=0),
    Message('note_on', channel=8, note=53, velocity=95, time=0),
    Message('note_on', channel=8, note=48, velocity=95, time=0),
    Message('note_on', channel=8, note=41, velocity=95, time=0),
    Message('note_off', channel=8, note=65, velocity=95, time=480),
    Message('note_off', channel=8, note=60, velocity=95, time=0),
    Message('note_off', channel=8, note=57, velocity=95, time=0),
    Message('note_off', channel=8, note=53, velocity=95, time=0),
    Message('note_off', channel=8, note=48, velocity=95, time=0),
    Message('note_off', channel=8, note=41, velocity=95, time=0),
    Message('note_on', channel=8, note=65, velocity=95, time=0),
    Message('note_on', channel=8, note=60, velocity=95, time=0),
    Message('note_on', channel=8, note=57, velocity=95, time=0),
    Message('note_on', channel=8, note=53, velocity=95, time=0),
    Message('note_on', channel=8, note=48, velocity=95, time=0),
    Message('note_on', channel=8, note=41, velocity=95, time=0),
    Message('note_off', channel=8, note=65, velocity=95, time=480),
    Message('note_off', channel=8, note=60, velocity=95, time=0),
    Message('note_off', channel=8, note=57, velocity=95, time=0),
    Message('note_off', channel=8, note=53, velocity=95, time=0),
    Message('note_off', channel=8, note=48, velocity=95, time=0),
    Message('note_off', channel=8, note=41, velocity=95, time=0),
    Message('note_on', channel=8, note=67, velocity=95, time=0),
    Message('note_on', channel=8, note=62, velocity=95, time=0),
    Message('note_on', channel=8, note=55, velocity=95, time=0),
    Message('note_on', channel=8, note=50, velocity=95, time=0),
    Message('note_on', channel=8, note=47, velocity=95, time=0),
    Message('note_on', channel=8, note=43, velocity=95, time=0),
    Message('note_off', channel=8, note=67, velocity=95, time=480),
    Message('note_off', channel=8, note=62, velocity=95, time=0),
    Message('note_off', channel=8, note=55, velocity=95, time=0),
    Message('note_off', channel=8, note=50, velocity=95, time=0),
    Message('note_off', channel=8, note=47, velocity=95, time=0),
    Message('note_off', channel=8, note=43, velocity=95, time=0),
    Message('note_on', channel=8, note=67, velocity=95, time=0),
    Message('note_on', channel=8, note=62, velocity=95, time=0),
    Message('note_on', channel=8, note=55, velocity=95, time=0),
    Message('note_on', channel=8, note=50, velocity=95, time=0),
    Message('note_on', channel=8, note=47, velocity=95, time=0),
    Message('note_on', channel=8, note=43, velocity=95, time=0),
    Message('note_off', channel=8, note=67, velocity=95, time=960),
    Message('note_off', channel=8, note=62, velocity=95, time=0),
    Message('note_off', channel=8, note=55, velocity=95, time=0),
    Message('note_off', channel=8, note=50, velocity=95, time=0),
    Message('note_off', channel=8, note=47, velocity=95, time=0),
    Message('note_off', channel=8, note=43, velocity=95, time=0),
    Message('note_on', channel=8, note=67, velocity=95, time=0),
    Message('note_on', channel=8, note=62, velocity=95, time=0),
    Message('note_on', channel=8, note=55, velocity=95, time=0),
    Message('note_on', channel=8, note=50, velocity=95, time=0),
    Message('note_on', channel=8, note=47, velocity=95, time=0),
    Message('note_on', channel=8, note=43, velocity=95, time=0),
    Message('note_off', channel=8, note=67, velocity=95, time=960),
    Message('note_off', channel=8, note=62, velocity=95, time=0),
    Message('note_off', channel=8, note=55, velocity=95, time=0),
    Message('note_off', channel=8, note=50, velocity=95, time=0),
    Message('note_off', channel=8, note=47, velocity=95, time=0),
    Message('note_off', channel=8, note=43, velocity=95, time=0),
    Message('note_on', channel=8, note=67, velocity=95, time=0),
    Message('note_on', channel=8, note=62, velocity=95, time=0),
    Message('note_on', channel=8, note=55, velocity=95, time=0),
    Message('note_on', channel=8, note=50, velocity=95, time=0),
    Message('note_on', channel=8, note=47, velocity=95, time=0),
    Message('note_on', channel=8, note=43, velocity=95, time=0),
    Message('note_off', channel=8, note=67, velocity=95, time=480),
    Message('note_off', channel=8, note=62, velocity=95, time=0),
    Message('note_off', channel=8, note=55, velocity=95, time=0),
    Message('note_off', channel=8, note=50, velocity=95, time=0),
    Message('note_off', channel=8, note=47, velocity=95, time=0),
    Message('note_off', channel=8, note=43, velocity=95, time=0),
    Message('note_on', channel=8, note=67, velocity=95, time=0),
    Message('note_on', channel=8, note=62, velocity=95, time=0),
    Message('note_on', channel=8, note=55, velocity=95, time=0),
    Message('note_on', channel=8, note=50, velocity=95, time=0),
    Message('note_on', channel=8, note=47, velocity=95, time=0),
    Message('note_on', channel=8, note=43, velocity=95, time=0),
    Message('note_off', channel=8, note=67, velocity=95, time=480),
    Message('note_off', channel=8, note=62, velocity=95, time=0),
    Message('note_off', channel=8, note=55, velocity=95, time=0),
    Message('note_off', channel=8, note=50, velocity=95, time=0),
    Message('note_off', channel=8, note=47, velocity=95, time=0),
    Message('note_off', channel=8, note=43, velocity=95, time=0),
    Message('note_on', channel=8, note=67, velocity=95, time=0),
    Message('note_on', channel=8, note=62, velocity=95, time=0),
    Message('note_on', channel=8, note=55, velocity=95, time=0),
    Message('note_on', channel=8, note=50, velocity=95, time=0),
    Message('note_on', channel=8, note=47, velocity=95, time=0),
    Message('note_on', channel=8, note=43, velocity=95, time=0),
    Message('note_off', channel=8, note=67, velocity=95, time=480),
    Message('note_off', channel=8, note=62, velocity=95, time=0),
    Message('note_off', channel=8, note=55, velocity=95, time=0),
    Message('note_off', channel=8, note=50, velocity=95, time=0),
    Message('note_off', channel=8, note=47, velocity=95, time=0),
    Message('note_off', channel=8, note=43, velocity=95, time=0),
    Message('note_on', channel=8, note=57, velocity=95, time=0),
    Message('note_on', channel=8, note=52, velocity=95, time=0),
    Message('note_on', channel=8, note=45, velocity=95, time=0),
    Message('note_off', channel=8, note=57, velocity=95, time=480),
    Message('note_off', channel=8, note=52, velocity=95, time=0),
    Message('note_off', channel=8, note=45, velocity=95, time=0),
    Message('note_on', channel=8, note=57, velocity=95, time=0),
    Message('note_on', channel=8, note=52, velocity=95, time=0),
    Message('note_on', channel=8, note=45, velocity=95, time=0),
    Message('note_off', channel=8, note=57, velocity=95, time=960),
    Message('note_off', channel=8, note=52, velocity=95, time=0),
    Message('note_off', channel=8, note=45, velocity=95, time=0),
    Message('note_on', channel=8, note=57, velocity=95, time=0),
    Message('note_on', channel=8, note=52, velocity=95, time=0),
    Message('note_on', channel=8, note=45, velocity=95, time=0),
    Message('note_off', channel=8, note=57, velocity=95, time=960),
    Message('note_off', channel=8, note=52, velocity=95, time=0),
    Message('note_off', channel=8, note=45, velocity=95, time=0),
    Message('note_on', channel=8, note=57, velocity=95, time=0),
    Message('note_on', channel=8, note=52, velocity=95, time=0),
    Message('note_on', channel=8, note=45, velocity=95, time=0),
    Message('note_off', channel=8, note=57, velocity=95, time=480),
    Message('note_off', channel=8, note=52, velocity=95, time=0),
    Message('note_off', channel=8, note=45, velocity=95, time=0),
    Message('note_on', channel=8, note=57, velocity=95, time=0),
    Message('note_on', channel=8, note=52, velocity=95, time=0),
    Message('note_on', channel=8, note=45, velocity=95, time=0),
    Message('note_off', channel=8, note=57, velocity=95, time=480),
    Message('note_off', channel=8, note=52, velocity=95, time=0),
    Message('note_off', channel=8, note=45, velocity=95, time=0),
    Message('note_on', channel=8, note=57, velocity=95, time=0),
    Message('note_on', channel=8, note=52, velocity=95, time=0),
    Message('note_on', channel=8, note=45, velocity=95, time=0),
    Message('note_off', channel=8, note=57, velocity=95, time=480),
    Message('note_off', channel=8, note=52, velocity=95, time=0),
    Message('note_off', channel=8, note=45, velocity=95, time=0),
    Message('note_on', channel=8, note=57, velocity=95, time=0),
    Message('note_on', channel=8, note=52, velocity=95, time=0),
    Message('note_on', channel=8, note=45, velocity=95, time=0),
    Message('note_off', channel=8, note=57, velocity=95, time=480),
    Message('note_off', channel=8, note=52, velocity=95, time=0),
    Message('note_off', channel=8, note=45, velocity=95, time=0),
    Message('note_on', channel=8, note=57, velocity=95, time=0),
    Message('note_on', channel=8, note=52, velocity=95, time=0),
    Message('note_on', channel=8, note=45, velocity=95, time=0),
    Message('note_off', channel=8, note=57, velocity=95, time=960),
    Message('note_off', channel=8, note=52, velocity=95, time=0),
    Message('note_off', channel=8, note=45, velocity=95, time=0),
    Message('note_on', channel=8, note=57, velocity=95, time=0),
    Message('note_on', channel=8, note=52, velocity=95, time=0),
    Message('note_on', channel=8, note=45, velocity=95, time=0),
    Message('note_off', channel=8, note=57, velocity=95, time=960),
    Message('note_off', channel=8, note=52, velocity=95, time=0),
    Message('note_off', channel=8, note=45, velocity=95, time=0),
    Message('note_on', channel=8, note=57, velocity=95, time=0),
    Message('note_on', channel=8, note=52, velocity=95, time=0),
    Message('note_on', channel=8, note=45, velocity=95, time=0),
    Message('note_off', channel=8, note=57, velocity=95, time=480),
    Message('note_off', channel=8, note=52, velocity=95, time=0),
    Message('note_off', channel=8, note=45, velocity=95, time=0),
    Message('note_on', channel=8, note=57, velocity=95, time=0),
    Message('note_on', channel=8, note=52, velocity=95, time=0),
    Message('note_on', channel=8, note=45, velocity=95, time=0),
    Message('note_off', channel=8, note=57, velocity=95, time=480),
    Message('note_off', channel=8, note=52, velocity=95, time=0),
    Message('note_off', channel=8, note=45, velocity=95, time=0),
    Message('note_on', channel=8, note=57, velocity=95, time=0),
    Message('note_on', channel=8, note=52, velocity=95, time=0),
    Message('note_on', channel=8, note=45, velocity=95, time=0),
    Message('note_off', channel=8, note=57, velocity=95, time=480),
    Message('note_off', channel=8, note=52, velocity=95, time=0),
    Message('note_off', channel=8, note=45, velocity=95, time=0),
    Message('note_on', channel=8, note=65, velocity=95, time=0),
    Message('note_on', channel=8, note=60, velocity=95, time=0),
    Message('note_on', channel=8, note=57, velocity=95, time=0),
    Message('note_on', channel=8, note=53, velocity=95, time=0),
    Message('note_on', channel=8, note=48, velocity=95, time=0),
    Message('note_on', channel=8, note=41, velocity=95, time=0),
    Message('note_off', channel=8, note=65, velocity=95, time=480),
    Message('note_off', channel=8, note=60, velocity=95, time=0),
    Message('note_off', channel=8, note=57, velocity=95, time=0),
    Message('note_off', channel=8, note=53, velocity=95, time=0),
    Message('note_off', channel=8, note=48, velocity=95, time=0),
    Message('note_off', channel=8, note=41, velocity=95, time=0),
    Message('note_on', channel=8, note=65, velocity=95, time=0),
    Message('note_on', channel=8, note=60, velocity=95, time=0),
    Message('note_on', channel=8, note=57, velocity=95, time=0),
    Message('note_on', channel=8, note=53, velocity=95, time=0),
    Message('note_on', channel=8, note=48, velocity=95, time=0),
    Message('note_on', channel=8, note=41, velocity=95, time=0),
    Message('note_off', channel=8, note=65, velocity=95, time=480),
    Message('note_off', channel=8, note=60, velocity=95, time=0),
    Message('note_off', channel=8, note=57, velocity=95, time=0),
    Message('note_off', channel=8, note=53, velocity=95, time=0),
    Message('note_off', channel=8, note=48, velocity=95, time=0),
    Message('note_off', channel=8, note=41, velocity=95, time=0),
    Message('note_on', channel=8, note=65, velocity=95, time=0),
    Message('note_on', channel=8, note=60, velocity=95, time=0),
    Message('note_on', channel=8, note=57, velocity=95, time=0),
    Message('note_on', channel=8, note=53, velocity=95, time=0),
    Message('note_on', channel=8, note=48, velocity=95, time=0),
    Message('note_on', channel=8, note=41, velocity=95, time=0),
    Message('note_off', channel=8, note=65, velocity=95, time=480),
    Message('note_off', channel=8, note=60, velocity=95, time=0),
    Message('note_off', channel=8, note=57, velocity=95, time=0),
    Message('note_off', channel=8, note=53, velocity=95, time=0),
    Message('note_off', channel=8, note=48, velocity=95, time=0),
    Message('note_off', channel=8, note=41, velocity=95, time=0),
    Message('note_on', channel=8, note=65, velocity=95, time=0),
    Message('note_on', channel=8, note=60, velocity=95, time=0),
    Message('note_on', channel=8, note=57, velocity=95, time=0),
    Message('note_on', channel=8, note=53, velocity=95, time=0),
    Message('note_on', channel=8, note=48, velocity=95, time=0),
    Message('note_on', channel=8, note=41, velocity=95, time=0),
    Message('note_off', channel=8, note=65, velocity=95, time=480),
    Message('note_off', channel=8, note=60, velocity=95, time=0),
    Message('note_off', channel=8, note=57, velocity=95, time=0),
    Message('note_off', channel=8, note=53, velocity=95, time=0),
    Message('note_off', channel=8, note=48, velocity=95, time=0),
    Message('note_off', channel=8, note=41, velocity=95, time=0),
    Message('note_on', channel=8, note=65, velocity=95, time=0),
    Message('note_on', channel=8, note=60, velocity=95, time=0),
    Message('note_on', channel=8, note=57, velocity=95, time=0),
    Message('note_on', channel=8, note=53, velocity=95, time=0),
    Message('note_on', channel=8, note=48, velocity=95, time=0),
    Message('note_on', channel=8, note=41, velocity=95, time=0),
    Message('note_off', channel=8, note=65, velocity=95, time=480),
    Message('note_off', channel=8, note=60, velocity=95, time=0),
    Message('note_off', channel=8, note=57, velocity=95, time=0),
    Message('note_off', channel=8, note=53, velocity=95, time=0),
    Message('note_off', channel=8, note=48, velocity=95, time=0),
    Message('note_off', channel=8, note=41, velocity=95, time=0),
    Message('note_on', channel=8, note=65, velocity=95, time=0),
    Message('note_on', channel=8, note=60, velocity=95, time=0),
    Message('note_on', channel=8, note=57, velocity=95, time=0),
    Message('note_on', channel=8, note=53, velocity=95, time=0),
    Message('note_on', channel=8, note=48, velocity=95, time=0),
    Message('note_on', channel=8, note=41, velocity=95, time=0),
    Message('note_off', channel=8, note=65, velocity=95, time=480),
    Message('note_off', channel=8, note=60, velocity=95, time=0),
    Message('note_off', channel=8, note=57, velocity=95, time=0),
    Message('note_off', channel=8, note=53, velocity=95, time=0),
    Message('note_off', channel=8, note=48, velocity=95, time=0),
    Message('note_off', channel=8, note=41, velocity=95, time=0),
    Message('note_on', channel=8, note=65, velocity=95, time=0),
    Message('note_on', channel=8, note=60, velocity=95, time=0),
    Message('note_on', channel=8, note=57, velocity=95, time=0),
    Message('note_on', channel=8, note=53, velocity=95, time=0),
    Message('note_on', channel=8, note=48, velocity=95, time=0),
    Message('note_on', channel=8, note=41, velocity=95, time=0),
    Message('note_off', channel=8, note=65, velocity=95, time=480),
    Message('note_off', channel=8, note=60, velocity=95, time=0),
    Message('note_off', channel=8, note=57, velocity=95, time=0),
    Message('note_off', channel=8, note=53, velocity=95, time=0),
    Message('note_off', channel=8, note=48, velocity=95, time=0),
    Message('note_off', channel=8, note=41, velocity=95, time=0),
    Message('note_on', channel=8, note=65, velocity=95, time=0),
    Message('note_on', channel=8, note=60, velocity=95, time=0),
    Message('note_on', channel=8, note=57, velocity=95, time=0),
    Message('note_on', channel=8, note=53, velocity=95, time=0),
    Message('note_on', channel=8, note=48, velocity=95, time=0),
    Message('note_on', channel=8, note=41, velocity=95, time=0),
    Message('note_off', channel=8, note=65, velocity=95, time=480),
    Message('note_off', channel=8, note=60, velocity=95, time=0),
    Message('note_off', channel=8, note=57, velocity=95, time=0),
    Message('note_off', channel=8, note=53, velocity=95, time=0),
    Message('note_off', channel=8, note=48, velocity=95, time=0),
    Message('note_off', channel=8, note=41, velocity=95, time=0),
    Message('note_on', channel=8, note=67, velocity=95, time=0),
    Message('note_on', channel=8, note=62, velocity=95, time=0),
    Message('note_on', channel=8, note=55, velocity=95, time=0),
    Message('note_on', channel=8, note=50, velocity=95, time=0),
    Message('note_on', channel=8, note=47, velocity=95, time=0),
    Message('note_on', channel=8, note=43, velocity=95, time=0),
    Message('note_off', channel=8, note=67, velocity=95, time=480),
    Message('note_off', channel=8, note=62, velocity=95, time=0),
    Message('note_off', channel=8, note=55, velocity=95, time=0),
    Message('note_off', channel=8, note=50, velocity=95, time=0),
    Message('note_off', channel=8, note=47, velocity=95, time=0),
    Message('note_off', channel=8, note=43, velocity=95, time=0),
    Message('note_on', channel=8, note=67, velocity=95, time=0),
    Message('note_on', channel=8, note=62, velocity=95, time=0),
    Message('note_on', channel=8, note=55, velocity=95, time=0),
    Message('note_on', channel=8, note=50, velocity=95, time=0),
    Message('note_on', channel=8, note=47, velocity=95, time=0),
    Message('note_on', channel=8, note=43, velocity=95, time=0),
    Message('note_off', channel=8, note=67, velocity=95, time=960),
    Message('note_off', channel=8, note=62, velocity=95, time=0),
    Message('note_off', channel=8, note=55, velocity=95, time=0),
    Message('note_off', channel=8, note=50, velocity=95, time=0),
    Message('note_off', channel=8, note=47, velocity=95, time=0),
    Message('note_off', channel=8, note=43, velocity=95, time=0),
    Message('note_on', channel=8, note=67, velocity=95, time=0),
    Message('note_on', channel=8, note=62, velocity=95, time=0),
    Message('note_on', channel=8, note=55, velocity=95, time=0),
    Message('note_on', channel=8, note=50, velocity=95, time=0),
    Message('note_on', channel=8, note=47, velocity=95, time=0),
    Message('note_on', channel=8, note=43, velocity=95, time=0),
    Message('note_off', channel=8, note=67, velocity=95, time=960),
    Message('note_off', channel=8, note=62, velocity=95, time=0),
    Message('note_off', channel=8, note=55, velocity=95, time=0),
    Message('note_off', channel=8, note=50, velocity=95, time=0),
    Message('note_off', channel=8, note=47, velocity=95, time=0),
    Message('note_off', channel=8, note=43, velocity=95, time=0),
    Message('note_on', channel=8, note=67, velocity=95, time=0),
    Message('note_on', channel=8, note=62, velocity=95, time=0),
    Message('note_on', channel=8, note=55, velocity=95, time=0),
    Message('note_on', channel=8, note=50, velocity=95, time=0),
    Message('note_on', channel=8, note=47, velocity=95, time=0),
    Message('note_on', channel=8, note=43, velocity=95, time=0),
    Message('note_off', channel=8, note=67, velocity=95, time=480),
    Message('note_off', channel=8, note=62, velocity=95, time=0),
    Message('note_off', channel=8, note=55, velocity=95, time=0),
    Message('note_off', channel=8, note=50, velocity=95, time=0),
    Message('note_off', channel=8, note=47, velocity=95, time=0),
    Message('note_off', channel=8, note=43, velocity=95, time=0),
    Message('note_on', channel=8, note=67, velocity=95, time=0),
    Message('note_on', channel=8, note=62, velocity=95, time=0),
    Message('note_on', channel=8, note=55, velocity=95, time=0),
    Message('note_on', channel=8, note=50, velocity=95, time=0),
    Message('note_on', channel=8, note=47, velocity=95, time=0),
    Message('note_on', channel=8, note=43, velocity=95, time=0),
    Message('note_off', channel=8, note=67, velocity=95, time=480),
    Message('note_off', channel=8, note=62, velocity=95, time=0),
    Message('note_off', channel=8, note=55, velocity=95, time=0),
    Message('note_off', channel=8, note=50, velocity=95, time=0),
    Message('note_off', channel=8, note=47, velocity=95, time=0),
    Message('note_off', channel=8, note=43, velocity=95, time=0),
    Message('note_on', channel=8, note=67, velocity=95, time=0),
    Message('note_on', channel=8, note=62, velocity=95, time=0),
    Message('note_on', channel=8, note=55, velocity=95, time=0),
    Message('note_on', channel=8, note=50, velocity=95, time=0),
    Message('note_on', channel=8, note=47, velocity=95, time=0),
    Message('note_on', channel=8, note=43, velocity=95, time=0),
    Message('note_off', channel=8, note=67, velocity=95, time=480),
    Message('note_off', channel=8, note=62, velocity=95, time=0),
    Message('note_off', channel=8, note=55, velocity=95, time=0),
    Message('note_off', channel=8, note=50, velocity=95, time=0),
    Message('note_off', channel=8, note=47, velocity=95, time=0),
    Message('note_off', channel=8, note=43, velocity=95, time=0),
    Message('note_on', channel=8, note=57, velocity=95, time=0),
    Message('note_on', channel=8, note=52, velocity=95, time=0),
    Message('note_on', channel=8, note=45, velocity=95, time=0),
    Message('note_off', channel=8, note=57, velocity=95, time=480),
    Message('note_off', channel=8, note=52, velocity=95, time=0),
    Message('note_off', channel=8, note=45, velocity=95, time=0),
    Message('note_on', channel=8, note=57, velocity=95, time=0),
    Message('note_on', channel=8, note=52, velocity=95, time=0),
    Message('note_on', channel=8, note=45, velocity=95, time=0),
    Message('note_off', channel=8, note=57, velocity=95, time=960),
    Message('note_off', channel=8, note=52, velocity=95, time=0),
    Message('note_off', channel=8, note=45, velocity=95, time=0),
    Message('note_on', channel=8, note=57, velocity=95, time=0),
    Message('note_on', channel=8, note=52, velocity=95, time=0),
    Message('note_on', channel=8, note=45, velocity=95, time=0),
    Message('note_off', channel=8, note=57, velocity=95, time=960),
    Message('note_off', channel=8, note=52, velocity=95, time=0),
    Message('note_off', channel=8, note=45, velocity=95, time=0),
    Message('note_on', channel=8, note=57, velocity=95, time=0),
    Message('note_on', channel=8, note=52, velocity=95, time=0),
    Message('note_on', channel=8, note=45, velocity=95, time=0),
    Message('note_off', channel=8, note=57, velocity=95, time=480),
    Message('note_off', channel=8, note=52, velocity=95, time=0),
    Message('note_off', channel=8, note=45, velocity=95, time=0),
    Message('note_on', channel=8, note=57, velocity=95, time=0),
    Message('note_on', channel=8, note=52, velocity=95, time=0),
    Message('note_on', channel=8, note=45, velocity=95, time=0),
    Message('note_off', channel=8, note=57, velocity=95, time=480),
    Message('note_off', channel=8, note=52, velocity=95, time=0),
    Message('note_off', channel=8, note=45, velocity=95, time=0),
    Message('note_on', channel=8, note=57, velocity=95, time=0),
    Message('note_on', channel=8, note=52, velocity=95, time=0),
    Message('note_on', channel=8, note=45, velocity=95, time=0),
    Message('note_off', channel=8, note=57, velocity=95, time=480),
    Message('note_off', channel=8, note=52, velocity=95, time=0),
    Message('note_off', channel=8, note=45, velocity=95, time=0),
    Message('note_on', channel=8, note=57, velocity=95, time=0),
    Message('note_on', channel=8, note=52, velocity=95, time=0),
    Message('note_on', channel=8, note=45, velocity=95, time=0),
    Message('note_off', channel=8, note=57, velocity=95, time=480),
    Message('note_off', channel=8, note=52, velocity=95, time=0),
    Message('note_off', channel=8, note=45, velocity=95, time=0),
    Message('note_on', channel=8, note=57, velocity=95, time=0),
    Message('note_on', channel=8, note=52, velocity=95, time=0),
    Message('note_on', channel=8, note=45, velocity=95, time=0),
    Message('note_off', channel=8, note=57, velocity=95, time=960),
    Message('note_off', channel=8, note=52, velocity=95, time=0),
    Message('note_off', channel=8, note=45, velocity=95, time=0),
    Message('note_on', channel=8, note=57, velocity=95, time=0),
    Message('note_on', channel=8, note=52, velocity=95, time=0),
    Message('note_on', channel=8, note=45, velocity=95, time=0),
    Message('note_off', channel=8, note=57, velocity=95, time=960),
    Message('note_off', channel=8, note=52, velocity=95, time=0),
    Message('note_off', channel=8, note=45, velocity=95, time=0),
    Message('note_on', channel=8, note=57, velocity=95, time=0),
    Message('note_on', channel=8, note=52, velocity=95, time=0),
    Message('note_on', channel=8, note=45, velocity=95, time=0),
    Message('note_off', channel=8, note=57, velocity=95, time=480),
    Message('note_off', channel=8, note=52, velocity=95, time=0),
    Message('note_off', channel=8, note=45, velocity=95, time=0),
    Message('note_on', channel=8, note=57, velocity=95, time=0),
    Message('note_on', channel=8, note=52, velocity=95, time=0),
    Message('note_on', channel=8, note=45, velocity=95, time=0),
    Message('note_off', channel=8, note=57, velocity=95, time=480),
    Message('note_off', channel=8, note=52, velocity=95, time=0),
    Message('note_off', channel=8, note=45, velocity=95, time=0),
    Message('note_on', channel=8, note=57, velocity=95, time=0),
    Message('note_on', channel=8, note=52, velocity=95, time=0),
    Message('note_on', channel=8, note=45, velocity=95, time=0),
    Message('note_off', channel=8, note=57, velocity=95, time=480),
    Message('note_off', channel=8, note=52, velocity=95, time=0),
    Message('note_off', channel=8, note=45, velocity=95, time=0),
    Message('note_on', channel=8, note=65, velocity=95, time=0),
    Message('note_on', channel=8, note=60, velocity=95, time=0),
    Message('note_on', channel=8, note=57, velocity=95, time=0),
    Message('note_on', channel=8, note=53, velocity=95, time=0),
    Message('note_on', channel=8, note=48, velocity=95, time=0),
    Message('note_on', channel=8, note=41, velocity=95, time=0),
    Message('note_off', channel=8, note=65, velocity=95, time=480),
    Message('note_off', channel=8, note=60, velocity=95, time=0),
    Message('note_off', channel=8, note=57, velocity=95, time=0),
    Message('note_off', channel=8, note=53, velocity=95, time=0),
    Message('note_off', channel=8, note=48, velocity=95, time=0),
    Message('note_off', channel=8, note=41, velocity=95, time=0),
    Message('note_on', channel=8, note=65, velocity=95, time=0),
    Message('note_on', channel=8, note=60, velocity=95, time=0),
    Message('note_on', channel=8, note=57, velocity=95, time=0),
    Message('note_on', channel=8, note=53, velocity=95, time=0),
    Message('note_on', channel=8, note=48, velocity=95, time=0),
    Message('note_on', channel=8, note=41, velocity=95, time=0),
    Message('note_off', channel=8, note=65, velocity=95, time=480),
    Message('note_off', channel=8, note=60, velocity=95, time=0),
    Message('note_off', channel=8, note=57, velocity=95, time=0),
    Message('note_off', channel=8, note=53, velocity=95, time=0),
    Message('note_off', channel=8, note=48, velocity=95, time=0),
    Message('note_off', channel=8, note=41, velocity=95, time=0),
    Message('note_on', channel=8, note=65, velocity=95, time=0),
    Message('note_on', channel=8, note=60, velocity=95, time=0),
    Message('note_on', channel=8, note=57, velocity=95, time=0),
    Message('note_on', channel=8, note=53, velocity=95, time=0),
    Message('note_on', channel=8, note=48, velocity=95, time=0),
    Message('note_on', channel=8, note=41, velocity=95, time=0),
    Message('note_off', channel=8, note=65, velocity=95, time=480),
    Message('note_off', channel=8, note=60, velocity=95, time=0),
    Message('note_off', channel=8, note=57, velocity=95, time=0),
    Message('note_off', channel=8, note=53, velocity=95, time=0),
    Message('note_off', channel=8, note=48, velocity=95, time=0),
    Message('note_off', channel=8, note=41, velocity=95, time=0),
    Message('note_on', channel=8, note=65, velocity=95, time=0),
    Message('note_on', channel=8, note=60, velocity=95, time=0),
    Message('note_on', channel=8, note=57, velocity=95, time=0),
    Message('note_on', channel=8, note=53, velocity=95, time=0),
    Message('note_on', channel=8, note=48, velocity=95, time=0),
    Message('note_on', channel=8, note=41, velocity=95, time=0),
    Message('note_off', channel=8, note=65, velocity=95, time=480),
    Message('note_off', channel=8, note=60, velocity=95, time=0),
    Message('note_off', channel=8, note=57, velocity=95, time=0),
    Message('note_off', channel=8, note=53, velocity=95, time=0),
    Message('note_off', channel=8, note=48, velocity=95, time=0),
    Message('note_off', channel=8, note=41, velocity=95, time=0),
    Message('note_on', channel=8, note=65, velocity=95, time=0),
    Message('note_on', channel=8, note=60, velocity=95, time=0),
    Message('note_on', channel=8, note=57, velocity=95, time=0),
    Message('note_on', channel=8, note=53, velocity=95, time=0),
    Message('note_on', channel=8, note=48, velocity=95, time=0),
    Message('note_on', channel=8, note=41, velocity=95, time=0),
    Message('note_off', channel=8, note=65, velocity=95, time=480),
    Message('note_off', channel=8, note=60, velocity=95, time=0),
    Message('note_off', channel=8, note=57, velocity=95, time=0),
    Message('note_off', channel=8, note=53, velocity=95, time=0),
    Message('note_off', channel=8, note=48, velocity=95, time=0),
    Message('note_off', channel=8, note=41, velocity=95, time=0),
    Message('note_on', channel=8, note=65, velocity=95, time=0),
    Message('note_on', channel=8, note=60, velocity=95, time=0),
    Message('note_on', channel=8, note=57, velocity=95, time=0),
    Message('note_on', channel=8, note=53, velocity=95, time=0),
    Message('note_on', channel=8, note=48, velocity=95, time=0),
    Message('note_on', channel=8, note=41, velocity=95, time=0),
    Message('note_off', channel=8, note=65, velocity=95, time=480),
    Message('note_off', channel=8, note=60, velocity=95, time=0),
    Message('note_off', channel=8, note=57, velocity=95, time=0),
    Message('note_off', channel=8, note=53, velocity=95, time=0),
    Message('note_off', channel=8, note=48, velocity=95, time=0),
    Message('note_off', channel=8, note=41, velocity=95, time=0),
    Message('note_on', channel=8, note=65, velocity=95, time=0),
    Message('note_on', channel=8, note=60, velocity=95, time=0),
    Message('note_on', channel=8, note=57, velocity=95, time=0),
    Message('note_on', channel=8, note=53, velocity=95, time=0),
    Message('note_on', channel=8, note=48, velocity=95, time=0),
    Message('note_on', channel=8, note=41, velocity=95, time=0),
    Message('note_off', channel=8, note=65, velocity=95, time=480),
    Message('note_off', channel=8, note=60, velocity=95, time=0),
    Message('note_off', channel=8, note=57, velocity=95, time=0),
    Message('note_off', channel=8, note=53, velocity=95, time=0),
    Message('note_off', channel=8, note=48, velocity=95, time=0),
    Message('note_off', channel=8, note=41, velocity=95, time=0),
    Message('note_on', channel=8, note=65, velocity=95, time=0),
    Message('note_on', channel=8, note=60, velocity=95, time=0),
    Message('note_on', channel=8, note=57, velocity=95, time=0),
    Message('note_on', channel=8, note=53, velocity=95, time=0),
    Message('note_on', channel=8, note=48, velocity=95, time=0),
    Message('note_on', channel=8, note=41, velocity=95, time=0),
    Message('note_off', channel=8, note=65, velocity=95, time=480),
    Message('note_off', channel=8, note=60, velocity=95, time=0),
    Message('note_off', channel=8, note=57, velocity=95, time=0),
    Message('note_off', channel=8, note=53, velocity=95, time=0),
    Message('note_off', channel=8, note=48, velocity=95, time=0),
    Message('note_off', channel=8, note=41, velocity=95, time=0),
    Message('note_on', channel=8, note=67, velocity=95, time=0),
    Message('note_on', channel=8, note=62, velocity=95, time=0),
    Message('note_on', channel=8, note=55, velocity=95, time=0),
    Message('note_on', channel=8, note=50, velocity=95, time=0),
    Message('note_on', channel=8, note=47, velocity=95, time=0),
    Message('note_on', channel=8, note=43, velocity=95, time=0),
    Message('note_off', channel=8, note=67, velocity=95, time=480),
    Message('note_off', channel=8, note=62, velocity=95, time=0),
    Message('note_off', channel=8, note=55, velocity=95, time=0),
    Message('note_off', channel=8, note=50, velocity=95, time=0),
    Message('note_off', channel=8, note=47, velocity=95, time=0),
    Message('note_off', channel=8, note=43, velocity=95, time=0),
    Message('note_on', channel=8, note=67, velocity=95, time=0),
    Message('note_on', channel=8, note=62, velocity=95, time=0),
    Message('note_on', channel=8, note=55, velocity=95, time=0),
    Message('note_on', channel=8, note=50, velocity=95, time=0),
    Message('note_on', channel=8, note=47, velocity=95, time=0),
    Message('note_on', channel=8, note=43, velocity=95, time=0),
    Message('note_off', channel=8, note=67, velocity=95, time=960),
    Message('note_off', channel=8, note=62, velocity=95, time=0),
    Message('note_off', channel=8, note=55, velocity=95, time=0),
    Message('note_off', channel=8, note=50, velocity=95, time=0),
    Message('note_off', channel=8, note=47, velocity=95, time=0),
    Message('note_off', channel=8, note=43, velocity=95, time=0),
    Message('note_on', channel=8, note=67, velocity=95, time=0),
    Message('note_on', channel=8, note=62, velocity=95, time=0),
    Message('note_on', channel=8, note=55, velocity=95, time=0),
    Message('note_on', channel=8, note=50, velocity=95, time=0),
    Message('note_on', channel=8, note=47, velocity=95, time=0),
    Message('note_on', channel=8, note=43, velocity=95, time=0),
    Message('note_off', channel=8, note=67, velocity=95, time=960),
    Message('note_off', channel=8, note=62, velocity=95, time=0),
    Message('note_off', channel=8, note=55, velocity=95, time=0),
    Message('note_off', channel=8, note=50, velocity=95, time=0),
    Message('note_off', channel=8, note=47, velocity=95, time=0),
    Message('note_off', channel=8, note=43, velocity=95, time=0),
    Message('note_on', channel=8, note=67, velocity=95, time=0),
    Message('note_on', channel=8, note=62, velocity=95, time=0),
    Message('note_on', channel=8, note=55, velocity=95, time=0),
    Message('note_on', channel=8, note=50, velocity=95, time=0),
    Message('note_on', channel=8, note=47, velocity=95, time=0),
    Message('note_on', channel=8, note=43, velocity=95, time=0),
    Message('note_off', channel=8, note=67, velocity=95, time=480),
    Message('note_off', channel=8, note=62, velocity=95, time=0),
    Message('note_off', channel=8, note=55, velocity=95, time=0),
    Message('note_off', channel=8, note=50, velocity=95, time=0),
    Message('note_off', channel=8, note=47, velocity=95, time=0),
    Message('note_off', channel=8, note=43, velocity=95, time=0),
    Message('note_on', channel=8, note=67, velocity=95, time=0),
    Message('note_on', channel=8, note=62, velocity=95, time=0),
    Message('note_on', channel=8, note=55, velocity=95, time=0),
    Message('note_on', channel=8, note=50, velocity=95, time=0),
    Message('note_on', channel=8, note=47, velocity=95, time=0),
    Message('note_on', channel=8, note=43, velocity=95, time=0),
    Message('note_off', channel=8, note=67, velocity=95, time=480),
    Message('note_off', channel=8, note=62, velocity=95, time=0),
    Message('note_off', channel=8, note=55, velocity=95, time=0),
    Message('note_off', channel=8, note=50, velocity=95, time=0),
    Message('note_off', channel=8, note=47, velocity=95, time=0),
    Message('note_off', channel=8, note=43, velocity=95, time=0),
    Message('note_on', channel=8, note=67, velocity=95, time=0),
    Message('note_on', channel=8, note=62, velocity=95, time=0),
    Message('note_on', channel=8, note=55, velocity=95, time=0),
    Message('note_on', channel=8, note=50, velocity=95, time=0),
    Message('note_on', channel=8, note=47, velocity=95, time=0),
    Message('note_on', channel=8, note=43, velocity=95, time=0),
    Message('note_off', channel=8, note=67, velocity=95, time=480),
    Message('note_off', channel=8, note=62, velocity=95, time=0),
    Message('note_off', channel=8, note=55, velocity=95, time=0),
    Message('note_off', channel=8, note=50, velocity=95, time=0),
    Message('note_off', channel=8, note=47, velocity=95, time=0),
    Message('note_off', channel=8, note=43, velocity=95, time=0),
    Message('note_on', channel=8, note=57, velocity=95, time=0),
    Message('note_on', channel=8, note=52, velocity=95, time=0),
    Message('note_on', channel=8, note=45, velocity=95, time=0),
    Message('note_off', channel=8, note=57, velocity=95, time=480),
    Message('note_off', channel=8, note=52, velocity=95, time=0),
    Message('note_off', channel=8, note=45, velocity=95, time=0),
    Message('note_on', channel=8, note=57, velocity=95, time=0),
    Message('note_on', channel=8, note=52, velocity=95, time=0),
    Message('note_on', channel=8, note=45, velocity=95, time=0),
    Message('note_off', channel=8, note=57, velocity=95, time=960),
    Message('note_off', channel=8, note=52, velocity=95, time=0),
    Message('note_off', channel=8, note=45, velocity=95, time=0),
    Message('note_on', channel=8, note=57, velocity=95, time=0),
    Message('note_on', channel=8, note=52, velocity=95, time=0),
    Message('note_on', channel=8, note=45, velocity=95, time=0),
    Message('note_off', channel=8, note=57, velocity=95, time=960),
    Message('note_off', channel=8, note=52, velocity=95, time=0),
    Message('note_off', channel=8, note=45, velocity=95, time=0),
    Message('note_on', channel=8, note=57, velocity=95, time=0),
    Message('note_on', channel=8, note=52, velocity=95, time=0),
    Message('note_on', channel=8, note=45, velocity=95, time=0),
    Message('note_off', channel=8, note=57, velocity=95, time=480),
    Message('note_off', channel=8, note=52, velocity=95, time=0),
    Message('note_off', channel=8, note=45, velocity=95, time=0),
    Message('note_on', channel=8, note=57, velocity=95, time=0),
    Message('note_on', channel=8, note=52, velocity=95, time=0),
    Message('note_on', channel=8, note=45, velocity=95, time=0),
    Message('note_off', channel=8, note=57, velocity=95, time=480),
    Message('note_off', channel=8, note=52, velocity=95, time=0),
    Message('note_off', channel=8, note=45, velocity=95, time=0),
    Message('note_on', channel=8, note=57, velocity=95, time=0),
    Message('note_on', channel=8, note=52, velocity=95, time=0),
    Message('note_on', channel=8, note=45, velocity=95, time=0),
    Message('note_off', channel=8, note=57, velocity=95, time=480),
    Message('note_off', channel=8, note=52, velocity=95, time=0),
    Message('note_off', channel=8, note=45, velocity=95, time=0),
    Message('note_on', channel=8, note=57, velocity=95, time=0),
    Message('note_on', channel=8, note=52, velocity=95, time=0),
    Message('note_on', channel=8, note=45, velocity=95, time=0),
    Message('note_off', channel=8, note=57, velocity=95, time=480),
    Message('note_off', channel=8, note=52, velocity=95, time=0),
    Message('note_off', channel=8, note=45, velocity=95, time=0),
    Message('note_on', channel=8, note=57, velocity=95, time=0),
    Message('note_on', channel=8, note=52, velocity=95, time=0),
    Message('note_on', channel=8, note=45, velocity=95, time=0),
    Message('note_off', channel=8, note=57, velocity=95, time=960),
    Message('note_off', channel=8, note=52, velocity=95, time=0),
    Message('note_off', channel=8, note=45, velocity=95, time=0),
    Message('note_on', channel=8, note=57, velocity=95, time=0),
    Message('note_on', channel=8, note=52, velocity=95, time=0),
    Message('note_on', channel=8, note=45, velocity=95, time=0),
    Message('note_off', channel=8, note=57, velocity=95, time=960),
    Message('note_off', channel=8, note=52, velocity=95, time=0),
    Message('note_off', channel=8, note=45, velocity=95, time=0),
    Message('note_on', channel=8, note=57, velocity=95, time=0),
    Message('note_on', channel=8, note=52, velocity=95, time=0),
    Message('note_on', channel=8, note=45, velocity=95, time=0),
    Message('note_off', channel=8, note=57, velocity=95, time=480),
    Message('note_off', channel=8, note=52, velocity=95, time=0),
    Message('note_off', channel=8, note=45, velocity=95, time=0),
    Message('note_on', channel=8, note=57, velocity=95, time=0),
    Message('note_on', channel=8, note=52, velocity=95, time=0),
    Message('note_on', channel=8, note=45, velocity=95, time=0),
    Message('note_off', channel=8, note=57, velocity=95, time=480),
    Message('note_off', channel=8, note=52, velocity=95, time=0),
    Message('note_off', channel=8, note=45, velocity=95, time=0),
    Message('note_on', channel=8, note=57, velocity=95, time=0),
    Message('note_on', channel=8, note=52, velocity=95, time=0),
    Message('note_on', channel=8, note=45, velocity=95, time=0),
    Message('note_off', channel=8, note=57, velocity=95, time=480),
    Message('note_off', channel=8, note=52, velocity=95, time=0),
    Message('note_off', channel=8, note=45, velocity=95, time=0),
    Message('note_on', channel=8, note=65, velocity=95, time=0),
    Message('note_on', channel=8, note=60, velocity=95, time=0),
    Message('note_on', channel=8, note=57, velocity=95, time=0),
    Message('note_on', channel=8, note=53, velocity=95, time=0),
    Message('note_on', channel=8, note=48, velocity=95, time=0),
    Message('note_on', channel=8, note=41, velocity=95, time=0),
    Message('note_off', channel=8, note=65, velocity=95, time=480),
    Message('note_off', channel=8, note=60, velocity=95, time=0),
    Message('note_off', channel=8, note=57, velocity=95, time=0),
    Message('note_off', channel=8, note=53, velocity=95, time=0),
    Message('note_off', channel=8, note=48, velocity=95, time=0),
    Message('note_off', channel=8, note=41, velocity=95, time=0),
    Message('note_on', channel=8, note=65, velocity=95, time=0),
    Message('note_on', channel=8, note=60, velocity=95, time=0),
    Message('note_on', channel=8, note=57, velocity=95, time=0),
    Message('note_on', channel=8, note=53, velocity=95, time=0),
    Message('note_on', channel=8, note=48, velocity=95, time=0),
    Message('note_on', channel=8, note=41, velocity=95, time=0),
    Message('note_off', channel=8, note=65, velocity=95, time=480),
    Message('note_off', channel=8, note=60, velocity=95, time=0),
    Message('note_off', channel=8, note=57, velocity=95, time=0),
    Message('note_off', channel=8, note=53, velocity=95, time=0),
    Message('note_off', channel=8, note=48, velocity=95, time=0),
    Message('note_off', channel=8, note=41, velocity=95, time=0),
    Message('note_on', channel=8, note=65, velocity=95, time=0),
    Message('note_on', channel=8, note=60, velocity=95, time=0),
    Message('note_on', channel=8, note=57, velocity=95, time=0),
    Message('note_on', channel=8, note=53, velocity=95, time=0),
    Message('note_on', channel=8, note=48, velocity=95, time=0),
    Message('note_on', channel=8, note=41, velocity=95, time=0),
    Message('note_off', channel=8, note=65, velocity=95, time=480),
    Message('note_off', channel=8, note=60, velocity=95, time=0),
    Message('note_off', channel=8, note=57, velocity=95, time=0),
    Message('note_off', channel=8, note=53, velocity=95, time=0),
    Message('note_off', channel=8, note=48, velocity=95, time=0),
    Message('note_off', channel=8, note=41, velocity=95, time=0),
    Message('note_on', channel=8, note=65, velocity=95, time=0),
    Message('note_on', channel=8, note=60, velocity=95, time=0),
    Message('note_on', channel=8, note=57, velocity=95, time=0),
    Message('note_on', channel=8, note=53, velocity=95, time=0),
    Message('note_on', channel=8, note=48, velocity=95, time=0),
    Message('note_on', channel=8, note=41, velocity=95, time=0),
    Message('note_off', channel=8, note=65, velocity=95, time=480),
    Message('note_off', channel=8, note=60, velocity=95, time=0),
    Message('note_off', channel=8, note=57, velocity=95, time=0),
    Message('note_off', channel=8, note=53, velocity=95, time=0),
    Message('note_off', channel=8, note=48, velocity=95, time=0),
    Message('note_off', channel=8, note=41, velocity=95, time=0),
    Message('note_on', channel=8, note=65, velocity=95, time=0),
    Message('note_on', channel=8, note=60, velocity=95, time=0),
    Message('note_on', channel=8, note=57, velocity=95, time=0),
    Message('note_on', channel=8, note=53, velocity=95, time=0),
    Message('note_on', channel=8, note=48, velocity=95, time=0),
    Message('note_on', channel=8, note=41, velocity=95, time=0),
    Message('note_off', channel=8, note=65, velocity=95, time=480),
    Message('note_off', channel=8, note=60, velocity=95, time=0),
    Message('note_off', channel=8, note=57, velocity=95, time=0),
    Message('note_off', channel=8, note=53, velocity=95, time=0),
    Message('note_off', channel=8, note=48, velocity=95, time=0),
    Message('note_off', channel=8, note=41, velocity=95, time=0),
    Message('note_on', channel=8, note=65, velocity=95, time=0),
    Message('note_on', channel=8, note=60, velocity=95, time=0),
    Message('note_on', channel=8, note=57, velocity=95, time=0),
    Message('note_on', channel=8, note=53, velocity=95, time=0),
    Message('note_on', channel=8, note=48, velocity=95, time=0),
    Message('note_on', channel=8, note=41, velocity=95, time=0),
    Message('note_off', channel=8, note=65, velocity=95, time=480),
    Message('note_off', channel=8, note=60, velocity=95, time=0),
    Message('note_off', channel=8, note=57, velocity=95, time=0),
    Message('note_off', channel=8, note=53, velocity=95, time=0),
    Message('note_off', channel=8, note=48, velocity=95, time=0),
    Message('note_off', channel=8, note=41, velocity=95, time=0),
    Message('note_on', channel=8, note=65, velocity=95, time=0),
    Message('note_on', channel=8, note=60, velocity=95, time=0),
    Message('note_on', channel=8, note=57, velocity=95, time=0),
    Message('note_on', channel=8, note=53, velocity=95, time=0),
    Message('note_on', channel=8, note=48, velocity=95, time=0),
    Message('note_on', channel=8, note=41, velocity=95, time=0),
    Message('note_off', channel=8, note=65, velocity=95, time=480),
    Message('note_off', channel=8, note=60, velocity=95, time=0),
    Message('note_off', channel=8, note=57, velocity=95, time=0),
    Message('note_off', channel=8, note=53, velocity=95, time=0),
    Message('note_off', channel=8, note=48, velocity=95, time=0),
    Message('note_off', channel=8, note=41, velocity=95, time=0),
    Message('note_on', channel=8, note=65, velocity=95, time=0),
    Message('note_on', channel=8, note=60, velocity=95, time=0),
    Message('note_on', channel=8, note=57, velocity=95, time=0),
    Message('note_on', channel=8, note=53, velocity=95, time=0),
    Message('note_on', channel=8, note=48, velocity=95, time=0),
    Message('note_on', channel=8, note=41, velocity=95, time=0),
    Message('note_off', channel=8, note=65, velocity=95, time=480),
    Message('note_off', channel=8, note=60, velocity=95, time=0),
    Message('note_off', channel=8, note=57, velocity=95, time=0),
    Message('note_off', channel=8, note=53, velocity=95, time=0),
    Message('note_off', channel=8, note=48, velocity=95, time=0),
    Message('note_off', channel=8, note=41, velocity=95, time=0),
    Message('note_on', channel=8, note=67, velocity=95, time=0),
    Message('note_on', channel=8, note=62, velocity=95, time=0),
    Message('note_on', channel=8, note=55, velocity=95, time=0),
    Message('note_on', channel=8, note=50, velocity=95, time=0),
    Message('note_on', channel=8, note=47, velocity=95, time=0),
    Message('note_on', channel=8, note=43, velocity=95, time=0),
    Message('note_off', channel=8, note=67, velocity=95, time=480),
    Message('note_off', channel=8, note=62, velocity=95, time=0),
    Message('note_off', channel=8, note=55, velocity=95, time=0),
    Message('note_off', channel=8, note=50, velocity=95, time=0),
    Message('note_off', channel=8, note=47, velocity=95, time=0),
    Message('note_off', channel=8, note=43, velocity=95, time=0),
    Message('note_on', channel=8, note=67, velocity=95, time=0),
    Message('note_on', channel=8, note=62, velocity=95, time=0),
    Message('note_on', channel=8, note=55, velocity=95, time=0),
    Message('note_on', channel=8, note=50, velocity=95, time=0),
    Message('note_on', channel=8, note=47, velocity=95, time=0),
    Message('note_on', channel=8, note=43, velocity=95, time=0),
    Message('note_off', channel=8, note=67, velocity=95, time=960),
    Message('note_off', channel=8, note=62, velocity=95, time=0),
    Message('note_off', channel=8, note=55, velocity=95, time=0),
    Message('note_off', channel=8, note=50, velocity=95, time=0),
    Message('note_off', channel=8, note=47, velocity=95, time=0),
    Message('note_off', channel=8, note=43, velocity=95, time=0),
    Message('note_on', channel=8, note=67, velocity=95, time=0),
    Message('note_on', channel=8, note=62, velocity=95, time=0),
    Message('note_on', channel=8, note=55, velocity=95, time=0),
    Message('note_on', channel=8, note=50, velocity=95, time=0),
    Message('note_on', channel=8, note=47, velocity=95, time=0),
    Message('note_on', channel=8, note=43, velocity=95, time=0),
    Message('note_off', channel=8, note=67, velocity=95, time=960),
    Message('note_off', channel=8, note=62, velocity=95, time=0),
    Message('note_off', channel=8, note=55, velocity=95, time=0),
    Message('note_off', channel=8, note=50, velocity=95, time=0),
    Message('note_off', channel=8, note=47, velocity=95, time=0),
    Message('note_off', channel=8, note=43, velocity=95, time=0),
    Message('note_on', channel=8, note=67, velocity=95, time=0),
    Message('note_on', channel=8, note=62, velocity=95, time=0),
    Message('note_on', channel=8, note=55, velocity=95, time=0),
    Message('note_on', channel=8, note=50, velocity=95, time=0),
    Message('note_on', channel=8, note=47, velocity=95, time=0),
    Message('note_on', channel=8, note=43, velocity=95, time=0),
    Message('note_off', channel=8, note=67, velocity=95, time=480),
    Message('note_off', channel=8, note=62, velocity=95, time=0),
    Message('note_off', channel=8, note=55, velocity=95, time=0),
    Message('note_off', channel=8, note=50, velocity=95, time=0),
    Message('note_off', channel=8, note=47, velocity=95, time=0),
    Message('note_off', channel=8, note=43, velocity=95, time=0),
    Message('note_on', channel=8, note=67, velocity=95, time=0),
    Message('note_on', channel=8, note=62, velocity=95, time=0),
    Message('note_on', channel=8, note=55, velocity=95, time=0),
    Message('note_on', channel=8, note=50, velocity=95, time=0),
    Message('note_on', channel=8, note=47, velocity=95, time=0),
    Message('note_on', channel=8, note=43, velocity=95, time=0),
    Message('note_off', channel=8, note=67, velocity=95, time=480),
    Message('note_off', channel=8, note=62, velocity=95, time=0),
    Message('note_off', channel=8, note=55, velocity=95, time=0),
    Message('note_off', channel=8, note=50, velocity=95, time=0),
    Message('note_off', channel=8, note=47, velocity=95, time=0),
    Message('note_off', channel=8, note=43, velocity=95, time=0),
    Message('note_on', channel=8, note=67, velocity=95, time=0),
    Message('note_on', channel=8, note=62, velocity=95, time=0),
    Message('note_on', channel=8, note=55, velocity=95, time=0),
    Message('note_on', channel=8, note=50, velocity=95, time=0),
    Message('note_on', channel=8, note=47, velocity=95, time=0),
    Message('note_on', channel=8, note=43, velocity=95, time=0),
    Message('note_off', channel=8, note=67, velocity=95, time=480),
    Message('note_off', channel=8, note=62, velocity=95, time=0),
    Message('note_off', channel=8, note=55, velocity=95, time=0),
    Message('note_off', channel=8, note=50, velocity=95, time=0),
    Message('note_off', channel=8, note=47, velocity=95, time=0),
    Message('note_off', channel=8, note=43, velocity=95, time=0),
    Message('note_on', channel=8, note=57, velocity=95, time=0),
    Message('note_on', channel=8, note=52, velocity=95, time=0),
    Message('note_on', channel=8, note=45, velocity=95, time=0),
    Message('note_off', channel=8, note=57, velocity=95, time=480),
    Message('note_off', channel=8, note=52, velocity=95, time=0),
    Message('note_off', channel=8, note=45, velocity=95, time=0),
    Message('note_on', channel=8, note=57, velocity=95, time=0),
    Message('note_on', channel=8, note=52, velocity=95, time=0),
    Message('note_on', channel=8, note=45, velocity=95, time=0),
    Message('note_off', channel=8, note=57, velocity=95, time=960),
    Message('note_off', channel=8, note=52, velocity=95, time=0),
    Message('note_off', channel=8, note=45, velocity=95, time=0),
    Message('note_on', channel=8, note=57, velocity=95, time=0),
    Message('note_on', channel=8, note=52, velocity=95, time=0),
    Message('note_on', channel=8, note=45, velocity=95, time=0),
    Message('note_off', channel=8, note=57, velocity=95, time=960),
    Message('note_off', channel=8, note=52, velocity=95, time=0),
    Message('note_off', channel=8, note=45, velocity=95, time=0),
    Message('note_on', channel=8, note=57, velocity=95, time=0),
    Message('note_on', channel=8, note=52, velocity=95, time=0),
    Message('note_on', channel=8, note=45, velocity=95, time=0),
    Message('note_off', channel=8, note=57, velocity=95, time=480),
    Message('note_off', channel=8, note=52, velocity=95, time=0),
    Message('note_off', channel=8, note=45, velocity=95, time=0),
    Message('note_on', channel=8, note=57, velocity=95, time=0),
    Message('note_on', channel=8, note=52, velocity=95, time=0),
    Message('note_on', channel=8, note=45, velocity=95, time=0),
    Message('note_off', channel=8, note=57, velocity=95, time=480),
    Message('note_off', channel=8, note=52, velocity=95, time=0),
    Message('note_off', channel=8, note=45, velocity=95, time=0),
    Message('note_on', channel=8, note=57, velocity=95, time=0),
    Message('note_on', channel=8, note=52, velocity=95, time=0),
    Message('note_on', channel=8, note=45, velocity=95, time=0),
    Message('note_off', channel=8, note=57, velocity=95, time=480),
    Message('note_off', channel=8, note=52, velocity=95, time=0),
    Message('note_off', channel=8, note=45, velocity=95, time=0),
    Message('note_on', channel=8, note=57, velocity=95, time=0),
    Message('note_on', channel=8, note=52, velocity=95, time=0),
    Message('note_on', channel=8, note=45, velocity=95, time=0),
    Message('note_off', channel=8, note=57, velocity=95, time=480),
    Message('note_off', channel=8, note=52, velocity=95, time=0),
    Message('note_off', channel=8, note=45, velocity=95, time=0),
    Message('note_on', channel=8, note=57, velocity=95, time=0),
    Message('note_on', channel=8, note=52, velocity=95, time=0),
    Message('note_on', channel=8, note=45, velocity=95, time=0),
    Message('note_off', channel=8, note=57, velocity=95, time=960),
    Message('note_off', channel=8, note=52, velocity=95, time=0),
    Message('note_off', channel=8, note=45, velocity=95, time=0),
    Message('note_on', channel=8, note=57, velocity=95, time=0),
    Message('note_on', channel=8, note=52, velocity=95, time=0),
    Message('note_on', channel=8, note=45, velocity=95, time=0),
    Message('note_off', channel=8, note=57, velocity=95, time=960),
    Message('note_off', channel=8, note=52, velocity=95, time=0),
    Message('note_off', channel=8, note=45, velocity=95, time=0),
    Message('note_on', channel=8, note=57, velocity=95, time=0),
    Message('note_on', channel=8, note=52, velocity=95, time=0),
    Message('note_on', channel=8, note=45, velocity=95, time=0),
    Message('note_off', channel=8, note=57, velocity=95, time=480),
    Message('note_off', channel=8, note=52, velocity=95, time=0),
    Message('note_off', channel=8, note=45, velocity=95, time=0),
    Message('note_on', channel=8, note=57, velocity=95, time=0),
    Message('note_on', channel=8, note=52, velocity=95, time=0),
    Message('note_on', channel=8, note=45, velocity=95, time=0),
    Message('note_off', channel=8, note=57, velocity=95, time=480),
    Message('note_off', channel=8, note=52, velocity=95, time=0),
    Message('note_off', channel=8, note=45, velocity=95, time=0),
    Message('note_on', channel=8, note=57, velocity=95, time=0),
    Message('note_on', channel=8, note=52, velocity=95, time=0),
    Message('note_on', channel=8, note=45, velocity=95, time=0),
    Message('note_off', channel=8, note=57, velocity=95, time=480),
    Message('note_off', channel=8, note=52, velocity=95, time=0),
    Message('note_off', channel=8, note=45, velocity=95, time=0),
    Message('note_on', channel=8, note=65, velocity=95, time=0),
    Message('note_on', channel=8, note=60, velocity=95, time=0),
    Message('note_on', channel=8, note=57, velocity=95, time=0),
    Message('note_on', channel=8, note=53, velocity=95, time=0),
    Message('note_on', channel=8, note=48, velocity=95, time=0),
    Message('note_on', channel=8, note=41, velocity=95, time=0),
    Message('note_off', channel=8, note=65, velocity=95, time=480),
    Message('note_off', channel=8, note=60, velocity=95, time=0),
    Message('note_off', channel=8, note=57, velocity=95, time=0),
    Message('note_off', channel=8, note=53, velocity=95, time=0),
    Message('note_off', channel=8, note=48, velocity=95, time=0),
    Message('note_off', channel=8, note=41, velocity=95, time=0),
    Message('note_on', channel=8, note=65, velocity=95, time=0),
    Message('note_on', channel=8, note=60, velocity=95, time=0),
    Message('note_on', channel=8, note=57, velocity=95, time=0),
    Message('note_on', channel=8, note=53, velocity=95, time=0),
    Message('note_on', channel=8, note=48, velocity=95, time=0),
    Message('note_on', channel=8, note=41, velocity=95, time=0),
    Message('note_off', channel=8, note=65, velocity=95, time=480),
    Message('note_off', channel=8, note=60, velocity=95, time=0),
    Message('note_off', channel=8, note=57, velocity=95, time=0),
    Message('note_off', channel=8, note=53, velocity=95, time=0),
    Message('note_off', channel=8, note=48, velocity=95, time=0),
    Message('note_off', channel=8, note=41, velocity=95, time=0),
    Message('note_on', channel=8, note=65, velocity=95, time=0),
    Message('note_on', channel=8, note=60, velocity=95, time=0),
    Message('note_on', channel=8, note=57, velocity=95, time=0),
    Message('note_on', channel=8, note=53, velocity=95, time=0),
    Message('note_on', channel=8, note=48, velocity=95, time=0),
    Message('note_on', channel=8, note=41, velocity=95, time=0),
    Message('note_off', channel=8, note=65, velocity=95, time=480),
    Message('note_off', channel=8, note=60, velocity=95, time=0),
    Message('note_off', channel=8, note=57, velocity=95, time=0),
    Message('note_off', channel=8, note=53, velocity=95, time=0),
    Message('note_off', channel=8, note=48, velocity=95, time=0),
    Message('note_off', channel=8, note=41, velocity=95, time=0),
    Message('note_on', channel=8, note=65, velocity=95, time=0),
    Message('note_on', channel=8, note=60, velocity=95, time=0),
    Message('note_on', channel=8, note=57, velocity=95, time=0),
    Message('note_on', channel=8, note=53, velocity=95, time=0),
    Message('note_on', channel=8, note=48, velocity=95, time=0),
    Message('note_on', channel=8, note=41, velocity=95, time=0),
    Message('note_off', channel=8, note=65, velocity=95, time=480),
    Message('note_off', channel=8, note=60, velocity=95, time=0),
    Message('note_off', channel=8, note=57, velocity=95, time=0),
    Message('note_off', channel=8, note=53, velocity=95, time=0),
    Message('note_off', channel=8, note=48, velocity=95, time=0),
    Message('note_off', channel=8, note=41, velocity=95, time=0),
    Message('note_on', channel=8, note=65, velocity=95, time=0),
    Message('note_on', channel=8, note=60, velocity=95, time=0),
    Message('note_on', channel=8, note=57, velocity=95, time=0),
    Message('note_on', channel=8, note=53, velocity=95, time=0),
    Message('note_on', channel=8, note=48, velocity=95, time=0),
    Message('note_on', channel=8, note=41, velocity=95, time=0),
    Message('note_off', channel=8, note=65, velocity=95, time=480),
    Message('note_off', channel=8, note=60, velocity=95, time=0),
    Message('note_off', channel=8, note=57, velocity=95, time=0),
    Message('note_off', channel=8, note=53, velocity=95, time=0),
    Message('note_off', channel=8, note=48, velocity=95, time=0),
    Message('note_off', channel=8, note=41, velocity=95, time=0),
    Message('note_on', channel=8, note=65, velocity=95, time=0),
    Message('note_on', channel=8, note=60, velocity=95, time=0),
    Message('note_on', channel=8, note=57, velocity=95, time=0),
    Message('note_on', channel=8, note=53, velocity=95, time=0),
    Message('note_on', channel=8, note=48, velocity=95, time=0),
    Message('note_on', channel=8, note=41, velocity=95, time=0),
    Message('note_off', channel=8, note=65, velocity=95, time=480),
    Message('note_off', channel=8, note=60, velocity=95, time=0),
    Message('note_off', channel=8, note=57, velocity=95, time=0),
    Message('note_off', channel=8, note=53, velocity=95, time=0),
    Message('note_off', channel=8, note=48, velocity=95, time=0),
    Message('note_off', channel=8, note=41, velocity=95, time=0),
    Message('note_on', channel=8, note=65, velocity=95, time=0),
    Message('note_on', channel=8, note=60, velocity=95, time=0),
    Message('note_on', channel=8, note=57, velocity=95, time=0),
    Message('note_on', channel=8, note=53, velocity=95, time=0),
    Message('note_on', channel=8, note=48, velocity=95, time=0),
    Message('note_on', channel=8, note=41, velocity=95, time=0),
    Message('note_off', channel=8, note=65, velocity=95, time=480),
    Message('note_off', channel=8, note=60, velocity=95, time=0),
    Message('note_off', channel=8, note=57, velocity=95, time=0),
    Message('note_off', channel=8, note=53, velocity=95, time=0),
    Message('note_off', channel=8, note=48, velocity=95, time=0),
    Message('note_off', channel=8, note=41, velocity=95, time=0),
    Message('note_on', channel=8, note=65, velocity=95, time=0),
    Message('note_on', channel=8, note=60, velocity=95, time=0),
    Message('note_on', channel=8, note=57, velocity=95, time=0),
    Message('note_on', channel=8, note=53, velocity=95, time=0),
    Message('note_on', channel=8, note=48, velocity=95, time=0),
    Message('note_on', channel=8, note=41, velocity=95, time=0),
    Message('note_off', channel=8, note=65, velocity=95, time=480),
    Message('note_off', channel=8, note=60, velocity=95, time=0),
    Message('note_off', channel=8, note=57, velocity=95, time=0),
    Message('note_off', channel=8, note=53, velocity=95, time=0),
    Message('note_off', channel=8, note=48, velocity=95, time=0),
    Message('note_off', channel=8, note=41, velocity=95, time=0),
    Message('note_on', channel=8, note=67, velocity=95, time=0),
    Message('note_on', channel=8, note=62, velocity=95, time=0),
    Message('note_on', channel=8, note=55, velocity=95, time=0),
    Message('note_on', channel=8, note=50, velocity=95, time=0),
    Message('note_on', channel=8, note=47, velocity=95, time=0),
    Message('note_on', channel=8, note=43, velocity=95, time=0),
    Message('note_off', channel=8, note=67, velocity=95, time=480),
    Message('note_off', channel=8, note=62, velocity=95, time=0),
    Message('note_off', channel=8, note=55, velocity=95, time=0),
    Message('note_off', channel=8, note=50, velocity=95, time=0),
    Message('note_off', channel=8, note=47, velocity=95, time=0),
    Message('note_off', channel=8, note=43, velocity=95, time=0),
    Message('note_on', channel=8, note=67, velocity=95, time=0),
    Message('note_on', channel=8, note=62, velocity=95, time=0),
    Message('note_on', channel=8, note=55, velocity=95, time=0),
    Message('note_on', channel=8, note=50, velocity=95, time=0),
    Message('note_on', channel=8, note=47, velocity=95, time=0),
    Message('note_on', channel=8, note=43, velocity=95, time=0),
    Message('note_off', channel=8, note=67, velocity=95, time=960),
    Message('note_off', channel=8, note=62, velocity=95, time=0),
    Message('note_off', channel=8, note=55, velocity=95, time=0),
    Message('note_off', channel=8, note=50, velocity=95, time=0),
    Message('note_off', channel=8, note=47, velocity=95, time=0),
    Message('note_off', channel=8, note=43, velocity=95, time=0),
    Message('note_on', channel=8, note=67, velocity=95, time=0),
    Message('note_on', channel=8, note=62, velocity=95, time=0),
    Message('note_on', channel=8, note=55, velocity=95, time=0),
    Message('note_on', channel=8, note=50, velocity=95, time=0),
    Message('note_on', channel=8, note=47, velocity=95, time=0),
    Message('note_on', channel=8, note=43, velocity=95, time=0),
    Message('note_off', channel=8, note=67, velocity=95, time=960),
    Message('note_off', channel=8, note=62, velocity=95, time=0),
    Message('note_off', channel=8, note=55, velocity=95, time=0),
    Message('note_off', channel=8, note=50, velocity=95, time=0),
    Message('note_off', channel=8, note=47, velocity=95, time=0),
    Message('note_off', channel=8, note=43, velocity=95, time=0),
    Message('note_on', channel=8, note=67, velocity=95, time=0),
    Message('note_on', channel=8, note=62, velocity=95, time=0),
    Message('note_on', channel=8, note=55, velocity=95, time=0),
    Message('note_on', channel=8, note=50, velocity=95, time=0),
    Message('note_on', channel=8, note=47, velocity=95, time=0),
    Message('note_on', channel=8, note=43, velocity=95, time=0),
    Message('note_off', channel=8, note=67, velocity=95, time=480),
    Message('note_off', channel=8, note=62, velocity=95, time=0),
    Message('note_off', channel=8, note=55, velocity=95, time=0),
    Message('note_off', channel=8, note=50, velocity=95, time=0),
    Message('note_off', channel=8, note=47, velocity=95, time=0),
    Message('note_off', channel=8, note=43, velocity=95, time=0),
    Message('note_on', channel=8, note=67, velocity=95, time=0),
    Message('note_on', channel=8, note=62, velocity=95, time=0),
    Message('note_on', channel=8, note=55, velocity=95, time=0),
    Message('note_on', channel=8, note=50, velocity=95, time=0),
    Message('note_on', channel=8, note=47, velocity=95, time=0),
    Message('note_on', channel=8, note=43, velocity=95, time=0),
    Message('note_off', channel=8, note=67, velocity=95, time=480),
    Message('note_off', channel=8, note=62, velocity=95, time=0),
    Message('note_off', channel=8, note=55, velocity=95, time=0),
    Message('note_off', channel=8, note=50, velocity=95, time=0),
    Message('note_off', channel=8, note=47, velocity=95, time=0),
    Message('note_off', channel=8, note=43, velocity=95, time=0),
    Message('note_on', channel=8, note=67, velocity=95, time=0),
    Message('note_on', channel=8, note=62, velocity=95, time=0),
    Message('note_on', channel=8, note=55, velocity=95, time=0),
    Message('note_on', channel=8, note=50, velocity=95, time=0),
    Message('note_on', channel=8, note=47, velocity=95, time=0),
    Message('note_on', channel=8, note=43, velocity=95, time=0),
    Message('note_off', channel=8, note=67, velocity=95, time=480),
    Message('note_off', channel=8, note=62, velocity=95, time=0),
    Message('note_off', channel=8, note=55, velocity=95, time=0),
    Message('note_off', channel=8, note=50, velocity=95, time=0),
    Message('note_off', channel=8, note=47, velocity=95, time=0),
    Message('note_off', channel=8, note=43, velocity=95, time=0),
    Message('note_on', channel=8, note=57, velocity=95, time=0),
    Message('note_on', channel=8, note=52, velocity=95, time=0),
    Message('note_on', channel=8, note=45, velocity=95, time=0),
    Message('note_off', channel=8, note=57, velocity=95, time=480),
    Message('note_off', channel=8, note=52, velocity=95, time=0),
    Message('note_off', channel=8, note=45, velocity=95, time=0),
    Message('note_on', channel=8, note=57, velocity=95, time=0),
    Message('note_on', channel=8, note=52, velocity=95, time=0),
    Message('note_on', channel=8, note=45, velocity=95, time=0),
    Message('note_off', channel=8, note=57, velocity=95, time=960),
    Message('note_off', channel=8, note=52, velocity=95, time=0),
    Message('note_off', channel=8, note=45, velocity=95, time=0),
    Message('note_on', channel=8, note=57, velocity=95, time=0),
    Message('note_on', channel=8, note=52, velocity=95, time=0),
    Message('note_on', channel=8, note=45, velocity=95, time=0),
    Message('note_off', channel=8, note=57, velocity=95, time=960),
    Message('note_off', channel=8, note=52, velocity=95, time=0),
    Message('note_off', channel=8, note=45, velocity=95, time=0),
    Message('note_on', channel=8, note=57, velocity=95, time=0),
    Message('note_on', channel=8, note=52, velocity=95, time=0),
    Message('note_on', channel=8, note=45, velocity=95, time=0),
    Message('note_off', channel=8, note=57, velocity=95, time=480),
    Message('note_off', channel=8, note=52, velocity=95, time=0),
    Message('note_off', channel=8, note=45, velocity=95, time=0),
    Message('note_on', channel=8, note=57, velocity=95, time=0),
    Message('note_on', channel=8, note=52, velocity=95, time=0),
    Message('note_on', channel=8, note=45, velocity=95, time=0),
    Message('note_off', channel=8, note=57, velocity=95, time=480),
    Message('note_off', channel=8, note=52, velocity=95, time=0),
    Message('note_off', channel=8, note=45, velocity=95, time=0),
    Message('note_on', channel=8, note=57, velocity=95, time=0),
    Message('note_on', channel=8, note=52, velocity=95, time=0),
    Message('note_on', channel=8, note=45, velocity=95, time=0),
    Message('note_off', channel=8, note=57, velocity=95, time=480),
    Message('note_off', channel=8, note=52, velocity=95, time=0),
    Message('note_off', channel=8, note=45, velocity=95, time=0),
    Message('note_on', channel=8, note=57, velocity=95, time=0),
    Message('note_on', channel=8, note=52, velocity=95, time=0),
    Message('note_on', channel=8, note=45, velocity=95, time=0),
    Message('note_off', channel=8, note=57, velocity=95, time=480),
    Message('note_off', channel=8, note=52, velocity=95, time=0),
    Message('note_off', channel=8, note=45, velocity=95, time=0),
    Message('note_on', channel=8, note=57, velocity=95, time=0),
    Message('note_on', channel=8, note=52, velocity=95, time=0),
    Message('note_on', channel=8, note=45, velocity=95, time=0),
    Message('note_off', channel=8, note=57, velocity=95, time=960),
    Message('note_off', channel=8, note=52, velocity=95, time=0),
    Message('note_off', channel=8, note=45, velocity=95, time=0),
    Message('note_on', channel=8, note=57, velocity=95, time=0),
    Message('note_on', channel=8, note=52, velocity=95, time=0),
    Message('note_on', channel=8, note=45, velocity=95, time=0),
    Message('note_off', channel=8, note=57, velocity=95, time=960),
    Message('note_off', channel=8, note=52, velocity=95, time=0),
    Message('note_off', channel=8, note=45, velocity=95, time=0),
    Message('note_on', channel=8, note=57, velocity=95, time=0),
    Message('note_on', channel=8, note=52, velocity=95, time=0),
    Message('note_on', channel=8, note=45, velocity=95, time=0),
    Message('note_off', channel=8, note=57, velocity=95, time=480),
    Message('note_off', channel=8, note=52, velocity=95, time=0),
    Message('note_off', channel=8, note=45, velocity=95, time=0),
    Message('note_on', channel=8, note=57, velocity=95, time=0),
    Message('note_on', channel=8, note=52, velocity=95, time=0),
    Message('note_on', channel=8, note=45, velocity=95, time=0),
    Message('note_off', channel=8, note=57, velocity=95, time=480),
    Message('note_off', channel=8, note=52, velocity=95, time=0),
    Message('note_off', channel=8, note=45, velocity=95, time=0),
    Message('note_on', channel=8, note=57, velocity=95, time=0),
    Message('note_on', channel=8, note=52, velocity=95, time=0),
    Message('note_on', channel=8, note=45, velocity=95, time=0),
    Message('note_off', channel=8, note=57, velocity=95, time=480),
    Message('note_off', channel=8, note=52, velocity=95, time=0),
    Message('note_off', channel=8, note=45, velocity=95, time=0),
    Message('note_on', channel=8, note=65, velocity=95, time=0),
    Message('note_on', channel=8, note=60, velocity=95, time=0),
    Message('note_on', channel=8, note=57, velocity=95, time=0),
    Message('note_on', channel=8, note=53, velocity=95, time=0),
    Message('note_on', channel=8, note=48, velocity=95, time=0),
    Message('note_on', channel=8, note=41, velocity=95, time=0),
    Message('note_off', channel=8, note=65, velocity=95, time=480),
    Message('note_off', channel=8, note=60, velocity=95, time=0),
    Message('note_off', channel=8, note=57, velocity=95, time=0),
    Message('note_off', channel=8, note=53, velocity=95, time=0),
    Message('note_off', channel=8, note=48, velocity=95, time=0),
    Message('note_off', channel=8, note=41, velocity=95, time=0),
    Message('note_on', channel=8, note=65, velocity=95, time=0),
    Message('note_on', channel=8, note=60, velocity=95, time=0),
    Message('note_on', channel=8, note=57, velocity=95, time=0),
    Message('note_on', channel=8, note=53, velocity=95, time=0),
    Message('note_on', channel=8, note=48, velocity=95, time=0),
    Message('note_on', channel=8, note=41, velocity=95, time=0),
    Message('note_off', channel=8, note=65, velocity=95, time=480),
    Message('note_off', channel=8, note=60, velocity=95, time=0),
    Message('note_off', channel=8, note=57, velocity=95, time=0),
    Message('note_off', channel=8, note=53, velocity=95, time=0),
    Message('note_off', channel=8, note=48, velocity=95, time=0),
    Message('note_off', channel=8, note=41, velocity=95, time=0),
    Message('note_on', channel=8, note=65, velocity=95, time=0),
    Message('note_on', channel=8, note=60, velocity=95, time=0),
    Message('note_on', channel=8, note=57, velocity=95, time=0),
    Message('note_on', channel=8, note=53, velocity=95, time=0),
    Message('note_on', channel=8, note=48, velocity=95, time=0),
    Message('note_on', channel=8, note=41, velocity=95, time=0),
    Message('note_off', channel=8, note=65, velocity=95, time=480),
    Message('note_off', channel=8, note=60, velocity=95, time=0),
    Message('note_off', channel=8, note=57, velocity=95, time=0),
    Message('note_off', channel=8, note=53, velocity=95, time=0),
    Message('note_off', channel=8, note=48, velocity=95, time=0),
    Message('note_off', channel=8, note=41, velocity=95, time=0),
    Message('note_on', channel=8, note=65, velocity=95, time=0),
    Message('note_on', channel=8, note=60, velocity=95, time=0),
    Message('note_on', channel=8, note=57, velocity=95, time=0),
    Message('note_on', channel=8, note=53, velocity=95, time=0),
    Message('note_on', channel=8, note=48, velocity=95, time=0),
    Message('note_on', channel=8, note=41, velocity=95, time=0),
    Message('note_off', channel=8, note=65, velocity=95, time=480),
    Message('note_off', channel=8, note=60, velocity=95, time=0),
    Message('note_off', channel=8, note=57, velocity=95, time=0),
    Message('note_off', channel=8, note=53, velocity=95, time=0),
    Message('note_off', channel=8, note=48, velocity=95, time=0),
    Message('note_off', channel=8, note=41, velocity=95, time=0),
    Message('note_on', channel=8, note=65, velocity=95, time=0),
    Message('note_on', channel=8, note=60, velocity=95, time=0),
    Message('note_on', channel=8, note=57, velocity=95, time=0),
    Message('note_on', channel=8, note=53, velocity=95, time=0),
    Message('note_on', channel=8, note=48, velocity=95, time=0),
    Message('note_on', channel=8, note=41, velocity=95, time=0),
    Message('note_off', channel=8, note=65, velocity=95, time=480),
    Message('note_off', channel=8, note=60, velocity=95, time=0),
    Message('note_off', channel=8, note=57, velocity=95, time=0),
    Message('note_off', channel=8, note=53, velocity=95, time=0),
    Message('note_off', channel=8, note=48, velocity=95, time=0),
    Message('note_off', channel=8, note=41, velocity=95, time=0),
    Message('note_on', channel=8, note=65, velocity=95, time=0),
    Message('note_on', channel=8, note=60, velocity=95, time=0),
    Message('note_on', channel=8, note=57, velocity=95, time=0),
    Message('note_on', channel=8, note=53, velocity=95, time=0),
    Message('note_on', channel=8, note=48, velocity=95, time=0),
    Message('note_on', channel=8, note=41, velocity=95, time=0),
    Message('note_off', channel=8, note=65, velocity=95, time=480),
    Message('note_off', channel=8, note=60, velocity=95, time=0),
    Message('note_off', channel=8, note=57, velocity=95, time=0),
    Message('note_off', channel=8, note=53, velocity=95, time=0),
    Message('note_off', channel=8, note=48, velocity=95, time=0),
    Message('note_off', channel=8, note=41, velocity=95, time=0),
    Message('note_on', channel=8, note=65, velocity=95, time=0),
    Message('note_on', channel=8, note=60, velocity=95, time=0),
    Message('note_on', channel=8, note=57, velocity=95, time=0),
    Message('note_on', channel=8, note=53, velocity=95, time=0),
    Message('note_on', channel=8, note=48, velocity=95, time=0),
    Message('note_on', channel=8, note=41, velocity=95, time=0),
    Message('note_off', channel=8, note=65, velocity=95, time=480),
    Message('note_off', channel=8, note=60, velocity=95, time=0),
    Message('note_off', channel=8, note=57, velocity=95, time=0),
    Message('note_off', channel=8, note=53, velocity=95, time=0),
    Message('note_off', channel=8, note=48, velocity=95, time=0),
    Message('note_off', channel=8, note=41, velocity=95, time=0),
    Message('note_on', channel=8, note=65, velocity=95, time=0),
    Message('note_on', channel=8, note=60, velocity=95, time=0),
    Message('note_on', channel=8, note=57, velocity=95, time=0),
    Message('note_on', channel=8, note=53, velocity=95, time=0),
    Message('note_on', channel=8, note=48, velocity=95, time=0),
    Message('note_on', channel=8, note=41, velocity=95, time=0),
    Message('note_off', channel=8, note=65, velocity=95, time=480),
    Message('note_off', channel=8, note=60, velocity=95, time=0),
    Message('note_off', channel=8, note=57, velocity=95, time=0),
    Message('note_off', channel=8, note=53, velocity=95, time=0),
    Message('note_off', channel=8, note=48, velocity=95, time=0),
    Message('note_off', channel=8, note=41, velocity=95, time=0),
    Message('note_on', channel=8, note=67, velocity=95, time=0),
    Message('note_on', channel=8, note=62, velocity=95, time=0),
    Message('note_on', channel=8, note=55, velocity=95, time=0),
    Message('note_on', channel=8, note=50, velocity=95, time=0),
    Message('note_on', channel=8, note=47, velocity=95, time=0),
    Message('note_on', channel=8, note=43, velocity=95, time=0),
    Message('note_off', channel=8, note=67, velocity=95, time=480),
    Message('note_off', channel=8, note=62, velocity=95, time=0),
    Message('note_off', channel=8, note=55, velocity=95, time=0),
    Message('note_off', channel=8, note=50, velocity=95, time=0),
    Message('note_off', channel=8, note=47, velocity=95, time=0),
    Message('note_off', channel=8, note=43, velocity=95, time=0),
    Message('note_on', channel=8, note=67, velocity=95, time=0),
    Message('note_on', channel=8, note=62, velocity=95, time=0),
    Message('note_on', channel=8, note=55, velocity=95, time=0),
    Message('note_on', channel=8, note=50, velocity=95, time=0),
    Message('note_on', channel=8, note=47, velocity=95, time=0),
    Message('note_on', channel=8, note=43, velocity=95, time=0),
    Message('note_off', channel=8, note=67, velocity=95, time=960),
    Message('note_off', channel=8, note=62, velocity=95, time=0),
    Message('note_off', channel=8, note=55, velocity=95, time=0),
    Message('note_off', channel=8, note=50, velocity=95, time=0),
    Message('note_off', channel=8, note=47, velocity=95, time=0),
    Message('note_off', channel=8, note=43, velocity=95, time=0),
    Message('note_on', channel=8, note=67, velocity=95, time=0),
    Message('note_on', channel=8, note=62, velocity=95, time=0),
    Message('note_on', channel=8, note=55, velocity=95, time=0),
    Message('note_on', channel=8, note=50, velocity=95, time=0),
    Message('note_on', channel=8, note=47, velocity=95, time=0),
    Message('note_on', channel=8, note=43, velocity=95, time=0),
    Message('note_off', channel=8, note=67, velocity=95, time=960),
    Message('note_off', channel=8, note=62, velocity=95, time=0),
    Message('note_off', channel=8, note=55, velocity=95, time=0),
    Message('note_off', channel=8, note=50, velocity=95, time=0),
    Message('note_off', channel=8, note=47, velocity=95, time=0),
    Message('note_off', channel=8, note=43, velocity=95, time=0),
    Message('note_on', channel=8, note=67, velocity=95, time=0),
    Message('note_on', channel=8, note=62, velocity=95, time=0),
    Message('note_on', channel=8, note=55, velocity=95, time=0),
    Message('note_on', channel=8, note=50, velocity=95, time=0),
    Message('note_on', channel=8, note=47, velocity=95, time=0),
    Message('note_on', channel=8, note=43, velocity=95, time=0),
    Message('note_off', channel=8, note=67, velocity=95, time=480),
    Message('note_off', channel=8, note=62, velocity=95, time=0),
    Message('note_off', channel=8, note=55, velocity=95, time=0),
    Message('note_off', channel=8, note=50, velocity=95, time=0),
    Message('note_off', channel=8, note=47, velocity=95, time=0),
    Message('note_off', channel=8, note=43, velocity=95, time=0),
    Message('note_on', channel=8, note=67, velocity=95, time=0),
    Message('note_on', channel=8, note=62, velocity=95, time=0),
    Message('note_on', channel=8, note=55, velocity=95, time=0),
    Message('note_on', channel=8, note=50, velocity=95, time=0),
    Message('note_on', channel=8, note=47, velocity=95, time=0),
    Message('note_on', channel=8, note=43, velocity=95, time=0),
    Message('note_off', channel=8, note=67, velocity=95, time=480),
    Message('note_off', channel=8, note=62, velocity=95, time=0),
    Message('note_off', channel=8, note=55, velocity=95, time=0),
    Message('note_off', channel=8, note=50, velocity=95, time=0),
    Message('note_off', channel=8, note=47, velocity=95, time=0),
    Message('note_off', channel=8, note=43, velocity=95, time=0),
    Message('note_on', channel=8, note=67, velocity=95, time=0),
    Message('note_on', channel=8, note=62, velocity=95, time=0),
    Message('note_on', channel=8, note=55, velocity=95, time=0),
    Message('note_on', channel=8, note=50, velocity=95, time=0),
    Message('note_on', channel=8, note=47, velocity=95, time=0),
    Message('note_on', channel=8, note=43, velocity=95, time=0),
    Message('note_off', channel=8, note=67, velocity=95, time=480),
    Message('note_off', channel=8, note=62, velocity=95, time=0),
    Message('note_off', channel=8, note=55, velocity=95, time=0),
    Message('note_off', channel=8, note=50, velocity=95, time=0),
    Message('note_off', channel=8, note=47, velocity=95, time=0),
    Message('note_off', channel=8, note=43, velocity=95, time=0),
    Message('note_on', channel=8, note=57, velocity=95, time=0),
    Message('note_on', channel=8, note=52, velocity=95, time=0),
    Message('note_on', channel=8, note=45, velocity=95, time=0),
    Message('note_off', channel=8, note=57, velocity=95, time=480),
    Message('note_off', channel=8, note=52, velocity=95, time=0),
    Message('note_off', channel=8, note=45, velocity=95, time=0),
    Message('note_on', channel=8, note=57, velocity=95, time=0),
    Message('note_on', channel=8, note=52, velocity=95, time=0),
    Message('note_on', channel=8, note=45, velocity=95, time=0),
    Message('note_off', channel=8, note=57, velocity=95, time=960),
    Message('note_off', channel=8, note=52, velocity=95, time=0),
    Message('note_off', channel=8, note=45, velocity=95, time=0),
    Message('note_on', channel=8, note=57, velocity=95, time=0),
    Message('note_on', channel=8, note=52, velocity=95, time=0),
    Message('note_on', channel=8, note=45, velocity=95, time=0),
    Message('note_off', channel=8, note=57, velocity=95, time=960),
    Message('note_off', channel=8, note=52, velocity=95, time=0),
    Message('note_off', channel=8, note=45, velocity=95, time=0),
    Message('note_on', channel=8, note=57, velocity=95, time=0),
    Message('note_on', channel=8, note=52, velocity=95, time=0),
    Message('note_on', channel=8, note=45, velocity=95, time=0),
    Message('note_off', channel=8, note=57, velocity=95, time=480),
    Message('note_off', channel=8, note=52, velocity=95, time=0),
    Message('note_off', channel=8, note=45, velocity=95, time=0),
    Message('note_on', channel=8, note=57, velocity=95, time=0),
    Message('note_on', channel=8, note=52, velocity=95, time=0),
    Message('note_on', channel=8, note=45, velocity=95, time=0),
    Message('note_off', channel=8, note=57, velocity=95, time=480),
    Message('note_off', channel=8, note=52, velocity=95, time=0),
    Message('note_off', channel=8, note=45, velocity=95, time=0),
    Message('note_on', channel=8, note=57, velocity=95, time=0),
    Message('note_on', channel=8, note=52, velocity=95, time=0),
    Message('note_on', channel=8, note=45, velocity=95, time=0),
    Message('note_off', channel=8, note=57, velocity=95, time=480),
    Message('note_off', channel=8, note=52, velocity=95, time=0),
    Message('note_off', channel=8, note=45, velocity=95, time=0),
    Message('note_on', channel=8, note=57, velocity=95, time=0),
    Message('note_on', channel=8, note=52, velocity=95, time=0),
    Message('note_on', channel=8, note=45, velocity=95, time=0),
    Message('note_off', channel=8, note=57, velocity=95, time=480),
    Message('note_off', channel=8, note=52, velocity=95, time=0),
    Message('note_off', channel=8, note=45, velocity=95, time=0),
    Message('note_on', channel=8, note=57, velocity=95, time=0),
    Message('note_on', channel=8, note=52, velocity=95, time=0),
    Message('note_on', channel=8, note=45, velocity=95, time=0),
    Message('note_off', channel=8, note=57, velocity=95, time=960),
    Message('note_off', channel=8, note=52, velocity=95, time=0),
    Message('note_off', channel=8, note=45, velocity=95, time=0),
    Message('note_on', channel=8, note=57, velocity=95, time=0),
    Message('note_on', channel=8, note=52, velocity=95, time=0),
    Message('note_on', channel=8, note=45, velocity=95, time=0),
    Message('note_off', channel=8, note=57, velocity=95, time=960),
    Message('note_off', channel=8, note=52, velocity=95, time=0),
    Message('note_off', channel=8, note=45, velocity=95, time=0),
    Message('note_on', channel=8, note=57, velocity=95, time=0),
    Message('note_on', channel=8, note=52, velocity=95, time=0),
    Message('note_on', channel=8, note=45, velocity=95, time=0),
    Message('note_off', channel=8, note=57, velocity=95, time=480),
    Message('note_off', channel=8, note=52, velocity=95, time=0),
    Message('note_off', channel=8, note=45, velocity=95, time=0),
    Message('note_on', channel=8, note=57, velocity=95, time=0),
    Message('note_on', channel=8, note=52, velocity=95, time=0),
    Message('note_on', channel=8, note=45, velocity=95, time=0),
    Message('note_off', channel=8, note=57, velocity=95, time=480),
    Message('note_off', channel=8, note=52, velocity=95, time=0),
    Message('note_off', channel=8, note=45, velocity=95, time=0),
    Message('note_on', channel=8, note=57, velocity=95, time=0),
    Message('note_on', channel=8, note=52, velocity=95, time=0),
    Message('note_on', channel=8, note=45, velocity=95, time=0),
    Message('note_off', channel=8, note=57, velocity=95, time=480),
    Message('note_off', channel=8, note=52, velocity=95, time=0),
    Message('note_off', channel=8, note=45, velocity=95, time=0),
    Message('note_on', channel=8, note=65, velocity=95, time=0),
    Message('note_on', channel=8, note=60, velocity=95, time=0),
    Message('note_on', channel=8, note=57, velocity=95, time=0),
    Message('note_on', channel=8, note=53, velocity=95, time=0),
    Message('note_on', channel=8, note=48, velocity=95, time=0),
    Message('note_on', channel=8, note=41, velocity=95, time=0),
    Message('note_off', channel=8, note=65, velocity=95, time=480),
    Message('note_off', channel=8, note=60, velocity=95, time=0),
    Message('note_off', channel=8, note=57, velocity=95, time=0),
    Message('note_off', channel=8, note=53, velocity=95, time=0),
    Message('note_off', channel=8, note=48, velocity=95, time=0),
    Message('note_off', channel=8, note=41, velocity=95, time=0),
    Message('note_on', channel=8, note=65, velocity=95, time=0),
    Message('note_on', channel=8, note=60, velocity=95, time=0),
    Message('note_on', channel=8, note=57, velocity=95, time=0),
    Message('note_on', channel=8, note=53, velocity=95, time=0),
    Message('note_on', channel=8, note=48, velocity=95, time=0),
    Message('note_on', channel=8, note=41, velocity=95, time=0),
    Message('note_off', channel=8, note=65, velocity=95, time=480),
    Message('note_off', channel=8, note=60, velocity=95, time=0),
    Message('note_off', channel=8, note=57, velocity=95, time=0),
    Message('note_off', channel=8, note=53, velocity=95, time=0),
    Message('note_off', channel=8, note=48, velocity=95, time=0),
    Message('note_off', channel=8, note=41, velocity=95, time=0),
    Message('note_on', channel=8, note=65, velocity=95, time=0),
    Message('note_on', channel=8, note=60, velocity=95, time=0),
    Message('note_on', channel=8, note=57, velocity=95, time=0),
    Message('note_on', channel=8, note=53, velocity=95, time=0),
    Message('note_on', channel=8, note=48, velocity=95, time=0),
    Message('note_on', channel=8, note=41, velocity=95, time=0),
    Message('note_off', channel=8, note=65, velocity=95, time=480),
    Message('note_off', channel=8, note=60, velocity=95, time=0),
    Message('note_off', channel=8, note=57, velocity=95, time=0),
    Message('note_off', channel=8, note=53, velocity=95, time=0),
    Message('note_off', channel=8, note=48, velocity=95, time=0),
    Message('note_off', channel=8, note=41, velocity=95, time=0),
    Message('note_on', channel=8, note=65, velocity=95, time=0),
    Message('note_on', channel=8, note=60, velocity=95, time=0),
    Message('note_on', channel=8, note=57, velocity=95, time=0),
    Message('note_on', channel=8, note=53, velocity=95, time=0),
    Message('note_on', channel=8, note=48, velocity=95, time=0),
    Message('note_on', channel=8, note=41, velocity=95, time=0),
    Message('note_off', channel=8, note=65, velocity=95, time=480),
    Message('note_off', channel=8, note=60, velocity=95, time=0),
    Message('note_off', channel=8, note=57, velocity=95, time=0),
    Message('note_off', channel=8, note=53, velocity=95, time=0),
    Message('note_off', channel=8, note=48, velocity=95, time=0),
    Message('note_off', channel=8, note=41, velocity=95, time=0),
    Message('note_on', channel=8, note=65, velocity=95, time=0),
    Message('note_on', channel=8, note=60, velocity=95, time=0),
    Message('note_on', channel=8, note=57, velocity=95, time=0),
    Message('note_on', channel=8, note=53, velocity=95, time=0),
    Message('note_on', channel=8, note=48, velocity=95, time=0),
    Message('note_on', channel=8, note=41, velocity=95, time=0),
    Message('note_off', channel=8, note=65, velocity=95, time=480),
    Message('note_off', channel=8, note=60, velocity=95, time=0),
    Message('note_off', channel=8, note=57, velocity=95, time=0),
    Message('note_off', channel=8, note=53, velocity=95, time=0),
    Message('note_off', channel=8, note=48, velocity=95, time=0),
    Message('note_off', channel=8, note=41, velocity=95, time=0),
    Message('note_on', channel=8, note=65, velocity=95, time=0),
    Message('note_on', channel=8, note=60, velocity=95, time=0),
    Message('note_on', channel=8, note=57, velocity=95, time=0),
    Message('note_on', channel=8, note=53, velocity=95, time=0),
    Message('note_on', channel=8, note=48, velocity=95, time=0),
    Message('note_on', channel=8, note=41, velocity=95, time=0),
    Message('note_off', channel=8, note=65, velocity=95, time=480),
    Message('note_off', channel=8, note=60, velocity=95, time=0),
    Message('note_off', channel=8, note=57, velocity=95, time=0),
    Message('note_off', channel=8, note=53, velocity=95, time=0),
    Message('note_off', channel=8, note=48, velocity=95, time=0),
    Message('note_off', channel=8, note=41, velocity=95, time=0),
    Message('note_on', channel=8, note=65, velocity=95, time=0),
    Message('note_on', channel=8, note=60, velocity=95, time=0),
    Message('note_on', channel=8, note=57, velocity=95, time=0),
    Message('note_on', channel=8, note=53, velocity=95, time=0),
    Message('note_on', channel=8, note=48, velocity=95, time=0),
    Message('note_on', channel=8, note=41, velocity=95, time=0),
    Message('note_off', channel=8, note=65, velocity=95, time=480),
    Message('note_off', channel=8, note=60, velocity=95, time=0),
    Message('note_off', channel=8, note=57, velocity=95, time=0),
    Message('note_off', channel=8, note=53, velocity=95, time=0),
    Message('note_off', channel=8, note=48, velocity=95, time=0),
    Message('note_off', channel=8, note=41, velocity=95, time=0),
    Message('note_on', channel=8, note=65, velocity=95, time=0),
    Message('note_on', channel=8, note=60, velocity=95, time=0),
    Message('note_on', channel=8, note=57, velocity=95, time=0),
    Message('note_on', channel=8, note=53, velocity=95, time=0),
    Message('note_on', channel=8, note=48, velocity=95, time=0),
    Message('note_on', channel=8, note=41, velocity=95, time=0),
    Message('note_off', channel=8, note=65, velocity=95, time=480),
    Message('note_off', channel=8, note=60, velocity=95, time=0),
    Message('note_off', channel=8, note=57, velocity=95, time=0),
    Message('note_off', channel=8, note=53, velocity=95, time=0),
    Message('note_off', channel=8, note=48, velocity=95, time=0),
    Message('note_off', channel=8, note=41, velocity=95, time=0),
    Message('note_on', channel=8, note=67, velocity=95, time=0),
    Message('note_on', channel=8, note=62, velocity=95, time=0),
    Message('note_on', channel=8, note=55, velocity=95, time=0),
    Message('note_on', channel=8, note=50, velocity=95, time=0),
    Message('note_on', channel=8, note=47, velocity=95, time=0),
    Message('note_on', channel=8, note=43, velocity=95, time=0),
    Message('note_off', channel=8, note=67, velocity=95, time=480),
    Message('note_off', channel=8, note=62, velocity=95, time=0),
    Message('note_off', channel=8, note=55, velocity=95, time=0),
    Message('note_off', channel=8, note=50, velocity=95, time=0),
    Message('note_off', channel=8, note=47, velocity=95, time=0),
    Message('note_off', channel=8, note=43, velocity=95, time=0),
    Message('note_on', channel=8, note=67, velocity=95, time=0),
    Message('note_on', channel=8, note=62, velocity=95, time=0),
    Message('note_on', channel=8, note=55, velocity=95, time=0),
    Message('note_on', channel=8, note=50, velocity=95, time=0),
    Message('note_on', channel=8, note=47, velocity=95, time=0),
    Message('note_on', channel=8, note=43, velocity=95, time=0),
    Message('note_off', channel=8, note=67, velocity=95, time=960),
    Message('note_off', channel=8, note=62, velocity=95, time=0),
    Message('note_off', channel=8, note=55, velocity=95, time=0),
    Message('note_off', channel=8, note=50, velocity=95, time=0),
    Message('note_off', channel=8, note=47, velocity=95, time=0),
    Message('note_off', channel=8, note=43, velocity=95, time=0),
    Message('note_on', channel=8, note=67, velocity=95, time=0),
    Message('note_on', channel=8, note=62, velocity=95, time=0),
    Message('note_on', channel=8, note=55, velocity=95, time=0),
    Message('note_on', channel=8, note=50, velocity=95, time=0),
    Message('note_on', channel=8, note=47, velocity=95, time=0),
    Message('note_on', channel=8, note=43, velocity=95, time=0),
    Message('note_off', channel=8, note=67, velocity=95, time=960),
    Message('note_off', channel=8, note=62, velocity=95, time=0),
    Message('note_off', channel=8, note=55, velocity=95, time=0),
    Message('note_off', channel=8, note=50, velocity=95, time=0),
    Message('note_off', channel=8, note=47, velocity=95, time=0),
    Message('note_off', channel=8, note=43, velocity=95, time=0),
    Message('note_on', channel=8, note=67, velocity=95, time=0),
    Message('note_on', channel=8, note=62, velocity=95, time=0),
    Message('note_on', channel=8, note=55, velocity=95, time=0),
    Message('note_on', channel=8, note=50, velocity=95, time=0),
    Message('note_on', channel=8, note=47, velocity=95, time=0),
    Message('note_on', channel=8, note=43, velocity=95, time=0),
    Message('note_off', channel=8, note=67, velocity=95, time=480),
    Message('note_off', channel=8, note=62, velocity=95, time=0),
    Message('note_off', channel=8, note=55, velocity=95, time=0),
    Message('note_off', channel=8, note=50, velocity=95, time=0),
    Message('note_off', channel=8, note=47, velocity=95, time=0),
    Message('note_off', channel=8, note=43, velocity=95, time=0),
    Message('note_on', channel=8, note=67, velocity=95, time=0),
    Message('note_on', channel=8, note=62, velocity=95, time=0),
    Message('note_on', channel=8, note=55, velocity=95, time=0),
    Message('note_on', channel=8, note=50, velocity=95, time=0),
    Message('note_on', channel=8, note=47, velocity=95, time=0),
    Message('note_on', channel=8, note=43, velocity=95, time=0),
    Message('note_off', channel=8, note=67, velocity=95, time=480),
    Message('note_off', channel=8, note=62, velocity=95, time=0),
    Message('note_off', channel=8, note=55, velocity=95, time=0),
    Message('note_off', channel=8, note=50, velocity=95, time=0),
    Message('note_off', channel=8, note=47, velocity=95, time=0),
    Message('note_off', channel=8, note=43, velocity=95, time=0),
    Message('note_on', channel=8, note=67, velocity=95, time=0),
    Message('note_on', channel=8, note=62, velocity=95, time=0),
    Message('note_on', channel=8, note=55, velocity=95, time=0),
    Message('note_on', channel=8, note=50, velocity=95, time=0),
    Message('note_on', channel=8, note=47, velocity=95, time=0),
    Message('note_on', channel=8, note=43, velocity=95, time=0),
    Message('note_off', channel=8, note=67, velocity=95, time=480),
    Message('note_off', channel=8, note=62, velocity=95, time=0),
    Message('note_off', channel=8, note=55, velocity=95, time=0),
    Message('note_off', channel=8, note=50, velocity=95, time=0),
    Message('note_off', channel=8, note=47, velocity=95, time=0),
    Message('note_off', channel=8, note=43, velocity=95, time=0),
    Message('note_on', channel=8, note=57, velocity=95, time=0),
    Message('note_on', channel=8, note=52, velocity=95, time=0),
    Message('note_on', channel=8, note=45, velocity=95, time=0),
    Message('note_off', channel=8, note=57, velocity=95, time=480),
    Message('note_off', channel=8, note=52, velocity=95, time=0),
    Message('note_off', channel=8, note=45, velocity=95, time=0),
    Message('note_on', channel=8, note=57, velocity=95, time=0),
    Message('note_on', channel=8, note=52, velocity=95, time=0),
    Message('note_on', channel=8, note=45, velocity=95, time=0),
    Message('note_off', channel=8, note=57, velocity=95, time=960),
    Message('note_off', channel=8, note=52, velocity=95, time=0),
    Message('note_off', channel=8, note=45, velocity=95, time=0),
    Message('note_on', channel=8, note=57, velocity=95, time=0),
    Message('note_on', channel=8, note=52, velocity=95, time=0),
    Message('note_on', channel=8, note=45, velocity=95, time=0),
    Message('note_off', channel=8, note=57, velocity=95, time=960),
    Message('note_off', channel=8, note=52, velocity=95, time=0),
    Message('note_off', channel=8, note=45, velocity=95, time=0),
    Message('note_on', channel=8, note=57, velocity=95, time=0),
    Message('note_on', channel=8, note=52, velocity=95, time=0),
    Message('note_on', channel=8, note=45, velocity=95, time=0),
    Message('note_off', channel=8, note=57, velocity=95, time=480),
    Message('note_off', channel=8, note=52, velocity=95, time=0),
    Message('note_off', channel=8, note=45, velocity=95, time=0),
    Message('note_on', channel=8, note=57, velocity=95, time=0),
    Message('note_on', channel=8, note=52, velocity=95, time=0),
    Message('note_on', channel=8, note=45, velocity=95, time=0),
    Message('note_off', channel=8, note=57, velocity=95, time=480),
    Message('note_off', channel=8, note=52, velocity=95, time=0),
    Message('note_off', channel=8, note=45, velocity=95, time=0),
    Message('note_on', channel=8, note=57, velocity=95, time=0),
    Message('note_on', channel=8, note=52, velocity=95, time=0),
    Message('note_on', channel=8, note=45, velocity=95, time=0),
    Message('note_off', channel=8, note=57, velocity=95, time=480),
    Message('note_off', channel=8, note=52, velocity=95, time=0),
    Message('note_off', channel=8, note=45, velocity=95, time=0),
    Message('note_on', channel=8, note=57, velocity=95, time=0),
    Message('note_on', channel=8, note=52, velocity=95, time=0),
    Message('note_on', channel=8, note=45, velocity=95, time=0),
    Message('note_off', channel=8, note=57, velocity=95, time=480),
    Message('note_off', channel=8, note=52, velocity=95, time=0),
    Message('note_off', channel=8, note=45, velocity=95, time=0),
    Message('note_on', channel=8, note=57, velocity=95, time=0),
    Message('note_on', channel=8, note=52, velocity=95, time=0),
    Message('note_on', channel=8, note=45, velocity=95, time=0),
    Message('note_off', channel=8, note=57, velocity=95, time=960),
    Message('note_off', channel=8, note=52, velocity=95, time=0),
    Message('note_off', channel=8, note=45, velocity=95, time=0),
    Message('note_on', channel=8, note=57, velocity=95, time=0),
    Message('note_on', channel=8, note=52, velocity=95, time=0),
    Message('note_on', channel=8, note=45, velocity=95, time=0),
    Message('note_off', channel=8, note=57, velocity=95, time=960),
    Message('note_off', channel=8, note=52, velocity=95, time=0),
    Message('note_off', channel=8, note=45, velocity=95, time=0),
    Message('note_on', channel=8, note=57, velocity=95, time=0),
    Message('note_on', channel=8, note=52, velocity=95, time=0),
    Message('note_on', channel=8, note=45, velocity=95, time=0),
    Message('note_off', channel=8, note=57, velocity=95, time=480),
    Message('note_off', channel=8, note=52, velocity=95, time=0),
    Message('note_off', channel=8, note=45, velocity=95, time=0),
    Message('note_on', channel=8, note=57, velocity=95, time=0),
    Message('note_on', channel=8, note=52, velocity=95, time=0),
    Message('note_on', channel=8, note=45, velocity=95, time=0),
    Message('note_off', channel=8, note=57, velocity=95, time=480),
    Message('note_off', channel=8, note=52, velocity=95, time=0),
    Message('note_off', channel=8, note=45, velocity=95, time=0),
    Message('note_on', channel=8, note=57, velocity=95, time=0),
    Message('note_on', channel=8, note=52, velocity=95, time=0),
    Message('note_on', channel=8, note=45, velocity=95, time=0),
    Message('note_off', channel=8, note=57, velocity=95, time=480),
    Message('note_off', channel=8, note=52, velocity=95, time=0),
    Message('note_off', channel=8, note=45, velocity=95, time=0),
    Message('note_on', channel=8, note=65, velocity=95, time=0),
    Message('note_on', channel=8, note=60, velocity=95, time=0),
    Message('note_on', channel=8, note=57, velocity=95, time=0),
    Message('note_on', channel=8, note=53, velocity=95, time=0),
    Message('note_on', channel=8, note=48, velocity=95, time=0),
    Message('note_on', channel=8, note=41, velocity=95, time=0),
    Message('note_off', channel=8, note=65, velocity=95, time=480),
    Message('note_off', channel=8, note=60, velocity=95, time=0),
    Message('note_off', channel=8, note=57, velocity=95, time=0),
    Message('note_off', channel=8, note=53, velocity=95, time=0),
    Message('note_off', channel=8, note=48, velocity=95, time=0),
    Message('note_off', channel=8, note=41, velocity=95, time=0),
    Message('note_on', channel=8, note=65, velocity=95, time=0),
    Message('note_on', channel=8, note=60, velocity=95, time=0),
    Message('note_on', channel=8, note=57, velocity=95, time=0),
    Message('note_on', channel=8, note=53, velocity=95, time=0),
    Message('note_on', channel=8, note=48, velocity=95, time=0),
    Message('note_on', channel=8, note=41, velocity=95, time=0),
    Message('note_off', channel=8, note=65, velocity=95, time=480),
    Message('note_off', channel=8, note=60, velocity=95, time=0),
    Message('note_off', channel=8, note=57, velocity=95, time=0),
    Message('note_off', channel=8, note=53, velocity=95, time=0),
    Message('note_off', channel=8, note=48, velocity=95, time=0),
    Message('note_off', channel=8, note=41, velocity=95, time=0),
    Message('note_on', channel=8, note=65, velocity=95, time=0),
    Message('note_on', channel=8, note=60, velocity=95, time=0),
    Message('note_on', channel=8, note=57, velocity=95, time=0),
    Message('note_on', channel=8, note=53, velocity=95, time=0),
    Message('note_on', channel=8, note=48, velocity=95, time=0),
    Message('note_on', channel=8, note=41, velocity=95, time=0),
    Message('note_off', channel=8, note=65, velocity=95, time=480),
    Message('note_off', channel=8, note=60, velocity=95, time=0),
    Message('note_off', channel=8, note=57, velocity=95, time=0),
    Message('note_off', channel=8, note=53, velocity=95, time=0),
    Message('note_off', channel=8, note=48, velocity=95, time=0),
    Message('note_off', channel=8, note=41, velocity=95, time=0),
    Message('note_on', channel=8, note=65, velocity=95, time=0),
    Message('note_on', channel=8, note=60, velocity=95, time=0),
    Message('note_on', channel=8, note=57, velocity=95, time=0),
    Message('note_on', channel=8, note=53, velocity=95, time=0),
    Message('note_on', channel=8, note=48, velocity=95, time=0),
    Message('note_on', channel=8, note=41, velocity=95, time=0),
    Message('note_off', channel=8, note=65, velocity=95, time=480),
    Message('note_off', channel=8, note=60, velocity=95, time=0),
    Message('note_off', channel=8, note=57, velocity=95, time=0),
    Message('note_off', channel=8, note=53, velocity=95, time=0),
    Message('note_off', channel=8, note=48, velocity=95, time=0),
    Message('note_off', channel=8, note=41, velocity=95, time=0),
    Message('note_on', channel=8, note=65, velocity=95, time=0),
    Message('note_on', channel=8, note=60, velocity=95, time=0),
    Message('note_on', channel=8, note=57, velocity=95, time=0),
    Message('note_on', channel=8, note=53, velocity=95, time=0),
    Message('note_on', channel=8, note=48, velocity=95, time=0),
    Message('note_on', channel=8, note=41, velocity=95, time=0),
    Message('note_off', channel=8, note=65, velocity=95, time=480),
    Message('note_off', channel=8, note=60, velocity=95, time=0),
    Message('note_off', channel=8, note=57, velocity=95, time=0),
    Message('note_off', channel=8, note=53, velocity=95, time=0),
    Message('note_off', channel=8, note=48, velocity=95, time=0),
    Message('note_off', channel=8, note=41, velocity=95, time=0),
    Message('note_on', channel=8, note=65, velocity=95, time=0),
    Message('note_on', channel=8, note=60, velocity=95, time=0),
    Message('note_on', channel=8, note=57, velocity=95, time=0),
    Message('note_on', channel=8, note=53, velocity=95, time=0),
    Message('note_on', channel=8, note=48, velocity=95, time=0),
    Message('note_on', channel=8, note=41, velocity=95, time=0),
    Message('note_off', channel=8, note=65, velocity=95, time=480),
    Message('note_off', channel=8, note=60, velocity=95, time=0),
    Message('note_off', channel=8, note=57, velocity=95, time=0),
    Message('note_off', channel=8, note=53, velocity=95, time=0),
    Message('note_off', channel=8, note=48, velocity=95, time=0),
    Message('note_off', channel=8, note=41, velocity=95, time=0),
    Message('note_on', channel=8, note=65, velocity=95, time=0),
    Message('note_on', channel=8, note=60, velocity=95, time=0),
    Message('note_on', channel=8, note=57, velocity=95, time=0),
    Message('note_on', channel=8, note=53, velocity=95, time=0),
    Message('note_on', channel=8, note=48, velocity=95, time=0),
    Message('note_on', channel=8, note=41, velocity=95, time=0),
    Message('note_off', channel=8, note=65, velocity=95, time=480),
    Message('note_off', channel=8, note=60, velocity=95, time=0),
    Message('note_off', channel=8, note=57, velocity=95, time=0),
    Message('note_off', channel=8, note=53, velocity=95, time=0),
    Message('note_off', channel=8, note=48, velocity=95, time=0),
    Message('note_off', channel=8, note=41, velocity=95, time=0),
    Message('note_on', channel=8, note=65, velocity=95, time=0),
    Message('note_on', channel=8, note=60, velocity=95, time=0),
    Message('note_on', channel=8, note=57, velocity=95, time=0),
    Message('note_on', channel=8, note=53, velocity=95, time=0),
    Message('note_on', channel=8, note=48, velocity=95, time=0),
    Message('note_on', channel=8, note=41, velocity=95, time=0),
    Message('note_off', channel=8, note=65, velocity=95, time=480),
    Message('note_off', channel=8, note=60, velocity=95, time=0),
    Message('note_off', channel=8, note=57, velocity=95, time=0),
    Message('note_off', channel=8, note=53, velocity=95, time=0),
    Message('note_off', channel=8, note=48, velocity=95, time=0),
    Message('note_off', channel=8, note=41, velocity=95, time=0),
    Message('note_on', channel=8, note=67, velocity=95, time=0),
    Message('note_on', channel=8, note=62, velocity=95, time=0),
    Message('note_on', channel=8, note=55, velocity=95, time=0),
    Message('note_on', channel=8, note=50, velocity=95, time=0),
    Message('note_on', channel=8, note=47, velocity=95, time=0),
    Message('note_on', channel=8, note=43, velocity=95, time=0),
    Message('note_off', channel=8, note=67, velocity=95, time=480),
    Message('note_off', channel=8, note=62, velocity=95, time=0),
    Message('note_off', channel=8, note=55, velocity=95, time=0),
    Message('note_off', channel=8, note=50, velocity=95, time=0),
    Message('note_off', channel=8, note=47, velocity=95, time=0),
    Message('note_off', channel=8, note=43, velocity=95, time=0),
    Message('note_on', channel=8, note=67, velocity=95, time=0),
    Message('note_on', channel=8, note=62, velocity=95, time=0),
    Message('note_on', channel=8, note=55, velocity=95, time=0),
    Message('note_on', channel=8, note=50, velocity=95, time=0),
    Message('note_on', channel=8, note=47, velocity=95, time=0),
    Message('note_on', channel=8, note=43, velocity=95, time=0),
    Message('note_off', channel=8, note=67, velocity=95, time=960),
    Message('note_off', channel=8, note=62, velocity=95, time=0),
    Message('note_off', channel=8, note=55, velocity=95, time=0),
    Message('note_off', channel=8, note=50, velocity=95, time=0),
    Message('note_off', channel=8, note=47, velocity=95, time=0),
    Message('note_off', channel=8, note=43, velocity=95, time=0),
    Message('note_on', channel=8, note=67, velocity=95, time=0),
    Message('note_on', channel=8, note=62, velocity=95, time=0),
    Message('note_on', channel=8, note=55, velocity=95, time=0),
    Message('note_on', channel=8, note=50, velocity=95, time=0),
    Message('note_on', channel=8, note=47, velocity=95, time=0),
    Message('note_on', channel=8, note=43, velocity=95, time=0),
    Message('note_off', channel=8, note=67, velocity=95, time=960),
    Message('note_off', channel=8, note=62, velocity=95, time=0),
    Message('note_off', channel=8, note=55, velocity=95, time=0),
    Message('note_off', channel=8, note=50, velocity=95, time=0),
    Message('note_off', channel=8, note=47, velocity=95, time=0),
    Message('note_off', channel=8, note=43, velocity=95, time=0),
    Message('note_on', channel=8, note=67, velocity=95, time=0),
    Message('note_on', channel=8, note=62, velocity=95, time=0),
    Message('note_on', channel=8, note=55, velocity=95, time=0),
    Message('note_on', channel=8, note=50, velocity=95, time=0),
    Message('note_on', channel=8, note=47, velocity=95, time=0),
    Message('note_on', channel=8, note=43, velocity=95, time=0),
    Message('note_off', channel=8, note=67, velocity=95, time=480),
    Message('note_off', channel=8, note=62, velocity=95, time=0),
    Message('note_off', channel=8, note=55, velocity=95, time=0),
    Message('note_off', channel=8, note=50, velocity=95, time=0),
    Message('note_off', channel=8, note=47, velocity=95, time=0),
    Message('note_off', channel=8, note=43, velocity=95, time=0),
    Message('note_on', channel=8, note=67, velocity=95, time=0),
    Message('note_on', channel=8, note=62, velocity=95, time=0),
    Message('note_on', channel=8, note=55, velocity=95, time=0),
    Message('note_on', channel=8, note=50, velocity=95, time=0),
    Message('note_on', channel=8, note=47, velocity=95, time=0),
    Message('note_on', channel=8, note=43, velocity=95, time=0),
    Message('note_off', channel=8, note=67, velocity=95, time=480),
    Message('note_off', channel=8, note=62, velocity=95, time=0),
    Message('note_off', channel=8, note=55, velocity=95, time=0),
    Message('note_off', channel=8, note=50, velocity=95, time=0),
    Message('note_off', channel=8, note=47, velocity=95, time=0),
    Message('note_off', channel=8, note=43, velocity=95, time=0),
    Message('note_on', channel=8, note=67, velocity=95, time=0),
    Message('note_on', channel=8, note=62, velocity=95, time=0),
    Message('note_on', channel=8, note=55, velocity=95, time=0),
    Message('note_on', channel=8, note=50, velocity=95, time=0),
    Message('note_on', channel=8, note=47, velocity=95, time=0),
    Message('note_on', channel=8, note=43, velocity=95, time=0),
    Message('note_off', channel=8, note=67, velocity=95, time=480),
    Message('note_off', channel=8, note=62, velocity=95, time=0),
    Message('note_off', channel=8, note=55, velocity=95, time=0),
    Message('note_off', channel=8, note=50, velocity=95, time=0),
    Message('note_off', channel=8, note=47, velocity=95, time=0),
    Message('note_off', channel=8, note=43, velocity=95, time=0),
    Message('note_on', channel=8, note=57, velocity=95, time=0),
    Message('note_on', channel=8, note=52, velocity=95, time=0),
    Message('note_on', channel=8, note=45, velocity=95, time=0),
    Message('note_off', channel=8, note=57, velocity=95, time=480),
    Message('note_off', channel=8, note=52, velocity=95, time=0),
    Message('note_off', channel=8, note=45, velocity=95, time=0),
    Message('note_on', channel=8, note=57, velocity=95, time=0),
    Message('note_on', channel=8, note=52, velocity=95, time=0),
    Message('note_on', channel=8, note=45, velocity=95, time=0),
    Message('note_off', channel=8, note=57, velocity=95, time=960),
    Message('note_off', channel=8, note=52, velocity=95, time=0),
    Message('note_off', channel=8, note=45, velocity=95, time=0),
    Message('note_on', channel=8, note=57, velocity=95, time=0),
    Message('note_on', channel=8, note=52, velocity=95, time=0),
    Message('note_on', channel=8, note=45, velocity=95, time=0),
    Message('note_off', channel=8, note=57, velocity=95, time=960),
    Message('note_off', channel=8, note=52, velocity=95, time=0),
    Message('note_off', channel=8, note=45, velocity=95, time=0),
    Message('note_on', channel=8, note=57, velocity=95, time=0),
    Message('note_on', channel=8, note=52, velocity=95, time=0),
    Message('note_on', channel=8, note=45, velocity=95, time=0),
    Message('note_off', channel=8, note=57, velocity=95, time=480),
    Message('note_off', channel=8, note=52, velocity=95, time=0),
    Message('note_off', channel=8, note=45, velocity=95, time=0),
    Message('note_on', channel=8, note=57, velocity=95, time=0),
    Message('note_on', channel=8, note=52, velocity=95, time=0),
    Message('note_on', channel=8, note=45, velocity=95, time=0),
    Message('note_off', channel=8, note=57, velocity=95, time=480),
    Message('note_off', channel=8, note=52, velocity=95, time=0),
    Message('note_off', channel=8, note=45, velocity=95, time=0),
    Message('note_on', channel=8, note=57, velocity=95, time=0),
    Message('note_on', channel=8, note=52, velocity=95, time=0),
    Message('note_on', channel=8, note=45, velocity=95, time=0),
    Message('note_off', channel=8, note=57, velocity=95, time=480),
    Message('note_off', channel=8, note=52, velocity=95, time=0),
    Message('note_off', channel=8, note=45, velocity=95, time=0),
    Message('note_on', channel=8, note=57, velocity=95, time=0),
    Message('note_on', channel=8, note=52, velocity=95, time=0),
    Message('note_on', channel=8, note=45, velocity=95, time=0),
    Message('note_off', channel=8, note=57, velocity=95, time=480),
    Message('note_off', channel=8, note=52, velocity=95, time=0),
    Message('note_off', channel=8, note=45, velocity=95, time=0),
    Message('note_on', channel=8, note=57, velocity=95, time=0),
    Message('note_on', channel=8, note=52, velocity=95, time=0),
    Message('note_on', channel=8, note=45, velocity=95, time=0),
    Message('note_off', channel=8, note=57, velocity=95, time=960),
    Message('note_off', channel=8, note=52, velocity=95, time=0),
    Message('note_off', channel=8, note=45, velocity=95, time=0),
    Message('note_on', channel=8, note=57, velocity=95, time=0),
    Message('note_on', channel=8, note=52, velocity=95, time=0),
    Message('note_on', channel=8, note=45, velocity=95, time=0),
    Message('note_off', channel=8, note=57, velocity=95, time=960),
    Message('note_off', channel=8, note=52, velocity=95, time=0),
    Message('note_off', channel=8, note=45, velocity=95, time=0),
    Message('note_on', channel=8, note=57, velocity=95, time=0),
    Message('note_on', channel=8, note=52, velocity=95, time=0),
    Message('note_on', channel=8, note=45, velocity=95, time=0),
    Message('note_off', channel=8, note=57, velocity=95, time=480),
    Message('note_off', channel=8, note=52, velocity=95, time=0),
    Message('note_off', channel=8, note=45, velocity=95, time=0),
    Message('note_on', channel=8, note=57, velocity=95, time=0),
    Message('note_on', channel=8, note=52, velocity=95, time=0),
    Message('note_on', channel=8, note=45, velocity=95, time=0),
    Message('note_off', channel=8, note=57, velocity=95, time=480),
    Message('note_off', channel=8, note=52, velocity=95, time=0),
    Message('note_off', channel=8, note=45, velocity=95, time=0),
    Message('note_on', channel=8, note=57, velocity=95, time=0),
    Message('note_on', channel=8, note=52, velocity=95, time=0),
    Message('note_on', channel=8, note=45, velocity=95, time=0),
    Message('note_off', channel=8, note=57, velocity=95, time=480),
    Message('note_off', channel=8, note=52, velocity=95, time=0),
    Message('note_off', channel=8, note=45, velocity=95, time=0),
    Message('note_on', channel=8, note=65, velocity=95, time=0),
    Message('note_on', channel=8, note=60, velocity=95, time=0),
    Message('note_on', channel=8, note=57, velocity=95, time=0),
    Message('note_on', channel=8, note=53, velocity=95, time=0),
    Message('note_on', channel=8, note=48, velocity=95, time=0),
    Message('note_on', channel=8, note=41, velocity=95, time=0),
    Message('note_off', channel=8, note=65, velocity=95, time=480),
    Message('note_off', channel=8, note=60, velocity=95, time=0),
    Message('note_off', channel=8, note=57, velocity=95, time=0),
    Message('note_off', channel=8, note=53, velocity=95, time=0),
    Message('note_off', channel=8, note=48, velocity=95, time=0),
    Message('note_off', channel=8, note=41, velocity=95, time=0),
    Message('note_on', channel=8, note=65, velocity=95, time=0),
    Message('note_on', channel=8, note=60, velocity=95, time=0),
    Message('note_on', channel=8, note=57, velocity=95, time=0),
    Message('note_on', channel=8, note=53, velocity=95, time=0),
    Message('note_on', channel=8, note=48, velocity=95, time=0),
    Message('note_on', channel=8, note=41, velocity=95, time=0),
    Message('note_off', channel=8, note=65, velocity=95, time=480),
    Message('note_off', channel=8, note=60, velocity=95, time=0),
    Message('note_off', channel=8, note=57, velocity=95, time=0),
    Message('note_off', channel=8, note=53, velocity=95, time=0),
    Message('note_off', channel=8, note=48, velocity=95, time=0),
    Message('note_off', channel=8, note=41, velocity=95, time=0),
    Message('note_on', channel=8, note=65, velocity=95, time=0),
    Message('note_on', channel=8, note=60, velocity=95, time=0),
    Message('note_on', channel=8, note=57, velocity=95, time=0),
    Message('note_on', channel=8, note=53, velocity=95, time=0),
    Message('note_on', channel=8, note=48, velocity=95, time=0),
    Message('note_on', channel=8, note=41, velocity=95, time=0),
    Message('note_off', channel=8, note=65, velocity=95, time=480),
    Message('note_off', channel=8, note=60, velocity=95, time=0),
    Message('note_off', channel=8, note=57, velocity=95, time=0),
    Message('note_off', channel=8, note=53, velocity=95, time=0),
    Message('note_off', channel=8, note=48, velocity=95, time=0),
    Message('note_off', channel=8, note=41, velocity=95, time=0),
    Message('note_on', channel=8, note=65, velocity=95, time=0),
    Message('note_on', channel=8, note=60, velocity=95, time=0),
    Message('note_on', channel=8, note=57, velocity=95, time=0),
    Message('note_on', channel=8, note=53, velocity=95, time=0),
    Message('note_on', channel=8, note=48, velocity=95, time=0),
    Message('note_on', channel=8, note=41, velocity=95, time=0),
    Message('note_off', channel=8, note=65, velocity=95, time=480),
    Message('note_off', channel=8, note=60, velocity=95, time=0),
    Message('note_off', channel=8, note=57, velocity=95, time=0),
    Message('note_off', channel=8, note=53, velocity=95, time=0),
    Message('note_off', channel=8, note=48, velocity=95, time=0),
    Message('note_off', channel=8, note=41, velocity=95, time=0),
    Message('note_on', channel=8, note=65, velocity=95, time=0),
    Message('note_on', channel=8, note=60, velocity=95, time=0),
    Message('note_on', channel=8, note=57, velocity=95, time=0),
    Message('note_on', channel=8, note=53, velocity=95, time=0),
    Message('note_on', channel=8, note=48, velocity=95, time=0),
    Message('note_on', channel=8, note=41, velocity=95, time=0),
    Message('note_off', channel=8, note=65, velocity=95, time=480),
    Message('note_off', channel=8, note=60, velocity=95, time=0),
    Message('note_off', channel=8, note=57, velocity=95, time=0),
    Message('note_off', channel=8, note=53, velocity=95, time=0),
    Message('note_off', channel=8, note=48, velocity=95, time=0),
    Message('note_off', channel=8, note=41, velocity=95, time=0),
    Message('note_on', channel=8, note=65, velocity=95, time=0),
    Message('note_on', channel=8, note=60, velocity=95, time=0),
    Message('note_on', channel=8, note=57, velocity=95, time=0),
    Message('note_on', channel=8, note=53, velocity=95, time=0),
    Message('note_on', channel=8, note=48, velocity=95, time=0),
    Message('note_on', channel=8, note=41, velocity=95, time=0),
    Message('note_off', channel=8, note=65, velocity=95, time=480),
    Message('note_off', channel=8, note=60, velocity=95, time=0),
    Message('note_off', channel=8, note=57, velocity=95, time=0),
    Message('note_off', channel=8, note=53, velocity=95, time=0),
    Message('note_off', channel=8, note=48, velocity=95, time=0),
    Message('note_off', channel=8, note=41, velocity=95, time=0),
    Message('note_on', channel=8, note=65, velocity=95, time=0),
    Message('note_on', channel=8, note=60, velocity=95, time=0),
    Message('note_on', channel=8, note=57, velocity=95, time=0),
    Message('note_on', channel=8, note=53, velocity=95, time=0),
    Message('note_on', channel=8, note=48, velocity=95, time=0),
    Message('note_on', channel=8, note=41, velocity=95, time=0),
    Message('note_off', channel=8, note=65, velocity=95, time=480),
    Message('note_off', channel=8, note=60, velocity=95, time=0),
    Message('note_off', channel=8, note=57, velocity=95, time=0),
    Message('note_off', channel=8, note=53, velocity=95, time=0),
    Message('note_off', channel=8, note=48, velocity=95, time=0),
    Message('note_off', channel=8, note=41, velocity=95, time=0),
    Message('note_on', channel=8, note=65, velocity=95, time=0),
    Message('note_on', channel=8, note=60, velocity=95, time=0),
    Message('note_on', channel=8, note=57, velocity=95, time=0),
    Message('note_on', channel=8, note=53, velocity=95, time=0),
    Message('note_on', channel=8, note=48, velocity=95, time=0),
    Message('note_on', channel=8, note=41, velocity=95, time=0),
    Message('note_off', channel=8, note=65, velocity=95, time=480),
    Message('note_off', channel=8, note=60, velocity=95, time=0),
    Message('note_off', channel=8, note=57, velocity=95, time=0),
    Message('note_off', channel=8, note=53, velocity=95, time=0),
    Message('note_off', channel=8, note=48, velocity=95, time=0),
    Message('note_off', channel=8, note=41, velocity=95, time=0),
    Message('note_on', channel=8, note=67, velocity=95, time=0),
    Message('note_on', channel=8, note=62, velocity=95, time=0),
    Message('note_on', channel=8, note=55, velocity=95, time=0),
    Message('note_on', channel=8, note=50, velocity=95, time=0),
    Message('note_on', channel=8, note=47, velocity=95, time=0),
    Message('note_on', channel=8, note=43, velocity=95, time=0),
    Message('note_off', channel=8, note=67, velocity=95, time=480),
    Message('note_off', channel=8, note=62, velocity=95, time=0),
    Message('note_off', channel=8, note=55, velocity=95, time=0),
    Message('note_off', channel=8, note=50, velocity=95, time=0),
    Message('note_off', channel=8, note=47, velocity=95, time=0),
    Message('note_off', channel=8, note=43, velocity=95, time=0),
    Message('note_on', channel=8, note=67, velocity=95, time=0),
    Message('note_on', channel=8, note=62, velocity=95, time=0),
    Message('note_on', channel=8, note=55, velocity=95, time=0),
    Message('note_on', channel=8, note=50, velocity=95, time=0),
    Message('note_on', channel=8, note=47, velocity=95, time=0),
    Message('note_on', channel=8, note=43, velocity=95, time=0),
    Message('note_off', channel=8, note=67, velocity=95, time=960),
    Message('note_off', channel=8, note=62, velocity=95, time=0),
    Message('note_off', channel=8, note=55, velocity=95, time=0),
    Message('note_off', channel=8, note=50, velocity=95, time=0),
    Message('note_off', channel=8, note=47, velocity=95, time=0),
    Message('note_off', channel=8, note=43, velocity=95, time=0),
    Message('note_on', channel=8, note=67, velocity=95, time=0),
    Message('note_on', channel=8, note=62, velocity=95, time=0),
    Message('note_on', channel=8, note=55, velocity=95, time=0),
    Message('note_on', channel=8, note=50, velocity=95, time=0),
    Message('note_on', channel=8, note=47, velocity=95, time=0),
    Message('note_on', channel=8, note=43, velocity=95, time=0),
    Message('note_off', channel=8, note=67, velocity=95, time=960),
    Message('note_off', channel=8, note=62, velocity=95, time=0),
    Message('note_off', channel=8, note=55, velocity=95, time=0),
    Message('note_off', channel=8, note=50, velocity=95, time=0),
    Message('note_off', channel=8, note=47, velocity=95, time=0),
    Message('note_off', channel=8, note=43, velocity=95, time=0),
    Message('note_on', channel=8, note=67, velocity=95, time=0),
    Message('note_on', channel=8, note=62, velocity=95, time=0),
    Message('note_on', channel=8, note=55, velocity=95, time=0),
    Message('note_on', channel=8, note=50, velocity=95, time=0),
    Message('note_on', channel=8, note=47, velocity=95, time=0),
    Message('note_on', channel=8, note=43, velocity=95, time=0),
    Message('note_off', channel=8, note=67, velocity=95, time=480),
    Message('note_off', channel=8, note=62, velocity=95, time=0),
    Message('note_off', channel=8, note=55, velocity=95, time=0),
    Message('note_off', channel=8, note=50, velocity=95, time=0),
    Message('note_off', channel=8, note=47, velocity=95, time=0),
    Message('note_off', channel=8, note=43, velocity=95, time=0),
    Message('note_on', channel=8, note=67, velocity=95, time=0),
    Message('note_on', channel=8, note=62, velocity=95, time=0),
    Message('note_on', channel=8, note=55, velocity=95, time=0),
    Message('note_on', channel=8, note=50, velocity=95, time=0),
    Message('note_on', channel=8, note=47, velocity=95, time=0),
    Message('note_on', channel=8, note=43, velocity=95, time=0),
    Message('note_off', channel=8, note=67, velocity=95, time=480),
    Message('note_off', channel=8, note=62, velocity=95, time=0),
    Message('note_off', channel=8, note=55, velocity=95, time=0),
    Message('note_off', channel=8, note=50, velocity=95, time=0),
    Message('note_off', channel=8, note=47, velocity=95, time=0),
    Message('note_off', channel=8, note=43, velocity=95, time=0),
    Message('note_on', channel=8, note=67, velocity=95, time=0),
    Message('note_on', channel=8, note=62, velocity=95, time=0),
    Message('note_on', channel=8, note=55, velocity=95, time=0),
    Message('note_on', channel=8, note=50, velocity=95, time=0),
    Message('note_on', channel=8, note=47, velocity=95, time=0),
    Message('note_on', channel=8, note=43, velocity=95, time=0),
    Message('note_off', channel=8, note=67, velocity=95, time=480),
    Message('note_off', channel=8, note=62, velocity=95, time=0),
    Message('note_off', channel=8, note=55, velocity=95, time=0),
    Message('note_off', channel=8, note=50, velocity=95, time=0),
    Message('note_off', channel=8, note=47, velocity=95, time=0),
    Message('note_off', channel=8, note=43, velocity=95, time=0),
    Message('note_on', channel=8, note=57, velocity=95, time=0),
    Message('note_on', channel=8, note=52, velocity=95, time=0),
    Message('note_on', channel=8, note=45, velocity=95, time=0),
    Message('note_off', channel=8, note=57, velocity=95, time=480),
    Message('note_off', channel=8, note=52, velocity=95, time=0),
    Message('note_off', channel=8, note=45, velocity=95, time=0),
    Message('note_on', channel=8, note=57, velocity=95, time=0),
    Message('note_on', channel=8, note=52, velocity=95, time=0),
    Message('note_on', channel=8, note=45, velocity=95, time=0),
    Message('note_off', channel=8, note=57, velocity=95, time=960),
    Message('note_off', channel=8, note=52, velocity=95, time=0),
    Message('note_off', channel=8, note=45, velocity=95, time=0),
    Message('note_on', channel=8, note=57, velocity=95, time=0),
    Message('note_on', channel=8, note=52, velocity=95, time=0),
    Message('note_on', channel=8, note=45, velocity=95, time=0),
    Message('note_off', channel=8, note=57, velocity=95, time=960),
    Message('note_off', channel=8, note=52, velocity=95, time=0),
    Message('note_off', channel=8, note=45, velocity=95, time=0),
    Message('note_on', channel=8, note=57, velocity=95, time=0),
    Message('note_on', channel=8, note=52, velocity=95, time=0),
    Message('note_on', channel=8, note=45, velocity=95, time=0),
    Message('note_off', channel=8, note=57, velocity=95, time=480),
    Message('note_off', channel=8, note=52, velocity=95, time=0),
    Message('note_off', channel=8, note=45, velocity=95, time=0),
    Message('note_on', channel=8, note=57, velocity=95, time=0),
    Message('note_on', channel=8, note=52, velocity=95, time=0),
    Message('note_on', channel=8, note=45, velocity=95, time=0),
    Message('note_off', channel=8, note=57, velocity=95, time=480),
    Message('note_off', channel=8, note=52, velocity=95, time=0),
    Message('note_off', channel=8, note=45, velocity=95, time=0),
    Message('note_on', channel=8, note=57, velocity=95, time=0),
    Message('note_on', channel=8, note=52, velocity=95, time=0),
    Message('note_on', channel=8, note=45, velocity=95, time=0),
    Message('note_off', channel=8, note=57, velocity=95, time=480),
    Message('note_off', channel=8, note=52, velocity=95, time=0),
    Message('note_off', channel=8, note=45, velocity=95, time=0),
    Message('note_on', channel=8, note=57, velocity=95, time=0),
    Message('note_on', channel=8, note=52, velocity=95, time=0),
    Message('note_on', channel=8, note=45, velocity=95, time=0),
    Message('note_off', channel=8, note=57, velocity=95, time=480),
    Message('note_off', channel=8, note=52, velocity=95, time=0),
    Message('note_off', channel=8, note=45, velocity=95, time=0),
    Message('note_on', channel=8, note=57, velocity=95, time=0),
    Message('note_on', channel=8, note=52, velocity=95, time=0),
    Message('note_on', channel=8, note=45, velocity=95, time=0),
    Message('note_off', channel=8, note=57, velocity=95, time=960),
    Message('note_off', channel=8, note=52, velocity=95, time=0),
    Message('note_off', channel=8, note=45, velocity=95, time=0),
    Message('note_on', channel=8, note=57, velocity=95, time=0),
    Message('note_on', channel=8, note=52, velocity=95, time=0),
    Message('note_on', channel=8, note=45, velocity=95, time=0),
    Message('note_off', channel=8, note=57, velocity=95, time=960),
    Message('note_off', channel=8, note=52, velocity=95, time=0),
    Message('note_off', channel=8, note=45, velocity=95, time=0),
    Message('note_on', channel=8, note=57, velocity=95, time=0),
    Message('note_on', channel=8, note=52, velocity=95, time=0),
    Message('note_on', channel=8, note=45, velocity=95, time=0),
    Message('note_off', channel=8, note=57, velocity=95, time=480),
    Message('note_off', channel=8, note=52, velocity=95, time=0),
    Message('note_off', channel=8, note=45, velocity=95, time=0),
    Message('note_on', channel=8, note=57, velocity=95, time=0),
    Message('note_on', channel=8, note=52, velocity=95, time=0),
    Message('note_on', channel=8, note=45, velocity=95, time=0),
    Message('note_off', channel=8, note=57, velocity=95, time=480),
    Message('note_off', channel=8, note=52, velocity=95, time=0),
    Message('note_off', channel=8, note=45, velocity=95, time=0),
    Message('note_on', channel=8, note=57, velocity=95, time=0),
    Message('note_on', channel=8, note=52, velocity=95, time=0),
    Message('note_on', channel=8, note=45, velocity=95, time=0),
    Message('note_off', channel=8, note=57, velocity=95, time=480),
    Message('note_off', channel=8, note=52, velocity=95, time=0),
    Message('note_off', channel=8, note=45, velocity=95, time=0),
    Message('note_on', channel=8, note=65, velocity=95, time=0),
    Message('note_on', channel=8, note=60, velocity=95, time=0),
    Message('note_on', channel=8, note=57, velocity=95, time=0),
    Message('note_on', channel=8, note=53, velocity=95, time=0),
    Message('note_on', channel=8, note=48, velocity=95, time=0),
    Message('note_on', channel=8, note=41, velocity=95, time=0),
    Message('note_off', channel=8, note=65, velocity=95, time=480),
    Message('note_off', channel=8, note=60, velocity=95, time=0),
    Message('note_off', channel=8, note=57, velocity=95, time=0),
    Message('note_off', channel=8, note=53, velocity=95, time=0),
    Message('note_off', channel=8, note=48, velocity=95, time=0),
    Message('note_off', channel=8, note=41, velocity=95, time=0),
    Message('note_on', channel=8, note=65, velocity=95, time=0),
    Message('note_on', channel=8, note=60, velocity=95, time=0),
    Message('note_on', channel=8, note=57, velocity=95, time=0),
    Message('note_on', channel=8, note=53, velocity=95, time=0),
    Message('note_on', channel=8, note=48, velocity=95, time=0),
    Message('note_on', channel=8, note=41, velocity=95, time=0),
    Message('note_off', channel=8, note=65, velocity=95, time=480),
    Message('note_off', channel=8, note=60, velocity=95, time=0),
    Message('note_off', channel=8, note=57, velocity=95, time=0),
    Message('note_off', channel=8, note=53, velocity=95, time=0),
    Message('note_off', channel=8, note=48, velocity=95, time=0),
    Message('note_off', channel=8, note=41, velocity=95, time=0),
    Message('note_on', channel=8, note=65, velocity=95, time=0),
    Message('note_on', channel=8, note=60, velocity=95, time=0),
    Message('note_on', channel=8, note=57, velocity=95, time=0),
    Message('note_on', channel=8, note=53, velocity=95, time=0),
    Message('note_on', channel=8, note=48, velocity=95, time=0),
    Message('note_on', channel=8, note=41, velocity=95, time=0),
    Message('note_off', channel=8, note=65, velocity=95, time=480),
    Message('note_off', channel=8, note=60, velocity=95, time=0),
    Message('note_off', channel=8, note=57, velocity=95, time=0),
    Message('note_off', channel=8, note=53, velocity=95, time=0),
    Message('note_off', channel=8, note=48, velocity=95, time=0),
    Message('note_off', channel=8, note=41, velocity=95, time=0),
    Message('note_on', channel=8, note=65, velocity=95, time=0),
    Message('note_on', channel=8, note=60, velocity=95, time=0),
    Message('note_on', channel=8, note=57, velocity=95, time=0),
    Message('note_on', channel=8, note=53, velocity=95, time=0),
    Message('note_on', channel=8, note=48, velocity=95, time=0),
    Message('note_on', channel=8, note=41, velocity=95, time=0),
    Message('note_off', channel=8, note=65, velocity=95, time=480),
    Message('note_off', channel=8, note=60, velocity=95, time=0),
    Message('note_off', channel=8, note=57, velocity=95, time=0),
    Message('note_off', channel=8, note=53, velocity=95, time=0),
    Message('note_off', channel=8, note=48, velocity=95, time=0),
    Message('note_off', channel=8, note=41, velocity=95, time=0),
    Message('note_on', channel=8, note=65, velocity=95, time=0),
    Message('note_on', channel=8, note=60, velocity=95, time=0),
    Message('note_on', channel=8, note=57, velocity=95, time=0),
    Message('note_on', channel=8, note=53, velocity=95, time=0),
    Message('note_on', channel=8, note=48, velocity=95, time=0),
    Message('note_on', channel=8, note=41, velocity=95, time=0),
    Message('note_off', channel=8, note=65, velocity=95, time=480),
    Message('note_off', channel=8, note=60, velocity=95, time=0),
    Message('note_off', channel=8, note=57, velocity=95, time=0),
    Message('note_off', channel=8, note=53, velocity=95, time=0),
    Message('note_off', channel=8, note=48, velocity=95, time=0),
    Message('note_off', channel=8, note=41, velocity=95, time=0),
    Message('note_on', channel=8, note=65, velocity=95, time=0),
    Message('note_on', channel=8, note=60, velocity=95, time=0),
    Message('note_on', channel=8, note=57, velocity=95, time=0),
    Message('note_on', channel=8, note=53, velocity=95, time=0),
    Message('note_on', channel=8, note=48, velocity=95, time=0),
    Message('note_on', channel=8, note=41, velocity=95, time=0),
    Message('note_off', channel=8, note=65, velocity=95, time=480),
    Message('note_off', channel=8, note=60, velocity=95, time=0),
    Message('note_off', channel=8, note=57, velocity=95, time=0),
    Message('note_off', channel=8, note=53, velocity=95, time=0),
    Message('note_off', channel=8, note=48, velocity=95, time=0),
    Message('note_off', channel=8, note=41, velocity=95, time=0),
    Message('note_on', channel=8, note=65, velocity=95, time=0),
    Message('note_on', channel=8, note=60, velocity=95, time=0),
    Message('note_on', channel=8, note=57, velocity=95, time=0),
    Message('note_on', channel=8, note=53, velocity=95, time=0),
    Message('note_on', channel=8, note=48, velocity=95, time=0),
    Message('note_on', channel=8, note=41, velocity=95, time=0),
    Message('note_off', channel=8, note=65, velocity=95, time=480),
    Message('note_off', channel=8, note=60, velocity=95, time=0),
    Message('note_off', channel=8, note=57, velocity=95, time=0),
    Message('note_off', channel=8, note=53, velocity=95, time=0),
    Message('note_off', channel=8, note=48, velocity=95, time=0),
    Message('note_off', channel=8, note=41, velocity=95, time=0),
    Message('note_on', channel=8, note=65, velocity=95, time=0),
    Message('note_on', channel=8, note=60, velocity=95, time=0),
    Message('note_on', channel=8, note=57, velocity=95, time=0),
    Message('note_on', channel=8, note=53, velocity=95, time=0),
    Message('note_on', channel=8, note=48, velocity=95, time=0),
    Message('note_on', channel=8, note=41, velocity=95, time=0),
    Message('note_off', channel=8, note=65, velocity=95, time=480),
    Message('note_off', channel=8, note=60, velocity=95, time=0),
    Message('note_off', channel=8, note=57, velocity=95, time=0),
    Message('note_off', channel=8, note=53, velocity=95, time=0),
    Message('note_off', channel=8, note=48, velocity=95, time=0),
    Message('note_off', channel=8, note=41, velocity=95, time=0),
    Message('note_on', channel=8, note=67, velocity=95, time=0),
    Message('note_on', channel=8, note=62, velocity=95, time=0),
    Message('note_on', channel=8, note=55, velocity=95, time=0),
    Message('note_on', channel=8, note=50, velocity=95, time=0),
    Message('note_on', channel=8, note=47, velocity=95, time=0),
    Message('note_on', channel=8, note=43, velocity=95, time=0),
    Message('note_off', channel=8, note=67, velocity=95, time=480),
    Message('note_off', channel=8, note=62, velocity=95, time=0),
    Message('note_off', channel=8, note=55, velocity=95, time=0),
    Message('note_off', channel=8, note=50, velocity=95, time=0),
    Message('note_off', channel=8, note=47, velocity=95, time=0),
    Message('note_off', channel=8, note=43, velocity=95, time=0),
    Message('note_on', channel=8, note=67, velocity=95, time=0),
    Message('note_on', channel=8, note=62, velocity=95, time=0),
    Message('note_on', channel=8, note=55, velocity=95, time=0),
    Message('note_on', channel=8, note=50, velocity=95, time=0),
    Message('note_on', channel=8, note=47, velocity=95, time=0),
    Message('note_on', channel=8, note=43, velocity=95, time=0),
    Message('note_off', channel=8, note=67, velocity=95, time=960),
    Message('note_off', channel=8, note=62, velocity=95, time=0),
    Message('note_off', channel=8, note=55, velocity=95, time=0),
    Message('note_off', channel=8, note=50, velocity=95, time=0),
    Message('note_off', channel=8, note=47, velocity=95, time=0),
    Message('note_off', channel=8, note=43, velocity=95, time=0),
    Message('note_on', channel=8, note=67, velocity=95, time=0),
    Message('note_on', channel=8, note=62, velocity=95, time=0),
    Message('note_on', channel=8, note=55, velocity=95, time=0),
    Message('note_on', channel=8, note=50, velocity=95, time=0),
    Message('note_on', channel=8, note=47, velocity=95, time=0),
    Message('note_on', channel=8, note=43, velocity=95, time=0),
    Message('note_off', channel=8, note=67, velocity=95, time=960),
    Message('note_off', channel=8, note=62, velocity=95, time=0),
    Message('note_off', channel=8, note=55, velocity=95, time=0),
    Message('note_off', channel=8, note=50, velocity=95, time=0),
    Message('note_off', channel=8, note=47, velocity=95, time=0),
    Message('note_off', channel=8, note=43, velocity=95, time=0),
    Message('note_on', channel=8, note=67, velocity=95, time=0),
    Message('note_on', channel=8, note=62, velocity=95, time=0),
    Message('note_on', channel=8, note=55, velocity=95, time=0),
    Message('note_on', channel=8, note=50, velocity=95, time=0),
    Message('note_on', channel=8, note=47, velocity=95, time=0),
    Message('note_on', channel=8, note=43, velocity=95, time=0),
    Message('note_off', channel=8, note=67, velocity=95, time=480),
    Message('note_off', channel=8, note=62, velocity=95, time=0),
    Message('note_off', channel=8, note=55, velocity=95, time=0),
    Message('note_off', channel=8, note=50, velocity=95, time=0),
    Message('note_off', channel=8, note=47, velocity=95, time=0),
    Message('note_off', channel=8, note=43, velocity=95, time=0),
    Message('note_on', channel=8, note=67, velocity=95, time=0),
    Message('note_on', channel=8, note=62, velocity=95, time=0),
    Message('note_on', channel=8, note=55, velocity=95, time=0),
    Message('note_on', channel=8, note=50, velocity=95, time=0),
    Message('note_on', channel=8, note=47, velocity=95, time=0),
    Message('note_on', channel=8, note=43, velocity=95, time=0),
    Message('note_off', channel=8, note=67, velocity=95, time=480),
    Message('note_off', channel=8, note=62, velocity=95, time=0),
    Message('note_off', channel=8, note=55, velocity=95, time=0),
    Message('note_off', channel=8, note=50, velocity=95, time=0),
    Message('note_off', channel=8, note=47, velocity=95, time=0),
    Message('note_off', channel=8, note=43, velocity=95, time=0),
    Message('note_on', channel=8, note=67, velocity=95, time=0),
    Message('note_on', channel=8, note=62, velocity=95, time=0),
    Message('note_on', channel=8, note=55, velocity=95, time=0),
    Message('note_on', channel=8, note=50, velocity=95, time=0),
    Message('note_on', channel=8, note=47, velocity=95, time=0),
    Message('note_on', channel=8, note=43, velocity=95, time=0),
    Message('note_off', channel=8, note=67, velocity=95, time=480),
    Message('note_off', channel=8, note=62, velocity=95, time=0),
    Message('note_off', channel=8, note=55, velocity=95, time=0),
    Message('note_off', channel=8, note=50, velocity=95, time=0),
    Message('note_off', channel=8, note=47, velocity=95, time=0),
    Message('note_off', channel=8, note=43, velocity=95, time=0),
    Message('note_on', channel=8, note=57, velocity=95, time=0),
    Message('note_on', channel=8, note=52, velocity=95, time=0),
    Message('note_on', channel=8, note=45, velocity=95, time=0),
    Message('note_off', channel=8, note=57, velocity=95, time=480),
    Message('note_off', channel=8, note=52, velocity=95, time=0),
    Message('note_off', channel=8, note=45, velocity=95, time=0),
    Message('note_on', channel=8, note=57, velocity=95, time=0),
    Message('note_on', channel=8, note=52, velocity=95, time=0),
    Message('note_on', channel=8, note=45, velocity=95, time=0),
    Message('note_off', channel=8, note=57, velocity=95, time=960),
    Message('note_off', channel=8, note=52, velocity=95, time=0),
    Message('note_off', channel=8, note=45, velocity=95, time=0),
    Message('note_on', channel=8, note=57, velocity=95, time=0),
    Message('note_on', channel=8, note=52, velocity=95, time=0),
    Message('note_on', channel=8, note=45, velocity=95, time=0),
    Message('note_off', channel=8, note=57, velocity=95, time=960),
    Message('note_off', channel=8, note=52, velocity=95, time=0),
    Message('note_off', channel=8, note=45, velocity=95, time=0),
    Message('note_on', channel=8, note=57, velocity=95, time=0),
    Message('note_on', channel=8, note=52, velocity=95, time=0),
    Message('note_on', channel=8, note=45, velocity=95, time=0),
    Message('note_off', channel=8, note=57, velocity=95, time=480),
    Message('note_off', channel=8, note=52, velocity=95, time=0),
    Message('note_off', channel=8, note=45, velocity=95, time=0),
    Message('note_on', channel=8, note=57, velocity=95, time=0),
    Message('note_on', channel=8, note=52, velocity=95, time=0),
    Message('note_on', channel=8, note=45, velocity=95, time=0),
    Message('note_off', channel=8, note=57, velocity=95, time=480),
    Message('note_off', channel=8, note=52, velocity=95, time=0),
    Message('note_off', channel=8, note=45, velocity=95, time=0),
    Message('note_on', channel=8, note=57, velocity=95, time=0),
    Message('note_on', channel=8, note=52, velocity=95, time=0),
    Message('note_on', channel=8, note=45, velocity=95, time=0),
    Message('note_off', channel=8, note=57, velocity=95, time=480),
    Message('note_off', channel=8, note=52, velocity=95, time=0),
    Message('note_off', channel=8, note=45, velocity=95, time=0),
    Message('note_on', channel=8, note=57, velocity=95, time=0),
    Message('note_on', channel=8, note=52, velocity=95, time=0),
    Message('note_on', channel=8, note=45, velocity=95, time=0),
    Message('note_off', channel=8, note=57, velocity=95, time=480),
    Message('note_off', channel=8, note=52, velocity=95, time=0),
    Message('note_off', channel=8, note=45, velocity=95, time=0),
    Message('note_on', channel=8, note=57, velocity=95, time=0),
    Message('note_on', channel=8, note=52, velocity=95, time=0),
    Message('note_on', channel=8, note=45, velocity=95, time=0),
    Message('note_off', channel=8, note=57, velocity=95, time=960),
    Message('note_off', channel=8, note=52, velocity=95, time=0),
    Message('note_off', channel=8, note=45, velocity=95, time=0),
    Message('note_on', channel=8, note=57, velocity=95, time=0),
    Message('note_on', channel=8, note=52, velocity=95, time=0),
    Message('note_on', channel=8, note=45, velocity=95, time=0),
    Message('note_off', channel=8, note=57, velocity=95, time=960),
    Message('note_off', channel=8, note=52, velocity=95, time=0),
    Message('note_off', channel=8, note=45, velocity=95, time=0),
    Message('note_on', channel=8, note=57, velocity=95, time=0),
    Message('note_on', channel=8, note=52, velocity=95, time=0),
    Message('note_on', channel=8, note=45, velocity=95, time=0),
    Message('note_off', channel=8, note=57, velocity=95, time=480),
    Message('note_off', channel=8, note=52, velocity=95, time=0),
    Message('note_off', channel=8, note=45, velocity=95, time=0),
    Message('note_on', channel=8, note=57, velocity=95, time=0),
    Message('note_on', channel=8, note=52, velocity=95, time=0),
    Message('note_on', channel=8, note=45, velocity=95, time=0),
    Message('note_off', channel=8, note=57, velocity=95, time=480),
    Message('note_off', channel=8, note=52, velocity=95, time=0),
    Message('note_off', channel=8, note=45, velocity=95, time=0),
    Message('note_on', channel=8, note=57, velocity=95, time=0),
    Message('note_on', channel=8, note=52, velocity=95, time=0),
    Message('note_on', channel=8, note=45, velocity=95, time=0),
    Message('note_off', channel=8, note=57, velocity=95, time=480),
    Message('note_off', channel=8, note=52, velocity=95, time=0),
    Message('note_off', channel=8, note=45, velocity=95, time=0),
    Message('note_on', channel=8, note=45, velocity=95, time=0),
    Message('note_off', channel=8, note=45, velocity=95, time=480),
    Message('note_on', channel=8, note=62, velocity=95, time=0),
    Message('note_off', channel=8, note=62, velocity=95, time=480),
    Message('note_on', channel=8, note=67, velocity=95, time=0),
    Message('note_off', channel=8, note=67, velocity=95, time=480),
    Message('note_on', channel=8, note=62, velocity=95, time=0),
    Message('note_off', channel=8, note=62, velocity=95, time=480),
    Message('note_on', channel=8, note=45, velocity=95, time=0),
    Message('note_off', channel=8, note=45, velocity=95, time=480),
    Message('note_on', channel=8, note=62, velocity=95, time=0),
    Message('note_off', channel=8, note=62, velocity=95, time=480),
    Message('note_on', channel=8, note=66, velocity=95, time=0),
    Message('note_off', channel=8, note=66, velocity=95, time=480),
    Message('note_on', channel=8, note=62, velocity=95, time=0),
    Message('note_off', channel=8, note=62, velocity=95, time=480),
    Message('note_on', channel=8, note=45, velocity=95, time=0),
    Message('note_off', channel=8, note=45, velocity=95, time=480),
    Message('note_on', channel=8, note=59, velocity=95, time=0),
    Message('note_off', channel=8, note=59, velocity=95, time=480),
    Message('note_on', channel=8, note=62, velocity=95, time=0),
    Message('note_off', channel=8, note=62, velocity=95, time=480),
    Message('note_on', channel=8, note=45, velocity=95, time=0),
    Message('note_off', channel=8, note=45, velocity=95, time=960),
    Message('note_on', channel=8, note=60, velocity=95, time=0),
    Message('note_off', channel=8, note=60, velocity=95, time=480),
    Message('note_on', channel=8, note=64, velocity=95, time=0),
    Message('note_off', channel=8, note=64, velocity=95, time=480),
    Message('note_on', channel=8, note=59, velocity=95, time=0),
    Message('note_off', channel=8, note=59, velocity=95, time=480),
    Message('note_on', channel=8, note=45, velocity=95, time=0),
    Message('note_off', channel=8, note=45, velocity=95, time=480),
    Message('note_on', channel=8, note=55, velocity=95, time=0),
    Message('note_off', channel=8, note=55, velocity=95, time=480),
    Message('note_on', channel=8, note=59, velocity=95, time=0),
    Message('note_off', channel=8, note=59, velocity=95, time=480),
    Message('note_on', channel=8, note=45, velocity=95, time=0),
    Message('note_off', channel=8, note=45, velocity=95, time=960),
    Message('note_on', channel=8, note=57, velocity=95, time=0),
    Message('note_off', channel=8, note=57, velocity=95, time=480),
    Message('note_on', channel=8, note=60, velocity=95, time=0),
    Message('note_off', channel=8, note=60, velocity=95, time=960),
    Message('note_on', channel=8, note=45, velocity=95, time=0),
    Message('note_off', channel=8, note=45, velocity=95, time=480),
    Message('note_on', channel=8, note=55, velocity=95, time=0),
    Message('note_off', channel=8, note=55, velocity=95, time=480),
    Message('note_on', channel=8, note=59, velocity=95, time=0),
    Message('note_off', channel=8, note=59, velocity=95, time=480),
    Message('note_on', channel=8, note=45, velocity=95, time=0),
    Message('note_off', channel=8, note=45, velocity=95, time=960),
    Message('note_on', channel=8, note=57, velocity=95, time=0),
    Message('note_off', channel=8, note=57, velocity=95, time=480),
    Message('note_on', channel=8, note=60, velocity=95, time=0),
    Message('note_off', channel=8, note=60, velocity=95, time=480),
    Message('note_on', channel=8, note=57, velocity=95, time=0),
    Message('note_off', channel=8, note=57, velocity=95, time=480),
    Message('note_on', channel=8, note=45, velocity=95, time=0),
    Message('note_off', channel=8, note=45, velocity=95, time=480),
    Message('note_on', channel=8, note=64, velocity=95, time=0),
    Message('note_off', channel=8, note=64, velocity=95, time=480),
    Message('note_on', channel=8, note=67, velocity=95, time=0),
    Message('note_off', channel=8, note=67, velocity=95, time=480),
    Message('note_on', channel=8, note=45, velocity=95, time=0),
    Message('note_off', channel=8, note=45, velocity=95, time=960),
    Message('note_on', channel=8, note=62, velocity=95, time=0),
    Message('note_off', channel=8, note=62, velocity=95, time=480),
    Message('note_on', channel=8, note=66, velocity=95, time=0),
    Message('note_off', channel=8, note=66, velocity=95, time=480),
    Message('note_on', channel=8, note=62, velocity=95, time=0),
    Message('note_off', channel=8, note=62, velocity=95, time=480),
    Message('note_on', channel=8, note=45, velocity=95, time=0),
    Message('note_off', channel=8, note=45, velocity=95, time=480),
    Message('note_on', channel=8, note=59, velocity=95, time=0),
    Message('note_off', channel=8, note=59, velocity=95, time=480),
    Message('note_on', channel=8, note=62, velocity=95, time=0),
    Message('note_off', channel=8, note=62, velocity=95, time=480),
    Message('note_on', channel=8, note=45, velocity=95, time=0),
    Message('note_off', channel=8, note=45, velocity=95, time=960),
    Message('note_on', channel=8, note=60, velocity=95, time=0),
    Message('note_off', channel=8, note=60, velocity=95, time=480),
    Message('note_on', channel=8, note=64, velocity=95, time=0),
    Message('note_off', channel=8, note=64, velocity=95, time=480),
    Message('note_on', channel=8, note=60, velocity=95, time=0),
    Message('note_off', channel=8, note=60, velocity=95, time=480),
    Message('note_on', channel=8, note=45, velocity=95, time=0),
    Message('note_off', channel=8, note=45, velocity=95, time=480),
    Message('note_on', channel=8, note=55, velocity=95, time=0),
    Message('note_off', channel=8, note=55, velocity=95, time=480),
    Message('note_on', channel=8, note=59, velocity=95, time=0),
    Message('note_off', channel=8, note=59, velocity=95, time=480),
    Message('note_on', channel=8, note=45, velocity=95, time=0),
    Message('note_off', channel=8, note=45, velocity=95, time=960),
    Message('note_on', channel=8, note=57, velocity=95, time=0),
    Message('note_off', channel=8, note=57, velocity=95, time=480),
    Message('note_on', channel=8, note=60, velocity=95, time=0),
    Message('note_off', channel=8, note=60, velocity=95, time=480),
    Message('note_on', channel=8, note=57, velocity=95, time=0),
    Message('note_off', channel=8, note=57, velocity=95, time=480),
    Message('note_on', channel=8, note=45, velocity=95, time=0),
    Message('note_off', channel=8, note=45, velocity=95, time=480),
    Message('note_on', channel=8, note=55, velocity=95, time=0),
    Message('note_off', channel=8, note=55, velocity=95, time=480),
    Message('note_on', channel=8, note=59, velocity=95, time=0),
    Message('note_off', channel=8, note=59, velocity=95, time=480),
    Message('note_on', channel=8, note=45, velocity=95, time=0),
    Message('note_off', channel=8, note=45, velocity=95, time=1440),
    Message('note_on', channel=8, note=57, velocity=31, time=0),
    Message('note_on', channel=8, note=69, velocity=95, time=0),
    Message('note_off', channel=8, note=57, velocity=31, time=960),
    Message('note_off', channel=8, note=69, velocity=95, time=0),
    Message('note_on', channel=8, note=67, velocity=31, time=0),
    Message('note_on', channel=8, note=79, velocity=95, time=0),
    Message('note_off', channel=8, note=67, velocity=31, time=3840),
    Message('note_off', channel=8, note=79, velocity=95, time=0),
    MetaMessage('end_of_track', time=0)]),
  MidiTrack([
    Message('pitchwheel', channel=11, pitch=0, time=0),
    Message('control_change', channel=11, control=7, value=87, time=0),
    Message('control_change', channel=11, control=10, value=23, time=0),
    Message('control_change', channel=11, control=93, value=47, time=0),
    Message('control_change', channel=11, control=91, value=0, time=0),
    Message('control_change', channel=11, control=95, value=0, time=0),
    Message('control_change', channel=11, control=92, value=0, time=0),
    Message('control_change', channel=11, control=11, value=127, time=0),
    Message('program_change', channel=11, program=37, time=0),
    Message('control_change', channel=12, control=7, value=87, time=0),
    Message('control_change', channel=12, control=10, value=23, time=0),
    Message('control_change', channel=12, control=93, value=47, time=0),
    Message('control_change', channel=12, control=91, value=0, time=0),
    Message('control_change', channel=12, control=95, value=0, time=0),
    Message('control_change', channel=12, control=92, value=0, time=0),
    Message('control_change', channel=12, control=11, value=127, time=0),
    Message('program_change', channel=12, program=37, time=0),
    Message('note_on', channel=11, note=33, velocity=95, time=6240),
    Message('note_off', channel=11, note=33, velocity=95, time=480),
    Message('note_on', channel=11, note=38, velocity=95, time=0),
    Message('note_off', channel=11, note=38, velocity=95, time=240),
    Message('note_on', channel=11, note=40, velocity=70, time=0),
    Message('note_off', channel=11, note=40, velocity=70, time=240),
    Message('note_on', channel=11, note=33, velocity=95, time=0),
    Message('note_off', channel=11, note=33, velocity=95, time=480),
    Message('note_on', channel=11, note=45, velocity=95, time=0),
    Message('note_off', channel=11, note=45, velocity=95, time=960),
    Message('note_on', channel=11, note=33, velocity=95, time=0),
    Message('note_off', channel=11, note=33, velocity=95, time=480),
    Message('note_on', channel=11, note=43, velocity=95, time=0),
    Message('note_off', channel=11, note=43, velocity=95, time=4320),
    Message('note_on', channel=11, note=33, velocity=95, time=480),
    Message('note_off', channel=11, note=33, velocity=95, time=480),
    Message('note_on', channel=11, note=38, velocity=95, time=0),
    Message('note_off', channel=11, note=38, velocity=95, time=240),
    Message('note_on', channel=11, note=40, velocity=70, time=0),
    Message('note_off', channel=11, note=40, velocity=70, time=240),
    Message('note_on', channel=11, note=33, velocity=95, time=0),
    Message('note_off', channel=11, note=33, velocity=95, time=480),
    Message('note_on', channel=11, note=45, velocity=95, time=0),
    Message('note_off', channel=11, note=45, velocity=95, time=960),
    Message('note_on', channel=11, note=33, velocity=95, time=0),
    Message('note_off', channel=11, note=33, velocity=95, time=480),
    Message('note_on', channel=11, note=43, velocity=95, time=0),
    Message('note_off', channel=11, note=43, velocity=95, time=4320),
    Message('note_on', channel=11, note=33, velocity=95, time=480),
    Message('note_off', channel=11, note=33, velocity=95, time=480),
    Message('note_on', channel=11, note=38, velocity=95, time=0),
    Message('note_off', channel=11, note=38, velocity=95, time=240),
    Message('note_on', channel=11, note=40, velocity=70, time=0),
    Message('note_off', channel=11, note=40, velocity=70, time=240),
    Message('note_on', channel=11, note=33, velocity=95, time=0),
    Message('note_off', channel=11, note=33, velocity=95, time=480),
    Message('note_on', channel=11, note=45, velocity=95, time=0),
    Message('note_off', channel=11, note=45, velocity=95, time=960),
    Message('note_on', channel=11, note=33, velocity=95, time=0),
    Message('note_off', channel=11, note=33, velocity=95, time=480),
    Message('note_on', channel=11, note=43, velocity=95, time=0),
    Message('note_off', channel=11, note=43, velocity=95, time=4320),
    Message('note_on', channel=11, note=33, velocity=95, time=480),
    Message('note_off', channel=11, note=33, velocity=95, time=480),
    Message('note_on', channel=11, note=38, velocity=95, time=0),
    Message('note_off', channel=11, note=38, velocity=95, time=240),
    Message('note_on', channel=11, note=40, velocity=70, time=0),
    Message('note_off', channel=11, note=40, velocity=70, time=240),
    Message('note_on', channel=11, note=33, velocity=95, time=0),
    Message('note_off', channel=11, note=33, velocity=95, time=480),
    Message('note_on', channel=11, note=45, velocity=95, time=0),
    Message('note_off', channel=11, note=45, velocity=95, time=960),
    Message('note_on', channel=11, note=33, velocity=95, time=0),
    Message('note_off', channel=11, note=33, velocity=95, time=480),
    Message('note_on', channel=11, note=43, velocity=95, time=0),
    Message('note_off', channel=11, note=43, velocity=95, time=1440),
    Message('note_on', channel=11, note=43, velocity=95, time=0),
    Message('note_off', channel=11, note=43, velocity=95, time=480),
    Message('note_on', channel=11, note=43, velocity=95, time=0),
    Message('note_off', channel=11, note=43, velocity=95, time=480),
    Message('note_on', channel=11, note=43, velocity=95, time=0),
    Message('note_off', channel=11, note=43, velocity=95, time=480),
    Message('note_on', channel=11, note=43, velocity=95, time=0),
    Message('note_off', channel=11, note=43, velocity=95, time=480),
    Message('note_on', channel=11, note=43, velocity=95, time=0),
    Message('note_off', channel=11, note=43, velocity=95, time=480),
    Message('note_on', channel=11, note=43, velocity=95, time=0),
    Message('note_off', channel=11, note=43, velocity=95, time=480),
    Message('note_on', channel=11, note=43, velocity=95, time=0),
    Message('note_off', channel=11, note=43, velocity=95, time=480),
    Message('note_on', channel=11, note=33, velocity=95, time=0),
    Message('note_off', channel=11, note=33, velocity=95, time=480),
    Message('note_on', channel=11, note=38, velocity=95, time=0),
    Message('note_off', channel=11, note=38, velocity=95, time=240),
    Message('note_on', channel=11, note=40, velocity=70, time=0),
    Message('note_off', channel=11, note=40, velocity=70, time=240),
    Message('note_on', channel=11, note=33, velocity=95, time=0),
    Message('note_off', channel=11, note=33, velocity=95, time=480),
    Message('note_on', channel=11, note=45, velocity=95, time=0),
    Message('note_off', channel=11, note=45, velocity=95, time=960),
    Message('note_on', channel=11, note=33, velocity=95, time=0),
    Message('note_off', channel=11, note=33, velocity=95, time=480),
    Message('note_on', channel=11, note=43, velocity=95, time=0),
    Message('note_off', channel=11, note=43, velocity=95, time=960),
    Message('note_on', channel=11, note=33, velocity=95, time=0),
    Message('note_off', channel=11, note=33, velocity=95, time=480),
    Message('note_on', channel=11, note=38, velocity=95, time=0),
    Message('note_off', channel=11, note=38, velocity=95, time=240),
    Message('note_on', channel=11, note=40, velocity=70, time=0),
    Message('note_off', channel=11, note=40, velocity=70, time=240),
    Message('note_on', channel=11, note=33, velocity=95, time=0),
    Message('note_off', channel=11, note=33, velocity=95, time=480),
    Message('note_on', channel=11, note=45, velocity=95, time=0),
    Message('note_off', channel=11, note=45, velocity=95, time=960),
    Message('note_on', channel=11, note=33, velocity=95, time=0),
    Message('note_off', channel=11, note=33, velocity=95, time=480),
    Message('note_on', channel=11, note=43, velocity=95, time=0),
    Message('note_off', channel=11, note=43, velocity=95, time=960),
    Message('note_on', channel=11, note=33, velocity=95, time=0),
    Message('note_off', channel=11, note=33, velocity=95, time=480),
    Message('note_on', channel=11, note=38, velocity=95, time=0),
    Message('note_off', channel=11, note=38, velocity=95, time=240),
    Message('note_on', channel=11, note=40, velocity=70, time=0),
    Message('note_off', channel=11, note=40, velocity=70, time=240),
    Message('note_on', channel=11, note=33, velocity=95, time=0),
    Message('note_off', channel=11, note=33, velocity=95, time=480),
    Message('note_on', channel=11, note=45, velocity=95, time=0),
    Message('note_off', channel=11, note=45, velocity=95, time=960),
    Message('note_on', channel=11, note=33, velocity=95, time=0),
    Message('note_off', channel=11, note=33, velocity=95, time=480),
    Message('note_on', channel=11, note=37, velocity=95, time=0),
    Message('note_off', channel=11, note=37, velocity=95, time=960),
    Message('note_on', channel=11, note=33, velocity=95, time=0),
    Message('note_off', channel=11, note=33, velocity=95, time=480),
    Message('note_on', channel=11, note=38, velocity=95, time=0),
    Message('note_off', channel=11, note=38, velocity=95, time=240),
    Message('note_on', channel=11, note=40, velocity=70, time=0),
    Message('note_off', channel=11, note=40, velocity=70, time=240),
    Message('note_on', channel=11, note=33, velocity=95, time=0),
    Message('note_off', channel=11, note=33, velocity=95, time=480),
    Message('note_on', channel=11, note=45, velocity=95, time=0),
    Message('note_off', channel=11, note=45, velocity=95, time=960),
    Message('note_on', channel=11, note=33, velocity=95, time=0),
    Message('note_off', channel=11, note=33, velocity=95, time=480),
    Message('note_on', channel=11, note=43, velocity=95, time=0),
    Message('note_off', channel=11, note=43, velocity=95, time=960),
    Message('note_on', channel=11, note=33, velocity=95, time=0),
    Message('note_off', channel=11, note=33, velocity=95, time=480),
    Message('note_on', channel=11, note=38, velocity=95, time=0),
    Message('note_off', channel=11, note=38, velocity=95, time=240),
    Message('note_on', channel=11, note=40, velocity=70, time=0),
    Message('note_off', channel=11, note=40, velocity=70, time=240),
    Message('note_on', channel=11, note=33, velocity=95, time=0),
    Message('note_off', channel=11, note=33, velocity=95, time=480),
    Message('note_on', channel=11, note=45, velocity=95, time=0),
    Message('note_off', channel=11, note=45, velocity=95, time=960),
    Message('note_on', channel=11, note=33, velocity=95, time=0),
    Message('note_off', channel=11, note=33, velocity=95, time=480),
    Message('note_on', channel=11, note=43, velocity=95, time=0),
    Message('note_off', channel=11, note=43, velocity=95, time=960),
    Message('note_on', channel=11, note=33, velocity=95, time=0),
    Message('note_off', channel=11, note=33, velocity=95, time=480),
    Message('note_on', channel=11, note=38, velocity=95, time=0),
    Message('note_off', channel=11, note=38, velocity=95, time=240),
    Message('note_on', channel=11, note=40, velocity=70, time=0),
    Message('note_off', channel=11, note=40, velocity=70, time=240),
    Message('note_on', channel=11, note=33, velocity=95, time=0),
    Message('note_off', channel=11, note=33, velocity=95, time=480),
    Message('note_on', channel=11, note=45, velocity=95, time=0),
    Message('note_off', channel=11, note=45, velocity=95, time=960),
    Message('note_on', channel=11, note=33, velocity=95, time=0),
    Message('note_off', channel=11, note=33, velocity=95, time=480),
    Message('note_on', channel=11, note=43, velocity=95, time=0),
    Message('note_off', channel=11, note=43, velocity=95, time=960),
    Message('note_on', channel=11, note=33, velocity=95, time=0),
    Message('note_off', channel=11, note=33, velocity=95, time=480),
    Message('note_on', channel=11, note=38, velocity=95, time=0),
    Message('note_off', channel=11, note=38, velocity=95, time=240),
    Message('note_on', channel=11, note=40, velocity=70, time=0),
    Message('note_off', channel=11, note=40, velocity=70, time=240),
    Message('note_on', channel=11, note=33, velocity=95, time=0),
    Message('note_off', channel=11, note=33, velocity=95, time=480),
    Message('note_on', channel=11, note=45, velocity=95, time=0),
    Message('note_off', channel=11, note=45, velocity=95, time=960),
    Message('note_on', channel=11, note=33, velocity=95, time=0),
    Message('note_off', channel=11, note=33, velocity=95, time=480),
    Message('note_on', channel=11, note=43, velocity=95, time=0),
    Message('note_off', channel=11, note=43, velocity=95, time=960),
    Message('note_on', channel=11, note=33, velocity=95, time=0),
    Message('note_off', channel=11, note=33, velocity=95, time=480),
    Message('note_on', channel=11, note=38, velocity=95, time=0),
    Message('note_off', channel=11, note=38, velocity=95, time=240),
    Message('note_on', channel=11, note=40, velocity=70, time=0),
    Message('note_off', channel=11, note=40, velocity=70, time=240),
    Message('note_on', channel=11, note=33, velocity=95, time=0),
    Message('note_off', channel=11, note=33, velocity=95, time=480),
    Message('note_on', channel=11, note=45, velocity=95, time=0),
    Message('note_off', channel=11, note=45, velocity=95, time=960),
    Message('note_on', channel=11, note=33, velocity=95, time=0),
    Message('note_off', channel=11, note=33, velocity=95, time=480),
    Message('note_on', channel=11, note=43, velocity=95, time=0),
    Message('note_off', channel=11, note=43, velocity=95, time=960),
    Message('note_on', channel=11, note=33, velocity=95, time=0),
    Message('note_off', channel=11, note=33, velocity=95, time=480),
    Message('note_on', channel=11, note=38, velocity=95, time=0),
    Message('note_off', channel=11, note=38, velocity=95, time=240),
    Message('note_on', channel=11, note=40, velocity=70, time=0),
    Message('note_off', channel=11, note=40, velocity=70, time=240),
    Message('note_on', channel=11, note=33, velocity=95, time=0),
    Message('note_off', channel=11, note=33, velocity=95, time=480),
    Message('note_on', channel=11, note=45, velocity=95, time=0),
    Message('note_off', channel=11, note=45, velocity=95, time=960),
    Message('note_on', channel=11, note=33, velocity=95, time=0),
    Message('note_off', channel=11, note=33, velocity=95, time=480),
    Message('note_on', channel=11, note=43, velocity=95, time=0),
    Message('note_off', channel=11, note=43, velocity=95, time=960),
    Message('note_on', channel=11, note=33, velocity=95, time=0),
    Message('note_off', channel=11, note=33, velocity=95, time=480),
    Message('note_on', channel=11, note=38, velocity=95, time=0),
    Message('note_off', channel=11, note=38, velocity=95, time=240),
    Message('note_on', channel=11, note=40, velocity=70, time=0),
    Message('note_off', channel=11, note=40, velocity=70, time=240),
    Message('note_on', channel=11, note=33, velocity=95, time=0),
    Message('note_off', channel=11, note=33, velocity=95, time=480),
    Message('note_on', channel=11, note=45, velocity=95, time=0),
    Message('note_off', channel=11, note=45, velocity=95, time=960),
    Message('note_on', channel=11, note=33, velocity=95, time=0),
    Message('note_off', channel=11, note=33, velocity=95, time=480),
    Message('note_on', channel=11, note=43, velocity=95, time=0),
    Message('note_off', channel=11, note=43, velocity=95, time=960),
    Message('note_on', channel=11, note=33, velocity=95, time=0),
    Message('note_off', channel=11, note=33, velocity=95, time=480),
    Message('note_on', channel=11, note=38, velocity=95, time=0),
    Message('note_off', channel=11, note=38, velocity=95, time=240),
    Message('note_on', channel=11, note=40, velocity=70, time=0),
    Message('note_off', channel=11, note=40, velocity=70, time=240),
    Message('note_on', channel=11, note=33, velocity=95, time=0),
    Message('note_off', channel=11, note=33, velocity=95, time=480),
    Message('note_on', channel=11, note=45, velocity=95, time=0),
    Message('note_off', channel=11, note=45, velocity=95, time=960),
    Message('note_on', channel=11, note=33, velocity=95, time=0),
    Message('note_off', channel=11, note=33, velocity=95, time=480),
    Message('note_on', channel=11, note=43, velocity=95, time=0),
    Message('note_off', channel=11, note=43, velocity=95, time=960),
    Message('note_on', channel=11, note=33, velocity=95, time=0),
    Message('note_off', channel=11, note=33, velocity=95, time=480),
    Message('note_on', channel=11, note=38, velocity=95, time=0),
    Message('note_off', channel=11, note=38, velocity=95, time=240),
    Message('note_on', channel=11, note=40, velocity=70, time=0),
    Message('note_off', channel=11, note=40, velocity=70, time=240),
    Message('note_on', channel=11, note=33, velocity=95, time=0),
    Message('note_off', channel=11, note=33, velocity=95, time=480),
    Message('note_on', channel=11, note=45, velocity=95, time=0),
    Message('note_off', channel=11, note=45, velocity=95, time=960),
    Message('note_on', channel=11, note=33, velocity=95, time=0),
    Message('note_off', channel=11, note=33, velocity=95, time=480),
    Message('note_on', channel=11, note=43, velocity=95, time=0),
    Message('note_off', channel=11, note=43, velocity=95, time=960),
    Message('note_on', channel=11, note=33, velocity=95, time=0),
    Message('note_off', channel=11, note=33, velocity=95, time=480),
    Message('note_on', channel=11, note=38, velocity=95, time=0),
    Message('note_off', channel=11, note=38, velocity=95, time=240),
    Message('note_on', channel=11, note=40, velocity=70, time=0),
    Message('note_off', channel=11, note=40, velocity=70, time=240),
    Message('note_on', channel=11, note=33, velocity=95, time=0),
    Message('note_off', channel=11, note=33, velocity=95, time=480),
    Message('note_on', channel=11, note=45, velocity=95, time=0),
    Message('note_off', channel=11, note=45, velocity=95, time=960),
    Message('note_on', channel=11, note=33, velocity=95, time=0),
    Message('note_off', channel=11, note=33, velocity=95, time=480),
    Message('note_on', channel=11, note=43, velocity=95, time=0),
    Message('note_off', channel=11, note=43, velocity=95, time=960),
    Message('note_on', channel=11, note=33, velocity=95, time=0),
    Message('note_off', channel=11, note=33, velocity=95, time=480),
    Message('note_on', channel=11, note=38, velocity=95, time=0),
    Message('note_off', channel=11, note=38, velocity=95, time=240),
    Message('note_on', channel=11, note=40, velocity=70, time=0),
    Message('note_off', channel=11, note=40, velocity=70, time=240),
    Message('note_on', channel=11, note=33, velocity=95, time=0),
    Message('note_off', channel=11, note=33, velocity=95, time=480),
    Message('note_on', channel=11, note=45, velocity=95, time=0),
    Message('note_off', channel=11, note=45, velocity=95, time=960),
    Message('note_on', channel=11, note=33, velocity=95, time=0),
    Message('note_off', channel=11, note=33, velocity=95, time=480),
    Message('note_on', channel=11, note=43, velocity=95, time=0),
    Message('note_off', channel=11, note=43, velocity=95, time=960),
    Message('note_on', channel=11, note=33, velocity=95, time=0),
    Message('note_off', channel=11, note=33, velocity=95, time=480),
    Message('note_on', channel=11, note=38, velocity=95, time=0),
    Message('note_off', channel=11, note=38, velocity=95, time=240),
    Message('note_on', channel=11, note=40, velocity=70, time=0),
    Message('note_off', channel=11, note=40, velocity=70, time=240),
    Message('note_on', channel=11, note=33, velocity=95, time=0),
    Message('note_off', channel=11, note=33, velocity=95, time=480),
    Message('note_on', channel=11, note=45, velocity=95, time=0),
    Message('note_off', channel=11, note=45, velocity=95, time=960),
    Message('note_on', channel=11, note=33, velocity=95, time=0),
    Message('note_off', channel=11, note=33, velocity=95, time=480),
    Message('note_on', channel=11, note=43, velocity=95, time=0),
    Message('note_off', channel=11, note=43, velocity=95, time=960),
    Message('note_on', channel=11, note=33, velocity=95, time=0),
    Message('note_off', channel=11, note=33, velocity=95, time=480),
    Message('note_on', channel=11, note=38, velocity=95, time=0),
    Message('note_off', channel=11, note=38, velocity=95, time=240),
    Message('note_on', channel=11, note=40, velocity=70, time=0),
    Message('note_off', channel=11, note=40, velocity=70, time=240),
    Message('note_on', channel=11, note=33, velocity=95, time=0),
    Message('note_off', channel=11, note=33, velocity=95, time=480),
    Message('note_on', channel=11, note=45, velocity=95, time=0),
    Message('note_off', channel=11, note=45, velocity=95, time=960),
    Message('note_on', channel=11, note=33, velocity=95, time=0),
    Message('note_off', channel=11, note=33, velocity=95, time=480),
    Message('note_on', channel=11, note=43, velocity=95, time=0),
    Message('note_off', channel=11, note=43, velocity=95, time=960),
    Message('note_on', channel=11, note=33, velocity=95, time=0),
    Message('note_off', channel=11, note=33, velocity=95, time=480),
    Message('note_on', channel=11, note=38, velocity=95, time=0),
    Message('note_off', channel=11, note=38, velocity=95, time=240),
    Message('note_on', channel=11, note=40, velocity=70, time=0),
    Message('note_off', channel=11, note=40, velocity=70, time=240),
    Message('note_on', channel=11, note=33, velocity=95, time=0),
    Message('note_off', channel=11, note=33, velocity=95, time=480),
    Message('note_on', channel=11, note=41, velocity=95, time=0),
    Message('note_off', channel=11, note=41, velocity=95, time=480),
    Message('note_on', channel=11, note=41, velocity=95, time=0),
    Message('note_off', channel=11, note=41, velocity=95, time=480),
    Message('note_on', channel=11, note=41, velocity=95, time=0),
    Message('note_off', channel=11, note=41, velocity=95, time=2880),
    Message('note_on', channel=11, note=38, velocity=95, time=0),
    Message('note_off', channel=11, note=38, velocity=95, time=1440),
    Message('note_on', channel=11, note=40, velocity=95, time=0),
    Message('note_off', channel=11, note=40, velocity=95, time=1440),
    Message('note_on', channel=11, note=41, velocity=95, time=0),
    Message('note_off', channel=11, note=41, velocity=95, time=960),
    Message('note_on', channel=11, note=33, velocity=95, time=0),
    Message('note_off', channel=11, note=33, velocity=95, time=3840),
    Message('note_on', channel=11, note=33, velocity=95, time=0),
    Message('note_off', channel=11, note=33, velocity=95, time=1920),
    Message('note_on', channel=11, note=33, velocity=95, time=480),
    Message('note_off', channel=11, note=33, velocity=95, time=480),
    Message('note_on', channel=11, note=38, velocity=95, time=0),
    Message('note_off', channel=11, note=38, velocity=95, time=240),
    Message('note_on', channel=11, note=40, velocity=70, time=0),
    Message('note_off', channel=11, note=40, velocity=70, time=240),
    Message('note_on', channel=11, note=33, velocity=95, time=0),
    Message('note_off', channel=11, note=33, velocity=95, time=480),
    Message('note_on', channel=11, note=41, velocity=95, time=0),
    Message('note_off', channel=11, note=41, velocity=95, time=480),
    Message('note_on', channel=11, note=41, velocity=95, time=0),
    Message('note_off', channel=11, note=41, velocity=95, time=480),
    Message('note_on', channel=11, note=41, velocity=95, time=0),
    Message('note_off', channel=11, note=41, velocity=95, time=2880),
    Message('note_on', channel=11, note=38, velocity=95, time=0),
    Message('note_off', channel=11, note=38, velocity=95, time=1440),
    Message('note_on', channel=11, note=40, velocity=95, time=0),
    Message('note_off', channel=11, note=40, velocity=95, time=1440),
    Message('note_on', channel=11, note=41, velocity=95, time=0),
    Message('note_off', channel=11, note=41, velocity=95, time=960),
    Message('note_on', channel=11, note=33, velocity=95, time=0),
    Message('note_off', channel=11, note=33, velocity=95, time=3840),
    Message('note_on', channel=11, note=33, velocity=95, time=0),
    Message('note_off', channel=11, note=33, velocity=95, time=1920),
    Message('note_on', channel=11, note=33, velocity=95, time=480),
    Message('note_off', channel=11, note=33, velocity=95, time=480),
    Message('note_on', channel=11, note=38, velocity=95, time=0),
    Message('note_off', channel=11, note=38, velocity=95, time=240),
    Message('note_on', channel=11, note=40, velocity=70, time=0),
    Message('note_off', channel=11, note=40, velocity=70, time=240),
    Message('note_on', channel=11, note=33, velocity=95, time=0),
    Message('note_off', channel=11, note=33, velocity=95, time=480),
    Message('note_on', channel=11, note=45, velocity=95, time=0),
    Message('note_off', channel=11, note=45, velocity=95, time=960),
    Message('note_on', channel=11, note=33, velocity=95, time=0),
    Message('note_off', channel=11, note=33, velocity=95, time=480),
    Message('note_on', channel=11, note=43, velocity=95, time=0),
    Message('note_off', channel=11, note=43, velocity=95, time=960),
    Message('note_on', channel=11, note=33, velocity=95, time=0),
    Message('note_off', channel=11, note=33, velocity=95, time=480),
    Message('note_on', channel=11, note=38, velocity=95, time=0),
    Message('note_off', channel=11, note=38, velocity=95, time=240),
    Message('note_on', channel=11, note=40, velocity=70, time=0),
    Message('note_off', channel=11, note=40, velocity=70, time=240),
    Message('note_on', channel=11, note=33, velocity=95, time=0),
    Message('note_off', channel=11, note=33, velocity=95, time=480),
    Message('note_on', channel=11, note=45, velocity=95, time=0),
    Message('note_off', channel=11, note=45, velocity=95, time=960),
    Message('note_on', channel=11, note=33, velocity=95, time=0),
    Message('note_off', channel=11, note=33, velocity=95, time=480),
    Message('note_on', channel=11, note=43, velocity=95, time=0),
    Message('note_off', channel=11, note=43, velocity=95, time=960),
    Message('note_on', channel=11, note=33, velocity=95, time=0),
    Message('note_off', channel=11, note=33, velocity=95, time=480),
    Message('note_on', channel=11, note=38, velocity=95, time=0),
    Message('note_off', channel=11, note=38, velocity=95, time=240),
    Message('note_on', channel=11, note=40, velocity=70, time=0),
    Message('note_off', channel=11, note=40, velocity=70, time=240),
    Message('note_on', channel=11, note=33, velocity=95, time=0),
    Message('note_off', channel=11, note=33, velocity=95, time=480),
    Message('note_on', channel=11, note=45, velocity=95, time=0),
    Message('note_off', channel=11, note=45, velocity=95, time=960),
    Message('note_on', channel=11, note=33, velocity=95, time=0),
    Message('note_off', channel=11, note=33, velocity=95, time=480),
    Message('note_on', channel=11, note=37, velocity=95, time=0),
    Message('note_off', channel=11, note=37, velocity=95, time=960),
    Message('note_on', channel=11, note=33, velocity=95, time=0),
    Message('note_off', channel=11, note=33, velocity=95, time=480),
    Message('note_on', channel=11, note=38, velocity=95, time=0),
    Message('note_off', channel=11, note=38, velocity=95, time=240),
    Message('note_on', channel=11, note=40, velocity=70, time=0),
    Message('note_off', channel=11, note=40, velocity=70, time=240),
    Message('note_on', channel=11, note=33, velocity=95, time=0),
    Message('note_off', channel=11, note=33, velocity=95, time=480),
    Message('note_on', channel=11, note=45, velocity=95, time=0),
    Message('note_off', channel=11, note=45, velocity=95, time=960),
    Message('note_on', channel=11, note=33, velocity=95, time=0),
    Message('note_off', channel=11, note=33, velocity=95, time=480),
    Message('note_on', channel=11, note=43, velocity=95, time=0),
    Message('note_off', channel=11, note=43, velocity=95, time=960),
    Message('note_on', channel=11, note=33, velocity=95, time=0),
    Message('note_off', channel=11, note=33, velocity=95, time=480),
    Message('note_on', channel=11, note=38, velocity=95, time=0),
    Message('note_off', channel=11, note=38, velocity=95, time=240),
    Message('note_on', channel=11, note=40, velocity=70, time=0),
    Message('note_off', channel=11, note=40, velocity=70, time=240),
    Message('note_on', channel=11, note=33, velocity=95, time=0),
    Message('note_off', channel=11, note=33, velocity=95, time=480),
    Message('note_on', channel=11, note=45, velocity=95, time=0),
    Message('note_off', channel=11, note=45, velocity=95, time=960),
    Message('note_on', channel=11, note=33, velocity=95, time=0),
    Message('note_off', channel=11, note=33, velocity=95, time=480),
    Message('note_on', channel=11, note=43, velocity=95, time=0),
    Message('note_off', channel=11, note=43, velocity=95, time=960),
    Message('note_on', channel=11, note=33, velocity=95, time=0),
    Message('note_off', channel=11, note=33, velocity=95, time=480),
    Message('note_on', channel=11, note=38, velocity=95, time=0),
    Message('note_off', channel=11, note=38, velocity=95, time=240),
    Message('note_on', channel=11, note=40, velocity=70, time=0),
    Message('note_off', channel=11, note=40, velocity=70, time=240),
    Message('note_on', channel=11, note=33, velocity=95, time=0),
    Message('note_off', channel=11, note=33, velocity=95, time=480),
    Message('note_on', channel=11, note=45, velocity=95, time=0),
    Message('note_off', channel=11, note=45, velocity=95, time=960),
    Message('note_on', channel=11, note=33, velocity=95, time=0),
    Message('note_off', channel=11, note=33, velocity=95, time=480),
    Message('note_on', channel=11, note=43, velocity=95, time=0),
    Message('note_off', channel=11, note=43, velocity=95, time=960),
    Message('note_on', channel=11, note=33, velocity=95, time=0),
    Message('note_off', channel=11, note=33, velocity=95, time=480),
    Message('note_on', channel=11, note=38, velocity=95, time=0),
    Message('note_off', channel=11, note=38, velocity=95, time=240),
    Message('note_on', channel=11, note=40, velocity=70, time=0),
    Message('note_off', channel=11, note=40, velocity=70, time=240),
    Message('note_on', channel=11, note=33, velocity=95, time=0),
    Message('note_off', channel=11, note=33, velocity=95, time=480),
    Message('note_on', channel=11, note=45, velocity=95, time=0),
    Message('note_off', channel=11, note=45, velocity=95, time=960),
    Message('note_on', channel=11, note=33, velocity=95, time=0),
    Message('note_off', channel=11, note=33, velocity=95, time=480),
    Message('note_on', channel=11, note=43, velocity=95, time=0),
    Message('note_off', channel=11, note=43, velocity=95, time=960),
    Message('note_on', channel=11, note=33, velocity=95, time=0),
    Message('note_off', channel=11, note=33, velocity=95, time=480),
    Message('note_on', channel=11, note=38, velocity=95, time=0),
    Message('note_off', channel=11, note=38, velocity=95, time=240),
    Message('note_on', channel=11, note=40, velocity=70, time=0),
    Message('note_off', channel=11, note=40, velocity=70, time=240),
    Message('note_on', channel=11, note=33, velocity=95, time=0),
    Message('note_off', channel=11, note=33, velocity=95, time=480),
    Message('note_on', channel=11, note=45, velocity=95, time=0),
    Message('note_off', channel=11, note=45, velocity=95, time=960),
    Message('note_on', channel=11, note=33, velocity=95, time=0),
    Message('note_off', channel=11, note=33, velocity=95, time=480),
    Message('note_on', channel=11, note=43, velocity=95, time=0),
    Message('note_off', channel=11, note=43, velocity=95, time=960),
    Message('note_on', channel=11, note=33, velocity=95, time=0),
    Message('note_off', channel=11, note=33, velocity=95, time=480),
    Message('note_on', channel=11, note=38, velocity=95, time=0),
    Message('note_off', channel=11, note=38, velocity=95, time=240),
    Message('note_on', channel=11, note=40, velocity=70, time=0),
    Message('note_off', channel=11, note=40, velocity=70, time=240),
    Message('note_on', channel=11, note=33, velocity=95, time=0),
    Message('note_off', channel=11, note=33, velocity=95, time=480),
    Message('note_on', channel=11, note=45, velocity=95, time=0),
    Message('note_off', channel=11, note=45, velocity=95, time=960),
    Message('note_on', channel=11, note=33, velocity=95, time=0),
    Message('note_off', channel=11, note=33, velocity=95, time=480),
    Message('note_on', channel=11, note=43, velocity=95, time=0),
    Message('note_off', channel=11, note=43, velocity=95, time=960),
    Message('note_on', channel=11, note=33, velocity=95, time=0),
    Message('note_off', channel=11, note=33, velocity=95, time=480),
    Message('note_on', channel=11, note=38, velocity=95, time=0),
    Message('note_off', channel=11, note=38, velocity=95, time=240),
    Message('note_on', channel=11, note=40, velocity=70, time=0),
    Message('note_off', channel=11, note=40, velocity=70, time=240),
    Message('note_on', channel=11, note=33, velocity=95, time=0),
    Message('note_off', channel=11, note=33, velocity=95, time=480),
    Message('note_on', channel=11, note=45, velocity=95, time=0),
    Message('note_off', channel=11, note=45, velocity=95, time=960),
    Message('note_on', channel=11, note=33, velocity=95, time=0),
    Message('note_off', channel=11, note=33, velocity=95, time=480),
    Message('note_on', channel=11, note=43, velocity=95, time=0),
    Message('note_off', channel=11, note=43, velocity=95, time=960),
    Message('note_on', channel=11, note=33, velocity=95, time=0),
    Message('note_off', channel=11, note=33, velocity=95, time=480),
    Message('note_on', channel=11, note=38, velocity=95, time=0),
    Message('note_off', channel=11, note=38, velocity=95, time=240),
    Message('note_on', channel=11, note=40, velocity=70, time=0),
    Message('note_off', channel=11, note=40, velocity=70, time=240),
    Message('note_on', channel=11, note=33, velocity=95, time=0),
    Message('note_off', channel=11, note=33, velocity=95, time=480),
    Message('note_on', channel=11, note=45, velocity=95, time=0),
    Message('note_off', channel=11, note=45, velocity=95, time=960),
    Message('note_on', channel=11, note=33, velocity=95, time=0),
    Message('note_off', channel=11, note=33, velocity=95, time=480),
    Message('note_on', channel=11, note=37, velocity=95, time=0),
    Message('note_off', channel=11, note=37, velocity=95, time=960),
    Message('note_on', channel=11, note=33, velocity=95, time=0),
    Message('note_off', channel=11, note=33, velocity=95, time=480),
    Message('note_on', channel=11, note=38, velocity=95, time=0),
    Message('note_off', channel=11, note=38, velocity=95, time=240),
    Message('note_on', channel=11, note=40, velocity=70, time=0),
    Message('note_off', channel=11, note=40, velocity=70, time=240),
    Message('note_on', channel=11, note=33, velocity=95, time=0),
    Message('note_off', channel=11, note=33, velocity=95, time=480),
    Message('note_on', channel=11, note=45, velocity=95, time=0),
    Message('note_off', channel=11, note=45, velocity=95, time=960),
    Message('note_on', channel=11, note=33, velocity=95, time=0),
    Message('note_off', channel=11, note=33, velocity=95, time=480),
    Message('note_on', channel=11, note=43, velocity=95, time=0),
    Message('note_off', channel=11, note=43, velocity=95, time=960),
    Message('note_on', channel=11, note=33, velocity=95, time=0),
    Message('note_off', channel=11, note=33, velocity=95, time=480),
    Message('note_on', channel=11, note=38, velocity=95, time=0),
    Message('note_off', channel=11, note=38, velocity=95, time=240),
    Message('note_on', channel=11, note=40, velocity=70, time=0),
    Message('note_off', channel=11, note=40, velocity=70, time=240),
    Message('note_on', channel=11, note=33, velocity=95, time=0),
    Message('note_off', channel=11, note=33, velocity=95, time=480),
    Message('note_on', channel=11, note=45, velocity=95, time=0),
    Message('note_off', channel=11, note=45, velocity=95, time=960),
    Message('note_on', channel=11, note=33, velocity=95, time=0),
    Message('note_off', channel=11, note=33, velocity=95, time=480),
    Message('note_on', channel=11, note=43, velocity=95, time=0),
    Message('note_off', channel=11, note=43, velocity=95, time=960),
    Message('note_on', channel=11, note=33, velocity=95, time=0),
    Message('note_off', channel=11, note=33, velocity=95, time=480),
    Message('note_on', channel=11, note=38, velocity=95, time=0),
    Message('note_off', channel=11, note=38, velocity=95, time=240),
    Message('note_on', channel=11, note=40, velocity=70, time=0),
    Message('note_off', channel=11, note=40, velocity=70, time=240),
    Message('note_on', channel=11, note=33, velocity=95, time=0),
    Message('note_off', channel=11, note=33, velocity=95, time=480),
    Message('note_on', channel=11, note=45, velocity=95, time=0),
    Message('note_off', channel=11, note=45, velocity=95, time=960),
    Message('note_on', channel=11, note=33, velocity=95, time=0),
    Message('note_off', channel=11, note=33, velocity=95, time=480),
    Message('note_on', channel=11, note=43, velocity=95, time=0),
    Message('note_off', channel=11, note=43, velocity=95, time=960),
    Message('note_on', channel=11, note=33, velocity=95, time=0),
    Message('note_off', channel=11, note=33, velocity=95, time=480),
    Message('note_on', channel=11, note=38, velocity=95, time=0),
    Message('note_off', channel=11, note=38, velocity=95, time=240),
    Message('note_on', channel=11, note=40, velocity=70, time=0),
    Message('note_off', channel=11, note=40, velocity=70, time=240),
    Message('note_on', channel=11, note=33, velocity=95, time=0),
    Message('note_off', channel=11, note=33, velocity=95, time=480),
    Message('note_on', channel=11, note=45, velocity=95, time=0),
    Message('note_off', channel=11, note=45, velocity=95, time=960),
    Message('note_on', channel=11, note=33, velocity=95, time=0),
    Message('note_off', channel=11, note=33, velocity=95, time=480),
    Message('note_on', channel=11, note=43, velocity=95, time=0),
    Message('note_off', channel=11, note=43, velocity=95, time=960),
    Message('note_on', channel=11, note=33, velocity=95, time=0),
    Message('note_off', channel=11, note=33, velocity=95, time=480),
    Message('note_on', channel=11, note=38, velocity=95, time=0),
    Message('note_off', channel=11, note=38, velocity=95, time=240),
    Message('note_on', channel=11, note=40, velocity=70, time=0),
    Message('note_off', channel=11, note=40, velocity=70, time=240),
    Message('note_on', channel=11, note=33, velocity=95, time=0),
    Message('note_off', channel=11, note=33, velocity=95, time=480),
    Message('note_on', channel=11, note=45, velocity=95, time=0),
    Message('note_off', channel=11, note=45, velocity=95, time=960),
    Message('note_on', channel=11, note=33, velocity=95, time=0),
    Message('note_off', channel=11, note=33, velocity=95, time=480),
    Message('note_on', channel=11, note=43, velocity=95, time=0),
    Message('note_off', channel=11, note=43, velocity=95, time=960),
    Message('note_on', channel=11, note=33, velocity=95, time=0),
    Message('note_off', channel=11, note=33, velocity=95, time=480),
    Message('note_on', channel=11, note=38, velocity=95, time=0),
    Message('note_off', channel=11, note=38, velocity=95, time=240),
    Message('note_on', channel=11, note=40, velocity=70, time=0),
    Message('note_off', channel=11, note=40, velocity=70, time=240),
    Message('note_on', channel=11, note=33, velocity=95, time=0),
    Message('note_off', channel=11, note=33, velocity=95, time=480),
    Message('note_on', channel=11, note=45, velocity=95, time=0),
    Message('note_off', channel=11, note=45, velocity=95, time=960),
    Message('note_on', channel=11, note=33, velocity=95, time=0),
    Message('note_off', channel=11, note=33, velocity=95, time=480),
    Message('note_on', channel=11, note=43, velocity=95, time=0),
    Message('note_off', channel=11, note=43, velocity=95, time=960),
    Message('note_on', channel=11, note=33, velocity=95, time=0),
    Message('note_off', channel=11, note=33, velocity=95, time=480),
    Message('note_on', channel=11, note=38, velocity=95, time=0),
    Message('note_off', channel=11, note=38, velocity=95, time=240),
    Message('note_on', channel=11, note=40, velocity=70, time=0),
    Message('note_off', channel=11, note=40, velocity=70, time=240),
    Message('note_on', channel=11, note=33, velocity=95, time=0),
    Message('note_off', channel=11, note=33, velocity=95, time=480),
    Message('note_on', channel=11, note=45, velocity=95, time=0),
    Message('note_off', channel=11, note=45, velocity=95, time=960),
    Message('note_on', channel=11, note=33, velocity=95, time=0),
    Message('note_off', channel=11, note=33, velocity=95, time=480),
    Message('note_on', channel=11, note=43, velocity=95, time=0),
    Message('note_off', channel=11, note=43, velocity=95, time=960),
    Message('note_on', channel=11, note=33, velocity=95, time=0),
    Message('note_off', channel=11, note=33, velocity=95, time=480),
    Message('note_on', channel=11, note=38, velocity=95, time=0),
    Message('note_off', channel=11, note=38, velocity=95, time=240),
    Message('note_on', channel=11, note=40, velocity=70, time=0),
    Message('note_off', channel=11, note=40, velocity=70, time=240),
    Message('note_on', channel=11, note=33, velocity=95, time=0),
    Message('note_off', channel=11, note=33, velocity=95, time=480),
    Message('note_on', channel=11, note=45, velocity=95, time=0),
    Message('note_off', channel=11, note=45, velocity=95, time=960),
    Message('note_on', channel=11, note=33, velocity=95, time=0),
    Message('note_off', channel=11, note=33, velocity=95, time=480),
    Message('note_on', channel=11, note=43, velocity=95, time=0),
    Message('note_off', channel=11, note=43, velocity=95, time=960),
    Message('note_on', channel=11, note=33, velocity=95, time=0),
    Message('note_off', channel=11, note=33, velocity=95, time=480),
    Message('note_on', channel=11, note=38, velocity=95, time=0),
    Message('note_off', channel=11, note=38, velocity=95, time=240),
    Message('note_on', channel=11, note=40, velocity=70, time=0),
    Message('note_off', channel=11, note=40, velocity=70, time=240),
    Message('note_on', channel=11, note=33, velocity=95, time=0),
    Message('note_off', channel=11, note=33, velocity=95, time=480),
    Message('note_on', channel=11, note=45, velocity=95, time=0),
    Message('note_off', channel=11, note=45, velocity=95, time=960),
    Message('note_on', channel=11, note=33, velocity=95, time=0),
    Message('note_off', channel=11, note=33, velocity=95, time=480),
    Message('note_on', channel=11, note=43, velocity=95, time=0),
    Message('note_off', channel=11, note=43, velocity=95, time=960),
    Message('note_on', channel=11, note=33, velocity=95, time=0),
    Message('note_off', channel=11, note=33, velocity=95, time=480),
    Message('note_on', channel=11, note=38, velocity=95, time=0),
    Message('note_off', channel=11, note=38, velocity=95, time=240),
    Message('note_on', channel=11, note=40, velocity=70, time=0),
    Message('note_off', channel=11, note=40, velocity=70, time=240),
    Message('note_on', channel=11, note=33, velocity=95, time=0),
    Message('note_off', channel=11, note=33, velocity=95, time=480),
    Message('note_on', channel=11, note=45, velocity=95, time=0),
    Message('note_off', channel=11, note=45, velocity=95, time=960),
    Message('note_on', channel=11, note=33, velocity=95, time=0),
    Message('note_off', channel=11, note=33, velocity=95, time=480),
    Message('note_on', channel=11, note=43, velocity=95, time=0),
    Message('note_off', channel=11, note=43, velocity=95, time=960),
    Message('note_on', channel=11, note=33, velocity=95, time=0),
    Message('note_off', channel=11, note=33, velocity=95, time=480),
    Message('note_on', channel=11, note=38, velocity=95, time=0),
    Message('note_off', channel=11, note=38, velocity=95, time=240),
    Message('note_on', channel=11, note=40, velocity=70, time=0),
    Message('note_off', channel=11, note=40, velocity=70, time=240),
    Message('note_on', channel=11, note=33, velocity=95, time=0),
    Message('note_off', channel=11, note=33, velocity=95, time=480),
    Message('note_on', channel=11, note=45, velocity=95, time=0),
    Message('note_off', channel=11, note=45, velocity=95, time=960),
    Message('note_on', channel=11, note=33, velocity=95, time=0),
    Message('note_off', channel=11, note=33, velocity=95, time=480),
    Message('note_on', channel=11, note=43, velocity=95, time=0),
    Message('note_off', channel=11, note=43, velocity=95, time=960),
    Message('note_on', channel=11, note=33, velocity=95, time=0),
    Message('note_off', channel=11, note=33, velocity=95, time=480),
    Message('note_on', channel=11, note=38, velocity=95, time=0),
    Message('note_off', channel=11, note=38, velocity=95, time=240),
    Message('note_on', channel=11, note=40, velocity=70, time=0),
    Message('note_off', channel=11, note=40, velocity=70, time=240),
    Message('note_on', channel=11, note=33, velocity=95, time=0),
    Message('note_off', channel=11, note=33, velocity=95, time=480),
    Message('note_on', channel=11, note=45, velocity=95, time=0),
    Message('note_off', channel=11, note=45, velocity=95, time=960),
    Message('note_on', channel=11, note=33, velocity=95, time=0),
    Message('note_off', channel=11, note=33, velocity=95, time=480),
    Message('note_on', channel=11, note=43, velocity=95, time=0),
    Message('note_off', channel=11, note=43, velocity=95, time=960),
    Message('note_on', channel=11, note=33, velocity=95, time=0),
    Message('note_off', channel=11, note=33, velocity=95, time=480),
    Message('note_on', channel=11, note=38, velocity=95, time=0),
    Message('note_off', channel=11, note=38, velocity=95, time=240),
    Message('note_on', channel=11, note=40, velocity=70, time=0),
    Message('note_off', channel=11, note=40, velocity=70, time=240),
    Message('note_on', channel=11, note=33, velocity=95, time=0),
    Message('note_off', channel=11, note=33, velocity=95, time=480),
    Message('note_on', channel=11, note=45, velocity=95, time=0),
    Message('note_off', channel=11, note=45, velocity=95, time=960),
    Message('note_on', channel=11, note=33, velocity=95, time=0),
    Message('note_off', channel=11, note=33, velocity=95, time=480),
    Message('note_on', channel=11, note=43, velocity=95, time=0),
    Message('note_off', channel=11, note=43, velocity=95, time=960),
    Message('note_on', channel=11, note=33, velocity=95, time=0),
    Message('note_off', channel=11, note=33, velocity=95, time=480),
    Message('note_on', channel=11, note=38, velocity=95, time=0),
    Message('note_off', channel=11, note=38, velocity=95, time=240),
    Message('note_on', channel=11, note=40, velocity=70, time=0),
    Message('note_off', channel=11, note=40, velocity=70, time=240),
    Message('note_on', channel=11, note=33, velocity=95, time=0),
    Message('note_off', channel=11, note=33, velocity=95, time=480),
    Message('note_on', channel=11, note=41, velocity=95, time=0),
    Message('note_off', channel=11, note=41, velocity=95, time=480),
    Message('note_on', channel=11, note=41, velocity=95, time=0),
    Message('note_off', channel=11, note=41, velocity=95, time=480),
    Message('note_on', channel=11, note=41, velocity=95, time=0),
    Message('note_off', channel=11, note=41, velocity=95, time=2880),
    Message('note_on', channel=11, note=38, velocity=95, time=0),
    Message('note_off', channel=11, note=38, velocity=95, time=1440),
    Message('note_on', channel=11, note=40, velocity=95, time=0),
    Message('note_off', channel=11, note=40, velocity=95, time=1440),
    Message('note_on', channel=11, note=41, velocity=95, time=0),
    Message('note_off', channel=11, note=41, velocity=95, time=960),
    Message('note_on', channel=11, note=33, velocity=95, time=0),
    Message('note_off', channel=11, note=33, velocity=95, time=3840),
    Message('note_on', channel=11, note=33, velocity=95, time=0),
    Message('note_off', channel=11, note=33, velocity=95, time=1920),
    Message('note_on', channel=11, note=33, velocity=95, time=480),
    Message('note_off', channel=11, note=33, velocity=95, time=480),
    Message('note_on', channel=11, note=38, velocity=95, time=0),
    Message('note_off', channel=11, note=38, velocity=95, time=240),
    Message('note_on', channel=11, note=40, velocity=70, time=0),
    Message('note_off', channel=11, note=40, velocity=70, time=240),
    Message('note_on', channel=11, note=33, velocity=95, time=0),
    Message('note_off', channel=11, note=33, velocity=95, time=480),
    Message('note_on', channel=11, note=41, velocity=95, time=0),
    Message('note_off', channel=11, note=41, velocity=95, time=480),
    Message('note_on', channel=11, note=41, velocity=95, time=0),
    Message('note_off', channel=11, note=41, velocity=95, time=480),
    Message('note_on', channel=11, note=41, velocity=95, time=0),
    Message('note_off', channel=11, note=41, velocity=95, time=2880),
    Message('note_on', channel=11, note=38, velocity=95, time=0),
    Message('note_off', channel=11, note=38, velocity=95, time=1440),
    Message('note_on', channel=11, note=40, velocity=95, time=0),
    Message('note_off', channel=11, note=40, velocity=95, time=1440),
    Message('note_on', channel=11, note=41, velocity=95, time=0),
    Message('note_off', channel=11, note=41, velocity=95, time=960),
    Message('note_on', channel=11, note=33, velocity=95, time=0),
    Message('note_off', channel=11, note=33, velocity=95, time=3840),
    Message('note_on', channel=11, note=33, velocity=95, time=0),
    Message('note_off', channel=11, note=33, velocity=95, time=1920),
    Message('note_on', channel=11, note=33, velocity=95, time=480),
    Message('note_off', channel=11, note=33, velocity=95, time=480),
    Message('note_on', channel=11, note=38, velocity=95, time=0),
    Message('note_off', channel=11, note=38, velocity=95, time=240),
    Message('note_on', channel=11, note=40, velocity=70, time=0),
    Message('note_off', channel=11, note=40, velocity=70, time=240),
    Message('note_on', channel=11, note=33, velocity=95, time=0),
    Message('note_off', channel=11, note=33, velocity=95, time=480),
    Message('note_on', channel=11, note=41, velocity=95, time=0),
    Message('note_off', channel=11, note=41, velocity=95, time=480),
    Message('note_on', channel=11, note=41, velocity=95, time=0),
    Message('note_off', channel=11, note=41, velocity=95, time=480),
    Message('note_on', channel=11, note=41, velocity=95, time=0),
    Message('note_off', channel=11, note=41, velocity=95, time=2880),
    Message('note_on', channel=11, note=38, velocity=95, time=0),
    Message('note_off', channel=11, note=38, velocity=95, time=1440),
    Message('note_on', channel=11, note=40, velocity=95, time=0),
    Message('note_off', channel=11, note=40, velocity=95, time=1440),
    Message('note_on', channel=11, note=36, velocity=95, time=0),
    Message('note_off', channel=11, note=36, velocity=95, time=960),
    Message('note_on', channel=11, note=33, velocity=95, time=0),
    Message('note_off', channel=11, note=33, velocity=95, time=3840),
    Message('note_on', channel=11, note=33, velocity=95, time=0),
    Message('note_off', channel=11, note=33, velocity=95, time=1920),
    Message('note_on', channel=11, note=33, velocity=95, time=480),
    Message('note_off', channel=11, note=33, velocity=95, time=480),
    Message('note_on', channel=11, note=38, velocity=95, time=0),
    Message('note_off', channel=11, note=38, velocity=95, time=240),
    Message('note_on', channel=11, note=40, velocity=70, time=0),
    Message('note_off', channel=11, note=40, velocity=70, time=240),
    Message('note_on', channel=11, note=33, velocity=95, time=0),
    Message('note_off', channel=11, note=33, velocity=95, time=480),
    Message('note_on', channel=11, note=45, velocity=95, time=0),
    Message('note_off', channel=11, note=45, velocity=95, time=960),
    Message('note_on', channel=11, note=33, velocity=95, time=0),
    Message('note_off', channel=11, note=33, velocity=95, time=480),
    Message('note_on', channel=11, note=43, velocity=95, time=0),
    Message('note_off', channel=11, note=43, velocity=95, time=960),
    Message('note_on', channel=11, note=33, velocity=95, time=0),
    Message('note_off', channel=11, note=33, velocity=95, time=480),
    Message('note_on', channel=11, note=38, velocity=95, time=0),
    Message('note_off', channel=11, note=38, velocity=95, time=240),
    Message('note_on', channel=11, note=40, velocity=70, time=0),
    Message('note_off', channel=11, note=40, velocity=70, time=240),
    Message('note_on', channel=11, note=33, velocity=95, time=0),
    Message('note_off', channel=11, note=33, velocity=95, time=480),
    Message('note_on', channel=11, note=45, velocity=95, time=0),
    Message('note_off', channel=11, note=45, velocity=95, time=960),
    Message('note_on', channel=11, note=33, velocity=95, time=0),
    Message('note_off', channel=11, note=33, velocity=95, time=480),
    Message('note_on', channel=11, note=43, velocity=95, time=0),
    Message('note_off', channel=11, note=43, velocity=95, time=960),
    Message('note_on', channel=11, note=33, velocity=95, time=0),
    Message('note_off', channel=11, note=33, velocity=95, time=480),
    Message('note_on', channel=11, note=38, velocity=95, time=0),
    Message('note_off', channel=11, note=38, velocity=95, time=240),
    Message('note_on', channel=11, note=40, velocity=70, time=0),
    Message('note_off', channel=11, note=40, velocity=70, time=240),
    Message('note_on', channel=11, note=33, velocity=95, time=0),
    Message('note_off', channel=11, note=33, velocity=95, time=480),
    Message('note_on', channel=11, note=45, velocity=95, time=0),
    Message('note_off', channel=11, note=45, velocity=95, time=960),
    Message('note_on', channel=11, note=33, velocity=95, time=0),
    Message('note_off', channel=11, note=33, velocity=95, time=480),
    Message('note_on', channel=11, note=43, velocity=95, time=0),
    Message('note_off', channel=11, note=43, velocity=95, time=960),
    Message('note_on', channel=11, note=33, velocity=95, time=0),
    Message('note_off', channel=11, note=33, velocity=95, time=480),
    Message('note_on', channel=11, note=38, velocity=95, time=0),
    Message('note_off', channel=11, note=38, velocity=95, time=240),
    Message('note_on', channel=11, note=40, velocity=70, time=0),
    Message('note_off', channel=11, note=40, velocity=70, time=240),
    Message('note_on', channel=11, note=33, velocity=95, time=0),
    Message('note_off', channel=11, note=33, velocity=95, time=480),
    Message('note_on', channel=11, note=45, velocity=95, time=0),
    Message('note_off', channel=11, note=45, velocity=95, time=960),
    Message('note_on', channel=11, note=33, velocity=95, time=0),
    Message('note_off', channel=11, note=33, velocity=95, time=480),
    Message('note_on', channel=11, note=43, velocity=95, time=0),
    Message('note_off', channel=11, note=43, velocity=95, time=960),
    Message('note_on', channel=11, note=33, velocity=95, time=0),
    Message('note_off', channel=11, note=33, velocity=95, time=480),
    Message('note_on', channel=11, note=38, velocity=95, time=0),
    Message('note_off', channel=11, note=38, velocity=95, time=240),
    Message('note_on', channel=11, note=40, velocity=70, time=0),
    Message('note_off', channel=11, note=40, velocity=70, time=240),
    Message('note_on', channel=11, note=33, velocity=95, time=0),
    Message('note_off', channel=11, note=33, velocity=95, time=480),
    Message('note_on', channel=11, note=45, velocity=95, time=0),
    Message('note_off', channel=11, note=45, velocity=95, time=960),
    Message('note_on', channel=11, note=33, velocity=95, time=0),
    Message('note_off', channel=11, note=33, velocity=95, time=480),
    Message('note_on', channel=11, note=43, velocity=95, time=0),
    Message('note_off', channel=11, note=43, velocity=95, time=960),
    Message('note_on', channel=11, note=33, velocity=95, time=0),
    Message('note_off', channel=11, note=33, velocity=95, time=480),
    Message('note_on', channel=11, note=38, velocity=95, time=0),
    Message('note_off', channel=11, note=38, velocity=95, time=240),
    Message('note_on', channel=11, note=40, velocity=70, time=0),
    Message('note_off', channel=11, note=40, velocity=70, time=240),
    Message('note_on', channel=11, note=33, velocity=95, time=0),
    Message('note_off', channel=11, note=33, velocity=95, time=480),
    Message('note_on', channel=11, note=45, velocity=95, time=0),
    Message('note_off', channel=11, note=45, velocity=95, time=960),
    Message('note_on', channel=11, note=33, velocity=95, time=0),
    Message('note_off', channel=11, note=33, velocity=95, time=480),
    Message('note_on', channel=11, note=43, velocity=95, time=0),
    Message('note_off', channel=11, note=43, velocity=95, time=960),
    Message('note_on', channel=11, note=33, velocity=95, time=0),
    Message('note_off', channel=11, note=33, velocity=95, time=480),
    Message('note_on', channel=11, note=38, velocity=95, time=0),
    Message('note_off', channel=11, note=38, velocity=95, time=240),
    Message('note_on', channel=11, note=40, velocity=70, time=0),
    Message('note_off', channel=11, note=40, velocity=70, time=240),
    Message('note_on', channel=11, note=33, velocity=95, time=0),
    Message('note_off', channel=11, note=33, velocity=95, time=480),
    Message('note_on', channel=11, note=45, velocity=95, time=0),
    Message('note_off', channel=11, note=45, velocity=95, time=960),
    Message('note_on', channel=11, note=33, velocity=95, time=0),
    Message('note_off', channel=11, note=33, velocity=95, time=480),
    Message('note_on', channel=11, note=43, velocity=95, time=0),
    Message('note_off', channel=11, note=43, velocity=95, time=960),
    Message('note_on', channel=11, note=33, velocity=95, time=0),
    Message('note_off', channel=11, note=33, velocity=95, time=480),
    Message('note_on', channel=11, note=38, velocity=95, time=0),
    Message('note_off', channel=11, note=38, velocity=95, time=240),
    Message('note_on', channel=11, note=40, velocity=70, time=0),
    Message('note_off', channel=11, note=40, velocity=70, time=240),
    Message('note_on', channel=11, note=33, velocity=95, time=0),
    Message('note_off', channel=11, note=33, velocity=95, time=480),
    Message('note_on', channel=11, note=33, velocity=95, time=0),
    Message('note_off', channel=11, note=33, velocity=95, time=480),
    Message('note_on', channel=11, note=33, velocity=95, time=0),
    Message('note_off', channel=11, note=33, velocity=95, time=480),
    Message('note_on', channel=11, note=33, velocity=95, time=0),
    Message('note_off', channel=11, note=33, velocity=95, time=480),
    Message('note_on', channel=11, note=33, velocity=95, time=0),
    Message('note_off', channel=11, note=33, velocity=95, time=480),
    Message('note_on', channel=11, note=33, velocity=95, time=0),
    Message('note_off', channel=11, note=33, velocity=95, time=480),
    Message('note_on', channel=11, note=33, velocity=95, time=0),
    Message('note_off', channel=11, note=33, velocity=95, time=480),
    Message('note_on', channel=11, note=38, velocity=95, time=0),
    Message('note_off', channel=11, note=38, velocity=95, time=240),
    Message('note_on', channel=11, note=40, velocity=70, time=0),
    Message('note_off', channel=11, note=40, velocity=70, time=240),
    Message('note_on', channel=11, note=33, velocity=95, time=0),
    Message('note_off', channel=11, note=33, velocity=95, time=480),
    Message('note_on', channel=11, note=41, velocity=95, time=0),
    Message('note_off', channel=11, note=41, velocity=95, time=480),
    Message('note_on', channel=11, note=41, velocity=95, time=0),
    Message('note_off', channel=11, note=41, velocity=95, time=480),
    Message('note_on', channel=11, note=41, velocity=95, time=0),
    Message('note_off', channel=11, note=41, velocity=95, time=2880),
    Message('note_on', channel=11, note=38, velocity=95, time=0),
    Message('note_off', channel=11, note=38, velocity=95, time=1440),
    Message('note_on', channel=11, note=40, velocity=95, time=0),
    Message('note_off', channel=11, note=40, velocity=95, time=1440),
    Message('note_on', channel=11, note=36, velocity=95, time=0),
    Message('note_off', channel=11, note=36, velocity=95, time=960),
    Message('note_on', channel=11, note=33, velocity=95, time=0),
    Message('note_off', channel=11, note=33, velocity=95, time=1440),
    Message('note_on', channel=11, note=35, velocity=95, time=0),
    Message('note_off', channel=11, note=35, velocity=95, time=2400),
    Message('note_on', channel=11, note=36, velocity=95, time=0),
    Message('note_off', channel=11, note=36, velocity=95, time=1440),
    Message('note_on', channel=11, note=38, velocity=95, time=0),
    Message('note_off', channel=11, note=38, velocity=95, time=960),
    Message('note_on', channel=11, note=33, velocity=95, time=0),
    Message('note_off', channel=11, note=33, velocity=95, time=480),
    Message('note_on', channel=11, note=38, velocity=95, time=0),
    Message('note_off', channel=11, note=38, velocity=95, time=240),
    Message('note_on', channel=11, note=40, velocity=70, time=0),
    Message('note_off', channel=11, note=40, velocity=70, time=240),
    Message('note_on', channel=11, note=33, velocity=95, time=0),
    Message('note_off', channel=11, note=33, velocity=95, time=480),
    Message('note_on', channel=11, note=41, velocity=95, time=0),
    Message('note_off', channel=11, note=41, velocity=95, time=480),
    Message('note_on', channel=11, note=41, velocity=95, time=0),
    Message('note_off', channel=11, note=41, velocity=95, time=480),
    Message('note_on', channel=11, note=41, velocity=95, time=0),
    Message('note_off', channel=11, note=41, velocity=95, time=2880),
    Message('note_on', channel=11, note=38, velocity=95, time=0),
    Message('note_off', channel=11, note=38, velocity=95, time=1440),
    Message('note_on', channel=11, note=40, velocity=95, time=0),
    Message('note_off', channel=11, note=40, velocity=95, time=1440),
    Message('note_on', channel=11, note=36, velocity=95, time=0),
    Message('note_off', channel=11, note=36, velocity=95, time=960),
    Message('note_on', channel=11, note=33, velocity=95, time=0),
    Message('note_off', channel=11, note=33, velocity=95, time=3840),
    Message('note_on', channel=11, note=33, velocity=95, time=0),
    Message('note_off', channel=11, note=33, velocity=95, time=1920),
    Message('note_on', channel=11, note=33, velocity=95, time=480),
    Message('note_off', channel=11, note=33, velocity=95, time=480),
    Message('note_on', channel=11, note=38, velocity=95, time=0),
    Message('note_off', channel=11, note=38, velocity=95, time=240),
    Message('note_on', channel=11, note=40, velocity=70, time=0),
    Message('note_off', channel=11, note=40, velocity=70, time=240),
    Message('note_on', channel=11, note=33, velocity=95, time=0),
    Message('note_off', channel=11, note=33, velocity=95, time=480),
    Message('note_on', channel=11, note=41, velocity=95, time=0),
    Message('note_off', channel=11, note=41, velocity=95, time=480),
    Message('note_on', channel=11, note=41, velocity=95, time=0),
    Message('note_off', channel=11, note=41, velocity=95, time=480),
    Message('note_on', channel=11, note=41, velocity=95, time=0),
    Message('note_off', channel=11, note=41, velocity=95, time=2880),
    Message('note_on', channel=11, note=38, velocity=95, time=0),
    Message('note_off', channel=11, note=38, velocity=95, time=1440),
    Message('note_on', channel=11, note=40, velocity=95, time=0),
    Message('note_off', channel=11, note=40, velocity=95, time=1440),
    Message('note_on', channel=11, note=36, velocity=95, time=0),
    Message('note_off', channel=11, note=36, velocity=95, time=960),
    Message('note_on', channel=11, note=33, velocity=95, time=0),
    Message('note_off', channel=11, note=33, velocity=95, time=3840),
    Message('note_on', channel=11, note=33, velocity=95, time=0),
    Message('note_off', channel=11, note=33, velocity=95, time=1920),
    Message('note_on', channel=11, note=33, velocity=95, time=480),
    Message('note_off', channel=11, note=33, velocity=95, time=480),
    Message('note_on', channel=11, note=38, velocity=95, time=0),
    Message('note_off', channel=11, note=38, velocity=95, time=240),
    Message('note_on', channel=11, note=40, velocity=70, time=0),
    Message('note_off', channel=11, note=40, velocity=70, time=240),
    Message('note_on', channel=11, note=33, velocity=95, time=0),
    Message('note_off', channel=11, note=33, velocity=95, time=480),
    Message('note_on', channel=11, note=41, velocity=95, time=0),
    Message('note_off', channel=11, note=41, velocity=95, time=480),
    Message('note_on', channel=11, note=41, velocity=95, time=0),
    Message('note_off', channel=11, note=41, velocity=95, time=480),
    Message('note_on', channel=11, note=41, velocity=95, time=0),
    Message('note_off', channel=11, note=41, velocity=95, time=2880),
    Message('note_on', channel=11, note=38, velocity=95, time=0),
    Message('note_off', channel=11, note=38, velocity=95, time=1440),
    Message('note_on', channel=11, note=40, velocity=95, time=0),
    Message('note_off', channel=11, note=40, velocity=95, time=1440),
    Message('note_on', channel=11, note=36, velocity=95, time=0),
    Message('note_off', channel=11, note=36, velocity=95, time=960),
    Message('note_on', channel=11, note=33, velocity=95, time=0),
    Message('note_off', channel=11, note=33, velocity=95, time=3840),
    Message('note_on', channel=11, note=33, velocity=95, time=0),
    Message('note_off', channel=11, note=33, velocity=95, time=1920),
    Message('note_on', channel=11, note=33, velocity=95, time=480),
    Message('note_off', channel=11, note=33, velocity=95, time=480),
    Message('note_on', channel=11, note=38, velocity=95, time=0),
    Message('note_off', channel=11, note=38, velocity=95, time=240),
    Message('note_on', channel=11, note=40, velocity=70, time=0),
    Message('note_off', channel=11, note=40, velocity=70, time=240),
    Message('note_on', channel=11, note=33, velocity=95, time=0),
    Message('note_off', channel=11, note=33, velocity=95, time=480),
    Message('note_on', channel=11, note=41, velocity=95, time=0),
    Message('note_off', channel=11, note=41, velocity=95, time=480),
    Message('note_on', channel=11, note=41, velocity=95, time=0),
    Message('note_off', channel=11, note=41, velocity=95, time=480),
    Message('note_on', channel=11, note=41, velocity=95, time=0),
    Message('note_off', channel=11, note=41, velocity=95, time=2880),
    Message('note_on', channel=11, note=38, velocity=95, time=0),
    Message('note_off', channel=11, note=38, velocity=95, time=1440),
    Message('note_on', channel=11, note=40, velocity=95, time=0),
    Message('note_off', channel=11, note=40, velocity=95, time=1440),
    Message('note_on', channel=11, note=36, velocity=95, time=0),
    Message('note_off', channel=11, note=36, velocity=95, time=960),
    Message('note_on', channel=11, note=33, velocity=95, time=0),
    Message('note_off', channel=11, note=33, velocity=95, time=3840),
    Message('note_on', channel=11, note=33, velocity=95, time=0),
    Message('note_off', channel=11, note=33, velocity=95, time=1920),
    Message('note_on', channel=11, note=33, velocity=95, time=480),
    Message('note_off', channel=11, note=33, velocity=95, time=480),
    Message('note_on', channel=11, note=38, velocity=95, time=0),
    Message('note_off', channel=11, note=38, velocity=95, time=240),
    Message('note_on', channel=11, note=40, velocity=70, time=0),
    Message('note_off', channel=11, note=40, velocity=70, time=240),
    Message('note_on', channel=11, note=33, velocity=95, time=0),
    Message('note_off', channel=11, note=33, velocity=95, time=480),
    Message('note_on', channel=11, note=41, velocity=95, time=0),
    Message('note_off', channel=11, note=41, velocity=95, time=480),
    Message('note_on', channel=11, note=41, velocity=95, time=0),
    Message('note_off', channel=11, note=41, velocity=95, time=480),
    Message('note_on', channel=11, note=41, velocity=95, time=0),
    Message('note_off', channel=11, note=41, velocity=95, time=2880),
    Message('note_on', channel=11, note=38, velocity=95, time=0),
    Message('note_off', channel=11, note=38, velocity=95, time=1440),
    Message('note_on', channel=11, note=40, velocity=95, time=0),
    Message('note_off', channel=11, note=40, velocity=95, time=1440),
    Message('note_on', channel=11, note=36, velocity=95, time=0),
    Message('note_off', channel=11, note=36, velocity=95, time=960),
    Message('note_on', channel=11, note=33, velocity=95, time=0),
    Message('note_off', channel=11, note=33, velocity=95, time=3840),
    Message('note_on', channel=11, note=33, velocity=95, time=0),
    Message('note_off', channel=11, note=33, velocity=95, time=1920),
    Message('note_on', channel=11, note=33, velocity=95, time=480),
    Message('note_off', channel=11, note=33, velocity=95, time=480),
    Message('note_on', channel=11, note=38, velocity=95, time=0),
    Message('note_off', channel=11, note=38, velocity=95, time=240),
    Message('note_on', channel=11, note=40, velocity=70, time=0),
    Message('note_off', channel=11, note=40, velocity=70, time=240),
    Message('note_on', channel=11, note=33, velocity=95, time=0),
    Message('note_off', channel=11, note=33, velocity=95, time=480),
    Message('note_on', channel=11, note=41, velocity=95, time=0),
    Message('note_off', channel=11, note=41, velocity=95, time=480),
    Message('note_on', channel=11, note=41, velocity=95, time=0),
    Message('note_off', channel=11, note=41, velocity=95, time=480),
    Message('note_on', channel=11, note=41, velocity=95, time=0),
    Message('note_off', channel=11, note=41, velocity=95, time=2880),
    Message('note_on', channel=11, note=38, velocity=95, time=0),
    Message('note_off', channel=11, note=38, velocity=95, time=1440),
    Message('note_on', channel=11, note=40, velocity=95, time=0),
    Message('note_off', channel=11, note=40, velocity=95, time=1440),
    Message('note_on', channel=11, note=36, velocity=95, time=0),
    Message('note_off', channel=11, note=36, velocity=95, time=960),
    Message('note_on', channel=11, note=33, velocity=95, time=0),
    Message('note_off', channel=11, note=33, velocity=95, time=3840),
    Message('note_on', channel=11, note=33, velocity=95, time=0),
    Message('note_off', channel=11, note=33, velocity=95, time=1920),
    Message('note_on', channel=11, note=33, velocity=95, time=480),
    Message('note_off', channel=11, note=33, velocity=95, time=480),
    Message('note_on', channel=11, note=38, velocity=95, time=0),
    Message('note_off', channel=11, note=38, velocity=95, time=240),
    Message('note_on', channel=11, note=40, velocity=70, time=0),
    Message('note_off', channel=11, note=40, velocity=70, time=240),
    Message('note_on', channel=11, note=33, velocity=95, time=0),
    Message('note_off', channel=11, note=33, velocity=95, time=480),
    Message('note_on', channel=11, note=41, velocity=95, time=0),
    Message('note_off', channel=11, note=41, velocity=95, time=480),
    Message('note_on', channel=11, note=41, velocity=95, time=0),
    Message('note_off', channel=11, note=41, velocity=95, time=480),
    Message('note_on', channel=11, note=41, velocity=95, time=0),
    Message('note_off', channel=11, note=41, velocity=95, time=2880),
    Message('note_on', channel=11, note=38, velocity=95, time=0),
    Message('note_off', channel=11, note=38, velocity=95, time=1440),
    Message('note_on', channel=11, note=40, velocity=95, time=0),
    Message('note_off', channel=11, note=40, velocity=95, time=1440),
    Message('note_on', channel=11, note=36, velocity=95, time=0),
    Message('note_off', channel=11, note=36, velocity=95, time=960),
    Message('note_on', channel=11, note=33, velocity=95, time=0),
    Message('note_off', channel=11, note=33, velocity=95, time=3840),
    Message('note_on', channel=11, note=33, velocity=95, time=0),
    Message('note_off', channel=11, note=33, velocity=95, time=1920),
    Message('note_on', channel=11, note=33, velocity=95, time=480),
    Message('note_off', channel=11, note=33, velocity=95, time=480),
    Message('note_on', channel=11, note=38, velocity=95, time=0),
    Message('note_off', channel=11, note=38, velocity=95, time=240),
    Message('note_on', channel=11, note=40, velocity=70, time=0),
    Message('note_off', channel=11, note=40, velocity=70, time=240),
    Message('note_on', channel=11, note=33, velocity=95, time=0),
    Message('note_off', channel=11, note=33, velocity=95, time=480),
    Message('note_on', channel=11, note=41, velocity=95, time=0),
    Message('note_off', channel=11, note=41, velocity=95, time=480),
    Message('note_on', channel=11, note=41, velocity=95, time=0),
    Message('note_off', channel=11, note=41, velocity=95, time=480),
    Message('note_on', channel=11, note=41, velocity=95, time=0),
    Message('note_off', channel=11, note=41, velocity=95, time=2880),
    Message('note_on', channel=11, note=38, velocity=95, time=0),
    Message('note_off', channel=11, note=38, velocity=95, time=1440),
    Message('note_on', channel=11, note=40, velocity=95, time=0),
    Message('note_off', channel=11, note=40, velocity=95, time=1440),
    Message('note_on', channel=11, note=36, velocity=95, time=0),
    Message('note_off', channel=11, note=36, velocity=95, time=960),
    Message('note_on', channel=11, note=33, velocity=95, time=0),
    Message('note_off', channel=11, note=33, velocity=95, time=3840),
    Message('note_on', channel=11, note=33, velocity=95, time=0),
    Message('note_off', channel=11, note=33, velocity=95, time=1920),
    Message('note_on', channel=11, note=33, velocity=95, time=480),
    Message('note_off', channel=11, note=33, velocity=95, time=480),
    Message('note_on', channel=11, note=38, velocity=95, time=0),
    Message('note_off', channel=11, note=38, velocity=95, time=240),
    Message('note_on', channel=11, note=40, velocity=70, time=0),
    Message('note_off', channel=11, note=40, velocity=70, time=240),
    Message('note_on', channel=11, note=33, velocity=95, time=0),
    Message('note_off', channel=11, note=33, velocity=95, time=480),
    Message('note_on', channel=11, note=41, velocity=95, time=0),
    Message('note_off', channel=11, note=41, velocity=95, time=480),
    Message('note_on', channel=11, note=41, velocity=95, time=0),
    Message('note_off', channel=11, note=41, velocity=95, time=480),
    Message('note_on', channel=11, note=41, velocity=95, time=0),
    Message('note_off', channel=11, note=41, velocity=95, time=2880),
    Message('note_on', channel=11, note=38, velocity=95, time=0),
    Message('note_off', channel=11, note=38, velocity=95, time=1440),
    Message('note_on', channel=11, note=40, velocity=95, time=0),
    Message('note_off', channel=11, note=40, velocity=95, time=1440),
    Message('note_on', channel=11, note=36, velocity=95, time=0),
    Message('note_off', channel=11, note=36, velocity=95, time=960),
    Message('note_on', channel=11, note=33, velocity=95, time=0),
    Message('note_off', channel=11, note=33, velocity=95, time=3840),
    Message('note_on', channel=11, note=33, velocity=95, time=0),
    Message('note_off', channel=11, note=33, velocity=95, time=1920),
    Message('note_on', channel=11, note=33, velocity=95, time=480),
    Message('note_off', channel=11, note=33, velocity=95, time=480),
    Message('note_on', channel=11, note=38, velocity=95, time=0),
    Message('note_off', channel=11, note=38, velocity=95, time=240),
    Message('note_on', channel=11, note=40, velocity=70, time=0),
    Message('note_off', channel=11, note=40, velocity=70, time=240),
    Message('note_on', channel=11, note=33, velocity=95, time=0),
    Message('note_off', channel=11, note=33, velocity=95, time=480),
    Message('note_on', channel=11, note=41, velocity=95, time=0),
    Message('note_off', channel=11, note=41, velocity=95, time=480),
    Message('note_on', channel=11, note=41, velocity=95, time=0),
    Message('note_off', channel=11, note=41, velocity=95, time=480),
    Message('note_on', channel=11, note=41, velocity=95, time=0),
    Message('note_off', channel=11, note=41, velocity=95, time=2880),
    Message('note_on', channel=11, note=38, velocity=95, time=0),
    Message('note_off', channel=11, note=38, velocity=95, time=1440),
    Message('note_on', channel=11, note=40, velocity=95, time=0),
    Message('note_off', channel=11, note=40, velocity=95, time=1440),
    Message('note_on', channel=11, note=36, velocity=95, time=0),
    Message('note_off', channel=11, note=36, velocity=95, time=960),
    Message('note_on', channel=11, note=33, velocity=95, time=0),
    Message('note_off', channel=11, note=33, velocity=95, time=3840),
    Message('note_on', channel=11, note=33, velocity=95, time=0),
    Message('note_off', channel=11, note=33, velocity=95, time=1920),
    Message('note_on', channel=11, note=33, velocity=95, time=480),
    Message('note_off', channel=11, note=33, velocity=95, time=480),
    Message('note_on', channel=11, note=38, velocity=95, time=0),
    Message('note_off', channel=11, note=38, velocity=95, time=240),
    Message('note_on', channel=11, note=40, velocity=70, time=0),
    Message('note_off', channel=11, note=40, velocity=70, time=240),
    Message('note_on', channel=11, note=33, velocity=95, time=0),
    Message('note_off', channel=11, note=33, velocity=95, time=480),
    Message('note_on', channel=11, note=41, velocity=95, time=0),
    Message('note_off', channel=11, note=41, velocity=95, time=480),
    Message('note_on', channel=11, note=41, velocity=95, time=0),
    Message('note_off', channel=11, note=41, velocity=95, time=480),
    Message('note_on', channel=11, note=41, velocity=95, time=0),
    Message('note_off', channel=11, note=41, velocity=95, time=2880),
    Message('note_on', channel=11, note=38, velocity=95, time=0),
    Message('note_off', channel=11, note=38, velocity=95, time=1440),
    Message('note_on', channel=11, note=40, velocity=95, time=0),
    Message('note_off', channel=11, note=40, velocity=95, time=1440),
    Message('note_on', channel=11, note=36, velocity=95, time=0),
    Message('note_off', channel=11, note=36, velocity=95, time=960),
    Message('note_on', channel=11, note=33, velocity=95, time=0),
    Message('note_off', channel=11, note=33, velocity=95, time=3840),
    Message('note_on', channel=11, note=33, velocity=95, time=0),
    Message('note_off', channel=11, note=33, velocity=95, time=1920),
    Message('note_on', channel=11, note=33, velocity=95, time=480),
    Message('note_off', channel=11, note=33, velocity=95, time=480),
    Message('note_on', channel=11, note=38, velocity=95, time=0),
    Message('note_off', channel=11, note=38, velocity=95, time=240),
    Message('note_on', channel=11, note=40, velocity=70, time=0),
    Message('note_off', channel=11, note=40, velocity=70, time=240),
    Message('note_on', channel=11, note=33, velocity=95, time=0),
    Message('note_off', channel=11, note=33, velocity=95, time=480),
    Message('note_on', channel=11, note=41, velocity=95, time=0),
    Message('note_off', channel=11, note=41, velocity=95, time=480),
    Message('note_on', channel=11, note=41, velocity=95, time=0),
    Message('note_off', channel=11, note=41, velocity=95, time=480),
    Message('note_on', channel=11, note=41, velocity=95, time=0),
    Message('note_off', channel=11, note=41, velocity=95, time=2880),
    Message('note_on', channel=11, note=38, velocity=95, time=0),
    Message('note_off', channel=11, note=38, velocity=95, time=1440),
    Message('note_on', channel=11, note=40, velocity=95, time=0),
    Message('note_off', channel=11, note=40, velocity=95, time=1440),
    Message('note_on', channel=11, note=36, velocity=95, time=0),
    Message('note_off', channel=11, note=36, velocity=95, time=960),
    Message('note_on', channel=11, note=33, velocity=95, time=0),
    Message('note_off', channel=11, note=33, velocity=95, time=3840),
    Message('note_on', channel=11, note=33, velocity=95, time=0),
    Message('note_off', channel=11, note=33, velocity=95, time=1920),
    Message('note_on', channel=11, note=33, velocity=95, time=480),
    Message('note_off', channel=11, note=33, velocity=95, time=480),
    Message('note_on', channel=11, note=38, velocity=95, time=0),
    Message('note_off', channel=11, note=38, velocity=95, time=240),
    Message('note_on', channel=11, note=40, velocity=70, time=0),
    Message('note_off', channel=11, note=40, velocity=70, time=240),
    Message('note_on', channel=11, note=33, velocity=95, time=0),
    Message('note_off', channel=11, note=33, velocity=95, time=480),
    Message('note_on', channel=11, note=41, velocity=95, time=0),
    Message('note_off', channel=11, note=41, velocity=95, time=480),
    Message('note_on', channel=11, note=41, velocity=95, time=0),
    Message('note_off', channel=11, note=41, velocity=95, time=480),
    Message('note_on', channel=11, note=41, velocity=95, time=0),
    Message('note_off', channel=11, note=41, velocity=95, time=2880),
    Message('note_on', channel=11, note=38, velocity=95, time=0),
    Message('note_off', channel=11, note=38, velocity=95, time=1440),
    Message('note_on', channel=11, note=40, velocity=95, time=0),
    Message('note_off', channel=11, note=40, velocity=95, time=1440),
    Message('note_on', channel=11, note=36, velocity=95, time=0),
    Message('note_off', channel=11, note=36, velocity=95, time=960),
    Message('note_on', channel=11, note=33, velocity=95, time=0),
    Message('note_off', channel=11, note=33, velocity=95, time=3840),
    Message('note_on', channel=11, note=33, velocity=95, time=0),
    Message('note_off', channel=11, note=33, velocity=95, time=1920),
    Message('note_on', channel=11, note=33, velocity=95, time=480),
    Message('note_off', channel=11, note=33, velocity=95, time=480),
    Message('note_on', channel=11, note=38, velocity=95, time=0),
    Message('note_off', channel=11, note=38, velocity=95, time=240),
    Message('note_on', channel=11, note=40, velocity=70, time=0),
    Message('note_off', channel=11, note=40, velocity=70, time=240),
    Message('note_on', channel=11, note=33, velocity=95, time=0),
    Message('note_off', channel=11, note=33, velocity=95, time=480),
    Message('note_on', channel=11, note=33, velocity=95, time=0),
    Message('note_off', channel=11, note=33, velocity=95, time=480),
    Message('note_on', channel=11, note=52, velocity=95, time=0),
    Message('note_off', channel=11, note=52, velocity=95, time=480),
    Message('note_on', channel=11, note=55, velocity=95, time=0),
    Message('note_off', channel=11, note=55, velocity=95, time=480),
    Message('note_on', channel=11, note=52, velocity=95, time=0),
    Message('note_off', channel=11, note=52, velocity=95, time=480),
    Message('note_on', channel=11, note=33, velocity=95, time=0),
    Message('note_off', channel=11, note=33, velocity=95, time=480),
    Message('note_on', channel=11, note=50, velocity=95, time=0),
    Message('note_off', channel=11, note=50, velocity=95, time=480),
    Message('note_on', channel=11, note=54, velocity=95, time=0),
    Message('note_off', channel=11, note=54, velocity=95, time=480),
    Message('note_on', channel=11, note=50, velocity=95, time=0),
    Message('note_off', channel=11, note=50, velocity=95, time=480),
    Message('note_on', channel=11, note=33, velocity=95, time=0),
    Message('note_off', channel=11, note=33, velocity=95, time=480),
    Message('note_on', channel=11, note=47, velocity=95, time=0),
    Message('note_off', channel=11, note=47, velocity=95, time=480),
    Message('note_on', channel=11, note=50, velocity=95, time=0),
    Message('note_off', channel=11, note=50, velocity=95, time=480),
    Message('note_on', channel=11, note=33, velocity=95, time=0),
    Message('note_off', channel=11, note=33, velocity=95, time=960),
    Message('note_on', channel=11, note=48, velocity=95, time=0),
    Message('note_off', channel=11, note=48, velocity=95, time=480),
    Message('note_on', channel=11, note=52, velocity=95, time=0),
    Message('note_off', channel=11, note=52, velocity=95, time=480),
    Message('note_on', channel=11, note=48, velocity=95, time=0),
    Message('note_off', channel=11, note=48, velocity=95, time=480),
    Message('note_on', channel=11, note=33, velocity=95, time=0),
    Message('note_off', channel=11, note=33, velocity=95, time=480),
    Message('note_on', channel=11, note=43, velocity=95, time=0),
    Message('note_off', channel=11, note=43, velocity=95, time=480),
    Message('note_on', channel=11, note=47, velocity=95, time=0),
    Message('note_off', channel=11, note=47, velocity=95, time=480),
    Message('note_on', channel=11, note=33, velocity=95, time=0),
    Message('note_off', channel=11, note=33, velocity=95, time=960),
    Message('note_on', channel=11, note=45, velocity=95, time=0),
    Message('note_off', channel=11, note=45, velocity=95, time=480),
    Message('note_on', channel=11, note=48, velocity=95, time=0),
    Message('note_off', channel=11, note=48, velocity=95, time=480),
    Message('note_on', channel=11, note=45, velocity=95, time=0),
    Message('note_off', channel=11, note=45, velocity=95, time=480),
    Message('note_on', channel=11, note=33, velocity=95, time=0),
    Message('note_off', channel=11, note=33, velocity=95, time=480),
    Message('note_on', channel=11, note=43, velocity=95, time=0),
    Message('note_off', channel=11, note=43, velocity=95, time=480),
    Message('note_on', channel=11, note=47, velocity=95, time=0),
    Message('note_off', channel=11, note=47, velocity=95, time=480),
    Message('note_on', channel=11, note=33, velocity=95, time=0),
    Message('note_off', channel=11, note=33, velocity=95, time=960),
    Message('note_on', channel=11, note=45, velocity=95, time=0),
    Message('note_off', channel=11, note=45, velocity=95, time=480),
    Message('note_on', channel=11, note=48, velocity=95, time=0),
    Message('note_off', channel=11, note=48, velocity=95, time=480),
    Message('note_on', channel=11, note=45, velocity=95, time=0),
    Message('note_off', channel=11, note=45, velocity=95, time=480),
    Message('note_on', channel=11, note=33, velocity=95, time=0),
    Message('note_off', channel=11, note=33, velocity=95, time=480),
    Message('note_on', channel=11, note=52, velocity=95, time=0),
    Message('note_off', channel=11, note=52, velocity=95, time=480),
    Message('note_on', channel=11, note=55, velocity=95, time=0),
    Message('note_off', channel=11, note=55, velocity=95, time=480),
    Message('note_on', channel=11, note=33, velocity=95, time=0),
    Message('note_off', channel=11, note=33, velocity=95, time=960),
    Message('note_on', channel=11, note=50, velocity=95, time=0),
    Message('note_off', channel=11, note=50, velocity=95, time=480),
    Message('note_on', channel=11, note=54, velocity=95, time=0),
    Message('note_off', channel=11, note=54, velocity=95, time=480),
    Message('note_on', channel=11, note=50, velocity=95, time=0),
    Message('note_off', channel=11, note=50, velocity=95, time=480),
    Message('note_on', channel=11, note=33, velocity=95, time=0),
    Message('note_off', channel=11, note=33, velocity=95, time=480),
    Message('note_on', channel=11, note=47, velocity=95, time=0),
    Message('note_off', channel=11, note=47, velocity=95, time=480),
    Message('note_on', channel=11, note=50, velocity=95, time=0),
    Message('note_off', channel=11, note=50, velocity=95, time=480),
    Message('note_on', channel=11, note=33, velocity=95, time=0),
    Message('note_off', channel=11, note=33, velocity=95, time=960),
    Message('note_on', channel=11, note=48, velocity=95, time=0),
    Message('note_off', channel=11, note=48, velocity=95, time=480),
    Message('note_on', channel=11, note=52, velocity=95, time=0),
    Message('note_off', channel=11, note=52, velocity=95, time=480),
    Message('note_on', channel=11, note=48, velocity=95, time=0),
    Message('note_off', channel=11, note=48, velocity=95, time=480),
    Message('note_on', channel=11, note=33, velocity=95, time=0),
    Message('note_off', channel=11, note=33, velocity=95, time=480),
    Message('note_on', channel=11, note=43, velocity=95, time=0),
    Message('note_off', channel=11, note=43, velocity=95, time=480),
    Message('note_on', channel=11, note=47, velocity=95, time=0),
    Message('note_off', channel=11, note=47, velocity=95, time=480),
    Message('note_on', channel=11, note=33, velocity=95, time=0),
    Message('note_off', channel=11, note=33, velocity=95, time=960),
    Message('note_on', channel=11, note=45, velocity=95, time=0),
    Message('note_off', channel=11, note=45, velocity=95, time=480),
    Message('note_on', channel=11, note=48, velocity=95, time=0),
    Message('note_off', channel=11, note=48, velocity=95, time=480),
    Message('note_on', channel=11, note=45, velocity=95, time=0),
    Message('note_off', channel=11, note=45, velocity=95, time=480),
    Message('note_on', channel=11, note=33, velocity=95, time=0),
    Message('note_off', channel=11, note=33, velocity=95, time=480),
    Message('note_on', channel=11, note=43, velocity=95, time=0),
    Message('note_off', channel=11, note=43, velocity=95, time=480),
    Message('note_on', channel=11, note=47, velocity=95, time=0),
    Message('note_off', channel=11, note=47, velocity=95, time=480),
    Message('note_on', channel=11, note=33, velocity=95, time=0),
    Message('note_off', channel=11, note=33, velocity=95, time=4800),
    MetaMessage('end_of_track', time=0)]),
  MidiTrack([
    Message('pitchwheel', channel=13, pitch=0, time=0),
    Message('control_change', channel=13, control=7, value=127, time=0),
    Message('control_change', channel=13, control=10, value=87, time=0),
    Message('control_change', channel=13, control=93, value=0, time=0),
    Message('control_change', channel=13, control=91, value=0, time=0),
    Message('control_change', channel=13, control=95, value=0, time=0),
    Message('control_change', channel=13, control=92, value=0, time=0),
    Message('control_change', channel=13, control=11, value=127, time=0),
    Message('program_change', channel=13, program=33, time=0),
    Message('control_change', channel=14, control=7, value=127, time=0),
    Message('control_change', channel=14, control=10, value=87, time=0),
    Message('control_change', channel=14, control=93, value=0, time=0),
    Message('control_change', channel=14, control=91, value=0, time=0),
    Message('control_change', channel=14, control=95, value=0, time=0),
    Message('control_change', channel=14, control=92, value=0, time=0),
    Message('control_change', channel=14, control=11, value=127, time=0),
    Message('program_change', channel=14, program=33, time=0),
    Message('note_on', channel=13, note=33, velocity=95, time=6240),
    Message('note_off', channel=13, note=33, velocity=95, time=480),
    Message('note_on', channel=13, note=38, velocity=95, time=0),
    Message('note_off', channel=13, note=38, velocity=95, time=240),
    Message('note_on', channel=13, note=40, velocity=70, time=0),
    Message('note_off', channel=13, note=40, velocity=70, time=240),
    Message('note_on', channel=13, note=33, velocity=95, time=0),
    Message('note_off', channel=13, note=33, velocity=95, time=480),
    Message('note_on', channel=13, note=45, velocity=95, time=0),
    Message('note_off', channel=13, note=45, velocity=95, time=960),
    Message('note_on', channel=13, note=33, velocity=95, time=0),
    Message('note_off', channel=13, note=33, velocity=95, time=480),
    Message('note_on', channel=13, note=43, velocity=95, time=0),
    Message('note_off', channel=13, note=43, velocity=95, time=4320),
    Message('note_on', channel=13, note=33, velocity=95, time=480),
    Message('note_off', channel=13, note=33, velocity=95, time=480),
    Message('note_on', channel=13, note=38, velocity=95, time=0),
    Message('note_off', channel=13, note=38, velocity=95, time=240),
    Message('note_on', channel=13, note=40, velocity=70, time=0),
    Message('note_off', channel=13, note=40, velocity=70, time=240),
    Message('note_on', channel=13, note=33, velocity=95, time=0),
    Message('note_off', channel=13, note=33, velocity=95, time=480),
    Message('note_on', channel=13, note=45, velocity=95, time=0),
    Message('note_off', channel=13, note=45, velocity=95, time=960),
    Message('note_on', channel=13, note=33, velocity=95, time=0),
    Message('note_off', channel=13, note=33, velocity=95, time=480),
    Message('note_on', channel=13, note=43, velocity=95, time=0),
    Message('note_off', channel=13, note=43, velocity=95, time=4320),
    Message('note_on', channel=13, note=33, velocity=95, time=480),
    Message('note_off', channel=13, note=33, velocity=95, time=480),
    Message('note_on', channel=13, note=38, velocity=95, time=0),
    Message('note_off', channel=13, note=38, velocity=95, time=240),
    Message('note_on', channel=13, note=40, velocity=70, time=0),
    Message('note_off', channel=13, note=40, velocity=70, time=240),
    Message('note_on', channel=13, note=33, velocity=95, time=0),
    Message('note_off', channel=13, note=33, velocity=95, time=480),
    Message('note_on', channel=13, note=45, velocity=95, time=0),
    Message('note_off', channel=13, note=45, velocity=95, time=960),
    Message('note_on', channel=13, note=33, velocity=95, time=0),
    Message('note_off', channel=13, note=33, velocity=95, time=480),
    Message('note_on', channel=13, note=43, velocity=95, time=0),
    Message('note_off', channel=13, note=43, velocity=95, time=4320),
    Message('note_on', channel=13, note=33, velocity=95, time=480),
    Message('note_off', channel=13, note=33, velocity=95, time=480),
    Message('note_on', channel=13, note=38, velocity=95, time=0),
    Message('note_off', channel=13, note=38, velocity=95, time=240),
    Message('note_on', channel=13, note=40, velocity=70, time=0),
    Message('note_off', channel=13, note=40, velocity=70, time=240),
    Message('note_on', channel=13, note=33, velocity=95, time=0),
    Message('note_off', channel=13, note=33, velocity=95, time=480),
    Message('note_on', channel=13, note=45, velocity=95, time=0),
    Message('note_off', channel=13, note=45, velocity=95, time=960),
    Message('note_on', channel=13, note=33, velocity=95, time=0),
    Message('note_off', channel=13, note=33, velocity=95, time=480),
    Message('note_on', channel=13, note=43, velocity=95, time=0),
    Message('note_off', channel=13, note=43, velocity=95, time=1440),
    Message('note_on', channel=13, note=43, velocity=95, time=0),
    Message('note_off', channel=13, note=43, velocity=95, time=480),
    Message('note_on', channel=13, note=43, velocity=95, time=0),
    Message('note_off', channel=13, note=43, velocity=95, time=480),
    Message('note_on', channel=13, note=43, velocity=95, time=0),
    Message('note_off', channel=13, note=43, velocity=95, time=480),
    Message('note_on', channel=13, note=43, velocity=95, time=0),
    Message('note_off', channel=13, note=43, velocity=95, time=480),
    Message('note_on', channel=13, note=43, velocity=95, time=0),
    Message('note_off', channel=13, note=43, velocity=95, time=480),
    Message('note_on', channel=13, note=43, velocity=95, time=0),
    Message('note_off', channel=13, note=43, velocity=95, time=480),
    Message('note_on', channel=13, note=43, velocity=95, time=0),
    Message('note_off', channel=13, note=43, velocity=95, time=480),
    Message('note_on', channel=13, note=33, velocity=95, time=0),
    Message('note_off', channel=13, note=33, velocity=95, time=480),
    Message('note_on', channel=13, note=38, velocity=95, time=0),
    Message('note_off', channel=13, note=38, velocity=95, time=240),
    Message('note_on', channel=13, note=40, velocity=70, time=0),
    Message('note_off', channel=13, note=40, velocity=70, time=240),
    Message('note_on', channel=13, note=33, velocity=95, time=0),
    Message('note_off', channel=13, note=33, velocity=95, time=480),
    Message('note_on', channel=13, note=45, velocity=95, time=0),
    Message('note_off', channel=13, note=45, velocity=95, time=960),
    Message('note_on', channel=13, note=33, velocity=95, time=0),
    Message('note_off', channel=13, note=33, velocity=95, time=480),
    Message('note_on', channel=13, note=43, velocity=95, time=0),
    Message('note_off', channel=13, note=43, velocity=95, time=960),
    Message('note_on', channel=13, note=33, velocity=95, time=0),
    Message('note_off', channel=13, note=33, velocity=95, time=480),
    Message('note_on', channel=13, note=38, velocity=95, time=0),
    Message('note_off', channel=13, note=38, velocity=95, time=240),
    Message('note_on', channel=13, note=40, velocity=70, time=0),
    Message('note_off', channel=13, note=40, velocity=70, time=240),
    Message('note_on', channel=13, note=33, velocity=95, time=0),
    Message('note_off', channel=13, note=33, velocity=95, time=480),
    Message('note_on', channel=13, note=45, velocity=95, time=0),
    Message('note_off', channel=13, note=45, velocity=95, time=960),
    Message('note_on', channel=13, note=33, velocity=95, time=0),
    Message('note_off', channel=13, note=33, velocity=95, time=480),
    Message('note_on', channel=13, note=43, velocity=95, time=0),
    Message('note_off', channel=13, note=43, velocity=95, time=960),
    Message('note_on', channel=13, note=33, velocity=95, time=0),
    Message('note_off', channel=13, note=33, velocity=95, time=480),
    Message('note_on', channel=13, note=38, velocity=95, time=0),
    Message('note_off', channel=13, note=38, velocity=95, time=240),
    Message('note_on', channel=13, note=40, velocity=70, time=0),
    Message('note_off', channel=13, note=40, velocity=70, time=240),
    Message('note_on', channel=13, note=33, velocity=95, time=0),
    Message('note_off', channel=13, note=33, velocity=95, time=480),
    Message('note_on', channel=13, note=45, velocity=95, time=0),
    Message('note_off', channel=13, note=45, velocity=95, time=960),
    Message('note_on', channel=13, note=33, velocity=95, time=0),
    Message('note_off', channel=13, note=33, velocity=95, time=480),
    Message('note_on', channel=13, note=37, velocity=95, time=0),
    Message('note_off', channel=13, note=37, velocity=95, time=960),
    Message('note_on', channel=13, note=33, velocity=95, time=0),
    Message('note_off', channel=13, note=33, velocity=95, time=480),
    Message('note_on', channel=13, note=38, velocity=95, time=0),
    Message('note_off', channel=13, note=38, velocity=95, time=240),
    Message('note_on', channel=13, note=40, velocity=70, time=0),
    Message('note_off', channel=13, note=40, velocity=70, time=240),
    Message('note_on', channel=13, note=33, velocity=95, time=0),
    Message('note_off', channel=13, note=33, velocity=95, time=480),
    Message('note_on', channel=13, note=45, velocity=95, time=0),
    Message('note_off', channel=13, note=45, velocity=95, time=960),
    Message('note_on', channel=13, note=33, velocity=95, time=0),
    Message('note_off', channel=13, note=33, velocity=95, time=480),
    Message('note_on', channel=13, note=43, velocity=95, time=0),
    Message('note_off', channel=13, note=43, velocity=95, time=960),
    Message('note_on', channel=13, note=33, velocity=95, time=0),
    Message('note_off', channel=13, note=33, velocity=95, time=480),
    Message('note_on', channel=13, note=38, velocity=95, time=0),
    Message('note_off', channel=13, note=38, velocity=95, time=240),
    Message('note_on', channel=13, note=40, velocity=70, time=0),
    Message('note_off', channel=13, note=40, velocity=70, time=240),
    Message('note_on', channel=13, note=33, velocity=95, time=0),
    Message('note_off', channel=13, note=33, velocity=95, time=480),
    Message('note_on', channel=13, note=45, velocity=95, time=0),
    Message('note_off', channel=13, note=45, velocity=95, time=960),
    Message('note_on', channel=13, note=33, velocity=95, time=0),
    Message('note_off', channel=13, note=33, velocity=95, time=480),
    Message('note_on', channel=13, note=43, velocity=95, time=0),
    Message('note_off', channel=13, note=43, velocity=95, time=960),
    Message('note_on', channel=13, note=33, velocity=95, time=0),
    Message('note_off', channel=13, note=33, velocity=95, time=480),
    Message('note_on', channel=13, note=38, velocity=95, time=0),
    Message('note_off', channel=13, note=38, velocity=95, time=240),
    Message('note_on', channel=13, note=40, velocity=70, time=0),
    Message('note_off', channel=13, note=40, velocity=70, time=240),
    Message('note_on', channel=13, note=33, velocity=95, time=0),
    Message('note_off', channel=13, note=33, velocity=95, time=480),
    Message('note_on', channel=13, note=45, velocity=95, time=0),
    Message('note_off', channel=13, note=45, velocity=95, time=960),
    Message('note_on', channel=13, note=33, velocity=95, time=0),
    Message('note_off', channel=13, note=33, velocity=95, time=480),
    Message('note_on', channel=13, note=43, velocity=95, time=0),
    Message('note_off', channel=13, note=43, velocity=95, time=960),
    Message('note_on', channel=13, note=33, velocity=95, time=0),
    Message('note_off', channel=13, note=33, velocity=95, time=480),
    Message('note_on', channel=13, note=38, velocity=95, time=0),
    Message('note_off', channel=13, note=38, velocity=95, time=240),
    Message('note_on', channel=13, note=40, velocity=70, time=0),
    Message('note_off', channel=13, note=40, velocity=70, time=240),
    Message('note_on', channel=13, note=33, velocity=95, time=0),
    Message('note_off', channel=13, note=33, velocity=95, time=480),
    Message('note_on', channel=13, note=45, velocity=95, time=0),
    Message('note_off', channel=13, note=45, velocity=95, time=960),
    Message('note_on', channel=13, note=33, velocity=95, time=0),
    Message('note_off', channel=13, note=33, velocity=95, time=480),
    Message('note_on', channel=13, note=43, velocity=95, time=0),
    Message('note_off', channel=13, note=43, velocity=95, time=960),
    Message('note_on', channel=13, note=33, velocity=95, time=0),
    Message('note_off', channel=13, note=33, velocity=95, time=480),
    Message('note_on', channel=13, note=38, velocity=95, time=0),
    Message('note_off', channel=13, note=38, velocity=95, time=240),
    Message('note_on', channel=13, note=40, velocity=70, time=0),
    Message('note_off', channel=13, note=40, velocity=70, time=240),
    Message('note_on', channel=13, note=33, velocity=95, time=0),
    Message('note_off', channel=13, note=33, velocity=95, time=480),
    Message('note_on', channel=13, note=45, velocity=95, time=0),
    Message('note_off', channel=13, note=45, velocity=95, time=960),
    Message('note_on', channel=13, note=33, velocity=95, time=0),
    Message('note_off', channel=13, note=33, velocity=95, time=480),
    Message('note_on', channel=13, note=43, velocity=95, time=0),
    Message('note_off', channel=13, note=43, velocity=95, time=960),
    Message('note_on', channel=13, note=33, velocity=95, time=0),
    Message('note_off', channel=13, note=33, velocity=95, time=480),
    Message('note_on', channel=13, note=38, velocity=95, time=0),
    Message('note_off', channel=13, note=38, velocity=95, time=240),
    Message('note_on', channel=13, note=40, velocity=70, time=0),
    Message('note_off', channel=13, note=40, velocity=70, time=240),
    Message('note_on', channel=13, note=33, velocity=95, time=0),
    Message('note_off', channel=13, note=33, velocity=95, time=480),
    Message('note_on', channel=13, note=45, velocity=95, time=0),
    Message('note_off', channel=13, note=45, velocity=95, time=960),
    Message('note_on', channel=13, note=33, velocity=95, time=0),
    Message('note_off', channel=13, note=33, velocity=95, time=480),
    Message('note_on', channel=13, note=43, velocity=95, time=0),
    Message('note_off', channel=13, note=43, velocity=95, time=960),
    Message('note_on', channel=13, note=33, velocity=95, time=0),
    Message('note_off', channel=13, note=33, velocity=95, time=480),
    Message('note_on', channel=13, note=38, velocity=95, time=0),
    Message('note_off', channel=13, note=38, velocity=95, time=240),
    Message('note_on', channel=13, note=40, velocity=70, time=0),
    Message('note_off', channel=13, note=40, velocity=70, time=240),
    Message('note_on', channel=13, note=33, velocity=95, time=0),
    Message('note_off', channel=13, note=33, velocity=95, time=480),
    Message('note_on', channel=13, note=45, velocity=95, time=0),
    Message('note_off', channel=13, note=45, velocity=95, time=960),
    Message('note_on', channel=13, note=33, velocity=95, time=0),
    Message('note_off', channel=13, note=33, velocity=95, time=480),
    Message('note_on', channel=13, note=43, velocity=95, time=0),
    Message('note_off', channel=13, note=43, velocity=95, time=960),
    Message('note_on', channel=13, note=33, velocity=95, time=0),
    Message('note_off', channel=13, note=33, velocity=95, time=480),
    Message('note_on', channel=13, note=38, velocity=95, time=0),
    Message('note_off', channel=13, note=38, velocity=95, time=240),
    Message('note_on', channel=13, note=40, velocity=70, time=0),
    Message('note_off', channel=13, note=40, velocity=70, time=240),
    Message('note_on', channel=13, note=33, velocity=95, time=0),
    Message('note_off', channel=13, note=33, velocity=95, time=480),
    Message('note_on', channel=13, note=45, velocity=95, time=0),
    Message('note_off', channel=13, note=45, velocity=95, time=960),
    Message('note_on', channel=13, note=33, velocity=95, time=0),
    Message('note_off', channel=13, note=33, velocity=95, time=480),
    Message('note_on', channel=13, note=43, velocity=95, time=0),
    Message('note_off', channel=13, note=43, velocity=95, time=960),
    Message('note_on', channel=13, note=33, velocity=95, time=0),
    Message('note_off', channel=13, note=33, velocity=95, time=480),
    Message('note_on', channel=13, note=38, velocity=95, time=0),
    Message('note_off', channel=13, note=38, velocity=95, time=240),
    Message('note_on', channel=13, note=40, velocity=70, time=0),
    Message('note_off', channel=13, note=40, velocity=70, time=240),
    Message('note_on', channel=13, note=33, velocity=95, time=0),
    Message('note_off', channel=13, note=33, velocity=95, time=480),
    Message('note_on', channel=13, note=45, velocity=95, time=0),
    Message('note_off', channel=13, note=45, velocity=95, time=960),
    Message('note_on', channel=13, note=33, velocity=95, time=0),
    Message('note_off', channel=13, note=33, velocity=95, time=480),
    Message('note_on', channel=13, note=43, velocity=95, time=0),
    Message('note_off', channel=13, note=43, velocity=95, time=960),
    Message('note_on', channel=13, note=33, velocity=95, time=0),
    Message('note_off', channel=13, note=33, velocity=95, time=480),
    Message('note_on', channel=13, note=38, velocity=95, time=0),
    Message('note_off', channel=13, note=38, velocity=95, time=240),
    Message('note_on', channel=13, note=40, velocity=70, time=0),
    Message('note_off', channel=13, note=40, velocity=70, time=240),
    Message('note_on', channel=13, note=33, velocity=95, time=0),
    Message('note_off', channel=13, note=33, velocity=95, time=480),
    Message('note_on', channel=13, note=45, velocity=95, time=0),
    Message('note_off', channel=13, note=45, velocity=95, time=960),
    Message('note_on', channel=13, note=33, velocity=95, time=0),
    Message('note_off', channel=13, note=33, velocity=95, time=480),
    Message('note_on', channel=13, note=43, velocity=95, time=0),
    Message('note_off', channel=13, note=43, velocity=95, time=960),
    Message('note_on', channel=13, note=33, velocity=95, time=0),
    Message('note_off', channel=13, note=33, velocity=95, time=480),
    Message('note_on', channel=13, note=38, velocity=95, time=0),
    Message('note_off', channel=13, note=38, velocity=95, time=240),
    Message('note_on', channel=13, note=40, velocity=70, time=0),
    Message('note_off', channel=13, note=40, velocity=70, time=240),
    Message('note_on', channel=13, note=33, velocity=95, time=0),
    Message('note_off', channel=13, note=33, velocity=95, time=480),
    Message('note_on', channel=13, note=45, velocity=95, time=0),
    Message('note_off', channel=13, note=45, velocity=95, time=960),
    Message('note_on', channel=13, note=33, velocity=95, time=0),
    Message('note_off', channel=13, note=33, velocity=95, time=480),
    Message('note_on', channel=13, note=43, velocity=95, time=0),
    Message('note_off', channel=13, note=43, velocity=95, time=960),
    Message('note_on', channel=13, note=33, velocity=95, time=0),
    Message('note_off', channel=13, note=33, velocity=95, time=480),
    Message('note_on', channel=13, note=38, velocity=95, time=0),
    Message('note_off', channel=13, note=38, velocity=95, time=240),
    Message('note_on', channel=13, note=40, velocity=70, time=0),
    Message('note_off', channel=13, note=40, velocity=70, time=240),
    Message('note_on', channel=13, note=33, velocity=95, time=0),
    Message('note_off', channel=13, note=33, velocity=95, time=480),
    Message('note_on', channel=13, note=45, velocity=95, time=0),
    Message('note_off', channel=13, note=45, velocity=95, time=960),
    Message('note_on', channel=13, note=33, velocity=95, time=0),
    Message('note_off', channel=13, note=33, velocity=95, time=480),
    Message('note_on', channel=13, note=43, velocity=95, time=0),
    Message('note_off', channel=13, note=43, velocity=95, time=960),
    Message('note_on', channel=13, note=33, velocity=95, time=0),
    Message('note_off', channel=13, note=33, velocity=95, time=480),
    Message('note_on', channel=13, note=38, velocity=95, time=0),
    Message('note_off', channel=13, note=38, velocity=95, time=240),
    Message('note_on', channel=13, note=40, velocity=70, time=0),
    Message('note_off', channel=13, note=40, velocity=70, time=240),
    Message('note_on', channel=13, note=33, velocity=95, time=0),
    Message('note_off', channel=13, note=33, velocity=95, time=480),
    Message('note_on', channel=13, note=45, velocity=95, time=0),
    Message('note_off', channel=13, note=45, velocity=95, time=960),
    Message('note_on', channel=13, note=33, velocity=95, time=0),
    Message('note_off', channel=13, note=33, velocity=95, time=480),
    Message('note_on', channel=13, note=43, velocity=95, time=0),
    Message('note_off', channel=13, note=43, velocity=95, time=960),
    Message('note_on', channel=13, note=33, velocity=95, time=0),
    Message('note_off', channel=13, note=33, velocity=95, time=480),
    Message('note_on', channel=13, note=38, velocity=95, time=0),
    Message('note_off', channel=13, note=38, velocity=95, time=240),
    Message('note_on', channel=13, note=40, velocity=70, time=0),
    Message('note_off', channel=13, note=40, velocity=70, time=240),
    Message('note_on', channel=13, note=33, velocity=95, time=0),
    Message('note_off', channel=13, note=33, velocity=95, time=480),
    Message('note_on', channel=13, note=41, velocity=95, time=0),
    Message('note_off', channel=13, note=41, velocity=95, time=480),
    Message('note_on', channel=13, note=41, velocity=95, time=0),
    Message('note_off', channel=13, note=41, velocity=95, time=480),
    Message('note_on', channel=13, note=41, velocity=95, time=0),
    Message('note_off', channel=13, note=41, velocity=95, time=960),
    Message('note_on', channel=13, note=38, velocity=95, time=1920),
    Message('note_off', channel=13, note=38, velocity=95, time=1440),
    Message('note_on', channel=13, note=40, velocity=95, time=0),
    Message('note_off', channel=13, note=40, velocity=95, time=1440),
    Message('note_on', channel=13, note=41, velocity=95, time=0),
    Message('note_off', channel=13, note=41, velocity=95, time=960),
    Message('note_on', channel=13, note=33, velocity=95, time=0),
    Message('note_off', channel=13, note=33, velocity=95, time=3840),
    Message('note_on', channel=13, note=33, velocity=95, time=0),
    Message('note_off', channel=13, note=33, velocity=95, time=1920),
    Message('note_on', channel=13, note=33, velocity=95, time=480),
    Message('note_off', channel=13, note=33, velocity=95, time=480),
    Message('note_on', channel=13, note=38, velocity=95, time=0),
    Message('note_off', channel=13, note=38, velocity=95, time=240),
    Message('note_on', channel=13, note=40, velocity=70, time=0),
    Message('note_off', channel=13, note=40, velocity=70, time=240),
    Message('note_on', channel=13, note=33, velocity=95, time=0),
    Message('note_off', channel=13, note=33, velocity=95, time=480),
    Message('note_on', channel=13, note=41, velocity=95, time=0),
    Message('note_off', channel=13, note=41, velocity=95, time=480),
    Message('note_on', channel=13, note=41, velocity=95, time=0),
    Message('note_off', channel=13, note=41, velocity=95, time=480),
    Message('note_on', channel=13, note=41, velocity=95, time=0),
    Message('note_off', channel=13, note=41, velocity=95, time=960),
    Message('note_on', channel=13, note=38, velocity=95, time=1920),
    Message('note_off', channel=13, note=38, velocity=95, time=1440),
    Message('note_on', channel=13, note=40, velocity=95, time=0),
    Message('note_off', channel=13, note=40, velocity=95, time=1440),
    Message('note_on', channel=13, note=41, velocity=95, time=0),
    Message('note_off', channel=13, note=41, velocity=95, time=960),
    Message('note_on', channel=13, note=33, velocity=95, time=0),
    Message('note_off', channel=13, note=33, velocity=95, time=3840),
    Message('note_on', channel=13, note=33, velocity=95, time=0),
    Message('note_off', channel=13, note=33, velocity=95, time=1920),
    Message('note_on', channel=13, note=33, velocity=95, time=480),
    Message('note_off', channel=13, note=33, velocity=95, time=480),
    Message('note_on', channel=13, note=38, velocity=95, time=0),
    Message('note_off', channel=13, note=38, velocity=95, time=240),
    Message('note_on', channel=13, note=40, velocity=70, time=0),
    Message('note_off', channel=13, note=40, velocity=70, time=240),
    Message('note_on', channel=13, note=33, velocity=95, time=0),
    Message('note_off', channel=13, note=33, velocity=95, time=480),
    Message('note_on', channel=13, note=45, velocity=95, time=0),
    Message('note_off', channel=13, note=45, velocity=95, time=960),
    Message('note_on', channel=13, note=33, velocity=95, time=0),
    Message('note_off', channel=13, note=33, velocity=95, time=480),
    Message('note_on', channel=13, note=43, velocity=95, time=0),
    Message('note_off', channel=13, note=43, velocity=95, time=960),
    Message('note_on', channel=13, note=33, velocity=95, time=0),
    Message('note_off', channel=13, note=33, velocity=95, time=480),
    Message('note_on', channel=13, note=38, velocity=95, time=0),
    Message('note_off', channel=13, note=38, velocity=95, time=240),
    Message('note_on', channel=13, note=40, velocity=70, time=0),
    Message('note_off', channel=13, note=40, velocity=70, time=240),
    Message('note_on', channel=13, note=33, velocity=95, time=0),
    Message('note_off', channel=13, note=33, velocity=95, time=480),
    Message('note_on', channel=13, note=45, velocity=95, time=0),
    Message('note_off', channel=13, note=45, velocity=95, time=960),
    Message('note_on', channel=13, note=33, velocity=95, time=0),
    Message('note_off', channel=13, note=33, velocity=95, time=480),
    Message('note_on', channel=13, note=43, velocity=95, time=0),
    Message('note_off', channel=13, note=43, velocity=95, time=960),
    Message('note_on', channel=13, note=33, velocity=95, time=0),
    Message('note_off', channel=13, note=33, velocity=95, time=480),
    Message('note_on', channel=13, note=38, velocity=95, time=0),
    Message('note_off', channel=13, note=38, velocity=95, time=240),
    Message('note_on', channel=13, note=40, velocity=70, time=0),
    Message('note_off', channel=13, note=40, velocity=70, time=240),
    Message('note_on', channel=13, note=33, velocity=95, time=0),
    Message('note_off', channel=13, note=33, velocity=95, time=480),
    Message('note_on', channel=13, note=45, velocity=95, time=0),
    Message('note_off', channel=13, note=45, velocity=95, time=960),
    Message('note_on', channel=13, note=33, velocity=95, time=0),
    Message('note_off', channel=13, note=33, velocity=95, time=480),
    Message('note_on', channel=13, note=37, velocity=95, time=0),
    Message('note_off', channel=13, note=37, velocity=95, time=960),
    Message('note_on', channel=13, note=33, velocity=95, time=0),
    Message('note_off', channel=13, note=33, velocity=95, time=480),
    Message('note_on', channel=13, note=38, velocity=95, time=0),
    Message('note_off', channel=13, note=38, velocity=95, time=240),
    Message('note_on', channel=13, note=40, velocity=70, time=0),
    Message('note_off', channel=13, note=40, velocity=70, time=240),
    Message('note_on', channel=13, note=33, velocity=95, time=0),
    Message('note_off', channel=13, note=33, velocity=95, time=480),
    Message('note_on', channel=13, note=45, velocity=95, time=0),
    Message('note_off', channel=13, note=45, velocity=95, time=960),
    Message('note_on', channel=13, note=33, velocity=95, time=0),
    Message('note_off', channel=13, note=33, velocity=95, time=480),
    Message('note_on', channel=13, note=43, velocity=95, time=0),
    Message('note_off', channel=13, note=43, velocity=95, time=960),
    Message('note_on', channel=13, note=33, velocity=95, time=0),
    Message('note_off', channel=13, note=33, velocity=95, time=480),
    Message('note_on', channel=13, note=38, velocity=95, time=0),
    Message('note_off', channel=13, note=38, velocity=95, time=240),
    Message('note_on', channel=13, note=40, velocity=70, time=0),
    Message('note_off', channel=13, note=40, velocity=70, time=240),
    Message('note_on', channel=13, note=33, velocity=95, time=0),
    Message('note_off', channel=13, note=33, velocity=95, time=480),
    Message('note_on', channel=13, note=45, velocity=95, time=0),
    Message('note_off', channel=13, note=45, velocity=95, time=960),
    Message('note_on', channel=13, note=33, velocity=95, time=0),
    Message('note_off', channel=13, note=33, velocity=95, time=480),
    Message('note_on', channel=13, note=43, velocity=95, time=0),
    Message('note_off', channel=13, note=43, velocity=95, time=960),
    Message('note_on', channel=13, note=33, velocity=95, time=0),
    Message('note_off', channel=13, note=33, velocity=95, time=480),
    Message('note_on', channel=13, note=38, velocity=95, time=0),
    Message('note_off', channel=13, note=38, velocity=95, time=240),
    Message('note_on', channel=13, note=40, velocity=70, time=0),
    Message('note_off', channel=13, note=40, velocity=70, time=240),
    Message('note_on', channel=13, note=33, velocity=95, time=0),
    Message('note_off', channel=13, note=33, velocity=95, time=480),
    Message('note_on', channel=13, note=45, velocity=95, time=0),
    Message('note_off', channel=13, note=45, velocity=95, time=960),
    Message('note_on', channel=13, note=33, velocity=95, time=0),
    Message('note_off', channel=13, note=33, velocity=95, time=480),
    Message('note_on', channel=13, note=43, velocity=95, time=0),
    Message('note_off', channel=13, note=43, velocity=95, time=960),
    Message('note_on', channel=13, note=33, velocity=95, time=0),
    Message('note_off', channel=13, note=33, velocity=95, time=480),
    Message('note_on', channel=13, note=38, velocity=95, time=0),
    Message('note_off', channel=13, note=38, velocity=95, time=240),
    Message('note_on', channel=13, note=40, velocity=70, time=0),
    Message('note_off', channel=13, note=40, velocity=70, time=240),
    Message('note_on', channel=13, note=33, velocity=95, time=0),
    Message('note_off', channel=13, note=33, velocity=95, time=480),
    Message('note_on', channel=13, note=45, velocity=95, time=0),
    Message('note_off', channel=13, note=45, velocity=95, time=960),
    Message('note_on', channel=13, note=33, velocity=95, time=0),
    Message('note_off', channel=13, note=33, velocity=95, time=480),
    Message('note_on', channel=13, note=43, velocity=95, time=0),
    Message('note_off', channel=13, note=43, velocity=95, time=960),
    Message('note_on', channel=13, note=33, velocity=95, time=0),
    Message('note_off', channel=13, note=33, velocity=95, time=480),
    Message('note_on', channel=13, note=38, velocity=95, time=0),
    Message('note_off', channel=13, note=38, velocity=95, time=240),
    Message('note_on', channel=13, note=40, velocity=70, time=0),
    Message('note_off', channel=13, note=40, velocity=70, time=240),
    Message('note_on', channel=13, note=33, velocity=95, time=0),
    Message('note_off', channel=13, note=33, velocity=95, time=480),
    Message('note_on', channel=13, note=45, velocity=95, time=0),
    Message('note_off', channel=13, note=45, velocity=95, time=960),
    Message('note_on', channel=13, note=33, velocity=95, time=0),
    Message('note_off', channel=13, note=33, velocity=95, time=480),
    Message('note_on', channel=13, note=43, velocity=95, time=0),
    Message('note_off', channel=13, note=43, velocity=95, time=960),
    Message('note_on', channel=13, note=33, velocity=95, time=0),
    Message('note_off', channel=13, note=33, velocity=95, time=480),
    Message('note_on', channel=13, note=38, velocity=95, time=0),
    Message('note_off', channel=13, note=38, velocity=95, time=240),
    Message('note_on', channel=13, note=40, velocity=70, time=0),
    Message('note_off', channel=13, note=40, velocity=70, time=240),
    Message('note_on', channel=13, note=33, velocity=95, time=0),
    Message('note_off', channel=13, note=33, velocity=95, time=480),
    Message('note_on', channel=13, note=45, velocity=95, time=0),
    Message('note_off', channel=13, note=45, velocity=95, time=960),
    Message('note_on', channel=13, note=33, velocity=95, time=0),
    Message('note_off', channel=13, note=33, velocity=95, time=480),
    Message('note_on', channel=13, note=43, velocity=95, time=0),
    Message('note_off', channel=13, note=43, velocity=95, time=960),
    Message('note_on', channel=13, note=33, velocity=95, time=0),
    Message('note_off', channel=13, note=33, velocity=95, time=480),
    Message('note_on', channel=13, note=38, velocity=95, time=0),
    Message('note_off', channel=13, note=38, velocity=95, time=240),
    Message('note_on', channel=13, note=40, velocity=70, time=0),
    Message('note_off', channel=13, note=40, velocity=70, time=240),
    Message('note_on', channel=13, note=33, velocity=95, time=0),
    Message('note_off', channel=13, note=33, velocity=95, time=480),
    Message('note_on', channel=13, note=45, velocity=95, time=0),
    Message('note_off', channel=13, note=45, velocity=95, time=960),
    Message('note_on', channel=13, note=33, velocity=95, time=0),
    Message('note_off', channel=13, note=33, velocity=95, time=480),
    Message('note_on', channel=13, note=43, velocity=95, time=0),
    Message('note_off', channel=13, note=43, velocity=95, time=960),
    Message('note_on', channel=13, note=33, velocity=95, time=0),
    Message('note_off', channel=13, note=33, velocity=95, time=480),
    Message('note_on', channel=13, note=38, velocity=95, time=0),
    Message('note_off', channel=13, note=38, velocity=95, time=240),
    Message('note_on', channel=13, note=40, velocity=70, time=0),
    Message('note_off', channel=13, note=40, velocity=70, time=240),
    Message('note_on', channel=13, note=33, velocity=95, time=0),
    Message('note_off', channel=13, note=33, velocity=95, time=480),
    Message('note_on', channel=13, note=45, velocity=95, time=0),
    Message('note_off', channel=13, note=45, velocity=95, time=960),
    Message('note_on', channel=13, note=33, velocity=95, time=0),
    Message('note_off', channel=13, note=33, velocity=95, time=480),
    Message('note_on', channel=13, note=37, velocity=95, time=0),
    Message('note_off', channel=13, note=37, velocity=95, time=960),
    Message('note_on', channel=13, note=33, velocity=95, time=0),
    Message('note_off', channel=13, note=33, velocity=95, time=480),
    Message('note_on', channel=13, note=38, velocity=95, time=0),
    Message('note_off', channel=13, note=38, velocity=95, time=240),
    Message('note_on', channel=13, note=40, velocity=70, time=0),
    Message('note_off', channel=13, note=40, velocity=70, time=240),
    Message('note_on', channel=13, note=33, velocity=95, time=0),
    Message('note_off', channel=13, note=33, velocity=95, time=480),
    Message('note_on', channel=13, note=45, velocity=95, time=0),
    Message('note_off', channel=13, note=45, velocity=95, time=960),
    Message('note_on', channel=13, note=33, velocity=95, time=0),
    Message('note_off', channel=13, note=33, velocity=95, time=480),
    Message('note_on', channel=13, note=43, velocity=95, time=0),
    Message('note_off', channel=13, note=43, velocity=95, time=960),
    Message('note_on', channel=13, note=33, velocity=95, time=0),
    Message('note_off', channel=13, note=33, velocity=95, time=480),
    Message('note_on', channel=13, note=38, velocity=95, time=0),
    Message('note_off', channel=13, note=38, velocity=95, time=240),
    Message('note_on', channel=13, note=40, velocity=70, time=0),
    Message('note_off', channel=13, note=40, velocity=70, time=240),
    Message('note_on', channel=13, note=33, velocity=95, time=0),
    Message('note_off', channel=13, note=33, velocity=95, time=480),
    Message('note_on', channel=13, note=45, velocity=95, time=0),
    Message('note_off', channel=13, note=45, velocity=95, time=960),
    Message('note_on', channel=13, note=33, velocity=95, time=0),
    Message('note_off', channel=13, note=33, velocity=95, time=480),
    Message('note_on', channel=13, note=43, velocity=95, time=0),
    Message('note_off', channel=13, note=43, velocity=95, time=960),
    Message('note_on', channel=13, note=33, velocity=95, time=0),
    Message('note_off', channel=13, note=33, velocity=95, time=480),
    Message('note_on', channel=13, note=38, velocity=95, time=0),
    Message('note_off', channel=13, note=38, velocity=95, time=240),
    Message('note_on', channel=13, note=40, velocity=70, time=0),
    Message('note_off', channel=13, note=40, velocity=70, time=240),
    Message('note_on', channel=13, note=33, velocity=95, time=0),
    Message('note_off', channel=13, note=33, velocity=95, time=480),
    Message('note_on', channel=13, note=45, velocity=95, time=0),
    Message('note_off', channel=13, note=45, velocity=95, time=960),
    Message('note_on', channel=13, note=33, velocity=95, time=0),
    Message('note_off', channel=13, note=33, velocity=95, time=480),
    Message('note_on', channel=13, note=43, velocity=95, time=0),
    Message('note_off', channel=13, note=43, velocity=95, time=960),
    Message('note_on', channel=13, note=33, velocity=95, time=0),
    Message('note_off', channel=13, note=33, velocity=95, time=480),
    Message('note_on', channel=13, note=38, velocity=95, time=0),
    Message('note_off', channel=13, note=38, velocity=95, time=240),
    Message('note_on', channel=13, note=40, velocity=70, time=0),
    Message('note_off', channel=13, note=40, velocity=70, time=240),
    Message('note_on', channel=13, note=33, velocity=95, time=0),
    Message('note_off', channel=13, note=33, velocity=95, time=480),
    Message('note_on', channel=13, note=45, velocity=95, time=0),
    Message('note_off', channel=13, note=45, velocity=95, time=960),
    Message('note_on', channel=13, note=33, velocity=95, time=0),
    Message('note_off', channel=13, note=33, velocity=95, time=480),
    Message('note_on', channel=13, note=43, velocity=95, time=0),
    Message('note_off', channel=13, note=43, velocity=95, time=960),
    Message('note_on', channel=13, note=33, velocity=95, time=0),
    Message('note_off', channel=13, note=33, velocity=95, time=480),
    Message('note_on', channel=13, note=38, velocity=95, time=0),
    Message('note_off', channel=13, note=38, velocity=95, time=240),
    Message('note_on', channel=13, note=40, velocity=70, time=0),
    Message('note_off', channel=13, note=40, velocity=70, time=240),
    Message('note_on', channel=13, note=33, velocity=95, time=0),
    Message('note_off', channel=13, note=33, velocity=95, time=480),
    Message('note_on', channel=13, note=45, velocity=95, time=0),
    Message('note_off', channel=13, note=45, velocity=95, time=960),
    Message('note_on', channel=13, note=33, velocity=95, time=0),
    Message('note_off', channel=13, note=33, velocity=95, time=480),
    Message('note_on', channel=13, note=43, velocity=95, time=0),
    Message('note_off', channel=13, note=43, velocity=95, time=960),
    Message('note_on', channel=13, note=33, velocity=95, time=0),
    Message('note_off', channel=13, note=33, velocity=95, time=480),
    Message('note_on', channel=13, note=38, velocity=95, time=0),
    Message('note_off', channel=13, note=38, velocity=95, time=240),
    Message('note_on', channel=13, note=40, velocity=70, time=0),
    Message('note_off', channel=13, note=40, velocity=70, time=240),
    Message('note_on', channel=13, note=33, velocity=95, time=0),
    Message('note_off', channel=13, note=33, velocity=95, time=480),
    Message('note_on', channel=13, note=45, velocity=95, time=0),
    Message('note_off', channel=13, note=45, velocity=95, time=960),
    Message('note_on', channel=13, note=33, velocity=95, time=0),
    Message('note_off', channel=13, note=33, velocity=95, time=480),
    Message('note_on', channel=13, note=43, velocity=95, time=0),
    Message('note_off', channel=13, note=43, velocity=95, time=960),
    Message('note_on', channel=13, note=33, velocity=95, time=0),
    Message('note_off', channel=13, note=33, velocity=95, time=480),
    Message('note_on', channel=13, note=38, velocity=95, time=0),
    Message('note_off', channel=13, note=38, velocity=95, time=240),
    Message('note_on', channel=13, note=40, velocity=70, time=0),
    Message('note_off', channel=13, note=40, velocity=70, time=240),
    Message('note_on', channel=13, note=33, velocity=95, time=0),
    Message('note_off', channel=13, note=33, velocity=95, time=480),
    Message('note_on', channel=13, note=45, velocity=95, time=0),
    Message('note_off', channel=13, note=45, velocity=95, time=960),
    Message('note_on', channel=13, note=33, velocity=95, time=0),
    Message('note_off', channel=13, note=33, velocity=95, time=480),
    Message('note_on', channel=13, note=43, velocity=95, time=0),
    Message('note_off', channel=13, note=43, velocity=95, time=960),
    Message('note_on', channel=13, note=33, velocity=95, time=0),
    Message('note_off', channel=13, note=33, velocity=95, time=480),
    Message('note_on', channel=13, note=38, velocity=95, time=0),
    Message('note_off', channel=13, note=38, velocity=95, time=240),
    Message('note_on', channel=13, note=40, velocity=70, time=0),
    Message('note_off', channel=13, note=40, velocity=70, time=240),
    Message('note_on', channel=13, note=33, velocity=95, time=0),
    Message('note_off', channel=13, note=33, velocity=95, time=480),
    Message('note_on', channel=13, note=45, velocity=95, time=0),
    Message('note_off', channel=13, note=45, velocity=95, time=960),
    Message('note_on', channel=13, note=33, velocity=95, time=0),
    Message('note_off', channel=13, note=33, velocity=95, time=480),
    Message('note_on', channel=13, note=43, velocity=95, time=0),
    Message('note_off', channel=13, note=43, velocity=95, time=960),
    Message('note_on', channel=13, note=33, velocity=95, time=0),
    Message('note_off', channel=13, note=33, velocity=95, time=480),
    Message('note_on', channel=13, note=38, velocity=95, time=0),
    Message('note_off', channel=13, note=38, velocity=95, time=240),
    Message('note_on', channel=13, note=40, velocity=70, time=0),
    Message('note_off', channel=13, note=40, velocity=70, time=240),
    Message('note_on', channel=13, note=33, velocity=95, time=0),
    Message('note_off', channel=13, note=33, velocity=95, time=480),
    Message('note_on', channel=13, note=45, velocity=95, time=0),
    Message('note_off', channel=13, note=45, velocity=95, time=960),
    Message('note_on', channel=13, note=33, velocity=95, time=0),
    Message('note_off', channel=13, note=33, velocity=95, time=480),
    Message('note_on', channel=13, note=43, velocity=95, time=0),
    Message('note_off', channel=13, note=43, velocity=95, time=960),
    Message('note_on', channel=13, note=33, velocity=95, time=0),
    Message('note_off', channel=13, note=33, velocity=95, time=480),
    Message('note_on', channel=13, note=38, velocity=95, time=0),
    Message('note_off', channel=13, note=38, velocity=95, time=240),
    Message('note_on', channel=13, note=40, velocity=70, time=0),
    Message('note_off', channel=13, note=40, velocity=70, time=240),
    Message('note_on', channel=13, note=33, velocity=95, time=0),
    Message('note_off', channel=13, note=33, velocity=95, time=480),
    Message('note_on', channel=13, note=45, velocity=95, time=0),
    Message('note_off', channel=13, note=45, velocity=95, time=960),
    Message('note_on', channel=13, note=33, velocity=95, time=0),
    Message('note_off', channel=13, note=33, velocity=95, time=480),
    Message('note_on', channel=13, note=43, velocity=95, time=0),
    Message('note_off', channel=13, note=43, velocity=95, time=960),
    Message('note_on', channel=13, note=33, velocity=95, time=0),
    Message('note_off', channel=13, note=33, velocity=95, time=480),
    Message('note_on', channel=13, note=38, velocity=95, time=0),
    Message('note_off', channel=13, note=38, velocity=95, time=240),
    Message('note_on', channel=13, note=40, velocity=70, time=0),
    Message('note_off', channel=13, note=40, velocity=70, time=240),
    Message('note_on', channel=13, note=33, velocity=95, time=0),
    Message('note_off', channel=13, note=33, velocity=95, time=480),
    Message('note_on', channel=13, note=45, velocity=95, time=0),
    Message('note_off', channel=13, note=45, velocity=95, time=960),
    Message('note_on', channel=13, note=33, velocity=95, time=0),
    Message('note_off', channel=13, note=33, velocity=95, time=480),
    Message('note_on', channel=13, note=43, velocity=95, time=0),
    Message('note_off', channel=13, note=43, velocity=95, time=960),
    Message('note_on', channel=13, note=33, velocity=95, time=0),
    Message('note_off', channel=13, note=33, velocity=95, time=480),
    Message('note_on', channel=13, note=38, velocity=95, time=0),
    Message('note_off', channel=13, note=38, velocity=95, time=240),
    Message('note_on', channel=13, note=40, velocity=70, time=0),
    Message('note_off', channel=13, note=40, velocity=70, time=240),
    Message('note_on', channel=13, note=33, velocity=95, time=0),
    Message('note_off', channel=13, note=33, velocity=95, time=480),
    Message('note_on', channel=13, note=45, velocity=95, time=0),
    Message('note_off', channel=13, note=45, velocity=95, time=960),
    Message('note_on', channel=13, note=33, velocity=95, time=0),
    Message('note_off', channel=13, note=33, velocity=95, time=480),
    Message('note_on', channel=13, note=43, velocity=95, time=0),
    Message('note_off', channel=13, note=43, velocity=95, time=960),
    Message('note_on', channel=13, note=33, velocity=95, time=0),
    Message('note_off', channel=13, note=33, velocity=95, time=480),
    Message('note_on', channel=13, note=38, velocity=95, time=0),
    Message('note_off', channel=13, note=38, velocity=95, time=240),
    Message('note_on', channel=13, note=40, velocity=70, time=0),
    Message('note_off', channel=13, note=40, velocity=70, time=240),
    Message('note_on', channel=13, note=33, velocity=95, time=0),
    Message('note_off', channel=13, note=33, velocity=95, time=480),
    Message('note_on', channel=13, note=45, velocity=95, time=0),
    Message('note_off', channel=13, note=45, velocity=95, time=960),
    Message('note_on', channel=13, note=33, velocity=95, time=0),
    Message('note_off', channel=13, note=33, velocity=95, time=480),
    Message('note_on', channel=13, note=43, velocity=95, time=0),
    Message('note_off', channel=13, note=43, velocity=95, time=960),
    Message('note_on', channel=13, note=33, velocity=95, time=0),
    Message('note_off', channel=13, note=33, velocity=95, time=480),
    Message('note_on', channel=13, note=38, velocity=95, time=0),
    Message('note_off', channel=13, note=38, velocity=95, time=240),
    Message('note_on', channel=13, note=40, velocity=70, time=0),
    Message('note_off', channel=13, note=40, velocity=70, time=240),
    Message('note_on', channel=13, note=33, velocity=95, time=0),
    Message('note_off', channel=13, note=33, velocity=95, time=480),
    Message('note_on', channel=13, note=41, velocity=95, time=0),
    Message('note_off', channel=13, note=41, velocity=95, time=480),
    Message('note_on', channel=13, note=41, velocity=95, time=0),
    Message('note_off', channel=13, note=41, velocity=95, time=480),
    Message('note_on', channel=13, note=41, velocity=95, time=0),
    Message('note_off', channel=13, note=41, velocity=95, time=960),
    Message('note_on', channel=13, note=38, velocity=95, time=1920),
    Message('note_off', channel=13, note=38, velocity=95, time=1440),
    Message('note_on', channel=13, note=40, velocity=95, time=0),
    Message('note_off', channel=13, note=40, velocity=95, time=1440),
    Message('note_on', channel=13, note=41, velocity=95, time=0),
    Message('note_off', channel=13, note=41, velocity=95, time=960),
    Message('note_on', channel=13, note=33, velocity=95, time=0),
    Message('note_off', channel=13, note=33, velocity=95, time=3840),
    Message('note_on', channel=13, note=33, velocity=95, time=0),
    Message('note_off', channel=13, note=33, velocity=95, time=1920),
    Message('note_on', channel=13, note=33, velocity=95, time=480),
    Message('note_off', channel=13, note=33, velocity=95, time=480),
    Message('note_on', channel=13, note=38, velocity=95, time=0),
    Message('note_off', channel=13, note=38, velocity=95, time=240),
    Message('note_on', channel=13, note=40, velocity=70, time=0),
    Message('note_off', channel=13, note=40, velocity=70, time=240),
    Message('note_on', channel=13, note=33, velocity=95, time=0),
    Message('note_off', channel=13, note=33, velocity=95, time=480),
    Message('note_on', channel=13, note=41, velocity=95, time=0),
    Message('note_off', channel=13, note=41, velocity=95, time=480),
    Message('note_on', channel=13, note=41, velocity=95, time=0),
    Message('note_off', channel=13, note=41, velocity=95, time=480),
    Message('note_on', channel=13, note=41, velocity=95, time=0),
    Message('note_off', channel=13, note=41, velocity=95, time=960),
    Message('note_on', channel=13, note=38, velocity=95, time=1920),
    Message('note_off', channel=13, note=38, velocity=95, time=1440),
    Message('note_on', channel=13, note=40, velocity=95, time=0),
    Message('note_off', channel=13, note=40, velocity=95, time=1440),
    Message('note_on', channel=13, note=41, velocity=95, time=0),
    Message('note_off', channel=13, note=41, velocity=95, time=960),
    Message('note_on', channel=13, note=33, velocity=95, time=0),
    Message('note_off', channel=13, note=33, velocity=95, time=3840),
    Message('note_on', channel=13, note=33, velocity=95, time=0),
    Message('note_off', channel=13, note=33, velocity=95, time=1920),
    Message('note_on', channel=13, note=33, velocity=95, time=480),
    Message('note_off', channel=13, note=33, velocity=95, time=480),
    Message('note_on', channel=13, note=38, velocity=95, time=0),
    Message('note_off', channel=13, note=38, velocity=95, time=240),
    Message('note_on', channel=13, note=40, velocity=70, time=0),
    Message('note_off', channel=13, note=40, velocity=70, time=240),
    Message('note_on', channel=13, note=33, velocity=95, time=0),
    Message('note_off', channel=13, note=33, velocity=95, time=480),
    Message('note_on', channel=13, note=41, velocity=95, time=0),
    Message('note_off', channel=13, note=41, velocity=95, time=480),
    Message('note_on', channel=13, note=41, velocity=95, time=0),
    Message('note_off', channel=13, note=41, velocity=95, time=480),
    Message('note_on', channel=13, note=41, velocity=95, time=0),
    Message('note_off', channel=13, note=41, velocity=95, time=2880),
    Message('note_on', channel=13, note=38, velocity=95, time=0),
    Message('note_off', channel=13, note=38, velocity=95, time=1440),
    Message('note_on', channel=13, note=40, velocity=95, time=0),
    Message('note_off', channel=13, note=40, velocity=95, time=1440),
    Message('note_on', channel=13, note=36, velocity=95, time=0),
    Message('note_off', channel=13, note=36, velocity=95, time=960),
    Message('note_on', channel=13, note=33, velocity=95, time=0),
    Message('note_off', channel=13, note=33, velocity=95, time=3840),
    Message('note_on', channel=13, note=33, velocity=95, time=0),
    Message('note_off', channel=13, note=33, velocity=95, time=1920),
    Message('note_on', channel=13, note=33, velocity=95, time=480),
    Message('note_off', channel=13, note=33, velocity=95, time=480),
    Message('note_on', channel=13, note=38, velocity=95, time=0),
    Message('note_off', channel=13, note=38, velocity=95, time=240),
    Message('note_on', channel=13, note=40, velocity=70, time=0),
    Message('note_off', channel=13, note=40, velocity=70, time=240),
    Message('note_on', channel=13, note=33, velocity=95, time=0),
    Message('note_off', channel=13, note=33, velocity=95, time=480),
    Message('note_on', channel=13, note=45, velocity=95, time=0),
    Message('note_off', channel=13, note=45, velocity=95, time=960),
    Message('note_on', channel=13, note=33, velocity=95, time=0),
    Message('note_off', channel=13, note=33, velocity=95, time=480),
    Message('note_on', channel=13, note=43, velocity=95, time=0),
    Message('note_off', channel=13, note=43, velocity=95, time=960),
    Message('note_on', channel=13, note=33, velocity=95, time=0),
    Message('note_off', channel=13, note=33, velocity=95, time=480),
    Message('note_on', channel=13, note=38, velocity=95, time=0),
    Message('note_off', channel=13, note=38, velocity=95, time=240),
    Message('note_on', channel=13, note=40, velocity=70, time=0),
    Message('note_off', channel=13, note=40, velocity=70, time=240),
    Message('note_on', channel=13, note=33, velocity=95, time=0),
    Message('note_off', channel=13, note=33, velocity=95, time=480),
    Message('note_on', channel=13, note=45, velocity=95, time=0),
    Message('note_off', channel=13, note=45, velocity=95, time=960),
    Message('note_on', channel=13, note=33, velocity=95, time=0),
    Message('note_off', channel=13, note=33, velocity=95, time=480),
    Message('note_on', channel=13, note=43, velocity=95, time=0),
    Message('note_off', channel=13, note=43, velocity=95, time=960),
    Message('note_on', channel=13, note=33, velocity=95, time=0),
    Message('note_off', channel=13, note=33, velocity=95, time=480),
    Message('note_on', channel=13, note=38, velocity=95, time=0),
    Message('note_off', channel=13, note=38, velocity=95, time=240),
    Message('note_on', channel=13, note=40, velocity=70, time=0),
    Message('note_off', channel=13, note=40, velocity=70, time=240),
    Message('note_on', channel=13, note=33, velocity=95, time=0),
    Message('note_off', channel=13, note=33, velocity=95, time=480),
    Message('note_on', channel=13, note=45, velocity=95, time=0),
    Message('note_off', channel=13, note=45, velocity=95, time=960),
    Message('note_on', channel=13, note=33, velocity=95, time=0),
    Message('note_off', channel=13, note=33, velocity=95, time=480),
    Message('note_on', channel=13, note=43, velocity=95, time=0),
    Message('note_off', channel=13, note=43, velocity=95, time=960),
    Message('note_on', channel=13, note=33, velocity=95, time=0),
    Message('note_off', channel=13, note=33, velocity=95, time=480),
    Message('note_on', channel=13, note=38, velocity=95, time=0),
    Message('note_off', channel=13, note=38, velocity=95, time=240),
    Message('note_on', channel=13, note=40, velocity=70, time=0),
    Message('note_off', channel=13, note=40, velocity=70, time=240),
    Message('note_on', channel=13, note=33, velocity=95, time=0),
    Message('note_off', channel=13, note=33, velocity=95, time=480),
    Message('note_on', channel=13, note=45, velocity=95, time=0),
    Message('note_off', channel=13, note=45, velocity=95, time=960),
    Message('note_on', channel=13, note=33, velocity=95, time=0),
    Message('note_off', channel=13, note=33, velocity=95, time=480),
    Message('note_on', channel=13, note=43, velocity=95, time=0),
    Message('note_off', channel=13, note=43, velocity=95, time=960),
    Message('note_on', channel=13, note=33, velocity=95, time=0),
    Message('note_off', channel=13, note=33, velocity=95, time=480),
    Message('note_on', channel=13, note=38, velocity=95, time=0),
    Message('note_off', channel=13, note=38, velocity=95, time=240),
    Message('note_on', channel=13, note=40, velocity=70, time=0),
    Message('note_off', channel=13, note=40, velocity=70, time=240),
    Message('note_on', channel=13, note=33, velocity=95, time=0),
    Message('note_off', channel=13, note=33, velocity=95, time=480),
    Message('note_on', channel=13, note=45, velocity=95, time=0),
    Message('note_off', channel=13, note=45, velocity=95, time=960),
    Message('note_on', channel=13, note=33, velocity=95, time=0),
    Message('note_off', channel=13, note=33, velocity=95, time=480),
    Message('note_on', channel=13, note=43, velocity=95, time=0),
    Message('note_off', channel=13, note=43, velocity=95, time=960),
    Message('note_on', channel=13, note=33, velocity=95, time=0),
    Message('note_off', channel=13, note=33, velocity=95, time=480),
    Message('note_on', channel=13, note=38, velocity=95, time=0),
    Message('note_off', channel=13, note=38, velocity=95, time=240),
    Message('note_on', channel=13, note=40, velocity=70, time=0),
    Message('note_off', channel=13, note=40, velocity=70, time=240),
    Message('note_on', channel=13, note=33, velocity=95, time=0),
    Message('note_off', channel=13, note=33, velocity=95, time=480),
    Message('note_on', channel=13, note=45, velocity=95, time=0),
    Message('note_off', channel=13, note=45, velocity=95, time=960),
    Message('note_on', channel=13, note=33, velocity=95, time=0),
    Message('note_off', channel=13, note=33, velocity=95, time=480),
    Message('note_on', channel=13, note=43, velocity=95, time=0),
    Message('note_off', channel=13, note=43, velocity=95, time=960),
    Message('note_on', channel=13, note=33, velocity=95, time=0),
    Message('note_off', channel=13, note=33, velocity=95, time=480),
    Message('note_on', channel=13, note=38, velocity=95, time=0),
    Message('note_off', channel=13, note=38, velocity=95, time=240),
    Message('note_on', channel=13, note=40, velocity=70, time=0),
    Message('note_off', channel=13, note=40, velocity=70, time=240),
    Message('note_on', channel=13, note=33, velocity=95, time=0),
    Message('note_off', channel=13, note=33, velocity=95, time=480),
    Message('note_on', channel=13, note=45, velocity=95, time=0),
    Message('note_off', channel=13, note=45, velocity=95, time=960),
    Message('note_on', channel=13, note=33, velocity=95, time=0),
    Message('note_off', channel=13, note=33, velocity=95, time=480),
    Message('note_on', channel=13, note=43, velocity=95, time=0),
    Message('note_off', channel=13, note=43, velocity=95, time=960),
    Message('note_on', channel=13, note=33, velocity=95, time=0),
    Message('note_off', channel=13, note=33, velocity=95, time=480),
    Message('note_on', channel=13, note=38, velocity=95, time=0),
    Message('note_off', channel=13, note=38, velocity=95, time=240),
    Message('note_on', channel=13, note=40, velocity=70, time=0),
    Message('note_off', channel=13, note=40, velocity=70, time=240),
    Message('note_on', channel=13, note=33, velocity=95, time=0),
    Message('note_off', channel=13, note=33, velocity=95, time=480),
    Message('note_on', channel=13, note=33, velocity=95, time=0),
    Message('note_off', channel=13, note=33, velocity=95, time=480),
    Message('note_on', channel=13, note=33, velocity=95, time=0),
    Message('note_off', channel=13, note=33, velocity=95, time=480),
    Message('note_on', channel=13, note=33, velocity=95, time=0),
    Message('note_off', channel=13, note=33, velocity=95, time=480),
    Message('note_on', channel=13, note=33, velocity=95, time=0),
    Message('note_off', channel=13, note=33, velocity=95, time=480),
    Message('note_on', channel=13, note=33, velocity=95, time=0),
    Message('note_off', channel=13, note=33, velocity=95, time=480),
    Message('note_on', channel=13, note=33, velocity=95, time=0),
    Message('note_off', channel=13, note=33, velocity=95, time=480),
    Message('note_on', channel=13, note=38, velocity=95, time=0),
    Message('note_off', channel=13, note=38, velocity=95, time=240),
    Message('note_on', channel=13, note=40, velocity=70, time=0),
    Message('note_off', channel=13, note=40, velocity=70, time=240),
    Message('note_on', channel=13, note=33, velocity=95, time=0),
    Message('note_off', channel=13, note=33, velocity=95, time=480),
    Message('note_on', channel=13, note=41, velocity=95, time=0),
    Message('note_off', channel=13, note=41, velocity=95, time=480),
    Message('note_on', channel=13, note=41, velocity=95, time=0),
    Message('note_off', channel=13, note=41, velocity=95, time=480),
    Message('note_on', channel=13, note=41, velocity=95, time=0),
    Message('note_off', channel=13, note=41, velocity=95, time=2880),
    Message('note_on', channel=13, note=38, velocity=95, time=0),
    Message('note_off', channel=13, note=38, velocity=95, time=1440),
    Message('note_on', channel=13, note=40, velocity=95, time=0),
    Message('note_off', channel=13, note=40, velocity=95, time=1440),
    Message('note_on', channel=13, note=36, velocity=95, time=0),
    Message('note_off', channel=13, note=36, velocity=95, time=960),
    Message('note_on', channel=13, note=33, velocity=95, time=0),
    Message('note_off', channel=13, note=33, velocity=95, time=1440),
    Message('note_on', channel=13, note=35, velocity=95, time=0),
    Message('note_off', channel=13, note=35, velocity=95, time=2400),
    Message('note_on', channel=13, note=36, velocity=95, time=0),
    Message('note_off', channel=13, note=36, velocity=95, time=1440),
    Message('note_on', channel=13, note=38, velocity=95, time=0),
    Message('note_off', channel=13, note=38, velocity=95, time=960),
    Message('note_on', channel=13, note=33, velocity=95, time=0),
    Message('note_off', channel=13, note=33, velocity=95, time=480),
    Message('note_on', channel=13, note=38, velocity=95, time=0),
    Message('note_off', channel=13, note=38, velocity=95, time=240),
    Message('note_on', channel=13, note=40, velocity=70, time=0),
    Message('note_off', channel=13, note=40, velocity=70, time=240),
    Message('note_on', channel=13, note=33, velocity=95, time=0),
    Message('note_off', channel=13, note=33, velocity=95, time=480),
    Message('note_on', channel=13, note=41, velocity=95, time=0),
    Message('note_off', channel=13, note=41, velocity=95, time=480),
    Message('note_on', channel=13, note=41, velocity=95, time=0),
    Message('note_off', channel=13, note=41, velocity=95, time=480),
    Message('note_on', channel=13, note=41, velocity=95, time=0),
    Message('note_off', channel=13, note=41, velocity=95, time=2880),
    Message('note_on', channel=13, note=38, velocity=95, time=0),
    Message('note_off', channel=13, note=38, velocity=95, time=1440),
    Message('note_on', channel=13, note=40, velocity=95, time=0),
    Message('note_off', channel=13, note=40, velocity=95, time=1440),
    Message('note_on', channel=13, note=36, velocity=95, time=0),
    Message('note_off', channel=13, note=36, velocity=95, time=960),
    Message('note_on', channel=13, note=33, velocity=95, time=0),
    Message('note_off', channel=13, note=33, velocity=95, time=3840),
    Message('note_on', channel=13, note=33, velocity=95, time=0),
    Message('note_off', channel=13, note=33, velocity=95, time=1920),
    Message('note_on', channel=13, note=33, velocity=95, time=480),
    Message('note_off', channel=13, note=33, velocity=95, time=480),
    Message('note_on', channel=13, note=38, velocity=95, time=0),
    Message('note_off', channel=13, note=38, velocity=95, time=240),
    Message('note_on', channel=13, note=40, velocity=70, time=0),
    Message('note_off', channel=13, note=40, velocity=70, time=240),
    Message('note_on', channel=13, note=33, velocity=95, time=0),
    Message('note_off', channel=13, note=33, velocity=95, time=480),
    Message('note_on', channel=13, note=41, velocity=95, time=0),
    Message('note_off', channel=13, note=41, velocity=95, time=480),
    Message('note_on', channel=13, note=41, velocity=95, time=0),
    Message('note_off', channel=13, note=41, velocity=95, time=480),
    Message('note_on', channel=13, note=41, velocity=95, time=0),
    Message('note_off', channel=13, note=41, velocity=95, time=2880),
    Message('note_on', channel=13, note=38, velocity=95, time=0),
    Message('note_off', channel=13, note=38, velocity=95, time=1440),
    Message('note_on', channel=13, note=40, velocity=95, time=0),
    Message('note_off', channel=13, note=40, velocity=95, time=1440),
    Message('note_on', channel=13, note=36, velocity=95, time=0),
    Message('note_off', channel=13, note=36, velocity=95, time=960),
    Message('note_on', channel=13, note=33, velocity=95, time=0),
    Message('note_off', channel=13, note=33, velocity=95, time=3840),
    Message('note_on', channel=13, note=33, velocity=95, time=0),
    Message('note_off', channel=13, note=33, velocity=95, time=1920),
    Message('note_on', channel=13, note=33, velocity=95, time=480),
    Message('note_off', channel=13, note=33, velocity=95, time=480),
    Message('note_on', channel=13, note=38, velocity=95, time=0),
    Message('note_off', channel=13, note=38, velocity=95, time=240),
    Message('note_on', channel=13, note=40, velocity=70, time=0),
    Message('note_off', channel=13, note=40, velocity=70, time=240),
    Message('note_on', channel=13, note=33, velocity=95, time=0),
    Message('note_off', channel=13, note=33, velocity=95, time=480),
    Message('note_on', channel=13, note=41, velocity=95, time=0),
    Message('note_off', channel=13, note=41, velocity=95, time=480),
    Message('note_on', channel=13, note=41, velocity=95, time=0),
    Message('note_off', channel=13, note=41, velocity=95, time=480),
    Message('note_on', channel=13, note=41, velocity=95, time=0),
    Message('note_off', channel=13, note=41, velocity=95, time=2880),
    Message('note_on', channel=13, note=38, velocity=95, time=0),
    Message('note_off', channel=13, note=38, velocity=95, time=1440),
    Message('note_on', channel=13, note=40, velocity=95, time=0),
    Message('note_off', channel=13, note=40, velocity=95, time=1440),
    Message('note_on', channel=13, note=36, velocity=95, time=0),
    Message('note_off', channel=13, note=36, velocity=95, time=960),
    Message('note_on', channel=13, note=33, velocity=95, time=0),
    Message('note_off', channel=13, note=33, velocity=95, time=3840),
    Message('note_on', channel=13, note=33, velocity=95, time=0),
    Message('note_off', channel=13, note=33, velocity=95, time=1920),
    Message('note_on', channel=13, note=33, velocity=95, time=480),
    Message('note_off', channel=13, note=33, velocity=95, time=480),
    Message('note_on', channel=13, note=38, velocity=95, time=0),
    Message('note_off', channel=13, note=38, velocity=95, time=240),
    Message('note_on', channel=13, note=40, velocity=70, time=0),
    Message('note_off', channel=13, note=40, velocity=70, time=240),
    Message('note_on', channel=13, note=33, velocity=95, time=0),
    Message('note_off', channel=13, note=33, velocity=95, time=480),
    Message('note_on', channel=13, note=41, velocity=95, time=0),
    Message('note_off', channel=13, note=41, velocity=95, time=480),
    Message('note_on', channel=13, note=41, velocity=95, time=0),
    Message('note_off', channel=13, note=41, velocity=95, time=480),
    Message('note_on', channel=13, note=41, velocity=95, time=0),
    Message('note_off', channel=13, note=41, velocity=95, time=2880),
    Message('note_on', channel=13, note=38, velocity=95, time=0),
    Message('note_off', channel=13, note=38, velocity=95, time=1440),
    Message('note_on', channel=13, note=40, velocity=95, time=0),
    Message('note_off', channel=13, note=40, velocity=95, time=1440),
    Message('note_on', channel=13, note=36, velocity=95, time=0),
    Message('note_off', channel=13, note=36, velocity=95, time=960),
    Message('note_on', channel=13, note=33, velocity=95, time=0),
    Message('note_off', channel=13, note=33, velocity=95, time=3840),
    Message('note_on', channel=13, note=33, velocity=95, time=0),
    Message('note_off', channel=13, note=33, velocity=95, time=1920),
    Message('note_on', channel=13, note=33, velocity=95, time=480),
    Message('note_off', channel=13, note=33, velocity=95, time=480),
    Message('note_on', channel=13, note=38, velocity=95, time=0),
    Message('note_off', channel=13, note=38, velocity=95, time=240),
    Message('note_on', channel=13, note=40, velocity=70, time=0),
    Message('note_off', channel=13, note=40, velocity=70, time=240),
    Message('note_on', channel=13, note=33, velocity=95, time=0),
    Message('note_off', channel=13, note=33, velocity=95, time=480),
    Message('note_on', channel=13, note=41, velocity=95, time=0),
    Message('note_off', channel=13, note=41, velocity=95, time=480),
    Message('note_on', channel=13, note=41, velocity=95, time=0),
    Message('note_off', channel=13, note=41, velocity=95, time=480),
    Message('note_on', channel=13, note=41, velocity=95, time=0),
    Message('note_off', channel=13, note=41, velocity=95, time=2880),
    Message('note_on', channel=13, note=38, velocity=95, time=0),
    Message('note_off', channel=13, note=38, velocity=95, time=1440),
    Message('note_on', channel=13, note=40, velocity=95, time=0),
    Message('note_off', channel=13, note=40, velocity=95, time=1440),
    Message('note_on', channel=13, note=36, velocity=95, time=0),
    Message('note_off', channel=13, note=36, velocity=95, time=960),
    Message('note_on', channel=13, note=33, velocity=95, time=0),
    Message('note_off', channel=13, note=33, velocity=95, time=3840),
    Message('note_on', channel=13, note=33, velocity=95, time=0),
    Message('note_off', channel=13, note=33, velocity=95, time=1920),
    Message('note_on', channel=13, note=33, velocity=95, time=480),
    Message('note_off', channel=13, note=33, velocity=95, time=480),
    Message('note_on', channel=13, note=38, velocity=95, time=0),
    Message('note_off', channel=13, note=38, velocity=95, time=240),
    Message('note_on', channel=13, note=40, velocity=70, time=0),
    Message('note_off', channel=13, note=40, velocity=70, time=240),
    Message('note_on', channel=13, note=33, velocity=95, time=0),
    Message('note_off', channel=13, note=33, velocity=95, time=480),
    Message('note_on', channel=13, note=41, velocity=95, time=0),
    Message('note_off', channel=13, note=41, velocity=95, time=480),
    Message('note_on', channel=13, note=41, velocity=95, time=0),
    Message('note_off', channel=13, note=41, velocity=95, time=480),
    Message('note_on', channel=13, note=41, velocity=95, time=0),
    Message('note_off', channel=13, note=41, velocity=95, time=2880),
    Message('note_on', channel=13, note=38, velocity=95, time=0),
    Message('note_off', channel=13, note=38, velocity=95, time=1440),
    Message('note_on', channel=13, note=40, velocity=95, time=0),
    Message('note_off', channel=13, note=40, velocity=95, time=1440),
    Message('note_on', channel=13, note=36, velocity=95, time=0),
    Message('note_off', channel=13, note=36, velocity=95, time=960),
    Message('note_on', channel=13, note=33, velocity=95, time=0),
    Message('note_off', channel=13, note=33, velocity=95, time=3840),
    Message('note_on', channel=13, note=33, velocity=95, time=0),
    Message('note_off', channel=13, note=33, velocity=95, time=1920),
    Message('note_on', channel=13, note=33, velocity=95, time=480),
    Message('note_off', channel=13, note=33, velocity=95, time=480),
    Message('note_on', channel=13, note=38, velocity=95, time=0),
    Message('note_off', channel=13, note=38, velocity=95, time=240),
    Message('note_on', channel=13, note=40, velocity=70, time=0),
    Message('note_off', channel=13, note=40, velocity=70, time=240),
    Message('note_on', channel=13, note=33, velocity=95, time=0),
    Message('note_off', channel=13, note=33, velocity=95, time=480),
    Message('note_on', channel=13, note=41, velocity=95, time=0),
    Message('note_off', channel=13, note=41, velocity=95, time=480),
    Message('note_on', channel=13, note=41, velocity=95, time=0),
    Message('note_off', channel=13, note=41, velocity=95, time=480),
    Message('note_on', channel=13, note=41, velocity=95, time=0),
    Message('note_off', channel=13, note=41, velocity=95, time=2880),
    Message('note_on', channel=13, note=38, velocity=95, time=0),
    Message('note_off', channel=13, note=38, velocity=95, time=1440),
    Message('note_on', channel=13, note=40, velocity=95, time=0),
    Message('note_off', channel=13, note=40, velocity=95, time=1440),
    Message('note_on', channel=13, note=36, velocity=95, time=0),
    Message('note_off', channel=13, note=36, velocity=95, time=960),
    Message('note_on', channel=13, note=33, velocity=95, time=0),
    Message('note_off', channel=13, note=33, velocity=95, time=3840),
    Message('note_on', channel=13, note=33, velocity=95, time=0),
    Message('note_off', channel=13, note=33, velocity=95, time=1920),
    Message('note_on', channel=13, note=33, velocity=95, time=480),
    Message('note_off', channel=13, note=33, velocity=95, time=480),
    Message('note_on', channel=13, note=38, velocity=95, time=0),
    Message('note_off', channel=13, note=38, velocity=95, time=240),
    Message('note_on', channel=13, note=40, velocity=70, time=0),
    Message('note_off', channel=13, note=40, velocity=70, time=240),
    Message('note_on', channel=13, note=33, velocity=95, time=0),
    Message('note_off', channel=13, note=33, velocity=95, time=480),
    Message('note_on', channel=13, note=41, velocity=95, time=0),
    Message('note_off', channel=13, note=41, velocity=95, time=480),
    Message('note_on', channel=13, note=41, velocity=95, time=0),
    Message('note_off', channel=13, note=41, velocity=95, time=480),
    Message('note_on', channel=13, note=41, velocity=95, time=0),
    Message('note_off', channel=13, note=41, velocity=95, time=2880),
    Message('note_on', channel=13, note=38, velocity=95, time=0),
    Message('note_off', channel=13, note=38, velocity=95, time=1440),
    Message('note_on', channel=13, note=40, velocity=95, time=0),
    Message('note_off', channel=13, note=40, velocity=95, time=1440),
    Message('note_on', channel=13, note=36, velocity=95, time=0),
    Message('note_off', channel=13, note=36, velocity=95, time=960),
    Message('note_on', channel=13, note=33, velocity=95, time=0),
    Message('note_off', channel=13, note=33, velocity=95, time=3840),
    Message('note_on', channel=13, note=33, velocity=95, time=0),
    Message('note_off', channel=13, note=33, velocity=95, time=1920),
    Message('note_on', channel=13, note=33, velocity=95, time=480),
    Message('note_off', channel=13, note=33, velocity=95, time=480),
    Message('note_on', channel=13, note=38, velocity=95, time=0),
    Message('note_off', channel=13, note=38, velocity=95, time=240),
    Message('note_on', channel=13, note=40, velocity=70, time=0),
    Message('note_off', channel=13, note=40, velocity=70, time=240),
    Message('note_on', channel=13, note=33, velocity=95, time=0),
    Message('note_off', channel=13, note=33, velocity=95, time=480),
    Message('note_on', channel=13, note=41, velocity=95, time=0),
    Message('note_off', channel=13, note=41, velocity=95, time=480),
    Message('note_on', channel=13, note=41, velocity=95, time=0),
    Message('note_off', channel=13, note=41, velocity=95, time=480),
    Message('note_on', channel=13, note=41, velocity=95, time=0),
    Message('note_off', channel=13, note=41, velocity=95, time=2880),
    Message('note_on', channel=13, note=38, velocity=95, time=0),
    Message('note_off', channel=13, note=38, velocity=95, time=1440),
    Message('note_on', channel=13, note=40, velocity=95, time=0),
    Message('note_off', channel=13, note=40, velocity=95, time=1440),
    Message('note_on', channel=13, note=36, velocity=95, time=0),
    Message('note_off', channel=13, note=36, velocity=95, time=960),
    Message('note_on', channel=13, note=33, velocity=95, time=0),
    Message('note_off', channel=13, note=33, velocity=95, time=3840),
    Message('note_on', channel=13, note=33, velocity=95, time=0),
    Message('note_off', channel=13, note=33, velocity=95, time=1920),
    Message('note_on', channel=13, note=33, velocity=95, time=480),
    Message('note_off', channel=13, note=33, velocity=95, time=480),
    Message('note_on', channel=13, note=38, velocity=95, time=0),
    Message('note_off', channel=13, note=38, velocity=95, time=240),
    Message('note_on', channel=13, note=40, velocity=70, time=0),
    Message('note_off', channel=13, note=40, velocity=70, time=240),
    Message('note_on', channel=13, note=33, velocity=95, time=0),
    Message('note_off', channel=13, note=33, velocity=95, time=480),
    Message('note_on', channel=13, note=41, velocity=95, time=0),
    Message('note_off', channel=13, note=41, velocity=95, time=480),
    Message('note_on', channel=13, note=41, velocity=95, time=0),
    Message('note_off', channel=13, note=41, velocity=95, time=480),
    Message('note_on', channel=13, note=41, velocity=95, time=0),
    Message('note_off', channel=13, note=41, velocity=95, time=2880),
    Message('note_on', channel=13, note=38, velocity=95, time=0),
    Message('note_off', channel=13, note=38, velocity=95, time=1440),
    Message('note_on', channel=13, note=40, velocity=95, time=0),
    Message('note_off', channel=13, note=40, velocity=95, time=1440),
    Message('note_on', channel=13, note=36, velocity=95, time=0),
    Message('note_off', channel=13, note=36, velocity=95, time=960),
    Message('note_on', channel=13, note=33, velocity=95, time=0),
    Message('note_off', channel=13, note=33, velocity=95, time=3840),
    Message('note_on', channel=13, note=33, velocity=95, time=0),
    Message('note_off', channel=13, note=33, velocity=95, time=1920),
    Message('note_on', channel=13, note=33, velocity=95, time=480),
    Message('note_off', channel=13, note=33, velocity=95, time=480),
    Message('note_on', channel=13, note=38, velocity=95, time=0),
    Message('note_off', channel=13, note=38, velocity=95, time=240),
    Message('note_on', channel=13, note=40, velocity=70, time=0),
    Message('note_off', channel=13, note=40, velocity=70, time=240),
    Message('note_on', channel=13, note=33, velocity=95, time=0),
    Message('note_off', channel=13, note=33, velocity=95, time=480),
    Message('note_on', channel=13, note=41, velocity=95, time=0),
    Message('note_off', channel=13, note=41, velocity=95, time=480),
    Message('note_on', channel=13, note=41, velocity=95, time=0),
    Message('note_off', channel=13, note=41, velocity=95, time=480),
    Message('note_on', channel=13, note=41, velocity=95, time=0),
    Message('note_off', channel=13, note=41, velocity=95, time=2880),
    Message('note_on', channel=13, note=38, velocity=95, time=0),
    Message('note_off', channel=13, note=38, velocity=95, time=1440),
    Message('note_on', channel=13, note=40, velocity=95, time=0),
    Message('note_off', channel=13, note=40, velocity=95, time=1440),
    Message('note_on', channel=13, note=36, velocity=95, time=0),
    Message('note_off', channel=13, note=36, velocity=95, time=960),
    Message('note_on', channel=13, note=33, velocity=95, time=0),
    Message('note_off', channel=13, note=33, velocity=95, time=3840),
    Message('note_on', channel=13, note=33, velocity=95, time=0),
    Message('note_off', channel=13, note=33, velocity=95, time=1920),
    Message('note_on', channel=13, note=33, velocity=95, time=480),
    Message('note_off', channel=13, note=33, velocity=95, time=480),
    Message('note_on', channel=13, note=38, velocity=95, time=0),
    Message('note_off', channel=13, note=38, velocity=95, time=240),
    Message('note_on', channel=13, note=40, velocity=70, time=0),
    Message('note_off', channel=13, note=40, velocity=70, time=240),
    Message('note_on', channel=13, note=33, velocity=95, time=0),
    Message('note_off', channel=13, note=33, velocity=95, time=480),
    Message('note_on', channel=13, note=41, velocity=95, time=0),
    Message('note_off', channel=13, note=41, velocity=95, time=480),
    Message('note_on', channel=13, note=41, velocity=95, time=0),
    Message('note_off', channel=13, note=41, velocity=95, time=480),
    Message('note_on', channel=13, note=41, velocity=95, time=0),
    Message('note_off', channel=13, note=41, velocity=95, time=2880),
    Message('note_on', channel=13, note=38, velocity=95, time=0),
    Message('note_off', channel=13, note=38, velocity=95, time=1440),
    Message('note_on', channel=13, note=40, velocity=95, time=0),
    Message('note_off', channel=13, note=40, velocity=95, time=1440),
    Message('note_on', channel=13, note=36, velocity=95, time=0),
    Message('note_off', channel=13, note=36, velocity=95, time=960),
    Message('note_on', channel=13, note=33, velocity=95, time=0),
    Message('note_off', channel=13, note=33, velocity=95, time=3840),
    Message('note_on', channel=13, note=33, velocity=95, time=0),
    Message('note_off', channel=13, note=33, velocity=95, time=1920),
    Message('note_on', channel=13, note=33, velocity=95, time=480),
    Message('note_off', channel=13, note=33, velocity=95, time=480),
    Message('note_on', channel=13, note=38, velocity=95, time=0),
    Message('note_off', channel=13, note=38, velocity=95, time=240),
    Message('note_on', channel=13, note=40, velocity=70, time=0),
    Message('note_off', channel=13, note=40, velocity=70, time=240),
    Message('note_on', channel=13, note=33, velocity=95, time=0),
    Message('note_off', channel=13, note=33, velocity=95, time=480),
    Message('note_on', channel=13, note=41, velocity=95, time=0),
    Message('note_off', channel=13, note=41, velocity=95, time=480),
    Message('note_on', channel=13, note=41, velocity=95, time=0),
    Message('note_off', channel=13, note=41, velocity=95, time=480),
    Message('note_on', channel=13, note=41, velocity=95, time=0),
    Message('note_off', channel=13, note=41, velocity=95, time=2880),
    Message('note_on', channel=13, note=38, velocity=95, time=0),
    Message('note_off', channel=13, note=38, velocity=95, time=1440),
    Message('note_on', channel=13, note=40, velocity=95, time=0),
    Message('note_off', channel=13, note=40, velocity=95, time=1440),
    Message('note_on', channel=13, note=36, velocity=95, time=0),
    Message('note_off', channel=13, note=36, velocity=95, time=960),
    Message('note_on', channel=13, note=33, velocity=95, time=0),
    Message('note_off', channel=13, note=33, velocity=95, time=3840),
    Message('note_on', channel=13, note=33, velocity=95, time=0),
    Message('note_off', channel=13, note=33, velocity=95, time=1920),
    Message('note_on', channel=13, note=33, velocity=95, time=480),
    Message('note_off', channel=13, note=33, velocity=95, time=480),
    Message('note_on', channel=13, note=38, velocity=95, time=0),
    Message('note_off', channel=13, note=38, velocity=95, time=240),
    Message('note_on', channel=13, note=40, velocity=70, time=0),
    Message('note_off', channel=13, note=40, velocity=70, time=240),
    Message('note_on', channel=13, note=33, velocity=95, time=0),
    Message('note_off', channel=13, note=33, velocity=95, time=480),
    Message('note_on', channel=13, note=33, velocity=95, time=0),
    Message('note_off', channel=13, note=33, velocity=95, time=480),
    Message('note_on', channel=13, note=52, velocity=95, time=0),
    Message('note_off', channel=13, note=52, velocity=95, time=480),
    Message('note_on', channel=13, note=55, velocity=95, time=0),
    Message('note_off', channel=13, note=55, velocity=95, time=480),
    Message('note_on', channel=13, note=52, velocity=95, time=0),
    Message('note_off', channel=13, note=52, velocity=95, time=480),
    Message('note_on', channel=13, note=33, velocity=95, time=0),
    Message('note_off', channel=13, note=33, velocity=95, time=480),
    Message('note_on', channel=13, note=50, velocity=95, time=0),
    Message('note_off', channel=13, note=50, velocity=95, time=480),
    Message('note_on', channel=13, note=54, velocity=95, time=0),
    Message('note_off', channel=13, note=54, velocity=95, time=480),
    Message('note_on', channel=13, note=50, velocity=95, time=0),
    Message('note_off', channel=13, note=50, velocity=95, time=480),
    Message('note_on', channel=13, note=33, velocity=95, time=0),
    Message('note_off', channel=13, note=33, velocity=95, time=480),
    Message('note_on', channel=13, note=47, velocity=95, time=0),
    Message('note_off', channel=13, note=47, velocity=95, time=480),
    Message('note_on', channel=13, note=50, velocity=95, time=0),
    Message('note_off', channel=13, note=50, velocity=95, time=480),
    Message('note_on', channel=13, note=33, velocity=95, time=0),
    Message('note_off', channel=13, note=33, velocity=95, time=960),
    Message('note_on', channel=13, note=48, velocity=95, time=0),
    Message('note_off', channel=13, note=48, velocity=95, time=480),
    Message('note_on', channel=13, note=52, velocity=95, time=0),
    Message('note_off', channel=13, note=52, velocity=95, time=480),
    Message('note_on', channel=13, note=48, velocity=95, time=0),
    Message('note_off', channel=13, note=48, velocity=95, time=480),
    Message('note_on', channel=13, note=33, velocity=95, time=0),
    Message('note_off', channel=13, note=33, velocity=95, time=480),
    Message('note_on', channel=13, note=43, velocity=95, time=0),
    Message('note_off', channel=13, note=43, velocity=95, time=480),
    Message('note_on', channel=13, note=47, velocity=95, time=0),
    Message('note_off', channel=13, note=47, velocity=95, time=480),
    Message('note_on', channel=13, note=33, velocity=95, time=0),
    Message('note_off', channel=13, note=33, velocity=95, time=960),
    Message('note_on', channel=13, note=45, velocity=95, time=0),
    Message('note_off', channel=13, note=45, velocity=95, time=480),
    Message('note_on', channel=13, note=48, velocity=95, time=0),
    Message('note_off', channel=13, note=48, velocity=95, time=480),
    Message('note_on', channel=13, note=45, velocity=95, time=0),
    Message('note_off', channel=13, note=45, velocity=95, time=480),
    Message('note_on', channel=13, note=33, velocity=95, time=0),
    Message('note_off', channel=13, note=33, velocity=95, time=480),
    Message('note_on', channel=13, note=43, velocity=95, time=0),
    Message('note_off', channel=13, note=43, velocity=95, time=480),
    Message('note_on', channel=13, note=47, velocity=95, time=0),
    Message('note_off', channel=13, note=47, velocity=95, time=480),
    Message('note_on', channel=13, note=33, velocity=95, time=0),
    Message('note_off', channel=13, note=33, velocity=95, time=960),
    Message('note_on', channel=13, note=45, velocity=95, time=0),
    Message('note_off', channel=13, note=45, velocity=95, time=480),
    Message('note_on', channel=13, note=48, velocity=95, time=0),
    Message('note_off', channel=13, note=48, velocity=95, time=480),
    Message('note_on', channel=13, note=45, velocity=95, time=0),
    Message('note_off', channel=13, note=45, velocity=95, time=480),
    Message('note_on', channel=13, note=33, velocity=95, time=0),
    Message('note_off', channel=13, note=33, velocity=95, time=480),
    Message('note_on', channel=13, note=52, velocity=95, time=0),
    Message('note_off', channel=13, note=52, velocity=95, time=480),
    Message('note_on', channel=13, note=55, velocity=95, time=0),
    Message('note_off', channel=13, note=55, velocity=95, time=480),
    Message('note_on', channel=13, note=33, velocity=95, time=0),
    Message('note_off', channel=13, note=33, velocity=95, time=960),
    Message('note_on', channel=13, note=50, velocity=95, time=0),
    Message('note_off', channel=13, note=50, velocity=95, time=480),
    Message('note_on', channel=13, note=54, velocity=95, time=0),
    Message('note_off', channel=13, note=54, velocity=95, time=480),
    Message('note_on', channel=13, note=50, velocity=95, time=0),
    Message('note_off', channel=13, note=50, velocity=95, time=480),
    Message('note_on', channel=13, note=33, velocity=95, time=0),
    Message('note_off', channel=13, note=33, velocity=95, time=480),
    Message('note_on', channel=13, note=47, velocity=95, time=0),
    Message('note_off', channel=13, note=47, velocity=95, time=480),
    Message('note_on', channel=13, note=50, velocity=95, time=0),
    Message('note_off', channel=13, note=50, velocity=95, time=480),
    Message('note_on', channel=13, note=33, velocity=95, time=0),
    Message('note_off', channel=13, note=33, velocity=95, time=960),
    Message('note_on', channel=13, note=48, velocity=95, time=0),
    Message('note_off', channel=13, note=48, velocity=95, time=480),
    Message('note_on', channel=13, note=52, velocity=95, time=0),
    Message('note_off', channel=13, note=52, velocity=95, time=480),
    Message('note_on', channel=13, note=48, velocity=95, time=0),
    Message('note_off', channel=13, note=48, velocity=95, time=480),
    Message('note_on', channel=13, note=33, velocity=95, time=0),
    Message('note_off', channel=13, note=33, velocity=95, time=480),
    Message('note_on', channel=13, note=43, velocity=95, time=0),
    Message('note_off', channel=13, note=43, velocity=95, time=480),
    Message('note_on', channel=13, note=47, velocity=95, time=0),
    Message('note_off', channel=13, note=47, velocity=95, time=480),
    Message('note_on', channel=13, note=33, velocity=95, time=0),
    Message('note_off', channel=13, note=33, velocity=95, time=960),
    Message('note_on', channel=13, note=45, velocity=95, time=0),
    Message('note_off', channel=13, note=45, velocity=95, time=480),
    Message('note_on', channel=13, note=48, velocity=95, time=0),
    Message('note_off', channel=13, note=48, velocity=95, time=480),
    Message('note_on', channel=13, note=45, velocity=95, time=0),
    Message('note_off', channel=13, note=45, velocity=95, time=480),
    Message('note_on', channel=13, note=33, velocity=95, time=0),
    Message('note_off', channel=13, note=33, velocity=95, time=480),
    Message('note_on', channel=13, note=43, velocity=95, time=0),
    Message('note_off', channel=13, note=43, velocity=95, time=480),
    Message('note_on', channel=13, note=47, velocity=95, time=0),
    Message('note_off', channel=13, note=47, velocity=95, time=480),
    Message('note_on', channel=13, note=33, velocity=95, time=0),
    Message('note_off', channel=13, note=33, velocity=95, time=4800),
    MetaMessage('end_of_track', time=0)]),
  MidiTrack([
    Message('pitchwheel', channel=9, pitch=0, time=0),
    Message('control_change', channel=9, control=7, value=103, time=0),
    Message('control_change', channel=9, control=10, value=63, time=0),
    Message('control_change', channel=9, control=93, value=0, time=0),
    Message('control_change', channel=9, control=91, value=0, time=0),
    Message('control_change', channel=9, control=95, value=0, time=0),
    Message('control_change', channel=9, control=92, value=0, time=0),
    Message('control_change', channel=9, control=11, value=127, time=0),
    Message('program_change', channel=9, program=0, time=0),
    Message('note_on', channel=9, note=44, velocity=95, time=3840),
    Message('note_off', channel=9, note=44, velocity=95, time=480),
    Message('note_on', channel=9, note=44, velocity=95, time=480),
    Message('note_off', channel=9, note=44, velocity=95, time=480),
    Message('note_on', channel=9, note=44, velocity=95, time=480),
    Message('note_off', channel=9, note=44, velocity=95, time=480),
    Message('note_on', channel=9, note=51, velocity=95, time=16800),
    Message('note_off', channel=9, note=51, velocity=95, time=480),
    Message('note_on', channel=9, note=51, velocity=95, time=0),
    Message('note_off', channel=9, note=51, velocity=95, time=240),
    Message('note_on', channel=9, note=51, velocity=95, time=0),
    Message('note_off', channel=9, note=51, velocity=95, time=240),
    Message('note_on', channel=9, note=51, velocity=95, time=0),
    Message('note_off', channel=9, note=51, velocity=95, time=480),
    Message('note_on', channel=9, note=51, velocity=95, time=0),
    Message('note_off', channel=9, note=51, velocity=95, time=480),
    Message('note_on', channel=9, note=51, velocity=95, time=0),
    Message('note_off', channel=9, note=51, velocity=95, time=480),
    Message('note_on', channel=9, note=51, velocity=95, time=0),
    Message('note_off', channel=9, note=51, velocity=95, time=240),
    Message('note_on', channel=9, note=51, velocity=95, time=0),
    Message('note_off', channel=9, note=51, velocity=95, time=240),
    Message('note_on', channel=9, note=51, velocity=95, time=0),
    Message('note_off', channel=9, note=51, velocity=95, time=480),
    Message('note_on', channel=9, note=51, velocity=95, time=0),
    Message('note_off', channel=9, note=51, velocity=95, time=480),
    Message('note_on', channel=9, note=51, velocity=95, time=0),
    Message('note_off', channel=9, note=51, velocity=95, time=480),
    Message('note_on', channel=9, note=51, velocity=95, time=0),
    Message('note_off', channel=9, note=51, velocity=95, time=240),
    Message('note_on', channel=9, note=51, velocity=95, time=0),
    Message('note_off', channel=9, note=51, velocity=95, time=240),
    Message('note_on', channel=9, note=51, velocity=95, time=0),
    Message('note_off', channel=9, note=51, velocity=95, time=480),
    Message('note_on', channel=9, note=51, velocity=95, time=0),
    Message('note_off', channel=9, note=51, velocity=95, time=480),
    Message('note_on', channel=9, note=51, velocity=95, time=0),
    Message('note_off', channel=9, note=51, velocity=95, time=480),
    Message('note_on', channel=9, note=51, velocity=95, time=0),
    Message('note_off', channel=9, note=51, velocity=95, time=240),
    Message('note_on', channel=9, note=51, velocity=95, time=0),
    Message('note_off', channel=9, note=51, velocity=95, time=240),
    Message('note_on', channel=9, note=51, velocity=95, time=0),
    Message('note_off', channel=9, note=51, velocity=95, time=480),
    Message('note_on', channel=9, note=51, velocity=95, time=0),
    Message('note_off', channel=9, note=51, velocity=95, time=480),
    Message('note_on', channel=9, note=52, velocity=95, time=0),
    Message('note_on', channel=9, note=51, velocity=95, time=0),
    Message('note_off', channel=9, note=52, velocity=95, time=480),
    Message('note_off', channel=9, note=51, velocity=95, time=0),
    Message('note_on', channel=9, note=51, velocity=95, time=0),
    Message('note_off', channel=9, note=51, velocity=95, time=240),
    Message('note_on', channel=9, note=51, velocity=95, time=0),
    Message('note_off', channel=9, note=51, velocity=95, time=240),
    Message('note_on', channel=9, note=51, velocity=95, time=0),
    Message('note_off', channel=9, note=51, velocity=95, time=480),
    Message('note_on', channel=9, note=49, velocity=95, time=0),
    Message('note_on', channel=9, note=51, velocity=95, time=0),
    Message('note_off', channel=9, note=49, velocity=95, time=480),
    Message('note_off', channel=9, note=51, velocity=95, time=0),
    Message('note_on', channel=9, note=51, velocity=95, time=0),
    Message('note_off', channel=9, note=51, velocity=95, time=480),
    Message('note_on', channel=9, note=51, velocity=95, time=0),
    Message('note_off', channel=9, note=51, velocity=95, time=240),
    Message('note_on', channel=9, note=51, velocity=95, time=0),
    Message('note_off', channel=9, note=51, velocity=95, time=240),
    Message('note_on', channel=9, note=51, velocity=95, time=0),
    Message('note_off', channel=9, note=51, velocity=95, time=480),
    Message('note_on', channel=9, note=45, velocity=95, time=0),
    Message('note_on', channel=9, note=45, velocity=95, time=0),
    Message('note_on', channel=9, note=40, velocity=95, time=0),
    Message('note_on', channel=9, note=51, velocity=95, time=0),
    Message('note_off', channel=9, note=45, velocity=95, time=480),
    Message('note_off', channel=9, note=45, velocity=95, time=0),
    Message('note_off', channel=9, note=40, velocity=95, time=0),
    Message('note_off', channel=9, note=51, velocity=95, time=0),
    Message('note_on', channel=9, note=45, velocity=95, time=0),
    Message('note_on', channel=9, note=45, velocity=95, time=0),
    Message('note_on', channel=9, note=40, velocity=95, time=0),
    Message('note_off', channel=9, note=45, velocity=95, time=480),
    Message('note_off', channel=9, note=45, velocity=95, time=0),
    Message('note_off', channel=9, note=40, velocity=95, time=0),
    Message('note_on', channel=9, note=45, velocity=95, time=0),
    Message('note_on', channel=9, note=45, velocity=95, time=0),
    Message('note_on', channel=9, note=40, velocity=95, time=0),
    Message('note_off', channel=9, note=45, velocity=95, time=480),
    Message('note_off', channel=9, note=45, velocity=95, time=0),
    Message('note_off', channel=9, note=40, velocity=95, time=0),
    Message('note_on', channel=9, note=45, velocity=95, time=0),
    Message('note_on', channel=9, note=45, velocity=95, time=0),
    Message('note_on', channel=9, note=40, velocity=95, time=0),
    Message('note_off', channel=9, note=45, velocity=95, time=480),
    Message('note_off', channel=9, note=45, velocity=95, time=0),
    Message('note_off', channel=9, note=40, velocity=95, time=0),
    Message('note_on', channel=9, note=45, velocity=95, time=0),
    Message('note_on', channel=9, note=45, velocity=95, time=0),
    Message('note_on', channel=9, note=40, velocity=95, time=0),
    Message('note_off', channel=9, note=45, velocity=95, time=480),
    Message('note_off', channel=9, note=45, velocity=95, time=0),
    Message('note_off', channel=9, note=40, velocity=95, time=0),
    Message('note_on', channel=9, note=45, velocity=95, time=0),
    Message('note_on', channel=9, note=45, velocity=95, time=0),
    Message('note_on', channel=9, note=40, velocity=95, time=0),
    Message('note_off', channel=9, note=45, velocity=95, time=480),
    Message('note_off', channel=9, note=45, velocity=95, time=0),
    Message('note_off', channel=9, note=40, velocity=95, time=0),
    Message('note_on', channel=9, note=45, velocity=95, time=0),
    Message('note_on', channel=9, note=45, velocity=95, time=0),
    Message('note_on', channel=9, note=40, velocity=95, time=0),
    Message('note_off', channel=9, note=45, velocity=95, time=480),
    Message('note_off', channel=9, note=45, velocity=95, time=0),
    Message('note_off', channel=9, note=40, velocity=95, time=0),
    Message('note_on', channel=9, note=40, velocity=95, time=0),
    Message('note_on', channel=9, note=40, velocity=95, time=0),
    Message('note_off', channel=9, note=40, velocity=95, time=240),
    Message('note_off', channel=9, note=40, velocity=95, time=0),
    Message('note_on', channel=9, note=40, velocity=95, time=0),
    Message('note_on', channel=9, note=40, velocity=95, time=0),
    Message('note_off', channel=9, note=40, velocity=95, time=240),
    Message('note_off', channel=9, note=40, velocity=95, time=0),
    Message('note_on', channel=9, note=40, velocity=95, time=0),
    Message('note_on', channel=9, note=40, velocity=95, time=0),
    Message('note_off', channel=9, note=40, velocity=95, time=240),
    Message('note_off', channel=9, note=40, velocity=95, time=0),
    Message('note_on', channel=9, note=57, velocity=95, time=240),
    Message('note_on', channel=9, note=36, velocity=95, time=0),
    Message('note_on', channel=9, note=36, velocity=95, time=0),
    Message('note_on', channel=9, note=49, velocity=95, time=0),
    Message('note_off', channel=9, note=57, velocity=95, time=960),
    Message('note_off', channel=9, note=36, velocity=95, time=0),
    Message('note_off', channel=9, note=36, velocity=95, time=0),
    Message('note_off', channel=9, note=49, velocity=95, time=0),
    Message('note_on', channel=9, note=40, velocity=95, time=0),
    Message('note_on', channel=9, note=40, velocity=95, time=0),
    Message('note_on', channel=9, note=42, velocity=95, time=0),
    Message('note_off', channel=9, note=40, velocity=95, time=480),
    Message('note_off', channel=9, note=40, velocity=95, time=0),
    Message('note_off', channel=9, note=42, velocity=95, time=0),
    Message('note_on', channel=9, note=36, velocity=95, time=0),
    Message('note_on', channel=9, note=36, velocity=95, time=0),
    Message('note_off', channel=9, note=36, velocity=95, time=480),
    Message('note_off', channel=9, note=36, velocity=95, time=0),
    Message('note_on', channel=9, note=42, velocity=95, time=0),
    Message('note_off', channel=9, note=42, velocity=95, time=480),
    Message('note_on', channel=9, note=36, velocity=95, time=0),
    Message('note_on', channel=9, note=36, velocity=95, time=0),
    Message('note_off', channel=9, note=36, velocity=95, time=480),
    Message('note_off', channel=9, note=36, velocity=95, time=0),
    Message('note_on', channel=9, note=40, velocity=95, time=0),
    Message('note_on', channel=9, note=40, velocity=95, time=0),
    Message('note_on', channel=9, note=42, velocity=95, time=0),
    Message('note_off', channel=9, note=40, velocity=95, time=480),
    Message('note_off', channel=9, note=40, velocity=95, time=0),
    Message('note_off', channel=9, note=42, velocity=95, time=0),
    Message('note_on', channel=9, note=36, velocity=95, time=0),
    Message('note_on', channel=9, note=36, velocity=95, time=0),
    Message('note_off', channel=9, note=36, velocity=95, time=480),
    Message('note_off', channel=9, note=36, velocity=95, time=0),
    Message('note_on', channel=9, note=36, velocity=95, time=0),
    Message('note_on', channel=9, note=36, velocity=95, time=0),
    Message('note_on', channel=9, note=42, velocity=95, time=0),
    Message('note_off', channel=9, note=36, velocity=95, time=480),
    Message('note_off', channel=9, note=36, velocity=95, time=0),
    Message('note_off', channel=9, note=42, velocity=95, time=0),
    Message('note_on', channel=9, note=36, velocity=95, time=240),
    Message('note_on', channel=9, note=36, velocity=95, time=0),
    Message('note_off', channel=9, note=36, velocity=95, time=240),
    Message('note_off', channel=9, note=36, velocity=95, time=0),
    Message('note_on', channel=9, note=40, velocity=95, time=0),
    Message('note_on', channel=9, note=40, velocity=95, time=0),
    Message('note_on', channel=9, note=42, velocity=95, time=0),
    Message('note_off', channel=9, note=40, velocity=95, time=480),
    Message('note_off', channel=9, note=40, velocity=95, time=0),
    Message('note_off', channel=9, note=42, velocity=95, time=0),
    Message('note_on', channel=9, note=36, velocity=95, time=0),
    Message('note_on', channel=9, note=36, velocity=95, time=0),
    Message('note_off', channel=9, note=36, velocity=95, time=480),
    Message('note_off', channel=9, note=36, velocity=95, time=0),
    Message('note_on', channel=9, note=42, velocity=95, time=0),
    Message('note_off', channel=9, note=42, velocity=95, time=480),
    Message('note_on', channel=9, note=36, velocity=95, time=0),
    Message('note_on', channel=9, note=36, velocity=95, time=0),
    Message('note_off', channel=9, note=36, velocity=95, time=480),
    Message('note_off', channel=9, note=36, velocity=95, time=0),
    Message('note_on', channel=9, note=40, velocity=95, time=0),
    Message('note_on', channel=9, note=40, velocity=95, time=0),
    Message('note_on', channel=9, note=42, velocity=95, time=0),
    Message('note_off', channel=9, note=40, velocity=95, time=480),
    Message('note_off', channel=9, note=40, velocity=95, time=0),
    Message('note_off', channel=9, note=42, velocity=95, time=0),
    Message('note_on', channel=9, note=36, velocity=95, time=0),
    Message('note_on', channel=9, note=36, velocity=95, time=0),
    Message('note_off', channel=9, note=36, velocity=95, time=480),
    Message('note_off', channel=9, note=36, velocity=95, time=0),
    Message('note_on', channel=9, note=36, velocity=95, time=0),
    Message('note_on', channel=9, note=36, velocity=95, time=0),
    Message('note_on', channel=9, note=46, velocity=95, time=0),
    Message('note_off', channel=9, note=36, velocity=95, time=960),
    Message('note_off', channel=9, note=36, velocity=95, time=0),
    Message('note_off', channel=9, note=46, velocity=95, time=0),
    Message('note_on', channel=9, note=40, velocity=95, time=0),
    Message('note_on', channel=9, note=40, velocity=95, time=0),
    Message('note_on', channel=9, note=42, velocity=95, time=0),
    Message('note_off', channel=9, note=40, velocity=95, time=480),
    Message('note_off', channel=9, note=40, velocity=95, time=0),
    Message('note_off', channel=9, note=42, velocity=95, time=0),
    Message('note_on', channel=9, note=36, velocity=95, time=0),
    Message('note_on', channel=9, note=36, velocity=95, time=0),
    Message('note_off', channel=9, note=36, velocity=95, time=480),
    Message('note_off', channel=9, note=36, velocity=95, time=0),
    Message('note_on', channel=9, note=42, velocity=95, time=0),
    Message('note_off', channel=9, note=42, velocity=95, time=480),
    Message('note_on', channel=9, note=36, velocity=95, time=0),
    Message('note_on', channel=9, note=36, velocity=95, time=0),
    Message('note_off', channel=9, note=36, velocity=95, time=480),
    Message('note_off', channel=9, note=36, velocity=95, time=0),
    Message('note_on', channel=9, note=40, velocity=95, time=0),
    Message('note_on', channel=9, note=40, velocity=95, time=0),
    Message('note_on', channel=9, note=42, velocity=95, time=0),
    Message('note_off', channel=9, note=40, velocity=95, time=480),
    Message('note_off', channel=9, note=40, velocity=95, time=0),
    Message('note_off', channel=9, note=42, velocity=95, time=0),
    Message('note_on', channel=9, note=36, velocity=95, time=480),
    Message('note_on', channel=9, note=36, velocity=95, time=0),
    Message('note_on', channel=9, note=42, velocity=95, time=0),
    Message('note_off', channel=9, note=36, velocity=95, time=480),
    Message('note_off', channel=9, note=36, velocity=95, time=0),
    Message('note_off', channel=9, note=42, velocity=95, time=0),
    Message('note_on', channel=9, note=36, velocity=95, time=240),
    Message('note_on', channel=9, note=36, velocity=95, time=0),
    Message('note_off', channel=9, note=36, velocity=95, time=240),
    Message('note_off', channel=9, note=36, velocity=95, time=0),
    Message('note_on', channel=9, note=40, velocity=95, time=0),
    Message('note_on', channel=9, note=40, velocity=95, time=0),
    Message('note_on', channel=9, note=42, velocity=95, time=0),
    Message('note_off', channel=9, note=40, velocity=95, time=480),
    Message('note_off', channel=9, note=40, velocity=95, time=0),
    Message('note_off', channel=9, note=42, velocity=95, time=0),
    Message('note_on', channel=9, note=36, velocity=95, time=0),
    Message('note_on', channel=9, note=36, velocity=95, time=0),
    Message('note_off', channel=9, note=36, velocity=95, time=480),
    Message('note_off', channel=9, note=36, velocity=95, time=0),
    Message('note_on', channel=9, note=42, velocity=95, time=0),
    Message('note_off', channel=9, note=42, velocity=95, time=480),
    Message('note_on', channel=9, note=36, velocity=95, time=0),
    Message('note_on', channel=9, note=36, velocity=95, time=0),
    Message('note_off', channel=9, note=36, velocity=95, time=480),
    Message('note_off', channel=9, note=36, velocity=95, time=0),
    Message('note_on', channel=9, note=40, velocity=95, time=0),
    Message('note_on', channel=9, note=40, velocity=95, time=0),
    Message('note_on', channel=9, note=42, velocity=95, time=0),
    Message('note_off', channel=9, note=40, velocity=95, time=480),
    Message('note_off', channel=9, note=40, velocity=95, time=0),
    Message('note_off', channel=9, note=42, velocity=95, time=0),
    Message('note_on', channel=9, note=36, velocity=95, time=0),
    Message('note_on', channel=9, note=36, velocity=95, time=0),
    Message('note_off', channel=9, note=36, velocity=95, time=480),
    Message('note_off', channel=9, note=36, velocity=95, time=0),
    Message('note_on', channel=9, note=36, velocity=95, time=0),
    Message('note_on', channel=9, note=36, velocity=95, time=0),
    Message('note_on', channel=9, note=46, velocity=95, time=0),
    Message('note_off', channel=9, note=36, velocity=95, time=960),
    Message('note_off', channel=9, note=36, velocity=95, time=0),
    Message('note_off', channel=9, note=46, velocity=95, time=0),
    Message('note_on', channel=9, note=40, velocity=95, time=0),
    Message('note_on', channel=9, note=40, velocity=95, time=0),
    Message('note_on', channel=9, note=42, velocity=95, time=0),
    Message('note_off', channel=9, note=40, velocity=95, time=480),
    Message('note_off', channel=9, note=40, velocity=95, time=0),
    Message('note_off', channel=9, note=42, velocity=95, time=0),
    Message('note_on', channel=9, note=36, velocity=95, time=0),
    Message('note_on', channel=9, note=36, velocity=95, time=0),
    Message('note_off', channel=9, note=36, velocity=95, time=480),
    Message('note_off', channel=9, note=36, velocity=95, time=0),
    Message('note_on', channel=9, note=42, velocity=95, time=0),
    Message('note_off', channel=9, note=42, velocity=95, time=480),
    Message('note_on', channel=9, note=36, velocity=95, time=0),
    Message('note_on', channel=9, note=36, velocity=95, time=0),
    Message('note_off', channel=9, note=36, velocity=95, time=480),
    Message('note_off', channel=9, note=36, velocity=95, time=0),
    Message('note_on', channel=9, note=40, velocity=95, time=0),
    Message('note_on', channel=9, note=40, velocity=95, time=0),
    Message('note_on', channel=9, note=42, velocity=95, time=0),
    Message('note_off', channel=9, note=40, velocity=95, time=480),
    Message('note_off', channel=9, note=40, velocity=95, time=0),
    Message('note_off', channel=9, note=42, velocity=95, time=0),
    Message('note_on', channel=9, note=36, velocity=95, time=0),
    Message('note_on', channel=9, note=36, velocity=95, time=0),
    Message('note_off', channel=9, note=36, velocity=95, time=480),
    Message('note_off', channel=9, note=36, velocity=95, time=0),
    Message('note_on', channel=9, note=36, velocity=95, time=0),
    Message('note_on', channel=9, note=36, velocity=95, time=0),
    Message('note_on', channel=9, note=42, velocity=95, time=0),
    Message('note_off', channel=9, note=36, velocity=95, time=480),
    Message('note_off', channel=9, note=36, velocity=95, time=0),
    Message('note_off', channel=9, note=42, velocity=95, time=0),
    Message('note_on', channel=9, note=36, velocity=95, time=240),
    Message('note_on', channel=9, note=36, velocity=95, time=0),
    Message('note_off', channel=9, note=36, velocity=95, time=240),
    Message('note_off', channel=9, note=36, velocity=95, time=0),
    Message('note_on', channel=9, note=40, velocity=95, time=0),
    Message('note_on', channel=9, note=40, velocity=95, time=0),
    Message('note_on', channel=9, note=42, velocity=95, time=0),
    Message('note_off', channel=9, note=40, velocity=95, time=480),
    Message('note_off', channel=9, note=40, velocity=95, time=0),
    Message('note_off', channel=9, note=42, velocity=95, time=0),
    Message('note_on', channel=9, note=36, velocity=95, time=0),
    Message('note_on', channel=9, note=36, velocity=95, time=0),
    Message('note_off', channel=9, note=36, velocity=95, time=480),
    Message('note_off', channel=9, note=36, velocity=95, time=0),
    Message('note_on', channel=9, note=42, velocity=95, time=0),
    Message('note_off', channel=9, note=42, velocity=95, time=480),
    Message('note_on', channel=9, note=36, velocity=95, time=0),
    Message('note_on', channel=9, note=36, velocity=95, time=0),
    Message('note_off', channel=9, note=36, velocity=95, time=480),
    Message('note_off', channel=9, note=36, velocity=95, time=0),
    Message('note_on', channel=9, note=40, velocity=95, time=0),
    Message('note_on', channel=9, note=40, velocity=95, time=0),
    Message('note_on', channel=9, note=42, velocity=95, time=0),
    Message('note_off', channel=9, note=40, velocity=95, time=480),
    Message('note_off', channel=9, note=40, velocity=95, time=0),
    Message('note_off', channel=9, note=42, velocity=95, time=0),
    Message('note_on', channel=9, note=36, velocity=95, time=0),
    Message('note_on', channel=9, note=36, velocity=95, time=0),
    Message('note_off', channel=9, note=36, velocity=95, time=480),
    Message('note_off', channel=9, note=36, velocity=95, time=0),
    Message('note_on', channel=9, note=36, velocity=95, time=0),
    Message('note_on', channel=9, note=36, velocity=95, time=0),
    Message('note_on', channel=9, note=46, velocity=95, time=0),
    Message('note_off', channel=9, note=36, velocity=95, time=960),
    Message('note_off', channel=9, note=36, velocity=95, time=0),
    Message('note_off', channel=9, note=46, velocity=95, time=0),
    Message('note_on', channel=9, note=40, velocity=95, time=0),
    Message('note_on', channel=9, note=40, velocity=95, time=0),
    Message('note_on', channel=9, note=42, velocity=95, time=0),
    Message('note_off', channel=9, note=40, velocity=95, time=480),
    Message('note_off', channel=9, note=40, velocity=95, time=0),
    Message('note_off', channel=9, note=42, velocity=95, time=0),
    Message('note_on', channel=9, note=36, velocity=95, time=0),
    Message('note_on', channel=9, note=36, velocity=95, time=0),
    Message('note_off', channel=9, note=36, velocity=95, time=480),
    Message('note_off', channel=9, note=36, velocity=95, time=0),
    Message('note_on', channel=9, note=42, velocity=95, time=0),
    Message('note_off', channel=9, note=42, velocity=95, time=480),
    Message('note_on', channel=9, note=36, velocity=95, time=0),
    Message('note_on', channel=9, note=36, velocity=95, time=0),
    Message('note_off', channel=9, note=36, velocity=95, time=480),
    Message('note_off', channel=9, note=36, velocity=95, time=0),
    Message('note_on', channel=9, note=40, velocity=95, time=0),
    Message('note_on', channel=9, note=40, velocity=95, time=0),
    Message('note_on', channel=9, note=42, velocity=95, time=0),
    Message('note_off', channel=9, note=40, velocity=95, time=480),
    Message('note_off', channel=9, note=40, velocity=95, time=0),
    Message('note_off', channel=9, note=42, velocity=95, time=0),
    Message('note_on', channel=9, note=36, velocity=95, time=0),
    Message('note_on', channel=9, note=36, velocity=95, time=0),
    Message('note_off', channel=9, note=36, velocity=95, time=480),
    Message('note_off', channel=9, note=36, velocity=95, time=0),
    Message('note_on', channel=9, note=36, velocity=95, time=0),
    Message('note_on', channel=9, note=36, velocity=95, time=0),
    Message('note_on', channel=9, note=42, velocity=95, time=0),
    Message('note_off', channel=9, note=36, velocity=95, time=960),
    Message('note_off', channel=9, note=36, velocity=95, time=0),
    Message('note_off', channel=9, note=42, velocity=95, time=0),
    Message('note_on', channel=9, note=40, velocity=95, time=0),
    Message('note_on', channel=9, note=40, velocity=95, time=0),
    Message('note_on', channel=9, note=42, velocity=95, time=0),
    Message('note_off', channel=9, note=40, velocity=95, time=480),
    Message('note_off', channel=9, note=40, velocity=95, time=0),
    Message('note_off', channel=9, note=42, velocity=95, time=0),
    Message('note_on', channel=9, note=36, velocity=95, time=0),
    Message('note_on', channel=9, note=36, velocity=95, time=0),
    Message('note_off', channel=9, note=36, velocity=95, time=480),
    Message('note_off', channel=9, note=36, velocity=95, time=0),
    Message('note_on', channel=9, note=42, velocity=95, time=0),
    Message('note_off', channel=9, note=42, velocity=95, time=480),
    Message('note_on', channel=9, note=36, velocity=95, time=0),
    Message('note_on', channel=9, note=36, velocity=95, time=0),
    Message('note_off', channel=9, note=36, velocity=95, time=480),
    Message('note_off', channel=9, note=36, velocity=95, time=0),
    Message('note_on', channel=9, note=40, velocity=95, time=0),
    Message('note_on', channel=9, note=40, velocity=95, time=0),
    Message('note_on', channel=9, note=46, velocity=95, time=0),
    Message('note_off', channel=9, note=40, velocity=95, time=480),
    Message('note_off', channel=9, note=40, velocity=95, time=0),
    Message('note_off', channel=9, note=46, velocity=95, time=0),
    Message('note_on', channel=9, note=57, velocity=95, time=480),
    Message('note_on', channel=9, note=36, velocity=95, time=0),
    Message('note_on', channel=9, note=36, velocity=95, time=0),
    Message('note_on', channel=9, note=49, velocity=95, time=0),
    Message('note_off', channel=9, note=57, velocity=95, time=960),
    Message('note_off', channel=9, note=36, velocity=95, time=0),
    Message('note_off', channel=9, note=36, velocity=95, time=0),
    Message('note_off', channel=9, note=49, velocity=95, time=0),
    Message('note_on', channel=9, note=40, velocity=95, time=0),
    Message('note_on', channel=9, note=40, velocity=95, time=0),
    Message('note_on', channel=9, note=46, velocity=95, time=0),
    Message('note_off', channel=9, note=40, velocity=95, time=480),
    Message('note_off', channel=9, note=40, velocity=95, time=0),
    Message('note_off', channel=9, note=46, velocity=95, time=0),
    Message('note_on', channel=9, note=36, velocity=95, time=0),
    Message('note_on', channel=9, note=36, velocity=95, time=0),
    Message('note_off', channel=9, note=36, velocity=95, time=480),
    Message('note_off', channel=9, note=36, velocity=95, time=0),
    Message('note_on', channel=9, note=46, velocity=95, time=0),
    Message('note_off', channel=9, note=46, velocity=95, time=480),
    Message('note_on', channel=9, note=36, velocity=95, time=0),
    Message('note_on', channel=9, note=36, velocity=95, time=0),
    Message('note_off', channel=9, note=36, velocity=95, time=480),
    Message('note_off', channel=9, note=36, velocity=95, time=0),
    Message('note_on', channel=9, note=40, velocity=95, time=0),
    Message('note_on', channel=9, note=40, velocity=95, time=0),
    Message('note_on', channel=9, note=46, velocity=95, time=0),
    Message('note_off', channel=9, note=40, velocity=95, time=480),
    Message('note_off', channel=9, note=40, velocity=95, time=0),
    Message('note_off', channel=9, note=46, velocity=95, time=0),
    Message('note_on', channel=9, note=36, velocity=95, time=0),
    Message('note_on', channel=9, note=36, velocity=95, time=0),
    Message('note_off', channel=9, note=36, velocity=95, time=480),
    Message('note_off', channel=9, note=36, velocity=95, time=0),
    Message('note_on', channel=9, note=36, velocity=95, time=0),
    Message('note_on', channel=9, note=36, velocity=95, time=0),
    Message('note_on', channel=9, note=46, velocity=95, time=0),
    Message('note_off', channel=9, note=36, velocity=95, time=960),
    Message('note_off', channel=9, note=36, velocity=95, time=0),
    Message('note_off', channel=9, note=46, velocity=95, time=0),
    Message('note_on', channel=9, note=40, velocity=95, time=0),
    Message('note_on', channel=9, note=40, velocity=95, time=0),
    Message('note_on', channel=9, note=46, velocity=95, time=0),
    Message('note_off', channel=9, note=40, velocity=95, time=480),
    Message('note_off', channel=9, note=40, velocity=95, time=0),
    Message('note_off', channel=9, note=46, velocity=95, time=0),
    Message('note_on', channel=9, note=36, velocity=95, time=0),
    Message('note_on', channel=9, note=36, velocity=95, time=0),
    Message('note_off', channel=9, note=36, velocity=95, time=480),
    Message('note_off', channel=9, note=36, velocity=95, time=0),
    Message('note_on', channel=9, note=46, velocity=95, time=0),
    Message('note_off', channel=9, note=46, velocity=95, time=480),
    Message('note_on', channel=9, note=36, velocity=95, time=0),
    Message('note_on', channel=9, note=36, velocity=95, time=0),
    Message('note_off', channel=9, note=36, velocity=95, time=480),
    Message('note_off', channel=9, note=36, velocity=95, time=0),
    Message('note_on', channel=9, note=54, velocity=95, time=0),
    Message('note_on', channel=9, note=54, velocity=95, time=0),
    Message('note_on', channel=9, note=40, velocity=95, time=0),
    Message('note_on', channel=9, note=40, velocity=95, time=0),
    Message('note_on', channel=9, note=46, velocity=95, time=0),
    Message('note_off', channel=9, note=40, velocity=95, time=480),
    Message('note_off', channel=9, note=40, velocity=95, time=0),
    Message('note_off', channel=9, note=46, velocity=95, time=0),
    Message('note_off', channel=9, note=54, velocity=95, time=480),
    Message('note_off', channel=9, note=54, velocity=95, time=0),
    Message('note_on', channel=9, note=57, velocity=95, time=0),
    Message('note_on', channel=9, note=36, velocity=95, time=0),
    Message('note_on', channel=9, note=36, velocity=95, time=0),
    Message('note_on', channel=9, note=49, velocity=95, time=0),
    Message('note_off', channel=9, note=57, velocity=95, time=960),
    Message('note_off', channel=9, note=36, velocity=95, time=0),
    Message('note_off', channel=9, note=36, velocity=95, time=0),
    Message('note_off', channel=9, note=49, velocity=95, time=0),
    Message('note_on', channel=9, note=40, velocity=95, time=0),
    Message('note_on', channel=9, note=40, velocity=95, time=0),
    Message('note_on', channel=9, note=46, velocity=95, time=0),
    Message('note_off', channel=9, note=40, velocity=95, time=480),
    Message('note_off', channel=9, note=40, velocity=95, time=0),
    Message('note_off', channel=9, note=46, velocity=95, time=0),
    Message('note_on', channel=9, note=36, velocity=95, time=0),
    Message('note_on', channel=9, note=36, velocity=95, time=0),
    Message('note_off', channel=9, note=36, velocity=95, time=480),
    Message('note_off', channel=9, note=36, velocity=95, time=0),
    Message('note_on', channel=9, note=46, velocity=95, time=0),
    Message('note_off', channel=9, note=46, velocity=95, time=480),
    Message('note_on', channel=9, note=36, velocity=95, time=0),
    Message('note_on', channel=9, note=36, velocity=95, time=0),
    Message('note_off', channel=9, note=36, velocity=95, time=480),
    Message('note_off', channel=9, note=36, velocity=95, time=0),
    Message('note_on', channel=9, note=40, velocity=95, time=0),
    Message('note_on', channel=9, note=40, velocity=95, time=0),
    Message('note_on', channel=9, note=46, velocity=95, time=0),
    Message('note_off', channel=9, note=40, velocity=95, time=480),
    Message('note_off', channel=9, note=40, velocity=95, time=0),
    Message('note_off', channel=9, note=46, velocity=95, time=0),
    Message('note_on', channel=9, note=36, velocity=95, time=0),
    Message('note_on', channel=9, note=36, velocity=95, time=0),
    Message('note_off', channel=9, note=36, velocity=95, time=480),
    Message('note_off', channel=9, note=36, velocity=95, time=0),
    Message('note_on', channel=9, note=36, velocity=95, time=0),
    Message('note_on', channel=9, note=36, velocity=95, time=0),
    Message('note_on', channel=9, note=46, velocity=95, time=0),
    Message('note_off', channel=9, note=36, velocity=95, time=960),
    Message('note_off', channel=9, note=36, velocity=95, time=0),
    Message('note_off', channel=9, note=46, velocity=95, time=0),
    Message('note_on', channel=9, note=40, velocity=95, time=0),
    Message('note_on', channel=9, note=40, velocity=95, time=0),
    Message('note_on', channel=9, note=46, velocity=95, time=0),
    Message('note_off', channel=9, note=40, velocity=95, time=480),
    Message('note_off', channel=9, note=40, velocity=95, time=0),
    Message('note_off', channel=9, note=46, velocity=95, time=0),
    Message('note_on', channel=9, note=36, velocity=95, time=0),
    Message('note_on', channel=9, note=36, velocity=95, time=0),
    Message('note_off', channel=9, note=36, velocity=95, time=480),
    Message('note_off', channel=9, note=36, velocity=95, time=0),
    Message('note_on', channel=9, note=46, velocity=95, time=0),
    Message('note_off', channel=9, note=46, velocity=95, time=480),
    Message('note_on', channel=9, note=36, velocity=95, time=0),
    Message('note_on', channel=9, note=36, velocity=95, time=0),
    Message('note_off', channel=9, note=36, velocity=95, time=480),
    Message('note_off', channel=9, note=36, velocity=95, time=0),
    Message('note_on', channel=9, note=54, velocity=95, time=0),
    Message('note_on', channel=9, note=54, velocity=95, time=0),
    Message('note_on', channel=9, note=40, velocity=95, time=0),
    Message('note_on', channel=9, note=40, velocity=95, time=0),
    Message('note_on', channel=9, note=46, velocity=95, time=0),
    Message('note_off', channel=9, note=54, velocity=95, time=480),
    Message('note_off', channel=9, note=54, velocity=95, time=0),
    Message('note_off', channel=9, note=40, velocity=95, time=0),
    Message('note_off', channel=9, note=40, velocity=95, time=0),
    Message('note_off', channel=9, note=46, velocity=95, time=0),
    Message('note_on', channel=9, note=36, velocity=95, time=0),
    Message('note_on', channel=9, note=36, velocity=95, time=0),
    Message('note_off', channel=9, note=36, velocity=95, time=480),
    Message('note_off', channel=9, note=36, velocity=95, time=0),
    Message('note_on', channel=9, note=57, velocity=95, time=0),
    Message('note_on', channel=9, note=36, velocity=95, time=0),
    Message('note_on', channel=9, note=36, velocity=95, time=0),
    Message('note_on', channel=9, note=49, velocity=95, time=0),
    Message('note_off', channel=9, note=57, velocity=95, time=960),
    Message('note_off', channel=9, note=36, velocity=95, time=0),
    Message('note_off', channel=9, note=36, velocity=95, time=0),
    Message('note_off', channel=9, note=49, velocity=95, time=0),
    Message('note_on', channel=9, note=40, velocity=95, time=0),
    Message('note_on', channel=9, note=40, velocity=95, time=0),
    Message('note_on', channel=9, note=46, velocity=95, time=0),
    Message('note_off', channel=9, note=40, velocity=95, time=480),
    Message('note_off', channel=9, note=40, velocity=95, time=0),
    Message('note_off', channel=9, note=46, velocity=95, time=0),
    Message('note_on', channel=9, note=36, velocity=95, time=0),
    Message('note_on', channel=9, note=36, velocity=95, time=0),
    Message('note_off', channel=9, note=36, velocity=95, time=480),
    Message('note_off', channel=9, note=36, velocity=95, time=0),
    Message('note_on', channel=9, note=46, velocity=95, time=0),
    Message('note_off', channel=9, note=46, velocity=95, time=480),
    Message('note_on', channel=9, note=36, velocity=95, time=0),
    Message('note_on', channel=9, note=36, velocity=95, time=0),
    Message('note_off', channel=9, note=36, velocity=95, time=480),
    Message('note_off', channel=9, note=36, velocity=95, time=0),
    Message('note_on', channel=9, note=40, velocity=95, time=0),
    Message('note_on', channel=9, note=40, velocity=95, time=0),
    Message('note_on', channel=9, note=46, velocity=95, time=0),
    Message('note_off', channel=9, note=40, velocity=95, time=480),
    Message('note_off', channel=9, note=40, velocity=95, time=0),
    Message('note_off', channel=9, note=46, velocity=95, time=0),
    Message('note_on', channel=9, note=36, velocity=95, time=480),
    Message('note_on', channel=9, note=36, velocity=95, time=0),
    Message('note_on', channel=9, note=46, velocity=95, time=0),
    Message('note_off', channel=9, note=36, velocity=95, time=960),
    Message('note_off', channel=9, note=36, velocity=95, time=0),
    Message('note_off', channel=9, note=46, velocity=95, time=0),
    Message('note_on', channel=9, note=40, velocity=95, time=0),
    Message('note_on', channel=9, note=40, velocity=95, time=0),
    Message('note_on', channel=9, note=46, velocity=95, time=0),
    Message('note_off', channel=9, note=40, velocity=95, time=480),
    Message('note_off', channel=9, note=40, velocity=95, time=0),
    Message('note_off', channel=9, note=46, velocity=95, time=0),
    Message('note_on', channel=9, note=36, velocity=95, time=0),
    Message('note_on', channel=9, note=36, velocity=95, time=0),
    Message('note_off', channel=9, note=36, velocity=95, time=480),
    Message('note_off', channel=9, note=36, velocity=95, time=0),
    Message('note_on', channel=9, note=46, velocity=95, time=0),
    Message('note_off', channel=9, note=46, velocity=95, time=480),
    Message('note_on', channel=9, note=36, velocity=95, time=0),
    Message('note_on', channel=9, note=36, velocity=95, time=0),
    Message('note_off', channel=9, note=36, velocity=95, time=480),
    Message('note_off', channel=9, note=36, velocity=95, time=0),
    Message('note_on', channel=9, note=54, velocity=95, time=0),
    Message('note_on', channel=9, note=54, velocity=95, time=0),
    Message('note_on', channel=9, note=40, velocity=95, time=0),
    Message('note_on', channel=9, note=40, velocity=95, time=0),
    Message('note_on', channel=9, note=46, velocity=95, time=0),
    Message('note_off', channel=9, note=54, velocity=95, time=480),
    Message('note_off', channel=9, note=54, velocity=95, time=0),
    Message('note_off', channel=9, note=40, velocity=95, time=0),
    Message('note_off', channel=9, note=40, velocity=95, time=0),
    Message('note_off', channel=9, note=46, velocity=95, time=0),
    Message('note_on', channel=9, note=36, velocity=95, time=0),
    Message('note_on', channel=9, note=36, velocity=95, time=0),
    Message('note_off', channel=9, note=36, velocity=95, time=480),
    Message('note_off', channel=9, note=36, velocity=95, time=0),
    Message('note_on', channel=9, note=57, velocity=95, time=0),
    Message('note_on', channel=9, note=36, velocity=95, time=0),
    Message('note_on', channel=9, note=36, velocity=95, time=0),
    Message('note_on', channel=9, note=49, velocity=95, time=0),
    Message('note_off', channel=9, note=57, velocity=95, time=960),
    Message('note_off', channel=9, note=36, velocity=95, time=0),
    Message('note_off', channel=9, note=36, velocity=95, time=0),
    Message('note_off', channel=9, note=49, velocity=95, time=0),
    Message('note_on', channel=9, note=40, velocity=95, time=0),
    Message('note_on', channel=9, note=40, velocity=95, time=0),
    Message('note_on', channel=9, note=46, velocity=95, time=0),
    Message('note_off', channel=9, note=40, velocity=95, time=480),
    Message('note_off', channel=9, note=40, velocity=95, time=0),
    Message('note_off', channel=9, note=46, velocity=95, time=0),
    Message('note_on', channel=9, note=36, velocity=95, time=0),
    Message('note_on', channel=9, note=36, velocity=95, time=0),
    Message('note_off', channel=9, note=36, velocity=95, time=480),
    Message('note_off', channel=9, note=36, velocity=95, time=0),
    Message('note_on', channel=9, note=46, velocity=95, time=0),
    Message('note_off', channel=9, note=46, velocity=95, time=480),
    Message('note_on', channel=9, note=36, velocity=95, time=0),
    Message('note_on', channel=9, note=36, velocity=95, time=0),
    Message('note_off', channel=9, note=36, velocity=95, time=480),
    Message('note_off', channel=9, note=36, velocity=95, time=0),
    Message('note_on', channel=9, note=40, velocity=95, time=0),
    Message('note_on', channel=9, note=40, velocity=95, time=0),
    Message('note_on', channel=9, note=46, velocity=95, time=0),
    Message('note_off', channel=9, note=40, velocity=95, time=480),
    Message('note_off', channel=9, note=40, velocity=95, time=0),
    Message('note_off', channel=9, note=46, velocity=95, time=0),
    Message('note_on', channel=9, note=36, velocity=95, time=480),
    Message('note_on', channel=9, note=36, velocity=95, time=0),
    Message('note_on', channel=9, note=46, velocity=95, time=0),
    Message('note_off', channel=9, note=36, velocity=95, time=960),
    Message('note_off', channel=9, note=36, velocity=95, time=0),
    Message('note_off', channel=9, note=46, velocity=95, time=0),
    Message('note_on', channel=9, note=40, velocity=95, time=0),
    Message('note_on', channel=9, note=40, velocity=95, time=0),
    Message('note_on', channel=9, note=46, velocity=95, time=0),
    Message('note_off', channel=9, note=40, velocity=95, time=480),
    Message('note_off', channel=9, note=40, velocity=95, time=0),
    Message('note_off', channel=9, note=46, velocity=95, time=0),
    Message('note_on', channel=9, note=36, velocity=95, time=0),
    Message('note_on', channel=9, note=36, velocity=95, time=0),
    Message('note_off', channel=9, note=36, velocity=95, time=480),
    Message('note_off', channel=9, note=36, velocity=95, time=0),
    Message('note_on', channel=9, note=46, velocity=95, time=0),
    Message('note_off', channel=9, note=46, velocity=95, time=480),
    Message('note_on', channel=9, note=36, velocity=95, time=0),
    Message('note_on', channel=9, note=36, velocity=95, time=0),
    Message('note_off', channel=9, note=36, velocity=95, time=480),
    Message('note_off', channel=9, note=36, velocity=95, time=0),
    Message('note_on', channel=9, note=54, velocity=95, time=0),
    Message('note_on', channel=9, note=54, velocity=95, time=0),
    Message('note_on', channel=9, note=40, velocity=95, time=0),
    Message('note_on', channel=9, note=40, velocity=95, time=0),
    Message('note_on', channel=9, note=46, velocity=95, time=0),
    Message('note_off', channel=9, note=54, velocity=95, time=240),
    Message('note_off', channel=9, note=54, velocity=95, time=0),
    Message('note_off', channel=9, note=40, velocity=95, time=0),
    Message('note_off', channel=9, note=40, velocity=95, time=0),
    Message('note_off', channel=9, note=46, velocity=95, time=0),
    Message('note_on', channel=9, note=40, velocity=95, time=0),
    Message('note_on', channel=9, note=40, velocity=95, time=0),
    Message('note_off', channel=9, note=40, velocity=95, time=240),
    Message('note_off', channel=9, note=40, velocity=95, time=0),
    Message('note_on', channel=9, note=40, velocity=95, time=0),
    Message('note_on', channel=9, note=40, velocity=95, time=0),
    Message('note_off', channel=9, note=40, velocity=95, time=240),
    Message('note_off', channel=9, note=40, velocity=95, time=0),
    Message('note_on', channel=9, note=49, velocity=95, time=240),
    Message('note_on', channel=9, note=36, velocity=95, time=0),
    Message('note_on', channel=9, note=36, velocity=95, time=0),
    Message('note_off', channel=9, note=49, velocity=95, time=480),
    Message('note_off', channel=9, note=36, velocity=95, time=0),
    Message('note_off', channel=9, note=36, velocity=95, time=0),
    Message('note_on', channel=9, note=57, velocity=95, time=0),
    Message('note_on', channel=9, note=36, velocity=95, time=0),
    Message('note_on', channel=9, note=36, velocity=95, time=0),
    Message('note_off', channel=9, note=57, velocity=95, time=480),
    Message('note_off', channel=9, note=36, velocity=95, time=0),
    Message('note_off', channel=9, note=36, velocity=95, time=0),
    Message('note_on', channel=9, note=54, velocity=95, time=0),
    Message('note_on', channel=9, note=51, velocity=95, time=0),
    Message('note_on', channel=9, note=40, velocity=95, time=0),
    Message('note_on', channel=9, note=40, velocity=95, time=0),
    Message('note_off', channel=9, note=54, velocity=95, time=480),
    Message('note_off', channel=9, note=51, velocity=95, time=0),
    Message('note_off', channel=9, note=40, velocity=95, time=0),
    Message('note_off', channel=9, note=40, velocity=95, time=0),
    Message('note_on', channel=9, note=51, velocity=95, time=480),
    Message('note_on', channel=9, note=36, velocity=95, time=0),
    Message('note_on', channel=9, note=36, velocity=95, time=0),
    Message('note_off', channel=9, note=51, velocity=95, time=480),
    Message('note_off', channel=9, note=36, velocity=95, time=0),
    Message('note_off', channel=9, note=36, velocity=95, time=0),
    Message('note_on', channel=9, note=36, velocity=95, time=0),
    Message('note_on', channel=9, note=36, velocity=95, time=0),
    Message('note_off', channel=9, note=36, velocity=95, time=480),
    Message('note_off', channel=9, note=36, velocity=95, time=0),
    Message('note_on', channel=9, note=54, velocity=95, time=0),
    Message('note_on', channel=9, note=51, velocity=95, time=0),
    Message('note_on', channel=9, note=40, velocity=95, time=0),
    Message('note_on', channel=9, note=40, velocity=95, time=0),
    Message('note_off', channel=9, note=54, velocity=95, time=480),
    Message('note_off', channel=9, note=51, velocity=95, time=0),
    Message('note_off', channel=9, note=40, velocity=95, time=0),
    Message('note_off', channel=9, note=40, velocity=95, time=0),
    Message('note_on', channel=9, note=36, velocity=95, time=0),
    Message('note_on', channel=9, note=36, velocity=95, time=0),
    Message('note_off', channel=9, note=36, velocity=95, time=480),
    Message('note_off', channel=9, note=36, velocity=95, time=0),
    Message('note_on', channel=9, note=49, velocity=95, time=0),
    Message('note_on', channel=9, note=36, velocity=95, time=0),
    Message('note_on', channel=9, note=36, velocity=95, time=0),
    Message('note_off', channel=9, note=36, velocity=95, time=480),
    Message('note_off', channel=9, note=36, velocity=95, time=0),
    Message('note_off', channel=9, note=49, velocity=95, time=480),
    Message('note_on', channel=9, note=54, velocity=95, time=0),
    Message('note_on', channel=9, note=51, velocity=95, time=0),
    Message('note_on', channel=9, note=40, velocity=95, time=0),
    Message('note_on', channel=9, note=40, velocity=95, time=0),
    Message('note_off', channel=9, note=54, velocity=95, time=480),
    Message('note_off', channel=9, note=40, velocity=95, time=0),
    Message('note_off', channel=9, note=40, velocity=95, time=0),
    Message('note_on', channel=9, note=36, velocity=95, time=0),
    Message('note_on', channel=9, note=36, velocity=95, time=0),
    Message('note_off', channel=9, note=51, velocity=95, time=480),
    Message('note_off', channel=9, note=36, velocity=95, time=0),
    Message('note_off', channel=9, note=36, velocity=95, time=0),
    Message('note_on', channel=9, note=51, velocity=95, time=0),
    Message('note_on', channel=9, note=36, velocity=95, time=480),
    Message('note_on', channel=9, note=36, velocity=95, time=0),
    Message('note_off', channel=9, note=51, velocity=95, time=480),
    Message('note_off', channel=9, note=36, velocity=95, time=0),
    Message('note_off', channel=9, note=36, velocity=95, time=0),
    Message('note_on', channel=9, note=54, velocity=95, time=0),
    Message('note_on', channel=9, note=52, velocity=95, time=0),
    Message('note_on', channel=9, note=40, velocity=95, time=0),
    Message('note_on', channel=9, note=40, velocity=95, time=0),
    Message('note_off', channel=9, note=54, velocity=95, time=480),
    Message('note_off', channel=9, note=40, velocity=95, time=0),
    Message('note_off', channel=9, note=40, velocity=95, time=0),
    Message('note_off', channel=9, note=52, velocity=95, time=480),
    Message('note_on', channel=9, note=36, velocity=95, time=0),
    Message('note_on', channel=9, note=36, velocity=95, time=0),
    Message('note_on', channel=9, note=49, velocity=95, time=0),
    Message('note_off', channel=9, note=36, velocity=95, time=960),
    Message('note_off', channel=9, note=36, velocity=95, time=0),
    Message('note_off', channel=9, note=49, velocity=95, time=0),
    Message('note_on', channel=9, note=54, velocity=95, time=0),
    Message('note_on', channel=9, note=40, velocity=95, time=0),
    Message('note_on', channel=9, note=40, velocity=95, time=0),
    Message('note_on', channel=9, note=51, velocity=95, time=0),
    Message('note_off', channel=9, note=54, velocity=95, time=480),
    Message('note_off', channel=9, note=40, velocity=95, time=0),
    Message('note_off', channel=9, note=40, velocity=95, time=0),
    Message('note_off', channel=9, note=51, velocity=95, time=0),
    Message('note_on', channel=9, note=36, velocity=95, time=0),
    Message('note_on', channel=9, note=36, velocity=95, time=0),
    Message('note_off', channel=9, note=36, velocity=95, time=480),
    Message('note_off', channel=9, note=36, velocity=95, time=0),
    Message('note_on', channel=9, note=51, velocity=95, time=0),
    Message('note_off', channel=9, note=51, velocity=95, time=480),
    Message('note_on', channel=9, note=36, velocity=95, time=0),
    Message('note_on', channel=9, note=36, velocity=95, time=0),
    Message('note_off', channel=9, note=36, velocity=95, time=480),
    Message('note_off', channel=9, note=36, velocity=95, time=0),
    Message('note_on', channel=9, note=54, velocity=95, time=0),
    Message('note_on', channel=9, note=40, velocity=95, time=0),
    Message('note_on', channel=9, note=40, velocity=95, time=0),
    Message('note_on', channel=9, note=51, velocity=95, time=0),
    Message('note_off', channel=9, note=54, velocity=95, time=480),
    Message('note_off', channel=9, note=40, velocity=95, time=0),
    Message('note_off', channel=9, note=40, velocity=95, time=0),
    Message('note_off', channel=9, note=51, velocity=95, time=0),
    Message('note_on', channel=9, note=36, velocity=95, time=0),
    Message('note_on', channel=9, note=36, velocity=95, time=0),
    Message('note_off', channel=9, note=36, velocity=95, time=480),
    Message('note_off', channel=9, note=36, velocity=95, time=0),
    Message('note_on', channel=9, note=57, velocity=95, time=0),
    Message('note_on', channel=9, note=36, velocity=95, time=0),
    Message('note_on', channel=9, note=36, velocity=95, time=0),
    Message('note_on', channel=9, note=49, velocity=95, time=0),
    Message('note_off', channel=9, note=57, velocity=95, time=960),
    Message('note_off', channel=9, note=36, velocity=95, time=0),
    Message('note_off', channel=9, note=36, velocity=95, time=0),
    Message('note_off', channel=9, note=49, velocity=95, time=0),
    Message('note_on', channel=9, note=54, velocity=95, time=0),
    Message('note_on', channel=9, note=40, velocity=95, time=0),
    Message('note_on', channel=9, note=40, velocity=95, time=0),
    Message('note_on', channel=9, note=51, velocity=95, time=0),
    Message('note_off', channel=9, note=54, velocity=95, time=480),
    Message('note_off', channel=9, note=40, velocity=95, time=0),
    Message('note_off', channel=9, note=40, velocity=95, time=0),
    Message('note_off', channel=9, note=51, velocity=95, time=0),
    Message('note_on', channel=9, note=36, velocity=95, time=0),
    Message('note_on', channel=9, note=36, velocity=95, time=0),
    Message('note_off', channel=9, note=36, velocity=95, time=480),
    Message('note_off', channel=9, note=36, velocity=95, time=0),
    Message('note_on', channel=9, note=51, velocity=95, time=0),
    Message('note_off', channel=9, note=51, velocity=95, time=480),
    Message('note_on', channel=9, note=36, velocity=95, time=0),
    Message('note_on', channel=9, note=36, velocity=95, time=0),
    Message('note_off', channel=9, note=36, velocity=95, time=480),
    Message('note_off', channel=9, note=36, velocity=95, time=0),
    Message('note_on', channel=9, note=54, velocity=95, time=0),
    Message('note_on', channel=9, note=40, velocity=95, time=0),
    Message('note_on', channel=9, note=40, velocity=95, time=0),
    Message('note_on', channel=9, note=51, velocity=95, time=0),
    Message('note_off', channel=9, note=54, velocity=95, time=240),
    Message('note_off', channel=9, note=40, velocity=95, time=0),
    Message('note_off', channel=9, note=40, velocity=95, time=0),
    Message('note_off', channel=9, note=51, velocity=95, time=0),
    Message('note_on', channel=9, note=40, velocity=95, time=0),
    Message('note_on', channel=9, note=40, velocity=95, time=0),
    Message('note_off', channel=9, note=40, velocity=95, time=240),
    Message('note_off', channel=9, note=40, velocity=95, time=0),
    Message('note_on', channel=9, note=40, velocity=95, time=0),
    Message('note_on', channel=9, note=40, velocity=95, time=0),
    Message('note_off', channel=9, note=40, velocity=95, time=240),
    Message('note_off', channel=9, note=40, velocity=95, time=0),
    Message('note_on', channel=9, note=49, velocity=95, time=240),
    Message('note_on', channel=9, note=36, velocity=95, time=0),
    Message('note_on', channel=9, note=36, velocity=95, time=0),
    Message('note_off', channel=9, note=49, velocity=95, time=480),
    Message('note_off', channel=9, note=36, velocity=95, time=0),
    Message('note_off', channel=9, note=36, velocity=95, time=0),
    Message('note_on', channel=9, note=57, velocity=95, time=0),
    Message('note_on', channel=9, note=36, velocity=95, time=0),
    Message('note_on', channel=9, note=36, velocity=95, time=0),
    Message('note_off', channel=9, note=57, velocity=95, time=480),
    Message('note_off', channel=9, note=36, velocity=95, time=0),
    Message('note_off', channel=9, note=36, velocity=95, time=0),
    Message('note_on', channel=9, note=54, velocity=95, time=0),
    Message('note_on', channel=9, note=51, velocity=95, time=0),
    Message('note_on', channel=9, note=40, velocity=95, time=0),
    Message('note_on', channel=9, note=40, velocity=95, time=0),
    Message('note_off', channel=9, note=54, velocity=95, time=480),
    Message('note_off', channel=9, note=51, velocity=95, time=0),
    Message('note_off', channel=9, note=40, velocity=95, time=0),
    Message('note_off', channel=9, note=40, velocity=95, time=0),
    Message('note_on', channel=9, note=51, velocity=95, time=480),
    Message('note_on', channel=9, note=36, velocity=95, time=0),
    Message('note_on', channel=9, note=36, velocity=95, time=0),
    Message('note_off', channel=9, note=51, velocity=95, time=480),
    Message('note_off', channel=9, note=36, velocity=95, time=0),
    Message('note_off', channel=9, note=36, velocity=95, time=0),
    Message('note_on', channel=9, note=36, velocity=95, time=0),
    Message('note_on', channel=9, note=36, velocity=95, time=0),
    Message('note_off', channel=9, note=36, velocity=95, time=480),
    Message('note_off', channel=9, note=36, velocity=95, time=0),
    Message('note_on', channel=9, note=54, velocity=95, time=0),
    Message('note_on', channel=9, note=51, velocity=95, time=0),
    Message('note_on', channel=9, note=40, velocity=95, time=0),
    Message('note_on', channel=9, note=40, velocity=95, time=0),
    Message('note_off', channel=9, note=54, velocity=95, time=480),
    Message('note_off', channel=9, note=51, velocity=95, time=0),
    Message('note_off', channel=9, note=40, velocity=95, time=0),
    Message('note_off', channel=9, note=40, velocity=95, time=0),
    Message('note_on', channel=9, note=36, velocity=95, time=0),
    Message('note_on', channel=9, note=36, velocity=95, time=0),
    Message('note_off', channel=9, note=36, velocity=95, time=480),
    Message('note_off', channel=9, note=36, velocity=95, time=0),
    Message('note_on', channel=9, note=49, velocity=95, time=0),
    Message('note_on', channel=9, note=36, velocity=95, time=0),
    Message('note_on', channel=9, note=36, velocity=95, time=0),
    Message('note_off', channel=9, note=36, velocity=95, time=480),
    Message('note_off', channel=9, note=36, velocity=95, time=0),
    Message('note_off', channel=9, note=49, velocity=95, time=480),
    Message('note_on', channel=9, note=54, velocity=95, time=0),
    Message('note_on', channel=9, note=51, velocity=95, time=0),
    Message('note_on', channel=9, note=40, velocity=95, time=0),
    Message('note_on', channel=9, note=40, velocity=95, time=0),
    Message('note_off', channel=9, note=54, velocity=95, time=480),
    Message('note_off', channel=9, note=40, velocity=95, time=0),
    Message('note_off', channel=9, note=40, velocity=95, time=0),
    Message('note_on', channel=9, note=36, velocity=95, time=0),
    Message('note_on', channel=9, note=36, velocity=95, time=0),
    Message('note_off', channel=9, note=51, velocity=95, time=480),
    Message('note_off', channel=9, note=36, velocity=95, time=0),
    Message('note_off', channel=9, note=36, velocity=95, time=0),
    Message('note_on', channel=9, note=51, velocity=95, time=0),
    Message('note_on', channel=9, note=36, velocity=95, time=480),
    Message('note_on', channel=9, note=36, velocity=95, time=0),
    Message('note_off', channel=9, note=51, velocity=95, time=480),
    Message('note_off', channel=9, note=36, velocity=95, time=0),
    Message('note_off', channel=9, note=36, velocity=95, time=0),
    Message('note_on', channel=9, note=54, velocity=95, time=0),
    Message('note_on', channel=9, note=52, velocity=95, time=0),
    Message('note_on', channel=9, note=40, velocity=95, time=0),
    Message('note_on', channel=9, note=40, velocity=95, time=0),
    Message('note_off', channel=9, note=54, velocity=95, time=480),
    Message('note_off', channel=9, note=40, velocity=95, time=0),
    Message('note_off', channel=9, note=40, velocity=95, time=0),
    Message('note_off', channel=9, note=52, velocity=95, time=480),
    Message('note_on', channel=9, note=36, velocity=95, time=0),
    Message('note_on', channel=9, note=36, velocity=95, time=0),
    Message('note_on', channel=9, note=49, velocity=95, time=0),
    Message('note_off', channel=9, note=36, velocity=95, time=960),
    Message('note_off', channel=9, note=36, velocity=95, time=0),
    Message('note_off', channel=9, note=49, velocity=95, time=0),
    Message('note_on', channel=9, note=54, velocity=95, time=0),
    Message('note_on', channel=9, note=40, velocity=95, time=0),
    Message('note_on', channel=9, note=40, velocity=95, time=0),
    Message('note_on', channel=9, note=51, velocity=95, time=0),
    Message('note_off', channel=9, note=54, velocity=95, time=480),
    Message('note_off', channel=9, note=40, velocity=95, time=0),
    Message('note_off', channel=9, note=40, velocity=95, time=0),
    Message('note_off', channel=9, note=51, velocity=95, time=0),
    Message('note_on', channel=9, note=36, velocity=95, time=0),
    Message('note_on', channel=9, note=36, velocity=95, time=0),
    Message('note_off', channel=9, note=36, velocity=95, time=480),
    Message('note_off', channel=9, note=36, velocity=95, time=0),
    Message('note_on', channel=9, note=51, velocity=95, time=0),
    Message('note_off', channel=9, note=51, velocity=95, time=480),
    Message('note_on', channel=9, note=36, velocity=95, time=0),
    Message('note_on', channel=9, note=36, velocity=95, time=0),
    Message('note_off', channel=9, note=36, velocity=95, time=480),
    Message('note_off', channel=9, note=36, velocity=95, time=0),
    Message('note_on', channel=9, note=54, velocity=95, time=0),
    Message('note_on', channel=9, note=40, velocity=95, time=0),
    Message('note_on', channel=9, note=40, velocity=95, time=0),
    Message('note_on', channel=9, note=51, velocity=95, time=0),
    Message('note_off', channel=9, note=54, velocity=95, time=480),
    Message('note_off', channel=9, note=40, velocity=95, time=0),
    Message('note_off', channel=9, note=40, velocity=95, time=0),
    Message('note_off', channel=9, note=51, velocity=95, time=0),
    Message('note_on', channel=9, note=36, velocity=95, time=0),
    Message('note_on', channel=9, note=36, velocity=95, time=0),
    Message('note_off', channel=9, note=36, velocity=95, time=480),
    Message('note_off', channel=9, note=36, velocity=95, time=0),
    Message('note_on', channel=9, note=36, velocity=95, time=0),
    Message('note_on', channel=9, note=36, velocity=95, time=0),
    Message('note_on', channel=9, note=51, velocity=95, time=0),
    Message('note_off', channel=9, note=36, velocity=95, time=960),
    Message('note_off', channel=9, note=36, velocity=95, time=0),
    Message('note_off', channel=9, note=51, velocity=95, time=0),
    Message('note_on', channel=9, note=54, velocity=95, time=0),
    Message('note_on', channel=9, note=40, velocity=95, time=0),
    Message('note_on', channel=9, note=40, velocity=95, time=0),
    Message('note_on', channel=9, note=51, velocity=95, time=0),
    Message('note_off', channel=9, note=54, velocity=95, time=480),
    Message('note_off', channel=9, note=40, velocity=95, time=0),
    Message('note_off', channel=9, note=40, velocity=95, time=0),
    Message('note_off', channel=9, note=51, velocity=95, time=0),
    Message('note_on', channel=9, note=36, velocity=95, time=0),
    Message('note_on', channel=9, note=36, velocity=95, time=0),
    Message('note_off', channel=9, note=36, velocity=95, time=480),
    Message('note_off', channel=9, note=36, velocity=95, time=0),
    Message('note_on', channel=9, note=51, velocity=95, time=0),
    Message('note_off', channel=9, note=51, velocity=95, time=480),
    Message('note_on', channel=9, note=36, velocity=95, time=0),
    Message('note_on', channel=9, note=36, velocity=95, time=0),
    Message('note_off', channel=9, note=36, velocity=95, time=480),
    Message('note_off', channel=9, note=36, velocity=95, time=0),
    Message('note_on', channel=9, note=54, velocity=95, time=0),
    Message('note_on', channel=9, note=40, velocity=95, time=0),
    Message('note_on', channel=9, note=40, velocity=95, time=0),
    Message('note_on', channel=9, note=51, velocity=95, time=0),
    Message('note_off', channel=9, note=54, velocity=95, time=240),
    Message('note_off', channel=9, note=40, velocity=95, time=0),
    Message('note_off', channel=9, note=40, velocity=95, time=0),
    Message('note_off', channel=9, note=51, velocity=95, time=0),
    Message('note_on', channel=9, note=40, velocity=95, time=0),
    Message('note_on', channel=9, note=40, velocity=95, time=0),
    Message('note_off', channel=9, note=40, velocity=95, time=240),
    Message('note_off', channel=9, note=40, velocity=95, time=0),
    Message('note_on', channel=9, note=40, velocity=95, time=0),
    Message('note_on', channel=9, note=40, velocity=95, time=0),
    Message('note_off', channel=9, note=40, velocity=95, time=240),
    Message('note_off', channel=9, note=40, velocity=95, time=0),
    Message('note_on', channel=9, note=57, velocity=95, time=240),
    Message('note_on', channel=9, note=36, velocity=95, time=0),
    Message('note_on', channel=9, note=36, velocity=95, time=0),
    Message('note_on', channel=9, note=49, velocity=95, time=0),
    Message('note_off', channel=9, note=57, velocity=95, time=960),
    Message('note_off', channel=9, note=36, velocity=95, time=0),
    Message('note_off', channel=9, note=36, velocity=95, time=0),
    Message('note_off', channel=9, note=49, velocity=95, time=0),
    Message('note_on', channel=9, note=40, velocity=95, time=0),
    Message('note_on', channel=9, note=40, velocity=95, time=0),
    Message('note_on', channel=9, note=42, velocity=95, time=0),
    Message('note_off', channel=9, note=40, velocity=95, time=480),
    Message('note_off', channel=9, note=40, velocity=95, time=0),
    Message('note_off', channel=9, note=42, velocity=95, time=0),
    Message('note_on', channel=9, note=36, velocity=95, time=0),
    Message('note_on', channel=9, note=36, velocity=95, time=0),
    Message('note_off', channel=9, note=36, velocity=95, time=480),
    Message('note_off', channel=9, note=36, velocity=95, time=0),
    Message('note_on', channel=9, note=42, velocity=95, time=0),
    Message('note_off', channel=9, note=42, velocity=95, time=480),
    Message('note_on', channel=9, note=36, velocity=95, time=0),
    Message('note_on', channel=9, note=36, velocity=95, time=0),
    Message('note_off', channel=9, note=36, velocity=95, time=480),
    Message('note_off', channel=9, note=36, velocity=95, time=0),
    Message('note_on', channel=9, note=40, velocity=95, time=0),
    Message('note_on', channel=9, note=40, velocity=95, time=0),
    Message('note_on', channel=9, note=42, velocity=95, time=0),
    Message('note_off', channel=9, note=40, velocity=95, time=480),
    Message('note_off', channel=9, note=40, velocity=95, time=0),
    Message('note_off', channel=9, note=42, velocity=95, time=0),
    Message('note_on', channel=9, note=36, velocity=95, time=0),
    Message('note_on', channel=9, note=36, velocity=95, time=0),
    Message('note_off', channel=9, note=36, velocity=95, time=480),
    Message('note_off', channel=9, note=36, velocity=95, time=0),
    Message('note_on', channel=9, note=36, velocity=95, time=0),
    Message('note_on', channel=9, note=36, velocity=95, time=0),
    Message('note_on', channel=9, note=42, velocity=95, time=0),
    Message('note_off', channel=9, note=36, velocity=95, time=960),
    Message('note_off', channel=9, note=36, velocity=95, time=0),
    Message('note_off', channel=9, note=42, velocity=95, time=0),
    Message('note_on', channel=9, note=40, velocity=95, time=0),
    Message('note_on', channel=9, note=40, velocity=95, time=0),
    Message('note_on', channel=9, note=42, velocity=95, time=0),
    Message('note_off', channel=9, note=40, velocity=95, time=480),
    Message('note_off', channel=9, note=40, velocity=95, time=0),
    Message('note_off', channel=9, note=42, velocity=95, time=0),
    Message('note_on', channel=9, note=36, velocity=95, time=0),
    Message('note_on', channel=9, note=36, velocity=95, time=0),
    Message('note_off', channel=9, note=36, velocity=95, time=480),
    Message('note_off', channel=9, note=36, velocity=95, time=0),
    Message('note_on', channel=9, note=42, velocity=95, time=0),
    Message('note_off', channel=9, note=42, velocity=95, time=480),
    Message('note_on', channel=9, note=36, velocity=95, time=0),
    Message('note_on', channel=9, note=36, velocity=95, time=0),
    Message('note_off', channel=9, note=36, velocity=95, time=480),
    Message('note_off', channel=9, note=36, velocity=95, time=0),
    Message('note_on', channel=9, note=40, velocity=95, time=0),
    Message('note_on', channel=9, note=40, velocity=95, time=0),
    Message('note_on', channel=9, note=42, velocity=95, time=0),
    Message('note_off', channel=9, note=40, velocity=95, time=480),
    Message('note_off', channel=9, note=40, velocity=95, time=0),
    Message('note_off', channel=9, note=42, velocity=95, time=0),
    Message('note_on', channel=9, note=36, velocity=95, time=0),
    Message('note_on', channel=9, note=36, velocity=95, time=0),
    Message('note_off', channel=9, note=36, velocity=95, time=480),
    Message('note_off', channel=9, note=36, velocity=95, time=0),
    Message('note_on', channel=9, note=36, velocity=95, time=0),
    Message('note_on', channel=9, note=36, velocity=95, time=0),
    Message('note_on', channel=9, note=46, velocity=95, time=0),
    Message('note_off', channel=9, note=36, velocity=95, time=480),
    Message('note_off', channel=9, note=36, velocity=95, time=0),
    Message('note_off', channel=9, note=46, velocity=95, time=0),
    Message('note_on', channel=9, note=36, velocity=95, time=240),
    Message('note_on', channel=9, note=36, velocity=95, time=0),
    Message('note_off', channel=9, note=36, velocity=95, time=240),
    Message('note_off', channel=9, note=36, velocity=95, time=0),
    Message('note_on', channel=9, note=40, velocity=95, time=0),
    Message('note_on', channel=9, note=40, velocity=95, time=0),
    Message('note_on', channel=9, note=42, velocity=95, time=0),
    Message('note_off', channel=9, note=40, velocity=95, time=480),
    Message('note_off', channel=9, note=40, velocity=95, time=0),
    Message('note_off', channel=9, note=42, velocity=95, time=0),
    Message('note_on', channel=9, note=36, velocity=95, time=0),
    Message('note_on', channel=9, note=36, velocity=95, time=0),
    Message('note_off', channel=9, note=36, velocity=95, time=480),
    Message('note_off', channel=9, note=36, velocity=95, time=0),
    Message('note_on', channel=9, note=42, velocity=95, time=0),
    Message('note_off', channel=9, note=42, velocity=95, time=480),
    Message('note_on', channel=9, note=36, velocity=95, time=0),
    Message('note_on', channel=9, note=36, velocity=95, time=0),
    Message('note_off', channel=9, note=36, velocity=95, time=480),
    Message('note_off', channel=9, note=36, velocity=95, time=0),
    Message('note_on', channel=9, note=40, velocity=95, time=0),
    Message('note_on', channel=9, note=40, velocity=95, time=0),
    Message('note_on', channel=9, note=42, velocity=95, time=0),
    Message('note_off', channel=9, note=40, velocity=95, time=480),
    Message('note_off', channel=9, note=40, velocity=95, time=0),
    Message('note_off', channel=9, note=42, velocity=95, time=0),
    Message('note_on', channel=9, note=36, velocity=95, time=0),
    Message('note_on', channel=9, note=36, velocity=95, time=0),
    Message('note_off', channel=9, note=36, velocity=95, time=480),
    Message('note_off', channel=9, note=36, velocity=95, time=0),
    Message('note_on', channel=9, note=36, velocity=95, time=0),
    Message('note_on', channel=9, note=36, velocity=95, time=0),
    Message('note_on', channel=9, note=42, velocity=95, time=0),
    Message('note_off', channel=9, note=36, velocity=95, time=480),
    Message('note_off', channel=9, note=36, velocity=95, time=0),
    Message('note_off', channel=9, note=42, velocity=95, time=0),
    Message('note_on', channel=9, note=36, velocity=95, time=240),
    Message('note_on', channel=9, note=36, velocity=95, time=0),
    Message('note_off', channel=9, note=36, velocity=95, time=240),
    Message('note_off', channel=9, note=36, velocity=95, time=0),
    Message('note_on', channel=9, note=40, velocity=95, time=0),
    Message('note_on', channel=9, note=40, velocity=95, time=0),
    Message('note_on', channel=9, note=42, velocity=95, time=0),
    Message('note_off', channel=9, note=40, velocity=95, time=480),
    Message('note_off', channel=9, note=40, velocity=95, time=0),
    Message('note_off', channel=9, note=42, velocity=95, time=0),
    Message('note_on', channel=9, note=36, velocity=95, time=0),
    Message('note_on', channel=9, note=36, velocity=95, time=0),
    Message('note_off', channel=9, note=36, velocity=95, time=480),
    Message('note_off', channel=9, note=36, velocity=95, time=0),
    Message('note_on', channel=9, note=42, velocity=95, time=0),
    Message('note_off', channel=9, note=42, velocity=95, time=480),
    Message('note_on', channel=9, note=36, velocity=95, time=0),
    Message('note_on', channel=9, note=36, velocity=95, time=0),
    Message('note_off', channel=9, note=36, velocity=95, time=480),
    Message('note_off', channel=9, note=36, velocity=95, time=0),
    Message('note_on', channel=9, note=40, velocity=95, time=0),
    Message('note_on', channel=9, note=40, velocity=95, time=0),
    Message('note_on', channel=9, note=42, velocity=95, time=0),
    Message('note_off', channel=9, note=40, velocity=95, time=480),
    Message('note_off', channel=9, note=40, velocity=95, time=0),
    Message('note_off', channel=9, note=42, velocity=95, time=0),
    Message('note_on', channel=9, note=36, velocity=95, time=0),
    Message('note_on', channel=9, note=36, velocity=95, time=0),
    Message('note_off', channel=9, note=36, velocity=95, time=480),
    Message('note_off', channel=9, note=36, velocity=95, time=0),
    Message('note_on', channel=9, note=36, velocity=95, time=0),
    Message('note_on', channel=9, note=36, velocity=95, time=0),
    Message('note_on', channel=9, note=49, velocity=95, time=0),
    Message('note_off', channel=9, note=36, velocity=95, time=960),
    Message('note_off', channel=9, note=36, velocity=95, time=0),
    Message('note_off', channel=9, note=49, velocity=95, time=0),
    Message('note_on', channel=9, note=40, velocity=95, time=0),
    Message('note_on', channel=9, note=40, velocity=95, time=0),
    Message('note_on', channel=9, note=42, velocity=95, time=0),
    Message('note_off', channel=9, note=40, velocity=95, time=480),
    Message('note_off', channel=9, note=40, velocity=95, time=0),
    Message('note_off', channel=9, note=42, velocity=95, time=0),
    Message('note_on', channel=9, note=36, velocity=95, time=0),
    Message('note_on', channel=9, note=36, velocity=95, time=0),
    Message('note_off', channel=9, note=36, velocity=95, time=480),
    Message('note_off', channel=9, note=36, velocity=95, time=0),
    Message('note_on', channel=9, note=42, velocity=95, time=0),
    Message('note_off', channel=9, note=42, velocity=95, time=480),
    Message('note_on', channel=9, note=36, velocity=95, time=0),
    Message('note_on', channel=9, note=36, velocity=95, time=0),
    Message('note_off', channel=9, note=36, velocity=95, time=480),
    Message('note_off', channel=9, note=36, velocity=95, time=0),
    Message('note_on', channel=9, note=40, velocity=95, time=0),
    Message('note_on', channel=9, note=40, velocity=95, time=0),
    Message('note_on', channel=9, note=42, velocity=95, time=0),
    Message('note_off', channel=9, note=40, velocity=95, time=480),
    Message('note_off', channel=9, note=40, velocity=95, time=0),
    Message('note_off', channel=9, note=42, velocity=95, time=0),
    Message('note_on', channel=9, note=36, velocity=95, time=480),
    Message('note_on', channel=9, note=36, velocity=95, time=0),
    Message('note_on', channel=9, note=42, velocity=95, time=0),
    Message('note_off', channel=9, note=36, velocity=95, time=480),
    Message('note_off', channel=9, note=36, velocity=95, time=0),
    Message('note_off', channel=9, note=42, velocity=95, time=0),
    Message('note_on', channel=9, note=36, velocity=95, time=240),
    Message('note_on', channel=9, note=36, velocity=95, time=0),
    Message('note_off', channel=9, note=36, velocity=95, time=240),
    Message('note_off', channel=9, note=36, velocity=95, time=0),
    Message('note_on', channel=9, note=40, velocity=95, time=0),
    Message('note_on', channel=9, note=40, velocity=95, time=0),
    Message('note_on', channel=9, note=42, velocity=95, time=0),
    Message('note_off', channel=9, note=40, velocity=95, time=480),
    Message('note_off', channel=9, note=40, velocity=95, time=0),
    Message('note_off', channel=9, note=42, velocity=95, time=0),
    Message('note_on', channel=9, note=36, velocity=95, time=0),
    Message('note_on', channel=9, note=36, velocity=95, time=0),
    Message('note_off', channel=9, note=36, velocity=95, time=480),
    Message('note_off', channel=9, note=36, velocity=95, time=0),
    Message('note_on', channel=9, note=42, velocity=95, time=0),
    Message('note_off', channel=9, note=42, velocity=95, time=480),
    Message('note_on', channel=9, note=36, velocity=95, time=0),
    Message('note_on', channel=9, note=36, velocity=95, time=0),
    Message('note_off', channel=9, note=36, velocity=95, time=480),
    Message('note_off', channel=9, note=36, velocity=95, time=0),
    Message('note_on', channel=9, note=40, velocity=95, time=0),
    Message('note_on', channel=9, note=40, velocity=95, time=0),
    Message('note_on', channel=9, note=42, velocity=95, time=0),
    Message('note_off', channel=9, note=40, velocity=95, time=480),
    Message('note_off', channel=9, note=40, velocity=95, time=0),
    Message('note_off', channel=9, note=42, velocity=95, time=0),
    Message('note_on', channel=9, note=36, velocity=95, time=0),
    Message('note_on', channel=9, note=36, velocity=95, time=0),
    Message('note_off', channel=9, note=36, velocity=95, time=480),
    Message('note_off', channel=9, note=36, velocity=95, time=0),
    Message('note_on', channel=9, note=36, velocity=95, time=0),
    Message('note_on', channel=9, note=36, velocity=95, time=0),
    Message('note_on', channel=9, note=46, velocity=95, time=0),
    Message('note_off', channel=9, note=36, velocity=95, time=960),
    Message('note_off', channel=9, note=36, velocity=95, time=0),
    Message('note_off', channel=9, note=46, velocity=95, time=0),
    Message('note_on', channel=9, note=40, velocity=95, time=0),
    Message('note_on', channel=9, note=40, velocity=95, time=0),
    Message('note_on', channel=9, note=42, velocity=95, time=0),
    Message('note_off', channel=9, note=40, velocity=95, time=480),
    Message('note_off', channel=9, note=40, velocity=95, time=0),
    Message('note_off', channel=9, note=42, velocity=95, time=0),
    Message('note_on', channel=9, note=36, velocity=95, time=0),
    Message('note_on', channel=9, note=36, velocity=95, time=0),
    Message('note_off', channel=9, note=36, velocity=95, time=480),
    Message('note_off', channel=9, note=36, velocity=95, time=0),
    Message('note_on', channel=9, note=42, velocity=95, time=0),
    Message('note_off', channel=9, note=42, velocity=95, time=480),
    Message('note_on', channel=9, note=36, velocity=95, time=0),
    Message('note_on', channel=9, note=36, velocity=95, time=0),
    Message('note_off', channel=9, note=36, velocity=95, time=480),
    Message('note_off', channel=9, note=36, velocity=95, time=0),
    Message('note_on', channel=9, note=40, velocity=95, time=0),
    Message('note_on', channel=9, note=40, velocity=95, time=0),
    Message('note_on', channel=9, note=42, velocity=95, time=0),
    Message('note_off', channel=9, note=40, velocity=95, time=480),
    Message('note_off', channel=9, note=40, velocity=95, time=0),
    Message('note_off', channel=9, note=42, velocity=95, time=0),
    Message('note_on', channel=9, note=36, velocity=95, time=480),
    Message('note_on', channel=9, note=36, velocity=95, time=0),
    Message('note_on', channel=9, note=42, velocity=95, time=0),
    Message('note_off', channel=9, note=36, velocity=95, time=480),
    Message('note_off', channel=9, note=36, velocity=95, time=0),
    Message('note_off', channel=9, note=42, velocity=95, time=0),
    Message('note_on', channel=9, note=36, velocity=95, time=240),
    Message('note_on', channel=9, note=36, velocity=95, time=0),
    Message('note_off', channel=9, note=36, velocity=95, time=240),
    Message('note_off', channel=9, note=36, velocity=95, time=0),
    Message('note_on', channel=9, note=40, velocity=95, time=0),
    Message('note_on', channel=9, note=40, velocity=95, time=0),
    Message('note_on', channel=9, note=42, velocity=95, time=0),
    Message('note_off', channel=9, note=40, velocity=95, time=480),
    Message('note_off', channel=9, note=40, velocity=95, time=0),
    Message('note_off', channel=9, note=42, velocity=95, time=0),
    Message('note_on', channel=9, note=36, velocity=95, time=0),
    Message('note_on', channel=9, note=36, velocity=95, time=0),
    Message('note_off', channel=9, note=36, velocity=95, time=480),
    Message('note_off', channel=9, note=36, velocity=95, time=0),
    Message('note_on', channel=9, note=42, velocity=95, time=0),
    Message('note_off', channel=9, note=42, velocity=95, time=480),
    Message('note_on', channel=9, note=36, velocity=95, time=0),
    Message('note_on', channel=9, note=36, velocity=95, time=0),
    Message('note_off', channel=9, note=36, velocity=95, time=480),
    Message('note_off', channel=9, note=36, velocity=95, time=0),
    Message('note_on', channel=9, note=40, velocity=95, time=0),
    Message('note_on', channel=9, note=40, velocity=95, time=0),
    Message('note_on', channel=9, note=42, velocity=95, time=0),
    Message('note_off', channel=9, note=40, velocity=95, time=480),
    Message('note_off', channel=9, note=40, velocity=95, time=0),
    Message('note_off', channel=9, note=42, velocity=95, time=0),
    Message('note_on', channel=9, note=36, velocity=95, time=0),
    Message('note_on', channel=9, note=36, velocity=95, time=0),
    Message('note_off', channel=9, note=36, velocity=95, time=480),
    Message('note_off', channel=9, note=36, velocity=95, time=0),
    Message('note_on', channel=9, note=57, velocity=95, time=0),
    Message('note_on', channel=9, note=36, velocity=95, time=0),
    Message('note_on', channel=9, note=36, velocity=95, time=0),
    Message('note_on', channel=9, note=49, velocity=95, time=0),
    Message('note_off', channel=9, note=57, velocity=95, time=960),
    Message('note_off', channel=9, note=36, velocity=95, time=0),
    Message('note_off', channel=9, note=36, velocity=95, time=0),
    Message('note_off', channel=9, note=49, velocity=95, time=0),
    Message('note_on', channel=9, note=40, velocity=95, time=0),
    Message('note_on', channel=9, note=40, velocity=95, time=0),
    Message('note_on', channel=9, note=42, velocity=95, time=0),
    Message('note_off', channel=9, note=40, velocity=95, time=480),
    Message('note_off', channel=9, note=40, velocity=95, time=0),
    Message('note_off', channel=9, note=42, velocity=95, time=0),
    Message('note_on', channel=9, note=36, velocity=95, time=0),
    Message('note_on', channel=9, note=36, velocity=95, time=0),
    Message('note_off', channel=9, note=36, velocity=95, time=480),
    Message('note_off', channel=9, note=36, velocity=95, time=0),
    Message('note_on', channel=9, note=42, velocity=95, time=0),
    Message('note_off', channel=9, note=42, velocity=95, time=480),
    Message('note_on', channel=9, note=36, velocity=95, time=0),
    Message('note_on', channel=9, note=36, velocity=95, time=0),
    Message('note_off', channel=9, note=36, velocity=95, time=480),
    Message('note_off', channel=9, note=36, velocity=95, time=0),
    Message('note_on', channel=9, note=40, velocity=95, time=0),
    Message('note_on', channel=9, note=40, velocity=95, time=0),
    Message('note_on', channel=9, note=42, velocity=95, time=0),
    Message('note_off', channel=9, note=40, velocity=95, time=480),
    Message('note_off', channel=9, note=40, velocity=95, time=0),
    Message('note_off', channel=9, note=42, velocity=95, time=0),
    Message('note_on', channel=9, note=36, velocity=95, time=0),
    Message('note_on', channel=9, note=36, velocity=95, time=0),
    Message('note_off', channel=9, note=36, velocity=95, time=480),
    Message('note_off', channel=9, note=36, velocity=95, time=0),
    Message('note_on', channel=9, note=36, velocity=95, time=0),
    Message('note_on', channel=9, note=36, velocity=95, time=0),
    Message('note_on', channel=9, note=42, velocity=95, time=0),
    Message('note_off', channel=9, note=36, velocity=95, time=480),
    Message('note_off', channel=9, note=36, velocity=95, time=0),
    Message('note_off', channel=9, note=42, velocity=95, time=0),
    Message('note_on', channel=9, note=36, velocity=95, time=240),
    Message('note_on', channel=9, note=36, velocity=95, time=0),
    Message('note_off', channel=9, note=36, velocity=95, time=240),
    Message('note_off', channel=9, note=36, velocity=95, time=0),
    Message('note_on', channel=9, note=40, velocity=95, time=0),
    Message('note_on', channel=9, note=40, velocity=95, time=0),
    Message('note_on', channel=9, note=42, velocity=95, time=0),
    Message('note_off', channel=9, note=40, velocity=95, time=480),
    Message('note_off', channel=9, note=40, velocity=95, time=0),
    Message('note_off', channel=9, note=42, velocity=95, time=0),
    Message('note_on', channel=9, note=36, velocity=95, time=0),
    Message('note_on', channel=9, note=36, velocity=95, time=0),
    Message('note_off', channel=9, note=36, velocity=95, time=480),
    Message('note_off', channel=9, note=36, velocity=95, time=0),
    Message('note_on', channel=9, note=42, velocity=95, time=0),
    Message('note_off', channel=9, note=42, velocity=95, time=480),
    Message('note_on', channel=9, note=36, velocity=95, time=0),
    Message('note_on', channel=9, note=36, velocity=95, time=0),
    Message('note_off', channel=9, note=36, velocity=95, time=480),
    Message('note_off', channel=9, note=36, velocity=95, time=0),
    Message('note_on', channel=9, note=40, velocity=95, time=0),
    Message('note_on', channel=9, note=40, velocity=95, time=0),
    Message('note_on', channel=9, note=42, velocity=95, time=0),
    Message('note_off', channel=9, note=40, velocity=95, time=480),
    Message('note_off', channel=9, note=40, velocity=95, time=0),
    Message('note_off', channel=9, note=42, velocity=95, time=0),
    Message('note_on', channel=9, note=36, velocity=95, time=0),
    Message('note_on', channel=9, note=36, velocity=95, time=0),
    Message('note_off', channel=9, note=36, velocity=95, time=480),
    Message('note_off', channel=9, note=36, velocity=95, time=0),
    Message('note_on', channel=9, note=36, velocity=95, time=0),
    Message('note_on', channel=9, note=36, velocity=95, time=0),
    Message('note_on', channel=9, note=46, velocity=95, time=0),
    Message('note_off', channel=9, note=36, velocity=95, time=960),
    Message('note_off', channel=9, note=36, velocity=95, time=0),
    Message('note_off', channel=9, note=46, velocity=95, time=0),
    Message('note_on', channel=9, note=40, velocity=95, time=0),
    Message('note_on', channel=9, note=40, velocity=95, time=0),
    Message('note_on', channel=9, note=42, velocity=95, time=0),
    Message('note_off', channel=9, note=40, velocity=95, time=480),
    Message('note_off', channel=9, note=40, velocity=95, time=0),
    Message('note_off', channel=9, note=42, velocity=95, time=0),
    Message('note_on', channel=9, note=36, velocity=95, time=0),
    Message('note_on', channel=9, note=36, velocity=95, time=0),
    Message('note_off', channel=9, note=36, velocity=95, time=480),
    Message('note_off', channel=9, note=36, velocity=95, time=0),
    Message('note_on', channel=9, note=42, velocity=95, time=0),
    Message('note_off', channel=9, note=42, velocity=95, time=480),
    Message('note_on', channel=9, note=36, velocity=95, time=0),
    Message('note_on', channel=9, note=36, velocity=95, time=0),
    Message('note_off', channel=9, note=36, velocity=95, time=480),
    Message('note_off', channel=9, note=36, velocity=95, time=0),
    Message('note_on', channel=9, note=40, velocity=95, time=0),
    Message('note_on', channel=9, note=40, velocity=95, time=0),
    Message('note_on', channel=9, note=42, velocity=95, time=0),
    Message('note_off', channel=9, note=40, velocity=95, time=480),
    Message('note_off', channel=9, note=40, velocity=95, time=0),
    Message('note_off', channel=9, note=42, velocity=95, time=0),
    Message('note_on', channel=9, note=36, velocity=95, time=480),
    Message('note_on', channel=9, note=36, velocity=95, time=0),
    Message('note_on', channel=9, note=42, velocity=95, time=0),
    Message('note_off', channel=9, note=36, velocity=95, time=480),
    Message('note_off', channel=9, note=36, velocity=95, time=0),
    Message('note_off', channel=9, note=42, velocity=95, time=0),
    Message('note_on', channel=9, note=36, velocity=95, time=240),
    Message('note_on', channel=9, note=36, velocity=95, time=0),
    Message('note_off', channel=9, note=36, velocity=95, time=240),
    Message('note_off', channel=9, note=36, velocity=95, time=0),
    Message('note_on', channel=9, note=40, velocity=95, time=0),
    Message('note_on', channel=9, note=40, velocity=95, time=0),
    Message('note_on', channel=9, note=42, velocity=95, time=0),
    Message('note_off', channel=9, note=40, velocity=95, time=480),
    Message('note_off', channel=9, note=40, velocity=95, time=0),
    Message('note_off', channel=9, note=42, velocity=95, time=0),
    Message('note_on', channel=9, note=36, velocity=95, time=0),
    Message('note_on', channel=9, note=36, velocity=95, time=0),
    Message('note_off', channel=9, note=36, velocity=95, time=480),
    Message('note_off', channel=9, note=36, velocity=95, time=0),
    Message('note_on', channel=9, note=42, velocity=95, time=0),
    Message('note_off', channel=9, note=42, velocity=95, time=480),
    Message('note_on', channel=9, note=36, velocity=95, time=0),
    Message('note_on', channel=9, note=36, velocity=95, time=0),
    Message('note_off', channel=9, note=36, velocity=95, time=480),
    Message('note_off', channel=9, note=36, velocity=95, time=0),
    Message('note_on', channel=9, note=40, velocity=95, time=0),
    Message('note_on', channel=9, note=40, velocity=95, time=0),
    Message('note_on', channel=9, note=42, velocity=95, time=0),
    Message('note_off', channel=9, note=40, velocity=95, time=480),
    Message('note_off', channel=9, note=40, velocity=95, time=0),
    Message('note_off', channel=9, note=42, velocity=95, time=0),
    Message('note_on', channel=9, note=36, velocity=95, time=0),
    Message('note_on', channel=9, note=36, velocity=95, time=0),
    Message('note_off', channel=9, note=36, velocity=95, time=480),
    Message('note_off', channel=9, note=36, velocity=95, time=0),
    Message('note_on', channel=9, note=36, velocity=95, time=0),
    Message('note_on', channel=9, note=36, velocity=95, time=0),
    Message('note_on', channel=9, note=46, velocity=95, time=0),
    Message('note_off', channel=9, note=36, velocity=95, time=960),
    Message('note_off', channel=9, note=36, velocity=95, time=0),
    Message('note_off', channel=9, note=46, velocity=95, time=0),
    Message('note_on', channel=9, note=40, velocity=95, time=0),
    Message('note_on', channel=9, note=40, velocity=95, time=0),
    Message('note_on', channel=9, note=42, velocity=95, time=0),
    Message('note_off', channel=9, note=40, velocity=95, time=480),
    Message('note_off', channel=9, note=40, velocity=95, time=0),
    Message('note_off', channel=9, note=42, velocity=95, time=0),
    Message('note_on', channel=9, note=36, velocity=95, time=0),
    Message('note_on', channel=9, note=36, velocity=95, time=0),
    Message('note_off', channel=9, note=36, velocity=95, time=480),
    Message('note_off', channel=9, note=36, velocity=95, time=0),
    Message('note_on', channel=9, note=42, velocity=95, time=0),
    Message('note_off', channel=9, note=42, velocity=95, time=480),
    Message('note_on', channel=9, note=36, velocity=95, time=0),
    Message('note_on', channel=9, note=36, velocity=95, time=0),
    Message('note_off', channel=9, note=36, velocity=95, time=480),
    Message('note_off', channel=9, note=36, velocity=95, time=0),
    Message('note_on', channel=9, note=40, velocity=95, time=0),
    Message('note_on', channel=9, note=40, velocity=95, time=0),
    Message('note_on', channel=9, note=42, velocity=95, time=0),
    Message('note_off', channel=9, note=40, velocity=95, time=480),
    Message('note_off', channel=9, note=40, velocity=95, time=0),
    Message('note_off', channel=9, note=42, velocity=95, time=0),
    Message('note_on', channel=9, note=36, velocity=95, time=0),
    Message('note_on', channel=9, note=36, velocity=95, time=0),
    Message('note_off', channel=9, note=36, velocity=95, time=480),
    Message('note_off', channel=9, note=36, velocity=95, time=0),
    Message('note_on', channel=9, note=36, velocity=95, time=0),
    Message('note_on', channel=9, note=36, velocity=95, time=0),
    Message('note_on', channel=9, note=42, velocity=95, time=0),
    Message('note_off', channel=9, note=36, velocity=95, time=480),
    Message('note_off', channel=9, note=36, velocity=95, time=0),
    Message('note_off', channel=9, note=42, velocity=95, time=0),
    Message('note_on', channel=9, note=36, velocity=95, time=240),
    Message('note_on', channel=9, note=36, velocity=95, time=0),
    Message('note_off', channel=9, note=36, velocity=95, time=240),
    Message('note_off', channel=9, note=36, velocity=95, time=0),
    Message('note_on', channel=9, note=40, velocity=95, time=0),
    Message('note_on', channel=9, note=40, velocity=95, time=0),
    Message('note_on', channel=9, note=42, velocity=95, time=0),
    Message('note_off', channel=9, note=40, velocity=95, time=480),
    Message('note_off', channel=9, note=40, velocity=95, time=0),
    Message('note_off', channel=9, note=42, velocity=95, time=0),
    Message('note_on', channel=9, note=36, velocity=95, time=0),
    Message('note_on', channel=9, note=36, velocity=95, time=0),
    Message('note_off', channel=9, note=36, velocity=95, time=480),
    Message('note_off', channel=9, note=36, velocity=95, time=0),
    Message('note_on', channel=9, note=42, velocity=95, time=0),
    Message('note_off', channel=9, note=42, velocity=95, time=480),
    Message('note_on', channel=9, note=36, velocity=95, time=0),
    Message('note_on', channel=9, note=36, velocity=95, time=0),
    Message('note_off', channel=9, note=36, velocity=95, time=480),
    Message('note_off', channel=9, note=36, velocity=95, time=0),
    Message('note_on', channel=9, note=40, velocity=95, time=0),
    Message('note_on', channel=9, note=40, velocity=95, time=0),
    Message('note_on', channel=9, note=42, velocity=95, time=0),
    Message('note_off', channel=9, note=40, velocity=95, time=480),
    Message('note_off', channel=9, note=40, velocity=95, time=0),
    Message('note_off', channel=9, note=42, velocity=95, time=0),
    Message('note_on', channel=9, note=36, velocity=95, time=0),
    Message('note_on', channel=9, note=36, velocity=95, time=0),
    Message('note_off', channel=9, note=36, velocity=95, time=480),
    Message('note_off', channel=9, note=36, velocity=95, time=0),
    Message('note_on', channel=9, note=36, velocity=95, time=0),
    Message('note_on', channel=9, note=36, velocity=95, time=0),
    Message('note_on', channel=9, note=46, velocity=95, time=0),
    Message('note_off', channel=9, note=36, velocity=95, time=960),
    Message('note_off', channel=9, note=36, velocity=95, time=0),
    Message('note_off', channel=9, note=46, velocity=95, time=0),
    Message('note_on', channel=9, note=40, velocity=95, time=0),
    Message('note_on', channel=9, note=40, velocity=95, time=0),
    Message('note_on', channel=9, note=42, velocity=95, time=0),
    Message('note_off', channel=9, note=40, velocity=95, time=480),
    Message('note_off', channel=9, note=40, velocity=95, time=0),
    Message('note_off', channel=9, note=42, velocity=95, time=0),
    Message('note_on', channel=9, note=36, velocity=95, time=0),
    Message('note_on', channel=9, note=36, velocity=95, time=0),
    Message('note_off', channel=9, note=36, velocity=95, time=480),
    Message('note_off', channel=9, note=36, velocity=95, time=0),
    Message('note_on', channel=9, note=42, velocity=95, time=0),
    Message('note_off', channel=9, note=42, velocity=95, time=480),
    Message('note_on', channel=9, note=36, velocity=95, time=0),
    Message('note_on', channel=9, note=36, velocity=95, time=0),
    Message('note_off', channel=9, note=36, velocity=95, time=480),
    Message('note_off', channel=9, note=36, velocity=95, time=0),
    Message('note_on', channel=9, note=40, velocity=95, time=0),
    Message('note_on', channel=9, note=40, velocity=95, time=0),
    Message('note_on', channel=9, note=42, velocity=95, time=0),
    Message('note_off', channel=9, note=40, velocity=95, time=480),
    Message('note_off', channel=9, note=40, velocity=95, time=0),
    Message('note_off', channel=9, note=42, velocity=95, time=0),
    Message('note_on', channel=9, note=36, velocity=95, time=0),
    Message('note_on', channel=9, note=36, velocity=95, time=0),
    Message('note_off', channel=9, note=36, velocity=95, time=480),
    Message('note_off', channel=9, note=36, velocity=95, time=0),
    Message('note_on', channel=9, note=36, velocity=95, time=0),
    Message('note_on', channel=9, note=36, velocity=95, time=0),
    Message('note_on', channel=9, note=42, velocity=95, time=0),
    Message('note_off', channel=9, note=36, velocity=95, time=960),
    Message('note_off', channel=9, note=36, velocity=95, time=0),
    Message('note_off', channel=9, note=42, velocity=95, time=0),
    Message('note_on', channel=9, note=40, velocity=95, time=0),
    Message('note_on', channel=9, note=40, velocity=95, time=0),
    Message('note_on', channel=9, note=42, velocity=95, time=0),
    Message('note_off', channel=9, note=40, velocity=95, time=480),
    Message('note_off', channel=9, note=40, velocity=95, time=0),
    Message('note_off', channel=9, note=42, velocity=95, time=0),
    Message('note_on', channel=9, note=36, velocity=95, time=0),
    Message('note_on', channel=9, note=36, velocity=95, time=0),
    Message('note_off', channel=9, note=36, velocity=95, time=480),
    Message('note_off', channel=9, note=36, velocity=95, time=0),
    Message('note_on', channel=9, note=42, velocity=95, time=0),
    Message('note_off', channel=9, note=42, velocity=95, time=480),
    Message('note_on', channel=9, note=36, velocity=95, time=0),
    Message('note_on', channel=9, note=36, velocity=95, time=0),
    Message('note_off', channel=9, note=36, velocity=95, time=480),
    Message('note_off', channel=9, note=36, velocity=95, time=0),
    Message('note_on', channel=9, note=40, velocity=95, time=0),
    Message('note_on', channel=9, note=40, velocity=95, time=0),
    Message('note_on', channel=9, note=46, velocity=95, time=0),
    Message('note_off', channel=9, note=40, velocity=95, time=480),
    Message('note_off', channel=9, note=40, velocity=95, time=0),
    Message('note_off', channel=9, note=46, velocity=95, time=0),
    Message('note_on', channel=9, note=57, velocity=95, time=480),
    Message('note_on', channel=9, note=36, velocity=95, time=0),
    Message('note_on', channel=9, note=36, velocity=95, time=0),
    Message('note_on', channel=9, note=49, velocity=95, time=0),
    Message('note_off', channel=9, note=57, velocity=95, time=960),
    Message('note_off', channel=9, note=36, velocity=95, time=0),
    Message('note_off', channel=9, note=36, velocity=95, time=0),
    Message('note_off', channel=9, note=49, velocity=95, time=0),
    Message('note_on', channel=9, note=40, velocity=95, time=0),
    Message('note_on', channel=9, note=40, velocity=95, time=0),
    Message('note_on', channel=9, note=46, velocity=95, time=0),
    Message('note_off', channel=9, note=40, velocity=95, time=480),
    Message('note_off', channel=9, note=40, velocity=95, time=0),
    Message('note_off', channel=9, note=46, velocity=95, time=0),
    Message('note_on', channel=9, note=36, velocity=95, time=0),
    Message('note_on', channel=9, note=36, velocity=95, time=0),
    Message('note_off', channel=9, note=36, velocity=95, time=480),
    Message('note_off', channel=9, note=36, velocity=95, time=0),
    Message('note_on', channel=9, note=46, velocity=95, time=0),
    Message('note_off', channel=9, note=46, velocity=95, time=480),
    Message('note_on', channel=9, note=36, velocity=95, time=0),
    Message('note_on', channel=9, note=36, velocity=95, time=0),
    Message('note_off', channel=9, note=36, velocity=95, time=480),
    Message('note_off', channel=9, note=36, velocity=95, time=0),
    Message('note_on', channel=9, note=40, velocity=95, time=0),
    Message('note_on', channel=9, note=40, velocity=95, time=0),
    Message('note_on', channel=9, note=46, velocity=95, time=0),
    Message('note_off', channel=9, note=40, velocity=95, time=480),
    Message('note_off', channel=9, note=40, velocity=95, time=0),
    Message('note_off', channel=9, note=46, velocity=95, time=0),
    Message('note_on', channel=9, note=36, velocity=95, time=0),
    Message('note_on', channel=9, note=36, velocity=95, time=0),
    Message('note_off', channel=9, note=36, velocity=95, time=480),
    Message('note_off', channel=9, note=36, velocity=95, time=0),
    Message('note_on', channel=9, note=36, velocity=95, time=0),
    Message('note_on', channel=9, note=36, velocity=95, time=0),
    Message('note_on', channel=9, note=46, velocity=95, time=0),
    Message('note_off', channel=9, note=36, velocity=95, time=960),
    Message('note_off', channel=9, note=36, velocity=95, time=0),
    Message('note_off', channel=9, note=46, velocity=95, time=0),
    Message('note_on', channel=9, note=40, velocity=95, time=0),
    Message('note_on', channel=9, note=40, velocity=95, time=0),
    Message('note_on', channel=9, note=46, velocity=95, time=0),
    Message('note_off', channel=9, note=40, velocity=95, time=480),
    Message('note_off', channel=9, note=40, velocity=95, time=0),
    Message('note_off', channel=9, note=46, velocity=95, time=0),
    Message('note_on', channel=9, note=36, velocity=95, time=0),
    Message('note_on', channel=9, note=36, velocity=95, time=0),
    Message('note_off', channel=9, note=36, velocity=95, time=480),
    Message('note_off', channel=9, note=36, velocity=95, time=0),
    Message('note_on', channel=9, note=46, velocity=95, time=0),
    Message('note_off', channel=9, note=46, velocity=95, time=480),
    Message('note_on', channel=9, note=36, velocity=95, time=0),
    Message('note_on', channel=9, note=36, velocity=95, time=0),
    Message('note_off', channel=9, note=36, velocity=95, time=480),
    Message('note_off', channel=9, note=36, velocity=95, time=0),
    Message('note_on', channel=9, note=54, velocity=95, time=0),
    Message('note_on', channel=9, note=54, velocity=95, time=0),
    Message('note_on', channel=9, note=40, velocity=95, time=0),
    Message('note_on', channel=9, note=40, velocity=95, time=0),
    Message('note_on', channel=9, note=46, velocity=95, time=0),
    Message('note_off', channel=9, note=40, velocity=95, time=480),
    Message('note_off', channel=9, note=40, velocity=95, time=0),
    Message('note_off', channel=9, note=46, velocity=95, time=0),
    Message('note_off', channel=9, note=54, velocity=95, time=480),
    Message('note_off', channel=9, note=54, velocity=95, time=0),
    Message('note_on', channel=9, note=57, velocity=95, time=0),
    Message('note_on', channel=9, note=36, velocity=95, time=0),
    Message('note_on', channel=9, note=36, velocity=95, time=0),
    Message('note_on', channel=9, note=49, velocity=95, time=0),
    Message('note_off', channel=9, note=57, velocity=95, time=960),
    Message('note_off', channel=9, note=36, velocity=95, time=0),
    Message('note_off', channel=9, note=36, velocity=95, time=0),
    Message('note_off', channel=9, note=49, velocity=95, time=0),
    Message('note_on', channel=9, note=40, velocity=95, time=0),
    Message('note_on', channel=9, note=40, velocity=95, time=0),
    Message('note_on', channel=9, note=46, velocity=95, time=0),
    Message('note_off', channel=9, note=40, velocity=95, time=480),
    Message('note_off', channel=9, note=40, velocity=95, time=0),
    Message('note_off', channel=9, note=46, velocity=95, time=0),
    Message('note_on', channel=9, note=36, velocity=95, time=0),
    Message('note_on', channel=9, note=36, velocity=95, time=0),
    Message('note_off', channel=9, note=36, velocity=95, time=480),
    Message('note_off', channel=9, note=36, velocity=95, time=0),
    Message('note_on', channel=9, note=46, velocity=95, time=0),
    Message('note_off', channel=9, note=46, velocity=95, time=480),
    Message('note_on', channel=9, note=36, velocity=95, time=0),
    Message('note_on', channel=9, note=36, velocity=95, time=0),
    Message('note_off', channel=9, note=36, velocity=95, time=480),
    Message('note_off', channel=9, note=36, velocity=95, time=0),
    Message('note_on', channel=9, note=40, velocity=95, time=0),
    Message('note_on', channel=9, note=40, velocity=95, time=0),
    Message('note_on', channel=9, note=46, velocity=95, time=0),
    Message('note_off', channel=9, note=40, velocity=95, time=480),
    Message('note_off', channel=9, note=40, velocity=95, time=0),
    Message('note_off', channel=9, note=46, velocity=95, time=0),
    Message('note_on', channel=9, note=36, velocity=95, time=0),
    Message('note_on', channel=9, note=36, velocity=95, time=0),
    Message('note_off', channel=9, note=36, velocity=95, time=480),
    Message('note_off', channel=9, note=36, velocity=95, time=0),
    Message('note_on', channel=9, note=36, velocity=95, time=0),
    Message('note_on', channel=9, note=36, velocity=95, time=0),
    Message('note_on', channel=9, note=46, velocity=95, time=0),
    Message('note_off', channel=9, note=36, velocity=95, time=960),
    Message('note_off', channel=9, note=36, velocity=95, time=0),
    Message('note_off', channel=9, note=46, velocity=95, time=0),
    Message('note_on', channel=9, note=40, velocity=95, time=0),
    Message('note_on', channel=9, note=40, velocity=95, time=0),
    Message('note_on', channel=9, note=46, velocity=95, time=0),
    Message('note_off', channel=9, note=40, velocity=95, time=480),
    Message('note_off', channel=9, note=40, velocity=95, time=0),
    Message('note_off', channel=9, note=46, velocity=95, time=0),
    Message('note_on', channel=9, note=36, velocity=95, time=0),
    Message('note_on', channel=9, note=36, velocity=95, time=0),
    Message('note_off', channel=9, note=36, velocity=95, time=480),
    Message('note_off', channel=9, note=36, velocity=95, time=0),
    Message('note_on', channel=9, note=46, velocity=95, time=0),
    Message('note_off', channel=9, note=46, velocity=95, time=480),
    Message('note_on', channel=9, note=36, velocity=95, time=0),
    Message('note_on', channel=9, note=36, velocity=95, time=0),
    Message('note_off', channel=9, note=36, velocity=95, time=480),
    Message('note_off', channel=9, note=36, velocity=95, time=0),
    Message('note_on', channel=9, note=54, velocity=95, time=0),
    Message('note_on', channel=9, note=54, velocity=95, time=0),
    Message('note_on', channel=9, note=40, velocity=95, time=0),
    Message('note_on', channel=9, note=40, velocity=95, time=0),
    Message('note_on', channel=9, note=46, velocity=95, time=0),
    Message('note_off', channel=9, note=54, velocity=95, time=480),
    Message('note_off', channel=9, note=54, velocity=95, time=0),
    Message('note_off', channel=9, note=40, velocity=95, time=0),
    Message('note_off', channel=9, note=40, velocity=95, time=0),
    Message('note_off', channel=9, note=46, velocity=95, time=0),
    Message('note_on', channel=9, note=36, velocity=95, time=0),
    Message('note_on', channel=9, note=36, velocity=95, time=0),
    Message('note_off', channel=9, note=36, velocity=95, time=480),
    Message('note_off', channel=9, note=36, velocity=95, time=0),
    Message('note_on', channel=9, note=57, velocity=95, time=0),
    Message('note_on', channel=9, note=36, velocity=95, time=0),
    Message('note_on', channel=9, note=36, velocity=95, time=0),
    Message('note_on', channel=9, note=49, velocity=95, time=0),
    Message('note_off', channel=9, note=57, velocity=95, time=960),
    Message('note_off', channel=9, note=36, velocity=95, time=0),
    Message('note_off', channel=9, note=36, velocity=95, time=0),
    Message('note_off', channel=9, note=49, velocity=95, time=0),
    Message('note_on', channel=9, note=40, velocity=95, time=0),
    Message('note_on', channel=9, note=40, velocity=95, time=0),
    Message('note_on', channel=9, note=46, velocity=95, time=0),
    Message('note_off', channel=9, note=40, velocity=95, time=480),
    Message('note_off', channel=9, note=40, velocity=95, time=0),
    Message('note_off', channel=9, note=46, velocity=95, time=0),
    Message('note_on', channel=9, note=36, velocity=95, time=0),
    Message('note_on', channel=9, note=36, velocity=95, time=0),
    Message('note_off', channel=9, note=36, velocity=95, time=480),
    Message('note_off', channel=9, note=36, velocity=95, time=0),
    Message('note_on', channel=9, note=46, velocity=95, time=0),
    Message('note_off', channel=9, note=46, velocity=95, time=480),
    Message('note_on', channel=9, note=36, velocity=95, time=0),
    Message('note_on', channel=9, note=36, velocity=95, time=0),
    Message('note_off', channel=9, note=36, velocity=95, time=480),
    Message('note_off', channel=9, note=36, velocity=95, time=0),
    Message('note_on', channel=9, note=40, velocity=95, time=0),
    Message('note_on', channel=9, note=40, velocity=95, time=0),
    Message('note_on', channel=9, note=46, velocity=95, time=0),
    Message('note_off', channel=9, note=40, velocity=95, time=480),
    Message('note_off', channel=9, note=40, velocity=95, time=0),
    Message('note_off', channel=9, note=46, velocity=95, time=0),
    Message('note_on', channel=9, note=36, velocity=95, time=480),
    Message('note_on', channel=9, note=36, velocity=95, time=0),
    Message('note_on', channel=9, note=46, velocity=95, time=0),
    Message('note_off', channel=9, note=36, velocity=95, time=960),
    Message('note_off', channel=9, note=36, velocity=95, time=0),
    Message('note_off', channel=9, note=46, velocity=95, time=0),
    Message('note_on', channel=9, note=40, velocity=95, time=0),
    Message('note_on', channel=9, note=40, velocity=95, time=0),
    Message('note_on', channel=9, note=46, velocity=95, time=0),
    Message('note_off', channel=9, note=40, velocity=95, time=480),
    Message('note_off', channel=9, note=40, velocity=95, time=0),
    Message('note_off', channel=9, note=46, velocity=95, time=0),
    Message('note_on', channel=9, note=36, velocity=95, time=0),
    Message('note_on', channel=9, note=36, velocity=95, time=0),
    Message('note_off', channel=9, note=36, velocity=95, time=480),
    Message('note_off', channel=9, note=36, velocity=95, time=0),
    Message('note_on', channel=9, note=46, velocity=95, time=0),
    Message('note_off', channel=9, note=46, velocity=95, time=480),
    Message('note_on', channel=9, note=36, velocity=95, time=0),
    Message('note_on', channel=9, note=36, velocity=95, time=0),
    Message('note_off', channel=9, note=36, velocity=95, time=480),
    Message('note_off', channel=9, note=36, velocity=95, time=0),
    Message('note_on', channel=9, note=54, velocity=95, time=0),
    Message('note_on', channel=9, note=54, velocity=95, time=0),
    Message('note_on', channel=9, note=40, velocity=95, time=0),
    Message('note_on', channel=9, note=40, velocity=95, time=0),
    Message('note_on', channel=9, note=46, velocity=95, time=0),
    Message('note_off', channel=9, note=54, velocity=95, time=480),
    Message('note_off', channel=9, note=54, velocity=95, time=0),
    Message('note_off', channel=9, note=40, velocity=95, time=0),
    Message('note_off', channel=9, note=40, velocity=95, time=0),
    Message('note_off', channel=9, note=46, velocity=95, time=0),
    Message('note_on', channel=9, note=36, velocity=95, time=0),
    Message('note_on', channel=9, note=36, velocity=95, time=0),
    Message('note_off', channel=9, note=36, velocity=95, time=480),
    Message('note_off', channel=9, note=36, velocity=95, time=0),
    Message('note_on', channel=9, note=57, velocity=95, time=0),
    Message('note_on', channel=9, note=36, velocity=95, time=0),
    Message('note_on', channel=9, note=36, velocity=95, time=0),
    Message('note_on', channel=9, note=49, velocity=95, time=0),
    Message('note_off', channel=9, note=57, velocity=95, time=960),
    Message('note_off', channel=9, note=36, velocity=95, time=0),
    Message('note_off', channel=9, note=36, velocity=95, time=0),
    Message('note_off', channel=9, note=49, velocity=95, time=0),
    Message('note_on', channel=9, note=40, velocity=95, time=0),
    Message('note_on', channel=9, note=40, velocity=95, time=0),
    Message('note_on', channel=9, note=46, velocity=95, time=0),
    Message('note_off', channel=9, note=40, velocity=95, time=480),
    Message('note_off', channel=9, note=40, velocity=95, time=0),
    Message('note_off', channel=9, note=46, velocity=95, time=0),
    Message('note_on', channel=9, note=36, velocity=95, time=0),
    Message('note_on', channel=9, note=36, velocity=95, time=0),
    Message('note_off', channel=9, note=36, velocity=95, time=480),
    Message('note_off', channel=9, note=36, velocity=95, time=0),
    Message('note_on', channel=9, note=46, velocity=95, time=0),
    Message('note_off', channel=9, note=46, velocity=95, time=480),
    Message('note_on', channel=9, note=36, velocity=95, time=0),
    Message('note_on', channel=9, note=36, velocity=95, time=0),
    Message('note_off', channel=9, note=36, velocity=95, time=480),
    Message('note_off', channel=9, note=36, velocity=95, time=0),
    Message('note_on', channel=9, note=40, velocity=95, time=0),
    Message('note_on', channel=9, note=40, velocity=95, time=0),
    Message('note_on', channel=9, note=46, velocity=95, time=0),
    Message('note_off', channel=9, note=40, velocity=95, time=480),
    Message('note_off', channel=9, note=40, velocity=95, time=0),
    Message('note_off', channel=9, note=46, velocity=95, time=0),
    Message('note_on', channel=9, note=36, velocity=95, time=480),
    Message('note_on', channel=9, note=36, velocity=95, time=0),
    Message('note_on', channel=9, note=46, velocity=95, time=0),
    Message('note_off', channel=9, note=36, velocity=95, time=960),
    Message('note_off', channel=9, note=36, velocity=95, time=0),
    Message('note_off', channel=9, note=46, velocity=95, time=0),
    Message('note_on', channel=9, note=40, velocity=95, time=0),
    Message('note_on', channel=9, note=40, velocity=95, time=0),
    Message('note_on', channel=9, note=46, velocity=95, time=0),
    Message('note_off', channel=9, note=40, velocity=95, time=480),
    Message('note_off', channel=9, note=40, velocity=95, time=0),
    Message('note_off', channel=9, note=46, velocity=95, time=0),
    Message('note_on', channel=9, note=36, velocity=95, time=0),
    Message('note_on', channel=9, note=36, velocity=95, time=0),
    Message('note_off', channel=9, note=36, velocity=95, time=480),
    Message('note_off', channel=9, note=36, velocity=95, time=0),
    Message('note_on', channel=9, note=46, velocity=95, time=0),
    Message('note_off', channel=9, note=46, velocity=95, time=480),
    Message('note_on', channel=9, note=36, velocity=95, time=0),
    Message('note_on', channel=9, note=36, velocity=95, time=0),
    Message('note_off', channel=9, note=36, velocity=95, time=480),
    Message('note_off', channel=9, note=36, velocity=95, time=0),
    Message('note_on', channel=9, note=54, velocity=95, time=0),
    Message('note_on', channel=9, note=54, velocity=95, time=0),
    Message('note_on', channel=9, note=40, velocity=95, time=0),
    Message('note_on', channel=9, note=40, velocity=95, time=0),
    Message('note_on', channel=9, note=46, velocity=95, time=0),
    Message('note_off', channel=9, note=54, velocity=95, time=240),
    Message('note_off', channel=9, note=54, velocity=95, time=0),
    Message('note_off', channel=9, note=40, velocity=95, time=0),
    Message('note_off', channel=9, note=40, velocity=95, time=0),
    Message('note_off', channel=9, note=46, velocity=95, time=0),
    Message('note_on', channel=9, note=40, velocity=95, time=0),
    Message('note_on', channel=9, note=40, velocity=95, time=0),
    Message('note_off', channel=9, note=40, velocity=95, time=240),
    Message('note_off', channel=9, note=40, velocity=95, time=0),
    Message('note_on', channel=9, note=40, velocity=95, time=0),
    Message('note_on', channel=9, note=40, velocity=95, time=0),
    Message('note_off', channel=9, note=40, velocity=95, time=240),
    Message('note_off', channel=9, note=40, velocity=95, time=0),
    Message('note_on', channel=9, note=49, velocity=95, time=240),
    Message('note_on', channel=9, note=36, velocity=95, time=0),
    Message('note_on', channel=9, note=36, velocity=95, time=0),
    Message('note_off', channel=9, note=49, velocity=95, time=480),
    Message('note_off', channel=9, note=36, velocity=95, time=0),
    Message('note_off', channel=9, note=36, velocity=95, time=0),
    Message('note_on', channel=9, note=57, velocity=95, time=0),
    Message('note_on', channel=9, note=36, velocity=95, time=0),
    Message('note_on', channel=9, note=36, velocity=95, time=0),
    Message('note_off', channel=9, note=57, velocity=95, time=480),
    Message('note_off', channel=9, note=36, velocity=95, time=0),
    Message('note_off', channel=9, note=36, velocity=95, time=0),
    Message('note_on', channel=9, note=54, velocity=95, time=0),
    Message('note_on', channel=9, note=51, velocity=95, time=0),
    Message('note_on', channel=9, note=40, velocity=95, time=0),
    Message('note_on', channel=9, note=40, velocity=95, time=0),
    Message('note_off', channel=9, note=54, velocity=95, time=480),
    Message('note_off', channel=9, note=51, velocity=95, time=0),
    Message('note_off', channel=9, note=40, velocity=95, time=0),
    Message('note_off', channel=9, note=40, velocity=95, time=0),
    Message('note_on', channel=9, note=51, velocity=95, time=480),
    Message('note_on', channel=9, note=36, velocity=95, time=0),
    Message('note_on', channel=9, note=36, velocity=95, time=0),
    Message('note_off', channel=9, note=51, velocity=95, time=480),
    Message('note_off', channel=9, note=36, velocity=95, time=0),
    Message('note_off', channel=9, note=36, velocity=95, time=0),
    Message('note_on', channel=9, note=36, velocity=95, time=0),
    Message('note_on', channel=9, note=36, velocity=95, time=0),
    Message('note_off', channel=9, note=36, velocity=95, time=480),
    Message('note_off', channel=9, note=36, velocity=95, time=0),
    Message('note_on', channel=9, note=54, velocity=95, time=0),
    Message('note_on', channel=9, note=51, velocity=95, time=0),
    Message('note_on', channel=9, note=40, velocity=95, time=0),
    Message('note_on', channel=9, note=40, velocity=95, time=0),
    Message('note_off', channel=9, note=54, velocity=95, time=480),
    Message('note_off', channel=9, note=51, velocity=95, time=0),
    Message('note_off', channel=9, note=40, velocity=95, time=0),
    Message('note_off', channel=9, note=40, velocity=95, time=0),
    Message('note_on', channel=9, note=36, velocity=95, time=0),
    Message('note_on', channel=9, note=36, velocity=95, time=0),
    Message('note_off', channel=9, note=36, velocity=95, time=480),
    Message('note_off', channel=9, note=36, velocity=95, time=0),
    Message('note_on', channel=9, note=49, velocity=95, time=0),
    Message('note_on', channel=9, note=36, velocity=95, time=0),
    Message('note_on', channel=9, note=36, velocity=95, time=0),
    Message('note_off', channel=9, note=36, velocity=95, time=480),
    Message('note_off', channel=9, note=36, velocity=95, time=0),
    Message('note_off', channel=9, note=49, velocity=95, time=480),
    Message('note_on', channel=9, note=54, velocity=95, time=0),
    Message('note_on', channel=9, note=51, velocity=95, time=0),
    Message('note_on', channel=9, note=40, velocity=95, time=0),
    Message('note_on', channel=9, note=40, velocity=95, time=0),
    Message('note_off', channel=9, note=54, velocity=95, time=480),
    Message('note_off', channel=9, note=40, velocity=95, time=0),
    Message('note_off', channel=9, note=40, velocity=95, time=0),
    Message('note_on', channel=9, note=36, velocity=95, time=0),
    Message('note_on', channel=9, note=36, velocity=95, time=0),
    Message('note_off', channel=9, note=51, velocity=95, time=480),
    Message('note_off', channel=9, note=36, velocity=95, time=0),
    Message('note_off', channel=9, note=36, velocity=95, time=0),
    Message('note_on', channel=9, note=51, velocity=95, time=0),
    Message('note_on', channel=9, note=36, velocity=95, time=480),
    Message('note_on', channel=9, note=36, velocity=95, time=0),
    Message('note_off', channel=9, note=51, velocity=95, time=480),
    Message('note_off', channel=9, note=36, velocity=95, time=0),
    Message('note_off', channel=9, note=36, velocity=95, time=0),
    Message('note_on', channel=9, note=54, velocity=95, time=0),
    Message('note_on', channel=9, note=52, velocity=95, time=0),
    Message('note_on', channel=9, note=40, velocity=95, time=0),
    Message('note_on', channel=9, note=40, velocity=95, time=0),
    Message('note_off', channel=9, note=54, velocity=95, time=480),
    Message('note_off', channel=9, note=40, velocity=95, time=0),
    Message('note_off', channel=9, note=40, velocity=95, time=0),
    Message('note_off', channel=9, note=52, velocity=95, time=480),
    Message('note_on', channel=9, note=36, velocity=95, time=0),
    Message('note_on', channel=9, note=36, velocity=95, time=0),
    Message('note_on', channel=9, note=49, velocity=95, time=0),
    Message('note_off', channel=9, note=36, velocity=95, time=960),
    Message('note_off', channel=9, note=36, velocity=95, time=0),
    Message('note_off', channel=9, note=49, velocity=95, time=0),
    Message('note_on', channel=9, note=54, velocity=95, time=0),
    Message('note_on', channel=9, note=40, velocity=95, time=0),
    Message('note_on', channel=9, note=40, velocity=95, time=0),
    Message('note_on', channel=9, note=51, velocity=95, time=0),
    Message('note_off', channel=9, note=54, velocity=95, time=480),
    Message('note_off', channel=9, note=40, velocity=95, time=0),
    Message('note_off', channel=9, note=40, velocity=95, time=0),
    Message('note_off', channel=9, note=51, velocity=95, time=0),
    Message('note_on', channel=9, note=36, velocity=95, time=0),
    Message('note_on', channel=9, note=36, velocity=95, time=0),
    Message('note_off', channel=9, note=36, velocity=95, time=480),
    Message('note_off', channel=9, note=36, velocity=95, time=0),
    Message('note_on', channel=9, note=51, velocity=95, time=0),
    Message('note_off', channel=9, note=51, velocity=95, time=480),
    Message('note_on', channel=9, note=36, velocity=95, time=0),
    Message('note_on', channel=9, note=36, velocity=95, time=0),
    Message('note_off', channel=9, note=36, velocity=95, time=480),
    Message('note_off', channel=9, note=36, velocity=95, time=0),
    Message('note_on', channel=9, note=54, velocity=95, time=0),
    Message('note_on', channel=9, note=40, velocity=95, time=0),
    Message('note_on', channel=9, note=40, velocity=95, time=0),
    Message('note_on', channel=9, note=51, velocity=95, time=0),
    Message('note_off', channel=9, note=54, velocity=95, time=480),
    Message('note_off', channel=9, note=40, velocity=95, time=0),
    Message('note_off', channel=9, note=40, velocity=95, time=0),
    Message('note_off', channel=9, note=51, velocity=95, time=0),
    Message('note_on', channel=9, note=36, velocity=95, time=0),
    Message('note_on', channel=9, note=36, velocity=95, time=0),
    Message('note_off', channel=9, note=36, velocity=95, time=480),
    Message('note_off', channel=9, note=36, velocity=95, time=0),
    Message('note_on', channel=9, note=57, velocity=95, time=0),
    Message('note_on', channel=9, note=36, velocity=95, time=0),
    Message('note_on', channel=9, note=36, velocity=95, time=0),
    Message('note_on', channel=9, note=49, velocity=95, time=0),
    Message('note_off', channel=9, note=57, velocity=95, time=960),
    Message('note_off', channel=9, note=36, velocity=95, time=0),
    Message('note_off', channel=9, note=36, velocity=95, time=0),
    Message('note_off', channel=9, note=49, velocity=95, time=0),
    Message('note_on', channel=9, note=54, velocity=95, time=0),
    Message('note_on', channel=9, note=40, velocity=95, time=0),
    Message('note_on', channel=9, note=40, velocity=95, time=0),
    Message('note_on', channel=9, note=51, velocity=95, time=0),
    Message('note_off', channel=9, note=54, velocity=95, time=480),
    Message('note_off', channel=9, note=40, velocity=95, time=0),
    Message('note_off', channel=9, note=40, velocity=95, time=0),
    Message('note_off', channel=9, note=51, velocity=95, time=0),
    Message('note_on', channel=9, note=36, velocity=95, time=0),
    Message('note_on', channel=9, note=36, velocity=95, time=0),
    Message('note_off', channel=9, note=36, velocity=95, time=480),
    Message('note_off', channel=9, note=36, velocity=95, time=0),
    Message('note_on', channel=9, note=51, velocity=95, time=0),
    Message('note_off', channel=9, note=51, velocity=95, time=480),
    Message('note_on', channel=9, note=36, velocity=95, time=0),
    Message('note_on', channel=9, note=36, velocity=95, time=0),
    Message('note_off', channel=9, note=36, velocity=95, time=480),
    Message('note_off', channel=9, note=36, velocity=95, time=0),
    Message('note_on', channel=9, note=54, velocity=95, time=0),
    Message('note_on', channel=9, note=40, velocity=95, time=0),
    Message('note_on', channel=9, note=40, velocity=95, time=0),
    Message('note_on', channel=9, note=51, velocity=95, time=0),
    Message('note_off', channel=9, note=54, velocity=95, time=240),
    Message('note_off', channel=9, note=40, velocity=95, time=0),
    Message('note_off', channel=9, note=40, velocity=95, time=0),
    Message('note_off', channel=9, note=51, velocity=95, time=0),
    Message('note_on', channel=9, note=40, velocity=95, time=0),
    Message('note_on', channel=9, note=40, velocity=95, time=0),
    Message('note_off', channel=9, note=40, velocity=95, time=240),
    Message('note_off', channel=9, note=40, velocity=95, time=0),
    Message('note_on', channel=9, note=40, velocity=95, time=0),
    Message('note_on', channel=9, note=40, velocity=95, time=0),
    Message('note_off', channel=9, note=40, velocity=95, time=240),
    Message('note_off', channel=9, note=40, velocity=95, time=0),
    Message('note_on', channel=9, note=49, velocity=95, time=240),
    Message('note_on', channel=9, note=36, velocity=95, time=0),
    Message('note_on', channel=9, note=36, velocity=95, time=0),
    Message('note_off', channel=9, note=49, velocity=95, time=480),
    Message('note_off', channel=9, note=36, velocity=95, time=0),
    Message('note_off', channel=9, note=36, velocity=95, time=0),
    Message('note_on', channel=9, note=57, velocity=95, time=0),
    Message('note_on', channel=9, note=36, velocity=95, time=0),
    Message('note_on', channel=9, note=36, velocity=95, time=0),
    Message('note_off', channel=9, note=57, velocity=95, time=480),
    Message('note_off', channel=9, note=36, velocity=95, time=0),
    Message('note_off', channel=9, note=36, velocity=95, time=0),
    Message('note_on', channel=9, note=54, velocity=95, time=0),
    Message('note_on', channel=9, note=51, velocity=95, time=0),
    Message('note_on', channel=9, note=40, velocity=95, time=0),
    Message('note_on', channel=9, note=40, velocity=95, time=0),
    Message('note_off', channel=9, note=54, velocity=95, time=480),
    Message('note_off', channel=9, note=51, velocity=95, time=0),
    Message('note_off', channel=9, note=40, velocity=95, time=0),
    Message('note_off', channel=9, note=40, velocity=95, time=0),
    Message('note_on', channel=9, note=51, velocity=95, time=480),
    Message('note_on', channel=9, note=36, velocity=95, time=0),
    Message('note_on', channel=9, note=36, velocity=95, time=0),
    Message('note_off', channel=9, note=51, velocity=95, time=480),
    Message('note_off', channel=9, note=36, velocity=95, time=0),
    Message('note_off', channel=9, note=36, velocity=95, time=0),
    Message('note_on', channel=9, note=36, velocity=95, time=0),
    Message('note_on', channel=9, note=36, velocity=95, time=0),
    Message('note_off', channel=9, note=36, velocity=95, time=480),
    Message('note_off', channel=9, note=36, velocity=95, time=0),
    Message('note_on', channel=9, note=54, velocity=95, time=0),
    Message('note_on', channel=9, note=51, velocity=95, time=0),
    Message('note_on', channel=9, note=40, velocity=95, time=0),
    Message('note_on', channel=9, note=40, velocity=95, time=0),
    Message('note_off', channel=9, note=54, velocity=95, time=480),
    Message('note_off', channel=9, note=51, velocity=95, time=0),
    Message('note_off', channel=9, note=40, velocity=95, time=0),
    Message('note_off', channel=9, note=40, velocity=95, time=0),
    Message('note_on', channel=9, note=36, velocity=95, time=0),
    Message('note_on', channel=9, note=36, velocity=95, time=0),
    Message('note_off', channel=9, note=36, velocity=95, time=480),
    Message('note_off', channel=9, note=36, velocity=95, time=0),
    Message('note_on', channel=9, note=49, velocity=95, time=0),
    Message('note_on', channel=9, note=36, velocity=95, time=0),
    Message('note_on', channel=9, note=36, velocity=95, time=0),
    Message('note_off', channel=9, note=36, velocity=95, time=480),
    Message('note_off', channel=9, note=36, velocity=95, time=0),
    Message('note_off', channel=9, note=49, velocity=95, time=480),
    Message('note_on', channel=9, note=54, velocity=95, time=0),
    Message('note_on', channel=9, note=51, velocity=95, time=0),
    Message('note_on', channel=9, note=40, velocity=95, time=0),
    Message('note_on', channel=9, note=40, velocity=95, time=0),
    Message('note_off', channel=9, note=54, velocity=95, time=480),
    Message('note_off', channel=9, note=40, velocity=95, time=0),
    Message('note_off', channel=9, note=40, velocity=95, time=0),
    Message('note_on', channel=9, note=36, velocity=95, time=0),
    Message('note_on', channel=9, note=36, velocity=95, time=0),
    Message('note_off', channel=9, note=51, velocity=95, time=480),
    Message('note_off', channel=9, note=36, velocity=95, time=0),
    Message('note_off', channel=9, note=36, velocity=95, time=0),
    Message('note_on', channel=9, note=51, velocity=95, time=0),
    Message('note_on', channel=9, note=36, velocity=95, time=480),
    Message('note_on', channel=9, note=36, velocity=95, time=0),
    Message('note_off', channel=9, note=51, velocity=95, time=480),
    Message('note_off', channel=9, note=36, velocity=95, time=0),
    Message('note_off', channel=9, note=36, velocity=95, time=0),
    Message('note_on', channel=9, note=54, velocity=95, time=0),
    Message('note_on', channel=9, note=52, velocity=95, time=0),
    Message('note_on', channel=9, note=40, velocity=95, time=0),
    Message('note_on', channel=9, note=40, velocity=95, time=0),
    Message('note_off', channel=9, note=54, velocity=95, time=480),
    Message('note_off', channel=9, note=40, velocity=95, time=0),
    Message('note_off', channel=9, note=40, velocity=95, time=0),
    Message('note_off', channel=9, note=52, velocity=95, time=480),
    Message('note_on', channel=9, note=36, velocity=95, time=0),
    Message('note_on', channel=9, note=36, velocity=95, time=0),
    Message('note_on', channel=9, note=49, velocity=95, time=0),
    Message('note_off', channel=9, note=36, velocity=95, time=960),
    Message('note_off', channel=9, note=36, velocity=95, time=0),
    Message('note_off', channel=9, note=49, velocity=95, time=0),
    Message('note_on', channel=9, note=54, velocity=95, time=0),
    Message('note_on', channel=9, note=40, velocity=95, time=0),
    Message('note_on', channel=9, note=40, velocity=95, time=0),
    Message('note_on', channel=9, note=51, velocity=95, time=0),
    Message('note_off', channel=9, note=54, velocity=95, time=480),
    Message('note_off', channel=9, note=40, velocity=95, time=0),
    Message('note_off', channel=9, note=40, velocity=95, time=0),
    Message('note_off', channel=9, note=51, velocity=95, time=0),
    Message('note_on', channel=9, note=36, velocity=95, time=0),
    Message('note_on', channel=9, note=36, velocity=95, time=0),
    Message('note_off', channel=9, note=36, velocity=95, time=480),
    Message('note_off', channel=9, note=36, velocity=95, time=0),
    Message('note_on', channel=9, note=51, velocity=95, time=0),
    Message('note_off', channel=9, note=51, velocity=95, time=480),
    Message('note_on', channel=9, note=36, velocity=95, time=0),
    Message('note_on', channel=9, note=36, velocity=95, time=0),
    Message('note_off', channel=9, note=36, velocity=95, time=480),
    Message('note_off', channel=9, note=36, velocity=95, time=0),
    Message('note_on', channel=9, note=54, velocity=95, time=0),
    Message('note_on', channel=9, note=40, velocity=95, time=0),
    Message('note_on', channel=9, note=40, velocity=95, time=0),
    Message('note_on', channel=9, note=51, velocity=95, time=0),
    Message('note_off', channel=9, note=54, velocity=95, time=480),
    Message('note_off', channel=9, note=40, velocity=95, time=0),
    Message('note_off', channel=9, note=40, velocity=95, time=0),
    Message('note_off', channel=9, note=51, velocity=95, time=0),
    Message('note_on', channel=9, note=36, velocity=95, time=0),
    Message('note_on', channel=9, note=36, velocity=95, time=0),
    Message('note_off', channel=9, note=36, velocity=95, time=480),
    Message('note_off', channel=9, note=36, velocity=95, time=0),
    Message('note_on', channel=9, note=36, velocity=95, time=0),
    Message('note_on', channel=9, note=36, velocity=95, time=0),
    Message('note_on', channel=9, note=51, velocity=95, time=0),
    Message('note_off', channel=9, note=36, velocity=95, time=960),
    Message('note_off', channel=9, note=36, velocity=95, time=0),
    Message('note_off', channel=9, note=51, velocity=95, time=0),
    Message('note_on', channel=9, note=54, velocity=95, time=0),
    Message('note_on', channel=9, note=40, velocity=95, time=0),
    Message('note_on', channel=9, note=40, velocity=95, time=0),
    Message('note_on', channel=9, note=51, velocity=95, time=0),
    Message('note_off', channel=9, note=54, velocity=95, time=480),
    Message('note_off', channel=9, note=40, velocity=95, time=0),
    Message('note_off', channel=9, note=40, velocity=95, time=0),
    Message('note_off', channel=9, note=51, velocity=95, time=0),
    Message('note_on', channel=9, note=36, velocity=95, time=0),
    Message('note_on', channel=9, note=36, velocity=95, time=0),
    Message('note_off', channel=9, note=36, velocity=95, time=480),
    Message('note_off', channel=9, note=36, velocity=95, time=0),
    Message('note_on', channel=9, note=51, velocity=95, time=0),
    Message('note_off', channel=9, note=51, velocity=95, time=480),
    Message('note_on', channel=9, note=36, velocity=95, time=0),
    Message('note_on', channel=9, note=36, velocity=95, time=0),
    Message('note_off', channel=9, note=36, velocity=95, time=480),
    Message('note_off', channel=9, note=36, velocity=95, time=0),
    Message('note_on', channel=9, note=54, velocity=95, time=0),
    Message('note_on', channel=9, note=40, velocity=95, time=0),
    Message('note_on', channel=9, note=40, velocity=95, time=0),
    Message('note_on', channel=9, note=51, velocity=95, time=0),
    Message('note_off', channel=9, note=54, velocity=95, time=240),
    Message('note_off', channel=9, note=40, velocity=95, time=0),
    Message('note_off', channel=9, note=40, velocity=95, time=0),
    Message('note_off', channel=9, note=51, velocity=95, time=0),
    Message('note_on', channel=9, note=40, velocity=95, time=0),
    Message('note_on', channel=9, note=40, velocity=95, time=0),
    Message('note_off', channel=9, note=40, velocity=95, time=240),
    Message('note_off', channel=9, note=40, velocity=95, time=0),
    Message('note_on', channel=9, note=40, velocity=95, time=0),
    Message('note_on', channel=9, note=40, velocity=95, time=0),
    Message('note_off', channel=9, note=40, velocity=95, time=240),
    Message('note_off', channel=9, note=40, velocity=95, time=0),
    Message('note_on', channel=9, note=49, velocity=95, time=240),
    Message('note_on', channel=9, note=36, velocity=95, time=0),
    Message('note_on', channel=9, note=36, velocity=95, time=0),
    Message('note_off', channel=9, note=49, velocity=95, time=480),
    Message('note_off', channel=9, note=36, velocity=95, time=0),
    Message('note_off', channel=9, note=36, velocity=95, time=0),
    Message('note_on', channel=9, note=57, velocity=95, time=0),
    Message('note_on', channel=9, note=36, velocity=95, time=0),
    Message('note_on', channel=9, note=36, velocity=95, time=0),
    Message('note_off', channel=9, note=57, velocity=95, time=480),
    Message('note_off', channel=9, note=36, velocity=95, time=0),
    Message('note_off', channel=9, note=36, velocity=95, time=0),
    Message('note_on', channel=9, note=54, velocity=95, time=0),
    Message('note_on', channel=9, note=51, velocity=95, time=0),
    Message('note_on', channel=9, note=40, velocity=95, time=0),
    Message('note_on', channel=9, note=40, velocity=95, time=0),
    Message('note_off', channel=9, note=54, velocity=95, time=480),
    Message('note_off', channel=9, note=51, velocity=95, time=0),
    Message('note_off', channel=9, note=40, velocity=95, time=0),
    Message('note_off', channel=9, note=40, velocity=95, time=0),
    Message('note_on', channel=9, note=51, velocity=95, time=480),
    Message('note_on', channel=9, note=36, velocity=95, time=0),
    Message('note_on', channel=9, note=36, velocity=95, time=0),
    Message('note_off', channel=9, note=51, velocity=95, time=480),
    Message('note_off', channel=9, note=36, velocity=95, time=0),
    Message('note_off', channel=9, note=36, velocity=95, time=0),
    Message('note_on', channel=9, note=36, velocity=95, time=0),
    Message('note_on', channel=9, note=36, velocity=95, time=0),
    Message('note_off', channel=9, note=36, velocity=95, time=480),
    Message('note_off', channel=9, note=36, velocity=95, time=0),
    Message('note_on', channel=9, note=54, velocity=95, time=0),
    Message('note_on', channel=9, note=51, velocity=95, time=0),
    Message('note_on', channel=9, note=40, velocity=95, time=0),
    Message('note_on', channel=9, note=40, velocity=95, time=0),
    Message('note_off', channel=9, note=54, velocity=95, time=480),
    Message('note_off', channel=9, note=51, velocity=95, time=0),
    Message('note_off', channel=9, note=40, velocity=95, time=0),
    Message('note_off', channel=9, note=40, velocity=95, time=0),
    Message('note_on', channel=9, note=36, velocity=95, time=0),
    Message('note_on', channel=9, note=36, velocity=95, time=0),
    Message('note_off', channel=9, note=36, velocity=95, time=480),
    Message('note_off', channel=9, note=36, velocity=95, time=0),
    Message('note_on', channel=9, note=49, velocity=95, time=0),
    Message('note_on', channel=9, note=36, velocity=95, time=0),
    Message('note_on', channel=9, note=36, velocity=95, time=0),
    Message('note_off', channel=9, note=36, velocity=95, time=480),
    Message('note_off', channel=9, note=36, velocity=95, time=0),
    Message('note_off', channel=9, note=49, velocity=95, time=480),
    Message('note_on', channel=9, note=54, velocity=95, time=0),
    Message('note_on', channel=9, note=51, velocity=95, time=0),
    Message('note_on', channel=9, note=40, velocity=95, time=0),
    Message('note_on', channel=9, note=40, velocity=95, time=0),
    Message('note_off', channel=9, note=54, velocity=95, time=480),
    Message('note_off', channel=9, note=40, velocity=95, time=0),
    Message('note_off', channel=9, note=40, velocity=95, time=0),
    Message('note_on', channel=9, note=36, velocity=95, time=0),
    Message('note_on', channel=9, note=36, velocity=95, time=0),
    Message('note_off', channel=9, note=51, velocity=95, time=480),
    Message('note_off', channel=9, note=36, velocity=95, time=0),
    Message('note_off', channel=9, note=36, velocity=95, time=0),
    Message('note_on', channel=9, note=51, velocity=95, time=0),
    Message('note_on', channel=9, note=36, velocity=95, time=480),
    Message('note_on', channel=9, note=36, velocity=95, time=0),
    Message('note_off', channel=9, note=51, velocity=95, time=480),
    Message('note_off', channel=9, note=36, velocity=95, time=0),
    Message('note_off', channel=9, note=36, velocity=95, time=0),
    Message('note_on', channel=9, note=54, velocity=95, time=0),
    Message('note_on', channel=9, note=51, velocity=95, time=0),
    Message('note_on', channel=9, note=40, velocity=95, time=0),
    Message('note_on', channel=9, note=40, velocity=95, time=0),
    Message('note_off', channel=9, note=54, velocity=95, time=480),
    Message('note_off', channel=9, note=40, velocity=95, time=0),
    Message('note_off', channel=9, note=40, velocity=95, time=0),
    Message('note_off', channel=9, note=51, velocity=95, time=480),
    Message('note_on', channel=9, note=36, velocity=95, time=0),
    Message('note_on', channel=9, note=36, velocity=95, time=0),
    Message('note_on', channel=9, note=49, velocity=95, time=0),
    Message('note_off', channel=9, note=36, velocity=95, time=960),
    Message('note_off', channel=9, note=36, velocity=95, time=0),
    Message('note_off', channel=9, note=49, velocity=95, time=0),
    Message('note_on', channel=9, note=54, velocity=95, time=0),
    Message('note_on', channel=9, note=40, velocity=95, time=0),
    Message('note_on', channel=9, note=40, velocity=95, time=0),
    Message('note_on', channel=9, note=51, velocity=95, time=0),
    Message('note_off', channel=9, note=54, velocity=95, time=480),
    Message('note_off', channel=9, note=40, velocity=95, time=0),
    Message('note_off', channel=9, note=40, velocity=95, time=0),
    Message('note_off', channel=9, note=51, velocity=95, time=0),
    Message('note_on', channel=9, note=36, velocity=95, time=0),
    Message('note_on', channel=9, note=36, velocity=95, time=0),
    Message('note_off', channel=9, note=36, velocity=95, time=480),
    Message('note_off', channel=9, note=36, velocity=95, time=0),
    Message('note_on', channel=9, note=51, velocity=95, time=0),
    Message('note_off', channel=9, note=51, velocity=95, time=480),
    Message('note_on', channel=9, note=36, velocity=95, time=0),
    Message('note_on', channel=9, note=36, velocity=95, time=0),
    Message('note_off', channel=9, note=36, velocity=95, time=480),
    Message('note_off', channel=9, note=36, velocity=95, time=0),
    Message('note_on', channel=9, note=54, velocity=95, time=0),
    Message('note_on', channel=9, note=40, velocity=95, time=0),
    Message('note_on', channel=9, note=40, velocity=95, time=0),
    Message('note_on', channel=9, note=51, velocity=95, time=0),
    Message('note_off', channel=9, note=54, velocity=95, time=480),
    Message('note_off', channel=9, note=40, velocity=95, time=0),
    Message('note_off', channel=9, note=40, velocity=95, time=0),
    Message('note_off', channel=9, note=51, velocity=95, time=0),
    Message('note_on', channel=9, note=36, velocity=95, time=0),
    Message('note_on', channel=9, note=36, velocity=95, time=0),
    Message('note_off', channel=9, note=36, velocity=95, time=480),
    Message('note_off', channel=9, note=36, velocity=95, time=0),
    Message('note_on', channel=9, note=57, velocity=95, time=0),
    Message('note_on', channel=9, note=36, velocity=95, time=0),
    Message('note_on', channel=9, note=36, velocity=95, time=0),
    Message('note_on', channel=9, note=49, velocity=95, time=0),
    Message('note_off', channel=9, note=57, velocity=95, time=960),
    Message('note_off', channel=9, note=36, velocity=95, time=0),
    Message('note_off', channel=9, note=36, velocity=95, time=0),
    Message('note_off', channel=9, note=49, velocity=95, time=0),
    Message('note_on', channel=9, note=54, velocity=95, time=0),
    Message('note_on', channel=9, note=40, velocity=95, time=0),
    Message('note_on', channel=9, note=40, velocity=95, time=0),
    Message('note_on', channel=9, note=51, velocity=95, time=0),
    Message('note_off', channel=9, note=54, velocity=95, time=480),
    Message('note_off', channel=9, note=40, velocity=95, time=0),
    Message('note_off', channel=9, note=40, velocity=95, time=0),
    Message('note_off', channel=9, note=51, velocity=95, time=0),
    Message('note_on', channel=9, note=36, velocity=95, time=0),
    Message('note_on', channel=9, note=36, velocity=95, time=0),
    Message('note_off', channel=9, note=36, velocity=95, time=480),
    Message('note_off', channel=9, note=36, velocity=95, time=0),
    Message('note_on', channel=9, note=51, velocity=95, time=0),
    Message('note_off', channel=9, note=51, velocity=95, time=480),
    Message('note_on', channel=9, note=36, velocity=95, time=0),
    Message('note_on', channel=9, note=36, velocity=95, time=0),
    Message('note_off', channel=9, note=36, velocity=95, time=480),
    Message('note_off', channel=9, note=36, velocity=95, time=0),
    Message('note_on', channel=9, note=54, velocity=95, time=0),
    Message('note_on', channel=9, note=40, velocity=95, time=0),
    Message('note_on', channel=9, note=40, velocity=95, time=0),
    Message('note_on', channel=9, note=51, velocity=95, time=0),
    Message('note_off', channel=9, note=54, velocity=95, time=240),
    Message('note_off', channel=9, note=40, velocity=95, time=0),
    Message('note_off', channel=9, note=40, velocity=95, time=0),
    Message('note_off', channel=9, note=51, velocity=95, time=0),
    Message('note_on', channel=9, note=40, velocity=95, time=0),
    Message('note_on', channel=9, note=40, velocity=95, time=0),
    Message('note_off', channel=9, note=40, velocity=95, time=240),
    Message('note_off', channel=9, note=40, velocity=95, time=0),
    Message('note_on', channel=9, note=40, velocity=95, time=0),
    Message('note_on', channel=9, note=40, velocity=95, time=0),
    Message('note_off', channel=9, note=40, velocity=95, time=240),
    Message('note_off', channel=9, note=40, velocity=95, time=0),
    Message('note_on', channel=9, note=57, velocity=95, time=240),
    Message('note_on', channel=9, note=36, velocity=95, time=0),
    Message('note_on', channel=9, note=36, velocity=95, time=0),
    Message('note_on', channel=9, note=49, velocity=95, time=0),
    Message('note_off', channel=9, note=57, velocity=95, time=960),
    Message('note_off', channel=9, note=36, velocity=95, time=0),
    Message('note_off', channel=9, note=36, velocity=95, time=0),
    Message('note_off', channel=9, note=49, velocity=95, time=0),
    Message('note_on', channel=9, note=54, velocity=95, time=0),
    Message('note_on', channel=9, note=40, velocity=95, time=0),
    Message('note_on', channel=9, note=40, velocity=95, time=0),
    Message('note_on', channel=9, note=46, velocity=95, time=0),
    Message('note_off', channel=9, note=54, velocity=95, time=480),
    Message('note_off', channel=9, note=40, velocity=95, time=0),
    Message('note_off', channel=9, note=40, velocity=95, time=0),
    Message('note_off', channel=9, note=46, velocity=95, time=0),
    Message('note_on', channel=9, note=49, velocity=95, time=0),
    Message('note_on', channel=9, note=36, velocity=95, time=0),
    Message('note_on', channel=9, note=36, velocity=95, time=0),
    Message('note_off', channel=9, note=49, velocity=95, time=480),
    Message('note_off', channel=9, note=36, velocity=95, time=0),
    Message('note_off', channel=9, note=36, velocity=95, time=0),
    Message('note_on', channel=9, note=46, velocity=95, time=0),
    Message('note_off', channel=9, note=46, velocity=95, time=480),
    Message('note_on', channel=9, note=36, velocity=95, time=0),
    Message('note_on', channel=9, note=36, velocity=95, time=0),
    Message('note_off', channel=9, note=36, velocity=95, time=480),
    Message('note_off', channel=9, note=36, velocity=95, time=0),
    Message('note_on', channel=9, note=54, velocity=95, time=0),
    Message('note_on', channel=9, note=40, velocity=95, time=0),
    Message('note_on', channel=9, note=40, velocity=95, time=0),
    Message('note_on', channel=9, note=46, velocity=95, time=0),
    Message('note_off', channel=9, note=54, velocity=95, time=240),
    Message('note_off', channel=9, note=40, velocity=95, time=0),
    Message('note_off', channel=9, note=40, velocity=95, time=0),
    Message('note_off', channel=9, note=46, velocity=95, time=0),
    Message('note_on', channel=9, note=36, velocity=95, time=240),
    Message('note_on', channel=9, note=36, velocity=95, time=0),
    Message('note_off', channel=9, note=36, velocity=95, time=240),
    Message('note_off', channel=9, note=36, velocity=95, time=0),
    Message('note_on', channel=9, note=49, velocity=95, time=240),
    Message('note_on', channel=9, note=36, velocity=95, time=0),
    Message('note_on', channel=9, note=36, velocity=95, time=0),
    Message('note_on', channel=9, note=57, velocity=95, time=0),
    Message('note_off', channel=9, note=49, velocity=95, time=480),
    Message('note_off', channel=9, note=36, velocity=95, time=0),
    Message('note_off', channel=9, note=36, velocity=95, time=0),
    Message('note_off', channel=9, note=57, velocity=95, time=0),
    Message('note_on', channel=9, note=36, velocity=95, time=240),
    Message('note_on', channel=9, note=36, velocity=95, time=0),
    Message('note_off', channel=9, note=36, velocity=95, time=240),
    Message('note_off', channel=9, note=36, velocity=95, time=0),
    Message('note_on', channel=9, note=40, velocity=95, time=0),
    Message('note_on', channel=9, note=40, velocity=95, time=0),
    Message('note_on', channel=9, note=46, velocity=95, time=0),
    Message('note_off', channel=9, note=40, velocity=95, time=480),
    Message('note_off', channel=9, note=40, velocity=95, time=0),
    Message('note_off', channel=9, note=46, velocity=95, time=0),
    Message('note_on', channel=9, note=49, velocity=95, time=0),
    Message('note_on', channel=9, note=36, velocity=95, time=0),
    Message('note_on', channel=9, note=36, velocity=95, time=0),
    Message('note_off', channel=9, note=49, velocity=95, time=480),
    Message('note_off', channel=9, note=36, velocity=95, time=0),
    Message('note_off', channel=9, note=36, velocity=95, time=0),
    Message('note_on', channel=9, note=46, velocity=95, time=0),
    Message('note_off', channel=9, note=46, velocity=95, time=480),
    Message('note_on', channel=9, note=36, velocity=95, time=0),
    Message('note_on', channel=9, note=36, velocity=95, time=0),
    Message('note_off', channel=9, note=36, velocity=95, time=480),
    Message('note_off', channel=9, note=36, velocity=95, time=0),
    Message('note_on', channel=9, note=40, velocity=95, time=0),
    Message('note_on', channel=9, note=40, velocity=95, time=0),
    Message('note_on', channel=9, note=46, velocity=95, time=0),
    Message('note_off', channel=9, note=40, velocity=95, time=240),
    Message('note_off', channel=9, note=40, velocity=95, time=0),
    Message('note_off', channel=9, note=46, velocity=95, time=0),
    Message('note_on', channel=9, note=40, velocity=95, time=0),
    Message('note_on', channel=9, note=40, velocity=95, time=0),
    Message('note_off', channel=9, note=40, velocity=95, time=240),
    Message('note_off', channel=9, note=40, velocity=95, time=0),
    Message('note_on', channel=9, note=40, velocity=95, time=0),
    Message('note_on', channel=9, note=40, velocity=95, time=0),
    Message('note_off', channel=9, note=40, velocity=95, time=240),
    Message('note_off', channel=9, note=40, velocity=95, time=0),
    Message('note_on', channel=9, note=57, velocity=95, time=240),
    Message('note_on', channel=9, note=36, velocity=95, time=0),
    Message('note_on', channel=9, note=36, velocity=95, time=0),
    Message('note_on', channel=9, note=49, velocity=95, time=0),
    Message('note_off', channel=9, note=57, velocity=95, time=480),
    Message('note_off', channel=9, note=36, velocity=95, time=0),
    Message('note_off', channel=9, note=36, velocity=95, time=0),
    Message('note_off', channel=9, note=49, velocity=95, time=0),
    Message('note_on', channel=9, note=40, velocity=95, time=0),
    Message('note_on', channel=9, note=40, velocity=95, time=0),
    Message('note_off', channel=9, note=40, velocity=95, time=240),
    Message('note_off', channel=9, note=40, velocity=95, time=0),
    Message('note_on', channel=9, note=54, velocity=95, time=240),
    Message('note_on', channel=9, note=40, velocity=95, time=0),
    Message('note_on', channel=9, note=40, velocity=95, time=0),
    Message('note_off', channel=9, note=54, velocity=95, time=240),
    Message('note_off', channel=9, note=40, velocity=95, time=0),
    Message('note_off', channel=9, note=40, velocity=95, time=0),
    Message('note_on', channel=9, note=40, velocity=95, time=0),
    Message('note_on', channel=9, note=40, velocity=95, time=0),
    Message('note_off', channel=9, note=40, velocity=95, time=240),
    Message('note_off', channel=9, note=40, velocity=95, time=0),
    Message('note_on', channel=9, note=49, velocity=95, time=0),
    Message('note_on', channel=9, note=36, velocity=95, time=0),
    Message('note_on', channel=9, note=36, velocity=95, time=0),
    Message('note_off', channel=9, note=49, velocity=95, time=480),
    Message('note_off', channel=9, note=36, velocity=95, time=0),
    Message('note_off', channel=9, note=36, velocity=95, time=0),
    Message('note_on', channel=9, note=46, velocity=95, time=0),
    Message('note_off', channel=9, note=46, velocity=95, time=480),
    Message('note_on', channel=9, note=36, velocity=95, time=0),
    Message('note_on', channel=9, note=36, velocity=95, time=0),
    Message('note_off', channel=9, note=36, velocity=95, time=480),
    Message('note_off', channel=9, note=36, velocity=95, time=0),
    Message('note_on', channel=9, note=54, velocity=95, time=0),
    Message('note_on', channel=9, note=40, velocity=95, time=0),
    Message('note_on', channel=9, note=40, velocity=95, time=0),
    Message('note_on', channel=9, note=46, velocity=95, time=0),
    Message('note_off', channel=9, note=54, velocity=95, time=480),
    Message('note_off', channel=9, note=40, velocity=95, time=0),
    Message('note_off', channel=9, note=40, velocity=95, time=0),
    Message('note_off', channel=9, note=46, velocity=95, time=0),
    Message('note_on', channel=9, note=36, velocity=95, time=0),
    Message('note_on', channel=9, note=36, velocity=95, time=0),
    Message('note_off', channel=9, note=36, velocity=95, time=480),
    Message('note_off', channel=9, note=36, velocity=95, time=0),
    Message('note_on', channel=9, note=49, velocity=95, time=0),
    Message('note_on', channel=9, note=36, velocity=95, time=0),
    Message('note_on', channel=9, note=36, velocity=95, time=0),
    Message('note_on', channel=9, note=57, velocity=95, time=0),
    Message('note_off', channel=9, note=49, velocity=95, time=480),
    Message('note_off', channel=9, note=36, velocity=95, time=0),
    Message('note_off', channel=9, note=36, velocity=95, time=0),
    Message('note_off', channel=9, note=57, velocity=95, time=0),
    Message('note_on', channel=9, note=36, velocity=95, time=240),
    Message('note_on', channel=9, note=36, velocity=95, time=0),
    Message('note_off', channel=9, note=36, velocity=95, time=240),
    Message('note_off', channel=9, note=36, velocity=95, time=0),
    Message('note_on', channel=9, note=40, velocity=95, time=0),
    Message('note_on', channel=9, note=40, velocity=95, time=0),
    Message('note_on', channel=9, note=46, velocity=95, time=0),
    Message('note_off', channel=9, note=40, velocity=95, time=480),
    Message('note_off', channel=9, note=40, velocity=95, time=0),
    Message('note_off', channel=9, note=46, velocity=95, time=0),
    Message('note_on', channel=9, note=49, velocity=95, time=0),
    Message('note_on', channel=9, note=36, velocity=95, time=0),
    Message('note_on', channel=9, note=36, velocity=95, time=0),
    Message('note_off', channel=9, note=49, velocity=95, time=480),
    Message('note_off', channel=9, note=36, velocity=95, time=0),
    Message('note_off', channel=9, note=36, velocity=95, time=0),
    Message('note_on', channel=9, note=46, velocity=95, time=0),
    Message('note_off', channel=9, note=46, velocity=95, time=480),
    Message('note_on', channel=9, note=36, velocity=95, time=0),
    Message('note_on', channel=9, note=36, velocity=95, time=0),
    Message('note_off', channel=9, note=36, velocity=95, time=480),
    Message('note_off', channel=9, note=36, velocity=95, time=0),
    Message('note_on', channel=9, note=40, velocity=95, time=0),
    Message('note_on', channel=9, note=40, velocity=95, time=0),
    Message('note_on', channel=9, note=46, velocity=95, time=0),
    Message('note_off', channel=9, note=40, velocity=95, time=240),
    Message('note_off', channel=9, note=40, velocity=95, time=0),
    Message('note_off', channel=9, note=46, velocity=95, time=0),
    Message('note_on', channel=9, note=40, velocity=95, time=0),
    Message('note_on', channel=9, note=40, velocity=95, time=0),
    Message('note_off', channel=9, note=40, velocity=95, time=240),
    Message('note_off', channel=9, note=40, velocity=95, time=0),
    Message('note_on', channel=9, note=40, velocity=95, time=0),
    Message('note_on', channel=9, note=40, velocity=95, time=0),
    Message('note_off', channel=9, note=40, velocity=95, time=240),
    Message('note_off', channel=9, note=40, velocity=95, time=0),
    Message('note_on', channel=9, note=57, velocity=95, time=240),
    Message('note_on', channel=9, note=36, velocity=95, time=0),
    Message('note_on', channel=9, note=36, velocity=95, time=0),
    Message('note_on', channel=9, note=49, velocity=95, time=0),
    Message('note_off', channel=9, note=57, velocity=95, time=960),
    Message('note_off', channel=9, note=36, velocity=95, time=0),
    Message('note_off', channel=9, note=36, velocity=95, time=0),
    Message('note_off', channel=9, note=49, velocity=95, time=0),
    Message('note_on', channel=9, note=54, velocity=95, time=0),
    Message('note_on', channel=9, note=40, velocity=95, time=0),
    Message('note_on', channel=9, note=40, velocity=95, time=0),
    Message('note_on', channel=9, note=46, velocity=95, time=0),
    Message('note_off', channel=9, note=54, velocity=95, time=480),
    Message('note_off', channel=9, note=40, velocity=95, time=0),
    Message('note_off', channel=9, note=40, velocity=95, time=0),
    Message('note_off', channel=9, note=46, velocity=95, time=0),
    Message('note_on', channel=9, note=49, velocity=95, time=0),
    Message('note_on', channel=9, note=36, velocity=95, time=0),
    Message('note_on', channel=9, note=36, velocity=95, time=0),
    Message('note_off', channel=9, note=49, velocity=95, time=480),
    Message('note_off', channel=9, note=36, velocity=95, time=0),
    Message('note_off', channel=9, note=36, velocity=95, time=0),
    Message('note_on', channel=9, note=46, velocity=95, time=0),
    Message('note_off', channel=9, note=46, velocity=95, time=480),
    Message('note_on', channel=9, note=36, velocity=95, time=0),
    Message('note_on', channel=9, note=36, velocity=95, time=0),
    Message('note_off', channel=9, note=36, velocity=95, time=480),
    Message('note_off', channel=9, note=36, velocity=95, time=0),
    Message('note_on', channel=9, note=54, velocity=95, time=0),
    Message('note_on', channel=9, note=40, velocity=95, time=0),
    Message('note_on', channel=9, note=40, velocity=95, time=0),
    Message('note_on', channel=9, note=46, velocity=95, time=0),
    Message('note_off', channel=9, note=54, velocity=95, time=240),
    Message('note_off', channel=9, note=40, velocity=95, time=0),
    Message('note_off', channel=9, note=40, velocity=95, time=0),
    Message('note_off', channel=9, note=46, velocity=95, time=0),
    Message('note_on', channel=9, note=36, velocity=95, time=240),
    Message('note_on', channel=9, note=36, velocity=95, time=0),
    Message('note_off', channel=9, note=36, velocity=95, time=240),
    Message('note_off', channel=9, note=36, velocity=95, time=0),
    Message('note_on', channel=9, note=49, velocity=95, time=240),
    Message('note_on', channel=9, note=36, velocity=95, time=0),
    Message('note_on', channel=9, note=36, velocity=95, time=0),
    Message('note_on', channel=9, note=57, velocity=95, time=0),
    Message('note_off', channel=9, note=49, velocity=95, time=480),
    Message('note_off', channel=9, note=36, velocity=95, time=0),
    Message('note_off', channel=9, note=36, velocity=95, time=0),
    Message('note_off', channel=9, note=57, velocity=95, time=0),
    Message('note_on', channel=9, note=36, velocity=95, time=240),
    Message('note_on', channel=9, note=36, velocity=95, time=0),
    Message('note_off', channel=9, note=36, velocity=95, time=240),
    Message('note_off', channel=9, note=36, velocity=95, time=0),
    Message('note_on', channel=9, note=40, velocity=95, time=0),
    Message('note_on', channel=9, note=40, velocity=95, time=0),
    Message('note_on', channel=9, note=46, velocity=95, time=0),
    Message('note_off', channel=9, note=40, velocity=95, time=480),
    Message('note_off', channel=9, note=40, velocity=95, time=0),
    Message('note_off', channel=9, note=46, velocity=95, time=0),
    Message('note_on', channel=9, note=49, velocity=95, time=0),
    Message('note_on', channel=9, note=36, velocity=95, time=0),
    Message('note_on', channel=9, note=36, velocity=95, time=0),
    Message('note_off', channel=9, note=49, velocity=95, time=480),
    Message('note_off', channel=9, note=36, velocity=95, time=0),
    Message('note_off', channel=9, note=36, velocity=95, time=0),
    Message('note_on', channel=9, note=46, velocity=95, time=0),
    Message('note_off', channel=9, note=46, velocity=95, time=480),
    Message('note_on', channel=9, note=36, velocity=95, time=0),
    Message('note_on', channel=9, note=36, velocity=95, time=0),
    Message('note_off', channel=9, note=36, velocity=95, time=480),
    Message('note_off', channel=9, note=36, velocity=95, time=0),
    Message('note_on', channel=9, note=40, velocity=95, time=0),
    Message('note_on', channel=9, note=40, velocity=95, time=0),
    Message('note_on', channel=9, note=46, velocity=95, time=0),
    Message('note_off', channel=9, note=40, velocity=95, time=240),
    Message('note_off', channel=9, note=40, velocity=95, time=0),
    Message('note_off', channel=9, note=46, velocity=95, time=0),
    Message('note_on', channel=9, note=40, velocity=95, time=0),
    Message('note_on', channel=9, note=40, velocity=95, time=0),
    Message('note_off', channel=9, note=40, velocity=95, time=240),
    Message('note_off', channel=9, note=40, velocity=95, time=0),
    Message('note_on', channel=9, note=40, velocity=95, time=0),
    Message('note_on', channel=9, note=40, velocity=95, time=0),
    Message('note_off', channel=9, note=40, velocity=95, time=240),
    Message('note_off', channel=9, note=40, velocity=95, time=0),
    Message('note_on', channel=9, note=57, velocity=95, time=240),
    Message('note_on', channel=9, note=36, velocity=95, time=0),
    Message('note_on', channel=9, note=36, velocity=95, time=0),
    Message('note_on', channel=9, note=49, velocity=95, time=0),
    Message('note_off', channel=9, note=57, velocity=95, time=480),
    Message('note_off', channel=9, note=36, velocity=95, time=0),
    Message('note_off', channel=9, note=36, velocity=95, time=0),
    Message('note_off', channel=9, note=49, velocity=95, time=0),
    Message('note_on', channel=9, note=40, velocity=95, time=240),
    Message('note_on', channel=9, note=40, velocity=95, time=0),
    Message('note_off', channel=9, note=40, velocity=95, time=240),
    Message('note_off', channel=9, note=40, velocity=95, time=0),
    Message('note_on', channel=9, note=54, velocity=95, time=0),
    Message('note_on', channel=9, note=40, velocity=95, time=0),
    Message('note_on', channel=9, note=40, velocity=95, time=0),
    Message('note_off', channel=9, note=54, velocity=95, time=240),
    Message('note_off', channel=9, note=40, velocity=95, time=0),
    Message('note_off', channel=9, note=40, velocity=95, time=0),
    Message('note_on', channel=9, note=40, velocity=95, time=0),
    Message('note_on', channel=9, note=40, velocity=95, time=0),
    Message('note_off', channel=9, note=40, velocity=95, time=240),
    Message('note_off', channel=9, note=40, velocity=95, time=0),
    Message('note_on', channel=9, note=49, velocity=95, time=0),
    Message('note_on', channel=9, note=36, velocity=95, time=0),
    Message('note_on', channel=9, note=36, velocity=95, time=0),
    Message('note_off', channel=9, note=49, velocity=95, time=480),
    Message('note_off', channel=9, note=36, velocity=95, time=0),
    Message('note_off', channel=9, note=36, velocity=95, time=0),
    Message('note_on', channel=9, note=46, velocity=95, time=0),
    Message('note_off', channel=9, note=46, velocity=95, time=480),
    Message('note_on', channel=9, note=36, velocity=95, time=0),
    Message('note_on', channel=9, note=36, velocity=95, time=0),
    Message('note_off', channel=9, note=36, velocity=95, time=480),
    Message('note_off', channel=9, note=36, velocity=95, time=0),
    Message('note_on', channel=9, note=54, velocity=95, time=0),
    Message('note_on', channel=9, note=40, velocity=95, time=0),
    Message('note_on', channel=9, note=40, velocity=95, time=0),
    Message('note_on', channel=9, note=46, velocity=95, time=0),
    Message('note_off', channel=9, note=54, velocity=95, time=480),
    Message('note_off', channel=9, note=40, velocity=95, time=0),
    Message('note_off', channel=9, note=40, velocity=95, time=0),
    Message('note_off', channel=9, note=46, velocity=95, time=0),
    Message('note_on', channel=9, note=36, velocity=95, time=0),
    Message('note_on', channel=9, note=36, velocity=95, time=0),
    Message('note_off', channel=9, note=36, velocity=95, time=480),
    Message('note_off', channel=9, note=36, velocity=95, time=0),
    Message('note_on', channel=9, note=49, velocity=95, time=0),
    Message('note_on', channel=9, note=36, velocity=95, time=0),
    Message('note_on', channel=9, note=36, velocity=95, time=0),
    Message('note_on', channel=9, note=57, velocity=95, time=0),
    Message('note_off', channel=9, note=49, velocity=95, time=480),
    Message('note_off', channel=9, note=36, velocity=95, time=0),
    Message('note_off', channel=9, note=36, velocity=95, time=0),
    Message('note_off', channel=9, note=57, velocity=95, time=0),
    Message('note_on', channel=9, note=40, velocity=95, time=0),
    Message('note_on', channel=9, note=45, velocity=95, time=0),
    Message('note_on', channel=9, note=45, velocity=95, time=0),
    Message('note_off', channel=9, note=40, velocity=95, time=240),
    Message('note_off', channel=9, note=45, velocity=95, time=0),
    Message('note_off', channel=9, note=45, velocity=95, time=0),
    Message('note_on', channel=9, note=40, velocity=95, time=240),
    Message('note_on', channel=9, note=45, velocity=95, time=0),
    Message('note_on', channel=9, note=45, velocity=95, time=0),
    Message('note_off', channel=9, note=40, velocity=95, time=480),
    Message('note_off', channel=9, note=45, velocity=95, time=0),
    Message('note_off', channel=9, note=45, velocity=95, time=0),
    Message('note_on', channel=9, note=40, velocity=95, time=0),
    Message('note_on', channel=9, note=45, velocity=95, time=0),
    Message('note_on', channel=9, note=45, velocity=95, time=0),
    Message('note_off', channel=9, note=40, velocity=95, time=480),
    Message('note_off', channel=9, note=45, velocity=95, time=0),
    Message('note_off', channel=9, note=45, velocity=95, time=0),
    Message('note_on', channel=9, note=40, velocity=95, time=0),
    Message('note_on', channel=9, note=45, velocity=95, time=0),
    Message('note_on', channel=9, note=45, velocity=95, time=0),
    Message('note_off', channel=9, note=40, velocity=95, time=480),
    Message('note_off', channel=9, note=45, velocity=95, time=0),
    Message('note_off', channel=9, note=45, velocity=95, time=0),
    Message('note_on', channel=9, note=40, velocity=95, time=0),
    Message('note_on', channel=9, note=45, velocity=95, time=0),
    Message('note_on', channel=9, note=45, velocity=95, time=0),
    Message('note_off', channel=9, note=40, velocity=95, time=480),
    Message('note_off', channel=9, note=45, velocity=95, time=0),
    Message('note_off', channel=9, note=45, velocity=95, time=0),
    Message('note_on', channel=9, note=40, velocity=95, time=0),
    Message('note_on', channel=9, note=40, velocity=95, time=0),
    Message('note_off', channel=9, note=40, velocity=95, time=240),
    Message('note_off', channel=9, note=40, velocity=95, time=0),
    Message('note_on', channel=9, note=40, velocity=95, time=0),
    Message('note_on', channel=9, note=40, velocity=95, time=0),
    Message('note_off', channel=9, note=40, velocity=95, time=240),
    Message('note_off', channel=9, note=40, velocity=95, time=0),
    Message('note_on', channel=9, note=40, velocity=95, time=0),
    Message('note_on', channel=9, note=40, velocity=95, time=0),
    Message('note_off', channel=9, note=40, velocity=95, time=240),
    Message('note_off', channel=9, note=40, velocity=95, time=0),
    Message('note_on', channel=9, note=49, velocity=95, time=240),
    Message('note_on', channel=9, note=36, velocity=95, time=0),
    Message('note_on', channel=9, note=36, velocity=95, time=0),
    Message('note_off', channel=9, note=49, velocity=95, time=480),
    Message('note_off', channel=9, note=36, velocity=95, time=0),
    Message('note_off', channel=9, note=36, velocity=95, time=0),
    Message('note_on', channel=9, note=57, velocity=95, time=0),
    Message('note_on', channel=9, note=36, velocity=95, time=0),
    Message('note_on', channel=9, note=36, velocity=95, time=0),
    Message('note_off', channel=9, note=57, velocity=95, time=480),
    Message('note_off', channel=9, note=36, velocity=95, time=0),
    Message('note_off', channel=9, note=36, velocity=95, time=0),
    Message('note_on', channel=9, note=54, velocity=95, time=0),
    Message('note_on', channel=9, note=51, velocity=95, time=0),
    Message('note_on', channel=9, note=40, velocity=95, time=0),
    Message('note_on', channel=9, note=40, velocity=95, time=0),
    Message('note_off', channel=9, note=54, velocity=95, time=480),
    Message('note_off', channel=9, note=51, velocity=95, time=0),
    Message('note_off', channel=9, note=40, velocity=95, time=0),
    Message('note_off', channel=9, note=40, velocity=95, time=0),
    Message('note_on', channel=9, note=51, velocity=95, time=480),
    Message('note_on', channel=9, note=36, velocity=95, time=0),
    Message('note_on', channel=9, note=36, velocity=95, time=0),
    Message('note_off', channel=9, note=51, velocity=95, time=480),
    Message('note_off', channel=9, note=36, velocity=95, time=0),
    Message('note_off', channel=9, note=36, velocity=95, time=0),
    Message('note_on', channel=9, note=36, velocity=95, time=0),
    Message('note_on', channel=9, note=36, velocity=95, time=0),
    Message('note_off', channel=9, note=36, velocity=95, time=480),
    Message('note_off', channel=9, note=36, velocity=95, time=0),
    Message('note_on', channel=9, note=54, velocity=95, time=0),
    Message('note_on', channel=9, note=51, velocity=95, time=0),
    Message('note_on', channel=9, note=40, velocity=95, time=0),
    Message('note_on', channel=9, note=40, velocity=95, time=0),
    Message('note_off', channel=9, note=54, velocity=95, time=480),
    Message('note_off', channel=9, note=51, velocity=95, time=0),
    Message('note_off', channel=9, note=40, velocity=95, time=0),
    Message('note_off', channel=9, note=40, velocity=95, time=0),
    Message('note_on', channel=9, note=36, velocity=95, time=0),
    Message('note_on', channel=9, note=36, velocity=95, time=0),
    Message('note_off', channel=9, note=36, velocity=95, time=480),
    Message('note_off', channel=9, note=36, velocity=95, time=0),
    Message('note_on', channel=9, note=49, velocity=95, time=0),
    Message('note_on', channel=9, note=36, velocity=95, time=0),
    Message('note_on', channel=9, note=36, velocity=95, time=0),
    Message('note_off', channel=9, note=36, velocity=95, time=480),
    Message('note_off', channel=9, note=36, velocity=95, time=0),
    Message('note_off', channel=9, note=49, velocity=95, time=480),
    Message('note_on', channel=9, note=54, velocity=95, time=0),
    Message('note_on', channel=9, note=51, velocity=95, time=0),
    Message('note_on', channel=9, note=40, velocity=95, time=0),
    Message('note_on', channel=9, note=40, velocity=95, time=0),
    Message('note_off', channel=9, note=54, velocity=95, time=480),
    Message('note_off', channel=9, note=40, velocity=95, time=0),
    Message('note_off', channel=9, note=40, velocity=95, time=0),
    Message('note_on', channel=9, note=36, velocity=95, time=0),
    Message('note_on', channel=9, note=36, velocity=95, time=0),
    Message('note_off', channel=9, note=51, velocity=95, time=480),
    Message('note_off', channel=9, note=36, velocity=95, time=0),
    Message('note_off', channel=9, note=36, velocity=95, time=0),
    Message('note_on', channel=9, note=51, velocity=95, time=0),
    Message('note_on', channel=9, note=36, velocity=95, time=480),
    Message('note_on', channel=9, note=36, velocity=95, time=0),
    Message('note_off', channel=9, note=51, velocity=95, time=480),
    Message('note_off', channel=9, note=36, velocity=95, time=0),
    Message('note_off', channel=9, note=36, velocity=95, time=0),
    Message('note_on', channel=9, note=54, velocity=95, time=0),
    Message('note_on', channel=9, note=51, velocity=95, time=0),
    Message('note_on', channel=9, note=40, velocity=95, time=0),
    Message('note_on', channel=9, note=40, velocity=95, time=0),
    Message('note_off', channel=9, note=54, velocity=95, time=480),
    Message('note_off', channel=9, note=40, velocity=95, time=0),
    Message('note_off', channel=9, note=40, velocity=95, time=0),
    Message('note_off', channel=9, note=51, velocity=95, time=480),
    Message('note_on', channel=9, note=36, velocity=95, time=0),
    Message('note_on', channel=9, note=36, velocity=95, time=0),
    Message('note_on', channel=9, note=49, velocity=95, time=0),
    Message('note_off', channel=9, note=36, velocity=95, time=960),
    Message('note_off', channel=9, note=36, velocity=95, time=0),
    Message('note_off', channel=9, note=49, velocity=95, time=0),
    Message('note_on', channel=9, note=54, velocity=95, time=0),
    Message('note_on', channel=9, note=40, velocity=95, time=0),
    Message('note_on', channel=9, note=40, velocity=95, time=0),
    Message('note_on', channel=9, note=51, velocity=95, time=0),
    Message('note_off', channel=9, note=54, velocity=95, time=480),
    Message('note_off', channel=9, note=40, velocity=95, time=0),
    Message('note_off', channel=9, note=40, velocity=95, time=0),
    Message('note_off', channel=9, note=51, velocity=95, time=0),
    Message('note_on', channel=9, note=36, velocity=95, time=0),
    Message('note_on', channel=9, note=36, velocity=95, time=0),
    Message('note_off', channel=9, note=36, velocity=95, time=480),
    Message('note_off', channel=9, note=36, velocity=95, time=0),
    Message('note_on', channel=9, note=51, velocity=95, time=0),
    Message('note_off', channel=9, note=51, velocity=95, time=480),
    Message('note_on', channel=9, note=36, velocity=95, time=0),
    Message('note_on', channel=9, note=36, velocity=95, time=0),
    Message('note_off', channel=9, note=36, velocity=95, time=480),
    Message('note_off', channel=9, note=36, velocity=95, time=0),
    Message('note_on', channel=9, note=54, velocity=95, time=0),
    Message('note_on', channel=9, note=40, velocity=95, time=0),
    Message('note_on', channel=9, note=40, velocity=95, time=0),
    Message('note_on', channel=9, note=51, velocity=95, time=0),
    Message('note_off', channel=9, note=54, velocity=95, time=480),
    Message('note_off', channel=9, note=40, velocity=95, time=0),
    Message('note_off', channel=9, note=40, velocity=95, time=0),
    Message('note_off', channel=9, note=51, velocity=95, time=0),
    Message('note_on', channel=9, note=36, velocity=95, time=0),
    Message('note_on', channel=9, note=36, velocity=95, time=0),
    Message('note_off', channel=9, note=36, velocity=95, time=480),
    Message('note_off', channel=9, note=36, velocity=95, time=0),
    Message('note_on', channel=9, note=57, velocity=95, time=0),
    Message('note_on', channel=9, note=36, velocity=95, time=0),
    Message('note_on', channel=9, note=36, velocity=95, time=0),
    Message('note_on', channel=9, note=49, velocity=95, time=0),
    Message('note_off', channel=9, note=57, velocity=95, time=960),
    Message('note_off', channel=9, note=36, velocity=95, time=0),
    Message('note_off', channel=9, note=36, velocity=95, time=0),
    Message('note_off', channel=9, note=49, velocity=95, time=0),
    Message('note_on', channel=9, note=54, velocity=95, time=0),
    Message('note_on', channel=9, note=40, velocity=95, time=0),
    Message('note_on', channel=9, note=40, velocity=95, time=0),
    Message('note_on', channel=9, note=51, velocity=95, time=0),
    Message('note_off', channel=9, note=54, velocity=95, time=480),
    Message('note_off', channel=9, note=40, velocity=95, time=0),
    Message('note_off', channel=9, note=40, velocity=95, time=0),
    Message('note_off', channel=9, note=51, velocity=95, time=0),
    Message('note_on', channel=9, note=36, velocity=95, time=0),
    Message('note_on', channel=9, note=36, velocity=95, time=0),
    Message('note_off', channel=9, note=36, velocity=95, time=480),
    Message('note_off', channel=9, note=36, velocity=95, time=0),
    Message('note_on', channel=9, note=51, velocity=95, time=0),
    Message('note_off', channel=9, note=51, velocity=95, time=480),
    Message('note_on', channel=9, note=36, velocity=95, time=0),
    Message('note_on', channel=9, note=36, velocity=95, time=0),
    Message('note_off', channel=9, note=36, velocity=95, time=480),
    Message('note_off', channel=9, note=36, velocity=95, time=0),
    Message('note_on', channel=9, note=54, velocity=95, time=0),
    Message('note_on', channel=9, note=40, velocity=95, time=0),
    Message('note_on', channel=9, note=40, velocity=95, time=0),
    Message('note_on', channel=9, note=51, velocity=95, time=0),
    Message('note_off', channel=9, note=54, velocity=95, time=240),
    Message('note_off', channel=9, note=40, velocity=95, time=0),
    Message('note_off', channel=9, note=40, velocity=95, time=0),
    Message('note_off', channel=9, note=51, velocity=95, time=0),
    Message('note_on', channel=9, note=40, velocity=95, time=0),
    Message('note_on', channel=9, note=40, velocity=95, time=0),
    Message('note_off', channel=9, note=40, velocity=95, time=240),
    Message('note_off', channel=9, note=40, velocity=95, time=0),
    Message('note_on', channel=9, note=40, velocity=95, time=0),
    Message('note_on', channel=9, note=40, velocity=95, time=0),
    Message('note_off', channel=9, note=40, velocity=95, time=240),
    Message('note_off', channel=9, note=40, velocity=95, time=0),
    Message('note_on', channel=9, note=49, velocity=95, time=240),
    Message('note_on', channel=9, note=36, velocity=95, time=0),
    Message('note_on', channel=9, note=36, velocity=95, time=0),
    Message('note_off', channel=9, note=49, velocity=95, time=480),
    Message('note_off', channel=9, note=36, velocity=95, time=0),
    Message('note_off', channel=9, note=36, velocity=95, time=0),
    Message('note_on', channel=9, note=57, velocity=95, time=0),
    Message('note_on', channel=9, note=36, velocity=95, time=0),
    Message('note_on', channel=9, note=36, velocity=95, time=0),
    Message('note_off', channel=9, note=57, velocity=95, time=480),
    Message('note_off', channel=9, note=36, velocity=95, time=0),
    Message('note_off', channel=9, note=36, velocity=95, time=0),
    Message('note_on', channel=9, note=54, velocity=95, time=0),
    Message('note_on', channel=9, note=51, velocity=95, time=0),
    Message('note_on', channel=9, note=40, velocity=95, time=0),
    Message('note_on', channel=9, note=40, velocity=95, time=0),
    Message('note_off', channel=9, note=54, velocity=95, time=480),
    Message('note_off', channel=9, note=51, velocity=95, time=0),
    Message('note_off', channel=9, note=40, velocity=95, time=0),
    Message('note_off', channel=9, note=40, velocity=95, time=0),
    Message('note_on', channel=9, note=51, velocity=95, time=480),
    Message('note_on', channel=9, note=36, velocity=95, time=0),
    Message('note_on', channel=9, note=36, velocity=95, time=0),
    Message('note_off', channel=9, note=51, velocity=95, time=480),
    Message('note_off', channel=9, note=36, velocity=95, time=0),
    Message('note_off', channel=9, note=36, velocity=95, time=0),
    Message('note_on', channel=9, note=36, velocity=95, time=0),
    Message('note_on', channel=9, note=36, velocity=95, time=0),
    Message('note_off', channel=9, note=36, velocity=95, time=480),
    Message('note_off', channel=9, note=36, velocity=95, time=0),
    Message('note_on', channel=9, note=54, velocity=95, time=0),
    Message('note_on', channel=9, note=51, velocity=95, time=0),
    Message('note_on', channel=9, note=40, velocity=95, time=0),
    Message('note_on', channel=9, note=40, velocity=95, time=0),
    Message('note_off', channel=9, note=54, velocity=95, time=480),
    Message('note_off', channel=9, note=51, velocity=95, time=0),
    Message('note_off', channel=9, note=40, velocity=95, time=0),
    Message('note_off', channel=9, note=40, velocity=95, time=0),
    Message('note_on', channel=9, note=36, velocity=95, time=0),
    Message('note_on', channel=9, note=36, velocity=95, time=0),
    Message('note_off', channel=9, note=36, velocity=95, time=480),
    Message('note_off', channel=9, note=36, velocity=95, time=0),
    Message('note_on', channel=9, note=49, velocity=95, time=0),
    Message('note_on', channel=9, note=36, velocity=95, time=0),
    Message('note_on', channel=9, note=36, velocity=95, time=0),
    Message('note_off', channel=9, note=36, velocity=95, time=480),
    Message('note_off', channel=9, note=36, velocity=95, time=0),
    Message('note_off', channel=9, note=49, velocity=95, time=480),
    Message('note_on', channel=9, note=54, velocity=95, time=0),
    Message('note_on', channel=9, note=51, velocity=95, time=0),
    Message('note_on', channel=9, note=40, velocity=95, time=0),
    Message('note_on', channel=9, note=40, velocity=95, time=0),
    Message('note_off', channel=9, note=54, velocity=95, time=480),
    Message('note_off', channel=9, note=40, velocity=95, time=0),
    Message('note_off', channel=9, note=40, velocity=95, time=0),
    Message('note_on', channel=9, note=36, velocity=95, time=0),
    Message('note_on', channel=9, note=36, velocity=95, time=0),
    Message('note_off', channel=9, note=51, velocity=95, time=480),
    Message('note_off', channel=9, note=36, velocity=95, time=0),
    Message('note_off', channel=9, note=36, velocity=95, time=0),
    Message('note_on', channel=9, note=51, velocity=95, time=0),
    Message('note_on', channel=9, note=36, velocity=95, time=480),
    Message('note_on', channel=9, note=36, velocity=95, time=0),
    Message('note_off', channel=9, note=51, velocity=95, time=480),
    Message('note_off', channel=9, note=36, velocity=95, time=0),
    Message('note_off', channel=9, note=36, velocity=95, time=0),
    Message('note_on', channel=9, note=54, velocity=95, time=0),
    Message('note_on', channel=9, note=51, velocity=95, time=0),
    Message('note_on', channel=9, note=40, velocity=95, time=0),
    Message('note_on', channel=9, note=40, velocity=95, time=0),
    Message('note_off', channel=9, note=54, velocity=95, time=480),
    Message('note_off', channel=9, note=40, velocity=95, time=0),
    Message('note_off', channel=9, note=40, velocity=95, time=0),
    Message('note_off', channel=9, note=51, velocity=95, time=480),
    Message('note_on', channel=9, note=36, velocity=95, time=0),
    Message('note_on', channel=9, note=36, velocity=95, time=0),
    Message('note_on', channel=9, note=49, velocity=95, time=0),
    Message('note_off', channel=9, note=36, velocity=95, time=960),
    Message('note_off', channel=9, note=36, velocity=95, time=0),
    Message('note_off', channel=9, note=49, velocity=95, time=0),
    Message('note_on', channel=9, note=54, velocity=95, time=0),
    Message('note_on', channel=9, note=40, velocity=95, time=0),
    Message('note_on', channel=9, note=40, velocity=95, time=0),
    Message('note_on', channel=9, note=51, velocity=95, time=0),
    Message('note_off', channel=9, note=54, velocity=95, time=480),
    Message('note_off', channel=9, note=40, velocity=95, time=0),
    Message('note_off', channel=9, note=40, velocity=95, time=0),
    Message('note_off', channel=9, note=51, velocity=95, time=0),
    Message('note_on', channel=9, note=36, velocity=95, time=0),
    Message('note_on', channel=9, note=36, velocity=95, time=0),
    Message('note_off', channel=9, note=36, velocity=95, time=480),
    Message('note_off', channel=9, note=36, velocity=95, time=0),
    Message('note_on', channel=9, note=51, velocity=95, time=0),
    Message('note_off', channel=9, note=51, velocity=95, time=480),
    Message('note_on', channel=9, note=36, velocity=95, time=0),
    Message('note_on', channel=9, note=36, velocity=95, time=0),
    Message('note_off', channel=9, note=36, velocity=95, time=480),
    Message('note_off', channel=9, note=36, velocity=95, time=0),
    Message('note_on', channel=9, note=54, velocity=95, time=0),
    Message('note_on', channel=9, note=40, velocity=95, time=0),
    Message('note_on', channel=9, note=40, velocity=95, time=0),
    Message('note_on', channel=9, note=51, velocity=95, time=0),
    Message('note_off', channel=9, note=54, velocity=95, time=480),
    Message('note_off', channel=9, note=40, velocity=95, time=0),
    Message('note_off', channel=9, note=40, velocity=95, time=0),
    Message('note_off', channel=9, note=51, velocity=95, time=0),
    Message('note_on', channel=9, note=36, velocity=95, time=0),
    Message('note_on', channel=9, note=36, velocity=95, time=0),
    Message('note_off', channel=9, note=36, velocity=95, time=480),
    Message('note_off', channel=9, note=36, velocity=95, time=0),
    Message('note_on', channel=9, note=57, velocity=95, time=0),
    Message('note_on', channel=9, note=36, velocity=95, time=0),
    Message('note_on', channel=9, note=36, velocity=95, time=0),
    Message('note_on', channel=9, note=49, velocity=95, time=0),
    Message('note_off', channel=9, note=57, velocity=95, time=960),
    Message('note_off', channel=9, note=36, velocity=95, time=0),
    Message('note_off', channel=9, note=36, velocity=95, time=0),
    Message('note_off', channel=9, note=49, velocity=95, time=0),
    Message('note_on', channel=9, note=54, velocity=95, time=0),
    Message('note_on', channel=9, note=40, velocity=95, time=0),
    Message('note_on', channel=9, note=40, velocity=95, time=0),
    Message('note_on', channel=9, note=51, velocity=95, time=0),
    Message('note_off', channel=9, note=54, velocity=95, time=480),
    Message('note_off', channel=9, note=40, velocity=95, time=0),
    Message('note_off', channel=9, note=40, velocity=95, time=0),
    Message('note_off', channel=9, note=51, velocity=95, time=0),
    Message('note_on', channel=9, note=36, velocity=95, time=0),
    Message('note_on', channel=9, note=36, velocity=95, time=0),
    Message('note_off', channel=9, note=36, velocity=95, time=480),
    Message('note_off', channel=9, note=36, velocity=95, time=0),
    Message('note_on', channel=9, note=51, velocity=95, time=0),
    Message('note_off', channel=9, note=51, velocity=95, time=480),
    Message('note_on', channel=9, note=36, velocity=95, time=0),
    Message('note_on', channel=9, note=36, velocity=95, time=0),
    Message('note_off', channel=9, note=36, velocity=95, time=480),
    Message('note_off', channel=9, note=36, velocity=95, time=0),
    Message('note_on', channel=9, note=54, velocity=95, time=0),
    Message('note_on', channel=9, note=40, velocity=95, time=0),
    Message('note_on', channel=9, note=40, velocity=95, time=0),
    Message('note_on', channel=9, note=51, velocity=95, time=0),
    Message('note_off', channel=9, note=54, velocity=95, time=240),
    Message('note_off', channel=9, note=40, velocity=95, time=0),
    Message('note_off', channel=9, note=40, velocity=95, time=0),
    Message('note_off', channel=9, note=51, velocity=95, time=0),
    Message('note_on', channel=9, note=40, velocity=95, time=0),
    Message('note_on', channel=9, note=40, velocity=95, time=0),
    Message('note_off', channel=9, note=40, velocity=95, time=240),
    Message('note_off', channel=9, note=40, velocity=95, time=0),
    Message('note_on', channel=9, note=40, velocity=95, time=0),
    Message('note_on', channel=9, note=40, velocity=95, time=0),
    Message('note_off', channel=9, note=40, velocity=95, time=240),
    Message('note_off', channel=9, note=40, velocity=95, time=0),
    Message('note_on', channel=9, note=49, velocity=95, time=240),
    Message('note_on', channel=9, note=36, velocity=95, time=0),
    Message('note_on', channel=9, note=36, velocity=95, time=0),
    Message('note_off', channel=9, note=49, velocity=95, time=480),
    Message('note_off', channel=9, note=36, velocity=95, time=0),
    Message('note_off', channel=9, note=36, velocity=95, time=0),
    Message('note_on', channel=9, note=57, velocity=95, time=0),
    Message('note_on', channel=9, note=36, velocity=95, time=0),
    Message('note_on', channel=9, note=36, velocity=95, time=0),
    Message('note_off', channel=9, note=57, velocity=95, time=480),
    Message('note_off', channel=9, note=36, velocity=95, time=0),
    Message('note_off', channel=9, note=36, velocity=95, time=0),
    Message('note_on', channel=9, note=54, velocity=95, time=0),
    Message('note_on', channel=9, note=51, velocity=95, time=0),
    Message('note_on', channel=9, note=40, velocity=95, time=0),
    Message('note_on', channel=9, note=40, velocity=95, time=0),
    Message('note_off', channel=9, note=54, velocity=95, time=480),
    Message('note_off', channel=9, note=51, velocity=95, time=0),
    Message('note_off', channel=9, note=40, velocity=95, time=0),
    Message('note_off', channel=9, note=40, velocity=95, time=0),
    Message('note_on', channel=9, note=51, velocity=95, time=480),
    Message('note_on', channel=9, note=36, velocity=95, time=0),
    Message('note_on', channel=9, note=36, velocity=95, time=0),
    Message('note_off', channel=9, note=51, velocity=95, time=480),
    Message('note_off', channel=9, note=36, velocity=95, time=0),
    Message('note_off', channel=9, note=36, velocity=95, time=0),
    Message('note_on', channel=9, note=36, velocity=95, time=0),
    Message('note_on', channel=9, note=36, velocity=95, time=0),
    Message('note_off', channel=9, note=36, velocity=95, time=480),
    Message('note_off', channel=9, note=36, velocity=95, time=0),
    Message('note_on', channel=9, note=54, velocity=95, time=0),
    Message('note_on', channel=9, note=51, velocity=95, time=0),
    Message('note_on', channel=9, note=40, velocity=95, time=0),
    Message('note_on', channel=9, note=40, velocity=95, time=0),
    Message('note_off', channel=9, note=54, velocity=95, time=480),
    Message('note_off', channel=9, note=51, velocity=95, time=0),
    Message('note_off', channel=9, note=40, velocity=95, time=0),
    Message('note_off', channel=9, note=40, velocity=95, time=0),
    Message('note_on', channel=9, note=36, velocity=95, time=0),
    Message('note_on', channel=9, note=36, velocity=95, time=0),
    Message('note_off', channel=9, note=36, velocity=95, time=480),
    Message('note_off', channel=9, note=36, velocity=95, time=0),
    Message('note_on', channel=9, note=49, velocity=95, time=0),
    Message('note_on', channel=9, note=36, velocity=95, time=0),
    Message('note_on', channel=9, note=36, velocity=95, time=0),
    Message('note_off', channel=9, note=36, velocity=95, time=480),
    Message('note_off', channel=9, note=36, velocity=95, time=0),
    Message('note_off', channel=9, note=49, velocity=95, time=480),
    Message('note_on', channel=9, note=54, velocity=95, time=0),
    Message('note_on', channel=9, note=51, velocity=95, time=0),
    Message('note_on', channel=9, note=40, velocity=95, time=0),
    Message('note_on', channel=9, note=40, velocity=95, time=0),
    Message('note_off', channel=9, note=54, velocity=95, time=480),
    Message('note_off', channel=9, note=40, velocity=95, time=0),
    Message('note_off', channel=9, note=40, velocity=95, time=0),
    Message('note_on', channel=9, note=36, velocity=95, time=0),
    Message('note_on', channel=9, note=36, velocity=95, time=0),
    Message('note_off', channel=9, note=51, velocity=95, time=480),
    Message('note_off', channel=9, note=36, velocity=95, time=0),
    Message('note_off', channel=9, note=36, velocity=95, time=0),
    Message('note_on', channel=9, note=51, velocity=95, time=0),
    Message('note_on', channel=9, note=36, velocity=95, time=480),
    Message('note_on', channel=9, note=36, velocity=95, time=0),
    Message('note_off', channel=9, note=51, velocity=95, time=480),
    Message('note_off', channel=9, note=36, velocity=95, time=0),
    Message('note_off', channel=9, note=36, velocity=95, time=0),
    Message('note_on', channel=9, note=54, velocity=95, time=0),
    Message('note_on', channel=9, note=51, velocity=95, time=0),
    Message('note_on', channel=9, note=40, velocity=95, time=0),
    Message('note_on', channel=9, note=40, velocity=95, time=0),
    Message('note_off', channel=9, note=54, velocity=95, time=480),
    Message('note_off', channel=9, note=40, velocity=95, time=0),
    Message('note_off', channel=9, note=40, velocity=95, time=0),
    Message('note_off', channel=9, note=51, velocity=95, time=480),
    Message('note_on', channel=9, note=36, velocity=95, time=0),
    Message('note_on', channel=9, note=36, velocity=95, time=0),
    Message('note_on', channel=9, note=49, velocity=95, time=0),
    Message('note_off', channel=9, note=36, velocity=95, time=960),
    Message('note_off', channel=9, note=36, velocity=95, time=0),
    Message('note_off', channel=9, note=49, velocity=95, time=0),
    Message('note_on', channel=9, note=54, velocity=95, time=0),
    Message('note_on', channel=9, note=40, velocity=95, time=0),
    Message('note_on', channel=9, note=40, velocity=95, time=0),
    Message('note_on', channel=9, note=51, velocity=95, time=0),
    Message('note_off', channel=9, note=54, velocity=95, time=480),
    Message('note_off', channel=9, note=40, velocity=95, time=0),
    Message('note_off', channel=9, note=40, velocity=95, time=0),
    Message('note_off', channel=9, note=51, velocity=95, time=0),
    Message('note_on', channel=9, note=36, velocity=95, time=0),
    Message('note_on', channel=9, note=36, velocity=95, time=0),
    Message('note_off', channel=9, note=36, velocity=95, time=480),
    Message('note_off', channel=9, note=36, velocity=95, time=0),
    Message('note_on', channel=9, note=51, velocity=95, time=0),
    Message('note_off', channel=9, note=51, velocity=95, time=480),
    Message('note_on', channel=9, note=36, velocity=95, time=0),
    Message('note_on', channel=9, note=36, velocity=95, time=0),
    Message('note_off', channel=9, note=36, velocity=95, time=480),
    Message('note_off', channel=9, note=36, velocity=95, time=0),
    Message('note_on', channel=9, note=54, velocity=95, time=0),
    Message('note_on', channel=9, note=40, velocity=95, time=0),
    Message('note_on', channel=9, note=40, velocity=95, time=0),
    Message('note_on', channel=9, note=51, velocity=95, time=0),
    Message('note_off', channel=9, note=54, velocity=95, time=480),
    Message('note_off', channel=9, note=40, velocity=95, time=0),
    Message('note_off', channel=9, note=40, velocity=95, time=0),
    Message('note_off', channel=9, note=51, velocity=95, time=0),
    Message('note_on', channel=9, note=36, velocity=95, time=0),
    Message('note_on', channel=9, note=36, velocity=95, time=0),
    Message('note_off', channel=9, note=36, velocity=95, time=480),
    Message('note_off', channel=9, note=36, velocity=95, time=0),
    Message('note_on', channel=9, note=57, velocity=95, time=0),
    Message('note_on', channel=9, note=36, velocity=95, time=0),
    Message('note_on', channel=9, note=36, velocity=95, time=0),
    Message('note_on', channel=9, note=49, velocity=95, time=0),
    Message('note_off', channel=9, note=57, velocity=95, time=960),
    Message('note_off', channel=9, note=36, velocity=95, time=0),
    Message('note_off', channel=9, note=36, velocity=95, time=0),
    Message('note_off', channel=9, note=49, velocity=95, time=0),
    Message('note_on', channel=9, note=54, velocity=95, time=0),
    Message('note_on', channel=9, note=40, velocity=95, time=0),
    Message('note_on', channel=9, note=40, velocity=95, time=0),
    Message('note_on', channel=9, note=51, velocity=95, time=0),
    Message('note_off', channel=9, note=54, velocity=95, time=480),
    Message('note_off', channel=9, note=40, velocity=95, time=0),
    Message('note_off', channel=9, note=40, velocity=95, time=0),
    Message('note_off', channel=9, note=51, velocity=95, time=0),
    Message('note_on', channel=9, note=36, velocity=95, time=0),
    Message('note_on', channel=9, note=36, velocity=95, time=0),
    Message('note_off', channel=9, note=36, velocity=95, time=480),
    Message('note_off', channel=9, note=36, velocity=95, time=0),
    Message('note_on', channel=9, note=51, velocity=95, time=0),
    Message('note_off', channel=9, note=51, velocity=95, time=240),
    Message('note_on', channel=9, note=40, velocity=95, time=0),
    Message('note_on', channel=9, note=40, velocity=95, time=0),
    Message('note_off', channel=9, note=40, velocity=95, time=240),
    Message('note_off', channel=9, note=40, velocity=95, time=0),
    Message('note_on', channel=9, note=36, velocity=95, time=0),
    Message('note_on', channel=9, note=36, velocity=95, time=0),
    Message('note_off', channel=9, note=36, velocity=95, time=480),
    Message('note_off', channel=9, note=36, velocity=95, time=0),
    Message('note_on', channel=9, note=54, velocity=95, time=0),
    Message('note_on', channel=9, note=40, velocity=95, time=0),
    Message('note_on', channel=9, note=40, velocity=95, time=0),
    Message('note_on', channel=9, note=51, velocity=95, time=0),
    Message('note_off', channel=9, note=54, velocity=95, time=240),
    Message('note_off', channel=9, note=40, velocity=95, time=0),
    Message('note_off', channel=9, note=40, velocity=95, time=0),
    Message('note_off', channel=9, note=51, velocity=95, time=0),
    Message('note_on', channel=9, note=40, velocity=95, time=0),
    Message('note_on', channel=9, note=40, velocity=95, time=0),
    Message('note_off', channel=9, note=40, velocity=95, time=240),
    Message('note_off', channel=9, note=40, velocity=95, time=0),
    Message('note_on', channel=9, note=40, velocity=95, time=0),
    Message('note_on', channel=9, note=40, velocity=95, time=0),
    Message('note_off', channel=9, note=40, velocity=95, time=240),
    Message('note_off', channel=9, note=40, velocity=95, time=0),
    Message('note_on', channel=9, note=49, velocity=95, time=240),
    Message('note_on', channel=9, note=36, velocity=95, time=0),
    Message('note_on', channel=9, note=36, velocity=95, time=0),
    Message('note_off', channel=9, note=49, velocity=95, time=480),
    Message('note_off', channel=9, note=36, velocity=95, time=0),
    Message('note_off', channel=9, note=36, velocity=95, time=0),
    Message('note_on', channel=9, note=57, velocity=95, time=0),
    Message('note_on', channel=9, note=36, velocity=95, time=0),
    Message('note_on', channel=9, note=36, velocity=95, time=0),
    Message('note_off', channel=9, note=57, velocity=95, time=480),
    Message('note_off', channel=9, note=36, velocity=95, time=0),
    Message('note_off', channel=9, note=36, velocity=95, time=0),
    Message('note_on', channel=9, note=54, velocity=95, time=0),
    Message('note_on', channel=9, note=51, velocity=95, time=0),
    Message('note_on', channel=9, note=40, velocity=95, time=0),
    Message('note_on', channel=9, note=40, velocity=95, time=0),
    Message('note_off', channel=9, note=54, velocity=95, time=480),
    Message('note_off', channel=9, note=51, velocity=95, time=0),
    Message('note_off', channel=9, note=40, velocity=95, time=0),
    Message('note_off', channel=9, note=40, velocity=95, time=0),
    Message('note_on', channel=9, note=51, velocity=95, time=480),
    Message('note_on', channel=9, note=36, velocity=95, time=0),
    Message('note_on', channel=9, note=36, velocity=95, time=0),
    Message('note_off', channel=9, note=51, velocity=95, time=480),
    Message('note_off', channel=9, note=36, velocity=95, time=0),
    Message('note_off', channel=9, note=36, velocity=95, time=0),
    Message('note_on', channel=9, note=36, velocity=95, time=0),
    Message('note_on', channel=9, note=36, velocity=95, time=0),
    Message('note_off', channel=9, note=36, velocity=95, time=480),
    Message('note_off', channel=9, note=36, velocity=95, time=0),
    Message('note_on', channel=9, note=54, velocity=95, time=0),
    Message('note_on', channel=9, note=51, velocity=95, time=0),
    Message('note_on', channel=9, note=40, velocity=95, time=0),
    Message('note_on', channel=9, note=40, velocity=95, time=0),
    Message('note_off', channel=9, note=54, velocity=95, time=480),
    Message('note_off', channel=9, note=51, velocity=95, time=0),
    Message('note_off', channel=9, note=40, velocity=95, time=0),
    Message('note_off', channel=9, note=40, velocity=95, time=0),
    Message('note_on', channel=9, note=36, velocity=95, time=0),
    Message('note_on', channel=9, note=36, velocity=95, time=0),
    Message('note_off', channel=9, note=36, velocity=95, time=480),
    Message('note_off', channel=9, note=36, velocity=95, time=0),
    Message('note_on', channel=9, note=49, velocity=95, time=0),
    Message('note_on', channel=9, note=36, velocity=95, time=0),
    Message('note_on', channel=9, note=36, velocity=95, time=0),
    Message('note_off', channel=9, note=36, velocity=95, time=480),
    Message('note_off', channel=9, note=36, velocity=95, time=0),
    Message('note_on', channel=9, note=36, velocity=95, time=0),
    Message('note_on', channel=9, note=36, velocity=95, time=0),
    Message('note_off', channel=9, note=49, velocity=95, time=480),
    Message('note_off', channel=9, note=36, velocity=95, time=0),
    Message('note_off', channel=9, note=36, velocity=95, time=0),
    Message('note_on', channel=9, note=54, velocity=95, time=0),
    Message('note_on', channel=9, note=51, velocity=95, time=0),
    Message('note_on', channel=9, note=40, velocity=95, time=0),
    Message('note_on', channel=9, note=40, velocity=95, time=0),
    Message('note_off', channel=9, note=54, velocity=95, time=480),
    Message('note_off', channel=9, note=40, velocity=95, time=0),
    Message('note_off', channel=9, note=40, velocity=95, time=0),
    Message('note_off', channel=9, note=51, velocity=95, time=480),
    Message('note_on', channel=9, note=51, velocity=95, time=0),
    Message('note_on', channel=9, note=36, velocity=95, time=0),
    Message('note_on', channel=9, note=36, velocity=95, time=0),
    Message('note_off', channel=9, note=36, velocity=95, time=480),
    Message('note_off', channel=9, note=36, velocity=95, time=0),
    Message('note_on', channel=9, note=36, velocity=95, time=0),
    Message('note_on', channel=9, note=36, velocity=95, time=0),
    Message('note_off', channel=9, note=51, velocity=95, time=480),
    Message('note_off', channel=9, note=36, velocity=95, time=0),
    Message('note_off', channel=9, note=36, velocity=95, time=0),
    Message('note_on', channel=9, note=54, velocity=95, time=0),
    Message('note_on', channel=9, note=51, velocity=95, time=0),
    Message('note_on', channel=9, note=40, velocity=95, time=0),
    Message('note_on', channel=9, note=40, velocity=95, time=0),
    Message('note_off', channel=9, note=54, velocity=95, time=480),
    Message('note_off', channel=9, note=40, velocity=95, time=0),
    Message('note_off', channel=9, note=40, velocity=95, time=0),
    Message('note_off', channel=9, note=51, velocity=95, time=480),
    Message('note_on', channel=9, note=49, velocity=95, time=0),
    Message('note_on', channel=9, note=36, velocity=95, time=0),
    Message('note_on', channel=9, note=36, velocity=95, time=0),
    Message('note_off', channel=9, note=49, velocity=95, time=480),
    Message('note_off', channel=9, note=36, velocity=95, time=0),
    Message('note_off', channel=9, note=36, velocity=95, time=0),
    Message('note_on', channel=9, note=57, velocity=95, time=0),
    Message('note_on', channel=9, note=36, velocity=95, time=0),
    Message('note_on', channel=9, note=36, velocity=95, time=0),
    Message('note_off', channel=9, note=57, velocity=95, time=480),
    Message('note_off', channel=9, note=36, velocity=95, time=0),
    Message('note_off', channel=9, note=36, velocity=95, time=0),
    Message('note_on', channel=9, note=54, velocity=95, time=0),
    Message('note_on', channel=9, note=51, velocity=95, time=0),
    Message('note_on', channel=9, note=40, velocity=95, time=0),
    Message('note_on', channel=9, note=40, velocity=95, time=0),
    Message('note_off', channel=9, note=54, velocity=95, time=480),
    Message('note_off', channel=9, note=51, velocity=95, time=0),
    Message('note_off', channel=9, note=40, velocity=95, time=0),
    Message('note_off', channel=9, note=40, velocity=95, time=0),
    Message('note_on', channel=9, note=51, velocity=95, time=480),
    Message('note_on', channel=9, note=36, velocity=95, time=0),
    Message('note_on', channel=9, note=36, velocity=95, time=0),
    Message('note_off', channel=9, note=51, velocity=95, time=480),
    Message('note_off', channel=9, note=36, velocity=95, time=0),
    Message('note_off', channel=9, note=36, velocity=95, time=0),
    Message('note_on', channel=9, note=36, velocity=95, time=0),
    Message('note_on', channel=9, note=36, velocity=95, time=0),
    Message('note_off', channel=9, note=36, velocity=95, time=480),
    Message('note_off', channel=9, note=36, velocity=95, time=0),
    Message('note_on', channel=9, note=54, velocity=95, time=0),
    Message('note_on', channel=9, note=51, velocity=95, time=0),
    Message('note_on', channel=9, note=40, velocity=95, time=0),
    Message('note_on', channel=9, note=40, velocity=95, time=0),
    Message('note_off', channel=9, note=54, velocity=95, time=480),
    Message('note_off', channel=9, note=51, velocity=95, time=0),
    Message('note_off', channel=9, note=40, velocity=95, time=0),
    Message('note_off', channel=9, note=40, velocity=95, time=0),
    Message('note_on', channel=9, note=36, velocity=95, time=0),
    Message('note_on', channel=9, note=36, velocity=95, time=0),
    Message('note_off', channel=9, note=36, velocity=95, time=480),
    Message('note_off', channel=9, note=36, velocity=95, time=0),
    Message('note_on', channel=9, note=57, velocity=95, time=0),
    Message('note_on', channel=9, note=36, velocity=95, time=0),
    Message('note_on', channel=9, note=36, velocity=95, time=0),
    Message('note_on', channel=9, note=49, velocity=95, time=0),
    Message('note_off', channel=9, note=57, velocity=95, time=960),
    Message('note_off', channel=9, note=36, velocity=95, time=0),
    Message('note_off', channel=9, note=36, velocity=95, time=0),
    Message('note_off', channel=9, note=49, velocity=95, time=0),
    Message('note_on', channel=9, note=54, velocity=95, time=0),
    Message('note_on', channel=9, note=40, velocity=95, time=0),
    Message('note_on', channel=9, note=40, velocity=95, time=0),
    Message('note_on', channel=9, note=51, velocity=95, time=0),
    Message('note_off', channel=9, note=54, velocity=95, time=480),
    Message('note_off', channel=9, note=40, velocity=95, time=0),
    Message('note_off', channel=9, note=40, velocity=95, time=0),
    Message('note_off', channel=9, note=51, velocity=95, time=0),
    Message('note_on', channel=9, note=36, velocity=95, time=0),
    Message('note_on', channel=9, note=36, velocity=95, time=0),
    Message('note_off', channel=9, note=36, velocity=95, time=480),
    Message('note_off', channel=9, note=36, velocity=95, time=0),
    Message('note_on', channel=9, note=40, velocity=95, time=0),
    Message('note_on', channel=9, note=40, velocity=95, time=0),
    Message('note_off', channel=9, note=40, velocity=95, time=60),
    Message('note_off', channel=9, note=40, velocity=95, time=0),
    Message('note_on', channel=9, note=40, velocity=95, time=0),
    Message('note_on', channel=9, note=40, velocity=95, time=0),
    Message('note_off', channel=9, note=40, velocity=95, time=120),
    Message('note_off', channel=9, note=40, velocity=95, time=0),
    Message('note_on', channel=9, note=45, velocity=95, time=300),
    Message('note_on', channel=9, note=45, velocity=95, time=0),
    Message('note_on', channel=9, note=40, velocity=95, time=0),
    Message('note_on', channel=9, note=40, velocity=95, time=0),
    Message('note_off', channel=9, note=45, velocity=95, time=480),
    Message('note_off', channel=9, note=45, velocity=95, time=0),
    Message('note_off', channel=9, note=40, velocity=95, time=0),
    Message('note_off', channel=9, note=40, velocity=95, time=0),
    Message('note_on', channel=9, note=45, velocity=95, time=0),
    Message('note_on', channel=9, note=45, velocity=95, time=0),
    Message('note_on', channel=9, note=40, velocity=95, time=0),
    Message('note_on', channel=9, note=40, velocity=95, time=0),
    Message('note_off', channel=9, note=45, velocity=95, time=480),
    Message('note_off', channel=9, note=45, velocity=95, time=0),
    Message('note_off', channel=9, note=40, velocity=95, time=0),
    Message('note_off', channel=9, note=40, velocity=95, time=0),
    Message('note_on', channel=9, note=45, velocity=95, time=0),
    Message('note_on', channel=9, note=45, velocity=95, time=0),
    Message('note_on', channel=9, note=40, velocity=95, time=0),
    Message('note_on', channel=9, note=40, velocity=95, time=0),
    Message('note_off', channel=9, note=45, velocity=95, time=480),
    Message('note_off', channel=9, note=45, velocity=95, time=0),
    Message('note_off', channel=9, note=40, velocity=95, time=0),
    Message('note_off', channel=9, note=40, velocity=95, time=0),
    Message('note_on', channel=9, note=49, velocity=95, time=0),
    Message('note_on', channel=9, note=36, velocity=95, time=0),
    Message('note_on', channel=9, note=36, velocity=95, time=0),
    Message('note_off', channel=9, note=49, velocity=95, time=480),
    Message('note_off', channel=9, note=36, velocity=95, time=0),
    Message('note_off', channel=9, note=36, velocity=95, time=0),
    Message('note_on', channel=9, note=57, velocity=95, time=0),
    Message('note_on', channel=9, note=36, velocity=95, time=0),
    Message('note_on', channel=9, note=36, velocity=95, time=0),
    Message('note_off', channel=9, note=57, velocity=95, time=480),
    Message('note_off', channel=9, note=36, velocity=95, time=0),
    Message('note_off', channel=9, note=36, velocity=95, time=0),
    Message('note_on', channel=9, note=54, velocity=95, time=0),
    Message('note_on', channel=9, note=51, velocity=95, time=0),
    Message('note_on', channel=9, note=40, velocity=95, time=0),
    Message('note_on', channel=9, note=40, velocity=95, time=0),
    Message('note_off', channel=9, note=54, velocity=95, time=480),
    Message('note_off', channel=9, note=51, velocity=95, time=0),
    Message('note_off', channel=9, note=40, velocity=95, time=0),
    Message('note_off', channel=9, note=40, velocity=95, time=0),
    Message('note_on', channel=9, note=51, velocity=95, time=480),
    Message('note_on', channel=9, note=36, velocity=95, time=0),
    Message('note_on', channel=9, note=36, velocity=95, time=0),
    Message('note_off', channel=9, note=51, velocity=95, time=480),
    Message('note_off', channel=9, note=36, velocity=95, time=0),
    Message('note_off', channel=9, note=36, velocity=95, time=0),
    Message('note_on', channel=9, note=36, velocity=95, time=0),
    Message('note_on', channel=9, note=36, velocity=95, time=0),
    Message('note_off', channel=9, note=36, velocity=95, time=480),
    Message('note_off', channel=9, note=36, velocity=95, time=0),
    Message('note_on', channel=9, note=54, velocity=95, time=0),
    Message('note_on', channel=9, note=51, velocity=95, time=0),
    Message('note_on', channel=9, note=40, velocity=95, time=0),
    Message('note_on', channel=9, note=40, velocity=95, time=0),
    Message('note_off', channel=9, note=54, velocity=95, time=480),
    Message('note_off', channel=9, note=51, velocity=95, time=0),
    Message('note_off', channel=9, note=40, velocity=95, time=0),
    Message('note_off', channel=9, note=40, velocity=95, time=0),
    Message('note_on', channel=9, note=49, velocity=95, time=480),
    Message('note_on', channel=9, note=36, velocity=95, time=0),
    Message('note_on', channel=9, note=36, velocity=95, time=0),
    Message('note_off', channel=9, note=36, velocity=95, time=480),
    Message('note_off', channel=9, note=36, velocity=95, time=0),
    Message('note_on', channel=9, note=36, velocity=95, time=0),
    Message('note_on', channel=9, note=36, velocity=95, time=0),
    Message('note_off', channel=9, note=49, velocity=95, time=480),
    Message('note_off', channel=9, note=36, velocity=95, time=0),
    Message('note_off', channel=9, note=36, velocity=95, time=0),
    Message('note_on', channel=9, note=54, velocity=95, time=0),
    Message('note_on', channel=9, note=51, velocity=95, time=0),
    Message('note_on', channel=9, note=40, velocity=95, time=0),
    Message('note_on', channel=9, note=40, velocity=95, time=0),
    Message('note_off', channel=9, note=54, velocity=95, time=480),
    Message('note_off', channel=9, note=51, velocity=95, time=0),
    Message('note_off', channel=9, note=40, velocity=95, time=0),
    Message('note_off', channel=9, note=40, velocity=95, time=0),
    Message('note_on', channel=9, note=51, velocity=95, time=480),
    Message('note_on', channel=9, note=36, velocity=95, time=0),
    Message('note_on', channel=9, note=36, velocity=95, time=0),
    Message('note_off', channel=9, note=36, velocity=95, time=480),
    Message('note_off', channel=9, note=36, velocity=95, time=0),
    Message('note_on', channel=9, note=36, velocity=95, time=0),
    Message('note_on', channel=9, note=36, velocity=95, time=0),
    Message('note_off', channel=9, note=51, velocity=95, time=480),
    Message('note_off', channel=9, note=36, velocity=95, time=0),
    Message('note_off', channel=9, note=36, velocity=95, time=0),
    Message('note_on', channel=9, note=54, velocity=95, time=0),
    Message('note_on', channel=9, note=51, velocity=95, time=0),
    Message('note_on', channel=9, note=40, velocity=95, time=0),
    Message('note_on', channel=9, note=40, velocity=95, time=0),
    Message('note_off', channel=9, note=54, velocity=95, time=480),
    Message('note_off', channel=9, note=51, velocity=95, time=0),
    Message('note_off', channel=9, note=40, velocity=95, time=0),
    Message('note_off', channel=9, note=40, velocity=95, time=0),
    Message('note_on', channel=9, note=49, velocity=95, time=480),
    Message('note_on', channel=9, note=36, velocity=95, time=0),
    Message('note_on', channel=9, note=36, velocity=95, time=0),
    Message('note_off', channel=9, note=49, velocity=95, time=240),
    Message('note_off', channel=9, note=36, velocity=95, time=0),
    Message('note_off', channel=9, note=36, velocity=95, time=0),
    Message('note_on', channel=9, note=40, velocity=95, time=0),
    Message('note_on', channel=9, note=40, velocity=95, time=0),
    Message('note_off', channel=9, note=40, velocity=95, time=240),
    Message('note_off', channel=9, note=40, velocity=95, time=0),
    Message('note_on', channel=9, note=36, velocity=95, time=0),
    Message('note_on', channel=9, note=36, velocity=95, time=0),
    Message('note_off', channel=9, note=36, velocity=95, time=480),
    Message('note_off', channel=9, note=36, velocity=95, time=0),
    Message('note_on', channel=9, note=54, velocity=95, time=0),
    Message('note_on', channel=9, note=51, velocity=95, time=0),
    Message('note_on', channel=9, note=40, velocity=95, time=0),
    Message('note_on', channel=9, note=40, velocity=95, time=0),
    Message('note_off', channel=9, note=54, velocity=95, time=480),
    Message('note_off', channel=9, note=51, velocity=95, time=0),
    Message('note_off', channel=9, note=40, velocity=95, time=0),
    Message('note_off', channel=9, note=40, velocity=95, time=0),
    Message('note_on', channel=9, note=51, velocity=95, time=480),
    Message('note_on', channel=9, note=36, velocity=95, time=0),
    Message('note_on', channel=9, note=36, velocity=95, time=0),
    Message('note_off', channel=9, note=51, velocity=95, time=240),
    Message('note_off', channel=9, note=36, velocity=95, time=0),
    Message('note_off', channel=9, note=36, velocity=95, time=0),
    Message('note_on', channel=9, note=40, velocity=95, time=0),
    Message('note_on', channel=9, note=40, velocity=95, time=0),
    Message('note_off', channel=9, note=40, velocity=95, time=240),
    Message('note_off', channel=9, note=40, velocity=95, time=0),
    Message('note_on', channel=9, note=36, velocity=95, time=0),
    Message('note_on', channel=9, note=36, velocity=95, time=0),
    Message('note_off', channel=9, note=36, velocity=95, time=480),
    Message('note_off', channel=9, note=36, velocity=95, time=0),
    Message('note_on', channel=9, note=54, velocity=95, time=0),
    Message('note_on', channel=9, note=51, velocity=95, time=0),
    Message('note_on', channel=9, note=40, velocity=95, time=0),
    Message('note_on', channel=9, note=40, velocity=95, time=0),
    Message('note_off', channel=9, note=54, velocity=95, time=480),
    Message('note_off', channel=9, note=51, velocity=95, time=0),
    Message('note_off', channel=9, note=40, velocity=95, time=0),
    Message('note_off', channel=9, note=40, velocity=95, time=0),
    Message('note_on', channel=9, note=49, velocity=95, time=480),
    Message('note_on', channel=9, note=36, velocity=95, time=0),
    Message('note_on', channel=9, note=36, velocity=95, time=0),
    Message('note_off', channel=9, note=49, velocity=95, time=240),
    Message('note_off', channel=9, note=36, velocity=95, time=0),
    Message('note_off', channel=9, note=36, velocity=95, time=0),
    Message('note_on', channel=9, note=40, velocity=95, time=0),
    Message('note_on', channel=9, note=40, velocity=95, time=0),
    Message('note_off', channel=9, note=40, velocity=95, time=240),
    Message('note_off', channel=9, note=40, velocity=95, time=0),
    Message('note_on', channel=9, note=36, velocity=95, time=0),
    Message('note_on', channel=9, note=36, velocity=95, time=0),
    Message('note_off', channel=9, note=36, velocity=95, time=480),
    Message('note_off', channel=9, note=36, velocity=95, time=0),
    Message('note_on', channel=9, note=54, velocity=95, time=0),
    Message('note_on', channel=9, note=51, velocity=95, time=0),
    Message('note_on', channel=9, note=40, velocity=95, time=0),
    Message('note_on', channel=9, note=40, velocity=95, time=0),
    Message('note_off', channel=9, note=54, velocity=95, time=480),
    Message('note_off', channel=9, note=51, velocity=95, time=0),
    Message('note_off', channel=9, note=40, velocity=95, time=0),
    Message('note_off', channel=9, note=40, velocity=95, time=0),
    Message('note_on', channel=9, note=51, velocity=95, time=480),
    Message('note_on', channel=9, note=36, velocity=95, time=0),
    Message('note_on', channel=9, note=36, velocity=95, time=0),
    Message('note_off', channel=9, note=51, velocity=95, time=240),
    Message('note_off', channel=9, note=36, velocity=95, time=0),
    Message('note_off', channel=9, note=36, velocity=95, time=0),
    Message('note_on', channel=9, note=40, velocity=95, time=0),
    Message('note_on', channel=9, note=40, velocity=95, time=0),
    Message('note_off', channel=9, note=40, velocity=95, time=240),
    Message('note_off', channel=9, note=40, velocity=95, time=0),
    Message('note_on', channel=9, note=36, velocity=95, time=0),
    Message('note_on', channel=9, note=36, velocity=95, time=0),
    Message('note_off', channel=9, note=36, velocity=95, time=480),
    Message('note_off', channel=9, note=36, velocity=95, time=0),
    Message('note_on', channel=9, note=54, velocity=95, time=0),
    Message('note_on', channel=9, note=51, velocity=95, time=0),
    Message('note_on', channel=9, note=40, velocity=95, time=0),
    Message('note_on', channel=9, note=40, velocity=95, time=0),
    Message('note_off', channel=9, note=54, velocity=95, time=240),
    Message('note_off', channel=9, note=51, velocity=95, time=0),
    Message('note_off', channel=9, note=40, velocity=95, time=0),
    Message('note_off', channel=9, note=40, velocity=95, time=0),
    Message('note_on', channel=9, note=40, velocity=95, time=0),
    Message('note_on', channel=9, note=40, velocity=95, time=0),
    Message('note_off', channel=9, note=40, velocity=95, time=240),
    Message('note_off', channel=9, note=40, velocity=95, time=0),
    Message('note_on', channel=9, note=40, velocity=95, time=0),
    Message('note_on', channel=9, note=40, velocity=95, time=0),
    Message('note_off', channel=9, note=40, velocity=95, time=240),
    Message('note_off', channel=9, note=40, velocity=95, time=0),
    Message('note_on', channel=9, note=49, velocity=95, time=240),
    Message('note_on', channel=9, note=36, velocity=95, time=0),
    Message('note_on', channel=9, note=36, velocity=95, time=0),
    Message('note_off', channel=9, note=49, velocity=95, time=480),
    Message('note_off', channel=9, note=36, velocity=95, time=0),
    Message('note_off', channel=9, note=36, velocity=95, time=0),
    Message('note_on', channel=9, note=57, velocity=95, time=0),
    Message('note_on', channel=9, note=36, velocity=95, time=0),
    Message('note_on', channel=9, note=36, velocity=95, time=0),
    Message('note_off', channel=9, note=57, velocity=95, time=480),
    Message('note_off', channel=9, note=36, velocity=95, time=0),
    Message('note_off', channel=9, note=36, velocity=95, time=0),
    Message('note_on', channel=9, note=54, velocity=95, time=0),
    Message('note_on', channel=9, note=51, velocity=95, time=0),
    Message('note_on', channel=9, note=40, velocity=95, time=0),
    Message('note_on', channel=9, note=40, velocity=95, time=0),
    Message('note_off', channel=9, note=54, velocity=95, time=480),
    Message('note_off', channel=9, note=51, velocity=95, time=0),
    Message('note_off', channel=9, note=40, velocity=95, time=0),
    Message('note_off', channel=9, note=40, velocity=95, time=0),
    Message('note_on', channel=9, note=36, velocity=95, time=0),
    Message('note_on', channel=9, note=36, velocity=95, time=0),
    Message('note_off', channel=9, note=36, velocity=95, time=480),
    Message('note_off', channel=9, note=36, velocity=95, time=0),
    Message('note_on', channel=9, note=49, velocity=95, time=0),
    Message('note_on', channel=9, note=36, velocity=95, time=0),
    Message('note_on', channel=9, note=36, velocity=95, time=0),
    Message('note_off', channel=9, note=49, velocity=95, time=480),
    Message('note_off', channel=9, note=36, velocity=95, time=0),
    Message('note_off', channel=9, note=36, velocity=95, time=0),
    Message('note_on', channel=9, note=57, velocity=95, time=0),
    Message('note_on', channel=9, note=36, velocity=95, time=0),
    Message('note_on', channel=9, note=36, velocity=95, time=0),
    Message('note_off', channel=9, note=57, velocity=95, time=480),
    Message('note_off', channel=9, note=36, velocity=95, time=0),
    Message('note_off', channel=9, note=36, velocity=95, time=0),
    Message('note_on', channel=9, note=54, velocity=95, time=0),
    Message('note_on', channel=9, note=51, velocity=95, time=0),
    Message('note_on', channel=9, note=40, velocity=95, time=0),
    Message('note_on', channel=9, note=40, velocity=95, time=0),
    Message('note_off', channel=9, note=54, velocity=95, time=480),
    Message('note_off', channel=9, note=51, velocity=95, time=0),
    Message('note_off', channel=9, note=40, velocity=95, time=0),
    Message('note_off', channel=9, note=40, velocity=95, time=0),
    Message('note_on', channel=9, note=36, velocity=95, time=0),
    Message('note_on', channel=9, note=36, velocity=95, time=0),
    Message('note_off', channel=9, note=36, velocity=95, time=480),
    Message('note_off', channel=9, note=36, velocity=95, time=0),
    Message('note_on', channel=9, note=49, velocity=95, time=0),
    Message('note_on', channel=9, note=36, velocity=95, time=0),
    Message('note_on', channel=9, note=36, velocity=95, time=0),
    Message('note_off', channel=9, note=49, velocity=95, time=480),
    Message('note_off', channel=9, note=36, velocity=95, time=0),
    Message('note_off', channel=9, note=36, velocity=95, time=0),
    Message('note_on', channel=9, note=57, velocity=95, time=0),
    Message('note_on', channel=9, note=36, velocity=95, time=0),
    Message('note_on', channel=9, note=36, velocity=95, time=0),
    Message('note_off', channel=9, note=57, velocity=95, time=480),
    Message('note_off', channel=9, note=36, velocity=95, time=0),
    Message('note_off', channel=9, note=36, velocity=95, time=0),
    Message('note_on', channel=9, note=54, velocity=95, time=0),
    Message('note_on', channel=9, note=51, velocity=95, time=0),
    Message('note_on', channel=9, note=40, velocity=95, time=0),
    Message('note_on', channel=9, note=40, velocity=95, time=0),
    Message('note_off', channel=9, note=54, velocity=95, time=480),
    Message('note_off', channel=9, note=40, velocity=95, time=0),
    Message('note_off', channel=9, note=40, velocity=95, time=0),
    Message('note_on', channel=9, note=36, velocity=95, time=0),
    Message('note_on', channel=9, note=36, velocity=95, time=0),
    Message('note_off', channel=9, note=51, velocity=95, time=480),
    Message('note_off', channel=9, note=36, velocity=95, time=0),
    Message('note_off', channel=9, note=36, velocity=95, time=0),
    Message('note_on', channel=9, note=49, velocity=95, time=0),
    Message('note_on', channel=9, note=36, velocity=95, time=0),
    Message('note_on', channel=9, note=36, velocity=95, time=0),
    Message('note_off', channel=9, note=49, velocity=95, time=480),
    Message('note_off', channel=9, note=36, velocity=95, time=0),
    Message('note_off', channel=9, note=36, velocity=95, time=0),
    Message('note_on', channel=9, note=57, velocity=95, time=0),
    Message('note_on', channel=9, note=36, velocity=95, time=0),
    Message('note_on', channel=9, note=36, velocity=95, time=0),
    Message('note_off', channel=9, note=57, velocity=95, time=480),
    Message('note_off', channel=9, note=36, velocity=95, time=0),
    Message('note_off', channel=9, note=36, velocity=95, time=0),
    Message('note_on', channel=9, note=54, velocity=95, time=0),
    Message('note_on', channel=9, note=51, velocity=95, time=0),
    Message('note_on', channel=9, note=40, velocity=95, time=0),
    Message('note_on', channel=9, note=40, velocity=95, time=0),
    Message('note_off', channel=9, note=54, velocity=95, time=480),
    Message('note_off', channel=9, note=40, velocity=95, time=0),
    Message('note_off', channel=9, note=40, velocity=95, time=0),
    Message('note_on', channel=9, note=36, velocity=95, time=0),
    Message('note_on', channel=9, note=36, velocity=95, time=0),
    Message('note_off', channel=9, note=51, velocity=95, time=480),
    Message('note_off', channel=9, note=36, velocity=95, time=0),
    Message('note_off', channel=9, note=36, velocity=95, time=0),
    Message('note_on', channel=9, note=49, velocity=95, time=0),
    Message('note_on', channel=9, note=36, velocity=95, time=0),
    Message('note_on', channel=9, note=36, velocity=95, time=0),
    Message('note_off', channel=9, note=49, velocity=95, time=480),
    Message('note_off', channel=9, note=36, velocity=95, time=0),
    Message('note_off', channel=9, note=36, velocity=95, time=0),
    Message('note_on', channel=9, note=57, velocity=95, time=0),
    Message('note_on', channel=9, note=36, velocity=95, time=0),
    Message('note_on', channel=9, note=36, velocity=95, time=0),
    Message('note_off', channel=9, note=57, velocity=95, time=480),
    Message('note_off', channel=9, note=36, velocity=95, time=0),
    Message('note_off', channel=9, note=36, velocity=95, time=0),
    Message('note_on', channel=9, note=54, velocity=95, time=0),
    Message('note_on', channel=9, note=51, velocity=95, time=0),
    Message('note_on', channel=9, note=40, velocity=95, time=0),
    Message('note_on', channel=9, note=40, velocity=95, time=0),
    Message('note_off', channel=9, note=54, velocity=95, time=480),
    Message('note_off', channel=9, note=51, velocity=95, time=0),
    Message('note_off', channel=9, note=40, velocity=95, time=0),
    Message('note_off', channel=9, note=40, velocity=95, time=0),
    Message('note_on', channel=9, note=36, velocity=95, time=0),
    Message('note_on', channel=9, note=36, velocity=95, time=0),
    Message('note_off', channel=9, note=36, velocity=95, time=480),
    Message('note_off', channel=9, note=36, velocity=95, time=0),
    Message('note_on', channel=9, note=49, velocity=95, time=0),
    Message('note_on', channel=9, note=36, velocity=95, time=0),
    Message('note_on', channel=9, note=36, velocity=95, time=0),
    Message('note_off', channel=9, note=49, velocity=95, time=480),
    Message('note_off', channel=9, note=36, velocity=95, time=0),
    Message('note_off', channel=9, note=36, velocity=95, time=0),
    Message('note_on', channel=9, note=57, velocity=95, time=0),
    Message('note_on', channel=9, note=36, velocity=95, time=0),
    Message('note_on', channel=9, note=36, velocity=95, time=0),
    Message('note_off', channel=9, note=57, velocity=95, time=480),
    Message('note_off', channel=9, note=36, velocity=95, time=0),
    Message('note_off', channel=9, note=36, velocity=95, time=0),
    Message('note_on', channel=9, note=54, velocity=95, time=0),
    Message('note_on', channel=9, note=51, velocity=95, time=0),
    Message('note_on', channel=9, note=40, velocity=95, time=0),
    Message('note_on', channel=9, note=40, velocity=95, time=0),
    Message('note_off', channel=9, note=54, velocity=95, time=480),
    Message('note_off', channel=9, note=51, velocity=95, time=0),
    Message('note_off', channel=9, note=40, velocity=95, time=0),
    Message('note_off', channel=9, note=40, velocity=95, time=0),
    Message('note_on', channel=9, note=36, velocity=95, time=0),
    Message('note_on', channel=9, note=36, velocity=95, time=0),
    Message('note_off', channel=9, note=36, velocity=95, time=480),
    Message('note_off', channel=9, note=36, velocity=95, time=0),
    Message('note_on', channel=9, note=49, velocity=95, time=0),
    Message('note_on', channel=9, note=36, velocity=95, time=0),
    Message('note_on', channel=9, note=36, velocity=95, time=0),
    Message('note_off', channel=9, note=49, velocity=95, time=480),
    Message('note_off', channel=9, note=36, velocity=95, time=0),
    Message('note_off', channel=9, note=36, velocity=95, time=0),
    Message('note_on', channel=9, note=57, velocity=95, time=0),
    Message('note_on', channel=9, note=36, velocity=95, time=0),
    Message('note_on', channel=9, note=36, velocity=95, time=0),
    Message('note_off', channel=9, note=57, velocity=95, time=480),
    Message('note_off', channel=9, note=36, velocity=95, time=0),
    Message('note_off', channel=9, note=36, velocity=95, time=0),
    Message('note_on', channel=9, note=54, velocity=95, time=0),
    Message('note_on', channel=9, note=51, velocity=95, time=0),
    Message('note_on', channel=9, note=40, velocity=95, time=0),
    Message('note_on', channel=9, note=40, velocity=95, time=0),
    Message('note_off', channel=9, note=54, velocity=95, time=480),
    Message('note_off', channel=9, note=51, velocity=95, time=0),
    Message('note_off', channel=9, note=40, velocity=95, time=0),
    Message('note_off', channel=9, note=40, velocity=95, time=0),
    Message('note_on', channel=9, note=36, velocity=95, time=0),
    Message('note_on', channel=9, note=36, velocity=95, time=0),
    Message('note_off', channel=9, note=36, velocity=95, time=480),
    Message('note_off', channel=9, note=36, velocity=95, time=0),
    Message('note_on', channel=9, note=49, velocity=95, time=0),
    Message('note_on', channel=9, note=36, velocity=95, time=0),
    Message('note_on', channel=9, note=36, velocity=95, time=0),
    Message('note_off', channel=9, note=49, velocity=95, time=480),
    Message('note_off', channel=9, note=36, velocity=95, time=0),
    Message('note_off', channel=9, note=36, velocity=95, time=0),
    Message('note_on', channel=9, note=57, velocity=95, time=0),
    Message('note_on', channel=9, note=36, velocity=95, time=0),
    Message('note_on', channel=9, note=36, velocity=95, time=0),
    Message('note_off', channel=9, note=57, velocity=95, time=480),
    Message('note_off', channel=9, note=36, velocity=95, time=0),
    Message('note_off', channel=9, note=36, velocity=95, time=0),
    Message('note_on', channel=9, note=54, velocity=95, time=0),
    Message('note_on', channel=9, note=51, velocity=95, time=0),
    Message('note_on', channel=9, note=40, velocity=95, time=0),
    Message('note_on', channel=9, note=40, velocity=95, time=0),
    Message('note_off', channel=9, note=54, velocity=95, time=480),
    Message('note_off', channel=9, note=51, velocity=95, time=0),
    Message('note_off', channel=9, note=40, velocity=95, time=0),
    Message('note_off', channel=9, note=40, velocity=95, time=0),
    Message('note_on', channel=9, note=36, velocity=95, time=0),
    Message('note_on', channel=9, note=36, velocity=95, time=0),
    Message('note_off', channel=9, note=36, velocity=95, time=480),
    Message('note_off', channel=9, note=36, velocity=95, time=0),
    Message('note_on', channel=9, note=49, velocity=95, time=0),
    Message('note_on', channel=9, note=36, velocity=95, time=0),
    Message('note_on', channel=9, note=36, velocity=95, time=0),
    Message('note_off', channel=9, note=49, velocity=95, time=480),
    Message('note_off', channel=9, note=36, velocity=95, time=0),
    Message('note_off', channel=9, note=36, velocity=95, time=0),
    Message('note_on', channel=9, note=57, velocity=95, time=0),
    Message('note_on', channel=9, note=36, velocity=95, time=0),
    Message('note_on', channel=9, note=36, velocity=95, time=0),
    Message('note_off', channel=9, note=57, velocity=95, time=480),
    Message('note_off', channel=9, note=36, velocity=95, time=0),
    Message('note_off', channel=9, note=36, velocity=95, time=0),
    Message('note_on', channel=9, note=54, velocity=95, time=0),
    Message('note_on', channel=9, note=51, velocity=95, time=0),
    Message('note_on', channel=9, note=40, velocity=95, time=0),
    Message('note_on', channel=9, note=40, velocity=95, time=0),
    Message('note_off', channel=9, note=54, velocity=95, time=480),
    Message('note_off', channel=9, note=51, velocity=95, time=0),
    Message('note_off', channel=9, note=40, velocity=95, time=0),
    Message('note_off', channel=9, note=40, velocity=95, time=0),
    Message('note_on', channel=9, note=36, velocity=95, time=0),
    Message('note_on', channel=9, note=36, velocity=95, time=0),
    Message('note_off', channel=9, note=36, velocity=95, time=480),
    Message('note_off', channel=9, note=36, velocity=95, time=0),
    Message('note_on', channel=9, note=49, velocity=95, time=0),
    Message('note_on', channel=9, note=36, velocity=95, time=0),
    Message('note_on', channel=9, note=36, velocity=95, time=0),
    Message('note_off', channel=9, note=49, velocity=95, time=480),
    Message('note_off', channel=9, note=36, velocity=95, time=0),
    Message('note_off', channel=9, note=36, velocity=95, time=0),
    Message('note_on', channel=9, note=57, velocity=95, time=0),
    Message('note_on', channel=9, note=36, velocity=95, time=0),
    Message('note_on', channel=9, note=36, velocity=95, time=0),
    Message('note_off', channel=9, note=57, velocity=95, time=480),
    Message('note_off', channel=9, note=36, velocity=95, time=0),
    Message('note_off', channel=9, note=36, velocity=95, time=0),
    Message('note_on', channel=9, note=54, velocity=95, time=0),
    Message('note_on', channel=9, note=51, velocity=95, time=0),
    Message('note_on', channel=9, note=40, velocity=95, time=0),
    Message('note_on', channel=9, note=40, velocity=95, time=0),
    Message('note_off', channel=9, note=54, velocity=95, time=480),
    Message('note_off', channel=9, note=51, velocity=95, time=0),
    Message('note_off', channel=9, note=40, velocity=95, time=0),
    Message('note_off', channel=9, note=40, velocity=95, time=0),
    Message('note_on', channel=9, note=36, velocity=95, time=0),
    Message('note_on', channel=9, note=36, velocity=95, time=0),
    Message('note_off', channel=9, note=36, velocity=95, time=480),
    Message('note_off', channel=9, note=36, velocity=95, time=0),
    Message('note_on', channel=9, note=49, velocity=95, time=0),
    Message('note_on', channel=9, note=36, velocity=95, time=0),
    Message('note_on', channel=9, note=36, velocity=95, time=0),
    Message('note_off', channel=9, note=49, velocity=95, time=480),
    Message('note_off', channel=9, note=36, velocity=95, time=0),
    Message('note_off', channel=9, note=36, velocity=95, time=0),
    Message('note_on', channel=9, note=57, velocity=95, time=0),
    Message('note_on', channel=9, note=36, velocity=95, time=0),
    Message('note_on', channel=9, note=36, velocity=95, time=0),
    Message('note_off', channel=9, note=57, velocity=95, time=480),
    Message('note_off', channel=9, note=36, velocity=95, time=0),
    Message('note_off', channel=9, note=36, velocity=95, time=0),
    Message('note_on', channel=9, note=54, velocity=95, time=0),
    Message('note_on', channel=9, note=51, velocity=95, time=0),
    Message('note_on', channel=9, note=40, velocity=95, time=0),
    Message('note_on', channel=9, note=40, velocity=95, time=0),
    Message('note_off', channel=9, note=54, velocity=95, time=480),
    Message('note_off', channel=9, note=40, velocity=95, time=0),
    Message('note_off', channel=9, note=40, velocity=95, time=0),
    Message('note_on', channel=9, note=36, velocity=95, time=0),
    Message('note_on', channel=9, note=36, velocity=95, time=0),
    Message('note_off', channel=9, note=51, velocity=95, time=480),
    Message('note_off', channel=9, note=36, velocity=95, time=0),
    Message('note_off', channel=9, note=36, velocity=95, time=0),
    Message('note_on', channel=9, note=49, velocity=95, time=0),
    Message('note_on', channel=9, note=36, velocity=95, time=0),
    Message('note_on', channel=9, note=36, velocity=95, time=0),
    Message('note_off', channel=9, note=49, velocity=95, time=480),
    Message('note_off', channel=9, note=36, velocity=95, time=0),
    Message('note_off', channel=9, note=36, velocity=95, time=0),
    Message('note_on', channel=9, note=57, velocity=95, time=0),
    Message('note_on', channel=9, note=36, velocity=95, time=0),
    Message('note_on', channel=9, note=36, velocity=95, time=0),
    Message('note_off', channel=9, note=57, velocity=95, time=480),
    Message('note_off', channel=9, note=36, velocity=95, time=0),
    Message('note_off', channel=9, note=36, velocity=95, time=0),
    Message('note_on', channel=9, note=54, velocity=95, time=0),
    Message('note_on', channel=9, note=51, velocity=95, time=0),
    Message('note_on', channel=9, note=40, velocity=95, time=0),
    Message('note_on', channel=9, note=40, velocity=95, time=0),
    Message('note_off', channel=9, note=54, velocity=95, time=480),
    Message('note_off', channel=9, note=40, velocity=95, time=0),
    Message('note_off', channel=9, note=40, velocity=95, time=0),
    Message('note_on', channel=9, note=36, velocity=95, time=0),
    Message('note_on', channel=9, note=36, velocity=95, time=0),
    Message('note_off', channel=9, note=51, velocity=95, time=480),
    Message('note_off', channel=9, note=36, velocity=95, time=0),
    Message('note_off', channel=9, note=36, velocity=95, time=0),
    Message('note_on', channel=9, note=49, velocity=95, time=0),
    Message('note_on', channel=9, note=36, velocity=95, time=0),
    Message('note_on', channel=9, note=36, velocity=95, time=0),
    Message('note_off', channel=9, note=49, velocity=95, time=480),
    Message('note_off', channel=9, note=36, velocity=95, time=0),
    Message('note_off', channel=9, note=36, velocity=95, time=0),
    Message('note_on', channel=9, note=57, velocity=95, time=0),
    Message('note_on', channel=9, note=36, velocity=95, time=0),
    Message('note_on', channel=9, note=36, velocity=95, time=0),
    Message('note_off', channel=9, note=57, velocity=95, time=480),
    Message('note_off', channel=9, note=36, velocity=95, time=0),
    Message('note_off', channel=9, note=36, velocity=95, time=0),
    Message('note_on', channel=9, note=54, velocity=95, time=0),
    Message('note_on', channel=9, note=51, velocity=95, time=0),
    Message('note_on', channel=9, note=40, velocity=95, time=0),
    Message('note_on', channel=9, note=40, velocity=95, time=0),
    Message('note_off', channel=9, note=54, velocity=95, time=480),
    Message('note_off', channel=9, note=51, velocity=95, time=0),
    Message('note_off', channel=9, note=40, velocity=95, time=0),
    Message('note_off', channel=9, note=40, velocity=95, time=0),
    Message('note_on', channel=9, note=36, velocity=95, time=0),
    Message('note_on', channel=9, note=36, velocity=95, time=0),
    Message('note_off', channel=9, note=36, velocity=95, time=480),
    Message('note_off', channel=9, note=36, velocity=95, time=0),
    Message('note_on', channel=9, note=49, velocity=95, time=0),
    Message('note_on', channel=9, note=36, velocity=95, time=0),
    Message('note_on', channel=9, note=36, velocity=95, time=0),
    Message('note_off', channel=9, note=49, velocity=95, time=480),
    Message('note_off', channel=9, note=36, velocity=95, time=0),
    Message('note_off', channel=9, note=36, velocity=95, time=0),
    Message('note_on', channel=9, note=57, velocity=95, time=0),
    Message('note_on', channel=9, note=36, velocity=95, time=0),
    Message('note_on', channel=9, note=36, velocity=95, time=0),
    Message('note_off', channel=9, note=57, velocity=95, time=480),
    Message('note_off', channel=9, note=36, velocity=95, time=0),
    Message('note_off', channel=9, note=36, velocity=95, time=0),
    Message('note_on', channel=9, note=54, velocity=95, time=0),
    Message('note_on', channel=9, note=51, velocity=95, time=0),
    Message('note_on', channel=9, note=40, velocity=95, time=0),
    Message('note_on', channel=9, note=40, velocity=95, time=0),
    Message('note_off', channel=9, note=54, velocity=95, time=480),
    Message('note_off', channel=9, note=51, velocity=95, time=0),
    Message('note_off', channel=9, note=40, velocity=95, time=0),
    Message('note_off', channel=9, note=40, velocity=95, time=0),
    Message('note_on', channel=9, note=36, velocity=95, time=0),
    Message('note_on', channel=9, note=36, velocity=95, time=0),
    Message('note_off', channel=9, note=36, velocity=95, time=480),
    Message('note_off', channel=9, note=36, velocity=95, time=0),
    Message('note_on', channel=9, note=49, velocity=95, time=0),
    Message('note_on', channel=9, note=36, velocity=95, time=0),
    Message('note_on', channel=9, note=36, velocity=95, time=0),
    Message('note_off', channel=9, note=49, velocity=95, time=480),
    Message('note_off', channel=9, note=36, velocity=95, time=0),
    Message('note_off', channel=9, note=36, velocity=95, time=0),
    Message('note_on', channel=9, note=57, velocity=95, time=0),
    Message('note_on', channel=9, note=36, velocity=95, time=0),
    Message('note_on', channel=9, note=36, velocity=95, time=0),
    Message('note_off', channel=9, note=57, velocity=95, time=480),
    Message('note_off', channel=9, note=36, velocity=95, time=0),
    Message('note_off', channel=9, note=36, velocity=95, time=0),
    Message('note_on', channel=9, note=54, velocity=95, time=0),
    Message('note_on', channel=9, note=51, velocity=95, time=0),
    Message('note_on', channel=9, note=40, velocity=95, time=0),
    Message('note_on', channel=9, note=40, velocity=95, time=0),
    Message('note_off', channel=9, note=54, velocity=95, time=480),
    Message('note_off', channel=9, note=51, velocity=95, time=0),
    Message('note_off', channel=9, note=40, velocity=95, time=0),
    Message('note_off', channel=9, note=40, velocity=95, time=0),
    Message('note_on', channel=9, note=36, velocity=95, time=0),
    Message('note_on', channel=9, note=36, velocity=95, time=0),
    Message('note_off', channel=9, note=36, velocity=95, time=480),
    Message('note_off', channel=9, note=36, velocity=95, time=0),
    Message('note_on', channel=9, note=49, velocity=95, time=0),
    Message('note_on', channel=9, note=36, velocity=95, time=0),
    Message('note_on', channel=9, note=36, velocity=95, time=0),
    Message('note_off', channel=9, note=49, velocity=95, time=480),
    Message('note_off', channel=9, note=36, velocity=95, time=0),
    Message('note_off', channel=9, note=36, velocity=95, time=0),
    Message('note_on', channel=9, note=57, velocity=95, time=0),
    Message('note_on', channel=9, note=36, velocity=95, time=0),
    Message('note_on', channel=9, note=36, velocity=95, time=0),
    Message('note_off', channel=9, note=57, velocity=95, time=480),
    Message('note_off', channel=9, note=36, velocity=95, time=0),
    Message('note_off', channel=9, note=36, velocity=95, time=0),
    Message('note_on', channel=9, note=54, velocity=95, time=0),
    Message('note_on', channel=9, note=51, velocity=95, time=0),
    Message('note_on', channel=9, note=40, velocity=95, time=0),
    Message('note_on', channel=9, note=40, velocity=95, time=0),
    Message('note_off', channel=9, note=54, velocity=95, time=480),
    Message('note_off', channel=9, note=51, velocity=95, time=0),
    Message('note_off', channel=9, note=40, velocity=95, time=0),
    Message('note_off', channel=9, note=40, velocity=95, time=0),
    Message('note_on', channel=9, note=36, velocity=95, time=0),
    Message('note_on', channel=9, note=36, velocity=95, time=0),
    Message('note_off', channel=9, note=36, velocity=95, time=480),
    Message('note_off', channel=9, note=36, velocity=95, time=0),
    Message('note_on', channel=9, note=49, velocity=95, time=0),
    Message('note_on', channel=9, note=36, velocity=95, time=0),
    Message('note_on', channel=9, note=36, velocity=95, time=0),
    Message('note_off', channel=9, note=49, velocity=95, time=480),
    Message('note_off', channel=9, note=36, velocity=95, time=0),
    Message('note_off', channel=9, note=36, velocity=95, time=0),
    Message('note_on', channel=9, note=57, velocity=95, time=0),
    Message('note_on', channel=9, note=36, velocity=95, time=0),
    Message('note_on', channel=9, note=36, velocity=95, time=0),
    Message('note_off', channel=9, note=57, velocity=95, time=480),
    Message('note_off', channel=9, note=36, velocity=95, time=0),
    Message('note_off', channel=9, note=36, velocity=95, time=0),
    Message('note_on', channel=9, note=54, velocity=95, time=0),
    Message('note_on', channel=9, note=51, velocity=95, time=0),
    Message('note_on', channel=9, note=40, velocity=95, time=0),
    Message('note_on', channel=9, note=40, velocity=95, time=0),
    Message('note_off', channel=9, note=54, velocity=95, time=480),
    Message('note_off', channel=9, note=51, velocity=95, time=0),
    Message('note_off', channel=9, note=40, velocity=95, time=0),
    Message('note_off', channel=9, note=40, velocity=95, time=0),
    Message('note_on', channel=9, note=36, velocity=95, time=0),
    Message('note_on', channel=9, note=36, velocity=95, time=0),
    Message('note_off', channel=9, note=36, velocity=95, time=480),
    Message('note_off', channel=9, note=36, velocity=95, time=0),
    Message('note_on', channel=9, note=49, velocity=95, time=0),
    Message('note_on', channel=9, note=36, velocity=95, time=0),
    Message('note_on', channel=9, note=36, velocity=95, time=0),
    Message('note_off', channel=9, note=49, velocity=95, time=480),
    Message('note_off', channel=9, note=36, velocity=95, time=0),
    Message('note_off', channel=9, note=36, velocity=95, time=0),
    Message('note_on', channel=9, note=57, velocity=95, time=0),
    Message('note_on', channel=9, note=36, velocity=95, time=0),
    Message('note_on', channel=9, note=36, velocity=95, time=0),
    Message('note_off', channel=9, note=57, velocity=95, time=480),
    Message('note_off', channel=9, note=36, velocity=95, time=0),
    Message('note_off', channel=9, note=36, velocity=95, time=0),
    Message('note_on', channel=9, note=54, velocity=95, time=0),
    Message('note_on', channel=9, note=51, velocity=95, time=0),
    Message('note_on', channel=9, note=40, velocity=95, time=0),
    Message('note_on', channel=9, note=40, velocity=95, time=0),
    Message('note_off', channel=9, note=54, velocity=95, time=480),
    Message('note_off', channel=9, note=51, velocity=95, time=0),
    Message('note_off', channel=9, note=40, velocity=95, time=0),
    Message('note_off', channel=9, note=40, velocity=95, time=0),
    Message('note_on', channel=9, note=36, velocity=95, time=0),
    Message('note_on', channel=9, note=36, velocity=95, time=0),
    Message('note_off', channel=9, note=36, velocity=95, time=480),
    Message('note_off', channel=9, note=36, velocity=95, time=0),
    Message('note_on', channel=9, note=49, velocity=95, time=0),
    Message('note_on', channel=9, note=36, velocity=95, time=0),
    Message('note_on', channel=9, note=36, velocity=95, time=0),
    Message('note_off', channel=9, note=49, velocity=95, time=480),
    Message('note_off', channel=9, note=36, velocity=95, time=0),
    Message('note_off', channel=9, note=36, velocity=95, time=0),
    Message('note_on', channel=9, note=57, velocity=95, time=0),
    Message('note_on', channel=9, note=36, velocity=95, time=0),
    Message('note_on', channel=9, note=36, velocity=95, time=0),
    Message('note_off', channel=9, note=57, velocity=95, time=480),
    Message('note_off', channel=9, note=36, velocity=95, time=0),
    Message('note_off', channel=9, note=36, velocity=95, time=0),
    Message('note_on', channel=9, note=54, velocity=95, time=0),
    Message('note_on', channel=9, note=51, velocity=95, time=0),
    Message('note_on', channel=9, note=40, velocity=95, time=0),
    Message('note_on', channel=9, note=40, velocity=95, time=0),
    Message('note_off', channel=9, note=54, velocity=95, time=480),
    Message('note_off', channel=9, note=40, velocity=95, time=0),
    Message('note_off', channel=9, note=40, velocity=95, time=0),
    Message('note_on', channel=9, note=36, velocity=95, time=0),
    Message('note_on', channel=9, note=36, velocity=95, time=0),
    Message('note_off', channel=9, note=51, velocity=95, time=480),
    Message('note_off', channel=9, note=36, velocity=95, time=0),
    Message('note_off', channel=9, note=36, velocity=95, time=0),
    Message('note_on', channel=9, note=49, velocity=95, time=0),
    Message('note_on', channel=9, note=36, velocity=95, time=0),
    Message('note_on', channel=9, note=36, velocity=95, time=0),
    Message('note_off', channel=9, note=49, velocity=95, time=480),
    Message('note_off', channel=9, note=36, velocity=95, time=0),
    Message('note_off', channel=9, note=36, velocity=95, time=0),
    Message('note_on', channel=9, note=57, velocity=95, time=0),
    Message('note_on', channel=9, note=36, velocity=95, time=0),
    Message('note_on', channel=9, note=36, velocity=95, time=0),
    Message('note_off', channel=9, note=57, velocity=95, time=480),
    Message('note_off', channel=9, note=36, velocity=95, time=0),
    Message('note_off', channel=9, note=36, velocity=95, time=0),
    Message('note_on', channel=9, note=54, velocity=95, time=0),
    Message('note_on', channel=9, note=51, velocity=95, time=0),
    Message('note_on', channel=9, note=40, velocity=95, time=0),
    Message('note_on', channel=9, note=40, velocity=95, time=0),
    Message('note_off', channel=9, note=54, velocity=95, time=480),
    Message('note_off', channel=9, note=40, velocity=95, time=0),
    Message('note_off', channel=9, note=40, velocity=95, time=0),
    Message('note_on', channel=9, note=36, velocity=95, time=0),
    Message('note_on', channel=9, note=36, velocity=95, time=0),
    Message('note_off', channel=9, note=51, velocity=95, time=480),
    Message('note_off', channel=9, note=36, velocity=95, time=0),
    Message('note_off', channel=9, note=36, velocity=95, time=0),
    Message('note_on', channel=9, note=49, velocity=95, time=0),
    Message('note_on', channel=9, note=36, velocity=95, time=0),
    Message('note_on', channel=9, note=36, velocity=95, time=0),
    Message('note_off', channel=9, note=49, velocity=95, time=480),
    Message('note_off', channel=9, note=36, velocity=95, time=0),
    Message('note_off', channel=9, note=36, velocity=95, time=0),
    Message('note_on', channel=9, note=57, velocity=95, time=0),
    Message('note_on', channel=9, note=36, velocity=95, time=0),
    Message('note_on', channel=9, note=36, velocity=95, time=0),
    Message('note_off', channel=9, note=57, velocity=95, time=480),
    Message('note_off', channel=9, note=36, velocity=95, time=0),
    Message('note_off', channel=9, note=36, velocity=95, time=0),
    Message('note_on', channel=9, note=54, velocity=95, time=0),
    Message('note_on', channel=9, note=51, velocity=95, time=0),
    Message('note_on', channel=9, note=40, velocity=95, time=0),
    Message('note_on', channel=9, note=40, velocity=95, time=0),
    Message('note_off', channel=9, note=54, velocity=95, time=480),
    Message('note_off', channel=9, note=51, velocity=95, time=0),
    Message('note_off', channel=9, note=40, velocity=95, time=0),
    Message('note_off', channel=9, note=40, velocity=95, time=0),
    Message('note_on', channel=9, note=36, velocity=95, time=0),
    Message('note_on', channel=9, note=36, velocity=95, time=0),
    Message('note_off', channel=9, note=36, velocity=95, time=480),
    Message('note_off', channel=9, note=36, velocity=95, time=0),
    Message('note_on', channel=9, note=49, velocity=95, time=0),
    Message('note_on', channel=9, note=36, velocity=95, time=0),
    Message('note_on', channel=9, note=36, velocity=95, time=0),
    Message('note_off', channel=9, note=49, velocity=95, time=480),
    Message('note_off', channel=9, note=36, velocity=95, time=0),
    Message('note_off', channel=9, note=36, velocity=95, time=0),
    Message('note_on', channel=9, note=57, velocity=95, time=0),
    Message('note_on', channel=9, note=36, velocity=95, time=0),
    Message('note_on', channel=9, note=36, velocity=95, time=0),
    Message('note_off', channel=9, note=57, velocity=95, time=480),
    Message('note_off', channel=9, note=36, velocity=95, time=0),
    Message('note_off', channel=9, note=36, velocity=95, time=0),
    Message('note_on', channel=9, note=54, velocity=95, time=0),
    Message('note_on', channel=9, note=51, velocity=95, time=0),
    Message('note_on', channel=9, note=40, velocity=95, time=0),
    Message('note_on', channel=9, note=40, velocity=95, time=0),
    Message('note_off', channel=9, note=54, velocity=95, time=480),
    Message('note_off', channel=9, note=51, velocity=95, time=0),
    Message('note_off', channel=9, note=40, velocity=95, time=0),
    Message('note_off', channel=9, note=40, velocity=95, time=0),
    Message('note_on', channel=9, note=36, velocity=95, time=0),
    Message('note_on', channel=9, note=36, velocity=95, time=0),
    Message('note_off', channel=9, note=36, velocity=95, time=480),
    Message('note_off', channel=9, note=36, velocity=95, time=0),
    Message('note_on', channel=9, note=49, velocity=95, time=0),
    Message('note_on', channel=9, note=36, velocity=95, time=0),
    Message('note_on', channel=9, note=36, velocity=95, time=0),
    Message('note_off', channel=9, note=49, velocity=95, time=480),
    Message('note_off', channel=9, note=36, velocity=95, time=0),
    Message('note_off', channel=9, note=36, velocity=95, time=0),
    Message('note_on', channel=9, note=57, velocity=95, time=0),
    Message('note_on', channel=9, note=36, velocity=95, time=0),
    Message('note_on', channel=9, note=36, velocity=95, time=0),
    Message('note_off', channel=9, note=57, velocity=95, time=480),
    Message('note_off', channel=9, note=36, velocity=95, time=0),
    Message('note_off', channel=9, note=36, velocity=95, time=0),
    Message('note_on', channel=9, note=54, velocity=95, time=0),
    Message('note_on', channel=9, note=51, velocity=95, time=0),
    Message('note_on', channel=9, note=40, velocity=95, time=0),
    Message('note_on', channel=9, note=40, velocity=95, time=0),
    Message('note_off', channel=9, note=54, velocity=95, time=480),
    Message('note_off', channel=9, note=51, velocity=95, time=0),
    Message('note_off', channel=9, note=40, velocity=95, time=0),
    Message('note_off', channel=9, note=40, velocity=95, time=0),
    Message('note_on', channel=9, note=36, velocity=95, time=0),
    Message('note_on', channel=9, note=36, velocity=95, time=0),
    Message('note_off', channel=9, note=36, velocity=95, time=480),
    Message('note_off', channel=9, note=36, velocity=95, time=0),
    Message('note_on', channel=9, note=49, velocity=95, time=0),
    Message('note_on', channel=9, note=36, velocity=95, time=0),
    Message('note_on', channel=9, note=36, velocity=95, time=0),
    Message('note_off', channel=9, note=49, velocity=95, time=480),
    Message('note_off', channel=9, note=36, velocity=95, time=0),
    Message('note_off', channel=9, note=36, velocity=95, time=0),
    Message('note_on', channel=9, note=57, velocity=95, time=0),
    Message('note_on', channel=9, note=36, velocity=95, time=0),
    Message('note_on', channel=9, note=36, velocity=95, time=0),
    Message('note_off', channel=9, note=57, velocity=95, time=480),
    Message('note_off', channel=9, note=36, velocity=95, time=0),
    Message('note_off', channel=9, note=36, velocity=95, time=0),
    Message('note_on', channel=9, note=54, velocity=95, time=0),
    Message('note_on', channel=9, note=51, velocity=95, time=0),
    Message('note_on', channel=9, note=40, velocity=95, time=0),
    Message('note_on', channel=9, note=40, velocity=95, time=0),
    Message('note_off', channel=9, note=54, velocity=95, time=480),
    Message('note_off', channel=9, note=51, velocity=95, time=0),
    Message('note_off', channel=9, note=40, velocity=95, time=0),
    Message('note_off', channel=9, note=40, velocity=95, time=0),
    Message('note_on', channel=9, note=36, velocity=95, time=0),
    Message('note_on', channel=9, note=36, velocity=95, time=0),
    Message('note_off', channel=9, note=36, velocity=95, time=480),
    Message('note_off', channel=9, note=36, velocity=95, time=0),
    Message('note_on', channel=9, note=49, velocity=95, time=0),
    Message('note_on', channel=9, note=36, velocity=95, time=0),
    Message('note_on', channel=9, note=36, velocity=95, time=0),
    Message('note_off', channel=9, note=49, velocity=95, time=480),
    Message('note_off', channel=9, note=36, velocity=95, time=0),
    Message('note_off', channel=9, note=36, velocity=95, time=0),
    Message('note_on', channel=9, note=57, velocity=95, time=0),
    Message('note_on', channel=9, note=36, velocity=95, time=0),
    Message('note_on', channel=9, note=36, velocity=95, time=0),
    Message('note_off', channel=9, note=57, velocity=95, time=480),
    Message('note_off', channel=9, note=36, velocity=95, time=0),
    Message('note_off', channel=9, note=36, velocity=95, time=0),
    Message('note_on', channel=9, note=54, velocity=95, time=0),
    Message('note_on', channel=9, note=51, velocity=95, time=0),
    Message('note_on', channel=9, note=40, velocity=95, time=0),
    Message('note_on', channel=9, note=40, velocity=95, time=0),
    Message('note_off', channel=9, note=54, velocity=95, time=480),
    Message('note_off', channel=9, note=51, velocity=95, time=0),
    Message('note_off', channel=9, note=40, velocity=95, time=0),
    Message('note_off', channel=9, note=40, velocity=95, time=0),
    Message('note_on', channel=9, note=36, velocity=95, time=0),
    Message('note_on', channel=9, note=36, velocity=95, time=0),
    Message('note_off', channel=9, note=36, velocity=95, time=480),
    Message('note_off', channel=9, note=36, velocity=95, time=0),
    Message('note_on', channel=9, note=49, velocity=95, time=0),
    Message('note_on', channel=9, note=36, velocity=95, time=0),
    Message('note_on', channel=9, note=36, velocity=95, time=0),
    Message('note_off', channel=9, note=49, velocity=95, time=480),
    Message('note_off', channel=9, note=36, velocity=95, time=0),
    Message('note_off', channel=9, note=36, velocity=95, time=0),
    Message('note_on', channel=9, note=57, velocity=95, time=0),
    Message('note_on', channel=9, note=36, velocity=95, time=0),
    Message('note_on', channel=9, note=36, velocity=95, time=0),
    Message('note_off', channel=9, note=57, velocity=95, time=480),
    Message('note_off', channel=9, note=36, velocity=95, time=0),
    Message('note_off', channel=9, note=36, velocity=95, time=0),
    Message('note_on', channel=9, note=54, velocity=95, time=0),
    Message('note_on', channel=9, note=51, velocity=95, time=0),
    Message('note_on', channel=9, note=40, velocity=95, time=0),
    Message('note_on', channel=9, note=40, velocity=95, time=0),
    Message('note_off', channel=9, note=54, velocity=95, time=480),
    Message('note_off', channel=9, note=51, velocity=95, time=0),
    Message('note_off', channel=9, note=40, velocity=95, time=0),
    Message('note_off', channel=9, note=40, velocity=95, time=0),
    Message('note_on', channel=9, note=36, velocity=95, time=0),
    Message('note_on', channel=9, note=36, velocity=95, time=0),
    Message('note_off', channel=9, note=36, velocity=95, time=480),
    Message('note_off', channel=9, note=36, velocity=95, time=0),
    Message('note_on', channel=9, note=49, velocity=95, time=0),
    Message('note_on', channel=9, note=36, velocity=95, time=0),
    Message('note_on', channel=9, note=36, velocity=95, time=0),
    Message('note_off', channel=9, note=49, velocity=95, time=480),
    Message('note_off', channel=9, note=36, velocity=95, time=0),
    Message('note_off', channel=9, note=36, velocity=95, time=0),
    Message('note_on', channel=9, note=57, velocity=95, time=0),
    Message('note_on', channel=9, note=36, velocity=95, time=0),
    Message('note_on', channel=9, note=36, velocity=95, time=0),
    Message('note_off', channel=9, note=57, velocity=95, time=480),
    Message('note_off', channel=9, note=36, velocity=95, time=0),
    Message('note_off', channel=9, note=36, velocity=95, time=0),
    Message('note_on', channel=9, note=54, velocity=95, time=0),
    Message('note_on', channel=9, note=51, velocity=95, time=0),
    Message('note_on', channel=9, note=40, velocity=95, time=0),
    Message('note_on', channel=9, note=40, velocity=95, time=0),
    Message('note_off', channel=9, note=54, velocity=95, time=480),
    Message('note_off', channel=9, note=40, velocity=95, time=0),
    Message('note_off', channel=9, note=40, velocity=95, time=0),
    Message('note_on', channel=9, note=36, velocity=95, time=0),
    Message('note_on', channel=9, note=36, velocity=95, time=0),
    Message('note_off', channel=9, note=51, velocity=95, time=480),
    Message('note_off', channel=9, note=36, velocity=95, time=0),
    Message('note_off', channel=9, note=36, velocity=95, time=0),
    Message('note_on', channel=9, note=49, velocity=95, time=0),
    Message('note_on', channel=9, note=36, velocity=95, time=0),
    Message('note_on', channel=9, note=36, velocity=95, time=0),
    Message('note_off', channel=9, note=49, velocity=95, time=480),
    Message('note_off', channel=9, note=36, velocity=95, time=0),
    Message('note_off', channel=9, note=36, velocity=95, time=0),
    Message('note_on', channel=9, note=57, velocity=95, time=0),
    Message('note_on', channel=9, note=36, velocity=95, time=0),
    Message('note_on', channel=9, note=36, velocity=95, time=0),
    Message('note_off', channel=9, note=57, velocity=95, time=480),
    Message('note_off', channel=9, note=36, velocity=95, time=0),
    Message('note_off', channel=9, note=36, velocity=95, time=0),
    Message('note_on', channel=9, note=54, velocity=95, time=0),
    Message('note_on', channel=9, note=51, velocity=95, time=0),
    Message('note_on', channel=9, note=40, velocity=95, time=0),
    Message('note_on', channel=9, note=40, velocity=95, time=0),
    Message('note_off', channel=9, note=54, velocity=95, time=480),
    Message('note_off', channel=9, note=40, velocity=95, time=0),
    Message('note_off', channel=9, note=40, velocity=95, time=0),
    Message('note_on', channel=9, note=36, velocity=95, time=0),
    Message('note_on', channel=9, note=36, velocity=95, time=0),
    Message('note_off', channel=9, note=51, velocity=95, time=480),
    Message('note_off', channel=9, note=36, velocity=95, time=0),
    Message('note_off', channel=9, note=36, velocity=95, time=0),
    Message('note_on', channel=9, note=49, velocity=95, time=0),
    Message('note_on', channel=9, note=36, velocity=95, time=0),
    Message('note_on', channel=9, note=36, velocity=95, time=0),
    Message('note_off', channel=9, note=49, velocity=95, time=480),
    Message('note_off', channel=9, note=36, velocity=95, time=0),
    Message('note_off', channel=9, note=36, velocity=95, time=0),
    Message('note_on', channel=9, note=57, velocity=95, time=0),
    Message('note_on', channel=9, note=36, velocity=95, time=0),
    Message('note_on', channel=9, note=36, velocity=95, time=0),
    Message('note_off', channel=9, note=57, velocity=95, time=480),
    Message('note_off', channel=9, note=36, velocity=95, time=0),
    Message('note_off', channel=9, note=36, velocity=95, time=0),
    Message('note_on', channel=9, note=54, velocity=95, time=0),
    Message('note_on', channel=9, note=51, velocity=95, time=0),
    Message('note_on', channel=9, note=40, velocity=95, time=0),
    Message('note_on', channel=9, note=40, velocity=95, time=0),
    Message('note_off', channel=9, note=54, velocity=95, time=480),
    Message('note_off', channel=9, note=51, velocity=95, time=0),
    Message('note_off', channel=9, note=40, velocity=95, time=0),
    Message('note_off', channel=9, note=40, velocity=95, time=0),
    Message('note_on', channel=9, note=36, velocity=95, time=0),
    Message('note_on', channel=9, note=36, velocity=95, time=0),
    Message('note_off', channel=9, note=36, velocity=95, time=480),
    Message('note_off', channel=9, note=36, velocity=95, time=0),
    Message('note_on', channel=9, note=49, velocity=95, time=0),
    Message('note_on', channel=9, note=36, velocity=95, time=0),
    Message('note_on', channel=9, note=36, velocity=95, time=0),
    Message('note_off', channel=9, note=49, velocity=95, time=480),
    Message('note_off', channel=9, note=36, velocity=95, time=0),
    Message('note_off', channel=9, note=36, velocity=95, time=0),
    Message('note_on', channel=9, note=57, velocity=95, time=0),
    Message('note_on', channel=9, note=36, velocity=95, time=0),
    Message('note_on', channel=9, note=36, velocity=95, time=0),
    Message('note_off', channel=9, note=57, velocity=95, time=480),
    Message('note_off', channel=9, note=36, velocity=95, time=0),
    Message('note_off', channel=9, note=36, velocity=95, time=0),
    Message('note_on', channel=9, note=54, velocity=95, time=0),
    Message('note_on', channel=9, note=51, velocity=95, time=0),
    Message('note_on', channel=9, note=40, velocity=95, time=0),
    Message('note_on', channel=9, note=40, velocity=95, time=0),
    Message('note_off', channel=9, note=54, velocity=95, time=480),
    Message('note_off', channel=9, note=51, velocity=95, time=0),
    Message('note_off', channel=9, note=40, velocity=95, time=0),
    Message('note_off', channel=9, note=40, velocity=95, time=0),
    Message('note_on', channel=9, note=36, velocity=95, time=0),
    Message('note_on', channel=9, note=36, velocity=95, time=0),
    Message('note_off', channel=9, note=36, velocity=95, time=480),
    Message('note_off', channel=9, note=36, velocity=95, time=0),
    Message('note_on', channel=9, note=49, velocity=95, time=0),
    Message('note_on', channel=9, note=36, velocity=95, time=0),
    Message('note_on', channel=9, note=36, velocity=95, time=0),
    Message('note_off', channel=9, note=49, velocity=95, time=480),
    Message('note_off', channel=9, note=36, velocity=95, time=0),
    Message('note_off', channel=9, note=36, velocity=95, time=0),
    Message('note_on', channel=9, note=57, velocity=95, time=0),
    Message('note_on', channel=9, note=36, velocity=95, time=0),
    Message('note_on', channel=9, note=36, velocity=95, time=0),
    Message('note_off', channel=9, note=57, velocity=95, time=480),
    Message('note_off', channel=9, note=36, velocity=95, time=0),
    Message('note_off', channel=9, note=36, velocity=95, time=0),
    Message('note_on', channel=9, note=54, velocity=95, time=0),
    Message('note_on', channel=9, note=51, velocity=95, time=0),
    Message('note_on', channel=9, note=40, velocity=95, time=0),
    Message('note_on', channel=9, note=40, velocity=95, time=0),
    Message('note_off', channel=9, note=54, velocity=95, time=480),
    Message('note_off', channel=9, note=51, velocity=95, time=0),
    Message('note_off', channel=9, note=40, velocity=95, time=0),
    Message('note_off', channel=9, note=40, velocity=95, time=0),
    Message('note_on', channel=9, note=36, velocity=95, time=0),
    Message('note_on', channel=9, note=36, velocity=95, time=0),
    Message('note_off', channel=9, note=36, velocity=95, time=480),
    Message('note_off', channel=9, note=36, velocity=95, time=0),
    Message('note_on', channel=9, note=49, velocity=95, time=0),
    Message('note_on', channel=9, note=36, velocity=95, time=0),
    Message('note_on', channel=9, note=36, velocity=95, time=0),
    Message('note_off', channel=9, note=49, velocity=95, time=480),
    Message('note_off', channel=9, note=36, velocity=95, time=0),
    Message('note_off', channel=9, note=36, velocity=95, time=0),
    Message('note_on', channel=9, note=57, velocity=95, time=0),
    Message('note_on', channel=9, note=36, velocity=95, time=0),
    Message('note_on', channel=9, note=36, velocity=95, time=0),
    Message('note_off', channel=9, note=57, velocity=95, time=480),
    Message('note_off', channel=9, note=36, velocity=95, time=0),
    Message('note_off', channel=9, note=36, velocity=95, time=0),
    Message('note_on', channel=9, note=54, velocity=95, time=0),
    Message('note_on', channel=9, note=51, velocity=95, time=0),
    Message('note_on', channel=9, note=40, velocity=95, time=0),
    Message('note_on', channel=9, note=40, velocity=95, time=0),
    Message('note_off', channel=9, note=54, velocity=95, time=480),
    Message('note_off', channel=9, note=51, velocity=95, time=0),
    Message('note_off', channel=9, note=40, velocity=95, time=0),
    Message('note_off', channel=9, note=40, velocity=95, time=0),
    Message('note_on', channel=9, note=36, velocity=95, time=0),
    Message('note_on', channel=9, note=36, velocity=95, time=0),
    Message('note_off', channel=9, note=36, velocity=95, time=480),
    Message('note_off', channel=9, note=36, velocity=95, time=0),
    Message('note_on', channel=9, note=49, velocity=95, time=0),
    Message('note_on', channel=9, note=36, velocity=95, time=0),
    Message('note_on', channel=9, note=36, velocity=95, time=0),
    Message('note_off', channel=9, note=49, velocity=95, time=480),
    Message('note_off', channel=9, note=36, velocity=95, time=0),
    Message('note_off', channel=9, note=36, velocity=95, time=0),
    Message('note_on', channel=9, note=57, velocity=95, time=0),
    Message('note_on', channel=9, note=36, velocity=95, time=0),
    Message('note_on', channel=9, note=36, velocity=95, time=0),
    Message('note_off', channel=9, note=57, velocity=95, time=480),
    Message('note_off', channel=9, note=36, velocity=95, time=0),
    Message('note_off', channel=9, note=36, velocity=95, time=0),
    Message('note_on', channel=9, note=54, velocity=95, time=0),
    Message('note_on', channel=9, note=51, velocity=95, time=0),
    Message('note_on', channel=9, note=40, velocity=95, time=0),
    Message('note_on', channel=9, note=40, velocity=95, time=0),
    Message('note_off', channel=9, note=54, velocity=95, time=480),
    Message('note_off', channel=9, note=51, velocity=95, time=0),
    Message('note_off', channel=9, note=40, velocity=95, time=0),
    Message('note_off', channel=9, note=40, velocity=95, time=0),
    Message('note_on', channel=9, note=36, velocity=95, time=0),
    Message('note_on', channel=9, note=36, velocity=95, time=0),
    Message('note_off', channel=9, note=36, velocity=95, time=480),
    Message('note_off', channel=9, note=36, velocity=95, time=0),
    Message('note_on', channel=9, note=49, velocity=95, time=0),
    Message('note_on', channel=9, note=36, velocity=95, time=0),
    Message('note_on', channel=9, note=36, velocity=95, time=0),
    Message('note_off', channel=9, note=49, velocity=95, time=480),
    Message('note_off', channel=9, note=36, velocity=95, time=0),
    Message('note_off', channel=9, note=36, velocity=95, time=0),
    Message('note_on', channel=9, note=57, velocity=95, time=0),
    Message('note_on', channel=9, note=36, velocity=95, time=0),
    Message('note_on', channel=9, note=36, velocity=95, time=0),
    Message('note_off', channel=9, note=57, velocity=95, time=480),
    Message('note_off', channel=9, note=36, velocity=95, time=0),
    Message('note_off', channel=9, note=36, velocity=95, time=0),
    Message('note_on', channel=9, note=54, velocity=95, time=0),
    Message('note_on', channel=9, note=51, velocity=95, time=0),
    Message('note_on', channel=9, note=40, velocity=95, time=0),
    Message('note_on', channel=9, note=40, velocity=95, time=0),
    Message('note_off', channel=9, note=54, velocity=95, time=480),
    Message('note_off', channel=9, note=51, velocity=95, time=0),
    Message('note_off', channel=9, note=40, velocity=95, time=0),
    Message('note_off', channel=9, note=40, velocity=95, time=0),
    Message('note_on', channel=9, note=36, velocity=95, time=0),
    Message('note_on', channel=9, note=36, velocity=95, time=0),
    Message('note_off', channel=9, note=36, velocity=95, time=480),
    Message('note_off', channel=9, note=36, velocity=95, time=0),
    Message('note_on', channel=9, note=49, velocity=95, time=0),
    Message('note_on', channel=9, note=36, velocity=95, time=0),
    Message('note_on', channel=9, note=36, velocity=95, time=0),
    Message('note_off', channel=9, note=49, velocity=95, time=480),
    Message('note_off', channel=9, note=36, velocity=95, time=0),
    Message('note_off', channel=9, note=36, velocity=95, time=0),
    Message('note_on', channel=9, note=57, velocity=95, time=0),
    Message('note_on', channel=9, note=36, velocity=95, time=0),
    Message('note_on', channel=9, note=36, velocity=95, time=0),
    Message('note_off', channel=9, note=57, velocity=95, time=480),
    Message('note_off', channel=9, note=36, velocity=95, time=0),
    Message('note_off', channel=9, note=36, velocity=95, time=0),
    Message('note_on', channel=9, note=54, velocity=95, time=0),
    Message('note_on', channel=9, note=51, velocity=95, time=0),
    Message('note_on', channel=9, note=40, velocity=95, time=0),
    Message('note_on', channel=9, note=40, velocity=95, time=0),
    Message('note_off', channel=9, note=54, velocity=95, time=480),
    Message('note_off', channel=9, note=40, velocity=95, time=0),
    Message('note_off', channel=9, note=40, velocity=95, time=0),
    Message('note_on', channel=9, note=36, velocity=95, time=0),
    Message('note_on', channel=9, note=36, velocity=95, time=0),
    Message('note_off', channel=9, note=51, velocity=95, time=480),
    Message('note_off', channel=9, note=36, velocity=95, time=0),
    Message('note_off', channel=9, note=36, velocity=95, time=0),
    Message('note_on', channel=9, note=49, velocity=95, time=0),
    Message('note_on', channel=9, note=36, velocity=95, time=0),
    Message('note_on', channel=9, note=36, velocity=95, time=0),
    Message('note_off', channel=9, note=49, velocity=95, time=480),
    Message('note_off', channel=9, note=36, velocity=95, time=0),
    Message('note_off', channel=9, note=36, velocity=95, time=0),
    Message('note_on', channel=9, note=57, velocity=95, time=0),
    Message('note_on', channel=9, note=36, velocity=95, time=0),
    Message('note_on', channel=9, note=36, velocity=95, time=0),
    Message('note_off', channel=9, note=57, velocity=95, time=480),
    Message('note_off', channel=9, note=36, velocity=95, time=0),
    Message('note_off', channel=9, note=36, velocity=95, time=0),
    Message('note_on', channel=9, note=54, velocity=95, time=0),
    Message('note_on', channel=9, note=51, velocity=95, time=0),
    Message('note_on', channel=9, note=40, velocity=95, time=0),
    Message('note_on', channel=9, note=40, velocity=95, time=0),
    Message('note_off', channel=9, note=54, velocity=95, time=480),
    Message('note_off', channel=9, note=40, velocity=95, time=0),
    Message('note_off', channel=9, note=40, velocity=95, time=0),
    Message('note_on', channel=9, note=36, velocity=95, time=0),
    Message('note_on', channel=9, note=36, velocity=95, time=0),
    Message('note_off', channel=9, note=51, velocity=95, time=480),
    Message('note_off', channel=9, note=36, velocity=95, time=0),
    Message('note_off', channel=9, note=36, velocity=95, time=0),
    Message('note_on', channel=9, note=49, velocity=95, time=0),
    Message('note_on', channel=9, note=36, velocity=95, time=0),
    Message('note_on', channel=9, note=36, velocity=95, time=0),
    Message('note_off', channel=9, note=49, velocity=95, time=480),
    Message('note_off', channel=9, note=36, velocity=95, time=0),
    Message('note_off', channel=9, note=36, velocity=95, time=0),
    Message('note_on', channel=9, note=57, velocity=95, time=0),
    Message('note_on', channel=9, note=36, velocity=95, time=0),
    Message('note_on', channel=9, note=36, velocity=95, time=0),
    Message('note_off', channel=9, note=57, velocity=95, time=480),
    Message('note_off', channel=9, note=36, velocity=95, time=0),
    Message('note_off', channel=9, note=36, velocity=95, time=0),
    Message('note_on', channel=9, note=54, velocity=95, time=0),
    Message('note_on', channel=9, note=51, velocity=95, time=0),
    Message('note_on', channel=9, note=40, velocity=95, time=0),
    Message('note_on', channel=9, note=40, velocity=95, time=0),
    Message('note_off', channel=9, note=54, velocity=95, time=480),
    Message('note_off', channel=9, note=51, velocity=95, time=0),
    Message('note_off', channel=9, note=40, velocity=95, time=0),
    Message('note_off', channel=9, note=40, velocity=95, time=0),
    Message('note_on', channel=9, note=36, velocity=95, time=0),
    Message('note_on', channel=9, note=36, velocity=95, time=0),
    Message('note_off', channel=9, note=36, velocity=95, time=480),
    Message('note_off', channel=9, note=36, velocity=95, time=0),
    Message('note_on', channel=9, note=49, velocity=95, time=0),
    Message('note_on', channel=9, note=36, velocity=95, time=0),
    Message('note_on', channel=9, note=36, velocity=95, time=0),
    Message('note_off', channel=9, note=49, velocity=95, time=480),
    Message('note_off', channel=9, note=36, velocity=95, time=0),
    Message('note_off', channel=9, note=36, velocity=95, time=0),
    Message('note_on', channel=9, note=57, velocity=95, time=0),
    Message('note_on', channel=9, note=36, velocity=95, time=0),
    Message('note_on', channel=9, note=36, velocity=95, time=0),
    Message('note_off', channel=9, note=57, velocity=95, time=480),
    Message('note_off', channel=9, note=36, velocity=95, time=0),
    Message('note_off', channel=9, note=36, velocity=95, time=0),
    Message('note_on', channel=9, note=54, velocity=95, time=0),
    Message('note_on', channel=9, note=51, velocity=95, time=0),
    Message('note_on', channel=9, note=40, velocity=95, time=0),
    Message('note_on', channel=9, note=40, velocity=95, time=0),
    Message('note_off', channel=9, note=54, velocity=95, time=480),
    Message('note_off', channel=9, note=51, velocity=95, time=0),
    Message('note_off', channel=9, note=40, velocity=95, time=0),
    Message('note_off', channel=9, note=40, velocity=95, time=0),
    Message('note_on', channel=9, note=36, velocity=95, time=0),
    Message('note_on', channel=9, note=36, velocity=95, time=0),
    Message('note_off', channel=9, note=36, velocity=95, time=480),
    Message('note_off', channel=9, note=36, velocity=95, time=0),
    Message('note_on', channel=9, note=49, velocity=95, time=0),
    Message('note_on', channel=9, note=36, velocity=95, time=0),
    Message('note_on', channel=9, note=36, velocity=95, time=0),
    Message('note_off', channel=9, note=49, velocity=95, time=480),
    Message('note_off', channel=9, note=36, velocity=95, time=0),
    Message('note_off', channel=9, note=36, velocity=95, time=0),
    Message('note_on', channel=9, note=57, velocity=95, time=0),
    Message('note_on', channel=9, note=36, velocity=95, time=0),
    Message('note_on', channel=9, note=36, velocity=95, time=0),
    Message('note_off', channel=9, note=57, velocity=95, time=480),
    Message('note_off', channel=9, note=36, velocity=95, time=0),
    Message('note_off', channel=9, note=36, velocity=95, time=0),
    Message('note_on', channel=9, note=54, velocity=95, time=0),
    Message('note_on', channel=9, note=51, velocity=95, time=0),
    Message('note_on', channel=9, note=40, velocity=95, time=0),
    Message('note_on', channel=9, note=40, velocity=95, time=0),
    Message('note_off', channel=9, note=54, velocity=95, time=480),
    Message('note_off', channel=9, note=51, velocity=95, time=0),
    Message('note_off', channel=9, note=40, velocity=95, time=0),
    Message('note_off', channel=9, note=40, velocity=95, time=0),
    Message('note_on', channel=9, note=36, velocity=95, time=0),
    Message('note_on', channel=9, note=36, velocity=95, time=0),
    Message('note_off', channel=9, note=36, velocity=95, time=480),
    Message('note_off', channel=9, note=36, velocity=95, time=0),
    Message('note_on', channel=9, note=49, velocity=95, time=0),
    Message('note_on', channel=9, note=36, velocity=95, time=0),
    Message('note_on', channel=9, note=36, velocity=95, time=0),
    Message('note_off', channel=9, note=49, velocity=95, time=480),
    Message('note_off', channel=9, note=36, velocity=95, time=0),
    Message('note_off', channel=9, note=36, velocity=95, time=0),
    Message('note_on', channel=9, note=57, velocity=95, time=0),
    Message('note_on', channel=9, note=36, velocity=95, time=0),
    Message('note_on', channel=9, note=36, velocity=95, time=0),
    Message('note_off', channel=9, note=57, velocity=95, time=480),
    Message('note_off', channel=9, note=36, velocity=95, time=0),
    Message('note_off', channel=9, note=36, velocity=95, time=0),
    Message('note_on', channel=9, note=54, velocity=95, time=0),
    Message('note_on', channel=9, note=51, velocity=95, time=0),
    Message('note_on', channel=9, note=40, velocity=95, time=0),
    Message('note_on', channel=9, note=40, velocity=95, time=0),
    Message('note_off', channel=9, note=54, velocity=95, time=480),
    Message('note_off', channel=9, note=51, velocity=95, time=0),
    Message('note_off', channel=9, note=40, velocity=95, time=0),
    Message('note_off', channel=9, note=40, velocity=95, time=0),
    Message('note_on', channel=9, note=36, velocity=95, time=0),
    Message('note_on', channel=9, note=36, velocity=95, time=0),
    Message('note_off', channel=9, note=36, velocity=95, time=480),
    Message('note_off', channel=9, note=36, velocity=95, time=0),
    Message('note_on', channel=9, note=49, velocity=95, time=0),
    Message('note_on', channel=9, note=36, velocity=95, time=0),
    Message('note_on', channel=9, note=36, velocity=95, time=0),
    Message('note_off', channel=9, note=49, velocity=95, time=480),
    Message('note_off', channel=9, note=36, velocity=95, time=0),
    Message('note_off', channel=9, note=36, velocity=95, time=0),
    Message('note_on', channel=9, note=57, velocity=95, time=0),
    Message('note_on', channel=9, note=36, velocity=95, time=0),
    Message('note_on', channel=9, note=36, velocity=95, time=0),
    Message('note_off', channel=9, note=57, velocity=95, time=480),
    Message('note_off', channel=9, note=36, velocity=95, time=0),
    Message('note_off', channel=9, note=36, velocity=95, time=0),
    Message('note_on', channel=9, note=54, velocity=95, time=0),
    Message('note_on', channel=9, note=51, velocity=95, time=0),
    Message('note_on', channel=9, note=40, velocity=95, time=0),
    Message('note_on', channel=9, note=40, velocity=95, time=0),
    Message('note_off', channel=9, note=54, velocity=95, time=480),
    Message('note_off', channel=9, note=51, velocity=95, time=0),
    Message('note_off', channel=9, note=40, velocity=95, time=0),
    Message('note_off', channel=9, note=40, velocity=95, time=0),
    Message('note_on', channel=9, note=36, velocity=95, time=0),
    Message('note_on', channel=9, note=36, velocity=95, time=0),
    Message('note_off', channel=9, note=36, velocity=95, time=480),
    Message('note_off', channel=9, note=36, velocity=95, time=0),
    Message('note_on', channel=9, note=49, velocity=95, time=0),
    Message('note_on', channel=9, note=36, velocity=95, time=0),
    Message('note_on', channel=9, note=36, velocity=95, time=0),
    Message('note_off', channel=9, note=49, velocity=95, time=480),
    Message('note_off', channel=9, note=36, velocity=95, time=0),
    Message('note_off', channel=9, note=36, velocity=95, time=0),
    Message('note_on', channel=9, note=57, velocity=95, time=0),
    Message('note_on', channel=9, note=36, velocity=95, time=0),
    Message('note_on', channel=9, note=36, velocity=95, time=0),
    Message('note_off', channel=9, note=57, velocity=95, time=480),
    Message('note_off', channel=9, note=36, velocity=95, time=0),
    Message('note_off', channel=9, note=36, velocity=95, time=0),
    Message('note_on', channel=9, note=54, velocity=95, time=0),
    Message('note_on', channel=9, note=51, velocity=95, time=0),
    Message('note_on', channel=9, note=40, velocity=95, time=0),
    Message('note_on', channel=9, note=40, velocity=95, time=0),
    Message('note_off', channel=9, note=54, velocity=95, time=480),
    Message('note_off', channel=9, note=51, velocity=95, time=0),
    Message('note_off', channel=9, note=40, velocity=95, time=0),
    Message('note_off', channel=9, note=40, velocity=95, time=0),
    Message('note_on', channel=9, note=36, velocity=95, time=0),
    Message('note_on', channel=9, note=36, velocity=95, time=0),
    Message('note_off', channel=9, note=36, velocity=95, time=480),
    Message('note_off', channel=9, note=36, velocity=95, time=0),
    Message('note_on', channel=9, note=49, velocity=95, time=0),
    Message('note_on', channel=9, note=36, velocity=95, time=0),
    Message('note_on', channel=9, note=36, velocity=95, time=0),
    Message('note_off', channel=9, note=49, velocity=95, time=480),
    Message('note_off', channel=9, note=36, velocity=95, time=0),
    Message('note_off', channel=9, note=36, velocity=95, time=0),
    Message('note_on', channel=9, note=57, velocity=95, time=0),
    Message('note_on', channel=9, note=36, velocity=95, time=0),
    Message('note_on', channel=9, note=36, velocity=95, time=0),
    Message('note_off', channel=9, note=57, velocity=95, time=480),
    Message('note_off', channel=9, note=36, velocity=95, time=0),
    Message('note_off', channel=9, note=36, velocity=95, time=0),
    Message('note_on', channel=9, note=54, velocity=95, time=0),
    Message('note_on', channel=9, note=51, velocity=95, time=0),
    Message('note_on', channel=9, note=40, velocity=95, time=0),
    Message('note_on', channel=9, note=40, velocity=95, time=0),
    Message('note_off', channel=9, note=54, velocity=95, time=480),
    Message('note_off', channel=9, note=40, velocity=95, time=0),
    Message('note_off', channel=9, note=40, velocity=95, time=0),
    Message('note_on', channel=9, note=36, velocity=95, time=0),
    Message('note_on', channel=9, note=36, velocity=95, time=0),
    Message('note_off', channel=9, note=51, velocity=95, time=480),
    Message('note_off', channel=9, note=36, velocity=95, time=0),
    Message('note_off', channel=9, note=36, velocity=95, time=0),
    Message('note_on', channel=9, note=49, velocity=95, time=0),
    Message('note_on', channel=9, note=36, velocity=95, time=0),
    Message('note_on', channel=9, note=36, velocity=95, time=0),
    Message('note_off', channel=9, note=49, velocity=95, time=480),
    Message('note_off', channel=9, note=36, velocity=95, time=0),
    Message('note_off', channel=9, note=36, velocity=95, time=0),
    Message('note_on', channel=9, note=57, velocity=95, time=0),
    Message('note_on', channel=9, note=36, velocity=95, time=0),
    Message('note_on', channel=9, note=36, velocity=95, time=0),
    Message('note_off', channel=9, note=57, velocity=95, time=480),
    Message('note_off', channel=9, note=36, velocity=95, time=0),
    Message('note_off', channel=9, note=36, velocity=95, time=0),
    Message('note_on', channel=9, note=54, velocity=95, time=0),
    Message('note_on', channel=9, note=51, velocity=95, time=0),
    Message('note_on', channel=9, note=40, velocity=95, time=0),
    Message('note_on', channel=9, note=40, velocity=95, time=0),
    Message('note_off', channel=9, note=54, velocity=95, time=480),
    Message('note_off', channel=9, note=40, velocity=95, time=0),
    Message('note_off', channel=9, note=40, velocity=95, time=0),
    Message('note_on', channel=9, note=36, velocity=95, time=0),
    Message('note_on', channel=9, note=36, velocity=95, time=0),
    Message('note_off', channel=9, note=51, velocity=95, time=480),
    Message('note_off', channel=9, note=36, velocity=95, time=0),
    Message('note_off', channel=9, note=36, velocity=95, time=0),
    Message('note_on', channel=9, note=49, velocity=95, time=0),
    Message('note_on', channel=9, note=36, velocity=95, time=0),
    Message('note_on', channel=9, note=36, velocity=95, time=0),
    Message('note_off', channel=9, note=49, velocity=95, time=480),
    Message('note_off', channel=9, note=36, velocity=95, time=0),
    Message('note_off', channel=9, note=36, velocity=95, time=0),
    Message('note_on', channel=9, note=57, velocity=95, time=0),
    Message('note_on', channel=9, note=36, velocity=95, time=0),
    Message('note_on', channel=9, note=36, velocity=95, time=0),
    Message('note_off', channel=9, note=57, velocity=95, time=480),
    Message('note_off', channel=9, note=36, velocity=95, time=0),
    Message('note_off', channel=9, note=36, velocity=95, time=0),
    Message('note_on', channel=9, note=54, velocity=95, time=0),
    Message('note_on', channel=9, note=51, velocity=95, time=0),
    Message('note_on', channel=9, note=40, velocity=95, time=0),
    Message('note_on', channel=9, note=40, velocity=95, time=0),
    Message('note_off', channel=9, note=54, velocity=95, time=480),
    Message('note_off', channel=9, note=51, velocity=95, time=0),
    Message('note_off', channel=9, note=40, velocity=95, time=0),
    Message('note_off', channel=9, note=40, velocity=95, time=0),
    Message('note_on', channel=9, note=36, velocity=95, time=0),
    Message('note_on', channel=9, note=36, velocity=95, time=0),
    Message('note_off', channel=9, note=36, velocity=95, time=480),
    Message('note_off', channel=9, note=36, velocity=95, time=0),
    Message('note_on', channel=9, note=49, velocity=95, time=0),
    Message('note_on', channel=9, note=36, velocity=95, time=0),
    Message('note_on', channel=9, note=36, velocity=95, time=0),
    Message('note_off', channel=9, note=49, velocity=95, time=480),
    Message('note_off', channel=9, note=36, velocity=95, time=0),
    Message('note_off', channel=9, note=36, velocity=95, time=0),
    Message('note_on', channel=9, note=57, velocity=95, time=0),
    Message('note_on', channel=9, note=36, velocity=95, time=0),
    Message('note_on', channel=9, note=36, velocity=95, time=0),
    Message('note_off', channel=9, note=57, velocity=95, time=480),
    Message('note_off', channel=9, note=36, velocity=95, time=0),
    Message('note_off', channel=9, note=36, velocity=95, time=0),
    Message('note_on', channel=9, note=54, velocity=95, time=0),
    Message('note_on', channel=9, note=51, velocity=95, time=0),
    Message('note_on', channel=9, note=40, velocity=95, time=0),
    Message('note_on', channel=9, note=40, velocity=95, time=0),
    Message('note_off', channel=9, note=54, velocity=95, time=480),
    Message('note_off', channel=9, note=51, velocity=95, time=0),
    Message('note_off', channel=9, note=40, velocity=95, time=0),
    Message('note_off', channel=9, note=40, velocity=95, time=0),
    Message('note_on', channel=9, note=36, velocity=95, time=0),
    Message('note_on', channel=9, note=36, velocity=95, time=0),
    Message('note_off', channel=9, note=36, velocity=95, time=480),
    Message('note_off', channel=9, note=36, velocity=95, time=0),
    Message('note_on', channel=9, note=49, velocity=95, time=0),
    Message('note_on', channel=9, note=36, velocity=95, time=0),
    Message('note_on', channel=9, note=36, velocity=95, time=0),
    Message('note_off', channel=9, note=49, velocity=95, time=480),
    Message('note_off', channel=9, note=36, velocity=95, time=0),
    Message('note_off', channel=9, note=36, velocity=95, time=0),
    Message('note_on', channel=9, note=57, velocity=95, time=0),
    Message('note_on', channel=9, note=36, velocity=95, time=0),
    Message('note_on', channel=9, note=36, velocity=95, time=0),
    Message('note_off', channel=9, note=57, velocity=95, time=480),
    Message('note_off', channel=9, note=36, velocity=95, time=0),
    Message('note_off', channel=9, note=36, velocity=95, time=0),
    Message('note_on', channel=9, note=54, velocity=95, time=0),
    Message('note_on', channel=9, note=51, velocity=95, time=0),
    Message('note_on', channel=9, note=40, velocity=95, time=0),
    Message('note_on', channel=9, note=40, velocity=95, time=0),
    Message('note_off', channel=9, note=54, velocity=95, time=480),
    Message('note_off', channel=9, note=51, velocity=95, time=0),
    Message('note_off', channel=9, note=40, velocity=95, time=0),
    Message('note_off', channel=9, note=40, velocity=95, time=0),
    Message('note_on', channel=9, note=36, velocity=95, time=0),
    Message('note_on', channel=9, note=36, velocity=95, time=0),
    Message('note_off', channel=9, note=36, velocity=95, time=480),
    Message('note_off', channel=9, note=36, velocity=95, time=0),
    Message('note_on', channel=9, note=49, velocity=95, time=0),
    Message('note_on', channel=9, note=36, velocity=95, time=0),
    Message('note_on', channel=9, note=36, velocity=95, time=0),
    Message('note_off', channel=9, note=49, velocity=95, time=480),
    Message('note_off', channel=9, note=36, velocity=95, time=0),
    Message('note_off', channel=9, note=36, velocity=95, time=0),
    Message('note_on', channel=9, note=57, velocity=95, time=0),
    Message('note_on', channel=9, note=36, velocity=95, time=0),
    Message('note_on', channel=9, note=36, velocity=95, time=0),
    Message('note_off', channel=9, note=57, velocity=95, time=480),
    Message('note_off', channel=9, note=36, velocity=95, time=0),
    Message('note_off', channel=9, note=36, velocity=95, time=0),
    Message('note_on', channel=9, note=54, velocity=95, time=0),
    Message('note_on', channel=9, note=51, velocity=95, time=0),
    Message('note_on', channel=9, note=40, velocity=95, time=0),
    Message('note_on', channel=9, note=40, velocity=95, time=0),
    Message('note_off', channel=9, note=54, velocity=95, time=480),
    Message('note_off', channel=9, note=51, velocity=95, time=0),
    Message('note_off', channel=9, note=40, velocity=95, time=0),
    Message('note_off', channel=9, note=40, velocity=95, time=0),
    Message('note_on', channel=9, note=36, velocity=95, time=0),
    Message('note_on', channel=9, note=36, velocity=95, time=0),
    Message('note_off', channel=9, note=36, velocity=95, time=480),
    Message('note_off', channel=9, note=36, velocity=95, time=0),
    Message('note_on', channel=9, note=49, velocity=95, time=0),
    Message('note_on', channel=9, note=36, velocity=95, time=0),
    Message('note_on', channel=9, note=36, velocity=95, time=0),
    Message('note_off', channel=9, note=49, velocity=95, time=480),
    Message('note_off', channel=9, note=36, velocity=95, time=0),
    Message('note_off', channel=9, note=36, velocity=95, time=0),
    Message('note_on', channel=9, note=57, velocity=95, time=0),
    Message('note_on', channel=9, note=36, velocity=95, time=0),
    Message('note_on', channel=9, note=36, velocity=95, time=0),
    Message('note_off', channel=9, note=57, velocity=95, time=480),
    Message('note_off', channel=9, note=36, velocity=95, time=0),
    Message('note_off', channel=9, note=36, velocity=95, time=0),
    Message('note_on', channel=9, note=54, velocity=95, time=0),
    Message('note_on', channel=9, note=51, velocity=95, time=0),
    Message('note_on', channel=9, note=40, velocity=95, time=0),
    Message('note_on', channel=9, note=40, velocity=95, time=0),
    Message('note_off', channel=9, note=54, velocity=95, time=480),
    Message('note_off', channel=9, note=51, velocity=95, time=0),
    Message('note_off', channel=9, note=40, velocity=95, time=0),
    Message('note_off', channel=9, note=40, velocity=95, time=0),
    Message('note_on', channel=9, note=36, velocity=95, time=0),
    Message('note_on', channel=9, note=36, velocity=95, time=0),
    Message('note_off', channel=9, note=36, velocity=95, time=480),
    Message('note_off', channel=9, note=36, velocity=95, time=0),
    Message('note_on', channel=9, note=49, velocity=95, time=0),
    Message('note_on', channel=9, note=36, velocity=95, time=0),
    Message('note_on', channel=9, note=36, velocity=95, time=0),
    Message('note_off', channel=9, note=49, velocity=95, time=480),
    Message('note_off', channel=9, note=36, velocity=95, time=0),
    Message('note_off', channel=9, note=36, velocity=95, time=0),
    Message('note_on', channel=9, note=57, velocity=95, time=0),
    Message('note_on', channel=9, note=36, velocity=95, time=0),
    Message('note_on', channel=9, note=36, velocity=95, time=0),
    Message('note_off', channel=9, note=57, velocity=95, time=480),
    Message('note_off', channel=9, note=36, velocity=95, time=0),
    Message('note_off', channel=9, note=36, velocity=95, time=0),
    Message('note_on', channel=9, note=54, velocity=95, time=0),
    Message('note_on', channel=9, note=51, velocity=95, time=0),
    Message('note_on', channel=9, note=40, velocity=95, time=0),
    Message('note_on', channel=9, note=40, velocity=95, time=0),
    Message('note_off', channel=9, note=54, velocity=95, time=480),
    Message('note_off', channel=9, note=51, velocity=95, time=0),
    Message('note_off', channel=9, note=40, velocity=95, time=0),
    Message('note_off', channel=9, note=40, velocity=95, time=0),
    Message('note_on', channel=9, note=36, velocity=95, time=0),
    Message('note_on', channel=9, note=36, velocity=95, time=0),
    Message('note_off', channel=9, note=36, velocity=95, time=480),
    Message('note_off', channel=9, note=36, velocity=95, time=0),
    Message('note_on', channel=9, note=49, velocity=95, time=0),
    Message('note_on', channel=9, note=36, velocity=95, time=0),
    Message('note_on', channel=9, note=36, velocity=95, time=0),
    Message('note_off', channel=9, note=49, velocity=95, time=480),
    Message('note_off', channel=9, note=36, velocity=95, time=0),
    Message('note_off', channel=9, note=36, velocity=95, time=0),
    Message('note_on', channel=9, note=57, velocity=95, time=0),
    Message('note_on', channel=9, note=36, velocity=95, time=0),
    Message('note_on', channel=9, note=36, velocity=95, time=0),
    Message('note_off', channel=9, note=57, velocity=95, time=480),
    Message('note_off', channel=9, note=36, velocity=95, time=0),
    Message('note_off', channel=9, note=36, velocity=95, time=0),
    Message('note_on', channel=9, note=54, velocity=95, time=0),
    Message('note_on', channel=9, note=51, velocity=95, time=0),
    Message('note_on', channel=9, note=40, velocity=95, time=0),
    Message('note_on', channel=9, note=40, velocity=95, time=0),
    Message('note_off', channel=9, note=54, velocity=95, time=480),
    Message('note_off', channel=9, note=40, velocity=95, time=0),
    Message('note_off', channel=9, note=40, velocity=95, time=0),
    Message('note_on', channel=9, note=36, velocity=95, time=0),
    Message('note_on', channel=9, note=36, velocity=95, time=0),
    Message('note_off', channel=9, note=51, velocity=95, time=480),
    Message('note_off', channel=9, note=36, velocity=95, time=0),
    Message('note_off', channel=9, note=36, velocity=95, time=0),
    Message('note_on', channel=9, note=49, velocity=95, time=0),
    Message('note_on', channel=9, note=36, velocity=95, time=0),
    Message('note_on', channel=9, note=36, velocity=95, time=0),
    Message('note_off', channel=9, note=49, velocity=95, time=480),
    Message('note_off', channel=9, note=36, velocity=95, time=0),
    Message('note_off', channel=9, note=36, velocity=95, time=0),
    Message('note_on', channel=9, note=57, velocity=95, time=0),
    Message('note_on', channel=9, note=36, velocity=95, time=0),
    Message('note_on', channel=9, note=36, velocity=95, time=0),
    Message('note_off', channel=9, note=57, velocity=95, time=480),
    Message('note_off', channel=9, note=36, velocity=95, time=0),
    Message('note_off', channel=9, note=36, velocity=95, time=0),
    Message('note_on', channel=9, note=54, velocity=95, time=0),
    Message('note_on', channel=9, note=51, velocity=95, time=0),
    Message('note_on', channel=9, note=40, velocity=95, time=0),
    Message('note_on', channel=9, note=40, velocity=95, time=0),
    Message('note_off', channel=9, note=54, velocity=95, time=480),
    Message('note_off', channel=9, note=40, velocity=95, time=0),
    Message('note_off', channel=9, note=40, velocity=95, time=0),
    Message('note_on', channel=9, note=36, velocity=95, time=0),
    Message('note_on', channel=9, note=36, velocity=95, time=0),
    Message('note_off', channel=9, note=51, velocity=95, time=480),
    Message('note_off', channel=9, note=36, velocity=95, time=0),
    Message('note_off', channel=9, note=36, velocity=95, time=0),
    Message('note_on', channel=9, note=49, velocity=95, time=0),
    Message('note_on', channel=9, note=36, velocity=95, time=0),
    Message('note_on', channel=9, note=36, velocity=95, time=0),
    Message('note_off', channel=9, note=49, velocity=95, time=480),
    Message('note_off', channel=9, note=36, velocity=95, time=0),
    Message('note_off', channel=9, note=36, velocity=95, time=0),
    Message('note_on', channel=9, note=57, velocity=95, time=0),
    Message('note_on', channel=9, note=36, velocity=95, time=0),
    Message('note_on', channel=9, note=36, velocity=95, time=0),
    Message('note_off', channel=9, note=57, velocity=95, time=480),
    Message('note_off', channel=9, note=36, velocity=95, time=0),
    Message('note_off', channel=9, note=36, velocity=95, time=0),
    Message('note_on', channel=9, note=54, velocity=95, time=0),
    Message('note_on', channel=9, note=51, velocity=95, time=0),
    Message('note_on', channel=9, note=40, velocity=95, time=0),
    Message('note_on', channel=9, note=40, velocity=95, time=0),
    Message('note_off', channel=9, note=54, velocity=95, time=480),
    Message('note_off', channel=9, note=51, velocity=95, time=0),
    Message('note_off', channel=9, note=40, velocity=95, time=0),
    Message('note_off', channel=9, note=40, velocity=95, time=0),
    Message('note_on', channel=9, note=36, velocity=95, time=0),
    Message('note_on', channel=9, note=36, velocity=95, time=0),
    Message('note_off', channel=9, note=36, velocity=95, time=480),
    Message('note_off', channel=9, note=36, velocity=95, time=0),
    Message('note_on', channel=9, note=49, velocity=95, time=0),
    Message('note_on', channel=9, note=36, velocity=95, time=0),
    Message('note_on', channel=9, note=36, velocity=95, time=0),
    Message('note_off', channel=9, note=49, velocity=95, time=480),
    Message('note_off', channel=9, note=36, velocity=95, time=0),
    Message('note_off', channel=9, note=36, velocity=95, time=0),
    Message('note_on', channel=9, note=57, velocity=95, time=0),
    Message('note_on', channel=9, note=36, velocity=95, time=0),
    Message('note_on', channel=9, note=36, velocity=95, time=0),
    Message('note_off', channel=9, note=57, velocity=95, time=480),
    Message('note_off', channel=9, note=36, velocity=95, time=0),
    Message('note_off', channel=9, note=36, velocity=95, time=0),
    Message('note_on', channel=9, note=54, velocity=95, time=0),
    Message('note_on', channel=9, note=51, velocity=95, time=0),
    Message('note_on', channel=9, note=40, velocity=95, time=0),
    Message('note_on', channel=9, note=40, velocity=95, time=0),
    Message('note_off', channel=9, note=54, velocity=95, time=480),
    Message('note_off', channel=9, note=51, velocity=95, time=0),
    Message('note_off', channel=9, note=40, velocity=95, time=0),
    Message('note_off', channel=9, note=40, velocity=95, time=0),
    Message('note_on', channel=9, note=36, velocity=95, time=0),
    Message('note_on', channel=9, note=36, velocity=95, time=0),
    Message('note_off', channel=9, note=36, velocity=95, time=480),
    Message('note_off', channel=9, note=36, velocity=95, time=0),
    Message('note_on', channel=9, note=49, velocity=95, time=0),
    Message('note_on', channel=9, note=36, velocity=95, time=0),
    Message('note_on', channel=9, note=36, velocity=95, time=0),
    Message('note_off', channel=9, note=49, velocity=95, time=480),
    Message('note_off', channel=9, note=36, velocity=95, time=0),
    Message('note_off', channel=9, note=36, velocity=95, time=0),
    Message('note_on', channel=9, note=57, velocity=95, time=0),
    Message('note_on', channel=9, note=36, velocity=95, time=0),
    Message('note_on', channel=9, note=36, velocity=95, time=0),
    Message('note_off', channel=9, note=57, velocity=95, time=480),
    Message('note_off', channel=9, note=36, velocity=95, time=0),
    Message('note_off', channel=9, note=36, velocity=95, time=0),
    Message('note_on', channel=9, note=54, velocity=95, time=0),
    Message('note_on', channel=9, note=51, velocity=95, time=0),
    Message('note_on', channel=9, note=40, velocity=95, time=0),
    Message('note_on', channel=9, note=40, velocity=95, time=0),
    Message('note_off', channel=9, note=54, velocity=95, time=480),
    Message('note_off', channel=9, note=51, velocity=95, time=0),
    Message('note_off', channel=9, note=40, velocity=95, time=0),
    Message('note_off', channel=9, note=40, velocity=95, time=0),
    Message('note_on', channel=9, note=36, velocity=95, time=0),
    Message('note_on', channel=9, note=36, velocity=95, time=0),
    Message('note_off', channel=9, note=36, velocity=95, time=480),
    Message('note_off', channel=9, note=36, velocity=95, time=0),
    Message('note_on', channel=9, note=49, velocity=95, time=0),
    Message('note_on', channel=9, note=36, velocity=95, time=0),
    Message('note_on', channel=9, note=36, velocity=95, time=0),
    Message('note_off', channel=9, note=49, velocity=95, time=480),
    Message('note_off', channel=9, note=36, velocity=95, time=0),
    Message('note_off', channel=9, note=36, velocity=95, time=0),
    Message('note_on', channel=9, note=57, velocity=95, time=0),
    Message('note_on', channel=9, note=36, velocity=95, time=0),
    Message('note_on', channel=9, note=36, velocity=95, time=0),
    Message('note_off', channel=9, note=57, velocity=95, time=480),
    Message('note_off', channel=9, note=36, velocity=95, time=0),
    Message('note_off', channel=9, note=36, velocity=95, time=0),
    Message('note_on', channel=9, note=54, velocity=95, time=0),
    Message('note_on', channel=9, note=51, velocity=95, time=0),
    Message('note_on', channel=9, note=40, velocity=95, time=0),
    Message('note_on', channel=9, note=40, velocity=95, time=0),
    Message('note_off', channel=9, note=54, velocity=95, time=480),
    Message('note_off', channel=9, note=51, velocity=95, time=0),
    Message('note_off', channel=9, note=40, velocity=95, time=0),
    Message('note_off', channel=9, note=40, velocity=95, time=0),
    Message('note_on', channel=9, note=36, velocity=95, time=0),
    Message('note_on', channel=9, note=36, velocity=95, time=0),
    Message('note_off', channel=9, note=36, velocity=95, time=480),
    Message('note_off', channel=9, note=36, velocity=95, time=0),
    Message('note_on', channel=9, note=49, velocity=95, time=0),
    Message('note_on', channel=9, note=36, velocity=95, time=0),
    Message('note_on', channel=9, note=36, velocity=95, time=0),
    Message('note_off', channel=9, note=49, velocity=95, time=480),
    Message('note_off', channel=9, note=36, velocity=95, time=0),
    Message('note_off', channel=9, note=36, velocity=95, time=0),
    Message('note_on', channel=9, note=57, velocity=95, time=0),
    Message('note_on', channel=9, note=36, velocity=95, time=0),
    Message('note_on', channel=9, note=36, velocity=95, time=0),
    Message('note_off', channel=9, note=57, velocity=95, time=480),
    Message('note_off', channel=9, note=36, velocity=95, time=0),
    Message('note_off', channel=9, note=36, velocity=95, time=0),
    Message('note_on', channel=9, note=54, velocity=95, time=0),
    Message('note_on', channel=9, note=51, velocity=95, time=0),
    Message('note_on', channel=9, note=40, velocity=95, time=0),
    Message('note_on', channel=9, note=40, velocity=95, time=0),
    Message('note_off', channel=9, note=54, velocity=95, time=480),
    Message('note_off', channel=9, note=51, velocity=95, time=0),
    Message('note_off', channel=9, note=40, velocity=95, time=0),
    Message('note_off', channel=9, note=40, velocity=95, time=0),
    Message('note_on', channel=9, note=36, velocity=95, time=0),
    Message('note_on', channel=9, note=36, velocity=95, time=0),
    Message('note_off', channel=9, note=36, velocity=95, time=480),
    Message('note_off', channel=9, note=36, velocity=95, time=0),
    Message('note_on', channel=9, note=49, velocity=95, time=0),
    Message('note_on', channel=9, note=36, velocity=95, time=0),
    Message('note_on', channel=9, note=36, velocity=95, time=0),
    Message('note_off', channel=9, note=49, velocity=95, time=480),
    Message('note_off', channel=9, note=36, velocity=95, time=0),
    Message('note_off', channel=9, note=36, velocity=95, time=0),
    Message('note_on', channel=9, note=57, velocity=95, time=0),
    Message('note_on', channel=9, note=36, velocity=95, time=0),
    Message('note_on', channel=9, note=36, velocity=95, time=0),
    Message('note_off', channel=9, note=57, velocity=95, time=480),
    Message('note_off', channel=9, note=36, velocity=95, time=0),
    Message('note_off', channel=9, note=36, velocity=95, time=0),
    Message('note_on', channel=9, note=54, velocity=95, time=0),
    Message('note_on', channel=9, note=51, velocity=95, time=0),
    Message('note_on', channel=9, note=40, velocity=95, time=0),
    Message('note_on', channel=9, note=40, velocity=95, time=0),
    Message('note_off', channel=9, note=54, velocity=95, time=480),
    Message('note_off', channel=9, note=51, velocity=95, time=0),
    Message('note_off', channel=9, note=40, velocity=95, time=0),
    Message('note_off', channel=9, note=40, velocity=95, time=0),
    Message('note_on', channel=9, note=36, velocity=95, time=0),
    Message('note_on', channel=9, note=36, velocity=95, time=0),
    Message('note_off', channel=9, note=36, velocity=95, time=480),
    Message('note_off', channel=9, note=36, velocity=95, time=0),
    Message('note_on', channel=9, note=49, velocity=95, time=0),
    Message('note_on', channel=9, note=36, velocity=95, time=0),
    Message('note_on', channel=9, note=36, velocity=95, time=0),
    Message('note_off', channel=9, note=49, velocity=95, time=480),
    Message('note_off', channel=9, note=36, velocity=95, time=0),
    Message('note_off', channel=9, note=36, velocity=95, time=0),
    Message('note_on', channel=9, note=57, velocity=95, time=0),
    Message('note_on', channel=9, note=36, velocity=95, time=0),
    Message('note_on', channel=9, note=36, velocity=95, time=0),
    Message('note_off', channel=9, note=57, velocity=95, time=480),
    Message('note_off', channel=9, note=36, velocity=95, time=0),
    Message('note_off', channel=9, note=36, velocity=95, time=0),
    Message('note_on', channel=9, note=54, velocity=95, time=0),
    Message('note_on', channel=9, note=51, velocity=95, time=0),
    Message('note_on', channel=9, note=40, velocity=95, time=0),
    Message('note_on', channel=9, note=40, velocity=95, time=0),
    Message('note_off', channel=9, note=54, velocity=95, time=480),
    Message('note_off', channel=9, note=40, velocity=95, time=0),
    Message('note_off', channel=9, note=40, velocity=95, time=0),
    Message('note_on', channel=9, note=36, velocity=95, time=0),
    Message('note_on', channel=9, note=36, velocity=95, time=0),
    Message('note_off', channel=9, note=51, velocity=95, time=480),
    Message('note_off', channel=9, note=36, velocity=95, time=0),
    Message('note_off', channel=9, note=36, velocity=95, time=0),
    Message('note_on', channel=9, note=49, velocity=95, time=0),
    Message('note_on', channel=9, note=36, velocity=95, time=0),
    Message('note_on', channel=9, note=36, velocity=95, time=0),
    Message('note_off', channel=9, note=49, velocity=95, time=480),
    Message('note_off', channel=9, note=36, velocity=95, time=0),
    Message('note_off', channel=9, note=36, velocity=95, time=0),
    Message('note_on', channel=9, note=57, velocity=95, time=0),
    Message('note_on', channel=9, note=36, velocity=95, time=0),
    Message('note_on', channel=9, note=36, velocity=95, time=0),
    Message('note_off', channel=9, note=57, velocity=95, time=480),
    Message('note_off', channel=9, note=36, velocity=95, time=0),
    Message('note_off', channel=9, note=36, velocity=95, time=0),
    Message('note_on', channel=9, note=54, velocity=95, time=0),
    Message('note_on', channel=9, note=51, velocity=95, time=0),
    Message('note_on', channel=9, note=40, velocity=95, time=0),
    Message('note_on', channel=9, note=40, velocity=95, time=0),
    Message('note_off', channel=9, note=54, velocity=95, time=480),
    Message('note_off', channel=9, note=40, velocity=95, time=0),
    Message('note_off', channel=9, note=40, velocity=95, time=0),
    Message('note_on', channel=9, note=36, velocity=95, time=0),
    Message('note_on', channel=9, note=36, velocity=95, time=0),
    Message('note_off', channel=9, note=51, velocity=95, time=480),
    Message('note_off', channel=9, note=36, velocity=95, time=0),
    Message('note_off', channel=9, note=36, velocity=95, time=0),
    Message('note_on', channel=9, note=49, velocity=95, time=0),
    Message('note_on', channel=9, note=36, velocity=95, time=0),
    Message('note_on', channel=9, note=36, velocity=95, time=0),
    Message('note_off', channel=9, note=49, velocity=95, time=480),
    Message('note_off', channel=9, note=36, velocity=95, time=0),
    Message('note_off', channel=9, note=36, velocity=95, time=0),
    Message('note_on', channel=9, note=57, velocity=95, time=0),
    Message('note_on', channel=9, note=36, velocity=95, time=0),
    Message('note_on', channel=9, note=36, velocity=95, time=0),
    Message('note_off', channel=9, note=57, velocity=95, time=480),
    Message('note_off', channel=9, note=36, velocity=95, time=0),
    Message('note_off', channel=9, note=36, velocity=95, time=0),
    Message('note_on', channel=9, note=54, velocity=95, time=0),
    Message('note_on', channel=9, note=51, velocity=95, time=0),
    Message('note_on', channel=9, note=40, velocity=95, time=0),
    Message('note_on', channel=9, note=40, velocity=95, time=0),
    Message('note_off', channel=9, note=54, velocity=95, time=480),
    Message('note_off', channel=9, note=51, velocity=95, time=0),
    Message('note_off', channel=9, note=40, velocity=95, time=0),
    Message('note_off', channel=9, note=40, velocity=95, time=0),
    Message('note_on', channel=9, note=36, velocity=95, time=0),
    Message('note_on', channel=9, note=36, velocity=95, time=0),
    Message('note_off', channel=9, note=36, velocity=95, time=480),
    Message('note_off', channel=9, note=36, velocity=95, time=0),
    Message('note_on', channel=9, note=49, velocity=95, time=0),
    Message('note_on', channel=9, note=36, velocity=95, time=0),
    Message('note_on', channel=9, note=36, velocity=95, time=0),
    Message('note_off', channel=9, note=49, velocity=95, time=480),
    Message('note_off', channel=9, note=36, velocity=95, time=0),
    Message('note_off', channel=9, note=36, velocity=95, time=0),
    Message('note_on', channel=9, note=57, velocity=95, time=0),
    Message('note_on', channel=9, note=36, velocity=95, time=0),
    Message('note_on', channel=9, note=36, velocity=95, time=0),
    Message('note_off', channel=9, note=57, velocity=95, time=480),
    Message('note_off', channel=9, note=36, velocity=95, time=0),
    Message('note_off', channel=9, note=36, velocity=95, time=0),
    Message('note_on', channel=9, note=54, velocity=95, time=0),
    Message('note_on', channel=9, note=51, velocity=95, time=0),
    Message('note_on', channel=9, note=40, velocity=95, time=0),
    Message('note_on', channel=9, note=40, velocity=95, time=0),
    Message('note_off', channel=9, note=54, velocity=95, time=480),
    Message('note_off', channel=9, note=51, velocity=95, time=0),
    Message('note_off', channel=9, note=40, velocity=95, time=0),
    Message('note_off', channel=9, note=40, velocity=95, time=0),
    Message('note_on', channel=9, note=36, velocity=95, time=0),
    Message('note_on', channel=9, note=36, velocity=95, time=0),
    Message('note_off', channel=9, note=36, velocity=95, time=480),
    Message('note_off', channel=9, note=36, velocity=95, time=0),
    Message('note_on', channel=9, note=49, velocity=95, time=0),
    Message('note_on', channel=9, note=36, velocity=95, time=0),
    Message('note_on', channel=9, note=36, velocity=95, time=0),
    Message('note_off', channel=9, note=49, velocity=95, time=480),
    Message('note_off', channel=9, note=36, velocity=95, time=0),
    Message('note_off', channel=9, note=36, velocity=95, time=0),
    Message('note_on', channel=9, note=57, velocity=95, time=0),
    Message('note_on', channel=9, note=36, velocity=95, time=0),
    Message('note_on', channel=9, note=36, velocity=95, time=0),
    Message('note_off', channel=9, note=57, velocity=95, time=480),
    Message('note_off', channel=9, note=36, velocity=95, time=0),
    Message('note_off', channel=9, note=36, velocity=95, time=0),
    Message('note_on', channel=9, note=54, velocity=95, time=0),
    Message('note_on', channel=9, note=51, velocity=95, time=0),
    Message('note_on', channel=9, note=40, velocity=95, time=0),
    Message('note_on', channel=9, note=40, velocity=95, time=0),
    Message('note_off', channel=9, note=54, velocity=95, time=480),
    Message('note_off', channel=9, note=51, velocity=95, time=0),
    Message('note_off', channel=9, note=40, velocity=95, time=0),
    Message('note_off', channel=9, note=40, velocity=95, time=0),
    Message('note_on', channel=9, note=36, velocity=95, time=0),
    Message('note_on', channel=9, note=36, velocity=95, time=0),
    Message('note_off', channel=9, note=36, velocity=95, time=480),
    Message('note_off', channel=9, note=36, velocity=95, time=0),
    Message('note_on', channel=9, note=49, velocity=95, time=0),
    Message('note_on', channel=9, note=36, velocity=95, time=0),
    Message('note_on', channel=9, note=36, velocity=95, time=0),
    Message('note_off', channel=9, note=49, velocity=95, time=480),
    Message('note_off', channel=9, note=36, velocity=95, time=0),
    Message('note_off', channel=9, note=36, velocity=95, time=0),
    Message('note_on', channel=9, note=57, velocity=95, time=0),
    Message('note_on', channel=9, note=36, velocity=95, time=0),
    Message('note_on', channel=9, note=36, velocity=95, time=0),
    Message('note_off', channel=9, note=57, velocity=95, time=480),
    Message('note_off', channel=9, note=36, velocity=95, time=0),
    Message('note_off', channel=9, note=36, velocity=95, time=0),
    Message('note_on', channel=9, note=54, velocity=95, time=0),
    Message('note_on', channel=9, note=51, velocity=95, time=0),
    Message('note_on', channel=9, note=40, velocity=95, time=0),
    Message('note_on', channel=9, note=40, velocity=95, time=0),
    Message('note_off', channel=9, note=54, velocity=95, time=480),
    Message('note_off', channel=9, note=51, velocity=95, time=0),
    Message('note_off', channel=9, note=40, velocity=95, time=0),
    Message('note_off', channel=9, note=40, velocity=95, time=0),
    Message('note_on', channel=9, note=36, velocity=95, time=0),
    Message('note_on', channel=9, note=36, velocity=95, time=0),
    Message('note_off', channel=9, note=36, velocity=95, time=480),
    Message('note_off', channel=9, note=36, velocity=95, time=0),
    Message('note_on', channel=9, note=49, velocity=95, time=0),
    Message('note_on', channel=9, note=36, velocity=95, time=0),
    Message('note_on', channel=9, note=36, velocity=95, time=0),
    Message('note_off', channel=9, note=49, velocity=95, time=480),
    Message('note_off', channel=9, note=36, velocity=95, time=0),
    Message('note_off', channel=9, note=36, velocity=95, time=0),
    Message('note_on', channel=9, note=57, velocity=95, time=0),
    Message('note_on', channel=9, note=36, velocity=95, time=0),
    Message('note_on', channel=9, note=36, velocity=95, time=0),
    Message('note_off', channel=9, note=57, velocity=95, time=480),
    Message('note_off', channel=9, note=36, velocity=95, time=0),
    Message('note_off', channel=9, note=36, velocity=95, time=0),
    Message('note_on', channel=9, note=54, velocity=95, time=0),
    Message('note_on', channel=9, note=51, velocity=95, time=0),
    Message('note_on', channel=9, note=40, velocity=95, time=0),
    Message('note_on', channel=9, note=40, velocity=95, time=0),
    Message('note_off', channel=9, note=54, velocity=95, time=480),
    Message('note_off', channel=9, note=51, velocity=95, time=0),
    Message('note_off', channel=9, note=40, velocity=95, time=0),
    Message('note_off', channel=9, note=40, velocity=95, time=0),
    Message('note_on', channel=9, note=36, velocity=95, time=0),
    Message('note_on', channel=9, note=36, velocity=95, time=0),
    Message('note_off', channel=9, note=36, velocity=95, time=480),
    Message('note_off', channel=9, note=36, velocity=95, time=0),
    Message('note_on', channel=9, note=49, velocity=95, time=0),
    Message('note_on', channel=9, note=36, velocity=95, time=0),
    Message('note_on', channel=9, note=36, velocity=95, time=0),
    Message('note_off', channel=9, note=49, velocity=95, time=480),
    Message('note_off', channel=9, note=36, velocity=95, time=0),
    Message('note_off', channel=9, note=36, velocity=95, time=0),
    Message('note_on', channel=9, note=57, velocity=95, time=0),
    Message('note_on', channel=9, note=36, velocity=95, time=0),
    Message('note_on', channel=9, note=36, velocity=95, time=0),
    Message('note_off', channel=9, note=57, velocity=95, time=480),
    Message('note_off', channel=9, note=36, velocity=95, time=0),
    Message('note_off', channel=9, note=36, velocity=95, time=0),
    Message('note_on', channel=9, note=54, velocity=95, time=0),
    Message('note_on', channel=9, note=51, velocity=95, time=0),
    Message('note_on', channel=9, note=40, velocity=95, time=0),
    Message('note_on', channel=9, note=40, velocity=95, time=0),
    Message('note_off', channel=9, note=54, velocity=95, time=480),
    Message('note_off', channel=9, note=51, velocity=95, time=0),
    Message('note_off', channel=9, note=40, velocity=95, time=0),
    Message('note_off', channel=9, note=40, velocity=95, time=0),
    Message('note_on', channel=9, note=36, velocity=95, time=0),
    Message('note_on', channel=9, note=36, velocity=95, time=0),
    Message('note_off', channel=9, note=36, velocity=95, time=480),
    Message('note_off', channel=9, note=36, velocity=95, time=0),
    Message('note_on', channel=9, note=49, velocity=95, time=0),
    Message('note_on', channel=9, note=36, velocity=95, time=0),
    Message('note_on', channel=9, note=36, velocity=95, time=0),
    Message('note_off', channel=9, note=49, velocity=95, time=480),
    Message('note_off', channel=9, note=36, velocity=95, time=0),
    Message('note_off', channel=9, note=36, velocity=95, time=0),
    Message('note_on', channel=9, note=57, velocity=95, time=0),
    Message('note_on', channel=9, note=36, velocity=95, time=0),
    Message('note_on', channel=9, note=36, velocity=95, time=0),
    Message('note_off', channel=9, note=57, velocity=95, time=480),
    Message('note_off', channel=9, note=36, velocity=95, time=0),
    Message('note_off', channel=9, note=36, velocity=95, time=0),
    Message('note_on', channel=9, note=54, velocity=95, time=0),
    Message('note_on', channel=9, note=51, velocity=95, time=0),
    Message('note_on', channel=9, note=40, velocity=95, time=0),
    Message('note_on', channel=9, note=40, velocity=95, time=0),
    Message('note_off', channel=9, note=54, velocity=95, time=480),
    Message('note_off', channel=9, note=40, velocity=95, time=0),
    Message('note_off', channel=9, note=40, velocity=95, time=0),
    Message('note_on', channel=9, note=36, velocity=95, time=0),
    Message('note_on', channel=9, note=36, velocity=95, time=0),
    Message('note_off', channel=9, note=51, velocity=95, time=480),
    Message('note_off', channel=9, note=36, velocity=95, time=0),
    Message('note_off', channel=9, note=36, velocity=95, time=0),
    Message('note_on', channel=9, note=49, velocity=95, time=0),
    Message('note_on', channel=9, note=36, velocity=95, time=0),
    Message('note_on', channel=9, note=36, velocity=95, time=0),
    Message('note_off', channel=9, note=49, velocity=95, time=480),
    Message('note_off', channel=9, note=36, velocity=95, time=0),
    Message('note_off', channel=9, note=36, velocity=95, time=0),
    Message('note_on', channel=9, note=57, velocity=95, time=0),
    Message('note_on', channel=9, note=36, velocity=95, time=0),
    Message('note_on', channel=9, note=36, velocity=95, time=0),
    Message('note_off', channel=9, note=57, velocity=95, time=480),
    Message('note_off', channel=9, note=36, velocity=95, time=0),
    Message('note_off', channel=9, note=36, velocity=95, time=0),
    Message('note_on', channel=9, note=54, velocity=95, time=0),
    Message('note_on', channel=9, note=51, velocity=95, time=0),
    Message('note_on', channel=9, note=40, velocity=95, time=0),
    Message('note_on', channel=9, note=40, velocity=95, time=0),
    Message('note_off', channel=9, note=54, velocity=95, time=480),
    Message('note_off', channel=9, note=40, velocity=95, time=0),
    Message('note_off', channel=9, note=40, velocity=95, time=0),
    Message('note_on', channel=9, note=36, velocity=95, time=0),
    Message('note_on', channel=9, note=36, velocity=95, time=0),
    Message('note_off', channel=9, note=51, velocity=95, time=480),
    Message('note_off', channel=9, note=36, velocity=95, time=0),
    Message('note_off', channel=9, note=36, velocity=95, time=0),
    Message('note_on', channel=9, note=49, velocity=95, time=0),
    Message('note_on', channel=9, note=36, velocity=95, time=0),
    Message('note_on', channel=9, note=36, velocity=95, time=0),
    Message('note_off', channel=9, note=49, velocity=95, time=240),
    Message('note_off', channel=9, note=36, velocity=95, time=0),
    Message('note_off', channel=9, note=36, velocity=95, time=0),
    Message('note_on', channel=9, note=40, velocity=95, time=0),
    Message('note_on', channel=9, note=40, velocity=95, time=0),
    Message('note_off', channel=9, note=40, velocity=95, time=240),
    Message('note_off', channel=9, note=40, velocity=95, time=0),
    Message('note_on', channel=9, note=57, velocity=95, time=0),
    Message('note_on', channel=9, note=36, velocity=95, time=0),
    Message('note_on', channel=9, note=36, velocity=95, time=0),
    Message('note_off', channel=9, note=57, velocity=95, time=480),
    Message('note_off', channel=9, note=36, velocity=95, time=0),
    Message('note_off', channel=9, note=36, velocity=95, time=0),
    Message('note_on', channel=9, note=54, velocity=95, time=0),
    Message('note_on', channel=9, note=51, velocity=95, time=0),
    Message('note_on', channel=9, note=40, velocity=95, time=0),
    Message('note_on', channel=9, note=40, velocity=95, time=0),
    Message('note_off', channel=9, note=54, velocity=95, time=480),
    Message('note_off', channel=9, note=51, velocity=95, time=0),
    Message('note_off', channel=9, note=40, velocity=95, time=0),
    Message('note_off', channel=9, note=40, velocity=95, time=0),
    Message('note_on', channel=9, note=36, velocity=95, time=0),
    Message('note_on', channel=9, note=36, velocity=95, time=0),
    Message('note_off', channel=9, note=36, velocity=95, time=480),
    Message('note_off', channel=9, note=36, velocity=95, time=0),
    Message('note_on', channel=9, note=49, velocity=95, time=0),
    Message('note_on', channel=9, note=36, velocity=95, time=0),
    Message('note_on', channel=9, note=36, velocity=95, time=0),
    Message('note_off', channel=9, note=49, velocity=95, time=240),
    Message('note_off', channel=9, note=36, velocity=95, time=0),
    Message('note_off', channel=9, note=36, velocity=95, time=0),
    Message('note_on', channel=9, note=40, velocity=95, time=0),
    Message('note_on', channel=9, note=40, velocity=95, time=0),
    Message('note_off', channel=9, note=40, velocity=95, time=240),
    Message('note_off', channel=9, note=40, velocity=95, time=0),
    Message('note_on', channel=9, note=57, velocity=95, time=0),
    Message('note_on', channel=9, note=36, velocity=95, time=0),
    Message('note_on', channel=9, note=36, velocity=95, time=0),
    Message('note_off', channel=9, note=57, velocity=95, time=480),
    Message('note_off', channel=9, note=36, velocity=95, time=0),
    Message('note_off', channel=9, note=36, velocity=95, time=0),
    Message('note_on', channel=9, note=54, velocity=95, time=0),
    Message('note_on', channel=9, note=51, velocity=95, time=0),
    Message('note_on', channel=9, note=40, velocity=95, time=0),
    Message('note_on', channel=9, note=40, velocity=95, time=0),
    Message('note_off', channel=9, note=54, velocity=95, time=480),
    Message('note_off', channel=9, note=51, velocity=95, time=0),
    Message('note_off', channel=9, note=40, velocity=95, time=0),
    Message('note_off', channel=9, note=40, velocity=95, time=0),
    Message('note_on', channel=9, note=36, velocity=95, time=0),
    Message('note_on', channel=9, note=36, velocity=95, time=0),
    Message('note_off', channel=9, note=36, velocity=95, time=480),
    Message('note_off', channel=9, note=36, velocity=95, time=0),
    Message('note_on', channel=9, note=49, velocity=95, time=0),
    Message('note_on', channel=9, note=36, velocity=95, time=0),
    Message('note_on', channel=9, note=36, velocity=95, time=0),
    Message('note_off', channel=9, note=49, velocity=95, time=240),
    Message('note_off', channel=9, note=36, velocity=95, time=0),
    Message('note_off', channel=9, note=36, velocity=95, time=0),
    Message('note_on', channel=9, note=40, velocity=95, time=0),
    Message('note_on', channel=9, note=40, velocity=95, time=0),
    Message('note_off', channel=9, note=40, velocity=95, time=240),
    Message('note_off', channel=9, note=40, velocity=95, time=0),
    Message('note_on', channel=9, note=57, velocity=95, time=0),
    Message('note_on', channel=9, note=36, velocity=95, time=0),
    Message('note_on', channel=9, note=36, velocity=95, time=0),
    Message('note_off', channel=9, note=57, velocity=95, time=480),
    Message('note_off', channel=9, note=36, velocity=95, time=0),
    Message('note_off', channel=9, note=36, velocity=95, time=0),
    Message('note_on', channel=9, note=54, velocity=95, time=0),
    Message('note_on', channel=9, note=51, velocity=95, time=0),
    Message('note_on', channel=9, note=40, velocity=95, time=0),
    Message('note_on', channel=9, note=40, velocity=95, time=0),
    Message('note_off', channel=9, note=54, velocity=95, time=480),
    Message('note_off', channel=9, note=51, velocity=95, time=0),
    Message('note_off', channel=9, note=40, velocity=95, time=0),
    Message('note_off', channel=9, note=40, velocity=95, time=0),
    Message('note_on', channel=9, note=40, velocity=95, time=480),
    Message('note_on', channel=9, note=40, velocity=95, time=0),
    Message('note_off', channel=9, note=40, velocity=95, time=240),
    Message('note_off', channel=9, note=40, velocity=95, time=0),
    Message('note_on', channel=9, note=40, velocity=95, time=0),
    Message('note_on', channel=9, note=40, velocity=95, time=0),
    Message('note_off', channel=9, note=40, velocity=95, time=240),
    Message('note_off', channel=9, note=40, velocity=95, time=0),
    Message('note_on', channel=9, note=40, velocity=95, time=0),
    Message('note_on', channel=9, note=40, velocity=95, time=0),
    Message('note_off', channel=9, note=40, velocity=95, time=240),
    Message('note_off', channel=9, note=40, velocity=95, time=0),
    Message('note_on', channel=9, note=40, velocity=95, time=0),
    Message('note_on', channel=9, note=40, velocity=95, time=0),
    Message('note_off', channel=9, note=40, velocity=95, time=240),
    Message('note_off', channel=9, note=40, velocity=95, time=0),
    Message('note_on', channel=9, note=40, velocity=95, time=0),
    Message('note_on', channel=9, note=40, velocity=95, time=0),
    Message('note_off', channel=9, note=40, velocity=95, time=240),
    Message('note_off', channel=9, note=40, velocity=95, time=0),
    Message('note_on', channel=9, note=40, velocity=95, time=0),
    Message('note_on', channel=9, note=40, velocity=95, time=0),
    Message('note_off', channel=9, note=40, velocity=95, time=240),
    Message('note_off', channel=9, note=40, velocity=95, time=0),
    Message('note_on', channel=9, note=40, velocity=95, time=0),
    Message('note_on', channel=9, note=40, velocity=95, time=0),
    Message('note_off', channel=9, note=40, velocity=95, time=240),
    Message('note_off', channel=9, note=40, velocity=95, time=0),
    Message('note_on', channel=9, note=40, velocity=95, time=0),
    Message('note_on', channel=9, note=40, velocity=95, time=0),
    Message('note_off', channel=9, note=40, velocity=95, time=240),
    Message('note_off', channel=9, note=40, velocity=95, time=0),
    Message('note_on', channel=9, note=49, velocity=95, time=0),
    Message('note_on', channel=9, note=36, velocity=95, time=0),
    Message('note_on', channel=9, note=36, velocity=95, time=0),
    Message('note_off', channel=9, note=36, velocity=95, time=1920),
    Message('note_off', channel=9, note=36, velocity=95, time=0),
    Message('note_off', channel=9, note=49, velocity=95, time=1920),
    MetaMessage('end_of_track', time=0)])
])
